500 0 14 0           
7 Unknown 11 ACIS 5.0 NT 24 Thu Mar 25 20:37:51 1999 
-1 9.9999999999999995e-007 1e-010 
body $-1 $14 $-1 $15 #
body $-1 $16 $-1 $17 #
body $-1 $18 $-1 $19 #
body $-1 $20 $-1 $21 #
body $-1 $22 $-1 $23 #
body $-1 $24 $-1 $25 #
body $-1 $26 $-1 $27 #
body $-1 $28 $-1 $29 #
body $-1 $30 $-1 $31 #
body $-1 $32 $-1 $33 #
body $-1 $34 $-1 $35 #
body $-1 $36 $-1 $37 #
body $-1 $38 $-1 $39 #
body $-1 $40 $-1 $41 #
lump $-1 $-1 $42 $0 #
transform $-1 1 0 0 0 1 0 0 0 1 51.257667775505844 25.413741590040832 9.3307296425973156 1 rotate no_reflect no_shear #
lump $-1 $-1 $43 $1 #
transform $-1 1 0 0 0 1 0 0 0 1 51.257667775505844 25.413741590040832 9.3307296425973156 1 rotate no_reflect no_shear #
lump $-1 $-1 $44 $2 #
transform $-1 1 0 0 0 1 0 0 0 1 51.257667775505844 25.413741590040832 9.3307296425973156 1 rotate no_reflect no_shear #
lump $-1 $-1 $45 $3 #
transform $-1 1 0 0 0 1 0 0 0 1 51.257667775505844 25.413741590040832 9.3307296425973156 1 rotate no_reflect no_shear #
lump $-1 $-1 $46 $4 #
transform $-1 1 0 0 0 1 0 0 0 1 51.257667775505844 25.413741590040832 9.3307296425973156 1 rotate no_reflect no_shear #
lump $-1 $-1 $47 $5 #
transform $-1 1 0 0 0 1 0 0 0 1 51.257667775505844 25.413741590040832 9.3307296425973156 1 rotate no_reflect no_shear #
lump $-1 $-1 $48 $6 #
transform $-1 1 0 0 0 1 0 0 0 1 51.257667775505844 25.413741590040832 9.3307296425973156 1 rotate no_reflect no_shear #
lump $-1 $-1 $49 $7 #
transform $-1 1 0 0 0 1 0 0 0 1 51.257667775505844 25.413741590040832 9.3307296425973156 1 rotate no_reflect no_shear #
lump $-1 $-1 $50 $8 #
transform $-1 1 0 0 0 1 0 0 0 1 51.257667775505844 25.413741590040832 9.3307296425973156 1 rotate no_reflect no_shear #
lump $-1 $-1 $51 $9 #
transform $-1 1 0 0 0 1 0 0 0 1 51.257667775505844 25.413741590040832 9.3307296425973156 1 rotate no_reflect no_shear #
lump $-1 $-1 $52 $10 #
transform $-1 1 0 0 0 1 0 0 0 1 51.257667775505844 25.413741590040832 9.3307296425973156 1 rotate no_reflect no_shear #
lump $-1 $-1 $53 $11 #
transform $-1 1 0 0 0 1 0 0 0 1 51.257667775505844 25.413741590040832 9.3307296425973156 1 rotate no_reflect no_shear #
lump $-1 $-1 $54 $12 #
transform $-1 1 0 0 0 1 0 0 0 1 51.257667775505844 25.413741590040832 9.3307296425973156 1 rotate no_reflect no_shear #
lump $-1 $-1 $55 $13 #
transform $-1 1 0 0 0 1 0 0 0 1 51.257667775505844 25.413741590040832 9.3307296425973156 1 rotate no_reflect no_shear #
shell $-1 $-1 $-1 $56 $-1 $14 #
shell $-1 $-1 $-1 $57 $-1 $16 #
shell $-1 $-1 $-1 $58 $-1 $18 #
shell $-1 $-1 $-1 $59 $-1 $20 #
shell $-1 $-1 $-1 $60 $-1 $22 #
shell $-1 $-1 $-1 $61 $-1 $24 #
shell $-1 $-1 $-1 $62 $-1 $26 #
shell $-1 $-1 $-1 $63 $-1 $28 #
shell $-1 $-1 $-1 $64 $-1 $30 #
shell $-1 $-1 $-1 $65 $-1 $32 #
shell $-1 $-1 $-1 $66 $-1 $34 #
shell $-1 $-1 $-1 $67 $-1 $36 #
shell $-1 $-1 $-1 $68 $-1 $38 #
shell $-1 $-1 $-1 $69 $-1 $40 #
face $-1 $70 $71 $42 $-1 $72 forward single #
face $-1 $73 $74 $43 $-1 $75 forward single #
face $-1 $76 $77 $44 $-1 $78 reversed single #
face $-1 $79 $80 $45 $-1 $81 forward single #
face $-1 $82 $83 $46 $-1 $84 reversed single #
face $-1 $85 $86 $47 $-1 $87 forward single #
face $-1 $88 $89 $48 $-1 $90 reversed single #
face $-1 $91 $92 $49 $-1 $93 forward single #
face $-1 $94 $95 $50 $-1 $96 reversed single #
face $-1 $97 $98 $51 $-1 $99 forward single #
face $-1 $100 $101 $52 $-1 $102 reversed single #
face $-1 $103 $104 $53 $-1 $105 forward single #
face $-1 $106 $107 $54 $-1 $108 forward single #
face $-1 $109 $110 $55 $-1 $111 forward single #
face $-1 $112 $113 $42 $-1 $114 reversed single #
loop $-1 $-1 $115 $56 #
plane-surface $-1 0 0 9.3307296425973156 0 0 1 1 0 0 forward_v I I I I #
face $-1 $116 $117 $43 $-1 $118 reversed single #
loop $-1 $-1 $119 $57 #
plane-surface $-1 0 -22.181052541804899 4.5840652497243664 0 0 1 1 0 0 forward_v I I I I #
face $-1 $120 $121 $44 $-1 $122 reversed single #
loop $-1 $-1 $123 $58 #
plane-surface $-1 -134.19431725928649 -16.536094710118469 66.308357249042501 0 1 0 -0.80901700255871778 0 0.5877852410284794 forward_v I I I I #
face $-1 $124 $125 $45 $-1 $126 forward single #
loop $-1 $127 $128 $59 #
cone-surface $-1 -49.468238187271481 -13.211419609078128 7.2564778377896344 0.80901700255871778 0 -0.5877852410284794 0.5877852410284794 0 0.80901700255871778 1 I I 0 1 1 forward I I I I #
face $-1 $129 $130 $46 $-1 $131 reversed single #
loop $-1 $-1 $132 $60 #
plane-surface $-1 -134.19431725928649 -5.5733556052424289 66.308357249042501 0 1 0 -0.80901700255871778 0 0.5877852410284794 forward_v I I I I #
face $-1 $133 $134 $47 $-1 $135 forward single #
loop $-1 $136 $137 $61 #
cone-surface $-1 -49.468238187271481 -2.2486805042020883 7.2564778377896344 0.80901700255871778 0 -0.5877852410284794 0.5877852410284794 0 0.80901700255871778 1 I I 0 1 1 forward I I I I #
face $-1 $138 $139 $48 $-1 $140 reversed single #
loop $-1 $-1 $141 $62 #
plane-surface $-1 -134.19431725928649 5.389383499633607 66.308357249042501 0 1 0 -0.80901700255871778 0 0.5877852410284794 forward_v I I I I #
face $-1 $142 $143 $49 $-1 $144 forward single #
loop $-1 $145 $146 $63 #
cone-surface $-1 -49.468238187271481 8.7140586006739476 7.2564778377896344 0.80901700255871778 0 -0.5877852410284794 0.5877852410284794 0 0.80901700255871778 1 I I 0 1 1 forward I I I I #
face $-1 $147 $148 $50 $-1 $149 reversed single #
loop $-1 $-1 $150 $64 #
plane-surface $-1 -134.19431725928649 16.352122604509642 66.308357249042501 0 1 0 -0.80901700255871778 0 0.5877852410284794 forward_v I I I I #
face $-1 $151 $152 $51 $-1 $153 forward single #
loop $-1 $154 $155 $65 #
cone-surface $-1 -49.468238187271481 19.676797705549983 7.2564778377896344 0.80901700255871778 0 -0.5877852410284794 0.5877852410284794 0 0.80901700255871778 1 I I 0 1 1 forward I I I I #
face $-1 $156 $157 $52 $-1 $158 reversed single #
loop $-1 $-1 $159 $66 #
plane-surface $-1 58.845262075792569 -8.4285641187672766 149.84107300730321 0 -1 0 -0.74314483375859142 0 -0.66913059716165679 forward_v I I I I #
face $-1 $160 $161 $53 $-1 $162 forward single #
loop $-1 $163 $164 $67 #
cone-surface $-1 48.963937016602436 -14.454082019442215 6.8613911807499814 -0.74314483375859142 0 -0.66913059716165679 0.3345652985808284 0 -0.37157241687929571 1 I I 0 1 0.5 forward I I I I #
face $-1 $165 $166 $54 $-1 $167 forward single #
loop $-1 $168 $169 $68 #
cone-surface $-1 48.963937016602436 -12.194512806689112 6.8613911807499814 -0.74314483375859142 0 -0.66913059716165679 0.3345652985808284 0 -0.37157241687929571 1 I I 0 1 0.5 forward I I I I #
face $-1 $170 $171 $55 $-1 $172 forward single #
loop $-1 $173 $174 $69 #
cone-surface $-1 48.963937016602436 -9.9349435939360085 6.8613911807499814 -0.74314483375859142 0 -0.66913059716165679 0.3345652985808284 0 -0.37157241687929571 1 I I 0 1 0.5 forward I I I I #
face $-1 $175 $176 $42 $-1 $177 reversed single #
loop $-1 $-1 $178 $70 #
plane-surface $-1 0 0 -9.3307296425973156 0 0 1 1 0 0 forward_v I I I I #
coedge $-1 $179 $180 $181 $182 forward $71 $-1 #
face $-1 $183 $184 $43 $-1 $185 reversed single #
loop $-1 $-1 $186 $73 #
plane-surface $-1 0 -22.181052541804899 1.5840652497243664 0 0 1 1 0 0 forward_v I I I I #
coedge $-1 $187 $188 $189 $190 reversed $74 $-1 #
face $-1 $191 $192 $44 $-1 $193 reversed single #
loop $-1 $-1 $194 $76 #
plane-surface $-1 -51.257667775505851 -13.211419609078128 6.0513560330756562 -0.80901700255871778 0 0.5877852410284794 0.5877852410284794 0 0.80901700255871778 forward_v I I I I #
coedge $-1 $195 $196 $197 $198 reversed $77 $-1 #
face $-1 $-1 $199 $45 $-1 $200 forward single #
loop $-1 $201 $202 $79 #
cone-surface $-1 -48.465602259145413 -13.211419609078128 6.5280202172285353 0.80901700255871778 0 -0.5877852410284794 0.2938926205142397 0 0.40450850127935889 1 I I -0.70710678118654746 0.70710678118654746 0.5 forward I I I I #
loop $-1 $-1 $203 $59 #
coedge $-1 $128 $128 $204 $205 reversed $80 $-1 #
face $-1 $206 $207 $46 $-1 $208 reversed single #
loop $-1 $-1 $209 $82 #
plane-surface $-1 -51.257667775505851 -2.2486805042020883 6.0513560330756562 -0.80901700255871778 0 0.5877852410284794 0.5877852410284794 0 0.80901700255871778 forward_v I I I I #
coedge $-1 $210 $211 $212 $213 reversed $83 $-1 #
face $-1 $-1 $214 $47 $-1 $215 forward single #
loop $-1 $216 $217 $85 #
cone-surface $-1 -48.465602259145413 -2.2486805042020883 6.5280202172285353 0.80901700255871778 0 -0.5877852410284794 0.2938926205142397 0 0.40450850127935889 1 I I -0.70710678118654746 0.70710678118654746 0.5 forward I I I I #
loop $-1 $-1 $218 $61 #
coedge $-1 $137 $137 $219 $220 reversed $86 $-1 #
face $-1 $221 $222 $48 $-1 $223 reversed single #
loop $-1 $-1 $224 $88 #
plane-surface $-1 -51.257667775505851 8.7140586006739476 6.0513560330756562 -0.80901700255871778 0 0.5877852410284794 0.5877852410284794 0 0.80901700255871778 forward_v I I I I #
coedge $-1 $225 $226 $227 $228 reversed $89 $-1 #
face $-1 $-1 $229 $49 $-1 $230 forward single #
loop $-1 $231 $232 $91 #
cone-surface $-1 -48.465602259145413 8.7140586006739476 6.5280202172285353 0.80901700255871778 0 -0.5877852410284794 0.2938926205142397 0 0.40450850127935889 1 I I -0.70710678118654746 0.70710678118654746 0.5 forward I I I I #
loop $-1 $-1 $233 $63 #
coedge $-1 $146 $146 $234 $235 reversed $92 $-1 #
face $-1 $236 $237 $50 $-1 $238 reversed single #
loop $-1 $-1 $239 $94 #
plane-surface $-1 -51.257667775505851 19.676797705549983 6.0513560330756562 -0.80901700255871778 0 0.5877852410284794 0.5877852410284794 0 0.80901700255871778 forward_v I I I I #
coedge $-1 $240 $241 $242 $243 reversed $95 $-1 #
face $-1 $-1 $244 $51 $-1 $245 forward single #
loop $-1 $246 $247 $97 #
cone-surface $-1 -48.465602259145413 19.676797705549983 6.5280202172285353 0.80901700255871778 0 -0.5877852410284794 0.2938926205142397 0 0.40450850127935889 1 I I -0.70710678118654746 0.70710678118654746 0.5 forward I I I I #
loop $-1 $-1 $248 $65 #
coedge $-1 $155 $155 $249 $250 reversed $98 $-1 #
face $-1 $251 $252 $52 $-1 $253 reversed single #
loop $-1 $-1 $254 $100 #
plane-surface $-1 -17.338479919970233 -12.194512806689113 81.244925311827132 0.74314483375859142 0 0.66913059716165679 0.66913059716165679 0 -0.74314483375859142 forward_v I I I I #
coedge $-1 $255 $256 $257 $258 reversed $101 $-1 #
face $-1 $-1 $259 $53 $-1 $260 forward single #
loop $-1 $261 $262 $103 #
cone-surface $-1 48.406578391283496 -14.454082019442215 6.3595432328787389 -0.74314483375859142 0 -0.66913059716165679 0.1672826492904142 0 -0.18578620843964785 1 I I -0.70710678118654746 0.70710678118654746 0.25 forward I I I I #
loop $-1 $-1 $263 $67 #
coedge $-1 $164 $164 $264 $265 reversed $104 $-1 #
face $-1 $-1 $266 $54 $-1 $267 forward single #
loop $-1 $268 $269 $106 #
cone-surface $-1 48.406578391283496 -12.194512806689112 6.3595432328787389 -0.74314483375859142 0 -0.66913059716165679 0.1672826492904142 0 -0.18578620843964785 1 I I -0.70710678118654746 0.70710678118654746 0.25 forward I I I I #
loop $-1 $-1 $270 $68 #
coedge $-1 $169 $169 $271 $272 reversed $107 $-1 #
face $-1 $-1 $273 $55 $-1 $274 forward single #
loop $-1 $275 $276 $109 #
cone-surface $-1 48.406578391283496 -9.9349435939360085 6.3595432328787389 -0.74314483375859142 0 -0.66913059716165679 0.1672826492904142 0 -0.18578620843964785 1 I I -0.70710678118654746 0.70710678118654746 0.25 forward I I I I #
loop $-1 $-1 $277 $69 #
coedge $-1 $174 $174 $278 $279 reversed $110 $-1 #
face $-1 $280 $281 $42 $-1 $282 reversed single #
loop $-1 $-1 $283 $112 #
plane-surface $-1 0 -25.413741590040832 0 0 1 0 0 0 1 forward_v I I I I #
coedge $-1 $284 $285 $286 $287 forward $113 $-1 #
coedge $-1 $288 $115 $289 $290 forward $71 $-1 #
coedge $-1 $115 $288 $291 $292 forward $71 $-1 #
coedge $-1 $293 $294 $115 $182 reversed $295 $-1 #
edge $-1 $296 -25.413741590040832 $297 25.413741590040832 $181 $298 forward 7 unknown #
face $-1 $299 $300 $43 $-1 $301 reversed single #
loop $-1 $-1 $302 $116 #
plane-surface $-1 0 -18.948363493568966 3.0840652497243664 0 -1 0 0 0 -1 forward_v I I I I #
coedge $-1 $303 $304 $305 $306 reversed $117 $-1 #
coedge $-1 $307 $119 $308 $309 forward $74 $-1 #
coedge $-1 $119 $307 $310 $311 reversed $74 $-1 #
coedge $-1 $312 $313 $119 $190 forward $314 $-1 #
edge $-1 $315 7.8578372226665163 $316 14.323215319138383 $189 $317 forward 7 unknown #
face $-1 $318 $319 $44 $-1 $320 reversed single #
loop $-1 $-1 $321 $120 #
plane-surface $-1 -134.19431725928649 -9.8867445080377863 66.308357249042501 0 -1 0 0.80901700255871778 0 -0.5877852410284794 forward_v I I I I #
coedge $-1 $322 $323 $324 $325 reversed $121 $-1 #
coedge $-1 $196 $123 $326 $327 reversed $77 $-1 #
coedge $-1 $123 $195 $322 $328 reversed $77 $-1 #
coedge $-1 $324 $329 $123 $198 forward $330 $-1 #
edge $-1 $331 15.839490854137402 $332 18.222095176912703 $197 $333 forward 7 unknown #
loop $-1 $-1 $204 $124 #
plane-surface $-1 -51.257667775505851 -13.211419609078128 6.0513560330756562 -0.80901700255871778 0 0.5877852410284794 0.5877852410284794 0 0.80901700255871778 forward_v I I I I #
loop $-1 $-1 $334 $79 #
coedge $-1 $202 $202 $203 $335 reversed $125 $-1 #
coedge $-1 $203 $203 $202 $335 forward $127 $-1 #
coedge $-1 $204 $204 $128 $205 forward $199 $-1 #
edge $-1 $336 0 $336 6.2831853071796004 $204 $337 forward 7 unknown #
face $-1 $338 $339 $46 $-1 $340 forward single #
loop $-1 $-1 $341 $129 #
plane-surface $-1 -134.19431725928649 1.0759945968382523 66.308357249042501 0 -1 0 0.80901700255871778 0 -0.5877852410284794 forward_v I I I I #
coedge $-1 $342 $343 $344 $345 reversed $130 $-1 #
coedge $-1 $211 $132 $346 $347 reversed $83 $-1 #
coedge $-1 $132 $210 $342 $348 reversed $83 $-1 #
coedge $-1 $344 $349 $132 $213 forward $339 $-1 #
edge $-1 $350 15.839490854137402 $351 18.222095176912703 $212 $352 forward 7 unknown #
loop $-1 $-1 $219 $133 #
plane-surface $-1 -51.257667775505851 -2.2486805042020883 6.0513560330756562 -0.80901700255871778 0 0.5877852410284794 0.5877852410284794 0 0.80901700255871778 forward_v I I I I #
loop $-1 $-1 $353 $85 #
coedge $-1 $217 $217 $218 $354 reversed $134 $-1 #
coedge $-1 $218 $218 $217 $354 forward $136 $-1 #
coedge $-1 $219 $219 $137 $220 forward $214 $-1 #
edge $-1 $355 0 $355 6.2831853071796004 $219 $356 forward 7 unknown #
face $-1 $357 $358 $48 $-1 $359 forward single #
loop $-1 $-1 $360 $138 #
plane-surface $-1 -134.19431725928649 12.038733701714289 66.308357249042501 0 -1 0 0.80901700255871778 0 -0.5877852410284794 forward_v I I I I #
coedge $-1 $361 $362 $363 $364 reversed $139 $-1 #
coedge $-1 $226 $141 $365 $366 reversed $89 $-1 #
coedge $-1 $141 $225 $361 $367 reversed $89 $-1 #
coedge $-1 $363 $368 $141 $228 forward $358 $-1 #
edge $-1 $369 15.839490854137402 $370 18.222095176912703 $227 $371 forward 7 unknown #
loop $-1 $-1 $234 $142 #
plane-surface $-1 -51.257667775505851 8.7140586006739476 6.0513560330756562 -0.80901700255871778 0 0.5877852410284794 0.5877852410284794 0 0.80901700255871778 forward_v I I I I #
loop $-1 $-1 $372 $91 #
coedge $-1 $232 $232 $233 $373 reversed $143 $-1 #
coedge $-1 $233 $233 $232 $373 forward $145 $-1 #
coedge $-1 $234 $234 $146 $235 forward $229 $-1 #
edge $-1 $374 0 $374 6.2831853071796004 $234 $375 forward 7 unknown #
face $-1 $376 $377 $50 $-1 $378 forward single #
loop $-1 $-1 $379 $147 #
plane-surface $-1 -134.19431725928649 23.001472806590325 66.308357249042501 0 -1 0 0.80901700255871778 0 -0.5877852410284794 forward_v I I I I #
coedge $-1 $380 $381 $382 $383 reversed $148 $-1 #
coedge $-1 $241 $150 $384 $385 reversed $95 $-1 #
coedge $-1 $150 $240 $380 $386 reversed $95 $-1 #
coedge $-1 $382 $387 $150 $243 forward $377 $-1 #
edge $-1 $388 15.839490854137402 $389 18.222095176912703 $242 $390 forward 7 unknown #
loop $-1 $-1 $249 $151 #
plane-surface $-1 -51.257667775505851 19.676797705549983 6.0513560330756562 -0.80901700255871778 0 0.5877852410284794 0.5877852410284794 0 0.80901700255871778 forward_v I I I I #
loop $-1 $-1 $391 $97 #
coedge $-1 $247 $247 $248 $392 reversed $152 $-1 #
coedge $-1 $248 $248 $247 $392 forward $154 $-1 #
coedge $-1 $249 $249 $155 $250 forward $244 $-1 #
edge $-1 $393 0 $393 6.2831853071796004 $249 $394 forward 7 unknown #
face $-1 $395 $396 $52 $-1 $397 forward single #
loop $-1 $-1 $398 $156 #
plane-surface $-1 58.845262075792569 -15.96046149461095 149.84107300730321 0 1 0 0.74314483375859142 0 0.66913059716165679 forward_v I I I I #
coedge $-1 $399 $400 $401 $402 reversed $157 $-1 #
coedge $-1 $256 $159 $403 $404 reversed $101 $-1 #
coedge $-1 $159 $255 $399 $405 reversed $101 $-1 #
coedge $-1 $401 $406 $159 $258 forward $396 $-1 #
edge $-1 $407 -21.83503673760956 $408 -17.990720053561365 $257 $409 forward 7 unknown #
loop $-1 $-1 $264 $160 #
plane-surface $-1 -17.338479919970233 -12.194512806689113 81.244925311827132 0.74314483375859142 0 0.66913059716165679 0.66913059716165679 0 -0.74314483375859142 forward_v I I I I #
loop $-1 $-1 $410 $103 #
coedge $-1 $262 $262 $263 $411 reversed $161 $-1 #
coedge $-1 $263 $263 $262 $411 forward $163 $-1 #
coedge $-1 $264 $264 $164 $265 forward $259 $-1 #
edge $-1 $412 0 $412 6.2831853071796004 $264 $413 forward 7 unknown #
loop $-1 $-1 $271 $165 #
plane-surface $-1 -17.338479919970233 -12.194512806689113 81.244925311827132 0.74314483375859142 0 0.66913059716165679 0.66913059716165679 0 -0.74314483375859142 forward_v I I I I #
loop $-1 $-1 $414 $106 #
coedge $-1 $269 $269 $270 $415 reversed $166 $-1 #
coedge $-1 $270 $270 $269 $415 forward $168 $-1 #
coedge $-1 $271 $271 $169 $272 forward $266 $-1 #
edge $-1 $416 0 $416 6.2831853071796004 $271 $417 forward 7 unknown #
loop $-1 $-1 $278 $170 #
plane-surface $-1 -17.338479919970233 -12.194512806689113 81.244925311827132 0.74314483375859142 0 0.66913059716165679 0.66913059716165679 0 -0.74314483375859142 forward_v I I I I #
loop $-1 $-1 $418 $109 #
coedge $-1 $276 $276 $277 $419 reversed $171 $-1 #
coedge $-1 $277 $277 $276 $419 forward $173 $-1 #
coedge $-1 $278 $278 $174 $279 forward $273 $-1 #
edge $-1 $420 0 $420 6.2831853071796004 $278 $421 forward 7 unknown #
face $-1 $422 $423 $42 $-1 $424 reversed single #
loop $-1 $-1 $425 $175 #
plane-surface $-1 -51.257667775505844 0 0 1 0 0 0 0 -1 forward_v I I I I #
coedge $-1 $426 $291 $427 $428 forward $176 $-1 #
coedge $-1 $429 $178 $426 $430 forward $113 $-1 #
coedge $-1 $178 $429 $431 $432 forward $113 $-1 #
coedge $-1 $294 $293 $178 $287 reversed $295 $-1 #
edge $-1 $433 -25.413741590040832 $434 25.413741590040832 $286 $435 forward 7 unknown #
coedge $-1 $180 $179 $436 $437 forward $71 $-1 #
coedge $-1 $438 $439 $179 $290 reversed $423 $-1 #
edge $-1 $297 -51.257667775505844 $440 51.257667775505844 $289 $441 forward 7 unknown #
coedge $-1 $283 $442 $180 $292 reversed $176 $-1 #
edge $-1 $443 -51.257667775505844 $296 51.257667775505844 $291 $444 forward 7 unknown #
coedge $-1 $286 $181 $442 $445 forward $295 $-1 #
coedge $-1 $181 $286 $438 $446 reversed $295 $-1 #
loop $-1 $-1 $293 $422 #
vertex $-1 $182 $447 #
vertex $-1 $182 $448 #
straight-curve $-1 51.257667775505844 0 9.3307296425973156 0 1 0 I I #
face $-1 $449 $450 $43 $-1 $451 reversed single #
loop $-1 $-1 $452 $183 #
plane-surface $-1 -51.257667775505844 0 0 1 0 0 0 0 -1 forward_v I I I I #
coedge $-1 $453 $308 $313 $454 reversed $184 $-1 #
coedge $-1 $455 $186 $456 $457 reversed $117 $-1 #
coedge $-1 $186 $455 $453 $458 forward $117 $-1 #
coedge $-1 $313 $312 $186 $306 forward $314 $-1 #
edge $-1 $459 -14.323215319138383 $460 -7.8578372226665163 $305 $461 forward 7 unknown #
coedge $-1 $188 $187 $452 $462 reversed $74 $-1 #
coedge $-1 $302 $463 $187 $309 reversed $184 $-1 #
edge $-1 $315 -51.257667775505844 $464 51.257667775505844 $308 $465 forward 7 unknown #
coedge $-1 $466 $467 $188 $311 forward $450 $-1 #
edge $-1 $316 -51.257667775505844 $468 51.257667775505844 $310 $469 forward 7 unknown #
coedge $-1 $305 $189 $467 $470 forward $314 $-1 #
coedge $-1 $189 $305 $302 $454 forward $314 $-1 #
loop $-1 $-1 $189 $449 #
vertex $-1 $190 $471 #
vertex $-1 $470 $472 #
straight-curve $-1 51.257667775505844 -11.090526270902449 4.5840652497243664 0 -1 0 I I #
face $-1 $-1 $330 $44 $-1 $473 forward single #
loop $-1 $-1 $474 $191 #
plane-surface $-1 -51.257667775505844 0 0 1 0 0 0 0 -1 forward_v I I I I #
coedge $-1 $475 $476 $477 $478 reversed $192 $-1 #
coedge $-1 $479 $194 $196 $328 forward $121 $-1 #
coedge $-1 $194 $479 $475 $480 forward $121 $-1 #
coedge $-1 $477 $197 $194 $325 forward $330 $-1 #
edge $-1 $332 -9.9303849055794053 $481 -3.2810347034987224 $324 $482 forward 7 unknown #
coedge $-1 $483 $484 $195 $327 forward $319 $-1 #
edge $-1 $485 -27.102822591445584 $331 -23.823448981923935 $326 $486 forward 7 unknown #
edge $-1 $332 -4.0535286639833572 $485 -1.2080531203272332e-014 $196 $487 forward 7 unknown #
coedge $-1 $197 $477 $483 $488 forward $330 $-1 #
loop $-1 $-1 $477 $318 #
vertex $-1 $327 $489 #
vertex $-1 $198 $490 #
straight-curve $-1 -67.097158629643246 -16.536094710118469 9.3307296425973156 1 0 0 I I #
coedge $-1 $334 $334 $-1 $491 reversed $201 $-1 #
edge $-1 $492 0 $492 6.2831853071796004 $202 $493 forward 7 unknown #
vertex $-1 $205 $494 #
ellipse-curve $-1 -50.06636561411819 -13.211419609078128 7.691042837836493 -0.80901700255871778 0 0.5877852410284794 0.5877852410284794 0 0.80901700255871778 1 I I #
face $-1 $-1 $495 $46 $-1 $496 reversed single #
loop $-1 $-1 $212 $206 #
plane-surface $-1 0 0 9.3307296425973156 0 0 1 1 0 0 forward_v I I I I #
coedge $-1 $497 $498 $499 $500 reversed $207 $-1 #
coedge $-1 $501 $209 $211 $348 forward $130 $-1 #
coedge $-1 $209 $501 $497 $502 forward $130 $-1 #
coedge $-1 $499 $212 $209 $345 forward $339 $-1 #
edge $-1 $351 -4.4490153531413847 $503 2.2003348489392964 $344 $504 forward 7 unknown #
coedge $-1 $505 $506 $210 $347 forward $495 $-1 #
edge $-1 $507 -27.102822591445584 $350 -23.823448981923935 $346 $508 forward 7 unknown #
edge $-1 $351 -4.0535286639833572 $507 -1.2080531203272332e-014 $211 $509 forward 7 unknown #
coedge $-1 $212 $499 $505 $510 forward $339 $-1 #
vertex $-1 $213 $511 #
vertex $-1 $213 $512 #
straight-curve $-1 -67.097158629643246 -5.5733556052424289 9.3307296425973156 1 0 0 I I #
coedge $-1 $353 $353 $-1 $513 reversed $216 $-1 #
edge $-1 $514 0 $514 6.2831853071796004 $217 $515 forward 7 unknown #
vertex $-1 $220 $516 #
ellipse-curve $-1 -50.06636561411819 -2.2486805042020883 7.691042837836493 -0.80901700255871778 0 0.5877852410284794 0.5877852410284794 0 0.80901700255871778 1 I I #
face $-1 $-1 $517 $48 $-1 $518 reversed single #
loop $-1 $-1 $227 $221 #
plane-surface $-1 0 0 9.3307296425973156 0 0 1 1 0 0 forward_v I I I I #
coedge $-1 $519 $520 $521 $522 reversed $222 $-1 #
coedge $-1 $523 $224 $226 $367 forward $139 $-1 #
coedge $-1 $224 $523 $519 $524 forward $139 $-1 #
coedge $-1 $521 $227 $224 $364 forward $358 $-1 #
edge $-1 $370 1.0323541992966332 $525 7.6817044013773152 $363 $526 forward 7 unknown #
coedge $-1 $527 $528 $225 $366 forward $517 $-1 #
edge $-1 $529 -27.102822591445584 $369 -23.823448981923935 $365 $530 forward 7 unknown #
edge $-1 $370 -4.0535286639833572 $529 -1.2080531203272332e-014 $226 $531 forward 7 unknown #
coedge $-1 $227 $521 $527 $532 forward $358 $-1 #
vertex $-1 $228 $533 #
vertex $-1 $228 $534 #
straight-curve $-1 -67.097158629643246 5.389383499633607 9.3307296425973156 1 0 0 I I #
coedge $-1 $372 $372 $-1 $535 reversed $231 $-1 #
edge $-1 $536 0 $536 6.2831853071796004 $232 $537 forward 7 unknown #
vertex $-1 $235 $538 #
ellipse-curve $-1 -50.06636561411819 8.7140586006739476 7.691042837836493 -0.80901700255871778 0 0.5877852410284794 0.5877852410284794 0 0.80901700255871778 1 I I #
face $-1 $-1 $539 $50 $-1 $540 reversed single #
loop $-1 $-1 $242 $236 #
plane-surface $-1 0 0 9.3307296425973156 0 0 1 1 0 0 forward_v I I I I #
coedge $-1 $541 $542 $543 $544 reversed $237 $-1 #
coedge $-1 $545 $239 $241 $386 forward $148 $-1 #
coedge $-1 $239 $545 $541 $546 forward $148 $-1 #
coedge $-1 $543 $242 $239 $383 forward $377 $-1 #
edge $-1 $389 6.5137237517346502 $547 13.163073953815333 $382 $548 forward 7 unknown #
coedge $-1 $549 $550 $240 $385 forward $539 $-1 #
edge $-1 $551 -27.102822591445584 $388 -23.823448981923935 $384 $552 forward 7 unknown #
edge $-1 $389 -4.0535286639833572 $551 -1.2080531203272332e-014 $241 $553 forward 7 unknown #
coedge $-1 $242 $543 $549 $554 forward $377 $-1 #
vertex $-1 $243 $555 #
vertex $-1 $243 $556 #
straight-curve $-1 -67.097158629643246 16.352122604509642 9.3307296425973156 1 0 0 I I #
coedge $-1 $391 $391 $-1 $557 reversed $246 $-1 #
edge $-1 $558 0 $558 6.2831853071796004 $247 $559 forward 7 unknown #
vertex $-1 $250 $560 #
ellipse-curve $-1 -50.06636561411819 19.676797705549983 7.691042837836493 -0.80901700255871778 0 0.5877852410284794 0.5877852410284794 0 0.80901700255871778 1 I I #
face $-1 $-1 $561 $52 $-1 $562 reversed single #
loop $-1 $-1 $257 $251 #
plane-surface $-1 0 0 9.3307296425973156 0 0 1 1 0 0 forward_v I I I I #
coedge $-1 $563 $564 $565 $566 reversed $252 $-1 #
coedge $-1 $567 $254 $256 $405 forward $157 $-1 #
coedge $-1 $254 $567 $563 $568 forward $157 $-1 #
coedge $-1 $565 $257 $254 $402 forward $396 $-1 #
edge $-1 $408 2.33130771542272 $569 9.8632050912663942 $401 $570 forward 7 unknown #
coedge $-1 $571 $572 $255 $404 forward $561 $-1 #
edge $-1 $573 -69.859353187587274 $407 -65.589806861054285 $403 $574 forward 7 unknown #
edge $-1 $408 96.770094337480032 $573 102.51533555101167 $256 $575 forward 7 unknown #
coedge $-1 $257 $565 $571 $576 forward $396 $-1 #
vertex $-1 $404 $577 #
vertex $-1 $258 $578 #
straight-curve $-1 29.422631037896284 -8.4285641187672766 9.3307296425973192 -1 0 0 I I #
coedge $-1 $410 $410 $-1 $579 reversed $261 $-1 #
edge $-1 $580 0 $580 6.2831853071796004 $262 $581 forward 7 unknown #
vertex $-1 $265 $582 #
ellipse-curve $-1 49.335509433481747 -14.454082019442215 7.1959564793308237 0.74314483375859142 0 0.66913059716165679 0.3345652985808284 0 -0.37157241687929571 1 I I #
coedge $-1 $414 $414 $-1 $583 reversed $268 $-1 #
edge $-1 $584 0 $584 6.2831853071796004 $269 $585 forward 7 unknown #
vertex $-1 $272 $586 #
ellipse-curve $-1 49.335509433481747 -12.194512806689112 7.1959564793308237 0.74314483375859142 0 0.66913059716165679 0.3345652985808284 0 -0.37157241687929571 1 I I #
coedge $-1 $418 $418 $-1 $587 reversed $275 $-1 #
edge $-1 $588 0 $588 6.2831853071796004 $276 $589 forward 7 unknown #
vertex $-1 $279 $590 #
ellipse-curve $-1 49.335509433481747 -9.9349435939360085 7.1959564793308237 0.74314483375859142 0 0.66913059716165679 0.3345652985808284 0 -0.37157241687929571 1 I I #
face $-1 $-1 $295 $42 $-1 $591 reversed single #
loop $-1 $-1 $438 $280 #
plane-surface $-1 0 25.413741590040832 0 0 -1 0 0 0 -1 forward_v I I I I #
coedge $-1 $592 $436 $439 $593 forward $281 $-1 #
coedge $-1 $442 $283 $284 $430 reversed $176 $-1 #
coedge $-1 $436 $592 $283 $428 reversed $281 $-1 #
edge $-1 $443 -9.3307296425973156 $594 9.3307296425973156 $427 $595 forward 7 unknown #
coedge $-1 $285 $284 $592 $596 forward $113 $-1 #
edge $-1 $434 -51.257667775505844 $594 51.257667775505844 $426 $597 forward 7 unknown #
coedge $-1 $439 $438 $285 $432 reversed $423 $-1 #
edge $-1 $598 -51.257667775505844 $433 51.257667775505844 $431 $599 forward 7 unknown #
vertex $-1 $287 $600 #
vertex $-1 $445 $601 #
straight-curve $-1 51.257667775505844 0 -9.3307296425973156 0 -1 0 I I #
coedge $-1 $425 $427 $288 $437 reversed $281 $-1 #
edge $-1 $440 -25.413741590040832 $443 25.413741590040832 $436 $602 forward 7 unknown #
coedge $-1 $431 $289 $294 $446 forward $423 $-1 #
coedge $-1 $289 $431 $425 $593 reversed $423 $-1 #
vertex $-1 $290 $603 #
straight-curve $-1 0 25.413741590040832 9.3307296425973156 -1 0 0 I I #
coedge $-1 $291 $426 $293 $445 reversed $176 $-1 #
vertex $-1 $437 $604 #
straight-curve $-1 0 -25.413741590040832 9.3307296425973156 1 0 0 I I #
edge $-1 $296 -9.3307296425973156 $434 9.3307296425973156 $293 $605 forward 7 unknown #
edge $-1 $297 -9.3307296425973156 $433 9.3307296425973156 $294 $606 forward 7 unknown #
point $-1 51.257667775505844 -25.413741590040832 9.3307296425973156 #
point $-1 51.257667775505844 25.413741590040832 9.3307296425973156 #
face $-1 $-1 $314 $43 $-1 $607 reversed single #
loop $-1 $-1 $310 $299 #
plane-surface $-1 0 -25.413741590040832 0 0 1 0 0 0 1 forward_v I I I I #
coedge $-1 $608 $609 $307 $462 forward $300 $-1 #
coedge $-1 $463 $302 $304 $458 reversed $184 $-1 #
edge $-1 $460 0.042032624862183177 $315 3.0420326248621832 $313 $610 forward 7 unknown #
coedge $-1 $304 $303 $611 $612 reversed $117 $-1 #
coedge $-1 $467 $466 $303 $457 forward $450 $-1 #
edge $-1 $613 -51.257667775505844 $459 51.257667775505844 $456 $614 forward 7 unknown #
edge $-1 $615 -51.257667775505844 $460 51.257667775505844 $453 $616 forward 7 unknown #
vertex $-1 $457 $617 #
vertex $-1 $306 $618 #
straight-curve $-1 51.257667775505844 -11.090526270902449 1.5840652497243664 0 1 0 I I #
edge $-1 $468 -14.323215319138383 $464 -7.8578372226665163 $452 $619 forward 7 unknown #
coedge $-1 $308 $453 $608 $620 reversed $184 $-1 #
vertex $-1 $462 $621 #
straight-curve $-1 0 -18.948363493568966 4.5840652497243664 -1 0 0 I I #
coedge $-1 $456 $310 $609 $622 forward $450 $-1 #
coedge $-1 $310 $456 $312 $470 reversed $450 $-1 #
vertex $-1 $622 $623 #
straight-curve $-1 0 -25.413741590040832 4.5840652497243664 -1 0 0 I I #
edge $-1 $316 -4.5840652497243664 $459 -1.5840652497243664 $312 $624 forward 7 unknown #
point $-1 51.257667775505844 -18.948363493568966 4.5840652497243664 #
point $-1 51.257667775505844 -25.413741590040832 4.5840652497243664 #
plane-surface $-1 0 0 9.3307296425973156 0 0 1 1 0 0 forward_v I I I I #
coedge $-1 $484 $483 $476 $625 forward $319 $-1 #
coedge $-1 $476 $321 $323 $480 reversed $192 $-1 #
coedge $-1 $321 $475 $474 $625 reversed $192 $-1 #
coedge $-1 $329 $324 $321 $478 forward $330 $-1 #
edge $-1 $481 -18.222095176912703 $626 -15.839490854137402 $477 $627 forward 7 unknown #
coedge $-1 $323 $322 $484 $628 reversed $121 $-1 #
edge $-1 $629 1.2080531203272332e-014 $481 4.0535286639833572 $475 $630 forward 7 unknown #
vertex $-1 $325 $631 #
straight-curve $-1 -48.875063452730544 -6.6057098045390639 9.3307296425973156 0 1 0 I I #
coedge $-1 $474 $326 $329 $488 reversed $319 $-1 #
coedge $-1 $326 $474 $479 $628 forward $319 $-1 #
vertex $-1 $327 $632 #
straight-curve $-1 -51.257667775505844 -16.536094710118469 33.154178624521251 0 0 1 I I #
straight-curve $-1 -51.257667775505851 -16.536094710118469 6.0513560330756562 -0.5877852410284794 0 -0.80901700255871778 I I #
edge $-1 $626 9.8867445080377863 $331 16.536094710118469 $483 $633 forward 7 unknown #
point $-1 -51.257667775505844 -16.536094710118469 9.3307296425973156 #
point $-1 -48.875063452730544 -16.536094710118469 9.3307296425973156 #
edge $-1 $634 1 $634 0 $334 $-1 forward 7 unknown #
vertex $-1 $335 $635 #
ellipse-curve $-1 -48.870110760424772 -13.211419609078128 6.8219128377427749 -0.80901700255871778 0 0.5877852410284794 0.5877852410284794 0 0.80901700255871778 1 I I #
point $-1 -49.47858037308972 -13.211419609078128 8.5000598403952115 #
loop $-1 $-1 $346 $338 #
plane-surface $-1 -51.257667775505844 0 0 1 0 0 0 0 -1 forward_v I I I I #
coedge $-1 $498 $341 $343 $502 reversed $207 $-1 #
coedge $-1 $341 $497 $636 $637 reversed $207 $-1 #
coedge $-1 $349 $344 $341 $500 forward $339 $-1 #
edge $-1 $503 -18.222095176912703 $638 -15.839490854137402 $499 $639 forward 7 unknown #
coedge $-1 $343 $342 $506 $640 reversed $130 $-1 #
edge $-1 $641 1.2080531203272332e-014 $503 4.0535286639833572 $497 $642 forward 7 unknown #
vertex $-1 $345 $643 #
straight-curve $-1 -48.875063452730544 -1.1243402521010442 9.3307296425973156 0 1 0 I I #
coedge $-1 $636 $346 $349 $510 reversed $495 $-1 #
coedge $-1 $346 $636 $501 $640 forward $495 $-1 #
vertex $-1 $347 $644 #
straight-curve $-1 -51.257667775505844 -5.5733556052424289 33.154178624521251 0 0 1 I I #
straight-curve $-1 -51.257667775505851 -5.5733556052424289 6.0513560330756562 -0.5877852410284794 0 -0.80901700255871778 I I #
edge $-1 $638 -1.0759945968382523 $350 5.5733556052424289 $505 $645 forward 7 unknown #
point $-1 -51.257667775505844 -5.5733556052424289 9.3307296425973156 #
point $-1 -48.875063452730544 -5.5733556052424289 9.3307296425973156 #
edge $-1 $646 1 $646 0 $353 $-1 forward 7 unknown #
vertex $-1 $354 $647 #
ellipse-curve $-1 -48.870110760424772 -2.2486805042020883 6.8219128377427749 -0.80901700255871778 0 0.5877852410284794 0.5877852410284794 0 0.80901700255871778 1 I I #
point $-1 -49.47858037308972 -2.2486805042020883 8.5000598403952115 #
loop $-1 $-1 $365 $357 #
plane-surface $-1 -51.257667775505844 0 0 1 0 0 0 0 -1 forward_v I I I I #
coedge $-1 $520 $360 $362 $524 reversed $222 $-1 #
coedge $-1 $360 $519 $648 $649 reversed $222 $-1 #
coedge $-1 $368 $363 $360 $522 forward $358 $-1 #
edge $-1 $525 -18.222095176912703 $650 -15.839490854137402 $521 $651 forward 7 unknown #
coedge $-1 $362 $361 $528 $652 reversed $139 $-1 #
edge $-1 $653 1.2080531203272332e-014 $525 4.0535286639833572 $519 $654 forward 7 unknown #
vertex $-1 $364 $655 #
straight-curve $-1 -48.875063452730544 4.3570293003369738 9.3307296425973156 0 1 0 I I #
coedge $-1 $648 $365 $368 $532 reversed $517 $-1 #
coedge $-1 $365 $648 $523 $652 forward $517 $-1 #
vertex $-1 $366 $656 #
straight-curve $-1 -51.257667775505844 5.389383499633607 33.154178624521251 0 0 1 I I #
straight-curve $-1 -51.257667775505851 5.389383499633607 6.0513560330756562 -0.5877852410284794 0 -0.80901700255871778 I I #
edge $-1 $650 -12.038733701714289 $369 -5.389383499633607 $527 $657 forward 7 unknown #
point $-1 -51.257667775505844 5.389383499633607 9.3307296425973156 #
point $-1 -48.875063452730544 5.389383499633607 9.3307296425973156 #
edge $-1 $658 1 $658 0 $372 $-1 forward 7 unknown #
vertex $-1 $373 $659 #
ellipse-curve $-1 -48.870110760424772 8.7140586006739476 6.8219128377427749 -0.80901700255871778 0 0.5877852410284794 0.5877852410284794 0 0.80901700255871778 1 I I #
point $-1 -49.47858037308972 8.7140586006739476 8.5000598403952115 #
loop $-1 $-1 $384 $376 #
plane-surface $-1 -51.257667775505844 0 0 1 0 0 0 0 -1 forward_v I I I I #
coedge $-1 $542 $379 $381 $546 reversed $237 $-1 #
coedge $-1 $379 $541 $660 $661 reversed $237 $-1 #
coedge $-1 $387 $382 $379 $544 forward $377 $-1 #
edge $-1 $547 -18.222095176912703 $662 -15.839490854137402 $543 $663 forward 7 unknown #
coedge $-1 $381 $380 $550 $664 reversed $148 $-1 #
edge $-1 $665 1.2080531203272332e-014 $547 4.0535286639833572 $541 $666 forward 7 unknown #
vertex $-1 $383 $667 #
straight-curve $-1 -48.875063452730544 9.8383988527749917 9.3307296425973156 0 1 0 I I #
coedge $-1 $660 $384 $387 $554 reversed $539 $-1 #
coedge $-1 $384 $660 $545 $664 forward $539 $-1 #
vertex $-1 $385 $668 #
straight-curve $-1 -51.257667775505844 16.352122604509642 33.154178624521251 0 0 1 I I #
straight-curve $-1 -51.257667775505851 16.352122604509642 6.0513560330756562 -0.5877852410284794 0 -0.80901700255871778 I I #
edge $-1 $662 -23.001472806590325 $388 -16.352122604509642 $549 $669 forward 7 unknown #
point $-1 -51.257667775505844 16.352122604509642 9.3307296425973156 #
point $-1 -48.875063452730544 16.352122604509642 9.3307296425973156 #
edge $-1 $670 1 $670 0 $391 $-1 forward 7 unknown #
vertex $-1 $392 $671 #
ellipse-curve $-1 -48.870110760424772 19.676797705549983 6.8219128377427749 -0.80901700255871778 0 0.5877852410284794 0.5877852410284794 0 0.80901700255871778 1 I I #
point $-1 -49.47858037308972 19.676797705549983 8.5000598403952115 #
loop $-1 $-1 $403 $395 #
plane-surface $-1 51.257667775505844 0 0 -1 0 0 0 0 1 forward_v I I I I #
coedge $-1 $564 $398 $400 $568 reversed $252 $-1 #
coedge $-1 $398 $563 $672 $673 reversed $252 $-1 #
coedge $-1 $406 $401 $398 $566 forward $396 $-1 #
edge $-1 $569 17.990720053561365 $674 21.83503673760956 $565 $675 forward 7 unknown #
coedge $-1 $400 $399 $572 $676 reversed $157 $-1 #
edge $-1 $677 -102.51533555101167 $569 -96.770094337480032 $563 $678 forward 7 unknown #
vertex $-1 $402 $679 #
straight-curve $-1 47.413351091457656 -6.0972564033445567 9.3307296425973192 0 -1 0 I I #
coedge $-1 $672 $403 $406 $576 reversed $561 $-1 #
coedge $-1 $403 $672 $567 $676 forward $561 $-1 #
vertex $-1 $404 $680 #
straight-curve $-1 51.257667775505844 -8.4285641187672766 74.920536503651604 0 0 1 I I #
straight-curve $-1 -17.338479919970233 -8.4285641187672766 81.244925311827132 0.66913059716165679 0 -0.74314483375859142 I I #
edge $-1 $674 -15.96046149461095 $407 -8.4285641187672766 $571 $681 forward 7 unknown #
point $-1 51.257667775505844 -8.4285641187672766 9.3307296425973156 #
point $-1 47.413351091457649 -8.4285641187672766 9.3307296425973192 #
edge $-1 $682 1 $682 0 $410 $-1 forward 7 unknown #
vertex $-1 $411 $683 #
ellipse-curve $-1 48.59236459972314 -14.454082019442215 6.5268258821691534 0.74314483375859142 0 0.66913059716165679 0.3345652985808284 0 -0.37157241687929571 1 I I #
point $-1 49.670074732062567 -14.454082019442215 6.8243840624515144 #
edge $-1 $684 1 $684 0 $414 $-1 forward 7 unknown #
vertex $-1 $415 $685 #
ellipse-curve $-1 48.59236459972314 -12.194512806689112 6.5268258821691534 0.74314483375859142 0 0.66913059716165679 0.3345652985808284 0 -0.37157241687929571 1 I I #
point $-1 49.670074732062567 -12.194512806689112 6.8243840624515144 #
edge $-1 $686 1 $686 0 $418 $-1 forward 7 unknown #
vertex $-1 $419 $687 #
ellipse-curve $-1 48.59236459972314 -9.9349435939360085 6.5268258821691534 0.74314483375859142 0 0.66913059716165679 0.3345652985808284 0 -0.37157241687929571 1 I I #
point $-1 49.670074732062567 -9.9349435939360085 6.8243840624515144 #
plane-surface $-1 51.257667775505844 0 0 -1 0 0 0 0 1 forward_v I I I I #
coedge $-1 $427 $425 $429 $596 reversed $281 $-1 #
edge $-1 $440 -9.3307296425973156 $598 9.3307296425973156 $439 $688 forward 7 unknown #
vertex $-1 $596 $689 #
straight-curve $-1 -51.257667775505844 -25.413741590040832 0 0 0 -1 I I #
edge $-1 $594 -25.413741590040832 $598 25.413741590040832 $592 $690 forward 7 unknown #
straight-curve $-1 0 -25.413741590040832 -9.3307296425973156 -1 0 0 I I #
vertex $-1 $432 $691 #
straight-curve $-1 0 25.413741590040832 -9.3307296425973156 1 0 0 I I #
point $-1 51.257667775505844 25.413741590040832 -9.3307296425973156 #
point $-1 51.257667775505844 -25.413741590040832 -9.3307296425973156 #
straight-curve $-1 -51.257667775505844 0 9.3307296425973156 0 -1 0 I I #
point $-1 -51.257667775505844 25.413741590040832 9.3307296425973156 #
point $-1 -51.257667775505844 -25.413741590040832 9.3307296425973156 #
straight-curve $-1 51.257667775505844 -25.413741590040832 0 0 0 -1 I I #
straight-curve $-1 51.257667775505844 25.413741590040832 0 0 0 -1 I I #
plane-surface $-1 51.257667775505844 0 0 -1 0 0 0 0 1 forward_v I I I I #
coedge $-1 $611 $452 $463 $620 forward $300 $-1 #
coedge $-1 $452 $611 $466 $622 reversed $300 $-1 #
straight-curve $-1 51.257667775505844 -18.948363493568966 1.5420326248621832 0 0 1 I I #
coedge $-1 $609 $608 $455 $612 forward $300 $-1 #
edge $-1 $615 7.8578372226665163 $613 14.323215319138383 $611 $692 forward 7 unknown #
vertex $-1 $457 $693 #
straight-curve $-1 0 -25.413741590040832 1.5840652497243664 1 0 0 I I #
vertex $-1 $612 $694 #
straight-curve $-1 0 -18.948363493568966 1.5840652497243664 1 0 0 I I #
point $-1 51.257667775505844 -25.413741590040832 1.5840652497243664 #
point $-1 51.257667775505844 -18.948363493568966 1.5840652497243664 #
straight-curve $-1 -51.257667775505844 -11.090526270902449 4.5840652497243664 0 1 0 I I #
edge $-1 $464 -3.0420326248621832 $615 -0.042032624862183177 $608 $695 forward 7 unknown #
point $-1 -51.257667775505844 -18.948363493568966 4.5840652497243664 #
edge $-1 $468 -4.5840652497243664 $613 -1.5840652497243664 $609 $696 forward 7 unknown #
point $-1 -51.257667775505844 -25.413741590040832 4.5840652497243664 #
straight-curve $-1 51.257667775505844 -25.413741590040832 0 0 0 -1 I I #
edge $-1 $626 23.823448981923935 $629 27.102822591445584 $474 $697 forward 7 unknown #
vertex $-1 $488 $698 #
straight-curve $-1 -67.097158629643246 -9.8867445080377863 9.3307296425973156 -1 0 0 I I #
edge $-1 $629 3.2810347034987224 $485 9.9303849055794053 $484 $699 forward 7 unknown #
vertex $-1 $628 $700 #
straight-curve $-1 -51.257667775505851 -9.8867445080377863 6.0513560330756562 0.5877852410284794 0 0.80901700255871778 I I #
point $-1 -48.875063452730544 -9.8867445080377863 9.3307296425973156 #
point $-1 -51.257667775505844 -16.536094710118469 6.0513560330756659 #
straight-curve $-1 -51.257667775505844 0 9.3307296425973156 0 -1 0 I I #
vertex $-1 $491 $701 #
point $-1 -48.282325519396295 -13.211419609078128 7.6309298403014925 #
coedge $-1 $506 $505 $498 $637 forward $495 $-1 #
edge $-1 $638 23.823448981923935 $641 27.102822591445584 $636 $702 forward 7 unknown #
vertex $-1 $510 $703 #
straight-curve $-1 -67.097158629643246 1.0759945968382523 9.3307296425973156 -1 0 0 I I #
edge $-1 $641 -2.2003348489392964 $507 4.4490153531413847 $506 $704 forward 7 unknown #
vertex $-1 $640 $705 #
straight-curve $-1 -51.257667775505851 1.0759945968382523 6.0513560330756562 0.5877852410284794 0 0.80901700255871778 I I #
point $-1 -48.875063452730544 1.0759945968382523 9.3307296425973156 #
point $-1 -51.257667775505844 -5.5733556052424289 6.0513560330756659 #
straight-curve $-1 -51.257667775505844 0 9.3307296425973156 0 -1 0 I I #
vertex $-1 $513 $706 #
point $-1 -48.282325519396295 -2.2486805042020883 7.6309298403014925 #
coedge $-1 $528 $527 $520 $649 forward $517 $-1 #
edge $-1 $650 23.823448981923935 $653 27.102822591445584 $648 $707 forward 7 unknown #
vertex $-1 $532 $708 #
straight-curve $-1 -67.097158629643246 12.038733701714289 9.3307296425973156 -1 0 0 I I #
edge $-1 $653 -7.6817044013773152 $529 -1.0323541992966332 $528 $709 forward 7 unknown #
vertex $-1 $652 $710 #
straight-curve $-1 -51.257667775505851 12.038733701714289 6.0513560330756562 0.5877852410284794 0 0.80901700255871778 I I #
point $-1 -48.875063452730544 12.038733701714289 9.3307296425973156 #
point $-1 -51.257667775505844 5.389383499633607 6.0513560330756659 #
straight-curve $-1 -51.257667775505844 0 9.3307296425973156 0 -1 0 I I #
vertex $-1 $535 $711 #
point $-1 -48.282325519396295 8.7140586006739476 7.6309298403014925 #
coedge $-1 $550 $549 $542 $661 forward $539 $-1 #
edge $-1 $662 23.823448981923935 $665 27.102822591445584 $660 $712 forward 7 unknown #
vertex $-1 $554 $713 #
straight-curve $-1 -67.097158629643246 23.001472806590325 9.3307296425973156 -1 0 0 I I #
edge $-1 $665 -13.163073953815333 $551 -6.5137237517346502 $550 $714 forward 7 unknown #
vertex $-1 $664 $715 #
straight-curve $-1 -51.257667775505851 23.001472806590325 6.0513560330756562 0.5877852410284794 0 0.80901700255871778 I I #
point $-1 -48.875063452730544 23.001472806590325 9.3307296425973156 #
point $-1 -51.257667775505844 16.352122604509642 6.0513560330756659 #
straight-curve $-1 -51.257667775505844 0 9.3307296425973156 0 -1 0 I I #
vertex $-1 $557 $716 #
point $-1 -48.282325519396295 19.676797705549983 7.6309298403014925 #
coedge $-1 $572 $571 $564 $673 forward $561 $-1 #
edge $-1 $674 65.589806861054285 $677 69.859353187587274 $672 $717 forward 7 unknown #
vertex $-1 $576 $718 #
straight-curve $-1 29.422631037896284 -15.96046149461095 9.3307296425973192 1 0 0 I I #
edge $-1 $677 -9.8632050912663942 $573 -2.33130771542272 $572 $719 forward 7 unknown #
vertex $-1 $676 $720 #
straight-curve $-1 -17.338479919970233 -15.96046149461095 81.244925311827132 -0.66913059716165679 0 0.74314483375859142 I I #
point $-1 47.413351091457649 -15.96046149461095 9.3307296425973192 #
point $-1 51.257667775505844 -8.4285641187672766 5.06118331606433 #
straight-curve $-1 51.257667775505844 0 9.3307296425973156 0 1 0 I I #
vertex $-1 $579 $721 #
point $-1 48.926929898303975 -14.454082019442215 6.1552534652898574 #
vertex $-1 $583 $722 #
point $-1 48.926929898303975 -12.194512806689112 6.1552534652898574 #
vertex $-1 $587 $723 #
point $-1 48.926929898303975 -9.9349435939360085 6.1552534652898574 #
straight-curve $-1 -51.257667775505844 25.413741590040832 0 0 0 -1 I I #
point $-1 -51.257667775505844 -25.413741590040832 -9.3307296425973156 #
straight-curve $-1 -51.257667775505844 0 -9.3307296425973156 0 1 0 I I #
point $-1 -51.257667775505844 25.413741590040832 -9.3307296425973156 #
straight-curve $-1 -51.257667775505844 -11.090526270902449 1.5840652497243664 0 -1 0 I I #
point $-1 -51.257667775505844 -25.413741590040832 1.5840652497243664 #
point $-1 -51.257667775505844 -18.948363493568966 1.5840652497243664 #
straight-curve $-1 -51.257667775505844 -18.948363493568966 1.5420326248621832 0 0 -1 I I #
straight-curve $-1 -51.257667775505844 -25.413741590040832 0 0 0 -1 I I #
straight-curve $-1 -51.257667775505844 -9.8867445080377863 33.154178624521251 0 0 -1 I I #
point $-1 -51.257667775505844 -9.8867445080377863 9.3307296425973156 #
straight-curve $-1 -51.257667775505844 -6.6057098045390639 6.0513560330756722 0 -1 0 I I #
point $-1 -51.257667775505844 -9.8867445080377863 6.0513560330756659 #
point $-1 -48.061093757866054 -13.211419609078128 6.2341275967142957 #
straight-curve $-1 -51.257667775505844 1.0759945968382523 33.154178624521251 0 0 -1 I I #
point $-1 -51.257667775505844 1.0759945968382523 9.3307296425973156 #
straight-curve $-1 -51.257667775505844 -1.1243402521010442 6.0513560330756722 0 -1 0 I I #
point $-1 -51.257667775505844 1.0759945968382523 6.0513560330756659 #
point $-1 -48.061093757866054 -2.2486805042020883 6.2341275967142957 #
straight-curve $-1 -51.257667775505844 12.038733701714289 33.154178624521251 0 0 -1 I I #
point $-1 -51.257667775505844 12.038733701714289 9.3307296425973156 #
straight-curve $-1 -51.257667775505844 4.3570293003369738 6.0513560330756722 0 -1 0 I I #
point $-1 -51.257667775505844 12.038733701714289 6.0513560330756659 #
point $-1 -48.061093757866054 8.7140586006739476 6.2341275967142957 #
straight-curve $-1 -51.257667775505844 23.001472806590325 33.154178624521251 0 0 -1 I I #
point $-1 -51.257667775505844 23.001472806590325 9.3307296425973156 #
straight-curve $-1 -51.257667775505844 9.8383988527749917 6.0513560330756722 0 -1 0 I I #
point $-1 -51.257667775505844 23.001472806590325 6.0513560330756659 #
point $-1 -48.061093757866054 19.676797705549983 6.2341275967142957 #
straight-curve $-1 51.257667775505844 -15.96046149461095 74.920536503651604 0 0 -1 I I #
point $-1 51.257667775505844 -15.96046149461095 9.3307296425973156 #
straight-curve $-1 51.257667775505844 -6.0972564033445567 5.06118331606433 0 1 0 I I #
point $-1 51.257667775505844 -15.96046149461095 5.06118331606433 #
point $-1 48.220792182843851 -14.454082019442215 6.1922605835883244 #
point $-1 48.220792182843851 -12.194512806689112 6.1922605835883244 #
point $-1 48.220792182843851 -9.9349435939360085 6.1922605835883244 #
End-of-ACIS-data 