500 0 9 0           
7 Unknown 11 ACIS 5.0 NT 24 Thu Mar 25 15:14:49 1999 
-1 9.9999999999999995e-007 1e-010 
body $-1 $9 $-1 $10 #
body $-1 $11 $-1 $12 #
body $-1 $13 $-1 $14 #
body $-1 $15 $-1 $16 #
body $-1 $17 $-1 $18 #
body $-1 $19 $-1 $20 #
body $-1 $21 $-1 $22 #
body $-1 $23 $-1 $24 #
body $-1 $25 $-1 $26 #
lump $-1 $-1 $27 $0 #
transform $-1 1 0 0 0 1 0 0 0 1 72.21289712210455 46.354037608815993 20.092502565440061 1 rotate no_reflect no_shear #
lump $-1 $-1 $28 $1 #
transform $-1 1 0 0 0 1 0 0 0 1 72.21289712210455 46.354037608815993 20.092502565440061 1 rotate no_reflect no_shear #
lump $-1 $-1 $29 $2 #
transform $-1 1 0 0 0 1 0 0 0 1 72.21289712210455 46.354037608815993 20.092502565440061 1 rotate no_reflect no_shear #
lump $-1 $-1 $30 $3 #
transform $-1 1 0 0 0 1 0 0 0 1 72.21289712210455 46.354037608815993 20.092502565440061 1 rotate no_reflect no_shear #
lump $-1 $-1 $31 $4 #
transform $-1 1 0 0 0 1 0 0 0 1 72.21289712210455 46.354037608815993 20.092502565440061 1 rotate no_reflect no_shear #
lump $-1 $-1 $32 $5 #
transform $-1 1 0 0 0 1 0 0 0 1 72.21289712210455 46.354037608815993 20.092502565440061 1 rotate no_reflect no_shear #
lump $-1 $-1 $33 $6 #
transform $-1 1 0 0 0 1 0 0 0 1 72.21289712210455 46.354037608815993 20.092502565440061 1 rotate no_reflect no_shear #
lump $-1 $-1 $34 $7 #
transform $-1 1 0 0 0 1 0 0 0 1 72.21289712210455 46.354037608815993 20.092502565440061 1 rotate no_reflect no_shear #
lump $-1 $-1 $35 $8 #
transform $-1 1 0 0 0 1 0 0 0 1 72.21289712210455 46.354037608815993 20.092502565440061 1 rotate no_reflect no_shear #
shell $-1 $-1 $-1 $36 $-1 $9 #
shell $-1 $-1 $-1 $37 $-1 $11 #
shell $-1 $-1 $-1 $38 $-1 $13 #
shell $-1 $-1 $-1 $39 $-1 $15 #
shell $-1 $-1 $-1 $40 $-1 $17 #
shell $-1 $-1 $-1 $41 $-1 $19 #
shell $-1 $-1 $-1 $42 $-1 $21 #
shell $-1 $-1 $-1 $43 $-1 $23 #
shell $-1 $-1 $-1 $44 $-1 $25 #
face $-1 $45 $46 $27 $-1 $47 forward single #
face $-1 $48 $49 $28 $-1 $50 reversed single #
face $-1 $51 $52 $29 $-1 $53 reversed single #
face $-1 $54 $55 $30 $-1 $56 forward single #
face $-1 $57 $58 $31 $-1 $59 forward single #
face $-1 $60 $61 $32 $-1 $62 forward single #
face $-1 $63 $64 $33 $-1 $65 reversed single #
face $-1 $66 $67 $34 $-1 $68 forward single #
face $-1 $69 $70 $35 $-1 $71 forward single #
face $-1 $72 $73 $27 $-1 $74 reversed single #
loop $-1 $-1 $75 $36 #
plane-surface $-1 0 0 20.092502565440061 0 0 1 1 0 0 forward_v I I I I #
face $-1 $76 $77 $28 $-1 $78 reversed single #
loop $-1 $-1 $79 $37 #
plane-surface $-1 -64.875347217524052 0 14.390663997521091 0 0 1 1 0 0 forward_v I I I I #
face $-1 $80 $81 $29 $-1 $82 reversed single #
loop $-1 $-1 $83 $38 #
plane-surface $-1 55.315852452047153 -156.99061592944187 108.40651666085027 -1 0 0 0 -0.7660444514056185 0.64278759981090561 forward_v I I I I #
face $-1 $84 $85 $30 $-1 $86 forward single #
loop $-1 $87 $88 $39 #
cone-surface $-1 26.144814036442654 -43.993955502109344 17.443235729157685 0 0.7660444514056185 -0.64278759981090561 1 0 0 1 I I 0 1 1 forward I I I I #
face $-1 $89 $90 $31 $-1 $91 forward single #
loop $-1 $92 $93 $40 #
cone-surface $-1 37.08395344229433 -43.993955502109344 17.443235729157685 0 0.7660444514056185 -0.64278759981090561 1 0 0 1 I I 0 1 1 forward I I I I #
face $-1 $94 $95 $32 $-1 $96 forward single #
loop $-1 $97 $98 $41 #
cone-surface $-1 48.023092848146007 -43.993955502109344 17.443235729157685 0 0.7660444514056185 -0.64278759981090561 1 0 0 1 I I 0 1 1 forward I I I I #
face $-1 $99 $100 $33 $-1 $101 reversed single #
loop $-1 $-1 $102 $42 #
plane-surface $-1 43.37660846597192 111.48555705938747 164.116551203824 1 0 0 0 -0.81915205242281985 -0.57357642473473569 forward_v I I I I #
face $-1 $103 $104 $34 $-1 $105 forward single #
loop $-1 $106 $107 $43 #
cone-surface $-1 50.693975384758346 37.577877789100143 10.186429465551818 0 -0.81915205242281985 -0.57357642473473569 3 0 0 1 I I 0 1 3 forward I I I I #
face $-1 $108 $109 $35 $-1 $110 forward single #
loop $-1 $111 $112 $44 #
cone-surface $-1 61.670025762937968 37.577877789100143 10.186429465551818 0 -0.81915205242281985 -0.57357642473473569 3 0 0 1 I I 0 1 3 forward I I I I #
face $-1 $113 $114 $27 $-1 $115 reversed single #
loop $-1 $-1 $116 $45 #
plane-surface $-1 0 0 -20.092502565440061 0 0 1 1 0 0 forward_v I I I I #
coedge $-1 $117 $118 $119 $120 forward $46 $-1 #
face $-1 $121 $122 $28 $-1 $123 reversed single #
loop $-1 $-1 $124 $48 #
plane-surface $-1 -57.537797312943553 0 17.241583281480576 -1 0 0 0 0 1 forward_v I I I I #
coedge $-1 $125 $126 $127 $128 forward $49 $-1 #
face $-1 $129 $130 $29 $-1 $131 reversed single #
loop $-1 $-1 $132 $51 #
plane-surface $-1 37.083953442294344 -46.354037608815972 15.571407027831398 0 -0.7660444514056185 0.64278759981090561 1 0 0 forward_v I I I I #
coedge $-1 $133 $134 $135 $136 reversed $52 $-1 #
face $-1 $-1 $137 $30 $-1 $138 forward single #
loop $-1 $139 $140 $54 #
cone-surface $-1 26.144814036442654 -43.147675919101069 16.733122861774188 0 0.7660444514056185 -0.64278759981090561 0.5 0 0 1 I I -0.70710678118654746 0.70710678118654746 0.5 forward I I I I #
loop $-1 $-1 $141 $39 #
coedge $-1 $88 $88 $142 $143 reversed $55 $-1 #
face $-1 $-1 $144 $31 $-1 $145 forward single #
loop $-1 $146 $147 $57 #
cone-surface $-1 37.08395344229433 -43.147675919101069 16.733122861774188 0 0.7660444514056185 -0.64278759981090561 0.5 0 0 1 I I -0.70710678118654746 0.70710678118654746 0.5 forward I I I I #
loop $-1 $-1 $148 $40 #
coedge $-1 $93 $93 $149 $150 reversed $58 $-1 #
face $-1 $-1 $151 $32 $-1 $152 forward single #
loop $-1 $153 $154 $60 #
cone-surface $-1 48.023092848146007 -43.147675919101069 16.733122861774188 0 0.7660444514056185 -0.64278759981090561 0.5 0 0 1 I I -0.70710678118654746 0.70710678118654746 0.5 forward I I I I #
loop $-1 $-1 $155 $41 #
coedge $-1 $98 $98 $156 $157 reversed $61 $-1 #
face $-1 $158 $159 $33 $-1 $160 reversed single #
loop $-1 $-1 $161 $63 #
plane-surface $-1 56.182000573848143 -6.8211287185522878 81.27732050175598 0 0.81915205242281985 0.57357642473473569 1 0 0 forward_v I I I I #
coedge $-1 $162 $163 $164 $165 reversed $64 $-1 #
face $-1 $-1 $166 $34 $-1 $167 forward single #
loop $-1 $168 $169 $66 #
cone-surface $-1 50.693975384758346 32.739538329465141 6.7985878057497011 0 -0.81915205242281985 -0.57357642473473569 1.5 0 0 1 I I -0.70710678118654724 0.70710678118654768 1.5 forward I I I I #
loop $-1 $-1 $170 $43 #
coedge $-1 $107 $107 $171 $172 reversed $67 $-1 #
face $-1 $-1 $173 $35 $-1 $174 forward single #
loop $-1 $175 $176 $69 #
cone-surface $-1 61.670025762937968 32.739538329465141 6.7985878057497011 0 -0.81915205242281985 -0.57357642473473569 1.5 0 0 1 I I -0.70710678118654724 0.70710678118654768 1.5 forward I I I I #
loop $-1 $-1 $177 $44 #
coedge $-1 $112 $112 $178 $179 reversed $70 $-1 #
face $-1 $180 $181 $27 $-1 $182 reversed single #
loop $-1 $-1 $183 $72 #
plane-surface $-1 0 -46.354037608815993 0 0 1 0 0 0 1 forward_v I I I I #
coedge $-1 $184 $185 $186 $187 forward $73 $-1 #
coedge $-1 $188 $75 $189 $190 forward $46 $-1 #
coedge $-1 $75 $188 $191 $192 forward $46 $-1 #
coedge $-1 $193 $194 $75 $120 reversed $195 $-1 #
edge $-1 $196 -46.354037608815993 $197 46.354037608815993 $119 $198 forward 7 unknown #
face $-1 $199 $200 $28 $-1 $201 reversed single #
loop $-1 $-1 $202 $76 #
plane-surface $-1 0 46.354037608815993 0 0 -1 0 0 0 -1 forward_v I I I I #
coedge $-1 $127 $203 $204 $205 reversed $77 $-1 #
coedge $-1 $206 $79 $207 $208 reversed $49 $-1 #
coedge $-1 $79 $206 $209 $210 reversed $49 $-1 #
coedge $-1 $211 $124 $79 $128 reversed $77 $-1 #
edge $-1 $212 -46.354037608815993 $213 46.354037608815993 $127 $214 forward 7 unknown #
face $-1 $215 $216 $29 $-1 $217 reversed single #
loop $-1 $-1 $218 $80 #
plane-surface $-1 18.852054432541536 -156.99061592944187 108.40651666085027 1 0 0 0 0.7660444514056185 -0.64278759981090561 forward_v I I I I #
coedge $-1 $219 $220 $221 $222 reversed $81 $-1 #
coedge $-1 $134 $83 $223 $224 reversed $52 $-1 #
coedge $-1 $83 $133 $219 $225 reversed $52 $-1 #
coedge $-1 $221 $226 $83 $136 forward $227 $-1 #
edge $-1 $228 32.141270355904943 $229 35.934919854707346 $135 $230 forward 7 unknown #
loop $-1 $-1 $142 $84 #
plane-surface $-1 37.083953442294344 -46.354037608815972 15.571407027831398 0 -0.7660444514056185 0.64278759981090561 1 0 0 forward_v I I I I #
loop $-1 $-1 $231 $54 #
coedge $-1 $140 $140 $141 $232 reversed $85 $-1 #
coedge $-1 $141 $141 $140 $232 forward $87 $-1 #
coedge $-1 $142 $142 $88 $143 forward $137 $-1 #
edge $-1 $233 3.5973292064108065e-015 $233 6.283185307179604 $142 $234 forward 7 unknown #
loop $-1 $-1 $149 $89 #
plane-surface $-1 37.083953442294344 -46.354037608815972 15.571407027831398 0 -0.7660444514056185 0.64278759981090561 1 0 0 forward_v I I I I #
loop $-1 $-1 $235 $57 #
coedge $-1 $147 $147 $148 $236 reversed $90 $-1 #
coedge $-1 $148 $148 $147 $236 forward $92 $-1 #
coedge $-1 $149 $149 $93 $150 forward $144 $-1 #
edge $-1 $237 3.5973292064108065e-015 $237 6.283185307179604 $149 $238 forward 7 unknown #
loop $-1 $-1 $156 $94 #
plane-surface $-1 37.083953442294344 -46.354037608815972 15.571407027831398 0 -0.7660444514056185 0.64278759981090561 1 0 0 forward_v I I I I #
loop $-1 $-1 $239 $60 #
coedge $-1 $154 $154 $155 $240 reversed $95 $-1 #
coedge $-1 $155 $155 $154 $240 forward $97 $-1 #
coedge $-1 $156 $156 $98 $157 forward $151 $-1 #
edge $-1 $241 3.5973292064108065e-015 $241 6.283185307179604 $156 $242 forward 7 unknown #
face $-1 $243 $244 $33 $-1 $245 forward single #
loop $-1 $-1 $246 $99 #
plane-surface $-1 68.987392681724373 111.48555705938747 164.116551203824 -1 0 0 0 0.81915205242281985 0.57357642473473569 forward_v I I I I #
coedge $-1 $247 $248 $249 $250 reversed $100 $-1 #
coedge $-1 $163 $102 $251 $252 reversed $64 $-1 #
coedge $-1 $102 $162 $247 $253 reversed $64 $-1 #
coedge $-1 $249 $254 $102 $165 forward $244 $-1 #
edge $-1 $255 9.3887409208777441 $256 19.721837798307888 $164 $257 forward 7 unknown #
loop $-1 $-1 $171 $103 #
plane-surface $-1 56.182000573848143 -6.8211287185522878 81.27732050175598 0 0.81915205242281985 0.57357642473473569 1 0 0 forward_v I I I I #
loop $-1 $-1 $258 $66 #
coedge $-1 $169 $169 $170 $259 reversed $104 $-1 #
coedge $-1 $170 $170 $169 $259 forward $106 $-1 #
coedge $-1 $171 $171 $107 $172 forward $166 $-1 #
edge $-1 $260 -2.9182649527339423e-016 $260 6.2831853071796004 $171 $261 forward 7 unknown #
loop $-1 $-1 $178 $108 #
plane-surface $-1 56.182000573848143 -6.8211287185522878 81.27732050175598 0 0.81915205242281985 0.57357642473473569 1 0 0 forward_v I I I I #
loop $-1 $-1 $262 $69 #
coedge $-1 $176 $176 $177 $263 reversed $109 $-1 #
coedge $-1 $177 $177 $176 $263 forward $111 $-1 #
coedge $-1 $178 $178 $112 $179 forward $173 $-1 #
edge $-1 $264 -2.9182649527339423e-016 $264 6.2831853071796004 $178 $265 forward 7 unknown #
face $-1 $266 $267 $27 $-1 $268 reversed single #
loop $-1 $-1 $269 $113 #
plane-surface $-1 -72.21289712210455 0 0 1 0 0 0 0 -1 forward_v I I I I #
coedge $-1 $270 $191 $271 $272 forward $114 $-1 #
coedge $-1 $273 $116 $270 $274 forward $73 $-1 #
coedge $-1 $116 $273 $275 $276 forward $73 $-1 #
coedge $-1 $194 $193 $116 $187 reversed $195 $-1 #
edge $-1 $277 -46.354037608815993 $278 46.354037608815993 $186 $279 forward 7 unknown #
coedge $-1 $118 $117 $280 $281 forward $46 $-1 #
coedge $-1 $282 $283 $117 $190 reversed $267 $-1 #
edge $-1 $197 -72.21289712210455 $284 72.21289712210455 $189 $285 forward 7 unknown #
coedge $-1 $183 $286 $118 $192 reversed $114 $-1 #
edge $-1 $287 -72.21289712210455 $196 72.21289712210455 $191 $288 forward 7 unknown #
coedge $-1 $186 $119 $286 $289 forward $195 $-1 #
coedge $-1 $119 $186 $282 $290 reversed $195 $-1 #
loop $-1 $-1 $193 $266 #
vertex $-1 $120 $291 #
vertex $-1 $120 $292 #
straight-curve $-1 72.21289712210455 0 20.092502565440061 0 1 0 I I #
face $-1 $293 $294 $28 $-1 $295 forward single #
loop $-1 $-1 $296 $121 #
plane-surface $-1 -72.21289712210455 0 0 1 0 0 0 0 -1 forward_v I I I I #
coedge $-1 $209 $297 $211 $298 forward $122 $-1 #
coedge $-1 $124 $211 $299 $300 reversed $77 $-1 #
coedge $-1 $301 $207 $124 $205 forward $302 $-1 #
edge $-1 $213 5.7698723567808035 $303 11.471710924699773 $204 $304 forward 7 unknown #
coedge $-1 $126 $125 $296 $305 reversed $49 $-1 #
coedge $-1 $204 $306 $125 $208 forward $302 $-1 #
edge $-1 $307 -39.775223513342524 $213 -25.100123704181527 $207 $308 forward 7 unknown #
coedge $-1 $309 $202 $126 $210 forward $122 $-1 #
edge $-1 $212 25.100123704181527 $310 39.775223513342524 $209 $311 forward 7 unknown #
coedge $-1 $203 $127 $202 $298 reversed $77 $-1 #
vertex $-1 $210 $312 #
vertex $-1 $208 $313 #
straight-curve $-1 -57.537797312943553 0 14.390663997521091 0 -1 0 I I #
face $-1 $-1 $227 $29 $-1 $314 forward single #
loop $-1 $-1 $315 $129 #
plane-surface $-1 0 -46.354037608815993 0 0 1 0 0 0 1 forward_v I I I I #
coedge $-1 $316 $317 $318 $319 reversed $130 $-1 #
coedge $-1 $320 $132 $134 $225 forward $81 $-1 #
coedge $-1 $132 $320 $316 $321 forward $81 $-1 #
coedge $-1 $318 $135 $132 $222 forward $227 $-1 #
edge $-1 $229 -36.773875730899981 $322 -0.31007771139436358 $221 $323 forward 7 unknown #
coedge $-1 $324 $325 $133 $224 forward $216 $-1 #
edge $-1 $326 -38.631851302593759 $228 -34.110755764985072 $223 $327 forward 7 unknown #
edge $-1 $229 -5.9018710067188467 $326 3.2752597998015054e-014 $134 $328 forward 7 unknown #
coedge $-1 $135 $318 $324 $329 forward $227 $-1 #
loop $-1 $-1 $318 $215 #
vertex $-1 $224 $330 #
vertex $-1 $136 $331 #
straight-curve $-1 55.315852452047153 -78.495307964720936 20.092502565440057 0 1 0 I I #
coedge $-1 $231 $231 $-1 $332 reversed $139 $-1 #
edge $-1 $333 0 $333 6.2831853071796004 $140 $334 forward 7 unknown #
vertex $-1 $143 $335 #
ellipse-curve $-1 26.144814036442654 -44.457212859414796 17.831954796635717 0 -0.7660444514056185 0.64278759981090561 1 0 0 1 I I #
coedge $-1 $235 $235 $-1 $336 reversed $146 $-1 #
edge $-1 $337 0 $337 6.2831853071796004 $147 $338 forward 7 unknown #
vertex $-1 $150 $339 #
ellipse-curve $-1 37.08395344229433 -44.457212859414796 17.831954796635717 0 -0.7660444514056185 0.64278759981090561 1 0 0 1 I I #
coedge $-1 $239 $239 $-1 $340 reversed $153 $-1 #
edge $-1 $341 0 $341 6.2831853071796004 $154 $342 forward 7 unknown #
vertex $-1 $157 $343 #
ellipse-curve $-1 48.023092848146007 -44.457212859414796 17.831954796635717 0 -0.7660444514056185 0.64278759981090561 1 0 0 1 I I #
face $-1 $-1 $344 $33 $-1 $345 reversed single #
loop $-1 $-1 $164 $158 #
plane-surface $-1 0 0 20.092502565440061 0 0 1 1 0 0 forward_v I I I I #
coedge $-1 $346 $347 $348 $349 reversed $159 $-1 #
coedge $-1 $350 $161 $163 $253 forward $100 $-1 #
coedge $-1 $161 $350 $346 $351 forward $100 $-1 #
coedge $-1 $348 $164 $161 $250 forward $244 $-1 #
edge $-1 $256 15.285608179047848 $352 40.896392394800301 $249 $353 forward 7 unknown #
coedge $-1 $354 $355 $162 $252 forward $344 $-1 #
edge $-1 $356 -76.722965190848385 $255 -61.965773036471944 $251 $357 forward 7 unknown #
edge $-1 $256 74.692870212982498 $356 92.708075217631944 $163 $358 forward 7 unknown #
coedge $-1 $164 $348 $354 $359 forward $244 $-1 #
vertex $-1 $252 $360 #
vertex $-1 $165 $361 #
straight-curve $-1 43.37660846597192 55.742778529693737 20.092502565440057 0 -1 0 I I #
coedge $-1 $258 $258 $-1 $362 reversed $168 $-1 #
edge $-1 $363 0 $363 6.2831853071796004 $169 $364 forward 7 unknown #
vertex $-1 $172 $365 #
ellipse-curve $-1 50.693975384758346 41.187489170100932 12.713906488251842 0 0.81915205242281985 0.57357642473473569 3 0 0 1 I I #
coedge $-1 $262 $262 $-1 $366 reversed $175 $-1 #
edge $-1 $367 0 $367 6.2831853071796004 $176 $368 forward 7 unknown #
vertex $-1 $179 $369 #
ellipse-curve $-1 61.670025762937968 41.187489170100932 12.713906488251842 0 0.81915205242281985 0.57357642473473569 3 0 0 1 I I #
face $-1 $-1 $195 $27 $-1 $370 reversed single #
loop $-1 $-1 $282 $180 #
plane-surface $-1 0 46.354037608815993 0 0 -1 0 0 0 -1 forward_v I I I I #
coedge $-1 $371 $280 $283 $372 forward $181 $-1 #
coedge $-1 $286 $183 $184 $274 reversed $114 $-1 #
coedge $-1 $280 $371 $183 $272 reversed $181 $-1 #
edge $-1 $287 -20.092502565440061 $373 20.092502565440061 $271 $374 forward 7 unknown #
coedge $-1 $185 $184 $371 $375 forward $73 $-1 #
edge $-1 $278 -72.21289712210455 $373 72.21289712210455 $270 $376 forward 7 unknown #
coedge $-1 $283 $282 $185 $276 reversed $267 $-1 #
edge $-1 $377 -72.21289712210455 $277 72.21289712210455 $275 $378 forward 7 unknown #
vertex $-1 $187 $379 #
vertex $-1 $289 $380 #
straight-curve $-1 72.21289712210455 0 -20.092502565440061 0 -1 0 I I #
coedge $-1 $269 $271 $188 $281 reversed $181 $-1 #
edge $-1 $284 -46.354037608815993 $287 46.354037608815993 $280 $381 forward 7 unknown #
coedge $-1 $275 $189 $194 $290 forward $267 $-1 #
coedge $-1 $189 $275 $269 $372 reversed $267 $-1 #
vertex $-1 $190 $382 #
straight-curve $-1 0 46.354037608815993 20.092502565440061 -1 0 0 I I #
coedge $-1 $191 $270 $193 $289 reversed $114 $-1 #
vertex $-1 $281 $383 #
straight-curve $-1 0 -46.354037608815993 20.092502565440061 1 0 0 I I #
edge $-1 $196 -20.092502565440061 $278 20.092502565440061 $193 $384 forward 7 unknown #
edge $-1 $197 -20.092502565440061 $277 20.092502565440061 $194 $385 forward 7 unknown #
point $-1 72.21289712210455 -46.354037608815993 20.092502565440061 #
point $-1 72.21289712210455 46.354037608815993 20.092502565440061 #
face $-1 $-1 $302 $28 $-1 $386 reversed single #
loop $-1 $-1 $299 $199 #
plane-surface $-1 0 0 20.092502565440061 0 0 1 1 0 0 forward_v I I I I #
coedge $-1 $387 $388 $206 $305 forward $200 $-1 #
coedge $-1 $202 $309 $389 $390 reversed $122 $-1 #
edge $-1 $391 -11.471710924699773 $212 -5.7698723567808035 $202 $392 forward 7 unknown #
coedge $-1 $389 $393 $203 $300 forward $294 $-1 #
edge $-1 $303 -46.354037608815993 $391 46.354037608815993 $299 $394 forward 7 unknown #
coedge $-1 $306 $204 $393 $395 reversed $302 $-1 #
loop $-1 $-1 $204 $293 #
vertex $-1 $205 $396 #
straight-curve $-1 -57.537797312943553 -46.354037608815993 8.620791640740288 0 0 1 I I #
edge $-1 $310 -46.354037608815993 $307 46.354037608815993 $296 $397 forward 7 unknown #
coedge $-1 $207 $301 $387 $398 forward $302 $-1 #
vertex $-1 $305 $399 #
straight-curve $-1 -32.437673608762026 -46.354037608815993 14.390663997521091 1 0 0 I I #
coedge $-1 $297 $209 $388 $400 reversed $122 $-1 #
vertex $-1 $305 $401 #
straight-curve $-1 -32.437673608762026 46.354037608815993 14.390663997521091 -1 0 0 I I #
point $-1 -57.537797312943553 46.354037608815993 14.390663997521091 #
point $-1 -57.537797312943553 -46.354037608815993 14.390663997521091 #
plane-surface $-1 0 0 20.092502565440061 0 0 1 1 0 0 forward_v I I I I #
coedge $-1 $325 $324 $317 $402 forward $216 $-1 #
coedge $-1 $317 $218 $220 $321 reversed $130 $-1 #
coedge $-1 $218 $316 $315 $402 reversed $130 $-1 #
coedge $-1 $226 $221 $218 $319 forward $227 $-1 #
edge $-1 $322 -35.934919854707346 $403 -32.141270355904943 $318 $404 forward 7 unknown #
coedge $-1 $220 $219 $325 $405 reversed $81 $-1 #
edge $-1 $406 -3.2752597998015054e-014 $322 5.9018710067188467 $316 $407 forward 7 unknown #
vertex $-1 $222 $408 #
straight-curve $-1 18.541976721147172 -42.560388110013591 20.092502565440061 -1 0 0 I I #
coedge $-1 $315 $223 $226 $329 reversed $216 $-1 #
coedge $-1 $223 $315 $320 $405 forward $216 $-1 #
vertex $-1 $224 $409 #
straight-curve $-1 55.315852452047153 -46.354037608815993 54.203258330425136 0 0 1 I I #
straight-curve $-1 55.315852452047153 -46.354037608815972 15.571407027831398 0 -0.64278759981090561 -0.7660444514056185 I I #
edge $-1 $403 18.852054432541536 $228 55.315852452047153 $324 $410 forward 7 unknown #
point $-1 55.315852452047153 -46.354037608815993 20.092502565440061 #
point $-1 55.315852452047153 -42.560388110013591 20.092502565440061 #
edge $-1 $411 1 $411 0 $231 $-1 forward 7 unknown #
vertex $-1 $232 $412 #
ellipse-curve $-1 26.144814036442654 -43.530698144803878 17.054516661679642 0 -0.7660444514056185 0.64278759981090561 1 0 0 1 I I #
point $-1 27.144814036442654 -44.457212859414803 17.831954796635728 #
edge $-1 $413 1 $413 0 $235 $-1 forward 7 unknown #
vertex $-1 $236 $414 #
ellipse-curve $-1 37.08395344229433 -43.530698144803878 17.054516661679642 0 -0.7660444514056185 0.64278759981090561 1 0 0 1 I I #
point $-1 38.08395344229433 -44.457212859414803 17.831954796635728 #
edge $-1 $415 1 $415 0 $239 $-1 forward 7 unknown #
vertex $-1 $240 $416 #
ellipse-curve $-1 48.023092848146007 -43.530698144803878 17.054516661679642 0 -0.7660444514056185 0.64278759981090561 1 0 0 1 I I #
point $-1 49.023092848146007 -44.457212859414803 17.831954796635728 #
loop $-1 $-1 $251 $243 #
plane-surface $-1 0 46.354037608815993 0 0 -1 0 0 0 -1 forward_v I I I I #
coedge $-1 $347 $246 $248 $351 reversed $159 $-1 #
coedge $-1 $246 $346 $417 $418 reversed $159 $-1 #
coedge $-1 $254 $249 $246 $349 forward $244 $-1 #
edge $-1 $352 -19.721837798307888 $419 -9.3887409208777441 $348 $420 forward 7 unknown #
coedge $-1 $248 $247 $355 $421 reversed $100 $-1 #
edge $-1 $422 -92.708075217631944 $352 -74.692870212982498 $346 $423 forward 7 unknown #
vertex $-1 $250 $424 #
straight-curve $-1 28.091000286924071 36.020940731385849 20.092502565440064 1 0 0 I I #
coedge $-1 $417 $251 $254 $359 reversed $344 $-1 #
coedge $-1 $251 $417 $350 $421 forward $344 $-1 #
vertex $-1 $252 $425 #
straight-curve $-1 43.37660846597192 46.354037608815993 82.058275601912001 0 0 1 I I #
straight-curve $-1 43.37660846597192 -6.8211287185522878 81.27732050175598 0 0.57357642473473569 -0.81915205242281985 I I #
edge $-1 $419 -68.987392681724373 $255 -43.37660846597192 $354 $426 forward 7 unknown #
point $-1 43.37660846597192 46.354037608815993 20.092502565440061 #
point $-1 43.37660846597192 36.020940731385849 20.092502565440064 #
edge $-1 $427 1 $427 0 $258 $-1 forward 7 unknown #
vertex $-1 $259 $428 #
ellipse-curve $-1 50.693975384758346 33.968266408099375 7.6589524428518052 0 0.81915205242281985 0.57357642473473569 3 0 0 1 I I #
point $-1 53.693975384758346 41.187489170100918 12.713906488251833 #
edge $-1 $429 1 $429 0 $262 $-1 forward 7 unknown #
vertex $-1 $263 $430 #
ellipse-curve $-1 61.670025762937968 33.968266408099375 7.6589524428518052 0 0.81915205242281985 0.57357642473473569 3 0 0 1 I I #
point $-1 64.670025762937968 41.187489170100918 12.713906488251833 #
plane-surface $-1 72.21289712210455 0 0 -1 0 0 0 0 1 forward_v I I I I #
coedge $-1 $271 $269 $273 $375 reversed $181 $-1 #
edge $-1 $284 -20.092502565440061 $377 20.092502565440061 $283 $431 forward 7 unknown #
vertex $-1 $375 $432 #
straight-curve $-1 -72.21289712210455 -46.354037608815993 0 0 0 -1 I I #
edge $-1 $373 -46.354037608815993 $377 46.354037608815993 $371 $433 forward 7 unknown #
straight-curve $-1 0 -46.354037608815993 -20.092502565440061 -1 0 0 I I #
vertex $-1 $276 $434 #
straight-curve $-1 0 46.354037608815993 -20.092502565440061 1 0 0 I I #
point $-1 72.21289712210455 46.354037608815993 -20.092502565440061 #
point $-1 72.21289712210455 -46.354037608815993 -20.092502565440061 #
straight-curve $-1 -72.21289712210455 0 20.092502565440061 0 -1 0 I I #
point $-1 -72.21289712210455 46.354037608815993 20.092502565440061 #
point $-1 -72.21289712210455 -46.354037608815993 20.092502565440061 #
straight-curve $-1 72.21289712210455 -46.354037608815993 0 0 0 -1 I I #
straight-curve $-1 72.21289712210455 46.354037608815993 0 0 0 -1 I I #
plane-surface $-1 0 -46.354037608815993 0 0 1 0 0 0 1 forward_v I I I I #
coedge $-1 $435 $296 $306 $398 reversed $200 $-1 #
coedge $-1 $296 $435 $309 $400 forward $200 $-1 #
coedge $-1 $436 $299 $297 $390 forward $294 $-1 #
edge $-1 $391 57.537797312943553 $437 72.21289712210455 $297 $438 forward 7 unknown #
vertex $-1 $390 $439 #
straight-curve $-1 -57.537797312943553 46.354037608815993 8.620791640740288 0 0 -1 I I #
coedge $-1 $299 $436 $301 $395 forward $294 $-1 #
straight-curve $-1 -57.537797312943553 0 20.092502565440061 0 1 0 I I #
edge $-1 $440 -72.21289712210455 $303 -57.537797312943553 $301 $441 forward 7 unknown #
point $-1 -57.537797312943553 -46.354037608815993 20.092502565440061 #
straight-curve $-1 -72.21289712210455 0 14.390663997521091 0 -1 0 I I #
edge $-1 $440 -20.092502565440061 $307 -14.390663997521091 $387 $442 forward 7 unknown #
point $-1 -72.21289712210455 -46.354037608815993 14.390663997521091 #
edge $-1 $437 -20.092502565440061 $310 -14.390663997521091 $309 $443 forward 7 unknown #
point $-1 -72.21289712210455 46.354037608815993 14.390663997521091 #
edge $-1 $403 34.110755764985072 $406 38.631851302593759 $315 $444 forward 7 unknown #
vertex $-1 $329 $445 #
straight-curve $-1 18.852054432541536 -78.495307964720936 20.092502565440057 0 -1 0 I I #
edge $-1 $406 0.31007771139436358 $326 36.773875730899981 $325 $446 forward 7 unknown #
vertex $-1 $405 $447 #
straight-curve $-1 18.852054432541536 -46.354037608815972 15.571407027831398 0 0.64278759981090561 0.7660444514056185 I I #
point $-1 18.852054432541536 -42.560388110013591 20.092502565440061 #
point $-1 55.315852452047153 -46.354037608815993 15.571407027831373 #
straight-curve $-1 0 -46.354037608815993 20.092502565440061 1 0 0 I I #
vertex $-1 $332 $448 #
point $-1 27.144814036442654 -43.530698144803878 17.054516661679642 #
vertex $-1 $336 $449 #
point $-1 38.08395344229433 -43.530698144803878 17.054516661679642 #
vertex $-1 $340 $450 #
point $-1 49.023092848146007 -43.530698144803878 17.054516661679642 #
coedge $-1 $355 $354 $347 $418 forward $344 $-1 #
edge $-1 $419 61.965773036471944 $422 76.722965190848385 $417 $451 forward 7 unknown #
vertex $-1 $359 $452 #
straight-curve $-1 68.987392681724373 55.742778529693737 20.092502565440057 0 1 0 I I #
edge $-1 $422 -40.896392394800301 $356 -15.285608179047848 $355 $453 forward 7 unknown #
vertex $-1 $421 $454 #
straight-curve $-1 68.987392681724373 -6.8211287185522878 81.27732050175598 0 -0.57357642473473569 0.81915205242281985 I I #
point $-1 68.987392681724373 36.020940731385849 20.092502565440064 #
point $-1 43.37660846597192 46.354037608815993 5.3353104110636167 #
straight-curve $-1 0 46.354037608815993 20.092502565440061 -1 0 0 I I #
vertex $-1 $362 $455 #
point $-1 53.693975384758346 33.968266408099375 7.6589524428518052 #
vertex $-1 $366 $456 #
point $-1 64.670025762937968 33.968266408099375 7.6589524428518052 #
straight-curve $-1 -72.21289712210455 46.354037608815993 0 0 0 -1 I I #
point $-1 -72.21289712210455 -46.354037608815993 -20.092502565440061 #
straight-curve $-1 -72.21289712210455 0 -20.092502565440061 0 1 0 I I #
point $-1 -72.21289712210455 46.354037608815993 -20.092502565440061 #
coedge $-1 $388 $387 $436 $457 reversed $200 $-1 #
coedge $-1 $393 $389 $435 $457 forward $294 $-1 #
vertex $-1 $390 $458 #
straight-curve $-1 0 46.354037608815993 20.092502565440061 -1 0 0 I I #
point $-1 -57.537797312943553 46.354037608815993 20.092502565440061 #
vertex $-1 $457 $459 #
straight-curve $-1 0 -46.354037608815993 20.092502565440061 1 0 0 I I #
straight-curve $-1 -72.21289712210455 -46.354037608815993 0 0 0 -1 I I #
straight-curve $-1 -72.21289712210455 46.354037608815993 0 0 0 -1 I I #
straight-curve $-1 18.852054432541536 -46.354037608815993 54.203258330425136 0 0 -1 I I #
point $-1 18.852054432541536 -46.354037608815993 20.092502565440061 #
straight-curve $-1 18.541976721147172 -46.354037608815993 15.571407027831377 1 0 0 I I #
point $-1 18.852054432541536 -46.354037608815993 15.571407027831373 #
point $-1 26.144814036442654 -42.764653693398259 16.411729061868733 #
point $-1 37.08395344229433 -42.764653693398259 16.411729061868733 #
point $-1 48.023092848146007 -42.764653693398259 16.411729061868733 #
straight-curve $-1 68.987392681724373 46.354037608815993 82.058275601912001 0 0 -1 I I #
point $-1 68.987392681724373 46.354037608815993 20.092502565440061 #
straight-curve $-1 28.091000286924071 46.354037608815993 5.3353104110636167 -1 0 0 I I #
point $-1 68.987392681724373 46.354037608815993 5.3353104110636167 #
point $-1 50.693975384758346 31.510810250830911 5.938223168647597 #
point $-1 61.670025762937968 31.510810250830911 5.938223168647597 #
edge $-1 $437 -46.354037608815993 $440 46.354037608815993 $435 $460 forward 7 unknown #
point $-1 -72.21289712210455 46.354037608815993 20.092502565440061 #
point $-1 -72.21289712210455 -46.354037608815993 20.092502565440061 #
straight-curve $-1 -72.21289712210455 0 20.092502565440061 0 -1 0 I I #
End-of-ACIS-data 