500 0 5 0           
7 Unknown 11 ACIS 5.0 NT 24 Fri Mar 26 16:46:05 1999 
-1 9.9999999999999995e-007 1e-010 
body $-1 $5 $-1 $6 #
body $-1 $7 $-1 $8 #
body $-1 $9 $-1 $10 #
body $-1 $11 $-1 $12 #
body $-1 $13 $-1 $14 #
lump $-1 $-1 $15 $0 #
transform $-1 1 0 0 0 1 0 0 0 1 51.803338724936673 25.880168297169128 10.779362190194551 1 rotate no_reflect no_shear #
lump $-1 $-1 $16 $1 #
transform $-1 1 0 0 0 1 0 0 0 1 51.803338724936673 25.880168297169128 10.779362190194551 1 rotate no_reflect no_shear #
lump $-1 $-1 $17 $2 #
transform $-1 1 0 0 0 1 0 0 0 1 51.803338724936673 25.880168297169128 10.779362190194551 1 rotate no_reflect no_shear #
lump $-1 $-1 $18 $3 #
transform $-1 1 0 0 0 1 0 0 0 1 51.803338724936673 25.880168297169128 10.779362190194551 1 rotate no_reflect no_shear #
lump $-1 $-1 $19 $4 #
transform $-1 1 0 0 0 1 0 0 0 1 51.803338724936673 25.880168297169128 10.779362190194551 1 rotate no_reflect no_shear #
shell $-1 $-1 $-1 $20 $-1 $5 #
shell $-1 $-1 $-1 $21 $-1 $7 #
shell $-1 $-1 $-1 $22 $-1 $9 #
shell $-1 $-1 $-1 $23 $-1 $11 #
shell $-1 $-1 $-1 $24 $-1 $13 #
face $-1 $25 $26 $15 $-1 $27 forward single #
face $-1 $28 $29 $16 $-1 $30 reversed single #
face $-1 $31 $32 $17 $-1 $33 forward single #
face $-1 $34 $35 $18 $-1 $36 reversed single #
face $-1 $37 $38 $19 $-1 $39 reversed single #
face $-1 $40 $41 $15 $-1 $42 reversed single #
loop $-1 $-1 $43 $20 #
plane-surface $-1 0 0 10.779362190194551 0 0 1 1 0 0 forward_v I I I I #
face $-1 $44 $45 $16 $-1 $46 forward single #
loop $-1 $-1 $47 $21 #
plane-surface $-1 0 -20.995831281018521 3.2317209324332303 0 0 1 1 0 0 forward_v I I I I #
face $-1 $48 $49 $17 $-1 $50 forward single #
loop $-1 $-1 $51 $22 #
plane-surface $-1 -30.664945806584722 54.788243784133279 117.85206063997006 -1 0 0 0 0.6560590369687036 0.75470957328743171 forward_v I I I I #
face $-1 $52 $53 $18 $-1 $54 reversed single #
loop $-1 $55 $56 $23 #
cone-surface $-1 -45.763797891121833 22.341334197564166 7.5293928822177358 0 -0.6560590369687036 -0.75470957328743171 1 0 0 1 I I 0 1 1 forward I I I I #
face $-1 $57 $58 $19 $-1 $59 reversed single #
loop $-1 $60 $61 $24 #
cone-surface $-1 -36.704486640399566 22.341334197564166 7.5293928822177358 0 -0.6560590369687036 -0.75470957328743171 1 0 0 1 I I 0 1 1 forward I I I I #
face $-1 $62 $63 $15 $-1 $64 reversed single #
loop $-1 $-1 $65 $25 #
plane-surface $-1 0 0 -10.779362190194551 0 0 1 1 0 0 forward_v I I I I #
coedge $-1 $66 $67 $68 $69 forward $26 $-1 #
face $-1 $70 $71 $16 $-1 $72 forward single #
loop $-1 $-1 $73 $28 #
plane-surface $-1 0 -20.995831281018521 0.23172093243323033 0 0 1 1 0 0 forward_v I I I I #
coedge $-1 $74 $75 $76 $77 reversed $29 $-1 #
face $-1 $78 $79 $17 $-1 $80 reversed single #
loop $-1 $-1 $81 $31 #
plane-surface $-1 -41.234142265760696 -13.183853247157721 39.659109312047576 0 0.6560590369687036 0.75470957328743171 1 0 0 forward_v I I I I #
coedge $-1 $82 $83 $84 $85 reversed $32 $-1 #
face $-1 $86 $87 $18 $-1 $88 forward single #
loop $-1 $89 $90 $34 #
cone-surface $-1 -45.763797891121833 21.395307357534477 6.4411135162994491 0 -0.6560590369687036 -0.75470957328743171 0.5 0 0 1 I I -0.70710678118654746 0.70710678118654746 0.5 forward I I I I #
loop $-1 $-1 $91 $23 #
coedge $-1 $56 $56 $92 $93 reversed $35 $-1 #
face $-1 $94 $95 $19 $-1 $96 reversed single #
loop $-1 $97 $98 $37 #
cone-surface $-1 -36.704486640399566 21.395307357534477 6.4411135162994491 0 -0.6560590369687036 -0.75470957328743171 0.5 0 0 1 I I -0.70710678118654746 0.70710678118654746 0.5 forward I I I I #
loop $-1 $-1 $99 $24 #
coedge $-1 $61 $61 $100 $101 reversed $38 $-1 #
face $-1 $102 $103 $15 $-1 $104 reversed single #
loop $-1 $-1 $105 $40 #
plane-surface $-1 0 -25.880168297169128 0 0 1 0 0 0 1 forward_v I I I I #
coedge $-1 $106 $107 $108 $109 forward $41 $-1 #
coedge $-1 $110 $43 $111 $112 forward $26 $-1 #
coedge $-1 $43 $110 $113 $114 forward $26 $-1 #
coedge $-1 $115 $116 $43 $69 reversed $117 $-1 #
edge $-1 $118 -25.880168297169128 $119 25.880168297169128 $68 $120 forward 7 unknown #
face $-1 $121 $122 $16 $-1 $123 reversed single #
loop $-1 $-1 $124 $44 #
plane-surface $-1 0 -16.111494264867915 1.7317209324332303 0 -1 0 0 0 -1 forward_v I I I I #
coedge $-1 $125 $126 $127 $128 reversed $45 $-1 #
coedge $-1 $129 $47 $130 $131 reversed $29 $-1 #
coedge $-1 $47 $129 $132 $133 reversed $29 $-1 #
coedge $-1 $134 $135 $47 $77 forward $122 $-1 #
edge $-1 $136 -15.382252656659867 $137 -5.6135786243586541 $76 $138 forward 7 unknown #
face $-1 $139 $140 $17 $-1 $141 forward single #
loop $-1 $-1 $142 $48 #
plane-surface $-1 0 25.880168297169128 0 0 -1 0 0 0 -1 forward_v I I I I #
coedge $-1 $143 $144 $142 $145 reversed $49 $-1 #
coedge $-1 $83 $51 $144 $146 forward $32 $-1 #
coedge $-1 $51 $82 $147 $148 reversed $32 $-1 #
coedge $-1 $149 $142 $51 $85 forward $79 $-1 #
edge $-1 $150 -53.224757587194951 $151 -48.146668129790484 $84 $152 forward 7 unknown #
face $-1 $153 $154 $18 $-1 $155 forward single #
loop $-1 $-1 $156 $52 #
plane-surface $-1 -30.664945806584722 54.788243784133279 117.85206063997006 -1 0 0 0 0.6560590369687036 0.75470957328743171 forward_v I I I I #
loop $-1 $-1 $157 $34 #
coedge $-1 $90 $90 $91 $158 forward $53 $-1 #
coedge $-1 $91 $91 $90 $158 reversed $55 $-1 #
coedge $-1 $92 $92 $56 $93 forward $154 $-1 #
edge $-1 $159 -4.6444073776859686e-016 $159 6.2831853071795996 $92 $160 forward 7 unknown #
face $-1 $161 $162 $19 $-1 $163 reversed single #
loop $-1 $164 $165 $57 #
cone-surface $-1 -45.763797891121833 22.341334197564166 7.5293928822177358 0 -0.6560590369687036 -0.75470957328743171 1 0 0 1 I I 0 1 1 forward I I I I #
loop $-1 $-1 $166 $37 #
coedge $-1 $98 $98 $99 $167 forward $58 $-1 #
coedge $-1 $99 $99 $98 $167 reversed $60 $-1 #
coedge $-1 $100 $100 $61 $101 forward $168 $-1 #
edge $-1 $169 -4.6444073776859686e-016 $169 6.2831853071795996 $100 $170 forward 7 unknown #
face $-1 $171 $172 $15 $-1 $173 reversed single #
loop $-1 $-1 $174 $62 #
plane-surface $-1 -51.803338724936673 0 0 1 0 0 0 0 -1 forward_v I I I I #
coedge $-1 $175 $113 $176 $177 forward $63 $-1 #
coedge $-1 $178 $65 $175 $179 forward $41 $-1 #
coedge $-1 $65 $178 $180 $181 forward $41 $-1 #
coedge $-1 $116 $115 $65 $109 reversed $117 $-1 #
edge $-1 $182 -25.880168297169128 $183 25.880168297169128 $108 $184 forward 7 unknown #
coedge $-1 $67 $66 $185 $186 forward $26 $-1 #
coedge $-1 $187 $188 $66 $112 reversed $172 $-1 #
edge $-1 $119 -51.803338724936673 $189 51.803338724936673 $111 $190 forward 7 unknown #
coedge $-1 $105 $191 $67 $114 reversed $63 $-1 #
edge $-1 $192 -51.803338724936673 $118 51.803338724936673 $113 $193 forward 7 unknown #
coedge $-1 $108 $68 $191 $194 forward $117 $-1 #
coedge $-1 $68 $108 $187 $195 reversed $117 $-1 #
loop $-1 $-1 $115 $171 #
vertex $-1 $69 $196 #
vertex $-1 $69 $197 #
straight-curve $-1 51.803338724936673 0 10.779362190194551 0 1 0 I I #
face $-1 $198 $199 $16 $-1 $200 reversed single #
loop $-1 $-1 $76 $70 #
plane-surface $-1 51.803338724936673 0 0 -1 0 0 0 0 1 forward_v I I I I #
coedge $-1 $132 $201 $134 $202 reversed $71 $-1 #
coedge $-1 $203 $73 $201 $204 reversed $45 $-1 #
coedge $-1 $73 $203 $205 $206 reversed $45 $-1 #
coedge $-1 $207 $134 $73 $128 forward $122 $-1 #
edge $-1 $208 5.6135786243586541 $209 15.382252656659867 $127 $210 forward 7 unknown #
coedge $-1 $75 $74 $211 $212 reversed $29 $-1 #
coedge $-1 $213 $214 $74 $131 forward $215 $-1 #
edge $-1 $216 -51.803338724936673 $136 51.803338724936673 $130 $217 forward 7 unknown #
coedge $-1 $218 $124 $75 $133 forward $71 $-1 #
edge $-1 $137 -51.803338724936673 $219 51.803338724936673 $132 $220 forward 7 unknown #
coedge $-1 $127 $76 $124 $202 forward $122 $-1 #
coedge $-1 $76 $221 $213 $222 forward $122 $-1 #
vertex $-1 $131 $223 #
vertex $-1 $77 $224 #
straight-curve $-1 51.803338724936673 -10.497915640509261 3.2317209324332303 0 1 0 I I #
face $-1 $225 $226 $17 $-1 $227 reversed single #
loop $-1 $-1 $147 $78 #
plane-surface $-1 0 0 10.779362190194551 0 0 1 1 0 0 forward_v I I I I #
coedge $-1 $84 $228 $81 $145 forward $79 $-1 #
coedge $-1 $229 $81 $230 $231 reversed $49 $-1 #
coedge $-1 $81 $229 $82 $146 reversed $49 $-1 #
edge $-1 $232 -31.186267592056325 $150 -10.047874673704374 $142 $233 forward 7 unknown #
edge $-1 $150 -51.760336594338241 $234 -44.020043158449312 $82 $235 forward 7 unknown #
coedge $-1 $236 $237 $83 $148 forward $140 $-1 #
edge $-1 $151 1.5139535948975116 $234 7.3556271510167512 $147 $238 forward 7 unknown #
coedge $-1 $239 $84 $237 $240 reversed $79 $-1 #
vertex $-1 $145 $241 #
vertex $-1 $148 $242 #
straight-curve $-1 -30.664945806584722 25.880168297169128 58.926030319985031 0 0 1 I I #
face $-1 $243 $244 $18 $-1 $245 reversed single #
loop $-1 $246 $92 $86 #
plane-surface $-1 -41.234142265760696 -13.183853247157721 39.659109312047576 0 0.6560590369687036 0.75470957328743171 1 0 0 forward_v I I I I #
coedge $-1 $247 $248 $249 $250 reversed $87 $-1 #
coedge $-1 $157 $157 $-1 $251 forward $89 $-1 #
edge $-1 $252 0 $252 6.2831853071796004 $90 $253 forward 7 unknown #
vertex $-1 $93 $254 #
ellipse-curve $-1 -45.763797891121833 22.959331519109508 8.2403174614923156 0 -0.6560590369687036 -0.75470957328743171 1 0 0 1 I I #
face $-1 $255 $256 $19 $-1 $257 forward single #
loop $-1 $258 $259 $94 #
cone-surface $-1 -45.763797891121833 21.395307357534477 6.4411135162994491 0 -0.6560590369687036 -0.75470957328743171 0.5 0 0 1 I I -0.70710678118654746 0.70710678118654746 0.5 forward I I I I #
loop $-1 $-1 $260 $57 #
coedge $-1 $165 $165 $261 $262 reversed $95 $-1 #
coedge $-1 $166 $166 $-1 $263 forward $97 $-1 #
edge $-1 $264 0 $264 6.2831853071796004 $98 $265 forward 7 unknown #
loop $-1 $266 $100 $255 #
vertex $-1 $101 $267 #
ellipse-curve $-1 -36.704486640399566 22.959331519109508 8.2403174614923156 0 -0.6560590369687036 -0.75470957328743171 1 0 0 1 I I #
face $-1 $-1 $117 $15 $-1 $268 reversed single #
loop $-1 $-1 $187 $102 #
plane-surface $-1 0 25.880168297169128 0 0 -1 0 0 0 -1 forward_v I I I I #
coedge $-1 $269 $185 $188 $270 forward $103 $-1 #
coedge $-1 $191 $105 $106 $179 reversed $63 $-1 #
coedge $-1 $185 $269 $105 $177 reversed $103 $-1 #
edge $-1 $192 -10.779362190194551 $271 10.779362190194551 $176 $272 forward 7 unknown #
coedge $-1 $107 $106 $269 $273 forward $41 $-1 #
edge $-1 $183 -51.803338724936673 $271 51.803338724936673 $175 $274 forward 7 unknown #
coedge $-1 $188 $187 $107 $181 reversed $172 $-1 #
edge $-1 $275 -51.803338724936673 $182 51.803338724936673 $180 $276 forward 7 unknown #
vertex $-1 $109 $277 #
vertex $-1 $194 $278 #
straight-curve $-1 51.803338724936673 0 -10.779362190194551 0 -1 0 I I #
coedge $-1 $174 $176 $110 $186 reversed $103 $-1 #
edge $-1 $189 -25.880168297169128 $192 25.880168297169128 $185 $279 forward 7 unknown #
coedge $-1 $180 $111 $116 $195 forward $172 $-1 #
coedge $-1 $111 $180 $174 $270 reversed $172 $-1 #
vertex $-1 $112 $280 #
straight-curve $-1 0 25.880168297169128 10.779362190194551 -1 0 0 I I #
coedge $-1 $113 $175 $115 $194 reversed $63 $-1 #
vertex $-1 $186 $281 #
straight-curve $-1 0 -25.880168297169128 10.779362190194551 1 0 0 I I #
edge $-1 $118 -10.779362190194551 $183 10.779362190194551 $115 $282 forward 7 unknown #
edge $-1 $119 -10.779362190194551 $182 10.779362190194551 $116 $283 forward 7 unknown #
point $-1 51.803338724936673 -25.880168297169128 10.779362190194551 #
point $-1 51.803338724936673 25.880168297169128 10.779362190194551 #
face $-1 $284 $285 $16 $-1 $286 forward single #
loop $-1 $-1 $205 $121 #
plane-surface $-1 0 -25.880168297169128 0 0 1 0 0 0 1 forward_v I I I I #
coedge $-1 $124 $218 $125 $204 forward $71 $-1 #
edge $-1 $137 -2.3658604662166152 $208 0.63413953378338483 $134 $287 forward 7 unknown #
coedge $-1 $126 $125 $288 $289 reversed $45 $-1 #
edge $-1 $290 -51.803338724936673 $208 51.803338724936673 $201 $291 forward 7 unknown #
coedge $-1 $292 $293 $126 $206 forward $199 $-1 #
edge $-1 $209 -51.803338724936673 $294 51.803338724936673 $205 $295 forward 7 unknown #
coedge $-1 $296 $127 $293 $297 forward $122 $-1 #
vertex $-1 $128 $298 #
vertex $-1 $297 $299 #
straight-curve $-1 51.803338724936673 -10.497915640509261 0.23172093243323033 0 -1 0 I I #
coedge $-1 $300 $301 $129 $212 forward $302 $-1 #
edge $-1 $219 5.6135786243586541 $216 15.382252656659867 $211 $303 forward 7 unknown #
coedge $-1 $304 $130 $135 $222 reversed $215 $-1 #
coedge $-1 $130 $304 $300 $305 forward $215 $-1 #
loop $-1 $-1 $130 $306 #
vertex $-1 $212 $307 #
straight-curve $-1 0 -25.880168297169128 3.2317209324332303 1 0 0 I I #
coedge $-1 $201 $132 $301 $308 reversed $71 $-1 #
vertex $-1 $212 $309 #
straight-curve $-1 0 -16.111494264867915 3.2317209324332303 -1 0 0 I I #
coedge $-1 $135 $310 $311 $312 reversed $122 $-1 #
edge $-1 $313 -10.779362190194551 $136 -3.2317209324332303 $135 $314 forward 7 unknown #
point $-1 51.803338724936673 -25.880168297169128 3.2317209324332303 #
point $-1 51.803338724936673 -16.111494264867915 3.2317209324332303 #
face $-1 $315 $316 $17 $-1 $317 forward single #
loop $-1 $-1 $318 $139 #
plane-surface $-1 0 -20.995831281018521 3.2317209324332303 0 0 1 1 0 0 forward_v I I I I #
coedge $-1 $142 $319 $320 $321 reversed $79 $-1 #
coedge $-1 $144 $143 $236 $322 reversed $49 $-1 #
coedge $-1 $320 $323 $143 $231 forward $324 $-1 #
edge $-1 $325 26.035694498076815 $232 33.775987933965737 $230 $326 forward 7 unknown #
vertex $-1 $321 $327 #
straight-curve $-1 -20.617071132880348 25.880168297169128 5.7012727327900823 1 0 0 I I #
vertex $-1 $322 $328 #
straight-curve $-1 -30.664945806584722 -13.183853247157721 39.659109312047576 0 -0.75470957328743171 0.6560590369687036 I I #
coedge $-1 $329 $147 $229 $322 forward $140 $-1 #
coedge $-1 $147 $330 $149 $240 forward $140 $-1 #
straight-curve $-1 -30.664945806584722 27.394121892066639 10.779362190194547 0 -1 0 I I #
coedge $-1 $319 $149 $331 $332 forward $79 $-1 #
edge $-1 $333 -51.803338724936673 $151 30.664945806584722 $149 $334 forward 7 unknown #
point $-1 -30.664945806584722 25.880168297169128 5.7012727327900805 #
point $-1 -30.664945806584722 25.880168297169128 10.779362190194551 #
face $-1 $335 $336 $18 $-1 $337 forward single #
loop $-1 $-1 $338 $153 #
plane-surface $-1 0 25.880168297169128 0 0 -1 0 0 0 -1 forward_v I I I I #
loop $-1 $-1 $339 $86 #
coedge $-1 $248 $156 $340 $341 forward $87 $-1 #
coedge $-1 $156 $247 $342 $343 reversed $87 $-1 #
coedge $-1 $344 $338 $156 $250 forward $244 $-1 #
edge $-1 $345 -53.224757587194951 $346 -48.146668129790484 $249 $347 forward 7 unknown #
edge $-1 $348 1 $348 0 $157 $-1 forward 7 unknown #
vertex $-1 $158 $349 #
ellipse-curve $-1 -45.763797891121833 21.723336876018831 6.818468302943165 0 0.6560590369687036 0.75470957328743171 1 0 0 1 I I #
point $-1 -44.763797891121833 22.959331519109501 8.2403174614923067 #
face $-1 $350 $168 $19 $-1 $351 forward single #
loop $-1 $-1 $352 $161 #
plane-surface $-1 -30.664945806584722 54.788243784133279 117.85206063997006 -1 0 0 0 0.6560590369687036 0.75470957328743171 forward_v I I I I #
loop $-1 $-1 $353 $94 #
coedge $-1 $259 $259 $260 $354 forward $162 $-1 #
coedge $-1 $260 $260 $259 $354 reversed $164 $-1 #
coedge $-1 $261 $261 $165 $262 forward $266 $-1 #
edge $-1 $355 -4.6444073776859686e-016 $355 6.2831853071795996 $261 $356 forward 7 unknown #
edge $-1 $357 1 $357 0 $166 $-1 forward 7 unknown #
vertex $-1 $167 $358 #
ellipse-curve $-1 -36.704486640399566 21.723336876018831 6.818468302943165 0 0.6560590369687036 0.75470957328743171 1 0 0 1 I I #
loop $-1 $359 $261 $255 #
point $-1 -35.704486640399566 22.959331519109501 8.2403174614923067 #
plane-surface $-1 51.803338724936673 0 0 -1 0 0 0 0 1 forward_v I I I I #
coedge $-1 $176 $174 $178 $273 reversed $103 $-1 #
edge $-1 $189 -10.779362190194551 $275 10.779362190194551 $188 $360 forward 7 unknown #
vertex $-1 $273 $361 #
straight-curve $-1 -51.803338724936673 -25.880168297169128 0 0 0 -1 I I #
edge $-1 $271 -25.880168297169128 $275 25.880168297169128 $269 $362 forward 7 unknown #
straight-curve $-1 0 -25.880168297169128 -10.779362190194551 -1 0 0 I I #
vertex $-1 $181 $363 #
straight-curve $-1 0 25.880168297169128 -10.779362190194551 1 0 0 I I #
point $-1 51.803338724936673 25.880168297169128 -10.779362190194551 #
point $-1 51.803338724936673 -25.880168297169128 -10.779362190194551 #
straight-curve $-1 -51.803338724936673 0 10.779362190194551 0 -1 0 I I #
point $-1 -51.803338724936673 25.880168297169128 10.779362190194551 #
point $-1 -51.803338724936673 -25.880168297169128 10.779362190194551 #
straight-curve $-1 51.803338724936673 -25.880168297169128 0 0 0 -1 I I #
straight-curve $-1 51.803338724936673 25.880168297169128 0 0 0 -1 I I #
face $-1 $306 $364 $16 $-1 $365 reversed single #
loop $-1 $-1 $311 $198 #
plane-surface $-1 0 0 10.779362190194551 0 0 1 1 0 0 forward_v I I I I #
straight-curve $-1 51.803338724936673 -16.111494264867915 0.86586046621661517 0 0 -1 I I #
coedge $-1 $301 $366 $203 $289 forward $302 $-1 #
edge $-1 $294 -15.382252656659867 $290 -5.6135786243586541 $288 $367 forward 7 unknown #
vertex $-1 $289 $368 #
straight-curve $-1 0 -16.111494264867915 0.23172093243323033 1 0 0 I I #
coedge $-1 $369 $205 $366 $370 forward $199 $-1 #
coedge $-1 $205 $369 $207 $297 reversed $199 $-1 #
vertex $-1 $370 $371 #
straight-curve $-1 0 -25.880168297169128 0.23172093243323033 -1 0 0 I I #
coedge $-1 $310 $207 $372 $373 reversed $122 $-1 #
edge $-1 $209 -0.23172093243323033 $374 10.779362190194551 $207 $314 forward 7 unknown #
point $-1 51.803338724936673 -16.111494264867915 0.23172093243323033 #
point $-1 51.803338724936673 -25.880168297169128 0.23172093243323033 #
coedge $-1 $375 $211 $214 $305 reversed $302 $-1 #
coedge $-1 $211 $288 $218 $308 forward $302 $-1 #
loop $-1 $-1 $211 $376 #
straight-curve $-1 -51.803338724936673 -10.497915640509261 3.2317209324332303 0 -1 0 I I #
coedge $-1 $214 $213 $377 $378 reversed $215 $-1 #
edge $-1 $379 -10.779362190194551 $216 -3.2317209324332303 $300 $380 forward 7 unknown #
face $-1 $376 $215 $16 $-1 $200 reversed single #
point $-1 -51.803338724936673 -25.880168297169128 3.2317209324332303 #
edge $-1 $290 -0.63413953378338483 $219 2.3658604662166152 $301 $381 forward 7 unknown #
point $-1 -51.803338724936673 -16.111494264867915 3.2317209324332303 #
coedge $-1 $221 $296 $382 $383 reversed $122 $-1 #
coedge $-1 $384 $377 $221 $312 forward $285 $-1 #
edge $-1 $313 -25.880168297169128 $385 25.880168297169128 $221 $386 forward 7 unknown #
vertex $-1 $312 $387 #
straight-curve $-1 51.803338724936673 -25.880168297169128 0 0 0 -1 I I #
face $-1 $388 $389 $17 $-1 $390 forward single #
loop $-1 $-1 $391 $225 #
plane-surface $-1 0 -20.995831281018521 0.23172093243323033 0 0 1 1 0 0 forward_v I I I I #
coedge $-1 $392 $393 $394 $395 reversed $226 $-1 #
coedge $-1 $228 $239 $396 $397 reversed $79 $-1 #
coedge $-1 $398 $230 $228 $321 forward $324 $-1 #
edge $-1 $232 -5.7012727327900876 $399 10.779362190194551 $228 $400 forward 7 unknown #
edge $-1 $234 10.047874673704374 $325 31.186267592056318 $236 $401 forward 7 unknown #
coedge $-1 $230 $402 $329 $403 reversed $324 $-1 #
loop $-1 $-1 $230 $404 #
vertex $-1 $403 $405 #
straight-curve $-1 -51.803338724936673 0.38910685616440421 27.860314849414202 0 0.75470957328743171 -0.6560590369687036 I I #
point $-1 -51.803338724936673 25.880168297169128 5.7012727327900876 #
point $-1 -30.664945806584722 20.038494741049888 10.779362190194551 #
coedge $-1 $406 $236 $323 $403 forward $140 $-1 #
coedge $-1 $237 $406 $407 $408 forward $140 $-1 #
coedge $-1 $407 $409 $239 $332 reversed $410 $-1 #
edge $-1 $333 -10.779362190194551 $411 10.779362190194551 $331 $412 forward 7 unknown #
vertex $-1 $408 $413 #
straight-curve $-1 0 25.880168297169128 10.779362190194551 -1 0 0 I I #
face $-1 $414 $415 $18 $-1 $416 reversed single #
loop $-1 $-1 $342 $243 #
plane-surface $-1 0 0 10.779362190194551 0 0 1 1 0 0 forward_v I I I I #
coedge $-1 $249 $417 $339 $418 forward $244 $-1 #
coedge $-1 $419 $340 $338 $418 reversed $246 $-1 #
coedge $-1 $339 $420 $247 $341 reversed $246 $-1 #
edge $-1 $345 -51.760336594338241 $421 -44.020043158449312 $247 $422 forward 7 unknown #
coedge $-1 $423 $424 $248 $343 forward $336 $-1 #
edge $-1 $346 1.5139535948975116 $421 7.3556271510167512 $342 $425 forward 7 unknown #
coedge $-1 $426 $249 $424 $427 reversed $244 $-1 #
vertex $-1 $418 $428 #
vertex $-1 $343 $429 #
straight-curve $-1 -30.664945806584722 25.880168297169128 58.926030319985031 0 0 1 I I #
vertex $-1 $251 $430 #
point $-1 -44.763797891121833 21.723336876018831 6.818468302943165 #
face $-1 $431 $432 $19 $-1 $433 reversed single #
plane-surface $-1 -41.234142265760696 -13.183853247157721 39.659109312047576 0 0.6560590369687036 0.75470957328743171 1 0 0 forward_v I I I I #
coedge $-1 $434 $435 $436 $437 reversed $256 $-1 #
coedge $-1 $353 $353 $-1 $438 forward $258 $-1 #
edge $-1 $439 0 $439 6.2831853071796004 $259 $440 forward 7 unknown #
vertex $-1 $262 $441 #
ellipse-curve $-1 -45.763797891121833 22.959331519109508 8.2403174614923156 0 -0.6560590369687036 -0.75470957328743171 1 0 0 1 I I #
vertex $-1 $263 $442 #
point $-1 -35.704486640399566 21.723336876018831 6.818468302943165 #
loop $-1 $-1 $443 $255 #
straight-curve $-1 -51.803338724936673 25.880168297169128 0 0 0 -1 I I #
point $-1 -51.803338724936673 -25.880168297169128 -10.779362190194551 #
straight-curve $-1 -51.803338724936673 0 -10.779362190194551 0 1 0 I I #
point $-1 -51.803338724936673 25.880168297169128 -10.779362190194551 #
loop $-1 $-1 $372 $284 #
plane-surface $-1 0 0 -10.779362190194551 0 0 1 1 0 0 forward_v I I I I #
coedge $-1 $288 $444 $292 $370 reversed $302 $-1 #
straight-curve $-1 -51.803338724936673 -10.497915640509261 0.23172093243323033 0 1 0 I I #
point $-1 -51.803338724936673 -16.111494264867915 0.23172093243323033 #
coedge $-1 $293 $292 $445 $446 reversed $199 $-1 #
edge $-1 $294 -0.23172093243323033 $447 10.779362190194551 $366 $380 forward 7 unknown #
point $-1 -51.803338724936673 -25.880168297169128 0.23172093243323033 #
coedge $-1 $445 $448 $296 $373 forward $364 $-1 #
edge $-1 $449 -25.880168297169128 $374 25.880168297169128 $296 $450 forward 7 unknown #
vertex $-1 $297 $451 #
coedge $-1 $452 $300 $453 $454 reversed $302 $-1 #
face $-1 $455 $302 $16 $-1 $456 reversed single #
coedge $-1 $311 $453 $304 $378 forward $285 $-1 #
edge $-1 $379 -51.803338724936673 $313 51.803338724936673 $304 $457 forward 7 unknown #
vertex $-1 $454 $458 #
straight-curve $-1 -51.803338724936673 -25.880168297169128 0 0 0 -1 I I #
straight-curve $-1 -51.803338724936673 -16.111494264867915 0.86586046621661517 0 0 1 I I #
coedge $-1 $459 $460 $310 $383 forward $461 $-1 #
edge $-1 $385 -10.779362190194551 $449 10.779362190194551 $310 $462 forward 7 unknown #
coedge $-1 $453 $311 $460 $463 forward $285 $-1 #
vertex $-1 $312 $464 #
straight-curve $-1 51.803338724936673 0 10.779362190194551 0 1 0 I I #
point $-1 51.803338724936673 -25.880168297169128 10.779362190194551 #
face $-1 $465 $410 $17 $-1 $466 reversed single #
loop $-1 $-1 $467 $315 #
plane-surface $-1 0 -16.111494264867915 1.7317209324332303 0 -1 0 0 0 -1 forward_v I I I I #
coedge $-1 $468 $469 $470 $471 reversed $316 $-1 #
coedge $-1 $472 $318 $473 $474 reversed $226 $-1 #
coedge $-1 $318 $472 $475 $476 reversed $226 $-1 #
coedge $-1 $477 $478 $318 $395 forward $410 $-1 #
edge $-1 $479 -15.382252656659867 $480 -5.6135786243586541 $394 $481 forward 7 unknown #
coedge $-1 $482 $483 $319 $397 forward $484 $-1 #
edge $-1 $399 -51.803338724936673 $411 51.803338724936673 $319 $485 forward 7 unknown #
coedge $-1 $486 $320 $483 $487 reversed $324 $-1 #
vertex $-1 $397 $488 #
straight-curve $-1 -51.803338724936673 25.880168297169128 0 0 0 -1 I I #
straight-curve $-1 -20.617071132880348 20.038494741049881 10.779362190194551 -1 0 0 I I #
coedge $-1 $323 $489 $490 $491 reversed $324 $-1 #
edge $-1 $325 -20.038494741049888 $492 25.880168297169128 $323 $493 forward 7 unknown #
face $-1 $-1 $324 $17 $-1 $494 reversed single #
point $-1 -51.803338724936665 20.038494741049888 10.779362190194551 #
coedge $-1 $330 $329 $495 $496 forward $140 $-1 #
coedge $-1 $478 $331 $330 $408 reversed $410 $-1 #
edge $-1 $497 -25.880168297169128 $333 25.880168297169128 $407 $498 forward 7 unknown #
coedge $-1 $331 $499 $482 $500 reversed $410 $-1 #
loop $-1 $-1 $394 $388 #
vertex $-1 $500 $501 #
straight-curve $-1 51.803338724936673 25.880168297169128 0 0 0 -1 I I #
point $-1 51.803338724936673 25.880168297169128 10.779362190194551 #
face $-1 $502 $503 $18 $-1 $504 forward single #
loop $-1 $-1 $505 $335 #
plane-surface $-1 0 -20.995831281018521 3.2317209324332303 0 0 1 1 0 0 forward_v I I I I #
coedge $-1 $338 $506 $507 $508 reversed $244 $-1 #
edge $-1 $509 -31.186267592056325 $345 -10.047874673704374 $338 $510 forward 7 unknown #
coedge $-1 $420 $339 $511 $512 reversed $246 $-1 #
coedge $-1 $340 $419 $423 $513 reversed $246 $-1 #
vertex $-1 $513 $514 #
straight-curve $-1 -30.664945806584722 -13.183853247157721 39.659109312047576 0 -0.75470957328743171 0.6560590369687036 I I #
coedge $-1 $515 $342 $420 $513 forward $336 $-1 #
coedge $-1 $342 $516 $344 $427 forward $336 $-1 #
straight-curve $-1 -30.664945806584722 27.394121892066639 10.779362190194547 0 -1 0 I I #
coedge $-1 $506 $344 $517 $518 forward $244 $-1 #
edge $-1 $519 -51.803338724936673 $346 30.664945806584722 $344 $520 forward 7 unknown #
point $-1 -30.664945806584722 25.880168297169128 5.7012727327900805 #
point $-1 -30.664945806584722 25.880168297169128 10.779362190194551 #
point $-1 -45.763797891121833 21.067277839050124 6.0637587296557331 #
face $-1 $521 $522 $19 $-1 $523 forward single #
loop $-1 $-1 $524 $350 #
plane-surface $-1 0 25.880168297169128 0 0 -1 0 0 0 -1 forward_v I I I I #
coedge $-1 $435 $352 $525 $526 forward $256 $-1 #
coedge $-1 $352 $434 $527 $528 reversed $256 $-1 #
coedge $-1 $529 $524 $352 $437 forward $432 $-1 #
edge $-1 $530 -53.224757587194951 $531 -48.146668129790484 $436 $532 forward 7 unknown #
edge $-1 $533 1 $533 0 $353 $-1 forward 7 unknown #
vertex $-1 $354 $534 #
ellipse-curve $-1 -45.763797891121833 21.723336876018831 6.818468302943165 0 0.6560590369687036 0.75470957328743171 1 0 0 1 I I #
point $-1 -44.763797891121833 22.959331519109501 8.2403174614923067 #
point $-1 -36.704486640399566 21.067277839050124 6.0637587296557331 #
coedge $-1 $535 $525 $524 $536 reversed $359 $-1 #
coedge $-1 $366 $452 $537 $538 reversed $302 $-1 #
coedge $-1 $537 $372 $369 $446 forward $364 $-1 #
edge $-1 $374 -51.803338724936673 $447 51.803338724936673 $369 $539 forward 7 unknown #
vertex $-1 $538 $540 #
coedge $-1 $372 $537 $459 $541 forward $364 $-1 #
vertex $-1 $373 $542 #
straight-curve $-1 51.803338724936673 0 -10.779362190194551 0 -1 0 I I #
point $-1 51.803338724936673 -25.880168297169128 -10.779362190194551 #
coedge $-1 $444 $375 $543 $544 forward $302 $-1 #
coedge $-1 $377 $384 $375 $454 forward $285 $-1 #
edge $-1 $545 -25.880168297169128 $379 25.880168297169128 $375 $546 forward 7 unknown #
face $-1 $-1 $461 $16 $-1 $547 reversed single #
plane-surface $-1 -51.803338724936673 0 0 1 0 0 0 0 -1 forward_v I I I I #
straight-curve $-1 0 -25.880168297169128 10.779362190194551 1 0 0 I I #
point $-1 -51.803338724936673 -25.880168297169128 10.779362190194551 #
coedge $-1 $543 $382 $448 $541 reversed $461 $-1 #
coedge $-1 $382 $543 $384 $463 reversed $461 $-1 #
loop $-1 $-1 $382 $455 #
straight-curve $-1 51.803338724936673 25.880168297169128 0 0 0 -1 I I #
edge $-1 $385 -51.803338724936673 $545 51.803338724936673 $460 $548 forward 7 unknown #
point $-1 51.803338724936673 25.880168297169128 10.779362190194551 #
face $-1 $549 $550 $17 $-1 $551 reversed single #
plane-surface $-1 51.803338724936673 0 0 -1 0 0 0 0 1 forward_v I I I I #
coedge $-1 $475 $552 $477 $553 reversed $389 $-1 #
coedge $-1 $554 $391 $552 $555 reversed $316 $-1 #
coedge $-1 $391 $554 $556 $557 reversed $316 $-1 #
coedge $-1 $499 $477 $391 $471 forward $410 $-1 #
edge $-1 $558 5.6135786243586541 $559 15.382252656659867 $470 $560 forward 7 unknown #
coedge $-1 $393 $392 $489 $561 reversed $226 $-1 #
coedge $-1 $562 $490 $392 $474 forward $563 $-1 #
edge $-1 $564 -51.803338724936673 $479 51.803338724936673 $473 $565 forward 7 unknown #
coedge $-1 $566 $467 $393 $476 forward $389 $-1 #
edge $-1 $480 -51.803338724936673 $567 51.803338724936673 $475 $568 forward 7 unknown #
coedge $-1 $470 $394 $467 $553 forward $410 $-1 #
coedge $-1 $394 $407 $562 $569 forward $410 $-1 #
vertex $-1 $474 $570 #
vertex $-1 $395 $571 #
straight-curve $-1 51.803338724936673 -10.497915640509261 3.2317209324332303 0 1 0 I I #
coedge $-1 $572 $396 $409 $500 forward $484 $-1 #
coedge $-1 $396 $572 $398 $487 forward $484 $-1 #
loop $-1 $-1 $482 $549 #
straight-curve $-1 0 25.880168297169128 -10.779362190194551 1 0 0 I I #
coedge $-1 $573 $398 $574 $575 reversed $324 $-1 #
edge $-1 $576 -25.880168297169128 $399 25.880168297169128 $398 $577 forward 7 unknown #
point $-1 -51.803338724936673 25.880168297169128 -10.779362190194551 #
coedge $-1 $402 $578 $472 $561 forward $324 $-1 #
coedge $-1 $473 $495 $402 $491 forward $563 $-1 #
edge $-1 $492 -10.779362190194551 $564 -3.2317209324332303 $402 $579 forward 7 unknown #
vertex $-1 $403 $580 #
straight-curve $-1 -51.803338724936673 0 10.779362190194551 0 -1 0 I I #
plane-surface $-1 -51.803338724936673 0 0 1 0 0 0 0 -1 forward_v I I I I #
coedge $-1 $490 $562 $406 $496 reversed $563 $-1 #
edge $-1 $492 -51.803338724936673 $497 51.803338724936673 $495 $581 forward 7 unknown #
vertex $-1 $408 $582 #
straight-curve $-1 51.803338724936673 0 10.779362190194551 0 1 0 I I #
coedge $-1 $409 $470 $583 $584 forward $410 $-1 #
edge $-1 $411 -25.880168297169128 $585 25.880168297169128 $409 $586 forward 7 unknown #
point $-1 51.803338724936673 25.880168297169128 -10.779362190194551 #
face $-1 $587 $588 $18 $-1 $589 forward single #
loop $-1 $-1 $590 $414 #
plane-surface $-1 0 -20.995831281018521 0.23172093243323033 0 0 1 1 0 0 forward_v I I I I #
coedge $-1 $591 $592 $593 $594 reversed $415 $-1 #
coedge $-1 $417 $426 $595 $596 reversed $244 $-1 #
coedge $-1 $597 $511 $417 $508 forward $598 $-1 #
edge $-1 $509 -5.7012727327900876 $599 10.779362190194551 $417 $600 forward 7 unknown #
vertex $-1 $508 $601 #
straight-curve $-1 -20.617071132880348 25.880168297169128 5.7012727327900823 1 0 0 I I #
coedge $-1 $507 $602 $419 $512 forward $598 $-1 #
edge $-1 $603 26.035694498076815 $509 33.775987933965737 $511 $604 forward 7 unknown #
edge $-1 $421 10.047874673704374 $603 31.186267592056318 $423 $605 forward 7 unknown #
point $-1 -30.664945806584722 20.038494741049888 10.779362190194551 #
coedge $-1 $606 $423 $602 $607 forward $336 $-1 #
coedge $-1 $424 $606 $608 $609 forward $336 $-1 #
coedge $-1 $608 $610 $426 $518 reversed $611 $-1 #
edge $-1 $519 -10.779362190194551 $612 10.779362190194551 $517 $613 forward 7 unknown #
vertex $-1 $609 $614 #
straight-curve $-1 0 25.880168297169128 10.779362190194551 -1 0 0 I I #
face $-1 $615 $616 $19 $-1 $617 reversed single #
loop $-1 $-1 $527 $431 #
plane-surface $-1 0 0 10.779362190194551 0 0 1 1 0 0 forward_v I I I I #
coedge $-1 $436 $618 $443 $536 forward $432 $-1 #
coedge $-1 $443 $619 $434 $526 reversed $359 $-1 #
edge $-1 $530 -51.760336594338241 $620 -44.020043158449312 $434 $621 forward 7 unknown #
coedge $-1 $622 $623 $435 $528 forward $522 $-1 #
edge $-1 $531 1.5139535948975116 $620 7.3556271510167512 $527 $624 forward 7 unknown #
coedge $-1 $625 $436 $623 $626 reversed $432 $-1 #
vertex $-1 $536 $627 #
vertex $-1 $528 $628 #
straight-curve $-1 -30.664945806584722 25.880168297169128 58.926030319985031 0 0 1 I I #
vertex $-1 $438 $629 #
point $-1 -44.763797891121833 21.723336876018831 6.818468302943165 #
coedge $-1 $619 $443 $630 $631 reversed $359 $-1 #
edge $-1 $632 -31.186267592056325 $530 -10.047874673704374 $524 $633 forward 7 unknown #
coedge $-1 $448 $445 $444 $538 forward $364 $-1 #
edge $-1 $447 -25.880168297169128 $634 25.880168297169128 $444 $635 forward 7 unknown #
straight-curve $-1 0 -25.880168297169128 -10.779362190194551 -1 0 0 I I #
point $-1 -51.803338724936673 -25.880168297169128 -10.779362190194551 #
edge $-1 $634 -51.803338724936673 $449 51.803338724936673 $459 $636 forward 7 unknown #
point $-1 51.803338724936673 25.880168297169128 -10.779362190194551 #
coedge $-1 $460 $459 $452 $544 reversed $461 $-1 #
edge $-1 $545 -10.779362190194551 $634 10.779362190194551 $543 $637 forward 7 unknown #
vertex $-1 $463 $638 #
straight-curve $-1 -51.803338724936673 0 10.779362190194551 0 -1 0 I I #
plane-surface $-1 0 25.880168297169128 0 0 -1 0 0 0 -1 forward_v I I I I #
straight-curve $-1 0 25.880168297169128 10.779362190194551 -1 0 0 I I #
face $-1 $639 $484 $17 $-1 $640 reversed single #
loop $-1 $-1 $556 $465 #
plane-surface $-1 0 -25.880168297169128 0 0 1 0 0 0 1 forward_v I I I I #
coedge $-1 $467 $566 $468 $555 forward $389 $-1 #
edge $-1 $480 -2.3658604662166152 $558 0.63413953378338483 $477 $641 forward 7 unknown #
coedge $-1 $469 $468 $573 $642 reversed $316 $-1 #
edge $-1 $643 -51.803338724936673 $558 51.803338724936673 $552 $644 forward 7 unknown #
coedge $-1 $574 $583 $469 $557 forward $550 $-1 #
edge $-1 $559 -51.803338724936673 $645 51.803338724936673 $556 $646 forward 7 unknown #
vertex $-1 $471 $647 #
vertex $-1 $584 $648 #
straight-curve $-1 51.803338724936673 -10.497915640509261 0.23172093243323033 0 -1 0 I I #
edge $-1 $567 5.6135786243586541 $564 15.382252656659867 $489 $649 forward 7 unknown #
coedge $-1 $495 $473 $478 $569 reversed $563 $-1 #
loop $-1 $-1 $473 $639 #
vertex $-1 $561 $650 #
straight-curve $-1 0 -25.880168297169128 3.2317209324332303 1 0 0 I I #
coedge $-1 $552 $475 $578 $651 reversed $389 $-1 #
vertex $-1 $561 $652 #
straight-curve $-1 0 -16.111494264867915 3.2317209324332303 -1 0 0 I I #
edge $-1 $497 -10.779362190194551 $479 -3.2317209324332303 $478 $653 forward 7 unknown #
point $-1 51.803338724936673 -25.880168297169128 3.2317209324332303 #
point $-1 51.803338724936673 -16.111494264867915 3.2317209324332303 #
coedge $-1 $483 $482 $654 $655 forward $484 $-1 #
coedge $-1 $578 $486 $554 $642 forward $324 $-1 #
coedge $-1 $654 $556 $486 $575 forward $550 $-1 #
edge $-1 $645 -0.23172093243323033 $576 10.779362190194551 $486 $579 forward 7 unknown #
vertex $-1 $487 $656 #
straight-curve $-1 -51.803338724936673 0 -10.779362190194551 0 1 0 I I #
coedge $-1 $489 $573 $566 $651 forward $324 $-1 #
straight-curve $-1 -51.803338724936673 -25.880168297169128 0 0 0 -1 I I #
point $-1 -51.803338724936673 -25.880168297169128 10.779362190194551 #
straight-curve $-1 0 -25.880168297169128 10.779362190194551 1 0 0 I I #
point $-1 51.803338724936673 -25.880168297169128 10.779362190194551 #
coedge $-1 $556 $654 $499 $584 reversed $550 $-1 #
edge $-1 $559 -0.23172093243323033 $585 10.779362190194551 $499 $653 forward 7 unknown #
vertex $-1 $584 $657 #
straight-curve $-1 51.803338724936673 0 -10.779362190194551 0 -1 0 I I #
face $-1 $658 $611 $18 $-1 $659 reversed single #
loop $-1 $-1 $660 $502 #
plane-surface $-1 0 -16.111494264867915 1.7317209324332303 0 -1 0 0 0 -1 forward_v I I I I #
coedge $-1 $661 $662 $663 $664 reversed $503 $-1 #
coedge $-1 $665 $505 $666 $667 reversed $415 $-1 #
coedge $-1 $505 $665 $668 $669 reversed $415 $-1 #
coedge $-1 $670 $671 $505 $594 forward $611 $-1 #
edge $-1 $672 -15.382252656659867 $673 -5.6135786243586541 $593 $674 forward 7 unknown #
coedge $-1 $675 $676 $506 $596 forward $677 $-1 #
edge $-1 $599 -51.803338724936673 $612 51.803338724936673 $506 $678 forward 7 unknown #
coedge $-1 $679 $507 $676 $680 reversed $598 $-1 #
loop $-1 $-1 $511 $681 #
vertex $-1 $596 $682 #
straight-curve $-1 -51.803338724936673 25.880168297169128 0 0 0 -1 I I #
point $-1 -51.803338724936673 25.880168297169128 5.7012727327900876 #
coedge $-1 $511 $683 $515 $607 reversed $598 $-1 #
vertex $-1 $607 $684 #
straight-curve $-1 -51.803338724936673 0.38910685616440421 27.860314849414202 0 0.75470957328743171 -0.6560590369687036 I I #
straight-curve $-1 -20.617071132880348 20.038494741049881 10.779362190194551 -1 0 0 I I #
coedge $-1 $516 $515 $685 $686 forward $336 $-1 #
edge $-1 $603 -20.038494741049888 $687 25.880168297169128 $602 $688 forward 7 unknown #
coedge $-1 $671 $517 $516 $609 reversed $611 $-1 #
edge $-1 $689 -25.880168297169128 $519 25.880168297169128 $608 $690 forward 7 unknown #
coedge $-1 $517 $691 $675 $692 reversed $611 $-1 #
loop $-1 $-1 $593 $587 #
vertex $-1 $692 $693 #
straight-curve $-1 51.803338724936673 25.880168297169128 0 0 0 -1 I I #
point $-1 51.803338724936673 25.880168297169128 10.779362190194551 #
face $-1 $694 $695 $19 $-1 $696 forward single #
loop $-1 $-1 $697 $521 #
plane-surface $-1 0 -20.995831281018521 3.2317209324332303 0 0 1 1 0 0 forward_v I I I I #
coedge $-1 $524 $698 $699 $700 reversed $432 $-1 #
coedge $-1 $525 $535 $622 $701 reversed $359 $-1 #
vertex $-1 $701 $702 #
straight-curve $-1 -30.664945806584722 -13.183853247157721 39.659109312047576 0 -0.75470957328743171 0.6560590369687036 I I #
coedge $-1 $703 $527 $619 $701 forward $522 $-1 #
coedge $-1 $527 $704 $529 $626 forward $522 $-1 #
straight-curve $-1 -30.664945806584722 27.394121892066639 10.779362190194547 0 -1 0 I I #
coedge $-1 $698 $529 $705 $706 forward $432 $-1 #
edge $-1 $707 -51.803338724936673 $531 30.664945806584722 $529 $708 forward 7 unknown #
point $-1 -30.664945806584722 25.880168297169128 5.7012727327900805 #
point $-1 -30.664945806584722 25.880168297169128 10.779362190194551 #
point $-1 -45.763797891121833 21.067277839050124 6.0637587296557331 #
coedge $-1 $699 $709 $535 $631 forward $710 $-1 #
edge $-1 $711 26.035694498076815 $632 33.775987933965737 $630 $712 forward 7 unknown #
vertex $-1 $700 $713 #
straight-curve $-1 -20.617071132880348 25.880168297169128 5.7012727327900823 1 0 0 I I #
vertex $-1 $541 $714 #
straight-curve $-1 -51.803338724936673 0 -10.779362190194551 0 1 0 I I #
straight-curve $-1 0 25.880168297169128 -10.779362190194551 1 0 0 I I #
straight-curve $-1 -51.803338724936673 25.880168297169128 0 0 0 -1 I I #
point $-1 -51.803338724936673 25.880168297169128 10.779362190194551 #
face $-1 $404 $563 $17 $-1 $551 reversed single #
plane-surface $-1 0 0 -10.779362190194551 0 0 1 1 0 0 forward_v I I I I #
straight-curve $-1 51.803338724936673 -16.111494264867915 0.86586046621661517 0 0 -1 I I #
edge $-1 $645 -15.382252656659867 $643 -5.6135786243586541 $573 $715 forward 7 unknown #
vertex $-1 $642 $716 #
straight-curve $-1 0 -16.111494264867915 0.23172093243323033 1 0 0 I I #
vertex $-1 $575 $717 #
straight-curve $-1 0 -25.880168297169128 0.23172093243323033 -1 0 0 I I #
point $-1 51.803338724936673 -16.111494264867915 0.23172093243323033 #
point $-1 51.803338724936673 -25.880168297169128 0.23172093243323033 #
straight-curve $-1 -51.803338724936673 -10.497915640509261 3.2317209324332303 0 -1 0 I I #
point $-1 -51.803338724936673 -25.880168297169128 3.2317209324332303 #
edge $-1 $643 -0.63413953378338483 $567 2.3658604662166152 $578 $718 forward 7 unknown #
point $-1 -51.803338724936673 -16.111494264867915 3.2317209324332303 #
straight-curve $-1 51.803338724936673 -25.880168297169128 0 0 0 -1 I I #
coedge $-1 $583 $574 $572 $655 reversed $550 $-1 #
edge $-1 $585 -51.803338724936673 $576 51.803338724936673 $654 $719 forward 7 unknown #
point $-1 -51.803338724936673 -25.880168297169128 -10.779362190194551 #
point $-1 51.803338724936673 -25.880168297169128 -10.779362190194551 #
face $-1 $720 $721 $18 $-1 $722 reversed single #
plane-surface $-1 51.803338724936673 0 0 -1 0 0 0 0 1 forward_v I I I I #
coedge $-1 $668 $723 $670 $724 reversed $588 $-1 #
coedge $-1 $725 $590 $723 $726 reversed $503 $-1 #
coedge $-1 $590 $725 $727 $728 reversed $503 $-1 #
coedge $-1 $691 $670 $590 $664 forward $611 $-1 #
edge $-1 $729 5.6135786243586541 $730 15.382252656659867 $663 $731 forward 7 unknown #
coedge $-1 $592 $591 $732 $733 reversed $415 $-1 #
coedge $-1 $734 $735 $591 $667 forward $736 $-1 #
edge $-1 $737 -51.803338724936673 $672 51.803338724936673 $666 $738 forward 7 unknown #
coedge $-1 $739 $660 $592 $669 forward $588 $-1 #
edge $-1 $673 -51.803338724936673 $740 51.803338724936673 $668 $741 forward 7 unknown #
coedge $-1 $663 $593 $660 $724 forward $611 $-1 #
coedge $-1 $593 $608 $734 $742 forward $611 $-1 #
vertex $-1 $667 $743 #
vertex $-1 $594 $744 #
straight-curve $-1 51.803338724936673 -10.497915640509261 3.2317209324332303 0 1 0 I I #
coedge $-1 $745 $595 $610 $692 forward $677 $-1 #
coedge $-1 $595 $745 $597 $680 forward $677 $-1 #
loop $-1 $-1 $675 $720 #
straight-curve $-1 0 25.880168297169128 -10.779362190194551 1 0 0 I I #
coedge $-1 $746 $597 $747 $748 reversed $598 $-1 #
edge $-1 $749 -25.880168297169128 $599 25.880168297169128 $597 $750 forward 7 unknown #
face $-1 $-1 $598 $18 $-1 $751 reversed single #
point $-1 -51.803338724936673 25.880168297169128 -10.779362190194551 #
coedge $-1 $602 $732 $735 $752 reversed $598 $-1 #
point $-1 -51.803338724936665 20.038494741049888 10.779362190194551 #
coedge $-1 $735 $734 $606 $686 reversed $736 $-1 #
edge $-1 $687 -51.803338724936673 $689 51.803338724936673 $685 $753 forward 7 unknown #
vertex $-1 $607 $754 #
straight-curve $-1 -51.803338724936673 0 10.779362190194551 0 -1 0 I I #
vertex $-1 $609 $755 #
straight-curve $-1 51.803338724936673 0 10.779362190194551 0 1 0 I I #
coedge $-1 $610 $663 $756 $757 forward $611 $-1 #
edge $-1 $612 -25.880168297169128 $758 25.880168297169128 $610 $759 forward 7 unknown #
point $-1 51.803338724936673 25.880168297169128 -10.779362190194551 #
face $-1 $760 $761 $19 $-1 $762 forward single #
loop $-1 $-1 $763 $615 #
plane-surface $-1 0 -20.995831281018521 0.23172093243323033 0 0 1 1 0 0 forward_v I I I I #
coedge $-1 $764 $765 $766 $767 reversed $616 $-1 #
coedge $-1 $618 $625 $768 $769 reversed $432 $-1 #
coedge $-1 $770 $630 $618 $700 forward $710 $-1 #
edge $-1 $632 -5.7012727327900876 $771 10.779362190194551 $618 $772 forward 7 unknown #
edge $-1 $620 10.047874673704374 $711 31.186267592056318 $622 $773 forward 7 unknown #
point $-1 -30.664945806584722 20.038494741049888 10.779362190194551 #
coedge $-1 $774 $622 $709 $775 forward $522 $-1 #
coedge $-1 $623 $774 $776 $777 forward $522 $-1 #
coedge $-1 $776 $778 $625 $706 reversed $779 $-1 #
edge $-1 $707 -10.779362190194551 $780 10.779362190194551 $705 $781 forward 7 unknown #
vertex $-1 $777 $782 #
straight-curve $-1 0 25.880168297169128 10.779362190194551 -1 0 0 I I #
coedge $-1 $630 $783 $703 $775 reversed $710 $-1 #
loop $-1 $-1 $630 $784 #
vertex $-1 $775 $785 #
straight-curve $-1 -51.803338724936673 0.38910685616440421 27.860314849414202 0 0.75470957328743171 -0.6560590369687036 I I #
point $-1 -51.803338724936673 25.880168297169128 5.7012727327900876 #
point $-1 -51.803338724936673 25.880168297169128 -10.779362190194551 #
straight-curve $-1 -51.803338724936673 -10.497915640509261 0.23172093243323033 0 1 0 I I #
point $-1 -51.803338724936673 -16.111494264867915 0.23172093243323033 #
point $-1 -51.803338724936673 -25.880168297169128 0.23172093243323033 #
straight-curve $-1 -51.803338724936673 -16.111494264867915 0.86586046621661517 0 0 1 I I #
straight-curve $-1 0 -25.880168297169128 -10.779362190194551 -1 0 0 I I #
face $-1 $786 $677 $18 $-1 $787 reversed single #
loop $-1 $-1 $727 $658 #
plane-surface $-1 0 -25.880168297169128 0 0 1 0 0 0 1 forward_v I I I I #
coedge $-1 $660 $739 $661 $726 forward $588 $-1 #
edge $-1 $673 -2.3658604662166152 $729 0.63413953378338483 $670 $788 forward 7 unknown #
coedge $-1 $662 $661 $746 $789 reversed $503 $-1 #
edge $-1 $790 -51.803338724936673 $729 51.803338724936673 $723 $791 forward 7 unknown #
coedge $-1 $747 $756 $662 $728 forward $721 $-1 #
edge $-1 $730 -51.803338724936673 $792 51.803338724936673 $727 $793 forward 7 unknown #
vertex $-1 $664 $794 #
vertex $-1 $757 $795 #
straight-curve $-1 51.803338724936673 -10.497915640509261 0.23172093243323033 0 -1 0 I I #
coedge $-1 $683 $796 $665 $733 forward $598 $-1 #
edge $-1 $740 5.6135786243586541 $737 15.382252656659867 $732 $797 forward 7 unknown #
coedge $-1 $685 $666 $671 $742 reversed $736 $-1 #
coedge $-1 $666 $685 $683 $752 forward $736 $-1 #
loop $-1 $-1 $666 $786 #
vertex $-1 $733 $798 #
straight-curve $-1 0 -25.880168297169128 3.2317209324332303 1 0 0 I I #
coedge $-1 $723 $668 $796 $799 reversed $588 $-1 #
vertex $-1 $733 $800 #
straight-curve $-1 0 -16.111494264867915 3.2317209324332303 -1 0 0 I I #
edge $-1 $689 -10.779362190194551 $672 -3.2317209324332303 $671 $801 forward 7 unknown #
point $-1 51.803338724936673 -25.880168297169128 3.2317209324332303 #
point $-1 51.803338724936673 -16.111494264867915 3.2317209324332303 #
coedge $-1 $676 $675 $802 $803 forward $677 $-1 #
coedge $-1 $796 $679 $725 $789 forward $598 $-1 #
coedge $-1 $802 $727 $679 $748 forward $721 $-1 #
edge $-1 $792 -0.23172093243323033 $749 10.779362190194551 $679 $804 forward 7 unknown #
vertex $-1 $680 $805 #
straight-curve $-1 -51.803338724936673 0 -10.779362190194551 0 1 0 I I #
plane-surface $-1 -51.803338724936673 0 0 1 0 0 0 0 -1 forward_v I I I I #
edge $-1 $687 -10.779362190194551 $737 -3.2317209324332303 $683 $804 forward 7 unknown #
straight-curve $-1 0 -25.880168297169128 10.779362190194551 1 0 0 I I #
point $-1 -51.803338724936673 -25.880168297169128 10.779362190194551 #
point $-1 51.803338724936673 -25.880168297169128 10.779362190194551 #
coedge $-1 $727 $802 $691 $757 reversed $721 $-1 #
edge $-1 $730 -0.23172093243323033 $758 10.779362190194551 $691 $801 forward 7 unknown #
vertex $-1 $757 $806 #
straight-curve $-1 51.803338724936673 0 -10.779362190194551 0 -1 0 I I #
face $-1 $807 $779 $19 $-1 $808 reversed single #
loop $-1 $-1 $809 $694 #
plane-surface $-1 0 -16.111494264867915 1.7317209324332303 0 -1 0 0 0 -1 forward_v I I I I #
coedge $-1 $810 $811 $812 $813 reversed $695 $-1 #
coedge $-1 $814 $697 $815 $816 reversed $616 $-1 #
coedge $-1 $697 $814 $817 $818 reversed $616 $-1 #
coedge $-1 $819 $820 $697 $767 forward $779 $-1 #
edge $-1 $821 -15.382252656659867 $822 -5.6135786243586541 $766 $823 forward 7 unknown #
coedge $-1 $824 $825 $698 $769 forward $826 $-1 #
edge $-1 $771 -51.803338724936673 $780 51.803338724936673 $698 $827 forward 7 unknown #
coedge $-1 $828 $699 $825 $829 reversed $710 $-1 #
vertex $-1 $769 $830 #
straight-curve $-1 -51.803338724936673 25.880168297169128 0 0 0 -1 I I #
straight-curve $-1 -20.617071132880348 20.038494741049881 10.779362190194551 -1 0 0 I I #
coedge $-1 $704 $703 $831 $832 forward $522 $-1 #
edge $-1 $711 -20.038494741049888 $833 25.880168297169128 $709 $834 forward 7 unknown #
coedge $-1 $820 $705 $704 $777 reversed $779 $-1 #
edge $-1 $835 -25.880168297169128 $707 25.880168297169128 $776 $836 forward 7 unknown #
coedge $-1 $705 $837 $824 $838 reversed $779 $-1 #
loop $-1 $-1 $766 $760 #
vertex $-1 $838 $839 #
straight-curve $-1 51.803338724936673 25.880168297169128 0 0 0 -1 I I #
point $-1 51.803338724936673 25.880168297169128 10.779362190194551 #
coedge $-1 $709 $840 $841 $842 reversed $710 $-1 #
face $-1 $-1 $710 $19 $-1 $843 reversed single #
point $-1 -51.803338724936665 20.038494741049888 10.779362190194551 #
face $-1 $681 $736 $18 $-1 $722 reversed single #
plane-surface $-1 0 0 -10.779362190194551 0 0 1 1 0 0 forward_v I I I I #
straight-curve $-1 51.803338724936673 -16.111494264867915 0.86586046621661517 0 0 -1 I I #
edge $-1 $792 -15.382252656659867 $790 -5.6135786243586541 $746 $844 forward 7 unknown #
vertex $-1 $789 $845 #
straight-curve $-1 0 -16.111494264867915 0.23172093243323033 1 0 0 I I #
vertex $-1 $748 $846 #
straight-curve $-1 0 -25.880168297169128 0.23172093243323033 -1 0 0 I I #
point $-1 51.803338724936673 -16.111494264867915 0.23172093243323033 #
point $-1 51.803338724936673 -25.880168297169128 0.23172093243323033 #
coedge $-1 $732 $746 $739 $799 forward $598 $-1 #
straight-curve $-1 -51.803338724936673 -10.497915640509261 3.2317209324332303 0 -1 0 I I #
point $-1 -51.803338724936673 -25.880168297169128 3.2317209324332303 #
edge $-1 $790 -0.63413953378338483 $740 2.3658604662166152 $796 $847 forward 7 unknown #
point $-1 -51.803338724936673 -16.111494264867915 3.2317209324332303 #
straight-curve $-1 51.803338724936673 -25.880168297169128 0 0 0 -1 I I #
coedge $-1 $756 $747 $745 $803 reversed $721 $-1 #
edge $-1 $758 -51.803338724936673 $749 51.803338724936673 $802 $848 forward 7 unknown #
straight-curve $-1 -51.803338724936673 -25.880168297169128 0 0 0 -1 I I #
point $-1 -51.803338724936673 -25.880168297169128 -10.779362190194551 #
point $-1 51.803338724936673 -25.880168297169128 -10.779362190194551 #
face $-1 $849 $850 $19 $-1 $851 reversed single #
plane-surface $-1 51.803338724936673 0 0 -1 0 0 0 0 1 forward_v I I I I #
coedge $-1 $817 $852 $819 $853 reversed $761 $-1 #
coedge $-1 $854 $763 $852 $855 reversed $695 $-1 #
coedge $-1 $763 $854 $856 $857 reversed $695 $-1 #
coedge $-1 $837 $819 $763 $813 forward $779 $-1 #
edge $-1 $858 5.6135786243586541 $859 15.382252656659867 $812 $860 forward 7 unknown #
coedge $-1 $765 $764 $840 $861 reversed $616 $-1 #
coedge $-1 $862 $841 $764 $816 forward $863 $-1 #
edge $-1 $864 -51.803338724936673 $821 51.803338724936673 $815 $865 forward 7 unknown #
coedge $-1 $866 $809 $765 $818 forward $761 $-1 #
edge $-1 $822 -51.803338724936673 $867 51.803338724936673 $817 $868 forward 7 unknown #
coedge $-1 $812 $766 $809 $853 forward $779 $-1 #
coedge $-1 $766 $776 $862 $869 forward $779 $-1 #
vertex $-1 $816 $870 #
vertex $-1 $767 $871 #
straight-curve $-1 51.803338724936673 -10.497915640509261 3.2317209324332303 0 1 0 I I #
coedge $-1 $872 $768 $778 $838 forward $826 $-1 #
coedge $-1 $768 $872 $770 $829 forward $826 $-1 #
loop $-1 $-1 $824 $849 #
straight-curve $-1 0 25.880168297169128 -10.779362190194551 1 0 0 I I #
coedge $-1 $873 $770 $874 $875 reversed $710 $-1 #
edge $-1 $876 -25.880168297169128 $771 25.880168297169128 $770 $877 forward 7 unknown #
point $-1 -51.803338724936673 25.880168297169128 -10.779362190194551 #
coedge $-1 $841 $862 $774 $832 reversed $863 $-1 #
edge $-1 $833 -51.803338724936673 $835 51.803338724936673 $831 $878 forward 7 unknown #
vertex $-1 $775 $879 #
straight-curve $-1 -51.803338724936673 0 10.779362190194551 0 -1 0 I I #
vertex $-1 $777 $880 #
straight-curve $-1 51.803338724936673 0 10.779362190194551 0 1 0 I I #
coedge $-1 $778 $812 $881 $882 forward $779 $-1 #
edge $-1 $780 -25.880168297169128 $883 25.880168297169128 $778 $884 forward 7 unknown #
point $-1 51.803338724936673 25.880168297169128 -10.779362190194551 #
coedge $-1 $783 $885 $814 $861 forward $710 $-1 #
coedge $-1 $815 $831 $783 $842 forward $863 $-1 #
edge $-1 $833 -10.779362190194551 $864 -3.2317209324332303 $783 $886 forward 7 unknown #
plane-surface $-1 -51.803338724936673 0 0 1 0 0 0 0 -1 forward_v I I I I #
straight-curve $-1 -51.803338724936673 -10.497915640509261 0.23172093243323033 0 1 0 I I #
point $-1 -51.803338724936673 -16.111494264867915 0.23172093243323033 #
point $-1 -51.803338724936673 -25.880168297169128 0.23172093243323033 #
straight-curve $-1 -51.803338724936673 -16.111494264867915 0.86586046621661517 0 0 1 I I #
straight-curve $-1 0 -25.880168297169128 -10.779362190194551 -1 0 0 I I #
face $-1 $887 $826 $19 $-1 $888 reversed single #
loop $-1 $-1 $856 $807 #
plane-surface $-1 0 -25.880168297169128 0 0 1 0 0 0 1 forward_v I I I I #
coedge $-1 $809 $866 $810 $855 forward $761 $-1 #
edge $-1 $822 -2.3658604662166152 $858 0.63413953378338483 $819 $889 forward 7 unknown #
coedge $-1 $811 $810 $873 $890 reversed $695 $-1 #
edge $-1 $891 -51.803338724936673 $858 51.803338724936673 $852 $892 forward 7 unknown #
coedge $-1 $874 $881 $811 $857 forward $850 $-1 #
edge $-1 $859 -51.803338724936673 $893 51.803338724936673 $856 $894 forward 7 unknown #
vertex $-1 $813 $895 #
vertex $-1 $882 $896 #
straight-curve $-1 51.803338724936673 -10.497915640509261 0.23172093243323033 0 -1 0 I I #
edge $-1 $867 5.6135786243586541 $864 15.382252656659867 $840 $897 forward 7 unknown #
coedge $-1 $831 $815 $820 $869 reversed $863 $-1 #
loop $-1 $-1 $815 $887 #
vertex $-1 $861 $898 #
straight-curve $-1 0 -25.880168297169128 3.2317209324332303 1 0 0 I I #
coedge $-1 $852 $817 $885 $899 reversed $761 $-1 #
vertex $-1 $861 $900 #
straight-curve $-1 0 -16.111494264867915 3.2317209324332303 -1 0 0 I I #
edge $-1 $835 -10.779362190194551 $821 -3.2317209324332303 $820 $901 forward 7 unknown #
point $-1 51.803338724936673 -25.880168297169128 3.2317209324332303 #
point $-1 51.803338724936673 -16.111494264867915 3.2317209324332303 #
coedge $-1 $825 $824 $902 $903 forward $826 $-1 #
coedge $-1 $885 $828 $854 $890 forward $710 $-1 #
coedge $-1 $902 $856 $828 $875 forward $850 $-1 #
edge $-1 $893 -0.23172093243323033 $876 10.779362190194551 $828 $886 forward 7 unknown #
vertex $-1 $829 $904 #
straight-curve $-1 -51.803338724936673 0 -10.779362190194551 0 1 0 I I #
straight-curve $-1 0 -25.880168297169128 10.779362190194551 1 0 0 I I #
point $-1 -51.803338724936673 -25.880168297169128 10.779362190194551 #
point $-1 51.803338724936673 -25.880168297169128 10.779362190194551 #
coedge $-1 $856 $902 $837 $882 reversed $850 $-1 #
edge $-1 $859 -0.23172093243323033 $883 10.779362190194551 $837 $901 forward 7 unknown #
vertex $-1 $882 $905 #
straight-curve $-1 51.803338724936673 0 -10.779362190194551 0 -1 0 I I #
coedge $-1 $840 $873 $866 $899 forward $710 $-1 #
straight-curve $-1 -51.803338724936673 -25.880168297169128 0 0 0 -1 I I #
face $-1 $784 $863 $19 $-1 $851 reversed single #
plane-surface $-1 0 0 -10.779362190194551 0 0 1 1 0 0 forward_v I I I I #
straight-curve $-1 51.803338724936673 -16.111494264867915 0.86586046621661517 0 0 -1 I I #
edge $-1 $893 -15.382252656659867 $891 -5.6135786243586541 $873 $906 forward 7 unknown #
vertex $-1 $890 $907 #
straight-curve $-1 0 -16.111494264867915 0.23172093243323033 1 0 0 I I #
vertex $-1 $875 $908 #
straight-curve $-1 0 -25.880168297169128 0.23172093243323033 -1 0 0 I I #
point $-1 51.803338724936673 -16.111494264867915 0.23172093243323033 #
point $-1 51.803338724936673 -25.880168297169128 0.23172093243323033 #
straight-curve $-1 -51.803338724936673 -10.497915640509261 3.2317209324332303 0 -1 0 I I #
point $-1 -51.803338724936673 -25.880168297169128 3.2317209324332303 #
edge $-1 $891 -0.63413953378338483 $867 2.3658604662166152 $885 $909 forward 7 unknown #
point $-1 -51.803338724936673 -16.111494264867915 3.2317209324332303 #
straight-curve $-1 51.803338724936673 -25.880168297169128 0 0 0 -1 I I #
coedge $-1 $881 $874 $872 $903 reversed $850 $-1 #
edge $-1 $883 -51.803338724936673 $876 51.803338724936673 $902 $910 forward 7 unknown #
point $-1 -51.803338724936673 -25.880168297169128 -10.779362190194551 #
point $-1 51.803338724936673 -25.880168297169128 -10.779362190194551 #
straight-curve $-1 -51.803338724936673 -10.497915640509261 0.23172093243323033 0 1 0 I I #
point $-1 -51.803338724936673 -16.111494264867915 0.23172093243323033 #
point $-1 -51.803338724936673 -25.880168297169128 0.23172093243323033 #
straight-curve $-1 -51.803338724936673 -16.111494264867915 0.86586046621661517 0 0 1 I I #
straight-curve $-1 0 -25.880168297169128 -10.779362190194551 -1 0 0 I I #
End-of-ACIS-data 