500 0 6 0           
7 Unknown 11 ACIS 5.0 NT 24 Thu Mar 25 22:08:54 1999 
-1 9.9999999999999995e-007 1e-010 
body $-1 $6 $-1 $7 #
body $-1 $8 $-1 $9 #
body $-1 $10 $-1 $11 #
body $-1 $12 $-1 $13 #
body $-1 $14 $-1 $15 #
body $-1 $16 $-1 $17 #
lump $-1 $-1 $18 $0 #
transform $-1 1 0 0 0 1 0 0 0 1 46.20502334665975 19.88901554293335 4.3316135630065391 1 rotate no_reflect no_shear #
lump $-1 $-1 $19 $1 #
transform $-1 1 0 0 0 1 0 0 0 1 46.20502334665975 19.88901554293335 4.3316135630065391 1 rotate no_reflect no_shear #
lump $-1 $-1 $20 $2 #
transform $-1 1 0 0 0 1 0 0 0 1 46.20502334665975 19.88901554293335 4.3316135630065391 1 rotate no_reflect no_shear #
lump $-1 $-1 $21 $3 #
transform $-1 1 0 0 0 1 0 0 0 1 46.20502334665975 19.88901554293335 4.3316135630065391 1 rotate no_reflect no_shear #
lump $-1 $-1 $22 $4 #
transform $-1 1 0 0 0 1 0 0 0 1 46.20502334665975 19.88901554293335 4.3316135630065391 1 rotate no_reflect no_shear #
lump $-1 $-1 $23 $5 #
transform $-1 1 0 0 0 1 0 0 0 1 46.20502334665975 19.88901554293335 4.3316135630065391 1 rotate no_reflect no_shear #
shell $-1 $-1 $-1 $24 $-1 $6 #
shell $-1 $-1 $-1 $25 $-1 $8 #
shell $-1 $-1 $-1 $26 $-1 $10 #
shell $-1 $-1 $-1 $27 $-1 $12 #
shell $-1 $-1 $-1 $28 $-1 $14 #
shell $-1 $-1 $-1 $29 $-1 $16 #
face $-1 $30 $31 $18 $-1 $32 forward single #
face $-1 $33 $34 $19 $-1 $35 reversed single #
face $-1 $36 $37 $20 $-1 $38 reversed single #
face $-1 $39 $40 $21 $-1 $41 forward single #
face $-1 $42 $43 $22 $-1 $44 reversed single #
face $-1 $45 $46 $23 $-1 $47 forward single #
face $-1 $48 $49 $18 $-1 $50 reversed single #
loop $-1 $-1 $51 $24 #
plane-surface $-1 0 0 4.3316135630065391 0 0 1 1 0 0 forward_v I I I I #
face $-1 $52 $53 $19 $-1 $54 reversed single #
loop $-1 $-1 $55 $25 #
plane-surface $-1 -43.785497195200648 0 1.3316135630065391 0 0 1 1 0 0 forward_v I I I I #
face $-1 $56 $57 $20 $-1 $58 reversed single #
loop $-1 $-1 $59 $26 #
plane-surface $-1 -38.117574947579925 38.586576397391724 99.836625014533709 1 0 0 0 -0.55919291073839883 -0.82903756765294845 forward_v I I I I #
face $-1 $60 $61 $21 $-1 $62 forward single #
loop $-1 $63 $64 $27 #
cone-surface $-1 -27.982983526250521 16.964308593187859 2.0021745467401342 0 -0.55919291073839883 -0.82903756765294845 1 0 0 1 I I 0 1 1 forward I I I I #
face $-1 $65 $66 $22 $-1 $67 reversed single #
loop $-1 $-1 $68 $28 #
plane-surface $-1 22.68744440783933 38.586576397391724 99.836625014533709 1 0 0 0 -0.55919291073839883 -0.82903756765294845 forward_v I I I I #
face $-1 $69 $70 $23 $-1 $71 forward single #
loop $-1 $72 $73 $29 #
cone-surface $-1 32.822035829168733 16.964308593187859 2.0021745467401342 0 -0.55919291073839883 -0.82903756765294845 1 0 0 1 I I 0 1 1 forward I I I I #
face $-1 $74 $75 $18 $-1 $76 reversed single #
loop $-1 $-1 $77 $30 #
plane-surface $-1 0 0 -4.3316135630065391 0 0 1 1 0 0 forward_v I I I I #
coedge $-1 $78 $79 $80 $81 forward $31 $-1 #
face $-1 $82 $83 $19 $-1 $84 reversed single #
loop $-1 $-1 $85 $33 #
plane-surface $-1 -41.365971043741546 0 2.8316135630065391 -1 0 0 0 0 1 forward_v I I I I #
coedge $-1 $86 $87 $88 $89 forward $34 $-1 #
face $-1 $90 $91 $20 $-1 $92 reversed single #
loop $-1 $-1 $93 $36 #
plane-surface $-1 -27.982983526250521 -13.088466594516959 23.225224677208715 0 0.55919291073839883 0.82903756765294845 1 0 0 forward_v I I I I #
coedge $-1 $94 $95 $96 $97 reversed $37 $-1 #
face $-1 $-1 $98 $21 $-1 $99 forward single #
loop $-1 $100 $101 $39 #
cone-surface $-1 -27.982983526250521 16.243281325549766 0.93320768272032506 0 -0.55919291073839883 -0.82903756765294845 0.5 0 0 1 I I -0.70710678118654746 0.70710678118654746 0.5 forward I I I I #
loop $-1 $-1 $102 $27 #
coedge $-1 $64 $64 $103 $104 reversed $40 $-1 #
face $-1 $105 $106 $22 $-1 $107 reversed single #
loop $-1 $-1 $108 $42 #
plane-surface $-1 32.822035829168733 -13.088466594516959 23.225224677208715 0 0.55919291073839883 0.82903756765294845 1 0 0 forward_v I I I I #
coedge $-1 $109 $110 $111 $112 reversed $43 $-1 #
face $-1 $-1 $113 $23 $-1 $114 forward single #
loop $-1 $115 $116 $45 #
cone-surface $-1 32.822035829168733 16.243281325549766 0.93320768272032506 0 -0.55919291073839883 -0.82903756765294845 0.5 0 0 1 I I -0.70710678118654746 0.70710678118654746 0.5 forward I I I I #
loop $-1 $-1 $117 $29 #
coedge $-1 $73 $73 $118 $119 reversed $46 $-1 #
face $-1 $120 $121 $18 $-1 $122 reversed single #
loop $-1 $-1 $123 $48 #
plane-surface $-1 0 -19.88901554293335 0 0 1 0 0 0 1 forward_v I I I I #
coedge $-1 $124 $125 $126 $127 forward $49 $-1 #
coedge $-1 $128 $51 $129 $130 forward $31 $-1 #
coedge $-1 $51 $128 $131 $132 forward $31 $-1 #
coedge $-1 $133 $134 $51 $81 reversed $135 $-1 #
edge $-1 $136 -19.88901554293335 $137 19.88901554293335 $80 $138 forward 7 unknown #
face $-1 $139 $140 $19 $-1 $141 reversed single #
loop $-1 $-1 $142 $52 #
plane-surface $-1 0 19.88901554293335 0 0 -1 0 0 0 -1 forward_v I I I I #
coedge $-1 $88 $143 $144 $145 reversed $53 $-1 #
coedge $-1 $146 $55 $147 $148 reversed $34 $-1 #
coedge $-1 $55 $146 $149 $150 reversed $34 $-1 #
coedge $-1 $151 $85 $55 $89 reversed $53 $-1 #
edge $-1 $152 -19.88901554293335 $153 19.88901554293335 $88 $154 forward 7 unknown #
face $-1 $155 $156 $20 $-1 $157 forward single #
loop $-1 $-1 $158 $56 #
plane-surface $-1 -17.848392104921118 38.586576397391724 99.836625014533709 -1 0 0 0 0.55919291073839883 0.82903756765294845 forward_v I I I I #
coedge $-1 $159 $160 $161 $162 reversed $57 $-1 #
coedge $-1 $95 $59 $163 $164 reversed $37 $-1 #
coedge $-1 $59 $94 $159 $165 reversed $37 $-1 #
coedge $-1 $161 $166 $59 $97 forward $156 $-1 #
edge $-1 $167 -0.59572734423748841 $168 4.370824930715731 $96 $169 forward 7 unknown #
loop $-1 $-1 $103 $60 #
plane-surface $-1 -27.982983526250521 -13.088466594516959 23.225224677208715 0 0.55919291073839883 0.82903756765294845 1 0 0 forward_v I I I I #
loop $-1 $-1 $170 $39 #
coedge $-1 $101 $101 $102 $171 reversed $61 $-1 #
coedge $-1 $102 $102 $101 $171 forward $63 $-1 #
coedge $-1 $103 $103 $64 $104 forward $98 $-1 #
edge $-1 $172 -1.986652303068577e-015 $172 6.2831853071795987 $103 $173 forward 7 unknown #
face $-1 $174 $175 $22 $-1 $176 forward single #
loop $-1 $-1 $177 $65 #
plane-surface $-1 42.956627250498137 38.586576397391724 99.836625014533709 -1 0 0 0 0.55919291073839883 0.82903756765294845 forward_v I I I I #
coedge $-1 $178 $179 $180 $181 reversed $66 $-1 #
coedge $-1 $110 $68 $182 $183 reversed $43 $-1 #
coedge $-1 $68 $109 $178 $184 reversed $43 $-1 #
coedge $-1 $180 $185 $68 $112 forward $175 $-1 #
edge $-1 $186 -0.59572734423748841 $187 4.370824930715731 $111 $188 forward 7 unknown #
loop $-1 $-1 $118 $69 #
plane-surface $-1 32.822035829168733 -13.088466594516959 23.225224677208715 0 0.55919291073839883 0.82903756765294845 1 0 0 forward_v I I I I #
loop $-1 $-1 $189 $45 #
coedge $-1 $116 $116 $117 $190 reversed $70 $-1 #
coedge $-1 $117 $117 $116 $190 forward $72 $-1 #
coedge $-1 $118 $118 $73 $119 forward $113 $-1 #
edge $-1 $191 -1.986652303068577e-015 $191 6.2831853071795987 $118 $192 forward 7 unknown #
face $-1 $193 $194 $18 $-1 $195 reversed single #
loop $-1 $-1 $196 $74 #
plane-surface $-1 -46.20502334665975 0 0 1 0 0 0 0 -1 forward_v I I I I #
coedge $-1 $197 $131 $198 $199 forward $75 $-1 #
coedge $-1 $200 $77 $197 $201 forward $49 $-1 #
coedge $-1 $77 $200 $202 $203 forward $49 $-1 #
coedge $-1 $134 $133 $77 $127 reversed $135 $-1 #
edge $-1 $204 -19.88901554293335 $205 19.88901554293335 $126 $206 forward 7 unknown #
coedge $-1 $79 $78 $207 $208 forward $31 $-1 #
coedge $-1 $209 $210 $78 $130 reversed $194 $-1 #
edge $-1 $137 -46.20502334665975 $211 46.20502334665975 $129 $212 forward 7 unknown #
coedge $-1 $123 $213 $79 $132 reversed $75 $-1 #
edge $-1 $214 -46.20502334665975 $136 46.20502334665975 $131 $215 forward 7 unknown #
coedge $-1 $126 $80 $213 $216 forward $135 $-1 #
coedge $-1 $80 $126 $209 $217 reversed $135 $-1 #
loop $-1 $-1 $133 $193 #
vertex $-1 $81 $218 #
vertex $-1 $81 $219 #
straight-curve $-1 46.20502334665975 0 4.3316135630065391 0 1 0 I I #
face $-1 $220 $221 $19 $-1 $222 forward single #
loop $-1 $-1 $223 $82 #
plane-surface $-1 -46.20502334665975 0 0 1 0 0 0 0 -1 forward_v I I I I #
coedge $-1 $149 $224 $151 $225 forward $83 $-1 #
coedge $-1 $85 $151 $226 $227 reversed $53 $-1 #
coedge $-1 $228 $147 $85 $145 forward $229 $-1 #
edge $-1 $153 -0.084193218496730449 $230 2.9158067815032696 $144 $231 forward 7 unknown #
coedge $-1 $87 $86 $223 $232 reversed $34 $-1 #
coedge $-1 $144 $233 $86 $148 forward $229 $-1 #
edge $-1 $234 -24.312274749059426 $153 -19.473222446141222 $147 $235 forward 7 unknown #
coedge $-1 $236 $142 $87 $150 forward $83 $-1 #
edge $-1 $152 19.473222446141222 $237 24.312274749059426 $149 $238 forward 7 unknown #
coedge $-1 $143 $88 $142 $225 reversed $53 $-1 #
vertex $-1 $150 $239 #
vertex $-1 $148 $240 #
straight-curve $-1 -41.365971043741546 0 1.3316135630065391 0 -1 0 I I #
face $-1 $-1 $241 $20 $-1 $242 reversed single #
loop $-1 $-1 $96 $90 #
plane-surface $-1 0 0 4.3316135630065391 0 0 1 1 0 0 forward_v I I I I #
coedge $-1 $243 $244 $245 $246 reversed $91 $-1 #
coedge $-1 $247 $93 $95 $165 forward $57 $-1 #
coedge $-1 $93 $247 $243 $248 forward $57 $-1 #
coedge $-1 $245 $96 $93 $162 forward $156 $-1 #
edge $-1 $168 -24.126083184454664 $249 -3.8569003417958569 $161 $250 forward 7 unknown #
coedge $-1 $251 $252 $94 $164 forward $241 $-1 #
edge $-1 $253 -48.936680816406451 $167 -45.586698944260313 $163 $254 forward 7 unknown #
edge $-1 $168 33.787286554212002 $253 39.778031085866708 $95 $255 forward 7 unknown #
coedge $-1 $96 $245 $251 $256 forward $156 $-1 #
vertex $-1 $164 $257 #
vertex $-1 $97 $258 #
straight-curve $-1 -38.117574947579925 19.293288198695862 4.3316135630065418 0 -1 0 I I #
coedge $-1 $170 $170 $-1 $259 reversed $100 $-1 #
edge $-1 $260 0 $260 6.2831853071796004 $101 $261 forward 7 unknown #
vertex $-1 $104 $262 #
ellipse-curve $-1 -27.982983526250521 17.40573940545675 2.6566226269334647 0 0.55919291073839883 0.82903756765294845 1 0 0 1 I I #
face $-1 $-1 $263 $22 $-1 $264 reversed single #
loop $-1 $-1 $111 $105 #
plane-surface $-1 0 0 4.3316135630065391 0 0 1 1 0 0 forward_v I I I I #
coedge $-1 $265 $266 $267 $268 reversed $106 $-1 #
coedge $-1 $269 $108 $110 $184 forward $66 $-1 #
coedge $-1 $108 $269 $265 $270 forward $66 $-1 #
coedge $-1 $267 $111 $108 $181 forward $175 $-1 #
edge $-1 $187 6.2764264932549629 $271 26.54560933591377 $180 $272 forward 7 unknown #
coedge $-1 $273 $274 $109 $183 forward $263 $-1 #
edge $-1 $275 -48.936680816406451 $186 -45.586698944260313 $182 $276 forward 7 unknown #
edge $-1 $187 33.787286554212002 $275 39.778031085866708 $110 $277 forward 7 unknown #
coedge $-1 $111 $267 $273 $278 forward $175 $-1 #
vertex $-1 $112 $279 #
vertex $-1 $112 $280 #
straight-curve $-1 22.68744440783933 19.293288198695862 4.3316135630065418 0 -1 0 I I #
coedge $-1 $189 $189 $-1 $281 reversed $115 $-1 #
edge $-1 $282 0 $282 6.2831853071796004 $116 $283 forward 7 unknown #
vertex $-1 $119 $284 #
ellipse-curve $-1 32.822035829168733 17.40573940545675 2.6566226269334647 0 0.55919291073839883 0.82903756765294845 1 0 0 1 I I #
face $-1 $-1 $135 $18 $-1 $285 reversed single #
loop $-1 $-1 $209 $120 #
plane-surface $-1 0 19.88901554293335 0 0 -1 0 0 0 -1 forward_v I I I I #
coedge $-1 $286 $207 $210 $287 forward $121 $-1 #
coedge $-1 $213 $123 $124 $201 reversed $75 $-1 #
coedge $-1 $207 $286 $123 $199 reversed $121 $-1 #
edge $-1 $214 -4.3316135630065391 $288 4.3316135630065391 $198 $289 forward 7 unknown #
coedge $-1 $125 $124 $286 $290 forward $49 $-1 #
edge $-1 $205 -46.20502334665975 $288 46.20502334665975 $197 $291 forward 7 unknown #
coedge $-1 $210 $209 $125 $203 reversed $194 $-1 #
edge $-1 $292 -46.20502334665975 $204 46.20502334665975 $202 $293 forward 7 unknown #
vertex $-1 $127 $294 #
vertex $-1 $216 $295 #
straight-curve $-1 46.20502334665975 0 -4.3316135630065391 0 -1 0 I I #
coedge $-1 $196 $198 $128 $208 reversed $121 $-1 #
edge $-1 $211 -19.88901554293335 $214 19.88901554293335 $207 $296 forward 7 unknown #
coedge $-1 $202 $129 $134 $217 forward $194 $-1 #
coedge $-1 $129 $202 $196 $287 reversed $194 $-1 #
vertex $-1 $130 $297 #
straight-curve $-1 0 19.88901554293335 4.3316135630065391 -1 0 0 I I #
coedge $-1 $131 $197 $133 $216 reversed $75 $-1 #
vertex $-1 $208 $298 #
straight-curve $-1 0 -19.88901554293335 4.3316135630065391 1 0 0 I I #
edge $-1 $136 -4.3316135630065391 $205 4.3316135630065391 $133 $299 forward 7 unknown #
edge $-1 $137 -4.3316135630065391 $204 4.3316135630065391 $134 $300 forward 7 unknown #
point $-1 46.20502334665975 -19.88901554293335 4.3316135630065391 #
point $-1 46.20502334665975 19.88901554293335 4.3316135630065391 #
face $-1 $-1 $229 $19 $-1 $301 reversed single #
loop $-1 $-1 $226 $139 #
plane-surface $-1 0 0 4.3316135630065391 0 0 1 1 0 0 forward_v I I I I #
coedge $-1 $302 $303 $146 $232 forward $140 $-1 #
coedge $-1 $142 $236 $304 $305 reversed $83 $-1 #
edge $-1 $306 -2.9158067815032696 $152 0.084193218496730449 $142 $307 forward 7 unknown #
coedge $-1 $304 $308 $143 $227 forward $221 $-1 #
edge $-1 $230 -19.88901554293335 $306 19.88901554293335 $226 $309 forward 7 unknown #
coedge $-1 $233 $144 $308 $310 reversed $229 $-1 #
loop $-1 $-1 $144 $220 #
vertex $-1 $145 $311 #
straight-curve $-1 -41.365971043741546 -19.88901554293335 1.4158067815032696 0 0 1 I I #
edge $-1 $237 -19.88901554293335 $234 19.88901554293335 $223 $312 forward 7 unknown #
coedge $-1 $147 $228 $302 $313 forward $229 $-1 #
vertex $-1 $232 $314 #
straight-curve $-1 -21.892748597600324 -19.88901554293335 1.3316135630065391 1 0 0 I I #
coedge $-1 $224 $149 $303 $315 reversed $83 $-1 #
vertex $-1 $232 $316 #
straight-curve $-1 -21.892748597600324 19.88901554293335 1.3316135630065391 -1 0 0 I I #
point $-1 -41.365971043741546 19.88901554293335 1.3316135630065391 #
point $-1 -41.365971043741546 -19.88901554293335 1.3316135630065391 #
loop $-1 $-1 $163 $155 #
plane-surface $-1 0 19.88901554293335 0 0 -1 0 0 0 -1 forward_v I I I I #
coedge $-1 $244 $158 $160 $248 reversed $91 $-1 #
coedge $-1 $158 $243 $317 $318 reversed $91 $-1 #
coedge $-1 $166 $161 $158 $246 forward $156 $-1 #
edge $-1 $249 -4.370824930715731 $319 0.59572734423748841 $245 $320 forward 7 unknown #
coedge $-1 $160 $159 $252 $321 reversed $57 $-1 #
edge $-1 $322 -39.778031085866708 $249 -33.787286554212002 $243 $323 forward 7 unknown #
vertex $-1 $162 $324 #
straight-curve $-1 -13.991491763125261 14.922463267980138 4.3316135630065364 1 0 0 I I #
coedge $-1 $317 $163 $166 $256 reversed $241 $-1 #
coedge $-1 $163 $317 $247 $321 forward $241 $-1 #
vertex $-1 $164 $325 #
straight-curve $-1 -38.117574947579925 19.88901554293335 49.918312507266855 0 0 1 I I #
straight-curve $-1 -38.117574947579925 -13.088466594516959 23.225224677208715 0 0.82903756765294845 -0.55919291073839883 I I #
edge $-1 $319 17.848392104921118 $167 38.117574947579925 $251 $326 forward 7 unknown #
point $-1 -38.117574947579925 19.88901554293335 4.3316135630065391 #
point $-1 -38.117574947579925 14.922463267980131 4.3316135630065382 #
edge $-1 $327 1 $327 0 $170 $-1 forward 7 unknown #
vertex $-1 $171 $328 #
ellipse-curve $-1 -27.982983526250521 16.522877780918964 1.3477264665467992 0 0.55919291073839883 0.82903756765294845 1 0 0 1 I I #
point $-1 -26.982983526250521 17.40573940545675 2.6566226269334683 #
loop $-1 $-1 $182 $174 #
plane-surface $-1 0 19.88901554293335 0 0 -1 0 0 0 -1 forward_v I I I I #
coedge $-1 $266 $177 $179 $270 reversed $106 $-1 #
coedge $-1 $177 $265 $329 $330 reversed $106 $-1 #
coedge $-1 $185 $180 $177 $268 forward $175 $-1 #
edge $-1 $271 -4.370824930715731 $331 0.59572734423748841 $267 $332 forward 7 unknown #
coedge $-1 $179 $178 $274 $333 reversed $66 $-1 #
edge $-1 $334 -39.778031085866708 $271 -33.787286554212002 $265 $335 forward 7 unknown #
vertex $-1 $181 $336 #
straight-curve $-1 16.411017914584367 14.922463267980138 4.3316135630065364 1 0 0 I I #
coedge $-1 $329 $182 $185 $278 reversed $263 $-1 #
coedge $-1 $182 $329 $269 $333 forward $263 $-1 #
vertex $-1 $183 $337 #
straight-curve $-1 22.68744440783933 19.88901554293335 49.918312507266855 0 0 1 I I #
straight-curve $-1 22.68744440783933 -13.088466594516959 23.225224677208715 0 0.82903756765294845 -0.55919291073839883 I I #
edge $-1 $331 -42.956627250498137 $186 -22.68744440783933 $273 $338 forward 7 unknown #
point $-1 22.68744440783933 19.88901554293335 4.3316135630065391 #
point $-1 22.68744440783933 14.922463267980131 4.3316135630065382 #
edge $-1 $339 1 $339 0 $189 $-1 forward 7 unknown #
vertex $-1 $190 $340 #
ellipse-curve $-1 32.822035829168733 16.522877780918964 1.3477264665467992 0 0.55919291073839883 0.82903756765294845 1 0 0 1 I I #
point $-1 33.822035829168733 17.40573940545675 2.6566226269334683 #
plane-surface $-1 46.20502334665975 0 0 -1 0 0 0 0 1 forward_v I I I I #
coedge $-1 $198 $196 $200 $290 reversed $121 $-1 #
edge $-1 $211 -4.3316135630065391 $292 4.3316135630065391 $210 $341 forward 7 unknown #
vertex $-1 $290 $342 #
straight-curve $-1 -46.20502334665975 -19.88901554293335 0 0 0 -1 I I #
edge $-1 $288 -19.88901554293335 $292 19.88901554293335 $286 $343 forward 7 unknown #
straight-curve $-1 0 -19.88901554293335 -4.3316135630065391 -1 0 0 I I #
vertex $-1 $203 $344 #
straight-curve $-1 0 19.88901554293335 -4.3316135630065391 1 0 0 I I #
point $-1 46.20502334665975 19.88901554293335 -4.3316135630065391 #
point $-1 46.20502334665975 -19.88901554293335 -4.3316135630065391 #
straight-curve $-1 -46.20502334665975 0 4.3316135630065391 0 -1 0 I I #
point $-1 -46.20502334665975 19.88901554293335 4.3316135630065391 #
point $-1 -46.20502334665975 -19.88901554293335 4.3316135630065391 #
straight-curve $-1 46.20502334665975 -19.88901554293335 0 0 0 -1 I I #
straight-curve $-1 46.20502334665975 19.88901554293335 0 0 0 -1 I I #
plane-surface $-1 0 -19.88901554293335 0 0 1 0 0 0 1 forward_v I I I I #
coedge $-1 $345 $223 $233 $313 reversed $140 $-1 #
coedge $-1 $223 $345 $236 $315 forward $140 $-1 #
coedge $-1 $346 $226 $224 $305 forward $221 $-1 #
edge $-1 $306 41.365971043741546 $347 46.20502334665975 $224 $348 forward 7 unknown #
vertex $-1 $305 $349 #
straight-curve $-1 -41.365971043741546 19.88901554293335 1.4158067815032696 0 0 -1 I I #
coedge $-1 $226 $346 $228 $310 forward $221 $-1 #
straight-curve $-1 -41.365971043741546 0 4.3316135630065391 0 1 0 I I #
edge $-1 $350 -46.20502334665975 $230 -41.365971043741546 $228 $351 forward 7 unknown #
point $-1 -41.365971043741546 -19.88901554293335 4.3316135630065391 #
straight-curve $-1 -46.20502334665975 0 1.3316135630065391 0 -1 0 I I #
edge $-1 $350 -4.3316135630065391 $234 -1.3316135630065391 $302 $352 forward 7 unknown #
point $-1 -46.20502334665975 -19.88901554293335 1.3316135630065391 #
edge $-1 $347 -4.3316135630065391 $237 -1.3316135630065391 $236 $353 forward 7 unknown #
point $-1 -46.20502334665975 19.88901554293335 1.3316135630065391 #
coedge $-1 $252 $251 $244 $318 forward $241 $-1 #
edge $-1 $319 45.586698944260313 $322 48.936680816406451 $317 $354 forward 7 unknown #
vertex $-1 $256 $355 #
straight-curve $-1 -17.848392104921118 19.293288198695862 4.3316135630065418 0 1 0 I I #
edge $-1 $322 3.8569003417958569 $253 24.126083184454664 $252 $356 forward 7 unknown #
vertex $-1 $321 $357 #
straight-curve $-1 -17.848392104921118 -13.088466594516959 23.225224677208715 0 -0.82903756765294845 0.55919291073839883 I I #
point $-1 -17.848392104921118 14.922463267980131 4.3316135630065382 #
point $-1 -38.117574947579925 19.88901554293335 0.98163169086040014 #
straight-curve $-1 0 19.88901554293335 4.3316135630065391 -1 0 0 I I #
vertex $-1 $259 $358 #
point $-1 -26.982983526250521 16.522877780918964 1.3477264665467992 #
coedge $-1 $274 $273 $266 $330 forward $263 $-1 #
edge $-1 $331 45.586698944260313 $334 48.936680816406451 $329 $359 forward 7 unknown #
vertex $-1 $278 $360 #
straight-curve $-1 42.956627250498137 19.293288198695862 4.3316135630065418 0 1 0 I I #
edge $-1 $334 -26.54560933591377 $275 -6.2764264932549629 $274 $361 forward 7 unknown #
vertex $-1 $333 $362 #
straight-curve $-1 42.956627250498137 -13.088466594516959 23.225224677208715 0 -0.82903756765294845 0.55919291073839883 I I #
point $-1 42.956627250498137 14.922463267980131 4.3316135630065382 #
point $-1 22.68744440783933 19.88901554293335 0.98163169086040014 #
straight-curve $-1 0 19.88901554293335 4.3316135630065391 -1 0 0 I I #
vertex $-1 $281 $363 #
point $-1 33.822035829168733 16.522877780918964 1.3477264665467992 #
straight-curve $-1 -46.20502334665975 19.88901554293335 0 0 0 -1 I I #
point $-1 -46.20502334665975 -19.88901554293335 -4.3316135630065391 #
straight-curve $-1 -46.20502334665975 0 -4.3316135630065391 0 1 0 I I #
point $-1 -46.20502334665975 19.88901554293335 -4.3316135630065391 #
coedge $-1 $303 $302 $346 $364 reversed $140 $-1 #
coedge $-1 $308 $304 $345 $364 forward $221 $-1 #
vertex $-1 $305 $365 #
straight-curve $-1 0 19.88901554293335 4.3316135630065391 -1 0 0 I I #
point $-1 -41.365971043741546 19.88901554293335 4.3316135630065391 #
vertex $-1 $364 $366 #
straight-curve $-1 0 -19.88901554293335 4.3316135630065391 1 0 0 I I #
straight-curve $-1 -46.20502334665975 -19.88901554293335 0 0 0 -1 I I #
straight-curve $-1 -46.20502334665975 19.88901554293335 0 0 0 -1 I I #
straight-curve $-1 -17.848392104921118 19.88901554293335 49.918312507266855 0 0 -1 I I #
point $-1 -17.848392104921118 19.88901554293335 4.3316135630065391 #
straight-curve $-1 -13.991491763125261 19.88901554293335 0.98163169086039836 -1 0 0 I I #
point $-1 -17.848392104921118 19.88901554293335 0.98163169086040014 #
point $-1 -27.982983526250521 15.963684870180566 0.51868889889385084 #
straight-curve $-1 42.956627250498137 19.88901554293335 49.918312507266855 0 0 -1 I I #
point $-1 42.956627250498137 19.88901554293335 4.3316135630065391 #
straight-curve $-1 16.411017914584367 19.88901554293335 0.98163169086039836 -1 0 0 I I #
point $-1 42.956627250498137 19.88901554293335 0.98163169086040014 #
point $-1 32.822035829168733 15.963684870180566 0.51868889889385084 #
edge $-1 $347 -19.88901554293335 $350 19.88901554293335 $345 $367 forward 7 unknown #
point $-1 -46.20502334665975 19.88901554293335 4.3316135630065391 #
point $-1 -46.20502334665975 -19.88901554293335 4.3316135630065391 #
straight-curve $-1 -46.20502334665975 0 4.3316135630065391 0 -1 0 I I #
End-of-ACIS-data 