500 0 8 0           
7 Unknown 11 ACIS 5.0 NT 24 Fri Mar 26 18:43:26 1999 
-1 9.9999999999999995e-007 1e-010 
body $-1 $8 $-1 $9 #
body $-1 $10 $-1 $11 #
body $-1 $12 $-1 $13 #
body $-1 $14 $-1 $15 #
body $-1 $16 $-1 $17 #
body $-1 $18 $-1 $19 #
body $-1 $20 $-1 $21 #
body $-1 $22 $-1 $23 #
lump $-1 $-1 $24 $0 #
transform $-1 1 0 0 0 1 0 0 0 1 79.238258003479103 40.743365768786198 10.750170692789025 1 rotate no_reflect no_shear #
lump $-1 $-1 $25 $1 #
transform $-1 1 0 0 0 1 0 0 0 1 79.238258003479103 40.743365768786198 10.750170692789025 1 rotate no_reflect no_shear #
lump $-1 $-1 $26 $2 #
transform $-1 1 0 0 0 1 0 0 0 1 79.238258003479103 40.743365768786198 10.750170692789025 1 rotate no_reflect no_shear #
lump $-1 $-1 $27 $3 #
transform $-1 1 0 0 0 1 0 0 0 1 79.238258003479103 40.743365768786198 10.750170692789025 1 rotate no_reflect no_shear #
lump $-1 $-1 $28 $4 #
transform $-1 1 0 0 0 1 0 0 0 1 79.238258003479103 40.743365768786198 10.750170692789025 1 rotate no_reflect no_shear #
lump $-1 $-1 $29 $5 #
transform $-1 1 0 0 0 1 0 0 0 1 79.238258003479103 40.743365768786198 10.750170692789025 1 rotate no_reflect no_shear #
lump $-1 $-1 $30 $6 #
transform $-1 1 0 0 0 1 0 0 0 1 79.238258003479103 40.743365768786198 10.750170692789025 1 rotate no_reflect no_shear #
lump $-1 $-1 $31 $7 #
transform $-1 1 0 0 0 1 0 0 0 1 79.238258003479103 40.743365768786198 10.750170692789025 1 rotate no_reflect no_shear #
shell $-1 $-1 $-1 $32 $-1 $8 #
shell $-1 $-1 $-1 $33 $-1 $10 #
shell $-1 $-1 $-1 $34 $-1 $12 #
shell $-1 $-1 $-1 $35 $-1 $14 #
shell $-1 $-1 $-1 $36 $-1 $16 #
shell $-1 $-1 $-1 $37 $-1 $18 #
shell $-1 $-1 $-1 $38 $-1 $20 #
shell $-1 $-1 $-1 $39 $-1 $22 #
face $-1 $40 $41 $24 $-1 $42 forward single #
face $-1 $43 $44 $25 $-1 $45 forward single #
face $-1 $46 $47 $26 $-1 $48 reversed single #
face $-1 $49 $50 $27 $-1 $51 forward single #
face $-1 $52 $53 $28 $-1 $54 forward single #
face $-1 $55 $56 $29 $-1 $57 reversed single #
face $-1 $58 $59 $30 $-1 $60 forward single #
face $-1 $61 $62 $31 $-1 $63 forward single #
face $-1 $64 $65 $24 $-1 $66 reversed single #
loop $-1 $-1 $67 $32 #
plane-surface $-1 0 0 10.750170692789025 0 0 1 1 0 0 forward_v I I I I #
face $-1 $68 $69 $25 $-1 $70 forward single #
loop $-1 $-1 $71 $33 #
plane-surface $-1 0 -40.743365768786198 0 0 1 0 0 0 1 forward_v I I I I #
face $-1 $72 $73 $26 $-1 $74 reversed single #
loop $-1 $-1 $75 $34 #
plane-surface $-1 87.059923293990664 -15.428839877122652 225.94578384360864 0 -1 0 -0.73135370988377701 0 -0.68199835119979291 forward_v I I I I #
face $-1 $76 $77 $27 $-1 $78 forward single #
loop $-1 $79 $80 $35 #
cone-surface $-1 72.108900820951376 -28.214883599426361 3.5289241077040248 -0.73135370988377701 0 -0.68199835119979291 1.7049958779994823 0 -1.8283842747094425 1 I I 0 1 2.5 forward I I I I #
face $-1 $81 $82 $28 $-1 $83 forward single #
loop $-1 $84 $85 $36 #
cone-surface $-1 72.108900820951376 -20.543257366044138 3.5289241077040248 -0.73135370988377701 0 -0.68199835119979291 1.7049958779994823 0 -1.8283842747094425 1 I I 0 1 2.5 forward I I I I #
face $-1 $86 $87 $29 $-1 $88 reversed single #
loop $-1 $-1 $89 $37 #
plane-surface $-1 -195.14064591462375 -33.329301088347847 110.04339593246398 0 1 0 -0.73135370988377701 0 0.68199835119979291 forward_v I I I I #
face $-1 $90 $91 $30 $-1 $92 forward single #
loop $-1 $93 $94 $38 #
cone-surface $-1 -72.108900820951376 -28.214883599426361 3.5289241077040248 0.73135370988377701 0 -0.68199835119979291 1.7049958779994823 0 1.8283842747094425 1 I I 0 1 2.5 forward I I I I #
face $-1 $95 $96 $31 $-1 $97 forward single #
loop $-1 $98 $99 $39 #
cone-surface $-1 -72.108900820951376 -20.543257366044138 3.5289241077040248 0.73135370988377701 0 -0.68199835119979291 1.7049958779994823 0 1.8283842747094425 1 I I 0 1 2.5 forward I I I I #
face $-1 $100 $101 $24 $-1 $102 reversed single #
loop $-1 $-1 $103 $40 #
plane-surface $-1 0 0 -10.750170692789025 0 0 1 1 0 0 forward_v I I I I #
coedge $-1 $104 $105 $106 $107 forward $41 $-1 #
face $-1 $108 $109 $25 $-1 $110 reversed single #
loop $-1 $-1 $111 $43 #
plane-surface $-1 0 0 10.750170692789025 0 0 1 1 0 0 forward_v I I I I #
coedge $-1 $112 $113 $114 $115 forward $44 $-1 #
face $-1 $116 $117 $26 $-1 $118 reversed single #
loop $-1 $-1 $119 $46 #
plane-surface $-1 -28.842464617153993 -24.379070482735248 117.86506122297556 0.73135370988377701 0 0.68199835119979291 0.68199835119979291 0 -0.73135370988377701 forward_v I I I I #
coedge $-1 $120 $121 $122 $123 reversed $47 $-1 #
face $-1 $-1 $124 $27 $-1 $125 forward single #
loop $-1 $126 $127 $49 #
cone-surface $-1 68.162588340093322 -28.214883599426361 -0.15107172590165696 -0.73135370988377701 0 -0.68199835119979291 0.85249793899974113 0 -0.91419213735472127 1 I I -0.70710678118654746 0.70710678118654746 1.25 forward I I I I #
loop $-1 $-1 $128 $35 #
coedge $-1 $80 $80 $129 $130 reversed $50 $-1 #
face $-1 $-1 $131 $28 $-1 $132 forward single #
loop $-1 $133 $134 $52 #
cone-surface $-1 68.162588340093322 -20.543257366044138 -0.15107172590165696 -0.73135370988377701 0 -0.68199835119979291 0.85249793899974113 0 -0.91419213735472127 1 I I -0.70710678118654746 0.70710678118654746 1.25 forward I I I I #
loop $-1 $-1 $135 $36 #
coedge $-1 $85 $85 $136 $137 reversed $53 $-1 #
face $-1 $138 $139 $29 $-1 $140 reversed single #
loop $-1 $-1 $141 $55 #
plane-surface $-1 -79.238258003479089 -24.379070482735248 1.9626733118308977 -0.73135370988377701 0 0.68199835119979291 0.68199835119979291 0 0.73135370988377701 forward_v I I I I #
coedge $-1 $142 $143 $144 $145 reversed $56 $-1 #
face $-1 $-1 $146 $30 $-1 $147 forward single #
loop $-1 $148 $149 $58 #
cone-surface $-1 -68.162588340093322 -28.214883599426361 -0.15107172590165696 0.73135370988377701 0 -0.68199835119979291 0.85249793899974113 0 0.91419213735472127 1 I I -0.70710678118654746 0.70710678118654746 1.25 forward I I I I #
loop $-1 $-1 $150 $38 #
coedge $-1 $94 $94 $151 $152 reversed $59 $-1 #
face $-1 $-1 $153 $31 $-1 $154 forward single #
loop $-1 $155 $156 $61 #
cone-surface $-1 -68.162588340093322 -20.543257366044138 -0.15107172590165696 0.73135370988377701 0 -0.68199835119979291 0.85249793899974113 0 0.91419213735472127 1 I I -0.70710678118654746 0.70710678118654746 1.25 forward I I I I #
loop $-1 $-1 $157 $39 #
coedge $-1 $99 $99 $158 $159 reversed $62 $-1 #
face $-1 $160 $161 $24 $-1 $162 reversed single #
loop $-1 $-1 $163 $64 #
plane-surface $-1 0 -40.743365768786198 0 0 1 0 0 0 1 forward_v I I I I #
coedge $-1 $164 $165 $166 $167 forward $65 $-1 #
coedge $-1 $168 $67 $169 $170 forward $41 $-1 #
coedge $-1 $67 $168 $171 $172 forward $41 $-1 #
coedge $-1 $173 $174 $67 $107 reversed $175 $-1 #
edge $-1 $176 -40.743365768786198 $177 40.743365768786198 $106 $178 forward 7 unknown #
face $-1 $179 $180 $25 $-1 $181 reversed single #
loop $-1 $-1 $182 $68 #
plane-surface $-1 -79.238258003479103 0 0 1 0 0 0 0 -1 forward_v I I I I #
coedge $-1 $183 $184 $113 $185 forward $69 $-1 #
coedge $-1 $186 $71 $187 $188 reversed $44 $-1 #
coedge $-1 $71 $186 $111 $185 reversed $44 $-1 #
coedge $-1 $189 $190 $71 $115 reversed $191 $-1 #
edge $-1 $192 -10.750170692789025 $193 10.750170692789025 $114 $194 forward 7 unknown #
face $-1 $195 $196 $26 $-1 $197 forward single #
loop $-1 $-1 $198 $72 #
plane-surface $-1 87.059923293990664 -33.329301088347847 225.94578384360864 0 1 0 0.73135370988377701 0 0.68199835119979291 forward_v I I I I #
coedge $-1 $199 $200 $201 $202 reversed $73 $-1 #
coedge $-1 $121 $75 $203 $204 reversed $47 $-1 #
coedge $-1 $75 $120 $199 $205 reversed $47 $-1 #
coedge $-1 $201 $206 $75 $123 forward $196 $-1 #
edge $-1 $207 -35.708296356483771 $208 -27.513822678434963 $122 $209 forward 7 unknown #
loop $-1 $-1 $129 $76 #
plane-surface $-1 -28.842464617153993 -24.379070482735248 117.86506122297556 0.73135370988377701 0 0.68199835119979291 0.68199835119979291 0 -0.73135370988377701 forward_v I I I I #
loop $-1 $-1 $210 $49 #
coedge $-1 $127 $127 $128 $211 reversed $77 $-1 #
coedge $-1 $128 $128 $127 $211 forward $79 $-1 #
coedge $-1 $129 $129 $80 $130 forward $124 $-1 #
edge $-1 $212 0 $212 6.2831853071796004 $129 $213 forward 7 unknown #
loop $-1 $-1 $136 $81 #
plane-surface $-1 -28.842464617153993 -24.379070482735248 117.86506122297556 0.73135370988377701 0 0.68199835119979291 0.68199835119979291 0 -0.73135370988377701 forward_v I I I I #
loop $-1 $-1 $214 $52 #
coedge $-1 $134 $134 $135 $215 reversed $82 $-1 #
coedge $-1 $135 $135 $134 $215 forward $84 $-1 #
coedge $-1 $136 $136 $85 $137 forward $131 $-1 #
edge $-1 $216 0 $216 6.2831853071796004 $136 $217 forward 7 unknown #
face $-1 $218 $219 $29 $-1 $220 reversed single #
loop $-1 $-1 $221 $86 #
plane-surface $-1 -195.14064591462375 -15.428839877122652 110.04339593246398 0 -1 0 0.73135370988377701 0 -0.68199835119979291 forward_v I I I I #
coedge $-1 $222 $223 $224 $225 reversed $87 $-1 #
coedge $-1 $143 $89 $226 $227 reversed $56 $-1 #
coedge $-1 $89 $142 $222 $228 reversed $56 $-1 #
coedge $-1 $224 $229 $89 $145 forward $230 $-1 #
edge $-1 $231 18.33206495383277 $232 26.526538631881579 $144 $233 forward 7 unknown #
loop $-1 $-1 $151 $90 #
plane-surface $-1 -79.238258003479089 -24.379070482735248 1.9626733118308977 -0.73135370988377701 0 0.68199835119979291 0.68199835119979291 0 0.73135370988377701 forward_v I I I I #
loop $-1 $-1 $234 $58 #
coedge $-1 $149 $149 $150 $235 reversed $91 $-1 #
coedge $-1 $150 $150 $149 $235 forward $93 $-1 #
coedge $-1 $151 $151 $94 $152 forward $146 $-1 #
edge $-1 $236 0 $236 6.2831853071796004 $151 $237 forward 7 unknown #
loop $-1 $-1 $158 $95 #
plane-surface $-1 -79.238258003479089 -24.379070482735248 1.9626733118308977 -0.73135370988377701 0 0.68199835119979291 0.68199835119979291 0 0.73135370988377701 forward_v I I I I #
loop $-1 $-1 $238 $61 #
coedge $-1 $156 $156 $157 $239 reversed $96 $-1 #
coedge $-1 $157 $157 $156 $239 forward $98 $-1 #
coedge $-1 $158 $158 $99 $159 forward $153 $-1 #
edge $-1 $240 0 $240 6.2831853071796004 $158 $241 forward 7 unknown #
face $-1 $242 $243 $24 $-1 $244 reversed single #
loop $-1 $-1 $245 $100 #
plane-surface $-1 -79.238258003479103 0 0 1 0 0 0 0 -1 forward_v I I I I #
coedge $-1 $246 $171 $247 $248 forward $101 $-1 #
coedge $-1 $249 $103 $246 $250 forward $65 $-1 #
coedge $-1 $103 $249 $251 $252 forward $65 $-1 #
coedge $-1 $174 $173 $103 $167 reversed $175 $-1 #
edge $-1 $253 -40.743365768786198 $254 40.743365768786198 $166 $255 forward 7 unknown #
coedge $-1 $105 $104 $256 $257 forward $41 $-1 #
coedge $-1 $258 $259 $104 $170 reversed $243 $-1 #
edge $-1 $177 -79.238258003479103 $260 79.238258003479103 $169 $261 forward 7 unknown #
coedge $-1 $163 $262 $105 $172 reversed $101 $-1 #
edge $-1 $263 -79.238258003479103 $176 79.238258003479103 $171 $264 forward 7 unknown #
coedge $-1 $166 $106 $262 $265 forward $175 $-1 #
coedge $-1 $106 $166 $258 $266 reversed $175 $-1 #
loop $-1 $-1 $173 $242 #
vertex $-1 $107 $267 #
vertex $-1 $107 $268 #
straight-curve $-1 79.238258003479103 0 10.750170692789025 0 1 0 I I #
face $-1 $269 $191 $25 $-1 $270 reversed single #
loop $-1 $-1 $271 $108 #
plane-surface $-1 -77.462988719267827 -48.157430449224556 0 0 1 0 0 0 1 forward_v I I I I #
coedge $-1 $272 $273 $186 $274 forward $109 $-1 #
coedge $-1 $275 $111 $273 $276 forward $69 $-1 #
coedge $-1 $111 $275 $189 $277 forward $69 $-1 #
edge $-1 $192 75.68771943505655 $278 79.238258003479103 $111 $279 forward 7 unknown #
coedge $-1 $113 $112 $182 $274 reversed $44 $-1 #
coedge $-1 $280 $281 $112 $188 forward $282 $-1 #
edge $-1 $283 -79.238258003479103 $193 -75.68771943505655 $187 $284 forward 7 unknown #
coedge $-1 $285 $114 $184 $277 reversed $191 $-1 #
coedge $-1 $114 $285 $280 $286 reversed $191 $-1 #
loop $-1 $-1 $285 $179 #
vertex $-1 $185 $287 #
vertex $-1 $286 $288 #
straight-curve $-1 -75.68771943505655 -40.743365768786198 0 0 0 -1 I I #
face $-1 $-1 $289 $26 $-1 $290 reversed single #
loop $-1 $-1 $122 $116 #
plane-surface $-1 0 0 10.750170692789025 0 0 1 1 0 0 forward_v I I I I #
coedge $-1 $291 $292 $293 $294 reversed $117 $-1 #
coedge $-1 $295 $119 $121 $205 forward $73 $-1 #
coedge $-1 $119 $295 $291 $296 forward $73 $-1 #
coedge $-1 $293 $122 $119 $202 forward $196 $-1 #
edge $-1 $208 3.2393046357550279 $297 21.139765846980225 $201 $298 forward 7 unknown #
coedge $-1 $299 $300 $120 $204 forward $289 $-1 #
edge $-1 $301 -111.01021860997344 $207 -102.22272122901529 $203 $302 forward 7 unknown #
edge $-1 $208 146.46112965942112 $301 158.47651600695821 $121 $303 forward 7 unknown #
coedge $-1 $122 $293 $299 $304 forward $196 $-1 #
vertex $-1 $204 $305 #
vertex $-1 $123 $306 #
straight-curve $-1 43.529961646995332 -15.428839877122652 10.750170692789027 -1 0 0 I I #
coedge $-1 $210 $210 $-1 $307 reversed $126 $-1 #
edge $-1 $308 0 $308 6.2831853071796004 $127 $309 forward 7 unknown #
vertex $-1 $130 $310 #
ellipse-curve $-1 75.141021164454699 -28.214883599426361 6.3564220023099587 0.73135370988377701 0 0.68199835119979291 1.7049958779994823 0 -1.8283842747094425 1 I I #
coedge $-1 $214 $214 $-1 $311 reversed $133 $-1 #
edge $-1 $312 0 $312 6.2831853071796004 $134 $313 forward 7 unknown #
vertex $-1 $137 $314 #
ellipse-curve $-1 75.141021164454699 -20.543257366044138 6.3564220023099587 0.73135370988377701 0 0.68199835119979291 1.7049958779994823 0 -1.8283842747094425 1 I I #
face $-1 $-1 $230 $29 $-1 $315 forward single #
loop $-1 $-1 $316 $138 #
plane-surface $-1 -79.238258003479103 0 0 1 0 0 0 0 -1 forward_v I I I I #
coedge $-1 $317 $318 $319 $320 reversed $139 $-1 #
coedge $-1 $321 $141 $143 $228 forward $87 $-1 #
coedge $-1 $141 $321 $317 $322 forward $87 $-1 #
coedge $-1 $319 $144 $141 $225 forward $230 $-1 #
edge $-1 $232 -21.139765846980225 $323 -3.2393046357550279 $224 $324 forward 7 unknown #
coedge $-1 $325 $326 $142 $227 forward $219 $-1 #
edge $-1 $327 -53.059024654401107 $231 -44.271527273442963 $226 $328 forward 7 unknown #
edge $-1 $232 -12.015386347537081 $327 2.0896906529347916e-014 $143 $329 forward 7 unknown #
coedge $-1 $144 $319 $325 $330 forward $230 $-1 #
loop $-1 $-1 $319 $218 #
vertex $-1 $227 $331 #
vertex $-1 $145 $332 #
straight-curve $-1 -97.570322957311873 -33.329301088347847 10.750170692789027 1 0 0 I I #
coedge $-1 $234 $234 $-1 $333 reversed $148 $-1 #
edge $-1 $334 0 $334 6.2831853071796004 $149 $335 forward 7 unknown #
vertex $-1 $152 $336 #
ellipse-curve $-1 -75.141021164454699 -28.214883599426361 6.3564220023099551 -0.73135370988377701 0 0.68199835119979291 1.7049958779994823 0 1.8283842747094425 1 I I #
coedge $-1 $238 $238 $-1 $337 reversed $155 $-1 #
edge $-1 $338 0 $338 6.2831853071796004 $156 $339 forward 7 unknown #
vertex $-1 $159 $340 #
ellipse-curve $-1 -75.141021164454699 -20.543257366044138 6.3564220023099551 -0.73135370988377701 0 0.68199835119979291 1.7049958779994823 0 1.8283842747094425 1 I I #
face $-1 $-1 $175 $24 $-1 $341 reversed single #
loop $-1 $-1 $258 $160 #
plane-surface $-1 0 40.743365768786198 0 0 -1 0 0 0 -1 forward_v I I I I #
coedge $-1 $342 $256 $259 $343 forward $161 $-1 #
coedge $-1 $262 $163 $164 $250 reversed $101 $-1 #
coedge $-1 $256 $342 $163 $248 reversed $161 $-1 #
edge $-1 $263 -10.750170692789025 $344 10.750170692789025 $247 $345 forward 7 unknown #
coedge $-1 $165 $164 $342 $346 forward $65 $-1 #
edge $-1 $254 -79.238258003479103 $344 79.238258003479103 $246 $347 forward 7 unknown #
coedge $-1 $259 $258 $165 $252 reversed $243 $-1 #
edge $-1 $348 -79.238258003479103 $253 79.238258003479103 $251 $349 forward 7 unknown #
vertex $-1 $167 $350 #
vertex $-1 $265 $351 #
straight-curve $-1 79.238258003479103 0 -10.750170692789025 0 -1 0 I I #
coedge $-1 $245 $247 $168 $257 reversed $161 $-1 #
edge $-1 $260 -40.743365768786198 $263 40.743365768786198 $256 $352 forward 7 unknown #
coedge $-1 $251 $169 $174 $266 forward $243 $-1 #
coedge $-1 $169 $251 $245 $343 reversed $243 $-1 #
vertex $-1 $170 $353 #
straight-curve $-1 0 40.743365768786198 10.750170692789025 -1 0 0 I I #
coedge $-1 $171 $246 $173 $265 reversed $101 $-1 #
vertex $-1 $257 $354 #
straight-curve $-1 0 -40.743365768786198 10.750170692789025 1 0 0 I I #
edge $-1 $176 -10.750170692789025 $254 10.750170692789025 $173 $355 forward 7 unknown #
edge $-1 $177 -10.750170692789025 $253 10.750170692789025 $174 $356 forward 7 unknown #
point $-1 79.238258003479103 -40.743365768786198 10.750170692789025 #
point $-1 79.238258003479103 40.743365768786198 10.750170692789025 #
face $-1 $-1 $282 $25 $-1 $357 reversed single #
plane-surface $-1 -75.68771943505655 -44.450398109005377 0 -1 0 0 0 0 1 forward_v I I I I #
coedge $-1 $358 $359 $360 $361 forward $180 $-1 #
coedge $-1 $360 $182 $281 $362 reversed $109 $-1 #
coedge $-1 $182 $360 $183 $276 reversed $109 $-1 #
edge $-1 $278 -10.750170692789025 $283 10.750170692789025 $182 $363 forward 7 unknown #
coedge $-1 $184 $183 $359 $364 forward $69 $-1 #
edge $-1 $278 40.743365768786198 $365 48.157430449224556 $273 $366 forward 7 unknown #
edge $-1 $367 -3.7070323402191789 $192 3.7070323402191789 $189 $368 forward 7 unknown #
vertex $-1 $276 $369 #
straight-curve $-1 0 -40.743365768786198 10.750170692789025 -1 0 0 I I #
coedge $-1 $370 $187 $190 $286 forward $282 $-1 #
coedge $-1 $187 $370 $272 $362 forward $282 $-1 #
loop $-1 $-1 $187 $269 #
vertex $-1 $274 $371 #
straight-curve $-1 0 -40.743365768786198 -10.750170692789025 1 0 0 I I #
coedge $-1 $190 $189 $372 $373 forward $191 $-1 #
edge $-1 $193 -3.7070323402191789 $374 3.7070323402191789 $190 $375 forward 7 unknown #
point $-1 -75.68771943505655 -40.743365768786198 10.750170692789025 #
point $-1 -75.68771943505655 -40.743365768786198 -10.750170692789025 #
loop $-1 $-1 $203 $195 #
plane-surface $-1 79.238258003479103 0 0 -1 0 0 0 0 1 forward_v I I I I #
coedge $-1 $292 $198 $200 $296 reversed $117 $-1 #
coedge $-1 $198 $291 $376 $377 reversed $117 $-1 #
coedge $-1 $206 $201 $198 $294 forward $196 $-1 #
edge $-1 $297 27.513822678434963 $378 35.708296356483771 $293 $379 forward 7 unknown #
coedge $-1 $200 $199 $300 $380 reversed $73 $-1 #
edge $-1 $381 -158.47651600695821 $297 -146.46112965942112 $291 $382 forward 7 unknown #
vertex $-1 $202 $383 #
straight-curve $-1 71.043784325430309 -12.189535241367624 10.750170692789013 0 -1 0 I I #
coedge $-1 $376 $203 $206 $304 reversed $289 $-1 #
coedge $-1 $203 $376 $295 $380 forward $289 $-1 #
vertex $-1 $204 $384 #
straight-curve $-1 79.238258003479103 -15.428839877122652 112.97289192180432 0 0 1 I I #
straight-curve $-1 -28.842464617153993 -15.428839877122652 117.86506122297556 0.68199835119979291 0 -0.73135370988377701 I I #
edge $-1 $378 -33.329301088347847 $207 -15.428839877122652 $299 $385 forward 7 unknown #
point $-1 79.238258003479103 -15.428839877122652 10.750170692789025 #
point $-1 71.043784325430295 -15.428839877122652 10.750170692789027 #
edge $-1 $386 1 $386 0 $210 $-1 forward 7 unknown #
vertex $-1 $211 $387 #
ellipse-curve $-1 69.07678047744804 -28.214883599426361 0.70142621309808417 0.73135370988377701 0 0.68199835119979291 1.7049958779994823 0 -1.8283842747094425 1 I I #
point $-1 76.846017042454193 -28.214883599426361 4.5280377276005224 #
edge $-1 $388 1 $388 0 $214 $-1 forward 7 unknown #
vertex $-1 $215 $389 #
ellipse-curve $-1 69.07678047744804 -20.543257366044138 0.70142621309808417 0.73135370988377701 0 0.68199835119979291 1.7049958779994823 0 -1.8283842747094425 1 I I #
point $-1 76.846017042454193 -20.543257366044138 4.5280377276005224 #
plane-surface $-1 0 0 10.750170692789025 0 0 1 1 0 0 forward_v I I I I #
coedge $-1 $326 $325 $318 $390 forward $219 $-1 #
coedge $-1 $318 $221 $223 $322 reversed $139 $-1 #
coedge $-1 $221 $317 $316 $390 reversed $139 $-1 #
coedge $-1 $229 $224 $221 $320 forward $230 $-1 #
edge $-1 $323 -26.526538631881579 $391 -18.33206495383277 $319 $392 forward 7 unknown #
coedge $-1 $223 $222 $326 $393 reversed $87 $-1 #
edge $-1 $394 -2.0896906529347916e-014 $323 12.015386347537081 $317 $395 forward 7 unknown #
vertex $-1 $225 $396 #
straight-curve $-1 -71.043784325430295 -12.189535241367624 10.750170692789023 0 1 0 I I #
coedge $-1 $316 $226 $229 $330 reversed $219 $-1 #
coedge $-1 $226 $316 $321 $393 forward $219 $-1 #
vertex $-1 $227 $397 #
straight-curve $-1 -79.238258003479103 -33.329301088347847 55.02169796623199 0 0 1 I I #
straight-curve $-1 -79.238258003479089 -33.329301088347847 1.9626733118308977 -0.68199835119979291 0 -0.73135370988377701 I I #
edge $-1 $391 15.428839877122652 $231 33.329301088347847 $325 $398 forward 7 unknown #
point $-1 -79.238258003479103 -33.329301088347847 10.750170692789025 #
point $-1 -71.043784325430295 -33.329301088347847 10.750170692789025 #
edge $-1 $399 1 $399 0 $234 $-1 forward 7 unknown #
vertex $-1 $235 $400 #
ellipse-curve $-1 -69.07678047744804 -28.214883599426361 0.70142621309808417 -0.73135370988377701 0 0.68199835119979291 1.7049958779994823 0 1.8283842747094425 1 I I #
point $-1 -73.436025286455234 -28.214883599426361 8.1848062770194066 #
edge $-1 $401 1 $401 0 $238 $-1 forward 7 unknown #
vertex $-1 $239 $402 #
ellipse-curve $-1 -69.07678047744804 -20.543257366044138 0.70142621309808417 -0.73135370988377701 0 0.68199835119979291 1.7049958779994823 0 1.8283842747094425 1 I I #
point $-1 -73.436025286455234 -20.543257366044138 8.1848062770194066 #
plane-surface $-1 79.238258003479103 0 0 -1 0 0 0 0 1 forward_v I I I I #
coedge $-1 $247 $245 $249 $346 reversed $161 $-1 #
edge $-1 $260 -10.750170692789025 $348 10.750170692789025 $259 $403 forward 7 unknown #
vertex $-1 $346 $404 #
straight-curve $-1 -79.238258003479103 -40.743365768786198 0 0 0 -1 I I #
edge $-1 $344 -40.743365768786198 $348 40.743365768786198 $342 $405 forward 7 unknown #
straight-curve $-1 0 -40.743365768786198 -10.750170692789025 -1 0 0 I I #
vertex $-1 $252 $406 #
straight-curve $-1 0 40.743365768786198 -10.750170692789025 1 0 0 I I #
point $-1 79.238258003479103 40.743365768786198 -10.750170692789025 #
point $-1 79.238258003479103 -40.743365768786198 -10.750170692789025 #
straight-curve $-1 -79.238258003479103 0 10.750170692789025 0 -1 0 I I #
point $-1 -79.238258003479103 40.743365768786198 10.750170692789025 #
point $-1 -79.238258003479103 -40.743365768786198 10.750170692789025 #
straight-curve $-1 79.238258003479103 -40.743365768786198 0 0 0 -1 I I #
straight-curve $-1 79.238258003479103 40.743365768786198 0 0 0 -1 I I #
plane-surface $-1 0 0 -10.750170692789025 0 0 1 1 0 0 forward_v I I I I #
coedge $-1 $372 $271 $370 $407 reversed $180 $-1 #
coedge $-1 $271 $372 $275 $364 reversed $180 $-1 #
coedge $-1 $273 $272 $271 $361 reversed $109 $-1 #
edge $-1 $365 -10.750170692789025 $408 10.750170692789025 $360 $409 forward 7 unknown #
edge $-1 $408 -48.157430449224556 $283 -40.743365768786198 $272 $410 forward 7 unknown #
straight-curve $-1 -79.238258003479103 -40.743365768786198 0 0 0 -1 I I #
edge $-1 $365 -1.7752692842112765 $367 1.7752692842112765 $359 $411 forward 7 unknown #
vertex $-1 $276 $412 #
straight-curve $-1 -79.238258003479103 0 10.750170692789025 0 -1 0 I I #
vertex $-1 $277 $413 #
straight-curve $-1 -75.68771943505655 -44.450398109005377 10.750170692789025 0 1 0 I I #
point $-1 -79.238258003479103 -40.743365768786198 10.750170692789025 #
coedge $-1 $281 $280 $358 $407 forward $282 $-1 #
point $-1 -79.238258003479103 -40.743365768786198 -10.750170692789025 #
coedge $-1 $359 $358 $285 $373 reversed $180 $-1 #
edge $-1 $367 -10.750170692789025 $374 10.750170692789025 $285 $414 forward 7 unknown #
vertex $-1 $373 $415 #
straight-curve $-1 -75.68771943505655 -44.450398109005377 -10.750170692789025 0 -1 0 I I #
coedge $-1 $300 $299 $292 $377 forward $289 $-1 #
edge $-1 $378 102.22272122901529 $381 111.01021860997344 $376 $416 forward 7 unknown #
vertex $-1 $304 $417 #
straight-curve $-1 43.529961646995332 -33.329301088347847 10.750170692789027 1 0 0 I I #
edge $-1 $381 -21.139765846980225 $301 -3.2393046357550279 $300 $418 forward 7 unknown #
vertex $-1 $380 $419 #
straight-curve $-1 -28.842464617153993 -33.329301088347847 117.86506122297556 -0.68199835119979291 0 0.73135370988377701 I I #
point $-1 71.043784325430295 -33.329301088347847 10.750170692789027 #
point $-1 79.238258003479118 -15.428839877122652 1.9626733118308834 #
straight-curve $-1 79.238258003479103 0 10.750170692789025 0 1 0 I I #
vertex $-1 $307 $420 #
point $-1 70.781776355447519 -28.214883599426361 -1.1269580616113584 #
vertex $-1 $311 $421 #
point $-1 70.781776355447519 -20.543257366044138 -1.1269580616113584 #
edge $-1 $391 44.271527273442963 $394 53.059024654401107 $316 $422 forward 7 unknown #
vertex $-1 $330 $423 #
straight-curve $-1 -97.570322957311873 -15.428839877122652 10.750170692789027 -1 0 0 I I #
edge $-1 $394 3.2393046357550279 $327 21.139765846980225 $326 $424 forward 7 unknown #
vertex $-1 $393 $425 #
straight-curve $-1 -79.238258003479089 -15.428839877122652 1.9626733118308977 0.68199835119979291 0 0.73135370988377701 I I #
point $-1 -71.043784325430295 -15.428839877122652 10.750170692789025 #
point $-1 -79.238258003479103 -33.329301088347847 1.9626733118308823 #
straight-curve $-1 -79.238258003479103 0 10.750170692789025 0 -1 0 I I #
vertex $-1 $333 $426 #
point $-1 -67.37178459944856 -28.214883599426361 2.5298104878075267 #
vertex $-1 $337 $427 #
point $-1 -67.37178459944856 -20.543257366044138 2.5298104878075267 #
straight-curve $-1 -79.238258003479103 40.743365768786198 0 0 0 -1 I I #
point $-1 -79.238258003479103 -40.743365768786198 -10.750170692789025 #
straight-curve $-1 -79.238258003479103 0 -10.750170692789025 0 1 0 I I #
point $-1 -79.238258003479103 40.743365768786198 -10.750170692789025 #
edge $-1 $374 -1.7752692842112765 $408 1.7752692842112765 $358 $428 forward 7 unknown #
vertex $-1 $362 $429 #
straight-curve $-1 -79.238258003479103 -48.157430449224556 0 0 0 -1 I I #
straight-curve $-1 -79.238258003479103 0 -10.750170692789025 0 1 0 I I #
straight-curve $-1 -77.462988719267827 -48.157430449224556 10.750170692789025 1 0 0 I I #
point $-1 -79.238258003479103 -48.157430449224556 10.750170692789025 #
point $-1 -75.68771943505655 -48.157430449224556 10.750170692789025 #
straight-curve $-1 -75.68771943505655 -48.157430449224556 0 0 0 -1 I I #
point $-1 -75.68771943505655 -48.157430449224556 -10.750170692789025 #
straight-curve $-1 79.238258003479103 -33.329301088347847 112.97289192180432 0 0 -1 I I #
point $-1 79.238258003479103 -33.329301088347847 10.750170692789025 #
straight-curve $-1 79.238258003479089 -12.189535241367624 1.9626733118309048 0 1 0 I I #
point $-1 79.238258003479118 -33.329301088347847 1.9626733118308834 #
point $-1 67.248396202738604 -28.214883599426361 -1.0035696649013981 #
point $-1 67.248396202738604 -20.543257366044138 -1.0035696649013981 #
straight-curve $-1 -79.238258003479103 -15.428839877122652 55.02169796623199 0 0 -1 I I #
point $-1 -79.238258003479103 -15.428839877122652 10.750170692789025 #
straight-curve $-1 -79.238258003479103 -12.189535241367624 1.962673311830887 0 -1 0 I I #
point $-1 -79.238258003479103 -15.428839877122652 1.9626733118308823 #
point $-1 -67.248396202738604 -28.214883599426361 -1.0035696649013981 #
point $-1 -67.248396202738604 -20.543257366044138 -1.0035696649013981 #
straight-curve $-1 -77.462988719267827 -48.157430449224556 -10.750170692789025 -1 0 0 I I #
point $-1 -79.238258003479103 -48.157430449224556 -10.750170692789025 #
End-of-ACIS-data 