500 0 5 0           
7 Unknown 11 ACIS 5.0 NT 24 Thu Mar 25 22:17:24 1999 
-1 9.9999999999999995e-007 1e-010 
body $-1 $5 $-1 $6 #
body $-1 $7 $-1 $8 #
body $-1 $9 $-1 $10 #
body $-1 $11 $-1 $12 #
body $-1 $13 $-1 $14 #
lump $-1 $-1 $15 $0 #
transform $-1 1 0 0 0 1 0 0 0 1 71.274147770622875 47.027842940471224 19.747330967199854 1 rotate no_reflect no_shear #
lump $-1 $-1 $16 $1 #
transform $-1 1 0 0 0 1 0 0 0 1 71.274147770622875 47.027842940471224 19.747330967199854 1 rotate no_reflect no_shear #
lump $-1 $-1 $17 $2 #
transform $-1 1 0 0 0 1 0 0 0 1 71.274147770622875 47.027842940471224 19.747330967199854 1 rotate no_reflect no_shear #
lump $-1 $-1 $18 $3 #
transform $-1 1 0 0 0 1 0 0 0 1 71.274147770622875 47.027842940471224 19.747330967199854 1 rotate no_reflect no_shear #
lump $-1 $-1 $19 $4 #
transform $-1 1 0 0 0 1 0 0 0 1 71.274147770622875 47.027842940471224 19.747330967199854 1 rotate no_reflect no_shear #
shell $-1 $-1 $-1 $20 $-1 $5 #
shell $-1 $-1 $-1 $21 $-1 $7 #
shell $-1 $-1 $-1 $22 $-1 $9 #
shell $-1 $-1 $-1 $23 $-1 $11 #
shell $-1 $-1 $-1 $24 $-1 $13 #
face $-1 $25 $26 $15 $-1 $27 forward single #
face $-1 $28 $29 $16 $-1 $30 forward single #
face $-1 $31 $32 $17 $-1 $33 forward single #
face $-1 $34 $35 $18 $-1 $36 reversed single #
face $-1 $37 $38 $19 $-1 $39 reversed single #
face $-1 $40 $41 $15 $-1 $42 reversed single #
loop $-1 $-1 $43 $20 #
plane-surface $-1 0 0 19.747330967199854 0 0 1 1 0 0 forward_v I I I I #
face $-1 $44 $45 $16 $-1 $46 reversed single #
loop $-1 $-1 $47 $21 #
plane-surface $-1 -79.412811923775052 0 14.261510577767968 0 0 1 1 0 0 forward_v I I I I #
face $-1 $48 $49 $17 $-1 $50 forward single #
loop $-1 $-1 $51 $22 #
plane-surface $-1 35.106939640794224 115.35250722612014 160.19546866120285 1 0 0 0 -0.83867057594974714 -0.54463902268945019 forward_v I I I I #
face $-1 $52 $53 $18 $-1 $54 reversed single #
loop $-1 $55 $56 $23 #
cone-surface $-1 45.440427677888124 38.634931580987654 9.6502344780701215 0 -0.83867057594974714 -0.54463902268945019 2.5 0 0 1 I I 0 1 2.5 forward I I I I #
face $-1 $57 $58 $19 $-1 $59 reversed single #
loop $-1 $60 $61 $24 #
cone-surface $-1 60.940659733528975 38.634931580987654 9.6502344780701215 0 -0.83867057594974714 -0.54463902268945019 2.5 0 0 1 I I 0 1 2.5 forward I I I I #
face $-1 $62 $63 $15 $-1 $64 reversed single #
loop $-1 $-1 $65 $25 #
plane-surface $-1 0 0 -19.747330967199854 0 0 1 1 0 0 forward_v I I I I #
coedge $-1 $66 $67 $68 $69 forward $26 $-1 #
face $-1 $70 $71 $16 $-1 $72 reversed single #
loop $-1 $-1 $73 $28 #
plane-surface $-1 -79.412811923775052 0 5.5782776287152949 0 0 1 1 0 0 forward_v I I I I #
coedge $-1 $74 $75 $76 $77 reversed $29 $-1 #
face $-1 $78 $79 $17 $-1 $80 forward single #
loop $-1 $-1 $81 $31 #
plane-surface $-1 53.190543705708549 -4.198553896111207 82.558104291571851 0 0.83867057594974714 0.54463902268945019 1 0 0 forward_v I I I I #
coedge $-1 $82 $83 $84 $85 reversed $32 $-1 #
face $-1 $86 $87 $18 $-1 $88 forward single #
loop $-1 $89 $90 $34 #
cone-surface $-1 45.440427677888124 34.411984510332154 6.9078206729518392 0 -0.83867057594974714 -0.54463902268945019 1.25 0 0 1 I I -0.70710678118654746 0.70710678118654746 1.25 forward I I I I #
loop $-1 $-1 $91 $23 #
coedge $-1 $56 $56 $92 $93 reversed $35 $-1 #
face $-1 $94 $95 $19 $-1 $96 reversed single #
loop $-1 $97 $98 $37 #
cone-surface $-1 60.940659733528975 34.411984510332154 6.9078206729518392 0 -0.83867057594974714 -0.54463902268945019 1.25 0 0 1 I I -0.70710678118654746 0.70710678118654746 1.25 forward I I I I #
loop $-1 $-1 $99 $24 #
coedge $-1 $61 $61 $100 $101 reversed $38 $-1 #
face $-1 $102 $103 $15 $-1 $104 reversed single #
loop $-1 $-1 $105 $40 #
plane-surface $-1 0 -47.027842940471224 0 0 1 0 0 0 1 forward_v I I I I #
coedge $-1 $106 $107 $108 $109 forward $41 $-1 #
coedge $-1 $110 $43 $111 $112 forward $26 $-1 #
coedge $-1 $43 $110 $113 $114 forward $26 $-1 #
coedge $-1 $115 $116 $43 $69 reversed $117 $-1 #
edge $-1 $118 -47.027842940471224 $119 47.027842940471224 $68 $120 forward 7 unknown #
face $-1 $121 $122 $16 $-1 $123 reversed single #
loop $-1 $-1 $124 $44 #
plane-surface $-1 -87.55147607692723 0 9.9198941032416315 1 0 0 0 0 -1 forward_v I I I I #
coedge $-1 $125 $126 $127 $128 reversed $45 $-1 #
coedge $-1 $129 $47 $130 $131 forward $29 $-1 #
coedge $-1 $47 $129 $132 $133 forward $29 $-1 #
coedge $-1 $134 $135 $47 $77 forward $136 $-1 #
edge $-1 $137 -47.027842940471224 $138 47.027842940471224 $76 $139 forward 7 unknown #
face $-1 $140 $141 $17 $-1 $142 reversed single #
loop $-1 $-1 $143 $48 #
plane-surface $-1 0 0 19.747330967199854 0 0 1 1 0 0 forward_v I I I I #
coedge $-1 $144 $145 $143 $146 reversed $49 $-1 #
coedge $-1 $83 $51 $145 $147 forward $32 $-1 #
coedge $-1 $51 $82 $148 $149 reversed $32 $-1 #
coedge $-1 $150 $143 $51 $85 forward $79 $-1 #
edge $-1 $151 -21.085015690119363 $152 -10.648410672588845 $84 $153 forward 7 unknown #
face $-1 $154 $155 $18 $-1 $156 forward single #
loop $-1 $-1 $157 $52 #
plane-surface $-1 35.106939640794224 115.35250722612014 160.19546866120285 1 0 0 0 -0.83867057594974714 -0.54463902268945019 forward_v I I I I #
loop $-1 $-1 $158 $34 #
coedge $-1 $90 $90 $91 $159 forward $53 $-1 #
coedge $-1 $91 $91 $90 $159 reversed $55 $-1 #
coedge $-1 $92 $92 $56 $93 forward $155 $-1 #
edge $-1 $160 5.9591128543683224e-016 $160 6.2831853071796013 $92 $161 forward 7 unknown #
face $-1 $162 $163 $19 $-1 $164 reversed single #
loop $-1 $165 $166 $57 #
cone-surface $-1 45.440427677888124 38.634931580987654 9.6502344780701215 0 -0.83867057594974714 -0.54463902268945019 2.5 0 0 1 I I 0 1 2.5 forward I I I I #
loop $-1 $-1 $167 $37 #
coedge $-1 $98 $98 $99 $168 forward $58 $-1 #
coedge $-1 $99 $99 $98 $168 reversed $60 $-1 #
coedge $-1 $100 $100 $61 $101 forward $169 $-1 #
edge $-1 $170 5.9591128543683224e-016 $170 6.2831853071796013 $100 $171 forward 7 unknown #
face $-1 $172 $173 $15 $-1 $174 reversed single #
loop $-1 $-1 $175 $62 #
plane-surface $-1 -71.274147770622875 0 0 1 0 0 0 0 -1 forward_v I I I I #
coedge $-1 $176 $113 $177 $178 forward $63 $-1 #
coedge $-1 $179 $65 $176 $180 forward $41 $-1 #
coedge $-1 $65 $179 $181 $182 forward $41 $-1 #
coedge $-1 $116 $115 $65 $109 reversed $117 $-1 #
edge $-1 $183 -47.027842940471224 $184 47.027842940471224 $108 $185 forward 7 unknown #
coedge $-1 $67 $66 $186 $187 forward $26 $-1 #
coedge $-1 $188 $189 $66 $112 reversed $173 $-1 #
edge $-1 $119 -71.274147770622875 $190 71.274147770622875 $111 $191 forward 7 unknown #
coedge $-1 $105 $192 $67 $114 reversed $63 $-1 #
edge $-1 $193 -71.274147770622875 $118 71.274147770622875 $113 $194 forward 7 unknown #
coedge $-1 $108 $68 $192 $195 forward $117 $-1 #
coedge $-1 $68 $108 $188 $196 reversed $117 $-1 #
loop $-1 $-1 $115 $172 #
vertex $-1 $69 $197 #
vertex $-1 $69 $198 #
straight-curve $-1 71.274147770622875 0 19.747330967199854 0 1 0 I I #
face $-1 $199 $136 $16 $-1 $123 reversed single #
loop $-1 $-1 $127 $70 #
plane-surface $-1 -71.274147770622875 0 0 1 0 0 0 0 -1 forward_v I I I I #
coedge $-1 $200 $201 $202 $203 forward $71 $-1 #
coedge $-1 $204 $73 $205 $206 forward $45 $-1 #
coedge $-1 $73 $204 $207 $208 forward $45 $-1 #
coedge $-1 $209 $210 $73 $128 forward $122 $-1 #
edge $-1 $211 -47.027842940471224 $212 47.027842940471224 $127 $213 forward 7 unknown #
coedge $-1 $75 $74 $201 $214 forward $29 $-1 #
coedge $-1 $215 $202 $74 $131 reversed $216 $-1 #
edge $-1 $137 -8.1386641531521775 $217 8.1386641531521775 $130 $218 forward 7 unknown #
coedge $-1 $219 $220 $75 $133 reversed $221 $-1 #
edge $-1 $222 -8.1386641531521775 $138 8.1386641531521775 $132 $223 forward 7 unknown #
coedge $-1 $224 $76 $220 $225 reversed $136 $-1 #
coedge $-1 $76 $224 $215 $226 forward $136 $-1 #
loop $-1 $-1 $76 $121 #
vertex $-1 $226 $227 #
vertex $-1 $133 $228 #
straight-curve $-1 -71.274147770622875 0 14.261510577767968 0 -1 0 I I #
face $-1 $229 $230 $17 $-1 $231 forward single #
loop $-1 $-1 $148 $78 #
plane-surface $-1 0 47.027842940471224 0 0 -1 0 0 0 -1 forward_v I I I I #
coedge $-1 $84 $232 $81 $146 forward $79 $-1 #
coedge $-1 $233 $81 $234 $235 reversed $49 $-1 #
coedge $-1 $81 $233 $82 $147 reversed $49 $-1 #
edge $-1 $236 -44.6788759177686 $151 -8.5116677879399489 $143 $237 forward 7 unknown #
edge $-1 $151 74.893259791834637 $238 94.055685880942477 $82 $239 forward 7 unknown #
coedge $-1 $240 $241 $83 $149 forward $141 $-1 #
edge $-1 $152 60.350403363401568 $238 76.421366288148107 $148 $242 forward 7 unknown #
coedge $-1 $243 $84 $241 $244 forward $79 $-1 #
vertex $-1 $146 $245 #
vertex $-1 $244 $246 #
straight-curve $-1 35.106939640794224 57.676253613060069 19.747330967199858 0 1 0 I I #
face $-1 $247 $248 $18 $-1 $249 forward single #
loop $-1 $250 $92 $86 #
plane-surface $-1 53.190543705708549 -4.198553896111207 82.558104291571851 0 0.83867057594974714 0.54463902268945019 1 0 0 forward_v I I I I #
coedge $-1 $251 $252 $253 $254 reversed $87 $-1 #
coedge $-1 $158 $158 $-1 $255 forward $89 $-1 #
edge $-1 $256 0 $256 6.2831853071796004 $90 $257 forward 7 unknown #
vertex $-1 $93 $258 #
ellipse-curve $-1 45.440427677888124 41.809540431705969 11.71184950482659 0 -0.83867057594974714 -0.54463902268945019 2.5 0 0 1 I I #
face $-1 $259 $260 $19 $-1 $261 forward single #
loop $-1 $262 $263 $94 #
cone-surface $-1 45.440427677888124 34.411984510332154 6.9078206729518392 0 -0.83867057594974714 -0.54463902268945019 1.25 0 0 1 I I -0.70710678118654746 0.70710678118654746 1.25 forward I I I I #
loop $-1 $-1 $264 $57 #
coedge $-1 $166 $166 $265 $266 reversed $95 $-1 #
coedge $-1 $167 $167 $-1 $267 forward $97 $-1 #
edge $-1 $268 0 $268 6.2831853071796004 $98 $269 forward 7 unknown #
loop $-1 $270 $100 $259 #
vertex $-1 $101 $271 #
ellipse-curve $-1 60.940659733528975 41.809540431705969 11.71184950482659 0 -0.83867057594974714 -0.54463902268945019 2.5 0 0 1 I I #
face $-1 $-1 $117 $15 $-1 $272 reversed single #
loop $-1 $-1 $188 $102 #
plane-surface $-1 0 47.027842940471224 0 0 -1 0 0 0 -1 forward_v I I I I #
coedge $-1 $273 $186 $189 $274 forward $103 $-1 #
coedge $-1 $192 $105 $106 $180 reversed $63 $-1 #
coedge $-1 $186 $273 $105 $178 reversed $103 $-1 #
edge $-1 $193 -19.747330967199854 $275 19.747330967199854 $177 $276 forward 7 unknown #
coedge $-1 $107 $106 $273 $277 forward $41 $-1 #
edge $-1 $184 -71.274147770622875 $275 71.274147770622875 $176 $278 forward 7 unknown #
coedge $-1 $189 $188 $107 $182 reversed $173 $-1 #
edge $-1 $279 -71.274147770622875 $183 71.274147770622875 $181 $280 forward 7 unknown #
vertex $-1 $109 $281 #
vertex $-1 $195 $282 #
straight-curve $-1 71.274147770622875 0 -19.747330967199854 0 -1 0 I I #
coedge $-1 $175 $177 $110 $187 reversed $103 $-1 #
edge $-1 $190 -47.027842940471224 $193 47.027842940471224 $186 $283 forward 7 unknown #
coedge $-1 $181 $111 $116 $196 forward $173 $-1 #
coedge $-1 $111 $181 $175 $274 reversed $173 $-1 #
vertex $-1 $112 $284 #
straight-curve $-1 0 47.027842940471224 19.747330967199854 -1 0 0 I I #
coedge $-1 $113 $176 $115 $195 reversed $63 $-1 #
vertex $-1 $187 $285 #
straight-curve $-1 0 -47.027842940471224 19.747330967199854 1 0 0 I I #
edge $-1 $118 -19.747330967199854 $184 19.747330967199854 $115 $286 forward 7 unknown #
edge $-1 $119 -19.747330967199854 $183 19.747330967199854 $116 $287 forward 7 unknown #
point $-1 71.274147770622875 -47.027842940471224 19.747330967199854 #
point $-1 71.274147770622875 47.027842940471224 19.747330967199854 #
face $-1 $288 $289 $16 $-1 $290 forward single #
coedge $-1 $291 $124 $204 $292 reversed $71 $-1 #
coedge $-1 $124 $291 $129 $214 reversed $71 $-1 #
coedge $-1 $130 $207 $124 $203 reversed $216 $-1 #
edge $-1 $217 -4.3416164745263366 $293 4.3416164745263366 $202 $294 forward 7 unknown #
coedge $-1 $126 $125 $200 $292 forward $45 $-1 #
coedge $-1 $295 $219 $125 $206 reversed $221 $-1 #
edge $-1 $211 -8.1386641531521775 $296 8.1386641531521775 $205 $297 forward 7 unknown #
coedge $-1 $202 $298 $126 $208 reversed $216 $-1 #
edge $-1 $293 -8.1386641531521775 $212 8.1386641531521775 $207 $299 forward 7 unknown #
coedge $-1 $300 $127 $298 $301 forward $122 $-1 #
coedge $-1 $127 $300 $295 $302 reversed $122 $-1 #
vertex $-1 $302 $303 #
vertex $-1 $301 $304 #
straight-curve $-1 -71.274147770622875 0 5.5782776287152949 0 1 0 I I #
edge $-1 $217 -47.027842940471224 $222 47.027842940471224 $201 $305 forward 7 unknown #
coedge $-1 $306 $130 $135 $226 reversed $216 $-1 #
loop $-1 $-1 $307 $308 #
vertex $-1 $131 $309 #
straight-curve $-1 -79.412811923775052 47.027842940471224 14.261510577767968 -1 0 0 I I #
coedge $-1 $205 $132 $291 $310 forward $221 $-1 #
coedge $-1 $132 $311 $134 $225 forward $221 $-1 #
loop $-1 $-1 $220 $312 #
vertex $-1 $214 $313 #
straight-curve $-1 -79.412811923775052 -47.027842940471224 14.261510577767968 1 0 0 I I #
coedge $-1 $135 $134 $314 $315 reversed $136 $-1 #
edge $-1 $316 -19.747330967199854 $138 -14.261510577767968 $134 $317 forward 7 unknown #
edge $-1 $318 -19.747330967199854 $137 -14.261510577767968 $215 $319 forward 7 unknown #
point $-1 -71.274147770622875 47.027842940471224 14.261510577767968 #
point $-1 -71.274147770622875 -47.027842940471224 14.261510577767968 #
face $-1 $320 $321 $17 $-1 $322 reversed single #
loop $-1 $-1 $323 $140 #
plane-surface $-1 -79.412811923775052 0 14.261510577767968 0 0 1 1 0 0 forward_v I I I I #
coedge $-1 $143 $324 $325 $326 forward $79 $-1 #
coedge $-1 $145 $144 $240 $327 reversed $49 $-1 #
coedge $-1 $325 $328 $144 $235 forward $329 $-1 #
edge $-1 $330 -58.292811297833055 $236 -39.130385208725215 $234 $331 forward 7 unknown #
vertex $-1 $235 $332 #
straight-curve $-1 26.595271852854275 36.591237922940707 19.747330967199858 -1 0 0 I I #
vertex $-1 $327 $333 #
straight-curve $-1 35.106939640794224 -4.198553896111207 82.558104291571851 0 0.54463902268945019 -0.83867057594974714 I I #
coedge $-1 $334 $148 $233 $327 forward $141 $-1 #
coedge $-1 $148 $335 $150 $244 reversed $141 $-1 #
straight-curve $-1 35.106939640794224 47.027842940471224 80.097734330601426 0 0 -1 I I #
coedge $-1 $324 $150 $336 $337 forward $79 $-1 #
edge $-1 $152 -35.106939640794224 $338 71.274147770622875 $241 $339 forward 7 unknown #
point $-1 35.106939640794224 36.591237922940707 19.747330967199858 #
point $-1 35.106939640794224 47.027842940471224 19.747330967199854 #
face $-1 $340 $341 $18 $-1 $342 reversed single #
loop $-1 $-1 $343 $154 #
plane-surface $-1 0 0 19.747330967199854 0 0 1 1 0 0 forward_v I I I I #
loop $-1 $-1 $344 $86 #
coedge $-1 $252 $157 $345 $346 forward $87 $-1 #
coedge $-1 $157 $251 $347 $348 reversed $87 $-1 #
coedge $-1 $349 $343 $157 $254 forward $248 $-1 #
edge $-1 $350 -21.085015690119363 $351 -10.648410672588845 $253 $352 forward 7 unknown #
edge $-1 $353 1 $353 0 $158 $-1 forward 7 unknown #
vertex $-1 $159 $354 #
ellipse-curve $-1 45.440427677888124 35.46032273026934 7.5886194513136518 0 0.83867057594974714 0.54463902268945019 2.5 0 0 1 I I #
point $-1 47.940427677888124 41.809540431705969 11.711849504826592 #
face $-1 $355 $169 $19 $-1 $356 forward single #
loop $-1 $-1 $357 $162 #
plane-surface $-1 35.106939640794224 115.35250722612014 160.19546866120285 1 0 0 0 -0.83867057594974714 -0.54463902268945019 forward_v I I I I #
loop $-1 $-1 $358 $94 #
coedge $-1 $263 $263 $264 $359 forward $163 $-1 #
coedge $-1 $264 $264 $263 $359 reversed $165 $-1 #
coedge $-1 $265 $265 $166 $266 forward $270 $-1 #
edge $-1 $360 5.9591128543683224e-016 $360 6.2831853071796013 $265 $361 forward 7 unknown #
edge $-1 $362 1 $362 0 $167 $-1 forward 7 unknown #
vertex $-1 $168 $363 #
ellipse-curve $-1 60.940659733528975 35.46032273026934 7.5886194513136518 0 0.83867057594974714 0.54463902268945019 2.5 0 0 1 I I #
loop $-1 $364 $265 $259 #
point $-1 63.440659733528975 41.809540431705969 11.711849504826592 #
plane-surface $-1 71.274147770622875 0 0 -1 0 0 0 0 1 forward_v I I I I #
coedge $-1 $177 $175 $179 $277 reversed $103 $-1 #
edge $-1 $190 -19.747330967199854 $279 19.747330967199854 $189 $365 forward 7 unknown #
vertex $-1 $277 $366 #
straight-curve $-1 -71.274147770622875 -47.027842940471224 0 0 0 -1 I I #
edge $-1 $275 -47.027842940471224 $279 47.027842940471224 $273 $367 forward 7 unknown #
straight-curve $-1 0 -47.027842940471224 -19.747330967199854 -1 0 0 I I #
vertex $-1 $182 $368 #
straight-curve $-1 0 47.027842940471224 -19.747330967199854 1 0 0 I I #
point $-1 71.274147770622875 47.027842940471224 -19.747330967199854 #
point $-1 71.274147770622875 -47.027842940471224 -19.747330967199854 #
straight-curve $-1 -71.274147770622875 0 19.747330967199854 0 -1 0 I I #
point $-1 -71.274147770622875 47.027842940471224 19.747330967199854 #
point $-1 -71.274147770622875 -47.027842940471224 19.747330967199854 #
straight-curve $-1 71.274147770622875 -47.027842940471224 0 0 0 -1 I I #
straight-curve $-1 71.274147770622875 47.027842940471224 0 0 0 -1 I I #
face $-1 $312 $369 $16 $-1 $370 reversed single #
loop $-1 $-1 $371 $199 #
plane-surface $-1 0 0 19.747330967199854 0 0 1 1 0 0 forward_v I I I I #
coedge $-1 $201 $200 $219 $310 reversed $71 $-1 #
edge $-1 $296 -47.027842940471224 $293 47.027842940471224 $200 $372 forward 7 unknown #
vertex $-1 $208 $373 #
straight-curve $-1 -87.55147607692723 47.027842940471224 9.9198941032416315 0 0 -1 I I #
coedge $-1 $374 $205 $210 $302 forward $221 $-1 #
vertex $-1 $292 $375 #
straight-curve $-1 -79.412811923775052 -47.027842940471224 5.5782776287152949 -1 0 0 I I #
coedge $-1 $207 $376 $209 $301 reversed $216 $-1 #
straight-curve $-1 -79.412811923775052 47.027842940471224 5.5782776287152949 1 0 0 I I #
coedge $-1 $210 $209 $377 $378 reversed $122 $-1 #
edge $-1 $212 -5.5782776287152949 $379 19.747330967199854 $298 $319 forward 7 unknown #
edge $-1 $211 -5.5782776287152949 $380 19.747330967199854 $210 $317 forward 7 unknown #
point $-1 -71.274147770622875 -47.027842940471224 5.5782776287152949 #
point $-1 -71.274147770622875 47.027842940471224 5.5782776287152949 #
straight-curve $-1 -87.55147607692723 0 14.261510577767968 0 -1 0 I I #
coedge $-1 $307 $215 $381 $382 reversed $216 $-1 #
coedge $-1 $376 $306 $383 $384 forward $216 $-1 #
face $-1 $385 $216 $16 $-1 $386 reversed single #
point $-1 -87.55147607692723 47.027842940471224 14.261510577767968 #
edge $-1 $222 -4.3416164745263366 $296 4.3416164745263366 $291 $387 forward 7 unknown #
coedge $-1 $220 $388 $389 $390 reversed $221 $-1 #
face $-1 $308 $221 $16 $-1 $391 reversed single #
point $-1 -87.55147607692723 -47.027842940471224 14.261510577767968 #
coedge $-1 $389 $381 $224 $315 forward $289 $-1 #
edge $-1 $318 -47.027842940471224 $316 47.027842940471224 $224 $392 forward 7 unknown #
vertex $-1 $315 $393 #
straight-curve $-1 -71.274147770622875 -47.027842940471224 0 0 0 -1 I I #
vertex $-1 $382 $394 #
straight-curve $-1 -71.274147770622875 47.027842940471224 0 0 0 -1 I I #
face $-1 $395 $396 $17 $-1 $397 reversed single #
loop $-1 $-1 $398 $229 #
plane-surface $-1 -79.412811923775052 0 5.5782776287152949 0 0 1 1 0 0 forward_v I I I I #
coedge $-1 $399 $400 $401 $402 reversed $230 $-1 #
coedge $-1 $232 $243 $403 $404 forward $79 $-1 #
coedge $-1 $405 $234 $232 $326 reversed $329 $-1 #
edge $-1 $406 -47.027842940471224 $236 36.591237922940707 $325 $407 forward 7 unknown #
edge $-1 $238 8.5116677879399489 $330 44.6788759177686 $240 $408 forward 7 unknown #
coedge $-1 $234 $409 $334 $410 reversed $329 $-1 #
loop $-1 $-1 $234 $411 #
vertex $-1 $410 $412 #
straight-curve $-1 71.274147770622875 15.27930316539889 52.564833667336899 0 -0.54463902268945019 0.83867057594974714 I I #
point $-1 71.274147770622875 36.591237922940707 19.747330967199858 #
point $-1 35.106939640794224 47.027842940471224 3.6763680424533192 #
coedge $-1 $413 $240 $328 $410 forward $141 $-1 #
coedge $-1 $241 $414 $415 $416 reversed $141 $-1 #
coedge $-1 $415 $417 $243 $337 reversed $418 $-1 #
edge $-1 $338 -47.027842940471224 $419 47.027842940471224 $336 $420 forward 7 unknown #
vertex $-1 $244 $421 #
straight-curve $-1 0 47.027842940471224 19.747330967199854 -1 0 0 I I #
face $-1 $422 $423 $18 $-1 $424 forward single #
loop $-1 $-1 $347 $247 #
plane-surface $-1 0 47.027842940471224 0 0 -1 0 0 0 -1 forward_v I I I I #
coedge $-1 $253 $425 $344 $426 forward $248 $-1 #
coedge $-1 $427 $345 $343 $426 reversed $250 $-1 #
coedge $-1 $344 $428 $251 $346 reversed $250 $-1 #
edge $-1 $350 74.893259791834637 $429 94.055685880942477 $251 $430 forward 7 unknown #
coedge $-1 $431 $432 $252 $348 forward $341 $-1 #
edge $-1 $351 60.350403363401568 $429 76.421366288148107 $347 $433 forward 7 unknown #
coedge $-1 $434 $253 $432 $435 forward $248 $-1 #
vertex $-1 $426 $436 #
vertex $-1 $435 $437 #
straight-curve $-1 35.106939640794224 57.676253613060069 19.747330967199858 0 1 0 I I #
vertex $-1 $255 $438 #
point $-1 47.940427677888124 35.46032273026934 7.5886194513136518 #
face $-1 $439 $440 $19 $-1 $441 forward single #
plane-surface $-1 53.190543705708549 -4.198553896111207 82.558104291571851 0 0.83867057594974714 0.54463902268945019 1 0 0 forward_v I I I I #
coedge $-1 $442 $443 $444 $445 reversed $260 $-1 #
coedge $-1 $358 $358 $-1 $446 forward $262 $-1 #
edge $-1 $447 0 $447 6.2831853071796004 $263 $448 forward 7 unknown #
vertex $-1 $266 $449 #
ellipse-curve $-1 45.440427677888124 41.809540431705969 11.71184950482659 0 -0.83867057594974714 -0.54463902268945019 2.5 0 0 1 I I #
vertex $-1 $267 $450 #
point $-1 63.440659733528975 35.46032273026934 7.5886194513136518 #
loop $-1 $-1 $451 $259 #
straight-curve $-1 -71.274147770622875 47.027842940471224 0 0 0 -1 I I #
point $-1 -71.274147770622875 -47.027842940471224 -19.747330967199854 #
straight-curve $-1 -71.274147770622875 0 -19.747330967199854 0 1 0 I I #
point $-1 -71.274147770622875 47.027842940471224 -19.747330967199854 #
loop $-1 $-1 $452 $288 #
plane-surface $-1 0 0 -19.747330967199854 0 0 1 1 0 0 forward_v I I I I #
coedge $-1 $381 $389 $453 $454 forward $289 $-1 #
straight-curve $-1 -87.55147607692723 0 5.5782776287152949 0 1 0 I I #
point $-1 -87.55147607692723 47.027842940471224 5.5782776287152949 #
coedge $-1 $388 $295 $455 $456 reversed $221 $-1 #
point $-1 -87.55147607692723 -47.027842940471224 5.5782776287152949 #
coedge $-1 $298 $307 $457 $458 reversed $216 $-1 #
coedge $-1 $457 $455 $300 $378 forward $369 $-1 #
edge $-1 $380 -47.027842940471224 $379 47.027842940471224 $300 $459 forward 7 unknown #
vertex $-1 $458 $460 #
vertex $-1 $378 $461 #
coedge $-1 $314 $371 $306 $382 forward $289 $-1 #
edge $-1 $462 -71.274147770622875 $318 71.274147770622875 $306 $463 forward 7 unknown #
coedge $-1 $453 $464 $307 $384 reversed $465 $-1 #
edge $-1 $462 -19.747330967199854 $466 19.747330967199854 $383 $467 forward 7 unknown #
face $-1 $-1 $465 $16 $-1 $468 reversed single #
plane-surface $-1 0 47.027842940471224 0 0 -1 0 0 0 -1 forward_v I I I I #
straight-curve $-1 -87.55147607692723 -47.027842940471224 9.9198941032416315 0 0 -1 I I #
coedge $-1 $311 $374 $469 $470 reversed $221 $-1 #
coedge $-1 $371 $314 $311 $390 forward $289 $-1 #
edge $-1 $316 -71.274147770622875 $471 71.274147770622875 $311 $472 forward 7 unknown #
plane-surface $-1 0 -47.027842940471224 0 0 1 0 0 0 1 forward_v I I I I #
straight-curve $-1 -71.274147770622875 0 19.747330967199854 0 -1 0 I I #
point $-1 -71.274147770622875 -47.027842940471224 19.747330967199854 #
point $-1 -71.274147770622875 47.027842940471224 19.747330967199854 #
face $-1 $473 $474 $17 $-1 $475 reversed single #
loop $-1 $-1 $476 $320 #
plane-surface $-1 -87.55147607692723 0 9.9198941032416315 1 0 0 0 0 -1 forward_v I I I I #
coedge $-1 $477 $478 $479 $480 reversed $321 $-1 #
coedge $-1 $481 $323 $414 $482 forward $230 $-1 #
coedge $-1 $323 $481 $483 $484 forward $230 $-1 #
coedge $-1 $417 $415 $323 $402 forward $418 $-1 #
edge $-1 $485 -47.027842940471224 $486 47.027842940471224 $401 $487 forward 7 unknown #
coedge $-1 $488 $489 $324 $404 reversed $490 $-1 #
edge $-1 $419 -71.274147770622875 $406 71.274147770622875 $403 $491 forward 7 unknown #
coedge $-1 $409 $325 $489 $492 forward $329 $-1 #
vertex $-1 $326 $493 #
straight-curve $-1 71.274147770622875 0 19.747330967199854 0 1 0 I I #
straight-curve $-1 26.595271852854275 47.027842940471224 3.6763680424533263 1 0 0 I I #
coedge $-1 $328 $405 $494 $495 reversed $329 $-1 #
edge $-1 $330 -3.6763680424533192 $496 19.747330967199854 $328 $497 forward 7 unknown #
face $-1 $-1 $329 $17 $-1 $498 reversed single #
point $-1 71.274147770622875 47.027842940471224 3.6763680424533192 #
coedge $-1 $499 $334 $500 $501 reversed $141 $-1 #
coedge $-1 $335 $502 $399 $482 reversed $141 $-1 #
coedge $-1 $401 $336 $335 $416 forward $418 $-1 #
edge $-1 $338 -19.747330967199854 $485 -14.261510577767968 $335 $503 forward 7 unknown #
coedge $-1 $336 $401 $488 $504 reversed $418 $-1 #
loop $-1 $-1 $401 $473 #
vertex $-1 $337 $505 #
straight-curve $-1 -71.274147770622875 0 19.747330967199854 0 -1 0 I I #
point $-1 -71.274147770622875 47.027842940471224 19.747330967199854 #
face $-1 $506 $507 $18 $-1 $508 reversed single #
loop $-1 $-1 $509 $340 #
plane-surface $-1 -79.412811923775052 0 14.261510577767968 0 0 1 1 0 0 forward_v I I I I #
coedge $-1 $343 $510 $511 $512 forward $248 $-1 #
edge $-1 $513 -44.6788759177686 $350 -8.5116677879399489 $343 $514 forward 7 unknown #
coedge $-1 $428 $344 $515 $516 reversed $250 $-1 #
coedge $-1 $345 $427 $431 $517 reversed $250 $-1 #
vertex $-1 $517 $518 #
straight-curve $-1 35.106939640794224 -4.198553896111207 82.558104291571851 0 0.54463902268945019 -0.83867057594974714 I I #
coedge $-1 $519 $347 $428 $517 forward $341 $-1 #
coedge $-1 $347 $520 $349 $435 reversed $341 $-1 #
straight-curve $-1 35.106939640794224 47.027842940471224 80.097734330601426 0 0 -1 I I #
coedge $-1 $510 $349 $521 $522 forward $248 $-1 #
edge $-1 $351 -35.106939640794224 $523 71.274147770622875 $432 $524 forward 7 unknown #
point $-1 35.106939640794224 36.591237922940707 19.747330967199858 #
point $-1 35.106939640794224 47.027842940471224 19.747330967199854 #
point $-1 45.440427677888124 33.363646290394968 6.2270218945900266 #
face $-1 $525 $526 $19 $-1 $527 reversed single #
loop $-1 $-1 $528 $355 #
plane-surface $-1 0 0 19.747330967199854 0 0 1 1 0 0 forward_v I I I I #
coedge $-1 $443 $357 $529 $530 forward $260 $-1 #
coedge $-1 $357 $442 $531 $532 reversed $260 $-1 #
coedge $-1 $533 $528 $357 $445 forward $440 $-1 #
edge $-1 $534 -21.085015690119363 $535 -10.648410672588845 $444 $536 forward 7 unknown #
edge $-1 $537 1 $537 0 $358 $-1 forward 7 unknown #
vertex $-1 $359 $538 #
ellipse-curve $-1 45.440427677888124 35.46032273026934 7.5886194513136518 0 0.83867057594974714 0.54463902268945019 2.5 0 0 1 I I #
point $-1 47.940427677888124 41.809540431705969 11.711849504826592 #
point $-1 60.940659733528975 33.363646290394968 6.2270218945900266 #
coedge $-1 $539 $529 $528 $540 reversed $364 $-1 #
coedge $-1 $455 $457 $464 $541 forward $369 $-1 #
coedge $-1 $469 $383 $371 $454 reversed $465 $-1 #
edge $-1 $471 -47.027842940471224 $462 47.027842940471224 $453 $542 forward 7 unknown #
coedge $-1 $377 $452 $374 $456 forward $369 $-1 #
edge $-1 $543 -71.274147770622875 $380 71.274147770622875 $374 $544 forward 7 unknown #
coedge $-1 $452 $377 $376 $458 forward $369 $-1 #
edge $-1 $379 -71.274147770622875 $466 71.274147770622875 $376 $545 forward 7 unknown #
straight-curve $-1 -71.274147770622875 0 -19.747330967199854 0 1 0 I I #
point $-1 -71.274147770622875 47.027842940471224 -19.747330967199854 #
point $-1 -71.274147770622875 -47.027842940471224 -19.747330967199854 #
vertex $-1 $454 $546 #
straight-curve $-1 0 47.027842940471224 19.747330967199854 -1 0 0 I I #
coedge $-1 $383 $469 $452 $541 reversed $465 $-1 #
loop $-1 $-1 $469 $385 #
vertex $-1 $541 $547 #
straight-curve $-1 71.274147770622875 47.027842940471224 0 0 0 -1 I I #
plane-surface $-1 71.274147770622875 0 0 -1 0 0 0 0 1 forward_v I I I I #
coedge $-1 $464 $453 $388 $470 forward $465 $-1 #
edge $-1 $471 -19.747330967199854 $543 19.747330967199854 $469 $548 forward 7 unknown #
vertex $-1 $454 $549 #
straight-curve $-1 0 -47.027842940471224 19.747330967199854 1 0 0 I I #
face $-1 $550 $418 $17 $-1 $475 reversed single #
loop $-1 $-1 $479 $395 #
plane-surface $-1 -71.274147770622875 0 0 1 0 0 0 0 -1 forward_v I I I I #
coedge $-1 $551 $552 $502 $553 forward $396 $-1 #
coedge $-1 $554 $398 $555 $556 forward $321 $-1 #
coedge $-1 $398 $554 $557 $558 forward $321 $-1 #
coedge $-1 $559 $560 $398 $480 forward $474 $-1 #
edge $-1 $561 -47.027842940471224 $562 47.027842940471224 $479 $563 forward 7 unknown #
coedge $-1 $400 $399 $552 $564 forward $230 $-1 #
edge $-1 $485 -8.1386641531521775 $565 8.1386641531521775 $414 $566 forward 7 unknown #
coedge $-1 $567 $488 $400 $484 reversed $490 $-1 #
edge $-1 $568 -8.1386641531521775 $486 8.1386641531521775 $483 $569 forward 7 unknown #
vertex $-1 $416 $570 #
vertex $-1 $484 $571 #
straight-curve $-1 -71.274147770622875 0 14.261510577767968 0 -1 0 I I #
coedge $-1 $483 $403 $417 $504 forward $490 $-1 #
coedge $-1 $403 $572 $405 $492 reversed $490 $-1 #
loop $-1 $-1 $488 $573 #
straight-curve $-1 0 -47.027842940471224 19.747330967199854 1 0 0 I I #
edge $-1 $406 -19.747330967199854 $574 19.747330967199854 $405 $575 forward 7 unknown #
point $-1 71.274147770622875 -47.027842940471224 19.747330967199854 #
coedge $-1 $576 $500 $409 $495 forward $577 $-1 #
edge $-1 $496 -47.027842940471224 $574 47.027842940471224 $409 $578 forward 7 unknown #
vertex $-1 $495 $579 #
straight-curve $-1 71.274147770622875 47.027842940471224 0 0 0 -1 I I #
plane-surface $-1 71.274147770622875 0 0 -1 0 0 0 0 1 forward_v I I I I #
coedge $-1 $557 $413 $559 $580 reversed $141 $-1 #
coedge $-1 $494 $581 $413 $501 forward $577 $-1 #
edge $-1 $582 -71.274147770622875 $496 71.274147770622875 $413 $583 forward 7 unknown #
coedge $-1 $414 $557 $476 $553 reversed $141 $-1 #
straight-curve $-1 -71.274147770622875 47.027842940471224 0 0 0 -1 I I #
edge $-1 $419 -19.747330967199854 $486 -14.261510577767968 $417 $584 forward 7 unknown #
point $-1 -71.274147770622875 -47.027842940471224 19.747330967199854 #
face $-1 $585 $586 $18 $-1 $587 reversed single #
loop $-1 $-1 $588 $422 #
plane-surface $-1 -79.412811923775052 0 5.5782776287152949 0 0 1 1 0 0 forward_v I I I I #
coedge $-1 $589 $590 $591 $592 reversed $423 $-1 #
coedge $-1 $425 $434 $593 $594 forward $248 $-1 #
coedge $-1 $595 $515 $425 $512 reversed $596 $-1 #
edge $-1 $597 -47.027842940471224 $513 36.591237922940707 $511 $598 forward 7 unknown #
vertex $-1 $516 $599 #
straight-curve $-1 26.595271852854275 36.591237922940707 19.747330967199858 -1 0 0 I I #
coedge $-1 $511 $600 $427 $516 forward $596 $-1 #
edge $-1 $601 -58.292811297833055 $513 -39.130385208725215 $515 $602 forward 7 unknown #
edge $-1 $429 8.5116677879399489 $601 44.6788759177686 $431 $603 forward 7 unknown #
point $-1 35.106939640794224 47.027842940471224 3.6763680424533192 #
coedge $-1 $604 $431 $600 $605 forward $341 $-1 #
coedge $-1 $432 $606 $607 $608 reversed $341 $-1 #
coedge $-1 $607 $609 $434 $522 reversed $610 $-1 #
edge $-1 $523 -47.027842940471224 $611 47.027842940471224 $521 $612 forward 7 unknown #
vertex $-1 $435 $613 #
straight-curve $-1 0 47.027842940471224 19.747330967199854 -1 0 0 I I #
face $-1 $614 $615 $19 $-1 $616 forward single #
loop $-1 $-1 $531 $439 #
plane-surface $-1 0 47.027842940471224 0 0 -1 0 0 0 -1 forward_v I I I I #
coedge $-1 $444 $617 $451 $540 forward $440 $-1 #
coedge $-1 $451 $618 $442 $530 reversed $364 $-1 #
edge $-1 $534 74.893259791834637 $619 94.055685880942477 $442 $620 forward 7 unknown #
coedge $-1 $621 $622 $443 $532 forward $526 $-1 #
edge $-1 $535 60.350403363401568 $619 76.421366288148107 $531 $623 forward 7 unknown #
coedge $-1 $624 $444 $622 $625 forward $440 $-1 #
vertex $-1 $540 $626 #
vertex $-1 $625 $627 #
straight-curve $-1 35.106939640794224 57.676253613060069 19.747330967199858 0 1 0 I I #
vertex $-1 $446 $628 #
point $-1 47.940427677888124 35.46032273026934 7.5886194513136518 #
coedge $-1 $618 $451 $629 $630 reversed $364 $-1 #
edge $-1 $631 -44.6788759177686 $534 -8.5116677879399489 $528 $632 forward 7 unknown #
edge $-1 $466 -47.027842940471224 $543 47.027842940471224 $464 $633 forward 7 unknown #
straight-curve $-1 71.274147770622875 0 19.747330967199854 0 1 0 I I #
vertex $-1 $470 $634 #
straight-curve $-1 0 -47.027842940471224 -19.747330967199854 -1 0 0 I I #
straight-curve $-1 0 47.027842940471224 -19.747330967199854 1 0 0 I I #
point $-1 71.274147770622875 47.027842940471224 19.747330967199854 #
point $-1 71.274147770622875 47.027842940471224 -19.747330967199854 #
straight-curve $-1 71.274147770622875 -47.027842940471224 0 0 0 -1 I I #
point $-1 71.274147770622875 -47.027842940471224 19.747330967199854 #
face $-1 $573 $577 $17 $-1 $635 reversed single #
coedge $-1 $636 $476 $554 $637 reversed $396 $-1 #
coedge $-1 $476 $636 $481 $564 reversed $396 $-1 #
edge $-1 $565 -4.3416164745263366 $638 4.3416164745263366 $502 $639 forward 7 unknown #
coedge $-1 $478 $477 $551 $637 forward $321 $-1 #
coedge $-1 $640 $567 $477 $556 reversed $490 $-1 #
edge $-1 $561 -8.1386641531521775 $641 8.1386641531521775 $555 $642 forward 7 unknown #
coedge $-1 $502 $499 $478 $558 reversed $141 $-1 #
edge $-1 $638 -8.1386641531521775 $562 8.1386641531521775 $557 $643 forward 7 unknown #
coedge $-1 $644 $479 $499 $580 forward $474 $-1 #
coedge $-1 $479 $644 $640 $645 reversed $474 $-1 #
vertex $-1 $645 $646 #
vertex $-1 $580 $647 #
straight-curve $-1 -71.274147770622875 0 5.5782776287152949 0 1 0 I I #
edge $-1 $565 -47.027842940471224 $568 47.027842940471224 $552 $648 forward 7 unknown #
vertex $-1 $482 $649 #
straight-curve $-1 -79.412811923775052 47.027842940471224 14.261510577767968 -1 0 0 I I #
coedge $-1 $555 $483 $636 $650 forward $490 $-1 #
vertex $-1 $564 $651 #
straight-curve $-1 -79.412811923775052 -47.027842940471224 14.261510577767968 1 0 0 I I #
point $-1 -71.274147770622875 47.027842940471224 14.261510577767968 #
point $-1 -71.274147770622875 -47.027842940471224 14.261510577767968 #
coedge $-1 $489 $640 $576 $652 reversed $490 $-1 #
face $-1 $411 $490 $17 $-1 $653 reversed single #
vertex $-1 $492 $654 #
straight-curve $-1 71.274147770622875 -47.027842940471224 0 0 0 -1 I I #
coedge $-1 $581 $494 $572 $652 forward $577 $-1 #
loop $-1 $-1 $494 $550 #
straight-curve $-1 71.274147770622875 0 -19.747330967199854 0 -1 0 I I #
point $-1 71.274147770622875 47.027842940471224 -19.747330967199854 #
edge $-1 $562 -5.5782776287152949 $582 19.747330967199854 $499 $503 forward 7 unknown #
coedge $-1 $500 $576 $644 $655 forward $577 $-1 #
vertex $-1 $501 $656 #
straight-curve $-1 0 47.027842940471224 -19.747330967199854 1 0 0 I I #
straight-curve $-1 -71.274147770622875 -47.027842940471224 0 0 0 -1 I I #
face $-1 $657 $658 $18 $-1 $659 reversed single #
loop $-1 $-1 $660 $506 #
plane-surface $-1 -87.55147607692723 0 9.9198941032416315 1 0 0 0 0 -1 forward_v I I I I #
coedge $-1 $661 $662 $663 $664 reversed $507 $-1 #
coedge $-1 $665 $509 $606 $666 forward $423 $-1 #
coedge $-1 $509 $665 $667 $668 forward $423 $-1 #
coedge $-1 $609 $607 $509 $592 forward $610 $-1 #
edge $-1 $669 -47.027842940471224 $670 47.027842940471224 $591 $671 forward 7 unknown #
coedge $-1 $672 $673 $510 $594 reversed $674 $-1 #
edge $-1 $611 -71.274147770622875 $597 71.274147770622875 $593 $675 forward 7 unknown #
coedge $-1 $676 $511 $673 $677 forward $596 $-1 #
loop $-1 $-1 $515 $678 #
vertex $-1 $512 $679 #
straight-curve $-1 71.274147770622875 0 19.747330967199854 0 1 0 I I #
point $-1 71.274147770622875 36.591237922940707 19.747330967199858 #
coedge $-1 $515 $676 $519 $605 reversed $596 $-1 #
vertex $-1 $605 $680 #
straight-curve $-1 71.274147770622875 15.27930316539889 52.564833667336899 0 -0.54463902268945019 0.83867057594974714 I I #
straight-curve $-1 26.595271852854275 47.027842940471224 3.6763680424533263 1 0 0 I I #
coedge $-1 $681 $519 $682 $683 reversed $341 $-1 #
edge $-1 $601 -3.6763680424533192 $684 19.747330967199854 $600 $685 forward 7 unknown #
coedge $-1 $520 $686 $589 $666 reversed $341 $-1 #
coedge $-1 $591 $521 $520 $608 forward $610 $-1 #
edge $-1 $523 -19.747330967199854 $669 -14.261510577767968 $520 $687 forward 7 unknown #
coedge $-1 $521 $591 $672 $688 reversed $610 $-1 #
loop $-1 $-1 $591 $657 #
vertex $-1 $522 $689 #
straight-curve $-1 -71.274147770622875 0 19.747330967199854 0 -1 0 I I #
point $-1 -71.274147770622875 47.027842940471224 19.747330967199854 #
face $-1 $690 $691 $19 $-1 $692 reversed single #
loop $-1 $-1 $693 $525 #
plane-surface $-1 -79.412811923775052 0 14.261510577767968 0 0 1 1 0 0 forward_v I I I I #
coedge $-1 $528 $694 $695 $696 forward $440 $-1 #
coedge $-1 $529 $539 $621 $697 reversed $364 $-1 #
vertex $-1 $697 $698 #
straight-curve $-1 35.106939640794224 -4.198553896111207 82.558104291571851 0 0.54463902268945019 -0.83867057594974714 I I #
coedge $-1 $699 $531 $618 $697 forward $526 $-1 #
coedge $-1 $531 $700 $533 $625 reversed $526 $-1 #
straight-curve $-1 35.106939640794224 47.027842940471224 80.097734330601426 0 0 -1 I I #
coedge $-1 $694 $533 $701 $702 forward $440 $-1 #
edge $-1 $535 -35.106939640794224 $703 71.274147770622875 $622 $704 forward 7 unknown #
point $-1 35.106939640794224 36.591237922940707 19.747330967199858 #
point $-1 35.106939640794224 47.027842940471224 19.747330967199854 #
point $-1 45.440427677888124 33.363646290394968 6.2270218945900266 #
coedge $-1 $695 $705 $539 $630 forward $706 $-1 #
edge $-1 $707 -58.292811297833055 $631 -39.130385208725215 $629 $708 forward 7 unknown #
vertex $-1 $630 $709 #
straight-curve $-1 26.595271852854275 36.591237922940707 19.747330967199858 -1 0 0 I I #
straight-curve $-1 71.274147770622875 0 -19.747330967199854 0 -1 0 I I #
point $-1 71.274147770622875 -47.027842940471224 -19.747330967199854 #
plane-surface $-1 0 0 -19.747330967199854 0 0 1 1 0 0 forward_v I I I I #
coedge $-1 $552 $551 $567 $650 reversed $396 $-1 #
edge $-1 $641 -47.027842940471224 $638 47.027842940471224 $551 $710 forward 7 unknown #
vertex $-1 $558 $711 #
straight-curve $-1 -87.55147607692723 47.027842940471224 9.9198941032416315 0 0 -1 I I #
coedge $-1 $572 $555 $560 $645 forward $490 $-1 #
vertex $-1 $637 $712 #
straight-curve $-1 -79.412811923775052 -47.027842940471224 5.5782776287152949 -1 0 0 I I #
straight-curve $-1 -79.412811923775052 47.027842940471224 5.5782776287152949 1 0 0 I I #
coedge $-1 $560 $559 $581 $655 reversed $474 $-1 #
edge $-1 $561 -5.5782776287152949 $713 19.747330967199854 $560 $584 forward 7 unknown #
point $-1 -71.274147770622875 -47.027842940471224 5.5782776287152949 #
point $-1 -71.274147770622875 47.027842940471224 5.5782776287152949 #
straight-curve $-1 -87.55147607692723 0 14.261510577767968 0 -1 0 I I #
point $-1 -87.55147607692723 47.027842940471224 14.261510577767968 #
edge $-1 $568 -4.3416164745263366 $641 4.3416164745263366 $636 $714 forward 7 unknown #
point $-1 -87.55147607692723 -47.027842940471224 14.261510577767968 #
edge $-1 $574 -71.274147770622875 $713 71.274147770622875 $572 $715 forward 7 unknown #
plane-surface $-1 0 -47.027842940471224 0 0 1 0 0 0 1 forward_v I I I I #
point $-1 71.274147770622875 -47.027842940471224 -19.747330967199854 #
edge $-1 $713 -47.027842940471224 $582 47.027842940471224 $644 $716 forward 7 unknown #
point $-1 -71.274147770622875 47.027842940471224 -19.747330967199854 #
face $-1 $717 $610 $18 $-1 $659 reversed single #
loop $-1 $-1 $663 $585 #
plane-surface $-1 -71.274147770622875 0 0 1 0 0 0 0 -1 forward_v I I I I #
coedge $-1 $718 $719 $686 $720 forward $586 $-1 #
coedge $-1 $721 $588 $722 $723 forward $507 $-1 #
coedge $-1 $588 $721 $724 $725 forward $507 $-1 #
coedge $-1 $726 $727 $588 $664 forward $658 $-1 #
edge $-1 $728 -47.027842940471224 $729 47.027842940471224 $663 $730 forward 7 unknown #
coedge $-1 $590 $589 $719 $731 forward $423 $-1 #
edge $-1 $669 -8.1386641531521775 $732 8.1386641531521775 $606 $733 forward 7 unknown #
coedge $-1 $734 $672 $590 $668 reversed $674 $-1 #
edge $-1 $735 -8.1386641531521775 $670 8.1386641531521775 $667 $736 forward 7 unknown #
vertex $-1 $608 $737 #
vertex $-1 $668 $738 #
straight-curve $-1 -71.274147770622875 0 14.261510577767968 0 -1 0 I I #
coedge $-1 $667 $593 $609 $688 forward $674 $-1 #
coedge $-1 $593 $739 $595 $677 reversed $674 $-1 #
loop $-1 $-1 $672 $740 #
straight-curve $-1 0 -47.027842940471224 19.747330967199854 1 0 0 I I #
coedge $-1 $600 $595 $741 $742 reversed $596 $-1 #
edge $-1 $597 -19.747330967199854 $743 19.747330967199854 $595 $744 forward 7 unknown #
face $-1 $-1 $596 $18 $-1 $745 reversed single #
point $-1 71.274147770622875 -47.027842940471224 19.747330967199854 #
point $-1 71.274147770622875 47.027842940471224 3.6763680424533192 #
coedge $-1 $724 $604 $726 $746 reversed $341 $-1 #
coedge $-1 $741 $747 $604 $683 forward $748 $-1 #
edge $-1 $749 -71.274147770622875 $684 71.274147770622875 $604 $750 forward 7 unknown #
vertex $-1 $742 $751 #
straight-curve $-1 71.274147770622875 47.027842940471224 0 0 0 -1 I I #
coedge $-1 $606 $724 $660 $720 reversed $341 $-1 #
straight-curve $-1 -71.274147770622875 47.027842940471224 0 0 0 -1 I I #
edge $-1 $611 -19.747330967199854 $670 -14.261510577767968 $609 $752 forward 7 unknown #
point $-1 -71.274147770622875 -47.027842940471224 19.747330967199854 #
face $-1 $753 $754 $19 $-1 $755 reversed single #
loop $-1 $-1 $756 $614 #
plane-surface $-1 -79.412811923775052 0 5.5782776287152949 0 0 1 1 0 0 forward_v I I I I #
coedge $-1 $757 $758 $759 $760 reversed $615 $-1 #
coedge $-1 $617 $624 $761 $762 forward $440 $-1 #
coedge $-1 $763 $629 $617 $696 reversed $706 $-1 #
edge $-1 $764 -47.027842940471224 $631 36.591237922940707 $695 $765 forward 7 unknown #
edge $-1 $619 8.5116677879399489 $707 44.6788759177686 $621 $766 forward 7 unknown #
point $-1 35.106939640794224 47.027842940471224 3.6763680424533192 #
coedge $-1 $767 $621 $705 $768 forward $526 $-1 #
coedge $-1 $622 $769 $770 $771 reversed $526 $-1 #
coedge $-1 $770 $772 $624 $702 reversed $773 $-1 #
edge $-1 $703 -47.027842940471224 $774 47.027842940471224 $701 $775 forward 7 unknown #
vertex $-1 $625 $776 #
straight-curve $-1 0 47.027842940471224 19.747330967199854 -1 0 0 I I #
coedge $-1 $629 $777 $699 $768 reversed $706 $-1 #
loop $-1 $-1 $629 $778 #
vertex $-1 $768 $779 #
straight-curve $-1 71.274147770622875 15.27930316539889 52.564833667336899 0 -0.54463902268945019 0.83867057594974714 I I #
point $-1 71.274147770622875 36.591237922940707 19.747330967199858 #
straight-curve $-1 -87.55147607692723 0 5.5782776287152949 0 1 0 I I #
point $-1 -87.55147607692723 47.027842940471224 5.5782776287152949 #
point $-1 -87.55147607692723 -47.027842940471224 5.5782776287152949 #
vertex $-1 $655 $780 #
straight-curve $-1 -87.55147607692723 -47.027842940471224 9.9198941032416315 0 0 -1 I I #
straight-curve $-1 0 -47.027842940471224 -19.747330967199854 -1 0 0 I I #
straight-curve $-1 -71.274147770622875 0 -19.747330967199854 0 1 0 I I #
face $-1 $740 $748 $18 $-1 $781 reversed single #
coedge $-1 $782 $660 $721 $783 reversed $586 $-1 #
coedge $-1 $660 $782 $665 $731 reversed $586 $-1 #
edge $-1 $732 -4.3416164745263366 $784 4.3416164745263366 $686 $785 forward 7 unknown #
coedge $-1 $662 $661 $718 $783 forward $507 $-1 #
coedge $-1 $786 $734 $661 $723 reversed $674 $-1 #
edge $-1 $728 -8.1386641531521775 $787 8.1386641531521775 $722 $788 forward 7 unknown #
coedge $-1 $686 $681 $662 $725 reversed $341 $-1 #
edge $-1 $784 -8.1386641531521775 $729 8.1386641531521775 $724 $789 forward 7 unknown #
coedge $-1 $790 $663 $681 $746 forward $658 $-1 #
coedge $-1 $663 $790 $786 $791 reversed $658 $-1 #
vertex $-1 $791 $792 #
vertex $-1 $746 $793 #
straight-curve $-1 -71.274147770622875 0 5.5782776287152949 0 1 0 I I #
edge $-1 $732 -47.027842940471224 $735 47.027842940471224 $719 $794 forward 7 unknown #
vertex $-1 $666 $795 #
straight-curve $-1 -79.412811923775052 47.027842940471224 14.261510577767968 -1 0 0 I I #
coedge $-1 $722 $667 $782 $796 forward $674 $-1 #
vertex $-1 $731 $797 #
straight-curve $-1 -79.412811923775052 -47.027842940471224 14.261510577767968 1 0 0 I I #
point $-1 -71.274147770622875 47.027842940471224 14.261510577767968 #
point $-1 -71.274147770622875 -47.027842940471224 14.261510577767968 #
coedge $-1 $673 $786 $798 $799 reversed $674 $-1 #
face $-1 $678 $674 $18 $-1 $800 reversed single #
coedge $-1 $798 $682 $676 $742 forward $748 $-1 #
edge $-1 $684 -47.027842940471224 $743 47.027842940471224 $676 $801 forward 7 unknown #
vertex $-1 $677 $802 #
straight-curve $-1 71.274147770622875 -47.027842940471224 0 0 0 -1 I I #
plane-surface $-1 71.274147770622875 0 0 -1 0 0 0 0 1 forward_v I I I I #
edge $-1 $729 -5.5782776287152949 $749 19.747330967199854 $681 $687 forward 7 unknown #
coedge $-1 $682 $798 $790 $803 forward $748 $-1 #
loop $-1 $-1 $741 $717 #
vertex $-1 $683 $804 #
straight-curve $-1 0 47.027842940471224 -19.747330967199854 1 0 0 I I #
point $-1 71.274147770622875 47.027842940471224 -19.747330967199854 #
straight-curve $-1 -71.274147770622875 -47.027842940471224 0 0 0 -1 I I #
face $-1 $805 $806 $19 $-1 $807 reversed single #
loop $-1 $-1 $808 $690 #
plane-surface $-1 -87.55147607692723 0 9.9198941032416315 1 0 0 0 0 -1 forward_v I I I I #
coedge $-1 $809 $810 $811 $812 reversed $691 $-1 #
coedge $-1 $813 $693 $769 $814 forward $615 $-1 #
coedge $-1 $693 $813 $815 $816 forward $615 $-1 #
coedge $-1 $772 $770 $693 $760 forward $773 $-1 #
edge $-1 $817 -47.027842940471224 $818 47.027842940471224 $759 $819 forward 7 unknown #
coedge $-1 $820 $821 $694 $762 reversed $822 $-1 #
edge $-1 $774 -71.274147770622875 $764 71.274147770622875 $761 $823 forward 7 unknown #
coedge $-1 $777 $695 $821 $824 forward $706 $-1 #
vertex $-1 $696 $825 #
straight-curve $-1 71.274147770622875 0 19.747330967199854 0 1 0 I I #
straight-curve $-1 26.595271852854275 47.027842940471224 3.6763680424533263 1 0 0 I I #
coedge $-1 $826 $699 $827 $828 reversed $526 $-1 #
edge $-1 $707 -3.6763680424533192 $829 19.747330967199854 $705 $830 forward 7 unknown #
coedge $-1 $700 $831 $757 $814 reversed $526 $-1 #
coedge $-1 $759 $701 $700 $771 forward $773 $-1 #
edge $-1 $703 -19.747330967199854 $817 -14.261510577767968 $700 $832 forward 7 unknown #
coedge $-1 $701 $759 $820 $833 reversed $773 $-1 #
loop $-1 $-1 $759 $805 #
vertex $-1 $702 $834 #
straight-curve $-1 -71.274147770622875 0 19.747330967199854 0 -1 0 I I #
point $-1 -71.274147770622875 47.027842940471224 19.747330967199854 #
coedge $-1 $705 $763 $835 $836 reversed $706 $-1 #
face $-1 $-1 $706 $19 $-1 $837 reversed single #
point $-1 71.274147770622875 47.027842940471224 3.6763680424533192 #
point $-1 -71.274147770622875 -47.027842940471224 -19.747330967199854 #
plane-surface $-1 0 0 -19.747330967199854 0 0 1 1 0 0 forward_v I I I I #
coedge $-1 $719 $718 $734 $796 reversed $586 $-1 #
edge $-1 $787 -47.027842940471224 $784 47.027842940471224 $718 $838 forward 7 unknown #
vertex $-1 $725 $839 #
straight-curve $-1 -87.55147607692723 47.027842940471224 9.9198941032416315 0 0 -1 I I #
coedge $-1 $739 $722 $727 $791 forward $674 $-1 #
vertex $-1 $783 $840 #
straight-curve $-1 -79.412811923775052 -47.027842940471224 5.5782776287152949 -1 0 0 I I #
straight-curve $-1 -79.412811923775052 47.027842940471224 5.5782776287152949 1 0 0 I I #
coedge $-1 $727 $726 $747 $803 reversed $658 $-1 #
edge $-1 $728 -5.5782776287152949 $841 19.747330967199854 $727 $752 forward 7 unknown #
point $-1 -71.274147770622875 -47.027842940471224 5.5782776287152949 #
point $-1 -71.274147770622875 47.027842940471224 5.5782776287152949 #
straight-curve $-1 -87.55147607692723 0 14.261510577767968 0 -1 0 I I #
point $-1 -87.55147607692723 47.027842940471224 14.261510577767968 #
edge $-1 $735 -4.3416164745263366 $787 4.3416164745263366 $782 $842 forward 7 unknown #
point $-1 -87.55147607692723 -47.027842940471224 14.261510577767968 #
coedge $-1 $747 $741 $739 $799 forward $748 $-1 #
edge $-1 $743 -71.274147770622875 $841 71.274147770622875 $739 $843 forward 7 unknown #
plane-surface $-1 0 -47.027842940471224 0 0 1 0 0 0 1 forward_v I I I I #
straight-curve $-1 71.274147770622875 0 -19.747330967199854 0 -1 0 I I #
point $-1 71.274147770622875 -47.027842940471224 -19.747330967199854 #
edge $-1 $841 -47.027842940471224 $749 47.027842940471224 $790 $844 forward 7 unknown #
point $-1 -71.274147770622875 47.027842940471224 -19.747330967199854 #
face $-1 $845 $773 $19 $-1 $807 reversed single #
loop $-1 $-1 $811 $753 #
plane-surface $-1 -71.274147770622875 0 0 1 0 0 0 0 -1 forward_v I I I I #
coedge $-1 $846 $847 $831 $848 forward $754 $-1 #
coedge $-1 $849 $756 $850 $851 forward $691 $-1 #
coedge $-1 $756 $849 $852 $853 forward $691 $-1 #
coedge $-1 $854 $855 $756 $812 forward $806 $-1 #
edge $-1 $856 -47.027842940471224 $857 47.027842940471224 $811 $858 forward 7 unknown #
coedge $-1 $758 $757 $847 $859 forward $615 $-1 #
edge $-1 $817 -8.1386641531521775 $860 8.1386641531521775 $769 $861 forward 7 unknown #
coedge $-1 $862 $820 $758 $816 reversed $822 $-1 #
edge $-1 $863 -8.1386641531521775 $818 8.1386641531521775 $815 $864 forward 7 unknown #
vertex $-1 $771 $865 #
vertex $-1 $816 $866 #
straight-curve $-1 -71.274147770622875 0 14.261510577767968 0 -1 0 I I #
coedge $-1 $815 $761 $772 $833 forward $822 $-1 #
coedge $-1 $761 $867 $763 $824 reversed $822 $-1 #
loop $-1 $-1 $820 $868 #
straight-curve $-1 0 -47.027842940471224 19.747330967199854 1 0 0 I I #
edge $-1 $764 -19.747330967199854 $869 19.747330967199854 $763 $870 forward 7 unknown #
point $-1 71.274147770622875 -47.027842940471224 19.747330967199854 #
coedge $-1 $852 $767 $854 $871 reversed $526 $-1 #
coedge $-1 $835 $872 $767 $828 forward $873 $-1 #
edge $-1 $874 -71.274147770622875 $829 71.274147770622875 $767 $875 forward 7 unknown #
vertex $-1 $836 $876 #
straight-curve $-1 71.274147770622875 47.027842940471224 0 0 0 -1 I I #
coedge $-1 $769 $852 $808 $848 reversed $526 $-1 #
straight-curve $-1 -71.274147770622875 47.027842940471224 0 0 0 -1 I I #
edge $-1 $774 -19.747330967199854 $818 -14.261510577767968 $772 $877 forward 7 unknown #
point $-1 -71.274147770622875 -47.027842940471224 19.747330967199854 #
coedge $-1 $878 $827 $777 $836 forward $873 $-1 #
edge $-1 $829 -47.027842940471224 $869 47.027842940471224 $777 $879 forward 7 unknown #
plane-surface $-1 71.274147770622875 0 0 -1 0 0 0 0 1 forward_v I I I I #
straight-curve $-1 -87.55147607692723 0 5.5782776287152949 0 1 0 I I #
point $-1 -87.55147607692723 47.027842940471224 5.5782776287152949 #
point $-1 -87.55147607692723 -47.027842940471224 5.5782776287152949 #
vertex $-1 $803 $880 #
straight-curve $-1 -87.55147607692723 -47.027842940471224 9.9198941032416315 0 0 -1 I I #
straight-curve $-1 0 -47.027842940471224 -19.747330967199854 -1 0 0 I I #
straight-curve $-1 -71.274147770622875 0 -19.747330967199854 0 1 0 I I #
face $-1 $868 $873 $19 $-1 $881 reversed single #
coedge $-1 $882 $808 $849 $883 reversed $754 $-1 #
coedge $-1 $808 $882 $813 $859 reversed $754 $-1 #
edge $-1 $860 -4.3416164745263366 $884 4.3416164745263366 $831 $885 forward 7 unknown #
coedge $-1 $810 $809 $846 $883 forward $691 $-1 #
coedge $-1 $886 $862 $809 $851 reversed $822 $-1 #
edge $-1 $856 -8.1386641531521775 $887 8.1386641531521775 $850 $888 forward 7 unknown #
coedge $-1 $831 $826 $810 $853 reversed $526 $-1 #
edge $-1 $884 -8.1386641531521775 $857 8.1386641531521775 $852 $889 forward 7 unknown #
coedge $-1 $890 $811 $826 $871 forward $806 $-1 #
coedge $-1 $811 $890 $886 $891 reversed $806 $-1 #
vertex $-1 $891 $892 #
vertex $-1 $871 $893 #
straight-curve $-1 -71.274147770622875 0 5.5782776287152949 0 1 0 I I #
edge $-1 $860 -47.027842940471224 $863 47.027842940471224 $847 $894 forward 7 unknown #
vertex $-1 $814 $895 #
straight-curve $-1 -79.412811923775052 47.027842940471224 14.261510577767968 -1 0 0 I I #
coedge $-1 $850 $815 $882 $896 forward $822 $-1 #
vertex $-1 $859 $897 #
straight-curve $-1 -79.412811923775052 -47.027842940471224 14.261510577767968 1 0 0 I I #
point $-1 -71.274147770622875 47.027842940471224 14.261510577767968 #
point $-1 -71.274147770622875 -47.027842940471224 14.261510577767968 #
coedge $-1 $821 $886 $878 $898 reversed $822 $-1 #
face $-1 $778 $822 $19 $-1 $899 reversed single #
vertex $-1 $824 $900 #
straight-curve $-1 71.274147770622875 -47.027842940471224 0 0 0 -1 I I #
edge $-1 $857 -5.5782776287152949 $874 19.747330967199854 $826 $832 forward 7 unknown #
coedge $-1 $827 $878 $890 $901 forward $873 $-1 #
loop $-1 $-1 $835 $845 #
vertex $-1 $828 $902 #
straight-curve $-1 0 47.027842940471224 -19.747330967199854 1 0 0 I I #
point $-1 71.274147770622875 47.027842940471224 -19.747330967199854 #
straight-curve $-1 -71.274147770622875 -47.027842940471224 0 0 0 -1 I I #
coedge $-1 $872 $835 $867 $898 forward $873 $-1 #
straight-curve $-1 71.274147770622875 0 -19.747330967199854 0 -1 0 I I #
point $-1 -71.274147770622875 -47.027842940471224 -19.747330967199854 #
plane-surface $-1 0 0 -19.747330967199854 0 0 1 1 0 0 forward_v I I I I #
coedge $-1 $847 $846 $862 $896 reversed $754 $-1 #
edge $-1 $887 -47.027842940471224 $884 47.027842940471224 $846 $903 forward 7 unknown #
vertex $-1 $853 $904 #
straight-curve $-1 -87.55147607692723 47.027842940471224 9.9198941032416315 0 0 -1 I I #
coedge $-1 $867 $850 $855 $891 forward $822 $-1 #
vertex $-1 $883 $905 #
straight-curve $-1 -79.412811923775052 -47.027842940471224 5.5782776287152949 -1 0 0 I I #
straight-curve $-1 -79.412811923775052 47.027842940471224 5.5782776287152949 1 0 0 I I #
coedge $-1 $855 $854 $872 $901 reversed $806 $-1 #
edge $-1 $856 -5.5782776287152949 $906 19.747330967199854 $855 $877 forward 7 unknown #
point $-1 -71.274147770622875 -47.027842940471224 5.5782776287152949 #
point $-1 -71.274147770622875 47.027842940471224 5.5782776287152949 #
straight-curve $-1 -87.55147607692723 0 14.261510577767968 0 -1 0 I I #
point $-1 -87.55147607692723 47.027842940471224 14.261510577767968 #
edge $-1 $863 -4.3416164745263366 $887 4.3416164745263366 $882 $907 forward 7 unknown #
point $-1 -87.55147607692723 -47.027842940471224 14.261510577767968 #
edge $-1 $869 -71.274147770622875 $906 71.274147770622875 $867 $908 forward 7 unknown #
plane-surface $-1 0 -47.027842940471224 0 0 1 0 0 0 1 forward_v I I I I #
point $-1 71.274147770622875 -47.027842940471224 -19.747330967199854 #
edge $-1 $906 -47.027842940471224 $874 47.027842940471224 $890 $909 forward 7 unknown #
point $-1 -71.274147770622875 47.027842940471224 -19.747330967199854 #
straight-curve $-1 -87.55147607692723 0 5.5782776287152949 0 1 0 I I #
point $-1 -87.55147607692723 47.027842940471224 5.5782776287152949 #
point $-1 -87.55147607692723 -47.027842940471224 5.5782776287152949 #
vertex $-1 $901 $910 #
straight-curve $-1 -87.55147607692723 -47.027842940471224 9.9198941032416315 0 0 -1 I I #
straight-curve $-1 0 -47.027842940471224 -19.747330967199854 -1 0 0 I I #
straight-curve $-1 -71.274147770622875 0 -19.747330967199854 0 1 0 I I #
point $-1 -71.274147770622875 -47.027842940471224 -19.747330967199854 #
End-of-ACIS-data 