500 0 9 0           
7 Unknown 11 ACIS 5.0 NT 24 Fri Mar 26 14:34:25 1999 
-1 9.9999999999999995e-007 1e-010 
body $-1 $9 $-1 $10 #
body $-1 $11 $-1 $12 #
body $-1 $13 $-1 $14 #
body $-1 $15 $-1 $16 #
body $-1 $17 $-1 $18 #
body $-1 $19 $-1 $20 #
body $-1 $21 $-1 $22 #
body $-1 $23 $-1 $24 #
body $-1 $25 $-1 $26 #
lump $-1 $-1 $27 $0 #
transform $-1 1 0 0 0 1 0 0 0 1 59.312112796411022 35.50490734176956 15.188974872424181 1 rotate no_reflect no_shear #
lump $-1 $-1 $28 $1 #
transform $-1 1 0 0 0 1 0 0 0 1 59.312112796411022 35.50490734176956 15.188974872424181 1 rotate no_reflect no_shear #
lump $-1 $-1 $29 $2 #
transform $-1 1 0 0 0 1 0 0 0 1 59.312112796411022 35.50490734176956 15.188974872424181 1 rotate no_reflect no_shear #
lump $-1 $-1 $30 $3 #
transform $-1 1 0 0 0 1 0 0 0 1 59.312112796411022 35.50490734176956 15.188974872424181 1 rotate no_reflect no_shear #
lump $-1 $-1 $31 $4 #
transform $-1 1 0 0 0 1 0 0 0 1 59.312112796411022 35.50490734176956 15.188974872424181 1 rotate no_reflect no_shear #
lump $-1 $-1 $32 $5 #
transform $-1 1 0 0 0 1 0 0 0 1 59.312112796411022 35.50490734176956 15.188974872424181 1 rotate no_reflect no_shear #
lump $-1 $-1 $33 $6 #
transform $-1 1 0 0 0 1 0 0 0 1 59.312112796411022 35.50490734176956 15.188974872424181 1 rotate no_reflect no_shear #
lump $-1 $-1 $34 $7 #
transform $-1 1 0 0 0 1 0 0 0 1 59.312112796411022 35.50490734176956 15.188974872424181 1 rotate no_reflect no_shear #
lump $-1 $-1 $35 $8 #
transform $-1 1 0 0 0 1 0 0 0 1 59.312112796411022 35.50490734176956 15.188974872424181 1 rotate no_reflect no_shear #
shell $-1 $-1 $-1 $36 $-1 $9 #
shell $-1 $-1 $-1 $37 $-1 $11 #
shell $-1 $-1 $-1 $38 $-1 $13 #
shell $-1 $-1 $-1 $39 $-1 $15 #
shell $-1 $-1 $-1 $40 $-1 $17 #
shell $-1 $-1 $-1 $41 $-1 $19 #
shell $-1 $-1 $-1 $42 $-1 $21 #
shell $-1 $-1 $-1 $43 $-1 $23 #
shell $-1 $-1 $-1 $44 $-1 $25 #
face $-1 $45 $46 $27 $-1 $47 forward single #
face $-1 $48 $49 $28 $-1 $50 forward single #
face $-1 $51 $52 $29 $-1 $53 forward single #
face $-1 $54 $55 $30 $-1 $56 reversed single #
face $-1 $57 $58 $31 $-1 $59 forward single #
face $-1 $60 $61 $32 $-1 $62 forward single #
face $-1 $63 $64 $33 $-1 $65 reversed single #
face $-1 $66 $67 $34 $-1 $68 forward single #
face $-1 $69 $70 $35 $-1 $71 forward single #
face $-1 $72 $73 $27 $-1 $74 reversed single #
loop $-1 $-1 $75 $36 #
plane-surface $-1 0 0 15.188974872424181 0 0 1 1 0 0 forward_v I I I I #
face $-1 $76 $77 $28 $-1 $78 reversed single #
loop $-1 $-1 $79 $37 #
plane-surface $-1 0 -35.50490734176956 0 0 1 0 0 0 1 forward_v I I I I #
face $-1 $80 $81 $29 $-1 $82 reversed single #
loop $-1 $-1 $83 $38 #
plane-surface $-1 0 35.50490734176956 0 0 -1 0 0 0 -1 forward_v I I I I #
face $-1 $84 $85 $30 $-1 $86 reversed single #
loop $-1 $-1 $87 $39 #
plane-surface $-1 -162.04370658161352 -22.368247808366547 67.054697437031052 0 1 0 -0.86602541151947299 0 0.49999998660252726 forward_v I I I I #
face $-1 $88 $89 $31 $-1 $90 forward single #
loop $-1 $91 $92 $40 #
cone-surface $-1 -55.681240793797599 -18.11834831792293 10.610560383024227 0.86602541151947299 0 -0.49999998660252726 0.74999997990379086 0 1.2990381172792094 1 I I 0 1 1.5 forward I I I I #
face $-1 $93 $94 $32 $-1 $95 forward single #
loop $-1 $96 $97 $41 #
cone-surface $-1 -55.681240793797599 -11.743499082257507 10.610560383024227 0.86602541151947299 0 -0.49999998660252726 0.74999997990379086 0 1.2990381172792094 1 I I 0 1 1.5 forward I I I I #
face $-1 $98 $99 $33 $-1 $100 reversed single #
loop $-1 $-1 $101 $42 #
plane-surface $-1 102.73159537446733 -7.4935995918138918 169.78629122223356 0 -1 0 -0.86602541151947299 0 -0.49999998660252726 forward_v I I I I #
face $-1 $102 $103 $34 $-1 $104 forward single #
loop $-1 $105 $106 $43 #
cone-surface $-1 55.681240793797606 -18.11834831792293 10.61056038302422 -0.86602541151947299 0 -0.49999998660252726 0.74999997990379086 0 -1.2990381172792094 1 I I 0 1 1.5 forward I I I I #
face $-1 $107 $108 $35 $-1 $109 forward single #
loop $-1 $110 $111 $44 #
cone-surface $-1 55.681240793797606 -11.743499082257507 10.61056038302422 -0.86602541151947299 0 -0.49999998660252726 0.74999997990379086 0 -1.2990381172792094 1 I I 0 1 1.5 forward I I I I #
face $-1 $112 $113 $27 $-1 $114 reversed single #
loop $-1 $-1 $115 $45 #
plane-surface $-1 0 0 -15.188974872424181 0 0 1 1 0 0 forward_v I I I I #
coedge $-1 $116 $117 $118 $119 forward $46 $-1 #
face $-1 $120 $121 $28 $-1 $122 forward single #
loop $-1 $-1 $123 $48 #
plane-surface $-1 -59.312112796411022 0 0 1 0 0 0 0 -1 forward_v I I I I #
coedge $-1 $124 $125 $126 $127 forward $49 $-1 #
face $-1 $128 $129 $29 $-1 $130 forward single #
loop $-1 $-1 $131 $51 #
plane-surface $-1 59.312112796411022 0 0 -1 0 0 0 0 1 forward_v I I I I #
coedge $-1 $132 $133 $134 $135 forward $52 $-1 #
face $-1 $136 $137 $30 $-1 $138 reversed single #
loop $-1 $-1 $139 $54 #
plane-surface $-1 -59.312112796411029 -14.930923700090219 7.7425862298848642 -0.86602541151947299 0 0.49999998660252726 0.49999998660252726 0 0.86602541151947299 forward_v I I I I #
coedge $-1 $140 $141 $142 $143 reversed $55 $-1 #
face $-1 $-1 $144 $31 $-1 $145 forward single #
loop $-1 $146 $147 $57 #
cone-surface $-1 -53.550436899377473 -18.11834831792293 9.3803402249420405 0.86602541151947299 0 -0.49999998660252726 0.37499998995189543 0 0.64951905863960469 1 I I -0.70710678118654668 0.70710678118654835 0.75 forward I I I I #
loop $-1 $-1 $148 $40 #
coedge $-1 $92 $92 $149 $150 reversed $58 $-1 #
face $-1 $-1 $151 $32 $-1 $152 forward single #
loop $-1 $153 $154 $60 #
cone-surface $-1 -53.550436899377473 -11.743499082257507 9.3803402249420405 0.86602541151947299 0 -0.49999998660252726 0.37499998995189543 0 0.64951905863960469 1 I I -0.70710678118654668 0.70710678118654835 0.75 forward I I I I #
loop $-1 $-1 $155 $41 #
coedge $-1 $97 $97 $156 $157 reversed $61 $-1 #
face $-1 $158 $159 $33 $-1 $160 reversed single #
loop $-1 $-1 $161 $63 #
plane-surface $-1 1.5892648406179433e-006 -14.930923700090219 110.47418001508737 0.86602541151947299 0 0.49999998660252726 0.49999998660252726 0 -0.86602541151947299 forward_v I I I I #
coedge $-1 $162 $163 $164 $165 reversed $64 $-1 #
face $-1 $-1 $166 $34 $-1 $167 forward single #
loop $-1 $168 $169 $66 #
cone-surface $-1 53.55043689937748 -18.11834831792293 9.3803402249420333 -0.86602541151947299 0 -0.49999998660252726 0.37499998995189543 0 -0.64951905863960469 1 I I -0.70710678118654668 0.70710678118654835 0.75 forward I I I I #
loop $-1 $-1 $170 $43 #
coedge $-1 $106 $106 $171 $172 reversed $67 $-1 #
face $-1 $-1 $173 $35 $-1 $174 forward single #
loop $-1 $175 $176 $69 #
cone-surface $-1 53.55043689937748 -11.743499082257507 9.3803402249420333 -0.86602541151947299 0 -0.49999998660252726 0.37499998995189543 0 -0.64951905863960469 1 I I -0.70710678118654668 0.70710678118654835 0.75 forward I I I I #
loop $-1 $-1 $177 $44 #
coedge $-1 $111 $111 $178 $179 reversed $70 $-1 #
face $-1 $180 $181 $27 $-1 $182 reversed single #
loop $-1 $-1 $183 $72 #
plane-surface $-1 0 -35.50490734176956 0 0 1 0 0 0 1 forward_v I I I I #
coedge $-1 $184 $185 $186 $187 forward $73 $-1 #
coedge $-1 $188 $75 $189 $190 forward $46 $-1 #
coedge $-1 $75 $188 $191 $192 forward $46 $-1 #
coedge $-1 $193 $194 $75 $119 reversed $195 $-1 #
edge $-1 $196 -35.50490734176956 $197 35.50490734176956 $118 $198 forward 7 unknown #
face $-1 $199 $200 $28 $-1 $201 reversed single #
loop $-1 $-1 $202 $76 #
plane-surface $-1 0 -40.600331655565398 -4.1499566399867565 0 0 1 1 0 0 forward_v I I I I #
coedge $-1 $203 $204 $125 $205 forward $77 $-1 #
coedge $-1 $206 $79 $207 $208 reversed $49 $-1 #
coedge $-1 $79 $206 $123 $205 reversed $49 $-1 #
coedge $-1 $209 $202 $79 $127 reversed $121 $-1 #
edge $-1 $210 -59.312112796411022 $211 59.312112796411022 $126 $212 forward 7 unknown #
face $-1 $213 $214 $29 $-1 $215 reversed single #
loop $-1 $-1 $216 $80 #
plane-surface $-1 0 40.600331655565405 -4.1499566399867565 0 0 1 1 0 0 forward_v I I I I #
coedge $-1 $217 $218 $133 $219 forward $81 $-1 #
coedge $-1 $220 $83 $221 $222 reversed $52 $-1 #
coedge $-1 $83 $220 $131 $219 reversed $52 $-1 #
coedge $-1 $216 $223 $83 $135 reversed $129 $-1 #
edge $-1 $224 -59.312112796411022 $225 59.312112796411022 $134 $226 forward 7 unknown #
face $-1 $227 $228 $30 $-1 $229 reversed single #
loop $-1 $-1 $230 $84 #
plane-surface $-1 -162.04370658161352 -7.4935995918138918 67.054697437031052 0 -1 0 0.86602541151947299 0 -0.49999998660252726 forward_v I I I I #
coedge $-1 $231 $232 $233 $234 reversed $85 $-1 #
coedge $-1 $141 $87 $235 $236 reversed $55 $-1 #
coedge $-1 $87 $140 $231 $237 reversed $55 $-1 #
coedge $-1 $233 $238 $87 $143 forward $239 $-1 #
edge $-1 $240 21.709740494395739 $241 26.008914828061521 $142 $242 forward 7 unknown #
loop $-1 $-1 $149 $88 #
plane-surface $-1 -59.312112796411029 -14.930923700090219 7.7425862298848642 -0.86602541151947299 0 0.49999998660252726 0.49999998660252726 0 0.86602541151947299 forward_v I I I I #
loop $-1 $-1 $243 $57 #
coedge $-1 $147 $147 $148 $244 reversed $89 $-1 #
coedge $-1 $148 $148 $147 $244 forward $91 $-1 #
coedge $-1 $149 $149 $92 $150 forward $144 $-1 #
edge $-1 $245 0 $245 6.2831853071796004 $149 $246 forward 7 unknown #
loop $-1 $-1 $156 $93 #
plane-surface $-1 -59.312112796411029 -14.930923700090219 7.7425862298848642 -0.86602541151947299 0 0.49999998660252726 0.49999998660252726 0 0.86602541151947299 forward_v I I I I #
loop $-1 $-1 $247 $60 #
coedge $-1 $154 $154 $155 $248 reversed $94 $-1 #
coedge $-1 $155 $155 $154 $248 forward $96 $-1 #
coedge $-1 $156 $156 $97 $157 forward $151 $-1 #
edge $-1 $249 0 $249 6.2831853071796004 $156 $250 forward 7 unknown #
face $-1 $251 $252 $33 $-1 $253 forward single #
loop $-1 $-1 $254 $98 #
plane-surface $-1 102.73159537446733 -22.368247808366547 169.78629122223356 0 1 0 0.86602541151947299 0 0.49999998660252726 forward_v I I I I #
coedge $-1 $255 $256 $257 $258 reversed $99 $-1 #
coedge $-1 $163 $101 $259 $260 reversed $64 $-1 #
coedge $-1 $101 $162 $255 $261 reversed $64 $-1 #
coedge $-1 $257 $262 $101 $165 forward $252 $-1 #
edge $-1 $263 -7.9463151091773554 $264 -3.6471407755115806 $164 $265 forward 7 unknown #
loop $-1 $-1 $171 $102 #
plane-surface $-1 1.5892648406179433e-006 -14.930923700090219 110.47418001508737 0.86602541151947299 0 0.49999998660252726 0.49999998660252726 0 -0.86602541151947299 forward_v I I I I #
loop $-1 $-1 $266 $66 #
coedge $-1 $169 $169 $170 $267 reversed $103 $-1 #
coedge $-1 $170 $170 $169 $267 forward $105 $-1 #
coedge $-1 $171 $171 $106 $172 forward $166 $-1 #
edge $-1 $268 0 $268 6.2831853071796004 $171 $269 forward 7 unknown #
loop $-1 $-1 $178 $107 #
plane-surface $-1 1.5892648406179433e-006 -14.930923700090219 110.47418001508737 0.86602541151947299 0 0.49999998660252726 0.49999998660252726 0 -0.86602541151947299 forward_v I I I I #
loop $-1 $-1 $270 $69 #
coedge $-1 $176 $176 $177 $271 reversed $108 $-1 #
coedge $-1 $177 $177 $176 $271 forward $110 $-1 #
coedge $-1 $178 $178 $111 $179 forward $173 $-1 #
edge $-1 $272 0 $272 6.2831853071796004 $178 $273 forward 7 unknown #
face $-1 $274 $275 $27 $-1 $276 reversed single #
loop $-1 $-1 $277 $112 #
plane-surface $-1 -59.312112796411022 0 0 1 0 0 0 0 -1 forward_v I I I I #
coedge $-1 $278 $191 $279 $280 forward $113 $-1 #
coedge $-1 $281 $115 $278 $282 forward $73 $-1 #
coedge $-1 $115 $281 $283 $284 forward $73 $-1 #
coedge $-1 $194 $193 $115 $187 reversed $195 $-1 #
edge $-1 $285 -35.50490734176956 $286 35.50490734176956 $186 $287 forward 7 unknown #
coedge $-1 $117 $116 $288 $289 forward $46 $-1 #
coedge $-1 $290 $291 $116 $190 reversed $275 $-1 #
edge $-1 $197 -59.312112796411022 $292 59.312112796411022 $189 $293 forward 7 unknown #
coedge $-1 $183 $294 $117 $192 reversed $113 $-1 #
edge $-1 $295 -59.312112796411022 $196 59.312112796411022 $191 $296 forward 7 unknown #
coedge $-1 $186 $118 $294 $297 forward $195 $-1 #
coedge $-1 $118 $186 $290 $298 reversed $195 $-1 #
loop $-1 $-1 $193 $274 #
vertex $-1 $119 $299 #
vertex $-1 $119 $300 #
straight-curve $-1 59.312112796411022 0 15.188974872424181 0 1 0 I I #
face $-1 $301 $302 $28 $-1 $303 reversed single #
loop $-1 $-1 $304 $120 #
plane-surface $-1 0 -40.600331655565398 -10.884058436356733 0 0 1 1 0 0 forward_v I I I I #
coedge $-1 $126 $305 $306 $307 forward $121 $-1 #
coedge $-1 $308 $123 $309 $310 reversed $77 $-1 #
coedge $-1 $123 $308 $209 $311 reversed $77 $-1 #
edge $-1 $210 4.1499566399867565 $312 10.884058436356733 $123 $313 forward 7 unknown #
coedge $-1 $125 $124 $314 $315 forward $49 $-1 #
coedge $-1 $306 $316 $124 $208 forward $317 $-1 #
edge $-1 $318 -10.884058436356733 $211 -4.1499566399867565 $207 $319 forward 7 unknown #
coedge $-1 $305 $126 $204 $311 forward $121 $-1 #
vertex $-1 $205 $320 #
vertex $-1 $307 $321 #
straight-curve $-1 0 -35.50490734176956 -4.1499566399867565 1 0 0 I I #
face $-1 $322 $323 $29 $-1 $324 reversed single #
loop $-1 $-1 $325 $128 #
plane-surface $-1 0 40.600331655565405 -10.884058436356733 0 0 1 1 0 0 forward_v I I I I #
coedge $-1 $326 $134 $218 $327 forward $129 $-1 #
coedge $-1 $328 $131 $325 $329 reversed $81 $-1 #
coedge $-1 $131 $328 $216 $327 reversed $81 $-1 #
edge $-1 $224 4.1499566399867565 $330 10.884058436356733 $131 $331 forward 7 unknown #
coedge $-1 $133 $132 $332 $333 forward $52 $-1 #
coedge $-1 $334 $335 $132 $222 forward $336 $-1 #
edge $-1 $337 -10.884058436356733 $225 -4.1499566399867565 $221 $338 forward 7 unknown #
coedge $-1 $134 $326 $334 $339 forward $129 $-1 #
vertex $-1 $219 $340 #
vertex $-1 $339 $341 #
straight-curve $-1 0 35.50490734176956 -4.1499566399867565 -1 0 0 I I #
face $-1 $-1 $239 $30 $-1 $342 forward single #
loop $-1 $-1 $343 $136 #
plane-surface $-1 -59.312112796411022 0 0 1 0 0 0 0 -1 forward_v I I I I #
coedge $-1 $344 $345 $346 $347 reversed $137 $-1 #
coedge $-1 $348 $139 $141 $237 forward $85 $-1 #
coedge $-1 $139 $348 $344 $349 forward $85 $-1 #
coedge $-1 $346 $142 $139 $234 forward $239 $-1 #
edge $-1 $241 -14.902785958321438 $350 -0.028137741768782476 $233 $351 forward 7 unknown #
coedge $-1 $352 $353 $140 $236 forward $228 $-1 #
edge $-1 $354 -25.784762488630648 $240 -18.338373846091343 $235 $355 forward 7 unknown #
edge $-1 $241 -8.5983488977238647 $354 -1.4321304723534956e-014 $141 $356 forward 7 unknown #
coedge $-1 $142 $346 $352 $357 forward $239 $-1 #
loop $-1 $-1 $346 $227 #
vertex $-1 $236 $358 #
vertex $-1 $143 $359 #
straight-curve $-1 -81.02185329080676 -22.368247808366547 15.188974872424183 1 0 0 I I #
coedge $-1 $243 $243 $-1 $360 reversed $146 $-1 #
edge $-1 $361 0 $361 6.2831853071796004 $147 $362 forward 7 unknown #
vertex $-1 $150 $363 #
ellipse-curve $-1 -57.162525629578134 -18.11834831792293 11.465780551154525 -0.86602541151947299 0 0.49999998660252726 0.74999997990379086 0 1.2990381172792094 1 I I #
coedge $-1 $247 $247 $-1 $364 reversed $153 $-1 #
edge $-1 $365 0 $365 6.2831853071796004 $154 $366 forward 7 unknown #
vertex $-1 $157 $367 #
ellipse-curve $-1 -57.162525629578134 -11.743499082257507 11.465780551154525 -0.86602541151947299 0 0.49999998660252726 0.74999997990379086 0 1.2990381172792094 1 I I #
face $-1 $-1 $368 $33 $-1 $369 reversed single #
loop $-1 $-1 $164 $158 #
plane-surface $-1 0 0 15.188974872424181 0 0 1 1 0 0 forward_v I I I I #
coedge $-1 $370 $371 $372 $373 reversed $159 $-1 #
coedge $-1 $374 $161 $163 $261 forward $99 $-1 #
coedge $-1 $161 $374 $370 $375 forward $99 $-1 #
coedge $-1 $372 $164 $161 $258 forward $252 $-1 #
edge $-1 $264 0.028137741768782476 $376 14.902785958321438 $257 $377 forward 7 unknown #
coedge $-1 $378 $379 $162 $260 forward $368 $-1 #
edge $-1 $380 -77.150559381231901 $263 -69.704170738692596 $259 $381 forward 7 unknown #
edge $-1 $264 110.02587669509818 $380 118.62422559282201 $163 $382 forward 7 unknown #
coedge $-1 $164 $372 $378 $383 forward $252 $-1 #
vertex $-1 $260 $384 #
vertex $-1 $165 $385 #
straight-curve $-1 51.365797687233666 -7.4935995918138918 15.188974872424183 -1 0 0 I I #
coedge $-1 $266 $266 $-1 $386 reversed $168 $-1 #
edge $-1 $387 0 $387 6.2831853071796004 $169 $388 forward 7 unknown #
vertex $-1 $172 $389 #
ellipse-curve $-1 57.162525629578134 -18.11834831792293 11.465780551154515 0.86602541151947299 0 0.49999998660252726 0.74999997990379086 0 -1.2990381172792094 1 I I #
coedge $-1 $270 $270 $-1 $390 reversed $175 $-1 #
edge $-1 $391 0 $391 6.2831853071796004 $176 $392 forward 7 unknown #
vertex $-1 $179 $393 #
ellipse-curve $-1 57.162525629578134 -11.743499082257507 11.465780551154515 0.86602541151947299 0 0.49999998660252726 0.74999997990379086 0 -1.2990381172792094 1 I I #
face $-1 $-1 $195 $27 $-1 $394 reversed single #
loop $-1 $-1 $290 $180 #
plane-surface $-1 0 35.50490734176956 0 0 -1 0 0 0 -1 forward_v I I I I #
coedge $-1 $395 $288 $291 $396 forward $181 $-1 #
coedge $-1 $294 $183 $184 $282 reversed $113 $-1 #
coedge $-1 $288 $395 $183 $280 reversed $181 $-1 #
edge $-1 $295 -15.188974872424181 $397 15.188974872424181 $279 $398 forward 7 unknown #
coedge $-1 $185 $184 $395 $399 forward $73 $-1 #
edge $-1 $286 -59.312112796411022 $397 59.312112796411022 $278 $400 forward 7 unknown #
coedge $-1 $291 $290 $185 $284 reversed $275 $-1 #
edge $-1 $401 -59.312112796411022 $285 59.312112796411022 $283 $402 forward 7 unknown #
vertex $-1 $187 $403 #
vertex $-1 $297 $404 #
straight-curve $-1 59.312112796411022 0 -15.188974872424181 0 -1 0 I I #
coedge $-1 $277 $279 $188 $289 reversed $181 $-1 #
edge $-1 $292 -35.50490734176956 $295 35.50490734176956 $288 $405 forward 7 unknown #
coedge $-1 $283 $189 $194 $298 forward $275 $-1 #
coedge $-1 $189 $283 $277 $396 reversed $275 $-1 #
vertex $-1 $190 $406 #
straight-curve $-1 0 35.50490734176956 15.188974872424181 -1 0 0 I I #
coedge $-1 $191 $278 $193 $297 reversed $113 $-1 #
vertex $-1 $289 $407 #
straight-curve $-1 0 -35.50490734176956 15.188974872424181 1 0 0 I I #
edge $-1 $196 -15.188974872424181 $286 15.188974872424181 $193 $408 forward 7 unknown #
edge $-1 $197 -15.188974872424181 $285 15.188974872424181 $194 $409 forward 7 unknown #
point $-1 59.312112796411022 -35.50490734176956 15.188974872424181 #
point $-1 59.312112796411022 35.50490734176956 15.188974872424181 #
face $-1 $-1 $317 $28 $-1 $410 reversed single #
loop $-1 $-1 $411 $199 #
plane-surface $-1 0 -45.695755969361237 -7.5170075381717449 0 1 0 0 0 1 forward_v I I I I #
coedge $-1 $412 $314 $316 $413 forward $200 $-1 #
coedge $-1 $202 $209 $414 $415 forward $121 $-1 #
coedge $-1 $416 $207 $202 $307 reversed $317 $-1 #
edge $-1 $417 -5.0954243137958386 $211 5.0954243137958386 $306 $418 forward 7 unknown #
coedge $-1 $204 $203 $411 $419 reversed $77 $-1 #
coedge $-1 $314 $412 $203 $310 forward $200 $-1 #
edge $-1 $420 -5.0954243137958386 $312 5.0954243137958386 $203 $421 forward 7 unknown #
edge $-1 $210 -5.0954243137958386 $422 5.0954243137958386 $204 $423 forward 7 unknown #
vertex $-1 $205 $424 #
straight-curve $-1 -59.312112796411022 -35.50490734176956 0 0 0 -1 I I #
coedge $-1 $304 $309 $206 $315 reversed $200 $-1 #
edge $-1 $318 -59.312112796411022 $312 59.312112796411022 $314 $425 forward 7 unknown #
coedge $-1 $207 $416 $304 $413 reversed $317 $-1 #
loop $-1 $-1 $207 $301 #
vertex $-1 $208 $426 #
straight-curve $-1 59.312112796411022 -35.50490734176956 0 0 0 1 I I #
point $-1 -59.312112796411022 -35.50490734176956 -4.1499566399867565 #
point $-1 59.312112796411022 -35.50490734176956 -4.1499566399867565 #
face $-1 $-1 $336 $29 $-1 $427 reversed single #
loop $-1 $-1 $428 $213 #
plane-surface $-1 0 45.695755969361244 -7.5170075381717449 0 -1 0 0 0 -1 forward_v I I I I #
coedge $-1 $332 $429 $217 $329 forward $214 $-1 #
coedge $-1 $223 $216 $430 $431 forward $129 $-1 #
edge $-1 $224 -5.0954243137958386 $432 5.0954243137958386 $218 $433 forward 7 unknown #
coedge $-1 $218 $217 $428 $434 reversed $81 $-1 #
edge $-1 $435 -5.0954243137958386 $330 5.0954243137958386 $217 $436 forward 7 unknown #
vertex $-1 $219 $437 #
straight-curve $-1 59.312112796411022 35.50490734176956 0 0 0 -1 I I #
coedge $-1 $438 $325 $220 $333 reversed $214 $-1 #
edge $-1 $337 -59.312112796411022 $330 59.312112796411022 $332 $439 forward 7 unknown #
coedge $-1 $440 $221 $223 $339 reversed $336 $-1 #
coedge $-1 $221 $440 $438 $441 reversed $336 $-1 #
loop $-1 $-1 $221 $322 #
vertex $-1 $222 $442 #
straight-curve $-1 -59.312112796411022 35.50490734176956 0 0 0 1 I I #
edge $-1 $443 -5.0954243137958386 $225 5.0954243137958386 $334 $444 forward 7 unknown #
point $-1 59.312112796411022 35.504907341769567 -4.1499566399867565 #
point $-1 -59.312112796411022 35.504907341769567 -4.1499566399867565 #
plane-surface $-1 0 0 15.188974872424181 0 0 1 1 0 0 forward_v I I I I #
coedge $-1 $353 $352 $345 $445 forward $228 $-1 #
coedge $-1 $345 $230 $232 $349 reversed $137 $-1 #
coedge $-1 $230 $344 $343 $445 reversed $137 $-1 #
coedge $-1 $238 $233 $230 $347 forward $239 $-1 #
edge $-1 $350 -26.008914828061521 $446 -21.709740494395739 $346 $447 forward 7 unknown #
coedge $-1 $232 $231 $353 $448 reversed $85 $-1 #
edge $-1 $449 1.4321304723534956e-014 $350 8.5983488977238647 $344 $450 forward 7 unknown #
vertex $-1 $234 $451 #
straight-curve $-1 -55.01293846274524 -7.4654618500451093 15.188974872424181 0 1 0 I I #
coedge $-1 $343 $235 $238 $357 reversed $228 $-1 #
coedge $-1 $235 $343 $348 $448 forward $228 $-1 #
vertex $-1 $236 $452 #
straight-curve $-1 -59.312112796411022 -22.368247808366547 33.527348718515526 0 0 1 I I #
straight-curve $-1 -59.312112796411029 -22.368247808366547 7.7425862298848642 -0.49999998660252726 0 -0.86602541151947299 I I #
edge $-1 $446 7.4935995918138918 $240 22.368247808366547 $352 $453 forward 7 unknown #
point $-1 -59.312112796411022 -22.368247808366547 15.188974872424181 #
point $-1 -55.01293846274524 -22.368247808366547 15.188974872424181 #
edge $-1 $454 1 $454 0 $243 $-1 forward 7 unknown #
vertex $-1 $244 $455 #
ellipse-curve $-1 -54.199955958017078 -18.11834831792293 9.7553402148939377 -0.86602541151947299 0 0.49999998660252726 0.74999997990379086 0 1.2990381172792094 1 I I #
point $-1 -56.412525649674336 -18.11834831792293 12.764818668433728 #
edge $-1 $456 1 $456 0 $247 $-1 forward 7 unknown #
vertex $-1 $248 $457 #
ellipse-curve $-1 -54.199955958017078 -11.743499082257507 9.7553402148939377 -0.86602541151947299 0 0.49999998660252726 0.74999997990379086 0 1.2990381172792094 1 I I #
point $-1 -56.412525649674336 -11.743499082257507 12.764818668433728 #
loop $-1 $-1 $259 $251 #
plane-surface $-1 59.312112796411022 0 0 -1 0 0 0 0 1 forward_v I I I I #
coedge $-1 $371 $254 $256 $375 reversed $159 $-1 #
coedge $-1 $254 $370 $458 $459 reversed $159 $-1 #
coedge $-1 $262 $257 $254 $373 forward $252 $-1 #
edge $-1 $376 3.6471407755115806 $460 7.9463151091773554 $372 $461 forward 7 unknown #
coedge $-1 $256 $255 $379 $462 reversed $99 $-1 #
edge $-1 $463 -118.62422559282201 $376 -110.02587669509818 $370 $464 forward 7 unknown #
vertex $-1 $258 $465 #
straight-curve $-1 55.01293846274524 -7.4654618500451093 15.18897487242419 0 -1 0 I I #
coedge $-1 $458 $259 $262 $383 reversed $368 $-1 #
coedge $-1 $259 $458 $374 $462 forward $368 $-1 #
vertex $-1 $260 $466 #
straight-curve $-1 59.312112796411022 -7.4935995918138918 84.893145611116779 0 0 1 I I #
straight-curve $-1 1.5892648406179433e-006 -7.4935995918138918 110.47418001508737 0.49999998660252726 0 -0.86602541151947299 I I #
edge $-1 $460 -22.368247808366547 $263 -7.4935995918138918 $378 $467 forward 7 unknown #
point $-1 59.312112796411022 -7.4935995918138918 15.188974872424181 #
point $-1 55.012938462745247 -7.4935995918138918 15.188974872424183 #
edge $-1 $468 1 $468 0 $266 $-1 forward 7 unknown #
vertex $-1 $267 $469 #
ellipse-curve $-1 54.199955958017085 -18.11834831792293 9.7553402148939306 0.86602541151947299 0 0.49999998660252726 0.74999997990379086 0 -1.2990381172792094 1 I I #
point $-1 57.912525609481918 -18.11834831792293 10.166742433875301 #
edge $-1 $470 1 $470 0 $270 $-1 forward 7 unknown #
vertex $-1 $271 $471 #
ellipse-curve $-1 54.199955958017085 -11.743499082257507 9.7553402148939306 0.86602541151947299 0 0.49999998660252726 0.74999997990379086 0 -1.2990381172792094 1 I I #
point $-1 57.912525609481918 -11.743499082257507 10.166742433875301 #
plane-surface $-1 59.312112796411022 0 0 -1 0 0 0 0 1 forward_v I I I I #
coedge $-1 $279 $277 $281 $399 reversed $181 $-1 #
edge $-1 $292 -15.188974872424181 $401 15.188974872424181 $291 $472 forward 7 unknown #
vertex $-1 $399 $473 #
straight-curve $-1 -59.312112796411022 -35.50490734176956 0 0 0 -1 I I #
edge $-1 $397 -35.50490734176956 $401 35.50490734176956 $395 $474 forward 7 unknown #
straight-curve $-1 0 -35.50490734176956 -15.188974872424181 -1 0 0 I I #
vertex $-1 $284 $475 #
straight-curve $-1 0 35.50490734176956 -15.188974872424181 1 0 0 I I #
point $-1 59.312112796411022 35.50490734176956 -15.188974872424181 #
point $-1 59.312112796411022 -35.50490734176956 -15.188974872424181 #
straight-curve $-1 -59.312112796411022 0 15.188974872424181 0 -1 0 I I #
point $-1 -59.312112796411022 35.50490734176956 15.188974872424181 #
point $-1 -59.312112796411022 -35.50490734176956 15.188974872424181 #
straight-curve $-1 59.312112796411022 -35.50490734176956 0 0 0 -1 I I #
straight-curve $-1 59.312112796411022 35.50490734176956 0 0 0 -1 I I #
plane-surface $-1 59.312112796411022 0 0 -1 0 0 0 0 1 forward_v I I I I #
coedge $-1 $476 $414 $308 $419 forward $302 $-1 #
coedge $-1 $309 $304 $476 $477 forward $200 $-1 #
edge $-1 $318 -5.0954243137958386 $478 5.0954243137958386 $316 $479 forward 7 unknown #
coedge $-1 $411 $480 $305 $415 reversed $302 $-1 #
edge $-1 $422 -59.312112796411022 $417 59.312112796411022 $414 $481 forward 7 unknown #
coedge $-1 $316 $306 $480 $482 forward $317 $-1 #
vertex $-1 $307 $483 #
straight-curve $-1 59.312112796411022 -40.600331655565398 -4.1499566399867565 0 1 0 I I #
edge $-1 $422 -3.3670508981849885 $420 3.3670508981849885 $308 $484 forward 7 unknown #
vertex $-1 $310 $485 #
straight-curve $-1 -59.312112796411022 -40.600331655565398 -10.884058436356733 0 1 0 I I #
vertex $-1 $311 $486 #
straight-curve $-1 -59.312112796411022 -40.600331655565398 -4.1499566399867565 0 -1 0 I I #
point $-1 -59.312112796411022 -35.50490734176956 -10.884058436356733 #
straight-curve $-1 0 -35.50490734176956 -10.884058436356733 -1 0 0 I I #
point $-1 59.312112796411022 -35.50490734176956 -10.884058436356733 #
plane-surface $-1 -59.312112796411022 0 0 1 0 0 0 0 -1 forward_v I I I I #
coedge $-1 $487 $430 $328 $434 forward $323 $-1 #
coedge $-1 $325 $438 $487 $488 forward $214 $-1 #
coedge $-1 $428 $489 $326 $431 reversed $323 $-1 #
edge $-1 $432 -59.312112796411022 $443 59.312112796411022 $430 $490 forward 7 unknown #
vertex $-1 $327 $491 #
straight-curve $-1 59.312112796411022 40.600331655565405 -4.1499566399867565 0 1 0 I I #
edge $-1 $432 -3.3670508981849885 $435 3.3670508981849885 $328 $492 forward 7 unknown #
vertex $-1 $329 $493 #
straight-curve $-1 59.312112796411022 40.600331655565405 -10.884058436356733 0 -1 0 I I #
point $-1 59.312112796411022 35.504907341769567 -10.884058436356733 #
coedge $-1 $429 $332 $335 $441 forward $214 $-1 #
straight-curve $-1 0 35.50490734176956 -10.884058436356733 1 0 0 I I #
coedge $-1 $335 $334 $489 $494 forward $336 $-1 #
edge $-1 $337 -5.0954243137958386 $495 5.0954243137958386 $335 $496 forward 7 unknown #
point $-1 -59.312112796411022 35.504907341769567 -10.884058436356733 #
vertex $-1 $431 $497 #
straight-curve $-1 -59.312112796411022 40.600331655565405 -4.1499566399867565 0 -1 0 I I #
edge $-1 $446 18.338373846091343 $449 25.784762488630648 $343 $498 forward 7 unknown #
vertex $-1 $357 $499 #
straight-curve $-1 -81.02185329080676 -7.4935995918138918 15.188974872424183 -1 0 0 I I #
edge $-1 $449 0.028137741768782476 $354 14.902785958321438 $353 $500 forward 7 unknown #
vertex $-1 $448 $501 #
straight-curve $-1 -59.312112796411029 -7.4935995918138918 7.7425862298848642 0.49999998660252726 0 0.86602541151947299 I I #
point $-1 -55.01293846274524 -7.4935995918138918 15.188974872424181 #
point $-1 -59.312112796411022 -22.368247808366547 7.7425862298848767 #
straight-curve $-1 -59.312112796411022 0 15.188974872424181 0 -1 0 I I #
vertex $-1 $360 $502 #
point $-1 -53.449955978113287 -18.11834831792293 11.054378332173146 #
vertex $-1 $364 $503 #
point $-1 -53.449955978113287 -11.743499082257507 11.054378332173146 #
coedge $-1 $379 $378 $371 $459 forward $368 $-1 #
edge $-1 $460 69.704170738692596 $463 77.150559381231901 $458 $504 forward 7 unknown #
vertex $-1 $383 $505 #
straight-curve $-1 51.365797687233666 -22.368247808366547 15.188974872424183 1 0 0 I I #
edge $-1 $463 -14.902785958321438 $380 -0.028137741768782476 $379 $506 forward 7 unknown #
vertex $-1 $462 $507 #
straight-curve $-1 1.5892648406179433e-006 -22.368247808366547 110.47418001508737 -0.49999998660252726 0 0.86602541151947299 I I #
point $-1 55.012938462745247 -22.368247808366547 15.188974872424183 #
point $-1 59.312112796411022 -7.4935995918138918 7.7425862298848784 #
straight-curve $-1 59.312112796411022 0 15.188974872424181 0 1 0 I I #
vertex $-1 $386 $508 #
point $-1 54.949955937920876 -18.11834831792293 8.4563020976147207 #
vertex $-1 $390 $509 #
point $-1 54.949955937920876 -11.743499082257507 8.4563020976147207 #
straight-curve $-1 -59.312112796411022 35.50490734176956 0 0 0 -1 I I #
point $-1 -59.312112796411022 -35.50490734176956 -15.188974872424181 #
straight-curve $-1 -59.312112796411022 0 -15.188974872424181 0 1 0 I I #
point $-1 -59.312112796411022 35.50490734176956 -15.188974872424181 #
coedge $-1 $480 $411 $412 $477 reversed $302 $-1 #
edge $-1 $478 -59.312112796411022 $420 59.312112796411022 $476 $510 forward 7 unknown #
vertex $-1 $482 $511 #
straight-curve $-1 59.312112796411022 -40.600331655565398 -10.884058436356733 0 -1 0 I I #
coedge $-1 $414 $476 $416 $482 reversed $302 $-1 #
straight-curve $-1 0 -45.695755969361237 -4.1499566399867565 1 0 0 I I #
edge $-1 $417 -3.3670508981849885 $478 3.3670508981849885 $416 $512 forward 7 unknown #
point $-1 59.312112796411022 -45.695755969361237 -4.1499566399867565 #
straight-curve $-1 -59.312112796411022 -45.695755969361237 -7.5170075381717449 0 0 -1 I I #
point $-1 -59.312112796411022 -45.695755969361237 -10.884058436356733 #
point $-1 -59.312112796411022 -45.695755969361237 -4.1499566399867565 #
coedge $-1 $489 $428 $429 $488 reversed $323 $-1 #
edge $-1 $495 -59.312112796411022 $435 59.312112796411022 $487 $513 forward 7 unknown #
coedge $-1 $430 $487 $440 $494 reversed $323 $-1 #
straight-curve $-1 0 45.695755969361244 -4.1499566399867565 -1 0 0 I I #
point $-1 59.312112796411022 45.695755969361244 -4.1499566399867565 #
straight-curve $-1 59.312112796411022 45.695755969361244 -7.5170075381717449 0 0 -1 I I #
point $-1 59.312112796411022 45.695755969361244 -10.884058436356733 #
edge $-1 $443 -3.3670508981849885 $495 3.3670508981849885 $489 $514 forward 7 unknown #
vertex $-1 $488 $515 #
straight-curve $-1 -59.312112796411022 40.600331655565405 -10.884058436356733 0 1 0 I I #
point $-1 -59.312112796411022 45.695755969361244 -4.1499566399867565 #
straight-curve $-1 -59.312112796411022 -7.4935995918138918 33.527348718515526 0 0 -1 I I #
point $-1 -59.312112796411022 -7.4935995918138918 15.188974872424181 #
straight-curve $-1 -59.312112796411022 -7.4654618500451093 7.7425862298848873 0 -1 0 I I #
point $-1 -59.312112796411022 -7.4935995918138918 7.7425862298848767 #
point $-1 -52.900917840737868 -18.11834831792293 9.0053402349901432 #
point $-1 -52.900917840737868 -11.743499082257507 9.0053402349901432 #
straight-curve $-1 59.312112796411022 -22.368247808366547 84.893145611116779 0 0 -1 I I #
point $-1 59.312112796411022 -22.368247808366547 15.188974872424181 #
straight-curve $-1 59.312112796411022 -7.4654618500451093 7.7425862298848784 0 1 0 I I #
point $-1 59.312112796411022 -22.368247808366547 7.7425862298848784 #
point $-1 52.900917840737876 -18.11834831792293 9.0053402349901361 #
point $-1 52.900917840737876 -11.743499082257507 9.0053402349901361 #
straight-curve $-1 0 -45.695755969361237 -10.884058436356733 -1 0 0 I I #
point $-1 59.312112796411022 -45.695755969361237 -10.884058436356733 #
straight-curve $-1 59.312112796411022 -45.695755969361237 -7.5170075381717449 0 0 -1 I I #
straight-curve $-1 0 45.695755969361244 -10.884058436356733 1 0 0 I I #
straight-curve $-1 -59.312112796411022 45.695755969361244 -7.5170075381717449 0 0 -1 I I #
point $-1 -59.312112796411022 45.695755969361244 -10.884058436356733 #
End-of-ACIS-data 