500 0 7 0           
7 Unknown 11 ACIS 5.0 NT 24 Thu Mar 25 17:57:44 1999 
-1 9.9999999999999995e-007 1e-010 
body $-1 $7 $-1 $8 #
body $-1 $9 $-1 $10 #
body $-1 $11 $-1 $12 #
body $-1 $13 $-1 $14 #
body $-1 $15 $-1 $16 #
body $-1 $17 $-1 $18 #
body $-1 $19 $-1 $20 #
lump $-1 $-1 $21 $0 #
transform $-1 1 0 0 0 1 0 0 0 1 58.56501968443861 38.843762712543239 9.9961015753953184 1 rotate no_reflect no_shear #
lump $-1 $-1 $22 $1 #
transform $-1 1 0 0 0 1 0 0 0 1 58.56501968443861 38.843762712543239 9.9961015753953184 1 rotate no_reflect no_shear #
lump $-1 $-1 $23 $2 #
transform $-1 1 0 0 0 1 0 0 0 1 58.56501968443861 38.843762712543239 9.9961015753953184 1 rotate no_reflect no_shear #
lump $-1 $-1 $24 $3 #
transform $-1 1 0 0 0 1 0 0 0 1 58.56501968443861 38.843762712543239 9.9961015753953184 1 rotate no_reflect no_shear #
lump $-1 $-1 $25 $4 #
transform $-1 1 0 0 0 1 0 0 0 1 58.56501968443861 38.843762712543239 9.9961015753953184 1 rotate no_reflect no_shear #
lump $-1 $-1 $26 $5 #
transform $-1 1 0 0 0 1 0 0 0 1 58.56501968443861 38.843762712543239 9.9961015753953184 1 rotate no_reflect no_shear #
lump $-1 $-1 $27 $6 #
transform $-1 1 0 0 0 1 0 0 0 1 58.56501968443861 38.843762712543239 9.9961015753953184 1 rotate no_reflect no_shear #
shell $-1 $-1 $-1 $28 $-1 $7 #
shell $-1 $-1 $-1 $29 $-1 $9 #
shell $-1 $-1 $-1 $30 $-1 $11 #
shell $-1 $-1 $-1 $31 $-1 $13 #
shell $-1 $-1 $-1 $32 $-1 $15 #
shell $-1 $-1 $-1 $33 $-1 $17 #
shell $-1 $-1 $-1 $34 $-1 $19 #
face $-1 $35 $36 $21 $-1 $37 forward single #
face $-1 $38 $39 $22 $-1 $40 reversed single #
face $-1 $41 $42 $23 $-1 $43 reversed single #
face $-1 $44 $45 $24 $-1 $46 reversed single #
face $-1 $47 $48 $25 $-1 $49 forward single #
face $-1 $50 $51 $26 $-1 $52 forward single #
face $-1 $53 $54 $27 $-1 $55 forward single #
face $-1 $56 $57 $21 $-1 $58 reversed single #
loop $-1 $-1 $59 $28 #
plane-surface $-1 0 0 9.9961015753953184 0 0 1 1 0 0 forward_v I I I I #
face $-1 $60 $61 $22 $-1 $62 reversed single #
loop $-1 $-1 $63 $29 #
plane-surface $-1 -51.970210111992891 0 6.0633721876255766 0 0 1 1 0 0 forward_v I I I I #
face $-1 $64 $65 $23 $-1 $66 reversed single #
loop $-1 $-1 $67 $30 #
plane-surface $-1 51.970210111992898 0 6.0633721876255766 0 0 1 1 0 0 forward_v I I I I #
face $-1 $68 $69 $24 $-1 $70 reversed single #
loop $-1 $-1 $71 $31 #
plane-surface $-1 20.358068740256691 99.231770780734294 130.49180285272237 1 0 0 0 -0.85716730853699208 -0.51503806187062418 forward_v I I I I #
face $-1 $72 $73 $25 $-1 $74 forward single #
loop $-1 $75 $76 $32 #
cone-surface $-1 25.361535100114779 35.473503230170593 5.9193448842613066 0 -0.85716730853699208 -0.51503806187062418 1 0 0 1 I I 0 1 1 forward I I I I #
face $-1 $77 $78 $26 $-1 $79 forward single #
loop $-1 $80 $81 $33 #
cone-surface $-1 32.866734639901921 35.473503230170593 5.9193448842613066 0 -0.85716730853699208 -0.51503806187062418 1 0 0 1 I I 0 1 1 forward I I I I #
face $-1 $82 $83 $27 $-1 $84 forward single #
loop $-1 $85 $86 $34 #
cone-surface $-1 40.371934179689063 35.473503230170593 5.9193448842613066 0 -0.85716730853699208 -0.51503806187062418 1 0 0 1 I I 0 1 1 forward I I I I #
face $-1 $87 $88 $21 $-1 $89 reversed single #
loop $-1 $-1 $90 $35 #
plane-surface $-1 0 0 -9.9961015753953184 0 0 1 1 0 0 forward_v I I I I #
coedge $-1 $91 $92 $93 $94 forward $36 $-1 #
face $-1 $95 $96 $22 $-1 $97 reversed single #
loop $-1 $-1 $98 $38 #
plane-surface $-1 -45.375400539547172 0 8.0297368815104484 -1 0 0 0 0 1 forward_v I I I I #
coedge $-1 $99 $100 $101 $102 forward $39 $-1 #
face $-1 $103 $104 $23 $-1 $105 forward single #
loop $-1 $-1 $106 $41 #
plane-surface $-1 45.375400539547179 0 8.0297368815104484 1 0 0 0 0 -1 forward_v I I I I #
coedge $-1 $107 $108 $109 $110 reversed $42 $-1 #
face $-1 $111 $112 $24 $-1 $113 forward single #
loop $-1 $-1 $114 $44 #
plane-surface $-1 32.866734639901935 -1.1682698139181156 70.165374389345942 0 0.85716730853699208 0.51503806187062418 1 0 0 forward_v I I I I #
coedge $-1 $115 $116 $117 $118 reversed $45 $-1 #
face $-1 $-1 $119 $25 $-1 $120 forward single #
loop $-1 $121 $122 $47 #
cone-surface $-1 25.361535100114779 33.604003724929029 4.7960362929769325 0 -0.85716730853699208 -0.51503806187062418 0.5 0 0 1 I I -0.70710678118654746 0.70710678118654746 0.5 forward I I I I #
loop $-1 $-1 $123 $32 #
coedge $-1 $76 $76 $124 $125 reversed $48 $-1 #
face $-1 $-1 $126 $26 $-1 $127 forward single #
loop $-1 $128 $129 $50 #
cone-surface $-1 32.866734639901921 33.604003724929029 4.7960362929769325 0 -0.85716730853699208 -0.51503806187062418 0.5 0 0 1 I I -0.70710678118654746 0.70710678118654746 0.5 forward I I I I #
loop $-1 $-1 $130 $33 #
coedge $-1 $81 $81 $131 $132 reversed $51 $-1 #
face $-1 $-1 $133 $27 $-1 $134 forward single #
loop $-1 $135 $136 $53 #
cone-surface $-1 40.371934179689063 33.604003724929029 4.7960362929769325 0 -0.85716730853699208 -0.51503806187062418 0.5 0 0 1 I I -0.70710678118654746 0.70710678118654746 0.5 forward I I I I #
loop $-1 $-1 $137 $34 #
coedge $-1 $86 $86 $138 $139 reversed $54 $-1 #
face $-1 $140 $141 $21 $-1 $142 reversed single #
loop $-1 $-1 $143 $56 #
plane-surface $-1 0 -38.843762712543239 0 0 1 0 0 0 1 forward_v I I I I #
coedge $-1 $144 $145 $146 $147 forward $57 $-1 #
coedge $-1 $148 $59 $149 $150 forward $36 $-1 #
coedge $-1 $59 $148 $151 $152 forward $36 $-1 #
coedge $-1 $153 $154 $59 $94 reversed $155 $-1 #
edge $-1 $156 -38.843762712543239 $157 38.843762712543239 $93 $158 forward 7 unknown #
face $-1 $159 $160 $22 $-1 $161 reversed single #
loop $-1 $-1 $162 $60 #
plane-surface $-1 0 38.843762712543239 0 0 -1 0 0 0 -1 forward_v I I I I #
coedge $-1 $101 $163 $164 $165 reversed $61 $-1 #
coedge $-1 $166 $63 $167 $168 reversed $39 $-1 #
coedge $-1 $63 $166 $169 $170 reversed $39 $-1 #
coedge $-1 $171 $98 $63 $102 reversed $61 $-1 #
edge $-1 $172 -38.843762712543239 $173 38.843762712543239 $101 $174 forward 7 unknown #
face $-1 $175 $176 $23 $-1 $177 reversed single #
loop $-1 $-1 $178 $64 #
plane-surface $-1 0 0 9.9961015753953184 0 0 1 1 0 0 forward_v I I I I #
coedge $-1 $179 $180 $181 $182 reversed $65 $-1 #
coedge $-1 $181 $67 $183 $184 reversed $42 $-1 #
coedge $-1 $67 $181 $185 $186 reversed $42 $-1 #
coedge $-1 $187 $188 $67 $110 forward $189 $-1 #
edge $-1 $190 -38.843762712543239 $191 38.843762712543239 $109 $192 forward 7 unknown #
face $-1 $193 $194 $24 $-1 $195 forward single #
loop $-1 $-1 $117 $68 #
plane-surface $-1 0 0 9.9961015753953184 0 0 1 1 0 0 forward_v I I I I #
coedge $-1 $196 $197 $198 $199 reversed $69 $-1 #
coedge $-1 $116 $71 $200 $201 reversed $45 $-1 #
coedge $-1 $71 $115 $196 $202 reversed $45 $-1 #
coedge $-1 $198 $203 $71 $118 forward $112 $-1 #
edge $-1 $204 10.772122677823909 $205 14.630809940623024 $117 $206 forward 7 unknown #
loop $-1 $-1 $124 $72 #
plane-surface $-1 32.866734639901935 -1.1682698139181156 70.165374389345942 0 0.85716730853699208 0.51503806187062418 1 0 0 forward_v I I I I #
loop $-1 $-1 $207 $47 #
coedge $-1 $122 $122 $123 $208 reversed $73 $-1 #
coedge $-1 $123 $123 $122 $208 forward $75 $-1 #
coedge $-1 $124 $124 $76 $125 forward $119 $-1 #
edge $-1 $209 4.4106597766093829e-016 $209 6.2831853071796004 $124 $210 forward 7 unknown #
loop $-1 $-1 $131 $77 #
plane-surface $-1 32.866734639901935 -1.1682698139181156 70.165374389345942 0 0.85716730853699208 0.51503806187062418 1 0 0 forward_v I I I I #
loop $-1 $-1 $211 $50 #
coedge $-1 $129 $129 $130 $212 reversed $78 $-1 #
coedge $-1 $130 $130 $129 $212 forward $80 $-1 #
coedge $-1 $131 $131 $81 $132 forward $126 $-1 #
edge $-1 $213 4.4106597766093829e-016 $213 6.2831853071796004 $131 $214 forward 7 unknown #
loop $-1 $-1 $138 $82 #
plane-surface $-1 32.866734639901935 -1.1682698139181156 70.165374389345942 0 0.85716730853699208 0.51503806187062418 1 0 0 forward_v I I I I #
loop $-1 $-1 $215 $53 #
coedge $-1 $136 $136 $137 $216 reversed $83 $-1 #
coedge $-1 $137 $137 $136 $216 forward $85 $-1 #
coedge $-1 $138 $138 $86 $139 forward $133 $-1 #
edge $-1 $217 4.4106597766093829e-016 $217 6.2831853071796004 $138 $218 forward 7 unknown #
face $-1 $219 $220 $21 $-1 $221 reversed single #
loop $-1 $-1 $222 $87 #
plane-surface $-1 -58.56501968443861 0 0 1 0 0 0 0 -1 forward_v I I I I #
coedge $-1 $223 $151 $224 $225 forward $88 $-1 #
coedge $-1 $226 $90 $223 $227 forward $57 $-1 #
coedge $-1 $90 $226 $228 $229 forward $57 $-1 #
coedge $-1 $154 $153 $90 $147 reversed $155 $-1 #
edge $-1 $230 -38.843762712543239 $231 38.843762712543239 $146 $232 forward 7 unknown #
coedge $-1 $92 $91 $233 $234 forward $36 $-1 #
coedge $-1 $235 $236 $91 $150 reversed $220 $-1 #
edge $-1 $157 -58.56501968443861 $237 58.56501968443861 $149 $238 forward 7 unknown #
coedge $-1 $143 $239 $92 $152 reversed $88 $-1 #
edge $-1 $240 -58.56501968443861 $156 58.56501968443861 $151 $241 forward 7 unknown #
coedge $-1 $146 $93 $239 $242 forward $155 $-1 #
coedge $-1 $93 $146 $235 $243 reversed $155 $-1 #
loop $-1 $-1 $153 $219 #
vertex $-1 $94 $244 #
vertex $-1 $94 $245 #
straight-curve $-1 58.56501968443861 0 9.9961015753953184 0 1 0 I I #
face $-1 $246 $247 $22 $-1 $248 forward single #
loop $-1 $-1 $249 $95 #
plane-surface $-1 -58.56501968443861 0 0 1 0 0 0 0 -1 forward_v I I I I #
coedge $-1 $169 $250 $171 $251 forward $96 $-1 #
coedge $-1 $98 $171 $252 $253 reversed $61 $-1 #
coedge $-1 $254 $167 $98 $165 forward $255 $-1 #
edge $-1 $173 2.0485037468703524 $256 5.981233134640096 $164 $257 forward 7 unknown #
coedge $-1 $100 $99 $249 $258 reversed $39 $-1 #
coedge $-1 $164 $259 $99 $168 forward $255 $-1 #
edge $-1 $260 -32.579914628442168 $173 -19.390295483550727 $167 $261 forward 7 unknown #
coedge $-1 $262 $162 $100 $170 forward $96 $-1 #
edge $-1 $172 19.390295483550727 $263 32.579914628442168 $169 $264 forward 7 unknown #
coedge $-1 $163 $101 $162 $251 reversed $61 $-1 #
vertex $-1 $170 $265 #
vertex $-1 $168 $266 #
straight-curve $-1 -45.375400539547172 0 6.0633721876255766 0 -1 0 I I #
face $-1 $267 $268 $23 $-1 $269 reversed single #
loop $-1 $-1 $270 $103 #
plane-surface $-1 0 -38.843762712543239 0 0 1 0 0 0 1 forward_v I I I I #
coedge $-1 $271 $272 $273 $274 forward $104 $-1 #
coedge $-1 $273 $106 $270 $275 reversed $65 $-1 #
coedge $-1 $106 $273 $276 $277 reversed $65 $-1 #
coedge $-1 $108 $107 $106 $182 forward $42 $-1 #
edge $-1 $278 -38.843762712543239 $279 38.843762712543239 $106 $280 forward 7 unknown #
coedge $-1 $281 $270 $107 $184 forward $176 $-1 #
edge $-1 $278 19.39029548355073 $190 32.579914628442168 $183 $282 forward 7 unknown #
coedge $-1 $276 $283 $108 $186 forward $268 $-1 #
edge $-1 $191 -32.579914628442168 $279 -19.39029548355073 $185 $284 forward 7 unknown #
coedge $-1 $285 $109 $283 $286 reversed $189 $-1 #
coedge $-1 $109 $285 $281 $287 forward $189 $-1 #
loop $-1 $-1 $109 $267 #
vertex $-1 $184 $288 #
vertex $-1 $110 $289 #
straight-curve $-1 58.56501968443861 0 6.0633721876255766 0 1 0 I I #
face $-1 $-1 $290 $24 $-1 $291 reversed single #
loop $-1 $-1 $292 $111 #
plane-surface $-1 45.375400539547179 0 8.0297368815104484 1 0 0 0 0 -1 forward_v I I I I #
coedge $-1 $293 $114 $116 $202 forward $69 $-1 #
coedge $-1 $114 $293 $292 $294 forward $69 $-1 #
coedge $-1 $295 $117 $114 $199 forward $112 $-1 #
edge $-1 $205 3.9247014203057233 $296 28.942033219596212 $198 $297 forward 7 unknown #
coedge $-1 $298 $299 $115 $201 forward $290 $-1 #
edge $-1 $300 -61.671734112535717 $204 -55.249799850965871 $200 $301 forward 7 unknown #
edge $-1 $205 70.195482509298202 $300 77.687525425086434 $116 $302 forward 7 unknown #
coedge $-1 $117 $295 $298 $303 forward $112 $-1 #
vertex $-1 $201 $304 #
vertex $-1 $118 $305 #
straight-curve $-1 20.358068740256691 49.615885390367147 9.9961015753953149 0 -1 0 I I #
coedge $-1 $207 $207 $-1 $306 reversed $121 $-1 #
edge $-1 $307 0 $307 6.2831853071796004 $122 $308 forward 7 unknown #
vertex $-1 $125 $309 #
ellipse-curve $-1 25.361535100114779 36.914419081143684 6.7851344446103825 0 0.85716730853699208 0.51503806187062418 1 0 0 1 I I #
coedge $-1 $211 $211 $-1 $310 reversed $128 $-1 #
edge $-1 $311 0 $311 6.2831853071796004 $129 $312 forward 7 unknown #
vertex $-1 $132 $313 #
ellipse-curve $-1 32.866734639901921 36.914419081143684 6.7851344446103825 0 0.85716730853699208 0.51503806187062418 1 0 0 1 I I #
coedge $-1 $215 $215 $-1 $314 reversed $135 $-1 #
edge $-1 $315 0 $315 6.2831853071796004 $136 $316 forward 7 unknown #
vertex $-1 $139 $317 #
ellipse-curve $-1 40.371934179689063 36.914419081143684 6.7851344446103825 0 0.85716730853699208 0.51503806187062418 1 0 0 1 I I #
face $-1 $-1 $155 $21 $-1 $318 reversed single #
loop $-1 $-1 $235 $140 #
plane-surface $-1 0 38.843762712543239 0 0 -1 0 0 0 -1 forward_v I I I I #
coedge $-1 $319 $233 $236 $320 forward $141 $-1 #
coedge $-1 $239 $143 $144 $227 reversed $88 $-1 #
coedge $-1 $233 $319 $143 $225 reversed $141 $-1 #
edge $-1 $240 -9.9961015753953184 $321 9.9961015753953184 $224 $322 forward 7 unknown #
coedge $-1 $145 $144 $319 $323 forward $57 $-1 #
edge $-1 $231 -58.56501968443861 $321 58.56501968443861 $223 $324 forward 7 unknown #
coedge $-1 $236 $235 $145 $229 reversed $220 $-1 #
edge $-1 $325 -58.56501968443861 $230 58.56501968443861 $228 $326 forward 7 unknown #
vertex $-1 $147 $327 #
vertex $-1 $242 $328 #
straight-curve $-1 58.56501968443861 0 -9.9961015753953184 0 -1 0 I I #
coedge $-1 $222 $224 $148 $234 reversed $141 $-1 #
edge $-1 $237 -38.843762712543239 $240 38.843762712543239 $233 $329 forward 7 unknown #
coedge $-1 $228 $149 $154 $243 forward $220 $-1 #
coedge $-1 $149 $228 $222 $320 reversed $220 $-1 #
vertex $-1 $150 $330 #
straight-curve $-1 0 38.843762712543239 9.9961015753953184 -1 0 0 I I #
coedge $-1 $151 $223 $153 $242 reversed $88 $-1 #
vertex $-1 $234 $331 #
straight-curve $-1 0 -38.843762712543239 9.9961015753953184 1 0 0 I I #
edge $-1 $156 -9.9961015753953184 $231 9.9961015753953184 $153 $332 forward 7 unknown #
edge $-1 $157 -9.9961015753953184 $230 9.9961015753953184 $154 $333 forward 7 unknown #
point $-1 58.56501968443861 -38.843762712543239 9.9961015753953184 #
point $-1 58.56501968443861 38.843762712543239 9.9961015753953184 #
face $-1 $-1 $255 $22 $-1 $334 reversed single #
loop $-1 $-1 $252 $159 #
plane-surface $-1 0 0 9.9961015753953184 0 0 1 1 0 0 forward_v I I I I #
coedge $-1 $335 $336 $166 $258 forward $160 $-1 #
coedge $-1 $162 $262 $337 $338 reversed $96 $-1 #
edge $-1 $339 -5.981233134640096 $172 -2.0485037468703524 $162 $340 forward 7 unknown #
coedge $-1 $337 $341 $163 $253 forward $247 $-1 #
edge $-1 $256 -38.843762712543239 $339 38.843762712543239 $252 $342 forward 7 unknown #
coedge $-1 $259 $164 $341 $343 reversed $255 $-1 #
loop $-1 $-1 $164 $246 #
vertex $-1 $165 $344 #
straight-curve $-1 -45.375400539547172 -38.843762712543239 4.0148684407552242 0 0 1 I I #
edge $-1 $263 -38.843762712543239 $260 38.843762712543239 $249 $345 forward 7 unknown #
coedge $-1 $167 $254 $335 $346 forward $255 $-1 #
vertex $-1 $258 $347 #
straight-curve $-1 -25.985105055996446 -38.843762712543239 6.0633721876255766 1 0 0 I I #
coedge $-1 $250 $169 $336 $348 reversed $96 $-1 #
vertex $-1 $258 $349 #
straight-curve $-1 -25.985105055996446 38.843762712543239 6.0633721876255766 -1 0 0 I I #
point $-1 -45.375400539547172 38.843762712543239 6.0633721876255766 #
point $-1 -45.375400539547172 -38.843762712543239 6.0633721876255766 #
face $-1 $-1 $189 $23 $-1 $350 reversed single #
loop $-1 $-1 $276 $175 #
plane-surface $-1 0 38.843762712543239 0 0 -1 0 0 0 -1 forward_v I I I I #
coedge $-1 $183 $351 $179 $275 forward $176 $-1 #
coedge $-1 $352 $178 $351 $353 forward $104 $-1 #
coedge $-1 $178 $352 $354 $355 forward $104 $-1 #
coedge $-1 $180 $179 $178 $274 reversed $65 $-1 #
edge $-1 $356 -38.843762712543239 $357 38.843762712543239 $178 $358 forward 7 unknown #
edge $-1 $357 -5.981233134640096 $278 -2.0485037468703524 $270 $359 forward 7 unknown #
coedge $-1 $354 $185 $180 $277 forward $268 $-1 #
edge $-1 $279 2.0485037468703524 $356 5.981233134640096 $276 $360 forward 7 unknown #
vertex $-1 $184 $361 #
vertex $-1 $186 $362 #
straight-curve $-1 45.375400539547179 0 6.0633721876255766 0 1 0 I I #
coedge $-1 $351 $183 $188 $287 reversed $176 $-1 #
straight-curve $-1 25.985105055996449 -38.843762712543239 6.0633721876255766 1 0 0 I I #
coedge $-1 $185 $354 $187 $286 forward $268 $-1 #
straight-curve $-1 25.985105055996449 38.843762712543239 6.0633721876255766 -1 0 0 I I #
coedge $-1 $188 $187 $352 $363 reversed $189 $-1 #
edge $-1 $364 -9.9961015753953184 $191 -6.0633721876255766 $187 $365 forward 7 unknown #
edge $-1 $366 -9.9961015753953184 $190 -6.0633721876255766 $188 $367 forward 7 unknown #
point $-1 58.565019684438617 -38.843762712543239 6.0633721876255766 #
point $-1 58.565019684438617 38.843762712543239 6.0633721876255766 #
loop $-1 $-1 $200 $193 #
plane-surface $-1 0 38.843762712543239 0 0 -1 0 0 0 -1 forward_v I I I I #
coedge $-1 $368 $369 $197 $294 reversed $194 $-1 #
coedge $-1 $197 $196 $299 $370 reversed $69 $-1 #
edge $-1 $371 -77.687525425086434 $296 -70.195482509298202 $292 $372 forward 7 unknown #
coedge $-1 $203 $198 $369 $373 forward $112 $-1 #
vertex $-1 $373 $374 #
straight-curve $-1 16.433367319950968 34.985075449744116 9.9961015753953291 1 0 0 I I #
coedge $-1 $375 $200 $203 $303 reversed $290 $-1 #
coedge $-1 $200 $375 $293 $370 forward $290 $-1 #
vertex $-1 $201 $376 #
straight-curve $-1 20.358068740256691 38.843762712543239 65.245901426361186 0 0 1 I I #
straight-curve $-1 20.358068740256691 -1.1682698139181156 70.165374389345942 0 0.51503806187062418 -0.85716730853699208 I I #
edge $-1 $377 -45.375400539547179 $204 -20.358068740256691 $298 $378 forward 7 unknown #
point $-1 20.358068740256691 38.843762712543239 9.9961015753953184 #
point $-1 20.358068740256691 34.985075449744123 9.9961015753953149 #
edge $-1 $379 1 $379 0 $207 $-1 forward 7 unknown #
vertex $-1 $208 $380 #
ellipse-curve $-1 25.361535100114779 34.032587379197523 5.0535553239122448 0 0.85716730853699208 0.51503806187062418 1 0 0 1 I I #
point $-1 26.361535100114779 36.914419081143663 6.7851344446103692 #
edge $-1 $381 1 $381 0 $211 $-1 forward 7 unknown #
vertex $-1 $212 $382 #
ellipse-curve $-1 32.866734639901921 34.032587379197523 5.0535553239122448 0 0.85716730853699208 0.51503806187062418 1 0 0 1 I I #
point $-1 33.866734639901921 36.914419081143663 6.7851344446103692 #
edge $-1 $383 1 $383 0 $215 $-1 forward 7 unknown #
vertex $-1 $216 $384 #
ellipse-curve $-1 40.371934179689063 34.032587379197523 5.0535553239122448 0 0.85716730853699208 0.51503806187062418 1 0 0 1 I I #
point $-1 41.371934179689063 36.914419081143663 6.7851344446103692 #
plane-surface $-1 58.56501968443861 0 0 -1 0 0 0 0 1 forward_v I I I I #
coedge $-1 $224 $222 $226 $323 reversed $141 $-1 #
edge $-1 $237 -9.9961015753953184 $325 9.9961015753953184 $236 $385 forward 7 unknown #
vertex $-1 $323 $386 #
straight-curve $-1 -58.56501968443861 -38.843762712543239 0 0 0 -1 I I #
edge $-1 $321 -38.843762712543239 $325 38.843762712543239 $319 $387 forward 7 unknown #
straight-curve $-1 0 -38.843762712543239 -9.9961015753953184 -1 0 0 I I #
vertex $-1 $229 $388 #
straight-curve $-1 0 38.843762712543239 -9.9961015753953184 1 0 0 I I #
point $-1 58.56501968443861 38.843762712543239 -9.9961015753953184 #
point $-1 58.56501968443861 -38.843762712543239 -9.9961015753953184 #
straight-curve $-1 -58.56501968443861 0 9.9961015753953184 0 -1 0 I I #
point $-1 -58.56501968443861 38.843762712543239 9.9961015753953184 #
point $-1 -58.56501968443861 -38.843762712543239 9.9961015753953184 #
straight-curve $-1 58.56501968443861 -38.843762712543239 0 0 0 -1 I I #
straight-curve $-1 58.56501968443861 38.843762712543239 0 0 0 -1 I I #
plane-surface $-1 0 -38.843762712543239 0 0 1 0 0 0 1 forward_v I I I I #
coedge $-1 $389 $249 $259 $346 reversed $160 $-1 #
coedge $-1 $249 $389 $262 $348 forward $160 $-1 #
coedge $-1 $390 $252 $250 $338 forward $247 $-1 #
edge $-1 $339 45.375400539547172 $391 58.56501968443861 $250 $392 forward 7 unknown #
vertex $-1 $338 $393 #
straight-curve $-1 -45.375400539547172 38.843762712543239 4.0148684407552242 0 0 -1 I I #
coedge $-1 $252 $390 $254 $343 forward $247 $-1 #
straight-curve $-1 -45.375400539547172 0 9.9961015753953184 0 1 0 I I #
edge $-1 $394 -58.56501968443861 $256 -45.375400539547172 $254 $395 forward 7 unknown #
point $-1 -45.375400539547172 -38.843762712543239 9.9961015753953202 #
straight-curve $-1 -58.56501968443861 0 6.0633721876255766 0 -1 0 I I #
edge $-1 $394 -9.9961015753953184 $260 -6.0633721876255766 $335 $396 forward 7 unknown #
point $-1 -58.56501968443861 -38.843762712543239 6.0633721876255766 #
edge $-1 $391 -9.9961015753953184 $263 -6.0633721876255766 $262 $397 forward 7 unknown #
point $-1 -58.56501968443861 38.843762712543239 6.0633721876255766 #
plane-surface $-1 58.56501968443861 0 0 -1 0 0 0 0 1 forward_v I I I I #
coedge $-1 $270 $281 $271 $353 reversed $176 $-1 #
coedge $-1 $272 $271 $285 $363 forward $104 $-1 #
edge $-1 $357 45.375400539547179 $366 58.56501968443861 $351 $398 forward 7 unknown #
coedge $-1 $283 $276 $272 $355 reversed $268 $-1 #
edge $-1 $364 -58.56501968443861 $356 -45.375400539547179 $354 $399 forward 7 unknown #
vertex $-1 $277 $400 #
vertex $-1 $353 $401 #
straight-curve $-1 45.375400539547179 0 9.9961015753953184 0 -1 0 I I #
straight-curve $-1 45.375400539547179 -38.843762712543239 4.0148684407552242 0 0 -1 I I #
straight-curve $-1 45.375400539547179 38.843762712543239 4.0148684407552242 0 0 1 I I #
point $-1 45.375400539547179 -38.843762712543239 6.0633721876255766 #
point $-1 45.375400539547179 38.843762712543239 6.0633721876255766 #
edge $-1 $366 -38.843762712543239 $364 38.843762712543239 $285 $402 forward 7 unknown #
vertex $-1 $363 $403 #
straight-curve $-1 58.56501968443861 38.843762712543239 0 0 0 -1 I I #
vertex $-1 $363 $404 #
straight-curve $-1 58.56501968443861 -38.843762712543239 0 0 0 -1 I I #
coedge $-1 $369 $292 $375 $405 reversed $194 $-1 #
coedge $-1 $292 $368 $295 $373 reversed $194 $-1 #
edge $-1 $371 -28.942033219596212 $300 -3.9247014203057233 $299 $406 forward 7 unknown #
vertex $-1 $405 $407 #
straight-curve $-1 45.375400539547179 -1.1682698139181156 70.165374389345942 0 -0.51503806187062418 0.85716730853699208 I I #
edge $-1 $296 34.985075449744123 $377 38.843762712543239 $295 $408 forward 7 unknown #
point $-1 45.375400539547179 34.985075449744123 9.9961015753953184 #
coedge $-1 $299 $298 $368 $405 forward $290 $-1 #
point $-1 20.358068740256691 38.843762712543239 3.5741673138254697 #
vertex $-1 $303 $409 #
straight-curve $-1 0 38.843762712543239 9.9961015753953184 -1 0 0 I I #
vertex $-1 $306 $410 #
point $-1 26.361535100114779 34.032587379197523 5.0535553239122448 #
vertex $-1 $310 $411 #
point $-1 33.866734639901921 34.032587379197523 5.0535553239122448 #
vertex $-1 $314 $412 #
point $-1 41.371934179689063 34.032587379197523 5.0535553239122448 #
straight-curve $-1 -58.56501968443861 38.843762712543239 0 0 0 -1 I I #
point $-1 -58.56501968443861 -38.843762712543239 -9.9961015753953184 #
straight-curve $-1 -58.56501968443861 0 -9.9961015753953184 0 1 0 I I #
point $-1 -58.56501968443861 38.843762712543239 -9.9961015753953184 #
coedge $-1 $336 $335 $390 $413 reversed $160 $-1 #
coedge $-1 $341 $337 $389 $413 forward $247 $-1 #
vertex $-1 $338 $414 #
straight-curve $-1 0 38.843762712543239 9.9961015753953184 -1 0 0 I I #
point $-1 -45.375400539547172 38.843762712543239 9.9961015753953202 #
vertex $-1 $413 $415 #
straight-curve $-1 0 -38.843762712543239 9.9961015753953184 1 0 0 I I #
straight-curve $-1 -58.56501968443861 -38.843762712543239 0 0 0 -1 I I #
straight-curve $-1 -58.56501968443861 38.843762712543239 0 0 0 -1 I I #
straight-curve $-1 0 -38.843762712543239 9.9961015753953184 1 0 0 I I #
straight-curve $-1 0 38.843762712543239 9.9961015753953184 -1 0 0 I I #
point $-1 45.375400539547179 38.843762712543239 9.9961015753953202 #
point $-1 45.375400539547179 -38.843762712543239 9.9961015753953202 #
straight-curve $-1 58.56501968443861 0 9.9961015753953184 0 1 0 I I #
point $-1 58.56501968443861 38.843762712543239 9.9961015753953184 #
point $-1 58.56501968443861 -38.843762712543239 9.9961015753953184 #
edge $-1 $377 55.249799850965864 $371 61.671734112535717 $375 $416 forward 7 unknown #
straight-curve $-1 16.433367319950968 38.843762712543239 3.5741673138254662 -1 0 0 I I #
point $-1 45.375400539547179 38.843762712543239 3.5741673138254697 #
straight-curve $-1 45.375400539547179 0 9.9961015753953184 0 1 0 I I #
point $-1 45.375400539547179 38.843762712543239 9.9961015753953202 #
point $-1 25.361535100114779 33.175420070660536 4.5385172620416201 #
point $-1 32.866734639901921 33.175420070660536 4.5385172620416201 #
point $-1 40.371934179689063 33.175420070660536 4.5385172620416201 #
edge $-1 $391 -38.843762712543239 $394 38.843762712543239 $389 $417 forward 7 unknown #
point $-1 -58.56501968443861 38.843762712543239 9.9961015753953184 #
point $-1 -58.56501968443861 -38.843762712543239 9.9961015753953184 #
straight-curve $-1 45.375400539547179 38.843762712543239 65.245901426361186 0 0 -1 I I #
straight-curve $-1 -58.56501968443861 0 9.9961015753953184 0 -1 0 I I #
End-of-ACIS-data 