500 0 6 0           
7 Unknown 11 ACIS 5.0 NT 24 Thu Mar 25 20:37:36 1999 
-1 9.9999999999999995e-007 1e-010 
body $-1 $6 $-1 $7 #
body $-1 $8 $-1 $9 #
body $-1 $10 $-1 $11 #
body $-1 $12 $-1 $13 #
body $-1 $14 $-1 $15 #
body $-1 $16 $-1 $17 #
lump $-1 $-1 $18 $0 #
transform $-1 1 0 0 0 1 0 0 0 1 43.993041779839473 20.390500302833829 4.8147642122588552 1 rotate no_reflect no_shear #
lump $-1 $-1 $19 $1 #
transform $-1 1 0 0 0 1 0 0 0 1 43.993041779839473 20.390500302833829 4.8147642122588552 1 rotate no_reflect no_shear #
lump $-1 $-1 $20 $2 #
transform $-1 1 0 0 0 1 0 0 0 1 43.993041779839473 20.390500302833829 4.8147642122588552 1 rotate no_reflect no_shear #
lump $-1 $-1 $21 $3 #
transform $-1 1 0 0 0 1 0 0 0 1 43.993041779839473 20.390500302833829 4.8147642122588552 1 rotate no_reflect no_shear #
lump $-1 $-1 $22 $4 #
transform $-1 1 0 0 0 1 0 0 0 1 43.993041779839473 20.390500302833829 4.8147642122588552 1 rotate no_reflect no_shear #
lump $-1 $-1 $23 $5 #
transform $-1 1 0 0 0 1 0 0 0 1 43.993041779839473 20.390500302833829 4.8147642122588552 1 rotate no_reflect no_shear #
shell $-1 $-1 $-1 $24 $-1 $6 #
shell $-1 $-1 $-1 $25 $-1 $8 #
shell $-1 $-1 $-1 $26 $-1 $10 #
shell $-1 $-1 $-1 $27 $-1 $12 #
shell $-1 $-1 $-1 $28 $-1 $14 #
shell $-1 $-1 $-1 $29 $-1 $16 #
face $-1 $30 $31 $18 $-1 $32 forward single #
face $-1 $33 $34 $19 $-1 $35 forward single #
face $-1 $36 $37 $20 $-1 $38 reversed single #
face $-1 $39 $40 $21 $-1 $41 forward single #
face $-1 $42 $43 $22 $-1 $44 reversed single #
face $-1 $45 $46 $23 $-1 $47 forward single #
face $-1 $48 $49 $18 $-1 $50 reversed single #
loop $-1 $-1 $51 $24 #
plane-surface $-1 0 0 4.8147642122588552 0 0 1 1 0 0 forward_v I I I I #
face $-1 $52 $53 $19 $-1 $54 reversed single #
loop $-1 $-1 $55 $25 #
plane-surface $-1 0 -20.390500302833829 0 0 1 0 0 0 1 forward_v I I I I #
face $-1 $56 $57 $20 $-1 $58 reversed single #
loop $-1 $-1 $59 $26 #
plane-surface $-1 -106.20859883679384 -16.049771499205601 62.254767413592397 0 1 0 -0.70710678939079041 0 0.70710677298230451 forward_v I I I I #
face $-1 $60 $61 $21 $-1 $62 forward single #
loop $-1 $63 $64 $27 #
cone-surface $-1 -40.627752588968804 -11.893027011165747 1.4494749886628819 0.70710678939079041 0 -0.70710677298230451 0.70710677298230451 0 0.70710678939079041 1 I I 0 1 1 forward I I I I #
face $-1 $65 $66 $22 $-1 $67 reversed single #
loop $-1 $-1 $68 $28 #
plane-surface $-1 43.993043223557876 -7.7362825231258938 124.4703244705468 0 -1 0 -0.70710678939079041 0 -0.70710677298230451 forward_v I I I I #
face $-1 $69 $70 $23 $-1 $71 forward single #
loop $-1 $72 $73 $29 #
cone-surface $-1 40.627752588968811 -11.893027011165747 1.4494749886628855 -0.70710678939079041 0 -0.70710677298230451 0.70710677298230451 0 -0.70710678939079041 1 I I 0 1 1 forward I I I I #
face $-1 $74 $75 $18 $-1 $76 reversed single #
loop $-1 $-1 $77 $30 #
plane-surface $-1 0 0 -4.8147642122588552 0 0 1 1 0 0 forward_v I I I I #
coedge $-1 $78 $79 $80 $81 forward $31 $-1 #
face $-1 $82 $83 $19 $-1 $84 reversed single #
loop $-1 $-1 $85 $33 #
plane-surface $-1 0 0 -4.8147642122588552 0 0 1 1 0 0 forward_v I I I I #
coedge $-1 $86 $87 $88 $89 forward $34 $-1 #
face $-1 $90 $91 $20 $-1 $92 reversed single #
loop $-1 $-1 $93 $36 #
plane-surface $-1 -43.993041779839452 -11.893027011165747 0.039211800356419246 -0.70710678939079041 0 0.70710677298230451 0.70710677298230451 0 0.70710678939079041 forward_v I I I I #
coedge $-1 $94 $95 $96 $97 reversed $37 $-1 #
face $-1 $-1 $98 $21 $-1 $99 forward single #
loop $-1 $100 $101 $39 #
cone-surface $-1 -39.296686153945352 -11.893027011165747 0.1184085845269669 0.70710678939079041 0 -0.70710677298230451 0.35355338649115226 0 0.35355339469539521 1 I I -0.70710678118654746 0.70710678118654746 0.5 forward I I I I #
loop $-1 $-1 $102 $27 #
coedge $-1 $64 $64 $103 $104 reversed $40 $-1 #
face $-1 $105 $106 $22 $-1 $107 reversed single #
loop $-1 $-1 $108 $42 #
plane-surface $-1 -18.222513833396512 -11.893027011165747 62.254768857310822 0.70710678939079041 0 0.70710677298230451 0.70710677298230451 0 -0.70710678939079041 forward_v I I I I #
coedge $-1 $109 $110 $111 $112 reversed $43 $-1 #
face $-1 $-1 $113 $23 $-1 $114 forward single #
loop $-1 $115 $116 $45 #
cone-surface $-1 39.296686153945359 -11.893027011165747 0.11840858452697045 -0.70710678939079041 0 -0.70710677298230451 0.35355338649115226 0 -0.35355339469539521 1 I I -0.70710678118654746 0.70710678118654746 0.5 forward I I I I #
loop $-1 $-1 $117 $29 #
coedge $-1 $73 $73 $118 $119 reversed $46 $-1 #
face $-1 $120 $121 $18 $-1 $122 reversed single #
loop $-1 $-1 $123 $48 #
plane-surface $-1 0 -20.390500302833829 0 0 1 0 0 0 1 forward_v I I I I #
coedge $-1 $124 $125 $126 $127 forward $49 $-1 #
coedge $-1 $128 $51 $129 $130 forward $31 $-1 #
coedge $-1 $51 $128 $131 $132 forward $31 $-1 #
coedge $-1 $133 $134 $51 $81 reversed $135 $-1 #
edge $-1 $136 -20.390500302833829 $137 20.390500302833829 $80 $138 forward 7 unknown #
face $-1 $139 $140 $19 $-1 $141 reversed single #
loop $-1 $-1 $142 $52 #
plane-surface $-1 -37.231219039386211 -24.731229106462052 0 0 1 0 0 0 1 forward_v I I I I #
coedge $-1 $143 $144 $87 $145 forward $53 $-1 #
coedge $-1 $146 $55 $147 $148 reversed $34 $-1 #
coedge $-1 $55 $146 $85 $145 reversed $34 $-1 #
coedge $-1 $149 $150 $55 $89 reversed $140 $-1 #
edge $-1 $151 -4.8147642122588552 $152 4.8147642122588552 $88 $153 forward 7 unknown #
face $-1 $154 $155 $20 $-1 $156 reversed single #
loop $-1 $-1 $157 $56 #
plane-surface $-1 -106.20859883679384 -7.7362825231258938 62.254767413592397 0 -1 0 0.70710678939079041 0 -0.70710677298230451 forward_v I I I I #
coedge $-1 $158 $159 $160 $161 reversed $57 $-1 #
coedge $-1 $95 $59 $162 $163 reversed $37 $-1 #
coedge $-1 $59 $94 $158 $164 reversed $37 $-1 #
coedge $-1 $160 $165 $59 $97 forward $166 $-1 #
edge $-1 $167 9.1112576385574471 $168 13.886809939642717 $96 $169 forward 7 unknown #
loop $-1 $-1 $103 $60 #
plane-surface $-1 -43.993041779839452 -11.893027011165747 0.039211800356419246 -0.70710678939079041 0 0.70710677298230451 0.70710677298230451 0 0.70710678939079041 forward_v I I I I #
loop $-1 $-1 $170 $39 #
coedge $-1 $101 $101 $102 $171 reversed $61 $-1 #
coedge $-1 $102 $102 $101 $171 forward $63 $-1 #
coedge $-1 $103 $103 $64 $104 forward $98 $-1 #
edge $-1 $172 0 $172 6.2831853071796004 $103 $173 forward 7 unknown #
face $-1 $174 $175 $22 $-1 $176 forward single #
loop $-1 $-1 $177 $65 #
plane-surface $-1 43.993043223557876 -16.049771499205601 124.4703244705468 0 1 0 0.70710678939079041 0 0.70710677298230451 forward_v I I I I #
coedge $-1 $178 $179 $180 $181 reversed $66 $-1 #
coedge $-1 $110 $68 $182 $183 reversed $43 $-1 #
coedge $-1 $68 $109 $178 $184 reversed $43 $-1 #
coedge $-1 $180 $185 $68 $112 forward $175 $-1 #
edge $-1 $186 -21.996520168060535 $187 -17.220967866975293 $111 $188 forward 7 unknown #
loop $-1 $-1 $118 $69 #
plane-surface $-1 -18.222513833396512 -11.893027011165747 62.254768857310822 0.70710678939079041 0 0.70710677298230451 0.70710677298230451 0 -0.70710678939079041 forward_v I I I I #
loop $-1 $-1 $189 $45 #
coedge $-1 $116 $116 $117 $190 reversed $70 $-1 #
coedge $-1 $117 $117 $116 $190 forward $72 $-1 #
coedge $-1 $118 $118 $73 $119 forward $113 $-1 #
edge $-1 $191 0 $191 6.2831853071796004 $118 $192 forward 7 unknown #
face $-1 $193 $194 $18 $-1 $195 reversed single #
loop $-1 $-1 $196 $74 #
plane-surface $-1 -43.993041779839473 0 0 1 0 0 0 0 -1 forward_v I I I I #
coedge $-1 $197 $131 $198 $199 forward $75 $-1 #
coedge $-1 $200 $77 $197 $201 forward $49 $-1 #
coedge $-1 $77 $200 $202 $203 forward $49 $-1 #
coedge $-1 $134 $133 $77 $127 reversed $135 $-1 #
edge $-1 $204 -20.390500302833829 $205 20.390500302833829 $126 $206 forward 7 unknown #
coedge $-1 $79 $78 $207 $208 forward $31 $-1 #
coedge $-1 $209 $210 $78 $130 reversed $194 $-1 #
edge $-1 $137 -43.993041779839473 $211 43.993041779839473 $129 $212 forward 7 unknown #
coedge $-1 $123 $213 $79 $132 reversed $75 $-1 #
edge $-1 $214 -43.993041779839473 $136 43.993041779839473 $131 $215 forward 7 unknown #
coedge $-1 $126 $80 $213 $216 forward $135 $-1 #
coedge $-1 $80 $126 $209 $217 reversed $135 $-1 #
loop $-1 $-1 $133 $193 #
vertex $-1 $81 $218 #
vertex $-1 $81 $219 #
straight-curve $-1 43.993041779839473 0 4.8147642122588552 0 1 0 I I #
face $-1 $220 $221 $19 $-1 $222 reversed single #
loop $-1 $-1 $88 $82 #
plane-surface $-1 -38.731219039386211 -22.56086470464794 0 1 0 0 0 0 -1 forward_v I I I I #
coedge $-1 $223 $224 $225 $226 forward $83 $-1 #
coedge $-1 $227 $85 $228 $229 forward $53 $-1 #
coedge $-1 $85 $227 $149 $230 forward $53 $-1 #
edge $-1 $151 -38.731219039386211 $231 -35.731219039386211 $85 $232 forward 7 unknown #
coedge $-1 $87 $86 $233 $234 forward $34 $-1 #
coedge $-1 $235 $236 $86 $148 forward $237 $-1 #
edge $-1 $238 35.731219039386211 $152 38.731219039386211 $147 $239 forward 7 unknown #
coedge $-1 $225 $88 $144 $230 reversed $140 $-1 #
coedge $-1 $88 $225 $235 $240 reversed $140 $-1 #
vertex $-1 $145 $241 #
vertex $-1 $240 $242 #
straight-curve $-1 -38.731219039386211 -20.390500302833829 0 0 0 1 I I #
face $-1 $-1 $166 $20 $-1 $243 forward single #
loop $-1 $-1 $244 $90 #
plane-surface $-1 -43.993041779839473 0 0 1 0 0 0 0 -1 forward_v I I I I #
coedge $-1 $245 $246 $247 $248 reversed $91 $-1 #
coedge $-1 $249 $93 $95 $164 forward $57 $-1 #
coedge $-1 $93 $249 $245 $250 forward $57 $-1 #
coedge $-1 $247 $96 $93 $161 forward $166 $-1 #
edge $-1 $168 -10.103257993622726 $251 -1.7897690175430201 $160 $252 forward 7 unknown #
coedge $-1 $253 $254 $94 $163 forward $155 $-1 #
edge $-1 $255 -31.088171906439801 $167 -26.312619494537344 $162 $256 forward 7 unknown #
edge $-1 $168 -6.753650910376388 $255 3.0145775206728491e-014 $95 $257 forward 7 unknown #
coedge $-1 $96 $247 $253 $258 forward $166 $-1 #
loop $-1 $-1 $247 $154 #
vertex $-1 $163 $259 #
vertex $-1 $97 $260 #
straight-curve $-1 -53.10429941839692 -16.049771499205601 4.8147642122588543 1 0 0 I I #
coedge $-1 $170 $170 $-1 $261 reversed $100 $-1 #
edge $-1 $262 0 $262 6.2831853071796004 $101 $263 forward 7 unknown #
vertex $-1 $104 $264 #
ellipse-curve $-1 -41.605265629296838 -11.893027011165747 2.4269880063076257 -0.70710678939079041 0 0.70710677298230451 0.70710677298230451 0 0.70710678939079041 1 I I #
face $-1 $-1 $265 $22 $-1 $266 reversed single #
loop $-1 $-1 $111 $105 #
plane-surface $-1 0 0 4.8147642122588552 0 0 1 1 0 0 forward_v I I I I #
coedge $-1 $267 $268 $269 $270 reversed $106 $-1 #
coedge $-1 $271 $108 $110 $184 forward $66 $-1 #
coedge $-1 $108 $271 $267 $272 forward $66 $-1 #
coedge $-1 $269 $111 $108 $181 forward $175 $-1 #
edge $-1 $187 1.7897690175430201 $273 10.103257993622726 $180 $274 forward 7 unknown #
coedge $-1 $275 $276 $109 $183 forward $265 $-1 #
edge $-1 $277 -62.195950434916973 $186 -57.420398023014542 $182 $278 forward 7 unknown #
edge $-1 $187 81.232432649302595 $277 87.986083559678988 $110 $279 forward 7 unknown #
coedge $-1 $111 $269 $275 $280 forward $175 $-1 #
vertex $-1 $112 $281 #
vertex $-1 $112 $282 #
straight-curve $-1 21.996521611778938 -7.7362825231258938 4.8147642122588579 -1 0 0 I I #
coedge $-1 $189 $189 $-1 $283 reversed $115 $-1 #
edge $-1 $284 0 $284 6.2831853071796004 $116 $285 forward 7 unknown #
vertex $-1 $119 $286 #
ellipse-curve $-1 41.605265629296852 -11.893027011165747 2.4269880063076354 0.70710678939079041 0 0.70710677298230451 0.70710677298230451 0 -0.70710678939079041 1 I I #
face $-1 $-1 $135 $18 $-1 $287 reversed single #
loop $-1 $-1 $209 $120 #
plane-surface $-1 0 20.390500302833829 0 0 -1 0 0 0 -1 forward_v I I I I #
coedge $-1 $288 $207 $210 $289 forward $121 $-1 #
coedge $-1 $213 $123 $124 $201 reversed $75 $-1 #
coedge $-1 $207 $288 $123 $199 reversed $121 $-1 #
edge $-1 $214 -4.8147642122588552 $290 4.8147642122588552 $198 $291 forward 7 unknown #
coedge $-1 $125 $124 $288 $292 forward $49 $-1 #
edge $-1 $205 -43.993041779839473 $290 43.993041779839473 $197 $293 forward 7 unknown #
coedge $-1 $210 $209 $125 $203 reversed $194 $-1 #
edge $-1 $294 -43.993041779839473 $204 43.993041779839473 $202 $295 forward 7 unknown #
vertex $-1 $127 $296 #
vertex $-1 $216 $297 #
straight-curve $-1 43.993041779839473 0 -4.8147642122588552 0 -1 0 I I #
coedge $-1 $196 $198 $128 $208 reversed $121 $-1 #
edge $-1 $211 -20.390500302833829 $214 20.390500302833829 $207 $298 forward 7 unknown #
coedge $-1 $202 $129 $134 $217 forward $194 $-1 #
coedge $-1 $129 $202 $196 $289 reversed $194 $-1 #
vertex $-1 $130 $299 #
straight-curve $-1 0 20.390500302833829 4.8147642122588552 -1 0 0 I I #
coedge $-1 $131 $197 $133 $216 reversed $75 $-1 #
vertex $-1 $208 $300 #
straight-curve $-1 0 -20.390500302833829 4.8147642122588552 1 0 0 I I #
edge $-1 $136 -4.8147642122588552 $205 4.8147642122588552 $133 $301 forward 7 unknown #
edge $-1 $137 -4.8147642122588552 $204 4.8147642122588552 $134 $302 forward 7 unknown #
point $-1 43.993041779839473 -20.390500302833829 4.8147642122588552 #
point $-1 43.993041779839473 20.390500302833829 4.8147642122588552 #
face $-1 $-1 $237 $19 $-1 $303 forward single #
loop $-1 $-1 $304 $139 #
plane-surface $-1 -35.731219039386211 -22.56086470464794 0 -1 0 0 0 0 1 forward_v I I I I #
coedge $-1 $305 $142 $227 $306 reversed $83 $-1 #
coedge $-1 $142 $305 $307 $308 reversed $83 $-1 #
coedge $-1 $150 $149 $142 $226 reversed $140 $-1 #
edge $-1 $309 -4.8147642122588552 $310 4.8147642122588552 $225 $311 forward 7 unknown #
coedge $-1 $144 $143 $223 $306 forward $53 $-1 #
coedge $-1 $233 $304 $143 $229 reversed $221 $-1 #
edge $-1 $231 -2.1703644018141119 $312 2.1703644018141119 $228 $313 forward 7 unknown #
edge $-1 $310 -2.1703644018141119 $151 2.1703644018141119 $149 $314 forward 7 unknown #
vertex $-1 $229 $315 #
straight-curve $-1 0 -20.390500302833829 -4.8147642122588552 1 0 0 I I #
coedge $-1 $316 $228 $146 $234 reversed $221 $-1 #
edge $-1 $238 -4.8147642122588552 $231 4.8147642122588552 $233 $317 forward 7 unknown #
coedge $-1 $307 $147 $150 $240 forward $237 $-1 #
coedge $-1 $147 $307 $316 $318 forward $237 $-1 #
loop $-1 $-1 $147 $220 #
vertex $-1 $148 $319 #
straight-curve $-1 0 -20.390500302833829 4.8147642122588552 -1 0 0 I I #
edge $-1 $152 -2.1703644018141119 $309 2.1703644018141119 $150 $320 forward 7 unknown #
point $-1 -38.731219039386211 -20.390500302833829 -4.8147642122588552 #
point $-1 -38.731219039386211 -20.390500302833829 4.8147642122588552 #
plane-surface $-1 0 0 4.8147642122588552 0 0 1 1 0 0 forward_v I I I I #
coedge $-1 $254 $253 $246 $321 forward $155 $-1 #
coedge $-1 $246 $157 $159 $250 reversed $91 $-1 #
coedge $-1 $157 $245 $244 $321 reversed $91 $-1 #
coedge $-1 $165 $160 $157 $248 forward $166 $-1 #
edge $-1 $251 -13.886809939642717 $322 -9.1112576385574471 $247 $323 forward 7 unknown #
coedge $-1 $159 $158 $254 $324 reversed $57 $-1 #
edge $-1 $325 -3.0145775206728491e-014 $251 6.753650910376388 $245 $326 forward 7 unknown #
vertex $-1 $161 $327 #
straight-curve $-1 -39.217489478754203 -5.9465135055828737 4.8147642122588534 0 1 0 I I #
coedge $-1 $244 $162 $165 $258 reversed $155 $-1 #
coedge $-1 $162 $244 $249 $324 forward $155 $-1 #
vertex $-1 $163 $328 #
straight-curve $-1 -43.993041779839473 -16.049771499205601 31.127383706796198 0 0 1 I I #
straight-curve $-1 -43.993041779839452 -16.049771499205601 0.039211800356419246 -0.70710677298230451 0 -0.70710678939079041 I I #
edge $-1 $322 7.7362825231258938 $167 16.049771499205601 $253 $329 forward 7 unknown #
point $-1 -43.993041779839473 -16.049771499205601 4.8147642122588552 #
point $-1 -39.217489478754203 -16.049771499205601 4.8147642122588552 #
edge $-1 $330 1 $330 0 $170 $-1 forward 7 unknown #
vertex $-1 $171 $331 #
ellipse-curve $-1 -39.650239548640748 -11.893027011165747 0.47196197101811915 -0.70710678939079041 0 0.70710677298230451 0.70710677298230451 0 0.70710678939079041 1 I I #
point $-1 -40.898158856314552 -11.893027011165747 3.1340947956984353 #
loop $-1 $-1 $182 $174 #
plane-surface $-1 43.993041779839473 0 0 -1 0 0 0 0 1 forward_v I I I I #
coedge $-1 $268 $177 $179 $272 reversed $106 $-1 #
coedge $-1 $177 $267 $332 $333 reversed $106 $-1 #
coedge $-1 $185 $180 $177 $270 forward $175 $-1 #
edge $-1 $273 17.220967866975293 $334 21.996520168060535 $269 $335 forward 7 unknown #
coedge $-1 $179 $178 $276 $336 reversed $66 $-1 #
edge $-1 $337 -87.986083559678988 $273 -81.232432649302595 $267 $338 forward 7 unknown #
vertex $-1 $181 $339 #
straight-curve $-1 39.217489478754231 -5.9465135055828737 4.8147642122588508 0 -1 0 I I #
coedge $-1 $332 $182 $185 $280 reversed $265 $-1 #
coedge $-1 $182 $332 $271 $336 forward $265 $-1 #
vertex $-1 $183 $340 #
straight-curve $-1 43.993041779839473 -7.7362825231258938 62.2351622352734 0 0 1 I I #
straight-curve $-1 -18.222513833396512 -7.7362825231258938 62.254768857310822 0.70710677298230451 0 -0.70710678939079041 I I #
edge $-1 $334 -16.049771499205601 $186 -7.7362825231258938 $275 $341 forward 7 unknown #
point $-1 43.993041779839473 -7.7362825231258938 4.8147642122588552 #
point $-1 39.217489478754231 -7.7362825231258938 4.8147642122588579 #
edge $-1 $342 1 $342 0 $189 $-1 forward 7 unknown #
vertex $-1 $190 $343 #
ellipse-curve $-1 39.650239548640755 -11.893027011165747 0.47196197101812271 0.70710678939079041 0 0.70710677298230451 0.70710677298230451 0 -0.70710678939079041 1 I I #
point $-1 42.312372402279166 -11.893027011165747 1.7198812169168578 #
plane-surface $-1 43.993041779839473 0 0 -1 0 0 0 0 1 forward_v I I I I #
coedge $-1 $198 $196 $200 $292 reversed $121 $-1 #
edge $-1 $211 -4.8147642122588552 $294 4.8147642122588552 $210 $344 forward 7 unknown #
vertex $-1 $292 $345 #
straight-curve $-1 -43.993041779839473 -20.390500302833829 0 0 0 -1 I I #
edge $-1 $290 -20.390500302833829 $294 20.390500302833829 $288 $346 forward 7 unknown #
straight-curve $-1 0 -20.390500302833829 -4.8147642122588552 -1 0 0 I I #
vertex $-1 $203 $347 #
straight-curve $-1 0 20.390500302833829 -4.8147642122588552 1 0 0 I I #
point $-1 43.993041779839473 20.390500302833829 -4.8147642122588552 #
point $-1 43.993041779839473 -20.390500302833829 -4.8147642122588552 #
straight-curve $-1 -43.993041779839473 0 4.8147642122588552 0 -1 0 I I #
point $-1 -43.993041779839473 20.390500302833829 4.8147642122588552 #
point $-1 -43.993041779839473 -20.390500302833829 4.8147642122588552 #
straight-curve $-1 43.993041779839473 -20.390500302833829 0 0 0 -1 I I #
straight-curve $-1 43.993041779839473 20.390500302833829 0 0 0 -1 I I #
plane-surface $-1 0 0 4.8147642122588552 0 0 1 1 0 0 forward_v I I I I #
coedge $-1 $228 $316 $305 $348 forward $221 $-1 #
coedge $-1 $224 $223 $304 $348 reversed $83 $-1 #
edge $-1 $312 -1.5 $310 1.5 $223 $349 forward 7 unknown #
coedge $-1 $236 $235 $224 $308 forward $237 $-1 #
edge $-1 $309 -1.5 $350 1.5 $224 $351 forward 7 unknown #
vertex $-1 $240 $352 #
vertex $-1 $230 $353 #
straight-curve $-1 -38.731219039386211 -24.731229106462052 0 0 0 -1 I I #
vertex $-1 $348 $354 #
straight-curve $-1 -35.731219039386211 -22.56086470464794 -4.8147642122588552 0 -1 0 I I #
straight-curve $-1 -38.731219039386211 -22.56086470464794 -4.8147642122588552 0 1 0 I I #
point $-1 -35.731219039386211 -20.390500302833829 -4.8147642122588552 #
coedge $-1 $304 $233 $236 $318 reversed $221 $-1 #
straight-curve $-1 -35.731219039386211 -20.390500302833829 0 0 0 -1 I I #
edge $-1 $350 -2.1703644018141119 $238 2.1703644018141119 $316 $355 forward 7 unknown #
point $-1 -35.731219039386211 -20.390500302833829 4.8147642122588552 #
straight-curve $-1 -38.731219039386211 -22.56086470464794 4.8147642122588552 0 -1 0 I I #
edge $-1 $322 26.312619494537344 $325 31.088171906439801 $244 $356 forward 7 unknown #
vertex $-1 $258 $357 #
straight-curve $-1 -53.10429941839692 -7.7362825231258938 4.8147642122588543 -1 0 0 I I #
edge $-1 $325 1.7897690175430201 $255 10.103257993622726 $254 $358 forward 7 unknown #
vertex $-1 $324 $359 #
straight-curve $-1 -43.993041779839452 -7.7362825231258938 0.039211800356419246 0.70710677298230451 0 0.70710678939079041 I I #
point $-1 -39.217489478754203 -7.7362825231258938 4.8147642122588552 #
point $-1 -43.993041779839473 -16.049771499205601 0.03921180035639793 #
straight-curve $-1 -43.993041779839473 0 4.8147642122588552 0 -1 0 I I #
vertex $-1 $261 $360 #
point $-1 -38.943132775658441 -11.893027011165747 1.1790687604089096 #
coedge $-1 $276 $275 $268 $333 forward $265 $-1 #
edge $-1 $334 57.420398023014542 $337 62.195950434916973 $332 $361 forward 7 unknown #
vertex $-1 $280 $362 #
straight-curve $-1 21.996521611778938 -16.049771499205601 4.8147642122588579 1 0 0 I I #
edge $-1 $337 -10.103257993622726 $277 -1.7897690175430201 $276 $363 forward 7 unknown #
vertex $-1 $336 $364 #
straight-curve $-1 -18.222513833396512 -16.049771499205601 62.254768857310822 -0.70710677298230451 0 0.70710678939079041 I I #
point $-1 39.217489478754231 -16.049771499205601 4.8147642122588579 #
point $-1 43.993041779839473 -7.7362825231258938 0.039211800356426352 #
straight-curve $-1 43.993041779839473 0 4.8147642122588552 0 1 0 I I #
vertex $-1 $283 $365 #
point $-1 40.357346321623055 -11.893027011165747 -0.23514481837266771 #
straight-curve $-1 -43.993041779839473 20.390500302833829 0 0 0 -1 I I #
point $-1 -43.993041779839473 -20.390500302833829 -4.8147642122588552 #
straight-curve $-1 -43.993041779839473 0 -4.8147642122588552 0 1 0 I I #
point $-1 -43.993041779839473 20.390500302833829 -4.8147642122588552 #
edge $-1 $350 -4.8147642122588552 $312 4.8147642122588552 $304 $366 forward 7 unknown #
straight-curve $-1 -37.231219039386211 -24.731229106462052 -4.8147642122588552 -1 0 0 I I #
vertex $-1 $318 $367 #
straight-curve $-1 -37.231219039386211 -24.731229106462052 4.8147642122588552 1 0 0 I I #
point $-1 -38.731219039386211 -24.731229106462052 4.8147642122588552 #
point $-1 -38.731219039386211 -24.731229106462052 -4.8147642122588552 #
point $-1 -35.731219039386211 -24.731229106462052 -4.8147642122588552 #
straight-curve $-1 -35.731219039386211 -22.56086470464794 4.8147642122588552 0 1 0 I I #
straight-curve $-1 -43.993041779839473 -7.7362825231258938 31.127383706796198 0 0 -1 I I #
point $-1 -43.993041779839473 -7.7362825231258938 4.8147642122588552 #
straight-curve $-1 -43.993041779839473 -5.9465135055828737 0.039211800356390825 0 -1 0 I I #
point $-1 -43.993041779839473 -7.7362825231258938 0.03921180035639793 #
point $-1 -38.943132759249956 -11.893027011165747 -0.23514480196418536 #
straight-curve $-1 43.993041779839473 -16.049771499205601 62.2351622352734 0 0 -1 I I #
point $-1 43.993041779839473 -16.049771499205601 4.8147642122588552 #
straight-curve $-1 43.993041779839473 -5.9465135055828737 0.039211800356426352 0 1 0 I I #
point $-1 43.993041779839473 -16.049771499205601 0.039211800356426352 #
point $-1 38.943132759249963 -11.893027011165747 -0.2351448019641818 #
straight-curve $-1 -35.731219039386211 -24.731229106462052 0 0 0 -1 I I #
point $-1 -35.731219039386211 -24.731229106462052 4.8147642122588552 #
End-of-ACIS-data 