500 0 5 0           
7 Unknown 11 ACIS 5.0 NT 24 Thu Mar 25 15:30:03 1999 
-1 9.9999999999999995e-007 1e-010 
body $-1 $5 $-1 $6 #
body $-1 $7 $-1 $8 #
body $-1 $9 $-1 $10 #
body $-1 $11 $-1 $12 #
body $-1 $13 $-1 $14 #
lump $-1 $-1 $15 $0 #
transform $-1 1 0 0 0 1 0 0 0 1 42.523270363475447 28.938197002504538 5.8337398638796341 1 rotate no_reflect no_shear #
lump $-1 $-1 $16 $1 #
transform $-1 1 0 0 0 1 0 0 0 1 42.523270363475447 28.938197002504538 5.8337398638796341 1 rotate no_reflect no_shear #
lump $-1 $-1 $17 $2 #
transform $-1 1 0 0 0 1 0 0 0 1 42.523270363475447 28.938197002504538 5.8337398638796341 1 rotate no_reflect no_shear #
lump $-1 $-1 $18 $3 #
transform $-1 1 0 0 0 1 0 0 0 1 42.523270363475447 28.938197002504538 5.8337398638796341 1 rotate no_reflect no_shear #
lump $-1 $-1 $19 $4 #
transform $-1 1 0 0 0 1 0 0 0 1 42.523270363475447 28.938197002504538 5.8337398638796341 1 rotate no_reflect no_shear #
shell $-1 $-1 $-1 $20 $-1 $5 #
shell $-1 $-1 $-1 $21 $-1 $7 #
shell $-1 $-1 $-1 $22 $-1 $9 #
shell $-1 $-1 $-1 $23 $-1 $11 #
shell $-1 $-1 $-1 $24 $-1 $13 #
face $-1 $25 $26 $15 $-1 $27 forward single #
face $-1 $28 $29 $16 $-1 $30 reversed single #
face $-1 $31 $32 $17 $-1 $33 forward single #
face $-1 $34 $35 $18 $-1 $36 reversed single #
face $-1 $37 $38 $19 $-1 $39 reversed single #
face $-1 $40 $41 $15 $-1 $42 reversed single #
loop $-1 $-1 $43 $20 #
plane-surface $-1 0 0 5.8337398638796341 0 0 1 1 0 0 forward_v I I I I #
face $-1 $44 $45 $16 $-1 $46 forward single #
loop $-1 $-1 $47 $21 #
plane-surface $-1 -39.199774502255892 0 -2.8337398638796341 0 0 1 1 0 0 forward_v I I I I #
face $-1 $48 $49 $17 $-1 $50 forward single #
loop $-1 $-1 $51 $22 #
plane-surface $-1 30.638801237210899 -101.83731141780673 44.08370284228139 1 0 0 0 0.85716730853699208 -0.51503806187062418 forward_v I I I I #
face $-1 $52 $53 $18 $-1 $54 reversed single #
loop $-1 $55 $56 $23 #
cone-surface $-1 34.03436384471506 -25.861042261890994 2.2109502232930689 0 0.85716730853699208 -0.51503806187062418 1 0 0 1 I I 0 1 1 forward I I I I #
face $-1 $57 $58 $19 $-1 $59 reversed single #
loop $-1 $60 $61 $24 #
cone-surface $-1 39.127707755971301 -25.861042261890994 2.2109502232930689 0 0.85716730853699208 -0.51503806187062418 1 0 0 1 I I 0 1 1 forward I I I I #
face $-1 $62 $63 $15 $-1 $64 reversed single #
loop $-1 $-1 $65 $25 #
plane-surface $-1 0 0 -5.8337398638796341 0 0 1 1 0 0 forward_v I I I I #
coedge $-1 $66 $67 $68 $69 forward $26 $-1 #
face $-1 $70 $71 $16 $-1 $72 reversed single #
loop $-1 $-1 $73 $28 #
plane-surface $-1 -35.876278641036336 0 -4.3337398638796341 -1 0 0 0 0 1 forward_v I I I I #
coedge $-1 $74 $75 $76 $77 reversed $29 $-1 #
face $-1 $78 $79 $17 $-1 $80 reversed single #
loop $-1 $-1 $81 $31 #
plane-surface $-1 36.581035800343173 -28.938197002504552 0.28149733747149952 0 -0.85716730853699208 0.51503806187062418 1 0 0 forward_v I I I I #
coedge $-1 $82 $83 $84 $85 reversed $32 $-1 #
face $-1 $86 $87 $18 $-1 $88 forward single #
loop $-1 $89 $90 $34 #
cone-surface $-1 34.03436384471506 -24.023365750235513 1.1067628149752649 0 0.85716730853699208 -0.51503806187062418 0.5 0 0 1 I I -0.70710678118654746 0.70710678118654746 0.5 forward I I I I #
loop $-1 $-1 $91 $23 #
coedge $-1 $56 $56 $92 $93 reversed $35 $-1 #
face $-1 $94 $95 $19 $-1 $96 reversed single #
loop $-1 $97 $98 $37 #
cone-surface $-1 39.127707755971301 -24.023365750235513 1.1067628149752649 0 0.85716730853699208 -0.51503806187062418 0.5 0 0 1 I I -0.70710678118654746 0.70710678118654746 0.5 forward I I I I #
loop $-1 $-1 $99 $24 #
coedge $-1 $61 $61 $100 $101 reversed $38 $-1 #
face $-1 $102 $103 $15 $-1 $104 reversed single #
loop $-1 $-1 $105 $40 #
plane-surface $-1 0 -28.938197002504538 0 0 1 0 0 0 1 forward_v I I I I #
coedge $-1 $106 $107 $108 $109 forward $41 $-1 #
coedge $-1 $110 $43 $111 $112 forward $26 $-1 #
coedge $-1 $43 $110 $113 $114 forward $26 $-1 #
coedge $-1 $115 $116 $43 $69 reversed $117 $-1 #
edge $-1 $118 -28.938197002504538 $119 28.938197002504538 $68 $120 forward 7 unknown #
face $-1 $121 $122 $16 $-1 $123 reversed single #
loop $-1 $-1 $124 $44 #
plane-surface $-1 -42.523270363475447 0 0 1 0 0 0 0 -1 forward_v I I I I #
coedge $-1 $76 $125 $126 $127 reversed $45 $-1 #
coedge $-1 $128 $47 $129 $130 reversed $29 $-1 #
coedge $-1 $47 $128 $131 $132 reversed $29 $-1 #
coedge $-1 $133 $73 $47 $77 forward $45 $-1 #
edge $-1 $134 -28.938197002504538 $135 28.938197002504538 $76 $136 forward 7 unknown #
face $-1 $137 $138 $17 $-1 $139 forward single #
loop $-1 $-1 $140 $48 #
plane-surface $-1 0 -28.938197002504538 0 0 1 0 0 0 1 forward_v I I I I #
coedge $-1 $141 $142 $140 $143 reversed $49 $-1 #
coedge $-1 $83 $51 $142 $144 forward $32 $-1 #
coedge $-1 $51 $82 $145 $146 reversed $32 $-1 #
coedge $-1 $147 $140 $51 $85 forward $79 $-1 #
edge $-1 $148 -21.760354083669171 $149 -16.208111557261063 $84 $150 forward 7 unknown #
face $-1 $151 $152 $18 $-1 $153 forward single #
loop $-1 $-1 $154 $52 #
plane-surface $-1 30.638801237210899 -101.83731141780673 44.08370284228139 1 0 0 0 0.85716730853699208 -0.51503806187062418 forward_v I I I I #
loop $-1 $-1 $155 $34 #
coedge $-1 $90 $90 $91 $156 forward $53 $-1 #
coedge $-1 $91 $91 $90 $156 reversed $55 $-1 #
coedge $-1 $92 $92 $56 $93 forward $152 $-1 #
edge $-1 $157 1.055361490622287e-015 $157 6.2831853071796013 $92 $158 forward 7 unknown #
face $-1 $159 $160 $19 $-1 $161 reversed single #
loop $-1 $162 $163 $57 #
cone-surface $-1 34.03436384471506 -25.861042261890994 2.2109502232930689 0 0.85716730853699208 -0.51503806187062418 1 0 0 1 I I 0 1 1 forward I I I I #
loop $-1 $-1 $164 $37 #
coedge $-1 $98 $98 $99 $165 forward $58 $-1 #
coedge $-1 $99 $99 $98 $165 reversed $60 $-1 #
coedge $-1 $100 $100 $61 $101 forward $166 $-1 #
edge $-1 $167 1.055361490622287e-015 $167 6.2831853071796013 $100 $168 forward 7 unknown #
face $-1 $169 $170 $15 $-1 $171 reversed single #
loop $-1 $-1 $172 $62 #
plane-surface $-1 -42.523270363475447 0 0 1 0 0 0 0 -1 forward_v I I I I #
coedge $-1 $173 $113 $174 $175 forward $63 $-1 #
coedge $-1 $176 $65 $173 $177 forward $41 $-1 #
coedge $-1 $65 $176 $178 $179 forward $41 $-1 #
coedge $-1 $116 $115 $65 $109 reversed $117 $-1 #
edge $-1 $180 -28.938197002504538 $181 28.938197002504538 $108 $182 forward 7 unknown #
coedge $-1 $67 $66 $183 $184 forward $26 $-1 #
coedge $-1 $185 $186 $66 $112 reversed $170 $-1 #
edge $-1 $119 -42.523270363475447 $187 42.523270363475447 $111 $188 forward 7 unknown #
coedge $-1 $105 $189 $67 $114 reversed $63 $-1 #
edge $-1 $190 -42.523270363475447 $118 42.523270363475447 $113 $191 forward 7 unknown #
coedge $-1 $108 $68 $189 $192 forward $117 $-1 #
coedge $-1 $68 $108 $185 $193 reversed $117 $-1 #
loop $-1 $-1 $115 $169 #
vertex $-1 $69 $194 #
vertex $-1 $69 $195 #
straight-curve $-1 42.523270363475447 0 5.8337398638796341 0 1 0 I I #
face $-1 $196 $197 $16 $-1 $198 forward single #
loop $-1 $-1 $129 $70 #
plane-surface $-1 0 -28.938197002504538 0 0 1 0 0 0 1 forward_v I I I I #
coedge $-1 $199 $200 $128 $201 forward $71 $-1 #
coedge $-1 $73 $133 $202 $203 reversed $45 $-1 #
coedge $-1 $204 $129 $73 $127 forward $122 $-1 #
edge $-1 $134 0.66686993193981703 $205 3.666869931939817 $126 $206 forward 7 unknown #
coedge $-1 $75 $74 $124 $201 reversed $29 $-1 #
coedge $-1 $126 $207 $74 $130 forward $122 $-1 #
edge $-1 $208 -22.923383112347501 $134 -16.27639138990839 $129 $209 forward 7 unknown #
coedge $-1 $210 $211 $75 $132 forward $212 $-1 #
edge $-1 $135 16.27639138990839 $213 22.923383112347501 $131 $214 forward 7 unknown #
coedge $-1 $125 $76 $211 $215 reversed $45 $-1 #
vertex $-1 $130 $216 #
vertex $-1 $132 $217 #
straight-curve $-1 -35.876278641036336 0 -2.8337398638796341 0 1 0 I I #
face $-1 $218 $219 $17 $-1 $220 reversed single #
loop $-1 $-1 $145 $78 #
plane-surface $-1 0 0 5.8337398638796341 0 0 1 1 0 0 forward_v I I I I #
coedge $-1 $84 $221 $81 $143 forward $79 $-1 #
coedge $-1 $222 $81 $223 $224 reversed $49 $-1 #
coedge $-1 $81 $222 $82 $144 reversed $49 $-1 #
edge $-1 $225 -24.232752463303861 $148 -12.348283337039312 $140 $226 forward 7 unknown #
edge $-1 $148 2.7589209654379419e-014 $227 6.477431501540428 $82 $228 forward 7 unknown #
coedge $-1 $229 $230 $83 $146 forward $138 $-1 #
edge $-1 $149 21.980458706398828 $227 25.316582472851923 $145 $231 forward 7 unknown #
coedge $-1 $232 $84 $230 $233 reversed $79 $-1 #
vertex $-1 $143 $234 #
vertex $-1 $146 $235 #
straight-curve $-1 30.638801237210899 -28.938197002504538 22.041851421140695 0 0 1 I I #
face $-1 $236 $237 $18 $-1 $238 reversed single #
loop $-1 $239 $92 $86 #
plane-surface $-1 36.581035800343173 -28.938197002504552 0.28149733747149952 0 -0.85716730853699208 0.51503806187062418 1 0 0 forward_v I I I I #
coedge $-1 $240 $241 $242 $243 reversed $87 $-1 #
coedge $-1 $155 $155 $-1 $244 forward $89 $-1 #
edge $-1 $245 0 $245 6.2831853071796004 $90 $246 forward 7 unknown #
vertex $-1 $93 $247 #
ellipse-curve $-1 34.03436384471506 -27.270135119277995 3.0576186006755703 0 0.85716730853699208 -0.51503806187062418 1 0 0 1 I I #
face $-1 $248 $249 $19 $-1 $250 forward single #
loop $-1 $251 $252 $94 #
cone-surface $-1 34.03436384471506 -24.023365750235513 1.1067628149752649 0 0.85716730853699208 -0.51503806187062418 0.5 0 0 1 I I -0.70710678118654746 0.70710678118654746 0.5 forward I I I I #
loop $-1 $-1 $253 $57 #
coedge $-1 $163 $163 $254 $255 reversed $95 $-1 #
coedge $-1 $164 $164 $-1 $256 forward $97 $-1 #
edge $-1 $257 0 $257 6.2831853071796004 $98 $258 forward 7 unknown #
loop $-1 $259 $100 $248 #
vertex $-1 $101 $260 #
ellipse-curve $-1 39.127707755971301 -27.270135119277995 3.0576186006755703 0 0.85716730853699208 -0.51503806187062418 1 0 0 1 I I #
face $-1 $-1 $117 $15 $-1 $261 reversed single #
loop $-1 $-1 $185 $102 #
plane-surface $-1 0 28.938197002504538 0 0 -1 0 0 0 -1 forward_v I I I I #
coedge $-1 $262 $183 $186 $263 forward $103 $-1 #
coedge $-1 $189 $105 $106 $177 reversed $63 $-1 #
coedge $-1 $183 $262 $105 $175 reversed $103 $-1 #
edge $-1 $190 -5.8337398638796341 $264 5.8337398638796341 $174 $265 forward 7 unknown #
coedge $-1 $107 $106 $262 $266 forward $41 $-1 #
edge $-1 $181 -42.523270363475447 $264 42.523270363475447 $173 $267 forward 7 unknown #
coedge $-1 $186 $185 $107 $179 reversed $170 $-1 #
edge $-1 $268 -42.523270363475447 $180 42.523270363475447 $178 $269 forward 7 unknown #
vertex $-1 $109 $270 #
vertex $-1 $192 $271 #
straight-curve $-1 42.523270363475447 0 -5.8337398638796341 0 -1 0 I I #
coedge $-1 $172 $174 $110 $184 reversed $103 $-1 #
edge $-1 $187 -28.938197002504538 $190 28.938197002504538 $183 $272 forward 7 unknown #
coedge $-1 $178 $111 $116 $193 forward $170 $-1 #
coedge $-1 $111 $178 $172 $263 reversed $170 $-1 #
vertex $-1 $112 $273 #
straight-curve $-1 0 28.938197002504538 5.8337398638796341 -1 0 0 I I #
coedge $-1 $113 $173 $115 $192 reversed $63 $-1 #
vertex $-1 $184 $274 #
straight-curve $-1 0 -28.938197002504538 5.8337398638796341 1 0 0 I I #
edge $-1 $118 -5.8337398638796341 $181 5.8337398638796341 $115 $275 forward 7 unknown #
edge $-1 $119 -5.8337398638796341 $180 5.8337398638796341 $116 $276 forward 7 unknown #
point $-1 42.523270363475447 -28.938197002504538 5.8337398638796341 #
point $-1 42.523270363475447 28.938197002504538 5.8337398638796341 #
face $-1 $277 $278 $16 $-1 $279 reversed single #
loop $-1 $-1 $280 $121 #
plane-surface $-1 0 0 5.8337398638796341 0 0 1 1 0 0 forward_v I I I I #
coedge $-1 $281 $124 $207 $282 reversed $71 $-1 #
coedge $-1 $124 $281 $210 $283 forward $71 $-1 #
edge $-1 $213 -28.938197002504538 $208 28.938197002504538 $124 $284 forward 7 unknown #
coedge $-1 $285 $286 $125 $203 forward $278 $-1 #
edge $-1 $205 -28.938197002504538 $287 28.938197002504538 $202 $288 forward 7 unknown #
coedge $-1 $289 $126 $286 $290 reversed $122 $-1 #
vertex $-1 $127 $291 #
straight-curve $-1 -35.876278641036336 -28.938197002504538 -2.166869931939817 0 0 -1 I I #
coedge $-1 $129 $292 $199 $282 forward $122 $-1 #
vertex $-1 $130 $293 #
straight-curve $-1 -19.599887251127946 -28.938197002504538 -2.8337398638796341 1 0 0 I I #
coedge $-1 $294 $131 $200 $283 reversed $212 $-1 #
coedge $-1 $131 $295 $133 $215 forward $212 $-1 #
loop $-1 $-1 $131 $277 #
vertex $-1 $201 $296 #
straight-curve $-1 -19.599887251127946 28.938197002504538 -2.8337398638796341 -1 0 0 I I #
edge $-1 $287 -3.666869931939817 $135 -0.66686993193981703 $211 $297 forward 7 unknown #
point $-1 -35.876278641036336 -28.938197002504538 -2.8337398638796341 #
point $-1 -35.876278641036336 28.938197002504538 -2.8337398638796341 #
face $-1 $298 $299 $17 $-1 $300 forward single #
loop $-1 $-1 $301 $137 #
plane-surface $-1 -39.199774502255892 0 -2.8337398638796341 0 0 1 1 0 0 forward_v I I I I #
coedge $-1 $140 $302 $303 $304 reversed $79 $-1 #
coedge $-1 $142 $141 $229 $305 reversed $49 $-1 #
coedge $-1 $303 $306 $141 $224 forward $307 $-1 #
edge $-1 $308 0.85405978999931076 $225 7.3314912915397104 $223 $309 forward 7 unknown #
vertex $-1 $304 $310 #
straight-curve $-1 18.290517900171587 -28.938197002504538 0.28149733747152472 -1 0 0 I I #
vertex $-1 $305 $311 #
straight-curve $-1 30.638801237210899 -28.938197002504552 0.28149733747149952 0 0.51503806187062418 0.85716730853699208 I I #
coedge $-1 $312 $145 $222 $305 forward $138 $-1 #
coedge $-1 $145 $313 $147 $233 forward $138 $-1 #
straight-curve $-1 30.638801237210899 -50.918655708903366 5.8337398638796358 0 1 0 I I #
coedge $-1 $314 $147 $315 $316 forward $79 $-1 #
edge $-1 $317 -42.523270363475447 $149 30.638801237210899 $147 $318 forward 7 unknown #
point $-1 30.638801237210899 -28.938197002504538 0.28149733747152317 #
point $-1 30.638801237210899 -28.938197002504538 5.8337398638796341 #
face $-1 $319 $320 $18 $-1 $321 forward single #
loop $-1 $-1 $322 $151 #
plane-surface $-1 0 -28.938197002504538 0 0 1 0 0 0 1 forward_v I I I I #
loop $-1 $-1 $323 $86 #
coedge $-1 $241 $154 $324 $325 forward $87 $-1 #
coedge $-1 $154 $240 $326 $327 reversed $87 $-1 #
coedge $-1 $328 $322 $154 $243 forward $237 $-1 #
edge $-1 $329 -21.760354083669171 $330 -16.208111557261063 $242 $331 forward 7 unknown #
edge $-1 $332 1 $332 0 $155 $-1 forward 7 unknown #
vertex $-1 $156 $333 #
ellipse-curve $-1 34.03436384471506 -24.45194940450401 1.364281845910577 0 -0.85716730853699208 0.51503806187062418 1 0 0 1 I I #
point $-1 35.03436384471506 -27.270135119277981 3.0576186006755606 #
face $-1 $334 $166 $19 $-1 $335 forward single #
loop $-1 $-1 $336 $159 #
plane-surface $-1 30.638801237210899 -101.83731141780673 44.08370284228139 1 0 0 0 0.85716730853699208 -0.51503806187062418 forward_v I I I I #
loop $-1 $-1 $337 $94 #
coedge $-1 $252 $252 $253 $338 forward $160 $-1 #
coedge $-1 $253 $253 $252 $338 reversed $162 $-1 #
coedge $-1 $254 $254 $163 $255 forward $259 $-1 #
edge $-1 $339 1.055361490622287e-015 $339 6.2831853071796013 $254 $340 forward 7 unknown #
edge $-1 $341 1 $341 0 $164 $-1 forward 7 unknown #
vertex $-1 $165 $342 #
ellipse-curve $-1 39.127707755971301 -24.45194940450401 1.364281845910577 0 -0.85716730853699208 0.51503806187062418 1 0 0 1 I I #
loop $-1 $343 $254 $248 #
point $-1 40.127707755971301 -27.270135119277981 3.0576186006755606 #
plane-surface $-1 42.523270363475447 0 0 -1 0 0 0 0 1 forward_v I I I I #
coedge $-1 $174 $172 $176 $266 reversed $103 $-1 #
edge $-1 $187 -5.8337398638796341 $268 5.8337398638796341 $186 $344 forward 7 unknown #
vertex $-1 $266 $345 #
straight-curve $-1 -42.523270363475447 -28.938197002504538 0 0 0 -1 I I #
edge $-1 $264 -28.938197002504538 $268 28.938197002504538 $262 $346 forward 7 unknown #
straight-curve $-1 0 -28.938197002504538 -5.8337398638796341 -1 0 0 I I #
vertex $-1 $179 $347 #
straight-curve $-1 0 28.938197002504538 -5.8337398638796341 1 0 0 I I #
point $-1 42.523270363475447 28.938197002504538 -5.8337398638796341 #
point $-1 42.523270363475447 -28.938197002504538 -5.8337398638796341 #
straight-curve $-1 -42.523270363475447 0 5.8337398638796341 0 -1 0 I I #
point $-1 -42.523270363475447 28.938197002504538 5.8337398638796341 #
point $-1 -42.523270363475447 -28.938197002504538 5.8337398638796341 #
straight-curve $-1 42.523270363475447 -28.938197002504538 0 0 0 -1 I I #
straight-curve $-1 42.523270363475447 28.938197002504538 0 0 0 -1 I I #
face $-1 $348 $212 $16 $-1 $349 reversed single #
loop $-1 $-1 $202 $196 #
plane-surface $-1 0 0 -5.8337398638796341 0 0 1 1 0 0 forward_v I I I I #
coedge $-1 $350 $351 $352 $353 forward $197 $-1 #
coedge $-1 $200 $199 $354 $355 reversed $71 $-1 #
edge $-1 $356 -5.8337398638796341 $208 2.8337398638796341 $199 $357 forward 7 unknown #
edge $-1 $358 -5.8337398638796341 $213 2.8337398638796341 $210 $359 forward 7 unknown #
straight-curve $-1 -42.523270363475447 0 -2.8337398638796341 0 -1 0 I I #
coedge $-1 $360 $202 $295 $361 forward $278 $-1 #
coedge $-1 $202 $360 $204 $290 forward $278 $-1 #
vertex $-1 $361 $362 #
straight-curve $-1 -35.876278641036336 0 -5.8337398638796341 0 1 0 I I #
coedge $-1 $292 $204 $363 $364 reversed $122 $-1 #
edge $-1 $365 -42.523270363475447 $205 35.876278641036336 $204 $366 forward 7 unknown #
point $-1 -35.876278641036336 -28.938197002504538 -5.8337398638796341 #
coedge $-1 $207 $289 $351 $367 reversed $122 $-1 #
point $-1 -42.523270363475447 -28.938197002504538 -2.8337398638796341 #
coedge $-1 $368 $210 $350 $369 reversed $212 $-1 #
coedge $-1 $211 $368 $285 $361 reversed $212 $-1 #
point $-1 -42.523270363475447 28.938197002504538 -2.8337398638796341 #
straight-curve $-1 -35.876278641036336 28.938197002504538 -2.166869931939817 0 0 1 I I #
face $-1 $370 $371 $17 $-1 $372 reversed single #
loop $-1 $-1 $373 $218 #
plane-surface $-1 -35.876278641036336 0 -4.3337398638796341 -1 0 0 0 0 1 forward_v I I I I #
coedge $-1 $374 $375 $376 $377 reversed $219 $-1 #
coedge $-1 $221 $378 $379 $380 reversed $79 $-1 #
coedge $-1 $381 $223 $221 $304 forward $307 $-1 #
edge $-1 $225 -0.28149733747152317 $382 5.8337398638796341 $303 $383 forward 7 unknown #
edge $-1 $227 12.348283337039312 $308 24.232752463303861 $229 $384 forward 7 unknown #
coedge $-1 $223 $385 $312 $386 reversed $307 $-1 #
loop $-1 $-1 $223 $387 #
vertex $-1 $386 $388 #
straight-curve $-1 42.523270363475447 -25.162199937088566 6.5658119954030125 0 -0.51503806187062429 -0.85716730853699219 I I #
point $-1 42.523270363475447 -28.938197002504538 0.28149733747152317 #
point $-1 30.638801237210899 -25.602073236051442 5.8337398638796341 #
coedge $-1 $389 $229 $306 $386 forward $138 $-1 #
coedge $-1 $230 $389 $390 $391 forward $138 $-1 #
coedge $-1 $378 $232 $374 $392 forward $79 $-1 #
coedge $-1 $390 $393 $232 $316 reversed $371 $-1 #
edge $-1 $317 -5.8337398638796341 $394 2.8337398638796341 $315 $395 forward 7 unknown #
vertex $-1 $391 $396 #
straight-curve $-1 0 -28.938197002504538 5.8337398638796341 1 0 0 I I #
face $-1 $397 $398 $18 $-1 $399 reversed single #
loop $-1 $-1 $326 $236 #
plane-surface $-1 0 0 5.8337398638796341 0 0 1 1 0 0 forward_v I I I I #
coedge $-1 $242 $400 $323 $401 forward $237 $-1 #
coedge $-1 $402 $324 $322 $401 reversed $239 $-1 #
coedge $-1 $323 $403 $240 $325 reversed $239 $-1 #
edge $-1 $329 2.7589209654379419e-014 $404 6.477431501540428 $240 $405 forward 7 unknown #
coedge $-1 $406 $407 $241 $327 forward $320 $-1 #
edge $-1 $330 21.980458706398828 $404 25.316582472851923 $326 $408 forward 7 unknown #
coedge $-1 $409 $242 $407 $410 reversed $237 $-1 #
vertex $-1 $401 $411 #
vertex $-1 $327 $412 #
straight-curve $-1 30.638801237210899 -28.938197002504538 22.041851421140695 0 0 1 I I #
vertex $-1 $244 $413 #
point $-1 35.03436384471506 -24.45194940450401 1.364281845910577 #
face $-1 $414 $415 $19 $-1 $416 reversed single #
plane-surface $-1 36.581035800343173 -28.938197002504552 0.28149733747149952 0 -0.85716730853699208 0.51503806187062418 1 0 0 forward_v I I I I #
coedge $-1 $417 $418 $419 $420 reversed $249 $-1 #
coedge $-1 $337 $337 $-1 $421 forward $251 $-1 #
edge $-1 $422 0 $422 6.2831853071796004 $252 $423 forward 7 unknown #
vertex $-1 $255 $424 #
ellipse-curve $-1 34.03436384471506 -27.270135119277995 3.0576186006755703 0 0.85716730853699208 -0.51503806187062418 1 0 0 1 I I #
vertex $-1 $256 $425 #
point $-1 40.127707755971301 -24.45194940450401 1.364281845910577 #
loop $-1 $-1 $426 $248 #
straight-curve $-1 -42.523270363475447 28.938197002504538 0 0 0 -1 I I #
point $-1 -42.523270363475447 -28.938197002504538 -5.8337398638796341 #
straight-curve $-1 -42.523270363475447 0 -5.8337398638796341 0 1 0 I I #
point $-1 -42.523270363475447 28.938197002504538 -5.8337398638796341 #
face $-1 $-1 $427 $16 $-1 $428 reversed single #
plane-surface $-1 0 28.938197002504538 0 0 -1 0 0 0 -1 forward_v I I I I #
coedge $-1 $354 $280 $294 $369 forward $197 $-1 #
coedge $-1 $280 $354 $292 $367 forward $197 $-1 #
coedge $-1 $363 $429 $280 $353 reversed $427 $-1 #
edge $-1 $430 -28.938197002504538 $431 28.938197002504538 $352 $432 forward 7 unknown #
coedge $-1 $351 $350 $281 $355 forward $197 $-1 #
edge $-1 $358 -28.938197002504538 $356 28.938197002504538 $281 $433 forward 7 unknown #
vertex $-1 $355 $434 #
straight-curve $-1 -42.523270363475447 -28.938197002504538 0 0 0 -1 I I #
vertex $-1 $369 $435 #
straight-curve $-1 -42.523270363475447 28.938197002504538 0 0 0 -1 I I #
coedge $-1 $286 $285 $436 $437 forward $278 $-1 #
edge $-1 $287 -35.876278641036336 $438 42.523270363475447 $295 $439 forward 7 unknown #
point $-1 -35.876278641036336 28.938197002504538 -5.8337398638796341 #
coedge $-1 $436 $352 $289 $364 forward $427 $-1 #
edge $-1 $430 -5.8337398638796341 $365 5.8337398638796341 $363 $440 forward 7 unknown #
vertex $-1 $364 $441 #
straight-curve $-1 0 -28.938197002504538 -5.8337398638796341 -1 0 0 I I #
edge $-1 $356 -42.523270363475447 $430 42.523270363475447 $292 $442 forward 7 unknown #
coedge $-1 $295 $294 $429 $443 forward $212 $-1 #
edge $-1 $431 -42.523270363475447 $358 42.523270363475447 $294 $444 forward 7 unknown #
face $-1 $445 $446 $17 $-1 $447 reversed single #
loop $-1 $-1 $393 $298 #
plane-surface $-1 -42.523270363475447 0 0 1 0 0 0 0 -1 forward_v I I I I #
coedge $-1 $376 $448 $378 $449 reversed $299 $-1 #
coedge $-1 $450 $301 $314 $392 reversed $219 $-1 #
coedge $-1 $301 $450 $451 $452 reversed $219 $-1 #
coedge $-1 $453 $373 $301 $377 forward $299 $-1 #
edge $-1 $454 -28.938197002504538 $455 28.938197002504538 $376 $456 forward 7 unknown #
coedge $-1 $302 $314 $373 $449 forward $79 $-1 #
coedge $-1 $457 $458 $302 $380 forward $446 $-1 #
edge $-1 $382 -42.523270363475447 $459 35.876278641036336 $302 $460 forward 7 unknown #
coedge $-1 $385 $303 $458 $461 reversed $307 $-1 #
vertex $-1 $304 $462 #
straight-curve $-1 42.523270363475447 -28.938197002504538 0 0 0 -1 I I #
straight-curve $-1 18.290517900171587 -25.602073236051442 5.8337398638796341 1 0 0 I I #
coedge $-1 $306 $381 $463 $464 reversed $307 $-1 #
edge $-1 $308 -25.602073236051442 $465 28.938197002504538 $306 $466 forward 7 unknown #
face $-1 $-1 $307 $17 $-1 $467 reversed single #
point $-1 42.523270363475447 -25.602073236051442 5.8337398638796341 #
coedge $-1 $313 $312 $468 $469 forward $138 $-1 #
coedge $-1 $470 $315 $313 $391 reversed $371 $-1 #
edge $-1 $471 -28.938197002504538 $317 28.938197002504538 $390 $472 forward 7 unknown #
edge $-1 $394 -22.923383112347501 $454 -16.27639138990839 $314 $473 forward 7 unknown #
coedge $-1 $315 $470 $450 $474 forward $371 $-1 #
vertex $-1 $392 $475 #
straight-curve $-1 -42.523270363475447 -28.938197002504538 0 0 0 -1 I I #
point $-1 -42.523270363475447 -28.938197002504538 5.8337398638796341 #
face $-1 $476 $477 $18 $-1 $478 forward single #
loop $-1 $-1 $479 $319 #
plane-surface $-1 -39.199774502255892 0 -2.8337398638796341 0 0 1 1 0 0 forward_v I I I I #
coedge $-1 $322 $480 $481 $482 reversed $237 $-1 #
edge $-1 $483 -24.232752463303861 $329 -12.348283337039312 $322 $484 forward 7 unknown #
coedge $-1 $403 $323 $485 $486 reversed $239 $-1 #
coedge $-1 $324 $402 $406 $487 reversed $239 $-1 #
vertex $-1 $487 $488 #
straight-curve $-1 30.638801237210899 -28.938197002504552 0.28149733747149952 0 0.51503806187062418 0.85716730853699208 I I #
coedge $-1 $489 $326 $403 $487 forward $320 $-1 #
coedge $-1 $326 $490 $328 $410 forward $320 $-1 #
straight-curve $-1 30.638801237210899 -50.918655708903366 5.8337398638796358 0 1 0 I I #
coedge $-1 $491 $328 $492 $493 forward $237 $-1 #
edge $-1 $494 -42.523270363475447 $330 30.638801237210899 $328 $495 forward 7 unknown #
point $-1 30.638801237210899 -28.938197002504538 0.28149733747152317 #
point $-1 30.638801237210899 -28.938197002504538 5.8337398638796341 #
point $-1 34.03436384471506 -23.594782095967016 0.84924378403995271 #
face $-1 $496 $497 $19 $-1 $498 forward single #
loop $-1 $-1 $499 $334 #
plane-surface $-1 0 -28.938197002504538 0 0 1 0 0 0 1 forward_v I I I I #
coedge $-1 $418 $336 $500 $501 forward $249 $-1 #
coedge $-1 $336 $417 $502 $503 reversed $249 $-1 #
coedge $-1 $504 $499 $336 $420 forward $415 $-1 #
edge $-1 $505 -21.760354083669171 $506 -16.208111557261063 $419 $507 forward 7 unknown #
edge $-1 $508 1 $508 0 $337 $-1 forward 7 unknown #
vertex $-1 $338 $509 #
ellipse-curve $-1 34.03436384471506 -24.45194940450401 1.364281845910577 0 -0.85716730853699208 0.51503806187062418 1 0 0 1 I I #
point $-1 35.03436384471506 -27.270135119277981 3.0576186006755606 #
point $-1 39.127707755971301 -23.594782095967016 0.84924378403995271 #
coedge $-1 $510 $500 $499 $511 reversed $343 $-1 #
loop $-1 $-1 $363 $348 #
plane-surface $-1 42.523270363475447 0 0 -1 0 0 0 0 1 forward_v I I I I #
coedge $-1 $352 $436 $368 $443 reversed $427 $-1 #
vertex $-1 $353 $512 #
vertex $-1 $353 $513 #
straight-curve $-1 42.523270363475447 0 5.8337398638796341 0 1 0 I I #
straight-curve $-1 -42.523270363475447 0 5.8337398638796341 0 -1 0 I I #
point $-1 -42.523270363475447 -28.938197002504538 5.8337398638796341 #
point $-1 -42.523270363475447 28.938197002504538 5.8337398638796341 #
coedge $-1 $429 $363 $360 $437 reversed $427 $-1 #
edge $-1 $438 -28.938197002504538 $365 28.938197002504538 $436 $514 forward 7 unknown #
vertex $-1 $437 $515 #
straight-curve $-1 0 28.938197002504538 -5.8337398638796341 1 0 0 I I #
straight-curve $-1 42.523270363475447 -28.938197002504538 0 0 0 -1 I I #
point $-1 42.523270363475447 -28.938197002504538 -5.8337398638796341 #
straight-curve $-1 0 -28.938197002504538 5.8337398638796341 1 0 0 I I #
edge $-1 $431 -5.8337398638796341 $438 5.8337398638796341 $429 $516 forward 7 unknown #
straight-curve $-1 0 28.938197002504538 5.8337398638796341 -1 0 0 I I #
face $-1 $387 $517 $17 $-1 $518 reversed single #
loop $-1 $-1 $457 $370 #
plane-surface $-1 0 0 -5.8337398638796341 0 0 1 1 0 0 forward_v I I I I #
coedge $-1 $373 $453 $457 $519 reversed $299 $-1 #
edge $-1 $454 0.66686993193981703 $459 3.666869931939817 $378 $520 forward 7 unknown #
coedge $-1 $375 $374 $393 $474 reversed $219 $-1 #
coedge $-1 $521 $522 $375 $452 forward $517 $-1 #
edge $-1 $455 16.27639138990839 $523 22.923383112347501 $451 $524 forward 7 unknown #
coedge $-1 $448 $376 $522 $525 reversed $299 $-1 #
vertex $-1 $392 $526 #
vertex $-1 $452 $527 #
straight-curve $-1 -35.876278641036336 0 -2.8337398638796341 0 1 0 I I #
coedge $-1 $528 $379 $448 $519 forward $446 $-1 #
coedge $-1 $379 $528 $381 $461 forward $446 $-1 #
vertex $-1 $449 $529 #
straight-curve $-1 0 -28.938197002504538 -5.8337398638796341 -1 0 0 I I #
edge $-1 $530 -28.938197002504538 $382 28.938197002504538 $381 $531 forward 7 unknown #
point $-1 42.523270363475447 -28.938197002504538 -5.8337398638796341 #
coedge $-1 $532 $468 $385 $464 forward $517 $-1 #
edge $-1 $465 -5.8337398638796341 $530 5.8337398638796341 $385 $533 forward 7 unknown #
vertex $-1 $386 $534 #
straight-curve $-1 42.523270363475447 0 5.8337398638796341 0 1 0 I I #
plane-surface $-1 42.523270363475447 0 0 -1 0 0 0 0 1 forward_v I I I I #
coedge $-1 $463 $521 $389 $469 reversed $517 $-1 #
edge $-1 $465 -42.523270363475447 $471 42.523270363475447 $468 $535 forward 7 unknown #
coedge $-1 $393 $390 $521 $536 forward $371 $-1 #
vertex $-1 $469 $537 #
straight-curve $-1 -42.523270363475447 0 5.8337398638796341 0 -1 0 I I #
straight-curve $-1 -19.599887251127946 -28.938197002504538 -2.8337398638796341 1 0 0 I I #
edge $-1 $523 -28.938197002504538 $394 28.938197002504538 $393 $538 forward 7 unknown #
point $-1 -42.523270363475447 -28.938197002504538 -2.8337398638796341 #
face $-1 $539 $540 $18 $-1 $541 reversed single #
loop $-1 $-1 $542 $397 #
plane-surface $-1 -35.876278641036336 0 -4.3337398638796341 -1 0 0 0 0 1 forward_v I I I I #
coedge $-1 $543 $544 $545 $546 reversed $398 $-1 #
coedge $-1 $400 $547 $548 $549 reversed $237 $-1 #
coedge $-1 $550 $485 $400 $482 forward $551 $-1 #
edge $-1 $483 -0.28149733747152317 $552 5.8337398638796341 $481 $553 forward 7 unknown #
vertex $-1 $482 $554 #
straight-curve $-1 18.290517900171587 -28.938197002504538 0.28149733747152472 -1 0 0 I I #
coedge $-1 $481 $555 $402 $486 forward $551 $-1 #
edge $-1 $556 0.85405978999931076 $483 7.3314912915397104 $485 $557 forward 7 unknown #
edge $-1 $404 12.348283337039312 $556 24.232752463303861 $406 $558 forward 7 unknown #
point $-1 30.638801237210899 -25.602073236051442 5.8337398638796341 #
coedge $-1 $559 $406 $555 $560 forward $320 $-1 #
coedge $-1 $407 $559 $561 $562 forward $320 $-1 #
coedge $-1 $547 $409 $543 $563 forward $237 $-1 #
coedge $-1 $561 $564 $409 $493 reversed $540 $-1 #
edge $-1 $494 -5.8337398638796341 $565 2.8337398638796341 $492 $566 forward 7 unknown #
vertex $-1 $562 $567 #
straight-curve $-1 0 -28.938197002504538 5.8337398638796341 1 0 0 I I #
face $-1 $568 $569 $19 $-1 $570 reversed single #
loop $-1 $-1 $502 $414 #
plane-surface $-1 0 0 5.8337398638796341 0 0 1 1 0 0 forward_v I I I I #
coedge $-1 $419 $571 $426 $511 forward $415 $-1 #
coedge $-1 $426 $572 $417 $501 reversed $343 $-1 #
edge $-1 $505 2.7589209654379419e-014 $573 6.477431501540428 $417 $574 forward 7 unknown #
coedge $-1 $575 $576 $418 $503 forward $497 $-1 #
edge $-1 $506 21.980458706398828 $573 25.316582472851923 $502 $577 forward 7 unknown #
coedge $-1 $578 $419 $576 $579 reversed $415 $-1 #
vertex $-1 $511 $580 #
vertex $-1 $503 $581 #
straight-curve $-1 30.638801237210899 -28.938197002504538 22.041851421140695 0 0 1 I I #
vertex $-1 $421 $582 #
point $-1 35.03436384471506 -24.45194940450401 1.364281845910577 #
coedge $-1 $572 $426 $583 $584 reversed $343 $-1 #
edge $-1 $585 -24.232752463303861 $505 -12.348283337039312 $499 $586 forward 7 unknown #
point $-1 42.523270363475447 -28.938197002504538 5.8337398638796341 #
point $-1 42.523270363475447 28.938197002504538 5.8337398638796341 #
straight-curve $-1 42.523270363475447 0 -5.8337398638796341 0 -1 0 I I #
point $-1 42.523270363475447 28.938197002504538 -5.8337398638796341 #
straight-curve $-1 42.523270363475447 28.938197002504538 0 0 0 -1 I I #
loop $-1 $-1 $451 $445 #
plane-surface $-1 0 28.938197002504538 0 0 -1 0 0 0 -1 forward_v I I I I #
edge $-1 $459 -28.938197002504538 $587 28.938197002504538 $457 $588 forward 7 unknown #
straight-curve $-1 -35.876278641036336 -28.938197002504538 -2.166869931939817 0 0 -1 I I #
coedge $-1 $468 $451 $470 $536 reversed $517 $-1 #
coedge $-1 $451 $532 $453 $525 forward $517 $-1 #
vertex $-1 $474 $589 #
straight-curve $-1 -19.599887251127946 28.938197002504538 -2.8337398638796341 -1 0 0 I I #
edge $-1 $587 -3.666869931939817 $455 -0.66686993193981703 $522 $590 forward 7 unknown #
point $-1 -35.876278641036336 -28.938197002504538 -2.8337398638796341 #
point $-1 -35.876278641036336 28.938197002504538 -2.8337398638796341 #
coedge $-1 $458 $457 $532 $591 forward $446 $-1 #
point $-1 -35.876278641036336 -28.938197002504538 -5.8337398638796341 #
vertex $-1 $461 $592 #
straight-curve $-1 42.523270363475447 0 -5.8337398638796341 0 -1 0 I I #
coedge $-1 $522 $463 $528 $591 reversed $517 $-1 #
straight-curve $-1 42.523270363475447 28.938197002504538 0 0 0 -1 I I #
point $-1 42.523270363475447 28.938197002504538 5.8337398638796341 #
straight-curve $-1 0 28.938197002504538 5.8337398638796341 -1 0 0 I I #
edge $-1 $471 -5.8337398638796341 $523 2.8337398638796341 $521 $593 forward 7 unknown #
point $-1 -42.523270363475447 28.938197002504538 5.8337398638796341 #
straight-curve $-1 -42.523270363475447 0 -2.8337398638796341 0 -1 0 I I #
face $-1 $594 $595 $18 $-1 $596 reversed single #
loop $-1 $-1 $564 $476 #
plane-surface $-1 -42.523270363475447 0 0 1 0 0 0 0 -1 forward_v I I I I #
coedge $-1 $545 $597 $547 $598 reversed $477 $-1 #
coedge $-1 $599 $479 $491 $563 reversed $398 $-1 #
coedge $-1 $479 $599 $600 $601 reversed $398 $-1 #
coedge $-1 $602 $542 $479 $546 forward $477 $-1 #
edge $-1 $603 -28.938197002504538 $604 28.938197002504538 $545 $605 forward 7 unknown #
coedge $-1 $480 $491 $542 $598 forward $237 $-1 #
coedge $-1 $606 $607 $480 $549 forward $595 $-1 #
edge $-1 $552 -42.523270363475447 $608 35.876278641036336 $480 $609 forward 7 unknown #
coedge $-1 $610 $481 $607 $611 reversed $551 $-1 #
loop $-1 $-1 $485 $612 #
vertex $-1 $482 $613 #
straight-curve $-1 42.523270363475447 -28.938197002504538 0 0 0 -1 I I #
point $-1 42.523270363475447 -28.938197002504538 0.28149733747152317 #
coedge $-1 $485 $610 $489 $560 reversed $551 $-1 #
vertex $-1 $560 $614 #
straight-curve $-1 42.523270363475447 -25.162199937088566 6.5658119954030125 0 -0.51503806187062429 -0.85716730853699219 I I #
straight-curve $-1 18.290517900171587 -25.602073236051442 5.8337398638796341 1 0 0 I I #
coedge $-1 $490 $489 $615 $616 forward $320 $-1 #
edge $-1 $556 -25.602073236051442 $617 28.938197002504538 $555 $618 forward 7 unknown #
coedge $-1 $619 $492 $490 $562 reversed $540 $-1 #
edge $-1 $620 -28.938197002504538 $494 28.938197002504538 $561 $621 forward 7 unknown #
edge $-1 $565 -22.923383112347501 $603 -16.27639138990839 $491 $622 forward 7 unknown #
coedge $-1 $492 $619 $599 $623 forward $540 $-1 #
vertex $-1 $563 $624 #
straight-curve $-1 -42.523270363475447 -28.938197002504538 0 0 0 -1 I I #
point $-1 -42.523270363475447 -28.938197002504538 5.8337398638796341 #
face $-1 $625 $626 $19 $-1 $627 forward single #
loop $-1 $-1 $628 $496 #
plane-surface $-1 -39.199774502255892 0 -2.8337398638796341 0 0 1 1 0 0 forward_v I I I I #
coedge $-1 $499 $629 $630 $631 reversed $415 $-1 #
coedge $-1 $500 $510 $575 $632 reversed $343 $-1 #
vertex $-1 $632 $633 #
straight-curve $-1 30.638801237210899 -28.938197002504552 0.28149733747149952 0 0.51503806187062418 0.85716730853699208 I I #
coedge $-1 $634 $502 $572 $632 forward $497 $-1 #
coedge $-1 $502 $635 $504 $579 forward $497 $-1 #
straight-curve $-1 30.638801237210899 -50.918655708903366 5.8337398638796358 0 1 0 I I #
coedge $-1 $636 $504 $637 $638 forward $415 $-1 #
edge $-1 $639 -42.523270363475447 $506 30.638801237210899 $504 $640 forward 7 unknown #
point $-1 30.638801237210899 -28.938197002504538 0.28149733747152317 #
point $-1 30.638801237210899 -28.938197002504538 5.8337398638796341 #
point $-1 34.03436384471506 -23.594782095967016 0.84924378403995271 #
coedge $-1 $630 $641 $510 $584 forward $642 $-1 #
edge $-1 $643 0.85405978999931076 $585 7.3314912915397104 $583 $644 forward 7 unknown #
vertex $-1 $631 $645 #
straight-curve $-1 18.290517900171587 -28.938197002504538 0.28149733747152472 -1 0 0 I I #
vertex $-1 $591 $646 #
straight-curve $-1 -35.876278641036336 0 -5.8337398638796341 0 1 0 I I #
point $-1 -42.523270363475447 28.938197002504538 -2.8337398638796341 #
straight-curve $-1 -35.876278641036336 28.938197002504538 -2.166869931939817 0 0 1 I I #
edge $-1 $587 -35.876278641036336 $530 42.523270363475447 $532 $647 forward 7 unknown #
point $-1 42.523270363475447 28.938197002504538 -5.8337398638796341 #
straight-curve $-1 -42.523270363475447 28.938197002504538 0 0 0 -1 I I #
face $-1 $612 $648 $18 $-1 $649 reversed single #
loop $-1 $-1 $606 $539 #
plane-surface $-1 0 0 -5.8337398638796341 0 0 1 1 0 0 forward_v I I I I #
coedge $-1 $542 $602 $606 $650 reversed $477 $-1 #
edge $-1 $603 0.66686993193981703 $608 3.666869931939817 $547 $651 forward 7 unknown #
coedge $-1 $544 $543 $564 $623 reversed $398 $-1 #
coedge $-1 $652 $653 $544 $601 forward $648 $-1 #
edge $-1 $604 16.27639138990839 $654 22.923383112347501 $600 $655 forward 7 unknown #
coedge $-1 $597 $545 $653 $656 reversed $477 $-1 #
vertex $-1 $563 $657 #
vertex $-1 $601 $658 #
straight-curve $-1 -35.876278641036336 0 -2.8337398638796341 0 1 0 I I #
coedge $-1 $659 $548 $597 $650 forward $595 $-1 #
coedge $-1 $548 $659 $550 $611 forward $595 $-1 #
vertex $-1 $598 $660 #
straight-curve $-1 0 -28.938197002504538 -5.8337398638796341 -1 0 0 I I #
coedge $-1 $555 $550 $661 $662 reversed $551 $-1 #
edge $-1 $663 -28.938197002504538 $552 28.938197002504538 $550 $664 forward 7 unknown #
face $-1 $-1 $551 $18 $-1 $665 reversed single #
point $-1 42.523270363475447 -28.938197002504538 -5.8337398638796341 #
point $-1 42.523270363475447 -25.602073236051442 5.8337398638796341 #
coedge $-1 $661 $652 $559 $616 reversed $648 $-1 #
edge $-1 $617 -42.523270363475447 $620 42.523270363475447 $615 $666 forward 7 unknown #
vertex $-1 $560 $667 #
straight-curve $-1 42.523270363475447 0 5.8337398638796341 0 1 0 I I #
coedge $-1 $564 $561 $652 $668 forward $540 $-1 #
vertex $-1 $616 $669 #
straight-curve $-1 -42.523270363475447 0 5.8337398638796341 0 -1 0 I I #
straight-curve $-1 -19.599887251127946 -28.938197002504538 -2.8337398638796341 1 0 0 I I #
edge $-1 $654 -28.938197002504538 $565 28.938197002504538 $564 $670 forward 7 unknown #
point $-1 -42.523270363475447 -28.938197002504538 -2.8337398638796341 #
face $-1 $671 $672 $19 $-1 $673 reversed single #
loop $-1 $-1 $674 $568 #
plane-surface $-1 -35.876278641036336 0 -4.3337398638796341 -1 0 0 0 0 1 forward_v I I I I #
coedge $-1 $675 $676 $677 $678 reversed $569 $-1 #
coedge $-1 $571 $679 $680 $681 reversed $415 $-1 #
coedge $-1 $682 $583 $571 $631 forward $642 $-1 #
edge $-1 $585 -0.28149733747152317 $683 5.8337398638796341 $630 $684 forward 7 unknown #
edge $-1 $573 12.348283337039312 $643 24.232752463303861 $575 $685 forward 7 unknown #
point $-1 30.638801237210899 -25.602073236051442 5.8337398638796341 #
coedge $-1 $686 $575 $641 $687 forward $497 $-1 #
coedge $-1 $576 $686 $688 $689 forward $497 $-1 #
coedge $-1 $679 $578 $675 $690 forward $415 $-1 #
coedge $-1 $688 $691 $578 $638 reversed $672 $-1 #
edge $-1 $639 -5.8337398638796341 $692 2.8337398638796341 $637 $693 forward 7 unknown #
vertex $-1 $689 $694 #
straight-curve $-1 0 -28.938197002504538 5.8337398638796341 1 0 0 I I #
coedge $-1 $583 $695 $634 $687 reversed $642 $-1 #
loop $-1 $-1 $583 $696 #
vertex $-1 $687 $697 #
straight-curve $-1 42.523270363475447 -25.162199937088566 6.5658119954030125 0 -0.51503806187062429 -0.85716730853699219 I I #
point $-1 42.523270363475447 -28.938197002504538 0.28149733747152317 #
point $-1 -35.876278641036336 28.938197002504538 -5.8337398638796341 #
straight-curve $-1 0 28.938197002504538 -5.8337398638796341 1 0 0 I I #
loop $-1 $-1 $600 $594 #
plane-surface $-1 0 28.938197002504538 0 0 -1 0 0 0 -1 forward_v I I I I #
edge $-1 $608 -28.938197002504538 $698 28.938197002504538 $606 $699 forward 7 unknown #
straight-curve $-1 -35.876278641036336 -28.938197002504538 -2.166869931939817 0 0 -1 I I #
coedge $-1 $615 $600 $619 $668 reversed $648 $-1 #
coedge $-1 $600 $700 $602 $656 forward $648 $-1 #
vertex $-1 $623 $701 #
straight-curve $-1 -19.599887251127946 28.938197002504538 -2.8337398638796341 -1 0 0 I I #
edge $-1 $698 -3.666869931939817 $604 -0.66686993193981703 $653 $702 forward 7 unknown #
point $-1 -35.876278641036336 -28.938197002504538 -2.8337398638796341 #
point $-1 -35.876278641036336 28.938197002504538 -2.8337398638796341 #
coedge $-1 $607 $606 $700 $703 forward $595 $-1 #
point $-1 -35.876278641036336 -28.938197002504538 -5.8337398638796341 #
coedge $-1 $700 $615 $610 $662 forward $648 $-1 #
edge $-1 $617 -5.8337398638796341 $663 5.8337398638796341 $610 $704 forward 7 unknown #
vertex $-1 $611 $705 #
straight-curve $-1 42.523270363475447 0 -5.8337398638796341 0 -1 0 I I #
plane-surface $-1 42.523270363475447 0 0 -1 0 0 0 0 1 forward_v I I I I #
straight-curve $-1 0 28.938197002504538 5.8337398638796341 -1 0 0 I I #
point $-1 42.523270363475447 28.938197002504538 5.8337398638796341 #
edge $-1 $620 -5.8337398638796341 $654 2.8337398638796341 $652 $706 forward 7 unknown #
point $-1 -42.523270363475447 28.938197002504538 5.8337398638796341 #
straight-curve $-1 -42.523270363475447 0 -2.8337398638796341 0 -1 0 I I #
face $-1 $707 $708 $19 $-1 $709 reversed single #
loop $-1 $-1 $691 $625 #
plane-surface $-1 -42.523270363475447 0 0 1 0 0 0 0 -1 forward_v I I I I #
coedge $-1 $677 $710 $679 $711 reversed $626 $-1 #
coedge $-1 $712 $628 $636 $690 reversed $569 $-1 #
coedge $-1 $628 $712 $713 $714 reversed $569 $-1 #
coedge $-1 $715 $674 $628 $678 forward $626 $-1 #
edge $-1 $716 -28.938197002504538 $717 28.938197002504538 $677 $718 forward 7 unknown #
coedge $-1 $629 $636 $674 $711 forward $415 $-1 #
coedge $-1 $719 $720 $629 $681 forward $708 $-1 #
edge $-1 $683 -42.523270363475447 $721 35.876278641036336 $629 $722 forward 7 unknown #
coedge $-1 $695 $630 $720 $723 reversed $642 $-1 #
vertex $-1 $631 $724 #
straight-curve $-1 42.523270363475447 -28.938197002504538 0 0 0 -1 I I #
straight-curve $-1 18.290517900171587 -25.602073236051442 5.8337398638796341 1 0 0 I I #
coedge $-1 $635 $634 $725 $726 forward $497 $-1 #
edge $-1 $643 -25.602073236051442 $727 28.938197002504538 $641 $728 forward 7 unknown #
coedge $-1 $729 $637 $635 $689 reversed $672 $-1 #
edge $-1 $730 -28.938197002504538 $639 28.938197002504538 $688 $731 forward 7 unknown #
edge $-1 $692 -22.923383112347501 $716 -16.27639138990839 $636 $732 forward 7 unknown #
coedge $-1 $637 $729 $712 $733 forward $672 $-1 #
vertex $-1 $690 $734 #
straight-curve $-1 -42.523270363475447 -28.938197002504538 0 0 0 -1 I I #
point $-1 -42.523270363475447 -28.938197002504538 5.8337398638796341 #
coedge $-1 $641 $682 $735 $736 reversed $642 $-1 #
face $-1 $-1 $642 $19 $-1 $737 reversed single #
point $-1 42.523270363475447 -25.602073236051442 5.8337398638796341 #
vertex $-1 $703 $738 #
straight-curve $-1 -35.876278641036336 0 -5.8337398638796341 0 1 0 I I #
coedge $-1 $653 $661 $659 $703 reversed $648 $-1 #
point $-1 -42.523270363475447 28.938197002504538 -2.8337398638796341 #
straight-curve $-1 -35.876278641036336 28.938197002504538 -2.166869931939817 0 0 1 I I #
edge $-1 $698 -35.876278641036336 $663 42.523270363475447 $700 $739 forward 7 unknown #
straight-curve $-1 42.523270363475447 28.938197002504538 0 0 0 -1 I I #
point $-1 42.523270363475447 28.938197002504538 -5.8337398638796341 #
straight-curve $-1 -42.523270363475447 28.938197002504538 0 0 0 -1 I I #
face $-1 $696 $740 $19 $-1 $741 reversed single #
loop $-1 $-1 $719 $671 #
plane-surface $-1 0 0 -5.8337398638796341 0 0 1 1 0 0 forward_v I I I I #
coedge $-1 $674 $715 $719 $742 reversed $626 $-1 #
edge $-1 $716 0.66686993193981703 $721 3.666869931939817 $679 $743 forward 7 unknown #
coedge $-1 $676 $675 $691 $733 reversed $569 $-1 #
coedge $-1 $744 $745 $676 $714 forward $740 $-1 #
edge $-1 $717 16.27639138990839 $746 22.923383112347501 $713 $747 forward 7 unknown #
coedge $-1 $710 $677 $745 $748 reversed $626 $-1 #
vertex $-1 $690 $749 #
vertex $-1 $714 $750 #
straight-curve $-1 -35.876278641036336 0 -2.8337398638796341 0 1 0 I I #
coedge $-1 $751 $680 $710 $742 forward $708 $-1 #
coedge $-1 $680 $751 $682 $723 forward $708 $-1 #
vertex $-1 $711 $752 #
straight-curve $-1 0 -28.938197002504538 -5.8337398638796341 -1 0 0 I I #
edge $-1 $753 -28.938197002504538 $683 28.938197002504538 $682 $754 forward 7 unknown #
point $-1 42.523270363475447 -28.938197002504538 -5.8337398638796341 #
coedge $-1 $735 $744 $686 $726 reversed $740 $-1 #
edge $-1 $727 -42.523270363475447 $730 42.523270363475447 $725 $755 forward 7 unknown #
vertex $-1 $687 $756 #
straight-curve $-1 42.523270363475447 0 5.8337398638796341 0 1 0 I I #
coedge $-1 $691 $688 $744 $757 forward $672 $-1 #
vertex $-1 $726 $758 #
straight-curve $-1 -42.523270363475447 0 5.8337398638796341 0 -1 0 I I #
straight-curve $-1 -19.599887251127946 -28.938197002504538 -2.8337398638796341 1 0 0 I I #
edge $-1 $746 -28.938197002504538 $692 28.938197002504538 $691 $759 forward 7 unknown #
point $-1 -42.523270363475447 -28.938197002504538 -2.8337398638796341 #
coedge $-1 $760 $725 $695 $736 forward $740 $-1 #
edge $-1 $727 -5.8337398638796341 $753 5.8337398638796341 $695 $761 forward 7 unknown #
plane-surface $-1 42.523270363475447 0 0 -1 0 0 0 0 1 forward_v I I I I #
point $-1 -35.876278641036336 28.938197002504538 -5.8337398638796341 #
straight-curve $-1 0 28.938197002504538 -5.8337398638796341 1 0 0 I I #
loop $-1 $-1 $713 $707 #
plane-surface $-1 0 28.938197002504538 0 0 -1 0 0 0 -1 forward_v I I I I #
edge $-1 $721 -28.938197002504538 $762 28.938197002504538 $719 $763 forward 7 unknown #
straight-curve $-1 -35.876278641036336 -28.938197002504538 -2.166869931939817 0 0 -1 I I #
coedge $-1 $725 $713 $729 $757 reversed $740 $-1 #
coedge $-1 $713 $760 $715 $748 forward $740 $-1 #
vertex $-1 $733 $764 #
straight-curve $-1 -19.599887251127946 28.938197002504538 -2.8337398638796341 -1 0 0 I I #
edge $-1 $762 -3.666869931939817 $717 -0.66686993193981703 $745 $765 forward 7 unknown #
point $-1 -35.876278641036336 -28.938197002504538 -2.8337398638796341 #
point $-1 -35.876278641036336 28.938197002504538 -2.8337398638796341 #
coedge $-1 $720 $719 $760 $766 forward $708 $-1 #
point $-1 -35.876278641036336 -28.938197002504538 -5.8337398638796341 #
vertex $-1 $723 $767 #
straight-curve $-1 42.523270363475447 0 -5.8337398638796341 0 -1 0 I I #
straight-curve $-1 0 28.938197002504538 5.8337398638796341 -1 0 0 I I #
point $-1 42.523270363475447 28.938197002504538 5.8337398638796341 #
edge $-1 $730 -5.8337398638796341 $746 2.8337398638796341 $744 $768 forward 7 unknown #
point $-1 -42.523270363475447 28.938197002504538 5.8337398638796341 #
straight-curve $-1 -42.523270363475447 0 -2.8337398638796341 0 -1 0 I I #
coedge $-1 $745 $735 $751 $766 reversed $740 $-1 #
straight-curve $-1 42.523270363475447 28.938197002504538 0 0 0 -1 I I #
vertex $-1 $766 $769 #
straight-curve $-1 -35.876278641036336 0 -5.8337398638796341 0 1 0 I I #
point $-1 -42.523270363475447 28.938197002504538 -2.8337398638796341 #
straight-curve $-1 -35.876278641036336 28.938197002504538 -2.166869931939817 0 0 1 I I #
edge $-1 $762 -35.876278641036336 $753 42.523270363475447 $760 $770 forward 7 unknown #
point $-1 42.523270363475447 28.938197002504538 -5.8337398638796341 #
straight-curve $-1 -42.523270363475447 28.938197002504538 0 0 0 -1 I I #
point $-1 -35.876278641036336 28.938197002504538 -5.8337398638796341 #
straight-curve $-1 0 28.938197002504538 -5.8337398638796341 1 0 0 I I #
End-of-ACIS-data 