500 0 20 0           
7 Unknown 11 ACIS 5.0 NT 24 Fri Mar 26 19:55:06 1999 
-1 9.9999999999999995e-007 1e-010 
body $-1 $20 $-1 $21 #
body $-1 $22 $-1 $23 #
body $-1 $24 $-1 $25 #
body $-1 $26 $-1 $27 #
body $-1 $28 $-1 $29 #
body $-1 $30 $-1 $31 #
body $-1 $32 $-1 $33 #
body $-1 $34 $-1 $35 #
body $-1 $36 $-1 $37 #
body $-1 $38 $-1 $39 #
body $-1 $40 $-1 $41 #
body $-1 $42 $-1 $43 #
body $-1 $44 $-1 $45 #
body $-1 $46 $-1 $47 #
body $-1 $48 $-1 $49 #
body $-1 $50 $-1 $51 #
body $-1 $52 $-1 $53 #
body $-1 $54 $-1 $55 #
body $-1 $56 $-1 $57 #
body $-1 $58 $-1 $59 #
lump $-1 $-1 $60 $0 #
transform $-1 1 0 0 0 1 0 0 0 1 79.846186712240979 53.352711698004164 21.47508926225003 1 rotate no_reflect no_shear #
lump $-1 $-1 $61 $1 #
transform $-1 1 0 0 0 1 0 0 0 1 79.846186712240979 53.352711698004164 21.47508926225003 1 rotate no_reflect no_shear #
lump $-1 $-1 $62 $2 #
transform $-1 1 0 0 0 1 0 0 0 1 79.846186712240979 53.352711698004164 21.47508926225003 1 rotate no_reflect no_shear #
lump $-1 $-1 $63 $3 #
transform $-1 1 0 0 0 1 0 0 0 1 79.846186712240979 53.352711698004164 21.47508926225003 1 rotate no_reflect no_shear #
lump $-1 $-1 $64 $4 #
transform $-1 1 0 0 0 1 0 0 0 1 79.846186712240979 53.352711698004164 21.47508926225003 1 rotate no_reflect no_shear #
lump $-1 $-1 $65 $5 #
transform $-1 1 0 0 0 1 0 0 0 1 79.846186712240979 53.352711698004164 21.47508926225003 1 rotate no_reflect no_shear #
lump $-1 $-1 $66 $6 #
transform $-1 1 0 0 0 1 0 0 0 1 79.846186712240979 53.352711698004164 21.47508926225003 1 rotate no_reflect no_shear #
lump $-1 $-1 $67 $7 #
transform $-1 1 0 0 0 1 0 0 0 1 79.846186712240979 53.352711698004164 21.47508926225003 1 rotate no_reflect no_shear #
lump $-1 $-1 $68 $8 #
transform $-1 1 0 0 0 1 0 0 0 1 79.846186712240979 53.352711698004164 21.47508926225003 1 rotate no_reflect no_shear #
lump $-1 $-1 $69 $9 #
transform $-1 1 0 0 0 1 0 0 0 1 79.846186712240979 53.352711698004164 21.47508926225003 1 rotate no_reflect no_shear #
lump $-1 $-1 $70 $10 #
transform $-1 1 0 0 0 1 0 0 0 1 79.846186712240979 53.352711698004164 21.47508926225003 1 rotate no_reflect no_shear #
lump $-1 $-1 $71 $11 #
transform $-1 1 0 0 0 1 0 0 0 1 79.846186712240979 53.352711698004164 21.47508926225003 1 rotate no_reflect no_shear #
lump $-1 $-1 $72 $12 #
transform $-1 1 0 0 0 1 0 0 0 1 79.846186712240979 53.352711698004164 21.47508926225003 1 rotate no_reflect no_shear #
lump $-1 $-1 $73 $13 #
transform $-1 1 0 0 0 1 0 0 0 1 79.846186712240979 53.352711698004164 21.47508926225003 1 rotate no_reflect no_shear #
lump $-1 $-1 $74 $14 #
transform $-1 1 0 0 0 1 0 0 0 1 79.846186712240979 53.352711698004164 21.47508926225003 1 rotate no_reflect no_shear #
lump $-1 $-1 $75 $15 #
transform $-1 1 0 0 0 1 0 0 0 1 79.846186712240979 53.352711698004164 21.47508926225003 1 rotate no_reflect no_shear #
lump $-1 $-1 $76 $16 #
transform $-1 1 0 0 0 1 0 0 0 1 79.846186712240979 53.352711698004164 21.47508926225003 1 rotate no_reflect no_shear #
lump $-1 $-1 $77 $17 #
transform $-1 1 0 0 0 1 0 0 0 1 79.846186712240979 53.352711698004164 21.47508926225003 1 rotate no_reflect no_shear #
lump $-1 $-1 $78 $18 #
transform $-1 1 0 0 0 1 0 0 0 1 79.846186712240979 53.352711698004164 21.47508926225003 1 rotate no_reflect no_shear #
lump $-1 $-1 $79 $19 #
transform $-1 1 0 0 0 1 0 0 0 1 79.846186712240979 53.352711698004164 21.47508926225003 1 rotate no_reflect no_shear #
shell $-1 $-1 $-1 $80 $-1 $20 #
shell $-1 $-1 $-1 $81 $-1 $22 #
shell $-1 $-1 $-1 $82 $-1 $24 #
shell $-1 $-1 $-1 $83 $-1 $26 #
shell $-1 $-1 $-1 $84 $-1 $28 #
shell $-1 $-1 $-1 $85 $-1 $30 #
shell $-1 $-1 $-1 $86 $-1 $32 #
shell $-1 $-1 $-1 $87 $-1 $34 #
shell $-1 $-1 $-1 $88 $-1 $36 #
shell $-1 $-1 $-1 $89 $-1 $38 #
shell $-1 $-1 $-1 $90 $-1 $40 #
shell $-1 $-1 $-1 $91 $-1 $42 #
shell $-1 $-1 $-1 $92 $-1 $44 #
shell $-1 $-1 $-1 $93 $-1 $46 #
shell $-1 $-1 $-1 $94 $-1 $48 #
shell $-1 $-1 $-1 $95 $-1 $50 #
shell $-1 $-1 $-1 $96 $-1 $52 #
shell $-1 $-1 $-1 $97 $-1 $54 #
shell $-1 $-1 $-1 $98 $-1 $56 #
shell $-1 $-1 $-1 $99 $-1 $58 #
face $-1 $100 $101 $60 $-1 $102 forward single #
face $-1 $103 $104 $61 $-1 $105 reversed single #
face $-1 $106 $107 $62 $-1 $108 reversed single #
face $-1 $109 $110 $63 $-1 $111 forward single #
face $-1 $112 $113 $64 $-1 $114 forward single #
face $-1 $115 $116 $65 $-1 $117 reversed single #
face $-1 $118 $119 $66 $-1 $120 forward single #
face $-1 $121 $122 $67 $-1 $123 forward single #
face $-1 $124 $125 $68 $-1 $126 reversed single #
face $-1 $127 $128 $69 $-1 $129 forward single #
face $-1 $130 $131 $70 $-1 $132 forward single #
face $-1 $133 $134 $71 $-1 $135 reversed single #
face $-1 $136 $137 $72 $-1 $138 forward single #
face $-1 $139 $140 $73 $-1 $141 forward single #
face $-1 $142 $143 $74 $-1 $144 reversed single #
face $-1 $145 $146 $75 $-1 $147 forward single #
face $-1 $148 $149 $76 $-1 $150 forward single #
face $-1 $151 $152 $77 $-1 $153 reversed single #
face $-1 $154 $155 $78 $-1 $156 forward single #
face $-1 $157 $158 $79 $-1 $159 forward single #
face $-1 $160 $161 $60 $-1 $162 reversed single #
loop $-1 $-1 $163 $80 #
plane-surface $-1 0 0 21.47508926225003 0 0 1 1 0 0 forward_v I I I I #
face $-1 $164 $165 $61 $-1 $166 reversed single #
loop $-1 $-1 $167 $81 #
plane-surface $-1 -71.407670093206008 -16.04817402933082 0 0 1 0 0 0 1 forward_v I I I I #
face $-1 $168 $169 $62 $-1 $170 reversed single #
loop $-1 $-1 $171 $82 #
plane-surface $-1 -46.840809249515004 50.836715450810267 206.86217840195386 1 0 0 0 -0.54463904215088732 -0.83867056331134215 forward_v I I I I #
face $-1 $172 $173 $63 $-1 $174 forward single #
loop $-1 $175 $176 $83 #
cone-surface $-1 -41.247811871815863 46.546615010535781 15.559389421099382 0 -0.54463904215088732 -0.83867056331134215 2.5 0 0 1 I I 0 1 2.5 forward I I I I #
face $-1 $177 $178 $64 $-1 $179 forward single #
loop $-1 $180 $181 $84 #
cone-surface $-1 -32.858315805267154 46.546615010535781 15.559389421099382 0 -0.54463904215088732 -0.83867056331134215 2.5 0 0 1 I I 0 1 2.5 forward I I I I #
face $-1 $182 $183 $65 $-1 $184 reversed single #
loop $-1 $-1 $185 $85 #
plane-surface $-1 -16.513088944463995 50.836715450810267 206.86217840195386 1 0 0 0 -0.54463904215088732 -0.83867056331134215 forward_v I I I I #
face $-1 $186 $187 $66 $-1 $188 forward single #
loop $-1 $189 $190 $86 #
cone-surface $-1 -10.920091566764853 46.546615010535781 15.559389421099382 0 -0.54463904215088732 -0.83867056331134215 2.5 0 0 1 I I 0 1 2.5 forward I I I I #
face $-1 $191 $192 $67 $-1 $193 forward single #
loop $-1 $194 $195 $87 #
cone-surface $-1 -2.5305955002161511 46.546615010535781 15.559389421099382 0 -0.54463904215088732 -0.83867056331134215 2.5 0 0 1 I I 0 1 2.5 forward I I I I #
face $-1 $196 $197 $68 $-1 $198 reversed single #
loop $-1 $-1 $199 $88 #
plane-surface $-1 13.814631360587008 50.836715450810267 206.86217840195386 1 0 0 0 -0.54463904215088732 -0.83867056331134215 forward_v I I I I #
face $-1 $200 $201 $69 $-1 $202 forward single #
loop $-1 $203 $204 $89 #
cone-surface $-1 19.407628738286149 46.546615010535781 15.559389421099382 0 -0.54463904215088732 -0.83867056331134215 2.5 0 0 1 I I 0 1 2.5 forward I I I I #
face $-1 $205 $206 $70 $-1 $207 forward single #
loop $-1 $208 $209 $90 #
cone-surface $-1 27.797124804834851 46.546615010535781 15.559389421099382 0 -0.54463904215088732 -0.83867056331134215 2.5 0 0 1 I I 0 1 2.5 forward I I I I #
face $-1 $210 $211 $71 $-1 $212 reversed single #
loop $-1 $-1 $213 $91 #
plane-surface $-1 44.14235166563801 50.836715450810267 206.86217840195386 1 0 0 0 -0.54463904215088732 -0.83867056331134215 forward_v I I I I #
face $-1 $214 $215 $72 $-1 $216 forward single #
loop $-1 $217 $218 $92 #
cone-surface $-1 49.735349043337152 46.546615010535781 15.559389421099382 0 -0.54463904215088732 -0.83867056331134215 2.5 0 0 1 I I 0 1 2.5 forward I I I I #
face $-1 $219 $220 $73 $-1 $221 forward single #
loop $-1 $222 $223 $93 #
cone-surface $-1 58.124845109885854 46.546615010535781 15.559389421099382 0 -0.54463904215088732 -0.83867056331134215 2.5 0 0 1 I I 0 1 2.5 forward I I I I #
face $-1 $224 $225 $74 $-1 $226 reversed single #
loop $-1 $-1 $227 $94 #
plane-surface $-1 -6.6846321404456432 -187.28200649269655 94.930370347485962 -1 0 0 0 -0.83867057594974714 0.54463902268945019 forward_v I I I I #
face $-1 $228 $229 $75 $-1 $230 forward single #
loop $-1 $231 $232 $95 #
cone-surface $-1 -26.006379773428705 -47.669310098654258 13.875309879680778 0 0.83867057594974714 -0.54463902268945019 3 0 0 1 I I 0 1 3 forward I I I I #
face $-1 $233 $234 $76 $-1 $235 forward single #
loop $-1 $236 $237 $96 #
cone-surface $-1 -14.413331193638868 -47.669310098654258 13.875309879680778 0 0.83867057594974714 -0.54463902268945019 3 0 0 1 I I 0 1 3 forward I I I I #
face $-1 $238 $239 $77 $-1 $240 reversed single #
loop $-1 $-1 $241 $97 #
plane-surface $-1 64.72303795276035 -187.28200649269655 94.930370347485962 -1 0 0 0 -0.83867057594974714 0.54463902268945019 forward_v I I I I #
face $-1 $242 $243 $78 $-1 $244 forward single #
loop $-1 $245 $246 $98 #
cone-surface $-1 45.401290319777303 -47.669310098654258 13.875309879680778 0 0.83867057594974714 -0.54463902268945019 3 0 0 1 I I 0 1 3 forward I I I I #
face $-1 $247 $248 $79 $-1 $249 forward single #
loop $-1 $250 $251 $99 #
cone-surface $-1 56.99433889956714 -47.669310098654258 13.875309879680778 0 0.83867057594974714 -0.54463902268945019 3 0 0 1 I I 0 1 3 forward I I I I #
face $-1 $252 $253 $60 $-1 $254 reversed single #
loop $-1 $-1 $255 $100 #
plane-surface $-1 0 0 -21.47508926225003 0 0 1 1 0 0 forward_v I I I I #
coedge $-1 $256 $257 $258 $259 forward $101 $-1 #
face $-1 $260 $261 $61 $-1 $262 reversed single #
loop $-1 $-1 $263 $103 #
plane-surface $-1 -71.407670093206008 -10.4025331735041 0 0 -1 0 0 0 -1 forward_v I I I I #
coedge $-1 $264 $265 $266 $267 reversed $104 $-1 #
face $-1 $268 $269 $62 $-1 $270 reversed single #
loop $-1 $-1 $271 $106 #
plane-surface $-1 -37.053063838541512 -36.137985849901405 72.932885625518367 0 0.54463904215088732 0.83867056331134215 1 0 0 forward_v I I I I #
coedge $-1 $272 $273 $274 $275 reversed $107 $-1 #
face $-1 $-1 $276 $63 $-1 $277 forward single #
loop $-1 $278 $279 $109 #
cone-surface $-1 -41.247811871815863 44.186040164884169 11.924422989528814 0 -0.54463904215088732 -0.83867056331134215 1.25 0 0 1 I I -0.70710678118654746 0.70710678118654746 1.25 forward I I I I #
loop $-1 $-1 $280 $83 #
coedge $-1 $176 $176 $281 $282 reversed $110 $-1 #
face $-1 $-1 $283 $64 $-1 $284 forward single #
loop $-1 $285 $286 $112 #
cone-surface $-1 -32.858315805267154 44.186040164884169 11.924422989528814 0 -0.54463904215088732 -0.83867056331134215 1.25 0 0 1 I I -0.70710678118654746 0.70710678118654746 1.25 forward I I I I #
loop $-1 $-1 $287 $84 #
coedge $-1 $181 $181 $288 $289 reversed $113 $-1 #
face $-1 $290 $291 $65 $-1 $292 reversed single #
loop $-1 $-1 $293 $115 #
plane-surface $-1 -6.7253435334905021 -36.137985849901405 72.932885625518367 0 0.54463904215088732 0.83867056331134215 1 0 0 forward_v I I I I #
coedge $-1 $294 $295 $296 $297 reversed $116 $-1 #
face $-1 $-1 $298 $66 $-1 $299 forward single #
loop $-1 $300 $301 $118 #
cone-surface $-1 -10.920091566764853 44.186040164884169 11.924422989528814 0 -0.54463904215088732 -0.83867056331134215 1.25 0 0 1 I I -0.70710678118654746 0.70710678118654746 1.25 forward I I I I #
loop $-1 $-1 $302 $86 #
coedge $-1 $190 $190 $303 $304 reversed $119 $-1 #
face $-1 $-1 $305 $67 $-1 $306 forward single #
loop $-1 $307 $308 $121 #
cone-surface $-1 -2.5305955002161511 44.186040164884169 11.924422989528814 0 -0.54463904215088732 -0.83867056331134215 1.25 0 0 1 I I -0.70710678118654746 0.70710678118654746 1.25 forward I I I I #
loop $-1 $-1 $309 $87 #
coedge $-1 $195 $195 $310 $311 reversed $122 $-1 #
face $-1 $312 $313 $68 $-1 $314 reversed single #
loop $-1 $-1 $315 $124 #
plane-surface $-1 23.6023767715605 -36.137985849901405 72.932885625518367 0 0.54463904215088732 0.83867056331134215 1 0 0 forward_v I I I I #
coedge $-1 $316 $317 $318 $319 reversed $125 $-1 #
face $-1 $-1 $320 $69 $-1 $321 forward single #
loop $-1 $322 $323 $127 #
cone-surface $-1 19.407628738286149 44.186040164884169 11.924422989528814 0 -0.54463904215088732 -0.83867056331134215 1.25 0 0 1 I I -0.70710678118654746 0.70710678118654746 1.25 forward I I I I #
loop $-1 $-1 $324 $89 #
coedge $-1 $204 $204 $325 $326 reversed $128 $-1 #
face $-1 $-1 $327 $70 $-1 $328 forward single #
loop $-1 $329 $330 $130 #
cone-surface $-1 27.797124804834851 44.186040164884169 11.924422989528814 0 -0.54463904215088732 -0.83867056331134215 1.25 0 0 1 I I -0.70710678118654746 0.70710678118654746 1.25 forward I I I I #
loop $-1 $-1 $331 $90 #
coedge $-1 $209 $209 $332 $333 reversed $131 $-1 #
face $-1 $334 $335 $71 $-1 $336 reversed single #
loop $-1 $-1 $337 $133 #
plane-surface $-1 53.930097076611503 -36.137985849901405 72.932885625518367 0 0.54463904215088732 0.83867056331134215 1 0 0 forward_v I I I I #
coedge $-1 $338 $339 $340 $341 reversed $134 $-1 #
face $-1 $-1 $342 $72 $-1 $343 forward single #
loop $-1 $344 $345 $136 #
cone-surface $-1 49.735349043337152 44.186040164884169 11.924422989528814 0 -0.54463904215088732 -0.83867056331134215 1.25 0 0 1 I I -0.70710678118654746 0.70710678118654746 1.25 forward I I I I #
loop $-1 $-1 $346 $92 #
coedge $-1 $218 $218 $347 $348 reversed $137 $-1 #
face $-1 $-1 $349 $73 $-1 $350 forward single #
loop $-1 $351 $352 $139 #
cone-surface $-1 58.124845109885854 44.186040164884169 11.924422989528814 0 -0.54463904215088732 -0.83867056331134215 1.25 0 0 1 I I -0.70710678118654746 0.70710678118654746 1.25 forward I I I I #
loop $-1 $-1 $353 $93 #
coedge $-1 $223 $223 $354 $355 reversed $140 $-1 #
face $-1 $356 $357 $74 $-1 $358 reversed single #
loop $-1 $-1 $359 $142 #
plane-surface $-1 -20.209855483533786 -53.352711698004185 7.9556721546173748 0 -0.83867057594974714 0.54463902268945019 1 0 0 forward_v I I I I #
coedge $-1 $360 $361 $362 $363 reversed $143 $-1 #
face $-1 $-1 $364 $75 $-1 $365 forward single #
loop $-1 $366 $367 $145 #
cone-surface $-1 -26.006379773428705 -45.11770855678914 12.218280516893664 0 0.83867057594974714 -0.54463902268945019 1.5 0 0 1 I I -0.70710678118654757 0.70710678118654757 1.5 forward I I I I #
loop $-1 $-1 $368 $95 #
coedge $-1 $232 $232 $369 $370 reversed $146 $-1 #
face $-1 $-1 $371 $76 $-1 $372 forward single #
loop $-1 $373 $374 $148 #
cone-surface $-1 -14.413331193638868 -45.11770855678914 12.218280516893664 0 0.83867057594974714 -0.54463902268945019 1.5 0 0 1 I I -0.70710678118654757 0.70710678118654757 1.5 forward I I I I #
loop $-1 $-1 $375 $96 #
coedge $-1 $237 $237 $376 $377 reversed $149 $-1 #
face $-1 $378 $379 $77 $-1 $380 reversed single #
loop $-1 $-1 $381 $151 #
plane-surface $-1 51.197814609672207 -53.352711698004185 7.9556721546173748 0 -0.83867057594974714 0.54463902268945019 1 0 0 forward_v I I I I #
coedge $-1 $382 $383 $384 $385 reversed $152 $-1 #
face $-1 $-1 $386 $78 $-1 $387 forward single #
loop $-1 $388 $389 $154 #
cone-surface $-1 45.401290319777303 -45.11770855678914 12.218280516893664 0 0.83867057594974714 -0.54463902268945019 1.5 0 0 1 I I -0.70710678118654757 0.70710678118654757 1.5 forward I I I I #
loop $-1 $-1 $390 $98 #
coedge $-1 $246 $246 $391 $392 reversed $155 $-1 #
face $-1 $-1 $393 $79 $-1 $394 forward single #
loop $-1 $395 $396 $157 #
cone-surface $-1 56.99433889956714 -45.11770855678914 12.218280516893664 0 0.83867057594974714 -0.54463902268945019 1.5 0 0 1 I I -0.70710678118654757 0.70710678118654757 1.5 forward I I I I #
loop $-1 $-1 $397 $99 #
coedge $-1 $251 $251 $398 $399 reversed $158 $-1 #
face $-1 $400 $401 $60 $-1 $402 reversed single #
loop $-1 $-1 $403 $160 #
plane-surface $-1 0 -53.352711698004164 0 0 1 0 0 0 1 forward_v I I I I #
coedge $-1 $404 $405 $406 $407 forward $161 $-1 #
coedge $-1 $408 $163 $409 $410 forward $101 $-1 #
coedge $-1 $163 $408 $411 $412 forward $101 $-1 #
coedge $-1 $413 $414 $163 $259 reversed $415 $-1 #
edge $-1 $416 -53.352711698004164 $417 53.352711698004164 $258 $418 forward 7 unknown #
face $-1 $419 $420 $61 $-1 $421 reversed single #
loop $-1 $-1 $422 $164 #
plane-surface $-1 -62.96915347417103 -13.22535360141746 0 -1 0 0 0 0 1 forward_v I I I I #
coedge $-1 $423 $424 $425 $426 forward $165 $-1 #
coedge $-1 $427 $167 $428 $429 reversed $104 $-1 #
coedge $-1 $167 $427 $430 $431 reversed $104 $-1 #
coedge $-1 $432 $433 $167 $267 forward $434 $-1 #
edge $-1 $435 -21.47508926225003 $436 21.47508926225003 $266 $437 forward 7 unknown #
face $-1 $438 $439 $62 $-1 $440 reversed single #
loop $-1 $-1 $441 $168 #
plane-surface $-1 -27.265318427568019 50.836715450810267 206.86217840195386 -1 0 0 0 0.54463904215088732 0.83867056331134215 forward_v I I I I #
coedge $-1 $442 $443 $444 $445 reversed $169 $-1 #
coedge $-1 $273 $171 $446 $447 reversed $107 $-1 #
coedge $-1 $171 $272 $442 $448 reversed $107 $-1 #
coedge $-1 $444 $449 $171 $275 forward $450 $-1 #
edge $-1 $451 -27.93435397259903 $452 -17.681712683588277 $274 $453 forward 7 unknown #
loop $-1 $-1 $281 $172 #
plane-surface $-1 -37.053063838541512 -36.137985849901405 72.932885625518367 0 0.54463904215088732 0.83867056331134215 1 0 0 forward_v I I I I #
loop $-1 $-1 $454 $109 #
coedge $-1 $279 $279 $280 $455 reversed $173 $-1 #
coedge $-1 $280 $280 $279 $455 forward $175 $-1 #
coedge $-1 $281 $281 $176 $282 forward $276 $-1 #
edge $-1 $456 7.7397863002330399e-016 $456 6.2831853071796013 $281 $457 forward 7 unknown #
loop $-1 $-1 $288 $177 #
plane-surface $-1 -37.053063838541512 -36.137985849901405 72.932885625518367 0 0.54463904215088732 0.83867056331134215 1 0 0 forward_v I I I I #
loop $-1 $-1 $458 $112 #
coedge $-1 $286 $286 $287 $459 reversed $178 $-1 #
coedge $-1 $287 $287 $286 $459 forward $180 $-1 #
coedge $-1 $288 $288 $181 $289 forward $283 $-1 #
edge $-1 $460 7.7397863002330399e-016 $460 6.2831853071796013 $288 $461 forward 7 unknown #
face $-1 $462 $463 $65 $-1 $464 forward single #
loop $-1 $-1 $465 $182 #
plane-surface $-1 3.0624018774829906 50.836715450810267 206.86217840195386 -1 0 0 0 0.54463904215088732 0.83867056331134215 forward_v I I I I #
coedge $-1 $466 $467 $468 $469 reversed $183 $-1 #
coedge $-1 $295 $185 $470 $471 reversed $116 $-1 #
coedge $-1 $185 $294 $466 $472 reversed $116 $-1 #
coedge $-1 $468 $473 $185 $297 forward $463 $-1 #
edge $-1 $474 -27.93435397259903 $475 -17.681712683588277 $296 $476 forward 7 unknown #
loop $-1 $-1 $303 $186 #
plane-surface $-1 -6.7253435334905021 -36.137985849901405 72.932885625518367 0 0.54463904215088732 0.83867056331134215 1 0 0 forward_v I I I I #
loop $-1 $-1 $477 $118 #
coedge $-1 $301 $301 $302 $478 reversed $187 $-1 #
coedge $-1 $302 $302 $301 $478 forward $189 $-1 #
coedge $-1 $303 $303 $190 $304 forward $298 $-1 #
edge $-1 $479 7.7397863002330399e-016 $479 6.2831853071796013 $303 $480 forward 7 unknown #
loop $-1 $-1 $310 $191 #
plane-surface $-1 -6.7253435334905021 -36.137985849901405 72.932885625518367 0 0.54463904215088732 0.83867056331134215 1 0 0 forward_v I I I I #
loop $-1 $-1 $481 $121 #
coedge $-1 $308 $308 $309 $482 reversed $192 $-1 #
coedge $-1 $309 $309 $308 $482 forward $194 $-1 #
coedge $-1 $310 $310 $195 $311 forward $305 $-1 #
edge $-1 $483 7.7397863002330399e-016 $483 6.2831853071796013 $310 $484 forward 7 unknown #
face $-1 $485 $486 $68 $-1 $487 forward single #
loop $-1 $-1 $488 $196 #
plane-surface $-1 33.390122182533993 50.836715450810267 206.86217840195386 -1 0 0 0 0.54463904215088732 0.83867056331134215 forward_v I I I I #
coedge $-1 $489 $490 $491 $492 reversed $197 $-1 #
coedge $-1 $317 $199 $493 $494 reversed $125 $-1 #
coedge $-1 $199 $316 $489 $495 reversed $125 $-1 #
coedge $-1 $491 $496 $199 $319 forward $486 $-1 #
edge $-1 $497 -27.93435397259903 $498 -17.681712683588277 $318 $499 forward 7 unknown #
loop $-1 $-1 $325 $200 #
plane-surface $-1 23.6023767715605 -36.137985849901405 72.932885625518367 0 0.54463904215088732 0.83867056331134215 1 0 0 forward_v I I I I #
loop $-1 $-1 $500 $127 #
coedge $-1 $323 $323 $324 $501 reversed $201 $-1 #
coedge $-1 $324 $324 $323 $501 forward $203 $-1 #
coedge $-1 $325 $325 $204 $326 forward $320 $-1 #
edge $-1 $502 7.7397863002330399e-016 $502 6.2831853071796013 $325 $503 forward 7 unknown #
loop $-1 $-1 $332 $205 #
plane-surface $-1 23.6023767715605 -36.137985849901405 72.932885625518367 0 0.54463904215088732 0.83867056331134215 1 0 0 forward_v I I I I #
loop $-1 $-1 $504 $130 #
coedge $-1 $330 $330 $331 $505 reversed $206 $-1 #
coedge $-1 $331 $331 $330 $505 forward $208 $-1 #
coedge $-1 $332 $332 $209 $333 forward $327 $-1 #
edge $-1 $506 7.7397863002330399e-016 $506 6.2831853071796013 $332 $507 forward 7 unknown #
face $-1 $508 $509 $71 $-1 $510 forward single #
loop $-1 $-1 $511 $210 #
plane-surface $-1 63.717842487584996 50.836715450810267 206.86217840195386 -1 0 0 0 0.54463904215088732 0.83867056331134215 forward_v I I I I #
coedge $-1 $512 $513 $514 $515 reversed $211 $-1 #
coedge $-1 $339 $213 $516 $517 reversed $134 $-1 #
coedge $-1 $213 $338 $512 $518 reversed $134 $-1 #
coedge $-1 $514 $519 $213 $341 forward $509 $-1 #
edge $-1 $520 -27.93435397259903 $521 -17.681712683588277 $340 $522 forward 7 unknown #
loop $-1 $-1 $347 $214 #
plane-surface $-1 53.930097076611503 -36.137985849901405 72.932885625518367 0 0.54463904215088732 0.83867056331134215 1 0 0 forward_v I I I I #
loop $-1 $-1 $523 $136 #
coedge $-1 $345 $345 $346 $524 reversed $215 $-1 #
coedge $-1 $346 $346 $345 $524 forward $217 $-1 #
coedge $-1 $347 $347 $218 $348 forward $342 $-1 #
edge $-1 $525 7.7397863002330399e-016 $525 6.2831853071796013 $347 $526 forward 7 unknown #
loop $-1 $-1 $354 $219 #
plane-surface $-1 53.930097076611503 -36.137985849901405 72.932885625518367 0 0.54463904215088732 0.83867056331134215 1 0 0 forward_v I I I I #
loop $-1 $-1 $527 $139 #
coedge $-1 $352 $352 $353 $528 reversed $220 $-1 #
coedge $-1 $353 $353 $352 $528 forward $222 $-1 #
coedge $-1 $354 $354 $223 $355 forward $349 $-1 #
edge $-1 $529 7.7397863002330399e-016 $529 6.2831853071796013 $354 $530 forward 7 unknown #
face $-1 $531 $532 $74 $-1 $533 forward single #
loop $-1 $-1 $534 $224 #
plane-surface $-1 -33.73507882662193 -187.28200649269655 94.930370347485962 1 0 0 0 0.83867057594974714 -0.54463902268945019 forward_v I I I I #
coedge $-1 $535 $536 $537 $538 reversed $225 $-1 #
coedge $-1 $361 $227 $539 $540 reversed $143 $-1 #
coedge $-1 $227 $360 $535 $541 reversed $143 $-1 #
coedge $-1 $537 $542 $227 $363 forward $532 $-1 #
edge $-1 $543 40.288291548344112 $544 49.067903391162915 $362 $545 forward 7 unknown #
loop $-1 $-1 $369 $228 #
plane-surface $-1 -20.209855483533786 -53.352711698004185 7.9556721546173748 0 -0.83867057594974714 0.54463902268945019 1 0 0 forward_v I I I I #
loop $-1 $-1 $546 $145 #
coedge $-1 $367 $367 $368 $547 reversed $229 $-1 #
coedge $-1 $368 $368 $367 $547 forward $231 $-1 #
coedge $-1 $369 $369 $232 $370 forward $364 $-1 #
edge $-1 $548 -1.9981387631384989e-016 $548 6.2831853071796004 $369 $549 forward 7 unknown #
loop $-1 $-1 $376 $233 #
plane-surface $-1 -20.209855483533786 -53.352711698004185 7.9556721546173748 0 -0.83867057594974714 0.54463902268945019 1 0 0 forward_v I I I I #
loop $-1 $-1 $550 $148 #
coedge $-1 $374 $374 $375 $551 reversed $234 $-1 #
coedge $-1 $375 $375 $374 $551 forward $236 $-1 #
coedge $-1 $376 $376 $237 $377 forward $371 $-1 #
edge $-1 $552 -1.9981387631384989e-016 $552 6.2831853071796004 $376 $553 forward 7 unknown #
face $-1 $554 $555 $77 $-1 $556 reversed single #
loop $-1 $-1 $557 $238 #
plane-surface $-1 37.672591266584064 -187.28200649269655 94.930370347485962 1 0 0 0 0.83867057594974714 -0.54463902268945019 forward_v I I I I #
coedge $-1 $558 $559 $560 $561 reversed $239 $-1 #
coedge $-1 $383 $241 $562 $563 reversed $152 $-1 #
coedge $-1 $241 $382 $558 $564 reversed $152 $-1 #
coedge $-1 $560 $565 $241 $385 forward $566 $-1 #
edge $-1 $567 40.288291548344112 $568 49.067903391162915 $384 $569 forward 7 unknown #
loop $-1 $-1 $391 $242 #
plane-surface $-1 51.197814609672207 -53.352711698004185 7.9556721546173748 0 -0.83867057594974714 0.54463902268945019 1 0 0 forward_v I I I I #
loop $-1 $-1 $570 $154 #
coedge $-1 $389 $389 $390 $571 reversed $243 $-1 #
coedge $-1 $390 $390 $389 $571 forward $245 $-1 #
coedge $-1 $391 $391 $246 $392 forward $386 $-1 #
edge $-1 $572 -1.9981387631384989e-016 $572 6.2831853071796004 $391 $573 forward 7 unknown #
loop $-1 $-1 $398 $247 #
plane-surface $-1 51.197814609672207 -53.352711698004185 7.9556721546173748 0 -0.83867057594974714 0.54463902268945019 1 0 0 forward_v I I I I #
loop $-1 $-1 $574 $157 #
coedge $-1 $396 $396 $397 $575 reversed $248 $-1 #
coedge $-1 $397 $397 $396 $575 forward $250 $-1 #
coedge $-1 $398 $398 $251 $399 forward $393 $-1 #
edge $-1 $576 -1.9981387631384989e-016 $576 6.2831853071796004 $398 $577 forward 7 unknown #
face $-1 $578 $579 $60 $-1 $580 reversed single #
loop $-1 $-1 $581 $252 #
plane-surface $-1 -79.846186712240979 0 0 1 0 0 0 0 -1 forward_v I I I I #
coedge $-1 $582 $411 $583 $584 forward $253 $-1 #
coedge $-1 $585 $255 $582 $586 forward $161 $-1 #
coedge $-1 $255 $585 $587 $588 forward $161 $-1 #
coedge $-1 $414 $413 $255 $407 reversed $415 $-1 #
edge $-1 $589 -53.352711698004164 $590 53.352711698004164 $406 $591 forward 7 unknown #
coedge $-1 $257 $256 $592 $593 forward $101 $-1 #
coedge $-1 $594 $595 $256 $410 reversed $579 $-1 #
edge $-1 $417 -79.846186712240979 $596 79.846186712240979 $409 $597 forward 7 unknown #
coedge $-1 $403 $598 $257 $412 reversed $253 $-1 #
edge $-1 $599 -79.846186712240979 $416 79.846186712240979 $411 $600 forward 7 unknown #
coedge $-1 $406 $258 $598 $601 forward $415 $-1 #
coedge $-1 $258 $406 $594 $602 reversed $415 $-1 #
loop $-1 $-1 $413 $578 #
vertex $-1 $259 $603 #
vertex $-1 $259 $604 #
straight-curve $-1 79.846186712240979 0 21.47508926225003 0 1 0 I I #
face $-1 $605 $606 $61 $-1 $607 forward single #
loop $-1 $-1 $608 $260 #
plane-surface $-1 0 0 -21.47508926225003 0 0 1 1 0 0 forward_v I I I I #
coedge $-1 $609 $610 $427 $611 forward $261 $-1 #
coedge $-1 $612 $263 $608 $613 reversed $165 $-1 #
coedge $-1 $263 $612 $614 $615 reversed $165 $-1 #
coedge $-1 $610 $609 $263 $426 reversed $261 $-1 #
edge $-1 $616 -21.47508926225003 $617 21.47508926225003 $425 $618 forward 7 unknown #
coedge $-1 $265 $264 $422 $611 reversed $104 $-1 #
coedge $-1 $619 $620 $264 $429 forward $420 $-1 #
edge $-1 $621 27.265318427568026 $435 44.142351665637975 $428 $622 forward 7 unknown #
coedge $-1 $623 $624 $265 $431 forward $606 $-1 #
edge $-1 $436 -44.142351665637975 $625 -27.265318427568026 $430 $626 forward 7 unknown #
coedge $-1 $627 $266 $624 $628 reversed $434 $-1 #
coedge $-1 $266 $627 $619 $629 reversed $434 $-1 #
loop $-1 $-1 $627 $605 #
vertex $-1 $629 $630 #
vertex $-1 $267 $631 #
straight-curve $-1 -79.846186712240979 -16.04817402933082 0 0 0 1 I I #
face $-1 $-1 $450 $62 $-1 $632 forward single #
loop $-1 $-1 $633 $268 #
plane-surface $-1 0 53.352711698004164 0 0 -1 0 0 0 -1 forward_v I I I I #
coedge $-1 $634 $635 $636 $637 reversed $269 $-1 #
coedge $-1 $638 $271 $273 $448 forward $169 $-1 #
coedge $-1 $271 $638 $634 $639 forward $169 $-1 #
coedge $-1 $636 $274 $271 $445 forward $450 $-1 #
edge $-1 $452 -28.314277330244249 $640 -8.7387865082972631 $444 $641 forward 7 unknown #
coedge $-1 $642 $643 $272 $447 forward $439 $-1 #
edge $-1 $644 -88.61414316616542 $451 -81.955999938726904 $446 $645 forward 7 unknown #
edge $-1 $452 94.480550200829015 $644 106.70542339600833 $273 $646 forward 7 unknown #
coedge $-1 $274 $636 $642 $647 forward $450 $-1 #
loop $-1 $-1 $636 $438 #
vertex $-1 $447 $648 #
vertex $-1 $275 $649 #
straight-curve $-1 -46.840809249515004 25.418357725405134 21.475089262250023 0 -1 0 I I #
coedge $-1 $454 $454 $-1 $650 reversed $278 $-1 #
edge $-1 $651 0 $651 6.2831853071796004 $279 $652 forward 7 unknown #
vertex $-1 $282 $653 #
ellipse-curve $-1 -41.247811871815863 48.226391053498787 18.146017648530773 0 0.54463904215088732 0.83867056331134215 2.5 0 0 1 I I #
coedge $-1 $458 $458 $-1 $654 reversed $285 $-1 #
edge $-1 $655 0 $655 6.2831853071796004 $286 $656 forward 7 unknown #
vertex $-1 $289 $657 #
ellipse-curve $-1 -32.858315805267154 48.226391053498787 18.146017648530773 0 0.54463904215088732 0.83867056331134215 2.5 0 0 1 I I #
face $-1 $-1 $658 $65 $-1 $659 reversed single #
loop $-1 $-1 $296 $290 #
plane-surface $-1 0 0 21.47508926225003 0 0 1 1 0 0 forward_v I I I I #
coedge $-1 $660 $661 $662 $663 reversed $291 $-1 #
coedge $-1 $664 $293 $295 $472 forward $183 $-1 #
coedge $-1 $293 $664 $660 $665 forward $183 $-1 #
coedge $-1 $662 $296 $293 $469 forward $463 $-1 #
edge $-1 $475 -13.150417177718744 $666 6.4250736442282417 $468 $667 forward 7 unknown #
coedge $-1 $668 $669 $294 $471 forward $658 $-1 #
edge $-1 $670 -88.61414316616542 $474 -81.955999938726904 $470 $671 forward 7 unknown #
edge $-1 $475 94.480550200829015 $670 106.70542339600833 $295 $672 forward 7 unknown #
coedge $-1 $296 $662 $668 $673 forward $463 $-1 #
vertex $-1 $471 $674 #
vertex $-1 $297 $675 #
straight-curve $-1 -16.513088944463995 25.418357725405134 21.475089262250023 0 -1 0 I I #
coedge $-1 $477 $477 $-1 $676 reversed $300 $-1 #
edge $-1 $677 0 $677 6.2831853071796004 $301 $678 forward 7 unknown #
vertex $-1 $304 $679 #
ellipse-curve $-1 -10.920091566764853 48.226391053498787 18.146017648530773 0 0.54463904215088732 0.83867056331134215 2.5 0 0 1 I I #
coedge $-1 $481 $481 $-1 $680 reversed $307 $-1 #
edge $-1 $681 0 $681 6.2831853071796004 $308 $682 forward 7 unknown #
vertex $-1 $311 $683 #
ellipse-curve $-1 -2.5305955002161511 48.226391053498787 18.146017648530773 0 0.54463904215088732 0.83867056331134215 2.5 0 0 1 I I #
face $-1 $-1 $684 $68 $-1 $685 reversed single #
loop $-1 $-1 $318 $312 #
plane-surface $-1 0 0 21.47508926225003 0 0 1 1 0 0 forward_v I I I I #
coedge $-1 $686 $687 $688 $689 reversed $313 $-1 #
coedge $-1 $690 $315 $317 $495 forward $197 $-1 #
coedge $-1 $315 $690 $686 $691 forward $197 $-1 #
coedge $-1 $688 $318 $315 $492 forward $486 $-1 #
edge $-1 $498 2.0134429748067575 $692 21.588933796753743 $491 $693 forward 7 unknown #
coedge $-1 $694 $695 $316 $494 forward $684 $-1 #
edge $-1 $696 -88.61414316616542 $497 -81.955999938726904 $493 $697 forward 7 unknown #
edge $-1 $498 94.480550200829015 $696 106.70542339600833 $317 $698 forward 7 unknown #
coedge $-1 $318 $688 $694 $699 forward $486 $-1 #
vertex $-1 $319 $700 #
vertex $-1 $319 $701 #
straight-curve $-1 13.814631360587008 25.418357725405134 21.475089262250023 0 -1 0 I I #
coedge $-1 $500 $500 $-1 $702 reversed $322 $-1 #
edge $-1 $703 0 $703 6.2831853071796004 $323 $704 forward 7 unknown #
vertex $-1 $326 $705 #
ellipse-curve $-1 19.407628738286149 48.226391053498787 18.146017648530773 0 0.54463904215088732 0.83867056331134215 2.5 0 0 1 I I #
coedge $-1 $504 $504 $-1 $706 reversed $329 $-1 #
edge $-1 $707 0 $707 6.2831853071796004 $330 $708 forward 7 unknown #
vertex $-1 $333 $709 #
ellipse-curve $-1 27.797124804834851 48.226391053498787 18.146017648530773 0 0.54463904215088732 0.83867056331134215 2.5 0 0 1 I I #
face $-1 $-1 $710 $71 $-1 $711 reversed single #
loop $-1 $-1 $340 $334 #
plane-surface $-1 0 0 21.47508926225003 0 0 1 1 0 0 forward_v I I I I #
coedge $-1 $712 $713 $714 $715 reversed $335 $-1 #
coedge $-1 $716 $337 $339 $518 forward $211 $-1 #
coedge $-1 $337 $716 $712 $717 forward $211 $-1 #
coedge $-1 $714 $340 $337 $515 forward $509 $-1 #
edge $-1 $521 17.177303127332259 $718 36.752793949279244 $514 $719 forward 7 unknown #
coedge $-1 $720 $721 $338 $517 forward $710 $-1 #
edge $-1 $722 -88.61414316616542 $520 -81.955999938726904 $516 $723 forward 7 unknown #
edge $-1 $521 94.480550200829015 $722 106.70542339600833 $339 $724 forward 7 unknown #
coedge $-1 $340 $714 $720 $725 forward $509 $-1 #
vertex $-1 $341 $726 #
vertex $-1 $341 $727 #
straight-curve $-1 44.14235166563801 25.418357725405134 21.475089262250023 0 -1 0 I I #
coedge $-1 $523 $523 $-1 $728 reversed $344 $-1 #
edge $-1 $729 0 $729 6.2831853071796004 $345 $730 forward 7 unknown #
vertex $-1 $348 $731 #
ellipse-curve $-1 49.735349043337152 48.226391053498787 18.146017648530773 0 0.54463904215088732 0.83867056331134215 2.5 0 0 1 I I #
coedge $-1 $527 $527 $-1 $732 reversed $351 $-1 #
edge $-1 $733 0 $733 6.2831853071796004 $352 $734 forward 7 unknown #
vertex $-1 $355 $735 #
ellipse-curve $-1 58.124845109885854 48.226391053498787 18.146017648530773 0 0.54463904215088732 0.83867056331134215 2.5 0 0 1 I I #
face $-1 $-1 $736 $74 $-1 $737 reversed single #
loop $-1 $-1 $362 $356 #
plane-surface $-1 0 0 21.47508926225003 0 0 1 1 0 0 forward_v I I I I #
coedge $-1 $738 $739 $740 $741 reversed $357 $-1 #
coedge $-1 $742 $359 $361 $541 forward $225 $-1 #
coedge $-1 $359 $742 $738 $743 forward $225 $-1 #
coedge $-1 $740 $362 $359 $538 forward $532 $-1 #
edge $-1 $544 -3.42029560132125 $744 23.630151084855036 $537 $745 forward 7 unknown #
coedge $-1 $746 $747 $360 $540 forward $736 $-1 #
edge $-1 $748 -39.509513019125571 $543 -25.990095911492951 $539 $749 forward 7 unknown #
edge $-1 $544 -16.12005654582871 $748 -3.9170575986957569e-014 $361 $750 forward 7 unknown #
coedge $-1 $362 $740 $746 $751 forward $532 $-1 #
vertex $-1 $540 $752 #
vertex $-1 $363 $753 #
straight-curve $-1 -6.6846321404456432 -93.641003246348276 21.47508926225003 0 1 0 I I #
coedge $-1 $546 $546 $-1 $754 reversed $366 $-1 #
edge $-1 $755 0 $755 6.2831853071796004 $367 $756 forward 7 unknown #
vertex $-1 $370 $757 #
ellipse-curve $-1 -26.006379773428705 -48.962905776594759 14.715380708433722 0 -0.83867057594974714 0.54463902268945019 3 0 0 1 I I #
coedge $-1 $550 $550 $-1 $758 reversed $373 $-1 #
edge $-1 $759 0 $759 6.2831853071796004 $374 $760 forward 7 unknown #
vertex $-1 $377 $761 #
ellipse-curve $-1 -14.413331193638868 -48.962905776594759 14.715380708433722 0 -0.83867057594974714 0.54463902268945019 3 0 0 1 I I #
face $-1 $-1 $566 $77 $-1 $762 forward single #
loop $-1 $-1 $763 $378 #
plane-surface $-1 0 -53.352711698004164 0 0 1 0 0 0 1 forward_v I I I I #
coedge $-1 $764 $765 $766 $767 reversed $379 $-1 #
coedge $-1 $768 $381 $383 $564 forward $239 $-1 #
coedge $-1 $381 $768 $764 $769 forward $239 $-1 #
coedge $-1 $766 $384 $381 $561 forward $566 $-1 #
edge $-1 $568 -39.124130647924247 $770 -12.07368396174796 $560 $771 forward 7 unknown #
coedge $-1 $772 $773 $382 $563 forward $555 $-1 #
edge $-1 $774 -39.509513019125571 $567 -25.990095911492951 $562 $775 forward 7 unknown #
edge $-1 $568 -16.12005654582871 $774 -3.9170575986957569e-014 $383 $776 forward 7 unknown #
coedge $-1 $384 $766 $772 $777 forward $566 $-1 #
loop $-1 $-1 $766 $554 #
vertex $-1 $563 $778 #
vertex $-1 $385 $779 #
straight-curve $-1 64.72303795276035 -93.641003246348276 21.47508926225003 0 1 0 I I #
coedge $-1 $570 $570 $-1 $780 reversed $388 $-1 #
edge $-1 $781 0 $781 6.2831853071796004 $389 $782 forward 7 unknown #
vertex $-1 $392 $783 #
ellipse-curve $-1 45.401290319777303 -48.962905776594759 14.715380708433722 0 -0.83867057594974714 0.54463902268945019 3 0 0 1 I I #
coedge $-1 $574 $574 $-1 $784 reversed $395 $-1 #
edge $-1 $785 0 $785 6.2831853071796004 $396 $786 forward 7 unknown #
vertex $-1 $399 $787 #
ellipse-curve $-1 56.99433889956714 -48.962905776594759 14.715380708433722 0 -0.83867057594974714 0.54463902268945019 3 0 0 1 I I #
face $-1 $-1 $415 $60 $-1 $788 reversed single #
loop $-1 $-1 $594 $400 #
plane-surface $-1 0 53.352711698004164 0 0 -1 0 0 0 -1 forward_v I I I I #
coedge $-1 $789 $592 $595 $790 forward $401 $-1 #
coedge $-1 $598 $403 $404 $586 reversed $253 $-1 #
coedge $-1 $592 $789 $403 $584 reversed $401 $-1 #
edge $-1 $599 -21.47508926225003 $791 21.47508926225003 $583 $792 forward 7 unknown #
coedge $-1 $405 $404 $789 $793 forward $161 $-1 #
edge $-1 $590 -79.846186712240979 $791 79.846186712240979 $582 $794 forward 7 unknown #
coedge $-1 $595 $594 $405 $588 reversed $579 $-1 #
edge $-1 $795 -79.846186712240979 $589 79.846186712240979 $587 $796 forward 7 unknown #
vertex $-1 $407 $797 #
vertex $-1 $601 $798 #
straight-curve $-1 79.846186712240979 0 -21.47508926225003 0 -1 0 I I #
coedge $-1 $581 $583 $408 $593 reversed $401 $-1 #
edge $-1 $596 -53.352711698004164 $599 53.352711698004164 $592 $799 forward 7 unknown #
coedge $-1 $587 $409 $414 $602 forward $579 $-1 #
coedge $-1 $409 $587 $581 $790 reversed $579 $-1 #
vertex $-1 $410 $800 #
straight-curve $-1 0 53.352711698004164 21.47508926225003 -1 0 0 I I #
coedge $-1 $411 $582 $413 $601 reversed $253 $-1 #
vertex $-1 $593 $801 #
straight-curve $-1 0 -53.352711698004164 21.47508926225003 1 0 0 I I #
edge $-1 $416 -21.47508926225003 $590 21.47508926225003 $413 $802 forward 7 unknown #
edge $-1 $417 -21.47508926225003 $589 21.47508926225003 $414 $803 forward 7 unknown #
point $-1 79.846186712240979 -53.352711698004164 21.47508926225003 #
point $-1 79.846186712240979 53.352711698004164 21.47508926225003 #
face $-1 $-1 $434 $61 $-1 $804 reversed single #
loop $-1 $-1 $614 $419 #
plane-surface $-1 0 0 21.47508926225003 0 0 1 1 0 0 forward_v I I I I #
coedge $-1 $620 $619 $423 $613 forward $420 $-1 #
coedge $-1 $425 $422 $620 $805 reversed $261 $-1 #
coedge $-1 $422 $425 $623 $806 reversed $261 $-1 #
edge $-1 $625 -21.47508926225003 $621 21.47508926225003 $422 $807 forward 7 unknown #
coedge $-1 $424 $423 $627 $808 reversed $165 $-1 #
edge $-1 $809 -44.142351665637975 $617 -27.265318427568026 $608 $810 forward 7 unknown #
coedge $-1 $624 $623 $424 $615 forward $606 $-1 #
edge $-1 $616 27.265318427568026 $811 44.142351665637975 $614 $812 forward 7 unknown #
vertex $-1 $615 $813 #
vertex $-1 $613 $814 #
straight-curve $-1 -62.96915347417103 -10.4025331735041 0 0 0 -1 I I #
coedge $-1 $608 $428 $433 $629 forward $420 $-1 #
coedge $-1 $428 $608 $609 $805 forward $420 $-1 #
vertex $-1 $429 $815 #
straight-curve $-1 -35.703835046603004 -16.04817402933082 -21.47508926225003 -1 0 0 I I #
coedge $-1 $614 $430 $610 $806 forward $606 $-1 #
coedge $-1 $430 $614 $432 $628 forward $606 $-1 #
vertex $-1 $431 $816 #
straight-curve $-1 -35.703835046603004 -16.04817402933082 21.47508926225003 1 0 0 I I #
coedge $-1 $433 $432 $612 $808 forward $434 $-1 #
edge $-1 $811 10.4025331735041 $436 16.04817402933082 $432 $817 forward 7 unknown #
edge $-1 $435 -16.04817402933082 $809 -10.4025331735041 $433 $818 forward 7 unknown #
point $-1 -79.846186712240979 -16.04817402933082 -21.47508926225003 #
point $-1 -79.846186712240979 -16.04817402933082 21.47508926225003 #
plane-surface $-1 0 0 21.47508926225003 0 0 1 1 0 0 forward_v I I I I #
coedge $-1 $643 $642 $635 $819 forward $439 $-1 #
coedge $-1 $635 $441 $443 $639 reversed $269 $-1 #
coedge $-1 $441 $634 $633 $819 reversed $269 $-1 #
coedge $-1 $449 $444 $441 $637 forward $450 $-1 #
edge $-1 $640 17.681712683588277 $820 27.93435397259903 $636 $821 forward 7 unknown #
coedge $-1 $443 $442 $643 $822 reversed $169 $-1 #
edge $-1 $823 -106.70542339600833 $640 -94.480550200829015 $634 $824 forward 7 unknown #
vertex $-1 $445 $825 #
straight-curve $-1 -18.526531919270756 43.10007040899341 21.47508926225003 1 0 0 I I #
coedge $-1 $633 $446 $449 $647 reversed $439 $-1 #
coedge $-1 $446 $633 $638 $822 forward $439 $-1 #
vertex $-1 $447 $826 #
straight-curve $-1 -46.840809249515004 53.352711698004164 103.43108920097693 0 0 1 I I #
straight-curve $-1 -46.840809249515004 -36.137985849901405 72.932885625518367 0 0.83867056331134215 -0.54463904215088732 I I #
edge $-1 $820 27.265318427568019 $451 46.840809249515004 $642 $827 forward 7 unknown #
point $-1 -46.840809249515004 53.352711698004164 21.47508926225003 #
point $-1 -46.840809249515004 43.10007040899341 21.47508926225003 #
edge $-1 $828 1 $828 0 $454 $-1 forward 7 unknown #
vertex $-1 $455 $829 #
ellipse-curve $-1 -41.247811871815863 44.866838967572775 12.972761193667992 0 0.54463904215088732 0.83867056331134215 2.5 0 0 1 I I #
point $-1 -38.747811871815863 48.226391053498787 18.146017648530769 #
edge $-1 $830 1 $830 0 $458 $-1 forward 7 unknown #
vertex $-1 $459 $831 #
ellipse-curve $-1 -32.858315805267154 44.866838967572775 12.972761193667992 0 0.54463904215088732 0.83867056331134215 2.5 0 0 1 I I #
point $-1 -30.358315805267154 48.226391053498787 18.146017648530769 #
loop $-1 $-1 $470 $462 #
plane-surface $-1 0 53.352711698004164 0 0 -1 0 0 0 -1 forward_v I I I I #
coedge $-1 $661 $465 $467 $665 reversed $291 $-1 #
coedge $-1 $465 $660 $832 $833 reversed $291 $-1 #
coedge $-1 $473 $468 $465 $663 forward $463 $-1 #
edge $-1 $666 17.681712683588277 $834 27.93435397259903 $662 $835 forward 7 unknown #
coedge $-1 $467 $466 $669 $836 reversed $183 $-1 #
edge $-1 $837 -106.70542339600833 $666 -94.480550200829015 $660 $838 forward 7 unknown #
vertex $-1 $469 $839 #
straight-curve $-1 -3.362671766745251 43.10007040899341 21.47508926225003 1 0 0 I I #
coedge $-1 $832 $470 $473 $673 reversed $658 $-1 #
coedge $-1 $470 $832 $664 $836 forward $658 $-1 #
vertex $-1 $471 $840 #
straight-curve $-1 -16.513088944463995 53.352711698004164 103.43108920097693 0 0 1 I I #
straight-curve $-1 -16.513088944463995 -36.137985849901405 72.932885625518367 0 0.83867056331134215 -0.54463904215088732 I I #
edge $-1 $834 -3.0624018774829906 $474 16.513088944463995 $668 $841 forward 7 unknown #
point $-1 -16.513088944463995 53.352711698004164 21.47508926225003 #
point $-1 -16.513088944463995 43.10007040899341 21.47508926225003 #
edge $-1 $842 1 $842 0 $477 $-1 forward 7 unknown #
vertex $-1 $478 $843 #
ellipse-curve $-1 -10.920091566764853 44.866838967572775 12.972761193667992 0 0.54463904215088732 0.83867056331134215 2.5 0 0 1 I I #
point $-1 -8.420091566764853 48.226391053498787 18.146017648530769 #
edge $-1 $844 1 $844 0 $481 $-1 forward 7 unknown #
vertex $-1 $482 $845 #
ellipse-curve $-1 -2.5305955002161511 44.866838967572775 12.972761193667992 0 0.54463904215088732 0.83867056331134215 2.5 0 0 1 I I #
point $-1 -0.030595500216151095 48.226391053498787 18.146017648530769 #
loop $-1 $-1 $493 $485 #
plane-surface $-1 0 53.352711698004164 0 0 -1 0 0 0 -1 forward_v I I I I #
coedge $-1 $687 $488 $490 $691 reversed $313 $-1 #
coedge $-1 $488 $686 $846 $847 reversed $313 $-1 #
coedge $-1 $496 $491 $488 $689 forward $486 $-1 #
edge $-1 $692 17.681712683588277 $848 27.93435397259903 $688 $849 forward 7 unknown #
coedge $-1 $490 $489 $695 $850 reversed $197 $-1 #
edge $-1 $851 -106.70542339600833 $692 -94.480550200829015 $686 $852 forward 7 unknown #
vertex $-1 $492 $853 #
straight-curve $-1 11.80118838578025 43.10007040899341 21.47508926225003 1 0 0 I I #
coedge $-1 $846 $493 $496 $699 reversed $684 $-1 #
coedge $-1 $493 $846 $690 $850 forward $684 $-1 #
vertex $-1 $494 $854 #
straight-curve $-1 13.814631360587008 53.352711698004164 103.43108920097693 0 0 1 I I #
straight-curve $-1 13.814631360587008 -36.137985849901405 72.932885625518367 0 0.83867056331134215 -0.54463904215088732 I I #
edge $-1 $848 -33.390122182533993 $497 -13.814631360587008 $694 $855 forward 7 unknown #
point $-1 13.814631360587008 53.352711698004164 21.47508926225003 #
point $-1 13.814631360587008 43.10007040899341 21.47508926225003 #
edge $-1 $856 1 $856 0 $500 $-1 forward 7 unknown #
vertex $-1 $501 $857 #
ellipse-curve $-1 19.407628738286149 44.866838967572775 12.972761193667992 0 0.54463904215088732 0.83867056331134215 2.5 0 0 1 I I #
point $-1 21.907628738286149 48.226391053498787 18.146017648530769 #
edge $-1 $858 1 $858 0 $504 $-1 forward 7 unknown #
vertex $-1 $505 $859 #
ellipse-curve $-1 27.797124804834851 44.866838967572775 12.972761193667992 0 0.54463904215088732 0.83867056331134215 2.5 0 0 1 I I #
point $-1 30.297124804834851 48.226391053498787 18.146017648530769 #
loop $-1 $-1 $516 $508 #
plane-surface $-1 0 53.352711698004164 0 0 -1 0 0 0 -1 forward_v I I I I #
coedge $-1 $713 $511 $513 $717 reversed $335 $-1 #
coedge $-1 $511 $712 $860 $861 reversed $335 $-1 #
coedge $-1 $519 $514 $511 $715 forward $509 $-1 #
edge $-1 $718 17.681712683588277 $862 27.93435397259903 $714 $863 forward 7 unknown #
coedge $-1 $513 $512 $721 $864 reversed $211 $-1 #
edge $-1 $865 -106.70542339600833 $718 -94.480550200829015 $712 $866 forward 7 unknown #
vertex $-1 $515 $867 #
straight-curve $-1 26.965048538305751 43.10007040899341 21.47508926225003 1 0 0 I I #
coedge $-1 $860 $516 $519 $725 reversed $710 $-1 #
coedge $-1 $516 $860 $716 $864 forward $710 $-1 #
vertex $-1 $517 $868 #
straight-curve $-1 44.14235166563801 53.352711698004164 103.43108920097693 0 0 1 I I #
straight-curve $-1 44.14235166563801 -36.137985849901405 72.932885625518367 0 0.83867056331134215 -0.54463904215088732 I I #
edge $-1 $862 -63.717842487584996 $520 -44.14235166563801 $720 $869 forward 7 unknown #
point $-1 44.14235166563801 53.352711698004164 21.47508926225003 #
point $-1 44.14235166563801 43.10007040899341 21.47508926225003 #
edge $-1 $870 1 $870 0 $523 $-1 forward 7 unknown #
vertex $-1 $524 $871 #
ellipse-curve $-1 49.735349043337152 44.866838967572775 12.972761193667992 0 0.54463904215088732 0.83867056331134215 2.5 0 0 1 I I #
point $-1 52.235349043337152 48.226391053498787 18.146017648530769 #
edge $-1 $872 1 $872 0 $527 $-1 forward 7 unknown #
vertex $-1 $528 $873 #
ellipse-curve $-1 58.124845109885854 44.866838967572775 12.972761193667992 0 0.54463904215088732 0.83867056331134215 2.5 0 0 1 I I #
point $-1 60.624845109885854 48.226391053498787 18.146017648530769 #
loop $-1 $-1 $539 $531 #
plane-surface $-1 0 -53.352711698004164 0 0 1 0 0 0 1 forward_v I I I I #
coedge $-1 $739 $534 $536 $743 reversed $357 $-1 #
coedge $-1 $534 $738 $874 $875 reversed $357 $-1 #
coedge $-1 $542 $537 $534 $741 forward $532 $-1 #
edge $-1 $744 -49.067903391162915 $876 -40.288291548344112 $740 $877 forward 7 unknown #
coedge $-1 $536 $535 $747 $878 reversed $225 $-1 #
edge $-1 $879 3.9170575986957569e-014 $744 16.12005654582871 $738 $880 forward 7 unknown #
vertex $-1 $538 $881 #
straight-curve $-1 -10.104927741766893 -44.573099855185362 21.47508926225003 -1 0 0 I I #
coedge $-1 $874 $539 $542 $751 reversed $736 $-1 #
coedge $-1 $539 $874 $742 $878 forward $736 $-1 #
vertex $-1 $540 $882 #
straight-curve $-1 -6.6846321404456432 -53.352711698004157 47.465185173742981 0 0 1 I I #
straight-curve $-1 -6.6846321404456432 -53.352711698004185 7.9556721546173748 0 -0.54463902268945019 -0.83867057594974714 I I #
edge $-1 $876 -33.73507882662193 $543 -6.6846321404456432 $746 $883 forward 7 unknown #
point $-1 -6.6846321404456432 -53.352711698004164 21.47508926225003 #
point $-1 -6.6846321404456432 -44.573099855185362 21.47508926225003 #
edge $-1 $884 1 $884 0 $546 $-1 forward 7 unknown #
vertex $-1 $547 $885 #
ellipse-curve $-1 -26.006379773428705 -46.375714420713763 13.035239050927839 0 -0.83867057594974714 0.54463902268945019 3 0 0 1 I I #
point $-1 -23.006379773428705 -48.962905776594752 14.715380708433717 #
edge $-1 $886 1 $886 0 $550 $-1 forward 7 unknown #
vertex $-1 $551 $887 #
ellipse-curve $-1 -14.413331193638868 -46.375714420713763 13.035239050927839 0 -0.83867057594974714 0.54463902268945019 3 0 0 1 I I #
point $-1 -11.413331193638868 -48.962905776594752 14.715380708433717 #
plane-surface $-1 0 0 21.47508926225003 0 0 1 1 0 0 forward_v I I I I #
coedge $-1 $773 $772 $765 $888 forward $555 $-1 #
coedge $-1 $765 $557 $559 $769 reversed $379 $-1 #
coedge $-1 $557 $764 $763 $888 reversed $379 $-1 #
coedge $-1 $565 $560 $557 $767 forward $566 $-1 #
edge $-1 $770 -49.067903391162915 $889 -40.288291548344112 $766 $890 forward 7 unknown #
coedge $-1 $559 $558 $773 $891 reversed $239 $-1 #
edge $-1 $892 3.9170575986957569e-014 $770 16.12005654582871 $764 $893 forward 7 unknown #
vertex $-1 $561 $894 #
straight-curve $-1 25.598907304836104 -44.573099855185362 21.47508926225003 -1 0 0 I I #
coedge $-1 $763 $562 $565 $777 reversed $555 $-1 #
coedge $-1 $562 $763 $768 $891 forward $555 $-1 #
vertex $-1 $563 $895 #
straight-curve $-1 64.72303795276035 -53.352711698004157 47.465185173742981 0 0 1 I I #
straight-curve $-1 64.72303795276035 -53.352711698004185 7.9556721546173748 0 -0.54463902268945019 -0.83867057594974714 I I #
edge $-1 $889 37.672591266584064 $567 64.72303795276035 $772 $896 forward 7 unknown #
point $-1 64.72303795276035 -53.352711698004164 21.47508926225003 #
point $-1 64.72303795276035 -44.573099855185362 21.47508926225003 #
edge $-1 $897 1 $897 0 $570 $-1 forward 7 unknown #
vertex $-1 $571 $898 #
ellipse-curve $-1 45.401290319777303 -46.375714420713763 13.035239050927839 0 -0.83867057594974714 0.54463902268945019 3 0 0 1 I I #
point $-1 48.401290319777303 -48.962905776594752 14.715380708433717 #
edge $-1 $899 1 $899 0 $574 $-1 forward 7 unknown #
vertex $-1 $575 $900 #
ellipse-curve $-1 56.99433889956714 -46.375714420713763 13.035239050927839 0 -0.83867057594974714 0.54463902268945019 3 0 0 1 I I #
point $-1 59.99433889956714 -48.962905776594752 14.715380708433717 #
plane-surface $-1 79.846186712240979 0 0 -1 0 0 0 0 1 forward_v I I I I #
coedge $-1 $583 $581 $585 $793 reversed $401 $-1 #
edge $-1 $596 -21.47508926225003 $795 21.47508926225003 $595 $901 forward 7 unknown #
vertex $-1 $793 $902 #
straight-curve $-1 -79.846186712240979 -53.352711698004164 0 0 0 -1 I I #
edge $-1 $791 -53.352711698004164 $795 53.352711698004164 $789 $903 forward 7 unknown #
straight-curve $-1 0 -53.352711698004164 -21.47508926225003 -1 0 0 I I #
vertex $-1 $588 $904 #
straight-curve $-1 0 53.352711698004164 -21.47508926225003 1 0 0 I I #
point $-1 79.846186712240979 53.352711698004164 -21.47508926225003 #
point $-1 79.846186712240979 -53.352711698004164 -21.47508926225003 #
straight-curve $-1 -79.846186712240979 0 21.47508926225003 0 -1 0 I I #
point $-1 -79.846186712240979 53.352711698004164 21.47508926225003 #
point $-1 -79.846186712240979 -53.352711698004164 21.47508926225003 #
straight-curve $-1 79.846186712240979 -53.352711698004164 0 0 0 -1 I I #
straight-curve $-1 79.846186712240979 53.352711698004164 0 0 0 -1 I I #
plane-surface $-1 -79.846186712240979 0 0 1 0 0 0 0 -1 forward_v I I I I #
edge $-1 $617 3.78985637279537 $621 9.4354972286220899 $620 $905 forward 7 unknown #
edge $-1 $625 -9.4354972286220899 $616 -3.78985637279537 $623 $906 forward 7 unknown #
straight-curve $-1 -62.96915347417103 -16.04817402933082 0 0 0 -1 I I #
edge $-1 $811 -21.47508926225003 $809 21.47508926225003 $627 $907 forward 7 unknown #
vertex $-1 $808 $908 #
straight-curve $-1 -35.703835046603004 -10.4025331735041 -21.47508926225003 1 0 0 I I #
vertex $-1 $628 $909 #
straight-curve $-1 -35.703835046603004 -10.4025331735041 21.47508926225003 -1 0 0 I I #
point $-1 -62.96915347417103 -10.4025331735041 21.47508926225003 #
point $-1 -62.96915347417103 -10.4025331735041 -21.47508926225003 #
point $-1 -62.96915347417103 -16.04817402933082 -21.47508926225003 #
point $-1 -62.96915347417103 -16.04817402933082 21.47508926225003 #
straight-curve $-1 -79.846186712240979 0 21.47508926225003 0 -1 0 I I #
straight-curve $-1 -79.846186712240979 0 -21.47508926225003 0 1 0 I I #
edge $-1 $820 81.955999938726904 $823 88.61414316616542 $633 $910 forward 7 unknown #
vertex $-1 $647 $911 #
straight-curve $-1 -27.265318427568019 25.418357725405134 21.475089262250023 0 1 0 I I #
edge $-1 $823 8.7387865082972631 $644 28.314277330244249 $643 $912 forward 7 unknown #
vertex $-1 $822 $913 #
straight-curve $-1 -27.265318427568019 -36.137985849901405 72.932885625518367 0 -0.83867056331134215 0.54463904215088732 I I #
point $-1 -27.265318427568019 43.10007040899341 21.47508926225003 #
point $-1 -46.840809249515004 53.352711698004164 14.816946034811508 #
straight-curve $-1 0 53.352711698004164 21.47508926225003 -1 0 0 I I #
vertex $-1 $650 $914 #
point $-1 -38.747811871815863 44.866838967572775 12.972761193667992 #
vertex $-1 $654 $915 #
point $-1 -30.358315805267154 44.866838967572775 12.972761193667992 #
coedge $-1 $669 $668 $661 $833 forward $658 $-1 #
edge $-1 $834 81.955999938726904 $837 88.61414316616542 $832 $916 forward 7 unknown #
vertex $-1 $673 $917 #
straight-curve $-1 3.0624018774829906 25.418357725405134 21.475089262250023 0 1 0 I I #
edge $-1 $837 -6.4250736442282417 $670 13.150417177718744 $669 $918 forward 7 unknown #
vertex $-1 $836 $919 #
straight-curve $-1 3.0624018774829906 -36.137985849901405 72.932885625518367 0 -0.83867056331134215 0.54463904215088732 I I #
point $-1 3.0624018774829906 43.10007040899341 21.47508926225003 #
point $-1 -16.513088944463995 53.352711698004164 14.816946034811508 #
straight-curve $-1 0 53.352711698004164 21.47508926225003 -1 0 0 I I #
vertex $-1 $676 $920 #
point $-1 -8.420091566764853 44.866838967572775 12.972761193667992 #
vertex $-1 $680 $921 #
point $-1 -0.030595500216151095 44.866838967572775 12.972761193667992 #
coedge $-1 $695 $694 $687 $847 forward $684 $-1 #
edge $-1 $848 81.955999938726904 $851 88.61414316616542 $846 $922 forward 7 unknown #
vertex $-1 $699 $923 #
straight-curve $-1 33.390122182533993 25.418357725405134 21.475089262250023 0 1 0 I I #
edge $-1 $851 -21.588933796753743 $696 -2.0134429748067575 $695 $924 forward 7 unknown #
vertex $-1 $850 $925 #
straight-curve $-1 33.390122182533993 -36.137985849901405 72.932885625518367 0 -0.83867056331134215 0.54463904215088732 I I #
point $-1 33.390122182533993 43.10007040899341 21.47508926225003 #
point $-1 13.814631360587008 53.352711698004164 14.816946034811508 #
straight-curve $-1 0 53.352711698004164 21.47508926225003 -1 0 0 I I #
vertex $-1 $702 $926 #
point $-1 21.907628738286149 44.866838967572775 12.972761193667992 #
vertex $-1 $706 $927 #
point $-1 30.297124804834851 44.866838967572775 12.972761193667992 #
coedge $-1 $721 $720 $713 $861 forward $710 $-1 #
edge $-1 $862 81.955999938726904 $865 88.61414316616542 $860 $928 forward 7 unknown #
vertex $-1 $725 $929 #
straight-curve $-1 63.717842487584996 25.418357725405134 21.475089262250023 0 1 0 I I #
edge $-1 $865 -36.752793949279244 $722 -17.177303127332259 $721 $930 forward 7 unknown #
vertex $-1 $864 $931 #
straight-curve $-1 63.717842487584996 -36.137985849901405 72.932885625518367 0 -0.83867056331134215 0.54463904215088732 I I #
point $-1 63.717842487584996 43.10007040899341 21.47508926225003 #
point $-1 44.14235166563801 53.352711698004164 14.816946034811508 #
straight-curve $-1 0 53.352711698004164 21.47508926225003 -1 0 0 I I #
vertex $-1 $728 $932 #
point $-1 52.235349043337152 44.866838967572775 12.972761193667992 #
vertex $-1 $732 $933 #
point $-1 60.624845109885854 44.866838967572775 12.972761193667992 #
coedge $-1 $747 $746 $739 $875 forward $736 $-1 #
edge $-1 $876 25.990095911492951 $879 39.509513019125571 $874 $934 forward 7 unknown #
vertex $-1 $751 $935 #
straight-curve $-1 -33.73507882662193 -93.641003246348276 21.47508926225003 0 -1 0 I I #
edge $-1 $879 -23.630151084855036 $748 3.42029560132125 $747 $936 forward 7 unknown #
vertex $-1 $878 $937 #
straight-curve $-1 -33.73507882662193 -53.352711698004185 7.9556721546173748 0 0.54463902268945019 0.83867057594974714 I I #
point $-1 -33.73507882662193 -44.573099855185362 21.47508926225003 #
point $-1 -6.6846321404456432 -53.352711698004164 7.9556721546174076 #
straight-curve $-1 0 -53.352711698004164 21.47508926225003 1 0 0 I I #
vertex $-1 $754 $938 #
point $-1 -23.006379773428705 -46.375714420713763 13.035239050927839 #
vertex $-1 $758 $939 #
point $-1 -11.413331193638868 -46.375714420713763 13.035239050927839 #
edge $-1 $889 25.990095911492951 $892 39.509513019125571 $763 $940 forward 7 unknown #
vertex $-1 $777 $941 #
straight-curve $-1 37.672591266584064 -93.641003246348276 21.47508926225003 0 -1 0 I I #
edge $-1 $892 12.07368396174796 $774 39.124130647924247 $773 $942 forward 7 unknown #
vertex $-1 $891 $943 #
straight-curve $-1 37.672591266584064 -53.352711698004185 7.9556721546173748 0 0.54463902268945019 0.83867057594974714 I I #
point $-1 37.672591266584064 -44.573099855185362 21.47508926225003 #
point $-1 64.72303795276035 -53.352711698004164 7.9556721546174076 #
straight-curve $-1 0 -53.352711698004164 21.47508926225003 1 0 0 I I #
vertex $-1 $780 $944 #
point $-1 48.401290319777303 -46.375714420713763 13.035239050927839 #
vertex $-1 $784 $945 #
point $-1 59.99433889956714 -46.375714420713763 13.035239050927839 #
straight-curve $-1 -79.846186712240979 53.352711698004164 0 0 0 -1 I I #
point $-1 -79.846186712240979 -53.352711698004164 -21.47508926225003 #
straight-curve $-1 -79.846186712240979 0 -21.47508926225003 0 1 0 I I #
point $-1 -79.846186712240979 53.352711698004164 -21.47508926225003 #
straight-curve $-1 -62.96915347417103 -6.61267680070873 -21.47508926225003 0 -1 0 I I #
straight-curve $-1 -62.96915347417103 -6.61267680070873 21.47508926225003 0 1 0 I I #
straight-curve $-1 -79.846186712240979 -10.4025331735041 0 0 0 -1 I I #
point $-1 -79.846186712240979 -10.4025331735041 -21.47508926225003 #
point $-1 -79.846186712240979 -10.4025331735041 21.47508926225003 #
straight-curve $-1 -27.265318427568019 53.352711698004164 103.43108920097693 0 0 -1 I I #
point $-1 -27.265318427568019 53.352711698004164 21.47508926225003 #
straight-curve $-1 -18.526531919270756 53.352711698004157 14.816946034811519 -1 0 0 I I #
point $-1 -27.265318427568019 53.352711698004164 14.816946034811508 #
point $-1 -41.247811871815863 43.505241362195562 10.876084785389637 #
point $-1 -32.858315805267154 43.505241362195562 10.876084785389637 #
straight-curve $-1 3.0624018774829906 53.352711698004164 103.43108920097693 0 0 -1 I I #
point $-1 3.0624018774829906 53.352711698004164 21.47508926225003 #
straight-curve $-1 -3.362671766745251 53.352711698004157 14.816946034811519 -1 0 0 I I #
point $-1 3.0624018774829906 53.352711698004164 14.816946034811508 #
point $-1 -10.920091566764853 43.505241362195562 10.876084785389637 #
point $-1 -2.5305955002161511 43.505241362195562 10.876084785389637 #
straight-curve $-1 33.390122182533993 53.352711698004164 103.43108920097693 0 0 -1 I I #
point $-1 33.390122182533993 53.352711698004164 21.47508926225003 #
straight-curve $-1 11.80118838578025 53.352711698004157 14.816946034811519 -1 0 0 I I #
point $-1 33.390122182533993 53.352711698004164 14.816946034811508 #
point $-1 19.407628738286149 43.505241362195562 10.876084785389637 #
point $-1 27.797124804834851 43.505241362195562 10.876084785389637 #
straight-curve $-1 63.717842487584996 53.352711698004164 103.43108920097693 0 0 -1 I I #
point $-1 63.717842487584996 53.352711698004164 21.47508926225003 #
straight-curve $-1 26.965048538305751 53.352711698004157 14.816946034811519 -1 0 0 I I #
point $-1 63.717842487584996 53.352711698004164 14.816946034811508 #
point $-1 49.735349043337152 43.505241362195562 10.876084785389637 #
point $-1 58.124845109885854 43.505241362195562 10.876084785389637 #
straight-curve $-1 -33.73507882662193 -53.352711698004157 47.465185173742981 0 0 -1 I I #
point $-1 -33.73507882662193 -53.352711698004164 21.47508926225003 #
straight-curve $-1 -10.104927741766893 -53.352711698004164 7.9556721546173979 1 0 0 I I #
point $-1 -33.73507882662193 -53.352711698004164 7.9556721546174076 #
point $-1 -26.006379773428705 -43.859702692864516 11.401321982859489 #
point $-1 -14.413331193638868 -43.859702692864516 11.401321982859489 #
straight-curve $-1 37.672591266584064 -53.352711698004157 47.465185173742981 0 0 -1 I I #
point $-1 37.672591266584064 -53.352711698004164 21.47508926225003 #
straight-curve $-1 25.598907304836104 -53.352711698004164 7.9556721546173979 1 0 0 I I #
point $-1 37.672591266584064 -53.352711698004164 7.9556721546174076 #
point $-1 45.401290319777303 -43.859702692864516 11.401321982859489 #
point $-1 56.99433889956714 -43.859702692864516 11.401321982859489 #
End-of-ACIS-data 