500 0 12 0           
7 Unknown 11 ACIS 5.0 NT 24 Fri Mar 26 02:55:15 1999 
-1 9.9999999999999995e-007 1e-010 
body $-1 $12 $-1 $13 #
body $-1 $14 $-1 $15 #
body $-1 $16 $-1 $17 #
body $-1 $18 $-1 $19 #
body $-1 $20 $-1 $21 #
body $-1 $22 $-1 $23 #
body $-1 $24 $-1 $25 #
body $-1 $26 $-1 $27 #
body $-1 $28 $-1 $29 #
body $-1 $30 $-1 $31 #
body $-1 $32 $-1 $33 #
body $-1 $34 $-1 $35 #
lump $-1 $-1 $36 $0 #
transform $-1 1 0 0 0 1 0 0 0 1 66.073793755912959 31.893959584311911 8.320053338260486 1 rotate no_reflect no_shear #
lump $-1 $-1 $37 $1 #
transform $-1 1 0 0 0 1 0 0 0 1 66.073793755912959 31.893959584311911 8.320053338260486 1 rotate no_reflect no_shear #
lump $-1 $-1 $38 $2 #
transform $-1 1 0 0 0 1 0 0 0 1 66.073793755912959 31.893959584311911 8.320053338260486 1 rotate no_reflect no_shear #
lump $-1 $-1 $39 $3 #
transform $-1 1 0 0 0 1 0 0 0 1 66.073793755912959 31.893959584311911 8.320053338260486 1 rotate no_reflect no_shear #
lump $-1 $-1 $40 $4 #
transform $-1 1 0 0 0 1 0 0 0 1 66.073793755912959 31.893959584311911 8.320053338260486 1 rotate no_reflect no_shear #
lump $-1 $-1 $41 $5 #
transform $-1 1 0 0 0 1 0 0 0 1 66.073793755912959 31.893959584311911 8.320053338260486 1 rotate no_reflect no_shear #
lump $-1 $-1 $42 $6 #
transform $-1 1 0 0 0 1 0 0 0 1 66.073793755912959 31.893959584311911 8.320053338260486 1 rotate no_reflect no_shear #
lump $-1 $-1 $43 $7 #
transform $-1 1 0 0 0 1 0 0 0 1 66.073793755912959 31.893959584311911 8.320053338260486 1 rotate no_reflect no_shear #
lump $-1 $-1 $44 $8 #
transform $-1 1 0 0 0 1 0 0 0 1 66.073793755912959 31.893959584311911 8.320053338260486 1 rotate no_reflect no_shear #
lump $-1 $-1 $45 $9 #
transform $-1 1 0 0 0 1 0 0 0 1 66.073793755912959 31.893959584311911 8.320053338260486 1 rotate no_reflect no_shear #
lump $-1 $-1 $46 $10 #
transform $-1 1 0 0 0 1 0 0 0 1 66.073793755912959 31.893959584311911 8.320053338260486 1 rotate no_reflect no_shear #
lump $-1 $-1 $47 $11 #
transform $-1 1 0 0 0 1 0 0 0 1 66.073793755912959 31.893959584311911 8.320053338260486 1 rotate no_reflect no_shear #
shell $-1 $-1 $-1 $48 $-1 $12 #
shell $-1 $-1 $-1 $49 $-1 $14 #
shell $-1 $-1 $-1 $50 $-1 $16 #
shell $-1 $-1 $-1 $51 $-1 $18 #
shell $-1 $-1 $-1 $52 $-1 $20 #
shell $-1 $-1 $-1 $53 $-1 $22 #
shell $-1 $-1 $-1 $54 $-1 $24 #
shell $-1 $-1 $-1 $55 $-1 $26 #
shell $-1 $-1 $-1 $56 $-1 $28 #
shell $-1 $-1 $-1 $57 $-1 $30 #
shell $-1 $-1 $-1 $58 $-1 $32 #
shell $-1 $-1 $-1 $59 $-1 $34 #
face $-1 $60 $61 $36 $-1 $62 forward single #
face $-1 $63 $64 $37 $-1 $65 forward single #
face $-1 $66 $67 $38 $-1 $68 reversed single #
face $-1 $69 $70 $39 $-1 $71 reversed single #
face $-1 $72 $73 $40 $-1 $74 forward single #
face $-1 $75 $76 $41 $-1 $77 forward single #
face $-1 $78 $79 $42 $-1 $80 reversed single #
face $-1 $81 $82 $43 $-1 $83 forward single #
face $-1 $84 $85 $44 $-1 $86 forward single #
face $-1 $87 $88 $45 $-1 $89 reversed single #
face $-1 $90 $91 $46 $-1 $92 forward single #
face $-1 $93 $94 $47 $-1 $95 forward single #
face $-1 $96 $97 $36 $-1 $98 reversed single #
loop $-1 $-1 $99 $48 #
plane-surface $-1 0 0 8.320053338260486 0 0 1 1 0 0 forward_v I I I I #
face $-1 $100 $101 $37 $-1 $102 reversed single #
loop $-1 $-1 $103 $49 #
plane-surface $-1 0 -31.893959584311911 0 0 1 0 0 0 1 forward_v I I I I #
face $-1 $104 $105 $38 $-1 $106 reversed single #
loop $-1 $-1 $107 $50 #
plane-surface $-1 -50.961370447098652 21.560208055697053 0 0 1 0 0 0 1 forward_v I I I I #
face $-1 $108 $109 $39 $-1 $110 reversed single #
loop $-1 $-1 $111 $51 #
plane-surface $-1 36.838554471992239 -6.8332643703965079 187.86307194314139 0 -1 0 -0.5877852598018023 0 -0.80901698891910034 forward_v I I I I #
face $-1 $112 $113 $40 $-1 $114 forward single #
loop $-1 $115 $116 $52 #
cone-surface $-1 61.447007063921198 -11.907812887435568 4.2062443357102453 -0.5877852598018023 0 -0.80901698891910034 0.80901698891910034 0 -0.5877852598018023 1 I I 0 1 1 forward I I I I #
face $-1 $117 $118 $41 $-1 $119 forward single #
loop $-1 $120 $121 $53 #
cone-surface $-1 61.447007063921198 -8.8630837772121289 4.2062443357102453 -0.5877852598018023 0 -0.80901698891910034 0.80901698891910034 0 -0.5877852598018023 1 I I 0 1 1 forward I I I I #
face $-1 $122 $123 $42 $-1 $124 reversed single #
loop $-1 $-1 $125 $54 #
plane-surface $-1 36.838554471992239 13.270311557554242 187.86307194314139 0 -1 0 -0.5877852598018023 0 -0.80901698891910034 forward_v I I I I #
face $-1 $126 $127 $43 $-1 $128 forward single #
loop $-1 $129 $130 $55 #
cone-surface $-1 61.447007063921198 8.1957630405151782 4.2062443357102453 -0.5877852598018023 0 -0.80901698891910034 0.80901698891910034 0 -0.5877852598018023 1 I I 0 1 1 forward I I I I #
face $-1 $131 $132 $44 $-1 $133 forward single #
loop $-1 $134 $135 $56 #
cone-surface $-1 61.447007063921198 11.240492150738621 4.2062443357102453 -0.5877852598018023 0 -0.80901698891910034 0.80901698891910034 0 -0.5877852598018023 1 I I 0 1 1 forward I I I I #
face $-1 $136 $137 $45 $-1 $138 reversed single #
loop $-1 $-1 $139 $57 #
plane-surface $-1 -179.34638567308144 -10.264520655327546 68.938756043928009 0 1 0 -0.85716730853699208 0 0.51503806187062418 forward_v I I I I #
face $-1 $140 $141 $46 $-1 $142 forward single #
loop $-1 $143 $144 $58 #
cone-surface $-1 -63.33734257889887 -8.1831034261368458 4.2981262320580234 0.85716730853699208 0 -0.51503806187062418 0.51503806187062418 0 0.85716730853699208 1 I I 0 1 1 forward I I I I #
face $-1 $145 $146 $47 $-1 $147 forward single #
loop $-1 $148 $149 $59 #
cone-surface $-1 -63.33734257889887 -5.060977582350791 4.2981262320580234 0.85716730853699208 0 -0.51503806187062418 0.51503806187062418 0 0.85716730853699208 1 I I 0 1 1 forward I I I I #
face $-1 $150 $151 $36 $-1 $152 reversed single #
loop $-1 $-1 $153 $60 #
plane-surface $-1 0 0 -8.320053338260486 0 0 1 1 0 0 forward_v I I I I #
coedge $-1 $154 $155 $156 $157 forward $61 $-1 #
face $-1 $158 $159 $37 $-1 $160 reversed single #
loop $-1 $-1 $161 $63 #
plane-surface $-1 0 0 -8.320053338260486 0 0 1 1 0 0 forward_v I I I I #
coedge $-1 $162 $163 $164 $165 forward $64 $-1 #
face $-1 $166 $167 $38 $-1 $168 reversed single #
loop $-1 $-1 $169 $66 #
plane-surface $-1 -52.489053814805317 26.727083820004484 0 1 0 0 0 0 -1 forward_v I I I I #
coedge $-1 $170 $171 $172 $173 forward $67 $-1 #
face $-1 $174 $175 $39 $-1 $176 reversed single #
loop $-1 $-1 $177 $69 #
plane-surface $-1 -40.835849585827759 -10.38544833232385 80.953428601400674 0.5877852598018023 0 0.80901698891910034 0.80901698891910034 0 -0.5877852598018023 forward_v I I I I #
coedge $-1 $178 $179 $180 $181 reversed $70 $-1 #
face $-1 $-1 $182 $40 $-1 $183 forward single #
loop $-1 $184 $185 $72 #
cone-surface $-1 59.995518121097845 -11.907812887435568 2.2084412360403505 -0.5877852598018023 0 -0.80901698891910034 0.40450849445955017 0 -0.29389262990090115 1 I I -0.70710678118654746 0.70710678118654746 0.5 forward I I I I #
loop $-1 $-1 $186 $52 #
coedge $-1 $116 $116 $187 $188 reversed $73 $-1 #
face $-1 $-1 $189 $41 $-1 $190 forward single #
loop $-1 $191 $192 $75 #
cone-surface $-1 59.995518121097845 -8.8630837772121289 2.2084412360403505 -0.5877852598018023 0 -0.80901698891910034 0.40450849445955017 0 -0.29389262990090115 1 I I -0.70710678118654746 0.70710678118654746 0.5 forward I I I I #
loop $-1 $-1 $193 $53 #
coedge $-1 $121 $121 $194 $195 reversed $76 $-1 #
face $-1 $196 $197 $42 $-1 $198 reversed single #
loop $-1 $-1 $199 $78 #
plane-surface $-1 -40.835849585827759 9.7181275956268998 80.953428601400674 0.5877852598018023 0 0.80901698891910034 0.80901698891910034 0 -0.5877852598018023 forward_v I I I I #
coedge $-1 $200 $201 $202 $203 reversed $79 $-1 #
face $-1 $-1 $204 $43 $-1 $205 forward single #
loop $-1 $206 $207 $81 #
cone-surface $-1 59.995518121097845 8.1957630405151782 2.2084412360403505 -0.5877852598018023 0 -0.80901698891910034 0.40450849445955017 0 -0.29389262990090115 1 I I -0.70710678118654746 0.70710678118654746 0.5 forward I I I I #
loop $-1 $-1 $208 $55 #
coedge $-1 $130 $130 $209 $210 reversed $82 $-1 #
face $-1 $-1 $211 $44 $-1 $212 forward single #
loop $-1 $213 $214 $84 #
cone-surface $-1 59.995518121097845 11.240492150738621 2.2084412360403505 -0.5877852598018023 0 -0.80901698891910034 0.40450849445955017 0 -0.29389262990090115 1 I I -0.70710678118654746 0.70710678118654746 0.5 forward I I I I #
loop $-1 $-1 $215 $56 #
coedge $-1 $135 $135 $216 $217 reversed $85 $-1 #
face $-1 $218 $219 $45 $-1 $220 reversed single #
loop $-1 $-1 $221 $87 #
plane-surface $-1 -66.073793755912988 -6.6220405042438166 0.87771869095848842 -0.85716730853699208 0 0.51503806187062418 0.51503806187062418 0 0.85716730853699208 forward_v I I I I #
coedge $-1 $222 $223 $224 $225 reversed $88 $-1 #
face $-1 $-1 $226 $46 $-1 $227 forward single #
loop $-1 $228 $229 $90 #
cone-surface $-1 -62.40821057216597 -8.1831034261368458 3.7398474185712587 0.85716730853699208 0 -0.51503806187062418 0.25751903093531209 0 0.42858365426849604 1 I I -0.70710678118654746 0.70710678118654746 0.5 forward I I I I #
loop $-1 $-1 $230 $58 #
coedge $-1 $144 $144 $231 $232 reversed $91 $-1 #
face $-1 $-1 $233 $47 $-1 $234 forward single #
loop $-1 $235 $236 $93 #
cone-surface $-1 -62.40821057216597 -5.060977582350791 3.7398474185712587 0.85716730853699208 0 -0.51503806187062418 0.25751903093531209 0 0.42858365426849604 1 I I -0.70710678118654746 0.70710678118654746 0.5 forward I I I I #
loop $-1 $-1 $237 $59 #
coedge $-1 $149 $149 $238 $239 reversed $94 $-1 #
face $-1 $240 $241 $36 $-1 $242 reversed single #
loop $-1 $-1 $243 $96 #
plane-surface $-1 0 -31.893959584311911 0 0 1 0 0 0 1 forward_v I I I I #
coedge $-1 $244 $245 $246 $247 forward $97 $-1 #
coedge $-1 $248 $99 $249 $250 forward $61 $-1 #
coedge $-1 $99 $248 $251 $252 forward $61 $-1 #
coedge $-1 $253 $254 $99 $157 reversed $255 $-1 #
edge $-1 $256 -31.893959584311911 $257 31.893959584311911 $156 $258 forward 7 unknown #
face $-1 $259 $260 $37 $-1 $261 forward single #
loop $-1 $-1 $262 $100 #
plane-surface $-1 66.073793755912959 0 0 -1 0 0 0 0 1 forward_v I I I I #
coedge $-1 $263 $264 $265 $266 forward $101 $-1 #
coedge $-1 $265 $103 $262 $267 reversed $64 $-1 #
coedge $-1 $103 $265 $268 $269 reversed $64 $-1 #
coedge $-1 $270 $271 $103 $165 reversed $260 $-1 #
edge $-1 $272 -66.073793755912959 $273 66.073793755912959 $164 $274 forward 7 unknown #
face $-1 $275 $276 $38 $-1 $277 forward single #
loop $-1 $-1 $278 $104 #
plane-surface $-1 -49.433687079391987 26.727083820004484 0 -1 0 0 0 0 1 forward_v I I I I #
coedge $-1 $279 $280 $281 $282 reversed $105 $-1 #
coedge $-1 $283 $107 $284 $285 reversed $67 $-1 #
coedge $-1 $107 $283 $286 $287 reversed $67 $-1 #
coedge $-1 $280 $279 $107 $173 reversed $105 $-1 #
edge $-1 $288 -8.320053338260486 $289 8.320053338260486 $172 $290 forward 7 unknown #
face $-1 $291 $292 $39 $-1 $293 reversed single #
loop $-1 $-1 $294 $108 #
plane-surface $-1 36.838554471992239 -13.937632294251193 187.86307194314139 0 1 0 0.5877852598018023 0 0.80901698891910034 forward_v I I I I #
coedge $-1 $295 $296 $297 $298 reversed $109 $-1 #
coedge $-1 $179 $111 $299 $300 reversed $70 $-1 #
coedge $-1 $111 $178 $295 $301 reversed $70 $-1 #
coedge $-1 $297 $302 $111 $181 forward $303 $-1 #
edge $-1 $304 -47.654516519916839 $305 -40.716135761778176 $180 $306 forward 7 unknown #
loop $-1 $-1 $187 $112 #
plane-surface $-1 -40.835849585827759 -10.38544833232385 80.953428601400674 0.5877852598018023 0 0.80901698891910034 0.80901698891910034 0 -0.5877852598018023 forward_v I I I I #
loop $-1 $-1 $307 $72 #
coedge $-1 $185 $185 $186 $308 reversed $113 $-1 #
coedge $-1 $186 $186 $185 $308 forward $115 $-1 #
coedge $-1 $187 $187 $116 $188 forward $182 $-1 #
edge $-1 $309 0 $309 6.2831853071796004 $187 $310 forward 7 unknown #
loop $-1 $-1 $194 $117 #
plane-surface $-1 -40.835849585827759 -10.38544833232385 80.953428601400674 0.5877852598018023 0 0.80901698891910034 0.80901698891910034 0 -0.5877852598018023 forward_v I I I I #
loop $-1 $-1 $311 $75 #
coedge $-1 $192 $192 $193 $312 reversed $118 $-1 #
coedge $-1 $193 $193 $192 $312 forward $120 $-1 #
coedge $-1 $194 $194 $121 $195 forward $189 $-1 #
edge $-1 $313 0 $313 6.2831853071796004 $194 $314 forward 7 unknown #
face $-1 $315 $316 $42 $-1 $317 reversed single #
loop $-1 $-1 $318 $122 #
plane-surface $-1 36.838554471992239 6.1659436336995572 187.86307194314139 0 1 0 0.5877852598018023 0 0.80901698891910034 forward_v I I I I #
coedge $-1 $319 $320 $321 $322 reversed $123 $-1 #
coedge $-1 $201 $125 $323 $324 reversed $79 $-1 #
coedge $-1 $125 $200 $319 $325 reversed $79 $-1 #
coedge $-1 $321 $326 $125 $203 forward $327 $-1 #
edge $-1 $328 -47.654516519916839 $329 -40.716135761778176 $202 $330 forward 7 unknown #
loop $-1 $-1 $209 $126 #
plane-surface $-1 -40.835849585827759 9.7181275956268998 80.953428601400674 0.5877852598018023 0 0.80901698891910034 0.80901698891910034 0 -0.5877852598018023 forward_v I I I I #
loop $-1 $-1 $331 $81 #
coedge $-1 $207 $207 $208 $332 reversed $127 $-1 #
coedge $-1 $208 $208 $207 $332 forward $129 $-1 #
coedge $-1 $209 $209 $130 $210 forward $204 $-1 #
edge $-1 $333 0 $333 6.2831853071796004 $209 $334 forward 7 unknown #
loop $-1 $-1 $216 $131 #
plane-surface $-1 -40.835849585827759 9.7181275956268998 80.953428601400674 0.5877852598018023 0 0.80901698891910034 0.80901698891910034 0 -0.5877852598018023 forward_v I I I I #
loop $-1 $-1 $335 $84 #
coedge $-1 $214 $214 $215 $336 reversed $132 $-1 #
coedge $-1 $215 $215 $214 $336 forward $134 $-1 #
coedge $-1 $216 $216 $135 $217 forward $211 $-1 #
edge $-1 $337 0 $337 6.2831853071796004 $216 $338 forward 7 unknown #
face $-1 $339 $340 $45 $-1 $341 forward single #
loop $-1 $-1 $342 $136 #
plane-surface $-1 -179.34638567308144 -2.9795603531600872 68.938756043928009 0 -1 0 0.85716730853699208 0 -0.51503806187062418 forward_v I I I I #
coedge $-1 $343 $344 $345 $346 reversed $137 $-1 #
coedge $-1 $223 $139 $347 $348 reversed $88 $-1 #
coedge $-1 $139 $222 $343 $349 reversed $88 $-1 #
coedge $-1 $345 $350 $139 $225 forward $340 $-1 #
edge $-1 $351 23.599399080627762 $352 28.071204729727093 $224 $353 forward 7 unknown #
loop $-1 $-1 $231 $140 #
plane-surface $-1 -66.073793755912988 -6.6220405042438166 0.87771869095848842 -0.85716730853699208 0 0.51503806187062418 0.51503806187062418 0 0.85716730853699208 forward_v I I I I #
loop $-1 $-1 $354 $90 #
coedge $-1 $229 $229 $230 $355 reversed $141 $-1 #
coedge $-1 $230 $230 $229 $355 forward $143 $-1 #
coedge $-1 $231 $231 $144 $232 forward $226 $-1 #
edge $-1 $356 0 $356 6.2831853071796004 $231 $357 forward 7 unknown #
loop $-1 $-1 $238 $145 #
plane-surface $-1 -66.073793755912988 -6.6220405042438166 0.87771869095848842 -0.85716730853699208 0 0.51503806187062418 0.51503806187062418 0 0.85716730853699208 forward_v I I I I #
loop $-1 $-1 $358 $93 #
coedge $-1 $236 $236 $237 $359 reversed $146 $-1 #
coedge $-1 $237 $237 $236 $359 forward $148 $-1 #
coedge $-1 $238 $238 $149 $239 forward $233 $-1 #
edge $-1 $360 0 $360 6.2831853071796004 $238 $361 forward 7 unknown #
face $-1 $362 $363 $36 $-1 $364 reversed single #
loop $-1 $-1 $365 $150 #
plane-surface $-1 -66.073793755912959 0 0 1 0 0 0 0 -1 forward_v I I I I #
coedge $-1 $366 $251 $367 $368 forward $151 $-1 #
coedge $-1 $369 $153 $366 $370 forward $97 $-1 #
coedge $-1 $153 $369 $371 $372 forward $97 $-1 #
coedge $-1 $254 $253 $153 $247 reversed $255 $-1 #
edge $-1 $373 -31.893959584311911 $374 31.893959584311911 $246 $375 forward 7 unknown #
coedge $-1 $155 $154 $376 $377 forward $61 $-1 #
coedge $-1 $378 $379 $154 $250 reversed $363 $-1 #
edge $-1 $257 -66.073793755912959 $380 66.073793755912959 $249 $381 forward 7 unknown #
coedge $-1 $243 $382 $155 $252 reversed $151 $-1 #
edge $-1 $383 -66.073793755912959 $256 66.073793755912959 $251 $384 forward 7 unknown #
coedge $-1 $246 $156 $382 $385 forward $255 $-1 #
coedge $-1 $156 $246 $378 $386 reversed $255 $-1 #
loop $-1 $-1 $253 $362 #
vertex $-1 $157 $387 #
vertex $-1 $157 $388 #
straight-curve $-1 66.073793755912959 0 8.320053338260486 0 1 0 I I #
face $-1 $389 $390 $37 $-1 $391 reversed single #
loop $-1 $-1 $271 $158 #
plane-surface $-1 0 -36.727174980270867 -5.320053338260486 0 0 1 1 0 0 forward_v I I I I #
coedge $-1 $392 $393 $162 $267 forward $159 $-1 #
coedge $-1 $394 $161 $393 $395 forward $101 $-1 #
coedge $-1 $161 $394 $396 $397 forward $101 $-1 #
coedge $-1 $163 $162 $161 $266 reversed $64 $-1 #
edge $-1 $398 -66.073793755912959 $399 66.073793755912959 $161 $400 forward 7 unknown #
edge $-1 $399 -8.320053338260486 $273 -5.320053338260486 $262 $401 forward 7 unknown #
coedge $-1 $396 $402 $163 $269 forward $403 $-1 #
edge $-1 $272 5.320053338260486 $398 8.320053338260486 $268 $404 forward 7 unknown #
coedge $-1 $405 $164 $402 $406 forward $260 $-1 #
coedge $-1 $164 $405 $392 $407 forward $260 $-1 #
vertex $-1 $269 $408 #
vertex $-1 $407 $409 #
straight-curve $-1 0 -31.893959584311911 -5.320053338260486 1 0 0 I I #
face $-1 $410 $411 $38 $-1 $412 reversed single #
loop $-1 $-1 $413 $166 #
plane-surface $-1 0 0 8.320053338260486 0 0 1 1 0 0 forward_v I I I I #
coedge $-1 $414 $415 $283 $416 forward $167 $-1 #
coedge $-1 $172 $169 $417 $418 reversed $105 $-1 #
coedge $-1 $169 $172 $413 $419 reversed $105 $-1 #
coedge $-1 $420 $421 $169 $282 forward $422 $-1 #
edge $-1 $423 -8.320053338260486 $424 8.320053338260486 $281 $425 forward 7 unknown #
coedge $-1 $171 $170 $278 $416 reversed $67 $-1 #
coedge $-1 $417 $426 $170 $285 forward $411 $-1 #
edge $-1 $427 23.953001855842661 $289 27.008368591255991 $284 $428 forward 7 unknown #
coedge $-1 $429 $413 $171 $287 forward $276 $-1 #
edge $-1 $288 -27.008368591255991 $430 -23.953001855842661 $286 $431 forward 7 unknown #
vertex $-1 $287 $432 #
vertex $-1 $285 $433 #
straight-curve $-1 -52.489053814805317 21.560208055697053 0 0 0 -1 I I #
face $-1 $-1 $303 $39 $-1 $434 forward single #
loop $-1 $-1 $435 $174 #
plane-surface $-1 66.073793755912959 0 0 -1 0 0 0 0 1 forward_v I I I I #
coedge $-1 $436 $437 $438 $439 reversed $175 $-1 #
coedge $-1 $440 $177 $179 $301 forward $109 $-1 #
coedge $-1 $177 $440 $436 $441 forward $109 $-1 #
coedge $-1 $438 $180 $177 $298 forward $303 $-1 #
edge $-1 $305 1.6405402042345827 $442 8.7449081280892678 $297 $443 forward 7 unknown #
coedge $-1 $444 $445 $178 $300 forward $292 $-1 #
edge $-1 $446 -90.652511427990021 $304 -85.611482633310203 $299 $447 forward 7 unknown #
edge $-1 $305 123.5712771831531 $446 132.14758751182592 $179 $448 forward 7 unknown #
coedge $-1 $180 $438 $444 $449 forward $303 $-1 #
loop $-1 $-1 $438 $291 #
vertex $-1 $300 $450 #
vertex $-1 $181 $451 #
straight-curve $-1 18.41927723599612 -6.8332643703965079 8.3200533382604931 -1 0 0 I I #
coedge $-1 $307 $307 $-1 $452 reversed $184 $-1 #
edge $-1 $453 0 $453 6.2831853071796004 $185 $454 forward 7 unknown #
vertex $-1 $188 $455 #
ellipse-curve $-1 62.604603376843635 -11.907812887435568 5.7995389409205735 0.5877852598018023 0 0.80901698891910034 0.80901698891910034 0 -0.5877852598018023 1 I I #
coedge $-1 $311 $311 $-1 $456 reversed $191 $-1 #
edge $-1 $457 0 $457 6.2831853071796004 $192 $458 forward 7 unknown #
vertex $-1 $195 $459 #
ellipse-curve $-1 62.604603376843635 -8.8630837772121289 5.7995389409205735 0.5877852598018023 0 0.80901698891910034 0.80901698891910034 0 -0.5877852598018023 1 I I #
face $-1 $-1 $327 $42 $-1 $460 forward single #
loop $-1 $-1 $461 $196 #
plane-surface $-1 66.073793755912959 0 0 -1 0 0 0 0 1 forward_v I I I I #
coedge $-1 $462 $463 $464 $465 reversed $197 $-1 #
coedge $-1 $466 $199 $201 $325 forward $123 $-1 #
coedge $-1 $199 $466 $462 $467 forward $123 $-1 #
coedge $-1 $464 $202 $199 $322 forward $327 $-1 #
edge $-1 $329 -8.4112477597407924 $468 -1.3068798358861073 $321 $469 forward 7 unknown #
coedge $-1 $470 $471 $200 $324 forward $316 $-1 #
edge $-1 $472 -90.652511427990021 $328 -85.611482633310203 $323 $473 forward 7 unknown #
edge $-1 $329 123.5712771831531 $472 132.14758751182592 $201 $474 forward 7 unknown #
coedge $-1 $202 $464 $470 $475 forward $327 $-1 #
loop $-1 $-1 $464 $315 #
vertex $-1 $324 $476 #
vertex $-1 $203 $477 #
straight-curve $-1 18.41927723599612 13.270311557554242 8.3200533382604931 -1 0 0 I I #
coedge $-1 $331 $331 $-1 $478 reversed $206 $-1 #
edge $-1 $479 0 $479 6.2831853071796004 $207 $480 forward 7 unknown #
vertex $-1 $210 $481 #
ellipse-curve $-1 62.604603376843635 8.1957630405151782 5.7995389409205735 0.5877852598018023 0 0.80901698891910034 0.80901698891910034 0 -0.5877852598018023 1 I I #
coedge $-1 $335 $335 $-1 $482 reversed $213 $-1 #
edge $-1 $483 0 $483 6.2831853071796004 $214 $484 forward 7 unknown #
vertex $-1 $217 $485 #
ellipse-curve $-1 62.604603376843635 11.240492150738621 5.7995389409205735 0.5877852598018023 0 0.80901698891910034 0.80901698891910034 0 -0.5877852598018023 1 I I #
face $-1 $-1 $486 $45 $-1 $487 reversed single #
loop $-1 $-1 $224 $218 #
plane-surface $-1 0 0 8.320053338260486 0 0 1 1 0 0 forward_v I I I I #
coedge $-1 $488 $489 $490 $491 reversed $219 $-1 #
coedge $-1 $492 $221 $223 $349 forward $137 $-1 #
coedge $-1 $221 $492 $488 $493 forward $137 $-1 #
coedge $-1 $490 $224 $221 $346 forward $340 $-1 #
edge $-1 $352 -6.9535004032056378 $494 0.33145989896182115 $345 $495 forward 7 unknown #
coedge $-1 $496 $497 $222 $348 forward $486 $-1 #
edge $-1 $498 -33.591659331005467 $351 -26.149324683703519 $347 $499 forward 7 unknown #
edge $-1 $352 -8.682476073433703 $498 -5.5178419308758838e-014 $223 $500 forward 7 unknown #
coedge $-1 $224 $490 $496 $501 forward $340 $-1 #
vertex $-1 $348 $502 #
vertex $-1 $225 $503 #
straight-curve $-1 -89.673192836540721 -10.264520655327546 8.320053338260486 1 0 0 I I #
coedge $-1 $354 $354 $-1 $504 reversed $228 $-1 #
edge $-1 $505 0 $505 6.2831853071796004 $229 $506 forward 7 unknown #
vertex $-1 $232 $507 #
ellipse-curve $-1 -63.837890931363305 -8.1831034261368458 4.5988860146094943 -0.85716730853699208 0 0.51503806187062418 0.51503806187062418 0 0.85716730853699208 1 I I #
coedge $-1 $358 $358 $-1 $508 reversed $235 $-1 #
edge $-1 $509 0 $509 6.2831853071796004 $236 $510 forward 7 unknown #
vertex $-1 $239 $511 #
ellipse-curve $-1 -63.837890931363305 -5.060977582350791 4.5988860146094943 -0.85716730853699208 0 0.51503806187062418 0.51503806187062418 0 0.85716730853699208 1 I I #
face $-1 $-1 $255 $36 $-1 $512 reversed single #
loop $-1 $-1 $378 $240 #
plane-surface $-1 0 31.893959584311911 0 0 -1 0 0 0 -1 forward_v I I I I #
coedge $-1 $513 $376 $379 $514 forward $241 $-1 #
coedge $-1 $382 $243 $244 $370 reversed $151 $-1 #
coedge $-1 $376 $513 $243 $368 reversed $241 $-1 #
edge $-1 $383 -8.320053338260486 $515 8.320053338260486 $367 $516 forward 7 unknown #
coedge $-1 $245 $244 $513 $517 forward $97 $-1 #
edge $-1 $374 -66.073793755912959 $515 66.073793755912959 $366 $518 forward 7 unknown #
coedge $-1 $379 $378 $245 $372 reversed $363 $-1 #
edge $-1 $519 -66.073793755912959 $373 66.073793755912959 $371 $520 forward 7 unknown #
vertex $-1 $247 $521 #
vertex $-1 $385 $522 #
straight-curve $-1 66.073793755912959 0 -8.320053338260486 0 -1 0 I I #
coedge $-1 $365 $367 $248 $377 reversed $241 $-1 #
edge $-1 $380 -31.893959584311911 $383 31.893959584311911 $376 $523 forward 7 unknown #
coedge $-1 $371 $249 $254 $386 forward $363 $-1 #
coedge $-1 $249 $371 $365 $514 reversed $363 $-1 #
vertex $-1 $250 $524 #
straight-curve $-1 0 31.893959584311911 8.320053338260486 -1 0 0 I I #
coedge $-1 $251 $366 $253 $385 reversed $151 $-1 #
vertex $-1 $377 $525 #
straight-curve $-1 0 -31.893959584311911 8.320053338260486 1 0 0 I I #
edge $-1 $256 -8.320053338260486 $374 8.320053338260486 $253 $526 forward 7 unknown #
edge $-1 $257 -8.320053338260486 $373 8.320053338260486 $254 $527 forward 7 unknown #
point $-1 66.073793755912959 -31.893959584311911 8.320053338260486 #
point $-1 66.073793755912959 31.893959584311911 8.320053338260486 #
face $-1 $-1 $403 $37 $-1 $528 reversed single #
loop $-1 $-1 $529 $259 #
plane-surface $-1 0 -41.560390376229819 -6.820053338260486 0 1 0 0 0 1 forward_v I I I I #
coedge $-1 $530 $262 $271 $407 reversed $159 $-1 #
coedge $-1 $262 $530 $263 $395 reversed $159 $-1 #
coedge $-1 $264 $263 $531 $532 forward $101 $-1 #
edge $-1 $399 31.893959584311911 $533 41.560390376229819 $393 $534 forward 7 unknown #
coedge $-1 $535 $268 $264 $397 reversed $403 $-1 #
edge $-1 $536 -41.560390376229819 $398 -31.893959584311911 $396 $537 forward 7 unknown #
vertex $-1 $269 $538 #
vertex $-1 $395 $539 #
straight-curve $-1 0 -31.893959584311911 -8.320053338260486 1 0 0 I I #
straight-curve $-1 66.073793755912959 -31.893959584311911 0 0 0 1 I I #
coedge $-1 $268 $535 $270 $406 reversed $403 $-1 #
loop $-1 $-1 $268 $389 #
straight-curve $-1 -66.073793755912959 -31.893959584311911 0 0 0 -1 I I #
coedge $-1 $271 $270 $540 $541 forward $260 $-1 #
edge $-1 $272 -4.8332153959589519 $542 4.8332153959589519 $402 $543 forward 7 unknown #
edge $-1 $544 -4.8332153959589519 $273 4.8332153959589519 $392 $545 forward 7 unknown #
point $-1 -66.073793755912959 -31.893959584311915 -5.320053338260486 #
point $-1 66.073793755912959 -31.893959584311915 -5.320053338260486 #
face $-1 $-1 $422 $38 $-1 $546 reversed single #
loop $-1 $-1 $417 $275 #
plane-surface $-1 0 0 -8.320053338260486 0 0 1 1 0 0 forward_v I I I I #
coedge $-1 $286 $547 $280 $419 forward $276 $-1 #
coedge $-1 $548 $278 $426 $549 reversed $167 $-1 #
coedge $-1 $278 $548 $429 $550 reversed $167 $-1 #
edge $-1 $430 -8.320053338260486 $427 8.320053338260486 $278 $551 forward 7 unknown #
coedge $-1 $552 $284 $279 $418 forward $411 $-1 #
edge $-1 $289 8.1966661456948113 $423 18.530417674309675 $417 $553 forward 7 unknown #
edge $-1 $424 -18.530417674309675 $288 -8.1966661456948113 $413 $554 forward 7 unknown #
coedge $-1 $555 $281 $547 $556 reversed $422 $-1 #
coedge $-1 $281 $555 $552 $557 reversed $422 $-1 #
loop $-1 $-1 $281 $410 #
vertex $-1 $557 $558 #
vertex $-1 $282 $559 #
straight-curve $-1 -52.489053814805317 31.893959584311911 0 0 0 1 I I #
coedge $-1 $284 $552 $414 $549 forward $411 $-1 #
vertex $-1 $285 $560 #
straight-curve $-1 -25.480685223549326 21.560208055697053 -8.320053338260486 -1 0 0 I I #
coedge $-1 $547 $286 $415 $550 forward $276 $-1 #
vertex $-1 $287 $561 #
straight-curve $-1 -25.480685223549326 21.560208055697053 8.320053338260486 1 0 0 I I #
point $-1 -52.489053814805317 21.560208055697053 8.320053338260486 #
point $-1 -52.489053814805317 21.560208055697053 -8.320053338260486 #
plane-surface $-1 0 0 8.320053338260486 0 0 1 1 0 0 forward_v I I I I #
coedge $-1 $445 $444 $437 $562 forward $292 $-1 #
coedge $-1 $437 $294 $296 $441 reversed $175 $-1 #
coedge $-1 $294 $436 $435 $562 reversed $175 $-1 #
coedge $-1 $302 $297 $294 $439 forward $303 $-1 #
edge $-1 $442 40.716135761778176 $563 47.654516519916839 $438 $564 forward 7 unknown #
coedge $-1 $296 $295 $445 $565 reversed $109 $-1 #
edge $-1 $566 -132.14758751182592 $442 -123.5712771831531 $436 $567 forward 7 unknown #
vertex $-1 $298 $568 #
straight-curve $-1 59.135412997774317 -5.1927241661619252 8.3200533382604931 0 -1 0 I I #
coedge $-1 $435 $299 $302 $449 reversed $292 $-1 #
coedge $-1 $299 $435 $440 $565 forward $292 $-1 #
vertex $-1 $300 $569 #
straight-curve $-1 66.073793755912959 -6.8332643703965079 93.931535971570696 0 0 1 I I #
straight-curve $-1 -40.835849585827759 -6.8332643703965079 80.953428601400674 0.80901698891910034 0 -0.5877852598018023 I I #
edge $-1 $563 -13.937632294251193 $304 -6.8332643703965079 $444 $570 forward 7 unknown #
point $-1 66.073793755912959 -6.8332643703965079 8.320053338260486 #
point $-1 59.135412997774296 -6.8332643703965079 8.3200533382604931 #
edge $-1 $571 1 $571 0 $307 $-1 forward 7 unknown #
vertex $-1 $308 $572 #
ellipse-curve $-1 60.289410750998748 -11.907812887435568 2.6129497304999005 0.5877852598018023 0 0.80901698891910034 0.80901698891910034 0 -0.5877852598018023 1 I I #
point $-1 63.413620365762746 -11.907812887435568 5.2117536811187879 #
edge $-1 $573 1 $573 0 $311 $-1 forward 7 unknown #
vertex $-1 $312 $574 #
ellipse-curve $-1 60.289410750998748 -8.8630837772121289 2.6129497304999005 0.5877852598018023 0 0.80901698891910034 0.80901698891910034 0 -0.5877852598018023 1 I I #
point $-1 63.413620365762746 -8.8630837772121289 5.2117536811187879 #
plane-surface $-1 0 0 8.320053338260486 0 0 1 1 0 0 forward_v I I I I #
coedge $-1 $471 $470 $463 $575 forward $316 $-1 #
coedge $-1 $463 $318 $320 $467 reversed $197 $-1 #
coedge $-1 $318 $462 $461 $575 reversed $197 $-1 #
coedge $-1 $326 $321 $318 $465 forward $327 $-1 #
edge $-1 $468 40.716135761778176 $576 47.654516519916839 $464 $577 forward 7 unknown #
coedge $-1 $320 $319 $471 $578 reversed $123 $-1 #
edge $-1 $579 -132.14758751182592 $468 -123.5712771831531 $462 $580 forward 7 unknown #
vertex $-1 $322 $581 #
straight-curve $-1 59.135412997774317 4.8590637978134499 8.3200533382604931 0 -1 0 I I #
coedge $-1 $461 $323 $326 $475 reversed $316 $-1 #
coedge $-1 $323 $461 $466 $578 forward $316 $-1 #
vertex $-1 $324 $582 #
straight-curve $-1 66.073793755912959 13.270311557554242 93.931535971570696 0 0 1 I I #
straight-curve $-1 -40.835849585827759 13.270311557554242 80.953428601400674 0.80901698891910034 0 -0.5877852598018023 I I #
edge $-1 $576 6.1659436336995572 $328 13.270311557554242 $470 $583 forward 7 unknown #
point $-1 66.073793755912959 13.270311557554242 8.320053338260486 #
point $-1 59.135412997774296 13.270311557554242 8.3200533382604931 #
edge $-1 $584 1 $584 0 $331 $-1 forward 7 unknown #
vertex $-1 $332 $585 #
ellipse-curve $-1 60.289410750998748 8.1957630405151782 2.6129497304999005 0.5877852598018023 0 0.80901698891910034 0.80901698891910034 0 -0.5877852598018023 1 I I #
point $-1 63.413620365762746 8.1957630405151782 5.2117536811187879 #
edge $-1 $586 1 $586 0 $335 $-1 forward 7 unknown #
vertex $-1 $336 $587 #
ellipse-curve $-1 60.289410750998748 11.240492150738621 2.6129497304999005 0.5877852598018023 0 0.80901698891910034 0.80901698891910034 0 -0.5877852598018023 1 I I #
point $-1 63.413620365762746 11.240492150738621 5.2117536811187879 #
loop $-1 $-1 $347 $339 #
plane-surface $-1 -66.073793755912959 0 0 1 0 0 0 0 -1 forward_v I I I I #
coedge $-1 $489 $342 $344 $493 reversed $219 $-1 #
coedge $-1 $342 $488 $588 $589 reversed $219 $-1 #
coedge $-1 $350 $345 $342 $491 forward $340 $-1 #
edge $-1 $494 -28.071204729727093 $590 -23.599399080627762 $490 $591 forward 7 unknown #
coedge $-1 $344 $343 $497 $592 reversed $137 $-1 #
edge $-1 $593 5.5178419308758838e-014 $494 8.682476073433703 $488 $594 forward 7 unknown #
vertex $-1 $346 $595 #
straight-curve $-1 -61.601988106813621 -3.3110202521219083 8.3200533382604878 0 1 0 I I #
coedge $-1 $588 $347 $350 $501 reversed $486 $-1 #
coedge $-1 $347 $588 $492 $592 forward $486 $-1 #
vertex $-1 $348 $596 #
straight-curve $-1 -66.073793755912959 -10.264520655327546 34.469378021964005 0 0 1 I I #
straight-curve $-1 -66.073793755912988 -10.264520655327546 0.87771869095848842 -0.51503806187062418 0 -0.85716730853699208 I I #
edge $-1 $590 2.9795603531600872 $351 10.264520655327546 $496 $597 forward 7 unknown #
point $-1 -66.073793755912959 -10.264520655327546 8.320053338260486 #
point $-1 -61.601988106813629 -10.264520655327546 8.320053338260486 #
edge $-1 $598 1 $598 0 $354 $-1 forward 7 unknown #
vertex $-1 $355 $599 #
ellipse-curve $-1 -62.836794226434463 -8.1831034261368458 3.9973664495065706 -0.85716730853699208 0 0.51503806187062418 0.51503806187062418 0 0.85716730853699208 1 I I #
point $-1 -63.32285286949265 -8.1831034261368458 5.4560533231464685 #
edge $-1 $600 1 $600 0 $358 $-1 forward 7 unknown #
vertex $-1 $359 $601 #
ellipse-curve $-1 -62.836794226434463 -5.060977582350791 3.9973664495065706 -0.85716730853699208 0 0.51503806187062418 0.51503806187062418 0 0.85716730853699208 1 I I #
point $-1 -63.32285286949265 -5.060977582350791 5.4560533231464685 #
plane-surface $-1 66.073793755912959 0 0 -1 0 0 0 0 1 forward_v I I I I #
coedge $-1 $367 $365 $369 $517 reversed $241 $-1 #
edge $-1 $380 -8.320053338260486 $519 8.320053338260486 $379 $602 forward 7 unknown #
vertex $-1 $517 $603 #
straight-curve $-1 -66.073793755912959 -31.893959584311911 0 0 0 -1 I I #
edge $-1 $515 -31.893959584311911 $519 31.893959584311911 $513 $604 forward 7 unknown #
straight-curve $-1 0 -31.893959584311911 -8.320053338260486 -1 0 0 I I #
vertex $-1 $372 $605 #
straight-curve $-1 0 31.893959584311911 -8.320053338260486 1 0 0 I I #
point $-1 66.073793755912959 31.893959584311911 -8.320053338260486 #
point $-1 66.073793755912959 -31.893959584311911 -8.320053338260486 #
straight-curve $-1 -66.073793755912959 0 8.320053338260486 0 -1 0 I I #
point $-1 -66.073793755912959 31.893959584311911 8.320053338260486 #
point $-1 -66.073793755912959 -31.893959584311911 8.320053338260486 #
straight-curve $-1 66.073793755912959 -31.893959584311911 0 0 0 -1 I I #
straight-curve $-1 66.073793755912959 31.893959584311911 0 0 0 -1 I I #
plane-surface $-1 -66.073793755912959 0 0 1 0 0 0 0 -1 forward_v I I I I #
coedge $-1 $531 $540 $535 $606 forward $390 $-1 #
coedge $-1 $393 $392 $607 $608 forward $159 $-1 #
coedge $-1 $607 $529 $394 $532 reversed $390 $-1 #
edge $-1 $533 -66.073793755912959 $536 66.073793755912959 $531 $609 forward 7 unknown #
vertex $-1 $608 $610 #
straight-curve $-1 66.073793755912959 0 -8.320053338260486 0 -1 0 I I #
coedge $-1 $402 $396 $529 $606 reversed $403 $-1 #
vertex $-1 $397 $611 #
straight-curve $-1 -66.073793755912959 0 -8.320053338260486 0 1 0 I I #
point $-1 -66.073793755912959 -31.893959584311911 -8.320053338260486 #
point $-1 66.073793755912959 -31.893959584311911 -8.320053338260486 #
coedge $-1 $529 $607 $405 $541 reversed $390 $-1 #
edge $-1 $542 -66.073793755912959 $544 66.073793755912959 $540 $612 forward 7 unknown #
vertex $-1 $406 $613 #
straight-curve $-1 -66.073793755912959 -36.727174980270867 -5.320053338260486 0 -1 0 I I #
vertex $-1 $407 $614 #
straight-curve $-1 66.073793755912959 -36.727174980270867 -5.320053338260486 0 1 0 I I #
plane-surface $-1 0 31.893959584311911 0 0 -1 0 0 0 -1 forward_v I I I I #
coedge $-1 $413 $429 $420 $556 forward $276 $-1 #
coedge $-1 $415 $414 $555 $615 reversed $167 $-1 #
edge $-1 $616 -18.530417674309675 $427 -8.1966661456948113 $426 $617 forward 7 unknown #
edge $-1 $430 8.1966661456948113 $618 18.530417674309675 $429 $619 forward 7 unknown #
straight-curve $-1 -49.433687079391987 21.560208055697053 0 0 0 -1 I I #
coedge $-1 $426 $417 $421 $557 forward $411 $-1 #
straight-curve $-1 -52.489053814805317 13.363541910002242 -8.320053338260486 0 1 0 I I #
straight-curve $-1 -52.489053814805317 13.363541910002242 8.320053338260486 0 -1 0 I I #
coedge $-1 $421 $420 $548 $615 forward $422 $-1 #
edge $-1 $618 49.433687079391987 $424 52.489053814805317 $420 $620 forward 7 unknown #
edge $-1 $423 -52.489053814805317 $616 -49.433687079391987 $421 $621 forward 7 unknown #
point $-1 -52.489053814805317 31.893959584311915 -8.320053338260486 #
point $-1 -52.489053814805317 31.893959584311915 8.320053338260486 #
point $-1 -49.433687079391987 21.560208055697053 -8.320053338260486 #
point $-1 -49.433687079391987 21.560208055697053 8.320053338260486 #
edge $-1 $563 85.611482633310203 $566 90.652511427990021 $435 $622 forward 7 unknown #
vertex $-1 $449 $623 #
straight-curve $-1 18.41927723599612 -13.937632294251193 8.3200533382604931 1 0 0 I I #
edge $-1 $566 -8.7449081280892678 $446 -1.6405402042345827 $445 $624 forward 7 unknown #
vertex $-1 $565 $625 #
straight-curve $-1 -40.835849585827759 -13.937632294251193 80.953428601400674 -0.80901698891910034 0 0.5877852598018023 I I #
point $-1 59.135412997774296 -13.937632294251193 8.3200533382604931 #
point $-1 66.073793755912959 -6.8332643703965079 3.2790245435806753 #
straight-curve $-1 66.073793755912959 0 8.320053338260486 0 1 0 I I #
vertex $-1 $452 $626 #
point $-1 61.098427739917845 -11.907812887435568 2.0251644706980985 #
vertex $-1 $456 $627 #
point $-1 61.098427739917845 -8.8630837772121289 2.0251644706980985 #
edge $-1 $576 85.611482633310203 $579 90.652511427990021 $461 $628 forward 7 unknown #
vertex $-1 $475 $629 #
straight-curve $-1 18.41927723599612 6.1659436336995572 8.3200533382604931 1 0 0 I I #
edge $-1 $579 1.3068798358861073 $472 8.4112477597407924 $471 $630 forward 7 unknown #
vertex $-1 $578 $631 #
straight-curve $-1 -40.835849585827759 6.1659436336995572 80.953428601400674 -0.80901698891910034 0 0.5877852598018023 I I #
point $-1 59.135412997774296 6.1659436336995572 8.3200533382604931 #
point $-1 66.073793755912959 13.270311557554242 3.2790245435806753 #
straight-curve $-1 66.073793755912959 0 8.320053338260486 0 1 0 I I #
vertex $-1 $478 $632 #
point $-1 61.098427739917845 8.1957630405151782 2.0251644706980985 #
vertex $-1 $482 $633 #
point $-1 61.098427739917845 11.240492150738621 2.0251644706980985 #
coedge $-1 $497 $496 $489 $589 forward $486 $-1 #
edge $-1 $590 26.149324683703519 $593 33.591659331005467 $588 $634 forward 7 unknown #
vertex $-1 $501 $635 #
straight-curve $-1 -89.673192836540721 -2.9795603531600872 8.320053338260486 -1 0 0 I I #
edge $-1 $593 -0.33145989896182115 $498 6.9535004032056378 $497 $636 forward 7 unknown #
vertex $-1 $592 $637 #
straight-curve $-1 -66.073793755912988 -2.9795603531600872 0.87771869095848842 0.51503806187062418 0 0.85716730853699208 I I #
point $-1 -61.601988106813629 -2.9795603531600872 8.320053338260486 #
point $-1 -66.073793755912959 -10.264520655327546 0.87771869095853572 #
straight-curve $-1 -66.073793755912959 0 8.320053338260486 0 -1 0 I I #
vertex $-1 $504 $638 #
point $-1 -62.321756164563844 -8.1831034261368458 4.854533758043563 #
vertex $-1 $508 $639 #
point $-1 -62.321756164563844 -5.060977582350791 4.854533758043563 #
straight-curve $-1 -66.073793755912959 31.893959584311911 0 0 0 -1 I I #
point $-1 -66.073793755912959 -31.893959584311911 -8.320053338260486 #
straight-curve $-1 -66.073793755912959 0 -8.320053338260486 0 1 0 I I #
point $-1 -66.073793755912959 31.893959584311911 -8.320053338260486 #
edge $-1 $542 -1.5 $536 1.5 $535 $640 forward 7 unknown #
coedge $-1 $540 $531 $530 $608 reversed $390 $-1 #
edge $-1 $544 -1.5 $533 1.5 $530 $641 forward 7 unknown #
straight-curve $-1 0 -41.560390376229819 -8.320053338260486 -1 0 0 I I #
point $-1 66.073793755912959 -41.560390376229819 -8.320053338260486 #
point $-1 -66.073793755912959 -41.560390376229819 -8.320053338260486 #
straight-curve $-1 0 -41.560390376229819 -5.320053338260486 1 0 0 I I #
point $-1 -66.073793755912959 -41.560390376229819 -5.320053338260486 #
point $-1 66.073793755912959 -41.560390376229819 -5.320053338260486 #
edge $-1 $618 -8.320053338260486 $616 8.320053338260486 $555 $642 forward 7 unknown #
vertex $-1 $615 $643 #
straight-curve $-1 -49.433687079391987 13.363541910002242 -8.320053338260486 0 -1 0 I I #
vertex $-1 $556 $644 #
straight-curve $-1 -49.433687079391987 13.363541910002242 8.320053338260486 0 1 0 I I #
straight-curve $-1 0 31.893959584311911 8.320053338260486 -1 0 0 I I #
straight-curve $-1 0 31.893959584311911 -8.320053338260486 1 0 0 I I #
straight-curve $-1 66.073793755912959 -13.937632294251193 93.931535971570696 0 0 -1 I I #
point $-1 66.073793755912959 -13.937632294251193 8.320053338260486 #
straight-curve $-1 66.073793755912959 -5.1927241661619252 3.2790245435806682 0 1 0 I I #
point $-1 66.073793755912959 -13.937632294251193 3.2790245435806753 #
point $-1 59.701625491196943 -11.907812887435568 1.8039327415808004 #
point $-1 59.701625491196943 -8.8630837772121289 1.8039327415808004 #
straight-curve $-1 66.073793755912959 6.1659436336995572 93.931535971570696 0 0 -1 I I #
point $-1 66.073793755912959 6.1659436336995572 8.320053338260486 #
straight-curve $-1 66.073793755912959 4.8590637978134499 3.2790245435806682 0 1 0 I I #
point $-1 66.073793755912959 6.1659436336995572 3.2790245435806753 #
point $-1 59.701625491196943 8.1957630405151782 1.8039327415808004 #
point $-1 59.701625491196943 11.240492150738621 1.8039327415808004 #
straight-curve $-1 -66.073793755912959 -2.9795603531600872 34.469378021964005 0 0 -1 I I #
point $-1 -66.073793755912959 -2.9795603531600872 8.320053338260486 #
straight-curve $-1 -66.073793755912959 -3.3110202521219083 0.87771869095852573 0 -1 0 I I #
point $-1 -66.073793755912959 -2.9795603531600872 0.87771869095853572 #
point $-1 -61.979626917897477 -8.1831034261368458 3.4823283876359468 #
point $-1 -61.979626917897477 -5.060977582350791 3.4823283876359468 #
straight-curve $-1 -66.073793755912959 -41.560390376229819 -6.820053338260486 0 0 -1 I I #
straight-curve $-1 66.073793755912959 -41.560390376229819 -6.820053338260486 0 0 -1 I I #
straight-curve $-1 -49.433687079391987 31.893959584311911 0 0 0 -1 I I #
point $-1 -49.433687079391987 31.893959584311915 -8.320053338260486 #
point $-1 -49.433687079391987 31.893959584311915 8.320053338260486 #
End-of-ACIS-data 