500 0 12 0           
7 Unknown 11 ACIS 5.0 NT 24 Thu Mar 25 15:39:56 1999 
-1 9.9999999999999995e-007 1e-010 
body $-1 $12 $-1 $13 #
body $-1 $14 $-1 $15 #
body $-1 $16 $-1 $17 #
body $-1 $18 $-1 $19 #
body $-1 $20 $-1 $21 #
body $-1 $22 $-1 $23 #
body $-1 $24 $-1 $25 #
body $-1 $26 $-1 $27 #
body $-1 $28 $-1 $29 #
body $-1 $30 $-1 $31 #
body $-1 $32 $-1 $33 #
body $-1 $34 $-1 $35 #
lump $-1 $-1 $36 $0 #
transform $-1 1 0 0 0 1 0 0 0 1 48.47926267281106 26.781437826834601 6.0663834906562029 1 rotate no_reflect no_shear #
lump $-1 $-1 $37 $1 #
transform $-1 1 0 0 0 1 0 0 0 1 48.47926267281106 26.781437826834601 6.0663834906562029 1 rotate no_reflect no_shear #
lump $-1 $-1 $38 $2 #
transform $-1 1 0 0 0 1 0 0 0 1 48.47926267281106 26.781437826834601 6.0663834906562029 1 rotate no_reflect no_shear #
lump $-1 $-1 $39 $3 #
transform $-1 1 0 0 0 1 0 0 0 1 48.47926267281106 26.781437826834601 6.0663834906562029 1 rotate no_reflect no_shear #
lump $-1 $-1 $40 $4 #
transform $-1 1 0 0 0 1 0 0 0 1 48.47926267281106 26.781437826834601 6.0663834906562029 1 rotate no_reflect no_shear #
lump $-1 $-1 $41 $5 #
transform $-1 1 0 0 0 1 0 0 0 1 48.47926267281106 26.781437826834601 6.0663834906562029 1 rotate no_reflect no_shear #
lump $-1 $-1 $42 $6 #
transform $-1 1 0 0 0 1 0 0 0 1 48.47926267281106 26.781437826834601 6.0663834906562029 1 rotate no_reflect no_shear #
lump $-1 $-1 $43 $7 #
transform $-1 1 0 0 0 1 0 0 0 1 48.47926267281106 26.781437826834601 6.0663834906562029 1 rotate no_reflect no_shear #
lump $-1 $-1 $44 $8 #
transform $-1 1 0 0 0 1 0 0 0 1 48.47926267281106 26.781437826834601 6.0663834906562029 1 rotate no_reflect no_shear #
lump $-1 $-1 $45 $9 #
transform $-1 1 0 0 0 1 0 0 0 1 48.47926267281106 26.781437826834601 6.0663834906562029 1 rotate no_reflect no_shear #
lump $-1 $-1 $46 $10 #
transform $-1 1 0 0 0 1 0 0 0 1 48.47926267281106 26.781437826834601 6.0663834906562029 1 rotate no_reflect no_shear #
lump $-1 $-1 $47 $11 #
transform $-1 1 0 0 0 1 0 0 0 1 48.47926267281106 26.781437826834601 6.0663834906562029 1 rotate no_reflect no_shear #
shell $-1 $-1 $-1 $48 $-1 $12 #
shell $-1 $-1 $-1 $49 $-1 $14 #
shell $-1 $-1 $-1 $50 $-1 $16 #
shell $-1 $-1 $-1 $51 $-1 $18 #
shell $-1 $-1 $-1 $52 $-1 $20 #
shell $-1 $-1 $-1 $53 $-1 $22 #
shell $-1 $-1 $-1 $54 $-1 $24 #
shell $-1 $-1 $-1 $55 $-1 $26 #
shell $-1 $-1 $-1 $56 $-1 $28 #
shell $-1 $-1 $-1 $57 $-1 $30 #
shell $-1 $-1 $-1 $58 $-1 $32 #
shell $-1 $-1 $-1 $59 $-1 $34 #
face $-1 $60 $61 $36 $-1 $62 forward single #
face $-1 $63 $64 $37 $-1 $65 forward single #
face $-1 $66 $67 $38 $-1 $68 reversed single #
face $-1 $69 $70 $39 $-1 $71 forward single #
face $-1 $72 $73 $40 $-1 $74 reversed single #
face $-1 $75 $76 $41 $-1 $77 forward single #
face $-1 $78 $79 $42 $-1 $80 reversed single #
face $-1 $81 $82 $43 $-1 $83 forward single #
face $-1 $84 $85 $44 $-1 $86 reversed single #
face $-1 $87 $88 $45 $-1 $89 forward single #
face $-1 $90 $91 $46 $-1 $92 reversed single #
face $-1 $93 $94 $47 $-1 $95 forward single #
face $-1 $96 $97 $36 $-1 $98 reversed single #
loop $-1 $-1 $99 $48 #
plane-surface $-1 0 0 6.0663834906562029 0 0 1 1 0 0 forward_v I I I I #
face $-1 $100 $101 $37 $-1 $102 forward single #
loop $-1 $-1 $103 $49 #
plane-surface $-1 0 -26.781437826834601 0 0 1 0 0 0 1 forward_v I I I I #
face $-1 $104 $105 $38 $-1 $106 reversed single #
loop $-1 $-1 $107 $50 #
plane-surface $-1 -121.65479143907275 -18.699721390520445 64.47717290805241 0 1 0 -0.75470958851134928 0 0.65605901945558964 forward_v I I I I #
face $-1 $108 $109 $39 $-1 $110 forward single #
loop $-1 $111 $112 $51 #
cone-surface $-1 -45.589570917687034 -15.507254933594778 2.9191607775741595 0.75470958851134928 0 -0.65605901945558964 0.65605901945558964 0 0.75470958851134928 1 I I 0 1 1 forward I I I I #
face $-1 $113 $114 $40 $-1 $115 reversed single #
loop $-1 $-1 $116 $52 #
plane-surface $-1 -121.65479143907275 -6.487761525818744 64.47717290805241 0 1 0 -0.75470958851134928 0 0.65605901945558964 forward_v I I I I #
face $-1 $117 $118 $41 $-1 $119 forward single #
loop $-1 $120 $121 $53 #
cone-surface $-1 -45.589570917687034 -3.2952950688930791 2.9191607775741595 0.75470958851134928 0 -0.65605901945558964 0.65605901945558964 0 0.75470958851134928 1 I I 0 1 1 forward I I I I #
face $-1 $122 $123 $42 $-1 $124 reversed single #
loop $-1 $-1 $125 $54 #
plane-surface $-1 -121.65479143907275 5.7241983388829532 64.47717290805241 0 1 0 -0.75470958851134928 0 0.65605901945558964 forward_v I I I I #
face $-1 $126 $127 $43 $-1 $128 forward single #
loop $-1 $129 $130 $55 #
cone-surface $-1 -45.589570917687034 8.916664795808618 2.9191607775741595 0.75470958851134928 0 -0.65605901945558964 0.65605901945558964 0 0.75470958851134928 1 I I 0 1 1 forward I I I I #
face $-1 $131 $132 $44 $-1 $133 reversed single #
loop $-1 $-1 $134 $56 #
plane-surface $-1 -121.65479143907275 17.93615820358465 64.47717290805241 0 1 0 -0.75470958851134928 0 0.65605901945558964 forward_v I I I I #
face $-1 $135 $136 $45 $-1 $137 forward single #
loop $-1 $138 $139 $57 #
cone-surface $-1 -45.589570917687034 21.128624660510315 2.9191607775741595 0.75470958851134928 0 -0.65605901945558964 0.65605901945558964 0 0.75470958851134928 1 I I 0 1 1 forward I I I I #
face $-1 $140 $141 $46 $-1 $142 reversed single #
loop $-1 $-1 $143 $58 #
plane-surface $-1 41.302954615314832 -5.8725572298498925 137.39986343558323 0 -1 0 -0.66913061440640931 0 -0.74314481823134659 forward_v I I I I #
face $-1 $144 $145 $47 $-1 $146 forward single #
loop $-1 $147 $148 $59 #
cone-surface $-1 43.387939176788855 -12.422186724341337 1.0654282912293538 -0.66913061440640931 0 -0.74314481823134659 1.1147172273470198 0 -1.003695921609614 1 I I 0 1 1.5 forward I I I I #
face $-1 $149 $150 $36 $-1 $151 reversed single #
loop $-1 $-1 $152 $60 #
plane-surface $-1 0 0 -6.0663834906562029 0 0 1 1 0 0 forward_v I I I I #
coedge $-1 $153 $154 $155 $156 forward $61 $-1 #
face $-1 $157 $158 $37 $-1 $159 reversed single #
loop $-1 $-1 $160 $63 #
plane-surface $-1 0 0 6.0663834906562029 0 0 1 1 0 0 forward_v I I I I #
coedge $-1 $161 $162 $163 $164 forward $64 $-1 #
face $-1 $165 $166 $38 $-1 $167 reversed single #
loop $-1 $-1 $168 $66 #
plane-surface $-1 -48.479262672811046 -15.507254933594778 0.86665784194362772 -0.75470958851134928 0 0.65605901945558964 0.65605901945558964 0 0.75470958851134928 forward_v I I I I #
coedge $-1 $169 $170 $171 $172 reversed $67 $-1 #
face $-1 $-1 $173 $39 $-1 $174 forward single #
loop $-1 $175 $176 $69 #
cone-surface $-1 -44.582550583994632 -15.507254933594778 2.0437713791206074 0.75470958851134928 0 -0.65605901945558964 0.32802950972779482 0 0.37735479425567464 1 I I -0.70710678118654746 0.70710678118654746 0.5 forward I I I I #
loop $-1 $-1 $177 $51 #
coedge $-1 $112 $112 $178 $179 reversed $70 $-1 #
face $-1 $180 $181 $40 $-1 $182 reversed single #
loop $-1 $-1 $183 $72 #
plane-surface $-1 -48.479262672811046 -3.2952950688930791 0.86665784194362772 -0.75470958851134928 0 0.65605901945558964 0.65605901945558964 0 0.75470958851134928 forward_v I I I I #
coedge $-1 $184 $185 $186 $187 reversed $73 $-1 #
face $-1 $-1 $188 $41 $-1 $189 forward single #
loop $-1 $190 $191 $75 #
cone-surface $-1 -44.582550583994632 -3.2952950688930791 2.0437713791206074 0.75470958851134928 0 -0.65605901945558964 0.32802950972779482 0 0.37735479425567464 1 I I -0.70710678118654746 0.70710678118654746 0.5 forward I I I I #
loop $-1 $-1 $192 $53 #
coedge $-1 $121 $121 $193 $194 reversed $76 $-1 #
face $-1 $195 $196 $42 $-1 $197 reversed single #
loop $-1 $-1 $198 $78 #
plane-surface $-1 -48.479262672811046 8.916664795808618 0.86665784194362772 -0.75470958851134928 0 0.65605901945558964 0.65605901945558964 0 0.75470958851134928 forward_v I I I I #
coedge $-1 $199 $200 $201 $202 reversed $79 $-1 #
face $-1 $-1 $203 $43 $-1 $204 forward single #
loop $-1 $205 $206 $81 #
cone-surface $-1 -44.582550583994632 8.916664795808618 2.0437713791206074 0.75470958851134928 0 -0.65605901945558964 0.32802950972779482 0 0.37735479425567464 1 I I -0.70710678118654746 0.70710678118654746 0.5 forward I I I I #
loop $-1 $-1 $207 $55 #
coedge $-1 $130 $130 $208 $209 reversed $82 $-1 #
face $-1 $210 $211 $44 $-1 $212 reversed single #
loop $-1 $-1 $213 $84 #
plane-surface $-1 -48.479262672811046 21.128624660510315 0.86665784194362772 -0.75470958851134928 0 0.65605901945558964 0.65605901945558964 0 0.75470958851134928 forward_v I I I I #
coedge $-1 $214 $215 $216 $217 reversed $85 $-1 #
face $-1 $-1 $218 $45 $-1 $219 forward single #
loop $-1 $220 $221 $87 #
cone-surface $-1 -44.582550583994632 21.128624660510315 2.0437713791206074 0.75470958851134928 0 -0.65605901945558964 0.32802950972779482 0 0.37735479425567464 1 I I -0.70710678118654746 0.70710678118654746 0.5 forward I I I I #
loop $-1 $-1 $222 $57 #
coedge $-1 $139 $139 $223 $224 reversed $88 $-1 #
face $-1 $225 $226 $46 $-1 $227 reversed single #
loop $-1 $-1 $228 $90 #
plane-surface $-1 -23.574963021140704 -12.422186724341337 65.345637741631464 0.66913061440640931 0 0.74314481823134659 0.74314481823134659 0 -0.66913061440640931 forward_v I I I I #
coedge $-1 $229 $230 $231 $232 reversed $91 $-1 #
face $-1 $-1 $233 $47 $-1 $234 forward single #
loop $-1 $235 $236 $93 #
cone-surface $-1 40.903740463371705 -12.422186724341337 -1.6935538291308658 -0.66913061440640931 0 -0.74314481823134659 0.55735861367350992 0 -0.50184796080480698 1 I I -0.70710678118654757 0.70710678118654757 0.75 forward I I I I #
loop $-1 $-1 $237 $59 #
coedge $-1 $148 $148 $238 $239 reversed $94 $-1 #
face $-1 $240 $241 $36 $-1 $242 reversed single #
loop $-1 $-1 $243 $96 #
plane-surface $-1 0 -26.781437826834601 0 0 1 0 0 0 1 forward_v I I I I #
coedge $-1 $244 $245 $246 $247 forward $97 $-1 #
coedge $-1 $248 $99 $249 $250 forward $61 $-1 #
coedge $-1 $99 $248 $251 $252 forward $61 $-1 #
coedge $-1 $253 $254 $99 $156 reversed $255 $-1 #
edge $-1 $256 -26.781437826834601 $257 26.781437826834601 $155 $258 forward 7 unknown #
face $-1 $259 $260 $37 $-1 $261 reversed single #
loop $-1 $-1 $262 $100 #
plane-surface $-1 -48.47926267281106 0 0 1 0 0 0 0 -1 forward_v I I I I #
coedge $-1 $263 $264 $265 $266 forward $101 $-1 #
coedge $-1 $265 $103 $262 $267 reversed $64 $-1 #
coedge $-1 $103 $265 $268 $269 reversed $64 $-1 #
coedge $-1 $270 $271 $103 $164 reversed $260 $-1 #
edge $-1 $272 -48.47926267281106 $273 48.47926267281106 $163 $274 forward 7 unknown #
face $-1 $275 $276 $38 $-1 $277 forward single #
loop $-1 $-1 $278 $104 #
plane-surface $-1 -121.65479143907275 -12.314788476669113 64.47717290805241 0 -1 0 0.75470958851134928 0 -0.65605901945558964 forward_v I I I I #
coedge $-1 $279 $280 $281 $282 reversed $105 $-1 #
coedge $-1 $170 $107 $283 $284 reversed $67 $-1 #
coedge $-1 $107 $169 $279 $285 reversed $67 $-1 #
coedge $-1 $281 $286 $107 $172 forward $276 $-1 #
edge $-1 $287 12.348133046725316 $288 16.868185478099939 $171 $289 forward 7 unknown #
loop $-1 $-1 $178 $108 #
plane-surface $-1 -48.479262672811046 -15.507254933594778 0.86665784194362772 -0.75470958851134928 0 0.65605901945558964 0.65605901945558964 0 0.75470958851134928 forward_v I I I I #
loop $-1 $-1 $290 $69 #
coedge $-1 $176 $176 $177 $291 reversed $109 $-1 #
coedge $-1 $177 $177 $176 $291 forward $111 $-1 #
coedge $-1 $178 $178 $112 $179 forward $173 $-1 #
edge $-1 $292 0 $292 6.2831853071796004 $178 $293 forward 7 unknown #
face $-1 $294 $295 $40 $-1 $296 forward single #
loop $-1 $-1 $297 $113 #
plane-surface $-1 -121.65479143907275 -0.10282861196741422 64.47717290805241 0 -1 0 0.75470958851134928 0 -0.65605901945558964 forward_v I I I I #
coedge $-1 $298 $299 $300 $301 reversed $114 $-1 #
coedge $-1 $185 $116 $302 $303 reversed $73 $-1 #
coedge $-1 $116 $184 $298 $304 reversed $73 $-1 #
coedge $-1 $300 $305 $116 $187 forward $295 $-1 #
edge $-1 $306 12.348133046725316 $307 16.868185478099939 $186 $308 forward 7 unknown #
loop $-1 $-1 $193 $117 #
plane-surface $-1 -48.479262672811046 -3.2952950688930791 0.86665784194362772 -0.75470958851134928 0 0.65605901945558964 0.65605901945558964 0 0.75470958851134928 forward_v I I I I #
loop $-1 $-1 $309 $75 #
coedge $-1 $191 $191 $192 $310 reversed $118 $-1 #
coedge $-1 $192 $192 $191 $310 forward $120 $-1 #
coedge $-1 $193 $193 $121 $194 forward $188 $-1 #
edge $-1 $311 0 $311 6.2831853071796004 $193 $312 forward 7 unknown #
face $-1 $313 $314 $42 $-1 $315 forward single #
loop $-1 $-1 $316 $122 #
plane-surface $-1 -121.65479143907275 12.109131252734283 64.47717290805241 0 -1 0 0.75470958851134928 0 -0.65605901945558964 forward_v I I I I #
coedge $-1 $317 $318 $319 $320 reversed $123 $-1 #
coedge $-1 $200 $125 $321 $322 reversed $79 $-1 #
coedge $-1 $125 $199 $317 $323 reversed $79 $-1 #
coedge $-1 $319 $324 $125 $202 forward $314 $-1 #
edge $-1 $325 12.348133046725316 $326 16.868185478099939 $201 $327 forward 7 unknown #
loop $-1 $-1 $208 $126 #
plane-surface $-1 -48.479262672811046 8.916664795808618 0.86665784194362772 -0.75470958851134928 0 0.65605901945558964 0.65605901945558964 0 0.75470958851134928 forward_v I I I I #
loop $-1 $-1 $328 $81 #
coedge $-1 $206 $206 $207 $329 reversed $127 $-1 #
coedge $-1 $207 $207 $206 $329 forward $129 $-1 #
coedge $-1 $208 $208 $130 $209 forward $203 $-1 #
edge $-1 $330 0 $330 6.2831853071796004 $208 $331 forward 7 unknown #
face $-1 $332 $333 $44 $-1 $334 forward single #
loop $-1 $-1 $335 $131 #
plane-surface $-1 -121.65479143907275 24.32109111743598 64.47717290805241 0 -1 0 0.75470958851134928 0 -0.65605901945558964 forward_v I I I I #
coedge $-1 $336 $337 $338 $339 reversed $132 $-1 #
coedge $-1 $215 $134 $340 $341 reversed $85 $-1 #
coedge $-1 $134 $214 $336 $342 reversed $85 $-1 #
coedge $-1 $338 $343 $134 $217 forward $333 $-1 #
edge $-1 $344 12.348133046725316 $345 16.868185478099939 $216 $346 forward 7 unknown #
loop $-1 $-1 $223 $135 #
plane-surface $-1 -48.479262672811046 21.128624660510315 0.86665784194362772 -0.75470958851134928 0 0.65605901945558964 0.65605901945558964 0 0.75470958851134928 forward_v I I I I #
loop $-1 $-1 $347 $87 #
coedge $-1 $221 $221 $222 $348 reversed $136 $-1 #
coedge $-1 $222 $222 $221 $348 forward $138 $-1 #
coedge $-1 $223 $223 $139 $224 forward $218 $-1 #
edge $-1 $349 0 $349 6.2831853071796004 $223 $350 forward 7 unknown #
face $-1 $351 $352 $46 $-1 $353 reversed single #
loop $-1 $-1 $354 $140 #
plane-surface $-1 41.302954615314832 -18.971816218832782 137.39986343558323 0 1 0 0.66913061440640931 0 0.74314481823134659 forward_v I I I I #
coedge $-1 $355 $356 $357 $358 reversed $141 $-1 #
coedge $-1 $230 $143 $359 $360 reversed $91 $-1 #
coedge $-1 $143 $229 $355 $361 reversed $91 $-1 #
coedge $-1 $357 $362 $143 $232 forward $363 $-1 #
edge $-1 $364 -27.827785365153645 $365 -21.609839878333929 $231 $366 forward 7 unknown #
loop $-1 $-1 $238 $144 #
plane-surface $-1 -23.574963021140704 -12.422186724341337 65.345637741631464 0.66913061440640931 0 0.74314481823134659 0.74314481823134659 0 -0.66913061440640931 forward_v I I I I #
loop $-1 $-1 $367 $93 #
coedge $-1 $236 $236 $237 $368 reversed $145 $-1 #
coedge $-1 $237 $237 $236 $368 forward $147 $-1 #
coedge $-1 $238 $238 $148 $239 forward $233 $-1 #
edge $-1 $369 0 $369 6.2831853071796004 $238 $370 forward 7 unknown #
face $-1 $371 $372 $36 $-1 $373 reversed single #
loop $-1 $-1 $374 $149 #
plane-surface $-1 -48.47926267281106 0 0 1 0 0 0 0 -1 forward_v I I I I #
coedge $-1 $375 $251 $376 $377 forward $150 $-1 #
coedge $-1 $378 $152 $375 $379 forward $97 $-1 #
coedge $-1 $152 $378 $380 $381 forward $97 $-1 #
coedge $-1 $254 $253 $152 $247 reversed $255 $-1 #
edge $-1 $382 -26.781437826834601 $383 26.781437826834601 $246 $384 forward 7 unknown #
coedge $-1 $154 $153 $385 $386 forward $61 $-1 #
coedge $-1 $387 $388 $153 $250 reversed $372 $-1 #
edge $-1 $257 -48.47926267281106 $389 48.47926267281106 $249 $390 forward 7 unknown #
coedge $-1 $243 $391 $154 $252 reversed $150 $-1 #
edge $-1 $392 -48.47926267281106 $256 48.47926267281106 $251 $393 forward 7 unknown #
coedge $-1 $246 $155 $391 $394 forward $255 $-1 #
coedge $-1 $155 $246 $387 $395 reversed $255 $-1 #
loop $-1 $-1 $253 $371 #
vertex $-1 $156 $396 #
vertex $-1 $156 $397 #
straight-curve $-1 48.47926267281106 0 6.0663834906562029 0 1 0 I I #
face $-1 $398 $399 $37 $-1 $400 reversed single #
loop $-1 $-1 $270 $157 #
plane-surface $-1 0 -29.592122690292371 3.0663834906562029 0 0 1 1 0 0 forward_v I I I I #
coedge $-1 $401 $402 $161 $267 forward $158 $-1 #
coedge $-1 $403 $160 $402 $404 forward $101 $-1 #
coedge $-1 $160 $403 $405 $406 forward $101 $-1 #
coedge $-1 $162 $161 $160 $266 reversed $64 $-1 #
edge $-1 $407 -48.47926267281106 $408 48.47926267281106 $160 $409 forward 7 unknown #
edge $-1 $408 -6.0663834906562029 $273 -3.0663834906562029 $262 $410 forward 7 unknown #
coedge $-1 $405 $411 $162 $269 forward $412 $-1 #
edge $-1 $272 3.0663834906562029 $407 6.0663834906562029 $268 $413 forward 7 unknown #
coedge $-1 $414 $163 $411 $415 forward $260 $-1 #
coedge $-1 $163 $414 $401 $416 forward $260 $-1 #
vertex $-1 $269 $417 #
vertex $-1 $267 $418 #
straight-curve $-1 0 -26.781437826834601 3.0663834906562029 -1 0 0 I I #
face $-1 $-1 $419 $38 $-1 $420 reversed single #
loop $-1 $-1 $171 $165 #
plane-surface $-1 0 0 6.0663834906562029 0 0 1 1 0 0 forward_v I I I I #
coedge $-1 $421 $422 $423 $424 reversed $166 $-1 #
coedge $-1 $425 $168 $170 $285 forward $105 $-1 #
coedge $-1 $168 $425 $421 $426 forward $105 $-1 #
coedge $-1 $423 $171 $168 $282 forward $276 $-1 #
edge $-1 $288 -10.946093923723055 $427 -4.5611610098717241 $281 $428 forward 7 unknown #
coedge $-1 $429 $430 $169 $284 forward $419 $-1 #
edge $-1 $431 -31.371928612082595 $287 -26.172202963370001 $283 $432 forward 7 unknown #
edge $-1 $288 -6.8897039707272585 $431 2.1640230052520235e-014 $170 $433 forward 7 unknown #
coedge $-1 $171 $423 $429 $434 forward $276 $-1 #
vertex $-1 $284 $435 #
vertex $-1 $172 $436 #
straight-curve $-1 -60.827395719536376 -18.699721390520445 6.0663834906562037 1 0 0 I I #
coedge $-1 $290 $290 $-1 $437 reversed $175 $-1 #
edge $-1 $438 0 $438 6.2831853071796004 $176 $439 forward 7 unknown #
vertex $-1 $179 $440 #
ellipse-curve $-1 -46.219236457123749 -15.507254933594778 3.4665206662999073 -0.75470958851134928 0 0.65605901945558964 0.65605901945558964 0 0.75470958851134928 1 I I #
face $-1 $-1 $441 $40 $-1 $442 reversed single #
loop $-1 $-1 $186 $180 #
plane-surface $-1 0 0 6.0663834906562029 0 0 1 1 0 0 forward_v I I I I #
coedge $-1 $443 $444 $445 $446 reversed $181 $-1 #
coedge $-1 $447 $183 $185 $304 forward $114 $-1 #
coedge $-1 $183 $447 $443 $448 forward $114 $-1 #
coedge $-1 $445 $186 $183 $301 forward $295 $-1 #
edge $-1 $307 -4.8401139913722044 $449 1.5448189224791253 $300 $450 forward 7 unknown #
coedge $-1 $451 $452 $184 $303 forward $441 $-1 #
edge $-1 $453 -31.371928612082595 $306 -26.172202963370001 $302 $454 forward 7 unknown #
edge $-1 $307 -6.8897039707272585 $453 2.1640230052520235e-014 $185 $455 forward 7 unknown #
coedge $-1 $186 $445 $451 $456 forward $295 $-1 #
vertex $-1 $187 $457 #
vertex $-1 $187 $458 #
straight-curve $-1 -60.827395719536376 -6.487761525818744 6.0663834906562037 1 0 0 I I #
coedge $-1 $309 $309 $-1 $459 reversed $190 $-1 #
edge $-1 $460 0 $460 6.2831853071796004 $191 $461 forward 7 unknown #
vertex $-1 $194 $462 #
ellipse-curve $-1 -46.219236457123749 -3.2952950688930791 3.4665206662999073 -0.75470958851134928 0 0.65605901945558964 0.65605901945558964 0 0.75470958851134928 1 I I #
face $-1 $-1 $463 $42 $-1 $464 reversed single #
loop $-1 $-1 $201 $195 #
plane-surface $-1 0 0 6.0663834906562029 0 0 1 1 0 0 forward_v I I I I #
coedge $-1 $465 $466 $467 $468 reversed $196 $-1 #
coedge $-1 $469 $198 $200 $323 forward $123 $-1 #
coedge $-1 $198 $469 $465 $470 forward $123 $-1 #
coedge $-1 $467 $201 $198 $320 forward $314 $-1 #
edge $-1 $326 1.2658659409786441 $471 7.6507988548299739 $319 $472 forward 7 unknown #
coedge $-1 $473 $474 $199 $322 forward $463 $-1 #
edge $-1 $475 -31.371928612082595 $325 -26.172202963370001 $321 $476 forward 7 unknown #
edge $-1 $326 -6.8897039707272585 $475 2.1640230052520235e-014 $200 $477 forward 7 unknown #
coedge $-1 $201 $467 $473 $478 forward $314 $-1 #
vertex $-1 $202 $479 #
vertex $-1 $202 $480 #
straight-curve $-1 -60.827395719536376 5.7241983388829532 6.0663834906562037 1 0 0 I I #
coedge $-1 $328 $328 $-1 $481 reversed $205 $-1 #
edge $-1 $482 0 $482 6.2831853071796004 $206 $483 forward 7 unknown #
vertex $-1 $209 $484 #
ellipse-curve $-1 -46.219236457123749 8.916664795808618 3.4665206662999073 -0.75470958851134928 0 0.65605901945558964 0.65605901945558964 0 0.75470958851134928 1 I I #
face $-1 $-1 $485 $44 $-1 $486 reversed single #
loop $-1 $-1 $216 $210 #
plane-surface $-1 0 0 6.0663834906562029 0 0 1 1 0 0 forward_v I I I I #
coedge $-1 $487 $488 $489 $490 reversed $211 $-1 #
coedge $-1 $491 $213 $215 $342 forward $132 $-1 #
coedge $-1 $213 $491 $487 $492 forward $132 $-1 #
coedge $-1 $489 $216 $213 $339 forward $333 $-1 #
edge $-1 $345 7.3718458733294927 $493 13.756778787180822 $338 $494 forward 7 unknown #
coedge $-1 $495 $496 $214 $341 forward $485 $-1 #
edge $-1 $497 -31.371928612082595 $344 -26.172202963370001 $340 $498 forward 7 unknown #
edge $-1 $345 -6.8897039707272585 $497 2.1640230052520235e-014 $215 $499 forward 7 unknown #
coedge $-1 $216 $489 $495 $500 forward $333 $-1 #
vertex $-1 $217 $501 #
vertex $-1 $217 $502 #
straight-curve $-1 -60.827395719536376 17.93615820358465 6.0663834906562037 1 0 0 I I #
coedge $-1 $347 $347 $-1 $503 reversed $220 $-1 #
edge $-1 $504 0 $504 6.2831853071796004 $221 $505 forward 7 unknown #
vertex $-1 $224 $506 #
ellipse-curve $-1 -46.219236457123749 21.128624660510315 3.4665206662999073 -0.75470958851134928 0 0.65605901945558964 0.65605901945558964 0 0.75470958851134928 1 I I #
face $-1 $-1 $363 $46 $-1 $507 forward single #
loop $-1 $-1 $508 $225 #
plane-surface $-1 48.47926267281106 0 0 -1 0 0 0 0 1 forward_v I I I I #
coedge $-1 $509 $510 $511 $512 reversed $226 $-1 #
coedge $-1 $513 $228 $230 $361 forward $141 $-1 #
coedge $-1 $228 $513 $509 $514 forward $141 $-1 #
coedge $-1 $511 $231 $228 $358 forward $363 $-1 #
edge $-1 $365 -0.33853613232077606 $515 12.760722856662113 $357 $516 forward 7 unknown #
coedge $-1 $517 $518 $229 $360 forward $352 $-1 #
edge $-1 $519 -68.232211612615686 $364 -62.633548227135414 $359 $520 forward 7 unknown #
edge $-1 $365 88.591454306065984 $519 96.958525345622121 $230 $521 forward 7 unknown #
coedge $-1 $231 $511 $517 $522 forward $363 $-1 #
loop $-1 $-1 $511 $351 #
vertex $-1 $360 $523 #
vertex $-1 $232 $524 #
straight-curve $-1 20.651477307657416 -5.8725572298498925 6.0663834906562073 -1 0 0 I I #
coedge $-1 $367 $367 $-1 $525 reversed $235 $-1 #
edge $-1 $526 0 $526 6.2831853071796004 $236 $527 forward 7 unknown #
vertex $-1 $239 $528 #
ellipse-curve $-1 45.370289929401196 -12.422186724341337 3.2670517979160643 0.66913061440640931 0 0.74314481823134659 1.1147172273470198 0 -1.003695921609614 1 I I #
face $-1 $-1 $255 $36 $-1 $529 reversed single #
loop $-1 $-1 $387 $240 #
plane-surface $-1 0 26.781437826834601 0 0 -1 0 0 0 -1 forward_v I I I I #
coedge $-1 $530 $385 $388 $531 forward $241 $-1 #
coedge $-1 $391 $243 $244 $379 reversed $150 $-1 #
coedge $-1 $385 $530 $243 $377 reversed $241 $-1 #
edge $-1 $392 -6.0663834906562029 $532 6.0663834906562029 $376 $533 forward 7 unknown #
coedge $-1 $245 $244 $530 $534 forward $97 $-1 #
edge $-1 $383 -48.47926267281106 $532 48.47926267281106 $375 $535 forward 7 unknown #
coedge $-1 $388 $387 $245 $381 reversed $372 $-1 #
edge $-1 $536 -48.47926267281106 $382 48.47926267281106 $380 $537 forward 7 unknown #
vertex $-1 $247 $538 #
vertex $-1 $394 $539 #
straight-curve $-1 48.47926267281106 0 -6.0663834906562029 0 -1 0 I I #
coedge $-1 $374 $376 $248 $386 reversed $241 $-1 #
edge $-1 $389 -26.781437826834601 $392 26.781437826834601 $385 $540 forward 7 unknown #
coedge $-1 $380 $249 $254 $395 forward $372 $-1 #
coedge $-1 $249 $380 $374 $531 reversed $372 $-1 #
vertex $-1 $250 $541 #
straight-curve $-1 0 26.781437826834601 6.0663834906562029 -1 0 0 I I #
coedge $-1 $251 $375 $253 $394 reversed $150 $-1 #
vertex $-1 $386 $542 #
straight-curve $-1 0 -26.781437826834601 6.0663834906562029 1 0 0 I I #
edge $-1 $256 -6.0663834906562029 $383 6.0663834906562029 $253 $543 forward 7 unknown #
edge $-1 $257 -6.0663834906562029 $382 6.0663834906562029 $254 $544 forward 7 unknown #
point $-1 48.47926267281106 -26.781437826834601 6.0663834906562029 #
point $-1 48.47926267281106 26.781437826834601 6.0663834906562029 #
face $-1 $-1 $412 $37 $-1 $545 reversed single #
loop $-1 $-1 $546 $259 #
plane-surface $-1 0 -32.402807553750144 4.5663834906562029 0 1 0 0 0 1 forward_v I I I I #
coedge $-1 $547 $262 $271 $416 reversed $158 $-1 #
coedge $-1 $262 $547 $263 $404 reversed $158 $-1 #
coedge $-1 $264 $263 $548 $549 forward $101 $-1 #
edge $-1 $408 26.781437826834601 $550 32.402807553750144 $402 $551 forward 7 unknown #
coedge $-1 $552 $268 $264 $406 reversed $412 $-1 #
edge $-1 $553 -32.402807553750144 $407 -26.781437826834601 $405 $554 forward 7 unknown #
vertex $-1 $269 $555 #
vertex $-1 $404 $556 #
straight-curve $-1 0 -26.781437826834601 6.0663834906562029 -1 0 0 I I #
straight-curve $-1 -48.47926267281106 -26.781437826834601 0 0 0 -1 I I #
coedge $-1 $268 $552 $270 $415 reversed $412 $-1 #
loop $-1 $-1 $268 $398 #
straight-curve $-1 48.47926267281106 -26.781437826834601 0 0 0 1 I I #
coedge $-1 $271 $270 $557 $558 forward $260 $-1 #
edge $-1 $272 -2.8106848634577695 $559 2.810684863457773 $411 $560 forward 7 unknown #
edge $-1 $561 -2.810684863457773 $273 2.8106848634577695 $401 $562 forward 7 unknown #
point $-1 48.47926267281106 -26.781437826834601 3.0663834906562029 #
point $-1 -48.47926267281106 -26.781437826834601 3.0663834906562029 #
loop $-1 $-1 $283 $275 #
plane-surface $-1 -48.47926267281106 0 0 1 0 0 0 0 -1 forward_v I I I I #
coedge $-1 $422 $278 $280 $426 reversed $166 $-1 #
coedge $-1 $278 $421 $563 $564 reversed $166 $-1 #
coedge $-1 $286 $281 $278 $424 forward $276 $-1 #
edge $-1 $427 -16.868185478099939 $565 -12.348133046725316 $423 $566 forward 7 unknown #
coedge $-1 $280 $279 $430 $567 reversed $105 $-1 #
edge $-1 $568 -2.1640230052520235e-014 $427 6.8897039707272585 $421 $569 forward 7 unknown #
vertex $-1 $282 $570 #
straight-curve $-1 -43.959210241436438 -7.753627466797389 6.0663834906562002 0 1 0 I I #
coedge $-1 $563 $283 $286 $434 reversed $419 $-1 #
coedge $-1 $283 $563 $425 $567 forward $419 $-1 #
vertex $-1 $284 $571 #
straight-curve $-1 -48.47926267281106 -18.699721390520445 32.238586454026205 0 0 1 I I #
straight-curve $-1 -48.479262672811046 -18.699721390520445 0.86665784194362772 -0.65605901945558964 0 -0.75470958851134928 I I #
edge $-1 $565 12.314788476669113 $287 18.699721390520445 $429 $572 forward 7 unknown #
point $-1 -48.47926267281106 -18.699721390520445 6.0663834906562029 #
point $-1 -43.959210241436438 -18.699721390520445 6.0663834906562029 #
edge $-1 $573 1 $573 0 $290 $-1 forward 7 unknown #
vertex $-1 $291 $574 #
ellipse-curve $-1 -44.959905378250305 -15.507254933594778 2.3718008888484023 -0.75470958851134928 0 0.65605901945558964 0.65605901945558964 0 0.75470958851134928 1 I I #
point $-1 -45.563177437668173 -15.507254933594778 4.2212302548112666 #
loop $-1 $-1 $302 $294 #
plane-surface $-1 -48.47926267281106 0 0 1 0 0 0 0 -1 forward_v I I I I #
coedge $-1 $444 $297 $299 $448 reversed $181 $-1 #
coedge $-1 $297 $443 $575 $576 reversed $181 $-1 #
coedge $-1 $305 $300 $297 $446 forward $295 $-1 #
edge $-1 $449 -16.868185478099939 $577 -12.348133046725316 $445 $578 forward 7 unknown #
coedge $-1 $299 $298 $452 $579 reversed $114 $-1 #
edge $-1 $580 -2.1640230052520235e-014 $449 6.8897039707272585 $443 $581 forward 7 unknown #
vertex $-1 $301 $582 #
straight-curve $-1 -43.959210241436438 -1.6476475344465396 6.0663834906562002 0 1 0 I I #
coedge $-1 $575 $302 $305 $456 reversed $441 $-1 #
coedge $-1 $302 $575 $447 $579 forward $441 $-1 #
vertex $-1 $303 $583 #
straight-curve $-1 -48.47926267281106 -6.487761525818744 32.238586454026205 0 0 1 I I #
straight-curve $-1 -48.479262672811046 -6.487761525818744 0.86665784194362772 -0.65605901945558964 0 -0.75470958851134928 I I #
edge $-1 $577 0.10282861196741422 $306 6.487761525818744 $451 $584 forward 7 unknown #
point $-1 -48.47926267281106 -6.487761525818744 6.0663834906562029 #
point $-1 -43.959210241436438 -6.487761525818744 6.0663834906562029 #
edge $-1 $585 1 $585 0 $309 $-1 forward 7 unknown #
vertex $-1 $310 $586 #
ellipse-curve $-1 -44.959905378250305 -3.2952950688930791 2.3718008888484023 -0.75470958851134928 0 0.65605901945558964 0.65605901945558964 0 0.75470958851134928 1 I I #
point $-1 -45.563177437668173 -3.2952950688930791 4.2212302548112666 #
loop $-1 $-1 $321 $313 #
plane-surface $-1 -48.47926267281106 0 0 1 0 0 0 0 -1 forward_v I I I I #
coedge $-1 $466 $316 $318 $470 reversed $196 $-1 #
coedge $-1 $316 $465 $587 $588 reversed $196 $-1 #
coedge $-1 $324 $319 $316 $468 forward $314 $-1 #
edge $-1 $471 -16.868185478099939 $589 -12.348133046725316 $467 $590 forward 7 unknown #
coedge $-1 $318 $317 $474 $591 reversed $123 $-1 #
edge $-1 $592 -2.1640230052520235e-014 $471 6.8897039707272585 $465 $593 forward 7 unknown #
vertex $-1 $320 $594 #
straight-curve $-1 -43.959210241436438 4.458332397904309 6.0663834906562002 0 1 0 I I #
coedge $-1 $587 $321 $324 $478 reversed $463 $-1 #
coedge $-1 $321 $587 $469 $591 forward $463 $-1 #
vertex $-1 $322 $595 #
straight-curve $-1 -48.47926267281106 5.7241983388829532 32.238586454026205 0 0 1 I I #
straight-curve $-1 -48.479262672811046 5.7241983388829532 0.86665784194362772 -0.65605901945558964 0 -0.75470958851134928 I I #
edge $-1 $589 -12.109131252734283 $325 -5.7241983388829532 $473 $596 forward 7 unknown #
point $-1 -48.47926267281106 5.7241983388829532 6.0663834906562029 #
point $-1 -43.959210241436438 5.7241983388829532 6.0663834906562029 #
edge $-1 $597 1 $597 0 $328 $-1 forward 7 unknown #
vertex $-1 $329 $598 #
ellipse-curve $-1 -44.959905378250305 8.916664795808618 2.3718008888484023 -0.75470958851134928 0 0.65605901945558964 0.65605901945558964 0 0.75470958851134928 1 I I #
point $-1 -45.563177437668173 8.916664795808618 4.2212302548112666 #
loop $-1 $-1 $340 $332 #
plane-surface $-1 -48.47926267281106 0 0 1 0 0 0 0 -1 forward_v I I I I #
coedge $-1 $488 $335 $337 $492 reversed $211 $-1 #
coedge $-1 $335 $487 $599 $600 reversed $211 $-1 #
coedge $-1 $343 $338 $335 $490 forward $333 $-1 #
edge $-1 $493 -16.868185478099939 $601 -12.348133046725316 $489 $602 forward 7 unknown #
coedge $-1 $337 $336 $496 $603 reversed $132 $-1 #
edge $-1 $604 -2.1640230052520235e-014 $493 6.8897039707272585 $487 $605 forward 7 unknown #
vertex $-1 $339 $606 #
straight-curve $-1 -43.959210241436438 10.564312330255158 6.0663834906562002 0 1 0 I I #
coedge $-1 $599 $340 $343 $500 reversed $485 $-1 #
coedge $-1 $340 $599 $491 $603 forward $485 $-1 #
vertex $-1 $341 $607 #
straight-curve $-1 -48.47926267281106 17.93615820358465 32.238586454026205 0 0 1 I I #
straight-curve $-1 -48.479262672811046 17.93615820358465 0.86665784194362772 -0.65605901945558964 0 -0.75470958851134928 I I #
edge $-1 $601 -24.32109111743598 $344 -17.93615820358465 $495 $608 forward 7 unknown #
point $-1 -48.47926267281106 17.93615820358465 6.0663834906562029 #
point $-1 -43.959210241436438 17.93615820358465 6.0663834906562029 #
edge $-1 $609 1 $609 0 $347 $-1 forward 7 unknown #
vertex $-1 $348 $610 #
ellipse-curve $-1 -44.959905378250305 21.128624660510315 2.3718008888484023 -0.75470958851134928 0 0.65605901945558964 0.65605901945558964 0 0.75470958851134928 1 I I #
point $-1 -45.563177437668173 21.128624660510315 4.2212302548112666 #
plane-surface $-1 0 0 6.0663834906562029 0 0 1 1 0 0 forward_v I I I I #
coedge $-1 $518 $517 $510 $611 forward $352 $-1 #
coedge $-1 $510 $354 $356 $514 reversed $226 $-1 #
coedge $-1 $354 $509 $508 $611 reversed $226 $-1 #
coedge $-1 $362 $357 $354 $512 forward $363 $-1 #
edge $-1 $515 21.609839878333929 $612 27.827785365153645 $511 $613 forward 7 unknown #
coedge $-1 $356 $355 $518 $614 reversed $141 $-1 #
edge $-1 $615 -96.958525345622121 $515 -88.591454306065984 $509 $616 forward 7 unknown #
vertex $-1 $358 $617 #
straight-curve $-1 42.261317185991359 -6.2110933621706685 6.066383490656186 0 -1 0 I I #
coedge $-1 $508 $359 $362 $522 reversed $352 $-1 #
coedge $-1 $359 $508 $513 $614 forward $352 $-1 #
vertex $-1 $360 $618 #
straight-curve $-1 48.47926267281106 -5.8725572298498925 68.699931717791614 0 0 1 I I #
straight-curve $-1 -23.574963021140704 -5.8725572298498925 65.345637741631464 0.74314481823134659 0 -0.66913061440640931 I I #
edge $-1 $612 -18.971816218832782 $364 -5.8725572298498925 $517 $619 forward 7 unknown #
point $-1 48.47926267281106 -5.8725572298498925 6.0663834906562029 #
point $-1 42.261317185991345 -5.8725572298498925 6.0663834906561931 #
edge $-1 $620 1 $620 0 $367 $-1 forward 7 unknown #
vertex $-1 $368 $621 #
ellipse-curve $-1 41.405588424176514 -12.422186724341337 -1.1361952154573558 0.66913061440640931 0 0.74314481823134659 1.1147172273470198 0 -1.003695921609614 1 I I #
point $-1 46.48500715674821 -12.422186724341337 2.2633558763064494 #
plane-surface $-1 48.47926267281106 0 0 -1 0 0 0 0 1 forward_v I I I I #
coedge $-1 $376 $374 $378 $534 reversed $241 $-1 #
edge $-1 $389 -6.0663834906562029 $536 6.0663834906562029 $388 $622 forward 7 unknown #
vertex $-1 $534 $623 #
straight-curve $-1 -48.47926267281106 -26.781437826834601 0 0 0 -1 I I #
edge $-1 $532 -26.781437826834601 $536 26.781437826834601 $530 $624 forward 7 unknown #
straight-curve $-1 0 -26.781437826834601 -6.0663834906562029 -1 0 0 I I #
vertex $-1 $381 $625 #
straight-curve $-1 0 26.781437826834601 -6.0663834906562029 1 0 0 I I #
point $-1 48.47926267281106 26.781437826834601 -6.0663834906562029 #
point $-1 48.47926267281106 -26.781437826834601 -6.0663834906562029 #
straight-curve $-1 -48.47926267281106 0 6.0663834906562029 0 -1 0 I I #
point $-1 -48.47926267281106 26.781437826834601 6.0663834906562029 #
point $-1 -48.47926267281106 -26.781437826834601 6.0663834906562029 #
straight-curve $-1 48.47926267281106 -26.781437826834601 0 0 0 -1 I I #
straight-curve $-1 48.47926267281106 26.781437826834601 0 0 0 -1 I I #
plane-surface $-1 48.47926267281106 0 0 -1 0 0 0 0 1 forward_v I I I I #
coedge $-1 $557 $548 $547 $626 forward $399 $-1 #
coedge $-1 $402 $401 $546 $626 reversed $158 $-1 #
coedge $-1 $546 $627 $403 $549 reversed $399 $-1 #
edge $-1 $550 -48.47926267281106 $553 48.47926267281106 $548 $628 forward 7 unknown #
vertex $-1 $404 $629 #
straight-curve $-1 -48.47926267281106 0 6.0663834906562029 0 -1 0 I I #
coedge $-1 $411 $405 $627 $630 forward $412 $-1 #
vertex $-1 $406 $631 #
straight-curve $-1 48.47926267281106 0 6.0663834906562029 0 1 0 I I #
point $-1 48.47926267281106 -26.781437826834601 6.0663834906562029 #
point $-1 -48.47926267281106 -26.781437826834601 6.0663834906562029 #
coedge $-1 $627 $546 $414 $558 reversed $399 $-1 #
edge $-1 $559 -48.47926267281106 $561 48.47926267281106 $557 $632 forward 7 unknown #
vertex $-1 $630 $633 #
straight-curve $-1 48.47926267281106 -29.592122690292371 3.0663834906562029 0 -1 0 I I #
vertex $-1 $416 $634 #
straight-curve $-1 -48.47926267281106 -29.592122690292371 3.0663834906562029 0 1 0 I I #
coedge $-1 $430 $429 $422 $564 forward $419 $-1 #
edge $-1 $565 26.172202963370001 $568 31.371928612082595 $563 $635 forward 7 unknown #
vertex $-1 $434 $636 #
straight-curve $-1 -60.827395719536376 -12.314788476669113 6.0663834906562037 -1 0 0 I I #
edge $-1 $568 4.5611610098717241 $431 10.946093923723055 $430 $637 forward 7 unknown #
vertex $-1 $567 $638 #
straight-curve $-1 -48.479262672811046 -12.314788476669113 0.86665784194362772 0.65605901945558964 0 0.75470958851134928 I I #
point $-1 -43.959210241436438 -12.314788476669113 6.0663834906562029 #
point $-1 -48.47926267281106 -18.699721390520445 0.8666578419436114 #
straight-curve $-1 -48.47926267281106 0 6.0663834906562029 0 -1 0 I I #
vertex $-1 $437 $639 #
point $-1 -44.303846358794715 -15.507254933594778 3.1265104773597514 #
coedge $-1 $452 $451 $444 $576 forward $441 $-1 #
edge $-1 $577 26.172202963370001 $580 31.371928612082595 $575 $640 forward 7 unknown #
vertex $-1 $456 $641 #
straight-curve $-1 -60.827395719536376 -0.10282861196741422 6.0663834906562037 -1 0 0 I I #
edge $-1 $580 -1.5448189224791253 $453 4.8401139913722044 $452 $642 forward 7 unknown #
vertex $-1 $579 $643 #
straight-curve $-1 -48.479262672811046 -0.10282861196741422 0.86665784194362772 0.65605901945558964 0 0.75470958851134928 I I #
point $-1 -43.959210241436438 -0.10282861196741422 6.0663834906562029 #
point $-1 -48.47926267281106 -6.487761525818744 0.8666578419436114 #
straight-curve $-1 -48.47926267281106 0 6.0663834906562029 0 -1 0 I I #
vertex $-1 $459 $644 #
point $-1 -44.303846358794715 -3.2952950688930791 3.1265104773597514 #
coedge $-1 $474 $473 $466 $588 forward $463 $-1 #
edge $-1 $589 26.172202963370001 $592 31.371928612082595 $587 $645 forward 7 unknown #
vertex $-1 $478 $646 #
straight-curve $-1 -60.827395719536376 12.109131252734283 6.0663834906562037 -1 0 0 I I #
edge $-1 $592 -7.6507988548299739 $475 -1.2658659409786441 $474 $647 forward 7 unknown #
vertex $-1 $591 $648 #
straight-curve $-1 -48.479262672811046 12.109131252734283 0.86665784194362772 0.65605901945558964 0 0.75470958851134928 I I #
point $-1 -43.959210241436438 12.109131252734283 6.0663834906562029 #
point $-1 -48.47926267281106 5.7241983388829532 0.8666578419436114 #
straight-curve $-1 -48.47926267281106 0 6.0663834906562029 0 -1 0 I I #
vertex $-1 $481 $649 #
point $-1 -44.303846358794715 8.916664795808618 3.1265104773597514 #
coedge $-1 $496 $495 $488 $600 forward $485 $-1 #
edge $-1 $601 26.172202963370001 $604 31.371928612082595 $599 $650 forward 7 unknown #
vertex $-1 $500 $651 #
straight-curve $-1 -60.827395719536376 24.32109111743598 6.0663834906562037 -1 0 0 I I #
edge $-1 $604 -13.756778787180822 $497 -7.3718458733294927 $496 $652 forward 7 unknown #
vertex $-1 $603 $653 #
straight-curve $-1 -48.479262672811046 24.32109111743598 0.86665784194362772 0.65605901945558964 0 0.75470958851134928 I I #
point $-1 -43.959210241436438 24.32109111743598 6.0663834906562029 #
point $-1 -48.47926267281106 17.93615820358465 0.8666578419436114 #
straight-curve $-1 -48.47926267281106 0 6.0663834906562029 0 -1 0 I I #
vertex $-1 $503 $654 #
point $-1 -44.303846358794715 21.128624660510315 3.1265104773597514 #
edge $-1 $612 62.633548227135414 $615 68.232211612615686 $508 $655 forward 7 unknown #
vertex $-1 $522 $656 #
straight-curve $-1 20.651477307657416 -18.971816218832782 6.0663834906562073 1 0 0 I I #
edge $-1 $615 -12.760722856662113 $519 0.33853613232077606 $518 $657 forward 7 unknown #
vertex $-1 $614 $658 #
straight-curve $-1 -23.574963021140704 -18.971816218832782 65.345637741631464 -0.74314481823134659 0 0.66913061440640931 I I #
point $-1 42.261317185991345 -18.971816218832782 6.0663834906561931 #
point $-1 48.47926267281106 -5.8725572298498925 0.46772010517592832 #
straight-curve $-1 48.47926267281106 0 6.0663834906562029 0 1 0 I I #
vertex $-1 $525 $659 #
point $-1 42.520305651523529 -12.422186724341337 -2.1398911370669698 #
straight-curve $-1 -48.47926267281106 26.781437826834601 0 0 0 -1 I I #
point $-1 -48.47926267281106 -26.781437826834601 -6.0663834906562029 #
straight-curve $-1 -48.47926267281106 0 -6.0663834906562029 0 1 0 I I #
point $-1 -48.47926267281106 26.781437826834601 -6.0663834906562029 #
edge $-1 $550 -1.5 $561 1.5 $547 $660 forward 7 unknown #
coedge $-1 $548 $557 $552 $630 reversed $399 $-1 #
straight-curve $-1 0 -32.402807553750144 6.0663834906562029 1 0 0 I I #
point $-1 -48.47926267281106 -32.402807553750144 6.0663834906562029 #
edge $-1 $553 -1.5 $559 1.5 $552 $661 forward 7 unknown #
point $-1 48.47926267281106 -32.402807553750144 6.0663834906562029 #
straight-curve $-1 0 -32.402807553750144 3.0663834906562029 -1 0 0 I I #
point $-1 48.47926267281106 -32.402807553750144 3.0663834906562029 #
point $-1 -48.47926267281106 -32.402807553750144 3.0663834906562029 #
straight-curve $-1 -48.47926267281106 -12.314788476669113 32.238586454026205 0 0 -1 I I #
point $-1 -48.47926267281106 -12.314788476669113 6.0663834906562029 #
straight-curve $-1 -48.47926267281106 -7.753627466797389 0.86665784194360751 0 -1 0 I I #
point $-1 -48.47926267281106 -12.314788476669113 0.8666578419436114 #
point $-1 -44.205195789738958 -15.507254933594778 1.7157418693928126 #
straight-curve $-1 -48.47926267281106 -0.10282861196741422 32.238586454026205 0 0 -1 I I #
point $-1 -48.47926267281106 -0.10282861196741422 6.0663834906562029 #
straight-curve $-1 -48.47926267281106 -1.6476475344465396 0.86665784194360751 0 -1 0 I I #
point $-1 -48.47926267281106 -0.10282861196741422 0.8666578419436114 #
point $-1 -44.205195789738958 -3.2952950688930791 1.7157418693928126 #
straight-curve $-1 -48.47926267281106 12.109131252734283 32.238586454026205 0 0 -1 I I #
point $-1 -48.47926267281106 12.109131252734283 6.0663834906562029 #
straight-curve $-1 -48.47926267281106 4.458332397904309 0.86665784194360751 0 -1 0 I I #
point $-1 -48.47926267281106 12.109131252734283 0.8666578419436114 #
point $-1 -44.205195789738958 8.916664795808618 1.7157418693928126 #
straight-curve $-1 -48.47926267281106 24.32109111743598 32.238586454026205 0 0 -1 I I #
point $-1 -48.47926267281106 24.32109111743598 6.0663834906562029 #
straight-curve $-1 -48.47926267281106 10.564312330255158 0.86665784194360751 0 -1 0 I I #
point $-1 -48.47926267281106 24.32109111743598 0.8666578419436114 #
point $-1 -44.205195789738958 21.128624660510315 1.7157418693928126 #
straight-curve $-1 48.47926267281106 -18.971816218832782 68.699931717791614 0 0 -1 I I #
point $-1 48.47926267281106 -18.971816218832782 6.0663834906562029 #
straight-curve $-1 48.47926267281106 -6.2110933621706685 0.46772010517592122 0 1 0 I I #
point $-1 48.47926267281106 -18.971816218832782 0.46772010517592832 #
point $-1 40.401892502566895 -12.422186724341337 -2.2509124428043759 #
straight-curve $-1 -48.47926267281106 -32.402807553750144 4.5663834906562029 0 0 -1 I I #
straight-curve $-1 48.47926267281106 -32.402807553750144 4.5663834906562029 0 0 -1 I I #
End-of-ACIS-data 