500 0 11 0           
7 Unknown 11 ACIS 5.0 NT 24 Thu Mar 25 18:03:08 1999 
-1 9.9999999999999995e-007 1e-010 
body $-1 $11 $-1 $12 #
body $-1 $13 $-1 $14 #
body $-1 $15 $-1 $16 #
body $-1 $17 $-1 $18 #
body $-1 $19 $-1 $20 #
body $-1 $21 $-1 $22 #
body $-1 $23 $-1 $24 #
body $-1 $25 $-1 $26 #
body $-1 $27 $-1 $28 #
body $-1 $29 $-1 $30 #
body $-1 $31 $-1 $32 #
lump $-1 $-1 $33 $0 #
transform $-1 1 0 0 0 1 0 0 0 1 44.122440260017697 23.942352032326568 5.8022957015748178 1 rotate no_reflect no_shear #
lump $-1 $-1 $34 $1 #
transform $-1 1 0 0 0 1 0 0 0 1 44.122440260017697 23.942352032326568 5.8022957015748178 1 rotate no_reflect no_shear #
lump $-1 $-1 $35 $2 #
transform $-1 1 0 0 0 1 0 0 0 1 44.122440260017697 23.942352032326568 5.8022957015748178 1 rotate no_reflect no_shear #
lump $-1 $-1 $36 $3 #
transform $-1 1 0 0 0 1 0 0 0 1 44.122440260017697 23.942352032326568 5.8022957015748178 1 rotate no_reflect no_shear #
lump $-1 $-1 $37 $4 #
transform $-1 1 0 0 0 1 0 0 0 1 44.122440260017697 23.942352032326568 5.8022957015748178 1 rotate no_reflect no_shear #
lump $-1 $-1 $38 $5 #
transform $-1 1 0 0 0 1 0 0 0 1 44.122440260017697 23.942352032326568 5.8022957015748178 1 rotate no_reflect no_shear #
lump $-1 $-1 $39 $6 #
transform $-1 1 0 0 0 1 0 0 0 1 44.122440260017697 23.942352032326568 5.8022957015748178 1 rotate no_reflect no_shear #
lump $-1 $-1 $40 $7 #
transform $-1 1 0 0 0 1 0 0 0 1 44.122440260017697 23.942352032326568 5.8022957015748178 1 rotate no_reflect no_shear #
lump $-1 $-1 $41 $8 #
transform $-1 1 0 0 0 1 0 0 0 1 44.122440260017697 23.942352032326568 5.8022957015748178 1 rotate no_reflect no_shear #
lump $-1 $-1 $42 $9 #
transform $-1 1 0 0 0 1 0 0 0 1 44.122440260017697 23.942352032326568 5.8022957015748178 1 rotate no_reflect no_shear #
lump $-1 $-1 $43 $10 #
transform $-1 1 0 0 0 1 0 0 0 1 44.122440260017697 23.942352032326568 5.8022957015748178 1 rotate no_reflect no_shear #
shell $-1 $-1 $-1 $44 $-1 $11 #
shell $-1 $-1 $-1 $45 $-1 $13 #
shell $-1 $-1 $-1 $46 $-1 $15 #
shell $-1 $-1 $-1 $47 $-1 $17 #
shell $-1 $-1 $-1 $48 $-1 $19 #
shell $-1 $-1 $-1 $49 $-1 $21 #
shell $-1 $-1 $-1 $50 $-1 $23 #
shell $-1 $-1 $-1 $51 $-1 $25 #
shell $-1 $-1 $-1 $52 $-1 $27 #
shell $-1 $-1 $-1 $53 $-1 $29 #
shell $-1 $-1 $-1 $54 $-1 $31 #
face $-1 $55 $56 $33 $-1 $57 forward single #
face $-1 $58 $59 $34 $-1 $60 reversed single #
face $-1 $61 $62 $35 $-1 $63 forward single #
face $-1 $64 $65 $36 $-1 $66 forward single #
face $-1 $67 $68 $37 $-1 $69 reversed single #
face $-1 $70 $71 $38 $-1 $72 forward single #
face $-1 $73 $74 $39 $-1 $75 forward single #
face $-1 $76 $77 $40 $-1 $78 reversed single #
face $-1 $79 $80 $41 $-1 $81 forward single #
face $-1 $82 $83 $42 $-1 $84 forward single #
face $-1 $85 $86 $43 $-1 $87 forward single #
face $-1 $88 $89 $33 $-1 $90 reversed single #
loop $-1 $-1 $91 $44 #
plane-surface $-1 0 0 5.8022957015748178 0 0 1 1 0 0 forward_v I I I I #
face $-1 $92 $93 $34 $-1 $94 reversed single #
loop $-1 $-1 $95 $45 #
plane-surface $-1 -28.965768359754872 65.600114158521222 92.548536166771243 1 0 0 0 -0.79863551827123203 -0.60181501223851219 forward_v I I I I #
face $-1 $96 $97 $35 $-1 $98 forward single #
loop $-1 $99 $100 $46 #
cone-surface $-1 -24.474520256415758 20.710845051705348 2.3725125639531277 0 -0.79863551827123203 -0.60181501223851219 1 0 0 1 I I 0 1 1 forward I I I I #
face $-1 $101 $102 $36 $-1 $103 forward single #
loop $-1 $104 $105 $47 #
cone-surface $-1 -17.737648101407089 20.710845051705348 2.3725125639531277 0 -0.79863551827123203 -0.60181501223851219 1 0 0 1 I I 0 1 1 forward I I I I #
face $-1 $106 $107 $37 $-1 $108 reversed single #
loop $-1 $-1 $109 $48 #
plane-surface $-1 13.246399998067968 65.600114158521222 92.548536166771243 1 0 0 0 -0.79863551827123203 -0.60181501223851219 forward_v I I I I #
face $-1 $110 $111 $38 $-1 $112 forward single #
loop $-1 $113 $114 $49 #
cone-surface $-1 17.737648101407082 20.710845051705348 2.3725125639531277 0 -0.79863551827123203 -0.60181501223851219 1 0 0 1 I I 0 1 1 forward I I I I #
face $-1 $115 $116 $39 $-1 $117 forward single #
loop $-1 $118 $119 $50 #
cone-surface $-1 24.474520256415758 20.710845051705348 2.3725125639531277 0 -0.79863551827123203 -0.60181501223851219 1 0 0 1 I I 0 1 1 forward I I I I #
face $-1 $120 $121 $40 $-1 $122 reversed single #
loop $-1 $-1 $123 $51 #
plane-surface $-1 32.687214138942181 -70.705014807299648 75.178759783425974 -1 0 0 0 -0.52991927123019833 0.84804809178421925 forward_v I I I I #
face $-1 $124 $125 $41 $-1 $126 forward single #
loop $-1 $127 $128 $52 #
cone-surface $-1 12.654627119969646 -18.306299676823894 1.044010862346588 0 0.52991927123019833 -0.84804809178421925 2.5 0 0 1 I I 0 1 2.5 forward I I I I #
face $-1 $129 $130 $42 $-1 $131 forward single #
loop $-1 $132 $133 $53 #
cone-surface $-1 20.166847252084338 -18.306299676823894 1.044010862346588 0 0.52991927123019833 -0.84804809178421925 2.5 0 0 1 I I 0 1 2.5 forward I I I I #
face $-1 $134 $135 $43 $-1 $136 forward single #
loop $-1 $137 $138 $54 #
cone-surface $-1 27.67906738419903 -18.306299676823894 1.044010862346588 0 0.52991927123019833 -0.84804809178421925 2.5 0 0 1 I I 0 1 2.5 forward I I I I #
face $-1 $139 $140 $33 $-1 $141 reversed single #
loop $-1 $-1 $142 $55 #
plane-surface $-1 0 0 -5.8022957015748178 0 0 1 1 0 0 forward_v I I I I #
coedge $-1 $143 $144 $145 $146 forward $56 $-1 #
face $-1 $147 $148 $34 $-1 $149 reversed single #
loop $-1 $-1 $150 $58 #
plane-surface $-1 -21.106084178911424 -4.8753817303801981 39.441442316620098 0 0.79863551827123203 0.60181501223851219 1 0 0 forward_v I I I I #
coedge $-1 $151 $152 $153 $154 reversed $59 $-1 #
face $-1 $-1 $155 $35 $-1 $156 forward single #
loop $-1 $157 $158 $61 #
cone-surface $-1 -24.474520256415758 18.814429966775727 0.94346133665895859 0 -0.79863551827123203 -0.60181501223851219 0.5 0 0 1 I I -0.70710678118654746 0.70710678118654746 0.5 forward I I I I #
loop $-1 $-1 $159 $46 #
coedge $-1 $100 $100 $160 $161 reversed $62 $-1 #
face $-1 $-1 $162 $36 $-1 $163 forward single #
loop $-1 $164 $165 $64 #
cone-surface $-1 -17.737648101407089 18.814429966775727 0.94346133665895859 0 -0.79863551827123203 -0.60181501223851219 0.5 0 0 1 I I -0.70710678118654746 0.70710678118654746 0.5 forward I I I I #
loop $-1 $-1 $166 $47 #
coedge $-1 $105 $105 $167 $168 reversed $65 $-1 #
face $-1 $169 $170 $37 $-1 $171 reversed single #
loop $-1 $-1 $172 $67 #
plane-surface $-1 21.106084178911416 -4.8753817303801981 39.441442316620098 0 0.79863551827123203 0.60181501223851219 1 0 0 forward_v I I I I #
coedge $-1 $173 $174 $175 $176 reversed $68 $-1 #
face $-1 $-1 $177 $38 $-1 $178 forward single #
loop $-1 $179 $180 $70 #
cone-surface $-1 17.737648101407082 18.814429966775727 0.94346133665895859 0 -0.79863551827123203 -0.60181501223851219 0.5 0 0 1 I I -0.70710678118654746 0.70710678118654746 0.5 forward I I I I #
loop $-1 $-1 $181 $49 #
coedge $-1 $114 $114 $182 $183 reversed $71 $-1 #
face $-1 $-1 $184 $39 $-1 $185 forward single #
loop $-1 $186 $187 $73 #
cone-surface $-1 24.474520256415758 18.814429966775727 0.94346133665895859 0 -0.79863551827123203 -0.60181501223851219 0.5 0 0 1 I I -0.70710678118654746 0.70710678118654746 0.5 forward I I I I #
loop $-1 $-1 $188 $50 #
coedge $-1 $119 $119 $189 $190 reversed $74 $-1 #
face $-1 $191 $192 $40 $-1 $193 reversed single #
loop $-1 $-1 $194 $76 #
plane-surface $-1 20.166847252084352 -23.942352032326568 0.3428572486835435 0 -0.52991927123019833 0.84804809178421925 1 0 0 forward_v I I I I #
coedge $-1 $195 $196 $197 $198 reversed $77 $-1 #
face $-1 $-1 $199 $41 $-1 $200 forward single #
loop $-1 $201 $202 $79 #
cone-surface $-1 12.654627119969646 -16.376312084748854 -2.0446148651662752 0 0.52991927123019833 -0.84804809178421925 1.25 0 0 1 I I -0.70710678118654746 0.70710678118654746 1.25 forward I I I I #
loop $-1 $-1 $203 $52 #
coedge $-1 $128 $128 $204 $205 reversed $80 $-1 #
face $-1 $-1 $206 $42 $-1 $207 forward single #
loop $-1 $208 $209 $82 #
cone-surface $-1 20.166847252084338 -16.376312084748854 -2.0446148651662752 0 0.52991927123019833 -0.84804809178421925 1.25 0 0 1 I I -0.70710678118654746 0.70710678118654746 1.25 forward I I I I #
loop $-1 $-1 $210 $53 #
coedge $-1 $133 $133 $211 $212 reversed $83 $-1 #
face $-1 $-1 $213 $43 $-1 $214 forward single #
loop $-1 $215 $216 $85 #
cone-surface $-1 27.67906738419903 -16.376312084748854 -2.0446148651662752 0 0.52991927123019833 -0.84804809178421925 1.25 0 0 1 I I -0.70710678118654746 0.70710678118654746 1.25 forward I I I I #
loop $-1 $-1 $217 $54 #
coedge $-1 $138 $138 $218 $219 reversed $86 $-1 #
face $-1 $220 $221 $33 $-1 $222 reversed single #
loop $-1 $-1 $223 $88 #
plane-surface $-1 0 -23.942352032326568 0 0 1 0 0 0 1 forward_v I I I I #
coedge $-1 $224 $225 $226 $227 forward $89 $-1 #
coedge $-1 $228 $91 $229 $230 forward $56 $-1 #
coedge $-1 $91 $228 $231 $232 forward $56 $-1 #
coedge $-1 $233 $234 $91 $146 reversed $235 $-1 #
edge $-1 $236 -23.942352032326568 $237 23.942352032326568 $145 $238 forward 7 unknown #
face $-1 $239 $240 $34 $-1 $241 reversed single #
loop $-1 $-1 $242 $92 #
plane-surface $-1 -13.246399998067975 65.600114158521222 92.548536166771243 -1 0 0 0 0.79863551827123203 0.60181501223851219 forward_v I I I I #
coedge $-1 $243 $244 $245 $246 reversed $93 $-1 #
coedge $-1 $152 $95 $247 $248 reversed $59 $-1 #
coedge $-1 $95 $151 $243 $249 reversed $59 $-1 #
coedge $-1 $245 $250 $95 $154 forward $251 $-1 #
edge $-1 $252 8.8577050469340435 $253 12.326524356588472 $153 $254 forward 7 unknown #
loop $-1 $-1 $160 $96 #
plane-surface $-1 -21.106084178911424 -4.8753817303801981 39.441442316620098 0 0.79863551827123203 0.60181501223851219 1 0 0 forward_v I I I I #
loop $-1 $-1 $255 $61 #
coedge $-1 $158 $158 $159 $256 reversed $97 $-1 #
coedge $-1 $159 $159 $158 $256 forward $99 $-1 #
coedge $-1 $160 $160 $100 $161 forward $155 $-1 #
edge $-1 $257 0 $257 6.2831853071796004 $160 $258 forward 7 unknown #
loop $-1 $-1 $167 $101 #
plane-surface $-1 -21.106084178911424 -4.8753817303801981 39.441442316620098 0 0.79863551827123203 0.60181501223851219 1 0 0 forward_v I I I I #
loop $-1 $-1 $259 $64 #
coedge $-1 $165 $165 $166 $260 reversed $102 $-1 #
coedge $-1 $166 $166 $165 $260 forward $104 $-1 #
coedge $-1 $167 $167 $105 $168 forward $162 $-1 #
edge $-1 $261 0 $261 6.2831853071796004 $167 $262 forward 7 unknown #
face $-1 $263 $264 $37 $-1 $265 forward single #
loop $-1 $-1 $266 $106 #
plane-surface $-1 28.965768359754865 65.600114158521222 92.548536166771243 -1 0 0 0 0.79863551827123203 0.60181501223851219 forward_v I I I I #
coedge $-1 $267 $268 $269 $270 reversed $107 $-1 #
coedge $-1 $174 $109 $271 $272 reversed $68 $-1 #
coedge $-1 $109 $173 $267 $273 reversed $68 $-1 #
coedge $-1 $269 $274 $109 $176 forward $264 $-1 #
edge $-1 $275 8.8577050469340435 $276 12.326524356588472 $175 $277 forward 7 unknown #
loop $-1 $-1 $182 $110 #
plane-surface $-1 21.106084178911416 -4.8753817303801981 39.441442316620098 0 0.79863551827123203 0.60181501223851219 1 0 0 forward_v I I I I #
loop $-1 $-1 $278 $70 #
coedge $-1 $180 $180 $181 $279 reversed $111 $-1 #
coedge $-1 $181 $181 $180 $279 forward $113 $-1 #
coedge $-1 $182 $182 $114 $183 forward $177 $-1 #
edge $-1 $280 0 $280 6.2831853071796004 $182 $281 forward 7 unknown #
loop $-1 $-1 $189 $115 #
plane-surface $-1 21.106084178911416 -4.8753817303801981 39.441442316620098 0 0.79863551827123203 0.60181501223851219 1 0 0 forward_v I I I I #
loop $-1 $-1 $282 $73 #
coedge $-1 $187 $187 $188 $283 reversed $116 $-1 #
coedge $-1 $188 $188 $187 $283 forward $118 $-1 #
coedge $-1 $189 $189 $119 $190 forward $184 $-1 #
edge $-1 $284 0 $284 6.2831853071796004 $189 $285 forward 7 unknown #
face $-1 $286 $287 $40 $-1 $288 reversed single #
loop $-1 $-1 $289 $120 #
plane-surface $-1 7.6464803652265196 -70.705014807299648 75.178759783425974 1 0 0 0 0.52991927123019833 -0.84804809178421925 forward_v I I I I #
coedge $-1 $290 $291 $292 $293 reversed $121 $-1 #
coedge $-1 $196 $123 $294 $295 reversed $77 $-1 #
coedge $-1 $123 $195 $290 $296 reversed $77 $-1 #
coedge $-1 $292 $297 $123 $198 forward $298 $-1 #
edge $-1 $299 11.410155371323256 $300 20.147083076254013 $197 $301 forward 7 unknown #
loop $-1 $-1 $204 $124 #
plane-surface $-1 20.166847252084352 -23.942352032326568 0.3428572486835435 0 -0.52991927123019833 0.84804809178421925 1 0 0 forward_v I I I I #
loop $-1 $-1 $302 $79 #
coedge $-1 $202 $202 $203 $303 reversed $125 $-1 #
coedge $-1 $203 $203 $202 $303 forward $127 $-1 #
coedge $-1 $204 $204 $128 $205 forward $199 $-1 #
edge $-1 $304 2.6382310060522424e-016 $304 6.2831853071796004 $204 $305 forward 7 unknown #
loop $-1 $-1 $211 $129 #
plane-surface $-1 20.166847252084352 -23.942352032326568 0.3428572486835435 0 -0.52991927123019833 0.84804809178421925 1 0 0 forward_v I I I I #
loop $-1 $-1 $306 $82 #
coedge $-1 $209 $209 $210 $307 reversed $130 $-1 #
coedge $-1 $210 $210 $209 $307 forward $132 $-1 #
coedge $-1 $211 $211 $133 $212 forward $206 $-1 #
edge $-1 $308 2.6382310060522424e-016 $308 6.2831853071796004 $211 $309 forward 7 unknown #
loop $-1 $-1 $218 $134 #
plane-surface $-1 20.166847252084352 -23.942352032326568 0.3428572486835435 0 -0.52991927123019833 0.84804809178421925 1 0 0 forward_v I I I I #
loop $-1 $-1 $310 $85 #
coedge $-1 $216 $216 $217 $311 reversed $135 $-1 #
coedge $-1 $217 $217 $216 $311 forward $137 $-1 #
coedge $-1 $218 $218 $138 $219 forward $213 $-1 #
edge $-1 $312 2.6382310060522424e-016 $312 6.2831853071796004 $218 $313 forward 7 unknown #
face $-1 $314 $315 $33 $-1 $316 reversed single #
loop $-1 $-1 $317 $139 #
plane-surface $-1 -44.122440260017697 0 0 1 0 0 0 0 -1 forward_v I I I I #
coedge $-1 $318 $231 $319 $320 forward $140 $-1 #
coedge $-1 $321 $142 $318 $322 forward $89 $-1 #
coedge $-1 $142 $321 $323 $324 forward $89 $-1 #
coedge $-1 $234 $233 $142 $227 reversed $235 $-1 #
edge $-1 $325 -23.942352032326568 $326 23.942352032326568 $226 $327 forward 7 unknown #
coedge $-1 $144 $143 $328 $329 forward $56 $-1 #
coedge $-1 $330 $331 $143 $230 reversed $315 $-1 #
edge $-1 $237 -44.122440260017697 $332 44.122440260017697 $229 $333 forward 7 unknown #
coedge $-1 $223 $334 $144 $232 reversed $140 $-1 #
edge $-1 $335 -44.122440260017697 $236 44.122440260017697 $231 $336 forward 7 unknown #
coedge $-1 $226 $145 $334 $337 forward $235 $-1 #
coedge $-1 $145 $226 $330 $338 reversed $235 $-1 #
loop $-1 $-1 $233 $314 #
vertex $-1 $146 $339 #
vertex $-1 $146 $340 #
straight-curve $-1 44.122440260017697 0 5.8022957015748178 0 1 0 I I #
face $-1 $-1 $251 $34 $-1 $341 forward single #
loop $-1 $-1 $342 $147 #
plane-surface $-1 0 23.942352032326568 0 0 -1 0 0 0 -1 forward_v I I I I #
coedge $-1 $343 $344 $345 $346 reversed $148 $-1 #
coedge $-1 $347 $150 $152 $249 forward $93 $-1 #
coedge $-1 $150 $347 $343 $348 forward $93 $-1 #
coedge $-1 $345 $153 $150 $246 forward $251 $-1 #
edge $-1 $253 -18.41272627029916 $349 -2.6933579086122634 $245 $350 forward 7 unknown #
coedge $-1 $351 $352 $151 $248 forward $240 $-1 #
edge $-1 $353 -45.075251214704359 $252 -40.471972381810801 $247 $354 forward 7 unknown #
edge $-1 $253 42.120774552905338 $353 47.884704064653143 $152 $355 forward 7 unknown #
coedge $-1 $153 $345 $351 $356 forward $251 $-1 #
loop $-1 $-1 $345 $239 #
vertex $-1 $248 $357 #
vertex $-1 $154 $358 #
straight-curve $-1 -28.965768359754872 32.800057079260611 5.8022957015748204 0 -1 0 I I #
coedge $-1 $255 $255 $-1 $359 reversed $157 $-1 #
edge $-1 $360 0 $360 6.2831853071796004 $158 $361 forward 7 unknown #
vertex $-1 $161 $362 #
ellipse-curve $-1 -24.474520256415758 22.207942377499354 3.5006562851280405 0 0.79863551827123203 0.60181501223851219 1 0 0 1 I I #
coedge $-1 $259 $259 $-1 $363 reversed $164 $-1 #
edge $-1 $364 0 $364 6.2831853071796004 $165 $365 forward 7 unknown #
vertex $-1 $168 $366 #
ellipse-curve $-1 -17.737648101407089 22.207942377499354 3.5006562851280405 0 0.79863551827123203 0.60181501223851219 1 0 0 1 I I #
face $-1 $-1 $367 $37 $-1 $368 reversed single #
loop $-1 $-1 $175 $169 #
plane-surface $-1 0 0 5.8022957015748178 0 0 1 1 0 0 forward_v I I I I #
coedge $-1 $369 $370 $371 $372 reversed $170 $-1 #
coedge $-1 $373 $172 $174 $273 forward $107 $-1 #
coedge $-1 $172 $373 $369 $374 forward $107 $-1 #
coedge $-1 $371 $175 $172 $270 forward $264 $-1 #
edge $-1 $276 2.6933579086122599 $375 18.412726270299157 $269 $376 forward 7 unknown #
coedge $-1 $377 $378 $173 $272 forward $367 $-1 #
edge $-1 $379 -45.075251214704359 $275 -40.471972381810801 $271 $380 forward 7 unknown #
edge $-1 $276 42.120774552905338 $379 47.884704064653143 $174 $381 forward 7 unknown #
coedge $-1 $175 $371 $377 $382 forward $264 $-1 #
vertex $-1 $176 $383 #
vertex $-1 $176 $384 #
straight-curve $-1 13.246399998067968 32.800057079260611 5.8022957015748204 0 -1 0 I I #
coedge $-1 $278 $278 $-1 $385 reversed $179 $-1 #
edge $-1 $386 0 $386 6.2831853071796004 $180 $387 forward 7 unknown #
vertex $-1 $183 $388 #
ellipse-curve $-1 17.737648101407082 22.207942377499354 3.5006562851280405 0 0.79863551827123203 0.60181501223851219 1 0 0 1 I I #
coedge $-1 $282 $282 $-1 $389 reversed $186 $-1 #
edge $-1 $390 0 $390 6.2831853071796004 $187 $391 forward 7 unknown #
vertex $-1 $190 $392 #
ellipse-curve $-1 24.474520256415758 22.207942377499354 3.5006562851280405 0 0.79863551827123203 0.60181501223851219 1 0 0 1 I I #
face $-1 $-1 $298 $40 $-1 $393 forward single #
loop $-1 $-1 $394 $191 #
plane-surface $-1 0 -23.942352032326568 0 0 1 0 0 0 1 forward_v I I I I #
coedge $-1 $395 $396 $397 $398 reversed $192 $-1 #
coedge $-1 $399 $194 $196 $296 forward $121 $-1 #
coedge $-1 $194 $399 $395 $400 forward $121 $-1 #
coedge $-1 $397 $197 $194 $293 forward $298 $-1 #
edge $-1 $300 -22.603790512900005 $401 2.4369432608156565 $292 $402 forward 7 unknown #
coedge $-1 $403 $404 $195 $295 forward $287 $-1 #
edge $-1 $405 -37.246522643029444 $299 -31.78708419013817 $294 $406 forward 7 unknown #
edge $-1 $300 -10.302396514505471 $405 0 $196 $407 forward 7 unknown #
coedge $-1 $197 $397 $403 $408 forward $298 $-1 #
loop $-1 $-1 $397 $286 #
vertex $-1 $295 $409 #
vertex $-1 $198 $410 #
straight-curve $-1 32.687214138942181 -35.352507403649824 5.8022957015748204 0 1 0 I I #
coedge $-1 $302 $302 $-1 $411 reversed $201 $-1 #
edge $-1 $412 0 $412 6.2831853071796004 $202 $413 forward 7 unknown #
vertex $-1 $205 $414 #
ellipse-curve $-1 12.654627119969646 -19.573888179861189 3.0725764751291815 0 -0.52991927123019833 0.84804809178421925 2.5 0 0 1 I I #
coedge $-1 $306 $306 $-1 $415 reversed $208 $-1 #
edge $-1 $416 0 $416 6.2831853071796004 $209 $417 forward 7 unknown #
vertex $-1 $212 $418 #
ellipse-curve $-1 20.166847252084338 -19.573888179861189 3.0725764751291815 0 -0.52991927123019833 0.84804809178421925 2.5 0 0 1 I I #
coedge $-1 $310 $310 $-1 $419 reversed $215 $-1 #
edge $-1 $420 0 $420 6.2831853071796004 $216 $421 forward 7 unknown #
vertex $-1 $219 $422 #
ellipse-curve $-1 27.67906738419903 -19.573888179861189 3.0725764751291815 0 -0.52991927123019833 0.84804809178421925 2.5 0 0 1 I I #
face $-1 $-1 $235 $33 $-1 $423 reversed single #
loop $-1 $-1 $330 $220 #
plane-surface $-1 0 23.942352032326568 0 0 -1 0 0 0 -1 forward_v I I I I #
coedge $-1 $424 $328 $331 $425 forward $221 $-1 #
coedge $-1 $334 $223 $224 $322 reversed $140 $-1 #
coedge $-1 $328 $424 $223 $320 reversed $221 $-1 #
edge $-1 $335 -5.8022957015748178 $426 5.8022957015748178 $319 $427 forward 7 unknown #
coedge $-1 $225 $224 $424 $428 forward $89 $-1 #
edge $-1 $326 -44.122440260017697 $426 44.122440260017697 $318 $429 forward 7 unknown #
coedge $-1 $331 $330 $225 $324 reversed $315 $-1 #
edge $-1 $430 -44.122440260017697 $325 44.122440260017697 $323 $431 forward 7 unknown #
vertex $-1 $227 $432 #
vertex $-1 $337 $433 #
straight-curve $-1 44.122440260017697 0 -5.8022957015748178 0 -1 0 I I #
coedge $-1 $317 $319 $228 $329 reversed $221 $-1 #
edge $-1 $332 -23.942352032326568 $335 23.942352032326568 $328 $434 forward 7 unknown #
coedge $-1 $323 $229 $234 $338 forward $315 $-1 #
coedge $-1 $229 $323 $317 $425 reversed $315 $-1 #
vertex $-1 $230 $435 #
straight-curve $-1 0 23.942352032326568 5.8022957015748178 -1 0 0 I I #
coedge $-1 $231 $318 $233 $337 reversed $140 $-1 #
vertex $-1 $329 $436 #
straight-curve $-1 0 -23.942352032326568 5.8022957015748178 1 0 0 I I #
edge $-1 $236 -5.8022957015748178 $326 5.8022957015748178 $233 $437 forward 7 unknown #
edge $-1 $237 -5.8022957015748178 $325 5.8022957015748178 $234 $438 forward 7 unknown #
point $-1 44.122440260017697 -23.942352032326568 5.8022957015748178 #
point $-1 44.122440260017697 23.942352032326568 5.8022957015748178 #
plane-surface $-1 0 0 5.8022957015748178 0 0 1 1 0 0 forward_v I I I I #
coedge $-1 $352 $351 $344 $439 forward $240 $-1 #
coedge $-1 $344 $242 $244 $348 reversed $148 $-1 #
coedge $-1 $242 $343 $342 $439 reversed $148 $-1 #
coedge $-1 $250 $245 $242 $346 forward $251 $-1 #
edge $-1 $349 -12.326524356588472 $440 -8.8577050469340435 $345 $441 forward 7 unknown #
coedge $-1 $244 $243 $352 $442 reversed $93 $-1 #
edge $-1 $443 -47.884704064653143 $349 -42.120774552905338 $343 $444 forward 7 unknown #
vertex $-1 $246 $445 #
straight-curve $-1 -10.553042089455712 20.47353272267214 5.8022957015748204 1 0 0 I I #
coedge $-1 $342 $247 $250 $356 reversed $240 $-1 #
coedge $-1 $247 $342 $347 $442 forward $240 $-1 #
vertex $-1 $248 $446 #
straight-curve $-1 -28.965768359754872 23.942352032326568 46.274268083385621 0 0 1 I I #
straight-curve $-1 -28.965768359754872 -4.8753817303801981 39.441442316620098 0 0.60181501223851219 -0.79863551827123203 I I #
edge $-1 $440 13.246399998067975 $252 28.965768359754872 $351 $447 forward 7 unknown #
point $-1 -28.965768359754872 23.942352032326568 5.8022957015748178 #
point $-1 -28.965768359754872 20.47353272267214 5.8022957015748204 #
edge $-1 $448 1 $448 0 $255 $-1 forward 7 unknown #
vertex $-1 $256 $449 #
ellipse-curve $-1 -24.474520256415758 19.213747725911343 1.2443688427782147 0 0.79863551827123203 0.60181501223851219 1 0 0 1 I I #
point $-1 -23.474520256415758 22.207942377499354 3.5006562851280405 #
edge $-1 $450 1 $450 0 $259 $-1 forward 7 unknown #
vertex $-1 $260 $451 #
ellipse-curve $-1 -17.737648101407089 19.213747725911343 1.2443688427782147 0 0.79863551827123203 0.60181501223851219 1 0 0 1 I I #
point $-1 -16.737648101407089 22.207942377499354 3.5006562851280405 #
loop $-1 $-1 $271 $263 #
plane-surface $-1 0 23.942352032326568 0 0 -1 0 0 0 -1 forward_v I I I I #
coedge $-1 $370 $266 $268 $374 reversed $170 $-1 #
coedge $-1 $266 $369 $452 $453 reversed $170 $-1 #
coedge $-1 $274 $269 $266 $372 forward $264 $-1 #
edge $-1 $375 -12.326524356588472 $454 -8.8577050469340435 $371 $455 forward 7 unknown #
coedge $-1 $268 $267 $378 $456 reversed $107 $-1 #
edge $-1 $457 -47.884704064653143 $375 -42.120774552905338 $369 $458 forward 7 unknown #
vertex $-1 $270 $459 #
straight-curve $-1 10.553042089455708 20.47353272267214 5.8022957015748204 1 0 0 I I #
coedge $-1 $452 $271 $274 $382 reversed $367 $-1 #
coedge $-1 $271 $452 $373 $456 forward $367 $-1 #
vertex $-1 $272 $460 #
straight-curve $-1 13.246399998067968 23.942352032326568 46.274268083385621 0 0 1 I I #
straight-curve $-1 13.246399998067968 -4.8753817303801981 39.441442316620098 0 0.60181501223851219 -0.79863551827123203 I I #
edge $-1 $454 -28.965768359754865 $275 -13.246399998067968 $377 $461 forward 7 unknown #
point $-1 13.246399998067968 23.942352032326568 5.8022957015748178 #
point $-1 13.246399998067968 20.47353272267214 5.8022957015748204 #
edge $-1 $462 1 $462 0 $278 $-1 forward 7 unknown #
vertex $-1 $279 $463 #
ellipse-curve $-1 17.737648101407082 19.213747725911343 1.2443688427782147 0 0.79863551827123203 0.60181501223851219 1 0 0 1 I I #
point $-1 18.737648101407082 22.207942377499354 3.5006562851280405 #
edge $-1 $464 1 $464 0 $282 $-1 forward 7 unknown #
vertex $-1 $283 $465 #
ellipse-curve $-1 24.474520256415758 19.213747725911343 1.2443688427782147 0 0.79863551827123203 0.60181501223851219 1 0 0 1 I I #
point $-1 25.474520256415758 22.207942377499354 3.5006562851280405 #
plane-surface $-1 0 0 5.8022957015748178 0 0 1 1 0 0 forward_v I I I I #
coedge $-1 $404 $403 $396 $466 forward $287 $-1 #
coedge $-1 $396 $289 $291 $400 reversed $192 $-1 #
coedge $-1 $289 $395 $394 $466 reversed $192 $-1 #
coedge $-1 $297 $292 $289 $398 forward $298 $-1 #
edge $-1 $401 -20.147083076254013 $467 -11.410155371323256 $397 $468 forward 7 unknown #
coedge $-1 $291 $290 $404 $469 reversed $121 $-1 #
edge $-1 $470 0 $401 10.302396514505471 $395 $471 forward 7 unknown #
vertex $-1 $293 $472 #
straight-curve $-1 10.083423626042176 -15.205424327395814 5.8022957015748178 -1 0 0 I I #
coedge $-1 $394 $294 $297 $408 reversed $287 $-1 #
coedge $-1 $294 $394 $399 $469 forward $287 $-1 #
vertex $-1 $295 $473 #
straight-curve $-1 32.687214138942181 -23.942352032326568 37.589379891712987 0 0 1 I I #
straight-curve $-1 32.687214138942181 -23.942352032326568 0.3428572486835435 0 -0.84804809178421925 -0.52991927123019833 I I #
edge $-1 $467 7.6464803652265196 $299 32.687214138942181 $403 $474 forward 7 unknown #
point $-1 32.687214138942181 -23.942352032326568 5.8022957015748178 #
point $-1 32.687214138942181 -15.205424327395811 5.8022957015748178 #
edge $-1 $475 1 $475 0 $302 $-1 forward 7 unknown #
vertex $-1 $303 $476 #
ellipse-curve $-1 12.654627119969646 -17.038711173786602 -0.98455475043600105 0 -0.52991927123019833 0.84804809178421925 2.5 0 0 1 I I #
point $-1 15.154627119969646 -19.573888179861186 3.0725764751291771 #
edge $-1 $477 1 $477 0 $306 $-1 forward 7 unknown #
vertex $-1 $307 $478 #
ellipse-curve $-1 20.166847252084338 -17.038711173786602 -0.98455475043600105 0 -0.52991927123019833 0.84804809178421925 2.5 0 0 1 I I #
point $-1 22.666847252084338 -19.573888179861186 3.0725764751291771 #
edge $-1 $479 1 $479 0 $310 $-1 forward 7 unknown #
vertex $-1 $311 $480 #
ellipse-curve $-1 27.67906738419903 -17.038711173786602 -0.98455475043600105 0 -0.52991927123019833 0.84804809178421925 2.5 0 0 1 I I #
point $-1 30.17906738419903 -19.573888179861186 3.0725764751291771 #
plane-surface $-1 44.122440260017697 0 0 -1 0 0 0 0 1 forward_v I I I I #
coedge $-1 $319 $317 $321 $428 reversed $221 $-1 #
edge $-1 $332 -5.8022957015748178 $430 5.8022957015748178 $331 $481 forward 7 unknown #
vertex $-1 $428 $482 #
straight-curve $-1 -44.122440260017697 -23.942352032326568 0 0 0 -1 I I #
edge $-1 $426 -23.942352032326568 $430 23.942352032326568 $424 $483 forward 7 unknown #
straight-curve $-1 0 -23.942352032326568 -5.8022957015748178 -1 0 0 I I #
vertex $-1 $324 $484 #
straight-curve $-1 0 23.942352032326568 -5.8022957015748178 1 0 0 I I #
point $-1 44.122440260017697 23.942352032326568 -5.8022957015748178 #
point $-1 44.122440260017697 -23.942352032326568 -5.8022957015748178 #
straight-curve $-1 -44.122440260017697 0 5.8022957015748178 0 -1 0 I I #
point $-1 -44.122440260017697 23.942352032326568 5.8022957015748178 #
point $-1 -44.122440260017697 -23.942352032326568 5.8022957015748178 #
straight-curve $-1 44.122440260017697 -23.942352032326568 0 0 0 -1 I I #
straight-curve $-1 44.122440260017697 23.942352032326568 0 0 0 -1 I I #
edge $-1 $440 40.471972381810801 $443 45.075251214704359 $342 $485 forward 7 unknown #
vertex $-1 $356 $486 #
straight-curve $-1 -13.246399998067975 32.800057079260611 5.8022957015748204 0 1 0 I I #
edge $-1 $443 2.6933579086122634 $353 18.41272627029916 $352 $487 forward 7 unknown #
vertex $-1 $442 $488 #
straight-curve $-1 -13.246399998067975 -4.8753817303801981 39.441442316620098 0 -0.60181501223851219 0.79863551827123203 I I #
point $-1 -13.246399998067975 20.47353272267214 5.8022957015748204 #
point $-1 -28.965768359754872 23.942352032326568 1.1990168686812623 #
straight-curve $-1 0 23.942352032326568 5.8022957015748178 -1 0 0 I I #
vertex $-1 $359 $489 #
point $-1 -23.474520256415758 19.213747725911343 1.2443688427782147 #
vertex $-1 $363 $490 #
point $-1 -16.737648101407089 19.213747725911343 1.2443688427782147 #
coedge $-1 $378 $377 $370 $453 forward $367 $-1 #
edge $-1 $454 40.471972381810801 $457 45.075251214704359 $452 $491 forward 7 unknown #
vertex $-1 $382 $492 #
straight-curve $-1 28.965768359754865 32.800057079260611 5.8022957015748204 0 1 0 I I #
edge $-1 $457 -18.412726270299157 $379 -2.6933579086122599 $378 $493 forward 7 unknown #
vertex $-1 $456 $494 #
straight-curve $-1 28.965768359754865 -4.8753817303801981 39.441442316620098 0 -0.60181501223851219 0.79863551827123203 I I #
point $-1 28.965768359754865 20.47353272267214 5.8022957015748204 #
point $-1 13.246399998067968 23.942352032326568 1.1990168686812623 #
straight-curve $-1 0 23.942352032326568 5.8022957015748178 -1 0 0 I I #
vertex $-1 $385 $495 #
point $-1 18.737648101407082 19.213747725911343 1.2443688427782147 #
vertex $-1 $389 $496 #
point $-1 25.474520256415758 19.213747725911343 1.2443688427782147 #
edge $-1 $467 31.78708419013817 $470 37.246522643029444 $394 $497 forward 7 unknown #
vertex $-1 $408 $498 #
straight-curve $-1 7.6464803652265196 -35.352507403649824 5.8022957015748204 0 -1 0 I I #
edge $-1 $470 -2.4369432608156565 $405 22.603790512900005 $404 $499 forward 7 unknown #
vertex $-1 $469 $500 #
straight-curve $-1 7.6464803652265196 -23.942352032326568 0.3428572486835435 0 0.84804809178421925 0.52991927123019833 I I #
point $-1 7.6464803652265196 -15.205424327395811 5.8022957015748178 #
point $-1 32.687214138942181 -23.942352032326568 0.3428572486835435 #
straight-curve $-1 0 -23.942352032326568 5.8022957015748178 1 0 0 I I #
vertex $-1 $411 $501 #
point $-1 15.154627119969646 -17.038711173786602 -0.98455475043600105 #
vertex $-1 $415 $502 #
point $-1 22.666847252084338 -17.038711173786602 -0.98455475043600105 #
vertex $-1 $419 $503 #
point $-1 30.17906738419903 -17.038711173786602 -0.98455475043600105 #
straight-curve $-1 -44.122440260017697 23.942352032326568 0 0 0 -1 I I #
point $-1 -44.122440260017697 -23.942352032326568 -5.8022957015748178 #
straight-curve $-1 -44.122440260017697 0 -5.8022957015748178 0 1 0 I I #
point $-1 -44.122440260017697 23.942352032326568 -5.8022957015748178 #
straight-curve $-1 -13.246399998067975 23.942352032326568 46.274268083385621 0 0 -1 I I #
point $-1 -13.246399998067975 23.942352032326568 5.8022957015748178 #
straight-curve $-1 -10.553042089455712 23.942352032326568 1.1990168686812659 -1 0 0 I I #
point $-1 -13.246399998067975 23.942352032326568 1.1990168686812623 #
point $-1 -24.474520256415758 18.41511220764011 0.6425538305397025 #
point $-1 -17.737648101407089 18.41511220764011 0.6425538305397025 #
straight-curve $-1 28.965768359754865 23.942352032326568 46.274268083385621 0 0 -1 I I #
point $-1 28.965768359754865 23.942352032326568 5.8022957015748178 #
straight-curve $-1 10.553042089455708 23.942352032326568 1.1990168686812659 -1 0 0 I I #
point $-1 28.965768359754865 23.942352032326568 1.1990168686812623 #
point $-1 17.737648101407082 18.41511220764011 0.6425538305397025 #
point $-1 24.474520256415758 18.41511220764011 0.6425538305397025 #
straight-curve $-1 7.6464803652265196 -23.942352032326568 37.589379891712987 0 0 -1 I I #
point $-1 7.6464803652265196 -23.942352032326568 5.8022957015748178 #
straight-curve $-1 10.083423626042176 -23.942352032326568 0.3428572486835445 1 0 0 I I #
point $-1 7.6464803652265196 -23.942352032326568 0.3428572486835435 #
point $-1 12.654627119969646 -15.713912995711105 -3.1046749798965494 #
point $-1 20.166847252084338 -15.713912995711105 -3.1046749798965494 #
point $-1 27.67906738419903 -15.713912995711105 -3.1046749798965494 #
End-of-ACIS-data 