500 0 6 0           
7 Unknown 11 ACIS 5.0 NT 24 Thu Mar 25 18:40:01 1999 
-1 9.9999999999999995e-007 1e-010 
body $-1 $6 $-1 $7 #
body $-1 $8 $-1 $9 #
body $-1 $10 $-1 $11 #
body $-1 $12 $-1 $13 #
body $-1 $14 $-1 $15 #
body $-1 $16 $-1 $17 #
lump $-1 $-1 $18 $0 #
transform $-1 1 0 0 0 1 0 0 0 1 64.859157078768277 35.499437443570109 10.201199468021366 1 rotate no_reflect no_shear #
lump $-1 $-1 $19 $1 #
transform $-1 1 0 0 0 1 0 0 0 1 64.859157078768277 35.499437443570109 10.201199468021366 1 rotate no_reflect no_shear #
lump $-1 $-1 $20 $2 #
transform $-1 1 0 0 0 1 0 0 0 1 64.859157078768277 35.499437443570109 10.201199468021366 1 rotate no_reflect no_shear #
lump $-1 $-1 $21 $3 #
transform $-1 1 0 0 0 1 0 0 0 1 64.859157078768277 35.499437443570109 10.201199468021366 1 rotate no_reflect no_shear #
lump $-1 $-1 $22 $4 #
transform $-1 1 0 0 0 1 0 0 0 1 64.859157078768277 35.499437443570109 10.201199468021366 1 rotate no_reflect no_shear #
lump $-1 $-1 $23 $5 #
transform $-1 1 0 0 0 1 0 0 0 1 64.859157078768277 35.499437443570109 10.201199468021366 1 rotate no_reflect no_shear #
shell $-1 $-1 $-1 $24 $-1 $6 #
shell $-1 $-1 $-1 $25 $-1 $8 #
shell $-1 $-1 $-1 $26 $-1 $10 #
shell $-1 $-1 $-1 $27 $-1 $12 #
shell $-1 $-1 $-1 $28 $-1 $14 #
shell $-1 $-1 $-1 $29 $-1 $16 #
face $-1 $30 $31 $18 $-1 $32 forward single #
face $-1 $33 $34 $19 $-1 $35 reversed single #
face $-1 $36 $37 $20 $-1 $38 reversed single #
face $-1 $39 $40 $21 $-1 $41 forward single #
face $-1 $42 $43 $22 $-1 $44 forward single #
face $-1 $45 $46 $23 $-1 $47 forward single #
face $-1 $48 $49 $18 $-1 $50 reversed single #
loop $-1 $-1 $51 $24 #
plane-surface $-1 0 0 10.201199468021366 0 0 1 1 0 0 forward_v I I I I #
face $-1 $52 $53 $19 $-1 $54 reversed single #
loop $-1 $-1 $55 $25 #
plane-surface $-1 -60.705587426783971 0 7.2011994680213665 0 0 1 1 0 0 forward_v I I I I #
face $-1 $56 $57 $20 $-1 $58 reversed single #
loop $-1 $-1 $59 $26 #
plane-surface $-1 -7.3587985365779254 -144.29037068930154 71.001287646409153 -1 0 0 0 -0.83867057594974714 0.54463902268945019 forward_v I I I I #
face $-1 $60 $61 $21 $-1 $62 forward single #
loop $-1 $63 $64 $27 #
cone-surface $-1 -29.468104359639099 -30.476355740063855 4.0913183855636985 0 0.83867057594974714 -0.54463902268945019 1.5 0 0 1 I I 0 1 1.5 forward I I I I #
face $-1 $65 $66 $22 $-1 $67 forward single #
loop $-1 $68 $69 $28 #
cone-surface $-1 -21.177114675991156 -30.476355740063855 4.0913183855636985 0 0.83867057594974714 -0.54463902268945019 1.5 0 0 1 I I 0 1 1.5 forward I I I I #
face $-1 $70 $71 $23 $-1 $72 forward single #
loop $-1 $73 $74 $29 #
cone-surface $-1 -12.886124992343213 -30.476355740063855 4.0913183855636985 0 0.83867057594974714 -0.54463902268945019 1.5 0 0 1 I I 0 1 1.5 forward I I I I #
face $-1 $75 $76 $18 $-1 $77 reversed single #
loop $-1 $-1 $78 $30 #
plane-surface $-1 0 0 -10.201199468021366 0 0 1 1 0 0 forward_v I I I I #
coedge $-1 $79 $80 $81 $82 forward $31 $-1 #
face $-1 $83 $84 $19 $-1 $85 reversed single #
loop $-1 $-1 $86 $33 #
plane-surface $-1 -56.552017774799666 0 8.7011994680213665 -1 0 0 0 0 1 forward_v I I I I #
coedge $-1 $87 $88 $89 $90 forward $34 $-1 #
face $-1 $91 $92 $20 $-1 $93 reversed single #
loop $-1 $-1 $94 $36 #
plane-surface $-1 -21.177114675991163 -35.499437443570116 0.35163179872537853 0 -0.83867057594974714 0.54463902268945019 1 0 0 forward_v I I I I #
coedge $-1 $95 $96 $97 $98 reversed $37 $-1 #
face $-1 $-1 $99 $21 $-1 $100 forward single #
loop $-1 $101 $102 $39 #
cone-surface $-1 -29.468104359639099 -28.022463018770907 2.4977418707369416 0 0.83867057594974714 -0.54463902268945019 0.75 0 0 1 I I -0.70710678118654757 0.70710678118654757 0.75 forward I I I I #
loop $-1 $-1 $103 $27 #
coedge $-1 $64 $64 $104 $105 reversed $40 $-1 #
face $-1 $-1 $106 $22 $-1 $107 forward single #
loop $-1 $108 $109 $42 #
cone-surface $-1 -21.177114675991156 -28.022463018770907 2.4977418707369416 0 0.83867057594974714 -0.54463902268945019 0.75 0 0 1 I I -0.70710678118654757 0.70710678118654757 0.75 forward I I I I #
loop $-1 $-1 $110 $28 #
coedge $-1 $69 $69 $111 $112 reversed $43 $-1 #
face $-1 $-1 $113 $23 $-1 $114 forward single #
loop $-1 $115 $116 $45 #
cone-surface $-1 -12.886124992343213 -28.022463018770907 2.4977418707369416 0 0.83867057594974714 -0.54463902268945019 0.75 0 0 1 I I -0.70710678118654757 0.70710678118654757 0.75 forward I I I I #
loop $-1 $-1 $117 $29 #
coedge $-1 $74 $74 $118 $119 reversed $46 $-1 #
face $-1 $120 $121 $18 $-1 $122 reversed single #
loop $-1 $-1 $123 $48 #
plane-surface $-1 0 -35.499437443570109 0 0 1 0 0 0 1 forward_v I I I I #
coedge $-1 $124 $125 $126 $127 forward $49 $-1 #
coedge $-1 $128 $51 $129 $130 forward $31 $-1 #
coedge $-1 $51 $128 $131 $132 forward $31 $-1 #
coedge $-1 $133 $134 $51 $82 reversed $135 $-1 #
edge $-1 $136 -35.499437443570109 $137 35.499437443570109 $81 $138 forward 7 unknown #
face $-1 $139 $140 $19 $-1 $141 reversed single #
loop $-1 $-1 $142 $52 #
plane-surface $-1 0 35.499437443570109 0 0 -1 0 0 0 -1 forward_v I I I I #
coedge $-1 $89 $143 $144 $145 reversed $53 $-1 #
coedge $-1 $146 $55 $147 $148 reversed $34 $-1 #
coedge $-1 $55 $146 $149 $150 reversed $34 $-1 #
coedge $-1 $151 $86 $55 $90 reversed $53 $-1 #
edge $-1 $152 -35.499437443570109 $153 35.499437443570109 $89 $154 forward 7 unknown #
face $-1 $155 $156 $20 $-1 $157 reversed single #
loop $-1 $-1 $158 $56 #
plane-surface $-1 -34.995430815404404 -144.29037068930154 71.001287646409153 1 0 0 0 0.83867057594974714 -0.54463902268945019 forward_v I I I I #
coedge $-1 $159 $160 $161 $162 reversed $57 $-1 #
coedge $-1 $96 $59 $163 $164 reversed $37 $-1 #
coedge $-1 $59 $95 $159 $165 reversed $37 $-1 #
coedge $-1 $161 $166 $59 $98 forward $167 $-1 #
edge $-1 $168 36.645747901080661 $169 43.04213172943188 $97 $170 forward 7 unknown #
loop $-1 $-1 $104 $60 #
plane-surface $-1 -21.177114675991163 -35.499437443570116 0.35163179872537853 0 -0.83867057594974714 0.54463902268945019 1 0 0 forward_v I I I I #
loop $-1 $-1 $171 $39 #
coedge $-1 $102 $102 $103 $172 reversed $61 $-1 #
coedge $-1 $103 $103 $102 $172 forward $63 $-1 #
coedge $-1 $104 $104 $64 $105 forward $99 $-1 #
edge $-1 $173 -3.9962775262769978e-016 $173 6.2831853071796004 $104 $174 forward 7 unknown #
loop $-1 $-1 $111 $65 #
plane-surface $-1 -21.177114675991163 -35.499437443570116 0.35163179872537853 0 -0.83867057594974714 0.54463902268945019 1 0 0 forward_v I I I I #
loop $-1 $-1 $175 $42 #
coedge $-1 $109 $109 $110 $176 reversed $66 $-1 #
coedge $-1 $110 $110 $109 $176 forward $68 $-1 #
coedge $-1 $111 $111 $69 $112 forward $106 $-1 #
edge $-1 $177 -3.9962775262769978e-016 $177 6.2831853071796004 $111 $178 forward 7 unknown #
loop $-1 $-1 $118 $70 #
plane-surface $-1 -21.177114675991163 -35.499437443570116 0.35163179872537853 0 -0.83867057594974714 0.54463902268945019 1 0 0 forward_v I I I I #
loop $-1 $-1 $179 $45 #
coedge $-1 $116 $116 $117 $180 reversed $71 $-1 #
coedge $-1 $117 $117 $116 $180 forward $73 $-1 #
coedge $-1 $118 $118 $74 $119 forward $113 $-1 #
edge $-1 $181 -3.9962775262769978e-016 $181 6.2831853071796004 $118 $182 forward 7 unknown #
face $-1 $183 $184 $18 $-1 $185 reversed single #
loop $-1 $-1 $186 $75 #
plane-surface $-1 -64.859157078768277 0 0 1 0 0 0 0 -1 forward_v I I I I #
coedge $-1 $187 $131 $188 $189 forward $76 $-1 #
coedge $-1 $190 $78 $187 $191 forward $49 $-1 #
coedge $-1 $78 $190 $192 $193 forward $49 $-1 #
coedge $-1 $134 $133 $78 $127 reversed $135 $-1 #
edge $-1 $194 -35.499437443570109 $195 35.499437443570109 $126 $196 forward 7 unknown #
coedge $-1 $80 $79 $197 $198 forward $31 $-1 #
coedge $-1 $199 $200 $79 $130 reversed $184 $-1 #
edge $-1 $137 -64.859157078768277 $201 64.859157078768277 $129 $202 forward 7 unknown #
coedge $-1 $123 $203 $80 $132 reversed $76 $-1 #
edge $-1 $204 -64.859157078768277 $136 64.859157078768277 $131 $205 forward 7 unknown #
coedge $-1 $126 $81 $203 $206 forward $135 $-1 #
coedge $-1 $81 $126 $199 $207 reversed $135 $-1 #
loop $-1 $-1 $133 $183 #
vertex $-1 $82 $208 #
vertex $-1 $82 $209 #
straight-curve $-1 64.859157078768277 0 10.201199468021366 0 1 0 I I #
face $-1 $210 $211 $19 $-1 $212 forward single #
loop $-1 $-1 $213 $83 #
plane-surface $-1 -64.859157078768277 0 0 1 0 0 0 0 -1 forward_v I I I I #
coedge $-1 $149 $214 $151 $215 forward $84 $-1 #
coedge $-1 $86 $151 $216 $217 reversed $53 $-1 #
coedge $-1 $218 $147 $86 $145 forward $219 $-1 #
edge $-1 $153 2.8505997340106832 $220 5.8505997340106832 $144 $221 forward 7 unknown #
coedge $-1 $88 $87 $213 $222 reversed $34 $-1 #
coedge $-1 $144 $223 $87 $148 forward $219 $-1 #
edge $-1 $224 -34.506363365376288 $153 -26.19922406140768 $147 $225 forward 7 unknown #
coedge $-1 $226 $142 $88 $150 forward $84 $-1 #
edge $-1 $152 26.19922406140768 $227 34.506363365376288 $149 $228 forward 7 unknown #
coedge $-1 $143 $89 $142 $215 reversed $53 $-1 #
vertex $-1 $150 $229 #
vertex $-1 $148 $230 #
straight-curve $-1 -56.552017774799666 0 7.2011994680213665 0 -1 0 I I #
face $-1 $-1 $167 $20 $-1 $231 forward single #
loop $-1 $-1 $232 $91 #
plane-surface $-1 0 -35.499437443570109 0 0 1 0 0 0 1 forward_v I I I I #
coedge $-1 $233 $234 $235 $236 reversed $92 $-1 #
coedge $-1 $237 $94 $96 $165 forward $57 $-1 #
coedge $-1 $94 $237 $233 $238 forward $57 $-1 #
coedge $-1 $235 $97 $94 $162 forward $167 $-1 #
edge $-1 $169 -3.2297588014176561 $239 24.406873477408823 $161 $240 forward 7 unknown #
coedge $-1 $241 $242 $95 $164 forward $156 $-1 #
edge $-1 $243 -35.149012024479184 $168 -25.299444355183212 $163 $244 forward 7 unknown #
edge $-1 $169 -11.74426282708429 $243 -1.3041340139260937e-014 $96 $245 forward 7 unknown #
coedge $-1 $97 $235 $241 $246 forward $167 $-1 #
loop $-1 $-1 $235 $155 #
vertex $-1 $164 $247 #
vertex $-1 $98 $248 #
straight-curve $-1 -7.3587985365779254 -72.14518534465077 10.201199468021365 0 1 0 I I #
coedge $-1 $171 $171 $-1 $249 reversed $101 $-1 #
edge $-1 $250 0 $250 6.2831853071796004 $102 $251 forward 7 unknown #
vertex $-1 $105 $252 #
ellipse-curve $-1 -29.468104359639099 -32.3012455293945 5.2764156333733734 0 -0.83867057594974714 0.54463902268945019 1.5 0 0 1 I I #
coedge $-1 $175 $175 $-1 $253 reversed $108 $-1 #
edge $-1 $254 0 $254 6.2831853071796004 $109 $255 forward 7 unknown #
vertex $-1 $112 $256 #
ellipse-curve $-1 -21.177114675991156 -32.3012455293945 5.2764156333733734 0 -0.83867057594974714 0.54463902268945019 1.5 0 0 1 I I #
coedge $-1 $179 $179 $-1 $257 reversed $115 $-1 #
edge $-1 $258 0 $258 6.2831853071796004 $116 $259 forward 7 unknown #
vertex $-1 $119 $260 #
ellipse-curve $-1 -12.886124992343213 -32.3012455293945 5.2764156333733734 0 -0.83867057594974714 0.54463902268945019 1.5 0 0 1 I I #
face $-1 $-1 $135 $18 $-1 $261 reversed single #
loop $-1 $-1 $199 $120 #
plane-surface $-1 0 35.499437443570109 0 0 -1 0 0 0 -1 forward_v I I I I #
coedge $-1 $262 $197 $200 $263 forward $121 $-1 #
coedge $-1 $203 $123 $124 $191 reversed $76 $-1 #
coedge $-1 $197 $262 $123 $189 reversed $121 $-1 #
edge $-1 $204 -10.201199468021366 $264 10.201199468021366 $188 $265 forward 7 unknown #
coedge $-1 $125 $124 $262 $266 forward $49 $-1 #
edge $-1 $195 -64.859157078768277 $264 64.859157078768277 $187 $267 forward 7 unknown #
coedge $-1 $200 $199 $125 $193 reversed $184 $-1 #
edge $-1 $268 -64.859157078768277 $194 64.859157078768277 $192 $269 forward 7 unknown #
vertex $-1 $127 $270 #
vertex $-1 $206 $271 #
straight-curve $-1 64.859157078768277 0 -10.201199468021366 0 -1 0 I I #
coedge $-1 $186 $188 $128 $198 reversed $121 $-1 #
edge $-1 $201 -35.499437443570109 $204 35.499437443570109 $197 $272 forward 7 unknown #
coedge $-1 $192 $129 $134 $207 forward $184 $-1 #
coedge $-1 $129 $192 $186 $263 reversed $184 $-1 #
vertex $-1 $130 $273 #
straight-curve $-1 0 35.499437443570109 10.201199468021366 -1 0 0 I I #
coedge $-1 $131 $187 $133 $206 reversed $76 $-1 #
vertex $-1 $198 $274 #
straight-curve $-1 0 -35.499437443570109 10.201199468021366 1 0 0 I I #
edge $-1 $136 -10.201199468021366 $195 10.201199468021366 $133 $275 forward 7 unknown #
edge $-1 $137 -10.201199468021366 $194 10.201199468021366 $134 $276 forward 7 unknown #
point $-1 64.859157078768277 -35.499437443570109 10.201199468021366 #
point $-1 64.859157078768277 35.499437443570109 10.201199468021366 #
face $-1 $-1 $219 $19 $-1 $277 reversed single #
loop $-1 $-1 $216 $139 #
plane-surface $-1 0 0 10.201199468021366 0 0 1 1 0 0 forward_v I I I I #
coedge $-1 $278 $279 $146 $222 forward $140 $-1 #
coedge $-1 $142 $226 $280 $281 reversed $84 $-1 #
edge $-1 $282 -5.8505997340106832 $152 -2.8505997340106832 $142 $283 forward 7 unknown #
coedge $-1 $280 $284 $143 $217 forward $211 $-1 #
edge $-1 $220 -35.499437443570109 $282 35.499437443570109 $216 $285 forward 7 unknown #
coedge $-1 $223 $144 $284 $286 reversed $219 $-1 #
loop $-1 $-1 $144 $210 #
vertex $-1 $145 $287 #
straight-curve $-1 -56.552017774799666 -35.499437443570109 4.3505997340106832 0 0 1 I I #
edge $-1 $227 -35.499437443570109 $224 35.499437443570109 $213 $288 forward 7 unknown #
coedge $-1 $147 $218 $278 $289 forward $219 $-1 #
vertex $-1 $222 $290 #
straight-curve $-1 -30.352793713391986 -35.499437443570109 7.2011994680213665 1 0 0 I I #
coedge $-1 $214 $149 $279 $291 reversed $84 $-1 #
vertex $-1 $222 $292 #
straight-curve $-1 -30.352793713391986 35.499437443570109 7.2011994680213665 -1 0 0 I I #
point $-1 -56.552017774799666 35.499437443570109 7.2011994680213665 #
point $-1 -56.552017774799666 -35.499437443570109 7.2011994680213665 #
plane-surface $-1 0 0 10.201199468021366 0 0 1 1 0 0 forward_v I I I I #
coedge $-1 $242 $241 $234 $293 forward $156 $-1 #
coedge $-1 $234 $158 $160 $238 reversed $92 $-1 #
coedge $-1 $158 $233 $232 $293 reversed $92 $-1 #
coedge $-1 $166 $161 $158 $236 forward $167 $-1 #
edge $-1 $239 -43.04213172943188 $294 -36.645747901080661 $235 $295 forward 7 unknown #
coedge $-1 $160 $159 $242 $296 reversed $57 $-1 #
edge $-1 $297 1.3041340139260937e-014 $239 11.74426282708429 $233 $298 forward 7 unknown #
vertex $-1 $162 $299 #
straight-curve $-1 -10.588557337995582 -29.10305361521889 10.201199468021366 -1 0 0 I I #
coedge $-1 $232 $163 $166 $246 reversed $156 $-1 #
coedge $-1 $163 $232 $237 $296 forward $156 $-1 #
vertex $-1 $164 $300 #
straight-curve $-1 -7.3587985365779254 -35.499437443570109 35.500643823204577 0 0 1 I I #
straight-curve $-1 -7.3587985365779254 -35.499437443570116 0.35163179872537853 0 -0.54463902268945019 -0.83867057594974714 I I #
edge $-1 $294 -34.995430815404404 $168 -7.3587985365779254 $241 $301 forward 7 unknown #
point $-1 -7.3587985365779254 -35.499437443570109 10.201199468021366 #
point $-1 -7.3587985365779254 -29.10305361521889 10.201199468021366 #
edge $-1 $302 1 $302 0 $171 $-1 forward 7 unknown #
vertex $-1 $172 $303 #
ellipse-curve $-1 -29.468104359639099 -28.651465950733218 2.9062211377540295 0 -0.83867057594974714 0.54463902268945019 1.5 0 0 1 I I #
point $-1 -27.968104359639099 -32.301245529394492 5.2764156333733681 #
edge $-1 $304 1 $304 0 $175 $-1 forward 7 unknown #
vertex $-1 $176 $305 #
ellipse-curve $-1 -21.177114675991156 -28.651465950733218 2.9062211377540295 0 -0.83867057594974714 0.54463902268945019 1.5 0 0 1 I I #
point $-1 -19.677114675991156 -32.301245529394492 5.2764156333733681 #
edge $-1 $306 1 $306 0 $179 $-1 forward 7 unknown #
vertex $-1 $180 $307 #
ellipse-curve $-1 -12.886124992343213 -28.651465950733218 2.9062211377540295 0 -0.83867057594974714 0.54463902268945019 1.5 0 0 1 I I #
point $-1 -11.386124992343213 -32.301245529394492 5.2764156333733681 #
plane-surface $-1 64.859157078768277 0 0 -1 0 0 0 0 1 forward_v I I I I #
coedge $-1 $188 $186 $190 $266 reversed $121 $-1 #
edge $-1 $201 -10.201199468021366 $268 10.201199468021366 $200 $308 forward 7 unknown #
vertex $-1 $266 $309 #
straight-curve $-1 -64.859157078768277 -35.499437443570109 0 0 0 -1 I I #
edge $-1 $264 -35.499437443570109 $268 35.499437443570109 $262 $310 forward 7 unknown #
straight-curve $-1 0 -35.499437443570109 -10.201199468021366 -1 0 0 I I #
vertex $-1 $193 $311 #
straight-curve $-1 0 35.499437443570109 -10.201199468021366 1 0 0 I I #
point $-1 64.859157078768277 35.499437443570109 -10.201199468021366 #
point $-1 64.859157078768277 -35.499437443570109 -10.201199468021366 #
straight-curve $-1 -64.859157078768277 0 10.201199468021366 0 -1 0 I I #
point $-1 -64.859157078768277 35.499437443570109 10.201199468021366 #
point $-1 -64.859157078768277 -35.499437443570109 10.201199468021366 #
straight-curve $-1 64.859157078768277 -35.499437443570109 0 0 0 -1 I I #
straight-curve $-1 64.859157078768277 35.499437443570109 0 0 0 -1 I I #
plane-surface $-1 0 -35.499437443570109 0 0 1 0 0 0 1 forward_v I I I I #
coedge $-1 $312 $213 $223 $289 reversed $140 $-1 #
coedge $-1 $213 $312 $226 $291 forward $140 $-1 #
coedge $-1 $313 $216 $214 $281 forward $211 $-1 #
edge $-1 $282 56.552017774799666 $314 64.859157078768277 $214 $315 forward 7 unknown #
vertex $-1 $281 $316 #
straight-curve $-1 -56.552017774799666 35.499437443570109 4.3505997340106832 0 0 -1 I I #
coedge $-1 $216 $313 $218 $286 forward $211 $-1 #
straight-curve $-1 -56.552017774799666 0 10.201199468021366 0 1 0 I I #
edge $-1 $317 -64.859157078768277 $220 -56.552017774799666 $218 $318 forward 7 unknown #
point $-1 -56.552017774799666 -35.499437443570109 10.201199468021366 #
straight-curve $-1 -64.859157078768277 0 7.2011994680213665 0 -1 0 I I #
edge $-1 $317 -10.201199468021366 $224 -7.2011994680213665 $278 $319 forward 7 unknown #
point $-1 -64.859157078768277 -35.499437443570109 7.2011994680213665 #
edge $-1 $314 -10.201199468021366 $227 -7.2011994680213665 $226 $320 forward 7 unknown #
point $-1 -64.859157078768277 35.499437443570109 7.2011994680213665 #
edge $-1 $294 25.299444355183212 $297 35.149012024479184 $232 $321 forward 7 unknown #
vertex $-1 $246 $322 #
straight-curve $-1 -34.995430815404404 -72.14518534465077 10.201199468021365 0 -1 0 I I #
edge $-1 $297 -24.406873477408823 $243 3.2297588014176561 $242 $323 forward 7 unknown #
vertex $-1 $296 $324 #
straight-curve $-1 -34.995430815404404 -35.499437443570116 0.35163179872537853 0 0.54463902268945019 0.83867057594974714 I I #
point $-1 -34.995430815404404 -29.10305361521889 10.201199468021366 #
point $-1 -7.3587985365779254 -35.499437443570109 0.35163179872538947 #
straight-curve $-1 0 -35.499437443570109 10.201199468021366 1 0 0 I I #
vertex $-1 $249 $325 #
point $-1 -27.968104359639099 -28.651465950733218 2.9062211377540295 #
vertex $-1 $253 $326 #
point $-1 -19.677114675991156 -28.651465950733218 2.9062211377540295 #
vertex $-1 $257 $327 #
point $-1 -11.386124992343213 -28.651465950733218 2.9062211377540295 #
straight-curve $-1 -64.859157078768277 35.499437443570109 0 0 0 -1 I I #
point $-1 -64.859157078768277 -35.499437443570109 -10.201199468021366 #
straight-curve $-1 -64.859157078768277 0 -10.201199468021366 0 1 0 I I #
point $-1 -64.859157078768277 35.499437443570109 -10.201199468021366 #
coedge $-1 $279 $278 $313 $328 reversed $140 $-1 #
coedge $-1 $284 $280 $312 $328 forward $211 $-1 #
vertex $-1 $281 $329 #
straight-curve $-1 0 35.499437443570109 10.201199468021366 -1 0 0 I I #
point $-1 -56.552017774799666 35.499437443570109 10.201199468021366 #
vertex $-1 $328 $330 #
straight-curve $-1 0 -35.499437443570109 10.201199468021366 1 0 0 I I #
straight-curve $-1 -64.859157078768277 -35.499437443570109 0 0 0 -1 I I #
straight-curve $-1 -64.859157078768277 35.499437443570109 0 0 0 -1 I I #
straight-curve $-1 -34.995430815404404 -35.499437443570109 35.500643823204577 0 0 -1 I I #
point $-1 -34.995430815404404 -35.499437443570109 10.201199468021366 #
straight-curve $-1 -10.588557337995582 -35.499437443570109 0.35163179872539918 1 0 0 I I #
point $-1 -34.995430815404404 -35.499437443570109 0.35163179872538947 #
point $-1 -29.468104359639099 -27.393460086808595 2.0892626037198538 #
point $-1 -21.177114675991156 -27.393460086808595 2.0892626037198538 #
point $-1 -12.886124992343213 -27.393460086808595 2.0892626037198538 #
edge $-1 $314 -35.499437443570109 $317 35.499437443570109 $312 $331 forward 7 unknown #
point $-1 -64.859157078768277 35.499437443570109 10.201199468021366 #
point $-1 -64.859157078768277 -35.499437443570109 10.201199468021366 #
straight-curve $-1 -64.859157078768277 0 10.201199468021366 0 -1 0 I I #
End-of-ACIS-data 