500 0 4 0           
7 Unknown 11 ACIS 5.0 NT 24 Fri Mar 26 03:31:43 1999 
-1 9.9999999999999995e-007 1e-010 
body $-1 $4 $-1 $5 #
body $-1 $6 $-1 $7 #
body $-1 $8 $-1 $9 #
body $-1 $10 $-1 $11 #
lump $-1 $-1 $12 $0 #
transform $-1 1 0 0 0 1 0 0 0 1 62.247993408001953 26.391234291288335 5.9859704085294361 1 rotate no_reflect no_shear #
lump $-1 $-1 $13 $1 #
transform $-1 1 0 0 0 1 0 0 0 1 62.247993408001953 26.391234291288335 5.9859704085294361 1 rotate no_reflect no_shear #
lump $-1 $-1 $14 $2 #
transform $-1 1 0 0 0 1 0 0 0 1 62.247993408001953 26.391234291288335 5.9859704085294361 1 rotate no_reflect no_shear #
lump $-1 $-1 $15 $3 #
transform $-1 1 0 0 0 1 0 0 0 1 62.247993408001953 26.391234291288335 5.9859704085294361 1 rotate no_reflect no_shear #
shell $-1 $-1 $-1 $16 $-1 $4 #
shell $-1 $-1 $-1 $17 $-1 $6 #
shell $-1 $-1 $-1 $18 $-1 $8 #
shell $-1 $-1 $-1 $19 $-1 $10 #
face $-1 $20 $21 $12 $-1 $22 forward single #
face $-1 $23 $24 $13 $-1 $25 forward single #
face $-1 $26 $27 $14 $-1 $28 reversed single #
face $-1 $29 $30 $15 $-1 $31 forward single #
face $-1 $32 $33 $12 $-1 $34 reversed single #
loop $-1 $-1 $35 $16 #
plane-surface $-1 0 0 5.9859704085294361 0 0 1 1 0 0 forward_v I I I I #
face $-1 $36 $37 $13 $-1 $38 forward single #
loop $-1 $-1 $39 $17 #
plane-surface $-1 0 -26.391234291288335 0 0 1 0 0 0 1 forward_v I I I I #
face $-1 $40 $41 $14 $-1 $42 reversed single #
loop $-1 $-1 $43 $18 #
plane-surface $-1 32.694111958730247 98.097597791754424 116.04673388484707 1 0 0 0 -0.81915205242281985 -0.57357642473473569 forward_v I I I I #
face $-1 $44 $45 $15 $-1 $46 forward single #
loop $-1 $47 $48 $19 #
cone-surface $-1 47.471052683366104 24.123941259005143 3.2301236864090939 0 -0.81915205242281985 -0.57357642473473569 1 0 0 1 I I 0 1 1 forward I I I I #
face $-1 $49 $50 $12 $-1 $51 reversed single #
loop $-1 $-1 $52 $20 #
plane-surface $-1 0 0 -5.9859704085294361 0 0 1 1 0 0 forward_v I I I I #
coedge $-1 $53 $54 $55 $56 forward $21 $-1 #
face $-1 $57 $58 $13 $-1 $59 reversed single #
loop $-1 $-1 $60 $23 #
plane-surface $-1 0 0 5.9859704085294361 0 0 1 1 0 0 forward_v I I I I #
coedge $-1 $61 $62 $63 $64 forward $24 $-1 #
face $-1 $65 $66 $14 $-1 $67 reversed single #
loop $-1 $-1 $68 $26 #
plane-surface $-1 47.471052683366104 -3.8835453269795011 44.638770873100754 0 0.81915205242281985 0.57357642473473569 1 0 0 forward_v I I I I #
coedge $-1 $69 $70 $71 $72 reversed $27 $-1 #
face $-1 $-1 $73 $15 $-1 $74 forward single #
loop $-1 $75 $76 $29 #
cone-surface $-1 47.471052683366104 23.051971288977661 2.4795222553160592 0 -0.81915205242281985 -0.57357642473473569 0.5 0 0 1 I I -0.70710678118654746 0.70710678118654746 0.5 forward I I I I #
loop $-1 $-1 $77 $19 #
coedge $-1 $48 $48 $78 $79 reversed $30 $-1 #
face $-1 $80 $81 $12 $-1 $82 reversed single #
loop $-1 $-1 $83 $32 #
plane-surface $-1 0 -26.391234291288335 0 0 1 0 0 0 1 forward_v I I I I #
coedge $-1 $84 $85 $86 $87 forward $33 $-1 #
coedge $-1 $88 $35 $89 $90 forward $21 $-1 #
coedge $-1 $35 $88 $91 $92 forward $21 $-1 #
coedge $-1 $93 $94 $35 $56 reversed $95 $-1 #
edge $-1 $96 -26.391234291288335 $97 26.391234291288335 $55 $98 forward 7 unknown #
face $-1 $99 $100 $13 $-1 $101 reversed single #
loop $-1 $-1 $102 $36 #
plane-surface $-1 -62.247993408001953 0 0 1 0 0 0 0 -1 forward_v I I I I #
coedge $-1 $103 $104 $105 $106 forward $37 $-1 #
coedge $-1 $105 $39 $102 $107 reversed $24 $-1 #
coedge $-1 $39 $105 $108 $109 reversed $24 $-1 #
coedge $-1 $110 $111 $39 $64 reversed $100 $-1 #
edge $-1 $112 -62.247993408001953 $113 62.247993408001953 $63 $114 forward 7 unknown #
face $-1 $115 $116 $14 $-1 $117 forward single #
loop $-1 $-1 $118 $40 #
plane-surface $-1 62.247993408001953 0 0 -1 0 0 0 0 1 forward_v I I I I #
coedge $-1 $119 $120 $121 $122 reversed $41 $-1 #
coedge $-1 $70 $43 $123 $124 reversed $27 $-1 #
coedge $-1 $43 $69 $119 $125 reversed $27 $-1 #
coedge $-1 $121 $126 $43 $72 forward $116 $-1 #
edge $-1 $127 22.657564604588877 $128 25.867362781523116 $71 $129 forward 7 unknown #
loop $-1 $-1 $78 $44 #
plane-surface $-1 47.471052683366104 -3.8835453269795011 44.638770873100754 0 0.81915205242281985 0.57357642473473569 1 0 0 forward_v I I I I #
loop $-1 $-1 $130 $29 #
coedge $-1 $76 $76 $77 $131 reversed $45 $-1 #
coedge $-1 $77 $77 $76 $131 forward $47 $-1 #
coedge $-1 $78 $78 $48 $79 forward $73 $-1 #
edge $-1 $132 1.3101996345775673e-015 $132 6.2831853071796013 $78 $133 forward 7 unknown #
face $-1 $134 $135 $12 $-1 $136 reversed single #
loop $-1 $-1 $137 $49 #
plane-surface $-1 -62.247993408001953 0 0 1 0 0 0 0 -1 forward_v I I I I #
coedge $-1 $138 $91 $139 $140 forward $50 $-1 #
coedge $-1 $141 $52 $138 $142 forward $33 $-1 #
coedge $-1 $52 $141 $143 $144 forward $33 $-1 #
coedge $-1 $94 $93 $52 $87 reversed $95 $-1 #
edge $-1 $145 -26.391234291288335 $146 26.391234291288335 $86 $147 forward 7 unknown #
coedge $-1 $54 $53 $148 $149 forward $21 $-1 #
coedge $-1 $150 $151 $53 $90 reversed $135 $-1 #
edge $-1 $97 -62.247993408001953 $152 62.247993408001953 $89 $153 forward 7 unknown #
coedge $-1 $83 $154 $54 $92 reversed $50 $-1 #
edge $-1 $155 -62.247993408001953 $96 62.247993408001953 $91 $156 forward 7 unknown #
coedge $-1 $86 $55 $154 $157 forward $95 $-1 #
coedge $-1 $55 $86 $150 $158 reversed $95 $-1 #
loop $-1 $-1 $93 $134 #
vertex $-1 $56 $159 #
vertex $-1 $56 $160 #
straight-curve $-1 62.247993408001953 0 5.9859704085294361 0 1 0 I I #
face $-1 $161 $162 $13 $-1 $163 reversed single #
loop $-1 $-1 $110 $57 #
plane-surface $-1 0 -28.62914724812881 2.9859704085294361 0 0 1 1 0 0 forward_v I I I I #
coedge $-1 $164 $165 $61 $107 forward $58 $-1 #
coedge $-1 $166 $60 $165 $167 forward $37 $-1 #
coedge $-1 $60 $166 $168 $169 forward $37 $-1 #
coedge $-1 $62 $61 $60 $106 reversed $24 $-1 #
edge $-1 $170 -62.247993408001953 $171 62.247993408001953 $60 $172 forward 7 unknown #
edge $-1 $171 -5.9859704085294361 $113 -2.9859704085294361 $102 $173 forward 7 unknown #
coedge $-1 $168 $174 $62 $109 forward $175 $-1 #
edge $-1 $112 2.9859704085294361 $170 5.9859704085294361 $108 $176 forward 7 unknown #
coedge $-1 $177 $63 $174 $178 forward $100 $-1 #
coedge $-1 $63 $177 $164 $179 forward $100 $-1 #
vertex $-1 $109 $180 #
vertex $-1 $107 $181 #
straight-curve $-1 0 -26.391234291288335 2.9859704085294361 -1 0 0 I I #
face $-1 $-1 $182 $14 $-1 $183 reversed single #
loop $-1 $-1 $121 $65 #
plane-surface $-1 0 0 5.9859704085294361 0 0 1 1 0 0 forward_v I I I I #
coedge $-1 $184 $185 $120 $186 forward $66 $-1 #
coedge $-1 $187 $68 $70 $125 forward $41 $-1 #
coedge $-1 $68 $187 $118 $186 reversed $41 $-1 #
coedge $-1 $188 $71 $68 $122 forward $116 $-1 #
edge $-1 $128 8.9585856170471949 $189 38.512467066318905 $121 $190 forward 7 unknown #
coedge $-1 $191 $192 $69 $124 forward $182 $-1 #
edge $-1 $193 -56.621463540683465 $127 -52.037396533894096 $123 $194 forward 7 unknown #
edge $-1 $128 47.186356123075413 $193 52.782468582576669 $70 $195 forward 7 unknown #
coedge $-1 $71 $188 $191 $196 forward $116 $-1 #
vertex $-1 $124 $197 #
vertex $-1 $72 $198 #
straight-curve $-1 32.694111958730247 49.048798895877212 5.9859704085294325 0 -1 0 I I #
coedge $-1 $130 $130 $-1 $199 reversed $75 $-1 #
edge $-1 $200 0 $200 6.2831853071796004 $76 $201 forward 7 unknown #
vertex $-1 $79 $202 #
ellipse-curve $-1 47.471052683366104 24.786335202821213 3.6939369051347599 0 0.81915205242281985 0.57357642473473569 1 0 0 1 I I #
face $-1 $-1 $95 $12 $-1 $203 reversed single #
loop $-1 $-1 $150 $80 #
plane-surface $-1 0 26.391234291288335 0 0 -1 0 0 0 -1 forward_v I I I I #
coedge $-1 $204 $148 $151 $205 forward $81 $-1 #
coedge $-1 $154 $83 $84 $142 reversed $50 $-1 #
coedge $-1 $148 $204 $83 $140 reversed $81 $-1 #
edge $-1 $155 -5.9859704085294361 $206 5.9859704085294361 $139 $207 forward 7 unknown #
coedge $-1 $85 $84 $204 $208 forward $33 $-1 #
edge $-1 $146 -62.247993408001953 $206 62.247993408001953 $138 $209 forward 7 unknown #
coedge $-1 $151 $150 $85 $144 reversed $135 $-1 #
edge $-1 $210 -62.247993408001953 $145 62.247993408001953 $143 $211 forward 7 unknown #
vertex $-1 $87 $212 #
vertex $-1 $157 $213 #
straight-curve $-1 62.247993408001953 0 -5.9859704085294361 0 -1 0 I I #
coedge $-1 $137 $139 $88 $149 reversed $81 $-1 #
edge $-1 $152 -26.391234291288335 $155 26.391234291288335 $148 $214 forward 7 unknown #
coedge $-1 $143 $89 $94 $158 forward $135 $-1 #
coedge $-1 $89 $143 $137 $205 reversed $135 $-1 #
vertex $-1 $90 $215 #
straight-curve $-1 0 26.391234291288335 5.9859704085294361 -1 0 0 I I #
coedge $-1 $91 $138 $93 $157 reversed $50 $-1 #
vertex $-1 $149 $216 #
straight-curve $-1 0 -26.391234291288335 5.9859704085294361 1 0 0 I I #
edge $-1 $96 -5.9859704085294361 $146 5.9859704085294361 $93 $217 forward 7 unknown #
edge $-1 $97 -5.9859704085294361 $145 5.9859704085294361 $94 $218 forward 7 unknown #
point $-1 62.247993408001953 -26.391234291288335 5.9859704085294361 #
point $-1 62.247993408001953 26.391234291288335 5.9859704085294361 #
face $-1 $-1 $175 $13 $-1 $219 reversed single #
loop $-1 $-1 $220 $99 #
plane-surface $-1 0 -30.867060204969285 4.4859704085294361 0 1 0 0 0 1 forward_v I I I I #
coedge $-1 $221 $102 $111 $179 reversed $58 $-1 #
coedge $-1 $102 $221 $103 $167 reversed $58 $-1 #
coedge $-1 $104 $103 $222 $223 forward $37 $-1 #
edge $-1 $171 26.391234291288335 $224 30.867060204969285 $165 $225 forward 7 unknown #
coedge $-1 $226 $108 $104 $169 reversed $175 $-1 #
edge $-1 $227 -30.867060204969285 $170 -26.391234291288335 $168 $228 forward 7 unknown #
vertex $-1 $109 $229 #
vertex $-1 $167 $230 #
straight-curve $-1 0 -26.391234291288335 5.9859704085294361 -1 0 0 I I #
straight-curve $-1 -62.247993408001953 -26.391234291288335 0 0 0 -1 I I #
coedge $-1 $108 $226 $110 $178 reversed $175 $-1 #
loop $-1 $-1 $108 $161 #
straight-curve $-1 62.247993408001953 -26.391234291288335 0 0 0 1 I I #
coedge $-1 $111 $110 $231 $232 forward $100 $-1 #
edge $-1 $112 -2.237912956840475 $233 2.237912956840475 $174 $234 forward 7 unknown #
edge $-1 $235 -2.237912956840475 $113 2.237912956840475 $164 $236 forward 7 unknown #
point $-1 62.247993408001953 -26.391234291288335 2.9859704085294361 #
point $-1 -62.247993408001953 -26.391234291288335 2.9859704085294361 #
loop $-1 $-1 $123 $115 #
plane-surface $-1 0 26.391234291288335 0 0 -1 0 0 0 -1 forward_v I I I I #
coedge $-1 $185 $118 $237 $238 reversed $66 $-1 #
coedge $-1 $118 $184 $188 $239 reversed $66 $-1 #
edge $-1 $189 27.789630711937079 $240 33.385743171438335 $118 $241 forward 7 unknown #
coedge $-1 $120 $119 $192 $242 reversed $41 $-1 #
coedge $-1 $126 $121 $185 $239 forward $116 $-1 #
vertex $-1 $239 $243 #
straight-curve $-1 23.735526341683052 23.181436114354099 5.9859704085294396 1 0 0 I I #
coedge $-1 $237 $123 $126 $196 reversed $182 $-1 #
coedge $-1 $123 $237 $187 $242 forward $182 $-1 #
vertex $-1 $124 $244 #
straight-curve $-1 32.694111958730247 26.391234291288335 58.023366942423536 0 0 1 I I #
straight-curve $-1 32.694111958730247 -3.8835453269795011 44.638770873100754 0 0.57357642473473569 -0.81915205242281985 I I #
edge $-1 $245 -62.247993408001953 $127 -32.694111958730247 $191 $246 forward 7 unknown #
point $-1 32.694111958730247 26.391234291288335 5.9859704085294361 #
point $-1 32.694111958730247 23.181436114354096 5.9859704085294396 #
edge $-1 $247 1 $247 0 $130 $-1 forward 7 unknown #
vertex $-1 $131 $248 #
ellipse-curve $-1 47.471052683366104 23.461547315189073 2.7663104676834269 0 0.81915205242281985 0.57357642473473569 1 0 0 1 I I #
point $-1 48.471052683366104 24.786335202821217 3.6939369051347608 #
plane-surface $-1 62.247993408001953 0 0 -1 0 0 0 0 1 forward_v I I I I #
coedge $-1 $139 $137 $141 $208 reversed $81 $-1 #
edge $-1 $152 -5.9859704085294361 $210 5.9859704085294361 $151 $249 forward 7 unknown #
vertex $-1 $208 $250 #
straight-curve $-1 -62.247993408001953 -26.391234291288335 0 0 0 -1 I I #
edge $-1 $206 -26.391234291288335 $210 26.391234291288335 $204 $251 forward 7 unknown #
straight-curve $-1 0 -26.391234291288335 -5.9859704085294361 -1 0 0 I I #
vertex $-1 $144 $252 #
straight-curve $-1 0 26.391234291288335 -5.9859704085294361 1 0 0 I I #
point $-1 62.247993408001953 26.391234291288335 -5.9859704085294361 #
point $-1 62.247993408001953 -26.391234291288335 -5.9859704085294361 #
straight-curve $-1 -62.247993408001953 0 5.9859704085294361 0 -1 0 I I #
point $-1 -62.247993408001953 26.391234291288335 5.9859704085294361 #
point $-1 -62.247993408001953 -26.391234291288335 5.9859704085294361 #
straight-curve $-1 62.247993408001953 -26.391234291288335 0 0 0 -1 I I #
straight-curve $-1 62.247993408001953 26.391234291288335 0 0 0 -1 I I #
plane-surface $-1 62.247993408001953 0 0 -1 0 0 0 0 1 forward_v I I I I #
coedge $-1 $231 $222 $221 $253 forward $162 $-1 #
coedge $-1 $165 $164 $220 $253 reversed $58 $-1 #
coedge $-1 $220 $254 $166 $223 reversed $162 $-1 #
edge $-1 $224 -62.247993408001953 $227 62.247993408001953 $222 $255 forward 7 unknown #
vertex $-1 $167 $256 #
straight-curve $-1 -62.247993408001953 0 5.9859704085294361 0 -1 0 I I #
coedge $-1 $174 $168 $254 $257 forward $175 $-1 #
vertex $-1 $169 $258 #
straight-curve $-1 62.247993408001953 0 5.9859704085294361 0 1 0 I I #
point $-1 62.247993408001953 -26.391234291288335 5.9859704085294361 #
point $-1 -62.247993408001953 -26.391234291288335 5.9859704085294361 #
coedge $-1 $254 $220 $177 $232 reversed $162 $-1 #
edge $-1 $233 -62.247993408001953 $235 62.247993408001953 $231 $259 forward 7 unknown #
vertex $-1 $257 $260 #
straight-curve $-1 62.247993408001953 -28.62914724812881 2.9859704085294361 0 -1 0 I I #
vertex $-1 $179 $261 #
straight-curve $-1 -62.247993408001953 -28.62914724812881 2.9859704085294361 0 1 0 I I #
coedge $-1 $192 $191 $184 $238 forward $182 $-1 #
edge $-1 $245 -5.9859704085294361 $240 -1.4019034017400713 $184 $262 forward 7 unknown #
edge $-1 $189 23.181436114354096 $245 26.391234291288335 $185 $263 forward 7 unknown #
vertex $-1 $186 $264 #
straight-curve $-1 62.247993408001953 7.2419590859026197 28.749903442284925 0 0.57357642473473569 -0.81915205242281985 I I #
edge $-1 $240 -38.512467066318905 $193 -8.9585856170471949 $192 $265 forward 7 unknown #
point $-1 62.24799340800196 23.181436114354096 5.9859704085294396 #
point $-1 32.694111958730247 26.391234291288335 1.4019034017400713 #
vertex $-1 $239 $266 #
straight-curve $-1 0 26.391234291288335 5.9859704085294361 -1 0 0 I I #
vertex $-1 $199 $267 #
point $-1 48.471052683366104 23.461547315189073 2.7663104676834269 #
straight-curve $-1 -62.247993408001953 26.391234291288335 0 0 0 -1 I I #
point $-1 -62.247993408001953 -26.391234291288335 -5.9859704085294361 #
straight-curve $-1 -62.247993408001953 0 -5.9859704085294361 0 1 0 I I #
point $-1 -62.247993408001953 26.391234291288335 -5.9859704085294361 #
edge $-1 $224 -1.5 $235 1.5 $221 $268 forward 7 unknown #
coedge $-1 $222 $231 $226 $257 reversed $162 $-1 #
straight-curve $-1 0 -30.867060204969285 5.9859704085294361 1 0 0 I I #
point $-1 -62.247993408001953 -30.867060204969285 5.9859704085294361 #
edge $-1 $227 -1.5 $233 1.5 $226 $269 forward 7 unknown #
point $-1 62.247993408001953 -30.867060204969285 5.9859704085294361 #
straight-curve $-1 0 -30.867060204969285 2.9859704085294361 -1 0 0 I I #
point $-1 62.247993408001953 -30.867060204969285 2.9859704085294361 #
point $-1 -62.247993408001953 -30.867060204969285 2.9859704085294361 #
straight-curve $-1 62.247993408001953 26.391234291288335 0 0 0 -1 I I #
straight-curve $-1 62.247993408001953 0 5.9859704085294361 0 1 0 I I #
point $-1 62.24799340800196 26.391234291288335 1.4019034017400713 #
straight-curve $-1 23.735526341683052 26.391234291288335 1.4019034017400642 -1 0 0 I I #
point $-1 62.247993408001953 26.391234291288335 5.9859704085294361 #
point $-1 47.471052683366104 22.64239526276625 2.1927340429486915 #
straight-curve $-1 -62.247993408001953 -30.867060204969285 4.4859704085294361 0 0 -1 I I #
straight-curve $-1 62.247993408001953 -30.867060204969285 4.4859704085294361 0 0 -1 I I #
End-of-ACIS-data 