500 0 7 0           
7 Unknown 11 ACIS 5.0 NT 24 Thu Mar 25 22:57:57 1999 
-1 9.9999999999999995e-007 1e-010 
body $-1 $7 $-1 $8 #
body $-1 $9 $-1 $10 #
body $-1 $11 $-1 $12 #
body $-1 $13 $-1 $14 #
body $-1 $15 $-1 $16 #
body $-1 $17 $-1 $18 #
body $-1 $19 $-1 $20 #
lump $-1 $-1 $21 $0 #
transform $-1 1 0 0 0 1 0 0 0 1 66.784264656514182 41.672141946686878 16.609083510707151 1 rotate no_reflect no_shear #
lump $-1 $-1 $22 $1 #
transform $-1 1 0 0 0 1 0 0 0 1 66.784264656514182 41.672141946686878 16.609083510707151 1 rotate no_reflect no_shear #
lump $-1 $-1 $23 $2 #
transform $-1 1 0 0 0 1 0 0 0 1 66.784264656514182 41.672141946686878 16.609083510707151 1 rotate no_reflect no_shear #
lump $-1 $-1 $24 $3 #
transform $-1 1 0 0 0 1 0 0 0 1 66.784264656514182 41.672141946686878 16.609083510707151 1 rotate no_reflect no_shear #
lump $-1 $-1 $25 $4 #
transform $-1 1 0 0 0 1 0 0 0 1 66.784264656514182 41.672141946686878 16.609083510707151 1 rotate no_reflect no_shear #
lump $-1 $-1 $26 $5 #
transform $-1 1 0 0 0 1 0 0 0 1 66.784264656514182 41.672141946686878 16.609083510707151 1 rotate no_reflect no_shear #
lump $-1 $-1 $27 $6 #
transform $-1 1 0 0 0 1 0 0 0 1 66.784264656514182 41.672141946686878 16.609083510707151 1 rotate no_reflect no_shear #
shell $-1 $-1 $-1 $28 $-1 $7 #
shell $-1 $-1 $-1 $29 $-1 $9 #
shell $-1 $-1 $-1 $30 $-1 $11 #
shell $-1 $-1 $-1 $31 $-1 $13 #
shell $-1 $-1 $-1 $32 $-1 $15 #
shell $-1 $-1 $-1 $33 $-1 $17 #
shell $-1 $-1 $-1 $34 $-1 $19 #
face $-1 $35 $36 $21 $-1 $37 forward single #
face $-1 $38 $39 $22 $-1 $40 forward single #
face $-1 $41 $42 $23 $-1 $43 reversed single #
face $-1 $44 $45 $24 $-1 $46 forward single #
face $-1 $47 $48 $25 $-1 $49 forward single #
face $-1 $50 $51 $26 $-1 $52 reversed single #
face $-1 $53 $54 $27 $-1 $55 forward single #
face $-1 $56 $57 $21 $-1 $58 reversed single #
loop $-1 $-1 $59 $28 #
plane-surface $-1 0 0 16.609083510707151 0 0 1 1 0 0 forward_v I I I I #
face $-1 $60 $61 $22 $-1 $62 reversed single #
loop $-1 $-1 $63 $29 #
plane-surface $-1 -66.784264656514182 0 0 1 0 0 0 0 -1 forward_v I I I I #
face $-1 $64 $65 $23 $-1 $66 reversed single #
loop $-1 $-1 $67 $30 #
plane-surface $-1 58.221165982425291 -41.672141946686878 3.501638327548207 0 -0.50000000669873634 0.8660253999169214 1 0 0 forward_v I I I I #
face $-1 $68 $69 $24 $-1 $70 forward single #
loop $-1 $71 $72 $31 #
cone-surface $-1 54.551266550672906 -29.676058120814503 8.9387016843338323 0 0.50000000669873634 -0.8660253999169214 2 0 0 1 I I 0 1 2 forward I I I I #
face $-1 $73 $74 $25 $-1 $75 forward single #
loop $-1 $76 $77 $32 #
cone-surface $-1 61.89106541417766 -29.676058120814503 8.9387016843338323 0 0.50000000669873634 -0.8660253999169214 2 0 0 1 I I 0 1 2 forward I I I I #
face $-1 $78 $79 $26 $-1 $80 reversed single #
loop $-1 $-1 $81 $33 #
plane-surface $-1 32.117990554907749 110.77893945365125 153.10258265765566 1 0 0 0 -0.84804810408105047 -0.52991925155115449 forward_v I I I I #
face $-1 $82 $83 $27 $-1 $84 forward single #
loop $-1 $85 $86 $34 #
cone-surface $-1 41.552912151710728 38.608936107251409 13.181192357799954 0 -0.84804810408105047 -0.52991925155115449 1 0 0 1 I I 0 1 1 forward I I I I #
face $-1 $87 $88 $21 $-1 $89 reversed single #
loop $-1 $-1 $90 $35 #
plane-surface $-1 0 0 -16.609083510707151 0 0 1 1 0 0 forward_v I I I I #
coedge $-1 $91 $92 $93 $94 forward $36 $-1 #
face $-1 $95 $96 $22 $-1 $97 reversed single #
loop $-1 $-1 $98 $38 #
plane-surface $-1 0 41.672141946686878 0 0 -1 0 0 0 -1 forward_v I I I I #
coedge $-1 $99 $100 $101 $102 forward $39 $-1 #
face $-1 $103 $104 $23 $-1 $105 reversed single #
loop $-1 $-1 $106 $41 #
plane-surface $-1 49.658067308336399 -108.45640749794143 119.17537734217863 1 0 0 0 0.50000000669873634 -0.8660253999169214 forward_v I I I I #
coedge $-1 $107 $108 $109 $110 reversed $42 $-1 #
face $-1 $-1 $111 $24 $-1 $112 forward single #
loop $-1 $113 $114 $44 #
cone-surface $-1 54.551266550672906 -28.531354592797925 6.956017049623064 0 0.50000000669873634 -0.8660253999169214 1 0 0 1 I I -0.70710678118654779 0.70710678118654713 1 forward I I I I #
loop $-1 $-1 $115 $31 #
coedge $-1 $72 $72 $116 $117 reversed $45 $-1 #
face $-1 $-1 $118 $25 $-1 $119 forward single #
loop $-1 $120 $121 $47 #
cone-surface $-1 61.89106541417766 -28.531354592797925 6.956017049623064 0 0.50000000669873634 -0.8660253999169214 1 0 0 1 I I -0.70710678118654779 0.70710678118654713 1 forward I I I I #
loop $-1 $-1 $122 $32 #
coedge $-1 $77 $77 $123 $124 reversed $48 $-1 #
face $-1 $125 $126 $26 $-1 $127 reversed single #
loop $-1 $-1 $128 $50 #
plane-surface $-1 41.552912151710728 -2.4935985951566693 82.322047573307231 0 0.84804810408105047 0.52991925155115449 1 0 0 forward_v I I I I #
coedge $-1 $129 $130 $131 $132 reversed $51 $-1 #
face $-1 $-1 $133 $27 $-1 $134 forward single #
loop $-1 $135 $136 $53 #
cone-surface $-1 41.552912151710728 36.673568536980198 11.971840518701356 0 -0.84804810408105047 -0.52991925155115449 0.5 0 0 1 I I -0.70710678118654746 0.70710678118654746 0.5 forward I I I I #
loop $-1 $-1 $137 $34 #
coedge $-1 $86 $86 $138 $139 reversed $54 $-1 #
face $-1 $140 $141 $21 $-1 $142 reversed single #
loop $-1 $-1 $143 $56 #
plane-surface $-1 0 -41.672141946686878 0 0 1 0 0 0 1 forward_v I I I I #
coedge $-1 $144 $145 $146 $147 forward $57 $-1 #
coedge $-1 $148 $59 $149 $150 forward $36 $-1 #
coedge $-1 $59 $148 $151 $152 forward $36 $-1 #
coedge $-1 $153 $154 $59 $94 reversed $155 $-1 #
edge $-1 $156 -41.672141946686878 $157 41.672141946686878 $93 $158 forward 7 unknown #
face $-1 $159 $160 $22 $-1 $161 reversed single #
loop $-1 $-1 $101 $60 #
plane-surface $-1 -74.667453625249806 0 12.034045638734112 0 0 1 1 0 0 forward_v I I I I #
coedge $-1 $162 $163 $99 $164 forward $61 $-1 #
coedge $-1 $165 $63 $98 $164 reversed $39 $-1 #
coedge $-1 $63 $165 $166 $167 reversed $39 $-1 #
coedge $-1 $168 $169 $63 $102 reversed $96 $-1 #
edge $-1 $170 -41.672141946686878 $171 41.672141946686878 $101 $172 forward 7 unknown #
face $-1 $173 $174 $23 $-1 $175 forward single #
loop $-1 $-1 $176 $64 #
plane-surface $-1 66.784264656514182 0 0 -1 0 0 0 0 1 forward_v I I I I #
coedge $-1 $177 $178 $179 $180 reversed $65 $-1 #
coedge $-1 $181 $67 $176 $182 reversed $42 $-1 #
coedge $-1 $67 $181 $177 $183 forward $42 $-1 #
coedge $-1 $179 $184 $67 $110 forward $174 $-1 #
edge $-1 $185 -37.673681665301537 $186 -20.547484317123754 $109 $187 forward 7 unknown #
loop $-1 $-1 $116 $68 #
plane-surface $-1 58.221165982425291 -41.672141946686878 3.501638327548207 0 -0.50000000669873634 0.8660253999169214 1 0 0 forward_v I I I I #
loop $-1 $-1 $188 $44 #
coedge $-1 $114 $114 $115 $189 reversed $69 $-1 #
coedge $-1 $115 $115 $114 $189 forward $71 $-1 #
coedge $-1 $116 $116 $72 $117 forward $111 $-1 #
edge $-1 $190 4.4408921579973568e-016 $190 6.2831853071796013 $116 $191 forward 7 unknown #
loop $-1 $-1 $123 $73 #
plane-surface $-1 58.221165982425291 -41.672141946686878 3.501638327548207 0 -0.50000000669873634 0.8660253999169214 1 0 0 forward_v I I I I #
loop $-1 $-1 $192 $47 #
coedge $-1 $121 $121 $122 $193 reversed $74 $-1 #
coedge $-1 $122 $122 $121 $193 forward $76 $-1 #
coedge $-1 $123 $123 $77 $124 forward $118 $-1 #
edge $-1 $194 4.4408921579973568e-016 $194 6.2831853071796013 $123 $195 forward 7 unknown #
face $-1 $196 $197 $26 $-1 $198 reversed single #
loop $-1 $-1 $199 $78 #
plane-surface $-1 50.987833748513708 110.77893945365125 153.10258265765566 -1 0 0 0 0.84804810408105047 0.52991925155115449 forward_v I I I I #
coedge $-1 $200 $201 $202 $203 reversed $79 $-1 #
coedge $-1 $130 $81 $204 $205 reversed $51 $-1 #
coedge $-1 $81 $129 $200 $206 reversed $51 $-1 #
coedge $-1 $202 $207 $81 $132 forward $208 $-1 #
edge $-1 $209 13.717327780138746 $210 16.821052422548298 $131 $211 forward 7 unknown #
loop $-1 $-1 $138 $82 #
plane-surface $-1 41.552912151710728 -2.4935985951566693 82.322047573307231 0 0.84804810408105047 0.52991925155115449 1 0 0 forward_v I I I I #
loop $-1 $-1 $212 $53 #
coedge $-1 $136 $136 $137 $213 reversed $83 $-1 #
coedge $-1 $137 $137 $136 $213 forward $85 $-1 #
coedge $-1 $138 $138 $86 $139 forward $133 $-1 #
edge $-1 $214 -1.5064360498247893e-015 $214 6.2831853071795987 $138 $215 forward 7 unknown #
face $-1 $216 $217 $21 $-1 $218 reversed single #
loop $-1 $-1 $219 $87 #
plane-surface $-1 -66.784264656514182 0 0 1 0 0 0 0 -1 forward_v I I I I #
coedge $-1 $220 $151 $221 $222 forward $88 $-1 #
coedge $-1 $223 $90 $220 $224 forward $57 $-1 #
coedge $-1 $90 $223 $225 $226 forward $57 $-1 #
coedge $-1 $154 $153 $90 $147 reversed $155 $-1 #
edge $-1 $227 -41.672141946686878 $228 41.672141946686878 $146 $229 forward 7 unknown #
coedge $-1 $92 $91 $230 $231 forward $36 $-1 #
coedge $-1 $232 $233 $91 $150 reversed $217 $-1 #
edge $-1 $157 -66.784264656514182 $234 66.784264656514182 $149 $235 forward 7 unknown #
coedge $-1 $143 $236 $92 $152 reversed $88 $-1 #
edge $-1 $237 -66.784264656514182 $156 66.784264656514182 $151 $238 forward 7 unknown #
coedge $-1 $146 $93 $236 $239 forward $155 $-1 #
coedge $-1 $93 $146 $232 $240 reversed $155 $-1 #
loop $-1 $-1 $153 $216 #
vertex $-1 $94 $241 #
vertex $-1 $94 $242 #
straight-curve $-1 66.784264656514182 0 16.609083510707151 0 1 0 I I #
face $-1 $243 $244 $22 $-1 $245 forward single #
loop $-1 $-1 $246 $95 #
plane-surface $-1 -82.55064259398543 0 14.321564574720632 1 0 0 0 0 -1 forward_v I I I I #
coedge $-1 $247 $98 $169 $248 reversed $61 $-1 #
coedge $-1 $98 $247 $249 $250 reversed $61 $-1 #
edge $-1 $251 -16.609083510707151 $171 -12.034045638734112 $98 $252 forward 7 unknown #
coedge $-1 $100 $99 $253 $254 reversed $39 $-1 #
coedge $-1 $255 $256 $100 $167 forward $257 $-1 #
edge $-1 $170 12.034045638734112 $258 16.609083510707151 $166 $259 forward 7 unknown #
coedge $-1 $260 $101 $256 $261 forward $96 $-1 #
coedge $-1 $101 $260 $162 $248 forward $96 $-1 #
vertex $-1 $167 $262 #
vertex $-1 $164 $263 #
straight-curve $-1 -66.784264656514182 0 12.034045638734112 0 1 0 I I #
face $-1 $-1 $264 $23 $-1 $265 reversed single #
loop $-1 $-1 $109 $103 #
plane-surface $-1 0 0 16.609083510707151 0 0 1 1 0 0 forward_v I I I I #
coedge $-1 $266 $267 $107 $182 forward $104 $-1 #
coedge $-1 $178 $106 $108 $183 reversed $65 $-1 #
coedge $-1 $106 $177 $268 $269 reversed $65 $-1 #
coedge $-1 $270 $109 $106 $180 forward $174 $-1 #
edge $-1 $186 -35.25882241139292 $271 -12.556061802283836 $179 $272 forward 7 unknown #
coedge $-1 $108 $107 $273 $274 reversed $42 $-1 #
edge $-1 $275 -17.169157103771781 $185 9.045732911332836 $176 $276 forward 7 unknown #
edge $-1 $277 0 $186 26.214890015104615 $177 $278 forward 7 unknown #
coedge $-1 $109 $270 $266 $279 forward $174 $-1 #
vertex $-1 $110 $280 #
vertex $-1 $110 $281 #
straight-curve $-1 29.110582991212645 -18.969381337577794 16.609083510707151 -1 0 0 I I #
coedge $-1 $188 $188 $-1 $282 reversed $113 $-1 #
edge $-1 $283 0 $283 6.2831853071796004 $114 $284 forward 7 unknown #
vertex $-1 $117 $285 #
ellipse-curve $-1 54.551266550672906 -30.320761642132339 10.055360919127677 0 -0.50000000669873634 0.8660253999169214 2 0 0 1 I I #
coedge $-1 $192 $192 $-1 $286 reversed $120 $-1 #
edge $-1 $287 0 $287 6.2831853071796004 $121 $288 forward 7 unknown #
vertex $-1 $124 $289 #
ellipse-curve $-1 61.89106541417766 -30.320761642132339 10.055360919127677 0 -0.50000000669873634 0.8660253999169214 2 0 0 1 I I #
face $-1 $-1 $208 $26 $-1 $290 forward single #
loop $-1 $-1 $291 $125 #
plane-surface $-1 0 41.672141946686878 0 0 -1 0 0 0 -1 forward_v I I I I #
coedge $-1 $292 $293 $294 $295 reversed $126 $-1 #
coedge $-1 $296 $128 $130 $206 forward $79 $-1 #
coedge $-1 $128 $296 $292 $297 forward $79 $-1 #
coedge $-1 $294 $131 $128 $203 forward $208 $-1 #
edge $-1 $210 11.341534479052385 $298 30.211377672658344 $202 $299 forward 7 unknown #
coedge $-1 $300 $301 $129 $205 forward $197 $-1 #
edge $-1 $302 -64.909205697289025 $209 -59.942207818120679 $204 $303 forward 7 unknown #
edge $-1 $210 77.487307319443872 $302 83.344283893373728 $130 $304 forward 7 unknown #
coedge $-1 $131 $294 $300 $305 forward $208 $-1 #
loop $-1 $-1 $294 $196 #
vertex $-1 $205 $306 #
vertex $-1 $132 $307 #
straight-curve $-1 32.117990554907749 55.389469726825624 16.609083510707151 0 -1 0 I I #
coedge $-1 $212 $212 $-1 $308 reversed $135 $-1 #
edge $-1 $309 0 $309 6.2831853071796004 $136 $310 forward 7 unknown #
vertex $-1 $139 $311 #
ellipse-curve $-1 41.552912151710728 40.120279625482098 14.125584571122975 0 0.84804810408105047 0.52991925155115449 1 0 0 1 I I #
face $-1 $-1 $155 $21 $-1 $312 reversed single #
loop $-1 $-1 $232 $140 #
plane-surface $-1 0 41.672141946686878 0 0 -1 0 0 0 -1 forward_v I I I I #
coedge $-1 $313 $230 $233 $314 forward $141 $-1 #
coedge $-1 $236 $143 $144 $224 reversed $88 $-1 #
coedge $-1 $230 $313 $143 $222 reversed $141 $-1 #
edge $-1 $237 -16.609083510707151 $315 16.609083510707151 $221 $316 forward 7 unknown #
coedge $-1 $145 $144 $313 $317 forward $57 $-1 #
edge $-1 $228 -66.784264656514182 $315 66.784264656514182 $220 $318 forward 7 unknown #
coedge $-1 $233 $232 $145 $226 reversed $217 $-1 #
edge $-1 $319 -66.784264656514182 $227 66.784264656514182 $225 $320 forward 7 unknown #
vertex $-1 $147 $321 #
vertex $-1 $239 $322 #
straight-curve $-1 66.784264656514182 0 -16.609083510707151 0 -1 0 I I #
coedge $-1 $219 $221 $148 $231 reversed $141 $-1 #
edge $-1 $234 -41.672141946686878 $237 41.672141946686878 $230 $323 forward 7 unknown #
coedge $-1 $225 $149 $154 $240 forward $217 $-1 #
coedge $-1 $149 $225 $219 $314 reversed $217 $-1 #
vertex $-1 $150 $324 #
straight-curve $-1 0 41.672141946686878 16.609083510707151 -1 0 0 I I #
coedge $-1 $151 $220 $153 $239 reversed $88 $-1 #
vertex $-1 $231 $325 #
straight-curve $-1 0 -41.672141946686878 16.609083510707151 1 0 0 I I #
edge $-1 $156 -16.609083510707151 $228 16.609083510707151 $153 $326 forward 7 unknown #
edge $-1 $157 -16.609083510707151 $227 16.609083510707151 $154 $327 forward 7 unknown #
point $-1 66.784264656514182 -41.672141946686878 16.609083510707151 #
point $-1 66.784264656514182 41.672141946686878 16.609083510707151 #
face $-1 $-1 $257 $22 $-1 $328 reversed single #
loop $-1 $-1 $253 $159 #
plane-surface $-1 0 0 16.609083510707151 0 0 1 1 0 0 forward_v I I I I #
coedge $-1 $329 $330 $247 $331 forward $160 $-1 #
coedge $-1 $163 $162 $246 $331 reversed $61 $-1 #
edge $-1 $332 -7.8831889687356238 $171 7.8831889687356238 $162 $333 forward 7 unknown #
coedge $-1 $334 $253 $163 $250 forward $244 $-1 #
edge $-1 $251 66.784264656514182 $335 82.55064259398543 $163 $336 forward 7 unknown #
vertex $-1 $250 $337 #
straight-curve $-1 -66.784264656514182 41.672141946686878 0 0 0 -1 I I #
coedge $-1 $249 $338 $165 $254 forward $244 $-1 #
edge $-1 $258 -41.672141946686878 $251 41.672141946686878 $253 $339 forward 7 unknown #
coedge $-1 $340 $166 $338 $341 reversed $257 $-1 #
coedge $-1 $166 $340 $168 $261 reversed $257 $-1 #
loop $-1 $-1 $166 $243 #
vertex $-1 $167 $342 #
straight-curve $-1 -66.784264656514182 -41.672141946686878 0 0 0 1 I I #
coedge $-1 $169 $168 $329 $343 forward $96 $-1 #
edge $-1 $170 -7.8831889687356238 $344 7.8831889687356238 $256 $345 forward 7 unknown #
point $-1 -66.784264656514182 -41.672141946686878 12.034045638734112 #
point $-1 -66.784264656514182 41.672141946686878 12.034045638734112 #
loop $-1 $-1 $273 $173 #
plane-surface $-1 0 -41.672141946686878 0 0 1 0 0 0 1 forward_v I I I I #
coedge $-1 $267 $176 $184 $279 reversed $104 $-1 #
coedge $-1 $176 $266 $346 $347 forward $104 $-1 #
coedge $-1 $273 $348 $178 $269 forward $264 $-1 #
edge $-1 $271 42.978605160382166 $277 56.08605034354111 $268 $349 forward 7 unknown #
coedge $-1 $184 $179 $348 $350 forward $174 $-1 #
vertex $-1 $350 $351 #
straight-curve $-1 49.658067308336399 -54.228203748970714 16.609083510707151 0 -1 0 I I #
coedge $-1 $346 $268 $181 $274 forward $264 $-1 #
edge $-1 $277 20.547484317123754 $275 37.673681665301537 $273 $352 forward 7 unknown #
vertex $-1 $274 $353 #
straight-curve $-1 66.784264656514182 -26.803215799656471 12.086216994445753 0 0.8660253999169214 0.50000000669873634 I I #
vertex $-1 $274 $354 #
straight-curve $-1 49.658067308336399 -41.672141946686878 3.501638327548207 0 0.8660253999169214 0.50000000669873634 I I #
edge $-1 $355 -41.672141946686878 $185 -18.969381337577794 $266 $356 forward 7 unknown #
point $-1 66.784264656514182 -18.969381337577794 16.609083510707151 #
point $-1 49.658067308336399 -18.969381337577794 16.609083510707151 #
edge $-1 $357 1 $357 0 $188 $-1 forward 7 unknown #
vertex $-1 $189 $358 #
ellipse-curve $-1 54.551266550672906 -29.031354599496662 7.8220424495399845 0 -0.50000000669873634 0.8660253999169214 2 0 0 1 I I #
point $-1 56.551266550672906 -30.320761642132339 10.055360919127679 #
edge $-1 $359 1 $359 0 $192 $-1 forward 7 unknown #
vertex $-1 $193 $360 #
ellipse-curve $-1 61.89106541417766 -29.031354599496662 7.8220424495399845 0 -0.50000000669873634 0.8660253999169214 2 0 0 1 I I #
point $-1 63.89106541417766 -30.320761642132339 10.055360919127679 #
plane-surface $-1 0 0 16.609083510707151 0 0 1 1 0 0 forward_v I I I I #
coedge $-1 $301 $300 $293 $361 forward $197 $-1 #
coedge $-1 $293 $199 $201 $297 reversed $126 $-1 #
coedge $-1 $199 $292 $291 $361 reversed $126 $-1 #
coedge $-1 $207 $202 $199 $295 forward $208 $-1 #
edge $-1 $298 -16.821052422548298 $362 -13.717327780138746 $294 $363 forward 7 unknown #
coedge $-1 $201 $200 $301 $364 reversed $79 $-1 #
edge $-1 $365 -83.344283893373728 $298 -77.487307319443872 $292 $366 forward 7 unknown #
vertex $-1 $203 $367 #
straight-curve $-1 20.776456075855364 38.568417304277318 16.609083510707151 1 0 0 I I #
coedge $-1 $291 $204 $207 $305 reversed $197 $-1 #
coedge $-1 $204 $291 $296 $364 forward $197 $-1 #
vertex $-1 $205 $368 #
straight-curve $-1 32.117990554907749 41.672141946686878 76.55129132882783 0 0 1 I I #
straight-curve $-1 32.117990554907749 -2.4935985951566693 82.322047573307231 0 0.52991925155115449 -0.84804810408105047 I I #
edge $-1 $362 -50.987833748513708 $209 -32.117990554907749 $300 $369 forward 7 unknown #
point $-1 32.117990554907749 41.672141946686878 16.609083510707151 #
point $-1 32.117990554907749 38.568417304277325 16.609083510707151 #
edge $-1 $370 1 $370 0 $212 $-1 forward 7 unknown #
vertex $-1 $213 $371 #
ellipse-curve $-1 41.552912151710728 37.097592589020721 12.236800144476932 0 0.84804810408105047 0.52991925155115449 1 0 0 1 I I #
point $-1 42.552912151710728 40.120279625482098 14.125584571122976 #
plane-surface $-1 66.784264656514182 0 0 -1 0 0 0 0 1 forward_v I I I I #
coedge $-1 $221 $219 $223 $317 reversed $141 $-1 #
edge $-1 $234 -16.609083510707151 $319 16.609083510707151 $233 $372 forward 7 unknown #
vertex $-1 $317 $373 #
straight-curve $-1 -66.784264656514182 -41.672141946686878 0 0 0 -1 I I #
edge $-1 $315 -41.672141946686878 $319 41.672141946686878 $313 $374 forward 7 unknown #
straight-curve $-1 0 -41.672141946686878 -16.609083510707151 -1 0 0 I I #
vertex $-1 $226 $375 #
straight-curve $-1 0 41.672141946686878 -16.609083510707151 1 0 0 I I #
point $-1 66.784264656514182 41.672141946686878 -16.609083510707151 #
point $-1 66.784264656514182 -41.672141946686878 -16.609083510707151 #
straight-curve $-1 -66.784264656514182 0 16.609083510707151 0 -1 0 I I #
point $-1 -66.784264656514182 41.672141946686878 16.609083510707151 #
point $-1 -66.784264656514182 -41.672141946686878 16.609083510707151 #
straight-curve $-1 66.784264656514182 -41.672141946686878 0 0 0 -1 I I #
straight-curve $-1 66.784264656514182 41.672141946686878 0 0 0 -1 I I #
plane-surface $-1 0 -41.672141946686878 0 0 1 0 0 0 1 forward_v I I I I #
coedge $-1 $376 $246 $260 $343 reversed $160 $-1 #
coedge $-1 $246 $376 $334 $377 reversed $160 $-1 #
edge $-1 $335 -2.2875189359865189 $332 2.2875189359865207 $247 $378 forward 7 unknown #
vertex $-1 $248 $379 #
straight-curve $-1 -74.667453625249806 41.672141946686878 12.034045638734112 1 0 0 I I #
coedge $-1 $338 $249 $330 $377 forward $244 $-1 #
vertex $-1 $250 $380 #
straight-curve $-1 0 41.672141946686878 16.609083510707151 -1 0 0 I I #
point $-1 -66.784264656514182 41.672141946686878 16.609083510707151 #
coedge $-1 $253 $334 $255 $341 forward $244 $-1 #
straight-curve $-1 -66.784264656514182 0 16.609083510707151 0 1 0 I I #
coedge $-1 $256 $255 $376 $381 forward $257 $-1 #
edge $-1 $382 -82.55064259398543 $258 -66.784264656514182 $255 $383 forward 7 unknown #
point $-1 -66.784264656514182 -41.672141946686878 16.609083510707151 #
edge $-1 $344 -41.672141946686878 $332 41.672141946686878 $329 $384 forward 7 unknown #
vertex $-1 $343 $385 #
straight-curve $-1 -74.667453625249806 -41.672141946686878 12.034045638734112 -1 0 0 I I #
coedge $-1 $348 $273 $267 $347 reversed $264 $-1 #
edge $-1 $355 -16.609083510707151 $275 -3.501638327548207 $267 $386 forward 7 unknown #
coedge $-1 $268 $346 $270 $350 reversed $264 $-1 #
straight-curve $-1 49.658067308336399 -41.672141946686878 59.587688671089317 0 0 -1 I I #
edge $-1 $271 49.658067308336399 $355 66.784264656514182 $348 $387 forward 7 unknown #
point $-1 49.658067308336399 -41.672141946686878 16.609083510707151 #
straight-curve $-1 29.110582991212645 -41.672141946686878 3.5016383275482088 1 0 0 I I #
point $-1 66.784264656514182 -41.672141946686878 3.501638327548207 #
point $-1 49.658067308336399 -41.672141946686878 3.501638327548207 #
vertex $-1 $279 $388 #
straight-curve $-1 66.784264656514182 0 16.609083510707151 0 1 0 I I #
vertex $-1 $282 $389 #
point $-1 56.551266550672906 -29.031354599496662 7.8220424495399845 #
vertex $-1 $286 $390 #
point $-1 63.89106541417766 -29.031354599496662 7.8220424495399845 #
edge $-1 $362 59.942207818120679 $365 64.909205697289025 $291 $391 forward 7 unknown #
vertex $-1 $305 $392 #
straight-curve $-1 50.987833748513708 55.389469726825624 16.609083510707151 0 1 0 I I #
edge $-1 $365 -30.211377672658344 $302 -11.341534479052385 $301 $393 forward 7 unknown #
vertex $-1 $364 $394 #
straight-curve $-1 50.987833748513708 -2.4935985951566693 82.322047573307231 0 -0.52991925155115449 0.84804810408105047 I I #
point $-1 50.987833748513708 38.568417304277325 16.609083510707151 #
point $-1 32.117990554907749 41.672141946686878 11.642085631538805 #
straight-curve $-1 0 41.672141946686878 16.609083510707151 -1 0 0 I I #
vertex $-1 $308 $395 #
point $-1 42.552912151710728 37.097592589020721 12.236800144476932 #
straight-curve $-1 -66.784264656514182 41.672141946686878 0 0 0 -1 I I #
point $-1 -66.784264656514182 -41.672141946686878 -16.609083510707151 #
straight-curve $-1 -66.784264656514182 0 -16.609083510707151 0 1 0 I I #
point $-1 -66.784264656514182 41.672141946686878 -16.609083510707151 #
coedge $-1 $330 $329 $340 $381 reversed $160 $-1 #
edge $-1 $335 -41.672141946686878 $382 41.672141946686878 $330 $396 forward 7 unknown #
straight-curve $-1 -82.55064259398543 41.672141946686878 14.321564574720632 0 0 -1 I I #
point $-1 -82.55064259398543 41.672141946686878 12.034045638734112 #
point $-1 -82.55064259398543 41.672141946686878 16.609083510707151 #
edge $-1 $382 -2.2875189359865189 $344 2.2875189359865207 $376 $397 forward 7 unknown #
vertex $-1 $377 $398 #
straight-curve $-1 0 -41.672141946686878 16.609083510707151 1 0 0 I I #
straight-curve $-1 -82.55064259398543 0 12.034045638734112 0 1 0 I I #
point $-1 -82.55064259398543 -41.672141946686878 12.034045638734112 #
straight-curve $-1 66.784264656514182 -41.672141946686878 0 0 0 -1 I I #
straight-curve $-1 0 -41.672141946686878 16.609083510707151 1 0 0 I I #
point $-1 66.784264656514182 -41.672141946686878 16.609083510707151 #
point $-1 54.551266550672906 -28.031354586099187 6.0899916497061435 #
point $-1 61.89106541417766 -28.031354586099187 6.0899916497061435 #
straight-curve $-1 50.987833748513708 41.672141946686878 76.55129132882783 0 0 -1 I I #
point $-1 50.987833748513708 41.672141946686878 16.609083510707151 #
straight-curve $-1 20.776456075855364 41.672141946686878 11.642085631538809 -1 0 0 I I #
point $-1 50.987833748513708 41.672141946686878 11.642085631538805 #
point $-1 41.552912151710728 36.249544484939676 11.706880892925779 #
straight-curve $-1 -82.55064259398543 0 16.609083510707151 0 -1 0 I I #
straight-curve $-1 -82.55064259398543 -41.672141946686878 14.321564574720632 0 0 -1 I I #
point $-1 -82.55064259398543 -41.672141946686878 16.609083510707151 #
End-of-ACIS-data 