500 0 6 0           
7 Unknown 11 ACIS 5.0 NT 24 Fri Mar 26 00:37:05 1999 
-1 9.9999999999999995e-007 1e-010 
body $-1 $6 $-1 $7 #
body $-1 $8 $-1 $9 #
body $-1 $10 $-1 $11 #
body $-1 $12 $-1 $13 #
body $-1 $14 $-1 $15 #
body $-1 $16 $-1 $17 #
lump $-1 $-1 $18 $0 #
transform $-1 1 0 0 0 1 0 0 0 1 46.749473555711539 24.603003686151069 6.71677693334248 1 rotate no_reflect no_shear #
lump $-1 $-1 $19 $1 #
transform $-1 1 0 0 0 1 0 0 0 1 46.749473555711539 24.603003686151069 6.71677693334248 1 rotate no_reflect no_shear #
lump $-1 $-1 $20 $2 #
transform $-1 1 0 0 0 1 0 0 0 1 46.749473555711539 24.603003686151069 6.71677693334248 1 rotate no_reflect no_shear #
lump $-1 $-1 $21 $3 #
transform $-1 1 0 0 0 1 0 0 0 1 46.749473555711539 24.603003686151069 6.71677693334248 1 rotate no_reflect no_shear #
lump $-1 $-1 $22 $4 #
transform $-1 1 0 0 0 1 0 0 0 1 46.749473555711539 24.603003686151069 6.71677693334248 1 rotate no_reflect no_shear #
lump $-1 $-1 $23 $5 #
transform $-1 1 0 0 0 1 0 0 0 1 46.749473555711539 24.603003686151069 6.71677693334248 1 rotate no_reflect no_shear #
shell $-1 $-1 $-1 $24 $-1 $6 #
shell $-1 $-1 $-1 $25 $-1 $8 #
shell $-1 $-1 $-1 $26 $-1 $10 #
shell $-1 $-1 $-1 $27 $-1 $12 #
shell $-1 $-1 $-1 $28 $-1 $14 #
shell $-1 $-1 $-1 $29 $-1 $16 #
face $-1 $30 $31 $18 $-1 $32 reversed single #
face $-1 $33 $34 $19 $-1 $35 forward single #
face $-1 $36 $37 $20 $-1 $38 forward single #
face $-1 $39 $40 $21 $-1 $41 reversed single #
face $-1 $42 $43 $22 $-1 $44 forward single #
face $-1 $45 $46 $23 $-1 $47 forward single #
face $-1 $48 $49 $18 $-1 $50 forward single #
loop $-1 $-1 $51 $24 #
plane-surface $-1 0 -24.603003686151069 0 0 1 0 0 0 1 forward_v I I I I #
face $-1 $52 $53 $19 $-1 $54 forward single #
loop $-1 $-1 $55 $25 #
plane-surface $-1 0 -24.603003686151069 0 0 1 0 0 0 1 forward_v I I I I #
face $-1 $56 $57 $20 $-1 $58 forward single #
loop $-1 $-1 $59 $26 #
plane-surface $-1 0 24.603003686151069 0 0 -1 0 0 0 -1 forward_v I I I I #
face $-1 $60 $61 $21 $-1 $62 reversed single #
loop $-1 $-1 $63 $27 #
plane-surface $-1 69.710536180774255 2.6380876908830011 133.18825650846784 0 -1 0 -0.81915205242281985 0 -0.57357642473473569 forward_v I I I I #
face $-1 $64 $65 $22 $-1 $66 forward single #
loop $-1 $67 $68 $28 #
cone-surface $-1 44.357181693239795 -3.3676477197450403 4.0866930935730714 -0.81915205242281985 0 -0.57357642473473569 0.57357642473473569 0 -0.81915205242281985 1 I I 0 1 1 forward I I I I #
face $-1 $69 $70 $23 $-1 $71 forward single #
loop $-1 $72 $73 $29 #
cone-surface $-1 44.357181693239795 0.23579352663178454 4.0866930935730714 -0.81915205242281985 0 -0.57357642473473569 0.57357642473473569 0 -0.81915205242281985 1 I I 0 1 1 forward I I I I #
face $-1 $74 $75 $18 $-1 $76 reversed single #
loop $-1 $-1 $77 $30 #
plane-surface $-1 0 0 6.71677693334248 0 0 1 1 0 0 forward_v I I I I #
coedge $-1 $78 $79 $80 $81 reversed $31 $-1 #
face $-1 $82 $83 $19 $-1 $84 reversed single #
loop $-1 $-1 $85 $33 #
plane-surface $-1 0 0 6.71677693334248 0 0 1 1 0 0 forward_v I I I I #
coedge $-1 $86 $87 $88 $89 forward $34 $-1 #
face $-1 $90 $91 $20 $-1 $92 reversed single #
loop $-1 $-1 $93 $36 #
plane-surface $-1 0 0 6.71677693334248 0 0 1 1 0 0 forward_v I I I I #
coedge $-1 $94 $95 $96 $97 forward $37 $-1 #
face $-1 $98 $99 $21 $-1 $100 reversed single #
loop $-1 $-1 $101 $39 #
plane-surface $-1 -6.8793182449206256 -1.5659270965566279 79.559464707835659 0.81915205242281985 0 0.57357642473473569 0.57357642473473569 0 -0.81915205242281985 forward_v I I I I #
coedge $-1 $102 $103 $104 $105 reversed $40 $-1 #
face $-1 $-1 $106 $22 $-1 $107 forward single #
loop $-1 $108 $109 $42 #
cone-surface $-1 42.867210933010718 -3.3676477197450403 3.043404367037148 -0.81915205242281985 0 -0.57357642473473569 0.28678821236736785 0 -0.40957602621140993 1 I I -0.70710678118654746 0.70710678118654746 0.5 forward I I I I #
loop $-1 $-1 $110 $28 #
coedge $-1 $68 $68 $111 $112 reversed $43 $-1 #
face $-1 $-1 $113 $23 $-1 $114 forward single #
loop $-1 $115 $116 $45 #
cone-surface $-1 42.867210933010718 0.23579352663178454 3.043404367037148 -0.81915205242281985 0 -0.57357642473473569 0.28678821236736785 0 -0.40957602621140993 1 I I -0.70710678118654746 0.70710678118654746 0.5 forward I I I I #
loop $-1 $-1 $117 $29 #
coedge $-1 $73 $73 $118 $119 reversed $46 $-1 #
face $-1 $120 $121 $18 $-1 $122 reversed single #
loop $-1 $-1 $123 $48 #
plane-surface $-1 0 0 -6.71677693334248 0 0 1 1 0 0 forward_v I I I I #
coedge $-1 $124 $125 $126 $127 forward $49 $-1 #
coedge $-1 $128 $51 $129 $130 reversed $31 $-1 #
coedge $-1 $51 $128 $131 $132 forward $31 $-1 #
coedge $-1 $133 $123 $51 $81 forward $75 $-1 #
edge $-1 $134 -46.749473555711539 $135 46.749473555711539 $51 $136 forward 7 unknown #
face $-1 $137 $138 $19 $-1 $139 reversed single #
loop $-1 $-1 $140 $52 #
plane-surface $-1 -46.749473555711539 0 0 1 0 0 0 0 -1 forward_v I I I I #
coedge $-1 $141 $142 $87 $143 forward $53 $-1 #
coedge $-1 $144 $55 $145 $146 reversed $34 $-1 #
coedge $-1 $55 $144 $85 $143 reversed $34 $-1 #
coedge $-1 $147 $148 $55 $89 reversed $149 $-1 #
edge $-1 $150 -6.71677693334248 $151 6.71677693334248 $88 $152 forward 7 unknown #
face $-1 $153 $154 $20 $-1 $155 reversed single #
loop $-1 $-1 $156 $56 #
plane-surface $-1 -45.249473555711539 30.054545405233171 0 0 -1 0 0 0 -1 forward_v I I I I #
coedge $-1 $157 $158 $94 $159 forward $57 $-1 #
coedge $-1 $160 $59 $93 $159 reversed $37 $-1 #
coedge $-1 $59 $160 $161 $162 reversed $37 $-1 #
coedge $-1 $163 $164 $59 $97 reversed $154 $-1 #
edge $-1 $165 -6.71677693334248 $166 6.71677693334248 $96 $167 forward 7 unknown #
face $-1 $168 $169 $21 $-1 $170 forward single #
loop $-1 $-1 $171 $60 #
plane-surface $-1 69.710536180774255 -5.7699418839962568 133.18825650846784 0 1 0 0.81915205242281985 0 0.57357642473473569 forward_v I I I I #
coedge $-1 $172 $173 $174 $175 reversed $61 $-1 #
coedge $-1 $103 $63 $176 $177 reversed $40 $-1 #
coedge $-1 $63 $102 $172 $178 reversed $40 $-1 #
coedge $-1 $174 $179 $63 $105 forward $169 $-1 #
edge $-1 $180 -11.894205465324411 $181 -9.2704112084162986 $104 $182 forward 7 unknown #
loop $-1 $-1 $111 $64 #
plane-surface $-1 -6.8793182449206256 -1.5659270965566279 79.559464707835659 0.81915205242281985 0 0.57357642473473569 0.57357642473473569 0 -0.81915205242281985 forward_v I I I I #
loop $-1 $-1 $183 $42 #
coedge $-1 $109 $109 $110 $184 reversed $65 $-1 #
coedge $-1 $110 $110 $109 $184 forward $67 $-1 #
coedge $-1 $111 $111 $68 $112 forward $106 $-1 #
edge $-1 $185 0 $185 6.2831853071796004 $111 $186 forward 7 unknown #
loop $-1 $-1 $118 $69 #
plane-surface $-1 -6.8793182449206256 -1.5659270965566279 79.559464707835659 0.81915205242281985 0 0.57357642473473569 0.57357642473473569 0 -0.81915205242281985 forward_v I I I I #
loop $-1 $-1 $187 $45 #
coedge $-1 $116 $116 $117 $188 reversed $70 $-1 #
coedge $-1 $117 $117 $116 $188 forward $72 $-1 #
coedge $-1 $118 $118 $73 $119 forward $113 $-1 #
edge $-1 $189 0 $189 6.2831853071796004 $118 $190 forward 7 unknown #
face $-1 $191 $192 $18 $-1 $193 reversed single #
loop $-1 $-1 $194 $74 #
plane-surface $-1 -46.749473555711539 0 0 1 0 0 0 0 -1 forward_v I I I I #
coedge $-1 $80 $195 $196 $197 forward $75 $-1 #
coedge $-1 $198 $77 $199 $200 forward $49 $-1 #
coedge $-1 $77 $198 $128 $201 forward $49 $-1 #
coedge $-1 $129 $202 $77 $127 reversed $203 $-1 #
edge $-1 $204 -24.603003686151069 $205 24.603003686151069 $126 $206 forward 7 unknown #
coedge $-1 $79 $78 $125 $201 reversed $31 $-1 #
coedge $-1 $196 $126 $78 $130 forward $203 $-1 #
edge $-1 $204 -6.71677693334248 $134 6.71677693334248 $129 $207 forward 7 unknown #
coedge $-1 $208 $209 $79 $132 reversed $121 $-1 #
edge $-1 $210 -6.71677693334248 $135 6.71677693334248 $131 $211 forward 7 unknown #
coedge $-1 $195 $80 $209 $212 forward $75 $-1 #
vertex $-1 $130 $213 #
vertex $-1 $212 $214 #
straight-curve $-1 0 -24.603003686151069 -6.71677693334248 -1 0 0 I I #
face $-1 $215 $149 $19 $-1 $216 reversed single #
loop $-1 $-1 $217 $82 #
plane-surface $-1 -45.249473555711539 -30.054545405233171 0 0 1 0 0 0 1 forward_v I I I I #
coedge $-1 $218 $219 $144 $220 forward $83 $-1 #
coedge $-1 $221 $85 $219 $222 forward $53 $-1 #
coedge $-1 $85 $221 $147 $223 forward $53 $-1 #
edge $-1 $150 43.749473555711539 $224 46.749473555711539 $85 $225 forward 7 unknown #
coedge $-1 $87 $86 $140 $220 reversed $34 $-1 #
coedge $-1 $226 $227 $86 $146 forward $228 $-1 #
edge $-1 $229 -46.749473555711539 $151 -43.749473555711539 $145 $230 forward 7 unknown #
coedge $-1 $231 $88 $142 $223 reversed $149 $-1 #
coedge $-1 $88 $231 $226 $232 reversed $149 $-1 #
loop $-1 $-1 $231 $137 #
vertex $-1 $143 $233 #
vertex $-1 $232 $234 #
straight-curve $-1 -43.749473555711539 -24.603003686151069 0 0 0 -1 I I #
face $-1 $235 $236 $20 $-1 $237 reversed single #
loop $-1 $-1 $96 $90 #
plane-surface $-1 -43.749473555711539 27.32877454569212 0 -1 0 0 0 0 1 forward_v I I I I #
coedge $-1 $238 $239 $240 $241 forward $91 $-1 #
coedge $-1 $242 $93 $164 $243 forward $57 $-1 #
coedge $-1 $93 $242 $244 $245 forward $57 $-1 #
edge $-1 $246 -46.749473555711539 $166 -43.749473555711539 $93 $247 forward 7 unknown #
coedge $-1 $95 $94 $248 $249 reversed $37 $-1 #
coedge $-1 $250 $251 $95 $162 forward $236 $-1 #
edge $-1 $165 43.749473555711539 $252 46.749473555711539 $161 $253 forward 7 unknown #
coedge $-1 $240 $96 $251 $254 reversed $154 $-1 #
coedge $-1 $96 $240 $157 $243 reversed $154 $-1 #
vertex $-1 $162 $255 #
vertex $-1 $243 $256 #
straight-curve $-1 -43.749473555711539 24.603003686151069 0 0 0 1 I I #
face $-1 $-1 $257 $21 $-1 $258 reversed single #
loop $-1 $-1 $104 $98 #
plane-surface $-1 0 0 6.71677693334248 0 0 1 1 0 0 forward_v I I I I #
coedge $-1 $259 $260 $261 $262 reversed $99 $-1 #
coedge $-1 $263 $101 $103 $178 forward $61 $-1 #
coedge $-1 $101 $263 $259 $264 forward $61 $-1 #
coedge $-1 $261 $104 $101 $175 forward $169 $-1 #
edge $-1 $181 -3.421051239161315 $265 4.9869783357179429 $174 $266 forward 7 unknown #
coedge $-1 $267 $268 $102 $177 forward $257 $-1 #
edge $-1 $269 -63.62451797209313 $180 -59.877351320891442 $176 $270 forward 7 unknown #
edge $-1 $181 88.924501329203963 $269 93.49894711142305 $103 $271 forward 7 unknown #
coedge $-1 $104 $261 $267 $272 forward $169 $-1 #
vertex $-1 $105 $273 #
vertex $-1 $105 $274 #
straight-curve $-1 34.855268090387128 2.6380876908830011 6.71677693334248 -1 0 0 I I #
coedge $-1 $183 $183 $-1 $275 reversed $108 $-1 #
edge $-1 $276 0 $276 6.2831853071796004 $109 $277 forward 7 unknown #
vertex $-1 $112 $278 #
ellipse-curve $-1 45.437576427257483 -3.3676477197450403 4.8431936077416387 0.81915205242281985 0 0.57357642473473569 0.57357642473473569 0 -0.81915205242281985 1 I I #
coedge $-1 $187 $187 $-1 $279 reversed $115 $-1 #
edge $-1 $280 0 $280 6.2831853071796004 $116 $281 forward 7 unknown #
vertex $-1 $119 $282 #
ellipse-curve $-1 45.437576427257483 0.23579352663178454 4.8431936077416387 0.81915205242281985 0 0.57357642473473569 0.57357642473473569 0 -0.81915205242281985 1 I I #
face $-1 $-1 $203 $18 $-1 $283 reversed single #
loop $-1 $-1 $199 $120 #
plane-surface $-1 0 24.603003686151069 0 0 -1 0 0 0 -1 forward_v I I I I #
coedge $-1 $209 $208 $284 $285 forward $121 $-1 #
coedge $-1 $123 $133 $286 $287 forward $75 $-1 #
coedge $-1 $202 $129 $123 $197 reversed $203 $-1 #
edge $-1 $288 -24.603003686151069 $134 24.603003686151069 $196 $289 forward 7 unknown #
coedge $-1 $125 $124 $208 $290 forward $49 $-1 #
coedge $-1 $291 $284 $124 $200 reversed $192 $-1 #
edge $-1 $205 -46.749473555711539 $292 46.749473555711539 $199 $293 forward 7 unknown #
edge $-1 $210 -46.749473555711539 $204 46.749473555711539 $128 $294 forward 7 unknown #
coedge $-1 $126 $196 $291 $295 reversed $203 $-1 #
loop $-1 $-1 $129 $191 #
vertex $-1 $127 $296 #
vertex $-1 $127 $297 #
straight-curve $-1 46.749473555711539 0 6.71677693334248 0 1 0 I I #
straight-curve $-1 46.749473555711539 -24.603003686151069 0 0 0 -1 I I #
coedge $-1 $194 $131 $198 $290 reversed $121 $-1 #
coedge $-1 $131 $194 $133 $212 reversed $121 $-1 #
vertex $-1 $290 $298 #
straight-curve $-1 -46.749473555711539 -24.603003686151069 0 0 0 -1 I I #
edge $-1 $135 -24.603003686151069 $299 24.603003686151069 $209 $300 forward 7 unknown #
point $-1 46.749473555711539 -24.603003686151069 -6.71677693334248 #
point $-1 -46.749473555711539 -24.603003686151069 -6.71677693334248 #
face $-1 $-1 $228 $19 $-1 $301 reversed single #
plane-surface $-1 -43.749473555711539 -27.32877454569212 0 -1 0 0 0 0 1 forward_v I I I I #
coedge $-1 $302 $303 $304 $305 forward $138 $-1 #
coedge $-1 $304 $140 $227 $306 reversed $83 $-1 #
coedge $-1 $140 $304 $141 $222 reversed $83 $-1 #
edge $-1 $224 -6.71677693334248 $229 6.71677693334248 $140 $307 forward 7 unknown #
coedge $-1 $142 $141 $303 $308 forward $53 $-1 #
edge $-1 $224 24.603003686151069 $309 30.054545405233171 $219 $310 forward 7 unknown #
edge $-1 $311 -2.7257708595410506 $150 2.7257708595410506 $147 $312 forward 7 unknown #
vertex $-1 $222 $313 #
straight-curve $-1 0 -24.603003686151069 6.71677693334248 -1 0 0 I I #
coedge $-1 $314 $145 $148 $232 forward $228 $-1 #
coedge $-1 $145 $314 $218 $306 forward $228 $-1 #
loop $-1 $-1 $145 $215 #
vertex $-1 $220 $315 #
straight-curve $-1 0 -24.603003686151069 -6.71677693334248 1 0 0 I I #
coedge $-1 $148 $147 $316 $317 forward $149 $-1 #
edge $-1 $151 -2.7257708595410506 $318 2.7257708595410506 $148 $319 forward 7 unknown #
point $-1 -43.749473555711539 -24.603003686151069 6.71677693334248 #
point $-1 -43.749473555711539 -24.603003686151069 -6.71677693334248 #
face $-1 $-1 $320 $20 $-1 $321 reversed single #
loop $-1 $-1 $161 $153 #
plane-surface $-1 0 0 -6.71677693334248 0 0 1 1 0 0 forward_v I I I I #
coedge $-1 $322 $156 $323 $324 reversed $91 $-1 #
coedge $-1 $156 $322 $242 $325 reversed $91 $-1 #
coedge $-1 $164 $163 $156 $241 reversed $154 $-1 #
edge $-1 $326 -6.71677693334248 $327 6.71677693334248 $240 $328 forward 7 unknown #
coedge $-1 $158 $157 $239 $325 forward $57 $-1 #
edge $-1 $166 -2.7257708595410506 $326 2.7257708595410506 $164 $329 forward 7 unknown #
coedge $-1 $330 $248 $158 $245 reversed $320 $-1 #
edge $-1 $331 -30.054545405233171 $246 -24.603003686151069 $244 $332 forward 7 unknown #
vertex $-1 $249 $333 #
straight-curve $-1 0 24.603003686151069 6.71677693334248 1 0 0 I I #
coedge $-1 $244 $334 $160 $249 forward $320 $-1 #
edge $-1 $252 -6.71677693334248 $246 6.71677693334248 $248 $335 forward 7 unknown #
coedge $-1 $323 $161 $334 $336 forward $236 $-1 #
coedge $-1 $161 $323 $163 $254 forward $236 $-1 #
vertex $-1 $336 $337 #
straight-curve $-1 0 24.603003686151069 -6.71677693334248 -1 0 0 I I #
edge $-1 $327 -2.7257708595410506 $165 2.7257708595410506 $163 $338 forward 7 unknown #
point $-1 -43.749473555711539 24.603003686151069 -6.71677693334248 #
point $-1 -43.749473555711539 24.603003686151069 6.71677693334248 #
loop $-1 $-1 $176 $168 #
plane-surface $-1 46.749473555711539 0 0 -1 0 0 0 0 1 forward_v I I I I #
coedge $-1 $260 $171 $173 $264 reversed $99 $-1 #
coedge $-1 $171 $259 $339 $340 reversed $99 $-1 #
coedge $-1 $179 $174 $171 $262 forward $169 $-1 #
edge $-1 $265 9.2704112084162986 $341 11.894205465324411 $261 $342 forward 7 unknown #
coedge $-1 $173 $172 $268 $343 reversed $61 $-1 #
edge $-1 $344 -93.49894711142305 $265 -88.924501329203963 $259 $345 forward 7 unknown #
vertex $-1 $175 $346 #
straight-curve $-1 44.125679298803419 -0.78296354827831394 6.71677693334248 0 -1 0 I I #
coedge $-1 $339 $176 $179 $272 reversed $257 $-1 #
coedge $-1 $176 $339 $263 $343 forward $257 $-1 #
vertex $-1 $177 $347 #
straight-curve $-1 46.749473555711539 2.6380876908830011 66.594128254233922 0 0 1 I I #
straight-curve $-1 -6.8793182449206256 2.6380876908830011 79.559464707835659 0.57357642473473569 0 -0.81915205242281985 I I #
edge $-1 $341 -5.7699418839962568 $180 2.6380876908830011 $267 $348 forward 7 unknown #
point $-1 46.749473555711539 2.6380876908830011 6.71677693334248 #
point $-1 44.125679298803426 2.6380876908830011 6.7167769333424729 #
edge $-1 $349 1 $349 0 $183 $-1 forward 7 unknown #
vertex $-1 $184 $350 #
ellipse-curve $-1 43.276786959222129 -3.3676477197450403 3.3301925794045157 0.81915205242281985 0 0.57357642473473569 0.57357642473473569 0 -0.81915205242281985 1 I I #
point $-1 46.011152851992208 -3.3676477197450403 4.0240415553188074 #
edge $-1 $351 1 $351 0 $187 $-1 forward 7 unknown #
vertex $-1 $188 $352 #
ellipse-curve $-1 43.276786959222129 0.23579352663178454 3.3301925794045157 0.81915205242281985 0 0.57357642473473569 0.57357642473473569 0 -0.81915205242281985 1 I I #
point $-1 46.011152851992208 0.23579352663178454 4.0240415553188074 #
plane-surface $-1 46.749473555711539 0 0 -1 0 0 0 0 1 forward_v I I I I #
coedge $-1 $199 $286 $194 $285 reversed $192 $-1 #
edge $-1 $292 -6.71677693334248 $299 6.71677693334248 $284 $353 forward 7 unknown #
coedge $-1 $284 $291 $195 $287 reversed $192 $-1 #
edge $-1 $299 -46.749473555711539 $288 46.749473555711539 $286 $354 forward 7 unknown #
vertex $-1 $197 $355 #
straight-curve $-1 46.749473555711539 0 -6.71677693334248 0 -1 0 I I #
edge $-1 $292 -24.603003686151069 $210 24.603003686151069 $208 $356 forward 7 unknown #
coedge $-1 $286 $199 $202 $295 forward $192 $-1 #
vertex $-1 $200 $357 #
straight-curve $-1 0 24.603003686151069 6.71677693334248 -1 0 0 I I #
straight-curve $-1 0 -24.603003686151069 6.71677693334248 1 0 0 I I #
edge $-1 $205 -6.71677693334248 $288 6.71677693334248 $202 $358 forward 7 unknown #
point $-1 46.749473555711539 -24.603003686151069 6.71677693334248 #
point $-1 46.749473555711539 24.603003686151069 6.71677693334248 #
point $-1 -46.749473555711539 -24.603003686151069 6.71677693334248 #
vertex $-1 $287 $359 #
straight-curve $-1 -46.749473555711539 0 -6.71677693334248 0 1 0 I I #
plane-surface $-1 0 0 -6.71677693334248 0 0 1 1 0 0 forward_v I I I I #
coedge $-1 $316 $217 $314 $360 reversed $138 $-1 #
coedge $-1 $217 $316 $221 $308 reversed $138 $-1 #
coedge $-1 $219 $218 $217 $305 reversed $83 $-1 #
edge $-1 $309 -6.71677693334248 $361 6.71677693334248 $304 $362 forward 7 unknown #
edge $-1 $361 -30.054545405233171 $229 -24.603003686151069 $218 $363 forward 7 unknown #
straight-curve $-1 -46.749473555711539 -24.603003686151069 0 0 0 -1 I I #
edge $-1 $309 -1.5 $311 1.5 $303 $364 forward 7 unknown #
vertex $-1 $222 $365 #
straight-curve $-1 -46.749473555711539 0 6.71677693334248 0 -1 0 I I #
vertex $-1 $223 $366 #
straight-curve $-1 -43.749473555711539 -27.32877454569212 6.71677693334248 0 1 0 I I #
point $-1 -46.749473555711539 -24.603003686151069 6.71677693334248 #
coedge $-1 $227 $226 $302 $360 forward $228 $-1 #
point $-1 -46.749473555711539 -24.603003686151069 -6.71677693334248 #
coedge $-1 $303 $302 $231 $317 reversed $138 $-1 #
edge $-1 $311 -6.71677693334248 $318 6.71677693334248 $231 $367 forward 7 unknown #
vertex $-1 $317 $368 #
straight-curve $-1 -43.749473555711539 -27.32877454569212 -6.71677693334248 0 -1 0 I I #
loop $-1 $-1 $248 $235 #
plane-surface $-1 -46.749473555711539 0 0 1 0 0 0 0 -1 forward_v I I I I #
coedge $-1 $239 $238 $330 $369 reversed $91 $-1 #
coedge $-1 $251 $250 $238 $324 forward $236 $-1 #
edge $-1 $370 -1.5 $327 1.5 $238 $371 forward 7 unknown #
edge $-1 $326 -1.5 $331 1.5 $239 $372 forward 7 unknown #
vertex $-1 $243 $373 #
vertex $-1 $254 $374 #
straight-curve $-1 -43.749473555711539 30.054545405233171 0 0 0 -1 I I #
straight-curve $-1 -43.749473555711539 27.32877454569212 6.71677693334248 0 1 0 I I #
coedge $-1 $334 $244 $322 $369 forward $320 $-1 #
vertex $-1 $325 $375 #
straight-curve $-1 -46.749473555711539 0 6.71677693334248 0 -1 0 I I #
point $-1 -46.749473555711539 24.603003686151069 6.71677693334248 #
coedge $-1 $248 $330 $250 $336 reversed $320 $-1 #
straight-curve $-1 -46.749473555711539 24.603003686151069 0 0 0 1 I I #
edge $-1 $252 -2.7257708595410506 $370 2.7257708595410506 $334 $376 forward 7 unknown #
point $-1 -46.749473555711539 24.603003686151069 -6.71677693334248 #
straight-curve $-1 -43.749473555711539 27.32877454569212 -6.71677693334248 0 -1 0 I I #
coedge $-1 $268 $267 $260 $340 forward $257 $-1 #
edge $-1 $341 59.877351320891442 $344 63.62451797209313 $339 $377 forward 7 unknown #
vertex $-1 $272 $378 #
straight-curve $-1 34.855268090387128 -5.7699418839962568 6.71677693334248 1 0 0 I I #
edge $-1 $344 -4.9869783357179429 $269 3.421051239161315 $268 $379 forward 7 unknown #
vertex $-1 $343 $380 #
straight-curve $-1 -6.8793182449206256 -5.7699418839962568 79.559464707835659 -0.57357642473473569 0 0.81915205242281985 I I #
point $-1 44.125679298803426 -5.7699418839962568 6.7167769333424729 #
point $-1 46.749473555711539 2.6380876908830011 2.9696102821407919 #
straight-curve $-1 46.749473555711539 0 6.71677693334248 0 1 0 I I #
vertex $-1 $275 $381 #
point $-1 43.850363383956861 -3.3676477197450403 2.511040526981696 #
vertex $-1 $279 $382 #
point $-1 43.850363383956861 0.23579352663178454 2.511040526981696 #
straight-curve $-1 -46.749473555711539 24.603003686151069 0 0 0 -1 I I #
straight-curve $-1 0 24.603003686151069 -6.71677693334248 1 0 0 I I #
point $-1 46.749473555711539 24.603003686151069 -6.71677693334248 #
straight-curve $-1 -46.749473555711539 0 6.71677693334248 0 -1 0 I I #
point $-1 -46.749473555711539 24.603003686151069 6.71677693334248 #
straight-curve $-1 46.749473555711539 24.603003686151069 0 0 0 -1 I I #
point $-1 -46.749473555711539 24.603003686151069 -6.71677693334248 #
edge $-1 $318 -1.5 $361 1.5 $302 $383 forward 7 unknown #
vertex $-1 $306 $384 #
straight-curve $-1 -46.749473555711539 -30.054545405233171 0 0 0 -1 I I #
straight-curve $-1 -46.749473555711539 0 -6.71677693334248 0 1 0 I I #
straight-curve $-1 -45.249473555711539 -30.054545405233171 6.71677693334248 1 0 0 I I #
point $-1 -46.749473555711539 -30.054545405233171 6.71677693334248 #
point $-1 -43.749473555711539 -30.054545405233171 6.71677693334248 #
straight-curve $-1 -43.749473555711539 -30.054545405233171 0 0 0 -1 I I #
point $-1 -43.749473555711539 -30.054545405233171 -6.71677693334248 #
edge $-1 $331 -6.71677693334248 $370 6.71677693334248 $322 $385 forward 7 unknown #
vertex $-1 $324 $386 #
straight-curve $-1 -45.249473555711539 30.054545405233171 -6.71677693334248 1 0 0 I I #
straight-curve $-1 -45.249473555711539 30.054545405233171 6.71677693334248 -1 0 0 I I #
point $-1 -43.749473555711539 30.054545405233171 6.71677693334248 #
point $-1 -43.749473555711539 30.054545405233171 -6.71677693334248 #
point $-1 -46.749473555711539 30.054545405233171 6.71677693334248 #
straight-curve $-1 -46.749473555711539 27.32877454569212 -6.71677693334248 0 1 0 I I #
straight-curve $-1 46.749473555711539 -5.7699418839962568 66.594128254233922 0 0 -1 I I #
point $-1 46.749473555711539 -5.7699418839962568 6.71677693334248 #
straight-curve $-1 46.749473555711546 -0.78296354827831394 2.9696102821407919 0 1 0 I I #
point $-1 46.749473555711539 -5.7699418839962568 2.9696102821407919 #
point $-1 42.457634906799306 -3.3676477197450403 2.7566161546697803 #
point $-1 42.457634906799306 0.23579352663178454 2.7566161546697803 #
straight-curve $-1 -45.249473555711539 -30.054545405233171 -6.71677693334248 -1 0 0 I I #
point $-1 -46.749473555711539 -30.054545405233171 -6.71677693334248 #
straight-curve $-1 -46.749473555711539 30.054545405233171 0 0 0 -1 I I #
point $-1 -46.749473555711539 30.054545405233171 -6.71677693334248 #
End-of-ACIS-data 