500 0 12 0           
7 Unknown 11 ACIS 5.0 NT 24 Fri Mar 26 14:50:03 1999 
-1 9.9999999999999995e-007 1e-010 
body $-1 $12 $-1 $13 #
body $-1 $14 $-1 $15 #
body $-1 $16 $-1 $17 #
body $-1 $18 $-1 $19 #
body $-1 $20 $-1 $21 #
body $-1 $22 $-1 $23 #
body $-1 $24 $-1 $25 #
body $-1 $26 $-1 $27 #
body $-1 $28 $-1 $29 #
body $-1 $30 $-1 $31 #
body $-1 $32 $-1 $33 #
body $-1 $34 $-1 $35 #
lump $-1 $-1 $36 $0 #
transform $-1 1 0 0 0 1 0 0 0 1 76.111941892757955 50.247772130879191 23.912584597310641 1 rotate no_reflect no_shear #
lump $-1 $-1 $37 $1 #
transform $-1 1 0 0 0 1 0 0 0 1 76.111941892757955 50.247772130879191 23.912584597310641 1 rotate no_reflect no_shear #
lump $-1 $-1 $38 $2 #
transform $-1 1 0 0 0 1 0 0 0 1 76.111941892757955 50.247772130879191 23.912584597310641 1 rotate no_reflect no_shear #
lump $-1 $-1 $39 $3 #
transform $-1 1 0 0 0 1 0 0 0 1 76.111941892757955 50.247772130879191 23.912584597310641 1 rotate no_reflect no_shear #
lump $-1 $-1 $40 $4 #
transform $-1 1 0 0 0 1 0 0 0 1 76.111941892757955 50.247772130879191 23.912584597310641 1 rotate no_reflect no_shear #
lump $-1 $-1 $41 $5 #
transform $-1 1 0 0 0 1 0 0 0 1 76.111941892757955 50.247772130879191 23.912584597310641 1 rotate no_reflect no_shear #
lump $-1 $-1 $42 $6 #
transform $-1 1 0 0 0 1 0 0 0 1 76.111941892757955 50.247772130879191 23.912584597310641 1 rotate no_reflect no_shear #
lump $-1 $-1 $43 $7 #
transform $-1 1 0 0 0 1 0 0 0 1 76.111941892757955 50.247772130879191 23.912584597310641 1 rotate no_reflect no_shear #
lump $-1 $-1 $44 $8 #
transform $-1 1 0 0 0 1 0 0 0 1 76.111941892757955 50.247772130879191 23.912584597310641 1 rotate no_reflect no_shear #
lump $-1 $-1 $45 $9 #
transform $-1 1 0 0 0 1 0 0 0 1 76.111941892757955 50.247772130879191 23.912584597310641 1 rotate no_reflect no_shear #
lump $-1 $-1 $46 $10 #
transform $-1 1 0 0 0 1 0 0 0 1 76.111941892757955 50.247772130879191 23.912584597310641 1 rotate no_reflect no_shear #
lump $-1 $-1 $47 $11 #
transform $-1 1 0 0 0 1 0 0 0 1 76.111941892757955 50.247772130879191 23.912584597310641 1 rotate no_reflect no_shear #
shell $-1 $-1 $-1 $48 $-1 $12 #
shell $-1 $-1 $-1 $49 $-1 $14 #
shell $-1 $-1 $-1 $50 $-1 $16 #
shell $-1 $-1 $-1 $51 $-1 $18 #
shell $-1 $-1 $-1 $52 $-1 $20 #
shell $-1 $-1 $-1 $53 $-1 $22 #
shell $-1 $-1 $-1 $54 $-1 $24 #
shell $-1 $-1 $-1 $55 $-1 $26 #
shell $-1 $-1 $-1 $56 $-1 $28 #
shell $-1 $-1 $-1 $57 $-1 $30 #
shell $-1 $-1 $-1 $58 $-1 $32 #
shell $-1 $-1 $-1 $59 $-1 $34 #
face $-1 $60 $61 $36 $-1 $62 forward single #
face $-1 $63 $64 $37 $-1 $65 forward single #
face $-1 $66 $67 $38 $-1 $68 reversed single #
face $-1 $69 $70 $39 $-1 $71 forward single #
face $-1 $72 $73 $40 $-1 $74 reversed single #
face $-1 $75 $76 $41 $-1 $77 forward single #
face $-1 $78 $79 $42 $-1 $80 forward single #
face $-1 $81 $82 $43 $-1 $83 forward single #
face $-1 $84 $85 $44 $-1 $86 reversed single #
face $-1 $87 $88 $45 $-1 $89 forward single #
face $-1 $90 $91 $46 $-1 $92 forward single #
face $-1 $93 $94 $47 $-1 $95 forward single #
face $-1 $96 $97 $36 $-1 $98 reversed single #
loop $-1 $-1 $99 $48 #
plane-surface $-1 0 0 23.912584597310641 0 0 1 1 0 0 forward_v I I I I #
face $-1 $100 $101 $37 $-1 $102 reversed single #
loop $-1 $-1 $103 $49 #
plane-surface $-1 0 -37.613305884641399 9.8353500477447895 0 0 1 1 0 0 forward_v I I I I #
face $-1 $104 $105 $38 $-1 $106 reversed single #
loop $-1 $-1 $107 $50 #
plane-surface $-1 64.845212331233199 31.517532730184868 220.34119232234053 0 1 0 0.66913061440640931 0 0.74314481823134659 forward_v I I I I #
face $-1 $108 $109 $39 $-1 $110 forward single #
loop $-1 $111 $112 $51 #
cone-surface $-1 64.92475263338919 38.582754947335651 13.653696911023932 -0.66913061440640931 0 -0.74314481823134659 1.4862896364626932 0 -1.3382612288128186 1 I I 0 1 2 forward I I I I #
face $-1 $113 $114 $40 $-1 $115 reversed single #
loop $-1 $-1 $116 $52 #
plane-surface $-1 -156.77831145220895 -4.36217477192438 134.4331685323051 0 1 0 -0.52991927123019833 0 0.84804809178421925 forward_v I I I I #
face $-1 $117 $118 $41 $-1 $119 forward single #
loop $-1 $120 $121 $53 #
cone-surface $-1 -60.502982452233866 -0.96284656829194404 13.429589762045541 0.52991927123019833 0 -0.84804809178421925 1.2720721376763289 0 0.79487890684529749 1 I I 0 1 1.5 forward I I I I #
face $-1 $122 $123 $42 $-1 $124 forward single #
loop $-1 $125 $126 $54 #
cone-surface $-1 -60.502982452233866 4.1361457371567028 13.429589762045541 0.52991927123019833 0 -0.84804809178421925 1.2720721376763289 0 0.79487890684529749 1 I I 0 1 1.5 forward I I I I #
face $-1 $127 $128 $43 $-1 $129 forward single #
loop $-1 $130 $131 $55 #
cone-surface $-1 -60.502982452233866 9.2351380426053495 13.429589762045541 0.52991927123019833 0 -0.84804809178421925 1.2720721376763289 0 0.79487890684529749 1 I I 0 1 1.5 forward I I I I #
face $-1 $132 $133 $44 $-1 $134 reversed single #
loop $-1 $-1 $135 $56 #
plane-surface $-1 -76.111941892757955 4.1361457371567028 5.3399943640155811 -0.52991927123019833 0 0.84804809178421925 0.84804809178421925 0 0.52991927123019833 forward_v I I I I #
face $-1 $136 $137 $45 $-1 $138 forward single #
loop $-1 $139 $140 $57 #
cone-surface $-1 -60.502982452233866 16.033794449870236 13.429589762045541 0.52991927123019833 0 -0.84804809178421925 1.2720721376763289 0 0.79487890684529749 1 I I 0 1 1.5 forward I I I I #
face $-1 $141 $142 $46 $-1 $143 forward single #
loop $-1 $144 $145 $58 #
cone-surface $-1 -60.502982452233866 21.132786755318868 13.429589762045541 0.52991927123019833 0 -0.84804809178421925 1.2720721376763289 0 0.79487890684529749 1 I I 0 1 1.5 forward I I I I #
face $-1 $146 $147 $47 $-1 $148 forward single #
loop $-1 $149 $150 $59 #
cone-surface $-1 -60.502982452233866 26.231779060767529 13.429589762045541 0.52991927123019833 0 -0.84804809178421925 1.2720721376763289 0 0.79487890684529749 1 I I 0 1 1.5 forward I I I I #
face $-1 $151 $152 $36 $-1 $153 reversed single #
loop $-1 $-1 $154 $60 #
plane-surface $-1 0 0 -23.912584597310641 0 0 1 1 0 0 forward_v I I I I #
coedge $-1 $155 $156 $157 $158 forward $61 $-1 #
face $-1 $159 $160 $37 $-1 $161 reversed single #
loop $-1 $-1 $162 $63 #
plane-surface $-1 0 -37.613305884641399 1.0478200276008565 0 0 1 1 0 0 forward_v I I I I #
coedge $-1 $163 $164 $165 $166 reversed $64 $-1 #
face $-1 $167 $168 $38 $-1 $169 reversed single #
loop $-1 $-1 $170 $66 #
plane-surface $-1 -37.012448553498913 38.582754947335637 107.21680187608368 0.66913061440640931 0 0.74314481823134659 0.74314481823134659 0 -0.66913061440640931 forward_v I I I I #
coedge $-1 $171 $172 $173 $174 reversed $67 $-1 #
face $-1 $-1 $175 $39 $-1 $176 forward single #
loop $-1 $177 $178 $69 #
cone-surface $-1 63.371275866222874 38.582754947335651 11.928386209485396 -0.66913061440640931 0 -0.74314481823134659 0.74314481823134659 0 -0.66913061440640931 1 I I -0.70710678118654746 0.70710678118654746 1 forward I I I I #
loop $-1 $-1 $179 $51 #
coedge $-1 $112 $112 $180 $181 reversed $70 $-1 #
face $-1 $182 $183 $40 $-1 $184 reversed single #
loop $-1 $-1 $185 $72 #
plane-surface $-1 -76.111941892757955 4.1361457371567028 5.3399943640155811 -0.52991927123019833 0 0.84804809178421925 0.84804809178421925 0 0.52991927123019833 forward_v I I I I #
coedge $-1 $186 $187 $188 $189 reversed $73 $-1 #
face $-1 $-1 $190 $41 $-1 $191 forward single #
loop $-1 $192 $193 $75 #
cone-surface $-1 -59.3577620074797 -0.96284656829194404 11.596853974589813 0.52991927123019833 0 -0.84804809178421925 0.63603606883816444 0 0.39743945342264875 1 I I -0.70710678118654757 0.70710678118654757 0.75 forward I I I I #
loop $-1 $-1 $194 $53 #
coedge $-1 $121 $121 $195 $196 reversed $76 $-1 #
face $-1 $-1 $197 $42 $-1 $198 forward single #
loop $-1 $199 $200 $78 #
cone-surface $-1 -59.3577620074797 4.1361457371567028 11.596853974589813 0.52991927123019833 0 -0.84804809178421925 0.63603606883816444 0 0.39743945342264875 1 I I -0.70710678118654757 0.70710678118654757 0.75 forward I I I I #
loop $-1 $-1 $201 $54 #
coedge $-1 $126 $126 $202 $203 reversed $79 $-1 #
face $-1 $-1 $204 $43 $-1 $205 forward single #
loop $-1 $206 $207 $81 #
cone-surface $-1 -59.3577620074797 9.2351380426053495 11.596853974589813 0.52991927123019833 0 -0.84804809178421925 0.63603606883816444 0 0.39743945342264875 1 I I -0.70710678118654757 0.70710678118654757 0.75 forward I I I I #
loop $-1 $-1 $208 $55 #
coedge $-1 $131 $131 $209 $210 reversed $82 $-1 #
face $-1 $211 $212 $44 $-1 $213 forward single #
loop $-1 $-1 $214 $84 #
plane-surface $-1 -156.77831145220895 29.631107264399951 134.4331685323051 0 -1 0 0.52991927123019833 0 -0.84804809178421925 forward_v I I I I #
coedge $-1 $215 $216 $217 $218 reversed $85 $-1 #
face $-1 $-1 $219 $45 $-1 $220 forward single #
loop $-1 $221 $222 $87 #
cone-surface $-1 -59.3577620074797 16.033794449870236 11.596853974589813 0.52991927123019833 0 -0.84804809178421925 0.63603606883816444 0 0.39743945342264875 1 I I -0.70710678118654757 0.70710678118654757 0.75 forward I I I I #
loop $-1 $-1 $223 $57 #
coedge $-1 $140 $140 $224 $225 reversed $88 $-1 #
face $-1 $-1 $226 $46 $-1 $227 forward single #
loop $-1 $228 $229 $90 #
cone-surface $-1 -59.3577620074797 21.132786755318868 11.596853974589813 0.52991927123019833 0 -0.84804809178421925 0.63603606883816444 0 0.39743945342264875 1 I I -0.70710678118654757 0.70710678118654757 0.75 forward I I I I #
loop $-1 $-1 $230 $58 #
coedge $-1 $145 $145 $231 $232 reversed $91 $-1 #
face $-1 $-1 $233 $47 $-1 $234 forward single #
loop $-1 $235 $236 $93 #
cone-surface $-1 -59.3577620074797 26.231779060767529 11.596853974589813 0.52991927123019833 0 -0.84804809178421925 0.63603606883816444 0 0.39743945342264875 1 I I -0.70710678118654757 0.70710678118654757 0.75 forward I I I I #
loop $-1 $-1 $237 $59 #
coedge $-1 $150 $150 $238 $239 reversed $94 $-1 #
face $-1 $240 $241 $36 $-1 $242 reversed single #
loop $-1 $-1 $243 $96 #
plane-surface $-1 0 -50.247772130879191 0 0 1 0 0 0 1 forward_v I I I I #
coedge $-1 $244 $245 $246 $247 forward $97 $-1 #
coedge $-1 $248 $99 $249 $250 forward $61 $-1 #
coedge $-1 $99 $248 $251 $252 forward $61 $-1 #
coedge $-1 $253 $254 $99 $158 reversed $255 $-1 #
edge $-1 $256 -50.247772130879191 $257 50.247772130879191 $157 $258 forward 7 unknown #
face $-1 $259 $260 $37 $-1 $261 reversed single #
loop $-1 $-1 $262 $100 #
plane-surface $-1 0 -24.978839638403606 5.441585037672823 0 -1 0 0 0 -1 forward_v I I I I #
coedge $-1 $263 $264 $265 $266 reversed $101 $-1 #
coedge $-1 $267 $103 $268 $269 forward $64 $-1 #
coedge $-1 $103 $267 $270 $271 reversed $64 $-1 #
coedge $-1 $272 $273 $103 $166 forward $274 $-1 #
edge $-1 $275 6.1721866960829068 $276 31.441119188558492 $165 $277 forward 7 unknown #
face $-1 $278 $279 $38 $-1 $280 forward single #
loop $-1 $-1 $281 $104 #
plane-surface $-1 64.845212331233199 45.647977164486406 220.34119232234053 0 -1 0 -0.66913061440640931 0 -0.74314481823134659 forward_v I I I I #
coedge $-1 $282 $283 $284 $285 reversed $105 $-1 #
coedge $-1 $172 $107 $286 $287 reversed $67 $-1 #
coedge $-1 $107 $171 $282 $288 reversed $67 $-1 #
coedge $-1 $284 $289 $107 $174 forward $290 $-1 #
edge $-1 $291 86.258011563859625 $292 104.81145516981871 $173 $293 forward 7 unknown #
loop $-1 $-1 $180 $108 #
plane-surface $-1 -37.012448553498913 38.582754947335637 107.21680187608368 0.66913061440640931 0 0.74314481823134659 0.74314481823134659 0 -0.66913061440640931 forward_v I I I I #
loop $-1 $-1 $294 $69 #
coedge $-1 $178 $178 $179 $295 reversed $109 $-1 #
coedge $-1 $179 $179 $178 $295 forward $111 $-1 #
coedge $-1 $180 $180 $112 $181 forward $175 $-1 #
edge $-1 $296 0 $296 6.2831853071796004 $180 $297 forward 7 unknown #
face $-1 $298 $299 $40 $-1 $300 reversed single #
loop $-1 $-1 $301 $113 #
plane-surface $-1 -156.77831145220895 12.634466246237785 134.4331685323051 0 -1 0 0.52991927123019833 0 -0.84804809178421925 forward_v I I I I #
coedge $-1 $302 $303 $304 $305 reversed $114 $-1 #
coedge $-1 $187 $116 $306 $307 reversed $73 $-1 #
coedge $-1 $116 $186 $302 $308 reversed $73 $-1 #
coedge $-1 $304 $309 $116 $189 forward $310 $-1 #
edge $-1 $311 2.2772138333465222 $312 31.999570731731652 $188 $313 forward 7 unknown #
loop $-1 $-1 $195 $117 #
plane-surface $-1 -76.111941892757955 4.1361457371567028 5.3399943640155811 -0.52991927123019833 0 0.84804809178421925 0.84804809178421925 0 0.52991927123019833 forward_v I I I I #
loop $-1 $-1 $314 $75 #
coedge $-1 $193 $193 $194 $315 reversed $118 $-1 #
coedge $-1 $194 $194 $193 $315 forward $120 $-1 #
coedge $-1 $195 $195 $121 $196 forward $190 $-1 #
edge $-1 $316 0 $316 6.2831853071796004 $195 $317 forward 7 unknown #
loop $-1 $-1 $202 $122 #
plane-surface $-1 -76.111941892757955 4.1361457371567028 5.3399943640155811 -0.52991927123019833 0 0.84804809178421925 0.84804809178421925 0 0.52991927123019833 forward_v I I I I #
loop $-1 $-1 $318 $78 #
coedge $-1 $200 $200 $201 $319 reversed $123 $-1 #
coedge $-1 $201 $201 $200 $319 forward $125 $-1 #
coedge $-1 $202 $202 $126 $203 forward $197 $-1 #
edge $-1 $320 0 $320 6.2831853071796004 $202 $321 forward 7 unknown #
loop $-1 $-1 $209 $127 #
plane-surface $-1 -76.111941892757955 4.1361457371567028 5.3399943640155811 -0.52991927123019833 0 0.84804809178421925 0.84804809178421925 0 0.52991927123019833 forward_v I I I I #
loop $-1 $-1 $322 $81 #
coedge $-1 $207 $207 $208 $323 reversed $128 $-1 #
coedge $-1 $208 $208 $207 $323 forward $130 $-1 #
coedge $-1 $209 $209 $131 $210 forward $204 $-1 #
edge $-1 $324 0 $324 6.2831853071796004 $209 $325 forward 7 unknown #
face $-1 $326 $327 $44 $-1 $328 forward single #
loop $-1 $-1 $329 $132 #
plane-surface $-1 0 0 23.912584597310641 0 0 1 1 0 0 forward_v I I I I #
coedge $-1 $330 $331 $332 $333 reversed $133 $-1 #
coedge $-1 $334 $135 $335 $336 reversed $85 $-1 #
coedge $-1 $135 $334 $329 $337 reversed $85 $-1 #
coedge $-1 $338 $339 $135 $218 forward $327 $-1 #
edge $-1 $340 0 $341 35.047961532289847 $217 $342 forward 7 unknown #
loop $-1 $-1 $224 $136 #
plane-surface $-1 -76.111941892757955 4.1361457371567028 5.3399943640155811 -0.52991927123019833 0 0.84804809178421925 0.84804809178421925 0 0.52991927123019833 forward_v I I I I #
loop $-1 $-1 $343 $87 #
coedge $-1 $222 $222 $223 $344 reversed $137 $-1 #
coedge $-1 $223 $223 $222 $344 forward $139 $-1 #
coedge $-1 $224 $224 $140 $225 forward $219 $-1 #
edge $-1 $345 0 $345 6.2831853071796004 $224 $346 forward 7 unknown #
loop $-1 $-1 $231 $141 #
plane-surface $-1 -76.111941892757955 4.1361457371567028 5.3399943640155811 -0.52991927123019833 0 0.84804809178421925 0.84804809178421925 0 0.52991927123019833 forward_v I I I I #
loop $-1 $-1 $347 $90 #
coedge $-1 $229 $229 $230 $348 reversed $142 $-1 #
coedge $-1 $230 $230 $229 $348 forward $144 $-1 #
coedge $-1 $231 $231 $145 $232 forward $226 $-1 #
edge $-1 $349 0 $349 6.2831853071796004 $231 $350 forward 7 unknown #
loop $-1 $-1 $238 $146 #
plane-surface $-1 -76.111941892757955 4.1361457371567028 5.3399943640155811 -0.52991927123019833 0 0.84804809178421925 0.84804809178421925 0 0.52991927123019833 forward_v I I I I #
loop $-1 $-1 $351 $93 #
coedge $-1 $236 $236 $237 $352 reversed $147 $-1 #
coedge $-1 $237 $237 $236 $352 forward $149 $-1 #
coedge $-1 $238 $238 $150 $239 forward $233 $-1 #
edge $-1 $353 0 $353 6.2831853071796004 $238 $354 forward 7 unknown #
face $-1 $355 $356 $36 $-1 $357 reversed single #
loop $-1 $-1 $358 $151 #
plane-surface $-1 -76.111941892757955 0 0 1 0 0 0 0 -1 forward_v I I I I #
coedge $-1 $359 $251 $360 $361 forward $152 $-1 #
coedge $-1 $362 $154 $359 $363 forward $97 $-1 #
coedge $-1 $154 $362 $364 $365 forward $97 $-1 #
coedge $-1 $254 $253 $154 $247 reversed $255 $-1 #
edge $-1 $366 -50.247772130879191 $367 50.247772130879191 $246 $368 forward 7 unknown #
coedge $-1 $156 $155 $369 $370 forward $61 $-1 #
coedge $-1 $371 $372 $155 $250 reversed $356 $-1 #
edge $-1 $257 -76.111941892757955 $373 76.111941892757955 $249 $374 forward 7 unknown #
coedge $-1 $243 $375 $156 $252 reversed $152 $-1 #
edge $-1 $376 -76.111941892757955 $256 76.111941892757955 $251 $377 forward 7 unknown #
coedge $-1 $246 $157 $375 $378 forward $255 $-1 #
coedge $-1 $157 $246 $371 $379 reversed $255 $-1 #
loop $-1 $-1 $253 $355 #
vertex $-1 $158 $380 #
vertex $-1 $158 $381 #
straight-curve $-1 76.111941892757955 0 23.912584597310641 0 1 0 I I #
face $-1 $382 $383 $37 $-1 $384 reversed single #
loop $-1 $-1 $385 $159 #
plane-surface $-1 -76.111941892757955 0 0 1 0 0 0 0 -1 forward_v I I I I #
coedge $-1 $386 $268 $273 $387 reversed $160 $-1 #
coedge $-1 $388 $162 $389 $390 reversed $101 $-1 #
coedge $-1 $162 $388 $386 $391 forward $101 $-1 #
coedge $-1 $273 $272 $162 $266 forward $274 $-1 #
edge $-1 $392 -31.441119188558492 $393 -6.1721866960829068 $265 $394 forward 7 unknown #
coedge $-1 $164 $163 $385 $395 reversed $64 $-1 #
coedge $-1 $262 $396 $163 $269 reversed $160 $-1 #
edge $-1 $275 -76.111941892757955 $397 76.111941892757955 $268 $398 forward 7 unknown #
coedge $-1 $399 $400 $164 $271 forward $383 $-1 #
edge $-1 $276 -76.111941892757955 $401 76.111941892757955 $270 $402 forward 7 unknown #
coedge $-1 $265 $165 $400 $403 forward $274 $-1 #
coedge $-1 $165 $265 $262 $387 forward $274 $-1 #
loop $-1 $-1 $165 $382 #
vertex $-1 $166 $404 #
vertex $-1 $403 $405 #
straight-curve $-1 76.111941892757955 -18.806652942320699 9.8353500477447895 0 -1 0 I I #
face $-1 $-1 $290 $38 $-1 $406 reversed single #
loop $-1 $-1 $407 $167 #
plane-surface $-1 0 0 23.912584597310641 0 0 1 1 0 0 forward_v I I I I #
coedge $-1 $408 $409 $410 $411 reversed $168 $-1 #
coedge $-1 $412 $170 $172 $288 forward $105 $-1 #
coedge $-1 $170 $412 $408 $413 forward $105 $-1 #
coedge $-1 $410 $173 $170 $285 forward $290 $-1 #
edge $-1 $292 12.22615525651705 $414 26.356599690818587 $284 $415 forward 7 unknown #
coedge $-1 $416 $417 $171 $287 forward $279 $-1 #
edge $-1 $418 23.083649513923703 $291 43.689335727141355 $286 $419 forward 7 unknown #
edge $-1 $292 -152.22388378551594 $418 -124.49619773065207 $172 $420 forward 7 unknown #
coedge $-1 $173 $410 $416 $421 reversed $290 $-1 #
loop $-1 $-1 $410 $278 #
vertex $-1 $421 $422 #
vertex $-1 $174 $423 #
straight-curve $-1 76.111941892757955 31.517532730184868 110.17059616117027 0 0 -1 I I #
coedge $-1 $294 $294 $-1 $424 reversed $177 $-1 #
edge $-1 $425 0 $425 6.2831853071796004 $178 $426 forward 7 unknown #
vertex $-1 $181 $427 #
ellipse-curve $-1 65.809098786149093 38.582754947335651 14.635862794331116 0.66913061440640931 0 0.74314481823134659 1.4862896364626932 0 -1.3382612288128186 1 I I #
face $-1 $-1 $310 $40 $-1 $428 forward single #
loop $-1 $-1 $429 $182 #
plane-surface $-1 -76.111941892757955 0 0 1 0 0 0 0 -1 forward_v I I I I #
coedge $-1 $430 $431 $432 $433 reversed $183 $-1 #
coedge $-1 $434 $185 $187 $308 forward $114 $-1 #
coedge $-1 $185 $434 $430 $435 forward $114 $-1 #
coedge $-1 $432 $188 $185 $305 forward $310 $-1 #
edge $-1 $312 -6.4302476405027313 $436 10.566393377659434 $304 $437 forward 7 unknown #
coedge $-1 $438 $439 $186 $307 forward $299 $-1 #
edge $-1 $440 -61.876589902136971 $311 -43.303999668841911 $306 $441 forward 7 unknown #
edge $-1 $312 -35.047961532289847 $440 0 $187 $442 forward 7 unknown #
coedge $-1 $188 $432 $438 $443 forward $310 $-1 #
loop $-1 $-1 $432 $298 #
vertex $-1 $307 $444 #
vertex $-1 $189 $445 #
straight-curve $-1 -78.389155726104477 -4.36217477192438 23.912584597310641 1 0 0 I I #
coedge $-1 $314 $314 $-1 $446 reversed $192 $-1 #
edge $-1 $447 0 $447 6.2831853071796004 $193 $448 forward 7 unknown #
vertex $-1 $196 $449 #
ellipse-curve $-1 -61.250763443565383 -0.96284656829194404 14.626289480663115 -0.52991927123019833 0 0.84804809178421925 1.2720721376763289 0 0.79487890684529749 1 I I #
coedge $-1 $318 $318 $-1 $450 reversed $199 $-1 #
edge $-1 $451 0 $451 6.2831853071796004 $200 $452 forward 7 unknown #
vertex $-1 $203 $453 #
ellipse-curve $-1 -61.250763443565383 4.1361457371567028 14.626289480663115 -0.52991927123019833 0 0.84804809178421925 1.2720721376763289 0 0.79487890684529749 1 I I #
coedge $-1 $322 $322 $-1 $454 reversed $206 $-1 #
edge $-1 $455 0 $455 6.2831853071796004 $207 $456 forward 7 unknown #
vertex $-1 $210 $457 #
ellipse-curve $-1 -61.250763443565383 9.2351380426053495 14.626289480663115 -0.52991927123019833 0 0.84804809178421925 1.2720721376763289 0 0.79487890684529749 1 I I #
face $-1 $-1 $458 $44 $-1 $459 reversed single #
loop $-1 $-1 $338 $211 #
plane-surface $-1 -156.77831145220895 12.634466246237785 134.4331685323051 0 -1 0 0.52991927123019833 0 -0.84804809178421925 forward_v I I I I #
coedge $-1 $332 $460 $216 $337 forward $212 $-1 #
coedge $-1 $331 $214 $334 $461 reversed $133 $-1 #
coedge $-1 $214 $330 $462 $463 reversed $133 $-1 #
coedge $-1 $464 $329 $214 $333 forward $212 $-1 #
edge $-1 $465 -31.999570731731652 $466 -2.2772138333465222 $332 $467 forward 7 unknown #
coedge $-1 $216 $215 $330 $461 forward $85 $-1 #
coedge $-1 $468 $462 $215 $336 forward $458 $-1 #
edge $-1 $469 -27.5630343958216 $340 -10.566393377659434 $335 $470 forward 7 unknown #
edge $-1 $341 10.566393377659434 $465 27.5630343958216 $329 $471 forward 7 unknown #
coedge $-1 $339 $217 $460 $472 reversed $327 $-1 #
coedge $-1 $217 $338 $468 $473 reversed $327 $-1 #
vertex $-1 $336 $474 #
vertex $-1 $337 $475 #
straight-curve $-1 -76.111941892757955 12.634466246237785 5.3399943640155811 0.84804809178421925 0 0.52991927123019833 I I #
coedge $-1 $343 $343 $-1 $476 reversed $221 $-1 #
edge $-1 $477 0 $477 6.2831853071796004 $222 $478 forward 7 unknown #
vertex $-1 $225 $479 #
ellipse-curve $-1 -61.250763443565383 16.033794449870236 14.626289480663115 -0.52991927123019833 0 0.84804809178421925 1.2720721376763289 0 0.79487890684529749 1 I I #
coedge $-1 $347 $347 $-1 $480 reversed $228 $-1 #
edge $-1 $481 0 $481 6.2831853071796004 $229 $482 forward 7 unknown #
vertex $-1 $232 $483 #
ellipse-curve $-1 -61.250763443565383 21.132786755318868 14.626289480663115 -0.52991927123019833 0 0.84804809178421925 1.2720721376763289 0 0.79487890684529749 1 I I #
coedge $-1 $351 $351 $-1 $484 reversed $235 $-1 #
edge $-1 $485 0 $485 6.2831853071796004 $236 $486 forward 7 unknown #
vertex $-1 $239 $487 #
ellipse-curve $-1 -61.250763443565383 26.231779060767529 14.626289480663115 -0.52991927123019833 0 0.84804809178421925 1.2720721376763289 0 0.79487890684529749 1 I I #
face $-1 $-1 $255 $36 $-1 $488 reversed single #
loop $-1 $-1 $371 $240 #
plane-surface $-1 0 50.247772130879191 0 0 -1 0 0 0 -1 forward_v I I I I #
coedge $-1 $489 $369 $372 $490 forward $241 $-1 #
coedge $-1 $375 $243 $244 $363 reversed $152 $-1 #
coedge $-1 $369 $489 $243 $361 reversed $241 $-1 #
edge $-1 $376 -23.912584597310641 $491 23.912584597310641 $360 $492 forward 7 unknown #
coedge $-1 $245 $244 $489 $493 forward $97 $-1 #
edge $-1 $367 -76.111941892757955 $491 76.111941892757955 $359 $494 forward 7 unknown #
coedge $-1 $372 $371 $245 $365 reversed $356 $-1 #
edge $-1 $495 -76.111941892757955 $366 76.111941892757955 $364 $496 forward 7 unknown #
vertex $-1 $247 $497 #
vertex $-1 $378 $498 #
straight-curve $-1 76.111941892757955 0 -23.912584597310641 0 -1 0 I I #
coedge $-1 $358 $360 $248 $370 reversed $241 $-1 #
edge $-1 $373 -50.247772130879191 $376 50.247772130879191 $369 $499 forward 7 unknown #
coedge $-1 $364 $249 $254 $379 forward $356 $-1 #
coedge $-1 $249 $364 $358 $490 reversed $356 $-1 #
vertex $-1 $250 $500 #
straight-curve $-1 0 50.247772130879191 23.912584597310641 -1 0 0 I I #
coedge $-1 $251 $359 $253 $378 reversed $152 $-1 #
vertex $-1 $370 $501 #
straight-curve $-1 0 -50.247772130879191 23.912584597310641 1 0 0 I I #
edge $-1 $256 -23.912584597310641 $367 23.912584597310641 $253 $502 forward 7 unknown #
edge $-1 $257 -23.912584597310641 $366 23.912584597310641 $254 $503 forward 7 unknown #
point $-1 76.111941892757955 -50.247772130879191 23.912584597310641 #
point $-1 76.111941892757955 50.247772130879191 23.912584597310641 #
face $-1 $-1 $274 $37 $-1 $504 reversed single #
loop $-1 $-1 $270 $259 #
plane-surface $-1 0 -50.247772130879191 0 0 1 0 0 0 1 forward_v I I I I #
coedge $-1 $505 $506 $267 $395 forward $260 $-1 #
coedge $-1 $396 $262 $264 $391 reversed $160 $-1 #
edge $-1 $393 -1.672972491235555 $275 7.114557528908378 $273 $507 forward 7 unknown #
coedge $-1 $264 $263 $508 $509 reversed $101 $-1 #
coedge $-1 $400 $399 $263 $390 forward $383 $-1 #
edge $-1 $510 -76.111941892757955 $392 76.111941892757955 $389 $511 forward 7 unknown #
edge $-1 $512 -76.111941892757955 $393 76.111941892757955 $386 $513 forward 7 unknown #
vertex $-1 $390 $514 #
vertex $-1 $266 $515 #
straight-curve $-1 76.111941892757955 -18.806652942320699 1.0478200276008565 0 1 0 I I #
edge $-1 $401 -31.441119188558492 $397 -6.1721866960829068 $385 $516 forward 7 unknown #
coedge $-1 $268 $386 $505 $517 reversed $160 $-1 #
vertex $-1 $395 $518 #
straight-curve $-1 0 -24.978839638403606 9.8353500477447895 -1 0 0 I I #
coedge $-1 $389 $270 $506 $519 forward $383 $-1 #
coedge $-1 $270 $389 $272 $403 reversed $383 $-1 #
vertex $-1 $519 $520 #
straight-curve $-1 0 -50.247772130879191 9.8353500477447895 -1 0 0 I I #
edge $-1 $276 -9.8353500477447895 $392 -1.0478200276008565 $272 $521 forward 7 unknown #
point $-1 76.111941892757955 -24.978839638403606 9.8353500477447895 #
point $-1 76.111941892757955 -50.247772130879191 9.8353500477447895 #
plane-surface $-1 76.111941892757955 0 0 -1 0 0 0 0 1 forward_v I I I I #
coedge $-1 $417 $416 $409 $522 forward $279 $-1 #
coedge $-1 $409 $281 $283 $413 reversed $168 $-1 #
coedge $-1 $281 $408 $407 $522 reversed $168 $-1 #
coedge $-1 $289 $284 $281 $411 forward $290 $-1 #
edge $-1 $414 -104.81145516981871 $523 -86.258011563859625 $410 $524 forward 7 unknown #
coedge $-1 $283 $282 $417 $525 reversed $105 $-1 #
edge $-1 $526 124.49619773065207 $414 152.22388378551594 $408 $527 forward 7 unknown #
vertex $-1 $285 $528 #
straight-curve $-1 76.111941892757955 19.291377473667819 5.3591409913515591 0 1 0 I I #
coedge $-1 $407 $286 $289 $421 forward $279 $-1 #
coedge $-1 $286 $407 $412 $525 forward $279 $-1 #
vertex $-1 $287 $529 #
straight-curve $-1 32.4226061656166 31.517532730184868 23.912584597310641 1 0 0 I I #
straight-curve $-1 -37.012448553498913 31.517532730184868 107.21680187608368 -0.74314481823134659 0 0.66913061440640931 I I #
edge $-1 $291 31.517532730184868 $523 45.647977164486406 $289 $530 forward 7 unknown #
point $-1 76.111941892757955 31.517532730184868 23.912584597310641 #
point $-1 76.111941892757955 31.517532730184868 5.359140991351552 #
edge $-1 $531 1 $531 0 $294 $-1 forward 7 unknown #
vertex $-1 $295 $532 #
ellipse-curve $-1 64.040406480629287 38.582754947335651 12.671531027716743 0.66913061440640931 0 0.74314481823134659 1.4862896364626932 0 -1.3382612288128186 1 I I #
point $-1 67.295388422611794 38.582754947335651 13.297601565518303 #
plane-surface $-1 0 0 23.912584597310641 0 0 1 1 0 0 forward_v I I I I #
coedge $-1 $439 $438 $431 $533 forward $299 $-1 #
coedge $-1 $431 $301 $303 $435 reversed $183 $-1 #
coedge $-1 $301 $430 $429 $533 reversed $183 $-1 #
coedge $-1 $309 $304 $301 $433 forward $310 $-1 #
edge $-1 $436 -31.999570731731652 $534 -2.2772138333465222 $432 $535 forward 7 unknown #
coedge $-1 $303 $302 $439 $536 reversed $114 $-1 #
edge $-1 $537 0 $436 35.047961532289847 $430 $538 forward 7 unknown #
vertex $-1 $305 $539 #
straight-curve $-1 -46.389584994372839 2.0680728685783514 23.912584597310641 0 1 0 I I #
coedge $-1 $429 $306 $309 $443 reversed $299 $-1 #
coedge $-1 $306 $429 $434 $536 forward $299 $-1 #
vertex $-1 $307 $540 #
straight-curve $-1 -76.111941892757955 -4.36217477192438 67.216584266152552 0 0 1 I I #
straight-curve $-1 -76.111941892757955 -4.36217477192438 5.3399943640155811 -0.84804809178421925 0 -0.52991927123019833 I I #
edge $-1 $534 -12.634466246237785 $311 4.36217477192438 $438 $541 forward 7 unknown #
point $-1 -76.111941892757955 -4.36217477192438 23.912584597310641 #
point $-1 -46.389584994372825 -4.36217477192438 23.912584597310641 #
edge $-1 $542 1 $542 0 $314 $-1 forward 7 unknown #
vertex $-1 $315 $543 #
ellipse-curve $-1 -59.755201460902349 -0.96284656829194404 12.232890043427977 -0.52991927123019833 0 0.84804809178421925 1.2720721376763289 0 0.79487890684529749 1 I I #
point $-1 -59.978691305889051 -0.96284656829194404 15.421168387508402 #
edge $-1 $544 1 $544 0 $318 $-1 forward 7 unknown #
vertex $-1 $319 $545 #
ellipse-curve $-1 -59.755201460902349 4.1361457371567028 12.232890043427977 -0.52991927123019833 0 0.84804809178421925 1.2720721376763289 0 0.79487890684529749 1 I I #
point $-1 -59.978691305889051 4.1361457371567028 15.421168387508402 #
edge $-1 $546 1 $546 0 $322 $-1 forward 7 unknown #
vertex $-1 $323 $547 #
ellipse-curve $-1 -59.755201460902349 9.2351380426053495 12.232890043427977 -0.52991927123019833 0 0.84804809178421925 1.2720721376763289 0 0.79487890684529749 1 I I #
point $-1 -59.978691305889051 9.2351380426053495 15.421168387508402 #
loop $-1 $-1 $335 $326 #
plane-surface $-1 -76.111941892757955 0 0 1 0 0 0 0 -1 forward_v I I I I #
coedge $-1 $329 $464 $338 $472 forward $212 $-1 #
edge $-1 $469 0 $465 35.047961532289847 $330 $548 forward 7 unknown #
coedge $-1 $335 $549 $331 $463 forward $458 $-1 #
edge $-1 $466 43.303999668841911 $469 61.876589902136971 $462 $550 forward 7 unknown #
coedge $-1 $460 $332 $549 $551 forward $212 $-1 #
vertex $-1 $333 $552 #
vertex $-1 $551 $553 #
straight-curve $-1 -78.389155726104477 29.631107264399951 23.912584597310641 -1 0 0 I I #
coedge $-1 $549 $335 $339 $473 forward $458 $-1 #
vertex $-1 $463 $554 #
straight-curve $-1 -76.111941892757955 2.0680728685783514 5.3399943640155838 0 -1 0 I I #
straight-curve $-1 -46.389584994372839 2.0680728685783514 23.912584597310641 0 1 0 I I #
edge $-1 $555 2.2772138333465222 $341 31.999570731731652 $460 $556 forward 7 unknown #
edge $-1 $340 -61.876589902136971 $555 -43.303999668841911 $468 $557 forward 7 unknown #
point $-1 -76.111941892757955 12.634466246237785 5.3399943640155811 #
point $-1 -46.389584994372825 12.634466246237785 23.912584597310641 #
edge $-1 $558 1 $558 0 $343 $-1 forward 7 unknown #
vertex $-1 $344 $559 #
ellipse-curve $-1 -59.755201460902349 16.033794449870236 12.232890043427977 -0.52991927123019833 0 0.84804809178421925 1.2720721376763289 0 0.79487890684529749 1 I I #
point $-1 -59.978691305889051 16.033794449870236 15.421168387508402 #
edge $-1 $560 1 $560 0 $347 $-1 forward 7 unknown #
vertex $-1 $348 $561 #
ellipse-curve $-1 -59.755201460902349 21.132786755318868 12.232890043427977 -0.52991927123019833 0 0.84804809178421925 1.2720721376763289 0 0.79487890684529749 1 I I #
point $-1 -59.978691305889051 21.132786755318868 15.421168387508402 #
edge $-1 $562 1 $562 0 $351 $-1 forward 7 unknown #
vertex $-1 $352 $563 #
ellipse-curve $-1 -59.755201460902349 26.231779060767529 12.232890043427977 -0.52991927123019833 0 0.84804809178421925 1.2720721376763289 0 0.79487890684529749 1 I I #
point $-1 -59.978691305889051 26.231779060767529 15.421168387508402 #
plane-surface $-1 76.111941892757955 0 0 -1 0 0 0 0 1 forward_v I I I I #
coedge $-1 $360 $358 $362 $493 reversed $241 $-1 #
edge $-1 $373 -23.912584597310641 $495 23.912584597310641 $372 $564 forward 7 unknown #
vertex $-1 $493 $565 #
straight-curve $-1 -76.111941892757955 -50.247772130879191 0 0 0 -1 I I #
edge $-1 $491 -50.247772130879191 $495 50.247772130879191 $489 $566 forward 7 unknown #
straight-curve $-1 0 -50.247772130879191 -23.912584597310641 -1 0 0 I I #
vertex $-1 $365 $567 #
straight-curve $-1 0 50.247772130879191 -23.912584597310641 1 0 0 I I #
point $-1 76.111941892757955 50.247772130879191 -23.912584597310641 #
point $-1 76.111941892757955 -50.247772130879191 -23.912584597310641 #
straight-curve $-1 -76.111941892757955 0 23.912584597310641 0 -1 0 I I #
point $-1 -76.111941892757955 50.247772130879191 23.912584597310641 #
point $-1 -76.111941892757955 -50.247772130879191 23.912584597310641 #
straight-curve $-1 76.111941892757955 -50.247772130879191 0 0 0 -1 I I #
straight-curve $-1 76.111941892757955 50.247772130879191 0 0 0 -1 I I #
plane-surface $-1 76.111941892757955 0 0 -1 0 0 0 0 1 forward_v I I I I #
coedge $-1 $508 $385 $396 $517 forward $260 $-1 #
coedge $-1 $385 $508 $399 $519 reversed $260 $-1 #
straight-curve $-1 76.111941892757955 -24.978839638403606 2.7207925188364115 0 0 1 I I #
coedge $-1 $506 $505 $388 $509 forward $260 $-1 #
edge $-1 $512 6.1721866960829068 $510 31.441119188558492 $508 $568 forward 7 unknown #
vertex $-1 $390 $569 #
straight-curve $-1 0 -50.247772130879191 1.0478200276008565 1 0 0 I I #
vertex $-1 $509 $570 #
straight-curve $-1 0 -24.978839638403606 1.0478200276008565 1 0 0 I I #
point $-1 76.111941892757955 -50.247772130879191 1.0478200276008565 #
point $-1 76.111941892757955 -24.978839638403606 1.0478200276008565 #
straight-curve $-1 -76.111941892757955 -18.806652942320699 9.8353500477447895 0 1 0 I I #
edge $-1 $397 -7.114557528908378 $512 1.672972491235555 $505 $571 forward 7 unknown #
point $-1 -76.111941892757955 -24.978839638403606 9.8353500477447895 #
edge $-1 $401 -9.8353500477447895 $510 -1.0478200276008565 $506 $572 forward 7 unknown #
point $-1 -76.111941892757955 -50.247772130879191 9.8353500477447895 #
straight-curve $-1 76.111941892757955 -50.247772130879191 0 0 0 -1 I I #
edge $-1 $523 -43.689335727141355 $526 -23.083649513923703 $407 $573 forward 7 unknown #
vertex $-1 $522 $574 #
straight-curve $-1 76.111941892757955 45.647977164486406 110.17059616117027 0 0 1 I I #
edge $-1 $526 -26.356599690818587 $418 -12.22615525651705 $417 $575 forward 7 unknown #
vertex $-1 $525 $576 #
straight-curve $-1 -37.012448553498913 45.647977164486406 107.21680187608368 0.74314481823134659 0 -0.66913061440640931 I I #
point $-1 76.111941892757955 45.647977164486406 5.359140991351552 #
point $-1 55.506255679540303 31.517532730184868 23.912584597310641 #
straight-curve $-1 76.111941892757955 0 23.912584597310641 0 1 0 I I #
vertex $-1 $424 $577 #
point $-1 65.526696117091973 38.582754947335651 11.333269798903924 #
edge $-1 $534 43.303999668841911 $537 61.876589902136971 $429 $578 forward 7 unknown #
vertex $-1 $443 $579 #
straight-curve $-1 -78.389155726104477 12.634466246237785 23.912584597310641 -1 0 0 I I #
edge $-1 $537 -10.566393377659434 $440 6.4302476405027313 $439 $580 forward 7 unknown #
vertex $-1 $536 $581 #
straight-curve $-1 -76.111941892757955 12.634466246237785 5.3399943640155811 0.84804809178421925 0 0.52991927123019833 I I #
point $-1 -46.389584994372825 12.634466246237785 23.912584597310641 #
point $-1 -76.111941892757955 -4.36217477192438 5.3399943640155811 #
straight-curve $-1 -76.111941892757955 0 23.912584597310641 0 -1 0 I I #
vertex $-1 $446 $582 #
point $-1 -58.483129323226017 -0.96284656829194404 13.027768950273275 #
vertex $-1 $450 $583 #
point $-1 -58.483129323226017 4.1361457371567028 13.027768950273275 #
vertex $-1 $454 $584 #
point $-1 -58.483129323226017 9.2351380426053495 13.027768950273275 #
straight-curve $-1 -76.111941892757955 29.631107264399951 5.3399943640155811 0.84804809178421925 0 0.52991927123019833 I I #
coedge $-1 $462 $468 $464 $551 reversed $458 $-1 #
straight-curve $-1 -76.111941892757955 29.631107264399951 67.216584266152552 0 0 -1 I I #
edge $-1 $466 -29.631107264399951 $555 -12.634466246237785 $549 $585 forward 7 unknown #
point $-1 -46.389584994372825 29.631107264399951 23.912584597310641 #
point $-1 -76.111941892757955 29.631107264399951 23.912584597310641 #
point $-1 -76.111941892757955 29.631107264399951 5.3399943640155811 #
vertex $-1 $473 $586 #
straight-curve $-1 -78.389155726104477 12.634466246237785 23.912584597310641 1 0 0 I I #
straight-curve $-1 -76.111941892757955 12.634466246237785 67.216584266152552 0 0 1 I I #
vertex $-1 $476 $587 #
point $-1 -58.483129323226017 16.033794449870236 13.027768950273275 #
vertex $-1 $480 $588 #
point $-1 -58.483129323226017 21.132786755318868 13.027768950273275 #
vertex $-1 $484 $589 #
point $-1 -58.483129323226017 26.231779060767529 13.027768950273275 #
straight-curve $-1 -76.111941892757955 50.247772130879191 0 0 0 -1 I I #
point $-1 -76.111941892757955 -50.247772130879191 -23.912584597310641 #
straight-curve $-1 -76.111941892757955 0 -23.912584597310641 0 1 0 I I #
point $-1 -76.111941892757955 50.247772130879191 -23.912584597310641 #
straight-curve $-1 -76.111941892757955 -18.806652942320699 1.0478200276008565 0 -1 0 I I #
point $-1 -76.111941892757955 -50.247772130879191 1.0478200276008565 #
point $-1 -76.111941892757955 -24.978839638403606 1.0478200276008565 #
straight-curve $-1 -76.111941892757955 -24.978839638403606 2.7207925188364115 0 0 -1 I I #
straight-curve $-1 -76.111941892757955 -50.247772130879191 0 0 0 -1 I I #
straight-curve $-1 32.4226061656166 45.647977164486406 23.912584597310641 -1 0 0 I I #
point $-1 76.111941892757955 45.647977164486406 23.912584597310641 #
straight-curve $-1 55.506255679540331 19.291377473667819 23.912584597310627 0 -1 0 I I #
point $-1 55.506255679540303 45.647977164486406 23.912584597310641 #
point $-1 62.702145251816461 38.582754947335651 11.185241391254049 #
straight-curve $-1 -76.111941892757955 12.634466246237785 67.216584266152552 0 0 -1 I I #
point $-1 -76.111941892757955 12.634466246237785 23.912584597310641 #
straight-curve $-1 -76.111941892757955 2.0680728685783514 5.3399943640155838 0 -1 0 I I #
point $-1 -76.111941892757955 12.634466246237785 5.3399943640155811 #
point $-1 -58.960322554057051 -0.96284656829194404 10.960817905751648 #
point $-1 -58.960322554057051 4.1361457371567028 10.960817905751648 #
point $-1 -58.960322554057051 9.2351380426053495 10.960817905751648 #
straight-curve $-1 -76.111941892757955 0 23.912584597310641 0 -1 0 I I #
point $-1 -76.111941892757955 12.634466246237785 23.912584597310641 #
point $-1 -58.960322554057051 16.033794449870236 10.960817905751648 #
point $-1 -58.960322554057051 21.132786755318868 10.960817905751648 #
point $-1 -58.960322554057051 26.231779060767529 10.960817905751648 #
End-of-ACIS-data 