500 0 5 0           
7 Unknown 11 ACIS 5.0 NT 24 Thu Mar 25 15:40:51 1999 
-1 9.9999999999999995e-007 1e-010 
body $-1 $5 $-1 $6 #
body $-1 $7 $-1 $8 #
body $-1 $9 $-1 $10 #
body $-1 $11 $-1 $12 #
body $-1 $13 $-1 $14 #
lump $-1 $-1 $15 $0 #
transform $-1 1 0 0 0 1 0 0 0 1 67.806024353770567 45.141798116024148 16.00028557693155 1 rotate no_reflect no_shear #
lump $-1 $-1 $16 $1 #
transform $-1 1 0 0 0 0.71933979245794832 0.69465837861970381 0 -0.69465837861970381 0.71933979245794832 128.82523825577377 -94.204045876476826 118.45921786712543 1 rotate no_reflect no_shear #
lump $-1 $-1 $17 $2 #
transform $-1 1 0 0 0 -0.71933979245794832 -0.69465837861970381 0 0.69465837861970381 -0.71933979245794832 128.82523825577377 8.6547166635325485 23.439471099101333 1 rotate no_reflect no_shear #
lump $-1 $-1 $18 $3 #
transform $-1 1 0 0 0 0.71933979245794832 -0.69465837861970381 0 0.69465837861970381 0.71933979245794832 128.82523825577377 119.5430587326063 181.17547444163608 1 rotate no_reflect no_shear #
lump $-1 $-1 $19 $4 #
transform $-1 1 0 0 0 -0.71933979245794832 0.69465837861970381 0 -0.69465837861970381 -0.71933979245794832 128.82523825577377 81.628879568515742 23.439471099101333 1 rotate no_reflect no_shear #
shell $-1 $-1 $-1 $20 $-1 $5 #
shell $-1 $-1 $-1 $21 $-1 $7 #
shell $-1 $-1 $-1 $22 $-1 $9 #
shell $-1 $-1 $-1 $23 $-1 $11 #
shell $-1 $-1 $-1 $24 $-1 $13 #
face $-1 $25 $26 $15 $-1 $27 forward single #
face $-1 $28 $29 $16 $-1 $30 forward single #
face $-1 $31 $32 $17 $-1 $33 forward single #
face $-1 $34 $35 $18 $-1 $36 forward single #
face $-1 $37 $38 $19 $-1 $39 forward single #
face $-1 $40 $41 $15 $-1 $42 reversed single #
loop $-1 $-1 $43 $20 #
plane-surface $-1 0 0 16.00028557693155 0 0 1 1 0 0 forward_v I I I I #
face $-1 $44 $45 $16 $-1 $46 reversed single #
loop $-1 $-1 $47 $21 #
plane-surface $-1 0 0 135.61204870754113 0 0 1 1 0 0 forward_v I I I I #
face $-1 $48 $49 $17 $-1 $50 forward single #
loop $-1 $51 $52 $22 #
cone-surface $-1 0 0 -2.5955687124240825 0 0 1 2 0 0 1 I I 0 1 2 forward I I I I #
face $-1 $53 $54 $18 $-1 $55 reversed single #
loop $-1 $-1 $56 $23 #
plane-surface $-1 0 0 135.61204870754113 0 0 1 1 0 0 forward_v I I I I #
face $-1 $57 $58 $19 $-1 $59 forward single #
loop $-1 $60 $61 $24 #
cone-surface $-1 0 0 -2.5955687124240825 0 0 1 2 0 0 1 I I 0 1 2 forward I I I I #
face $-1 $62 $63 $15 $-1 $64 reversed single #
loop $-1 $-1 $65 $25 #
plane-surface $-1 0 0 -16.00028557693155 0 0 1 1 0 0 forward_v I I I I #
coedge $-1 $66 $67 $68 $69 forward $26 $-1 #
face $-1 $70 $71 $16 $-1 $72 reversed single #
loop $-1 $-1 $73 $28 #
plane-surface $-1 0 0 -135.61204870754113 0 0 1 1 0 0 forward_v I I I I #
coedge $-1 $74 $75 $76 $77 forward $29 $-1 #
face $-1 $-1 $78 $17 $-1 $79 forward single #
loop $-1 $-1 $80 $31 #
plane-surface $-1 0 0 -4.1911374248481668 0 0 -1 -1 0 0 forward_v I I I I #
loop $-1 $-1 $81 $22 #
coedge $-1 $52 $52 $80 $82 reversed $32 $-1 #
face $-1 $83 $84 $18 $-1 $85 reversed single #
loop $-1 $-1 $86 $34 #
plane-surface $-1 0 0 -135.61204870754113 0 0 1 1 0 0 forward_v I I I I #
coedge $-1 $87 $88 $89 $90 forward $35 $-1 #
face $-1 $-1 $91 $19 $-1 $92 forward single #
loop $-1 $-1 $93 $37 #
plane-surface $-1 0 0 -4.1911374248481668 0 0 -1 -1 0 0 forward_v I I I I #
loop $-1 $-1 $94 $24 #
coedge $-1 $61 $61 $93 $95 reversed $38 $-1 #
face $-1 $96 $97 $15 $-1 $98 reversed single #
loop $-1 $-1 $99 $40 #
plane-surface $-1 0 -45.141798116024148 0 0 1 0 0 0 1 forward_v I I I I #
coedge $-1 $100 $101 $102 $103 forward $41 $-1 #
coedge $-1 $104 $43 $105 $106 forward $26 $-1 #
coedge $-1 $43 $104 $107 $108 forward $26 $-1 #
coedge $-1 $109 $110 $43 $69 reversed $111 $-1 #
edge $-1 $112 -45.141798116024148 $113 45.141798116024148 $68 $114 forward 7 unknown #
face $-1 $115 $116 $16 $-1 $117 reversed single #
loop $-1 $-1 $118 $44 #
plane-surface $-1 0 -271.22409741508227 0 0 1 0 0 0 1 forward_v I I I I #
coedge $-1 $119 $120 $121 $122 forward $45 $-1 #
coedge $-1 $123 $47 $124 $125 forward $29 $-1 #
coedge $-1 $47 $123 $126 $127 forward $29 $-1 #
coedge $-1 $128 $129 $47 $77 reversed $130 $-1 #
edge $-1 $131 -271.22409741508227 $132 271.22409741508227 $76 $133 forward 7 unknown #
loop $-1 $134 $135 $48 #
cone-surface $-1 0 0 0 0 0 1 1 0 0 1 I I -0.70710678118654724 0.70710678118654791 1 forward I I I I #
coedge $-1 $80 $80 $52 $82 forward $49 $-1 #
coedge $-1 $81 $81 $135 $136 forward $51 $-1 #
edge $-1 $137 0 $137 6.2831853071796004 $80 $138 forward 7 unknown #
face $-1 $139 $140 $18 $-1 $141 reversed single #
loop $-1 $-1 $142 $53 #
plane-surface $-1 0 -271.22409741508227 0 0 1 0 0 0 1 forward_v I I I I #
coedge $-1 $143 $144 $145 $146 forward $54 $-1 #
coedge $-1 $147 $56 $148 $149 forward $35 $-1 #
coedge $-1 $56 $147 $150 $151 forward $35 $-1 #
coedge $-1 $152 $153 $56 $90 reversed $154 $-1 #
edge $-1 $155 -271.22409741508227 $156 271.22409741508227 $89 $157 forward 7 unknown #
loop $-1 $158 $159 $57 #
cone-surface $-1 0 0 0 0 0 1 1 0 0 1 I I -0.70710678118654724 0.70710678118654791 1 forward I I I I #
coedge $-1 $93 $93 $61 $95 forward $58 $-1 #
coedge $-1 $94 $94 $159 $160 forward $60 $-1 #
edge $-1 $161 0 $161 6.2831853071796004 $93 $162 forward 7 unknown #
face $-1 $163 $164 $15 $-1 $165 reversed single #
loop $-1 $-1 $166 $62 #
plane-surface $-1 -67.806024353770567 0 0 1 0 0 0 0 -1 forward_v I I I I #
coedge $-1 $167 $107 $168 $169 forward $63 $-1 #
coedge $-1 $170 $65 $167 $171 forward $41 $-1 #
coedge $-1 $65 $170 $172 $173 forward $41 $-1 #
coedge $-1 $110 $109 $65 $103 reversed $111 $-1 #
edge $-1 $174 -45.141798116024148 $175 45.141798116024148 $102 $176 forward 7 unknown #
coedge $-1 $67 $66 $177 $178 forward $26 $-1 #
coedge $-1 $179 $180 $66 $106 reversed $164 $-1 #
edge $-1 $113 -67.806024353770567 $181 67.806024353770567 $105 $182 forward 7 unknown #
coedge $-1 $99 $183 $67 $108 reversed $63 $-1 #
edge $-1 $184 -67.806024353770567 $112 67.806024353770567 $107 $185 forward 7 unknown #
coedge $-1 $102 $68 $183 $186 forward $111 $-1 #
coedge $-1 $68 $102 $179 $187 reversed $111 $-1 #
loop $-1 $-1 $109 $163 #
vertex $-1 $69 $188 #
vertex $-1 $69 $189 #
straight-curve $-1 67.806024353770567 0 16.00028557693155 0 1 0 I I #
face $-1 $190 $191 $16 $-1 $192 reversed single #
loop $-1 $-1 $193 $70 #
plane-surface $-1 -6.7868104517673657 0 0 1 0 0 0 0 -1 forward_v I I I I #
coedge $-1 $194 $126 $195 $196 forward $71 $-1 #
coedge $-1 $197 $73 $194 $198 forward $45 $-1 #
coedge $-1 $73 $197 $199 $200 forward $45 $-1 #
coedge $-1 $129 $128 $73 $122 reversed $130 $-1 #
edge $-1 $201 -271.22409741508227 $202 271.22409741508227 $121 $203 forward 7 unknown #
coedge $-1 $75 $74 $204 $205 forward $29 $-1 #
coedge $-1 $206 $207 $74 $125 reversed $191 $-1 #
edge $-1 $132 -6.7868104517673657 $208 6.7868104517673657 $124 $209 forward 7 unknown #
coedge $-1 $118 $210 $75 $127 reversed $71 $-1 #
edge $-1 $211 -6.7868104517673657 $131 6.7868104517673657 $126 $212 forward 7 unknown #
coedge $-1 $121 $76 $210 $213 forward $130 $-1 #
coedge $-1 $76 $121 $206 $214 reversed $130 $-1 #
loop $-1 $-1 $128 $190 #
vertex $-1 $77 $215 #
vertex $-1 $77 $216 #
straight-curve $-1 6.7868104517673657 0 135.61204870754113 0 1 0 I I #
loop $-1 $-1 $217 $48 #
coedge $-1 $135 $135 $81 $136 reversed $78 $-1 #
edge $-1 $218 0 $218 6.2831853071796004 $135 $219 forward 7 unknown #
vertex $-1 $82 $220 #
ellipse-curve $-1 0 0 -4.1911374248481668 0 0 -1 2 0 0 1 I I #
face $-1 $221 $222 $18 $-1 $223 reversed single #
loop $-1 $-1 $224 $83 #
plane-surface $-1 -6.7868104517673657 0 0 1 0 0 0 0 -1 forward_v I I I I #
coedge $-1 $225 $150 $226 $227 forward $84 $-1 #
coedge $-1 $228 $86 $225 $229 forward $54 $-1 #
coedge $-1 $86 $228 $230 $231 forward $54 $-1 #
coedge $-1 $153 $152 $86 $146 reversed $154 $-1 #
edge $-1 $232 -271.22409741508227 $233 271.22409741508227 $145 $234 forward 7 unknown #
coedge $-1 $88 $87 $235 $236 forward $35 $-1 #
coedge $-1 $237 $238 $87 $149 reversed $222 $-1 #
edge $-1 $156 -6.7868104517673657 $239 6.7868104517673657 $148 $240 forward 7 unknown #
coedge $-1 $142 $241 $88 $151 reversed $84 $-1 #
edge $-1 $242 -6.7868104517673657 $155 6.7868104517673657 $150 $243 forward 7 unknown #
coedge $-1 $145 $89 $241 $244 forward $154 $-1 #
coedge $-1 $89 $145 $237 $245 reversed $154 $-1 #
loop $-1 $-1 $152 $221 #
vertex $-1 $90 $246 #
vertex $-1 $90 $247 #
straight-curve $-1 6.7868104517673657 0 135.61204870754113 0 1 0 I I #
loop $-1 $-1 $248 $57 #
coedge $-1 $159 $159 $94 $160 reversed $91 $-1 #
edge $-1 $249 0 $249 6.2831853071796004 $159 $250 forward 7 unknown #
vertex $-1 $95 $251 #
ellipse-curve $-1 0 0 -4.1911374248481668 0 0 -1 2 0 0 1 I I #
face $-1 $-1 $111 $15 $-1 $252 reversed single #
loop $-1 $-1 $179 $96 #
plane-surface $-1 0 45.141798116024148 0 0 -1 0 0 0 -1 forward_v I I I I #
coedge $-1 $253 $177 $180 $254 forward $97 $-1 #
coedge $-1 $183 $99 $100 $171 reversed $63 $-1 #
coedge $-1 $177 $253 $99 $169 reversed $97 $-1 #
edge $-1 $184 -16.00028557693155 $255 16.00028557693155 $168 $256 forward 7 unknown #
coedge $-1 $101 $100 $253 $257 forward $41 $-1 #
edge $-1 $175 -67.806024353770567 $255 67.806024353770567 $167 $258 forward 7 unknown #
coedge $-1 $180 $179 $101 $173 reversed $164 $-1 #
edge $-1 $259 -67.806024353770567 $174 67.806024353770567 $172 $260 forward 7 unknown #
vertex $-1 $103 $261 #
vertex $-1 $186 $262 #
straight-curve $-1 67.806024353770567 0 -16.00028557693155 0 -1 0 I I #
coedge $-1 $166 $168 $104 $178 reversed $97 $-1 #
edge $-1 $181 -45.141798116024148 $184 45.141798116024148 $177 $263 forward 7 unknown #
coedge $-1 $172 $105 $110 $187 forward $164 $-1 #
coedge $-1 $105 $172 $166 $254 reversed $164 $-1 #
vertex $-1 $106 $264 #
straight-curve $-1 0 45.141798116024148 16.00028557693155 -1 0 0 I I #
coedge $-1 $107 $167 $109 $186 reversed $63 $-1 #
vertex $-1 $178 $265 #
straight-curve $-1 0 -45.141798116024148 16.00028557693155 1 0 0 I I #
edge $-1 $112 -16.00028557693155 $175 16.00028557693155 $109 $266 forward 7 unknown #
edge $-1 $113 -16.00028557693155 $174 16.00028557693155 $110 $267 forward 7 unknown #
point $-1 67.806024353770567 -45.141798116024148 16.00028557693155 #
point $-1 67.806024353770567 45.141798116024148 16.00028557693155 #
face $-1 $-1 $130 $16 $-1 $268 reversed single #
loop $-1 $-1 $206 $115 #
plane-surface $-1 0 271.22409741508227 0 0 -1 0 0 0 -1 forward_v I I I I #
coedge $-1 $269 $204 $207 $270 forward $116 $-1 #
coedge $-1 $210 $118 $119 $198 reversed $71 $-1 #
coedge $-1 $204 $269 $118 $196 reversed $116 $-1 #
edge $-1 $211 -135.61204870754113 $271 135.61204870754113 $195 $272 forward 7 unknown #
coedge $-1 $120 $119 $269 $273 forward $45 $-1 #
edge $-1 $202 -6.7868104517673657 $271 6.7868104517673657 $194 $274 forward 7 unknown #
coedge $-1 $207 $206 $120 $200 reversed $191 $-1 #
edge $-1 $275 -6.7868104517673657 $201 6.7868104517673657 $199 $276 forward 7 unknown #
vertex $-1 $122 $277 #
vertex $-1 $213 $278 #
straight-curve $-1 6.7868104517673657 0 -135.61204870754113 0 -1 0 I I #
coedge $-1 $193 $195 $123 $205 reversed $116 $-1 #
edge $-1 $208 -271.22409741508227 $211 271.22409741508227 $204 $279 forward 7 unknown #
coedge $-1 $199 $124 $129 $214 forward $191 $-1 #
coedge $-1 $124 $199 $193 $270 reversed $191 $-1 #
vertex $-1 $125 $280 #
straight-curve $-1 0 271.22409741508227 135.61204870754113 -1 0 0 I I #
coedge $-1 $126 $194 $128 $213 reversed $71 $-1 #
vertex $-1 $205 $281 #
straight-curve $-1 0 -271.22409741508227 135.61204870754113 1 0 0 I I #
edge $-1 $131 -135.61204870754113 $202 135.61204870754113 $128 $282 forward 7 unknown #
edge $-1 $132 -135.61204870754113 $201 135.61204870754113 $129 $283 forward 7 unknown #
point $-1 6.7868104517673657 -271.22409741508227 135.61204870754113 #
point $-1 6.7868104517673657 271.22409741508227 135.61204870754113 #
coedge $-1 $217 $217 $-1 $284 reversed $134 $-1 #
vertex $-1 $136 $285 #
ellipse-curve $-1 0 0 -1.0000000000000009 0 0 -1 2 0 0 1 I I #
point $-1 2 0 -4.1911374248481668 #
face $-1 $-1 $154 $18 $-1 $286 reversed single #
loop $-1 $-1 $237 $139 #
plane-surface $-1 0 271.22409741508227 0 0 -1 0 0 0 -1 forward_v I I I I #
coedge $-1 $287 $235 $238 $288 forward $140 $-1 #
coedge $-1 $241 $142 $143 $229 reversed $84 $-1 #
coedge $-1 $235 $287 $142 $227 reversed $140 $-1 #
edge $-1 $242 -135.61204870754113 $289 135.61204870754113 $226 $290 forward 7 unknown #
coedge $-1 $144 $143 $287 $291 forward $54 $-1 #
edge $-1 $233 -6.7868104517673657 $289 6.7868104517673657 $225 $292 forward 7 unknown #
coedge $-1 $238 $237 $144 $231 reversed $222 $-1 #
edge $-1 $293 -6.7868104517673657 $232 6.7868104517673657 $230 $294 forward 7 unknown #
vertex $-1 $146 $295 #
vertex $-1 $244 $296 #
straight-curve $-1 6.7868104517673657 0 -135.61204870754113 0 -1 0 I I #
coedge $-1 $224 $226 $147 $236 reversed $140 $-1 #
edge $-1 $239 -271.22409741508227 $242 271.22409741508227 $235 $297 forward 7 unknown #
coedge $-1 $230 $148 $153 $245 forward $222 $-1 #
coedge $-1 $148 $230 $224 $288 reversed $222 $-1 #
vertex $-1 $149 $298 #
straight-curve $-1 0 271.22409741508227 135.61204870754113 -1 0 0 I I #
coedge $-1 $150 $225 $152 $244 reversed $84 $-1 #
vertex $-1 $236 $299 #
straight-curve $-1 0 -271.22409741508227 135.61204870754113 1 0 0 I I #
edge $-1 $155 -135.61204870754113 $233 135.61204870754113 $152 $300 forward 7 unknown #
edge $-1 $156 -135.61204870754113 $232 135.61204870754113 $153 $301 forward 7 unknown #
point $-1 6.7868104517673657 -271.22409741508227 135.61204870754113 #
point $-1 6.7868104517673657 271.22409741508227 135.61204870754113 #
coedge $-1 $248 $248 $-1 $302 reversed $158 $-1 #
vertex $-1 $160 $303 #
ellipse-curve $-1 0 0 -1.0000000000000009 0 0 -1 2 0 0 1 I I #
point $-1 2 0 -4.1911374248481668 #
plane-surface $-1 67.806024353770567 0 0 -1 0 0 0 0 1 forward_v I I I I #
coedge $-1 $168 $166 $170 $257 reversed $97 $-1 #
edge $-1 $181 -16.00028557693155 $259 16.00028557693155 $180 $304 forward 7 unknown #
vertex $-1 $257 $305 #
straight-curve $-1 -67.806024353770567 -45.141798116024148 0 0 0 -1 I I #
edge $-1 $255 -45.141798116024148 $259 45.141798116024148 $253 $306 forward 7 unknown #
straight-curve $-1 0 -45.141798116024148 -16.00028557693155 -1 0 0 I I #
vertex $-1 $173 $307 #
straight-curve $-1 0 45.141798116024148 -16.00028557693155 1 0 0 I I #
point $-1 67.806024353770567 45.141798116024148 -16.00028557693155 #
point $-1 67.806024353770567 -45.141798116024148 -16.00028557693155 #
straight-curve $-1 -67.806024353770567 0 16.00028557693155 0 -1 0 I I #
point $-1 -67.806024353770567 45.141798116024148 16.00028557693155 #
point $-1 -67.806024353770567 -45.141798116024148 16.00028557693155 #
straight-curve $-1 67.806024353770567 -45.141798116024148 0 0 0 -1 I I #
straight-curve $-1 67.806024353770567 45.141798116024148 0 0 0 -1 I I #
plane-surface $-1 6.7868104517673657 0 0 -1 0 0 0 0 1 forward_v I I I I #
coedge $-1 $195 $193 $197 $273 reversed $116 $-1 #
edge $-1 $208 -135.61204870754113 $275 135.61204870754113 $207 $308 forward 7 unknown #
vertex $-1 $273 $309 #
straight-curve $-1 -6.7868104517673657 -271.22409741508227 0 0 0 -1 I I #
edge $-1 $271 -271.22409741508227 $275 271.22409741508227 $269 $310 forward 7 unknown #
straight-curve $-1 0 -271.22409741508227 -135.61204870754113 -1 0 0 I I #
vertex $-1 $200 $311 #
straight-curve $-1 0 271.22409741508227 -135.61204870754113 1 0 0 I I #
point $-1 6.7868104517673657 271.22409741508227 -135.61204870754113 #
point $-1 6.7868104517673657 -271.22409741508227 -135.61204870754113 #
straight-curve $-1 -6.7868104517673657 0 135.61204870754113 0 -1 0 I I #
point $-1 -6.7868104517673657 271.22409741508227 135.61204870754113 #
point $-1 -6.7868104517673657 -271.22409741508227 135.61204870754113 #
straight-curve $-1 6.7868104517673657 -271.22409741508227 0 0 0 -1 I I #
straight-curve $-1 6.7868104517673657 271.22409741508227 0 0 0 -1 I I #
edge $-1 $312 1 $312 0 $217 $-1 forward 7 unknown #
point $-1 2 0 -1.0000000000000009 #
plane-surface $-1 6.7868104517673657 0 0 -1 0 0 0 0 1 forward_v I I I I #
coedge $-1 $226 $224 $228 $291 reversed $140 $-1 #
edge $-1 $239 -135.61204870754113 $293 135.61204870754113 $238 $313 forward 7 unknown #
vertex $-1 $291 $314 #
straight-curve $-1 -6.7868104517673657 -271.22409741508227 0 0 0 -1 I I #
edge $-1 $289 -271.22409741508227 $293 271.22409741508227 $287 $315 forward 7 unknown #
straight-curve $-1 0 -271.22409741508227 -135.61204870754113 -1 0 0 I I #
vertex $-1 $231 $316 #
straight-curve $-1 0 271.22409741508227 -135.61204870754113 1 0 0 I I #
point $-1 6.7868104517673657 271.22409741508227 -135.61204870754113 #
point $-1 6.7868104517673657 -271.22409741508227 -135.61204870754113 #
straight-curve $-1 -6.7868104517673657 0 135.61204870754113 0 -1 0 I I #
point $-1 -6.7868104517673657 271.22409741508227 135.61204870754113 #
point $-1 -6.7868104517673657 -271.22409741508227 135.61204870754113 #
straight-curve $-1 6.7868104517673657 -271.22409741508227 0 0 0 -1 I I #
straight-curve $-1 6.7868104517673657 271.22409741508227 0 0 0 -1 I I #
edge $-1 $317 1 $317 0 $248 $-1 forward 7 unknown #
point $-1 2 0 -1.0000000000000009 #
straight-curve $-1 -67.806024353770567 45.141798116024148 0 0 0 -1 I I #
point $-1 -67.806024353770567 -45.141798116024148 -16.00028557693155 #
straight-curve $-1 -67.806024353770567 0 -16.00028557693155 0 1 0 I I #
point $-1 -67.806024353770567 45.141798116024148 -16.00028557693155 #
straight-curve $-1 -6.7868104517673657 271.22409741508227 0 0 0 -1 I I #
point $-1 -6.7868104517673657 -271.22409741508227 -135.61204870754113 #
straight-curve $-1 -6.7868104517673657 0 -135.61204870754113 0 1 0 I I #
point $-1 -6.7868104517673657 271.22409741508227 -135.61204870754113 #
vertex $-1 $284 $318 #
straight-curve $-1 -6.7868104517673657 271.22409741508227 0 0 0 -1 I I #
point $-1 -6.7868104517673657 -271.22409741508227 -135.61204870754113 #
straight-curve $-1 -6.7868104517673657 0 -135.61204870754113 0 1 0 I I #
point $-1 -6.7868104517673657 271.22409741508227 -135.61204870754113 #
vertex $-1 $302 $319 #
point $-1 0 0 1.0000000000000009 #
point $-1 0 0 1.0000000000000009 #
End-of-ACIS-data 