500 0 6 0           
7 Unknown 11 ACIS 5.0 NT 24 Fri Mar 26 19:21:15 1999 
-1 9.9999999999999995e-007 1e-010 
body $-1 $6 $-1 $7 #
body $-1 $8 $-1 $9 #
body $-1 $10 $-1 $11 #
body $-1 $12 $-1 $13 #
body $-1 $14 $-1 $15 #
body $-1 $16 $-1 $17 #
lump $-1 $-1 $18 $0 #
transform $-1 1 0 0 0 1 0 0 0 1 43.387554551835692 27.00033459339997 13.407218972406167 1 rotate no_reflect no_shear #
lump $-1 $-1 $19 $1 #
transform $-1 1 0 0 0 1 0 0 0 1 43.387554551835692 4.9412600737759709 17.056530508849921 1 rotate no_reflect no_shear #
lump $-1 $-1 $20 $2 #
transform $-1 0.80901698891910034 0 0.5877852598018023 0 1 0 -0.5877852598018023 0 0.80901698891910034 -51.005130048831219 48.28089097961206 85.994075823471761 1 rotate no_reflect no_shear #
lump $-1 $-1 $21 $3 #
transform $-1 0.80901698891910034 0 0.5877852598018023 0 -1 0 0.5877852598018023 0 -0.80901698891910034 13.777072513852634 48.28089097961206 12.781514945886828 1 rotate no_reflect no_shear #
lump $-1 $-1 $22 $4 #
transform $-1 0.51503806187062418 0 -0.85716730853699208 0 1 0 0.85716730853699208 0 0.51503806187062418 116.46341181070235 37.905519806242836 142.82926791738467 1 rotate no_reflect no_shear #
lump $-1 $-1 $23 $5 #
transform $-1 0.51503806187062418 0 -0.85716730853699208 0 -1 0 -0.85716730853699208 0 -0.51503806187062418 84.784801696348808 37.905519806242836 24.641419988877871 1 rotate no_reflect no_shear #
shell $-1 $-1 $-1 $24 $-1 $6 #
shell $-1 $-1 $-1 $25 $-1 $8 #
shell $-1 $-1 $-1 $26 $-1 $10 #
shell $-1 $-1 $-1 $27 $-1 $12 #
shell $-1 $-1 $-1 $28 $-1 $14 #
shell $-1 $-1 $-1 $29 $-1 $16 #
face $-1 $30 $31 $18 $-1 $32 forward single #
face $-1 $33 $34 $19 $-1 $35 forward single #
face $-1 $36 $37 $20 $-1 $38 forward single #
face $-1 $39 $40 $21 $-1 $41 forward single #
face $-1 $42 $43 $22 $-1 $44 forward single #
face $-1 $45 $46 $23 $-1 $47 forward single #
face $-1 $48 $49 $18 $-1 $50 reversed single #
loop $-1 $-1 $51 $24 #
plane-surface $-1 0 0 13.407218972406167 0 0 1 1 0 0 forward_v I I I I #
face $-1 $52 $53 $19 $-1 $54 reversed single #
loop $-1 $-1 $55 $25 #
plane-surface $-1 0 0 2.7544803430384546 0 0 1 1 0 0 forward_v I I I I #
face $-1 $56 $57 $20 $-1 $58 reversed single #
loop $-1 $-1 $59 $26 #
plane-surface $-1 0 0 86.775109103671383 0 0 1 1 0 0 forward_v I I I I #
face $-1 $60 $61 $21 $-1 $62 forward single #
loop $-1 $63 $64 $27 #
cone-surface $-1 0 0 -5.8915601062044143 0 0 1 2.5 0 0 1 I I 0 1 2.5 forward I I I I #
face $-1 $65 $66 $22 $-1 $67 reversed single #
loop $-1 $-1 $68 $28 #
plane-surface $-1 0 0 86.775109103671383 0 0 1 1 0 0 forward_v I I I I #
face $-1 $69 $70 $23 $-1 $71 forward single #
loop $-1 $72 $73 $29 #
cone-surface $-1 0 0 -0.75 0 0 1 0.5 0 0 1 I I 0 1 0.5 forward I I I I #
face $-1 $74 $75 $18 $-1 $76 reversed single #
loop $-1 $-1 $77 $30 #
plane-surface $-1 0 0 -13.407218972406167 0 0 1 1 0 0 forward_v I I I I #
coedge $-1 $78 $79 $80 $81 forward $31 $-1 #
face $-1 $82 $83 $19 $-1 $84 reversed single #
loop $-1 $-1 $85 $33 #
plane-surface $-1 0 0 -2.7544803430384546 0 0 1 1 0 0 forward_v I I I I #
coedge $-1 $86 $87 $88 $89 forward $34 $-1 #
face $-1 $90 $91 $20 $-1 $92 reversed single #
loop $-1 $-1 $93 $36 #
plane-surface $-1 0 0 -86.775109103671383 0 0 1 1 0 0 forward_v I I I I #
coedge $-1 $94 $95 $96 $97 forward $37 $-1 #
face $-1 $-1 $98 $21 $-1 $99 forward single #
loop $-1 $-1 $100 $39 #
plane-surface $-1 0 0 -10.533120212408829 0 0 -1 -1 0 0 forward_v I I I I #
loop $-1 $-1 $101 $27 #
coedge $-1 $64 $64 $100 $102 reversed $40 $-1 #
face $-1 $103 $104 $22 $-1 $105 reversed single #
loop $-1 $-1 $106 $42 #
plane-surface $-1 0 0 -86.775109103671383 0 0 1 1 0 0 forward_v I I I I #
coedge $-1 $107 $108 $109 $110 forward $43 $-1 #
face $-1 $-1 $111 $23 $-1 $112 forward single #
loop $-1 $-1 $113 $45 #
plane-surface $-1 0 0 -1.25 0 0 -1 -1 0 0 forward_v I I I I #
loop $-1 $-1 $114 $29 #
coedge $-1 $73 $73 $113 $115 reversed $46 $-1 #
face $-1 $116 $117 $18 $-1 $118 reversed single #
loop $-1 $-1 $119 $48 #
plane-surface $-1 0 -27.00033459339997 0 0 1 0 0 0 1 forward_v I I I I #
coedge $-1 $120 $121 $122 $123 forward $49 $-1 #
coedge $-1 $124 $51 $125 $126 forward $31 $-1 #
coedge $-1 $51 $124 $127 $128 forward $31 $-1 #
coedge $-1 $129 $130 $51 $81 reversed $131 $-1 #
edge $-1 $132 -27.00033459339997 $133 27.00033459339997 $80 $134 forward 7 unknown #
face $-1 $135 $136 $19 $-1 $137 reversed single #
loop $-1 $-1 $138 $52 #
plane-surface $-1 0 -4.9412600737759709 0 0 1 0 0 0 1 forward_v I I I I #
coedge $-1 $139 $140 $141 $142 forward $53 $-1 #
coedge $-1 $143 $55 $144 $145 forward $34 $-1 #
coedge $-1 $55 $143 $146 $147 forward $34 $-1 #
coedge $-1 $148 $149 $55 $89 reversed $150 $-1 #
edge $-1 $151 -4.9412600737759709 $152 4.9412600737759709 $88 $153 forward 7 unknown #
face $-1 $154 $155 $20 $-1 $156 reversed single #
loop $-1 $-1 $157 $56 #
plane-surface $-1 0 -5.7197782071878791 0 0 1 0 0 0 1 forward_v I I I I #
coedge $-1 $158 $159 $160 $161 forward $57 $-1 #
coedge $-1 $162 $59 $163 $164 forward $37 $-1 #
coedge $-1 $59 $162 $165 $166 forward $37 $-1 #
coedge $-1 $167 $168 $59 $97 reversed $169 $-1 #
edge $-1 $170 -5.7197782071878791 $171 5.7197782071878791 $96 $172 forward 7 unknown #
loop $-1 $173 $174 $60 #
cone-surface $-1 0 0 0 0 0 1 1.25 0 0 1 I I -0.70710678118654746 0.70710678118654746 1.25 forward I I I I #
coedge $-1 $100 $100 $64 $102 forward $61 $-1 #
coedge $-1 $101 $101 $174 $175 forward $63 $-1 #
edge $-1 $176 0 $176 6.2831853071796004 $100 $177 forward 7 unknown #
face $-1 $178 $179 $22 $-1 $180 reversed single #
loop $-1 $-1 $181 $65 #
plane-surface $-1 0 -6.3502049979259994 0 0 1 0 0 0 1 forward_v I I I I #
coedge $-1 $182 $183 $184 $185 forward $66 $-1 #
coedge $-1 $186 $68 $187 $188 forward $43 $-1 #
coedge $-1 $68 $186 $189 $190 forward $43 $-1 #
coedge $-1 $191 $192 $68 $110 reversed $193 $-1 #
edge $-1 $194 -6.3502049979259994 $195 6.3502049979259994 $109 $196 forward 7 unknown #
loop $-1 $197 $198 $69 #
cone-surface $-1 0 0 0 0 0 1 0.25 0 0 1 I I -0.70710678118654746 0.70710678118654746 0.25 forward I I I I #
coedge $-1 $113 $113 $73 $115 forward $70 $-1 #
coedge $-1 $114 $114 $198 $199 forward $72 $-1 #
edge $-1 $200 0 $200 6.2831853071796004 $113 $201 forward 7 unknown #
face $-1 $202 $203 $18 $-1 $204 reversed single #
loop $-1 $-1 $205 $74 #
plane-surface $-1 -43.387554551835692 0 0 1 0 0 0 0 -1 forward_v I I I I #
coedge $-1 $206 $127 $207 $208 forward $75 $-1 #
coedge $-1 $209 $77 $206 $210 forward $49 $-1 #
coedge $-1 $77 $209 $211 $212 forward $49 $-1 #
coedge $-1 $130 $129 $77 $123 reversed $131 $-1 #
edge $-1 $213 -27.00033459339997 $214 27.00033459339997 $122 $215 forward 7 unknown #
coedge $-1 $79 $78 $216 $217 forward $31 $-1 #
coedge $-1 $218 $219 $78 $126 reversed $203 $-1 #
edge $-1 $133 -43.387554551835692 $220 43.387554551835692 $125 $221 forward 7 unknown #
coedge $-1 $119 $222 $79 $128 reversed $75 $-1 #
edge $-1 $223 -43.387554551835692 $132 43.387554551835692 $127 $224 forward 7 unknown #
coedge $-1 $122 $80 $222 $225 forward $131 $-1 #
coedge $-1 $80 $122 $218 $226 reversed $131 $-1 #
loop $-1 $-1 $129 $202 #
vertex $-1 $81 $227 #
vertex $-1 $81 $228 #
straight-curve $-1 43.387554551835692 0 13.407218972406167 0 1 0 I I #
face $-1 $229 $230 $19 $-1 $231 reversed single #
loop $-1 $-1 $232 $82 #
plane-surface $-1 -43.387554551835692 0 0 1 0 0 0 0 -1 forward_v I I I I #
coedge $-1 $233 $146 $234 $235 forward $83 $-1 #
coedge $-1 $236 $85 $233 $237 forward $53 $-1 #
coedge $-1 $85 $236 $238 $239 forward $53 $-1 #
coedge $-1 $149 $148 $85 $142 reversed $150 $-1 #
edge $-1 $240 -4.9412600737759709 $241 4.9412600737759709 $141 $242 forward 7 unknown #
coedge $-1 $87 $86 $243 $244 forward $34 $-1 #
coedge $-1 $245 $246 $86 $145 reversed $230 $-1 #
edge $-1 $152 -43.387554551835692 $247 43.387554551835692 $144 $248 forward 7 unknown #
coedge $-1 $138 $249 $87 $147 reversed $83 $-1 #
edge $-1 $250 -43.387554551835692 $151 43.387554551835692 $146 $251 forward 7 unknown #
coedge $-1 $141 $88 $249 $252 forward $150 $-1 #
coedge $-1 $88 $141 $245 $253 reversed $150 $-1 #
loop $-1 $-1 $148 $229 #
vertex $-1 $89 $254 #
vertex $-1 $89 $255 #
straight-curve $-1 43.387554551835692 0 2.7544803430384546 0 1 0 I I #
face $-1 $256 $257 $20 $-1 $258 reversed single #
loop $-1 $-1 $259 $90 #
plane-surface $-1 -173.55021820734277 0 0 1 0 0 0 0 -1 forward_v I I I I #
coedge $-1 $260 $165 $261 $262 forward $91 $-1 #
coedge $-1 $263 $93 $260 $264 forward $57 $-1 #
coedge $-1 $93 $263 $265 $266 forward $57 $-1 #
coedge $-1 $168 $167 $93 $161 reversed $169 $-1 #
edge $-1 $267 -5.7197782071878791 $268 5.7197782071878791 $160 $269 forward 7 unknown #
coedge $-1 $95 $94 $270 $271 forward $37 $-1 #
coedge $-1 $272 $273 $94 $164 reversed $257 $-1 #
edge $-1 $171 -173.55021820734277 $274 173.55021820734277 $163 $275 forward 7 unknown #
coedge $-1 $157 $276 $95 $166 reversed $91 $-1 #
edge $-1 $277 -173.55021820734277 $170 173.55021820734277 $165 $278 forward 7 unknown #
coedge $-1 $160 $96 $276 $279 forward $169 $-1 #
coedge $-1 $96 $160 $272 $280 reversed $169 $-1 #
loop $-1 $-1 $167 $256 #
vertex $-1 $97 $281 #
vertex $-1 $97 $282 #
straight-curve $-1 173.55021820734277 0 86.775109103671383 0 1 0 I I #
loop $-1 $-1 $283 $60 #
coedge $-1 $174 $174 $101 $175 reversed $98 $-1 #
edge $-1 $284 0 $284 6.2831853071796004 $174 $285 forward 7 unknown #
vertex $-1 $102 $286 #
ellipse-curve $-1 0 0 -10.533120212408829 0 0 -1 2.5 0 0 1 I I #
face $-1 $287 $288 $22 $-1 $289 reversed single #
loop $-1 $-1 $290 $103 #
plane-surface $-1 -173.55021820734277 0 0 1 0 0 0 0 -1 forward_v I I I I #
coedge $-1 $291 $189 $292 $293 forward $104 $-1 #
coedge $-1 $294 $106 $291 $295 forward $66 $-1 #
coedge $-1 $106 $294 $296 $297 forward $66 $-1 #
coedge $-1 $192 $191 $106 $185 reversed $193 $-1 #
edge $-1 $298 -6.3502049979259994 $299 6.3502049979259994 $184 $300 forward 7 unknown #
coedge $-1 $108 $107 $301 $302 forward $43 $-1 #
coedge $-1 $303 $304 $107 $188 reversed $288 $-1 #
edge $-1 $195 -173.55021820734277 $305 173.55021820734277 $187 $306 forward 7 unknown #
coedge $-1 $181 $307 $108 $190 reversed $104 $-1 #
edge $-1 $308 -173.55021820734277 $194 173.55021820734277 $189 $309 forward 7 unknown #
coedge $-1 $184 $109 $307 $310 forward $193 $-1 #
coedge $-1 $109 $184 $303 $311 reversed $193 $-1 #
loop $-1 $-1 $191 $287 #
vertex $-1 $110 $312 #
vertex $-1 $110 $313 #
straight-curve $-1 173.55021820734277 0 86.775109103671383 0 1 0 I I #
loop $-1 $-1 $314 $69 #
coedge $-1 $198 $198 $114 $199 reversed $111 $-1 #
edge $-1 $315 0 $315 6.2831853071796004 $198 $316 forward 7 unknown #
vertex $-1 $115 $317 #
ellipse-curve $-1 0 0 -1.25 0 0 -1 0.5 0 0 1 I I #
face $-1 $-1 $131 $18 $-1 $318 reversed single #
loop $-1 $-1 $218 $116 #
plane-surface $-1 0 27.00033459339997 0 0 -1 0 0 0 -1 forward_v I I I I #
coedge $-1 $319 $216 $219 $320 forward $117 $-1 #
coedge $-1 $222 $119 $120 $210 reversed $75 $-1 #
coedge $-1 $216 $319 $119 $208 reversed $117 $-1 #
edge $-1 $223 -13.407218972406167 $321 13.407218972406167 $207 $322 forward 7 unknown #
coedge $-1 $121 $120 $319 $323 forward $49 $-1 #
edge $-1 $214 -43.387554551835692 $321 43.387554551835692 $206 $324 forward 7 unknown #
coedge $-1 $219 $218 $121 $212 reversed $203 $-1 #
edge $-1 $325 -43.387554551835692 $213 43.387554551835692 $211 $326 forward 7 unknown #
vertex $-1 $123 $327 #
vertex $-1 $225 $328 #
straight-curve $-1 43.387554551835692 0 -13.407218972406167 0 -1 0 I I #
coedge $-1 $205 $207 $124 $217 reversed $117 $-1 #
edge $-1 $220 -27.00033459339997 $223 27.00033459339997 $216 $329 forward 7 unknown #
coedge $-1 $211 $125 $130 $226 forward $203 $-1 #
coedge $-1 $125 $211 $205 $320 reversed $203 $-1 #
vertex $-1 $126 $330 #
straight-curve $-1 0 27.00033459339997 13.407218972406167 -1 0 0 I I #
coedge $-1 $127 $206 $129 $225 reversed $75 $-1 #
vertex $-1 $217 $331 #
straight-curve $-1 0 -27.00033459339997 13.407218972406167 1 0 0 I I #
edge $-1 $132 -13.407218972406167 $214 13.407218972406167 $129 $332 forward 7 unknown #
edge $-1 $133 -13.407218972406167 $213 13.407218972406167 $130 $333 forward 7 unknown #
point $-1 43.387554551835692 -27.00033459339997 13.407218972406167 #
point $-1 43.387554551835692 27.00033459339997 13.407218972406167 #
face $-1 $-1 $150 $19 $-1 $334 reversed single #
loop $-1 $-1 $245 $135 #
plane-surface $-1 0 4.9412600737759709 0 0 -1 0 0 0 -1 forward_v I I I I #
coedge $-1 $335 $243 $246 $336 forward $136 $-1 #
coedge $-1 $249 $138 $139 $237 reversed $83 $-1 #
coedge $-1 $243 $335 $138 $235 reversed $136 $-1 #
edge $-1 $250 -2.7544803430384546 $337 2.7544803430384546 $234 $338 forward 7 unknown #
coedge $-1 $140 $139 $335 $339 forward $53 $-1 #
edge $-1 $241 -43.387554551835692 $337 43.387554551835692 $233 $340 forward 7 unknown #
coedge $-1 $246 $245 $140 $239 reversed $230 $-1 #
edge $-1 $341 -43.387554551835692 $240 43.387554551835692 $238 $342 forward 7 unknown #
vertex $-1 $142 $343 #
vertex $-1 $252 $344 #
straight-curve $-1 43.387554551835692 0 -2.7544803430384546 0 -1 0 I I #
coedge $-1 $232 $234 $143 $244 reversed $136 $-1 #
edge $-1 $247 -4.9412600737759709 $250 4.9412600737759709 $243 $345 forward 7 unknown #
coedge $-1 $238 $144 $149 $253 forward $230 $-1 #
coedge $-1 $144 $238 $232 $336 reversed $230 $-1 #
vertex $-1 $145 $346 #
straight-curve $-1 0 4.9412600737759709 2.7544803430384546 -1 0 0 I I #
coedge $-1 $146 $233 $148 $252 reversed $83 $-1 #
vertex $-1 $244 $347 #
straight-curve $-1 0 -4.9412600737759709 2.7544803430384546 1 0 0 I I #
edge $-1 $151 -2.7544803430384546 $241 2.7544803430384546 $148 $348 forward 7 unknown #
edge $-1 $152 -2.7544803430384546 $240 2.7544803430384546 $149 $349 forward 7 unknown #
point $-1 43.387554551835692 -4.9412600737759709 2.7544803430384546 #
point $-1 43.387554551835692 4.9412600737759709 2.7544803430384546 #
face $-1 $-1 $169 $20 $-1 $350 reversed single #
loop $-1 $-1 $272 $154 #
plane-surface $-1 0 5.7197782071878791 0 0 -1 0 0 0 -1 forward_v I I I I #
coedge $-1 $351 $270 $273 $352 forward $155 $-1 #
coedge $-1 $276 $157 $158 $264 reversed $91 $-1 #
coedge $-1 $270 $351 $157 $262 reversed $155 $-1 #
edge $-1 $277 -86.775109103671383 $353 86.775109103671383 $261 $354 forward 7 unknown #
coedge $-1 $159 $158 $351 $355 forward $57 $-1 #
edge $-1 $268 -173.55021820734277 $353 173.55021820734277 $260 $356 forward 7 unknown #
coedge $-1 $273 $272 $159 $266 reversed $257 $-1 #
edge $-1 $357 -173.55021820734277 $267 173.55021820734277 $265 $358 forward 7 unknown #
vertex $-1 $161 $359 #
vertex $-1 $279 $360 #
straight-curve $-1 173.55021820734277 0 -86.775109103671383 0 -1 0 I I #
coedge $-1 $259 $261 $162 $271 reversed $155 $-1 #
edge $-1 $274 -5.7197782071878791 $277 5.7197782071878791 $270 $361 forward 7 unknown #
coedge $-1 $265 $163 $168 $280 forward $257 $-1 #
coedge $-1 $163 $265 $259 $352 reversed $257 $-1 #
vertex $-1 $164 $362 #
straight-curve $-1 0 5.7197782071878791 86.775109103671383 -1 0 0 I I #
coedge $-1 $165 $260 $167 $279 reversed $91 $-1 #
vertex $-1 $271 $363 #
straight-curve $-1 0 -5.7197782071878791 86.775109103671383 1 0 0 I I #
edge $-1 $170 -86.775109103671383 $268 86.775109103671383 $167 $364 forward 7 unknown #
edge $-1 $171 -86.775109103671383 $267 86.775109103671383 $168 $365 forward 7 unknown #
point $-1 173.55021820734277 -5.7197782071878791 86.775109103671383 #
point $-1 173.55021820734277 5.7197782071878791 86.775109103671383 #
coedge $-1 $283 $283 $-1 $366 reversed $173 $-1 #
vertex $-1 $175 $367 #
ellipse-curve $-1 0 0 -1.25 0 0 -1 2.5 0 0 1 I I #
point $-1 2.5 0 -10.533120212408829 #
face $-1 $-1 $193 $22 $-1 $368 reversed single #
loop $-1 $-1 $303 $178 #
plane-surface $-1 0 6.3502049979259994 0 0 -1 0 0 0 -1 forward_v I I I I #
coedge $-1 $369 $301 $304 $370 forward $179 $-1 #
coedge $-1 $307 $181 $182 $295 reversed $104 $-1 #
coedge $-1 $301 $369 $181 $293 reversed $179 $-1 #
edge $-1 $308 -86.775109103671383 $371 86.775109103671383 $292 $372 forward 7 unknown #
coedge $-1 $183 $182 $369 $373 forward $66 $-1 #
edge $-1 $299 -173.55021820734277 $371 173.55021820734277 $291 $374 forward 7 unknown #
coedge $-1 $304 $303 $183 $297 reversed $288 $-1 #
edge $-1 $375 -173.55021820734277 $298 173.55021820734277 $296 $376 forward 7 unknown #
vertex $-1 $185 $377 #
vertex $-1 $310 $378 #
straight-curve $-1 173.55021820734277 0 -86.775109103671383 0 -1 0 I I #
coedge $-1 $290 $292 $186 $302 reversed $179 $-1 #
edge $-1 $305 -6.3502049979259994 $308 6.3502049979259994 $301 $379 forward 7 unknown #
coedge $-1 $296 $187 $192 $311 forward $288 $-1 #
coedge $-1 $187 $296 $290 $370 reversed $288 $-1 #
vertex $-1 $188 $380 #
straight-curve $-1 0 6.3502049979259994 86.775109103671383 -1 0 0 I I #
coedge $-1 $189 $291 $191 $310 reversed $104 $-1 #
vertex $-1 $302 $381 #
straight-curve $-1 0 -6.3502049979259994 86.775109103671383 1 0 0 I I #
edge $-1 $194 -86.775109103671383 $299 86.775109103671383 $191 $382 forward 7 unknown #
edge $-1 $195 -86.775109103671383 $298 86.775109103671383 $192 $383 forward 7 unknown #
point $-1 173.55021820734277 -6.3502049979259994 86.775109103671383 #
point $-1 173.55021820734277 6.3502049979259994 86.775109103671383 #
coedge $-1 $314 $314 $-1 $384 reversed $197 $-1 #
vertex $-1 $199 $385 #
ellipse-curve $-1 0 0 -0.25 0 0 -1 0.5 0 0 1 I I #
point $-1 0.5 0 -1.25 #
plane-surface $-1 43.387554551835692 0 0 -1 0 0 0 0 1 forward_v I I I I #
coedge $-1 $207 $205 $209 $323 reversed $117 $-1 #
edge $-1 $220 -13.407218972406167 $325 13.407218972406167 $219 $386 forward 7 unknown #
vertex $-1 $323 $387 #
straight-curve $-1 -43.387554551835692 -27.00033459339997 0 0 0 -1 I I #
edge $-1 $321 -27.00033459339997 $325 27.00033459339997 $319 $388 forward 7 unknown #
straight-curve $-1 0 -27.00033459339997 -13.407218972406167 -1 0 0 I I #
vertex $-1 $212 $389 #
straight-curve $-1 0 27.00033459339997 -13.407218972406167 1 0 0 I I #
point $-1 43.387554551835692 27.00033459339997 -13.407218972406167 #
point $-1 43.387554551835692 -27.00033459339997 -13.407218972406167 #
straight-curve $-1 -43.387554551835692 0 13.407218972406167 0 -1 0 I I #
point $-1 -43.387554551835692 27.00033459339997 13.407218972406167 #
point $-1 -43.387554551835692 -27.00033459339997 13.407218972406167 #
straight-curve $-1 43.387554551835692 -27.00033459339997 0 0 0 -1 I I #
straight-curve $-1 43.387554551835692 27.00033459339997 0 0 0 -1 I I #
plane-surface $-1 43.387554551835692 0 0 -1 0 0 0 0 1 forward_v I I I I #
coedge $-1 $234 $232 $236 $339 reversed $136 $-1 #
edge $-1 $247 -2.7544803430384546 $341 2.7544803430384546 $246 $390 forward 7 unknown #
vertex $-1 $339 $391 #
straight-curve $-1 -43.387554551835692 -4.9412600737759709 0 0 0 -1 I I #
edge $-1 $337 -4.9412600737759709 $341 4.9412600737759709 $335 $392 forward 7 unknown #
straight-curve $-1 0 -4.9412600737759709 -2.7544803430384546 -1 0 0 I I #
vertex $-1 $239 $393 #
straight-curve $-1 0 4.9412600737759709 -2.7544803430384546 1 0 0 I I #
point $-1 43.387554551835692 4.9412600737759709 -2.7544803430384546 #
point $-1 43.387554551835692 -4.9412600737759709 -2.7544803430384546 #
straight-curve $-1 -43.387554551835692 0 2.7544803430384546 0 -1 0 I I #
point $-1 -43.387554551835692 4.9412600737759709 2.7544803430384546 #
point $-1 -43.387554551835692 -4.9412600737759709 2.7544803430384546 #
straight-curve $-1 43.387554551835692 -4.9412600737759709 0 0 0 -1 I I #
straight-curve $-1 43.387554551835692 4.9412600737759709 0 0 0 -1 I I #
plane-surface $-1 173.55021820734277 0 0 -1 0 0 0 0 1 forward_v I I I I #
coedge $-1 $261 $259 $263 $355 reversed $155 $-1 #
edge $-1 $274 -86.775109103671383 $357 86.775109103671383 $273 $394 forward 7 unknown #
vertex $-1 $355 $395 #
straight-curve $-1 -173.55021820734277 -5.7197782071878791 0 0 0 -1 I I #
edge $-1 $353 -5.7197782071878791 $357 5.7197782071878791 $351 $396 forward 7 unknown #
straight-curve $-1 0 -5.7197782071878791 -86.775109103671383 -1 0 0 I I #
vertex $-1 $266 $397 #
straight-curve $-1 0 5.7197782071878791 -86.775109103671383 1 0 0 I I #
point $-1 173.55021820734277 5.7197782071878791 -86.775109103671383 #
point $-1 173.55021820734277 -5.7197782071878791 -86.775109103671383 #
straight-curve $-1 -173.55021820734277 0 86.775109103671383 0 -1 0 I I #
point $-1 -173.55021820734277 5.7197782071878791 86.775109103671383 #
point $-1 -173.55021820734277 -5.7197782071878791 86.775109103671383 #
straight-curve $-1 173.55021820734277 -5.7197782071878791 0 0 0 -1 I I #
straight-curve $-1 173.55021820734277 5.7197782071878791 0 0 0 -1 I I #
edge $-1 $398 1 $398 0 $283 $-1 forward 7 unknown #
point $-1 2.5 0 -1.25 #
plane-surface $-1 173.55021820734277 0 0 -1 0 0 0 0 1 forward_v I I I I #
coedge $-1 $292 $290 $294 $373 reversed $179 $-1 #
edge $-1 $305 -86.775109103671383 $375 86.775109103671383 $304 $399 forward 7 unknown #
vertex $-1 $373 $400 #
straight-curve $-1 -173.55021820734277 -6.3502049979259994 0 0 0 -1 I I #
edge $-1 $371 -6.3502049979259994 $375 6.3502049979259994 $369 $401 forward 7 unknown #
straight-curve $-1 0 -6.3502049979259994 -86.775109103671383 -1 0 0 I I #
vertex $-1 $297 $402 #
straight-curve $-1 0 6.3502049979259994 -86.775109103671383 1 0 0 I I #
point $-1 173.55021820734277 6.3502049979259994 -86.775109103671383 #
point $-1 173.55021820734277 -6.3502049979259994 -86.775109103671383 #
straight-curve $-1 -173.55021820734277 0 86.775109103671383 0 -1 0 I I #
point $-1 -173.55021820734277 6.3502049979259994 86.775109103671383 #
point $-1 -173.55021820734277 -6.3502049979259994 86.775109103671383 #
straight-curve $-1 173.55021820734277 -6.3502049979259994 0 0 0 -1 I I #
straight-curve $-1 173.55021820734277 6.3502049979259994 0 0 0 -1 I I #
edge $-1 $403 1 $403 0 $314 $-1 forward 7 unknown #
point $-1 0.5 0 -0.25 #
straight-curve $-1 -43.387554551835692 27.00033459339997 0 0 0 -1 I I #
point $-1 -43.387554551835692 -27.00033459339997 -13.407218972406167 #
straight-curve $-1 -43.387554551835692 0 -13.407218972406167 0 1 0 I I #
point $-1 -43.387554551835692 27.00033459339997 -13.407218972406167 #
straight-curve $-1 -43.387554551835692 4.9412600737759709 0 0 0 -1 I I #
point $-1 -43.387554551835692 -4.9412600737759709 -2.7544803430384546 #
straight-curve $-1 -43.387554551835692 0 -2.7544803430384546 0 1 0 I I #
point $-1 -43.387554551835692 4.9412600737759709 -2.7544803430384546 #
straight-curve $-1 -173.55021820734277 5.7197782071878791 0 0 0 -1 I I #
point $-1 -173.55021820734277 -5.7197782071878791 -86.775109103671383 #
straight-curve $-1 -173.55021820734277 0 -86.775109103671383 0 1 0 I I #
point $-1 -173.55021820734277 5.7197782071878791 -86.775109103671383 #
vertex $-1 $366 $404 #
straight-curve $-1 -173.55021820734277 6.3502049979259994 0 0 0 -1 I I #
point $-1 -173.55021820734277 -6.3502049979259994 -86.775109103671383 #
straight-curve $-1 -173.55021820734277 0 -86.775109103671383 0 1 0 I I #
point $-1 -173.55021820734277 6.3502049979259994 -86.775109103671383 #
vertex $-1 $384 $405 #
point $-1 0 0 1.25 #
point $-1 0 0 0.25 #
End-of-ACIS-data 