500 0 6 0           
7 Unknown 11 ACIS 5.0 NT 24 Fri Mar 26 20:41:30 1999 
-1 9.9999999999999995e-007 1e-010 
body $-1 $6 $-1 $7 #
body $-1 $8 $-1 $9 #
body $-1 $10 $-1 $11 #
body $-1 $12 $-1 $13 #
body $-1 $14 $-1 $15 #
body $-1 $16 $-1 $17 #
lump $-1 $-1 $18 $0 #
transform $-1 1 0 0 0 1 0 0 0 1 50.548417615283668 22.089999426260963 8.2851486541007517 1 rotate no_reflect no_shear #
lump $-1 $-1 $19 $1 #
transform $-1 1 0 0 0 1 0 0 0 1 50.548417615283668 22.089999426260963 8.2851486541007517 1 rotate no_reflect no_shear #
lump $-1 $-1 $20 $2 #
transform $-1 1 0 0 0 1 0 0 0 1 50.548417615283668 22.089999426260963 8.2851486541007517 1 rotate no_reflect no_shear #
lump $-1 $-1 $21 $3 #
transform $-1 1 0 0 0 1 0 0 0 1 50.548417615283668 22.089999426260963 8.2851486541007517 1 rotate no_reflect no_shear #
lump $-1 $-1 $22 $4 #
transform $-1 1 0 0 0 1 0 0 0 1 50.548417615283668 22.089999426260963 8.2851486541007517 1 rotate no_reflect no_shear #
lump $-1 $-1 $23 $5 #
transform $-1 1 0 0 0 1 0 0 0 1 50.548417615283668 22.089999426260963 8.2851486541007517 1 rotate no_reflect no_shear #
shell $-1 $-1 $-1 $24 $-1 $6 #
shell $-1 $-1 $-1 $25 $-1 $8 #
shell $-1 $-1 $-1 $26 $-1 $10 #
shell $-1 $-1 $-1 $27 $-1 $12 #
shell $-1 $-1 $-1 $28 $-1 $14 #
shell $-1 $-1 $-1 $29 $-1 $16 #
face $-1 $30 $31 $18 $-1 $32 forward single #
face $-1 $33 $34 $19 $-1 $35 reversed single #
face $-1 $36 $37 $20 $-1 $38 reversed single #
face $-1 $39 $40 $21 $-1 $41 forward single #
face $-1 $42 $43 $22 $-1 $44 reversed single #
face $-1 $45 $46 $23 $-1 $47 forward single #
face $-1 $48 $49 $18 $-1 $50 reversed single #
loop $-1 $-1 $51 $24 #
plane-surface $-1 0 0 8.2851486541007517 0 0 1 1 0 0 forward_v I I I I #
face $-1 $52 $53 $19 $-1 $54 reversed single #
loop $-1 $-1 $55 $25 #
plane-surface $-1 0 -19.167574873137266 5.2851486541007517 0 0 1 1 0 0 forward_v I I I I #
face $-1 $56 $57 $20 $-1 $58 reversed single #
loop $-1 $-1 $59 $26 #
plane-surface $-1 -124.48596311866801 15.59680197192073 72.179901329061337 0 1 0 -0.73135370988377701 0 0.68199835119979291 forward_v I I I I #
face $-1 $60 $61 $21 $-1 $62 forward single #
loop $-1 $63 $64 $27 #
cone-surface $-1 -46.151269092823661 18.843400699090846 3.8552382921400201 0.73135370988377701 0 -0.68199835119979291 1.0229975267996894 0 1.0970305648256655 1 I I 0 1 1.5 forward I I I I #
face $-1 $65 $66 $22 $-1 $67 reversed single #
loop $-1 $-1 $68 $28 #
plane-surface $-1 -18.399457323480405 18.843400699090846 77.169571893681635 0.73135370988377701 0 0.68199835119979291 0.68199835119979291 0 -0.73135370988377701 forward_v I I I I #
face $-1 $69 $70 $23 $-1 $71 forward single #
loop $-1 $72 $73 $29 #
cone-surface $-1 46.151269092823654 18.843400699090846 3.8552382921400326 -0.73135370988377701 0 -0.68199835119979291 1.0229975267996894 0 -1.0970305648256655 1 I I 0 1 1.5 forward I I I I #
face $-1 $74 $75 $18 $-1 $76 reversed single #
loop $-1 $-1 $77 $30 #
plane-surface $-1 0 0 -8.2851486541007517 0 0 1 1 0 0 forward_v I I I I #
coedge $-1 $78 $79 $80 $81 forward $31 $-1 #
face $-1 $82 $83 $19 $-1 $84 reversed single #
loop $-1 $-1 $85 $33 #
plane-surface $-1 0 -16.245150320013568 6.7851486541007517 0 -1 0 0 0 -1 forward_v I I I I #
coedge $-1 $86 $87 $88 $89 reversed $34 $-1 #
face $-1 $90 $91 $20 $-1 $92 forward single #
loop $-1 $-1 $93 $36 #
plane-surface $-1 -50.548417615283654 18.843400699090846 3.2320263902972783 -0.73135370988377701 0 0.68199835119979291 0.68199835119979291 0 0.73135370988377701 forward_v I I I I #
coedge $-1 $94 $95 $96 $97 reversed $37 $-1 #
face $-1 $-1 $98 $21 $-1 $99 forward single #
loop $-1 $100 $101 $39 #
cone-surface $-1 -43.561661602256386 18.843400699090846 1.4403902986811818 0.73135370988377701 0 -0.68199835119979291 0.51149876339984468 0 0.54851528241283276 1 I I -0.70710678118654757 0.70710678118654757 0.75 forward I I I I #
loop $-1 $-1 $102 $27 #
coedge $-1 $64 $64 $103 $104 reversed $40 $-1 #
face $-1 $105 $106 $22 $-1 $107 forward single #
loop $-1 $-1 $108 $42 #
plane-surface $-1 55.538088179903951 15.59680197192073 146.11744683244569 0 1 0 0.73135370988377701 0 0.68199835119979291 forward_v I I I I #
coedge $-1 $109 $110 $111 $112 reversed $43 $-1 #
face $-1 $-1 $113 $23 $-1 $114 forward single #
loop $-1 $115 $116 $45 #
cone-surface $-1 43.561661602256379 18.843400699090846 1.4403902986811943 -0.73135370988377701 0 -0.68199835119979291 0.51149876339984468 0 -0.54851528241283276 1 I I -0.70710678118654757 0.70710678118654757 0.75 forward I I I I #
loop $-1 $-1 $117 $29 #
coedge $-1 $73 $73 $118 $119 reversed $46 $-1 #
face $-1 $120 $121 $18 $-1 $122 reversed single #
loop $-1 $-1 $123 $48 #
plane-surface $-1 0 -22.089999426260963 0 0 1 0 0 0 1 forward_v I I I I #
coedge $-1 $124 $125 $126 $127 forward $49 $-1 #
coedge $-1 $128 $51 $129 $130 forward $31 $-1 #
coedge $-1 $51 $128 $131 $132 forward $31 $-1 #
coedge $-1 $133 $134 $51 $81 reversed $135 $-1 #
edge $-1 $136 -22.089999426260963 $137 22.089999426260963 $80 $138 forward 7 unknown #
face $-1 $139 $140 $19 $-1 $141 reversed single #
loop $-1 $-1 $142 $52 #
plane-surface $-1 -50.548417615283668 0 0 1 0 0 0 0 -1 forward_v I I I I #
coedge $-1 $143 $144 $145 $146 reversed $53 $-1 #
coedge $-1 $147 $55 $148 $149 reversed $34 $-1 #
coedge $-1 $55 $147 $143 $150 forward $34 $-1 #
coedge $-1 $145 $151 $55 $89 forward $152 $-1 #
edge $-1 $153 -12.50621198969233 $154 -6.6613628834449354 $88 $155 forward 7 unknown #
face $-1 $156 $157 $20 $-1 $158 reversed single #
loop $-1 $-1 $96 $56 #
plane-surface $-1 0 0 8.2851486541007517 0 0 1 1 0 0 forward_v I I I I #
coedge $-1 $159 $160 $161 $162 reversed $57 $-1 #
coedge $-1 $95 $59 $163 $164 reversed $37 $-1 #
coedge $-1 $59 $94 $159 $165 reversed $37 $-1 #
coedge $-1 $161 $166 $59 $97 forward $91 $-1 #
edge $-1 $167 11.694563944050337 $168 16.406676572661461 $96 $169 forward 7 unknown #
loop $-1 $-1 $103 $60 #
plane-surface $-1 -50.548417615283654 18.843400699090846 3.2320263902972783 -0.73135370988377701 0 0.68199835119979291 0.68199835119979291 0 0.73135370988377701 forward_v I I I I #
loop $-1 $-1 $170 $39 #
coedge $-1 $101 $101 $102 $171 reversed $61 $-1 #
coedge $-1 $102 $102 $101 $171 forward $63 $-1 #
coedge $-1 $103 $103 $64 $104 forward $98 $-1 #
edge $-1 $172 0 $172 6.2831853071796004 $103 $173 forward 7 unknown #
face $-1 $174 $175 $22 $-1 $176 reversed single #
loop $-1 $-1 $111 $65 #
plane-surface $-1 0 0 8.2851486541007517 0 0 1 1 0 0 forward_v I I I I #
coedge $-1 $177 $178 $179 $180 reversed $66 $-1 #
coedge $-1 $181 $68 $182 $183 reversed $43 $-1 #
coedge $-1 $68 $181 $177 $184 forward $43 $-1 #
coedge $-1 $179 $185 $68 $112 forward $106 $-1 #
edge $-1 $186 -12.66829907671554 $187 -6.1751016223753066 $111 $188 forward 7 unknown #
loop $-1 $-1 $118 $69 #
plane-surface $-1 -18.399457323480405 18.843400699090846 77.169571893681635 0.73135370988377701 0 0.68199835119979291 0.68199835119979291 0 -0.73135370988377701 forward_v I I I I #
loop $-1 $-1 $189 $45 #
coedge $-1 $116 $116 $117 $190 reversed $70 $-1 #
coedge $-1 $117 $117 $116 $190 forward $72 $-1 #
coedge $-1 $118 $118 $73 $119 forward $113 $-1 #
edge $-1 $191 0 $191 6.2831853071796004 $118 $192 forward 7 unknown #
face $-1 $193 $194 $18 $-1 $195 reversed single #
loop $-1 $-1 $196 $74 #
plane-surface $-1 -50.548417615283668 0 0 1 0 0 0 0 -1 forward_v I I I I #
coedge $-1 $197 $131 $198 $199 forward $75 $-1 #
coedge $-1 $200 $77 $197 $201 forward $49 $-1 #
coedge $-1 $77 $200 $202 $203 forward $49 $-1 #
coedge $-1 $134 $133 $77 $127 reversed $135 $-1 #
edge $-1 $204 -22.089999426260963 $205 22.089999426260963 $126 $206 forward 7 unknown #
coedge $-1 $79 $78 $207 $208 forward $31 $-1 #
coedge $-1 $209 $210 $78 $130 reversed $194 $-1 #
edge $-1 $137 -50.548417615283668 $211 50.548417615283668 $129 $212 forward 7 unknown #
coedge $-1 $123 $213 $79 $132 reversed $75 $-1 #
edge $-1 $214 -50.548417615283668 $136 50.548417615283668 $131 $215 forward 7 unknown #
coedge $-1 $126 $80 $213 $216 forward $135 $-1 #
coedge $-1 $80 $126 $209 $217 reversed $135 $-1 #
loop $-1 $-1 $133 $193 #
vertex $-1 $81 $218 #
vertex $-1 $81 $219 #
straight-curve $-1 50.548417615283668 0 8.2851486541007517 0 1 0 I I #
face $-1 $220 $221 $19 $-1 $222 forward single #
loop $-1 $-1 $148 $82 #
plane-surface $-1 0 -22.089999426260963 0 0 1 0 0 0 1 forward_v I I I I #
coedge $-1 $223 $224 $225 $226 forward $83 $-1 #
coedge $-1 $225 $85 $87 $150 reversed $53 $-1 #
coedge $-1 $85 $225 $227 $228 reversed $53 $-1 #
coedge $-1 $229 $88 $85 $146 forward $152 $-1 #
edge $-1 $154 1.8925743270503759 $230 4.8925743270503759 $145 $231 forward 7 unknown #
coedge $-1 $87 $86 $223 $232 reversed $34 $-1 #
coedge $-1 $233 $234 $86 $149 forward $140 $-1 #
edge $-1 $235 -50.548417615283668 $153 50.548417615283668 $148 $236 forward 7 unknown #
edge $-1 $237 -50.548417615283668 $154 50.548417615283668 $143 $238 forward 7 unknown #
coedge $-1 $88 $229 $233 $239 forward $152 $-1 #
loop $-1 $-1 $145 $220 #
vertex $-1 $149 $240 #
vertex $-1 $89 $241 #
straight-curve $-1 50.548417615283668 -9.5837874365686329 5.2851486541007517 0 1 0 I I #
face $-1 $-1 $242 $20 $-1 $243 reversed single #
loop $-1 $-1 $244 $90 #
plane-surface $-1 0 22.089999426260963 0 0 -1 0 0 0 -1 forward_v I I I I #
coedge $-1 $245 $93 $95 $165 forward $57 $-1 #
coedge $-1 $93 $245 $244 $246 reversed $57 $-1 #
coedge $-1 $247 $96 $93 $162 forward $91 $-1 #
edge $-1 $168 6.1751016223753066 $248 12.66829907671554 $161 $249 forward 7 unknown #
coedge $-1 $250 $251 $94 $164 forward $242 $-1 #
edge $-1 $252 -32.857924274233405 $167 -27.804802010429917 $163 $253 forward 7 unknown #
edge $-1 $168 -6.9092727575094788 $252 2.0734513383776317e-014 $95 $254 forward 7 unknown #
coedge $-1 $96 $247 $250 $255 forward $91 $-1 #
vertex $-1 $164 $256 #
vertex $-1 $97 $257 #
straight-curve $-1 -62.242981559334005 15.59680197192073 8.2851486541007517 1 0 0 I I #
coedge $-1 $170 $170 $-1 $258 reversed $100 $-1 #
edge $-1 $259 0 $259 6.2831853071796004 $101 $260 forward 7 unknown #
vertex $-1 $104 $261 #
ellipse-curve $-1 -48.192361300978099 18.843400699090846 5.7585875221990106 -0.73135370988377701 0 0.68199835119979291 1.0229975267996894 0 1.0970305648256655 1 I I #
face $-1 $-1 $262 $22 $-1 $263 reversed single #
loop $-1 $-1 $264 $105 #
plane-surface $-1 50.548417615283668 0 0 -1 0 0 0 0 1 forward_v I I I I #
coedge $-1 $178 $108 $110 $184 reversed $66 $-1 #
coedge $-1 $108 $177 $265 $266 reversed $66 $-1 #
coedge $-1 $267 $111 $108 $180 forward $106 $-1 #
edge $-1 $187 18.067260896720569 $268 22.779373525331692 $179 $269 forward 7 unknown #
coedge $-1 $110 $109 $264 $270 reversed $43 $-1 #
coedge $-1 $271 $272 $109 $183 forward $262 $-1 #
edge $-1 $273 -66.603509104481589 $186 -59.694236346972104 $182 $274 forward 7 unknown #
edge $-1 $275 -101.09683523056734 $187 -94.187562473057852 $177 $276 forward 7 unknown #
coedge $-1 $111 $267 $271 $277 forward $106 $-1 #
vertex $-1 $183 $278 #
vertex $-1 $112 $279 #
straight-curve $-1 45.836304986672545 9.4217003495454232 8.2851486541007446 0 -1 0 I I #
coedge $-1 $189 $189 $-1 $280 reversed $115 $-1 #
edge $-1 $281 0 $281 6.2831853071796004 $116 $282 forward 7 unknown #
vertex $-1 $119 $283 #
ellipse-curve $-1 48.192361300978092 18.843400699090846 5.7585875221990213 0.73135370988377701 0 0.68199835119979291 1.0229975267996894 0 -1.0970305648256655 1 I I #
face $-1 $-1 $135 $18 $-1 $284 reversed single #
loop $-1 $-1 $209 $120 #
plane-surface $-1 0 22.089999426260963 0 0 -1 0 0 0 -1 forward_v I I I I #
coedge $-1 $285 $207 $210 $286 forward $121 $-1 #
coedge $-1 $213 $123 $124 $201 reversed $75 $-1 #
coedge $-1 $207 $285 $123 $199 reversed $121 $-1 #
edge $-1 $214 -8.2851486541007517 $287 8.2851486541007517 $198 $288 forward 7 unknown #
coedge $-1 $125 $124 $285 $289 forward $49 $-1 #
edge $-1 $205 -50.548417615283668 $287 50.548417615283668 $197 $290 forward 7 unknown #
coedge $-1 $210 $209 $125 $203 reversed $194 $-1 #
edge $-1 $291 -50.548417615283668 $204 50.548417615283668 $202 $292 forward 7 unknown #
vertex $-1 $127 $293 #
vertex $-1 $216 $294 #
straight-curve $-1 50.548417615283668 0 -8.2851486541007517 0 -1 0 I I #
coedge $-1 $196 $198 $128 $208 reversed $121 $-1 #
edge $-1 $211 -22.089999426260963 $214 22.089999426260963 $207 $295 forward 7 unknown #
coedge $-1 $202 $129 $134 $217 forward $194 $-1 #
coedge $-1 $129 $202 $196 $286 reversed $194 $-1 #
vertex $-1 $130 $296 #
straight-curve $-1 0 22.089999426260963 8.2851486541007517 -1 0 0 I I #
coedge $-1 $131 $197 $133 $216 reversed $75 $-1 #
vertex $-1 $208 $297 #
straight-curve $-1 0 -22.089999426260963 8.2851486541007517 1 0 0 I I #
edge $-1 $136 -8.2851486541007517 $205 8.2851486541007517 $133 $298 forward 7 unknown #
edge $-1 $137 -8.2851486541007517 $204 8.2851486541007517 $134 $299 forward 7 unknown #
point $-1 50.548417615283668 -22.089999426260963 8.2851486541007517 #
point $-1 50.548417615283668 22.089999426260963 8.2851486541007517 #
face $-1 $-1 $152 $19 $-1 $300 reversed single #
loop $-1 $-1 $227 $139 #
plane-surface $-1 0 0 8.2851486541007517 0 0 1 1 0 0 forward_v I I I I #
coedge $-1 $301 $142 $147 $232 forward $83 $-1 #
coedge $-1 $142 $301 $302 $303 reversed $83 $-1 #
coedge $-1 $144 $143 $142 $226 reversed $53 $-1 #
edge $-1 $304 -4.8925743270503759 $237 -1.8925743270503759 $142 $305 forward 7 unknown #
coedge $-1 $302 $306 $144 $228 forward $221 $-1 #
edge $-1 $230 -50.548417615283668 $304 50.548417615283668 $227 $307 forward 7 unknown #
coedge $-1 $151 $145 $306 $308 reversed $152 $-1 #
vertex $-1 $146 $309 #
straight-curve $-1 50.548417615283668 -16.245150320013568 3.3925743270503759 0 0 1 I I #
edge $-1 $237 6.6613628834449354 $235 12.50621198969233 $223 $310 forward 7 unknown #
coedge $-1 $311 $148 $151 $239 reversed $140 $-1 #
coedge $-1 $148 $311 $301 $312 forward $140 $-1 #
vertex $-1 $149 $313 #
straight-curve $-1 0 -22.089999426260963 5.2851486541007517 1 0 0 I I #
vertex $-1 $232 $314 #
straight-curve $-1 0 -16.245150320013568 5.2851486541007517 1 0 0 I I #
edge $-1 $315 -8.2851486541007517 $153 -5.2851486541007517 $151 $316 forward 7 unknown #
point $-1 50.548417615283668 -22.089999426260963 5.2851486541007517 #
point $-1 50.548417615283668 -16.245150320013568 5.2851486541007517 #
loop $-1 $-1 $163 $156 #
plane-surface $-1 -50.548417615283668 0 0 1 0 0 0 0 -1 forward_v I I I I #
coedge $-1 $317 $318 $160 $246 forward $157 $-1 #
coedge $-1 $160 $159 $251 $319 reversed $57 $-1 #
edge $-1 $248 9.1458187316884345 $320 16.055091489197935 $244 $321 forward 7 unknown #
coedge $-1 $166 $161 $318 $322 forward $91 $-1 #
vertex $-1 $322 $323 #
straight-curve $-1 -45.836304986672538 9.4217003495454232 8.2851486541007517 0 1 0 I I #
coedge $-1 $324 $163 $166 $255 reversed $242 $-1 #
coedge $-1 $163 $324 $245 $319 forward $242 $-1 #
vertex $-1 $164 $325 #
straight-curve $-1 -50.548417615283668 15.59680197192073 36.089950664530669 0 0 1 I I #
straight-curve $-1 -50.548417615283654 15.59680197192073 3.2320263902972783 -0.68199835119979291 0 -0.73135370988377701 I I #
edge $-1 $326 -22.089999426260963 $167 -15.59680197192073 $250 $327 forward 7 unknown #
point $-1 -50.548417615283668 15.59680197192073 8.2851486541007517 #
point $-1 -45.836304986672545 15.59680197192073 8.2851486541007517 #
edge $-1 $328 1 $328 0 $170 $-1 forward 7 unknown #
vertex $-1 $171 $329 #
ellipse-curve $-1 -44.110176884669215 18.843400699090846 1.9518890620810265 -0.73135370988377701 0 0.68199835119979291 1.0229975267996894 0 1.0970305648256655 1 I I #
point $-1 -47.169363774178422 18.843400699090846 6.8556180870246797 #
loop $-1 $-1 $182 $174 #
plane-surface $-1 0 22.089999426260963 0 0 -1 0 0 0 -1 forward_v I I I I #
coedge $-1 $330 $265 $181 $270 forward $175 $-1 #
coedge $-1 $264 $331 $178 $266 forward $175 $-1 #
edge $-1 $268 64.773574762122095 $275 69.826697025925569 $265 $332 forward 7 unknown #
coedge $-1 $185 $179 $331 $333 forward $106 $-1 #
vertex $-1 $333 $334 #
straight-curve $-1 27.769044089951976 15.59680197192073 8.2851486541007517 1 0 0 I I #
edge $-1 $275 6.1751016223753066 $273 12.66829907671554 $264 $335 forward 7 unknown #
coedge $-1 $272 $182 $185 $277 reversed $262 $-1 #
coedge $-1 $182 $271 $330 $336 forward $262 $-1 #
vertex $-1 $183 $337 #
straight-curve $-1 5.1249342219068179 22.089999426260963 51.942749865137813 -0.68199835119979291 0 0.73135370988377701 I I #
vertex $-1 $270 $338 #
straight-curve $-1 -18.399457323480405 15.59680197192073 77.169571893681635 -0.68199835119979291 0 0.73135370988377701 I I #
edge $-1 $339 -50.548417615283668 $186 -45.836304986672545 $271 $340 forward 7 unknown #
point $-1 45.836304986672545 22.089999426260963 8.2851486541007517 #
point $-1 45.836304986672545 15.59680197192073 8.2851486541007517 #
edge $-1 $341 1 $341 0 $189 $-1 forward 7 unknown #
vertex $-1 $190 $342 #
ellipse-curve $-1 44.110176884669215 18.843400699090846 1.951889062081039 0.73135370988377701 0 0.68199835119979291 1.0229975267996894 0 -1.0970305648256655 1 I I #
point $-1 49.215358827777791 18.843400699090846 4.6615569573733611 #
plane-surface $-1 50.548417615283668 0 0 -1 0 0 0 0 1 forward_v I I I I #
coedge $-1 $198 $196 $200 $289 reversed $121 $-1 #
edge $-1 $211 -8.2851486541007517 $291 8.2851486541007517 $210 $343 forward 7 unknown #
vertex $-1 $289 $344 #
straight-curve $-1 -50.548417615283668 -22.089999426260963 0 0 0 -1 I I #
edge $-1 $287 -22.089999426260963 $291 22.089999426260963 $285 $345 forward 7 unknown #
straight-curve $-1 0 -22.089999426260963 -8.2851486541007517 -1 0 0 I I #
vertex $-1 $203 $346 #
straight-curve $-1 0 22.089999426260963 -8.2851486541007517 1 0 0 I I #
point $-1 50.548417615283668 22.089999426260963 -8.2851486541007517 #
point $-1 50.548417615283668 -22.089999426260963 -8.2851486541007517 #
straight-curve $-1 -50.548417615283668 0 8.2851486541007517 0 -1 0 I I #
point $-1 -50.548417615283668 22.089999426260963 8.2851486541007517 #
point $-1 -50.548417615283668 -22.089999426260963 8.2851486541007517 #
straight-curve $-1 50.548417615283668 -22.089999426260963 0 0 0 -1 I I #
straight-curve $-1 50.548417615283668 22.089999426260963 0 0 0 -1 I I #
plane-surface $-1 50.548417615283668 0 0 -1 0 0 0 0 1 forward_v I I I I #
coedge $-1 $224 $223 $234 $312 reversed $83 $-1 #
coedge $-1 $347 $227 $224 $303 forward $221 $-1 #
edge $-1 $304 16.245150320013568 $348 22.089999426260963 $224 $349 forward 7 unknown #
vertex $-1 $303 $350 #
straight-curve $-1 -50.548417615283668 -16.245150320013568 3.3925743270503759 0 0 -1 I I #
coedge $-1 $227 $347 $229 $308 forward $221 $-1 #
straight-curve $-1 0 -16.245150320013568 8.2851486541007517 -1 0 0 I I #
edge $-1 $315 -22.089999426260963 $230 -16.245150320013568 $229 $351 forward 7 unknown #
point $-1 50.548417615283668 -16.245150320013568 8.2851486541007517 #
straight-curve $-1 -50.548417615283668 -9.5837874365686329 5.2851486541007517 0 -1 0 I I #
coedge $-1 $234 $233 $347 $352 reversed $140 $-1 #
edge $-1 $348 -8.2851486541007517 $235 -5.2851486541007517 $301 $353 forward 7 unknown #
point $-1 -50.548417615283668 -22.089999426260963 5.2851486541007517 #
point $-1 -50.548417615283668 -16.245150320013568 5.2851486541007517 #
vertex $-1 $308 $354 #
straight-curve $-1 50.548417615283668 -22.089999426260963 0 0 0 -1 I I #
coedge $-1 $318 $244 $324 $355 reversed $157 $-1 #
coedge $-1 $244 $317 $247 $322 reversed $157 $-1 #
edge $-1 $320 -12.66829907671554 $252 -6.1751016223753066 $251 $356 forward 7 unknown #
vertex $-1 $246 $357 #
straight-curve $-1 -39.598871691288849 22.089999426260963 14.973977113445628 -0.68199835119979291 0 -0.73135370988377701 I I #
edge $-1 $248 45.836304986672545 $326 50.548417615283668 $318 $358 forward 7 unknown #
point $-1 -45.836304986672545 22.089999426260963 8.2851486541007517 #
coedge $-1 $251 $250 $317 $355 forward $242 $-1 #
point $-1 -50.548417615283668 15.59680197192073 3.2320263902972632 #
vertex $-1 $322 $359 #
straight-curve $-1 -50.548417615283668 0 8.2851486541007517 0 -1 0 I I #
vertex $-1 $258 $360 #
point $-1 -43.08717935786953 18.843400699090846 3.048919626906692 #
coedge $-1 $331 $264 $272 $336 reversed $175 $-1 #
coedge $-1 $265 $330 $267 $333 reversed $175 $-1 #
straight-curve $-1 50.548417615283668 15.59680197192073 73.058723416222847 0 0 -1 I I #
edge $-1 $268 15.59680197192073 $339 22.089999426260963 $331 $361 forward 7 unknown #
point $-1 50.548417615283668 15.59680197192073 8.2851486541007517 #
straight-curve $-1 50.548417615283668 9.4217003495454232 3.2320263902972712 0 1 0 I I #
edge $-1 $339 -8.2851486541007517 $273 -3.2320263902972783 $330 $362 forward 7 unknown #
point $-1 50.548417615283668 22.089999426260963 3.2320263902972783 #
point $-1 50.548417615283668 15.59680197192073 3.2320263902972783 #
vertex $-1 $333 $363 #
straight-curve $-1 0 22.089999426260963 8.2851486541007517 -1 0 0 I I #
vertex $-1 $280 $364 #
point $-1 45.1331744114689 18.843400699090846 0.85485849725537344 #
straight-curve $-1 -50.548417615283668 22.089999426260963 0 0 0 -1 I I #
point $-1 -50.548417615283668 -22.089999426260963 -8.2851486541007517 #
straight-curve $-1 -50.548417615283668 0 -8.2851486541007517 0 1 0 I I #
point $-1 -50.548417615283668 22.089999426260963 -8.2851486541007517 #
coedge $-1 $306 $302 $311 $352 forward $221 $-1 #
vertex $-1 $303 $365 #
straight-curve $-1 -50.548417615283668 0 8.2851486541007517 0 -1 0 I I #
point $-1 -50.548417615283668 -16.245150320013568 8.2851486541007517 #
straight-curve $-1 50.548417615283668 0 8.2851486541007517 0 1 0 I I #
edge $-1 $348 -50.548417615283668 $315 50.548417615283668 $311 $366 forward 7 unknown #
straight-curve $-1 -50.548417615283668 -22.089999426260963 0 0 0 -1 I I #
point $-1 50.548417615283668 -22.089999426260963 8.2851486541007517 #
edge $-1 $326 -8.2851486541007517 $320 -3.2320263902972632 $317 $367 forward 7 unknown #
straight-curve $-1 -50.548417615283668 9.4217003495454232 3.2320263902972615 0 -1 0 I I #
point $-1 -50.548417615283668 22.089999426260963 3.2320263902972632 #
straight-curve $-1 0 22.089999426260963 8.2851486541007517 -1 0 0 I I #
point $-1 -50.548417615283668 22.089999426260963 8.2851486541007517 #
point $-1 -43.013146319843557 18.843400699090846 0.92889153528133717 #
straight-curve $-1 50.548417615283668 0 8.2851486541007517 0 1 0 I I #
straight-curve $-1 50.548417615283668 22.089999426260963 0 0 0 -1 I I #
point $-1 50.548417615283668 22.089999426260963 8.2851486541007517 #
point $-1 43.013146319843543 18.843400699090846 0.9288915352813496 #
point $-1 -50.548417615283668 -22.089999426260963 8.2851486541007517 #
straight-curve $-1 0 -22.089999426260963 8.2851486541007517 1 0 0 I I #
straight-curve $-1 -50.548417615283668 22.089999426260963 0 0 0 -1 I I #
End-of-ACIS-data 