500 0 10 0           
7 Unknown 11 ACIS 5.0 NT 24 Thu Mar 25 21:50:05 1999 
-1 9.9999999999999995e-007 1e-010 
body $-1 $10 $-1 $11 #
body $-1 $12 $-1 $13 #
body $-1 $14 $-1 $15 #
body $-1 $16 $-1 $17 #
body $-1 $18 $-1 $19 #
body $-1 $20 $-1 $21 #
body $-1 $22 $-1 $23 #
body $-1 $24 $-1 $25 #
body $-1 $26 $-1 $27 #
body $-1 $28 $-1 $29 #
lump $-1 $-1 $30 $0 #
transform $-1 1 0 0 0 1 0 0 0 1 60.092165898617509 24.545780084745822 11.048335255406329 1 rotate no_reflect no_shear #
lump $-1 $-1 $31 $1 #
transform $-1 1 0 0 0 1 0 0 0 1 60.092165898617509 24.545780084745822 11.048335255406329 1 rotate no_reflect no_shear #
lump $-1 $-1 $32 $2 #
transform $-1 1 0 0 0 1 0 0 0 1 60.092165898617509 24.545780084745822 11.048335255406329 1 rotate no_reflect no_shear #
lump $-1 $-1 $33 $3 #
transform $-1 1 0 0 0 1 0 0 0 1 60.092165898617509 24.545780084745822 11.048335255406329 1 rotate no_reflect no_shear #
lump $-1 $-1 $34 $4 #
transform $-1 1 0 0 0 1 0 0 0 1 60.092165898617509 24.545780084745822 11.048335255406329 1 rotate no_reflect no_shear #
lump $-1 $-1 $35 $5 #
transform $-1 1 0 0 0 1 0 0 0 1 60.092165898617509 24.545780084745822 11.048335255406329 1 rotate no_reflect no_shear #
lump $-1 $-1 $36 $6 #
transform $-1 1 0 0 0 1 0 0 0 1 60.092165898617509 24.545780084745822 11.048335255406329 1 rotate no_reflect no_shear #
lump $-1 $-1 $37 $7 #
transform $-1 1 0 0 0 1 0 0 0 1 60.092165898617509 24.545780084745822 11.048335255406329 1 rotate no_reflect no_shear #
lump $-1 $-1 $38 $8 #
transform $-1 1 0 0 0 1 0 0 0 1 60.092165898617509 24.545780084745822 11.048335255406329 1 rotate no_reflect no_shear #
lump $-1 $-1 $39 $9 #
transform $-1 1 0 0 0 1 0 0 0 1 60.092165898617509 24.545780084745822 11.048335255406329 1 rotate no_reflect no_shear #
shell $-1 $-1 $-1 $40 $-1 $10 #
shell $-1 $-1 $-1 $41 $-1 $12 #
shell $-1 $-1 $-1 $42 $-1 $14 #
shell $-1 $-1 $-1 $43 $-1 $16 #
shell $-1 $-1 $-1 $44 $-1 $18 #
shell $-1 $-1 $-1 $45 $-1 $20 #
shell $-1 $-1 $-1 $46 $-1 $22 #
shell $-1 $-1 $-1 $47 $-1 $24 #
shell $-1 $-1 $-1 $48 $-1 $26 #
shell $-1 $-1 $-1 $49 $-1 $28 #
face $-1 $50 $51 $30 $-1 $52 forward single #
face $-1 $53 $54 $31 $-1 $55 reversed single #
face $-1 $56 $57 $32 $-1 $58 forward single #
face $-1 $59 $60 $33 $-1 $61 forward single #
face $-1 $62 $63 $34 $-1 $64 reversed single #
face $-1 $65 $66 $35 $-1 $67 forward single #
face $-1 $68 $69 $36 $-1 $70 forward single #
face $-1 $71 $72 $37 $-1 $73 reversed single #
face $-1 $74 $75 $38 $-1 $76 forward single #
face $-1 $77 $78 $39 $-1 $79 forward single #
face $-1 $80 $81 $30 $-1 $82 reversed single #
loop $-1 $-1 $83 $40 #
plane-surface $-1 0 0 11.048335255406329 0 0 1 1 0 0 forward_v I I I I #
face $-1 $84 $85 $31 $-1 $86 reversed single #
loop $-1 $-1 $87 $41 #
plane-surface $-1 -15.616040584835901 53.267230094588264 131.43767435192817 1 0 0 0 -0.57357644374324357 -0.81915203911291934 forward_v I I I I #
face $-1 $88 $89 $32 $-1 $90 forward single #
loop $-1 $91 $92 $42 #
cone-surface $-1 -11.154314703454212 18.812275841262789 6.0920051086905929 0 -0.57357644374324357 -0.81915203911291934 1.5 0 0 1 I I 0 1 1.5 forward I I I I #
face $-1 $93 $94 $33 $-1 $95 forward single #
loop $-1 $96 $97 $43 #
cone-surface $-1 -4.4617258813816818 18.812275841262789 6.0920051086905929 0 -0.57357644374324357 -0.81915203911291934 1.5 0 0 1 I I 0 1 1.5 forward I I I I #
face $-1 $98 $99 $34 $-1 $100 reversed single #
loop $-1 $-1 $101 $44 #
plane-surface $-1 -7.8080202924179503 -15.667671531327834 32.988433890799413 0 0.57357644374324357 0.81915203911291934 1 0 0 forward_v I I I I #
face $-1 $102 $103 $35 $-1 $104 forward single #
loop $-1 $105 $106 $45 #
cone-surface $-1 4.4617258813816818 18.812275841262789 6.0920051086905929 0 -0.57357644374324357 -0.81915203911291934 1.5 0 0 1 I I 0 1 1.5 forward I I I I #
face $-1 $107 $108 $36 $-1 $109 forward single #
loop $-1 $110 $111 $46 #
cone-surface $-1 11.154314703454219 18.812275841262789 6.0920051086905929 0 -0.57357644374324357 -0.81915203911291934 1.5 0 0 1 I I 0 1 1.5 forward I I I I #
face $-1 $112 $113 $37 $-1 $114 reversed single #
loop $-1 $-1 $115 $47 #
plane-surface $-1 9.9540918970562444 -101.79878039198158 97.555234658910834 -1 0 0 0 -0.64278761758704617 0.76604443648966558 forward_v I I I I #
face $-1 $116 $117 $38 $-1 $118 forward single #
loop $-1 $119 $120 $48 #
cone-surface $-1 -8.141753621664293 -20.159511648848085 6.9892772596681016 0 0.64278761758704617 -0.76604443648966558 1.5 0 0 1 I I 0 1 1.5 forward I I I I #
face $-1 $121 $122 $39 $-1 $123 forward single #
loop $-1 $124 $125 $49 #
cone-surface $-1 2.7157536895680252 -20.159511648848085 6.9892772596681016 0 0.64278761758704617 -0.76604443648966558 1.5 0 0 1 I I 0 1 1.5 forward I I I I #
face $-1 $126 $127 $30 $-1 $128 reversed single #
loop $-1 $-1 $129 $50 #
plane-surface $-1 0 0 -11.048335255406329 0 0 1 1 0 0 forward_v I I I I #
coedge $-1 $130 $131 $132 $133 forward $51 $-1 #
face $-1 $134 $135 $31 $-1 $136 reversed single #
loop $-1 $-1 $137 $53 #
plane-surface $-1 -7.8080202924179503 -15.667671531327834 32.988433890799413 0 0.57357644374324357 0.81915203911291934 1 0 0 forward_v I I I I #
coedge $-1 $138 $139 $140 $141 reversed $54 $-1 #
face $-1 $-1 $142 $32 $-1 $143 forward single #
loop $-1 $144 $145 $56 #
cone-surface $-1 -11.154314703454212 17.088461306987014 3.6301428648558591 0 -0.57357644374324357 -0.81915203911291934 0.75 0 0 1 I I -0.70710678118654757 0.70710678118654757 0.75 forward I I I I #
loop $-1 $-1 $146 $42 #
coedge $-1 $92 $92 $147 $148 reversed $57 $-1 #
face $-1 $-1 $149 $33 $-1 $150 forward single #
loop $-1 $151 $152 $59 #
cone-surface $-1 -4.4617258813816818 17.088461306987014 3.6301428648558591 0 -0.57357644374324357 -0.81915203911291934 0.75 0 0 1 I I -0.70710678118654757 0.70710678118654757 0.75 forward I I I I #
loop $-1 $-1 $153 $43 #
coedge $-1 $97 $97 $154 $155 reversed $60 $-1 #
face $-1 $156 $157 $34 $-1 $158 forward single #
loop $-1 $-1 $159 $62 #
plane-surface $-1 15.616040584835901 53.267230094588264 131.43767435192817 -1 0 0 0 0.57357644374324357 0.81915203911291934 forward_v I I I I #
coedge $-1 $160 $161 $162 $163 reversed $63 $-1 #
face $-1 $-1 $164 $35 $-1 $165 forward single #
loop $-1 $166 $167 $65 #
cone-surface $-1 4.4617258813816818 17.088461306987014 3.6301428648558591 0 -0.57357644374324357 -0.81915203911291934 0.75 0 0 1 I I -0.70710678118654757 0.70710678118654757 0.75 forward I I I I #
loop $-1 $-1 $168 $45 #
coedge $-1 $106 $106 $169 $170 reversed $66 $-1 #
face $-1 $-1 $171 $36 $-1 $172 forward single #
loop $-1 $173 $174 $68 #
cone-surface $-1 11.154314703454219 17.088461306987014 3.6301428648558591 0 -0.57357644374324357 -0.81915203911291934 0.75 0 0 1 I I -0.70710678118654757 0.70710678118654757 0.75 forward I I I I #
loop $-1 $-1 $175 $46 #
coedge $-1 $111 $111 $176 $177 reversed $69 $-1 #
face $-1 $178 $179 $37 $-1 $180 reversed single #
loop $-1 $-1 $181 $71 #
plane-surface $-1 -2.7129999660481303 -24.545780084745815 5.4886959324109483 0 -0.64278761758704617 0.76604443648966558 1 0 0 forward_v I I I I #
coedge $-1 $182 $183 $184 $185 reversed $72 $-1 #
face $-1 $-1 $186 $38 $-1 $187 forward single #
loop $-1 $188 $189 $74 #
cone-surface $-1 -8.141753621664293 -18.604012498726227 5.1355055980603126 0 0.64278761758704617 -0.76604443648966558 0.75 0 0 1 I I -0.70710678118654757 0.70710678118654757 0.75 forward I I I I #
loop $-1 $-1 $190 $48 #
coedge $-1 $120 $120 $191 $192 reversed $75 $-1 #
face $-1 $-1 $193 $39 $-1 $194 forward single #
loop $-1 $195 $196 $77 #
cone-surface $-1 2.7157536895680252 -18.604012498726227 5.1355055980603126 0 0.64278761758704617 -0.76604443648966558 0.75 0 0 1 I I -0.70710678118654757 0.70710678118654757 0.75 forward I I I I #
loop $-1 $-1 $197 $49 #
coedge $-1 $125 $125 $198 $199 reversed $78 $-1 #
face $-1 $200 $201 $30 $-1 $202 reversed single #
loop $-1 $-1 $203 $80 #
plane-surface $-1 0 -24.545780084745822 0 0 1 0 0 0 1 forward_v I I I I #
coedge $-1 $204 $205 $206 $207 forward $81 $-1 #
coedge $-1 $208 $83 $209 $210 forward $51 $-1 #
coedge $-1 $83 $208 $211 $212 forward $51 $-1 #
coedge $-1 $213 $214 $83 $133 reversed $215 $-1 #
edge $-1 $216 -24.545780084745822 $217 24.545780084745822 $132 $218 forward 7 unknown #
face $-1 $219 $220 $31 $-1 $221 reversed single #
loop $-1 $-1 $222 $84 #
plane-surface $-1 0 53.267230094588264 131.43767435192817 -1 0 0 0 0.57357644374324357 0.81915203911291934 forward_v I I I I #
coedge $-1 $223 $224 $225 $226 reversed $85 $-1 #
coedge $-1 $139 $87 $227 $228 reversed $54 $-1 #
coedge $-1 $87 $138 $223 $229 reversed $54 $-1 #
coedge $-1 $225 $230 $87 $141 forward $231 $-1 #
edge $-1 $232 2.0878349625483104 $233 10.967579046577718 $140 $234 forward 7 unknown #
loop $-1 $-1 $147 $88 #
plane-surface $-1 -7.8080202924179503 -15.667671531327834 32.988433890799413 0 0.57357644374324357 0.81915203911291934 1 0 0 forward_v I I I I #
loop $-1 $-1 $235 $56 #
coedge $-1 $145 $145 $146 $236 reversed $89 $-1 #
coedge $-1 $146 $146 $145 $236 forward $91 $-1 #
coedge $-1 $147 $147 $92 $148 forward $142 $-1 #
edge $-1 $237 1.0656685945240586e-015 $237 6.2831853071796013 $147 $238 forward 7 unknown #
loop $-1 $-1 $154 $93 #
plane-surface $-1 -7.8080202924179503 -15.667671531327834 32.988433890799413 0 0.57357644374324357 0.81915203911291934 1 0 0 forward_v I I I I #
loop $-1 $-1 $239 $59 #
coedge $-1 $152 $152 $153 $240 reversed $94 $-1 #
coedge $-1 $153 $153 $152 $240 forward $96 $-1 #
coedge $-1 $154 $154 $97 $155 forward $149 $-1 #
edge $-1 $241 1.0656685945240586e-015 $241 6.2831853071796013 $154 $242 forward 7 unknown #
face $-1 $243 $244 $34 $-1 $245 forward single #
loop $-1 $-1 $246 $98 #
plane-surface $-1 0 0 11.048335255406329 0 0 1 1 0 0 forward_v I I I I #
coedge $-1 $247 $248 $249 $250 reversed $99 $-1 #
coedge $-1 $251 $101 $252 $253 reversed $63 $-1 #
coedge $-1 $101 $251 $246 $254 reversed $63 $-1 #
coedge $-1 $255 $256 $101 $163 forward $244 $-1 #
edge $-1 $257 -49.091560169491643 $258 -38.251394168506643 $162 $259 forward 7 unknown #
loop $-1 $-1 $169 $102 #
plane-surface $-1 -7.8080202924179503 -15.667671531327834 32.988433890799413 0 0.57357644374324357 0.81915203911291934 1 0 0 forward_v I I I I #
loop $-1 $-1 $260 $65 #
coedge $-1 $167 $167 $168 $261 reversed $103 $-1 #
coedge $-1 $168 $168 $167 $261 forward $105 $-1 #
coedge $-1 $169 $169 $106 $170 forward $164 $-1 #
edge $-1 $262 1.0656685945240586e-015 $262 6.2831853071796013 $169 $263 forward 7 unknown #
loop $-1 $-1 $176 $107 #
plane-surface $-1 -7.8080202924179503 -15.667671531327834 32.988433890799413 0 0.57357644374324357 0.81915203911291934 1 0 0 forward_v I I I I #
loop $-1 $-1 $264 $68 #
coedge $-1 $174 $174 $175 $265 reversed $108 $-1 #
coedge $-1 $175 $175 $174 $265 forward $110 $-1 #
coedge $-1 $176 $176 $111 $177 forward $171 $-1 #
edge $-1 $266 1.0656685945240586e-015 $266 6.2831853071796013 $176 $267 forward 7 unknown #
face $-1 $268 $269 $37 $-1 $270 reversed single #
loop $-1 $-1 $271 $112 #
plane-surface $-1 -15.380091829152505 -101.79878039198158 97.555234658910834 1 0 0 0 0.64278761758704617 -0.76604443648966558 forward_v I I I I #
coedge $-1 $272 $273 $274 $275 reversed $113 $-1 #
coedge $-1 $183 $115 $276 $277 reversed $72 $-1 #
coedge $-1 $115 $182 $272 $278 reversed $72 $-1 #
coedge $-1 $274 $279 $115 $185 forward $280 $-1 #
edge $-1 $281 26.353610111244969 $282 32.979330109177326 $184 $283 forward 7 unknown #
loop $-1 $-1 $191 $116 #
plane-surface $-1 -2.7129999660481303 -24.545780084745815 5.4886959324109483 0 -0.64278761758704617 0.76604443648966558 1 0 0 forward_v I I I I #
loop $-1 $-1 $284 $74 #
coedge $-1 $189 $189 $190 $285 reversed $117 $-1 #
coedge $-1 $190 $190 $189 $285 forward $119 $-1 #
coedge $-1 $191 $191 $120 $192 forward $186 $-1 #
edge $-1 $286 1.7735187182733256e-016 $286 6.2831853071796004 $191 $287 forward 7 unknown #
loop $-1 $-1 $198 $121 #
plane-surface $-1 -2.7129999660481303 -24.545780084745815 5.4886959324109483 0 -0.64278761758704617 0.76604443648966558 1 0 0 forward_v I I I I #
loop $-1 $-1 $288 $77 #
coedge $-1 $196 $196 $197 $289 reversed $122 $-1 #
coedge $-1 $197 $197 $196 $289 forward $124 $-1 #
coedge $-1 $198 $198 $125 $199 forward $193 $-1 #
edge $-1 $290 1.7735187182733256e-016 $290 6.2831853071796004 $198 $291 forward 7 unknown #
face $-1 $292 $293 $30 $-1 $294 reversed single #
loop $-1 $-1 $295 $126 #
plane-surface $-1 -60.092165898617509 0 0 1 0 0 0 0 -1 forward_v I I I I #
coedge $-1 $296 $211 $297 $298 forward $127 $-1 #
coedge $-1 $299 $129 $296 $300 forward $81 $-1 #
coedge $-1 $129 $299 $301 $302 forward $81 $-1 #
coedge $-1 $214 $213 $129 $207 reversed $215 $-1 #
edge $-1 $303 -24.545780084745822 $304 24.545780084745822 $206 $305 forward 7 unknown #
coedge $-1 $131 $130 $306 $307 forward $51 $-1 #
coedge $-1 $308 $309 $130 $210 reversed $293 $-1 #
edge $-1 $217 -60.092165898617509 $310 60.092165898617509 $209 $311 forward 7 unknown #
coedge $-1 $203 $312 $131 $212 reversed $127 $-1 #
edge $-1 $313 -60.092165898617509 $216 60.092165898617509 $211 $314 forward 7 unknown #
coedge $-1 $206 $132 $312 $315 forward $215 $-1 #
coedge $-1 $132 $206 $308 $316 reversed $215 $-1 #
loop $-1 $-1 $213 $292 #
vertex $-1 $133 $317 #
vertex $-1 $133 $318 #
straight-curve $-1 60.092165898617509 0 11.048335255406329 0 1 0 I I #
face $-1 $-1 $231 $31 $-1 $319 forward single #
loop $-1 $-1 $320 $134 #
plane-surface $-1 0 24.545780084745822 0 0 -1 0 0 0 -1 forward_v I I I I #
coedge $-1 $321 $322 $323 $324 reversed $135 $-1 #
coedge $-1 $325 $137 $139 $229 forward $85 $-1 #
coedge $-1 $137 $325 $321 $326 forward $85 $-1 #
coedge $-1 $323 $140 $137 $226 forward $231 $-1 #
edge $-1 $233 -11.712030438626925 $327 3.9040101462089751 $225 $328 forward 7 unknown #
coedge $-1 $329 $330 $138 $228 forward $220 $-1 #
edge $-1 $331 -60.888165784989155 $232 -54.670501920557754 $227 $332 forward 7 unknown #
edge $-1 $233 38.251394168506643 $331 49.091560169491643 $139 $333 forward 7 unknown #
coedge $-1 $140 $323 $329 $334 forward $231 $-1 #
loop $-1 $-1 $323 $219 #
vertex $-1 $228 $335 #
vertex $-1 $141 $336 #
straight-curve $-1 -15.616040584835901 26.633615047294132 11.048335255406329 0 -1 0 I I #
coedge $-1 $235 $235 $-1 $337 reversed $144 $-1 #
edge $-1 $338 0 $338 6.2831853071796004 $145 $339 forward 7 unknown #
vertex $-1 $148 $340 #
ellipse-curve $-1 -11.154314703454212 20.105908042731123 7.9395033231906256 0 0.57357644374324357 0.81915203911291934 1.5 0 0 1 I I #
coedge $-1 $239 $239 $-1 $341 reversed $151 $-1 #
edge $-1 $342 0 $342 6.2831853071796004 $152 $343 forward 7 unknown #
vertex $-1 $155 $344 #
ellipse-curve $-1 -4.4617258813816818 20.105908042731123 7.9395033231906256 0 0.57357644374324357 0.81915203911291934 1.5 0 0 1 I I #
face $-1 $-1 $345 $34 $-1 $346 reversed single #
loop $-1 $-1 $255 $156 #
plane-surface $-1 0 53.267230094588264 131.43767435192817 -1 0 0 0 0.57357644374324357 0.81915203911291934 forward_v I I I I #
coedge $-1 $249 $347 $161 $254 forward $157 $-1 #
coedge $-1 $248 $159 $251 $348 reversed $99 $-1 #
coedge $-1 $159 $247 $349 $350 reversed $99 $-1 #
coedge $-1 $351 $246 $159 $250 forward $157 $-1 #
edge $-1 $352 -10.967579046577718 $353 -2.0878349625483104 $249 $354 forward 7 unknown #
coedge $-1 $161 $160 $247 $348 forward $63 $-1 #
coedge $-1 $355 $349 $160 $253 forward $345 $-1 #
edge $-1 $356 -19.520050731044876 $257 -3.9040101462089751 $252 $357 forward 7 unknown #
edge $-1 $258 3.9040101462089751 $352 19.520050731044876 $246 $358 forward 7 unknown #
coedge $-1 $256 $162 $347 $359 reversed $244 $-1 #
coedge $-1 $162 $255 $355 $360 reversed $244 $-1 #
vertex $-1 $253 $361 #
vertex $-1 $254 $362 #
straight-curve $-1 0 -15.667671531327834 32.988433890799413 0 -0.81915203911291934 0.57357644374324357 I I #
coedge $-1 $260 $260 $-1 $363 reversed $166 $-1 #
edge $-1 $364 0 $364 6.2831853071796004 $167 $365 forward 7 unknown #
vertex $-1 $170 $366 #
ellipse-curve $-1 4.4617258813816818 20.105908042731123 7.9395033231906256 0 0.57357644374324357 0.81915203911291934 1.5 0 0 1 I I #
coedge $-1 $264 $264 $-1 $367 reversed $173 $-1 #
edge $-1 $368 0 $368 6.2831853071796004 $174 $369 forward 7 unknown #
vertex $-1 $177 $370 #
ellipse-curve $-1 11.154314703454219 20.105908042731123 7.9395033231906256 0 0.57357644374324357 0.81915203911291934 1.5 0 0 1 I I #
face $-1 $-1 $280 $37 $-1 $371 forward single #
loop $-1 $-1 $372 $178 #
plane-surface $-1 0 -24.545780084745822 0 0 1 0 0 0 1 forward_v I I I I #
coedge $-1 $373 $374 $375 $376 reversed $179 $-1 #
coedge $-1 $377 $181 $183 $278 forward $113 $-1 #
coedge $-1 $181 $377 $373 $378 forward $113 $-1 #
coedge $-1 $375 $184 $181 $275 forward $280 $-1 #
edge $-1 $282 -11.31059188008031 $379 14.02359184612844 $274 $380 forward 7 unknown #
coedge $-1 $381 $382 $182 $277 forward $269 $-1 #
edge $-1 $383 -43.288921397044476 $281 -37.729282074049088 $276 $384 forward 7 unknown #
edge $-1 $282 -8.6492632572258508 $383 9.439443728910611e-015 $183 $385 forward 7 unknown #
coedge $-1 $184 $375 $381 $386 forward $280 $-1 #
loop $-1 $-1 $375 $268 #
vertex $-1 $277 $387 #
vertex $-1 $185 $388 #
straight-curve $-1 9.9540918970562444 -50.89939019599079 11.048335255406329 0 1 0 I I #
coedge $-1 $284 $284 $-1 $389 reversed $188 $-1 #
edge $-1 $390 0 $390 6.2831853071796004 $189 $391 forward 7 unknown #
vertex $-1 $192 $392 #
ellipse-curve $-1 -8.141753621664293 -21.232920085779647 8.2685155939086332 0 -0.64278761758704617 0.76604443648966558 1.5 0 0 1 I I #
coedge $-1 $288 $288 $-1 $393 reversed $195 $-1 #
edge $-1 $394 0 $394 6.2831853071796004 $196 $395 forward 7 unknown #
vertex $-1 $199 $396 #
ellipse-curve $-1 2.7157536895680252 -21.232920085779647 8.2685155939086332 0 -0.64278761758704617 0.76604443648966558 1.5 0 0 1 I I #
face $-1 $-1 $215 $30 $-1 $397 reversed single #
loop $-1 $-1 $308 $200 #
plane-surface $-1 0 24.545780084745822 0 0 -1 0 0 0 -1 forward_v I I I I #
coedge $-1 $398 $306 $309 $399 forward $201 $-1 #
coedge $-1 $312 $203 $204 $300 reversed $127 $-1 #
coedge $-1 $306 $398 $203 $298 reversed $201 $-1 #
edge $-1 $313 -11.048335255406329 $400 11.048335255406329 $297 $401 forward 7 unknown #
coedge $-1 $205 $204 $398 $402 forward $81 $-1 #
edge $-1 $304 -60.092165898617509 $400 60.092165898617509 $296 $403 forward 7 unknown #
coedge $-1 $309 $308 $205 $302 reversed $293 $-1 #
edge $-1 $404 -60.092165898617509 $303 60.092165898617509 $301 $405 forward 7 unknown #
vertex $-1 $207 $406 #
vertex $-1 $315 $407 #
straight-curve $-1 60.092165898617509 0 -11.048335255406329 0 -1 0 I I #
coedge $-1 $295 $297 $208 $307 reversed $201 $-1 #
edge $-1 $310 -24.545780084745822 $313 24.545780084745822 $306 $408 forward 7 unknown #
coedge $-1 $301 $209 $214 $316 forward $293 $-1 #
coedge $-1 $209 $301 $295 $399 reversed $293 $-1 #
vertex $-1 $210 $409 #
straight-curve $-1 0 24.545780084745822 11.048335255406329 -1 0 0 I I #
coedge $-1 $211 $296 $213 $315 reversed $127 $-1 #
vertex $-1 $307 $410 #
straight-curve $-1 0 -24.545780084745822 11.048335255406329 1 0 0 I I #
edge $-1 $216 -11.048335255406329 $304 11.048335255406329 $213 $411 forward 7 unknown #
edge $-1 $217 -11.048335255406329 $303 11.048335255406329 $214 $412 forward 7 unknown #
point $-1 60.092165898617509 -24.545780084745822 11.048335255406329 #
point $-1 60.092165898617509 24.545780084745822 11.048335255406329 #
plane-surface $-1 0 0 11.048335255406329 0 0 1 1 0 0 forward_v I I I I #
coedge $-1 $330 $329 $322 $413 forward $220 $-1 #
coedge $-1 $322 $222 $224 $326 reversed $135 $-1 #
coedge $-1 $222 $321 $320 $413 reversed $135 $-1 #
coedge $-1 $230 $225 $222 $324 forward $231 $-1 #
edge $-1 $327 -10.967579046577718 $414 -2.0878349625483104 $323 $415 forward 7 unknown #
coedge $-1 $224 $223 $330 $416 reversed $85 $-1 #
edge $-1 $417 -49.091560169491643 $327 -38.251394168506643 $321 $418 forward 7 unknown #
vertex $-1 $226 $419 #
straight-curve $-1 -3.9040101462089751 15.666036000716414 11.048335255406329 1 0 0 I I #
coedge $-1 $320 $227 $230 $334 reversed $220 $-1 #
coedge $-1 $227 $320 $325 $416 forward $220 $-1 #
vertex $-1 $228 $420 #
straight-curve $-1 -15.616040584835901 24.545780084745822 65.718837175964083 0 0 1 I I #
straight-curve $-1 -15.616040584835901 -15.667671531327834 32.988433890799413 0 0.81915203911291934 -0.57357644374324357 I I #
edge $-1 $414 0 $232 15.616040584835901 $329 $421 forward 7 unknown #
point $-1 -15.616040584835901 24.545780084745822 11.048335255406329 #
point $-1 -15.616040584835901 15.666036000716414 11.048335255406329 #
edge $-1 $422 1 $422 0 $235 $-1 forward 7 unknown #
vertex $-1 $236 $423 #
ellipse-curve $-1 -11.154314703454212 17.518643639794448 4.2445068941905486 0 0.57357644374324357 0.81915203911291934 1.5 0 0 1 I I #
point $-1 -9.6543147034542116 20.105908042731134 7.939503323190638 #
edge $-1 $424 1 $424 0 $239 $-1 forward 7 unknown #
vertex $-1 $240 $425 #
ellipse-curve $-1 -4.4617258813816818 17.518643639794448 4.2445068941905486 0 0.57357644374324357 0.81915203911291934 1.5 0 0 1 I I #
point $-1 -2.9617258813816818 20.105908042731134 7.939503323190638 #
loop $-1 $-1 $252 $243 #
plane-surface $-1 0 24.545780084745822 0 0 -1 0 0 0 -1 forward_v I I I I #
coedge $-1 $246 $351 $255 $359 forward $157 $-1 #
edge $-1 $356 -49.091560169491643 $352 -38.251394168506643 $247 $426 forward 7 unknown #
coedge $-1 $252 $427 $248 $350 forward $345 $-1 #
edge $-1 $353 54.670501920557754 $356 60.888165784989155 $349 $428 forward 7 unknown #
coedge $-1 $347 $249 $427 $429 forward $157 $-1 #
vertex $-1 $250 $430 #
vertex $-1 $429 $431 #
straight-curve $-1 15.616040584835901 26.633615047294132 11.048335255406329 0 1 0 I I #
coedge $-1 $427 $252 $256 $360 forward $345 $-1 #
vertex $-1 $350 $432 #
straight-curve $-1 -3.9040101462089751 24.545780084745825 4.8306713909749277 -1 0 0 I I #
straight-curve $-1 -3.9040101462089751 15.666036000716414 11.048335255406329 1 0 0 I I #
edge $-1 $433 2.0878349625483104 $258 10.967579046577718 $347 $434 forward 7 unknown #
edge $-1 $257 -60.888165784989155 $433 -54.670501920557754 $355 $435 forward 7 unknown #
point $-1 0 24.545780084745822 4.8306713909749277 #
point $-1 0 15.666036000716414 11.048335255406329 #
edge $-1 $436 1 $436 0 $260 $-1 forward 7 unknown #
vertex $-1 $261 $437 #
ellipse-curve $-1 4.4617258813816818 17.518643639794448 4.2445068941905486 0 0.57357644374324357 0.81915203911291934 1.5 0 0 1 I I #
point $-1 5.9617258813816818 20.105908042731134 7.939503323190638 #
edge $-1 $438 1 $438 0 $264 $-1 forward 7 unknown #
vertex $-1 $265 $439 #
ellipse-curve $-1 11.154314703454219 17.518643639794448 4.2445068941905486 0 0.57357644374324357 0.81915203911291934 1.5 0 0 1 I I #
point $-1 12.654314703454219 20.105908042731134 7.939503323190638 #
plane-surface $-1 0 0 11.048335255406329 0 0 1 1 0 0 forward_v I I I I #
coedge $-1 $382 $381 $374 $440 forward $269 $-1 #
coedge $-1 $374 $271 $273 $378 reversed $179 $-1 #
coedge $-1 $271 $373 $372 $440 reversed $179 $-1 #
coedge $-1 $279 $274 $271 $376 forward $280 $-1 #
edge $-1 $379 -32.979330109177326 $441 -26.353610111244969 $375 $442 forward 7 unknown #
coedge $-1 $273 $272 $382 $443 reversed $113 $-1 #
edge $-1 $444 -9.439443728910611e-015 $379 8.6492632572258508 $373 $445 forward 7 unknown #
vertex $-1 $275 $446 #
straight-curve $-1 -1.3564999830240652 -17.920060086813468 11.048335255406329 -1 0 0 I I #
coedge $-1 $372 $276 $279 $386 reversed $269 $-1 #
coedge $-1 $276 $372 $377 $443 forward $269 $-1 #
vertex $-1 $277 $447 #
straight-curve $-1 9.9540918970562444 -24.545780084745822 48.777617329455417 0 0 1 I I #
straight-curve $-1 9.9540918970562444 -24.545780084745815 5.4886959324109483 0 -0.76604443648966558 -0.64278761758704617 I I #
edge $-1 $441 -15.380091829152505 $281 9.9540918970562444 $381 $448 forward 7 unknown #
point $-1 9.9540918970562444 -24.545780084745822 11.048335255406329 #
point $-1 9.9540918970562444 -17.920060086813468 11.048335255406329 #
edge $-1 $449 1 $449 0 $284 $-1 forward 7 unknown #
vertex $-1 $285 $450 #
ellipse-curve $-1 -8.141753621664293 -19.086103211916512 5.7100389254275621 0 -0.64278761758704617 0.76604443648966558 1.5 0 0 1 I I #
point $-1 -6.641753621664293 -21.232920085779654 8.2685155939086421 #
edge $-1 $451 1 $451 0 $288 $-1 forward 7 unknown #
vertex $-1 $289 $452 #
ellipse-curve $-1 2.7157536895680252 -19.086103211916512 5.7100389254275621 0 -0.64278761758704617 0.76604443648966558 1.5 0 0 1 I I #
point $-1 4.2157536895680252 -21.232920085779654 8.2685155939086421 #
plane-surface $-1 60.092165898617509 0 0 -1 0 0 0 0 1 forward_v I I I I #
coedge $-1 $297 $295 $299 $402 reversed $201 $-1 #
edge $-1 $310 -11.048335255406329 $404 11.048335255406329 $309 $453 forward 7 unknown #
vertex $-1 $402 $454 #
straight-curve $-1 -60.092165898617509 -24.545780084745822 0 0 0 -1 I I #
edge $-1 $400 -24.545780084745822 $404 24.545780084745822 $398 $455 forward 7 unknown #
straight-curve $-1 0 -24.545780084745822 -11.048335255406329 -1 0 0 I I #
vertex $-1 $302 $456 #
straight-curve $-1 0 24.545780084745822 -11.048335255406329 1 0 0 I I #
point $-1 60.092165898617509 24.545780084745822 -11.048335255406329 #
point $-1 60.092165898617509 -24.545780084745822 -11.048335255406329 #
straight-curve $-1 -60.092165898617509 0 11.048335255406329 0 -1 0 I I #
point $-1 -60.092165898617509 24.545780084745822 11.048335255406329 #
point $-1 -60.092165898617509 -24.545780084745822 11.048335255406329 #
straight-curve $-1 60.092165898617509 -24.545780084745822 0 0 0 -1 I I #
straight-curve $-1 60.092165898617509 24.545780084745822 0 0 0 -1 I I #
edge $-1 $414 54.670501920557754 $417 60.888165784989155 $320 $457 forward 7 unknown #
vertex $-1 $334 $458 #
straight-curve $-1 0 26.633615047294132 11.048335255406329 0 1 0 I I #
edge $-1 $417 -3.9040101462089751 $331 11.712030438626925 $330 $459 forward 7 unknown #
vertex $-1 $416 $460 #
straight-curve $-1 0 -15.667671531327834 32.988433890799413 0 -0.81915203911291934 0.57357644374324357 I I #
point $-1 0 15.666036000716414 11.048335255406329 #
point $-1 -15.616040584835901 24.545780084745822 4.8306713909749277 #
straight-curve $-1 0 24.545780084745822 11.048335255406329 -1 0 0 I I #
vertex $-1 $337 $461 #
point $-1 -9.6543147034542116 17.518643639794448 4.2445068941905486 #
vertex $-1 $341 $462 #
point $-1 -2.9617258813816818 17.518643639794448 4.2445068941905486 #
straight-curve $-1 15.616040584835901 -15.667671531327834 32.988433890799413 0 -0.81915203911291934 0.57357644374324357 I I #
coedge $-1 $349 $355 $351 $429 reversed $345 $-1 #
straight-curve $-1 15.616040584835901 24.545780084745822 65.718837175964083 0 0 -1 I I #
edge $-1 $353 -15.616040584835901 $433 0 $427 $463 forward 7 unknown #
point $-1 15.616040584835901 15.666036000716414 11.048335255406329 #
point $-1 15.616040584835901 24.545780084745822 11.048335255406329 #
point $-1 15.616040584835901 24.545780084745822 4.8306713909749277 #
vertex $-1 $360 $464 #
straight-curve $-1 0 26.633615047294132 11.048335255406329 0 -1 0 I I #
straight-curve $-1 0 24.545780084745822 65.718837175964083 0 0 1 I I #
vertex $-1 $363 $465 #
point $-1 5.9617258813816818 17.518643639794448 4.2445068941905486 #
vertex $-1 $367 $466 #
point $-1 12.654314703454219 17.518643639794448 4.2445068941905486 #
edge $-1 $441 37.729282074049088 $444 43.288921397044476 $372 $467 forward 7 unknown #
vertex $-1 $386 $468 #
straight-curve $-1 -15.380091829152505 -50.89939019599079 11.048335255406329 0 -1 0 I I #
edge $-1 $444 -14.02359184612844 $383 11.31059188008031 $382 $469 forward 7 unknown #
vertex $-1 $443 $470 #
straight-curve $-1 -15.380091829152505 -24.545780084745815 5.4886959324109483 0 0.76604443648966558 0.64278761758704617 I I #
point $-1 -15.380091829152505 -17.920060086813468 11.048335255406329 #
point $-1 9.9540918970562444 -24.545780084745822 5.4886959324109421 #
straight-curve $-1 0 -24.545780084745822 11.048335255406329 1 0 0 I I #
vertex $-1 $389 $471 #
point $-1 -6.641753621664293 -19.086103211916512 5.7100389254275621 #
vertex $-1 $393 $472 #
point $-1 4.2157536895680252 -19.086103211916512 5.7100389254275621 #
straight-curve $-1 -60.092165898617509 24.545780084745822 0 0 0 -1 I I #
point $-1 -60.092165898617509 -24.545780084745822 -11.048335255406329 #
straight-curve $-1 -60.092165898617509 0 -11.048335255406329 0 1 0 I I #
point $-1 -60.092165898617509 24.545780084745822 -11.048335255406329 #
straight-curve $-1 0 24.545780084745822 65.718837175964083 0 0 -1 I I #
point $-1 0 24.545780084745822 11.048335255406329 #
straight-curve $-1 -3.9040101462089751 24.545780084745825 4.8306713909749277 -1 0 0 I I #
point $-1 0 24.545780084745822 4.8306713909749277 #
point $-1 -11.154314703454212 16.658278974179581 3.0157788355211697 #
point $-1 -4.4617258813816818 16.658278974179581 3.0157788355211697 #
straight-curve $-1 0 24.545780084745822 11.048335255406329 -1 0 0 I I #
point $-1 0 24.545780084745822 11.048335255406329 #
point $-1 4.4617258813816818 16.658278974179581 3.0157788355211697 #
point $-1 11.154314703454219 16.658278974179581 3.0157788355211697 #
straight-curve $-1 -15.380091829152505 -24.545780084745822 48.777617329455417 0 0 -1 I I #
point $-1 -15.380091829152505 -24.545780084745822 11.048335255406329 #
straight-curve $-1 -1.3564999830240652 -24.545780084745822 5.4886959324109412 1 0 0 I I #
point $-1 -15.380091829152505 -24.545780084745822 5.4886959324109421 #
point $-1 -8.141753621664293 -18.121921785535942 4.5609722706930631 #
point $-1 2.7157536895680252 -18.121921785535942 4.5609722706930631 #
End-of-ACIS-data 