500 0 7 0           
7 Unknown 11 ACIS 5.0 NT 24 Fri Mar 26 18:04:28 1999 
-1 9.9999999999999995e-007 1e-010 
body $-1 $7 $-1 $8 #
body $-1 $9 $-1 $10 #
body $-1 $11 $-1 $12 #
body $-1 $13 $-1 $14 #
body $-1 $15 $-1 $16 #
body $-1 $17 $-1 $18 #
body $-1 $19 $-1 $20 #
lump $-1 $-1 $21 $0 #
transform $-1 1 0 0 0 1 0 0 0 1 68.832667012543112 47.005651216350927 12.993798260062361 1 rotate no_reflect no_shear #
lump $-1 $-1 $22 $1 #
transform $-1 1 0 0 0 1 0 0 0 1 68.832667012543112 47.005651216350927 12.993798260062361 1 rotate no_reflect no_shear #
lump $-1 $-1 $23 $2 #
transform $-1 1 0 0 0 1 0 0 0 1 68.832667012543112 47.005651216350927 12.993798260062361 1 rotate no_reflect no_shear #
lump $-1 $-1 $24 $3 #
transform $-1 1 0 0 0 1 0 0 0 1 68.832667012543112 47.005651216350927 12.993798260062361 1 rotate no_reflect no_shear #
lump $-1 $-1 $25 $4 #
transform $-1 1 0 0 0 1 0 0 0 1 68.832667012543112 47.005651216350927 12.993798260062361 1 rotate no_reflect no_shear #
lump $-1 $-1 $26 $5 #
transform $-1 1 0 0 0 1 0 0 0 1 68.832667012543112 47.005651216350927 12.993798260062361 1 rotate no_reflect no_shear #
lump $-1 $-1 $27 $6 #
transform $-1 1 0 0 0 1 0 0 0 1 68.832667012543112 47.005651216350927 12.993798260062361 1 rotate no_reflect no_shear #
shell $-1 $-1 $-1 $28 $-1 $7 #
shell $-1 $-1 $-1 $29 $-1 $9 #
shell $-1 $-1 $-1 $30 $-1 $11 #
shell $-1 $-1 $-1 $31 $-1 $13 #
shell $-1 $-1 $-1 $32 $-1 $15 #
shell $-1 $-1 $-1 $33 $-1 $17 #
shell $-1 $-1 $-1 $34 $-1 $19 #
face $-1 $35 $36 $21 $-1 $37 forward single #
face $-1 $38 $39 $22 $-1 $40 reversed single #
face $-1 $41 $42 $23 $-1 $43 reversed single #
face $-1 $44 $45 $24 $-1 $46 forward single #
face $-1 $47 $48 $25 $-1 $49 reversed single #
face $-1 $50 $51 $26 $-1 $52 forward single #
face $-1 $53 $54 $27 $-1 $55 forward single #
face $-1 $56 $57 $21 $-1 $58 reversed single #
loop $-1 $-1 $59 $28 #
plane-surface $-1 0 0 12.993798260062361 0 0 1 1 0 0 forward_v I I I I #
face $-1 $60 $61 $22 $-1 $62 reversed single #
loop $-1 $-1 $63 $29 #
plane-surface $-1 -63.283989586833755 -42.827982687960869 0 0 -1 0 0 0 -1 forward_v I I I I #
face $-1 $64 $65 $23 $-1 $66 reversed single #
loop $-1 $-1 $67 $30 #
plane-surface $-1 -57.735312161124405 57.678978215848105 175.92099485326827 1 0 0 0 -0.61566148304635926 -0.78801074757464917 forward_v I I I I #
face $-1 $68 $69 $24 $-1 $70 forward single #
loop $-1 $71 $72 $31 #
cone-surface $-1 -44.93269859954836 44.283336358158003 10.605175902804124 0 -0.61566148304635926 -0.78801074757464917 1 0 0 1 I I 0 1 1 forward I I I I #
face $-1 $73 $74 $25 $-1 $75 reversed single #
loop $-1 $-1 $76 $32 #
plane-surface $-1 3.4463967622426885 -167.41046639432244 71.347218398102655 -1 0 0 0 -0.87461971476443456 0.48480960649040278 forward_v I I I I #
face $-1 $77 $78 $26 $-1 $79 forward single #
loop $-1 $80 $81 $33 #
cone-surface $-1 -17.503324487437418 -43.150552636163184 7.9515049652706908 0 0.87461971476443456 -0.48480960649040278 1 0 0 1 I I 0 1 1 forward I I I I #
face $-1 $82 $83 $27 $-1 $84 forward single #
loop $-1 $85 $86 $34 #
cone-surface $-1 -4.9334917376293532 -43.150552636163184 7.9515049652706908 0 0.87461971476443456 -0.48480960649040278 1 0 0 1 I I 0 1 1 forward I I I I #
face $-1 $87 $88 $21 $-1 $89 reversed single #
loop $-1 $-1 $90 $35 #
plane-surface $-1 0 0 -12.993798260062361 0 0 1 1 0 0 forward_v I I I I #
coedge $-1 $91 $92 $93 $94 forward $36 $-1 #
face $-1 $95 $96 $22 $-1 $97 forward single #
loop $-1 $-1 $98 $38 #
plane-surface $-1 -57.735312161124398 -44.916816952155898 0 -1 0 0 0 0 1 forward_v I I I I #
coedge $-1 $99 $100 $101 $102 forward $39 $-1 #
face $-1 $103 $104 $23 $-1 $105 reversed single #
loop $-1 $-1 $106 $41 #
plane-surface $-1 -44.93269859954836 -27.076265494108895 67.439232073046284 0 0.61566148304635926 0.78801074757464917 1 0 0 forward_v I I I I #
coedge $-1 $107 $108 $109 $110 reversed $42 $-1 #
face $-1 $-1 $111 $24 $-1 $112 forward single #
loop $-1 $113 $114 $44 #
cone-surface $-1 -44.93269859954836 43.450661107321324 9.5394002046851103 0 -0.61566148304635926 -0.78801074757464917 0.5 0 0 1 I I -0.70710678118654746 0.70710678118654746 0.5 forward I I I I #
loop $-1 $-1 $115 $31 #
coedge $-1 $72 $72 $116 $117 reversed $45 $-1 #
face $-1 $118 $119 $25 $-1 $120 reversed single #
loop $-1 $-1 $121 $47 #
plane-surface $-1 -11.218408112533382 -47.005651216350913 4.6057419820307501 0 -0.87461971476443456 0.48480960649040278 1 0 0 forward_v I I I I #
coedge $-1 $122 $123 $124 $125 reversed $48 $-1 #
face $-1 $-1 $126 $26 $-1 $127 forward single #
loop $-1 $128 $129 $50 #
cone-surface $-1 -17.503324487437418 -41.182931871866245 6.8608350062496246 0 0.87461971476443456 -0.48480960649040278 0.5 0 0 1 I I -0.70710678118654746 0.70710678118654746 0.5 forward I I I I #
loop $-1 $-1 $130 $33 #
coedge $-1 $81 $81 $131 $132 reversed $51 $-1 #
face $-1 $-1 $133 $27 $-1 $134 forward single #
loop $-1 $135 $136 $53 #
cone-surface $-1 -4.9334917376293532 -41.182931871866245 6.8608350062496246 0 0.87461971476443456 -0.48480960649040278 0.5 0 0 1 I I -0.70710678118654746 0.70710678118654746 0.5 forward I I I I #
loop $-1 $-1 $137 $34 #
coedge $-1 $86 $86 $138 $139 reversed $54 $-1 #
face $-1 $140 $141 $21 $-1 $142 reversed single #
loop $-1 $-1 $143 $56 #
plane-surface $-1 0 -47.005651216350927 0 0 1 0 0 0 1 forward_v I I I I #
coedge $-1 $144 $145 $146 $147 forward $57 $-1 #
coedge $-1 $148 $59 $149 $150 forward $36 $-1 #
coedge $-1 $59 $148 $151 $152 forward $36 $-1 #
coedge $-1 $153 $154 $59 $94 reversed $155 $-1 #
edge $-1 $156 -47.005651216350927 $157 47.005651216350927 $93 $158 forward 7 unknown #
face $-1 $159 $160 $22 $-1 $161 reversed single #
loop $-1 $-1 $162 $60 #
plane-surface $-1 0 0 12.993798260062361 0 0 1 1 0 0 forward_v I I I I #
coedge $-1 $163 $164 $165 $166 reversed $61 $-1 #
coedge $-1 $167 $63 $168 $169 reversed $39 $-1 #
coedge $-1 $63 $167 $170 $171 reversed $39 $-1 #
coedge $-1 $164 $163 $63 $102 reversed $61 $-1 #
edge $-1 $172 -12.993798260062361 $173 12.993798260062361 $101 $174 forward 7 unknown #
face $-1 $175 $176 $23 $-1 $177 reversed single #
loop $-1 $-1 $178 $64 #
plane-surface $-1 -32.130085037972314 57.678978215848105 175.92099485326827 -1 0 0 0 0.61566148304635926 0.78801074757464917 forward_v I I I I #
coedge $-1 $179 $180 $181 $182 reversed $65 $-1 #
coedge $-1 $108 $67 $183 $184 reversed $42 $-1 #
coedge $-1 $67 $107 $179 $185 reversed $42 $-1 #
coedge $-1 $181 $186 $67 $110 forward $187 $-1 #
edge $-1 $188 -18.166162108426875 $189 -13.771221410668019 $109 $190 forward 7 unknown #
loop $-1 $-1 $116 $68 #
plane-surface $-1 -44.93269859954836 -27.076265494108895 67.439232073046284 0 0.61566148304635926 0.78801074757464917 1 0 0 forward_v I I I I #
loop $-1 $-1 $191 $44 #
coedge $-1 $114 $114 $115 $192 reversed $69 $-1 #
coedge $-1 $115 $115 $114 $192 forward $71 $-1 #
coedge $-1 $116 $116 $72 $117 forward $111 $-1 #
edge $-1 $193 3.4118841515711259e-015 $193 6.283185307179604 $116 $194 forward 7 unknown #
face $-1 $195 $196 $25 $-1 $197 forward single #
loop $-1 $-1 $198 $73 #
plane-surface $-1 -25.883212987309452 -167.41046639432244 71.347218398102655 1 0 0 0 0.87461971476443456 -0.48480960649040278 forward_v I I I I #
coedge $-1 $199 $200 $201 $202 reversed $74 $-1 #
coedge $-1 $123 $76 $203 $204 reversed $48 $-1 #
coedge $-1 $76 $122 $199 $205 reversed $48 $-1 #
coedge $-1 $201 $206 $76 $125 forward $196 $-1 #
edge $-1 $207 36.699581980810294 $208 41.349157327356366 $124 $209 forward 7 unknown #
loop $-1 $-1 $131 $77 #
plane-surface $-1 -11.218408112533382 -47.005651216350913 4.6057419820307501 0 -0.87461971476443456 0.48480960649040278 1 0 0 forward_v I I I I #
loop $-1 $-1 $210 $50 #
coedge $-1 $129 $129 $130 $211 reversed $78 $-1 #
coedge $-1 $130 $130 $129 $211 forward $80 $-1 #
coedge $-1 $131 $131 $81 $132 forward $126 $-1 #
edge $-1 $212 2.7697674075997137e-015 $212 6.2831853071796031 $131 $213 forward 7 unknown #
loop $-1 $-1 $138 $82 #
plane-surface $-1 -11.218408112533382 -47.005651216350913 4.6057419820307501 0 -0.87461971476443456 0.48480960649040278 1 0 0 forward_v I I I I #
loop $-1 $-1 $214 $53 #
coedge $-1 $136 $136 $137 $215 reversed $83 $-1 #
coedge $-1 $137 $137 $136 $215 forward $85 $-1 #
coedge $-1 $138 $138 $86 $139 forward $133 $-1 #
edge $-1 $216 2.7697674075997137e-015 $216 6.2831853071796031 $138 $217 forward 7 unknown #
face $-1 $218 $219 $21 $-1 $220 reversed single #
loop $-1 $-1 $221 $87 #
plane-surface $-1 -68.832667012543112 0 0 1 0 0 0 0 -1 forward_v I I I I #
coedge $-1 $222 $151 $223 $224 forward $88 $-1 #
coedge $-1 $225 $90 $222 $226 forward $57 $-1 #
coedge $-1 $90 $225 $227 $228 forward $57 $-1 #
coedge $-1 $154 $153 $90 $147 reversed $155 $-1 #
edge $-1 $229 -47.005651216350927 $230 47.005651216350927 $146 $231 forward 7 unknown #
coedge $-1 $92 $91 $232 $233 forward $36 $-1 #
coedge $-1 $234 $235 $91 $150 reversed $219 $-1 #
edge $-1 $157 -68.832667012543112 $236 68.832667012543112 $149 $237 forward 7 unknown #
coedge $-1 $143 $238 $92 $152 reversed $88 $-1 #
edge $-1 $239 -68.832667012543112 $156 68.832667012543112 $151 $240 forward 7 unknown #
coedge $-1 $146 $93 $238 $241 forward $155 $-1 #
coedge $-1 $93 $146 $234 $242 reversed $155 $-1 #
loop $-1 $-1 $153 $218 #
vertex $-1 $94 $243 #
vertex $-1 $94 $244 #
straight-curve $-1 68.832667012543112 0 12.993798260062361 0 1 0 I I #
face $-1 $245 $246 $22 $-1 $247 reversed single #
loop $-1 $-1 $248 $95 #
plane-surface $-1 -68.832667012543112 0 0 1 0 0 0 0 -1 forward_v I I I I #
coedge $-1 $170 $249 $164 $250 forward $96 $-1 #
coedge $-1 $101 $98 $251 $252 reversed $61 $-1 #
coedge $-1 $98 $101 $162 $250 reversed $61 $-1 #
coedge $-1 $253 $254 $98 $166 forward $255 $-1 #
edge $-1 $256 -12.993798260062361 $257 12.993798260062361 $165 $258 forward 7 unknown #
coedge $-1 $100 $99 $248 $259 reversed $39 $-1 #
coedge $-1 $251 $260 $99 $169 forward $246 $-1 #
edge $-1 $261 -37.190672219126235 $173 -26.09331736770752 $168 $262 forward 7 unknown #
coedge $-1 $263 $162 $100 $171 forward $96 $-1 #
edge $-1 $172 26.09331736770752 $264 37.190672219126235 $170 $265 forward 7 unknown #
vertex $-1 $171 $266 #
vertex $-1 $169 $267 #
straight-curve $-1 -57.735312161124398 -42.827982687960869 0 0 0 -1 I I #
face $-1 $-1 $187 $23 $-1 $268 forward single #
loop $-1 $-1 $269 $103 #
plane-surface $-1 0 47.005651216350927 0 0 -1 0 0 0 -1 forward_v I I I I #
coedge $-1 $270 $271 $272 $273 reversed $104 $-1 #
coedge $-1 $274 $106 $108 $185 forward $65 $-1 #
coedge $-1 $106 $274 $270 $275 forward $65 $-1 #
coedge $-1 $272 $109 $106 $182 forward $187 $-1 #
edge $-1 $189 -35.268962861350225 $276 -9.6637357381981346 $181 $277 forward 7 unknown #
coedge $-1 $278 $279 $107 $184 forward $176 $-1 #
edge $-1 $280 -78.400403232424878 $188 -74.966699166571772 $183 $281 forward 7 unknown #
edge $-1 $189 88.434042590389197 $280 94.011302432701854 $108 $282 forward 7 unknown #
coedge $-1 $109 $272 $278 $283 forward $187 $-1 #
loop $-1 $-1 $272 $175 #
vertex $-1 $184 $284 #
vertex $-1 $110 $285 #
straight-curve $-1 -57.735312161124405 28.839489107924052 12.993798260062363 0 -1 0 I I #
coedge $-1 $191 $191 $-1 $286 reversed $113 $-1 #
edge $-1 $287 0 $287 6.2831853071796004 $114 $288 forward 7 unknown #
vertex $-1 $117 $289 #
ellipse-curve $-1 -44.93269859954836 44.808180867471499 11.276946227135811 0 0.61566148304635926 0.78801074757464917 1 0 0 1 I I #
face $-1 $-1 $290 $25 $-1 $291 reversed single #
loop $-1 $-1 $124 $118 #
plane-surface $-1 0 0 12.993798260062361 0 0 1 1 0 0 forward_v I I I I #
coedge $-1 $292 $293 $294 $295 reversed $119 $-1 #
coedge $-1 $296 $121 $123 $205 forward $74 $-1 #
coedge $-1 $121 $296 $292 $297 forward $74 $-1 #
coedge $-1 $294 $124 $121 $202 forward $196 $-1 #
edge $-1 $208 -9.0556008185093795 $298 20.274008931042761 $201 $299 forward 7 unknown #
coedge $-1 $300 $301 $122 $204 forward $290 $-1 #
edge $-1 $302 -31.067867217020602 $207 -22.679810938988965 $203 $303 forward 7 unknown #
edge $-1 $208 -9.5905181834265036 $302 2.9417291209212814e-014 $123 $304 forward 7 unknown #
coedge $-1 $124 $294 $300 $305 forward $196 $-1 #
vertex $-1 $125 $306 #
vertex $-1 $125 $307 #
straight-curve $-1 3.4463967622426885 -83.70523319716122 12.993798260062363 0 1 0 I I #
coedge $-1 $210 $210 $-1 $308 reversed $128 $-1 #
edge $-1 $309 0 $309 6.2831853071796004 $129 $310 forward 7 unknown #
vertex $-1 $132 $311 #
ellipse-curve $-1 -17.503324487437418 -44.680863543077891 8.7997701210465493 0 -0.87461971476443456 0.48480960649040278 1 0 0 1 I I #
coedge $-1 $214 $214 $-1 $312 reversed $135 $-1 #
edge $-1 $313 0 $313 6.2831853071796004 $136 $314 forward 7 unknown #
vertex $-1 $139 $315 #
ellipse-curve $-1 -4.9334917376293532 -44.680863543077891 8.7997701210465493 0 -0.87461971476443456 0.48480960649040278 1 0 0 1 I I #
face $-1 $-1 $155 $21 $-1 $316 reversed single #
loop $-1 $-1 $234 $140 #
plane-surface $-1 0 47.005651216350927 0 0 -1 0 0 0 -1 forward_v I I I I #
coedge $-1 $317 $232 $235 $318 forward $141 $-1 #
coedge $-1 $238 $143 $144 $226 reversed $88 $-1 #
coedge $-1 $232 $317 $143 $224 reversed $141 $-1 #
edge $-1 $239 -12.993798260062361 $319 12.993798260062361 $223 $320 forward 7 unknown #
coedge $-1 $145 $144 $317 $321 forward $57 $-1 #
edge $-1 $230 -68.832667012543112 $319 68.832667012543112 $222 $322 forward 7 unknown #
coedge $-1 $235 $234 $145 $228 reversed $219 $-1 #
edge $-1 $323 -68.832667012543112 $229 68.832667012543112 $227 $324 forward 7 unknown #
vertex $-1 $147 $325 #
vertex $-1 $241 $326 #
straight-curve $-1 68.832667012543112 0 -12.993798260062361 0 -1 0 I I #
coedge $-1 $221 $223 $148 $233 reversed $141 $-1 #
edge $-1 $236 -47.005651216350927 $239 47.005651216350927 $232 $327 forward 7 unknown #
coedge $-1 $227 $149 $154 $242 forward $219 $-1 #
coedge $-1 $149 $227 $221 $318 reversed $219 $-1 #
vertex $-1 $150 $328 #
straight-curve $-1 0 47.005651216350927 12.993798260062361 -1 0 0 I I #
coedge $-1 $151 $222 $153 $241 reversed $88 $-1 #
vertex $-1 $233 $329 #
straight-curve $-1 0 -47.005651216350927 12.993798260062361 1 0 0 I I #
edge $-1 $156 -12.993798260062361 $230 12.993798260062361 $153 $330 forward 7 unknown #
edge $-1 $157 -12.993798260062361 $229 12.993798260062361 $154 $331 forward 7 unknown #
point $-1 68.832667012543112 -47.005651216350927 12.993798260062361 #
point $-1 68.832667012543112 47.005651216350927 12.993798260062361 #
face $-1 $-1 $255 $22 $-1 $332 reversed single #
loop $-1 $-1 $251 $159 #
plane-surface $-1 0 0 -12.993798260062361 0 0 1 1 0 0 forward_v I I I I #
coedge $-1 $333 $334 $167 $259 forward $160 $-1 #
coedge $-1 $162 $263 $253 $335 forward $96 $-1 #
edge $-1 $257 -24.547242740272978 $172 -20.36957421188292 $162 $336 forward 7 unknown #
coedge $-1 $337 $168 $163 $252 forward $246 $-1 #
edge $-1 $173 20.36957421188292 $256 24.547242740272978 $251 $338 forward 7 unknown #
coedge $-1 $339 $165 $249 $335 reversed $255 $-1 #
coedge $-1 $165 $339 $337 $340 reversed $255 $-1 #
loop $-1 $-1 $165 $245 #
vertex $-1 $340 $341 #
vertex $-1 $166 $342 #
straight-curve $-1 -57.735312161124398 -47.005651216350927 0 0 0 1 I I #
edge $-1 $264 -12.993798260062361 $261 12.993798260062361 $248 $343 forward 7 unknown #
coedge $-1 $168 $337 $333 $344 forward $246 $-1 #
vertex $-1 $169 $345 #
straight-curve $-1 -31.641994793416877 -42.827982687960869 -12.993798260062361 1 0 0 I I #
coedge $-1 $249 $170 $334 $346 forward $96 $-1 #
vertex $-1 $346 $347 #
straight-curve $-1 -31.641994793416877 -42.827982687960869 12.993798260062361 -1 0 0 I I #
point $-1 -57.735312161124398 -42.827982687960869 12.993798260062361 #
point $-1 -57.735312161124398 -42.827982687960869 -12.993798260062361 #
plane-surface $-1 0 0 12.993798260062361 0 0 1 1 0 0 forward_v I I I I #
coedge $-1 $279 $278 $271 $348 forward $176 $-1 #
coedge $-1 $271 $178 $180 $275 reversed $104 $-1 #
coedge $-1 $178 $270 $269 $348 reversed $104 $-1 #
coedge $-1 $186 $181 $178 $273 forward $187 $-1 #
edge $-1 $276 13.771221410668019 $349 18.166162108426875 $272 $350 forward 7 unknown #
coedge $-1 $180 $179 $279 $351 reversed $65 $-1 #
edge $-1 $352 -94.011302432701854 $276 -88.434042590389197 $270 $353 forward 7 unknown #
vertex $-1 $182 $354 #
straight-curve $-1 -22.46634929977418 42.610710518592079 12.993798260062356 1 0 0 I I #
coedge $-1 $269 $183 $186 $283 reversed $176 $-1 #
coedge $-1 $183 $269 $274 $351 forward $176 $-1 #
vertex $-1 $184 $355 #
straight-curve $-1 -57.735312161124405 47.005651216350927 87.960497426634134 0 0 1 I I #
straight-curve $-1 -57.735312161124405 -27.076265494108895 67.439232073046284 0 0.78801074757464917 -0.61566148304635926 I I #
edge $-1 $349 32.130085037972314 $188 57.735312161124405 $278 $356 forward 7 unknown #
point $-1 -57.735312161124405 47.005651216350927 12.993798260062361 #
point $-1 -57.735312161124405 42.610710518592072 12.993798260062363 #
edge $-1 $357 1 $357 0 $191 $-1 forward 7 unknown #
vertex $-1 $192 $358 #
ellipse-curve $-1 -44.93269859954836 43.7584918488445 9.9334055784724349 0 0.61566148304635926 0.78801074757464917 1 0 0 1 I I #
point $-1 -43.93269859954836 44.808180867471506 11.276946227135815 #
loop $-1 $-1 $203 $195 #
plane-surface $-1 0 -47.005651216350927 0 0 1 0 0 0 1 forward_v I I I I #
coedge $-1 $293 $198 $200 $297 reversed $119 $-1 #
coedge $-1 $198 $292 $359 $360 reversed $119 $-1 #
coedge $-1 $206 $201 $198 $295 forward $196 $-1 #
edge $-1 $298 -41.349157327356366 $361 -36.699581980810294 $294 $362 forward 7 unknown #
coedge $-1 $200 $199 $301 $363 reversed $74 $-1 #
edge $-1 $364 -2.9417291209212814e-014 $298 9.5905181834265036 $292 $365 forward 7 unknown #
vertex $-1 $202 $366 #
straight-curve $-1 -5.6092040562666909 -42.356075869804862 12.993798260062361 -1 0 0 I I #
coedge $-1 $359 $203 $206 $305 reversed $290 $-1 #
coedge $-1 $203 $359 $296 $363 forward $290 $-1 #
vertex $-1 $204 $367 #
straight-curve $-1 3.4463967622426885 -47.005651216350927 35.673609199051327 0 0 1 I I #
straight-curve $-1 3.4463967622426885 -47.005651216350913 4.6057419820307501 0 -0.48480960649040278 -0.87461971476443456 I I #
edge $-1 $361 -25.883212987309452 $207 3.4463967622426885 $300 $368 forward 7 unknown #
point $-1 3.4463967622426885 -47.005651216350927 12.993798260062361 #
point $-1 3.4463967622426885 -42.356075869804855 12.993798260062361 #
edge $-1 $369 1 $369 0 $210 $-1 forward 7 unknown #
vertex $-1 $211 $370 #
ellipse-curve $-1 -17.503324487437418 -41.620241729248463 7.1032398094948261 0 -0.87461971476443456 0.48480960649040278 1 0 0 1 I I #
point $-1 -16.503324487437418 -44.680863543077898 8.7997701210465564 #
edge $-1 $371 1 $371 0 $214 $-1 forward 7 unknown #
vertex $-1 $215 $372 #
ellipse-curve $-1 -4.9334917376293532 -41.620241729248463 7.1032398094948261 0 -0.87461971476443456 0.48480960649040278 1 0 0 1 I I #
point $-1 -3.9334917376293532 -44.680863543077898 8.7997701210465564 #
plane-surface $-1 68.832667012543112 0 0 -1 0 0 0 0 1 forward_v I I I I #
coedge $-1 $223 $221 $225 $321 reversed $141 $-1 #
edge $-1 $236 -12.993798260062361 $323 12.993798260062361 $235 $373 forward 7 unknown #
vertex $-1 $321 $374 #
straight-curve $-1 -68.832667012543112 -47.005651216350927 0 0 0 -1 I I #
edge $-1 $319 -47.005651216350927 $323 47.005651216350927 $317 $375 forward 7 unknown #
straight-curve $-1 0 -47.005651216350927 -12.993798260062361 -1 0 0 I I #
vertex $-1 $228 $376 #
straight-curve $-1 0 47.005651216350927 -12.993798260062361 1 0 0 I I #
point $-1 68.832667012543112 47.005651216350927 -12.993798260062361 #
point $-1 68.832667012543112 -47.005651216350927 -12.993798260062361 #
straight-curve $-1 -68.832667012543112 0 12.993798260062361 0 -1 0 I I #
point $-1 -68.832667012543112 47.005651216350927 12.993798260062361 #
point $-1 -68.832667012543112 -47.005651216350927 12.993798260062361 #
straight-curve $-1 68.832667012543112 -47.005651216350927 0 0 0 -1 I I #
straight-curve $-1 68.832667012543112 47.005651216350927 0 0 0 -1 I I #
plane-surface $-1 0 -47.005651216350927 0 0 1 0 0 0 1 forward_v I I I I #
coedge $-1 $377 $248 $260 $344 reversed $160 $-1 #
coedge $-1 $248 $377 $263 $346 reversed $160 $-1 #
edge $-1 $378 -68.832667012543112 $257 -57.735312161124398 $253 $379 forward 7 unknown #
straight-curve $-1 -57.735312161124398 -22.458408476077949 12.993798260062361 0 1 0 I I #
coedge $-1 $260 $251 $254 $340 forward $246 $-1 #
straight-curve $-1 -57.735312161124398 -22.458408476077949 -12.993798260062361 0 -1 0 I I #
coedge $-1 $254 $253 $377 $380 forward $255 $-1 #
edge $-1 $256 57.735312161124398 $381 68.832667012543112 $254 $382 forward 7 unknown #
point $-1 -57.735312161124398 -47.005651216350927 -12.993798260062361 #
point $-1 -57.735312161124398 -47.005651216350927 12.993798260062361 #
straight-curve $-1 -68.832667012543112 -42.827982687960869 0 0 0 -1 I I #
edge $-1 $381 -47.005651216350927 $261 -42.827982687960869 $333 $383 forward 7 unknown #
point $-1 -68.832667012543112 -42.827982687960869 -12.993798260062361 #
edge $-1 $264 42.827982687960869 $378 47.005651216350927 $334 $384 forward 7 unknown #
point $-1 -68.832667012543112 -42.827982687960869 12.993798260062361 #
edge $-1 $349 74.966699166571772 $352 78.400403232424878 $269 $385 forward 7 unknown #
vertex $-1 $283 $386 #
straight-curve $-1 -32.130085037972314 28.839489107924052 12.993798260062363 0 1 0 I I #
edge $-1 $352 9.6637357381981346 $280 35.268962861350225 $279 $387 forward 7 unknown #
vertex $-1 $351 $388 #
straight-curve $-1 -32.130085037972314 -27.076265494108895 67.439232073046284 0 -0.78801074757464917 0.61566148304635926 I I #
point $-1 -32.130085037972314 42.610710518592072 12.993798260062363 #
point $-1 -57.735312161124405 47.005651216350927 9.5600941942092561 #
straight-curve $-1 0 47.005651216350927 12.993798260062361 -1 0 0 I I #
vertex $-1 $286 $389 #
point $-1 -43.93269859954836 43.7584918488445 9.9334055784724349 #
coedge $-1 $301 $300 $293 $360 forward $290 $-1 #
edge $-1 $361 22.679810938988965 $364 31.067867217020602 $359 $390 forward 7 unknown #
vertex $-1 $305 $391 #
straight-curve $-1 -25.883212987309452 -83.70523319716122 12.993798260062363 0 -1 0 I I #
edge $-1 $364 -20.274008931042761 $302 9.0556008185093795 $301 $392 forward 7 unknown #
vertex $-1 $363 $393 #
straight-curve $-1 -25.883212987309452 -47.005651216350913 4.6057419820307501 0 0.48480960649040278 0.87461971476443456 I I #
point $-1 -25.883212987309452 -42.356075869804855 12.993798260062361 #
point $-1 3.4463967622426885 -47.005651216350927 4.6057419820307244 #
straight-curve $-1 0 -47.005651216350927 12.993798260062361 1 0 0 I I #
vertex $-1 $308 $394 #
point $-1 -16.503324487437418 -41.620241729248463 7.1032398094948261 #
vertex $-1 $312 $395 #
point $-1 -3.9334917376293532 -41.620241729248463 7.1032398094948261 #
straight-curve $-1 -68.832667012543112 47.005651216350927 0 0 0 -1 I I #
point $-1 -68.832667012543112 -47.005651216350927 -12.993798260062361 #
straight-curve $-1 -68.832667012543112 0 -12.993798260062361 0 1 0 I I #
point $-1 -68.832667012543112 47.005651216350927 -12.993798260062361 #
coedge $-1 $334 $333 $339 $380 reversed $160 $-1 #
vertex $-1 $346 $396 #
straight-curve $-1 0 -47.005651216350927 12.993798260062361 1 0 0 I I #
edge $-1 $378 -12.993798260062361 $381 12.993798260062361 $377 $397 forward 7 unknown #
vertex $-1 $344 $398 #
straight-curve $-1 0 -47.005651216350927 -12.993798260062361 -1 0 0 I I #
straight-curve $-1 -68.832667012543112 0 -12.993798260062361 0 1 0 I I #
straight-curve $-1 -68.832667012543112 0 12.993798260062361 0 -1 0 I I #
straight-curve $-1 -32.130085037972314 47.005651216350927 87.960497426634134 0 0 -1 I I #
point $-1 -32.130085037972314 47.005651216350927 12.993798260062361 #
straight-curve $-1 -22.46634929977418 47.005651216350927 9.5600941942092597 -1 0 0 I I #
point $-1 -32.130085037972314 47.005651216350927 9.5600941942092561 #
point $-1 -44.93269859954836 43.142830365798147 9.1453948308977857 #
straight-curve $-1 -25.883212987309452 -47.005651216350927 35.673609199051327 0 0 -1 I I #
point $-1 -25.883212987309452 -47.005651216350927 12.993798260062361 #
straight-curve $-1 -5.6092040562666909 -47.005651216350927 4.6057419820307217 1 0 0 I I #
point $-1 -25.883212987309452 -47.005651216350927 4.6057419820307244 #
point $-1 -17.503324487437418 -40.745622014484027 6.6184302030044231 #
point $-1 -4.9334917376293532 -40.745622014484027 6.6184302030044231 #
point $-1 -68.832667012543112 -47.005651216350927 12.993798260062361 #
straight-curve $-1 -68.832667012543112 -47.005651216350927 0 0 0 -1 I I #
point $-1 -68.832667012543112 -47.005651216350927 -12.993798260062361 #
End-of-ACIS-data 