500 0 9 0           
7 Unknown 11 ACIS 5.0 NT 24 Fri Mar 26 14:33:19 1999 
-1 9.9999999999999995e-007 1e-010 
body $-1 $9 $-1 $10 #
body $-1 $11 $-1 $12 #
body $-1 $13 $-1 $14 #
body $-1 $15 $-1 $16 #
body $-1 $17 $-1 $18 #
body $-1 $19 $-1 $20 #
body $-1 $21 $-1 $22 #
body $-1 $23 $-1 $24 #
body $-1 $25 $-1 $26 #
lump $-1 $-1 $27 $0 #
transform $-1 1 0 0 0 1 0 0 0 1 66.523026215399639 27.927814738209239 5.6678966035673524 1 rotate no_reflect no_shear #
lump $-1 $-1 $28 $1 #
transform $-1 1 0 0 0 1 0 0 0 1 66.523026215399639 27.927814738209239 5.6678966035673524 1 rotate no_reflect no_shear #
lump $-1 $-1 $29 $2 #
transform $-1 1 0 0 0 1 0 0 0 1 66.523026215399639 27.927814738209239 5.6678966035673524 1 rotate no_reflect no_shear #
lump $-1 $-1 $30 $3 #
transform $-1 1 0 0 0 1 0 0 0 1 66.523026215399639 27.927814738209239 5.6678966035673524 1 rotate no_reflect no_shear #
lump $-1 $-1 $31 $4 #
transform $-1 1 0 0 0 1 0 0 0 1 66.523026215399639 27.927814738209239 5.6678966035673524 1 rotate no_reflect no_shear #
lump $-1 $-1 $32 $5 #
transform $-1 1 0 0 0 1 0 0 0 1 66.523026215399639 27.927814738209239 5.6678966035673524 1 rotate no_reflect no_shear #
lump $-1 $-1 $33 $6 #
transform $-1 1 0 0 0 1 0 0 0 1 66.523026215399639 27.927814738209239 5.6678966035673524 1 rotate no_reflect no_shear #
lump $-1 $-1 $34 $7 #
transform $-1 1 0 0 0 1 0 0 0 1 66.523026215399639 27.927814738209239 5.6678966035673524 1 rotate no_reflect no_shear #
lump $-1 $-1 $35 $8 #
transform $-1 1 0 0 0 1 0 0 0 1 66.523026215399639 27.927814738209239 5.6678966035673524 1 rotate no_reflect no_shear #
shell $-1 $-1 $-1 $36 $-1 $9 #
shell $-1 $-1 $-1 $37 $-1 $11 #
shell $-1 $-1 $-1 $38 $-1 $13 #
shell $-1 $-1 $-1 $39 $-1 $15 #
shell $-1 $-1 $-1 $40 $-1 $17 #
shell $-1 $-1 $-1 $41 $-1 $19 #
shell $-1 $-1 $-1 $42 $-1 $21 #
shell $-1 $-1 $-1 $43 $-1 $23 #
shell $-1 $-1 $-1 $44 $-1 $25 #
face $-1 $45 $46 $27 $-1 $47 forward single #
face $-1 $48 $49 $28 $-1 $50 reversed single #
face $-1 $51 $52 $29 $-1 $53 reversed single #
face $-1 $54 $55 $30 $-1 $56 reversed single #
face $-1 $57 $58 $31 $-1 $59 forward single #
face $-1 $60 $61 $32 $-1 $62 forward single #
face $-1 $63 $64 $33 $-1 $65 reversed single #
face $-1 $66 $67 $34 $-1 $68 forward single #
face $-1 $69 $70 $35 $-1 $71 forward single #
face $-1 $72 $73 $27 $-1 $74 reversed single #
loop $-1 $-1 $75 $36 #
plane-surface $-1 0 0 5.6678966035673524 0 0 1 1 0 0 forward_v I I I I #
face $-1 $76 $77 $28 $-1 $78 reversed single #
loop $-1 $-1 $79 $37 #
plane-surface $-1 0 -24.956125841759565 2.6678966035673524 0 0 1 1 0 0 forward_v I I I I #
face $-1 $80 $81 $29 $-1 $82 reversed single #
loop $-1 $-1 $83 $38 #
plane-surface $-1 0 24.956125841759569 2.6678966035673524 0 0 1 1 0 0 forward_v I I I I #
face $-1 $84 $85 $30 $-1 $86 reversed single #
loop $-1 $-1 $87 $39 #
plane-surface $-1 -181.74428852282398 -13.078269866274884 68.158838229185491 0 1 0 -0.86602541151947299 0 0.49999998660252726 forward_v I I I I #
face $-1 $88 $89 $31 $-1 $90 forward single #
loop $-1 $91 $92 $40 #
cone-surface $-1 -64.926051504129347 -10.141343670841973 3.4018552066157737 0.86602541151947299 0 -0.49999998660252726 0.24999999330126363 0 0.43301270575973649 1 I I 0 1 0.5 forward I I I I #
face $-1 $93 $94 $32 $-1 $95 forward single #
loop $-1 $96 $97 $41 #
cone-surface $-1 -64.926051504129347 -5.7359543776926039 3.4018552066157737 0.86602541151947299 0 -0.49999998660252726 0.24999999330126363 0 0.43301270575973649 1 I I 0 1 0.5 forward I I I I #
face $-1 $98 $99 $33 $-1 $100 reversed single #
loop $-1 $-1 $101 $42 #
plane-surface $-1 115.2212640899052 -2.7990281822596934 183.38010053660983 0 -1 0 -0.86602541151947299 0 -0.49999998660252726 forward_v I I I I #
face $-1 $102 $103 $34 $-1 $104 forward single #
loop $-1 $105 $106 $43 #
cone-surface $-1 64.926051504129362 -10.141343670841973 3.4018552066157612 -0.86602541151947299 0 -0.49999998660252726 0.24999999330126363 0 -0.43301270575973649 1 I I 0 1 0.5 forward I I I I #
face $-1 $107 $108 $35 $-1 $109 forward single #
loop $-1 $110 $111 $44 #
cone-surface $-1 64.926051504129362 -5.7359543776926039 3.4018552066157612 -0.86602541151947299 0 -0.49999998660252726 0.24999999330126363 0 -0.43301270575973649 1 I I 0 1 0.5 forward I I I I #
face $-1 $112 $113 $27 $-1 $114 reversed single #
loop $-1 $-1 $115 $45 #
plane-surface $-1 0 0 -5.6678966035673524 0 0 1 1 0 0 forward_v I I I I #
coedge $-1 $116 $117 $118 $119 forward $46 $-1 #
face $-1 $120 $121 $28 $-1 $122 reversed single #
loop $-1 $-1 $123 $48 #
plane-surface $-1 0 -21.984436945309895 4.1678966035673524 0 -1 0 0 0 -1 forward_v I I I I #
coedge $-1 $124 $125 $126 $127 reversed $49 $-1 #
face $-1 $128 $129 $29 $-1 $130 forward single #
loop $-1 $-1 $131 $51 #
plane-surface $-1 0 21.984436945309895 4.1678966035673524 0 1 0 0 0 1 forward_v I I I I #
coedge $-1 $132 $133 $134 $135 reversed $52 $-1 #
face $-1 $136 $137 $30 $-1 $138 reversed single #
loop $-1 $-1 $139 $54 #
plane-surface $-1 -66.523026215399653 -7.9386490242672885 1.6358137962667172 -0.86602541151947299 0 0.49999998660252726 0.49999998660252726 0 0.86602541151947299 forward_v I I I I #
coedge $-1 $140 $141 $142 $143 reversed $55 $-1 #
face $-1 $-1 $144 $31 $-1 $145 forward single #
loop $-1 $146 $147 $57 #
cone-surface $-1 -64.27653244548975 -10.141343670841973 3.0268552166638782 0.86602541151947299 0 -0.49999998660252726 0.12499999665063181 0 0.21650635287986825 1 I I -0.70710678118654746 0.70710678118654746 0.25 forward I I I I #
loop $-1 $-1 $148 $40 #
coedge $-1 $92 $92 $149 $150 reversed $58 $-1 #
face $-1 $-1 $151 $32 $-1 $152 forward single #
loop $-1 $153 $154 $60 #
cone-surface $-1 -64.27653244548975 -5.7359543776926039 3.0268552166638782 0.86602541151947299 0 -0.49999998660252726 0.12499999665063181 0 0.21650635287986825 1 I I -0.70710678118654746 0.70710678118654746 0.25 forward I I I I #
loop $-1 $-1 $155 $41 #
coedge $-1 $97 $97 $156 $157 reversed $61 $-1 #
face $-1 $158 $159 $33 $-1 $160 reversed single #
loop $-1 $-1 $161 $63 #
plane-surface $-1 1.7824808793420743e-006 -7.9386490242672885 116.85707610369106 0.86602541151947299 0 0.49999998660252726 0.49999998660252726 0 -0.86602541151947299 forward_v I I I I #
coedge $-1 $162 $163 $164 $165 reversed $64 $-1 #
face $-1 $-1 $166 $34 $-1 $167 forward single #
loop $-1 $168 $169 $66 #
cone-surface $-1 64.276532445489764 -10.141343670841973 3.0268552166638658 -0.86602541151947299 0 -0.49999998660252726 0.12499999665063181 0 -0.21650635287986825 1 I I -0.70710678118654746 0.70710678118654746 0.25 forward I I I I #
loop $-1 $-1 $170 $43 #
coedge $-1 $106 $106 $171 $172 reversed $67 $-1 #
face $-1 $-1 $173 $35 $-1 $174 forward single #
loop $-1 $175 $176 $69 #
cone-surface $-1 64.276532445489764 -5.7359543776926039 3.0268552166638658 -0.86602541151947299 0 -0.49999998660252726 0.12499999665063181 0 -0.21650635287986825 1 I I -0.70710678118654746 0.70710678118654746 0.25 forward I I I I #
loop $-1 $-1 $177 $44 #
coedge $-1 $111 $111 $178 $179 reversed $70 $-1 #
face $-1 $180 $181 $27 $-1 $182 reversed single #
loop $-1 $-1 $183 $72 #
plane-surface $-1 0 -27.927814738209239 0 0 1 0 0 0 1 forward_v I I I I #
coedge $-1 $184 $185 $186 $187 forward $73 $-1 #
coedge $-1 $188 $75 $189 $190 forward $46 $-1 #
coedge $-1 $75 $188 $191 $192 forward $46 $-1 #
coedge $-1 $193 $194 $75 $119 reversed $195 $-1 #
edge $-1 $196 -27.927814738209239 $197 27.927814738209239 $118 $198 forward 7 unknown #
face $-1 $199 $200 $28 $-1 $201 reversed single #
loop $-1 $-1 $202 $76 #
plane-surface $-1 -66.523026215399639 0 0 1 0 0 0 0 -1 forward_v I I I I #
coedge $-1 $203 $204 $205 $206 reversed $77 $-1 #
coedge $-1 $207 $79 $208 $209 reversed $49 $-1 #
coedge $-1 $79 $207 $203 $210 forward $49 $-1 #
coedge $-1 $205 $211 $79 $127 forward $212 $-1 #
edge $-1 $213 -15.449751817329453 $214 -9.5063740244301123 $126 $215 forward 7 unknown #
face $-1 $216 $217 $29 $-1 $218 reversed single #
loop $-1 $-1 $219 $80 #
plane-surface $-1 0 0 5.6678966035673524 0 0 1 1 0 0 forward_v I I I I #
coedge $-1 $220 $221 $222 $223 reversed $81 $-1 #
coedge $-1 $224 $83 $220 $225 forward $52 $-1 #
coedge $-1 $83 $224 $226 $227 reversed $52 $-1 #
coedge $-1 $228 $229 $83 $135 forward $217 $-1 #
edge $-1 $230 9.5063740244301105 $231 15.449751817329458 $134 $232 forward 7 unknown #
face $-1 $233 $234 $30 $-1 $235 reversed single #
loop $-1 $-1 $236 $84 #
plane-surface $-1 -181.74428852282398 -2.7990281822596934 68.158838229185491 0 -1 0 0.86602541151947299 0 -0.49999998660252726 forward_v I I I I #
coedge $-1 $237 $238 $239 $240 reversed $85 $-1 #
coedge $-1 $141 $87 $241 $242 reversed $55 $-1 #
coedge $-1 $87 $140 $237 $243 reversed $55 $-1 #
coedge $-1 $239 $244 $87 $143 forward $245 $-1 #
edge $-1 $246 24.34911804601235 $247 26.677042057033418 $142 $248 forward 7 unknown #
loop $-1 $-1 $149 $88 #
plane-surface $-1 -66.523026215399653 -7.9386490242672885 1.6358137962667172 -0.86602541151947299 0 0.49999998660252726 0.49999998660252726 0 0.86602541151947299 forward_v I I I I #
loop $-1 $-1 $249 $57 #
coedge $-1 $147 $147 $148 $250 reversed $89 $-1 #
coedge $-1 $148 $148 $147 $250 forward $91 $-1 #
coedge $-1 $149 $149 $92 $150 forward $144 $-1 #
edge $-1 $251 0 $251 6.2831853071796004 $149 $252 forward 7 unknown #
loop $-1 $-1 $156 $93 #
plane-surface $-1 -66.523026215399653 -7.9386490242672885 1.6358137962667172 -0.86602541151947299 0 0.49999998660252726 0.49999998660252726 0 0.86602541151947299 forward_v I I I I #
loop $-1 $-1 $253 $60 #
coedge $-1 $154 $154 $155 $254 reversed $94 $-1 #
coedge $-1 $155 $155 $154 $254 forward $96 $-1 #
coedge $-1 $156 $156 $97 $157 forward $151 $-1 #
edge $-1 $255 0 $255 6.2831853071796004 $156 $256 forward 7 unknown #
face $-1 $257 $258 $33 $-1 $259 forward single #
loop $-1 $-1 $260 $98 #
plane-surface $-1 115.2212640899052 -13.078269866274884 183.38010053660983 0 1 0 0.86602541151947299 0 0.49999998660252726 forward_v I I I I #
coedge $-1 $261 $262 $263 $264 reversed $99 $-1 #
coedge $-1 $163 $101 $265 $266 reversed $64 $-1 #
coedge $-1 $101 $162 $261 $267 reversed $64 $-1 #
coedge $-1 $263 $268 $101 $165 forward $258 $-1 #
edge $-1 $269 -8.9123941704470369 $270 -6.5844701594259689 $164 $271 forward 7 unknown #
loop $-1 $-1 $171 $102 #
plane-surface $-1 1.7824808793420743e-006 -7.9386490242672885 116.85707610369106 0.86602541151947299 0 0.49999998660252726 0.49999998660252726 0 -0.86602541151947299 forward_v I I I I #
loop $-1 $-1 $272 $66 #
coedge $-1 $169 $169 $170 $273 reversed $103 $-1 #
coedge $-1 $170 $170 $169 $273 forward $105 $-1 #
coedge $-1 $171 $171 $106 $172 forward $166 $-1 #
edge $-1 $274 0 $274 6.2831853071796004 $171 $275 forward 7 unknown #
loop $-1 $-1 $178 $107 #
plane-surface $-1 1.7824808793420743e-006 -7.9386490242672885 116.85707610369106 0.86602541151947299 0 0.49999998660252726 0.49999998660252726 0 -0.86602541151947299 forward_v I I I I #
loop $-1 $-1 $276 $69 #
coedge $-1 $176 $176 $177 $277 reversed $108 $-1 #
coedge $-1 $177 $177 $176 $277 forward $110 $-1 #
coedge $-1 $178 $178 $111 $179 forward $173 $-1 #
edge $-1 $278 0 $278 6.2831853071796004 $178 $279 forward 7 unknown #
face $-1 $280 $281 $27 $-1 $282 reversed single #
loop $-1 $-1 $283 $112 #
plane-surface $-1 -66.523026215399639 0 0 1 0 0 0 0 -1 forward_v I I I I #
coedge $-1 $284 $191 $285 $286 forward $113 $-1 #
coedge $-1 $287 $115 $284 $288 forward $73 $-1 #
coedge $-1 $115 $287 $289 $290 forward $73 $-1 #
coedge $-1 $194 $193 $115 $187 reversed $195 $-1 #
edge $-1 $291 -27.927814738209239 $292 27.927814738209239 $186 $293 forward 7 unknown #
coedge $-1 $117 $116 $294 $295 forward $46 $-1 #
coedge $-1 $296 $297 $116 $190 reversed $281 $-1 #
edge $-1 $197 -66.523026215399639 $298 66.523026215399639 $189 $299 forward 7 unknown #
coedge $-1 $183 $300 $117 $192 reversed $113 $-1 #
edge $-1 $301 -66.523026215399639 $196 66.523026215399639 $191 $302 forward 7 unknown #
coedge $-1 $186 $118 $300 $303 forward $195 $-1 #
coedge $-1 $118 $186 $296 $304 reversed $195 $-1 #
loop $-1 $-1 $193 $280 #
vertex $-1 $119 $305 #
vertex $-1 $119 $306 #
straight-curve $-1 66.523026215399639 0 5.6678966035673524 0 1 0 I I #
face $-1 $307 $308 $28 $-1 $309 forward single #
loop $-1 $-1 $208 $120 #
plane-surface $-1 0 -27.927814738209239 0 0 1 0 0 0 1 forward_v I I I I #
coedge $-1 $310 $311 $312 $313 forward $121 $-1 #
coedge $-1 $312 $123 $125 $210 reversed $77 $-1 #
coedge $-1 $123 $312 $314 $315 reversed $77 $-1 #
coedge $-1 $316 $126 $123 $206 forward $212 $-1 #
edge $-1 $214 0.58394830178367618 $317 3.5839483017836762 $205 $318 forward 7 unknown #
coedge $-1 $125 $124 $310 $319 reversed $49 $-1 #
coedge $-1 $320 $321 $124 $209 forward $200 $-1 #
edge $-1 $322 -66.523026215399639 $213 66.523026215399639 $208 $323 forward 7 unknown #
edge $-1 $324 -66.523026215399639 $214 66.523026215399639 $203 $325 forward 7 unknown #
coedge $-1 $126 $316 $320 $326 forward $212 $-1 #
loop $-1 $-1 $205 $307 #
vertex $-1 $209 $327 #
vertex $-1 $127 $328 #
straight-curve $-1 66.523026215399639 -12.478062920879783 2.6678966035673524 0 1 0 I I #
face $-1 $329 $330 $29 $-1 $331 reversed single #
loop $-1 $-1 $229 $128 #
plane-surface $-1 66.523026215399639 0 0 -1 0 0 0 0 1 forward_v I I I I #
coedge $-1 $332 $333 $221 $334 forward $129 $-1 #
coedge $-1 $335 $131 $132 $225 reversed $81 $-1 #
coedge $-1 $131 $335 $219 $334 reversed $81 $-1 #
coedge $-1 $336 $337 $131 $223 forward $330 $-1 #
edge $-1 $338 0.58394830178367618 $339 3.5839483017836762 $222 $340 forward 7 unknown #
coedge $-1 $133 $132 $337 $341 reversed $52 $-1 #
edge $-1 $230 -66.523026215399639 $338 66.523026215399639 $220 $342 forward 7 unknown #
coedge $-1 $343 $344 $133 $227 forward $345 $-1 #
edge $-1 $231 -66.523026215399639 $346 66.523026215399639 $226 $347 forward 7 unknown #
coedge $-1 $348 $134 $344 $349 reversed $217 $-1 #
coedge $-1 $134 $348 $335 $350 forward $217 $-1 #
vertex $-1 $135 $351 #
vertex $-1 $227 $352 #
straight-curve $-1 66.523026215399639 12.478062920879784 2.6678966035673524 0 1 0 I I #
face $-1 $-1 $245 $30 $-1 $353 forward single #
loop $-1 $-1 $354 $136 #
plane-surface $-1 -66.523026215399639 0 0 1 0 0 0 0 -1 forward_v I I I I #
coedge $-1 $355 $356 $357 $358 reversed $137 $-1 #
coedge $-1 $359 $139 $141 $243 forward $85 $-1 #
coedge $-1 $139 $359 $355 $360 forward $85 $-1 #
coedge $-1 $357 $142 $139 $240 forward $245 $-1 #
edge $-1 $247 -9.1089453541412393 $361 1.1702963298739508 $239 $362 forward 7 unknown #
coedge $-1 $363 $364 $140 $242 forward $234 $-1 #
edge $-1 $365 -32.443605318326007 $246 -28.411522511025392 $241 $366 forward 7 unknown #
edge $-1 $247 -4.6558481467953667 $365 -2.8450313176714033e-014 $141 $367 forward 7 unknown #
coedge $-1 $142 $357 $363 $368 forward $245 $-1 #
loop $-1 $-1 $357 $233 #
vertex $-1 $242 $369 #
vertex $-1 $143 $370 #
straight-curve $-1 -90.872144261411989 -13.078269866274884 5.6678966035673533 1 0 0 I I #
coedge $-1 $249 $249 $-1 $371 reversed $146 $-1 #
edge $-1 $372 0 $372 6.2831853071796004 $147 $373 forward 7 unknown #
vertex $-1 $150 $374 #
ellipse-curve $-1 -65.359064209889098 -10.141343670841973 3.6518551999170481 -0.86602541151947299 0 0.49999998660252726 0.24999999330126363 0 0.43301270575973649 1 I I #
coedge $-1 $253 $253 $-1 $375 reversed $153 $-1 #
edge $-1 $376 0 $376 6.2831853071796004 $154 $377 forward 7 unknown #
vertex $-1 $157 $378 #
ellipse-curve $-1 -65.359064209889098 -5.7359543776926039 3.6518551999170481 -0.86602541151947299 0 0.49999998660252726 0.24999999330126363 0 0.43301270575973649 1 I I #
face $-1 $-1 $379 $33 $-1 $380 reversed single #
loop $-1 $-1 $164 $158 #
plane-surface $-1 0 0 5.6678966035673524 0 0 1 1 0 0 forward_v I I I I #
coedge $-1 $381 $382 $383 $384 reversed $159 $-1 #
coedge $-1 $385 $161 $163 $267 forward $99 $-1 #
coedge $-1 $161 $385 $381 $386 forward $99 $-1 #
coedge $-1 $383 $164 $161 $264 forward $258 $-1 #
edge $-1 $270 -1.1702963298739508 $387 9.1089453541412393 $263 $388 forward 7 unknown #
coedge $-1 $389 $390 $162 $266 forward $379 $-1 #
edge $-1 $391 -90.054236472038156 $269 -86.022153664737559 $265 $392 forward 7 unknown #
edge $-1 $270 128.39020428400391 $391 133.04605243079925 $163 $393 forward 7 unknown #
coedge $-1 $164 $383 $389 $394 forward $258 $-1 #
vertex $-1 $266 $395 #
vertex $-1 $165 $396 #
straight-curve $-1 57.610632044952602 -2.7990281822596934 5.6678966035673568 -1 0 0 I I #
coedge $-1 $272 $272 $-1 $397 reversed $168 $-1 #
edge $-1 $398 0 $398 6.2831853071796004 $169 $399 forward 7 unknown #
vertex $-1 $172 $400 #
ellipse-curve $-1 65.359064209889127 -10.141343670841973 3.6518551999170392 0.86602541151947299 0 0.49999998660252726 0.24999999330126363 0 -0.43301270575973649 1 I I #
coedge $-1 $276 $276 $-1 $401 reversed $175 $-1 #
edge $-1 $402 0 $402 6.2831853071796004 $176 $403 forward 7 unknown #
vertex $-1 $179 $404 #
ellipse-curve $-1 65.359064209889127 -5.7359543776926039 3.6518551999170392 0.86602541151947299 0 0.49999998660252726 0.24999999330126363 0 -0.43301270575973649 1 I I #
face $-1 $-1 $195 $27 $-1 $405 reversed single #
loop $-1 $-1 $296 $180 #
plane-surface $-1 0 27.927814738209239 0 0 -1 0 0 0 -1 forward_v I I I I #
coedge $-1 $406 $294 $297 $407 forward $181 $-1 #
coedge $-1 $300 $183 $184 $288 reversed $113 $-1 #
coedge $-1 $294 $406 $183 $286 reversed $181 $-1 #
edge $-1 $301 -5.6678966035673524 $408 5.6678966035673524 $285 $409 forward 7 unknown #
coedge $-1 $185 $184 $406 $410 forward $73 $-1 #
edge $-1 $292 -66.523026215399639 $408 66.523026215399639 $284 $411 forward 7 unknown #
coedge $-1 $297 $296 $185 $290 reversed $281 $-1 #
edge $-1 $412 -66.523026215399639 $291 66.523026215399639 $289 $413 forward 7 unknown #
vertex $-1 $187 $414 #
vertex $-1 $303 $415 #
straight-curve $-1 66.523026215399639 0 -5.6678966035673524 0 -1 0 I I #
coedge $-1 $283 $285 $188 $295 reversed $181 $-1 #
edge $-1 $298 -27.927814738209239 $301 27.927814738209239 $294 $416 forward 7 unknown #
coedge $-1 $289 $189 $194 $304 forward $281 $-1 #
coedge $-1 $189 $289 $283 $407 reversed $281 $-1 #
vertex $-1 $190 $417 #
straight-curve $-1 0 27.927814738209239 5.6678966035673524 -1 0 0 I I #
coedge $-1 $191 $284 $193 $303 reversed $113 $-1 #
vertex $-1 $295 $418 #
straight-curve $-1 0 -27.927814738209239 5.6678966035673524 1 0 0 I I #
edge $-1 $196 -5.6678966035673524 $292 5.6678966035673524 $193 $419 forward 7 unknown #
edge $-1 $197 -5.6678966035673524 $291 5.6678966035673524 $194 $420 forward 7 unknown #
point $-1 66.523026215399639 -27.927814738209239 5.6678966035673524 #
point $-1 66.523026215399639 27.927814738209239 5.6678966035673524 #
face $-1 $-1 $212 $28 $-1 $421 reversed single #
loop $-1 $-1 $314 $199 #
plane-surface $-1 0 0 5.6678966035673524 0 0 1 1 0 0 forward_v I I I I #
coedge $-1 $422 $202 $207 $319 forward $121 $-1 #
coedge $-1 $202 $422 $423 $424 reversed $121 $-1 #
coedge $-1 $204 $203 $202 $313 reversed $77 $-1 #
edge $-1 $425 -3.5839483017836762 $324 -0.58394830178367618 $202 $426 forward 7 unknown #
coedge $-1 $423 $427 $204 $315 forward $308 $-1 #
edge $-1 $317 -66.523026215399639 $425 66.523026215399639 $314 $428 forward 7 unknown #
coedge $-1 $211 $205 $427 $429 reversed $212 $-1 #
vertex $-1 $206 $430 #
straight-curve $-1 66.523026215399639 -21.984436945309895 2.0839483017836762 0 0 1 I I #
edge $-1 $324 9.5063740244301123 $322 15.449751817329453 $310 $431 forward 7 unknown #
coedge $-1 $432 $208 $211 $326 reversed $200 $-1 #
coedge $-1 $208 $432 $422 $433 forward $200 $-1 #
vertex $-1 $209 $434 #
straight-curve $-1 0 -27.927814738209239 2.6678966035673524 1 0 0 I I #
vertex $-1 $319 $435 #
straight-curve $-1 0 -21.984436945309895 2.6678966035673524 1 0 0 I I #
edge $-1 $436 -5.6678966035673524 $213 -2.6678966035673524 $211 $437 forward 7 unknown #
point $-1 66.523026215399639 -27.927814738209236 2.6678966035673524 #
point $-1 66.523026215399639 -21.984436945309895 2.6678966035673524 #
face $-1 $-1 $345 $29 $-1 $438 reversed single #
loop $-1 $-1 $222 $216 #
plane-surface $-1 -66.523026215399639 0 0 1 0 0 0 0 -1 forward_v I I I I #
coedge $-1 $439 $219 $348 $440 forward $129 $-1 #
coedge $-1 $219 $439 $336 $441 forward $129 $-1 #
edge $-1 $339 -66.523026215399639 $442 66.523026215399639 $219 $443 forward 7 unknown #
coedge $-1 $221 $220 $229 $350 reversed $81 $-1 #
coedge $-1 $444 $222 $333 $441 reversed $330 $-1 #
coedge $-1 $222 $444 $224 $341 forward $330 $-1 #
vertex $-1 $341 $445 #
vertex $-1 $223 $446 #
straight-curve $-1 -66.523026215399639 21.984436945309895 2.0839483017836762 0 0 1 I I #
edge $-1 $346 -15.449751817329458 $338 -9.5063740244301105 $337 $447 forward 7 unknown #
straight-curve $-1 0 21.984436945309895 2.6678966035673524 -1 0 0 I I #
coedge $-1 $448 $226 $444 $449 reversed $345 $-1 #
coedge $-1 $226 $448 $228 $349 forward $345 $-1 #
loop $-1 $-1 $226 $329 #
vertex $-1 $227 $450 #
straight-curve $-1 0 27.927814738209239 2.6678966035673524 -1 0 0 I I #
coedge $-1 $229 $228 $332 $440 reversed $217 $-1 #
edge $-1 $451 -5.6678966035673524 $231 -2.6678966035673524 $228 $452 forward 7 unknown #
edge $-1 $442 -3.5839483017836762 $230 -0.58394830178367618 $229 $453 forward 7 unknown #
point $-1 66.523026215399639 21.984436945309895 2.6678966035673524 #
point $-1 66.523026215399639 27.927814738209243 2.6678966035673524 #
plane-surface $-1 0 0 5.6678966035673524 0 0 1 1 0 0 forward_v I I I I #
coedge $-1 $364 $363 $356 $454 forward $234 $-1 #
coedge $-1 $356 $236 $238 $360 reversed $137 $-1 #
coedge $-1 $236 $355 $354 $454 reversed $137 $-1 #
coedge $-1 $244 $239 $236 $358 forward $245 $-1 #
edge $-1 $361 -26.677042057033418 $455 -24.34911804601235 $357 $456 forward 7 unknown #
coedge $-1 $238 $237 $364 $457 reversed $85 $-1 #
edge $-1 $458 2.8450313176714033e-014 $361 4.6558481467953667 $355 $459 forward 7 unknown #
vertex $-1 $240 $460 #
straight-curve $-1 -64.195102204378571 -3.9693245121336442 5.6678966035673515 0 1 0 I I #
coedge $-1 $354 $241 $244 $368 reversed $234 $-1 #
coedge $-1 $241 $354 $359 $457 forward $234 $-1 #
vertex $-1 $242 $461 #
straight-curve $-1 -66.523026215399639 -13.078269866274884 34.079419114592746 0 0 1 I I #
straight-curve $-1 -66.523026215399653 -13.078269866274884 1.6358137962667172 -0.49999998660252726 0 -0.86602541151947299 I I #
edge $-1 $455 2.7990281822596934 $246 13.078269866274884 $363 $462 forward 7 unknown #
point $-1 -66.523026215399639 -13.078269866274884 5.6678966035673524 #
point $-1 -64.195102204378571 -13.078269866274884 5.6678966035673524 #
edge $-1 $463 1 $463 0 $249 $-1 forward 7 unknown #
vertex $-1 $250 $464 #
ellipse-curve $-1 -64.493038798369611 -10.141343670841973 3.1518552133145099 -0.86602541151947299 0 0.49999998660252726 0.24999999330126363 0 0.43301270575973649 1 I I #
point $-1 -65.109064216587825 -10.141343670841973 4.0848679056767736 #
edge $-1 $465 1 $465 0 $253 $-1 forward 7 unknown #
vertex $-1 $254 $466 #
ellipse-curve $-1 -64.493038798369611 -5.7359543776926039 3.1518552133145099 -0.86602541151947299 0 0.49999998660252726 0.24999999330126363 0 0.43301270575973649 1 I I #
point $-1 -65.109064216587825 -5.7359543776926039 4.0848679056767736 #
loop $-1 $-1 $265 $257 #
plane-surface $-1 66.523026215399639 0 0 -1 0 0 0 0 1 forward_v I I I I #
coedge $-1 $382 $260 $262 $386 reversed $159 $-1 #
coedge $-1 $260 $381 $467 $468 reversed $159 $-1 #
coedge $-1 $268 $263 $260 $384 forward $258 $-1 #
edge $-1 $387 6.5844701594259689 $469 8.9123941704470369 $383 $470 forward 7 unknown #
coedge $-1 $262 $261 $390 $471 reversed $99 $-1 #
edge $-1 $472 -133.04605243079925 $387 -128.39020428400391 $381 $473 forward 7 unknown #
vertex $-1 $264 $474 #
straight-curve $-1 64.195102204378571 -3.9693245121336442 5.6678966035673568 0 -1 0 I I #
coedge $-1 $467 $265 $268 $394 reversed $379 $-1 #
coedge $-1 $265 $467 $385 $471 forward $379 $-1 #
vertex $-1 $266 $475 #
straight-curve $-1 66.523026215399639 -2.7990281822596934 91.690050268304915 0 0 1 I I #
straight-curve $-1 1.7824808793420743e-006 -2.7990281822596934 116.85707610369106 0.49999998660252726 0 -0.86602541151947299 I I #
edge $-1 $469 -13.078269866274884 $269 -2.7990281822596934 $389 $476 forward 7 unknown #
point $-1 66.523026215399639 -2.7990281822596934 5.6678966035673524 #
point $-1 64.195102204378571 -2.7990281822596934 5.6678966035673568 #
edge $-1 $477 1 $477 0 $272 $-1 forward 7 unknown #
vertex $-1 $273 $478 #
ellipse-curve $-1 64.493038798369625 -10.141343670841973 3.1518552133144975 0.86602541151947299 0 0.49999998660252726 0.24999999330126363 0 -0.43301270575973649 1 I I #
point $-1 65.609064203190371 -10.141343670841973 3.2188424941572884 #
edge $-1 $479 1 $479 0 $276 $-1 forward 7 unknown #
vertex $-1 $277 $480 #
ellipse-curve $-1 64.493038798369625 -5.7359543776926039 3.1518552133144975 0.86602541151947299 0 0.49999998660252726 0.24999999330126363 0 -0.43301270575973649 1 I I #
point $-1 65.609064203190371 -5.7359543776926039 3.2188424941572884 #
plane-surface $-1 66.523026215399639 0 0 -1 0 0 0 0 1 forward_v I I I I #
coedge $-1 $285 $283 $287 $410 reversed $181 $-1 #
edge $-1 $298 -5.6678966035673524 $412 5.6678966035673524 $297 $481 forward 7 unknown #
vertex $-1 $410 $482 #
straight-curve $-1 -66.523026215399639 -27.927814738209239 0 0 0 -1 I I #
edge $-1 $408 -27.927814738209239 $412 27.927814738209239 $406 $483 forward 7 unknown #
straight-curve $-1 0 -27.927814738209239 -5.6678966035673524 -1 0 0 I I #
vertex $-1 $290 $484 #
straight-curve $-1 0 27.927814738209239 -5.6678966035673524 1 0 0 I I #
point $-1 66.523026215399639 27.927814738209239 -5.6678966035673524 #
point $-1 66.523026215399639 -27.927814738209239 -5.6678966035673524 #
straight-curve $-1 -66.523026215399639 0 5.6678966035673524 0 -1 0 I I #
point $-1 -66.523026215399639 27.927814738209239 5.6678966035673524 #
point $-1 -66.523026215399639 -27.927814738209239 5.6678966035673524 #
straight-curve $-1 66.523026215399639 -27.927814738209239 0 0 0 -1 I I #
straight-curve $-1 66.523026215399639 27.927814738209239 0 0 0 -1 I I #
plane-surface $-1 66.523026215399639 0 0 -1 0 0 0 0 1 forward_v I I I I #
coedge $-1 $311 $310 $321 $433 reversed $121 $-1 #
coedge $-1 $485 $314 $311 $424 forward $308 $-1 #
edge $-1 $425 21.984436945309895 $486 27.927814738209239 $311 $487 forward 7 unknown #
vertex $-1 $424 $488 #
straight-curve $-1 -66.523026215399639 -21.984436945309895 2.0839483017836762 0 0 -1 I I #
coedge $-1 $314 $485 $316 $429 forward $308 $-1 #
straight-curve $-1 0 -21.984436945309895 5.6678966035673524 -1 0 0 I I #
edge $-1 $436 -27.927814738209239 $317 -21.984436945309895 $316 $489 forward 7 unknown #
point $-1 66.523026215399639 -21.984436945309895 5.6678966035673524 #
straight-curve $-1 -66.523026215399639 -12.478062920879783 2.6678966035673524 0 -1 0 I I #
coedge $-1 $321 $320 $485 $490 reversed $200 $-1 #
edge $-1 $486 -5.6678966035673524 $322 -2.6678966035673524 $422 $491 forward 7 unknown #
point $-1 -66.523026215399639 -27.927814738209236 2.6678966035673524 #
point $-1 -66.523026215399639 -21.984436945309895 2.6678966035673524 #
vertex $-1 $429 $492 #
straight-curve $-1 66.523026215399639 -27.927814738209239 0 0 0 -1 I I #
plane-surface $-1 0 27.927814738209239 0 0 -1 0 0 0 -1 forward_v I I I I #
coedge $-1 $333 $332 $448 $493 forward $129 $-1 #
edge $-1 $442 21.984436945309895 $451 27.927814738209239 $348 $494 forward 7 unknown #
edge $-1 $495 -27.927814738209239 $339 -21.984436945309895 $336 $496 forward 7 unknown #
vertex $-1 $440 $497 #
straight-curve $-1 0 21.984436945309895 5.6678966035673524 1 0 0 I I #
coedge $-1 $337 $336 $343 $449 forward $330 $-1 #
point $-1 -66.523026215399639 21.984436945309895 2.6678966035673524 #
point $-1 -66.523026215399639 21.984436945309895 5.6678966035673524 #
straight-curve $-1 -66.523026215399639 12.478062920879784 2.6678966035673524 0 -1 0 I I #
coedge $-1 $344 $343 $439 $493 reversed $345 $-1 #
edge $-1 $495 -5.6678966035673524 $346 -2.6678966035673524 $343 $498 forward 7 unknown #
point $-1 -66.523026215399639 27.927814738209243 2.6678966035673524 #
vertex $-1 $440 $499 #
straight-curve $-1 66.523026215399639 27.927814738209239 0 0 0 -1 I I #
straight-curve $-1 66.523026215399639 21.984436945309895 2.0839483017836762 0 0 -1 I I #
edge $-1 $455 28.411522511025392 $458 32.443605318326007 $354 $500 forward 7 unknown #
vertex $-1 $368 $501 #
straight-curve $-1 -90.872144261411989 -2.7990281822596934 5.6678966035673533 -1 0 0 I I #
edge $-1 $458 -1.1702963298739508 $365 9.1089453541412393 $364 $502 forward 7 unknown #
vertex $-1 $457 $503 #
straight-curve $-1 -66.523026215399653 -2.7990281822596934 1.6358137962667172 0.49999998660252726 0 0.86602541151947299 I I #
point $-1 -64.195102204378571 -2.7990281822596934 5.6678966035673524 #
point $-1 -66.523026215399639 -13.078269866274884 1.6358137962667418 #
straight-curve $-1 -66.523026215399639 0 5.6678966035673524 0 -1 0 I I #
vertex $-1 $371 $504 #
point $-1 -64.243038805068352 -10.141343670841973 3.5848679190742465 #
vertex $-1 $375 $505 #
point $-1 -64.243038805068352 -5.7359543776926039 3.5848679190742465 #
coedge $-1 $390 $389 $382 $468 forward $379 $-1 #
edge $-1 $469 86.022153664737559 $472 90.054236472038156 $467 $506 forward 7 unknown #
vertex $-1 $394 $507 #
straight-curve $-1 57.610632044952602 -13.078269866274884 5.6678966035673568 1 0 0 I I #
edge $-1 $472 -9.1089453541412393 $391 1.1702963298739508 $390 $508 forward 7 unknown #
vertex $-1 $471 $509 #
straight-curve $-1 1.7824808793420743e-006 -13.078269866274884 116.85707610369106 -0.49999998660252726 0 0.86602541151947299 I I #
point $-1 64.195102204378571 -13.078269866274884 5.6678966035673568 #
point $-1 66.523026215399639 -2.7990281822596934 1.6358137962667598 #
straight-curve $-1 66.523026215399639 0 5.6678966035673524 0 1 0 I I #
vertex $-1 $397 $510 #
point $-1 64.743038791670898 -10.141343670841973 2.7188425075547613 #
vertex $-1 $401 $511 #
point $-1 64.743038791670898 -5.7359543776926039 2.7188425075547613 #
straight-curve $-1 -66.523026215399639 27.927814738209239 0 0 0 -1 I I #
point $-1 -66.523026215399639 -27.927814738209239 -5.6678966035673524 #
straight-curve $-1 -66.523026215399639 0 -5.6678966035673524 0 1 0 I I #
point $-1 -66.523026215399639 27.927814738209239 -5.6678966035673524 #
coedge $-1 $427 $423 $432 $490 forward $308 $-1 #
vertex $-1 $424 $512 #
straight-curve $-1 -66.523026215399639 0 5.6678966035673524 0 -1 0 I I #
point $-1 -66.523026215399639 -21.984436945309895 5.6678966035673524 #
straight-curve $-1 66.523026215399639 0 5.6678966035673524 0 1 0 I I #
edge $-1 $486 -66.523026215399639 $436 66.523026215399639 $432 $513 forward 7 unknown #
straight-curve $-1 -66.523026215399639 -27.927814738209239 0 0 0 -1 I I #
point $-1 66.523026215399639 -27.927814738209239 5.6678966035673524 #
edge $-1 $451 -66.523026215399639 $495 66.523026215399639 $448 $514 forward 7 unknown #
straight-curve $-1 66.523026215399639 0 5.6678966035673524 0 1 0 I I #
vertex $-1 $493 $515 #
straight-curve $-1 -66.523026215399639 0 5.6678966035673524 0 -1 0 I I #
point $-1 66.523026215399639 21.984436945309895 5.6678966035673524 #
straight-curve $-1 -66.523026215399639 27.927814738209239 0 0 0 -1 I I #
point $-1 66.523026215399639 27.927814738209239 5.6678966035673524 #
straight-curve $-1 -66.523026215399639 -2.7990281822596934 34.079419114592746 0 0 -1 I I #
point $-1 -66.523026215399639 -2.7990281822596934 5.6678966035673524 #
straight-curve $-1 -66.523026215399639 -3.9693245121336442 1.6358137962667656 0 -1 0 I I #
point $-1 -66.523026215399639 -2.7990281822596934 1.6358137962667418 #
point $-1 -64.060026092609888 -10.141343670841973 2.9018552200132466 #
point $-1 -64.060026092609888 -5.7359543776926039 2.9018552200132466 #
straight-curve $-1 66.523026215399639 -13.078269866274884 91.690050268304915 0 0 -1 I I #
point $-1 66.523026215399639 -13.078269866274884 5.6678966035673524 #
straight-curve $-1 66.523026215399639 -3.9693245121336442 1.6358137962667598 0 1 0 I I #
point $-1 66.523026215399639 -13.078269866274884 1.6358137962667598 #
point $-1 64.060026092609903 -10.141343670841973 2.9018552200132341 #
point $-1 64.060026092609903 -5.7359543776926039 2.9018552200132341 #
point $-1 -66.523026215399639 -27.927814738209239 5.6678966035673524 #
straight-curve $-1 0 -27.927814738209239 5.6678966035673524 1 0 0 I I #
straight-curve $-1 0 27.927814738209239 5.6678966035673524 -1 0 0 I I #
point $-1 -66.523026215399639 27.927814738209239 5.6678966035673524 #
End-of-ACIS-data 