500 0 5 0           
7 Unknown 11 ACIS 5.0 NT 24 Fri Mar 26 19:55:19 1999 
-1 9.9999999999999995e-007 1e-010 
body $-1 $5 $-1 $6 #
body $-1 $7 $-1 $8 #
body $-1 $9 $-1 $10 #
body $-1 $11 $-1 $12 #
body $-1 $13 $-1 $14 #
lump $-1 $-1 $15 $0 #
transform $-1 1 0 0 0 1 0 0 0 1 78.660847804193239 38.018729598675151 15.357979501720134 1 rotate no_reflect no_shear #
lump $-1 $-1 $16 $1 #
transform $-1 1 0 0 0 1 0 0 0 1 78.660847804193239 38.018729598675151 15.357979501720134 1 rotate no_reflect no_shear #
lump $-1 $-1 $17 $2 #
transform $-1 1 0 0 0 1 0 0 0 1 78.660847804193239 38.018729598675151 15.357979501720134 1 rotate no_reflect no_shear #
lump $-1 $-1 $18 $3 #
transform $-1 1 0 0 0 1 0 0 0 1 78.660847804193239 38.018729598675151 15.357979501720134 1 rotate no_reflect no_shear #
lump $-1 $-1 $19 $4 #
transform $-1 1 0 0 0 1 0 0 0 1 78.660847804193239 38.018729598675151 15.357979501720134 1 rotate no_reflect no_shear #
shell $-1 $-1 $-1 $20 $-1 $5 #
shell $-1 $-1 $-1 $21 $-1 $7 #
shell $-1 $-1 $-1 $22 $-1 $9 #
shell $-1 $-1 $-1 $23 $-1 $11 #
shell $-1 $-1 $-1 $24 $-1 $13 #
face $-1 $25 $26 $15 $-1 $27 forward single #
face $-1 $28 $29 $16 $-1 $30 forward single #
face $-1 $31 $32 $17 $-1 $33 reversed single #
face $-1 $34 $35 $18 $-1 $36 forward single #
face $-1 $37 $38 $19 $-1 $39 forward single #
face $-1 $40 $41 $15 $-1 $42 reversed single #
loop $-1 $-1 $43 $20 #
plane-surface $-1 0 0 15.357979501720134 0 0 1 1 0 0 forward_v I I I I #
face $-1 $44 $45 $16 $-1 $46 reversed single #
loop $-1 $-1 $47 $21 #
plane-surface $-1 -78.660847804193239 0 0 1 0 0 0 0 -1 forward_v I I I I #
face $-1 $48 $49 $17 $-1 $50 reversed single #
loop $-1 $-1 $51 $22 #
plane-surface $-1 65.687387802762075 -38.018729598675137 5.1887900016682948 0 -0.74314483375859142 0.66913059716165679 1 0 0 forward_v I I I I #
face $-1 $52 $53 $18 $-1 $54 forward single #
loop $-1 $55 $56 $23 #
cone-surface $-1 60.127333516434462 -29.923875354146055 7.1069657284485128 0 0.74314483375859142 -0.66913059716165679 3 0 0 1 I I 0 1 3 forward I I I I #
face $-1 $57 $58 $19 $-1 $59 forward single #
loop $-1 $60 $61 $24 #
cone-surface $-1 71.247442089089716 -29.923875354146055 7.1069657284485128 0 0.74314483375859142 -0.66913059716165679 3 0 0 1 I I 0 1 3 forward I I I I #
face $-1 $62 $63 $15 $-1 $64 reversed single #
loop $-1 $-1 $65 $25 #
plane-surface $-1 0 0 -15.357979501720134 0 0 1 1 0 0 forward_v I I I I #
coedge $-1 $66 $67 $68 $69 forward $26 $-1 #
face $-1 $70 $71 $16 $-1 $72 reversed single #
loop $-1 $-1 $73 $28 #
plane-surface $-1 0 0 -15.357979501720134 0 0 1 1 0 0 forward_v I I I I #
coedge $-1 $74 $75 $76 $77 forward $29 $-1 #
face $-1 $78 $79 $17 $-1 $80 reversed single #
loop $-1 $-1 $81 $31 #
plane-surface $-1 52.713927801330925 -154.93153492818925 110.45755013059235 1 0 0 0 0.74314483375859142 -0.66913059716165679 forward_v I I I I #
coedge $-1 $82 $83 $84 $85 reversed $32 $-1 #
face $-1 $-1 $86 $18 $-1 $87 forward single #
loop $-1 $88 $89 $34 #
cone-surface $-1 60.127333516434462 -25.292493421573916 2.9368508094603172 0 0.74314483375859142 -0.66913059716165679 1.5 0 0 1 I I -0.70710678118654757 0.70710678118654757 1.5 forward I I I I #
loop $-1 $-1 $90 $23 #
coedge $-1 $56 $56 $91 $92 reversed $35 $-1 #
face $-1 $-1 $93 $19 $-1 $94 forward single #
loop $-1 $95 $96 $37 #
cone-surface $-1 71.247442089089716 -25.292493421573916 2.9368508094603172 0 0.74314483375859142 -0.66913059716165679 1.5 0 0 1 I I -0.70710678118654757 0.70710678118654757 1.5 forward I I I I #
loop $-1 $-1 $97 $24 #
coedge $-1 $61 $61 $98 $99 reversed $38 $-1 #
face $-1 $100 $101 $15 $-1 $102 reversed single #
loop $-1 $-1 $103 $40 #
plane-surface $-1 0 -38.018729598675151 0 0 1 0 0 0 1 forward_v I I I I #
coedge $-1 $104 $105 $106 $107 forward $41 $-1 #
coedge $-1 $108 $43 $109 $110 forward $26 $-1 #
coedge $-1 $43 $108 $111 $112 forward $26 $-1 #
coedge $-1 $113 $114 $43 $69 reversed $115 $-1 #
edge $-1 $116 -38.018729598675151 $117 38.018729598675151 $68 $118 forward 7 unknown #
face $-1 $119 $120 $16 $-1 $121 reversed single #
loop $-1 $-1 $122 $44 #
plane-surface $-1 -87.315048396144931 -26.606439212848599 0 0 1 0 0 0 1 forward_v I I I I #
coedge $-1 $123 $124 $75 $125 forward $45 $-1 #
coedge $-1 $126 $47 $127 $128 reversed $29 $-1 #
coedge $-1 $47 $126 $73 $125 reversed $29 $-1 #
coedge $-1 $129 $130 $47 $77 reversed $131 $-1 #
edge $-1 $132 -15.357979501720134 $133 15.357979501720134 $76 $134 forward 7 unknown #
face $-1 $135 $136 $17 $-1 $137 forward single #
loop $-1 $-1 $138 $48 #
plane-surface $-1 0 -38.018729598675151 0 0 1 0 0 0 1 forward_v I I I I #
coedge $-1 $139 $140 $141 $142 reversed $49 $-1 #
coedge $-1 $143 $51 $144 $145 reversed $32 $-1 #
coedge $-1 $51 $143 $139 $146 forward $32 $-1 #
coedge $-1 $141 $147 $51 $85 forward $136 $-1 #
edge $-1 $148 -45.817153902812187 $149 -19.870233899949888 $84 $150 forward 7 unknown #
loop $-1 $-1 $91 $52 #
plane-surface $-1 65.687387802762075 -38.018729598675137 5.1887900016682948 0 -0.74314483375859142 0.66913059716165679 1 0 0 forward_v I I I I #
loop $-1 $-1 $151 $34 #
coedge $-1 $89 $89 $90 $152 reversed $53 $-1 #
coedge $-1 $90 $90 $89 $152 forward $55 $-1 #
coedge $-1 $91 $91 $56 $92 forward $86 $-1 #
edge $-1 $153 7.9063199041588651e-016 $153 6.2831853071796013 $91 $154 forward 7 unknown #
loop $-1 $-1 $98 $57 #
plane-surface $-1 65.687387802762075 -38.018729598675137 5.1887900016682948 0 -0.74314483375859142 0.66913059716165679 1 0 0 forward_v I I I I #
loop $-1 $-1 $155 $37 #
coedge $-1 $96 $96 $97 $156 reversed $58 $-1 #
coedge $-1 $97 $97 $96 $156 forward $60 $-1 #
coedge $-1 $98 $98 $61 $99 forward $93 $-1 #
edge $-1 $157 7.9063199041588651e-016 $157 6.2831853071796013 $98 $158 forward 7 unknown #
face $-1 $159 $160 $15 $-1 $161 reversed single #
loop $-1 $-1 $162 $62 #
plane-surface $-1 -78.660847804193239 0 0 1 0 0 0 0 -1 forward_v I I I I #
coedge $-1 $163 $111 $164 $165 forward $63 $-1 #
coedge $-1 $166 $65 $163 $167 forward $41 $-1 #
coedge $-1 $65 $166 $168 $169 forward $41 $-1 #
coedge $-1 $114 $113 $65 $107 reversed $115 $-1 #
edge $-1 $170 -38.018729598675151 $171 38.018729598675151 $106 $172 forward 7 unknown #
coedge $-1 $67 $66 $173 $174 forward $26 $-1 #
coedge $-1 $175 $176 $66 $110 reversed $160 $-1 #
edge $-1 $117 -78.660847804193239 $177 78.660847804193239 $109 $178 forward 7 unknown #
coedge $-1 $103 $179 $67 $112 reversed $63 $-1 #
edge $-1 $180 -78.660847804193239 $116 78.660847804193239 $111 $181 forward 7 unknown #
coedge $-1 $106 $68 $179 $182 forward $115 $-1 #
coedge $-1 $68 $106 $175 $183 reversed $115 $-1 #
loop $-1 $-1 $113 $159 #
vertex $-1 $69 $184 #
vertex $-1 $69 $185 #
straight-curve $-1 78.660847804193239 0 15.357979501720134 0 1 0 I I #
face $-1 $186 $131 $16 $-1 $187 reversed single #
loop $-1 $-1 $188 $70 #
plane-surface $-1 -95.969248988096609 -22.323106369671933 0 1 0 0 0 0 -1 forward_v I I I I #
coedge $-1 $189 $190 $191 $192 forward $71 $-1 #
coedge $-1 $193 $73 $189 $194 forward $45 $-1 #
coedge $-1 $73 $193 $129 $195 forward $45 $-1 #
edge $-1 $132 18.039773526495267 $196 26.606439212848599 $73 $197 forward 7 unknown #
coedge $-1 $75 $74 $198 $199 forward $29 $-1 #
coedge $-1 $200 $201 $74 $128 forward $202 $-1 #
edge $-1 $203 -26.606439212848599 $133 -18.039773526495267 $127 $204 forward 7 unknown #
coedge $-1 $205 $76 $124 $195 reversed $131 $-1 #
coedge $-1 $76 $205 $200 $206 reversed $131 $-1 #
loop $-1 $-1 $76 $119 #
vertex $-1 $125 $207 #
vertex $-1 $206 $208 #
straight-curve $-1 -78.660847804193239 -18.039773526495267 0 0 0 1 I I #
face $-1 $-1 $209 $17 $-1 $210 reversed single #
loop $-1 $-1 $141 $78 #
plane-surface $-1 0 0 15.357979501720134 0 0 1 1 0 0 forward_v I I I I #
coedge $-1 $211 $212 $140 $213 forward $79 $-1 #
coedge $-1 $140 $81 $83 $146 reversed $49 $-1 #
coedge $-1 $81 $139 $138 $213 reversed $49 $-1 #
coedge $-1 $214 $84 $81 $142 forward $136 $-1 #
edge $-1 $149 -48.60341699060919 $215 -39.447037865419475 $141 $216 forward 7 unknown #
coedge $-1 $83 $82 $211 $217 reversed $32 $-1 #
coedge $-1 $218 $219 $82 $145 forward $209 $-1 #
edge $-1 $220 -10.791736378245535 $148 2.8922576941068385 $144 $221 forward 7 unknown #
edge $-1 $222 -2.1389731374768986e-014 $149 13.683994072352352 $139 $223 forward 7 unknown #
coedge $-1 $84 $214 $218 $224 forward $136 $-1 #
vertex $-1 $145 $225 #
vertex $-1 $85 $226 #
straight-curve $-1 32.843693901381037 -28.862350473485435 15.357979501720134 -1 0 0 I I #
coedge $-1 $151 $151 $-1 $227 reversed $88 $-1 #
edge $-1 $228 0 $228 6.2831853071796004 $89 $229 forward 7 unknown #
vertex $-1 $92 $230 #
ellipse-curve $-1 60.127333516434462 -33.440540036080293 10.273384751694207 0 -0.74314483375859142 0.66913059716165679 3 0 0 1 I I #
coedge $-1 $155 $155 $-1 $231 reversed $95 $-1 #
edge $-1 $232 0 $232 6.2831853071796004 $96 $233 forward 7 unknown #
vertex $-1 $99 $234 #
ellipse-curve $-1 71.247442089089716 -33.440540036080293 10.273384751694207 0 -0.74314483375859142 0.66913059716165679 3 0 0 1 I I #
face $-1 $-1 $115 $15 $-1 $235 reversed single #
loop $-1 $-1 $175 $100 #
plane-surface $-1 0 38.018729598675151 0 0 -1 0 0 0 -1 forward_v I I I I #
coedge $-1 $236 $173 $176 $237 forward $101 $-1 #
coedge $-1 $179 $103 $104 $167 reversed $63 $-1 #
coedge $-1 $173 $236 $103 $165 reversed $101 $-1 #
edge $-1 $180 -15.357979501720134 $238 15.357979501720134 $164 $239 forward 7 unknown #
coedge $-1 $105 $104 $236 $240 forward $41 $-1 #
edge $-1 $171 -78.660847804193239 $238 78.660847804193239 $163 $241 forward 7 unknown #
coedge $-1 $176 $175 $105 $169 reversed $160 $-1 #
edge $-1 $242 -78.660847804193239 $170 78.660847804193239 $168 $243 forward 7 unknown #
vertex $-1 $107 $244 #
vertex $-1 $182 $245 #
straight-curve $-1 78.660847804193239 0 -15.357979501720134 0 -1 0 I I #
coedge $-1 $162 $164 $108 $174 reversed $101 $-1 #
edge $-1 $177 -38.018729598675151 $180 38.018729598675151 $173 $246 forward 7 unknown #
coedge $-1 $168 $109 $114 $183 forward $160 $-1 #
coedge $-1 $109 $168 $162 $237 reversed $160 $-1 #
vertex $-1 $110 $247 #
straight-curve $-1 0 38.018729598675151 15.357979501720134 -1 0 0 I I #
coedge $-1 $111 $163 $113 $182 reversed $63 $-1 #
vertex $-1 $174 $248 #
straight-curve $-1 0 -38.018729598675151 15.357979501720134 1 0 0 I I #
edge $-1 $116 -15.357979501720134 $171 15.357979501720134 $113 $249 forward 7 unknown #
edge $-1 $117 -15.357979501720134 $170 15.357979501720134 $114 $250 forward 7 unknown #
point $-1 78.660847804193239 -38.018729598675151 15.357979501720134 #
point $-1 78.660847804193239 38.018729598675151 15.357979501720134 #
face $-1 $-1 $202 $16 $-1 $251 forward single #
plane-surface $-1 -87.315048396144931 -18.039773526495267 0 0 -1 0 0 0 -1 forward_v I I I I #
coedge $-1 $252 $253 $205 $254 forward $120 $-1 #
coedge $-1 $198 $122 $123 $194 reversed $71 $-1 #
coedge $-1 $122 $198 $201 $255 reversed $71 $-1 #
coedge $-1 $253 $252 $122 $192 reversed $120 $-1 #
edge $-1 $256 -15.357979501720134 $257 15.357979501720134 $191 $258 forward 7 unknown #
coedge $-1 $124 $123 $252 $259 forward $45 $-1 #
edge $-1 $196 -8.6542005919516782 $257 8.6542005919516782 $189 $260 forward 7 unknown #
edge $-1 $261 -8.6542005919516782 $132 8.6542005919516782 $129 $262 forward 7 unknown #
vertex $-1 $194 $263 #
straight-curve $-1 -78.660847804193239 0 -15.357979501720134 0 -1 0 I I #
coedge $-1 $190 $189 $126 $199 reversed $71 $-1 #
edge $-1 $203 -15.357979501720134 $196 15.357979501720134 $198 $264 forward 7 unknown #
coedge $-1 $265 $127 $130 $206 forward $202 $-1 #
coedge $-1 $127 $265 $190 $255 forward $202 $-1 #
loop $-1 $-1 $127 $186 #
vertex $-1 $128 $266 #
straight-curve $-1 -78.660847804193239 0 15.357979501720134 0 1 0 I I #
coedge $-1 $130 $129 $188 $254 reversed $131 $-1 #
edge $-1 $133 -8.6542005919516782 $267 8.6542005919516782 $130 $268 forward 7 unknown #
point $-1 -78.660847804193253 -18.039773526495267 -15.357979501720134 #
point $-1 -78.660847804193253 -18.039773526495267 15.357979501720134 #
loop $-1 $-1 $144 $135 #
plane-surface $-1 78.660847804193239 0 0 -1 0 0 0 0 1 forward_v I I I I #
coedge $-1 $269 $138 $143 $217 forward $79 $-1 #
coedge $-1 $138 $269 $214 $270 reversed $79 $-1 #
edge $-1 $215 39.870795563576038 $222 50.039985063627896 $138 $271 forward 7 unknown #
coedge $-1 $147 $141 $212 $270 forward $136 $-1 #
vertex $-1 $270 $272 #
straight-curve $-1 52.713927801330925 -77.465767464094625 15.357979501720138 0 -1 0 I I #
edge $-1 $222 19.870233899949888 $220 45.817153902812187 $211 $273 forward 7 unknown #
coedge $-1 $219 $144 $147 $224 reversed $209 $-1 #
coedge $-1 $144 $218 $269 $274 forward $209 $-1 #
vertex $-1 $217 $275 #
straight-curve $-1 78.660847804193239 -30.797648591488539 13.208613138446099 0 0.66913059716165679 0.74314483375859142 I I #
vertex $-1 $217 $276 #
straight-curve $-1 52.713927801330925 -38.018729598675137 5.1887900016682948 0 0.66913059716165679 0.74314483375859142 I I #
edge $-1 $277 -38.018729598675151 $148 -28.862350473485435 $218 $278 forward 7 unknown #
point $-1 78.660847804193224 -28.862350473485435 15.357979501720134 #
point $-1 52.713927801330925 -28.862350473485435 15.357979501720134 #
edge $-1 $279 1 $279 0 $151 $-1 forward 7 unknown #
vertex $-1 $152 $280 #
ellipse-curve $-1 60.127333516434462 -26.407210672211804 3.9405467052028023 0 -0.74314483375859142 0.66913059716165679 3 0 0 1 I I #
point $-1 63.127333516434462 -33.440540036080307 10.273384751694223 #
edge $-1 $281 1 $281 0 $155 $-1 forward 7 unknown #
vertex $-1 $156 $282 #
ellipse-curve $-1 71.247442089089716 -26.407210672211804 3.9405467052028023 0 -0.74314483375859142 0.66913059716165679 3 0 0 1 I I #
point $-1 74.247442089089716 -33.440540036080307 10.273384751694223 #
plane-surface $-1 78.660847804193239 0 0 -1 0 0 0 0 1 forward_v I I I I #
coedge $-1 $164 $162 $166 $240 reversed $101 $-1 #
edge $-1 $177 -15.357979501720134 $242 15.357979501720134 $176 $283 forward 7 unknown #
vertex $-1 $240 $284 #
straight-curve $-1 -78.660847804193239 -38.018729598675151 0 0 0 -1 I I #
edge $-1 $238 -38.018729598675151 $242 38.018729598675151 $236 $285 forward 7 unknown #
straight-curve $-1 0 -38.018729598675151 -15.357979501720134 -1 0 0 I I #
vertex $-1 $169 $286 #
straight-curve $-1 0 38.018729598675151 -15.357979501720134 1 0 0 I I #
point $-1 78.660847804193239 38.018729598675151 -15.357979501720134 #
point $-1 78.660847804193239 -38.018729598675151 -15.357979501720134 #
straight-curve $-1 -78.660847804193239 0 15.357979501720134 0 -1 0 I I #
point $-1 -78.660847804193239 38.018729598675151 15.357979501720134 #
point $-1 -78.660847804193239 -38.018729598675151 15.357979501720134 #
straight-curve $-1 78.660847804193239 -38.018729598675151 0 0 0 -1 I I #
straight-curve $-1 78.660847804193239 38.018729598675151 0 0 0 -1 I I #
plane-surface $-1 0 0 15.357979501720134 0 0 1 1 0 0 forward_v I I I I #
coedge $-1 $191 $188 $193 $259 reversed $120 $-1 #
coedge $-1 $188 $191 $265 $287 reversed $120 $-1 #
edge $-1 $267 -15.357979501720134 $261 15.357979501720134 $205 $288 forward 7 unknown #
edge $-1 $256 -8.6542005919516782 $203 8.6542005919516782 $190 $289 forward 7 unknown #
vertex $-1 $287 $290 #
vertex $-1 $259 $291 #
straight-curve $-1 -95.969248988096609 -26.606439212848599 0 0 0 -1 I I #
edge $-1 $257 -4.283332843176666 $261 4.283332843176666 $252 $292 forward 7 unknown #
straight-curve $-1 -87.315048396144931 -26.606439212848599 -15.357979501720134 -1 0 0 I I #
vertex $-1 $195 $293 #
straight-curve $-1 -87.315048396144931 -18.039773526495267 -15.357979501720134 1 0 0 I I #
point $-1 -78.660847804193253 -26.606439212848599 -15.357979501720134 #
straight-curve $-1 -78.660847804193239 -26.606439212848599 0 0 0 -1 I I #
coedge $-1 $201 $200 $253 $287 forward $202 $-1 #
point $-1 -78.660847804193253 -26.606439212848599 15.357979501720134 #
vertex $-1 $206 $294 #
straight-curve $-1 -87.315048396144931 -18.039773526495267 15.357979501720134 -1 0 0 I I #
coedge $-1 $212 $211 $219 $274 reversed $79 $-1 #
edge $-1 $215 52.713927801330925 $277 78.660847804193239 $212 $295 forward 7 unknown #
straight-curve $-1 52.713927801330925 -38.018729598675151 55.228775065296176 0 0 -1 I I #
point $-1 52.713927801330925 -38.018729598675151 15.357979501720134 #
straight-curve $-1 32.843693901381037 -38.018729598675151 5.1887900016682753 1 0 0 I I #
edge $-1 $277 -15.357979501720134 $220 -5.1887900016682789 $219 $296 forward 7 unknown #
point $-1 78.660847804193224 -38.018729598675151 5.1887900016682789 #
point $-1 52.713927801330925 -38.018729598675151 5.1887900016682789 #
vertex $-1 $224 $297 #
straight-curve $-1 78.660847804193239 0 15.357979501720134 0 1 0 I I #
vertex $-1 $227 $298 #
point $-1 63.127333516434462 -26.407210672211804 3.9405467052028023 #
vertex $-1 $231 $299 #
point $-1 74.247442089089716 -26.407210672211804 3.9405467052028023 #
straight-curve $-1 -78.660847804193239 38.018729598675151 0 0 0 -1 I I #
point $-1 -78.660847804193239 -38.018729598675151 -15.357979501720134 #
straight-curve $-1 -78.660847804193239 0 -15.357979501720134 0 1 0 I I #
point $-1 -78.660847804193239 38.018729598675151 -15.357979501720134 #
edge $-1 $267 -4.283332843176666 $256 4.283332843176666 $253 $300 forward 7 unknown #
straight-curve $-1 -95.969248988096609 -18.039773526495267 0 0 0 -1 I I #
straight-curve $-1 -87.315048396144931 -26.606439212848599 15.357979501720134 1 0 0 I I #
point $-1 -95.969248988096609 -26.606439212848599 15.357979501720134 #
point $-1 -95.969248988096609 -26.606439212848599 -15.357979501720134 #
straight-curve $-1 -95.969248988096609 -22.323106369671933 -15.357979501720134 0 1 0 I I #
point $-1 -95.969248988096609 -18.039773526495267 -15.357979501720134 #
point $-1 -95.969248988096609 -18.039773526495267 15.357979501720134 #
straight-curve $-1 0 -38.018729598675151 15.357979501720134 1 0 0 I I #
straight-curve $-1 78.660847804193239 -38.018729598675151 0 0 0 -1 I I #
point $-1 78.660847804193239 -38.018729598675151 15.357979501720134 #
point $-1 60.127333516434462 -24.177776170936028 1.9331549137178321 #
point $-1 71.247442089089716 -24.177776170936028 1.9331549137178321 #
straight-curve $-1 -95.969248988096609 -22.323106369671933 15.357979501720134 0 -1 0 I I #
End-of-ACIS-data 