500 0 10 0           
7 Unknown 11 ACIS 5.0 NT 24 Fri Mar 26 15:19:11 1999 
-1 9.9999999999999995e-007 1e-010 
body $-1 $10 $-1 $11 #
body $-1 $12 $-1 $13 #
body $-1 $14 $-1 $15 #
body $-1 $16 $-1 $17 #
body $-1 $18 $-1 $19 #
body $-1 $20 $-1 $21 #
body $-1 $22 $-1 $23 #
body $-1 $24 $-1 $25 #
body $-1 $26 $-1 $27 #
body $-1 $28 $-1 $29 #
lump $-1 $-1 $30 $0 #
transform $-1 1 0 0 0 1 0 0 0 1 62.653279213843192 32.130097595924461 9.0247067547792117 1 rotate no_reflect no_shear #
lump $-1 $-1 $31 $1 #
transform $-1 1 0 0 0 1 0 0 0 1 62.653279213843192 32.130097595924461 9.0247067547792117 1 rotate no_reflect no_shear #
lump $-1 $-1 $32 $2 #
transform $-1 1 0 0 0 1 0 0 0 1 62.653279213843192 32.130097595924461 9.0247067547792117 1 rotate no_reflect no_shear #
lump $-1 $-1 $33 $3 #
transform $-1 1 0 0 0 1 0 0 0 1 62.653279213843192 32.130097595924461 9.0247067547792117 1 rotate no_reflect no_shear #
lump $-1 $-1 $34 $4 #
transform $-1 1 0 0 0 1 0 0 0 1 62.653279213843192 32.130097595924461 9.0247067547792117 1 rotate no_reflect no_shear #
lump $-1 $-1 $35 $5 #
transform $-1 1 0 0 0 1 0 0 0 1 62.653279213843192 32.130097595924461 9.0247067547792117 1 rotate no_reflect no_shear #
lump $-1 $-1 $36 $6 #
transform $-1 1 0 0 0 1 0 0 0 1 62.653279213843192 32.130097595924461 9.0247067547792117 1 rotate no_reflect no_shear #
lump $-1 $-1 $37 $7 #
transform $-1 1 0 0 0 1 0 0 0 1 62.653279213843192 32.130097595924461 9.0247067547792117 1 rotate no_reflect no_shear #
lump $-1 $-1 $38 $8 #
transform $-1 1 0 0 0 1 0 0 0 1 62.653279213843192 32.130097595924461 9.0247067547792117 1 rotate no_reflect no_shear #
lump $-1 $-1 $39 $9 #
transform $-1 1 0 0 0 1 0 0 0 1 62.653279213843192 32.130097595924461 9.0247067547792117 1 rotate no_reflect no_shear #
shell $-1 $-1 $-1 $40 $-1 $10 #
shell $-1 $-1 $-1 $41 $-1 $12 #
shell $-1 $-1 $-1 $42 $-1 $14 #
shell $-1 $-1 $-1 $43 $-1 $16 #
shell $-1 $-1 $-1 $44 $-1 $18 #
shell $-1 $-1 $-1 $45 $-1 $20 #
shell $-1 $-1 $-1 $46 $-1 $22 #
shell $-1 $-1 $-1 $47 $-1 $24 #
shell $-1 $-1 $-1 $48 $-1 $26 #
shell $-1 $-1 $-1 $49 $-1 $28 #
face $-1 $50 $51 $30 $-1 $52 forward single #
face $-1 $53 $54 $31 $-1 $55 forward single #
face $-1 $56 $57 $32 $-1 $58 forward single #
face $-1 $59 $60 $33 $-1 $61 reversed single #
face $-1 $62 $63 $34 $-1 $64 forward single #
face $-1 $65 $66 $35 $-1 $67 forward single #
face $-1 $68 $69 $36 $-1 $70 forward single #
face $-1 $71 $72 $37 $-1 $73 reversed single #
face $-1 $74 $75 $38 $-1 $76 forward single #
face $-1 $77 $78 $39 $-1 $79 forward single #
face $-1 $80 $81 $30 $-1 $82 reversed single #
loop $-1 $-1 $83 $40 #
plane-surface $-1 0 0 9.0247067547792117 0 0 1 1 0 0 forward_v I I I I #
face $-1 $84 $85 $31 $-1 $86 reversed single #
loop $-1 $-1 $87 $41 #
plane-surface $-1 0 -28.795387614087851 -3.3261728081979336 0 0 1 1 0 0 forward_v I I I I #
face $-1 $88 $89 $32 $-1 $90 reversed single #
loop $-1 $-1 $91 $42 #
plane-surface $-1 0 28.795387614087851 -3.3261728081979336 0 0 1 1 0 0 forward_v I I I I #
face $-1 $92 $93 $33 $-1 $94 reversed single #
loop $-1 $-1 $95 $43 #
plane-surface $-1 -170.06196464333647 23.455295941451062 68.700903776491558 0 -1 0 0.85716730853699208 0 -0.51503806187062418 forward_v I I I I #
face $-1 $96 $97 $34 $-1 $98 forward single #
loop $-1 $99 $100 $44 #
cone-surface $-1 -60.267125706891555 14.132909721742806 6.0378091940039633 0.85716730853699208 0 -0.51503806187062418 0.51503806187062418 0 0.85716730853699208 1 I I 0 1 1 forward I I I I #
face $-1 $101 $102 $35 $-1 $103 forward single #
loop $-1 $104 $105 $45 #
cone-surface $-1 -60.267125706891555 17.628804554133403 6.0378091940039633 0.85716730853699208 0 -0.51503806187062418 0.51503806187062418 0 0.85716730853699208 1 I I 0 1 1 forward I I I I #
face $-1 $106 $107 $36 $-1 $108 forward single #
loop $-1 $109 $110 $46 #
cone-surface $-1 -60.267125706891555 21.124699386524 6.0378091940039633 0.85716730853699208 0 -0.51503806187062418 0.51503806187062418 0 0.85716730853699208 1 I I 0 1 1 forward I I I I #
face $-1 $111 $112 $37 $-1 $113 reversed single #
loop $-1 $-1 $114 $47 #
plane-surface $-1 105.52431765106273 11.621014221033231 172.18756339385081 0 1 0 0.85716730853699208 0 0.51503806187062418 forward_v I I I I #
face $-1 $115 $116 $38 $-1 $117 forward single #
loop $-1 $118 $119 $48 #
cone-surface $-1 58.118595247017808 15.575203767095516 3.4938202621721635 -0.85716730853699208 0 -0.51503806187062418 0.77255709280593621 0 -1.2857509628054882 1 I I 0 1 1.5 forward I I I I #
face $-1 $120 $121 $39 $-1 $122 forward single #
loop $-1 $123 $124 $49 #
cone-surface $-1 58.118595247017808 21.506488086188952 3.4938202621721635 -0.85716730853699208 0 -0.51503806187062418 0.77255709280593621 0 -1.2857509628054882 1 I I 0 1 1.5 forward I I I I #
face $-1 $125 $126 $30 $-1 $127 reversed single #
loop $-1 $-1 $128 $50 #
plane-surface $-1 0 0 -9.0247067547792117 0 0 1 1 0 0 forward_v I I I I #
coedge $-1 $129 $130 $131 $132 forward $51 $-1 #
face $-1 $133 $134 $31 $-1 $135 reversed single #
loop $-1 $-1 $136 $53 #
plane-surface $-1 0 -28.795387614087851 -6.5099798440540315 0 0 1 1 0 0 forward_v I I I I #
coedge $-1 $137 $138 $139 $140 reversed $54 $-1 #
face $-1 $141 $142 $32 $-1 $143 reversed single #
loop $-1 $-1 $144 $56 #
plane-surface $-1 0 28.795387614087851 -6.5099798440540315 0 0 1 1 0 0 forward_v I I I I #
coedge $-1 $145 $146 $147 $148 reversed $57 $-1 #
face $-1 $149 $150 $33 $-1 $151 reversed single #
loop $-1 $-1 $152 $59 #
plane-surface $-1 -62.653279213843192 17.628804554133403 4.1632567842178361 -0.85716730853699208 0 0.51503806187062418 0.51503806187062418 0 0.85716730853699208 forward_v I I I I #
coedge $-1 $153 $154 $155 $156 reversed $60 $-1 #
face $-1 $-1 $157 $34 $-1 $158 forward single #
loop $-1 $159 $160 $62 #
cone-surface $-1 -58.912915414686324 14.132909721742806 5.2241175875740939 0.85716730853699208 0 -0.51503806187062418 0.25751903093531209 0 0.42858365426849604 1 I I -0.70710678118654746 0.70710678118654746 0.5 forward I I I I #
loop $-1 $-1 $161 $44 #
coedge $-1 $100 $100 $162 $163 reversed $63 $-1 #
face $-1 $-1 $164 $35 $-1 $165 forward single #
loop $-1 $166 $167 $65 #
cone-surface $-1 -58.912915414686324 17.628804554133403 5.2241175875740939 0.85716730853699208 0 -0.51503806187062418 0.25751903093531209 0 0.42858365426849604 1 I I -0.70710678118654746 0.70710678118654746 0.5 forward I I I I #
loop $-1 $-1 $168 $45 #
coedge $-1 $105 $105 $169 $170 reversed $66 $-1 #
face $-1 $-1 $171 $36 $-1 $172 forward single #
loop $-1 $173 $174 $68 #
cone-surface $-1 -58.912915414686324 21.124699386524 5.2241175875740939 0.85716730853699208 0 -0.51503806187062418 0.25751903093531209 0 0.42858365426849604 1 I I -0.70710678118654746 0.70710678118654746 0.5 forward I I I I #
loop $-1 $-1 $175 $46 #
coedge $-1 $110 $110 $176 $177 reversed $69 $-1 #
face $-1 $178 $179 $37 $-1 $180 reversed single #
loop $-1 $-1 $181 $71 #
plane-surface $-1 -1.8843677784305299 18.540845926642241 107.64991640157709 0.85716730853699208 0 0.51503806187062418 0.51503806187062418 0 -0.85716730853699208 forward_v I I I I #
coedge $-1 $182 $183 $184 $185 reversed $72 $-1 #
face $-1 $-1 $186 $38 $-1 $187 forward single #
loop $-1 $188 $189 $74 #
cone-surface $-1 55.579858055863525 15.575203767095516 1.9683931145098423 -0.85716730853699208 0 -0.51503806187062418 0.3862785464029681 0 -0.64287548140274409 1 I I -0.70710678118654757 0.70710678118654757 0.75 forward I I I I #
loop $-1 $-1 $190 $48 #
coedge $-1 $119 $119 $191 $192 reversed $75 $-1 #
face $-1 $-1 $193 $39 $-1 $194 forward single #
loop $-1 $195 $196 $77 #
cone-surface $-1 55.579858055863525 21.506488086188952 1.9683931145098423 -0.85716730853699208 0 -0.51503806187062418 0.3862785464029681 0 -0.64287548140274409 1 I I -0.70710678118654757 0.70710678118654757 0.75 forward I I I I #
loop $-1 $-1 $197 $49 #
coedge $-1 $124 $124 $198 $199 reversed $78 $-1 #
face $-1 $200 $201 $30 $-1 $202 reversed single #
loop $-1 $-1 $203 $80 #
plane-surface $-1 0 -32.130097595924461 0 0 1 0 0 0 1 forward_v I I I I #
coedge $-1 $204 $205 $206 $207 forward $81 $-1 #
coedge $-1 $208 $83 $209 $210 forward $51 $-1 #
coedge $-1 $83 $208 $211 $212 forward $51 $-1 #
coedge $-1 $213 $214 $83 $132 reversed $215 $-1 #
edge $-1 $216 -32.130097595924461 $217 32.130097595924461 $131 $218 forward 7 unknown #
face $-1 $219 $220 $31 $-1 $221 reversed single #
loop $-1 $-1 $222 $84 #
plane-surface $-1 0 -25.46067763225124 -4.9180763261259823 0 -1 0 0 0 -1 forward_v I I I I #
coedge $-1 $223 $224 $225 $226 reversed $85 $-1 #
coedge $-1 $227 $87 $228 $229 forward $54 $-1 #
coedge $-1 $87 $227 $230 $231 reversed $54 $-1 #
coedge $-1 $232 $233 $87 $140 forward $234 $-1 #
edge $-1 $235 11.062983825207315 $236 17.732403788880536 $139 $237 forward 7 unknown #
face $-1 $238 $239 $32 $-1 $240 reversed single #
loop $-1 $-1 $241 $88 #
plane-surface $-1 0 25.46067763225124 -4.9180763261259823 0 1 0 0 0 1 forward_v I I I I #
coedge $-1 $242 $243 $244 $245 reversed $89 $-1 #
coedge $-1 $246 $91 $247 $248 reversed $57 $-1 #
coedge $-1 $91 $246 $249 $250 forward $57 $-1 #
coedge $-1 $251 $252 $91 $148 forward $239 $-1 #
edge $-1 $253 -17.732403788880536 $254 -11.062983825207315 $147 $255 forward 7 unknown #
face $-1 $256 $257 $33 $-1 $258 reversed single #
loop $-1 $-1 $259 $92 #
plane-surface $-1 -170.06196464333647 11.802313166815743 68.700903776491558 0 1 0 -0.85716730853699208 0 0.51503806187062418 forward_v I I I I #
coedge $-1 $260 $261 $262 $263 reversed $93 $-1 #
coedge $-1 $154 $95 $264 $265 reversed $60 $-1 #
coedge $-1 $95 $153 $260 $266 reversed $60 $-1 #
coedge $-1 $262 $267 $95 $156 forward $257 $-1 #
edge $-1 $268 25.325745133466569 $269 30.187195104027943 $155 $270 forward 7 unknown #
loop $-1 $-1 $162 $96 #
plane-surface $-1 -62.653279213843192 17.628804554133403 4.1632567842178361 -0.85716730853699208 0 0.51503806187062418 0.51503806187062418 0 0.85716730853699208 forward_v I I I I #
loop $-1 $-1 $271 $62 #
coedge $-1 $160 $160 $161 $272 reversed $97 $-1 #
coedge $-1 $161 $161 $160 $272 forward $99 $-1 #
coedge $-1 $162 $162 $100 $163 forward $157 $-1 #
edge $-1 $273 0 $273 6.2831853071796004 $162 $274 forward 7 unknown #
loop $-1 $-1 $169 $101 #
plane-surface $-1 -62.653279213843192 17.628804554133403 4.1632567842178361 -0.85716730853699208 0 0.51503806187062418 0.51503806187062418 0 0.85716730853699208 forward_v I I I I #
loop $-1 $-1 $275 $65 #
coedge $-1 $167 $167 $168 $276 reversed $102 $-1 #
coedge $-1 $168 $168 $167 $276 forward $104 $-1 #
coedge $-1 $169 $169 $105 $170 forward $164 $-1 #
edge $-1 $277 0 $277 6.2831853071796004 $169 $278 forward 7 unknown #
loop $-1 $-1 $176 $106 #
plane-surface $-1 -62.653279213843192 17.628804554133403 4.1632567842178361 -0.85716730853699208 0 0.51503806187062418 0.51503806187062418 0 0.85716730853699208 forward_v I I I I #
loop $-1 $-1 $279 $68 #
coedge $-1 $174 $174 $175 $280 reversed $107 $-1 #
coedge $-1 $175 $175 $174 $280 forward $109 $-1 #
coedge $-1 $176 $176 $110 $177 forward $171 $-1 #
edge $-1 $281 0 $281 6.2831853071796004 $176 $282 forward 7 unknown #
face $-1 $283 $284 $37 $-1 $285 forward single #
loop $-1 $-1 $286 $111 #
plane-surface $-1 105.52431765106273 25.460677632251251 172.18756339385081 0 -1 0 -0.85716730853699208 0 -0.51503806187062418 forward_v I I I I #
coedge $-1 $287 $288 $289 $290 reversed $112 $-1 #
coedge $-1 $183 $114 $291 $292 reversed $72 $-1 #
coedge $-1 $114 $182 $287 $293 reversed $72 $-1 #
coedge $-1 $289 $294 $114 $185 forward $295 $-1 #
edge $-1 $296 77.069074942146187 $297 85.852550724841592 $184 $298 forward 7 unknown #
loop $-1 $-1 $191 $115 #
plane-surface $-1 -1.8843677784305299 18.540845926642241 107.64991640157709 0.85716730853699208 0 0.51503806187062418 0.51503806187062418 0 -0.85716730853699208 forward_v I I I I #
loop $-1 $-1 $299 $74 #
coedge $-1 $189 $189 $190 $300 reversed $116 $-1 #
coedge $-1 $190 $190 $189 $300 forward $118 $-1 #
coedge $-1 $191 $191 $119 $192 forward $186 $-1 #
edge $-1 $301 0 $301 6.2831853071796004 $191 $302 forward 7 unknown #
loop $-1 $-1 $198 $120 #
plane-surface $-1 -1.8843677784305299 18.540845926642241 107.64991640157709 0.85716730853699208 0 0.51503806187062418 0.51503806187062418 0 -0.85716730853699208 forward_v I I I I #
loop $-1 $-1 $303 $77 #
coedge $-1 $196 $196 $197 $304 reversed $121 $-1 #
coedge $-1 $197 $197 $196 $304 forward $123 $-1 #
coedge $-1 $198 $198 $124 $199 forward $193 $-1 #
edge $-1 $305 0 $305 6.2831853071796004 $198 $306 forward 7 unknown #
face $-1 $307 $308 $30 $-1 $309 reversed single #
loop $-1 $-1 $310 $125 #
plane-surface $-1 -62.653279213843192 0 0 1 0 0 0 0 -1 forward_v I I I I #
coedge $-1 $311 $211 $312 $313 forward $126 $-1 #
coedge $-1 $314 $128 $311 $315 forward $81 $-1 #
coedge $-1 $128 $314 $316 $317 forward $81 $-1 #
coedge $-1 $214 $213 $128 $207 reversed $215 $-1 #
edge $-1 $318 -32.130097595924461 $319 32.130097595924461 $206 $320 forward 7 unknown #
coedge $-1 $130 $129 $321 $322 forward $51 $-1 #
coedge $-1 $323 $324 $129 $210 reversed $308 $-1 #
edge $-1 $217 -62.653279213843192 $325 62.653279213843192 $209 $326 forward 7 unknown #
coedge $-1 $203 $327 $130 $212 reversed $126 $-1 #
edge $-1 $328 -62.653279213843192 $216 62.653279213843192 $211 $329 forward 7 unknown #
coedge $-1 $206 $131 $327 $330 forward $215 $-1 #
coedge $-1 $131 $206 $323 $331 reversed $215 $-1 #
loop $-1 $-1 $213 $307 #
vertex $-1 $132 $332 #
vertex $-1 $132 $333 #
straight-curve $-1 62.653279213843192 0 9.0247067547792117 0 1 0 I I #
face $-1 $334 $335 $31 $-1 $336 reversed single #
loop $-1 $-1 $337 $133 #
plane-surface $-1 -62.653279213843192 0 0 1 0 0 0 0 -1 forward_v I I I I #
coedge $-1 $338 $228 $233 $339 reversed $134 $-1 #
coedge $-1 $340 $136 $341 $342 reversed $85 $-1 #
coedge $-1 $136 $340 $338 $343 forward $85 $-1 #
coedge $-1 $233 $232 $136 $226 forward $234 $-1 #
edge $-1 $344 -17.732403788880536 $345 -11.062983825207315 $225 $346 forward 7 unknown #
coedge $-1 $138 $137 $337 $347 reversed $54 $-1 #
coedge $-1 $222 $348 $137 $229 reversed $134 $-1 #
edge $-1 $235 -62.653279213843192 $349 62.653279213843192 $228 $350 forward 7 unknown #
coedge $-1 $351 $352 $138 $231 forward $335 $-1 #
edge $-1 $236 -62.653279213843192 $353 62.653279213843192 $230 $354 forward 7 unknown #
coedge $-1 $225 $139 $352 $355 forward $234 $-1 #
coedge $-1 $139 $225 $222 $339 forward $234 $-1 #
loop $-1 $-1 $139 $334 #
vertex $-1 $140 $356 #
vertex $-1 $355 $357 #
straight-curve $-1 62.653279213843192 -14.397693807043925 -3.3261728081979336 0 -1 0 I I #
face $-1 $358 $359 $32 $-1 $360 reversed single #
loop $-1 $-1 $147 $141 #
plane-surface $-1 62.653279213843192 0 0 -1 0 0 0 0 1 forward_v I I I I #
coedge $-1 $361 $249 $362 $363 reversed $142 $-1 #
coedge $-1 $364 $144 $361 $365 forward $89 $-1 #
coedge $-1 $144 $364 $366 $367 reversed $89 $-1 #
coedge $-1 $252 $251 $144 $245 forward $239 $-1 #
edge $-1 $368 11.062983825207315 $369 17.732403788880536 $244 $370 forward 7 unknown #
coedge $-1 $146 $145 $371 $372 reversed $57 $-1 #
coedge $-1 $373 $374 $145 $248 forward $375 $-1 #
edge $-1 $376 -62.653279213843192 $253 62.653279213843192 $247 $377 forward 7 unknown #
coedge $-1 $241 $378 $146 $250 reversed $142 $-1 #
edge $-1 $379 -62.653279213843192 $254 62.653279213843192 $249 $380 forward 7 unknown #
coedge $-1 $244 $147 $378 $381 forward $239 $-1 #
coedge $-1 $147 $244 $373 $382 reversed $239 $-1 #
vertex $-1 $382 $383 #
vertex $-1 $148 $384 #
straight-curve $-1 62.653279213843192 14.397693807043925 -3.3261728081979336 0 -1 0 I I #
face $-1 $-1 $385 $33 $-1 $386 forward single #
loop $-1 $-1 $155 $149 #
plane-surface $-1 -62.653279213843192 0 0 1 0 0 0 0 -1 forward_v I I I I #
coedge $-1 $387 $388 $389 $390 reversed $150 $-1 #
coedge $-1 $391 $152 $154 $266 forward $93 $-1 #
coedge $-1 $152 $391 $387 $392 forward $93 $-1 #
coedge $-1 $389 $155 $152 $263 forward $257 $-1 #
edge $-1 $269 -14.640893664384361 $393 -2.9879108897490418 $262 $394 forward 7 unknown #
coedge $-1 $395 $396 $153 $265 forward $385 $-1 #
edge $-1 $397 -25.298756845854854 $268 -22.377703107825042 $264 $398 forward 7 unknown #
edge $-1 $269 0 $397 5.6715298427081526 $154 $399 forward 7 unknown #
coedge $-1 $155 $389 $395 $400 reversed $257 $-1 #
vertex $-1 $400 $401 #
vertex $-1 $156 $402 #
straight-curve $-1 -62.653279213843192 23.455295941451062 34.350451888245779 0 0 -1 I I #
coedge $-1 $271 $271 $-1 $403 reversed $159 $-1 #
edge $-1 $404 0 $404 6.2831853071796004 $160 $405 forward 7 unknown #
vertex $-1 $163 $406 #
ellipse-curve $-1 -61.192752344828286 14.132909721742806 6.5939817694985203 -0.85716730853699208 0 0.51503806187062418 0.51503806187062418 0 0.85716730853699208 1 I I #
coedge $-1 $275 $275 $-1 $407 reversed $166 $-1 #
edge $-1 $408 0 $408 6.2831853071796004 $167 $409 forward 7 unknown #
vertex $-1 $170 $410 #
ellipse-curve $-1 -61.192752344828286 17.628804554133403 6.5939817694985203 -0.85716730853699208 0 0.51503806187062418 0.51503806187062418 0 0.85716730853699208 1 I I #
coedge $-1 $279 $279 $-1 $411 reversed $173 $-1 #
edge $-1 $412 0 $412 6.2831853071796004 $174 $413 forward 7 unknown #
vertex $-1 $177 $414 #
ellipse-curve $-1 -61.192752344828286 21.124699386524 6.5939817694985203 -0.85716730853699208 0 0.51503806187062418 0.51503806187062418 0 0.85716730853699208 1 I I #
face $-1 $-1 $295 $37 $-1 $415 reversed single #
loop $-1 $-1 $416 $178 #
plane-surface $-1 0 0 9.0247067547792117 0 0 1 1 0 0 forward_v I I I I #
coedge $-1 $417 $418 $419 $420 reversed $179 $-1 #
coedge $-1 $421 $181 $183 $293 forward $112 $-1 #
coedge $-1 $181 $421 $417 $422 forward $112 $-1 #
coedge $-1 $419 $184 $181 $290 forward $295 $-1 #
edge $-1 $297 2.3505912577121109 $423 16.19025466893013 $289 $424 forward 7 unknown #
coedge $-1 $425 $426 $182 $292 forward $284 $-1 #
edge $-1 $427 4.6134758741641235 $296 9.8911203883118262 $291 $428 forward 7 unknown #
edge $-1 $297 -125.3065584276864 $427 -115.05946232962476 $183 $429 forward 7 unknown #
coedge $-1 $184 $419 $425 $430 reversed $295 $-1 #
loop $-1 $-1 $419 $283 #
vertex $-1 $430 $431 #
vertex $-1 $185 $432 #
straight-curve $-1 62.653279213843192 11.621014221033231 86.093781696925404 0 0 -1 I I #
coedge $-1 $299 $299 $-1 $433 reversed $188 $-1 #
edge $-1 $434 0 $434 6.2831853071796004 $189 $435 forward 7 unknown #
vertex $-1 $192 $436 #
ellipse-curve $-1 60.014456956769344 15.575203767095516 4.6329688634315165 0.85716730853699208 0 0.51503806187062418 0.77255709280593621 0 -1.2857509628054882 1 I I #
coedge $-1 $303 $303 $-1 $437 reversed $195 $-1 #
edge $-1 $438 0 $438 6.2831853071796004 $196 $439 forward 7 unknown #
vertex $-1 $199 $440 #
ellipse-curve $-1 60.014456956769344 21.506488086188952 4.6329688634315165 0.85716730853699208 0 0.51503806187062418 0.77255709280593621 0 -1.2857509628054882 1 I I #
face $-1 $-1 $215 $30 $-1 $441 reversed single #
loop $-1 $-1 $323 $200 #
plane-surface $-1 0 32.130097595924461 0 0 -1 0 0 0 -1 forward_v I I I I #
coedge $-1 $442 $321 $324 $443 forward $201 $-1 #
coedge $-1 $327 $203 $204 $315 reversed $126 $-1 #
coedge $-1 $321 $442 $203 $313 reversed $201 $-1 #
edge $-1 $328 -9.0247067547792117 $444 9.0247067547792117 $312 $445 forward 7 unknown #
coedge $-1 $205 $204 $442 $446 forward $81 $-1 #
edge $-1 $319 -62.653279213843192 $444 62.653279213843192 $311 $447 forward 7 unknown #
coedge $-1 $324 $323 $205 $317 reversed $308 $-1 #
edge $-1 $448 -62.653279213843192 $318 62.653279213843192 $316 $449 forward 7 unknown #
vertex $-1 $207 $450 #
vertex $-1 $330 $451 #
straight-curve $-1 62.653279213843192 0 -9.0247067547792117 0 -1 0 I I #
coedge $-1 $310 $312 $208 $322 reversed $201 $-1 #
edge $-1 $325 -32.130097595924461 $328 32.130097595924461 $321 $452 forward 7 unknown #
coedge $-1 $316 $209 $214 $331 forward $308 $-1 #
coedge $-1 $209 $316 $310 $443 reversed $308 $-1 #
vertex $-1 $210 $453 #
straight-curve $-1 0 32.130097595924461 9.0247067547792117 -1 0 0 I I #
coedge $-1 $211 $311 $213 $330 reversed $126 $-1 #
vertex $-1 $322 $454 #
straight-curve $-1 0 -32.130097595924461 9.0247067547792117 1 0 0 I I #
edge $-1 $216 -9.0247067547792117 $319 9.0247067547792117 $213 $455 forward 7 unknown #
edge $-1 $217 -9.0247067547792117 $318 9.0247067547792117 $214 $456 forward 7 unknown #
point $-1 62.653279213843192 -32.130097595924461 9.0247067547792117 #
point $-1 62.653279213843192 32.130097595924461 9.0247067547792117 #
face $-1 $-1 $234 $31 $-1 $457 reversed single #
loop $-1 $-1 $230 $219 #
plane-surface $-1 0 -32.130097595924461 0 0 1 0 0 0 1 forward_v I I I I #
coedge $-1 $458 $459 $227 $347 forward $220 $-1 #
coedge $-1 $348 $222 $224 $343 reversed $134 $-1 #
edge $-1 $345 -4.0509416809910404 $235 -0.86713464513494243 $233 $460 forward 7 unknown #
coedge $-1 $224 $223 $461 $462 reversed $85 $-1 #
coedge $-1 $352 $351 $223 $342 forward $335 $-1 #
edge $-1 $463 -62.653279213843192 $344 62.653279213843192 $341 $464 forward 7 unknown #
edge $-1 $465 -62.653279213843192 $345 62.653279213843192 $338 $466 forward 7 unknown #
vertex $-1 $342 $467 #
vertex $-1 $226 $468 #
straight-curve $-1 62.653279213843192 -14.397693807043925 -6.5099798440540315 0 1 0 I I #
edge $-1 $353 -17.732403788880536 $349 -11.062983825207315 $337 $469 forward 7 unknown #
coedge $-1 $228 $338 $458 $470 reversed $134 $-1 #
vertex $-1 $347 $471 #
straight-curve $-1 0 -25.46067763225124 -3.3261728081979336 -1 0 0 I I #
coedge $-1 $341 $230 $459 $472 forward $335 $-1 #
coedge $-1 $230 $341 $232 $355 reversed $335 $-1 #
vertex $-1 $472 $473 #
straight-curve $-1 0 -32.130097595924461 -3.3261728081979336 -1 0 0 I I #
edge $-1 $236 3.3261728081979336 $344 6.5099798440540315 $232 $474 forward 7 unknown #
point $-1 62.653279213843192 -25.46067763225124 -3.3261728081979336 #
point $-1 62.653279213843192 -32.130097595924461 -3.3261728081979336 #
face $-1 $-1 $375 $32 $-1 $475 reversed single #
loop $-1 $-1 $371 $238 #
plane-surface $-1 -62.653279213843192 0 0 1 0 0 0 0 -1 forward_v I I I I #
coedge $-1 $378 $241 $242 $365 reversed $142 $-1 #
coedge $-1 $371 $476 $241 $363 forward $359 $-1 #
edge $-1 $477 -4.0509416809910404 $379 -0.86713464513494243 $362 $478 forward 7 unknown #
coedge $-1 $243 $242 $476 $479 reversed $89 $-1 #
edge $-1 $368 -62.653279213843192 $477 62.653279213843192 $361 $480 forward 7 unknown #
coedge $-1 $374 $373 $243 $367 forward $375 $-1 #
edge $-1 $369 -62.653279213843192 $481 62.653279213843192 $366 $482 forward 7 unknown #
vertex $-1 $245 $483 #
vertex $-1 $367 $484 #
straight-curve $-1 62.653279213843192 14.397693807043925 -6.5099798440540315 0 1 0 I I #
coedge $-1 $485 $362 $246 $372 forward $359 $-1 #
edge $-1 $379 11.062983825207315 $376 17.732403788880536 $371 $486 forward 7 unknown #
coedge $-1 $366 $247 $252 $382 forward $375 $-1 #
coedge $-1 $247 $366 $485 $487 reversed $375 $-1 #
loop $-1 $-1 $247 $358 #
vertex $-1 $487 $488 #
straight-curve $-1 0 32.130097595924461 -3.3261728081979336 1 0 0 I I #
coedge $-1 $249 $361 $251 $381 reversed $142 $-1 #
vertex $-1 $372 $489 #
straight-curve $-1 0 25.46067763225124 -3.3261728081979336 1 0 0 I I #
edge $-1 $254 0.86713464513494243 $368 4.0509416809910404 $251 $490 forward 7 unknown #
edge $-1 $253 3.3261728081979336 $369 6.5099798440540315 $252 $491 forward 7 unknown #
point $-1 62.653279213843192 32.130097595924461 -3.3261728081979336 #
point $-1 62.653279213843192 25.46067763225124 -3.3261728081979336 #
loop $-1 $-1 $264 $256 #
plane-surface $-1 0 0 9.0247067547792117 0 0 1 1 0 0 forward_v I I I I #
coedge $-1 $388 $259 $261 $392 reversed $150 $-1 #
coedge $-1 $259 $387 $492 $493 reversed $150 $-1 #
coedge $-1 $267 $262 $259 $390 forward $257 $-1 #
edge $-1 $393 -30.187195104027943 $494 -25.325745133466569 $389 $495 forward 7 unknown #
coedge $-1 $261 $260 $396 $496 reversed $93 $-1 #
edge $-1 $497 -5.6715298427081526 $393 0 $387 $498 forward 7 unknown #
vertex $-1 $263 $499 #
straight-curve $-1 -62.653279213843192 8.8144022770667014 4.1632567842178405 0 -1 0 I I #
coedge $-1 $492 $264 $267 $400 forward $385 $-1 #
coedge $-1 $264 $492 $391 $496 forward $385 $-1 #
vertex $-1 $265 $500 #
straight-curve $-1 -85.030982321668233 23.455295941451062 9.0247067547792099 -1 0 0 I I #
straight-curve $-1 -62.653279213843192 23.455295941451062 4.1632567842178361 0.51503806187062418 0 0.85716730853699208 I I #
edge $-1 $268 -23.455295941451062 $494 -11.802313166815743 $267 $501 forward 7 unknown #
point $-1 -62.653279213843192 23.455295941451062 9.0247067547792117 #
point $-1 -62.653279213843192 23.455295941451062 4.1632567842178361 #
edge $-1 $502 1 $502 0 $271 $-1 forward 7 unknown #
vertex $-1 $272 $503 #
ellipse-curve $-1 -59.341499068954818 14.132909721742806 5.4816366185094063 -0.85716730853699208 0 0.51503806187062418 0.51503806187062418 0 0.85716730853699208 1 I I #
point $-1 -60.677714282957659 14.132909721742806 7.4511490780355132 #
edge $-1 $504 1 $504 0 $275 $-1 forward 7 unknown #
vertex $-1 $276 $505 #
ellipse-curve $-1 -59.341499068954818 17.628804554133403 5.4816366185094063 -0.85716730853699208 0 0.51503806187062418 0.51503806187062418 0 0.85716730853699208 1 I I #
point $-1 -60.677714282957659 17.628804554133403 7.4511490780355132 #
edge $-1 $506 1 $506 0 $279 $-1 forward 7 unknown #
vertex $-1 $280 $507 #
ellipse-curve $-1 -59.341499068954818 21.124699386524 5.4816366185094063 -0.85716730853699208 0 0.51503806187062418 0.51503806187062418 0 0.85716730853699208 1 I I #
point $-1 -60.677714282957659 21.124699386524 7.4511490780355132 #
plane-surface $-1 62.653279213843192 0 0 -1 0 0 0 0 1 forward_v I I I I #
coedge $-1 $426 $425 $418 $508 forward $284 $-1 #
coedge $-1 $418 $286 $288 $422 reversed $179 $-1 #
coedge $-1 $286 $417 $416 $508 reversed $179 $-1 #
coedge $-1 $294 $289 $286 $420 forward $295 $-1 #
edge $-1 $423 -85.852550724841592 $509 -77.069074942146187 $419 $510 forward 7 unknown #
coedge $-1 $288 $287 $426 $511 reversed $112 $-1 #
edge $-1 $512 115.05946232962476 $423 125.3065584276864 $417 $513 forward 7 unknown #
vertex $-1 $290 $514 #
straight-curve $-1 62.653279213843192 9.2704229633211206 0.24123097208380528 0 1 0 I I #
coedge $-1 $416 $291 $294 $430 forward $284 $-1 #
coedge $-1 $291 $416 $421 $511 forward $284 $-1 #
vertex $-1 $292 $515 #
straight-curve $-1 52.762158825531365 11.621014221033231 9.024706754779217 1 0 0 I I #
straight-curve $-1 -1.8843677784305299 11.621014221033231 107.64991640157709 -0.51503806187062418 0 0.85716730853699208 I I #
edge $-1 $296 11.621014221033231 $509 25.460677632251251 $294 $516 forward 7 unknown #
point $-1 62.653279213843192 11.621014221033231 9.0247067547792117 #
point $-1 62.653279213843192 11.621014221033231 0.24123097208381239 #
edge $-1 $517 1 $517 0 $299 $-1 forward 7 unknown #
vertex $-1 $300 $518 #
ellipse-curve $-1 56.222733537266272 15.575203767095516 2.3546716609128104 0.85716730853699208 0 0.51503806187062418 0.77255709280593621 0 -1.2857509628054882 1 I I #
point $-1 60.787014049575276 15.575203767095516 3.3472179006260285 #
edge $-1 $519 1 $519 0 $303 $-1 forward 7 unknown #
vertex $-1 $304 $520 #
ellipse-curve $-1 56.222733537266272 21.506488086188952 2.3546716609128104 0.85716730853699208 0 0.51503806187062418 0.77255709280593621 0 -1.2857509628054882 1 I I #
point $-1 60.787014049575276 21.506488086188952 3.3472179006260285 #
plane-surface $-1 62.653279213843192 0 0 -1 0 0 0 0 1 forward_v I I I I #
coedge $-1 $312 $310 $314 $446 reversed $201 $-1 #
edge $-1 $325 -9.0247067547792117 $448 9.0247067547792117 $324 $521 forward 7 unknown #
vertex $-1 $446 $522 #
straight-curve $-1 -62.653279213843192 -32.130097595924461 0 0 0 -1 I I #
edge $-1 $444 -32.130097595924461 $448 32.130097595924461 $442 $523 forward 7 unknown #
straight-curve $-1 0 -32.130097595924461 -9.0247067547792117 -1 0 0 I I #
vertex $-1 $317 $524 #
straight-curve $-1 0 32.130097595924461 -9.0247067547792117 1 0 0 I I #
point $-1 62.653279213843192 32.130097595924461 -9.0247067547792117 #
point $-1 62.653279213843192 -32.130097595924461 -9.0247067547792117 #
straight-curve $-1 -62.653279213843192 0 9.0247067547792117 0 -1 0 I I #
point $-1 -62.653279213843192 32.130097595924461 9.0247067547792117 #
point $-1 -62.653279213843192 -32.130097595924461 9.0247067547792117 #
straight-curve $-1 62.653279213843192 -32.130097595924461 0 0 0 -1 I I #
straight-curve $-1 62.653279213843192 32.130097595924461 0 0 0 -1 I I #
plane-surface $-1 62.653279213843192 0 0 -1 0 0 0 0 1 forward_v I I I I #
coedge $-1 $461 $337 $348 $470 forward $220 $-1 #
coedge $-1 $337 $461 $351 $472 reversed $220 $-1 #
straight-curve $-1 62.653279213843192 -25.46067763225124 -2.4590381630629912 0 0 1 I I #
coedge $-1 $459 $458 $340 $462 forward $220 $-1 #
edge $-1 $465 11.062983825207315 $463 17.732403788880536 $461 $525 forward 7 unknown #
vertex $-1 $342 $526 #
straight-curve $-1 0 -32.130097595924461 -6.5099798440540315 1 0 0 I I #
vertex $-1 $462 $527 #
straight-curve $-1 0 -25.46067763225124 -6.5099798440540315 1 0 0 I I #
point $-1 62.653279213843192 -32.130097595924461 -6.5099798440540315 #
point $-1 62.653279213843192 -25.46067763225124 -6.5099798440540315 #
straight-curve $-1 -62.653279213843192 -14.397693807043925 -3.3261728081979336 0 1 0 I I #
edge $-1 $349 0.86713464513494243 $465 4.0509416809910404 $458 $528 forward 7 unknown #
point $-1 -62.653279213843192 -25.46067763225124 -3.3261728081979336 #
edge $-1 $353 3.3261728081979336 $463 6.5099798440540315 $459 $529 forward 7 unknown #
point $-1 -62.653279213843192 -32.130097595924461 -3.3261728081979336 #
straight-curve $-1 62.653279213843192 -32.130097595924461 0 0 0 -1 I I #
plane-surface $-1 0 32.130097595924461 0 0 -1 0 0 0 -1 forward_v I I I I #
coedge $-1 $362 $485 $364 $479 forward $359 $-1 #
vertex $-1 $479 $530 #
straight-curve $-1 -62.653279213843192 25.46067763225124 -2.4590381630629912 0 0 1 I I #
edge $-1 $481 -17.732403788880536 $477 -11.062983825207315 $476 $531 forward 7 unknown #
straight-curve $-1 0 25.46067763225124 -6.5099798440540315 -1 0 0 I I #
vertex $-1 $367 $532 #
straight-curve $-1 0 32.130097595924461 -6.5099798440540315 -1 0 0 I I #
point $-1 62.653279213843192 25.46067763225124 -6.5099798440540315 #
point $-1 62.653279213843192 32.130097595924461 -6.5099798440540315 #
coedge $-1 $476 $371 $374 $487 forward $359 $-1 #
straight-curve $-1 -62.653279213843192 14.397693807043925 -3.3261728081979336 0 1 0 I I #
edge $-1 $376 3.3261728081979336 $481 6.5099798440540315 $374 $533 forward 7 unknown #
point $-1 -62.653279213843192 32.130097595924461 -3.3261728081979336 #
point $-1 -62.653279213843192 25.46067763225124 -3.3261728081979336 #
straight-curve $-1 62.653279213843192 25.46067763225124 -2.4590381630629912 0 0 -1 I I #
straight-curve $-1 62.653279213843192 32.130097595924461 0 0 0 -1 I I #
coedge $-1 $396 $395 $388 $493 forward $385 $-1 #
edge $-1 $494 22.377703107825042 $497 25.298756845854854 $492 $534 forward 7 unknown #
vertex $-1 $493 $535 #
straight-curve $-1 -62.653279213843192 11.802313166815743 34.350451888245779 0 0 1 I I #
edge $-1 $497 2.9879108897490418 $397 14.640893664384361 $396 $536 forward 7 unknown #
vertex $-1 $496 $537 #
straight-curve $-1 -62.653279213843192 11.802313166815743 4.1632567842178361 -0.51503806187062418 0 -0.85716730853699208 I I #
point $-1 -62.653279213843192 11.802313166815743 4.1632567842178361 #
point $-1 -59.732225475813379 23.455295941451062 9.0247067547792117 #
straight-curve $-1 -62.653279213843192 0 9.0247067547792117 0 -1 0 I I #
vertex $-1 $403 $538 #
point $-1 -58.826461007084198 14.132909721742806 6.3388039270463983 #
vertex $-1 $407 $539 #
point $-1 -58.826461007084198 17.628804554133403 6.3388039270463983 #
vertex $-1 $411 $540 #
point $-1 -58.826461007084198 21.124699386524 6.3388039270463983 #
edge $-1 $509 -9.8911203883118262 $512 -4.6134758741641235 $416 $541 forward 7 unknown #
vertex $-1 $420 $542 #
straight-curve $-1 62.653279213843192 25.460677632251251 86.093781696925404 0 0 1 I I #
edge $-1 $512 -16.19025466893013 $427 -2.3505912577121109 $426 $543 forward 7 unknown #
vertex $-1 $511 $544 #
straight-curve $-1 -1.8843677784305299 25.460677632251251 107.64991640157709 0.51503806187062418 0 -0.85716730853699208 I I #
point $-1 62.653279213843192 25.460677632251251 0.24123097208381239 #
point $-1 57.375634699695489 11.621014221033231 9.024706754779217 #
straight-curve $-1 62.653279213843192 0 9.0247067547792117 0 1 0 I I #
vertex $-1 $433 $545 #
point $-1 56.995290630072205 15.575203767095516 1.0689206981073223 #
vertex $-1 $437 $546 #
point $-1 56.995290630072205 21.506488086188952 1.0689206981073223 #
straight-curve $-1 -62.653279213843192 32.130097595924461 0 0 0 -1 I I #
point $-1 -62.653279213843192 -32.130097595924461 -9.0247067547792117 #
straight-curve $-1 -62.653279213843192 0 -9.0247067547792117 0 1 0 I I #
point $-1 -62.653279213843192 32.130097595924461 -9.0247067547792117 #
straight-curve $-1 -62.653279213843192 -14.397693807043925 -6.5099798440540315 0 -1 0 I I #
point $-1 -62.653279213843192 -32.130097595924461 -6.5099798440540315 #
point $-1 -62.653279213843192 -25.46067763225124 -6.5099798440540315 #
straight-curve $-1 -62.653279213843192 -25.46067763225124 -2.4590381630629912 0 0 -1 I I #
straight-curve $-1 -62.653279213843192 -32.130097595924461 0 0 0 -1 I I #
point $-1 -62.653279213843192 25.46067763225124 -6.5099798440540315 #
straight-curve $-1 -62.653279213843192 14.397693807043925 -6.5099798440540315 0 -1 0 I I #
point $-1 -62.653279213843192 32.130097595924461 -6.5099798440540315 #
straight-curve $-1 -62.653279213843192 32.130097595924461 0 0 0 -1 I I #
straight-curve $-1 -85.030982321668233 11.802313166815743 9.0247067547792099 1 0 0 I I #
point $-1 -62.653279213843192 11.802313166815743 9.0247067547792117 #
straight-curve $-1 -59.732225475813372 8.8144022770667014 9.0247067547792117 0 1 0 I I #
point $-1 -59.732225475813379 11.802313166815743 9.0247067547792117 #
point $-1 -58.484331760417831 14.132909721742806 4.9665985566387816 #
point $-1 -58.484331760417831 17.628804554133403 4.9665985566387816 #
point $-1 -58.484331760417831 21.124699386524 4.9665985566387816 #
straight-curve $-1 52.762158825531365 25.460677632251251 9.024706754779217 -1 0 0 I I #
point $-1 62.653279213843192 25.460677632251251 9.0247067547792117 #
straight-curve $-1 57.375634699695496 9.2704229633211206 9.0247067547792028 0 -1 0 I I #
point $-1 57.375634699695489 25.460677632251251 9.024706754779217 #
point $-1 54.936982574460778 15.575203767095516 1.5821145681068742 #
point $-1 54.936982574460778 21.506488086188952 1.5821145681068742 #
End-of-ACIS-data 