500 0 7 0           
7 Unknown 11 ACIS 5.0 NT 24 Fri Mar 26 00:58:13 1999 
-1 9.9999999999999995e-007 1e-010 
body $-1 $7 $-1 $8 #
body $-1 $9 $-1 $10 #
body $-1 $11 $-1 $12 #
body $-1 $13 $-1 $14 #
body $-1 $15 $-1 $16 #
body $-1 $17 $-1 $18 #
body $-1 $19 $-1 $20 #
lump $-1 $-1 $21 $0 #
transform $-1 1 0 0 0 1 0 0 0 1 72.29590746787926 41.681954256139853 17.909362034265186 1 rotate no_reflect no_shear #
lump $-1 $-1 $22 $1 #
transform $-1 1 0 0 0 1 0 0 0 1 72.29590746787926 41.681954256139853 17.909362034265186 1 rotate no_reflect no_shear #
lump $-1 $-1 $23 $2 #
transform $-1 1 0 0 0 1 0 0 0 1 72.29590746787926 41.681954256139853 17.909362034265186 1 rotate no_reflect no_shear #
lump $-1 $-1 $24 $3 #
transform $-1 1 0 0 0 1 0 0 0 1 72.29590746787926 41.681954256139853 17.909362034265186 1 rotate no_reflect no_shear #
lump $-1 $-1 $25 $4 #
transform $-1 1 0 0 0 1 0 0 0 1 72.29590746787926 41.681954256139853 17.909362034265186 1 rotate no_reflect no_shear #
lump $-1 $-1 $26 $5 #
transform $-1 1 0 0 0 1 0 0 0 1 72.29590746787926 41.681954256139853 17.909362034265186 1 rotate no_reflect no_shear #
lump $-1 $-1 $27 $6 #
transform $-1 1 0 0 0 1 0 0 0 1 72.29590746787926 41.681954256139853 17.909362034265186 1 rotate no_reflect no_shear #
shell $-1 $-1 $-1 $28 $-1 $7 #
shell $-1 $-1 $-1 $29 $-1 $9 #
shell $-1 $-1 $-1 $30 $-1 $11 #
shell $-1 $-1 $-1 $31 $-1 $13 #
shell $-1 $-1 $-1 $32 $-1 $15 #
shell $-1 $-1 $-1 $33 $-1 $17 #
shell $-1 $-1 $-1 $34 $-1 $19 #
face $-1 $35 $36 $21 $-1 $37 forward single #
face $-1 $38 $39 $22 $-1 $40 forward single #
face $-1 $41 $42 $23 $-1 $43 reversed single #
face $-1 $44 $45 $24 $-1 $46 forward single #
face $-1 $47 $48 $25 $-1 $49 reversed single #
face $-1 $50 $51 $26 $-1 $52 forward single #
face $-1 $53 $54 $27 $-1 $55 forward single #
face $-1 $56 $57 $21 $-1 $58 reversed single #
loop $-1 $-1 $59 $28 #
plane-surface $-1 0 0 17.909362034265186 0 0 1 1 0 0 forward_v I I I I #
face $-1 $60 $61 $22 $-1 $62 reversed single #
loop $-1 $-1 $63 $29 #
plane-surface $-1 -64.800390998287099 0 -3.5717889014323596 0 0 1 1 0 0 forward_v I I I I #
face $-1 $64 $65 $23 $-1 $66 reversed single #
loop $-1 $-1 $67 $30 #
plane-surface $-1 -30.632935837781346 -118.30394345274871 126.36783250011042 1 0 0 0 0.52991927123019833 -0.84804809178421925 forward_v I I I I #
face $-1 $68 $69 $24 $-1 $70 forward single #
loop $-1 $71 $72 $31 #
cone-surface $-1 -19.350860865823947 -26.679753583078352 4.9550301734080398 0 0.52991927123019833 -0.84804809178421925 4 0 0 1 I I 0 1 4 forward I I I I #
face $-1 $73 $74 $25 $-1 $75 reversed single #
loop $-1 $-1 $76 $32 #
plane-surface $-1 -57.304874528694945 84.976623956241212 174.48947870526149 1 0 0 0 -0.70710678939079041 -0.70710677298230451 forward_v I I I I #
face $-1 $77 $78 $26 $-1 $79 forward single #
loop $-1 $80 $81 $33 #
cone-surface $-1 -49.887023876656414 38.820496580267076 15.047904317842349 0 -0.70710678939079041 -0.70710677298230451 1 0 0 1 I I 0 1 1 forward I I I I #
face $-1 $82 $83 $27 $-1 $84 forward single #
loop $-1 $85 $86 $34 #
cone-surface $-1 -38.760247898598621 38.820496580267076 15.047904317842349 0 -0.70710678939079041 -0.70710677298230451 1 0 0 1 I I 0 1 1 forward I I I I #
face $-1 $87 $88 $21 $-1 $89 reversed single #
loop $-1 $-1 $90 $35 #
plane-surface $-1 0 0 -17.909362034265186 0 0 1 1 0 0 forward_v I I I I #
coedge $-1 $91 $92 $93 $94 forward $36 $-1 #
face $-1 $95 $96 $22 $-1 $97 reversed single #
loop $-1 $-1 $98 $38 #
plane-surface $-1 -64.800390998287099 0 -12.844298649389415 0 0 1 1 0 0 forward_v I I I I #
coedge $-1 $99 $100 $101 $102 forward $39 $-1 #
face $-1 $103 $104 $23 $-1 $105 reversed single #
loop $-1 $-1 $106 $41 #
plane-surface $-1 -19.350860865823947 -41.681954256139846 3.7470197562234375 0 -0.52991927123019833 0.84804809178421925 1 0 0 forward_v I I I I #
coedge $-1 $107 $108 $109 $110 reversed $42 $-1 #
face $-1 $-1 $111 $24 $-1 $112 forward single #
loop $-1 $113 $114 $44 #
cone-surface $-1 -19.350860865823947 -21.949956839326216 -2.614226731996677 0 0.52991927123019833 -0.84804809178421925 2 0 0 1 I I -0.70710678118654746 0.70710678118654746 2 forward I I I I #
loop $-1 $-1 $115 $31 #
coedge $-1 $72 $72 $116 $117 reversed $45 $-1 #
face $-1 $118 $119 $25 $-1 $120 reversed single #
loop $-1 $-1 $121 $47 #
plane-surface $-1 -44.323635887627518 -17.265230075170336 72.247627046382703 0 0.70710678939079041 0.70710677298230451 1 0 0 forward_v I I I I #
coedge $-1 $122 $123 $124 $125 reversed $48 $-1 #
face $-1 $-1 $126 $26 $-1 $127 forward single #
loop $-1 $128 $129 $50 #
cone-surface $-1 -49.887023876656414 37.909945799757729 14.137353558462429 0 -0.70710678939079041 -0.70710677298230451 0.5 0 0 1 I I -0.70710678118654746 0.70710678118654746 0.5 forward I I I I #
loop $-1 $-1 $130 $33 #
coedge $-1 $81 $81 $131 $132 reversed $51 $-1 #
face $-1 $-1 $133 $27 $-1 $134 forward single #
loop $-1 $135 $136 $53 #
cone-surface $-1 -38.760247898598621 37.909945799757729 14.137353558462429 0 -0.70710678939079041 -0.70710677298230451 0.5 0 0 1 I I -0.70710678118654746 0.70710678118654746 0.5 forward I I I I #
loop $-1 $-1 $137 $34 #
coedge $-1 $86 $86 $138 $139 reversed $54 $-1 #
face $-1 $140 $141 $21 $-1 $142 reversed single #
loop $-1 $-1 $143 $56 #
plane-surface $-1 0 -41.681954256139853 0 0 1 0 0 0 1 forward_v I I I I #
coedge $-1 $144 $145 $146 $147 forward $57 $-1 #
coedge $-1 $148 $59 $149 $150 forward $36 $-1 #
coedge $-1 $59 $148 $151 $152 forward $36 $-1 #
coedge $-1 $153 $154 $59 $94 reversed $155 $-1 #
edge $-1 $156 -41.681954256139853 $157 41.681954256139853 $93 $158 forward 7 unknown #
face $-1 $159 $160 $22 $-1 $161 reversed single #
loop $-1 $-1 $162 $60 #
plane-surface $-1 -57.304874528694938 0 -8.2080437754108875 -1 0 0 0 0 1 forward_v I I I I #
coedge $-1 $163 $164 $165 $166 forward $61 $-1 #
coedge $-1 $167 $63 $168 $169 reversed $39 $-1 #
coedge $-1 $63 $167 $170 $171 reversed $39 $-1 #
coedge $-1 $162 $172 $63 $102 reversed $96 $-1 #
edge $-1 $173 -41.681954256139853 $174 41.681954256139853 $101 $175 forward 7 unknown #
face $-1 $176 $177 $23 $-1 $178 forward single #
loop $-1 $-1 $179 $64 #
plane-surface $-1 -8.0687858938665471 -118.30394345274871 126.36783250011042 -1 0 0 0 -0.52991927123019833 0.84804809178421925 forward_v I I I I #
coedge $-1 $180 $181 $182 $183 reversed $65 $-1 #
coedge $-1 $108 $67 $184 $185 reversed $42 $-1 #
coedge $-1 $67 $107 $180 $186 reversed $42 $-1 #
coedge $-1 $182 $187 $67 $110 forward $188 $-1 #
edge $-1 $189 45.274554215790026 $190 59.436896493831782 $109 $191 forward 7 unknown #
loop $-1 $-1 $116 $68 #
plane-surface $-1 -19.350860865823947 -41.681954256139846 3.7470197562234375 0 -0.52991927123019833 0.84804809178421925 1 0 0 forward_v I I I I #
loop $-1 $-1 $192 $44 #
coedge $-1 $114 $114 $115 $193 reversed $69 $-1 #
coedge $-1 $115 $115 $114 $193 forward $71 $-1 #
coedge $-1 $116 $116 $72 $117 forward $111 $-1 #
edge $-1 $194 1.408839851333494e-016 $194 6.2831853071796004 $116 $195 forward 7 unknown #
face $-1 $196 $197 $25 $-1 $198 reversed single #
loop $-1 $-1 $199 $73 #
plane-surface $-1 -31.34239724656009 84.976623956241212 174.48947870526149 -1 0 0 0 0.70710678939079041 0.70710677298230451 forward_v I I I I #
coedge $-1 $200 $201 $202 $203 reversed $74 $-1 #
coedge $-1 $123 $76 $204 $205 reversed $48 $-1 #
coedge $-1 $76 $122 $200 $206 reversed $48 $-1 #
coedge $-1 $202 $207 $76 $125 forward $208 $-1 #
edge $-1 $209 0.80635772198075273 $210 5.4152783020984643 $124 $211 forward 7 unknown #
loop $-1 $-1 $131 $77 #
plane-surface $-1 -44.323635887627518 -17.265230075170336 72.247627046382703 0 0.70710678939079041 0.70710677298230451 1 0 0 forward_v I I I I #
loop $-1 $-1 $212 $50 #
coedge $-1 $129 $129 $130 $213 reversed $78 $-1 #
coedge $-1 $130 $130 $129 $213 forward $80 $-1 #
coedge $-1 $131 $131 $81 $132 forward $126 $-1 #
edge $-1 $214 2.5121474966841463e-015 $214 6.2831853071796031 $131 $215 forward 7 unknown #
loop $-1 $-1 $138 $82 #
plane-surface $-1 -44.323635887627518 -17.265230075170336 72.247627046382703 0 0.70710678939079041 0.70710677298230451 1 0 0 forward_v I I I I #
loop $-1 $-1 $216 $53 #
coedge $-1 $136 $136 $137 $217 reversed $83 $-1 #
coedge $-1 $137 $137 $136 $217 forward $85 $-1 #
coedge $-1 $138 $138 $86 $139 forward $133 $-1 #
edge $-1 $218 2.5121474966841463e-015 $218 6.2831853071796031 $138 $219 forward 7 unknown #
face $-1 $220 $221 $21 $-1 $222 reversed single #
loop $-1 $-1 $223 $87 #
plane-surface $-1 -72.29590746787926 0 0 1 0 0 0 0 -1 forward_v I I I I #
coedge $-1 $224 $151 $225 $226 forward $88 $-1 #
coedge $-1 $227 $90 $224 $228 forward $57 $-1 #
coedge $-1 $90 $227 $229 $230 forward $57 $-1 #
coedge $-1 $154 $153 $90 $147 reversed $155 $-1 #
edge $-1 $231 -41.681954256139853 $232 41.681954256139853 $146 $233 forward 7 unknown #
coedge $-1 $92 $91 $234 $235 forward $36 $-1 #
coedge $-1 $236 $237 $91 $150 reversed $221 $-1 #
edge $-1 $157 -72.29590746787926 $238 72.29590746787926 $149 $239 forward 7 unknown #
coedge $-1 $143 $240 $92 $152 reversed $88 $-1 #
edge $-1 $241 -72.29590746787926 $156 72.29590746787926 $151 $242 forward 7 unknown #
coedge $-1 $146 $93 $240 $243 forward $155 $-1 #
coedge $-1 $93 $146 $236 $244 reversed $155 $-1 #
loop $-1 $-1 $153 $220 #
vertex $-1 $94 $245 #
vertex $-1 $94 $246 #
straight-curve $-1 72.29590746787926 0 17.909362034265186 0 1 0 I I #
face $-1 $247 $248 $22 $-1 $249 reversed single #
loop $-1 $-1 $250 $95 #
plane-surface $-1 0 -41.681954256139853 0 0 1 0 0 0 1 forward_v I I I I #
coedge $-1 $165 $101 $251 $252 reversed $96 $-1 #
coedge $-1 $253 $98 $250 $254 reversed $61 $-1 #
coedge $-1 $98 $253 $255 $256 reversed $61 $-1 #
coedge $-1 $172 $162 $98 $166 reversed $96 $-1 #
edge $-1 $257 -41.681954256139853 $258 41.681954256139853 $165 $259 forward 7 unknown #
coedge $-1 $100 $99 $260 $261 reversed $39 $-1 #
coedge $-1 $262 $263 $99 $169 forward $264 $-1 #
edge $-1 $265 -39.895711968735711 $174 -24.904679029551389 $168 $266 forward 7 unknown #
coedge $-1 $267 $251 $100 $171 forward $160 $-1 #
edge $-1 $173 24.904679029551389 $268 39.895711968735711 $170 $269 forward 7 unknown #
coedge $-1 $101 $165 $262 $270 reversed $96 $-1 #
vertex $-1 $171 $271 #
vertex $-1 $169 $272 #
straight-curve $-1 -57.304874528694938 0 -3.5717889014323596 0 1 0 I I #
face $-1 $-1 $188 $23 $-1 $273 reversed single #
loop $-1 $-1 $274 $103 #
plane-surface $-1 0 0 17.909362034265186 0 0 1 1 0 0 forward_v I I I I #
coedge $-1 $275 $276 $277 $278 reversed $104 $-1 #
coedge $-1 $279 $106 $108 $186 forward $65 $-1 #
coedge $-1 $106 $279 $275 $280 forward $65 $-1 #
coedge $-1 $277 $109 $106 $183 forward $188 $-1 #
edge $-1 $190 -20.957505404869373 $281 1.6066445390454263 $182 $282 forward 7 unknown #
coedge $-1 $283 $284 $107 $185 forward $177 $-1 #
edge $-1 $285 -40.134502413774051 $189 -17.470017470234502 $184 $286 forward 7 unknown #
edge $-1 $190 -8.3790584163743152e-015 $285 26.725471306533386 $108 $287 forward 7 unknown #
coedge $-1 $109 $277 $283 $288 reversed $188 $-1 #
loop $-1 $-1 $277 $176 #
vertex $-1 $288 $289 #
vertex $-1 $110 $290 #
straight-curve $-1 -30.632935837781346 -41.681954256139853 63.183916250055212 0 0 -1 I I #
coedge $-1 $192 $192 $-1 $291 reversed $113 $-1 #
edge $-1 $292 0 $292 6.2831853071796004 $114 $293 forward 7 unknown #
vertex $-1 $117 $294 #
ellipse-curve $-1 -19.350860865823947 -30.349711784370086 10.828190895244305 0 -0.52991927123019833 0.84804809178421925 4 0 0 1 I I #
face $-1 $-1 $208 $25 $-1 $295 forward single #
loop $-1 $-1 $296 $118 #
plane-surface $-1 0 41.681954256139853 0 0 -1 0 0 0 -1 forward_v I I I I #
coedge $-1 $297 $298 $299 $300 reversed $119 $-1 #
coedge $-1 $301 $121 $123 $206 forward $74 $-1 #
coedge $-1 $121 $301 $297 $302 forward $74 $-1 #
coedge $-1 $299 $124 $121 $203 forward $208 $-1 #
edge $-1 $210 -35.143056584881187 $303 -9.1805793027463309 $202 $304 forward 7 unknown #
coedge $-1 $305 $306 $122 $205 forward $197 $-1 #
edge $-1 $307 -73.944298005433751 $209 -69.335377318365559 $204 $308 forward 7 unknown #
edge $-1 $210 76.845910444351418 $307 83.363908512279764 $123 $309 forward 7 unknown #
coedge $-1 $124 $299 $305 $310 forward $208 $-1 #
loop $-1 $-1 $299 $196 #
vertex $-1 $205 $311 #
vertex $-1 $125 $312 #
straight-curve $-1 -57.304874528694945 42.488311978120606 17.909362034265186 0 -1 0 I I #
coedge $-1 $212 $212 $-1 $313 reversed $128 $-1 #
edge $-1 $314 0 $314 6.2831853071796004 $129 $315 forward 7 unknown #
vertex $-1 $132 $316 #
ellipse-curve $-1 -49.887023876656414 39.377493966080998 15.604901690731092 0 0.70710678939079041 0.70710677298230451 1 0 0 1 I I #
coedge $-1 $216 $216 $-1 $317 reversed $135 $-1 #
edge $-1 $318 0 $318 6.2831853071796004 $136 $319 forward 7 unknown #
vertex $-1 $139 $320 #
ellipse-curve $-1 -38.760247898598621 39.377493966080998 15.604901690731092 0 0.70710678939079041 0.70710677298230451 1 0 0 1 I I #
face $-1 $-1 $155 $21 $-1 $321 reversed single #
loop $-1 $-1 $236 $140 #
plane-surface $-1 0 41.681954256139853 0 0 -1 0 0 0 -1 forward_v I I I I #
coedge $-1 $322 $234 $237 $323 forward $141 $-1 #
coedge $-1 $240 $143 $144 $228 reversed $88 $-1 #
coedge $-1 $234 $322 $143 $226 reversed $141 $-1 #
edge $-1 $241 -17.909362034265186 $324 17.909362034265186 $225 $325 forward 7 unknown #
coedge $-1 $145 $144 $322 $326 forward $57 $-1 #
edge $-1 $232 -72.29590746787926 $324 72.29590746787926 $224 $327 forward 7 unknown #
coedge $-1 $237 $236 $145 $230 reversed $221 $-1 #
edge $-1 $328 -72.29590746787926 $231 72.29590746787926 $229 $329 forward 7 unknown #
vertex $-1 $147 $330 #
vertex $-1 $243 $331 #
straight-curve $-1 72.29590746787926 0 -17.909362034265186 0 -1 0 I I #
coedge $-1 $223 $225 $148 $235 reversed $141 $-1 #
edge $-1 $238 -41.681954256139853 $241 41.681954256139853 $234 $332 forward 7 unknown #
coedge $-1 $229 $149 $154 $244 forward $221 $-1 #
coedge $-1 $149 $229 $223 $323 reversed $221 $-1 #
vertex $-1 $150 $333 #
straight-curve $-1 0 41.681954256139853 17.909362034265186 -1 0 0 I I #
coedge $-1 $151 $224 $153 $243 reversed $88 $-1 #
vertex $-1 $235 $334 #
straight-curve $-1 0 -41.681954256139853 17.909362034265186 1 0 0 I I #
edge $-1 $156 -17.909362034265186 $232 17.909362034265186 $153 $335 forward 7 unknown #
edge $-1 $157 -17.909362034265186 $231 17.909362034265186 $154 $336 forward 7 unknown #
point $-1 72.29590746787926 -41.681954256139853 17.909362034265186 #
point $-1 72.29590746787926 41.681954256139853 17.909362034265186 #
face $-1 $-1 $264 $22 $-1 $337 reversed single #
loop $-1 $-1 $338 $159 #
plane-surface $-1 -72.29590746787926 0 0 1 0 0 0 0 -1 forward_v I I I I #
coedge $-1 $251 $267 $163 $254 forward $160 $-1 #
coedge $-1 $170 $250 $162 $252 forward $160 $-1 #
edge $-1 $258 -8.7402767616839725 $173 0.53223298627308413 $251 $339 forward 7 unknown #
coedge $-1 $164 $163 $338 $340 reversed $61 $-1 #
edge $-1 $341 -39.895711968735711 $258 -24.904679029551389 $250 $342 forward 7 unknown #
coedge $-1 $263 $262 $164 $256 forward $264 $-1 #
edge $-1 $257 24.904679029551389 $343 39.895711968735711 $255 $344 forward 7 unknown #
vertex $-1 $256 $345 #
vertex $-1 $254 $346 #
straight-curve $-1 -57.304874528694938 0 -12.844298649389415 0 -1 0 I I #
coedge $-1 $347 $348 $167 $261 forward $248 $-1 #
edge $-1 $268 -41.681954256139853 $265 41.681954256139853 $260 $349 forward 7 unknown #
coedge $-1 $255 $168 $172 $270 forward $264 $-1 #
coedge $-1 $168 $255 $347 $350 reversed $264 $-1 #
loop $-1 $-1 $255 $247 #
vertex $-1 $350 $351 #
straight-curve $-1 -32.40019549914355 41.681954256139853 -3.5717889014323596 1 0 0 I I #
coedge $-1 $250 $170 $348 $352 forward $160 $-1 #
vertex $-1 $352 $353 #
straight-curve $-1 -32.40019549914355 -41.681954256139853 -3.5717889014323596 -1 0 0 I I #
edge $-1 $174 -0.53223298627308413 $257 8.7402767616839725 $262 $354 forward 7 unknown #
point $-1 -57.304874528694938 -41.681954256139853 -3.5717889014323596 #
point $-1 -57.304874528694938 41.681954256139853 -3.5717889014323596 #
plane-surface $-1 0 -41.681954256139853 0 0 1 0 0 0 1 forward_v I I I I #
coedge $-1 $284 $283 $276 $355 forward $177 $-1 #
coedge $-1 $276 $179 $181 $280 reversed $104 $-1 #
coedge $-1 $179 $275 $274 $355 reversed $104 $-1 #
coedge $-1 $187 $182 $179 $278 forward $188 $-1 #
edge $-1 $281 -59.436896493831782 $356 -45.274554215790026 $277 $357 forward 7 unknown #
coedge $-1 $181 $180 $284 $358 reversed $65 $-1 #
edge $-1 $359 -26.725471306533386 $281 8.3790584163743152e-015 $275 $360 forward 7 unknown #
vertex $-1 $183 $361 #
straight-curve $-1 -9.6754304329119734 -41.681954256139853 3.7470197562234295 1 0 0 I I #
coedge $-1 $274 $184 $187 $288 forward $177 $-1 #
coedge $-1 $184 $274 $279 $358 forward $177 $-1 #
vertex $-1 $185 $362 #
straight-curve $-1 -30.632935837781346 -59.151971726374356 17.909362034265186 0 -1 0 I I #
straight-curve $-1 -30.632935837781346 -41.681954256139846 3.7470197562234375 0 0.84804809178421925 0.52991927123019833 I I #
edge $-1 $189 -30.632935837781346 $356 -8.0687858938665471 $187 $363 forward 7 unknown #
point $-1 -30.632935837781346 -41.681954256139853 17.909362034265186 #
point $-1 -30.632935837781346 -41.681954256139853 3.7470197562234331 #
edge $-1 $364 1 $364 0 $192 $-1 forward 7 unknown #
vertex $-1 $193 $365 #
ellipse-curve $-1 -19.350860865823947 -23.009795381786613 -0.91813054842823849 0 -0.52991927123019833 0.84804809178421925 4 0 0 1 I I #
point $-1 -15.350860865823947 -30.349711784370093 10.828190895244317 #
plane-surface $-1 0 0 17.909362034265186 0 0 1 1 0 0 forward_v I I I I #
coedge $-1 $306 $305 $298 $366 forward $197 $-1 #
coedge $-1 $298 $199 $201 $302 reversed $119 $-1 #
coedge $-1 $199 $297 $296 $366 reversed $119 $-1 #
coedge $-1 $207 $202 $199 $300 forward $208 $-1 #
edge $-1 $303 -5.4152783020984643 $367 -0.80635772198075273 $299 $368 forward 7 unknown #
coedge $-1 $201 $200 $306 $369 reversed $74 $-1 #
edge $-1 $370 -83.363908512279764 $303 -76.845910444351418 $297 $371 forward 7 unknown #
vertex $-1 $203 $372 #
straight-curve $-1 -22.161817943813759 37.073033676022149 17.909362034265179 1 0 0 I I #
coedge $-1 $296 $204 $207 $310 reversed $197 $-1 #
coedge $-1 $204 $296 $301 $369 forward $197 $-1 #
vertex $-1 $205 $373 #
straight-curve $-1 -57.304874528694945 41.681954256139853 87.244739352630745 0 0 1 I I #
straight-curve $-1 -57.304874528694945 -17.265230075170336 72.247627046382703 0 0.70710677298230451 -0.70710678939079041 I I #
edge $-1 $367 31.34239724656009 $209 57.304874528694945 $305 $374 forward 7 unknown #
point $-1 -57.304874528694945 41.681954256139853 17.909362034265186 #
point $-1 -57.304874528694945 37.073033676022142 17.909362034265186 #
edge $-1 $375 1 $375 0 $212 $-1 forward 7 unknown #
vertex $-1 $213 $376 #
ellipse-curve $-1 -49.887023876656414 38.263499194453125 14.490906944953581 0 0.70710678939079041 0.70710677298230451 1 0 0 1 I I #
point $-1 -48.887023876656414 39.377493966081026 15.604901690731117 #
edge $-1 $377 1 $377 0 $216 $-1 forward 7 unknown #
vertex $-1 $217 $378 #
ellipse-curve $-1 -38.760247898598621 38.263499194453125 14.490906944953581 0 0.70710678939079041 0.70710677298230451 1 0 0 1 I I #
point $-1 -37.760247898598621 39.377493966081026 15.604901690731117 #
plane-surface $-1 72.29590746787926 0 0 -1 0 0 0 0 1 forward_v I I I I #
coedge $-1 $225 $223 $227 $326 reversed $141 $-1 #
edge $-1 $238 -17.909362034265186 $328 17.909362034265186 $237 $379 forward 7 unknown #
vertex $-1 $326 $380 #
straight-curve $-1 -72.29590746787926 -41.681954256139853 0 0 0 -1 I I #
edge $-1 $324 -41.681954256139853 $328 41.681954256139853 $322 $381 forward 7 unknown #
straight-curve $-1 0 -41.681954256139853 -17.909362034265186 -1 0 0 I I #
vertex $-1 $230 $382 #
straight-curve $-1 0 41.681954256139853 -17.909362034265186 1 0 0 I I #
point $-1 72.29590746787926 41.681954256139853 -17.909362034265186 #
point $-1 72.29590746787926 -41.681954256139853 -17.909362034265186 #
straight-curve $-1 -72.29590746787926 0 17.909362034265186 0 -1 0 I I #
point $-1 -72.29590746787926 41.681954256139853 17.909362034265186 #
point $-1 -72.29590746787926 -41.681954256139853 17.909362034265186 #
straight-curve $-1 72.29590746787926 -41.681954256139853 0 0 0 -1 I I #
straight-curve $-1 72.29590746787926 41.681954256139853 0 0 0 -1 I I #
plane-surface $-1 0 41.681954256139853 0 0 -1 0 0 0 -1 forward_v I I I I #
coedge $-1 $348 $347 $253 $340 forward $248 $-1 #
straight-curve $-1 -57.304874528694938 -41.681954256139853 -4.1040218877054437 0 0 1 I I #
edge $-1 $343 -41.681954256139853 $341 41.681954256139853 $338 $383 forward 7 unknown #
vertex $-1 $254 $384 #
straight-curve $-1 -32.40019549914355 -41.681954256139853 -12.844298649389415 1 0 0 I I #
vertex $-1 $256 $385 #
straight-curve $-1 -32.40019549914355 41.681954256139853 -12.844298649389415 -1 0 0 I I #
point $-1 -57.304874528694938 41.681954256139853 -12.844298649389415 #
point $-1 -57.304874528694938 -41.681954256139853 -12.844298649389415 #
coedge $-1 $338 $260 $263 $350 forward $248 $-1 #
coedge $-1 $260 $338 $267 $352 reversed $248 $-1 #
straight-curve $-1 -72.29590746787926 0 -3.5717889014323596 0 1 0 I I #
edge $-1 $265 3.5717889014323596 $343 12.844298649389415 $263 $386 forward 7 unknown #
point $-1 -72.29590746787926 41.681954256139853 -3.5717889014323596 #
edge $-1 $268 3.5717889014323596 $341 12.844298649389415 $348 $387 forward 7 unknown #
point $-1 -72.29590746787926 -41.681954256139853 -3.5717889014323596 #
straight-curve $-1 -57.304874528694938 41.681954256139853 -4.1040218877054437 0 0 -1 I I #
edge $-1 $356 17.470017470234502 $359 40.134502413774051 $274 $388 forward 7 unknown #
vertex $-1 $355 $389 #
straight-curve $-1 -8.0687858938665471 -41.681954256139853 63.183916250055212 0 0 1 I I #
edge $-1 $359 -1.6066445390454263 $285 20.957505404869373 $284 $390 forward 7 unknown #
vertex $-1 $358 $391 #
straight-curve $-1 -8.0687858938665471 -41.681954256139846 3.7470197562234375 0 -0.84804809178421925 -0.52991927123019833 I I #
point $-1 -8.0687858938665471 -41.681954256139853 3.7470197562234331 #
point $-1 -30.632935837781346 -19.017469312600305 17.909362034265186 #
straight-curve $-1 0 -41.681954256139853 17.909362034265186 1 0 0 I I #
vertex $-1 $291 $392 #
point $-1 -15.350860865823947 -23.009795381786613 -0.91813054842823849 #
edge $-1 $367 69.335377318365559 $370 73.944298005433751 $296 $393 forward 7 unknown #
vertex $-1 $310 $394 #
straight-curve $-1 -31.34239724656009 42.488311978120606 17.909362034265186 0 1 0 I I #
edge $-1 $370 9.1805793027463309 $307 35.143056584881187 $306 $395 forward 7 unknown #
vertex $-1 $369 $396 #
straight-curve $-1 -31.34239724656009 -17.265230075170336 72.247627046382703 0 -0.70710677298230451 0.70710678939079041 I I #
point $-1 -31.34239724656009 37.073033676022142 17.909362034265186 #
point $-1 -57.304874528694945 41.681954256139853 13.300441347196994 #
straight-curve $-1 0 41.681954256139853 17.909362034265186 -1 0 0 I I #
vertex $-1 $313 $397 #
point $-1 -48.887023876656414 38.263499194453125 14.490906944953581 #
vertex $-1 $317 $398 #
point $-1 -37.760247898598621 38.263499194453125 14.490906944953581 #
straight-curve $-1 -72.29590746787926 41.681954256139853 0 0 0 -1 I I #
point $-1 -72.29590746787926 -41.681954256139853 -17.909362034265186 #
straight-curve $-1 -72.29590746787926 0 -17.909362034265186 0 1 0 I I #
point $-1 -72.29590746787926 41.681954256139853 -17.909362034265186 #
straight-curve $-1 -72.29590746787926 0 -12.844298649389415 0 -1 0 I I #
point $-1 -72.29590746787926 -41.681954256139853 -12.844298649389415 #
point $-1 -72.29590746787926 41.681954256139853 -12.844298649389415 #
straight-curve $-1 -72.29590746787926 41.681954256139853 0 0 0 -1 I I #
straight-curve $-1 -72.29590746787926 -41.681954256139853 0 0 0 -1 I I #
straight-curve $-1 -8.0687858938665471 -59.151971726374356 17.909362034265186 0 1 0 I I #
point $-1 -8.0687858938665471 -41.681954256139853 17.909362034265186 #
straight-curve $-1 -9.6754304329119734 -19.017469312600305 17.909362034265186 -1 0 0 I I #
point $-1 -8.0687858938665471 -19.017469312600305 17.909362034265186 #
point $-1 -19.350860865823947 -20.890118296865818 -4.3103229155651155 #
straight-curve $-1 -31.34239724656009 41.681954256139853 87.244739352630745 0 0 -1 I I #
point $-1 -31.34239724656009 41.681954256139853 17.909362034265186 #
straight-curve $-1 -22.161817943813759 41.681954256139853 13.300441347197001 -1 0 0 I I #
point $-1 -31.34239724656009 41.681954256139853 13.300441347196994 #
point $-1 -49.887023876656414 37.556392405062333 13.783800171971277 #
point $-1 -38.760247898598621 37.556392405062333 13.783800171971277 #
End-of-ACIS-data 