500 0 6 0           
7 Unknown 11 ACIS 5.0 NT 24 Fri Mar 26 01:08:50 1999 
-1 9.9999999999999995e-007 1e-010 
body $-1 $6 $-1 $7 #
body $-1 $8 $-1 $9 #
body $-1 $10 $-1 $11 #
body $-1 $12 $-1 $13 #
body $-1 $14 $-1 $15 #
body $-1 $16 $-1 $17 #
lump $-1 $-1 $18 $0 #
transform $-1 1 0 0 0 1 0 0 0 1 64.234138004699844 32.860818261024292 13.246719636464849 1 rotate no_reflect no_shear #
lump $-1 $-1 $19 $1 #
transform $-1 1 0 0 0 1 0 0 0 1 64.234138004699844 32.860818261024292 13.246719636464849 1 rotate no_reflect no_shear #
lump $-1 $-1 $20 $2 #
transform $-1 1 0 0 0 1 0 0 0 1 64.234138004699844 32.860818261024292 13.246719636464849 1 rotate no_reflect no_shear #
lump $-1 $-1 $21 $3 #
transform $-1 1 0 0 0 1 0 0 0 1 64.234138004699844 32.860818261024292 13.246719636464849 1 rotate no_reflect no_shear #
lump $-1 $-1 $22 $4 #
transform $-1 1 0 0 0 1 0 0 0 1 64.234138004699844 32.860818261024292 13.246719636464849 1 rotate no_reflect no_shear #
lump $-1 $-1 $23 $5 #
transform $-1 1 0 0 0 1 0 0 0 1 64.234138004699844 32.860818261024292 13.246719636464849 1 rotate no_reflect no_shear #
shell $-1 $-1 $-1 $24 $-1 $6 #
shell $-1 $-1 $-1 $25 $-1 $8 #
shell $-1 $-1 $-1 $26 $-1 $10 #
shell $-1 $-1 $-1 $27 $-1 $12 #
shell $-1 $-1 $-1 $28 $-1 $14 #
shell $-1 $-1 $-1 $29 $-1 $16 #
face $-1 $30 $31 $18 $-1 $32 forward single #
face $-1 $33 $34 $19 $-1 $35 forward single #
face $-1 $36 $37 $20 $-1 $38 reversed single #
face $-1 $39 $40 $21 $-1 $41 forward single #
face $-1 $42 $43 $22 $-1 $44 reversed single #
face $-1 $45 $46 $23 $-1 $47 forward single #
face $-1 $48 $49 $18 $-1 $50 reversed single #
loop $-1 $-1 $51 $24 #
plane-surface $-1 0 0 13.246719636464849 0 0 1 1 0 0 forward_v I I I I #
face $-1 $52 $53 $19 $-1 $54 forward single #
loop $-1 $-1 $55 $25 #
plane-surface $-1 0 -32.860818261024292 0 0 1 0 0 0 1 forward_v I I I I #
face $-1 $56 $57 $20 $-1 $58 reversed single #
loop $-1 $-1 $59 $26 #
plane-surface $-1 45.243243641288529 -13.537487016792436 183.45039220339007 0 -1 0 -0.62932039886446345 0 -0.77714595512881146 forward_v I I I I #
face $-1 $60 $61 $21 $-1 $62 forward single #
loop $-1 $63 $64 $27 #
cone-surface $-1 57.167572404978586 -18.121333731927827 7.2717773953469749 -0.62932039886446345 0 -0.77714595512881146 0.77714595512881146 0 -0.62932039886446345 1 I I 0 1 1 forward I I I I #
face $-1 $65 $66 $22 $-1 $67 reversed single #
loop $-1 $-1 $68 $28 #
plane-surface $-1 -146.81195507629695 0.70375486399979792 100.41878504225396 0 1 0 -0.64278761758704617 0 0.76604443648966558 forward_v I I I I #
face $-1 $69 $70 $23 $-1 $71 forward single #
loop $-1 $72 $73 $29 #
cone-surface $-1 -56.641722676560299 7.702772443888307 6.5604578966132596 0.64278761758704617 0 -0.76604443648966558 1.915111091224164 0 1.6069690439676154 1 I I 0 1 2.5 forward I I I I #
face $-1 $74 $75 $18 $-1 $76 reversed single #
loop $-1 $-1 $77 $30 #
plane-surface $-1 0 0 -13.246719636464849 0 0 1 1 0 0 forward_v I I I I #
coedge $-1 $78 $79 $80 $81 forward $31 $-1 #
face $-1 $82 $83 $19 $-1 $84 reversed single #
loop $-1 $-1 $85 $33 #
plane-surface $-1 0 0 13.246719636464849 0 0 1 1 0 0 forward_v I I I I #
coedge $-1 $86 $87 $88 $89 forward $34 $-1 #
face $-1 $90 $91 $20 $-1 $92 reversed single #
loop $-1 $-1 $93 $36 #
plane-surface $-1 -35.604463058376865 -18.121333731927827 83.611791140313372 0.62932039886446345 0 0.77714595512881146 0.77714595512881146 0 -0.62932039886446345 forward_v I I I I #
coedge $-1 $94 $95 $96 $97 reversed $37 $-1 #
face $-1 $-1 $98 $21 $-1 $99 forward single #
loop $-1 $100 $101 $39 #
cone-surface $-1 56.258834670902488 -18.121333731927827 6.1495797745731089 -0.62932039886446345 0 -0.77714595512881146 0.38857297756440573 0 -0.31466019943223172 1 I I -0.70710678118654746 0.70710678118654746 0.5 forward I I I I #
loop $-1 $-1 $102 $27 #
coedge $-1 $64 $64 $103 $104 reversed $40 $-1 #
face $-1 $105 $106 $22 $-1 $107 reversed single #
loop $-1 $-1 $108 $42 #
plane-surface $-1 -64.234138004699844 7.702772443888307 2.0063769398345528 -0.64278761758704617 0 0.76604443648966558 0.76604443648966558 0 0.64278761758704617 forward_v I I I I #
coedge $-1 $109 $110 $111 $112 reversed $43 $-1 #
face $-1 $-1 $113 $23 $-1 $114 forward single #
loop $-1 $115 $116 $45 #
cone-surface $-1 -54.943682081500185 7.702772443888307 4.5368119594647425 0.64278761758704617 0 -0.76604443648966558 0.957555545612082 0 0.80348452198380771 1 I I -0.70710678118654746 0.70710678118654746 1.25 forward I I I I #
loop $-1 $-1 $117 $29 #
coedge $-1 $73 $73 $118 $119 reversed $46 $-1 #
face $-1 $120 $121 $18 $-1 $122 reversed single #
loop $-1 $-1 $123 $48 #
plane-surface $-1 0 -32.860818261024292 0 0 1 0 0 0 1 forward_v I I I I #
coedge $-1 $124 $125 $126 $127 forward $49 $-1 #
coedge $-1 $128 $51 $129 $130 forward $31 $-1 #
coedge $-1 $51 $128 $131 $132 forward $31 $-1 #
coedge $-1 $133 $134 $51 $81 reversed $135 $-1 #
edge $-1 $136 -32.860818261024292 $137 32.860818261024292 $80 $138 forward 7 unknown #
face $-1 $139 $140 $19 $-1 $141 reversed single #
loop $-1 $-1 $142 $52 #
plane-surface $-1 -64.234138004699844 0 0 1 0 0 0 0 -1 forward_v I I I I #
coedge $-1 $143 $144 $145 $146 forward $53 $-1 #
coedge $-1 $145 $55 $142 $147 reversed $34 $-1 #
coedge $-1 $55 $145 $148 $149 reversed $34 $-1 #
coedge $-1 $150 $151 $55 $89 reversed $140 $-1 #
edge $-1 $152 -64.234138004699844 $153 64.234138004699844 $88 $154 forward 7 unknown #
face $-1 $155 $156 $20 $-1 $157 reversed single #
loop $-1 $-1 $158 $56 #
plane-surface $-1 45.243243641288529 -22.705180447063217 183.45039220339007 0 1 0 0.62932039886446345 0 0.77714595512881146 forward_v I I I I #
coedge $-1 $159 $160 $161 $162 reversed $57 $-1 #
coedge $-1 $95 $59 $163 $164 reversed $37 $-1 #
coedge $-1 $59 $94 $159 $165 reversed $37 $-1 #
coedge $-1 $161 $166 $59 $97 forward $167 $-1 #
edge $-1 $168 -41.612516184055579 $169 -28.667540053900737 $96 $170 forward 7 unknown #
loop $-1 $-1 $103 $60 #
plane-surface $-1 -35.604463058376865 -18.121333731927827 83.611791140313372 0.62932039886446345 0 0.77714595512881146 0.77714595512881146 0 -0.62932039886446345 forward_v I I I I #
loop $-1 $-1 $171 $39 #
coedge $-1 $101 $101 $102 $172 reversed $61 $-1 #
coedge $-1 $102 $102 $101 $172 forward $63 $-1 #
coedge $-1 $103 $103 $64 $104 forward $98 $-1 #
edge $-1 $173 0 $173 6.2831853071796004 $103 $174 forward 7 unknown #
face $-1 $175 $176 $22 $-1 $177 forward single #
loop $-1 $-1 $178 $65 #
plane-surface $-1 -146.81195507629695 14.701790023776816 100.41878504225396 0 -1 0 0.64278761758704617 0 -0.76604443648966558 forward_v I I I I #
coedge $-1 $179 $180 $181 $182 reversed $66 $-1 #
coedge $-1 $110 $68 $183 $184 reversed $43 $-1 #
coedge $-1 $68 $109 $179 $185 reversed $43 $-1 #
coedge $-1 $181 $186 $68 $112 forward $176 $-1 #
edge $-1 $187 9.1718395334486331 $188 22.567558043575097 $111 $189 forward 7 unknown #
loop $-1 $-1 $118 $69 #
plane-surface $-1 -64.234138004699844 7.702772443888307 2.0063769398345528 -0.64278761758704617 0 0.76604443648966558 0.76604443648966558 0 0.64278761758704617 forward_v I I I I #
loop $-1 $-1 $190 $45 #
coedge $-1 $116 $116 $117 $191 reversed $70 $-1 #
coedge $-1 $117 $117 $116 $191 forward $72 $-1 #
coedge $-1 $118 $118 $73 $119 forward $113 $-1 #
edge $-1 $192 0 $192 6.2831853071796004 $118 $193 forward 7 unknown #
face $-1 $194 $195 $18 $-1 $196 reversed single #
loop $-1 $-1 $197 $74 #
plane-surface $-1 -64.234138004699844 0 0 1 0 0 0 0 -1 forward_v I I I I #
coedge $-1 $198 $131 $199 $200 forward $75 $-1 #
coedge $-1 $201 $77 $198 $202 forward $49 $-1 #
coedge $-1 $77 $201 $203 $204 forward $49 $-1 #
coedge $-1 $134 $133 $77 $127 reversed $135 $-1 #
edge $-1 $205 -32.860818261024292 $206 32.860818261024292 $126 $207 forward 7 unknown #
coedge $-1 $79 $78 $208 $209 forward $31 $-1 #
coedge $-1 $210 $211 $78 $130 reversed $195 $-1 #
edge $-1 $137 -64.234138004699844 $212 64.234138004699844 $129 $213 forward 7 unknown #
coedge $-1 $123 $214 $79 $132 reversed $75 $-1 #
edge $-1 $215 -64.234138004699844 $136 64.234138004699844 $131 $216 forward 7 unknown #
coedge $-1 $126 $80 $214 $217 forward $135 $-1 #
coedge $-1 $80 $126 $210 $218 reversed $135 $-1 #
loop $-1 $-1 $133 $194 #
vertex $-1 $81 $219 #
vertex $-1 $81 $220 #
straight-curve $-1 64.234138004699844 0 13.246719636464849 0 1 0 I I #
face $-1 $221 $222 $19 $-1 $223 reversed single #
loop $-1 $-1 $150 $82 #
plane-surface $-1 0 -37.938637168004831 8.2217226658135623 0 0 1 1 0 0 forward_v I I I I #
coedge $-1 $224 $225 $86 $147 forward $83 $-1 #
coedge $-1 $226 $85 $225 $227 forward $53 $-1 #
coedge $-1 $85 $226 $228 $229 forward $53 $-1 #
coedge $-1 $87 $86 $85 $146 reversed $34 $-1 #
edge $-1 $230 -64.234138004699844 $231 64.234138004699844 $85 $232 forward 7 unknown #
edge $-1 $231 -13.246719636464849 $153 -8.2217226658135623 $142 $233 forward 7 unknown #
coedge $-1 $228 $234 $87 $149 forward $235 $-1 #
edge $-1 $152 8.2217226658135623 $230 13.246719636464849 $148 $236 forward 7 unknown #
coedge $-1 $237 $88 $234 $238 forward $140 $-1 #
coedge $-1 $88 $237 $224 $239 forward $140 $-1 #
vertex $-1 $149 $240 #
vertex $-1 $147 $241 #
straight-curve $-1 0 -32.860818261024292 8.2217226658135623 -1 0 0 I I #
face $-1 $-1 $167 $20 $-1 $242 forward single #
loop $-1 $-1 $243 $90 #
plane-surface $-1 64.234138004699844 0 0 -1 0 0 0 0 1 forward_v I I I I #
coedge $-1 $244 $245 $246 $247 reversed $91 $-1 #
coedge $-1 $248 $93 $95 $165 forward $57 $-1 #
coedge $-1 $93 $248 $244 $249 forward $57 $-1 #
coedge $-1 $246 $96 $93 $162 forward $167 $-1 #
edge $-1 $169 4.476820150828523 $250 13.644513581099304 $161 $251 forward 7 unknown #
coedge $-1 $252 $253 $94 $164 forward $156 $-1 #
edge $-1 $254 -88.96111166104707 $168 -78.478476465230187 $163 $255 forward 7 unknown #
edge $-1 $169 111.81120400802871 $254 128.46827600939972 $95 $256 forward 7 unknown #
coedge $-1 $96 $246 $252 $257 forward $167 $-1 #
loop $-1 $-1 $246 $155 #
vertex $-1 $164 $258 #
vertex $-1 $97 $259 #
straight-curve $-1 22.621621820644265 -13.537487016792436 13.246719636464846 -1 0 0 I I #
coedge $-1 $171 $171 $-1 $260 reversed $100 $-1 #
edge $-1 $261 0 $261 6.2831853071796004 $101 $262 forward 7 unknown #
vertex $-1 $104 $263 #
ellipse-curve $-1 57.76164993962243 -18.121333731927827 8.0054020385564044 0.62932039886446345 0 0.77714595512881146 0.77714595512881146 0 -0.62932039886446345 1 I I #
face $-1 $-1 $264 $22 $-1 $265 reversed single #
loop $-1 $-1 $111 $105 #
plane-surface $-1 0 0 13.246719636464849 0 0 1 1 0 0 forward_v I I I I #
coedge $-1 $266 $267 $268 $269 reversed $106 $-1 #
coedge $-1 $270 $108 $110 $185 forward $66 $-1 #
coedge $-1 $108 $270 $266 $271 forward $66 $-1 #
coedge $-1 $268 $111 $108 $182 forward $176 $-1 #
edge $-1 $188 -3.1476313579443556 $272 10.850403801832663 $181 $273 forward 7 unknown #
coedge $-1 $274 $275 $109 $184 forward $264 $-1 #
edge $-1 $276 -48.203015581292426 $187 -36.962672884662126 $183 $277 forward 7 unknown #
edge $-1 $188 -17.486868740292952 $276 0 $110 $278 forward 7 unknown #
coedge $-1 $111 $268 $274 $279 forward $176 $-1 #
vertex $-1 $184 $280 #
vertex $-1 $112 $281 #
straight-curve $-1 -73.405977538148477 0.70375486399979792 13.246719636464846 1 0 0 I I #
coedge $-1 $190 $190 $-1 $282 reversed $115 $-1 #
edge $-1 $283 0 $283 6.2831853071796004 $116 $284 forward 7 unknown #
vertex $-1 $119 $285 #
ellipse-curve $-1 -57.536278749636608 7.702772443888307 7.6265482881497029 -0.64278761758704617 0 0.76604443648966558 1.915111091224164 0 1.6069690439676154 1 I I #
face $-1 $-1 $135 $18 $-1 $286 reversed single #
loop $-1 $-1 $210 $120 #
plane-surface $-1 0 32.860818261024292 0 0 -1 0 0 0 -1 forward_v I I I I #
coedge $-1 $287 $208 $211 $288 forward $121 $-1 #
coedge $-1 $214 $123 $124 $202 reversed $75 $-1 #
coedge $-1 $208 $287 $123 $200 reversed $121 $-1 #
edge $-1 $215 -13.246719636464849 $289 13.246719636464849 $199 $290 forward 7 unknown #
coedge $-1 $125 $124 $287 $291 forward $49 $-1 #
edge $-1 $206 -64.234138004699844 $289 64.234138004699844 $198 $292 forward 7 unknown #
coedge $-1 $211 $210 $125 $204 reversed $195 $-1 #
edge $-1 $293 -64.234138004699844 $205 64.234138004699844 $203 $294 forward 7 unknown #
vertex $-1 $127 $295 #
vertex $-1 $217 $296 #
straight-curve $-1 64.234138004699844 0 -13.246719636464849 0 -1 0 I I #
coedge $-1 $197 $199 $128 $209 reversed $121 $-1 #
edge $-1 $212 -32.860818261024292 $215 32.860818261024292 $208 $297 forward 7 unknown #
coedge $-1 $203 $129 $134 $218 forward $195 $-1 #
coedge $-1 $129 $203 $197 $288 reversed $195 $-1 #
vertex $-1 $130 $298 #
straight-curve $-1 0 32.860818261024292 13.246719636464849 -1 0 0 I I #
coedge $-1 $131 $198 $133 $217 reversed $75 $-1 #
vertex $-1 $209 $299 #
straight-curve $-1 0 -32.860818261024292 13.246719636464849 1 0 0 I I #
edge $-1 $136 -13.246719636464849 $206 13.246719636464849 $133 $300 forward 7 unknown #
edge $-1 $137 -13.246719636464849 $205 13.246719636464849 $134 $301 forward 7 unknown #
point $-1 64.234138004699844 -32.860818261024292 13.246719636464849 #
point $-1 64.234138004699844 32.860818261024292 13.246719636464849 #
face $-1 $-1 $235 $19 $-1 $302 reversed single #
loop $-1 $-1 $303 $139 #
plane-surface $-1 0 -43.016456074985371 10.734221151139206 0 1 0 0 0 1 forward_v I I I I #
coedge $-1 $304 $142 $151 $239 reversed $83 $-1 #
coedge $-1 $142 $304 $143 $227 reversed $83 $-1 #
coedge $-1 $144 $143 $305 $306 forward $53 $-1 #
edge $-1 $231 32.860818261024292 $307 43.016456074985371 $225 $308 forward 7 unknown #
coedge $-1 $309 $148 $144 $229 reversed $235 $-1 #
edge $-1 $310 -43.016456074985371 $230 -32.860818261024292 $228 $311 forward 7 unknown #
vertex $-1 $149 $312 #
vertex $-1 $227 $313 #
straight-curve $-1 0 -32.860818261024292 13.246719636464849 -1 0 0 I I #
straight-curve $-1 -64.234138004699844 -32.860818261024292 0 0 0 -1 I I #
coedge $-1 $148 $309 $150 $238 reversed $235 $-1 #
loop $-1 $-1 $148 $221 #
straight-curve $-1 64.234138004699844 -32.860818261024292 0 0 0 1 I I #
coedge $-1 $151 $150 $314 $315 forward $140 $-1 #
edge $-1 $152 -5.0778189069805393 $316 5.0778189069805393 $234 $317 forward 7 unknown #
edge $-1 $318 -5.0778189069805393 $153 5.0778189069805393 $224 $319 forward 7 unknown #
point $-1 64.234138004699844 -32.860818261024292 8.2217226658135623 #
point $-1 -64.234138004699844 -32.860818261024292 8.2217226658135623 #
plane-surface $-1 0 0 13.246719636464849 0 0 1 1 0 0 forward_v I I I I #
coedge $-1 $253 $252 $245 $320 forward $156 $-1 #
coedge $-1 $245 $158 $160 $249 reversed $91 $-1 #
coedge $-1 $158 $244 $243 $320 reversed $91 $-1 #
coedge $-1 $166 $161 $158 $247 forward $167 $-1 #
edge $-1 $250 28.667540053900737 $321 41.612516184055579 $246 $322 forward 7 unknown #
coedge $-1 $160 $159 $253 $323 reversed $57 $-1 #
edge $-1 $324 -128.46827600939972 $250 -111.81120400802871 $244 $325 forward 7 unknown #
vertex $-1 $162 $326 #
straight-curve $-1 51.289161874545009 -9.0606668659639134 13.246719636464846 0 -1 0 I I #
coedge $-1 $243 $163 $166 $257 reversed $156 $-1 #
coedge $-1 $163 $243 $248 $323 forward $156 $-1 #
vertex $-1 $164 $327 #
straight-curve $-1 64.234138004699844 -13.537487016792436 91.725196101695033 0 0 1 I I #
straight-curve $-1 -35.604463058376865 -13.537487016792436 83.611791140313372 0.77714595512881146 0 -0.62932039886446345 I I #
edge $-1 $321 -22.705180447063217 $168 -13.537487016792436 $252 $328 forward 7 unknown #
point $-1 64.234138004699844 -13.537487016792436 13.246719636464849 #
point $-1 51.289161874545002 -13.537487016792436 13.246719636464846 #
edge $-1 $329 1 $329 0 $171 $-1 forward 7 unknown #
vertex $-1 $172 $330 #
ellipse-curve $-1 56.57349487033472 -18.121333731927827 6.5381527521375142 0.62932039886446345 0 0.77714595512881146 0.77714595512881146 0 -0.62932039886446345 1 I I #
point $-1 58.538795894751267 -18.121333731927827 7.3760816396919715 #
loop $-1 $-1 $183 $175 #
plane-surface $-1 -64.234138004699844 0 0 1 0 0 0 0 -1 forward_v I I I I #
coedge $-1 $267 $178 $180 $271 reversed $106 $-1 #
coedge $-1 $178 $266 $331 $332 reversed $106 $-1 #
coedge $-1 $186 $181 $178 $269 forward $176 $-1 #
edge $-1 $272 -22.567558043575097 $333 -9.1718395334486331 $268 $334 forward 7 unknown #
coedge $-1 $180 $179 $275 $335 reversed $66 $-1 #
edge $-1 $336 0 $272 17.486868740292952 $266 $337 forward 7 unknown #
vertex $-1 $182 $338 #
straight-curve $-1 -50.838419494573387 3.8513862219441535 13.246719636464849 0 1 0 I I #
coedge $-1 $331 $183 $186 $279 reversed $264 $-1 #
coedge $-1 $183 $331 $270 $335 forward $264 $-1 #
vertex $-1 $184 $339 #
straight-curve $-1 -64.234138004699844 0.70375486399979792 50.209392521126979 0 0 1 I I #
straight-curve $-1 -64.234138004699844 0.70375486399979792 2.0063769398345528 -0.76604443648966558 0 -0.64278761758704617 I I #
edge $-1 $333 -14.701790023776816 $187 -0.70375486399979792 $274 $340 forward 7 unknown #
point $-1 -64.234138004699844 0.70375486399979792 13.246719636464849 #
point $-1 -50.83841949457338 0.70375486399979792 13.246719636464851 #
edge $-1 $341 1 $341 0 $190 $-1 forward 7 unknown #
vertex $-1 $191 $342 #
ellipse-curve $-1 -55.74716660348399 7.702772443888307 5.4943675050768244 -0.64278761758704617 0 0.76604443648966558 1.915111091224164 0 1.6069690439676154 1 I I #
point $-1 -55.621167658412439 7.702772443888307 9.2335173321173087 #
plane-surface $-1 64.234138004699844 0 0 -1 0 0 0 0 1 forward_v I I I I #
coedge $-1 $199 $197 $201 $291 reversed $121 $-1 #
edge $-1 $212 -13.246719636464849 $293 13.246719636464849 $211 $343 forward 7 unknown #
vertex $-1 $291 $344 #
straight-curve $-1 -64.234138004699844 -32.860818261024292 0 0 0 -1 I I #
edge $-1 $289 -32.860818261024292 $293 32.860818261024292 $287 $345 forward 7 unknown #
straight-curve $-1 0 -32.860818261024292 -13.246719636464849 -1 0 0 I I #
vertex $-1 $204 $346 #
straight-curve $-1 0 32.860818261024292 -13.246719636464849 1 0 0 I I #
point $-1 64.234138004699844 32.860818261024292 -13.246719636464849 #
point $-1 64.234138004699844 -32.860818261024292 -13.246719636464849 #
straight-curve $-1 -64.234138004699844 0 13.246719636464849 0 -1 0 I I #
point $-1 -64.234138004699844 32.860818261024292 13.246719636464849 #
point $-1 -64.234138004699844 -32.860818261024292 13.246719636464849 #
straight-curve $-1 64.234138004699844 -32.860818261024292 0 0 0 -1 I I #
straight-curve $-1 64.234138004699844 32.860818261024292 0 0 0 -1 I I #
plane-surface $-1 64.234138004699844 0 0 -1 0 0 0 0 1 forward_v I I I I #
coedge $-1 $314 $305 $304 $347 forward $222 $-1 #
coedge $-1 $225 $224 $303 $347 reversed $83 $-1 #
coedge $-1 $303 $348 $226 $306 reversed $222 $-1 #
edge $-1 $307 -64.234138004699844 $310 64.234138004699844 $305 $349 forward 7 unknown #
vertex $-1 $227 $350 #
straight-curve $-1 -64.234138004699844 0 13.246719636464849 0 -1 0 I I #
coedge $-1 $234 $228 $348 $351 forward $235 $-1 #
vertex $-1 $229 $352 #
straight-curve $-1 64.234138004699844 0 13.246719636464849 0 1 0 I I #
point $-1 64.234138004699844 -32.860818261024292 13.246719636464849 #
point $-1 -64.234138004699844 -32.860818261024292 13.246719636464849 #
coedge $-1 $348 $303 $237 $315 reversed $222 $-1 #
edge $-1 $316 -64.234138004699844 $318 64.234138004699844 $314 $353 forward 7 unknown #
vertex $-1 $351 $354 #
straight-curve $-1 64.234138004699844 -37.938637168004831 8.2217226658135623 0 -1 0 I I #
vertex $-1 $239 $355 #
straight-curve $-1 -64.234138004699844 -37.938637168004831 8.2217226658135623 0 1 0 I I #
edge $-1 $321 78.478476465230187 $324 88.96111166104707 $243 $356 forward 7 unknown #
vertex $-1 $257 $357 #
straight-curve $-1 22.621621820644265 -22.705180447063217 13.246719636464846 1 0 0 I I #
edge $-1 $324 -13.644513581099304 $254 -4.476820150828523 $253 $358 forward 7 unknown #
vertex $-1 $323 $359 #
straight-curve $-1 -35.604463058376865 -22.705180447063217 83.611791140313372 -0.77714595512881146 0 0.62932039886446345 I I #
point $-1 51.289161874545002 -22.705180447063217 13.246719636464846 #
point $-1 64.234138004699858 -13.537487016792436 2.764084440647963 #
straight-curve $-1 64.234138004699844 0 13.246719636464849 0 1 0 I I #
vertex $-1 $260 $360 #
point $-1 57.350640825463529 -18.121333731927827 5.9088323532730511 #
coedge $-1 $275 $274 $267 $332 forward $264 $-1 #
edge $-1 $333 36.962672884662126 $336 48.203015581292426 $331 $361 forward 7 unknown #
vertex $-1 $279 $362 #
straight-curve $-1 -73.405977538148477 14.701790023776816 13.246719636464846 -1 0 0 I I #
edge $-1 $336 -10.850403801832663 $276 3.1476313579443556 $275 $363 forward 7 unknown #
vertex $-1 $335 $364 #
straight-curve $-1 -64.234138004699844 14.701790023776816 2.0063769398345528 0.76604443648966558 0 0.64278761758704617 I I #
point $-1 -50.83841949457338 14.701790023776816 13.246719636464851 #
point $-1 -64.234138004699844 0.70375486399979792 2.0063769398345528 #
straight-curve $-1 -64.234138004699844 0 13.246719636464849 0 -1 0 I I #
vertex $-1 $282 $365 #
point $-1 -53.832055512259828 7.702772443888307 7.10133654904444 #
straight-curve $-1 -64.234138004699844 32.860818261024292 0 0 0 -1 I I #
point $-1 -64.234138004699844 -32.860818261024292 -13.246719636464849 #
straight-curve $-1 -64.234138004699844 0 -13.246719636464849 0 1 0 I I #
point $-1 -64.234138004699844 32.860818261024292 -13.246719636464849 #
edge $-1 $307 -2.5124984853256436 $318 2.5124984853256436 $304 $366 forward 7 unknown #
coedge $-1 $305 $314 $309 $351 reversed $222 $-1 #
straight-curve $-1 0 -43.016456074985371 13.246719636464849 1 0 0 I I #
point $-1 -64.234138004699844 -43.016456074985371 13.246719636464849 #
edge $-1 $310 -2.5124984853256436 $316 2.5124984853256436 $309 $367 forward 7 unknown #
point $-1 64.234138004699844 -43.016456074985371 13.246719636464849 #
straight-curve $-1 0 -43.016456074985371 8.2217226658135623 -1 0 0 I I #
point $-1 64.234138004699844 -43.016456074985371 8.2217226658135623 #
point $-1 -64.234138004699844 -43.016456074985371 8.2217226658135623 #
straight-curve $-1 64.234138004699844 -22.705180447063217 91.725196101695033 0 0 -1 I I #
point $-1 64.234138004699844 -22.705180447063217 13.246719636464849 #
straight-curve $-1 64.234138004699844 -9.0606668659639134 2.7640844406479772 0 1 0 I I #
point $-1 64.234138004699858 -22.705180447063217 2.764084440647963 #
point $-1 55.944174471470255 -18.121333731927827 5.7610067970087036 #
straight-curve $-1 -64.234138004699844 14.701790023776816 50.209392521126979 0 0 -1 I I #
point $-1 -64.234138004699844 14.701790023776816 13.246719636464849 #
straight-curve $-1 -64.234138004699844 3.8513862219441535 2.0063769398345497 0 -1 0 I I #
point $-1 -64.234138004699844 14.701790023776816 2.0063769398345528 #
point $-1 -54.14019755951638 7.702772443888307 3.5792564138526606 #
straight-curve $-1 -64.234138004699844 -43.016456074985371 10.734221151139206 0 0 -1 I I #
straight-curve $-1 64.234138004699844 -43.016456074985371 10.734221151139206 0 0 -1 I I #
End-of-ACIS-data 