500 0 7 0           
7 Unknown 11 ACIS 5.0 NT 24 Fri Mar 26 03:35:57 1999 
-1 9.9999999999999995e-007 1e-010 
body $-1 $7 $-1 $8 #
body $-1 $9 $-1 $10 #
body $-1 $11 $-1 $12 #
body $-1 $13 $-1 $14 #
body $-1 $15 $-1 $16 #
body $-1 $17 $-1 $18 #
body $-1 $19 $-1 $20 #
lump $-1 $-1 $21 $0 #
transform $-1 1 0 0 0 1 0 0 0 1 47.251197851496933 20.75897530414775 6.9931904964538871 1 rotate no_reflect no_shear #
lump $-1 $-1 $22 $1 #
transform $-1 1 0 0 0 1 0 0 0 1 47.251197851496933 20.75897530414775 6.9931904964538871 1 rotate no_reflect no_shear #
lump $-1 $-1 $23 $2 #
transform $-1 1 0 0 0 1 0 0 0 1 47.251197851496933 20.75897530414775 6.9931904964538871 1 rotate no_reflect no_shear #
lump $-1 $-1 $24 $3 #
transform $-1 1 0 0 0 1 0 0 0 1 47.251197851496933 20.75897530414775 6.9931904964538871 1 rotate no_reflect no_shear #
lump $-1 $-1 $25 $4 #
transform $-1 1 0 0 0 1 0 0 0 1 47.251197851496933 20.75897530414775 6.9931904964538871 1 rotate no_reflect no_shear #
lump $-1 $-1 $26 $5 #
transform $-1 1 0 0 0 1 0 0 0 1 47.251197851496933 20.75897530414775 6.9931904964538871 1 rotate no_reflect no_shear #
lump $-1 $-1 $27 $6 #
transform $-1 1 0 0 0 1 0 0 0 1 47.251197851496933 20.75897530414775 6.9931904964538871 1 rotate no_reflect no_shear #
shell $-1 $-1 $-1 $28 $-1 $7 #
shell $-1 $-1 $-1 $29 $-1 $9 #
shell $-1 $-1 $-1 $30 $-1 $11 #
shell $-1 $-1 $-1 $31 $-1 $13 #
shell $-1 $-1 $-1 $32 $-1 $15 #
shell $-1 $-1 $-1 $33 $-1 $17 #
shell $-1 $-1 $-1 $34 $-1 $19 #
face $-1 $35 $36 $21 $-1 $37 forward single #
face $-1 $38 $39 $22 $-1 $40 reversed single #
face $-1 $41 $42 $23 $-1 $43 reversed single #
face $-1 $44 $45 $24 $-1 $46 reversed single #
face $-1 $47 $48 $25 $-1 $49 forward single #
face $-1 $50 $51 $26 $-1 $52 reversed single #
face $-1 $53 $54 $27 $-1 $55 forward single #
face $-1 $56 $57 $21 $-1 $58 reversed single #
loop $-1 $-1 $59 $28 #
plane-surface $-1 0 0 6.9931904964538871 0 0 1 1 0 0 forward_v I I I I #
face $-1 $60 $61 $22 $-1 $62 reversed single #
loop $-1 $-1 $63 $29 #
plane-surface $-1 -46.425039135691655 -16.43462379686455 0 1 0 0 0 0 -1 forward_v I I I I #
face $-1 $64 $65 $23 $-1 $66 reversed single #
loop $-1 $-1 $67 $30 #
plane-surface $-1 -44.590145636339798 12.110272289581346 0 0 1 0 0 0 1 forward_v I I I I #
face $-1 $68 $69 $24 $-1 $70 reversed single #
loop $-1 $-1 $71 $31 #
plane-surface $-1 28.651191579030375 -1.680675665273216 135.57916336434232 0 -1 0 -0.6018150307709319 0 -0.79863550430605224 forward_v I I I I #
face $-1 $72 $73 $25 $-1 $74 forward single #
loop $-1 $75 $76 $32 #
cone-surface $-1 43.70697049145646 -5.196751135658122 3.7205959825724184 -0.6018150307709319 0 -0.79863550430605224 1.1979532564590785 0 -0.90272254615639791 1 I I 0 1 1.5 forward I I I I #
face $-1 $77 $78 $26 $-1 $79 reversed single #
loop $-1 $-1 $80 $33 #
plane-surface $-1 -104.12416002942098 -8.7128266060430271 78.706201186418269 0 1 0 -0.6018150307709319 0 0.79863550430605224 forward_v I I I I #
face $-1 $81 $82 $27 $-1 $83 forward single #
loop $-1 $84 $85 $34 #
cone-surface $-1 -43.706970491456467 -5.196751135658122 3.7205959825724149 0.6018150307709319 0 -0.79863550430605224 1.1979532564590785 0 0.90272254615639791 1 I I 0 1 1.5 forward I I I I #
face $-1 $86 $87 $21 $-1 $88 reversed single #
loop $-1 $-1 $89 $35 #
plane-surface $-1 0 0 -6.9931904964538871 0 0 1 1 0 0 forward_v I I I I #
coedge $-1 $90 $91 $92 $93 forward $36 $-1 #
face $-1 $94 $95 $22 $-1 $96 reversed single #
loop $-1 $-1 $97 $38 #
plane-surface $-1 -44.590145636339798 -12.110272289581349 0 0 -1 0 0 0 -1 forward_v I I I I #
coedge $-1 $98 $99 $100 $101 forward $39 $-1 #
face $-1 $102 $103 $23 $-1 $104 reversed single #
loop $-1 $-1 $105 $41 #
plane-surface $-1 -46.425039135691655 16.434623796864546 0 1 0 0 0 0 -1 forward_v I I I I #
coedge $-1 $106 $107 $108 $109 forward $42 $-1 #
face $-1 $110 $111 $24 $-1 $112 reversed single #
loop $-1 $-1 $113 $44 #
plane-surface $-1 -28.221770598893663 -5.196751135658122 60.106194913951711 0.6018150307709319 0 0.79863550430605224 0.79863550430605224 0 -0.6018150307709319 forward_v I I I I #
coedge $-1 $114 $115 $116 $117 reversed $45 $-1 #
face $-1 $-1 $118 $25 $-1 $119 forward single #
loop $-1 $120 $121 $47 #
cone-surface $-1 42.206198046561603 -5.196751135658122 1.7290037206745241 -0.6018150307709319 0 -0.79863550430605224 0.59897662822953923 0 -0.45136127307819895 1 I I -0.70710678118654757 0.70710678118654757 0.75 forward I I I I #
loop $-1 $-1 $122 $32 #
coedge $-1 $76 $76 $123 $124 reversed $48 $-1 #
face $-1 $125 $126 $26 $-1 $127 reversed single #
loop $-1 $-1 $128 $50 #
plane-surface $-1 -47.25119785149694 -5.196751135658122 3.2332327360276594 -0.6018150307709319 0 0.79863550430605224 0.79863550430605224 0 0.6018150307709319 forward_v I I I I #
coedge $-1 $129 $130 $131 $132 reversed $51 $-1 #
face $-1 $-1 $133 $27 $-1 $134 forward single #
loop $-1 $135 $136 $53 #
cone-surface $-1 -42.20619804656161 -5.196751135658122 1.7290037206745206 0.6018150307709319 0 -0.79863550430605224 0.59897662822953923 0 0.45136127307819895 1 I I -0.70710678118654757 0.70710678118654757 0.75 forward I I I I #
loop $-1 $-1 $137 $34 #
coedge $-1 $85 $85 $138 $139 reversed $54 $-1 #
face $-1 $140 $141 $21 $-1 $142 reversed single #
loop $-1 $-1 $143 $56 #
plane-surface $-1 0 -20.75897530414775 0 0 1 0 0 0 1 forward_v I I I I #
coedge $-1 $144 $145 $146 $147 forward $57 $-1 #
coedge $-1 $148 $59 $149 $150 forward $36 $-1 #
coedge $-1 $59 $148 $151 $152 forward $36 $-1 #
coedge $-1 $153 $154 $59 $93 reversed $155 $-1 #
edge $-1 $156 -20.75897530414775 $157 20.75897530414775 $92 $158 forward 7 unknown #
face $-1 $159 $160 $22 $-1 $161 forward single #
loop $-1 $-1 $162 $60 #
plane-surface $-1 -42.755252136987941 -16.43462379686455 0 -1 0 0 0 0 1 forward_v I I I I #
coedge $-1 $163 $164 $165 $166 forward $61 $-1 #
coedge $-1 $167 $63 $168 $169 reversed $39 $-1 #
coedge $-1 $63 $167 $170 $171 reversed $39 $-1 #
coedge $-1 $164 $163 $63 $101 reversed $61 $-1 #
edge $-1 $172 -6.9931904964538871 $173 6.9931904964538871 $100 $174 forward 7 unknown #
face $-1 $175 $176 $23 $-1 $177 reversed single #
loop $-1 $-1 $178 $64 #
plane-surface $-1 -42.755252136987941 16.434623796864546 0 -1 0 0 0 0 1 forward_v I I I I #
coedge $-1 $179 $180 $181 $182 reversed $65 $-1 #
coedge $-1 $183 $67 $184 $185 reversed $42 $-1 #
coedge $-1 $67 $183 $186 $187 reversed $42 $-1 #
coedge $-1 $180 $179 $67 $109 reversed $65 $-1 #
edge $-1 $188 -6.9931904964538871 $189 6.9931904964538871 $108 $190 forward 7 unknown #
face $-1 $191 $192 $24 $-1 $193 forward single #
loop $-1 $-1 $194 $68 #
plane-surface $-1 28.651191579030375 -8.7128266060430271 135.57916336434232 0 1 0 0.6018150307709319 0 0.79863550430605224 forward_v I I I I #
coedge $-1 $195 $196 $197 $198 reversed $69 $-1 #
coedge $-1 $115 $71 $199 $200 reversed $45 $-1 #
coedge $-1 $71 $114 $195 $201 reversed $45 $-1 #
coedge $-1 $197 $202 $71 $117 forward $192 $-1 #
edge $-1 $203 -32.925602061981749 $204 -27.935969685534172 $116 $205 forward 7 unknown #
loop $-1 $-1 $123 $72 #
plane-surface $-1 -28.221770598893663 -5.196751135658122 60.106194913951711 0.6018150307709319 0 0.79863550430605224 0.79863550430605224 0 -0.6018150307709319 forward_v I I I I #
loop $-1 $-1 $206 $47 #
coedge $-1 $121 $121 $122 $207 reversed $73 $-1 #
coedge $-1 $122 $122 $121 $207 forward $75 $-1 #
coedge $-1 $123 $123 $76 $124 forward $118 $-1 #
edge $-1 $208 0 $208 6.2831853071796004 $123 $209 forward 7 unknown #
face $-1 $210 $211 $26 $-1 $212 reversed single #
loop $-1 $-1 $213 $77 #
plane-surface $-1 -104.12416002942098 -1.680675665273216 78.706201186418269 0 -1 0 0.6018150307709319 0 -0.79863550430605224 forward_v I I I I #
coedge $-1 $214 $215 $216 $217 reversed $78 $-1 #
coedge $-1 $130 $80 $218 $219 reversed $51 $-1 #
coedge $-1 $80 $129 $214 $220 reversed $51 $-1 #
coedge $-1 $216 $221 $80 $132 forward $222 $-1 #
edge $-1 $223 4.8108821632135559 $224 9.8005145396611582 $131 $225 forward 7 unknown #
loop $-1 $-1 $138 $81 #
plane-surface $-1 -47.25119785149694 -5.196751135658122 3.2332327360276594 -0.6018150307709319 0 0.79863550430605224 0.79863550430605224 0 0.6018150307709319 forward_v I I I I #
loop $-1 $-1 $226 $53 #
coedge $-1 $136 $136 $137 $227 reversed $82 $-1 #
coedge $-1 $137 $137 $136 $227 forward $84 $-1 #
coedge $-1 $138 $138 $85 $139 forward $133 $-1 #
edge $-1 $228 0 $228 6.2831853071796004 $138 $229 forward 7 unknown #
face $-1 $230 $231 $21 $-1 $232 reversed single #
loop $-1 $-1 $233 $86 #
plane-surface $-1 -47.251197851496933 0 0 1 0 0 0 0 -1 forward_v I I I I #
coedge $-1 $234 $151 $235 $236 forward $87 $-1 #
coedge $-1 $237 $89 $234 $238 forward $57 $-1 #
coedge $-1 $89 $237 $239 $240 forward $57 $-1 #
coedge $-1 $154 $153 $89 $147 reversed $155 $-1 #
edge $-1 $241 -20.75897530414775 $242 20.75897530414775 $146 $243 forward 7 unknown #
coedge $-1 $91 $90 $244 $245 forward $36 $-1 #
coedge $-1 $246 $247 $90 $150 reversed $231 $-1 #
edge $-1 $157 -47.251197851496933 $248 47.251197851496933 $149 $249 forward 7 unknown #
coedge $-1 $143 $250 $91 $152 reversed $87 $-1 #
edge $-1 $251 -47.251197851496933 $156 47.251197851496933 $151 $252 forward 7 unknown #
coedge $-1 $146 $92 $250 $253 forward $155 $-1 #
coedge $-1 $92 $146 $246 $254 reversed $155 $-1 #
loop $-1 $-1 $153 $230 #
vertex $-1 $93 $255 #
vertex $-1 $93 $256 #
straight-curve $-1 47.251197851496933 0 6.9931904964538871 0 1 0 I I #
face $-1 $257 $258 $22 $-1 $259 reversed single #
loop $-1 $-1 $260 $94 #
plane-surface $-1 0 0 6.9931904964538871 0 0 1 1 0 0 forward_v I I I I #
coedge $-1 $261 $262 $263 $264 reversed $95 $-1 #
coedge $-1 $100 $97 $265 $266 reversed $61 $-1 #
coedge $-1 $97 $100 $267 $268 reversed $61 $-1 #
coedge $-1 $262 $261 $97 $166 reversed $95 $-1 #
edge $-1 $269 -6.9931904964538871 $270 6.9931904964538871 $165 $271 forward 7 unknown #
coedge $-1 $99 $98 $272 $273 reversed $39 $-1 #
coedge $-1 $265 $274 $98 $169 forward $258 $-1 #
edge $-1 $275 -12.541663405715475 $173 -3.8929603911490744 $168 $276 forward 7 unknown #
coedge $-1 $277 $267 $99 $171 forward $160 $-1 #
edge $-1 $172 3.8929603911490744 $278 12.541663405715475 $170 $279 forward 7 unknown #
vertex $-1 $171 $280 #
vertex $-1 $169 $281 #
straight-curve $-1 -46.425039135691655 -12.110272289581349 0 0 0 -1 I I #
face $-1 $282 $283 $23 $-1 $284 forward single #
loop $-1 $-1 $285 $102 #
plane-surface $-1 0 0 -6.9931904964538871 0 0 1 1 0 0 forward_v I I I I #
coedge $-1 $286 $287 $183 $288 forward $103 $-1 #
coedge $-1 $108 $105 $289 $290 reversed $65 $-1 #
coedge $-1 $105 $108 $291 $292 reversed $65 $-1 #
coedge $-1 $293 $294 $105 $182 forward $295 $-1 #
edge $-1 $296 -6.9931904964538871 $297 6.9931904964538871 $181 $298 forward 7 unknown #
coedge $-1 $107 $106 $178 $288 reversed $42 $-1 #
coedge $-1 $289 $285 $106 $185 forward $176 $-1 #
edge $-1 $299 20.460179318818042 $189 24.129966317521756 $184 $300 forward 7 unknown #
coedge $-1 $301 $291 $107 $187 forward $283 $-1 #
edge $-1 $188 -24.129966317521756 $302 -20.460179318818042 $186 $303 forward 7 unknown #
vertex $-1 $187 $304 #
vertex $-1 $185 $305 #
straight-curve $-1 -46.425039135691655 12.110272289581346 0 0 0 -1 I I #
face $-1 $-1 $306 $24 $-1 $307 reversed single #
loop $-1 $-1 $116 $110 #
plane-surface $-1 0 0 6.9931904964538871 0 0 1 1 0 0 forward_v I I I I #
coedge $-1 $308 $309 $310 $311 reversed $111 $-1 #
coedge $-1 $312 $113 $115 $201 forward $69 $-1 #
coedge $-1 $113 $312 $308 $313 forward $69 $-1 #
coedge $-1 $310 $116 $113 $198 forward $192 $-1 #
edge $-1 $204 -0.91769990255584499 $314 6.1144510382139661 $197 $315 forward 7 unknown #
coedge $-1 $316 $317 $114 $200 forward $306 $-1 #
edge $-1 $318 -64.556348946143487 $203 -60.796391185717276 $199 $319 forward 7 unknown #
edge $-1 $204 88.25469903843954 $318 94.502395702993852 $115 $320 forward 7 unknown #
coedge $-1 $116 $310 $316 $321 forward $192 $-1 #
vertex $-1 $117 $322 #
vertex $-1 $117 $323 #
straight-curve $-1 14.325595789515187 -1.680675665273216 6.9931904964538916 -1 0 0 I I #
coedge $-1 $206 $206 $-1 $324 reversed $120 $-1 #
edge $-1 $325 0 $325 6.2831853071796004 $121 $326 forward 7 unknown #
vertex $-1 $124 $327 #
ellipse-curve $-1 44.756381663273132 -5.196751135658122 5.1132116162407959 0.6018150307709319 0 0.79863550430605224 1.1979532564590785 0 -0.90272254615639791 1 I I #
face $-1 $-1 $222 $26 $-1 $328 forward single #
loop $-1 $-1 $329 $125 #
plane-surface $-1 -47.251197851496933 0 0 1 0 0 0 0 -1 forward_v I I I I #
coedge $-1 $330 $331 $332 $333 reversed $126 $-1 #
coedge $-1 $334 $128 $130 $220 forward $78 $-1 #
coedge $-1 $128 $334 $330 $335 forward $78 $-1 #
coedge $-1 $332 $131 $128 $217 forward $222 $-1 #
edge $-1 $224 -6.1144510382139661 $336 0.91769990255584499 $216 $337 forward 7 unknown #
coedge $-1 $338 $339 $129 $219 forward $211 $-1 #
edge $-1 $340 -36.119867857181468 $223 -32.35991009675525 $218 $341 forward 7 unknown #
edge $-1 $224 -6.2476966645543568 $340 -8.8817612989391469e-015 $130 $342 forward 7 unknown #
coedge $-1 $131 $332 $338 $343 forward $222 $-1 #
loop $-1 $-1 $332 $210 #
vertex $-1 $219 $344 #
vertex $-1 $132 $345 #
straight-curve $-1 -52.062080014710489 -8.7128266060430271 6.9931904964538845 1 0 0 I I #
coedge $-1 $226 $226 $-1 $346 reversed $135 $-1 #
edge $-1 $347 0 $347 6.2831853071796004 $136 $348 forward 7 unknown #
vertex $-1 $139 $349 #
ellipse-curve $-1 -44.756381663273132 -5.196751135658122 5.1132116162407772 -0.6018150307709319 0 0.79863550430605224 1.1979532564590785 0 0.90272254615639791 1 I I #
face $-1 $-1 $155 $21 $-1 $350 reversed single #
loop $-1 $-1 $246 $140 #
plane-surface $-1 0 20.75897530414775 0 0 -1 0 0 0 -1 forward_v I I I I #
coedge $-1 $351 $244 $247 $352 forward $141 $-1 #
coedge $-1 $250 $143 $144 $238 reversed $87 $-1 #
coedge $-1 $244 $351 $143 $236 reversed $141 $-1 #
edge $-1 $251 -6.9931904964538871 $353 6.9931904964538871 $235 $354 forward 7 unknown #
coedge $-1 $145 $144 $351 $355 forward $57 $-1 #
edge $-1 $242 -47.251197851496933 $353 47.251197851496933 $234 $356 forward 7 unknown #
coedge $-1 $247 $246 $145 $240 reversed $231 $-1 #
edge $-1 $357 -47.251197851496933 $241 47.251197851496933 $239 $358 forward 7 unknown #
vertex $-1 $147 $359 #
vertex $-1 $253 $360 #
straight-curve $-1 47.251197851496933 0 -6.9931904964538871 0 -1 0 I I #
coedge $-1 $233 $235 $148 $245 reversed $141 $-1 #
edge $-1 $248 -20.75897530414775 $251 20.75897530414775 $244 $361 forward 7 unknown #
coedge $-1 $239 $149 $154 $254 forward $231 $-1 #
coedge $-1 $149 $239 $233 $352 reversed $231 $-1 #
vertex $-1 $150 $362 #
straight-curve $-1 0 20.75897530414775 6.9931904964538871 -1 0 0 I I #
coedge $-1 $151 $234 $153 $253 reversed $87 $-1 #
vertex $-1 $245 $363 #
straight-curve $-1 0 -20.75897530414775 6.9931904964538871 1 0 0 I I #
edge $-1 $156 -6.9931904964538871 $242 6.9931904964538871 $153 $364 forward 7 unknown #
edge $-1 $157 -6.9931904964538871 $241 6.9931904964538871 $154 $365 forward 7 unknown #
point $-1 47.251197851496933 -20.75897530414775 6.9931904964538871 #
point $-1 47.251197851496933 20.75897530414775 6.9931904964538871 #
face $-1 $-1 $366 $22 $-1 $367 reversed single #
loop $-1 $-1 $368 $159 #
plane-surface $-1 0 0 -6.9931904964538871 0 0 1 1 0 0 forward_v I I I I #
coedge $-1 $267 $277 $262 $369 forward $160 $-1 #
coedge $-1 $165 $162 $368 $370 reversed $95 $-1 #
coedge $-1 $162 $165 $260 $369 reversed $95 $-1 #
coedge $-1 $371 $372 $162 $264 forward $366 $-1 #
edge $-1 $373 -6.9931904964538871 $374 6.9931904964538871 $263 $375 forward 7 unknown #
coedge $-1 $368 $168 $163 $266 forward $258 $-1 #
edge $-1 $173 -24.129966317521756 $270 -20.460179318818042 $265 $376 forward 7 unknown #
coedge $-1 $170 $260 $164 $268 forward $160 $-1 #
edge $-1 $269 20.460179318818042 $172 24.129966317521756 $267 $377 forward 7 unknown #
vertex $-1 $268 $378 #
vertex $-1 $266 $379 #
straight-curve $-1 -42.755252136987941 -12.110272289581349 0 0 0 -1 I I #
coedge $-1 $372 $371 $167 $273 forward $366 $-1 #
edge $-1 $278 -6.9931904964538871 $275 6.9931904964538871 $272 $380 forward 7 unknown #
coedge $-1 $168 $368 $372 $381 forward $258 $-1 #
vertex $-1 $169 $382 #
straight-curve $-1 -46.425039135691655 -8.2173118984322748 -6.9931904964538871 0 1 0 I I #
coedge $-1 $260 $170 $371 $383 forward $160 $-1 #
vertex $-1 $383 $384 #
straight-curve $-1 -46.425039135691655 -8.2173118984322748 6.9931904964538871 0 -1 0 I I #
point $-1 -46.425039135691655 -12.110272289581349 6.9931904964538871 #
point $-1 -46.425039135691655 -12.110272289581349 -6.9931904964538871 #
face $-1 $-1 $295 $23 $-1 $385 reversed single #
loop $-1 $-1 $301 $175 #
plane-surface $-1 0 0 6.9931904964538871 0 0 1 1 0 0 forward_v I I I I #
coedge $-1 $184 $386 $286 $387 forward $176 $-1 #
coedge $-1 $388 $178 $285 $387 reversed $103 $-1 #
coedge $-1 $178 $388 $301 $389 reversed $103 $-1 #
edge $-1 $302 -6.9931904964538871 $299 6.9931904964538871 $178 $390 forward 7 unknown #
coedge $-1 $386 $184 $179 $290 forward $176 $-1 #
edge $-1 $189 3.8929603911490727 $296 12.541663405715473 $289 $391 forward 7 unknown #
coedge $-1 $186 $392 $180 $292 forward $283 $-1 #
edge $-1 $297 -12.541663405715473 $188 -3.8929603911490727 $291 $393 forward 7 unknown #
coedge $-1 $394 $181 $392 $395 reversed $295 $-1 #
coedge $-1 $181 $394 $386 $396 reversed $295 $-1 #
loop $-1 $-1 $394 $282 #
vertex $-1 $396 $397 #
vertex $-1 $182 $398 #
straight-curve $-1 -46.425039135691655 20.75897530414775 0 0 0 1 I I #
vertex $-1 $185 $399 #
straight-curve $-1 -22.295072818169899 12.110272289581346 -6.9931904964538871 -1 0 0 I I #
coedge $-1 $392 $186 $287 $389 forward $283 $-1 #
vertex $-1 $187 $400 #
straight-curve $-1 -22.295072818169899 12.110272289581346 6.9931904964538871 1 0 0 I I #
point $-1 -46.425039135691655 12.110272289581346 6.9931904964538871 #
point $-1 -46.425039135691655 12.110272289581346 -6.9931904964538871 #
loop $-1 $-1 $199 $191 #
plane-surface $-1 47.251197851496933 0 0 -1 0 0 0 0 1 forward_v I I I I #
coedge $-1 $309 $194 $196 $313 reversed $111 $-1 #
coedge $-1 $194 $308 $401 $402 reversed $111 $-1 #
coedge $-1 $202 $197 $194 $311 forward $192 $-1 #
edge $-1 $314 27.935969685534172 $403 32.925602061981749 $310 $404 forward 7 unknown #
coedge $-1 $196 $195 $317 $405 reversed $69 $-1 #
edge $-1 $406 -94.502395702993852 $314 -88.25469903843954 $308 $407 forward 7 unknown #
vertex $-1 $198 $408 #
straight-curve $-1 42.261565475049366 -2.598375567829061 6.9931904964538845 0 -1 0 I I #
coedge $-1 $401 $199 $202 $321 reversed $306 $-1 #
coedge $-1 $199 $401 $312 $405 forward $306 $-1 #
vertex $-1 $200 $409 #
straight-curve $-1 47.251197851496933 -1.680675665273216 67.789581682171161 0 0 1 I I #
straight-curve $-1 -28.221770598893663 -1.680675665273216 60.106194913951711 0.79863550430605224 0 -0.6018150307709319 I I #
edge $-1 $403 -8.7128266060430271 $203 -1.680675665273216 $316 $410 forward 7 unknown #
point $-1 47.251197851496933 -1.680675665273216 6.9931904964538871 #
point $-1 42.261565475049359 -1.680675665273216 6.9931904964538845 #
edge $-1 $411 1 $411 0 $206 $-1 forward 7 unknown #
vertex $-1 $207 $412 #
ellipse-curve $-1 42.657559319639802 -5.196751135658122 2.3279803489040631 0.6018150307709319 0 0.79863550430605224 1.1979532564590785 0 -0.90272254615639791 1 I I #
point $-1 45.954334919732197 -5.196751135658122 4.2104890700843756 #
plane-surface $-1 0 0 6.9931904964538871 0 0 1 1 0 0 forward_v I I I I #
coedge $-1 $339 $338 $331 $413 forward $211 $-1 #
coedge $-1 $331 $213 $215 $335 reversed $126 $-1 #
coedge $-1 $213 $330 $329 $413 reversed $126 $-1 #
coedge $-1 $221 $216 $213 $333 forward $222 $-1 #
edge $-1 $336 -9.8005145396611582 $414 -4.8108821632135559 $332 $415 forward 7 unknown #
coedge $-1 $215 $214 $339 $416 reversed $78 $-1 #
edge $-1 $417 8.8817612989391469e-015 $336 6.2476966645543568 $330 $418 forward 7 unknown #
vertex $-1 $217 $419 #
straight-curve $-1 -42.261565475049338 -2.598375567829061 6.9931904964538862 0 1 0 I I #
coedge $-1 $329 $218 $221 $343 reversed $211 $-1 #
coedge $-1 $218 $329 $334 $416 forward $211 $-1 #
vertex $-1 $219 $420 #
straight-curve $-1 -47.251197851496933 -8.7128266060430271 39.353100593209135 0 0 1 I I #
straight-curve $-1 -47.25119785149694 -8.7128266060430271 3.2332327360276594 -0.79863550430605224 0 -0.6018150307709319 I I #
edge $-1 $414 1.680675665273216 $223 8.7128266060430271 $338 $421 forward 7 unknown #
point $-1 -47.251197851496933 -8.7128266060430271 6.9931904964538871 #
point $-1 -42.261565475049331 -8.7128266060430271 6.9931904964538871 #
edge $-1 $422 1 $422 0 $226 $-1 forward 7 unknown #
vertex $-1 $227 $423 #
ellipse-curve $-1 -42.657559319639809 -5.196751135658122 2.3279803489040596 -0.6018150307709319 0 0.79863550430605224 1.1979532564590785 0 0.90272254615639791 1 I I #
point $-1 -43.558428406814045 -5.196751135658122 6.0159341623971674 #
plane-surface $-1 47.251197851496933 0 0 -1 0 0 0 0 1 forward_v I I I I #
coedge $-1 $235 $233 $237 $355 reversed $141 $-1 #
edge $-1 $248 -6.9931904964538871 $357 6.9931904964538871 $247 $424 forward 7 unknown #
vertex $-1 $355 $425 #
straight-curve $-1 -47.251197851496933 -20.75897530414775 0 0 0 -1 I I #
edge $-1 $353 -20.75897530414775 $357 20.75897530414775 $351 $426 forward 7 unknown #
straight-curve $-1 0 -20.75897530414775 -6.9931904964538871 -1 0 0 I I #
vertex $-1 $240 $427 #
straight-curve $-1 0 20.75897530414775 -6.9931904964538871 1 0 0 I I #
point $-1 47.251197851496933 20.75897530414775 -6.9931904964538871 #
point $-1 47.251197851496933 -20.75897530414775 -6.9931904964538871 #
straight-curve $-1 -47.251197851496933 0 6.9931904964538871 0 -1 0 I I #
point $-1 -47.251197851496933 20.75897530414775 6.9931904964538871 #
point $-1 -47.251197851496933 -20.75897530414775 6.9931904964538871 #
straight-curve $-1 47.251197851496933 -20.75897530414775 0 0 0 -1 I I #
straight-curve $-1 47.251197851496933 20.75897530414775 0 0 0 -1 I I #
loop $-1 $-1 $263 $257 #
plane-surface $-1 0 -20.75897530414775 0 0 1 0 0 0 1 forward_v I I I I #
coedge $-1 $274 $265 $261 $370 forward $258 $-1 #
edge $-1 $374 -12.541663405715475 $269 -3.8929603911490744 $260 $428 forward 7 unknown #
edge $-1 $270 3.8929603911490744 $373 12.541663405715475 $368 $429 forward 7 unknown #
coedge $-1 $272 $263 $277 $383 reversed $366 $-1 #
coedge $-1 $263 $272 $274 $381 reversed $366 $-1 #
vertex $-1 $381 $430 #
vertex $-1 $264 $431 #
straight-curve $-1 -42.755252136987941 -20.75897530414775 0 0 0 1 I I #
straight-curve $-1 -22.295072818169899 -12.110272289581349 -6.9931904964538871 1 0 0 I I #
straight-curve $-1 -22.295072818169899 -12.110272289581349 6.9931904964538871 -1 0 0 I I #
point $-1 -42.755252136987941 -12.110272289581349 6.9931904964538871 #
point $-1 -42.755252136987941 -12.110272289581349 -6.9931904964538871 #
straight-curve $-1 -46.425039135691655 -20.75897530414775 0 0 0 -1 I I #
edge $-1 $373 42.755252136987941 $275 46.425039135691655 $372 $432 forward 7 unknown #
point $-1 -46.425039135691655 -20.75897530414775 -6.9931904964538871 #
edge $-1 $278 -46.425039135691655 $374 -42.755252136987941 $371 $433 forward 7 unknown #
point $-1 -46.425039135691655 -20.75897530414775 6.9931904964538871 #
plane-surface $-1 0 20.75897530414775 0 0 -1 0 0 0 -1 forward_v I I I I #
coedge $-1 $285 $289 $294 $396 forward $176 $-1 #
edge $-1 $434 -12.541663405715473 $299 -3.8929603911490727 $285 $435 forward 7 unknown #
coedge $-1 $287 $286 $394 $436 reversed $103 $-1 #
edge $-1 $302 3.8929603911490727 $437 12.541663405715473 $301 $438 forward 7 unknown #
straight-curve $-1 -42.755252136987941 12.110272289581346 0 0 0 -1 I I #
straight-curve $-1 -46.425039135691655 8.2173118984322731 -6.9931904964538871 0 1 0 I I #
coedge $-1 $291 $301 $293 $395 forward $283 $-1 #
straight-curve $-1 -46.425039135691655 8.2173118984322731 6.9931904964538871 0 -1 0 I I #
coedge $-1 $294 $293 $388 $436 forward $295 $-1 #
edge $-1 $437 42.755252136987941 $297 46.425039135691655 $293 $439 forward 7 unknown #
edge $-1 $296 -46.425039135691655 $434 -42.755252136987941 $294 $440 forward 7 unknown #
point $-1 -46.425039135691655 20.758975304147746 -6.9931904964538871 #
point $-1 -46.425039135691655 20.758975304147746 6.9931904964538871 #
point $-1 -42.755252136987941 12.110272289581346 -6.9931904964538871 #
point $-1 -42.755252136987941 12.110272289581346 6.9931904964538871 #
coedge $-1 $317 $316 $309 $402 forward $306 $-1 #
edge $-1 $403 60.796391185717276 $406 64.556348946143487 $401 $441 forward 7 unknown #
vertex $-1 $321 $442 #
straight-curve $-1 14.325595789515187 -8.7128266060430271 6.9931904964538916 1 0 0 I I #
edge $-1 $406 -6.1144510382139661 $318 0.91769990255584499 $317 $443 forward 7 unknown #
vertex $-1 $405 $444 #
straight-curve $-1 -28.221770598893663 -8.7128266060430271 60.106194913951711 -0.79863550430605224 0 0.6018150307709319 I I #
point $-1 42.261565475049359 -8.7128266060430271 6.9931904964538845 #
point $-1 47.251197851496933 -1.680675665273216 3.2332327360276807 #
straight-curve $-1 47.251197851496933 0 6.9931904964538871 0 1 0 I I #
vertex $-1 $324 $445 #
point $-1 43.855512576098882 -5.196751135658122 1.4252578027476654 #
edge $-1 $414 32.35991009675525 $417 36.119867857181468 $329 $446 forward 7 unknown #
vertex $-1 $343 $447 #
straight-curve $-1 -52.062080014710489 -1.680675665273216 6.9931904964538845 -1 0 0 I I #
edge $-1 $417 -0.91769990255584499 $340 6.1144510382139661 $339 $448 forward 7 unknown #
vertex $-1 $416 $449 #
straight-curve $-1 -47.25119785149694 -1.680675665273216 3.2332327360276594 0.79863550430605224 0 0.6018150307709319 I I #
point $-1 -42.261565475049331 -1.680675665273216 6.9931904964538871 #
point $-1 -47.251197851496933 -8.7128266060430271 3.2332327360276647 #
straight-curve $-1 -47.251197851496933 0 6.9931904964538871 0 -1 0 I I #
vertex $-1 $346 $450 #
point $-1 -41.459606063180729 -5.196751135658122 3.2307028950604577 #
straight-curve $-1 -47.251197851496933 20.75897530414775 0 0 0 -1 I I #
point $-1 -47.251197851496933 -20.75897530414775 -6.9931904964538871 #
straight-curve $-1 -47.251197851496933 0 -6.9931904964538871 0 1 0 I I #
point $-1 -47.251197851496933 20.75897530414775 -6.9931904964538871 #
straight-curve $-1 -42.755252136987941 -8.2173118984322748 6.9931904964538871 0 1 0 I I #
straight-curve $-1 -42.755252136987941 -8.2173118984322748 -6.9931904964538871 0 -1 0 I I #
point $-1 -42.755252136987941 -20.75897530414775 -6.9931904964538871 #
point $-1 -42.755252136987941 -20.75897530414775 6.9931904964538871 #
straight-curve $-1 0 -20.75897530414775 -6.9931904964538871 -1 0 0 I I #
straight-curve $-1 0 -20.75897530414775 6.9931904964538871 1 0 0 I I #
vertex $-1 $436 $451 #
straight-curve $-1 -42.755252136987941 8.2173118984322731 -6.9931904964538871 0 -1 0 I I #
edge $-1 $437 -6.9931904964538871 $434 6.9931904964538871 $394 $452 forward 7 unknown #
vertex $-1 $395 $453 #
straight-curve $-1 -42.755252136987941 8.2173118984322731 6.9931904964538871 0 1 0 I I #
straight-curve $-1 0 20.75897530414775 6.9931904964538871 -1 0 0 I I #
straight-curve $-1 0 20.75897530414775 -6.9931904964538871 1 0 0 I I #
straight-curve $-1 47.251197851496933 -8.7128266060430271 67.789581682171161 0 0 -1 I I #
point $-1 47.251197851496933 -8.7128266060430271 6.9931904964538871 #
straight-curve $-1 47.251197851496926 -2.598375567829061 3.2332327360276913 0 1 0 I I #
point $-1 47.251197851496933 -8.7128266060430271 3.2332327360276807 #
point $-1 41.754836773483404 -5.196751135658122 1.1300270924449849 #
straight-curve $-1 -47.251197851496933 -1.680675665273216 39.353100593209135 0 0 -1 I I #
point $-1 -47.251197851496933 -1.680675665273216 6.9931904964538871 #
straight-curve $-1 -47.251197851496933 -2.598375567829061 3.2332327360276683 0 -1 0 I I #
point $-1 -47.251197851496933 -1.680675665273216 3.2332327360276647 #
point $-1 -41.754836773483412 -5.196751135658122 1.1300270924449813 #
point $-1 -42.755252136987941 20.758975304147746 -6.9931904964538871 #
straight-curve $-1 -42.755252136987941 20.75897530414775 0 0 0 -1 I I #
point $-1 -42.755252136987941 20.758975304147746 6.9931904964538871 #
End-of-ACIS-data 