500 0 19 0           
7 Unknown 11 ACIS 5.0 NT 24 Fri Mar 26 17:35:15 1999 
-1 9.9999999999999995e-007 1e-010 
body $-1 $19 $-1 $20 #
body $-1 $21 $-1 $22 #
body $-1 $23 $-1 $24 #
body $-1 $25 $-1 $26 #
body $-1 $27 $-1 $28 #
body $-1 $29 $-1 $30 #
body $-1 $31 $-1 $32 #
body $-1 $33 $-1 $34 #
body $-1 $35 $-1 $36 #
body $-1 $37 $-1 $38 #
body $-1 $39 $-1 $40 #
body $-1 $41 $-1 $42 #
body $-1 $43 $-1 $44 #
body $-1 $45 $-1 $46 #
body $-1 $47 $-1 $48 #
body $-1 $49 $-1 $50 #
body $-1 $51 $-1 $52 #
body $-1 $53 $-1 $54 #
body $-1 $55 $-1 $56 #
lump $-1 $-1 $57 $0 #
transform $-1 1 0 0 0 1 0 0 0 1 50.552079836420788 27.421575897351307 13.437886068731617 1 rotate no_reflect no_shear #
lump $-1 $-1 $58 $1 #
transform $-1 1 0 0 0 1 0 0 0 1 50.552079836420788 27.421575897351307 13.437886068731617 1 rotate no_reflect no_shear #
lump $-1 $-1 $59 $2 #
transform $-1 1 0 0 0 1 0 0 0 1 50.552079836420788 27.421575897351307 13.437886068731617 1 rotate no_reflect no_shear #
lump $-1 $-1 $60 $3 #
transform $-1 1 0 0 0 1 0 0 0 1 50.552079836420788 27.421575897351307 13.437886068731617 1 rotate no_reflect no_shear #
lump $-1 $-1 $61 $4 #
transform $-1 1 0 0 0 1 0 0 0 1 50.552079836420788 27.421575897351307 13.437886068731617 1 rotate no_reflect no_shear #
lump $-1 $-1 $62 $5 #
transform $-1 1 0 0 0 1 0 0 0 1 50.552079836420788 27.421575897351307 13.437886068731617 1 rotate no_reflect no_shear #
lump $-1 $-1 $63 $6 #
transform $-1 1 0 0 0 1 0 0 0 1 50.552079836420788 27.421575897351307 13.437886068731617 1 rotate no_reflect no_shear #
lump $-1 $-1 $64 $7 #
transform $-1 1 0 0 0 1 0 0 0 1 50.552079836420788 27.421575897351307 13.437886068731617 1 rotate no_reflect no_shear #
lump $-1 $-1 $65 $8 #
transform $-1 1 0 0 0 1 0 0 0 1 50.552079836420788 27.421575897351307 13.437886068731617 1 rotate no_reflect no_shear #
lump $-1 $-1 $66 $9 #
transform $-1 1 0 0 0 1 0 0 0 1 50.552079836420788 27.421575897351307 13.437886068731617 1 rotate no_reflect no_shear #
lump $-1 $-1 $67 $10 #
transform $-1 1 0 0 0 1 0 0 0 1 50.552079836420788 27.421575897351307 13.437886068731617 1 rotate no_reflect no_shear #
lump $-1 $-1 $68 $11 #
transform $-1 1 0 0 0 1 0 0 0 1 50.552079836420788 27.421575897351307 13.437886068731617 1 rotate no_reflect no_shear #
lump $-1 $-1 $69 $12 #
transform $-1 1 0 0 0 1 0 0 0 1 50.552079836420788 27.421575897351307 13.437886068731617 1 rotate no_reflect no_shear #
lump $-1 $-1 $70 $13 #
transform $-1 1 0 0 0 1 0 0 0 1 50.552079836420788 27.421575897351307 13.437886068731617 1 rotate no_reflect no_shear #
lump $-1 $-1 $71 $14 #
transform $-1 1 0 0 0 1 0 0 0 1 50.552079836420788 27.421575897351307 13.437886068731617 1 rotate no_reflect no_shear #
lump $-1 $-1 $72 $15 #
transform $-1 1 0 0 0 1 0 0 0 1 50.552079836420788 27.421575897351307 13.437886068731617 1 rotate no_reflect no_shear #
lump $-1 $-1 $73 $16 #
transform $-1 1 0 0 0 1 0 0 0 1 50.552079836420788 27.421575897351307 13.437886068731617 1 rotate no_reflect no_shear #
lump $-1 $-1 $74 $17 #
transform $-1 1 0 0 0 1 0 0 0 1 50.552079836420788 27.421575897351307 13.437886068731617 1 rotate no_reflect no_shear #
lump $-1 $-1 $75 $18 #
transform $-1 1 0 0 0 1 0 0 0 1 50.552079836420788 27.421575897351307 13.437886068731617 1 rotate no_reflect no_shear #
shell $-1 $-1 $-1 $76 $-1 $19 #
shell $-1 $-1 $-1 $77 $-1 $21 #
shell $-1 $-1 $-1 $78 $-1 $23 #
shell $-1 $-1 $-1 $79 $-1 $25 #
shell $-1 $-1 $-1 $80 $-1 $27 #
shell $-1 $-1 $-1 $81 $-1 $29 #
shell $-1 $-1 $-1 $82 $-1 $31 #
shell $-1 $-1 $-1 $83 $-1 $33 #
shell $-1 $-1 $-1 $84 $-1 $35 #
shell $-1 $-1 $-1 $85 $-1 $37 #
shell $-1 $-1 $-1 $86 $-1 $39 #
shell $-1 $-1 $-1 $87 $-1 $41 #
shell $-1 $-1 $-1 $88 $-1 $43 #
shell $-1 $-1 $-1 $89 $-1 $45 #
shell $-1 $-1 $-1 $90 $-1 $47 #
shell $-1 $-1 $-1 $91 $-1 $49 #
shell $-1 $-1 $-1 $92 $-1 $51 #
shell $-1 $-1 $-1 $93 $-1 $53 #
shell $-1 $-1 $-1 $94 $-1 $55 #
face $-1 $95 $96 $57 $-1 $97 forward single #
face $-1 $98 $99 $58 $-1 $100 forward single #
face $-1 $101 $102 $59 $-1 $103 forward single #
face $-1 $104 $105 $60 $-1 $106 reversed single #
face $-1 $107 $108 $61 $-1 $109 forward single #
face $-1 $110 $111 $62 $-1 $112 forward single #
face $-1 $113 $114 $63 $-1 $115 forward single #
face $-1 $116 $117 $64 $-1 $118 reversed single #
face $-1 $119 $120 $65 $-1 $121 forward single #
face $-1 $122 $123 $66 $-1 $124 forward single #
face $-1 $125 $126 $67 $-1 $127 reversed single #
face $-1 $128 $129 $68 $-1 $130 forward single #
face $-1 $131 $132 $69 $-1 $133 forward single #
face $-1 $134 $135 $70 $-1 $136 reversed single #
face $-1 $137 $138 $71 $-1 $139 forward single #
face $-1 $140 $141 $72 $-1 $142 forward single #
face $-1 $143 $144 $73 $-1 $145 reversed single #
face $-1 $146 $147 $74 $-1 $148 forward single #
face $-1 $149 $150 $75 $-1 $151 forward single #
face $-1 $152 $153 $57 $-1 $154 reversed single #
loop $-1 $-1 $155 $76 #
plane-surface $-1 0 0 13.437886068731617 0 0 1 1 0 0 forward_v I I I I #
face $-1 $156 $157 $58 $-1 $158 reversed single #
loop $-1 $-1 $159 $77 #
plane-surface $-1 -41.756155609000608 0 -3.4763355147802728 0 0 1 1 0 0 forward_v I I I I #
face $-1 $160 $161 $59 $-1 $162 reversed single #
loop $-1 $-1 $163 $78 #
plane-surface $-1 41.756155609000601 0 -3.4763355147802728 0 0 1 1 0 0 forward_v I I I I #
face $-1 $164 $165 $60 $-1 $166 reversed single #
loop $-1 $-1 $167 $79 #
plane-surface $-1 25.383612990750024 -101.36447815876575 76.726733278728503 1 0 0 0 0.73135370988377701 -0.68199835119979291 forward_v I I I I #
face $-1 $168 $169 $61 $-1 $170 forward single #
loop $-1 $171 $172 $80 #
cone-surface $-1 26.898936668916107 -24.415005665083843 10.264875399970879 0 0.73135370988377701 -0.68199835119979291 0.5 0 0 1 I I 0 1 0.5 forward I I I I #
face $-1 $173 $174 $62 $-1 $175 forward single #
loop $-1 $176 $177 $81 #
cone-surface $-1 29.171922186165233 -24.415005665083843 10.264875399970879 0 0.73135370988377701 -0.68199835119979291 0.5 0 0 1 I I 0 1 0.5 forward I I I I #
face $-1 $178 $179 $63 $-1 $180 forward single #
loop $-1 $181 $182 $82 #
cone-surface $-1 31.444907703414358 -24.415005665083843 10.264875399970879 0 0.73135370988377701 -0.68199835119979291 0.5 0 0 1 I I 0 1 0.5 forward I I I I #
face $-1 $183 $184 $64 $-1 $185 reversed single #
loop $-1 $-1 $186 $83 #
plane-surface $-1 -19.004430584496355 69.619358520577222 116.16607616969665 -1 0 0 0 0.7660444514056185 0.64278759981090561 forward_v I I I I #
face $-1 $187 $188 $65 $-1 $189 forward single #
loop $-1 $190 $191 $84 #
cone-surface $-1 -25.488299809057175 25.126297862799603 10.879762371688088 0 -0.7660444514056185 -0.64278759981090561 1 0 0 1 I I 0 1 1 forward I I I I #
face $-1 $192 $193 $66 $-1 $194 forward single #
loop $-1 $195 $196 $85 #
cone-surface $-1 -21.597978274320685 25.126297862799603 10.879762371688088 0 -0.7660444514056185 -0.64278759981090561 1 0 0 1 I I 0 1 1 forward I I I I #
face $-1 $197 $198 $67 $-1 $199 reversed single #
loop $-1 $-1 $200 $86 #
plane-surface $-1 -2.5243148937061441 69.619358520577222 116.16607616969665 -1 0 0 0 0.7660444514056185 0.64278759981090561 forward_v I I I I #
face $-1 $201 $202 $68 $-1 $203 forward single #
loop $-1 $204 $205 $87 #
cone-surface $-1 -9.0081841182669606 25.126297862799603 10.879762371688088 0 -0.7660444514056185 -0.64278759981090561 1 0 0 1 I I 0 1 1 forward I I I I #
face $-1 $206 $207 $69 $-1 $208 forward single #
loop $-1 $209 $210 $88 #
cone-surface $-1 -5.1178625835304672 25.126297862799603 10.879762371688088 0 -0.7660444514056185 -0.64278759981090561 1 0 0 1 I I 0 1 1 forward I I I I #
face $-1 $211 $212 $70 $-1 $213 reversed single #
loop $-1 $-1 $214 $89 #
plane-surface $-1 13.95580079708407 69.619358520577222 116.16607616969665 -1 0 0 0 0.7660444514056185 0.64278759981090561 forward_v I I I I #
face $-1 $215 $216 $71 $-1 $217 forward single #
loop $-1 $218 $219 $90 #
cone-surface $-1 7.4719315725232534 25.126297862799603 10.879762371688088 0 -0.7660444514056185 -0.64278759981090561 1 0 0 1 I I 0 1 1 forward I I I I #
face $-1 $220 $221 $72 $-1 $222 forward single #
loop $-1 $223 $224 $91 #
cone-surface $-1 11.362253107259747 25.126297862799603 10.879762371688088 0 -0.7660444514056185 -0.64278759981090561 1 0 0 1 I I 0 1 1 forward I I I I #
face $-1 $225 $226 $73 $-1 $227 reversed single #
loop $-1 $-1 $228 $92 #
plane-surface $-1 30.435916487874284 69.619358520577222 116.16607616969665 -1 0 0 0 0.7660444514056185 0.64278759981090561 forward_v I I I I #
face $-1 $229 $230 $74 $-1 $231 forward single #
loop $-1 $232 $233 $93 #
cone-surface $-1 23.952047263313474 25.126297862799603 10.879762371688088 0 -0.7660444514056185 -0.64278759981090561 1 0 0 1 I I 0 1 1 forward I I I I #
face $-1 $234 $235 $75 $-1 $236 forward single #
loop $-1 $237 $238 $94 #
cone-surface $-1 27.842368798049961 25.126297862799603 10.879762371688088 0 -0.7660444514056185 -0.64278759981090561 1 0 0 1 I I 0 1 1 forward I I I I #
face $-1 $239 $240 $57 $-1 $241 reversed single #
loop $-1 $-1 $242 $95 #
plane-surface $-1 0 0 -13.437886068731617 0 0 1 1 0 0 forward_v I I I I #
coedge $-1 $243 $244 $245 $246 forward $96 $-1 #
face $-1 $247 $248 $58 $-1 $249 reversed single #
loop $-1 $-1 $250 $98 #
plane-surface $-1 -41.756155609000608 0 -6.4763355147802724 0 0 1 1 0 0 forward_v I I I I #
coedge $-1 $251 $252 $253 $254 forward $99 $-1 #
face $-1 $255 $256 $59 $-1 $257 reversed single #
loop $-1 $-1 $258 $101 #
plane-surface $-1 41.756155609000601 0 -6.4763355147802724 0 0 1 1 0 0 forward_v I I I I #
coedge $-1 $259 $260 $261 $262 reversed $102 $-1 #
face $-1 $263 $264 $60 $-1 $265 reversed single #
loop $-1 $-1 $266 $104 #
plane-surface $-1 29.171922186165233 -27.421575897351303 7.7738630824099602 0 -0.73135370988377701 0.68199835119979291 1 0 0 forward_v I I I I #
coedge $-1 $267 $268 $269 $270 reversed $105 $-1 #
face $-1 $-1 $271 $61 $-1 $272 forward single #
loop $-1 $273 $274 $107 #
cone-surface $-1 26.898936668916107 -23.86649038267101 9.7533766365710353 0 0.73135370988377701 -0.68199835119979291 0.25 0 0 1 I I -0.70710678118654746 0.70710678118654746 0.25 forward I I I I #
loop $-1 $-1 $275 $80 #
coedge $-1 $172 $172 $276 $277 reversed $108 $-1 #
face $-1 $-1 $278 $62 $-1 $279 forward single #
loop $-1 $280 $281 $110 #
cone-surface $-1 29.171922186165233 -23.86649038267101 9.7533766365710353 0 0.73135370988377701 -0.68199835119979291 0.25 0 0 1 I I -0.70710678118654746 0.70710678118654746 0.25 forward I I I I #
loop $-1 $-1 $282 $81 #
coedge $-1 $177 $177 $283 $284 reversed $111 $-1 #
face $-1 $-1 $285 $63 $-1 $286 forward single #
loop $-1 $287 $288 $113 #
cone-surface $-1 31.444907703414358 -23.86649038267101 9.7533766365710353 0 0.73135370988377701 -0.68199835119979291 0.25 0 0 1 I I -0.70710678118654746 0.70710678118654746 0.25 forward I I I I #
loop $-1 $-1 $289 $82 #
coedge $-1 $182 $182 $290 $291 reversed $114 $-1 #
face $-1 $292 $293 $64 $-1 $294 reversed single #
loop $-1 $-1 $295 $116 #
plane-surface $-1 -23.543139041688928 -7.8309220108307613 51.177576042692266 0 0.7660444514056185 0.64278759981090561 1 0 0 forward_v I I I I #
coedge $-1 $296 $297 $298 $299 reversed $117 $-1 #
face $-1 $-1 $300 $65 $-1 $301 forward single #
loop $-1 $302 $303 $119 #
cone-surface $-1 -25.488299809057175 24.24056700223321 10.136545952722789 0 -0.7660444514056185 -0.64278759981090561 0.5 0 0 1 I I -0.70710678118654746 0.70710678118654746 0.5 forward I I I I #
loop $-1 $-1 $304 $84 #
coedge $-1 $191 $191 $305 $306 reversed $120 $-1 #
face $-1 $-1 $307 $66 $-1 $308 forward single #
loop $-1 $309 $310 $122 #
cone-surface $-1 -21.597978274320685 24.24056700223321 10.136545952722789 0 -0.7660444514056185 -0.64278759981090561 0.5 0 0 1 I I -0.70710678118654746 0.70710678118654746 0.5 forward I I I I #
loop $-1 $-1 $311 $85 #
coedge $-1 $196 $196 $312 $313 reversed $123 $-1 #
face $-1 $314 $315 $67 $-1 $316 reversed single #
loop $-1 $-1 $317 $125 #
plane-surface $-1 -7.0630233508987175 -7.8309220108307613 51.177576042692266 0 0.7660444514056185 0.64278759981090561 1 0 0 forward_v I I I I #
coedge $-1 $318 $319 $320 $321 reversed $126 $-1 #
face $-1 $-1 $322 $68 $-1 $323 forward single #
loop $-1 $324 $325 $128 #
cone-surface $-1 -9.0081841182669606 24.24056700223321 10.136545952722789 0 -0.7660444514056185 -0.64278759981090561 0.5 0 0 1 I I -0.70710678118654746 0.70710678118654746 0.5 forward I I I I #
loop $-1 $-1 $326 $87 #
coedge $-1 $205 $205 $327 $328 reversed $129 $-1 #
face $-1 $-1 $329 $69 $-1 $330 forward single #
loop $-1 $331 $332 $131 #
cone-surface $-1 -5.1178625835304672 24.24056700223321 10.136545952722789 0 -0.7660444514056185 -0.64278759981090561 0.5 0 0 1 I I -0.70710678118654746 0.70710678118654746 0.5 forward I I I I #
loop $-1 $-1 $333 $88 #
coedge $-1 $210 $210 $334 $335 reversed $132 $-1 #
face $-1 $336 $337 $70 $-1 $338 reversed single #
loop $-1 $-1 $339 $134 #
plane-surface $-1 9.4170923398914965 -7.8309220108307613 51.177576042692266 0 0.7660444514056185 0.64278759981090561 1 0 0 forward_v I I I I #
coedge $-1 $340 $341 $342 $343 reversed $135 $-1 #
face $-1 $-1 $344 $71 $-1 $345 forward single #
loop $-1 $346 $347 $137 #
cone-surface $-1 7.4719315725232534 24.24056700223321 10.136545952722789 0 -0.7660444514056185 -0.64278759981090561 0.5 0 0 1 I I -0.70710678118654746 0.70710678118654746 0.5 forward I I I I #
loop $-1 $-1 $348 $90 #
coedge $-1 $219 $219 $349 $350 reversed $138 $-1 #
face $-1 $-1 $351 $72 $-1 $352 forward single #
loop $-1 $353 $354 $140 #
cone-surface $-1 11.362253107259747 24.24056700223321 10.136545952722789 0 -0.7660444514056185 -0.64278759981090561 0.5 0 0 1 I I -0.70710678118654746 0.70710678118654746 0.5 forward I I I I #
loop $-1 $-1 $355 $91 #
coedge $-1 $224 $224 $356 $357 reversed $141 $-1 #
face $-1 $358 $359 $73 $-1 $360 reversed single #
loop $-1 $-1 $361 $143 #
plane-surface $-1 25.897208030681711 -7.8309220108307613 51.177576042692266 0 0.7660444514056185 0.64278759981090561 1 0 0 forward_v I I I I #
coedge $-1 $362 $363 $364 $365 reversed $144 $-1 #
face $-1 $-1 $366 $74 $-1 $367 forward single #
loop $-1 $368 $369 $146 #
cone-surface $-1 23.952047263313474 24.24056700223321 10.136545952722789 0 -0.7660444514056185 -0.64278759981090561 0.5 0 0 1 I I -0.70710678118654746 0.70710678118654746 0.5 forward I I I I #
loop $-1 $-1 $370 $93 #
coedge $-1 $233 $233 $371 $372 reversed $147 $-1 #
face $-1 $-1 $373 $75 $-1 $374 forward single #
loop $-1 $375 $376 $149 #
cone-surface $-1 27.842368798049961 24.24056700223321 10.136545952722789 0 -0.7660444514056185 -0.64278759981090561 0.5 0 0 1 I I -0.70710678118654746 0.70710678118654746 0.5 forward I I I I #
loop $-1 $-1 $377 $94 #
coedge $-1 $238 $238 $378 $379 reversed $150 $-1 #
face $-1 $380 $381 $57 $-1 $382 reversed single #
loop $-1 $-1 $383 $152 #
plane-surface $-1 0 -27.421575897351307 0 0 1 0 0 0 1 forward_v I I I I #
coedge $-1 $384 $385 $386 $387 forward $153 $-1 #
coedge $-1 $388 $155 $389 $390 forward $96 $-1 #
coedge $-1 $155 $388 $391 $392 forward $96 $-1 #
coedge $-1 $393 $394 $155 $246 reversed $395 $-1 #
edge $-1 $396 -27.421575897351307 $397 27.421575897351307 $245 $398 forward 7 unknown #
face $-1 $399 $400 $58 $-1 $401 reversed single #
loop $-1 $-1 $402 $156 #
plane-surface $-1 -32.960231381580428 0 -4.9763355147802724 -1 0 0 0 0 1 forward_v I I I I #
coedge $-1 $403 $404 $405 $406 forward $157 $-1 #
coedge $-1 $407 $159 $408 $409 reversed $99 $-1 #
coedge $-1 $159 $407 $410 $411 reversed $99 $-1 #
coedge $-1 $402 $412 $159 $254 reversed $248 $-1 #
edge $-1 $413 -27.421575897351307 $414 27.421575897351307 $253 $415 forward 7 unknown #
face $-1 $416 $417 $59 $-1 $418 reversed single #
loop $-1 $-1 $419 $160 #
plane-surface $-1 32.960231381580421 0 -4.9763355147802724 1 0 0 0 0 -1 forward_v I I I I #
coedge $-1 $420 $421 $422 $423 reversed $161 $-1 #
coedge $-1 $424 $163 $425 $426 reversed $102 $-1 #
coedge $-1 $163 $424 $427 $428 reversed $102 $-1 #
coedge $-1 $429 $430 $163 $262 forward $431 $-1 #
edge $-1 $432 -27.421575897351307 $433 27.421575897351307 $261 $434 forward 7 unknown #
face $-1 $435 $436 $60 $-1 $437 forward single #
loop $-1 $-1 $438 $164 #
plane-surface $-1 32.960231381580442 -101.36447815876575 76.726733278728503 -1 0 0 0 -0.73135370988377701 0.68199835119979291 forward_v I I I I #
coedge $-1 $439 $440 $441 $442 reversed $165 $-1 #
coedge $-1 $268 $167 $443 $444 reversed $105 $-1 #
coedge $-1 $167 $267 $439 $445 reversed $105 $-1 #
coedge $-1 $441 $446 $167 $270 forward $447 $-1 #
edge $-1 $448 24.925480570632637 $449 30.589503556954295 $269 $450 forward 7 unknown #
loop $-1 $-1 $276 $168 #
plane-surface $-1 29.171922186165233 -27.421575897351303 7.7738630824099602 0 -0.73135370988377701 0.68199835119979291 1 0 0 forward_v I I I I #
loop $-1 $-1 $451 $107 #
coedge $-1 $274 $274 $275 $452 reversed $169 $-1 #
coedge $-1 $275 $275 $274 $452 forward $171 $-1 #
coedge $-1 $276 $276 $172 $277 forward $271 $-1 #
edge $-1 $453 1.5462175816334163e-015 $453 6.2831853071796022 $276 $454 forward 7 unknown #
loop $-1 $-1 $283 $173 #
plane-surface $-1 29.171922186165233 -27.421575897351303 7.7738630824099602 0 -0.73135370988377701 0.68199835119979291 1 0 0 forward_v I I I I #
loop $-1 $-1 $455 $110 #
coedge $-1 $281 $281 $282 $456 reversed $174 $-1 #
coedge $-1 $282 $282 $281 $456 forward $176 $-1 #
coedge $-1 $283 $283 $177 $284 forward $278 $-1 #
edge $-1 $457 1.5462175816334163e-015 $457 6.2831853071796022 $283 $458 forward 7 unknown #
loop $-1 $-1 $290 $178 #
plane-surface $-1 29.171922186165233 -27.421575897351303 7.7738630824099602 0 -0.73135370988377701 0.68199835119979291 1 0 0 forward_v I I I I #
loop $-1 $-1 $459 $113 #
coedge $-1 $288 $288 $289 $460 reversed $179 $-1 #
coedge $-1 $289 $289 $288 $460 forward $181 $-1 #
coedge $-1 $290 $290 $182 $291 forward $285 $-1 #
edge $-1 $461 1.5462175816334163e-015 $461 6.2831853071796022 $290 $462 forward 7 unknown #
face $-1 $463 $464 $64 $-1 $465 reversed single #
loop $-1 $-1 $466 $183 #
plane-surface $-1 -28.081847498881501 69.619358520577222 116.16607616969665 1 0 0 0 -0.7660444514056185 -0.64278759981090561 forward_v I I I I #
coedge $-1 $467 $468 $469 $470 reversed $184 $-1 #
coedge $-1 $297 $186 $471 $472 reversed $117 $-1 #
coedge $-1 $186 $296 $467 $473 reversed $117 $-1 #
coedge $-1 $469 $474 $186 $299 forward $464 $-1 #
edge $-1 $475 44.645152016116711 $476 48.917754172084095 $298 $477 forward 7 unknown #
loop $-1 $-1 $305 $187 #
plane-surface $-1 -23.543139041688928 -7.8309220108307613 51.177576042692266 0 0.7660444514056185 0.64278759981090561 1 0 0 forward_v I I I I #
loop $-1 $-1 $478 $119 #
coedge $-1 $303 $303 $304 $479 reversed $188 $-1 #
coedge $-1 $304 $304 $303 $479 forward $190 $-1 #
coedge $-1 $305 $305 $191 $306 forward $300 $-1 #
edge $-1 $480 9.6995139041228756e-016 $480 6.2831853071796013 $305 $481 forward 7 unknown #
loop $-1 $-1 $312 $192 #
plane-surface $-1 -23.543139041688928 -7.8309220108307613 51.177576042692266 0 0.7660444514056185 0.64278759981090561 1 0 0 forward_v I I I I #
loop $-1 $-1 $482 $122 #
coedge $-1 $310 $310 $311 $483 reversed $193 $-1 #
coedge $-1 $311 $311 $310 $483 forward $195 $-1 #
coedge $-1 $312 $312 $196 $313 forward $307 $-1 #
edge $-1 $484 9.6995139041228756e-016 $484 6.2831853071796013 $312 $485 forward 7 unknown #
face $-1 $486 $487 $67 $-1 $488 reversed single #
loop $-1 $-1 $489 $197 #
plane-surface $-1 -11.601731808091291 69.619358520577222 116.16607616969665 1 0 0 0 -0.7660444514056185 -0.64278759981090561 forward_v I I I I #
coedge $-1 $490 $491 $492 $493 reversed $198 $-1 #
coedge $-1 $319 $200 $494 $495 reversed $126 $-1 #
coedge $-1 $200 $318 $490 $496 reversed $126 $-1 #
coedge $-1 $492 $497 $200 $321 forward $487 $-1 #
edge $-1 $498 44.645152016116711 $499 48.917754172084095 $320 $500 forward 7 unknown #
loop $-1 $-1 $327 $201 #
plane-surface $-1 -7.0630233508987175 -7.8309220108307613 51.177576042692266 0 0.7660444514056185 0.64278759981090561 1 0 0 forward_v I I I I #
loop $-1 $-1 $501 $128 #
coedge $-1 $325 $325 $326 $502 reversed $202 $-1 #
coedge $-1 $326 $326 $325 $502 forward $204 $-1 #
coedge $-1 $327 $327 $205 $328 forward $322 $-1 #
edge $-1 $503 9.6995139041228756e-016 $503 6.2831853071796013 $327 $504 forward 7 unknown #
loop $-1 $-1 $334 $206 #
plane-surface $-1 -7.0630233508987175 -7.8309220108307613 51.177576042692266 0 0.7660444514056185 0.64278759981090561 1 0 0 forward_v I I I I #
loop $-1 $-1 $505 $131 #
coedge $-1 $332 $332 $333 $506 reversed $207 $-1 #
coedge $-1 $333 $333 $332 $506 forward $209 $-1 #
coedge $-1 $334 $334 $210 $335 forward $329 $-1 #
edge $-1 $507 9.6995139041228756e-016 $507 6.2831853071796013 $334 $508 forward 7 unknown #
face $-1 $509 $510 $70 $-1 $511 forward single #
loop $-1 $-1 $512 $211 #
plane-surface $-1 4.8783838826989232 69.619358520577222 116.16607616969665 1 0 0 0 -0.7660444514056185 -0.64278759981090561 forward_v I I I I #
coedge $-1 $513 $514 $515 $516 reversed $212 $-1 #
coedge $-1 $341 $214 $517 $518 reversed $135 $-1 #
coedge $-1 $214 $340 $513 $519 reversed $135 $-1 #
coedge $-1 $515 $520 $214 $343 forward $521 $-1 #
edge $-1 $522 44.645152016116711 $523 48.917754172084095 $342 $524 forward 7 unknown #
loop $-1 $-1 $349 $215 #
plane-surface $-1 9.4170923398914965 -7.8309220108307613 51.177576042692266 0 0.7660444514056185 0.64278759981090561 1 0 0 forward_v I I I I #
loop $-1 $-1 $525 $137 #
coedge $-1 $347 $347 $348 $526 reversed $216 $-1 #
coedge $-1 $348 $348 $347 $526 forward $218 $-1 #
coedge $-1 $349 $349 $219 $350 forward $344 $-1 #
edge $-1 $527 9.6995139041228756e-016 $527 6.2831853071796013 $349 $528 forward 7 unknown #
loop $-1 $-1 $356 $220 #
plane-surface $-1 9.4170923398914965 -7.8309220108307613 51.177576042692266 0 0.7660444514056185 0.64278759981090561 1 0 0 forward_v I I I I #
loop $-1 $-1 $529 $140 #
coedge $-1 $354 $354 $355 $530 reversed $221 $-1 #
coedge $-1 $355 $355 $354 $530 forward $223 $-1 #
coedge $-1 $356 $356 $224 $357 forward $351 $-1 #
edge $-1 $531 9.6995139041228756e-016 $531 6.2831853071796013 $356 $532 forward 7 unknown #
face $-1 $533 $534 $73 $-1 $535 forward single #
loop $-1 $-1 $536 $225 #
plane-surface $-1 21.358499573489137 69.619358520577222 116.16607616969665 1 0 0 0 -0.7660444514056185 -0.64278759981090561 forward_v I I I I #
coedge $-1 $537 $538 $539 $540 reversed $226 $-1 #
coedge $-1 $363 $228 $541 $542 reversed $144 $-1 #
coedge $-1 $228 $362 $537 $543 reversed $144 $-1 #
coedge $-1 $539 $544 $228 $365 forward $545 $-1 #
edge $-1 $546 44.645152016116711 $547 48.917754172084095 $364 $548 forward 7 unknown #
loop $-1 $-1 $371 $229 #
plane-surface $-1 25.897208030681711 -7.8309220108307613 51.177576042692266 0 0.7660444514056185 0.64278759981090561 1 0 0 forward_v I I I I #
loop $-1 $-1 $549 $146 #
coedge $-1 $369 $369 $370 $550 reversed $230 $-1 #
coedge $-1 $370 $370 $369 $550 forward $232 $-1 #
coedge $-1 $371 $371 $233 $372 forward $366 $-1 #
edge $-1 $551 9.6995139041228756e-016 $551 6.2831853071796013 $371 $552 forward 7 unknown #
loop $-1 $-1 $378 $234 #
plane-surface $-1 25.897208030681711 -7.8309220108307613 51.177576042692266 0 0.7660444514056185 0.64278759981090561 1 0 0 forward_v I I I I #
loop $-1 $-1 $553 $149 #
coedge $-1 $376 $376 $377 $554 reversed $235 $-1 #
coedge $-1 $377 $377 $376 $554 forward $237 $-1 #
coedge $-1 $378 $378 $238 $379 forward $373 $-1 #
edge $-1 $555 9.6995139041228756e-016 $555 6.2831853071796013 $378 $556 forward 7 unknown #
face $-1 $557 $558 $57 $-1 $559 reversed single #
loop $-1 $-1 $560 $239 #
plane-surface $-1 -50.552079836420788 0 0 1 0 0 0 0 -1 forward_v I I I I #
coedge $-1 $561 $391 $562 $563 forward $240 $-1 #
coedge $-1 $564 $242 $561 $565 forward $153 $-1 #
coedge $-1 $242 $564 $566 $567 forward $153 $-1 #
coedge $-1 $394 $393 $242 $387 reversed $395 $-1 #
edge $-1 $568 -27.421575897351307 $569 27.421575897351307 $386 $570 forward 7 unknown #
coedge $-1 $244 $243 $571 $572 forward $96 $-1 #
coedge $-1 $573 $574 $243 $390 reversed $558 $-1 #
edge $-1 $397 -50.552079836420788 $575 50.552079836420788 $389 $576 forward 7 unknown #
coedge $-1 $383 $577 $244 $392 reversed $240 $-1 #
edge $-1 $578 -50.552079836420788 $396 50.552079836420788 $391 $579 forward 7 unknown #
coedge $-1 $386 $245 $577 $580 forward $395 $-1 #
coedge $-1 $245 $386 $573 $581 reversed $395 $-1 #
loop $-1 $-1 $393 $557 #
vertex $-1 $246 $582 #
vertex $-1 $246 $583 #
straight-curve $-1 50.552079836420788 0 13.437886068731617 0 1 0 I I #
face $-1 $584 $585 $58 $-1 $586 reversed single #
loop $-1 $-1 $587 $247 #
plane-surface $-1 0 -27.421575897351307 0 0 1 0 0 0 1 forward_v I I I I #
coedge $-1 $405 $253 $588 $589 reversed $248 $-1 #
coedge $-1 $590 $250 $587 $591 reversed $157 $-1 #
coedge $-1 $250 $590 $592 $593 reversed $157 $-1 #
coedge $-1 $412 $402 $250 $406 reversed $248 $-1 #
edge $-1 $594 -27.421575897351307 $595 27.421575897351307 $405 $596 forward 7 unknown #
coedge $-1 $252 $251 $597 $598 reversed $99 $-1 #
coedge $-1 $599 $600 $251 $409 forward $601 $-1 #
edge $-1 $602 -29.674002031920484 $414 -12.082153577080124 $408 $603 forward 7 unknown #
coedge $-1 $604 $588 $252 $411 forward $400 $-1 #
edge $-1 $413 12.082153577080124 $605 29.674002031920484 $410 $606 forward 7 unknown #
coedge $-1 $253 $405 $599 $607 reversed $248 $-1 #
vertex $-1 $411 $608 #
vertex $-1 $409 $609 #
straight-curve $-1 -32.960231381580428 0 -3.4763355147802728 0 1 0 I I #
face $-1 $610 $611 $59 $-1 $612 reversed single #
loop $-1 $-1 $427 $255 #
plane-surface $-1 0 -27.421575897351307 0 0 1 0 0 0 1 forward_v I I I I #
coedge $-1 $613 $614 $615 $616 reversed $256 $-1 #
coedge $-1 $617 $258 $618 $619 reversed $161 $-1 #
coedge $-1 $258 $617 $620 $621 reversed $161 $-1 #
coedge $-1 $430 $429 $258 $423 forward $431 $-1 #
edge $-1 $622 -27.421575897351307 $623 27.421575897351307 $422 $624 forward 7 unknown #
coedge $-1 $260 $259 $614 $625 forward $102 $-1 #
coedge $-1 $626 $615 $259 $426 forward $611 $-1 #
edge $-1 $627 12.08215357708012 $432 29.67400203192048 $425 $628 forward 7 unknown #
coedge $-1 $629 $630 $260 $428 forward $417 $-1 #
edge $-1 $433 -29.67400203192048 $631 -12.08215357708012 $427 $632 forward 7 unknown #
coedge $-1 $422 $261 $630 $633 forward $431 $-1 #
coedge $-1 $261 $422 $626 $634 reversed $431 $-1 #
loop $-1 $-1 $261 $610 #
vertex $-1 $634 $635 #
vertex $-1 $633 $636 #
straight-curve $-1 50.552079836420788 0 -3.4763355147802728 0 -1 0 I I #
face $-1 $-1 $447 $60 $-1 $637 reversed single #
loop $-1 $-1 $638 $263 #
plane-surface $-1 0 0 13.437886068731617 0 0 1 1 0 0 forward_v I I I I #
coedge $-1 $639 $640 $641 $642 reversed $264 $-1 #
coedge $-1 $643 $266 $268 $445 forward $165 $-1 #
coedge $-1 $266 $643 $639 $644 forward $165 $-1 #
coedge $-1 $641 $269 $266 $442 forward $447 $-1 #
edge $-1 $449 10.797651897667407 $645 18.374270288497826 $441 $646 forward 7 unknown #
coedge $-1 $647 $648 $267 $444 forward $436 $-1 #
edge $-1 $649 -28.542449936682701 $448 -23.260663182031568 $443 $650 forward 7 unknown #
edge $-1 $449 -5.02123520037248e-015 $649 7.7445740819743083 $268 $651 forward 7 unknown #
coedge $-1 $269 $641 $647 $652 reversed $447 $-1 #
loop $-1 $-1 $641 $435 #
vertex $-1 $652 $653 #
vertex $-1 $270 $654 #
straight-curve $-1 25.383612990750024 -27.421575897351303 38.363366639364251 0 0 -1 I I #
coedge $-1 $451 $451 $-1 $655 reversed $273 $-1 #
edge $-1 $656 0 $656 6.2831853071796004 $274 $657 forward 7 unknown #
vertex $-1 $277 $658 #
ellipse-curve $-1 26.898936668916107 -24.780682520025742 10.605874575570786 0 -0.73135370988377701 0.68199835119979291 0.5 0 0 1 I I #
coedge $-1 $455 $455 $-1 $659 reversed $280 $-1 #
edge $-1 $660 0 $660 6.2831853071796004 $281 $661 forward 7 unknown #
vertex $-1 $284 $662 #
ellipse-curve $-1 29.171922186165233 -24.780682520025742 10.605874575570786 0 -0.73135370988377701 0.68199835119979291 0.5 0 0 1 I I #
coedge $-1 $459 $459 $-1 $663 reversed $287 $-1 #
edge $-1 $664 0 $664 6.2831853071796004 $288 $665 forward 7 unknown #
vertex $-1 $291 $666 #
ellipse-curve $-1 31.444907703414358 -24.780682520025742 10.605874575570786 0 -0.73135370988377701 0.68199835119979291 0.5 0 0 1 I I #
face $-1 $-1 $667 $64 $-1 $668 forward single #
loop $-1 $-1 $298 $292 #
plane-surface $-1 0 27.421575897351307 0 0 -1 0 0 0 -1 forward_v I I I I #
coedge $-1 $669 $670 $671 $672 reversed $293 $-1 #
coedge $-1 $673 $295 $297 $473 forward $184 $-1 #
coedge $-1 $295 $673 $669 $674 forward $184 $-1 #
coedge $-1 $671 $298 $295 $470 forward $464 $-1 #
edge $-1 $476 7.2328610636518906 $675 16.310277978037035 $469 $676 forward 7 unknown #
coedge $-1 $677 $678 $296 $472 forward $667 $-1 #
edge $-1 $679 -10.973242162313557 $475 -7.3881033629373043 $471 $680 forward 7 unknown #
edge $-1 $476 -54.843151794702642 $679 -49.265665856220132 $297 $681 forward 7 unknown #
coedge $-1 $298 $671 $677 $682 reversed $464 $-1 #
vertex $-1 $682 $683 #
vertex $-1 $299 $684 #
straight-curve $-1 -19.004430584496355 27.421575897351307 58.083038084848326 0 0 -1 I I #
coedge $-1 $478 $478 $-1 $685 reversed $302 $-1 #
edge $-1 $686 0 $686 6.2831853071796004 $303 $687 forward 7 unknown #
vertex $-1 $306 $688 #
ellipse-curve $-1 -25.488299809057175 25.629006497663173 11.301584990747921 0 0.7660444514056185 0.64278759981090561 1 0 0 1 I I #
coedge $-1 $482 $482 $-1 $689 reversed $309 $-1 #
edge $-1 $690 0 $690 6.2831853071796004 $310 $691 forward 7 unknown #
vertex $-1 $313 $692 #
ellipse-curve $-1 -21.597978274320685 25.629006497663173 11.301584990747921 0 0.7660444514056185 0.64278759981090561 1 0 0 1 I I #
face $-1 $-1 $693 $67 $-1 $694 forward single #
loop $-1 $-1 $320 $314 #
plane-surface $-1 0 27.421575897351307 0 0 -1 0 0 0 -1 forward_v I I I I #
coedge $-1 $695 $696 $697 $698 reversed $315 $-1 #
coedge $-1 $699 $317 $319 $496 forward $198 $-1 #
coedge $-1 $317 $699 $695 $700 forward $198 $-1 #
coedge $-1 $697 $320 $317 $493 forward $487 $-1 #
edge $-1 $499 -1.0071967817432146 $701 8.0702201326419321 $492 $702 forward 7 unknown #
coedge $-1 $703 $704 $318 $495 forward $693 $-1 #
edge $-1 $705 -10.973242162313557 $498 -7.3881033629373043 $494 $706 forward 7 unknown #
edge $-1 $499 -54.843151794702642 $705 -49.265665856220132 $319 $707 forward 7 unknown #
coedge $-1 $320 $697 $703 $708 reversed $487 $-1 #
vertex $-1 $708 $709 #
vertex $-1 $321 $710 #
straight-curve $-1 -2.5243148937061441 27.421575897351307 58.083038084848326 0 0 -1 I I #
coedge $-1 $501 $501 $-1 $711 reversed $324 $-1 #
edge $-1 $712 0 $712 6.2831853071796004 $325 $713 forward 7 unknown #
vertex $-1 $328 $714 #
ellipse-curve $-1 -9.0081841182669606 25.629006497663173 11.301584990747921 0 0.7660444514056185 0.64278759981090561 1 0 0 1 I I #
coedge $-1 $505 $505 $-1 $715 reversed $331 $-1 #
edge $-1 $716 0 $716 6.2831853071796004 $332 $717 forward 7 unknown #
vertex $-1 $335 $718 #
ellipse-curve $-1 -5.1178625835304672 25.629006497663173 11.301584990747921 0 0.7660444514056185 0.64278759981090561 1 0 0 1 I I #
face $-1 $-1 $521 $70 $-1 $719 reversed single #
loop $-1 $-1 $720 $336 #
plane-surface $-1 0 0 13.437886068731617 0 0 1 1 0 0 forward_v I I I I #
coedge $-1 $721 $722 $723 $724 reversed $337 $-1 #
coedge $-1 $725 $339 $341 $519 forward $212 $-1 #
coedge $-1 $339 $725 $721 $726 forward $212 $-1 #
coedge $-1 $723 $342 $339 $516 forward $521 $-1 #
edge $-1 $523 -9.2472546271383216 $727 -0.16983771275317494 $515 $728 forward 7 unknown #
coedge $-1 $729 $730 $340 $518 forward $510 $-1 #
edge $-1 $731 -10.973242162313557 $522 -7.3881033629373043 $517 $732 forward 7 unknown #
edge $-1 $523 -54.843151794702642 $731 -49.265665856220132 $341 $733 forward 7 unknown #
coedge $-1 $342 $723 $729 $734 reversed $521 $-1 #
loop $-1 $-1 $723 $509 #
vertex $-1 $734 $735 #
vertex $-1 $343 $736 #
straight-curve $-1 13.95580079708407 27.421575897351307 58.083038084848326 0 0 -1 I I #
coedge $-1 $525 $525 $-1 $737 reversed $346 $-1 #
edge $-1 $738 0 $738 6.2831853071796004 $347 $739 forward 7 unknown #
vertex $-1 $350 $740 #
ellipse-curve $-1 7.4719315725232534 25.629006497663173 11.301584990747921 0 0.7660444514056185 0.64278759981090561 1 0 0 1 I I #
coedge $-1 $529 $529 $-1 $741 reversed $353 $-1 #
edge $-1 $742 0 $742 6.2831853071796004 $354 $743 forward 7 unknown #
vertex $-1 $357 $744 #
ellipse-curve $-1 11.362253107259747 25.629006497663173 11.301584990747921 0 0.7660444514056185 0.64278759981090561 1 0 0 1 I I #
face $-1 $-1 $545 $73 $-1 $745 reversed single #
loop $-1 $-1 $746 $358 #
plane-surface $-1 0 0 13.437886068731617 0 0 1 1 0 0 forward_v I I I I #
coedge $-1 $747 $748 $749 $750 reversed $359 $-1 #
coedge $-1 $751 $361 $363 $543 forward $226 $-1 #
coedge $-1 $361 $751 $747 $752 forward $226 $-1 #
coedge $-1 $749 $364 $361 $540 forward $545 $-1 #
edge $-1 $547 -17.487312472533429 $753 -8.4098955581482819 $539 $754 forward 7 unknown #
coedge $-1 $755 $756 $362 $542 forward $534 $-1 #
edge $-1 $757 -10.973242162313557 $546 -7.3881033629373043 $541 $758 forward 7 unknown #
edge $-1 $547 -54.843151794702642 $757 -49.265665856220132 $363 $759 forward 7 unknown #
coedge $-1 $364 $749 $755 $760 reversed $545 $-1 #
loop $-1 $-1 $749 $533 #
vertex $-1 $760 $761 #
vertex $-1 $365 $762 #
straight-curve $-1 30.435916487874284 27.421575897351307 58.083038084848326 0 0 -1 I I #
coedge $-1 $549 $549 $-1 $763 reversed $368 $-1 #
edge $-1 $764 0 $764 6.2831853071796004 $369 $765 forward 7 unknown #
vertex $-1 $372 $766 #
ellipse-curve $-1 23.952047263313474 25.629006497663173 11.301584990747921 0 0.7660444514056185 0.64278759981090561 1 0 0 1 I I #
coedge $-1 $553 $553 $-1 $767 reversed $375 $-1 #
edge $-1 $768 0 $768 6.2831853071796004 $376 $769 forward 7 unknown #
vertex $-1 $379 $770 #
ellipse-curve $-1 27.842368798049961 25.629006497663173 11.301584990747921 0 0.7660444514056185 0.64278759981090561 1 0 0 1 I I #
face $-1 $-1 $395 $57 $-1 $771 reversed single #
loop $-1 $-1 $573 $380 #
plane-surface $-1 0 27.421575897351307 0 0 -1 0 0 0 -1 forward_v I I I I #
coedge $-1 $772 $571 $574 $773 forward $381 $-1 #
coedge $-1 $577 $383 $384 $565 reversed $240 $-1 #
coedge $-1 $571 $772 $383 $563 reversed $381 $-1 #
edge $-1 $578 -13.437886068731617 $774 13.437886068731617 $562 $775 forward 7 unknown #
coedge $-1 $385 $384 $772 $776 forward $153 $-1 #
edge $-1 $569 -50.552079836420788 $774 50.552079836420788 $561 $777 forward 7 unknown #
coedge $-1 $574 $573 $385 $567 reversed $558 $-1 #
edge $-1 $778 -50.552079836420788 $568 50.552079836420788 $566 $779 forward 7 unknown #
vertex $-1 $387 $780 #
vertex $-1 $580 $781 #
straight-curve $-1 50.552079836420788 0 -13.437886068731617 0 -1 0 I I #
coedge $-1 $560 $562 $388 $572 reversed $381 $-1 #
edge $-1 $575 -27.421575897351307 $578 27.421575897351307 $571 $782 forward 7 unknown #
coedge $-1 $566 $389 $394 $581 forward $558 $-1 #
coedge $-1 $389 $566 $560 $773 reversed $558 $-1 #
vertex $-1 $390 $783 #
straight-curve $-1 0 27.421575897351307 13.437886068731617 -1 0 0 I I #
coedge $-1 $391 $561 $393 $580 reversed $240 $-1 #
vertex $-1 $572 $784 #
straight-curve $-1 0 -27.421575897351307 13.437886068731617 1 0 0 I I #
edge $-1 $396 -13.437886068731617 $569 13.437886068731617 $393 $785 forward 7 unknown #
edge $-1 $397 -13.437886068731617 $568 13.437886068731617 $394 $786 forward 7 unknown #
point $-1 50.552079836420788 -27.421575897351307 13.437886068731617 #
point $-1 50.552079836420788 27.421575897351307 13.437886068731617 #
face $-1 $-1 $601 $58 $-1 $787 reversed single #
loop $-1 $-1 $788 $399 #
plane-surface $-1 -50.552079836420788 0 0 1 0 0 0 0 -1 forward_v I I I I #
coedge $-1 $588 $604 $403 $591 forward $400 $-1 #
coedge $-1 $410 $587 $402 $589 forward $400 $-1 #
edge $-1 $595 -3.9881677573901362 $413 -0.98816775739013663 $588 $789 forward 7 unknown #
coedge $-1 $404 $403 $788 $790 reversed $157 $-1 #
edge $-1 $791 -29.674002031920484 $595 -12.082153577080124 $587 $792 forward 7 unknown #
coedge $-1 $600 $599 $404 $593 forward $601 $-1 #
edge $-1 $594 12.082153577080124 $793 29.674002031920484 $592 $794 forward 7 unknown #
vertex $-1 $593 $795 #
vertex $-1 $591 $796 #
straight-curve $-1 -32.960231381580428 0 -6.4763355147802724 0 -1 0 I I #
coedge $-1 $797 $798 $407 $598 forward $585 $-1 #
edge $-1 $605 -27.421575897351307 $602 27.421575897351307 $597 $799 forward 7 unknown #
coedge $-1 $592 $408 $412 $607 forward $601 $-1 #
coedge $-1 $408 $592 $797 $800 reversed $601 $-1 #
loop $-1 $-1 $592 $584 #
vertex $-1 $800 $801 #
straight-curve $-1 -20.878077804500304 27.421575897351307 -3.4763355147802728 1 0 0 I I #
coedge $-1 $587 $410 $798 $802 forward $400 $-1 #
vertex $-1 $802 $803 #
straight-curve $-1 -20.878077804500304 -27.421575897351307 -3.4763355147802728 -1 0 0 I I #
edge $-1 $414 0.98816775739013663 $594 3.9881677573901362 $599 $804 forward 7 unknown #
point $-1 -32.960231381580428 -27.421575897351307 -3.4763355147802728 #
point $-1 -32.960231381580428 27.421575897351307 -3.4763355147802728 #
face $-1 $-1 $431 $59 $-1 $805 reversed single #
loop $-1 $-1 $425 $416 #
plane-surface $-1 0 27.421575897351307 0 0 -1 0 0 0 -1 forward_v I I I I #
coedge $-1 $806 $419 $617 $807 reversed $256 $-1 #
coedge $-1 $419 $806 $424 $625 reversed $256 $-1 #
coedge $-1 $425 $620 $419 $616 forward $611 $-1 #
edge $-1 $808 -3.9881677573901362 $627 -0.98816775739013663 $615 $809 forward 7 unknown #
coedge $-1 $421 $420 $613 $807 forward $161 $-1 #
coedge $-1 $630 $629 $420 $619 forward $417 $-1 #
edge $-1 $810 12.08215357708012 $622 29.67400203192048 $618 $811 forward 7 unknown #
coedge $-1 $615 $626 $421 $621 forward $611 $-1 #
edge $-1 $623 -29.67400203192048 $808 -12.08215357708012 $620 $812 forward 7 unknown #
vertex $-1 $423 $813 #
vertex $-1 $423 $814 #
straight-curve $-1 50.552079836420788 0 -6.4763355147802724 0 1 0 I I #
edge $-1 $627 -27.421575897351307 $631 27.421575897351307 $614 $815 forward 7 unknown #
coedge $-1 $620 $425 $430 $634 forward $611 $-1 #
vertex $-1 $426 $816 #
straight-curve $-1 20.8780778045003 27.421575897351307 -3.4763355147802728 1 0 0 I I #
coedge $-1 $618 $427 $806 $817 forward $417 $-1 #
coedge $-1 $427 $618 $429 $633 reversed $417 $-1 #
vertex $-1 $428 $818 #
straight-curve $-1 20.8780778045003 -27.421575897351307 -3.4763355147802728 -1 0 0 I I #
edge $-1 $433 3.4763355147802728 $622 6.4763355147802724 $429 $819 forward 7 unknown #
edge $-1 $432 3.4763355147802728 $623 6.4763355147802724 $430 $820 forward 7 unknown #
point $-1 50.552079836420781 27.421575897351307 -3.4763355147802728 #
point $-1 50.552079836420781 -27.421575897351307 -3.4763355147802728 #
plane-surface $-1 0 -27.421575897351307 0 0 1 0 0 0 1 forward_v I I I I #
coedge $-1 $648 $647 $640 $821 forward $436 $-1 #
coedge $-1 $640 $438 $440 $644 reversed $264 $-1 #
coedge $-1 $438 $639 $638 $821 reversed $264 $-1 #
coedge $-1 $446 $441 $438 $642 forward $447 $-1 #
edge $-1 $645 -30.589503556954295 $822 -24.925480570632637 $641 $823 forward 7 unknown #
coedge $-1 $440 $439 $648 $824 reversed $165 $-1 #
edge $-1 $825 -7.7445740819743083 $645 5.02123520037248e-015 $639 $826 forward 7 unknown #
vertex $-1 $442 $827 #
straight-curve $-1 14.585961093082616 -27.421575897351307 7.7738630824099531 1 0 0 I I #
coedge $-1 $638 $443 $446 $652 forward $436 $-1 #
coedge $-1 $443 $638 $643 $824 forward $436 $-1 #
vertex $-1 $444 $828 #
straight-curve $-1 25.383612990750024 -50.682239079382875 13.437886068731615 0 -1 0 I I #
straight-curve $-1 25.383612990750024 -27.421575897351303 7.7738630824099602 0 0.68199835119979291 0.73135370988377701 I I #
edge $-1 $448 25.383612990750024 $822 32.960231381580442 $446 $829 forward 7 unknown #
point $-1 25.383612990750024 -27.421575897351307 13.437886068731617 #
point $-1 25.383612990750024 -27.421575897351307 7.7738630824099566 #
edge $-1 $830 1 $830 0 $451 $-1 forward 7 unknown #
vertex $-1 $452 $831 #
ellipse-curve $-1 26.898936668916107 -24.049328810141954 9.9238762243709839 0 -0.73135370988377701 0.68199835119979291 0.5 0 0 1 I I #
point $-1 27.398936668916107 -24.780682520025731 10.605874575570777 #
edge $-1 $832 1 $832 0 $455 $-1 forward 7 unknown #
vertex $-1 $456 $833 #
ellipse-curve $-1 29.171922186165233 -24.049328810141954 9.9238762243709839 0 -0.73135370988377701 0.68199835119979291 0.5 0 0 1 I I #
point $-1 29.671922186165233 -24.780682520025731 10.605874575570777 #
edge $-1 $834 1 $834 0 $459 $-1 forward 7 unknown #
vertex $-1 $460 $835 #
ellipse-curve $-1 31.444907703414358 -24.049328810141954 9.9238762243709839 0 -0.73135370988377701 0.68199835119979291 0.5 0 0 1 I I #
point $-1 31.944907703414358 -24.780682520025731 10.605874575570777 #
loop $-1 $-1 $471 $463 #
plane-surface $-1 0 0 13.437886068731617 0 0 1 1 0 0 forward_v I I I I #
coedge $-1 $670 $466 $468 $674 reversed $293 $-1 #
coedge $-1 $466 $669 $836 $837 reversed $293 $-1 #
coedge $-1 $474 $469 $466 $672 forward $464 $-1 #
edge $-1 $675 -48.917754172084095 $838 -44.645152016116711 $671 $839 forward 7 unknown #
coedge $-1 $468 $467 $678 $840 reversed $184 $-1 #
edge $-1 $841 49.265665856220132 $675 54.843151794702642 $669 $842 forward 7 unknown #
vertex $-1 $470 $843 #
straight-curve $-1 -11.771569520844464 27.421575897351307 9.1652839127642238 -1 0 0 I I #
coedge $-1 $836 $471 $474 $682 forward $667 $-1 #
coedge $-1 $471 $836 $673 $840 forward $667 $-1 #
vertex $-1 $472 $844 #
straight-curve $-1 -19.004430584496355 34.809679260288611 13.437886068731615 0 1 0 I I #
straight-curve $-1 -19.004430584496355 -7.8309220108307613 51.177576042692266 0 -0.64278759981090561 0.7660444514056185 I I #
edge $-1 $475 19.004430584496355 $838 28.081847498881501 $474 $845 forward 7 unknown #
point $-1 -19.004430584496355 27.421575897351307 13.437886068731617 #
point $-1 -19.004430584496355 27.421575897351303 9.1652839127642309 #
edge $-1 $846 1 $846 0 $478 $-1 forward 7 unknown #
vertex $-1 $479 $847 #
ellipse-curve $-1 -25.488299809057175 24.623589227936019 10.457939752628242 0 0.7660444514056185 0.64278759981090561 1 0 0 1 I I #
point $-1 -24.488299809057175 25.629006497663188 11.301584990747932 #
edge $-1 $848 1 $848 0 $482 $-1 forward 7 unknown #
vertex $-1 $483 $849 #
ellipse-curve $-1 -21.597978274320685 24.623589227936019 10.457939752628242 0 0.7660444514056185 0.64278759981090561 1 0 0 1 I I #
point $-1 -20.597978274320685 25.629006497663188 11.301584990747932 #
loop $-1 $-1 $494 $486 #
plane-surface $-1 0 0 13.437886068731617 0 0 1 1 0 0 forward_v I I I I #
coedge $-1 $696 $489 $491 $700 reversed $315 $-1 #
coedge $-1 $489 $695 $850 $851 reversed $315 $-1 #
coedge $-1 $497 $492 $489 $698 forward $487 $-1 #
edge $-1 $701 -48.917754172084095 $852 -44.645152016116711 $697 $853 forward 7 unknown #
coedge $-1 $491 $490 $704 $854 reversed $198 $-1 #
edge $-1 $855 49.265665856220132 $701 54.843151794702642 $695 $856 forward 7 unknown #
vertex $-1 $493 $857 #
straight-curve $-1 -3.5315116754493587 27.421575897351307 9.1652839127642238 -1 0 0 I I #
coedge $-1 $850 $494 $497 $708 forward $693 $-1 #
coedge $-1 $494 $850 $699 $854 forward $693 $-1 #
vertex $-1 $495 $858 #
straight-curve $-1 -2.5243148937061441 34.809679260288611 13.437886068731615 0 1 0 I I #
straight-curve $-1 -2.5243148937061441 -7.8309220108307613 51.177576042692266 0 -0.64278759981090561 0.7660444514056185 I I #
edge $-1 $498 2.5243148937061441 $852 11.601731808091291 $497 $859 forward 7 unknown #
point $-1 -2.5243148937061441 27.421575897351307 13.437886068731617 #
point $-1 -2.5243148937061441 27.421575897351303 9.1652839127642309 #
edge $-1 $860 1 $860 0 $501 $-1 forward 7 unknown #
vertex $-1 $502 $861 #
ellipse-curve $-1 -9.0081841182669606 24.623589227936019 10.457939752628242 0 0.7660444514056185 0.64278759981090561 1 0 0 1 I I #
point $-1 -8.0081841182669606 25.629006497663188 11.301584990747932 #
edge $-1 $862 1 $862 0 $505 $-1 forward 7 unknown #
vertex $-1 $506 $863 #
ellipse-curve $-1 -5.1178625835304672 24.623589227936019 10.457939752628242 0 0.7660444514056185 0.64278759981090561 1 0 0 1 I I #
point $-1 -4.1178625835304672 25.629006497663188 11.301584990747932 #
plane-surface $-1 0 27.421575897351307 0 0 -1 0 0 0 -1 forward_v I I I I #
coedge $-1 $730 $729 $722 $864 forward $510 $-1 #
coedge $-1 $722 $512 $514 $726 reversed $337 $-1 #
coedge $-1 $512 $721 $720 $864 reversed $337 $-1 #
coedge $-1 $520 $515 $512 $724 forward $521 $-1 #
edge $-1 $727 -48.917754172084095 $865 -44.645152016116711 $723 $866 forward 7 unknown #
coedge $-1 $514 $513 $730 $867 reversed $212 $-1 #
edge $-1 $868 49.265665856220132 $727 54.843151794702642 $721 $869 forward 7 unknown #
vertex $-1 $516 $870 #
straight-curve $-1 4.7085461699457483 27.421575897351307 9.1652839127642238 -1 0 0 I I #
coedge $-1 $720 $517 $520 $734 forward $510 $-1 #
coedge $-1 $517 $720 $725 $867 forward $510 $-1 #
vertex $-1 $518 $871 #
straight-curve $-1 13.95580079708407 34.809679260288611 13.437886068731615 0 1 0 I I #
straight-curve $-1 13.95580079708407 -7.8309220108307613 51.177576042692266 0 -0.64278759981090561 0.7660444514056185 I I #
edge $-1 $522 -13.95580079708407 $865 -4.8783838826989232 $520 $872 forward 7 unknown #
point $-1 13.95580079708407 27.421575897351307 13.437886068731617 #
point $-1 13.95580079708407 27.421575897351303 9.1652839127642309 #
edge $-1 $873 1 $873 0 $525 $-1 forward 7 unknown #
vertex $-1 $526 $874 #
ellipse-curve $-1 7.4719315725232534 24.623589227936019 10.457939752628242 0 0.7660444514056185 0.64278759981090561 1 0 0 1 I I #
point $-1 8.4719315725232534 25.629006497663188 11.301584990747932 #
edge $-1 $875 1 $875 0 $529 $-1 forward 7 unknown #
vertex $-1 $530 $876 #
ellipse-curve $-1 11.362253107259747 24.623589227936019 10.457939752628242 0 0.7660444514056185 0.64278759981090561 1 0 0 1 I I #
point $-1 12.362253107259747 25.629006497663188 11.301584990747932 #
plane-surface $-1 0 27.421575897351307 0 0 -1 0 0 0 -1 forward_v I I I I #
coedge $-1 $756 $755 $748 $877 forward $534 $-1 #
coedge $-1 $748 $536 $538 $752 reversed $359 $-1 #
coedge $-1 $536 $747 $746 $877 reversed $359 $-1 #
coedge $-1 $544 $539 $536 $750 forward $545 $-1 #
edge $-1 $753 -48.917754172084095 $878 -44.645152016116711 $749 $879 forward 7 unknown #
coedge $-1 $538 $537 $756 $880 reversed $226 $-1 #
edge $-1 $881 49.265665856220132 $753 54.843151794702642 $747 $882 forward 7 unknown #
vertex $-1 $540 $883 #
straight-curve $-1 12.948604015340855 27.421575897351307 9.1652839127642238 -1 0 0 I I #
coedge $-1 $746 $541 $544 $760 forward $534 $-1 #
coedge $-1 $541 $746 $751 $880 forward $534 $-1 #
vertex $-1 $542 $884 #
straight-curve $-1 30.435916487874284 34.809679260288611 13.437886068731615 0 1 0 I I #
straight-curve $-1 30.435916487874284 -7.8309220108307613 51.177576042692266 0 -0.64278759981090561 0.7660444514056185 I I #
edge $-1 $546 -30.435916487874284 $878 -21.358499573489137 $544 $885 forward 7 unknown #
point $-1 30.435916487874284 27.421575897351307 13.437886068731617 #
point $-1 30.435916487874284 27.421575897351303 9.1652839127642309 #
edge $-1 $886 1 $886 0 $549 $-1 forward 7 unknown #
vertex $-1 $550 $887 #
ellipse-curve $-1 23.952047263313474 24.623589227936019 10.457939752628242 0 0.7660444514056185 0.64278759981090561 1 0 0 1 I I #
point $-1 24.952047263313474 25.629006497663188 11.301584990747932 #
edge $-1 $888 1 $888 0 $553 $-1 forward 7 unknown #
vertex $-1 $554 $889 #
ellipse-curve $-1 27.842368798049961 24.623589227936019 10.457939752628242 0 0.7660444514056185 0.64278759981090561 1 0 0 1 I I #
point $-1 28.842368798049961 25.629006497663188 11.301584990747932 #
plane-surface $-1 50.552079836420788 0 0 -1 0 0 0 0 1 forward_v I I I I #
coedge $-1 $562 $560 $564 $776 reversed $381 $-1 #
edge $-1 $575 -13.437886068731617 $778 13.437886068731617 $574 $890 forward 7 unknown #
vertex $-1 $776 $891 #
straight-curve $-1 -50.552079836420788 -27.421575897351307 0 0 0 -1 I I #
edge $-1 $774 -27.421575897351307 $778 27.421575897351307 $772 $892 forward 7 unknown #
straight-curve $-1 0 -27.421575897351307 -13.437886068731617 -1 0 0 I I #
vertex $-1 $567 $893 #
straight-curve $-1 0 27.421575897351307 -13.437886068731617 1 0 0 I I #
point $-1 50.552079836420788 27.421575897351307 -13.437886068731617 #
point $-1 50.552079836420788 -27.421575897351307 -13.437886068731617 #
straight-curve $-1 -50.552079836420788 0 13.437886068731617 0 -1 0 I I #
point $-1 -50.552079836420788 27.421575897351307 13.437886068731617 #
point $-1 -50.552079836420788 -27.421575897351307 13.437886068731617 #
straight-curve $-1 50.552079836420788 -27.421575897351307 0 0 0 -1 I I #
straight-curve $-1 50.552079836420788 27.421575897351307 0 0 0 -1 I I #
plane-surface $-1 0 27.421575897351307 0 0 -1 0 0 0 -1 forward_v I I I I #
coedge $-1 $798 $797 $590 $790 forward $585 $-1 #
straight-curve $-1 -32.960231381580428 -27.421575897351307 -2.4881677573901362 0 0 1 I I #
edge $-1 $793 -27.421575897351307 $791 27.421575897351307 $788 $894 forward 7 unknown #
vertex $-1 $591 $895 #
straight-curve $-1 -20.878077804500304 -27.421575897351307 -6.4763355147802724 1 0 0 I I #
vertex $-1 $593 $896 #
straight-curve $-1 -20.878077804500304 27.421575897351307 -6.4763355147802724 -1 0 0 I I #
point $-1 -32.960231381580428 27.421575897351307 -6.4763355147802724 #
point $-1 -32.960231381580428 -27.421575897351307 -6.4763355147802724 #
coedge $-1 $788 $597 $600 $800 forward $585 $-1 #
coedge $-1 $597 $788 $604 $802 reversed $585 $-1 #
straight-curve $-1 -50.552079836420788 0 -3.4763355147802728 0 1 0 I I #
edge $-1 $602 3.4763355147802728 $793 6.4763355147802724 $600 $897 forward 7 unknown #
point $-1 -50.552079836420788 27.421575897351307 -3.4763355147802728 #
edge $-1 $605 3.4763355147802728 $791 6.4763355147802724 $798 $898 forward 7 unknown #
point $-1 -50.552079836420788 -27.421575897351307 -3.4763355147802728 #
straight-curve $-1 -32.960231381580428 27.421575897351307 -2.4881677573901362 0 0 -1 I I #
plane-surface $-1 50.552079836420788 0 0 -1 0 0 0 0 1 forward_v I I I I #
coedge $-1 $614 $613 $629 $817 reversed $256 $-1 #
edge $-1 $810 -27.421575897351307 $808 27.421575897351307 $613 $899 forward 7 unknown #
vertex $-1 $621 $900 #
straight-curve $-1 32.960231381580421 27.421575897351307 -2.4881677573901362 0 0 1 I I #
vertex $-1 $619 $901 #
straight-curve $-1 20.8780778045003 -27.421575897351307 -6.4763355147802724 1 0 0 I I #
straight-curve $-1 20.8780778045003 27.421575897351307 -6.4763355147802724 -1 0 0 I I #
point $-1 50.552079836420781 -27.421575897351307 -6.4763355147802724 #
point $-1 50.552079836420781 27.421575897351307 -6.4763355147802724 #
straight-curve $-1 32.960231381580421 0 -3.4763355147802728 0 -1 0 I I #
point $-1 32.960231381580421 27.421575897351307 -3.4763355147802728 #
edge $-1 $631 0.98816775739013663 $810 3.9881677573901362 $629 $902 forward 7 unknown #
point $-1 32.960231381580421 -27.421575897351307 -3.4763355147802728 #
straight-curve $-1 50.552079836420788 -27.421575897351307 0 0 0 -1 I I #
straight-curve $-1 50.552079836420788 27.421575897351307 0 0 0 -1 I I #
edge $-1 $822 23.260663182031568 $825 28.542449936682701 $638 $903 forward 7 unknown #
vertex $-1 $821 $904 #
straight-curve $-1 32.960231381580442 -27.421575897351303 38.363366639364251 0 0 1 I I #
edge $-1 $825 -18.374270288497826 $649 -10.797651897667407 $648 $905 forward 7 unknown #
vertex $-1 $824 $906 #
straight-curve $-1 32.960231381580442 -27.421575897351303 7.7738630824099602 0 -0.68199835119979291 -0.73135370988377701 I I #
point $-1 32.960231381580442 -27.421575897351307 7.7738630824099566 #
point $-1 25.383612990750024 -22.139789142700174 13.437886068731617 #
straight-curve $-1 0 -27.421575897351307 13.437886068731617 1 0 0 I I #
vertex $-1 $655 $907 #
point $-1 27.398936668916107 -24.049328810141954 9.9238762243709839 #
vertex $-1 $659 $908 #
point $-1 29.671922186165233 -24.049328810141954 9.9238762243709839 #
vertex $-1 $663 $909 #
point $-1 31.944907703414358 -24.049328810141954 9.9238762243709839 #
coedge $-1 $678 $677 $670 $837 forward $667 $-1 #
edge $-1 $838 7.3881033629373043 $841 10.973242162313557 $836 $910 forward 7 unknown #
vertex $-1 $837 $911 #
straight-curve $-1 -28.081847498881501 27.421575897351307 58.083038084848326 0 0 1 I I #
edge $-1 $841 -16.310277978037035 $679 -7.2328610636518906 $678 $912 forward 7 unknown #
vertex $-1 $840 $913 #
straight-curve $-1 -28.081847498881501 -7.8309220108307613 51.177576042692266 0 0.64278759981090561 -0.7660444514056185 I I #
point $-1 -28.081847498881501 27.421575897351303 9.1652839127642309 #
point $-1 -19.004430584496355 23.836437097975054 13.437886068731615 #
straight-curve $-1 0 27.421575897351307 13.437886068731617 -1 0 0 I I #
vertex $-1 $685 $914 #
point $-1 -24.488299809057175 24.623589227936019 10.457939752628242 #
vertex $-1 $689 $915 #
point $-1 -20.597978274320685 24.623589227936019 10.457939752628242 #
coedge $-1 $704 $703 $696 $851 forward $693 $-1 #
edge $-1 $852 7.3881033629373043 $855 10.973242162313557 $850 $916 forward 7 unknown #
vertex $-1 $851 $917 #
straight-curve $-1 -11.601731808091291 27.421575897351307 58.083038084848326 0 0 1 I I #
edge $-1 $855 -8.0702201326419321 $705 1.0071967817432146 $704 $918 forward 7 unknown #
vertex $-1 $854 $919 #
straight-curve $-1 -11.601731808091291 -7.8309220108307613 51.177576042692266 0 0.64278759981090561 -0.7660444514056185 I I #
point $-1 -11.601731808091291 27.421575897351303 9.1652839127642309 #
point $-1 -2.5243148937061441 23.836437097975054 13.437886068731615 #
straight-curve $-1 0 27.421575897351307 13.437886068731617 -1 0 0 I I #
vertex $-1 $711 $920 #
point $-1 -8.0081841182669606 24.623589227936019 10.457939752628242 #
vertex $-1 $715 $921 #
point $-1 -4.1178625835304672 24.623589227936019 10.457939752628242 #
edge $-1 $865 7.3881033629373043 $868 10.973242162313557 $720 $922 forward 7 unknown #
vertex $-1 $724 $923 #
straight-curve $-1 4.8783838826989232 27.421575897351307 58.083038084848326 0 0 1 I I #
edge $-1 $868 0.16983771275317494 $731 9.2472546271383216 $730 $924 forward 7 unknown #
vertex $-1 $867 $925 #
straight-curve $-1 4.8783838826989232 -7.8309220108307613 51.177576042692266 0 0.64278759981090561 -0.7660444514056185 I I #
point $-1 4.8783838826989232 27.421575897351303 9.1652839127642309 #
point $-1 13.95580079708407 23.836437097975054 13.437886068731615 #
straight-curve $-1 0 27.421575897351307 13.437886068731617 -1 0 0 I I #
vertex $-1 $737 $926 #
point $-1 8.4719315725232534 24.623589227936019 10.457939752628242 #
vertex $-1 $741 $927 #
point $-1 12.362253107259747 24.623589227936019 10.457939752628242 #
edge $-1 $878 7.3881033629373043 $881 10.973242162313557 $746 $928 forward 7 unknown #
vertex $-1 $750 $929 #
straight-curve $-1 21.358499573489137 27.421575897351307 58.083038084848326 0 0 1 I I #
edge $-1 $881 8.4098955581482819 $757 17.487312472533429 $756 $930 forward 7 unknown #
vertex $-1 $880 $931 #
straight-curve $-1 21.358499573489137 -7.8309220108307613 51.177576042692266 0 0.64278759981090561 -0.7660444514056185 I I #
point $-1 21.358499573489137 27.421575897351303 9.1652839127642309 #
point $-1 30.435916487874284 23.836437097975054 13.437886068731615 #
straight-curve $-1 0 27.421575897351307 13.437886068731617 -1 0 0 I I #
vertex $-1 $763 $932 #
point $-1 24.952047263313474 24.623589227936019 10.457939752628242 #
vertex $-1 $767 $933 #
point $-1 28.842368798049961 24.623589227936019 10.457939752628242 #
straight-curve $-1 -50.552079836420788 27.421575897351307 0 0 0 -1 I I #
point $-1 -50.552079836420788 -27.421575897351307 -13.437886068731617 #
straight-curve $-1 -50.552079836420788 0 -13.437886068731617 0 1 0 I I #
point $-1 -50.552079836420788 27.421575897351307 -13.437886068731617 #
straight-curve $-1 -50.552079836420788 0 -6.4763355147802724 0 -1 0 I I #
point $-1 -50.552079836420788 -27.421575897351307 -6.4763355147802724 #
point $-1 -50.552079836420788 27.421575897351307 -6.4763355147802724 #
straight-curve $-1 -50.552079836420788 27.421575897351307 0 0 0 -1 I I #
straight-curve $-1 -50.552079836420788 -27.421575897351307 0 0 0 -1 I I #
straight-curve $-1 32.960231381580421 0 -6.4763355147802724 0 1 0 I I #
point $-1 32.960231381580421 27.421575897351307 -6.4763355147802724 #
point $-1 32.960231381580421 -27.421575897351307 -6.4763355147802724 #
straight-curve $-1 32.960231381580421 -27.421575897351307 -2.4881677573901362 0 0 -1 I I #
straight-curve $-1 32.960231381580442 -50.682239079382875 13.437886068731615 0 1 0 I I #
point $-1 32.960231381580442 -27.421575897351307 13.437886068731617 #
straight-curve $-1 14.585961093082616 -22.139789142700174 13.437886068731617 -1 0 0 I I #
point $-1 32.960231381580442 -22.139789142700174 13.437886068731617 #
point $-1 26.898936668916107 -23.683651955200066 9.5828770487710866 #
point $-1 29.171922186165233 -23.683651955200066 9.5828770487710866 #
point $-1 31.444907703414358 -23.683651955200066 9.5828770487710866 #
straight-curve $-1 -28.081847498881501 34.809679260288611 13.437886068731615 0 -1 0 I I #
point $-1 -28.081847498881501 27.421575897351307 13.437886068731617 #
straight-curve $-1 -11.771569520844464 23.836437097975054 13.437886068731618 1 0 0 I I #
point $-1 -28.081847498881501 23.836437097975054 13.437886068731615 #
point $-1 -25.488299809057175 23.8575447765304 9.8151521528173369 #
point $-1 -21.597978274320685 23.8575447765304 9.8151521528173369 #
straight-curve $-1 -11.601731808091291 34.809679260288611 13.437886068731615 0 -1 0 I I #
point $-1 -11.601731808091291 27.421575897351307 13.437886068731617 #
straight-curve $-1 -3.5315116754493587 23.836437097975054 13.437886068731618 1 0 0 I I #
point $-1 -11.601731808091291 23.836437097975054 13.437886068731615 #
point $-1 -9.0081841182669606 23.8575447765304 9.8151521528173369 #
point $-1 -5.1178625835304672 23.8575447765304 9.8151521528173369 #
straight-curve $-1 4.8783838826989232 34.809679260288611 13.437886068731615 0 -1 0 I I #
point $-1 4.8783838826989232 27.421575897351307 13.437886068731617 #
straight-curve $-1 4.7085461699457483 23.836437097975054 13.437886068731618 1 0 0 I I #
point $-1 4.8783838826989232 23.836437097975054 13.437886068731615 #
point $-1 7.4719315725232534 23.8575447765304 9.8151521528173369 #
point $-1 11.362253107259747 23.8575447765304 9.8151521528173369 #
straight-curve $-1 21.358499573489137 34.809679260288611 13.437886068731615 0 -1 0 I I #
point $-1 21.358499573489137 27.421575897351307 13.437886068731617 #
straight-curve $-1 12.948604015340855 23.836437097975054 13.437886068731618 1 0 0 I I #
point $-1 21.358499573489137 23.836437097975054 13.437886068731615 #
point $-1 23.952047263313474 23.8575447765304 9.8151521528173369 #
point $-1 27.842368798049961 23.8575447765304 9.8151521528173369 #
End-of-ACIS-data 