500 0 5 0           
7 Unknown 11 ACIS 5.0 NT 24 Thu Mar 25 15:44:33 1999 
-1 9.9999999999999995e-007 1e-010 
body $-1 $5 $-1 $6 #
body $-1 $7 $-1 $8 #
body $-1 $9 $-1 $10 #
body $-1 $11 $-1 $12 #
body $-1 $13 $-1 $14 #
lump $-1 $-1 $15 $0 #
transform $-1 1 0 0 0 1 0 0 0 1 44.295785393841363 18.015584069585429 8.9637523520639384 1 rotate no_reflect no_shear #
lump $-1 $-1 $16 $1 #
transform $-1 1 0 0 0 1 0 0 0 1 44.295785393841363 18.015584069585429 8.9637523520639384 1 rotate no_reflect no_shear #
lump $-1 $-1 $17 $2 #
transform $-1 1 0 0 0 1 0 0 0 1 44.295785393841363 18.015584069585429 8.9637523520639384 1 rotate no_reflect no_shear #
lump $-1 $-1 $18 $3 #
transform $-1 1 0 0 0 1 0 0 0 1 44.295785393841363 18.015584069585429 8.9637523520639384 1 rotate no_reflect no_shear #
lump $-1 $-1 $19 $4 #
transform $-1 1 0 0 0 1 0 0 0 1 44.295785393841363 18.015584069585429 8.9637523520639384 1 rotate no_reflect no_shear #
shell $-1 $-1 $-1 $20 $-1 $5 #
shell $-1 $-1 $-1 $21 $-1 $7 #
shell $-1 $-1 $-1 $22 $-1 $9 #
shell $-1 $-1 $-1 $23 $-1 $11 #
shell $-1 $-1 $-1 $24 $-1 $13 #
face $-1 $25 $26 $15 $-1 $27 forward single #
face $-1 $28 $29 $16 $-1 $30 reversed single #
face $-1 $31 $32 $17 $-1 $33 reversed single #
face $-1 $34 $35 $18 $-1 $36 reversed single #
face $-1 $37 $38 $19 $-1 $39 forward single #
face $-1 $40 $41 $15 $-1 $42 reversed single #
loop $-1 $-1 $43 $20 #
plane-surface $-1 0 0 8.9637523520639384 0 0 1 1 0 0 forward_v I I I I #
face $-1 $44 $45 $16 $-1 $46 reversed single #
loop $-1 $-1 $47 $21 #
plane-surface $-1 -29.98885206883169 -14.322256576829878 0 1 0 0 0 0 -1 forward_v I I I I #
face $-1 $48 $49 $17 $-1 $50 reversed single #
loop $-1 $-1 $51 $22 #
plane-surface $-1 -28.178566379272588 10.628929084074327 0 0 1 0 0 0 1 forward_v I I I I #
face $-1 $52 $53 $18 $-1 $54 reversed single #
loop $-1 $-1 $55 $23 #
plane-surface $-1 29.027093325178321 10.628929084074326 129.63567203548425 0 -1 0 -0.61566148304635926 0 -0.78801074757464917 forward_v I I I I #
face $-1 $56 $57 $19 $-1 $58 forward single #
loop $-1 $59 $60 $24 #
cone-surface $-1 41.198087261136571 7.5968271555146671 6.1737737617172517 -0.61566148304635926 0 -0.78801074757464917 0.78801074757464917 0 -0.61566148304635926 1 I I 0 1 1 forward I I I I #
face $-1 $61 $62 $15 $-1 $63 reversed single #
loop $-1 $-1 $64 $25 #
plane-surface $-1 0 0 -8.9637523520639384 0 0 1 1 0 0 forward_v I I I I #
coedge $-1 $65 $66 $67 $68 forward $26 $-1 #
face $-1 $69 $70 $16 $-1 $71 reversed single #
loop $-1 $-1 $72 $28 #
plane-surface $-1 -28.178566379272588 -10.628929084074326 0 0 -1 0 0 0 -1 forward_v I I I I #
coedge $-1 $73 $74 $75 $76 forward $29 $-1 #
face $-1 $77 $78 $17 $-1 $79 reversed single #
loop $-1 $-1 $80 $31 #
plane-surface $-1 -29.98885206883169 14.322256576829879 0 1 0 0 0 0 -1 forward_v I I I I #
coedge $-1 $81 $82 $83 $84 forward $32 $-1 #
face $-1 $85 $86 $18 $-1 $87 reversed single #
loop $-1 $-1 $88 $34 #
plane-surface $-1 -25.515324531372947 7.5968271555146671 59.824562110269937 0.61566148304635926 0 0.78801074757464917 0.78801074757464917 0 -0.61566148304635926 forward_v I I I I #
coedge $-1 $89 $90 $91 $92 reversed $35 $-1 #
face $-1 $-1 $93 $19 $-1 $94 forward single #
loop $-1 $95 $96 $37 #
cone-surface $-1 40.148680078571637 7.5968271555146671 4.8305938467558782 -0.61566148304635926 0 -0.78801074757464917 0.39400537378732459 0 -0.30783074152317963 1 I I -0.70710678118654746 0.70710678118654746 0.5 forward I I I I #
loop $-1 $-1 $97 $24 #
coedge $-1 $60 $60 $98 $99 reversed $38 $-1 #
face $-1 $100 $101 $15 $-1 $102 reversed single #
loop $-1 $-1 $103 $40 #
plane-surface $-1 0 -18.015584069585429 0 0 1 0 0 0 1 forward_v I I I I #
coedge $-1 $104 $105 $106 $107 forward $41 $-1 #
coedge $-1 $108 $43 $109 $110 forward $26 $-1 #
coedge $-1 $43 $108 $111 $112 forward $26 $-1 #
coedge $-1 $113 $114 $43 $68 reversed $115 $-1 #
edge $-1 $116 -18.015584069585429 $117 18.015584069585429 $67 $118 forward 7 unknown #
face $-1 $119 $120 $16 $-1 $121 forward single #
loop $-1 $-1 $122 $44 #
plane-surface $-1 -26.368280689713487 -14.322256576829878 0 -1 0 0 0 0 1 forward_v I I I I #
coedge $-1 $123 $124 $125 $126 forward $45 $-1 #
coedge $-1 $127 $47 $128 $129 reversed $29 $-1 #
coedge $-1 $47 $127 $130 $131 reversed $29 $-1 #
coedge $-1 $124 $123 $47 $76 reversed $45 $-1 #
edge $-1 $132 -8.9637523520639384 $133 8.9637523520639384 $75 $134 forward 7 unknown #
face $-1 $135 $136 $17 $-1 $137 reversed single #
loop $-1 $-1 $138 $48 #
plane-surface $-1 -26.368280689713487 14.322256576829879 0 -1 0 0 0 0 1 forward_v I I I I #
coedge $-1 $139 $140 $141 $142 reversed $49 $-1 #
coedge $-1 $143 $51 $144 $145 reversed $32 $-1 #
coedge $-1 $51 $143 $146 $147 reversed $32 $-1 #
coedge $-1 $140 $139 $51 $84 reversed $49 $-1 #
edge $-1 $148 -8.9637523520639384 $149 8.9637523520639384 $83 $150 forward 7 unknown #
face $-1 $151 $152 $18 $-1 $153 forward single #
loop $-1 $-1 $154 $52 #
plane-surface $-1 29.027093325178321 4.5647252269550087 129.63567203548425 0 1 0 0.61566148304635926 0 0.78801074757464917 forward_v I I I I #
coedge $-1 $155 $156 $157 $158 reversed $53 $-1 #
coedge $-1 $90 $55 $159 $160 reversed $35 $-1 #
coedge $-1 $55 $89 $155 $161 reversed $35 $-1 #
coedge $-1 $157 $162 $55 $92 forward $152 $-1 #
edge $-1 $163 -29.782238731252203 $164 -25.06999534792612 $91 $165 forward 7 unknown #
loop $-1 $-1 $98 $56 #
plane-surface $-1 -25.515324531372947 7.5968271555146671 59.824562110269937 0.61566148304635926 0 0.78801074757464917 0.78801074757464917 0 -0.61566148304635926 forward_v I I I I #
loop $-1 $-1 $166 $37 #
coedge $-1 $96 $96 $97 $167 reversed $57 $-1 #
coedge $-1 $97 $97 $96 $167 forward $59 $-1 #
coedge $-1 $98 $98 $60 $99 forward $93 $-1 #
edge $-1 $168 0 $168 6.2831853071796004 $98 $169 forward 7 unknown #
face $-1 $170 $171 $15 $-1 $172 reversed single #
loop $-1 $-1 $173 $61 #
plane-surface $-1 -44.295785393841363 0 0 1 0 0 0 0 -1 forward_v I I I I #
coedge $-1 $174 $111 $175 $176 forward $62 $-1 #
coedge $-1 $177 $64 $174 $178 forward $41 $-1 #
coedge $-1 $64 $177 $179 $180 forward $41 $-1 #
coedge $-1 $114 $113 $64 $107 reversed $115 $-1 #
edge $-1 $181 -18.015584069585429 $182 18.015584069585429 $106 $183 forward 7 unknown #
coedge $-1 $66 $65 $184 $185 forward $26 $-1 #
coedge $-1 $186 $187 $65 $110 reversed $171 $-1 #
edge $-1 $117 -44.295785393841363 $188 44.295785393841363 $109 $189 forward 7 unknown #
coedge $-1 $103 $190 $66 $112 reversed $62 $-1 #
edge $-1 $191 -44.295785393841363 $116 44.295785393841363 $111 $192 forward 7 unknown #
coedge $-1 $106 $67 $190 $193 forward $115 $-1 #
coedge $-1 $67 $106 $186 $194 reversed $115 $-1 #
loop $-1 $-1 $113 $170 #
vertex $-1 $68 $195 #
vertex $-1 $68 $196 #
straight-curve $-1 44.295785393841363 0 8.9637523520639384 0 1 0 I I #
face $-1 $197 $198 $16 $-1 $199 reversed single #
loop $-1 $-1 $200 $69 #
plane-surface $-1 0 0 8.9637523520639384 0 0 1 1 0 0 forward_v I I I I #
coedge $-1 $201 $202 $203 $204 reversed $70 $-1 #
coedge $-1 $75 $72 $205 $206 reversed $45 $-1 #
coedge $-1 $72 $75 $207 $208 reversed $45 $-1 #
coedge $-1 $202 $201 $72 $126 reversed $70 $-1 #
edge $-1 $209 -8.9637523520639384 $210 8.9637523520639384 $125 $211 forward 7 unknown #
coedge $-1 $74 $73 $212 $213 reversed $29 $-1 #
coedge $-1 $205 $214 $73 $129 forward $198 $-1 #
edge $-1 $215 -10.85445578117049 $133 -3.4678007956593868 $128 $216 forward 7 unknown #
coedge $-1 $217 $207 $74 $131 forward $120 $-1 #
edge $-1 $132 3.4678007956593868 $218 10.85445578117049 $130 $219 forward 7 unknown #
vertex $-1 $131 $220 #
vertex $-1 $129 $221 #
straight-curve $-1 -29.98885206883169 -10.628929084074326 0 0 0 -1 I I #
face $-1 $222 $223 $17 $-1 $224 forward single #
loop $-1 $-1 $225 $77 #
plane-surface $-1 0 0 -8.9637523520639384 0 0 1 1 0 0 forward_v I I I I #
coedge $-1 $226 $227 $143 $228 forward $78 $-1 #
coedge $-1 $83 $80 $229 $230 reversed $49 $-1 #
coedge $-1 $80 $83 $231 $232 reversed $49 $-1 #
coedge $-1 $233 $234 $80 $142 forward $235 $-1 #
edge $-1 $236 -8.9637523520639384 $237 8.9637523520639384 $141 $238 forward 7 unknown #
coedge $-1 $82 $81 $138 $228 reversed $32 $-1 #
coedge $-1 $229 $225 $81 $145 forward $136 $-1 #
edge $-1 $239 12.278997500077192 $149 15.899568879195396 $144 $240 forward 7 unknown #
coedge $-1 $241 $231 $82 $147 forward $223 $-1 #
edge $-1 $148 -15.899568879195396 $242 -12.278997500077192 $146 $243 forward 7 unknown #
vertex $-1 $147 $244 #
vertex $-1 $145 $245 #
straight-curve $-1 -29.98885206883169 10.628929084074327 0 0 0 -1 I I #
face $-1 $-1 $246 $18 $-1 $247 reversed single #
loop $-1 $-1 $91 $85 #
plane-surface $-1 0 0 8.9637523520639384 0 0 1 1 0 0 forward_v I I I I #
coedge $-1 $248 $249 $250 $251 reversed $86 $-1 #
coedge $-1 $252 $88 $90 $161 forward $53 $-1 #
coedge $-1 $88 $252 $248 $253 forward $53 $-1 #
coedge $-1 $250 $91 $88 $158 forward $152 $-1 #
edge $-1 $164 -6.830515506316992 $254 -0.76631164919767514 $157 $255 forward 7 unknown #
coedge $-1 $256 $257 $89 $160 forward $246 $-1 #
edge $-1 $258 -59.53569176402344 $163 -55.854083665678189 $159 $259 forward 7 unknown #
edge $-1 $164 82.611648054611507 $258 88.591570787682713 $90 $260 forward 7 unknown #
coedge $-1 $91 $250 $256 $261 forward $152 $-1 #
vertex $-1 $92 $262 #
vertex $-1 $92 $263 #
straight-curve $-1 14.51354666258916 10.628929084074326 8.9637523520639348 -1 0 0 I I #
coedge $-1 $166 $166 $-1 $264 reversed $95 $-1 #
edge $-1 $265 0 $265 6.2831853071796004 $96 $266 forward 7 unknown #
vertex $-1 $99 $267 #
ellipse-curve $-1 41.939663702178329 7.5968271555146671 7.1229483028913005 0.61566148304635926 0 0.78801074757464917 0.78801074757464917 0 -0.61566148304635926 1 I I #
face $-1 $-1 $115 $15 $-1 $268 reversed single #
loop $-1 $-1 $186 $100 #
plane-surface $-1 0 18.015584069585429 0 0 -1 0 0 0 -1 forward_v I I I I #
coedge $-1 $269 $184 $187 $270 forward $101 $-1 #
coedge $-1 $190 $103 $104 $178 reversed $62 $-1 #
coedge $-1 $184 $269 $103 $176 reversed $101 $-1 #
edge $-1 $191 -8.9637523520639384 $271 8.9637523520639384 $175 $272 forward 7 unknown #
coedge $-1 $105 $104 $269 $273 forward $41 $-1 #
edge $-1 $182 -44.295785393841363 $271 44.295785393841363 $174 $274 forward 7 unknown #
coedge $-1 $187 $186 $105 $180 reversed $171 $-1 #
edge $-1 $275 -44.295785393841363 $181 44.295785393841363 $179 $276 forward 7 unknown #
vertex $-1 $107 $277 #
vertex $-1 $193 $278 #
straight-curve $-1 44.295785393841363 0 -8.9637523520639384 0 -1 0 I I #
coedge $-1 $173 $175 $108 $185 reversed $101 $-1 #
edge $-1 $188 -18.015584069585429 $191 18.015584069585429 $184 $279 forward 7 unknown #
coedge $-1 $179 $109 $114 $194 forward $171 $-1 #
coedge $-1 $109 $179 $173 $270 reversed $171 $-1 #
vertex $-1 $110 $280 #
straight-curve $-1 0 18.015584069585429 8.9637523520639384 -1 0 0 I I #
coedge $-1 $111 $174 $113 $193 reversed $62 $-1 #
vertex $-1 $185 $281 #
straight-curve $-1 0 -18.015584069585429 8.9637523520639384 1 0 0 I I #
edge $-1 $116 -8.9637523520639384 $182 8.9637523520639384 $113 $282 forward 7 unknown #
edge $-1 $117 -8.9637523520639384 $181 8.9637523520639384 $114 $283 forward 7 unknown #
point $-1 44.295785393841363 -18.015584069585429 8.9637523520639384 #
point $-1 44.295785393841363 18.015584069585429 8.9637523520639384 #
face $-1 $-1 $284 $16 $-1 $285 reversed single #
loop $-1 $-1 $286 $119 #
plane-surface $-1 0 0 -8.9637523520639384 0 0 1 1 0 0 forward_v I I I I #
coedge $-1 $207 $217 $202 $287 forward $120 $-1 #
coedge $-1 $125 $122 $286 $288 reversed $70 $-1 #
coedge $-1 $122 $125 $200 $287 reversed $70 $-1 #
coedge $-1 $289 $290 $122 $204 forward $284 $-1 #
edge $-1 $291 -8.9637523520639384 $292 8.9637523520639384 $203 $293 forward 7 unknown #
coedge $-1 $286 $128 $123 $206 forward $198 $-1 #
edge $-1 $133 -15.899568879195396 $210 -12.278997500077192 $205 $294 forward 7 unknown #
coedge $-1 $130 $200 $124 $208 forward $120 $-1 #
edge $-1 $209 12.278997500077192 $132 15.899568879195396 $207 $295 forward 7 unknown #
vertex $-1 $208 $296 #
vertex $-1 $206 $297 #
straight-curve $-1 -26.368280689713487 -10.628929084074326 0 0 0 -1 I I #
coedge $-1 $290 $289 $127 $213 forward $284 $-1 #
edge $-1 $218 -8.9637523520639384 $215 8.9637523520639384 $212 $298 forward 7 unknown #
coedge $-1 $128 $286 $290 $299 forward $198 $-1 #
vertex $-1 $129 $300 #
straight-curve $-1 -29.98885206883169 -7.1611282884149388 -8.9637523520639384 0 1 0 I I #
coedge $-1 $200 $130 $289 $301 forward $120 $-1 #
vertex $-1 $301 $302 #
straight-curve $-1 -29.98885206883169 -7.1611282884149388 8.9637523520639384 0 -1 0 I I #
point $-1 -29.98885206883169 -10.628929084074326 8.9637523520639384 #
point $-1 -29.98885206883169 -10.628929084074326 -8.9637523520639384 #
face $-1 $-1 $235 $17 $-1 $303 reversed single #
loop $-1 $-1 $241 $135 #
plane-surface $-1 0 0 8.9637523520639384 0 0 1 1 0 0 forward_v I I I I #
coedge $-1 $144 $304 $226 $305 forward $136 $-1 #
coedge $-1 $306 $138 $225 $305 reversed $78 $-1 #
coedge $-1 $138 $306 $241 $307 reversed $78 $-1 #
edge $-1 $242 -8.9637523520639384 $239 8.9637523520639384 $138 $308 forward 7 unknown #
coedge $-1 $304 $144 $139 $230 forward $136 $-1 #
edge $-1 $149 3.4678007956593877 $236 10.85445578117049 $229 $309 forward 7 unknown #
coedge $-1 $146 $310 $140 $232 forward $223 $-1 #
edge $-1 $237 -10.85445578117049 $148 -3.4678007956593877 $231 $311 forward 7 unknown #
coedge $-1 $312 $141 $310 $313 reversed $235 $-1 #
coedge $-1 $141 $312 $304 $314 reversed $235 $-1 #
loop $-1 $-1 $312 $222 #
vertex $-1 $314 $315 #
vertex $-1 $142 $316 #
straight-curve $-1 -29.98885206883169 18.015584069585429 0 0 0 1 I I #
vertex $-1 $145 $317 #
straight-curve $-1 -14.089283189636294 10.628929084074327 -8.9637523520639384 -1 0 0 I I #
coedge $-1 $310 $146 $227 $307 forward $223 $-1 #
vertex $-1 $147 $318 #
straight-curve $-1 -14.089283189636294 10.628929084074327 8.9637523520639384 1 0 0 I I #
point $-1 -29.98885206883169 10.628929084074327 8.9637523520639384 #
point $-1 -29.98885206883169 10.628929084074327 -8.9637523520639384 #
loop $-1 $-1 $159 $151 #
plane-surface $-1 44.295785393841363 0 0 -1 0 0 0 0 1 forward_v I I I I #
coedge $-1 $249 $154 $156 $253 reversed $86 $-1 #
coedge $-1 $154 $248 $319 $320 reversed $86 $-1 #
coedge $-1 $162 $157 $154 $251 forward $152 $-1 #
edge $-1 $254 25.06999534792612 $321 29.782238731252203 $250 $322 forward 7 unknown #
coedge $-1 $156 $155 $257 $323 reversed $53 $-1 #
edge $-1 $324 -88.591570787682713 $254 -82.611648054611507 $248 $325 forward 7 unknown #
vertex $-1 $158 $326 #
straight-curve $-1 39.583542010515288 3.7984135777573336 8.9637523520639348 0 -1 0 I I #
coedge $-1 $319 $159 $162 $261 reversed $246 $-1 #
coedge $-1 $159 $319 $252 $323 forward $246 $-1 #
vertex $-1 $160 $327 #
straight-curve $-1 44.295785393841363 10.628929084074326 64.817836017742124 0 0 1 I I #
straight-curve $-1 -25.515324531372947 10.628929084074326 59.824562110269937 0.78801074757464917 0 -0.61566148304635926 I I #
edge $-1 $321 4.5647252269550087 $163 10.628929084074326 $256 $328 forward 7 unknown #
point $-1 44.295785393841363 10.628929084074326 8.9637523520639384 #
point $-1 39.583542010515281 10.628929084074326 8.9637523520639348 #
edge $-1 $329 1 $329 0 $166 $-1 forward 7 unknown #
vertex $-1 $167 $330 #
ellipse-curve $-1 40.456510820094813 7.5968271555146671 5.2245992205432028 0.61566148304635926 0 0.78801074757464917 0.78801074757464917 0 -0.61566148304635926 1 I I #
point $-1 42.727674449752982 7.5968271555146671 6.507286819844941 #
plane-surface $-1 44.295785393841363 0 0 -1 0 0 0 0 1 forward_v I I I I #
coedge $-1 $175 $173 $177 $273 reversed $101 $-1 #
edge $-1 $188 -8.9637523520639384 $275 8.9637523520639384 $187 $331 forward 7 unknown #
vertex $-1 $273 $332 #
straight-curve $-1 -44.295785393841363 -18.015584069585429 0 0 0 -1 I I #
edge $-1 $271 -18.015584069585429 $275 18.015584069585429 $269 $333 forward 7 unknown #
straight-curve $-1 0 -18.015584069585429 -8.9637523520639384 -1 0 0 I I #
vertex $-1 $180 $334 #
straight-curve $-1 0 18.015584069585429 -8.9637523520639384 1 0 0 I I #
point $-1 44.295785393841363 18.015584069585429 -8.9637523520639384 #
point $-1 44.295785393841363 -18.015584069585429 -8.9637523520639384 #
straight-curve $-1 -44.295785393841363 0 8.9637523520639384 0 -1 0 I I #
point $-1 -44.295785393841363 18.015584069585429 8.9637523520639384 #
point $-1 -44.295785393841363 -18.015584069585429 8.9637523520639384 #
straight-curve $-1 44.295785393841363 -18.015584069585429 0 0 0 -1 I I #
straight-curve $-1 44.295785393841363 18.015584069585429 0 0 0 -1 I I #
loop $-1 $-1 $203 $197 #
plane-surface $-1 0 -18.015584069585429 0 0 1 0 0 0 1 forward_v I I I I #
coedge $-1 $214 $205 $201 $288 forward $198 $-1 #
edge $-1 $292 -10.85445578117049 $209 -3.4678007956593868 $200 $335 forward 7 unknown #
edge $-1 $210 3.4678007956593868 $291 10.85445578117049 $286 $336 forward 7 unknown #
coedge $-1 $212 $203 $217 $301 reversed $284 $-1 #
coedge $-1 $203 $212 $214 $299 reversed $284 $-1 #
vertex $-1 $299 $337 #
vertex $-1 $204 $338 #
straight-curve $-1 -26.368280689713487 -18.015584069585429 0 0 0 1 I I #
straight-curve $-1 -14.089283189636294 -10.628929084074326 -8.9637523520639384 1 0 0 I I #
straight-curve $-1 -14.089283189636294 -10.628929084074326 8.9637523520639384 -1 0 0 I I #
point $-1 -26.368280689713487 -10.628929084074326 8.9637523520639384 #
point $-1 -26.368280689713487 -10.628929084074326 -8.9637523520639384 #
straight-curve $-1 -29.98885206883169 -18.015584069585429 0 0 0 -1 I I #
edge $-1 $291 26.368280689713487 $215 29.98885206883169 $290 $339 forward 7 unknown #
point $-1 -29.98885206883169 -18.015584069585429 -8.9637523520639384 #
edge $-1 $218 -29.98885206883169 $292 -26.368280689713487 $289 $340 forward 7 unknown #
point $-1 -29.98885206883169 -18.015584069585429 8.9637523520639384 #
plane-surface $-1 0 18.015584069585429 0 0 -1 0 0 0 -1 forward_v I I I I #
coedge $-1 $225 $229 $234 $314 forward $136 $-1 #
edge $-1 $341 -10.85445578117049 $239 -3.4678007956593877 $225 $342 forward 7 unknown #
coedge $-1 $227 $226 $312 $343 reversed $78 $-1 #
edge $-1 $242 3.4678007956593877 $344 10.85445578117049 $241 $345 forward 7 unknown #
straight-curve $-1 -26.368280689713487 10.628929084074327 0 0 0 -1 I I #
straight-curve $-1 -29.98885206883169 7.1611282884149396 -8.9637523520639384 0 1 0 I I #
coedge $-1 $231 $241 $233 $313 forward $223 $-1 #
straight-curve $-1 -29.98885206883169 7.1611282884149396 8.9637523520639384 0 -1 0 I I #
coedge $-1 $234 $233 $306 $343 forward $235 $-1 #
edge $-1 $344 26.368280689713487 $237 29.98885206883169 $233 $346 forward 7 unknown #
edge $-1 $236 -29.98885206883169 $341 -26.368280689713487 $234 $347 forward 7 unknown #
point $-1 -29.98885206883169 18.015584069585429 -8.9637523520639384 #
point $-1 -29.98885206883169 18.015584069585429 8.9637523520639384 #
point $-1 -26.368280689713487 10.628929084074327 -8.9637523520639384 #
point $-1 -26.368280689713487 10.628929084074327 8.9637523520639384 #
coedge $-1 $257 $256 $249 $320 forward $246 $-1 #
edge $-1 $321 55.854083665678189 $324 59.53569176402344 $319 $348 forward 7 unknown #
vertex $-1 $261 $349 #
straight-curve $-1 14.51354666258916 4.5647252269550087 8.9637523520639348 1 0 0 I I #
edge $-1 $324 0.76631164919767514 $258 6.830515506316992 $257 $350 forward 7 unknown #
vertex $-1 $323 $351 #
straight-curve $-1 -25.515324531372947 4.5647252269550087 59.824562110269937 -0.78801074757464917 0 0.61566148304635926 I I #
point $-1 39.583542010515281 4.5647252269550087 8.9637523520639348 #
point $-1 44.295785393841363 10.628929084074326 5.282144253718684 #
straight-curve $-1 44.295785393841363 0 8.9637523520639384 0 1 0 I I #
vertex $-1 $264 $352 #
point $-1 41.244521567669466 7.5968271555146671 4.6089377374968432 #
straight-curve $-1 -44.295785393841363 18.015584069585429 0 0 0 -1 I I #
point $-1 -44.295785393841363 -18.015584069585429 -8.9637523520639384 #
straight-curve $-1 -44.295785393841363 0 -8.9637523520639384 0 1 0 I I #
point $-1 -44.295785393841363 18.015584069585429 -8.9637523520639384 #
straight-curve $-1 -26.368280689713487 -7.1611282884149388 8.9637523520639384 0 1 0 I I #
straight-curve $-1 -26.368280689713487 -7.1611282884149388 -8.9637523520639384 0 -1 0 I I #
point $-1 -26.368280689713487 -18.015584069585429 -8.9637523520639384 #
point $-1 -26.368280689713487 -18.015584069585429 8.9637523520639384 #
straight-curve $-1 0 -18.015584069585429 -8.9637523520639384 -1 0 0 I I #
straight-curve $-1 0 -18.015584069585429 8.9637523520639384 1 0 0 I I #
vertex $-1 $343 $353 #
straight-curve $-1 -26.368280689713487 7.1611282884149396 -8.9637523520639384 0 -1 0 I I #
edge $-1 $344 -8.9637523520639384 $341 8.9637523520639384 $312 $354 forward 7 unknown #
vertex $-1 $313 $355 #
straight-curve $-1 -26.368280689713487 7.1611282884149396 8.9637523520639384 0 1 0 I I #
straight-curve $-1 0 18.015584069585429 8.9637523520639384 -1 0 0 I I #
straight-curve $-1 0 18.015584069585429 -8.9637523520639384 1 0 0 I I #
straight-curve $-1 44.295785393841363 4.5647252269550087 64.817836017742124 0 0 -1 I I #
point $-1 44.295785393841363 4.5647252269550087 8.9637523520639384 #
straight-curve $-1 44.295785393841363 3.7984135777573336 5.2821442537186769 0 1 0 I I #
point $-1 44.295785393841363 4.5647252269550087 5.282144253718684 #
point $-1 39.840849337048461 7.5968271555146671 4.4365884729685536 #
point $-1 -26.368280689713487 18.015584069585429 -8.9637523520639384 #
straight-curve $-1 -26.368280689713487 18.015584069585429 0 0 0 -1 I I #
point $-1 -26.368280689713487 18.015584069585429 8.9637523520639384 #
End-of-ACIS-data 