500 0 7 0           
7 Unknown 11 ACIS 5.0 NT 24 Thu Mar 25 22:07:08 1999 
-1 9.9999999999999995e-007 1e-010 
body $-1 $7 $-1 $8 #
body $-1 $9 $-1 $10 #
body $-1 $11 $-1 $12 #
body $-1 $13 $-1 $14 #
body $-1 $15 $-1 $16 #
body $-1 $17 $-1 $18 #
body $-1 $19 $-1 $20 #
lump $-1 $-1 $21 $0 #
transform $-1 1 0 0 0 1 0 0 0 1 72.570574053163242 42.59044670772272 20.451395172988725 1 rotate no_reflect no_shear #
lump $-1 $-1 $22 $1 #
transform $-1 1 0 0 0 1 0 0 0 1 72.570574053163242 42.59044670772272 20.451395172988725 1 rotate no_reflect no_shear #
lump $-1 $-1 $23 $2 #
transform $-1 1 0 0 0 1 0 0 0 1 72.570574053163242 42.59044670772272 20.451395172988725 1 rotate no_reflect no_shear #
lump $-1 $-1 $24 $3 #
transform $-1 1 0 0 0 1 0 0 0 1 72.570574053163242 42.59044670772272 20.451395172988725 1 rotate no_reflect no_shear #
lump $-1 $-1 $25 $4 #
transform $-1 1 0 0 0 1 0 0 0 1 72.570574053163242 42.59044670772272 20.451395172988725 1 rotate no_reflect no_shear #
lump $-1 $-1 $26 $5 #
transform $-1 1 0 0 0 1 0 0 0 1 72.570574053163242 42.59044670772272 20.451395172988725 1 rotate no_reflect no_shear #
lump $-1 $-1 $27 $6 #
transform $-1 1 0 0 0 1 0 0 0 1 72.570574053163242 42.59044670772272 20.451395172988725 1 rotate no_reflect no_shear #
shell $-1 $-1 $-1 $28 $-1 $7 #
shell $-1 $-1 $-1 $29 $-1 $9 #
shell $-1 $-1 $-1 $30 $-1 $11 #
shell $-1 $-1 $-1 $31 $-1 $13 #
shell $-1 $-1 $-1 $32 $-1 $15 #
shell $-1 $-1 $-1 $33 $-1 $17 #
shell $-1 $-1 $-1 $34 $-1 $19 #
face $-1 $35 $36 $21 $-1 $37 forward single #
face $-1 $38 $39 $22 $-1 $40 forward single #
face $-1 $41 $42 $23 $-1 $43 forward single #
face $-1 $44 $45 $24 $-1 $46 reversed single #
face $-1 $47 $48 $25 $-1 $49 forward single #
face $-1 $50 $51 $26 $-1 $52 reversed single #
face $-1 $53 $54 $27 $-1 $55 forward single #
face $-1 $56 $57 $21 $-1 $58 reversed single #
loop $-1 $-1 $59 $28 #
plane-surface $-1 0 0 20.451395172988725 0 0 1 1 0 0 forward_v I I I I #
face $-1 $60 $61 $22 $-1 $62 reversed single #
loop $-1 $-1 $63 $29 #
plane-surface $-1 -72.570574053163242 0 0 1 0 0 0 0 -1 forward_v I I I I #
face $-1 $64 $65 $23 $-1 $66 reversed single #
loop $-1 $-1 $67 $30 #
plane-surface $-1 60.678999325445531 0 -7.8350486224292277 0 0 1 1 0 0 forward_v I I I I #
face $-1 $68 $69 $24 $-1 $70 reversed single #
loop $-1 $-1 $71 $31 #
plane-surface $-1 10.518922001463487 -131.94826120191496 124.62888120949927 -1 0 0 0 -0.61566148304635926 0.78801074757464917 forward_v I I I I #
face $-1 $72 $73 $25 $-1 $74 forward single #
loop $-1 $75 $76 $32 #
cone-surface $-1 2.8046063085648285 -34.543443977037697 13.405278861675988 0 0.61566148304635926 -0.78801074757464917 1.5 0 0 1 I I 0 1 1.5 forward I I I I #
face $-1 $77 $78 $26 $-1 $79 reversed single #
loop $-1 $-1 $80 $33 #
plane-surface $-1 36.420088568862788 107.24218233479669 166.83529487466467 1 0 0 0 -0.79863551827123203 -0.60181501223851219 forward_v I I I I #
face $-1 $81 $82 $27 $-1 $83 forward single #
loop $-1 $84 $85 $34 #
cone-surface $-1 42.603756583295308 37.245132921422176 14.480284376579593 0 -0.79863551827123203 -0.60181501223851219 2 0 0 1 I I 0 1 2 forward I I I I #
face $-1 $86 $87 $21 $-1 $88 reversed single #
loop $-1 $-1 $89 $35 #
plane-surface $-1 0 0 -20.451395172988725 0 0 1 1 0 0 forward_v I I I I #
coedge $-1 $90 $91 $92 $93 forward $36 $-1 #
face $-1 $94 $95 $22 $-1 $96 reversed single #
loop $-1 $-1 $97 $38 #
plane-surface $-1 0 0 -20.451395172988725 0 0 1 1 0 0 forward_v I I I I #
coedge $-1 $98 $99 $100 $101 forward $39 $-1 #
face $-1 $102 $103 $23 $-1 $104 reversed single #
loop $-1 $-1 $105 $41 #
plane-surface $-1 60.678999325445531 0 -18.597948754942188 0 0 1 1 0 0 forward_v I I I I #
coedge $-1 $106 $107 $108 $109 reversed $42 $-1 #
face $-1 $110 $111 $24 $-1 $112 reversed single #
loop $-1 $-1 $113 $44 #
plane-surface $-1 2.8046063085648285 -42.59044670772272 10.256096586390058 0 -0.61566148304635926 0.78801074757464917 1 0 0 forward_v I I I I #
coedge $-1 $114 $115 $116 $117 reversed $45 $-1 #
face $-1 $-1 $118 $25 $-1 $119 forward single #
loop $-1 $120 $121 $47 #
cone-surface $-1 2.8046063085648285 -32.559388559113131 10.865803782981583 0 0.61566148304635926 -0.78801074757464917 0.75 0 0 1 I I -0.70710678118654757 0.70710678118654757 0.75 forward I I I I #
loop $-1 $-1 $122 $32 #
coedge $-1 $76 $76 $123 $124 reversed $48 $-1 #
face $-1 $125 $126 $26 $-1 $127 reversed single #
loop $-1 $-1 $128 $50 #
plane-surface $-1 42.603756583295294 -8.6726937055809969 79.48717305074409 0 0.79863551827123203 0.60181501223851219 1 0 0 forward_v I I I I #
coedge $-1 $129 $130 $131 $132 reversed $51 $-1 #
face $-1 $-1 $133 $27 $-1 $134 forward single #
loop $-1 $135 $136 $53 #
cone-surface $-1 42.603756583295308 34.489429695545525 12.403713108879685 0 -0.79863551827123203 -0.60181501223851219 1 0 0 1 I I -0.70710678118654746 0.70710678118654746 1 forward I I I I #
loop $-1 $-1 $137 $34 #
coedge $-1 $85 $85 $138 $139 reversed $54 $-1 #
face $-1 $140 $141 $21 $-1 $142 reversed single #
loop $-1 $-1 $143 $56 #
plane-surface $-1 0 -42.59044670772272 0 0 1 0 0 0 1 forward_v I I I I #
coedge $-1 $144 $145 $146 $147 forward $57 $-1 #
coedge $-1 $148 $59 $149 $150 forward $36 $-1 #
coedge $-1 $59 $148 $151 $152 forward $36 $-1 #
coedge $-1 $153 $154 $59 $93 reversed $155 $-1 #
edge $-1 $156 -42.59044670772272 $157 42.59044670772272 $92 $158 forward 7 unknown #
face $-1 $159 $160 $22 $-1 $161 reversed single #
loop $-1 $-1 $162 $60 #
plane-surface $-1 -84.555658349191063 -25.350519934426529 0 0 1 0 0 0 1 forward_v I I I I #
coedge $-1 $163 $164 $99 $165 forward $61 $-1 #
coedge $-1 $166 $63 $167 $168 reversed $39 $-1 #
coedge $-1 $63 $166 $97 $165 reversed $39 $-1 #
coedge $-1 $169 $170 $63 $101 reversed $171 $-1 #
edge $-1 $172 -20.451395172988725 $173 20.451395172988725 $100 $174 forward 7 unknown #
face $-1 $175 $176 $23 $-1 $177 reversed single #
loop $-1 $-1 $178 $64 #
plane-surface $-1 48.787424597727814 0 -13.216498688685707 1 0 0 0 0 -1 forward_v I I I I #
coedge $-1 $179 $180 $181 $182 reversed $65 $-1 #
coedge $-1 $183 $67 $184 $185 reversed $42 $-1 #
coedge $-1 $67 $183 $186 $187 reversed $42 $-1 #
coedge $-1 $188 $189 $67 $109 forward $176 $-1 #
edge $-1 $190 -42.59044670772272 $191 42.59044670772272 $108 $192 forward 7 unknown #
face $-1 $193 $194 $24 $-1 $195 forward single #
loop $-1 $-1 $196 $68 #
plane-surface $-1 -4.90970938433383 -131.94826120191496 124.62888120949927 1 0 0 0 0.61566148304635926 -0.78801074757464917 forward_v I I I I #
coedge $-1 $197 $198 $199 $200 reversed $69 $-1 #
coedge $-1 $115 $71 $201 $202 reversed $45 $-1 #
coedge $-1 $71 $114 $197 $203 reversed $45 $-1 #
coedge $-1 $199 $204 $71 $117 forward $194 $-1 #
edge $-1 $205 23.38368389323476 $206 36.433070743325267 $116 $207 forward 7 unknown #
loop $-1 $-1 $123 $72 #
plane-surface $-1 2.8046063085648285 -42.59044670772272 10.256096586390058 0 -0.61566148304635926 0.78801074757464917 1 0 0 forward_v I I I I #
loop $-1 $-1 $208 $47 #
coedge $-1 $121 $121 $122 $209 reversed $73 $-1 #
coedge $-1 $122 $122 $121 $209 forward $75 $-1 #
coedge $-1 $123 $123 $76 $124 forward $118 $-1 #
edge $-1 $210 4.2872174826074582e-015 $210 6.2831853071796049 $123 $211 forward 7 unknown #
face $-1 $212 $213 $26 $-1 $214 reversed single #
loop $-1 $-1 $215 $77 #
plane-surface $-1 48.787424597727799 107.24218233479669 166.83529487466467 -1 0 0 0 0.79863551827123203 0.60181501223851219 forward_v I I I I #
coedge $-1 $216 $217 $218 $219 reversed $78 $-1 #
coedge $-1 $130 $80 $220 $221 reversed $51 $-1 #
coedge $-1 $80 $129 $216 $222 reversed $51 $-1 #
coedge $-1 $218 $223 $80 $132 forward $224 $-1 #
edge $-1 $225 11.030644459675628 $226 17.8071366170659 $131 $227 forward 7 unknown #
loop $-1 $-1 $138 $81 #
plane-surface $-1 42.603756583295294 -8.6726937055809969 79.48717305074409 0 0.79863551827123203 0.60181501223851219 1 0 0 forward_v I I I I #
loop $-1 $-1 $228 $53 #
coedge $-1 $136 $136 $137 $229 reversed $82 $-1 #
coedge $-1 $137 $137 $136 $229 forward $84 $-1 #
coedge $-1 $138 $138 $85 $139 forward $133 $-1 #
edge $-1 $230 2.1582442830545595e-015 $230 6.2831853071796022 $138 $231 forward 7 unknown #
face $-1 $232 $233 $21 $-1 $234 reversed single #
loop $-1 $-1 $235 $86 #
plane-surface $-1 -72.570574053163242 0 0 1 0 0 0 0 -1 forward_v I I I I #
coedge $-1 $236 $151 $237 $238 forward $87 $-1 #
coedge $-1 $239 $89 $236 $240 forward $57 $-1 #
coedge $-1 $89 $239 $241 $242 forward $57 $-1 #
coedge $-1 $154 $153 $89 $147 reversed $155 $-1 #
edge $-1 $243 -42.59044670772272 $244 42.59044670772272 $146 $245 forward 7 unknown #
coedge $-1 $91 $90 $246 $247 forward $36 $-1 #
coedge $-1 $248 $249 $90 $150 reversed $233 $-1 #
edge $-1 $157 -72.570574053163242 $250 72.570574053163242 $149 $251 forward 7 unknown #
coedge $-1 $143 $252 $91 $152 reversed $87 $-1 #
edge $-1 $253 -72.570574053163242 $156 72.570574053163242 $151 $254 forward 7 unknown #
coedge $-1 $146 $92 $252 $255 forward $155 $-1 #
coedge $-1 $92 $146 $248 $256 reversed $155 $-1 #
loop $-1 $-1 $153 $232 #
vertex $-1 $93 $257 #
vertex $-1 $93 $258 #
straight-curve $-1 72.570574053163242 0 20.451395172988725 0 1 0 I I #
face $-1 $259 $171 $22 $-1 $260 reversed single #
loop $-1 $-1 $261 $94 #
plane-surface $-1 -96.540742645218884 -21.842756452517477 0 1 0 0 0 0 -1 forward_v I I I I #
coedge $-1 $262 $263 $264 $265 forward $95 $-1 #
coedge $-1 $266 $97 $262 $267 forward $61 $-1 #
coedge $-1 $97 $266 $169 $268 forward $61 $-1 #
edge $-1 $172 18.334992970608425 $269 25.350519934426529 $97 $270 forward 7 unknown #
coedge $-1 $99 $98 $271 $272 forward $39 $-1 #
coedge $-1 $273 $274 $98 $168 forward $275 $-1 #
edge $-1 $276 -25.350519934426529 $173 -18.334992970608425 $167 $277 forward 7 unknown #
coedge $-1 $278 $100 $164 $268 reversed $171 $-1 #
coedge $-1 $100 $278 $273 $279 reversed $171 $-1 #
loop $-1 $-1 $100 $159 #
vertex $-1 $165 $280 #
vertex $-1 $279 $281 #
straight-curve $-1 -72.570574053163242 -18.334992970608425 0 0 0 1 I I #
face $-1 $282 $283 $23 $-1 $284 reversed single #
loop $-1 $-1 $181 $102 #
plane-surface $-1 72.570574053163242 0 0 -1 0 0 0 0 1 forward_v I I I I #
coedge $-1 $285 $286 $287 $288 reversed $103 $-1 #
coedge $-1 $289 $105 $290 $291 reversed $65 $-1 #
coedge $-1 $105 $289 $292 $293 reversed $65 $-1 #
coedge $-1 $189 $188 $105 $182 forward $176 $-1 #
edge $-1 $294 -42.59044670772272 $295 42.59044670772272 $181 $296 forward 7 unknown #
coedge $-1 $107 $106 $286 $297 forward $42 $-1 #
coedge $-1 $298 $287 $106 $185 forward $283 $-1 #
edge $-1 $299 18.447924935005048 $190 42.23107439044049 $184 $300 forward 7 unknown #
coedge $-1 $301 $302 $107 $187 forward $303 $-1 #
edge $-1 $191 -42.23107439044049 $304 -18.447924935005048 $186 $305 forward 7 unknown #
coedge $-1 $181 $108 $302 $306 forward $176 $-1 #
coedge $-1 $108 $181 $298 $307 reversed $176 $-1 #
vertex $-1 $307 $308 #
vertex $-1 $306 $309 #
straight-curve $-1 72.570574053163242 0 -7.8350486224292277 0 -1 0 I I #
face $-1 $-1 $310 $24 $-1 $311 reversed single #
loop $-1 $-1 $116 $110 #
plane-surface $-1 0 0 20.451395172988725 0 0 1 1 0 0 forward_v I I I I #
coedge $-1 $312 $313 $314 $315 reversed $111 $-1 #
coedge $-1 $316 $113 $115 $203 forward $69 $-1 #
coedge $-1 $113 $316 $312 $317 forward $69 $-1 #
coedge $-1 $314 $116 $113 $200 forward $194 $-1 #
edge $-1 $206 -9.1166188471810727 $318 6.3120125386162442 $199 $319 forward 7 unknown #
coedge $-1 $320 $321 $114 $202 forward $310 $-1 #
edge $-1 $322 -52.058344018359577 $205 -41.863045431760909 $201 $323 forward 7 unknown #
edge $-1 $206 -16.559909735056401 $322 0 $115 $324 forward 7 unknown #
coedge $-1 $116 $314 $320 $325 forward $194 $-1 #
vertex $-1 $202 $326 #
vertex $-1 $117 $327 #
straight-curve $-1 10.518922001463487 -65.97413060095748 20.451395172988725 0 1 0 I I #
coedge $-1 $208 $208 $-1 $328 reversed $120 $-1 #
edge $-1 $329 0 $329 6.2831853071796004 $121 $330 forward 7 unknown #
vertex $-1 $124 $331 #
ellipse-curve $-1 2.8046063085648285 -36.065753282677477 15.353745879689386 0 -0.61566148304635926 0.78801074757464917 1.5 0 0 1 I I #
face $-1 $-1 $224 $26 $-1 $332 forward single #
loop $-1 $-1 $333 $125 #
plane-surface $-1 0 42.59044670772272 0 0 -1 0 0 0 -1 forward_v I I I I #
coedge $-1 $334 $335 $336 $337 reversed $126 $-1 #
coedge $-1 $338 $128 $130 $222 forward $78 $-1 #
coedge $-1 $128 $338 $334 $339 forward $78 $-1 #
coedge $-1 $336 $131 $128 $219 forward $224 $-1 #
edge $-1 $226 15.118210277215141 $340 27.485546306080153 $218 $341 forward 7 unknown #
coedge $-1 $342 $343 $129 $221 forward $213 $-1 #
edge $-1 $344 -71.958961346239107 $225 -62.966252264343609 $220 $345 forward 7 unknown #
edge $-1 $226 73.920801826529427 $344 85.180893415445468 $130 $346 forward 7 unknown #
coedge $-1 $131 $336 $342 $347 forward $224 $-1 #
loop $-1 $-1 $336 $212 #
vertex $-1 $221 $348 #
vertex $-1 $132 $349 #
straight-curve $-1 36.420088568862788 53.621091167398347 20.451395172988725 0 -1 0 I I #
coedge $-1 $228 $228 $-1 $350 reversed $135 $-1 #
edge $-1 $351 0 $351 6.2831853071796004 $136 $352 forward 7 unknown #
vertex $-1 $139 $353 #
ellipse-curve $-1 42.603756583295308 39.20220062902758 15.955040632040978 0 0.79863551827123203 0.60181501223851219 2 0 0 1 I I #
face $-1 $-1 $155 $21 $-1 $354 reversed single #
loop $-1 $-1 $248 $140 #
plane-surface $-1 0 42.59044670772272 0 0 -1 0 0 0 -1 forward_v I I I I #
coedge $-1 $355 $246 $249 $356 forward $141 $-1 #
coedge $-1 $252 $143 $144 $240 reversed $87 $-1 #
coedge $-1 $246 $355 $143 $238 reversed $141 $-1 #
edge $-1 $253 -20.451395172988725 $357 20.451395172988725 $237 $358 forward 7 unknown #
coedge $-1 $145 $144 $355 $359 forward $57 $-1 #
edge $-1 $244 -72.570574053163242 $357 72.570574053163242 $236 $360 forward 7 unknown #
coedge $-1 $249 $248 $145 $242 reversed $233 $-1 #
edge $-1 $361 -72.570574053163242 $243 72.570574053163242 $241 $362 forward 7 unknown #
vertex $-1 $147 $363 #
vertex $-1 $255 $364 #
straight-curve $-1 72.570574053163242 0 -20.451395172988725 0 -1 0 I I #
coedge $-1 $235 $237 $148 $247 reversed $141 $-1 #
edge $-1 $250 -42.59044670772272 $253 42.59044670772272 $246 $365 forward 7 unknown #
coedge $-1 $241 $149 $154 $256 forward $233 $-1 #
coedge $-1 $149 $241 $235 $356 reversed $233 $-1 #
vertex $-1 $150 $366 #
straight-curve $-1 0 42.59044670772272 20.451395172988725 -1 0 0 I I #
coedge $-1 $151 $236 $153 $255 reversed $87 $-1 #
vertex $-1 $247 $367 #
straight-curve $-1 0 -42.59044670772272 20.451395172988725 1 0 0 I I #
edge $-1 $156 -20.451395172988725 $244 20.451395172988725 $153 $368 forward 7 unknown #
edge $-1 $157 -20.451395172988725 $243 20.451395172988725 $154 $369 forward 7 unknown #
point $-1 72.570574053163242 -42.59044670772272 20.451395172988725 #
point $-1 72.570574053163242 42.59044670772272 20.451395172988725 #
face $-1 $-1 $275 $22 $-1 $370 forward single #
plane-surface $-1 -84.555658349191063 -18.334992970608425 0 0 -1 0 0 0 -1 forward_v I I I I #
coedge $-1 $371 $372 $278 $373 forward $160 $-1 #
coedge $-1 $271 $162 $163 $267 reversed $95 $-1 #
coedge $-1 $162 $271 $274 $374 reversed $95 $-1 #
coedge $-1 $372 $371 $162 $265 reversed $160 $-1 #
edge $-1 $375 -20.451395172988725 $376 20.451395172988725 $264 $377 forward 7 unknown #
coedge $-1 $164 $163 $371 $378 forward $61 $-1 #
edge $-1 $269 -11.985084296027821 $376 11.985084296027821 $262 $379 forward 7 unknown #
edge $-1 $380 -11.985084296027821 $172 11.985084296027821 $169 $381 forward 7 unknown #
vertex $-1 $267 $382 #
straight-curve $-1 -72.570574053163242 0 -20.451395172988725 0 -1 0 I I #
coedge $-1 $263 $262 $166 $272 reversed $95 $-1 #
edge $-1 $276 -20.451395172988725 $269 20.451395172988725 $271 $383 forward 7 unknown #
coedge $-1 $384 $167 $170 $279 forward $275 $-1 #
coedge $-1 $167 $384 $263 $374 forward $275 $-1 #
loop $-1 $-1 $167 $259 #
vertex $-1 $168 $385 #
straight-curve $-1 -72.570574053163242 0 20.451395172988725 0 1 0 I I #
coedge $-1 $170 $169 $261 $373 reversed $171 $-1 #
edge $-1 $173 -11.985084296027821 $386 11.985084296027821 $170 $387 forward 7 unknown #
point $-1 -72.570574053163242 -18.334992970608425 -20.451395172988725 #
point $-1 -72.570574053163242 -18.334992970608425 20.451395172988725 #
face $-1 $-1 $303 $23 $-1 $388 reversed single #
loop $-1 $-1 $292 $175 #
plane-surface $-1 0 42.59044670772272 0 0 -1 0 0 0 -1 forward_v I I I I #
coedge $-1 $389 $178 $289 $390 reversed $103 $-1 #
coedge $-1 $178 $389 $183 $297 reversed $103 $-1 #
coedge $-1 $184 $292 $178 $288 forward $283 $-1 #
edge $-1 $391 -11.989699410599334 $299 -1.2267992780863741 $287 $392 forward 7 unknown #
coedge $-1 $180 $179 $285 $390 forward $65 $-1 #
coedge $-1 $302 $301 $179 $291 forward $303 $-1 #
edge $-1 $393 18.447924935005048 $294 42.23107439044049 $290 $394 forward 7 unknown #
coedge $-1 $287 $298 $180 $293 forward $283 $-1 #
edge $-1 $295 -42.23107439044049 $391 -18.447924935005048 $292 $395 forward 7 unknown #
vertex $-1 $182 $396 #
vertex $-1 $182 $397 #
straight-curve $-1 72.570574053163242 0 -18.597948754942188 0 1 0 I I #
edge $-1 $299 -42.59044670772272 $304 42.59044670772272 $286 $398 forward 7 unknown #
coedge $-1 $292 $184 $189 $307 forward $283 $-1 #
vertex $-1 $185 $399 #
straight-curve $-1 30.339499662722766 42.59044670772272 -7.8350486224292277 1 0 0 I I #
coedge $-1 $290 $186 $389 $400 forward $303 $-1 #
coedge $-1 $186 $290 $188 $306 reversed $303 $-1 #
loop $-1 $-1 $290 $282 #
vertex $-1 $187 $401 #
straight-curve $-1 30.339499662722766 -42.59044670772272 -7.8350486224292277 -1 0 0 I I #
edge $-1 $191 7.8350486224292277 $294 18.597948754942188 $188 $402 forward 7 unknown #
edge $-1 $190 7.8350486224292277 $295 18.597948754942188 $189 $403 forward 7 unknown #
point $-1 72.570574053163256 42.59044670772272 -7.8350486224292277 #
point $-1 72.570574053163256 -42.59044670772272 -7.8350486224292277 #
loop $-1 $-1 $201 $193 #
plane-surface $-1 0 -42.59044670772272 0 0 1 0 0 0 1 forward_v I I I I #
coedge $-1 $313 $196 $198 $317 reversed $111 $-1 #
coedge $-1 $196 $312 $404 $405 reversed $111 $-1 #
coedge $-1 $204 $199 $196 $315 forward $194 $-1 #
edge $-1 $318 -36.433070743325267 $406 -23.38368389323476 $314 $407 forward 7 unknown #
coedge $-1 $198 $197 $321 $408 reversed $69 $-1 #
edge $-1 $409 0 $318 16.559909735056401 $312 $410 forward 7 unknown #
vertex $-1 $200 $411 #
straight-curve $-1 1.4023031542824143 -29.541059857632209 20.451395172988725 -1 0 0 I I #
coedge $-1 $404 $201 $204 $325 reversed $310 $-1 #
coedge $-1 $201 $404 $316 $408 forward $310 $-1 #
vertex $-1 $202 $412 #
straight-curve $-1 10.518922001463487 -42.59044670772272 62.314440604749635 0 0 1 I I #
straight-curve $-1 10.518922001463487 -42.59044670772272 10.256096586390058 0 -0.78801074757464917 -0.61566148304635926 I I #
edge $-1 $406 -4.90970938433383 $205 10.518922001463487 $320 $413 forward 7 unknown #
point $-1 10.518922001463487 -42.59044670772272 20.451395172988725 #
point $-1 10.518922001463487 -29.541059857632213 20.451395172988725 #
edge $-1 $414 1 $414 0 $208 $-1 forward 7 unknown #
vertex $-1 $209 $415 #
ellipse-curve $-1 2.8046063085648285 -33.021134671397903 11.456811843662571 0 -0.61566148304635926 0.78801074757464917 1.5 0 0 1 I I #
point $-1 4.3046063085648285 -36.065753282677484 15.353745879689406 #
plane-surface $-1 0 0 20.451395172988725 0 0 1 1 0 0 forward_v I I I I #
coedge $-1 $343 $342 $335 $416 forward $213 $-1 #
coedge $-1 $335 $215 $217 $339 reversed $126 $-1 #
coedge $-1 $215 $334 $333 $416 reversed $126 $-1 #
coedge $-1 $223 $218 $215 $337 forward $224 $-1 #
edge $-1 $340 -17.8071366170659 $417 -11.030644459675628 $336 $418 forward 7 unknown #
coedge $-1 $217 $216 $343 $419 reversed $78 $-1 #
edge $-1 $420 -85.180893415445468 $340 -73.920801826529427 $334 $421 forward 7 unknown #
vertex $-1 $219 $422 #
straight-curve $-1 21.301878291647647 35.813954550332447 20.451395172988725 1 0 0 I I #
coedge $-1 $333 $220 $223 $347 reversed $213 $-1 #
coedge $-1 $220 $333 $338 $419 forward $213 $-1 #
vertex $-1 $221 $423 #
straight-curve $-1 36.420088568862788 42.59044670772272 83.417647437332334 0 0 1 I I #
straight-curve $-1 36.420088568862788 -8.6726937055809969 79.48717305074409 0 0.60181501223851219 -0.79863551827123203 I I #
edge $-1 $417 -48.787424597727799 $225 -36.420088568862788 $342 $424 forward 7 unknown #
point $-1 36.420088568862788 42.59044670772272 20.451395172988725 #
point $-1 36.420088568862788 35.813954550332447 20.451395172988725 #
edge $-1 $425 1 $425 0 $228 $-1 forward 7 unknown #
vertex $-1 $229 $426 #
ellipse-curve $-1 42.603756583295308 35.288065213816758 13.005528121118198 0 0.79863551827123203 0.60181501223851219 2 0 0 1 I I #
point $-1 44.603756583295308 39.202200629027601 15.955040632040989 #
plane-surface $-1 72.570574053163242 0 0 -1 0 0 0 0 1 forward_v I I I I #
coedge $-1 $237 $235 $239 $359 reversed $141 $-1 #
edge $-1 $250 -20.451395172988725 $361 20.451395172988725 $249 $427 forward 7 unknown #
vertex $-1 $359 $428 #
straight-curve $-1 -72.570574053163242 -42.59044670772272 0 0 0 -1 I I #
edge $-1 $357 -42.59044670772272 $361 42.59044670772272 $355 $429 forward 7 unknown #
straight-curve $-1 0 -42.59044670772272 -20.451395172988725 -1 0 0 I I #
vertex $-1 $242 $430 #
straight-curve $-1 0 42.59044670772272 -20.451395172988725 1 0 0 I I #
point $-1 72.570574053163242 42.59044670772272 -20.451395172988725 #
point $-1 72.570574053163242 -42.59044670772272 -20.451395172988725 #
straight-curve $-1 -72.570574053163242 0 20.451395172988725 0 -1 0 I I #
point $-1 -72.570574053163242 42.59044670772272 20.451395172988725 #
point $-1 -72.570574053163242 -42.59044670772272 20.451395172988725 #
straight-curve $-1 72.570574053163242 -42.59044670772272 0 0 0 -1 I I #
straight-curve $-1 72.570574053163242 42.59044670772272 0 0 0 -1 I I #
plane-surface $-1 0 0 20.451395172988725 0 0 1 1 0 0 forward_v I I I I #
coedge $-1 $264 $261 $266 $378 reversed $160 $-1 #
coedge $-1 $261 $264 $384 $431 reversed $160 $-1 #
edge $-1 $386 -20.451395172988725 $380 20.451395172988725 $278 $432 forward 7 unknown #
edge $-1 $375 -11.985084296027821 $276 11.985084296027821 $263 $433 forward 7 unknown #
vertex $-1 $431 $434 #
vertex $-1 $378 $435 #
straight-curve $-1 -96.540742645218884 -25.350519934426529 0 0 0 -1 I I #
edge $-1 $376 -3.507763481909052 $380 3.507763481909052 $371 $436 forward 7 unknown #
straight-curve $-1 -84.555658349191063 -25.350519934426529 -20.451395172988725 -1 0 0 I I #
vertex $-1 $268 $437 #
straight-curve $-1 -84.555658349191063 -18.334992970608425 -20.451395172988725 1 0 0 I I #
point $-1 -72.570574053163242 -25.350519934426529 -20.451395172988725 #
straight-curve $-1 -72.570574053163242 -25.350519934426529 0 0 0 -1 I I #
coedge $-1 $274 $273 $372 $431 forward $275 $-1 #
point $-1 -72.570574053163242 -25.350519934426529 20.451395172988725 #
vertex $-1 $279 $438 #
straight-curve $-1 -84.555658349191063 -18.334992970608425 20.451395172988725 -1 0 0 I I #
plane-surface $-1 0 -42.59044670772272 0 0 1 0 0 0 1 forward_v I I I I #
coedge $-1 $286 $285 $301 $400 reversed $103 $-1 #
edge $-1 $393 -42.59044670772272 $391 42.59044670772272 $285 $439 forward 7 unknown #
vertex $-1 $293 $440 #
straight-curve $-1 48.787424597727814 42.59044670772272 -6.6082493443428536 0 0 1 I I #
vertex $-1 $291 $441 #
straight-curve $-1 30.339499662722766 -42.59044670772272 -18.597948754942188 1 0 0 I I #
straight-curve $-1 30.339499662722766 42.59044670772272 -18.597948754942188 -1 0 0 I I #
point $-1 72.570574053163256 -42.59044670772272 -18.597948754942188 #
point $-1 72.570574053163256 42.59044670772272 -18.597948754942188 #
straight-curve $-1 48.787424597727814 0 -7.8350486224292277 0 -1 0 I I #
point $-1 48.787424597727814 42.59044670772272 -7.8350486224292277 #
edge $-1 $304 1.2267992780863741 $393 11.989699410599334 $301 $442 forward 7 unknown #
point $-1 48.787424597727814 -42.59044670772272 -7.8350486224292277 #
straight-curve $-1 72.570574053163242 -42.59044670772272 0 0 0 -1 I I #
straight-curve $-1 72.570574053163242 42.59044670772272 0 0 0 -1 I I #
coedge $-1 $321 $320 $313 $405 forward $310 $-1 #
edge $-1 $406 41.863045431760909 $409 52.058344018359577 $404 $443 forward 7 unknown #
vertex $-1 $325 $444 #
straight-curve $-1 -4.90970938433383 -65.97413060095748 20.451395172988725 0 -1 0 I I #
edge $-1 $409 -6.3120125386162442 $322 9.1166188471810727 $321 $445 forward 7 unknown #
vertex $-1 $408 $446 #
straight-curve $-1 -4.90970938433383 -42.59044670772272 10.256096586390058 0 0.78801074757464917 0.61566148304635926 I I #
point $-1 -4.90970938433383 -29.541059857632213 20.451395172988725 #
point $-1 10.518922001463487 -42.59044670772272 10.256096586390058 #
straight-curve $-1 0 -42.59044670772272 20.451395172988725 1 0 0 I I #
vertex $-1 $328 $447 #
point $-1 4.3046063085648285 -33.021134671397903 11.456811843662571 #
edge $-1 $417 62.966252264343609 $420 71.958961346239107 $333 $448 forward 7 unknown #
vertex $-1 $347 $449 #
straight-curve $-1 48.787424597727799 53.621091167398347 20.451395172988725 0 1 0 I I #
edge $-1 $420 -27.485546306080153 $344 -15.118210277215141 $343 $450 forward 7 unknown #
vertex $-1 $419 $451 #
straight-curve $-1 48.787424597727799 -8.6726937055809969 79.48717305074409 0 -0.60181501223851219 0.79863551827123203 I I #
point $-1 48.787424597727799 35.813954550332447 20.451395172988725 #
point $-1 36.420088568862788 42.59044670772272 11.458686091093227 #
straight-curve $-1 0 42.59044670772272 20.451395172988725 -1 0 0 I I #
vertex $-1 $350 $452 #
point $-1 44.603756583295308 35.288065213816758 13.005528121118198 #
straight-curve $-1 -72.570574053163242 42.59044670772272 0 0 0 -1 I I #
point $-1 -72.570574053163242 -42.59044670772272 -20.451395172988725 #
straight-curve $-1 -72.570574053163242 0 -20.451395172988725 0 1 0 I I #
point $-1 -72.570574053163242 42.59044670772272 -20.451395172988725 #
edge $-1 $386 -3.507763481909052 $375 3.507763481909052 $372 $453 forward 7 unknown #
straight-curve $-1 -96.540742645218884 -18.334992970608425 0 0 0 -1 I I #
straight-curve $-1 -84.555658349191063 -25.350519934426529 20.451395172988725 1 0 0 I I #
point $-1 -96.540742645218884 -25.350519934426529 20.451395172988725 #
point $-1 -96.540742645218884 -25.350519934426529 -20.451395172988725 #
straight-curve $-1 -96.540742645218884 -21.842756452517477 -20.451395172988725 0 1 0 I I #
point $-1 -96.540742645218884 -18.334992970608425 -20.451395172988725 #
point $-1 -96.540742645218884 -18.334992970608425 20.451395172988725 #
straight-curve $-1 48.787424597727814 0 -18.597948754942188 0 1 0 I I #
point $-1 48.787424597727814 42.59044670772272 -18.597948754942188 #
point $-1 48.787424597727814 -42.59044670772272 -18.597948754942188 #
straight-curve $-1 48.787424597727814 -42.59044670772272 -6.6082493443428536 0 0 -1 I I #
straight-curve $-1 -4.90970938433383 -42.59044670772272 62.314440604749635 0 0 -1 I I #
point $-1 -4.90970938433383 -42.59044670772272 20.451395172988725 #
straight-curve $-1 1.4023031542824143 -42.59044670772272 10.256096586390059 1 0 0 I I #
point $-1 -4.90970938433383 -42.59044670772272 10.256096586390058 #
point $-1 2.8046063085648285 -32.09764244682836 10.274795722300595 #
straight-curve $-1 48.787424597727799 42.59044670772272 83.417647437332334 0 0 -1 I I #
point $-1 48.787424597727799 42.59044670772272 20.451395172988725 #
straight-curve $-1 21.301878291647647 42.59044670772272 11.458686091093217 -1 0 0 I I #
point $-1 48.787424597727799 42.59044670772272 11.458686091093227 #
point $-1 42.603756583295308 33.690794177274292 11.801898096641173 #
straight-curve $-1 -96.540742645218884 -21.842756452517477 20.451395172988725 0 -1 0 I I #
End-of-ACIS-data 