500 0 9 0           
7 Unknown 11 ACIS 5.0 NT 24 Fri Mar 26 03:06:43 1999 
-1 9.9999999999999995e-007 1e-010 
body $-1 $9 $-1 $10 #
body $-1 $11 $-1 $12 #
body $-1 $13 $-1 $14 #
body $-1 $15 $-1 $16 #
body $-1 $17 $-1 $18 #
body $-1 $19 $-1 $20 #
body $-1 $21 $-1 $22 #
body $-1 $23 $-1 $24 #
body $-1 $25 $-1 $26 #
lump $-1 $-1 $27 $0 #
transform $-1 1 0 0 0 1 0 0 0 1 72.972197637867367 36.529302671412538 15.402797248124765 1 rotate no_reflect no_shear #
lump $-1 $-1 $28 $1 #
transform $-1 1 0 0 0 1 0 0 0 1 72.972197637867367 36.529302671412538 15.402797248124765 1 rotate no_reflect no_shear #
lump $-1 $-1 $29 $2 #
transform $-1 1 0 0 0 1 0 0 0 1 72.972197637867367 36.529302671412538 15.402797248124765 1 rotate no_reflect no_shear #
lump $-1 $-1 $30 $3 #
transform $-1 1 0 0 0 1 0 0 0 1 72.972197637867367 36.529302671412538 15.402797248124765 1 rotate no_reflect no_shear #
lump $-1 $-1 $31 $4 #
transform $-1 1 0 0 0 1 0 0 0 1 72.972197637867367 36.529302671412538 15.402797248124765 1 rotate no_reflect no_shear #
lump $-1 $-1 $32 $5 #
transform $-1 1 0 0 0 1 0 0 0 1 72.972197637867367 36.529302671412538 15.402797248124765 1 rotate no_reflect no_shear #
lump $-1 $-1 $33 $6 #
transform $-1 1 0 0 0 1 0 0 0 1 72.972197637867367 36.529302671412538 15.402797248124765 1 rotate no_reflect no_shear #
lump $-1 $-1 $34 $7 #
transform $-1 1 0 0 0 1 0 0 0 1 72.972197637867367 36.529302671412538 15.402797248124765 1 rotate no_reflect no_shear #
lump $-1 $-1 $35 $8 #
transform $-1 1 0 0 0 1 0 0 0 1 72.972197637867367 36.529302671412538 15.402797248124765 1 rotate no_reflect no_shear #
shell $-1 $-1 $-1 $36 $-1 $9 #
shell $-1 $-1 $-1 $37 $-1 $11 #
shell $-1 $-1 $-1 $38 $-1 $13 #
shell $-1 $-1 $-1 $39 $-1 $15 #
shell $-1 $-1 $-1 $40 $-1 $17 #
shell $-1 $-1 $-1 $41 $-1 $19 #
shell $-1 $-1 $-1 $42 $-1 $21 #
shell $-1 $-1 $-1 $43 $-1 $23 #
shell $-1 $-1 $-1 $44 $-1 $25 #
face $-1 $45 $46 $27 $-1 $47 forward single #
face $-1 $48 $49 $28 $-1 $50 forward single #
face $-1 $51 $52 $29 $-1 $53 reversed single #
face $-1 $54 $55 $30 $-1 $56 forward single #
face $-1 $57 $58 $31 $-1 $59 forward single #
face $-1 $60 $61 $32 $-1 $62 forward single #
face $-1 $63 $64 $33 $-1 $65 reversed single #
face $-1 $66 $67 $34 $-1 $68 forward single #
face $-1 $69 $70 $35 $-1 $71 forward single #
face $-1 $72 $73 $27 $-1 $74 reversed single #
loop $-1 $-1 $75 $36 #
plane-surface $-1 0 0 15.402797248124765 0 0 1 1 0 0 forward_v I I I I #
face $-1 $76 $77 $28 $-1 $78 reversed single #
loop $-1 $-1 $79 $37 #
plane-surface $-1 -64.902841996015297 0 -10.889463177317394 0 0 1 1 0 0 forward_v I I I I #
face $-1 $80 $81 $29 $-1 $82 reversed single #
loop $-1 $-1 $83 $38 #
plane-surface $-1 40.283286153842624 128.75563433195089 139.73681780444613 1 0 0 0 -0.87461971476443456 -0.48480960649040278 forward_v I I I I #
face $-1 $84 $85 $30 $-1 $86 forward single #
loop $-1 $87 $88 $39 #
cone-surface $-1 46.821068450647573 30.504904931495567 8.4889697325411113 0 -0.87461971476443456 -0.48480960649040278 2 0 0 1 I I 0 1 2 forward I I I I #
face $-1 $89 $90 $31 $-1 $91 forward single #
loop $-1 $92 $93 $40 #
cone-surface $-1 56.627741895854996 30.504904931495567 8.4889697325411113 0 -0.87461971476443456 -0.48480960649040278 2 0 0 1 I I 0 1 2 forward I I I I #
face $-1 $94 $95 $32 $-1 $96 forward single #
loop $-1 $97 $98 $41 #
cone-surface $-1 66.434415341062419 30.504904931495567 8.4889697325411113 0 -0.87461971476443456 -0.48480960649040278 2 0 0 1 I I 0 1 2 forward I I I I #
face $-1 $99 $100 $33 $-1 $101 reversed single #
loop $-1 $-1 $102 $42 #
plane-surface $-1 21.009378215189813 -162.92085764904135 83.893107154577393 -1 0 0 0 -0.86602541151947299 0.49999998660252726 forward_v I I I I #
face $-1 $103 $104 $34 $-1 $105 forward single #
loop $-1 $106 $107 $43 #
cone-surface $-1 -1.0223705418425055 -34.339589432209024 12.644603786438822 0 0.86602541151947299 -0.49999998660252726 1 0 0 1 I I 0 1 1 forward I I I I #
face $-1 $108 $109 $35 $-1 $110 forward single #
loop $-1 $111 $112 $44 #
cone-surface $-1 12.196678712376894 -34.339589432209024 12.644603786438822 0 0.86602541151947299 -0.49999998660252726 1 0 0 1 I I 0 1 1 forward I I I I #
face $-1 $113 $114 $27 $-1 $115 reversed single #
loop $-1 $-1 $116 $45 #
plane-surface $-1 0 0 -15.402797248124765 0 0 1 1 0 0 forward_v I I I I #
coedge $-1 $117 $118 $119 $120 forward $46 $-1 #
face $-1 $121 $122 $28 $-1 $123 reversed single #
loop $-1 $-1 $124 $48 #
plane-surface $-1 -56.833486354163227 0 -13.146130212721079 -1 0 0 0 0 1 forward_v I I I I #
coedge $-1 $125 $126 $127 $128 forward $49 $-1 #
face $-1 $129 $130 $29 $-1 $131 reversed single #
loop $-1 $-1 $132 $51 #
plane-surface $-1 56.627741895854996 1.1097889644198773 68.981572961337378 0 0.87461971476443456 0.48480960649040278 1 0 0 forward_v I I I I #
coedge $-1 $133 $134 $135 $136 reversed $52 $-1 #
face $-1 $-1 $137 $30 $-1 $138 forward single #
loop $-1 $139 $140 $54 #
cone-surface $-1 46.821068450647573 26.466044709316215 6.2501930368752792 0 -0.87461971476443456 -0.48480960649040278 1 0 0 1 I I -0.70710678118654746 0.70710678118654746 1 forward I I I I #
loop $-1 $-1 $141 $39 #
coedge $-1 $88 $88 $142 $143 reversed $55 $-1 #
face $-1 $-1 $144 $31 $-1 $145 forward single #
loop $-1 $146 $147 $57 #
cone-surface $-1 56.627741895854996 26.466044709316215 6.2501930368752792 0 -0.87461971476443456 -0.48480960649040278 1 0 0 1 I I -0.70710678118654746 0.70710678118654746 1 forward I I I I #
loop $-1 $-1 $148 $40 #
coedge $-1 $93 $93 $149 $150 reversed $58 $-1 #
face $-1 $-1 $151 $32 $-1 $152 forward single #
loop $-1 $153 $154 $60 #
cone-surface $-1 66.434415341062419 26.466044709316215 6.2501930368752792 0 -0.87461971476443456 -0.48480960649040278 1 0 0 1 I I -0.70710678118654746 0.70710678118654746 1 forward I I I I #
loop $-1 $-1 $155 $41 #
coedge $-1 $98 $98 $156 $157 reversed $61 $-1 #
face $-1 $158 $159 $33 $-1 $160 reversed single #
loop $-1 $-1 $161 $63 #
plane-surface $-1 5.587154085267187 -36.529302671412552 10.920911471996078 0 -0.86602541151947299 0.49999998660252726 1 0 0 forward_v I I I I #
coedge $-1 $162 $163 $164 $165 reversed $64 $-1 #
face $-1 $-1 $166 $34 $-1 $167 forward single #
loop $-1 $168 $169 $66 #
cone-surface $-1 -1.0223705418425055 -33.010672420684912 11.877353219515951 0 0.86602541151947299 -0.49999998660252726 0.5 0 0 1 I I -0.70710678118654746 0.70710678118654746 0.5 forward I I I I #
loop $-1 $-1 $170 $43 #
coedge $-1 $107 $107 $171 $172 reversed $67 $-1 #
face $-1 $-1 $173 $35 $-1 $174 forward single #
loop $-1 $175 $176 $69 #
cone-surface $-1 12.196678712376894 -33.010672420684912 11.877353219515951 0 0.86602541151947299 -0.49999998660252726 0.5 0 0 1 I I -0.70710678118654746 0.70710678118654746 0.5 forward I I I I #
loop $-1 $-1 $177 $44 #
coedge $-1 $112 $112 $178 $179 reversed $70 $-1 #
face $-1 $180 $181 $27 $-1 $182 reversed single #
loop $-1 $-1 $183 $72 #
plane-surface $-1 0 -36.529302671412538 0 0 1 0 0 0 1 forward_v I I I I #
coedge $-1 $184 $185 $186 $187 forward $73 $-1 #
coedge $-1 $188 $75 $189 $190 forward $46 $-1 #
coedge $-1 $75 $188 $191 $192 forward $46 $-1 #
coedge $-1 $193 $194 $75 $120 reversed $195 $-1 #
edge $-1 $196 -36.529302671412538 $197 36.529302671412538 $119 $198 forward 7 unknown #
face $-1 $199 $200 $28 $-1 $201 reversed single #
loop $-1 $-1 $202 $76 #
plane-surface $-1 0 0 -15.402797248124765 0 0 1 1 0 0 forward_v I I I I #
coedge $-1 $203 $127 $204 $205 reversed $77 $-1 #
coedge $-1 $206 $79 $207 $208 reversed $49 $-1 #
coedge $-1 $79 $206 $209 $210 reversed $49 $-1 #
coedge $-1 $124 $211 $79 $128 reversed $77 $-1 #
edge $-1 $212 -36.529302671412538 $213 36.529302671412538 $127 $214 forward 7 unknown #
face $-1 $215 $216 $29 $-1 $217 reversed single #
loop $-1 $-1 $218 $80 #
plane-surface $-1 72.972197637867367 0 0 -1 0 0 0 0 1 forward_v I I I I #
coedge $-1 $219 $220 $221 $222 reversed $81 $-1 #
coedge $-1 $134 $83 $223 $224 reversed $52 $-1 #
coedge $-1 $83 $133 $219 $225 reversed $52 $-1 #
coedge $-1 $221 $226 $83 $136 forward $227 $-1 #
edge $-1 $228 27.848514494562906 $229 33.568828959566993 $135 $230 forward 7 unknown #
loop $-1 $-1 $142 $84 #
plane-surface $-1 56.627741895854996 1.1097889644198773 68.981572961337378 0 0.87461971476443456 0.48480960649040278 1 0 0 forward_v I I I I #
loop $-1 $-1 $231 $54 #
coedge $-1 $140 $140 $141 $232 reversed $85 $-1 #
coedge $-1 $141 $141 $140 $232 forward $87 $-1 #
coedge $-1 $142 $142 $88 $143 forward $137 $-1 #
edge $-1 $233 6.0806534770180727e-016 $233 6.2831853071796013 $142 $234 forward 7 unknown #
loop $-1 $-1 $149 $89 #
plane-surface $-1 56.627741895854996 1.1097889644198773 68.981572961337378 0 0.87461971476443456 0.48480960649040278 1 0 0 forward_v I I I I #
loop $-1 $-1 $235 $57 #
coedge $-1 $147 $147 $148 $236 reversed $90 $-1 #
coedge $-1 $148 $148 $147 $236 forward $92 $-1 #
coedge $-1 $149 $149 $93 $150 forward $144 $-1 #
edge $-1 $237 6.0806534770180727e-016 $237 6.2831853071796013 $149 $238 forward 7 unknown #
loop $-1 $-1 $156 $94 #
plane-surface $-1 56.627741895854996 1.1097889644198773 68.981572961337378 0 0.87461971476443456 0.48480960649040278 1 0 0 forward_v I I I I #
loop $-1 $-1 $239 $60 #
coedge $-1 $154 $154 $155 $240 reversed $95 $-1 #
coedge $-1 $155 $155 $154 $240 forward $97 $-1 #
coedge $-1 $156 $156 $98 $157 forward $151 $-1 #
edge $-1 $241 6.0806534770180727e-016 $241 6.2831853071796013 $156 $242 forward 7 unknown #
face $-1 $243 $244 $33 $-1 $245 forward single #
loop $-1 $-1 $246 $99 #
plane-surface $-1 -9.8350700446554384 -162.92085764904135 83.893107154577393 1 0 0 0 0.86602541151947299 -0.49999998660252726 forward_v I I I I #
coedge $-1 $247 $248 $249 $250 reversed $100 $-1 #
coedge $-1 $163 $102 $251 $252 reversed $64 $-1 #
coedge $-1 $102 $162 $247 $253 reversed $64 $-1 #
coedge $-1 $249 $254 $102 $165 forward $244 $-1 #
edge $-1 $255 44.931126153108139 $256 47.5187440199864 $164 $257 forward 7 unknown #
loop $-1 $-1 $171 $103 #
plane-surface $-1 5.587154085267187 -36.529302671412552 10.920911471996078 0 -0.86602541151947299 0.49999998660252726 1 0 0 forward_v I I I I #
loop $-1 $-1 $258 $66 #
coedge $-1 $169 $169 $170 $259 reversed $104 $-1 #
coedge $-1 $170 $170 $169 $259 forward $106 $-1 #
coedge $-1 $171 $171 $107 $172 forward $166 $-1 #
edge $-1 $260 -1.0623969049353655e-015 $260 6.2831853071795996 $171 $261 forward 7 unknown #
loop $-1 $-1 $178 $108 #
plane-surface $-1 5.587154085267187 -36.529302671412552 10.920911471996078 0 -0.86602541151947299 0.49999998660252726 1 0 0 forward_v I I I I #
loop $-1 $-1 $262 $69 #
coedge $-1 $176 $176 $177 $263 reversed $109 $-1 #
coedge $-1 $177 $177 $176 $263 forward $111 $-1 #
coedge $-1 $178 $178 $112 $179 forward $173 $-1 #
edge $-1 $264 -1.0623969049353655e-015 $264 6.2831853071795996 $178 $265 forward 7 unknown #
face $-1 $266 $267 $27 $-1 $268 reversed single #
loop $-1 $-1 $269 $113 #
plane-surface $-1 -72.972197637867367 0 0 1 0 0 0 0 -1 forward_v I I I I #
coedge $-1 $270 $191 $271 $272 forward $114 $-1 #
coedge $-1 $273 $116 $270 $274 forward $73 $-1 #
coedge $-1 $116 $273 $275 $276 forward $73 $-1 #
coedge $-1 $194 $193 $116 $187 reversed $195 $-1 #
edge $-1 $277 -36.529302671412538 $278 36.529302671412538 $186 $279 forward 7 unknown #
coedge $-1 $118 $117 $280 $281 forward $46 $-1 #
coedge $-1 $282 $283 $117 $190 reversed $267 $-1 #
edge $-1 $197 -72.972197637867367 $284 72.972197637867367 $189 $285 forward 7 unknown #
coedge $-1 $183 $286 $118 $192 reversed $114 $-1 #
edge $-1 $287 -72.972197637867367 $196 72.972197637867367 $191 $288 forward 7 unknown #
coedge $-1 $186 $119 $286 $289 forward $195 $-1 #
coedge $-1 $119 $186 $282 $290 reversed $195 $-1 #
loop $-1 $-1 $193 $266 #
vertex $-1 $120 $291 #
vertex $-1 $120 $292 #
straight-curve $-1 72.972197637867367 0 15.402797248124765 0 1 0 I I #
face $-1 $293 $294 $28 $-1 $295 reversed single #
loop $-1 $-1 $204 $121 #
plane-surface $-1 0 -36.529302671412538 0 0 1 0 0 0 1 forward_v I I I I #
coedge $-1 $296 $297 $203 $298 forward $122 $-1 #
coedge $-1 $211 $124 $202 $298 reversed $77 $-1 #
coedge $-1 $209 $299 $124 $205 forward $200 $-1 #
edge $-1 $300 -8.8297321417642252 $212 -4.3163980709568541 $204 $301 forward 7 unknown #
coedge $-1 $126 $125 $302 $303 reversed $49 $-1 #
coedge $-1 $304 $305 $125 $208 forward $306 $-1 #
edge $-1 $307 -40.520776639859719 $213 -24.382065356155579 $207 $308 forward 7 unknown #
coedge $-1 $309 $204 $126 $210 forward $200 $-1 #
edge $-1 $212 24.382065356155579 $310 40.520776639859719 $209 $311 forward 7 unknown #
coedge $-1 $127 $203 $304 $312 reversed $77 $-1 #
vertex $-1 $210 $313 #
vertex $-1 $208 $314 #
straight-curve $-1 -56.833486354163227 0 -10.889463177317394 0 1 0 I I #
face $-1 $-1 $227 $29 $-1 $315 forward single #
loop $-1 $-1 $316 $129 #
plane-surface $-1 0 36.529302671412538 0 0 -1 0 0 0 -1 forward_v I I I I #
coedge $-1 $317 $318 $220 $319 forward $130 $-1 #
coedge $-1 $320 $132 $134 $225 forward $81 $-1 #
coedge $-1 $132 $320 $218 $319 reversed $81 $-1 #
coedge $-1 $321 $135 $132 $222 forward $227 $-1 #
edge $-1 $229 11.969415205915126 $322 44.658326689939869 $221 $323 forward 7 unknown #
coedge $-1 $324 $316 $133 $224 forward $216 $-1 #
edge $-1 $325 -64.785332506914756 $228 -54.465611654098304 $223 $326 forward 7 unknown #
edge $-1 $229 61.259510629306178 $325 73.058605342825075 $134 $327 forward 7 unknown #
coedge $-1 $135 $321 $324 $328 forward $227 $-1 #
loop $-1 $-1 $221 $215 #
vertex $-1 $224 $329 #
vertex $-1 $136 $330 #
straight-curve $-1 40.283286153842624 64.377817165975443 15.402797248124763 0 -1 0 I I #
coedge $-1 $231 $231 $-1 $331 reversed $139 $-1 #
edge $-1 $332 0 $332 6.2831853071796004 $140 $333 forward 7 unknown #
vertex $-1 $143 $334 #
ellipse-curve $-1 46.821068450647573 33.669145438910498 10.242936821716546 0 0.87461971476443456 0.48480960649040278 2 0 0 1 I I #
coedge $-1 $235 $235 $-1 $335 reversed $146 $-1 #
edge $-1 $336 0 $336 6.2831853071796004 $147 $337 forward 7 unknown #
vertex $-1 $150 $338 #
ellipse-curve $-1 56.627741895854996 33.669145438910498 10.242936821716546 0 0.87461971476443456 0.48480960649040278 2 0 0 1 I I #
coedge $-1 $239 $239 $-1 $339 reversed $153 $-1 #
edge $-1 $340 0 $340 6.2831853071796004 $154 $341 forward 7 unknown #
vertex $-1 $157 $342 #
ellipse-curve $-1 66.434415341062419 33.669145438910498 10.242936821716546 0 0.87461971476443456 0.48480960649040278 2 0 0 1 I I #
face $-1 $-1 $343 $33 $-1 $344 reversed single #
loop $-1 $-1 $164 $158 #
plane-surface $-1 0 0 15.402797248124765 0 0 1 1 0 0 forward_v I I I I #
coedge $-1 $345 $346 $347 $348 reversed $159 $-1 #
coedge $-1 $349 $161 $163 $253 forward $100 $-1 #
coedge $-1 $161 $349 $345 $350 forward $100 $-1 #
coedge $-1 $347 $164 $161 $250 forward $244 $-1 #
edge $-1 $256 -18.215801172556219 $351 12.628647087289032 $249 $352 forward 7 unknown #
coedge $-1 $353 $354 $162 $252 forward $343 $-1 #
edge $-1 $355 -31.025642105292594 $255 -26.543756329163934 $251 $356 forward 7 unknown #
edge $-1 $256 -5.1752358724267165 $355 -2.8642609447069912e-014 $163 $357 forward 7 unknown #
coedge $-1 $164 $347 $353 $358 forward $244 $-1 #
vertex $-1 $252 $359 #
vertex $-1 $165 $360 #
straight-curve $-1 21.009378215189813 -81.460428824520676 15.402797248124763 0 1 0 I I #
coedge $-1 $258 $258 $-1 $361 reversed $168 $-1 #
edge $-1 $362 0 $362 6.2831853071796004 $169 $363 forward 7 unknown #
vertex $-1 $172 $364 #
ellipse-curve $-1 -1.0223705418425055 -35.235493737973407 13.161854360060431 0 -0.86602541151947299 0.49999998660252726 1 0 0 1 I I #
coedge $-1 $262 $262 $-1 $365 reversed $175 $-1 #
edge $-1 $366 0 $366 6.2831853071796004 $176 $367 forward 7 unknown #
vertex $-1 $179 $368 #
ellipse-curve $-1 12.196678712376894 -35.235493737973407 13.161854360060431 0 -0.86602541151947299 0.49999998660252726 1 0 0 1 I I #
face $-1 $-1 $195 $27 $-1 $369 reversed single #
loop $-1 $-1 $282 $180 #
plane-surface $-1 0 36.529302671412538 0 0 -1 0 0 0 -1 forward_v I I I I #
coedge $-1 $370 $280 $283 $371 forward $181 $-1 #
coedge $-1 $286 $183 $184 $274 reversed $114 $-1 #
coedge $-1 $280 $370 $183 $272 reversed $181 $-1 #
edge $-1 $287 -15.402797248124765 $372 15.402797248124765 $271 $373 forward 7 unknown #
coedge $-1 $185 $184 $370 $374 forward $73 $-1 #
edge $-1 $278 -72.972197637867367 $372 72.972197637867367 $270 $375 forward 7 unknown #
coedge $-1 $283 $282 $185 $276 reversed $267 $-1 #
edge $-1 $376 -72.972197637867367 $277 72.972197637867367 $275 $377 forward 7 unknown #
vertex $-1 $187 $378 #
vertex $-1 $289 $379 #
straight-curve $-1 72.972197637867367 0 -15.402797248124765 0 -1 0 I I #
coedge $-1 $269 $271 $188 $281 reversed $181 $-1 #
edge $-1 $284 -36.529302671412538 $287 36.529302671412538 $280 $380 forward 7 unknown #
coedge $-1 $275 $189 $194 $290 forward $267 $-1 #
coedge $-1 $189 $275 $269 $371 reversed $267 $-1 #
vertex $-1 $190 $381 #
straight-curve $-1 0 36.529302671412538 15.402797248124765 -1 0 0 I I #
coedge $-1 $191 $270 $193 $289 reversed $114 $-1 #
vertex $-1 $281 $382 #
straight-curve $-1 0 -36.529302671412538 15.402797248124765 1 0 0 I I #
edge $-1 $196 -15.402797248124765 $278 15.402797248124765 $193 $383 forward 7 unknown #
edge $-1 $197 -15.402797248124765 $277 15.402797248124765 $194 $384 forward 7 unknown #
point $-1 72.972197637867367 -36.529302671412538 15.402797248124765 #
point $-1 72.972197637867367 36.529302671412538 15.402797248124765 #
face $-1 $-1 $306 $28 $-1 $385 reversed single #
loop $-1 $-1 $302 $199 #
plane-surface $-1 -72.972197637867367 0 0 1 0 0 0 0 -1 forward_v I I I I #
coedge $-1 $386 $202 $299 $387 forward $122 $-1 #
coedge $-1 $202 $386 $388 $389 forward $122 $-1 #
edge $-1 $390 -36.529302671412538 $300 36.529302671412538 $202 $391 forward 7 unknown #
coedge $-1 $204 $309 $296 $387 reversed $200 $-1 #
vertex $-1 $387 $392 #
straight-curve $-1 -56.833486354163227 -36.529302671412538 -6.5730651063605396 0 0 1 I I #
coedge $-1 $393 $394 $206 $303 forward $294 $-1 #
edge $-1 $310 -36.529302671412538 $307 36.529302671412538 $302 $395 forward 7 unknown #
coedge $-1 $388 $207 $211 $312 forward $306 $-1 #
coedge $-1 $207 $388 $393 $396 reversed $306 $-1 #
loop $-1 $-1 $304 $293 #
vertex $-1 $396 $397 #
straight-curve $-1 -32.451420998007649 36.529302671412538 -10.889463177317394 1 0 0 I I #
coedge $-1 $299 $209 $394 $398 forward $200 $-1 #
vertex $-1 $398 $399 #
straight-curve $-1 -32.451420998007649 -36.529302671412538 -10.889463177317394 -1 0 0 I I #
edge $-1 $213 4.3163980709568541 $390 8.8297321417642252 $304 $400 forward 7 unknown #
point $-1 -56.833486354163227 -36.529302671412538 -10.889463177317394 #
point $-1 -56.833486354163227 36.529302671412538 -10.889463177317394 #
plane-surface $-1 0 0 15.402797248124765 0 0 1 1 0 0 forward_v I I I I #
coedge $-1 $223 $401 $320 $402 forward $216 $-1 #
coedge $-1 $318 $218 $401 $403 reversed $130 $-1 #
coedge $-1 $218 $317 $321 $404 reversed $130 $-1 #
edge $-1 $322 31.362206971146612 $405 43.16130168466551 $218 $406 forward 7 unknown #
coedge $-1 $220 $219 $316 $402 reversed $81 $-1 #
coedge $-1 $226 $221 $318 $404 forward $227 $-1 #
vertex $-1 $404 $407 #
straight-curve $-1 28.313870947927498 30.808988206408451 15.40279724812477 1 0 0 I I #
coedge $-1 $401 $223 $226 $328 reversed $216 $-1 #
vertex $-1 $224 $408 #
straight-curve $-1 40.283286153842624 36.529302671412538 69.868408902223067 0 0 1 I I #
straight-curve $-1 40.283286153842624 1.1097889644198773 68.981572961337378 0 0.48480960649040278 -0.87461971476443456 I I #
edge $-1 $409 -72.972197637867367 $228 -40.283286153842624 $324 $410 forward 7 unknown #
point $-1 40.283286153842624 36.529302671412538 15.402797248124765 #
point $-1 40.283286153842624 30.808988206408451 15.402797248124763 #
edge $-1 $411 1 $411 0 $231 $-1 forward 7 unknown #
vertex $-1 $232 $412 #
ellipse-curve $-1 46.821068450647573 27.34066442408065 6.7350026433656822 0 0.87461971476443456 0.48480960649040278 2 0 0 1 I I #
point $-1 48.821068450647573 33.66914543891049 10.24293682171654 #
edge $-1 $413 1 $413 0 $235 $-1 forward 7 unknown #
vertex $-1 $236 $414 #
ellipse-curve $-1 56.627741895854996 27.34066442408065 6.7350026433656822 0 0.87461971476443456 0.48480960649040278 2 0 0 1 I I #
point $-1 58.627741895854996 33.66914543891049 10.24293682171654 #
edge $-1 $415 1 $415 0 $239 $-1 forward 7 unknown #
vertex $-1 $240 $416 #
ellipse-curve $-1 66.434415341062419 27.34066442408065 6.7350026433656822 0 0.87461971476443456 0.48480960649040278 2 0 0 1 I I #
point $-1 68.434415341062419 33.66914543891049 10.24293682171654 #
loop $-1 $-1 $251 $243 #
plane-surface $-1 0 -36.529302671412538 0 0 1 0 0 0 1 forward_v I I I I #
coedge $-1 $346 $246 $248 $350 reversed $159 $-1 #
coedge $-1 $246 $345 $417 $418 reversed $159 $-1 #
coedge $-1 $254 $249 $246 $348 forward $244 $-1 #
edge $-1 $351 -47.5187440199864 $419 -44.931126153108139 $347 $420 forward 7 unknown #
coedge $-1 $248 $247 $354 $421 reversed $100 $-1 #
edge $-1 $422 2.8642609447069912e-014 $351 5.1752358724267165 $345 $423 forward 7 unknown #
vertex $-1 $250 $424 #
straight-curve $-1 2.7935770426335935 -33.941684804534276 15.402797248124765 -1 0 0 I I #
coedge $-1 $417 $251 $254 $358 reversed $343 $-1 #
coedge $-1 $251 $417 $349 $421 forward $343 $-1 #
vertex $-1 $252 $425 #
straight-curve $-1 21.009378215189813 -36.529302671412538 41.946553577288697 0 0 1 I I #
straight-curve $-1 21.009378215189813 -36.529302671412552 10.920911471996078 0 -0.49999998660252726 -0.86602541151947299 I I #
edge $-1 $419 -9.8350700446554384 $255 21.009378215189813 $353 $426 forward 7 unknown #
point $-1 21.009378215189813 -36.529302671412538 15.402797248124765 #
point $-1 21.009378215189813 -33.941684804534276 15.402797248124765 #
edge $-1 $427 1 $427 0 $258 $-1 forward 7 unknown #
vertex $-1 $259 $428 #
ellipse-curve $-1 -1.0223705418425055 -33.443685126444649 12.127353212817216 0 -0.86602541151947299 0.49999998660252726 1 0 0 1 I I #
point $-1 -0.022370541842505531 -35.2354937379734 13.161854360060426 #
edge $-1 $429 1 $429 0 $262 $-1 forward 7 unknown #
vertex $-1 $263 $430 #
ellipse-curve $-1 12.196678712376894 -33.443685126444649 12.127353212817216 0 -0.86602541151947299 0.49999998660252726 1 0 0 1 I I #
point $-1 13.196678712376894 -35.2354937379734 13.161854360060426 #
plane-surface $-1 72.972197637867367 0 0 -1 0 0 0 0 1 forward_v I I I I #
coedge $-1 $271 $269 $273 $374 reversed $181 $-1 #
edge $-1 $284 -15.402797248124765 $376 15.402797248124765 $283 $431 forward 7 unknown #
vertex $-1 $374 $432 #
straight-curve $-1 -72.972197637867367 -36.529302671412538 0 0 0 -1 I I #
edge $-1 $372 -36.529302671412538 $376 36.529302671412538 $370 $433 forward 7 unknown #
straight-curve $-1 0 -36.529302671412538 -15.402797248124765 -1 0 0 I I #
vertex $-1 $276 $434 #
straight-curve $-1 0 36.529302671412538 -15.402797248124765 1 0 0 I I #
point $-1 72.972197637867367 36.529302671412538 -15.402797248124765 #
point $-1 72.972197637867367 -36.529302671412538 -15.402797248124765 #
straight-curve $-1 -72.972197637867367 0 15.402797248124765 0 -1 0 I I #
point $-1 -72.972197637867367 36.529302671412538 15.402797248124765 #
point $-1 -72.972197637867367 -36.529302671412538 15.402797248124765 #
straight-curve $-1 72.972197637867367 -36.529302671412538 0 0 0 -1 I I #
straight-curve $-1 72.972197637867367 36.529302671412538 0 0 0 -1 I I #
plane-surface $-1 0 36.529302671412538 0 0 -1 0 0 0 -1 forward_v I I I I #
coedge $-1 $297 $296 $435 $436 forward $122 $-1 #
edge $-1 $300 56.833486354163227 $437 72.972197637867367 $299 $438 forward 7 unknown #
coedge $-1 $305 $304 $297 $389 reversed $306 $-1 #
edge $-1 $439 -72.972197637867367 $390 -56.833486354163227 $388 $440 forward 7 unknown #
vertex $-1 $312 $441 #
straight-curve $-1 -56.833486354163227 0 -15.402797248124765 0 -1 0 I I #
point $-1 -56.833486354163227 -36.529302671412538 -15.402797248124765 #
coedge $-1 $435 $302 $305 $396 forward $294 $-1 #
coedge $-1 $302 $435 $309 $398 reversed $294 $-1 #
straight-curve $-1 -72.972197637867367 0 -10.889463177317394 0 1 0 I I #
edge $-1 $307 10.889463177317394 $439 15.402797248124765 $305 $442 forward 7 unknown #
point $-1 -72.972197637867367 36.529302671412538 -10.889463177317394 #
edge $-1 $310 10.889463177317394 $437 15.402797248124765 $394 $443 forward 7 unknown #
point $-1 -72.972197637867367 -36.529302671412538 -10.889463177317394 #
straight-curve $-1 -56.833486354163227 36.529302671412538 -6.5730651063605396 0 0 -1 I I #
coedge $-1 $316 $324 $317 $403 forward $216 $-1 #
edge $-1 $405 -44.658326689939869 $325 -11.969415205915126 $316 $444 forward 7 unknown #
edge $-1 $409 -15.402797248124765 $405 -5.0830763953083178 $317 $445 forward 7 unknown #
edge $-1 $322 30.808988206408451 $409 36.529302671412538 $318 $446 forward 7 unknown #
vertex $-1 $319 $447 #
straight-curve $-1 72.972197637867367 15.604288986056298 42.832801763612174 0 0.48480960649040278 -0.87461971476443456 I I #
point $-1 72.972197637867367 30.808988206408451 15.402797248124763 #
point $-1 40.283286153842624 36.529302671412538 5.0830763953083178 #
vertex $-1 $404 $448 #
straight-curve $-1 0 36.529302671412538 15.402797248124765 -1 0 0 I I #
vertex $-1 $331 $449 #
point $-1 48.821068450647573 27.34066442408065 6.7350026433656822 #
vertex $-1 $335 $450 #
point $-1 58.627741895854996 27.34066442408065 6.7350026433656822 #
vertex $-1 $339 $451 #
point $-1 68.434415341062419 27.34066442408065 6.7350026433656822 #
coedge $-1 $354 $353 $346 $418 forward $343 $-1 #
edge $-1 $419 26.543756329163934 $422 31.025642105292594 $417 $452 forward 7 unknown #
vertex $-1 $358 $453 #
straight-curve $-1 -9.8350700446554384 -81.460428824520676 15.402797248124763 0 -1 0 I I #
edge $-1 $422 -12.628647087289032 $355 18.215801172556219 $354 $454 forward 7 unknown #
vertex $-1 $421 $455 #
straight-curve $-1 -9.8350700446554384 -36.529302671412552 10.920911471996078 0 0.49999998660252726 0.86602541151947299 I I #
point $-1 -9.8350700446554384 -33.941684804534276 15.402797248124765 #
point $-1 21.009378215189813 -36.529302671412538 10.920911471996103 #
straight-curve $-1 0 -36.529302671412538 15.402797248124765 1 0 0 I I #
vertex $-1 $361 $456 #
point $-1 -0.022370541842505531 -33.443685126444649 12.127353212817216 #
vertex $-1 $365 $457 #
point $-1 13.196678712376894 -33.443685126444649 12.127353212817216 #
straight-curve $-1 -72.972197637867367 36.529302671412538 0 0 0 -1 I I #
point $-1 -72.972197637867367 -36.529302671412538 -15.402797248124765 #
straight-curve $-1 -72.972197637867367 0 -15.402797248124765 0 1 0 I I #
point $-1 -72.972197637867367 36.529302671412538 -15.402797248124765 #
coedge $-1 $394 $393 $386 $436 reversed $294 $-1 #
edge $-1 $437 -36.529302671412538 $439 36.529302671412538 $435 $458 forward 7 unknown #
vertex $-1 $436 $459 #
straight-curve $-1 0 -36.529302671412538 -15.402797248124765 -1 0 0 I I #
vertex $-1 $389 $460 #
straight-curve $-1 0 36.529302671412538 -15.402797248124765 1 0 0 I I #
point $-1 -56.833486354163227 36.529302671412538 -15.402797248124765 #
straight-curve $-1 -72.972197637867367 36.529302671412538 0 0 0 -1 I I #
straight-curve $-1 -72.972197637867367 -36.529302671412538 0 0 0 -1 I I #
straight-curve $-1 28.313870947927498 36.529302671412538 5.0830763953083213 -1 0 0 I I #
straight-curve $-1 72.972197637867367 36.529302671412538 0 0 0 -1 I I #
straight-curve $-1 72.972197637867367 0 15.402797248124765 0 1 0 I I #
point $-1 72.972197637867367 36.529302671412538 5.0830763953083178 #
point $-1 72.972197637867367 36.529302671412538 15.402797248124765 #
point $-1 46.821068450647573 25.59142499455178 5.7653834303848761 #
point $-1 56.627741895854996 25.59142499455178 5.7653834303848761 #
point $-1 66.434415341062419 25.59142499455178 5.7653834303848761 #
straight-curve $-1 -9.8350700446554384 -36.529302671412538 41.946553577288697 0 0 -1 I I #
point $-1 -9.8350700446554384 -36.529302671412538 15.402797248124765 #
straight-curve $-1 2.7935770426335935 -36.529302671412538 10.920911471996099 1 0 0 I I #
point $-1 -9.8350700446554384 -36.529302671412538 10.920911471996103 #
point $-1 -1.0223705418425055 -32.577659714925176 11.627353226214687 #
point $-1 12.196678712376894 -32.577659714925176 11.627353226214687 #
straight-curve $-1 -72.972197637867367 0 -15.402797248124765 0 1 0 I I #
point $-1 -72.972197637867367 -36.529302671412538 -15.402797248124765 #
point $-1 -72.972197637867367 36.529302671412538 -15.402797248124765 #
End-of-ACIS-data 