500 0 19 0           
7 Unknown 11 ACIS 5.0 NT 24 Thu Mar 25 21:06:27 1999 
-1 9.9999999999999995e-007 1e-010 
body $-1 $19 $-1 $20 #
body $-1 $21 $-1 $22 #
body $-1 $23 $-1 $24 #
body $-1 $25 $-1 $26 #
body $-1 $27 $-1 $28 #
body $-1 $29 $-1 $30 #
body $-1 $31 $-1 $32 #
body $-1 $33 $-1 $34 #
body $-1 $35 $-1 $36 #
body $-1 $37 $-1 $38 #
body $-1 $39 $-1 $40 #
body $-1 $41 $-1 $42 #
body $-1 $43 $-1 $44 #
body $-1 $45 $-1 $46 #
body $-1 $47 $-1 $48 #
body $-1 $49 $-1 $50 #
body $-1 $51 $-1 $52 #
body $-1 $53 $-1 $54 #
body $-1 $55 $-1 $56 #
lump $-1 $-1 $57 $0 #
transform $-1 1 0 0 0 1 0 0 0 1 44.948881496627706 24.6060386046208 5.6729733768305861 1 rotate no_reflect no_shear #
lump $-1 $-1 $58 $1 #
transform $-1 1 0 0 0 1 0 0 0 1 44.948881496627706 24.6060386046208 5.6729733768305861 1 rotate no_reflect no_shear #
lump $-1 $-1 $59 $2 #
transform $-1 1 0 0 0 1 0 0 0 1 44.948881496627706 24.6060386046208 5.6729733768305861 1 rotate no_reflect no_shear #
lump $-1 $-1 $60 $3 #
transform $-1 1 0 0 0 1 0 0 0 1 44.948881496627706 24.6060386046208 5.6729733768305861 1 rotate no_reflect no_shear #
lump $-1 $-1 $61 $4 #
transform $-1 1 0 0 0 1 0 0 0 1 44.948881496627706 24.6060386046208 5.6729733768305861 1 rotate no_reflect no_shear #
lump $-1 $-1 $62 $5 #
transform $-1 1 0 0 0 1 0 0 0 1 44.948881496627706 24.6060386046208 5.6729733768305861 1 rotate no_reflect no_shear #
lump $-1 $-1 $63 $6 #
transform $-1 1 0 0 0 1 0 0 0 1 44.948881496627706 24.6060386046208 5.6729733768305861 1 rotate no_reflect no_shear #
lump $-1 $-1 $64 $7 #
transform $-1 1 0 0 0 1 0 0 0 1 44.948881496627706 24.6060386046208 5.6729733768305861 1 rotate no_reflect no_shear #
lump $-1 $-1 $65 $8 #
transform $-1 1 0 0 0 1 0 0 0 1 44.948881496627706 24.6060386046208 5.6729733768305861 1 rotate no_reflect no_shear #
lump $-1 $-1 $66 $9 #
transform $-1 1 0 0 0 1 0 0 0 1 44.948881496627706 24.6060386046208 5.6729733768305861 1 rotate no_reflect no_shear #
lump $-1 $-1 $67 $10 #
transform $-1 1 0 0 0 1 0 0 0 1 44.948881496627706 24.6060386046208 5.6729733768305861 1 rotate no_reflect no_shear #
lump $-1 $-1 $68 $11 #
transform $-1 1 0 0 0 1 0 0 0 1 44.948881496627706 24.6060386046208 5.6729733768305861 1 rotate no_reflect no_shear #
lump $-1 $-1 $69 $12 #
transform $-1 1 0 0 0 1 0 0 0 1 44.948881496627706 24.6060386046208 5.6729733768305861 1 rotate no_reflect no_shear #
lump $-1 $-1 $70 $13 #
transform $-1 1 0 0 0 1 0 0 0 1 44.948881496627706 24.6060386046208 5.6729733768305861 1 rotate no_reflect no_shear #
lump $-1 $-1 $71 $14 #
transform $-1 1 0 0 0 1 0 0 0 1 44.948881496627706 24.6060386046208 5.6729733768305861 1 rotate no_reflect no_shear #
lump $-1 $-1 $72 $15 #
transform $-1 1 0 0 0 1 0 0 0 1 44.948881496627706 24.6060386046208 5.6729733768305861 1 rotate no_reflect no_shear #
lump $-1 $-1 $73 $16 #
transform $-1 1 0 0 0 1 0 0 0 1 44.948881496627706 24.6060386046208 5.6729733768305861 1 rotate no_reflect no_shear #
lump $-1 $-1 $74 $17 #
transform $-1 1 0 0 0 1 0 0 0 1 44.948881496627706 24.6060386046208 5.6729733768305861 1 rotate no_reflect no_shear #
lump $-1 $-1 $75 $18 #
transform $-1 1 0 0 0 1 0 0 0 1 44.948881496627706 24.6060386046208 5.6729733768305861 1 rotate no_reflect no_shear #
shell $-1 $-1 $-1 $76 $-1 $19 #
shell $-1 $-1 $-1 $77 $-1 $21 #
shell $-1 $-1 $-1 $78 $-1 $23 #
shell $-1 $-1 $-1 $79 $-1 $25 #
shell $-1 $-1 $-1 $80 $-1 $27 #
shell $-1 $-1 $-1 $81 $-1 $29 #
shell $-1 $-1 $-1 $82 $-1 $31 #
shell $-1 $-1 $-1 $83 $-1 $33 #
shell $-1 $-1 $-1 $84 $-1 $35 #
shell $-1 $-1 $-1 $85 $-1 $37 #
shell $-1 $-1 $-1 $86 $-1 $39 #
shell $-1 $-1 $-1 $87 $-1 $41 #
shell $-1 $-1 $-1 $88 $-1 $43 #
shell $-1 $-1 $-1 $89 $-1 $45 #
shell $-1 $-1 $-1 $90 $-1 $47 #
shell $-1 $-1 $-1 $91 $-1 $49 #
shell $-1 $-1 $-1 $92 $-1 $51 #
shell $-1 $-1 $-1 $93 $-1 $53 #
shell $-1 $-1 $-1 $94 $-1 $55 #
face $-1 $95 $96 $57 $-1 $97 forward single #
face $-1 $98 $99 $58 $-1 $100 forward single #
face $-1 $101 $102 $59 $-1 $103 forward single #
face $-1 $104 $105 $60 $-1 $106 reversed single #
face $-1 $107 $108 $61 $-1 $109 forward single #
face $-1 $110 $111 $62 $-1 $112 forward single #
face $-1 $113 $114 $63 $-1 $115 forward single #
face $-1 $116 $117 $64 $-1 $118 reversed single #
face $-1 $119 $120 $65 $-1 $121 forward single #
face $-1 $122 $123 $66 $-1 $124 forward single #
face $-1 $125 $126 $67 $-1 $127 forward single #
face $-1 $128 $129 $68 $-1 $130 reversed single #
face $-1 $131 $132 $69 $-1 $133 forward single #
face $-1 $134 $135 $70 $-1 $136 forward single #
face $-1 $137 $138 $71 $-1 $139 forward single #
face $-1 $140 $141 $72 $-1 $142 reversed single #
face $-1 $143 $144 $73 $-1 $145 forward single #
face $-1 $146 $147 $74 $-1 $148 forward single #
face $-1 $149 $150 $75 $-1 $151 forward single #
face $-1 $152 $153 $57 $-1 $154 reversed single #
loop $-1 $-1 $155 $76 #
plane-surface $-1 0 0 5.6729733768305861 0 0 1 1 0 0 forward_v I I I I #
face $-1 $156 $157 $58 $-1 $158 reversed single #
loop $-1 $-1 $159 $77 #
plane-surface $-1 -42.367949559702389 0 -2.4709904850452249 0 0 1 1 0 0 forward_v I I I I #
face $-1 $160 $161 $59 $-1 $162 reversed single #
loop $-1 $-1 $163 $78 #
plane-surface $-1 42.367949559702396 0 -2.4709904850452249 0 0 1 1 0 0 forward_v I I I I #
face $-1 $164 $165 $60 $-1 $166 reversed single #
loop $-1 $-1 $167 $79 #
plane-surface $-1 -29.481797163429036 -103.23239443174259 45.509043981856429 1 0 0 0 0.87461971476443456 -0.48480960649040278 forward_v I I I I #
face $-1 $168 $169 $61 $-1 $170 forward single #
loop $-1 $171 $172 $80 #
cone-surface $-1 -26.083453778268016 -22.844682199974276 3.3987072737379096 0 0.87461971476443456 -0.48480960649040278 0.5 0 0 1 I I 0 1 0.5 forward I I I I #
face $-1 $173 $174 $62 $-1 $175 forward single #
loop $-1 $176 $177 $81 #
cone-surface $-1 -20.985938700526489 -22.844682199974276 3.3987072737379096 0 0.87461971476443456 -0.48480960649040278 0.5 0 0 1 I I 0 1 0.5 forward I I I I #
face $-1 $178 $179 $63 $-1 $180 forward single #
loop $-1 $181 $182 $82 #
cone-surface $-1 -15.888423622784963 -22.844682199974276 3.3987072737379096 0 0.87461971476443456 -0.48480960649040278 0.5 0 0 1 I I 0 1 0.5 forward I I I I #
face $-1 $183 $184 $64 $-1 $185 reversed single #
loop $-1 $-1 $186 $83 #
plane-surface $-1 10.305220459348035 -103.23239443174259 45.509043981856429 1 0 0 0 0.87461971476443456 -0.48480960649040278 forward_v I I I I #
face $-1 $187 $188 $65 $-1 $189 forward single #
loop $-1 $190 $191 $84 #
cone-surface $-1 13.703563844509056 -22.844682199974276 3.3987072737379096 0 0.87461971476443456 -0.48480960649040278 0.5 0 0 1 I I 0 1 0.5 forward I I I I #
face $-1 $192 $193 $66 $-1 $194 forward single #
loop $-1 $195 $196 $85 #
cone-surface $-1 18.801078922250582 -22.844682199974276 3.3987072737379096 0 0.87461971476443456 -0.48480960649040278 0.5 0 0 1 I I 0 1 0.5 forward I I I I #
face $-1 $197 $198 $67 $-1 $199 forward single #
loop $-1 $200 $201 $86 #
cone-surface $-1 23.898593999992102 -22.844682199974276 3.3987072737379096 0 0.87461971476443456 -0.48480960649040278 0.5 0 0 1 I I 0 1 0.5 forward I I I I #
face $-1 $202 $203 $68 $-1 $204 reversed single #
loop $-1 $-1 $205 $87 #
plane-surface $-1 -12.490080237623943 79.37390664535485 88.55089691356865 -1 0 0 0 0.87461971476443456 0.48480960649040278 forward_v I I I I #
face $-1 $206 $207 $69 $-1 $208 forward single #
loop $-1 $209 $210 $88 #
cone-surface $-1 -26.083453778268016 22.844682199974276 3.3987072737379167 0 -0.87461971476443456 -0.48480960649040278 0.5 0 0 1 I I 0 1 0.5 forward I I I I #
face $-1 $211 $212 $70 $-1 $213 forward single #
loop $-1 $214 $215 $89 #
cone-surface $-1 -20.985938700526489 22.844682199974276 3.3987072737379167 0 -0.87461971476443456 -0.48480960649040278 0.5 0 0 1 I I 0 1 0.5 forward I I I I #
face $-1 $216 $217 $71 $-1 $218 forward single #
loop $-1 $219 $220 $90 #
cone-surface $-1 -15.888423622784963 22.844682199974276 3.3987072737379167 0 -0.87461971476443456 -0.48480960649040278 0.5 0 0 1 I I 0 1 0.5 forward I I I I #
face $-1 $221 $222 $72 $-1 $223 reversed single #
loop $-1 $-1 $224 $91 #
plane-surface $-1 27.296937385153129 79.37390664535485 88.55089691356865 -1 0 0 0 0.87461971476443456 0.48480960649040278 forward_v I I I I #
face $-1 $225 $226 $73 $-1 $227 forward single #
loop $-1 $228 $229 $92 #
cone-surface $-1 13.703563844509056 22.844682199974276 3.3987072737379167 0 -0.87461971476443456 -0.48480960649040278 0.5 0 0 1 I I 0 1 0.5 forward I I I I #
face $-1 $230 $231 $74 $-1 $232 forward single #
loop $-1 $233 $234 $93 #
cone-surface $-1 18.801078922250582 22.844682199974276 3.3987072737379167 0 -0.87461971476443456 -0.48480960649040278 0.5 0 0 1 I I 0 1 0.5 forward I I I I #
face $-1 $235 $236 $75 $-1 $237 forward single #
loop $-1 $238 $239 $94 #
cone-surface $-1 23.898593999992102 22.844682199974276 3.3987072737379167 0 -0.87461971476443456 -0.48480960649040278 0.5 0 0 1 I I 0 1 0.5 forward I I I I #
face $-1 $240 $241 $57 $-1 $242 reversed single #
loop $-1 $-1 $243 $95 #
plane-surface $-1 0 0 -5.6729733768305861 0 0 1 1 0 0 forward_v I I I I #
coedge $-1 $244 $245 $246 $247 forward $96 $-1 #
face $-1 $248 $249 $58 $-1 $250 reversed single #
loop $-1 $-1 $251 $98 #
plane-surface $-1 -39.787017622777071 0 -4.0719819309379055 -1 0 0 0 0 1 forward_v I I I I #
coedge $-1 $252 $253 $254 $255 forward $99 $-1 #
face $-1 $256 $257 $59 $-1 $258 reversed single #
loop $-1 $-1 $259 $101 #
plane-surface $-1 39.787017622777078 0 -4.0719819309379055 1 0 0 0 0 -1 forward_v I I I I #
coedge $-1 $260 $261 $262 $263 reversed $102 $-1 #
face $-1 $264 $265 $60 $-1 $266 reversed single #
loop $-1 $-1 $267 $104 #
plane-surface $-1 -20.985938700526489 -24.606038604620807 1.9257448807287787 0 -0.87461971476443456 0.48480960649040278 1 0 0 forward_v I I I I #
coedge $-1 $268 $269 $270 $271 reversed $105 $-1 #
face $-1 $-1 $272 $61 $-1 $273 forward single #
loop $-1 $274 $275 $107 #
cone-surface $-1 -26.083453778268016 -21.903232164739812 2.8768530170735405 0 0.87461971476443456 -0.48480960649040278 0.25 0 0 1 I I -0.70710678118654746 0.70710678118654746 0.25 forward I I I I #
loop $-1 $-1 $276 $80 #
coedge $-1 $172 $172 $277 $278 reversed $108 $-1 #
face $-1 $-1 $279 $62 $-1 $280 forward single #
loop $-1 $281 $282 $110 #
cone-surface $-1 -20.985938700526489 -21.903232164739812 2.8768530170735405 0 0.87461971476443456 -0.48480960649040278 0.25 0 0 1 I I -0.70710678118654746 0.70710678118654746 0.25 forward I I I I #
loop $-1 $-1 $283 $81 #
coedge $-1 $177 $177 $284 $285 reversed $111 $-1 #
face $-1 $-1 $286 $63 $-1 $287 forward single #
loop $-1 $288 $289 $113 #
cone-surface $-1 -15.888423622784963 -21.903232164739812 2.8768530170735405 0 0.87461971476443456 -0.48480960649040278 0.25 0 0 1 I I -0.70710678118654746 0.70710678118654746 0.25 forward I I I I #
loop $-1 $-1 $290 $82 #
coedge $-1 $182 $182 $291 $292 reversed $114 $-1 #
face $-1 $293 $294 $64 $-1 $295 reversed single #
loop $-1 $-1 $296 $116 #
plane-surface $-1 18.801078922250582 -24.606038604620807 1.9257448807287787 0 -0.87461971476443456 0.48480960649040278 1 0 0 forward_v I I I I #
coedge $-1 $297 $298 $299 $300 reversed $117 $-1 #
face $-1 $-1 $301 $65 $-1 $302 forward single #
loop $-1 $303 $304 $119 #
cone-surface $-1 13.703563844509056 -21.903232164739812 2.8768530170735405 0 0.87461971476443456 -0.48480960649040278 0.25 0 0 1 I I -0.70710678118654746 0.70710678118654746 0.25 forward I I I I #
loop $-1 $-1 $305 $84 #
coedge $-1 $191 $191 $306 $307 reversed $120 $-1 #
face $-1 $-1 $308 $66 $-1 $309 forward single #
loop $-1 $310 $311 $122 #
cone-surface $-1 18.801078922250582 -21.903232164739812 2.8768530170735405 0 0.87461971476443456 -0.48480960649040278 0.25 0 0 1 I I -0.70710678118654746 0.70710678118654746 0.25 forward I I I I #
loop $-1 $-1 $312 $85 #
coedge $-1 $196 $196 $313 $314 reversed $123 $-1 #
face $-1 $-1 $315 $67 $-1 $316 forward single #
loop $-1 $317 $318 $125 #
cone-surface $-1 23.898593999992102 -21.903232164739812 2.8768530170735405 0 0.87461971476443456 -0.48480960649040278 0.25 0 0 1 I I -0.70710678118654746 0.70710678118654746 0.25 forward I I I I #
loop $-1 $-1 $319 $86 #
coedge $-1 $201 $201 $320 $321 reversed $126 $-1 #
face $-1 $322 $323 $68 $-1 $324 reversed single #
loop $-1 $-1 $325 $128 #
plane-surface $-1 -20.985938700526489 0.74755081823306568 44.967597812440999 0 0.87461971476443456 0.48480960649040278 1 0 0 forward_v I I I I #
coedge $-1 $326 $327 $328 $329 reversed $129 $-1 #
face $-1 $-1 $330 $69 $-1 $331 forward single #
loop $-1 $332 $333 $131 #
cone-surface $-1 -26.083453778268016 21.903232164739812 2.8768530170735476 0 -0.87461971476443456 -0.48480960649040278 0.25 0 0 1 I I -0.70710678118654746 0.70710678118654746 0.25 forward I I I I #
loop $-1 $-1 $334 $88 #
coedge $-1 $210 $210 $335 $336 reversed $132 $-1 #
face $-1 $-1 $337 $70 $-1 $338 forward single #
loop $-1 $339 $340 $134 #
cone-surface $-1 -20.985938700526489 21.903232164739812 2.8768530170735476 0 -0.87461971476443456 -0.48480960649040278 0.25 0 0 1 I I -0.70710678118654746 0.70710678118654746 0.25 forward I I I I #
loop $-1 $-1 $341 $89 #
coedge $-1 $215 $215 $342 $343 reversed $135 $-1 #
face $-1 $-1 $344 $71 $-1 $345 forward single #
loop $-1 $346 $347 $137 #
cone-surface $-1 -15.888423622784963 21.903232164739812 2.8768530170735476 0 -0.87461971476443456 -0.48480960649040278 0.25 0 0 1 I I -0.70710678118654746 0.70710678118654746 0.25 forward I I I I #
loop $-1 $-1 $348 $90 #
coedge $-1 $220 $220 $349 $350 reversed $138 $-1 #
face $-1 $351 $352 $72 $-1 $353 reversed single #
loop $-1 $-1 $354 $140 #
plane-surface $-1 18.801078922250582 0.74755081823306568 44.967597812440999 0 0.87461971476443456 0.48480960649040278 1 0 0 forward_v I I I I #
coedge $-1 $355 $356 $357 $358 reversed $141 $-1 #
face $-1 $-1 $359 $73 $-1 $360 forward single #
loop $-1 $361 $362 $143 #
cone-surface $-1 13.703563844509056 21.903232164739812 2.8768530170735476 0 -0.87461971476443456 -0.48480960649040278 0.25 0 0 1 I I -0.70710678118654746 0.70710678118654746 0.25 forward I I I I #
loop $-1 $-1 $363 $92 #
coedge $-1 $229 $229 $364 $365 reversed $144 $-1 #
face $-1 $-1 $366 $74 $-1 $367 forward single #
loop $-1 $368 $369 $146 #
cone-surface $-1 18.801078922250582 21.903232164739812 2.8768530170735476 0 -0.87461971476443456 -0.48480960649040278 0.25 0 0 1 I I -0.70710678118654746 0.70710678118654746 0.25 forward I I I I #
loop $-1 $-1 $370 $93 #
coedge $-1 $234 $234 $371 $372 reversed $147 $-1 #
face $-1 $-1 $373 $75 $-1 $374 forward single #
loop $-1 $375 $376 $149 #
cone-surface $-1 23.898593999992102 21.903232164739812 2.8768530170735476 0 -0.87461971476443456 -0.48480960649040278 0.25 0 0 1 I I -0.70710678118654746 0.70710678118654746 0.25 forward I I I I #
loop $-1 $-1 $377 $94 #
coedge $-1 $239 $239 $378 $379 reversed $150 $-1 #
face $-1 $380 $381 $57 $-1 $382 reversed single #
loop $-1 $-1 $383 $152 #
plane-surface $-1 0 -24.6060386046208 0 0 1 0 0 0 1 forward_v I I I I #
coedge $-1 $384 $385 $386 $387 forward $153 $-1 #
coedge $-1 $388 $155 $389 $390 forward $96 $-1 #
coedge $-1 $155 $388 $391 $392 forward $96 $-1 #
coedge $-1 $393 $394 $155 $247 reversed $395 $-1 #
edge $-1 $396 -24.6060386046208 $397 24.6060386046208 $246 $398 forward 7 unknown #
face $-1 $399 $400 $58 $-1 $401 reversed single #
loop $-1 $-1 $402 $156 #
plane-surface $-1 0 0 -5.6729733768305861 0 0 1 1 0 0 forward_v I I I I #
coedge $-1 $403 $254 $404 $405 reversed $157 $-1 #
coedge $-1 $406 $159 $407 $408 reversed $99 $-1 #
coedge $-1 $159 $406 $409 $410 reversed $99 $-1 #
coedge $-1 $251 $411 $159 $255 reversed $157 $-1 #
edge $-1 $412 -24.6060386046208 $413 24.6060386046208 $254 $414 forward 7 unknown #
face $-1 $415 $416 $59 $-1 $417 reversed single #
loop $-1 $-1 $418 $160 #
plane-surface $-1 0 -24.6060386046208 0 0 1 0 0 0 1 forward_v I I I I #
coedge $-1 $419 $420 $421 $422 reversed $161 $-1 #
coedge $-1 $423 $163 $424 $425 reversed $102 $-1 #
coedge $-1 $163 $423 $418 $426 reversed $102 $-1 #
coedge $-1 $427 $428 $163 $263 forward $429 $-1 #
edge $-1 $430 -24.6060386046208 $431 24.6060386046208 $262 $432 forward 7 unknown #
face $-1 $433 $434 $60 $-1 $435 forward single #
loop $-1 $-1 $436 $164 #
plane-surface $-1 -12.490080237623943 -103.23239443174259 45.509043981856429 -1 0 0 0 -0.87461971476443456 0.48480960649040278 forward_v I I I I #
coedge $-1 $437 $438 $439 $440 reversed $165 $-1 #
coedge $-1 $269 $167 $441 $442 reversed $105 $-1 #
coedge $-1 $167 $268 $437 $443 reversed $105 $-1 #
coedge $-1 $439 $444 $167 $271 forward $445 $-1 #
edge $-1 $446 17.081548614097628 $447 20.828777110199422 $270 $448 forward 7 unknown #
loop $-1 $-1 $277 $168 #
plane-surface $-1 -20.985938700526489 -24.606038604620807 1.9257448807287787 0 -0.87461971476443456 0.48480960649040278 1 0 0 forward_v I I I I #
loop $-1 $-1 $449 $107 #
coedge $-1 $275 $275 $276 $450 reversed $169 $-1 #
coedge $-1 $276 $276 $275 $450 forward $171 $-1 #
coedge $-1 $277 $277 $172 $278 forward $272 $-1 #
edge $-1 $451 2.3569969427940541e-016 $451 6.2831853071796004 $277 $452 forward 7 unknown #
loop $-1 $-1 $284 $173 #
plane-surface $-1 -20.985938700526489 -24.606038604620807 1.9257448807287787 0 -0.87461971476443456 0.48480960649040278 1 0 0 forward_v I I I I #
loop $-1 $-1 $453 $110 #
coedge $-1 $282 $282 $283 $454 reversed $174 $-1 #
coedge $-1 $283 $283 $282 $454 forward $176 $-1 #
coedge $-1 $284 $284 $177 $285 forward $279 $-1 #
edge $-1 $455 2.3569969427940541e-016 $455 6.2831853071796004 $284 $456 forward 7 unknown #
loop $-1 $-1 $291 $178 #
plane-surface $-1 -20.985938700526489 -24.606038604620807 1.9257448807287787 0 -0.87461971476443456 0.48480960649040278 1 0 0 forward_v I I I I #
loop $-1 $-1 $457 $113 #
coedge $-1 $289 $289 $290 $458 reversed $179 $-1 #
coedge $-1 $290 $290 $289 $458 forward $181 $-1 #
coedge $-1 $291 $291 $182 $292 forward $286 $-1 #
edge $-1 $459 2.3569969427940541e-016 $459 6.2831853071796004 $291 $460 forward 7 unknown #
face $-1 $461 $462 $64 $-1 $463 reversed single #
loop $-1 $-1 $464 $183 #
plane-surface $-1 27.296937385153129 -103.23239443174259 45.509043981856429 -1 0 0 0 -0.87461971476443456 0.48480960649040278 forward_v I I I I #
coedge $-1 $465 $466 $467 $468 reversed $184 $-1 #
coedge $-1 $298 $186 $469 $470 reversed $117 $-1 #
coedge $-1 $186 $297 $465 $471 reversed $117 $-1 #
coedge $-1 $467 $472 $186 $300 forward $462 $-1 #
edge $-1 $473 17.081548614097628 $474 20.828777110199422 $299 $475 forward 7 unknown #
loop $-1 $-1 $306 $187 #
plane-surface $-1 18.801078922250582 -24.606038604620807 1.9257448807287787 0 -0.87461971476443456 0.48480960649040278 1 0 0 forward_v I I I I #
loop $-1 $-1 $476 $119 #
coedge $-1 $304 $304 $305 $477 reversed $188 $-1 #
coedge $-1 $305 $305 $304 $477 forward $190 $-1 #
coedge $-1 $306 $306 $191 $307 forward $301 $-1 #
edge $-1 $478 2.3569969427940541e-016 $478 6.2831853071796004 $306 $479 forward 7 unknown #
loop $-1 $-1 $313 $192 #
plane-surface $-1 18.801078922250582 -24.606038604620807 1.9257448807287787 0 -0.87461971476443456 0.48480960649040278 1 0 0 forward_v I I I I #
loop $-1 $-1 $480 $122 #
coedge $-1 $311 $311 $312 $481 reversed $193 $-1 #
coedge $-1 $312 $312 $311 $481 forward $195 $-1 #
coedge $-1 $313 $313 $196 $314 forward $308 $-1 #
edge $-1 $482 2.3569969427940541e-016 $482 6.2831853071796004 $313 $483 forward 7 unknown #
loop $-1 $-1 $320 $197 #
plane-surface $-1 18.801078922250582 -24.606038604620807 1.9257448807287787 0 -0.87461971476443456 0.48480960649040278 1 0 0 forward_v I I I I #
loop $-1 $-1 $484 $125 #
coedge $-1 $318 $318 $319 $485 reversed $198 $-1 #
coedge $-1 $319 $319 $318 $485 forward $200 $-1 #
coedge $-1 $320 $320 $201 $321 forward $315 $-1 #
edge $-1 $486 2.3569969427940541e-016 $486 6.2831853071796004 $320 $487 forward 7 unknown #
face $-1 $488 $489 $68 $-1 $490 reversed single #
loop $-1 $-1 $491 $202 #
plane-surface $-1 -29.481797163429036 79.37390664535485 88.55089691356865 1 0 0 0 -0.87461971476443456 -0.48480960649040278 forward_v I I I I #
coedge $-1 $492 $493 $494 $495 reversed $203 $-1 #
coedge $-1 $327 $205 $496 $497 reversed $129 $-1 #
coedge $-1 $205 $326 $492 $498 reversed $129 $-1 #
coedge $-1 $494 $499 $205 $329 forward $489 $-1 #
edge $-1 $500 38.602475079953741 $501 42.349703576055539 $328 $502 forward 7 unknown #
loop $-1 $-1 $335 $206 #
plane-surface $-1 -20.985938700526489 0.74755081823306568 44.967597812440999 0 0.87461971476443456 0.48480960649040278 1 0 0 forward_v I I I I #
loop $-1 $-1 $503 $131 #
coedge $-1 $333 $333 $334 $504 reversed $207 $-1 #
coedge $-1 $334 $334 $333 $504 forward $209 $-1 #
coedge $-1 $335 $335 $210 $336 forward $330 $-1 #
edge $-1 $505 1.2161306954036145e-015 $505 6.2831853071796013 $335 $506 forward 7 unknown #
loop $-1 $-1 $342 $211 #
plane-surface $-1 -20.985938700526489 0.74755081823306568 44.967597812440999 0 0.87461971476443456 0.48480960649040278 1 0 0 forward_v I I I I #
loop $-1 $-1 $507 $134 #
coedge $-1 $340 $340 $341 $508 reversed $212 $-1 #
coedge $-1 $341 $341 $340 $508 forward $214 $-1 #
coedge $-1 $342 $342 $215 $343 forward $337 $-1 #
edge $-1 $509 1.2161306954036145e-015 $509 6.2831853071796013 $342 $510 forward 7 unknown #
loop $-1 $-1 $349 $216 #
plane-surface $-1 -20.985938700526489 0.74755081823306568 44.967597812440999 0 0.87461971476443456 0.48480960649040278 1 0 0 forward_v I I I I #
loop $-1 $-1 $511 $137 #
coedge $-1 $347 $347 $348 $512 reversed $217 $-1 #
coedge $-1 $348 $348 $347 $512 forward $219 $-1 #
coedge $-1 $349 $349 $220 $350 forward $344 $-1 #
edge $-1 $513 1.2161306954036145e-015 $513 6.2831853071796013 $349 $514 forward 7 unknown #
face $-1 $515 $516 $72 $-1 $517 reversed single #
loop $-1 $-1 $518 $221 #
plane-surface $-1 10.305220459348035 79.37390664535485 88.55089691356865 1 0 0 0 -0.87461971476443456 -0.48480960649040278 forward_v I I I I #
coedge $-1 $519 $520 $521 $522 reversed $222 $-1 #
coedge $-1 $356 $224 $523 $524 reversed $141 $-1 #
coedge $-1 $224 $355 $519 $525 reversed $141 $-1 #
coedge $-1 $521 $526 $224 $358 forward $516 $-1 #
edge $-1 $527 38.602475079953741 $528 42.349703576055539 $357 $529 forward 7 unknown #
loop $-1 $-1 $364 $225 #
plane-surface $-1 18.801078922250582 0.74755081823306568 44.967597812440999 0 0.87461971476443456 0.48480960649040278 1 0 0 forward_v I I I I #
loop $-1 $-1 $530 $143 #
coedge $-1 $362 $362 $363 $531 reversed $226 $-1 #
coedge $-1 $363 $363 $362 $531 forward $228 $-1 #
coedge $-1 $364 $364 $229 $365 forward $359 $-1 #
edge $-1 $532 1.2161306954036145e-015 $532 6.2831853071796013 $364 $533 forward 7 unknown #
loop $-1 $-1 $371 $230 #
plane-surface $-1 18.801078922250582 0.74755081823306568 44.967597812440999 0 0.87461971476443456 0.48480960649040278 1 0 0 forward_v I I I I #
loop $-1 $-1 $534 $146 #
coedge $-1 $369 $369 $370 $535 reversed $231 $-1 #
coedge $-1 $370 $370 $369 $535 forward $233 $-1 #
coedge $-1 $371 $371 $234 $372 forward $366 $-1 #
edge $-1 $536 1.2161306954036145e-015 $536 6.2831853071796013 $371 $537 forward 7 unknown #
loop $-1 $-1 $378 $235 #
plane-surface $-1 18.801078922250582 0.74755081823306568 44.967597812440999 0 0.87461971476443456 0.48480960649040278 1 0 0 forward_v I I I I #
loop $-1 $-1 $538 $149 #
coedge $-1 $376 $376 $377 $539 reversed $236 $-1 #
coedge $-1 $377 $377 $376 $539 forward $238 $-1 #
coedge $-1 $378 $378 $239 $379 forward $373 $-1 #
edge $-1 $540 1.2161306954036145e-015 $540 6.2831853071796013 $378 $541 forward 7 unknown #
face $-1 $542 $543 $57 $-1 $544 reversed single #
loop $-1 $-1 $545 $240 #
plane-surface $-1 -44.948881496627706 0 0 1 0 0 0 0 -1 forward_v I I I I #
coedge $-1 $546 $391 $547 $548 forward $241 $-1 #
coedge $-1 $549 $243 $546 $550 forward $153 $-1 #
coedge $-1 $243 $549 $551 $552 forward $153 $-1 #
coedge $-1 $394 $393 $243 $387 reversed $395 $-1 #
edge $-1 $553 -24.6060386046208 $554 24.6060386046208 $386 $555 forward 7 unknown #
coedge $-1 $245 $244 $556 $557 forward $96 $-1 #
coedge $-1 $558 $559 $244 $390 reversed $543 $-1 #
edge $-1 $397 -44.948881496627706 $560 44.948881496627706 $389 $561 forward 7 unknown #
coedge $-1 $383 $562 $245 $392 reversed $241 $-1 #
edge $-1 $563 -44.948881496627706 $396 44.948881496627706 $391 $564 forward 7 unknown #
coedge $-1 $386 $246 $562 $565 forward $395 $-1 #
coedge $-1 $246 $386 $558 $566 reversed $395 $-1 #
loop $-1 $-1 $393 $542 #
vertex $-1 $247 $567 #
vertex $-1 $247 $568 #
straight-curve $-1 44.948881496627706 0 5.6729733768305861 0 1 0 I I #
face $-1 $569 $570 $58 $-1 $571 reversed single #
loop $-1 $-1 $404 $248 #
plane-surface $-1 0 -24.6060386046208 0 0 1 0 0 0 1 forward_v I I I I #
coedge $-1 $572 $573 $403 $574 forward $249 $-1 #
coedge $-1 $411 $251 $402 $574 reversed $157 $-1 #
coedge $-1 $409 $575 $251 $405 forward $400 $-1 #
edge $-1 $576 -3.6369824113616334 $412 -0.43499951957627214 $404 $577 forward 7 unknown #
coedge $-1 $253 $252 $578 $579 reversed $99 $-1 #
coedge $-1 $580 $581 $252 $408 forward $582 $-1 #
edge $-1 $583 -23.764906716776512 $413 -18.603042842925877 $407 $584 forward 7 unknown #
coedge $-1 $585 $404 $253 $410 forward $400 $-1 #
edge $-1 $412 18.603042842925877 $586 23.764906716776512 $409 $587 forward 7 unknown #
coedge $-1 $254 $403 $580 $588 reversed $157 $-1 #
vertex $-1 $410 $589 #
vertex $-1 $408 $590 #
straight-curve $-1 -39.787017622777071 0 -2.4709904850452249 0 1 0 I I #
face $-1 $591 $592 $59 $-1 $593 reversed single #
loop $-1 $-1 $594 $256 #
plane-surface $-1 0 0 -5.6729733768305861 0 0 1 1 0 0 forward_v I I I I #
coedge $-1 $595 $596 $261 $426 forward $257 $-1 #
coedge $-1 $597 $259 $594 $598 reversed $161 $-1 #
coedge $-1 $259 $597 $423 $599 reversed $161 $-1 #
coedge $-1 $424 $600 $259 $422 forward $592 $-1 #
edge $-1 $601 -3.6369824113616334 $602 -0.43499951957627214 $421 $603 forward 7 unknown #
coedge $-1 $261 $260 $420 $599 forward $102 $-1 #
coedge $-1 $604 $421 $260 $425 forward $592 $-1 #
edge $-1 $602 18.603042842925881 $430 23.764906716776515 $424 $605 forward 7 unknown #
edge $-1 $431 -23.764906716776515 $606 -18.603042842925881 $418 $607 forward 7 unknown #
coedge $-1 $608 $262 $596 $609 forward $429 $-1 #
coedge $-1 $262 $608 $604 $610 reversed $429 $-1 #
loop $-1 $-1 $262 $591 #
vertex $-1 $610 $611 #
vertex $-1 $609 $612 #
straight-curve $-1 44.948881496627706 0 -2.4709904850452249 0 -1 0 I I #
face $-1 $-1 $445 $60 $-1 $613 reversed single #
loop $-1 $-1 $614 $264 #
plane-surface $-1 0 0 5.6729733768305861 0 0 1 1 0 0 forward_v I I I I #
coedge $-1 $615 $616 $617 $618 reversed $265 $-1 #
coedge $-1 $619 $267 $269 $443 forward $165 $-1 #
coedge $-1 $267 $619 $615 $620 forward $165 $-1 #
coedge $-1 $617 $270 $267 $440 forward $445 $-1 #
edge $-1 $447 -18.988827813165791 $621 -1.997110887360698 $439 $622 forward 7 unknown #
coedge $-1 $623 $624 $268 $442 forward $434 $-1 #
edge $-1 $625 -29.087281207456819 $446 -27.010158611250496 $441 $626 forward 7 unknown #
edge $-1 $447 1.4708645604606407e-014 $625 4.2844089069168385 $269 $627 forward 7 unknown #
coedge $-1 $270 $617 $623 $628 reversed $445 $-1 #
loop $-1 $-1 $617 $433 #
vertex $-1 $628 $629 #
vertex $-1 $271 $630 #
straight-curve $-1 -29.481797163429036 -24.6060386046208 22.754521990928215 0 0 -1 I I #
coedge $-1 $449 $449 $-1 $631 reversed $274 $-1 #
edge $-1 $632 0 $632 6.2831853071796004 $275 $633 forward 7 unknown #
vertex $-1 $278 $634 #
ellipse-curve $-1 -26.083453778268016 -23.567477306517642 3.7993591287796833 0 -0.87461971476443456 0.48480960649040278 0.5 0 0 1 I I #
coedge $-1 $453 $453 $-1 $635 reversed $281 $-1 #
edge $-1 $636 0 $636 6.2831853071796004 $282 $637 forward 7 unknown #
vertex $-1 $285 $638 #
ellipse-curve $-1 -20.985938700526489 -23.567477306517642 3.7993591287796833 0 -0.87461971476443456 0.48480960649040278 0.5 0 0 1 I I #
coedge $-1 $457 $457 $-1 $639 reversed $288 $-1 #
edge $-1 $640 0 $640 6.2831853071796004 $289 $641 forward 7 unknown #
vertex $-1 $292 $642 #
ellipse-curve $-1 -15.888423622784963 -23.567477306517642 3.7993591287796833 0 -0.87461971476443456 0.48480960649040278 0.5 0 0 1 I I #
face $-1 $-1 $643 $64 $-1 $644 forward single #
loop $-1 $-1 $299 $293 #
plane-surface $-1 0 -24.6060386046208 0 0 1 0 0 0 1 forward_v I I I I #
coedge $-1 $645 $646 $647 $648 reversed $294 $-1 #
coedge $-1 $649 $296 $298 $471 forward $184 $-1 #
coedge $-1 $296 $649 $645 $650 forward $184 $-1 #
coedge $-1 $647 $299 $296 $468 forward $462 $-1 #
edge $-1 $474 0.90468099822274439 $651 17.896397924027838 $467 $652 forward 7 unknown #
coedge $-1 $653 $654 $297 $470 forward $643 $-1 #
edge $-1 $655 -29.087281207456819 $473 -27.010158611250496 $469 $656 forward 7 unknown #
edge $-1 $474 1.4708645604606407e-014 $655 4.2844089069168385 $298 $657 forward 7 unknown #
coedge $-1 $299 $647 $653 $658 reversed $462 $-1 #
vertex $-1 $658 $659 #
vertex $-1 $300 $660 #
straight-curve $-1 10.305220459348035 -24.6060386046208 22.754521990928215 0 0 -1 I I #
coedge $-1 $476 $476 $-1 $661 reversed $303 $-1 #
edge $-1 $662 0 $662 6.2831853071796004 $304 $663 forward 7 unknown #
vertex $-1 $307 $664 #
ellipse-curve $-1 13.703563844509056 -23.567477306517642 3.7993591287796833 0 -0.87461971476443456 0.48480960649040278 0.5 0 0 1 I I #
coedge $-1 $480 $480 $-1 $665 reversed $310 $-1 #
edge $-1 $666 0 $666 6.2831853071796004 $311 $667 forward 7 unknown #
vertex $-1 $314 $668 #
ellipse-curve $-1 18.801078922250582 -23.567477306517642 3.7993591287796833 0 -0.87461971476443456 0.48480960649040278 0.5 0 0 1 I I #
coedge $-1 $484 $484 $-1 $669 reversed $317 $-1 #
edge $-1 $670 0 $670 6.2831853071796004 $318 $671 forward 7 unknown #
vertex $-1 $321 $672 #
ellipse-curve $-1 23.898593999992102 -23.567477306517642 3.7993591287796833 0 -0.87461971476443456 0.48480960649040278 0.5 0 0 1 I I #
face $-1 $-1 $673 $68 $-1 $674 forward single #
loop $-1 $-1 $328 $322 #
plane-surface $-1 0 24.6060386046208 0 0 -1 0 0 0 -1 forward_v I I I I #
coedge $-1 $675 $676 $677 $678 reversed $323 $-1 #
coedge $-1 $679 $325 $327 $498 forward $203 $-1 #
coedge $-1 $325 $679 $675 $680 forward $203 $-1 #
coedge $-1 $677 $328 $325 $495 forward $489 $-1 #
edge $-1 $501 1.997110887360698 $681 18.988827813165791 $494 $682 forward 7 unknown #
coedge $-1 $683 $684 $326 $497 forward $673 $-1 #
edge $-1 $685 -17.158037314262945 $500 -15.080914718056626 $496 $686 forward 7 unknown #
edge $-1 $501 -49.212077209241599 $685 -44.927668302324776 $327 $687 forward 7 unknown #
coedge $-1 $328 $677 $683 $688 reversed $489 $-1 #
vertex $-1 $688 $689 #
vertex $-1 $329 $690 #
straight-curve $-1 -12.490080237623943 24.6060386046208 44.275448456784325 0 0 -1 I I #
coedge $-1 $503 $503 $-1 $691 reversed $332 $-1 #
edge $-1 $692 0 $692 6.2831853071796004 $333 $693 forward 7 unknown #
vertex $-1 $336 $694 #
ellipse-curve $-1 -26.083453778268016 23.567477306517635 3.7993591287796873 0 0.87461971476443456 0.48480960649040278 0.5 0 0 1 I I #
coedge $-1 $507 $507 $-1 $695 reversed $339 $-1 #
edge $-1 $696 0 $696 6.2831853071796004 $340 $697 forward 7 unknown #
vertex $-1 $343 $698 #
ellipse-curve $-1 -20.985938700526489 23.567477306517635 3.7993591287796873 0 0.87461971476443456 0.48480960649040278 0.5 0 0 1 I I #
coedge $-1 $511 $511 $-1 $699 reversed $346 $-1 #
edge $-1 $700 0 $700 6.2831853071796004 $347 $701 forward 7 unknown #
vertex $-1 $350 $702 #
ellipse-curve $-1 -15.888423622784963 23.567477306517635 3.7993591287796873 0 0.87461971476443456 0.48480960649040278 0.5 0 0 1 I I #
face $-1 $-1 $703 $72 $-1 $704 forward single #
loop $-1 $-1 $357 $351 #
plane-surface $-1 0 24.6060386046208 0 0 -1 0 0 0 -1 forward_v I I I I #
coedge $-1 $705 $706 $707 $708 reversed $352 $-1 #
coedge $-1 $709 $354 $356 $525 forward $222 $-1 #
coedge $-1 $354 $709 $705 $710 forward $222 $-1 #
coedge $-1 $707 $357 $354 $522 forward $516 $-1 #
edge $-1 $528 -17.896397924027838 $711 -0.90468099822274439 $521 $712 forward 7 unknown #
coedge $-1 $713 $714 $355 $524 forward $703 $-1 #
edge $-1 $715 -17.158037314262945 $527 -15.080914718056626 $523 $716 forward 7 unknown #
edge $-1 $528 -49.212077209241599 $715 -44.927668302324776 $356 $717 forward 7 unknown #
coedge $-1 $357 $707 $713 $718 reversed $516 $-1 #
vertex $-1 $718 $719 #
vertex $-1 $358 $720 #
straight-curve $-1 27.296937385153129 24.6060386046208 44.275448456784325 0 0 -1 I I #
coedge $-1 $530 $530 $-1 $721 reversed $361 $-1 #
edge $-1 $722 0 $722 6.2831853071796004 $362 $723 forward 7 unknown #
vertex $-1 $365 $724 #
ellipse-curve $-1 13.703563844509056 23.567477306517635 3.7993591287796873 0 0.87461971476443456 0.48480960649040278 0.5 0 0 1 I I #
coedge $-1 $534 $534 $-1 $725 reversed $368 $-1 #
edge $-1 $726 0 $726 6.2831853071796004 $369 $727 forward 7 unknown #
vertex $-1 $372 $728 #
ellipse-curve $-1 18.801078922250582 23.567477306517635 3.7993591287796873 0 0.87461971476443456 0.48480960649040278 0.5 0 0 1 I I #
coedge $-1 $538 $538 $-1 $729 reversed $375 $-1 #
edge $-1 $730 0 $730 6.2831853071796004 $376 $731 forward 7 unknown #
vertex $-1 $379 $732 #
ellipse-curve $-1 23.898593999992102 23.567477306517635 3.7993591287796873 0 0.87461971476443456 0.48480960649040278 0.5 0 0 1 I I #
face $-1 $-1 $395 $57 $-1 $733 reversed single #
loop $-1 $-1 $558 $380 #
plane-surface $-1 0 24.6060386046208 0 0 -1 0 0 0 -1 forward_v I I I I #
coedge $-1 $734 $556 $559 $735 forward $381 $-1 #
coedge $-1 $562 $383 $384 $550 reversed $241 $-1 #
coedge $-1 $556 $734 $383 $548 reversed $381 $-1 #
edge $-1 $563 -5.6729733768305861 $736 5.6729733768305861 $547 $737 forward 7 unknown #
coedge $-1 $385 $384 $734 $738 forward $153 $-1 #
edge $-1 $554 -44.948881496627706 $736 44.948881496627706 $546 $739 forward 7 unknown #
coedge $-1 $559 $558 $385 $552 reversed $543 $-1 #
edge $-1 $740 -44.948881496627706 $553 44.948881496627706 $551 $741 forward 7 unknown #
vertex $-1 $387 $742 #
vertex $-1 $565 $743 #
straight-curve $-1 44.948881496627706 0 -5.6729733768305861 0 -1 0 I I #
coedge $-1 $545 $547 $388 $557 reversed $381 $-1 #
edge $-1 $560 -24.6060386046208 $563 24.6060386046208 $556 $744 forward 7 unknown #
coedge $-1 $551 $389 $394 $566 forward $543 $-1 #
coedge $-1 $389 $551 $545 $735 reversed $543 $-1 #
vertex $-1 $390 $745 #
straight-curve $-1 0 24.6060386046208 5.6729733768305861 -1 0 0 I I #
coedge $-1 $391 $546 $393 $565 reversed $241 $-1 #
vertex $-1 $557 $746 #
straight-curve $-1 0 -24.6060386046208 5.6729733768305861 1 0 0 I I #
edge $-1 $396 -5.6729733768305861 $554 5.6729733768305861 $393 $747 forward 7 unknown #
edge $-1 $397 -5.6729733768305861 $553 5.6729733768305861 $394 $748 forward 7 unknown #
point $-1 44.948881496627706 -24.6060386046208 5.6729733768305861 #
point $-1 44.948881496627706 24.6060386046208 5.6729733768305861 #
face $-1 $-1 $582 $58 $-1 $749 reversed single #
loop $-1 $-1 $578 $399 #
plane-surface $-1 -44.948881496627706 0 0 1 0 0 0 0 -1 forward_v I I I I #
coedge $-1 $750 $402 $575 $751 forward $249 $-1 #
coedge $-1 $402 $750 $752 $753 forward $249 $-1 #
edge $-1 $754 -24.6060386046208 $576 24.6060386046208 $402 $755 forward 7 unknown #
coedge $-1 $404 $585 $572 $751 reversed $400 $-1 #
vertex $-1 $751 $756 #
straight-curve $-1 -39.787017622777071 -24.6060386046208 -2.0359909654689528 0 0 1 I I #
coedge $-1 $757 $758 $406 $579 forward $570 $-1 #
edge $-1 $586 -24.6060386046208 $583 24.6060386046208 $578 $759 forward 7 unknown #
coedge $-1 $752 $407 $411 $588 forward $582 $-1 #
coedge $-1 $407 $752 $757 $760 reversed $582 $-1 #
loop $-1 $-1 $580 $569 #
vertex $-1 $760 $761 #
straight-curve $-1 -21.183974779851194 24.6060386046208 -2.4709904850452249 1 0 0 I I #
coedge $-1 $575 $409 $758 $762 forward $400 $-1 #
vertex $-1 $762 $763 #
straight-curve $-1 -21.183974779851194 -24.6060386046208 -2.4709904850452249 -1 0 0 I I #
edge $-1 $413 0.43499951957627214 $754 3.6369824113616334 $580 $764 forward 7 unknown #
point $-1 -39.787017622777071 -24.6060386046208 -2.4709904850452249 #
point $-1 -39.787017622777071 24.6060386046208 -2.4709904850452249 #
face $-1 $-1 $429 $59 $-1 $765 reversed single #
loop $-1 $-1 $424 $415 #
plane-surface $-1 0 24.6060386046208 0 0 -1 0 0 0 -1 forward_v I I I I #
coedge $-1 $766 $767 $419 $598 forward $416 $-1 #
coedge $-1 $768 $418 $597 $769 forward $257 $-1 #
coedge $-1 $418 $768 $427 $609 reversed $257 $-1 #
coedge $-1 $420 $419 $595 $769 reversed $161 $-1 #
edge $-1 $770 -24.6060386046208 $601 24.6060386046208 $594 $771 forward 7 unknown #
edge $-1 $602 -24.6060386046208 $606 24.6060386046208 $420 $772 forward 7 unknown #
coedge $-1 $421 $604 $766 $773 reversed $592 $-1 #
vertex $-1 $773 $774 #
vertex $-1 $425 $775 #
straight-curve $-1 39.787017622777078 24.6060386046208 -2.0359909654689528 0 0 1 I I #
coedge $-1 $600 $424 $428 $610 forward $592 $-1 #
straight-curve $-1 21.183974779851198 24.6060386046208 -2.4709904850452249 1 0 0 I I #
vertex $-1 $426 $776 #
straight-curve $-1 21.183974779851198 -24.6060386046208 -2.4709904850452249 -1 0 0 I I #
coedge $-1 $428 $427 $777 $778 reversed $429 $-1 #
edge $-1 $431 2.4709904850452249 $779 5.6729733768305861 $427 $780 forward 7 unknown #
edge $-1 $430 2.4709904850452249 $781 5.6729733768305861 $428 $782 forward 7 unknown #
point $-1 44.948881496627713 24.6060386046208 -2.4709904850452249 #
point $-1 44.948881496627713 -24.6060386046208 -2.4709904850452249 #
plane-surface $-1 0 -24.6060386046208 0 0 1 0 0 0 1 forward_v I I I I #
coedge $-1 $624 $623 $616 $783 forward $434 $-1 #
coedge $-1 $616 $436 $438 $620 reversed $265 $-1 #
coedge $-1 $436 $615 $614 $783 reversed $265 $-1 #
coedge $-1 $444 $439 $436 $618 forward $445 $-1 #
edge $-1 $621 -20.828777110199422 $784 -17.081548614097628 $617 $785 forward 7 unknown #
coedge $-1 $438 $437 $624 $786 reversed $165 $-1 #
edge $-1 $787 -4.2844089069168385 $621 -1.4708645604606407e-014 $615 $788 forward 7 unknown #
vertex $-1 $440 $789 #
straight-curve $-1 -10.492969350263245 -24.6060386046208 1.9257448807287911 1 0 0 I I #
coedge $-1 $614 $441 $444 $628 forward $434 $-1 #
coedge $-1 $441 $614 $619 $786 forward $434 $-1 #
vertex $-1 $442 $790 #
straight-curve $-1 -29.481797163429036 -51.616197215871296 5.672973376830587 0 -1 0 I I #
straight-curve $-1 -29.481797163429036 -24.606038604620807 1.9257448807287787 0 0.48480960649040278 0.87461971476443456 I I #
edge $-1 $446 -29.481797163429036 $784 -12.490080237623943 $444 $791 forward 7 unknown #
point $-1 -29.481797163429036 -24.6060386046208 5.6729733768305861 #
point $-1 -29.481797163429036 -24.6060386046208 1.9257448807287916 #
edge $-1 $792 1 $792 0 $449 $-1 forward 7 unknown #
vertex $-1 $450 $793 #
ellipse-curve $-1 -26.083453778268016 -22.121887093430921 2.9980554186961412 0 -0.87461971476443456 0.48480960649040278 0.5 0 0 1 I I #
point $-1 -25.583453778268016 -23.567477306517631 3.7993591287796775 #
edge $-1 $794 1 $794 0 $453 $-1 forward 7 unknown #
vertex $-1 $454 $795 #
ellipse-curve $-1 -20.985938700526489 -22.121887093430921 2.9980554186961412 0 -0.87461971476443456 0.48480960649040278 0.5 0 0 1 I I #
point $-1 -20.485938700526489 -23.567477306517631 3.7993591287796775 #
edge $-1 $796 1 $796 0 $457 $-1 forward 7 unknown #
vertex $-1 $458 $797 #
ellipse-curve $-1 -15.888423622784963 -22.121887093430921 2.9980554186961412 0 -0.87461971476443456 0.48480960649040278 0.5 0 0 1 I I #
point $-1 -15.388423622784963 -23.567477306517631 3.7993591287796775 #
loop $-1 $-1 $469 $461 #
plane-surface $-1 0 0 5.6729733768305861 0 0 1 1 0 0 forward_v I I I I #
coedge $-1 $646 $464 $466 $650 reversed $294 $-1 #
coedge $-1 $464 $645 $798 $799 reversed $294 $-1 #
coedge $-1 $472 $467 $464 $648 forward $462 $-1 #
edge $-1 $651 -20.828777110199422 $800 -17.081548614097628 $647 $801 forward 7 unknown #
coedge $-1 $466 $465 $654 $802 reversed $184 $-1 #
edge $-1 $803 -4.2844089069168385 $651 -1.4708645604606407e-014 $645 $804 forward 7 unknown #
vertex $-1 $468 $805 #
straight-curve $-1 9.400539461125291 -24.6060386046208 1.9257448807287911 1 0 0 I I #
coedge $-1 $798 $469 $472 $658 forward $643 $-1 #
coedge $-1 $469 $798 $649 $802 forward $643 $-1 #
vertex $-1 $470 $806 #
straight-curve $-1 10.305220459348035 -51.616197215871296 5.672973376830587 0 -1 0 I I #
straight-curve $-1 10.305220459348035 -24.606038604620807 1.9257448807287787 0 0.48480960649040278 0.87461971476443456 I I #
edge $-1 $473 10.305220459348035 $800 27.296937385153129 $472 $807 forward 7 unknown #
point $-1 10.305220459348035 -24.6060386046208 5.6729733768305861 #
point $-1 10.305220459348035 -24.6060386046208 1.9257448807287916 #
edge $-1 $808 1 $808 0 $476 $-1 forward 7 unknown #
vertex $-1 $477 $809 #
ellipse-curve $-1 13.703563844509056 -22.121887093430921 2.9980554186961412 0 -0.87461971476443456 0.48480960649040278 0.5 0 0 1 I I #
point $-1 14.203563844509056 -23.567477306517631 3.7993591287796775 #
edge $-1 $810 1 $810 0 $480 $-1 forward 7 unknown #
vertex $-1 $481 $811 #
ellipse-curve $-1 18.801078922250582 -22.121887093430921 2.9980554186961412 0 -0.87461971476443456 0.48480960649040278 0.5 0 0 1 I I #
point $-1 19.301078922250582 -23.567477306517631 3.7993591287796775 #
edge $-1 $812 1 $812 0 $484 $-1 forward 7 unknown #
vertex $-1 $485 $813 #
ellipse-curve $-1 23.898593999992102 -22.121887093430921 2.9980554186961412 0 -0.87461971476443456 0.48480960649040278 0.5 0 0 1 I I #
point $-1 24.398593999992102 -23.567477306517631 3.7993591287796775 #
loop $-1 $-1 $496 $488 #
plane-surface $-1 0 0 5.6729733768305861 0 0 1 1 0 0 forward_v I I I I #
coedge $-1 $676 $491 $493 $680 reversed $323 $-1 #
coedge $-1 $491 $675 $814 $815 reversed $323 $-1 #
coedge $-1 $499 $494 $491 $678 forward $489 $-1 #
edge $-1 $681 -42.349703576055539 $816 -38.602475079953741 $677 $817 forward 7 unknown #
coedge $-1 $493 $492 $684 $818 reversed $203 $-1 #
edge $-1 $819 44.927668302324776 $681 49.212077209241599 $675 $820 forward 7 unknown #
vertex $-1 $495 $821 #
straight-curve $-1 -10.492969350263245 24.6060386046208 1.9257448807287894 -1 0 0 I I #
coedge $-1 $814 $496 $499 $688 forward $673 $-1 #
coedge $-1 $496 $814 $679 $818 forward $673 $-1 #
vertex $-1 $497 $822 #
straight-curve $-1 -12.490080237623943 39.686953322677425 5.6729733768305834 0 1 0 I I #
straight-curve $-1 -12.490080237623943 0.74755081823306568 44.967597812440999 0 -0.48480960649040278 0.87461971476443456 I I #
edge $-1 $500 12.490080237623943 $816 29.481797163429036 $499 $823 forward 7 unknown #
point $-1 -12.490080237623943 24.6060386046208 5.6729733768305861 #
point $-1 -12.490080237623943 24.6060386046208 1.9257448807287858 #
edge $-1 $824 1 $824 0 $503 $-1 forward 7 unknown #
vertex $-1 $504 $825 #
ellipse-curve $-1 -26.083453778268016 22.121887093430921 2.9980554186961483 0 0.87461971476443456 0.48480960649040278 0.5 0 0 1 I I #
point $-1 -25.583453778268016 23.567477306517631 3.7993591287796846 #
edge $-1 $826 1 $826 0 $507 $-1 forward 7 unknown #
vertex $-1 $508 $827 #
ellipse-curve $-1 -20.985938700526489 22.121887093430921 2.9980554186961483 0 0.87461971476443456 0.48480960649040278 0.5 0 0 1 I I #
point $-1 -20.485938700526489 23.567477306517631 3.7993591287796846 #
edge $-1 $828 1 $828 0 $511 $-1 forward 7 unknown #
vertex $-1 $512 $829 #
ellipse-curve $-1 -15.888423622784963 22.121887093430921 2.9980554186961483 0 0.87461971476443456 0.48480960649040278 0.5 0 0 1 I I #
point $-1 -15.388423622784963 23.567477306517631 3.7993591287796846 #
loop $-1 $-1 $523 $515 #
plane-surface $-1 0 0 5.6729733768305861 0 0 1 1 0 0 forward_v I I I I #
coedge $-1 $706 $518 $520 $710 reversed $352 $-1 #
coedge $-1 $518 $705 $830 $831 reversed $352 $-1 #
coedge $-1 $526 $521 $518 $708 forward $516 $-1 #
edge $-1 $711 -42.349703576055539 $832 -38.602475079953741 $707 $833 forward 7 unknown #
coedge $-1 $520 $519 $714 $834 reversed $222 $-1 #
edge $-1 $835 44.927668302324776 $711 49.212077209241599 $705 $836 forward 7 unknown #
vertex $-1 $522 $837 #
straight-curve $-1 9.400539461125291 24.6060386046208 1.9257448807287894 -1 0 0 I I #
coedge $-1 $830 $523 $526 $718 forward $703 $-1 #
coedge $-1 $523 $830 $709 $834 forward $703 $-1 #
vertex $-1 $524 $838 #
straight-curve $-1 27.296937385153129 39.686953322677425 5.6729733768305834 0 1 0 I I #
straight-curve $-1 27.296937385153129 0.74755081823306568 44.967597812440999 0 -0.48480960649040278 0.87461971476443456 I I #
edge $-1 $527 -27.296937385153129 $832 -10.305220459348035 $526 $839 forward 7 unknown #
point $-1 27.296937385153129 24.6060386046208 5.6729733768305861 #
point $-1 27.296937385153129 24.6060386046208 1.9257448807287858 #
edge $-1 $840 1 $840 0 $530 $-1 forward 7 unknown #
vertex $-1 $531 $841 #
ellipse-curve $-1 13.703563844509056 22.121887093430921 2.9980554186961483 0 0.87461971476443456 0.48480960649040278 0.5 0 0 1 I I #
point $-1 14.203563844509056 23.567477306517631 3.7993591287796846 #
edge $-1 $842 1 $842 0 $534 $-1 forward 7 unknown #
vertex $-1 $535 $843 #
ellipse-curve $-1 18.801078922250582 22.121887093430921 2.9980554186961483 0 0.87461971476443456 0.48480960649040278 0.5 0 0 1 I I #
point $-1 19.301078922250582 23.567477306517631 3.7993591287796846 #
edge $-1 $844 1 $844 0 $538 $-1 forward 7 unknown #
vertex $-1 $539 $845 #
ellipse-curve $-1 23.898593999992102 22.121887093430921 2.9980554186961483 0 0.87461971476443456 0.48480960649040278 0.5 0 0 1 I I #
point $-1 24.398593999992102 23.567477306517631 3.7993591287796846 #
plane-surface $-1 44.948881496627706 0 0 -1 0 0 0 0 1 forward_v I I I I #
coedge $-1 $547 $545 $549 $738 reversed $381 $-1 #
edge $-1 $560 -5.6729733768305861 $740 5.6729733768305861 $559 $846 forward 7 unknown #
vertex $-1 $738 $847 #
straight-curve $-1 -44.948881496627706 -24.6060386046208 0 0 0 -1 I I #
edge $-1 $736 -24.6060386046208 $740 24.6060386046208 $734 $848 forward 7 unknown #
straight-curve $-1 0 -24.6060386046208 -5.6729733768305861 -1 0 0 I I #
vertex $-1 $552 $849 #
straight-curve $-1 0 24.6060386046208 -5.6729733768305861 1 0 0 I I #
point $-1 44.948881496627706 24.6060386046208 -5.6729733768305861 #
point $-1 44.948881496627706 -24.6060386046208 -5.6729733768305861 #
straight-curve $-1 -44.948881496627706 0 5.6729733768305861 0 -1 0 I I #
point $-1 -44.948881496627706 24.6060386046208 5.6729733768305861 #
point $-1 -44.948881496627706 -24.6060386046208 5.6729733768305861 #
straight-curve $-1 44.948881496627706 -24.6060386046208 0 0 0 -1 I I #
straight-curve $-1 44.948881496627706 24.6060386046208 0 0 0 -1 I I #
plane-surface $-1 0 24.6060386046208 0 0 -1 0 0 0 -1 forward_v I I I I #
coedge $-1 $573 $572 $850 $851 forward $249 $-1 #
edge $-1 $576 39.787017622777071 $852 44.948881496627706 $575 $853 forward 7 unknown #
coedge $-1 $581 $580 $573 $753 reversed $582 $-1 #
edge $-1 $854 -44.948881496627706 $754 -39.787017622777071 $752 $855 forward 7 unknown #
vertex $-1 $588 $856 #
straight-curve $-1 -39.787017622777071 0 -5.6729733768305861 0 -1 0 I I #
point $-1 -39.787017622777071 -24.6060386046208 -5.6729733768305861 #
coedge $-1 $850 $578 $581 $760 forward $570 $-1 #
coedge $-1 $578 $850 $585 $762 reversed $570 $-1 #
straight-curve $-1 -44.948881496627706 0 -2.4709904850452249 0 1 0 I I #
edge $-1 $583 2.4709904850452249 $854 5.6729733768305861 $581 $857 forward 7 unknown #
point $-1 -44.948881496627706 24.6060386046208 -2.4709904850452249 #
edge $-1 $586 2.4709904850452249 $852 5.6729733768305861 $758 $858 forward 7 unknown #
point $-1 -44.948881496627706 -24.6060386046208 -2.4709904850452249 #
straight-curve $-1 -39.787017622777071 24.6060386046208 -2.0359909654689528 0 0 -1 I I #
plane-surface $-1 44.948881496627706 0 0 -1 0 0 0 0 1 forward_v I I I I #
coedge $-1 $777 $594 $600 $773 forward $416 $-1 #
coedge $-1 $594 $777 $768 $859 forward $416 $-1 #
coedge $-1 $596 $595 $767 $859 reversed $257 $-1 #
edge $-1 $606 0.43499951957627214 $770 3.6369824113616334 $595 $860 forward 7 unknown #
vertex $-1 $598 $861 #
straight-curve $-1 39.787017622777078 0 -5.6729733768305861 0 1 0 I I #
straight-curve $-1 39.787017622777078 0 -2.4709904850452249 0 -1 0 I I #
edge $-1 $601 39.787017622777078 $781 44.948881496627706 $600 $862 forward 7 unknown #
point $-1 39.787017622777078 24.6060386046208 -5.6729733768305861 #
point $-1 39.787017622777078 24.6060386046208 -2.4709904850452249 #
point $-1 39.787017622777078 -24.6060386046208 -2.4709904850452249 #
coedge $-1 $767 $766 $608 $778 forward $416 $-1 #
edge $-1 $781 -24.6060386046208 $779 24.6060386046208 $608 $863 forward 7 unknown #
vertex $-1 $609 $864 #
straight-curve $-1 44.948881496627706 -24.6060386046208 0 0 0 -1 I I #
vertex $-1 $778 $865 #
straight-curve $-1 44.948881496627706 24.6060386046208 0 0 0 -1 I I #
edge $-1 $784 27.010158611250496 $787 29.087281207456819 $614 $866 forward 7 unknown #
vertex $-1 $783 $867 #
straight-curve $-1 -12.490080237623943 -24.6060386046208 22.754521990928215 0 0 1 I I #
edge $-1 $787 1.997110887360698 $625 18.988827813165791 $624 $868 forward 7 unknown #
vertex $-1 $786 $869 #
straight-curve $-1 -12.490080237623943 -24.606038604620807 1.9257448807287787 0 -0.48480960649040278 -0.87461971476443456 I I #
point $-1 -12.490080237623943 -24.6060386046208 1.9257448807287916 #
point $-1 -29.481797163429036 -22.528916008414477 5.6729733768305861 #
straight-curve $-1 0 -24.6060386046208 5.6729733768305861 1 0 0 I I #
vertex $-1 $631 $870 #
point $-1 -25.583453778268016 -22.121887093430921 2.9980554186961412 #
vertex $-1 $635 $871 #
point $-1 -20.485938700526489 -22.121887093430921 2.9980554186961412 #
vertex $-1 $639 $872 #
point $-1 -15.388423622784963 -22.121887093430921 2.9980554186961412 #
coedge $-1 $654 $653 $646 $799 forward $643 $-1 #
edge $-1 $800 27.010158611250496 $803 29.087281207456819 $798 $873 forward 7 unknown #
vertex $-1 $799 $874 #
straight-curve $-1 27.296937385153129 -24.6060386046208 22.754521990928215 0 0 1 I I #
edge $-1 $803 -17.896397924027838 $655 -0.90468099822274439 $654 $875 forward 7 unknown #
vertex $-1 $802 $876 #
straight-curve $-1 27.296937385153129 -24.606038604620807 1.9257448807287787 0 -0.48480960649040278 -0.87461971476443456 I I #
point $-1 27.296937385153129 -24.6060386046208 1.9257448807287916 #
point $-1 10.305220459348035 -22.528916008414477 5.6729733768305861 #
straight-curve $-1 0 -24.6060386046208 5.6729733768305861 1 0 0 I I #
vertex $-1 $661 $877 #
point $-1 14.203563844509056 -22.121887093430921 2.9980554186961412 #
vertex $-1 $665 $878 #
point $-1 19.301078922250582 -22.121887093430921 2.9980554186961412 #
vertex $-1 $669 $879 #
point $-1 24.398593999992102 -22.121887093430921 2.9980554186961412 #
coedge $-1 $684 $683 $676 $815 forward $673 $-1 #
edge $-1 $816 15.080914718056626 $819 17.158037314262945 $814 $880 forward 7 unknown #
vertex $-1 $815 $881 #
straight-curve $-1 -29.481797163429036 24.6060386046208 44.275448456784325 0 0 1 I I #
edge $-1 $819 -18.988827813165791 $685 -1.997110887360698 $684 $882 forward 7 unknown #
vertex $-1 $818 $883 #
straight-curve $-1 -29.481797163429036 0.74755081823306568 44.967597812440999 0 0.48480960649040278 -0.87461971476443456 I I #
point $-1 -29.481797163429036 24.6060386046208 1.9257448807287858 #
point $-1 -12.490080237623943 22.52891600841448 5.6729733768305834 #
straight-curve $-1 0 24.6060386046208 5.6729733768305861 -1 0 0 I I #
vertex $-1 $691 $884 #
point $-1 -25.583453778268016 22.121887093430921 2.9980554186961483 #
vertex $-1 $695 $885 #
point $-1 -20.485938700526489 22.121887093430921 2.9980554186961483 #
vertex $-1 $699 $886 #
point $-1 -15.388423622784963 22.121887093430921 2.9980554186961483 #
coedge $-1 $714 $713 $706 $831 forward $703 $-1 #
edge $-1 $832 15.080914718056626 $835 17.158037314262945 $830 $887 forward 7 unknown #
vertex $-1 $831 $888 #
straight-curve $-1 10.305220459348035 24.6060386046208 44.275448456784325 0 0 1 I I #
edge $-1 $835 0.90468099822274439 $715 17.896397924027838 $714 $889 forward 7 unknown #
vertex $-1 $834 $890 #
straight-curve $-1 10.305220459348035 0.74755081823306568 44.967597812440999 0 0.48480960649040278 -0.87461971476443456 I I #
point $-1 10.305220459348035 24.6060386046208 1.9257448807287858 #
point $-1 27.296937385153129 22.52891600841448 5.6729733768305834 #
straight-curve $-1 0 24.6060386046208 5.6729733768305861 -1 0 0 I I #
vertex $-1 $721 $891 #
point $-1 14.203563844509056 22.121887093430921 2.9980554186961483 #
vertex $-1 $725 $892 #
point $-1 19.301078922250582 22.121887093430921 2.9980554186961483 #
vertex $-1 $729 $893 #
point $-1 24.398593999992102 22.121887093430921 2.9980554186961483 #
straight-curve $-1 -44.948881496627706 24.6060386046208 0 0 0 -1 I I #
point $-1 -44.948881496627706 -24.6060386046208 -5.6729733768305861 #
straight-curve $-1 -44.948881496627706 0 -5.6729733768305861 0 1 0 I I #
point $-1 -44.948881496627706 24.6060386046208 -5.6729733768305861 #
coedge $-1 $758 $757 $750 $851 reversed $570 $-1 #
edge $-1 $852 -24.6060386046208 $854 24.6060386046208 $850 $894 forward 7 unknown #
vertex $-1 $851 $895 #
straight-curve $-1 0 -24.6060386046208 -5.6729733768305861 -1 0 0 I I #
vertex $-1 $753 $896 #
straight-curve $-1 0 24.6060386046208 -5.6729733768305861 1 0 0 I I #
point $-1 -39.787017622777071 24.6060386046208 -5.6729733768305861 #
straight-curve $-1 -44.948881496627706 24.6060386046208 0 0 0 -1 I I #
straight-curve $-1 -44.948881496627706 -24.6060386046208 0 0 0 -1 I I #
edge $-1 $779 -44.948881496627706 $770 -39.787017622777078 $768 $897 forward 7 unknown #
straight-curve $-1 39.787017622777078 -24.6060386046208 -2.0359909654689528 0 0 -1 I I #
point $-1 39.787017622777078 -24.6060386046208 -5.6729733768305861 #
straight-curve $-1 0 24.6060386046208 -5.6729733768305861 1 0 0 I I #
straight-curve $-1 44.948881496627706 0 -5.6729733768305861 0 -1 0 I I #
point $-1 44.948881496627706 -24.6060386046208 -5.6729733768305861 #
point $-1 44.948881496627706 24.6060386046208 -5.6729733768305861 #
straight-curve $-1 -12.490080237623943 -51.616197215871296 5.672973376830587 0 1 0 I I #
point $-1 -12.490080237623943 -24.6060386046208 5.6729733768305861 #
straight-curve $-1 -10.492969350263245 -22.52891600841448 5.6729733768305861 -1 0 0 I I #
point $-1 -12.490080237623943 -22.528916008414477 5.6729733768305861 #
point $-1 -26.083453778268016 -21.684577236048703 2.7556506154509397 #
point $-1 -20.985938700526489 -21.684577236048703 2.7556506154509397 #
point $-1 -15.888423622784963 -21.684577236048703 2.7556506154509397 #
straight-curve $-1 27.296937385153129 -51.616197215871296 5.672973376830587 0 1 0 I I #
point $-1 27.296937385153129 -24.6060386046208 5.6729733768305861 #
straight-curve $-1 9.400539461125291 -22.52891600841448 5.6729733768305861 -1 0 0 I I #
point $-1 27.296937385153129 -22.528916008414477 5.6729733768305861 #
point $-1 13.703563844509056 -21.684577236048703 2.7556506154509397 #
point $-1 18.801078922250582 -21.684577236048703 2.7556506154509397 #
point $-1 23.898593999992102 -21.684577236048703 2.7556506154509397 #
straight-curve $-1 -29.481797163429036 39.686953322677425 5.6729733768305834 0 -1 0 I I #
point $-1 -29.481797163429036 24.6060386046208 5.6729733768305861 #
straight-curve $-1 -10.492969350263245 22.528916008414477 5.6729733768305906 1 0 0 I I #
point $-1 -29.481797163429036 22.52891600841448 5.6729733768305834 #
point $-1 -26.083453778268016 21.684577236048703 2.7556506154509468 #
point $-1 -20.985938700526489 21.684577236048703 2.7556506154509468 #
point $-1 -15.888423622784963 21.684577236048703 2.7556506154509468 #
straight-curve $-1 10.305220459348035 39.686953322677425 5.6729733768305834 0 -1 0 I I #
point $-1 10.305220459348035 24.6060386046208 5.6729733768305861 #
straight-curve $-1 9.400539461125291 22.528916008414477 5.6729733768305906 1 0 0 I I #
point $-1 10.305220459348035 22.52891600841448 5.6729733768305834 #
point $-1 13.703563844509056 21.684577236048703 2.7556506154509468 #
point $-1 18.801078922250582 21.684577236048703 2.7556506154509468 #
point $-1 23.898593999992102 21.684577236048703 2.7556506154509468 #
straight-curve $-1 -44.948881496627706 0 -5.6729733768305861 0 1 0 I I #
point $-1 -44.948881496627706 -24.6060386046208 -5.6729733768305861 #
point $-1 -44.948881496627706 24.6060386046208 -5.6729733768305861 #
straight-curve $-1 0 -24.6060386046208 -5.6729733768305861 -1 0 0 I I #
End-of-ACIS-data 