500 0 9 0           
7 Unknown 11 ACIS 5.0 NT 24 Fri Mar 26 19:31:26 1999 
-1 9.9999999999999995e-007 1e-010 
body $-1 $9 $-1 $10 #
body $-1 $11 $-1 $12 #
body $-1 $13 $-1 $14 #
body $-1 $15 $-1 $16 #
body $-1 $17 $-1 $18 #
body $-1 $19 $-1 $20 #
body $-1 $21 $-1 $22 #
body $-1 $23 $-1 $24 #
body $-1 $25 $-1 $26 #
lump $-1 $-1 $27 $0 #
transform $-1 1 0 0 0 1 0 0 0 1 53.766289254432813 25.329899917348367 11.302019371672722 1 rotate no_reflect no_shear #
lump $-1 $-1 $28 $1 #
transform $-1 1 0 0 0 1 0 0 0 1 53.766289254432813 25.329899917348367 11.302019371672722 1 rotate no_reflect no_shear #
lump $-1 $-1 $29 $2 #
transform $-1 1 0 0 0 1 0 0 0 1 53.766289254432813 25.329899917348367 11.302019371672722 1 rotate no_reflect no_shear #
lump $-1 $-1 $30 $3 #
transform $-1 1 0 0 0 1 0 0 0 1 53.766289254432813 25.329899917348367 11.302019371672722 1 rotate no_reflect no_shear #
lump $-1 $-1 $31 $4 #
transform $-1 1 0 0 0 1 0 0 0 1 53.766289254432813 25.329899917348367 11.302019371672722 1 rotate no_reflect no_shear #
lump $-1 $-1 $32 $5 #
transform $-1 1 0 0 0 1 0 0 0 1 53.766289254432813 25.329899917348367 11.302019371672722 1 rotate no_reflect no_shear #
lump $-1 $-1 $33 $6 #
transform $-1 1 0 0 0 1 0 0 0 1 53.766289254432813 25.329899917348367 11.302019371672722 1 rotate no_reflect no_shear #
lump $-1 $-1 $34 $7 #
transform $-1 1 0 0 0 1 0 0 0 1 53.766289254432813 25.329899917348367 11.302019371672722 1 rotate no_reflect no_shear #
lump $-1 $-1 $35 $8 #
transform $-1 1 0 0 0 1 0 0 0 1 53.766289254432813 25.329899917348367 11.302019371672722 1 rotate no_reflect no_shear #
shell $-1 $-1 $-1 $36 $-1 $9 #
shell $-1 $-1 $-1 $37 $-1 $11 #
shell $-1 $-1 $-1 $38 $-1 $13 #
shell $-1 $-1 $-1 $39 $-1 $15 #
shell $-1 $-1 $-1 $40 $-1 $17 #
shell $-1 $-1 $-1 $41 $-1 $19 #
shell $-1 $-1 $-1 $42 $-1 $21 #
shell $-1 $-1 $-1 $43 $-1 $23 #
shell $-1 $-1 $-1 $44 $-1 $25 #
face $-1 $45 $46 $27 $-1 $47 forward single #
face $-1 $48 $49 $28 $-1 $50 forward single #
face $-1 $51 $52 $29 $-1 $53 forward single #
face $-1 $54 $55 $30 $-1 $56 reversed single #
face $-1 $57 $58 $31 $-1 $59 forward single #
face $-1 $60 $61 $32 $-1 $62 forward single #
face $-1 $63 $64 $33 $-1 $65 reversed single #
face $-1 $66 $67 $34 $-1 $68 forward single #
face $-1 $69 $70 $35 $-1 $71 forward single #
face $-1 $72 $73 $27 $-1 $74 reversed single #
loop $-1 $-1 $75 $36 #
plane-surface $-1 0 0 11.302019371672722 0 0 1 1 0 0 forward_v I I I I #
face $-1 $76 $77 $28 $-1 $78 reversed single #
loop $-1 $-1 $79 $37 #
plane-surface $-1 0 -19.3769120839886 3.560298451428368 0 0 1 1 0 0 forward_v I I I I #
face $-1 $80 $81 $29 $-1 $82 reversed single #
loop $-1 $-1 $83 $38 #
plane-surface $-1 0 19.376912083988604 3.560298451428368 0 0 1 1 0 0 forward_v I I I I #
face $-1 $84 $85 $30 $-1 $86 reversed single #
loop $-1 $-1 $87 $39 #
plane-surface $-1 -141.85182164228809 -6.9359625371492202 66.103176134757518 0 -1 0 0.81915205242281985 0 -0.57357642473473569 forward_v I I I I #
face $-1 $88 $89 $31 $-1 $90 forward single #
loop $-1 $91 $92 $40 #
cone-surface $-1 -50.556856111956407 -11.570220903920371 7.3021155076432338 0.81915205242281985 0 -0.57357642473473569 0.28678821236736785 0 0.40957602621140993 1 I I 0 1 0.5 forward I I I I #
face $-1 $93 $94 $32 $-1 $95 forward single #
loop $-1 $96 $97 $41 #
cone-surface $-1 -50.556856111956407 -8.7896658838576798 7.3021155076432338 0.81915205242281985 0 -0.57357642473473569 0.28678821236736785 0 0.40957602621140993 1 I I 0 1 0.5 forward I I I I #
face $-1 $98 $99 $33 $-1 $100 reversed single #
loop $-1 $-1 $101 $42 #
plane-surface $-1 87.975505065039187 5.455776478619061 149.25267846333361 0 1 0 0.84804810408105047 0 0.52991925155115449 forward_v I I I I #
face $-1 $102 $103 $34 $-1 $104 forward single #
loop $-1 $105 $106 $43 #
cone-surface $-1 49.815688679494805 7.7323901277647131 5.7169249969768101 -0.84804810408105047 0 -0.52991925155115449 0.26495962577557725 0 -0.42402405204052523 1 I I 0 1 0.5 forward I I I I #
face $-1 $107 $108 $35 $-1 $109 forward single #
loop $-1 $110 $111 $44 #
cone-surface $-1 49.815688679494805 11.147310601483188 5.7169249969768101 -0.84804810408105047 0 -0.52991925155115449 0.26495962577557725 0 -0.42402405204052523 1 I I 0 1 0.5 forward I I I I #
face $-1 $112 $113 $27 $-1 $114 reversed single #
loop $-1 $-1 $115 $45 #
plane-surface $-1 0 0 -11.302019371672722 0 0 1 1 0 0 forward_v I I I I #
coedge $-1 $116 $117 $118 $119 forward $46 $-1 #
face $-1 $120 $121 $28 $-1 $122 reversed single #
loop $-1 $-1 $123 $48 #
plane-surface $-1 0 -19.3769120839886 -0.65497846562880291 0 0 1 1 0 0 forward_v I I I I #
coedge $-1 $124 $125 $126 $127 reversed $49 $-1 #
face $-1 $128 $129 $29 $-1 $130 reversed single #
loop $-1 $-1 $131 $51 #
plane-surface $-1 0 19.376912083988604 -0.65497846562880291 0 0 1 1 0 0 forward_v I I I I #
coedge $-1 $132 $133 $134 $135 reversed $52 $-1 #
face $-1 $136 $137 $30 $-1 $138 reversed single #
loop $-1 $-1 $139 $54 #
plane-surface $-1 -53.766289254432806 -10.179943393889026 4.4250242111350957 -0.81915205242281985 0 0.57357642473473569 0.57357642473473569 0 0.81915205242281985 forward_v I I I I #
coedge $-1 $140 $141 $142 $143 reversed $55 $-1 #
face $-1 $-1 $144 $31 $-1 $145 forward single #
loop $-1 $146 $147 $57 #
cone-surface $-1 -49.55029680952633 -11.570220903920371 6.5973151176988676 0.81915205242281985 0 -0.57357642473473569 0.14339410618368392 0 0.20478801310570496 1 I I -0.70710678118654624 0.70710678118654879 0.25 forward I I I I #
loop $-1 $-1 $148 $40 #
coedge $-1 $92 $92 $149 $150 reversed $58 $-1 #
face $-1 $-1 $151 $32 $-1 $152 forward single #
loop $-1 $153 $154 $60 #
cone-surface $-1 -49.55029680952633 -8.7896658838576798 6.5973151176988676 0.81915205242281985 0 -0.57357642473473569 0.14339410618368392 0 0.20478801310570496 1 I I -0.70710678118654624 0.70710678118654879 0.25 forward I I I I #
loop $-1 $-1 $155 $41 #
coedge $-1 $97 $97 $156 $157 reversed $61 $-1 #
face $-1 $158 $159 $33 $-1 $160 forward single #
loop $-1 $-1 $161 $63 #
plane-surface $-1 -3.2172942663510185 9.4398503646239469 92.269094942549771 0.84804810408105047 0 0.52991925155115449 0.52991925155115449 0 -0.84804810408105047 forward_v I I I I #
coedge $-1 $162 $163 $164 $165 reversed $64 $-1 #
face $-1 $-1 $166 $34 $-1 $167 forward single #
loop $-1 $168 $169 $66 #
cone-surface $-1 48.847946661739975 7.7323901277647131 5.1122126896496862 -0.84804810408105047 0 -0.52991925155115449 0.13247981288778862 0 -0.21201202602026262 1 I I -0.70710678118654746 0.70710678118654746 0.25 forward I I I I #
loop $-1 $-1 $170 $43 #
coedge $-1 $106 $106 $171 $172 reversed $67 $-1 #
face $-1 $-1 $173 $35 $-1 $174 forward single #
loop $-1 $175 $176 $69 #
cone-surface $-1 48.847946661739975 11.147310601483188 5.1122126896496862 -0.84804810408105047 0 -0.52991925155115449 0.13247981288778862 0 -0.21201202602026262 1 I I -0.70710678118654746 0.70710678118654746 0.25 forward I I I I #
loop $-1 $-1 $177 $44 #
coedge $-1 $111 $111 $178 $179 reversed $70 $-1 #
face $-1 $180 $181 $27 $-1 $182 reversed single #
loop $-1 $-1 $183 $72 #
plane-surface $-1 0 -25.329899917348367 0 0 1 0 0 0 1 forward_v I I I I #
coedge $-1 $184 $185 $186 $187 forward $73 $-1 #
coedge $-1 $188 $75 $189 $190 forward $46 $-1 #
coedge $-1 $75 $188 $191 $192 forward $46 $-1 #
coedge $-1 $193 $194 $75 $119 reversed $195 $-1 #
edge $-1 $196 -25.329899917348367 $197 25.329899917348367 $118 $198 forward 7 unknown #
face $-1 $199 $200 $28 $-1 $201 reversed single #
loop $-1 $-1 $202 $76 #
plane-surface $-1 0 -13.423924250628833 1.4526599928997825 0 -1 0 0 0 -1 forward_v I I I I #
coedge $-1 $203 $204 $205 $206 reversed $77 $-1 #
coedge $-1 $207 $79 $208 $209 forward $49 $-1 #
coedge $-1 $79 $207 $210 $211 reversed $49 $-1 #
coedge $-1 $212 $213 $79 $127 forward $214 $-1 #
edge $-1 $215 3.7354682086345328 $216 15.641443875354067 $126 $217 forward 7 unknown #
face $-1 $218 $219 $29 $-1 $220 reversed single #
loop $-1 $-1 $221 $80 #
plane-surface $-1 0 13.423924250628836 1.4526599928997825 0 1 0 0 0 1 forward_v I I I I #
coedge $-1 $222 $223 $224 $225 reversed $81 $-1 #
coedge $-1 $226 $83 $227 $228 reversed $52 $-1 #
coedge $-1 $83 $226 $221 $229 forward $52 $-1 #
coedge $-1 $230 $231 $83 $135 forward $219 $-1 #
edge $-1 $232 -15.641443875354069 $233 -3.7354682086345345 $134 $234 forward 7 unknown #
face $-1 $235 $236 $30 $-1 $237 reversed single #
loop $-1 $-1 $238 $84 #
plane-surface $-1 -141.85182164228809 -13.423924250628833 66.103176134757518 0 1 0 -0.81915205242281985 0 0.57357642473473569 forward_v I I I I #
coedge $-1 $239 $240 $241 $242 reversed $85 $-1 #
coedge $-1 $141 $87 $243 $244 reversed $55 $-1 #
coedge $-1 $87 $140 $239 $245 reversed $55 $-1 #
coedge $-1 $241 $246 $87 $143 forward $236 $-1 #
edge $-1 $247 21.749568695706039 $248 28.626563856243674 $142 $249 forward 7 unknown #
loop $-1 $-1 $149 $88 #
plane-surface $-1 -53.766289254432806 -10.179943393889026 4.4250242111350957 -0.81915205242281985 0 0.57357642473473569 0.57357642473473569 0 0.81915205242281985 forward_v I I I I #
loop $-1 $-1 $250 $57 #
coedge $-1 $147 $147 $148 $251 reversed $89 $-1 #
coedge $-1 $148 $148 $147 $251 forward $91 $-1 #
coedge $-1 $149 $149 $92 $150 forward $144 $-1 #
edge $-1 $252 0 $252 6.2831853071796004 $149 $253 forward 7 unknown #
loop $-1 $-1 $156 $93 #
plane-surface $-1 -53.766289254432806 -10.179943393889026 4.4250242111350957 -0.81915205242281985 0 0.57357642473473569 0.57357642473473569 0 0.81915205242281985 forward_v I I I I #
loop $-1 $-1 $254 $60 #
coedge $-1 $154 $154 $155 $255 reversed $94 $-1 #
coedge $-1 $155 $155 $154 $255 forward $96 $-1 #
coedge $-1 $156 $156 $97 $157 forward $151 $-1 #
edge $-1 $256 0 $256 6.2831853071796004 $156 $257 forward 7 unknown #
face $-1 $258 $259 $33 $-1 $260 forward single #
loop $-1 $-1 $261 $98 #
plane-surface $-1 0 0 11.302019371672722 0 0 1 1 0 0 forward_v I I I I #
coedge $-1 $262 $263 $264 $265 reversed $99 $-1 #
coedge $-1 $163 $101 $266 $267 reversed $64 $-1 #
coedge $-1 $101 $162 $262 $268 reversed $64 $-1 #
coedge $-1 $264 $269 $101 $165 forward $270 $-1 #
edge $-1 $271 63.324319859994084 $272 73.550043620507239 $164 $273 forward 7 unknown #
loop $-1 $-1 $171 $102 #
plane-surface $-1 -3.2172942663510185 9.4398503646239469 92.269094942549771 0.84804810408105047 0 0.52991925155115449 0.52991925155115449 0 -0.84804810408105047 forward_v I I I I #
loop $-1 $-1 $274 $66 #
coedge $-1 $169 $169 $170 $275 reversed $103 $-1 #
coedge $-1 $170 $170 $169 $275 forward $105 $-1 #
coedge $-1 $171 $171 $106 $172 forward $166 $-1 #
edge $-1 $276 0 $276 6.2831853071796004 $171 $277 forward 7 unknown #
loop $-1 $-1 $178 $107 #
plane-surface $-1 -3.2172942663510185 9.4398503646239469 92.269094942549771 0.84804810408105047 0 0.52991925155115449 0.52991925155115449 0 -0.84804810408105047 forward_v I I I I #
loop $-1 $-1 $278 $69 #
coedge $-1 $176 $176 $177 $279 reversed $108 $-1 #
coedge $-1 $177 $177 $176 $279 forward $110 $-1 #
coedge $-1 $178 $178 $111 $179 forward $173 $-1 #
edge $-1 $280 0 $280 6.2831853071796004 $178 $281 forward 7 unknown #
face $-1 $282 $283 $27 $-1 $284 reversed single #
loop $-1 $-1 $285 $112 #
plane-surface $-1 -53.766289254432813 0 0 1 0 0 0 0 -1 forward_v I I I I #
coedge $-1 $286 $191 $287 $288 forward $113 $-1 #
coedge $-1 $289 $115 $286 $290 forward $73 $-1 #
coedge $-1 $115 $289 $291 $292 forward $73 $-1 #
coedge $-1 $194 $193 $115 $187 reversed $195 $-1 #
edge $-1 $293 -25.329899917348367 $294 25.329899917348367 $186 $295 forward 7 unknown #
coedge $-1 $117 $116 $296 $297 forward $46 $-1 #
coedge $-1 $298 $299 $116 $190 reversed $283 $-1 #
edge $-1 $197 -53.766289254432813 $300 53.766289254432813 $189 $301 forward 7 unknown #
coedge $-1 $183 $302 $117 $192 reversed $113 $-1 #
edge $-1 $303 -53.766289254432813 $196 53.766289254432813 $191 $304 forward 7 unknown #
coedge $-1 $186 $118 $302 $305 forward $195 $-1 #
coedge $-1 $118 $186 $298 $306 reversed $195 $-1 #
loop $-1 $-1 $193 $282 #
vertex $-1 $119 $307 #
vertex $-1 $119 $308 #
straight-curve $-1 53.766289254432813 0 11.302019371672722 0 1 0 I I #
face $-1 $309 $310 $28 $-1 $311 reversed single #
loop $-1 $-1 $312 $120 #
plane-surface $-1 -53.766289254432813 0 0 1 0 0 0 0 -1 forward_v I I I I #
coedge $-1 $313 $208 $213 $314 reversed $121 $-1 #
coedge $-1 $315 $123 $316 $317 reversed $77 $-1 #
coedge $-1 $123 $315 $313 $318 forward $77 $-1 #
coedge $-1 $213 $212 $123 $206 forward $214 $-1 #
edge $-1 $319 -15.641443875354067 $320 -3.7354682086345328 $205 $321 forward 7 unknown #
coedge $-1 $125 $124 $312 $322 reversed $49 $-1 #
coedge $-1 $202 $323 $124 $209 reversed $121 $-1 #
edge $-1 $215 -53.766289254432813 $324 53.766289254432813 $208 $325 forward 7 unknown #
coedge $-1 $326 $327 $125 $211 forward $310 $-1 #
edge $-1 $216 -53.766289254432813 $328 53.766289254432813 $210 $329 forward 7 unknown #
coedge $-1 $205 $126 $327 $330 forward $214 $-1 #
coedge $-1 $126 $205 $202 $314 forward $214 $-1 #
loop $-1 $-1 $126 $309 #
vertex $-1 $127 $331 #
vertex $-1 $330 $332 #
straight-curve $-1 53.766289254432813 -9.6884560419943 3.560298451428368 0 -1 0 I I #
face $-1 $333 $334 $29 $-1 $335 reversed single #
loop $-1 $-1 $134 $128 #
plane-surface $-1 53.766289254432813 0 0 -1 0 0 0 0 1 forward_v I I I I #
coedge $-1 $336 $337 $133 $229 reversed $129 $-1 #
coedge $-1 $338 $131 $339 $340 forward $81 $-1 #
coedge $-1 $131 $338 $341 $342 reversed $81 $-1 #
coedge $-1 $231 $230 $131 $225 forward $219 $-1 #
edge $-1 $343 3.7354682086345345 $344 15.641443875354069 $224 $345 forward 7 unknown #
coedge $-1 $133 $132 $346 $347 reversed $52 $-1 #
coedge $-1 $348 $349 $132 $228 forward $350 $-1 #
edge $-1 $351 -53.766289254432813 $232 53.766289254432813 $227 $352 forward 7 unknown #
edge $-1 $353 -53.766289254432813 $233 53.766289254432813 $221 $354 forward 7 unknown #
coedge $-1 $224 $134 $337 $355 forward $219 $-1 #
coedge $-1 $134 $224 $348 $356 reversed $219 $-1 #
vertex $-1 $356 $357 #
vertex $-1 $135 $358 #
straight-curve $-1 53.766289254432813 9.6884560419943018 3.560298451428368 0 -1 0 I I #
face $-1 $-1 $359 $30 $-1 $360 forward single #
loop $-1 $-1 $142 $136 #
plane-surface $-1 -53.766289254432813 0 0 1 0 0 0 0 -1 forward_v I I I I #
coedge $-1 $361 $362 $363 $364 reversed $137 $-1 #
coedge $-1 $365 $139 $141 $245 forward $85 $-1 #
coedge $-1 $139 $365 $361 $366 forward $85 $-1 #
coedge $-1 $363 $142 $139 $242 forward $236 $-1 #
edge $-1 $248 1.8459908402047072 $367 8.3339525536843198 $241 $368 forward 7 unknown #
coedge $-1 $369 $370 $140 $244 forward $359 $-1 #
edge $-1 $371 -21.974945273015322 $247 -17.15962156671123 $243 $372 forward 7 unknown #
edge $-1 $248 -1.207859054955032e-014 $371 8.3952608556585098 $141 $373 forward 7 unknown #
coedge $-1 $142 $363 $369 $374 reversed $236 $-1 #
vertex $-1 $374 $375 #
vertex $-1 $143 $376 #
straight-curve $-1 -53.766289254432813 -6.9359625371492202 33.051588067378759 0 0 -1 I I #
coedge $-1 $250 $250 $-1 $377 reversed $146 $-1 #
edge $-1 $378 0 $378 6.2831853071796004 $147 $379 forward 7 unknown #
vertex $-1 $150 $380 #
ellipse-curve $-1 -51.358627401280764 -11.570220903920371 7.8635217914039082 -0.81915205242281985 0 0.57357642473473569 0.28678821236736785 0 0.40957602621140993 1 I I #
coedge $-1 $254 $254 $-1 $381 reversed $153 $-1 #
edge $-1 $382 0 $382 6.2831853071796004 $154 $383 forward 7 unknown #
vertex $-1 $157 $384 #
ellipse-curve $-1 -51.358627401280764 -8.7896658838576798 7.8635217914039082 -0.81915205242281985 0 0.57357642473473569 0.28678821236736785 0 0.40957602621140993 1 I I #
face $-1 $-1 $270 $33 $-1 $385 reversed single #
loop $-1 $-1 $386 $158 #
plane-surface $-1 0 13.423924250628836 1.4526599928997825 0 1 0 0 0 1 forward_v I I I I #
coedge $-1 $387 $388 $389 $390 forward $159 $-1 #
coedge $-1 $391 $161 $163 $268 forward $99 $-1 #
coedge $-1 $161 $391 $386 $392 forward $99 $-1 #
coedge $-1 $393 $164 $161 $265 forward $270 $-1 #
edge $-1 $272 0.73585129630708757 $394 8.7039990683168629 $264 $395 forward 7 unknown #
coedge $-1 $388 $387 $162 $267 forward $159 $-1 #
edge $-1 $396 3.3887955555063414 $271 9.7785367219132198 $266 $397 forward 7 unknown #
edge $-1 $272 -107.53257850886561 $396 -95.474626004397948 $163 $398 forward 7 unknown #
coedge $-1 $164 $393 $388 $399 reversed $270 $-1 #
loop $-1 $-1 $393 $258 #
vertex $-1 $399 $400 #
vertex $-1 $165 $401 #
straight-curve $-1 53.766289254432813 5.455776478619061 74.626339231666805 0 0 -1 I I #
coedge $-1 $274 $274 $-1 $402 reversed $168 $-1 #
edge $-1 $403 0 $403 6.2831853071796004 $169 $404 forward 7 unknown #
vertex $-1 $172 $405 #
ellipse-curve $-1 50.571418671229374 7.7323901277647131 6.189157491416144 0.84804810408105047 0 0.52991925155115449 0.26495962577557725 0 -0.42402405204052523 1 I I #
coedge $-1 $278 $278 $-1 $406 reversed $175 $-1 #
edge $-1 $407 0 $407 6.2831853071796004 $176 $408 forward 7 unknown #
vertex $-1 $179 $409 #
ellipse-curve $-1 50.571418671229374 11.147310601483188 6.189157491416144 0.84804810408105047 0 0.52991925155115449 0.26495962577557725 0 -0.42402405204052523 1 I I #
face $-1 $-1 $195 $27 $-1 $410 reversed single #
loop $-1 $-1 $298 $180 #
plane-surface $-1 0 25.329899917348367 0 0 -1 0 0 0 -1 forward_v I I I I #
coedge $-1 $411 $296 $299 $412 forward $181 $-1 #
coedge $-1 $302 $183 $184 $290 reversed $113 $-1 #
coedge $-1 $296 $411 $183 $288 reversed $181 $-1 #
edge $-1 $303 -11.302019371672722 $413 11.302019371672722 $287 $414 forward 7 unknown #
coedge $-1 $185 $184 $411 $415 forward $73 $-1 #
edge $-1 $294 -53.766289254432813 $413 53.766289254432813 $286 $416 forward 7 unknown #
coedge $-1 $299 $298 $185 $292 reversed $283 $-1 #
edge $-1 $417 -53.766289254432813 $293 53.766289254432813 $291 $418 forward 7 unknown #
vertex $-1 $187 $419 #
vertex $-1 $305 $420 #
straight-curve $-1 53.766289254432813 0 -11.302019371672722 0 -1 0 I I #
coedge $-1 $285 $287 $188 $297 reversed $181 $-1 #
edge $-1 $300 -25.329899917348367 $303 25.329899917348367 $296 $421 forward 7 unknown #
coedge $-1 $291 $189 $194 $306 forward $283 $-1 #
coedge $-1 $189 $291 $285 $412 reversed $283 $-1 #
vertex $-1 $190 $422 #
straight-curve $-1 0 25.329899917348367 11.302019371672722 -1 0 0 I I #
coedge $-1 $191 $286 $193 $305 reversed $113 $-1 #
vertex $-1 $297 $423 #
straight-curve $-1 0 -25.329899917348367 11.302019371672722 1 0 0 I I #
edge $-1 $196 -11.302019371672722 $294 11.302019371672722 $193 $424 forward 7 unknown #
edge $-1 $197 -11.302019371672722 $293 11.302019371672722 $194 $425 forward 7 unknown #
point $-1 53.766289254432813 -25.329899917348367 11.302019371672722 #
point $-1 53.766289254432813 25.329899917348367 11.302019371672722 #
face $-1 $-1 $214 $28 $-1 $426 reversed single #
loop $-1 $-1 $210 $199 #
plane-surface $-1 0 -25.329899917348367 0 0 1 0 0 0 1 forward_v I I I I #
coedge $-1 $427 $428 $207 $322 forward $200 $-1 #
coedge $-1 $323 $202 $204 $318 reversed $121 $-1 #
edge $-1 $320 -1.3813084620786942 $215 2.8339684549784767 $213 $429 forward 7 unknown #
coedge $-1 $204 $203 $430 $431 reversed $77 $-1 #
coedge $-1 $327 $326 $203 $317 forward $310 $-1 #
edge $-1 $432 -53.766289254432813 $319 53.766289254432813 $316 $433 forward 7 unknown #
edge $-1 $434 -53.766289254432813 $320 53.766289254432813 $313 $435 forward 7 unknown #
vertex $-1 $317 $436 #
vertex $-1 $206 $437 #
straight-curve $-1 53.766289254432813 -9.6884560419943 -0.65497846562880291 0 1 0 I I #
edge $-1 $328 -15.641443875354067 $324 -3.7354682086345328 $312 $438 forward 7 unknown #
coedge $-1 $208 $313 $427 $439 reversed $121 $-1 #
vertex $-1 $322 $440 #
straight-curve $-1 0 -13.423924250628833 3.560298451428368 -1 0 0 I I #
coedge $-1 $316 $210 $428 $441 forward $310 $-1 #
coedge $-1 $210 $316 $212 $330 reversed $310 $-1 #
vertex $-1 $441 $442 #
straight-curve $-1 0 -25.329899917348367 3.560298451428368 -1 0 0 I I #
edge $-1 $216 -3.560298451428368 $319 0.65497846562880291 $212 $443 forward 7 unknown #
point $-1 53.766289254432813 -13.423924250628833 3.560298451428368 #
point $-1 53.766289254432813 -25.329899917348367 3.560298451428368 #
face $-1 $-1 $350 $29 $-1 $444 reversed single #
loop $-1 $-1 $346 $218 #
plane-surface $-1 -53.766289254432813 0 0 1 0 0 0 0 -1 forward_v I I I I #
coedge $-1 $339 $221 $445 $446 reversed $129 $-1 #
coedge $-1 $221 $339 $230 $355 reversed $129 $-1 #
coedge $-1 $223 $222 $447 $448 reversed $81 $-1 #
coedge $-1 $337 $336 $222 $340 reversed $129 $-1 #
edge $-1 $343 -53.766289254432813 $449 53.766289254432813 $339 $450 forward 7 unknown #
coedge $-1 $349 $348 $223 $342 forward $350 $-1 #
edge $-1 $344 -53.766289254432813 $451 53.766289254432813 $341 $452 forward 7 unknown #
vertex $-1 $225 $453 #
vertex $-1 $342 $454 #
straight-curve $-1 53.766289254432813 9.6884560419943018 -0.65497846562880291 0 1 0 I I #
coedge $-1 $455 $445 $226 $347 forward $334 $-1 #
edge $-1 $353 3.7354682086345345 $351 15.641443875354069 $346 $456 forward 7 unknown #
coedge $-1 $341 $227 $231 $356 forward $350 $-1 #
coedge $-1 $227 $341 $455 $457 reversed $350 $-1 #
loop $-1 $-1 $227 $333 #
vertex $-1 $457 $458 #
straight-curve $-1 0 25.329899917348367 3.560298451428368 1 0 0 I I #
vertex $-1 $347 $459 #
straight-curve $-1 0 13.423924250628836 3.560298451428368 1 0 0 I I #
edge $-1 $233 -2.8339684549784767 $343 1.3813084620786942 $230 $460 forward 7 unknown #
edge $-1 $232 -3.560298451428368 $344 0.65497846562880291 $231 $461 forward 7 unknown #
point $-1 53.766289254432813 25.329899917348371 3.560298451428368 #
point $-1 53.766289254432813 13.423924250628836 3.560298451428368 #
loop $-1 $-1 $243 $235 #
plane-surface $-1 0 0 11.302019371672722 0 0 1 1 0 0 forward_v I I I I #
coedge $-1 $362 $238 $240 $366 reversed $137 $-1 #
coedge $-1 $238 $361 $462 $463 reversed $137 $-1 #
coedge $-1 $246 $241 $238 $364 forward $236 $-1 #
edge $-1 $367 -28.626563856243674 $464 -21.749568695706039 $363 $465 forward 7 unknown #
coedge $-1 $240 $239 $370 $466 reversed $85 $-1 #
edge $-1 $467 -8.3952608556585098 $367 1.207859054955032e-014 $361 $468 forward 7 unknown #
vertex $-1 $242 $469 #
straight-curve $-1 -53.766289254432813 -5.089971696944513 4.4250242111350833 0 -1 0 I I #
coedge $-1 $462 $243 $246 $374 forward $359 $-1 #
coedge $-1 $243 $462 $365 $466 forward $359 $-1 #
vertex $-1 $244 $470 #
straight-curve $-1 -70.925910821144043 -6.9359625371492202 11.302019371672721 -1 0 0 I I #
straight-curve $-1 -53.766289254432806 -6.9359625371492202 4.4250242111350957 0.57357642473473569 0 0.81915205242281985 I I #
edge $-1 $247 6.9359625371492202 $464 13.423924250628833 $246 $471 forward 7 unknown #
point $-1 -53.766289254432813 -6.9359625371492202 11.302019371672722 #
point $-1 -53.766289254432813 -6.9359625371492202 4.4250242111350859 #
edge $-1 $472 1 $472 0 $250 $-1 forward 7 unknown #
vertex $-1 $251 $473 #
ellipse-curve $-1 -49.755084822632035 -11.570220903920371 6.7407092238825523 -0.81915205242281985 0 0.57357642473473569 0.28678821236736785 0 0.40957602621140993 1 I I #
point $-1 -51.071839188913401 -11.570220903920371 8.2730978176153247 #
edge $-1 $474 1 $474 0 $254 $-1 forward 7 unknown #
vertex $-1 $255 $475 #
ellipse-curve $-1 -49.755084822632035 -8.7896658838576798 6.7407092238825523 -0.81915205242281985 0 0.57357642473473569 0.28678821236736785 0 0.40957602621140993 1 I I #
point $-1 -51.071839188913401 -8.7896658838576798 8.2730978176153247 #
plane-surface $-1 53.766289254432813 0 0 -1 0 0 0 0 1 forward_v I I I I #
coedge $-1 $389 $476 $263 $392 reversed $259 $-1 #
coedge $-1 $266 $261 $391 $477 forward $159 $-1 #
coedge $-1 $261 $266 $269 $399 forward $159 $-1 #
coedge $-1 $476 $386 $261 $390 reversed $259 $-1 #
edge $-1 $478 -9.7785367219132198 $479 -3.3887955555063414 $261 $480 forward 7 unknown #
coedge $-1 $263 $262 $387 $477 reversed $99 $-1 #
edge $-1 $479 95.474626004397948 $394 107.53257850886561 $386 $481 forward 7 unknown #
coedge $-1 $269 $264 $476 $482 forward $270 $-1 #
vertex $-1 $482 $483 #
straight-curve $-1 53.766289254432813 4.7199251823119734 1.0762956111595656 0 1 0 I I #
vertex $-1 $267 $484 #
straight-curve $-1 43.987752532519593 5.455776478619061 11.302019371672728 1 0 0 I I #
straight-curve $-1 -3.2172942663510185 5.455776478619061 92.269094942549771 -0.52991925155115449 0 0.84804810408105047 I I #
edge $-1 $271 5.455776478619061 $478 13.423924250628833 $269 $485 forward 7 unknown #
point $-1 53.766289254432813 5.455776478619061 11.302019371672722 #
point $-1 53.766289254432813 5.455776478619061 1.0762956111595656 #
edge $-1 $486 1 $486 0 $274 $-1 forward 7 unknown #
vertex $-1 $275 $487 #
ellipse-curve $-1 49.059958687760236 7.7323901277647131 5.2446925025374744 0.84804810408105047 0 0.52991925155115449 0.26495962577557725 0 -0.42402405204052523 1 I I #
point $-1 50.836378297004956 7.7323901277647131 5.7651334393756208 #
edge $-1 $488 1 $488 0 $278 $-1 forward 7 unknown #
vertex $-1 $279 $489 #
ellipse-curve $-1 49.059958687760236 11.147310601483188 5.2446925025374744 0.84804810408105047 0 0.52991925155115449 0.26495962577557725 0 -0.42402405204052523 1 I I #
point $-1 50.836378297004956 11.147310601483188 5.7651334393756208 #
plane-surface $-1 53.766289254432813 0 0 -1 0 0 0 0 1 forward_v I I I I #
coedge $-1 $287 $285 $289 $415 reversed $181 $-1 #
edge $-1 $300 -11.302019371672722 $417 11.302019371672722 $299 $490 forward 7 unknown #
vertex $-1 $415 $491 #
straight-curve $-1 -53.766289254432813 -25.329899917348367 0 0 0 -1 I I #
edge $-1 $413 -25.329899917348367 $417 25.329899917348367 $411 $492 forward 7 unknown #
straight-curve $-1 0 -25.329899917348367 -11.302019371672722 -1 0 0 I I #
vertex $-1 $292 $493 #
straight-curve $-1 0 25.329899917348367 -11.302019371672722 1 0 0 I I #
point $-1 53.766289254432813 25.329899917348367 -11.302019371672722 #
point $-1 53.766289254432813 -25.329899917348367 -11.302019371672722 #
straight-curve $-1 -53.766289254432813 0 11.302019371672722 0 -1 0 I I #
point $-1 -53.766289254432813 25.329899917348367 11.302019371672722 #
point $-1 -53.766289254432813 -25.329899917348367 11.302019371672722 #
straight-curve $-1 53.766289254432813 -25.329899917348367 0 0 0 -1 I I #
straight-curve $-1 53.766289254432813 25.329899917348367 0 0 0 -1 I I #
plane-surface $-1 53.766289254432813 0 0 -1 0 0 0 0 1 forward_v I I I I #
coedge $-1 $430 $312 $323 $439 forward $200 $-1 #
coedge $-1 $312 $430 $326 $441 reversed $200 $-1 #
straight-curve $-1 53.766289254432813 -13.423924250628833 0.72632999644989127 0 0 1 I I #
coedge $-1 $428 $427 $315 $431 forward $200 $-1 #
edge $-1 $434 3.7354682086345328 $432 15.641443875354067 $430 $494 forward 7 unknown #
vertex $-1 $317 $495 #
straight-curve $-1 0 -25.329899917348367 -0.65497846562880291 1 0 0 I I #
vertex $-1 $431 $496 #
straight-curve $-1 0 -13.423924250628833 -0.65497846562880291 1 0 0 I I #
point $-1 53.766289254432813 -25.329899917348367 -0.65497846562880291 #
point $-1 53.766289254432813 -13.423924250628833 -0.65497846562880291 #
straight-curve $-1 -53.766289254432813 -9.6884560419943 3.560298451428368 0 1 0 I I #
edge $-1 $324 -2.8339684549784767 $434 1.3813084620786942 $427 $497 forward 7 unknown #
point $-1 -53.766289254432813 -13.423924250628833 3.560298451428368 #
edge $-1 $328 -3.560298451428368 $432 0.65497846562880291 $428 $498 forward 7 unknown #
point $-1 -53.766289254432813 -25.329899917348367 3.560298451428368 #
straight-curve $-1 53.766289254432813 -25.329899917348367 0 0 0 -1 I I #
plane-surface $-1 0 25.329899917348367 0 0 -1 0 0 0 -1 forward_v I I I I #
coedge $-1 $346 $447 $336 $446 forward $334 $-1 #
edge $-1 $449 -1.3813084620786942 $353 2.8339684549784767 $445 $499 forward 7 unknown #
coedge $-1 $445 $455 $338 $448 forward $334 $-1 #
edge $-1 $451 -15.641443875354069 $449 -3.7354682086345345 $447 $500 forward 7 unknown #
vertex $-1 $448 $501 #
straight-curve $-1 0 13.423924250628836 -0.65497846562880291 -1 0 0 I I #
vertex $-1 $342 $502 #
straight-curve $-1 0 25.329899917348367 -0.65497846562880291 -1 0 0 I I #
point $-1 53.766289254432813 13.423924250628836 -0.65497846562880291 #
point $-1 53.766289254432813 25.329899917348371 -0.65497846562880291 #
coedge $-1 $447 $346 $349 $457 forward $334 $-1 #
straight-curve $-1 -53.766289254432813 9.6884560419943018 3.560298451428368 0 1 0 I I #
edge $-1 $351 -3.560298451428368 $451 0.65497846562880291 $349 $503 forward 7 unknown #
point $-1 -53.766289254432813 25.329899917348371 3.560298451428368 #
point $-1 -53.766289254432813 13.423924250628836 3.560298451428368 #
straight-curve $-1 53.766289254432813 13.423924250628836 0.72632999644989127 0 0 -1 I I #
straight-curve $-1 53.766289254432813 25.329899917348367 0 0 0 -1 I I #
coedge $-1 $370 $369 $362 $463 forward $359 $-1 #
edge $-1 $464 17.15962156671123 $467 21.974945273015322 $462 $504 forward 7 unknown #
vertex $-1 $463 $505 #
straight-curve $-1 -53.766289254432813 -13.423924250628833 33.051588067378759 0 0 1 I I #
edge $-1 $467 -8.3339525536843198 $371 -1.8459908402047072 $370 $506 forward 7 unknown #
vertex $-1 $466 $507 #
straight-curve $-1 -53.766289254432806 -13.423924250628833 4.4250242111350957 -0.57357642473473569 0 -0.81915205242281985 I I #
point $-1 -53.766289254432813 -13.423924250628833 4.4250242111350859 #
point $-1 -48.950965548128721 -6.9359625371492202 11.302019371672722 #
straight-curve $-1 -53.766289254432813 0 11.302019371672722 0 -1 0 I I #
vertex $-1 $377 $508 #
point $-1 -49.468296610264666 -11.570220903920371 7.1502852500939618 #
vertex $-1 $381 $509 #
point $-1 -49.468296610264666 -8.7896658838576798 7.1502852500939618 #
coedge $-1 $386 $389 $393 $482 reversed $259 $-1 #
edge $-1 $479 -8.7039990683168593 $396 -0.73585129630708757 $387 $510 forward 7 unknown #
vertex $-1 $482 $511 #
vertex $-1 $477 $512 #
straight-curve $-1 43.987752532519593 13.423924250628833 11.302019371672728 -1 0 0 I I #
straight-curve $-1 -3.2172942663510185 13.423924250628833 92.269094942549771 0.52991925155115449 0 -0.84804810408105047 I I #
edge $-1 $394 -73.550043620507239 $478 -63.324319859994084 $393 $513 forward 7 unknown #
point $-1 53.766289254432813 13.423924250628836 1.0762956111595621 #
point $-1 47.376548088025935 5.455776478619061 11.302019371672728 #
straight-curve $-1 53.766289254432813 0 11.302019371672722 0 1 0 I I #
vertex $-1 $402 $514 #
point $-1 49.324918313535818 7.7323901277647131 4.8206684504969495 #
vertex $-1 $406 $515 #
point $-1 49.324918313535818 11.147310601483188 4.8206684504969495 #
straight-curve $-1 -53.766289254432813 25.329899917348367 0 0 0 -1 I I #
point $-1 -53.766289254432813 -25.329899917348367 -11.302019371672722 #
straight-curve $-1 -53.766289254432813 0 -11.302019371672722 0 1 0 I I #
point $-1 -53.766289254432813 25.329899917348367 -11.302019371672722 #
straight-curve $-1 -53.766289254432813 -9.6884560419943 -0.65497846562880291 0 -1 0 I I #
point $-1 -53.766289254432813 -25.329899917348367 -0.65497846562880291 #
point $-1 -53.766289254432813 -13.423924250628833 -0.65497846562880291 #
straight-curve $-1 -53.766289254432813 -13.423924250628833 0.72632999644989127 0 0 -1 I I #
straight-curve $-1 -53.766289254432813 -25.329899917348367 0 0 0 -1 I I #
straight-curve $-1 -53.766289254432813 13.423924250628836 0.72632999644989127 0 0 1 I I #
straight-curve $-1 -53.766289254432813 9.6884560419943018 -0.65497846562880291 0 -1 0 I I #
point $-1 -53.766289254432813 13.423924250628836 -0.65497846562880291 #
point $-1 -53.766289254432813 25.329899917348371 -0.65497846562880291 #
straight-curve $-1 -53.766289254432813 25.329899917348367 0 0 0 -1 I I #
straight-curve $-1 -70.925910821144043 -13.423924250628833 11.302019371672721 1 0 0 I I #
point $-1 -53.766289254432813 -13.423924250628833 11.302019371672722 #
straight-curve $-1 -48.950965548128728 -5.089971696944513 11.302019371672722 0 1 0 I I #
point $-1 -48.950965548128721 -13.423924250628833 11.302019371672722 #
point $-1 -49.345508796420624 -11.570220903920371 6.4539210115151828 #
point $-1 -49.345508796420624 -8.7896658838576798 6.4539210115151828 #
straight-curve $-1 47.376548088025942 4.7199251823119734 11.302019371672721 0 -1 0 I I #
point $-1 53.766289254432813 13.423924250628833 11.302019371672722 #
point $-1 47.376548088025935 13.423924250628833 11.302019371672728 #
straight-curve $-1 53.766289254432813 13.423924250628833 74.626339231666805 0 0 1 I I #
point $-1 48.635934635719714 7.7323901277647131 4.979732876761898 #
point $-1 48.635934635719714 11.147310601483188 4.979732876761898 #
End-of-ACIS-data 