500 0 14 0           
7 Unknown 11 ACIS 5.0 NT 24 Thu Mar 25 18:40:33 1999 
-1 9.9999999999999995e-007 1e-010 
body $-1 $14 $-1 $15 #
body $-1 $16 $-1 $17 #
body $-1 $18 $-1 $19 #
body $-1 $20 $-1 $21 #
body $-1 $22 $-1 $23 #
body $-1 $24 $-1 $25 #
body $-1 $26 $-1 $27 #
body $-1 $28 $-1 $29 #
body $-1 $30 $-1 $31 #
body $-1 $32 $-1 $33 #
body $-1 $34 $-1 $35 #
body $-1 $36 $-1 $37 #
body $-1 $38 $-1 $39 #
body $-1 $40 $-1 $41 #
lump $-1 $-1 $42 $0 #
transform $-1 1 0 0 0 1 0 0 0 1 49.46928312021241 27.733264874213869 6.6293395933032491 1 rotate no_reflect no_shear #
lump $-1 $-1 $43 $1 #
transform $-1 1 0 0 0 1 0 0 0 1 49.46928312021241 27.733264874213869 6.6293395933032491 1 rotate no_reflect no_shear #
lump $-1 $-1 $44 $2 #
transform $-1 1 0 0 0 1 0 0 0 1 49.46928312021241 27.733264874213869 6.6293395933032491 1 rotate no_reflect no_shear #
lump $-1 $-1 $45 $3 #
transform $-1 1 0 0 0 1 0 0 0 1 49.46928312021241 27.733264874213869 6.6293395933032491 1 rotate no_reflect no_shear #
lump $-1 $-1 $46 $4 #
transform $-1 1 0 0 0 1 0 0 0 1 49.46928312021241 27.733264874213869 6.6293395933032491 1 rotate no_reflect no_shear #
lump $-1 $-1 $47 $5 #
transform $-1 1 0 0 0 1 0 0 0 1 49.46928312021241 27.733264874213869 6.6293395933032491 1 rotate no_reflect no_shear #
lump $-1 $-1 $48 $6 #
transform $-1 1 0 0 0 1 0 0 0 1 49.46928312021241 27.733264874213869 6.6293395933032491 1 rotate no_reflect no_shear #
lump $-1 $-1 $49 $7 #
transform $-1 1 0 0 0 1 0 0 0 1 49.46928312021241 27.733264874213869 6.6293395933032491 1 rotate no_reflect no_shear #
lump $-1 $-1 $50 $8 #
transform $-1 1 0 0 0 1 0 0 0 1 49.46928312021241 27.733264874213869 6.6293395933032491 1 rotate no_reflect no_shear #
lump $-1 $-1 $51 $9 #
transform $-1 1 0 0 0 1 0 0 0 1 49.46928312021241 27.733264874213869 6.6293395933032491 1 rotate no_reflect no_shear #
lump $-1 $-1 $52 $10 #
transform $-1 1 0 0 0 1 0 0 0 1 49.46928312021241 27.733264874213869 6.6293395933032491 1 rotate no_reflect no_shear #
lump $-1 $-1 $53 $11 #
transform $-1 1 0 0 0 1 0 0 0 1 49.46928312021241 27.733264874213869 6.6293395933032491 1 rotate no_reflect no_shear #
lump $-1 $-1 $54 $12 #
transform $-1 1 0 0 0 1 0 0 0 1 49.46928312021241 27.733264874213869 6.6293395933032491 1 rotate no_reflect no_shear #
lump $-1 $-1 $55 $13 #
transform $-1 1 0 0 0 1 0 0 0 1 49.46928312021241 27.733264874213869 6.6293395933032491 1 rotate no_reflect no_shear #
shell $-1 $-1 $-1 $56 $-1 $14 #
shell $-1 $-1 $-1 $57 $-1 $16 #
shell $-1 $-1 $-1 $58 $-1 $18 #
shell $-1 $-1 $-1 $59 $-1 $20 #
shell $-1 $-1 $-1 $60 $-1 $22 #
shell $-1 $-1 $-1 $61 $-1 $24 #
shell $-1 $-1 $-1 $62 $-1 $26 #
shell $-1 $-1 $-1 $63 $-1 $28 #
shell $-1 $-1 $-1 $64 $-1 $30 #
shell $-1 $-1 $-1 $65 $-1 $32 #
shell $-1 $-1 $-1 $66 $-1 $34 #
shell $-1 $-1 $-1 $67 $-1 $36 #
shell $-1 $-1 $-1 $68 $-1 $38 #
shell $-1 $-1 $-1 $69 $-1 $40 #
face $-1 $70 $71 $42 $-1 $72 forward single #
face $-1 $73 $74 $43 $-1 $75 reversed single #
face $-1 $76 $77 $44 $-1 $78 reversed single #
face $-1 $79 $80 $45 $-1 $81 forward single #
face $-1 $82 $83 $46 $-1 $84 forward single #
face $-1 $85 $86 $47 $-1 $87 forward single #
face $-1 $88 $89 $48 $-1 $90 reversed single #
face $-1 $91 $92 $49 $-1 $93 forward single #
face $-1 $94 $95 $50 $-1 $96 reversed single #
face $-1 $97 $98 $51 $-1 $99 forward single #
face $-1 $100 $101 $52 $-1 $102 reversed single #
face $-1 $103 $104 $53 $-1 $105 forward single #
face $-1 $106 $107 $54 $-1 $108 reversed single #
face $-1 $109 $110 $55 $-1 $111 forward single #
face $-1 $112 $113 $42 $-1 $114 reversed single #
loop $-1 $-1 $115 $56 #
plane-surface $-1 0 0 6.6293395933032491 0 0 1 1 0 0 forward_v I I I I #
face $-1 $116 $117 $43 $-1 $118 reversed single #
loop $-1 $-1 $119 $57 #
plane-surface $-1 0 -23.945297416568508 3.6293395933032491 0 0 1 1 0 0 forward_v I I I I #
face $-1 $120 $121 $44 $-1 $122 reversed single #
loop $-1 $-1 $123 $58 #
plane-surface $-1 25.172385810697975 5.4338468969912448 139.55689399121371 0 -1 0 -0.57357644374324357 0 -0.81915203911291934 forward_v I I I I #
face $-1 $124 $125 $45 $-1 $126 forward single #
loop $-1 $127 $128 $59 #
cone-surface $-1 44.886901938257729 -6.0372204442063477 2.6149064778571693 -0.57357644374324357 0 -0.81915203911291934 0.81915203911291934 0 -0.57357644374324357 1 I I 0 1 1 forward I I I I #
face $-1 $129 $130 $46 $-1 $131 forward single #
loop $-1 $132 $133 $60 #
cone-surface $-1 44.886901938257729 -1.7355701912572528 2.6149064778571693 -0.57357644374324357 0 -0.81915203911291934 0.81915203911291934 0 -0.57357644374324357 1 I I 0 1 1 forward I I I I #
face $-1 $134 $135 $47 $-1 $136 forward single #
loop $-1 $137 $138 $61 #
cone-surface $-1 44.886901938257729 2.5660800616918422 2.6149064778571693 -0.57357644374324357 0 -0.81915203911291934 0.81915203911291934 0 -0.57357644374324357 1 I I 0 1 1 forward I I I I #
face $-1 $139 $140 $48 $-1 $141 reversed single #
loop $-1 $-1 $142 $62 #
plane-surface $-1 -115.67210673715709 -17.488019781935094 75.740480472068214 0 1 0 -0.66913061440640931 0 0.74314481823134659 forward_v I I I I #
face $-1 $143 $144 $49 $-1 $145 forward single #
loop $-1 $146 $147 $63 #
cone-surface $-1 -46.306861906273326 -14.430436283614409 3.6324248041677394 0.66913061440640931 0 -0.74314481823134659 1.1147172273470198 0 1.003695921609614 1 I I 0 1 1.5 forward I I I I #
face $-1 $148 $149 $50 $-1 $150 reversed single #
loop $-1 $-1 $151 $64 #
plane-surface $-1 -115.67210673715709 -5.3424172877619132 75.740480472068214 0 1 0 -0.66913061440640931 0 0.74314481823134659 forward_v I I I I #
face $-1 $152 $153 $51 $-1 $154 forward single #
loop $-1 $155 $156 $65 #
cone-surface $-1 -46.306861906273326 -2.2848337894412261 3.6324248041677394 0.66913061440640931 0 -0.74314481823134659 1.1147172273470198 0 1.003695921609614 1 I I 0 1 1.5 forward I I I I #
face $-1 $157 $158 $52 $-1 $159 reversed single #
loop $-1 $-1 $160 $66 #
plane-surface $-1 -115.67210673715709 6.8031852064112659 75.740480472068214 0 1 0 -0.66913061440640931 0 0.74314481823134659 forward_v I I I I #
face $-1 $161 $162 $53 $-1 $163 forward single #
loop $-1 $164 $165 $67 #
cone-surface $-1 -46.306861906273326 9.8607687047319565 3.6324248041677394 0.66913061440640931 0 -0.74314481823134659 1.1147172273470198 0 1.003695921609614 1 I I 0 1 1.5 forward I I I I #
face $-1 $166 $167 $54 $-1 $168 reversed single #
loop $-1 $-1 $169 $68 #
plane-surface $-1 -115.67210673715709 18.948787700584447 75.740480472068214 0 1 0 -0.66913061440640931 0 0.74314481823134659 forward_v I I I I #
face $-1 $170 $171 $55 $-1 $172 forward single #
loop $-1 $173 $174 $69 #
cone-surface $-1 -46.306861906273326 22.006371198905139 3.6324248041677394 0.66913061440640931 0 -0.74314481823134659 1.1147172273470198 0 1.003695921609614 1 I I 0 1 1.5 forward I I I I #
face $-1 $175 $176 $42 $-1 $177 reversed single #
loop $-1 $-1 $178 $70 #
plane-surface $-1 0 0 -6.6293395933032491 0 0 1 1 0 0 forward_v I I I I #
coedge $-1 $179 $180 $181 $182 forward $71 $-1 #
face $-1 $183 $184 $43 $-1 $185 reversed single #
loop $-1 $-1 $186 $73 #
plane-surface $-1 0 -20.157329958923146 5.1293395933032491 0 -1 0 0 0 -1 forward_v I I I I #
coedge $-1 $187 $188 $189 $190 reversed $74 $-1 #
face $-1 $191 $192 $44 $-1 $193 reversed single #
loop $-1 $-1 $194 $76 #
plane-surface $-1 -31.576445162540232 -1.7355701912572492 58.511165708461078 0.57357644374324357 0 0.81915203911291934 0.81915203911291934 0 -0.57357644374324357 forward_v I I I I #
coedge $-1 $195 $196 $197 $198 reversed $77 $-1 #
face $-1 $-1 $199 $45 $-1 $200 forward single #
loop $-1 $201 $202 $79 #
cone-surface $-1 43.493134111116206 -6.0372204442063477 0.62439977189481599 -0.57357644374324357 0 -0.81915203911291934 0.40957601955645967 0 -0.28678822187162178 1 I I -0.70710678118654746 0.70710678118654746 0.5 forward I I I I #
loop $-1 $-1 $203 $59 #
coedge $-1 $128 $128 $204 $205 reversed $80 $-1 #
face $-1 $-1 $206 $46 $-1 $207 forward single #
loop $-1 $208 $209 $82 #
cone-surface $-1 43.493134111116206 -1.7355701912572528 0.62439977189481599 -0.57357644374324357 0 -0.81915203911291934 0.40957601955645967 0 -0.28678822187162178 1 I I -0.70710678118654746 0.70710678118654746 0.5 forward I I I I #
loop $-1 $-1 $210 $60 #
coedge $-1 $133 $133 $211 $212 reversed $83 $-1 #
face $-1 $-1 $213 $47 $-1 $214 forward single #
loop $-1 $215 $216 $85 #
cone-surface $-1 43.493134111116206 2.5660800616918422 0.62439977189481599 -0.57357644374324357 0 -0.81915203911291934 0.40957601955645967 0 -0.28678822187162178 1 I I -0.70710678118654746 0.70710678118654746 0.5 forward I I I I #
loop $-1 $-1 $217 $61 #
coedge $-1 $138 $138 $218 $219 reversed $86 $-1 #
face $-1 $220 $221 $48 $-1 $222 reversed single #
loop $-1 $-1 $223 $88 #
plane-surface $-1 -49.46928312021241 -14.43043628361441 2.2147976472576687 -0.66913061440640931 0 0.74314481823134659 0.74314481823134659 0 0.66913061440640931 forward_v I I I I #
coedge $-1 $224 $225 $226 $227 reversed $89 $-1 #
face $-1 $-1 $228 $49 $-1 $229 forward single #
loop $-1 $230 $231 $91 #
cone-surface $-1 -45.094015444402153 -14.430436283614409 2.2854223743815139 0.66913061440640931 0 -0.74314481823134659 0.55735861367350992 0 0.50184796080480698 1 I I -0.70710678118654757 0.70710678118654757 0.75 forward I I I I #
loop $-1 $-1 $232 $63 #
coedge $-1 $147 $147 $233 $234 reversed $92 $-1 #
face $-1 $235 $236 $50 $-1 $237 reversed single #
loop $-1 $-1 $238 $94 #
plane-surface $-1 -49.46928312021241 -2.2848337894412296 2.2147976472576687 -0.66913061440640931 0 0.74314481823134659 0.74314481823134659 0 0.66913061440640931 forward_v I I I I #
coedge $-1 $239 $240 $241 $242 reversed $95 $-1 #
face $-1 $-1 $243 $51 $-1 $244 forward single #
loop $-1 $245 $246 $97 #
cone-surface $-1 -45.094015444402153 -2.2848337894412261 2.2854223743815139 0.66913061440640931 0 -0.74314481823134659 0.55735861367350992 0 0.50184796080480698 1 I I -0.70710678118654757 0.70710678118654757 0.75 forward I I I I #
loop $-1 $-1 $247 $65 #
coedge $-1 $156 $156 $248 $249 reversed $98 $-1 #
face $-1 $250 $251 $52 $-1 $252 reversed single #
loop $-1 $-1 $253 $100 #
plane-surface $-1 -49.46928312021241 9.8607687047319494 2.2147976472576687 -0.66913061440640931 0 0.74314481823134659 0.74314481823134659 0 0.66913061440640931 forward_v I I I I #
coedge $-1 $254 $255 $256 $257 reversed $101 $-1 #
face $-1 $-1 $258 $53 $-1 $259 forward single #
loop $-1 $260 $261 $103 #
cone-surface $-1 -45.094015444402153 9.8607687047319565 2.2854223743815139 0.66913061440640931 0 -0.74314481823134659 0.55735861367350992 0 0.50184796080480698 1 I I -0.70710678118654757 0.70710678118654757 0.75 forward I I I I #
loop $-1 $-1 $262 $67 #
coedge $-1 $165 $165 $263 $264 reversed $104 $-1 #
face $-1 $265 $266 $54 $-1 $267 reversed single #
loop $-1 $-1 $268 $106 #
plane-surface $-1 -49.46928312021241 22.006371198905132 2.2147976472576687 -0.66913061440640931 0 0.74314481823134659 0.74314481823134659 0 0.66913061440640931 forward_v I I I I #
coedge $-1 $269 $270 $271 $272 reversed $107 $-1 #
face $-1 $-1 $273 $55 $-1 $274 forward single #
loop $-1 $275 $276 $109 #
cone-surface $-1 -45.094015444402153 22.006371198905139 2.2854223743815139 0.66913061440640931 0 -0.74314481823134659 0.55735861367350992 0 0.50184796080480698 1 I I -0.70710678118654757 0.70710678118654757 0.75 forward I I I I #
loop $-1 $-1 $277 $69 #
coedge $-1 $174 $174 $278 $279 reversed $110 $-1 #
face $-1 $280 $281 $42 $-1 $282 reversed single #
loop $-1 $-1 $283 $112 #
plane-surface $-1 0 -27.733264874213869 0 0 1 0 0 0 1 forward_v I I I I #
coedge $-1 $284 $285 $286 $287 forward $113 $-1 #
coedge $-1 $288 $115 $289 $290 forward $71 $-1 #
coedge $-1 $115 $288 $291 $292 forward $71 $-1 #
coedge $-1 $293 $294 $115 $182 reversed $295 $-1 #
edge $-1 $296 -27.733264874213869 $297 27.733264874213869 $181 $298 forward 7 unknown #
face $-1 $299 $300 $43 $-1 $301 reversed single #
loop $-1 $-1 $302 $116 #
plane-surface $-1 -49.46928312021241 0 0 1 0 0 0 0 -1 forward_v I I I I #
coedge $-1 $303 $304 $305 $306 reversed $117 $-1 #
coedge $-1 $307 $119 $308 $309 reversed $74 $-1 #
coedge $-1 $119 $307 $303 $310 forward $74 $-1 #
coedge $-1 $305 $311 $119 $190 forward $312 $-1 #
edge $-1 $313 -15.760616165929616 $314 -8.1846812506388922 $189 $315 forward 7 unknown #
face $-1 $316 $317 $44 $-1 $318 reversed single #
loop $-1 $-1 $319 $120 #
plane-surface $-1 25.172385810697975 -8.9049872795057432 139.55689399121371 0 1 0 0.57357644374324357 0 0.81915203911291934 forward_v I I I I #
coedge $-1 $320 $321 $322 $323 reversed $121 $-1 #
coedge $-1 $196 $123 $324 $325 reversed $77 $-1 #
coedge $-1 $123 $195 $320 $326 reversed $77 $-1 #
coedge $-1 $322 $327 $123 $198 forward $328 $-1 #
edge $-1 $329 -36.883090214863422 $330 -29.932287061493881 $197 $331 forward 7 unknown #
loop $-1 $-1 $204 $124 #
plane-surface $-1 -31.576445162540232 -1.7355701912572492 58.511165708461078 0.57357644374324357 0 0.81915203911291934 0.81915203911291934 0 -0.57357644374324357 forward_v I I I I #
loop $-1 $-1 $332 $79 #
coedge $-1 $202 $202 $203 $333 reversed $125 $-1 #
coedge $-1 $203 $203 $202 $333 forward $127 $-1 #
coedge $-1 $204 $204 $128 $205 forward $199 $-1 #
edge $-1 $334 0 $334 6.2831853071796004 $204 $335 forward 7 unknown #
loop $-1 $-1 $211 $129 #
plane-surface $-1 -31.576445162540232 -1.7355701912572492 58.511165708461078 0.57357644374324357 0 0.81915203911291934 0.81915203911291934 0 -0.57357644374324357 forward_v I I I I #
loop $-1 $-1 $336 $82 #
coedge $-1 $209 $209 $210 $337 reversed $130 $-1 #
coedge $-1 $210 $210 $209 $337 forward $132 $-1 #
coedge $-1 $211 $211 $133 $212 forward $206 $-1 #
edge $-1 $338 0 $338 6.2831853071796004 $211 $339 forward 7 unknown #
loop $-1 $-1 $218 $134 #
plane-surface $-1 -31.576445162540232 -1.7355701912572492 58.511165708461078 0.57357644374324357 0 0.81915203911291934 0.81915203911291934 0 -0.57357644374324357 forward_v I I I I #
loop $-1 $-1 $340 $85 #
coedge $-1 $216 $216 $217 $341 reversed $135 $-1 #
coedge $-1 $217 $217 $216 $341 forward $137 $-1 #
coedge $-1 $218 $218 $138 $219 forward $213 $-1 #
edge $-1 $342 0 $342 6.2831853071796004 $218 $343 forward 7 unknown #
face $-1 $344 $345 $48 $-1 $346 forward single #
loop $-1 $-1 $347 $139 #
plane-surface $-1 -115.67210673715709 -11.372852785293727 75.740480472068214 0 -1 0 0.66913061440640931 0 -0.74314481823134659 forward_v I I I I #
coedge $-1 $348 $349 $350 $351 reversed $140 $-1 #
coedge $-1 $225 $142 $352 $353 reversed $89 $-1 #
coedge $-1 $142 $224 $348 $354 reversed $89 $-1 #
coedge $-1 $350 $355 $142 $227 forward $345 $-1 #
edge $-1 $356 8.3667702483661373 $357 13.269615674111577 $226 $358 forward 7 unknown #
loop $-1 $-1 $233 $143 #
plane-surface $-1 -49.46928312021241 -14.43043628361441 2.2147976472576687 -0.66913061440640931 0 0.74314481823134659 0.74314481823134659 0 0.66913061440640931 forward_v I I I I #
loop $-1 $-1 $359 $91 #
coedge $-1 $231 $231 $232 $360 reversed $144 $-1 #
coedge $-1 $232 $232 $231 $360 forward $146 $-1 #
coedge $-1 $233 $233 $147 $234 forward $228 $-1 #
edge $-1 $361 0 $361 6.2831853071796004 $233 $362 forward 7 unknown #
face $-1 $363 $364 $50 $-1 $365 forward single #
loop $-1 $-1 $366 $148 #
plane-surface $-1 -115.67210673715709 0.77274970887945393 75.740480472068214 0 -1 0 0.66913061440640931 0 -0.74314481823134659 forward_v I I I I #
coedge $-1 $367 $368 $369 $370 reversed $149 $-1 #
coedge $-1 $240 $151 $371 $372 reversed $95 $-1 #
coedge $-1 $151 $239 $367 $373 reversed $95 $-1 #
coedge $-1 $369 $374 $151 $242 forward $364 $-1 #
edge $-1 $375 8.3667702483661373 $376 13.269615674111577 $241 $377 forward 7 unknown #
loop $-1 $-1 $248 $152 #
plane-surface $-1 -49.46928312021241 -2.2848337894412296 2.2147976472576687 -0.66913061440640931 0 0.74314481823134659 0.74314481823134659 0 0.66913061440640931 forward_v I I I I #
loop $-1 $-1 $378 $97 #
coedge $-1 $246 $246 $247 $379 reversed $153 $-1 #
coedge $-1 $247 $247 $246 $379 forward $155 $-1 #
coedge $-1 $248 $248 $156 $249 forward $243 $-1 #
edge $-1 $380 0 $380 6.2831853071796004 $248 $381 forward 7 unknown #
face $-1 $382 $383 $52 $-1 $384 forward single #
loop $-1 $-1 $385 $157 #
plane-surface $-1 -115.67210673715709 12.918352203052633 75.740480472068214 0 -1 0 0.66913061440640931 0 -0.74314481823134659 forward_v I I I I #
coedge $-1 $386 $387 $388 $389 reversed $158 $-1 #
coedge $-1 $255 $160 $390 $391 reversed $101 $-1 #
coedge $-1 $160 $254 $386 $392 reversed $101 $-1 #
coedge $-1 $388 $393 $160 $257 forward $383 $-1 #
edge $-1 $394 8.3667702483661373 $395 13.269615674111577 $256 $396 forward 7 unknown #
loop $-1 $-1 $263 $161 #
plane-surface $-1 -49.46928312021241 9.8607687047319494 2.2147976472576687 -0.66913061440640931 0 0.74314481823134659 0.74314481823134659 0 0.66913061440640931 forward_v I I I I #
loop $-1 $-1 $397 $103 #
coedge $-1 $261 $261 $262 $398 reversed $162 $-1 #
coedge $-1 $262 $262 $261 $398 forward $164 $-1 #
coedge $-1 $263 $263 $165 $264 forward $258 $-1 #
edge $-1 $399 0 $399 6.2831853071796004 $263 $400 forward 7 unknown #
face $-1 $401 $402 $54 $-1 $403 forward single #
loop $-1 $-1 $404 $166 #
plane-surface $-1 -115.67210673715709 25.063954697225817 75.740480472068214 0 -1 0 0.66913061440640931 0 -0.74314481823134659 forward_v I I I I #
coedge $-1 $405 $406 $407 $408 reversed $167 $-1 #
coedge $-1 $270 $169 $409 $410 reversed $107 $-1 #
coedge $-1 $169 $269 $405 $411 reversed $107 $-1 #
coedge $-1 $407 $412 $169 $272 forward $402 $-1 #
edge $-1 $413 8.3667702483661373 $414 13.269615674111577 $271 $415 forward 7 unknown #
loop $-1 $-1 $278 $170 #
plane-surface $-1 -49.46928312021241 22.006371198905132 2.2147976472576687 -0.66913061440640931 0 0.74314481823134659 0.74314481823134659 0 0.66913061440640931 forward_v I I I I #
loop $-1 $-1 $416 $109 #
coedge $-1 $276 $276 $277 $417 reversed $171 $-1 #
coedge $-1 $277 $277 $276 $417 forward $173 $-1 #
coedge $-1 $278 $278 $174 $279 forward $273 $-1 #
edge $-1 $418 0 $418 6.2831853071796004 $278 $419 forward 7 unknown #
face $-1 $420 $421 $42 $-1 $422 reversed single #
loop $-1 $-1 $423 $175 #
plane-surface $-1 -49.46928312021241 0 0 1 0 0 0 0 -1 forward_v I I I I #
coedge $-1 $424 $291 $425 $426 forward $176 $-1 #
coedge $-1 $427 $178 $424 $428 forward $113 $-1 #
coedge $-1 $178 $427 $429 $430 forward $113 $-1 #
coedge $-1 $294 $293 $178 $287 reversed $295 $-1 #
edge $-1 $431 -27.733264874213869 $432 27.733264874213869 $286 $433 forward 7 unknown #
coedge $-1 $180 $179 $434 $435 forward $71 $-1 #
coedge $-1 $436 $437 $179 $290 reversed $421 $-1 #
edge $-1 $297 -49.46928312021241 $438 49.46928312021241 $289 $439 forward 7 unknown #
coedge $-1 $283 $440 $180 $292 reversed $176 $-1 #
edge $-1 $441 -49.46928312021241 $296 49.46928312021241 $291 $442 forward 7 unknown #
coedge $-1 $286 $181 $440 $443 forward $295 $-1 #
coedge $-1 $181 $286 $436 $444 reversed $295 $-1 #
loop $-1 $-1 $293 $420 #
vertex $-1 $182 $445 #
vertex $-1 $182 $446 #
straight-curve $-1 49.46928312021241 0 6.6293395933032491 0 1 0 I I #
face $-1 $447 $448 $43 $-1 $449 forward single #
loop $-1 $-1 $308 $183 #
plane-surface $-1 0 -27.733264874213869 0 0 1 0 0 0 1 forward_v I I I I #
coedge $-1 $450 $451 $452 $453 forward $184 $-1 #
coedge $-1 $452 $186 $188 $310 reversed $117 $-1 #
coedge $-1 $186 $452 $454 $455 reversed $117 $-1 #
coedge $-1 $456 $189 $186 $306 forward $312 $-1 #
edge $-1 $314 1.0646697966516245 $457 4.064669796651625 $305 $458 forward 7 unknown #
coedge $-1 $188 $187 $450 $459 reversed $74 $-1 #
coedge $-1 $460 $461 $187 $309 forward $300 $-1 #
edge $-1 $462 -49.46928312021241 $313 49.46928312021241 $308 $463 forward 7 unknown #
edge $-1 $464 -49.46928312021241 $314 49.46928312021241 $303 $465 forward 7 unknown #
coedge $-1 $189 $456 $460 $466 forward $312 $-1 #
loop $-1 $-1 $305 $447 #
vertex $-1 $309 $467 #
vertex $-1 $190 $468 #
straight-curve $-1 49.46928312021241 -11.972648708284254 3.6293395933032491 0 1 0 I I #
face $-1 $-1 $328 $44 $-1 $469 forward single #
loop $-1 $-1 $470 $191 #
plane-surface $-1 49.46928312021241 0 0 -1 0 0 0 0 1 forward_v I I I I #
coedge $-1 $471 $472 $473 $474 reversed $192 $-1 #
coedge $-1 $475 $194 $196 $326 forward $121 $-1 #
coedge $-1 $194 $475 $471 $476 forward $121 $-1 #
coedge $-1 $473 $197 $194 $323 forward $328 $-1 #
edge $-1 $330 -6.3016319926198694 $477 8.0372021838771186 $322 $478 forward 7 unknown #
coedge $-1 $479 $480 $195 $325 forward $317 $-1 #
edge $-1 $481 -68.016112260383977 $329 -63.149107402303606 $324 $482 forward 7 unknown #
edge $-1 $330 90.453202325690825 $481 98.938566240424819 $196 $483 forward 7 unknown #
coedge $-1 $197 $473 $479 $484 forward $328 $-1 #
loop $-1 $-1 $473 $316 #
vertex $-1 $325 $485 #
vertex $-1 $198 $486 #
straight-curve $-1 12.586192905348987 5.4338468969912448 6.6293395933032429 -1 0 0 I I #
coedge $-1 $332 $332 $-1 $487 reversed $201 $-1 #
edge $-1 $488 0 $488 6.2831853071796004 $202 $489 forward 7 unknown #
vertex $-1 $205 $490 #
ellipse-curve $-1 45.993881543527635 -6.0372204442063477 4.1958371642630645 0.57357644374324357 0 0.81915203911291934 0.81915203911291934 0 -0.57357644374324357 1 I I #
coedge $-1 $336 $336 $-1 $491 reversed $208 $-1 #
edge $-1 $492 0 $492 6.2831853071796004 $209 $493 forward 7 unknown #
vertex $-1 $212 $494 #
ellipse-curve $-1 45.993881543527635 -1.7355701912572528 4.1958371642630645 0.57357644374324357 0 0.81915203911291934 0.81915203911291934 0 -0.57357644374324357 1 I I #
coedge $-1 $340 $340 $-1 $495 reversed $215 $-1 #
edge $-1 $496 0 $496 6.2831853071796004 $216 $497 forward 7 unknown #
vertex $-1 $219 $498 #
ellipse-curve $-1 45.993881543527635 2.5660800616918422 4.1958371642630645 0.57357644374324357 0 0.81915203911291934 0.81915203911291934 0 -0.57357644374324357 1 I I #
face $-1 $-1 $499 $48 $-1 $500 reversed single #
loop $-1 $-1 $226 $220 #
plane-surface $-1 0 0 6.6293395933032491 0 0 1 1 0 0 forward_v I I I I #
coedge $-1 $501 $502 $503 $504 reversed $221 $-1 #
coedge $-1 $505 $223 $225 $354 forward $140 $-1 #
coedge $-1 $223 $505 $501 $506 forward $140 $-1 #
coedge $-1 $503 $226 $223 $351 forward $345 $-1 #
edge $-1 $357 -10.272801640127888 $507 -4.1576346434865217 $350 $508 forward 7 unknown #
coedge $-1 $509 $510 $224 $353 forward $499 $-1 #
edge $-1 $511 -35.655442588776438 $356 -31.240900642730857 $352 $512 forward 7 unknown #
edge $-1 $357 -6.5974293374123292 $511 0 $225 $513 forward 7 unknown #
coedge $-1 $226 $503 $509 $514 forward $345 $-1 #
vertex $-1 $353 $515 #
vertex $-1 $227 $516 #
straight-curve $-1 -57.836053368578547 -17.488019781935094 6.62933959330325 1 0 0 I I #
coedge $-1 $359 $359 $-1 $517 reversed $230 $-1 #
edge $-1 $518 0 $518 6.2831853071796004 $231 $519 forward 7 unknown #
vertex $-1 $234 $520 #
ellipse-curve $-1 -47.01786040733969 -14.430436283614409 4.4220686202804576 -0.66913061440640931 0 0.74314481823134659 1.1147172273470198 0 1.003695921609614 1 I I #
face $-1 $-1 $521 $50 $-1 $522 reversed single #
loop $-1 $-1 $241 $235 #
plane-surface $-1 0 0 6.6293395933032491 0 0 1 1 0 0 forward_v I I I I #
coedge $-1 $523 $524 $525 $526 reversed $236 $-1 #
coedge $-1 $527 $238 $240 $373 forward $149 $-1 #
coedge $-1 $238 $527 $523 $528 forward $149 $-1 #
coedge $-1 $525 $241 $238 $370 forward $364 $-1 #
edge $-1 $376 -4.2000003930412984 $529 1.9151666036000687 $369 $530 forward 7 unknown #
coedge $-1 $531 $532 $239 $372 forward $521 $-1 #
edge $-1 $533 -35.655442588776438 $375 -31.240900642730857 $371 $534 forward 7 unknown #
edge $-1 $376 -6.5974293374123292 $533 0 $240 $535 forward 7 unknown #
coedge $-1 $241 $525 $531 $536 forward $364 $-1 #
vertex $-1 $242 $537 #
vertex $-1 $242 $538 #
straight-curve $-1 -57.836053368578547 -5.3424172877619132 6.62933959330325 1 0 0 I I #
coedge $-1 $378 $378 $-1 $539 reversed $245 $-1 #
edge $-1 $540 0 $540 6.2831853071796004 $246 $541 forward 7 unknown #
vertex $-1 $249 $542 #
ellipse-curve $-1 -47.01786040733969 -2.2848337894412261 4.4220686202804576 -0.66913061440640931 0 0.74314481823134659 1.1147172273470198 0 1.003695921609614 1 I I #
face $-1 $-1 $543 $52 $-1 $544 reversed single #
loop $-1 $-1 $256 $250 #
plane-surface $-1 0 0 6.6293395933032491 0 0 1 1 0 0 forward_v I I I I #
coedge $-1 $545 $546 $547 $548 reversed $251 $-1 #
coedge $-1 $549 $253 $255 $392 forward $158 $-1 #
coedge $-1 $253 $549 $545 $550 forward $158 $-1 #
coedge $-1 $547 $256 $253 $389 forward $383 $-1 #
edge $-1 $395 1.8728008540452912 $551 7.9879678506866583 $388 $552 forward 7 unknown #
coedge $-1 $553 $554 $254 $391 forward $543 $-1 #
edge $-1 $555 -35.655442588776438 $394 -31.240900642730857 $390 $556 forward 7 unknown #
edge $-1 $395 -6.5974293374123292 $555 0 $255 $557 forward 7 unknown #
coedge $-1 $256 $547 $553 $558 forward $383 $-1 #
vertex $-1 $257 $559 #
vertex $-1 $257 $560 #
straight-curve $-1 -57.836053368578547 6.8031852064112659 6.62933959330325 1 0 0 I I #
coedge $-1 $397 $397 $-1 $561 reversed $260 $-1 #
edge $-1 $562 0 $562 6.2831853071796004 $261 $563 forward 7 unknown #
vertex $-1 $264 $564 #
ellipse-curve $-1 -47.01786040733969 9.8607687047319565 4.4220686202804576 -0.66913061440640931 0 0.74314481823134659 1.1147172273470198 0 1.003695921609614 1 I I #
face $-1 $-1 $565 $54 $-1 $566 reversed single #
loop $-1 $-1 $271 $265 #
plane-surface $-1 0 0 6.6293395933032491 0 0 1 1 0 0 forward_v I I I I #
coedge $-1 $567 $568 $569 $570 reversed $266 $-1 #
coedge $-1 $571 $268 $270 $411 forward $167 $-1 #
coedge $-1 $268 $571 $567 $572 forward $167 $-1 #
coedge $-1 $569 $271 $268 $408 forward $402 $-1 #
edge $-1 $414 7.9456021011318807 $573 14.060769097773251 $407 $574 forward 7 unknown #
coedge $-1 $575 $576 $269 $410 forward $565 $-1 #
edge $-1 $577 -35.655442588776438 $413 -31.240900642730857 $409 $578 forward 7 unknown #
edge $-1 $414 -6.5974293374123292 $577 0 $270 $579 forward 7 unknown #
coedge $-1 $271 $569 $575 $580 forward $402 $-1 #
vertex $-1 $272 $581 #
vertex $-1 $272 $582 #
straight-curve $-1 -57.836053368578547 18.948787700584447 6.62933959330325 1 0 0 I I #
coedge $-1 $416 $416 $-1 $583 reversed $275 $-1 #
edge $-1 $584 0 $584 6.2831853071796004 $276 $585 forward 7 unknown #
vertex $-1 $279 $586 #
ellipse-curve $-1 -47.01786040733969 22.006371198905139 4.4220686202804576 -0.66913061440640931 0 0.74314481823134659 1.1147172273470198 0 1.003695921609614 1 I I #
face $-1 $-1 $295 $42 $-1 $587 reversed single #
loop $-1 $-1 $436 $280 #
plane-surface $-1 0 27.733264874213869 0 0 -1 0 0 0 -1 forward_v I I I I #
coedge $-1 $588 $434 $437 $589 forward $281 $-1 #
coedge $-1 $440 $283 $284 $428 reversed $176 $-1 #
coedge $-1 $434 $588 $283 $426 reversed $281 $-1 #
edge $-1 $441 -6.6293395933032491 $590 6.6293395933032491 $425 $591 forward 7 unknown #
coedge $-1 $285 $284 $588 $592 forward $113 $-1 #
edge $-1 $432 -49.46928312021241 $590 49.46928312021241 $424 $593 forward 7 unknown #
coedge $-1 $437 $436 $285 $430 reversed $421 $-1 #
edge $-1 $594 -49.46928312021241 $431 49.46928312021241 $429 $595 forward 7 unknown #
vertex $-1 $287 $596 #
vertex $-1 $443 $597 #
straight-curve $-1 49.46928312021241 0 -6.6293395933032491 0 -1 0 I I #
coedge $-1 $423 $425 $288 $435 reversed $281 $-1 #
edge $-1 $438 -27.733264874213869 $441 27.733264874213869 $434 $598 forward 7 unknown #
coedge $-1 $429 $289 $294 $444 forward $421 $-1 #
coedge $-1 $289 $429 $423 $589 reversed $421 $-1 #
vertex $-1 $290 $599 #
straight-curve $-1 0 27.733264874213869 6.6293395933032491 -1 0 0 I I #
coedge $-1 $291 $424 $293 $443 reversed $176 $-1 #
vertex $-1 $435 $600 #
straight-curve $-1 0 -27.733264874213869 6.6293395933032491 1 0 0 I I #
edge $-1 $296 -6.6293395933032491 $432 6.6293395933032491 $293 $601 forward 7 unknown #
edge $-1 $297 -6.6293395933032491 $431 6.6293395933032491 $294 $602 forward 7 unknown #
point $-1 49.46928312021241 -27.733264874213869 6.6293395933032491 #
point $-1 49.46928312021241 27.733264874213869 6.6293395933032491 #
face $-1 $-1 $312 $43 $-1 $603 reversed single #
loop $-1 $-1 $454 $299 #
plane-surface $-1 0 0 6.6293395933032491 0 0 1 1 0 0 forward_v I I I I #
coedge $-1 $604 $302 $307 $459 forward $184 $-1 #
coedge $-1 $302 $604 $605 $606 reversed $184 $-1 #
coedge $-1 $304 $303 $302 $453 reversed $117 $-1 #
edge $-1 $607 -4.064669796651625 $464 -1.0646697966516245 $302 $608 forward 7 unknown #
coedge $-1 $605 $609 $304 $455 forward $448 $-1 #
edge $-1 $457 -49.46928312021241 $607 49.46928312021241 $454 $610 forward 7 unknown #
coedge $-1 $311 $305 $609 $611 reversed $312 $-1 #
vertex $-1 $306 $612 #
straight-curve $-1 49.46928312021241 -20.157329958923146 2.5646697966516245 0 0 1 I I #
edge $-1 $464 8.1846812506388922 $462 15.760616165929616 $450 $613 forward 7 unknown #
coedge $-1 $614 $308 $311 $466 reversed $300 $-1 #
coedge $-1 $308 $614 $604 $615 forward $300 $-1 #
vertex $-1 $309 $616 #
straight-curve $-1 0 -27.733264874213869 3.6293395933032491 1 0 0 I I #
vertex $-1 $459 $617 #
straight-curve $-1 0 -20.157329958923146 3.6293395933032491 1 0 0 I I #
edge $-1 $618 -6.6293395933032491 $313 -3.6293395933032491 $311 $619 forward 7 unknown #
point $-1 49.46928312021241 -27.733264874213869 3.6293395933032491 #
point $-1 49.46928312021241 -20.157329958923146 3.6293395933032491 #
plane-surface $-1 0 0 6.6293395933032491 0 0 1 1 0 0 forward_v I I I I #
coedge $-1 $480 $479 $472 $620 forward $317 $-1 #
coedge $-1 $472 $319 $321 $476 reversed $192 $-1 #
coedge $-1 $319 $471 $470 $620 reversed $192 $-1 #
coedge $-1 $327 $322 $319 $474 forward $328 $-1 #
edge $-1 $477 29.932287061493881 $621 36.883090214863422 $473 $622 forward 7 unknown #
coedge $-1 $321 $320 $480 $623 reversed $121 $-1 #
edge $-1 $624 -98.938566240424819 $477 -90.453202325690825 $471 $625 forward 7 unknown #
vertex $-1 $323 $626 #
straight-curve $-1 42.518479966842854 -0.8677850956286246 6.6293395933032571 0 -1 0 I I #
coedge $-1 $470 $324 $327 $484 reversed $317 $-1 #
coedge $-1 $324 $470 $475 $623 forward $317 $-1 #
vertex $-1 $325 $627 #
straight-curve $-1 49.46928312021241 5.4338468969912448 69.778446995606856 0 0 1 I I #
straight-curve $-1 -31.576445162540232 5.4338468969912448 58.511165708461078 0.81915203911291934 0 -0.57357644374324357 I I #
edge $-1 $621 -8.9049872795057432 $329 5.4338468969912448 $479 $628 forward 7 unknown #
point $-1 49.46928312021241 5.4338468969912448 6.6293395933032491 #
point $-1 42.518479966842868 5.4338468969912448 6.62933959330325 #
edge $-1 $629 1 $629 0 $332 $-1 forward 7 unknown #
vertex $-1 $333 $630 #
ellipse-curve $-1 43.77992233298783 -6.0372204442063477 1.0339757914512757 0.57357644374324357 0 0.81915203911291934 0.81915203911291934 0 -0.57357644374324357 1 I I #
point $-1 46.813033582640557 -6.0372204442063477 3.6222607205198192 #
edge $-1 $631 1 $631 0 $336 $-1 forward 7 unknown #
vertex $-1 $337 $632 #
ellipse-curve $-1 43.77992233298783 -1.7355701912572528 1.0339757914512757 0.57357644374324357 0 0.81915203911291934 0.81915203911291934 0 -0.57357644374324357 1 I I #
point $-1 46.813033582640557 -1.7355701912572528 3.6222607205198192 #
edge $-1 $633 1 $633 0 $340 $-1 forward 7 unknown #
vertex $-1 $341 $634 #
ellipse-curve $-1 43.77992233298783 2.5660800616918422 1.0339757914512757 0.57357644374324357 0 0.81915203911291934 0.81915203911291934 0 -0.57357644374324357 1 I I #
point $-1 46.813033582640557 2.5660800616918422 3.6222607205198192 #
loop $-1 $-1 $352 $344 #
plane-surface $-1 -49.46928312021241 0 0 1 0 0 0 0 -1 forward_v I I I I #
coedge $-1 $502 $347 $349 $506 reversed $221 $-1 #
coedge $-1 $347 $501 $635 $636 reversed $221 $-1 #
coedge $-1 $355 $350 $347 $504 forward $345 $-1 #
edge $-1 $507 -13.269615674111577 $637 -8.3667702483661373 $503 $638 forward 7 unknown #
coedge $-1 $349 $348 $510 $639 reversed $140 $-1 #
edge $-1 $640 0 $507 6.5974293374123292 $501 $641 forward 7 unknown #
vertex $-1 $351 $642 #
straight-curve $-1 -44.56643769446697 -7.2152181418072052 6.6293395933032482 0 1 0 I I #
coedge $-1 $635 $352 $355 $514 reversed $499 $-1 #
coedge $-1 $352 $635 $505 $639 forward $499 $-1 #
vertex $-1 $353 $643 #
straight-curve $-1 -49.46928312021241 -17.488019781935094 37.870240236034107 0 0 1 I I #
straight-curve $-1 -49.46928312021241 -17.488019781935094 2.2147976472576687 -0.74314481823134659 0 -0.66913061440640931 I I #
edge $-1 $637 11.372852785293727 $356 17.488019781935094 $509 $644 forward 7 unknown #
point $-1 -49.46928312021241 -17.488019781935094 6.6293395933032491 #
point $-1 -44.56643769446697 -17.488019781935094 6.6293395933032491 #
edge $-1 $645 1 $645 0 $359 $-1 forward 7 unknown #
vertex $-1 $360 $646 #
ellipse-curve $-1 -45.595863405206963 -14.430436283614409 2.8427809880550239 -0.66913061440640931 0 0.74314481823134659 1.1147172273470198 0 1.003695921609614 1 I I #
point $-1 -45.903143179992668 -14.430436283614409 5.4257645418900688 #
loop $-1 $-1 $371 $363 #
plane-surface $-1 -49.46928312021241 0 0 1 0 0 0 0 -1 forward_v I I I I #
coedge $-1 $524 $366 $368 $528 reversed $236 $-1 #
coedge $-1 $366 $523 $647 $648 reversed $236 $-1 #
coedge $-1 $374 $369 $366 $526 forward $364 $-1 #
edge $-1 $529 -13.269615674111577 $649 -8.3667702483661373 $525 $650 forward 7 unknown #
coedge $-1 $368 $367 $532 $651 reversed $149 $-1 #
edge $-1 $652 0 $529 6.5974293374123292 $523 $653 forward 7 unknown #
vertex $-1 $370 $654 #
straight-curve $-1 -44.56643769446697 -1.1424168947206148 6.6293395933032482 0 1 0 I I #
coedge $-1 $647 $371 $374 $536 reversed $521 $-1 #
coedge $-1 $371 $647 $527 $651 forward $521 $-1 #
vertex $-1 $372 $655 #
straight-curve $-1 -49.46928312021241 -5.3424172877619132 37.870240236034107 0 0 1 I I #
straight-curve $-1 -49.46928312021241 -5.3424172877619132 2.2147976472576687 -0.74314481823134659 0 -0.66913061440640931 I I #
edge $-1 $649 -0.77274970887945393 $375 5.3424172877619132 $531 $656 forward 7 unknown #
point $-1 -49.46928312021241 -5.3424172877619132 6.6293395933032491 #
point $-1 -44.56643769446697 -5.3424172877619132 6.6293395933032491 #
edge $-1 $657 1 $657 0 $378 $-1 forward 7 unknown #
vertex $-1 $379 $658 #
ellipse-curve $-1 -45.595863405206963 -2.2848337894412261 2.8427809880550239 -0.66913061440640931 0 0.74314481823134659 1.1147172273470198 0 1.003695921609614 1 I I #
point $-1 -45.903143179992668 -2.2848337894412261 5.4257645418900688 #
loop $-1 $-1 $390 $382 #
plane-surface $-1 -49.46928312021241 0 0 1 0 0 0 0 -1 forward_v I I I I #
coedge $-1 $546 $385 $387 $550 reversed $251 $-1 #
coedge $-1 $385 $545 $659 $660 reversed $251 $-1 #
coedge $-1 $393 $388 $385 $548 forward $383 $-1 #
edge $-1 $551 -13.269615674111577 $661 -8.3667702483661373 $547 $662 forward 7 unknown #
coedge $-1 $387 $386 $554 $663 reversed $158 $-1 #
edge $-1 $664 0 $551 6.5974293374123292 $545 $665 forward 7 unknown #
vertex $-1 $389 $666 #
straight-curve $-1 -44.56643769446697 4.9303843523659747 6.6293395933032482 0 1 0 I I #
coedge $-1 $659 $390 $393 $558 reversed $543 $-1 #
coedge $-1 $390 $659 $549 $663 forward $543 $-1 #
vertex $-1 $391 $667 #
straight-curve $-1 -49.46928312021241 6.8031852064112659 37.870240236034107 0 0 1 I I #
straight-curve $-1 -49.46928312021241 6.8031852064112659 2.2147976472576687 -0.74314481823134659 0 -0.66913061440640931 I I #
edge $-1 $661 -12.918352203052633 $394 -6.8031852064112659 $553 $668 forward 7 unknown #
point $-1 -49.46928312021241 6.8031852064112659 6.6293395933032491 #
point $-1 -44.56643769446697 6.8031852064112659 6.6293395933032491 #
edge $-1 $669 1 $669 0 $397 $-1 forward 7 unknown #
vertex $-1 $398 $670 #
ellipse-curve $-1 -45.595863405206963 9.8607687047319565 2.8427809880550239 -0.66913061440640931 0 0.74314481823134659 1.1147172273470198 0 1.003695921609614 1 I I #
point $-1 -45.903143179992668 9.8607687047319565 5.4257645418900688 #
loop $-1 $-1 $409 $401 #
plane-surface $-1 -49.46928312021241 0 0 1 0 0 0 0 -1 forward_v I I I I #
coedge $-1 $568 $404 $406 $572 reversed $266 $-1 #
coedge $-1 $404 $567 $671 $672 reversed $266 $-1 #
coedge $-1 $412 $407 $404 $570 forward $402 $-1 #
edge $-1 $573 -13.269615674111577 $673 -8.3667702483661373 $569 $674 forward 7 unknown #
coedge $-1 $406 $405 $576 $675 reversed $167 $-1 #
edge $-1 $676 0 $573 6.5974293374123292 $567 $677 forward 7 unknown #
vertex $-1 $408 $678 #
straight-curve $-1 -44.56643769446697 11.003185599452566 6.6293395933032482 0 1 0 I I #
coedge $-1 $671 $409 $412 $580 reversed $565 $-1 #
coedge $-1 $409 $671 $571 $675 forward $565 $-1 #
vertex $-1 $410 $679 #
straight-curve $-1 -49.46928312021241 18.948787700584447 37.870240236034107 0 0 1 I I #
straight-curve $-1 -49.46928312021241 18.948787700584447 2.2147976472576687 -0.74314481823134659 0 -0.66913061440640931 I I #
edge $-1 $673 -25.063954697225817 $413 -18.948787700584447 $575 $680 forward 7 unknown #
point $-1 -49.46928312021241 18.948787700584447 6.6293395933032491 #
point $-1 -44.56643769446697 18.948787700584447 6.6293395933032491 #
edge $-1 $681 1 $681 0 $416 $-1 forward 7 unknown #
vertex $-1 $417 $682 #
ellipse-curve $-1 -45.595863405206963 22.006371198905139 2.8427809880550239 -0.66913061440640931 0 0.74314481823134659 1.1147172273470198 0 1.003695921609614 1 I I #
point $-1 -45.903143179992668 22.006371198905139 5.4257645418900688 #
plane-surface $-1 49.46928312021241 0 0 -1 0 0 0 0 1 forward_v I I I I #
coedge $-1 $425 $423 $427 $592 reversed $281 $-1 #
edge $-1 $438 -6.6293395933032491 $594 6.6293395933032491 $437 $683 forward 7 unknown #
vertex $-1 $592 $684 #
straight-curve $-1 -49.46928312021241 -27.733264874213869 0 0 0 -1 I I #
edge $-1 $590 -27.733264874213869 $594 27.733264874213869 $588 $685 forward 7 unknown #
straight-curve $-1 0 -27.733264874213869 -6.6293395933032491 -1 0 0 I I #
vertex $-1 $430 $686 #
straight-curve $-1 0 27.733264874213869 -6.6293395933032491 1 0 0 I I #
point $-1 49.46928312021241 27.733264874213869 -6.6293395933032491 #
point $-1 49.46928312021241 -27.733264874213869 -6.6293395933032491 #
straight-curve $-1 -49.46928312021241 0 6.6293395933032491 0 -1 0 I I #
point $-1 -49.46928312021241 27.733264874213869 6.6293395933032491 #
point $-1 -49.46928312021241 -27.733264874213869 6.6293395933032491 #
straight-curve $-1 49.46928312021241 -27.733264874213869 0 0 0 -1 I I #
straight-curve $-1 49.46928312021241 27.733264874213869 0 0 0 -1 I I #
plane-surface $-1 49.46928312021241 0 0 -1 0 0 0 0 1 forward_v I I I I #
coedge $-1 $451 $450 $461 $615 reversed $184 $-1 #
coedge $-1 $687 $454 $451 $606 forward $448 $-1 #
edge $-1 $607 20.157329958923146 $688 27.733264874213869 $451 $689 forward 7 unknown #
vertex $-1 $606 $690 #
straight-curve $-1 -49.46928312021241 -20.157329958923146 2.5646697966516245 0 0 -1 I I #
coedge $-1 $454 $687 $456 $611 forward $448 $-1 #
straight-curve $-1 0 -20.157329958923146 6.6293395933032491 -1 0 0 I I #
edge $-1 $618 -27.733264874213869 $457 -20.157329958923146 $456 $691 forward 7 unknown #
point $-1 49.46928312021241 -20.157329958923146 6.6293395933032491 #
straight-curve $-1 -49.46928312021241 -11.972648708284254 3.6293395933032491 0 -1 0 I I #
coedge $-1 $461 $460 $687 $692 reversed $300 $-1 #
edge $-1 $688 -6.6293395933032491 $462 -3.6293395933032491 $604 $693 forward 7 unknown #
point $-1 -49.46928312021241 -27.733264874213869 3.6293395933032491 #
point $-1 -49.46928312021241 -20.157329958923146 3.6293395933032491 #
vertex $-1 $611 $694 #
straight-curve $-1 49.46928312021241 -27.733264874213869 0 0 0 -1 I I #
edge $-1 $621 63.149107402303606 $624 68.016112260383977 $470 $695 forward 7 unknown #
vertex $-1 $484 $696 #
straight-curve $-1 12.586192905348987 -8.9049872795057432 6.6293395933032429 1 0 0 I I #
edge $-1 $624 -8.0372021838771186 $481 6.3016319926198694 $480 $697 forward 7 unknown #
vertex $-1 $623 $698 #
straight-curve $-1 -31.576445162540232 -8.9049872795057432 58.511165708461078 -0.81915203911291934 0 0.57357644374324357 I I #
point $-1 42.518479966842868 -8.9049872795057432 6.62933959330325 #
point $-1 49.469283120212403 5.4338468969912448 1.762334735222872 #
straight-curve $-1 49.46928312021241 0 6.6293395933032491 0 1 0 I I #
vertex $-1 $487 $699 #
point $-1 44.599074372100745 -6.0372204442063477 0.46039934770803209 #
vertex $-1 $491 $700 #
point $-1 44.599074372100745 -1.7355701912572528 0.46039934770803209 #
vertex $-1 $495 $701 #
point $-1 44.599074372100745 2.5660800616918422 0.46039934770803209 #
coedge $-1 $510 $509 $502 $636 forward $499 $-1 #
edge $-1 $637 31.240900642730857 $640 35.655442588776438 $635 $702 forward 7 unknown #
vertex $-1 $514 $703 #
straight-curve $-1 -57.836053368578547 -11.372852785293727 6.62933959330325 -1 0 0 I I #
edge $-1 $640 4.1576346434865217 $511 10.272801640127888 $510 $704 forward 7 unknown #
vertex $-1 $639 $705 #
straight-curve $-1 -49.46928312021241 -11.372852785293727 2.2147976472576687 0.74314481823134659 0 0.66913061440640931 I I #
point $-1 -44.56643769446697 -11.372852785293727 6.6293395933032491 #
point $-1 -49.46928312021241 -17.488019781935094 2.2147976472576687 #
straight-curve $-1 -49.46928312021241 0 6.6293395933032491 0 -1 0 I I #
vertex $-1 $517 $706 #
point $-1 -44.481146177859941 -14.430436283614409 3.8464769096646378 #
coedge $-1 $532 $531 $524 $648 forward $521 $-1 #
edge $-1 $649 31.240900642730857 $652 35.655442588776438 $647 $707 forward 7 unknown #
vertex $-1 $536 $708 #
straight-curve $-1 -57.836053368578547 0.77274970887945393 6.62933959330325 -1 0 0 I I #
edge $-1 $652 -1.9151666036000687 $533 4.2000003930412984 $532 $709 forward 7 unknown #
vertex $-1 $651 $710 #
straight-curve $-1 -49.46928312021241 0.77274970887945393 2.2147976472576687 0.74314481823134659 0 0.66913061440640931 I I #
point $-1 -44.56643769446697 0.77274970887945393 6.6293395933032491 #
point $-1 -49.46928312021241 -5.3424172877619132 2.2147976472576687 #
straight-curve $-1 -49.46928312021241 0 6.6293395933032491 0 -1 0 I I #
vertex $-1 $539 $711 #
point $-1 -44.481146177859941 -2.2848337894412261 3.8464769096646378 #
coedge $-1 $554 $553 $546 $660 forward $543 $-1 #
edge $-1 $661 31.240900642730857 $664 35.655442588776438 $659 $712 forward 7 unknown #
vertex $-1 $558 $713 #
straight-curve $-1 -57.836053368578547 12.918352203052633 6.62933959330325 -1 0 0 I I #
edge $-1 $664 -7.9879678506866583 $555 -1.8728008540452912 $554 $714 forward 7 unknown #
vertex $-1 $663 $715 #
straight-curve $-1 -49.46928312021241 12.918352203052633 2.2147976472576687 0.74314481823134659 0 0.66913061440640931 I I #
point $-1 -44.56643769446697 12.918352203052633 6.6293395933032491 #
point $-1 -49.46928312021241 6.8031852064112659 2.2147976472576687 #
straight-curve $-1 -49.46928312021241 0 6.6293395933032491 0 -1 0 I I #
vertex $-1 $561 $716 #
point $-1 -44.481146177859941 9.8607687047319565 3.8464769096646378 #
coedge $-1 $576 $575 $568 $672 forward $565 $-1 #
edge $-1 $673 31.240900642730857 $676 35.655442588776438 $671 $717 forward 7 unknown #
vertex $-1 $580 $718 #
straight-curve $-1 -57.836053368578547 25.063954697225817 6.62933959330325 -1 0 0 I I #
edge $-1 $676 -14.060769097773251 $577 -7.9456021011318807 $576 $719 forward 7 unknown #
vertex $-1 $675 $720 #
straight-curve $-1 -49.46928312021241 25.063954697225817 2.2147976472576687 0.74314481823134659 0 0.66913061440640931 I I #
point $-1 -44.56643769446697 25.063954697225817 6.6293395933032491 #
point $-1 -49.46928312021241 18.948787700584447 2.2147976472576687 #
straight-curve $-1 -49.46928312021241 0 6.6293395933032491 0 -1 0 I I #
vertex $-1 $583 $721 #
point $-1 -44.481146177859941 22.006371198905139 3.8464769096646378 #
straight-curve $-1 -49.46928312021241 27.733264874213869 0 0 0 -1 I I #
point $-1 -49.46928312021241 -27.733264874213869 -6.6293395933032491 #
straight-curve $-1 -49.46928312021241 0 -6.6293395933032491 0 1 0 I I #
point $-1 -49.46928312021241 27.733264874213869 -6.6293395933032491 #
coedge $-1 $609 $605 $614 $692 forward $448 $-1 #
vertex $-1 $606 $722 #
straight-curve $-1 -49.46928312021241 0 6.6293395933032491 0 -1 0 I I #
point $-1 -49.46928312021241 -20.157329958923146 6.6293395933032491 #
straight-curve $-1 49.46928312021241 0 6.6293395933032491 0 1 0 I I #
edge $-1 $688 -49.46928312021241 $618 49.46928312021241 $614 $723 forward 7 unknown #
straight-curve $-1 -49.46928312021241 -27.733264874213869 0 0 0 -1 I I #
point $-1 49.46928312021241 -27.733264874213869 6.6293395933032491 #
straight-curve $-1 49.46928312021241 -8.9049872795057432 69.778446995606856 0 0 -1 I I #
point $-1 49.46928312021241 -8.9049872795057432 6.6293395933032491 #
straight-curve $-1 49.46928312021241 -0.8677850956286246 1.762334735222872 0 1 0 I I #
point $-1 49.469283120212403 -8.9049872795057432 1.762334735222872 #
point $-1 43.206345889244581 -6.0372204442063477 0.21482375233835632 #
point $-1 43.206345889244581 -1.7355701912572528 0.21482375233835632 #
point $-1 43.206345889244581 2.5660800616918422 0.21482375233835632 #
straight-curve $-1 -49.46928312021241 -11.372852785293727 37.870240236034107 0 0 -1 I I #
point $-1 -49.46928312021241 -11.372852785293727 6.6293395933032491 #
straight-curve $-1 -49.46928312021241 -7.2152181418072052 2.2147976472576656 0 -1 0 I I #
point $-1 -49.46928312021241 -11.372852785293727 2.2147976472576687 #
point $-1 -44.592167483597343 -14.430436283614409 1.7280637607080038 #
straight-curve $-1 -49.46928312021241 0.77274970887945393 37.870240236034107 0 0 -1 I I #
point $-1 -49.46928312021241 0.77274970887945393 6.6293395933032491 #
straight-curve $-1 -49.46928312021241 -1.1424168947206148 2.2147976472576656 0 -1 0 I I #
point $-1 -49.46928312021241 0.77274970887945393 2.2147976472576687 #
point $-1 -44.592167483597343 -2.2848337894412261 1.7280637607080038 #
straight-curve $-1 -49.46928312021241 12.918352203052633 37.870240236034107 0 0 -1 I I #
point $-1 -49.46928312021241 12.918352203052633 6.6293395933032491 #
straight-curve $-1 -49.46928312021241 4.9303843523659747 2.2147976472576656 0 -1 0 I I #
point $-1 -49.46928312021241 12.918352203052633 2.2147976472576687 #
point $-1 -44.592167483597343 9.8607687047319565 1.7280637607080038 #
straight-curve $-1 -49.46928312021241 25.063954697225817 37.870240236034107 0 0 -1 I I #
point $-1 -49.46928312021241 25.063954697225817 6.6293395933032491 #
straight-curve $-1 -49.46928312021241 11.003185599452566 2.2147976472576656 0 -1 0 I I #
point $-1 -49.46928312021241 25.063954697225817 2.2147976472576687 #
point $-1 -44.592167483597343 22.006371198905139 1.7280637607080038 #
point $-1 -49.46928312021241 -27.733264874213869 6.6293395933032491 #
straight-curve $-1 0 -27.733264874213869 6.6293395933032491 1 0 0 I I #
End-of-ACIS-data 