500 0 5 0           
7 Unknown 11 ACIS 5.0 NT 24 Thu Mar 25 23:23:36 1999 
-1 9.9999999999999995e-007 1e-010 
body $-1 $5 $-1 $6 #
body $-1 $7 $-1 $8 #
body $-1 $9 $-1 $10 #
body $-1 $11 $-1 $12 #
body $-1 $13 $-1 $14 #
lump $-1 $-1 $15 $0 #
transform $-1 1 0 0 0 1 0 0 0 1 70.551469466231268 33.334476611506879 6.7914151116396875 1 rotate no_reflect no_shear #
lump $-1 $-1 $16 $1 #
transform $-1 1 0 0 0 1 0 0 0 1 70.551469466231268 33.334476611506879 6.7914151116396875 1 rotate no_reflect no_shear #
lump $-1 $-1 $17 $2 #
transform $-1 1 0 0 0 1 0 0 0 1 70.551469466231268 33.334476611506879 6.7914151116396875 1 rotate no_reflect no_shear #
lump $-1 $-1 $18 $3 #
transform $-1 1 0 0 0 1 0 0 0 1 70.551469466231268 33.334476611506879 6.7914151116396875 1 rotate no_reflect no_shear #
lump $-1 $-1 $19 $4 #
transform $-1 1 0 0 0 1 0 0 0 1 70.551469466231268 33.334476611506879 6.7914151116396875 1 rotate no_reflect no_shear #
shell $-1 $-1 $-1 $20 $-1 $5 #
shell $-1 $-1 $-1 $21 $-1 $7 #
shell $-1 $-1 $-1 $22 $-1 $9 #
shell $-1 $-1 $-1 $23 $-1 $11 #
shell $-1 $-1 $-1 $24 $-1 $13 #
face $-1 $25 $26 $15 $-1 $27 forward single #
face $-1 $28 $29 $16 $-1 $30 forward single #
face $-1 $31 $32 $17 $-1 $33 forward single #
face $-1 $34 $35 $18 $-1 $36 forward single #
face $-1 $37 $38 $19 $-1 $39 reversed single #
face $-1 $40 $41 $15 $-1 $42 reversed single #
loop $-1 $-1 $43 $20 #
plane-surface $-1 0 0 6.7914151116396875 0 0 1 1 0 0 forward_v I I I I #
face $-1 $44 $45 $16 $-1 $46 forward single #
loop $-1 $-1 $47 $21 #
plane-surface $-1 0 -30.274391434613339 2.8540234408788878 0 0 1 1 0 0 forward_v I I I I #
face $-1 $48 $49 $17 $-1 $50 forward single #
loop $-1 $-1 $51 $22 #
plane-surface $-1 0 30.274391434613342 2.8540234408788878 0 0 1 1 0 0 forward_v I I I I #
face $-1 $52 $53 $18 $-1 $54 forward single #
loop $-1 $-1 $55 $23 #
plane-surface $-1 -143.22485646488582 15.379713975904679 123.92495886701205 0 1 0 -0.51503808176128008 0 0.85716729658548041 forward_v I I I I #
face $-1 $56 $57 $19 $-1 $58 reversed single #
loop $-1 $59 $60 $24 #
cone-surface $-1 -66.983306238829968 21.297010116812238 4.2291862624693293 0.51503808176128008 0 -0.85716729658548041 1.2857509448782207 0 0.77255712264192011 1 I I 0 1 1.5 forward I I I I #
face $-1 $61 $62 $15 $-1 $63 reversed single #
loop $-1 $-1 $64 $25 #
plane-surface $-1 0 0 -6.7914151116396875 0 0 1 1 0 0 forward_v I I I I #
coedge $-1 $65 $66 $67 $68 forward $26 $-1 #
face $-1 $69 $70 $16 $-1 $71 forward single #
loop $-1 $-1 $72 $28 #
plane-surface $-1 0 -27.214306257719798 4.8227192762592876 0 -1 0 0 0 -1 forward_v I I I I #
coedge $-1 $73 $74 $75 $76 reversed $29 $-1 #
face $-1 $77 $78 $17 $-1 $79 forward single #
loop $-1 $-1 $80 $31 #
plane-surface $-1 0 27.214306257719802 4.8227192762592876 0 1 0 0 0 1 forward_v I I I I #
coedge $-1 $81 $82 $83 $84 reversed $32 $-1 #
face $-1 $85 $86 $18 $-1 $87 reversed single #
loop $-1 $-1 $88 $34 #
plane-surface $-1 -70.551469466231268 21.297010116812238 2.9761341620069999 -0.51503808176128008 0 0.85716729658548041 0.85716729658548041 0 0.51503808176128008 forward_v I I I I #
coedge $-1 $89 $90 $91 $92 reversed $35 $-1 #
face $-1 $93 $94 $19 $-1 $95 forward single #
loop $-1 $96 $97 $37 #
cone-surface $-1 -66.203711294565423 21.297010116812238 2.9317224156761901 0.51503808176128008 0 -0.85716729658548041 0.64287547243911036 0 0.38627856132096006 1 I I -0.70710678118654724 0.70710678118654768 0.75 forward I I I I #
loop $-1 $-1 $98 $24 #
coedge $-1 $60 $60 $99 $100 reversed $38 $-1 #
face $-1 $101 $102 $15 $-1 $103 reversed single #
loop $-1 $-1 $104 $40 #
plane-surface $-1 0 -33.334476611506879 0 0 1 0 0 0 1 forward_v I I I I #
coedge $-1 $105 $106 $107 $108 forward $41 $-1 #
coedge $-1 $109 $43 $110 $111 forward $26 $-1 #
coedge $-1 $43 $109 $112 $113 forward $26 $-1 #
coedge $-1 $114 $115 $43 $68 reversed $116 $-1 #
edge $-1 $117 -33.334476611506879 $118 33.334476611506879 $67 $119 forward 7 unknown #
face $-1 $120 $121 $16 $-1 $122 reversed single #
loop $-1 $-1 $123 $44 #
plane-surface $-1 0 0 6.7914151116396875 0 0 1 1 0 0 forward_v I I I I #
coedge $-1 $124 $125 $126 $127 reversed $45 $-1 #
coedge $-1 $128 $47 $125 $129 reversed $29 $-1 #
coedge $-1 $47 $128 $130 $131 reversed $29 $-1 #
coedge $-1 $132 $126 $47 $76 forward $121 $-1 #
edge $-1 $133 12.077110540413129 $134 18.197280894200212 $75 $135 forward 7 unknown #
face $-1 $136 $137 $17 $-1 $138 reversed single #
loop $-1 $-1 $139 $48 #
plane-surface $-1 0 0 6.7914151116396875 0 0 1 1 0 0 forward_v I I I I #
coedge $-1 $140 $141 $142 $143 reversed $49 $-1 #
coedge $-1 $144 $51 $145 $146 reversed $32 $-1 #
coedge $-1 $51 $144 $141 $147 reversed $32 $-1 #
coedge $-1 $148 $149 $51 $84 forward $150 $-1 #
edge $-1 $151 -18.197280894200215 $152 -12.07711054041313 $83 $153 forward 7 unknown #
face $-1 $154 $155 $18 $-1 $156 forward single #
loop $-1 $-1 $157 $52 #
plane-surface $-1 -70.551469466231268 0 0 1 0 0 0 0 -1 forward_v I I I I #
coedge $-1 $158 $159 $160 $161 reversed $53 $-1 #
coedge $-1 $90 $55 $159 $162 forward $35 $-1 #
coedge $-1 $55 $89 $157 $163 reversed $35 $-1 #
coedge $-1 $164 $160 $55 $92 forward $165 $-1 #
edge $-1 $166 -7.4106524551271207 $167 -1.0609587662116411 $91 $168 forward 7 unknown #
face $-1 $169 $170 $19 $-1 $171 forward single #
loop $-1 $-1 $172 $56 #
plane-surface $-1 -143.22485646488582 15.379713975904679 123.92495886701205 0 1 0 -0.51503808176128008 0 0.85716729658548041 forward_v I I I I #
loop $-1 $-1 $173 $37 #
coedge $-1 $97 $97 $98 $174 forward $57 $-1 #
coedge $-1 $98 $98 $97 $174 reversed $59 $-1 #
coedge $-1 $99 $99 $60 $100 forward $170 $-1 #
edge $-1 $175 0 $175 6.2831853071796004 $99 $176 forward 7 unknown #
face $-1 $177 $178 $15 $-1 $179 reversed single #
loop $-1 $-1 $180 $61 #
plane-surface $-1 -70.551469466231268 0 0 1 0 0 0 0 -1 forward_v I I I I #
coedge $-1 $181 $112 $182 $183 forward $62 $-1 #
coedge $-1 $184 $64 $181 $185 forward $41 $-1 #
coedge $-1 $64 $184 $186 $187 forward $41 $-1 #
coedge $-1 $115 $114 $64 $108 reversed $116 $-1 #
edge $-1 $188 -33.334476611506879 $189 33.334476611506879 $107 $190 forward 7 unknown #
coedge $-1 $66 $65 $191 $192 forward $26 $-1 #
coedge $-1 $193 $194 $65 $111 reversed $178 $-1 #
edge $-1 $118 -70.551469466231268 $195 70.551469466231268 $110 $196 forward 7 unknown #
coedge $-1 $104 $197 $66 $113 reversed $62 $-1 #
edge $-1 $198 -70.551469466231268 $117 70.551469466231268 $112 $199 forward 7 unknown #
coedge $-1 $107 $67 $197 $200 forward $116 $-1 #
coedge $-1 $67 $107 $193 $201 reversed $116 $-1 #
loop $-1 $-1 $114 $177 #
vertex $-1 $68 $202 #
vertex $-1 $68 $203 #
straight-curve $-1 70.551469466231268 0 6.7914151116396875 0 1 0 I I #
face $-1 $204 $205 $16 $-1 $206 reversed single #
loop $-1 $-1 $126 $69 #
plane-surface $-1 70.551469466231268 0 0 -1 0 0 0 0 1 forward_v I I I I #
coedge $-1 $207 $208 $124 $209 forward $70 $-1 #
coedge $-1 $210 $72 $123 $209 reversed $45 $-1 #
coedge $-1 $72 $210 $73 $129 forward $45 $-1 #
coedge $-1 $75 $211 $72 $127 forward $121 $-1 #
edge $-1 $212 -4.3800554735100441 $133 -0.442663802749244 $126 $213 forward 7 unknown #
coedge $-1 $74 $73 $214 $215 reversed $29 $-1 #
edge $-1 $216 -70.551469466231268 $133 70.551469466231268 $125 $217 forward 7 unknown #
coedge $-1 $218 $219 $74 $131 forward $220 $-1 #
edge $-1 $134 -70.551469466231268 $221 70.551469466231268 $130 $222 forward 7 unknown #
coedge $-1 $223 $75 $219 $224 forward $121 $-1 #
vertex $-1 $76 $225 #
vertex $-1 $224 $226 #
straight-curve $-1 70.551469466231268 -15.137195717306669 2.8540234408788878 0 -1 0 I I #
face $-1 $227 $228 $17 $-1 $229 forward single #
loop $-1 $-1 $142 $77 #
plane-surface $-1 -70.551469466231268 0 0 1 0 0 0 0 -1 forward_v I I I I #
coedge $-1 $230 $231 $140 $232 forward $78 $-1 #
coedge $-1 $233 $80 $139 $232 reversed $49 $-1 #
coedge $-1 $80 $233 $82 $147 forward $49 $-1 #
coedge $-1 $234 $235 $80 $143 forward $137 $-1 #
edge $-1 $236 -4.3800554735100441 $237 -0.442663802749244 $142 $238 forward 7 unknown #
coedge $-1 $82 $81 $234 $239 reversed $32 $-1 #
coedge $-1 $240 $241 $81 $146 forward $242 $-1 #
edge $-1 $243 -70.551469466231268 $151 70.551469466231268 $145 $244 forward 7 unknown #
edge $-1 $152 -70.551469466231268 $237 70.551469466231268 $141 $245 forward 7 unknown #
coedge $-1 $246 $83 $233 $247 forward $150 $-1 #
coedge $-1 $83 $248 $240 $249 reversed $150 $-1 #
loop $-1 $-1 $148 $250 #
vertex $-1 $249 $251 #
vertex $-1 $84 $252 #
straight-curve $-1 70.551469466231268 15.137195717306671 2.8540234408788878 0 -1 0 I I #
face $-1 $253 $254 $18 $-1 $255 forward single #
loop $-1 $-1 $256 $85 #
plane-surface $-1 0 30.274391434613342 2.8540234408788878 0 0 1 1 0 0 forward_v I I I I #
coedge $-1 $257 $258 $90 $163 forward $86 $-1 #
coedge $-1 $259 $88 $260 $261 reversed $53 $-1 #
coedge $-1 $88 $259 $89 $162 reversed $53 $-1 #
coedge $-1 $91 $262 $88 $161 forward $165 $-1 #
edge $-1 $263 -16.565801199313682 $166 -4.7312089174985594 $160 $264 forward 7 unknown #
edge $-1 $166 -7.4077647551527424 $265 0 $89 $266 forward 7 unknown #
edge $-1 $167 55.171064321866339 $265 58.986345271499026 $157 $267 forward 7 unknown #
coedge $-1 $268 $91 $258 $269 forward $165 $-1 #
loop $-1 $-1 $91 $253 #
vertex $-1 $161 $270 #
vertex $-1 $269 $271 #
straight-curve $-1 -71.612428232442909 15.379713975904679 6.7914151116396866 -1 0 0 I I #
face $-1 $272 $273 $19 $-1 $274 reversed single #
loop $-1 $275 $99 $93 #
plane-surface $-1 -70.551469466231268 21.297010116812238 2.9761341620069999 -0.51503808176128008 0 0.85716729658548041 0.85716729658548041 0 0.51503808176128008 forward_v I I I I #
coedge $-1 $276 $277 $278 $279 reversed $94 $-1 #
coedge $-1 $173 $173 $-1 $280 forward $96 $-1 #
edge $-1 $281 0 $281 6.2831853071796004 $97 $282 forward 7 unknown #
vertex $-1 $100 $283 #
ellipse-curve $-1 -67.376622621773535 21.297010116812238 4.8837746368233352 0.51503808176128008 0 -0.85716729658548041 1.2857509448782207 0 0.77255712264192011 1 I I #
face $-1 $-1 $116 $15 $-1 $284 reversed single #
loop $-1 $-1 $193 $101 #
plane-surface $-1 0 33.334476611506879 0 0 -1 0 0 0 -1 forward_v I I I I #
coedge $-1 $285 $191 $194 $286 forward $102 $-1 #
coedge $-1 $197 $104 $105 $185 reversed $62 $-1 #
coedge $-1 $191 $285 $104 $183 reversed $102 $-1 #
edge $-1 $198 -6.7914151116396875 $287 6.7914151116396875 $182 $288 forward 7 unknown #
coedge $-1 $106 $105 $285 $289 forward $41 $-1 #
edge $-1 $189 -70.551469466231268 $287 70.551469466231268 $181 $290 forward 7 unknown #
coedge $-1 $194 $193 $106 $187 reversed $178 $-1 #
edge $-1 $291 -70.551469466231268 $188 70.551469466231268 $186 $292 forward 7 unknown #
vertex $-1 $108 $293 #
vertex $-1 $200 $294 #
straight-curve $-1 70.551469466231268 0 -6.7914151116396875 0 -1 0 I I #
coedge $-1 $180 $182 $109 $192 reversed $102 $-1 #
edge $-1 $195 -33.334476611506879 $198 33.334476611506879 $191 $295 forward 7 unknown #
coedge $-1 $186 $110 $115 $201 forward $178 $-1 #
coedge $-1 $110 $186 $180 $286 reversed $178 $-1 #
vertex $-1 $111 $296 #
straight-curve $-1 0 33.334476611506879 6.7914151116396875 -1 0 0 I I #
coedge $-1 $112 $181 $114 $200 reversed $62 $-1 #
vertex $-1 $192 $297 #
straight-curve $-1 0 -33.334476611506879 6.7914151116396875 1 0 0 I I #
edge $-1 $117 -6.7914151116396875 $189 6.7914151116396875 $114 $298 forward 7 unknown #
edge $-1 $118 -6.7914151116396875 $188 6.7914151116396875 $115 $299 forward 7 unknown #
point $-1 70.551469466231268 -33.334476611506879 6.7914151116396875 #
point $-1 70.551469466231268 33.334476611506879 6.7914151116396875 #
face $-1 $300 $220 $16 $-1 $301 reversed single #
loop $-1 $-1 $302 $120 #
plane-surface $-1 0 0 -6.7914151116396875 0 0 1 1 0 0 forward_v I I I I #
coedge $-1 $303 $123 $211 $304 forward $70 $-1 #
coedge $-1 $123 $303 $305 $306 forward $70 $-1 #
edge $-1 $307 -70.551469466231268 $212 70.551469466231268 $123 $308 forward 7 unknown #
coedge $-1 $125 $124 $309 $310 reversed $45 $-1 #
coedge $-1 $126 $311 $207 $304 reversed $121 $-1 #
vertex $-1 $304 $312 #
straight-curve $-1 70.551469466231268 -27.214306257719798 2.4113596381296438 0 0 -1 I I #
coedge $-1 $309 $313 $128 $215 forward $314 $-1 #
edge $-1 $221 -18.197280894200212 $216 -12.077110540413129 $214 $315 forward 7 unknown #
vertex $-1 $215 $316 #
straight-curve $-1 0 -27.214306257719798 2.8540234408788878 1 0 0 I I #
coedge $-1 $317 $130 $313 $318 forward $220 $-1 #
coedge $-1 $130 $317 $132 $224 reversed $220 $-1 #
loop $-1 $-1 $130 $204 #
vertex $-1 $318 $319 #
straight-curve $-1 0 -33.334476611506879 2.8540234408788878 -1 0 0 I I #
coedge $-1 $311 $132 $302 $320 reversed $121 $-1 #
edge $-1 $134 -2.8540234408788878 $321 6.7914151116396875 $132 $322 forward 7 unknown #
point $-1 70.551469466231268 -27.214306257719798 2.8540234408788878 #
point $-1 70.551469466231268 -33.334476611506879 2.8540234408788878 #
face $-1 $250 $323 $17 $-1 $324 forward single #
loop $-1 $-1 $325 $136 #
plane-surface $-1 0 -30.274391434613339 2.8540234408788878 0 0 1 1 0 0 forward_v I I I I #
coedge $-1 $326 $139 $235 $327 forward $78 $-1 #
coedge $-1 $139 $326 $246 $328 forward $78 $-1 #
edge $-1 $329 -70.551469466231268 $236 70.551469466231268 $139 $330 forward 7 unknown #
coedge $-1 $141 $140 $148 $247 reversed $49 $-1 #
coedge $-1 $331 $142 $144 $239 forward $137 $-1 #
coedge $-1 $142 $332 $230 $327 reversed $137 $-1 #
vertex $-1 $327 $333 #
vertex $-1 $239 $334 #
straight-curve $-1 -70.551469466231268 27.214306257719802 2.4113596381296438 0 0 -1 I I #
edge $-1 $237 12.07711054041313 $243 18.197280894200215 $234 $335 forward 7 unknown #
coedge $-1 $336 $145 $149 $249 forward $242 $-1 #
coedge $-1 $145 $336 $331 $337 reversed $242 $-1 #
loop $-1 $-1 $145 $338 #
vertex $-1 $337 $339 #
straight-curve $-1 0 33.334476611506879 2.8540234408788878 1 0 0 I I #
straight-curve $-1 0 27.214306257719802 2.8540234408788878 -1 0 0 I I #
coedge $-1 $340 $148 $231 $328 reversed $150 $-1 #
edge $-1 $152 0.442663802749244 $329 4.3800554735100441 $148 $341 forward 7 unknown #
coedge $-1 $149 $342 $343 $344 reversed $150 $-1 #
edge $-1 $151 -2.8540234408788878 $345 6.7914151116396875 $149 $346 forward 7 unknown #
face $-1 $347 $150 $17 $-1 $348 reversed single #
point $-1 70.551469466231268 33.334476611506886 2.8540234408788878 #
point $-1 70.551469466231268 27.214306257719802 2.8540234408788878 #
face $-1 $349 $165 $18 $-1 $350 forward single #
loop $-1 $-1 $260 $154 #
plane-surface $-1 0 27.214306257719802 4.8227192762592876 0 1 0 0 0 1 forward_v I I I I #
coedge $-1 $351 $352 $353 $354 reversed $155 $-1 #
coedge $-1 $355 $157 $259 $356 forward $86 $-1 #
coedge $-1 $157 $357 $164 $269 reversed $86 $-1 #
coedge $-1 $159 $158 $257 $356 reversed $53 $-1 #
coedge $-1 $358 $359 $158 $261 forward $254 $-1 #
edge $-1 $360 -30.712737003777981 $263 -23.304972248625237 $260 $361 forward 7 unknown #
coedge $-1 $160 $362 $358 $363 forward $165 $-1 #
vertex $-1 $261 $364 #
straight-curve $-1 -64.201775777315788 10.648505058406119 6.7914151116396866 0 -1 0 I I #
vertex $-1 $356 $365 #
straight-curve $-1 -70.551469466231268 15.379713975904679 2.9761341620069999 -0.85716729658548041 0 -0.51503808176128008 I I #
straight-curve $-1 -70.551469466231268 15.379713975904679 61.962479433506026 0 0 -1 I I #
coedge $-1 $362 $164 $366 $367 forward $165 $-1 #
edge $-1 $167 -15.379713975904679 $368 27.214306257719798 $258 $369 forward 7 unknown #
point $-1 -64.201775777315788 15.379713975904679 6.7914151116396875 #
point $-1 -70.551469466231268 15.379713975904679 6.7914151116396875 #
face $-1 $370 $371 $19 $-1 $372 forward single #
loop $-1 $-1 $373 $169 #
plane-surface $-1 -70.551469466231268 0 0 1 0 0 0 0 -1 forward_v I I I I #
loop $-1 $-1 $374 $93 #
coedge $-1 $277 $172 $375 $376 forward $94 $-1 #
coedge $-1 $172 $276 $373 $377 reversed $94 $-1 #
coedge $-1 $378 $379 $172 $279 forward $380 $-1 #
edge $-1 $381 -7.4106524551271207 $382 -1.0609587662116411 $278 $383 forward 7 unknown #
edge $-1 $384 1 $384 0 $173 $-1 forward 7 unknown #
vertex $-1 $174 $385 #
ellipse-curve $-1 -66.589989855886387 21.297010116812238 3.5745978881153007 -0.51503808176128008 0 0.85716729658548041 1.2857509448782207 0 0.77255712264192011 1 I I #
point $-1 -66.090871676895333 21.297010116812238 5.656331759465278 #
plane-surface $-1 70.551469466231268 0 0 -1 0 0 0 0 1 forward_v I I I I #
coedge $-1 $182 $180 $184 $289 reversed $102 $-1 #
edge $-1 $195 -6.7914151116396875 $291 6.7914151116396875 $194 $386 forward 7 unknown #
vertex $-1 $289 $387 #
straight-curve $-1 -70.551469466231268 -33.334476611506879 0 0 0 -1 I I #
edge $-1 $287 -33.334476611506879 $291 33.334476611506879 $285 $388 forward 7 unknown #
straight-curve $-1 0 -33.334476611506879 -6.7914151116396875 -1 0 0 I I #
vertex $-1 $187 $389 #
straight-curve $-1 0 33.334476611506879 -6.7914151116396875 1 0 0 I I #
point $-1 70.551469466231268 33.334476611506879 -6.7914151116396875 #
point $-1 70.551469466231268 -33.334476611506879 -6.7914151116396875 #
straight-curve $-1 -70.551469466231268 0 6.7914151116396875 0 -1 0 I I #
point $-1 -70.551469466231268 33.334476611506879 6.7914151116396875 #
point $-1 -70.551469466231268 -33.334476611506879 6.7914151116396875 #
straight-curve $-1 70.551469466231268 -33.334476611506879 0 0 0 -1 I I #
straight-curve $-1 70.551469466231268 33.334476611506879 0 0 0 -1 I I #
face $-1 $390 $314 $16 $-1 $391 reversed single #
plane-surface $-1 0 -33.334476611506879 0 0 1 0 0 0 1 forward_v I I I I #
coedge $-1 $392 $393 $223 $320 forward $205 $-1 #
coedge $-1 $208 $207 $394 $395 forward $70 $-1 #
edge $-1 $212 -27.214306257719798 $396 33.334476611506879 $211 $397 forward 7 unknown #
coedge $-1 $398 $309 $208 $306 reversed $314 $-1 #
edge $-1 $399 -33.334476611506879 $307 27.214306257719798 $305 $400 forward 7 unknown #
vertex $-1 $310 $401 #
straight-curve $-1 0 -27.214306257719798 6.7914151116396875 1 0 0 I I #
coedge $-1 $305 $214 $210 $310 forward $314 $-1 #
edge $-1 $216 0.442663802749244 $307 4.3800554735100441 $309 $402 forward 7 unknown #
coedge $-1 $211 $223 $403 $404 reversed $121 $-1 #
point $-1 70.551469466231268 -27.214306257719798 6.7914151116396875 #
coedge $-1 $214 $405 $218 $318 reversed $314 $-1 #
loop $-1 $-1 $309 $300 #
straight-curve $-1 -70.551469466231268 -15.137195717306669 2.8540234408788878 0 1 0 I I #
point $-1 -70.551469466231268 -27.214306257719798 2.8540234408788878 #
coedge $-1 $219 $218 $392 $406 reversed $220 $-1 #
edge $-1 $221 -2.8540234408788878 $407 6.7914151116396875 $313 $408 forward 7 unknown #
point $-1 -70.551469466231268 -33.334476611506879 2.8540234408788878 #
edge $-1 $409 -33.334476611506879 $321 33.334476611506879 $223 $410 forward 7 unknown #
vertex $-1 $224 $411 #
straight-curve $-1 70.551469466231268 -33.334476611506879 0 0 0 -1 I I #
loop $-1 $-1 $412 $227 #
plane-surface $-1 0 -27.214306257719798 4.8227192762592876 0 -1 0 0 0 -1 forward_v I I I I #
coedge $-1 $413 $414 $415 $416 reversed $228 $-1 #
coedge $-1 $231 $230 $417 $418 forward $78 $-1 #
edge $-1 $236 -27.214306257719802 $419 27.214306257719798 $235 $420 forward 7 unknown #
edge $-1 $421 -27.214306257719798 $329 27.214306257719802 $246 $422 forward 7 unknown #
vertex $-1 $232 $423 #
straight-curve $-1 0 27.214306257719802 6.7914151116396875 -1 0 0 I I #
coedge $-1 $424 $234 $241 $337 forward $137 $-1 #
coedge $-1 $235 $425 $426 $427 forward $137 $-1 #
point $-1 -70.551469466231268 27.214306257719802 6.7914151116396875 #
point $-1 -70.551469466231268 27.214306257719802 2.8540234408788878 #
straight-curve $-1 -70.551469466231268 15.137195717306671 2.8540234408788878 0 1 0 I I #
coedge $-1 $241 $240 $428 $429 reversed $242 $-1 #
edge $-1 $243 -2.8540234408788878 $430 6.7914151116396875 $241 $431 forward 7 unknown #
face $-1 $-1 $242 $17 $-1 $432 reversed single #
point $-1 -70.551469466231268 33.334476611506886 2.8540234408788878 #
coedge $-1 $415 $246 $412 $433 forward $150 $-1 #
straight-curve $-1 70.551469466231268 27.214306257719802 2.4113596381296438 0 0 1 I I #
coedge $-1 $248 $415 $434 $435 forward $150 $-1 #
coedge $-1 $436 $428 $248 $344 forward $437 $-1 #
edge $-1 $345 -33.334476611506879 $438 33.334476611506879 $248 $439 forward 7 unknown #
vertex $-1 $344 $440 #
straight-curve $-1 70.551469466231268 33.334476611506879 0 0 0 -1 I I #
face $-1 $441 $437 $17 $-1 $442 reversed single #
plane-surface $-1 70.551469466231268 0 0 -1 0 0 0 0 1 forward_v I I I I #
face $-1 $443 $444 $18 $-1 $445 forward single #
plane-surface $-1 0 0 6.7914151116396875 0 0 1 1 0 0 forward_v I I I I #
coedge $-1 $446 $256 $447 $448 reversed $155 $-1 #
coedge $-1 $256 $446 $449 $450 reversed $155 $-1 #
coedge $-1 $451 $452 $256 $354 forward $453 $-1 #
edge $-1 $454 -18.197280894200215 $455 -12.07711054041313 $353 $456 forward 7 unknown #
coedge $-1 $457 $257 $359 $458 forward $86 $-1 #
edge $-1 $265 4.7312089174985594 $360 16.565801199313682 $257 $459 forward 7 unknown #
coedge $-1 $258 $460 $461 $462 forward $86 $-1 #
coedge $-1 $463 $260 $262 $363 reversed $254 $-1 #
coedge $-1 $260 $449 $355 $458 reversed $254 $-1 #
vertex $-1 $458 $464 #
straight-curve $-1 -44.225515717962047 27.214306257719802 18.794363314071493 0.85716729658548041 0 0.51503808176128008 I I #
coedge $-1 $262 $268 $465 $466 forward $165 $-1 #
edge $-1 $467 -70.551469466231268 $263 64.201775777315788 $262 $468 forward 7 unknown #
point $-1 -64.201775777315788 27.214306257719802 6.7914151116396875 #
point $-1 -70.551469466231268 15.379713975904679 2.9761341620069999 #
coedge $-1 $461 $469 $268 $367 reversed $470 $-1 #
edge $-1 $368 -70.551469466231268 $471 70.551469466231268 $268 $472 forward 7 unknown #
vertex $-1 $462 $473 #
straight-curve $-1 -70.551469466231268 0 6.7914151116396875 0 -1 0 I I #
face $-1 $474 $475 $19 $-1 $476 forward single #
loop $-1 $-1 $477 $272 #
plane-surface $-1 0 30.274391434613342 2.8540234408788878 0 0 1 1 0 0 forward_v I I I I #
coedge $-1 $478 $479 $277 $377 forward $273 $-1 #
coedge $-1 $480 $375 $379 $481 reversed $275 $-1 #
coedge $-1 $374 $482 $276 $376 reversed $275 $-1 #
edge $-1 $381 -7.4077647551527424 $483 0 $276 $484 forward 7 unknown #
edge $-1 $382 55.171064321866339 $483 58.986345271499026 $373 $485 forward 7 unknown #
coedge $-1 $486 $278 $479 $487 forward $380 $-1 #
coedge $-1 $278 $488 $374 $481 forward $380 $-1 #
loop $-1 $-1 $278 $474 #
vertex $-1 $481 $489 #
vertex $-1 $487 $490 #
straight-curve $-1 -71.612428232442909 15.379713975904679 6.7914151116396866 -1 0 0 I I #
vertex $-1 $280 $491 #
point $-1 -65.304238911008156 21.297010116812238 4.3471550107572208 #
straight-curve $-1 -70.551469466231268 33.334476611506879 0 0 0 -1 I I #
point $-1 -70.551469466231268 -33.334476611506879 -6.7914151116396875 #
straight-curve $-1 -70.551469466231268 0 -6.7914151116396875 0 1 0 I I #
point $-1 -70.551469466231268 33.334476611506879 -6.7914151116396875 #
face $-1 $-1 $492 $16 $-1 $493 reversed single #
plane-surface $-1 -70.551469466231268 0 0 1 0 0 0 0 -1 forward_v I I I I #
coedge $-1 $494 $302 $317 $406 forward $205 $-1 #
coedge $-1 $302 $494 $495 $496 forward $205 $-1 #
coedge $-1 $403 $497 $303 $395 reversed $492 $-1 #
edge $-1 $396 -70.551469466231268 $399 70.551469466231268 $394 $498 forward 7 unknown #
vertex $-1 $304 $499 #
straight-curve $-1 70.551469466231268 0 6.7914151116396875 0 1 0 I I #
coedge $-1 $405 $305 $497 $500 forward $314 $-1 #
vertex $-1 $395 $501 #
straight-curve $-1 -70.551469466231268 0 6.7914151116396875 0 -1 0 I I #
point $-1 -70.551469466231268 -27.214306257719798 6.7914151116396875 #
straight-curve $-1 -70.551469466231268 -27.214306257719798 2.4113596381296438 0 0 1 I I #
coedge $-1 $495 $394 $311 $404 forward $492 $-1 #
edge $-1 $396 -6.7914151116396875 $409 6.7914151116396875 $311 $502 forward 7 unknown #
coedge $-1 $313 $398 $494 $503 reversed $314 $-1 #
edge $-1 $321 -70.551469466231268 $407 70.551469466231268 $317 $504 forward 7 unknown #
vertex $-1 $503 $505 #
straight-curve $-1 -70.551469466231268 -33.334476611506879 0 0 0 -1 I I #
vertex $-1 $320 $506 #
straight-curve $-1 70.551469466231268 0 -6.7914151116396875 0 -1 0 I I #
point $-1 70.551469466231268 -33.334476611506879 -6.7914151116396875 #
coedge $-1 $417 $507 $340 $433 reversed $323 $-1 #
coedge $-1 $508 $325 $507 $509 reversed $228 $-1 #
coedge $-1 $325 $508 $510 $511 reversed $228 $-1 #
coedge $-1 $342 $340 $325 $416 forward $150 $-1 #
edge $-1 $512 12.077110540413129 $513 18.197280894200212 $415 $514 forward 7 unknown #
coedge $-1 $426 $412 $326 $418 reversed $323 $-1 #
edge $-1 $419 -70.551469466231268 $421 70.551469466231268 $326 $515 forward 7 unknown #
vertex $-1 $427 $516 #
straight-curve $-1 -70.551469466231268 0 6.7914151116396875 0 -1 0 I I #
vertex $-1 $328 $517 #
straight-curve $-1 70.551469466231268 0 6.7914151116396875 0 1 0 I I #
point $-1 70.551469466231268 27.214306257719802 6.7914151116396875 #
coedge $-1 $518 $331 $519 $520 reversed $137 $-1 #
coedge $-1 $332 $518 $508 $521 forward $137 $-1 #
coedge $-1 $507 $417 $332 $427 reversed $323 $-1 #
edge $-1 $522 0.442663802749244 $419 4.3800554735100441 $332 $523 forward 7 unknown #
coedge $-1 $343 $519 $336 $429 forward $437 $-1 #
edge $-1 $430 -70.551469466231268 $345 70.551469466231268 $336 $524 forward 7 unknown #
vertex $-1 $429 $525 #
straight-curve $-1 -70.551469466231268 33.334476611506879 0 0 0 -1 I I #
plane-surface $-1 0 33.334476611506879 0 0 -1 0 0 0 -1 forward_v I I I I #
edge $-1 $421 -4.3800554735100441 $512 -0.442663802749244 $340 $526 forward 7 unknown #
coedge $-1 $510 $527 $342 $435 reversed $528 $-1 #
edge $-1 $513 -2.8540234408788878 $438 6.7914151116396875 $342 $529 forward 7 unknown #
coedge $-1 $519 $343 $527 $530 forward $437 $-1 #
loop $-1 $-1 $343 $347 #
vertex $-1 $435 $531 #
straight-curve $-1 70.551469466231268 0 -6.7914151116396875 0 -1 0 I I #
point $-1 70.551469466231268 33.334476611506879 -6.7914151116396875 #
face $-1 $338 $528 $17 $-1 $532 reversed single #
plane-surface $-1 0 0 -6.7914151116396875 0 0 1 1 0 0 forward_v I I I I #
face $-1 $533 $470 $18 $-1 $534 forward single #
loop $-1 $-1 $535 $349 #
plane-surface $-1 0 -30.274391434613339 2.8540234408788878 0 0 1 1 0 0 forward_v I I I I #
coedge $-1 $352 $351 $457 $536 reversed $155 $-1 #
coedge $-1 $537 $538 $351 $448 forward $539 $-1 #
edge $-1 $540 -70.551469466231268 $454 70.551469466231268 $447 $541 forward 7 unknown #
coedge $-1 $359 $463 $352 $450 forward $254 $-1 #
edge $-1 $455 -70.551469466231268 $542 70.551469466231268 $449 $543 forward 7 unknown #
coedge $-1 $465 $353 $463 $544 forward $453 $-1 #
coedge $-1 $353 $545 $537 $546 reversed $453 $-1 #
loop $-1 $-1 $451 $533 #
vertex $-1 $546 $547 #
vertex $-1 $354 $548 #
straight-curve $-1 70.551469466231268 15.137195717306671 2.8540234408788878 0 -1 0 I I #
coedge $-1 $549 $355 $446 $536 forward $86 $-1 #
edge $-1 $360 -0.56477452387735605 $542 -0.442663802749244 $355 $550 forward 7 unknown #
straight-curve $-1 -70.551469466231268 10.648505058406119 2.9761341620070008 0 1 0 I I #
coedge $-1 $357 $551 $552 $553 forward $86 $-1 #
coedge $-1 $554 $366 $357 $462 reversed $470 $-1 #
edge $-1 $555 0.442663802749244 $368 4.3800554735100441 $357 $556 forward 7 unknown #
coedge $-1 $449 $358 $451 $544 reversed $254 $-1 #
point $-1 -70.551469466231268 27.214306257719802 2.9761341620069999 #
coedge $-1 $557 $451 $362 $466 reversed $453 $-1 #
edge $-1 $471 -27.214306257719798 $467 27.214306257719802 $465 $558 forward 7 unknown #
vertex $-1 $363 $559 #
straight-curve $-1 0 27.214306257719802 6.7914151116396875 -1 0 0 I I #
coedge $-1 $366 $554 $557 $560 reversed $470 $-1 #
loop $-1 $-1 $469 $443 #
vertex $-1 $466 $561 #
straight-curve $-1 0 -27.214306257719798 6.7914151116396875 1 0 0 I I #
point $-1 -70.551469466231268 -27.214306257719798 6.7914151116396875 #
face $-1 $562 $380 $19 $-1 $563 forward single #
loop $-1 $-1 $564 $370 #
plane-surface $-1 0 27.214306257719802 4.8227192762592876 0 1 0 0 0 1 forward_v I I I I #
coedge $-1 $565 $566 $567 $568 reversed $371 $-1 #
coedge $-1 $569 $373 $482 $570 forward $273 $-1 #
coedge $-1 $373 $571 $378 $487 reversed $273 $-1 #
coedge $-1 $482 $374 $564 $572 reversed $275 $-1 #
edge $-1 $573 -16.565801199313682 $381 -4.7312089174985594 $379 $574 forward 7 unknown #
coedge $-1 $375 $480 $478 $570 reversed $275 $-1 #
vertex $-1 $570 $575 #
straight-curve $-1 -70.551469466231268 15.379713975904679 2.9761341620069999 -0.85716729658548041 0 -0.51503808176128008 I I #
straight-curve $-1 -70.551469466231268 15.379713975904679 61.962479433506026 0 0 -1 I I #
coedge $-1 $576 $378 $577 $578 forward $380 $-1 #
edge $-1 $382 -15.379713975904679 $579 27.214306257719798 $479 $580 forward 7 unknown #
coedge $-1 $379 $576 $581 $582 forward $380 $-1 #
point $-1 -64.201775777315788 15.379713975904679 6.7914151116396875 #
point $-1 -70.551469466231268 15.379713975904679 6.7914151116396875 #
point $-1 -65.817432733244459 21.297010116812238 2.2888469432370795 #
loop $-1 $-1 $403 $390 #
plane-surface $-1 0 33.334476611506879 0 0 -1 0 0 0 -1 forward_v I I I I #
coedge $-1 $393 $392 $405 $503 forward $205 $-1 #
coedge $-1 $497 $403 $393 $496 reversed $492 $-1 #
edge $-1 $583 -70.551469466231268 $409 70.551469466231268 $495 $584 forward 7 unknown #
coedge $-1 $394 $495 $398 $500 reversed $492 $-1 #
straight-curve $-1 0 33.334476611506879 6.7914151116396875 -1 0 0 I I #
point $-1 70.551469466231268 33.334476611506879 6.7914151116396875 #
edge $-1 $399 -6.7914151116396875 $583 6.7914151116396875 $497 $585 forward 7 unknown #
point $-1 -70.551469466231268 33.334476611506879 6.7914151116396875 #
straight-curve $-1 70.551469466231268 33.334476611506879 0 0 0 -1 I I #
edge $-1 $407 -33.334476611506879 $583 33.334476611506879 $405 $586 forward 7 unknown #
straight-curve $-1 0 -33.334476611506879 -6.7914151116396875 -1 0 0 I I #
point $-1 -70.551469466231268 -33.334476611506879 -6.7914151116396875 #
point $-1 70.551469466231268 33.334476611506879 -6.7914151116396875 #
coedge $-1 $412 $426 $413 $509 forward $323 $-1 #
coedge $-1 $414 $413 $425 $521 reversed $228 $-1 #
edge $-1 $522 -70.551469466231268 $512 70.551469466231268 $507 $587 forward 7 unknown #
coedge $-1 $588 $434 $414 $511 forward $528 $-1 #
edge $-1 $513 -70.551469466231268 $589 70.551469466231268 $510 $590 forward 7 unknown #
vertex $-1 $416 $591 #
vertex $-1 $435 $592 #
straight-curve $-1 70.551469466231268 -15.137195717306669 2.8540234408788878 0 -1 0 I I #
straight-curve $-1 0 -27.214306257719798 6.7914151116396875 1 0 0 I I #
point $-1 -70.551469466231268 -27.214306257719798 6.7914151116396875 #
point $-1 70.551469466231268 -27.214306257719798 6.7914151116396875 #
coedge $-1 $425 $424 $588 $593 reversed $137 $-1 #
coedge $-1 $428 $436 $424 $520 forward $437 $-1 #
edge $-1 $594 -33.334476611506879 $430 33.334476611506879 $424 $595 forward 7 unknown #
edge $-1 $589 -18.197280894200212 $522 -12.077110540413129 $425 $596 forward 7 unknown #
vertex $-1 $521 $597 #
straight-curve $-1 -70.551469466231268 -27.214306257719798 2.4113596381296438 0 0 1 I I #
straight-curve $-1 0 33.334476611506879 -6.7914151116396875 1 0 0 I I #
point $-1 -70.551469466231268 33.334476611506879 -6.7914151116396875 #
straight-curve $-1 70.551469466231268 -27.214306257719798 2.4113596381296438 0 0 -1 I I #
coedge $-1 $434 $588 $436 $530 reversed $528 $-1 #
loop $-1 $-1 $510 $441 #
straight-curve $-1 70.551469466231268 -33.334476611506879 0 0 0 -1 I I #
edge $-1 $438 -70.551469466231268 $594 70.551469466231268 $527 $598 forward 7 unknown #
point $-1 70.551469466231268 -33.334476611506879 -6.7914151116396875 #
plane-surface $-1 0 -33.334476611506879 0 0 1 0 0 0 1 forward_v I I I I #
face $-1 $599 $453 $18 $-1 $600 reversed single #
plane-surface $-1 0 -27.214306257719798 4.8227192762592876 0 -1 0 0 0 -1 forward_v I I I I #
coedge $-1 $601 $602 $603 $604 reversed $444 $-1 #
edge $-1 $542 12.07711054041313 $540 18.197280894200215 $457 $605 forward 7 unknown #
coedge $-1 $606 $447 $452 $546 forward $539 $-1 #
coedge $-1 $447 $606 $549 $607 reversed $539 $-1 #
loop $-1 $-1 $447 $608 #
vertex $-1 $607 $609 #
straight-curve $-1 0 33.334476611506879 2.8540234408788878 1 0 0 I I #
vertex $-1 $536 $610 #
straight-curve $-1 0 27.214306257719802 2.8540234408788878 -1 0 0 I I #
edge $-1 $455 0.442663802749244 $467 4.3800554735100441 $451 $611 forward 7 unknown #
coedge $-1 $452 $612 $613 $614 reversed $453 $-1 #
edge $-1 $454 -2.8540234408788878 $615 6.7914151116396875 $452 $616 forward 7 unknown #
point $-1 70.551469466231268 33.334476611506886 2.8540234408788878 #
point $-1 70.551469466231268 27.214306257719802 2.8540234408788878 #
coedge $-1 $617 $457 $538 $607 forward $86 $-1 #
straight-curve $-1 -70.551469466231268 27.214306257719802 2.4113596381296438 0 0 -1 I I #
coedge $-1 $460 $617 $618 $619 reversed $86 $-1 #
coedge $-1 $602 $601 $460 $553 reversed $444 $-1 #
edge $-1 $620 -18.197280894200212 $555 -12.077110540413129 $460 $621 forward 7 unknown #
coedge $-1 $469 $461 $601 $622 forward $470 $-1 #
vertex $-1 $553 $623 #
straight-curve $-1 -70.551469466231268 -27.214306257719798 2.4113596381296438 0 0 1 I I #
coedge $-1 $603 $465 $469 $560 forward $453 $-1 #
straight-curve $-1 70.551469466231268 0 6.7914151116396875 0 1 0 I I #
point $-1 70.551469466231268 27.214306257719802 6.7914151116396875 #
edge $-1 $471 -4.3800554735100441 $624 -0.442663802749244 $557 $625 forward 7 unknown #
point $-1 70.551469466231268 -27.214306257719798 6.7914151116396875 #
face $-1 $626 $627 $19 $-1 $628 forward single #
plane-surface $-1 0 0 6.7914151116396875 0 0 1 1 0 0 forward_v I I I I #
coedge $-1 $581 $629 $480 $572 forward $475 $-1 #
coedge $-1 $630 $477 $631 $632 reversed $371 $-1 #
coedge $-1 $477 $630 $633 $634 reversed $371 $-1 #
coedge $-1 $635 $636 $477 $568 forward $637 $-1 #
edge $-1 $638 -18.197280894200215 $639 -12.07711054041313 $567 $640 forward 7 unknown #
coedge $-1 $641 $478 $629 $642 forward $273 $-1 #
edge $-1 $483 4.7312089174985594 $643 16.565801199313682 $478 $644 forward 7 unknown #
coedge $-1 $479 $645 $646 $647 forward $273 $-1 #
edge $-1 $643 -30.712737003777981 $573 -23.304972248625237 $564 $648 forward 7 unknown #
vertex $-1 $572 $649 #
straight-curve $-1 -64.201775777315788 10.648505058406119 6.7914151116396866 0 -1 0 I I #
point $-1 -70.551469466231268 15.379713975904679 2.9761341620069999 #
coedge $-1 $488 $486 $650 $651 forward $380 $-1 #
coedge $-1 $646 $652 $486 $578 reversed $653 $-1 #
edge $-1 $579 -70.551469466231268 $654 70.551469466231268 $486 $655 forward 7 unknown #
vertex $-1 $647 $656 #
straight-curve $-1 -70.551469466231268 0 6.7914151116396875 0 -1 0 I I #
coedge $-1 $657 $564 $488 $582 reversed $475 $-1 #
edge $-1 $658 -70.551469466231268 $573 64.201775777315788 $488 $659 forward 7 unknown #
vertex $-1 $496 $660 #
straight-curve $-1 0 33.334476611506879 -6.7914151116396875 1 0 0 I I #
straight-curve $-1 -70.551469466231268 33.334476611506879 0 0 0 -1 I I #
straight-curve $-1 -70.551469466231268 0 -6.7914151116396875 0 1 0 I I #
straight-curve $-1 0 -27.214306257719798 2.8540234408788878 1 0 0 I I #
coedge $-1 $527 $510 $518 $593 forward $528 $-1 #
vertex $-1 $593 $661 #
straight-curve $-1 0 -33.334476611506879 2.8540234408788878 -1 0 0 I I #
point $-1 70.551469466231268 -27.214306257719798 2.8540234408788878 #
point $-1 70.551469466231268 -33.334476611506879 2.8540234408788878 #
edge $-1 $589 -2.8540234408788878 $594 6.7914151116396875 $518 $662 forward 7 unknown #
vertex $-1 $520 $663 #
straight-curve $-1 -70.551469466231268 0 -6.7914151116396875 0 1 0 I I #
straight-curve $-1 -70.551469466231268 -15.137195717306669 2.8540234408788878 0 1 0 I I #
point $-1 -70.551469466231268 -27.214306257719798 2.8540234408788878 #
straight-curve $-1 0 -33.334476611506879 -6.7914151116396875 -1 0 0 I I #
face $-1 $664 $665 $18 $-1 $666 reversed single #
plane-surface $-1 70.551469466231268 0 0 -1 0 0 0 0 1 forward_v I I I I #
coedge $-1 $552 $535 $554 $622 reversed $444 $-1 #
coedge $-1 $535 $552 $667 $668 reversed $444 $-1 #
coedge $-1 $612 $557 $535 $604 forward $453 $-1 #
edge $-1 $624 12.077110540413129 $669 18.197280894200212 $603 $670 forward 7 unknown #
straight-curve $-1 -70.551469466231268 15.137195717306671 2.8540234408788878 0 1 0 I I #
coedge $-1 $538 $537 $671 $672 reversed $539 $-1 #
edge $-1 $540 -2.8540234408788878 $673 6.7914151116396875 $538 $674 forward 7 unknown #
face $-1 $-1 $539 $18 $-1 $675 reversed single #
point $-1 -70.551469466231268 33.334476611506886 2.8540234408788878 #
point $-1 -70.551469466231268 27.214306257719802 2.8540234408788878 #
straight-curve $-1 70.551469466231268 27.214306257719802 2.4113596381296438 0 0 1 I I #
coedge $-1 $545 $603 $676 $677 forward $453 $-1 #
coedge $-1 $678 $671 $545 $614 forward $665 $-1 #
edge $-1 $615 -33.334476611506879 $679 33.334476611506879 $545 $680 forward 7 unknown #
vertex $-1 $614 $681 #
straight-curve $-1 70.551469466231268 33.334476611506879 0 0 0 -1 I I #
coedge $-1 $551 $549 $682 $683 reversed $86 $-1 #
coedge $-1 $684 $667 $551 $619 forward $685 $-1 #
edge $-1 $620 -2.8540234408788878 $686 6.7914151116396875 $551 $687 forward 7 unknown #
vertex $-1 $619 $688 #
straight-curve $-1 -70.551469466231268 -15.137195717306669 2.8540234408788878 0 1 0 I I #
edge $-1 $555 -70.551469466231268 $624 70.551469466231268 $554 $689 forward 7 unknown #
point $-1 -70.551469466231268 -27.214306257719798 2.8540234408788878 #
vertex $-1 $604 $690 #
straight-curve $-1 70.551469466231268 -27.214306257719798 2.4113596381296438 0 0 -1 I I #
face $-1 $691 $653 $19 $-1 $692 forward single #
loop $-1 $-1 $693 $562 #
plane-surface $-1 0 -30.274391434613339 2.8540234408788878 0 0 1 1 0 0 forward_v I I I I #
coedge $-1 $564 $633 $569 $642 reversed $475 $-1 #
coedge $-1 $566 $565 $641 $694 reversed $371 $-1 #
coedge $-1 $695 $696 $565 $632 forward $697 $-1 #
edge $-1 $698 -70.551469466231268 $638 70.551469466231268 $631 $699 forward 7 unknown #
coedge $-1 $629 $657 $566 $634 forward $475 $-1 #
edge $-1 $639 -70.551469466231268 $700 70.551469466231268 $633 $701 forward 7 unknown #
coedge $-1 $650 $567 $657 $702 forward $637 $-1 #
coedge $-1 $567 $703 $695 $704 reversed $637 $-1 #
loop $-1 $-1 $635 $691 #
vertex $-1 $704 $705 #
vertex $-1 $568 $706 #
straight-curve $-1 70.551469466231268 15.137195717306671 2.8540234408788878 0 -1 0 I I #
coedge $-1 $707 $569 $630 $694 forward $273 $-1 #
edge $-1 $643 -0.56477452387735605 $700 -0.442663802749244 $569 $708 forward 7 unknown #
vertex $-1 $642 $709 #
straight-curve $-1 -70.551469466231268 10.648505058406119 2.9761341620070008 0 1 0 I I #
coedge $-1 $571 $710 $711 $712 forward $273 $-1 #
coedge $-1 $713 $577 $571 $647 reversed $653 $-1 #
edge $-1 $714 0.442663802749244 $579 4.3800554735100441 $571 $715 forward 7 unknown #
straight-curve $-1 -44.225515717962047 27.214306257719802 18.794363314071493 0.85716729658548041 0 0.51503808176128008 I I #
point $-1 -64.201775777315788 27.214306257719802 6.7914151116396875 #
coedge $-1 $716 $635 $576 $651 reversed $637 $-1 #
edge $-1 $654 -27.214306257719798 $658 27.214306257719802 $650 $717 forward 7 unknown #
coedge $-1 $577 $713 $716 $718 reversed $653 $-1 #
loop $-1 $-1 $652 $626 #
vertex $-1 $651 $719 #
straight-curve $-1 0 -27.214306257719798 6.7914151116396875 1 0 0 I I #
point $-1 -70.551469466231268 -27.214306257719798 6.7914151116396875 #
coedge $-1 $633 $581 $635 $702 reversed $475 $-1 #
vertex $-1 $582 $720 #
straight-curve $-1 0 27.214306257719802 6.7914151116396875 -1 0 0 I I #
point $-1 -70.551469466231268 33.334476611506879 -6.7914151116396875 #
point $-1 -70.551469466231268 -33.334476611506879 2.8540234408788878 #
straight-curve $-1 -70.551469466231268 -33.334476611506879 0 0 0 -1 I I #
point $-1 -70.551469466231268 -33.334476611506879 -6.7914151116396875 #
face $-1 $608 $685 $18 $-1 $721 reversed single #
loop $-1 $-1 $613 $599 #
plane-surface $-1 0 0 -6.7914151116396875 0 0 1 1 0 0 forward_v I I I I #
coedge $-1 $618 $676 $602 $668 forward $685 $-1 #
edge $-1 $669 -70.551469466231268 $620 70.551469466231268 $667 $722 forward 7 unknown #
vertex $-1 $677 $723 #
straight-curve $-1 70.551469466231268 -15.137195717306669 2.8540234408788878 0 -1 0 I I #
coedge $-1 $613 $682 $606 $672 forward $665 $-1 #
edge $-1 $673 -70.551469466231268 $615 70.551469466231268 $606 $724 forward 7 unknown #
vertex $-1 $672 $725 #
straight-curve $-1 -70.551469466231268 33.334476611506879 0 0 0 -1 I I #
plane-surface $-1 0 33.334476611506879 0 0 -1 0 0 0 -1 forward_v I I I I #
coedge $-1 $667 $684 $612 $677 reversed $685 $-1 #
edge $-1 $669 -2.8540234408788878 $679 6.7914151116396875 $612 $726 forward 7 unknown #
coedge $-1 $682 $613 $684 $727 forward $665 $-1 #
vertex $-1 $677 $728 #
straight-curve $-1 70.551469466231268 0 -6.7914151116396875 0 -1 0 I I #
point $-1 70.551469466231268 33.334476611506879 -6.7914151116396875 #
coedge $-1 $671 $678 $617 $683 forward $665 $-1 #
edge $-1 $686 -33.334476611506879 $673 33.334476611506879 $617 $729 forward 7 unknown #
coedge $-1 $676 $618 $678 $727 reversed $685 $-1 #
loop $-1 $-1 $667 $664 #
vertex $-1 $683 $730 #
straight-curve $-1 -70.551469466231268 -33.334476611506879 0 0 0 -1 I I #
point $-1 -70.551469466231268 -33.334476611506879 2.8540234408788878 #
straight-curve $-1 0 -27.214306257719798 2.8540234408788878 1 0 0 I I #
point $-1 70.551469466231268 -27.214306257719798 2.8540234408788878 #
face $-1 $731 $637 $19 $-1 $732 reversed single #
plane-surface $-1 0 -27.214306257719798 4.8227192762592876 0 -1 0 0 0 -1 forward_v I I I I #
coedge $-1 $733 $734 $735 $736 reversed $627 $-1 #
edge $-1 $700 12.07711054041313 $698 18.197280894200215 $641 $737 forward 7 unknown #
coedge $-1 $738 $631 $636 $704 forward $697 $-1 #
coedge $-1 $631 $738 $707 $739 reversed $697 $-1 #
loop $-1 $-1 $631 $740 #
vertex $-1 $739 $741 #
straight-curve $-1 0 33.334476611506879 2.8540234408788878 1 0 0 I I #
vertex $-1 $694 $742 #
straight-curve $-1 0 27.214306257719802 2.8540234408788878 -1 0 0 I I #
edge $-1 $639 0.442663802749244 $658 4.3800554735100441 $635 $743 forward 7 unknown #
coedge $-1 $636 $744 $745 $746 reversed $637 $-1 #
edge $-1 $638 -2.8540234408788878 $747 6.7914151116396875 $636 $748 forward 7 unknown #
point $-1 70.551469466231268 33.334476611506886 2.8540234408788878 #
point $-1 70.551469466231268 27.214306257719802 2.8540234408788878 #
coedge $-1 $749 $641 $696 $739 forward $273 $-1 #
straight-curve $-1 -70.551469466231268 27.214306257719802 2.4113596381296438 0 0 -1 I I #
point $-1 -70.551469466231268 27.214306257719802 2.9761341620069999 #
coedge $-1 $645 $749 $750 $751 reversed $273 $-1 #
coedge $-1 $734 $733 $645 $712 reversed $627 $-1 #
edge $-1 $752 -18.197280894200212 $714 -12.077110540413129 $645 $753 forward 7 unknown #
coedge $-1 $652 $646 $733 $754 forward $653 $-1 #
vertex $-1 $712 $755 #
straight-curve $-1 -70.551469466231268 -27.214306257719798 2.4113596381296438 0 0 1 I I #
coedge $-1 $735 $650 $652 $718 forward $637 $-1 #
straight-curve $-1 70.551469466231268 0 6.7914151116396875 0 1 0 I I #
edge $-1 $654 -4.3800554735100441 $756 -0.442663802749244 $716 $757 forward 7 unknown #
point $-1 70.551469466231268 -27.214306257719798 6.7914151116396875 #
point $-1 70.551469466231268 27.214306257719802 6.7914151116396875 #
plane-surface $-1 0 -33.334476611506879 0 0 1 0 0 0 1 forward_v I I I I #
straight-curve $-1 0 -33.334476611506879 2.8540234408788878 -1 0 0 I I #
point $-1 70.551469466231268 -33.334476611506879 2.8540234408788878 #
straight-curve $-1 0 33.334476611506879 -6.7914151116396875 1 0 0 I I #
point $-1 -70.551469466231268 33.334476611506879 -6.7914151116396875 #
straight-curve $-1 70.551469466231268 -33.334476611506879 0 0 0 -1 I I #
edge $-1 $679 -70.551469466231268 $686 70.551469466231268 $684 $758 forward 7 unknown #
point $-1 70.551469466231268 -33.334476611506879 -6.7914151116396875 #
straight-curve $-1 -70.551469466231268 0 -6.7914151116396875 0 1 0 I I #
point $-1 -70.551469466231268 -33.334476611506879 -6.7914151116396875 #
face $-1 $759 $760 $19 $-1 $761 reversed single #
plane-surface $-1 70.551469466231268 0 0 -1 0 0 0 0 1 forward_v I I I I #
coedge $-1 $711 $693 $713 $754 reversed $627 $-1 #
coedge $-1 $693 $711 $762 $763 reversed $627 $-1 #
coedge $-1 $744 $716 $693 $736 forward $637 $-1 #
edge $-1 $756 12.077110540413129 $764 18.197280894200212 $735 $765 forward 7 unknown #
straight-curve $-1 -70.551469466231268 15.137195717306671 2.8540234408788878 0 1 0 I I #
coedge $-1 $696 $695 $766 $767 reversed $697 $-1 #
edge $-1 $698 -2.8540234408788878 $768 6.7914151116396875 $696 $769 forward 7 unknown #
face $-1 $-1 $697 $19 $-1 $770 reversed single #
point $-1 -70.551469466231268 33.334476611506886 2.8540234408788878 #
point $-1 -70.551469466231268 27.214306257719802 2.8540234408788878 #
straight-curve $-1 70.551469466231268 27.214306257719802 2.4113596381296438 0 0 1 I I #
coedge $-1 $703 $735 $771 $772 forward $637 $-1 #
coedge $-1 $773 $766 $703 $746 forward $760 $-1 #
edge $-1 $747 -33.334476611506879 $774 33.334476611506879 $703 $775 forward 7 unknown #
vertex $-1 $746 $776 #
straight-curve $-1 70.551469466231268 33.334476611506879 0 0 0 -1 I I #
coedge $-1 $710 $707 $777 $778 reversed $273 $-1 #
coedge $-1 $779 $762 $710 $751 forward $780 $-1 #
edge $-1 $752 -2.8540234408788878 $781 6.7914151116396875 $710 $782 forward 7 unknown #
vertex $-1 $751 $783 #
straight-curve $-1 -70.551469466231268 -15.137195717306669 2.8540234408788878 0 1 0 I I #
edge $-1 $714 -70.551469466231268 $756 70.551469466231268 $713 $784 forward 7 unknown #
point $-1 -70.551469466231268 -27.214306257719798 2.8540234408788878 #
vertex $-1 $736 $785 #
straight-curve $-1 70.551469466231268 -27.214306257719798 2.4113596381296438 0 0 -1 I I #
straight-curve $-1 0 -33.334476611506879 -6.7914151116396875 -1 0 0 I I #
face $-1 $740 $780 $19 $-1 $786 reversed single #
loop $-1 $-1 $745 $731 #
plane-surface $-1 0 0 -6.7914151116396875 0 0 1 1 0 0 forward_v I I I I #
coedge $-1 $750 $771 $734 $763 forward $780 $-1 #
edge $-1 $764 -70.551469466231268 $752 70.551469466231268 $762 $787 forward 7 unknown #
vertex $-1 $772 $788 #
straight-curve $-1 70.551469466231268 -15.137195717306669 2.8540234408788878 0 -1 0 I I #
coedge $-1 $745 $777 $738 $767 forward $760 $-1 #
edge $-1 $768 -70.551469466231268 $747 70.551469466231268 $738 $789 forward 7 unknown #
vertex $-1 $767 $790 #
straight-curve $-1 -70.551469466231268 33.334476611506879 0 0 0 -1 I I #
plane-surface $-1 0 33.334476611506879 0 0 -1 0 0 0 -1 forward_v I I I I #
coedge $-1 $762 $779 $744 $772 reversed $780 $-1 #
edge $-1 $764 -2.8540234408788878 $774 6.7914151116396875 $744 $791 forward 7 unknown #
coedge $-1 $777 $745 $779 $792 forward $760 $-1 #
vertex $-1 $772 $793 #
straight-curve $-1 70.551469466231268 0 -6.7914151116396875 0 -1 0 I I #
point $-1 70.551469466231268 33.334476611506879 -6.7914151116396875 #
coedge $-1 $766 $773 $749 $778 forward $760 $-1 #
edge $-1 $781 -33.334476611506879 $768 33.334476611506879 $749 $794 forward 7 unknown #
coedge $-1 $771 $750 $773 $792 reversed $780 $-1 #
loop $-1 $-1 $762 $759 #
vertex $-1 $778 $795 #
straight-curve $-1 -70.551469466231268 -33.334476611506879 0 0 0 -1 I I #
point $-1 -70.551469466231268 -33.334476611506879 2.8540234408788878 #
straight-curve $-1 0 -27.214306257719798 2.8540234408788878 1 0 0 I I #
point $-1 70.551469466231268 -27.214306257719798 2.8540234408788878 #
plane-surface $-1 0 -33.334476611506879 0 0 1 0 0 0 1 forward_v I I I I #
straight-curve $-1 0 -33.334476611506879 2.8540234408788878 -1 0 0 I I #
point $-1 70.551469466231268 -33.334476611506879 2.8540234408788878 #
straight-curve $-1 0 33.334476611506879 -6.7914151116396875 1 0 0 I I #
point $-1 -70.551469466231268 33.334476611506879 -6.7914151116396875 #
straight-curve $-1 70.551469466231268 -33.334476611506879 0 0 0 -1 I I #
edge $-1 $774 -70.551469466231268 $781 70.551469466231268 $779 $796 forward 7 unknown #
point $-1 70.551469466231268 -33.334476611506879 -6.7914151116396875 #
straight-curve $-1 -70.551469466231268 0 -6.7914151116396875 0 1 0 I I #
point $-1 -70.551469466231268 -33.334476611506879 -6.7914151116396875 #
straight-curve $-1 0 -33.334476611506879 -6.7914151116396875 -1 0 0 I I #
End-of-ACIS-data 