500 0 14 0           
7 Unknown 11 ACIS 5.0 NT 24 Fri Mar 26 18:29:07 1999 
-1 9.9999999999999995e-007 1e-010 
body $-1 $14 $-1 $15 #
body $-1 $16 $-1 $17 #
body $-1 $18 $-1 $19 #
body $-1 $20 $-1 $21 #
body $-1 $22 $-1 $23 #
body $-1 $24 $-1 $25 #
body $-1 $26 $-1 $27 #
body $-1 $28 $-1 $29 #
body $-1 $30 $-1 $31 #
body $-1 $32 $-1 $33 #
body $-1 $34 $-1 $35 #
body $-1 $36 $-1 $37 #
body $-1 $38 $-1 $39 #
body $-1 $40 $-1 $41 #
lump $-1 $-1 $42 $0 #
transform $-1 1 0 0 0 1 0 0 0 1 55.53147984252449 34.129481087944562 14.869296339828797 1 rotate no_reflect no_shear #
lump $-1 $-1 $43 $1 #
transform $-1 1 0 0 0 1 0 0 0 1 55.53147984252449 34.129481087944562 14.869296339828797 1 rotate no_reflect no_shear #
lump $-1 $-1 $44 $2 #
transform $-1 1 0 0 0 1 0 0 0 1 55.53147984252449 34.129481087944562 14.869296339828797 1 rotate no_reflect no_shear #
lump $-1 $-1 $45 $3 #
transform $-1 1 0 0 0 1 0 0 0 1 55.53147984252449 34.129481087944562 14.869296339828797 1 rotate no_reflect no_shear #
lump $-1 $-1 $46 $4 #
transform $-1 1 0 0 0 1 0 0 0 1 55.53147984252449 34.129481087944562 14.869296339828797 1 rotate no_reflect no_shear #
lump $-1 $-1 $47 $5 #
transform $-1 1 0 0 0 1 0 0 0 1 55.53147984252449 34.129481087944562 14.869296339828797 1 rotate no_reflect no_shear #
lump $-1 $-1 $48 $6 #
transform $-1 1 0 0 0 1 0 0 0 1 55.53147984252449 34.129481087944562 14.869296339828797 1 rotate no_reflect no_shear #
lump $-1 $-1 $49 $7 #
transform $-1 1 0 0 0 1 0 0 0 1 55.53147984252449 34.129481087944562 14.869296339828797 1 rotate no_reflect no_shear #
lump $-1 $-1 $50 $8 #
transform $-1 1 0 0 0 1 0 0 0 1 55.53147984252449 34.129481087944562 14.869296339828797 1 rotate no_reflect no_shear #
lump $-1 $-1 $51 $9 #
transform $-1 1 0 0 0 1 0 0 0 1 55.53147984252449 34.129481087944562 14.869296339828797 1 rotate no_reflect no_shear #
lump $-1 $-1 $52 $10 #
transform $-1 1 0 0 0 1 0 0 0 1 55.53147984252449 34.129481087944562 14.869296339828797 1 rotate no_reflect no_shear #
lump $-1 $-1 $53 $11 #
transform $-1 1 0 0 0 1 0 0 0 1 55.53147984252449 34.129481087944562 14.869296339828797 1 rotate no_reflect no_shear #
lump $-1 $-1 $54 $12 #
transform $-1 1 0 0 0 1 0 0 0 1 55.53147984252449 34.129481087944562 14.869296339828797 1 rotate no_reflect no_shear #
lump $-1 $-1 $55 $13 #
transform $-1 1 0 0 0 1 0 0 0 1 55.53147984252449 34.129481087944562 14.869296339828797 1 rotate no_reflect no_shear #
shell $-1 $-1 $-1 $56 $-1 $14 #
shell $-1 $-1 $-1 $57 $-1 $16 #
shell $-1 $-1 $-1 $58 $-1 $18 #
shell $-1 $-1 $-1 $59 $-1 $20 #
shell $-1 $-1 $-1 $60 $-1 $22 #
shell $-1 $-1 $-1 $61 $-1 $24 #
shell $-1 $-1 $-1 $62 $-1 $26 #
shell $-1 $-1 $-1 $63 $-1 $28 #
shell $-1 $-1 $-1 $64 $-1 $30 #
shell $-1 $-1 $-1 $65 $-1 $32 #
shell $-1 $-1 $-1 $66 $-1 $34 #
shell $-1 $-1 $-1 $67 $-1 $36 #
shell $-1 $-1 $-1 $68 $-1 $38 #
shell $-1 $-1 $-1 $69 $-1 $40 #
face $-1 $70 $71 $42 $-1 $72 forward single #
face $-1 $73 $74 $43 $-1 $75 forward single #
face $-1 $76 $77 $44 $-1 $78 reversed single #
face $-1 $79 $80 $45 $-1 $81 forward single #
face $-1 $82 $83 $46 $-1 $84 forward single #
face $-1 $85 $86 $47 $-1 $87 reversed single #
face $-1 $88 $89 $48 $-1 $90 forward single #
face $-1 $91 $92 $49 $-1 $93 forward single #
face $-1 $94 $95 $50 $-1 $96 reversed single #
face $-1 $97 $98 $51 $-1 $99 forward single #
face $-1 $100 $101 $52 $-1 $102 forward single #
face $-1 $103 $104 $53 $-1 $105 reversed single #
face $-1 $106 $107 $54 $-1 $108 forward single #
face $-1 $109 $110 $55 $-1 $111 forward single #
face $-1 $112 $113 $42 $-1 $114 reversed single #
loop $-1 $-1 $115 $56 #
plane-surface $-1 0 0 14.869296339828797 0 0 1 1 0 0 forward_v I I I I #
face $-1 $116 $117 $43 $-1 $118 reversed single #
loop $-1 $-1 $119 $57 #
plane-surface $-1 0 -27.028921279836517 -9.9993261118624055 0 0 1 1 0 0 forward_v I I I I #
face $-1 $120 $121 $44 $-1 $122 reversed single #
loop $-1 $-1 $123 $58 #
plane-surface $-1 -117.63709954402847 -9.8348533150023556 93.06716054509296 0 1 0 -0.55919291073839883 0 0.82903756765294845 forward_v I I I I #
face $-1 $124 $125 $45 $-1 $126 forward single #
loop $-1 $127 $128 $59 #
cone-surface $-1 -44.701088239972137 -7.536758591638069 7.1251137224691563 0.55919291073839883 0 -0.82903756765294845 0.41451878382647422 0 0.27959645536919941 1 I I 0 1 0.5 forward I I I I #
face $-1 $129 $130 $46 $-1 $131 forward single #
loop $-1 $132 $133 $60 #
cone-surface $-1 -44.701088239972137 -4.0896165065916392 7.1251137224691563 0.55919291073839883 0 -0.82903756765294845 0.41451878382647422 0 0.27959645536919941 1 I I 0 1 0.5 forward I I I I #
face $-1 $134 $135 $47 $-1 $136 reversed single #
loop $-1 $-1 $137 $61 #
plane-surface $-1 -117.63709954402847 15.99264139944345 93.06716054509296 0 1 0 -0.55919291073839883 0 0.82903756765294845 forward_v I I I I #
face $-1 $138 $139 $48 $-1 $140 forward single #
loop $-1 $141 $142 $62 #
cone-surface $-1 -44.701088239972137 18.290736122807736 7.1251137224691563 0.55919291073839883 0 -0.82903756765294845 0.41451878382647422 0 0.27959645536919941 1 I I 0 1 0.5 forward I I I I #
face $-1 $143 $144 $49 $-1 $145 forward single #
loop $-1 $146 $147 $63 #
cone-surface $-1 -44.701088239972137 21.737878207854159 7.1251137224691563 0.55919291073839883 0 -0.82903756765294845 0.41451878382647422 0 0.27959645536919941 1 I I 0 1 0.5 forward I I I I #
face $-1 $148 $149 $50 $-1 $150 reversed single #
loop $-1 $-1 $151 $64 #
plane-surface $-1 25.561733590397992 -1.7915217832273456 155.17278024659694 0 -1 0 -0.55919291073839883 0 -0.82903756765294845 forward_v I I I I #
face $-1 $152 $153 $51 $-1 $154 forward single #
loop $-1 $155 $156 $65 #
cone-surface $-1 44.701088239972137 -7.536758591638069 7.1251137224691563 -0.55919291073839883 0 -0.82903756765294845 0.41451878382647422 0 -0.27959645536919941 1 I I 0 1 0.5 forward I I I I #
face $-1 $157 $158 $52 $-1 $159 forward single #
loop $-1 $160 $161 $66 #
cone-surface $-1 44.701088239972137 -4.0896165065916392 7.1251137224691563 -0.55919291073839883 0 -0.82903756765294845 0.41451878382647422 0 -0.27959645536919941 1 I I 0 1 0.5 forward I I I I #
face $-1 $162 $163 $53 $-1 $164 reversed single #
loop $-1 $-1 $165 $67 #
plane-surface $-1 25.561733590397992 24.03597293121846 155.17278024659694 0 -1 0 -0.55919291073839883 0 -0.82903756765294845 forward_v I I I I #
face $-1 $166 $167 $54 $-1 $168 forward single #
loop $-1 $169 $170 $68 #
cone-surface $-1 44.701088239972137 18.290736122807736 7.1251137224691563 -0.55919291073839883 0 -0.82903756765294845 0.41451878382647422 0 -0.27959645536919941 1 I I 0 1 0.5 forward I I I I #
face $-1 $171 $172 $55 $-1 $173 forward single #
loop $-1 $174 $175 $69 #
cone-surface $-1 44.701088239972137 21.737878207854159 7.1251137224691563 -0.55919291073839883 0 -0.82903756765294845 0.41451878382647422 0 -0.27959645536919941 1 I I 0 1 0.5 forward I I I I #
face $-1 $176 $177 $42 $-1 $178 reversed single #
loop $-1 $-1 $179 $70 #
plane-surface $-1 0 0 -14.869296339828797 0 0 1 1 0 0 forward_v I I I I #
coedge $-1 $180 $181 $182 $183 forward $71 $-1 #
face $-1 $184 $185 $43 $-1 $186 reversed single #
loop $-1 $-1 $187 $73 #
plane-surface $-1 0 -19.928361471728472 -12.434311225845601 0 -1 0 0 0 -1 forward_v I I I I #
coedge $-1 $188 $189 $190 $191 reversed $74 $-1 #
face $-1 $192 $193 $44 $-1 $194 reversed single #
loop $-1 $-1 $195 $76 #
plane-surface $-1 -55.53147984252449 -5.8131875491148506 0.9917945914624795 -0.55919291073839883 0 0.82903756765294845 0.82903756765294845 0 0.55919291073839883 forward_v I I I I #
coedge $-1 $196 $197 $198 $199 reversed $77 $-1 #
face $-1 $-1 $200 $45 $-1 $201 forward single #
loop $-1 $202 $203 $79 #
cone-surface $-1 -44.018019431506687 -7.536758591638069 6.1124225873794309 0.55919291073839883 0 -0.82903756765294845 0.20725939191323711 0 0.13979822768459971 1 I I -0.70710678118654746 0.70710678118654746 0.25 forward I I I I #
loop $-1 $-1 $204 $59 #
coedge $-1 $128 $128 $205 $206 reversed $80 $-1 #
face $-1 $-1 $207 $46 $-1 $208 forward single #
loop $-1 $209 $210 $82 #
cone-surface $-1 -44.018019431506687 -4.0896165065916392 6.1124225873794309 0.55919291073839883 0 -0.82903756765294845 0.20725939191323711 0 0.13979822768459971 1 I I -0.70710678118654746 0.70710678118654746 0.25 forward I I I I #
loop $-1 $-1 $211 $60 #
coedge $-1 $133 $133 $212 $213 reversed $83 $-1 #
face $-1 $214 $215 $47 $-1 $216 reversed single #
loop $-1 $-1 $217 $85 #
plane-surface $-1 -55.53147984252449 20.014307165330955 0.9917945914624795 -0.55919291073839883 0 0.82903756765294845 0.82903756765294845 0 0.55919291073839883 forward_v I I I I #
coedge $-1 $218 $219 $220 $221 reversed $86 $-1 #
face $-1 $-1 $222 $48 $-1 $223 forward single #
loop $-1 $224 $225 $88 #
cone-surface $-1 -44.018019431506687 18.290736122807736 6.1124225873794309 0.55919291073839883 0 -0.82903756765294845 0.20725939191323711 0 0.13979822768459971 1 I I -0.70710678118654746 0.70710678118654746 0.25 forward I I I I #
loop $-1 $-1 $226 $62 #
coedge $-1 $142 $142 $227 $228 reversed $89 $-1 #
face $-1 $-1 $229 $49 $-1 $230 forward single #
loop $-1 $231 $232 $91 #
cone-surface $-1 -44.018019431506687 21.737878207854159 6.1124225873794309 0.55919291073839883 0 -0.82903756765294845 0.20725939191323711 0 0.13979822768459971 1 I I -0.70710678118654746 0.70710678118654746 0.25 forward I I I I #
loop $-1 $-1 $233 $63 #
coedge $-1 $147 $147 $234 $235 reversed $92 $-1 #
face $-1 $236 $237 $50 $-1 $238 reversed single #
loop $-1 $-1 $239 $94 #
plane-surface $-1 -36.543886111105991 -5.8131875491148506 63.097414292966462 0.55919291073839883 0 0.82903756765294845 0.82903756765294845 0 -0.55919291073839883 forward_v I I I I #
coedge $-1 $240 $241 $242 $243 reversed $95 $-1 #
face $-1 $-1 $244 $51 $-1 $245 forward single #
loop $-1 $246 $247 $97 #
cone-surface $-1 44.018019431506687 -7.536758591638069 6.1124225873794309 -0.55919291073839883 0 -0.82903756765294845 0.20725939191323711 0 -0.13979822768459971 1 I I -0.70710678118654746 0.70710678118654746 0.25 forward I I I I #
loop $-1 $-1 $248 $65 #
coedge $-1 $156 $156 $249 $250 reversed $98 $-1 #
face $-1 $-1 $251 $52 $-1 $252 forward single #
loop $-1 $253 $254 $100 #
cone-surface $-1 44.018019431506687 -4.0896165065916392 6.1124225873794309 -0.55919291073839883 0 -0.82903756765294845 0.20725939191323711 0 -0.13979822768459971 1 I I -0.70710678118654746 0.70710678118654746 0.25 forward I I I I #
loop $-1 $-1 $255 $66 #
coedge $-1 $161 $161 $256 $257 reversed $101 $-1 #
face $-1 $258 $259 $53 $-1 $260 reversed single #
loop $-1 $-1 $261 $103 #
plane-surface $-1 -36.543886111105991 20.014307165330955 63.097414292966462 0.55919291073839883 0 0.82903756765294845 0.82903756765294845 0 -0.55919291073839883 forward_v I I I I #
coedge $-1 $262 $263 $264 $265 reversed $104 $-1 #
face $-1 $-1 $266 $54 $-1 $267 forward single #
loop $-1 $268 $269 $106 #
cone-surface $-1 44.018019431506687 18.290736122807736 6.1124225873794309 -0.55919291073839883 0 -0.82903756765294845 0.20725939191323711 0 -0.13979822768459971 1 I I -0.70710678118654746 0.70710678118654746 0.25 forward I I I I #
loop $-1 $-1 $270 $68 #
coedge $-1 $170 $170 $271 $272 reversed $107 $-1 #
face $-1 $-1 $273 $55 $-1 $274 forward single #
loop $-1 $275 $276 $109 #
cone-surface $-1 44.018019431506687 21.737878207854159 6.1124225873794309 -0.55919291073839883 0 -0.82903756765294845 0.20725939191323711 0 -0.13979822768459971 1 I I -0.70710678118654746 0.70710678118654746 0.25 forward I I I I #
loop $-1 $-1 $277 $69 #
coedge $-1 $175 $175 $278 $279 reversed $110 $-1 #
face $-1 $280 $281 $42 $-1 $282 reversed single #
loop $-1 $-1 $283 $112 #
plane-surface $-1 0 -34.129481087944562 0 0 1 0 0 0 1 forward_v I I I I #
coedge $-1 $284 $285 $286 $287 forward $113 $-1 #
coedge $-1 $288 $115 $289 $290 forward $71 $-1 #
coedge $-1 $115 $288 $291 $292 forward $71 $-1 #
coedge $-1 $293 $294 $115 $183 reversed $295 $-1 #
edge $-1 $296 -34.129481087944562 $297 34.129481087944562 $182 $298 forward 7 unknown #
face $-1 $299 $300 $43 $-1 $301 reversed single #
loop $-1 $-1 $302 $116 #
plane-surface $-1 0 0 -14.869296339828797 0 0 1 1 0 0 forward_v I I I I #
coedge $-1 $303 $304 $305 $306 reversed $117 $-1 #
coedge $-1 $307 $119 $304 $308 forward $74 $-1 #
coedge $-1 $119 $307 $309 $310 reversed $74 $-1 #
coedge $-1 $311 $305 $119 $191 forward $300 $-1 #
edge $-1 $312 6.4139008318102135 $313 20.615020448026304 $190 $314 forward 7 unknown #
face $-1 $315 $316 $44 $-1 $317 forward single #
loop $-1 $-1 $318 $120 #
plane-surface $-1 -117.63709954402847 -1.7915217832273456 93.06716054509296 0 -1 0 0.55919291073839883 0 -0.82903756765294845 forward_v I I I I #
coedge $-1 $319 $320 $321 $322 reversed $121 $-1 #
coedge $-1 $197 $123 $323 $324 reversed $77 $-1 #
coedge $-1 $123 $196 $319 $325 reversed $77 $-1 #
coedge $-1 $321 $326 $123 $199 forward $316 $-1 #
edge $-1 $327 3.2870699294897463 $328 23.861311973032741 $198 $329 forward 7 unknown #
loop $-1 $-1 $205 $124 #
plane-surface $-1 -55.53147984252449 -5.8131875491148506 0.9917945914624795 -0.55919291073839883 0 0.82903756765294845 0.82903756765294845 0 0.55919291073839883 forward_v I I I I #
loop $-1 $-1 $330 $79 #
coedge $-1 $203 $203 $204 $331 reversed $125 $-1 #
coedge $-1 $204 $204 $203 $331 forward $127 $-1 #
coedge $-1 $205 $205 $128 $206 forward $200 $-1 #
edge $-1 $332 0 $332 6.2831853071796004 $205 $333 forward 7 unknown #
loop $-1 $-1 $212 $129 #
plane-surface $-1 -55.53147984252449 -5.8131875491148506 0.9917945914624795 -0.55919291073839883 0 0.82903756765294845 0.82903756765294845 0 0.55919291073839883 forward_v I I I I #
loop $-1 $-1 $334 $82 #
coedge $-1 $210 $210 $211 $335 reversed $130 $-1 #
coedge $-1 $211 $211 $210 $335 forward $132 $-1 #
coedge $-1 $212 $212 $133 $213 forward $207 $-1 #
edge $-1 $336 0 $336 6.2831853071796004 $212 $337 forward 7 unknown #
face $-1 $338 $339 $47 $-1 $340 forward single #
loop $-1 $-1 $341 $134 #
plane-surface $-1 -117.63709954402847 24.03597293121846 93.06716054509296 0 -1 0 0.55919291073839883 0 -0.82903756765294845 forward_v I I I I #
coedge $-1 $342 $343 $344 $345 reversed $135 $-1 #
coedge $-1 $219 $137 $346 $347 reversed $86 $-1 #
coedge $-1 $137 $218 $342 $348 reversed $86 $-1 #
coedge $-1 $344 $349 $137 $221 forward $339 $-1 #
edge $-1 $350 3.2870699294897463 $351 23.861311973032741 $220 $352 forward 7 unknown #
loop $-1 $-1 $227 $138 #
plane-surface $-1 -55.53147984252449 20.014307165330955 0.9917945914624795 -0.55919291073839883 0 0.82903756765294845 0.82903756765294845 0 0.55919291073839883 forward_v I I I I #
loop $-1 $-1 $353 $88 #
coedge $-1 $225 $225 $226 $354 reversed $139 $-1 #
coedge $-1 $226 $226 $225 $354 forward $141 $-1 #
coedge $-1 $227 $227 $142 $228 forward $222 $-1 #
edge $-1 $355 0 $355 6.2831853071796004 $227 $356 forward 7 unknown #
loop $-1 $-1 $234 $143 #
plane-surface $-1 -55.53147984252449 20.014307165330955 0.9917945914624795 -0.55919291073839883 0 0.82903756765294845 0.82903756765294845 0 0.55919291073839883 forward_v I I I I #
loop $-1 $-1 $357 $91 #
coedge $-1 $232 $232 $233 $358 reversed $144 $-1 #
coedge $-1 $233 $233 $232 $358 forward $146 $-1 #
coedge $-1 $234 $234 $147 $235 forward $229 $-1 #
edge $-1 $359 0 $359 6.2831853071796004 $234 $360 forward 7 unknown #
face $-1 $361 $362 $50 $-1 $363 reversed single #
loop $-1 $-1 $364 $148 #
plane-surface $-1 25.561733590397992 -9.8348533150023556 155.17278024659694 0 1 0 0.55919291073839883 0 0.82903756765294845 forward_v I I I I #
coedge $-1 $365 $366 $367 $368 reversed $149 $-1 #
coedge $-1 $241 $151 $369 $370 reversed $95 $-1 #
coedge $-1 $151 $240 $365 $371 reversed $95 $-1 #
coedge $-1 $367 $372 $151 $243 forward $373 $-1 #
edge $-1 $374 -42.750613047325494 $375 -22.176371003782499 $242 $376 forward 7 unknown #
loop $-1 $-1 $249 $152 #
plane-surface $-1 -36.543886111105991 -5.8131875491148506 63.097414292966462 0.55919291073839883 0 0.82903756765294845 0.82903756765294845 0 -0.55919291073839883 forward_v I I I I #
loop $-1 $-1 $377 $97 #
coedge $-1 $247 $247 $248 $378 reversed $153 $-1 #
coedge $-1 $248 $248 $247 $378 forward $155 $-1 #
coedge $-1 $249 $249 $156 $250 forward $244 $-1 #
edge $-1 $379 0 $379 6.2831853071796004 $249 $380 forward 7 unknown #
loop $-1 $-1 $256 $157 #
plane-surface $-1 -36.543886111105991 -5.8131875491148506 63.097414292966462 0.55919291073839883 0 0.82903756765294845 0.82903756765294845 0 -0.55919291073839883 forward_v I I I I #
loop $-1 $-1 $381 $100 #
coedge $-1 $254 $254 $255 $382 reversed $158 $-1 #
coedge $-1 $255 $255 $254 $382 forward $160 $-1 #
coedge $-1 $256 $256 $161 $257 forward $251 $-1 #
edge $-1 $383 0 $383 6.2831853071796004 $256 $384 forward 7 unknown #
face $-1 $385 $386 $53 $-1 $387 reversed single #
loop $-1 $-1 $388 $162 #
plane-surface $-1 25.561733590397992 15.99264139944345 155.17278024659694 0 1 0 0.55919291073839883 0 0.82903756765294845 forward_v I I I I #
coedge $-1 $389 $390 $391 $392 reversed $163 $-1 #
coedge $-1 $263 $165 $393 $394 reversed $104 $-1 #
coedge $-1 $165 $262 $389 $395 reversed $104 $-1 #
coedge $-1 $391 $396 $165 $265 forward $397 $-1 #
edge $-1 $398 -42.750613047325494 $399 -22.176371003782499 $264 $400 forward 7 unknown #
loop $-1 $-1 $271 $166 #
plane-surface $-1 -36.543886111105991 20.014307165330955 63.097414292966462 0.55919291073839883 0 0.82903756765294845 0.82903756765294845 0 -0.55919291073839883 forward_v I I I I #
loop $-1 $-1 $401 $106 #
coedge $-1 $269 $269 $270 $402 reversed $167 $-1 #
coedge $-1 $270 $270 $269 $402 forward $169 $-1 #
coedge $-1 $271 $271 $170 $272 forward $266 $-1 #
edge $-1 $403 0 $403 6.2831853071796004 $271 $404 forward 7 unknown #
loop $-1 $-1 $278 $171 #
plane-surface $-1 -36.543886111105991 20.014307165330955 63.097414292966462 0.55919291073839883 0 0.82903756765294845 0.82903756765294845 0 -0.55919291073839883 forward_v I I I I #
loop $-1 $-1 $405 $109 #
coedge $-1 $276 $276 $277 $406 reversed $172 $-1 #
coedge $-1 $277 $277 $276 $406 forward $174 $-1 #
coedge $-1 $278 $278 $175 $279 forward $273 $-1 #
edge $-1 $407 0 $407 6.2831853071796004 $278 $408 forward 7 unknown #
face $-1 $409 $410 $42 $-1 $411 reversed single #
loop $-1 $-1 $412 $176 #
plane-surface $-1 -55.53147984252449 0 0 1 0 0 0 0 -1 forward_v I I I I #
coedge $-1 $413 $291 $414 $415 forward $177 $-1 #
coedge $-1 $416 $179 $413 $417 forward $113 $-1 #
coedge $-1 $179 $416 $418 $419 forward $113 $-1 #
coedge $-1 $294 $293 $179 $287 reversed $295 $-1 #
edge $-1 $420 -34.129481087944562 $421 34.129481087944562 $286 $422 forward 7 unknown #
coedge $-1 $181 $180 $423 $424 forward $71 $-1 #
coedge $-1 $425 $426 $180 $290 reversed $410 $-1 #
edge $-1 $297 -55.53147984252449 $427 55.53147984252449 $289 $428 forward 7 unknown #
coedge $-1 $283 $429 $181 $292 reversed $177 $-1 #
edge $-1 $430 -55.53147984252449 $296 55.53147984252449 $291 $431 forward 7 unknown #
coedge $-1 $286 $182 $429 $432 forward $295 $-1 #
coedge $-1 $182 $286 $425 $433 reversed $295 $-1 #
loop $-1 $-1 $293 $409 #
vertex $-1 $183 $434 #
vertex $-1 $183 $435 #
straight-curve $-1 55.53147984252449 0 14.869296339828797 0 1 0 I I #
face $-1 $436 $437 $43 $-1 $438 reversed single #
loop $-1 $-1 $305 $184 #
plane-surface $-1 55.53147984252449 0 0 -1 0 0 0 0 1 forward_v I I I I #
coedge $-1 $439 $440 $303 $441 forward $185 $-1 #
coedge $-1 $442 $187 $302 $441 reversed $117 $-1 #
coedge $-1 $187 $442 $188 $308 reversed $117 $-1 #
coedge $-1 $190 $443 $187 $306 forward $300 $-1 #
edge $-1 $444 -8.652140726905996 $312 -3.782170498939605 $305 $445 forward 7 unknown #
coedge $-1 $189 $188 $446 $447 reversed $74 $-1 #
edge $-1 $312 -55.53147984252449 $448 55.53147984252449 $304 $449 forward 7 unknown #
coedge $-1 $450 $451 $189 $310 forward $437 $-1 #
edge $-1 $313 -55.53147984252449 $452 55.53147984252449 $309 $453 forward 7 unknown #
coedge $-1 $443 $190 $451 $454 forward $300 $-1 #
vertex $-1 $191 $455 #
vertex $-1 $454 $456 #
straight-curve $-1 55.53147984252449 -13.514460639918259 -9.9993261118624055 0 -1 0 I I #
face $-1 $-1 $457 $44 $-1 $458 reversed single #
loop $-1 $-1 $198 $192 #
plane-surface $-1 0 0 14.869296339828797 0 0 1 1 0 0 forward_v I I I I #
coedge $-1 $459 $460 $461 $462 reversed $193 $-1 #
coedge $-1 $463 $195 $197 $325 forward $121 $-1 #
coedge $-1 $195 $463 $459 $464 forward $121 $-1 #
coedge $-1 $461 $198 $195 $322 forward $316 $-1 #
edge $-1 $328 -6.9282595404449303 $465 1.1150719913300797 $321 $466 forward 7 unknown #
coedge $-1 $467 $468 $196 $324 forward $457 $-1 #
edge $-1 $469 -45.541785681084001 $327 -31.664283932717684 $323 $470 forward 7 unknown #
edge $-1 $328 -24.817020176528089 $469 0 $197 $471 forward 7 unknown #
coedge $-1 $198 $461 $467 $472 forward $316 $-1 #
vertex $-1 $324 $473 #
vertex $-1 $199 $474 #
straight-curve $-1 -58.818549772014237 -9.8348533150023556 14.8692963398288 1 0 0 I I #
coedge $-1 $330 $330 $-1 $475 reversed $202 $-1 #
edge $-1 $476 0 $476 6.2831853071796004 $203 $477 forward 7 unknown #
vertex $-1 $206 $478 #
ellipse-curve $-1 -45.244358820752986 -7.536758591638069 7.9305454656456416 -0.55919291073839883 0 0.82903756765294845 0.41451878382647422 0 0.27959645536919941 1 I I #
coedge $-1 $334 $334 $-1 $479 reversed $209 $-1 #
edge $-1 $480 0 $480 6.2831853071796004 $210 $481 forward 7 unknown #
vertex $-1 $213 $482 #
ellipse-curve $-1 -45.244358820752986 -4.0896165065916392 7.9305454656456416 -0.55919291073839883 0 0.82903756765294845 0.41451878382647422 0 0.27959645536919941 1 I I #
face $-1 $-1 $483 $47 $-1 $484 reversed single #
loop $-1 $-1 $220 $214 #
plane-surface $-1 0 0 14.869296339828797 0 0 1 1 0 0 forward_v I I I I #
coedge $-1 $485 $486 $487 $488 reversed $215 $-1 #
coedge $-1 $489 $217 $219 $348 forward $135 $-1 #
coedge $-1 $217 $489 $485 $490 forward $135 $-1 #
coedge $-1 $487 $220 $217 $345 forward $339 $-1 #
edge $-1 $351 5.9854878167779724 $491 14.028819348552982 $344 $492 forward 7 unknown #
coedge $-1 $493 $494 $218 $347 forward $483 $-1 #
edge $-1 $495 -45.541785681084001 $350 -31.664283932717684 $346 $496 forward 7 unknown #
edge $-1 $351 -24.817020176528089 $495 0 $219 $497 forward 7 unknown #
coedge $-1 $220 $487 $493 $498 forward $339 $-1 #
vertex $-1 $221 $499 #
vertex $-1 $221 $500 #
straight-curve $-1 -58.818549772014237 15.99264139944345 14.8692963398288 1 0 0 I I #
coedge $-1 $353 $353 $-1 $501 reversed $224 $-1 #
edge $-1 $502 0 $502 6.2831853071796004 $225 $503 forward 7 unknown #
vertex $-1 $228 $504 #
ellipse-curve $-1 -45.244358820752986 18.290736122807736 7.9305454656456416 -0.55919291073839883 0 0.82903756765294845 0.41451878382647422 0 0.27959645536919941 1 I I #
coedge $-1 $357 $357 $-1 $505 reversed $231 $-1 #
edge $-1 $506 0 $506 6.2831853071796004 $232 $507 forward 7 unknown #
vertex $-1 $235 $508 #
ellipse-curve $-1 -45.244358820752986 21.737878207854159 7.9305454656456416 -0.55919291073839883 0 0.82903756765294845 0.41451878382647422 0 0.27959645536919941 1 I I #
face $-1 $-1 $373 $50 $-1 $509 forward single #
loop $-1 $-1 $510 $236 #
plane-surface $-1 55.53147984252449 0 0 -1 0 0 0 0 1 forward_v I I I I #
coedge $-1 $511 $512 $513 $514 reversed $237 $-1 #
coedge $-1 $515 $239 $241 $371 forward $149 $-1 #
coedge $-1 $239 $515 $511 $516 forward $149 $-1 #
coedge $-1 $513 $242 $239 $368 forward $373 $-1 #
edge $-1 $375 -1.1150719913300797 $517 6.9282595404449303 $367 $518 forward 7 unknown #
coedge $-1 $519 $520 $240 $370 forward $362 $-1 #
edge $-1 $521 -76.594595531835992 $374 -62.717093783469679 $369 $522 forward 7 unknown #
edge $-1 $375 86.245939508520877 $521 111.06295968504898 $241 $523 forward 7 unknown #
coedge $-1 $242 $513 $519 $524 forward $373 $-1 #
loop $-1 $-1 $513 $361 #
vertex $-1 $370 $525 #
vertex $-1 $243 $526 #
straight-curve $-1 12.780866795198996 -1.7915217832273456 14.869296339828793 -1 0 0 I I #
coedge $-1 $377 $377 $-1 $527 reversed $246 $-1 #
edge $-1 $528 0 $528 6.2831853071796004 $247 $529 forward 7 unknown #
vertex $-1 $250 $530 #
ellipse-curve $-1 45.244358820752986 -7.536758591638069 7.930545465645638 0.55919291073839883 0 0.82903756765294845 0.41451878382647422 0 -0.27959645536919941 1 I I #
coedge $-1 $381 $381 $-1 $531 reversed $253 $-1 #
edge $-1 $532 0 $532 6.2831853071796004 $254 $533 forward 7 unknown #
vertex $-1 $257 $534 #
ellipse-curve $-1 45.244358820752986 -4.0896165065916392 7.930545465645638 0.55919291073839883 0 0.82903756765294845 0.41451878382647422 0 -0.27959645536919941 1 I I #
face $-1 $-1 $397 $53 $-1 $535 forward single #
loop $-1 $-1 $536 $258 #
plane-surface $-1 55.53147984252449 0 0 -1 0 0 0 0 1 forward_v I I I I #
coedge $-1 $537 $538 $539 $540 reversed $259 $-1 #
coedge $-1 $541 $261 $263 $395 forward $163 $-1 #
coedge $-1 $261 $541 $537 $542 forward $163 $-1 #
coedge $-1 $539 $264 $261 $392 forward $397 $-1 #
edge $-1 $399 -14.028819348552982 $543 -5.9854878167779724 $391 $544 forward 7 unknown #
coedge $-1 $545 $546 $262 $394 forward $386 $-1 #
edge $-1 $547 -76.594595531835992 $398 -62.717093783469679 $393 $548 forward 7 unknown #
edge $-1 $399 86.245939508520877 $547 111.06295968504898 $263 $549 forward 7 unknown #
coedge $-1 $264 $539 $545 $550 forward $397 $-1 #
loop $-1 $-1 $539 $385 #
vertex $-1 $394 $551 #
vertex $-1 $265 $552 #
straight-curve $-1 12.780866795198996 24.03597293121846 14.869296339828793 -1 0 0 I I #
coedge $-1 $401 $401 $-1 $553 reversed $268 $-1 #
edge $-1 $554 0 $554 6.2831853071796004 $269 $555 forward 7 unknown #
vertex $-1 $272 $556 #
ellipse-curve $-1 45.244358820752986 18.290736122807736 7.930545465645638 0.55919291073839883 0 0.82903756765294845 0.41451878382647422 0 -0.27959645536919941 1 I I #
coedge $-1 $405 $405 $-1 $557 reversed $275 $-1 #
edge $-1 $558 0 $558 6.2831853071796004 $276 $559 forward 7 unknown #
vertex $-1 $279 $560 #
ellipse-curve $-1 45.244358820752986 21.737878207854159 7.930545465645638 0.55919291073839883 0 0.82903756765294845 0.41451878382647422 0 -0.27959645536919941 1 I I #
face $-1 $-1 $295 $42 $-1 $561 reversed single #
loop $-1 $-1 $425 $280 #
plane-surface $-1 0 34.129481087944562 0 0 -1 0 0 0 -1 forward_v I I I I #
coedge $-1 $562 $423 $426 $563 forward $281 $-1 #
coedge $-1 $429 $283 $284 $417 reversed $177 $-1 #
coedge $-1 $423 $562 $283 $415 reversed $281 $-1 #
edge $-1 $430 -14.869296339828797 $564 14.869296339828797 $414 $565 forward 7 unknown #
coedge $-1 $285 $284 $562 $566 forward $113 $-1 #
edge $-1 $421 -55.53147984252449 $564 55.53147984252449 $413 $567 forward 7 unknown #
coedge $-1 $426 $425 $285 $419 reversed $410 $-1 #
edge $-1 $568 -55.53147984252449 $420 55.53147984252449 $418 $569 forward 7 unknown #
vertex $-1 $287 $570 #
vertex $-1 $432 $571 #
straight-curve $-1 55.53147984252449 0 -14.869296339828797 0 -1 0 I I #
coedge $-1 $412 $414 $288 $424 reversed $281 $-1 #
edge $-1 $427 -34.129481087944562 $430 34.129481087944562 $423 $572 forward 7 unknown #
coedge $-1 $418 $289 $294 $433 forward $410 $-1 #
coedge $-1 $289 $418 $412 $563 reversed $410 $-1 #
vertex $-1 $290 $573 #
straight-curve $-1 0 34.129481087944562 14.869296339828797 -1 0 0 I I #
coedge $-1 $291 $413 $293 $432 reversed $177 $-1 #
vertex $-1 $424 $574 #
straight-curve $-1 0 -34.129481087944562 14.869296339828797 1 0 0 I I #
edge $-1 $296 -14.869296339828797 $421 14.869296339828797 $293 $575 forward 7 unknown #
edge $-1 $297 -14.869296339828797 $420 14.869296339828797 $294 $576 forward 7 unknown #
point $-1 55.53147984252449 -34.129481087944562 14.869296339828797 #
point $-1 55.53147984252449 34.129481087944562 14.869296339828797 #
face $-1 $-1 $577 $43 $-1 $578 reversed single #
loop $-1 $-1 $309 $299 #
plane-surface $-1 0 -34.129481087944562 0 0 1 0 0 0 1 forward_v I I I I #
coedge $-1 $579 $302 $443 $580 forward $185 $-1 #
coedge $-1 $302 $579 $581 $582 forward $185 $-1 #
edge $-1 $583 -55.53147984252449 $444 55.53147984252449 $302 $584 forward 7 unknown #
coedge $-1 $304 $303 $585 $586 reversed $117 $-1 #
coedge $-1 $305 $311 $439 $580 reversed $300 $-1 #
vertex $-1 $580 $587 #
straight-curve $-1 55.53147984252449 -19.928361471728472 -6.2171556129228005 0 0 1 I I #
coedge $-1 $585 $588 $307 $447 forward $577 $-1 #
edge $-1 $452 -20.615020448026304 $448 -6.4139008318102135 $446 $589 forward 7 unknown #
vertex $-1 $447 $590 #
straight-curve $-1 0 -19.928361471728472 -9.9993261118624055 -1 0 0 I I #
coedge $-1 $591 $309 $588 $592 forward $437 $-1 #
coedge $-1 $309 $591 $311 $454 reversed $437 $-1 #
vertex $-1 $592 $593 #
straight-curve $-1 0 -34.129481087944562 -9.9993261118624055 -1 0 0 I I #
edge $-1 $313 9.9993261118624055 $594 14.869296339828797 $311 $595 forward 7 unknown #
point $-1 55.53147984252449 -19.928361471728472 -9.9993261118624055 #
point $-1 55.53147984252449 -34.129481087944562 -9.9993261118624055 #
loop $-1 $-1 $323 $315 #
plane-surface $-1 -55.53147984252449 0 0 1 0 0 0 0 -1 forward_v I I I I #
coedge $-1 $460 $318 $320 $464 reversed $193 $-1 #
coedge $-1 $318 $459 $596 $597 reversed $193 $-1 #
coedge $-1 $326 $321 $318 $462 forward $316 $-1 #
edge $-1 $465 -23.861311973032741 $598 -3.2870699294897463 $461 $599 forward 7 unknown #
coedge $-1 $320 $319 $468 $600 reversed $121 $-1 #
edge $-1 $601 0 $465 24.817020176528089 $459 $602 forward 7 unknown #
vertex $-1 $322 $603 #
straight-curve $-1 -34.957237798981495 -2.9065937745574253 14.869296339828797 0 1 0 I I #
coedge $-1 $596 $323 $326 $472 reversed $457 $-1 #
coedge $-1 $323 $596 $463 $600 forward $457 $-1 #
vertex $-1 $324 $604 #
straight-curve $-1 -55.53147984252449 -9.8348533150023556 46.53358027254648 0 0 1 I I #
straight-curve $-1 -55.53147984252449 -9.8348533150023556 0.9917945914624795 -0.82903756765294845 0 -0.55919291073839883 I I #
edge $-1 $598 1.7915217832273456 $327 9.8348533150023556 $467 $605 forward 7 unknown #
point $-1 -55.53147984252449 -9.8348533150023556 14.869296339828797 #
point $-1 -34.957237798981495 -9.8348533150023556 14.869296339828797 #
edge $-1 $606 1 $606 0 $330 $-1 forward 7 unknown #
vertex $-1 $331 $607 #
ellipse-curve $-1 -44.157817659191288 -7.536758591638069 6.3196819792926684 -0.55919291073839883 0 0.82903756765294845 0.41451878382647422 0 0.27959645536919941 1 I I #
point $-1 -44.82984003692652 -7.536758591638069 8.2101419210148432 #
edge $-1 $608 1 $608 0 $334 $-1 forward 7 unknown #
vertex $-1 $335 $609 #
ellipse-curve $-1 -44.157817659191288 -4.0896165065916392 6.3196819792926684 -0.55919291073839883 0 0.82903756765294845 0.41451878382647422 0 0.27959645536919941 1 I I #
point $-1 -44.82984003692652 -4.0896165065916392 8.2101419210148432 #
loop $-1 $-1 $346 $338 #
plane-surface $-1 -55.53147984252449 0 0 1 0 0 0 0 -1 forward_v I I I I #
coedge $-1 $486 $341 $343 $490 reversed $215 $-1 #
coedge $-1 $341 $485 $610 $611 reversed $215 $-1 #
coedge $-1 $349 $344 $341 $488 forward $339 $-1 #
edge $-1 $491 -23.861311973032741 $612 -3.2870699294897463 $487 $613 forward 7 unknown #
coedge $-1 $343 $342 $494 $614 reversed $135 $-1 #
edge $-1 $615 0 $491 24.817020176528089 $485 $616 forward 7 unknown #
vertex $-1 $345 $617 #
straight-curve $-1 -34.957237798981495 10.007153582665477 14.869296339828797 0 1 0 I I #
coedge $-1 $610 $346 $349 $498 reversed $483 $-1 #
coedge $-1 $346 $610 $489 $614 forward $483 $-1 #
vertex $-1 $347 $618 #
straight-curve $-1 -55.53147984252449 15.99264139944345 46.53358027254648 0 0 1 I I #
straight-curve $-1 -55.53147984252449 15.99264139944345 0.9917945914624795 -0.82903756765294845 0 -0.55919291073839883 I I #
edge $-1 $612 -24.03597293121846 $350 -15.99264139944345 $493 $619 forward 7 unknown #
point $-1 -55.53147984252449 15.99264139944345 14.869296339828797 #
point $-1 -34.957237798981495 15.99264139944345 14.869296339828797 #
edge $-1 $620 1 $620 0 $353 $-1 forward 7 unknown #
vertex $-1 $354 $621 #
ellipse-curve $-1 -44.157817659191288 18.290736122807736 6.3196819792926684 -0.55919291073839883 0 0.82903756765294845 0.41451878382647422 0 0.27959645536919941 1 I I #
point $-1 -44.82984003692652 18.290736122807736 8.2101419210148432 #
edge $-1 $622 1 $622 0 $357 $-1 forward 7 unknown #
vertex $-1 $358 $623 #
ellipse-curve $-1 -44.157817659191288 21.737878207854159 6.3196819792926684 -0.55919291073839883 0 0.82903756765294845 0.41451878382647422 0 0.27959645536919941 1 I I #
point $-1 -44.82984003692652 21.737878207854159 8.2101419210148432 #
plane-surface $-1 0 0 14.869296339828797 0 0 1 1 0 0 forward_v I I I I #
coedge $-1 $520 $519 $512 $624 forward $362 $-1 #
coedge $-1 $512 $364 $366 $516 reversed $237 $-1 #
coedge $-1 $364 $511 $510 $624 reversed $237 $-1 #
coedge $-1 $372 $367 $364 $514 forward $373 $-1 #
edge $-1 $517 22.176371003782499 $625 42.750613047325494 $513 $626 forward 7 unknown #
coedge $-1 $366 $365 $520 $627 reversed $149 $-1 #
edge $-1 $628 -111.06295968504898 $517 -86.245939508520877 $511 $629 forward 7 unknown #
vertex $-1 $368 $630 #
straight-curve $-1 34.957237798981488 -2.9065937745574253 14.8692963398288 0 -1 0 I I #
coedge $-1 $510 $369 $372 $524 reversed $362 $-1 #
coedge $-1 $369 $510 $515 $627 forward $362 $-1 #
vertex $-1 $370 $631 #
straight-curve $-1 55.53147984252449 -1.7915217832273456 77.586390123298472 0 0 1 I I #
straight-curve $-1 -36.543886111105991 -1.7915217832273456 63.097414292966462 0.82903756765294845 0 -0.55919291073839883 I I #
edge $-1 $625 -9.8348533150023556 $374 -1.7915217832273456 $519 $632 forward 7 unknown #
point $-1 55.53147984252449 -1.7915217832273456 14.869296339828797 #
point $-1 34.957237798981495 -1.7915217832273456 14.869296339828793 #
edge $-1 $633 1 $633 0 $377 $-1 forward 7 unknown #
vertex $-1 $378 $634 #
ellipse-curve $-1 44.157817659191288 -7.536758591638069 6.3196819792926684 0.55919291073839883 0 0.82903756765294845 0.41451878382647422 0 -0.27959645536919941 1 I I #
point $-1 45.658877604579466 -7.536758591638069 7.6509490102764435 #
edge $-1 $635 1 $635 0 $381 $-1 forward 7 unknown #
vertex $-1 $382 $636 #
ellipse-curve $-1 44.157817659191288 -4.0896165065916392 6.3196819792926684 0.55919291073839883 0 0.82903756765294845 0.41451878382647422 0 -0.27959645536919941 1 I I #
point $-1 45.658877604579466 -4.0896165065916392 7.6509490102764435 #
plane-surface $-1 0 0 14.869296339828797 0 0 1 1 0 0 forward_v I I I I #
coedge $-1 $546 $545 $538 $637 forward $386 $-1 #
coedge $-1 $538 $388 $390 $542 reversed $259 $-1 #
coedge $-1 $388 $537 $536 $637 reversed $259 $-1 #
coedge $-1 $396 $391 $388 $540 forward $397 $-1 #
edge $-1 $543 22.176371003782499 $638 42.750613047325494 $539 $639 forward 7 unknown #
coedge $-1 $390 $389 $546 $640 reversed $163 $-1 #
edge $-1 $641 -111.06295968504898 $543 -86.245939508520877 $537 $642 forward 7 unknown #
vertex $-1 $392 $643 #
straight-curve $-1 34.957237798981488 10.007153582665477 14.8692963398288 0 -1 0 I I #
coedge $-1 $536 $393 $396 $550 reversed $386 $-1 #
coedge $-1 $393 $536 $541 $640 forward $386 $-1 #
vertex $-1 $394 $644 #
straight-curve $-1 55.53147984252449 24.03597293121846 77.586390123298472 0 0 1 I I #
straight-curve $-1 -36.543886111105991 24.03597293121846 63.097414292966462 0.82903756765294845 0 -0.55919291073839883 I I #
edge $-1 $638 15.99264139944345 $398 24.03597293121846 $545 $645 forward 7 unknown #
point $-1 55.53147984252449 24.03597293121846 14.869296339828797 #
point $-1 34.957237798981495 24.03597293121846 14.869296339828793 #
edge $-1 $646 1 $646 0 $401 $-1 forward 7 unknown #
vertex $-1 $402 $647 #
ellipse-curve $-1 44.157817659191288 18.290736122807736 6.3196819792926684 0.55919291073839883 0 0.82903756765294845 0.41451878382647422 0 -0.27959645536919941 1 I I #
point $-1 45.658877604579466 18.290736122807736 7.6509490102764435 #
edge $-1 $648 1 $648 0 $405 $-1 forward 7 unknown #
vertex $-1 $406 $649 #
ellipse-curve $-1 44.157817659191288 21.737878207854159 6.3196819792926684 0.55919291073839883 0 0.82903756765294845 0.41451878382647422 0 -0.27959645536919941 1 I I #
point $-1 45.658877604579466 21.737878207854159 7.6509490102764435 #
plane-surface $-1 55.53147984252449 0 0 -1 0 0 0 0 1 forward_v I I I I #
coedge $-1 $414 $412 $416 $566 reversed $281 $-1 #
edge $-1 $427 -14.869296339828797 $568 14.869296339828797 $426 $650 forward 7 unknown #
vertex $-1 $566 $651 #
straight-curve $-1 -55.53147984252449 -34.129481087944562 0 0 0 -1 I I #
edge $-1 $564 -34.129481087944562 $568 34.129481087944562 $562 $652 forward 7 unknown #
straight-curve $-1 0 -34.129481087944562 -14.869296339828797 -1 0 0 I I #
vertex $-1 $419 $653 #
straight-curve $-1 0 34.129481087944562 -14.869296339828797 1 0 0 I I #
point $-1 55.53147984252449 34.129481087944562 -14.869296339828797 #
point $-1 55.53147984252449 -34.129481087944562 -14.869296339828797 #
straight-curve $-1 -55.53147984252449 0 14.869296339828797 0 -1 0 I I #
point $-1 -55.53147984252449 34.129481087944562 14.869296339828797 #
point $-1 -55.53147984252449 -34.129481087944562 14.869296339828797 #
straight-curve $-1 55.53147984252449 -34.129481087944562 0 0 0 -1 I I #
straight-curve $-1 55.53147984252449 34.129481087944562 0 0 0 -1 I I #
loop $-1 $-1 $585 $436 #
plane-surface $-1 -55.53147984252449 0 0 1 0 0 0 0 -1 forward_v I I I I #
coedge $-1 $440 $439 $591 $654 forward $185 $-1 #
edge $-1 $444 19.928361471728472 $594 34.129481087944562 $443 $655 forward 7 unknown #
coedge $-1 $588 $585 $440 $582 reversed $577 $-1 #
edge $-1 $656 -34.129481087944562 $583 -19.928361471728472 $581 $657 forward 7 unknown #
vertex $-1 $586 $658 #
straight-curve $-1 0 -19.928361471728472 -14.869296339828797 1 0 0 I I #
coedge $-1 $581 $446 $442 $586 forward $577 $-1 #
edge $-1 $448 3.782170498939605 $583 8.652140726905996 $585 $659 forward 7 unknown #
point $-1 55.53147984252449 -19.928361471728472 -14.869296339828797 #
coedge $-1 $446 $581 $450 $592 reversed $577 $-1 #
straight-curve $-1 -55.53147984252449 -13.514460639918259 -9.9993261118624055 0 1 0 I I #
point $-1 -55.53147984252449 -19.928361471728472 -9.9993261118624055 #
coedge $-1 $451 $450 $579 $654 reversed $437 $-1 #
edge $-1 $452 9.9993261118624055 $656 14.869296339828797 $588 $660 forward 7 unknown #
point $-1 -55.53147984252449 -34.129481087944562 -9.9993261118624055 #
vertex $-1 $454 $661 #
straight-curve $-1 55.53147984252449 -34.129481087944562 0 0 0 -1 I I #
coedge $-1 $468 $467 $460 $597 forward $457 $-1 #
edge $-1 $598 31.664283932717684 $601 45.541785681084001 $596 $662 forward 7 unknown #
vertex $-1 $472 $663 #
straight-curve $-1 -58.818549772014237 -1.7915217832273456 14.8692963398288 -1 0 0 I I #
edge $-1 $601 -1.1150719913300797 $469 6.9282595404449303 $468 $664 forward 7 unknown #
vertex $-1 $600 $665 #
straight-curve $-1 -55.53147984252449 -1.7915217832273456 0.9917945914624795 0.82903756765294845 0 0.55919291073839883 I I #
point $-1 -34.957237798981495 -1.7915217832273456 14.869296339828797 #
point $-1 -55.53147984252449 -9.8348533150023556 0.9917945914624795 #
straight-curve $-1 -55.53147984252449 0 14.869296339828797 0 -1 0 I I #
vertex $-1 $475 $666 #
point $-1 -43.743298875364815 -7.536758591638069 6.5992784346618674 #
vertex $-1 $479 $667 #
point $-1 -43.743298875364815 -4.0896165065916392 6.5992784346618674 #
coedge $-1 $494 $493 $486 $611 forward $483 $-1 #
edge $-1 $612 31.664283932717684 $615 45.541785681084001 $610 $668 forward 7 unknown #
vertex $-1 $498 $669 #
straight-curve $-1 -58.818549772014237 24.03597293121846 14.8692963398288 -1 0 0 I I #
edge $-1 $615 -14.028819348552982 $495 -5.9854878167779724 $494 $670 forward 7 unknown #
vertex $-1 $614 $671 #
straight-curve $-1 -55.53147984252449 24.03597293121846 0.9917945914624795 0.82903756765294845 0 0.55919291073839883 I I #
point $-1 -34.957237798981495 24.03597293121846 14.869296339828797 #
point $-1 -55.53147984252449 15.99264139944345 0.9917945914624795 #
straight-curve $-1 -55.53147984252449 0 14.869296339828797 0 -1 0 I I #
vertex $-1 $501 $672 #
point $-1 -43.743298875364815 18.290736122807736 6.5992784346618674 #
vertex $-1 $505 $673 #
point $-1 -43.743298875364815 21.737878207854159 6.5992784346618674 #
edge $-1 $625 62.717093783469679 $628 76.594595531835992 $510 $674 forward 7 unknown #
vertex $-1 $524 $675 #
straight-curve $-1 12.780866795198996 -9.8348533150023556 14.869296339828793 1 0 0 I I #
edge $-1 $628 -6.9282595404449303 $521 1.1150719913300797 $520 $676 forward 7 unknown #
vertex $-1 $627 $677 #
straight-curve $-1 -36.543886111105991 -9.8348533150023556 63.097414292966462 -0.82903756765294845 0 0.55919291073839883 I I #
point $-1 34.957237798981495 -9.8348533150023556 14.869296339828793 #
point $-1 55.53147984252449 -1.7915217832273456 0.9917945914624795 #
straight-curve $-1 55.53147984252449 0 14.869296339828797 0 1 0 I I #
vertex $-1 $527 $678 #
point $-1 44.572336443017761 -7.536758591638069 6.0400855239234685 #
vertex $-1 $531 $679 #
point $-1 44.572336443017761 -4.0896165065916392 6.0400855239234685 #
edge $-1 $638 62.717093783469679 $641 76.594595531835992 $536 $680 forward 7 unknown #
vertex $-1 $550 $681 #
straight-curve $-1 12.780866795198996 15.99264139944345 14.869296339828793 1 0 0 I I #
edge $-1 $641 5.9854878167779724 $547 14.028819348552982 $546 $682 forward 7 unknown #
vertex $-1 $640 $683 #
straight-curve $-1 -36.543886111105991 15.99264139944345 63.097414292966462 -0.82903756765294845 0 0.55919291073839883 I I #
point $-1 34.957237798981495 15.99264139944345 14.869296339828793 #
point $-1 55.53147984252449 24.03597293121846 0.9917945914624795 #
straight-curve $-1 55.53147984252449 0 14.869296339828797 0 1 0 I I #
vertex $-1 $553 $684 #
point $-1 44.572336443017761 18.290736122807736 6.0400855239234685 #
vertex $-1 $557 $685 #
point $-1 44.572336443017761 21.737878207854159 6.0400855239234685 #
straight-curve $-1 -55.53147984252449 34.129481087944562 0 0 0 -1 I I #
point $-1 -55.53147984252449 -34.129481087944562 -14.869296339828797 #
straight-curve $-1 -55.53147984252449 0 -14.869296339828797 0 1 0 I I #
point $-1 -55.53147984252449 34.129481087944562 -14.869296339828797 #
edge $-1 $594 -55.53147984252449 $656 55.53147984252449 $591 $686 forward 7 unknown #
straight-curve $-1 55.53147984252449 0 -14.869296339828797 0 -1 0 I I #
vertex $-1 $582 $687 #
straight-curve $-1 -55.53147984252449 0 -14.869296339828797 0 1 0 I I #
point $-1 -55.53147984252449 -19.928361471728472 -14.869296339828797 #
straight-curve $-1 -55.53147984252449 -19.928361471728472 -6.2171556129228005 0 0 -1 I I #
straight-curve $-1 -55.53147984252449 -34.129481087944562 0 0 0 -1 I I #
point $-1 55.53147984252449 -34.129481087944562 -14.869296339828797 #
straight-curve $-1 -55.53147984252449 -1.7915217832273456 46.53358027254648 0 0 -1 I I #
point $-1 -55.53147984252449 -1.7915217832273456 14.869296339828797 #
straight-curve $-1 -55.53147984252449 -2.9065937745574253 0.99179459146247984 0 -1 0 I I #
point $-1 -55.53147984252449 -1.7915217832273456 0.9917945914624795 #
point $-1 -43.878221203822086 -7.536758591638069 5.9051631954661934 #
point $-1 -43.878221203822086 -4.0896165065916392 5.9051631954661934 #
straight-curve $-1 -55.53147984252449 24.03597293121846 46.53358027254648 0 0 -1 I I #
point $-1 -55.53147984252449 24.03597293121846 14.869296339828797 #
straight-curve $-1 -55.53147984252449 10.007153582665477 0.99179459146247984 0 -1 0 I I #
point $-1 -55.53147984252449 24.03597293121846 0.9917945914624795 #
point $-1 -43.878221203822086 18.290736122807736 5.9051631954661934 #
point $-1 -43.878221203822086 21.737878207854159 5.9051631954661934 #
straight-curve $-1 55.53147984252449 -9.8348533150023556 77.586390123298472 0 0 -1 I I #
point $-1 55.53147984252449 -9.8348533150023556 14.869296339828797 #
straight-curve $-1 55.53147984252449 -2.9065937745574253 0.99179459146248306 0 1 0 I I #
point $-1 55.53147984252449 -9.8348533150023556 0.9917945914624795 #
point $-1 43.878221203822086 -7.536758591638069 5.9051631954661934 #
point $-1 43.878221203822086 -4.0896165065916392 5.9051631954661934 #
straight-curve $-1 55.53147984252449 15.99264139944345 77.586390123298472 0 0 -1 I I #
point $-1 55.53147984252449 15.99264139944345 14.869296339828797 #
straight-curve $-1 55.53147984252449 10.007153582665477 0.99179459146248306 0 1 0 I I #
point $-1 55.53147984252449 15.99264139944345 0.9917945914624795 #
point $-1 43.878221203822086 18.290736122807736 5.9051631954661934 #
point $-1 43.878221203822086 21.737878207854159 5.9051631954661934 #
straight-curve $-1 0 -34.129481087944562 -14.869296339828797 -1 0 0 I I #
point $-1 -55.53147984252449 -34.129481087944562 -14.869296339828797 #
End-of-ACIS-data 