500 0 9 0           
7 Unknown 11 ACIS 5.0 NT 24 Thu Mar 25 18:07:00 1999 
-1 9.9999999999999995e-007 1e-010 
body $-1 $9 $-1 $10 #
body $-1 $11 $-1 $12 #
body $-1 $13 $-1 $14 #
body $-1 $15 $-1 $16 #
body $-1 $17 $-1 $18 #
body $-1 $19 $-1 $20 #
body $-1 $21 $-1 $22 #
body $-1 $23 $-1 $24 #
body $-1 $25 $-1 $26 #
lump $-1 $-1 $27 $0 #
transform $-1 1 0 0 0 1 0 0 0 1 65.852839747306746 37.923212850237398 8.3123904944906482 1 rotate no_reflect no_shear #
lump $-1 $-1 $28 $1 #
transform $-1 1 0 0 0 1 0 0 0 1 65.852839747306746 37.923212850237398 8.3123904944906482 1 rotate no_reflect no_shear #
lump $-1 $-1 $29 $2 #
transform $-1 1 0 0 0 1 0 0 0 1 65.852839747306746 37.923212850237398 8.3123904944906482 1 rotate no_reflect no_shear #
lump $-1 $-1 $30 $3 #
transform $-1 1 0 0 0 1 0 0 0 1 65.852839747306746 37.923212850237398 8.3123904944906482 1 rotate no_reflect no_shear #
lump $-1 $-1 $31 $4 #
transform $-1 1 0 0 0 1 0 0 0 1 65.852839747306746 37.923212850237398 8.3123904944906482 1 rotate no_reflect no_shear #
lump $-1 $-1 $32 $5 #
transform $-1 1 0 0 0 1 0 0 0 1 65.852839747306746 37.923212850237398 8.3123904944906482 1 rotate no_reflect no_shear #
lump $-1 $-1 $33 $6 #
transform $-1 1 0 0 0 1 0 0 0 1 65.852839747306746 37.923212850237398 8.3123904944906482 1 rotate no_reflect no_shear #
lump $-1 $-1 $34 $7 #
transform $-1 1 0 0 0 1 0 0 0 1 65.852839747306746 37.923212850237398 8.3123904944906482 1 rotate no_reflect no_shear #
lump $-1 $-1 $35 $8 #
transform $-1 1 0 0 0 1 0 0 0 1 65.852839747306746 37.923212850237398 8.3123904944906482 1 rotate no_reflect no_shear #
shell $-1 $-1 $-1 $36 $-1 $9 #
shell $-1 $-1 $-1 $37 $-1 $11 #
shell $-1 $-1 $-1 $38 $-1 $13 #
shell $-1 $-1 $-1 $39 $-1 $15 #
shell $-1 $-1 $-1 $40 $-1 $17 #
shell $-1 $-1 $-1 $41 $-1 $19 #
shell $-1 $-1 $-1 $42 $-1 $21 #
shell $-1 $-1 $-1 $43 $-1 $23 #
shell $-1 $-1 $-1 $44 $-1 $25 #
face $-1 $45 $46 $27 $-1 $47 forward single #
face $-1 $48 $49 $28 $-1 $50 reversed single #
face $-1 $51 $52 $29 $-1 $53 reversed single #
face $-1 $54 $55 $30 $-1 $56 reversed single #
face $-1 $57 $58 $31 $-1 $59 forward single #
face $-1 $60 $61 $32 $-1 $62 forward single #
face $-1 $63 $64 $33 $-1 $65 reversed single #
face $-1 $66 $67 $34 $-1 $68 forward single #
face $-1 $69 $70 $35 $-1 $71 forward single #
face $-1 $72 $73 $27 $-1 $74 reversed single #
loop $-1 $-1 $75 $36 #
plane-surface $-1 0 0 8.3123904944906482 0 0 1 1 0 0 forward_v I I I I #
face $-1 $76 $77 $28 $-1 $78 reversed single #
loop $-1 $-1 $79 $37 #
plane-surface $-1 -64.352839747306746 -28.943943723833023 0 0 -1 0 0 0 -1 forward_v I I I I #
face $-1 $80 $81 $29 $-1 $82 reversed single #
loop $-1 $-1 $83 $38 #
plane-surface $-1 -64.352839747306746 28.943943723833023 0 0 1 0 0 0 1 forward_v I I I I #
face $-1 $84 $85 $30 $-1 $86 reversed single #
loop $-1 $-1 $87 $39 #
plane-surface $-1 -65.85283974730676 24.402735643172782 2.9816636733352908 -0.6018150307709319 0 0.79863550430605224 0.79863550430605224 0 0.6018150307709319 forward_v I I I I #
face $-1 $88 $89 $31 $-1 $90 forward single #
loop $-1 $91 $92 $40 #
cone-surface $-1 -61.899662550189802 22.456503608604109 5.0948164664225066 0.6018150307709319 0 -0.79863550430605224 0.79863550430605224 0 0.6018150307709319 1 I I 0 1 1 forward I I I I #
face $-1 $93 $94 $32 $-1 $95 forward single #
loop $-1 $96 $97 $41 #
cone-surface $-1 -61.899662550189802 26.348967677741463 5.0948164664225066 0.6018150307709319 0 -0.79863550430605224 0.79863550430605224 0 0.6018150307709319 1 I I 0 1 1 forward I I I I #
face $-1 $98 $99 $33 $-1 $100 reversed single #
loop $-1 $-1 $101 $42 #
plane-surface $-1 39.930465541912127 28.943943723833023 187.42895299424455 0 -1 0 -0.6018150307709319 0 -0.79863550430605224 forward_v I I I I #
face $-1 $102 $103 $34 $-1 $104 forward single #
loop $-1 $105 $106 $43 #
cone-surface $-1 61.899662550189802 22.456503608604109 5.0948164664225173 -0.6018150307709319 0 -0.79863550430605224 0.79863550430605224 0 -0.6018150307709319 1 I I 0 1 1 forward I I I I #
face $-1 $107 $108 $35 $-1 $109 forward single #
loop $-1 $110 $111 $44 #
cone-surface $-1 61.899662550189802 26.348967677741463 5.0948164664225173 -0.6018150307709319 0 -0.79863550430605224 0.79863550430605224 0 -0.6018150307709319 1 I I 0 1 1 forward I I I I #
face $-1 $112 $113 $27 $-1 $114 reversed single #
loop $-1 $-1 $115 $45 #
plane-surface $-1 0 0 -8.3123904944906482 0 0 1 1 0 0 forward_v I I I I #
coedge $-1 $116 $117 $118 $119 forward $46 $-1 #
face $-1 $120 $121 $28 $-1 $122 forward single #
loop $-1 $-1 $123 $48 #
plane-surface $-1 -62.852839747306746 -33.433578287035211 0 -1 0 0 0 0 1 forward_v I I I I #
coedge $-1 $124 $125 $126 $127 forward $49 $-1 #
face $-1 $128 $129 $29 $-1 $130 reversed single #
loop $-1 $-1 $131 $51 #
plane-surface $-1 -62.852839747306746 33.433578287035211 0 -1 0 0 0 0 1 forward_v I I I I #
coedge $-1 $132 $133 $134 $135 reversed $52 $-1 #
face $-1 $136 $137 $30 $-1 $138 forward single #
loop $-1 $-1 $139 $54 #
plane-surface $-1 -145.11529730506408 19.861527562512542 108.16649543648722 0 1 0 -0.6018150307709319 0 0.79863550430605224 forward_v I I I I #
coedge $-1 $140 $141 $142 $143 reversed $55 $-1 #
face $-1 $-1 $144 $31 $-1 $145 forward single #
loop $-1 $146 $147 $57 #
cone-surface $-1 -61.1826344792252 22.456503608604109 4.1432880967790151 0.6018150307709319 0 -0.79863550430605224 0.39931775215302612 0 0.30090751538546595 1 I I -0.70710678118654746 0.70710678118654746 0.5 forward I I I I #
loop $-1 $-1 $148 $40 #
coedge $-1 $92 $92 $149 $150 reversed $58 $-1 #
face $-1 $-1 $151 $32 $-1 $152 forward single #
loop $-1 $153 $154 $60 #
cone-surface $-1 -61.1826344792252 26.348967677741463 4.1432880967790151 0.6018150307709319 0 -0.79863550430605224 0.39931775215302612 0 0.30090751538546595 1 I I -0.70710678118654746 0.70710678118654746 0.5 forward I I I I #
loop $-1 $-1 $155 $41 #
coedge $-1 $97 $97 $156 $157 reversed $61 $-1 #
face $-1 $158 $159 $33 $-1 $160 reversed single #
loop $-1 $-1 $161 $63 #
plane-surface $-1 -39.331992015845188 24.402735643172782 82.24412123109262 0.6018150307709319 0 0.79863550430605224 0.79863550430605224 0 -0.6018150307709319 forward_v I I I I #
coedge $-1 $162 $163 $164 $165 reversed $64 $-1 #
face $-1 $-1 $166 $34 $-1 $167 forward single #
loop $-1 $168 $169 $66 #
cone-surface $-1 61.1826344792252 22.456503608604109 4.1432880967790258 -0.6018150307709319 0 -0.79863550430605224 0.39931775215302612 0 -0.30090751538546595 1 I I -0.70710678118654746 0.70710678118654746 0.5 forward I I I I #
loop $-1 $-1 $170 $43 #
coedge $-1 $106 $106 $171 $172 reversed $67 $-1 #
face $-1 $-1 $173 $35 $-1 $174 forward single #
loop $-1 $175 $176 $69 #
cone-surface $-1 61.1826344792252 26.348967677741463 4.1432880967790258 -0.6018150307709319 0 -0.79863550430605224 0.39931775215302612 0 -0.30090751538546595 1 I I -0.70710678118654746 0.70710678118654746 0.5 forward I I I I #
loop $-1 $-1 $177 $44 #
coedge $-1 $111 $111 $178 $179 reversed $70 $-1 #
face $-1 $180 $181 $27 $-1 $182 reversed single #
loop $-1 $-1 $183 $72 #
plane-surface $-1 0 -37.923212850237398 0 0 1 0 0 0 1 forward_v I I I I #
coedge $-1 $184 $185 $186 $187 forward $73 $-1 #
coedge $-1 $188 $75 $189 $190 forward $46 $-1 #
coedge $-1 $75 $188 $191 $192 forward $46 $-1 #
coedge $-1 $193 $194 $75 $119 reversed $195 $-1 #
edge $-1 $196 -37.923212850237398 $197 37.923212850237398 $118 $198 forward 7 unknown #
face $-1 $199 $200 $28 $-1 $201 reversed single #
loop $-1 $-1 $202 $76 #
plane-surface $-1 0 0 8.3123904944906482 0 0 1 1 0 0 forward_v I I I I #
coedge $-1 $203 $204 $205 $206 reversed $77 $-1 #
coedge $-1 $207 $79 $208 $209 reversed $49 $-1 #
coedge $-1 $79 $207 $210 $211 reversed $49 $-1 #
coedge $-1 $204 $203 $79 $127 reversed $77 $-1 #
edge $-1 $212 -8.3123904944906482 $213 8.3123904944906482 $126 $214 forward 7 unknown #
face $-1 $215 $216 $29 $-1 $217 reversed single #
loop $-1 $-1 $218 $80 #
plane-surface $-1 0 0 -8.3123904944906482 0 0 1 1 0 0 forward_v I I I I #
coedge $-1 $219 $220 $221 $222 forward $81 $-1 #
coedge $-1 $221 $83 $223 $224 reversed $52 $-1 #
coedge $-1 $83 $221 $225 $226 reversed $52 $-1 #
coedge $-1 $227 $228 $83 $135 forward $216 $-1 #
edge $-1 $229 -8.3123904944906482 $230 8.3123904944906482 $134 $231 forward 7 unknown #
face $-1 $232 $233 $30 $-1 $234 forward single #
loop $-1 $-1 $235 $84 #
plane-surface $-1 0 0 8.3123904944906482 0 0 1 1 0 0 forward_v I I I I #
coedge $-1 $236 $237 $238 $239 reversed $85 $-1 #
coedge $-1 $240 $87 $241 $242 reversed $55 $-1 #
coedge $-1 $87 $240 $236 $243 forward $55 $-1 #
coedge $-1 $238 $244 $87 $143 forward $245 $-1 #
edge $-1 $246 -16.742575902246632 $247 -7.6601597409261508 $142 $248 forward 7 unknown #
loop $-1 $-1 $149 $88 #
plane-surface $-1 -65.85283974730676 24.402735643172782 2.9816636733352908 -0.6018150307709319 0 0.79863550430605224 0.79863550430605224 0 0.6018150307709319 forward_v I I I I #
loop $-1 $-1 $249 $57 #
coedge $-1 $147 $147 $148 $250 reversed $89 $-1 #
coedge $-1 $148 $148 $147 $250 forward $91 $-1 #
coedge $-1 $149 $149 $92 $150 forward $144 $-1 #
edge $-1 $251 0 $251 6.2831853071796004 $149 $252 forward 7 unknown #
loop $-1 $-1 $156 $93 #
plane-surface $-1 -65.85283974730676 24.402735643172782 2.9816636733352908 -0.6018150307709319 0 0.79863550430605224 0.79863550430605224 0 0.6018150307709319 forward_v I I I I #
loop $-1 $-1 $253 $60 #
coedge $-1 $154 $154 $155 $254 reversed $94 $-1 #
coedge $-1 $155 $155 $154 $254 forward $96 $-1 #
coedge $-1 $156 $156 $97 $157 forward $151 $-1 #
edge $-1 $255 0 $255 6.2831853071796004 $156 $256 forward 7 unknown #
face $-1 $257 $258 $33 $-1 $259 reversed single #
loop $-1 $-1 $260 $98 #
plane-surface $-1 39.930465541912127 19.861527562512542 187.42895299424455 0 1 0 0.6018150307709319 0 0.79863550430605224 forward_v I I I I #
coedge $-1 $261 $262 $263 $264 reversed $99 $-1 #
coedge $-1 $163 $101 $265 $266 reversed $64 $-1 #
coedge $-1 $101 $162 $261 $267 reversed $64 $-1 #
coedge $-1 $263 $268 $101 $165 forward $269 $-1 #
edge $-1 $270 -45.887606976350682 $271 -38.813493693275092 $164 $272 forward 7 unknown #
loop $-1 $-1 $171 $102 #
plane-surface $-1 -39.331992015845188 24.402735643172782 82.24412123109262 0.6018150307709319 0 0.79863550430605224 0.79863550430605224 0 -0.6018150307709319 forward_v I I I I #
loop $-1 $-1 $273 $66 #
coedge $-1 $169 $169 $170 $274 reversed $103 $-1 #
coedge $-1 $170 $170 $169 $274 forward $105 $-1 #
coedge $-1 $171 $171 $106 $172 forward $166 $-1 #
edge $-1 $275 0 $275 6.2831853071796004 $171 $276 forward 7 unknown #
loop $-1 $-1 $178 $107 #
plane-surface $-1 -39.331992015845188 24.402735643172782 82.24412123109262 0.6018150307709319 0 0.79863550430605224 0.79863550430605224 0 -0.6018150307709319 forward_v I I I I #
loop $-1 $-1 $277 $69 #
coedge $-1 $176 $176 $177 $278 reversed $108 $-1 #
coedge $-1 $177 $177 $176 $278 forward $110 $-1 #
coedge $-1 $178 $178 $111 $179 forward $173 $-1 #
edge $-1 $279 0 $279 6.2831853071796004 $178 $280 forward 7 unknown #
face $-1 $281 $282 $27 $-1 $283 reversed single #
loop $-1 $-1 $284 $112 #
plane-surface $-1 -65.852839747306746 0 0 1 0 0 0 0 -1 forward_v I I I I #
coedge $-1 $285 $191 $286 $287 forward $113 $-1 #
coedge $-1 $288 $115 $285 $289 forward $73 $-1 #
coedge $-1 $115 $288 $290 $291 forward $73 $-1 #
coedge $-1 $194 $193 $115 $187 reversed $195 $-1 #
edge $-1 $292 -37.923212850237398 $293 37.923212850237398 $186 $294 forward 7 unknown #
coedge $-1 $117 $116 $295 $296 forward $46 $-1 #
coedge $-1 $297 $298 $116 $190 reversed $282 $-1 #
edge $-1 $197 -65.852839747306746 $299 65.852839747306746 $189 $300 forward 7 unknown #
coedge $-1 $183 $301 $117 $192 reversed $113 $-1 #
edge $-1 $302 -65.852839747306746 $196 65.852839747306746 $191 $303 forward 7 unknown #
coedge $-1 $186 $118 $301 $304 forward $195 $-1 #
coedge $-1 $118 $186 $297 $305 reversed $195 $-1 #
loop $-1 $-1 $193 $281 #
vertex $-1 $119 $306 #
vertex $-1 $119 $307 #
straight-curve $-1 65.852839747306746 0 8.3123904944906482 0 1 0 I I #
face $-1 $308 $309 $28 $-1 $310 reversed single #
loop $-1 $-1 $311 $120 #
plane-surface $-1 -65.852839747306746 0 0 1 0 0 0 0 -1 forward_v I I I I #
coedge $-1 $210 $312 $204 $313 forward $121 $-1 #
coedge $-1 $126 $123 $314 $315 reversed $77 $-1 #
coedge $-1 $123 $126 $202 $313 reversed $77 $-1 #
coedge $-1 $316 $317 $123 $206 forward $318 $-1 #
edge $-1 $319 -8.3123904944906482 $320 8.3123904944906482 $205 $321 forward 7 unknown #
coedge $-1 $125 $124 $311 $322 reversed $49 $-1 #
coedge $-1 $314 $323 $124 $209 forward $309 $-1 #
edge $-1 $324 -33.676419873653373 $213 -30.676419873653373 $208 $325 forward 7 unknown #
coedge $-1 $326 $202 $125 $211 forward $121 $-1 #
edge $-1 $212 30.676419873653373 $327 33.676419873653373 $210 $328 forward 7 unknown #
vertex $-1 $211 $329 #
vertex $-1 $209 $330 #
straight-curve $-1 -62.852839747306746 -28.943943723833023 0 0 0 -1 I I #
face $-1 $331 $332 $29 $-1 $333 forward single #
loop $-1 $-1 $134 $128 #
plane-surface $-1 -65.852839747306746 0 0 1 0 0 0 0 -1 forward_v I I I I #
coedge $-1 $223 $334 $219 $335 forward $129 $-1 #
coedge $-1 $336 $131 $218 $335 reversed $81 $-1 #
coedge $-1 $131 $336 $337 $338 reversed $81 $-1 #
coedge $-1 $133 $132 $131 $222 reversed $52 $-1 #
edge $-1 $339 -8.3123904944906482 $340 8.3123904944906482 $131 $341 forward 7 unknown #
coedge $-1 $342 $218 $132 $224 forward $129 $-1 #
edge $-1 $340 30.676419873653373 $229 33.676419873653373 $223 $343 forward 7 unknown #
coedge $-1 $337 $344 $133 $226 forward $332 $-1 #
edge $-1 $230 -33.676419873653373 $339 -30.676419873653373 $225 $345 forward 7 unknown #
coedge $-1 $346 $134 $344 $347 reversed $216 $-1 #
coedge $-1 $134 $346 $342 $348 reversed $216 $-1 #
vertex $-1 $348 $349 #
vertex $-1 $135 $350 #
straight-curve $-1 -65.852839747306746 28.943943723833023 0 0 0 1 I I #
face $-1 $-1 $245 $30 $-1 $351 reversed single #
loop $-1 $-1 $241 $136 #
plane-surface $-1 -64.352839747306746 28.943943723833023 0 0 1 0 0 0 1 forward_v I I I I #
coedge $-1 $352 $353 $237 $354 forward $137 $-1 #
coedge $-1 $237 $139 $141 $243 reversed $85 $-1 #
coedge $-1 $139 $236 $235 $354 reversed $85 $-1 #
coedge $-1 $355 $142 $139 $239 forward $245 $-1 #
edge $-1 $247 -51.101584044908307 $356 -45.770857223752962 $238 $357 forward 7 unknown #
coedge $-1 $141 $140 $352 $358 reversed $55 $-1 #
coedge $-1 $359 $360 $140 $242 forward $233 $-1 #
edge $-1 $361 -9.1559779346811467 $246 -0.29822837942888686 $241 $362 forward 7 unknown #
edge $-1 $363 -8.8577495552522763 $247 -1.7763522597878294e-014 $236 $364 forward 7 unknown #
coedge $-1 $142 $355 $359 $365 forward $245 $-1 #
loop $-1 $-1 $238 $232 #
vertex $-1 $242 $366 #
vertex $-1 $143 $367 #
straight-curve $-1 -65.852839747306746 12.201367821586391 2.981663673335297 0 -1 0 I I #
coedge $-1 $249 $249 $-1 $368 reversed $146 $-1 #
edge $-1 $369 0 $369 6.2831853071796004 $147 $370 forward 7 unknown #
vertex $-1 $150 $371 #
ellipse-curve $-1 -62.315783105768944 22.456503608604109 5.6470270839129766 -0.6018150307709319 0 0.79863550430605224 0.79863550430605224 0 0.6018150307709319 1 I I #
coedge $-1 $253 $253 $-1 $372 reversed $153 $-1 #
edge $-1 $373 0 $373 6.2831853071796004 $154 $374 forward 7 unknown #
vertex $-1 $157 $375 #
ellipse-curve $-1 -62.315783105768944 26.348967677741463 5.6470270839129766 -0.6018150307709319 0 0.79863550430605224 0.79863550430605224 0 0.6018150307709319 1 I I #
face $-1 $-1 $269 $33 $-1 $376 forward single #
loop $-1 $-1 $377 $158 #
plane-surface $-1 65.852839747306746 0 0 -1 0 0 0 0 1 forward_v I I I I #
coedge $-1 $378 $379 $380 $381 reversed $159 $-1 #
coedge $-1 $382 $161 $163 $267 forward $99 $-1 #
coedge $-1 $161 $382 $378 $383 forward $99 $-1 #
coedge $-1 $380 $164 $161 $264 forward $269 $-1 #
edge $-1 $271 -16.742575902246632 $384 -7.6601597409261508 $263 $385 forward 7 unknown #
coedge $-1 $386 $387 $162 $266 forward $258 $-1 #
edge $-1 $388 -90.732812823786972 $270 -85.402086002631634 $265 $389 forward 7 unknown #
edge $-1 $271 122.84792993936125 $388 131.70567949461352 $163 $390 forward 7 unknown #
coedge $-1 $164 $380 $386 $391 forward $269 $-1 #
loop $-1 $-1 $380 $257 #
vertex $-1 $266 $392 #
vertex $-1 $165 $393 #
straight-curve $-1 19.965232770956064 28.943943723833023 8.3123904944906428 -1 0 0 I I #
coedge $-1 $273 $273 $-1 $394 reversed $168 $-1 #
edge $-1 $395 0 $395 6.2831853071796004 $169 $396 forward 7 unknown #
vertex $-1 $172 $397 #
ellipse-curve $-1 62.315783105768936 22.456503608604109 5.6470270839129784 0.6018150307709319 0 0.79863550430605224 0.79863550430605224 0 -0.6018150307709319 1 I I #
coedge $-1 $277 $277 $-1 $398 reversed $175 $-1 #
edge $-1 $399 0 $399 6.2831853071796004 $176 $400 forward 7 unknown #
vertex $-1 $179 $401 #
ellipse-curve $-1 62.315783105768936 26.348967677741463 5.6470270839129784 0.6018150307709319 0 0.79863550430605224 0.79863550430605224 0 -0.6018150307709319 1 I I #
face $-1 $-1 $195 $27 $-1 $402 reversed single #
loop $-1 $-1 $297 $180 #
plane-surface $-1 0 37.923212850237398 0 0 -1 0 0 0 -1 forward_v I I I I #
coedge $-1 $403 $295 $298 $404 forward $181 $-1 #
coedge $-1 $301 $183 $184 $289 reversed $113 $-1 #
coedge $-1 $295 $403 $183 $287 reversed $181 $-1 #
edge $-1 $302 -8.3123904944906482 $405 8.3123904944906482 $286 $406 forward 7 unknown #
coedge $-1 $185 $184 $403 $407 forward $73 $-1 #
edge $-1 $293 -65.852839747306746 $405 65.852839747306746 $285 $408 forward 7 unknown #
coedge $-1 $298 $297 $185 $291 reversed $282 $-1 #
edge $-1 $409 -65.852839747306746 $292 65.852839747306746 $290 $410 forward 7 unknown #
vertex $-1 $187 $411 #
vertex $-1 $304 $412 #
straight-curve $-1 65.852839747306746 0 -8.3123904944906482 0 -1 0 I I #
coedge $-1 $284 $286 $188 $296 reversed $181 $-1 #
edge $-1 $299 -37.923212850237398 $302 37.923212850237398 $295 $413 forward 7 unknown #
coedge $-1 $290 $189 $194 $305 forward $282 $-1 #
coedge $-1 $189 $290 $284 $404 reversed $282 $-1 #
vertex $-1 $190 $414 #
straight-curve $-1 0 37.923212850237398 8.3123904944906482 -1 0 0 I I #
coedge $-1 $191 $285 $193 $304 reversed $113 $-1 #
vertex $-1 $296 $415 #
straight-curve $-1 0 -37.923212850237398 8.3123904944906482 1 0 0 I I #
edge $-1 $196 -8.3123904944906482 $293 8.3123904944906482 $193 $416 forward 7 unknown #
edge $-1 $197 -8.3123904944906482 $292 8.3123904944906482 $194 $417 forward 7 unknown #
point $-1 65.852839747306746 -37.923212850237398 8.3123904944906482 #
point $-1 65.852839747306746 37.923212850237398 8.3123904944906482 #
face $-1 $-1 $318 $28 $-1 $418 reversed single #
loop $-1 $-1 $314 $199 #
plane-surface $-1 0 0 -8.3123904944906482 0 0 1 1 0 0 forward_v I I I I #
coedge $-1 $419 $420 $207 $322 forward $200 $-1 #
coedge $-1 $202 $326 $316 $421 forward $121 $-1 #
edge $-1 $320 -21.206423706719793 $212 -12.227154580315418 $202 $422 forward 7 unknown #
coedge $-1 $423 $208 $203 $315 forward $309 $-1 #
edge $-1 $213 12.227154580315418 $319 21.206423706719793 $314 $424 forward 7 unknown #
coedge $-1 $425 $205 $312 $421 reversed $318 $-1 #
coedge $-1 $205 $425 $423 $426 reversed $318 $-1 #
loop $-1 $-1 $205 $308 #
vertex $-1 $426 $427 #
vertex $-1 $206 $428 #
straight-curve $-1 -62.852839747306746 -37.923212850237398 0 0 0 1 I I #
edge $-1 $327 -8.3123904944906482 $324 8.3123904944906482 $311 $429 forward 7 unknown #
coedge $-1 $208 $423 $419 $430 forward $309 $-1 #
vertex $-1 $209 $431 #
straight-curve $-1 -32.176419873653373 -28.943943723833023 -8.3123904944906482 1 0 0 I I #
coedge $-1 $312 $210 $420 $432 forward $121 $-1 #
vertex $-1 $432 $433 #
straight-curve $-1 -32.176419873653373 -28.943943723833023 8.3123904944906482 -1 0 0 I I #
point $-1 -62.852839747306746 -28.943943723833023 8.3123904944906482 #
point $-1 -62.852839747306746 -28.943943723833023 -8.3123904944906482 #
face $-1 $-1 $434 $29 $-1 $435 reversed single #
loop $-1 $-1 $337 $215 #
plane-surface $-1 0 0 8.3123904944906482 0 0 1 1 0 0 forward_v I I I I #
coedge $-1 $218 $342 $436 $437 forward $129 $-1 #
edge $-1 $438 -21.206423706719793 $340 -12.227154580315418 $218 $439 forward 7 unknown #
coedge $-1 $220 $219 $440 $441 reversed $81 $-1 #
coedge $-1 $442 $225 $220 $338 forward $332 $-1 #
edge $-1 $339 12.227154580315418 $443 21.206423706719793 $337 $444 forward 7 unknown #
vertex $-1 $226 $445 #
vertex $-1 $224 $446 #
straight-curve $-1 -62.852839747306746 28.943943723833023 0 0 0 -1 I I #
coedge $-1 $334 $223 $228 $348 forward $129 $-1 #
straight-curve $-1 -32.176419873653373 28.943943723833023 -8.3123904944906482 -1 0 0 I I #
coedge $-1 $225 $442 $227 $347 forward $332 $-1 #
straight-curve $-1 -32.176419873653373 28.943943723833023 8.3123904944906482 1 0 0 I I #
coedge $-1 $228 $227 $447 $448 forward $216 $-1 #
edge $-1 $449 -37.923212850237398 $230 -28.943943723833023 $227 $450 forward 7 unknown #
edge $-1 $229 28.943943723833023 $451 37.923212850237398 $228 $452 forward 7 unknown #
point $-1 -65.852839747306746 28.943943723833023 -8.3123904944906482 #
point $-1 -65.852839747306746 28.943943723833023 8.3123904944906482 #
plane-surface $-1 -65.852839747306746 0 0 1 0 0 0 0 -1 forward_v I I I I #
coedge $-1 $453 $235 $240 $358 forward $137 $-1 #
coedge $-1 $235 $453 $355 $454 forward $137 $-1 #
edge $-1 $356 6.7048089052252919 $363 13.778922188300889 $235 $455 forward 7 unknown #
coedge $-1 $244 $238 $353 $454 reversed $245 $-1 #
vertex $-1 $239 $456 #
straight-curve $-1 -65.852839747306746 19.861527562512542 54.083247718243612 0 0 1 I I #
edge $-1 $363 7.6601597409261508 $361 16.742575902246632 $352 $457 forward 7 unknown #
coedge $-1 $360 $241 $244 $365 reversed $233 $-1 #
coedge $-1 $241 $359 $453 $458 reversed $233 $-1 #
vertex $-1 $458 $459 #
straight-curve $-1 -66.091015519510307 28.943943723833023 2.8021853519925348 -0.79863550430605224 0 -0.6018150307709319 I I #
vertex $-1 $358 $460 #
straight-curve $-1 -65.85283974730676 19.861527562512542 2.9816636733352908 -0.79863550430605224 0 -0.6018150307709319 I I #
edge $-1 $461 -8.3123904944906482 $246 -2.981663673335301 $244 $462 forward 7 unknown #
point $-1 -65.852839747306746 28.943943723833023 2.981663673335301 #
point $-1 -65.852839747306746 19.861527562512542 2.9816636733353015 #
edge $-1 $463 1 $463 0 $249 $-1 forward 7 unknown #
vertex $-1 $250 $464 #
ellipse-curve $-1 -61.483541994610668 22.456503608604109 4.5426058489320411 -0.6018150307709319 0 0.79863550430605224 0.79863550430605224 0 0.6018150307709319 1 I I #
point $-1 -61.517147601462888 22.456503608604109 6.248842114683903 #
edge $-1 $465 1 $465 0 $253 $-1 forward 7 unknown #
vertex $-1 $254 $466 #
ellipse-curve $-1 -61.483541994610668 26.348967677741463 4.5426058489320411 -0.6018150307709319 0 0.79863550430605224 0.79863550430605224 0 0.6018150307709319 1 I I #
point $-1 -61.517147601462888 26.348967677741463 6.248842114683903 #
plane-surface $-1 0 0 8.3123904944906482 0 0 1 1 0 0 forward_v I I I I #
coedge $-1 $387 $386 $379 $467 forward $258 $-1 #
coedge $-1 $379 $260 $262 $383 reversed $159 $-1 #
coedge $-1 $260 $378 $377 $467 reversed $159 $-1 #
coedge $-1 $268 $263 $260 $381 forward $269 $-1 #
edge $-1 $384 38.813493693275092 $468 45.887606976350682 $380 $469 forward 7 unknown #
coedge $-1 $262 $261 $387 $470 reversed $99 $-1 #
edge $-1 $471 -131.70567949461352 $384 -122.84792993936125 $378 $472 forward 7 unknown #
vertex $-1 $264 $473 #
straight-curve $-1 58.778726464231127 12.201367821586391 8.3123904944906499 0 -1 0 I I #
coedge $-1 $377 $265 $268 $391 reversed $258 $-1 #
coedge $-1 $265 $377 $382 $470 forward $258 $-1 #
vertex $-1 $266 $474 #
straight-curve $-1 65.852839747306746 28.943943723833023 93.714476497122277 0 0 1 I I #
straight-curve $-1 -39.331992015845188 28.943943723833023 82.24412123109262 0.79863550430605224 0 -0.6018150307709319 I I #
edge $-1 $468 19.861527562512542 $270 28.943943723833023 $386 $475 forward 7 unknown #
point $-1 65.852839747306746 28.943943723833023 8.3123904944906482 #
point $-1 58.778726464231156 28.943943723833023 8.3123904944906428 #
edge $-1 $476 1 $476 0 $273 $-1 forward 7 unknown #
vertex $-1 $274 $477 #
ellipse-curve $-1 61.483541994610668 22.456503608604109 4.5426058489320518 0.6018150307709319 0 0.79863550430605224 0.79863550430605224 0 -0.6018150307709319 1 I I #
point $-1 63.114418610074992 22.456503608604109 5.0452120531420501 #
edge $-1 $478 1 $478 0 $277 $-1 forward 7 unknown #
vertex $-1 $278 $479 #
ellipse-curve $-1 61.483541994610668 26.348967677741463 4.5426058489320518 0.6018150307709319 0 0.79863550430605224 0.79863550430605224 0 -0.6018150307709319 1 I I #
point $-1 63.114418610074992 26.348967677741463 5.0452120531420501 #
plane-surface $-1 65.852839747306746 0 0 -1 0 0 0 0 1 forward_v I I I I #
coedge $-1 $286 $284 $288 $407 reversed $181 $-1 #
edge $-1 $299 -8.3123904944906482 $409 8.3123904944906482 $298 $480 forward 7 unknown #
vertex $-1 $407 $481 #
straight-curve $-1 -65.852839747306746 -37.923212850237398 0 0 0 -1 I I #
edge $-1 $405 -37.923212850237398 $409 37.923212850237398 $403 $482 forward 7 unknown #
straight-curve $-1 0 -37.923212850237398 -8.3123904944906482 -1 0 0 I I #
vertex $-1 $291 $483 #
straight-curve $-1 0 37.923212850237398 -8.3123904944906482 1 0 0 I I #
point $-1 65.852839747306746 37.923212850237398 -8.3123904944906482 #
point $-1 65.852839747306746 -37.923212850237398 -8.3123904944906482 #
straight-curve $-1 -65.852839747306746 0 8.3123904944906482 0 -1 0 I I #
point $-1 -65.852839747306746 37.923212850237398 8.3123904944906482 #
point $-1 -65.852839747306746 -37.923212850237398 8.3123904944906482 #
straight-curve $-1 65.852839747306746 -37.923212850237398 0 0 0 -1 I I #
straight-curve $-1 65.852839747306746 37.923212850237398 0 0 0 -1 I I #
plane-surface $-1 0 -37.923212850237398 0 0 1 0 0 0 1 forward_v I I I I #
coedge $-1 $484 $311 $323 $430 reversed $200 $-1 #
coedge $-1 $311 $484 $326 $432 reversed $200 $-1 #
edge $-1 $485 -65.852839747306746 $320 -62.852839747306746 $316 $486 forward 7 unknown #
straight-curve $-1 -62.852839747306746 -16.716789143517605 8.3123904944906482 0 1 0 I I #
coedge $-1 $323 $314 $317 $426 forward $309 $-1 #
straight-curve $-1 -62.852839747306746 -16.716789143517605 -8.3123904944906482 0 -1 0 I I #
coedge $-1 $317 $316 $484 $487 forward $318 $-1 #
edge $-1 $319 62.852839747306746 $488 65.852839747306746 $317 $489 forward 7 unknown #
point $-1 -62.852839747306746 -37.923212850237398 -8.3123904944906482 #
point $-1 -62.852839747306746 -37.923212850237398 8.3123904944906482 #
straight-curve $-1 -65.852839747306746 -28.943943723833023 0 0 0 -1 I I #
edge $-1 $488 -37.923212850237398 $324 -28.943943723833023 $419 $490 forward 7 unknown #
point $-1 -65.852839747306746 -28.943943723833023 -8.3123904944906482 #
edge $-1 $327 28.943943723833023 $485 37.923212850237398 $420 $491 forward 7 unknown #
point $-1 -65.852839747306746 -28.943943723833023 8.3123904944906482 #
loop $-1 $-1 $440 $331 #
plane-surface $-1 0 37.923212850237398 0 0 -1 0 0 0 -1 forward_v I I I I #
coedge $-1 $447 $440 $334 $437 reversed $434 $-1 #
edge $-1 $451 -65.852839747306746 $438 -62.852839747306746 $436 $492 forward 7 unknown #
vertex $-1 $335 $493 #
straight-curve $-1 -62.852839747306746 16.716789143517605 -8.3123904944906482 0 -1 0 I I #
coedge $-1 $436 $494 $336 $441 forward $434 $-1 #
edge $-1 $443 -8.3123904944906482 $438 8.3123904944906482 $440 $495 forward 7 unknown #
coedge $-1 $344 $337 $494 $496 forward $332 $-1 #
vertex $-1 $496 $497 #
straight-curve $-1 -62.852839747306746 16.716789143517605 8.3123904944906482 0 1 0 I I #
point $-1 -62.852839747306746 28.943943723833023 8.3123904944906482 #
point $-1 -62.852839747306746 28.943943723833023 -8.3123904944906482 #
coedge $-1 $494 $436 $346 $448 reversed $434 $-1 #
edge $-1 $449 -8.3123904944906482 $451 8.3123904944906482 $447 $498 forward 7 unknown #
vertex $-1 $496 $499 #
straight-curve $-1 -65.852839747306746 0 8.3123904944906482 0 -1 0 I I #
vertex $-1 $437 $500 #
straight-curve $-1 -65.852839747306746 0 -8.3123904944906482 0 1 0 I I #
coedge $-1 $353 $352 $360 $458 forward $137 $-1 #
edge $-1 $461 -28.943943723833023 $356 -19.861527562512542 $355 $501 forward 7 unknown #
straight-curve $-1 -72.557648652532038 19.861527562512542 8.3123904944906499 1 0 0 I I #
point $-1 -65.852839747306746 19.861527562512542 8.3123904944906482 #
straight-curve $-1 -58.778726464231156 12.201367821586391 8.3123904944906482 0 1 0 I I #
edge $-1 $361 26.602306590577776 $461 33.676419873653373 $453 $502 forward 7 unknown #
point $-1 -58.778726464231148 28.943943723833023 8.3123904944906482 #
point $-1 -58.778726464231148 19.861527562512542 8.3123904944906482 #
vertex $-1 $454 $503 #
straight-curve $-1 -65.852839747306746 28.943943723833023 0 0 0 -1 I I #
vertex $-1 $368 $504 #
point $-1 -60.684906490304613 22.456503608604109 5.1444208797029729 #
vertex $-1 $372 $505 #
point $-1 -60.684906490304613 26.348967677741463 5.1444208797029729 #
edge $-1 $468 85.402086002631634 $471 90.732812823786972 $377 $506 forward 7 unknown #
vertex $-1 $391 $507 #
straight-curve $-1 19.965232770956064 19.861527562512542 8.3123904944906428 1 0 0 I I #
edge $-1 $471 7.6601597409261508 $388 16.742575902246632 $387 $508 forward 7 unknown #
vertex $-1 $470 $509 #
straight-curve $-1 -39.331992015845188 19.861527562512542 82.24412123109262 -0.79863550430605224 0 0.6018150307709319 I I #
point $-1 58.778726464231156 19.861527562512542 8.3123904944906428 #
point $-1 65.852839747306746 28.943943723833023 2.981663673335305 #
straight-curve $-1 65.852839747306746 0 8.3123904944906482 0 1 0 I I #
vertex $-1 $394 $510 #
point $-1 62.282177498916717 22.456503608604109 3.94079081816112 #
vertex $-1 $398 $511 #
point $-1 62.282177498916717 26.348967677741463 3.94079081816112 #
straight-curve $-1 -65.852839747306746 37.923212850237398 0 0 0 -1 I I #
point $-1 -65.852839747306746 -37.923212850237398 -8.3123904944906482 #
straight-curve $-1 -65.852839747306746 0 -8.3123904944906482 0 1 0 I I #
point $-1 -65.852839747306746 37.923212850237398 -8.3123904944906482 #
coedge $-1 $420 $419 $425 $487 reversed $200 $-1 #
vertex $-1 $432 $512 #
straight-curve $-1 0 -37.923212850237398 8.3123904944906482 1 0 0 I I #
edge $-1 $485 -8.3123904944906482 $488 8.3123904944906482 $484 $513 forward 7 unknown #
vertex $-1 $430 $514 #
straight-curve $-1 0 -37.923212850237398 -8.3123904944906482 -1 0 0 I I #
straight-curve $-1 -65.852839747306746 0 -8.3123904944906482 0 1 0 I I #
straight-curve $-1 -65.852839747306746 0 8.3123904944906482 0 -1 0 I I #
straight-curve $-1 0 37.923212850237398 -8.3123904944906482 1 0 0 I I #
point $-1 -62.852839747306746 37.923212850237398 -8.3123904944906482 #
coedge $-1 $440 $447 $442 $496 reversed $434 $-1 #
straight-curve $-1 -62.852839747306746 37.923212850237398 0 0 0 -1 I I #
edge $-1 $443 62.852839747306746 $449 65.852839747306746 $494 $515 forward 7 unknown #
point $-1 -62.852839747306746 37.923212850237398 8.3123904944906482 #
straight-curve $-1 -65.852839747306746 37.923212850237398 0 0 0 -1 I I #
point $-1 -65.852839747306746 37.923212850237398 8.3123904944906482 #
point $-1 -65.852839747306746 37.923212850237398 -8.3123904944906482 #
straight-curve $-1 -65.852839747306746 0 8.3123904944906482 0 -1 0 I I #
straight-curve $-1 -32.176419873653373 28.943943723833023 8.3123904944906482 -1 0 0 I I #
point $-1 -65.852839747306746 28.943943723833023 8.3123904944906482 #
point $-1 -60.881726963839732 22.456503608604109 3.7439703446259891 #
point $-1 -60.881726963839732 26.348967677741463 3.7439703446259891 #
straight-curve $-1 65.852839747306746 19.861527562512542 93.714476497122277 0 0 -1 I I #
point $-1 65.852839747306746 19.861527562512542 8.3123904944906482 #
straight-curve $-1 65.852839747306746 12.201367821586391 2.981663673335305 0 1 0 I I #
point $-1 65.852839747306746 19.861527562512542 2.981663673335305 #
point $-1 60.881726963839732 22.456503608604109 3.7439703446259998 #
point $-1 60.881726963839732 26.348967677741463 3.7439703446259998 #
point $-1 -65.852839747306746 -37.923212850237398 8.3123904944906482 #
straight-curve $-1 -65.852839747306746 -37.923212850237398 0 0 0 -1 I I #
point $-1 -65.852839747306746 -37.923212850237398 -8.3123904944906482 #
straight-curve $-1 0 37.923212850237398 8.3123904944906482 -1 0 0 I I #
End-of-ACIS-data 