500 0 20 0           
7 Unknown 11 ACIS 5.0 NT 24 Fri Mar 26 03:12:02 1999 
-1 9.9999999999999995e-007 1e-010 
body $-1 $20 $-1 $21 #
body $-1 $22 $-1 $23 #
body $-1 $24 $-1 $25 #
body $-1 $26 $-1 $27 #
body $-1 $28 $-1 $29 #
body $-1 $30 $-1 $31 #
body $-1 $32 $-1 $33 #
body $-1 $34 $-1 $35 #
body $-1 $36 $-1 $37 #
body $-1 $38 $-1 $39 #
body $-1 $40 $-1 $41 #
body $-1 $42 $-1 $43 #
body $-1 $44 $-1 $45 #
body $-1 $46 $-1 $47 #
body $-1 $48 $-1 $49 #
body $-1 $50 $-1 $51 #
body $-1 $52 $-1 $53 #
body $-1 $54 $-1 $55 #
body $-1 $56 $-1 $57 #
body $-1 $58 $-1 $59 #
lump $-1 $-1 $60 $0 #
transform $-1 1 0 0 0 1 0 0 0 1 72.662129581591245 45.033800089814598 18.873734748173373 1 rotate no_reflect no_shear #
lump $-1 $-1 $61 $1 #
transform $-1 1 0 0 0 1 0 0 0 1 72.662129581591245 45.033800089814598 18.873734748173373 1 rotate no_reflect no_shear #
lump $-1 $-1 $62 $2 #
transform $-1 1 0 0 0 1 0 0 0 1 72.662129581591245 45.033800089814598 18.873734748173373 1 rotate no_reflect no_shear #
lump $-1 $-1 $63 $3 #
transform $-1 1 0 0 0 1 0 0 0 1 72.662129581591245 45.033800089814598 18.873734748173373 1 rotate no_reflect no_shear #
lump $-1 $-1 $64 $4 #
transform $-1 1 0 0 0 1 0 0 0 1 72.662129581591245 45.033800089814598 18.873734748173373 1 rotate no_reflect no_shear #
lump $-1 $-1 $65 $5 #
transform $-1 1 0 0 0 1 0 0 0 1 72.662129581591245 45.033800089814598 18.873734748173373 1 rotate no_reflect no_shear #
lump $-1 $-1 $66 $6 #
transform $-1 1 0 0 0 1 0 0 0 1 72.662129581591245 45.033800089814598 18.873734748173373 1 rotate no_reflect no_shear #
lump $-1 $-1 $67 $7 #
transform $-1 1 0 0 0 1 0 0 0 1 72.662129581591245 45.033800089814598 18.873734748173373 1 rotate no_reflect no_shear #
lump $-1 $-1 $68 $8 #
transform $-1 1 0 0 0 1 0 0 0 1 72.662129581591245 45.033800089814598 18.873734748173373 1 rotate no_reflect no_shear #
lump $-1 $-1 $69 $9 #
transform $-1 1 0 0 0 1 0 0 0 1 72.662129581591245 45.033800089814598 18.873734748173373 1 rotate no_reflect no_shear #
lump $-1 $-1 $70 $10 #
transform $-1 1 0 0 0 1 0 0 0 1 72.662129581591245 45.033800089814598 18.873734748173373 1 rotate no_reflect no_shear #
lump $-1 $-1 $71 $11 #
transform $-1 1 0 0 0 1 0 0 0 1 72.662129581591245 45.033800089814598 18.873734748173373 1 rotate no_reflect no_shear #
lump $-1 $-1 $72 $12 #
transform $-1 1 0 0 0 1 0 0 0 1 72.662129581591245 45.033800089814598 18.873734748173373 1 rotate no_reflect no_shear #
lump $-1 $-1 $73 $13 #
transform $-1 1 0 0 0 1 0 0 0 1 72.662129581591245 45.033800089814598 18.873734748173373 1 rotate no_reflect no_shear #
lump $-1 $-1 $74 $14 #
transform $-1 1 0 0 0 1 0 0 0 1 72.662129581591245 45.033800089814598 18.873734748173373 1 rotate no_reflect no_shear #
lump $-1 $-1 $75 $15 #
transform $-1 1 0 0 0 1 0 0 0 1 72.662129581591245 45.033800089814598 18.873734748173373 1 rotate no_reflect no_shear #
lump $-1 $-1 $76 $16 #
transform $-1 1 0 0 0 1 0 0 0 1 72.662129581591245 45.033800089814598 18.873734748173373 1 rotate no_reflect no_shear #
lump $-1 $-1 $77 $17 #
transform $-1 1 0 0 0 1 0 0 0 1 72.662129581591245 45.033800089814598 18.873734748173373 1 rotate no_reflect no_shear #
lump $-1 $-1 $78 $18 #
transform $-1 1 0 0 0 1 0 0 0 1 72.662129581591245 45.033800089814598 18.873734748173373 1 rotate no_reflect no_shear #
lump $-1 $-1 $79 $19 #
transform $-1 1 0 0 0 1 0 0 0 1 72.662129581591245 45.033800089814598 18.873734748173373 1 rotate no_reflect no_shear #
shell $-1 $-1 $-1 $80 $-1 $20 #
shell $-1 $-1 $-1 $81 $-1 $22 #
shell $-1 $-1 $-1 $82 $-1 $24 #
shell $-1 $-1 $-1 $83 $-1 $26 #
shell $-1 $-1 $-1 $84 $-1 $28 #
shell $-1 $-1 $-1 $85 $-1 $30 #
shell $-1 $-1 $-1 $86 $-1 $32 #
shell $-1 $-1 $-1 $87 $-1 $34 #
shell $-1 $-1 $-1 $88 $-1 $36 #
shell $-1 $-1 $-1 $89 $-1 $38 #
shell $-1 $-1 $-1 $90 $-1 $40 #
shell $-1 $-1 $-1 $91 $-1 $42 #
shell $-1 $-1 $-1 $92 $-1 $44 #
shell $-1 $-1 $-1 $93 $-1 $46 #
shell $-1 $-1 $-1 $94 $-1 $48 #
shell $-1 $-1 $-1 $95 $-1 $50 #
shell $-1 $-1 $-1 $96 $-1 $52 #
shell $-1 $-1 $-1 $97 $-1 $54 #
shell $-1 $-1 $-1 $98 $-1 $56 #
shell $-1 $-1 $-1 $99 $-1 $58 #
face $-1 $100 $101 $60 $-1 $102 forward single #
face $-1 $103 $104 $61 $-1 $105 reversed single #
face $-1 $106 $107 $62 $-1 $108 forward single #
face $-1 $109 $110 $63 $-1 $111 forward single #
face $-1 $112 $113 $64 $-1 $114 reversed single #
face $-1 $115 $116 $65 $-1 $117 forward single #
face $-1 $118 $119 $66 $-1 $120 forward single #
face $-1 $121 $122 $67 $-1 $123 forward single #
face $-1 $124 $125 $68 $-1 $126 reversed single #
face $-1 $127 $128 $69 $-1 $129 forward single #
face $-1 $130 $131 $70 $-1 $132 forward single #
face $-1 $133 $134 $71 $-1 $135 forward single #
face $-1 $136 $137 $72 $-1 $138 reversed single #
face $-1 $139 $140 $73 $-1 $141 forward single #
face $-1 $142 $143 $74 $-1 $144 forward single #
face $-1 $145 $146 $75 $-1 $147 forward single #
face $-1 $148 $149 $76 $-1 $150 reversed single #
face $-1 $151 $152 $77 $-1 $153 forward single #
face $-1 $154 $155 $78 $-1 $156 forward single #
face $-1 $157 $158 $79 $-1 $159 forward single #
face $-1 $160 $161 $60 $-1 $162 reversed single #
loop $-1 $-1 $163 $80 #
plane-surface $-1 0 0 18.873734748173373 0 0 1 1 0 0 forward_v I I I I #
face $-1 $164 $165 $61 $-1 $166 reversed single #
loop $-1 $-1 $167 $81 #
plane-surface $-1 -12.206502411013286 -128.38837185025429 127.77329000399928 -1 0 0 0 -0.57357644374324357 0.81915203911291934 forward_v I I I I #
face $-1 $168 $169 $62 $-1 $170 forward single #
loop $-1 $171 $172 $82 #
cone-surface $-1 -27.781552225412511 -36.693614768515708 12.235137187376143 0 0.57357644374324357 -0.81915203911291934 1.5 0 0 1 I I 0 1 1.5 forward I I I I #
face $-1 $173 $174 $63 $-1 $175 forward single #
loop $-1 $176 $177 $83 #
cone-surface $-1 -18.436522336772981 -36.693614768515708 12.235137187376143 0 0.57357644374324357 -0.81915203911291934 1.5 0 0 1 I I 0 1 1.5 forward I I I I #
face $-1 $178 $179 $64 $-1 $180 reversed single #
loop $-1 $-1 $181 $84 #
plane-surface $-1 -66.187624807783038 98.464305936210536 162.40938599627339 1 0 0 0 -0.7660444514056185 -0.64278759981090561 forward_v I I I I #
face $-1 $182 $183 $65 $-1 $184 forward single #
loop $-1 $185 $186 $85 #
cone-surface $-1 -61.132742628113341 34.230402845739654 7.0162708514048919 0 -0.7660444514056185 -0.64278759981090561 2 0 0 1 I I 0 1 2 forward I I I I #
face $-1 $187 $188 $66 $-1 $189 forward single #
loop $-1 $190 $191 $86 #
cone-surface $-1 -53.550419358608778 34.230402845739654 7.0162708514048919 0 -0.7660444514056185 -0.64278759981090561 2 0 0 1 I I 0 1 2 forward I I I I #
face $-1 $192 $193 $67 $-1 $194 forward single #
loop $-1 $195 $196 $87 #
cone-surface $-1 -45.968096089104222 34.230402845739654 7.0162708514048919 0 -0.7660444514056185 -0.64278759981090561 2 0 0 1 I I 0 1 2 forward I I I I #
face $-1 $197 $198 $68 $-1 $199 reversed single #
loop $-1 $-1 $200 $88 #
plane-surface $-1 -29.856560016987419 98.464305936210536 162.40938599627339 1 0 0 0 -0.7660444514056185 -0.64278759981090561 forward_v I I I I #
face $-1 $201 $202 $69 $-1 $203 forward single #
loop $-1 $204 $205 $89 #
cone-surface $-1 -24.801677837317719 34.230402845739654 7.0162708514048919 0 -0.7660444514056185 -0.64278759981090561 2 0 0 1 I I 0 1 2 forward I I I I #
face $-1 $206 $207 $70 $-1 $208 forward single #
loop $-1 $209 $210 $90 #
cone-surface $-1 -17.219354567813156 34.230402845739654 7.0162708514048919 0 -0.7660444514056185 -0.64278759981090561 2 0 0 1 I I 0 1 2 forward I I I I #
face $-1 $211 $212 $71 $-1 $213 forward single #
loop $-1 $214 $215 $91 #
cone-surface $-1 -9.6370312983085995 34.230402845739654 7.0162708514048919 0 -0.7660444514056185 -0.64278759981090561 2 0 0 1 I I 0 1 2 forward I I I I #
face $-1 $216 $217 $72 $-1 $218 reversed single #
loop $-1 $-1 $219 $92 #
plane-surface $-1 6.4745047738082029 98.464305936210536 162.40938599627339 1 0 0 0 -0.7660444514056185 -0.64278759981090561 forward_v I I I I #
face $-1 $220 $221 $73 $-1 $222 forward single #
loop $-1 $223 $224 $93 #
cone-surface $-1 11.529386953477911 34.230402845739654 7.0162708514048919 0 -0.7660444514056185 -0.64278759981090561 2 0 0 1 I I 0 1 2 forward I I I I #
face $-1 $225 $226 $74 $-1 $227 forward single #
loop $-1 $228 $229 $94 #
cone-surface $-1 19.111710222982467 34.230402845739654 7.0162708514048919 0 -0.7660444514056185 -0.64278759981090561 2 0 0 1 I I 0 1 2 forward I I I I #
face $-1 $230 $231 $75 $-1 $232 forward single #
loop $-1 $233 $234 $95 #
cone-surface $-1 26.694033492487023 34.230402845739654 7.0162708514048919 0 -0.7660444514056185 -0.64278759981090561 2 0 0 1 I I 0 1 2 forward I I I I #
face $-1 $235 $236 $76 $-1 $237 reversed single #
loop $-1 $-1 $238 $96 #
plane-surface $-1 42.805569564603829 98.464305936210536 162.40938599627339 1 0 0 0 -0.7660444514056185 -0.64278759981090561 forward_v I I I I #
face $-1 $239 $240 $77 $-1 $241 forward single #
loop $-1 $242 $243 $97 #
cone-surface $-1 47.860451744273533 34.230402845739654 7.0162708514048919 0 -0.7660444514056185 -0.64278759981090561 2 0 0 1 I I 0 1 2 forward I I I I #
face $-1 $244 $245 $78 $-1 $246 forward single #
loop $-1 $247 $248 $98 #
cone-surface $-1 55.442775013778089 34.230402845739654 7.0162708514048919 0 -0.7660444514056185 -0.64278759981090561 2 0 0 1 I I 0 1 2 forward I I I I #
face $-1 $249 $250 $79 $-1 $251 forward single #
loop $-1 $252 $253 $99 #
cone-surface $-1 63.025098283282631 34.230402845739654 7.0162708514048919 0 -0.7660444514056185 -0.64278759981090561 2 0 0 1 I I 0 1 2 forward I I I I #
face $-1 $254 $255 $60 $-1 $256 reversed single #
loop $-1 $-1 $257 $100 #
plane-surface $-1 0 0 -18.873734748173373 0 0 1 1 0 0 forward_v I I I I #
coedge $-1 $258 $259 $260 $261 forward $101 $-1 #
face $-1 $262 $263 $61 $-1 $264 reversed single #
loop $-1 $-1 $265 $103 #
plane-surface $-1 -23.109037281092739 -45.033800089814591 8.7306267779039928 0 -0.57357644374324357 0.81915203911291934 1 0 0 forward_v I I I I #
coedge $-1 $266 $267 $268 $269 reversed $104 $-1 #
face $-1 $-1 $270 $62 $-1 $271 forward single #
loop $-1 $272 $273 $106 #
cone-surface $-1 -27.781552225412511 -35.166176690251575 10.053729582378907 0 0.57357644374324357 -0.81915203911291934 0.75 0 0 1 I I -0.70710678118654757 0.70710678118654757 0.75 forward I I I I #
loop $-1 $-1 $274 $82 #
coedge $-1 $172 $172 $275 $276 reversed $107 $-1 #
face $-1 $-1 $277 $63 $-1 $278 forward single #
loop $-1 $279 $280 $109 #
cone-surface $-1 -18.436522336772981 -35.166176690251575 10.053729582378907 0 0.57357644374324357 -0.81915203911291934 0.75 0 0 1 I I -0.70710678118654757 0.70710678118654757 0.75 forward I I I I #
loop $-1 $-1 $281 $83 #
coedge $-1 $177 $177 $282 $283 reversed $110 $-1 #
face $-1 $284 $285 $64 $-1 $286 reversed single #
loop $-1 $-1 $287 $112 #
plane-surface $-1 -53.550419358608778 -12.860536450377523 68.996754254473302 0 0.7660444514056185 0.64278759981090561 1 0 0 forward_v I I I I #
coedge $-1 $288 $289 $290 $291 reversed $113 $-1 #
face $-1 $-1 $292 $65 $-1 $293 forward single #
loop $-1 $294 $295 $115 #
cone-surface $-1 -61.132742628113341 30.579026380308385 3.9524022861878656 0 -0.7660444514056185 -0.64278759981090561 1 0 0 1 I I -0.70710678118654746 0.70710678118654746 1 forward I I I I #
loop $-1 $-1 $296 $85 #
coedge $-1 $186 $186 $297 $298 reversed $116 $-1 #
face $-1 $-1 $299 $66 $-1 $300 forward single #
loop $-1 $301 $302 $118 #
cone-surface $-1 -53.550419358608778 30.579026380308385 3.9524022861878656 0 -0.7660444514056185 -0.64278759981090561 1 0 0 1 I I -0.70710678118654746 0.70710678118654746 1 forward I I I I #
loop $-1 $-1 $303 $86 #
coedge $-1 $191 $191 $304 $305 reversed $119 $-1 #
face $-1 $-1 $306 $67 $-1 $307 forward single #
loop $-1 $308 $309 $121 #
cone-surface $-1 -45.968096089104222 30.579026380308385 3.9524022861878656 0 -0.7660444514056185 -0.64278759981090561 1 0 0 1 I I -0.70710678118654746 0.70710678118654746 1 forward I I I I #
loop $-1 $-1 $310 $87 #
coedge $-1 $196 $196 $311 $312 reversed $122 $-1 #
face $-1 $313 $314 $68 $-1 $315 reversed single #
loop $-1 $-1 $316 $124 #
plane-surface $-1 -17.219354567813156 -12.860536450377523 68.996754254473302 0 0.7660444514056185 0.64278759981090561 1 0 0 forward_v I I I I #
coedge $-1 $317 $318 $319 $320 reversed $125 $-1 #
face $-1 $-1 $321 $69 $-1 $322 forward single #
loop $-1 $323 $324 $127 #
cone-surface $-1 -24.801677837317719 30.579026380308385 3.9524022861878656 0 -0.7660444514056185 -0.64278759981090561 1 0 0 1 I I -0.70710678118654746 0.70710678118654746 1 forward I I I I #
loop $-1 $-1 $325 $89 #
coedge $-1 $205 $205 $326 $327 reversed $128 $-1 #
face $-1 $-1 $328 $70 $-1 $329 forward single #
loop $-1 $330 $331 $130 #
cone-surface $-1 -17.219354567813156 30.579026380308385 3.9524022861878656 0 -0.7660444514056185 -0.64278759981090561 1 0 0 1 I I -0.70710678118654746 0.70710678118654746 1 forward I I I I #
loop $-1 $-1 $332 $90 #
coedge $-1 $210 $210 $333 $334 reversed $131 $-1 #
face $-1 $-1 $335 $71 $-1 $336 forward single #
loop $-1 $337 $338 $133 #
cone-surface $-1 -9.6370312983085995 30.579026380308385 3.9524022861878656 0 -0.7660444514056185 -0.64278759981090561 1 0 0 1 I I -0.70710678118654746 0.70710678118654746 1 forward I I I I #
loop $-1 $-1 $339 $91 #
coedge $-1 $215 $215 $340 $341 reversed $134 $-1 #
face $-1 $342 $343 $72 $-1 $344 reversed single #
loop $-1 $-1 $345 $136 #
plane-surface $-1 19.111710222982467 -12.860536450377523 68.996754254473302 0 0.7660444514056185 0.64278759981090561 1 0 0 forward_v I I I I #
coedge $-1 $346 $347 $348 $349 reversed $137 $-1 #
face $-1 $-1 $350 $73 $-1 $351 forward single #
loop $-1 $352 $353 $139 #
cone-surface $-1 11.529386953477911 30.579026380308385 3.9524022861878656 0 -0.7660444514056185 -0.64278759981090561 1 0 0 1 I I -0.70710678118654746 0.70710678118654746 1 forward I I I I #
loop $-1 $-1 $354 $93 #
coedge $-1 $224 $224 $355 $356 reversed $140 $-1 #
face $-1 $-1 $357 $74 $-1 $358 forward single #
loop $-1 $359 $360 $142 #
cone-surface $-1 19.111710222982467 30.579026380308385 3.9524022861878656 0 -0.7660444514056185 -0.64278759981090561 1 0 0 1 I I -0.70710678118654746 0.70710678118654746 1 forward I I I I #
loop $-1 $-1 $361 $94 #
coedge $-1 $229 $229 $362 $363 reversed $143 $-1 #
face $-1 $-1 $364 $75 $-1 $365 forward single #
loop $-1 $366 $367 $145 #
cone-surface $-1 26.694033492487023 30.579026380308385 3.9524022861878656 0 -0.7660444514056185 -0.64278759981090561 1 0 0 1 I I -0.70710678118654746 0.70710678118654746 1 forward I I I I #
loop $-1 $-1 $368 $95 #
coedge $-1 $234 $234 $369 $370 reversed $146 $-1 #
face $-1 $371 $372 $76 $-1 $373 reversed single #
loop $-1 $-1 $374 $148 #
plane-surface $-1 55.442775013778089 -12.860536450377523 68.996754254473302 0 0.7660444514056185 0.64278759981090561 1 0 0 forward_v I I I I #
coedge $-1 $375 $376 $377 $378 reversed $149 $-1 #
face $-1 $-1 $379 $77 $-1 $380 forward single #
loop $-1 $381 $382 $151 #
cone-surface $-1 47.860451744273533 30.579026380308385 3.9524022861878656 0 -0.7660444514056185 -0.64278759981090561 1 0 0 1 I I -0.70710678118654746 0.70710678118654746 1 forward I I I I #
loop $-1 $-1 $383 $97 #
coedge $-1 $243 $243 $384 $385 reversed $152 $-1 #
face $-1 $-1 $386 $78 $-1 $387 forward single #
loop $-1 $388 $389 $154 #
cone-surface $-1 55.442775013778089 30.579026380308385 3.9524022861878656 0 -0.7660444514056185 -0.64278759981090561 1 0 0 1 I I -0.70710678118654746 0.70710678118654746 1 forward I I I I #
loop $-1 $-1 $390 $98 #
coedge $-1 $248 $248 $391 $392 reversed $155 $-1 #
face $-1 $-1 $393 $79 $-1 $394 forward single #
loop $-1 $395 $396 $157 #
cone-surface $-1 63.025098283282631 30.579026380308385 3.9524022861878656 0 -0.7660444514056185 -0.64278759981090561 1 0 0 1 I I -0.70710678118654746 0.70710678118654746 1 forward I I I I #
loop $-1 $-1 $397 $99 #
coedge $-1 $253 $253 $398 $399 reversed $158 $-1 #
face $-1 $400 $401 $60 $-1 $402 reversed single #
loop $-1 $-1 $403 $160 #
plane-surface $-1 0 -45.033800089814598 0 0 1 0 0 0 1 forward_v I I I I #
coedge $-1 $404 $405 $406 $407 forward $161 $-1 #
coedge $-1 $408 $163 $409 $410 forward $101 $-1 #
coedge $-1 $163 $408 $411 $412 forward $101 $-1 #
coedge $-1 $413 $414 $163 $261 reversed $415 $-1 #
edge $-1 $416 -45.033800089814598 $417 45.033800089814598 $260 $418 forward 7 unknown #
face $-1 $419 $420 $61 $-1 $421 reversed single #
loop $-1 $-1 $422 $164 #
plane-surface $-1 -34.011572151172189 -128.38837185025429 127.77329000399928 1 0 0 0 0.57357644374324357 -0.81915203911291934 forward_v I I I I #
coedge $-1 $423 $424 $425 $426 reversed $165 $-1 #
coedge $-1 $267 $167 $427 $428 reversed $104 $-1 #
coedge $-1 $167 $266 $423 $429 reversed $104 $-1 #
coedge $-1 $425 $430 $167 $269 forward $431 $-1 #
edge $-1 $432 19.160385835312546 $433 33.646244986996969 $268 $434 forward 7 unknown #
loop $-1 $-1 $275 $168 #
plane-surface $-1 -23.109037281092739 -45.033800089814591 8.7306267779039928 0 -0.57357644374324357 0.81915203911291934 1 0 0 forward_v I I I I #
loop $-1 $-1 $435 $106 #
coedge $-1 $273 $273 $274 $436 reversed $169 $-1 #
coedge $-1 $274 $274 $273 $436 forward $171 $-1 #
coedge $-1 $275 $275 $172 $276 forward $270 $-1 #
edge $-1 $437 1.5537241342332575e-015 $437 6.2831853071796022 $275 $438 forward 7 unknown #
loop $-1 $-1 $282 $173 #
plane-surface $-1 -23.109037281092739 -45.033800089814591 8.7306267779039928 0 -0.57357644374324357 0.81915203911291934 1 0 0 forward_v I I I I #
loop $-1 $-1 $439 $109 #
coedge $-1 $280 $280 $281 $440 reversed $174 $-1 #
coedge $-1 $281 $281 $280 $440 forward $176 $-1 #
coedge $-1 $282 $282 $177 $283 forward $277 $-1 #
edge $-1 $441 1.5537241342332575e-015 $441 6.2831853071796022 $282 $442 forward 7 unknown #
face $-1 $443 $444 $64 $-1 $445 reversed single #
loop $-1 $-1 $446 $178 #
plane-surface $-1 -40.913213909434518 98.464305936210536 162.40938599627339 -1 0 0 0 0.7660444514056185 0.64278759981090561 forward_v I I I I #
coedge $-1 $447 $448 $449 $450 reversed $179 $-1 #
coedge $-1 $289 $181 $451 $452 reversed $113 $-1 #
coedge $-1 $181 $288 $447 $453 reversed $113 $-1 #
coedge $-1 $449 $454 $181 $291 forward $455 $-1 #
edge $-1 $456 4.1983528782906703 $457 20.034483338389208 $290 $458 forward 7 unknown #
loop $-1 $-1 $297 $182 #
plane-surface $-1 -53.550419358608778 -12.860536450377523 68.996754254473302 0 0.7660444514056185 0.64278759981090561 1 0 0 forward_v I I I I #
loop $-1 $-1 $459 $115 #
coedge $-1 $295 $295 $296 $460 reversed $183 $-1 #
coedge $-1 $296 $296 $295 $460 forward $185 $-1 #
coedge $-1 $297 $297 $186 $298 forward $292 $-1 #
edge $-1 $461 6.3330475772976726e-016 $461 6.2831853071796013 $297 $462 forward 7 unknown #
loop $-1 $-1 $304 $187 #
plane-surface $-1 -53.550419358608778 -12.860536450377523 68.996754254473302 0 0.7660444514056185 0.64278759981090561 1 0 0 forward_v I I I I #
loop $-1 $-1 $463 $118 #
coedge $-1 $302 $302 $303 $464 reversed $188 $-1 #
coedge $-1 $303 $303 $302 $464 forward $190 $-1 #
coedge $-1 $304 $304 $191 $305 forward $299 $-1 #
edge $-1 $465 6.3330475772976726e-016 $465 6.2831853071796013 $304 $466 forward 7 unknown #
loop $-1 $-1 $311 $192 #
plane-surface $-1 -53.550419358608778 -12.860536450377523 68.996754254473302 0 0.7660444514056185 0.64278759981090561 1 0 0 forward_v I I I I #
loop $-1 $-1 $467 $121 #
coedge $-1 $309 $309 $310 $468 reversed $193 $-1 #
coedge $-1 $310 $310 $309 $468 forward $195 $-1 #
coedge $-1 $311 $311 $196 $312 forward $306 $-1 #
edge $-1 $469 6.3330475772976726e-016 $469 6.2831853071796013 $311 $470 forward 7 unknown #
face $-1 $471 $472 $68 $-1 $473 forward single #
loop $-1 $-1 $474 $197 #
plane-surface $-1 -4.5821491186388918 98.464305936210536 162.40938599627339 -1 0 0 0 0.7660444514056185 0.64278759981090561 forward_v I I I I #
coedge $-1 $475 $476 $477 $478 reversed $198 $-1 #
coedge $-1 $318 $200 $479 $480 reversed $125 $-1 #
coedge $-1 $200 $317 $475 $481 reversed $125 $-1 #
coedge $-1 $477 $482 $200 $320 forward $472 $-1 #
edge $-1 $483 4.1983528782906703 $484 20.034483338389208 $319 $485 forward 7 unknown #
loop $-1 $-1 $326 $201 #
plane-surface $-1 -17.219354567813156 -12.860536450377523 68.996754254473302 0 0.7660444514056185 0.64278759981090561 1 0 0 forward_v I I I I #
loop $-1 $-1 $486 $127 #
coedge $-1 $324 $324 $325 $487 reversed $202 $-1 #
coedge $-1 $325 $325 $324 $487 forward $204 $-1 #
coedge $-1 $326 $326 $205 $327 forward $321 $-1 #
edge $-1 $488 6.3330475772976726e-016 $488 6.2831853071796013 $326 $489 forward 7 unknown #
loop $-1 $-1 $333 $206 #
plane-surface $-1 -17.219354567813156 -12.860536450377523 68.996754254473302 0 0.7660444514056185 0.64278759981090561 1 0 0 forward_v I I I I #
loop $-1 $-1 $490 $130 #
coedge $-1 $331 $331 $332 $491 reversed $207 $-1 #
coedge $-1 $332 $332 $331 $491 forward $209 $-1 #
coedge $-1 $333 $333 $210 $334 forward $328 $-1 #
edge $-1 $492 6.3330475772976726e-016 $492 6.2831853071796013 $333 $493 forward 7 unknown #
loop $-1 $-1 $340 $211 #
plane-surface $-1 -17.219354567813156 -12.860536450377523 68.996754254473302 0 0.7660444514056185 0.64278759981090561 1 0 0 forward_v I I I I #
loop $-1 $-1 $494 $133 #
coedge $-1 $338 $338 $339 $495 reversed $212 $-1 #
coedge $-1 $339 $339 $338 $495 forward $214 $-1 #
coedge $-1 $340 $340 $215 $341 forward $335 $-1 #
edge $-1 $496 6.3330475772976726e-016 $496 6.2831853071796013 $340 $497 forward 7 unknown #
face $-1 $498 $499 $72 $-1 $500 forward single #
loop $-1 $-1 $501 $216 #
plane-surface $-1 31.74891567215673 98.464305936210536 162.40938599627339 -1 0 0 0 0.7660444514056185 0.64278759981090561 forward_v I I I I #
coedge $-1 $502 $503 $504 $505 reversed $217 $-1 #
coedge $-1 $347 $219 $506 $507 reversed $137 $-1 #
coedge $-1 $219 $346 $502 $508 reversed $137 $-1 #
coedge $-1 $504 $509 $219 $349 forward $499 $-1 #
edge $-1 $510 4.1983528782906703 $511 20.034483338389208 $348 $512 forward 7 unknown #
loop $-1 $-1 $355 $220 #
plane-surface $-1 19.111710222982467 -12.860536450377523 68.996754254473302 0 0.7660444514056185 0.64278759981090561 1 0 0 forward_v I I I I #
loop $-1 $-1 $513 $139 #
coedge $-1 $353 $353 $354 $514 reversed $221 $-1 #
coedge $-1 $354 $354 $353 $514 forward $223 $-1 #
coedge $-1 $355 $355 $224 $356 forward $350 $-1 #
edge $-1 $515 6.3330475772976726e-016 $515 6.2831853071796013 $355 $516 forward 7 unknown #
loop $-1 $-1 $362 $225 #
plane-surface $-1 19.111710222982467 -12.860536450377523 68.996754254473302 0 0.7660444514056185 0.64278759981090561 1 0 0 forward_v I I I I #
loop $-1 $-1 $517 $142 #
coedge $-1 $360 $360 $361 $518 reversed $226 $-1 #
coedge $-1 $361 $361 $360 $518 forward $228 $-1 #
coedge $-1 $362 $362 $229 $363 forward $357 $-1 #
edge $-1 $519 6.3330475772976726e-016 $519 6.2831853071796013 $362 $520 forward 7 unknown #
loop $-1 $-1 $369 $230 #
plane-surface $-1 19.111710222982467 -12.860536450377523 68.996754254473302 0 0.7660444514056185 0.64278759981090561 1 0 0 forward_v I I I I #
loop $-1 $-1 $521 $145 #
coedge $-1 $367 $367 $368 $522 reversed $231 $-1 #
coedge $-1 $368 $368 $367 $522 forward $233 $-1 #
coedge $-1 $369 $369 $234 $370 forward $364 $-1 #
edge $-1 $523 6.3330475772976726e-016 $523 6.2831853071796013 $369 $524 forward 7 unknown #
face $-1 $525 $526 $76 $-1 $527 forward single #
loop $-1 $-1 $528 $235 #
plane-surface $-1 68.079980462952349 98.464305936210536 162.40938599627339 -1 0 0 0 0.7660444514056185 0.64278759981090561 forward_v I I I I #
coedge $-1 $529 $530 $531 $532 reversed $236 $-1 #
coedge $-1 $376 $238 $533 $534 reversed $149 $-1 #
coedge $-1 $238 $375 $529 $535 reversed $149 $-1 #
coedge $-1 $531 $536 $238 $378 forward $526 $-1 #
edge $-1 $537 4.1983528782906703 $538 20.034483338389208 $377 $539 forward 7 unknown #
loop $-1 $-1 $384 $239 #
plane-surface $-1 55.442775013778089 -12.860536450377523 68.996754254473302 0 0.7660444514056185 0.64278759981090561 1 0 0 forward_v I I I I #
loop $-1 $-1 $540 $151 #
coedge $-1 $382 $382 $383 $541 reversed $240 $-1 #
coedge $-1 $383 $383 $382 $541 forward $242 $-1 #
coedge $-1 $384 $384 $243 $385 forward $379 $-1 #
edge $-1 $542 6.3330475772976726e-016 $542 6.2831853071796013 $384 $543 forward 7 unknown #
loop $-1 $-1 $391 $244 #
plane-surface $-1 55.442775013778089 -12.860536450377523 68.996754254473302 0 0.7660444514056185 0.64278759981090561 1 0 0 forward_v I I I I #
loop $-1 $-1 $544 $154 #
coedge $-1 $389 $389 $390 $545 reversed $245 $-1 #
coedge $-1 $390 $390 $389 $545 forward $247 $-1 #
coedge $-1 $391 $391 $248 $392 forward $386 $-1 #
edge $-1 $546 6.3330475772976726e-016 $546 6.2831853071796013 $391 $547 forward 7 unknown #
loop $-1 $-1 $398 $249 #
plane-surface $-1 55.442775013778089 -12.860536450377523 68.996754254473302 0 0.7660444514056185 0.64278759981090561 1 0 0 forward_v I I I I #
loop $-1 $-1 $548 $157 #
coedge $-1 $396 $396 $397 $549 reversed $250 $-1 #
coedge $-1 $397 $397 $396 $549 forward $252 $-1 #
coedge $-1 $398 $398 $253 $399 forward $393 $-1 #
edge $-1 $550 6.3330475772976726e-016 $550 6.2831853071796013 $398 $551 forward 7 unknown #
face $-1 $552 $553 $60 $-1 $554 reversed single #
loop $-1 $-1 $555 $254 #
plane-surface $-1 -72.662129581591245 0 0 1 0 0 0 0 -1 forward_v I I I I #
coedge $-1 $556 $411 $557 $558 forward $255 $-1 #
coedge $-1 $559 $257 $556 $560 forward $161 $-1 #
coedge $-1 $257 $559 $561 $562 forward $161 $-1 #
coedge $-1 $414 $413 $257 $407 reversed $415 $-1 #
edge $-1 $563 -45.033800089814598 $564 45.033800089814598 $406 $565 forward 7 unknown #
coedge $-1 $259 $258 $566 $567 forward $101 $-1 #
coedge $-1 $568 $569 $258 $410 reversed $553 $-1 #
edge $-1 $417 -72.662129581591245 $570 72.662129581591245 $409 $571 forward 7 unknown #
coedge $-1 $403 $572 $259 $412 reversed $255 $-1 #
edge $-1 $573 -72.662129581591245 $416 72.662129581591245 $411 $574 forward 7 unknown #
coedge $-1 $406 $260 $572 $575 forward $415 $-1 #
coedge $-1 $260 $406 $568 $576 reversed $415 $-1 #
loop $-1 $-1 $413 $552 #
vertex $-1 $261 $577 #
vertex $-1 $261 $578 #
straight-curve $-1 72.662129581591245 0 18.873734748173373 0 1 0 I I #
face $-1 $-1 $431 $61 $-1 $579 forward single #
loop $-1 $-1 $580 $262 #
plane-surface $-1 0 -45.033800089814598 0 0 1 0 0 0 1 forward_v I I I I #
coedge $-1 $581 $582 $583 $584 reversed $263 $-1 #
coedge $-1 $585 $265 $267 $429 forward $165 $-1 #
coedge $-1 $265 $585 $581 $586 forward $165 $-1 #
coedge $-1 $583 $268 $265 $426 forward $431 $-1 #
edge $-1 $433 0.65198377046691647 $587 22.457053510625819 $425 $588 forward 7 unknown #
coedge $-1 $589 $590 $266 $428 forward $420 $-1 #
edge $-1 $591 -55.156018224095654 $432 -45.012910253826263 $427 $592 forward 7 unknown #
edge $-1 $433 -17.683968860495693 $591 8.8770546250341341e-015 $267 $593 forward 7 unknown #
coedge $-1 $268 $583 $589 $594 forward $431 $-1 #
loop $-1 $-1 $583 $419 #
vertex $-1 $428 $595 #
vertex $-1 $269 $596 #
straight-curve $-1 -12.206502411013286 -64.194185925127144 18.873734748173376 0 1 0 I I #
coedge $-1 $435 $435 $-1 $597 reversed $272 $-1 #
edge $-1 $598 0 $598 6.2831853071796004 $273 $599 forward 7 unknown #
vertex $-1 $276 $600 #
ellipse-curve $-1 -27.781552225412511 -37.790870513972393 13.802180763038674 0 -0.57357644374324357 0.81915203911291934 1.5 0 0 1 I I #
coedge $-1 $439 $439 $-1 $601 reversed $279 $-1 #
edge $-1 $602 0 $602 6.2831853071796004 $280 $603 forward 7 unknown #
vertex $-1 $283 $604 #
ellipse-curve $-1 -18.436522336772981 -37.790870513972393 13.802180763038674 0 -0.57357644374324357 0.81915203911291934 1.5 0 0 1 I I #
face $-1 $-1 $455 $64 $-1 $605 forward single #
loop $-1 $-1 $606 $284 #
plane-surface $-1 0 45.033800089814598 0 0 -1 0 0 0 -1 forward_v I I I I #
coedge $-1 $607 $608 $609 $610 reversed $285 $-1 #
coedge $-1 $611 $287 $289 $453 forward $179 $-1 #
coedge $-1 $287 $611 $607 $612 forward $179 $-1 #
coedge $-1 $609 $290 $287 $450 forward $455 $-1 #
edge $-1 $457 -39.412415128478649 $613 -14.138004230130129 $449 $614 forward 7 unknown #
coedge $-1 $615 $616 $288 $452 forward $444 $-1 #
edge $-1 $617 -81.203724112688008 $456 -62.330958249963317 $451 $618 forward 7 unknown #
edge $-1 $457 65.430954319072455 $617 90.067600179629196 $289 $619 forward 7 unknown #
coedge $-1 $290 $609 $615 $620 forward $455 $-1 #
loop $-1 $-1 $609 $443 #
vertex $-1 $452 $621 #
vertex $-1 $291 $622 #
straight-curve $-1 -66.187624807783038 49.232152968105268 18.873734748173376 0 -1 0 I I #
coedge $-1 $459 $459 $-1 $623 reversed $294 $-1 #
edge $-1 $624 0 $624 6.2831853071796004 $295 $625 forward 7 unknown #
vertex $-1 $298 $626 #
ellipse-curve $-1 -61.132742628113341 37.115734859765332 9.4373518168110309 0 0.7660444514056185 0.64278759981090561 2 0 0 1 I I #
coedge $-1 $463 $463 $-1 $627 reversed $301 $-1 #
edge $-1 $628 0 $628 6.2831853071796004 $302 $629 forward 7 unknown #
vertex $-1 $305 $630 #
ellipse-curve $-1 -53.550419358608778 37.115734859765332 9.4373518168110309 0 0.7660444514056185 0.64278759981090561 2 0 0 1 I I #
coedge $-1 $467 $467 $-1 $631 reversed $308 $-1 #
edge $-1 $632 0 $632 6.2831853071796004 $309 $633 forward 7 unknown #
vertex $-1 $312 $634 #
ellipse-curve $-1 -45.968096089104222 37.115734859765332 9.4373518168110309 0 0.7660444514056185 0.64278759981090561 2 0 0 1 I I #
face $-1 $-1 $635 $68 $-1 $636 reversed single #
loop $-1 $-1 $319 $313 #
plane-surface $-1 0 0 18.873734748173373 0 0 1 1 0 0 forward_v I I I I #
coedge $-1 $637 $638 $639 $640 reversed $314 $-1 #
coedge $-1 $641 $316 $318 $481 forward $198 $-1 #
coedge $-1 $316 $641 $637 $642 forward $198 $-1 #
coedge $-1 $639 $319 $316 $478 forward $472 $-1 #
edge $-1 $484 -21.246882733080842 $643 4.027528165267686 $477 $644 forward 7 unknown #
coedge $-1 $645 $646 $317 $480 forward $635 $-1 #
edge $-1 $647 -81.203724112688008 $483 -62.330958249963317 $479 $648 forward 7 unknown #
edge $-1 $484 65.430954319072455 $647 90.067600179629196 $318 $649 forward 7 unknown #
coedge $-1 $319 $639 $645 $650 forward $472 $-1 #
vertex $-1 $320 $651 #
vertex $-1 $320 $652 #
straight-curve $-1 -29.856560016987419 49.232152968105268 18.873734748173376 0 -1 0 I I #
coedge $-1 $486 $486 $-1 $653 reversed $323 $-1 #
edge $-1 $654 0 $654 6.2831853071796004 $324 $655 forward 7 unknown #
vertex $-1 $327 $656 #
ellipse-curve $-1 -24.801677837317719 37.115734859765332 9.4373518168110309 0 0.7660444514056185 0.64278759981090561 2 0 0 1 I I #
coedge $-1 $490 $490 $-1 $657 reversed $330 $-1 #
edge $-1 $658 0 $658 6.2831853071796004 $331 $659 forward 7 unknown #
vertex $-1 $334 $660 #
ellipse-curve $-1 -17.219354567813156 37.115734859765332 9.4373518168110309 0 0.7660444514056185 0.64278759981090561 2 0 0 1 I I #
coedge $-1 $494 $494 $-1 $661 reversed $337 $-1 #
edge $-1 $662 0 $662 6.2831853071796004 $338 $663 forward 7 unknown #
vertex $-1 $341 $664 #
ellipse-curve $-1 -9.6370312983085995 37.115734859765332 9.4373518168110309 0 0.7660444514056185 0.64278759981090561 2 0 0 1 I I #
face $-1 $-1 $665 $72 $-1 $666 reversed single #
loop $-1 $-1 $348 $342 #
plane-surface $-1 0 0 18.873734748173373 0 0 1 1 0 0 forward_v I I I I #
coedge $-1 $667 $668 $669 $670 reversed $343 $-1 #
coedge $-1 $671 $345 $347 $508 forward $217 $-1 #
coedge $-1 $345 $671 $667 $672 forward $217 $-1 #
coedge $-1 $669 $348 $345 $505 forward $499 $-1 #
edge $-1 $511 -3.0813503376830305 $673 22.193060560665497 $504 $674 forward 7 unknown #
coedge $-1 $675 $676 $346 $507 forward $665 $-1 #
edge $-1 $677 -81.203724112688008 $510 -62.330958249963317 $506 $678 forward 7 unknown #
edge $-1 $511 65.430954319072455 $677 90.067600179629196 $347 $679 forward 7 unknown #
coedge $-1 $348 $669 $675 $680 forward $499 $-1 #
vertex $-1 $349 $681 #
vertex $-1 $349 $682 #
straight-curve $-1 6.4745047738082029 49.232152968105268 18.873734748173376 0 -1 0 I I #
coedge $-1 $513 $513 $-1 $683 reversed $352 $-1 #
edge $-1 $684 0 $684 6.2831853071796004 $353 $685 forward 7 unknown #
vertex $-1 $356 $686 #
ellipse-curve $-1 11.529386953477911 37.115734859765332 9.4373518168110309 0 0.7660444514056185 0.64278759981090561 2 0 0 1 I I #
coedge $-1 $517 $517 $-1 $687 reversed $359 $-1 #
edge $-1 $688 0 $688 6.2831853071796004 $360 $689 forward 7 unknown #
vertex $-1 $363 $690 #
ellipse-curve $-1 19.111710222982467 37.115734859765332 9.4373518168110309 0 0.7660444514056185 0.64278759981090561 2 0 0 1 I I #
coedge $-1 $521 $521 $-1 $691 reversed $366 $-1 #
edge $-1 $692 0 $692 6.2831853071796004 $367 $693 forward 7 unknown #
vertex $-1 $370 $694 #
ellipse-curve $-1 26.694033492487023 37.115734859765332 9.4373518168110309 0 0.7660444514056185 0.64278759981090561 2 0 0 1 I I #
face $-1 $-1 $695 $76 $-1 $696 reversed single #
loop $-1 $-1 $377 $371 #
plane-surface $-1 0 0 18.873734748173373 0 0 1 1 0 0 forward_v I I I I #
coedge $-1 $697 $698 $699 $700 reversed $372 $-1 #
coedge $-1 $701 $374 $376 $535 forward $236 $-1 #
coedge $-1 $374 $701 $697 $702 forward $236 $-1 #
coedge $-1 $699 $377 $374 $532 forward $526 $-1 #
edge $-1 $538 15.084182057714784 $703 40.358592956063305 $531 $704 forward 7 unknown #
coedge $-1 $705 $706 $375 $534 forward $695 $-1 #
edge $-1 $707 -81.203724112688008 $537 -62.330958249963317 $533 $708 forward 7 unknown #
edge $-1 $538 65.430954319072455 $707 90.067600179629196 $376 $709 forward 7 unknown #
coedge $-1 $377 $699 $705 $710 forward $526 $-1 #
vertex $-1 $378 $711 #
vertex $-1 $378 $712 #
straight-curve $-1 42.805569564603829 49.232152968105268 18.873734748173376 0 -1 0 I I #
coedge $-1 $540 $540 $-1 $713 reversed $381 $-1 #
edge $-1 $714 0 $714 6.2831853071796004 $382 $715 forward 7 unknown #
vertex $-1 $385 $716 #
ellipse-curve $-1 47.860451744273533 37.115734859765332 9.4373518168110309 0 0.7660444514056185 0.64278759981090561 2 0 0 1 I I #
coedge $-1 $544 $544 $-1 $717 reversed $388 $-1 #
edge $-1 $718 0 $718 6.2831853071796004 $389 $719 forward 7 unknown #
vertex $-1 $392 $720 #
ellipse-curve $-1 55.442775013778089 37.115734859765332 9.4373518168110309 0 0.7660444514056185 0.64278759981090561 2 0 0 1 I I #
coedge $-1 $548 $548 $-1 $721 reversed $395 $-1 #
edge $-1 $722 0 $722 6.2831853071796004 $396 $723 forward 7 unknown #
vertex $-1 $399 $724 #
ellipse-curve $-1 63.025098283282631 37.115734859765332 9.4373518168110309 0 0.7660444514056185 0.64278759981090561 2 0 0 1 I I #
face $-1 $-1 $415 $60 $-1 $725 reversed single #
loop $-1 $-1 $568 $400 #
plane-surface $-1 0 45.033800089814598 0 0 -1 0 0 0 -1 forward_v I I I I #
coedge $-1 $726 $566 $569 $727 forward $401 $-1 #
coedge $-1 $572 $403 $404 $560 reversed $255 $-1 #
coedge $-1 $566 $726 $403 $558 reversed $401 $-1 #
edge $-1 $573 -18.873734748173373 $728 18.873734748173373 $557 $729 forward 7 unknown #
coedge $-1 $405 $404 $726 $730 forward $161 $-1 #
edge $-1 $564 -72.662129581591245 $728 72.662129581591245 $556 $731 forward 7 unknown #
coedge $-1 $569 $568 $405 $562 reversed $553 $-1 #
edge $-1 $732 -72.662129581591245 $563 72.662129581591245 $561 $733 forward 7 unknown #
vertex $-1 $407 $734 #
vertex $-1 $575 $735 #
straight-curve $-1 72.662129581591245 0 -18.873734748173373 0 -1 0 I I #
coedge $-1 $555 $557 $408 $567 reversed $401 $-1 #
edge $-1 $570 -45.033800089814598 $573 45.033800089814598 $566 $736 forward 7 unknown #
coedge $-1 $561 $409 $414 $576 forward $553 $-1 #
coedge $-1 $409 $561 $555 $727 reversed $553 $-1 #
vertex $-1 $410 $737 #
straight-curve $-1 0 45.033800089814598 18.873734748173373 -1 0 0 I I #
coedge $-1 $411 $556 $413 $575 reversed $255 $-1 #
vertex $-1 $567 $738 #
straight-curve $-1 0 -45.033800089814598 18.873734748173373 1 0 0 I I #
edge $-1 $416 -18.873734748173373 $564 18.873734748173373 $413 $739 forward 7 unknown #
edge $-1 $417 -18.873734748173373 $563 18.873734748173373 $414 $740 forward 7 unknown #
point $-1 72.662129581591245 -45.033800089814598 18.873734748173373 #
point $-1 72.662129581591245 45.033800089814598 18.873734748173373 #
plane-surface $-1 0 0 18.873734748173373 0 0 1 1 0 0 forward_v I I I I #
coedge $-1 $590 $589 $582 $741 forward $420 $-1 #
coedge $-1 $582 $422 $424 $586 reversed $263 $-1 #
coedge $-1 $422 $581 $580 $741 reversed $263 $-1 #
coedge $-1 $430 $425 $422 $584 forward $431 $-1 #
edge $-1 $587 -33.646244986996969 $742 -19.160385835312546 $583 $743 forward 7 unknown #
coedge $-1 $424 $423 $590 $744 reversed $165 $-1 #
edge $-1 $745 -8.8770546250341341e-015 $587 17.683968860495693 $581 $746 forward 7 unknown #
vertex $-1 $426 $747 #
straight-curve $-1 -11.55451864054637 -30.547940938130171 18.873734748173373 -1 0 0 I I #
coedge $-1 $580 $427 $430 $594 reversed $420 $-1 #
coedge $-1 $427 $580 $585 $744 forward $420 $-1 #
vertex $-1 $428 $748 #
straight-curve $-1 -12.206502411013286 -45.033800089814598 63.886645001999639 0 0 1 I I #
straight-curve $-1 -12.206502411013286 -45.033800089814591 8.7306267779039928 0 -0.81915203911291934 -0.57357644374324357 I I #
edge $-1 $742 -34.011572151172189 $432 -12.206502411013286 $589 $749 forward 7 unknown #
point $-1 -12.206502411013286 -45.033800089814598 18.873734748173373 #
point $-1 -12.206502411013286 -30.547940938130175 18.873734748173373 #
edge $-1 $750 1 $750 0 $435 $-1 forward 7 unknown #
vertex $-1 $436 $751 #
ellipse-curve $-1 -27.781552225412511 -35.596359023059009 10.668093611713596 0 -0.57357644374324357 0.81915203911291934 1.5 0 0 1 I I #
point $-1 -26.281552225412511 -37.790870513972401 13.802180763038688 #
edge $-1 $752 1 $752 0 $439 $-1 forward 7 unknown #
vertex $-1 $440 $753 #
ellipse-curve $-1 -18.436522336772981 -35.596359023059009 10.668093611713596 0 -0.57357644374324357 0.81915203911291934 1.5 0 0 1 I I #
point $-1 -16.936522336772981 -37.790870513972401 13.802180763038688 #
plane-surface $-1 0 0 18.873734748173373 0 0 1 1 0 0 forward_v I I I I #
coedge $-1 $616 $615 $608 $754 forward $444 $-1 #
coedge $-1 $608 $446 $448 $612 reversed $285 $-1 #
coedge $-1 $446 $607 $606 $754 reversed $285 $-1 #
coedge $-1 $454 $449 $446 $610 forward $455 $-1 #
edge $-1 $613 -20.034483338389208 $755 -4.1983528782906703 $609 $756 forward 7 unknown #
coedge $-1 $448 $447 $616 $757 reversed $179 $-1 #
edge $-1 $758 -90.067600179629196 $613 -65.430954319072455 $607 $759 forward 7 unknown #
vertex $-1 $450 $760 #
straight-curve $-1 -26.775209679304389 29.197669629716053 18.873734748173369 1 0 0 I I #
coedge $-1 $606 $451 $454 $620 reversed $444 $-1 #
coedge $-1 $451 $606 $611 $757 forward $444 $-1 #
vertex $-1 $452 $761 #
straight-curve $-1 -66.187624807783038 45.033800089814598 81.204692998136693 0 0 1 I I #
straight-curve $-1 -66.187624807783038 -12.860536450377523 68.996754254473302 0 0.64278759981090561 -0.7660444514056185 I I #
edge $-1 $755 40.913213909434518 $456 66.187624807783038 $615 $762 forward 7 unknown #
point $-1 -66.187624807783038 45.033800089814598 18.873734748173373 #
point $-1 -66.187624807783038 29.19766962971606 18.873734748173376 #
edge $-1 $763 1 $763 0 $459 $-1 forward 7 unknown #
vertex $-1 $460 $764 #
ellipse-curve $-1 -61.132742628113341 31.345070831714004 4.5951898859987708 0 0.7660444514056185 0.64278759981090561 2 0 0 1 I I #
point $-1 -59.132742628113341 37.115734859765311 9.4373518168110113 #
edge $-1 $765 1 $765 0 $463 $-1 forward 7 unknown #
vertex $-1 $464 $766 #
ellipse-curve $-1 -53.550419358608778 31.345070831714004 4.5951898859987708 0 0.7660444514056185 0.64278759981090561 2 0 0 1 I I #
point $-1 -51.550419358608778 37.115734859765311 9.4373518168110113 #
edge $-1 $767 1 $767 0 $467 $-1 forward 7 unknown #
vertex $-1 $468 $768 #
ellipse-curve $-1 -45.968096089104222 31.345070831714004 4.5951898859987708 0 0.7660444514056185 0.64278759981090561 2 0 0 1 I I #
point $-1 -43.968096089104222 37.115734859765311 9.4373518168110113 #
loop $-1 $-1 $479 $471 #
plane-surface $-1 0 45.033800089814598 0 0 -1 0 0 0 -1 forward_v I I I I #
coedge $-1 $638 $474 $476 $642 reversed $314 $-1 #
coedge $-1 $474 $637 $769 $770 reversed $314 $-1 #
coedge $-1 $482 $477 $474 $640 forward $472 $-1 #
edge $-1 $643 -20.034483338389208 $771 -4.1983528782906703 $639 $772 forward 7 unknown #
coedge $-1 $476 $475 $646 $773 reversed $198 $-1 #
edge $-1 $774 -90.067600179629196 $643 -65.430954319072455 $637 $775 forward 7 unknown #
vertex $-1 $478 $776 #
straight-curve $-1 -8.6096772839065778 29.197669629716053 18.873734748173369 1 0 0 I I #
coedge $-1 $769 $479 $482 $650 reversed $635 $-1 #
coedge $-1 $479 $769 $641 $773 forward $635 $-1 #
vertex $-1 $480 $777 #
straight-curve $-1 -29.856560016987419 45.033800089814598 81.204692998136693 0 0 1 I I #
straight-curve $-1 -29.856560016987419 -12.860536450377523 68.996754254473302 0 0.64278759981090561 -0.7660444514056185 I I #
edge $-1 $771 4.5821491186388918 $483 29.856560016987419 $645 $778 forward 7 unknown #
point $-1 -29.856560016987419 45.033800089814598 18.873734748173373 #
point $-1 -29.856560016987419 29.19766962971606 18.873734748173376 #
edge $-1 $779 1 $779 0 $486 $-1 forward 7 unknown #
vertex $-1 $487 $780 #
ellipse-curve $-1 -24.801677837317719 31.345070831714004 4.5951898859987708 0 0.7660444514056185 0.64278759981090561 2 0 0 1 I I #
point $-1 -22.801677837317719 37.115734859765311 9.4373518168110113 #
edge $-1 $781 1 $781 0 $490 $-1 forward 7 unknown #
vertex $-1 $491 $782 #
ellipse-curve $-1 -17.219354567813156 31.345070831714004 4.5951898859987708 0 0.7660444514056185 0.64278759981090561 2 0 0 1 I I #
point $-1 -15.219354567813156 37.115734859765311 9.4373518168110113 #
edge $-1 $783 1 $783 0 $494 $-1 forward 7 unknown #
vertex $-1 $495 $784 #
ellipse-curve $-1 -9.6370312983085995 31.345070831714004 4.5951898859987708 0 0.7660444514056185 0.64278759981090561 2 0 0 1 I I #
point $-1 -7.6370312983085995 37.115734859765311 9.4373518168110113 #
loop $-1 $-1 $506 $498 #
plane-surface $-1 0 45.033800089814598 0 0 -1 0 0 0 -1 forward_v I I I I #
coedge $-1 $668 $501 $503 $672 reversed $343 $-1 #
coedge $-1 $501 $667 $785 $786 reversed $343 $-1 #
coedge $-1 $509 $504 $501 $670 forward $499 $-1 #
edge $-1 $673 -20.034483338389208 $787 -4.1983528782906703 $669 $788 forward 7 unknown #
coedge $-1 $503 $502 $676 $789 reversed $217 $-1 #
edge $-1 $790 -90.067600179629196 $673 -65.430954319072455 $667 $791 forward 7 unknown #
vertex $-1 $505 $792 #
straight-curve $-1 9.5558551114912333 29.197669629716053 18.873734748173369 1 0 0 I I #
coedge $-1 $785 $506 $509 $680 reversed $665 $-1 #
coedge $-1 $506 $785 $671 $789 forward $665 $-1 #
vertex $-1 $507 $793 #
straight-curve $-1 6.4745047738082029 45.033800089814598 81.204692998136693 0 0 1 I I #
straight-curve $-1 6.4745047738082029 -12.860536450377523 68.996754254473302 0 0.64278759981090561 -0.7660444514056185 I I #
edge $-1 $787 -31.74891567215673 $510 -6.4745047738082029 $675 $794 forward 7 unknown #
point $-1 6.4745047738082029 45.033800089814598 18.873734748173373 #
point $-1 6.4745047738082029 29.19766962971606 18.873734748173376 #
edge $-1 $795 1 $795 0 $513 $-1 forward 7 unknown #
vertex $-1 $514 $796 #
ellipse-curve $-1 11.529386953477911 31.345070831714004 4.5951898859987708 0 0.7660444514056185 0.64278759981090561 2 0 0 1 I I #
point $-1 13.529386953477911 37.115734859765311 9.4373518168110113 #
edge $-1 $797 1 $797 0 $517 $-1 forward 7 unknown #
vertex $-1 $518 $798 #
ellipse-curve $-1 19.111710222982467 31.345070831714004 4.5951898859987708 0 0.7660444514056185 0.64278759981090561 2 0 0 1 I I #
point $-1 21.111710222982467 37.115734859765311 9.4373518168110113 #
edge $-1 $799 1 $799 0 $521 $-1 forward 7 unknown #
vertex $-1 $522 $800 #
ellipse-curve $-1 26.694033492487023 31.345070831714004 4.5951898859987708 0 0.7660444514056185 0.64278759981090561 2 0 0 1 I I #
point $-1 28.694033492487023 37.115734859765311 9.4373518168110113 #
loop $-1 $-1 $533 $525 #
plane-surface $-1 0 45.033800089814598 0 0 -1 0 0 0 -1 forward_v I I I I #
coedge $-1 $698 $528 $530 $702 reversed $372 $-1 #
coedge $-1 $528 $697 $801 $802 reversed $372 $-1 #
coedge $-1 $536 $531 $528 $700 forward $526 $-1 #
edge $-1 $703 -20.034483338389208 $803 -4.1983528782906703 $699 $804 forward 7 unknown #
coedge $-1 $530 $529 $706 $805 reversed $236 $-1 #
edge $-1 $806 -90.067600179629196 $703 -65.430954319072455 $697 $807 forward 7 unknown #
vertex $-1 $532 $808 #
straight-curve $-1 27.721387506889045 29.197669629716053 18.873734748173369 1 0 0 I I #
coedge $-1 $801 $533 $536 $710 reversed $695 $-1 #
coedge $-1 $533 $801 $701 $805 forward $695 $-1 #
vertex $-1 $534 $809 #
straight-curve $-1 42.805569564603829 45.033800089814598 81.204692998136693 0 0 1 I I #
straight-curve $-1 42.805569564603829 -12.860536450377523 68.996754254473302 0 0.64278759981090561 -0.7660444514056185 I I #
edge $-1 $803 -68.079980462952349 $537 -42.805569564603829 $705 $810 forward 7 unknown #
point $-1 42.805569564603829 45.033800089814598 18.873734748173373 #
point $-1 42.805569564603829 29.19766962971606 18.873734748173376 #
edge $-1 $811 1 $811 0 $540 $-1 forward 7 unknown #
vertex $-1 $541 $812 #
ellipse-curve $-1 47.860451744273533 31.345070831714004 4.5951898859987708 0 0.7660444514056185 0.64278759981090561 2 0 0 1 I I #
point $-1 49.860451744273533 37.115734859765311 9.4373518168110113 #
edge $-1 $813 1 $813 0 $544 $-1 forward 7 unknown #
vertex $-1 $545 $814 #
ellipse-curve $-1 55.442775013778089 31.345070831714004 4.5951898859987708 0 0.7660444514056185 0.64278759981090561 2 0 0 1 I I #
point $-1 57.442775013778089 37.115734859765311 9.4373518168110113 #
edge $-1 $815 1 $815 0 $548 $-1 forward 7 unknown #
vertex $-1 $549 $816 #
ellipse-curve $-1 63.025098283282631 31.345070831714004 4.5951898859987708 0 0.7660444514056185 0.64278759981090561 2 0 0 1 I I #
point $-1 65.025098283282631 37.115734859765311 9.4373518168110113 #
plane-surface $-1 72.662129581591245 0 0 -1 0 0 0 0 1 forward_v I I I I #
coedge $-1 $557 $555 $559 $730 reversed $401 $-1 #
edge $-1 $570 -18.873734748173373 $732 18.873734748173373 $569 $817 forward 7 unknown #
vertex $-1 $730 $818 #
straight-curve $-1 -72.662129581591245 -45.033800089814598 0 0 0 -1 I I #
edge $-1 $728 -45.033800089814598 $732 45.033800089814598 $726 $819 forward 7 unknown #
straight-curve $-1 0 -45.033800089814598 -18.873734748173373 -1 0 0 I I #
vertex $-1 $562 $820 #
straight-curve $-1 0 45.033800089814598 -18.873734748173373 1 0 0 I I #
point $-1 72.662129581591245 45.033800089814598 -18.873734748173373 #
point $-1 72.662129581591245 -45.033800089814598 -18.873734748173373 #
straight-curve $-1 -72.662129581591245 0 18.873734748173373 0 -1 0 I I #
point $-1 -72.662129581591245 45.033800089814598 18.873734748173373 #
point $-1 -72.662129581591245 -45.033800089814598 18.873734748173373 #
straight-curve $-1 72.662129581591245 -45.033800089814598 0 0 0 -1 I I #
straight-curve $-1 72.662129581591245 45.033800089814598 0 0 0 -1 I I #
edge $-1 $742 45.012910253826263 $745 55.156018224095654 $580 $821 forward 7 unknown #
vertex $-1 $594 $822 #
straight-curve $-1 -34.011572151172189 -64.194185925127144 18.873734748173376 0 -1 0 I I #
edge $-1 $745 -22.457053510625819 $591 -0.65198377046691647 $590 $823 forward 7 unknown #
vertex $-1 $744 $824 #
straight-curve $-1 -34.011572151172189 -45.033800089814591 8.7306267779039928 0 0.81915203911291934 0.57357644374324357 I I #
point $-1 -34.011572151172189 -30.547940938130175 18.873734748173373 #
point $-1 -12.206502411013286 -45.033800089814598 8.7306267779039874 #
straight-curve $-1 0 -45.033800089814598 18.873734748173373 1 0 0 I I #
vertex $-1 $597 $825 #
point $-1 -26.281552225412511 -35.596359023059009 10.668093611713596 #
vertex $-1 $601 $826 #
point $-1 -16.936522336772981 -35.596359023059009 10.668093611713596 #
edge $-1 $755 62.330958249963317 $758 81.203724112688008 $606 $827 forward 7 unknown #
vertex $-1 $620 $828 #
straight-curve $-1 -40.913213909434518 49.232152968105268 18.873734748173376 0 1 0 I I #
edge $-1 $758 14.138004230130129 $617 39.412415128478649 $616 $829 forward 7 unknown #
vertex $-1 $757 $830 #
straight-curve $-1 -40.913213909434518 -12.860536450377523 68.996754254473302 0 -0.64278759981090561 0.7660444514056185 I I #
point $-1 -40.913213909434518 29.19766962971606 18.873734748173376 #
point $-1 -66.187624807783038 45.033800089814598 0.00096888544868534154 #
straight-curve $-1 0 45.033800089814598 18.873734748173373 -1 0 0 I I #
vertex $-1 $623 $831 #
point $-1 -59.132742628113341 31.345070831714004 4.5951898859987708 #
vertex $-1 $627 $832 #
point $-1 -51.550419358608778 31.345070831714004 4.5951898859987708 #
vertex $-1 $631 $833 #
point $-1 -43.968096089104222 31.345070831714004 4.5951898859987708 #
coedge $-1 $646 $645 $638 $770 forward $635 $-1 #
edge $-1 $771 62.330958249963317 $774 81.203724112688008 $769 $834 forward 7 unknown #
vertex $-1 $650 $835 #
straight-curve $-1 -4.5821491186388918 49.232152968105268 18.873734748173376 0 1 0 I I #
edge $-1 $774 -4.027528165267686 $647 21.246882733080842 $646 $836 forward 7 unknown #
vertex $-1 $773 $837 #
straight-curve $-1 -4.5821491186388918 -12.860536450377523 68.996754254473302 0 -0.64278759981090561 0.7660444514056185 I I #
point $-1 -4.5821491186388918 29.19766962971606 18.873734748173376 #
point $-1 -29.856560016987419 45.033800089814598 0.00096888544868534154 #
straight-curve $-1 0 45.033800089814598 18.873734748173373 -1 0 0 I I #
vertex $-1 $653 $838 #
point $-1 -22.801677837317719 31.345070831714004 4.5951898859987708 #
vertex $-1 $657 $839 #
point $-1 -15.219354567813156 31.345070831714004 4.5951898859987708 #
vertex $-1 $661 $840 #
point $-1 -7.6370312983085995 31.345070831714004 4.5951898859987708 #
coedge $-1 $676 $675 $668 $786 forward $665 $-1 #
edge $-1 $787 62.330958249963317 $790 81.203724112688008 $785 $841 forward 7 unknown #
vertex $-1 $680 $842 #
straight-curve $-1 31.74891567215673 49.232152968105268 18.873734748173376 0 1 0 I I #
edge $-1 $790 -22.193060560665497 $677 3.0813503376830305 $676 $843 forward 7 unknown #
vertex $-1 $789 $844 #
straight-curve $-1 31.74891567215673 -12.860536450377523 68.996754254473302 0 -0.64278759981090561 0.7660444514056185 I I #
point $-1 31.74891567215673 29.19766962971606 18.873734748173376 #
point $-1 6.4745047738082029 45.033800089814598 0.00096888544868534154 #
straight-curve $-1 0 45.033800089814598 18.873734748173373 -1 0 0 I I #
vertex $-1 $683 $845 #
point $-1 13.529386953477911 31.345070831714004 4.5951898859987708 #
vertex $-1 $687 $846 #
point $-1 21.111710222982467 31.345070831714004 4.5951898859987708 #
vertex $-1 $691 $847 #
point $-1 28.694033492487023 31.345070831714004 4.5951898859987708 #
coedge $-1 $706 $705 $698 $802 forward $695 $-1 #
edge $-1 $803 62.330958249963317 $806 81.203724112688008 $801 $848 forward 7 unknown #
vertex $-1 $710 $849 #
straight-curve $-1 68.079980462952349 49.232152968105268 18.873734748173376 0 1 0 I I #
edge $-1 $806 -40.358592956063305 $707 -15.084182057714784 $706 $850 forward 7 unknown #
vertex $-1 $805 $851 #
straight-curve $-1 68.079980462952349 -12.860536450377523 68.996754254473302 0 -0.64278759981090561 0.7660444514056185 I I #
point $-1 68.079980462952349 29.19766962971606 18.873734748173376 #
point $-1 42.805569564603829 45.033800089814598 0.00096888544868534154 #
straight-curve $-1 0 45.033800089814598 18.873734748173373 -1 0 0 I I #
vertex $-1 $713 $852 #
point $-1 49.860451744273533 31.345070831714004 4.5951898859987708 #
vertex $-1 $717 $853 #
point $-1 57.442775013778089 31.345070831714004 4.5951898859987708 #
vertex $-1 $721 $854 #
point $-1 65.025098283282631 31.345070831714004 4.5951898859987708 #
straight-curve $-1 -72.662129581591245 45.033800089814598 0 0 0 -1 I I #
point $-1 -72.662129581591245 -45.033800089814598 -18.873734748173373 #
straight-curve $-1 -72.662129581591245 0 -18.873734748173373 0 1 0 I I #
point $-1 -72.662129581591245 45.033800089814598 -18.873734748173373 #
straight-curve $-1 -34.011572151172189 -45.033800089814598 63.886645001999639 0 0 -1 I I #
point $-1 -34.011572151172189 -45.033800089814598 18.873734748173373 #
straight-curve $-1 -11.55451864054637 -45.033800089814598 8.7306267779039839 1 0 0 I I #
point $-1 -34.011572151172189 -45.033800089814598 8.7306267779039874 #
point $-1 -27.781552225412511 -34.735994357444142 9.4393655530442171 #
point $-1 -18.436522336772981 -34.735994357444142 9.4393655530442171 #
straight-curve $-1 -40.913213909434518 45.033800089814598 81.204692998136693 0 0 -1 I I #
point $-1 -40.913213909434518 45.033800089814598 18.873734748173373 #
straight-curve $-1 -26.775209679304389 45.033800089814598 0.0009688854486995524 -1 0 0 I I #
point $-1 -40.913213909434518 45.033800089814598 0.00096888544868534154 #
point $-1 -61.132742628113341 29.812981928902765 3.30961468637696 #
point $-1 -53.550419358608778 29.812981928902765 3.30961468637696 #
point $-1 -45.968096089104222 29.812981928902765 3.30961468637696 #
straight-curve $-1 -4.5821491186388918 45.033800089814598 81.204692998136693 0 0 -1 I I #
point $-1 -4.5821491186388918 45.033800089814598 18.873734748173373 #
straight-curve $-1 -8.6096772839065778 45.033800089814598 0.0009688854486995524 -1 0 0 I I #
point $-1 -4.5821491186388918 45.033800089814598 0.00096888544868534154 #
point $-1 -24.801677837317719 29.812981928902765 3.30961468637696 #
point $-1 -17.219354567813156 29.812981928902765 3.30961468637696 #
point $-1 -9.6370312983085995 29.812981928902765 3.30961468637696 #
straight-curve $-1 31.74891567215673 45.033800089814598 81.204692998136693 0 0 -1 I I #
point $-1 31.74891567215673 45.033800089814598 18.873734748173373 #
straight-curve $-1 9.5558551114912333 45.033800089814598 0.0009688854486995524 -1 0 0 I I #
point $-1 31.74891567215673 45.033800089814598 0.00096888544868534154 #
point $-1 11.529386953477911 29.812981928902765 3.30961468637696 #
point $-1 19.111710222982467 29.812981928902765 3.30961468637696 #
point $-1 26.694033492487023 29.812981928902765 3.30961468637696 #
straight-curve $-1 68.079980462952349 45.033800089814598 81.204692998136693 0 0 -1 I I #
point $-1 68.079980462952349 45.033800089814598 18.873734748173373 #
straight-curve $-1 27.721387506889045 45.033800089814598 0.0009688854486995524 -1 0 0 I I #
point $-1 68.079980462952349 45.033800089814598 0.00096888544868534154 #
point $-1 47.860451744273533 29.812981928902765 3.30961468637696 #
point $-1 55.442775013778089 29.812981928902765 3.30961468637696 #
point $-1 63.025098283282631 29.812981928902765 3.30961468637696 #
End-of-ACIS-data 