500 0 11 0           
7 Unknown 11 ACIS 5.0 NT 24 Thu Mar 25 16:20:18 1999 
-1 9.9999999999999995e-007 1e-010 
body $-1 $11 $-1 $12 #
body $-1 $13 $-1 $14 #
body $-1 $15 $-1 $16 #
body $-1 $17 $-1 $18 #
body $-1 $19 $-1 $20 #
body $-1 $21 $-1 $22 #
body $-1 $23 $-1 $24 #
body $-1 $25 $-1 $26 #
body $-1 $27 $-1 $28 #
body $-1 $29 $-1 $30 #
body $-1 $31 $-1 $32 #
lump $-1 $-1 $33 $0 #
transform $-1 1 0 0 0 1 0 0 0 1 48.188726462599568 23.419629880640869 9.2092528778670477 1 rotate no_reflect no_shear #
lump $-1 $-1 $34 $1 #
transform $-1 1 0 0 0 1 0 0 0 1 48.188726462599568 23.419629880640869 9.2092528778670477 1 rotate no_reflect no_shear #
lump $-1 $-1 $35 $2 #
transform $-1 1 0 0 0 1 0 0 0 1 48.188726462599568 23.419629880640869 9.2092528778670477 1 rotate no_reflect no_shear #
lump $-1 $-1 $36 $3 #
transform $-1 1 0 0 0 1 0 0 0 1 48.188726462599568 23.419629880640869 9.2092528778670477 1 rotate no_reflect no_shear #
lump $-1 $-1 $37 $4 #
transform $-1 1 0 0 0 1 0 0 0 1 48.188726462599568 23.419629880640869 9.2092528778670477 1 rotate no_reflect no_shear #
lump $-1 $-1 $38 $5 #
transform $-1 1 0 0 0 1 0 0 0 1 48.188726462599568 23.419629880640869 9.2092528778670477 1 rotate no_reflect no_shear #
lump $-1 $-1 $39 $6 #
transform $-1 1 0 0 0 1 0 0 0 1 48.188726462599568 23.419629880640869 9.2092528778670477 1 rotate no_reflect no_shear #
lump $-1 $-1 $40 $7 #
transform $-1 1 0 0 0 1 0 0 0 1 48.188726462599568 23.419629880640869 9.2092528778670477 1 rotate no_reflect no_shear #
lump $-1 $-1 $41 $8 #
transform $-1 1 0 0 0 1 0 0 0 1 48.188726462599568 23.419629880640869 9.2092528778670477 1 rotate no_reflect no_shear #
lump $-1 $-1 $42 $9 #
transform $-1 1 0 0 0 1 0 0 0 1 48.188726462599568 23.419629880640869 9.2092528778670477 1 rotate no_reflect no_shear #
lump $-1 $-1 $43 $10 #
transform $-1 1 0 0 0 1 0 0 0 1 48.188726462599568 23.419629880640869 9.2092528778670477 1 rotate no_reflect no_shear #
shell $-1 $-1 $-1 $44 $-1 $11 #
shell $-1 $-1 $-1 $45 $-1 $13 #
shell $-1 $-1 $-1 $46 $-1 $15 #
shell $-1 $-1 $-1 $47 $-1 $17 #
shell $-1 $-1 $-1 $48 $-1 $19 #
shell $-1 $-1 $-1 $49 $-1 $21 #
shell $-1 $-1 $-1 $50 $-1 $23 #
shell $-1 $-1 $-1 $51 $-1 $25 #
shell $-1 $-1 $-1 $52 $-1 $27 #
shell $-1 $-1 $-1 $53 $-1 $29 #
shell $-1 $-1 $-1 $54 $-1 $31 #
face $-1 $55 $56 $33 $-1 $57 forward single #
face $-1 $58 $59 $34 $-1 $60 reversed single #
face $-1 $61 $62 $35 $-1 $63 reversed single #
face $-1 $64 $65 $36 $-1 $66 forward single #
face $-1 $67 $68 $37 $-1 $69 forward single #
face $-1 $70 $71 $38 $-1 $72 reversed single #
face $-1 $73 $74 $39 $-1 $75 forward single #
face $-1 $76 $77 $40 $-1 $78 forward single #
face $-1 $79 $80 $41 $-1 $81 reversed single #
face $-1 $82 $83 $42 $-1 $84 forward single #
face $-1 $85 $86 $43 $-1 $87 forward single #
face $-1 $88 $89 $33 $-1 $90 reversed single #
loop $-1 $-1 $91 $44 #
plane-surface $-1 0 0 9.2092528778670477 0 0 1 1 0 0 forward_v I I I I #
face $-1 $92 $93 $34 $-1 $94 reversed single #
loop $-1 $-1 $95 $45 #
plane-surface $-1 0 -18.020248319084743 5.4271270812589698 0 0 1 1 0 0 forward_v I I I I #
face $-1 $96 $97 $35 $-1 $98 reversed single #
loop $-1 $-1 $99 $46 #
plane-surface $-1 -129.01766041594595 -6.5805398220241074 53.571055484393625 0 1 0 -0.83867057594974714 0 0.54463902268945019 forward_v I I I I #
face $-1 $100 $101 $36 $-1 $102 forward single #
loop $-1 $103 $104 $47 #
cone-surface $-1 -45.129835404012809 -4.3998711510972726 4.8723737845461361 0.83867057594974714 0 -0.54463902268945019 0.2723195113447251 0 0.41933528797487357 1 I I 0 1 0.5 forward I I I I #
face $-1 $105 $106 $37 $-1 $107 forward single #
loop $-1 $108 $109 $48 #
cone-surface $-1 -45.129835404012809 -1.1288681447070203 4.8723737845461361 0.83867057594974714 0 -0.54463902268945019 0.2723195113447251 0 0.41933528797487357 1 I I 0 1 0.5 forward I I I I #
face $-1 $110 $111 $38 $-1 $112 reversed single #
loop $-1 $-1 $113 $49 #
plane-surface $-1 -129.01766041594595 11.439708497060636 53.571055484393625 0 1 0 -0.83867057594974714 0 0.54463902268945019 forward_v I I I I #
face $-1 $114 $115 $39 $-1 $116 forward single #
loop $-1 $117 $118 $50 #
cone-surface $-1 -45.129835404012809 13.620377167987471 4.8723737845461361 0.83867057594974714 0 -0.54463902268945019 0.2723195113447251 0 0.41933528797487357 1 I I 0 1 0.5 forward I I I I #
face $-1 $119 $120 $40 $-1 $121 forward single #
loop $-1 $122 $123 $51 #
cone-surface $-1 -45.129835404012809 16.891380174377723 4.8723737845461361 0.83867057594974714 0 -0.54463902268945019 0.2723195113447251 0 0.41933528797487357 1 I I 0 1 0.5 forward I I I I #
face $-1 $124 $125 $41 $-1 $126 reversed single #
loop $-1 $-1 $127 $52 #
plane-surface $-1 15.215184166544852 19.16930430993418 132.37851731241858 0 -1 0 -0.51503808176128008 0 -0.85716729658548041 forward_v I I I I #
face $-1 $128 $129 $42 $-1 $130 forward single #
loop $-1 $131 $132 $53 #
cone-surface $-1 40.174965404709532 14.705365391935786 3.9074748679316569 -0.51503808176128008 0 -0.85716729658548041 0.4285836482927402 0 -0.25751904088064004 1 I I 0 1 0.5 forward I I I I #
face $-1 $133 $134 $43 $-1 $135 forward single #
loop $-1 $136 $137 $54 #
cone-surface $-1 40.174965404709532 17.383728742734824 3.9074748679316569 -0.51503808176128008 0 -0.85716729658548041 0.4285836482927402 0 -0.25751904088064004 1 I I 0 1 0.5 forward I I I I #
face $-1 $138 $139 $33 $-1 $140 reversed single #
loop $-1 $-1 $141 $55 #
plane-surface $-1 0 0 -9.2092528778670477 0 0 1 1 0 0 forward_v I I I I #
coedge $-1 $142 $143 $144 $145 forward $56 $-1 #
face $-1 $146 $147 $34 $-1 $148 reversed single #
loop $-1 $-1 $149 $58 #
plane-surface $-1 0 -12.620866757528615 7.3181899795630088 0 -1 0 0 0 -1 forward_v I I I I #
coedge $-1 $150 $151 $152 $153 reversed $59 $-1 #
face $-1 $154 $155 $35 $-1 $156 reversed single #
loop $-1 $-1 $157 $61 #
plane-surface $-1 -48.188726462599547 -2.76436964790215 1.0801337139146767 -0.83867057594974714 0 0.54463902268945019 0.54463902268945019 0 0.83867057594974714 forward_v I I I I #
coedge $-1 $158 $159 $160 $161 reversed $62 $-1 #
face $-1 $-1 $162 $36 $-1 $163 forward single #
loop $-1 $164 $165 $64 #
cone-surface $-1 -44.500832472050497 -4.3998711510972726 4.4638945175290488 0.83867057594974714 0 -0.54463902268945019 0.13615975567236255 0 0.20966764398743679 1 I I -0.70710678118654746 0.70710678118654746 0.25 forward I I I I #
loop $-1 $-1 $166 $47 #
coedge $-1 $104 $104 $167 $168 reversed $65 $-1 #
face $-1 $-1 $169 $37 $-1 $170 forward single #
loop $-1 $171 $172 $67 #
cone-surface $-1 -44.500832472050497 -1.1288681447070203 4.4638945175290488 0.83867057594974714 0 -0.54463902268945019 0.13615975567236255 0 0.20966764398743679 1 I I -0.70710678118654746 0.70710678118654746 0.25 forward I I I I #
loop $-1 $-1 $173 $48 #
coedge $-1 $109 $109 $174 $175 reversed $68 $-1 #
face $-1 $176 $177 $38 $-1 $178 reversed single #
loop $-1 $-1 $179 $70 #
plane-surface $-1 -48.188726462599547 15.255878671182593 1.0801337139146767 -0.83867057594974714 0 0.54463902268945019 0.54463902268945019 0 0.83867057594974714 forward_v I I I I #
coedge $-1 $180 $181 $182 $183 reversed $71 $-1 #
face $-1 $-1 $184 $39 $-1 $185 forward single #
loop $-1 $186 $187 $73 #
cone-surface $-1 -44.500832472050497 13.620377167987471 4.4638945175290488 0.83867057594974714 0 -0.54463902268945019 0.13615975567236255 0 0.20966764398743679 1 I I -0.70710678118654746 0.70710678118654746 0.25 forward I I I I #
loop $-1 $-1 $188 $50 #
coedge $-1 $118 $118 $189 $190 reversed $74 $-1 #
face $-1 $-1 $191 $40 $-1 $192 forward single #
loop $-1 $193 $194 $76 #
cone-surface $-1 -44.500832472050497 16.891380174377723 4.4638945175290488 0.83867057594974714 0 -0.54463902268945019 0.13615975567236255 0 0.20966764398743679 1 I I -0.70710678118654746 0.70710678118654746 0.25 forward I I I I #
loop $-1 $-1 $195 $51 #
coedge $-1 $123 $123 $196 $197 reversed $77 $-1 #
face $-1 $198 $199 $41 $-1 $200 reversed single #
loop $-1 $-1 $201 $79 #
plane-surface $-1 -34.422874313087782 16.044547067335301 49.76691653673123 0.51503808176128008 0 0.85716729658548041 0.85716729658548041 0 -0.51503808176128008 forward_v I I I I #
coedge $-1 $202 $203 $204 $205 reversed $80 $-1 #
face $-1 $-1 $206 $42 $-1 $207 forward single #
loop $-1 $208 $209 $82 #
cone-surface $-1 39.588602085498614 14.705365391935786 2.9316024442341195 -0.51503808176128008 0 -0.85716729658548041 0.2142918241463701 0 -0.12875952044032002 1 I I -0.70710678118654746 0.70710678118654746 0.25 forward I I I I #
loop $-1 $-1 $210 $53 #
coedge $-1 $132 $132 $211 $212 reversed $83 $-1 #
face $-1 $-1 $213 $43 $-1 $214 forward single #
loop $-1 $215 $216 $85 #
cone-surface $-1 39.588602085498614 17.383728742734824 2.9316024442341195 -0.51503808176128008 0 -0.85716729658548041 0.2142918241463701 0 -0.12875952044032002 1 I I -0.70710678118654746 0.70710678118654746 0.25 forward I I I I #
loop $-1 $-1 $217 $54 #
coedge $-1 $137 $137 $218 $219 reversed $86 $-1 #
face $-1 $220 $221 $33 $-1 $222 reversed single #
loop $-1 $-1 $223 $88 #
plane-surface $-1 0 -23.419629880640869 0 0 1 0 0 0 1 forward_v I I I I #
coedge $-1 $224 $225 $226 $227 forward $89 $-1 #
coedge $-1 $228 $91 $229 $230 forward $56 $-1 #
coedge $-1 $91 $228 $231 $232 forward $56 $-1 #
coedge $-1 $233 $234 $91 $145 reversed $235 $-1 #
edge $-1 $236 -23.419629880640869 $237 23.419629880640869 $144 $238 forward 7 unknown #
face $-1 $239 $240 $34 $-1 $241 reversed single #
loop $-1 $-1 $242 $92 #
plane-surface $-1 -48.188726462599568 0 0 1 0 0 0 0 -1 forward_v I I I I #
coedge $-1 $243 $244 $245 $246 reversed $93 $-1 #
coedge $-1 $247 $95 $248 $249 reversed $59 $-1 #
coedge $-1 $95 $247 $243 $250 forward $59 $-1 #
coedge $-1 $245 $251 $95 $153 forward $252 $-1 #
edge $-1 $253 -14.409505721098498 $254 -3.6107425979862438 $152 $255 forward 7 unknown #
face $-1 $256 $257 $35 $-1 $258 forward single #
loop $-1 $-1 $259 $96 #
plane-surface $-1 -129.01766041594595 1.0518005262198074 53.571055484393625 0 -1 0 0.83867057594974714 0 -0.54463902268945019 forward_v I I I I #
coedge $-1 $260 $261 $262 $263 reversed $97 $-1 #
coedge $-1 $159 $99 $264 $265 reversed $62 $-1 #
coedge $-1 $99 $158 $260 $266 reversed $62 $-1 #
coedge $-1 $262 $267 $99 $161 forward $257 $-1 #
edge $-1 $268 16.320103745373409 $269 21.599215286597207 $160 $270 forward 7 unknown #
loop $-1 $-1 $167 $100 #
plane-surface $-1 -48.188726462599547 -2.76436964790215 1.0801337139146767 -0.83867057594974714 0 0.54463902268945019 0.54463902268945019 0 0.83867057594974714 forward_v I I I I #
loop $-1 $-1 $271 $64 #
coedge $-1 $165 $165 $166 $272 reversed $101 $-1 #
coedge $-1 $166 $166 $165 $272 forward $103 $-1 #
coedge $-1 $167 $167 $104 $168 forward $162 $-1 #
edge $-1 $273 0 $273 6.2831853071796004 $167 $274 forward 7 unknown #
loop $-1 $-1 $174 $105 #
plane-surface $-1 -48.188726462599547 -2.76436964790215 1.0801337139146767 -0.83867057594974714 0 0.54463902268945019 0.54463902268945019 0 0.83867057594974714 forward_v I I I I #
loop $-1 $-1 $275 $67 #
coedge $-1 $172 $172 $173 $276 reversed $106 $-1 #
coedge $-1 $173 $173 $172 $276 forward $108 $-1 #
coedge $-1 $174 $174 $109 $175 forward $169 $-1 #
edge $-1 $277 0 $277 6.2831853071796004 $174 $278 forward 7 unknown #
face $-1 $279 $280 $38 $-1 $281 forward single #
loop $-1 $-1 $282 $110 #
plane-surface $-1 -129.01766041594595 19.07204884530455 53.571055484393625 0 -1 0 0.83867057594974714 0 -0.54463902268945019 forward_v I I I I #
coedge $-1 $283 $284 $285 $286 reversed $111 $-1 #
coedge $-1 $181 $113 $287 $288 reversed $71 $-1 #
coedge $-1 $113 $180 $283 $289 reversed $71 $-1 #
coedge $-1 $285 $290 $113 $183 forward $280 $-1 #
edge $-1 $291 16.320103745373409 $292 21.599215286597207 $182 $293 forward 7 unknown #
loop $-1 $-1 $189 $114 #
plane-surface $-1 -48.188726462599547 15.255878671182593 1.0801337139146767 -0.83867057594974714 0 0.54463902268945019 0.54463902268945019 0 0.83867057594974714 forward_v I I I I #
loop $-1 $-1 $294 $73 #
coedge $-1 $187 $187 $188 $295 reversed $115 $-1 #
coedge $-1 $188 $188 $187 $295 forward $117 $-1 #
coedge $-1 $189 $189 $118 $190 forward $184 $-1 #
edge $-1 $296 0 $296 6.2831853071796004 $189 $297 forward 7 unknown #
loop $-1 $-1 $196 $119 #
plane-surface $-1 -48.188726462599547 15.255878671182593 1.0801337139146767 -0.83867057594974714 0 0.54463902268945019 0.54463902268945019 0 0.83867057594974714 forward_v I I I I #
loop $-1 $-1 $298 $76 #
coedge $-1 $194 $194 $195 $299 reversed $120 $-1 #
coedge $-1 $195 $195 $194 $299 forward $122 $-1 #
coedge $-1 $196 $196 $123 $197 forward $191 $-1 #
edge $-1 $300 0 $300 6.2831853071796004 $196 $301 forward 7 unknown #
face $-1 $302 $303 $41 $-1 $304 reversed single #
loop $-1 $-1 $305 $124 #
plane-surface $-1 15.215184166544852 12.919789824736423 132.37851731241858 0 1 0 0.51503808176128008 0 0.85716729658548041 forward_v I I I I #
coedge $-1 $306 $307 $308 $309 reversed $125 $-1 #
coedge $-1 $203 $127 $310 $311 reversed $80 $-1 #
coedge $-1 $127 $202 $306 $312 reversed $80 $-1 #
coedge $-1 $308 $313 $127 $205 forward $314 $-1 #
edge $-1 $315 -40.581134379327139 $316 -25.468819861088281 $204 $317 forward 7 unknown #
loop $-1 $-1 $211 $128 #
plane-surface $-1 -34.422874313087782 16.044547067335301 49.76691653673123 0.51503808176128008 0 0.85716729658548041 0.85716729658548041 0 -0.51503808176128008 forward_v I I I I #
loop $-1 $-1 $318 $82 #
coedge $-1 $209 $209 $210 $319 reversed $129 $-1 #
coedge $-1 $210 $210 $209 $319 forward $131 $-1 #
coedge $-1 $211 $211 $132 $212 forward $206 $-1 #
edge $-1 $320 0 $320 6.2831853071796004 $211 $321 forward 7 unknown #
loop $-1 $-1 $218 $133 #
plane-surface $-1 -34.422874313087782 16.044547067335301 49.76691653673123 0.51503808176128008 0 0.85716729658548041 0.85716729658548041 0 -0.51503808176128008 forward_v I I I I #
loop $-1 $-1 $322 $85 #
coedge $-1 $216 $216 $217 $323 reversed $134 $-1 #
coedge $-1 $217 $217 $216 $323 forward $136 $-1 #
coedge $-1 $218 $218 $137 $219 forward $213 $-1 #
edge $-1 $324 0 $324 6.2831853071796004 $218 $325 forward 7 unknown #
face $-1 $326 $327 $33 $-1 $328 reversed single #
loop $-1 $-1 $329 $138 #
plane-surface $-1 -48.188726462599568 0 0 1 0 0 0 0 -1 forward_v I I I I #
coedge $-1 $330 $231 $331 $332 forward $139 $-1 #
coedge $-1 $333 $141 $330 $334 forward $89 $-1 #
coedge $-1 $141 $333 $335 $336 forward $89 $-1 #
coedge $-1 $234 $233 $141 $227 reversed $235 $-1 #
edge $-1 $337 -23.419629880640869 $338 23.419629880640869 $226 $339 forward 7 unknown #
coedge $-1 $143 $142 $340 $341 forward $56 $-1 #
coedge $-1 $342 $343 $142 $230 reversed $327 $-1 #
edge $-1 $237 -48.188726462599568 $344 48.188726462599568 $229 $345 forward 7 unknown #
coedge $-1 $223 $346 $143 $232 reversed $139 $-1 #
edge $-1 $347 -48.188726462599568 $236 48.188726462599568 $231 $348 forward 7 unknown #
coedge $-1 $226 $144 $346 $349 forward $235 $-1 #
coedge $-1 $144 $226 $342 $350 reversed $235 $-1 #
loop $-1 $-1 $233 $326 #
vertex $-1 $145 $351 #
vertex $-1 $145 $352 #
straight-curve $-1 48.188726462599568 0 9.2092528778670477 0 1 0 I I #
face $-1 $353 $354 $34 $-1 $355 forward single #
loop $-1 $-1 $248 $146 #
plane-surface $-1 0 -23.419629880640869 0 0 1 0 0 0 1 forward_v I I I I #
coedge $-1 $356 $357 $358 $359 forward $147 $-1 #
coedge $-1 $358 $149 $151 $250 reversed $93 $-1 #
coedge $-1 $149 $358 $360 $361 reversed $93 $-1 #
coedge $-1 $362 $152 $149 $246 forward $252 $-1 #
edge $-1 $254 1.7680320914774654 $363 5.5501578880855433 $245 $364 forward 7 unknown #
coedge $-1 $151 $150 $356 $365 reversed $59 $-1 #
coedge $-1 $366 $367 $150 $249 forward $240 $-1 #
edge $-1 $368 -48.188726462599568 $253 48.188726462599568 $248 $369 forward 7 unknown #
edge $-1 $370 -48.188726462599568 $254 48.188726462599568 $243 $371 forward 7 unknown #
coedge $-1 $152 $362 $366 $372 forward $252 $-1 #
loop $-1 $-1 $245 $353 #
vertex $-1 $249 $373 #
vertex $-1 $153 $374 #
straight-curve $-1 48.188726462599568 -9.0101241595423716 5.4271270812589698 0 1 0 I I #
face $-1 $-1 $375 $35 $-1 $376 reversed single #
loop $-1 $-1 $160 $154 #
plane-surface $-1 0 0 9.2092528778670477 0 0 1 1 0 0 forward_v I I I I #
coedge $-1 $377 $378 $379 $380 reversed $155 $-1 #
coedge $-1 $381 $157 $159 $266 forward $97 $-1 #
coedge $-1 $157 $381 $377 $382 forward $97 $-1 #
coedge $-1 $379 $160 $157 $263 forward $257 $-1 #
edge $-1 $269 -5.1983549980730324 $383 2.4339853501708824 $262 $384 forward 7 unknown #
coedge $-1 $385 $386 $158 $265 forward $375 $-1 #
edge $-1 $387 -25.705394028282168 $268 -17.576274864329765 $264 $388 forward 7 unknown #
edge $-1 $269 -9.6928632016767757 $387 3.9170575986957569e-014 $159 $389 forward 7 unknown #
coedge $-1 $160 $379 $385 $390 forward $257 $-1 #
vertex $-1 $265 $391 #
vertex $-1 $161 $392 #
straight-curve $-1 -64.508830207972977 -6.5805398220241074 9.2092528778670477 1 0 0 I I #
coedge $-1 $271 $271 $-1 $393 reversed $164 $-1 #
edge $-1 $394 0 $394 6.2831853071796004 $165 $395 forward 7 unknown #
vertex $-1 $168 $396 #
ellipse-curve $-1 -45.549170691987669 -4.3998711510972726 5.1446932958908516 -0.83867057594974714 0 0.54463902268945019 0.2723195113447251 0 0.41933528797487357 1 I I #
coedge $-1 $275 $275 $-1 $397 reversed $171 $-1 #
edge $-1 $398 0 $398 6.2831853071796004 $172 $399 forward 7 unknown #
vertex $-1 $175 $400 #
ellipse-curve $-1 -45.549170691987669 -1.1288681447070203 5.1446932958908516 -0.83867057594974714 0 0.54463902268945019 0.2723195113447251 0 0.41933528797487357 1 I I #
face $-1 $-1 $401 $38 $-1 $402 reversed single #
loop $-1 $-1 $182 $176 #
plane-surface $-1 0 0 9.2092528778670477 0 0 1 1 0 0 forward_v I I I I #
coedge $-1 $403 $404 $405 $406 reversed $177 $-1 #
coedge $-1 $407 $179 $181 $289 forward $111 $-1 #
coedge $-1 $179 $407 $403 $408 forward $111 $-1 #
coedge $-1 $405 $182 $179 $286 forward $280 $-1 #
edge $-1 $292 3.8117691614693392 $409 11.444109509713254 $285 $410 forward 7 unknown #
coedge $-1 $411 $412 $180 $288 forward $401 $-1 #
edge $-1 $413 -25.705394028282168 $291 -17.576274864329765 $287 $414 forward 7 unknown #
edge $-1 $292 -9.6928632016767757 $413 3.9170575986957569e-014 $181 $415 forward 7 unknown #
coedge $-1 $182 $405 $411 $416 forward $280 $-1 #
vertex $-1 $183 $417 #
vertex $-1 $183 $418 #
straight-curve $-1 -64.508830207972977 11.439708497060636 9.2092528778670477 1 0 0 I I #
coedge $-1 $294 $294 $-1 $419 reversed $186 $-1 #
edge $-1 $420 0 $420 6.2831853071796004 $187 $421 forward 7 unknown #
vertex $-1 $190 $422 #
ellipse-curve $-1 -45.549170691987669 13.620377167987471 5.1446932958908516 -0.83867057594974714 0 0.54463902268945019 0.2723195113447251 0 0.41933528797487357 1 I I #
coedge $-1 $298 $298 $-1 $423 reversed $193 $-1 #
edge $-1 $424 0 $424 6.2831853071796004 $194 $425 forward 7 unknown #
vertex $-1 $197 $426 #
ellipse-curve $-1 -45.549170691987669 16.891380174377723 5.1446932958908516 -0.83867057594974714 0 0.54463902268945019 0.2723195113447251 0 0.41933528797487357 1 I I #
face $-1 $-1 $314 $41 $-1 $427 forward single #
loop $-1 $-1 $428 $198 #
plane-surface $-1 48.188726462599568 0 0 -1 0 0 0 0 1 forward_v I I I I #
coedge $-1 $429 $430 $431 $432 reversed $199 $-1 #
coedge $-1 $433 $201 $203 $312 forward $125 $-1 #
coedge $-1 $201 $433 $429 $434 forward $125 $-1 #
coedge $-1 $431 $204 $201 $309 forward $314 $-1 #
edge $-1 $316 -11.147030776266529 $435 -4.8975162910687722 $308 $436 forward 7 unknown #
coedge $-1 $437 $438 $202 $311 forward $303 $-1 #
edge $-1 $439 -66.060400599110693 $315 -56.980005778342246 $310 $440 forward 7 unknown #
edge $-1 $316 78.746922014327183 $439 96.377452925199123 $203 $441 forward 7 unknown #
coedge $-1 $204 $431 $437 $442 forward $314 $-1 #
loop $-1 $-1 $431 $302 #
vertex $-1 $311 $443 #
vertex $-1 $205 $444 #
straight-curve $-1 7.6075920832724258 19.16930430993418 9.2092528778670442 -1 0 0 I I #
coedge $-1 $318 $318 $-1 $445 reversed $208 $-1 #
edge $-1 $446 0 $446 6.2831853071796004 $209 $447 forward 7 unknown #
vertex $-1 $212 $448 #
ellipse-curve $-1 40.632569203480131 14.705365391935786 4.6690554674828268 0.51503808176128008 0 0.85716729658548041 0.4285836482927402 0 -0.25751904088064004 1 I I #
coedge $-1 $322 $322 $-1 $449 reversed $215 $-1 #
edge $-1 $450 0 $450 6.2831853071796004 $216 $451 forward 7 unknown #
vertex $-1 $219 $452 #
ellipse-curve $-1 40.632569203480131 17.383728742734824 4.6690554674828268 0.51503808176128008 0 0.85716729658548041 0.4285836482927402 0 -0.25751904088064004 1 I I #
face $-1 $-1 $235 $33 $-1 $453 reversed single #
loop $-1 $-1 $342 $220 #
plane-surface $-1 0 23.419629880640869 0 0 -1 0 0 0 -1 forward_v I I I I #
coedge $-1 $454 $340 $343 $455 forward $221 $-1 #
coedge $-1 $346 $223 $224 $334 reversed $139 $-1 #
coedge $-1 $340 $454 $223 $332 reversed $221 $-1 #
edge $-1 $347 -9.2092528778670477 $456 9.2092528778670477 $331 $457 forward 7 unknown #
coedge $-1 $225 $224 $454 $458 forward $89 $-1 #
edge $-1 $338 -48.188726462599568 $456 48.188726462599568 $330 $459 forward 7 unknown #
coedge $-1 $343 $342 $225 $336 reversed $327 $-1 #
edge $-1 $460 -48.188726462599568 $337 48.188726462599568 $335 $461 forward 7 unknown #
vertex $-1 $227 $462 #
vertex $-1 $349 $463 #
straight-curve $-1 48.188726462599568 0 -9.2092528778670477 0 -1 0 I I #
coedge $-1 $329 $331 $228 $341 reversed $221 $-1 #
edge $-1 $344 -23.419629880640869 $347 23.419629880640869 $340 $464 forward 7 unknown #
coedge $-1 $335 $229 $234 $350 forward $327 $-1 #
coedge $-1 $229 $335 $329 $455 reversed $327 $-1 #
vertex $-1 $230 $465 #
straight-curve $-1 0 23.419629880640869 9.2092528778670477 -1 0 0 I I #
coedge $-1 $231 $330 $233 $349 reversed $139 $-1 #
vertex $-1 $341 $466 #
straight-curve $-1 0 -23.419629880640869 9.2092528778670477 1 0 0 I I #
edge $-1 $236 -9.2092528778670477 $338 9.2092528778670477 $233 $467 forward 7 unknown #
edge $-1 $237 -9.2092528778670477 $337 9.2092528778670477 $234 $468 forward 7 unknown #
point $-1 48.188726462599568 -23.419629880640869 9.2092528778670477 #
point $-1 48.188726462599568 23.419629880640869 9.2092528778670477 #
face $-1 $-1 $252 $34 $-1 $469 reversed single #
loop $-1 $-1 $360 $239 #
plane-surface $-1 0 0 9.2092528778670477 0 0 1 1 0 0 forward_v I I I I #
coedge $-1 $470 $242 $247 $365 forward $147 $-1 #
coedge $-1 $242 $470 $471 $472 reversed $147 $-1 #
coedge $-1 $244 $243 $242 $359 reversed $93 $-1 #
edge $-1 $473 -5.5501578880855433 $370 -1.7680320914774654 $242 $474 forward 7 unknown #
coedge $-1 $471 $475 $244 $361 forward $354 $-1 #
edge $-1 $363 -48.188726462599568 $473 48.188726462599568 $360 $476 forward 7 unknown #
coedge $-1 $251 $245 $475 $477 reversed $252 $-1 #
vertex $-1 $246 $478 #
straight-curve $-1 48.188726462599568 -12.620866757528615 3.6590949897815044 0 0 1 I I #
edge $-1 $370 3.6107425979862438 $368 14.409505721098498 $356 $479 forward 7 unknown #
coedge $-1 $480 $248 $251 $372 reversed $240 $-1 #
coedge $-1 $248 $480 $470 $481 forward $240 $-1 #
vertex $-1 $249 $482 #
straight-curve $-1 0 -23.419629880640869 5.4271270812589698 1 0 0 I I #
vertex $-1 $365 $483 #
straight-curve $-1 0 -12.620866757528615 5.4271270812589698 1 0 0 I I #
edge $-1 $484 -9.2092528778670477 $253 -5.4271270812589698 $251 $485 forward 7 unknown #
point $-1 48.188726462599568 -23.419629880640869 5.4271270812589698 #
point $-1 48.188726462599568 -12.620866757528615 5.4271270812589698 #
loop $-1 $-1 $264 $256 #
plane-surface $-1 -48.188726462599568 0 0 1 0 0 0 0 -1 forward_v I I I I #
coedge $-1 $378 $259 $261 $382 reversed $155 $-1 #
coedge $-1 $259 $377 $486 $487 reversed $155 $-1 #
coedge $-1 $267 $262 $259 $380 forward $257 $-1 #
edge $-1 $383 -21.599215286597207 $488 -16.320103745373409 $379 $489 forward 7 unknown #
coedge $-1 $261 $260 $386 $490 reversed $97 $-1 #
edge $-1 $491 -3.9170575986957569e-014 $383 9.6928632016767757 $377 $492 forward 7 unknown #
vertex $-1 $263 $493 #
straight-curve $-1 -42.90961492137577 -1.382184823951075 9.2092528778670477 0 1 0 I I #
coedge $-1 $486 $264 $267 $390 reversed $375 $-1 #
coedge $-1 $264 $486 $381 $490 forward $375 $-1 #
vertex $-1 $265 $494 #
straight-curve $-1 -48.188726462599568 -6.5805398220241074 26.785527742196813 0 0 1 I I #
straight-curve $-1 -48.188726462599547 -6.5805398220241074 1.0801337139146767 -0.54463902268945019 0 -0.83867057594974714 I I #
edge $-1 $488 -1.0518005262198074 $268 6.5805398220241074 $385 $495 forward 7 unknown #
point $-1 -48.188726462599568 -6.5805398220241074 9.2092528778670477 #
point $-1 -42.90961492137577 -6.5805398220241074 9.2092528778670477 #
edge $-1 $496 1 $496 0 $271 $-1 forward 7 unknown #
vertex $-1 $272 $497 #
ellipse-curve $-1 -44.710500116037935 -4.3998711510972726 4.6000542732014109 -0.83867057594974714 0 0.54463902268945019 0.2723195113447251 0 0.41933528797487357 1 I I #
point $-1 -45.276851180642957 -4.3998711510972726 5.5640285838657348 #
edge $-1 $498 1 $498 0 $275 $-1 forward 7 unknown #
vertex $-1 $276 $499 #
ellipse-curve $-1 -44.710500116037935 -1.1288681447070203 4.6000542732014109 -0.83867057594974714 0 0.54463902268945019 0.2723195113447251 0 0.41933528797487357 1 I I #
point $-1 -45.276851180642957 -1.1288681447070203 5.5640285838657348 #
loop $-1 $-1 $287 $279 #
plane-surface $-1 -48.188726462599568 0 0 1 0 0 0 0 -1 forward_v I I I I #
coedge $-1 $404 $282 $284 $408 reversed $177 $-1 #
coedge $-1 $282 $403 $500 $501 reversed $177 $-1 #
coedge $-1 $290 $285 $282 $406 forward $280 $-1 #
edge $-1 $409 -21.599215286597207 $502 -16.320103745373409 $405 $503 forward 7 unknown #
coedge $-1 $284 $283 $412 $504 reversed $111 $-1 #
edge $-1 $505 -3.9170575986957569e-014 $409 9.6928632016767757 $403 $506 forward 7 unknown #
vertex $-1 $286 $507 #
straight-curve $-1 -42.90961492137577 7.6279393355912966 9.2092528778670477 0 1 0 I I #
coedge $-1 $500 $287 $290 $416 reversed $401 $-1 #
coedge $-1 $287 $500 $407 $504 forward $401 $-1 #
vertex $-1 $288 $508 #
straight-curve $-1 -48.188726462599568 11.439708497060636 26.785527742196813 0 0 1 I I #
straight-curve $-1 -48.188726462599547 11.439708497060636 1.0801337139146767 -0.54463902268945019 0 -0.83867057594974714 I I #
edge $-1 $502 -19.07204884530455 $291 -11.439708497060636 $411 $509 forward 7 unknown #
point $-1 -48.188726462599568 11.439708497060636 9.2092528778670477 #
point $-1 -42.90961492137577 11.439708497060636 9.2092528778670477 #
edge $-1 $510 1 $510 0 $294 $-1 forward 7 unknown #
vertex $-1 $295 $511 #
ellipse-curve $-1 -44.710500116037935 13.620377167987471 4.6000542732014109 -0.83867057594974714 0 0.54463902268945019 0.2723195113447251 0 0.41933528797487357 1 I I #
point $-1 -45.276851180642957 13.620377167987471 5.5640285838657348 #
edge $-1 $512 1 $512 0 $298 $-1 forward 7 unknown #
vertex $-1 $299 $513 #
ellipse-curve $-1 -44.710500116037935 16.891380174377723 4.6000542732014109 -0.83867057594974714 0 0.54463902268945019 0.2723195113447251 0 0.41933528797487357 1 I I #
point $-1 -45.276851180642957 16.891380174377723 5.5640285838657348 #
plane-surface $-1 0 0 9.2092528778670477 0 0 1 1 0 0 forward_v I I I I #
coedge $-1 $438 $437 $430 $514 forward $303 $-1 #
coedge $-1 $430 $305 $307 $434 reversed $199 $-1 #
coedge $-1 $305 $429 $428 $514 reversed $199 $-1 #
coedge $-1 $313 $308 $305 $432 forward $314 $-1 #
edge $-1 $435 25.468819861088281 $515 40.581134379327139 $431 $516 forward 7 unknown #
coedge $-1 $307 $306 $438 $517 reversed $125 $-1 #
edge $-1 $518 -96.377452925199123 $435 -78.746922014327183 $429 $519 forward 7 unknown #
vertex $-1 $309 $520 #
straight-curve $-1 33.076411944360693 8.0222735336676507 9.2092528778670477 0 -1 0 I I #
coedge $-1 $428 $310 $313 $442 reversed $303 $-1 #
coedge $-1 $310 $428 $433 $517 forward $303 $-1 #
vertex $-1 $311 $521 #
straight-curve $-1 48.188726462599568 19.16930430993418 66.18925865620929 0 0 1 I I #
straight-curve $-1 -34.422874313087782 19.16930430993418 49.76691653673123 0.85716729658548041 0 -0.51503808176128008 I I #
edge $-1 $515 12.919789824736423 $315 19.16930430993418 $437 $522 forward 7 unknown #
point $-1 48.188726462599568 19.16930430993418 9.2092528778670477 #
point $-1 33.076411944360707 19.16930430993418 9.2092528778670442 #
edge $-1 $523 1 $523 0 $318 $-1 forward 7 unknown #
vertex $-1 $319 $524 #
ellipse-curve $-1 39.717361605938933 14.705365391935786 3.1458942683804896 0.51503808176128008 0 0.85716729658548041 0.4285836482927402 0 -0.25751904088064004 1 I I #
point $-1 41.061152851772867 14.705365391935786 4.4115364266021846 #
edge $-1 $525 1 $525 0 $322 $-1 forward 7 unknown #
vertex $-1 $323 $526 #
ellipse-curve $-1 39.717361605938933 17.383728742734824 3.1458942683804896 0.51503808176128008 0 0.85716729658548041 0.4285836482927402 0 -0.25751904088064004 1 I I #
point $-1 41.061152851772867 17.383728742734824 4.4115364266021846 #
plane-surface $-1 48.188726462599568 0 0 -1 0 0 0 0 1 forward_v I I I I #
coedge $-1 $331 $329 $333 $458 reversed $221 $-1 #
edge $-1 $344 -9.2092528778670477 $460 9.2092528778670477 $343 $527 forward 7 unknown #
vertex $-1 $458 $528 #
straight-curve $-1 -48.188726462599568 -23.419629880640869 0 0 0 -1 I I #
edge $-1 $456 -23.419629880640869 $460 23.419629880640869 $454 $529 forward 7 unknown #
straight-curve $-1 0 -23.419629880640869 -9.2092528778670477 -1 0 0 I I #
vertex $-1 $336 $530 #
straight-curve $-1 0 23.419629880640869 -9.2092528778670477 1 0 0 I I #
point $-1 48.188726462599568 23.419629880640869 -9.2092528778670477 #
point $-1 48.188726462599568 -23.419629880640869 -9.2092528778670477 #
straight-curve $-1 -48.188726462599568 0 9.2092528778670477 0 -1 0 I I #
point $-1 -48.188726462599568 23.419629880640869 9.2092528778670477 #
point $-1 -48.188726462599568 -23.419629880640869 9.2092528778670477 #
straight-curve $-1 48.188726462599568 -23.419629880640869 0 0 0 -1 I I #
straight-curve $-1 48.188726462599568 23.419629880640869 0 0 0 -1 I I #
plane-surface $-1 48.188726462599568 0 0 -1 0 0 0 0 1 forward_v I I I I #
coedge $-1 $357 $356 $367 $481 reversed $147 $-1 #
coedge $-1 $531 $360 $357 $472 forward $354 $-1 #
edge $-1 $473 12.620866757528615 $532 23.419629880640869 $357 $533 forward 7 unknown #
vertex $-1 $472 $534 #
straight-curve $-1 -48.188726462599568 -12.620866757528615 3.6590949897815044 0 0 -1 I I #
coedge $-1 $360 $531 $362 $477 forward $354 $-1 #
straight-curve $-1 0 -12.620866757528615 9.2092528778670477 -1 0 0 I I #
edge $-1 $484 -23.419629880640869 $363 -12.620866757528615 $362 $535 forward 7 unknown #
point $-1 48.188726462599568 -12.620866757528615 9.2092528778670477 #
straight-curve $-1 -48.188726462599568 -9.0101241595423716 5.4271270812589698 0 -1 0 I I #
coedge $-1 $367 $366 $531 $536 reversed $240 $-1 #
edge $-1 $532 -9.2092528778670477 $368 -5.4271270812589698 $470 $537 forward 7 unknown #
point $-1 -48.188726462599568 -23.419629880640869 5.4271270812589698 #
point $-1 -48.188726462599568 -12.620866757528615 5.4271270812589698 #
vertex $-1 $477 $538 #
straight-curve $-1 48.188726462599568 -23.419629880640869 0 0 0 -1 I I #
coedge $-1 $386 $385 $378 $487 forward $375 $-1 #
edge $-1 $488 17.576274864329765 $491 25.705394028282168 $486 $539 forward 7 unknown #
vertex $-1 $390 $540 #
straight-curve $-1 -64.508830207972977 1.0518005262198074 9.2092528778670477 -1 0 0 I I #
edge $-1 $491 -2.4339853501708824 $387 5.1983549980730324 $386 $541 forward 7 unknown #
vertex $-1 $490 $542 #
straight-curve $-1 -48.188726462599547 1.0518005262198074 1.0801337139146767 0.54463902268945019 0 0.83867057594974714 I I #
point $-1 -42.90961492137577 1.0518005262198074 9.2092528778670477 #
point $-1 -48.188726462599568 -6.5805398220241074 1.0801337139146439 #
straight-curve $-1 -48.188726462599568 0 9.2092528778670477 0 -1 0 I I #
vertex $-1 $393 $543 #
point $-1 -44.438180604693208 -4.3998711510972726 5.0193895611762844 #
vertex $-1 $397 $544 #
point $-1 -44.438180604693208 -1.1288681447070203 5.0193895611762844 #
coedge $-1 $412 $411 $404 $501 forward $401 $-1 #
edge $-1 $502 17.576274864329765 $505 25.705394028282168 $500 $545 forward 7 unknown #
vertex $-1 $416 $546 #
straight-curve $-1 -64.508830207972977 19.07204884530455 9.2092528778670477 -1 0 0 I I #
edge $-1 $505 -11.444109509713254 $413 -3.8117691614693392 $412 $547 forward 7 unknown #
vertex $-1 $504 $548 #
straight-curve $-1 -48.188726462599547 19.07204884530455 1.0801337139146767 0.54463902268945019 0 0.83867057594974714 I I #
point $-1 -42.90961492137577 19.07204884530455 9.2092528778670477 #
point $-1 -48.188726462599568 11.439708497060636 1.0801337139146439 #
straight-curve $-1 -48.188726462599568 0 9.2092528778670477 0 -1 0 I I #
vertex $-1 $419 $549 #
point $-1 -44.438180604693208 13.620377167987471 5.0193895611762844 #
vertex $-1 $423 $550 #
point $-1 -44.438180604693208 16.891380174377723 5.0193895611762844 #
edge $-1 $515 56.980005778342246 $518 66.060400599110693 $428 $551 forward 7 unknown #
vertex $-1 $442 $552 #
straight-curve $-1 7.6075920832724258 12.919789824736423 9.2092528778670442 1 0 0 I I #
edge $-1 $518 4.8975162910687722 $439 11.147030776266529 $438 $553 forward 7 unknown #
vertex $-1 $517 $554 #
straight-curve $-1 -34.422874313087782 12.919789824736423 49.76691653673123 -0.85716729658548041 0 0.51503808176128008 I I #
point $-1 33.076411944360707 12.919789824736423 9.2092528778670442 #
point $-1 48.188726462599568 19.16930430993418 0.1288580570985971 #
straight-curve $-1 48.188726462599568 0 9.2092528778670477 0 1 0 I I #
vertex $-1 $445 $555 #
point $-1 40.145945254231677 14.705365391935786 2.8883752274998495 #
vertex $-1 $449 $556 #
point $-1 40.145945254231677 17.383728742734824 2.8883752274998495 #
straight-curve $-1 -48.188726462599568 23.419629880640869 0 0 0 -1 I I #
point $-1 -48.188726462599568 -23.419629880640869 -9.2092528778670477 #
straight-curve $-1 -48.188726462599568 0 -9.2092528778670477 0 1 0 I I #
point $-1 -48.188726462599568 23.419629880640869 -9.2092528778670477 #
coedge $-1 $475 $471 $480 $536 forward $354 $-1 #
vertex $-1 $472 $557 #
straight-curve $-1 -48.188726462599568 0 9.2092528778670477 0 -1 0 I I #
point $-1 -48.188726462599568 -12.620866757528615 9.2092528778670477 #
straight-curve $-1 48.188726462599568 0 9.2092528778670477 0 1 0 I I #
edge $-1 $532 -48.188726462599568 $484 48.188726462599568 $480 $558 forward 7 unknown #
straight-curve $-1 -48.188726462599568 -23.419629880640869 0 0 0 -1 I I #
point $-1 48.188726462599568 -23.419629880640869 9.2092528778670477 #
straight-curve $-1 -48.188726462599568 1.0518005262198074 26.785527742196813 0 0 -1 I I #
point $-1 -48.188726462599568 1.0518005262198074 9.2092528778670477 #
straight-curve $-1 -48.188726462599568 -1.382184823951075 1.0801337139146516 0 -1 0 I I #
point $-1 -48.188726462599568 1.0518005262198074 1.0801337139146439 #
point $-1 -44.29116482806306 -4.3998711510972726 4.3277347618566866 #
point $-1 -44.29116482806306 -1.1288681447070203 4.3277347618566866 #
straight-curve $-1 -48.188726462599568 19.07204884530455 26.785527742196813 0 0 -1 I I #
point $-1 -48.188726462599568 19.07204884530455 9.2092528778670477 #
straight-curve $-1 -48.188726462599568 7.6279393355912966 1.0801337139146516 0 -1 0 I I #
point $-1 -48.188726462599568 19.07204884530455 1.0801337139146439 #
point $-1 -44.29116482806306 13.620377167987471 4.3277347618566866 #
point $-1 -44.29116482806306 16.891380174377723 4.3277347618566866 #
straight-curve $-1 48.188726462599568 12.919789824736423 66.18925865620929 0 0 -1 I I #
point $-1 48.188726462599568 12.919789824736423 9.2092528778670477 #
straight-curve $-1 48.188726462599561 8.0222735336676507 0.1288580570985971 0 1 0 I I #
point $-1 48.188726462599568 12.919789824736423 0.1288580570985971 #
point $-1 39.459842565058295 14.705365391935786 2.7173106200877495 #
point $-1 39.459842565058295 17.383728742734824 2.7173106200877495 #
point $-1 -48.188726462599568 -23.419629880640869 9.2092528778670477 #
straight-curve $-1 0 -23.419629880640869 9.2092528778670477 1 0 0 I I #
End-of-ACIS-data 