500 0 10 0           
7 Unknown 11 ACIS 5.0 NT 24 Thu Mar 25 20:43:17 1999 
-1 9.9999999999999995e-007 1e-010 
body $-1 $10 $-1 $11 #
body $-1 $12 $-1 $13 #
body $-1 $14 $-1 $15 #
body $-1 $16 $-1 $17 #
body $-1 $18 $-1 $19 #
body $-1 $20 $-1 $21 #
body $-1 $22 $-1 $23 #
body $-1 $24 $-1 $25 #
body $-1 $26 $-1 $27 #
body $-1 $28 $-1 $29 #
lump $-1 $-1 $30 $0 #
transform $-1 1 0 0 0 1 0 0 0 1 49.681691946165351 26.88121136667851 11.598700847362004 1 rotate no_reflect no_shear #
lump $-1 $-1 $31 $1 #
transform $-1 1 0 0 0 1 0 0 0 1 49.681691946165351 26.88121136667851 11.598700847362004 1 rotate no_reflect no_shear #
lump $-1 $-1 $32 $2 #
transform $-1 1 0 0 0 1 0 0 0 1 49.681691946165351 26.88121136667851 11.598700847362004 1 rotate no_reflect no_shear #
lump $-1 $-1 $33 $3 #
transform $-1 1 0 0 0 1 0 0 0 1 49.681691946165351 26.88121136667851 11.598700847362004 1 rotate no_reflect no_shear #
lump $-1 $-1 $34 $4 #
transform $-1 1 0 0 0 1 0 0 0 1 49.681691946165351 26.88121136667851 11.598700847362004 1 rotate no_reflect no_shear #
lump $-1 $-1 $35 $5 #
transform $-1 1 0 0 0 1 0 0 0 1 49.681691946165351 26.88121136667851 11.598700847362004 1 rotate no_reflect no_shear #
lump $-1 $-1 $36 $6 #
transform $-1 1 0 0 0 1 0 0 0 1 49.681691946165351 26.88121136667851 11.598700847362004 1 rotate no_reflect no_shear #
lump $-1 $-1 $37 $7 #
transform $-1 1 0 0 0 1 0 0 0 1 49.681691946165351 26.88121136667851 11.598700847362004 1 rotate no_reflect no_shear #
lump $-1 $-1 $38 $8 #
transform $-1 1 0 0 0 1 0 0 0 1 49.681691946165351 26.88121136667851 11.598700847362004 1 rotate no_reflect no_shear #
lump $-1 $-1 $39 $9 #
transform $-1 1 0 0 0 1 0 0 0 1 49.681691946165351 26.88121136667851 11.598700847362004 1 rotate no_reflect no_shear #
shell $-1 $-1 $-1 $40 $-1 $10 #
shell $-1 $-1 $-1 $41 $-1 $12 #
shell $-1 $-1 $-1 $42 $-1 $14 #
shell $-1 $-1 $-1 $43 $-1 $16 #
shell $-1 $-1 $-1 $44 $-1 $18 #
shell $-1 $-1 $-1 $45 $-1 $20 #
shell $-1 $-1 $-1 $46 $-1 $22 #
shell $-1 $-1 $-1 $47 $-1 $24 #
shell $-1 $-1 $-1 $48 $-1 $26 #
shell $-1 $-1 $-1 $49 $-1 $28 #
face $-1 $50 $51 $30 $-1 $52 forward single #
face $-1 $53 $54 $31 $-1 $55 reversed single #
face $-1 $56 $57 $32 $-1 $58 reversed single #
face $-1 $59 $60 $33 $-1 $61 reversed single #
face $-1 $62 $63 $34 $-1 $64 forward single #
face $-1 $65 $66 $35 $-1 $67 forward single #
face $-1 $68 $69 $36 $-1 $70 reversed single #
face $-1 $71 $72 $37 $-1 $73 forward single #
face $-1 $74 $75 $38 $-1 $76 forward single #
face $-1 $77 $78 $39 $-1 $79 forward single #
face $-1 $80 $81 $30 $-1 $82 reversed single #
loop $-1 $-1 $83 $40 #
plane-surface $-1 0 0 11.598700847362004 0 0 1 1 0 0 forward_v I I I I #
face $-1 $84 $85 $31 $-1 $86 reversed single #
loop $-1 $-1 $87 $41 #
plane-surface $-1 0 -22.693275775465537 6.8698064078268644 0 0 1 1 0 0 forward_v I I I I #
face $-1 $88 $89 $32 $-1 $90 reversed single #
loop $-1 $-1 $91 $42 #
plane-surface $-1 0 22.693275775465541 6.8698064078268644 0 0 1 1 0 0 forward_v I I I I #
face $-1 $92 $93 $33 $-1 $94 reversed single #
loop $-1 $-1 $95 $43 #
plane-surface $-1 44.777579752923948 -9.1509650466733241 141.43421227797145 0 -1 0 -0.68199836817093118 0 -0.7313536940579346 forward_v I I I I #
face $-1 $96 $97 $34 $-1 $98 forward single #
loop $-1 $99 $100 $44 #
cone-surface $-1 43.351340478855832 -15.83266157351564 5.6050904452101156 -0.68199836817093118 0 -0.7313536940579346 0.7313536940579346 0 -0.68199836817093118 1 I I 0 1 1 forward I I I I #
face $-1 $101 $102 $35 $-1 $103 forward single #
loop $-1 $104 $105 $45 #
cone-surface $-1 43.351340478855832 -11.823643657410251 5.6050904452101156 -0.68199836817093118 0 -0.7313536940579346 0.7313536940579346 0 -0.68199836817093118 1 I I 0 1 1 forward I I I I #
face $-1 $106 $107 $36 $-1 $108 reversed single #
loop $-1 $-1 $109 $46 #
plane-surface $-1 -122.35147138242735 2.7752265678302805 74.45027675573553 0 1 0 -0.73135370988377701 0 0.68199835119979291 forward_v I I I I #
face $-1 $110 $111 $37 $-1 $112 forward single #
loop $-1 $113 $114 $47 #
cone-surface $-1 -46.9477197380292 4.8690932529738511 8.728793569176144 0.73135370988377701 0 -0.68199835119979291 0.34099917559989645 0 0.36567685494188851 1 I I 0 1 0.5 forward I I I I #
face $-1 $115 $116 $38 $-1 $117 forward single #
loop $-1 $118 $119 $48 #
cone-surface $-1 -46.9477197380292 8.0098932806892158 8.728793569176144 0.73135370988377701 0 -0.68199835119979291 0.34099917559989645 0 0.36567685494188851 1 I I 0 1 0.5 forward I I I I #
face $-1 $120 $121 $39 $-1 $122 forward single #
loop $-1 $123 $124 $49 #
cone-surface $-1 -46.9477197380292 11.150693308404573 8.728793569176144 0.73135370988377701 0 -0.68199835119979291 0.34099917559989645 0 0.36567685494188851 1 I I 0 1 0.5 forward I I I I #
face $-1 $125 $126 $30 $-1 $127 reversed single #
loop $-1 $-1 $128 $50 #
plane-surface $-1 0 0 -11.598700847362004 0 0 1 1 0 0 forward_v I I I I #
coedge $-1 $129 $130 $131 $132 forward $51 $-1 #
face $-1 $133 $134 $31 $-1 $135 reversed single #
loop $-1 $-1 $136 $53 #
plane-surface $-1 0 -18.505340184252564 9.234253627594434 0 -1 0 0 0 -1 forward_v I I I I #
coedge $-1 $137 $138 $139 $140 reversed $54 $-1 #
face $-1 $141 $142 $32 $-1 $143 forward single #
loop $-1 $-1 $144 $56 #
plane-surface $-1 0 18.505340184252567 9.234253627594434 0 1 0 0 0 1 forward_v I I I I #
coedge $-1 $145 $146 $147 $148 reversed $57 $-1 #
face $-1 $149 $150 $33 $-1 $151 forward single #
loop $-1 $-1 $152 $59 #
plane-surface $-1 -22.988085917587377 -13.828152615462944 68.764434414218712 0.68199836817093118 0 0.7313536940579346 0.7313536940579346 0 -0.68199836817093118 forward_v I I I I #
coedge $-1 $153 $154 $155 $156 reversed $60 $-1 #
face $-1 $-1 $157 $34 $-1 $158 forward single #
loop $-1 $159 $160 $62 #
cone-surface $-1 42.36350745930077 -15.83266157351564 4.545769247856569 -0.68199836817093118 0 -0.7313536940579346 0.3656768470289673 0 -0.34099918408546559 1 I I -0.70710678118654691 0.70710678118654813 0.5 forward I I I I #
loop $-1 $-1 $161 $44 #
coedge $-1 $100 $100 $162 $163 reversed $63 $-1 #
face $-1 $-1 $164 $35 $-1 $165 forward single #
loop $-1 $166 $167 $65 #
cone-surface $-1 42.36350745930077 -11.823643657410251 4.545769247856569 -0.68199836817093118 0 -0.7313536940579346 0.3656768470289673 0 -0.34099918408546559 1 I I -0.70710678118654691 0.70710678118654813 0.5 forward I I I I #
loop $-1 $-1 $168 $45 #
coedge $-1 $105 $105 $169 $170 reversed $66 $-1 #
face $-1 $171 $172 $36 $-1 $173 reversed single #
loop $-1 $-1 $174 $68 #
plane-surface $-1 -49.681691946165358 8.0098932806892158 6.684612771533935 -0.73135370988377701 0 0.68199835119979291 0.68199835119979291 0 0.73135370988377701 forward_v I I I I #
coedge $-1 $175 $176 $177 $178 reversed $69 $-1 #
face $-1 $-1 $179 $37 $-1 $180 forward single #
loop $-1 $181 $182 $71 #
cone-surface $-1 -46.322139679414661 4.8690932529738511 8.14543074110437 0.73135370988377701 0 -0.68199835119979291 0.17049958779994823 0 0.18283842747094425 1 I I -0.70710678118654746 0.70710678118654746 0.25 forward I I I I #
loop $-1 $-1 $183 $47 #
coedge $-1 $114 $114 $184 $185 reversed $72 $-1 #
face $-1 $-1 $186 $38 $-1 $187 forward single #
loop $-1 $188 $189 $74 #
cone-surface $-1 -46.322139679414661 8.0098932806892158 8.14543074110437 0.73135370988377701 0 -0.68199835119979291 0.17049958779994823 0 0.18283842747094425 1 I I -0.70710678118654746 0.70710678118654746 0.25 forward I I I I #
loop $-1 $-1 $190 $48 #
coedge $-1 $119 $119 $191 $192 reversed $75 $-1 #
face $-1 $-1 $193 $39 $-1 $194 forward single #
loop $-1 $195 $196 $77 #
cone-surface $-1 -46.322139679414661 11.150693308404573 8.14543074110437 0.73135370988377701 0 -0.68199835119979291 0.17049958779994823 0 0.18283842747094425 1 I I -0.70710678118654746 0.70710678118654746 0.25 forward I I I I #
loop $-1 $-1 $197 $49 #
coedge $-1 $124 $124 $198 $199 reversed $78 $-1 #
face $-1 $200 $201 $30 $-1 $202 reversed single #
loop $-1 $-1 $203 $80 #
plane-surface $-1 0 -26.88121136667851 0 0 1 0 0 0 1 forward_v I I I I #
coedge $-1 $204 $205 $206 $207 forward $81 $-1 #
coedge $-1 $208 $83 $209 $210 forward $51 $-1 #
coedge $-1 $83 $208 $211 $212 forward $51 $-1 #
coedge $-1 $213 $214 $83 $132 reversed $215 $-1 #
edge $-1 $216 -26.88121136667851 $217 26.88121136667851 $131 $218 forward 7 unknown #
face $-1 $219 $220 $31 $-1 $221 reversed single #
loop $-1 $-1 $222 $84 #
plane-surface $-1 -49.681691946165351 0 0 1 0 0 0 0 -1 forward_v I I I I #
coedge $-1 $223 $224 $138 $225 reversed $85 $-1 #
coedge $-1 $226 $87 $227 $228 reversed $54 $-1 #
coedge $-1 $87 $226 $136 $225 forward $54 $-1 #
coedge $-1 $229 $230 $87 $140 forward $231 $-1 #
edge $-1 $232 -15.534573478945742 $233 -7.1587022965197953 $139 $234 forward 7 unknown #
face $-1 $235 $236 $32 $-1 $237 reversed single #
loop $-1 $-1 $238 $88 #
plane-surface $-1 0 0 11.598700847362004 0 0 1 1 0 0 forward_v I I I I #
coedge $-1 $239 $240 $241 $242 reversed $89 $-1 #
coedge $-1 $243 $91 $239 $244 forward $57 $-1 #
coedge $-1 $91 $243 $245 $246 reversed $57 $-1 #
coedge $-1 $247 $248 $91 $148 forward $236 $-1 #
edge $-1 $249 7.1587022965197971 $250 15.534573478945743 $147 $251 forward 7 unknown #
face $-1 $252 $253 $33 $-1 $254 forward single #
loop $-1 $-1 $155 $92 #
plane-surface $-1 0 0 11.598700847362004 0 0 1 1 0 0 forward_v I I I I #
coedge $-1 $255 $256 $257 $258 reversed $93 $-1 #
coedge $-1 $154 $95 $259 $260 reversed $60 $-1 #
coedge $-1 $95 $153 $255 $261 reversed $60 $-1 #
coedge $-1 $257 $262 $95 $156 forward $150 $-1 #
edge $-1 $263 -27.292902069703377 $264 -15.925866806023524 $155 $265 forward 7 unknown #
loop $-1 $-1 $162 $96 #
plane-surface $-1 -22.988085917587377 -13.828152615462944 68.764434414218712 0.68199836817093118 0 0.7313536940579346 0.7313536940579346 0 -0.68199836817093118 forward_v I I I I #
loop $-1 $-1 $266 $62 #
coedge $-1 $160 $160 $161 $267 reversed $97 $-1 #
coedge $-1 $161 $161 $160 $267 forward $99 $-1 #
coedge $-1 $162 $162 $100 $163 forward $157 $-1 #
edge $-1 $268 0 $268 6.2831853071796004 $162 $269 forward 7 unknown #
loop $-1 $-1 $169 $101 #
plane-surface $-1 -22.988085917587377 -13.828152615462944 68.764434414218712 0.68199836817093118 0 0.7313536940579346 0.7313536940579346 0 -0.68199836817093118 forward_v I I I I #
loop $-1 $-1 $270 $65 #
coedge $-1 $167 $167 $168 $271 reversed $102 $-1 #
coedge $-1 $168 $168 $167 $271 forward $104 $-1 #
coedge $-1 $169 $169 $105 $170 forward $164 $-1 #
edge $-1 $272 0 $272 6.2831853071796004 $169 $273 forward 7 unknown #
face $-1 $274 $275 $36 $-1 $276 reversed single #
loop $-1 $-1 $277 $106 #
plane-surface $-1 -122.35147138242735 13.244559993548151 74.45027675573553 0 -1 0 0.73135370988377701 0 -0.68199835119979291 forward_v I I I I #
coedge $-1 $278 $279 $280 $281 reversed $107 $-1 #
coedge $-1 $176 $109 $282 $283 reversed $69 $-1 #
coedge $-1 $109 $175 $278 $284 reversed $69 $-1 #
coedge $-1 $280 $285 $109 $178 forward $286 $-1 #
edge $-1 $287 11.494043745048323 $288 16.076504899033431 $177 $289 forward 7 unknown #
loop $-1 $-1 $184 $110 #
plane-surface $-1 -49.681691946165358 8.0098932806892158 6.684612771533935 -0.73135370988377701 0 0.68199835119979291 0.68199835119979291 0 0.73135370988377701 forward_v I I I I #
loop $-1 $-1 $290 $71 #
coedge $-1 $182 $182 $183 $291 reversed $111 $-1 #
coedge $-1 $183 $183 $182 $291 forward $113 $-1 #
coedge $-1 $184 $184 $114 $185 forward $179 $-1 #
edge $-1 $292 0 $292 6.2831853071796004 $184 $293 forward 7 unknown #
loop $-1 $-1 $191 $115 #
plane-surface $-1 -49.681691946165358 8.0098932806892158 6.684612771533935 -0.73135370988377701 0 0.68199835119979291 0.68199835119979291 0 0.73135370988377701 forward_v I I I I #
loop $-1 $-1 $294 $74 #
coedge $-1 $189 $189 $190 $295 reversed $116 $-1 #
coedge $-1 $190 $190 $189 $295 forward $118 $-1 #
coedge $-1 $191 $191 $119 $192 forward $186 $-1 #
edge $-1 $296 0 $296 6.2831853071796004 $191 $297 forward 7 unknown #
loop $-1 $-1 $198 $120 #
plane-surface $-1 -49.681691946165358 8.0098932806892158 6.684612771533935 -0.73135370988377701 0 0.68199835119979291 0.68199835119979291 0 0.73135370988377701 forward_v I I I I #
loop $-1 $-1 $298 $77 #
coedge $-1 $196 $196 $197 $299 reversed $121 $-1 #
coedge $-1 $197 $197 $196 $299 forward $123 $-1 #
coedge $-1 $198 $198 $124 $199 forward $193 $-1 #
edge $-1 $300 0 $300 6.2831853071796004 $198 $301 forward 7 unknown #
face $-1 $302 $303 $30 $-1 $304 reversed single #
loop $-1 $-1 $305 $125 #
plane-surface $-1 -49.681691946165351 0 0 1 0 0 0 0 -1 forward_v I I I I #
coedge $-1 $306 $211 $307 $308 forward $126 $-1 #
coedge $-1 $309 $128 $306 $310 forward $81 $-1 #
coedge $-1 $128 $309 $311 $312 forward $81 $-1 #
coedge $-1 $214 $213 $128 $207 reversed $215 $-1 #
edge $-1 $313 -26.88121136667851 $314 26.88121136667851 $206 $315 forward 7 unknown #
coedge $-1 $130 $129 $316 $317 forward $51 $-1 #
coedge $-1 $318 $319 $129 $210 reversed $303 $-1 #
edge $-1 $217 -49.681691946165351 $320 49.681691946165351 $209 $321 forward 7 unknown #
coedge $-1 $203 $322 $130 $212 reversed $126 $-1 #
edge $-1 $323 -49.681691946165351 $216 49.681691946165351 $211 $324 forward 7 unknown #
coedge $-1 $206 $131 $322 $325 forward $215 $-1 #
coedge $-1 $131 $206 $318 $326 reversed $215 $-1 #
loop $-1 $-1 $213 $302 #
vertex $-1 $132 $327 #
vertex $-1 $132 $328 #
straight-curve $-1 49.681691946165351 0 11.598700847362004 0 1 0 I I #
face $-1 $329 $330 $31 $-1 $331 forward single #
loop $-1 $-1 $227 $133 #
plane-surface $-1 0 -26.88121136667851 0 0 1 0 0 0 1 forward_v I I I I #
coedge $-1 $332 $333 $223 $334 forward $134 $-1 #
coedge $-1 $335 $136 $222 $334 reversed $85 $-1 #
coedge $-1 $136 $335 $229 $336 reversed $85 $-1 #
edge $-1 $337 -49.681691946165351 $233 49.681691946165351 $136 $338 forward 7 unknown #
coedge $-1 $138 $137 $332 $339 reversed $54 $-1 #
coedge $-1 $340 $341 $137 $228 forward $220 $-1 #
edge $-1 $342 -49.681691946165351 $232 49.681691946165351 $227 $343 forward 7 unknown #
coedge $-1 $344 $139 $224 $336 forward $231 $-1 #
coedge $-1 $139 $344 $340 $345 forward $231 $-1 #
loop $-1 $-1 $229 $329 #
vertex $-1 $228 $346 #
vertex $-1 $140 $347 #
straight-curve $-1 49.681691946165351 -11.346637887732768 6.8698064078268644 0 1 0 I I #
face $-1 $348 $349 $32 $-1 $350 reversed single #
loop $-1 $-1 $248 $141 #
plane-surface $-1 49.681691946165351 0 0 -1 0 0 0 0 1 forward_v I I I I #
coedge $-1 $351 $352 $240 $353 forward $142 $-1 #
coedge $-1 $354 $144 $145 $244 reversed $89 $-1 #
coedge $-1 $144 $354 $238 $353 reversed $89 $-1 #
coedge $-1 $355 $356 $144 $242 forward $349 $-1 #
edge $-1 $357 2.2526795940296473 $358 6.9815740335647867 $241 $359 forward 7 unknown #
coedge $-1 $146 $145 $356 $360 reversed $57 $-1 #
edge $-1 $249 -49.681691946165351 $357 49.681691946165351 $239 $361 forward 7 unknown #
coedge $-1 $362 $363 $146 $246 forward $364 $-1 #
edge $-1 $250 -49.681691946165351 $365 49.681691946165351 $245 $366 forward 7 unknown #
coedge $-1 $367 $147 $363 $368 reversed $236 $-1 #
coedge $-1 $147 $367 $354 $369 forward $236 $-1 #
vertex $-1 $148 $370 #
vertex $-1 $246 $371 #
straight-curve $-1 49.681691946165351 11.34663788773277 6.8698064078268644 0 1 0 I I #
face $-1 $-1 $372 $33 $-1 $373 reversed single #
loop $-1 $-1 $374 $149 #
plane-surface $-1 0 -18.505340184252564 9.234253627594434 0 -1 0 0 0 -1 forward_v I I I I #
coedge $-1 $375 $152 $154 $261 forward $93 $-1 #
coedge $-1 $152 $375 $374 $376 forward $93 $-1 #
coedge $-1 $377 $155 $152 $258 forward $150 $-1 #
edge $-1 $264 2.2368887389418521 $378 11.591263876521092 $257 $379 forward 7 unknown #
coedge $-1 $380 $381 $153 $260 forward $372 $-1 #
edge $-1 $382 -69.718337395278326 $263 -59.118405291623723 $259 $383 forward 7 unknown #
edge $-1 $264 83.820924264336526 $382 99.363383892330688 $154 $384 forward 7 unknown #
coedge $-1 $155 $377 $380 $385 forward $150 $-1 #
vertex $-1 $260 $386 #
vertex $-1 $156 $387 #
straight-curve $-1 22.388789876461974 -9.1509650466733241 11.598700847361997 -1 0 0 I I #
coedge $-1 $266 $266 $-1 $388 reversed $159 $-1 #
edge $-1 $389 0 $389 6.2831853071796004 $160 $390 forward 7 unknown #
vertex $-1 $163 $391 #
ellipse-curve $-1 43.998174314325432 -15.83266157351564 6.2987347955346999 0.68199836817093118 0 0.7313536940579346 0.7313536940579346 0 -0.68199836817093118 1 I I #
coedge $-1 $270 $270 $-1 $392 reversed $166 $-1 #
edge $-1 $393 0 $393 6.2831853071796004 $167 $394 forward 7 unknown #
vertex $-1 $170 $395 #
ellipse-curve $-1 43.998174314325432 -11.823643657410251 6.2987347955346999 0.68199836817093118 0 0.7313536940579346 0.7313536940579346 0 -0.68199836817093118 1 I I #
face $-1 $-1 $286 $36 $-1 $396 forward single #
loop $-1 $-1 $397 $171 #
plane-surface $-1 -49.681691946165351 0 0 1 0 0 0 0 -1 forward_v I I I I #
coedge $-1 $398 $399 $400 $401 reversed $172 $-1 #
coedge $-1 $402 $174 $176 $284 forward $107 $-1 #
coedge $-1 $174 $402 $398 $403 forward $107 $-1 #
coedge $-1 $400 $177 $174 $281 forward $286 $-1 #
edge $-1 $288 -1.2297200725143274 $404 9.2396133532035432 $280 $405 forward 7 unknown #
coedge $-1 $406 $407 $175 $283 forward $275 $-1 #
edge $-1 $408 -30.540525606333823 $287 -25.626437530505761 $282 $409 forward 7 unknown #
edge $-1 $288 -6.7191674964074384 $408 -1.0692042983031357e-014 $176 $410 forward 7 unknown #
coedge $-1 $177 $400 $406 $411 forward $286 $-1 #
loop $-1 $-1 $400 $274 #
vertex $-1 $283 $412 #
vertex $-1 $178 $413 #
straight-curve $-1 -61.175735691213674 2.7752265678302805 11.598700847362004 1 0 0 I I #
coedge $-1 $290 $290 $-1 $414 reversed $181 $-1 #
edge $-1 $415 0 $415 6.2831853071796004 $182 $416 forward 7 unknown #
vertex $-1 $185 $417 #
ellipse-curve $-1 -47.390461369172797 4.8690932529738511 9.1416568094479747 -0.73135370988377701 0 0.68199835119979291 0.34099917559989645 0 0.36567685494188851 1 I I #
coedge $-1 $294 $294 $-1 $418 reversed $188 $-1 #
edge $-1 $419 0 $419 6.2831853071796004 $189 $420 forward 7 unknown #
vertex $-1 $192 $421 #
ellipse-curve $-1 -47.390461369172797 8.0098932806892158 9.1416568094479747 -0.73135370988377701 0 0.68199835119979291 0.34099917559989645 0 0.36567685494188851 1 I I #
coedge $-1 $298 $298 $-1 $422 reversed $195 $-1 #
edge $-1 $423 0 $423 6.2831853071796004 $196 $424 forward 7 unknown #
vertex $-1 $199 $425 #
ellipse-curve $-1 -47.390461369172797 11.150693308404573 9.1416568094479747 -0.73135370988377701 0 0.68199835119979291 0.34099917559989645 0 0.36567685494188851 1 I I #
face $-1 $-1 $215 $30 $-1 $426 reversed single #
loop $-1 $-1 $318 $200 #
plane-surface $-1 0 26.88121136667851 0 0 -1 0 0 0 -1 forward_v I I I I #
coedge $-1 $427 $316 $319 $428 forward $201 $-1 #
coedge $-1 $322 $203 $204 $310 reversed $126 $-1 #
coedge $-1 $316 $427 $203 $308 reversed $201 $-1 #
edge $-1 $323 -11.598700847362004 $429 11.598700847362004 $307 $430 forward 7 unknown #
coedge $-1 $205 $204 $427 $431 forward $81 $-1 #
edge $-1 $314 -49.681691946165351 $429 49.681691946165351 $306 $432 forward 7 unknown #
coedge $-1 $319 $318 $205 $312 reversed $303 $-1 #
edge $-1 $433 -49.681691946165351 $313 49.681691946165351 $311 $434 forward 7 unknown #
vertex $-1 $207 $435 #
vertex $-1 $325 $436 #
straight-curve $-1 49.681691946165351 0 -11.598700847362004 0 -1 0 I I #
coedge $-1 $305 $307 $208 $317 reversed $201 $-1 #
edge $-1 $320 -26.88121136667851 $323 26.88121136667851 $316 $437 forward 7 unknown #
coedge $-1 $311 $209 $214 $326 forward $303 $-1 #
coedge $-1 $209 $311 $305 $428 reversed $303 $-1 #
vertex $-1 $210 $438 #
straight-curve $-1 0 26.88121136667851 11.598700847362004 -1 0 0 I I #
coedge $-1 $211 $306 $213 $325 reversed $126 $-1 #
vertex $-1 $317 $439 #
straight-curve $-1 0 -26.88121136667851 11.598700847362004 1 0 0 I I #
edge $-1 $216 -11.598700847362004 $314 11.598700847362004 $213 $440 forward 7 unknown #
edge $-1 $217 -11.598700847362004 $313 11.598700847362004 $214 $441 forward 7 unknown #
point $-1 49.681691946165351 -26.88121136667851 11.598700847362004 #
point $-1 49.681691946165351 26.88121136667851 11.598700847362004 #
face $-1 $-1 $231 $31 $-1 $442 reversed single #
loop $-1 $-1 $443 $219 #
plane-surface $-1 0 0 11.598700847362004 0 0 1 1 0 0 forward_v I I I I #
coedge $-1 $444 $222 $226 $339 forward $134 $-1 #
coedge $-1 $222 $444 $445 $446 reversed $134 $-1 #
edge $-1 $447 -6.9815740335647867 $337 -2.2526795940296473 $222 $448 forward 7 unknown #
coedge $-1 $224 $223 $443 $449 reversed $85 $-1 #
edge $-1 $233 2.2526795940296473 $450 6.9815740335647867 $229 $451 forward 7 unknown #
vertex $-1 $339 $452 #
straight-curve $-1 0 -18.505340184252564 6.8698064078268644 1 0 0 I I #
edge $-1 $337 7.1587022965197953 $342 15.534573478945742 $332 $453 forward 7 unknown #
coedge $-1 $454 $227 $230 $345 reversed $220 $-1 #
coedge $-1 $227 $454 $444 $455 forward $220 $-1 #
vertex $-1 $228 $456 #
straight-curve $-1 0 -26.88121136667851 6.8698064078268644 1 0 0 I I #
coedge $-1 $230 $229 $457 $458 reversed $231 $-1 #
edge $-1 $459 -11.598700847362004 $232 -6.8698064078268644 $230 $460 forward 7 unknown #
point $-1 49.681691946165351 -26.88121136667851 6.8698064078268644 #
point $-1 49.681691946165351 -18.505340184252564 6.8698064078268644 #
face $-1 $-1 $364 $32 $-1 $461 reversed single #
loop $-1 $-1 $241 $235 #
plane-surface $-1 -49.681691946165351 0 0 1 0 0 0 0 -1 forward_v I I I I #
coedge $-1 $462 $238 $367 $463 forward $142 $-1 #
coedge $-1 $238 $462 $355 $464 forward $142 $-1 #
edge $-1 $358 -49.681691946165351 $465 49.681691946165351 $238 $466 forward 7 unknown #
coedge $-1 $240 $239 $248 $369 reversed $89 $-1 #
coedge $-1 $467 $241 $352 $464 reversed $349 $-1 #
coedge $-1 $241 $467 $243 $360 forward $349 $-1 #
vertex $-1 $360 $468 #
vertex $-1 $242 $469 #
straight-curve $-1 -49.681691946165351 18.505340184252567 4.617126813797217 0 0 1 I I #
edge $-1 $365 -15.534573478945743 $357 -7.1587022965197971 $356 $470 forward 7 unknown #
straight-curve $-1 0 18.505340184252567 6.8698064078268644 -1 0 0 I I #
coedge $-1 $471 $245 $467 $472 reversed $364 $-1 #
coedge $-1 $245 $471 $247 $368 forward $364 $-1 #
loop $-1 $-1 $245 $348 #
vertex $-1 $246 $473 #
straight-curve $-1 0 26.88121136667851 6.8698064078268644 -1 0 0 I I #
coedge $-1 $248 $247 $351 $463 reversed $236 $-1 #
edge $-1 $474 -11.598700847362004 $250 -6.8698064078268644 $247 $475 forward 7 unknown #
edge $-1 $465 -6.9815740335647867 $249 -2.2526795940296473 $248 $476 forward 7 unknown #
point $-1 49.681691946165351 18.505340184252567 6.8698064078268644 #
point $-1 49.681691946165351 26.881211366678514 6.8698064078268644 #
loop $-1 $-1 $259 $252 #
plane-surface $-1 49.681691946165351 0 0 -1 0 0 0 0 1 forward_v I I I I #
coedge $-1 $477 $478 $256 $376 reversed $253 $-1 #
coedge $-1 $256 $255 $381 $479 reversed $93 $-1 #
edge $-1 $480 -99.363383892330688 $378 -83.820924264336526 $374 $481 forward 7 unknown #
coedge $-1 $262 $257 $478 $482 forward $150 $-1 #
vertex $-1 $482 $483 #
straight-curve $-1 38.314656682485492 -6.914076307731472 11.598700847362011 0 -1 0 I I #
coedge $-1 $484 $259 $262 $385 reversed $372 $-1 #
coedge $-1 $259 $484 $375 $479 forward $372 $-1 #
vertex $-1 $260 $485 #
straight-curve $-1 49.681691946165351 -9.1509650466733241 70.717106138985727 0 0 1 I I #
straight-curve $-1 -22.988085917587377 -9.1509650466733241 68.764434414218712 0.7313536940579346 0 -0.68199836817093118 I I #
edge $-1 $486 -18.505340184252564 $263 -9.1509650466733241 $380 $487 forward 7 unknown #
point $-1 49.681691946165351 -9.1509650466733241 11.598700847362004 #
point $-1 38.314656682485499 -9.1509650466733241 11.598700847362004 #
edge $-1 $488 1 $488 0 $266 $-1 forward 7 unknown #
vertex $-1 $267 $489 #
ellipse-curve $-1 42.704506643386239 -15.83266157351564 4.9114460948855374 0.68199836817093118 0 0.7313536940579346 0.7313536940579346 0 -0.68199836817093118 1 I I #
point $-1 44.729528008383355 -15.83266157351564 5.6167364273637634 #
edge $-1 $490 1 $490 0 $270 $-1 forward 7 unknown #
vertex $-1 $271 $491 #
ellipse-curve $-1 42.704506643386239 -11.823643657410251 4.9114460948855374 0.68199836817093118 0 0.7313536940579346 0.7313536940579346 0 -0.68199836817093118 1 I I #
point $-1 44.729528008383355 -11.823643657410251 5.6167364273637634 #
plane-surface $-1 0 0 11.598700847362004 0 0 1 1 0 0 forward_v I I I I #
coedge $-1 $407 $406 $399 $492 forward $275 $-1 #
coedge $-1 $399 $277 $279 $403 reversed $172 $-1 #
coedge $-1 $277 $398 $397 $492 reversed $172 $-1 #
coedge $-1 $285 $280 $277 $401 forward $286 $-1 #
edge $-1 $404 -16.076504899033431 $493 -11.494043745048323 $400 $494 forward 7 unknown #
coedge $-1 $279 $278 $407 $495 reversed $107 $-1 #
edge $-1 $496 1.0692042983031357e-014 $404 6.7191674964074384 $398 $497 forward 7 unknown #
vertex $-1 $281 $498 #
straight-curve $-1 -45.099230792180251 4.0049466403446079 11.598700847362004 0 1 0 I I #
coedge $-1 $397 $282 $285 $411 reversed $275 $-1 #
coedge $-1 $282 $397 $402 $495 forward $275 $-1 #
vertex $-1 $283 $499 #
straight-curve $-1 -49.681691946165351 2.7752265678302805 37.225138377867765 0 0 1 I I #
straight-curve $-1 -49.681691946165358 2.7752265678302805 6.684612771533935 -0.68199835119979291 0 -0.73135370988377701 I I #
edge $-1 $493 -13.244559993548151 $287 -2.7752265678302805 $406 $500 forward 7 unknown #
point $-1 -49.681691946165351 2.7752265678302805 11.598700847362004 #
point $-1 -45.099230792180244 2.7752265678302805 11.598700847362004 #
edge $-1 $501 1 $501 0 $290 $-1 forward 7 unknown #
vertex $-1 $291 $502 #
ellipse-curve $-1 -46.504978106885602 4.8690932529738511 8.3159303289043187 -0.73135370988377701 0 0.68199835119979291 0.34099917559989645 0 0.36567685494188851 1 I I #
point $-1 -47.049462193572893 4.8690932529738511 9.5073336643898578 #
edge $-1 $503 1 $503 0 $294 $-1 forward 7 unknown #
vertex $-1 $295 $504 #
ellipse-curve $-1 -46.504978106885602 8.0098932806892158 8.3159303289043187 -0.73135370988377701 0 0.68199835119979291 0.34099917559989645 0 0.36567685494188851 1 I I #
point $-1 -47.049462193572893 8.0098932806892158 9.5073336643898578 #
edge $-1 $505 1 $505 0 $298 $-1 forward 7 unknown #
vertex $-1 $299 $506 #
ellipse-curve $-1 -46.504978106885602 11.150693308404573 8.3159303289043187 -0.73135370988377701 0 0.68199835119979291 0.34099917559989645 0 0.36567685494188851 1 I I #
point $-1 -47.049462193572893 11.150693308404573 9.5073336643898578 #
plane-surface $-1 49.681691946165351 0 0 -1 0 0 0 0 1 forward_v I I I I #
coedge $-1 $307 $305 $309 $431 reversed $201 $-1 #
edge $-1 $320 -11.598700847362004 $433 11.598700847362004 $319 $507 forward 7 unknown #
vertex $-1 $431 $508 #
straight-curve $-1 -49.681691946165351 -26.88121136667851 0 0 0 -1 I I #
edge $-1 $429 -26.88121136667851 $433 26.88121136667851 $427 $509 forward 7 unknown #
straight-curve $-1 0 -26.88121136667851 -11.598700847362004 -1 0 0 I I #
vertex $-1 $312 $510 #
straight-curve $-1 0 26.88121136667851 -11.598700847362004 1 0 0 I I #
point $-1 49.681691946165351 26.88121136667851 -11.598700847362004 #
point $-1 49.681691946165351 -26.88121136667851 -11.598700847362004 #
straight-curve $-1 -49.681691946165351 0 11.598700847362004 0 -1 0 I I #
point $-1 -49.681691946165351 26.88121136667851 11.598700847362004 #
point $-1 -49.681691946165351 -26.88121136667851 11.598700847362004 #
straight-curve $-1 49.681691946165351 -26.88121136667851 0 0 0 -1 I I #
straight-curve $-1 49.681691946165351 26.88121136667851 0 0 0 -1 I I #
plane-surface $-1 49.681691946165351 0 0 -1 0 0 0 0 1 forward_v I I I I #
coedge $-1 $445 $457 $335 $449 forward $330 $-1 #
coedge $-1 $333 $332 $341 $455 reversed $134 $-1 #
coedge $-1 $511 $443 $333 $446 forward $330 $-1 #
edge $-1 $447 18.505340184252564 $512 26.88121136667851 $333 $513 forward 7 unknown #
vertex $-1 $446 $514 #
straight-curve $-1 -49.681691946165351 -18.505340184252564 4.617126813797217 0 0 -1 I I #
edge $-1 $450 -49.681691946165351 $447 49.681691946165351 $443 $515 forward 7 unknown #
vertex $-1 $336 $516 #
straight-curve $-1 49.681691946165351 -18.505340184252564 4.617126813797217 0 0 1 I I #
point $-1 -49.681691946165351 -18.505340184252564 6.8698064078268644 #
straight-curve $-1 -49.681691946165351 -11.346637887732768 6.8698064078268644 0 -1 0 I I #
coedge $-1 $341 $340 $511 $517 reversed $220 $-1 #
edge $-1 $512 -11.598700847362004 $342 -6.8698064078268644 $444 $518 forward 7 unknown #
point $-1 -49.681691946165351 -26.88121136667851 6.8698064078268644 #
coedge $-1 $443 $511 $344 $458 forward $330 $-1 #
edge $-1 $459 -26.88121136667851 $450 -18.505340184252564 $344 $519 forward 7 unknown #
vertex $-1 $458 $520 #
straight-curve $-1 49.681691946165351 -26.88121136667851 0 0 0 -1 I I #
plane-surface $-1 0 26.88121136667851 0 0 -1 0 0 0 -1 forward_v I I I I #
coedge $-1 $352 $351 $471 $521 forward $142 $-1 #
edge $-1 $465 18.505340184252567 $474 26.88121136667851 $367 $522 forward 7 unknown #
edge $-1 $523 -26.88121136667851 $358 -18.505340184252567 $355 $524 forward 7 unknown #
vertex $-1 $463 $525 #
straight-curve $-1 0 18.505340184252567 11.598700847362004 1 0 0 I I #
coedge $-1 $356 $355 $362 $472 forward $349 $-1 #
point $-1 -49.681691946165351 18.505340184252567 6.8698064078268644 #
point $-1 -49.681691946165351 18.505340184252567 11.598700847362004 #
straight-curve $-1 -49.681691946165351 11.34663788773277 6.8698064078268644 0 -1 0 I I #
coedge $-1 $363 $362 $462 $521 reversed $364 $-1 #
edge $-1 $523 -11.598700847362004 $365 -6.8698064078268644 $362 $526 forward 7 unknown #
point $-1 -49.681691946165351 26.881211366678514 6.8698064078268644 #
vertex $-1 $463 $527 #
straight-curve $-1 49.681691946165351 26.88121136667851 0 0 0 -1 I I #
straight-curve $-1 49.681691946165351 18.505340184252567 4.617126813797217 0 0 -1 I I #
coedge $-1 $478 $374 $484 $528 reversed $253 $-1 #
coedge $-1 $374 $477 $377 $482 reversed $253 $-1 #
edge $-1 $480 -11.591263876521092 $382 -2.2368887389418521 $381 $529 forward 7 unknown #
vertex $-1 $528 $530 #
straight-curve $-1 -22.988085917587377 -18.505340184252564 68.764434414218712 -0.7313536940579346 0 0.68199836817093118 I I #
edge $-1 $378 38.314656682485499 $486 49.681691946165351 $377 $531 forward 7 unknown #
point $-1 38.314656682485499 -18.505340184252564 11.598700847362004 #
coedge $-1 $381 $380 $477 $528 forward $372 $-1 #
point $-1 49.681691946165351 -9.1509650466733241 0.99876874370740154 #
vertex $-1 $385 $532 #
straight-curve $-1 49.681691946165351 0 11.598700847362004 0 1 0 I I #
vertex $-1 $388 $533 #
point $-1 43.435860337444169 -15.83266157351564 4.2294477267146053 #
vertex $-1 $392 $534 #
point $-1 43.435860337444169 -11.823643657410251 4.2294477267146053 #
edge $-1 $493 25.626437530505761 $496 30.540525606333823 $397 $535 forward 7 unknown #
vertex $-1 $411 $536 #
straight-curve $-1 -61.175735691213674 13.244559993548151 11.598700847362004 -1 0 0 I I #
edge $-1 $496 -9.2396133532035432 $408 1.2297200725143274 $407 $537 forward 7 unknown #
vertex $-1 $495 $538 #
straight-curve $-1 -49.681691946165358 13.244559993548151 6.684612771533935 0.68199835119979291 0 0.73135370988377701 I I #
point $-1 -45.099230792180244 13.244559993548151 11.598700847362004 #
point $-1 -49.681691946165351 2.7752265678302805 6.684612771533943 #
straight-curve $-1 -49.681691946165351 0 11.598700847362004 0 -1 0 I I #
vertex $-1 $414 $539 #
point $-1 -46.163978931285712 4.8690932529738511 8.6816071838462072 #
vertex $-1 $418 $540 #
point $-1 -46.163978931285712 8.0098932806892158 8.6816071838462072 #
vertex $-1 $422 $541 #
point $-1 -46.163978931285712 11.150693308404573 8.6816071838462072 #
straight-curve $-1 -49.681691946165351 26.88121136667851 0 0 0 -1 I I #
point $-1 -49.681691946165351 -26.88121136667851 -11.598700847362004 #
straight-curve $-1 -49.681691946165351 0 -11.598700847362004 0 1 0 I I #
point $-1 -49.681691946165351 26.88121136667851 -11.598700847362004 #
coedge $-1 $457 $445 $454 $517 forward $330 $-1 #
vertex $-1 $446 $542 #
straight-curve $-1 -49.681691946165351 0 11.598700847362004 0 -1 0 I I #
point $-1 -49.681691946165351 -18.505340184252564 11.598700847362004 #
straight-curve $-1 0 -18.505340184252564 11.598700847362004 -1 0 0 I I #
point $-1 49.681691946165351 -18.505340184252564 11.598700847362004 #
edge $-1 $512 -49.681691946165351 $459 49.681691946165351 $454 $543 forward 7 unknown #
straight-curve $-1 -49.681691946165351 -26.88121136667851 0 0 0 -1 I I #
straight-curve $-1 49.681691946165351 0 11.598700847362004 0 1 0 I I #
point $-1 49.681691946165351 -26.88121136667851 11.598700847362004 #
edge $-1 $474 -49.681691946165351 $523 49.681691946165351 $471 $544 forward 7 unknown #
straight-curve $-1 49.681691946165351 0 11.598700847362004 0 1 0 I I #
vertex $-1 $521 $545 #
straight-curve $-1 -49.681691946165351 0 11.598700847362004 0 -1 0 I I #
point $-1 49.681691946165351 18.505340184252567 11.598700847362004 #
straight-curve $-1 -49.681691946165351 26.88121136667851 0 0 0 -1 I I #
point $-1 49.681691946165351 26.88121136667851 11.598700847362004 #
edge $-1 $486 59.118405291623723 $480 69.718337395278326 $484 $546 forward 7 unknown #
straight-curve $-1 49.681691946165351 -6.914076307731472 0.99876874370739444 0 1 0 I I #
point $-1 49.681691946165351 -18.505340184252564 0.99876874370740154 #
straight-curve $-1 0 -18.505340184252564 11.598700847362004 1 0 0 I I #
point $-1 49.681691946165351 -18.505340184252564 11.598700847362004 #
point $-1 42.022508275215301 -15.83266157351564 4.1800924008276006 #
point $-1 42.022508275215301 -11.823643657410251 4.1800924008276006 #
straight-curve $-1 -49.681691946165351 13.244559993548151 37.225138377867765 0 0 -1 I I #
point $-1 -49.681691946165351 13.244559993548151 11.598700847362004 #
straight-curve $-1 -49.681691946165351 4.0049466403446079 6.6846127715339492 0 -1 0 I I #
point $-1 -49.681691946165351 13.244559993548151 6.684612771533943 #
point $-1 -46.139301251943721 4.8690932529738511 7.9749311533044214 #
point $-1 -46.139301251943721 8.0098932806892158 7.9749311533044214 #
point $-1 -46.139301251943721 11.150693308404573 7.9749311533044214 #
point $-1 -49.681691946165351 -26.88121136667851 11.598700847362004 #
straight-curve $-1 0 -26.88121136667851 11.598700847362004 1 0 0 I I #
straight-curve $-1 0 26.88121136667851 11.598700847362004 -1 0 0 I I #
point $-1 -49.681691946165351 26.88121136667851 11.598700847362004 #
straight-curve $-1 49.681691946165351 -18.505340184252564 70.717106138985727 0 0 -1 I I #
End-of-ACIS-data 