500 0 6 0           
7 Unknown 11 ACIS 5.0 NT 24 Thu Mar 25 21:49:18 1999 
-1 9.9999999999999995e-007 1e-010 
body $-1 $6 $-1 $7 #
body $-1 $8 $-1 $9 #
body $-1 $10 $-1 $11 #
body $-1 $12 $-1 $13 #
body $-1 $14 $-1 $15 #
body $-1 $16 $-1 $17 #
lump $-1 $-1 $18 $0 #
transform $-1 1 0 0 0 1 0 0 0 1 45.89983825189978 24.375647919332973 7.6692496920551587 1 rotate no_reflect no_shear #
lump $-1 $-1 $19 $1 #
transform $-1 1 0 0 0 1 0 0 0 1 45.89983825189978 24.375647919332973 7.6692496920551587 1 rotate no_reflect no_shear #
lump $-1 $-1 $20 $2 #
transform $-1 1 0 0 0 1 0 0 0 1 45.89983825189978 24.375647919332973 7.6692496920551587 1 rotate no_reflect no_shear #
lump $-1 $-1 $21 $3 #
transform $-1 1 0 0 0 1 0 0 0 1 45.89983825189978 24.375647919332973 7.6692496920551587 1 rotate no_reflect no_shear #
lump $-1 $-1 $22 $4 #
transform $-1 1 0 0 0 1 0 0 0 1 45.89983825189978 24.375647919332973 7.6692496920551587 1 rotate no_reflect no_shear #
lump $-1 $-1 $23 $5 #
transform $-1 1 0 0 0 1 0 0 0 1 45.89983825189978 24.375647919332973 7.6692496920551587 1 rotate no_reflect no_shear #
shell $-1 $-1 $-1 $24 $-1 $6 #
shell $-1 $-1 $-1 $25 $-1 $8 #
shell $-1 $-1 $-1 $26 $-1 $10 #
shell $-1 $-1 $-1 $27 $-1 $12 #
shell $-1 $-1 $-1 $28 $-1 $14 #
shell $-1 $-1 $-1 $29 $-1 $16 #
face $-1 $30 $31 $18 $-1 $32 reversed single #
face $-1 $33 $34 $19 $-1 $35 forward single #
face $-1 $36 $37 $20 $-1 $38 reversed single #
face $-1 $39 $40 $21 $-1 $41 forward single #
face $-1 $42 $43 $22 $-1 $44 reversed single #
face $-1 $45 $46 $23 $-1 $47 forward single #
face $-1 $48 $49 $18 $-1 $50 forward single #
loop $-1 $-1 $51 $24 #
plane-surface $-1 -45.89983825189978 0 0 1 0 0 0 0 -1 forward_v I I I I #
face $-1 $52 $53 $19 $-1 $54 reversed single #
loop $-1 $-1 $55 $25 #
plane-surface $-1 -45.89983825189978 0 0 1 0 0 0 0 -1 forward_v I I I I #
face $-1 $56 $57 $20 $-1 $58 reversed single #
loop $-1 $-1 $59 $26 #
plane-surface $-1 27.831782452051087 -7.3324145622762451 132.3322724650258 0 -1 0 -0.6018150307709319 0 -0.79863550430605224 forward_v I I I I #
face $-1 $60 $61 $21 $-1 $62 forward single #
loop $-1 $63 $64 $27 #
cone-surface $-1 42.176077354024443 -11.82285923532131 4.2108901040934503 -0.6018150307709319 0 -0.79863550430605224 0.79863550430605224 0 -0.6018150307709319 1 I I 0 1 1 forward I I I I #
face $-1 $65 $66 $22 $-1 $67 reversed single #
loop $-1 $-1 $68 $28 #
plane-surface $-1 27.831782452051087 17.043233357056728 132.3322724650258 0 -1 0 -0.6018150307709319 0 -0.79863550430605224 forward_v I I I I #
face $-1 $69 $70 $23 $-1 $71 forward single #
loop $-1 $72 $73 $29 #
cone-surface $-1 42.176077354024443 12.552788684011663 4.2108901040934503 -0.6018150307709319 0 -0.79863550430605224 0.79863550430605224 0 -0.6018150307709319 1 I I 0 1 1 forward I I I I #
face $-1 $74 $75 $18 $-1 $76 reversed single #
loop $-1 $-1 $77 $30 #
plane-surface $-1 0 0 7.6692496920551587 0 0 1 1 0 0 forward_v I I I I #
coedge $-1 $78 $79 $80 $81 reversed $31 $-1 #
face $-1 $82 $83 $19 $-1 $84 reversed single #
loop $-1 $-1 $85 $33 #
plane-surface $-1 0 0 -7.6692496920551587 0 0 1 1 0 0 forward_v I I I I #
coedge $-1 $86 $87 $88 $89 forward $34 $-1 #
face $-1 $90 $91 $20 $-1 $92 reversed single #
loop $-1 $-1 $93 $36 #
plane-surface $-1 -27.414642687844641 -11.822859235321312 59.017791525281382 0.6018150307709319 0 0.79863550430605224 0.79863550430605224 0 -0.6018150307709319 forward_v I I I I #
coedge $-1 $94 $95 $96 $97 reversed $37 $-1 #
face $-1 $-1 $98 $21 $-1 $99 forward single #
loop $-1 $100 $101 $39 #
cone-surface $-1 40.737741818126622 -11.82285923532131 2.3021544173134618 -0.6018150307709319 0 -0.79863550430605224 0.39931775215302612 0 -0.30090751538546595 1 I I -0.70710678118654746 0.70710678118654746 0.5 forward I I I I #
loop $-1 $-1 $102 $27 #
coedge $-1 $64 $64 $103 $104 reversed $40 $-1 #
face $-1 $105 $106 $22 $-1 $107 reversed single #
loop $-1 $-1 $108 $42 #
plane-surface $-1 -27.414642687844641 12.552788684011663 59.017791525281382 0.6018150307709319 0 0.79863550430605224 0.79863550430605224 0 -0.6018150307709319 forward_v I I I I #
coedge $-1 $109 $110 $111 $112 reversed $43 $-1 #
face $-1 $-1 $113 $23 $-1 $114 forward single #
loop $-1 $115 $116 $45 #
cone-surface $-1 40.737741818126622 12.552788684011663 2.3021544173134618 -0.6018150307709319 0 -0.79863550430605224 0.39931775215302612 0 -0.30090751538546595 1 I I -0.70710678118654746 0.70710678118654746 0.5 forward I I I I #
loop $-1 $-1 $117 $29 #
coedge $-1 $73 $73 $118 $119 reversed $46 $-1 #
face $-1 $120 $121 $18 $-1 $122 reversed single #
loop $-1 $-1 $123 $48 #
plane-surface $-1 0 0 -7.6692496920551587 0 0 1 1 0 0 forward_v I I I I #
coedge $-1 $124 $125 $126 $127 forward $49 $-1 #
coedge $-1 $128 $51 $129 $130 reversed $31 $-1 #
coedge $-1 $51 $128 $131 $132 forward $31 $-1 #
coedge $-1 $133 $134 $51 $81 forward $75 $-1 #
edge $-1 $135 -24.375647919332973 $136 24.375647919332973 $51 $137 forward 7 unknown #
face $-1 $138 $139 $19 $-1 $140 reversed single #
loop $-1 $-1 $141 $52 #
plane-surface $-1 -50.611887333837672 -13.408763632676433 0 0 1 0 0 0 1 forward_v I I I I #
coedge $-1 $142 $143 $87 $144 forward $53 $-1 #
coedge $-1 $145 $55 $146 $147 reversed $34 $-1 #
coedge $-1 $55 $145 $85 $144 reversed $34 $-1 #
coedge $-1 $148 $149 $55 $89 reversed $150 $-1 #
edge $-1 $151 -7.6692496920551587 $152 7.6692496920551587 $88 $153 forward 7 unknown #
face $-1 $154 $155 $20 $-1 $156 forward single #
loop $-1 $-1 $157 $56 #
plane-surface $-1 27.831782452051087 -16.313303908366379 132.3322724650258 0 1 0 0.6018150307709319 0 0.79863550430605224 forward_v I I I I #
coedge $-1 $158 $159 $160 $161 reversed $57 $-1 #
coedge $-1 $95 $59 $162 $163 reversed $37 $-1 #
coedge $-1 $59 $94 $158 $164 reversed $37 $-1 #
coedge $-1 $160 $165 $59 $97 forward $155 $-1 #
edge $-1 $166 -31.983947025874237 $167 -26.811281271148275 $96 $168 forward 7 unknown #
loop $-1 $-1 $103 $60 #
plane-surface $-1 -27.414642687844641 -11.822859235321312 59.017791525281382 0.6018150307709319 0 0.79863550430605224 0.79863550430605224 0 -0.6018150307709319 forward_v I I I I #
loop $-1 $-1 $169 $39 #
coedge $-1 $101 $101 $102 $170 reversed $61 $-1 #
coedge $-1 $102 $102 $101 $170 forward $63 $-1 #
coedge $-1 $103 $103 $64 $104 forward $98 $-1 #
edge $-1 $171 0 $171 6.2831853071796004 $103 $172 forward 7 unknown #
face $-1 $173 $174 $22 $-1 $175 reversed single #
loop $-1 $-1 $176 $65 #
plane-surface $-1 27.831782452051087 8.062344010966596 132.3322724650258 0 1 0 0.6018150307709319 0 0.79863550430605224 forward_v I I I I #
coedge $-1 $177 $178 $179 $180 reversed $66 $-1 #
coedge $-1 $110 $68 $181 $182 reversed $43 $-1 #
coedge $-1 $68 $109 $177 $183 reversed $43 $-1 #
coedge $-1 $179 $184 $68 $112 forward $185 $-1 #
edge $-1 $186 -31.983947025874237 $187 -26.811281271148275 $111 $188 forward 7 unknown #
loop $-1 $-1 $118 $69 #
plane-surface $-1 -27.414642687844641 12.552788684011663 59.017791525281382 0.6018150307709319 0 0.79863550430605224 0.79863550430605224 0 -0.6018150307709319 forward_v I I I I #
loop $-1 $-1 $189 $45 #
coedge $-1 $116 $116 $117 $190 reversed $70 $-1 #
coedge $-1 $117 $117 $116 $190 forward $72 $-1 #
coedge $-1 $118 $118 $73 $119 forward $113 $-1 #
edge $-1 $191 0 $191 6.2831853071796004 $118 $192 forward 7 unknown #
face $-1 $193 $194 $18 $-1 $195 reversed single #
loop $-1 $-1 $129 $74 #
plane-surface $-1 0 -24.375647919332973 0 0 1 0 0 0 1 forward_v I I I I #
coedge $-1 $134 $133 $196 $197 forward $75 $-1 #
coedge $-1 $198 $77 $199 $200 forward $49 $-1 #
coedge $-1 $77 $198 $201 $202 forward $49 $-1 #
coedge $-1 $203 $204 $77 $127 reversed $205 $-1 #
edge $-1 $206 -24.375647919332973 $207 24.375647919332973 $126 $208 forward 7 unknown #
coedge $-1 $79 $78 $198 $209 reversed $31 $-1 #
coedge $-1 $210 $201 $78 $130 forward $121 $-1 #
edge $-1 $211 -7.6692496920551587 $135 7.6692496920551587 $78 $212 forward 7 unknown #
coedge $-1 $199 $213 $79 $132 reversed $194 $-1 #
edge $-1 $214 -7.6692496920551587 $136 7.6692496920551587 $131 $215 forward 7 unknown #
coedge $-1 $123 $80 $213 $216 forward $75 $-1 #
coedge $-1 $80 $123 $210 $217 forward $75 $-1 #
vertex $-1 $81 $218 #
vertex $-1 $216 $219 #
straight-curve $-1 -45.89983825189978 0 -7.6692496920551587 0 1 0 I I #
face $-1 $220 $150 $19 $-1 $221 reversed single #
loop $-1 $-1 $222 $82 #
plane-surface $-1 -55.323936415775563 -11.222956083949544 0 1 0 0 0 0 -1 forward_v I I I I #
coedge $-1 $223 $224 $225 $226 forward $83 $-1 #
coedge $-1 $227 $85 $223 $228 forward $53 $-1 #
coedge $-1 $85 $227 $148 $229 forward $53 $-1 #
edge $-1 $151 9.0371485352226557 $230 13.408763632676433 $85 $231 forward 7 unknown #
coedge $-1 $87 $86 $232 $233 forward $34 $-1 #
coedge $-1 $234 $235 $86 $147 forward $236 $-1 #
edge $-1 $237 -13.408763632676433 $152 -9.0371485352226557 $146 $238 forward 7 unknown #
coedge $-1 $239 $88 $143 $229 reversed $150 $-1 #
coedge $-1 $88 $239 $234 $240 reversed $150 $-1 #
loop $-1 $-1 $88 $138 #
vertex $-1 $144 $241 #
vertex $-1 $240 $242 #
straight-curve $-1 -45.89983825189978 -9.0371485352226557 0 0 0 1 I I #
face $-1 $-1 $243 $20 $-1 $244 reversed single #
loop $-1 $-1 $96 $90 #
plane-surface $-1 0 0 7.6692496920551587 0 0 1 1 0 0 forward_v I I I I #
coedge $-1 $245 $246 $247 $248 reversed $91 $-1 #
coedge $-1 $249 $93 $95 $164 forward $57 $-1 #
coedge $-1 $93 $249 $245 $250 forward $57 $-1 #
coedge $-1 $247 $96 $93 $161 forward $155 $-1 #
edge $-1 $167 1.4209849446155891 $251 10.401874290705724 $160 $252 forward 7 unknown #
coedge $-1 $253 $254 $94 $163 forward $243 $-1 #
edge $-1 $255 -62.394769847127243 $166 -58.496886540457737 $162 $256 forward 7 unknown #
edge $-1 $167 85.322797218022544 $255 91.79967650379956 $95 $257 forward 7 unknown #
coedge $-1 $96 $247 $253 $258 forward $155 $-1 #
vertex $-1 $97 $259 #
vertex $-1 $97 $260 #
straight-curve $-1 13.915891226025543 -7.3324145622762451 7.6692496920551605 -1 0 0 I I #
coedge $-1 $169 $169 $-1 $261 reversed $100 $-1 #
edge $-1 $262 0 $262 6.2831853071796004 $101 $263 forward 7 unknown #
vertex $-1 $104 $264 #
ellipse-curve $-1 43.313505374536803 -11.82285923532131 5.7203080387204146 0.6018150307709319 0 0.79863550430605224 0.79863550430605224 0 -0.6018150307709319 1 I I #
face $-1 $-1 $185 $22 $-1 $265 forward single #
loop $-1 $-1 $266 $105 #
plane-surface $-1 45.89983825189978 0 0 -1 0 0 0 0 1 forward_v I I I I #
coedge $-1 $267 $268 $269 $270 reversed $106 $-1 #
coedge $-1 $271 $108 $110 $183 forward $66 $-1 #
coedge $-1 $108 $271 $267 $272 forward $66 $-1 #
coedge $-1 $269 $111 $108 $180 forward $185 $-1 #
edge $-1 $187 -10.766839015050897 $273 -1.7859496689607646 $179 $274 forward 7 unknown #
coedge $-1 $275 $276 $109 $182 forward $174 $-1 #
edge $-1 $277 -62.394769847127243 $186 -58.496886540457737 $181 $278 forward 7 unknown #
edge $-1 $187 85.322797218022544 $277 91.79967650379956 $110 $279 forward 7 unknown #
coedge $-1 $111 $269 $275 $280 forward $185 $-1 #
loop $-1 $-1 $269 $173 #
vertex $-1 $182 $281 #
vertex $-1 $112 $282 #
straight-curve $-1 13.915891226025543 17.043233357056728 7.6692496920551605 -1 0 0 I I #
coedge $-1 $189 $189 $-1 $283 reversed $115 $-1 #
edge $-1 $284 0 $284 6.2831853071796004 $116 $285 forward 7 unknown #
vertex $-1 $119 $286 #
ellipse-curve $-1 43.313505374536803 12.552788684011663 5.7203080387204146 0.6018150307709319 0 0.79863550430605224 0.79863550430605224 0 -0.6018150307709319 1 I I #
face $-1 $-1 $205 $18 $-1 $287 reversed single #
loop $-1 $-1 $288 $120 #
plane-surface $-1 0 24.375647919332973 0 0 -1 0 0 0 -1 forward_v I I I I #
coedge $-1 $204 $203 $123 $197 reversed $205 $-1 #
edge $-1 $289 -24.375647919332973 $290 24.375647919332973 $196 $291 forward 7 unknown #
coedge $-1 $125 $124 $128 $209 forward $49 $-1 #
coedge $-1 $288 $131 $124 $200 reversed $194 $-1 #
edge $-1 $207 -45.89983825189978 $214 45.89983825189978 $199 $292 forward 7 unknown #
coedge $-1 $129 $293 $125 $202 reversed $121 $-1 #
edge $-1 $211 -45.89983825189978 $206 45.89983825189978 $201 $294 forward 7 unknown #
coedge $-1 $196 $126 $293 $295 forward $205 $-1 #
coedge $-1 $126 $196 $288 $296 reversed $205 $-1 #
loop $-1 $-1 $203 $193 #
vertex $-1 $127 $297 #
vertex $-1 $127 $298 #
straight-curve $-1 45.89983825189978 0 7.6692496920551587 0 1 0 I I #
edge $-1 $214 -24.375647919332973 $211 24.375647919332973 $128 $299 forward 7 unknown #
coedge $-1 $293 $129 $134 $217 reversed $121 $-1 #
vertex $-1 $209 $300 #
straight-curve $-1 -45.89983825189978 -24.375647919332973 0 0 0 -1 I I #
coedge $-1 $131 $288 $133 $216 reversed $194 $-1 #
vertex $-1 $200 $301 #
straight-curve $-1 -45.89983825189978 24.375647919332973 0 0 0 -1 I I #
edge $-1 $136 -45.89983825189978 $289 45.89983825189978 $213 $302 forward 7 unknown #
edge $-1 $290 -45.89983825189978 $135 45.89983825189978 $210 $303 forward 7 unknown #
point $-1 -45.89983825189978 -24.375647919332973 -7.6692496920551587 #
point $-1 -45.89983825189978 24.375647919332973 -7.6692496920551587 #
face $-1 $-1 $236 $19 $-1 $304 forward single #
plane-surface $-1 -50.611887333837672 -9.0371485352226557 0 0 -1 0 0 0 -1 forward_v I I I I #
coedge $-1 $305 $306 $239 $307 forward $139 $-1 #
coedge $-1 $232 $141 $142 $228 reversed $83 $-1 #
coedge $-1 $141 $232 $235 $308 reversed $83 $-1 #
coedge $-1 $306 $305 $141 $226 reversed $139 $-1 #
edge $-1 $309 -7.6692496920551587 $310 7.6692496920551587 $225 $311 forward 7 unknown #
coedge $-1 $143 $142 $305 $312 forward $53 $-1 #
edge $-1 $230 -4.7120490819378915 $310 4.7120490819378915 $223 $313 forward 7 unknown #
edge $-1 $314 -4.7120490819378915 $151 4.7120490819378915 $148 $315 forward 7 unknown #
vertex $-1 $228 $316 #
straight-curve $-1 -45.89983825189978 0 -7.6692496920551587 0 -1 0 I I #
coedge $-1 $224 $223 $145 $233 reversed $83 $-1 #
edge $-1 $237 -7.6692496920551587 $230 7.6692496920551587 $232 $317 forward 7 unknown #
coedge $-1 $318 $146 $149 $240 forward $236 $-1 #
coedge $-1 $146 $318 $224 $308 forward $236 $-1 #
loop $-1 $-1 $146 $220 #
vertex $-1 $147 $319 #
straight-curve $-1 -45.89983825189978 0 7.6692496920551587 0 1 0 I I #
coedge $-1 $149 $148 $222 $307 reversed $150 $-1 #
edge $-1 $152 -4.7120490819378915 $320 4.7120490819378915 $149 $321 forward 7 unknown #
point $-1 -45.89983825189978 -9.0371485352226557 -7.6692496920551587 #
point $-1 -45.89983825189978 -9.0371485352226557 7.6692496920551587 #
loop $-1 $-1 $162 $154 #
plane-surface $-1 45.89983825189978 0 0 -1 0 0 0 0 1 forward_v I I I I #
coedge $-1 $246 $157 $159 $250 reversed $91 $-1 #
coedge $-1 $157 $245 $322 $323 reversed $91 $-1 #
coedge $-1 $165 $160 $157 $248 forward $155 $-1 #
edge $-1 $251 26.811281271148275 $324 31.983947025874237 $247 $325 forward 7 unknown #
coedge $-1 $159 $158 $254 $326 reversed $57 $-1 #
edge $-1 $327 -91.79967650379956 $251 -85.322797218022544 $245 $328 forward 7 unknown #
vertex $-1 $161 $329 #
straight-curve $-1 40.727172497173839 -5.911429617660656 7.6692496920551605 0 -1 0 I I #
coedge $-1 $322 $162 $165 $258 reversed $243 $-1 #
coedge $-1 $162 $322 $249 $326 forward $243 $-1 #
vertex $-1 $163 $330 #
straight-curve $-1 45.89983825189978 -7.3324145622762451 66.166136232512898 0 0 1 I I #
straight-curve $-1 -27.414642687844641 -7.3324145622762451 59.017791525281382 0.79863550430605224 0 -0.6018150307709319 I I #
edge $-1 $324 -16.313303908366379 $166 -7.3324145622762451 $253 $331 forward 7 unknown #
point $-1 45.89983825189978 -7.3324145622762451 7.6692496920551587 #
point $-1 40.727172497173818 -7.3324145622762451 7.6692496920551605 #
edge $-1 $332 1 $332 0 $169 $-1 forward 7 unknown #
vertex $-1 $170 $333 #
ellipse-curve $-1 41.03864933351209 -11.82285923532131 2.7014721694664878 0.6018150307709319 0 0.79863550430605224 0.79863550430605224 0 -0.6018150307709319 1 I I #
point $-1 44.112140878842858 -11.82285923532131 5.1184930079494801 #
plane-surface $-1 0 0 7.6692496920551587 0 0 1 1 0 0 forward_v I I I I #
coedge $-1 $276 $275 $268 $334 forward $174 $-1 #
coedge $-1 $268 $176 $178 $272 reversed $106 $-1 #
coedge $-1 $176 $267 $266 $334 reversed $106 $-1 #
coedge $-1 $184 $179 $176 $270 forward $185 $-1 #
edge $-1 $273 26.811281271148275 $335 31.983947025874237 $269 $336 forward 7 unknown #
coedge $-1 $178 $177 $276 $337 reversed $66 $-1 #
edge $-1 $338 -91.79967650379956 $273 -85.322797218022544 $267 $339 forward 7 unknown #
vertex $-1 $180 $340 #
straight-curve $-1 40.727172497173839 6.2763943420058315 7.6692496920551605 0 -1 0 I I #
coedge $-1 $266 $181 $184 $280 reversed $174 $-1 #
coedge $-1 $181 $266 $271 $337 forward $174 $-1 #
vertex $-1 $182 $341 #
straight-curve $-1 45.89983825189978 17.043233357056728 66.166136232512898 0 0 1 I I #
straight-curve $-1 -27.414642687844641 17.043233357056728 59.017791525281382 0.79863550430605224 0 -0.6018150307709319 I I #
edge $-1 $335 8.062344010966596 $186 17.043233357056728 $275 $342 forward 7 unknown #
point $-1 45.89983825189978 17.043233357056728 7.6692496920551587 #
point $-1 40.727172497173818 17.043233357056728 7.6692496920551605 #
edge $-1 $343 1 $343 0 $189 $-1 forward 7 unknown #
vertex $-1 $190 $344 #
ellipse-curve $-1 41.03864933351209 12.552788684011663 2.7014721694664878 0.6018150307709319 0 0.79863550430605224 0.79863550430605224 0 -0.6018150307709319 1 I I #
point $-1 44.112140878842858 12.552788684011663 5.1184930079494801 #
plane-surface $-1 45.89983825189978 0 0 -1 0 0 0 0 1 forward_v I I I I #
coedge $-1 $213 $199 $204 $296 forward $194 $-1 #
vertex $-1 $197 $345 #
vertex $-1 $295 $346 #
straight-curve $-1 45.89983825189978 0 -7.6692496920551587 0 -1 0 I I #
straight-curve $-1 0 24.375647919332973 7.6692496920551587 -1 0 0 I I #
coedge $-1 $201 $210 $203 $295 reversed $121 $-1 #
straight-curve $-1 0 -24.375647919332973 7.6692496920551587 1 0 0 I I #
edge $-1 $206 -7.6692496920551587 $290 7.6692496920551587 $203 $347 forward 7 unknown #
edge $-1 $207 -7.6692496920551587 $289 7.6692496920551587 $204 $348 forward 7 unknown #
point $-1 45.89983825189978 -24.375647919332973 7.6692496920551587 #
point $-1 45.89983825189978 24.375647919332973 7.6692496920551587 #
straight-curve $-1 -45.89983825189978 0 7.6692496920551587 0 -1 0 I I #
point $-1 -45.89983825189978 -24.375647919332973 7.6692496920551587 #
point $-1 -45.89983825189978 24.375647919332973 7.6692496920551587 #
straight-curve $-1 0 24.375647919332973 -7.6692496920551587 1 0 0 I I #
straight-curve $-1 0 -24.375647919332973 -7.6692496920551587 -1 0 0 I I #
plane-surface $-1 0 0 7.6692496920551587 0 0 1 1 0 0 forward_v I I I I #
coedge $-1 $225 $222 $227 $312 reversed $139 $-1 #
coedge $-1 $222 $225 $318 $349 reversed $139 $-1 #
edge $-1 $320 -7.6692496920551587 $314 7.6692496920551587 $239 $350 forward 7 unknown #
edge $-1 $309 -4.7120490819378915 $237 4.7120490819378915 $224 $351 forward 7 unknown #
vertex $-1 $349 $352 #
vertex $-1 $312 $353 #
straight-curve $-1 -55.323936415775563 -13.408763632676433 0 0 0 -1 I I #
edge $-1 $310 -2.1858075487268884 $314 2.1858075487268884 $305 $354 forward 7 unknown #
straight-curve $-1 -50.611887333837672 -13.408763632676433 -7.6692496920551587 -1 0 0 I I #
vertex $-1 $229 $355 #
straight-curve $-1 -50.611887333837672 -9.0371485352226557 -7.6692496920551587 1 0 0 I I #
point $-1 -45.89983825189978 -13.408763632676433 -7.6692496920551587 #
straight-curve $-1 -45.89983825189978 -13.408763632676433 0 0 0 -1 I I #
coedge $-1 $235 $234 $306 $349 forward $236 $-1 #
point $-1 -45.89983825189978 -13.408763632676433 7.6692496920551587 #
vertex $-1 $240 $356 #
straight-curve $-1 -50.611887333837672 -9.0371485352226557 7.6692496920551587 -1 0 0 I I #
coedge $-1 $254 $253 $246 $323 forward $243 $-1 #
edge $-1 $324 58.496886540457737 $327 62.394769847127243 $322 $357 forward 7 unknown #
vertex $-1 $258 $358 #
straight-curve $-1 13.915891226025543 -16.313303908366379 7.6692496920551605 1 0 0 I I #
edge $-1 $327 -10.401874290705724 $255 -1.4209849446155891 $254 $359 forward 7 unknown #
vertex $-1 $326 $360 #
straight-curve $-1 -27.414642687844641 -16.313303908366379 59.017791525281382 -0.79863550430605224 0 0.6018150307709319 I I #
point $-1 40.727172497173818 -16.313303908366379 7.6692496920551605 #
point $-1 45.899838251899773 -7.3324145622762451 3.7713663853856545 #
straight-curve $-1 45.89983825189978 0 7.6692496920551587 0 1 0 I I #
vertex $-1 $261 $361 #
point $-1 41.837284837818139 -11.82285923532131 2.099657138695556 #
edge $-1 $335 58.496886540457737 $338 62.394769847127243 $266 $362 forward 7 unknown #
vertex $-1 $280 $363 #
straight-curve $-1 13.915891226025543 8.062344010966596 7.6692496920551605 1 0 0 I I #
edge $-1 $338 1.7859496689607646 $277 10.766839015050897 $276 $364 forward 7 unknown #
vertex $-1 $337 $365 #
straight-curve $-1 -27.414642687844641 8.062344010966596 59.017791525281382 -0.79863550430605224 0 0.6018150307709319 I I #
point $-1 40.727172497173818 8.062344010966596 7.6692496920551605 #
point $-1 45.899838251899773 17.043233357056728 3.7713663853856545 #
straight-curve $-1 45.89983825189978 0 7.6692496920551587 0 1 0 I I #
vertex $-1 $283 $366 #
point $-1 41.837284837818139 12.552788684011663 2.099657138695556 #
point $-1 45.89983825189978 24.375647919332973 -7.6692496920551587 #
point $-1 45.89983825189978 -24.375647919332973 -7.6692496920551587 #
straight-curve $-1 45.89983825189978 -24.375647919332973 0 0 0 -1 I I #
straight-curve $-1 45.89983825189978 24.375647919332973 0 0 0 -1 I I #
edge $-1 $320 -2.1858075487268884 $309 2.1858075487268884 $306 $367 forward 7 unknown #
straight-curve $-1 -55.323936415775563 -9.0371485352226557 0 0 0 -1 I I #
straight-curve $-1 -50.611887333837672 -13.408763632676433 7.6692496920551587 1 0 0 I I #
point $-1 -55.323936415775563 -13.408763632676433 7.6692496920551587 #
point $-1 -55.323936415775563 -13.408763632676433 -7.6692496920551587 #
straight-curve $-1 -55.323936415775563 -11.222956083949544 -7.6692496920551587 0 1 0 I I #
point $-1 -55.323936415775563 -9.0371485352226557 -7.6692496920551587 #
point $-1 -55.323936415775563 -9.0371485352226557 7.6692496920551587 #
straight-curve $-1 45.89983825189978 -16.313303908366379 66.166136232512898 0 0 -1 I I #
point $-1 45.89983825189978 -16.313303908366379 7.6692496920551587 #
straight-curve $-1 45.899838251899766 -5.911429617660656 3.771366385385658 0 1 0 I I #
point $-1 45.899838251899773 -16.313303908366379 3.7713663853856545 #
point $-1 40.436834302741154 -11.82285923532131 1.9028366651604358 #
straight-curve $-1 45.89983825189978 8.062344010966596 66.166136232512898 0 0 -1 I I #
point $-1 45.89983825189978 8.062344010966596 7.6692496920551587 #
straight-curve $-1 45.899838251899766 6.2763943420058315 3.771366385385658 0 1 0 I I #
point $-1 45.899838251899773 8.062344010966596 3.7713663853856545 #
point $-1 40.436834302741154 12.552788684011663 1.9028366651604358 #
straight-curve $-1 -55.323936415775563 -11.222956083949544 7.6692496920551587 0 -1 0 I I #
End-of-ACIS-data 