500 0 12 0           
7 Unknown 11 ACIS 5.0 NT 24 Fri Mar 26 02:22:41 1999 
-1 9.9999999999999995e-007 1e-010 
body $-1 $12 $-1 $13 #
body $-1 $14 $-1 $15 #
body $-1 $16 $-1 $17 #
body $-1 $18 $-1 $19 #
body $-1 $20 $-1 $21 #
body $-1 $22 $-1 $23 #
body $-1 $24 $-1 $25 #
body $-1 $26 $-1 $27 #
body $-1 $28 $-1 $29 #
body $-1 $30 $-1 $31 #
body $-1 $32 $-1 $33 #
body $-1 $34 $-1 $35 #
lump $-1 $-1 $36 $0 #
transform $-1 1 0 0 0 1 0 0 0 1 43.783074434644611 21.170660461516441 7.9732892714449273 1 rotate no_reflect no_shear #
lump $-1 $-1 $37 $1 #
transform $-1 1 0 0 0 1 0 0 0 1 43.783074434644611 21.170660461516441 7.9732892714449273 1 rotate no_reflect no_shear #
lump $-1 $-1 $38 $2 #
transform $-1 1 0 0 0 1 0 0 0 1 43.783074434644611 21.170660461516441 7.9732892714449273 1 rotate no_reflect no_shear #
lump $-1 $-1 $39 $3 #
transform $-1 1 0 0 0 1 0 0 0 1 43.783074434644611 21.170660461516441 7.9732892714449273 1 rotate no_reflect no_shear #
lump $-1 $-1 $40 $4 #
transform $-1 1 0 0 0 1 0 0 0 1 43.783074434644611 21.170660461516441 7.9732892714449273 1 rotate no_reflect no_shear #
lump $-1 $-1 $41 $5 #
transform $-1 1 0 0 0 1 0 0 0 1 43.783074434644611 21.170660461516441 7.9732892714449273 1 rotate no_reflect no_shear #
lump $-1 $-1 $42 $6 #
transform $-1 1 0 0 0 1 0 0 0 1 43.783074434644611 21.170660461516441 7.9732892714449273 1 rotate no_reflect no_shear #
lump $-1 $-1 $43 $7 #
transform $-1 1 0 0 0 1 0 0 0 1 43.783074434644611 21.170660461516441 7.9732892714449273 1 rotate no_reflect no_shear #
lump $-1 $-1 $44 $8 #
transform $-1 1 0 0 0 1 0 0 0 1 43.783074434644611 21.170660461516441 7.9732892714449273 1 rotate no_reflect no_shear #
lump $-1 $-1 $45 $9 #
transform $-1 1 0 0 0 1 0 0 0 1 43.783074434644611 21.170660461516441 7.9732892714449273 1 rotate no_reflect no_shear #
lump $-1 $-1 $46 $10 #
transform $-1 1 0 0 0 1 0 0 0 1 43.783074434644611 21.170660461516441 7.9732892714449273 1 rotate no_reflect no_shear #
lump $-1 $-1 $47 $11 #
transform $-1 1 0 0 0 1 0 0 0 1 43.783074434644611 21.170660461516441 7.9732892714449273 1 rotate no_reflect no_shear #
shell $-1 $-1 $-1 $48 $-1 $12 #
shell $-1 $-1 $-1 $49 $-1 $14 #
shell $-1 $-1 $-1 $50 $-1 $16 #
shell $-1 $-1 $-1 $51 $-1 $18 #
shell $-1 $-1 $-1 $52 $-1 $20 #
shell $-1 $-1 $-1 $53 $-1 $22 #
shell $-1 $-1 $-1 $54 $-1 $24 #
shell $-1 $-1 $-1 $55 $-1 $26 #
shell $-1 $-1 $-1 $56 $-1 $28 #
shell $-1 $-1 $-1 $57 $-1 $30 #
shell $-1 $-1 $-1 $58 $-1 $32 #
shell $-1 $-1 $-1 $59 $-1 $34 #
face $-1 $60 $61 $36 $-1 $62 forward single #
face $-1 $63 $64 $37 $-1 $65 forward single #
face $-1 $66 $67 $38 $-1 $68 forward single #
face $-1 $69 $70 $39 $-1 $71 reversed single #
face $-1 $72 $73 $40 $-1 $74 forward single #
face $-1 $75 $76 $41 $-1 $77 forward single #
face $-1 $78 $79 $42 $-1 $80 reversed single #
face $-1 $81 $82 $43 $-1 $83 forward single #
face $-1 $84 $85 $44 $-1 $86 forward single #
face $-1 $87 $88 $45 $-1 $89 reversed single #
face $-1 $90 $91 $46 $-1 $92 forward single #
face $-1 $93 $94 $47 $-1 $95 forward single #
face $-1 $96 $97 $36 $-1 $98 reversed single #
loop $-1 $-1 $99 $48 #
plane-surface $-1 0 0 7.9732892714449273 0 0 1 1 0 0 forward_v I I I I #
face $-1 $100 $101 $37 $-1 $102 reversed single #
loop $-1 $-1 $103 $49 #
plane-surface $-1 0 -21.170660461516441 0 0 1 0 0 0 1 forward_v I I I I #
face $-1 $104 $105 $38 $-1 $106 reversed single #
loop $-1 $-1 $107 $50 #
plane-surface $-1 0 21.170660461516441 0 0 -1 0 0 0 -1 forward_v I I I I #
face $-1 $108 $109 $39 $-1 $110 reversed single #
loop $-1 $-1 $111 $51 #
plane-surface $-1 63.155487799416555 -6.4647240396076553 124.05287259334882 0 -1 0 -0.80901700255871778 0 -0.5877852410284794 forward_v I I I I #
face $-1 $112 $113 $40 $-1 $114 forward single #
loop $-1 $115 $116 $52 #
cone-surface $-1 40.834777210226584 -10.746595020696748 4.3598118827429611 -0.80901700255871778 0 -0.5877852410284794 0.2938926205142397 0 -0.40450850127935889 1 I I 0 1 0.5 forward I I I I #
face $-1 $117 $118 $41 $-1 $119 forward single #
loop $-1 $120 $121 $53 #
cone-surface $-1 40.834777210226584 -8.1774724320432917 4.3598118827429611 -0.80901700255871778 0 -0.5877852410284794 0.2938926205142397 0 -0.40450850127935889 1 I I 0 1 0.5 forward I I I I #
face $-1 $122 $123 $42 $-1 $124 reversed single #
loop $-1 $-1 $125 $54 #
plane-surface $-1 63.155487799416555 3.0358227374032838 124.05287259334882 0 -1 0 -0.80901700255871778 0 -0.5877852410284794 forward_v I I I I #
face $-1 $126 $127 $43 $-1 $128 forward single #
loop $-1 $129 $130 $55 #
cone-surface $-1 40.834777210226584 -1.2460482436858094 4.3598118827429611 -0.80901700255871778 0 -0.5877852410284794 0.2938926205142397 0 -0.40450850127935889 1 I I 0 1 0.5 forward I I I I #
face $-1 $131 $132 $44 $-1 $133 forward single #
loop $-1 $134 $135 $56 #
cone-surface $-1 40.834777210226584 1.3230743449676474 4.3598118827429611 -0.80901700255871778 0 -0.5877852410284794 0.2938926205142397 0 -0.40450850127935889 1 I I 0 1 0.5 forward I I I I #
face $-1 $136 $137 $45 $-1 $138 reversed single #
loop $-1 $-1 $139 $57 #
plane-surface $-1 63.155487799416555 12.536369514414222 124.05287259334882 0 -1 0 -0.80901700255871778 0 -0.5877852410284794 forward_v I I I I #
face $-1 $140 $141 $46 $-1 $142 forward single #
loop $-1 $143 $144 $58 #
cone-surface $-1 40.834777210226584 8.2544985333251297 4.3598118827429611 -0.80901700255871778 0 -0.5877852410284794 0.2938926205142397 0 -0.40450850127935889 1 I I 0 1 0.5 forward I I I I #
face $-1 $145 $146 $47 $-1 $147 forward single #
loop $-1 $148 $149 $59 #
cone-surface $-1 40.834777210226584 10.823621121978587 4.3598118827429611 -0.80901700255871778 0 -0.5877852410284794 0.2938926205142397 0 -0.40450850127935889 1 I I 0 1 0.5 forward I I I I #
face $-1 $150 $151 $36 $-1 $152 reversed single #
loop $-1 $-1 $153 $60 #
plane-surface $-1 0 0 -7.9732892714449273 0 0 1 1 0 0 forward_v I I I I #
coedge $-1 $154 $155 $156 $157 forward $61 $-1 #
face $-1 $158 $159 $37 $-1 $160 forward single #
loop $-1 $-1 $161 $63 #
plane-surface $-1 -43.783074434644611 0 0 1 0 0 0 0 -1 forward_v I I I I #
coedge $-1 $162 $163 $164 $165 forward $64 $-1 #
face $-1 $166 $167 $38 $-1 $168 reversed single #
loop $-1 $-1 $169 $66 #
plane-surface $-1 -43.783074434644611 0 0 1 0 0 0 0 -1 forward_v I I I I #
coedge $-1 $170 $171 $172 $173 forward $67 $-1 #
face $-1 $174 $175 $39 $-1 $176 reversed single #
loop $-1 $-1 $177 $69 #
plane-surface $-1 -7.6870154844262473 -9.46203372637002 72.582782674277951 0.80901700255871778 0 0.5877852410284794 0.5877852410284794 0 -0.80901700255871778 forward_v I I I I #
coedge $-1 $178 $179 $180 $181 reversed $70 $-1 #
face $-1 $-1 $182 $40 $-1 $183 forward single #
loop $-1 $184 $185 $72 #
cone-surface $-1 39.948499046888521 -10.746595020696748 3.7158931242887681 -0.80901700255871778 0 -0.5877852410284794 0.14694631025711985 0 -0.20225425063967944 1 I I -0.70710678118654746 0.70710678118654746 0.25 forward I I I I #
loop $-1 $-1 $186 $52 #
coedge $-1 $116 $116 $187 $188 reversed $73 $-1 #
face $-1 $-1 $189 $41 $-1 $190 forward single #
loop $-1 $191 $192 $75 #
cone-surface $-1 39.948499046888521 -8.1774724320432917 3.7158931242887681 -0.80901700255871778 0 -0.5877852410284794 0.14694631025711985 0 -0.20225425063967944 1 I I -0.70710678118654746 0.70710678118654746 0.25 forward I I I I #
loop $-1 $-1 $193 $53 #
coedge $-1 $121 $121 $194 $195 reversed $76 $-1 #
face $-1 $196 $197 $42 $-1 $198 reversed single #
loop $-1 $-1 $199 $78 #
plane-surface $-1 -7.6870154844262473 0.038513050640919033 72.582782674277951 0.80901700255871778 0 0.5877852410284794 0.5877852410284794 0 -0.80901700255871778 forward_v I I I I #
coedge $-1 $200 $201 $202 $203 reversed $79 $-1 #
face $-1 $-1 $204 $43 $-1 $205 forward single #
loop $-1 $206 $207 $81 #
cone-surface $-1 39.948499046888521 -1.2460482436858094 3.7158931242887681 -0.80901700255871778 0 -0.5877852410284794 0.14694631025711985 0 -0.20225425063967944 1 I I -0.70710678118654746 0.70710678118654746 0.25 forward I I I I #
loop $-1 $-1 $208 $55 #
coedge $-1 $130 $130 $209 $210 reversed $82 $-1 #
face $-1 $-1 $211 $44 $-1 $212 forward single #
loop $-1 $213 $214 $84 #
cone-surface $-1 39.948499046888521 1.3230743449676474 3.7158931242887681 -0.80901700255871778 0 -0.5877852410284794 0.14694631025711985 0 -0.20225425063967944 1 I I -0.70710678118654746 0.70710678118654746 0.25 forward I I I I #
loop $-1 $-1 $215 $56 #
coedge $-1 $135 $135 $216 $217 reversed $85 $-1 #
face $-1 $218 $219 $45 $-1 $220 reversed single #
loop $-1 $-1 $221 $87 #
plane-surface $-1 -7.6870154844262473 9.5390598276518581 72.582782674277951 0.80901700255871778 0 0.5877852410284794 0.5877852410284794 0 -0.80901700255871778 forward_v I I I I #
coedge $-1 $222 $223 $224 $225 reversed $88 $-1 #
face $-1 $-1 $226 $46 $-1 $227 forward single #
loop $-1 $228 $229 $90 #
cone-surface $-1 39.948499046888521 8.2544985333251297 3.7158931242887681 -0.80901700255871778 0 -0.5877852410284794 0.14694631025711985 0 -0.20225425063967944 1 I I -0.70710678118654746 0.70710678118654746 0.25 forward I I I I #
loop $-1 $-1 $230 $58 #
coedge $-1 $144 $144 $231 $232 reversed $91 $-1 #
face $-1 $-1 $233 $47 $-1 $234 forward single #
loop $-1 $235 $236 $93 #
cone-surface $-1 39.948499046888521 10.823621121978587 3.7158931242887681 -0.80901700255871778 0 -0.5877852410284794 0.14694631025711985 0 -0.20225425063967944 1 I I -0.70710678118654746 0.70710678118654746 0.25 forward I I I I #
loop $-1 $-1 $237 $59 #
coedge $-1 $149 $149 $238 $239 reversed $94 $-1 #
face $-1 $240 $241 $36 $-1 $242 reversed single #
loop $-1 $-1 $243 $96 #
plane-surface $-1 0 -21.170660461516441 0 0 1 0 0 0 1 forward_v I I I I #
coedge $-1 $244 $245 $246 $247 forward $97 $-1 #
coedge $-1 $248 $99 $249 $250 forward $61 $-1 #
coedge $-1 $99 $248 $251 $252 forward $61 $-1 #
coedge $-1 $253 $254 $99 $157 reversed $255 $-1 #
edge $-1 $256 -21.170660461516441 $257 21.170660461516441 $156 $258 forward 7 unknown #
face $-1 $259 $260 $37 $-1 $261 reversed single #
loop $-1 $-1 $262 $100 #
plane-surface $-1 0 -24.536429025564498 -4.4732892714449273 0 0 1 1 0 0 forward_v I I I I #
coedge $-1 $263 $264 $163 $265 forward $101 $-1 #
coedge $-1 $266 $103 $267 $268 reversed $64 $-1 #
coedge $-1 $103 $266 $161 $265 reversed $64 $-1 #
coedge $-1 $269 $262 $103 $165 reversed $159 $-1 #
edge $-1 $270 -43.783074434644611 $271 43.783074434644611 $164 $272 forward 7 unknown #
face $-1 $273 $274 $38 $-1 $275 reversed single #
loop $-1 $-1 $276 $104 #
plane-surface $-1 0 24.724732193468419 3.350888756957116 0 0 1 1 0 0 forward_v I I I I #
coedge $-1 $277 $278 $171 $279 forward $105 $-1 #
coedge $-1 $280 $107 $281 $282 reversed $67 $-1 #
coedge $-1 $107 $280 $169 $279 reversed $67 $-1 #
coedge $-1 $283 $276 $107 $173 reversed $167 $-1 #
edge $-1 $284 -43.783074434644611 $285 43.783074434644611 $172 $286 forward 7 unknown #
face $-1 $287 $288 $39 $-1 $289 reversed single #
loop $-1 $-1 $290 $108 #
plane-surface $-1 63.155487799416555 -12.459343413132384 124.05287259334882 0 1 0 0.80901700255871778 0 0.5877852410284794 forward_v I I I I #
coedge $-1 $291 $292 $293 $294 reversed $109 $-1 #
coedge $-1 $179 $111 $295 $296 reversed $70 $-1 #
coedge $-1 $111 $178 $291 $297 reversed $70 $-1 #
coedge $-1 $293 $298 $111 $181 forward $299 $-1 #
edge $-1 $300 -12.205330534936333 $301 -7.6767839114970862 $180 $302 forward 7 unknown #
loop $-1 $-1 $187 $112 #
plane-surface $-1 -7.6870154844262473 -9.46203372637002 72.582782674277951 0.80901700255871778 0 0.5877852410284794 0.5877852410284794 0 -0.80901700255871778 forward_v I I I I #
loop $-1 $-1 $303 $72 #
coedge $-1 $185 $185 $186 $304 reversed $113 $-1 #
coedge $-1 $186 $186 $185 $304 forward $115 $-1 #
coedge $-1 $187 $187 $116 $188 forward $182 $-1 #
edge $-1 $305 0 $305 6.2831853071796004 $187 $306 forward 7 unknown #
loop $-1 $-1 $194 $117 #
plane-surface $-1 -7.6870154844262473 -9.46203372637002 72.582782674277951 0.80901700255871778 0 0.5877852410284794 0.5877852410284794 0 -0.80901700255871778 forward_v I I I I #
loop $-1 $-1 $307 $75 #
coedge $-1 $192 $192 $193 $308 reversed $118 $-1 #
coedge $-1 $193 $193 $192 $308 forward $120 $-1 #
coedge $-1 $194 $194 $121 $195 forward $189 $-1 #
edge $-1 $309 0 $309 6.2831853071796004 $194 $310 forward 7 unknown #
face $-1 $311 $312 $42 $-1 $313 reversed single #
loop $-1 $-1 $314 $122 #
plane-surface $-1 63.155487799416555 -2.9587966361214457 124.05287259334882 0 1 0 0.80901700255871778 0 0.5877852410284794 forward_v I I I I #
coedge $-1 $315 $316 $317 $318 reversed $123 $-1 #
coedge $-1 $201 $125 $319 $320 reversed $79 $-1 #
coedge $-1 $125 $200 $315 $321 reversed $79 $-1 #
coedge $-1 $317 $322 $125 $203 forward $323 $-1 #
edge $-1 $324 -12.205330534936333 $325 -7.6767839114970862 $202 $326 forward 7 unknown #
loop $-1 $-1 $209 $126 #
plane-surface $-1 -7.6870154844262473 0.038513050640919033 72.582782674277951 0.80901700255871778 0 0.5877852410284794 0.5877852410284794 0 -0.80901700255871778 forward_v I I I I #
loop $-1 $-1 $327 $81 #
coedge $-1 $207 $207 $208 $328 reversed $127 $-1 #
coedge $-1 $208 $208 $207 $328 forward $129 $-1 #
coedge $-1 $209 $209 $130 $210 forward $204 $-1 #
edge $-1 $329 0 $329 6.2831853071796004 $209 $330 forward 7 unknown #
loop $-1 $-1 $216 $131 #
plane-surface $-1 -7.6870154844262473 0.038513050640919033 72.582782674277951 0.80901700255871778 0 0.5877852410284794 0.5877852410284794 0 -0.80901700255871778 forward_v I I I I #
loop $-1 $-1 $331 $84 #
coedge $-1 $214 $214 $215 $332 reversed $132 $-1 #
coedge $-1 $215 $215 $214 $332 forward $134 $-1 #
coedge $-1 $216 $216 $135 $217 forward $211 $-1 #
edge $-1 $333 0 $333 6.2831853071796004 $216 $334 forward 7 unknown #
face $-1 $335 $336 $45 $-1 $337 reversed single #
loop $-1 $-1 $338 $136 #
plane-surface $-1 63.155487799416555 6.5417501408894934 124.05287259334882 0 1 0 0.80901700255871778 0 0.5877852410284794 forward_v I I I I #
coedge $-1 $339 $340 $341 $342 reversed $137 $-1 #
coedge $-1 $223 $139 $343 $344 reversed $88 $-1 #
coedge $-1 $139 $222 $339 $345 reversed $88 $-1 #
coedge $-1 $341 $346 $139 $225 forward $347 $-1 #
edge $-1 $348 -12.205330534936333 $349 -7.6767839114970862 $224 $350 forward 7 unknown #
loop $-1 $-1 $231 $140 #
plane-surface $-1 -7.6870154844262473 9.5390598276518581 72.582782674277951 0.80901700255871778 0 0.5877852410284794 0.5877852410284794 0 -0.80901700255871778 forward_v I I I I #
loop $-1 $-1 $351 $90 #
coedge $-1 $229 $229 $230 $352 reversed $141 $-1 #
coedge $-1 $230 $230 $229 $352 forward $143 $-1 #
coedge $-1 $231 $231 $144 $232 forward $226 $-1 #
edge $-1 $353 0 $353 6.2831853071796004 $231 $354 forward 7 unknown #
loop $-1 $-1 $238 $145 #
plane-surface $-1 -7.6870154844262473 9.5390598276518581 72.582782674277951 0.80901700255871778 0 0.5877852410284794 0.5877852410284794 0 -0.80901700255871778 forward_v I I I I #
loop $-1 $-1 $355 $93 #
coedge $-1 $236 $236 $237 $356 reversed $146 $-1 #
coedge $-1 $237 $237 $236 $356 forward $148 $-1 #
coedge $-1 $238 $238 $149 $239 forward $233 $-1 #
edge $-1 $357 0 $357 6.2831853071796004 $238 $358 forward 7 unknown #
face $-1 $359 $360 $36 $-1 $361 reversed single #
loop $-1 $-1 $362 $150 #
plane-surface $-1 -43.783074434644611 0 0 1 0 0 0 0 -1 forward_v I I I I #
coedge $-1 $363 $251 $364 $365 forward $151 $-1 #
coedge $-1 $366 $153 $363 $367 forward $97 $-1 #
coedge $-1 $153 $366 $368 $369 forward $97 $-1 #
coedge $-1 $254 $253 $153 $247 reversed $255 $-1 #
edge $-1 $370 -21.170660461516441 $371 21.170660461516441 $246 $372 forward 7 unknown #
coedge $-1 $155 $154 $373 $374 forward $61 $-1 #
coedge $-1 $375 $376 $154 $250 reversed $360 $-1 #
edge $-1 $257 -43.783074434644611 $377 43.783074434644611 $249 $378 forward 7 unknown #
coedge $-1 $243 $379 $155 $252 reversed $151 $-1 #
edge $-1 $380 -43.783074434644611 $256 43.783074434644611 $251 $381 forward 7 unknown #
coedge $-1 $246 $156 $379 $382 forward $255 $-1 #
coedge $-1 $156 $246 $375 $383 reversed $255 $-1 #
loop $-1 $-1 $253 $359 #
vertex $-1 $157 $384 #
vertex $-1 $157 $385 #
straight-curve $-1 43.783074434644611 0 7.9732892714449273 0 1 0 I I #
face $-1 $386 $387 $37 $-1 $388 reversed single #
loop $-1 $-1 $389 $158 #
plane-surface $-1 0 -24.536429025564498 -7.4732892714449273 0 0 1 1 0 0 forward_v I I I I #
coedge $-1 $164 $390 $391 $392 forward $159 $-1 #
coedge $-1 $393 $161 $394 $395 reversed $101 $-1 #
coedge $-1 $161 $393 $269 $396 reversed $101 $-1 #
edge $-1 $270 4.4732892714449273 $397 7.4732892714449273 $161 $398 forward 7 unknown #
coedge $-1 $163 $162 $399 $400 forward $64 $-1 #
coedge $-1 $391 $401 $162 $268 forward $402 $-1 #
edge $-1 $403 -7.4732892714449273 $271 -4.4732892714449273 $267 $404 forward 7 unknown #
coedge $-1 $390 $164 $264 $396 forward $159 $-1 #
vertex $-1 $265 $405 #
vertex $-1 $392 $406 #
straight-curve $-1 0 -21.170660461516441 -4.4732892714449273 1 0 0 I I #
face $-1 $407 $408 $38 $-1 $409 forward single #
loop $-1 $-1 $410 $166 #
plane-surface $-1 0 28.278803925420394 5.6620890142010216 0 -1 0 0 0 -1 forward_v I I I I #
coedge $-1 $172 $411 $412 $413 forward $167 $-1 #
coedge $-1 $414 $169 $415 $416 reversed $105 $-1 #
coedge $-1 $169 $414 $283 $417 reversed $105 $-1 #
edge $-1 $284 3.350888756957116 $418 7.9732892714449273 $169 $419 forward 7 unknown #
coedge $-1 $171 $170 $420 $421 reversed $67 $-1 #
coedge $-1 $412 $422 $170 $282 forward $423 $-1 #
edge $-1 $424 -7.9732892714449273 $285 -3.350888756957116 $281 $425 forward 7 unknown #
coedge $-1 $411 $172 $278 $417 forward $167 $-1 #
vertex $-1 $279 $426 #
vertex $-1 $282 $427 #
straight-curve $-1 0 21.170660461516441 3.350888756957116 1 0 0 I I #
face $-1 $-1 $299 $39 $-1 $428 forward single #
loop $-1 $-1 $429 $174 #
plane-surface $-1 43.783074434644611 0 0 -1 0 0 0 0 1 forward_v I I I I #
coedge $-1 $430 $431 $432 $433 reversed $175 $-1 #
coedge $-1 $434 $177 $179 $297 forward $109 $-1 #
coedge $-1 $177 $434 $430 $435 forward $109 $-1 #
coedge $-1 $432 $180 $177 $294 forward $299 $-1 #
edge $-1 $301 1.7337071764226453 $436 7.7283265499473739 $293 $437 forward 7 unknown #
coedge $-1 $438 $439 $178 $296 forward $288 $-1 #
edge $-1 $440 -60.286156906239263 $300 -54.053147025229485 $295 $441 forward 7 unknown #
edge $-1 $301 79.86172502986885 $440 87.566148869289194 $179 $442 forward 7 unknown #
coedge $-1 $180 $432 $438 $443 forward $299 $-1 #
loop $-1 $-1 $432 $287 #
vertex $-1 $296 $444 #
vertex $-1 $181 $445 #
straight-curve $-1 31.577743899708278 -6.4647240396076553 7.9732892714449264 -1 0 0 I I #
coedge $-1 $303 $303 $-1 $446 reversed $184 $-1 #
edge $-1 $447 0 $447 6.2831853071796004 $185 $448 forward 7 unknown #
vertex $-1 $188 $449 #
ellipse-curve $-1 41.518801122924977 -10.746595020696748 4.8567843309400409 0.80901700255871778 0 0.5877852410284794 0.2938926205142397 0 -0.40450850127935889 1 I I #
coedge $-1 $307 $307 $-1 $450 reversed $191 $-1 #
edge $-1 $451 0 $451 6.2831853071796004 $192 $452 forward 7 unknown #
vertex $-1 $195 $453 #
ellipse-curve $-1 41.518801122924977 -8.1774724320432917 4.8567843309400409 0.80901700255871778 0 0.5877852410284794 0.2938926205142397 0 -0.40450850127935889 1 I I #
face $-1 $-1 $323 $42 $-1 $454 forward single #
loop $-1 $-1 $455 $196 #
plane-surface $-1 43.783074434644611 0 0 -1 0 0 0 0 1 forward_v I I I I #
coedge $-1 $456 $457 $458 $459 reversed $197 $-1 #
coedge $-1 $460 $199 $201 $321 forward $123 $-1 #
coedge $-1 $199 $460 $456 $461 forward $123 $-1 #
coedge $-1 $458 $202 $199 $318 forward $323 $-1 #
edge $-1 $325 -3.0165662120828243 $462 2.9780531614419052 $317 $463 forward 7 unknown #
coedge $-1 $464 $465 $200 $320 forward $312 $-1 #
edge $-1 $466 -60.286156906239263 $324 -54.053147025229485 $319 $467 forward 7 unknown #
edge $-1 $325 79.86172502986885 $466 87.566148869289194 $201 $468 forward 7 unknown #
coedge $-1 $202 $458 $464 $469 forward $323 $-1 #
loop $-1 $-1 $458 $311 #
vertex $-1 $320 $470 #
vertex $-1 $203 $471 #
straight-curve $-1 31.577743899708278 3.0358227374032838 7.9732892714449264 -1 0 0 I I #
coedge $-1 $327 $327 $-1 $472 reversed $206 $-1 #
edge $-1 $473 0 $473 6.2831853071796004 $207 $474 forward 7 unknown #
vertex $-1 $210 $475 #
ellipse-curve $-1 41.518801122924977 -1.2460482436858094 4.8567843309400409 0.80901700255871778 0 0.5877852410284794 0.2938926205142397 0 -0.40450850127935889 1 I I #
coedge $-1 $331 $331 $-1 $476 reversed $213 $-1 #
edge $-1 $477 0 $477 6.2831853071796004 $214 $478 forward 7 unknown #
vertex $-1 $217 $479 #
ellipse-curve $-1 41.518801122924977 1.3230743449676474 4.8567843309400409 0.80901700255871778 0 0.5877852410284794 0.2938926205142397 0 -0.40450850127935889 1 I I #
face $-1 $-1 $347 $45 $-1 $480 forward single #
loop $-1 $-1 $481 $218 #
plane-surface $-1 43.783074434644611 0 0 -1 0 0 0 0 1 forward_v I I I I #
coedge $-1 $482 $483 $484 $485 reversed $219 $-1 #
coedge $-1 $486 $221 $223 $345 forward $137 $-1 #
coedge $-1 $221 $486 $482 $487 forward $137 $-1 #
coedge $-1 $484 $224 $221 $342 forward $347 $-1 #
edge $-1 $349 -7.7668396005882929 $488 -1.7722202270635643 $341 $489 forward 7 unknown #
coedge $-1 $490 $491 $222 $344 forward $336 $-1 #
edge $-1 $492 -60.286156906239263 $348 -54.053147025229485 $343 $493 forward 7 unknown #
edge $-1 $349 79.86172502986885 $492 87.566148869289194 $223 $494 forward 7 unknown #
coedge $-1 $224 $484 $490 $495 forward $347 $-1 #
loop $-1 $-1 $484 $335 #
vertex $-1 $344 $496 #
vertex $-1 $225 $497 #
straight-curve $-1 31.577743899708278 12.536369514414222 7.9732892714449264 -1 0 0 I I #
coedge $-1 $351 $351 $-1 $498 reversed $228 $-1 #
edge $-1 $499 0 $499 6.2831853071796004 $229 $500 forward 7 unknown #
vertex $-1 $232 $501 #
ellipse-curve $-1 41.518801122924977 8.2544985333251297 4.8567843309400409 0.80901700255871778 0 0.5877852410284794 0.2938926205142397 0 -0.40450850127935889 1 I I #
coedge $-1 $355 $355 $-1 $502 reversed $235 $-1 #
edge $-1 $503 0 $503 6.2831853071796004 $236 $504 forward 7 unknown #
vertex $-1 $239 $505 #
ellipse-curve $-1 41.518801122924977 10.823621121978587 4.8567843309400409 0.80901700255871778 0 0.5877852410284794 0.2938926205142397 0 -0.40450850127935889 1 I I #
face $-1 $-1 $255 $36 $-1 $506 reversed single #
loop $-1 $-1 $375 $240 #
plane-surface $-1 0 21.170660461516441 0 0 -1 0 0 0 -1 forward_v I I I I #
coedge $-1 $507 $373 $376 $508 forward $241 $-1 #
coedge $-1 $379 $243 $244 $367 reversed $151 $-1 #
coedge $-1 $373 $507 $243 $365 reversed $241 $-1 #
edge $-1 $380 -7.9732892714449273 $509 7.9732892714449273 $364 $510 forward 7 unknown #
coedge $-1 $245 $244 $507 $511 forward $97 $-1 #
edge $-1 $371 -43.783074434644611 $509 43.783074434644611 $363 $512 forward 7 unknown #
coedge $-1 $376 $375 $245 $369 reversed $360 $-1 #
edge $-1 $513 -43.783074434644611 $370 43.783074434644611 $368 $514 forward 7 unknown #
vertex $-1 $247 $515 #
vertex $-1 $382 $516 #
straight-curve $-1 43.783074434644611 0 -7.9732892714449273 0 -1 0 I I #
coedge $-1 $362 $364 $248 $374 reversed $241 $-1 #
edge $-1 $377 -21.170660461516441 $380 21.170660461516441 $373 $517 forward 7 unknown #
coedge $-1 $368 $249 $254 $383 forward $360 $-1 #
coedge $-1 $249 $368 $362 $508 reversed $360 $-1 #
vertex $-1 $250 $518 #
straight-curve $-1 0 21.170660461516441 7.9732892714449273 -1 0 0 I I #
coedge $-1 $251 $363 $253 $382 reversed $151 $-1 #
vertex $-1 $374 $519 #
straight-curve $-1 0 -21.170660461516441 7.9732892714449273 1 0 0 I I #
edge $-1 $256 -7.9732892714449273 $371 7.9732892714449273 $253 $520 forward 7 unknown #
edge $-1 $257 -7.9732892714449273 $370 7.9732892714449273 $254 $521 forward 7 unknown #
point $-1 43.783074434644611 -21.170660461516441 7.9732892714449273 #
point $-1 43.783074434644611 21.170660461516441 7.9732892714449273 #
face $-1 $-1 $402 $37 $-1 $522 reversed single #
loop $-1 $-1 $523 $259 #
plane-surface $-1 0 -27.902197589612555 -5.9732892714449273 0 1 0 0 0 1 forward_v I I I I #
coedge $-1 $524 $399 $401 $525 forward $260 $-1 #
coedge $-1 $262 $269 $526 $527 forward $159 $-1 #
coedge $-1 $528 $267 $262 $392 reversed $402 $-1 #
edge $-1 $529 -3.3657685640480572 $271 3.3657685640480572 $391 $530 forward 7 unknown #
coedge $-1 $264 $263 $523 $531 reversed $101 $-1 #
coedge $-1 $399 $524 $263 $395 forward $260 $-1 #
edge $-1 $532 -3.3657685640480572 $397 3.3657685640480572 $263 $533 forward 7 unknown #
edge $-1 $270 -3.3657685640480572 $534 3.3657685640480572 $264 $535 forward 7 unknown #
vertex $-1 $265 $536 #
straight-curve $-1 -43.783074434644611 -21.170660461516441 0 0 0 -1 I I #
coedge $-1 $389 $394 $266 $400 reversed $260 $-1 #
edge $-1 $403 -43.783074434644611 $397 43.783074434644611 $399 $537 forward 7 unknown #
coedge $-1 $267 $528 $389 $525 reversed $402 $-1 #
loop $-1 $-1 $267 $386 #
vertex $-1 $268 $538 #
straight-curve $-1 43.783074434644611 -21.170660461516441 0 0 0 1 I I #
point $-1 -43.783074434644611 -21.170660461516441 -4.4732892714449273 #
point $-1 43.783074434644611 -21.170660461516441 -4.4732892714449273 #
face $-1 $-1 $423 $38 $-1 $539 reversed single #
loop $-1 $-1 $420 $273 #
plane-surface $-1 0 0 7.9732892714449273 0 0 1 1 0 0 forward_v I I I I #
coedge $-1 $540 $541 $542 $543 forward $274 $-1 #
coedge $-1 $276 $283 $540 $544 forward $167 $-1 #
coedge $-1 $542 $281 $276 $413 reversed $423 $-1 #
edge $-1 $545 -3.554071731951975 $285 3.554071731951975 $412 $546 forward 7 unknown #
coedge $-1 $278 $277 $547 $548 forward $105 $-1 #
coedge $-1 $420 $549 $277 $416 forward $408 $-1 #
edge $-1 $550 -28.278803925420394 $418 -21.170660461516441 $277 $551 forward 7 unknown #
edge $-1 $284 -3.554071731951975 $552 3.554071731951975 $278 $553 forward 7 unknown #
vertex $-1 $279 $554 #
straight-curve $-1 -43.783074434644611 21.170660461516441 0 0 0 1 I I #
coedge $-1 $555 $415 $280 $421 forward $408 $-1 #
edge $-1 $418 -43.783074434644611 $424 43.783074434644611 $420 $556 forward 7 unknown #
coedge $-1 $281 $542 $555 $557 reversed $423 $-1 #
loop $-1 $-1 $281 $407 #
vertex $-1 $557 $558 #
straight-curve $-1 43.783074434644611 21.170660461516441 0 0 0 -1 I I #
point $-1 -43.783074434644611 21.170660461516444 3.350888756957116 #
point $-1 43.783074434644611 21.170660461516444 3.350888756957116 #
plane-surface $-1 0 0 7.9732892714449273 0 0 1 1 0 0 forward_v I I I I #
coedge $-1 $439 $438 $431 $559 forward $288 $-1 #
coedge $-1 $431 $290 $292 $435 reversed $175 $-1 #
coedge $-1 $290 $430 $429 $559 reversed $175 $-1 #
coedge $-1 $298 $293 $290 $433 forward $299 $-1 #
edge $-1 $436 7.6767839114970862 $560 12.205330534936333 $432 $561 forward 7 unknown #
coedge $-1 $292 $291 $439 $562 reversed $109 $-1 #
edge $-1 $563 -87.566148869289194 $436 -79.86172502986885 $430 $564 forward 7 unknown #
vertex $-1 $294 $565 #
straight-curve $-1 39.254527811205364 -4.73101686318501 7.9732892714449335 0 -1 0 I I #
coedge $-1 $429 $295 $298 $443 reversed $288 $-1 #
coedge $-1 $295 $429 $434 $562 forward $288 $-1 #
vertex $-1 $296 $566 #
straight-curve $-1 43.783074434644611 -6.4647240396076553 62.026436296674412 0 0 1 I I #
straight-curve $-1 -7.6870154844262473 -6.4647240396076553 72.582782674277951 0.5877852410284794 0 -0.80901700255871778 I I #
edge $-1 $560 -12.459343413132384 $300 -6.4647240396076553 $438 $567 forward 7 unknown #
point $-1 43.783074434644611 -6.4647240396076553 7.9732892714449273 #
point $-1 39.254527811205364 -6.4647240396076553 7.9732892714449264 #
edge $-1 $568 1 $568 0 $303 $-1 forward 7 unknown #
vertex $-1 $304 $569 #
ellipse-curve $-1 40.150753297528198 -10.746595020696748 3.8628394345458879 0.80901700255871778 0 0.5877852410284794 0.2938926205142397 0 -0.40450850127935889 1 I I #
point $-1 41.812693743439212 -10.746595020696748 4.4522758296606755 #
edge $-1 $570 1 $570 0 $307 $-1 forward 7 unknown #
vertex $-1 $308 $571 #
ellipse-curve $-1 40.150753297528198 -8.1774724320432917 3.8628394345458879 0.80901700255871778 0 0.5877852410284794 0.2938926205142397 0 -0.40450850127935889 1 I I #
point $-1 41.812693743439212 -8.1774724320432917 4.4522758296606755 #
plane-surface $-1 0 0 7.9732892714449273 0 0 1 1 0 0 forward_v I I I I #
coedge $-1 $465 $464 $457 $572 forward $312 $-1 #
coedge $-1 $457 $314 $316 $461 reversed $197 $-1 #
coedge $-1 $314 $456 $455 $572 reversed $197 $-1 #
coedge $-1 $322 $317 $314 $459 forward $323 $-1 #
edge $-1 $462 7.6767839114970862 $573 12.205330534936333 $458 $574 forward 7 unknown #
coedge $-1 $316 $315 $465 $575 reversed $123 $-1 #
edge $-1 $576 -87.566148869289194 $462 -79.86172502986885 $456 $577 forward 7 unknown #
vertex $-1 $318 $578 #
straight-curve $-1 39.254527811205364 0.019256525320459517 7.9732892714449335 0 -1 0 I I #
coedge $-1 $455 $319 $322 $469 reversed $312 $-1 #
coedge $-1 $319 $455 $460 $575 forward $312 $-1 #
vertex $-1 $320 $579 #
straight-curve $-1 43.783074434644611 3.0358227374032838 62.026436296674412 0 0 1 I I #
straight-curve $-1 -7.6870154844262473 3.0358227374032838 72.582782674277951 0.5877852410284794 0 -0.80901700255871778 I I #
edge $-1 $573 -2.9587966361214457 $324 3.0358227374032838 $464 $580 forward 7 unknown #
point $-1 43.783074434644611 3.0358227374032838 7.9732892714449273 #
point $-1 39.254527811205364 3.0358227374032838 7.9732892714449264 #
edge $-1 $581 1 $581 0 $327 $-1 forward 7 unknown #
vertex $-1 $328 $582 #
ellipse-curve $-1 40.150753297528198 -1.2460482436858094 3.8628394345458879 0.80901700255871778 0 0.5877852410284794 0.2938926205142397 0 -0.40450850127935889 1 I I #
point $-1 41.812693743439212 -1.2460482436858094 4.4522758296606755 #
edge $-1 $583 1 $583 0 $331 $-1 forward 7 unknown #
vertex $-1 $332 $584 #
ellipse-curve $-1 40.150753297528198 1.3230743449676474 3.8628394345458879 0.80901700255871778 0 0.5877852410284794 0.2938926205142397 0 -0.40450850127935889 1 I I #
point $-1 41.812693743439212 1.3230743449676474 4.4522758296606755 #
plane-surface $-1 0 0 7.9732892714449273 0 0 1 1 0 0 forward_v I I I I #
coedge $-1 $491 $490 $483 $585 forward $336 $-1 #
coedge $-1 $483 $338 $340 $487 reversed $219 $-1 #
coedge $-1 $338 $482 $481 $585 reversed $219 $-1 #
coedge $-1 $346 $341 $338 $485 forward $347 $-1 #
edge $-1 $488 7.6767839114970862 $586 12.205330534936333 $484 $587 forward 7 unknown #
coedge $-1 $340 $339 $491 $588 reversed $137 $-1 #
edge $-1 $589 -87.566148869289194 $488 -79.86172502986885 $482 $590 forward 7 unknown #
vertex $-1 $342 $591 #
straight-curve $-1 39.254527811205364 4.7695299138259291 7.9732892714449335 0 -1 0 I I #
coedge $-1 $481 $343 $346 $495 reversed $336 $-1 #
coedge $-1 $343 $481 $486 $588 forward $336 $-1 #
vertex $-1 $344 $592 #
straight-curve $-1 43.783074434644611 12.536369514414222 62.026436296674412 0 0 1 I I #
straight-curve $-1 -7.6870154844262473 12.536369514414222 72.582782674277951 0.5877852410284794 0 -0.80901700255871778 I I #
edge $-1 $586 6.5417501408894934 $348 12.536369514414222 $490 $593 forward 7 unknown #
point $-1 43.783074434644611 12.536369514414222 7.9732892714449273 #
point $-1 39.254527811205364 12.536369514414222 7.9732892714449264 #
edge $-1 $594 1 $594 0 $351 $-1 forward 7 unknown #
vertex $-1 $352 $595 #
ellipse-curve $-1 40.150753297528198 8.2544985333251297 3.8628394345458879 0.80901700255871778 0 0.5877852410284794 0.2938926205142397 0 -0.40450850127935889 1 I I #
point $-1 41.812693743439212 8.2544985333251297 4.4522758296606755 #
edge $-1 $596 1 $596 0 $355 $-1 forward 7 unknown #
vertex $-1 $356 $597 #
ellipse-curve $-1 40.150753297528198 10.823621121978587 3.8628394345458879 0.80901700255871778 0 0.5877852410284794 0.2938926205142397 0 -0.40450850127935889 1 I I #
point $-1 41.812693743439212 10.823621121978587 4.4522758296606755 #
plane-surface $-1 43.783074434644611 0 0 -1 0 0 0 0 1 forward_v I I I I #
coedge $-1 $364 $362 $366 $511 reversed $241 $-1 #
edge $-1 $377 -7.9732892714449273 $513 7.9732892714449273 $376 $598 forward 7 unknown #
vertex $-1 $511 $599 #
straight-curve $-1 -43.783074434644611 -21.170660461516441 0 0 0 -1 I I #
edge $-1 $509 -21.170660461516441 $513 21.170660461516441 $507 $600 forward 7 unknown #
straight-curve $-1 0 -21.170660461516441 -7.9732892714449273 -1 0 0 I I #
vertex $-1 $369 $601 #
straight-curve $-1 0 21.170660461516441 -7.9732892714449273 1 0 0 I I #
point $-1 43.783074434644611 21.170660461516441 -7.9732892714449273 #
point $-1 43.783074434644611 -21.170660461516441 -7.9732892714449273 #
straight-curve $-1 -43.783074434644611 0 7.9732892714449273 0 -1 0 I I #
point $-1 -43.783074434644611 21.170660461516441 7.9732892714449273 #
point $-1 -43.783074434644611 -21.170660461516441 7.9732892714449273 #
straight-curve $-1 43.783074434644611 -21.170660461516441 0 0 0 -1 I I #
straight-curve $-1 43.783074434644611 21.170660461516441 0 0 0 -1 I I #
plane-surface $-1 43.783074434644611 0 0 -1 0 0 0 0 1 forward_v I I I I #
coedge $-1 $602 $526 $393 $531 forward $387 $-1 #
coedge $-1 $394 $389 $602 $603 forward $260 $-1 #
edge $-1 $403 -3.3657685640480572 $604 3.3657685640480572 $401 $605 forward 7 unknown #
coedge $-1 $523 $606 $390 $527 reversed $387 $-1 #
edge $-1 $534 -43.783074434644611 $529 43.783074434644611 $526 $607 forward 7 unknown #
coedge $-1 $401 $391 $606 $608 forward $402 $-1 #
vertex $-1 $392 $609 #
straight-curve $-1 43.783074434644611 -24.536429025564498 -4.4732892714449273 0 1 0 I I #
edge $-1 $534 -1.5 $532 1.5 $393 $610 forward 7 unknown #
vertex $-1 $395 $611 #
straight-curve $-1 -43.783074434644611 -24.536429025564498 -7.4732892714449273 0 1 0 I I #
vertex $-1 $396 $612 #
straight-curve $-1 -43.783074434644611 -24.536429025564498 -4.4732892714449273 0 -1 0 I I #
point $-1 -43.783074434644611 -21.170660461516441 -7.4732892714449273 #
straight-curve $-1 0 -21.170660461516441 -7.4732892714449273 -1 0 0 I I #
point $-1 43.783074434644611 -21.170660461516441 -7.4732892714449273 #
plane-surface $-1 43.783074434644611 0 0 -1 0 0 0 0 1 forward_v I I I I #
coedge $-1 $547 $410 $411 $544 reversed $274 $-1 #
coedge $-1 $410 $547 $549 $613 reversed $274 $-1 #
coedge $-1 $422 $412 $410 $543 reversed $423 $-1 #
edge $-1 $614 -2.3112002572439057 $545 2.3112002572439057 $542 $615 forward 7 unknown #
edge $-1 $552 -43.783074434644611 $545 43.783074434644611 $540 $616 forward 7 unknown #
vertex $-1 $413 $617 #
straight-curve $-1 43.783074434644611 24.724732193468419 3.350888756957116 0 -1 0 I I #
coedge $-1 $541 $540 $414 $548 reversed $274 $-1 #
edge $-1 $550 -2.3112002572439057 $552 2.3112002572439057 $547 $618 forward 7 unknown #
coedge $-1 $415 $555 $541 $613 forward $408 $-1 #
vertex $-1 $613 $619 #
straight-curve $-1 -43.783074434644611 0 7.9732892714449273 0 -1 0 I I #
vertex $-1 $544 $620 #
straight-curve $-1 -43.783074434644611 24.724732193468419 3.350888756957116 0 1 0 I I #
point $-1 -43.783074434644611 21.170660461516441 7.9732892714449273 #
coedge $-1 $549 $420 $422 $557 forward $408 $-1 #
straight-curve $-1 0 21.170660461516441 7.9732892714449273 1 0 0 I I #
edge $-1 $424 21.170660461516441 $614 28.278803925420394 $422 $621 forward 7 unknown #
point $-1 43.783074434644611 21.170660461516441 7.9732892714449273 #
edge $-1 $560 54.053147025229485 $563 60.286156906239263 $429 $622 forward 7 unknown #
vertex $-1 $443 $623 #
straight-curve $-1 31.577743899708278 -12.459343413132384 7.9732892714449264 1 0 0 I I #
edge $-1 $563 -7.7283265499473739 $440 -1.7337071764226453 $439 $624 forward 7 unknown #
vertex $-1 $562 $625 #
straight-curve $-1 -7.6870154844262473 -12.459343413132384 72.582782674277951 -0.5877852410284794 0 0.80901700255871778 I I #
point $-1 39.254527811205364 -12.459343413132384 7.9732892714449264 #
point $-1 43.783074434644611 -6.4647240396076553 1.7402793904351483 #
straight-curve $-1 43.783074434644611 0 7.9732892714449273 0 1 0 I I #
vertex $-1 $446 $626 #
point $-1 40.44464591804244 -10.746595020696748 3.4583309332665291 #
vertex $-1 $450 $627 #
point $-1 40.44464591804244 -8.1774724320432917 3.4583309332665291 #
edge $-1 $573 54.053147025229485 $576 60.286156906239263 $455 $628 forward 7 unknown #
vertex $-1 $469 $629 #
straight-curve $-1 31.577743899708278 -2.9587966361214457 7.9732892714449264 1 0 0 I I #
edge $-1 $576 -2.9780531614419052 $466 3.0165662120828243 $465 $630 forward 7 unknown #
vertex $-1 $575 $631 #
straight-curve $-1 -7.6870154844262473 -2.9587966361214457 72.582782674277951 -0.5877852410284794 0 0.80901700255871778 I I #
point $-1 39.254527811205364 -2.9587966361214457 7.9732892714449264 #
point $-1 43.783074434644611 3.0358227374032838 1.7402793904351483 #
straight-curve $-1 43.783074434644611 0 7.9732892714449273 0 1 0 I I #
vertex $-1 $472 $632 #
point $-1 40.44464591804244 -1.2460482436858094 3.4583309332665291 #
vertex $-1 $476 $633 #
point $-1 40.44464591804244 1.3230743449676474 3.4583309332665291 #
edge $-1 $586 54.053147025229485 $589 60.286156906239263 $481 $634 forward 7 unknown #
vertex $-1 $495 $635 #
straight-curve $-1 31.577743899708278 6.5417501408894934 7.9732892714449264 1 0 0 I I #
edge $-1 $589 1.7722202270635643 $492 7.7668396005882929 $491 $636 forward 7 unknown #
vertex $-1 $588 $637 #
straight-curve $-1 -7.6870154844262473 6.5417501408894934 72.582782674277951 -0.5877852410284794 0 0.80901700255871778 I I #
point $-1 39.254527811205364 6.5417501408894934 7.9732892714449264 #
point $-1 43.783074434644611 12.536369514414222 1.7402793904351483 #
straight-curve $-1 43.783074434644611 0 7.9732892714449273 0 1 0 I I #
vertex $-1 $498 $638 #
point $-1 40.44464591804244 8.2544985333251297 3.4583309332665291 #
vertex $-1 $502 $639 #
point $-1 40.44464591804244 10.823621121978587 3.4583309332665291 #
straight-curve $-1 -43.783074434644611 21.170660461516441 0 0 0 -1 I I #
point $-1 -43.783074434644611 -21.170660461516441 -7.9732892714449273 #
straight-curve $-1 -43.783074434644611 0 -7.9732892714449273 0 1 0 I I #
point $-1 -43.783074434644611 21.170660461516441 -7.9732892714449273 #
coedge $-1 $606 $523 $524 $603 reversed $387 $-1 #
edge $-1 $604 -43.783074434644611 $532 43.783074434644611 $602 $640 forward 7 unknown #
vertex $-1 $608 $641 #
straight-curve $-1 43.783074434644611 -24.536429025564498 -7.4732892714449273 0 -1 0 I I #
coedge $-1 $526 $602 $528 $608 reversed $387 $-1 #
straight-curve $-1 0 -27.902197589612555 -4.4732892714449273 1 0 0 I I #
edge $-1 $529 -1.5 $604 1.5 $528 $642 forward 7 unknown #
point $-1 43.783074434644611 -27.902197589612555 -4.4732892714449273 #
straight-curve $-1 -43.783074434644611 -27.902197589612555 -5.9732892714449273 0 0 -1 I I #
point $-1 -43.783074434644611 -27.902197589612555 -7.4732892714449273 #
point $-1 -43.783074434644611 -27.902197589612555 -4.4732892714449273 #
edge $-1 $614 -43.783074434644611 $550 43.783074434644611 $541 $643 forward 7 unknown #
vertex $-1 $557 $644 #
straight-curve $-1 43.783074434644611 28.278803925420394 5.6620890142010216 0 0 -1 I I #
straight-curve $-1 0 28.278803925420394 3.350888756957116 1 0 0 I I #
point $-1 43.783074434644611 28.278803925420394 3.350888756957116 #
straight-curve $-1 -43.783074434644611 28.278803925420394 5.6620890142010216 0 0 -1 I I #
point $-1 -43.783074434644611 28.278803925420394 7.9732892714449273 #
point $-1 -43.783074434644611 28.278803925420394 3.350888756957116 #
straight-curve $-1 43.783074434644611 0 7.9732892714449273 0 1 0 I I #
straight-curve $-1 43.783074434644611 -12.459343413132384 62.026436296674412 0 0 -1 I I #
point $-1 43.783074434644611 -12.459343413132384 7.9732892714449273 #
straight-curve $-1 43.783074434644618 -4.73101686318501 1.7402793904351483 0 1 0 I I #
point $-1 43.783074434644611 -12.459343413132384 1.7402793904351483 #
point $-1 39.746244796248845 -10.746595020696748 3.5689468140316483 #
point $-1 39.746244796248845 -8.1774724320432917 3.5689468140316483 #
straight-curve $-1 43.783074434644611 -2.9587966361214457 62.026436296674412 0 0 -1 I I #
point $-1 43.783074434644611 -2.9587966361214457 7.9732892714449273 #
straight-curve $-1 43.783074434644618 0.019256525320459517 1.7402793904351483 0 1 0 I I #
point $-1 43.783074434644611 -2.9587966361214457 1.7402793904351483 #
point $-1 39.746244796248845 -1.2460482436858094 3.5689468140316483 #
point $-1 39.746244796248845 1.3230743449676474 3.5689468140316483 #
straight-curve $-1 43.783074434644611 6.5417501408894934 62.026436296674412 0 0 -1 I I #
point $-1 43.783074434644611 6.5417501408894934 7.9732892714449273 #
straight-curve $-1 43.783074434644618 4.7695299138259291 1.7402793904351483 0 1 0 I I #
point $-1 43.783074434644611 6.5417501408894934 1.7402793904351483 #
point $-1 39.746244796248845 8.2544985333251297 3.5689468140316483 #
point $-1 39.746244796248845 10.823621121978587 3.5689468140316483 #
straight-curve $-1 0 -27.902197589612555 -7.4732892714449273 -1 0 0 I I #
point $-1 43.783074434644611 -27.902197589612555 -7.4732892714449273 #
straight-curve $-1 43.783074434644611 -27.902197589612555 -5.9732892714449273 0 0 -1 I I #
straight-curve $-1 0 28.278803925420394 7.9732892714449273 -1 0 0 I I #
point $-1 43.783074434644611 28.278803925420394 7.9732892714449273 #
End-of-ACIS-data 