500 0 8 0           
7 Unknown 11 ACIS 5.0 NT 24 Fri Mar 26 20:40:47 1999 
-1 9.9999999999999995e-007 1e-010 
body $-1 $8 $-1 $9 #
body $-1 $10 $-1 $11 #
body $-1 $12 $-1 $13 #
body $-1 $14 $-1 $15 #
body $-1 $16 $-1 $17 #
body $-1 $18 $-1 $19 #
body $-1 $20 $-1 $21 #
body $-1 $22 $-1 $23 #
lump $-1 $-1 $24 $0 #
transform $-1 1 0 0 0 1 0 0 0 1 49.275185399945066 23.339508040490962 4.9604378778888245 1 rotate no_reflect no_shear #
lump $-1 $-1 $25 $1 #
transform $-1 1 0 0 0 1 0 0 0 1 49.275185399945066 23.339508040490962 4.9604378778888245 1 rotate no_reflect no_shear #
lump $-1 $-1 $26 $2 #
transform $-1 1 0 0 0 1 0 0 0 1 49.275185399945066 23.339508040490962 4.9604378778888245 1 rotate no_reflect no_shear #
lump $-1 $-1 $27 $3 #
transform $-1 1 0 0 0 1 0 0 0 1 49.275185399945066 23.339508040490962 4.9604378778888245 1 rotate no_reflect no_shear #
lump $-1 $-1 $28 $4 #
transform $-1 1 0 0 0 1 0 0 0 1 49.275185399945066 23.339508040490962 4.9604378778888245 1 rotate no_reflect no_shear #
lump $-1 $-1 $29 $5 #
transform $-1 1 0 0 0 1 0 0 0 1 49.275185399945066 23.339508040490962 4.9604378778888245 1 rotate no_reflect no_shear #
lump $-1 $-1 $30 $6 #
transform $-1 1 0 0 0 1 0 0 0 1 49.275185399945066 23.339508040490962 4.9604378778888245 1 rotate no_reflect no_shear #
lump $-1 $-1 $31 $7 #
transform $-1 1 0 0 0 1 0 0 0 1 49.275185399945066 23.339508040490962 4.9604378778888245 1 rotate no_reflect no_shear #
shell $-1 $-1 $-1 $32 $-1 $8 #
shell $-1 $-1 $-1 $33 $-1 $10 #
shell $-1 $-1 $-1 $34 $-1 $12 #
shell $-1 $-1 $-1 $35 $-1 $14 #
shell $-1 $-1 $-1 $36 $-1 $16 #
shell $-1 $-1 $-1 $37 $-1 $18 #
shell $-1 $-1 $-1 $38 $-1 $20 #
shell $-1 $-1 $-1 $39 $-1 $22 #
face $-1 $40 $41 $24 $-1 $42 forward single #
face $-1 $43 $44 $25 $-1 $45 reversed single #
face $-1 $46 $47 $26 $-1 $48 reversed single #
face $-1 $49 $50 $27 $-1 $51 forward single #
face $-1 $52 $53 $28 $-1 $54 forward single #
face $-1 $55 $56 $29 $-1 $57 forward single #
face $-1 $58 $59 $30 $-1 $60 reversed single #
face $-1 $61 $62 $31 $-1 $63 forward single #
face $-1 $64 $65 $24 $-1 $66 reversed single #
loop $-1 $-1 $67 $32 #
plane-surface $-1 0 0 4.9604378778888245 0 0 1 1 0 0 forward_v I I I I #
face $-1 $68 $69 $25 $-1 $70 reversed single #
loop $-1 $-1 $71 $33 #
plane-surface $-1 -47.214304896808962 0 1.9604378778888245 0 0 1 1 0 0 forward_v I I I I #
face $-1 $72 $73 $26 $-1 $74 reversed single #
loop $-1 $-1 $75 $34 #
plane-surface $-1 38.705388544250546 -23.339508040490969 1.7277005706898905 0 -0.55919291073839883 0.82903756765294845 1 0 0 forward_v I I I I #
face $-1 $76 $77 $27 $-1 $78 forward single #
loop $-1 $79 $80 $35 #
cone-surface $-1 32.363510430833848 -20.542721156133599 2.7504194251431127 0 0.55919291073839883 -0.82903756765294845 1 0 0 1 I I 0 1 1 forward I I I I #
face $-1 $81 $82 $28 $-1 $83 forward single #
loop $-1 $84 $85 $36 #
cone-surface $-1 38.70538854425056 -20.542721156133599 2.7504194251431127 0 0.55919291073839883 -0.82903756765294845 1 0 0 1 I I 0 1 1 forward I I I I #
face $-1 $86 $87 $29 $-1 $88 forward single #
loop $-1 $89 $90 $37 #
cone-surface $-1 45.047266657667272 -20.542721156133599 2.7504194251431127 0 0.55919291073839883 -0.82903756765294845 1 0 0 1 I I 0 1 1 forward I I I I #
face $-1 $91 $92 $30 $-1 $93 reversed single #
loop $-1 $-1 $94 $38 #
plane-surface $-1 28.295186251842971 39.749518790219916 109.34640427474834 1 0 0 0 -0.55919291073839883 -0.82903756765294845 forward_v I I I I #
face $-1 $95 $96 $31 $-1 $97 forward single #
loop $-1 $98 $99 $39 #
cone-surface $-1 33.080593154909842 19.647795870428467 1.5349496285188464 0 -0.55919291073839883 -0.82903756765294845 1.5 0 0 1 I I 0 1 1.5 forward I I I I #
face $-1 $100 $101 $24 $-1 $102 reversed single #
loop $-1 $-1 $103 $40 #
plane-surface $-1 0 0 -4.9604378778888245 0 0 1 1 0 0 forward_v I I I I #
coedge $-1 $104 $105 $106 $107 forward $41 $-1 #
face $-1 $108 $109 $25 $-1 $110 reversed single #
loop $-1 $-1 $111 $43 #
plane-surface $-1 -45.153424393672857 0 3.4604378778888245 -1 0 0 0 0 1 forward_v I I I I #
coedge $-1 $112 $113 $114 $115 forward $44 $-1 #
face $-1 $116 $117 $26 $-1 $118 reversed single #
loop $-1 $-1 $119 $46 #
plane-surface $-1 28.135591688556033 -78.448176742430036 83.429660269926956 1 0 0 0 0.55919291073839883 -0.82903756765294845 forward_v I I I I #
coedge $-1 $120 $121 $122 $123 reversed $47 $-1 #
face $-1 $-1 $124 $27 $-1 $125 forward single #
loop $-1 $126 $127 $49 #
cone-surface $-1 32.363510430833848 -19.862702847646617 1.7422508421703951 0 0.55919291073839883 -0.82903756765294845 0.5 0 0 1 I I -0.70710678118654746 0.70710678118654746 0.5 forward I I I I #
loop $-1 $-1 $128 $35 #
coedge $-1 $80 $80 $129 $130 reversed $50 $-1 #
face $-1 $-1 $131 $28 $-1 $132 forward single #
loop $-1 $133 $134 $52 #
cone-surface $-1 38.70538854425056 -19.862702847646617 1.7422508421703951 0 0.55919291073839883 -0.82903756765294845 0.5 0 0 1 I I -0.70710678118654746 0.70710678118654746 0.5 forward I I I I #
loop $-1 $-1 $135 $36 #
coedge $-1 $85 $85 $136 $137 reversed $53 $-1 #
face $-1 $-1 $138 $29 $-1 $139 forward single #
loop $-1 $140 $141 $55 #
cone-surface $-1 45.047266657667272 -19.862702847646617 1.7422508421703951 0 0.55919291073839883 -0.82903756765294845 0.5 0 0 1 I I -0.70710678118654746 0.70710678118654746 0.5 forward I I I I #
loop $-1 $-1 $142 $37 #
coedge $-1 $90 $90 $143 $144 reversed $56 $-1 #
face $-1 $145 $146 $30 $-1 $147 reversed single #
loop $-1 $-1 $148 $58 #
plane-surface $-1 33.080593154909842 -15.359149911719143 27.644444575511272 0 0.55919291073839883 0.82903756765294845 1 0 0 forward_v I I I I #
coedge $-1 $149 $150 $151 $152 reversed $59 $-1 #
face $-1 $-1 $153 $31 $-1 $154 forward single #
loop $-1 $155 $156 $61 #
cone-surface $-1 33.080593154909842 18.070806841699088 -0.80303270903766144 0 -0.55919291073839883 -0.82903756765294845 0.75 0 0 1 I I -0.70710678118654757 0.70710678118654757 0.75 forward I I I I #
loop $-1 $-1 $157 $39 #
coedge $-1 $99 $99 $158 $159 reversed $62 $-1 #
face $-1 $160 $161 $24 $-1 $162 reversed single #
loop $-1 $-1 $163 $64 #
plane-surface $-1 0 -23.339508040490962 0 0 1 0 0 0 1 forward_v I I I I #
coedge $-1 $164 $165 $166 $167 forward $65 $-1 #
coedge $-1 $168 $67 $169 $170 forward $41 $-1 #
coedge $-1 $67 $168 $171 $172 forward $41 $-1 #
coedge $-1 $173 $174 $67 $107 reversed $175 $-1 #
edge $-1 $176 -23.339508040490962 $177 23.339508040490962 $106 $178 forward 7 unknown #
face $-1 $179 $180 $25 $-1 $181 reversed single #
loop $-1 $-1 $182 $68 #
plane-surface $-1 0 23.339508040490962 0 0 -1 0 0 0 -1 forward_v I I I I #
coedge $-1 $114 $183 $184 $185 reversed $69 $-1 #
coedge $-1 $186 $71 $187 $188 reversed $44 $-1 #
coedge $-1 $71 $186 $189 $190 reversed $44 $-1 #
coedge $-1 $191 $111 $71 $115 reversed $69 $-1 #
edge $-1 $192 -23.339508040490962 $193 23.339508040490962 $114 $194 forward 7 unknown #
face $-1 $195 $196 $26 $-1 $197 forward single #
loop $-1 $-1 $198 $72 #
plane-surface $-1 49.275185399945066 0 0 -1 0 0 0 0 1 forward_v I I I I #
coedge $-1 $199 $200 $201 $202 reversed $73 $-1 #
coedge $-1 $203 $75 $198 $204 reversed $47 $-1 #
coedge $-1 $75 $203 $199 $205 forward $47 $-1 #
coedge $-1 $201 $206 $75 $123 forward $196 $-1 #
edge $-1 $207 -29.922491127819786 $208 -8.7828974164307603 $122 $209 forward 7 unknown #
loop $-1 $-1 $129 $76 #
plane-surface $-1 38.705388544250546 -23.339508040490969 1.7277005706898905 0 -0.55919291073839883 0.82903756765294845 1 0 0 forward_v I I I I #
loop $-1 $-1 $210 $49 #
coedge $-1 $127 $127 $128 $211 reversed $77 $-1 #
coedge $-1 $128 $128 $127 $211 forward $79 $-1 #
coedge $-1 $129 $129 $80 $130 forward $124 $-1 #
edge $-1 $212 -3.4645347762740274e-017 $212 6.2831853071796004 $129 $213 forward 7 unknown #
loop $-1 $-1 $136 $81 #
plane-surface $-1 38.705388544250546 -23.339508040490969 1.7277005706898905 0 -0.55919291073839883 0.82903756765294845 1 0 0 forward_v I I I I #
loop $-1 $-1 $214 $52 #
coedge $-1 $134 $134 $135 $215 reversed $82 $-1 #
coedge $-1 $135 $135 $134 $215 forward $84 $-1 #
coedge $-1 $136 $136 $85 $137 forward $131 $-1 #
edge $-1 $216 -3.4645347762740274e-017 $216 6.2831853071796004 $136 $217 forward 7 unknown #
loop $-1 $-1 $143 $86 #
plane-surface $-1 38.705388544250546 -23.339508040490969 1.7277005706898905 0 -0.55919291073839883 0.82903756765294845 1 0 0 forward_v I I I I #
loop $-1 $-1 $218 $55 #
coedge $-1 $141 $141 $142 $219 reversed $87 $-1 #
coedge $-1 $142 $142 $141 $219 forward $89 $-1 #
coedge $-1 $143 $143 $90 $144 forward $138 $-1 #
edge $-1 $220 -3.4645347762740274e-017 $220 6.2831853071796004 $143 $221 forward 7 unknown #
face $-1 $222 $223 $30 $-1 $224 reversed single #
loop $-1 $-1 $225 $91 #
plane-surface $-1 37.866000057976713 39.749518790219916 109.34640427474834 -1 0 0 0 0.55919291073839883 0.82903756765294845 forward_v I I I I #
coedge $-1 $226 $227 $228 $229 reversed $92 $-1 #
coedge $-1 $150 $94 $230 $231 reversed $59 $-1 #
coedge $-1 $94 $149 $226 $232 reversed $59 $-1 #
coedge $-1 $228 $233 $94 $152 forward $234 $-1 #
edge $-1 $235 -3.4647486453810039 $236 1.6034870033928179 $151 $237 forward 7 unknown #
loop $-1 $-1 $158 $95 #
plane-surface $-1 33.080593154909842 -15.359149911719143 27.644444575511272 0 0.55919291073839883 0.82903756765294845 1 0 0 forward_v I I I I #
loop $-1 $-1 $238 $61 #
coedge $-1 $156 $156 $157 $239 reversed $96 $-1 #
coedge $-1 $157 $157 $156 $239 forward $98 $-1 #
coedge $-1 $158 $158 $99 $159 forward $153 $-1 #
edge $-1 $240 -1.11268671310635e-015 $240 6.2831853071795996 $158 $241 forward 7 unknown #
face $-1 $242 $243 $24 $-1 $244 reversed single #
loop $-1 $-1 $245 $100 #
plane-surface $-1 -49.275185399945066 0 0 1 0 0 0 0 -1 forward_v I I I I #
coedge $-1 $246 $171 $247 $248 forward $101 $-1 #
coedge $-1 $249 $103 $246 $250 forward $65 $-1 #
coedge $-1 $103 $249 $251 $252 forward $65 $-1 #
coedge $-1 $174 $173 $103 $167 reversed $175 $-1 #
edge $-1 $253 -23.339508040490962 $254 23.339508040490962 $166 $255 forward 7 unknown #
coedge $-1 $105 $104 $256 $257 forward $41 $-1 #
coedge $-1 $258 $259 $104 $170 reversed $243 $-1 #
edge $-1 $177 -49.275185399945066 $260 49.275185399945066 $169 $261 forward 7 unknown #
coedge $-1 $163 $262 $105 $172 reversed $101 $-1 #
edge $-1 $263 -49.275185399945066 $176 49.275185399945066 $171 $264 forward 7 unknown #
coedge $-1 $166 $106 $262 $265 forward $175 $-1 #
coedge $-1 $106 $166 $258 $266 reversed $175 $-1 #
loop $-1 $-1 $173 $242 #
vertex $-1 $107 $267 #
vertex $-1 $107 $268 #
straight-curve $-1 49.275185399945066 0 4.9604378778888245 0 1 0 I I #
face $-1 $269 $270 $25 $-1 $271 forward single #
loop $-1 $-1 $272 $108 #
plane-surface $-1 -49.275185399945066 0 0 1 0 0 0 0 -1 forward_v I I I I #
coedge $-1 $189 $273 $191 $274 forward $109 $-1 #
coedge $-1 $111 $191 $275 $276 reversed $69 $-1 #
coedge $-1 $277 $187 $111 $185 forward $278 $-1 #
edge $-1 $193 0.23021893894441225 $279 3.2302189389444123 $184 $280 forward 7 unknown #
coedge $-1 $113 $112 $272 $281 reversed $44 $-1 #
coedge $-1 $184 $282 $112 $188 forward $278 $-1 #
edge $-1 $283 -25.668032951540585 $193 -21.546271945268376 $187 $284 forward 7 unknown #
coedge $-1 $285 $182 $113 $190 forward $109 $-1 #
edge $-1 $192 21.546271945268376 $286 25.668032951540585 $189 $287 forward 7 unknown #
coedge $-1 $183 $114 $182 $274 reversed $69 $-1 #
vertex $-1 $190 $288 #
vertex $-1 $188 $289 #
straight-curve $-1 -45.153424393672857 0 1.9604378778888245 0 -1 0 I I #
face $-1 $-1 $290 $26 $-1 $291 reversed single #
loop $-1 $-1 $122 $116 #
plane-surface $-1 0 0 4.9604378778888245 0 0 1 1 0 0 forward_v I I I I #
coedge $-1 $292 $293 $120 $204 forward $117 $-1 #
coedge $-1 $200 $119 $121 $205 reversed $73 $-1 #
coedge $-1 $119 $199 $294 $295 reversed $73 $-1 #
coedge $-1 $296 $122 $119 $202 forward $196 $-1 #
edge $-1 $208 -20.677310393203204 $297 -15.884580330724056 $201 $298 forward 7 unknown #
coedge $-1 $121 $120 $299 $300 reversed $47 $-1 #
edge $-1 $301 -9.1916055325482873 $207 -3.4105284746682294 $198 $302 forward 7 unknown #
edge $-1 $303 8.6223131303995443e-015 $208 5.7810770578800676 $199 $304 forward 7 unknown #
coedge $-1 $122 $296 $292 $305 forward $196 $-1 #
vertex $-1 $123 $306 #
vertex $-1 $123 $307 #
straight-curve $-1 19.352694272125273 -18.546777978011814 4.9604378778888245 -1 0 0 I I #
coedge $-1 $210 $210 $-1 $308 reversed $126 $-1 #
edge $-1 $309 0 $309 6.2831853071796004 $127 $310 forward 7 unknown #
vertex $-1 $130 $311 #
ellipse-curve $-1 32.363510430833848 -20.943143009251386 3.3440692242893615 0 -0.55919291073839883 0.82903756765294845 1 0 0 1 I I #
coedge $-1 $214 $214 $-1 $312 reversed $133 $-1 #
edge $-1 $313 0 $313 6.2831853071796004 $134 $314 forward 7 unknown #
vertex $-1 $137 $315 #
ellipse-curve $-1 38.70538854425056 -20.943143009251386 3.3440692242893615 0 -0.55919291073839883 0.82903756765294845 1 0 0 1 I I #
coedge $-1 $218 $218 $-1 $316 reversed $140 $-1 #
edge $-1 $317 0 $317 6.2831853071796004 $141 $318 forward 7 unknown #
vertex $-1 $144 $319 #
ellipse-curve $-1 45.047266657667272 -20.943143009251386 3.3440692242893615 0 -0.55919291073839883 0.82903756765294845 1 0 0 1 I I #
face $-1 $-1 $234 $30 $-1 $320 forward single #
loop $-1 $-1 $321 $145 #
plane-surface $-1 0 23.339508040490962 0 0 -1 0 0 0 -1 forward_v I I I I #
coedge $-1 $322 $323 $324 $325 reversed $146 $-1 #
coedge $-1 $326 $148 $150 $232 forward $92 $-1 #
coedge $-1 $148 $326 $322 $327 forward $92 $-1 #
coedge $-1 $324 $151 $148 $229 forward $234 $-1 #
edge $-1 $236 11.75488967438805 $328 21.325703480521792 $228 $329 forward 7 unknown #
coedge $-1 $330 $331 $149 $231 forward $223 $-1 #
edge $-1 $332 -53.131332434591698 $235 -49.712764259485347 $230 $333 forward 7 unknown #
edge $-1 $236 40.565619238035111 $332 46.679016080981903 $150 $334 forward 7 unknown #
coedge $-1 $151 $324 $330 $335 forward $234 $-1 #
loop $-1 $-1 $324 $222 #
vertex $-1 $231 $336 #
vertex $-1 $152 $337 #
straight-curve $-1 28.295186251842971 19.874759395109958 4.9604378778888218 0 -1 0 I I #
coedge $-1 $238 $238 $-1 $338 reversed $155 $-1 #
edge $-1 $339 0 $339 6.2831853071796004 $156 $340 forward 7 unknown #
vertex $-1 $159 $341 #
ellipse-curve $-1 33.080593154909842 20.805390216104051 3.2511537903356502 0 0.55919291073839883 0.82903756765294845 1.5 0 0 1 I I #
face $-1 $-1 $175 $24 $-1 $342 reversed single #
loop $-1 $-1 $258 $160 #
plane-surface $-1 0 23.339508040490962 0 0 -1 0 0 0 -1 forward_v I I I I #
coedge $-1 $343 $256 $259 $344 forward $161 $-1 #
coedge $-1 $262 $163 $164 $250 reversed $101 $-1 #
coedge $-1 $256 $343 $163 $248 reversed $161 $-1 #
edge $-1 $263 -4.9604378778888245 $345 4.9604378778888245 $247 $346 forward 7 unknown #
coedge $-1 $165 $164 $343 $347 forward $65 $-1 #
edge $-1 $254 -49.275185399945066 $345 49.275185399945066 $246 $348 forward 7 unknown #
coedge $-1 $259 $258 $165 $252 reversed $243 $-1 #
edge $-1 $349 -49.275185399945066 $253 49.275185399945066 $251 $350 forward 7 unknown #
vertex $-1 $167 $351 #
vertex $-1 $265 $352 #
straight-curve $-1 49.275185399945066 0 -4.9604378778888245 0 -1 0 I I #
coedge $-1 $245 $247 $168 $257 reversed $161 $-1 #
edge $-1 $260 -23.339508040490962 $263 23.339508040490962 $256 $353 forward 7 unknown #
coedge $-1 $251 $169 $174 $266 forward $243 $-1 #
coedge $-1 $169 $251 $245 $344 reversed $243 $-1 #
vertex $-1 $170 $354 #
straight-curve $-1 0 23.339508040490962 4.9604378778888245 -1 0 0 I I #
coedge $-1 $171 $246 $173 $265 reversed $101 $-1 #
vertex $-1 $257 $355 #
straight-curve $-1 0 -23.339508040490962 4.9604378778888245 1 0 0 I I #
edge $-1 $176 -4.9604378778888245 $254 4.9604378778888245 $173 $356 forward 7 unknown #
edge $-1 $177 -4.9604378778888245 $253 4.9604378778888245 $174 $357 forward 7 unknown #
point $-1 49.275185399945066 -23.339508040490962 4.9604378778888245 #
point $-1 49.275185399945066 23.339508040490962 4.9604378778888245 #
face $-1 $-1 $278 $25 $-1 $358 reversed single #
loop $-1 $-1 $275 $179 #
plane-surface $-1 0 0 4.9604378778888245 0 0 1 1 0 0 forward_v I I I I #
coedge $-1 $359 $360 $186 $281 forward $180 $-1 #
coedge $-1 $182 $285 $361 $362 reversed $109 $-1 #
edge $-1 $363 -3.2302189389444123 $192 -0.23021893894441225 $182 $364 forward 7 unknown #
coedge $-1 $361 $365 $183 $276 forward $270 $-1 #
edge $-1 $279 -23.339508040490962 $363 23.339508040490962 $275 $366 forward 7 unknown #
coedge $-1 $282 $184 $365 $367 reversed $278 $-1 #
loop $-1 $-1 $184 $269 #
vertex $-1 $185 $368 #
straight-curve $-1 -45.153424393672857 -23.339508040490962 1.7302189389444123 0 0 1 I I #
edge $-1 $286 -23.339508040490962 $283 23.339508040490962 $272 $369 forward 7 unknown #
coedge $-1 $187 $277 $359 $370 forward $278 $-1 #
vertex $-1 $281 $371 #
straight-curve $-1 -23.607152448404481 -23.339508040490962 1.9604378778888245 1 0 0 I I #
coedge $-1 $273 $189 $360 $372 reversed $109 $-1 #
vertex $-1 $281 $373 #
straight-curve $-1 -23.607152448404481 23.339508040490962 1.9604378778888245 -1 0 0 I I #
point $-1 -45.153424393672857 23.339508040490962 1.9604378778888245 #
point $-1 -45.153424393672857 -23.339508040490962 1.9604378778888245 #
loop $-1 $-1 $299 $195 #
plane-surface $-1 0 -23.339508040490962 0 0 1 0 0 0 1 forward_v I I I I #
coedge $-1 $293 $198 $206 $305 reversed $117 $-1 #
coedge $-1 $198 $292 $374 $375 forward $117 $-1 #
coedge $-1 $299 $376 $200 $295 forward $290 $-1 #
edge $-1 $297 36.754392257074656 $303 39.98712956427358 $294 $377 forward 7 unknown #
coedge $-1 $206 $201 $376 $378 forward $196 $-1 #
vertex $-1 $378 $379 #
straight-curve $-1 28.135591688556033 -39.224088371215018 4.9604378778888218 0 -1 0 I I #
coedge $-1 $374 $294 $203 $300 forward $290 $-1 #
edge $-1 $303 8.7828974164307603 $301 29.922491127819786 $299 $380 forward 7 unknown #
vertex $-1 $300 $381 #
straight-curve $-1 49.275185399945066 -15.719321746961745 6.867581222794743 0 0.82903756765294845 0.55919291073839883 I I #
vertex $-1 $300 $382 #
straight-curve $-1 28.135591688556033 -23.339508040490969 1.7277005706898905 0 0.82903756765294845 0.55919291073839883 I I #
edge $-1 $383 -23.339508040490962 $207 -18.546777978011814 $292 $384 forward 7 unknown #
point $-1 49.275185399945059 -18.546777978011814 4.9604378778888245 #
point $-1 28.135591688556033 -18.546777978011814 4.9604378778888245 #
edge $-1 $385 1 $385 0 $210 $-1 forward 7 unknown #
vertex $-1 $211 $386 #
ellipse-curve $-1 32.363510430833848 -20.142299303015815 2.1567696259968692 0 -0.55919291073839883 0.82903756765294845 1 0 0 1 I I #
point $-1 33.363510430833848 -20.943143009251383 3.3440692242893562 #
edge $-1 $387 1 $387 0 $214 $-1 forward 7 unknown #
vertex $-1 $215 $388 #
ellipse-curve $-1 38.70538854425056 -20.142299303015815 2.1567696259968692 0 -0.55919291073839883 0.82903756765294845 1 0 0 1 I I #
point $-1 39.70538854425056 -20.943143009251383 3.3440692242893562 #
edge $-1 $389 1 $389 0 $218 $-1 forward 7 unknown #
vertex $-1 $219 $390 #
ellipse-curve $-1 45.047266657667272 -20.142299303015815 2.1567696259968692 0 -0.55919291073839883 0.82903756765294845 1 0 0 1 I I #
point $-1 46.047266657667272 -20.943143009251383 3.3440692242893562 #
plane-surface $-1 0 0 4.9604378778888245 0 0 1 1 0 0 forward_v I I I I #
coedge $-1 $331 $330 $323 $391 forward $223 $-1 #
coedge $-1 $323 $225 $227 $327 reversed $146 $-1 #
coedge $-1 $225 $322 $321 $391 reversed $146 $-1 #
coedge $-1 $233 $228 $225 $325 forward $234 $-1 #
edge $-1 $328 -1.6034870033928179 $392 3.4647486453810039 $324 $393 forward 7 unknown #
coedge $-1 $227 $226 $331 $394 reversed $92 $-1 #
edge $-1 $395 -46.679016080981903 $328 -40.565619238035111 $322 $396 forward 7 unknown #
vertex $-1 $229 $397 #
straight-curve $-1 16.540296577454921 18.27127239171714 4.9604378778888272 1 0 0 I I #
coedge $-1 $321 $230 $233 $335 reversed $223 $-1 #
coedge $-1 $230 $321 $326 $394 forward $223 $-1 #
vertex $-1 $231 $398 #
straight-curve $-1 28.295186251842971 23.339508040490962 54.673202137374169 0 0 1 I I #
straight-curve $-1 28.295186251842971 -15.359149911719143 27.644444575511272 0 0.82903756765294845 -0.55919291073839883 I I #
edge $-1 $392 -37.866000057976713 $235 -28.295186251842971 $330 $399 forward 7 unknown #
point $-1 28.295186251842971 23.339508040490962 4.9604378778888245 #
point $-1 28.295186251842971 18.27127239171714 4.9604378778888254 #
edge $-1 $400 1 $400 0 $238 $-1 forward 7 unknown #
vertex $-1 $239 $401 #
ellipse-curve $-1 33.080593154909842 18.490201524752887 -0.18125453329795005 0 0.55919291073839883 0.82903756765294845 1.5 0 0 1 I I #
point $-1 34.580593154909842 20.805390216104044 3.2511537903356427 #
plane-surface $-1 49.275185399945066 0 0 -1 0 0 0 0 1 forward_v I I I I #
coedge $-1 $247 $245 $249 $347 reversed $161 $-1 #
edge $-1 $260 -4.9604378778888245 $349 4.9604378778888245 $259 $402 forward 7 unknown #
vertex $-1 $347 $403 #
straight-curve $-1 -49.275185399945066 -23.339508040490962 0 0 0 -1 I I #
edge $-1 $345 -23.339508040490962 $349 23.339508040490962 $343 $404 forward 7 unknown #
straight-curve $-1 0 -23.339508040490962 -4.9604378778888245 -1 0 0 I I #
vertex $-1 $252 $405 #
straight-curve $-1 0 23.339508040490962 -4.9604378778888245 1 0 0 I I #
point $-1 49.275185399945066 23.339508040490962 -4.9604378778888245 #
point $-1 49.275185399945066 -23.339508040490962 -4.9604378778888245 #
straight-curve $-1 -49.275185399945066 0 4.9604378778888245 0 -1 0 I I #
point $-1 -49.275185399945066 23.339508040490962 4.9604378778888245 #
point $-1 -49.275185399945066 -23.339508040490962 4.9604378778888245 #
straight-curve $-1 49.275185399945066 -23.339508040490962 0 0 0 -1 I I #
straight-curve $-1 49.275185399945066 23.339508040490962 0 0 0 -1 I I #
plane-surface $-1 0 -23.339508040490962 0 0 1 0 0 0 1 forward_v I I I I #
coedge $-1 $406 $272 $282 $370 reversed $180 $-1 #
coedge $-1 $272 $406 $285 $372 forward $180 $-1 #
coedge $-1 $407 $275 $273 $362 forward $270 $-1 #
edge $-1 $363 45.153424393672857 $408 49.275185399945066 $273 $409 forward 7 unknown #
vertex $-1 $362 $410 #
straight-curve $-1 -45.153424393672857 23.339508040490962 1.7302189389444123 0 0 -1 I I #
coedge $-1 $275 $407 $277 $367 forward $270 $-1 #
straight-curve $-1 -45.153424393672857 0 4.9604378778888245 0 1 0 I I #
edge $-1 $411 -49.275185399945066 $279 -45.153424393672857 $277 $412 forward 7 unknown #
point $-1 -45.153424393672857 -23.339508040490962 4.9604378778888245 #
straight-curve $-1 -49.275185399945066 0 1.9604378778888245 0 -1 0 I I #
edge $-1 $411 -4.9604378778888245 $283 -1.9604378778888245 $359 $413 forward 7 unknown #
point $-1 -49.275185399945066 -23.339508040490962 1.9604378778888245 #
edge $-1 $408 -4.9604378778888245 $286 -1.9604378778888245 $285 $414 forward 7 unknown #
point $-1 -49.275185399945066 23.339508040490962 1.9604378778888245 #
coedge $-1 $376 $299 $293 $375 reversed $290 $-1 #
edge $-1 $383 -4.9604378778888245 $301 -1.7277005706898954 $293 $415 forward 7 unknown #
coedge $-1 $294 $374 $296 $378 reversed $290 $-1 #
straight-curve $-1 28.135591688556033 -23.339508040490962 41.714830134963478 0 0 -1 I I #
edge $-1 $297 28.135591688556033 $383 49.275185399945066 $376 $416 forward 7 unknown #
point $-1 28.135591688556033 -23.339508040490962 4.9604378778888245 #
straight-curve $-1 19.352694272125273 -23.339508040490962 1.7277005706898942 1 0 0 I I #
point $-1 49.275185399945059 -23.339508040490962 1.7277005706898954 #
point $-1 28.135591688556033 -23.339508040490962 1.7277005706898954 #
vertex $-1 $305 $417 #
straight-curve $-1 49.275185399945066 0 4.9604378778888245 0 1 0 I I #
vertex $-1 $308 $418 #
point $-1 33.363510430833848 -20.142299303015815 2.1567696259968692 #
vertex $-1 $312 $419 #
point $-1 39.70538854425056 -20.142299303015815 2.1567696259968692 #
vertex $-1 $316 $420 #
point $-1 46.047266657667272 -20.142299303015815 2.1567696259968692 #
edge $-1 $392 49.712764259485347 $395 53.131332434591698 $321 $421 forward 7 unknown #
vertex $-1 $335 $422 #
straight-curve $-1 37.866000057976713 19.874759395109958 4.9604378778888218 0 1 0 I I #
edge $-1 $395 -21.325703480521792 $332 -11.75488967438805 $331 $423 forward 7 unknown #
vertex $-1 $394 $424 #
straight-curve $-1 37.866000057976713 -15.359149911719143 27.644444575511272 0 -0.82903756765294845 0.55919291073839883 I I #
point $-1 37.866000057976713 18.27127239171714 4.9604378778888254 #
point $-1 28.295186251842971 23.339508040490962 1.5418697027824741 #
straight-curve $-1 0 23.339508040490962 4.9604378778888245 -1 0 0 I I #
vertex $-1 $338 $425 #
point $-1 34.580593154909842 18.490201524752887 -0.18125453329795005 #
straight-curve $-1 -49.275185399945066 23.339508040490962 0 0 0 -1 I I #
point $-1 -49.275185399945066 -23.339508040490962 -4.9604378778888245 #
straight-curve $-1 -49.275185399945066 0 -4.9604378778888245 0 1 0 I I #
point $-1 -49.275185399945066 23.339508040490962 -4.9604378778888245 #
coedge $-1 $360 $359 $407 $426 reversed $180 $-1 #
coedge $-1 $365 $361 $406 $426 forward $270 $-1 #
vertex $-1 $362 $427 #
straight-curve $-1 0 23.339508040490962 4.9604378778888245 -1 0 0 I I #
point $-1 -45.153424393672857 23.339508040490962 4.9604378778888245 #
vertex $-1 $426 $428 #
straight-curve $-1 0 -23.339508040490962 4.9604378778888245 1 0 0 I I #
straight-curve $-1 -49.275185399945066 -23.339508040490962 0 0 0 -1 I I #
straight-curve $-1 -49.275185399945066 23.339508040490962 0 0 0 -1 I I #
straight-curve $-1 49.275185399945066 -23.339508040490962 0 0 0 -1 I I #
straight-curve $-1 0 -23.339508040490962 4.9604378778888245 1 0 0 I I #
point $-1 49.275185399945066 -23.339508040490962 4.9604378778888245 #
point $-1 32.363510430833848 -19.583106392277418 1.3277320583439209 #
point $-1 38.70538854425056 -19.583106392277418 1.3277320583439209 #
point $-1 45.047266657667272 -19.583106392277418 1.3277320583439209 #
straight-curve $-1 37.866000057976713 23.339508040490962 54.673202137374169 0 0 -1 I I #
point $-1 37.866000057976713 23.339508040490962 4.9604378778888245 #
straight-curve $-1 16.540296577454921 23.339508040490962 1.5418697027824724 -1 0 0 I I #
point $-1 37.866000057976713 23.339508040490962 1.5418697027824741 #
point $-1 33.080593154909842 17.651412158645289 -1.4248108847773728 #
edge $-1 $408 -23.339508040490962 $411 23.339508040490962 $406 $429 forward 7 unknown #
point $-1 -49.275185399945066 23.339508040490962 4.9604378778888245 #
point $-1 -49.275185399945066 -23.339508040490962 4.9604378778888245 #
straight-curve $-1 -49.275185399945066 0 4.9604378778888245 0 -1 0 I I #
End-of-ACIS-data 