500 0 10 0           
7 Unknown 11 ACIS 5.0 NT 24 Thu Mar 25 23:25:29 1999 
-1 9.9999999999999995e-007 1e-010 
body $-1 $10 $-1 $11 #
body $-1 $12 $-1 $13 #
body $-1 $14 $-1 $15 #
body $-1 $16 $-1 $17 #
body $-1 $18 $-1 $19 #
body $-1 $20 $-1 $21 #
body $-1 $22 $-1 $23 #
body $-1 $24 $-1 $25 #
body $-1 $26 $-1 $27 #
body $-1 $28 $-1 $29 #
lump $-1 $-1 $30 $0 #
transform $-1 1 0 0 0 1 0 0 0 1 69.17935728019043 32.669073723020439 14.077203269289676 1 rotate no_reflect no_shear #
lump $-1 $-1 $31 $1 #
transform $-1 1 0 0 0 1 0 0 0 1 69.17935728019043 32.669073723020439 14.077203269289676 1 rotate no_reflect no_shear #
lump $-1 $-1 $32 $2 #
transform $-1 1 0 0 0 1 0 0 0 1 69.17935728019043 32.669073723020439 14.077203269289676 1 rotate no_reflect no_shear #
lump $-1 $-1 $33 $3 #
transform $-1 1 0 0 0 1 0 0 0 1 69.17935728019043 32.669073723020439 14.077203269289676 1 rotate no_reflect no_shear #
lump $-1 $-1 $34 $4 #
transform $-1 1 0 0 0 1 0 0 0 1 69.17935728019043 32.669073723020439 14.077203269289676 1 rotate no_reflect no_shear #
lump $-1 $-1 $35 $5 #
transform $-1 1 0 0 0 1 0 0 0 1 69.17935728019043 32.669073723020439 14.077203269289676 1 rotate no_reflect no_shear #
lump $-1 $-1 $36 $6 #
transform $-1 1 0 0 0 1 0 0 0 1 69.17935728019043 32.669073723020439 14.077203269289676 1 rotate no_reflect no_shear #
lump $-1 $-1 $37 $7 #
transform $-1 1 0 0 0 1 0 0 0 1 69.17935728019043 32.669073723020439 14.077203269289676 1 rotate no_reflect no_shear #
lump $-1 $-1 $38 $8 #
transform $-1 1 0 0 0 1 0 0 0 1 69.17935728019043 32.669073723020439 14.077203269289676 1 rotate no_reflect no_shear #
lump $-1 $-1 $39 $9 #
transform $-1 1 0 0 0 1 0 0 0 1 69.17935728019043 32.669073723020439 14.077203269289676 1 rotate no_reflect no_shear #
shell $-1 $-1 $-1 $40 $-1 $10 #
shell $-1 $-1 $-1 $41 $-1 $12 #
shell $-1 $-1 $-1 $42 $-1 $14 #
shell $-1 $-1 $-1 $43 $-1 $16 #
shell $-1 $-1 $-1 $44 $-1 $18 #
shell $-1 $-1 $-1 $45 $-1 $20 #
shell $-1 $-1 $-1 $46 $-1 $22 #
shell $-1 $-1 $-1 $47 $-1 $24 #
shell $-1 $-1 $-1 $48 $-1 $26 #
shell $-1 $-1 $-1 $49 $-1 $28 #
face $-1 $50 $51 $30 $-1 $52 forward single #
face $-1 $53 $54 $31 $-1 $55 forward single #
face $-1 $56 $57 $32 $-1 $58 forward single #
face $-1 $59 $60 $33 $-1 $61 reversed single #
face $-1 $62 $63 $34 $-1 $64 forward single #
face $-1 $65 $66 $35 $-1 $67 forward single #
face $-1 $68 $69 $36 $-1 $70 reversed single #
face $-1 $71 $72 $37 $-1 $73 forward single #
face $-1 $74 $75 $38 $-1 $76 forward single #
face $-1 $77 $78 $39 $-1 $79 forward single #
face $-1 $80 $81 $30 $-1 $82 reversed single #
loop $-1 $-1 $83 $40 #
plane-surface $-1 0 0 14.077203269289676 0 0 1 1 0 0 forward_v I I I I #
face $-1 $84 $85 $31 $-1 $86 reversed single #
loop $-1 $-1 $87 $41 #
plane-surface $-1 -62.914973900364537 0 -8.7851165566896796 0 0 1 1 0 0 forward_v I I I I #
face $-1 $88 $89 $32 $-1 $90 reversed single #
loop $-1 $-1 $91 $42 #
plane-surface $-1 69.17935728019043 0 0 -1 0 0 0 0 1 forward_v I I I I #
face $-1 $92 $93 $33 $-1 $94 reversed single #
loop $-1 $-1 $95 $43 #
plane-surface $-1 16.93026611232807 -103.92908066515548 125.66640851376656 1 0 0 0 0.51503808176128008 -0.85716729658548041 forward_v I I I I #
face $-1 $96 $97 $34 $-1 $98 forward single #
loop $-1 $99 $100 $44 #
cone-surface $-1 23.575661461972146 -24.844491354862612 7.2558159703103904 0 0.51503808176128008 -0.85716729658548041 2.5 0 0 1 I I 0 1 2.5 forward I I I I #
face $-1 $101 $102 $35 $-1 $103 forward single #
loop $-1 $104 $105 $45 #
cone-surface $-1 33.543754486438274 -24.844491354862612 7.2558159703103904 0 0.51503808176128008 -0.85716729658548041 2.5 0 0 1 I I 0 1 2.5 forward I I I I #
face $-1 $106 $107 $36 $-1 $108 reversed single #
loop $-1 $-1 $109 $46 #
plane-surface $-1 0.088818707533718566 108.52947771484841 136.59577475592602 1 0 0 0 -0.81915205242281985 -0.57357642473473569 forward_v I I I I #
face $-1 $110 $111 $37 $-1 $112 forward single #
loop $-1 $113 $114 $47 #
cone-surface $-1 5.2656669192602124 27.912431609146818 8.1056084746291521 0 -0.81915205242281985 -0.57357642473473569 2.5 0 0 1 I I 0 1 2.5 forward I I I I #
face $-1 $115 $116 $38 $-1 $117 forward single #
loop $-1 $118 $119 $48 #
cone-surface $-1 13.030939236849946 27.912431609146818 8.1056084746291521 0 -0.81915205242281985 -0.57357642473473569 2.5 0 0 1 I I 0 1 2.5 forward I I I I #
face $-1 $120 $121 $39 $-1 $122 forward single #
loop $-1 $123 $124 $49 #
cone-surface $-1 20.79621155443968 27.912431609146818 8.1056084746291521 0 -0.81915205242281985 -0.57357642473473569 2.5 0 0 1 I I 0 1 2.5 forward I I I I #
face $-1 $125 $126 $30 $-1 $127 reversed single #
loop $-1 $-1 $128 $50 #
plane-surface $-1 0 0 -14.077203269289676 0 0 1 1 0 0 forward_v I I I I #
coedge $-1 $129 $130 $131 $132 forward $51 $-1 #
face $-1 $133 $134 $31 $-1 $135 reversed single #
loop $-1 $-1 $136 $53 #
plane-surface $-1 -56.650590520538643 0 -11.431159912989678 -1 0 0 0 0 1 forward_v I I I I #
coedge $-1 $137 $138 $139 $140 forward $54 $-1 #
face $-1 $141 $142 $32 $-1 $143 reversed single #
loop $-1 $-1 $144 $56 #
plane-surface $-1 0 0 -14.077203269289676 0 0 1 1 0 0 forward_v I I I I #
coedge $-1 $145 $146 $147 $148 forward $57 $-1 #
face $-1 $149 $150 $33 $-1 $151 reversed single #
loop $-1 $-1 $152 $59 #
plane-surface $-1 28.55970797420521 -32.669073723020432 7.0698431950027469 0 -0.51503808176128008 0.85716729658548041 1 0 0 forward_v I I I I #
coedge $-1 $153 $154 $155 $156 reversed $60 $-1 #
face $-1 $-1 $157 $34 $-1 $158 forward single #
loop $-1 $159 $160 $62 #
cone-surface $-1 23.575661461972146 -22.207214077470223 2.8666495877427209 0 0.51503808176128008 -0.85716729658548041 1.25 0 0 1 I I -0.70710678118654746 0.70710678118654746 1.25 forward I I I I #
loop $-1 $-1 $161 $44 #
coedge $-1 $100 $100 $162 $163 reversed $63 $-1 #
face $-1 $-1 $164 $35 $-1 $165 forward single #
loop $-1 $166 $167 $65 #
cone-surface $-1 33.543754486438274 -22.207214077470223 2.8666495877427209 0 0.51503808176128008 -0.85716729658548041 1.25 0 0 1 I I -0.70710678118654746 0.70710678118654746 1.25 forward I I I I #
loop $-1 $-1 $168 $45 #
coedge $-1 $105 $105 $169 $170 reversed $66 $-1 #
face $-1 $171 $172 $36 $-1 $173 reversed single #
loop $-1 $-1 $174 $68 #
plane-surface $-1 13.030939236849946 -4.8073472878706554 57.236477927488949 0 0.81915205242281985 0.57357642473473569 1 0 0 forward_v I I I I #
coedge $-1 $175 $176 $177 $178 reversed $69 $-1 #
face $-1 $-1 $179 $37 $-1 $180 forward single #
loop $-1 $181 $182 $71 #
cone-surface $-1 5.2656669192602124 25.759835661579679 6.5983446109151913 0 -0.81915205242281985 -0.57357642473473569 1.25 0 0 1 I I -0.70710678118654746 0.70710678118654746 1.25 forward I I I I #
loop $-1 $-1 $183 $47 #
coedge $-1 $114 $114 $184 $185 reversed $72 $-1 #
face $-1 $-1 $186 $38 $-1 $187 forward single #
loop $-1 $188 $189 $74 #
cone-surface $-1 13.030939236849946 25.759835661579679 6.5983446109151913 0 -0.81915205242281985 -0.57357642473473569 1.25 0 0 1 I I -0.70710678118654746 0.70710678118654746 1.25 forward I I I I #
loop $-1 $-1 $190 $48 #
coedge $-1 $119 $119 $191 $192 reversed $75 $-1 #
face $-1 $-1 $193 $39 $-1 $194 forward single #
loop $-1 $195 $196 $77 #
cone-surface $-1 20.79621155443968 25.759835661579679 6.5983446109151913 0 -0.81915205242281985 -0.57357642473473569 1.25 0 0 1 I I -0.70710678118654746 0.70710678118654746 1.25 forward I I I I #
loop $-1 $-1 $197 $49 #
coedge $-1 $124 $124 $198 $199 reversed $78 $-1 #
face $-1 $200 $201 $30 $-1 $202 reversed single #
loop $-1 $-1 $203 $80 #
plane-surface $-1 0 -32.669073723020439 0 0 1 0 0 0 1 forward_v I I I I #
coedge $-1 $204 $205 $206 $207 forward $81 $-1 #
coedge $-1 $208 $83 $209 $210 forward $51 $-1 #
coedge $-1 $83 $208 $211 $212 forward $51 $-1 #
coedge $-1 $213 $214 $83 $132 reversed $215 $-1 #
edge $-1 $216 -32.669073723020439 $217 32.669073723020439 $131 $218 forward 7 unknown #
face $-1 $219 $220 $31 $-1 $221 reversed single #
loop $-1 $-1 $222 $84 #
plane-surface $-1 0 0 -14.077203269289676 0 0 1 1 0 0 forward_v I I I I #
coedge $-1 $223 $139 $224 $225 reversed $85 $-1 #
coedge $-1 $226 $87 $227 $228 reversed $54 $-1 #
coedge $-1 $87 $226 $229 $230 reversed $54 $-1 #
coedge $-1 $136 $231 $87 $140 reversed $85 $-1 #
edge $-1 $232 -32.669073723020439 $233 32.669073723020439 $139 $234 forward 7 unknown #
face $-1 $235 $236 $32 $-1 $237 reversed single #
loop $-1 $-1 $147 $88 #
plane-surface $-1 75.063647149825016 -10.156117027586641 0 0 1 0 0 0 1 forward_v I I I I #
coedge $-1 $238 $239 $146 $240 forward $89 $-1 #
coedge $-1 $241 $91 $242 $243 reversed $57 $-1 #
coedge $-1 $91 $241 $144 $240 reversed $57 $-1 #
coedge $-1 $244 $245 $91 $148 reversed $142 $-1 #
edge $-1 $246 -14.077203269289676 $247 14.077203269289676 $147 $248 forward 7 unknown #
face $-1 $249 $250 $33 $-1 $251 forward single #
loop $-1 $-1 $252 $92 #
plane-surface $-1 40.18914983608235 -103.92908066515548 125.66640851376656 -1 0 0 0 -0.51503808176128008 0.85716729658548041 forward_v I I I I #
coedge $-1 $253 $254 $255 $256 reversed $93 $-1 #
coedge $-1 $154 $95 $257 $258 reversed $60 $-1 #
coedge $-1 $95 $153 $253 $259 reversed $60 $-1 #
coedge $-1 $255 $260 $95 $156 forward $261 $-1 #
edge $-1 $262 48.756000987593602 $263 55.763361061880538 $155 $264 forward 7 unknown #
loop $-1 $-1 $162 $96 #
plane-surface $-1 28.55970797420521 -32.669073723020432 7.0698431950027469 0 -0.51503808176128008 0.85716729658548041 1 0 0 forward_v I I I I #
loop $-1 $-1 $265 $62 #
coedge $-1 $160 $160 $161 $266 reversed $97 $-1 #
coedge $-1 $161 $161 $160 $266 forward $99 $-1 #
coedge $-1 $162 $162 $100 $163 forward $157 $-1 #
edge $-1 $267 3.6595656763529409e-016 $267 6.2831853071796004 $162 $268 forward 7 unknown #
loop $-1 $-1 $169 $101 #
plane-surface $-1 28.55970797420521 -32.669073723020432 7.0698431950027469 0 -0.51503808176128008 0.85716729658548041 1 0 0 forward_v I I I I #
loop $-1 $-1 $269 $65 #
coedge $-1 $167 $167 $168 $270 reversed $102 $-1 #
coedge $-1 $168 $168 $167 $270 forward $104 $-1 #
coedge $-1 $169 $169 $105 $170 forward $164 $-1 #
edge $-1 $271 3.6595656763529409e-016 $271 6.2831853071796004 $169 $272 forward 7 unknown #
face $-1 $273 $274 $36 $-1 $275 reversed single #
loop $-1 $-1 $276 $106 #
plane-surface $-1 25.973059766166173 108.52947771484841 136.59577475592602 -1 0 0 0 0.81915205242281985 0.57357642473473569 forward_v I I I I #
coedge $-1 $277 $278 $279 $280 reversed $107 $-1 #
coedge $-1 $176 $109 $281 $282 reversed $69 $-1 #
coedge $-1 $109 $175 $277 $283 reversed $69 $-1 #
coedge $-1 $279 $284 $109 $178 forward $285 $-1 #
edge $-1 $286 21.595665134403767 $287 28.851637598073722 $177 $288 forward 7 unknown #
loop $-1 $-1 $184 $110 #
plane-surface $-1 13.030939236849946 -4.8073472878706554 57.236477927488949 0 0.81915205242281985 0.57357642473473569 1 0 0 forward_v I I I I #
loop $-1 $-1 $289 $71 #
coedge $-1 $182 $182 $183 $290 reversed $111 $-1 #
coedge $-1 $183 $183 $182 $290 forward $113 $-1 #
coedge $-1 $184 $184 $114 $185 forward $179 $-1 #
edge $-1 $291 -2.3547425898718605e-016 $291 6.2831853071796004 $184 $292 forward 7 unknown #
loop $-1 $-1 $191 $115 #
plane-surface $-1 13.030939236849946 -4.8073472878706554 57.236477927488949 0 0.81915205242281985 0.57357642473473569 1 0 0 forward_v I I I I #
loop $-1 $-1 $293 $74 #
coedge $-1 $189 $189 $190 $294 reversed $116 $-1 #
coedge $-1 $190 $190 $189 $294 forward $118 $-1 #
coedge $-1 $191 $191 $119 $192 forward $186 $-1 #
edge $-1 $295 -2.3547425898718605e-016 $295 6.2831853071796004 $191 $296 forward 7 unknown #
loop $-1 $-1 $198 $120 #
plane-surface $-1 13.030939236849946 -4.8073472878706554 57.236477927488949 0 0.81915205242281985 0.57357642473473569 1 0 0 forward_v I I I I #
loop $-1 $-1 $297 $77 #
coedge $-1 $196 $196 $197 $298 reversed $121 $-1 #
coedge $-1 $197 $197 $196 $298 forward $123 $-1 #
coedge $-1 $198 $198 $124 $199 forward $193 $-1 #
edge $-1 $299 -2.3547425898718605e-016 $299 6.2831853071796004 $198 $300 forward 7 unknown #
face $-1 $301 $302 $30 $-1 $303 reversed single #
loop $-1 $-1 $304 $125 #
plane-surface $-1 -69.17935728019043 0 0 1 0 0 0 0 -1 forward_v I I I I #
coedge $-1 $305 $211 $306 $307 forward $126 $-1 #
coedge $-1 $308 $128 $305 $309 forward $81 $-1 #
coedge $-1 $128 $308 $310 $311 forward $81 $-1 #
coedge $-1 $214 $213 $128 $207 reversed $215 $-1 #
edge $-1 $312 -32.669073723020439 $313 32.669073723020439 $206 $314 forward 7 unknown #
coedge $-1 $130 $129 $315 $316 forward $51 $-1 #
coedge $-1 $317 $318 $129 $210 reversed $302 $-1 #
edge $-1 $217 -69.17935728019043 $319 69.17935728019043 $209 $320 forward 7 unknown #
coedge $-1 $203 $321 $130 $212 reversed $126 $-1 #
edge $-1 $322 -69.17935728019043 $216 69.17935728019043 $211 $323 forward 7 unknown #
coedge $-1 $206 $131 $321 $324 forward $215 $-1 #
coedge $-1 $131 $206 $317 $325 reversed $215 $-1 #
loop $-1 $-1 $213 $301 #
vertex $-1 $132 $326 #
vertex $-1 $132 $327 #
straight-curve $-1 69.17935728019043 0 14.077203269289676 0 1 0 I I #
face $-1 $328 $329 $31 $-1 $330 reversed single #
loop $-1 $-1 $224 $133 #
plane-surface $-1 0 -32.669073723020439 0 0 1 0 0 0 1 forward_v I I I I #
coedge $-1 $331 $332 $223 $333 forward $134 $-1 #
coedge $-1 $231 $136 $222 $333 reversed $85 $-1 #
coedge $-1 $229 $334 $136 $225 forward $220 $-1 #
edge $-1 $335 -8.3616233127948369 $232 -3.0695366001948408 $224 $336 forward 7 unknown #
coedge $-1 $138 $137 $337 $338 reversed $54 $-1 #
coedge $-1 $339 $340 $137 $228 forward $341 $-1 #
edge $-1 $342 -37.721870330008159 $233 -25.193103570356374 $227 $343 forward 7 unknown #
coedge $-1 $344 $224 $138 $230 forward $220 $-1 #
edge $-1 $232 25.193103570356374 $345 37.721870330008159 $229 $346 forward 7 unknown #
coedge $-1 $139 $223 $339 $347 reversed $85 $-1 #
vertex $-1 $230 $348 #
vertex $-1 $228 $349 #
straight-curve $-1 -56.650590520538643 0 -8.7851165566896796 0 1 0 I I #
face $-1 $350 $351 $32 $-1 $352 reversed single #
loop $-1 $-1 $353 $141 #
plane-surface $-1 75.063647149825016 -4.5146671844410857 0 0 -1 0 0 0 -1 forward_v I I I I #
coedge $-1 $354 $144 $355 $356 forward $89 $-1 #
coedge $-1 $144 $354 $244 $357 forward $89 $-1 #
edge $-1 $246 -10.156117027586641 $358 -4.5146671844410857 $144 $359 forward 7 unknown #
coedge $-1 $146 $145 $360 $361 forward $57 $-1 #
coedge $-1 $362 $363 $145 $243 forward $364 $-1 #
edge $-1 $365 4.5146671844410857 $247 10.156117027586641 $242 $366 forward 7 unknown #
coedge $-1 $367 $147 $239 $357 reversed $142 $-1 #
coedge $-1 $147 $367 $362 $368 reversed $142 $-1 #
vertex $-1 $240 $369 #
vertex $-1 $368 $370 #
straight-curve $-1 69.17935728019043 -10.156117027586641 0 0 0 1 I I #
face $-1 $-1 $261 $33 $-1 $371 reversed single #
loop $-1 $-1 $372 $149 #
plane-surface $-1 0 0 14.077203269289676 0 0 1 1 0 0 forward_v I I I I #
coedge $-1 $373 $374 $375 $376 reversed $150 $-1 #
coedge $-1 $377 $152 $154 $259 forward $93 $-1 #
coedge $-1 $152 $377 $373 $378 forward $93 $-1 #
coedge $-1 $375 $155 $152 $256 forward $261 $-1 #
edge $-1 $263 2.6504121252254649 $379 25.909295848979745 $255 $380 forward 7 unknown #
coedge $-1 $381 $382 $153 $258 forward $250 $-1 #
edge $-1 $383 -30.957671995491388 $262 -19.295466609557302 $257 $384 forward 7 unknown #
edge $-1 $263 -8.3777685069199533e-015 $383 13.605518353757066 $154 $385 forward 7 unknown #
coedge $-1 $155 $375 $381 $386 reversed $261 $-1 #
loop $-1 $-1 $375 $249 #
vertex $-1 $386 $387 #
vertex $-1 $156 $388 #
straight-curve $-1 16.93026611232807 -32.669073723020439 62.833204256883278 0 0 -1 I I #
coedge $-1 $265 $265 $-1 $389 reversed $159 $-1 #
edge $-1 $390 0 $390 6.2831853071796004 $160 $391 forward 7 unknown #
vertex $-1 $163 $392 #
ellipse-curve $-1 23.575661461972146 -26.837971030053399 10.573523232146208 0 -0.51503808176128008 0.85716729658548041 2.5 0 0 1 I I #
coedge $-1 $269 $269 $-1 $393 reversed $166 $-1 #
edge $-1 $394 0 $394 6.2831853071796004 $167 $395 forward 7 unknown #
vertex $-1 $170 $396 #
ellipse-curve $-1 33.543754486438274 -26.837971030053399 10.573523232146208 0 -0.51503808176128008 0.85716729658548041 2.5 0 0 1 I I #
face $-1 $-1 $285 $36 $-1 $397 forward single #
loop $-1 $-1 $398 $171 #
plane-surface $-1 0 32.669073723020439 0 0 -1 0 0 0 -1 forward_v I I I I #
coedge $-1 $399 $400 $401 $402 reversed $172 $-1 #
coedge $-1 $403 $174 $176 $283 forward $107 $-1 #
coedge $-1 $174 $403 $399 $404 forward $107 $-1 #
coedge $-1 $401 $177 $174 $280 forward $285 $-1 #
edge $-1 $287 -6.4266509108912544 $405 19.4575901477412 $279 $406 forward 7 unknown #
coedge $-1 $407 $408 $175 $282 forward $274 $-1 #
edge $-1 $409 -64.58328703240322 $286 -54.220684108673332 $281 $410 forward 7 unknown #
edge $-1 $287 52.687745248939272 $409 65.338147446040821 $176 $411 forward 7 unknown #
coedge $-1 $177 $401 $407 $412 forward $285 $-1 #
loop $-1 $-1 $401 $273 #
vertex $-1 $282 $413 #
vertex $-1 $178 $414 #
straight-curve $-1 0.088818707533718566 54.264738857424206 14.077203269289676 0 -1 0 I I #
coedge $-1 $289 $289 $-1 $415 reversed $181 $-1 #
edge $-1 $416 0 $416 6.2831853071796004 $182 $417 forward 7 unknown #
vertex $-1 $185 $418 #
ellipse-curve $-1 5.2656669192602124 29.041087491185468 8.8959018074247194 0 0.81915205242281985 0.57357642473473569 2.5 0 0 1 I I #
coedge $-1 $293 $293 $-1 $419 reversed $188 $-1 #
edge $-1 $420 0 $420 6.2831853071796004 $189 $421 forward 7 unknown #
vertex $-1 $192 $422 #
ellipse-curve $-1 13.030939236849946 29.041087491185468 8.8959018074247194 0 0.81915205242281985 0.57357642473473569 2.5 0 0 1 I I #
coedge $-1 $297 $297 $-1 $423 reversed $195 $-1 #
edge $-1 $424 0 $424 6.2831853071796004 $196 $425 forward 7 unknown #
vertex $-1 $199 $426 #
ellipse-curve $-1 20.79621155443968 29.041087491185468 8.8959018074247194 0 0.81915205242281985 0.57357642473473569 2.5 0 0 1 I I #
face $-1 $-1 $215 $30 $-1 $427 reversed single #
loop $-1 $-1 $317 $200 #
plane-surface $-1 0 32.669073723020439 0 0 -1 0 0 0 -1 forward_v I I I I #
coedge $-1 $428 $315 $318 $429 forward $201 $-1 #
coedge $-1 $321 $203 $204 $309 reversed $126 $-1 #
coedge $-1 $315 $428 $203 $307 reversed $201 $-1 #
edge $-1 $322 -14.077203269289676 $430 14.077203269289676 $306 $431 forward 7 unknown #
coedge $-1 $205 $204 $428 $432 forward $81 $-1 #
edge $-1 $313 -69.17935728019043 $430 69.17935728019043 $305 $433 forward 7 unknown #
coedge $-1 $318 $317 $205 $311 reversed $302 $-1 #
edge $-1 $434 -69.17935728019043 $312 69.17935728019043 $310 $435 forward 7 unknown #
vertex $-1 $207 $436 #
vertex $-1 $324 $437 #
straight-curve $-1 69.17935728019043 0 -14.077203269289676 0 -1 0 I I #
coedge $-1 $304 $306 $208 $316 reversed $201 $-1 #
edge $-1 $319 -32.669073723020439 $322 32.669073723020439 $315 $438 forward 7 unknown #
coedge $-1 $310 $209 $214 $325 forward $302 $-1 #
coedge $-1 $209 $310 $304 $429 reversed $302 $-1 #
vertex $-1 $210 $439 #
straight-curve $-1 0 32.669073723020439 14.077203269289676 -1 0 0 I I #
coedge $-1 $211 $305 $213 $324 reversed $126 $-1 #
vertex $-1 $316 $440 #
straight-curve $-1 0 -32.669073723020439 14.077203269289676 1 0 0 I I #
edge $-1 $216 -14.077203269289676 $313 14.077203269289676 $213 $441 forward 7 unknown #
edge $-1 $217 -14.077203269289676 $312 14.077203269289676 $214 $442 forward 7 unknown #
point $-1 69.17935728019043 -32.669073723020439 14.077203269289676 #
point $-1 69.17935728019043 32.669073723020439 14.077203269289676 #
face $-1 $-1 $341 $31 $-1 $443 reversed single #
loop $-1 $-1 $337 $219 #
plane-surface $-1 -69.17935728019043 0 0 1 0 0 0 0 -1 forward_v I I I I #
coedge $-1 $444 $222 $334 $445 forward $134 $-1 #
coedge $-1 $222 $444 $446 $447 forward $134 $-1 #
edge $-1 $448 -32.669073723020439 $335 32.669073723020439 $222 $449 forward 7 unknown #
coedge $-1 $224 $344 $331 $445 reversed $220 $-1 #
vertex $-1 $445 $450 #
straight-curve $-1 -56.650590520538643 -32.669073723020439 -5.7155799564948389 0 0 1 I I #
coedge $-1 $451 $452 $226 $338 forward $329 $-1 #
edge $-1 $345 -32.669073723020439 $342 32.669073723020439 $337 $453 forward 7 unknown #
coedge $-1 $446 $227 $231 $347 forward $341 $-1 #
coedge $-1 $227 $446 $451 $454 reversed $341 $-1 #
loop $-1 $-1 $339 $328 #
vertex $-1 $454 $455 #
straight-curve $-1 -31.457486950182268 32.669073723020439 -8.7851165566896796 1 0 0 I I #
coedge $-1 $334 $229 $452 $456 forward $220 $-1 #
vertex $-1 $456 $457 #
straight-curve $-1 -31.457486950182268 -32.669073723020439 -8.7851165566896796 -1 0 0 I I #
edge $-1 $233 3.0695366001948408 $448 8.3616233127948369 $339 $458 forward 7 unknown #
point $-1 -56.650590520538643 -32.669073723020439 -8.7851165566896796 #
point $-1 -56.650590520538643 32.669073723020439 -8.7851165566896796 #
face $-1 $-1 $364 $32 $-1 $459 forward single #
loop $-1 $-1 $460 $235 #
plane-surface $-1 80.947937019459602 -7.3353921060138632 0 -1 0 0 0 0 1 forward_v I I I I #
coedge $-1 $355 $461 $462 $463 forward $236 $-1 #
coedge $-1 $239 $238 $464 $465 forward $89 $-1 #
coedge $-1 $360 $353 $238 $356 reversed $236 $-1 #
edge $-1 $358 -5.8842898696345856 $466 5.8842898696345856 $355 $467 forward 7 unknown #
edge $-1 $468 -5.8842898696345856 $246 5.8842898696345856 $244 $469 forward 7 unknown #
vertex $-1 $356 $470 #
straight-curve $-1 69.17935728019043 0 -14.077203269289676 0 1 0 I I #
coedge $-1 $461 $355 $241 $361 reversed $236 $-1 #
edge $-1 $365 -14.077203269289676 $358 14.077203269289676 $360 $471 forward 7 unknown #
coedge $-1 $472 $242 $245 $368 forward $364 $-1 #
coedge $-1 $242 $472 $461 $473 forward $364 $-1 #
loop $-1 $-1 $242 $350 #
vertex $-1 $243 $474 #
straight-curve $-1 69.17935728019043 0 14.077203269289676 0 -1 0 I I #
coedge $-1 $245 $244 $460 $475 reversed $142 $-1 #
edge $-1 $247 -5.8842898696345856 $476 5.8842898696345856 $245 $477 forward 7 unknown #
point $-1 69.17935728019043 -10.156117027586641 -14.077203269289676 #
point $-1 69.17935728019043 -10.156117027586641 14.077203269289676 #
plane-surface $-1 0 -32.669073723020439 0 0 1 0 0 0 1 forward_v I I I I #
coedge $-1 $382 $381 $374 $478 forward $250 $-1 #
coedge $-1 $374 $252 $254 $378 reversed $150 $-1 #
coedge $-1 $252 $373 $372 $478 reversed $150 $-1 #
coedge $-1 $260 $255 $252 $376 forward $261 $-1 #
edge $-1 $379 -55.763361061880538 $479 -48.756000987593602 $375 $480 forward 7 unknown #
coedge $-1 $254 $253 $382 $481 reversed $93 $-1 #
edge $-1 $482 -13.605518353757066 $379 8.3777685069199533e-015 $373 $483 forward 7 unknown #
vertex $-1 $256 $484 #
straight-curve $-1 14.279853987102605 -32.669073723020439 7.0698431950027381 1 0 0 I I #
coedge $-1 $372 $257 $260 $386 forward $250 $-1 #
coedge $-1 $257 $372 $377 $481 forward $250 $-1 #
vertex $-1 $258 $485 #
straight-curve $-1 16.93026611232807 -51.964540332577741 14.077203269289676 0 -1 0 I I #
straight-curve $-1 16.93026611232807 -32.669073723020432 7.0698431950027469 0 0.85716729658548041 0.51503808176128008 I I #
edge $-1 $262 16.93026611232807 $479 40.18914983608235 $260 $486 forward 7 unknown #
point $-1 16.93026611232807 -32.669073723020439 14.077203269289676 #
point $-1 16.93026611232807 -32.669073723020439 7.0698431950027425 #
edge $-1 $487 1 $487 0 $265 $-1 forward 7 unknown #
vertex $-1 $266 $488 #
ellipse-curve $-1 23.575661461972146 -22.851011679671824 3.9381087084745712 0 -0.51503808176128008 0.85716729658548041 2.5 0 0 1 I I #
point $-1 26.075661461972146 -26.837971030053399 10.57352323214621 #
edge $-1 $489 1 $489 0 $269 $-1 forward 7 unknown #
vertex $-1 $270 $490 #
ellipse-curve $-1 33.543754486438274 -22.851011679671824 3.9381087084745712 0 -0.51503808176128008 0.85716729658548041 2.5 0 0 1 I I #
point $-1 36.043754486438274 -26.837971030053399 10.57352323214621 #
plane-surface $-1 0 0 14.077203269289676 0 0 1 1 0 0 forward_v I I I I #
coedge $-1 $408 $407 $400 $491 forward $274 $-1 #
coedge $-1 $400 $276 $278 $404 reversed $172 $-1 #
coedge $-1 $276 $399 $398 $491 reversed $172 $-1 #
coedge $-1 $284 $279 $276 $402 forward $285 $-1 #
edge $-1 $405 -28.851637598073722 $492 -21.595665134403767 $401 $493 forward 7 unknown #
coedge $-1 $278 $277 $408 $494 reversed $107 $-1 #
edge $-1 $495 -65.338147446040821 $405 -52.687745248939272 $399 $496 forward 7 unknown #
vertex $-1 $280 $497 #
straight-curve $-1 6.515469618424973 25.413101259350487 14.077203269289676 1 0 0 I I #
coedge $-1 $398 $281 $284 $412 reversed $274 $-1 #
coedge $-1 $281 $398 $403 $494 forward $274 $-1 #
vertex $-1 $282 $498 #
straight-curve $-1 0.088818707533718566 32.669073723020439 68.297887377963008 0 0 1 I I #
straight-curve $-1 0.088818707533718566 -4.8073472878706554 57.236477927488949 0 0.57357642473473569 -0.81915205242281985 I I #
edge $-1 $492 -25.973059766166173 $286 -0.088818707533718566 $407 $499 forward 7 unknown #
point $-1 0.088818707533718566 32.669073723020439 14.077203269289676 #
point $-1 0.088818707533718566 25.413101259350483 14.077203269289676 #
edge $-1 $500 1 $500 0 $289 $-1 forward 7 unknown #
vertex $-1 $290 $501 #
ellipse-curve $-1 5.2656669192602124 26.783775727108203 7.3153151418336106 0 0.81915205242281985 0.57357642473473569 2.5 0 0 1 I I #
point $-1 7.7656669192602124 29.041087491185429 8.8959018074246927 #
edge $-1 $502 1 $502 0 $293 $-1 forward 7 unknown #
vertex $-1 $294 $503 #
ellipse-curve $-1 13.030939236849946 26.783775727108203 7.3153151418336106 0 0.81915205242281985 0.57357642473473569 2.5 0 0 1 I I #
point $-1 15.530939236849946 29.041087491185429 8.8959018074246927 #
edge $-1 $504 1 $504 0 $297 $-1 forward 7 unknown #
vertex $-1 $298 $505 #
ellipse-curve $-1 20.79621155443968 26.783775727108203 7.3153151418336106 0 0.81915205242281985 0.57357642473473569 2.5 0 0 1 I I #
point $-1 23.29621155443968 29.041087491185429 8.8959018074246927 #
plane-surface $-1 69.17935728019043 0 0 -1 0 0 0 0 1 forward_v I I I I #
coedge $-1 $306 $304 $308 $432 reversed $201 $-1 #
edge $-1 $319 -14.077203269289676 $434 14.077203269289676 $318 $506 forward 7 unknown #
vertex $-1 $432 $507 #
straight-curve $-1 -69.17935728019043 -32.669073723020439 0 0 0 -1 I I #
edge $-1 $430 -32.669073723020439 $434 32.669073723020439 $428 $508 forward 7 unknown #
straight-curve $-1 0 -32.669073723020439 -14.077203269289676 -1 0 0 I I #
vertex $-1 $311 $509 #
straight-curve $-1 0 32.669073723020439 -14.077203269289676 1 0 0 I I #
point $-1 69.17935728019043 32.669073723020439 -14.077203269289676 #
point $-1 69.17935728019043 -32.669073723020439 -14.077203269289676 #
straight-curve $-1 -69.17935728019043 0 14.077203269289676 0 -1 0 I I #
point $-1 -69.17935728019043 32.669073723020439 14.077203269289676 #
point $-1 -69.17935728019043 -32.669073723020439 14.077203269289676 #
straight-curve $-1 69.17935728019043 -32.669073723020439 0 0 0 -1 I I #
straight-curve $-1 69.17935728019043 32.669073723020439 0 0 0 -1 I I #
plane-surface $-1 0 32.669073723020439 0 0 -1 0 0 0 -1 forward_v I I I I #
coedge $-1 $332 $331 $510 $511 forward $134 $-1 #
edge $-1 $335 56.650590520538643 $512 69.17935728019043 $334 $513 forward 7 unknown #
coedge $-1 $340 $339 $332 $447 reversed $341 $-1 #
edge $-1 $514 -69.17935728019043 $448 -56.650590520538643 $446 $515 forward 7 unknown #
vertex $-1 $347 $516 #
straight-curve $-1 -56.650590520538643 0 -14.077203269289676 0 -1 0 I I #
point $-1 -56.650590520538643 -32.669073723020439 -14.077203269289676 #
coedge $-1 $510 $337 $340 $454 forward $329 $-1 #
coedge $-1 $337 $510 $344 $456 reversed $329 $-1 #
straight-curve $-1 -69.17935728019043 0 -8.7851165566896796 0 1 0 I I #
edge $-1 $342 8.7851165566896796 $514 14.077203269289676 $340 $517 forward 7 unknown #
point $-1 -69.17935728019043 32.669073723020439 -8.7851165566896796 #
edge $-1 $345 8.7851165566896796 $512 14.077203269289676 $452 $518 forward 7 unknown #
point $-1 -69.17935728019043 -32.669073723020439 -8.7851165566896796 #
straight-curve $-1 -56.650590520538643 32.669073723020439 -5.7155799564948389 0 0 -1 I I #
plane-surface $-1 0 0 14.077203269289676 0 0 1 1 0 0 forward_v I I I I #
coedge $-1 $464 $519 $367 $475 forward $351 $-1 #
coedge $-1 $353 $360 $363 $473 reversed $236 $-1 #
coedge $-1 $519 $464 $353 $463 reversed $351 $-1 #
edge $-1 $520 -14.077203269289676 $466 14.077203269289676 $462 $521 forward 7 unknown #
coedge $-1 $462 $460 $354 $465 reversed $351 $-1 #
edge $-1 $466 -2.8207249215727774 $468 2.8207249215727774 $464 $522 forward 7 unknown #
vertex $-1 $465 $523 #
straight-curve $-1 75.063647149825016 -4.5146671844410857 -14.077203269289676 1 0 0 I I #
vertex $-1 $475 $524 #
straight-curve $-1 75.063647149825016 -10.156117027586641 -14.077203269289676 -1 0 0 I I #
point $-1 69.17935728019043 -4.5146671844410857 -14.077203269289676 #
straight-curve $-1 69.17935728019043 -4.5146671844410857 0 0 0 -1 I I #
coedge $-1 $363 $362 $519 $525 forward $364 $-1 #
edge $-1 $520 -5.8842898696345856 $365 5.8842898696345856 $461 $526 forward 7 unknown #
point $-1 69.17935728019043 -4.5146671844410857 14.077203269289676 #
edge $-1 $476 -14.077203269289676 $468 14.077203269289676 $460 $527 forward 7 unknown #
vertex $-1 $525 $528 #
straight-curve $-1 75.063647149825016 -10.156117027586641 14.077203269289676 1 0 0 I I #
edge $-1 $479 19.295466609557302 $482 30.957671995491388 $372 $529 forward 7 unknown #
vertex $-1 $478 $530 #
straight-curve $-1 40.18914983608235 -32.669073723020439 62.833204256883278 0 0 1 I I #
edge $-1 $482 -25.909295848979745 $383 -2.6504121252254649 $382 $531 forward 7 unknown #
vertex $-1 $481 $532 #
straight-curve $-1 40.18914983608235 -32.669073723020432 7.0698431950027469 0 -0.85716729658548041 -0.51503808176128008 I I #
point $-1 40.18914983608235 -32.669073723020439 7.0698431950027425 #
point $-1 16.93026611232807 -21.006868337086352 14.077203269289676 #
straight-curve $-1 0 -32.669073723020439 14.077203269289676 1 0 0 I I #
vertex $-1 $389 $533 #
point $-1 26.075661461972146 -22.851011679671824 3.9381087084745712 #
vertex $-1 $393 $534 #
point $-1 36.043754486438274 -22.851011679671824 3.9381087084745712 #
edge $-1 $492 54.220684108673332 $495 64.58328703240322 $398 $535 forward 7 unknown #
vertex $-1 $412 $536 #
straight-curve $-1 25.973059766166173 54.264738857424206 14.077203269289676 0 1 0 I I #
edge $-1 $495 -19.4575901477412 $409 6.4266509108912544 $408 $537 forward 7 unknown #
vertex $-1 $494 $538 #
straight-curve $-1 25.973059766166173 -4.8073472878706554 57.236477927488949 0 -0.57357642473473569 0.81915205242281985 I I #
point $-1 25.973059766166173 25.413101259350483 14.077203269289676 #
point $-1 0.088818707533718566 32.669073723020439 3.7146003455597878 #
straight-curve $-1 0 32.669073723020439 14.077203269289676 -1 0 0 I I #
vertex $-1 $415 $539 #
point $-1 7.7656669192602124 26.783775727108203 7.3153151418336106 #
vertex $-1 $419 $540 #
point $-1 15.530939236849946 26.783775727108203 7.3153151418336106 #
vertex $-1 $423 $541 #
point $-1 23.29621155443968 26.783775727108203 7.3153151418336106 #
straight-curve $-1 -69.17935728019043 32.669073723020439 0 0 0 -1 I I #
point $-1 -69.17935728019043 -32.669073723020439 -14.077203269289676 #
straight-curve $-1 -69.17935728019043 0 -14.077203269289676 0 1 0 I I #
point $-1 -69.17935728019043 32.669073723020439 -14.077203269289676 #
coedge $-1 $452 $451 $444 $511 reversed $329 $-1 #
edge $-1 $512 -32.669073723020439 $514 32.669073723020439 $510 $542 forward 7 unknown #
vertex $-1 $511 $543 #
straight-curve $-1 0 -32.669073723020439 -14.077203269289676 -1 0 0 I I #
vertex $-1 $447 $544 #
straight-curve $-1 0 32.669073723020439 -14.077203269289676 1 0 0 I I #
point $-1 -56.650590520538643 32.669073723020439 -14.077203269289676 #
straight-curve $-1 -69.17935728019043 32.669073723020439 0 0 0 -1 I I #
straight-curve $-1 -69.17935728019043 -32.669073723020439 0 0 0 -1 I I #
coedge $-1 $460 $462 $472 $525 reversed $351 $-1 #
vertex $-1 $525 $545 #
straight-curve $-1 80.947937019459602 -4.5146671844410857 0 0 0 -1 I I #
straight-curve $-1 80.947937019459602 -7.3353921060138632 -14.077203269289676 0 -1 0 I I #
point $-1 80.947937019459602 -4.5146671844410857 -14.077203269289676 #
point $-1 80.947937019459602 -10.156117027586641 -14.077203269289676 #
edge $-1 $476 -2.8207249215727774 $520 2.8207249215727774 $519 $546 forward 7 unknown #
straight-curve $-1 75.063647149825016 -4.5146671844410857 14.077203269289676 -1 0 0 I I #
straight-curve $-1 80.947937019459602 -10.156117027586641 0 0 0 -1 I I #
point $-1 80.947937019459602 -10.156117027586641 14.077203269289676 #
straight-curve $-1 40.18914983608235 -51.964540332577741 14.077203269289676 0 1 0 I I #
point $-1 40.18914983608235 -32.669073723020439 14.077203269289676 #
straight-curve $-1 14.279853987102605 -21.006868337086352 14.077203269289676 -1 0 0 I I #
point $-1 40.18914983608235 -21.006868337086352 14.077203269289676 #
point $-1 23.575661461972146 -21.563416475268621 1.7951904670108705 #
point $-1 33.543754486438274 -21.563416475268621 1.7951904670108705 #
straight-curve $-1 25.973059766166173 32.669073723020439 68.297887377963008 0 0 -1 I I #
point $-1 25.973059766166173 32.669073723020439 14.077203269289676 #
straight-curve $-1 6.515469618424973 32.669073723020439 3.7146003455597878 -1 0 0 I I #
point $-1 25.973059766166173 32.669073723020439 3.7146003455597878 #
point $-1 5.2656669192602124 24.735895596051154 5.881374079996772 #
point $-1 13.030939236849946 24.735895596051154 5.881374079996772 #
point $-1 20.79621155443968 24.735895596051154 5.881374079996772 #
straight-curve $-1 -69.17935728019043 0 -14.077203269289676 0 1 0 I I #
point $-1 -69.17935728019043 -32.669073723020439 -14.077203269289676 #
point $-1 -69.17935728019043 32.669073723020439 -14.077203269289676 #
point $-1 80.947937019459602 -4.5146671844410857 14.077203269289676 #
straight-curve $-1 80.947937019459602 -7.3353921060138632 14.077203269289676 0 1 0 I I #
End-of-ACIS-data 