500 0 10 0           
7 Unknown 11 ACIS 5.0 NT 24 Thu Mar 25 22:44:47 1999 
-1 9.9999999999999995e-007 1e-010 
body $-1 $10 $-1 $11 #
body $-1 $12 $-1 $13 #
body $-1 $14 $-1 $15 #
body $-1 $16 $-1 $17 #
body $-1 $18 $-1 $19 #
body $-1 $20 $-1 $21 #
body $-1 $22 $-1 $23 #
body $-1 $24 $-1 $25 #
body $-1 $26 $-1 $27 #
body $-1 $28 $-1 $29 #
lump $-1 $-1 $30 $0 #
transform $-1 1 0 0 0 1 0 0 0 1 55.642567217017117 38.457679495239361 16.41414182087988 1 rotate no_reflect no_shear #
lump $-1 $-1 $31 $1 #
transform $-1 1 0 0 0 1 0 0 0 1 55.642567217017117 38.457679495239361 16.41414182087988 1 rotate no_reflect no_shear #
lump $-1 $-1 $32 $2 #
transform $-1 1 0 0 0 1 0 0 0 1 55.642567217017117 38.457679495239361 16.41414182087988 1 rotate no_reflect no_shear #
lump $-1 $-1 $33 $3 #
transform $-1 1 0 0 0 1 0 0 0 1 55.642567217017117 38.457679495239361 16.41414182087988 1 rotate no_reflect no_shear #
lump $-1 $-1 $34 $4 #
transform $-1 1 0 0 0 1 0 0 0 1 55.642567217017117 38.457679495239361 16.41414182087988 1 rotate no_reflect no_shear #
lump $-1 $-1 $35 $5 #
transform $-1 1 0 0 0 1 0 0 0 1 55.642567217017117 38.457679495239361 16.41414182087988 1 rotate no_reflect no_shear #
lump $-1 $-1 $36 $6 #
transform $-1 1 0 0 0 1 0 0 0 1 55.642567217017117 38.457679495239361 16.41414182087988 1 rotate no_reflect no_shear #
lump $-1 $-1 $37 $7 #
transform $-1 1 0 0 0 1 0 0 0 1 55.642567217017117 38.457679495239361 16.41414182087988 1 rotate no_reflect no_shear #
lump $-1 $-1 $38 $8 #
transform $-1 1 0 0 0 1 0 0 0 1 55.642567217017117 38.457679495239361 16.41414182087988 1 rotate no_reflect no_shear #
lump $-1 $-1 $39 $9 #
transform $-1 1 0 0 0 1 0 0 0 1 55.642567217017117 38.457679495239361 16.41414182087988 1 rotate no_reflect no_shear #
shell $-1 $-1 $-1 $40 $-1 $10 #
shell $-1 $-1 $-1 $41 $-1 $12 #
shell $-1 $-1 $-1 $42 $-1 $14 #
shell $-1 $-1 $-1 $43 $-1 $16 #
shell $-1 $-1 $-1 $44 $-1 $18 #
shell $-1 $-1 $-1 $45 $-1 $20 #
shell $-1 $-1 $-1 $46 $-1 $22 #
shell $-1 $-1 $-1 $47 $-1 $24 #
shell $-1 $-1 $-1 $48 $-1 $26 #
shell $-1 $-1 $-1 $49 $-1 $28 #
face $-1 $50 $51 $30 $-1 $52 forward single #
face $-1 $53 $54 $31 $-1 $55 reversed single #
face $-1 $56 $57 $32 $-1 $58 reversed single #
face $-1 $59 $60 $33 $-1 $61 forward single #
face $-1 $62 $63 $34 $-1 $64 forward single #
face $-1 $65 $66 $35 $-1 $67 forward single #
face $-1 $68 $69 $36 $-1 $70 reversed single #
face $-1 $71 $72 $37 $-1 $73 forward single #
face $-1 $74 $75 $38 $-1 $76 forward single #
face $-1 $77 $78 $39 $-1 $79 forward single #
face $-1 $80 $81 $30 $-1 $82 reversed single #
loop $-1 $-1 $83 $40 #
plane-surface $-1 0 0 16.41414182087988 0 0 1 1 0 0 forward_v I I I I #
face $-1 $84 $85 $31 $-1 $86 reversed single #
loop $-1 $-1 $87 $41 #
plane-surface $-1 0 -28.57734995568994 12.911503116086754 0 0 1 1 0 0 forward_v I I I I #
face $-1 $88 $89 $32 $-1 $90 reversed single #
loop $-1 $-1 $91 $42 #
plane-surface $-1 -28.524308689469436 67.390327405038491 140.39065111594394 -1 0 0 0 0.73135370988377701 0.68199835119979291 forward_v I I I I #
face $-1 $92 $93 $33 $-1 $94 forward single #
loop $-1 $95 $96 $43 #
cone-surface $-1 -50.218915511507582 32.570777895827241 10.391632375980667 0 -0.73135370988377701 -0.68199835119979291 1.5 0 0 1 I I 0 1 1.5 forward I I I I #
face $-1 $97 $98 $34 $-1 $99 forward single #
loop $-1 $100 $101 $44 #
cone-surface $-1 -42.083437953243276 32.570777895827241 10.391632375980667 0 -0.73135370988377701 -0.68199835119979291 1.5 0 0 1 I I 0 1 1.5 forward I I I I #
face $-1 $102 $103 $35 $-1 $104 forward single #
loop $-1 $105 $106 $45 #
cone-surface $-1 -33.947960394978971 32.570777895827241 10.391632375980667 0 -0.73135370988377701 -0.68199835119979291 1.5 0 0 1 I I 0 1 1.5 forward I I I I #
face $-1 $107 $108 $36 $-1 $109 reversed single #
loop $-1 $-1 $110 $46 #
plane-surface $-1 27.118258527547681 67.390327405038491 140.39065111594394 -1 0 0 0 0.73135370988377701 0.68199835119979291 forward_v I I I I #
face $-1 $111 $112 $37 $-1 $113 forward single #
loop $-1 $114 $115 $47 #
cone-surface $-1 5.4236517055095348 32.570777895827241 10.391632375980667 0 -0.73135370988377701 -0.68199835119979291 1.5 0 0 1 I I 0 1 1.5 forward I I I I #
face $-1 $116 $117 $38 $-1 $118 forward single #
loop $-1 $119 $120 $48 #
cone-surface $-1 13.559129263773841 32.570777895827241 10.391632375980667 0 -0.73135370988377701 -0.68199835119979291 1.5 0 0 1 I I 0 1 1.5 forward I I I I #
face $-1 $121 $122 $39 $-1 $123 forward single #
loop $-1 $124 $125 $49 #
cone-surface $-1 21.694606822038153 32.570777895827241 10.391632375980667 0 -0.73135370988377701 -0.68199835119979291 1.5 0 0 1 I I 0 1 1.5 forward I I I I #
face $-1 $126 $127 $30 $-1 $128 reversed single #
loop $-1 $-1 $129 $50 #
plane-surface $-1 0 0 -16.41414182087988 0 0 1 1 0 0 forward_v I I I I #
coedge $-1 $130 $131 $132 $133 forward $51 $-1 #
face $-1 $134 $135 $31 $-1 $136 reversed single #
loop $-1 $-1 $137 $53 #
plane-surface $-1 0 -18.697020416140518 14.662822468483316 0 -1 0 0 0 -1 forward_v I I I I #
coedge $-1 $138 $139 $140 $141 reversed $54 $-1 #
face $-1 $142 $143 $32 $-1 $144 reversed single #
loop $-1 $-1 $145 $56 #
plane-surface $-1 -42.083437953243276 -13.998468518207304 64.49437291888529 0 0.73135370988377701 0.68199835119979291 1 0 0 forward_v I I I I #
coedge $-1 $146 $147 $148 $149 reversed $57 $-1 #
face $-1 $-1 $150 $33 $-1 $151 forward single #
loop $-1 $152 $153 $59 #
cone-surface $-1 -50.218915511507582 29.945665143441744 7.9436751910434786 0 -0.73135370988377701 -0.68199835119979291 0.75 0 0 1 I I -0.70710678118654757 0.70710678118654757 0.75 forward I I I I #
loop $-1 $-1 $154 $43 #
coedge $-1 $96 $96 $155 $156 reversed $60 $-1 #
face $-1 $-1 $157 $34 $-1 $158 forward single #
loop $-1 $159 $160 $62 #
cone-surface $-1 -42.083437953243276 29.945665143441744 7.9436751910434786 0 -0.73135370988377701 -0.68199835119979291 0.75 0 0 1 I I -0.70710678118654757 0.70710678118654757 0.75 forward I I I I #
loop $-1 $-1 $161 $44 #
coedge $-1 $101 $101 $162 $163 reversed $63 $-1 #
face $-1 $-1 $164 $35 $-1 $165 forward single #
loop $-1 $166 $167 $65 #
cone-surface $-1 -33.947960394978971 29.945665143441744 7.9436751910434786 0 -0.73135370988377701 -0.68199835119979291 0.75 0 0 1 I I -0.70710678118654757 0.70710678118654757 0.75 forward I I I I #
loop $-1 $-1 $168 $45 #
coedge $-1 $106 $106 $169 $170 reversed $66 $-1 #
face $-1 $171 $172 $36 $-1 $173 reversed single #
loop $-1 $-1 $174 $68 #
plane-surface $-1 13.559129263773841 -13.998468518207304 64.49437291888529 0 0.73135370988377701 0.68199835119979291 1 0 0 forward_v I I I I #
coedge $-1 $175 $176 $177 $178 reversed $69 $-1 #
face $-1 $-1 $179 $37 $-1 $180 forward single #
loop $-1 $181 $182 $71 #
cone-surface $-1 5.4236517055095348 29.945665143441744 7.9436751910434786 0 -0.73135370988377701 -0.68199835119979291 0.75 0 0 1 I I -0.70710678118654757 0.70710678118654757 0.75 forward I I I I #
loop $-1 $-1 $183 $47 #
coedge $-1 $115 $115 $184 $185 reversed $72 $-1 #
face $-1 $-1 $186 $38 $-1 $187 forward single #
loop $-1 $188 $189 $74 #
cone-surface $-1 13.559129263773841 29.945665143441744 7.9436751910434786 0 -0.73135370988377701 -0.68199835119979291 0.75 0 0 1 I I -0.70710678118654757 0.70710678118654757 0.75 forward I I I I #
loop $-1 $-1 $190 $48 #
coedge $-1 $120 $120 $191 $192 reversed $75 $-1 #
face $-1 $-1 $193 $39 $-1 $194 forward single #
loop $-1 $195 $196 $77 #
cone-surface $-1 21.694606822038153 29.945665143441744 7.9436751910434786 0 -0.73135370988377701 -0.68199835119979291 0.75 0 0 1 I I -0.70710678118654757 0.70710678118654757 0.75 forward I I I I #
loop $-1 $-1 $197 $49 #
coedge $-1 $125 $125 $198 $199 reversed $78 $-1 #
face $-1 $200 $201 $30 $-1 $202 reversed single #
loop $-1 $-1 $203 $80 #
plane-surface $-1 0 -38.457679495239361 0 0 1 0 0 0 1 forward_v I I I I #
coedge $-1 $204 $205 $206 $207 forward $81 $-1 #
coedge $-1 $208 $83 $209 $210 forward $51 $-1 #
coedge $-1 $83 $208 $211 $212 forward $51 $-1 #
coedge $-1 $213 $214 $83 $133 reversed $215 $-1 #
edge $-1 $216 -38.457679495239361 $217 38.457679495239361 $132 $218 forward 7 unknown #
face $-1 $219 $220 $31 $-1 $221 reversed single #
loop $-1 $-1 $222 $84 #
plane-surface $-1 -55.642567217017117 0 0 1 0 0 0 0 -1 forward_v I I I I #
coedge $-1 $223 $224 $225 $226 reversed $85 $-1 #
coedge $-1 $227 $87 $228 $229 reversed $54 $-1 #
coedge $-1 $87 $227 $223 $230 forward $54 $-1 #
coedge $-1 $225 $231 $87 $141 forward $232 $-1 #
edge $-1 $233 -24.169004517394391 $234 -4.408345438295548 $140 $235 forward 7 unknown #
face $-1 $236 $237 $32 $-1 $238 forward single #
loop $-1 $-1 $239 $88 #
plane-surface $-1 -55.642567217017117 0 0 1 0 0 0 0 -1 forward_v I I I I #
coedge $-1 $240 $241 $242 $243 reversed $89 $-1 #
coedge $-1 $147 $91 $244 $245 reversed $57 $-1 #
coedge $-1 $91 $146 $240 $246 reversed $57 $-1 #
coedge $-1 $242 $247 $91 $149 forward $248 $-1 #
edge $-1 $249 53.781183737092093 $250 61.953285783815822 $148 $251 forward 7 unknown #
loop $-1 $-1 $155 $92 #
plane-surface $-1 -42.083437953243276 -13.998468518207304 64.49437291888529 0 0.73135370988377701 0.68199835119979291 1 0 0 forward_v I I I I #
loop $-1 $-1 $252 $59 #
coedge $-1 $153 $153 $154 $253 reversed $93 $-1 #
coedge $-1 $154 $154 $153 $253 forward $95 $-1 #
coedge $-1 $155 $155 $96 $156 forward $150 $-1 #
edge $-1 $254 8.6609677638186254e-016 $254 6.2831853071796013 $155 $255 forward 7 unknown #
loop $-1 $-1 $162 $97 #
plane-surface $-1 -42.083437953243276 -13.998468518207304 64.49437291888529 0 0.73135370988377701 0.68199835119979291 1 0 0 forward_v I I I I #
loop $-1 $-1 $256 $62 #
coedge $-1 $160 $160 $161 $257 reversed $98 $-1 #
coedge $-1 $161 $161 $160 $257 forward $100 $-1 #
coedge $-1 $162 $162 $101 $163 forward $157 $-1 #
edge $-1 $258 8.6609677638186254e-016 $258 6.2831853071796013 $162 $259 forward 7 unknown #
loop $-1 $-1 $169 $102 #
plane-surface $-1 -42.083437953243276 -13.998468518207304 64.49437291888529 0 0.73135370988377701 0.68199835119979291 1 0 0 forward_v I I I I #
loop $-1 $-1 $260 $65 #
coedge $-1 $167 $167 $168 $261 reversed $103 $-1 #
coedge $-1 $168 $168 $167 $261 forward $105 $-1 #
coedge $-1 $169 $169 $106 $170 forward $164 $-1 #
edge $-1 $262 8.6609677638186254e-016 $262 6.2831853071796013 $169 $263 forward 7 unknown #
face $-1 $264 $265 $36 $-1 $266 forward single #
loop $-1 $-1 $267 $107 #
plane-surface $-1 1.7763568394002505e-015 67.390327405038491 140.39065111594394 1 0 0 0 -0.73135370988377701 -0.68199835119979291 forward_v I I I I #
coedge $-1 $268 $269 $270 $271 reversed $108 $-1 #
coedge $-1 $176 $110 $272 $273 reversed $69 $-1 #
coedge $-1 $110 $175 $268 $274 reversed $69 $-1 #
coedge $-1 $270 $275 $110 $178 forward $276 $-1 #
edge $-1 $277 53.781183737092093 $278 61.953285783815822 $177 $279 forward 7 unknown #
loop $-1 $-1 $184 $111 #
plane-surface $-1 13.559129263773841 -13.998468518207304 64.49437291888529 0 0.73135370988377701 0.68199835119979291 1 0 0 forward_v I I I I #
loop $-1 $-1 $280 $71 #
coedge $-1 $182 $182 $183 $281 reversed $112 $-1 #
coedge $-1 $183 $183 $182 $281 forward $114 $-1 #
coedge $-1 $184 $184 $115 $185 forward $179 $-1 #
edge $-1 $282 8.6609677638186254e-016 $282 6.2831853071796013 $184 $283 forward 7 unknown #
loop $-1 $-1 $191 $116 #
plane-surface $-1 13.559129263773841 -13.998468518207304 64.49437291888529 0 0.73135370988377701 0.68199835119979291 1 0 0 forward_v I I I I #
loop $-1 $-1 $284 $74 #
coedge $-1 $189 $189 $190 $285 reversed $117 $-1 #
coedge $-1 $190 $190 $189 $285 forward $119 $-1 #
coedge $-1 $191 $191 $120 $192 forward $186 $-1 #
edge $-1 $286 8.6609677638186254e-016 $286 6.2831853071796013 $191 $287 forward 7 unknown #
loop $-1 $-1 $198 $121 #
plane-surface $-1 13.559129263773841 -13.998468518207304 64.49437291888529 0 0.73135370988377701 0.68199835119979291 1 0 0 forward_v I I I I #
loop $-1 $-1 $288 $77 #
coedge $-1 $196 $196 $197 $289 reversed $122 $-1 #
coedge $-1 $197 $197 $196 $289 forward $124 $-1 #
coedge $-1 $198 $198 $125 $199 forward $193 $-1 #
edge $-1 $290 8.6609677638186254e-016 $290 6.2831853071796013 $198 $291 forward 7 unknown #
face $-1 $292 $293 $30 $-1 $294 reversed single #
loop $-1 $-1 $295 $126 #
plane-surface $-1 -55.642567217017117 0 0 1 0 0 0 0 -1 forward_v I I I I #
coedge $-1 $296 $211 $297 $298 forward $127 $-1 #
coedge $-1 $299 $129 $296 $300 forward $81 $-1 #
coedge $-1 $129 $299 $301 $302 forward $81 $-1 #
coedge $-1 $214 $213 $129 $207 reversed $215 $-1 #
edge $-1 $303 -38.457679495239361 $304 38.457679495239361 $206 $305 forward 7 unknown #
coedge $-1 $131 $130 $306 $307 forward $51 $-1 #
coedge $-1 $308 $309 $130 $210 reversed $293 $-1 #
edge $-1 $217 -55.642567217017117 $310 55.642567217017117 $209 $311 forward 7 unknown #
coedge $-1 $203 $312 $131 $212 reversed $127 $-1 #
edge $-1 $313 -55.642567217017117 $216 55.642567217017117 $211 $314 forward 7 unknown #
coedge $-1 $206 $132 $312 $315 forward $215 $-1 #
coedge $-1 $132 $206 $308 $316 reversed $215 $-1 #
loop $-1 $-1 $213 $292 #
vertex $-1 $133 $317 #
vertex $-1 $133 $318 #
straight-curve $-1 55.642567217017117 0 16.41414182087988 0 1 0 I I #
face $-1 $319 $320 $31 $-1 $321 forward single #
loop $-1 $-1 $228 $134 #
plane-surface $-1 0 -38.457679495239361 0 0 1 0 0 0 1 forward_v I I I I #
coedge $-1 $322 $323 $324 $325 forward $135 $-1 #
coedge $-1 $324 $137 $139 $230 reversed $85 $-1 #
coedge $-1 $137 $324 $326 $327 reversed $85 $-1 #
coedge $-1 $328 $140 $137 $226 forward $232 $-1 #
edge $-1 $234 5.580091881845096 $329 9.0827305866382186 $225 $330 forward 7 unknown #
coedge $-1 $139 $138 $322 $331 reversed $54 $-1 #
coedge $-1 $332 $333 $138 $229 forward $220 $-1 #
edge $-1 $334 -55.642567217017117 $233 55.642567217017117 $228 $335 forward 7 unknown #
edge $-1 $336 -55.642567217017117 $234 55.642567217017117 $223 $337 forward 7 unknown #
coedge $-1 $140 $328 $332 $338 forward $232 $-1 #
loop $-1 $-1 $225 $319 #
vertex $-1 $229 $339 #
vertex $-1 $141 $340 #
straight-curve $-1 55.642567217017117 -14.28867497784497 12.911503116086754 0 1 0 I I #
face $-1 $-1 $248 $32 $-1 $341 reversed single #
loop $-1 $-1 $244 $142 #
plane-surface $-1 0 0 16.41414182087988 0 0 1 1 0 0 forward_v I I I I #
coedge $-1 $342 $343 $241 $344 forward $143 $-1 #
coedge $-1 $345 $145 $147 $246 forward $89 $-1 #
coedge $-1 $145 $345 $239 $344 reversed $89 $-1 #
coedge $-1 $346 $148 $145 $243 forward $248 $-1 #
edge $-1 $250 7.4825897128477976 $347 34.600848240395479 $242 $348 forward 7 unknown #
coedge $-1 $349 $350 $146 $245 forward $237 $-1 #
edge $-1 $351 -2.8580924661587872 $249 4.7625157927201158 $244 $352 forward 7 unknown #
edge $-1 $250 -76.915358990478722 $351 -65.741419573363586 $147 $353 forward 7 unknown #
coedge $-1 $148 $346 $349 $354 reversed $248 $-1 #
loop $-1 $-1 $242 $236 #
vertex $-1 $354 $355 #
vertex $-1 $149 $356 #
straight-curve $-1 -28.524308689469436 38.457679495239361 70.195325557971969 0 0 -1 I I #
coedge $-1 $252 $252 $-1 $357 reversed $152 $-1 #
edge $-1 $358 0 $358 6.2831853071796004 $153 $359 forward 7 unknown #
vertex $-1 $156 $360 #
ellipse-curve $-1 -50.218915511507582 34.64737536579991 12.328090797518014 0 0.73135370988377701 0.68199835119979291 1.5 0 0 1 I I #
coedge $-1 $256 $256 $-1 $361 reversed $159 $-1 #
edge $-1 $362 0 $362 6.2831853071796004 $160 $363 forward 7 unknown #
vertex $-1 $163 $364 #
ellipse-curve $-1 -42.083437953243276 34.64737536579991 12.328090797518014 0 0.73135370988377701 0.68199835119979291 1.5 0 0 1 I I #
coedge $-1 $260 $260 $-1 $365 reversed $166 $-1 #
edge $-1 $366 0 $366 6.2831853071796004 $167 $367 forward 7 unknown #
vertex $-1 $170 $368 #
ellipse-curve $-1 -33.947960394978971 34.64737536579991 12.328090797518014 0 0.73135370988377701 0.68199835119979291 1.5 0 0 1 I I #
face $-1 $-1 $276 $36 $-1 $369 reversed single #
loop $-1 $-1 $370 $171 #
plane-surface $-1 0 0 16.41414182087988 0 0 1 1 0 0 forward_v I I I I #
coedge $-1 $371 $372 $373 $374 reversed $172 $-1 #
coedge $-1 $375 $174 $176 $274 forward $108 $-1 #
coedge $-1 $174 $375 $371 $376 forward $108 $-1 #
coedge $-1 $373 $177 $174 $271 forward $276 $-1 #
edge $-1 $278 -20.338693895660761 $377 6.7795646318869185 $270 $378 forward 7 unknown #
coedge $-1 $379 $380 $175 $273 forward $265 $-1 #
edge $-1 $381 -2.8580924661587872 $277 4.7625157927201158 $272 $382 forward 7 unknown #
edge $-1 $278 -76.915358990478722 $381 -65.741419573363586 $176 $383 forward 7 unknown #
coedge $-1 $177 $373 $379 $384 reversed $276 $-1 #
loop $-1 $-1 $373 $264 #
vertex $-1 $384 $385 #
vertex $-1 $178 $386 #
straight-curve $-1 27.118258527547681 38.457679495239361 70.195325557971969 0 0 -1 I I #
coedge $-1 $280 $280 $-1 $387 reversed $181 $-1 #
edge $-1 $388 0 $388 6.2831853071796004 $182 $389 forward 7 unknown #
vertex $-1 $185 $390 #
ellipse-curve $-1 5.4236517055095348 34.64737536579991 12.328090797518014 0 0.73135370988377701 0.68199835119979291 1.5 0 0 1 I I #
coedge $-1 $284 $284 $-1 $391 reversed $188 $-1 #
edge $-1 $392 0 $392 6.2831853071796004 $189 $393 forward 7 unknown #
vertex $-1 $192 $394 #
ellipse-curve $-1 13.559129263773841 34.64737536579991 12.328090797518014 0 0.73135370988377701 0.68199835119979291 1.5 0 0 1 I I #
coedge $-1 $288 $288 $-1 $395 reversed $195 $-1 #
edge $-1 $396 0 $396 6.2831853071796004 $196 $397 forward 7 unknown #
vertex $-1 $199 $398 #
ellipse-curve $-1 21.694606822038153 34.64737536579991 12.328090797518014 0 0.73135370988377701 0.68199835119979291 1.5 0 0 1 I I #
face $-1 $-1 $215 $30 $-1 $399 reversed single #
loop $-1 $-1 $308 $200 #
plane-surface $-1 0 38.457679495239361 0 0 -1 0 0 0 -1 forward_v I I I I #
coedge $-1 $400 $306 $309 $401 forward $201 $-1 #
coedge $-1 $312 $203 $204 $300 reversed $127 $-1 #
coedge $-1 $306 $400 $203 $298 reversed $201 $-1 #
edge $-1 $313 -16.41414182087988 $402 16.41414182087988 $297 $403 forward 7 unknown #
coedge $-1 $205 $204 $400 $404 forward $81 $-1 #
edge $-1 $304 -55.642567217017117 $402 55.642567217017117 $296 $405 forward 7 unknown #
coedge $-1 $309 $308 $205 $302 reversed $293 $-1 #
edge $-1 $406 -55.642567217017117 $303 55.642567217017117 $301 $407 forward 7 unknown #
vertex $-1 $207 $408 #
vertex $-1 $315 $409 #
straight-curve $-1 55.642567217017117 0 -16.41414182087988 0 -1 0 I I #
coedge $-1 $295 $297 $208 $307 reversed $201 $-1 #
edge $-1 $310 -38.457679495239361 $313 38.457679495239361 $306 $410 forward 7 unknown #
coedge $-1 $301 $209 $214 $316 forward $293 $-1 #
coedge $-1 $209 $301 $295 $401 reversed $293 $-1 #
vertex $-1 $210 $411 #
straight-curve $-1 0 38.457679495239361 16.41414182087988 -1 0 0 I I #
coedge $-1 $211 $296 $213 $315 reversed $127 $-1 #
vertex $-1 $307 $412 #
straight-curve $-1 0 -38.457679495239361 16.41414182087988 1 0 0 I I #
edge $-1 $216 -16.41414182087988 $304 16.41414182087988 $213 $413 forward 7 unknown #
edge $-1 $217 -16.41414182087988 $303 16.41414182087988 $214 $414 forward 7 unknown #
point $-1 55.642567217017117 -38.457679495239361 16.41414182087988 #
point $-1 55.642567217017117 38.457679495239361 16.41414182087988 #
face $-1 $-1 $232 $31 $-1 $415 reversed single #
loop $-1 $-1 $326 $219 #
plane-surface $-1 0 0 16.41414182087988 0 0 1 1 0 0 forward_v I I I I #
coedge $-1 $416 $222 $227 $331 forward $135 $-1 #
coedge $-1 $222 $416 $417 $418 reversed $135 $-1 #
coedge $-1 $224 $223 $222 $325 reversed $85 $-1 #
edge $-1 $419 -9.0827305866382186 $336 -5.580091881845096 $222 $420 forward 7 unknown #
coedge $-1 $417 $421 $224 $327 forward $320 $-1 #
edge $-1 $329 -55.642567217017117 $419 55.642567217017117 $326 $422 forward 7 unknown #
coedge $-1 $231 $225 $421 $423 reversed $232 $-1 #
vertex $-1 $226 $424 #
straight-curve $-1 55.642567217017117 -18.697020416140518 7.3314112342416582 0 0 1 I I #
edge $-1 $336 4.408345438295548 $334 24.169004517394391 $322 $425 forward 7 unknown #
coedge $-1 $426 $228 $231 $338 reversed $220 $-1 #
coedge $-1 $228 $426 $416 $427 forward $220 $-1 #
vertex $-1 $229 $428 #
straight-curve $-1 0 -38.457679495239361 12.911503116086754 1 0 0 I I #
vertex $-1 $331 $429 #
straight-curve $-1 0 -18.697020416140518 12.911503116086754 1 0 0 I I #
edge $-1 $430 -16.41414182087988 $233 -12.911503116086754 $231 $431 forward 7 unknown #
point $-1 55.642567217017117 -38.457679495239361 12.911503116086754 #
point $-1 55.642567217017117 -18.697020416140518 12.911503116086754 #
plane-surface $-1 0 38.457679495239361 0 0 -1 0 0 0 -1 forward_v I I I I #
coedge $-1 $343 $239 $432 $433 reversed $143 $-1 #
coedge $-1 $239 $342 $346 $434 forward $143 $-1 #
edge $-1 $347 -48.557793315681664 $435 -37.383853898566514 $239 $436 forward 7 unknown #
coedge $-1 $241 $240 $350 $437 reversed $89 $-1 #
coedge $-1 $247 $242 $343 $434 reversed $248 $-1 #
vertex $-1 $344 $438 #
straight-curve $-1 -21.041718976621638 38.457679495239361 8.2420397741561402 -1 0 0 I I #
coedge $-1 $432 $244 $247 $354 forward $237 $-1 #
coedge $-1 $244 $432 $345 $437 forward $237 $-1 #
vertex $-1 $245 $439 #
straight-curve $-1 -28.524308689469436 33.695163702519245 16.414141820879877 0 1 0 I I #
straight-curve $-1 -28.524308689469436 -13.998468518207304 64.49437291888529 0 -0.68199835119979291 0.73135370988377701 I I #
edge $-1 $249 28.524308689469436 $440 55.642567217017117 $247 $441 forward 7 unknown #
point $-1 -28.524308689469436 38.457679495239361 16.41414182087988 #
point $-1 -28.524308689469436 38.457679495239361 8.2420397741561473 #
edge $-1 $442 1 $442 0 $252 $-1 forward 7 unknown #
vertex $-1 $253 $443 #
ellipse-curve $-1 -50.218915511507582 30.494180425854577 8.4551739544433229 0 0.73135370988377701 0.68199835119979291 1.5 0 0 1 I I #
point $-1 -48.718915511507582 34.64737536579991 12.328090797518012 #
edge $-1 $444 1 $444 0 $256 $-1 forward 7 unknown #
vertex $-1 $257 $445 #
ellipse-curve $-1 -42.083437953243276 30.494180425854577 8.4551739544433229 0 0.73135370988377701 0.68199835119979291 1.5 0 0 1 I I #
point $-1 -40.583437953243276 34.64737536579991 12.328090797518012 #
edge $-1 $446 1 $446 0 $260 $-1 forward 7 unknown #
vertex $-1 $261 $447 #
ellipse-curve $-1 -33.947960394978971 30.494180425854577 8.4551739544433229 0 0.73135370988377701 0.68199835119979291 1.5 0 0 1 I I #
point $-1 -32.447960394978971 34.64737536579991 12.328090797518012 #
plane-surface $-1 0 38.457679495239361 0 0 -1 0 0 0 -1 forward_v I I I I #
coedge $-1 $380 $379 $372 $448 forward $265 $-1 #
coedge $-1 $372 $267 $269 $376 reversed $172 $-1 #
coedge $-1 $267 $371 $370 $448 reversed $172 $-1 #
coedge $-1 $275 $270 $267 $374 forward $276 $-1 #
edge $-1 $377 -61.953285783815822 $449 -53.781183737092093 $373 $450 forward 7 unknown #
coedge $-1 $269 $268 $380 $451 reversed $108 $-1 #
edge $-1 $452 65.741419573363586 $377 76.915358990478722 $371 $453 forward 7 unknown #
vertex $-1 $271 $454 #
straight-curve $-1 6.7795646318869203 38.457679495239361 8.2420397741561402 -1 0 0 I I #
coedge $-1 $370 $272 $275 $384 forward $265 $-1 #
coedge $-1 $272 $370 $375 $451 forward $265 $-1 #
vertex $-1 $273 $455 #
straight-curve $-1 27.118258527547681 33.695163702519245 16.414141820879877 0 1 0 I I #
straight-curve $-1 27.118258527547681 -13.998468518207304 64.49437291888529 0 -0.68199835119979291 0.73135370988377701 I I #
edge $-1 $277 -27.118258527547681 $449 -1.7763568394002505e-015 $275 $456 forward 7 unknown #
point $-1 27.118258527547681 38.457679495239361 16.41414182087988 #
point $-1 27.118258527547681 38.457679495239361 8.2420397741561473 #
edge $-1 $457 1 $457 0 $280 $-1 forward 7 unknown #
vertex $-1 $281 $458 #
ellipse-curve $-1 5.4236517055095348 30.494180425854577 8.4551739544433229 0 0.73135370988377701 0.68199835119979291 1.5 0 0 1 I I #
point $-1 6.9236517055095348 34.64737536579991 12.328090797518012 #
edge $-1 $459 1 $459 0 $284 $-1 forward 7 unknown #
vertex $-1 $285 $460 #
ellipse-curve $-1 13.559129263773841 30.494180425854577 8.4551739544433229 0 0.73135370988377701 0.68199835119979291 1.5 0 0 1 I I #
point $-1 15.059129263773841 34.64737536579991 12.328090797518012 #
edge $-1 $461 1 $461 0 $288 $-1 forward 7 unknown #
vertex $-1 $289 $462 #
ellipse-curve $-1 21.694606822038153 30.494180425854577 8.4551739544433229 0 0.73135370988377701 0.68199835119979291 1.5 0 0 1 I I #
point $-1 23.194606822038153 34.64737536579991 12.328090797518012 #
plane-surface $-1 55.642567217017117 0 0 -1 0 0 0 0 1 forward_v I I I I #
coedge $-1 $297 $295 $299 $404 reversed $201 $-1 #
edge $-1 $310 -16.41414182087988 $406 16.41414182087988 $309 $463 forward 7 unknown #
vertex $-1 $404 $464 #
straight-curve $-1 -55.642567217017117 -38.457679495239361 0 0 0 -1 I I #
edge $-1 $402 -38.457679495239361 $406 38.457679495239361 $400 $465 forward 7 unknown #
straight-curve $-1 0 -38.457679495239361 -16.41414182087988 -1 0 0 I I #
vertex $-1 $302 $466 #
straight-curve $-1 0 38.457679495239361 -16.41414182087988 1 0 0 I I #
point $-1 55.642567217017117 38.457679495239361 -16.41414182087988 #
point $-1 55.642567217017117 -38.457679495239361 -16.41414182087988 #
straight-curve $-1 -55.642567217017117 0 16.41414182087988 0 -1 0 I I #
point $-1 -55.642567217017117 38.457679495239361 16.41414182087988 #
point $-1 -55.642567217017117 -38.457679495239361 16.41414182087988 #
straight-curve $-1 55.642567217017117 -38.457679495239361 0 0 0 -1 I I #
straight-curve $-1 55.642567217017117 38.457679495239361 0 0 0 -1 I I #
plane-surface $-1 55.642567217017117 0 0 -1 0 0 0 0 1 forward_v I I I I #
coedge $-1 $323 $322 $333 $427 reversed $135 $-1 #
coedge $-1 $467 $326 $323 $418 forward $320 $-1 #
edge $-1 $419 18.697020416140518 $468 38.457679495239361 $323 $469 forward 7 unknown #
vertex $-1 $418 $470 #
straight-curve $-1 -55.642567217017117 -18.697020416140518 7.3314112342416582 0 0 -1 I I #
coedge $-1 $326 $467 $328 $423 forward $320 $-1 #
straight-curve $-1 0 -18.697020416140518 16.41414182087988 -1 0 0 I I #
edge $-1 $430 -38.457679495239361 $329 -18.697020416140518 $328 $471 forward 7 unknown #
point $-1 55.642567217017117 -18.697020416140518 16.414141820879877 #
straight-curve $-1 -55.642567217017117 -14.28867497784497 12.911503116086754 0 -1 0 I I #
coedge $-1 $333 $332 $467 $472 reversed $220 $-1 #
edge $-1 $468 -16.41414182087988 $334 -12.911503116086754 $416 $473 forward 7 unknown #
point $-1 -55.642567217017117 -38.457679495239361 12.911503116086754 #
point $-1 -55.642567217017117 -18.697020416140518 12.911503116086754 #
vertex $-1 $423 $474 #
straight-curve $-1 55.642567217017117 -38.457679495239361 0 0 0 -1 I I #
coedge $-1 $350 $349 $342 $433 forward $237 $-1 #
edge $-1 $440 -38.457679495239361 $435 -30.837071236360458 $342 $475 forward 7 unknown #
edge $-1 $440 -16.41414182087988 $347 -8.242039774156142 $346 $476 forward 7 unknown #
vertex $-1 $344 $477 #
straight-curve $-1 -55.642567217017117 5.341344516044142 43.754962059349594 0 -0.68199835119979291 0.73135370988377701 I I #
edge $-1 $435 -34.600848240395479 $351 -7.4825897128477976 $350 $478 forward 7 unknown #
point $-1 -55.642567217017117 38.457679495239361 8.242039774156142 #
point $-1 -28.524308689469436 30.837071236360458 16.414141820879877 #
vertex $-1 $354 $479 #
straight-curve $-1 0 38.457679495239361 16.41414182087988 -1 0 0 I I #
vertex $-1 $357 $480 #
point $-1 -48.718915511507582 30.494180425854577 8.4551739544433229 #
vertex $-1 $361 $481 #
point $-1 -40.583437953243276 30.494180425854577 8.4551739544433229 #
vertex $-1 $365 $482 #
point $-1 -32.447960394978971 30.494180425854577 8.4551739544433229 #
edge $-1 $449 -4.7625157927201158 $452 2.8580924661587872 $370 $483 forward 7 unknown #
vertex $-1 $374 $484 #
straight-curve $-1 1.7763568394002505e-015 38.457679495239361 70.195325557971969 0 0 1 I I #
edge $-1 $452 -6.7795646318869185 $381 20.338693895660761 $380 $485 forward 7 unknown #
vertex $-1 $451 $486 #
straight-curve $-1 1.7763568394002505e-015 -13.998468518207304 64.49437291888529 0 0.68199835119979291 -0.73135370988377701 I I #
point $-1 1.7763568394002505e-015 38.457679495239361 8.2420397741561473 #
point $-1 27.118258527547681 30.837071236360458 16.414141820879877 #
straight-curve $-1 0 38.457679495239361 16.41414182087988 -1 0 0 I I #
vertex $-1 $387 $487 #
point $-1 6.9236517055095348 30.494180425854577 8.4551739544433229 #
vertex $-1 $391 $488 #
point $-1 15.059129263773841 30.494180425854577 8.4551739544433229 #
vertex $-1 $395 $489 #
point $-1 23.194606822038153 30.494180425854577 8.4551739544433229 #
straight-curve $-1 -55.642567217017117 38.457679495239361 0 0 0 -1 I I #
point $-1 -55.642567217017117 -38.457679495239361 -16.41414182087988 #
straight-curve $-1 -55.642567217017117 0 -16.41414182087988 0 1 0 I I #
point $-1 -55.642567217017117 38.457679495239361 -16.41414182087988 #
coedge $-1 $421 $417 $426 $472 forward $320 $-1 #
vertex $-1 $418 $490 #
straight-curve $-1 -55.642567217017117 0 16.41414182087988 0 -1 0 I I #
point $-1 -55.642567217017117 -18.697020416140518 16.414141820879877 #
straight-curve $-1 55.642567217017117 0 16.41414182087988 0 1 0 I I #
edge $-1 $468 -55.642567217017117 $430 55.642567217017117 $426 $491 forward 7 unknown #
straight-curve $-1 -55.642567217017117 -38.457679495239361 0 0 0 -1 I I #
point $-1 55.642567217017117 -38.457679495239361 16.41414182087988 #
straight-curve $-1 -55.642567217017117 0 16.41414182087988 0 -1 0 I I #
straight-curve $-1 -55.642567217017117 38.457679495239361 0 0 0 -1 I I #
point $-1 -55.642567217017117 30.837071236360458 16.414141820879877 #
straight-curve $-1 -21.041718976621638 30.837071236360455 16.414141820879877 1 0 0 I I #
point $-1 -55.642567217017117 38.457679495239361 16.41414182087988 #
point $-1 -50.218915511507582 29.397149861028911 7.4321764276436344 #
point $-1 -42.083437953243276 29.397149861028911 7.4321764276436344 #
point $-1 -33.947960394978971 29.397149861028911 7.4321764276436344 #
straight-curve $-1 1.7763568394002505e-015 33.695163702519245 16.414141820879877 0 -1 0 I I #
point $-1 1.7763568394002505e-015 38.457679495239361 16.41414182087988 #
straight-curve $-1 6.7795646318869203 30.837071236360455 16.414141820879877 1 0 0 I I #
point $-1 1.7763568394002505e-015 30.837071236360458 16.414141820879877 #
point $-1 5.4236517055095348 29.397149861028911 7.4321764276436344 #
point $-1 13.559129263773841 29.397149861028911 7.4321764276436344 #
point $-1 21.694606822038153 29.397149861028911 7.4321764276436344 #
point $-1 -55.642567217017117 -38.457679495239361 16.41414182087988 #
straight-curve $-1 0 -38.457679495239361 16.41414182087988 1 0 0 I I #
End-of-ACIS-data 