500 0 14 0           
7 Unknown 11 ACIS 5.0 NT 24 Fri Mar 26 00:02:10 1999 
-1 9.9999999999999995e-007 1e-010 
body $-1 $14 $-1 $15 #
body $-1 $16 $-1 $17 #
body $-1 $18 $-1 $19 #
body $-1 $20 $-1 $21 #
body $-1 $22 $-1 $23 #
body $-1 $24 $-1 $25 #
body $-1 $26 $-1 $27 #
body $-1 $28 $-1 $29 #
body $-1 $30 $-1 $31 #
body $-1 $32 $-1 $33 #
body $-1 $34 $-1 $35 #
body $-1 $36 $-1 $37 #
body $-1 $38 $-1 $39 #
body $-1 $40 $-1 $41 #
lump $-1 $-1 $42 $0 #
transform $-1 1 0 0 0 1 0 0 0 1 44.455702383495591 20.17513114700068 4.9922166612714474 1 rotate no_reflect no_shear #
lump $-1 $-1 $43 $1 #
transform $-1 1 0 0 0 1 0 0 0 1 44.455702383495591 20.17513114700068 4.9922166612714474 1 rotate no_reflect no_shear #
lump $-1 $-1 $44 $2 #
transform $-1 1 0 0 0 1 0 0 0 1 44.455702383495591 20.17513114700068 4.9922166612714474 1 rotate no_reflect no_shear #
lump $-1 $-1 $45 $3 #
transform $-1 1 0 0 0 1 0 0 0 1 44.455702383495591 20.17513114700068 4.9922166612714474 1 rotate no_reflect no_shear #
lump $-1 $-1 $46 $4 #
transform $-1 1 0 0 0 1 0 0 0 1 44.455702383495591 20.17513114700068 4.9922166612714474 1 rotate no_reflect no_shear #
lump $-1 $-1 $47 $5 #
transform $-1 1 0 0 0 1 0 0 0 1 44.455702383495591 20.17513114700068 4.9922166612714474 1 rotate no_reflect no_shear #
lump $-1 $-1 $48 $6 #
transform $-1 1 0 0 0 1 0 0 0 1 44.455702383495591 20.17513114700068 4.9922166612714474 1 rotate no_reflect no_shear #
lump $-1 $-1 $49 $7 #
transform $-1 1 0 0 0 1 0 0 0 1 44.455702383495591 20.17513114700068 4.9922166612714474 1 rotate no_reflect no_shear #
lump $-1 $-1 $50 $8 #
transform $-1 1 0 0 0 1 0 0 0 1 44.455702383495591 20.17513114700068 4.9922166612714474 1 rotate no_reflect no_shear #
lump $-1 $-1 $51 $9 #
transform $-1 1 0 0 0 1 0 0 0 1 44.455702383495591 20.17513114700068 4.9922166612714474 1 rotate no_reflect no_shear #
lump $-1 $-1 $52 $10 #
transform $-1 1 0 0 0 1 0 0 0 1 44.455702383495591 20.17513114700068 4.9922166612714474 1 rotate no_reflect no_shear #
lump $-1 $-1 $53 $11 #
transform $-1 1 0 0 0 1 0 0 0 1 44.455702383495591 20.17513114700068 4.9922166612714474 1 rotate no_reflect no_shear #
lump $-1 $-1 $54 $12 #
transform $-1 1 0 0 0 1 0 0 0 1 44.455702383495591 20.17513114700068 4.9922166612714474 1 rotate no_reflect no_shear #
lump $-1 $-1 $55 $13 #
transform $-1 1 0 0 0 1 0 0 0 1 44.455702383495591 20.17513114700068 4.9922166612714474 1 rotate no_reflect no_shear #
shell $-1 $-1 $-1 $56 $-1 $14 #
shell $-1 $-1 $-1 $57 $-1 $16 #
shell $-1 $-1 $-1 $58 $-1 $18 #
shell $-1 $-1 $-1 $59 $-1 $20 #
shell $-1 $-1 $-1 $60 $-1 $22 #
shell $-1 $-1 $-1 $61 $-1 $24 #
shell $-1 $-1 $-1 $62 $-1 $26 #
shell $-1 $-1 $-1 $63 $-1 $28 #
shell $-1 $-1 $-1 $64 $-1 $30 #
shell $-1 $-1 $-1 $65 $-1 $32 #
shell $-1 $-1 $-1 $66 $-1 $34 #
shell $-1 $-1 $-1 $67 $-1 $36 #
shell $-1 $-1 $-1 $68 $-1 $38 #
shell $-1 $-1 $-1 $69 $-1 $40 #
face $-1 $70 $71 $42 $-1 $72 reversed single #
face $-1 $73 $74 $43 $-1 $75 forward single #
face $-1 $76 $77 $44 $-1 $78 reversed single #
face $-1 $79 $80 $45 $-1 $81 forward single #
face $-1 $82 $83 $46 $-1 $84 forward single #
face $-1 $85 $86 $47 $-1 $87 reversed single #
face $-1 $88 $89 $48 $-1 $90 forward single #
face $-1 $91 $92 $49 $-1 $93 forward single #
face $-1 $94 $95 $50 $-1 $96 reversed single #
face $-1 $97 $98 $51 $-1 $99 forward single #
face $-1 $100 $101 $52 $-1 $102 forward single #
face $-1 $103 $104 $53 $-1 $105 reversed single #
face $-1 $106 $107 $54 $-1 $108 forward single #
face $-1 $109 $110 $55 $-1 $111 forward single #
face $-1 $112 $113 $42 $-1 $114 forward single #
loop $-1 $-1 $115 $56 #
plane-surface $-1 0 -20.17513114700068 0 0 1 0 0 0 1 forward_v I I I I #
face $-1 $116 $117 $43 $-1 $118 reversed single #
loop $-1 $-1 $119 $57 #
plane-surface $-1 0 -20.17513114700068 0 0 1 0 0 0 1 forward_v I I I I #
face $-1 $120 $121 $44 $-1 $122 reversed single #
loop $-1 $-1 $123 $58 #
plane-surface $-1 -119.02308142792918 -12.288365006960781 49.042404145564618 0 1 0 -0.83867057594974714 0 0.54463902268945019 forward_v I I I I #
face $-1 $124 $125 $45 $-1 $126 forward single #
loop $-1 $127 $128 $59 #
cone-surface $-1 -42.615972101155712 -10.385830135968073 2.5326805929532061 0.83867057594974714 0 -0.54463902268945019 0.2723195113447251 0 0.41933528797487357 1 I I 0 1 0.5 forward I I I I #
face $-1 $129 $130 $46 $-1 $131 forward single #
loop $-1 $132 $133 $60 #
cone-surface $-1 -42.615972101155712 -7.5320278294790111 2.5326805929532061 0.83867057594974714 0 -0.54463902268945019 0.2723195113447251 0 0.41933528797487357 1 I I 0 1 0.5 forward I I I I #
face $-1 $134 $135 $47 $-1 $136 reversed single #
loop $-1 $-1 $137 $61 #
plane-surface $-1 -119.02308142792918 5.393019312082167 49.042404145564618 0 1 0 -0.83867057594974714 0 0.54463902268945019 forward_v I I I I #
face $-1 $138 $139 $48 $-1 $140 forward single #
loop $-1 $141 $142 $62 #
cone-surface $-1 -42.615972101155712 7.2955541830748736 2.5326805929532061 0.83867057594974714 0 -0.54463902268945019 0.2723195113447251 0 0.41933528797487357 1 I I 0 1 0.5 forward I I I I #
face $-1 $143 $144 $49 $-1 $145 forward single #
loop $-1 $146 $147 $63 #
cone-surface $-1 -42.615972101155712 10.149356489563939 2.5326805929532061 0.83867057594974714 0 -0.54463902268945019 0.2723195113447251 0 0.41933528797487357 1 I I 0 1 0.5 forward I I I I #
face $-1 $148 $149 $50 $-1 $150 reversed single #
loop $-1 $-1 $151 $64 #
plane-surface $-1 70.598460829688975 -5.6294929584863027 123.60978318999821 0 -1 0 -0.83867057594974714 0 -0.54463902268945019 forward_v I I I I #
face $-1 $152 $153 $51 $-1 $154 forward single #
loop $-1 $155 $156 $65 #
cone-surface $-1 42.615972101155698 -10.385830135968073 2.5326805929531955 -0.83867057594974714 0 -0.54463902268945019 0.2723195113447251 0 -0.41933528797487357 1 I I 0 1 0.5 forward I I I I #
face $-1 $157 $158 $52 $-1 $159 forward single #
loop $-1 $160 $161 $66 #
cone-surface $-1 42.615972101155698 -7.5320278294790111 2.5326805929531955 -0.83867057594974714 0 -0.54463902268945019 0.2723195113447251 0 -0.41933528797487357 1 I I 0 1 0.5 forward I I I I #
face $-1 $162 $163 $53 $-1 $164 reversed single #
loop $-1 $-1 $165 $67 #
plane-surface $-1 70.598460829688975 12.051891360556645 123.60978318999821 0 -1 0 -0.83867057594974714 0 -0.54463902268945019 forward_v I I I I #
face $-1 $166 $167 $54 $-1 $168 forward single #
loop $-1 $169 $170 $68 #
cone-surface $-1 42.615972101155698 7.2955541830748736 2.5326805929531955 -0.83867057594974714 0 -0.54463902268945019 0.2723195113447251 0 -0.41933528797487357 1 I I 0 1 0.5 forward I I I I #
face $-1 $171 $172 $55 $-1 $173 forward single #
loop $-1 $174 $175 $69 #
cone-surface $-1 42.615972101155698 10.149356489563939 2.5326805929531955 -0.83867057594974714 0 -0.54463902268945019 0.2723195113447251 0 -0.41933528797487357 1 I I 0 1 0.5 forward I I I I #
face $-1 $176 $177 $42 $-1 $178 reversed single #
loop $-1 $-1 $179 $70 #
plane-surface $-1 0 0 4.9922166612714474 0 0 1 1 0 0 forward_v I I I I #
coedge $-1 $180 $181 $182 $183 reversed $71 $-1 #
face $-1 $184 $185 $43 $-1 $186 reversed single #
loop $-1 $-1 $187 $73 #
plane-surface $-1 0 0 -4.9922166612714474 0 0 1 1 0 0 forward_v I I I I #
coedge $-1 $188 $189 $190 $191 forward $74 $-1 #
face $-1 $192 $193 $44 $-1 $194 reversed single #
loop $-1 $-1 $195 $76 #
plane-surface $-1 -44.455702383495591 -8.9589289827235419 0.61778354732441443 -0.83867057594974714 0 0.54463902268945019 0.54463902268945019 0 0.83867057594974714 forward_v I I I I #
coedge $-1 $196 $197 $198 $199 reversed $77 $-1 #
face $-1 $-1 $200 $45 $-1 $201 forward single #
loop $-1 $202 $203 $79 #
cone-surface $-1 -41.986969169193401 -10.385830135968073 2.1242013259361183 0.83867057594974714 0 -0.54463902268945019 0.13615975567236255 0 0.20966764398743679 1 I I -0.70710678118654746 0.70710678118654746 0.25 forward I I I I #
loop $-1 $-1 $204 $59 #
coedge $-1 $128 $128 $205 $206 reversed $80 $-1 #
face $-1 $-1 $207 $46 $-1 $208 forward single #
loop $-1 $209 $210 $82 #
cone-surface $-1 -41.986969169193401 -7.5320278294790111 2.1242013259361183 0.83867057594974714 0 -0.54463902268945019 0.13615975567236255 0 0.20966764398743679 1 I I -0.70710678118654746 0.70710678118654746 0.25 forward I I I I #
loop $-1 $-1 $211 $60 #
coedge $-1 $133 $133 $212 $213 reversed $83 $-1 #
face $-1 $214 $215 $47 $-1 $216 reversed single #
loop $-1 $-1 $217 $85 #
plane-surface $-1 -44.455702383495591 8.7224553363194062 0.61778354732441443 -0.83867057594974714 0 0.54463902268945019 0.54463902268945019 0 0.83867057594974714 forward_v I I I I #
coedge $-1 $218 $219 $220 $221 reversed $86 $-1 #
face $-1 $-1 $222 $48 $-1 $223 forward single #
loop $-1 $224 $225 $88 #
cone-surface $-1 -41.986969169193401 7.2955541830748736 2.1242013259361183 0.83867057594974714 0 -0.54463902268945019 0.13615975567236255 0 0.20966764398743679 1 I I -0.70710678118654746 0.70710678118654746 0.25 forward I I I I #
loop $-1 $-1 $226 $62 #
coedge $-1 $142 $142 $227 $228 reversed $89 $-1 #
face $-1 $-1 $229 $49 $-1 $230 forward single #
loop $-1 $231 $232 $91 #
cone-surface $-1 -41.986969169193401 10.149356489563939 2.1242013259361183 0.83867057594974714 0 -0.54463902268945019 0.13615975567236255 0 0.20966764398743679 1 I I -0.70710678118654746 0.70710678118654746 0.25 forward I I I I #
loop $-1 $-1 $233 $63 #
coedge $-1 $147 $147 $234 $235 reversed $92 $-1 #
face $-1 $236 $237 $50 $-1 $238 reversed single #
loop $-1 $-1 $239 $94 #
plane-surface $-1 -3.9689182147446189 -8.9589289827235419 75.185162591758001 0.83867057594974714 0 0.54463902268945019 0.54463902268945019 0 -0.83867057594974714 forward_v I I I I #
coedge $-1 $240 $241 $242 $243 reversed $95 $-1 #
face $-1 $-1 $244 $51 $-1 $245 forward single #
loop $-1 $246 $247 $97 #
cone-surface $-1 41.986969169193387 -10.385830135968073 2.1242013259361077 -0.83867057594974714 0 -0.54463902268945019 0.13615975567236255 0 -0.20966764398743679 1 I I -0.70710678118654746 0.70710678118654746 0.25 forward I I I I #
loop $-1 $-1 $248 $65 #
coedge $-1 $156 $156 $249 $250 reversed $98 $-1 #
face $-1 $-1 $251 $52 $-1 $252 forward single #
loop $-1 $253 $254 $100 #
cone-surface $-1 41.986969169193387 -7.5320278294790111 2.1242013259361077 -0.83867057594974714 0 -0.54463902268945019 0.13615975567236255 0 -0.20966764398743679 1 I I -0.70710678118654746 0.70710678118654746 0.25 forward I I I I #
loop $-1 $-1 $255 $66 #
coedge $-1 $161 $161 $256 $257 reversed $101 $-1 #
face $-1 $258 $259 $53 $-1 $260 reversed single #
loop $-1 $-1 $261 $103 #
plane-surface $-1 -3.9689182147446189 8.7224553363194062 75.185162591758001 0.83867057594974714 0 0.54463902268945019 0.54463902268945019 0 -0.83867057594974714 forward_v I I I I #
coedge $-1 $262 $263 $264 $265 reversed $104 $-1 #
face $-1 $-1 $266 $54 $-1 $267 forward single #
loop $-1 $268 $269 $106 #
cone-surface $-1 41.986969169193387 7.2955541830748736 2.1242013259361077 -0.83867057594974714 0 -0.54463902268945019 0.13615975567236255 0 -0.20966764398743679 1 I I -0.70710678118654746 0.70710678118654746 0.25 forward I I I I #
loop $-1 $-1 $270 $68 #
coedge $-1 $170 $170 $271 $272 reversed $107 $-1 #
face $-1 $-1 $273 $55 $-1 $274 forward single #
loop $-1 $275 $276 $109 #
cone-surface $-1 41.986969169193387 10.149356489563939 2.1242013259361077 -0.83867057594974714 0 -0.54463902268945019 0.13615975567236255 0 -0.20966764398743679 1 I I -0.70710678118654746 0.70710678118654746 0.25 forward I I I I #
loop $-1 $-1 $277 $69 #
coedge $-1 $175 $175 $278 $279 reversed $110 $-1 #
face $-1 $280 $281 $42 $-1 $282 reversed single #
loop $-1 $-1 $283 $112 #
plane-surface $-1 0 0 -4.9922166612714474 0 0 1 1 0 0 forward_v I I I I #
coedge $-1 $284 $285 $286 $287 forward $113 $-1 #
coedge $-1 $288 $115 $289 $290 reversed $71 $-1 #
coedge $-1 $115 $288 $291 $292 forward $71 $-1 #
coedge $-1 $293 $283 $115 $183 forward $177 $-1 #
edge $-1 $294 -44.455702383495591 $295 44.455702383495591 $115 $296 forward 7 unknown #
face $-1 $297 $298 $43 $-1 $299 reversed single #
loop $-1 $-1 $300 $116 #
plane-surface $-1 -35.971269060952693 -25.162624802916145 0 0 1 0 0 0 1 forward_v I I I I #
coedge $-1 $301 $302 $189 $303 forward $117 $-1 #
coedge $-1 $304 $119 $305 $306 reversed $74 $-1 #
coedge $-1 $119 $304 $187 $303 reversed $74 $-1 #
coedge $-1 $307 $308 $119 $191 reversed $298 $-1 #
edge $-1 $309 -4.9922166612714474 $310 4.9922166612714474 $190 $311 forward 7 unknown #
face $-1 $312 $313 $44 $-1 $314 reversed single #
loop $-1 $-1 $315 $120 #
plane-surface $-1 -119.02308142792918 -5.6294929584863027 49.042404145564618 0 -1 0 0.83867057594974714 0 -0.54463902268945019 forward_v I I I I #
coedge $-1 $316 $317 $318 $319 reversed $121 $-1 #
coedge $-1 $197 $123 $320 $321 reversed $77 $-1 #
coedge $-1 $123 $196 $316 $322 reversed $77 $-1 #
coedge $-1 $318 $323 $123 $199 forward $324 $-1 #
edge $-1 $325 15.055838330469001 $326 17.896628319199017 $198 $327 forward 7 unknown #
loop $-1 $-1 $205 $124 #
plane-surface $-1 -44.455702383495591 -8.9589289827235419 0.61778354732441443 -0.83867057594974714 0 0.54463902268945019 0.54463902268945019 0 0.83867057594974714 forward_v I I I I #
loop $-1 $-1 $328 $79 #
coedge $-1 $203 $203 $204 $329 reversed $125 $-1 #
coedge $-1 $204 $204 $203 $329 forward $127 $-1 #
coedge $-1 $205 $205 $128 $206 forward $200 $-1 #
edge $-1 $330 0 $330 6.2831853071796004 $205 $331 forward 7 unknown #
loop $-1 $-1 $212 $129 #
plane-surface $-1 -44.455702383495591 -8.9589289827235419 0.61778354732441443 -0.83867057594974714 0 0.54463902268945019 0.54463902268945019 0 0.83867057594974714 forward_v I I I I #
loop $-1 $-1 $332 $82 #
coedge $-1 $210 $210 $211 $333 reversed $130 $-1 #
coedge $-1 $211 $211 $210 $333 forward $132 $-1 #
coedge $-1 $212 $212 $133 $213 forward $207 $-1 #
edge $-1 $334 0 $334 6.2831853071796004 $212 $335 forward 7 unknown #
face $-1 $336 $337 $47 $-1 $338 forward single #
loop $-1 $-1 $339 $134 #
plane-surface $-1 -119.02308142792918 12.051891360556645 49.042404145564618 0 -1 0 0.83867057594974714 0 -0.54463902268945019 forward_v I I I I #
coedge $-1 $340 $341 $342 $343 reversed $135 $-1 #
coedge $-1 $219 $137 $344 $345 reversed $86 $-1 #
coedge $-1 $137 $218 $340 $346 reversed $86 $-1 #
coedge $-1 $342 $347 $137 $221 forward $337 $-1 #
edge $-1 $348 15.055838330469001 $349 17.896628319199017 $220 $350 forward 7 unknown #
loop $-1 $-1 $227 $138 #
plane-surface $-1 -44.455702383495591 8.7224553363194062 0.61778354732441443 -0.83867057594974714 0 0.54463902268945019 0.54463902268945019 0 0.83867057594974714 forward_v I I I I #
loop $-1 $-1 $351 $88 #
coedge $-1 $225 $225 $226 $352 reversed $139 $-1 #
coedge $-1 $226 $226 $225 $352 forward $141 $-1 #
coedge $-1 $227 $227 $142 $228 forward $222 $-1 #
edge $-1 $353 0 $353 6.2831853071796004 $227 $354 forward 7 unknown #
loop $-1 $-1 $234 $143 #
plane-surface $-1 -44.455702383495591 8.7224553363194062 0.61778354732441443 -0.83867057594974714 0 0.54463902268945019 0.54463902268945019 0 0.83867057594974714 forward_v I I I I #
loop $-1 $-1 $355 $91 #
coedge $-1 $232 $232 $233 $356 reversed $144 $-1 #
coedge $-1 $233 $233 $232 $356 forward $146 $-1 #
coedge $-1 $234 $234 $147 $235 forward $229 $-1 #
edge $-1 $357 0 $357 6.2831853071796004 $234 $358 forward 7 unknown #
face $-1 $359 $360 $50 $-1 $361 forward single #
loop $-1 $-1 $362 $148 #
plane-surface $-1 70.598460829688975 -12.288365006960781 123.60978318999821 0 1 0 0.83867057594974714 0 0.54463902268945019 forward_v I I I I #
coedge $-1 $363 $364 $365 $366 reversed $149 $-1 #
coedge $-1 $241 $151 $367 $368 reversed $95 $-1 #
coedge $-1 $151 $240 $363 $369 reversed $95 $-1 #
coedge $-1 $365 $370 $151 $243 forward $360 $-1 #
edge $-1 $371 -9.156471968651104 $372 -6.3156819799210737 $242 $373 forward 7 unknown #
loop $-1 $-1 $249 $152 #
plane-surface $-1 -3.9689182147446189 -8.9589289827235419 75.185162591758001 0.83867057594974714 0 0.54463902268945019 0.54463902268945019 0 -0.83867057594974714 forward_v I I I I #
loop $-1 $-1 $374 $97 #
coedge $-1 $247 $247 $248 $375 reversed $153 $-1 #
coedge $-1 $248 $248 $247 $375 forward $155 $-1 #
coedge $-1 $249 $249 $156 $250 forward $244 $-1 #
edge $-1 $376 0 $376 6.2831853071796004 $249 $377 forward 7 unknown #
loop $-1 $-1 $256 $157 #
plane-surface $-1 -3.9689182147446189 -8.9589289827235419 75.185162591758001 0.83867057594974714 0 0.54463902268945019 0.54463902268945019 0 -0.83867057594974714 forward_v I I I I #
loop $-1 $-1 $378 $100 #
coedge $-1 $254 $254 $255 $379 reversed $158 $-1 #
coedge $-1 $255 $255 $254 $379 forward $160 $-1 #
coedge $-1 $256 $256 $161 $257 forward $251 $-1 #
edge $-1 $380 0 $380 6.2831853071796004 $256 $381 forward 7 unknown #
face $-1 $382 $383 $53 $-1 $384 reversed single #
loop $-1 $-1 $385 $162 #
plane-surface $-1 70.598460829688975 5.393019312082167 123.60978318999821 0 1 0 0.83867057594974714 0 0.54463902268945019 forward_v I I I I #
coedge $-1 $386 $387 $388 $389 reversed $163 $-1 #
coedge $-1 $263 $165 $390 $391 reversed $104 $-1 #
coedge $-1 $165 $262 $386 $392 reversed $104 $-1 #
coedge $-1 $388 $393 $165 $265 forward $394 $-1 #
edge $-1 $395 -9.156471968651104 $396 -6.3156819799210737 $264 $397 forward 7 unknown #
loop $-1 $-1 $271 $166 #
plane-surface $-1 -3.9689182147446189 8.7224553363194062 75.185162591758001 0.83867057594974714 0 0.54463902268945019 0.54463902268945019 0 -0.83867057594974714 forward_v I I I I #
loop $-1 $-1 $398 $106 #
coedge $-1 $269 $269 $270 $399 reversed $167 $-1 #
coedge $-1 $270 $270 $269 $399 forward $169 $-1 #
coedge $-1 $271 $271 $170 $272 forward $266 $-1 #
edge $-1 $400 0 $400 6.2831853071796004 $271 $401 forward 7 unknown #
loop $-1 $-1 $278 $171 #
plane-surface $-1 -3.9689182147446189 8.7224553363194062 75.185162591758001 0.83867057594974714 0 0.54463902268945019 0.54463902268945019 0 -0.83867057594974714 forward_v I I I I #
loop $-1 $-1 $402 $109 #
coedge $-1 $276 $276 $277 $403 reversed $172 $-1 #
coedge $-1 $277 $277 $276 $403 forward $174 $-1 #
coedge $-1 $278 $278 $175 $279 forward $273 $-1 #
edge $-1 $404 0 $404 6.2831853071796004 $278 $405 forward 7 unknown #
face $-1 $406 $407 $42 $-1 $408 reversed single #
loop $-1 $-1 $409 $176 #
plane-surface $-1 -44.455702383495591 0 0 1 0 0 0 0 -1 forward_v I I I I #
coedge $-1 $182 $410 $411 $412 forward $177 $-1 #
coedge $-1 $413 $179 $414 $415 forward $113 $-1 #
coedge $-1 $179 $413 $288 $416 forward $113 $-1 #
coedge $-1 $289 $417 $179 $287 reversed $418 $-1 #
edge $-1 $419 -20.17513114700068 $420 20.17513114700068 $286 $421 forward 7 unknown #
coedge $-1 $181 $180 $285 $416 reversed $71 $-1 #
coedge $-1 $411 $286 $180 $290 forward $418 $-1 #
edge $-1 $419 -4.9922166612714474 $294 4.9922166612714474 $289 $422 forward 7 unknown #
coedge $-1 $423 $424 $181 $292 reversed $281 $-1 #
edge $-1 $425 -4.9922166612714474 $295 4.9922166612714474 $291 $426 forward 7 unknown #
coedge $-1 $410 $182 $424 $427 forward $177 $-1 #
vertex $-1 $290 $428 #
vertex $-1 $427 $429 #
straight-curve $-1 0 -20.17513114700068 -4.9922166612714474 -1 0 0 I I #
face $-1 $430 $431 $43 $-1 $432 reversed single #
loop $-1 $-1 $190 $184 #
plane-surface $-1 -37.471269060952693 -22.668877974958413 0 1 0 0 0 0 -1 forward_v I I I I #
coedge $-1 $433 $434 $435 $436 forward $185 $-1 #
coedge $-1 $437 $187 $438 $439 forward $117 $-1 #
coedge $-1 $187 $437 $307 $440 forward $117 $-1 #
edge $-1 $309 -37.471269060952693 $441 -34.471269060952693 $187 $442 forward 7 unknown #
coedge $-1 $189 $188 $443 $444 forward $74 $-1 #
coedge $-1 $445 $446 $188 $306 forward $447 $-1 #
edge $-1 $448 34.471269060952693 $310 37.471269060952693 $305 $449 forward 7 unknown #
coedge $-1 $435 $190 $302 $440 reversed $298 $-1 #
coedge $-1 $190 $435 $445 $450 reversed $298 $-1 #
vertex $-1 $303 $451 #
vertex $-1 $450 $452 #
straight-curve $-1 -37.471269060952693 -20.17513114700068 0 0 0 1 I I #
face $-1 $-1 $324 $44 $-1 $453 forward single #
loop $-1 $-1 $454 $192 #
plane-surface $-1 -44.455702383495591 0 0 1 0 0 0 0 -1 forward_v I I I I #
coedge $-1 $455 $456 $457 $458 reversed $193 $-1 #
coedge $-1 $459 $195 $197 $322 forward $121 $-1 #
coedge $-1 $195 $459 $455 $460 forward $121 $-1 #
coedge $-1 $457 $198 $195 $319 forward $324 $-1 #
edge $-1 $326 -7.8089005155990101 $461 -1.1500284671245318 $318 $462 forward 7 unknown #
coedge $-1 $463 $464 $196 $321 forward $313 $-1 #
edge $-1 $465 -23.903418525457894 $325 -19.52898541151086 $320 $466 forward 7 unknown #
edge $-1 $326 -5.2159134222554941 $465 0 $197 $467 forward 7 unknown #
coedge $-1 $198 $457 $463 $468 forward $324 $-1 #
loop $-1 $-1 $457 $312 #
vertex $-1 $321 $469 #
vertex $-1 $199 $470 #
straight-curve $-1 -59.511540713964592 -12.288365006960781 4.9922166612714456 1 0 0 I I #
coedge $-1 $328 $328 $-1 $471 reversed $202 $-1 #
edge $-1 $472 0 $472 6.2831853071796004 $203 $473 forward 7 unknown #
vertex $-1 $206 $474 #
ellipse-curve $-1 -43.03530738913058 -10.385830135968073 2.8050001042979291 -0.83867057594974714 0 0.54463902268945019 0.2723195113447251 0 0.41933528797487357 1 I I #
coedge $-1 $332 $332 $-1 $475 reversed $209 $-1 #
edge $-1 $476 0 $476 6.2831853071796004 $210 $477 forward 7 unknown #
vertex $-1 $213 $478 #
ellipse-curve $-1 -43.03530738913058 -7.5320278294790111 2.8050001042979291 -0.83867057594974714 0 0.54463902268945019 0.2723195113447251 0 0.41933528797487357 1 I I #
face $-1 $-1 $479 $47 $-1 $480 reversed single #
loop $-1 $-1 $220 $214 #
plane-surface $-1 0 0 4.9922166612714474 0 0 1 1 0 0 forward_v I I I I #
coedge $-1 $481 $482 $483 $484 reversed $215 $-1 #
coedge $-1 $485 $217 $219 $346 forward $135 $-1 #
coedge $-1 $217 $485 $481 $486 forward $135 $-1 #
coedge $-1 $483 $220 $217 $343 forward $337 $-1 #
edge $-1 $349 1.0317916439224639 $487 7.6906636923969423 $342 $488 forward 7 unknown #
coedge $-1 $489 $490 $218 $345 forward $479 $-1 #
edge $-1 $491 -23.903418525457894 $348 -19.52898541151086 $344 $492 forward 7 unknown #
edge $-1 $349 -5.2159134222554941 $491 0 $219 $493 forward 7 unknown #
coedge $-1 $220 $483 $489 $494 forward $337 $-1 #
vertex $-1 $221 $495 #
vertex $-1 $221 $496 #
straight-curve $-1 -59.511540713964592 5.393019312082167 4.9922166612714456 1 0 0 I I #
coedge $-1 $351 $351 $-1 $497 reversed $224 $-1 #
edge $-1 $498 0 $498 6.2831853071796004 $225 $499 forward 7 unknown #
vertex $-1 $228 $500 #
ellipse-curve $-1 -43.03530738913058 7.2955541830748736 2.8050001042979291 -0.83867057594974714 0 0.54463902268945019 0.2723195113447251 0 0.41933528797487357 1 I I #
coedge $-1 $355 $355 $-1 $501 reversed $231 $-1 #
edge $-1 $502 0 $502 6.2831853071796004 $232 $503 forward 7 unknown #
vertex $-1 $235 $504 #
ellipse-curve $-1 -43.03530738913058 10.149356489563939 2.8050001042979291 -0.83867057594974714 0 0.54463902268945019 0.2723195113447251 0 0.41933528797487357 1 I I #
face $-1 $-1 $505 $50 $-1 $506 reversed single #
loop $-1 $-1 $242 $236 #
plane-surface $-1 0 0 4.9922166612714474 0 0 1 1 0 0 forward_v I I I I #
coedge $-1 $507 $508 $509 $510 reversed $237 $-1 #
coedge $-1 $511 $239 $241 $369 forward $149 $-1 #
coedge $-1 $239 $511 $507 $512 forward $149 $-1 #
coedge $-1 $509 $242 $239 $366 forward $360 $-1 #
edge $-1 $372 1.1500284671245318 $513 7.8089005155990101 $365 $514 forward 7 unknown #
coedge $-1 $515 $516 $240 $368 forward $505 $-1 #
edge $-1 $517 -61.187108047674712 $371 -56.812674933727656 $367 $518 forward 7 unknown #
edge $-1 $372 83.695491344735686 $517 88.911404766991211 $241 $519 forward 7 unknown #
coedge $-1 $242 $509 $515 $520 forward $360 $-1 #
vertex $-1 $243 $521 #
vertex $-1 $243 $522 #
straight-curve $-1 35.299230414844487 -5.6294929584863027 4.9922166612714491 -1 0 0 I I #
coedge $-1 $374 $374 $-1 $523 reversed $246 $-1 #
edge $-1 $524 0 $524 6.2831853071796004 $247 $525 forward 7 unknown #
vertex $-1 $250 $526 #
ellipse-curve $-1 43.035307389130573 -10.385830135968073 2.8050001042979207 0.83867057594974714 0 0.54463902268945019 0.2723195113447251 0 -0.41933528797487357 1 I I #
coedge $-1 $378 $378 $-1 $527 reversed $253 $-1 #
edge $-1 $528 0 $528 6.2831853071796004 $254 $529 forward 7 unknown #
vertex $-1 $257 $530 #
ellipse-curve $-1 43.035307389130573 -7.5320278294790111 2.8050001042979207 0.83867057594974714 0 0.54463902268945019 0.2723195113447251 0 -0.41933528797487357 1 I I #
face $-1 $-1 $394 $53 $-1 $531 forward single #
loop $-1 $-1 $532 $258 #
plane-surface $-1 44.455702383495591 0 0 -1 0 0 0 0 1 forward_v I I I I #
coedge $-1 $533 $534 $535 $536 reversed $259 $-1 #
coedge $-1 $537 $261 $263 $392 forward $163 $-1 #
coedge $-1 $261 $537 $533 $538 forward $163 $-1 #
coedge $-1 $535 $264 $261 $389 forward $394 $-1 #
edge $-1 $396 -7.6906636923969423 $539 -1.0317916439224639 $388 $540 forward 7 unknown #
coedge $-1 $541 $542 $262 $391 forward $383 $-1 #
edge $-1 $543 -61.187108047674712 $395 -56.812674933727656 $390 $544 forward 7 unknown #
edge $-1 $396 83.695491344735686 $543 88.911404766991211 $263 $545 forward 7 unknown #
coedge $-1 $264 $535 $541 $546 forward $394 $-1 #
loop $-1 $-1 $535 $382 #
vertex $-1 $391 $547 #
vertex $-1 $265 $548 #
straight-curve $-1 35.299230414844487 12.051891360556645 4.9922166612714491 -1 0 0 I I #
coedge $-1 $398 $398 $-1 $549 reversed $268 $-1 #
edge $-1 $550 0 $550 6.2831853071796004 $269 $551 forward 7 unknown #
vertex $-1 $272 $552 #
ellipse-curve $-1 43.035307389130573 7.2955541830748736 2.8050001042979207 0.83867057594974714 0 0.54463902268945019 0.2723195113447251 0 -0.41933528797487357 1 I I #
coedge $-1 $402 $402 $-1 $553 reversed $275 $-1 #
edge $-1 $554 0 $554 6.2831853071796004 $276 $555 forward 7 unknown #
vertex $-1 $279 $556 #
ellipse-curve $-1 43.035307389130573 10.149356489563939 2.8050001042979207 0.83867057594974714 0 0.54463902268945019 0.2723195113447251 0 -0.41933528797487357 1 I I #
face $-1 $-1 $418 $42 $-1 $557 reversed single #
loop $-1 $-1 $558 $280 #
plane-surface $-1 0 20.17513114700068 0 0 -1 0 0 0 -1 forward_v I I I I #
coedge $-1 $424 $423 $559 $560 forward $281 $-1 #
coedge $-1 $283 $293 $561 $562 forward $177 $-1 #
coedge $-1 $417 $289 $283 $412 reversed $418 $-1 #
edge $-1 $563 -20.17513114700068 $294 20.17513114700068 $411 $564 forward 7 unknown #
coedge $-1 $285 $284 $423 $565 forward $113 $-1 #
coedge $-1 $558 $559 $284 $415 reversed $407 $-1 #
edge $-1 $420 -44.455702383495591 $566 44.455702383495591 $414 $567 forward 7 unknown #
edge $-1 $425 -44.455702383495591 $419 44.455702383495591 $288 $568 forward 7 unknown #
coedge $-1 $286 $411 $558 $569 reversed $418 $-1 #
loop $-1 $-1 $289 $406 #
vertex $-1 $287 $570 #
vertex $-1 $287 $571 #
straight-curve $-1 44.455702383495591 0 4.9922166612714474 0 1 0 I I #
straight-curve $-1 44.455702383495591 -20.17513114700068 0 0 0 -1 I I #
coedge $-1 $409 $291 $413 $565 reversed $281 $-1 #
coedge $-1 $291 $409 $293 $427 reversed $281 $-1 #
vertex $-1 $565 $572 #
straight-curve $-1 -44.455702383495591 -20.17513114700068 0 0 0 -1 I I #
edge $-1 $295 -20.17513114700068 $573 20.17513114700068 $424 $574 forward 7 unknown #
point $-1 44.455702383495591 -20.17513114700068 -4.9922166612714474 #
point $-1 -44.455702383495591 -20.17513114700068 -4.9922166612714474 #
face $-1 $-1 $447 $43 $-1 $575 forward single #
loop $-1 $-1 $576 $297 #
plane-surface $-1 -34.471269060952693 -22.668877974958413 0 -1 0 0 0 0 1 forward_v I I I I #
coedge $-1 $577 $300 $437 $578 reversed $185 $-1 #
coedge $-1 $300 $577 $579 $580 reversed $185 $-1 #
coedge $-1 $308 $307 $300 $436 reversed $298 $-1 #
edge $-1 $581 -4.9922166612714474 $582 4.9922166612714474 $435 $583 forward 7 unknown #
coedge $-1 $302 $301 $433 $578 forward $117 $-1 #
coedge $-1 $443 $576 $301 $439 reversed $431 $-1 #
edge $-1 $441 -2.4937468279577324 $584 2.4937468279577324 $438 $585 forward 7 unknown #
edge $-1 $582 -2.4937468279577324 $309 2.4937468279577324 $307 $586 forward 7 unknown #
vertex $-1 $439 $587 #
straight-curve $-1 0 -20.17513114700068 -4.9922166612714474 1 0 0 I I #
coedge $-1 $588 $438 $304 $444 reversed $431 $-1 #
edge $-1 $448 -4.9922166612714474 $441 4.9922166612714474 $443 $589 forward 7 unknown #
coedge $-1 $579 $305 $308 $450 forward $447 $-1 #
coedge $-1 $305 $579 $588 $590 forward $447 $-1 #
loop $-1 $-1 $305 $430 #
vertex $-1 $306 $591 #
straight-curve $-1 0 -20.17513114700068 4.9922166612714474 -1 0 0 I I #
edge $-1 $310 -2.4937468279577324 $581 2.4937468279577324 $308 $592 forward 7 unknown #
point $-1 -37.471269060952693 -20.17513114700068 -4.9922166612714474 #
point $-1 -37.471269060952693 -20.17513114700068 4.9922166612714474 #
plane-surface $-1 0 0 4.9922166612714474 0 0 1 1 0 0 forward_v I I I I #
coedge $-1 $464 $463 $456 $593 forward $313 $-1 #
coedge $-1 $456 $315 $317 $460 reversed $193 $-1 #
coedge $-1 $315 $455 $454 $593 reversed $193 $-1 #
coedge $-1 $323 $318 $315 $458 forward $324 $-1 #
edge $-1 $461 -17.896628319199017 $594 -15.055838330469001 $457 $595 forward 7 unknown #
coedge $-1 $317 $316 $464 $596 reversed $121 $-1 #
edge $-1 $597 0 $461 5.2159134222554941 $455 $598 forward 7 unknown #
vertex $-1 $319 $599 #
straight-curve $-1 -41.614912394765575 -4.4794644913617709 4.9922166612714483 0 1 0 I I #
coedge $-1 $454 $320 $323 $468 reversed $313 $-1 #
coedge $-1 $320 $454 $459 $596 forward $313 $-1 #
vertex $-1 $321 $600 #
straight-curve $-1 -44.455702383495591 -12.288365006960781 24.521202072782309 0 0 1 I I #
straight-curve $-1 -44.455702383495591 -12.288365006960781 0.61778354732441443 -0.54463902268945019 0 -0.83867057594974714 I I #
edge $-1 $594 5.6294929584863027 $325 12.288365006960781 $463 $601 forward 7 unknown #
point $-1 -44.455702383495591 -12.288365006960781 4.9922166612714474 #
point $-1 -41.614912394765575 -12.288365006960781 4.9922166612714474 #
edge $-1 $602 1 $602 0 $328 $-1 forward 7 unknown #
vertex $-1 $329 $603 #
ellipse-curve $-1 -42.196636813180838 -10.385830135968073 2.2603610816084809 -0.83867057594974714 0 0.54463902268945019 0.2723195113447251 0 0.41933528797487357 1 I I #
point $-1 -42.762987877785861 -10.385830135968073 3.2243353922728044 #
edge $-1 $604 1 $604 0 $332 $-1 forward 7 unknown #
vertex $-1 $333 $605 #
ellipse-curve $-1 -42.196636813180838 -7.5320278294790111 2.2603610816084809 -0.83867057594974714 0 0.54463902268945019 0.2723195113447251 0 0.41933528797487357 1 I I #
point $-1 -42.762987877785861 -7.5320278294790111 3.2243353922728044 #
loop $-1 $-1 $344 $336 #
plane-surface $-1 -44.455702383495591 0 0 1 0 0 0 0 -1 forward_v I I I I #
coedge $-1 $482 $339 $341 $486 reversed $215 $-1 #
coedge $-1 $339 $481 $606 $607 reversed $215 $-1 #
coedge $-1 $347 $342 $339 $484 forward $337 $-1 #
edge $-1 $487 -17.896628319199017 $608 -15.055838330469001 $483 $609 forward 7 unknown #
coedge $-1 $341 $340 $490 $610 reversed $135 $-1 #
edge $-1 $611 0 $487 5.2159134222554941 $481 $612 forward 7 unknown #
vertex $-1 $343 $613 #
straight-curve $-1 -41.614912394765575 4.3612276681597031 4.9922166612714483 0 1 0 I I #
coedge $-1 $606 $344 $347 $494 reversed $479 $-1 #
coedge $-1 $344 $606 $485 $610 forward $479 $-1 #
vertex $-1 $345 $614 #
straight-curve $-1 -44.455702383495591 5.393019312082167 24.521202072782309 0 0 1 I I #
straight-curve $-1 -44.455702383495591 5.393019312082167 0.61778354732441443 -0.54463902268945019 0 -0.83867057594974714 I I #
edge $-1 $608 -12.051891360556645 $348 -5.393019312082167 $489 $615 forward 7 unknown #
point $-1 -44.455702383495591 5.393019312082167 4.9922166612714474 #
point $-1 -41.614912394765575 5.393019312082167 4.9922166612714474 #
edge $-1 $616 1 $616 0 $351 $-1 forward 7 unknown #
vertex $-1 $352 $617 #
ellipse-curve $-1 -42.196636813180838 7.2955541830748736 2.2603610816084809 -0.83867057594974714 0 0.54463902268945019 0.2723195113447251 0 0.41933528797487357 1 I I #
point $-1 -42.762987877785861 7.2955541830748736 3.2243353922728044 #
edge $-1 $618 1 $618 0 $355 $-1 forward 7 unknown #
vertex $-1 $356 $619 #
ellipse-curve $-1 -42.196636813180838 10.149356489563939 2.2603610816084809 -0.83867057594974714 0 0.54463902268945019 0.2723195113447251 0 0.41933528797487357 1 I I #
point $-1 -42.762987877785861 10.149356489563939 3.2243353922728044 #
loop $-1 $-1 $367 $359 #
plane-surface $-1 44.455702383495591 0 0 -1 0 0 0 0 1 forward_v I I I I #
coedge $-1 $508 $362 $364 $512 reversed $237 $-1 #
coedge $-1 $362 $507 $620 $621 reversed $237 $-1 #
coedge $-1 $370 $365 $362 $510 forward $360 $-1 #
edge $-1 $513 6.3156819799210737 $622 9.156471968651104 $509 $623 forward 7 unknown #
coedge $-1 $364 $363 $516 $624 reversed $149 $-1 #
edge $-1 $625 -88.911404766991211 $513 -83.695491344735686 $507 $626 forward 7 unknown #
vertex $-1 $366 $627 #
straight-curve $-1 41.614912394765568 -4.4794644913617709 4.9922166612714491 0 -1 0 I I #
coedge $-1 $620 $367 $370 $520 reversed $505 $-1 #
coedge $-1 $367 $620 $511 $624 forward $505 $-1 #
vertex $-1 $368 $628 #
straight-curve $-1 44.455702383495591 -5.6294929584863027 61.804891594999106 0 0 1 I I #
straight-curve $-1 -3.9689182147446189 -5.6294929584863027 75.185162591758001 0.54463902268945019 0 -0.83867057594974714 I I #
edge $-1 $622 -12.288365006960781 $371 -5.6294929584863027 $515 $629 forward 7 unknown #
point $-1 44.455702383495591 -5.6294929584863027 4.9922166612714474 #
point $-1 41.614912394765561 -5.6294929584863027 4.992216661271442 #
edge $-1 $630 1 $630 0 $374 $-1 forward 7 unknown #
vertex $-1 $375 $631 #
ellipse-curve $-1 42.196636813180824 -10.385830135968073 2.2603610816084703 0.83867057594974714 0 0.54463902268945019 0.2723195113447251 0 -0.41933528797487357 1 I I #
point $-1 43.307626900475299 -10.385830135968073 2.3856648163230467 #
edge $-1 $632 1 $632 0 $378 $-1 forward 7 unknown #
vertex $-1 $379 $633 #
ellipse-curve $-1 42.196636813180824 -7.5320278294790111 2.2603610816084703 0.83867057594974714 0 0.54463902268945019 0.2723195113447251 0 -0.41933528797487357 1 I I #
point $-1 43.307626900475299 -7.5320278294790111 2.3856648163230467 #
plane-surface $-1 0 0 4.9922166612714474 0 0 1 1 0 0 forward_v I I I I #
coedge $-1 $542 $541 $534 $634 forward $383 $-1 #
coedge $-1 $534 $385 $387 $538 reversed $259 $-1 #
coedge $-1 $385 $533 $532 $634 reversed $259 $-1 #
coedge $-1 $393 $388 $385 $536 forward $394 $-1 #
edge $-1 $539 6.3156819799210737 $635 9.156471968651104 $535 $636 forward 7 unknown #
coedge $-1 $387 $386 $542 $637 reversed $163 $-1 #
edge $-1 $638 -88.911404766991211 $539 -83.695491344735686 $533 $639 forward 7 unknown #
vertex $-1 $389 $640 #
straight-curve $-1 41.614912394765568 4.3612276681597031 4.9922166612714491 0 -1 0 I I #
coedge $-1 $532 $390 $393 $546 reversed $383 $-1 #
coedge $-1 $390 $532 $537 $637 forward $383 $-1 #
vertex $-1 $391 $641 #
straight-curve $-1 44.455702383495591 12.051891360556645 61.804891594999106 0 0 1 I I #
straight-curve $-1 -3.9689182147446189 12.051891360556645 75.185162591758001 0.54463902268945019 0 -0.83867057594974714 I I #
edge $-1 $635 5.393019312082167 $395 12.051891360556645 $541 $642 forward 7 unknown #
point $-1 44.455702383495591 12.051891360556645 4.9922166612714474 #
point $-1 41.614912394765561 12.051891360556645 4.992216661271442 #
edge $-1 $643 1 $643 0 $398 $-1 forward 7 unknown #
vertex $-1 $399 $644 #
ellipse-curve $-1 42.196636813180824 7.2955541830748736 2.2603610816084703 0.83867057594974714 0 0.54463902268945019 0.2723195113447251 0 -0.41933528797487357 1 I I #
point $-1 43.307626900475299 7.2955541830748736 2.3856648163230467 #
edge $-1 $645 1 $645 0 $402 $-1 forward 7 unknown #
vertex $-1 $403 $646 #
ellipse-curve $-1 42.196636813180824 10.149356489563939 2.2603610816084703 0.83867057594974714 0 0.54463902268945019 0.2723195113447251 0 -0.41933528797487357 1 I I #
point $-1 43.307626900475299 10.149356489563939 2.3856648163230467 #
plane-surface $-1 44.455702383495591 0 0 -1 0 0 0 0 1 forward_v I I I I #
coedge $-1 $561 $414 $417 $569 forward $407 $-1 #
coedge $-1 $414 $561 $409 $560 reversed $407 $-1 #
edge $-1 $566 -4.9922166612714474 $573 4.9922166612714474 $559 $647 forward 7 unknown #
coedge $-1 $559 $558 $410 $562 reversed $407 $-1 #
edge $-1 $573 -44.455702383495591 $563 44.455702383495591 $561 $648 forward 7 unknown #
vertex $-1 $412 $649 #
straight-curve $-1 44.455702383495591 0 -4.9922166612714474 0 -1 0 I I #
edge $-1 $566 -20.17513114700068 $425 20.17513114700068 $423 $650 forward 7 unknown #
vertex $-1 $415 $651 #
straight-curve $-1 0 20.17513114700068 4.9922166612714474 -1 0 0 I I #
straight-curve $-1 0 -20.17513114700068 4.9922166612714474 1 0 0 I I #
edge $-1 $420 -4.9922166612714474 $563 4.9922166612714474 $417 $652 forward 7 unknown #
point $-1 44.455702383495591 -20.17513114700068 4.9922166612714474 #
point $-1 44.455702383495591 20.17513114700068 4.9922166612714474 #
point $-1 -44.455702383495591 -20.17513114700068 4.9922166612714474 #
vertex $-1 $562 $653 #
straight-curve $-1 -44.455702383495591 0 -4.9922166612714474 0 1 0 I I #
plane-surface $-1 0 0 4.9922166612714474 0 0 1 1 0 0 forward_v I I I I #
coedge $-1 $438 $588 $577 $654 forward $431 $-1 #
coedge $-1 $434 $433 $576 $654 reversed $185 $-1 #
edge $-1 $584 -1.5 $582 1.5 $433 $655 forward 7 unknown #
coedge $-1 $446 $445 $434 $580 forward $447 $-1 #
edge $-1 $581 -1.5 $656 1.5 $434 $657 forward 7 unknown #
vertex $-1 $450 $658 #
vertex $-1 $440 $659 #
straight-curve $-1 -37.471269060952693 -25.162624802916145 0 0 0 -1 I I #
vertex $-1 $654 $660 #
straight-curve $-1 -34.471269060952693 -22.668877974958413 -4.9922166612714474 0 -1 0 I I #
straight-curve $-1 -37.471269060952693 -22.668877974958413 -4.9922166612714474 0 1 0 I I #
point $-1 -34.471269060952693 -20.17513114700068 -4.9922166612714474 #
coedge $-1 $576 $443 $446 $590 reversed $431 $-1 #
straight-curve $-1 -34.471269060952693 -20.17513114700068 0 0 0 -1 I I #
edge $-1 $656 -2.4937468279577324 $448 2.4937468279577324 $588 $661 forward 7 unknown #
point $-1 -34.471269060952693 -20.17513114700068 4.9922166612714474 #
straight-curve $-1 -37.471269060952693 -22.668877974958413 4.9922166612714474 0 -1 0 I I #
edge $-1 $594 19.52898541151086 $597 23.903418525457894 $454 $662 forward 7 unknown #
vertex $-1 $468 $663 #
straight-curve $-1 -59.511540713964592 -5.6294929584863027 4.9922166612714456 -1 0 0 I I #
edge $-1 $597 1.1500284671245318 $465 7.8089005155990101 $464 $664 forward 7 unknown #
vertex $-1 $596 $665 #
straight-curve $-1 -44.455702383495591 -5.6294929584863027 0.61778354732441443 0.54463902268945019 0 0.83867057594974714 I I #
point $-1 -41.614912394765575 -5.6294929584863027 4.9922166612714474 #
point $-1 -44.455702383495591 -12.288365006960781 0.61778354732441443 #
straight-curve $-1 -44.455702383495591 0 4.9922166612714474 0 -1 0 I I #
vertex $-1 $471 $666 #
point $-1 -41.924317301836112 -10.385830135968073 2.6796963695833544 #
vertex $-1 $475 $667 #
point $-1 -41.924317301836112 -7.5320278294790111 2.6796963695833544 #
coedge $-1 $490 $489 $482 $607 forward $479 $-1 #
edge $-1 $608 19.52898541151086 $611 23.903418525457894 $606 $668 forward 7 unknown #
vertex $-1 $494 $669 #
straight-curve $-1 -59.511540713964592 12.051891360556645 4.9922166612714456 -1 0 0 I I #
edge $-1 $611 -7.6906636923969423 $491 -1.0317916439224639 $490 $670 forward 7 unknown #
vertex $-1 $610 $671 #
straight-curve $-1 -44.455702383495591 12.051891360556645 0.61778354732441443 0.54463902268945019 0 0.83867057594974714 I I #
point $-1 -41.614912394765575 12.051891360556645 4.9922166612714474 #
point $-1 -44.455702383495591 5.393019312082167 0.61778354732441443 #
straight-curve $-1 -44.455702383495591 0 4.9922166612714474 0 -1 0 I I #
vertex $-1 $497 $672 #
point $-1 -41.924317301836112 7.2955541830748736 2.6796963695833544 #
vertex $-1 $501 $673 #
point $-1 -41.924317301836112 10.149356489563939 2.6796963695833544 #
coedge $-1 $516 $515 $508 $621 forward $505 $-1 #
edge $-1 $622 56.812674933727656 $625 61.187108047674712 $620 $674 forward 7 unknown #
vertex $-1 $520 $675 #
straight-curve $-1 35.299230414844487 -12.288365006960781 4.9922166612714491 1 0 0 I I #
edge $-1 $625 -7.8089005155990101 $517 -1.1500284671245318 $516 $676 forward 7 unknown #
vertex $-1 $624 $677 #
straight-curve $-1 -3.9689182147446189 -12.288365006960781 75.185162591758001 -0.54463902268945019 0 0.83867057594974714 I I #
point $-1 41.614912394765561 -12.288365006960781 4.992216661271442 #
point $-1 44.455702383495591 -5.6294929584863027 0.61778354732439311 #
straight-curve $-1 44.455702383495591 0 4.9922166612714474 0 1 0 I I #
vertex $-1 $523 $678 #
point $-1 42.46895632452555 -10.385830135968073 1.8410257936335968 #
vertex $-1 $527 $679 #
point $-1 42.46895632452555 -7.5320278294790111 1.8410257936335968 #
edge $-1 $635 56.812674933727656 $638 61.187108047674712 $532 $680 forward 7 unknown #
vertex $-1 $546 $681 #
straight-curve $-1 35.299230414844487 5.393019312082167 4.9922166612714491 1 0 0 I I #
edge $-1 $638 1.0317916439224639 $543 7.6906636923969423 $542 $682 forward 7 unknown #
vertex $-1 $637 $683 #
straight-curve $-1 -3.9689182147446189 5.393019312082167 75.185162591758001 -0.54463902268945019 0 0.83867057594974714 I I #
point $-1 41.614912394765561 5.393019312082167 4.992216661271442 #
point $-1 44.455702383495591 12.051891360556645 0.61778354732439311 #
straight-curve $-1 44.455702383495591 0 4.9922166612714474 0 1 0 I I #
vertex $-1 $549 $684 #
point $-1 42.46895632452555 7.2955541830748736 1.8410257936335968 #
vertex $-1 $553 $685 #
point $-1 42.46895632452555 10.149356489563939 1.8410257936335968 #
straight-curve $-1 -44.455702383495591 20.17513114700068 0 0 0 -1 I I #
straight-curve $-1 0 20.17513114700068 -4.9922166612714474 1 0 0 I I #
point $-1 44.455702383495591 20.17513114700068 -4.9922166612714474 #
straight-curve $-1 -44.455702383495591 0 4.9922166612714474 0 -1 0 I I #
point $-1 -44.455702383495591 20.17513114700068 4.9922166612714474 #
straight-curve $-1 44.455702383495591 20.17513114700068 0 0 0 -1 I I #
point $-1 -44.455702383495591 20.17513114700068 -4.9922166612714474 #
edge $-1 $656 -4.9922166612714474 $584 4.9922166612714474 $576 $686 forward 7 unknown #
straight-curve $-1 -35.971269060952693 -25.162624802916145 -4.9922166612714474 -1 0 0 I I #
vertex $-1 $590 $687 #
straight-curve $-1 -35.971269060952693 -25.162624802916145 4.9922166612714474 1 0 0 I I #
point $-1 -37.471269060952693 -25.162624802916145 4.9922166612714474 #
point $-1 -37.471269060952693 -25.162624802916145 -4.9922166612714474 #
point $-1 -34.471269060952693 -25.162624802916145 -4.9922166612714474 #
straight-curve $-1 -34.471269060952693 -22.668877974958413 4.9922166612714474 0 1 0 I I #
straight-curve $-1 -44.455702383495591 -5.6294929584863027 24.521202072782309 0 0 -1 I I #
point $-1 -44.455702383495591 -5.6294929584863027 4.9922166612714474 #
straight-curve $-1 -44.455702383495591 -4.4794644913617709 0.61778354732441254 0 -1 0 I I #
point $-1 -44.455702383495591 -5.6294929584863027 0.61778354732441443 #
point $-1 -41.777301525205964 -10.385830135968073 1.9880415702637557 #
point $-1 -41.777301525205964 -7.5320278294790111 1.9880415702637557 #
straight-curve $-1 -44.455702383495591 12.051891360556645 24.521202072782309 0 0 -1 I I #
point $-1 -44.455702383495591 12.051891360556645 4.9922166612714474 #
straight-curve $-1 -44.455702383495591 4.3612276681597031 0.61778354732441254 0 -1 0 I I #
point $-1 -44.455702383495591 12.051891360556645 0.61778354732441443 #
point $-1 -41.777301525205964 7.2955541830748736 1.9880415702637557 #
point $-1 -41.777301525205964 10.149356489563939 1.9880415702637557 #
straight-curve $-1 44.455702383495591 -12.288365006960781 61.804891594999106 0 0 -1 I I #
point $-1 44.455702383495591 -12.288365006960781 4.9922166612714474 #
straight-curve $-1 44.455702383495591 -4.4794644913617709 0.61778354732439311 0 1 0 I I #
point $-1 44.455702383495591 -12.288365006960781 0.61778354732439311 #
point $-1 41.777301525205949 -10.385830135968073 1.9880415702637451 #
point $-1 41.777301525205949 -7.5320278294790111 1.9880415702637451 #
straight-curve $-1 44.455702383495591 5.393019312082167 61.804891594999106 0 0 -1 I I #
point $-1 44.455702383495591 5.393019312082167 4.9922166612714474 #
straight-curve $-1 44.455702383495591 4.3612276681597031 0.61778354732439311 0 1 0 I I #
point $-1 44.455702383495591 5.393019312082167 0.61778354732439311 #
point $-1 41.777301525205949 7.2955541830748736 1.9880415702637451 #
point $-1 41.777301525205949 10.149356489563939 1.9880415702637451 #
straight-curve $-1 -34.471269060952693 -25.162624802916145 0 0 0 -1 I I #
point $-1 -34.471269060952693 -25.162624802916145 4.9922166612714474 #
End-of-ACIS-data 