500 0 8 0           
7 Unknown 11 ACIS 5.0 NT 24 Thu Mar 25 20:08:48 1999 
-1 9.9999999999999995e-007 1e-010 
body $-1 $8 $-1 $9 #
body $-1 $10 $-1 $11 #
body $-1 $12 $-1 $13 #
body $-1 $14 $-1 $15 #
body $-1 $16 $-1 $17 #
body $-1 $18 $-1 $19 #
body $-1 $20 $-1 $21 #
body $-1 $22 $-1 $23 #
lump $-1 $-1 $24 $0 #
transform $-1 1 0 0 0 1 0 0 0 1 67.065034943693348 29.649880328129331 10.888754995225206 1 rotate no_reflect no_shear #
lump $-1 $-1 $25 $1 #
transform $-1 1 0 0 0 1 0 0 0 1 67.065034943693348 29.649880328129331 10.888754995225206 1 rotate no_reflect no_shear #
lump $-1 $-1 $26 $2 #
transform $-1 1 0 0 0 1 0 0 0 1 67.065034943693348 29.649880328129331 10.888754995225206 1 rotate no_reflect no_shear #
lump $-1 $-1 $27 $3 #
transform $-1 1 0 0 0 1 0 0 0 1 67.065034943693348 29.649880328129331 10.888754995225206 1 rotate no_reflect no_shear #
lump $-1 $-1 $28 $4 #
transform $-1 1 0 0 0 1 0 0 0 1 67.065034943693348 29.649880328129331 10.888754995225206 1 rotate no_reflect no_shear #
lump $-1 $-1 $29 $5 #
transform $-1 1 0 0 0 1 0 0 0 1 67.065034943693348 29.649880328129331 10.888754995225206 1 rotate no_reflect no_shear #
lump $-1 $-1 $30 $6 #
transform $-1 1 0 0 0 1 0 0 0 1 67.065034943693348 29.649880328129331 10.888754995225206 1 rotate no_reflect no_shear #
lump $-1 $-1 $31 $7 #
transform $-1 1 0 0 0 1 0 0 0 1 67.065034943693348 29.649880328129331 10.888754995225206 1 rotate no_reflect no_shear #
shell $-1 $-1 $-1 $32 $-1 $8 #
shell $-1 $-1 $-1 $33 $-1 $10 #
shell $-1 $-1 $-1 $34 $-1 $12 #
shell $-1 $-1 $-1 $35 $-1 $14 #
shell $-1 $-1 $-1 $36 $-1 $16 #
shell $-1 $-1 $-1 $37 $-1 $18 #
shell $-1 $-1 $-1 $38 $-1 $20 #
shell $-1 $-1 $-1 $39 $-1 $22 #
face $-1 $40 $41 $24 $-1 $42 forward single #
face $-1 $43 $44 $25 $-1 $45 reversed single #
face $-1 $46 $47 $26 $-1 $48 reversed single #
face $-1 $49 $50 $27 $-1 $51 forward single #
face $-1 $52 $53 $28 $-1 $54 forward single #
face $-1 $55 $56 $29 $-1 $57 reversed single #
face $-1 $58 $59 $30 $-1 $60 forward single #
face $-1 $61 $62 $31 $-1 $63 forward single #
face $-1 $64 $65 $24 $-1 $66 reversed single #
loop $-1 $-1 $67 $32 #
plane-surface $-1 0 0 10.888754995225206 0 0 1 1 0 0 forward_v I I I I #
face $-1 $68 $69 $25 $-1 $70 reversed single #
loop $-1 $-1 $71 $33 #
plane-surface $-1 -62.601140535424044 -10.87237033767892 0 0 1 0 0 0 1 forward_v I I I I #
face $-1 $72 $73 $26 $-1 $74 reversed single #
loop $-1 $-1 $75 $34 #
plane-surface $-1 19.110256565954913 -129.32794881661957 90.475922682881617 -1 0 0 0 -0.74314483375859142 0.66913059716165679 forward_v I I I I #
face $-1 $76 $77 $27 $-1 $78 forward single #
loop $-1 $79 $80 $35 #
cone-surface $-1 -6.4824414409564355 -22.227701720700285 3.2439721785662425 0 0.74314483375859142 -0.66913059716165679 2.5 0 0 1 I I 0 1 2.5 forward I I I I #
face $-1 $81 $82 $28 $-1 $83 forward single #
loop $-1 $84 $85 $36 #
cone-surface $-1 8.873177363190365 -22.227701720700285 3.2439721785662425 0 0.74314483375859142 -0.66913059716165679 2.5 0 0 1 I I 0 1 2.5 forward I I I I #
face $-1 $86 $87 $29 $-1 $88 reversed single #
loop $-1 $-1 $89 $37 #
plane-surface $-1 -16.719520643720969 89.648664557153879 134.54423345770121 1 0 0 0 -0.74314483375859142 -0.66913059716165679 forward_v I I I I #
face $-1 $90 $91 $30 $-1 $92 forward single #
loop $-1 $93 $94 $38 #
cone-surface $-1 -6.4824414409564355 22.227701720700281 3.2439721785662319 0 -0.74314483375859142 -0.66913059716165679 2.5 0 0 1 I I 0 1 2.5 forward I I I I #
face $-1 $95 $96 $31 $-1 $97 forward single #
loop $-1 $98 $99 $39 #
cone-surface $-1 8.873177363190365 22.227701720700281 3.2439721785662319 0 -0.74314483375859142 -0.66913059716165679 2.5 0 0 1 I I 0 1 2.5 forward I I I I #
face $-1 $100 $101 $24 $-1 $102 reversed single #
loop $-1 $-1 $103 $40 #
plane-surface $-1 0 0 -10.888754995225206 0 0 1 1 0 0 forward_v I I I I #
coedge $-1 $104 $105 $106 $107 forward $41 $-1 #
face $-1 $108 $109 $25 $-1 $110 reversed single #
loop $-1 $-1 $111 $43 #
plane-surface $-1 -62.601140535424044 -7.8723703376789196 0 0 -1 0 0 0 -1 forward_v I I I I #
coedge $-1 $112 $113 $114 $115 reversed $44 $-1 #
face $-1 $116 $117 $26 $-1 $118 reversed single #
loop $-1 $-1 $119 $46 #
plane-surface $-1 1.1953679611169719 -29.649880328129328 0.72538892179979086 0 -0.74314483375859142 0.66913059716165679 1 0 0 forward_v I I I I #
coedge $-1 $120 $121 $122 $123 reversed $47 $-1 #
face $-1 $-1 $124 $27 $-1 $125 forward single #
loop $-1 $126 $127 $49 #
cone-surface $-1 -6.4824414409564355 -18.452159915290054 -0.15554084783208211 0 0.74314483375859142 -0.66913059716165679 1.25 0 0 1 I I -0.70710678118654757 0.70710678118654735 1.25 forward I I I I #
loop $-1 $-1 $128 $35 #
coedge $-1 $80 $80 $129 $130 reversed $50 $-1 #
face $-1 $-1 $131 $28 $-1 $132 forward single #
loop $-1 $133 $134 $52 #
cone-surface $-1 8.873177363190365 -18.452159915290054 -0.15554084783208211 0 0.74314483375859142 -0.66913059716165679 1.25 0 0 1 I I -0.70710678118654757 0.70710678118654735 1.25 forward I I I I #
loop $-1 $-1 $135 $36 #
coedge $-1 $85 $85 $136 $137 reversed $53 $-1 #
face $-1 $138 $139 $29 $-1 $140 reversed single #
loop $-1 $-1 $141 $55 #
plane-surface $-1 1.1953679611169719 -10.029403931336361 44.793699696619385 0 0.74314483375859142 0.66913059716165679 1 0 0 forward_v I I I I #
coedge $-1 $142 $143 $144 $145 reversed $56 $-1 #
face $-1 $-1 $146 $30 $-1 $147 forward single #
loop $-1 $148 $149 $58 #
cone-surface $-1 -6.4824414409564355 18.45215991529005 -0.15554084783209277 0 -0.74314483375859142 -0.66913059716165679 1.25 0 0 1 I I -0.70710678118654757 0.70710678118654735 1.25 forward I I I I #
loop $-1 $-1 $150 $38 #
coedge $-1 $94 $94 $151 $152 reversed $59 $-1 #
face $-1 $-1 $153 $31 $-1 $154 forward single #
loop $-1 $155 $156 $61 #
cone-surface $-1 8.873177363190365 18.45215991529005 -0.15554084783209277 0 -0.74314483375859142 -0.66913059716165679 1.25 0 0 1 I I -0.70710678118654757 0.70710678118654735 1.25 forward I I I I #
loop $-1 $-1 $157 $39 #
coedge $-1 $99 $99 $158 $159 reversed $62 $-1 #
face $-1 $160 $161 $24 $-1 $162 reversed single #
loop $-1 $-1 $163 $64 #
plane-surface $-1 0 -29.649880328129331 0 0 1 0 0 0 1 forward_v I I I I #
coedge $-1 $164 $165 $166 $167 forward $65 $-1 #
coedge $-1 $168 $67 $169 $170 forward $41 $-1 #
coedge $-1 $67 $168 $171 $172 forward $41 $-1 #
coedge $-1 $173 $174 $67 $107 reversed $175 $-1 #
edge $-1 $176 -29.649880328129331 $177 29.649880328129331 $106 $178 forward 7 unknown #
face $-1 $179 $180 $25 $-1 $181 reversed single #
loop $-1 $-1 $182 $68 #
plane-surface $-1 -58.137246127154739 -9.3723703376789196 0 -1 0 0 0 0 1 forward_v I I I I #
coedge $-1 $183 $184 $185 $186 forward $69 $-1 #
coedge $-1 $187 $71 $188 $189 reversed $44 $-1 #
coedge $-1 $71 $187 $190 $191 reversed $44 $-1 #
coedge $-1 $192 $193 $71 $115 forward $194 $-1 #
edge $-1 $195 -10.888754995225206 $196 10.888754995225206 $114 $197 forward 7 unknown #
face $-1 $198 $199 $26 $-1 $200 reversed single #
loop $-1 $-1 $201 $72 #
plane-surface $-1 -16.719520643720969 -129.32794881661957 90.475922682881617 1 0 0 0 0.74314483375859142 -0.66913059716165679 forward_v I I I I #
coedge $-1 $202 $203 $204 $205 reversed $73 $-1 #
coedge $-1 $121 $75 $206 $207 reversed $47 $-1 #
coedge $-1 $75 $120 $202 $208 reversed $47 $-1 #
coedge $-1 $204 $209 $75 $123 forward $210 $-1 #
edge $-1 $211 35.014094080180456 $212 44.165229768614552 $122 $213 forward 7 unknown #
loop $-1 $-1 $129 $76 #
plane-surface $-1 1.1953679611169719 -29.649880328129328 0.72538892179979086 0 -0.74314483375859142 0.66913059716165679 1 0 0 forward_v I I I I #
loop $-1 $-1 $214 $49 #
coedge $-1 $127 $127 $128 $215 reversed $77 $-1 #
coedge $-1 $128 $128 $127 $215 forward $79 $-1 #
coedge $-1 $129 $129 $80 $130 forward $124 $-1 #
edge $-1 $216 -2.6401808162240723e-016 $216 6.2831853071796004 $129 $217 forward 7 unknown #
loop $-1 $-1 $136 $81 #
plane-surface $-1 1.1953679611169719 -29.649880328129328 0.72538892179979086 0 -0.74314483375859142 0.66913059716165679 1 0 0 forward_v I I I I #
loop $-1 $-1 $218 $52 #
coedge $-1 $134 $134 $135 $219 reversed $82 $-1 #
coedge $-1 $135 $135 $134 $219 forward $84 $-1 #
coedge $-1 $136 $136 $85 $137 forward $131 $-1 #
edge $-1 $220 -2.6401808162240723e-016 $220 6.2831853071796004 $136 $221 forward 7 unknown #
face $-1 $222 $223 $29 $-1 $224 reversed single #
loop $-1 $-1 $225 $86 #
plane-surface $-1 19.110256565954913 89.648664557153879 134.54423345770121 -1 0 0 0 0.74314483375859142 0.66913059716165679 forward_v I I I I #
coedge $-1 $226 $227 $228 $229 reversed $87 $-1 #
coedge $-1 $143 $89 $230 $231 reversed $56 $-1 #
coedge $-1 $89 $142 $226 $232 reversed $56 $-1 #
coedge $-1 $228 $233 $89 $145 forward $234 $-1 #
edge $-1 $235 15.174451950447608 $236 24.325587638881728 $144 $237 forward 7 unknown #
loop $-1 $-1 $151 $90 #
plane-surface $-1 1.1953679611169719 -10.029403931336361 44.793699696619385 0 0.74314483375859142 0.66913059716165679 1 0 0 forward_v I I I I #
loop $-1 $-1 $238 $58 #
coedge $-1 $149 $149 $150 $239 reversed $91 $-1 #
coedge $-1 $150 $150 $149 $239 forward $93 $-1 #
coedge $-1 $151 $151 $94 $152 forward $146 $-1 #
edge $-1 $240 6.8687368855365911e-016 $240 6.2831853071796013 $151 $241 forward 7 unknown #
loop $-1 $-1 $158 $95 #
plane-surface $-1 1.1953679611169719 -10.029403931336361 44.793699696619385 0 0.74314483375859142 0.66913059716165679 1 0 0 forward_v I I I I #
loop $-1 $-1 $242 $61 #
coedge $-1 $156 $156 $157 $243 reversed $96 $-1 #
coedge $-1 $157 $157 $156 $243 forward $98 $-1 #
coedge $-1 $158 $158 $99 $159 forward $153 $-1 #
edge $-1 $244 6.8687368855365911e-016 $244 6.2831853071796013 $158 $245 forward 7 unknown #
face $-1 $246 $247 $24 $-1 $248 reversed single #
loop $-1 $-1 $249 $100 #
plane-surface $-1 -67.065034943693348 0 0 1 0 0 0 0 -1 forward_v I I I I #
coedge $-1 $250 $171 $251 $252 forward $101 $-1 #
coedge $-1 $253 $103 $250 $254 forward $65 $-1 #
coedge $-1 $103 $253 $255 $256 forward $65 $-1 #
coedge $-1 $174 $173 $103 $167 reversed $175 $-1 #
edge $-1 $257 -29.649880328129331 $258 29.649880328129331 $166 $259 forward 7 unknown #
coedge $-1 $105 $104 $260 $261 forward $41 $-1 #
coedge $-1 $262 $263 $104 $170 reversed $247 $-1 #
edge $-1 $177 -67.065034943693348 $264 67.065034943693348 $169 $265 forward 7 unknown #
coedge $-1 $163 $266 $105 $172 reversed $101 $-1 #
edge $-1 $267 -67.065034943693348 $176 67.065034943693348 $171 $268 forward 7 unknown #
coedge $-1 $166 $106 $266 $269 forward $175 $-1 #
coedge $-1 $106 $166 $262 $270 reversed $175 $-1 #
loop $-1 $-1 $173 $246 #
vertex $-1 $107 $271 #
vertex $-1 $107 $272 #
straight-curve $-1 67.065034943693348 0 10.888754995225206 0 1 0 I I #
face $-1 $273 $274 $25 $-1 $275 forward single #
loop $-1 $-1 $276 $108 #
plane-surface $-1 0 0 -10.888754995225206 0 0 1 1 0 0 forward_v I I I I #
coedge $-1 $277 $278 $187 $279 forward $109 $-1 #
coedge $-1 $280 $111 $276 $281 reversed $69 $-1 #
coedge $-1 $111 $280 $282 $283 reversed $69 $-1 #
coedge $-1 $278 $277 $111 $186 reversed $109 $-1 #
edge $-1 $284 -10.888754995225206 $285 10.888754995225206 $185 $286 forward 7 unknown #
coedge $-1 $113 $112 $182 $279 reversed $44 $-1 #
coedge $-1 $287 $288 $112 $189 forward $180 $-1 #
edge $-1 $289 26.836675859442717 $195 35.76446467598133 $188 $290 forward 7 unknown #
coedge $-1 $291 $292 $113 $191 forward $274 $-1 #
edge $-1 $196 -35.76446467598133 $293 -26.836675859442717 $190 $294 forward 7 unknown #
coedge $-1 $295 $114 $292 $296 reversed $194 $-1 #
coedge $-1 $114 $295 $287 $297 reversed $194 $-1 #
loop $-1 $-1 $295 $273 #
vertex $-1 $297 $298 #
vertex $-1 $115 $299 #
straight-curve $-1 -67.065034943693348 -10.87237033767892 0 0 0 1 I I #
face $-1 $-1 $210 $26 $-1 $300 forward single #
loop $-1 $-1 $301 $116 #
plane-surface $-1 0 -29.649880328129331 0 0 1 0 0 0 1 forward_v I I I I #
coedge $-1 $302 $303 $304 $305 reversed $117 $-1 #
coedge $-1 $306 $119 $121 $208 forward $73 $-1 #
coedge $-1 $119 $306 $302 $307 forward $73 $-1 #
coedge $-1 $304 $122 $119 $205 forward $210 $-1 #
edge $-1 $212 -18.512572585396427 $308 17.317204624279455 $204 $309 forward 7 unknown #
coedge $-1 $310 $311 $120 $207 forward $199 $-1 #
edge $-1 $312 -44.512572419641025 $211 -34.349206346215603 $206 $313 forward 7 unknown #
edge $-1 $212 -13.676157878972695 $312 5.3474328436922466e-015 $121 $314 forward 7 unknown #
coedge $-1 $122 $304 $310 $315 forward $210 $-1 #
loop $-1 $-1 $304 $198 #
vertex $-1 $207 $316 #
vertex $-1 $123 $317 #
straight-curve $-1 19.110256565954913 -64.663974408309784 10.888754995225206 0 1 0 I I #
coedge $-1 $214 $214 $-1 $318 reversed $126 $-1 #
edge $-1 $319 0 $319 6.2831853071796004 $127 $320 forward 7 unknown #
vertex $-1 $130 $321 #
ellipse-curve $-1 -6.4824414409564355 -25.07431248391228 5.8070719585124966 0 -0.74314483375859142 0.66913059716165679 2.5 0 0 1 I I #
coedge $-1 $218 $218 $-1 $322 reversed $133 $-1 #
edge $-1 $323 0 $323 6.2831853071796004 $134 $324 forward 7 unknown #
vertex $-1 $137 $325 #
ellipse-curve $-1 8.873177363190365 -25.07431248391228 5.8070719585124966 0 -0.74314483375859142 0.66913059716165679 2.5 0 0 1 I I #
face $-1 $-1 $234 $29 $-1 $326 forward single #
loop $-1 $-1 $327 $138 #
plane-surface $-1 0 29.649880328129331 0 0 -1 0 0 0 -1 forward_v I I I I #
coedge $-1 $328 $329 $330 $331 reversed $139 $-1 #
coedge $-1 $332 $141 $143 $232 forward $87 $-1 #
coedge $-1 $141 $332 $328 $333 forward $87 $-1 #
coedge $-1 $330 $144 $141 $229 forward $234 $-1 #
edge $-1 $236 -17.317204624279455 $334 18.512572585396427 $228 $335 forward 7 unknown #
coedge $-1 $336 $337 $142 $231 forward $223 $-1 #
edge $-1 $338 -66.546727807050843 $235 -56.383361733625399 $230 $339 forward 7 unknown #
edge $-1 $236 45.623602777285946 $338 59.29976065625867 $143 $340 forward 7 unknown #
coedge $-1 $144 $330 $336 $341 forward $234 $-1 #
loop $-1 $-1 $330 $222 #
vertex $-1 $231 $342 #
vertex $-1 $145 $343 #
straight-curve $-1 -16.719520643720969 44.824332278576939 10.888754995225206 0 -1 0 I I #
coedge $-1 $238 $238 $-1 $344 reversed $148 $-1 #
edge $-1 $345 0 $345 6.2831853071796004 $149 $346 forward 7 unknown #
vertex $-1 $152 $347 #
ellipse-curve $-1 -6.4824414409564355 25.074312483912273 5.8070719585124841 0 0.74314483375859142 0.66913059716165679 2.5 0 0 1 I I #
coedge $-1 $242 $242 $-1 $348 reversed $155 $-1 #
edge $-1 $349 0 $349 6.2831853071796004 $156 $350 forward 7 unknown #
vertex $-1 $159 $351 #
ellipse-curve $-1 8.873177363190365 25.074312483912273 5.8070719585124841 0 0.74314483375859142 0.66913059716165679 2.5 0 0 1 I I #
face $-1 $-1 $175 $24 $-1 $352 reversed single #
loop $-1 $-1 $262 $160 #
plane-surface $-1 0 29.649880328129331 0 0 -1 0 0 0 -1 forward_v I I I I #
coedge $-1 $353 $260 $263 $354 forward $161 $-1 #
coedge $-1 $266 $163 $164 $254 reversed $101 $-1 #
coedge $-1 $260 $353 $163 $252 reversed $161 $-1 #
edge $-1 $267 -10.888754995225206 $355 10.888754995225206 $251 $356 forward 7 unknown #
coedge $-1 $165 $164 $353 $357 forward $65 $-1 #
edge $-1 $258 -67.065034943693348 $355 67.065034943693348 $250 $358 forward 7 unknown #
coedge $-1 $263 $262 $165 $256 reversed $247 $-1 #
edge $-1 $359 -67.065034943693348 $257 67.065034943693348 $255 $360 forward 7 unknown #
vertex $-1 $167 $361 #
vertex $-1 $269 $362 #
straight-curve $-1 67.065034943693348 0 -10.888754995225206 0 -1 0 I I #
coedge $-1 $249 $251 $168 $261 reversed $161 $-1 #
edge $-1 $264 -29.649880328129331 $267 29.649880328129331 $260 $363 forward 7 unknown #
coedge $-1 $255 $169 $174 $270 forward $247 $-1 #
coedge $-1 $169 $255 $249 $354 reversed $247 $-1 #
vertex $-1 $170 $364 #
straight-curve $-1 0 29.649880328129331 10.888754995225206 -1 0 0 I I #
coedge $-1 $171 $250 $173 $269 reversed $101 $-1 #
vertex $-1 $261 $365 #
straight-curve $-1 0 -29.649880328129331 10.888754995225206 1 0 0 I I #
edge $-1 $176 -10.888754995225206 $258 10.888754995225206 $173 $366 forward 7 unknown #
edge $-1 $177 -10.888754995225206 $257 10.888754995225206 $174 $367 forward 7 unknown #
point $-1 67.065034943693348 -29.649880328129331 10.888754995225206 #
point $-1 67.065034943693348 29.649880328129331 10.888754995225206 #
face $-1 $-1 $194 $25 $-1 $368 reversed single #
loop $-1 $-1 $282 $179 #
plane-surface $-1 0 0 10.888754995225206 0 0 1 1 0 0 forward_v I I I I #
coedge $-1 $288 $287 $183 $281 forward $180 $-1 #
coedge $-1 $185 $182 $288 $369 reversed $109 $-1 #
coedge $-1 $182 $185 $291 $370 reversed $109 $-1 #
edge $-1 $293 -10.888754995225206 $289 10.888754995225206 $182 $371 forward 7 unknown #
coedge $-1 $184 $183 $295 $372 reversed $69 $-1 #
edge $-1 $373 -35.76446467598133 $285 -26.836675859442717 $276 $374 forward 7 unknown #
coedge $-1 $292 $291 $184 $283 forward $274 $-1 #
edge $-1 $284 26.836675859442717 $375 35.76446467598133 $282 $376 forward 7 unknown #
vertex $-1 $283 $377 #
vertex $-1 $281 $378 #
straight-curve $-1 -58.137246127154739 -7.8723703376789196 0 0 0 -1 I I #
coedge $-1 $276 $188 $193 $297 forward $180 $-1 #
coedge $-1 $188 $276 $277 $369 forward $180 $-1 #
vertex $-1 $189 $379 #
straight-curve $-1 -31.300570267712022 -10.87237033767892 -10.888754995225206 -1 0 0 I I #
coedge $-1 $282 $190 $278 $370 forward $274 $-1 #
coedge $-1 $190 $282 $192 $296 forward $274 $-1 #
vertex $-1 $191 $380 #
straight-curve $-1 -31.300570267712022 -10.87237033767892 10.888754995225206 1 0 0 I I #
coedge $-1 $193 $192 $280 $372 forward $194 $-1 #
edge $-1 $375 7.8723703376789196 $196 10.87237033767892 $192 $381 forward 7 unknown #
edge $-1 $195 -10.87237033767892 $373 -7.8723703376789196 $193 $382 forward 7 unknown #
point $-1 -67.065034943693348 -10.87237033767892 -10.888754995225206 #
point $-1 -67.065034943693348 -10.87237033767892 10.888754995225206 #
plane-surface $-1 0 0 10.888754995225206 0 0 1 1 0 0 forward_v I I I I #
coedge $-1 $311 $310 $303 $383 forward $199 $-1 #
coedge $-1 $303 $201 $203 $307 reversed $117 $-1 #
coedge $-1 $201 $302 $301 $383 reversed $117 $-1 #
coedge $-1 $209 $204 $201 $305 forward $210 $-1 #
edge $-1 $308 -44.165229768614552 $384 -35.014094080180456 $304 $385 forward 7 unknown #
coedge $-1 $203 $202 $311 $386 reversed $73 $-1 #
edge $-1 $387 -5.3474328436922466e-015 $308 13.676157878972695 $302 $388 forward 7 unknown #
vertex $-1 $205 $389 #
straight-curve $-1 0.59768398055848593 -20.498744639695229 10.888754995225206 -1 0 0 I I #
coedge $-1 $301 $206 $209 $315 reversed $199 $-1 #
coedge $-1 $206 $301 $306 $386 forward $199 $-1 #
vertex $-1 $207 $390 #
straight-curve $-1 19.110256565954913 -29.649880328129328 45.237961341440808 0 0 1 I I #
straight-curve $-1 19.110256565954913 -29.649880328129328 0.72538892179979086 0 -0.66913059716165679 -0.74314483375859142 I I #
edge $-1 $384 -16.719520643720969 $211 19.110256565954913 $310 $391 forward 7 unknown #
point $-1 19.110256565954913 -29.649880328129331 10.888754995225206 #
point $-1 19.110256565954913 -20.498744639695229 10.888754995225206 #
edge $-1 $392 1 $392 0 $214 $-1 forward 7 unknown #
vertex $-1 $215 $393 #
ellipse-curve $-1 -6.4824414409564355 -19.381090957488293 0.68087239861998861 0 -0.74314483375859142 0.66913059716165679 2.5 0 0 1 I I #
point $-1 -3.9824414409564355 -25.07431248391228 5.8070719585124957 #
edge $-1 $394 1 $394 0 $218 $-1 forward 7 unknown #
vertex $-1 $219 $395 #
ellipse-curve $-1 8.873177363190365 -19.381090957488293 0.68087239861998861 0 -0.74314483375859142 0.66913059716165679 2.5 0 0 1 I I #
point $-1 11.373177363190365 -25.07431248391228 5.8070719585124957 #
plane-surface $-1 0 0 10.888754995225206 0 0 1 1 0 0 forward_v I I I I #
coedge $-1 $337 $336 $329 $396 forward $223 $-1 #
coedge $-1 $329 $225 $227 $333 reversed $139 $-1 #
coedge $-1 $225 $328 $327 $396 reversed $139 $-1 #
coedge $-1 $233 $228 $225 $331 forward $234 $-1 #
edge $-1 $334 -24.325587638881728 $397 -15.174451950447608 $330 $398 forward 7 unknown #
coedge $-1 $227 $226 $337 $399 reversed $87 $-1 #
edge $-1 $400 -59.29976065625867 $334 -45.623602777285946 $328 $401 forward 7 unknown #
vertex $-1 $229 $402 #
straight-curve $-1 0.59768398055848593 20.498744639695207 10.888754995225206 1 0 0 I I #
coedge $-1 $327 $230 $233 $341 reversed $223 $-1 #
coedge $-1 $230 $327 $332 $399 forward $223 $-1 #
vertex $-1 $231 $403 #
straight-curve $-1 -16.719520643720969 29.649880328129331 67.272116728850605 0 0 1 I I #
straight-curve $-1 -16.719520643720969 -10.029403931336361 44.793699696619385 0 0.66913059716165679 -0.74314483375859142 I I #
edge $-1 $397 -19.110256565954913 $235 16.719520643720969 $336 $404 forward 7 unknown #
point $-1 -16.719520643720969 29.649880328129331 10.888754995225206 #
point $-1 -16.719520643720969 20.498744639695211 10.888754995225206 #
edge $-1 $405 1 $405 0 $238 $-1 forward 7 unknown #
vertex $-1 $239 $406 #
ellipse-curve $-1 -6.4824414409564355 19.38109095748829 0.68087239861997795 0 0.74314483375859142 0.66913059716165679 2.5 0 0 1 I I #
point $-1 -3.9824414409564355 25.074312483912276 5.807071958512485 #
edge $-1 $407 1 $407 0 $242 $-1 forward 7 unknown #
vertex $-1 $243 $408 #
ellipse-curve $-1 8.873177363190365 19.38109095748829 0.68087239861997795 0 0.74314483375859142 0.66913059716165679 2.5 0 0 1 I I #
point $-1 11.373177363190365 25.074312483912276 5.807071958512485 #
plane-surface $-1 67.065034943693348 0 0 -1 0 0 0 0 1 forward_v I I I I #
coedge $-1 $251 $249 $253 $357 reversed $161 $-1 #
edge $-1 $264 -10.888754995225206 $359 10.888754995225206 $263 $409 forward 7 unknown #
vertex $-1 $357 $410 #
straight-curve $-1 -67.065034943693348 -29.649880328129331 0 0 0 -1 I I #
edge $-1 $355 -29.649880328129331 $359 29.649880328129331 $353 $411 forward 7 unknown #
straight-curve $-1 0 -29.649880328129331 -10.888754995225206 -1 0 0 I I #
vertex $-1 $256 $412 #
straight-curve $-1 0 29.649880328129331 -10.888754995225206 1 0 0 I I #
point $-1 67.065034943693348 29.649880328129331 -10.888754995225206 #
point $-1 67.065034943693348 -29.649880328129331 -10.888754995225206 #
straight-curve $-1 -67.065034943693348 0 10.888754995225206 0 -1 0 I I #
point $-1 -67.065034943693348 29.649880328129331 10.888754995225206 #
point $-1 -67.065034943693348 -29.649880328129331 10.888754995225206 #
straight-curve $-1 67.065034943693348 -29.649880328129331 0 0 0 -1 I I #
straight-curve $-1 67.065034943693348 29.649880328129331 0 0 0 -1 I I #
plane-surface $-1 -67.065034943693348 0 0 1 0 0 0 0 -1 forward_v I I I I #
edge $-1 $285 3.1861851688394598 $289 6.1861851688394598 $288 $413 forward 7 unknown #
edge $-1 $293 -6.1861851688394598 $284 -3.1861851688394598 $291 $414 forward 7 unknown #
straight-curve $-1 -58.137246127154739 -10.87237033767892 0 0 0 -1 I I #
edge $-1 $375 -10.888754995225206 $373 10.888754995225206 $295 $415 forward 7 unknown #
vertex $-1 $372 $416 #
straight-curve $-1 -31.300570267712022 -7.8723703376789196 -10.888754995225206 1 0 0 I I #
vertex $-1 $296 $417 #
straight-curve $-1 -31.300570267712022 -7.8723703376789196 10.888754995225206 -1 0 0 I I #
point $-1 -58.137246127154739 -7.8723703376789196 10.888754995225206 #
point $-1 -58.137246127154739 -7.8723703376789196 -10.888754995225206 #
point $-1 -58.137246127154739 -10.87237033767892 -10.888754995225206 #
point $-1 -58.137246127154739 -10.87237033767892 10.888754995225206 #
straight-curve $-1 -67.065034943693348 0 10.888754995225206 0 -1 0 I I #
straight-curve $-1 -67.065034943693348 0 -10.888754995225206 0 1 0 I I #
edge $-1 $384 34.349206346215603 $387 44.512572419641025 $301 $418 forward 7 unknown #
vertex $-1 $315 $419 #
straight-curve $-1 -16.719520643720969 -64.663974408309784 10.888754995225206 0 -1 0 I I #
edge $-1 $387 -17.317204624279455 $312 18.512572585396427 $311 $420 forward 7 unknown #
vertex $-1 $386 $421 #
straight-curve $-1 -16.719520643720969 -29.649880328129328 0.72538892179979086 0 0.66913059716165679 0.74314483375859142 I I #
point $-1 -16.719520643720969 -20.498744639695229 10.888754995225206 #
point $-1 19.110256565954913 -29.649880328129331 0.72538892179978687 #
straight-curve $-1 0 -29.649880328129331 10.888754995225206 1 0 0 I I #
vertex $-1 $318 $422 #
point $-1 -3.9824414409564355 -19.381090957488293 0.68087239861998861 #
vertex $-1 $322 $423 #
point $-1 11.373177363190365 -19.381090957488293 0.68087239861998861 #
edge $-1 $397 56.383361733625399 $400 66.546727807050843 $327 $424 forward 7 unknown #
vertex $-1 $341 $425 #
straight-curve $-1 19.110256565954913 44.824332278576939 10.888754995225206 0 1 0 I I #
edge $-1 $400 -18.512572585396427 $338 17.317204624279455 $337 $426 forward 7 unknown #
vertex $-1 $399 $427 #
straight-curve $-1 19.110256565954913 -10.029403931336361 44.793699696619385 0 -0.66913059716165679 0.74314483375859142 I I #
point $-1 19.110256565954913 20.498744639695211 10.888754995225206 #
point $-1 -16.719520643720969 29.649880328129328 0.72538892179976955 #
straight-curve $-1 0 29.649880328129331 10.888754995225206 -1 0 0 I I #
vertex $-1 $344 $428 #
point $-1 -3.9824414409564355 19.38109095748829 0.68087239861997795 #
vertex $-1 $348 $429 #
point $-1 11.373177363190365 19.38109095748829 0.68087239861997795 #
straight-curve $-1 -67.065034943693348 29.649880328129331 0 0 0 -1 I I #
point $-1 -67.065034943693348 -29.649880328129331 -10.888754995225206 #
straight-curve $-1 -67.065034943693348 0 -10.888754995225206 0 1 0 I I #
point $-1 -67.065034943693348 29.649880328129331 -10.888754995225206 #
straight-curve $-1 -58.137246127154739 -4.6861851688394598 -10.888754995225206 0 -1 0 I I #
straight-curve $-1 -58.137246127154739 -4.6861851688394598 10.888754995225206 0 1 0 I I #
straight-curve $-1 -67.065034943693348 -7.8723703376789196 0 0 0 -1 I I #
point $-1 -67.065034943693348 -7.8723703376789196 -10.888754995225206 #
point $-1 -67.065034943693348 -7.8723703376789196 10.888754995225206 #
straight-curve $-1 -16.719520643720969 -29.649880328129328 45.237961341440808 0 0 -1 I I #
point $-1 -16.719520643720969 -29.649880328129331 10.888754995225206 #
straight-curve $-1 0.59768398055848593 -29.649880328129331 0.72538892179978398 1 0 0 I I #
point $-1 -16.719520643720969 -29.649880328129331 0.72538892179978687 #
point $-1 -6.4824414409564355 -17.523228873091814 -0.99195409428415282 #
point $-1 8.873177363190365 -17.523228873091814 -0.99195409428415282 #
straight-curve $-1 19.110256565954913 29.649880328129331 67.272116728850605 0 0 -1 I I #
point $-1 19.110256565954913 29.649880328129331 10.888754995225206 #
straight-curve $-1 0.59768398055848593 29.649880328129335 0.725388921799766 -1 0 0 I I #
point $-1 19.110256565954913 29.649880328129328 0.72538892179976955 #
point $-1 -6.4824414409564355 17.52322887309181 -0.99195409428416348 #
point $-1 8.873177363190365 17.52322887309181 -0.99195409428416348 #
End-of-ACIS-data 