500 0 5 0           
7 Unknown 11 ACIS 5.0 NT 24 Fri Mar 26 18:14:04 1999 
-1 9.9999999999999995e-007 1e-010 
body $-1 $5 $-1 $6 #
body $-1 $7 $-1 $8 #
body $-1 $9 $-1 $10 #
body $-1 $11 $-1 $12 #
body $-1 $13 $-1 $14 #
lump $-1 $-1 $15 $0 #
transform $-1 1 0 0 0 1 0 0 0 1 62.977996154667807 41.406874469964194 12.741519656764488 1 rotate no_reflect no_shear #
lump $-1 $-1 $16 $1 #
transform $-1 1 0 0 0 1 0 0 0 1 62.977996154667807 41.406874469964194 12.741519656764488 1 rotate no_reflect no_shear #
lump $-1 $-1 $17 $2 #
transform $-1 1 0 0 0 1 0 0 0 1 62.977996154667807 41.406874469964194 12.741519656764488 1 rotate no_reflect no_shear #
lump $-1 $-1 $18 $3 #
transform $-1 1 0 0 0 1 0 0 0 1 62.977996154667807 41.406874469964194 12.741519656764488 1 rotate no_reflect no_shear #
lump $-1 $-1 $19 $4 #
transform $-1 1 0 0 0 1 0 0 0 1 62.977996154667807 41.406874469964194 12.741519656764488 1 rotate no_reflect no_shear #
shell $-1 $-1 $-1 $20 $-1 $5 #
shell $-1 $-1 $-1 $21 $-1 $7 #
shell $-1 $-1 $-1 $22 $-1 $9 #
shell $-1 $-1 $-1 $23 $-1 $11 #
shell $-1 $-1 $-1 $24 $-1 $13 #
face $-1 $25 $26 $15 $-1 $27 forward single #
face $-1 $28 $29 $16 $-1 $30 forward single #
face $-1 $31 $32 $17 $-1 $33 forward single #
face $-1 $34 $35 $18 $-1 $36 reversed single #
face $-1 $37 $38 $19 $-1 $39 reversed single #
face $-1 $40 $41 $15 $-1 $42 reversed single #
loop $-1 $-1 $43 $20 #
plane-surface $-1 0 0 12.741519656764488 0 0 1 1 0 0 forward_v I I I I #
face $-1 $44 $45 $16 $-1 $46 reversed single #
loop $-1 $-1 $47 $21 #
plane-surface $-1 0 -46.89838117258293 7.8225185630211129 0 0 1 1 0 0 forward_v I I I I #
face $-1 $48 $49 $17 $-1 $50 forward single #
loop $-1 $-1 $51 $22 #
plane-surface $-1 -140.52424917840921 32.03514140058472 101.02091511798244 0 1 0 -0.61566148304635926 0 0.78801074757464917 forward_v I I I I #
face $-1 $52 $53 $18 $-1 $54 reversed single #
loop $-1 $55 $56 $23 #
cone-surface $-1 -55.596900666851603 34.712779420407429 6.7966375650313751 0.61566148304635926 0 -0.78801074757464917 0.78801074757464917 0 0.61566148304635926 1 I I 0 1 1 forward I I I I #
face $-1 $57 $58 $19 $-1 $59 reversed single #
loop $-1 $60 $61 $24 #
cone-surface $-1 -55.596900666851603 38.729236450141485 6.7966375650313751 0.61566148304635926 0 -0.78801074757464917 0.78801074757464917 0 0.61566148304635926 1 I I 0 1 1 forward I I I I #
face $-1 $62 $63 $15 $-1 $64 reversed single #
loop $-1 $-1 $65 $25 #
plane-surface $-1 0 0 -12.741519656764488 0 0 1 1 0 0 forward_v I I I I #
coedge $-1 $66 $67 $68 $69 forward $26 $-1 #
face $-1 $70 $71 $16 $-1 $72 reversed single #
loop $-1 $-1 $73 $28 #
plane-surface $-1 0 -46.89838117258293 4.8225185630211129 0 0 1 1 0 0 forward_v I I I I #
coedge $-1 $74 $75 $76 $77 forward $29 $-1 #
face $-1 $78 $79 $17 $-1 $80 forward single #
loop $-1 $-1 $81 $31 #
plane-surface $-1 -62.977996154667807 36.721007935274457 1.7662394567961144 -0.61566148304635926 0 0.78801074757464917 0.78801074757464917 0 0.61566148304635926 forward_v I I I I #
coedge $-1 $82 $83 $84 $85 reversed $32 $-1 #
face $-1 $86 $87 $18 $-1 $88 forward single #
loop $-1 $89 $90 $34 #
cone-surface $-1 -54.931833322125186 34.712779420407429 5.945390199495133 0.61566148304635926 0 -0.78801074757464917 0.39400537378732459 0 0.30783074152317963 1 I I -0.70710678118654746 0.70710678118654746 0.5 forward I I I I #
loop $-1 $-1 $91 $23 #
coedge $-1 $56 $56 $92 $93 reversed $35 $-1 #
face $-1 $94 $95 $19 $-1 $96 reversed single #
loop $-1 $97 $98 $37 #
cone-surface $-1 -54.931833322125186 38.729236450141485 5.945390199495133 0.61566148304635926 0 -0.78801074757464917 0.39400537378732459 0 0.30783074152317963 1 I I -0.70710678118654746 0.70710678118654746 0.5 forward I I I I #
loop $-1 $-1 $99 $24 #
coedge $-1 $61 $61 $100 $101 reversed $38 $-1 #
face $-1 $102 $103 $15 $-1 $104 reversed single #
loop $-1 $-1 $105 $40 #
plane-surface $-1 0 -41.406874469964194 0 0 1 0 0 0 1 forward_v I I I I #
coedge $-1 $106 $107 $108 $109 forward $41 $-1 #
coedge $-1 $110 $43 $111 $112 forward $26 $-1 #
coedge $-1 $43 $110 $113 $114 forward $26 $-1 #
coedge $-1 $115 $116 $43 $69 reversed $117 $-1 #
edge $-1 $118 -41.406874469964194 $119 41.406874469964194 $68 $120 forward 7 unknown #
face $-1 $121 $122 $16 $-1 $123 reversed single #
loop $-1 $-1 $124 $44 #
plane-surface $-1 0 -52.389887875201666 6.3225185630211129 0 1 0 0 0 1 forward_v I I I I #
coedge $-1 $125 $126 $127 $128 forward $45 $-1 #
coedge $-1 $129 $47 $130 $131 reversed $29 $-1 #
coedge $-1 $47 $129 $132 $133 forward $29 $-1 #
coedge $-1 $134 $135 $47 $77 reversed $136 $-1 #
edge $-1 $137 -5.4915067026187359 $138 5.4915067026187359 $76 $139 forward 7 unknown #
face $-1 $140 $141 $17 $-1 $142 reversed single #
loop $-1 $-1 $143 $48 #
plane-surface $-1 0 0 12.741519656764488 0 0 1 1 0 0 forward_v I I I I #
coedge $-1 $144 $145 $143 $146 reversed $49 $-1 #
coedge $-1 $83 $51 $145 $147 forward $32 $-1 #
coedge $-1 $51 $82 $148 $149 reversed $32 $-1 #
coedge $-1 $150 $143 $51 $85 forward $79 $-1 #
edge $-1 $151 -21.331846203762716 $152 -7.2841284345367967 $84 $153 forward 7 unknown #
face $-1 $154 $155 $18 $-1 $156 forward single #
loop $-1 $-1 $157 $52 #
plane-surface $-1 -140.52424917840921 32.03514140058472 101.02091511798244 0 1 0 -0.61566148304635926 0 0.78801074757464917 forward_v I I I I #
loop $-1 $-1 $158 $34 #
coedge $-1 $90 $90 $91 $159 forward $53 $-1 #
coedge $-1 $91 $91 $90 $159 reversed $55 $-1 #
coedge $-1 $92 $92 $56 $93 forward $155 $-1 #
edge $-1 $160 0 $160 6.2831853071796004 $92 $161 forward 7 unknown #
face $-1 $162 $163 $19 $-1 $164 reversed single #
loop $-1 $165 $166 $57 #
cone-surface $-1 -55.596900666851603 34.712779420407429 6.7966375650313751 0.61566148304635926 0 -0.78801074757464917 0.78801074757464917 0 0.61566148304635926 1 I I 0 1 1 forward I I I I #
loop $-1 $-1 $167 $37 #
coedge $-1 $98 $98 $99 $168 forward $58 $-1 #
coedge $-1 $99 $99 $98 $168 reversed $60 $-1 #
coedge $-1 $100 $100 $61 $101 forward $169 $-1 #
edge $-1 $170 0 $170 6.2831853071796004 $100 $171 forward 7 unknown #
face $-1 $172 $173 $15 $-1 $174 reversed single #
loop $-1 $-1 $175 $62 #
plane-surface $-1 -62.977996154667807 0 0 1 0 0 0 0 -1 forward_v I I I I #
coedge $-1 $176 $113 $177 $178 forward $63 $-1 #
coedge $-1 $179 $65 $176 $180 forward $41 $-1 #
coedge $-1 $65 $179 $181 $182 forward $41 $-1 #
coedge $-1 $116 $115 $65 $109 reversed $117 $-1 #
edge $-1 $183 -41.406874469964194 $184 41.406874469964194 $108 $185 forward 7 unknown #
coedge $-1 $67 $66 $186 $187 forward $26 $-1 #
coedge $-1 $188 $189 $66 $112 reversed $173 $-1 #
edge $-1 $119 -62.977996154667807 $190 62.977996154667807 $111 $191 forward 7 unknown #
coedge $-1 $105 $192 $67 $114 reversed $63 $-1 #
edge $-1 $193 -62.977996154667807 $118 62.977996154667807 $113 $194 forward 7 unknown #
coedge $-1 $108 $68 $192 $195 forward $117 $-1 #
coedge $-1 $68 $108 $188 $196 reversed $117 $-1 #
loop $-1 $-1 $115 $172 #
vertex $-1 $69 $197 #
vertex $-1 $69 $198 #
straight-curve $-1 62.977996154667807 0 12.741519656764488 0 1 0 I I #
face $-1 $199 $200 $16 $-1 $123 reversed single #
loop $-1 $-1 $201 $70 #
plane-surface $-1 0 -41.406874469964194 0 0 1 0 0 0 1 forward_v I I I I #
coedge $-1 $202 $132 $203 $204 forward $71 $-1 #
coedge $-1 $205 $73 $202 $206 forward $45 $-1 #
coedge $-1 $73 $205 $201 $207 reversed $45 $-1 #
coedge $-1 $208 $134 $73 $128 reversed $136 $-1 #
edge $-1 $209 -5.4915067026187359 $210 5.4915067026187359 $127 $211 forward 7 unknown #
coedge $-1 $75 $74 $212 $213 forward $29 $-1 #
coedge $-1 $214 $215 $74 $131 forward $200 $-1 #
edge $-1 $216 -62.977996154667807 $138 62.977996154667807 $130 $217 forward 7 unknown #
coedge $-1 $124 $218 $75 $133 reversed $71 $-1 #
edge $-1 $219 -62.977996154667807 $137 62.977996154667807 $132 $220 forward 7 unknown #
coedge $-1 $127 $76 $218 $221 forward $136 $-1 #
coedge $-1 $76 $222 $214 $223 forward $136 $-1 #
loop $-1 $-1 $135 $224 #
vertex $-1 $77 $225 #
vertex $-1 $77 $226 #
straight-curve $-1 62.977996154667807 -46.89838117258293 7.8225185630211129 0 1 0 I I #
face $-1 $227 $228 $17 $-1 $229 forward single #
loop $-1 $-1 $148 $78 #
plane-surface $-1 -62.977996154667807 0 0 1 0 0 0 0 -1 forward_v I I I I #
coedge $-1 $84 $230 $81 $146 forward $79 $-1 #
coedge $-1 $231 $81 $232 $233 reversed $49 $-1 #
coedge $-1 $81 $231 $82 $147 reversed $49 $-1 #
edge $-1 $234 -23.046370502326965 $151 -13.674637432947492 $143 $235 forward 7 unknown #
edge $-1 $151 -17.82680986580727 $236 0 $82 $237 forward 7 unknown #
coedge $-1 $238 $239 $83 $149 forward $141 $-1 #
edge $-1 $152 37.768937902226732 $236 48.744218102195106 $148 $240 forward 7 unknown #
coedge $-1 $241 $84 $239 $242 forward $79 $-1 #
vertex $-1 $146 $243 #
vertex $-1 $242 $244 #
straight-curve $-1 -70.262124589204603 32.03514140058472 12.741519656764488 -1 0 0 I I #
face $-1 $245 $246 $18 $-1 $247 forward single #
loop $-1 $248 $92 $86 #
plane-surface $-1 -62.977996154667807 36.721007935274457 1.7662394567961144 -0.61566148304635926 0 0.78801074757464917 0.78801074757464917 0 0.61566148304635926 forward_v I I I I #
coedge $-1 $249 $250 $251 $252 reversed $87 $-1 #
coedge $-1 $158 $158 $-1 $253 forward $89 $-1 #
edge $-1 $254 0 $254 6.2831853071796004 $90 $255 forward 7 unknown #
vertex $-1 $93 $256 #
ellipse-curve $-1 -55.954137270054844 34.712779420407429 7.2538795567803023 0.61566148304635926 0 -0.78801074757464917 0.78801074757464917 0 0.61566148304635926 1 I I #
face $-1 $257 $258 $19 $-1 $259 forward single #
loop $-1 $260 $261 $94 #
cone-surface $-1 -54.931833322125186 34.712779420407429 5.945390199495133 0.61566148304635926 0 -0.78801074757464917 0.39400537378732459 0 0.30783074152317963 1 I I -0.70710678118654746 0.70710678118654746 0.5 forward I I I I #
loop $-1 $-1 $262 $57 #
coedge $-1 $166 $166 $263 $264 reversed $95 $-1 #
coedge $-1 $167 $167 $-1 $265 forward $97 $-1 #
edge $-1 $266 0 $266 6.2831853071796004 $98 $267 forward 7 unknown #
loop $-1 $268 $100 $257 #
vertex $-1 $101 $269 #
ellipse-curve $-1 -55.954137270054844 38.729236450141485 7.2538795567803023 0.61566148304635926 0 -0.78801074757464917 0.78801074757464917 0 0.61566148304635926 1 I I #
face $-1 $-1 $117 $15 $-1 $270 reversed single #
loop $-1 $-1 $188 $102 #
plane-surface $-1 0 41.406874469964194 0 0 -1 0 0 0 -1 forward_v I I I I #
coedge $-1 $271 $186 $189 $272 forward $103 $-1 #
coedge $-1 $192 $105 $106 $180 reversed $63 $-1 #
coedge $-1 $186 $271 $105 $178 reversed $103 $-1 #
edge $-1 $193 -12.741519656764488 $273 12.741519656764488 $177 $274 forward 7 unknown #
coedge $-1 $107 $106 $271 $275 forward $41 $-1 #
edge $-1 $184 -62.977996154667807 $273 62.977996154667807 $176 $276 forward 7 unknown #
coedge $-1 $189 $188 $107 $182 reversed $173 $-1 #
edge $-1 $277 -62.977996154667807 $183 62.977996154667807 $181 $278 forward 7 unknown #
vertex $-1 $109 $279 #
vertex $-1 $195 $280 #
straight-curve $-1 62.977996154667807 0 -12.741519656764488 0 -1 0 I I #
coedge $-1 $175 $177 $110 $187 reversed $103 $-1 #
edge $-1 $190 -41.406874469964194 $193 41.406874469964194 $186 $281 forward 7 unknown #
coedge $-1 $181 $111 $116 $196 forward $173 $-1 #
coedge $-1 $111 $181 $175 $272 reversed $173 $-1 #
vertex $-1 $112 $282 #
straight-curve $-1 0 41.406874469964194 12.741519656764488 -1 0 0 I I #
coedge $-1 $113 $176 $115 $195 reversed $63 $-1 #
vertex $-1 $187 $283 #
straight-curve $-1 0 -41.406874469964194 12.741519656764488 1 0 0 I I #
edge $-1 $118 -12.741519656764488 $184 12.741519656764488 $115 $284 forward 7 unknown #
edge $-1 $119 -12.741519656764488 $183 12.741519656764488 $116 $285 forward 7 unknown #
point $-1 62.977996154667807 -41.406874469964194 12.741519656764488 #
point $-1 62.977996154667807 41.406874469964194 12.741519656764488 #
face $-1 $286 $287 $16 $-1 $288 forward single #
loop $-1 $-1 $130 $121 #
coedge $-1 $289 $290 $126 $207 forward $122 $-1 #
coedge $-1 $218 $124 $125 $206 reversed $71 $-1 #
coedge $-1 $212 $291 $124 $204 reversed $292 $-1 #
edge $-1 $219 -1.5 $293 1.5 $203 $294 forward 7 unknown #
coedge $-1 $126 $125 $291 $295 forward $45 $-1 #
edge $-1 $210 -62.977996154667807 $293 62.977996154667807 $202 $296 forward 7 unknown #
edge $-1 $209 -62.977996154667807 $297 62.977996154667807 $201 $298 forward 7 unknown #
coedge $-1 $299 $127 $290 $300 forward $136 $-1 #
vertex $-1 $300 $301 #
vertex $-1 $221 $302 #
straight-curve $-1 62.977996154667807 -46.89838117258293 4.8225185630211129 0 -1 0 I I #
coedge $-1 $303 $203 $129 $213 reversed $292 $-1 #
edge $-1 $216 -5.4915067026187359 $219 5.4915067026187359 $212 $304 forward 7 unknown #
coedge $-1 $305 $130 $135 $223 reversed $200 $-1 #
coedge $-1 $130 $305 $303 $306 forward $200 $-1 #
vertex $-1 $306 $307 #
straight-curve $-1 0 -41.406874469964194 7.8225185630211129 1 0 0 I I #
coedge $-1 $132 $202 $134 $221 reversed $71 $-1 #
vertex $-1 $213 $308 #
straight-curve $-1 0 -52.389887875201666 7.8225185630211129 1 0 0 I I #
edge $-1 $137 -1.5 $210 1.5 $134 $309 forward 7 unknown #
coedge $-1 $135 $310 $311 $312 reversed $136 $-1 #
edge $-1 $313 -12.741519656764488 $138 -7.8225185630211129 $135 $314 forward 7 unknown #
face $-1 $-1 $136 $16 $-1 $315 reversed single #
point $-1 62.977996154667807 -52.389887875201666 7.8225185630211129 #
point $-1 62.977996154667807 -41.406874469964194 7.8225185630211129 #
face $-1 $316 $317 $17 $-1 $318 reversed single #
loop $-1 $-1 $319 $140 #
plane-surface $-1 0 -46.89838117258293 7.8225185630211129 0 0 1 1 0 0 forward_v I I I I #
coedge $-1 $143 $320 $321 $322 forward $79 $-1 #
coedge $-1 $145 $144 $238 $323 reversed $49 $-1 #
coedge $-1 $321 $324 $144 $233 forward $325 $-1 #
edge $-1 $326 -24.269966113603537 $234 -6.4431562477962636 $232 $327 forward 7 unknown #
vertex $-1 $233 $328 #
straight-curve $-1 -48.930278385441888 18.360503967637229 12.741519656764488 0 -1 0 I I #
vertex $-1 $323 $329 #
straight-curve $-1 -62.977996154667807 32.03514140058472 1.7662394567961144 -0.78801074757464917 0 -0.61566148304635926 I I #
coedge $-1 $330 $148 $231 $323 forward $141 $-1 #
coedge $-1 $148 $331 $150 $242 reversed $141 $-1 #
straight-curve $-1 -62.977996154667807 32.03514140058472 50.51045755899122 0 0 -1 I I #
coedge $-1 $320 $150 $332 $333 forward $79 $-1 #
edge $-1 $152 -32.03514140058472 $334 41.406874469964194 $239 $335 forward 7 unknown #
point $-1 -48.930278385441888 32.03514140058472 12.741519656764488 #
point $-1 -62.977996154667807 32.03514140058472 12.741519656764488 #
face $-1 $336 $337 $18 $-1 $338 reversed single #
loop $-1 $-1 $339 $154 #
plane-surface $-1 0 0 12.741519656764488 0 0 1 1 0 0 forward_v I I I I #
loop $-1 $-1 $340 $86 #
coedge $-1 $250 $157 $341 $342 forward $87 $-1 #
coedge $-1 $157 $249 $343 $344 reversed $87 $-1 #
coedge $-1 $345 $339 $157 $252 forward $246 $-1 #
edge $-1 $346 -21.331846203762716 $347 -7.2841284345367967 $251 $348 forward 7 unknown #
edge $-1 $349 1 $349 0 $158 $-1 forward 7 unknown #
vertex $-1 $159 $350 #
ellipse-curve $-1 -55.239664063648362 34.712779420407429 6.3393955732824576 -0.61566148304635926 0 0.78801074757464917 0.78801074757464917 0 0.61566148304635926 1 I I #
point $-1 -55.166126522480191 34.712779420407429 7.8695410398266521 #
face $-1 $351 $169 $19 $-1 $352 forward single #
loop $-1 $-1 $353 $162 #
plane-surface $-1 -140.52424917840921 32.03514140058472 101.02091511798244 0 1 0 -0.61566148304635926 0 0.78801074757464917 forward_v I I I I #
loop $-1 $-1 $354 $94 #
coedge $-1 $261 $261 $262 $355 forward $163 $-1 #
coedge $-1 $262 $262 $261 $355 reversed $165 $-1 #
coedge $-1 $263 $263 $166 $264 forward $268 $-1 #
edge $-1 $356 0 $356 6.2831853071796004 $263 $357 forward 7 unknown #
edge $-1 $358 1 $358 0 $167 $-1 forward 7 unknown #
vertex $-1 $168 $359 #
ellipse-curve $-1 -55.239664063648362 38.729236450141485 6.3393955732824576 -0.61566148304635926 0 0.78801074757464917 0.78801074757464917 0 0.61566148304635926 1 I I #
loop $-1 $360 $263 $257 #
point $-1 -55.166126522480191 38.729236450141485 7.8695410398266521 #
plane-surface $-1 62.977996154667807 0 0 -1 0 0 0 0 1 forward_v I I I I #
coedge $-1 $177 $175 $179 $275 reversed $103 $-1 #
edge $-1 $190 -12.741519656764488 $277 12.741519656764488 $189 $361 forward 7 unknown #
vertex $-1 $275 $362 #
straight-curve $-1 -62.977996154667807 -41.406874469964194 0 0 0 -1 I I #
edge $-1 $273 -41.406874469964194 $277 41.406874469964194 $271 $363 forward 7 unknown #
straight-curve $-1 0 -41.406874469964194 -12.741519656764488 -1 0 0 I I #
vertex $-1 $182 $364 #
straight-curve $-1 0 41.406874469964194 -12.741519656764488 1 0 0 I I #
point $-1 62.977996154667807 41.406874469964194 -12.741519656764488 #
point $-1 62.977996154667807 -41.406874469964194 -12.741519656764488 #
straight-curve $-1 -62.977996154667807 0 12.741519656764488 0 -1 0 I I #
point $-1 -62.977996154667807 41.406874469964194 12.741519656764488 #
point $-1 -62.977996154667807 -41.406874469964194 12.741519656764488 #
straight-curve $-1 62.977996154667807 -41.406874469964194 0 0 0 -1 I I #
straight-curve $-1 62.977996154667807 41.406874469964194 0 0 0 -1 I I #
face $-1 $365 $366 $16 $-1 $367 reversed single #
loop $-1 $-1 $311 $199 #
plane-surface $-1 0 0 12.741519656764488 0 0 1 1 0 0 forward_v I I I I #
coedge $-1 $368 $201 $369 $370 forward $122 $-1 #
coedge $-1 $201 $368 $208 $300 reversed $122 $-1 #
coedge $-1 $203 $369 $205 $295 reversed $292 $-1 #
loop $-1 $-1 $371 $365 #
vertex $-1 $295 $372 #
straight-curve $-1 -62.977996154667807 -52.389887875201666 6.3225185630211129 0 0 -1 I I #
edge $-1 $293 -5.4915067026187359 $297 5.4915067026187359 $291 $373 forward 7 unknown #
straight-curve $-1 0 -52.389887875201666 4.8225185630211129 -1 0 0 I I #
vertex $-1 $370 $374 #
straight-curve $-1 0 -41.406874469964194 4.8225185630211129 -1 0 0 I I #
coedge $-1 $310 $208 $375 $376 reversed $136 $-1 #
edge $-1 $209 -4.8225185630211129 $377 12.741519656764488 $208 $314 forward 7 unknown #
point $-1 62.977996154667807 -41.406874469964194 4.8225185630211129 #
point $-1 62.977996154667807 -52.389887875201666 4.8225185630211129 #
coedge $-1 $378 $212 $215 $306 reversed $292 $-1 #
straight-curve $-1 -62.977996154667807 -46.89838117258293 7.8225185630211129 0 -1 0 I I #
coedge $-1 $215 $214 $379 $380 reversed $200 $-1 #
edge $-1 $381 -12.741519656764488 $216 -7.8225185630211129 $303 $382 forward 7 unknown #
point $-1 -62.977996154667807 -41.406874469964194 7.8225185630211129 #
point $-1 -62.977996154667807 -52.389887875201666 7.8225185630211129 #
straight-curve $-1 62.977996154667807 -52.389887875201666 6.3225185630211129 0 0 -1 I I #
coedge $-1 $222 $299 $383 $384 reversed $136 $-1 #
coedge $-1 $385 $379 $222 $312 forward $287 $-1 #
edge $-1 $313 -41.406874469964194 $386 41.406874469964194 $222 $387 forward 7 unknown #
vertex $-1 $312 $388 #
straight-curve $-1 62.977996154667807 -41.406874469964194 0 0 0 -1 I I #
plane-surface $-1 62.977996154667807 0 0 -1 0 0 0 0 1 forward_v I I I I #
face $-1 $389 $390 $17 $-1 $391 reversed single #
loop $-1 $-1 $392 $227 #
plane-surface $-1 0 -46.89838117258293 4.8225185630211129 0 0 1 1 0 0 forward_v I I I I #
coedge $-1 $393 $394 $395 $396 forward $228 $-1 #
coedge $-1 $230 $241 $397 $398 forward $79 $-1 #
coedge $-1 $399 $232 $230 $322 reversed $325 $-1 #
edge $-1 $400 -62.977996154667807 $234 48.930278385441888 $321 $401 forward 7 unknown #
edge $-1 $236 13.674637432947492 $326 23.046370502326965 $238 $402 forward 7 unknown #
coedge $-1 $232 $403 $330 $404 reversed $325 $-1 #
loop $-1 $-1 $232 $405 #
vertex $-1 $404 $406 #
straight-curve $-1 -43.853002013875681 41.406874469964194 16.708322787782151 0.78801074757464917 0 0.61566148304635926 I I #
point $-1 -48.930278385441888 41.406874469964194 12.741519656764488 #
point $-1 -62.977996154667807 32.03514140058472 1.7662394567961144 #
coedge $-1 $407 $238 $324 $404 forward $141 $-1 #
coedge $-1 $239 $408 $409 $410 reversed $141 $-1 #
coedge $-1 $409 $411 $241 $333 reversed $412 $-1 #
edge $-1 $334 -62.977996154667807 $413 62.977996154667807 $332 $414 forward 7 unknown #
vertex $-1 $242 $415 #
straight-curve $-1 -62.977996154667807 0 12.741519656764488 0 -1 0 I I #
face $-1 $416 $417 $18 $-1 $418 forward single #
loop $-1 $-1 $343 $245 #
plane-surface $-1 -62.977996154667807 0 0 1 0 0 0 0 -1 forward_v I I I I #
coedge $-1 $251 $419 $340 $420 forward $246 $-1 #
coedge $-1 $421 $341 $339 $420 reversed $248 $-1 #
coedge $-1 $340 $422 $249 $342 reversed $248 $-1 #
edge $-1 $346 -17.82680986580727 $423 0 $249 $424 forward 7 unknown #
coedge $-1 $425 $426 $250 $344 forward $337 $-1 #
edge $-1 $347 37.768937902226732 $423 48.744218102195106 $343 $427 forward 7 unknown #
coedge $-1 $428 $251 $426 $429 forward $246 $-1 #
vertex $-1 $420 $430 #
vertex $-1 $429 $431 #
straight-curve $-1 -70.262124589204603 32.03514140058472 12.741519656764488 -1 0 0 I I #
vertex $-1 $253 $432 #
point $-1 -54.451653316073717 34.712779420407429 6.9550570563288172 #
face $-1 $433 $434 $19 $-1 $435 forward single #
plane-surface $-1 -62.977996154667807 36.721007935274457 1.7662394567961144 -0.61566148304635926 0 0.78801074757464917 0.78801074757464917 0 0.61566148304635926 forward_v I I I I #
coedge $-1 $436 $437 $438 $439 reversed $258 $-1 #
coedge $-1 $354 $354 $-1 $440 forward $260 $-1 #
edge $-1 $441 0 $441 6.2831853071796004 $261 $442 forward 7 unknown #
vertex $-1 $264 $443 #
ellipse-curve $-1 -55.954137270054844 34.712779420407429 7.2538795567803023 0.61566148304635926 0 -0.78801074757464917 0.78801074757464917 0 0.61566148304635926 1 I I #
vertex $-1 $265 $444 #
point $-1 -54.451653316073717 38.729236450141485 6.9550570563288172 #
loop $-1 $-1 $445 $257 #
straight-curve $-1 -62.977996154667807 41.406874469964194 0 0 0 -1 I I #
point $-1 -62.977996154667807 -41.406874469964194 -12.741519656764488 #
straight-curve $-1 -62.977996154667807 0 -12.741519656764488 0 1 0 I I #
point $-1 -62.977996154667807 41.406874469964194 -12.741519656764488 #
face $-1 $446 $292 $16 $-1 $447 reversed single #
loop $-1 $-1 $375 $286 #
plane-surface $-1 0 0 -12.741519656764488 0 0 1 1 0 0 forward_v I I I I #
coedge $-1 $290 $289 $448 $449 reversed $122 $-1 #
coedge $-1 $291 $450 $289 $370 reversed $292 $-1 #
edge $-1 $297 -4.8225185630211129 $451 12.741519656764488 $369 $382 forward 7 unknown #
coedge $-1 $450 $378 $452 $453 forward $292 $-1 #
point $-1 -62.977996154667807 -52.389887875201666 4.8225185630211129 #
straight-curve $-1 -62.977996154667807 -46.89838117258293 4.8225185630211129 0 1 0 I I #
point $-1 -62.977996154667807 -41.406874469964194 4.8225185630211129 #
coedge $-1 $448 $454 $299 $376 forward $366 $-1 #
edge $-1 $455 -41.406874469964194 $377 41.406874469964194 $299 $456 forward 7 unknown #
vertex $-1 $300 $457 #
coedge $-1 $371 $303 $458 $459 reversed $292 $-1 #
coedge $-1 $311 $458 $305 $380 forward $287 $-1 #
edge $-1 $381 -62.977996154667807 $313 62.977996154667807 $305 $460 forward 7 unknown #
vertex $-1 $459 $461 #
straight-curve $-1 -62.977996154667807 -41.406874469964194 0 0 0 -1 I I #
coedge $-1 $462 $463 $310 $384 forward $464 $-1 #
edge $-1 $386 -12.741519656764488 $455 12.741519656764488 $310 $465 forward 7 unknown #
coedge $-1 $458 $311 $463 $466 forward $287 $-1 #
vertex $-1 $312 $467 #
straight-curve $-1 62.977996154667807 0 12.741519656764488 0 1 0 I I #
point $-1 62.977996154667807 -41.406874469964194 12.741519656764488 #
face $-1 $468 $469 $17 $-1 $470 reversed single #
loop $-1 $-1 $471 $316 #
plane-surface $-1 0 -52.389887875201666 6.3225185630211129 0 1 0 0 0 1 forward_v I I I I #
coedge $-1 $472 $473 $474 $475 forward $317 $-1 #
coedge $-1 $476 $319 $477 $478 reversed $228 $-1 #
coedge $-1 $319 $476 $479 $480 forward $228 $-1 #
coedge $-1 $481 $482 $319 $396 reversed $483 $-1 #
edge $-1 $484 -5.4915067026187359 $485 5.4915067026187359 $395 $486 forward 7 unknown #
coedge $-1 $482 $487 $320 $398 reversed $483 $-1 #
edge $-1 $413 -41.406874469964194 $400 41.406874469964194 $397 $488 forward 7 unknown #
coedge $-1 $403 $321 $487 $489 forward $325 $-1 #
vertex $-1 $398 $490 #
straight-curve $-1 0 41.406874469964194 12.741519656764488 -1 0 0 I I #
straight-curve $-1 -62.977996154667807 18.360503967637229 1.7662394567961146 0 1 0 I I #
coedge $-1 $324 $399 $491 $492 reversed $325 $-1 #
edge $-1 $326 -1.7662394567961144 $493 12.741519656764488 $324 $494 forward 7 unknown #
face $-1 $495 $325 $17 $-1 $496 reversed single #
point $-1 -62.977996154667807 41.406874469964194 1.7662394567961144 #
coedge $-1 $497 $330 $498 $499 reversed $141 $-1 #
coedge $-1 $331 $500 $476 $501 reversed $141 $-1 #
coedge $-1 $477 $332 $331 $410 forward $412 $-1 #
edge $-1 $334 -12.741519656764488 $502 -7.8225185630211129 $331 $503 forward 7 unknown #
coedge $-1 $332 $477 $482 $504 reversed $412 $-1 #
loop $-1 $-1 $477 $468 #
vertex $-1 $398 $505 #
straight-curve $-1 0 -41.406874469964194 12.741519656764488 1 0 0 I I #
point $-1 -62.977996154667807 -41.406874469964194 12.741519656764488 #
face $-1 $506 $507 $18 $-1 $508 reversed single #
loop $-1 $-1 $509 $336 #
plane-surface $-1 0 -46.89838117258293 7.8225185630211129 0 0 1 1 0 0 forward_v I I I I #
coedge $-1 $339 $510 $511 $512 forward $246 $-1 #
edge $-1 $513 -23.046370502326965 $346 -13.674637432947492 $339 $514 forward 7 unknown #
coedge $-1 $422 $340 $515 $516 reversed $248 $-1 #
coedge $-1 $341 $421 $425 $517 reversed $248 $-1 #
vertex $-1 $517 $518 #
straight-curve $-1 -62.977996154667807 32.03514140058472 1.7662394567961144 -0.78801074757464917 0 -0.61566148304635926 I I #
coedge $-1 $519 $343 $422 $517 forward $337 $-1 #
coedge $-1 $343 $520 $345 $429 reversed $337 $-1 #
straight-curve $-1 -62.977996154667807 32.03514140058472 50.51045755899122 0 0 -1 I I #
coedge $-1 $510 $345 $521 $522 forward $246 $-1 #
edge $-1 $347 -32.03514140058472 $523 41.406874469964194 $426 $524 forward 7 unknown #
point $-1 -48.930278385441888 32.03514140058472 12.741519656764488 #
point $-1 -62.977996154667807 32.03514140058472 12.741519656764488 #
point $-1 -54.62400258060201 34.712779420407429 5.5513848257078084 #
face $-1 $525 $526 $19 $-1 $527 reversed single #
loop $-1 $-1 $528 $351 #
plane-surface $-1 0 0 12.741519656764488 0 0 1 1 0 0 forward_v I I I I #
coedge $-1 $437 $353 $529 $530 forward $258 $-1 #
coedge $-1 $353 $436 $531 $532 reversed $258 $-1 #
coedge $-1 $533 $528 $353 $439 forward $434 $-1 #
edge $-1 $534 -21.331846203762716 $535 -7.2841284345367967 $438 $536 forward 7 unknown #
edge $-1 $537 1 $537 0 $354 $-1 forward 7 unknown #
vertex $-1 $355 $538 #
ellipse-curve $-1 -55.239664063648362 34.712779420407429 6.3393955732824576 -0.61566148304635926 0 0.78801074757464917 0.78801074757464917 0 0.61566148304635926 1 I I #
point $-1 -55.166126522480191 34.712779420407429 7.8695410398266521 #
point $-1 -54.62400258060201 38.729236450141485 5.5513848257078084 #
coedge $-1 $539 $529 $528 $540 reversed $360 $-1 #
face $-1 $224 $464 $16 $-1 $541 reversed single #
plane-surface $-1 -62.977996154667807 0 0 1 0 0 0 0 -1 forward_v I I I I #
coedge $-1 $542 $375 $368 $449 forward $366 $-1 #
edge $-1 $377 -62.977996154667807 $451 62.977996154667807 $368 $543 forward 7 unknown #
coedge $-1 $369 $371 $542 $544 reversed $292 $-1 #
vertex $-1 $544 $545 #
coedge $-1 $463 $462 $371 $453 reversed $464 $-1 #
edge $-1 $546 -12.741519656764488 $547 12.741519656764488 $452 $548 forward 7 unknown #
coedge $-1 $375 $542 $462 $549 forward $366 $-1 #
vertex $-1 $376 $550 #
straight-curve $-1 62.977996154667807 0 -12.741519656764488 0 -1 0 I I #
point $-1 62.977996154667807 -41.406874469964194 -12.741519656764488 #
coedge $-1 $379 $385 $378 $459 forward $287 $-1 #
edge $-1 $546 -41.406874469964194 $381 41.406874469964194 $378 $551 forward 7 unknown #
straight-curve $-1 0 -41.406874469964194 12.741519656764488 1 0 0 I I #
point $-1 -62.977996154667807 -41.406874469964194 12.741519656764488 #
coedge $-1 $452 $383 $454 $549 reversed $464 $-1 #
coedge $-1 $383 $452 $385 $466 reversed $464 $-1 #
loop $-1 $-1 $383 $446 #
straight-curve $-1 62.977996154667807 41.406874469964194 0 0 0 -1 I I #
edge $-1 $386 -62.977996154667807 $546 62.977996154667807 $463 $552 forward 7 unknown #
point $-1 62.977996154667807 41.406874469964194 12.741519656764488 #
face $-1 $553 $412 $17 $-1 $470 reversed single #
loop $-1 $-1 $554 $389 #
plane-surface $-1 0 -41.406874469964194 0 0 1 0 0 0 1 forward_v I I I I #
coedge $-1 $555 $479 $500 $556 forward $390 $-1 #
coedge $-1 $557 $392 $555 $558 forward $317 $-1 #
coedge $-1 $392 $557 $554 $559 reversed $317 $-1 #
coedge $-1 $560 $481 $392 $475 reversed $483 $-1 #
edge $-1 $561 -5.4915067026187359 $562 5.4915067026187359 $474 $563 forward 7 unknown #
coedge $-1 $394 $393 $408 $501 forward $228 $-1 #
coedge $-1 $411 $409 $393 $478 forward $412 $-1 #
edge $-1 $502 -62.977996154667807 $485 62.977996154667807 $477 $564 forward 7 unknown #
coedge $-1 $471 $565 $394 $480 reversed $390 $-1 #
edge $-1 $566 -62.977996154667807 $484 62.977996154667807 $479 $567 forward 7 unknown #
coedge $-1 $474 $395 $565 $568 forward $483 $-1 #
coedge $-1 $395 $397 $411 $504 forward $483 $-1 #
loop $-1 $-1 $482 $495 #
vertex $-1 $396 $569 #
vertex $-1 $396 $570 #
straight-curve $-1 62.977996154667807 -46.89838117258293 7.8225185630211129 0 1 0 I I #
coedge $-1 $397 $571 $399 $489 reversed $483 $-1 #
straight-curve $-1 62.977996154667807 0 12.741519656764488 0 1 0 I I #
edge $-1 $400 -12.741519656764488 $572 12.741519656764488 $487 $573 forward 7 unknown #
point $-1 62.977996154667807 41.406874469964194 12.741519656764488 #
coedge $-1 $574 $498 $403 $492 forward $575 $-1 #
edge $-1 $493 -62.977996154667807 $572 62.977996154667807 $403 $576 forward 7 unknown #
vertex $-1 $492 $577 #
straight-curve $-1 -62.977996154667807 41.406874469964194 0 0 0 -1 I I #
face $-1 $-1 $483 $17 $-1 $578 reversed single #
plane-surface $-1 0 41.406874469964194 0 0 -1 0 0 0 -1 forward_v I I I I #
coedge $-1 $579 $407 $580 $581 reversed $141 $-1 #
coedge $-1 $491 $582 $407 $499 forward $575 $-1 #
edge $-1 $583 -41.406874469964194 $493 41.406874469964194 $407 $584 forward 7 unknown #
coedge $-1 $408 $579 $471 $556 reversed $141 $-1 #
edge $-1 $502 -5.4915067026187359 $566 5.4915067026187359 $408 $585 forward 7 unknown #
vertex $-1 $410 $586 #
straight-curve $-1 -62.977996154667807 -41.406874469964194 0 0 0 -1 I I #
edge $-1 $413 -12.741519656764488 $485 -7.8225185630211129 $482 $587 forward 7 unknown #
point $-1 62.977996154667807 -41.406874469964194 12.741519656764488 #
face $-1 $588 $589 $18 $-1 $590 reversed single #
loop $-1 $-1 $591 $416 #
plane-surface $-1 0 -46.89838117258293 4.8225185630211129 0 0 1 1 0 0 forward_v I I I I #
coedge $-1 $592 $593 $594 $595 forward $417 $-1 #
coedge $-1 $419 $428 $596 $597 forward $246 $-1 #
coedge $-1 $598 $515 $419 $512 reversed $599 $-1 #
edge $-1 $600 -62.977996154667807 $513 48.930278385441888 $511 $601 forward 7 unknown #
vertex $-1 $516 $602 #
straight-curve $-1 -48.930278385441888 18.360503967637229 12.741519656764488 0 -1 0 I I #
coedge $-1 $511 $603 $421 $516 forward $599 $-1 #
edge $-1 $604 -24.269966113603537 $513 -6.4431562477962636 $515 $605 forward 7 unknown #
edge $-1 $423 13.674637432947492 $604 23.046370502326965 $425 $606 forward 7 unknown #
point $-1 -62.977996154667807 32.03514140058472 1.7662394567961144 #
coedge $-1 $607 $425 $603 $608 forward $337 $-1 #
coedge $-1 $426 $609 $610 $611 reversed $337 $-1 #
coedge $-1 $610 $612 $428 $522 reversed $613 $-1 #
edge $-1 $523 -62.977996154667807 $614 62.977996154667807 $521 $615 forward 7 unknown #
vertex $-1 $429 $616 #
straight-curve $-1 -62.977996154667807 0 12.741519656764488 0 -1 0 I I #
face $-1 $617 $618 $19 $-1 $619 forward single #
loop $-1 $-1 $531 $433 #
plane-surface $-1 -62.977996154667807 0 0 1 0 0 0 0 -1 forward_v I I I I #
coedge $-1 $438 $620 $445 $540 forward $434 $-1 #
coedge $-1 $445 $621 $436 $530 reversed $360 $-1 #
edge $-1 $534 -17.82680986580727 $622 0 $436 $623 forward 7 unknown #
coedge $-1 $624 $625 $437 $532 forward $526 $-1 #
edge $-1 $535 37.768937902226732 $622 48.744218102195106 $531 $626 forward 7 unknown #
coedge $-1 $627 $438 $625 $628 forward $434 $-1 #
vertex $-1 $540 $629 #
vertex $-1 $628 $630 #
straight-curve $-1 -70.262124589204603 32.03514140058472 12.741519656764488 -1 0 0 I I #
vertex $-1 $440 $631 #
point $-1 -54.451653316073717 34.712779420407429 6.9550570563288172 #
coedge $-1 $621 $445 $632 $633 reversed $360 $-1 #
edge $-1 $634 -23.046370502326965 $534 -13.674637432947492 $528 $635 forward 7 unknown #
plane-surface $-1 0 41.406874469964194 0 0 -1 0 0 0 -1 forward_v I I I I #
coedge $-1 $454 $448 $450 $544 forward $366 $-1 #
straight-curve $-1 0 -41.406874469964194 -12.741519656764488 -1 0 0 I I #
edge $-1 $451 -41.406874469964194 $547 41.406874469964194 $450 $636 forward 7 unknown #
point $-1 -62.977996154667807 -41.406874469964194 -12.741519656764488 #
vertex $-1 $466 $637 #
vertex $-1 $549 $638 #
straight-curve $-1 -62.977996154667807 41.406874469964194 0 0 0 -1 I I #
edge $-1 $547 -62.977996154667807 $455 62.977996154667807 $462 $639 forward 7 unknown #
point $-1 62.977996154667807 41.406874469964194 -12.741519656764488 #
straight-curve $-1 -62.977996154667807 0 12.741519656764488 0 -1 0 I I #
straight-curve $-1 0 41.406874469964194 12.741519656764488 -1 0 0 I I #
face $-1 $405 $575 $17 $-1 $640 reversed single #
coedge $-1 $580 $641 $473 $559 forward $469 $-1 #
coedge $-1 $565 $471 $472 $558 reversed $390 $-1 #
edge $-1 $566 -1.5 $642 1.5 $500 $643 forward 7 unknown #
coedge $-1 $473 $472 $579 $644 forward $317 $-1 #
edge $-1 $562 -62.977996154667807 $642 62.977996154667807 $555 $645 forward 7 unknown #
edge $-1 $561 -62.977996154667807 $646 62.977996154667807 $554 $647 forward 7 unknown #
coedge $-1 $571 $474 $641 $648 forward $483 $-1 #
vertex $-1 $648 $649 #
vertex $-1 $568 $650 #
straight-curve $-1 62.977996154667807 -46.89838117258293 4.8225185630211129 0 -1 0 I I #
straight-curve $-1 0 -41.406874469964194 7.8225185630211129 1 0 0 I I #
coedge $-1 $479 $555 $481 $568 reversed $390 $-1 #
vertex $-1 $501 $651 #
straight-curve $-1 0 -52.389887875201666 7.8225185630211129 1 0 0 I I #
edge $-1 $484 -1.5 $562 1.5 $481 $652 forward 7 unknown #
point $-1 62.977996154667807 -52.389887875201666 7.8225185630211129 #
point $-1 62.977996154667807 -41.406874469964194 7.8225185630211129 #
coedge $-1 $487 $560 $574 $653 reversed $483 $-1 #
vertex $-1 $653 $654 #
straight-curve $-1 62.977996154667807 41.406874469964194 0 0 0 -1 I I #
coedge $-1 $582 $491 $571 $653 forward $575 $-1 #
loop $-1 $-1 $574 $553 #
straight-curve $-1 0 41.406874469964194 -12.741519656764488 1 0 0 I I #
point $-1 -62.977996154667807 41.406874469964194 -12.741519656764488 #
plane-surface $-1 62.977996154667807 0 0 -1 0 0 0 0 1 forward_v I I I I #
coedge $-1 $500 $497 $557 $644 reversed $141 $-1 #
coedge $-1 $655 $554 $497 $581 forward $469 $-1 #
edge $-1 $646 -4.8225185630211129 $583 12.741519656764488 $497 $503 forward 7 unknown #
coedge $-1 $498 $574 $655 $656 forward $575 $-1 #
vertex $-1 $499 $657 #
straight-curve $-1 -62.977996154667807 0 -12.741519656764488 0 1 0 I I #
straight-curve $-1 -62.977996154667807 -46.89838117258293 7.8225185630211129 0 -1 0 I I #
point $-1 -62.977996154667807 -41.406874469964194 7.8225185630211129 #
straight-curve $-1 62.977996154667807 -41.406874469964194 0 0 0 -1 I I #
face $-1 $658 $659 $18 $-1 $660 reversed single #
loop $-1 $-1 $661 $506 #
plane-surface $-1 0 -52.389887875201666 6.3225185630211129 0 1 0 0 0 1 forward_v I I I I #
coedge $-1 $662 $663 $664 $665 forward $507 $-1 #
coedge $-1 $666 $509 $667 $668 reversed $417 $-1 #
coedge $-1 $509 $666 $669 $670 forward $417 $-1 #
coedge $-1 $671 $672 $509 $595 reversed $673 $-1 #
edge $-1 $674 -5.4915067026187359 $675 5.4915067026187359 $594 $676 forward 7 unknown #
coedge $-1 $672 $677 $510 $597 reversed $673 $-1 #
edge $-1 $614 -41.406874469964194 $600 41.406874469964194 $596 $678 forward 7 unknown #
coedge $-1 $679 $511 $677 $680 forward $599 $-1 #
loop $-1 $-1 $515 $681 #
vertex $-1 $597 $682 #
straight-curve $-1 0 41.406874469964194 12.741519656764488 -1 0 0 I I #
point $-1 -48.930278385441888 41.406874469964194 12.741519656764488 #
coedge $-1 $515 $679 $519 $608 reversed $599 $-1 #
vertex $-1 $608 $683 #
straight-curve $-1 -43.853002013875681 41.406874469964194 16.708322787782151 0.78801074757464917 0 0.61566148304635926 I I #
straight-curve $-1 -62.977996154667807 18.360503967637229 1.7662394567961146 0 1 0 I I #
coedge $-1 $684 $519 $685 $686 reversed $337 $-1 #
edge $-1 $604 -1.7662394567961144 $687 12.741519656764488 $603 $688 forward 7 unknown #
coedge $-1 $520 $689 $666 $690 reversed $337 $-1 #
coedge $-1 $667 $521 $520 $611 forward $613 $-1 #
edge $-1 $523 -12.741519656764488 $691 -7.8225185630211129 $520 $692 forward 7 unknown #
coedge $-1 $521 $667 $672 $693 reversed $613 $-1 #
loop $-1 $-1 $667 $658 #
vertex $-1 $597 $694 #
straight-curve $-1 0 -41.406874469964194 12.741519656764488 1 0 0 I I #
point $-1 -62.977996154667807 -41.406874469964194 12.741519656764488 #
face $-1 $695 $696 $19 $-1 $697 reversed single #
loop $-1 $-1 $698 $525 #
plane-surface $-1 0 -46.89838117258293 7.8225185630211129 0 0 1 1 0 0 forward_v I I I I #
coedge $-1 $528 $699 $700 $701 forward $434 $-1 #
coedge $-1 $529 $539 $624 $702 reversed $360 $-1 #
vertex $-1 $702 $703 #
straight-curve $-1 -62.977996154667807 32.03514140058472 1.7662394567961144 -0.78801074757464917 0 -0.61566148304635926 I I #
coedge $-1 $704 $531 $621 $702 forward $526 $-1 #
coedge $-1 $531 $705 $533 $628 reversed $526 $-1 #
straight-curve $-1 -62.977996154667807 32.03514140058472 50.51045755899122 0 0 -1 I I #
coedge $-1 $699 $533 $706 $707 forward $434 $-1 #
edge $-1 $535 -32.03514140058472 $708 41.406874469964194 $625 $709 forward 7 unknown #
point $-1 -48.930278385441888 32.03514140058472 12.741519656764488 #
point $-1 -62.977996154667807 32.03514140058472 12.741519656764488 #
point $-1 -54.62400258060201 34.712779420407429 5.5513848257078084 #
coedge $-1 $700 $710 $539 $633 forward $711 $-1 #
edge $-1 $712 -24.269966113603537 $634 -6.4431562477962636 $632 $713 forward 7 unknown #
vertex $-1 $633 $714 #
straight-curve $-1 -48.930278385441888 18.360503967637229 12.741519656764488 0 -1 0 I I #
straight-curve $-1 -62.977996154667807 0 -12.741519656764488 0 1 0 I I #
point $-1 -62.977996154667807 41.406874469964194 12.741519656764488 #
point $-1 -62.977996154667807 41.406874469964194 -12.741519656764488 #
straight-curve $-1 0 41.406874469964194 -12.741519656764488 1 0 0 I I #
plane-surface $-1 0 0 -12.741519656764488 0 0 1 1 0 0 forward_v I I I I #
coedge $-1 $554 $655 $560 $648 reversed $469 $-1 #
vertex $-1 $644 $715 #
straight-curve $-1 -62.977996154667807 -52.389887875201666 6.3225185630211129 0 0 -1 I I #
edge $-1 $642 -5.4915067026187359 $646 5.4915067026187359 $579 $716 forward 7 unknown #
straight-curve $-1 0 -52.389887875201666 4.8225185630211129 -1 0 0 I I #
vertex $-1 $581 $717 #
straight-curve $-1 0 -41.406874469964194 4.8225185630211129 -1 0 0 I I #
edge $-1 $561 -4.8225185630211129 $718 12.741519656764488 $560 $587 forward 7 unknown #
point $-1 62.977996154667807 -41.406874469964194 4.8225185630211129 #
point $-1 62.977996154667807 -52.389887875201666 4.8225185630211129 #
point $-1 -62.977996154667807 -52.389887875201666 7.8225185630211129 #
straight-curve $-1 62.977996154667807 -52.389887875201666 6.3225185630211129 0 0 -1 I I #
edge $-1 $572 -41.406874469964194 $718 41.406874469964194 $571 $719 forward 7 unknown #
point $-1 62.977996154667807 41.406874469964194 -12.741519656764488 #
coedge $-1 $641 $580 $582 $656 reversed $469 $-1 #
edge $-1 $718 -62.977996154667807 $583 62.977996154667807 $655 $720 forward 7 unknown #
point $-1 -62.977996154667807 -41.406874469964194 -12.741519656764488 #
face $-1 $721 $613 $18 $-1 $660 reversed single #
loop $-1 $-1 $722 $588 #
plane-surface $-1 0 -41.406874469964194 0 0 1 0 0 0 1 forward_v I I I I #
coedge $-1 $723 $669 $689 $724 forward $589 $-1 #
coedge $-1 $725 $591 $723 $726 forward $507 $-1 #
coedge $-1 $591 $725 $722 $727 reversed $507 $-1 #
coedge $-1 $728 $671 $591 $665 reversed $673 $-1 #
edge $-1 $729 -5.4915067026187359 $730 5.4915067026187359 $664 $731 forward 7 unknown #
coedge $-1 $593 $592 $609 $690 forward $417 $-1 #
coedge $-1 $612 $610 $592 $668 forward $613 $-1 #
edge $-1 $691 -62.977996154667807 $675 62.977996154667807 $667 $732 forward 7 unknown #
coedge $-1 $661 $733 $593 $670 reversed $589 $-1 #
edge $-1 $734 -62.977996154667807 $674 62.977996154667807 $669 $735 forward 7 unknown #
coedge $-1 $664 $594 $733 $736 forward $673 $-1 #
coedge $-1 $594 $596 $612 $693 forward $673 $-1 #
loop $-1 $-1 $672 $737 #
vertex $-1 $595 $738 #
vertex $-1 $595 $739 #
straight-curve $-1 62.977996154667807 -46.89838117258293 7.8225185630211129 0 1 0 I I #
coedge $-1 $596 $740 $598 $680 reversed $673 $-1 #
straight-curve $-1 62.977996154667807 0 12.741519656764488 0 1 0 I I #
coedge $-1 $603 $598 $741 $742 reversed $599 $-1 #
edge $-1 $600 -12.741519656764488 $743 12.741519656764488 $677 $744 forward 7 unknown #
face $-1 $737 $599 $18 $-1 $745 reversed single #
point $-1 62.977996154667807 41.406874469964194 12.741519656764488 #
point $-1 -62.977996154667807 41.406874469964194 1.7662394567961144 #
coedge $-1 $746 $607 $747 $748 reversed $337 $-1 #
coedge $-1 $741 $749 $607 $686 forward $750 $-1 #
edge $-1 $751 -41.406874469964194 $687 41.406874469964194 $607 $752 forward 7 unknown #
vertex $-1 $742 $753 #
straight-curve $-1 -62.977996154667807 41.406874469964194 0 0 0 -1 I I #
coedge $-1 $609 $746 $661 $724 reversed $337 $-1 #
edge $-1 $691 -5.4915067026187359 $734 5.4915067026187359 $609 $754 forward 7 unknown #
vertex $-1 $611 $755 #
straight-curve $-1 -62.977996154667807 -41.406874469964194 0 0 0 -1 I I #
edge $-1 $614 -12.741519656764488 $675 -7.8225185630211129 $672 $756 forward 7 unknown #
point $-1 62.977996154667807 -41.406874469964194 12.741519656764488 #
face $-1 $757 $758 $19 $-1 $759 reversed single #
loop $-1 $-1 $760 $617 #
plane-surface $-1 0 -46.89838117258293 4.8225185630211129 0 0 1 1 0 0 forward_v I I I I #
coedge $-1 $761 $762 $763 $764 forward $618 $-1 #
coedge $-1 $620 $627 $765 $766 forward $434 $-1 #
coedge $-1 $767 $632 $620 $701 reversed $711 $-1 #
edge $-1 $768 -62.977996154667807 $634 48.930278385441888 $700 $769 forward 7 unknown #
edge $-1 $622 13.674637432947492 $712 23.046370502326965 $624 $770 forward 7 unknown #
point $-1 -62.977996154667807 32.03514140058472 1.7662394567961144 #
coedge $-1 $771 $624 $710 $772 forward $526 $-1 #
coedge $-1 $625 $773 $774 $775 reversed $526 $-1 #
coedge $-1 $774 $776 $627 $707 reversed $777 $-1 #
edge $-1 $708 -62.977996154667807 $778 62.977996154667807 $706 $779 forward 7 unknown #
vertex $-1 $628 $780 #
straight-curve $-1 -62.977996154667807 0 12.741519656764488 0 -1 0 I I #
coedge $-1 $632 $781 $704 $772 reversed $711 $-1 #
loop $-1 $-1 $632 $782 #
vertex $-1 $772 $783 #
straight-curve $-1 -43.853002013875681 41.406874469964194 16.708322787782151 0.78801074757464917 0 0.61566148304635926 I I #
point $-1 -48.930278385441888 41.406874469964194 12.741519656764488 #
point $-1 -62.977996154667807 -52.389887875201666 4.8225185630211129 #
straight-curve $-1 -62.977996154667807 -46.89838117258293 4.8225185630211129 0 1 0 I I #
point $-1 -62.977996154667807 -41.406874469964194 4.8225185630211129 #
vertex $-1 $648 $784 #
straight-curve $-1 62.977996154667807 0 -12.741519656764488 0 -1 0 I I #
straight-curve $-1 0 -41.406874469964194 -12.741519656764488 -1 0 0 I I #
face $-1 $681 $750 $18 $-1 $785 reversed single #
coedge $-1 $747 $786 $663 $727 forward $659 $-1 #
coedge $-1 $733 $661 $662 $726 reversed $589 $-1 #
edge $-1 $734 -1.5 $787 1.5 $689 $788 forward 7 unknown #
coedge $-1 $663 $662 $746 $789 forward $507 $-1 #
edge $-1 $730 -62.977996154667807 $787 62.977996154667807 $723 $790 forward 7 unknown #
edge $-1 $729 -62.977996154667807 $791 62.977996154667807 $722 $792 forward 7 unknown #
coedge $-1 $740 $664 $786 $793 forward $673 $-1 #
vertex $-1 $793 $794 #
vertex $-1 $736 $795 #
straight-curve $-1 62.977996154667807 -46.89838117258293 4.8225185630211129 0 -1 0 I I #
straight-curve $-1 0 -41.406874469964194 7.8225185630211129 1 0 0 I I #
coedge $-1 $669 $723 $671 $736 reversed $589 $-1 #
vertex $-1 $690 $796 #
straight-curve $-1 0 -52.389887875201666 7.8225185630211129 1 0 0 I I #
edge $-1 $674 -1.5 $730 1.5 $671 $797 forward 7 unknown #
face $-1 $-1 $673 $18 $-1 $798 reversed single #
point $-1 62.977996154667807 -52.389887875201666 7.8225185630211129 #
point $-1 62.977996154667807 -41.406874469964194 7.8225185630211129 #
coedge $-1 $677 $728 $799 $800 reversed $673 $-1 #
coedge $-1 $799 $685 $679 $742 forward $750 $-1 #
edge $-1 $687 -62.977996154667807 $743 62.977996154667807 $679 $801 forward 7 unknown #
vertex $-1 $800 $802 #
straight-curve $-1 62.977996154667807 41.406874469964194 0 0 0 -1 I I #
plane-surface $-1 0 41.406874469964194 0 0 -1 0 0 0 -1 forward_v I I I I #
coedge $-1 $689 $684 $725 $789 reversed $337 $-1 #
coedge $-1 $803 $722 $684 $748 forward $659 $-1 #
edge $-1 $791 -4.8225185630211129 $751 12.741519656764488 $684 $692 forward 7 unknown #
coedge $-1 $685 $799 $803 $804 forward $750 $-1 #
loop $-1 $-1 $799 $721 #
vertex $-1 $686 $805 #
straight-curve $-1 -62.977996154667807 0 -12.741519656764488 0 1 0 I I #
point $-1 -62.977996154667807 41.406874469964194 -12.741519656764488 #
straight-curve $-1 -62.977996154667807 -46.89838117258293 7.8225185630211129 0 -1 0 I I #
point $-1 -62.977996154667807 -41.406874469964194 7.8225185630211129 #
straight-curve $-1 62.977996154667807 -41.406874469964194 0 0 0 -1 I I #
face $-1 $806 $807 $19 $-1 $808 reversed single #
loop $-1 $-1 $809 $695 #
plane-surface $-1 0 -52.389887875201666 6.3225185630211129 0 1 0 0 0 1 forward_v I I I I #
coedge $-1 $810 $811 $812 $813 forward $696 $-1 #
coedge $-1 $814 $698 $815 $816 reversed $618 $-1 #
coedge $-1 $698 $814 $817 $818 forward $618 $-1 #
coedge $-1 $819 $820 $698 $764 reversed $821 $-1 #
edge $-1 $822 -5.4915067026187359 $823 5.4915067026187359 $763 $824 forward 7 unknown #
coedge $-1 $820 $825 $699 $766 reversed $821 $-1 #
edge $-1 $778 -41.406874469964194 $768 41.406874469964194 $765 $826 forward 7 unknown #
coedge $-1 $781 $700 $825 $827 forward $711 $-1 #
vertex $-1 $766 $828 #
straight-curve $-1 0 41.406874469964194 12.741519656764488 -1 0 0 I I #
straight-curve $-1 -62.977996154667807 18.360503967637229 1.7662394567961146 0 1 0 I I #
coedge $-1 $829 $704 $830 $831 reversed $526 $-1 #
edge $-1 $712 -1.7662394567961144 $832 12.741519656764488 $710 $833 forward 7 unknown #
coedge $-1 $705 $834 $814 $835 reversed $526 $-1 #
coedge $-1 $815 $706 $705 $775 forward $777 $-1 #
edge $-1 $708 -12.741519656764488 $836 -7.8225185630211129 $705 $837 forward 7 unknown #
coedge $-1 $706 $815 $820 $838 reversed $777 $-1 #
loop $-1 $-1 $815 $806 #
vertex $-1 $766 $839 #
straight-curve $-1 0 -41.406874469964194 12.741519656764488 1 0 0 I I #
point $-1 -62.977996154667807 -41.406874469964194 12.741519656764488 #
coedge $-1 $710 $767 $840 $841 reversed $711 $-1 #
face $-1 $842 $711 $19 $-1 $843 reversed single #
point $-1 -62.977996154667807 41.406874469964194 1.7662394567961144 #
point $-1 62.977996154667807 -41.406874469964194 -12.741519656764488 #
plane-surface $-1 0 0 -12.741519656764488 0 0 1 1 0 0 forward_v I I I I #
coedge $-1 $722 $803 $728 $793 reversed $659 $-1 #
vertex $-1 $789 $844 #
straight-curve $-1 -62.977996154667807 -52.389887875201666 6.3225185630211129 0 0 -1 I I #
edge $-1 $787 -5.4915067026187359 $791 5.4915067026187359 $746 $845 forward 7 unknown #
straight-curve $-1 0 -52.389887875201666 4.8225185630211129 -1 0 0 I I #
vertex $-1 $748 $846 #
straight-curve $-1 0 -41.406874469964194 4.8225185630211129 -1 0 0 I I #
edge $-1 $729 -4.8225185630211129 $847 12.741519656764488 $728 $756 forward 7 unknown #
point $-1 62.977996154667807 -41.406874469964194 4.8225185630211129 #
point $-1 62.977996154667807 -52.389887875201666 4.8225185630211129 #
point $-1 -62.977996154667807 -52.389887875201666 7.8225185630211129 #
straight-curve $-1 62.977996154667807 -52.389887875201666 6.3225185630211129 0 0 -1 I I #
plane-surface $-1 62.977996154667807 0 0 -1 0 0 0 0 1 forward_v I I I I #
coedge $-1 $749 $741 $740 $800 forward $750 $-1 #
edge $-1 $743 -41.406874469964194 $847 41.406874469964194 $740 $848 forward 7 unknown #
straight-curve $-1 0 41.406874469964194 -12.741519656764488 1 0 0 I I #
point $-1 62.977996154667807 41.406874469964194 -12.741519656764488 #
coedge $-1 $786 $747 $749 $804 reversed $659 $-1 #
edge $-1 $847 -62.977996154667807 $751 62.977996154667807 $803 $849 forward 7 unknown #
point $-1 -62.977996154667807 -41.406874469964194 -12.741519656764488 #
face $-1 $850 $777 $19 $-1 $808 reversed single #
loop $-1 $-1 $851 $757 #
plane-surface $-1 0 -41.406874469964194 0 0 1 0 0 0 1 forward_v I I I I #
coedge $-1 $852 $817 $834 $853 forward $758 $-1 #
coedge $-1 $854 $760 $852 $855 forward $696 $-1 #
coedge $-1 $760 $854 $851 $856 reversed $696 $-1 #
coedge $-1 $857 $819 $760 $813 reversed $821 $-1 #
edge $-1 $858 -5.4915067026187359 $859 5.4915067026187359 $812 $860 forward 7 unknown #
coedge $-1 $762 $761 $773 $835 forward $618 $-1 #
coedge $-1 $776 $774 $761 $816 forward $777 $-1 #
edge $-1 $836 -62.977996154667807 $823 62.977996154667807 $815 $861 forward 7 unknown #
coedge $-1 $809 $862 $762 $818 reversed $758 $-1 #
edge $-1 $863 -62.977996154667807 $822 62.977996154667807 $817 $864 forward 7 unknown #
coedge $-1 $812 $763 $862 $865 forward $821 $-1 #
coedge $-1 $763 $765 $776 $838 forward $821 $-1 #
loop $-1 $-1 $820 $842 #
vertex $-1 $764 $866 #
vertex $-1 $764 $867 #
straight-curve $-1 62.977996154667807 -46.89838117258293 7.8225185630211129 0 1 0 I I #
coedge $-1 $765 $868 $767 $827 reversed $821 $-1 #
straight-curve $-1 62.977996154667807 0 12.741519656764488 0 1 0 I I #
edge $-1 $768 -12.741519656764488 $869 12.741519656764488 $825 $870 forward 7 unknown #
point $-1 62.977996154667807 41.406874469964194 12.741519656764488 #
coedge $-1 $871 $771 $872 $873 reversed $526 $-1 #
coedge $-1 $840 $874 $771 $831 forward $875 $-1 #
edge $-1 $876 -41.406874469964194 $832 41.406874469964194 $771 $877 forward 7 unknown #
vertex $-1 $841 $878 #
straight-curve $-1 -62.977996154667807 41.406874469964194 0 0 0 -1 I I #
coedge $-1 $773 $871 $809 $853 reversed $526 $-1 #
edge $-1 $836 -5.4915067026187359 $863 5.4915067026187359 $773 $879 forward 7 unknown #
vertex $-1 $775 $880 #
straight-curve $-1 -62.977996154667807 -41.406874469964194 0 0 0 -1 I I #
edge $-1 $778 -12.741519656764488 $823 -7.8225185630211129 $820 $881 forward 7 unknown #
point $-1 62.977996154667807 -41.406874469964194 12.741519656764488 #
coedge $-1 $882 $830 $781 $841 forward $875 $-1 #
edge $-1 $832 -62.977996154667807 $869 62.977996154667807 $781 $883 forward 7 unknown #
face $-1 $-1 $821 $19 $-1 $884 reversed single #
plane-surface $-1 0 41.406874469964194 0 0 -1 0 0 0 -1 forward_v I I I I #
point $-1 -62.977996154667807 -52.389887875201666 4.8225185630211129 #
straight-curve $-1 -62.977996154667807 -46.89838117258293 4.8225185630211129 0 1 0 I I #
point $-1 -62.977996154667807 -41.406874469964194 4.8225185630211129 #
vertex $-1 $793 $885 #
straight-curve $-1 62.977996154667807 0 -12.741519656764488 0 -1 0 I I #
straight-curve $-1 0 -41.406874469964194 -12.741519656764488 -1 0 0 I I #
face $-1 $782 $875 $19 $-1 $886 reversed single #
coedge $-1 $872 $887 $811 $856 forward $807 $-1 #
coedge $-1 $862 $809 $810 $855 reversed $758 $-1 #
edge $-1 $863 -1.5 $888 1.5 $834 $889 forward 7 unknown #
coedge $-1 $811 $810 $871 $890 forward $696 $-1 #
edge $-1 $859 -62.977996154667807 $888 62.977996154667807 $852 $891 forward 7 unknown #
edge $-1 $858 -62.977996154667807 $892 62.977996154667807 $851 $893 forward 7 unknown #
coedge $-1 $868 $812 $887 $894 forward $821 $-1 #
vertex $-1 $894 $895 #
vertex $-1 $865 $896 #
straight-curve $-1 62.977996154667807 -46.89838117258293 4.8225185630211129 0 -1 0 I I #
straight-curve $-1 0 -41.406874469964194 7.8225185630211129 1 0 0 I I #
coedge $-1 $817 $852 $819 $865 reversed $758 $-1 #
vertex $-1 $835 $897 #
straight-curve $-1 0 -52.389887875201666 7.8225185630211129 1 0 0 I I #
edge $-1 $822 -1.5 $859 1.5 $819 $898 forward 7 unknown #
point $-1 62.977996154667807 -52.389887875201666 7.8225185630211129 #
point $-1 62.977996154667807 -41.406874469964194 7.8225185630211129 #
coedge $-1 $825 $857 $882 $899 reversed $821 $-1 #
vertex $-1 $899 $900 #
straight-curve $-1 62.977996154667807 41.406874469964194 0 0 0 -1 I I #
coedge $-1 $834 $829 $854 $890 reversed $526 $-1 #
coedge $-1 $901 $851 $829 $873 forward $807 $-1 #
edge $-1 $892 -4.8225185630211129 $876 12.741519656764488 $829 $837 forward 7 unknown #
coedge $-1 $830 $882 $901 $902 forward $875 $-1 #
loop $-1 $-1 $882 $850 #
vertex $-1 $831 $903 #
straight-curve $-1 -62.977996154667807 0 -12.741519656764488 0 1 0 I I #
point $-1 -62.977996154667807 41.406874469964194 -12.741519656764488 #
straight-curve $-1 -62.977996154667807 -46.89838117258293 7.8225185630211129 0 -1 0 I I #
point $-1 -62.977996154667807 -41.406874469964194 7.8225185630211129 #
straight-curve $-1 62.977996154667807 -41.406874469964194 0 0 0 -1 I I #
coedge $-1 $874 $840 $868 $899 forward $875 $-1 #
straight-curve $-1 0 41.406874469964194 -12.741519656764488 1 0 0 I I #
plane-surface $-1 62.977996154667807 0 0 -1 0 0 0 0 1 forward_v I I I I #
point $-1 62.977996154667807 -41.406874469964194 -12.741519656764488 #
plane-surface $-1 0 0 -12.741519656764488 0 0 1 1 0 0 forward_v I I I I #
coedge $-1 $851 $901 $857 $894 reversed $807 $-1 #
vertex $-1 $890 $904 #
straight-curve $-1 -62.977996154667807 -52.389887875201666 6.3225185630211129 0 0 -1 I I #
edge $-1 $888 -5.4915067026187359 $892 5.4915067026187359 $871 $905 forward 7 unknown #
straight-curve $-1 0 -52.389887875201666 4.8225185630211129 -1 0 0 I I #
vertex $-1 $873 $906 #
straight-curve $-1 0 -41.406874469964194 4.8225185630211129 -1 0 0 I I #
edge $-1 $858 -4.8225185630211129 $907 12.741519656764488 $857 $881 forward 7 unknown #
point $-1 62.977996154667807 -41.406874469964194 4.8225185630211129 #
point $-1 62.977996154667807 -52.389887875201666 4.8225185630211129 #
point $-1 -62.977996154667807 -52.389887875201666 7.8225185630211129 #
straight-curve $-1 62.977996154667807 -52.389887875201666 6.3225185630211129 0 0 -1 I I #
edge $-1 $869 -41.406874469964194 $907 41.406874469964194 $868 $908 forward 7 unknown #
point $-1 62.977996154667807 41.406874469964194 -12.741519656764488 #
coedge $-1 $887 $872 $874 $902 reversed $807 $-1 #
edge $-1 $907 -62.977996154667807 $876 62.977996154667807 $901 $909 forward 7 unknown #
point $-1 -62.977996154667807 -41.406874469964194 -12.741519656764488 #
point $-1 -62.977996154667807 -52.389887875201666 4.8225185630211129 #
straight-curve $-1 -62.977996154667807 -46.89838117258293 4.8225185630211129 0 1 0 I I #
point $-1 -62.977996154667807 -41.406874469964194 4.8225185630211129 #
vertex $-1 $894 $910 #
straight-curve $-1 62.977996154667807 0 -12.741519656764488 0 -1 0 I I #
straight-curve $-1 0 -41.406874469964194 -12.741519656764488 -1 0 0 I I #
point $-1 62.977996154667807 -41.406874469964194 -12.741519656764488 #
End-of-ACIS-data 