500 0 5 0           
7 Unknown 11 ACIS 5.0 NT 24 Thu Mar 25 20:37:39 1999 
-1 9.9999999999999995e-007 1e-010 
body $-1 $5 $-1 $6 #
body $-1 $7 $-1 $8 #
body $-1 $9 $-1 $10 #
body $-1 $11 $-1 $12 #
body $-1 $13 $-1 $14 #
lump $-1 $-1 $15 $0 #
transform $-1 1 0 0 0 1 0 0 0 1 51.955931272316661 36.060907832900838 11.55276283992665 1 rotate no_reflect no_shear #
lump $-1 $-1 $16 $1 #
transform $-1 1 0 0 0 1 0 0 0 1 51.955931272316661 36.060907832900838 11.55276283992665 1 rotate no_reflect no_shear #
lump $-1 $-1 $17 $2 #
transform $-1 1 0 0 0 1 0 0 0 1 51.955931272316661 36.060907832900838 11.55276283992665 1 rotate no_reflect no_shear #
lump $-1 $-1 $18 $3 #
transform $-1 1 0 0 0 1 0 0 0 1 51.955931272316661 36.060907832900838 11.55276283992665 1 rotate no_reflect no_shear #
lump $-1 $-1 $19 $4 #
transform $-1 1 0 0 0 1 0 0 0 1 51.955931272316661 36.060907832900838 11.55276283992665 1 rotate no_reflect no_shear #
shell $-1 $-1 $-1 $20 $-1 $5 #
shell $-1 $-1 $-1 $21 $-1 $7 #
shell $-1 $-1 $-1 $22 $-1 $9 #
shell $-1 $-1 $-1 $23 $-1 $11 #
shell $-1 $-1 $-1 $24 $-1 $13 #
face $-1 $25 $26 $15 $-1 $27 forward single #
face $-1 $28 $29 $16 $-1 $30 forward single #
face $-1 $31 $32 $17 $-1 $33 forward single #
face $-1 $34 $35 $18 $-1 $36 reversed single #
face $-1 $37 $38 $19 $-1 $39 forward single #
face $-1 $40 $41 $15 $-1 $42 reversed single #
loop $-1 $-1 $43 $20 #
plane-surface $-1 0 0 11.55276283992665 0 0 1 1 0 0 forward_v I I I I #
face $-1 $44 $45 $16 $-1 $46 forward single #
loop $-1 $-1 $47 $21 #
plane-surface $-1 0 -36.060907832900838 0 0 1 0 0 0 1 forward_v I I I I #
face $-1 $48 $49 $17 $-1 $50 reversed single #
loop $-1 $-1 $51 $22 #
plane-surface $-1 0 36.060907832900838 0 0 -1 0 0 0 -1 forward_v I I I I #
face $-1 $52 $53 $18 $-1 $54 reversed single #
loop $-1 $-1 $55 $23 #
plane-surface $-1 16.404647329001023 -10.751655149281991 142.94052936479929 0 -1 0 -0.51503808176128008 0 -0.85716729658548041 forward_v I I I I #
face $-1 $56 $57 $19 $-1 $58 forward single #
loop $-1 $59 $60 $24 #
cone-surface $-1 40.87683443352114 -16.113634764981558 3.0256510655001518 -0.51503808176128008 0 -0.85716729658548041 2.1429182414637009 0 -1.2875952044032002 1 I I 0 1 2.5 forward I I I I #
face $-1 $61 $62 $15 $-1 $63 reversed single #
loop $-1 $-1 $64 $25 #
plane-surface $-1 0 0 -11.55276283992665 0 0 1 1 0 0 forward_v I I I I #
coedge $-1 $65 $66 $67 $68 forward $26 $-1 #
face $-1 $69 $70 $16 $-1 $71 reversed single #
loop $-1 $-1 $72 $28 #
plane-surface $-1 0 0 11.55276283992665 0 0 1 1 0 0 forward_v I I I I #
coedge $-1 $73 $74 $75 $76 forward $29 $-1 #
face $-1 $77 $78 $17 $-1 $79 reversed single #
loop $-1 $-1 $80 $31 #
plane-surface $-1 51.955931272316661 0 0 -1 0 0 0 0 1 forward_v I I I I #
coedge $-1 $81 $82 $83 $84 forward $32 $-1 #
face $-1 $85 $86 $18 $-1 $87 reversed single #
loop $-1 $-1 $88 $34 #
plane-surface $-1 -37.113919028228729 -16.113634764981558 53.870679064253906 0.51503808176128008 0 0.85716729658548041 0.85716729658548041 0 -0.51503808176128008 forward_v I I I I #
coedge $-1 $89 $90 $91 $92 reversed $35 $-1 #
face $-1 $-1 $93 $19 $-1 $94 forward single #
loop $-1 $95 $96 $37 #
cone-surface $-1 38.474445926364666 -16.113634764981558 -0.97259476320694915 -0.51503808176128008 0 -0.85716729658548041 1.0714591207318505 0 -0.64379760220160009 1 I I -0.70710678118654746 0.70710678118654768 1.25 forward I I I I #
loop $-1 $-1 $97 $24 #
coedge $-1 $60 $60 $98 $99 reversed $38 $-1 #
face $-1 $100 $101 $15 $-1 $102 reversed single #
loop $-1 $-1 $103 $40 #
plane-surface $-1 0 -36.060907832900838 0 0 1 0 0 0 1 forward_v I I I I #
coedge $-1 $104 $105 $106 $107 forward $41 $-1 #
coedge $-1 $108 $43 $109 $110 forward $26 $-1 #
coedge $-1 $43 $108 $111 $112 forward $26 $-1 #
coedge $-1 $113 $114 $43 $68 reversed $115 $-1 #
edge $-1 $116 -36.060907832900838 $117 36.060907832900838 $67 $118 forward 7 unknown #
face $-1 $119 $120 $16 $-1 $121 reversed single #
loop $-1 $-1 $122 $44 #
plane-surface $-1 -51.955931272316661 0 0 1 0 0 0 0 -1 forward_v I I I I #
coedge $-1 $123 $124 $125 $126 forward $45 $-1 #
coedge $-1 $125 $47 $122 $127 reversed $29 $-1 #
coedge $-1 $47 $125 $128 $129 reversed $29 $-1 #
coedge $-1 $130 $131 $47 $76 reversed $120 $-1 #
edge $-1 $132 -51.955931272316661 $133 51.955931272316661 $75 $134 forward 7 unknown #
face $-1 $135 $136 $17 $-1 $137 reversed single #
loop $-1 $-1 $138 $48 #
plane-surface $-1 0 43.353554559010703 7.692016856169678 0 0 1 1 0 0 forward_v I I I I #
coedge $-1 $139 $140 $81 $141 forward $49 $-1 #
coedge $-1 $142 $51 $80 $141 reversed $32 $-1 #
coedge $-1 $51 $142 $143 $144 reversed $32 $-1 #
coedge $-1 $145 $138 $51 $84 reversed $78 $-1 #
edge $-1 $146 -51.955931272316661 $147 51.955931272316661 $83 $148 forward 7 unknown #
face $-1 $149 $150 $18 $-1 $151 forward single #
loop $-1 $-1 $152 $52 #
plane-surface $-1 16.404647329001023 -21.475614380681126 142.94052936479929 0 1 0 0.51503808176128008 0 0.85716729658548041 forward_v I I I I #
coedge $-1 $153 $154 $155 $156 reversed $53 $-1 #
coedge $-1 $90 $55 $157 $158 reversed $35 $-1 #
coedge $-1 $55 $89 $153 $159 reversed $35 $-1 #
coedge $-1 $155 $160 $55 $92 forward $150 $-1 #
edge $-1 $161 -43.75360760781615 $162 -25.112595740134843 $91 $163 forward 7 unknown #
loop $-1 $-1 $98 $56 #
plane-surface $-1 -37.113919028228729 -16.113634764981558 53.870679064253906 0.51503808176128008 0 0.85716729658548041 0.85716729658548041 0 -0.51503808176128008 forward_v I I I I #
loop $-1 $-1 $164 $37 #
coedge $-1 $96 $96 $97 $165 reversed $57 $-1 #
coedge $-1 $97 $97 $96 $165 forward $59 $-1 #
coedge $-1 $98 $98 $60 $99 forward $93 $-1 #
edge $-1 $166 0 $166 6.2831853071796004 $98 $167 forward 7 unknown #
face $-1 $168 $169 $15 $-1 $170 reversed single #
loop $-1 $-1 $171 $61 #
plane-surface $-1 -51.955931272316661 0 0 1 0 0 0 0 -1 forward_v I I I I #
coedge $-1 $172 $111 $173 $174 forward $62 $-1 #
coedge $-1 $175 $64 $172 $176 forward $41 $-1 #
coedge $-1 $64 $175 $177 $178 forward $41 $-1 #
coedge $-1 $114 $113 $64 $107 reversed $115 $-1 #
edge $-1 $179 -36.060907832900838 $180 36.060907832900838 $106 $181 forward 7 unknown #
coedge $-1 $66 $65 $182 $183 forward $26 $-1 #
coedge $-1 $184 $185 $65 $110 reversed $169 $-1 #
edge $-1 $117 -51.955931272316661 $186 51.955931272316661 $109 $187 forward 7 unknown #
coedge $-1 $103 $188 $66 $112 reversed $62 $-1 #
edge $-1 $189 -51.955931272316661 $116 51.955931272316661 $111 $190 forward 7 unknown #
coedge $-1 $106 $67 $188 $191 forward $115 $-1 #
coedge $-1 $67 $106 $184 $192 reversed $115 $-1 #
loop $-1 $-1 $113 $168 #
vertex $-1 $68 $193 #
vertex $-1 $68 $194 #
straight-curve $-1 51.955931272316661 0 11.55276283992665 0 1 0 I I #
face $-1 $195 $196 $16 $-1 $197 reversed single #
loop $-1 $-1 $130 $69 #
plane-surface $-1 0 -43.353554559010696 7.692016856169678 0 0 1 1 0 0 forward_v I I I I #
coedge $-1 $198 $199 $73 $127 forward $70 $-1 #
coedge $-1 $200 $72 $199 $201 forward $45 $-1 #
coedge $-1 $72 $200 $202 $203 forward $45 $-1 #
coedge $-1 $74 $73 $72 $126 reversed $29 $-1 #
edge $-1 $204 -51.955931272316661 $205 51.955931272316661 $72 $206 forward 7 unknown #
edge $-1 $205 -11.55276283992665 $133 -7.692016856169678 $122 $207 forward 7 unknown #
coedge $-1 $202 $208 $74 $129 forward $209 $-1 #
edge $-1 $132 7.692016856169678 $204 11.55276283992665 $128 $210 forward 7 unknown #
coedge $-1 $211 $75 $208 $212 forward $120 $-1 #
coedge $-1 $75 $211 $198 $213 forward $120 $-1 #
vertex $-1 $129 $214 #
vertex $-1 $127 $215 #
straight-curve $-1 0 -36.060907832900838 7.692016856169678 -1 0 0 I I #
face $-1 $216 $217 $17 $-1 $218 forward single #
loop $-1 $-1 $219 $77 #
plane-surface $-1 0 50.646201285120561 9.6223898480481651 0 -1 0 0 0 -1 forward_v I I I I #
coedge $-1 $83 $220 $139 $221 forward $78 $-1 #
coedge $-1 $222 $80 $138 $221 reversed $49 $-1 #
coedge $-1 $80 $222 $223 $224 reversed $49 $-1 #
edge $-1 $225 -11.55276283992665 $147 -7.692016856169678 $80 $226 forward 7 unknown #
coedge $-1 $82 $81 $227 $228 reversed $32 $-1 #
coedge $-1 $229 $230 $82 $144 forward $231 $-1 #
edge $-1 $146 7.692016856169678 $232 11.55276283992665 $143 $233 forward 7 unknown #
coedge $-1 $220 $83 $230 $234 forward $78 $-1 #
vertex $-1 $144 $235 #
vertex $-1 $141 $236 #
straight-curve $-1 0 36.060907832900838 7.692016856169678 1 0 0 I I #
face $-1 $-1 $237 $18 $-1 $238 reversed single #
loop $-1 $-1 $91 $85 #
plane-surface $-1 0 0 11.55276283992665 0 0 1 1 0 0 forward_v I I I I #
coedge $-1 $239 $240 $241 $242 reversed $86 $-1 #
coedge $-1 $243 $88 $90 $159 forward $53 $-1 #
coedge $-1 $88 $243 $239 $244 forward $53 $-1 #
coedge $-1 $241 $91 $88 $156 forward $150 $-1 #
edge $-1 $162 2.6948377667912116 $245 13.418796998190347 $155 $246 forward 7 unknown #
coedge $-1 $247 $248 $89 $158 forward $237 $-1 #
edge $-1 $249 -71.118151975375497 $161 -59.917501842472994 $157 $250 forward 7 unknown #
edge $-1 $162 82.164635437465748 $249 103.91186254463332 $90 $251 forward 7 unknown #
coedge $-1 $91 $241 $247 $252 forward $150 $-1 #
vertex $-1 $158 $253 #
vertex $-1 $92 $254 #
straight-curve $-1 8.2023236645005113 -10.751655149281991 11.552762839926658 -1 0 0 I I #
coedge $-1 $164 $164 $-1 $255 reversed $95 $-1 #
edge $-1 $256 0 $256 6.2831853071796004 $96 $257 forward 7 unknown #
vertex $-1 $99 $258 #
ellipse-curve $-1 42.635425338476011 -16.113634764981558 5.9524377734753919 0.51503808176128008 0 0.85716729658548041 2.1429182414637009 0 -1.2875952044032002 1 I I #
face $-1 $-1 $115 $15 $-1 $259 reversed single #
loop $-1 $-1 $184 $100 #
plane-surface $-1 0 36.060907832900838 0 0 -1 0 0 0 -1 forward_v I I I I #
coedge $-1 $260 $182 $185 $261 forward $101 $-1 #
coedge $-1 $188 $103 $104 $176 reversed $62 $-1 #
coedge $-1 $182 $260 $103 $174 reversed $101 $-1 #
edge $-1 $189 -11.55276283992665 $262 11.55276283992665 $173 $263 forward 7 unknown #
coedge $-1 $105 $104 $260 $264 forward $41 $-1 #
edge $-1 $180 -51.955931272316661 $262 51.955931272316661 $172 $265 forward 7 unknown #
coedge $-1 $185 $184 $105 $178 reversed $169 $-1 #
edge $-1 $266 -51.955931272316661 $179 51.955931272316661 $177 $267 forward 7 unknown #
vertex $-1 $107 $268 #
vertex $-1 $191 $269 #
straight-curve $-1 51.955931272316661 0 -11.55276283992665 0 -1 0 I I #
coedge $-1 $171 $173 $108 $183 reversed $101 $-1 #
edge $-1 $186 -36.060907832900838 $189 36.060907832900838 $182 $270 forward 7 unknown #
coedge $-1 $177 $109 $114 $192 forward $169 $-1 #
coedge $-1 $109 $177 $171 $261 reversed $169 $-1 #
vertex $-1 $110 $271 #
straight-curve $-1 0 36.060907832900838 11.55276283992665 -1 0 0 I I #
coedge $-1 $111 $172 $113 $191 reversed $62 $-1 #
vertex $-1 $183 $272 #
straight-curve $-1 0 -36.060907832900838 11.55276283992665 1 0 0 I I #
edge $-1 $116 -11.55276283992665 $180 11.55276283992665 $113 $273 forward 7 unknown #
edge $-1 $117 -11.55276283992665 $179 11.55276283992665 $114 $274 forward 7 unknown #
point $-1 51.955931272316661 -36.060907832900838 11.55276283992665 #
point $-1 51.955931272316661 36.060907832900838 11.55276283992665 #
face $-1 $-1 $209 $16 $-1 $275 reversed single #
loop $-1 $-1 $276 $119 #
plane-surface $-1 0 -50.646201285120554 9.6223898480481651 0 1 0 0 0 1 forward_v I I I I #
coedge $-1 $277 $122 $131 $213 reversed $70 $-1 #
coedge $-1 $122 $277 $123 $201 reversed $70 $-1 #
coedge $-1 $124 $123 $278 $279 forward $45 $-1 #
edge $-1 $205 36.060907832900838 $280 50.646201285120554 $199 $281 forward 7 unknown #
coedge $-1 $282 $128 $124 $203 reversed $209 $-1 #
edge $-1 $283 -50.646201285120554 $204 -36.060907832900838 $202 $284 forward 7 unknown #
vertex $-1 $129 $285 #
vertex $-1 $201 $286 #
straight-curve $-1 0 -36.060907832900838 11.55276283992665 -1 0 0 I I #
straight-curve $-1 -51.955931272316661 -36.060907832900838 0 0 0 -1 I I #
coedge $-1 $128 $282 $130 $212 reversed $209 $-1 #
loop $-1 $-1 $128 $195 #
straight-curve $-1 51.955931272316661 -36.060907832900838 0 0 0 1 I I #
coedge $-1 $131 $130 $287 $288 forward $120 $-1 #
edge $-1 $132 -7.292646726109858 $289 7.292646726109858 $208 $290 forward 7 unknown #
edge $-1 $291 -7.292646726109858 $133 7.292646726109858 $198 $292 forward 7 unknown #
point $-1 51.955931272316661 -36.060907832900838 7.692016856169678 #
point $-1 -51.955931272316661 -36.060907832900838 7.692016856169678 #
face $-1 $-1 $231 $17 $-1 $293 reversed single #
loop $-1 $-1 $227 $135 #
plane-surface $-1 0 0 11.55276283992665 0 0 1 1 0 0 forward_v I I I I #
coedge $-1 $294 $295 $222 $296 forward $136 $-1 #
coedge $-1 $138 $145 $294 $297 forward $78 $-1 #
edge $-1 $298 -7.292646726109858 $147 7.292646726109858 $139 $299 forward 7 unknown #
coedge $-1 $140 $139 $219 $296 reversed $49 $-1 #
coedge $-1 $300 $227 $140 $224 forward $217 $-1 #
edge $-1 $225 36.060907832900838 $301 50.646201285120561 $140 $302 forward 7 unknown #
vertex $-1 $224 $303 #
straight-curve $-1 51.955931272316661 36.060907832900838 0 0 0 -1 I I #
coedge $-1 $223 $304 $142 $228 forward $217 $-1 #
edge $-1 $232 -51.955931272316661 $225 51.955931272316661 $227 $305 forward 7 unknown #
coedge $-1 $306 $143 $304 $307 reversed $231 $-1 #
coedge $-1 $143 $306 $145 $234 reversed $231 $-1 #
loop $-1 $-1 $143 $216 #
vertex $-1 $144 $308 #
straight-curve $-1 -51.955931272316661 36.060907832900838 0 0 0 1 I I #
edge $-1 $146 -7.292646726109858 $309 7.292646726109858 $230 $310 forward 7 unknown #
point $-1 -51.955931272316661 36.060907832900845 7.692016856169678 #
point $-1 51.955931272316661 36.060907832900845 7.692016856169678 #
loop $-1 $-1 $157 $149 #
plane-surface $-1 51.955931272316661 0 0 -1 0 0 0 0 1 forward_v I I I I #
coedge $-1 $240 $152 $154 $244 reversed $86 $-1 #
coedge $-1 $152 $239 $311 $312 reversed $86 $-1 #
coedge $-1 $160 $155 $152 $242 forward $150 $-1 #
edge $-1 $245 25.112595740134843 $313 43.75360760781615 $241 $314 forward 7 unknown #
coedge $-1 $154 $153 $248 $315 reversed $53 $-1 #
edge $-1 $316 -103.91186254463332 $245 -82.164635437465748 $239 $317 forward 7 unknown #
vertex $-1 $156 $318 #
straight-curve $-1 33.314919404635347 -8.0568173824907792 11.552762839926647 0 -1 0 I I #
coedge $-1 $311 $157 $160 $252 reversed $237 $-1 #
coedge $-1 $157 $311 $243 $315 forward $237 $-1 #
vertex $-1 $158 $319 #
straight-curve $-1 51.955931272316661 -10.751655149281991 71.470264682399645 0 0 1 I I #
straight-curve $-1 -37.113919028228729 -10.751655149281991 53.870679064253906 0.85716729658548041 0 -0.51503808176128008 I I #
edge $-1 $313 -21.475614380681126 $161 -10.751655149281991 $247 $320 forward 7 unknown #
point $-1 51.955931272316661 -10.751655149281991 11.55276283992665 #
point $-1 33.314919404635354 -10.751655149281991 11.55276283992665 #
edge $-1 $321 1 $321 0 $164 $-1 forward 7 unknown #
vertex $-1 $165 $322 #
ellipse-curve $-1 39.118243528566268 -16.113634764981558 0.098864357524901747 0.51503808176128008 0 0.85716729658548041 2.1429182414637009 0 -1.2875952044032002 1 I I #
point $-1 44.778343579939715 -16.113634764981558 4.6648425690722028 #
plane-surface $-1 51.955931272316661 0 0 -1 0 0 0 0 1 forward_v I I I I #
coedge $-1 $173 $171 $175 $264 reversed $101 $-1 #
edge $-1 $186 -11.55276283992665 $266 11.55276283992665 $185 $323 forward 7 unknown #
vertex $-1 $264 $324 #
straight-curve $-1 -51.955931272316661 -36.060907832900838 0 0 0 -1 I I #
edge $-1 $262 -36.060907832900838 $266 36.060907832900838 $260 $325 forward 7 unknown #
straight-curve $-1 0 -36.060907832900838 -11.55276283992665 -1 0 0 I I #
vertex $-1 $178 $326 #
straight-curve $-1 0 36.060907832900838 -11.55276283992665 1 0 0 I I #
point $-1 51.955931272316661 36.060907832900838 -11.55276283992665 #
point $-1 51.955931272316661 -36.060907832900838 -11.55276283992665 #
straight-curve $-1 -51.955931272316661 0 11.55276283992665 0 -1 0 I I #
point $-1 -51.955931272316661 36.060907832900838 11.55276283992665 #
point $-1 -51.955931272316661 -36.060907832900838 11.55276283992665 #
straight-curve $-1 51.955931272316661 -36.060907832900838 0 0 0 -1 I I #
straight-curve $-1 51.955931272316661 36.060907832900838 0 0 0 -1 I I #
plane-surface $-1 51.955931272316661 0 0 -1 0 0 0 0 1 forward_v I I I I #
coedge $-1 $287 $278 $277 $327 forward $196 $-1 #
coedge $-1 $199 $198 $276 $327 reversed $70 $-1 #
coedge $-1 $276 $328 $200 $279 reversed $196 $-1 #
edge $-1 $280 -51.955931272316661 $283 51.955931272316661 $278 $329 forward 7 unknown #
vertex $-1 $201 $330 #
straight-curve $-1 -51.955931272316661 0 11.55276283992665 0 -1 0 I I #
coedge $-1 $208 $202 $328 $331 forward $209 $-1 #
vertex $-1 $203 $332 #
straight-curve $-1 51.955931272316661 0 11.55276283992665 0 1 0 I I #
point $-1 51.955931272316661 -36.060907832900838 11.55276283992665 #
point $-1 -51.955931272316661 -36.060907832900838 11.55276283992665 #
coedge $-1 $328 $276 $211 $288 reversed $196 $-1 #
edge $-1 $289 -51.955931272316661 $291 51.955931272316661 $287 $333 forward 7 unknown #
vertex $-1 $331 $334 #
straight-curve $-1 51.955931272316661 -43.353554559010696 7.692016856169678 0 -1 0 I I #
vertex $-1 $213 $335 #
straight-curve $-1 -51.955931272316661 -43.353554559010696 7.692016856169678 0 1 0 I I #
plane-surface $-1 -51.955931272316661 0 0 1 0 0 0 0 -1 forward_v I I I I #
coedge $-1 $336 $219 $220 $297 reversed $136 $-1 #
coedge $-1 $219 $336 $300 $337 reversed $136 $-1 #
edge $-1 $301 -1.9303729918784871 $298 1.9303729918784871 $222 $338 forward 7 unknown #
edge $-1 $309 -51.955931272316661 $298 51.955931272316661 $294 $339 forward 7 unknown #
vertex $-1 $221 $340 #
straight-curve $-1 51.955931272316661 43.353554559010703 7.692016856169678 0 -1 0 I I #
coedge $-1 $304 $223 $295 $337 forward $217 $-1 #
vertex $-1 $224 $341 #
straight-curve $-1 51.955931272316661 0 11.55276283992665 0 1 0 I I #
point $-1 51.955931272316661 36.060907832900838 11.55276283992665 #
coedge $-1 $227 $300 $229 $307 forward $217 $-1 #
straight-curve $-1 0 36.060907832900838 11.55276283992665 1 0 0 I I #
coedge $-1 $230 $229 $336 $342 forward $231 $-1 #
edge $-1 $343 -50.646201285120561 $232 -36.060907832900838 $229 $344 forward 7 unknown #
point $-1 -51.955931272316661 36.060907832900838 11.55276283992665 #
vertex $-1 $297 $345 #
straight-curve $-1 -51.955931272316661 43.353554559010703 7.692016856169678 0 1 0 I I #
coedge $-1 $248 $247 $240 $312 forward $237 $-1 #
edge $-1 $313 59.917501842472994 $316 71.118151975375497 $311 $346 forward 7 unknown #
vertex $-1 $252 $347 #
straight-curve $-1 8.2023236645005113 -21.475614380681126 11.552762839926658 1 0 0 I I #
edge $-1 $316 -13.418796998190347 $249 -2.6948377667912116 $248 $348 forward 7 unknown #
vertex $-1 $315 $349 #
straight-curve $-1 -37.113919028228729 -21.475614380681126 53.870679064253906 -0.85716729658548041 0 0.51503808176128008 I I #
point $-1 33.314919404635354 -21.475614380681126 11.55276283992665 #
point $-1 51.955931272316668 -10.751655149281991 0.35211270702414765 #
straight-curve $-1 51.955931272316661 0 11.55276283992665 0 1 0 I I #
vertex $-1 $255 $350 #
point $-1 41.261161770029965 -16.113634764981558 -1.1887308468782984 #
straight-curve $-1 -51.955931272316661 36.060907832900838 0 0 0 -1 I I #
point $-1 -51.955931272316661 -36.060907832900838 -11.55276283992665 #
straight-curve $-1 -51.955931272316661 0 -11.55276283992665 0 1 0 I I #
point $-1 -51.955931272316661 36.060907832900838 -11.55276283992665 #
edge $-1 $280 -1.9303729918784871 $291 1.9303729918784871 $277 $351 forward 7 unknown #
coedge $-1 $278 $287 $282 $331 reversed $196 $-1 #
straight-curve $-1 0 -50.646201285120554 11.552762839926652 1 0 0 I I #
point $-1 -51.955931272316661 -50.646201285120554 11.552762839926652 #
edge $-1 $283 -1.9303729918784871 $289 1.9303729918784871 $282 $352 forward 7 unknown #
point $-1 51.955931272316661 -50.646201285120554 11.552762839926652 #
straight-curve $-1 0 -50.646201285120554 7.692016856169678 -1 0 0 I I #
point $-1 51.955931272316661 -50.646201285120554 7.692016856169678 #
point $-1 -51.955931272316661 -50.646201285120554 7.692016856169678 #
coedge $-1 $295 $294 $306 $342 reversed $136 $-1 #
edge $-1 $301 -51.955931272316661 $343 51.955931272316661 $295 $353 forward 7 unknown #
straight-curve $-1 51.955931272316661 50.646201285120561 9.6223898480481651 0 0 -1 I I #
straight-curve $-1 0 50.646201285120561 7.692016856169678 1 0 0 I I #
point $-1 51.955931272316661 50.646201285120561 7.692016856169678 #
point $-1 51.955931272316661 50.646201285120561 11.552762839926652 #
edge $-1 $343 -1.9303729918784871 $309 1.9303729918784871 $336 $354 forward 7 unknown #
vertex $-1 $337 $355 #
straight-curve $-1 -51.955931272316661 0 11.55276283992665 0 -1 0 I I #
point $-1 -51.955931272316661 50.646201285120561 7.692016856169678 #
straight-curve $-1 51.955931272316661 -21.475614380681126 71.470264682399645 0 0 -1 I I #
point $-1 51.955931272316661 -21.475614380681126 11.55276283992665 #
straight-curve $-1 51.955931272316661 -8.0568173824907792 0.3521127070241441 0 1 0 I I #
point $-1 51.955931272316668 -21.475614380681126 0.35211270702414765 #
point $-1 37.830648324163064 -16.113634764981558 -2.0440538839388003 #
straight-curve $-1 -51.955931272316661 -50.646201285120554 9.6223898480481651 0 0 -1 I I #
straight-curve $-1 51.955931272316661 -50.646201285120554 9.6223898480481651 0 0 -1 I I #
straight-curve $-1 0 50.646201285120561 11.552762839926652 -1 0 0 I I #
straight-curve $-1 -51.955931272316661 50.646201285120561 9.6223898480481651 0 0 -1 I I #
point $-1 -51.955931272316661 50.646201285120561 11.552762839926652 #
End-of-ACIS-data 