500 0 8 0           
7 Unknown 11 ACIS 5.0 NT 24 Thu Mar 25 19:35:02 1999 
-1 9.9999999999999995e-007 1e-010 
body $-1 $8 $-1 $9 #
body $-1 $10 $-1 $11 #
body $-1 $12 $-1 $13 #
body $-1 $14 $-1 $15 #
body $-1 $16 $-1 $17 #
body $-1 $18 $-1 $19 #
body $-1 $20 $-1 $21 #
body $-1 $22 $-1 $23 #
lump $-1 $-1 $24 $0 #
transform $-1 1 0 0 0 1 0 0 0 1 48.987090670491654 21.479898148332865 7.1190388470436741 1 rotate no_reflect no_shear #
lump $-1 $-1 $25 $1 #
transform $-1 1 0 0 0 1 0 0 0 1 48.987090670491654 21.479898148332865 7.1190388470436741 1 rotate no_reflect no_shear #
lump $-1 $-1 $26 $2 #
transform $-1 1 0 0 0 1 0 0 0 1 48.987090670491654 21.479898148332865 7.1190388470436741 1 rotate no_reflect no_shear #
lump $-1 $-1 $27 $3 #
transform $-1 1 0 0 0 1 0 0 0 1 48.987090670491654 21.479898148332865 7.1190388470436741 1 rotate no_reflect no_shear #
lump $-1 $-1 $28 $4 #
transform $-1 1 0 0 0 1 0 0 0 1 48.987090670491654 21.479898148332865 7.1190388470436741 1 rotate no_reflect no_shear #
lump $-1 $-1 $29 $5 #
transform $-1 1 0 0 0 1 0 0 0 1 48.987090670491654 21.479898148332865 7.1190388470436741 1 rotate no_reflect no_shear #
lump $-1 $-1 $30 $6 #
transform $-1 1 0 0 0 1 0 0 0 1 48.987090670491654 21.479898148332865 7.1190388470436741 1 rotate no_reflect no_shear #
lump $-1 $-1 $31 $7 #
transform $-1 1 0 0 0 1 0 0 0 1 48.987090670491654 21.479898148332865 7.1190388470436741 1 rotate no_reflect no_shear #
shell $-1 $-1 $-1 $32 $-1 $8 #
shell $-1 $-1 $-1 $33 $-1 $10 #
shell $-1 $-1 $-1 $34 $-1 $12 #
shell $-1 $-1 $-1 $35 $-1 $14 #
shell $-1 $-1 $-1 $36 $-1 $16 #
shell $-1 $-1 $-1 $37 $-1 $18 #
shell $-1 $-1 $-1 $38 $-1 $20 #
shell $-1 $-1 $-1 $39 $-1 $22 #
face $-1 $40 $41 $24 $-1 $42 forward single #
face $-1 $43 $44 $25 $-1 $45 forward single #
face $-1 $46 $47 $26 $-1 $48 reversed single #
face $-1 $49 $50 $27 $-1 $51 forward single #
face $-1 $52 $53 $28 $-1 $54 forward single #
face $-1 $55 $56 $29 $-1 $57 forward single #
face $-1 $58 $59 $30 $-1 $60 reversed single #
face $-1 $61 $62 $31 $-1 $63 forward single #
face $-1 $64 $65 $24 $-1 $66 reversed single #
loop $-1 $-1 $67 $32 #
plane-surface $-1 0 0 7.1190388470436741 0 0 1 1 0 0 forward_v I I I I #
face $-1 $68 $69 $25 $-1 $70 reversed single #
loop $-1 $-1 $71 $33 #
plane-surface $-1 0 -16.927880380102479 -0.3930194962161655 0 0 1 1 0 0 forward_v I I I I #
face $-1 $72 $73 $26 $-1 $74 reversed single #
loop $-1 $-1 $75 $34 #
plane-surface $-1 44.151543021895051 -1.9220754345461444 140.26333494018206 0 1 0 0.68199836817093118 0 0.7313536940579346 forward_v I I I I #
face $-1 $76 $77 $27 $-1 $78 forward single #
loop $-1 $79 $80 $35 #
cone-surface $-1 45.789454038336636 -0.63441714402243221 4.0895044248520929 -0.68199836817093118 0 -0.7313536940579346 0.3656768470289673 0 -0.34099918408546559 1 I I 0 1 0.5 forward I I I I #
face $-1 $81 $82 $28 $-1 $83 forward single #
loop $-1 $84 $85 $36 #
cone-surface $-1 45.789454038336636 1.2970702917631378 4.0895044248520929 -0.68199836817093118 0 -0.7313536940579346 0.3656768470289673 0 -0.34099918408546559 1 I I 0 1 0.5 forward I I I I #
face $-1 $86 $87 $29 $-1 $88 forward single #
loop $-1 $89 $90 $37 #
cone-surface $-1 45.789454038336636 3.2285577275487078 4.0895044248520929 -0.68199836817093118 0 -0.7313536940579346 0.3656768470289673 0 -0.34099918408546559 1 I I 0 1 0.5 forward I I I I #
face $-1 $91 $92 $30 $-1 $93 reversed single #
loop $-1 $-1 $94 $38 #
plane-surface $-1 -129.24284240040367 11.408164210648923 58.469090408130178 0 1 0 -0.81915205242281985 0 0.57357642473473569 forward_v I I I I #
face $-1 $95 $96 $31 $-1 $97 forward single #
loop $-1 $98 $99 $39 #
cone-surface $-1 -46.418829636139272 16.444031179490892 4.0857917372164199 0.81915205242281985 0 -0.57357642473473569 0.57357642473473569 0 0.81915205242281985 1 I I 0 1 1 forward I I I I #
face $-1 $100 $101 $24 $-1 $102 reversed single #
loop $-1 $-1 $103 $40 #
plane-surface $-1 0 0 -7.1190388470436741 0 0 1 1 0 0 forward_v I I I I #
coedge $-1 $104 $105 $106 $107 forward $41 $-1 #
face $-1 $108 $109 $25 $-1 $110 reversed single #
loop $-1 $-1 $111 $43 #
plane-surface $-1 0 -16.927880380102479 -3.3930194962161657 0 0 1 1 0 0 forward_v I I I I #
coedge $-1 $112 $113 $114 $115 reversed $44 $-1 #
face $-1 $116 $117 $26 $-1 $118 reversed single #
loop $-1 $-1 $119 $46 #
plane-surface $-1 -22.666688775538461 1.2970702917631378 68.609555494151948 0.68199836817093118 0 0.7313536940579346 0.7313536940579346 0 -0.68199836817093118 forward_v I I I I #
coedge $-1 $120 $121 $122 $123 reversed $47 $-1 #
face $-1 $-1 $124 $27 $-1 $125 forward single #
loop $-1 $126 $127 $49 #
cone-surface $-1 45.277955262208437 -0.63441714402243221 3.540989154308642 -0.68199836817093118 0 -0.7313536940579346 0.18283842351448365 0 -0.17049959204273279 1 I I -0.70710678118654746 0.70710678118654746 0.25 forward I I I I #
loop $-1 $-1 $128 $35 #
coedge $-1 $80 $80 $129 $130 reversed $50 $-1 #
face $-1 $-1 $131 $28 $-1 $132 forward single #
loop $-1 $133 $134 $52 #
cone-surface $-1 45.277955262208437 1.2970702917631378 3.540989154308642 -0.68199836817093118 0 -0.7313536940579346 0.18283842351448365 0 -0.17049959204273279 1 I I -0.70710678118654746 0.70710678118654746 0.25 forward I I I I #
loop $-1 $-1 $135 $36 #
coedge $-1 $85 $85 $136 $137 reversed $53 $-1 #
face $-1 $-1 $138 $29 $-1 $139 forward single #
loop $-1 $140 $141 $55 #
cone-surface $-1 45.277955262208437 3.2285577275487078 3.540989154308642 -0.68199836817093118 0 -0.7313536940579346 0.18283842351448365 0 -0.17049959204273279 1 I I -0.70710678118654746 0.70710678118654746 0.25 forward I I I I #
loop $-1 $-1 $142 $37 #
coedge $-1 $90 $90 $143 $144 reversed $56 $-1 #
face $-1 $145 $146 $30 $-1 $147 forward single #
loop $-1 $-1 $148 $58 #
plane-surface $-1 -48.987090670491654 16.444031179490892 2.2734097582563209 -0.81915205242281985 0 0.57357642473473569 0.57357642473473569 0 0.81915205242281985 forward_v I I I I #
coedge $-1 $149 $150 $151 $152 reversed $59 $-1 #
face $-1 $-1 $153 $31 $-1 $154 forward single #
loop $-1 $155 $156 $61 #
cone-surface $-1 -45.137465532041119 16.444031179490892 3.1885709594154736 0.81915205242281985 0 -0.57357642473473569 0.28678821236736785 0 0.40957602621140993 1 I I -0.70710678118654746 0.70710678118654746 0.5 forward I I I I #
loop $-1 $-1 $157 $39 #
coedge $-1 $99 $99 $158 $159 reversed $62 $-1 #
face $-1 $160 $161 $24 $-1 $162 reversed single #
loop $-1 $-1 $163 $64 #
plane-surface $-1 0 -21.479898148332865 0 0 1 0 0 0 1 forward_v I I I I #
coedge $-1 $164 $165 $166 $167 forward $65 $-1 #
coedge $-1 $168 $67 $169 $170 forward $41 $-1 #
coedge $-1 $67 $168 $171 $172 forward $41 $-1 #
coedge $-1 $173 $174 $67 $107 reversed $175 $-1 #
edge $-1 $176 -21.479898148332865 $177 21.479898148332865 $106 $178 forward 7 unknown #
face $-1 $179 $180 $25 $-1 $181 reversed single #
loop $-1 $-1 $182 $68 #
plane-surface $-1 0 -12.375862611872096 -1.8930194962161657 0 -1 0 0 0 -1 forward_v I I I I #
coedge $-1 $183 $184 $185 $186 reversed $69 $-1 #
coedge $-1 $187 $71 $188 $189 forward $44 $-1 #
coedge $-1 $71 $187 $190 $191 reversed $44 $-1 #
coedge $-1 $192 $193 $71 $115 forward $194 $-1 #
edge $-1 $195 3.9119224218208561 $196 13.015957958281625 $114 $197 forward 7 unknown #
face $-1 $198 $199 $26 $-1 $200 forward single #
loop $-1 $-1 $201 $72 #
plane-surface $-1 44.151543021895051 4.51621601807242 140.26333494018206 0 -1 0 -0.68199836817093118 0 -0.7313536940579346 forward_v I I I I #
coedge $-1 $202 $203 $204 $205 reversed $73 $-1 #
coedge $-1 $121 $75 $206 $207 reversed $47 $-1 #
coedge $-1 $75 $120 $202 $208 reversed $47 $-1 #
coedge $-1 $204 $209 $75 $123 forward $210 $-1 #
edge $-1 $211 63.012628623047355 $212 68.340343773372595 $122 $213 forward 7 unknown #
loop $-1 $-1 $129 $76 #
plane-surface $-1 -22.666688775538461 1.2970702917631378 68.609555494151948 0.68199836817093118 0 0.7313536940579346 0.7313536940579346 0 -0.68199836817093118 forward_v I I I I #
loop $-1 $-1 $214 $49 #
coedge $-1 $127 $127 $128 $215 reversed $77 $-1 #
coedge $-1 $128 $128 $127 $215 forward $79 $-1 #
coedge $-1 $129 $129 $80 $130 forward $124 $-1 #
edge $-1 $216 0 $216 6.2831853071796004 $129 $217 forward 7 unknown #
loop $-1 $-1 $136 $81 #
plane-surface $-1 -22.666688775538461 1.2970702917631378 68.609555494151948 0.68199836817093118 0 0.7313536940579346 0.7313536940579346 0 -0.68199836817093118 forward_v I I I I #
loop $-1 $-1 $218 $52 #
coedge $-1 $134 $134 $135 $219 reversed $82 $-1 #
coedge $-1 $135 $135 $134 $219 forward $84 $-1 #
coedge $-1 $136 $136 $85 $137 forward $131 $-1 #
edge $-1 $220 0 $220 6.2831853071796004 $136 $221 forward 7 unknown #
loop $-1 $-1 $143 $86 #
plane-surface $-1 -22.666688775538461 1.2970702917631378 68.609555494151948 0.68199836817093118 0 0.7313536940579346 0.7313536940579346 0 -0.68199836817093118 forward_v I I I I #
loop $-1 $-1 $222 $55 #
coedge $-1 $141 $141 $142 $223 reversed $87 $-1 #
coedge $-1 $142 $142 $141 $223 forward $89 $-1 #
coedge $-1 $143 $143 $90 $144 forward $138 $-1 #
edge $-1 $224 0 $224 6.2831853071796004 $143 $225 forward 7 unknown #
face $-1 $226 $227 $30 $-1 $228 reversed single #
loop $-1 $-1 $151 $91 #
plane-surface $-1 0 0 7.1190388470436741 0 0 1 1 0 0 forward_v I I I I #
coedge $-1 $229 $230 $231 $232 reversed $92 $-1 #
coedge $-1 $150 $94 $233 $234 reversed $59 $-1 #
coedge $-1 $94 $149 $229 $235 reversed $59 $-1 #
coedge $-1 $231 $236 $94 $152 forward $146 $-1 #
edge $-1 $237 15.634330529710184 $238 19.027276442641472 $151 $239 forward 7 unknown #
loop $-1 $-1 $158 $95 #
plane-surface $-1 -48.987090670491654 16.444031179490892 2.2734097582563209 -0.81915205242281985 0 0.57357642473473569 0.57357642473473569 0 0.81915205242281985 forward_v I I I I #
loop $-1 $-1 $240 $61 #
coedge $-1 $156 $156 $157 $241 reversed $96 $-1 #
coedge $-1 $157 $157 $156 $241 forward $98 $-1 #
coedge $-1 $158 $158 $99 $159 forward $153 $-1 #
edge $-1 $242 0 $242 6.2831853071796004 $158 $243 forward 7 unknown #
face $-1 $244 $245 $24 $-1 $246 reversed single #
loop $-1 $-1 $247 $100 #
plane-surface $-1 -48.987090670491654 0 0 1 0 0 0 0 -1 forward_v I I I I #
coedge $-1 $248 $171 $249 $250 forward $101 $-1 #
coedge $-1 $251 $103 $248 $252 forward $65 $-1 #
coedge $-1 $103 $251 $253 $254 forward $65 $-1 #
coedge $-1 $174 $173 $103 $167 reversed $175 $-1 #
edge $-1 $255 -21.479898148332865 $256 21.479898148332865 $166 $257 forward 7 unknown #
coedge $-1 $105 $104 $258 $259 forward $41 $-1 #
coedge $-1 $260 $261 $104 $170 reversed $245 $-1 #
edge $-1 $177 -48.987090670491654 $262 48.987090670491654 $169 $263 forward 7 unknown #
coedge $-1 $163 $264 $105 $172 reversed $101 $-1 #
edge $-1 $265 -48.987090670491654 $176 48.987090670491654 $171 $266 forward 7 unknown #
coedge $-1 $166 $106 $264 $267 forward $175 $-1 #
coedge $-1 $106 $166 $260 $268 reversed $175 $-1 #
loop $-1 $-1 $173 $244 #
vertex $-1 $107 $269 #
vertex $-1 $107 $270 #
straight-curve $-1 48.987090670491654 0 7.1190388470436741 0 1 0 I I #
face $-1 $271 $272 $25 $-1 $273 reversed single #
loop $-1 $-1 $274 $108 #
plane-surface $-1 -48.987090670491654 0 0 1 0 0 0 0 -1 forward_v I I I I #
coedge $-1 $275 $188 $193 $276 reversed $109 $-1 #
coedge $-1 $277 $111 $278 $279 reversed $69 $-1 #
coedge $-1 $111 $277 $275 $280 forward $69 $-1 #
coedge $-1 $193 $192 $111 $186 forward $194 $-1 #
edge $-1 $281 -13.015957958281625 $282 -3.9119224218208561 $185 $283 forward 7 unknown #
coedge $-1 $113 $112 $274 $284 reversed $44 $-1 #
coedge $-1 $182 $285 $112 $189 reversed $109 $-1 #
edge $-1 $195 -48.987090670491654 $286 48.987090670491654 $188 $287 forward 7 unknown #
coedge $-1 $288 $289 $113 $191 forward $272 $-1 #
edge $-1 $196 -48.987090670491654 $290 48.987090670491654 $190 $291 forward 7 unknown #
coedge $-1 $185 $114 $289 $292 forward $194 $-1 #
coedge $-1 $114 $185 $182 $276 forward $194 $-1 #
loop $-1 $-1 $114 $271 #
vertex $-1 $115 $293 #
vertex $-1 $292 $294 #
straight-curve $-1 48.987090670491654 -8.4639401900512397 -0.3930194962161655 0 -1 0 I I #
face $-1 $-1 $210 $26 $-1 $295 reversed single #
loop $-1 $-1 $296 $116 #
plane-surface $-1 0 0 7.1190388470436741 0 0 1 1 0 0 forward_v I I I I #
coedge $-1 $297 $298 $299 $300 reversed $117 $-1 #
coedge $-1 $301 $119 $121 $208 forward $73 $-1 #
coedge $-1 $119 $301 $297 $302 forward $73 $-1 #
coedge $-1 $299 $122 $119 $205 forward $210 $-1 #
edge $-1 $212 -2.5706105804277133 $303 3.8676808721908511 $204 $304 forward 7 unknown #
coedge $-1 $305 $306 $120 $207 forward $199 $-1 #
edge $-1 $307 21.198044263405059 $211 26.911319159544128 $206 $308 forward 7 unknown #
edge $-1 $212 -97.974181340983307 $307 -90.162263601922177 $121 $309 forward 7 unknown #
coedge $-1 $122 $299 $305 $310 reversed $210 $-1 #
loop $-1 $-1 $299 $198 #
vertex $-1 $310 $311 #
vertex $-1 $123 $312 #
straight-curve $-1 48.987090670491654 -1.9220754345461444 70.131667470091031 0 0 -1 I I #
coedge $-1 $214 $214 $-1 $313 reversed $126 $-1 #
edge $-1 $314 0 $314 6.2831853071796004 $127 $315 forward 7 unknown #
vertex $-1 $130 $316 #
ellipse-curve $-1 46.130453222422112 -0.63441714402243221 4.4551812718810702 0.68199836817093118 0 0.7313536940579346 0.3656768470289673 0 -0.34099918408546559 1 I I #
coedge $-1 $218 $218 $-1 $317 reversed $133 $-1 #
edge $-1 $318 0 $318 6.2831853071796004 $134 $319 forward 7 unknown #
vertex $-1 $137 $320 #
ellipse-curve $-1 46.130453222422112 1.2970702917631378 4.4551812718810702 0.68199836817093118 0 0.7313536940579346 0.3656768470289673 0 -0.34099918408546559 1 I I #
coedge $-1 $222 $222 $-1 $321 reversed $140 $-1 #
edge $-1 $322 0 $322 6.2831853071796004 $141 $323 forward 7 unknown #
vertex $-1 $144 $324 #
ellipse-curve $-1 46.130453222422112 3.2285577275487078 4.4551812718810702 0.68199836817093118 0 0.7313536940579346 0.3656768470289673 0 -0.34099918408546559 1 I I #
face $-1 $-1 $325 $30 $-1 $326 reversed single #
loop $-1 $-1 $327 $145 #
plane-surface $-1 0 21.479898148332865 0 0 -1 0 0 0 -1 forward_v I I I I #
coedge $-1 $328 $148 $150 $235 forward $92 $-1 #
coedge $-1 $148 $328 $327 $329 reversed $92 $-1 #
coedge $-1 $330 $151 $148 $232 forward $146 $-1 #
edge $-1 $238 3.1861486209034773 $331 13.257882558587415 $231 $332 forward 7 unknown #
coedge $-1 $333 $334 $149 $234 forward $325 $-1 #
edge $-1 $335 -26.961135445808768 $237 -22.115506357021417 $233 $336 forward 7 unknown #
edge $-1 $238 -5.9154207994173413 $335 0 $150 $337 forward 7 unknown #
coedge $-1 $151 $330 $333 $338 forward $146 $-1 #
vertex $-1 $234 $339 #
vertex $-1 $152 $340 #
straight-curve $-1 -64.621421200201837 11.408164210648923 7.1190388470436758 1 0 0 I I #
coedge $-1 $240 $240 $-1 $341 reversed $155 $-1 #
edge $-1 $342 0 $342 6.2831853071796004 $156 $343 forward 7 unknown #
vertex $-1 $159 $344 #
ellipse-curve $-1 -47.290617714026006 16.444031179490892 4.6962243026499966 -0.81915205242281985 0 0.57357642473473569 0.57357642473473569 0 0.81915205242281985 1 I I #
face $-1 $-1 $175 $24 $-1 $345 reversed single #
loop $-1 $-1 $260 $160 #
plane-surface $-1 0 21.479898148332865 0 0 -1 0 0 0 -1 forward_v I I I I #
coedge $-1 $346 $258 $261 $347 forward $161 $-1 #
coedge $-1 $264 $163 $164 $252 reversed $101 $-1 #
coedge $-1 $258 $346 $163 $250 reversed $161 $-1 #
edge $-1 $265 -7.1190388470436741 $348 7.1190388470436741 $249 $349 forward 7 unknown #
coedge $-1 $165 $164 $346 $350 forward $65 $-1 #
edge $-1 $256 -48.987090670491654 $348 48.987090670491654 $248 $351 forward 7 unknown #
coedge $-1 $261 $260 $165 $254 reversed $245 $-1 #
edge $-1 $352 -48.987090670491654 $255 48.987090670491654 $253 $353 forward 7 unknown #
vertex $-1 $167 $354 #
vertex $-1 $267 $355 #
straight-curve $-1 48.987090670491654 0 -7.1190388470436741 0 -1 0 I I #
coedge $-1 $247 $249 $168 $259 reversed $161 $-1 #
edge $-1 $262 -21.479898148332865 $265 21.479898148332865 $258 $356 forward 7 unknown #
coedge $-1 $253 $169 $174 $268 forward $245 $-1 #
coedge $-1 $169 $253 $247 $347 reversed $245 $-1 #
vertex $-1 $170 $357 #
straight-curve $-1 0 21.479898148332865 7.1190388470436741 -1 0 0 I I #
coedge $-1 $171 $248 $173 $267 reversed $101 $-1 #
vertex $-1 $259 $358 #
straight-curve $-1 0 -21.479898148332865 7.1190388470436741 1 0 0 I I #
edge $-1 $176 -7.1190388470436741 $256 7.1190388470436741 $173 $359 forward 7 unknown #
edge $-1 $177 -7.1190388470436741 $255 7.1190388470436741 $174 $360 forward 7 unknown #
point $-1 48.987090670491654 -21.479898148332865 7.1190388470436741 #
point $-1 48.987090670491654 21.479898148332865 7.1190388470436741 #
face $-1 $-1 $194 $25 $-1 $361 reversed single #
loop $-1 $-1 $190 $179 #
plane-surface $-1 0 -21.479898148332865 0 0 1 0 0 0 1 forward_v I I I I #
coedge $-1 $362 $363 $187 $284 forward $180 $-1 #
coedge $-1 $285 $182 $184 $280 reversed $109 $-1 #
edge $-1 $282 -2.4465097481080829 $195 0.55349025189191736 $193 $364 forward 7 unknown #
coedge $-1 $184 $183 $365 $366 reversed $69 $-1 #
coedge $-1 $289 $288 $183 $279 forward $272 $-1 #
edge $-1 $367 -48.987090670491654 $281 48.987090670491654 $278 $368 forward 7 unknown #
edge $-1 $369 -48.987090670491654 $282 48.987090670491654 $275 $370 forward 7 unknown #
vertex $-1 $279 $371 #
vertex $-1 $186 $372 #
straight-curve $-1 48.987090670491654 -8.4639401900512397 -3.3930194962161657 0 1 0 I I #
edge $-1 $290 -13.015957958281625 $286 -3.9119224218208561 $274 $373 forward 7 unknown #
coedge $-1 $188 $275 $362 $374 reversed $109 $-1 #
vertex $-1 $284 $375 #
straight-curve $-1 0 -12.375862611872096 -0.3930194962161655 -1 0 0 I I #
coedge $-1 $278 $190 $363 $376 forward $272 $-1 #
coedge $-1 $190 $278 $192 $292 reversed $272 $-1 #
vertex $-1 $376 $377 #
straight-curve $-1 0 -21.479898148332865 -0.3930194962161655 -1 0 0 I I #
edge $-1 $196 0.3930194962161655 $281 3.3930194962161657 $192 $378 forward 7 unknown #
point $-1 48.987090670491654 -12.375862611872096 -0.3930194962161655 #
point $-1 48.987090670491654 -21.479898148332865 -0.3930194962161655 #
plane-surface $-1 48.987090670491654 0 0 -1 0 0 0 0 1 forward_v I I I I #
coedge $-1 $306 $305 $298 $379 forward $199 $-1 #
coedge $-1 $298 $201 $203 $302 reversed $117 $-1 #
coedge $-1 $201 $297 $296 $379 reversed $117 $-1 #
coedge $-1 $209 $204 $201 $300 forward $210 $-1 #
edge $-1 $303 -68.340343773372595 $380 -63.012628623047355 $299 $381 forward 7 unknown #
coedge $-1 $203 $202 $306 $382 reversed $73 $-1 #
edge $-1 $383 90.162263601922177 $303 97.974181340983307 $297 $384 forward 7 unknown #
vertex $-1 $205 $385 #
straight-curve $-1 48.987090670491646 0.64853514588156891 1.7913236967184432 0 1 0 I I #
coedge $-1 $296 $206 $209 $310 forward $199 $-1 #
coedge $-1 $206 $296 $301 $382 forward $199 $-1 #
vertex $-1 $207 $386 #
straight-curve $-1 22.075771510947526 -1.9220754345461444 7.1190388470436687 1 0 0 I I #
straight-curve $-1 -22.666688775538461 -1.9220754345461444 68.609555494151948 -0.7313536940579346 0 0.68199836817093118 I I #
edge $-1 $211 -1.9220754345461444 $380 4.51621601807242 $209 $387 forward 7 unknown #
point $-1 48.987090670491654 -1.9220754345461444 7.1190388470436741 #
point $-1 48.987090670491654 -1.9220754345461444 1.7913236967184361 #
edge $-1 $388 1 $388 0 $214 $-1 forward 7 unknown #
vertex $-1 $215 $389 #
ellipse-curve $-1 45.448454854251167 -0.63441714402243221 3.7238275778231258 0.68199836817093118 0 0.7313536940579346 0.3656768470289673 0 -0.34099918408546559 1 I I #
point $-1 46.49613006945107 -0.63441714402243221 4.1141820877955944 #
edge $-1 $390 1 $390 0 $218 $-1 forward 7 unknown #
vertex $-1 $219 $391 #
ellipse-curve $-1 45.448454854251167 1.2970702917631378 3.7238275778231258 0.68199836817093118 0 0.7313536940579346 0.3656768470289673 0 -0.34099918408546559 1 I I #
point $-1 46.49613006945107 1.2970702917631378 4.1141820877955944 #
edge $-1 $392 1 $392 0 $222 $-1 forward 7 unknown #
vertex $-1 $223 $393 #
ellipse-curve $-1 45.448454854251167 3.2285577275487078 3.7238275778231258 0.68199836817093118 0 0.7313536940579346 0.3656768470289673 0 -0.34099918408546559 1 I I #
point $-1 46.49613006945107 3.2285577275487078 4.1141820877955944 #
loop $-1 $-1 $233 $226 #
plane-surface $-1 -48.987090670491654 0 0 1 0 0 0 0 -1 forward_v I I I I #
coedge $-1 $394 $395 $230 $329 forward $227 $-1 #
coedge $-1 $230 $229 $334 $396 reversed $92 $-1 #
edge $-1 $331 7.2023652283142603 $397 13.117786027731603 $327 $398 forward 7 unknown #
coedge $-1 $236 $231 $395 $399 forward $146 $-1 #
vertex $-1 $399 $400 #
straight-curve $-1 -45.594144757560365 8.2220155897454461 7.1190388470436741 0 1 0 I I #
coedge $-1 $401 $233 $236 $338 reversed $325 $-1 #
coedge $-1 $233 $401 $328 $396 forward $325 $-1 #
vertex $-1 $234 $402 #
straight-curve $-1 -48.987090670491654 11.408164210648923 29.234545204065089 0 0 1 I I #
straight-curve $-1 -48.987090670491654 11.408164210648923 2.2734097582563209 -0.57357642473473569 0 -0.81915205242281985 I I #
edge $-1 $403 -21.479898148332865 $237 -11.408164210648923 $333 $404 forward 7 unknown #
point $-1 -48.987090670491654 11.408164210648923 7.1190388470436741 #
point $-1 -45.594144757560365 11.408164210648923 7.1190388470436741 #
edge $-1 $405 1 $405 0 $240 $-1 forward 7 unknown #
vertex $-1 $241 $406 #
ellipse-curve $-1 -45.547041558252531 16.444031179490892 3.4753591717828414 -0.81915205242281985 0 0.57357642473473569 0.57357642473473569 0 0.81915205242281985 1 I I #
point $-1 -46.717041289291274 16.444031179490892 5.515376355072819 #
plane-surface $-1 48.987090670491654 0 0 -1 0 0 0 0 1 forward_v I I I I #
coedge $-1 $249 $247 $251 $350 reversed $161 $-1 #
edge $-1 $262 -7.1190388470436741 $352 7.1190388470436741 $261 $407 forward 7 unknown #
vertex $-1 $350 $408 #
straight-curve $-1 -48.987090670491654 -21.479898148332865 0 0 0 -1 I I #
edge $-1 $348 -21.479898148332865 $352 21.479898148332865 $346 $409 forward 7 unknown #
straight-curve $-1 0 -21.479898148332865 -7.1190388470436741 -1 0 0 I I #
vertex $-1 $254 $410 #
straight-curve $-1 0 21.479898148332865 -7.1190388470436741 1 0 0 I I #
point $-1 48.987090670491654 21.479898148332865 -7.1190388470436741 #
point $-1 48.987090670491654 -21.479898148332865 -7.1190388470436741 #
straight-curve $-1 -48.987090670491654 0 7.1190388470436741 0 -1 0 I I #
point $-1 -48.987090670491654 21.479898148332865 7.1190388470436741 #
point $-1 -48.987090670491654 -21.479898148332865 7.1190388470436741 #
straight-curve $-1 48.987090670491654 -21.479898148332865 0 0 0 -1 I I #
straight-curve $-1 48.987090670491654 21.479898148332865 0 0 0 -1 I I #
plane-surface $-1 48.987090670491654 0 0 -1 0 0 0 0 1 forward_v I I I I #
coedge $-1 $365 $274 $285 $374 forward $180 $-1 #
coedge $-1 $274 $365 $288 $376 reversed $180 $-1 #
straight-curve $-1 48.987090670491654 -12.375862611872096 -0.94650974810808286 0 0 1 I I #
coedge $-1 $363 $362 $277 $366 forward $180 $-1 #
edge $-1 $369 3.9119224218208561 $367 13.015957958281625 $365 $411 forward 7 unknown #
vertex $-1 $279 $412 #
straight-curve $-1 0 -21.479898148332865 -3.3930194962161657 1 0 0 I I #
vertex $-1 $366 $413 #
straight-curve $-1 0 -12.375862611872096 -3.3930194962161657 1 0 0 I I #
point $-1 48.987090670491654 -21.479898148332865 -3.3930194962161657 #
point $-1 48.987090670491654 -12.375862611872096 -3.3930194962161657 #
straight-curve $-1 -48.987090670491654 -8.4639401900512397 -0.3930194962161655 0 1 0 I I #
edge $-1 $286 -0.55349025189191736 $369 2.4465097481080829 $362 $414 forward 7 unknown #
point $-1 -48.987090670491654 -12.375862611872096 -0.3930194962161655 #
edge $-1 $290 0.3930194962161655 $367 3.3930194962161657 $363 $415 forward 7 unknown #
point $-1 -48.987090670491654 -21.479898148332865 -0.3930194962161655 #
straight-curve $-1 48.987090670491654 -21.479898148332865 0 0 0 -1 I I #
edge $-1 $380 -26.911319159544128 $383 -21.198044263405059 $296 $416 forward 7 unknown #
vertex $-1 $379 $417 #
straight-curve $-1 48.987090670491654 4.51621601807242 70.131667470091031 0 0 1 I I #
edge $-1 $383 -3.8676808721908511 $307 2.5706105804277133 $306 $418 forward 7 unknown #
vertex $-1 $382 $419 #
straight-curve $-1 -22.666688775538461 4.51621601807242 68.609555494151948 0.7313536940579346 0 -0.68199836817093118 I I #
point $-1 48.987090670491654 4.51621601807242 1.7913236967184361 #
point $-1 43.273815774352585 -1.9220754345461444 7.1190388470436829 #
straight-curve $-1 48.987090670491654 0 7.1190388470436741 0 1 0 I I #
vertex $-1 $313 $420 #
point $-1 45.814131701280139 -0.63441714402243221 3.3828283937376602 #
vertex $-1 $317 $421 #
point $-1 45.814131701280139 1.2970702917631378 3.3828283937376602 #
vertex $-1 $321 $422 #
point $-1 45.814131701280139 3.2285577275487078 3.3828283937376602 #
coedge $-1 $395 $327 $401 $423 reversed $227 $-1 #
coedge $-1 $327 $394 $330 $399 reversed $227 $-1 #
edge $-1 $397 -13.257882558587415 $335 -3.1861486209034773 $334 $424 forward 7 unknown #
vertex $-1 $329 $425 #
straight-curve $-1 -41.463037860270092 21.479898148332865 13.01887110611605 -0.57357642473473569 0 -0.81915205242281985 I I #
edge $-1 $331 45.594144757560365 $403 48.987090670491654 $395 $426 forward 7 unknown #
point $-1 -45.594144757560365 21.479898148332861 7.1190388470436741 #
coedge $-1 $334 $333 $394 $423 forward $325 $-1 #
point $-1 -48.987090670491654 11.408164210648923 2.2734097582563209 #
vertex $-1 $399 $427 #
straight-curve $-1 -48.987090670491654 0 7.1190388470436741 0 -1 0 I I #
vertex $-1 $341 $428 #
point $-1 -44.973465133517792 16.444031179490892 4.2945112242056611 #
straight-curve $-1 -48.987090670491654 21.479898148332865 0 0 0 -1 I I #
point $-1 -48.987090670491654 -21.479898148332865 -7.1190388470436741 #
straight-curve $-1 -48.987090670491654 0 -7.1190388470436741 0 1 0 I I #
point $-1 -48.987090670491654 21.479898148332865 -7.1190388470436741 #
straight-curve $-1 -48.987090670491654 -8.4639401900512397 -3.3930194962161657 0 -1 0 I I #
point $-1 -48.987090670491654 -21.479898148332865 -3.3930194962161657 #
point $-1 -48.987090670491654 -12.375862611872096 -3.3930194962161657 #
straight-curve $-1 -48.987090670491654 -12.375862611872096 -0.94650974810808286 0 0 -1 I I #
straight-curve $-1 -48.987090670491654 -21.479898148332865 0 0 0 -1 I I #
straight-curve $-1 22.075771510947526 4.51621601807242 7.1190388470436687 -1 0 0 I I #
point $-1 48.987090670491654 4.51621601807242 7.1190388470436741 #
straight-curve $-1 43.273815774352585 0.64853514588156891 7.1190388470436758 0 -1 0 I I #
point $-1 43.273815774352585 4.51621601807242 7.1190388470436829 #
point $-1 45.107455670165706 -0.63441714402243221 3.3581507307941583 #
point $-1 45.107455670165706 1.2970702917631378 3.3581507307941583 #
point $-1 45.107455670165706 3.2285577275487078 3.3581507307941583 #
edge $-1 $403 -7.1190388470436741 $397 -2.2734097582563209 $394 $429 forward 7 unknown #
straight-curve $-1 -48.987090670491654 8.2220155897454461 2.27340975825632 0 -1 0 I I #
point $-1 -48.987090670491654 21.479898148332861 2.2734097582563209 #
straight-curve $-1 0 21.479898148332865 7.1190388470436741 -1 0 0 I I #
point $-1 -48.987090670491654 21.479898148332865 7.1190388470436741 #
point $-1 -44.727889505829708 16.444031179490892 2.9017827470481059 #
straight-curve $-1 -48.987090670491654 21.479898148332865 0 0 0 -1 I I #
End-of-ACIS-data 