500 0 7 0           
7 Unknown 11 ACIS 5.0 NT 24 Fri Mar 26 15:35:18 1999 
-1 9.9999999999999995e-007 1e-010 
body $-1 $7 $-1 $8 #
body $-1 $9 $-1 $10 #
body $-1 $11 $-1 $12 #
body $-1 $13 $-1 $14 #
body $-1 $15 $-1 $16 #
body $-1 $17 $-1 $18 #
body $-1 $19 $-1 $20 #
lump $-1 $-1 $21 $0 #
transform $-1 1 0 0 0 1 0 0 0 1 49.109164708395639 24.491035841436933 8.5017909904963123 1 rotate no_reflect no_shear #
lump $-1 $-1 $22 $1 #
transform $-1 1 0 0 0 1 0 0 0 1 49.109164708395639 24.491035841436933 8.5017909904963123 1 rotate no_reflect no_shear #
lump $-1 $-1 $23 $2 #
transform $-1 1 0 0 0 1 0 0 0 1 49.109164708395639 24.491035841436933 8.5017909904963123 1 rotate no_reflect no_shear #
lump $-1 $-1 $24 $3 #
transform $-1 1 0 0 0 1 0 0 0 1 49.109164708395639 24.491035841436933 8.5017909904963123 1 rotate no_reflect no_shear #
lump $-1 $-1 $25 $4 #
transform $-1 1 0 0 0 1 0 0 0 1 49.109164708395639 24.491035841436933 8.5017909904963123 1 rotate no_reflect no_shear #
lump $-1 $-1 $26 $5 #
transform $-1 1 0 0 0 1 0 0 0 1 49.109164708395639 24.491035841436933 8.5017909904963123 1 rotate no_reflect no_shear #
lump $-1 $-1 $27 $6 #
transform $-1 1 0 0 0 1 0 0 0 1 49.109164708395639 24.491035841436933 8.5017909904963123 1 rotate no_reflect no_shear #
shell $-1 $-1 $-1 $28 $-1 $7 #
shell $-1 $-1 $-1 $29 $-1 $9 #
shell $-1 $-1 $-1 $30 $-1 $11 #
shell $-1 $-1 $-1 $31 $-1 $13 #
shell $-1 $-1 $-1 $32 $-1 $15 #
shell $-1 $-1 $-1 $33 $-1 $17 #
shell $-1 $-1 $-1 $34 $-1 $19 #
face $-1 $35 $36 $21 $-1 $37 forward single #
face $-1 $38 $39 $22 $-1 $40 forward single #
face $-1 $41 $42 $23 $-1 $43 reversed single #
face $-1 $44 $45 $24 $-1 $46 forward single #
face $-1 $47 $48 $25 $-1 $49 reversed single #
face $-1 $50 $51 $26 $-1 $52 forward single #
face $-1 $53 $54 $27 $-1 $55 forward single #
face $-1 $56 $57 $21 $-1 $58 reversed single #
loop $-1 $-1 $59 $28 #
plane-surface $-1 0 0 8.5017909904963123 0 0 1 1 0 0 forward_v I I I I #
face $-1 $60 $61 $22 $-1 $62 reversed single #
loop $-1 $-1 $63 $29 #
plane-surface $-1 -49.109164708395639 0 0 1 0 0 0 0 -1 forward_v I I I I #
face $-1 $64 $65 $23 $-1 $66 reversed single #
loop $-1 $-1 $67 $30 #
plane-surface $-1 -36.717749972203372 64.70607705254838 104.5720898170206 1 0 0 0 -0.74314483375859142 -0.66913059716165679 forward_v I I I I #
face $-1 $68 $69 $24 $-1 $70 forward single #
loop $-1 $71 $72 $31 #
cone-surface $-1 -31.706123038733256 21.39512713495807 5.1415436387783373 0 -0.74314483375859142 -0.66913059716165679 0.5 0 0 1 I I 0 1 0.5 forward I I I I #
face $-1 $73 $74 $25 $-1 $75 reversed single #
loop $-1 $-1 $76 $32 #
plane-surface $-1 40.363933858766927 -24.491035841436926 0.74046749070982543 0 -0.79863551827123203 0.60181501223851219 1 0 0 forward_v I I I I #
face $-1 $77 $78 $26 $-1 $79 forward single #
loop $-1 $80 $81 $33 #
cone-surface $-1 36.615977780354612 -20.190845786181079 3.584312926525417 0 0.79863551827123203 -0.60181501223851219 1 0 0 1 I I 0 1 1 forward I I I I #
face $-1 $82 $83 $27 $-1 $84 forward single #
loop $-1 $85 $86 $34 #
cone-surface $-1 44.111889937179228 -20.190845786181079 3.584312926525417 0 0.79863551827123203 -0.60181501223851219 1 0 0 1 I I 0 1 1 forward I I I I #
face $-1 $87 $88 $21 $-1 $89 reversed single #
loop $-1 $-1 $90 $35 #
plane-surface $-1 0 0 -8.5017909904963123 0 0 1 1 0 0 forward_v I I I I #
coedge $-1 $91 $92 $93 $94 forward $36 $-1 #
face $-1 $95 $96 $22 $-1 $97 forward single #
loop $-1 $-1 $98 $38 #
plane-surface $-1 0 24.491035841436933 0 0 -1 0 0 0 -1 forward_v I I I I #
coedge $-1 $99 $100 $101 $102 forward $39 $-1 #
face $-1 $103 $104 $23 $-1 $105 reversed single #
loop $-1 $-1 $106 $41 #
plane-surface $-1 -31.706123038733256 -8.2843670339395459 38.851200402142723 0 0.74314483375859142 0.66913059716165679 1 0 0 forward_v I I I I #
coedge $-1 $107 $108 $109 $110 reversed $42 $-1 #
face $-1 $-1 $111 $24 $-1 $112 forward single #
loop $-1 $113 $114 $44 #
cone-surface $-1 -31.706123038733256 20.837768509639126 4.6396956909070948 0 -0.74314483375859142 -0.66913059716165679 0.25 0 0 1 I I -0.70710678118654746 0.70710678118654746 0.25 forward I I I I #
loop $-1 $-1 $115 $31 #
coedge $-1 $72 $72 $116 $117 reversed $45 $-1 #
face $-1 $118 $119 $25 $-1 $120 reversed single #
loop $-1 $-1 $121 $47 #
plane-surface $-1 31.618703009138208 -102.93168225895062 59.849732610722292 1 0 0 0 0.79863551827123203 -0.60181501223851219 forward_v I I I I #
coedge $-1 $122 $123 $124 $125 reversed $48 $-1 #
face $-1 $-1 $126 $26 $-1 $127 forward single #
loop $-1 $128 $129 $50 #
cone-surface $-1 36.615977780354612 -18.415626267357716 2.2465891063285106 0 0.79863551827123203 -0.60181501223851219 0.5 0 0 1 I I -0.70710678118654746 0.70710678118654746 0.5 forward I I I I #
loop $-1 $-1 $130 $33 #
coedge $-1 $81 $81 $131 $132 reversed $51 $-1 #
face $-1 $-1 $133 $27 $-1 $134 forward single #
loop $-1 $135 $136 $53 #
cone-surface $-1 44.111889937179228 -18.415626267357716 2.2465891063285106 0 0.79863551827123203 -0.60181501223851219 0.5 0 0 1 I I -0.70710678118654746 0.70710678118654746 0.5 forward I I I I #
loop $-1 $-1 $137 $34 #
coedge $-1 $86 $86 $138 $139 reversed $54 $-1 #
face $-1 $140 $141 $21 $-1 $142 reversed single #
loop $-1 $-1 $143 $56 #
plane-surface $-1 0 -24.491035841436933 0 0 1 0 0 0 1 forward_v I I I I #
coedge $-1 $144 $145 $146 $147 forward $57 $-1 #
coedge $-1 $148 $59 $149 $150 forward $36 $-1 #
coedge $-1 $59 $148 $151 $152 forward $36 $-1 #
coedge $-1 $153 $154 $59 $94 reversed $155 $-1 #
edge $-1 $156 -24.491035841436933 $157 24.491035841436933 $93 $158 forward 7 unknown #
face $-1 $159 $160 $22 $-1 $161 reversed single #
loop $-1 $-1 $101 $60 #
plane-surface $-1 -52.305622248447484 0 -4.8350222708731554 0 0 1 1 0 0 forward_v I I I I #
coedge $-1 $162 $163 $100 $164 forward $61 $-1 #
coedge $-1 $165 $63 $166 $167 reversed $39 $-1 #
coedge $-1 $63 $165 $98 $164 reversed $39 $-1 #
coedge $-1 $168 $169 $63 $102 reversed $96 $-1 #
edge $-1 $170 -24.491035841436933 $171 24.491035841436933 $101 $172 forward 7 unknown #
face $-1 $173 $174 $23 $-1 $175 forward single #
loop $-1 $-1 $176 $64 #
plane-surface $-1 -26.694496105263141 64.70607705254838 104.5720898170206 -1 0 0 0 0.74314483375859142 0.66913059716165679 forward_v I I I I #
coedge $-1 $177 $178 $179 $180 reversed $65 $-1 #
coedge $-1 $108 $67 $181 $182 reversed $42 $-1 #
coedge $-1 $67 $107 $177 $183 reversed $42 $-1 #
coedge $-1 $179 $184 $67 $110 forward $174 $-1 #
edge $-1 $185 7.8620026848372575 $186 13.310675264036398 $109 $187 forward 7 unknown #
loop $-1 $-1 $116 $68 #
plane-surface $-1 -31.706123038733256 -8.2843670339395459 38.851200402142723 0 0.74314483375859142 0.66913059716165679 1 0 0 forward_v I I I I #
loop $-1 $-1 $188 $44 #
coedge $-1 $114 $114 $115 $189 reversed $69 $-1 #
coedge $-1 $115 $115 $114 $189 forward $71 $-1 #
coedge $-1 $116 $116 $72 $117 forward $111 $-1 #
edge $-1 $190 1.5883752530884473e-015 $190 6.2831853071796022 $116 $191 forward 7 unknown #
face $-1 $192 $193 $25 $-1 $194 forward single #
loop $-1 $-1 $195 $73 #
plane-surface $-1 0 -24.491035841436933 0 0 1 0 0 0 1 forward_v I I I I #
coedge $-1 $196 $197 $198 $199 reversed $74 $-1 #
coedge $-1 $200 $76 $201 $202 reversed $48 $-1 #
coedge $-1 $76 $200 $196 $203 forward $48 $-1 #
coedge $-1 $198 $204 $76 $125 forward $193 $-1 #
edge $-1 $205 -28.927197779012182 $206 -11.436736079754745 $124 $207 forward 7 unknown #
loop $-1 $-1 $131 $77 #
plane-surface $-1 40.363933858766927 -24.491035841436926 0.74046749070982543 0 -0.79863551827123203 0.60181501223851219 1 0 0 forward_v I I I I #
loop $-1 $-1 $208 $50 #
coedge $-1 $129 $129 $130 $209 reversed $78 $-1 #
coedge $-1 $130 $130 $129 $209 forward $80 $-1 #
coedge $-1 $131 $131 $81 $132 forward $126 $-1 #
edge $-1 $210 -7.1941476101818644e-016 $210 6.2831853071795996 $131 $211 forward 7 unknown #
loop $-1 $-1 $138 $82 #
plane-surface $-1 40.363933858766927 -24.491035841436926 0.74046749070982543 0 -0.79863551827123203 0.60181501223851219 1 0 0 forward_v I I I I #
loop $-1 $-1 $212 $53 #
coedge $-1 $136 $136 $137 $213 reversed $83 $-1 #
coedge $-1 $137 $137 $136 $213 forward $85 $-1 #
coedge $-1 $138 $138 $86 $139 forward $133 $-1 #
edge $-1 $214 -7.1941476101818644e-016 $214 6.2831853071795996 $138 $215 forward 7 unknown #
face $-1 $216 $217 $21 $-1 $218 reversed single #
loop $-1 $-1 $219 $87 #
plane-surface $-1 -49.109164708395639 0 0 1 0 0 0 0 -1 forward_v I I I I #
coedge $-1 $220 $151 $221 $222 forward $88 $-1 #
coedge $-1 $223 $90 $220 $224 forward $57 $-1 #
coedge $-1 $90 $223 $225 $226 forward $57 $-1 #
coedge $-1 $154 $153 $90 $147 reversed $155 $-1 #
edge $-1 $227 -24.491035841436933 $228 24.491035841436933 $146 $229 forward 7 unknown #
coedge $-1 $92 $91 $230 $231 forward $36 $-1 #
coedge $-1 $232 $233 $91 $150 reversed $217 $-1 #
edge $-1 $157 -49.109164708395639 $234 49.109164708395639 $149 $235 forward 7 unknown #
coedge $-1 $143 $236 $92 $152 reversed $88 $-1 #
edge $-1 $237 -49.109164708395639 $156 49.109164708395639 $151 $238 forward 7 unknown #
coedge $-1 $146 $93 $236 $239 forward $155 $-1 #
coedge $-1 $93 $146 $232 $240 reversed $155 $-1 #
loop $-1 $-1 $153 $216 #
vertex $-1 $94 $241 #
vertex $-1 $94 $242 #
straight-curve $-1 49.109164708395639 0 8.5017909904963123 0 1 0 I I #
face $-1 $243 $244 $22 $-1 $245 reversed single #
loop $-1 $-1 $246 $95 #
plane-surface $-1 -55.50207978849933 0 -6.6684066306847338 1 0 0 0 0 -1 forward_v I I I I #
coedge $-1 $247 $98 $248 $249 reversed $61 $-1 #
coedge $-1 $98 $247 $168 $250 reversed $61 $-1 #
edge $-1 $170 4.8350222708731554 $251 8.5017909904963123 $98 $252 forward 7 unknown #
coedge $-1 $100 $99 $253 $254 reversed $39 $-1 #
coedge $-1 $255 $256 $99 $167 forward $257 $-1 #
edge $-1 $258 -8.5017909904963123 $171 -4.8350222708731554 $166 $259 forward 7 unknown #
coedge $-1 $260 $101 $163 $250 forward $96 $-1 #
coedge $-1 $101 $260 $255 $261 forward $96 $-1 #
vertex $-1 $164 $262 #
vertex $-1 $261 $263 #
straight-curve $-1 -49.109164708395639 0 -4.8350222708731554 0 -1 0 I I #
face $-1 $-1 $264 $23 $-1 $265 reversed single #
loop $-1 $-1 $109 $103 #
plane-surface $-1 0 0 8.5017909904963123 0 0 1 1 0 0 forward_v I I I I #
coedge $-1 $266 $267 $268 $269 reversed $104 $-1 #
coedge $-1 $270 $106 $108 $183 forward $65 $-1 #
coedge $-1 $106 $270 $266 $271 forward $65 $-1 #
coedge $-1 $268 $109 $106 $180 forward $174 $-1 #
edge $-1 $186 -20.864688452836745 $272 -10.841434585896513 $179 $273 forward 7 unknown #
coedge $-1 $274 $275 $107 $182 forward $264 $-1 #
edge $-1 $276 -49.835618024288294 $185 -43.784253918013988 $181 $277 forward 7 unknown #
edge $-1 $186 40.83915817344608 $276 48.98207168287388 $108 $278 forward 7 unknown #
coedge $-1 $109 $268 $274 $279 forward $174 $-1 #
vertex $-1 $182 $280 #
vertex $-1 $110 $281 #
straight-curve $-1 -36.717749972203372 32.35303852627419 8.5017909904963105 0 -1 0 I I #
coedge $-1 $188 $188 $-1 $282 reversed $113 $-1 #
edge $-1 $283 0 $283 6.2831853071796004 $114 $284 forward 7 unknown #
vertex $-1 $117 $285 #
ellipse-curve $-1 -31.706123038733256 21.766699551837359 5.4761089373591609 0 0.74314483375859142 0.66913059716165679 0.5 0 0 1 I I #
face $-1 $-1 $286 $25 $-1 $287 reversed single #
loop $-1 $-1 $198 $118 #
plane-surface $-1 0 0 8.5017909904963123 0 0 1 1 0 0 forward_v I I I I #
coedge $-1 $288 $289 $197 $290 forward $119 $-1 #
coedge $-1 $197 $121 $123 $203 reversed $74 $-1 #
coedge $-1 $121 $196 $195 $290 reversed $74 $-1 #
coedge $-1 $291 $124 $121 $199 forward $193 $-1 #
edge $-1 $206 -32.823381879174583 $292 -26.974805288038375 $198 $293 forward 7 unknown #
coedge $-1 $123 $122 $288 $294 reversed $48 $-1 #
coedge $-1 $295 $296 $122 $202 forward $286 $-1 #
edge $-1 $297 -7.0738546982210941 $205 2.6443751102740989 $201 $298 forward 7 unknown #
edge $-1 $299 -1.1812792947853924e-014 $206 9.718229808495181 $196 $300 forward 7 unknown #
coedge $-1 $124 $291 $295 $301 forward $193 $-1 #
vertex $-1 $202 $302 #
vertex $-1 $125 $303 #
straight-curve $-1 20.181966929383464 -18.642459250300721 8.5017909904963123 -1 0 0 I I #
coedge $-1 $208 $208 $-1 $304 reversed $128 $-1 #
edge $-1 $305 0 $305 6.2831853071796004 $129 $306 forward 7 unknown #
vertex $-1 $132 $307 #
ellipse-curve $-1 36.615977780354612 -21.566747545868825 4.6211292406030662 0 -0.79863551827123203 0.60181501223851219 1 0 0 1 I I #
coedge $-1 $212 $212 $-1 $308 reversed $135 $-1 #
edge $-1 $309 0 $309 6.2831853071796004 $136 $310 forward 7 unknown #
vertex $-1 $139 $311 #
ellipse-curve $-1 44.111889937179228 -21.566747545868825 4.6211292406030662 0 -0.79863551827123203 0.60181501223851219 1 0 0 1 I I #
face $-1 $-1 $155 $21 $-1 $312 reversed single #
loop $-1 $-1 $232 $140 #
plane-surface $-1 0 24.491035841436933 0 0 -1 0 0 0 -1 forward_v I I I I #
coedge $-1 $313 $230 $233 $314 forward $141 $-1 #
coedge $-1 $236 $143 $144 $224 reversed $88 $-1 #
coedge $-1 $230 $313 $143 $222 reversed $141 $-1 #
edge $-1 $237 -8.5017909904963123 $315 8.5017909904963123 $221 $316 forward 7 unknown #
coedge $-1 $145 $144 $313 $317 forward $57 $-1 #
edge $-1 $228 -49.109164708395639 $315 49.109164708395639 $220 $318 forward 7 unknown #
coedge $-1 $233 $232 $145 $226 reversed $217 $-1 #
edge $-1 $319 -49.109164708395639 $227 49.109164708395639 $225 $320 forward 7 unknown #
vertex $-1 $147 $321 #
vertex $-1 $239 $322 #
straight-curve $-1 49.109164708395639 0 -8.5017909904963123 0 -1 0 I I #
coedge $-1 $219 $221 $148 $231 reversed $141 $-1 #
edge $-1 $234 -24.491035841436933 $237 24.491035841436933 $230 $323 forward 7 unknown #
coedge $-1 $225 $149 $154 $240 forward $217 $-1 #
coedge $-1 $149 $225 $219 $314 reversed $217 $-1 #
vertex $-1 $150 $324 #
straight-curve $-1 0 24.491035841436933 8.5017909904963123 -1 0 0 I I #
coedge $-1 $151 $220 $153 $239 reversed $88 $-1 #
vertex $-1 $231 $325 #
straight-curve $-1 0 -24.491035841436933 8.5017909904963123 1 0 0 I I #
edge $-1 $156 -8.5017909904963123 $228 8.5017909904963123 $153 $326 forward 7 unknown #
edge $-1 $157 -8.5017909904963123 $227 8.5017909904963123 $154 $327 forward 7 unknown #
point $-1 49.109164708395639 -24.491035841436933 8.5017909904963123 #
point $-1 49.109164708395639 24.491035841436933 8.5017909904963123 #
face $-1 $-1 $257 $22 $-1 $328 reversed single #
loop $-1 $-1 $253 $159 #
plane-surface $-1 0 0 -8.5017909904963123 0 0 1 1 0 0 forward_v I I I I #
coedge $-1 $329 $330 $247 $331 forward $160 $-1 #
coedge $-1 $163 $162 $246 $331 reversed $61 $-1 #
coedge $-1 $253 $332 $162 $249 forward $244 $-1 #
edge $-1 $333 -55.50207978849933 $251 -49.109164708395639 $162 $334 forward 7 unknown #
edge $-1 $170 -3.1964575400518456 $335 3.1964575400518456 $163 $336 forward 7 unknown #
vertex $-1 $164 $337 #
straight-curve $-1 -49.109164708395639 24.491035841436933 0 0 0 -1 I I #
coedge $-1 $338 $248 $165 $254 forward $244 $-1 #
edge $-1 $251 -24.491035841436933 $258 24.491035841436933 $253 $339 forward 7 unknown #
coedge $-1 $340 $166 $169 $261 reversed $257 $-1 #
coedge $-1 $166 $340 $338 $341 reversed $257 $-1 #
loop $-1 $-1 $166 $243 #
vertex $-1 $341 $342 #
straight-curve $-1 -49.109164708395639 -24.491035841436933 0 0 0 1 I I #
coedge $-1 $169 $168 $330 $343 forward $96 $-1 #
edge $-1 $344 -3.1964575400518456 $171 3.1964575400518456 $255 $345 forward 7 unknown #
point $-1 -49.109164708395639 24.491035841436933 -4.8350222708731554 #
point $-1 -49.109164708395639 -24.491035841436933 -4.8350222708731554 #
loop $-1 $-1 $181 $173 #
plane-surface $-1 0 24.491035841436933 0 0 -1 0 0 0 -1 forward_v I I I I #
coedge $-1 $267 $176 $178 $271 reversed $104 $-1 #
coedge $-1 $176 $266 $346 $347 reversed $104 $-1 #
coedge $-1 $184 $179 $176 $269 forward $174 $-1 #
edge $-1 $272 -13.310675264036398 $348 -7.8620026848372575 $268 $349 forward 7 unknown #
coedge $-1 $178 $177 $275 $350 reversed $65 $-1 #
edge $-1 $351 -48.98207168287388 $272 -40.83915817344608 $266 $352 forward 7 unknown #
vertex $-1 $180 $353 #
straight-curve $-1 -15.853061519366628 19.042363262237785 8.501790990496314 1 0 0 I I #
coedge $-1 $346 $181 $184 $279 reversed $264 $-1 #
coedge $-1 $181 $346 $270 $350 forward $264 $-1 #
vertex $-1 $182 $354 #
straight-curve $-1 -36.717749972203372 24.491035841436933 52.286044908510299 0 0 1 I I #
straight-curve $-1 -36.717749972203372 -8.2843670339395459 38.851200402142723 0 0.66913059716165679 -0.74314483375859142 I I #
edge $-1 $348 26.694496105263141 $185 36.717749972203372 $274 $355 forward 7 unknown #
point $-1 -36.717749972203372 24.491035841436933 8.5017909904963123 #
point $-1 -36.717749972203372 19.042363262237792 8.5017909904963105 #
edge $-1 $356 1 $356 0 $188 $-1 forward 7 unknown #
vertex $-1 $189 $357 #
ellipse-curve $-1 -31.706123038733256 21.023554718078774 4.8069783401975092 0 0.74314483375859142 0.66913059716165679 0.5 0 0 1 I I #
point $-1 -31.206123038733256 21.766699551837366 5.4761089373591663 #
loop $-1 $-1 $201 $192 #
plane-surface $-1 49.109164708395639 0 0 -1 0 0 0 0 1 forward_v I I I I #
coedge $-1 $358 $195 $200 $294 forward $119 $-1 #
coedge $-1 $195 $358 $291 $359 reversed $119 $-1 #
edge $-1 $292 21.423075314864832 $299 29.184398814651331 $195 $360 forward 7 unknown #
coedge $-1 $204 $198 $289 $359 forward $193 $-1 #
vertex $-1 $359 $361 #
straight-curve $-1 31.618703009138208 -51.465841129475308 8.5017909904963105 0 -1 0 I I #
edge $-1 $299 11.436736079754745 $297 28.927197779012182 $288 $362 forward 7 unknown #
coedge $-1 $296 $201 $204 $301 reversed $286 $-1 #
coedge $-1 $201 $295 $358 $363 forward $286 $-1 #
vertex $-1 $294 $364 #
straight-curve $-1 49.109164708395639 -20.233883889653548 6.3898991037990083 0 0.60181501223851219 0.79863551827123203 I I #
vertex $-1 $294 $365 #
straight-curve $-1 31.618703009138208 -24.491035841436926 0.74046749070982543 0 0.60181501223851219 0.79863551827123203 I I #
edge $-1 $366 -24.491035841436933 $205 -18.642459250300725 $295 $367 forward 7 unknown #
point $-1 49.109164708395646 -18.642459250300725 8.5017909904963105 #
point $-1 31.618703009138208 -18.642459250300725 8.5017909904963105 #
edge $-1 $368 1 $368 0 $208 $-1 forward 7 unknown #
vertex $-1 $209 $369 #
ellipse-curve $-1 36.615977780354612 -18.814944026493333 2.5474966124477669 0 -0.79863551827123203 0.60181501223851219 1 0 0 1 I I #
point $-1 37.615977780354612 -21.566747545868829 4.621129240603068 #
edge $-1 $370 1 $370 0 $212 $-1 forward 7 unknown #
vertex $-1 $213 $371 #
ellipse-curve $-1 44.111889937179228 -18.814944026493333 2.5474966124477669 0 -0.79863551827123203 0.60181501223851219 1 0 0 1 I I #
point $-1 45.111889937179228 -21.566747545868829 4.621129240603068 #
plane-surface $-1 49.109164708395639 0 0 -1 0 0 0 0 1 forward_v I I I I #
coedge $-1 $221 $219 $223 $317 reversed $141 $-1 #
edge $-1 $234 -8.5017909904963123 $319 8.5017909904963123 $233 $372 forward 7 unknown #
vertex $-1 $317 $373 #
straight-curve $-1 -49.109164708395639 -24.491035841436933 0 0 0 -1 I I #
edge $-1 $315 -24.491035841436933 $319 24.491035841436933 $313 $374 forward 7 unknown #
straight-curve $-1 0 -24.491035841436933 -8.5017909904963123 -1 0 0 I I #
vertex $-1 $226 $375 #
straight-curve $-1 0 24.491035841436933 -8.5017909904963123 1 0 0 I I #
point $-1 49.109164708395639 24.491035841436933 -8.5017909904963123 #
point $-1 49.109164708395639 -24.491035841436933 -8.5017909904963123 #
straight-curve $-1 -49.109164708395639 0 8.5017909904963123 0 -1 0 I I #
point $-1 -49.109164708395639 24.491035841436933 8.5017909904963123 #
point $-1 -49.109164708395639 -24.491035841436933 8.5017909904963123 #
straight-curve $-1 49.109164708395639 -24.491035841436933 0 0 0 -1 I I #
straight-curve $-1 49.109164708395639 24.491035841436933 0 0 0 -1 I I #
plane-surface $-1 0 -24.491035841436933 0 0 1 0 0 0 1 forward_v I I I I #
coedge $-1 $376 $246 $332 $377 reversed $160 $-1 #
coedge $-1 $246 $376 $260 $343 reversed $160 $-1 #
edge $-1 $335 -1.8333843598115784 $333 1.8333843598115784 $247 $378 forward 7 unknown #
coedge $-1 $248 $338 $329 $377 forward $244 $-1 #
vertex $-1 $249 $379 #
straight-curve $-1 0 24.491035841436933 -8.5017909904963123 1 0 0 I I #
vertex $-1 $250 $380 #
straight-curve $-1 -52.305622248447484 24.491035841436933 -4.8350222708731554 -1 0 0 I I #
point $-1 -49.109164708395639 24.491035841436933 -8.5017909904963123 #
coedge $-1 $332 $253 $256 $341 forward $244 $-1 #
straight-curve $-1 -49.109164708395639 0 -8.5017909904963123 0 -1 0 I I #
coedge $-1 $256 $255 $376 $381 forward $257 $-1 #
edge $-1 $258 -3.1964575400518456 $382 3.1964575400518456 $256 $383 forward 7 unknown #
point $-1 -49.109164708395639 -24.491035841436933 -8.5017909904963123 #
edge $-1 $335 -24.491035841436933 $344 24.491035841436933 $330 $384 forward 7 unknown #
vertex $-1 $343 $385 #
straight-curve $-1 -52.305622248447484 -24.491035841436933 -4.8350222708731554 1 0 0 I I #
coedge $-1 $275 $274 $267 $347 forward $264 $-1 #
edge $-1 $348 43.784253918013988 $351 49.835618024288294 $346 $386 forward 7 unknown #
vertex $-1 $279 $387 #
straight-curve $-1 -26.694496105263141 32.35303852627419 8.5017909904963105 0 1 0 I I #
edge $-1 $351 10.841434585896513 $276 20.864688452836745 $275 $388 forward 7 unknown #
vertex $-1 $350 $389 #
straight-curve $-1 -26.694496105263141 -8.2843670339395459 38.851200402142723 0 -0.66913059716165679 0.74314483375859142 I I #
point $-1 -26.694496105263141 19.042363262237792 8.5017909904963105 #
point $-1 -36.717749972203372 24.491035841436933 2.4504268842220043 #
straight-curve $-1 0 24.491035841436933 8.5017909904963123 -1 0 0 I I #
vertex $-1 $282 $390 #
point $-1 -31.206123038733256 21.023554718078774 4.8069783401975092 #
coedge $-1 $289 $288 $296 $363 reversed $119 $-1 #
edge $-1 $292 31.618703009138208 $366 49.109164708395639 $289 $391 forward 7 unknown #
straight-curve $-1 31.618703009138208 -24.491035841436933 29.924866305361146 0 0 -1 I I #
point $-1 31.618703009138208 -24.491035841436933 8.5017909904963123 #
straight-curve $-1 20.181966929383464 -24.491035841436933 0.74046749070981499 1 0 0 I I #
edge $-1 $366 -8.5017909904963123 $297 -0.74046749070981599 $296 $392 forward 7 unknown #
point $-1 49.109164708395646 -24.491035841436933 0.74046749070981599 #
point $-1 31.618703009138208 -24.491035841436933 0.74046749070981599 #
vertex $-1 $301 $393 #
straight-curve $-1 49.109164708395639 0 8.5017909904963123 0 1 0 I I #
vertex $-1 $304 $394 #
point $-1 37.615977780354612 -18.814944026493333 2.5474966124477669 #
vertex $-1 $308 $395 #
point $-1 45.111889937179228 -18.814944026493333 2.5474966124477669 #
straight-curve $-1 -49.109164708395639 24.491035841436933 0 0 0 -1 I I #
point $-1 -49.109164708395639 -24.491035841436933 -8.5017909904963123 #
straight-curve $-1 -49.109164708395639 0 -8.5017909904963123 0 1 0 I I #
point $-1 -49.109164708395639 24.491035841436933 -8.5017909904963123 #
coedge $-1 $330 $329 $340 $381 reversed $160 $-1 #
edge $-1 $382 -24.491035841436933 $333 24.491035841436933 $329 $396 forward 7 unknown #
straight-curve $-1 -55.50207978849933 24.491035841436933 -6.6684066306847338 0 0 -1 I I #
point $-1 -55.50207978849933 24.491035841436933 -8.5017909904963123 #
point $-1 -55.50207978849933 24.491035841436933 -4.8350222708731554 #
edge $-1 $344 -1.8333843598115784 $382 1.8333843598115784 $376 $397 forward 7 unknown #
vertex $-1 $377 $398 #
straight-curve $-1 -52.305622248447484 -24.491035841436933 -8.5017909904963123 -1 0 0 I I #
straight-curve $-1 -55.50207978849933 0 -4.8350222708731554 0 -1 0 I I #
point $-1 -55.50207978849933 -24.491035841436933 -4.8350222708731554 #
straight-curve $-1 -26.694496105263141 24.491035841436933 52.286044908510299 0 0 -1 I I #
point $-1 -26.694496105263141 24.491035841436933 8.5017909904963123 #
straight-curve $-1 -15.853061519366628 24.491035841436933 2.4504268842220078 -1 0 0 I I #
point $-1 -26.694496105263141 24.491035841436933 2.4504268842220043 #
point $-1 -31.706123038733256 20.651982301199478 4.4724130416166803 #
straight-curve $-1 0 -24.491035841436933 8.5017909904963123 1 0 0 I I #
straight-curve $-1 49.109164708395639 -24.491035841436933 0 0 0 -1 I I #
point $-1 49.109164708395639 -24.491035841436933 8.5017909904963123 #
point $-1 36.615977780354612 -18.0163085082221 1.9456816002092545 #
point $-1 44.111889937179228 -18.0163085082221 1.9456816002092545 #
straight-curve $-1 -55.50207978849933 0 -8.5017909904963123 0 1 0 I I #
straight-curve $-1 -55.50207978849933 -24.491035841436933 -6.6684066306847338 0 0 -1 I I #
point $-1 -55.50207978849933 -24.491035841436933 -8.5017909904963123 #
End-of-ACIS-data 