500 0 6 0           
7 Unknown 11 ACIS 5.0 NT 24 Fri Mar 26 17:52:04 1999 
-1 9.9999999999999995e-007 1e-010 
body $-1 $6 $-1 $7 #
body $-1 $8 $-1 $9 #
body $-1 $10 $-1 $11 #
body $-1 $12 $-1 $13 #
body $-1 $14 $-1 $15 #
body $-1 $16 $-1 $17 #
lump $-1 $-1 $18 $0 #
transform $-1 1 0 0 0 1 0 0 0 1 77.597582934049512 46.389699769182485 17.516723450549058 1 rotate no_reflect no_shear #
lump $-1 $-1 $19 $1 #
transform $-1 1 0 0 0 1 0 0 0 1 77.597582934049512 46.389699769182485 17.516723450549058 1 rotate no_reflect no_shear #
lump $-1 $-1 $20 $2 #
transform $-1 1 0 0 0 1 0 0 0 1 77.597582934049512 46.389699769182485 17.516723450549058 1 rotate no_reflect no_shear #
lump $-1 $-1 $21 $3 #
transform $-1 1 0 0 0 1 0 0 0 1 77.597582934049512 46.389699769182485 17.516723450549058 1 rotate no_reflect no_shear #
lump $-1 $-1 $22 $4 #
transform $-1 1 0 0 0 1 0 0 0 1 77.597582934049512 46.389699769182485 17.516723450549058 1 rotate no_reflect no_shear #
lump $-1 $-1 $23 $5 #
transform $-1 1 0 0 0 1 0 0 0 1 77.597582934049512 46.389699769182485 17.516723450549058 1 rotate no_reflect no_shear #
shell $-1 $-1 $-1 $24 $-1 $6 #
shell $-1 $-1 $-1 $25 $-1 $8 #
shell $-1 $-1 $-1 $26 $-1 $10 #
shell $-1 $-1 $-1 $27 $-1 $12 #
shell $-1 $-1 $-1 $28 $-1 $14 #
shell $-1 $-1 $-1 $29 $-1 $16 #
face $-1 $30 $31 $18 $-1 $32 forward single #
face $-1 $33 $34 $19 $-1 $35 reversed single #
face $-1 $36 $37 $20 $-1 $38 reversed single #
face $-1 $39 $40 $21 $-1 $41 reversed single #
face $-1 $42 $43 $22 $-1 $44 forward single #
face $-1 $45 $46 $23 $-1 $47 forward single #
face $-1 $48 $49 $18 $-1 $50 reversed single #
loop $-1 $-1 $51 $24 #
plane-surface $-1 0 0 17.516723450549058 0 0 1 1 0 0 forward_v I I I I #
face $-1 $52 $53 $19 $-1 $54 reversed single #
loop $-1 $-1 $55 $25 #
plane-surface $-1 -66.246829533243059 0 11.035744261719245 0 0 1 1 0 0 forward_v I I I I #
face $-1 $56 $57 $20 $-1 $58 reversed single #
loop $-1 $-1 $59 $26 #
plane-surface $-1 66.246829533243044 0 11.035744261719245 0 0 1 1 0 0 forward_v I I I I #
face $-1 $60 $61 $21 $-1 $62 reversed single #
loop $-1 $-1 $63 $27 #
plane-surface $-1 25.253797258113167 -163.5169795404461 108.25572534452195 -1 0 0 0 -0.75470958851134928 0.65605901945558964 forward_v I I I I #
face $-1 $64 $65 $22 $-1 $66 forward single #
loop $-1 $67 $68 $28 #
cone-surface $-1 10.636399746729467 -39.24644563709716 9.9537621317595644 0 0.75470958851134928 -0.65605901945558964 2.5 0 0 1 I I 0 1 2.5 forward I I I I #
face $-1 $69 $70 $23 $-1 $71 forward single #
loop $-1 $72 $73 $29 #
cone-surface $-1 19.406838253559684 -39.24644563709716 9.9537621317595644 0 0.75470958851134928 -0.65605901945558964 2.5 0 0 1 I I 0 1 2.5 forward I I I I #
face $-1 $74 $75 $18 $-1 $76 reversed single #
loop $-1 $-1 $77 $30 #
plane-surface $-1 0 0 -17.516723450549058 0 0 1 1 0 0 forward_v I I I I #
coedge $-1 $78 $79 $80 $81 forward $31 $-1 #
face $-1 $82 $83 $19 $-1 $84 reversed single #
loop $-1 $-1 $85 $33 #
plane-surface $-1 -54.896076132436605 0 14.276233856134152 -1 0 0 0 0 1 forward_v I I I I #
coedge $-1 $86 $87 $88 $89 forward $34 $-1 #
face $-1 $90 $91 $20 $-1 $92 forward single #
loop $-1 $-1 $93 $36 #
plane-surface $-1 54.89607613243659 0 14.276233856134152 1 0 0 0 0 -1 forward_v I I I I #
coedge $-1 $94 $95 $96 $97 reversed $37 $-1 #
face $-1 $98 $99 $21 $-1 $100 reversed single #
loop $-1 $-1 $101 $39 #
plane-surface $-1 15.021619000144582 -46.389699769182485 6.4385370008493084 0 -0.75470958851134928 0.65605901945558964 1 0 0 forward_v I I I I #
coedge $-1 $102 $103 $104 $105 reversed $40 $-1 #
face $-1 $-1 $106 $22 $-1 $107 forward single #
loop $-1 $108 $109 $42 #
cone-surface $-1 10.636399746729467 -35.974864676400799 7.1098202635004526 0 0.75470958851134928 -0.65605901945558964 1.25 0 0 1 I I -0.70710678118654779 0.70710678118654724 1.25 forward I I I I #
loop $-1 $-1 $110 $28 #
coedge $-1 $68 $68 $111 $112 reversed $43 $-1 #
face $-1 $-1 $113 $23 $-1 $114 forward single #
loop $-1 $115 $116 $45 #
cone-surface $-1 19.406838253559684 -35.974864676400799 7.1098202635004526 0 0.75470958851134928 -0.65605901945558964 1.25 0 0 1 I I -0.70710678118654779 0.70710678118654724 1.25 forward I I I I #
loop $-1 $-1 $117 $29 #
coedge $-1 $73 $73 $118 $119 reversed $46 $-1 #
face $-1 $120 $121 $18 $-1 $122 reversed single #
loop $-1 $-1 $123 $48 #
plane-surface $-1 0 -46.389699769182485 0 0 1 0 0 0 1 forward_v I I I I #
coedge $-1 $124 $125 $126 $127 forward $49 $-1 #
coedge $-1 $128 $51 $129 $130 forward $31 $-1 #
coedge $-1 $51 $128 $131 $132 forward $31 $-1 #
coedge $-1 $133 $134 $51 $81 reversed $135 $-1 #
edge $-1 $136 -46.389699769182485 $137 46.389699769182485 $80 $138 forward 7 unknown #
face $-1 $139 $140 $19 $-1 $141 reversed single #
loop $-1 $-1 $142 $52 #
plane-surface $-1 0 46.389699769182485 0 0 -1 0 0 0 -1 forward_v I I I I #
coedge $-1 $88 $143 $144 $145 reversed $53 $-1 #
coedge $-1 $146 $55 $147 $148 reversed $34 $-1 #
coedge $-1 $55 $146 $149 $150 reversed $34 $-1 #
coedge $-1 $151 $85 $55 $89 reversed $53 $-1 #
edge $-1 $152 -46.389699769182485 $153 46.389699769182485 $88 $154 forward 7 unknown #
face $-1 $155 $156 $20 $-1 $157 reversed single #
loop $-1 $-1 $158 $56 #
plane-surface $-1 0 0 17.516723450549058 0 0 1 1 0 0 forward_v I I I I #
coedge $-1 $159 $160 $161 $162 reversed $57 $-1 #
coedge $-1 $163 $59 $164 $165 reversed $37 $-1 #
coedge $-1 $59 $163 $166 $167 reversed $37 $-1 #
coedge $-1 $168 $169 $59 $97 forward $170 $-1 #
edge $-1 $171 -46.389699769182485 $172 46.389699769182485 $96 $173 forward 7 unknown #
face $-1 $174 $175 $21 $-1 $176 forward single #
loop $-1 $-1 $177 $60 #
plane-surface $-1 4.7894407421759979 -163.5169795404461 108.25572534452195 1 0 0 0 0.75470958851134928 -0.65605901945558964 forward_v I I I I #
coedge $-1 $178 $179 $180 $181 reversed $61 $-1 #
coedge $-1 $103 $63 $182 $183 reversed $40 $-1 #
coedge $-1 $63 $102 $178 $184 reversed $40 $-1 #
coedge $-1 $180 $185 $63 $105 forward $175 $-1 #
edge $-1 $186 35.368790001040566 $187 44.998910315096865 $104 $188 forward 7 unknown #
loop $-1 $-1 $111 $64 #
plane-surface $-1 15.021619000144582 -46.389699769182485 6.4385370008493084 0 -0.75470958851134928 0.65605901945558964 1 0 0 forward_v I I I I #
loop $-1 $-1 $189 $42 #
coedge $-1 $109 $109 $110 $190 reversed $65 $-1 #
coedge $-1 $110 $110 $109 $190 forward $67 $-1 #
coedge $-1 $111 $111 $68 $112 forward $106 $-1 #
edge $-1 $191 -1.3283784662910202e-015 $191 6.2831853071795996 $111 $192 forward 7 unknown #
loop $-1 $-1 $118 $69 #
plane-surface $-1 15.021619000144582 -46.389699769182485 6.4385370008493084 0 -0.75470958851134928 0.65605901945558964 1 0 0 forward_v I I I I #
loop $-1 $-1 $193 $45 #
coedge $-1 $116 $116 $117 $194 reversed $70 $-1 #
coedge $-1 $117 $117 $116 $194 forward $72 $-1 #
coedge $-1 $118 $118 $73 $119 forward $113 $-1 #
edge $-1 $195 -1.3283784662910202e-015 $195 6.2831853071795996 $118 $196 forward 7 unknown #
face $-1 $197 $198 $18 $-1 $199 reversed single #
loop $-1 $-1 $200 $74 #
plane-surface $-1 -77.597582934049512 0 0 1 0 0 0 0 -1 forward_v I I I I #
coedge $-1 $201 $131 $202 $203 forward $75 $-1 #
coedge $-1 $204 $77 $201 $205 forward $49 $-1 #
coedge $-1 $77 $204 $206 $207 forward $49 $-1 #
coedge $-1 $134 $133 $77 $127 reversed $135 $-1 #
edge $-1 $208 -46.389699769182485 $209 46.389699769182485 $126 $210 forward 7 unknown #
coedge $-1 $79 $78 $211 $212 forward $31 $-1 #
coedge $-1 $213 $214 $78 $130 reversed $198 $-1 #
edge $-1 $137 -77.597582934049512 $215 77.597582934049512 $129 $216 forward 7 unknown #
coedge $-1 $123 $217 $79 $132 reversed $75 $-1 #
edge $-1 $218 -77.597582934049512 $136 77.597582934049512 $131 $219 forward 7 unknown #
coedge $-1 $126 $80 $217 $220 forward $135 $-1 #
coedge $-1 $80 $126 $213 $221 reversed $135 $-1 #
loop $-1 $-1 $133 $197 #
vertex $-1 $81 $222 #
vertex $-1 $81 $223 #
straight-curve $-1 77.597582934049512 0 17.516723450549058 0 1 0 I I #
face $-1 $224 $225 $19 $-1 $226 forward single #
loop $-1 $-1 $227 $82 #
plane-surface $-1 -77.597582934049512 0 0 1 0 0 0 0 -1 forward_v I I I I #
coedge $-1 $149 $228 $151 $229 forward $83 $-1 #
coedge $-1 $85 $151 $230 $231 reversed $53 $-1 #
coedge $-1 $232 $147 $85 $145 forward $233 $-1 #
edge $-1 $153 3.897627333652169 $234 10.378606522481983 $144 $235 forward 7 unknown #
coedge $-1 $87 $86 $227 $236 reversed $34 $-1 #
coedge $-1 $144 $237 $86 $148 forward $233 $-1 #
edge $-1 $238 -44.474168167427983 $153 -21.772661365815075 $147 $239 forward 7 unknown #
coedge $-1 $240 $142 $87 $150 forward $83 $-1 #
edge $-1 $152 21.772661365815075 $241 44.474168167427983 $149 $242 forward 7 unknown #
coedge $-1 $143 $88 $142 $229 reversed $53 $-1 #
vertex $-1 $150 $243 #
vertex $-1 $148 $244 #
straight-curve $-1 -54.896076132436605 0 11.035744261719245 0 -1 0 I I #
face $-1 $245 $246 $20 $-1 $247 reversed single #
loop $-1 $-1 $248 $90 #
plane-surface $-1 0 -46.389699769182485 0 0 1 0 0 0 1 forward_v I I I I #
coedge $-1 $249 $250 $160 $251 forward $91 $-1 #
coedge $-1 $252 $93 $163 $253 reversed $57 $-1 #
coedge $-1 $93 $252 $158 $251 reversed $57 $-1 #
coedge $-1 $254 $166 $93 $162 forward $246 $-1 #
edge $-1 $255 3.897627333652169 $256 10.378606522481983 $161 $257 forward 7 unknown #
coedge $-1 $95 $94 $159 $253 forward $37 $-1 #
coedge $-1 $258 $248 $94 $165 forward $156 $-1 #
edge $-1 $259 21.772661365815068 $171 44.474168167427976 $164 $260 forward 7 unknown #
coedge $-1 $161 $261 $95 $167 forward $246 $-1 #
edge $-1 $172 -44.474168167427976 $255 -21.772661365815068 $166 $262 forward 7 unknown #
coedge $-1 $263 $96 $261 $264 reversed $170 $-1 #
coedge $-1 $96 $263 $258 $265 forward $170 $-1 #
loop $-1 $-1 $96 $245 #
vertex $-1 $165 $266 #
vertex $-1 $97 $267 #
straight-curve $-1 77.597582934049512 0 11.035744261719245 0 1 0 I I #
face $-1 $-1 $268 $21 $-1 $269 reversed single #
loop $-1 $-1 $104 $98 #
plane-surface $-1 0 0 17.516723450549058 0 0 1 1 0 0 forward_v I I I I #
coedge $-1 $270 $271 $272 $273 reversed $99 $-1 #
coedge $-1 $274 $101 $103 $184 forward $61 $-1 #
coedge $-1 $101 $274 $270 $275 forward $61 $-1 #
coedge $-1 $272 $104 $101 $181 forward $175 $-1 #
edge $-1 $187 -17.742987758040876 $276 2.7213687578962933 $180 $277 forward 7 unknown #
coedge $-1 $278 $279 $102 $183 forward $268 $-1 #
edge $-1 $280 -47.689325671411666 $186 -36.611139221711916 $182 $281 forward 7 unknown #
edge $-1 $187 -14.678740827384038 $280 0 $103 $282 forward 7 unknown #
coedge $-1 $104 $272 $278 $283 forward $175 $-1 #
vertex $-1 $183 $284 #
vertex $-1 $105 $285 #
straight-curve $-1 25.253797258113167 -81.758489770223051 17.516723450549058 0 1 0 I I #
coedge $-1 $189 $189 $-1 $286 reversed $108 $-1 #
edge $-1 $287 0 $287 6.2831853071796004 $109 $288 forward 7 unknown #
vertex $-1 $112 $289 #
ellipse-curve $-1 10.636399746729467 -41.574639612154328 11.977630225699185 0 -0.75470958851134928 0.65605901945558964 2.5 0 0 1 I I #
coedge $-1 $193 $193 $-1 $290 reversed $115 $-1 #
edge $-1 $291 0 $291 6.2831853071796004 $116 $292 forward 7 unknown #
vertex $-1 $119 $293 #
ellipse-curve $-1 19.406838253559684 -41.574639612154328 11.977630225699185 0 -0.75470958851134928 0.65605901945558964 2.5 0 0 1 I I #
face $-1 $-1 $135 $18 $-1 $294 reversed single #
loop $-1 $-1 $213 $120 #
plane-surface $-1 0 46.389699769182485 0 0 -1 0 0 0 -1 forward_v I I I I #
coedge $-1 $295 $211 $214 $296 forward $121 $-1 #
coedge $-1 $217 $123 $124 $205 reversed $75 $-1 #
coedge $-1 $211 $295 $123 $203 reversed $121 $-1 #
edge $-1 $218 -17.516723450549058 $297 17.516723450549058 $202 $298 forward 7 unknown #
coedge $-1 $125 $124 $295 $299 forward $49 $-1 #
edge $-1 $209 -77.597582934049512 $297 77.597582934049512 $201 $300 forward 7 unknown #
coedge $-1 $214 $213 $125 $207 reversed $198 $-1 #
edge $-1 $301 -77.597582934049512 $208 77.597582934049512 $206 $302 forward 7 unknown #
vertex $-1 $127 $303 #
vertex $-1 $220 $304 #
straight-curve $-1 77.597582934049512 0 -17.516723450549058 0 -1 0 I I #
coedge $-1 $200 $202 $128 $212 reversed $121 $-1 #
edge $-1 $215 -46.389699769182485 $218 46.389699769182485 $211 $305 forward 7 unknown #
coedge $-1 $206 $129 $134 $221 forward $198 $-1 #
coedge $-1 $129 $206 $200 $296 reversed $198 $-1 #
vertex $-1 $130 $306 #
straight-curve $-1 0 46.389699769182485 17.516723450549058 -1 0 0 I I #
coedge $-1 $131 $201 $133 $220 reversed $75 $-1 #
vertex $-1 $212 $307 #
straight-curve $-1 0 -46.389699769182485 17.516723450549058 1 0 0 I I #
edge $-1 $136 -17.516723450549058 $209 17.516723450549058 $133 $308 forward 7 unknown #
edge $-1 $137 -17.516723450549058 $208 17.516723450549058 $134 $309 forward 7 unknown #
point $-1 77.597582934049512 -46.389699769182485 17.516723450549058 #
point $-1 77.597582934049512 46.389699769182485 17.516723450549058 #
face $-1 $-1 $233 $19 $-1 $310 reversed single #
loop $-1 $-1 $230 $139 #
plane-surface $-1 0 0 17.516723450549058 0 0 1 1 0 0 forward_v I I I I #
coedge $-1 $311 $312 $146 $236 forward $140 $-1 #
coedge $-1 $142 $240 $313 $314 reversed $83 $-1 #
edge $-1 $315 -10.378606522481983 $152 -3.897627333652169 $142 $316 forward 7 unknown #
coedge $-1 $313 $317 $143 $231 forward $225 $-1 #
edge $-1 $234 -46.389699769182485 $315 46.389699769182485 $230 $318 forward 7 unknown #
coedge $-1 $237 $144 $317 $319 reversed $233 $-1 #
loop $-1 $-1 $144 $224 #
vertex $-1 $145 $320 #
straight-curve $-1 -54.896076132436605 -46.389699769182485 7.1381169280670758 0 0 1 I I #
edge $-1 $241 -46.389699769182485 $238 46.389699769182485 $227 $321 forward 7 unknown #
coedge $-1 $147 $232 $311 $322 forward $233 $-1 #
vertex $-1 $236 $323 #
straight-curve $-1 -33.123414766621529 -46.389699769182485 11.035744261719245 1 0 0 I I #
coedge $-1 $228 $149 $312 $324 reversed $83 $-1 #
vertex $-1 $236 $325 #
straight-curve $-1 -33.123414766621529 46.389699769182485 11.035744261719245 -1 0 0 I I #
point $-1 -54.896076132436605 46.389699769182485 11.035744261719245 #
point $-1 -54.896076132436605 -46.389699769182485 11.035744261719245 #
face $-1 $-1 $170 $20 $-1 $326 reversed single #
loop $-1 $-1 $161 $155 #
plane-surface $-1 0 46.389699769182485 0 0 -1 0 0 0 -1 forward_v I I I I #
coedge $-1 $164 $327 $252 $328 forward $156 $-1 #
coedge $-1 $329 $158 $327 $330 forward $91 $-1 #
coedge $-1 $158 $329 $254 $331 forward $91 $-1 #
edge $-1 $256 -46.389699769182485 $332 46.389699769182485 $158 $333 forward 7 unknown #
coedge $-1 $160 $159 $248 $328 reversed $57 $-1 #
edge $-1 $259 -46.389699769182485 $255 46.389699769182485 $159 $334 forward 7 unknown #
coedge $-1 $261 $161 $250 $331 reversed $246 $-1 #
vertex $-1 $167 $335 #
vertex $-1 $162 $336 #
straight-curve $-1 54.89607613243659 46.389699769182485 7.1381169280670758 0 0 1 I I #
coedge $-1 $327 $164 $169 $265 reversed $156 $-1 #
vertex $-1 $165 $337 #
straight-curve $-1 33.123414766621522 -46.389699769182485 11.035744261719245 1 0 0 I I #
coedge $-1 $166 $254 $168 $264 forward $246 $-1 #
straight-curve $-1 33.123414766621522 46.389699769182485 11.035744261719245 -1 0 0 I I #
coedge $-1 $169 $168 $329 $338 reversed $170 $-1 #
edge $-1 $339 -17.516723450549058 $172 -11.035744261719245 $168 $340 forward 7 unknown #
edge $-1 $341 -17.516723450549058 $171 -11.035744261719245 $169 $342 forward 7 unknown #
point $-1 77.597582934049498 -46.389699769182485 11.035744261719245 #
point $-1 77.597582934049498 46.389699769182485 11.035744261719245 #
loop $-1 $-1 $182 $174 #
plane-surface $-1 0 -46.389699769182485 0 0 1 0 0 0 1 forward_v I I I I #
coedge $-1 $271 $177 $179 $275 reversed $99 $-1 #
coedge $-1 $177 $270 $343 $344 reversed $99 $-1 #
coedge $-1 $185 $180 $177 $273 forward $175 $-1 #
edge $-1 $276 -44.998910315096865 $345 -35.368790001040566 $272 $346 forward 7 unknown #
coedge $-1 $179 $178 $279 $347 reversed $61 $-1 #
edge $-1 $348 0 $276 14.678740827384038 $270 $349 forward 7 unknown #
vertex $-1 $181 $350 #
straight-curve $-1 7.5108095000722912 -36.759579455126179 17.516723450549058 -1 0 0 I I #
coedge $-1 $343 $182 $185 $283 reversed $268 $-1 #
coedge $-1 $182 $343 $274 $347 forward $268 $-1 #
vertex $-1 $183 $351 #
straight-curve $-1 25.253797258113167 -46.389699769182485 54.127862672260974 0 0 1 I I #
straight-curve $-1 25.253797258113167 -46.389699769182485 6.4385370008493084 0 -0.65605901945558964 -0.75470958851134928 I I #
edge $-1 $345 4.7894407421759979 $186 25.253797258113167 $278 $352 forward 7 unknown #
point $-1 25.253797258113167 -46.389699769182485 17.516723450549058 #
point $-1 25.253797258113167 -36.759579455126186 17.516723450549058 #
edge $-1 $353 1 $353 0 $189 $-1 forward 7 unknown #
vertex $-1 $190 $354 #
ellipse-curve $-1 10.636399746729467 -36.918251662039985 7.9298940378199392 0 -0.75470958851134928 0.65605901945558964 2.5 0 0 1 I I #
point $-1 13.136399746729467 -41.574639612154336 11.977630225699187 #
edge $-1 $355 1 $355 0 $193 $-1 forward 7 unknown #
vertex $-1 $194 $356 #
ellipse-curve $-1 19.406838253559684 -36.918251662039985 7.9298940378199392 0 -0.75470958851134928 0.65605901945558964 2.5 0 0 1 I I #
point $-1 21.906838253559684 -41.574639612154336 11.977630225699187 #
plane-surface $-1 77.597582934049512 0 0 -1 0 0 0 0 1 forward_v I I I I #
coedge $-1 $202 $200 $204 $299 reversed $121 $-1 #
edge $-1 $215 -17.516723450549058 $301 17.516723450549058 $214 $357 forward 7 unknown #
vertex $-1 $299 $358 #
straight-curve $-1 -77.597582934049512 -46.389699769182485 0 0 0 -1 I I #
edge $-1 $297 -46.389699769182485 $301 46.389699769182485 $295 $359 forward 7 unknown #
straight-curve $-1 0 -46.389699769182485 -17.516723450549058 -1 0 0 I I #
vertex $-1 $207 $360 #
straight-curve $-1 0 46.389699769182485 -17.516723450549058 1 0 0 I I #
point $-1 77.597582934049512 46.389699769182485 -17.516723450549058 #
point $-1 77.597582934049512 -46.389699769182485 -17.516723450549058 #
straight-curve $-1 -77.597582934049512 0 17.516723450549058 0 -1 0 I I #
point $-1 -77.597582934049512 46.389699769182485 17.516723450549058 #
point $-1 -77.597582934049512 -46.389699769182485 17.516723450549058 #
straight-curve $-1 77.597582934049512 -46.389699769182485 0 0 0 -1 I I #
straight-curve $-1 77.597582934049512 46.389699769182485 0 0 0 -1 I I #
plane-surface $-1 0 -46.389699769182485 0 0 1 0 0 0 1 forward_v I I I I #
coedge $-1 $361 $227 $237 $322 reversed $140 $-1 #
coedge $-1 $227 $361 $240 $324 forward $140 $-1 #
coedge $-1 $362 $230 $228 $314 forward $225 $-1 #
edge $-1 $315 54.896076132436605 $363 77.597582934049512 $228 $364 forward 7 unknown #
vertex $-1 $314 $365 #
straight-curve $-1 -54.896076132436605 46.389699769182485 7.1381169280670758 0 0 -1 I I #
coedge $-1 $230 $362 $232 $319 forward $225 $-1 #
straight-curve $-1 -54.896076132436605 0 17.516723450549058 0 1 0 I I #
edge $-1 $366 -77.597582934049512 $234 -54.896076132436605 $232 $367 forward 7 unknown #
point $-1 -54.896076132436605 -46.389699769182485 17.516723450549058 #
straight-curve $-1 -77.597582934049512 0 11.035744261719245 0 -1 0 I I #
edge $-1 $366 -17.516723450549058 $238 -11.035744261719245 $311 $368 forward 7 unknown #
point $-1 -77.597582934049512 -46.389699769182485 11.035744261719245 #
edge $-1 $363 -17.516723450549058 $241 -11.035744261719245 $240 $369 forward 7 unknown #
point $-1 -77.597582934049512 46.389699769182485 11.035744261719245 #
plane-surface $-1 77.597582934049512 0 0 -1 0 0 0 0 1 forward_v I I I I #
coedge $-1 $248 $258 $249 $330 reversed $156 $-1 #
edge $-1 $332 -10.378606522481983 $259 -3.897627333652169 $248 $370 forward 7 unknown #
coedge $-1 $250 $249 $263 $338 forward $91 $-1 #
edge $-1 $332 54.89607613243659 $341 77.597582934049512 $327 $371 forward 7 unknown #
edge $-1 $339 -77.597582934049512 $256 -54.89607613243659 $254 $372 forward 7 unknown #
vertex $-1 $330 $373 #
straight-curve $-1 54.89607613243659 0 17.516723450549058 0 -1 0 I I #
straight-curve $-1 54.89607613243659 0 11.035744261719245 0 1 0 I I #
point $-1 54.89607613243659 46.389699769182485 11.035744261719245 #
point $-1 54.89607613243659 46.389699769182485 17.516723450549058 #
point $-1 54.89607613243659 -46.389699769182485 11.035744261719245 #
edge $-1 $341 -46.389699769182485 $339 46.389699769182485 $263 $374 forward 7 unknown #
vertex $-1 $338 $375 #
straight-curve $-1 77.597582934049512 46.389699769182485 0 0 0 -1 I I #
vertex $-1 $338 $376 #
straight-curve $-1 77.597582934049512 -46.389699769182485 0 0 0 -1 I I #
coedge $-1 $279 $278 $271 $344 forward $268 $-1 #
edge $-1 $345 36.611139221711916 $348 47.689325671411666 $343 $377 forward 7 unknown #
vertex $-1 $283 $378 #
straight-curve $-1 4.7894407421759979 -81.758489770223051 17.516723450549058 0 -1 0 I I #
edge $-1 $348 -2.7213687578962933 $280 17.742987758040876 $279 $379 forward 7 unknown #
vertex $-1 $347 $380 #
straight-curve $-1 4.7894407421759979 -46.389699769182485 6.4385370008493084 0 0.65605901945558964 0.75470958851134928 I I #
point $-1 4.7894407421759979 -36.759579455126186 17.516723450549058 #
point $-1 25.253797258113167 -46.389699769182485 6.4385370008493084 #
straight-curve $-1 0 -46.389699769182485 17.516723450549058 1 0 0 I I #
vertex $-1 $286 $381 #
point $-1 13.136399746729467 -36.918251662039985 7.9298940378199392 #
vertex $-1 $290 $382 #
point $-1 21.906838253559684 -36.918251662039985 7.9298940378199392 #
straight-curve $-1 -77.597582934049512 46.389699769182485 0 0 0 -1 I I #
point $-1 -77.597582934049512 -46.389699769182485 -17.516723450549058 #
straight-curve $-1 -77.597582934049512 0 -17.516723450549058 0 1 0 I I #
point $-1 -77.597582934049512 46.389699769182485 -17.516723450549058 #
coedge $-1 $312 $311 $362 $383 reversed $140 $-1 #
coedge $-1 $317 $313 $361 $383 forward $225 $-1 #
vertex $-1 $314 $384 #
straight-curve $-1 0 46.389699769182485 17.516723450549058 -1 0 0 I I #
point $-1 -54.896076132436605 46.389699769182485 17.516723450549058 #
vertex $-1 $383 $385 #
straight-curve $-1 0 -46.389699769182485 17.516723450549058 1 0 0 I I #
straight-curve $-1 -77.597582934049512 -46.389699769182485 0 0 0 -1 I I #
straight-curve $-1 -77.597582934049512 46.389699769182485 0 0 0 -1 I I #
straight-curve $-1 54.89607613243659 -46.389699769182485 7.1381169280670758 0 0 -1 I I #
straight-curve $-1 0 -46.389699769182485 17.516723450549058 1 0 0 I I #
straight-curve $-1 0 46.389699769182485 17.516723450549058 -1 0 0 I I #
point $-1 54.89607613243659 -46.389699769182485 17.516723450549058 #
straight-curve $-1 77.597582934049512 0 17.516723450549058 0 1 0 I I #
point $-1 77.597582934049512 46.389699769182485 17.516723450549058 #
point $-1 77.597582934049512 -46.389699769182485 17.516723450549058 #
straight-curve $-1 4.7894407421759979 -46.389699769182485 54.127862672260974 0 0 -1 I I #
point $-1 4.7894407421759979 -46.389699769182485 17.516723450549058 #
straight-curve $-1 7.5108095000722912 -46.389699769182485 6.4385370008493084 1 0 0 I I #
point $-1 4.7894407421759979 -46.389699769182485 6.4385370008493084 #
point $-1 10.636399746729467 -35.031477690761612 6.289746489180966 #
point $-1 19.406838253559684 -35.031477690761612 6.289746489180966 #
edge $-1 $363 -46.389699769182485 $366 46.389699769182485 $361 $386 forward 7 unknown #
point $-1 -77.597582934049512 46.389699769182485 17.516723450549058 #
point $-1 -77.597582934049512 -46.389699769182485 17.516723450549058 #
straight-curve $-1 -77.597582934049512 0 17.516723450549058 0 -1 0 I I #
End-of-ACIS-data 