500 0 6 0           
7 Unknown 11 ACIS 5.0 NT 24 Thu Mar 25 20:41:37 1999 
-1 9.9999999999999995e-007 1e-010 
body $-1 $6 $-1 $7 #
body $-1 $8 $-1 $9 #
body $-1 $10 $-1 $11 #
body $-1 $12 $-1 $13 #
body $-1 $14 $-1 $15 #
body $-1 $16 $-1 $17 #
lump $-1 $-1 $18 $0 #
transform $-1 1 0 0 0 1 0 0 0 1 77.893002105777157 53.636512216951822 17.05672844483351 1 rotate no_reflect no_shear #
lump $-1 $-1 $19 $1 #
transform $-1 1 0 0 0 1 0 0 0 1 77.893002105777157 53.636512216951822 17.05672844483351 1 rotate no_reflect no_shear #
lump $-1 $-1 $20 $2 #
transform $-1 1 0 0 0 1 0 0 0 1 77.893002105777157 53.636512216951822 17.05672844483351 1 rotate no_reflect no_shear #
lump $-1 $-1 $21 $3 #
transform $-1 1 0 0 0 1 0 0 0 1 77.893002105777157 53.636512216951822 17.05672844483351 1 rotate no_reflect no_shear #
lump $-1 $-1 $22 $4 #
transform $-1 1 0 0 0 1 0 0 0 1 77.893002105777157 53.636512216951822 17.05672844483351 1 rotate no_reflect no_shear #
lump $-1 $-1 $23 $5 #
transform $-1 1 0 0 0 1 0 0 0 1 77.893002105777157 53.636512216951822 17.05672844483351 1 rotate no_reflect no_shear #
shell $-1 $-1 $-1 $24 $-1 $6 #
shell $-1 $-1 $-1 $25 $-1 $8 #
shell $-1 $-1 $-1 $26 $-1 $10 #
shell $-1 $-1 $-1 $27 $-1 $12 #
shell $-1 $-1 $-1 $28 $-1 $14 #
shell $-1 $-1 $-1 $29 $-1 $16 #
face $-1 $30 $31 $18 $-1 $32 forward single #
face $-1 $33 $34 $19 $-1 $35 forward single #
face $-1 $36 $37 $20 $-1 $38 forward single #
face $-1 $39 $40 $21 $-1 $41 reversed single #
face $-1 $42 $43 $22 $-1 $44 forward single #
face $-1 $45 $46 $23 $-1 $47 forward single #
face $-1 $48 $49 $18 $-1 $50 reversed single #
loop $-1 $-1 $51 $24 #
plane-surface $-1 0 0 17.05672844483351 0 0 1 1 0 0 forward_v I I I I #
face $-1 $52 $53 $19 $-1 $54 reversed single #
loop $-1 $-1 $55 $25 #
plane-surface $-1 0 -53.636512216951822 0 0 1 0 0 0 1 forward_v I I I I #
face $-1 $56 $57 $20 $-1 $58 reversed single #
loop $-1 $-1 $59 $26 #
plane-surface $-1 0 53.636512216951822 0 0 -1 0 0 0 -1 forward_v I I I I #
face $-1 $60 $61 $21 $-1 $62 reversed single #
loop $-1 $-1 $63 $27 #
plane-surface $-1 -212.80764051206285 -39.010806135451993 78.411649412534828 0 1 0 -0.86602541151947299 0 0.49999998660252726 forward_v I I I I #
face $-1 $64 $65 $22 $-1 $66 forward single #
loop $-1 $67 $68 $28 #
cone-surface $-1 -71.62881054942153 -34.78720507810376 7.9274026787973968 0.86602541151947299 0 -0.49999998660252726 0.49999998660252726 0 0.86602541151947299 1 I I 0 1 1 forward I I I I #
face $-1 $69 $70 $23 $-1 $71 forward single #
loop $-1 $72 $73 $29 #
cone-surface $-1 -71.62881054942153 -28.451803492081414 7.9274026787973968 0.86602541151947299 0 -0.49999998660252726 0.49999998660252726 0 0.86602541151947299 1 I I 0 1 1 forward I I I I #
face $-1 $74 $75 $18 $-1 $76 reversed single #
loop $-1 $-1 $77 $30 #
plane-surface $-1 0 0 -17.05672844483351 0 0 1 1 0 0 forward_v I I I I #
coedge $-1 $78 $79 $80 $81 forward $31 $-1 #
face $-1 $82 $83 $19 $-1 $84 reversed single #
loop $-1 $-1 $85 $33 #
plane-surface $-1 0 0 -17.05672844483351 0 0 1 1 0 0 forward_v I I I I #
coedge $-1 $86 $87 $88 $89 forward $34 $-1 #
face $-1 $90 $91 $20 $-1 $92 forward single #
loop $-1 $-1 $93 $36 #
plane-surface $-1 -77.893002105777157 0 0 1 0 0 0 0 -1 forward_v I I I I #
coedge $-1 $94 $95 $96 $97 forward $37 $-1 #
face $-1 $98 $99 $21 $-1 $100 reversed single #
loop $-1 $-1 $101 $39 #
plane-surface $-1 -77.893002105777157 -31.619504285092589 0.51864939389641052 -0.86602541151947299 0 0.49999998660252726 0.49999998660252726 0 0.86602541151947299 forward_v I I I I #
coedge $-1 $102 $103 $104 $105 reversed $40 $-1 #
face $-1 $-1 $106 $22 $-1 $107 forward single #
loop $-1 $108 $109 $42 #
cone-surface $-1 -69.705738312711603 -34.78720507810376 6.8171164449285726 0.86602541151947299 0 -0.49999998660252726 0.24999999330126363 0 0.43301270575973649 1 I I -0.70710678118654746 0.70710678118654746 0.5 forward I I I I #
loop $-1 $-1 $110 $28 #
coedge $-1 $68 $68 $111 $112 reversed $43 $-1 #
face $-1 $-1 $113 $23 $-1 $114 forward single #
loop $-1 $115 $116 $45 #
cone-surface $-1 -69.705738312711603 -28.451803492081414 6.8171164449285726 0.86602541151947299 0 -0.49999998660252726 0.24999999330126363 0 0.43301270575973649 1 I I -0.70710678118654746 0.70710678118654746 0.5 forward I I I I #
loop $-1 $-1 $117 $29 #
coedge $-1 $73 $73 $118 $119 reversed $46 $-1 #
face $-1 $120 $121 $18 $-1 $122 reversed single #
loop $-1 $-1 $123 $48 #
plane-surface $-1 0 -53.636512216951822 0 0 1 0 0 0 1 forward_v I I I I #
coedge $-1 $124 $125 $126 $127 forward $49 $-1 #
coedge $-1 $128 $51 $129 $130 forward $31 $-1 #
coedge $-1 $51 $128 $131 $132 forward $31 $-1 #
coedge $-1 $133 $134 $51 $81 reversed $135 $-1 #
edge $-1 $136 -53.636512216951822 $137 53.636512216951822 $80 $138 forward 7 unknown #
face $-1 $139 $140 $19 $-1 $141 forward single #
loop $-1 $-1 $142 $52 #
plane-surface $-1 77.893002105777157 0 0 -1 0 0 0 0 1 forward_v I I I I #
coedge $-1 $143 $144 $145 $146 forward $53 $-1 #
coedge $-1 $145 $55 $142 $147 reversed $34 $-1 #
coedge $-1 $55 $145 $148 $149 reversed $34 $-1 #
coedge $-1 $150 $151 $55 $89 reversed $140 $-1 #
edge $-1 $152 -77.893002105777157 $153 77.893002105777157 $88 $154 forward 7 unknown #
face $-1 $155 $156 $20 $-1 $157 reversed single #
loop $-1 $-1 $158 $56 #
plane-surface $-1 0 60.949365257701736 -8.6612595980070139 0 0 1 1 0 0 forward_v I I I I #
coedge $-1 $159 $160 $94 $161 forward $57 $-1 #
coedge $-1 $162 $59 $93 $161 reversed $37 $-1 #
coedge $-1 $59 $162 $163 $164 reversed $37 $-1 #
coedge $-1 $158 $165 $59 $97 reversed $91 $-1 #
edge $-1 $166 -77.893002105777157 $167 77.893002105777157 $96 $168 forward 7 unknown #
face $-1 $169 $170 $21 $-1 $171 reversed single #
loop $-1 $-1 $172 $60 #
plane-surface $-1 -212.80764051206285 -24.228202434733184 78.411649412534828 0 -1 0 0.86602541151947299 0 -0.49999998660252726 forward_v I I I I #
coedge $-1 $173 $174 $175 $176 reversed $61 $-1 #
coedge $-1 $103 $63 $177 $178 reversed $40 $-1 #
coedge $-1 $63 $102 $173 $179 reversed $40 $-1 #
coedge $-1 $175 $180 $63 $105 forward $181 $-1 #
edge $-1 $182 28.510818150254266 $183 38.059082201065152 $104 $184 forward 7 unknown #
loop $-1 $-1 $111 $64 #
plane-surface $-1 -77.893002105777157 -31.619504285092589 0.51864939389641052 -0.86602541151947299 0 0.49999998660252726 0.49999998660252726 0 0.86602541151947299 forward_v I I I I #
loop $-1 $-1 $185 $42 #
coedge $-1 $109 $109 $110 $186 reversed $65 $-1 #
coedge $-1 $110 $110 $109 $186 forward $67 $-1 #
coedge $-1 $111 $111 $68 $112 forward $106 $-1 #
edge $-1 $187 0 $187 6.2831853071796004 $111 $188 forward 7 unknown #
loop $-1 $-1 $118 $69 #
plane-surface $-1 -77.893002105777157 -31.619504285092589 0.51864939389641052 -0.86602541151947299 0 0.49999998660252726 0.49999998660252726 0 0.86602541151947299 forward_v I I I I #
loop $-1 $-1 $189 $45 #
coedge $-1 $116 $116 $117 $190 reversed $70 $-1 #
coedge $-1 $117 $117 $116 $190 forward $72 $-1 #
coedge $-1 $118 $118 $73 $119 forward $113 $-1 #
edge $-1 $191 0 $191 6.2831853071796004 $118 $192 forward 7 unknown #
face $-1 $193 $194 $18 $-1 $195 reversed single #
loop $-1 $-1 $196 $74 #
plane-surface $-1 -77.893002105777157 0 0 1 0 0 0 0 -1 forward_v I I I I #
coedge $-1 $131 $197 $133 $198 reversed $75 $-1 #
coedge $-1 $199 $77 $197 $200 forward $49 $-1 #
coedge $-1 $77 $199 $201 $202 forward $49 $-1 #
coedge $-1 $134 $133 $77 $127 reversed $135 $-1 #
edge $-1 $203 -53.636512216951822 $204 53.636512216951822 $126 $205 forward 7 unknown #
coedge $-1 $79 $78 $206 $207 forward $31 $-1 #
coedge $-1 $208 $209 $78 $130 reversed $194 $-1 #
edge $-1 $137 -77.893002105777157 $210 77.893002105777157 $129 $211 forward 7 unknown #
coedge $-1 $212 $123 $79 $132 reversed $75 $-1 #
edge $-1 $213 -77.893002105777157 $136 77.893002105777157 $131 $214 forward 7 unknown #
coedge $-1 $126 $80 $123 $198 forward $135 $-1 #
coedge $-1 $80 $126 $208 $215 reversed $135 $-1 #
loop $-1 $-1 $133 $193 #
vertex $-1 $81 $216 #
vertex $-1 $81 $217 #
straight-curve $-1 77.893002105777157 0 17.05672844483351 0 1 0 I I #
face $-1 $218 $219 $19 $-1 $220 reversed single #
loop $-1 $-1 $151 $82 #
plane-surface $-1 0 -60.949365257701736 -8.6612595980070139 0 0 1 1 0 0 forward_v I I I I #
coedge $-1 $221 $222 $86 $147 forward $83 $-1 #
coedge $-1 $223 $85 $222 $224 forward $53 $-1 #
coedge $-1 $85 $223 $225 $226 forward $53 $-1 #
coedge $-1 $87 $86 $85 $146 reversed $34 $-1 #
edge $-1 $227 -77.893002105777157 $228 77.893002105777157 $85 $229 forward 7 unknown #
edge $-1 $228 -17.05672844483351 $153 -8.6612595980070139 $142 $230 forward 7 unknown #
coedge $-1 $225 $231 $87 $149 forward $232 $-1 #
edge $-1 $152 8.6612595980070139 $227 17.05672844483351 $148 $233 forward 7 unknown #
coedge $-1 $234 $88 $231 $235 forward $140 $-1 #
coedge $-1 $88 $234 $221 $236 forward $140 $-1 #
vertex $-1 $149 $237 #
vertex $-1 $236 $238 #
straight-curve $-1 0 -53.636512216951822 -8.6612595980070139 1 0 0 I I #
face $-1 $239 $240 $20 $-1 $241 reversed single #
loop $-1 $-1 $242 $90 #
plane-surface $-1 0 68.262218298451643 -12.858994021420262 0 -1 0 0 0 -1 forward_v I I I I #
coedge $-1 $243 $96 $244 $245 forward $91 $-1 #
coedge $-1 $246 $93 $165 $247 reversed $57 $-1 #
coedge $-1 $93 $246 $248 $249 reversed $57 $-1 #
edge $-1 $250 -17.05672844483351 $167 -8.6612595980070139 $93 $251 forward 7 unknown #
coedge $-1 $95 $94 $252 $253 reversed $37 $-1 #
coedge $-1 $254 $244 $95 $164 forward $255 $-1 #
edge $-1 $166 8.6612595980070139 $256 17.05672844483351 $163 $257 forward 7 unknown #
coedge $-1 $96 $243 $159 $247 forward $91 $-1 #
vertex $-1 $164 $258 #
vertex $-1 $247 $259 #
straight-curve $-1 0 53.636512216951822 -8.6612595980070139 -1 0 0 I I #
face $-1 $-1 $181 $21 $-1 $260 forward single #
loop $-1 $-1 $261 $98 #
plane-surface $-1 -77.893002105777157 0 0 1 0 0 0 0 -1 forward_v I I I I #
coedge $-1 $262 $263 $264 $265 reversed $99 $-1 #
coedge $-1 $266 $101 $103 $179 forward $61 $-1 #
coedge $-1 $101 $266 $262 $267 forward $61 $-1 #
coedge $-1 $264 $104 $101 $176 forward $181 $-1 #
edge $-1 $183 -23.201053992905699 $268 -8.4184502921868898 $175 $269 forward 7 unknown #
coedge $-1 $270 $271 $102 $178 forward $170 $-1 #
edge $-1 $272 -38.687175312371004 $182 -22.149096261433904 $177 $273 forward 7 unknown #
edge $-1 $183 -19.096528613312213 $272 0 $103 $274 forward 7 unknown #
coedge $-1 $104 $264 $270 $275 forward $181 $-1 #
loop $-1 $-1 $264 $169 #
vertex $-1 $178 $276 #
vertex $-1 $105 $277 #
straight-curve $-1 -106.40382025603142 -39.010806135451993 17.05672844483351 1 0 0 I I #
coedge $-1 $185 $185 $-1 $278 reversed $108 $-1 #
edge $-1 $279 0 $279 6.2831853071796004 $109 $280 forward 7 unknown #
vertex $-1 $112 $281 #
ellipse-curve $-1 -73.118870080371721 -34.78720507810376 8.7876889193649568 -0.86602541151947299 0 0.49999998660252726 0.49999998660252726 0 0.86602541151947299 1 I I #
coedge $-1 $189 $189 $-1 $282 reversed $115 $-1 #
edge $-1 $283 0 $283 6.2831853071796004 $116 $284 forward 7 unknown #
vertex $-1 $119 $285 #
ellipse-curve $-1 -73.118870080371721 -28.451803492081414 8.7876889193649568 -0.86602541151947299 0 0.49999998660252726 0.49999998660252726 0 0.86602541151947299 1 I I #
face $-1 $-1 $135 $18 $-1 $286 reversed single #
loop $-1 $-1 $209 $120 #
plane-surface $-1 0 53.636512216951822 0 0 -1 0 0 0 -1 forward_v I I I I #
coedge $-1 $287 $206 $209 $288 forward $121 $-1 #
coedge $-1 $123 $212 $124 $200 reversed $75 $-1 #
edge $-1 $136 -17.05672844483351 $204 17.05672844483351 $133 $289 forward 7 unknown #
coedge $-1 $125 $124 $287 $290 forward $49 $-1 #
edge $-1 $204 -77.893002105777157 $291 77.893002105777157 $197 $292 forward 7 unknown #
coedge $-1 $209 $208 $125 $202 reversed $194 $-1 #
edge $-1 $293 -77.893002105777157 $203 77.893002105777157 $201 $294 forward 7 unknown #
vertex $-1 $127 $295 #
vertex $-1 $198 $296 #
straight-curve $-1 77.893002105777157 0 -17.05672844483351 0 -1 0 I I #
coedge $-1 $196 $297 $128 $207 reversed $121 $-1 #
edge $-1 $210 -53.636512216951822 $213 53.636512216951822 $206 $298 forward 7 unknown #
coedge $-1 $201 $129 $134 $215 forward $194 $-1 #
coedge $-1 $129 $201 $196 $288 reversed $194 $-1 #
vertex $-1 $130 $299 #
straight-curve $-1 0 53.636512216951822 17.05672844483351 -1 0 0 I I #
coedge $-1 $197 $131 $297 $300 forward $75 $-1 #
vertex $-1 $207 $301 #
straight-curve $-1 0 -53.636512216951822 17.05672844483351 1 0 0 I I #
edge $-1 $137 -17.05672844483351 $203 17.05672844483351 $134 $302 forward 7 unknown #
point $-1 77.893002105777157 -53.636512216951822 17.05672844483351 #
point $-1 77.893002105777157 53.636512216951822 17.05672844483351 #
face $-1 $-1 $232 $19 $-1 $303 reversed single #
loop $-1 $-1 $304 $139 #
plane-surface $-1 0 -68.262218298451643 -12.858994021420262 0 1 0 0 0 1 forward_v I I I I #
coedge $-1 $305 $142 $151 $236 reversed $83 $-1 #
coedge $-1 $142 $305 $143 $224 reversed $83 $-1 #
coedge $-1 $144 $143 $306 $307 forward $53 $-1 #
edge $-1 $228 53.636512216951822 $308 68.262218298451643 $222 $309 forward 7 unknown #
coedge $-1 $310 $148 $144 $226 reversed $232 $-1 #
edge $-1 $311 -68.262218298451643 $227 -53.636512216951822 $225 $312 forward 7 unknown #
vertex $-1 $149 $313 #
vertex $-1 $224 $314 #
straight-curve $-1 0 -53.636512216951822 -17.05672844483351 1 0 0 I I #
straight-curve $-1 77.893002105777157 -53.636512216951822 0 0 0 1 I I #
coedge $-1 $148 $310 $150 $235 reversed $232 $-1 #
loop $-1 $-1 $148 $218 #
straight-curve $-1 -77.893002105777157 -53.636512216951822 0 0 0 -1 I I #
coedge $-1 $151 $150 $315 $316 forward $140 $-1 #
edge $-1 $152 -7.3128530407499142 $317 7.3128530407499071 $231 $318 forward 7 unknown #
edge $-1 $319 -7.3128530407499071 $153 7.3128530407499142 $221 $320 forward 7 unknown #
point $-1 -77.893002105777157 -53.636512216951822 -8.6612595980070139 #
point $-1 77.893002105777157 -53.636512216951822 -8.6612595980070139 #
face $-1 $-1 $255 $20 $-1 $321 reversed single #
loop $-1 $-1 $252 $155 #
plane-surface $-1 0 0 -17.05672844483351 0 0 1 1 0 0 forward_v I I I I #
coedge $-1 $322 $323 $324 $325 forward $156 $-1 #
coedge $-1 $165 $158 $323 $326 forward $91 $-1 #
coedge $-1 $163 $324 $158 $245 reversed $255 $-1 #
edge $-1 $166 -7.3128530407499142 $327 7.3128530407499071 $244 $328 forward 7 unknown #
coedge $-1 $160 $159 $329 $330 forward $57 $-1 #
edge $-1 $331 -7.3128530407499071 $167 7.3128530407499142 $159 $332 forward 7 unknown #
coedge $-1 $333 $252 $160 $249 forward $240 $-1 #
edge $-1 $250 -7.3128530407499142 $334 7.3128530407499071 $160 $335 forward 7 unknown #
vertex $-1 $249 $336 #
straight-curve $-1 -77.893002105777157 53.636512216951822 0 0 0 1 I I #
coedge $-1 $248 $337 $162 $253 forward $240 $-1 #
edge $-1 $256 -77.893002105777157 $250 77.893002105777157 $252 $338 forward 7 unknown #
coedge $-1 $324 $163 $337 $339 reversed $255 $-1 #
loop $-1 $-1 $163 $239 #
vertex $-1 $164 $340 #
straight-curve $-1 77.893002105777157 53.636512216951822 0 0 0 -1 I I #
point $-1 77.893002105777157 53.636512216951822 -8.6612595980070139 #
point $-1 -77.893002105777157 53.636512216951822 -8.6612595980070139 #
plane-surface $-1 0 0 17.05672844483351 0 0 1 1 0 0 forward_v I I I I #
coedge $-1 $271 $270 $263 $341 forward $170 $-1 #
coedge $-1 $263 $172 $174 $267 reversed $99 $-1 #
coedge $-1 $172 $262 $261 $341 reversed $99 $-1 #
coedge $-1 $180 $175 $172 $265 forward $181 $-1 #
edge $-1 $268 -38.059082201065152 $342 -28.510818150254266 $264 $343 forward 7 unknown #
coedge $-1 $174 $173 $271 $344 reversed $61 $-1 #
edge $-1 $345 0 $268 19.096528613312213 $262 $346 forward 7 unknown #
vertex $-1 $176 $347 #
straight-curve $-1 -68.344738054966271 -15.809752142546294 17.05672844483351 0 1 0 I I #
coedge $-1 $261 $177 $180 $275 reversed $170 $-1 #
coedge $-1 $177 $261 $266 $344 forward $170 $-1 #
vertex $-1 $178 $348 #
straight-curve $-1 -77.893002105777157 -39.010806135451993 39.205824706267414 0 0 1 I I #
straight-curve $-1 -77.893002105777157 -39.010806135451993 0.51864939389641052 -0.49999998660252726 0 -0.86602541151947299 I I #
edge $-1 $342 24.228202434733184 $182 39.010806135451993 $270 $349 forward 7 unknown #
point $-1 -77.893002105777157 -39.010806135451993 17.05672844483351 #
point $-1 -68.344738054966271 -39.010806135451993 17.05672844483351 #
edge $-1 $350 1 $350 0 $185 $-1 forward 7 unknown #
vertex $-1 $186 $351 #
ellipse-curve $-1 -70.138751018471339 -34.78720507810376 7.0671164382298359 -0.86602541151947299 0 0.49999998660252726 0.49999998660252726 0 0.86602541151947299 1 I I #
point $-1 -72.618870093769189 -34.78720507810376 9.6537143308844318 #
edge $-1 $352 1 $352 0 $189 $-1 forward 7 unknown #
vertex $-1 $190 $353 #
ellipse-curve $-1 -70.138751018471339 -28.451803492081414 7.0671164382298359 -0.86602541151947299 0 0.49999998660252726 0.49999998660252726 0 0.86602541151947299 1 I I #
point $-1 -72.618870093769189 -28.451803492081414 9.6537143308844318 #
plane-surface $-1 77.893002105777157 0 0 -1 0 0 0 0 1 forward_v I I I I #
coedge $-1 $297 $196 $199 $290 reversed $121 $-1 #
edge $-1 $210 -17.05672844483351 $293 17.05672844483351 $209 $354 forward 7 unknown #
straight-curve $-1 77.893002105777157 -53.636512216951822 0 0 0 -1 I I #
edge $-1 $291 -53.636512216951822 $293 53.636512216951822 $287 $355 forward 7 unknown #
vertex $-1 $290 $356 #
straight-curve $-1 0 -53.636512216951822 -17.05672844483351 -1 0 0 I I #
vertex $-1 $202 $357 #
straight-curve $-1 0 53.636512216951822 -17.05672844483351 1 0 0 I I #
point $-1 77.893002105777157 53.636512216951822 -17.05672844483351 #
point $-1 77.893002105777157 -53.636512216951822 -17.05672844483351 #
coedge $-1 $206 $287 $212 $300 reversed $121 $-1 #
straight-curve $-1 -77.893002105777157 0 17.05672844483351 0 -1 0 I I #
point $-1 -77.893002105777157 53.636512216951822 17.05672844483351 #
edge $-1 $213 -17.05672844483351 $291 17.05672844483351 $297 $358 forward 7 unknown #
point $-1 -77.893002105777157 -53.636512216951822 17.05672844483351 #
straight-curve $-1 77.893002105777157 53.636512216951822 0 0 0 -1 I I #
plane-surface $-1 -77.893002105777157 0 0 1 0 0 0 0 -1 forward_v I I I I #
coedge $-1 $306 $315 $310 $359 forward $219 $-1 #
coedge $-1 $222 $221 $360 $361 forward $83 $-1 #
coedge $-1 $360 $304 $223 $307 reversed $219 $-1 #
edge $-1 $308 -77.893002105777157 $311 77.893002105777157 $306 $362 forward 7 unknown #
vertex $-1 $361 $363 #
straight-curve $-1 77.893002105777157 0 -17.05672844483351 0 -1 0 I I #
coedge $-1 $231 $225 $304 $359 reversed $232 $-1 #
vertex $-1 $226 $364 #
straight-curve $-1 -77.893002105777157 0 -17.05672844483351 0 1 0 I I #
point $-1 -77.893002105777157 -53.636512216951822 -17.05672844483351 #
point $-1 77.893002105777157 -53.636512216951822 -17.05672844483351 #
coedge $-1 $304 $360 $234 $316 reversed $219 $-1 #
edge $-1 $317 -77.893002105777157 $319 77.893002105777157 $315 $365 forward 7 unknown #
vertex $-1 $235 $366 #
straight-curve $-1 -77.893002105777157 -60.949365257701736 -8.6612595980070139 0 -1 0 I I #
vertex $-1 $236 $367 #
straight-curve $-1 77.893002105777157 -60.949365257701736 -8.6612595980070139 0 1 0 I I #
plane-surface $-1 77.893002105777157 0 0 -1 0 0 0 0 1 forward_v I I I I #
coedge $-1 $329 $242 $333 $368 reversed $156 $-1 #
coedge $-1 $242 $329 $243 $326 reversed $156 $-1 #
coedge $-1 $244 $254 $242 $325 reversed $255 $-1 #
edge $-1 $327 -4.1977344234132481 $369 4.1977344234132481 $324 $370 forward 7 unknown #
edge $-1 $327 -77.893002105777157 $331 77.893002105777157 $323 $371 forward 7 unknown #
vertex $-1 $245 $372 #
straight-curve $-1 77.893002105777157 60.949365257701736 -8.6612595980070139 0 1 0 I I #
coedge $-1 $323 $322 $246 $330 reversed $156 $-1 #
edge $-1 $331 -4.1977344234132481 $334 4.1977344234132481 $329 $373 forward 7 unknown #
vertex $-1 $326 $374 #
straight-curve $-1 -77.893002105777157 60.949365257701736 -8.6612595980070139 0 -1 0 I I #
coedge $-1 $337 $248 $322 $368 forward $240 $-1 #
vertex $-1 $368 $375 #
straight-curve $-1 -77.893002105777157 60.949365257701736 -17.05672844483351 0 1 0 I I #
point $-1 -77.893002105777157 53.636512216951822 -17.05672844483351 #
coedge $-1 $252 $333 $254 $339 forward $240 $-1 #
straight-curve $-1 0 53.636512216951822 -17.05672844483351 -1 0 0 I I #
edge $-1 $369 -68.262218298451643 $256 -53.636512216951822 $254 $376 forward 7 unknown #
point $-1 77.893002105777157 53.636512216951822 -17.05672844483351 #
edge $-1 $342 22.149096261433904 $345 38.687175312371004 $261 $377 forward 7 unknown #
vertex $-1 $275 $378 #
straight-curve $-1 -106.40382025603142 -24.228202434733184 17.05672844483351 -1 0 0 I I #
edge $-1 $345 8.4184502921868898 $272 23.201053992905699 $271 $379 forward 7 unknown #
vertex $-1 $344 $380 #
straight-curve $-1 -77.893002105777157 -24.228202434733184 0.51864939389641052 0.49999998660252726 0 0.86602541151947299 I I #
point $-1 -68.344738054966271 -24.228202434733184 17.05672844483351 #
point $-1 -77.893002105777157 -39.010806135451993 0.51864939389641052 #
straight-curve $-1 -77.893002105777157 0 17.05672844483351 0 -1 0 I I #
vertex $-1 $278 $381 #
point $-1 -69.638751031868807 -34.78720507810376 7.9331418497493091 #
vertex $-1 $282 $382 #
point $-1 -69.638751031868807 -28.451803492081414 7.9331418497493091 #
straight-curve $-1 -77.893002105777157 53.636512216951822 0 0 0 -1 I I #
straight-curve $-1 -77.893002105777157 0 -17.05672844483351 0 1 0 I I #
point $-1 -77.893002105777157 -53.636512216951822 -17.05672844483351 #
point $-1 -77.893002105777157 53.636512216951822 -17.05672844483351 #
straight-curve $-1 -77.893002105777157 -53.636512216951822 0 0 0 -1 I I #
edge $-1 $317 -4.1977344234132481 $311 4.1977344234132481 $310 $383 forward 7 unknown #
coedge $-1 $315 $306 $305 $361 reversed $219 $-1 #
edge $-1 $319 -4.1977344234132481 $308 4.1977344234132481 $305 $384 forward 7 unknown #
straight-curve $-1 0 -68.262218298451643 -17.05672844483351 -1 0 0 I I #
point $-1 77.893002105777157 -68.262218298451643 -17.05672844483351 #
point $-1 -77.893002105777157 -68.262218298451643 -17.05672844483351 #
straight-curve $-1 0 -68.262218298451643 -8.6612595980070139 1 0 0 I I #
point $-1 -77.893002105777157 -68.262218298451643 -8.6612595980070139 #
point $-1 77.893002105777157 -68.262218298451643 -8.6612595980070139 #
edge $-1 $334 -77.893002105777157 $369 77.893002105777157 $322 $385 forward 7 unknown #
vertex $-1 $339 $386 #
straight-curve $-1 77.893002105777157 68.262218298451643 -12.858994021420262 0 0 -1 I I #
straight-curve $-1 0 68.262218298451643 -8.6612595980070139 -1 0 0 I I #
point $-1 77.893002105777157 68.262218298451643 -8.6612595980070139 #
straight-curve $-1 -77.893002105777157 68.262218298451643 -12.858994021420262 0 0 -1 I I #
point $-1 -77.893002105777157 68.262218298451643 -8.6612595980070139 #
point $-1 -77.893002105777157 68.262218298451643 -17.05672844483351 #
straight-curve $-1 77.893002105777157 0 -17.05672844483351 0 -1 0 I I #
straight-curve $-1 -77.893002105777157 -24.228202434733184 39.205824706267414 0 0 -1 I I #
point $-1 -77.893002105777157 -24.228202434733184 17.05672844483351 #
straight-curve $-1 -77.893002105777157 -15.809752142546294 0.51864939389639886 0 -1 0 I I #
point $-1 -77.893002105777157 -24.228202434733184 0.51864939389641052 #
point $-1 -69.272725606951866 -34.78720507810376 6.5671164516273093 #
point $-1 -69.272725606951866 -28.451803492081414 6.5671164516273093 #
straight-curve $-1 -77.893002105777157 -68.262218298451643 -12.858994021420262 0 0 -1 I I #
straight-curve $-1 77.893002105777157 -68.262218298451643 -12.858994021420262 0 0 -1 I I #
straight-curve $-1 0 68.262218298451643 -17.05672844483351 1 0 0 I I #
point $-1 77.893002105777157 68.262218298451643 -17.05672844483351 #
End-of-ACIS-data 