500 0 8 0           
7 Unknown 11 ACIS 5.0 NT 24 Fri Mar 26 18:19:48 1999 
-1 9.9999999999999995e-007 1e-010 
body $-1 $8 $-1 $9 #
body $-1 $10 $-1 $11 #
body $-1 $12 $-1 $13 #
body $-1 $14 $-1 $15 #
body $-1 $16 $-1 $17 #
body $-1 $18 $-1 $19 #
body $-1 $20 $-1 $21 #
body $-1 $22 $-1 $23 #
lump $-1 $-1 $24 $0 #
transform $-1 1 0 0 0 1 0 0 0 1 43.34360789819025 19.33709317483121 4.2158368548344125 1 rotate no_reflect no_shear #
lump $-1 $-1 $25 $1 #
transform $-1 1 0 0 0 1 0 0 0 1 43.34360789819025 19.33709317483121 4.2158368548344125 1 rotate no_reflect no_shear #
lump $-1 $-1 $26 $2 #
transform $-1 1 0 0 0 1 0 0 0 1 43.34360789819025 19.33709317483121 4.2158368548344125 1 rotate no_reflect no_shear #
lump $-1 $-1 $27 $3 #
transform $-1 1 0 0 0 1 0 0 0 1 43.34360789819025 19.33709317483121 4.2158368548344125 1 rotate no_reflect no_shear #
lump $-1 $-1 $28 $4 #
transform $-1 1 0 0 0 1 0 0 0 1 43.34360789819025 19.33709317483121 4.2158368548344125 1 rotate no_reflect no_shear #
lump $-1 $-1 $29 $5 #
transform $-1 1 0 0 0 1 0 0 0 1 43.34360789819025 19.33709317483121 4.2158368548344125 1 rotate no_reflect no_shear #
lump $-1 $-1 $30 $6 #
transform $-1 1 0 0 0 1 0 0 0 1 43.34360789819025 19.33709317483121 4.2158368548344125 1 rotate no_reflect no_shear #
lump $-1 $-1 $31 $7 #
transform $-1 1 0 0 0 1 0 0 0 1 43.34360789819025 19.33709317483121 4.2158368548344125 1 rotate no_reflect no_shear #
shell $-1 $-1 $-1 $32 $-1 $8 #
shell $-1 $-1 $-1 $33 $-1 $10 #
shell $-1 $-1 $-1 $34 $-1 $12 #
shell $-1 $-1 $-1 $35 $-1 $14 #
shell $-1 $-1 $-1 $36 $-1 $16 #
shell $-1 $-1 $-1 $37 $-1 $18 #
shell $-1 $-1 $-1 $38 $-1 $20 #
shell $-1 $-1 $-1 $39 $-1 $22 #
face $-1 $40 $41 $24 $-1 $42 forward single #
face $-1 $43 $44 $25 $-1 $45 forward single #
face $-1 $46 $47 $26 $-1 $48 reversed single #
face $-1 $49 $50 $27 $-1 $51 forward single #
face $-1 $52 $53 $28 $-1 $54 reversed single #
face $-1 $55 $56 $29 $-1 $57 forward single #
face $-1 $58 $59 $30 $-1 $60 reversed single #
face $-1 $61 $62 $31 $-1 $63 forward single #
face $-1 $64 $65 $24 $-1 $66 reversed single #
loop $-1 $-1 $67 $32 #
plane-surface $-1 0 0 4.2158368548344125 0 0 1 1 0 0 forward_v I I I I #
face $-1 $68 $69 $25 $-1 $70 reversed single #
loop $-1 $-1 $71 $33 #
plane-surface $-1 -41.108016530687308 0 3.3558398088502859 0 0 1 1 0 0 forward_v I I I I #
face $-1 $72 $73 $26 $-1 $74 reversed single #
loop $-1 $-1 $75 $34 #
plane-surface $-1 -29.606028126563295 40.620184297787453 93.67494489156482 -1 0 0 0 0.6018150307709319 0.79863550430605224 forward_v I I I I #
face $-1 $76 $77 $27 $-1 $78 forward single #
loop $-1 $79 $80 $35 #
cone-surface $-1 -34.239226644873831 17.014375243281101 2.2929756448002125 0 -0.6018150307709319 -0.79863550430605224 0.5 0 0 1 I I 0 1 0.5 forward I I I I #
face $-1 $81 $82 $28 $-1 $83 reversed single #
loop $-1 $-1 $84 $36 #
plane-surface $-1 11.501988404124013 40.620184297787453 93.67494489156482 -1 0 0 0 0.6018150307709319 0.79863550430605224 forward_v I I I I #
face $-1 $85 $86 $29 $-1 $87 forward single #
loop $-1 $88 $89 $37 #
cone-surface $-1 6.8687898858134773 17.014375243281101 2.2929756448002125 0 -0.6018150307709319 -0.79863550430605224 0.5 0 0 1 I I 0 1 0.5 forward I I I I #
face $-1 $90 $91 $30 $-1 $92 reversed single #
loop $-1 $-1 $93 $38 #
plane-surface $-1 -22.53778024079265 -93.642540623580118 45.207100933404547 1 0 0 0 0.85716730853699208 -0.51503806187062418 forward_v I I I I #
face $-1 $94 $95 $31 $-1 $96 forward single #
loop $-1 $97 $98 $39 #
cone-surface $-1 -18.263886386759854 -16.798721212398341 1.5226138050982583 0 0.85716730853699208 -0.51503806187062418 1 0 0 1 I I 0 1 1 forward I I I I #
face $-1 $99 $100 $24 $-1 $101 reversed single #
loop $-1 $-1 $102 $40 #
plane-surface $-1 0 0 -4.2158368548344125 0 0 1 1 0 0 forward_v I I I I #
coedge $-1 $103 $104 $105 $106 forward $41 $-1 #
face $-1 $107 $108 $25 $-1 $109 reversed single #
loop $-1 $-1 $110 $43 #
plane-surface $-1 -41.108016530687308 0 0.35583980885028588 0 0 1 1 0 0 forward_v I I I I #
coedge $-1 $111 $112 $113 $114 forward $44 $-1 #
face $-1 $115 $116 $26 $-1 $117 forward single #
loop $-1 $-1 $118 $46 #
plane-surface $-1 -34.239226644873831 -11.549485144157693 24.443456587134904 0 0.6018150307709319 0.79863550430605224 1 0 0 forward_v I I I I #
coedge $-1 $119 $120 $121 $122 reversed $47 $-1 #
face $-1 $-1 $123 $27 $-1 $124 forward single #
loop $-1 $125 $126 $49 #
cone-surface $-1 -34.239226644873831 16.563013970202903 1.6939990165706735 0 -0.6018150307709319 -0.79863550430605224 0.25 0 0 1 I I -0.70710678118654746 0.70710678118654746 0.25 forward I I I I #
loop $-1 $-1 $127 $35 #
coedge $-1 $80 $80 $128 $129 reversed $50 $-1 #
face $-1 $130 $131 $28 $-1 $132 reversed single #
loop $-1 $-1 $133 $52 #
plane-surface $-1 6.8687898858134773 -11.549485144157693 24.443456587134904 0 0.6018150307709319 0.79863550430605224 1 0 0 forward_v I I I I #
coedge $-1 $134 $135 $136 $137 reversed $53 $-1 #
face $-1 $-1 $138 $29 $-1 $139 forward single #
loop $-1 $140 $141 $55 #
cone-surface $-1 6.8687898858134773 16.563013970202903 1.6939990165706735 0 -0.6018150307709319 -0.79863550430605224 0.25 0 0 1 I I -0.70710678118654746 0.70710678118654746 0.25 forward I I I I #
loop $-1 $-1 $142 $37 #
coedge $-1 $89 $89 $143 $144 reversed $56 $-1 #
face $-1 $145 $146 $30 $-1 $147 reversed single #
loop $-1 $-1 $148 $58 #
plane-surface $-1 -18.263886386759857 -19.337093174831224 0.55988532067618024 0 -0.85716730853699208 0.51503806187062418 1 0 0 forward_v I I I I #
coedge $-1 $149 $150 $151 $152 reversed $59 $-1 #
face $-1 $-1 $153 $31 $-1 $154 forward single #
loop $-1 $155 $156 $61 #
cone-surface $-1 -18.263886386759854 -14.930124208824445 0.39984749150590737 0 0.85716730853699208 -0.51503806187062418 0.5 0 0 1 I I -0.70710678118654735 0.70710678118654768 0.5 forward I I I I #
loop $-1 $-1 $157 $39 #
coedge $-1 $98 $98 $158 $159 reversed $62 $-1 #
face $-1 $160 $161 $24 $-1 $162 reversed single #
loop $-1 $-1 $163 $64 #
plane-surface $-1 0 -19.33709317483121 0 0 1 0 0 0 1 forward_v I I I I #
coedge $-1 $164 $165 $166 $167 forward $65 $-1 #
coedge $-1 $168 $67 $169 $170 forward $41 $-1 #
coedge $-1 $67 $168 $171 $172 forward $41 $-1 #
coedge $-1 $173 $174 $67 $106 reversed $175 $-1 #
edge $-1 $176 -19.33709317483121 $177 19.33709317483121 $105 $178 forward 7 unknown #
face $-1 $179 $180 $25 $-1 $181 reversed single #
loop $-1 $-1 $182 $68 #
plane-surface $-1 -38.872425163184367 0 1.8558398088502859 -1 0 0 0 0 1 forward_v I I I I #
coedge $-1 $183 $184 $185 $186 forward $69 $-1 #
coedge $-1 $187 $71 $188 $189 reversed $44 $-1 #
coedge $-1 $71 $187 $190 $191 reversed $44 $-1 #
coedge $-1 $182 $192 $71 $114 reversed $108 $-1 #
edge $-1 $193 -19.33709317483121 $194 19.33709317483121 $113 $195 forward 7 unknown #
face $-1 $196 $197 $26 $-1 $198 forward single #
loop $-1 $-1 $199 $72 #
plane-surface $-1 0 0 4.2158368548344125 0 0 1 1 0 0 forward_v I I I I #
coedge $-1 $200 $201 $202 $203 reversed $73 $-1 #
coedge $-1 $120 $75 $204 $205 reversed $47 $-1 #
coedge $-1 $75 $119 $200 $206 reversed $47 $-1 #
coedge $-1 $202 $207 $75 $122 forward $208 $-1 #
edge $-1 $209 42.621635590947996 $210 45.668722506710367 $121 $211 forward 7 unknown #
loop $-1 $-1 $128 $76 #
plane-surface $-1 -34.239226644873831 -11.549485144157693 24.443456587134904 0 0.6018150307709319 0.79863550430605224 1 0 0 forward_v I I I I #
loop $-1 $-1 $212 $49 #
coedge $-1 $126 $126 $127 $213 reversed $77 $-1 #
coedge $-1 $127 $127 $126 $213 forward $79 $-1 #
coedge $-1 $128 $128 $80 $129 forward $123 $-1 #
edge $-1 $214 -2.0136849524523219e-015 $214 6.2831853071795987 $128 $215 forward 7 unknown #
face $-1 $216 $217 $28 $-1 $218 reversed single #
loop $-1 $-1 $219 $81 #
plane-surface $-1 2.2355913675029422 40.620184297787453 93.67494489156482 1 0 0 0 -0.6018150307709319 -0.79863550430605224 forward_v I I I I #
coedge $-1 $220 $221 $222 $223 reversed $82 $-1 #
coedge $-1 $135 $84 $224 $225 reversed $53 $-1 #
coedge $-1 $84 $134 $220 $226 reversed $53 $-1 #
coedge $-1 $222 $227 $84 $137 forward $217 $-1 #
edge $-1 $228 42.621635590947996 $229 45.668722506710367 $136 $230 forward 7 unknown #
loop $-1 $-1 $143 $85 #
plane-surface $-1 6.8687898858134773 -11.549485144157693 24.443456587134904 0 0.6018150307709319 0.79863550430605224 1 0 0 forward_v I I I I #
loop $-1 $-1 $231 $55 #
coedge $-1 $141 $141 $142 $232 reversed $86 $-1 #
coedge $-1 $142 $142 $141 $232 forward $88 $-1 #
coedge $-1 $143 $143 $89 $144 forward $138 $-1 #
edge $-1 $233 -2.0136849524523219e-015 $233 6.2831853071795987 $143 $234 forward 7 unknown #
face $-1 $235 $236 $30 $-1 $237 forward single #
loop $-1 $-1 $238 $90 #
plane-surface $-1 -13.989992532727067 -93.642540623580118 45.207100933404547 -1 0 0 0 -0.85716730853699208 0.51503806187062418 forward_v I I I I #
coedge $-1 $239 $240 $241 $242 reversed $91 $-1 #
coedge $-1 $150 $93 $243 $244 reversed $59 $-1 #
coedge $-1 $93 $149 $239 $245 reversed $59 $-1 #
coedge $-1 $241 $246 $93 $152 forward $247 $-1 #
edge $-1 $248 18.387713611867859 $249 22.043665146026068 $151 $250 forward 7 unknown #
loop $-1 $-1 $158 $94 #
plane-surface $-1 -18.263886386759857 -19.337093174831224 0.55988532067618024 0 -0.85716730853699208 0.51503806187062418 1 0 0 forward_v I I I I #
loop $-1 $-1 $251 $61 #
coedge $-1 $156 $156 $157 $252 reversed $95 $-1 #
coedge $-1 $157 $157 $156 $252 forward $97 $-1 #
coedge $-1 $158 $158 $98 $159 forward $153 $-1 #
edge $-1 $253 -1.2889982508261393e-015 $253 6.2831853071795996 $158 $254 forward 7 unknown #
face $-1 $255 $256 $24 $-1 $257 reversed single #
loop $-1 $-1 $258 $99 #
plane-surface $-1 -43.34360789819025 0 0 1 0 0 0 0 -1 forward_v I I I I #
coedge $-1 $259 $171 $260 $261 forward $100 $-1 #
coedge $-1 $262 $102 $259 $263 forward $65 $-1 #
coedge $-1 $102 $262 $264 $265 forward $65 $-1 #
coedge $-1 $174 $173 $102 $167 reversed $175 $-1 #
edge $-1 $266 -19.33709317483121 $267 19.33709317483121 $166 $268 forward 7 unknown #
coedge $-1 $104 $103 $269 $270 forward $41 $-1 #
coedge $-1 $271 $272 $103 $170 reversed $256 $-1 #
edge $-1 $177 -43.34360789819025 $273 43.34360789819025 $169 $274 forward 7 unknown #
coedge $-1 $163 $275 $104 $172 reversed $100 $-1 #
edge $-1 $276 -43.34360789819025 $176 43.34360789819025 $171 $277 forward 7 unknown #
coedge $-1 $166 $105 $275 $278 forward $175 $-1 #
coedge $-1 $105 $166 $271 $279 reversed $175 $-1 #
loop $-1 $-1 $173 $255 #
vertex $-1 $106 $280 #
vertex $-1 $106 $281 #
straight-curve $-1 43.34360789819025 0 4.2158368548344125 0 1 0 I I #
face $-1 $282 $283 $25 $-1 $284 reversed single #
loop $-1 $-1 $285 $107 #
plane-surface $-1 0 -19.33709317483121 0 0 1 0 0 0 1 forward_v I I I I #
coedge $-1 $185 $113 $286 $287 reversed $108 $-1 #
coedge $-1 $288 $110 $285 $289 reversed $69 $-1 #
coedge $-1 $110 $288 $290 $291 reversed $69 $-1 #
coedge $-1 $192 $182 $110 $186 reversed $108 $-1 #
edge $-1 $292 -19.33709317483121 $293 19.33709317483121 $185 $294 forward 7 unknown #
coedge $-1 $112 $111 $295 $296 reversed $44 $-1 #
coedge $-1 $297 $298 $111 $189 forward $299 $-1 #
edge $-1 $300 -22.789599632846596 $194 -18.318416897840713 $188 $301 forward 7 unknown #
coedge $-1 $302 $286 $112 $191 forward $180 $-1 #
edge $-1 $193 18.318416897840713 $303 22.789599632846596 $190 $304 forward 7 unknown #
coedge $-1 $113 $185 $297 $305 reversed $108 $-1 #
vertex $-1 $191 $306 #
vertex $-1 $189 $307 #
straight-curve $-1 -38.872425163184367 0 3.3558398088502859 0 1 0 I I #
face $-1 $-1 $208 $26 $-1 $308 reversed single #
loop $-1 $-1 $309 $115 #
plane-surface $-1 -38.872425163184367 0 1.8558398088502859 -1 0 0 0 0 1 forward_v I I I I #
coedge $-1 $310 $311 $312 $313 forward $116 $-1 #
coedge $-1 $314 $118 $120 $206 forward $73 $-1 #
coedge $-1 $118 $314 $309 $315 forward $73 $-1 #
coedge $-1 $316 $121 $118 $203 forward $208 $-1 #
edge $-1 $210 12.48641480412638 $317 21.752811840747452 $202 $318 forward 7 unknown #
coedge $-1 $311 $310 $119 $205 forward $116 $-1 #
edge $-1 $319 -5.0166198063918337 $209 -0.97299897406251645 $204 $320 forward 7 unknown #
edge $-1 $210 -38.674186349662449 $319 -33.611024481041426 $120 $321 forward 7 unknown #
coedge $-1 $121 $316 $311 $322 reversed $208 $-1 #
loop $-1 $-1 $316 $196 #
vertex $-1 $322 $323 #
vertex $-1 $122 $324 #
straight-curve $-1 -29.606028126563295 19.33709317483121 46.83747244578241 0 0 -1 I I #
coedge $-1 $212 $212 $-1 $325 reversed $125 $-1 #
edge $-1 $326 0 $326 6.2831853071796004 $126 $327 forward 7 unknown #
vertex $-1 $129 $328 #
ellipse-curve $-1 -34.239226644873831 17.315282758666559 2.6922933969532274 0 0.6018150307709319 0.79863550430605224 0.5 0 0 1 I I #
face $-1 $-1 $329 $28 $-1 $330 forward single #
loop $-1 $-1 $136 $130 #
plane-surface $-1 0 19.33709317483121 0 0 -1 0 0 0 -1 forward_v I I I I #
coedge $-1 $331 $332 $333 $334 reversed $131 $-1 #
coedge $-1 $335 $133 $135 $226 forward $82 $-1 #
coedge $-1 $133 $335 $331 $336 forward $82 $-1 #
coedge $-1 $333 $136 $133 $223 forward $217 $-1 #
edge $-1 $229 -8.0675934612172746 $337 1.1988035754037965 $222 $338 forward 7 unknown #
coedge $-1 $339 $340 $134 $225 forward $329 $-1 #
edge $-1 $341 -5.0166198063918337 $228 -0.97299897406251645 $224 $342 forward 7 unknown #
edge $-1 $229 -38.674186349662449 $341 -33.611024481041426 $135 $343 forward 7 unknown #
coedge $-1 $136 $333 $339 $344 reversed $217 $-1 #
vertex $-1 $344 $345 #
vertex $-1 $137 $346 #
straight-curve $-1 11.501988404124013 19.33709317483121 46.83747244578241 0 0 -1 I I #
coedge $-1 $231 $231 $-1 $347 reversed $140 $-1 #
edge $-1 $348 0 $348 6.2831853071796004 $141 $349 forward 7 unknown #
vertex $-1 $144 $350 #
ellipse-curve $-1 6.8687898858134773 17.315282758666559 2.6922933969532274 0 0.6018150307709319 0.79863550430605224 0.5 0 0 1 I I #
face $-1 $-1 $247 $30 $-1 $351 reversed single #
loop $-1 $-1 $352 $145 #
plane-surface $-1 0 0 4.2158368548344125 0 0 1 1 0 0 forward_v I I I I #
coedge $-1 $353 $354 $355 $356 reversed $146 $-1 #
coedge $-1 $357 $148 $150 $245 forward $91 $-1 #
coedge $-1 $148 $357 $353 $358 forward $91 $-1 #
coedge $-1 $355 $151 $148 $242 forward $247 $-1 #
edge $-1 $249 -13.405837047412721 $359 -4.8580493393471382 $241 $360 forward 7 unknown #
coedge $-1 $361 $362 $149 $244 forward $236 $-1 #
edge $-1 $363 -29.680894363213771 $248 -27.484177136958849 $243 $364 forward 7 unknown #
edge $-1 $249 2.7589209654379419e-014 $363 4.2651551193642563 $150 $365 forward 7 unknown #
coedge $-1 $151 $355 $361 $366 reversed $247 $-1 #
loop $-1 $-1 $355 $235 #
vertex $-1 $366 $367 #
vertex $-1 $152 $368 #
straight-curve $-1 -22.53778024079265 -19.33709317483121 22.603550466702274 0 0 -1 I I #
coedge $-1 $251 $251 $-1 $369 reversed $155 $-1 #
edge $-1 $370 0 $370 6.2831853071796004 $156 $371 forward 7 unknown #
vertex $-1 $159 $372 #
ellipse-curve $-1 -18.263886386759854 -18.238734561703751 2.3878610877553026 0 -0.85716730853699208 0.51503806187062418 1 0 0 1 I I #
face $-1 $-1 $175 $24 $-1 $373 reversed single #
loop $-1 $-1 $271 $160 #
plane-surface $-1 0 19.33709317483121 0 0 -1 0 0 0 -1 forward_v I I I I #
coedge $-1 $374 $269 $272 $375 forward $161 $-1 #
coedge $-1 $275 $163 $164 $263 reversed $100 $-1 #
coedge $-1 $269 $374 $163 $261 reversed $161 $-1 #
edge $-1 $276 -4.2158368548344125 $376 4.2158368548344125 $260 $377 forward 7 unknown #
coedge $-1 $165 $164 $374 $378 forward $65 $-1 #
edge $-1 $267 -43.34360789819025 $376 43.34360789819025 $259 $379 forward 7 unknown #
coedge $-1 $272 $271 $165 $265 reversed $256 $-1 #
edge $-1 $380 -43.34360789819025 $266 43.34360789819025 $264 $381 forward 7 unknown #
vertex $-1 $167 $382 #
vertex $-1 $278 $383 #
straight-curve $-1 43.34360789819025 0 -4.2158368548344125 0 -1 0 I I #
coedge $-1 $258 $260 $168 $270 reversed $161 $-1 #
edge $-1 $273 -19.33709317483121 $276 19.33709317483121 $269 $384 forward 7 unknown #
coedge $-1 $264 $169 $174 $279 forward $256 $-1 #
coedge $-1 $169 $264 $258 $375 reversed $256 $-1 #
vertex $-1 $170 $385 #
straight-curve $-1 0 19.33709317483121 4.2158368548344125 -1 0 0 I I #
coedge $-1 $171 $259 $173 $278 reversed $100 $-1 #
vertex $-1 $270 $386 #
straight-curve $-1 0 -19.33709317483121 4.2158368548344125 1 0 0 I I #
edge $-1 $176 -4.2158368548344125 $267 4.2158368548344125 $173 $387 forward 7 unknown #
edge $-1 $177 -4.2158368548344125 $266 4.2158368548344125 $174 $388 forward 7 unknown #
point $-1 43.34360789819025 -19.33709317483121 4.2158368548344125 #
point $-1 43.34360789819025 19.33709317483121 4.2158368548344125 #
face $-1 $-1 $299 $25 $-1 $389 reversed single #
loop $-1 $-1 $390 $179 #
plane-surface $-1 -43.34360789819025 0 0 1 0 0 0 0 -1 forward_v I I I I #
coedge $-1 $286 $302 $183 $289 forward $180 $-1 #
coedge $-1 $190 $285 $182 $287 forward $180 $-1 #
edge $-1 $293 -0.57208009557485706 $193 2.4279199044251429 $286 $391 forward 7 unknown #
coedge $-1 $184 $183 $390 $392 reversed $69 $-1 #
edge $-1 $393 -22.789599632846596 $293 -18.318416897840713 $285 $394 forward 7 unknown #
coedge $-1 $298 $297 $184 $291 forward $299 $-1 #
edge $-1 $292 18.318416897840713 $395 22.789599632846596 $290 $396 forward 7 unknown #
vertex $-1 $291 $397 #
vertex $-1 $289 $398 #
straight-curve $-1 -38.872425163184367 0 0.35583980885028588 0 -1 0 I I #
coedge $-1 $399 $400 $187 $296 forward $283 $-1 #
edge $-1 $303 -19.33709317483121 $300 19.33709317483121 $295 $401 forward 7 unknown #
coedge $-1 $290 $188 $192 $305 forward $299 $-1 #
coedge $-1 $188 $290 $399 $402 reversed $299 $-1 #
loop $-1 $-1 $290 $282 #
vertex $-1 $402 $403 #
straight-curve $-1 -20.554008265343654 19.33709317483121 3.3558398088502859 1 0 0 I I #
coedge $-1 $285 $190 $400 $404 forward $180 $-1 #
vertex $-1 $404 $405 #
straight-curve $-1 -20.554008265343654 -19.33709317483121 3.3558398088502859 -1 0 0 I I #
edge $-1 $194 -2.4279199044251429 $292 0.57208009557485706 $297 $406 forward 7 unknown #
point $-1 -38.872425163184367 -19.33709317483121 3.3558398088502859 #
point $-1 -38.872425163184367 19.33709317483121 3.3558398088502859 #
plane-surface $-1 0 19.33709317483121 0 0 -1 0 0 0 -1 forward_v I I I I #
coedge $-1 $312 $407 $201 $315 reversed $197 $-1 #
coedge $-1 $204 $199 $314 $408 forward $116 $-1 #
coedge $-1 $199 $204 $207 $322 forward $116 $-1 #
coedge $-1 $407 $309 $199 $313 reversed $197 $-1 #
edge $-1 $409 0.97299897406251645 $410 5.0166198063918337 $199 $411 forward 7 unknown #
coedge $-1 $201 $200 $310 $408 reversed $73 $-1 #
edge $-1 $410 33.611024481041426 $317 38.674186349662442 $309 $412 forward 7 unknown #
coedge $-1 $207 $202 $407 $413 forward $208 $-1 #
vertex $-1 $413 $414 #
straight-curve $-1 -17.119613322436916 19.33709317483121 1.1687499390720486 -1 0 0 I I #
vertex $-1 $205 $415 #
straight-curve $-1 -29.606028126563295 20.310092148893727 4.2158368548344143 0 1 0 I I #
straight-curve $-1 -29.606028126563295 -11.549485144157693 24.443456587134904 0 -0.79863550430605224 0.6018150307709319 I I #
edge $-1 $209 29.606028126563295 $409 38.872425163184367 $207 $416 forward 7 unknown #
point $-1 -29.606028126563295 19.33709317483121 4.2158368548344125 #
point $-1 -29.606028126563295 19.337093174831214 1.1687499390720468 #
edge $-1 $417 1 $417 0 $212 $-1 forward 7 unknown #
vertex $-1 $213 $418 #
ellipse-curve $-1 -34.239226644873831 16.713467727895637 1.8936578926471865 0 0.6018150307709319 0.79863550430605224 0.5 0 0 1 I I #
point $-1 -33.739226644873831 17.315282758666566 2.6922933969532385 #
loop $-1 $-1 $224 $216 #
plane-surface $-1 0 0 4.2158368548344125 0 0 1 1 0 0 forward_v I I I I #
coedge $-1 $332 $219 $221 $336 reversed $131 $-1 #
coedge $-1 $219 $331 $419 $420 reversed $131 $-1 #
coedge $-1 $227 $222 $219 $334 forward $217 $-1 #
edge $-1 $337 -45.668722506710367 $421 -42.621635590947996 $333 $422 forward 7 unknown #
coedge $-1 $221 $220 $340 $423 reversed $82 $-1 #
edge $-1 $424 33.611024481041426 $337 38.674186349662449 $331 $425 forward 7 unknown #
vertex $-1 $223 $426 #
straight-curve $-1 3.4343949429067386 19.33709317483121 1.1687499390720486 -1 0 0 I I #
coedge $-1 $419 $224 $227 $344 forward $329 $-1 #
coedge $-1 $224 $419 $335 $423 forward $329 $-1 #
vertex $-1 $225 $427 #
straight-curve $-1 11.501988404124013 20.310092148893727 4.2158368548344143 0 1 0 I I #
straight-curve $-1 11.501988404124013 -11.549485144157693 24.443456587134904 0 -0.79863550430605224 0.6018150307709319 I I #
edge $-1 $228 -11.501988404124013 $421 -2.2355913675029422 $227 $428 forward 7 unknown #
point $-1 11.501988404124013 19.33709317483121 4.2158368548344125 #
point $-1 11.501988404124013 19.337093174831214 1.1687499390720468 #
edge $-1 $429 1 $429 0 $231 $-1 forward 7 unknown #
vertex $-1 $232 $430 #
ellipse-curve $-1 6.8687898858134773 16.713467727895637 1.8936578926471865 0 0.6018150307709319 0.79863550430605224 0.5 0 0 1 I I #
point $-1 7.3687898858134773 17.315282758666566 2.6922933969532385 #
plane-surface $-1 0 -19.33709317483121 0 0 1 0 0 0 1 forward_v I I I I #
coedge $-1 $362 $361 $354 $431 forward $236 $-1 #
coedge $-1 $354 $238 $240 $358 reversed $146 $-1 #
coedge $-1 $238 $353 $352 $431 reversed $146 $-1 #
coedge $-1 $246 $241 $238 $356 forward $247 $-1 #
edge $-1 $359 -22.043665146026068 $432 -18.387713611867859 $355 $433 forward 7 unknown #
coedge $-1 $240 $239 $362 $434 reversed $91 $-1 #
edge $-1 $435 -4.2651551193642563 $359 -2.7589209654379419e-014 $353 $436 forward 7 unknown #
vertex $-1 $242 $437 #
straight-curve $-1 -9.1319431933799287 -19.33709317483121 0.55988532067620111 1 0 0 I I #
coedge $-1 $352 $243 $246 $366 forward $236 $-1 #
coedge $-1 $243 $352 $357 $434 forward $236 $-1 #
vertex $-1 $244 $438 #
straight-curve $-1 -22.53778024079265 -46.821270311790059 4.2158368548344107 0 -1 0 I I #
straight-curve $-1 -22.53778024079265 -19.337093174831224 0.55988532067618024 0 0.51503806187062418 0.85716730853699208 I I #
edge $-1 $248 -22.53778024079265 $432 -13.989992532727067 $246 $439 forward 7 unknown #
point $-1 -22.53778024079265 -19.33709317483121 4.2158368548344125 #
point $-1 -22.53778024079265 -19.33709317483121 0.55988532067620389 #
edge $-1 $440 1 $440 0 $251 $-1 forward 7 unknown #
vertex $-1 $252 $441 #
ellipse-curve $-1 -18.263886386759854 -15.358707863092942 0.65736652244121951 0 -0.85716730853699208 0.51503806187062418 1 0 0 1 I I #
point $-1 -17.263886386759854 -18.238734561703744 2.3878610877552968 #
plane-surface $-1 43.34360789819025 0 0 -1 0 0 0 0 1 forward_v I I I I #
coedge $-1 $260 $258 $262 $378 reversed $161 $-1 #
edge $-1 $273 -4.2158368548344125 $380 4.2158368548344125 $272 $442 forward 7 unknown #
vertex $-1 $378 $443 #
straight-curve $-1 -43.34360789819025 -19.33709317483121 0 0 0 -1 I I #
edge $-1 $376 -19.33709317483121 $380 19.33709317483121 $374 $444 forward 7 unknown #
straight-curve $-1 0 -19.33709317483121 -4.2158368548344125 -1 0 0 I I #
vertex $-1 $265 $445 #
straight-curve $-1 0 19.33709317483121 -4.2158368548344125 1 0 0 I I #
point $-1 43.34360789819025 19.33709317483121 -4.2158368548344125 #
point $-1 43.34360789819025 -19.33709317483121 -4.2158368548344125 #
straight-curve $-1 -43.34360789819025 0 4.2158368548344125 0 -1 0 I I #
point $-1 -43.34360789819025 19.33709317483121 4.2158368548344125 #
point $-1 -43.34360789819025 -19.33709317483121 4.2158368548344125 #
straight-curve $-1 43.34360789819025 -19.33709317483121 0 0 0 -1 I I #
straight-curve $-1 43.34360789819025 19.33709317483121 0 0 0 -1 I I #
plane-surface $-1 0 19.33709317483121 0 0 -1 0 0 0 -1 forward_v I I I I #
coedge $-1 $400 $399 $288 $392 forward $283 $-1 #
straight-curve $-1 -38.872425163184367 -19.33709317483121 0.92791990442514294 0 0 1 I I #
edge $-1 $395 -19.33709317483121 $393 19.33709317483121 $390 $446 forward 7 unknown #
vertex $-1 $289 $447 #
straight-curve $-1 -20.554008265343654 -19.33709317483121 0.35583980885028588 1 0 0 I I #
vertex $-1 $291 $448 #
straight-curve $-1 -20.554008265343654 19.33709317483121 0.35583980885028588 -1 0 0 I I #
point $-1 -38.872425163184367 19.33709317483121 0.35583980885028588 #
point $-1 -38.872425163184367 -19.33709317483121 0.35583980885028588 #
coedge $-1 $390 $295 $298 $402 forward $283 $-1 #
coedge $-1 $295 $390 $302 $404 reversed $283 $-1 #
straight-curve $-1 -43.34360789819025 0 3.3558398088502859 0 1 0 I I #
edge $-1 $300 -3.3558398088502859 $395 -0.35583980885028588 $298 $449 forward 7 unknown #
point $-1 -43.34360789819025 19.33709317483121 3.3558398088502859 #
edge $-1 $303 -3.3558398088502859 $393 -0.35583980885028588 $400 $450 forward 7 unknown #
point $-1 -43.34360789819025 -19.33709317483121 3.3558398088502859 #
straight-curve $-1 -38.872425163184367 19.33709317483121 0.92791990442514294 0 0 -1 I I #
coedge $-1 $309 $312 $316 $413 reversed $197 $-1 #
edge $-1 $410 -21.752811840747452 $319 -12.48641480412638 $310 $451 forward 7 unknown #
vertex $-1 $413 $452 #
vertex $-1 $408 $453 #
straight-curve $-1 -38.872425163184367 20.310092148893727 4.2158368548344143 0 -1 0 I I #
straight-curve $-1 -38.872425163184367 -11.549485144157693 24.443456587134904 0 0.79863550430605224 -0.6018150307709319 I I #
edge $-1 $317 -45.668722506710367 $409 -42.621635590947996 $316 $454 forward 7 unknown #
point $-1 -38.872425163184367 19.33709317483121 1.1687499390720459 #
point $-1 -29.606028126563295 15.293472342501893 4.2158368548344107 #
straight-curve $-1 0 19.33709317483121 4.2158368548344125 -1 0 0 I I #
vertex $-1 $325 $455 #
point $-1 -33.739226644873831 16.713467727895637 1.8936578926471865 #
coedge $-1 $340 $339 $332 $420 forward $329 $-1 #
edge $-1 $421 0.97299897406251645 $424 5.0166198063918337 $419 $456 forward 7 unknown #
vertex $-1 $420 $457 #
straight-curve $-1 2.2355913675029422 19.33709317483121 46.83747244578241 0 0 1 I I #
edge $-1 $424 -1.1988035754037965 $341 8.0675934612172746 $340 $458 forward 7 unknown #
vertex $-1 $423 $459 #
straight-curve $-1 2.2355913675029422 -11.549485144157693 24.443456587134904 0 0.79863550430605224 -0.6018150307709319 I I #
point $-1 2.2355913675029422 19.337093174831214 1.1687499390720468 #
point $-1 11.501988404124013 15.293472342501893 4.2158368548344107 #
straight-curve $-1 0 19.33709317483121 4.2158368548344125 -1 0 0 I I #
vertex $-1 $347 $460 #
point $-1 7.3687898858134773 16.713467727895637 1.8936578926471865 #
edge $-1 $432 27.484177136958849 $435 29.680894363213771 $352 $461 forward 7 unknown #
vertex $-1 $356 $462 #
straight-curve $-1 -13.989992532727067 -19.33709317483121 22.603550466702274 0 0 1 I I #
edge $-1 $435 4.8580493393471382 $363 13.405837047412721 $362 $463 forward 7 unknown #
vertex $-1 $434 $464 #
straight-curve $-1 -13.989992532727067 -19.337093174831224 0.55988532067618024 0 -0.51503806187062418 -0.85716730853699208 I I #
point $-1 -13.989992532727067 -19.33709317483121 0.55988532067620389 #
point $-1 -22.53778024079265 -17.140375948576288 4.2158368548344125 #
straight-curve $-1 0 -19.33709317483121 4.2158368548344125 1 0 0 I I #
vertex $-1 $369 $465 #
point $-1 -17.263886386759854 -15.358707863092942 0.65736652244121951 #
straight-curve $-1 -43.34360789819025 19.33709317483121 0 0 0 -1 I I #
point $-1 -43.34360789819025 -19.33709317483121 -4.2158368548344125 #
straight-curve $-1 -43.34360789819025 0 -4.2158368548344125 0 1 0 I I #
point $-1 -43.34360789819025 19.33709317483121 -4.2158368548344125 #
straight-curve $-1 -43.34360789819025 0 0.35583980885028588 0 -1 0 I I #
point $-1 -43.34360789819025 -19.33709317483121 0.35583980885028588 #
point $-1 -43.34360789819025 19.33709317483121 0.35583980885028588 #
straight-curve $-1 -43.34360789819025 19.33709317483121 0 0 0 -1 I I #
straight-curve $-1 -43.34360789819025 -19.33709317483121 0 0 0 -1 I I #
straight-curve $-1 -17.119613322436916 15.293472342501893 4.2158368548344125 1 0 0 I I #
point $-1 -38.872425163184367 19.33709317483121 4.2158368548344125 #
point $-1 -38.872425163184367 15.293472342501893 4.2158368548344107 #
straight-curve $-1 -38.872425163184367 19.33709317483121 46.83747244578241 0 0 1 I I #
point $-1 -34.239226644873831 16.412560212510169 1.4943401404941605 #
straight-curve $-1 2.2355913675029422 20.310092148893727 4.2158368548344143 0 -1 0 I I #
point $-1 2.2355913675029422 19.33709317483121 4.2158368548344125 #
straight-curve $-1 3.4343949429067386 15.293472342501893 4.2158368548344125 1 0 0 I I #
point $-1 2.2355913675029422 15.293472342501893 4.2158368548344107 #
point $-1 6.8687898858134773 16.412560212510169 1.4943401404941605 #
straight-curve $-1 -13.989992532727067 -46.821270311790059 4.2158368548344107 0 1 0 I I #
point $-1 -13.989992532727067 -19.33709317483121 4.2158368548344125 #
straight-curve $-1 -9.1319431933799287 -17.140375948576288 4.2158368548344125 -1 0 0 I I #
point $-1 -13.989992532727067 -17.140375948576288 4.2158368548344125 #
point $-1 -18.263886386759854 -14.501540554555948 0.14232846057059517 #
End-of-ACIS-data 