500 0 8 0           
7 Unknown 11 ACIS 5.0 NT 24 Fri Mar 26 02:07:09 1999 
-1 9.9999999999999995e-007 1e-010 
body $-1 $8 $-1 $9 #
body $-1 $10 $-1 $11 #
body $-1 $12 $-1 $13 #
body $-1 $14 $-1 $15 #
body $-1 $16 $-1 $17 #
body $-1 $18 $-1 $19 #
body $-1 $20 $-1 $21 #
body $-1 $22 $-1 $23 #
lump $-1 $-1 $24 $0 #
transform $-1 1 0 0 0 1 0 0 0 1 60.797753837702565 38.486627680384586 9.5095456919674586 1 rotate no_reflect no_shear #
lump $-1 $-1 $25 $1 #
transform $-1 1 0 0 0 1 0 0 0 1 60.797753837702565 38.486627680384586 9.5095456919674586 1 rotate no_reflect no_shear #
lump $-1 $-1 $26 $2 #
transform $-1 1 0 0 0 1 0 0 0 1 60.797753837702565 38.486627680384586 9.5095456919674586 1 rotate no_reflect no_shear #
lump $-1 $-1 $27 $3 #
transform $-1 1 0 0 0 1 0 0 0 1 60.797753837702565 38.486627680384586 9.5095456919674586 1 rotate no_reflect no_shear #
lump $-1 $-1 $28 $4 #
transform $-1 1 0 0 0 1 0 0 0 1 60.797753837702565 38.486627680384586 9.5095456919674586 1 rotate no_reflect no_shear #
lump $-1 $-1 $29 $5 #
transform $-1 1 0 0 0 1 0 0 0 1 60.797753837702565 38.486627680384586 9.5095456919674586 1 rotate no_reflect no_shear #
lump $-1 $-1 $30 $6 #
transform $-1 1 0 0 0 1 0 0 0 1 60.797753837702565 38.486627680384586 9.5095456919674586 1 rotate no_reflect no_shear #
lump $-1 $-1 $31 $7 #
transform $-1 1 0 0 0 1 0 0 0 1 60.797753837702565 38.486627680384586 9.5095456919674586 1 rotate no_reflect no_shear #
shell $-1 $-1 $-1 $32 $-1 $8 #
shell $-1 $-1 $-1 $33 $-1 $10 #
shell $-1 $-1 $-1 $34 $-1 $12 #
shell $-1 $-1 $-1 $35 $-1 $14 #
shell $-1 $-1 $-1 $36 $-1 $16 #
shell $-1 $-1 $-1 $37 $-1 $18 #
shell $-1 $-1 $-1 $38 $-1 $20 #
shell $-1 $-1 $-1 $39 $-1 $22 #
face $-1 $40 $41 $24 $-1 $42 forward single #
face $-1 $43 $44 $25 $-1 $45 forward single #
face $-1 $46 $47 $26 $-1 $48 reversed single #
face $-1 $49 $50 $27 $-1 $51 reversed single #
face $-1 $52 $53 $28 $-1 $54 forward single #
face $-1 $55 $56 $29 $-1 $57 forward single #
face $-1 $58 $59 $30 $-1 $60 reversed single #
face $-1 $61 $62 $31 $-1 $63 forward single #
face $-1 $64 $65 $24 $-1 $66 reversed single #
loop $-1 $-1 $67 $32 #
plane-surface $-1 0 0 9.5095456919674586 0 0 1 1 0 0 forward_v I I I I #
face $-1 $68 $69 $25 $-1 $70 reversed single #
loop $-1 $-1 $71 $33 #
plane-surface $-1 -60.797753837702565 0 0 1 0 0 0 0 -1 forward_v I I I I #
face $-1 $72 $73 $26 $-1 $74 reversed single #
loop $-1 $-1 $75 $34 #
plane-surface $-1 56.703132161939017 -27.114747744869163 0 0 1 0 0 0 1 forward_v I I I I #
face $-1 $76 $77 $27 $-1 $78 reversed single #
loop $-1 $-1 $79 $35 #
plane-surface $-1 -45.143192732831714 105.30480060475905 127.70409313544319 1 0 0 0 -0.86602541151947299 -0.49999998660252726 forward_v I I I I #
face $-1 $80 $81 $28 $-1 $82 forward single #
loop $-1 $83 $84 $36 #
cone-surface $-1 -36.267872342883308 32.647273125655808 3.0501928063717201 0 -0.86602541151947299 -0.49999998660252726 2.5 0 0 1 I I 0 1 2.5 forward I I I I #
face $-1 $85 $86 $29 $-1 $87 forward single #
loop $-1 $88 $89 $37 #
cone-surface $-1 -22.954891757960695 32.647273125655808 3.0501928063717201 0 -0.86602541151947299 -0.49999998660252726 2.5 0 0 1 I I 0 1 2.5 forward I I I I #
face $-1 $90 $91 $30 $-1 $92 reversed single #
loop $-1 $-1 $93 $38 #
plane-surface $-1 33.432008965285014 -131.63419165097798 81.289005228646943 -1 0 0 0 -0.7660444514056185 0.64278759981090561 forward_v I I I I #
face $-1 $94 $95 $31 $-1 $96 forward single #
loop $-1 $97 $98 $39 #
cone-surface $-1 27.565802203917507 -34.551282229772795 5.2633476031333553 0 0.7660444514056185 -0.64278759981090561 1.5 0 0 1 I I 0 1 1.5 forward I I I I #
face $-1 $99 $100 $24 $-1 $101 reversed single #
loop $-1 $-1 $102 $40 #
plane-surface $-1 0 0 -9.5095456919674586 0 0 1 1 0 0 forward_v I I I I #
coedge $-1 $103 $104 $105 $106 forward $41 $-1 #
face $-1 $107 $108 $25 $-1 $109 forward single #
loop $-1 $-1 $110 $43 #
plane-surface $-1 0 38.486627680384586 0 0 -1 0 0 0 -1 forward_v I I I I #
coedge $-1 $111 $112 $113 $114 forward $44 $-1 #
face $-1 $115 $116 $26 $-1 $117 reversed single #
loop $-1 $-1 $118 $46 #
plane-surface $-1 52.608510486175462 -24.658436765130247 0 1 0 0 0 0 -1 forward_v I I I I #
coedge $-1 $119 $120 $121 $122 forward $47 $-1 #
face $-1 $123 $124 $27 $-1 $125 reversed single #
loop $-1 $-1 $126 $49 #
plane-surface $-1 -29.611382050422002 1.0312470806184137e-006 66.906340926813129 0 0.86602541151947299 0.49999998660252726 1 0 0 forward_v I I I I #
coedge $-1 $127 $128 $129 $130 reversed $50 $-1 #
face $-1 $-1 $131 $28 $-1 $132 forward single #
loop $-1 $133 $134 $52 #
cone-surface $-1 -36.267872342883308 28.399673133321343 0.59783989500178514 0 -0.86602541151947299 -0.49999998660252726 1.25 0 0 1 I I -0.70710678118654746 0.70710678118654746 1.25 forward I I I I #
loop $-1 $-1 $135 $36 #
coedge $-1 $84 $84 $136 $137 reversed $53 $-1 #
face $-1 $-1 $138 $29 $-1 $139 forward single #
loop $-1 $140 $141 $55 #
cone-surface $-1 -22.954891757960695 28.399673133321343 0.59783989500178514 0 -0.86602541151947299 -0.49999998660252726 1.25 0 0 1 I I -0.70710678118654746 0.70710678118654746 1.25 forward I I I I #
loop $-1 $-1 $142 $37 #
coedge $-1 $89 $89 $143 $144 reversed $56 $-1 #
face $-1 $145 $146 $30 $-1 $147 reversed single #
loop $-1 $-1 $148 $58 #
plane-surface $-1 27.565802203917507 -38.486627680384586 3.128920702184729 0 -0.7660444514056185 0.64278759981090561 1 0 0 forward_v I I I I #
coedge $-1 $149 $150 $151 $152 reversed $59 $-1 #
face $-1 $-1 $153 $31 $-1 $154 forward single #
loop $-1 $155 $156 $61 #
cone-surface $-1 27.565802203917507 -32.718393408323585 3.7253713093324308 0 0.7660444514056185 -0.64278759981090561 0.75 0 0 1 I I -0.70710678118654768 0.70710678118654735 0.75 forward I I I I #
loop $-1 $-1 $157 $39 #
coedge $-1 $98 $98 $158 $159 reversed $62 $-1 #
face $-1 $160 $161 $24 $-1 $162 reversed single #
loop $-1 $-1 $163 $64 #
plane-surface $-1 0 -38.486627680384586 0 0 1 0 0 0 1 forward_v I I I I #
coedge $-1 $164 $165 $166 $167 forward $65 $-1 #
coedge $-1 $168 $67 $169 $170 forward $41 $-1 #
coedge $-1 $67 $168 $171 $172 forward $41 $-1 #
coedge $-1 $173 $174 $67 $106 reversed $175 $-1 #
edge $-1 $176 -38.486627680384586 $177 38.486627680384586 $105 $178 forward 7 unknown #
face $-1 $179 $180 $25 $-1 $181 reversed single #
loop $-1 $-1 $113 $68 #
plane-surface $-1 -64.209140470314665 0 -5.2802110147299395 0 0 1 1 0 0 forward_v I I I I #
coedge $-1 $182 $183 $112 $184 forward $69 $-1 #
coedge $-1 $185 $71 $186 $187 reversed $44 $-1 #
coedge $-1 $71 $185 $110 $184 reversed $44 $-1 #
coedge $-1 $188 $189 $71 $114 reversed $108 $-1 #
edge $-1 $190 -38.486627680384586 $191 38.486627680384586 $113 $192 forward 7 unknown #
face $-1 $193 $194 $26 $-1 $195 forward single #
loop $-1 $-1 $196 $72 #
plane-surface $-1 56.703132161939017 -22.202125785391331 0 0 -1 0 0 0 -1 forward_v I I I I #
coedge $-1 $197 $198 $199 $200 forward $73 $-1 #
coedge $-1 $201 $75 $202 $203 reversed $47 $-1 #
coedge $-1 $75 $201 $204 $205 reversed $47 $-1 #
coedge $-1 $198 $197 $75 $122 reversed $73 $-1 #
edge $-1 $206 -9.5095456919674586 $207 9.5095456919674586 $121 $208 forward 7 unknown #
face $-1 $209 $210 $27 $-1 $211 forward single #
loop $-1 $-1 $212 $76 #
plane-surface $-1 -14.079571368012289 105.30480060475905 127.70409313544319 -1 0 0 0 0.86602541151947299 0.49999998660252726 forward_v I I I I #
coedge $-1 $213 $214 $215 $216 reversed $77 $-1 #
coedge $-1 $128 $79 $217 $218 reversed $50 $-1 #
coedge $-1 $79 $127 $213 $219 reversed $50 $-1 #
coedge $-1 $215 $220 $79 $130 forward $210 $-1 #
edge $-1 $221 14.16577262199494 $222 19.514345275582293 $129 $223 forward 7 unknown #
loop $-1 $-1 $136 $80 #
plane-surface $-1 -29.611382050422002 1.0312470806184137e-006 66.906340926813129 0 0.86602541151947299 0.49999998660252726 1 0 0 forward_v I I I I #
loop $-1 $-1 $224 $52 #
coedge $-1 $134 $134 $135 $225 reversed $81 $-1 #
coedge $-1 $135 $135 $134 $225 forward $83 $-1 #
coedge $-1 $136 $136 $84 $137 forward $131 $-1 #
edge $-1 $226 -1.1575915565176986e-015 $226 6.2831853071795996 $136 $227 forward 7 unknown #
loop $-1 $-1 $143 $85 #
plane-surface $-1 -29.611382050422002 1.0312470806184137e-006 66.906340926813129 0 0.86602541151947299 0.49999998660252726 1 0 0 forward_v I I I I #
loop $-1 $-1 $228 $55 #
coedge $-1 $141 $141 $142 $229 reversed $86 $-1 #
coedge $-1 $142 $142 $141 $229 forward $88 $-1 #
coedge $-1 $143 $143 $89 $144 forward $138 $-1 #
edge $-1 $230 -1.1575915565176986e-015 $230 6.2831853071795996 $143 $231 forward 7 unknown #
face $-1 $232 $233 $30 $-1 $234 reversed single #
loop $-1 $-1 $235 $90 #
plane-surface $-1 21.699595442549999 -131.63419165097798 81.289005228646943 1 0 0 0 0.7660444514056185 -0.64278759981090561 forward_v I I I I #
coedge $-1 $236 $237 $238 $239 reversed $91 $-1 #
coedge $-1 $150 $93 $240 $241 reversed $59 $-1 #
coedge $-1 $93 $149 $236 $242 reversed $59 $-1 #
coedge $-1 $238 $243 $93 $152 forward $244 $-1 #
edge $-1 $245 27.330468145104405 $246 32.684448080538012 $151 $247 forward 7 unknown #
loop $-1 $-1 $158 $94 #
plane-surface $-1 27.565802203917507 -38.486627680384586 3.128920702184729 0 -0.7660444514056185 0.64278759981090561 1 0 0 forward_v I I I I #
loop $-1 $-1 $248 $61 #
coedge $-1 $156 $156 $157 $249 reversed $95 $-1 #
coedge $-1 $157 $157 $156 $249 forward $97 $-1 #
coedge $-1 $158 $158 $98 $159 forward $153 $-1 #
edge $-1 $250 1.3027230337556552e-016 $250 6.2831853071796004 $158 $251 forward 7 unknown #
face $-1 $252 $253 $24 $-1 $254 reversed single #
loop $-1 $-1 $255 $99 #
plane-surface $-1 -60.797753837702565 0 0 1 0 0 0 0 -1 forward_v I I I I #
coedge $-1 $256 $171 $255 $257 forward $100 $-1 #
coedge $-1 $258 $102 $256 $259 forward $65 $-1 #
coedge $-1 $102 $258 $260 $261 forward $65 $-1 #
coedge $-1 $174 $173 $102 $167 reversed $175 $-1 #
edge $-1 $262 -38.486627680384586 $263 38.486627680384586 $166 $264 forward 7 unknown #
coedge $-1 $104 $103 $265 $266 forward $41 $-1 #
coedge $-1 $267 $268 $103 $170 reversed $253 $-1 #
edge $-1 $177 -60.797753837702565 $269 60.797753837702565 $169 $270 forward 7 unknown #
coedge $-1 $163 $271 $104 $172 reversed $100 $-1 #
edge $-1 $272 -60.797753837702565 $176 60.797753837702565 $171 $273 forward 7 unknown #
coedge $-1 $166 $105 $271 $274 forward $175 $-1 #
coedge $-1 $105 $166 $267 $275 reversed $175 $-1 #
loop $-1 $-1 $173 $252 #
vertex $-1 $106 $276 #
vertex $-1 $106 $277 #
straight-curve $-1 60.797753837702565 0 9.5095456919674586 0 1 0 I I #
face $-1 $278 $279 $25 $-1 $280 reversed single #
loop $-1 $-1 $281 $107 #
plane-surface $-1 -67.620527102926772 0 -7.394878353348699 1 0 0 0 0 -1 forward_v I I I I #
coedge $-1 $282 $110 $283 $284 reversed $69 $-1 #
coedge $-1 $110 $282 $188 $285 reversed $69 $-1 #
edge $-1 $190 5.2802110147299395 $286 9.5095456919674586 $110 $287 forward 7 unknown #
coedge $-1 $112 $111 $288 $289 reversed $44 $-1 #
coedge $-1 $290 $291 $111 $187 forward $292 $-1 #
edge $-1 $293 -9.5095456919674586 $191 -5.2802110147299395 $186 $294 forward 7 unknown #
coedge $-1 $295 $113 $183 $285 forward $108 $-1 #
coedge $-1 $113 $295 $290 $296 forward $108 $-1 #
vertex $-1 $184 $297 #
vertex $-1 $296 $298 #
straight-curve $-1 -60.797753837702565 0 -5.2802110147299395 0 -1 0 I I #
face $-1 $299 $300 $26 $-1 $301 reversed single #
loop $-1 $-1 $302 $115 #
plane-surface $-1 0 0 9.5095456919674586 0 0 1 1 0 0 forward_v I I I I #
coedge $-1 $303 $304 $305 $306 reversed $116 $-1 #
coedge $-1 $121 $118 $307 $308 reversed $73 $-1 #
coedge $-1 $118 $121 $309 $310 reversed $73 $-1 #
coedge $-1 $304 $303 $118 $200 reversed $116 $-1 #
edge $-1 $311 -9.5095456919674586 $312 9.5095456919674586 $199 $313 forward 7 unknown #
coedge $-1 $120 $119 $314 $315 reversed $47 $-1 #
coedge $-1 $307 $316 $119 $203 forward $300 $-1 #
edge $-1 $317 -32.446187756733067 $207 -24.256944405205953 $202 $318 forward 7 unknown #
coedge $-1 $319 $309 $120 $205 forward $194 $-1 #
edge $-1 $206 24.256944405205953 $320 32.446187756733067 $204 $321 forward 7 unknown #
vertex $-1 $205 $322 #
vertex $-1 $203 $323 #
straight-curve $-1 52.608510486175462 -27.114747744869163 0 0 0 -1 I I #
face $-1 $-1 $324 $27 $-1 $325 reversed single #
loop $-1 $-1 $129 $123 #
plane-surface $-1 0 0 9.5095456919674586 0 0 1 1 0 0 forward_v I I I I #
coedge $-1 $326 $327 $328 $329 reversed $124 $-1 #
coedge $-1 $330 $126 $128 $219 forward $77 $-1 #
coedge $-1 $126 $330 $326 $331 forward $77 $-1 #
coedge $-1 $328 $129 $126 $216 forward $210 $-1 #
edge $-1 $222 -30.337501707620714 $332 0.72611965719871208 $215 $333 forward 7 unknown #
coedge $-1 $334 $335 $127 $218 forward $324 $-1 #
edge $-1 $336 -63.606500790712083 $221 -54.342500875754133 $217 $337 forward 7 unknown #
edge $-1 $222 66.27610976696505 $336 76.973255360769187 $128 $338 forward 7 unknown #
coedge $-1 $129 $328 $334 $339 forward $210 $-1 #
vertex $-1 $218 $340 #
vertex $-1 $130 $341 #
straight-curve $-1 -45.143192732831714 52.652400302379526 9.5095456919674604 0 -1 0 I I #
coedge $-1 $224 $224 $-1 $342 reversed $133 $-1 #
edge $-1 $343 0 $343 6.2831853071796004 $134 $344 forward 7 unknown #
vertex $-1 $137 $345 #
ellipse-curve $-1 -36.267872342883308 35.812341353590909 4.8775457344884847 0 0.86602541151947299 0.49999998660252726 2.5 0 0 1 I I #
coedge $-1 $228 $228 $-1 $346 reversed $140 $-1 #
edge $-1 $347 0 $347 6.2831853071796004 $141 $348 forward 7 unknown #
vertex $-1 $144 $349 #
ellipse-curve $-1 -22.954891757960695 35.812341353590909 4.8775457344884847 0 0.86602541151947299 0.49999998660252726 2.5 0 0 1 I I #
face $-1 $-1 $244 $30 $-1 $350 forward single #
loop $-1 $-1 $351 $145 #
plane-surface $-1 0 -38.486627680384586 0 0 1 0 0 0 1 forward_v I I I I #
coedge $-1 $352 $353 $354 $355 reversed $146 $-1 #
coedge $-1 $356 $148 $150 $242 forward $91 $-1 #
coedge $-1 $148 $356 $352 $357 forward $91 $-1 #
coedge $-1 $354 $151 $148 $239 forward $244 $-1 #
edge $-1 $246 -19.649107863326261 $358 -7.9166943405912455 $238 $359 forward 7 unknown #
coedge $-1 $360 $361 $149 $241 forward $233 $-1 #
edge $-1 $362 -37.515581912138742 $245 -31.134956922356011 $240 $363 forward 7 unknown #
edge $-1 $246 -8.3293142820562078 $362 0 $150 $364 forward 7 unknown #
coedge $-1 $151 $354 $360 $365 forward $244 $-1 #
loop $-1 $-1 $354 $232 #
vertex $-1 $241 $366 #
vertex $-1 $152 $367 #
straight-curve $-1 33.432008965285014 -65.817095825488991 9.5095456919674604 0 1 0 I I #
coedge $-1 $248 $248 $-1 $368 reversed $155 $-1 #
edge $-1 $369 0 $369 6.2831853071796004 $156 $370 forward 7 unknown #
vertex $-1 $159 $371 #
ellipse-curve $-1 27.565802203917507 -35.809637712667779 6.3192331970760955 0 -0.7660444514056185 0.64278759981090561 1.5 0 0 1 I I #
face $-1 $-1 $175 $24 $-1 $372 reversed single #
loop $-1 $-1 $267 $160 #
plane-surface $-1 0 38.486627680384586 0 0 -1 0 0 0 -1 forward_v I I I I #
coedge $-1 $265 $373 $163 $257 reversed $161 $-1 #
coedge $-1 $271 $163 $164 $259 reversed $100 $-1 #
edge $-1 $272 -9.5095456919674586 $374 9.5095456919674586 $255 $375 forward 7 unknown #
coedge $-1 $165 $164 $373 $376 forward $65 $-1 #
edge $-1 $263 -60.797753837702565 $374 60.797753837702565 $256 $377 forward 7 unknown #
coedge $-1 $268 $267 $165 $261 reversed $253 $-1 #
edge $-1 $378 -60.797753837702565 $262 60.797753837702565 $260 $379 forward 7 unknown #
vertex $-1 $167 $380 #
vertex $-1 $274 $381 #
straight-curve $-1 60.797753837702565 0 -9.5095456919674586 0 -1 0 I I #
coedge $-1 $382 $255 $168 $266 reversed $161 $-1 #
edge $-1 $269 -38.486627680384586 $272 38.486627680384586 $265 $383 forward 7 unknown #
coedge $-1 $260 $169 $174 $275 forward $253 $-1 #
coedge $-1 $169 $260 $382 $384 reversed $253 $-1 #
vertex $-1 $170 $385 #
straight-curve $-1 0 38.486627680384586 9.5095456919674586 -1 0 0 I I #
coedge $-1 $171 $256 $173 $274 reversed $100 $-1 #
vertex $-1 $266 $386 #
straight-curve $-1 0 -38.486627680384586 9.5095456919674586 1 0 0 I I #
edge $-1 $176 -9.5095456919674586 $263 9.5095456919674586 $173 $387 forward 7 unknown #
edge $-1 $177 -9.5095456919674586 $262 9.5095456919674586 $174 $388 forward 7 unknown #
point $-1 60.797753837702565 -38.486627680384586 9.5095456919674586 #
point $-1 60.797753837702565 38.486627680384586 9.5095456919674586 #
face $-1 $-1 $292 $25 $-1 $389 reversed single #
loop $-1 $-1 $288 $179 #
plane-surface $-1 0 0 -9.5095456919674586 0 0 1 1 0 0 forward_v I I I I #
coedge $-1 $390 $391 $282 $392 forward $180 $-1 #
coedge $-1 $183 $182 $281 $392 reversed $69 $-1 #
coedge $-1 $288 $393 $182 $284 forward $279 $-1 #
edge $-1 $394 -67.620527102926772 $286 -60.797753837702565 $182 $395 forward 7 unknown #
edge $-1 $190 -3.4113866326120998 $396 3.411386632612107 $183 $397 forward 7 unknown #
vertex $-1 $184 $398 #
straight-curve $-1 -60.797753837702565 38.486627680384586 0 0 0 -1 I I #
coedge $-1 $399 $283 $185 $289 forward $279 $-1 #
edge $-1 $286 -38.486627680384586 $293 38.486627680384586 $288 $400 forward 7 unknown #
coedge $-1 $401 $186 $189 $296 reversed $292 $-1 #
coedge $-1 $186 $401 $399 $402 reversed $292 $-1 #
loop $-1 $-1 $186 $278 #
vertex $-1 $402 $403 #
straight-curve $-1 -60.797753837702565 -38.486627680384586 0 0 0 1 I I #
coedge $-1 $189 $188 $391 $404 forward $108 $-1 #
edge $-1 $405 -3.411386632612107 $191 3.4113866326120998 $290 $406 forward 7 unknown #
point $-1 -60.797753837702565 38.486627680384586 -5.2802110147299395 #
point $-1 -60.797753837702565 -38.486627680384586 -5.2802110147299395 #
face $-1 $-1 $407 $26 $-1 $408 reversed single #
loop $-1 $-1 $409 $193 #
plane-surface $-1 0 0 -9.5095456919674586 0 0 1 1 0 0 forward_v I I I I #
coedge $-1 $309 $319 $304 $410 forward $194 $-1 #
coedge $-1 $199 $196 $409 $411 reversed $116 $-1 #
coedge $-1 $196 $199 $302 $410 reversed $116 $-1 #
coedge $-1 $412 $413 $196 $306 forward $407 $-1 #
edge $-1 $414 -9.5095456919674586 $415 9.5095456919674586 $305 $416 forward 7 unknown #
coedge $-1 $409 $202 $197 $308 forward $300 $-1 #
edge $-1 $207 -14.78552936230404 $312 -9.8729074028262076 $307 $417 forward 7 unknown #
coedge $-1 $204 $302 $198 $310 forward $194 $-1 #
edge $-1 $311 9.8729074028262076 $206 14.78552936230404 $309 $418 forward 7 unknown #
vertex $-1 $310 $419 #
vertex $-1 $308 $420 #
straight-curve $-1 52.608510486175462 -22.202125785391331 0 0 0 -1 I I #
coedge $-1 $413 $412 $201 $315 forward $407 $-1 #
edge $-1 $320 -9.5095456919674586 $317 9.5095456919674586 $314 $421 forward 7 unknown #
coedge $-1 $202 $409 $413 $422 forward $300 $-1 #
vertex $-1 $315 $423 #
straight-curve $-1 28.351566080969508 -27.114747744869163 -9.5095456919674586 -1 0 0 I I #
coedge $-1 $302 $204 $412 $424 forward $194 $-1 #
vertex $-1 $424 $425 #
straight-curve $-1 28.351566080969508 -27.114747744869163 9.5095456919674586 1 0 0 I I #
point $-1 52.608510486175462 -27.114747744869163 9.5095456919674586 #
point $-1 52.608510486175462 -27.114747744869163 -9.5095456919674586 #
loop $-1 $-1 $217 $209 #
plane-surface $-1 0 38.486627680384586 0 0 -1 0 0 0 -1 forward_v I I I I #
coedge $-1 $327 $212 $214 $331 reversed $124 $-1 #
coedge $-1 $212 $326 $426 $427 reversed $124 $-1 #
coedge $-1 $220 $215 $212 $329 forward $210 $-1 #
edge $-1 $332 -19.514345275582293 $428 -14.16577262199494 $328 $429 forward 7 unknown #
coedge $-1 $214 $213 $335 $430 reversed $77 $-1 #
edge $-1 $431 -76.973255360769187 $332 -66.27610976696505 $326 $432 forward 7 unknown #
vertex $-1 $216 $433 #
straight-curve $-1 -14.805691025211001 33.138055026797225 9.5095456919674604 1 0 0 I I #
coedge $-1 $426 $217 $220 $339 reversed $324 $-1 #
coedge $-1 $217 $426 $330 $430 forward $324 $-1 #
vertex $-1 $218 $434 #
straight-curve $-1 -45.143192732831714 38.486627680384586 63.852046567721594 0 0 1 I I #
straight-curve $-1 -45.143192732831714 1.0312470806184137e-006 66.906340926813129 0 0.49999998660252726 -0.86602541151947299 I I #
edge $-1 $428 14.079571368012289 $221 45.143192732831714 $334 $435 forward 7 unknown #
point $-1 -45.143192732831714 38.486627680384586 9.5095456919674586 #
point $-1 -45.143192732831714 33.138055026797232 9.5095456919674604 #
edge $-1 $436 1 $436 0 $224 $-1 forward 7 unknown #
vertex $-1 $225 $437 #
ellipse-curve $-1 -36.267872342883308 29.482204897720685 1.2228398782549443 0 0.86602541151947299 0.49999998660252726 2.5 0 0 1 I I #
point $-1 -33.767872342883308 35.812341353590924 4.8775457344884963 #
edge $-1 $438 1 $438 0 $228 $-1 forward 7 unknown #
vertex $-1 $229 $439 #
ellipse-curve $-1 -22.954891757960695 29.482204897720685 1.2228398782549443 0 0.86602541151947299 0.49999998660252726 2.5 0 0 1 I I #
point $-1 -20.454891757960695 35.812341353590924 4.8775457344884963 #
plane-surface $-1 0 0 9.5095456919674586 0 0 1 1 0 0 forward_v I I I I #
coedge $-1 $361 $360 $353 $440 forward $233 $-1 #
coedge $-1 $353 $235 $237 $357 reversed $146 $-1 #
coedge $-1 $235 $352 $351 $440 reversed $146 $-1 #
coedge $-1 $243 $238 $235 $355 forward $244 $-1 #
edge $-1 $358 -32.684448080538012 $441 -27.330468145104405 $354 $442 forward 7 unknown #
coedge $-1 $237 $236 $361 $443 reversed $91 $-1 #
edge $-1 $444 0 $358 8.3293142820562078 $352 $445 forward 7 unknown #
vertex $-1 $239 $446 #
straight-curve $-1 13.782901101958753 -33.13264774495098 9.5095456919674568 -1 0 0 I I #
coedge $-1 $351 $240 $243 $365 reversed $233 $-1 #
coedge $-1 $240 $351 $356 $443 forward $233 $-1 #
vertex $-1 $241 $447 #
straight-curve $-1 33.432008965285014 -38.486627680384586 40.644502614323471 0 0 1 I I #
straight-curve $-1 33.432008965285014 -38.486627680384586 3.128920702184729 0 -0.64278759981090561 -0.7660444514056185 I I #
edge $-1 $441 21.699595442549999 $245 33.432008965285014 $360 $448 forward 7 unknown #
point $-1 33.432008965285014 -38.486627680384586 9.5095456919674586 #
point $-1 33.432008965285014 -33.13264774495098 9.5095456919674568 #
edge $-1 $449 1 $449 0 $248 $-1 forward 7 unknown #
vertex $-1 $249 $450 #
ellipse-curve $-1 27.565802203917507 -33.292926746877797 4.2074620091906096 0 -0.7660444514056185 0.64278759981090561 1.5 0 0 1 I I #
point $-1 29.065802203917507 -35.809637712667787 6.3192331970761018 #
plane-surface $-1 60.797753837702565 0 0 -1 0 0 0 0 1 forward_v I I I I #
coedge $-1 $255 $382 $258 $376 reversed $161 $-1 #
vertex $-1 $376 $451 #
straight-curve $-1 -60.797753837702565 -38.486627680384586 0 0 0 -1 I I #
edge $-1 $374 -38.486627680384586 $378 38.486627680384586 $373 $452 forward 7 unknown #
straight-curve $-1 0 -38.486627680384586 -9.5095456919674586 -1 0 0 I I #
vertex $-1 $261 $453 #
straight-curve $-1 0 38.486627680384586 -9.5095456919674586 1 0 0 I I #
point $-1 60.797753837702565 38.486627680384586 -9.5095456919674586 #
point $-1 60.797753837702565 -38.486627680384586 -9.5095456919674586 #
coedge $-1 $373 $265 $268 $384 forward $161 $-1 #
straight-curve $-1 -60.797753837702565 0 9.5095456919674586 0 -1 0 I I #
edge $-1 $269 -9.5095456919674586 $378 9.5095456919674586 $268 $454 forward 7 unknown #
point $-1 -60.797753837702565 38.486627680384586 9.5095456919674586 #
point $-1 -60.797753837702565 -38.486627680384586 9.5095456919674586 #
straight-curve $-1 60.797753837702565 -38.486627680384586 0 0 0 -1 I I #
straight-curve $-1 60.797753837702565 38.486627680384586 0 0 0 -1 I I #
plane-surface $-1 0 -38.486627680384586 0 0 1 0 0 0 1 forward_v I I I I #
coedge $-1 $455 $281 $393 $456 reversed $180 $-1 #
coedge $-1 $281 $455 $295 $404 reversed $180 $-1 #
edge $-1 $396 -2.1146673386187596 $394 2.1146673386187596 $282 $457 forward 7 unknown #
coedge $-1 $283 $399 $390 $456 forward $279 $-1 #
vertex $-1 $284 $458 #
straight-curve $-1 0 38.486627680384586 -9.5095456919674586 1 0 0 I I #
vertex $-1 $285 $459 #
straight-curve $-1 -64.209140470314665 38.486627680384586 -5.2802110147299395 -1 0 0 I I #
point $-1 -60.797753837702565 38.486627680384586 -9.5095456919674586 #
coedge $-1 $393 $288 $291 $402 forward $279 $-1 #
straight-curve $-1 -60.797753837702565 0 -9.5095456919674586 0 -1 0 I I #
coedge $-1 $291 $290 $455 $460 forward $292 $-1 #
edge $-1 $293 -3.4113866326120998 $461 3.411386632612107 $291 $462 forward 7 unknown #
point $-1 -60.797753837702565 -38.486627680384586 -9.5095456919674586 #
edge $-1 $396 -38.486627680384586 $405 38.486627680384586 $391 $463 forward 7 unknown #
vertex $-1 $404 $464 #
straight-curve $-1 -64.209140470314665 -38.486627680384586 -5.2802110147299395 1 0 0 I I #
loop $-1 $-1 $305 $299 #
plane-surface $-1 60.797753837702565 0 0 -1 0 0 0 0 1 forward_v I I I I #
coedge $-1 $316 $307 $303 $411 forward $300 $-1 #
edge $-1 $415 -32.446187756733067 $311 -24.256944405205953 $302 $465 forward 7 unknown #
edge $-1 $312 24.256944405205953 $414 32.446187756733067 $409 $466 forward 7 unknown #
coedge $-1 $314 $305 $319 $424 reversed $407 $-1 #
coedge $-1 $305 $314 $316 $422 reversed $407 $-1 #
vertex $-1 $422 $467 #
vertex $-1 $306 $468 #
straight-curve $-1 60.797753837702565 -22.202125785391331 0 0 0 1 I I #
straight-curve $-1 52.608510486175462 -12.329218382565124 -9.5095456919674586 0 1 0 I I #
straight-curve $-1 52.608510486175462 -12.329218382565124 9.5095456919674586 0 -1 0 I I #
point $-1 52.608510486175462 -22.202125785391331 9.5095456919674586 #
point $-1 52.608510486175462 -22.202125785391331 -9.5095456919674586 #
straight-curve $-1 60.797753837702565 -27.114747744869163 0 0 0 -1 I I #
edge $-1 $414 22.202125785391331 $317 27.114747744869163 $413 $469 forward 7 unknown #
point $-1 60.797753837702572 -27.114747744869163 -9.5095456919674586 #
edge $-1 $320 -27.114747744869163 $415 -22.202125785391331 $412 $470 forward 7 unknown #
point $-1 60.797753837702572 -27.114747744869163 9.5095456919674586 #
coedge $-1 $335 $334 $327 $427 forward $324 $-1 #
edge $-1 $428 54.342500875754133 $431 63.606500790712083 $426 $471 forward 7 unknown #
vertex $-1 $339 $472 #
straight-curve $-1 -14.079571368012289 52.652400302379526 9.5095456919674604 0 1 0 I I #
edge $-1 $431 -0.72611965719871208 $336 30.337501707620714 $335 $473 forward 7 unknown #
vertex $-1 $430 $474 #
straight-curve $-1 -14.079571368012289 1.0312470806184137e-006 66.906340926813129 0 -0.49999998660252726 0.86602541151947299 I I #
point $-1 -14.079571368012289 33.138055026797232 9.5095456919674604 #
point $-1 -45.143192732831714 38.486627680384586 0.24554577700951086 #
straight-curve $-1 0 38.486627680384586 9.5095456919674586 -1 0 0 I I #
vertex $-1 $342 $475 #
point $-1 -33.767872342883308 29.482204897720685 1.2228398782549443 #
vertex $-1 $346 $476 #
point $-1 -20.454891757960695 29.482204897720685 1.2228398782549443 #
edge $-1 $441 31.134956922356011 $444 37.515581912138742 $351 $477 forward 7 unknown #
vertex $-1 $365 $478 #
straight-curve $-1 21.699595442549999 -65.817095825488991 9.5095456919674604 0 -1 0 I I #
edge $-1 $444 7.9166943405912455 $362 19.649107863326261 $361 $479 forward 7 unknown #
vertex $-1 $443 $480 #
straight-curve $-1 21.699595442549999 -38.486627680384586 3.128920702184729 0 0.64278759981090561 0.7660444514056185 I I #
point $-1 21.699595442549999 -33.13264774495098 9.5095456919674568 #
point $-1 33.432008965285014 -38.486627680384586 3.128920702184729 #
straight-curve $-1 0 -38.486627680384586 9.5095456919674586 1 0 0 I I #
vertex $-1 $368 $481 #
point $-1 29.065802203917507 -33.292926746877797 4.2074620091906096 #
point $-1 -60.797753837702565 -38.486627680384586 -9.5095456919674586 #
straight-curve $-1 -60.797753837702565 0 -9.5095456919674586 0 1 0 I I #
point $-1 -60.797753837702565 38.486627680384586 -9.5095456919674586 #
straight-curve $-1 -60.797753837702565 38.486627680384586 0 0 0 -1 I I #
coedge $-1 $391 $390 $401 $460 reversed $180 $-1 #
edge $-1 $461 -38.486627680384586 $394 38.486627680384586 $390 $482 forward 7 unknown #
straight-curve $-1 -67.620527102926772 38.486627680384586 -7.394878353348699 0 0 -1 I I #
point $-1 -67.620527102926772 38.486627680384586 -9.5095456919674586 #
point $-1 -67.620527102926772 38.486627680384586 -5.2802110147299395 #
edge $-1 $405 -2.1146673386187596 $461 2.1146673386187596 $455 $483 forward 7 unknown #
vertex $-1 $456 $484 #
straight-curve $-1 -64.209140470314665 -38.486627680384586 -9.5095456919674586 -1 0 0 I I #
straight-curve $-1 -67.620527102926772 0 -5.2802110147299395 0 -1 0 I I #
point $-1 -67.620527102926772 -38.486627680384586 -5.2802110147299395 #
straight-curve $-1 28.351566080969508 -22.202125785391331 9.5095456919674586 -1 0 0 I I #
straight-curve $-1 28.351566080969508 -22.202125785391331 -9.5095456919674586 1 0 0 I I #
point $-1 60.797753837702572 -22.202125785391331 -9.5095456919674586 #
point $-1 60.797753837702572 -22.202125785391331 9.5095456919674586 #
straight-curve $-1 60.797753837702565 0 -9.5095456919674586 0 -1 0 I I #
straight-curve $-1 60.797753837702565 0 9.5095456919674586 0 1 0 I I #
straight-curve $-1 -14.079571368012289 38.486627680384586 63.852046567721594 0 0 -1 I I #
point $-1 -14.079571368012289 38.486627680384586 9.5095456919674586 #
straight-curve $-1 -14.805691025211001 38.486627680384586 0.24554577700950375 -1 0 0 I I #
point $-1 -14.079571368012289 38.486627680384586 0.24554577700951086 #
point $-1 -36.267872342883308 27.317141368922002 -0.027160088251373948 #
point $-1 -22.954891757960695 27.317141368922002 -0.027160088251373948 #
straight-curve $-1 21.699595442549999 -38.486627680384586 40.644502614323471 0 0 -1 I I #
point $-1 21.699595442549999 -38.486627680384586 9.5095456919674586 #
straight-curve $-1 13.782901101958753 -38.486627680384586 3.128920702184729 1 0 0 I I #
point $-1 21.699595442549999 -38.486627680384586 3.128920702184729 #
point $-1 27.565802203917507 -32.143860069769374 3.2432806094742519 #
straight-curve $-1 -67.620527102926772 0 -9.5095456919674586 0 1 0 I I #
straight-curve $-1 -67.620527102926772 -38.486627680384586 -7.394878353348699 0 0 -1 I I #
point $-1 -67.620527102926772 -38.486627680384586 -9.5095456919674586 #
End-of-ACIS-data 