500 0 6 0           
7 Unknown 11 ACIS 5.0 NT 24 Thu Mar 25 23:41:12 1999 
-1 9.9999999999999995e-007 1e-010 
body $-1 $6 $-1 $7 #
body $-1 $8 $-1 $9 #
body $-1 $10 $-1 $11 #
body $-1 $12 $-1 $13 #
body $-1 $14 $-1 $15 #
body $-1 $16 $-1 $17 #
lump $-1 $-1 $18 $0 #
transform $-1 1 0 0 0 1 0 0 0 1 52.394177068391983 35.911285882927793 14.307414893516571 1 rotate no_reflect no_shear #
lump $-1 $-1 $19 $1 #
transform $-1 1 0 0 0 1 0 0 0 1 52.394177068391983 35.911285882927793 14.307414893516571 1 rotate no_reflect no_shear #
lump $-1 $-1 $20 $2 #
transform $-1 1 0 0 0 1 0 0 0 1 52.394177068391983 35.911285882927793 14.307414893516571 1 rotate no_reflect no_shear #
lump $-1 $-1 $21 $3 #
transform $-1 1 0 0 0 1 0 0 0 1 52.394177068391983 35.911285882927793 14.307414893516571 1 rotate no_reflect no_shear #
lump $-1 $-1 $22 $4 #
transform $-1 1 0 0 0 1 0 0 0 1 52.394177068391983 35.911285882927793 14.307414893516571 1 rotate no_reflect no_shear #
lump $-1 $-1 $23 $5 #
transform $-1 1 0 0 0 1 0 0 0 1 52.394177068391983 35.911285882927793 14.307414893516571 1 rotate no_reflect no_shear #
shell $-1 $-1 $-1 $24 $-1 $6 #
shell $-1 $-1 $-1 $25 $-1 $8 #
shell $-1 $-1 $-1 $26 $-1 $10 #
shell $-1 $-1 $-1 $27 $-1 $12 #
shell $-1 $-1 $-1 $28 $-1 $14 #
shell $-1 $-1 $-1 $29 $-1 $16 #
face $-1 $30 $31 $18 $-1 $32 forward single #
face $-1 $33 $34 $19 $-1 $35 forward single #
face $-1 $36 $37 $20 $-1 $38 forward single #
face $-1 $39 $40 $21 $-1 $41 reversed single #
face $-1 $42 $43 $22 $-1 $44 forward single #
face $-1 $45 $46 $23 $-1 $47 forward single #
face $-1 $48 $49 $18 $-1 $50 reversed single #
loop $-1 $-1 $51 $24 #
plane-surface $-1 0 0 14.307414893516571 0 0 1 1 0 0 forward_v I I I I #
face $-1 $52 $53 $19 $-1 $54 forward single #
loop $-1 $-1 $55 $25 #
plane-surface $-1 0 -35.911285882927793 0 0 1 0 0 0 1 forward_v I I I I #
face $-1 $56 $57 $20 $-1 $58 forward single #
loop $-1 $-1 $59 $26 #
plane-surface $-1 0 35.911285882927793 0 0 -1 0 0 0 -1 forward_v I I I I #
face $-1 $60 $61 $21 $-1 $62 reversed single #
loop $-1 $-1 $63 $27 #
plane-surface $-1 -131.47895269974578 11.353181392214946 76.222930937863168 0 1 0 -0.75470958851134928 0 0.65605901945558964 forward_v I I I I #
face $-1 $64 $65 $22 $-1 $66 forward single #
loop $-1 $67 $68 $28 #
cone-surface $-1 -49.047413255342377 13.138340143379843 10.563470973290283 0.75470958851134928 0 -0.65605901945558964 0.32802950972779482 0 0.37735479425567464 1 I I 0 1 0.5 forward I I I I #
face $-1 $69 $70 $23 $-1 $71 forward single #
loop $-1 $72 $73 $29 #
cone-surface $-1 -49.047413255342377 15.816078270127178 10.563470973290283 0.75470958851134928 0 -0.65605901945558964 0.32802950972779482 0 0.37735479425567464 1 I I 0 1 0.5 forward I I I I #
face $-1 $74 $75 $18 $-1 $76 reversed single #
loop $-1 $-1 $77 $30 #
plane-surface $-1 0 0 -14.307414893516571 0 0 1 1 0 0 forward_v I I I I #
coedge $-1 $78 $79 $80 $81 forward $31 $-1 #
face $-1 $82 $83 $19 $-1 $84 reversed single #
loop $-1 $-1 $85 $33 #
plane-surface $-1 0 0 14.307414893516571 0 0 1 1 0 0 forward_v I I I I #
coedge $-1 $86 $87 $88 $89 forward $34 $-1 #
face $-1 $90 $91 $20 $-1 $92 reversed single #
loop $-1 $-1 $93 $36 #
plane-surface $-1 0 0 14.307414893516571 0 0 1 1 0 0 forward_v I I I I #
coedge $-1 $94 $95 $96 $97 forward $37 $-1 #
face $-1 $98 $99 $21 $-1 $100 reversed single #
loop $-1 $-1 $101 $39 #
plane-surface $-1 -52.394177068391997 14.477209206753507 7.4755860725196044 -0.75470958851134928 0 0.65605901945558964 0.65605901945558964 0 0.75470958851134928 forward_v I I I I #
coedge $-1 $102 $103 $104 $105 reversed $40 $-1 #
face $-1 $-1 $106 $22 $-1 $107 forward single #
loop $-1 $108 $109 $42 #
cone-surface $-1 -48.481381063958864 13.138340143379843 10.07142670869859 0.75470958851134928 0 -0.65605901945558964 0.16401475486389741 0 0.18867739712783732 1 I I -0.70710678118654746 0.70710678118654746 0.25 forward I I I I #
loop $-1 $-1 $110 $28 #
coedge $-1 $68 $68 $111 $112 reversed $43 $-1 #
face $-1 $-1 $113 $23 $-1 $114 forward single #
loop $-1 $115 $116 $45 #
cone-surface $-1 -48.481381063958864 15.816078270127178 10.07142670869859 0.75470958851134928 0 -0.65605901945558964 0.16401475486389741 0 0.18867739712783732 1 I I -0.70710678118654746 0.70710678118654746 0.25 forward I I I I #
loop $-1 $-1 $117 $29 #
coedge $-1 $73 $73 $118 $119 reversed $46 $-1 #
face $-1 $120 $121 $18 $-1 $122 reversed single #
loop $-1 $-1 $123 $48 #
plane-surface $-1 0 -35.911285882927793 0 0 1 0 0 0 1 forward_v I I I I #
coedge $-1 $124 $125 $126 $127 forward $49 $-1 #
coedge $-1 $128 $51 $129 $130 forward $31 $-1 #
coedge $-1 $51 $128 $131 $132 forward $31 $-1 #
coedge $-1 $133 $134 $51 $81 reversed $135 $-1 #
edge $-1 $136 -35.911285882927793 $137 35.911285882927793 $80 $138 forward 7 unknown #
face $-1 $139 $140 $19 $-1 $141 reversed single #
loop $-1 $-1 $142 $52 #
plane-surface $-1 -52.394177068391983 0 0 1 0 0 0 0 -1 forward_v I I I I #
coedge $-1 $143 $144 $87 $145 forward $53 $-1 #
coedge $-1 $146 $55 $147 $148 reversed $34 $-1 #
coedge $-1 $55 $146 $85 $145 reversed $34 $-1 #
coedge $-1 $149 $150 $55 $89 reversed $151 $-1 #
edge $-1 $152 -14.307414893516571 $153 14.307414893516571 $88 $154 forward 7 unknown #
face $-1 $155 $156 $20 $-1 $157 reversed single #
loop $-1 $-1 $158 $56 #
plane-surface $-1 -49.059768247494759 50.124185470561898 0 0 -1 0 0 0 -1 forward_v I I I I #
coedge $-1 $159 $160 $94 $161 forward $57 $-1 #
coedge $-1 $162 $59 $93 $161 reversed $37 $-1 #
coedge $-1 $59 $162 $163 $164 reversed $37 $-1 #
coedge $-1 $165 $166 $59 $97 reversed $156 $-1 #
edge $-1 $167 -14.307414893516571 $168 14.307414893516571 $96 $169 forward 7 unknown #
face $-1 $170 $171 $21 $-1 $172 reversed single #
loop $-1 $-1 $173 $60 #
plane-surface $-1 -131.47895269974578 17.601237021292068 76.222930937863168 0 -1 0 0.75470958851134928 0 -0.65605901945558964 forward_v I I I I #
coedge $-1 $174 $175 $176 $177 reversed $61 $-1 #
coedge $-1 $103 $63 $178 $179 reversed $40 $-1 #
coedge $-1 $63 $102 $174 $180 reversed $40 $-1 #
coedge $-1 $176 $181 $63 $105 forward $182 $-1 #
edge $-1 $183 13.345299281480905 $184 19.284117319068741 $104 $185 forward 7 unknown #
loop $-1 $-1 $111 $64 #
plane-surface $-1 -52.394177068391997 14.477209206753507 7.4755860725196044 -0.75470958851134928 0 0.65605901945558964 0.65605901945558964 0 0.75470958851134928 forward_v I I I I #
loop $-1 $-1 $186 $42 #
coedge $-1 $109 $109 $110 $187 reversed $65 $-1 #
coedge $-1 $110 $110 $109 $187 forward $67 $-1 #
coedge $-1 $111 $111 $68 $112 forward $106 $-1 #
edge $-1 $188 0 $188 6.2831853071796004 $111 $189 forward 7 unknown #
loop $-1 $-1 $118 $69 #
plane-surface $-1 -52.394177068391997 14.477209206753507 7.4755860725196044 -0.75470958851134928 0 0.65605901945558964 0.65605901945558964 0 0.75470958851134928 forward_v I I I I #
loop $-1 $-1 $190 $45 #
coedge $-1 $116 $116 $117 $191 reversed $70 $-1 #
coedge $-1 $117 $117 $116 $191 forward $72 $-1 #
coedge $-1 $118 $118 $73 $119 forward $113 $-1 #
edge $-1 $192 0 $192 6.2831853071796004 $118 $193 forward 7 unknown #
face $-1 $194 $195 $18 $-1 $196 reversed single #
loop $-1 $-1 $197 $74 #
plane-surface $-1 -52.394177068391983 0 0 1 0 0 0 0 -1 forward_v I I I I #
coedge $-1 $198 $131 $199 $200 forward $75 $-1 #
coedge $-1 $201 $77 $198 $202 forward $49 $-1 #
coedge $-1 $77 $201 $203 $204 forward $49 $-1 #
coedge $-1 $134 $133 $77 $127 reversed $135 $-1 #
edge $-1 $205 -35.911285882927793 $206 35.911285882927793 $126 $207 forward 7 unknown #
coedge $-1 $79 $78 $208 $209 forward $31 $-1 #
coedge $-1 $210 $211 $78 $130 reversed $195 $-1 #
edge $-1 $137 -52.394177068391983 $212 52.394177068391983 $129 $213 forward 7 unknown #
coedge $-1 $123 $214 $79 $132 reversed $75 $-1 #
edge $-1 $215 -52.394177068391983 $136 52.394177068391983 $131 $216 forward 7 unknown #
coedge $-1 $126 $80 $214 $217 forward $135 $-1 #
coedge $-1 $80 $126 $210 $218 reversed $135 $-1 #
loop $-1 $-1 $133 $194 #
vertex $-1 $81 $219 #
vertex $-1 $81 $220 #
straight-curve $-1 52.394177068391983 0 14.307414893516571 0 1 0 I I #
face $-1 $221 $151 $19 $-1 $222 reversed single #
loop $-1 $-1 $223 $82 #
plane-surface $-1 -49.059768247494759 -50.124185470561905 0 0 1 0 0 0 1 forward_v I I I I #
coedge $-1 $224 $225 $146 $226 forward $83 $-1 #
coedge $-1 $227 $85 $225 $228 forward $53 $-1 #
coedge $-1 $85 $227 $149 $229 forward $53 $-1 #
edge $-1 $152 45.725359426597535 $230 52.394177068391983 $85 $231 forward 7 unknown #
coedge $-1 $87 $86 $142 $226 reversed $34 $-1 #
coedge $-1 $232 $233 $86 $148 forward $234 $-1 #
edge $-1 $235 -52.394177068391983 $153 -45.725359426597535 $147 $236 forward 7 unknown #
coedge $-1 $237 $88 $144 $229 reversed $151 $-1 #
coedge $-1 $88 $237 $232 $238 reversed $151 $-1 #
loop $-1 $-1 $237 $139 #
vertex $-1 $145 $239 #
vertex $-1 $238 $240 #
straight-curve $-1 -45.725359426597535 -35.911285882927793 0 0 0 -1 I I #
face $-1 $241 $242 $20 $-1 $243 reversed single #
loop $-1 $-1 $96 $90 #
plane-surface $-1 -45.725359426597535 43.017735676744842 0 -1 0 0 0 0 1 forward_v I I I I #
coedge $-1 $244 $245 $246 $247 forward $91 $-1 #
coedge $-1 $248 $93 $166 $249 forward $57 $-1 #
coedge $-1 $93 $248 $250 $251 forward $57 $-1 #
edge $-1 $252 -52.394177068391983 $168 -45.725359426597535 $93 $253 forward 7 unknown #
coedge $-1 $95 $94 $254 $255 reversed $37 $-1 #
coedge $-1 $256 $257 $95 $164 forward $242 $-1 #
edge $-1 $167 45.725359426597535 $258 52.394177068391983 $163 $259 forward 7 unknown #
coedge $-1 $246 $96 $257 $260 reversed $156 $-1 #
coedge $-1 $96 $246 $159 $249 reversed $156 $-1 #
vertex $-1 $164 $261 #
vertex $-1 $249 $262 #
straight-curve $-1 -45.725359426597535 35.911285882927793 0 0 0 1 I I #
face $-1 $-1 $182 $21 $-1 $263 forward single #
loop $-1 $-1 $264 $98 #
plane-surface $-1 -52.394177068391983 0 0 1 0 0 0 0 -1 forward_v I I I I #
coedge $-1 $265 $266 $267 $268 reversed $99 $-1 #
coedge $-1 $269 $101 $103 $180 forward $61 $-1 #
coedge $-1 $101 $269 $265 $270 forward $61 $-1 #
coedge $-1 $267 $104 $101 $177 forward $182 $-1 #
edge $-1 $184 4.1145767888381926 $271 10.362632417915314 $176 $272 forward 7 unknown #
coedge $-1 $273 $274 $102 $179 forward $171 $-1 #
edge $-1 $275 -30.635879396411966 $183 -23.804050575415012 $178 $276 forward 7 unknown #
edge $-1 $184 -9.0522618567396549 $275 -2.1388861263899031e-014 $103 $277 forward 7 unknown #
coedge $-1 $104 $267 $273 $278 forward $182 $-1 #
loop $-1 $-1 $267 $170 #
vertex $-1 $179 $279 #
vertex $-1 $105 $280 #
straight-curve $-1 -65.739476349872888 11.353181392214946 14.307414893516572 1 0 0 I I #
coedge $-1 $186 $186 $-1 $281 reversed $108 $-1 #
edge $-1 $282 0 $282 6.2831853071796004 $109 $283 forward 7 unknown #
vertex $-1 $112 $284 #
ellipse-curve $-1 -49.424768049598065 13.138340143379843 10.891500483018092 -0.75470958851134928 0 0.65605901945558964 0.32802950972779482 0 0.37735479425567464 1 I I #
coedge $-1 $190 $190 $-1 $285 reversed $115 $-1 #
edge $-1 $286 0 $286 6.2831853071796004 $116 $287 forward 7 unknown #
vertex $-1 $119 $288 #
ellipse-curve $-1 -49.424768049598065 15.816078270127178 10.891500483018092 -0.75470958851134928 0 0.65605901945558964 0.32802950972779482 0 0.37735479425567464 1 I I #
face $-1 $-1 $135 $18 $-1 $289 reversed single #
loop $-1 $-1 $210 $120 #
plane-surface $-1 0 35.911285882927793 0 0 -1 0 0 0 -1 forward_v I I I I #
coedge $-1 $290 $208 $211 $291 forward $121 $-1 #
coedge $-1 $214 $123 $124 $202 reversed $75 $-1 #
coedge $-1 $208 $290 $123 $200 reversed $121 $-1 #
edge $-1 $215 -14.307414893516571 $292 14.307414893516571 $199 $293 forward 7 unknown #
coedge $-1 $125 $124 $290 $294 forward $49 $-1 #
edge $-1 $206 -52.394177068391983 $292 52.394177068391983 $198 $295 forward 7 unknown #
coedge $-1 $211 $210 $125 $204 reversed $195 $-1 #
edge $-1 $296 -52.394177068391983 $205 52.394177068391983 $203 $297 forward 7 unknown #
vertex $-1 $127 $298 #
vertex $-1 $217 $299 #
straight-curve $-1 52.394177068391983 0 -14.307414893516571 0 -1 0 I I #
coedge $-1 $197 $199 $128 $209 reversed $121 $-1 #
edge $-1 $212 -35.911285882927793 $215 35.911285882927793 $208 $300 forward 7 unknown #
coedge $-1 $203 $129 $134 $218 forward $195 $-1 #
coedge $-1 $129 $203 $197 $291 reversed $195 $-1 #
vertex $-1 $130 $301 #
straight-curve $-1 0 35.911285882927793 14.307414893516571 -1 0 0 I I #
coedge $-1 $131 $198 $133 $217 reversed $75 $-1 #
vertex $-1 $209 $302 #
straight-curve $-1 0 -35.911285882927793 14.307414893516571 1 0 0 I I #
edge $-1 $136 -14.307414893516571 $206 14.307414893516571 $133 $303 forward 7 unknown #
edge $-1 $137 -14.307414893516571 $205 14.307414893516571 $134 $304 forward 7 unknown #
point $-1 52.394177068391983 -35.911285882927793 14.307414893516571 #
point $-1 52.394177068391983 35.911285882927793 14.307414893516571 #
face $-1 $-1 $234 $19 $-1 $305 reversed single #
plane-surface $-1 -45.725359426597535 -43.017735676744849 0 -1 0 0 0 0 1 forward_v I I I I #
coedge $-1 $306 $307 $308 $309 forward $140 $-1 #
coedge $-1 $308 $142 $233 $310 reversed $83 $-1 #
coedge $-1 $142 $308 $143 $228 reversed $83 $-1 #
edge $-1 $230 -14.307414893516571 $235 14.307414893516571 $142 $311 forward 7 unknown #
coedge $-1 $144 $143 $307 $312 forward $53 $-1 #
edge $-1 $230 35.911285882927793 $313 50.124185470561905 $225 $314 forward 7 unknown #
edge $-1 $315 -7.1064497938170561 $152 7.1064497938170561 $149 $316 forward 7 unknown #
vertex $-1 $228 $317 #
straight-curve $-1 0 -35.911285882927793 14.307414893516571 -1 0 0 I I #
coedge $-1 $318 $147 $150 $238 forward $234 $-1 #
coedge $-1 $147 $318 $224 $310 forward $234 $-1 #
loop $-1 $-1 $147 $221 #
vertex $-1 $226 $319 #
straight-curve $-1 0 -35.911285882927793 -14.307414893516571 1 0 0 I I #
coedge $-1 $150 $149 $320 $321 forward $151 $-1 #
edge $-1 $153 -7.1064497938170561 $322 7.1064497938170561 $150 $323 forward 7 unknown #
point $-1 -45.725359426597535 -35.911285882927793 14.307414893516571 #
point $-1 -45.725359426597535 -35.911285882927793 -14.307414893516571 #
face $-1 $-1 $324 $20 $-1 $325 reversed single #
loop $-1 $-1 $163 $155 #
plane-surface $-1 0 0 -14.307414893516571 0 0 1 1 0 0 forward_v I I I I #
coedge $-1 $326 $158 $327 $328 reversed $91 $-1 #
coedge $-1 $158 $326 $248 $329 reversed $91 $-1 #
coedge $-1 $166 $165 $158 $247 reversed $156 $-1 #
edge $-1 $330 -14.307414893516571 $331 14.307414893516571 $246 $332 forward 7 unknown #
coedge $-1 $160 $159 $245 $329 forward $57 $-1 #
edge $-1 $168 -7.1064497938170561 $330 7.1064497938170561 $166 $333 forward 7 unknown #
coedge $-1 $334 $254 $160 $251 reversed $324 $-1 #
edge $-1 $335 -50.124185470561898 $252 -35.911285882927793 $250 $336 forward 7 unknown #
vertex $-1 $255 $337 #
straight-curve $-1 0 35.911285882927793 14.307414893516571 1 0 0 I I #
coedge $-1 $250 $338 $162 $255 forward $324 $-1 #
edge $-1 $258 -14.307414893516571 $252 14.307414893516571 $254 $339 forward 7 unknown #
coedge $-1 $327 $163 $338 $340 forward $242 $-1 #
coedge $-1 $163 $327 $165 $260 forward $242 $-1 #
vertex $-1 $340 $341 #
straight-curve $-1 0 35.911285882927793 -14.307414893516571 -1 0 0 I I #
edge $-1 $331 -7.1064497938170561 $167 7.1064497938170561 $165 $342 forward 7 unknown #
point $-1 -45.725359426597535 35.911285882927785 -14.307414893516571 #
point $-1 -45.725359426597535 35.911285882927785 14.307414893516571 #
plane-surface $-1 0 0 14.307414893516571 0 0 1 1 0 0 forward_v I I I I #
coedge $-1 $274 $273 $266 $343 forward $171 $-1 #
coedge $-1 $266 $173 $175 $270 reversed $99 $-1 #
coedge $-1 $173 $265 $264 $343 reversed $99 $-1 #
coedge $-1 $181 $176 $173 $268 forward $182 $-1 #
edge $-1 $271 -19.284117319068741 $344 -13.345299281480905 $267 $345 forward 7 unknown #
coedge $-1 $175 $174 $274 $346 reversed $61 $-1 #
edge $-1 $347 2.1388861263899031e-014 $271 9.0522618567396549 $265 $348 forward 7 unknown #
vertex $-1 $177 $349 #
straight-curve $-1 -46.455359030804146 7.2386046033767535 14.307414893516571 0 1 0 I I #
coedge $-1 $264 $178 $181 $278 reversed $171 $-1 #
coedge $-1 $178 $264 $269 $346 forward $171 $-1 #
vertex $-1 $179 $350 #
straight-curve $-1 -52.394177068391983 11.353181392214946 38.111465468931584 0 0 1 I I #
straight-curve $-1 -52.394177068391997 11.353181392214946 7.4755860725196044 -0.65605901945558964 0 -0.75470958851134928 I I #
edge $-1 $344 -17.601237021292068 $183 -11.353181392214946 $273 $351 forward 7 unknown #
point $-1 -52.394177068391983 11.353181392214946 14.307414893516571 #
point $-1 -46.455359030804146 11.353181392214946 14.307414893516571 #
edge $-1 $352 1 $352 0 $186 $-1 forward 7 unknown #
vertex $-1 $187 $353 #
ellipse-curve $-1 -48.670058461086704 13.138340143379843 10.235441463562488 -0.75470958851134928 0 0.65605901945558964 0.32802950972779482 0 0.37735479425567464 1 I I #
point $-1 -49.096738539870259 13.138340143379843 11.268855277273751 #
edge $-1 $354 1 $354 0 $190 $-1 forward 7 unknown #
vertex $-1 $191 $355 #
ellipse-curve $-1 -48.670058461086704 15.816078270127178 10.235441463562488 -0.75470958851134928 0 0.65605901945558964 0.32802950972779482 0 0.37735479425567464 1 I I #
point $-1 -49.096738539870259 15.816078270127178 11.268855277273751 #
plane-surface $-1 52.394177068391983 0 0 -1 0 0 0 0 1 forward_v I I I I #
coedge $-1 $199 $197 $201 $294 reversed $121 $-1 #
edge $-1 $212 -14.307414893516571 $296 14.307414893516571 $211 $356 forward 7 unknown #
vertex $-1 $294 $357 #
straight-curve $-1 -52.394177068391983 -35.911285882927793 0 0 0 -1 I I #
edge $-1 $292 -35.911285882927793 $296 35.911285882927793 $290 $358 forward 7 unknown #
straight-curve $-1 0 -35.911285882927793 -14.307414893516571 -1 0 0 I I #
vertex $-1 $204 $359 #
straight-curve $-1 0 35.911285882927793 -14.307414893516571 1 0 0 I I #
point $-1 52.394177068391983 35.911285882927793 -14.307414893516571 #
point $-1 52.394177068391983 -35.911285882927793 -14.307414893516571 #
straight-curve $-1 -52.394177068391983 0 14.307414893516571 0 -1 0 I I #
point $-1 -52.394177068391983 35.911285882927793 14.307414893516571 #
point $-1 -52.394177068391983 -35.911285882927793 14.307414893516571 #
straight-curve $-1 52.394177068391983 -35.911285882927793 0 0 0 -1 I I #
straight-curve $-1 52.394177068391983 35.911285882927793 0 0 0 -1 I I #
plane-surface $-1 0 0 -14.307414893516571 0 0 1 1 0 0 forward_v I I I I #
coedge $-1 $320 $223 $318 $360 reversed $140 $-1 #
coedge $-1 $223 $320 $227 $312 reversed $140 $-1 #
coedge $-1 $225 $224 $223 $309 reversed $83 $-1 #
edge $-1 $313 -14.307414893516571 $361 14.307414893516571 $308 $362 forward 7 unknown #
edge $-1 $361 -50.124185470561905 $235 -35.911285882927793 $224 $363 forward 7 unknown #
straight-curve $-1 -52.394177068391983 -35.911285882927793 0 0 0 -1 I I #
edge $-1 $313 -3.3344088208972238 $315 3.3344088208972238 $307 $364 forward 7 unknown #
vertex $-1 $228 $365 #
straight-curve $-1 -52.394177068391983 0 14.307414893516571 0 -1 0 I I #
vertex $-1 $229 $366 #
straight-curve $-1 -45.725359426597535 -43.017735676744849 14.307414893516571 0 1 0 I I #
point $-1 -52.394177068391983 -35.911285882927793 14.307414893516571 #
coedge $-1 $233 $232 $306 $360 forward $234 $-1 #
point $-1 -52.394177068391983 -35.911285882927793 -14.307414893516571 #
coedge $-1 $307 $306 $237 $321 reversed $140 $-1 #
edge $-1 $315 -14.307414893516571 $322 14.307414893516571 $237 $367 forward 7 unknown #
vertex $-1 $321 $368 #
straight-curve $-1 -45.725359426597535 -43.017735676744849 -14.307414893516571 0 -1 0 I I #
loop $-1 $-1 $254 $241 #
plane-surface $-1 -52.394177068391983 0 0 1 0 0 0 0 -1 forward_v I I I I #
coedge $-1 $245 $244 $334 $369 reversed $91 $-1 #
coedge $-1 $257 $256 $244 $328 forward $242 $-1 #
edge $-1 $370 -3.3344088208972238 $331 3.3344088208972238 $244 $371 forward 7 unknown #
edge $-1 $330 -3.3344088208972238 $335 3.3344088208972238 $245 $372 forward 7 unknown #
vertex $-1 $249 $373 #
vertex $-1 $260 $374 #
straight-curve $-1 -45.725359426597535 50.124185470561898 0 0 0 -1 I I #
straight-curve $-1 -45.725359426597535 43.017735676744842 14.307414893516571 0 1 0 I I #
coedge $-1 $338 $250 $326 $369 forward $324 $-1 #
vertex $-1 $329 $375 #
straight-curve $-1 -52.394177068391983 0 14.307414893516571 0 -1 0 I I #
point $-1 -52.394177068391983 35.911285882927793 14.307414893516571 #
coedge $-1 $254 $334 $256 $340 reversed $324 $-1 #
straight-curve $-1 -52.394177068391983 35.911285882927793 0 0 0 1 I I #
edge $-1 $258 -7.106449793817049 $370 7.1064497938170561 $338 $376 forward 7 unknown #
point $-1 -52.394177068391983 35.911285882927793 -14.307414893516571 #
straight-curve $-1 -45.725359426597535 43.017735676744842 -14.307414893516571 0 -1 0 I I #
edge $-1 $344 23.804050575415012 $347 30.635879396411966 $264 $377 forward 7 unknown #
vertex $-1 $278 $378 #
straight-curve $-1 -65.739476349872888 17.601237021292068 14.307414893516572 -1 0 0 I I #
edge $-1 $347 -10.362632417915314 $275 -4.1145767888381926 $274 $379 forward 7 unknown #
vertex $-1 $346 $380 #
straight-curve $-1 -52.394177068391997 17.601237021292068 7.4755860725196044 0.65605901945558964 0 0.75470958851134928 I I #
point $-1 -46.455359030804146 17.601237021292068 14.307414893516571 #
point $-1 -52.394177068391983 11.353181392214946 7.4755860725196204 #
straight-curve $-1 -52.394177068391983 0 14.307414893516571 0 -1 0 I I #
vertex $-1 $281 $381 #
point $-1 -48.342028951358905 13.138340143379843 10.612796257818163 #
vertex $-1 $285 $382 #
point $-1 -48.342028951358905 15.816078270127178 10.612796257818163 #
straight-curve $-1 -52.394177068391983 35.911285882927793 0 0 0 -1 I I #
point $-1 -52.394177068391983 -35.911285882927793 -14.307414893516571 #
straight-curve $-1 -52.394177068391983 0 -14.307414893516571 0 1 0 I I #
point $-1 -52.394177068391983 35.911285882927793 -14.307414893516571 #
edge $-1 $322 -3.3344088208972238 $361 3.3344088208972238 $306 $383 forward 7 unknown #
vertex $-1 $310 $384 #
straight-curve $-1 -52.394177068391983 -50.124185470561905 0 0 0 -1 I I #
straight-curve $-1 -52.394177068391983 0 -14.307414893516571 0 1 0 I I #
straight-curve $-1 -49.059768247494759 -50.124185470561905 14.307414893516571 1 0 0 I I #
point $-1 -52.394177068391983 -50.124185470561905 14.307414893516571 #
point $-1 -45.725359426597535 -50.124185470561905 14.307414893516571 #
straight-curve $-1 -45.725359426597535 -50.124185470561905 0 0 0 -1 I I #
point $-1 -45.725359426597535 -50.124185470561905 -14.307414893516571 #
edge $-1 $335 -14.307414893516571 $370 14.307414893516571 $326 $385 forward 7 unknown #
vertex $-1 $328 $386 #
straight-curve $-1 -49.059768247494759 50.124185470561898 -14.307414893516571 1 0 0 I I #
straight-curve $-1 -49.059768247494759 50.124185470561898 14.307414893516571 -1 0 0 I I #
point $-1 -45.725359426597535 50.124185470561898 14.307414893516571 #
point $-1 -45.725359426597535 50.124185470561898 -14.307414893516571 #
point $-1 -52.394177068391983 50.124185470561898 14.307414893516571 #
straight-curve $-1 -52.394177068391983 43.017735676744842 -14.307414893516571 0 1 0 I I #
straight-curve $-1 -52.394177068391983 17.601237021292068 38.111465468931584 0 0 -1 I I #
point $-1 -52.394177068391983 17.601237021292068 14.307414893516571 #
straight-curve $-1 -52.394177068391983 7.2386046033767535 7.4755860725196221 0 -1 0 I I #
point $-1 -52.394177068391983 17.601237021292068 7.4755860725196204 #
point $-1 -48.292703666831024 13.138340143379843 9.9074119538346928 #
point $-1 -48.292703666831024 15.816078270127178 9.9074119538346928 #
straight-curve $-1 -49.059768247494759 -50.124185470561905 -14.307414893516571 -1 0 0 I I #
point $-1 -52.394177068391983 -50.124185470561905 -14.307414893516571 #
straight-curve $-1 -52.394177068391983 50.124185470561898 0 0 0 -1 I I #
point $-1 -52.394177068391983 50.124185470561898 -14.307414893516571 #
End-of-ACIS-data 