500 0 11 0           
7 Unknown 11 ACIS 5.0 NT 24 Thu Mar 25 19:41:18 1999 
-1 9.9999999999999995e-007 1e-010 
body $-1 $11 $-1 $12 #
body $-1 $13 $-1 $14 #
body $-1 $15 $-1 $16 #
body $-1 $17 $-1 $18 #
body $-1 $19 $-1 $20 #
body $-1 $21 $-1 $22 #
body $-1 $23 $-1 $24 #
body $-1 $25 $-1 $26 #
body $-1 $27 $-1 $28 #
body $-1 $29 $-1 $30 #
body $-1 $31 $-1 $32 #
lump $-1 $-1 $33 $0 #
transform $-1 1 0 0 0 1 0 0 0 1 74.618976409192186 50.778114385647946 20.186342161636016 1 rotate no_reflect no_shear #
lump $-1 $-1 $34 $1 #
transform $-1 1 0 0 0 1 0 0 0 1 74.618976409192186 50.778114385647946 20.186342161636016 1 rotate no_reflect no_shear #
lump $-1 $-1 $35 $2 #
transform $-1 1 0 0 0 1 0 0 0 1 74.618976409192186 50.778114385647946 20.186342161636016 1 rotate no_reflect no_shear #
lump $-1 $-1 $36 $3 #
transform $-1 1 0 0 0 1 0 0 0 1 74.618976409192186 50.778114385647946 20.186342161636016 1 rotate no_reflect no_shear #
lump $-1 $-1 $37 $4 #
transform $-1 1 0 0 0 1 0 0 0 1 74.618976409192186 50.778114385647946 20.186342161636016 1 rotate no_reflect no_shear #
lump $-1 $-1 $38 $5 #
transform $-1 1 0 0 0 1 0 0 0 1 74.618976409192186 50.778114385647946 20.186342161636016 1 rotate no_reflect no_shear #
lump $-1 $-1 $39 $6 #
transform $-1 1 0 0 0 1 0 0 0 1 74.618976409192186 50.778114385647946 20.186342161636016 1 rotate no_reflect no_shear #
lump $-1 $-1 $40 $7 #
transform $-1 1 0 0 0 1 0 0 0 1 74.618976409192186 50.778114385647946 20.186342161636016 1 rotate no_reflect no_shear #
lump $-1 $-1 $41 $8 #
transform $-1 1 0 0 0 1 0 0 0 1 74.618976409192186 50.778114385647946 20.186342161636016 1 rotate no_reflect no_shear #
lump $-1 $-1 $42 $9 #
transform $-1 1 0 0 0 1 0 0 0 1 74.618976409192186 50.778114385647946 20.186342161636016 1 rotate no_reflect no_shear #
lump $-1 $-1 $43 $10 #
transform $-1 1 0 0 0 1 0 0 0 1 74.618976409192186 50.778114385647946 20.186342161636016 1 rotate no_reflect no_shear #
shell $-1 $-1 $-1 $44 $-1 $11 #
shell $-1 $-1 $-1 $45 $-1 $13 #
shell $-1 $-1 $-1 $46 $-1 $15 #
shell $-1 $-1 $-1 $47 $-1 $17 #
shell $-1 $-1 $-1 $48 $-1 $19 #
shell $-1 $-1 $-1 $49 $-1 $21 #
shell $-1 $-1 $-1 $50 $-1 $23 #
shell $-1 $-1 $-1 $51 $-1 $25 #
shell $-1 $-1 $-1 $52 $-1 $27 #
shell $-1 $-1 $-1 $53 $-1 $29 #
shell $-1 $-1 $-1 $54 $-1 $31 #
face $-1 $55 $56 $33 $-1 $57 forward single #
face $-1 $58 $59 $34 $-1 $60 reversed single #
face $-1 $61 $62 $35 $-1 $63 reversed single #
face $-1 $64 $65 $36 $-1 $66 forward single #
face $-1 $67 $68 $37 $-1 $69 forward single #
face $-1 $70 $71 $38 $-1 $72 reversed single #
face $-1 $73 $74 $39 $-1 $75 forward single #
face $-1 $76 $77 $40 $-1 $78 forward single #
face $-1 $79 $80 $41 $-1 $81 reversed single #
face $-1 $82 $83 $42 $-1 $84 forward single #
face $-1 $85 $86 $43 $-1 $87 forward single #
face $-1 $88 $89 $33 $-1 $90 reversed single #
loop $-1 $-1 $91 $44 #
plane-surface $-1 0 0 20.186342161636016 0 0 1 1 0 0 forward_v I I I I #
face $-1 $92 $93 $34 $-1 $94 reversed single #
loop $-1 $-1 $95 $45 #
plane-surface $-1 -61.411057722896039 0 13.032317777767659 0 0 1 1 0 0 forward_v I I I I #
face $-1 $96 $97 $35 $-1 $98 reversed single #
loop $-1 $-1 $99 $46 #
plane-surface $-1 -7.3092404255132664 -168.37922728465946 95.538454914193551 -1 0 0 0 -0.78801076186113728 0.61566146476048833 forward_v I I I I #
face $-1 $100 $101 $36 $-1 $102 forward single #
loop $-1 $103 $104 $47 #
cone-surface $-1 -21.826056341070391 -42.989378435918383 10.881530887539208 0 0.78801076186113728 -0.61566146476048833 2 0 0 1 I I 0 1 2 forward I I I I #
face $-1 $105 $106 $37 $-1 $107 forward single #
loop $-1 $108 $109 $48 #
cone-surface $-1 -13.115966791736113 -42.989378435918383 10.881530887539208 0 0.78801076186113728 -0.61566146476048833 2 0 0 1 I I 0 1 2 forward I I I I #
face $-1 $110 $111 $38 $-1 $112 reversed single #
loop $-1 $-1 $113 $49 #
plane-surface $-1 54.101817297382773 -168.37922728465946 95.538454914193551 -1 0 0 0 -0.78801076186113728 0.61566146476048833 forward_v I I I I #
face $-1 $114 $115 $39 $-1 $116 forward single #
loop $-1 $117 $118 $50 #
cone-surface $-1 39.585001381825649 -42.989378435918383 10.881530887539208 0 0.78801076186113728 -0.61566146476048833 2 0 0 1 I I 0 1 2 forward I I I I #
face $-1 $119 $120 $40 $-1 $121 forward single #
loop $-1 $122 $123 $51 #
cone-surface $-1 48.295090931159933 -42.989378435918383 10.881530887539208 0 0.78801076186113728 -0.61566146476048833 2 0 0 1 I I 0 1 2 forward I I I I #
face $-1 $124 $125 $41 $-1 $126 reversed single #
loop $-1 $-1 $127 $52 #
plane-surface $-1 -28.787071779980174 78.284631610476538 194.65596828571054 -1 0 0 0 0.68199836817093118 0.7313536940579346 forward_v I I I I #
face $-1 $128 $129 $42 $-1 $130 forward single #
loop $-1 $131 $132 $53 #
cone-surface $-1 -42.655691248994259 48.145239138226898 17.658175506131606 0 -0.68199836817093118 -0.7313536940579346 1 0 0 1 I I 0 1 1 forward I I I I #
face $-1 $133 $134 $43 $-1 $135 forward single #
loop $-1 $136 $137 $54 #
cone-surface $-1 -34.334519567585808 48.145239138226898 17.658175506131606 0 -0.68199836817093118 -0.7313536940579346 1 0 0 1 I I 0 1 1 forward I I I I #
face $-1 $138 $139 $33 $-1 $140 reversed single #
loop $-1 $-1 $141 $55 #
plane-surface $-1 0 0 -20.186342161636016 0 0 1 1 0 0 forward_v I I I I #
coedge $-1 $142 $143 $144 $145 forward $56 $-1 #
face $-1 $146 $147 $34 $-1 $148 reversed single #
loop $-1 $-1 $149 $58 #
plane-surface $-1 -48.203139036599893 0 16.609329969701836 -1 0 0 0 0 1 forward_v I I I I #
coedge $-1 $150 $151 $152 $153 forward $59 $-1 #
face $-1 $154 $155 $35 $-1 $156 reversed single #
loop $-1 $-1 $157 $61 #
plane-surface $-1 -17.471011566403256 -50.778114385647939 3.6583982841703744 0 -0.78801076186113728 0.61566146476048833 1 0 0 forward_v I I I I #
coedge $-1 $158 $159 $160 $161 reversed $62 $-1 #
face $-1 $-1 $162 $36 $-1 $163 forward single #
loop $-1 $164 $165 $64 #
cone-surface $-1 -21.826056341070391 -40.869154039484059 9.2250300874147264 0 0.78801076186113728 -0.61566146476048833 1 0 0 1 I I -0.70710678118654746 0.70710678118654746 1 forward I I I I #
loop $-1 $-1 $166 $47 #
coedge $-1 $104 $104 $167 $168 reversed $65 $-1 #
face $-1 $-1 $169 $37 $-1 $170 forward single #
loop $-1 $171 $172 $67 #
cone-surface $-1 -13.115966791736113 -40.869154039484059 9.2250300874147264 0 0.78801076186113728 -0.61566146476048833 1 0 0 1 I I -0.70710678118654746 0.70710678118654746 1 forward I I I I #
loop $-1 $-1 $173 $48 #
coedge $-1 $109 $109 $174 $175 reversed $68 $-1 #
face $-1 $176 $177 $38 $-1 $178 reversed single #
loop $-1 $-1 $179 $70 #
plane-surface $-1 43.940046156492784 -50.778114385647939 3.6583982841703744 0 -0.78801076186113728 0.61566146476048833 1 0 0 forward_v I I I I #
coedge $-1 $180 $181 $182 $183 reversed $71 $-1 #
face $-1 $-1 $184 $39 $-1 $185 forward single #
loop $-1 $186 $187 $73 #
cone-surface $-1 39.585001381825649 -40.869154039484059 9.2250300874147264 0 0.78801076186113728 -0.61566146476048833 1 0 0 1 I I -0.70710678118654746 0.70710678118654746 1 forward I I I I #
loop $-1 $-1 $188 $50 #
coedge $-1 $118 $118 $189 $190 reversed $74 $-1 #
face $-1 $-1 $191 $40 $-1 $192 forward single #
loop $-1 $193 $194 $76 #
cone-surface $-1 48.295090931159933 -40.869154039484059 9.2250300874147264 0 0.78801076186113728 -0.61566146476048833 1 0 0 1 I I -0.70710678118654746 0.70710678118654746 1 forward I I I I #
loop $-1 $-1 $195 $51 #
coedge $-1 $123 $123 $196 $197 reversed $77 $-1 #
face $-1 $198 $199 $41 $-1 $200 forward single #
loop $-1 $-1 $201 $79 #
plane-surface $-1 -38.495105408290037 -23.495408680832028 85.510240198341378 0 0.68199836817093118 0.7313536940579346 1 0 0 forward_v I I I I #
coedge $-1 $202 $203 $204 $205 reversed $80 $-1 #
face $-1 $-1 $206 $42 $-1 $207 forward single #
loop $-1 $208 $209 $82 #
cone-surface $-1 -42.655691248994259 47.282474882804628 16.732974135054317 0 -0.68199836817093118 -0.7313536940579346 0.5 0 0 1 I I -0.70710678118654746 0.70710678118654746 0.5 forward I I I I #
loop $-1 $-1 $210 $53 #
coedge $-1 $132 $132 $211 $212 reversed $83 $-1 #
face $-1 $-1 $213 $43 $-1 $214 forward single #
loop $-1 $215 $216 $85 #
cone-surface $-1 -34.334519567585808 47.282474882804628 16.732974135054317 0 -0.68199836817093118 -0.7313536940579346 0.5 0 0 1 I I -0.70710678118654746 0.70710678118654746 0.5 forward I I I I #
loop $-1 $-1 $217 $54 #
coedge $-1 $137 $137 $218 $219 reversed $86 $-1 #
face $-1 $220 $221 $33 $-1 $222 reversed single #
loop $-1 $-1 $223 $88 #
plane-surface $-1 0 -50.778114385647946 0 0 1 0 0 0 1 forward_v I I I I #
coedge $-1 $224 $225 $226 $227 forward $89 $-1 #
coedge $-1 $228 $91 $229 $230 forward $56 $-1 #
coedge $-1 $91 $228 $231 $232 forward $56 $-1 #
coedge $-1 $233 $234 $91 $145 reversed $235 $-1 #
edge $-1 $236 -50.778114385647946 $237 50.778114385647946 $144 $238 forward 7 unknown #
face $-1 $239 $240 $34 $-1 $241 reversed single #
loop $-1 $-1 $242 $92 #
plane-surface $-1 0 50.778114385647946 0 0 -1 0 0 0 -1 forward_v I I I I #
coedge $-1 $152 $243 $244 $245 reversed $93 $-1 #
coedge $-1 $246 $95 $247 $248 reversed $59 $-1 #
coedge $-1 $95 $246 $249 $250 reversed $59 $-1 #
coedge $-1 $251 $149 $95 $153 reversed $93 $-1 #
edge $-1 $252 -50.778114385647946 $253 50.778114385647946 $152 $254 forward 7 unknown #
face $-1 $255 $256 $35 $-1 $257 reversed single #
loop $-1 $-1 $258 $96 #
plane-surface $-1 -27.632782707293245 -168.37922728465946 95.538454914193551 1 0 0 0 0.78801076186113728 -0.61566146476048833 forward_v I I I I #
coedge $-1 $259 $260 $261 $262 reversed $97 $-1 #
coedge $-1 $159 $99 $263 $264 reversed $62 $-1 #
coedge $-1 $99 $158 $259 $265 reversed $62 $-1 #
coedge $-1 $261 $266 $99 $161 forward $267 $-1 #
edge $-1 $268 33.411499256681786 $269 46.324543886994576 $160 $270 forward 7 unknown #
loop $-1 $-1 $167 $100 #
plane-surface $-1 -17.471011566403256 -50.778114385647939 3.6583982841703744 0 -0.78801076186113728 0.61566146476048833 1 0 0 forward_v I I I I #
loop $-1 $-1 $271 $64 #
coedge $-1 $165 $165 $166 $272 reversed $101 $-1 #
coedge $-1 $166 $166 $165 $272 forward $103 $-1 #
coedge $-1 $167 $167 $104 $168 forward $162 $-1 #
edge $-1 $273 2.7119901648706774e-015 $273 6.2831853071796031 $167 $274 forward 7 unknown #
loop $-1 $-1 $174 $105 #
plane-surface $-1 -17.471011566403256 -50.778114385647939 3.6583982841703744 0 -0.78801076186113728 0.61566146476048833 1 0 0 forward_v I I I I #
loop $-1 $-1 $275 $67 #
coedge $-1 $172 $172 $173 $276 reversed $106 $-1 #
coedge $-1 $173 $173 $172 $276 forward $108 $-1 #
coedge $-1 $174 $174 $109 $175 forward $169 $-1 #
edge $-1 $277 2.7119901648706774e-015 $277 6.2831853071796031 $174 $278 forward 7 unknown #
face $-1 $279 $280 $38 $-1 $281 reversed single #
loop $-1 $-1 $282 $110 #
plane-surface $-1 33.778275015602794 -168.37922728465946 95.538454914193551 1 0 0 0 0.78801076186113728 -0.61566146476048833 forward_v I I I I #
coedge $-1 $283 $284 $285 $286 reversed $111 $-1 #
coedge $-1 $181 $113 $287 $288 reversed $71 $-1 #
coedge $-1 $113 $180 $283 $289 reversed $71 $-1 #
coedge $-1 $285 $290 $113 $183 forward $291 $-1 #
edge $-1 $292 33.411499256681786 $293 46.324543886994576 $182 $294 forward 7 unknown #
loop $-1 $-1 $189 $114 #
plane-surface $-1 43.940046156492784 -50.778114385647939 3.6583982841703744 0 -0.78801076186113728 0.61566146476048833 1 0 0 forward_v I I I I #
loop $-1 $-1 $295 $73 #
coedge $-1 $187 $187 $188 $296 reversed $115 $-1 #
coedge $-1 $188 $188 $187 $296 forward $117 $-1 #
coedge $-1 $189 $189 $118 $190 forward $184 $-1 #
edge $-1 $297 2.7119901648706774e-015 $297 6.2831853071796031 $189 $298 forward 7 unknown #
loop $-1 $-1 $196 $119 #
plane-surface $-1 43.940046156492784 -50.778114385647939 3.6583982841703744 0 -0.78801076186113728 0.61566146476048833 1 0 0 forward_v I I I I #
loop $-1 $-1 $299 $76 #
coedge $-1 $194 $194 $195 $300 reversed $120 $-1 #
coedge $-1 $195 $195 $194 $300 forward $122 $-1 #
coedge $-1 $196 $196 $123 $197 forward $191 $-1 #
edge $-1 $301 2.7119901648706774e-015 $301 6.2831853071796031 $196 $302 forward 7 unknown #
face $-1 $303 $304 $41 $-1 $305 forward single #
loop $-1 $-1 $306 $124 #
plane-surface $-1 0 0 20.186342161636016 0 0 1 1 0 0 forward_v I I I I #
coedge $-1 $307 $308 $309 $310 reversed $125 $-1 #
coedge $-1 $203 $127 $311 $312 reversed $80 $-1 #
coedge $-1 $127 $202 $307 $313 reversed $80 $-1 #
coedge $-1 $309 $314 $127 $205 forward $315 $-1 #
edge $-1 $316 77.141641981219252 $317 81.078926244131495 $204 $318 forward 7 unknown #
loop $-1 $-1 $211 $128 #
plane-surface $-1 -38.495105408290037 -23.495408680832028 85.510240198341378 0 0.68199836817093118 0.7313536940579346 1 0 0 forward_v I I I I #
loop $-1 $-1 $319 $82 #
coedge $-1 $209 $209 $210 $320 reversed $129 $-1 #
coedge $-1 $210 $210 $209 $320 forward $131 $-1 #
coedge $-1 $211 $211 $132 $212 forward $206 $-1 #
edge $-1 $321 1.0520720484024827e-015 $321 6.2831853071796013 $211 $322 forward 7 unknown #
loop $-1 $-1 $218 $133 #
plane-surface $-1 -38.495105408290037 -23.495408680832028 85.510240198341378 0 0.68199836817093118 0.7313536940579346 1 0 0 forward_v I I I I #
loop $-1 $-1 $323 $85 #
coedge $-1 $216 $216 $217 $324 reversed $134 $-1 #
coedge $-1 $217 $217 $216 $324 forward $136 $-1 #
coedge $-1 $218 $218 $137 $219 forward $213 $-1 #
edge $-1 $325 1.0520720484024827e-015 $325 6.2831853071796013 $218 $326 forward 7 unknown #
face $-1 $327 $328 $33 $-1 $329 reversed single #
loop $-1 $-1 $330 $138 #
plane-surface $-1 -74.618976409192186 0 0 1 0 0 0 0 -1 forward_v I I I I #
coedge $-1 $331 $231 $332 $333 forward $139 $-1 #
coedge $-1 $334 $141 $331 $335 forward $89 $-1 #
coedge $-1 $141 $334 $336 $337 forward $89 $-1 #
coedge $-1 $234 $233 $141 $227 reversed $235 $-1 #
edge $-1 $338 -50.778114385647946 $339 50.778114385647946 $226 $340 forward 7 unknown #
coedge $-1 $143 $142 $341 $342 forward $56 $-1 #
coedge $-1 $343 $344 $142 $230 reversed $328 $-1 #
edge $-1 $237 -74.618976409192186 $345 74.618976409192186 $229 $346 forward 7 unknown #
coedge $-1 $223 $347 $143 $232 reversed $139 $-1 #
edge $-1 $348 -74.618976409192186 $236 74.618976409192186 $231 $349 forward 7 unknown #
coedge $-1 $226 $144 $347 $350 forward $235 $-1 #
coedge $-1 $144 $226 $343 $351 reversed $235 $-1 #
loop $-1 $-1 $233 $327 #
vertex $-1 $145 $352 #
vertex $-1 $145 $353 #
straight-curve $-1 74.618976409192186 0 20.186342161636016 0 1 0 I I #
face $-1 $354 $355 $34 $-1 $356 forward single #
loop $-1 $-1 $357 $146 #
plane-surface $-1 -74.618976409192186 0 0 1 0 0 0 0 -1 forward_v I I I I #
coedge $-1 $249 $358 $251 $359 forward $147 $-1 #
coedge $-1 $149 $251 $360 $361 reversed $93 $-1 #
coedge $-1 $362 $247 $149 $245 forward $363 $-1 #
edge $-1 $253 4.7276527929167411 $364 11.881677176785095 $244 $365 forward 7 unknown #
coedge $-1 $151 $150 $357 $366 reversed $59 $-1 #
coedge $-1 $244 $367 $150 $248 forward $363 $-1 #
edge $-1 $368 -43.91344754774417 $253 -17.497610175151873 $247 $369 forward 7 unknown #
coedge $-1 $370 $242 $151 $250 forward $147 $-1 #
edge $-1 $252 17.497610175151873 $371 43.91344754774417 $249 $372 forward 7 unknown #
coedge $-1 $243 $152 $242 $359 reversed $93 $-1 #
vertex $-1 $250 $373 #
vertex $-1 $248 $374 #
straight-curve $-1 -48.203139036599893 0 13.032317777767659 0 -1 0 I I #
face $-1 $-1 $267 $35 $-1 $375 forward single #
loop $-1 $-1 $376 $154 #
plane-surface $-1 0 -50.778114385647946 0 0 1 0 0 0 1 forward_v I I I I #
coedge $-1 $377 $378 $379 $380 reversed $155 $-1 #
coedge $-1 $381 $157 $159 $265 forward $97 $-1 #
coedge $-1 $157 $381 $377 $382 forward $97 $-1 #
coedge $-1 $379 $160 $157 $262 forward $267 $-1 #
edge $-1 $269 -1.4262653576883615 $383 18.897276924091617 $261 $384 forward 7 unknown #
coedge $-1 $385 $386 $158 $264 forward $256 $-1 #
edge $-1 $387 -44.110829172926408 $268 -27.582885295460759 $263 $388 forward 7 unknown #
edge $-1 $269 -20.974261618495746 $387 1.1373479346495045e-014 $159 $389 forward 7 unknown #
coedge $-1 $160 $379 $385 $390 forward $267 $-1 #
loop $-1 $-1 $379 $255 #
vertex $-1 $264 $391 #
vertex $-1 $161 $392 #
straight-curve $-1 -7.3092404255132664 -84.189613642329732 20.18634216163602 0 1 0 I I #
coedge $-1 $271 $271 $-1 $393 reversed $164 $-1 #
edge $-1 $394 0 $394 6.2831853071796004 $165 $395 forward 7 unknown #
vertex $-1 $168 $396 #
ellipse-curve $-1 -21.826056341070391 -44.321592070491555 11.92237022290319 0 -0.78801076186113728 0.61566146476048833 2 0 0 1 I I #
coedge $-1 $275 $275 $-1 $397 reversed $171 $-1 #
edge $-1 $398 0 $398 6.2831853071796004 $172 $399 forward 7 unknown #
vertex $-1 $175 $400 #
ellipse-curve $-1 -13.115966791736113 -44.321592070491555 11.92237022290319 0 -0.78801076186113728 0.61566146476048833 2 0 0 1 I I #
face $-1 $-1 $291 $38 $-1 $401 forward single #
loop $-1 $-1 $402 $176 #
plane-surface $-1 0 -50.778114385647946 0 0 1 0 0 0 1 forward_v I I I I #
coedge $-1 $403 $404 $405 $406 reversed $177 $-1 #
coedge $-1 $407 $179 $181 $289 forward $111 $-1 #
coedge $-1 $179 $407 $403 $408 forward $111 $-1 #
coedge $-1 $405 $182 $179 $286 forward $291 $-1 #
edge $-1 $293 -32.131794219136381 $409 -11.808251937356403 $285 $410 forward 7 unknown #
coedge $-1 $411 $412 $180 $288 forward $280 $-1 #
edge $-1 $413 -44.110829172926408 $292 -27.582885295460759 $287 $414 forward 7 unknown #
edge $-1 $293 -20.974261618495746 $413 1.1373479346495045e-014 $181 $415 forward 7 unknown #
coedge $-1 $182 $405 $411 $416 forward $291 $-1 #
loop $-1 $-1 $405 $279 #
vertex $-1 $288 $417 #
vertex $-1 $183 $418 #
straight-curve $-1 54.101817297382773 -84.189613642329732 20.18634216163602 0 1 0 I I #
coedge $-1 $295 $295 $-1 $419 reversed $186 $-1 #
edge $-1 $420 0 $420 6.2831853071796004 $187 $421 forward 7 unknown #
vertex $-1 $190 $422 #
ellipse-curve $-1 39.585001381825649 -44.321592070491555 11.92237022290319 0 -0.78801076186113728 0.61566146476048833 2 0 0 1 I I #
coedge $-1 $299 $299 $-1 $423 reversed $193 $-1 #
edge $-1 $424 0 $424 6.2831853071796004 $194 $425 forward 7 unknown #
vertex $-1 $197 $426 #
ellipse-curve $-1 48.295090931159933 -44.321592070491555 11.92237022290319 0 -0.78801076186113728 0.61566146476048833 2 0 0 1 I I #
face $-1 $-1 $315 $41 $-1 $427 reversed single #
loop $-1 $-1 $428 $198 #
plane-surface $-1 -48.203139036599893 0 16.609329969701836 -1 0 0 0 0 1 forward_v I I I I #
coedge $-1 $311 $429 $430 $431 forward $199 $-1 #
coedge $-1 $430 $201 $203 $313 forward $125 $-1 #
coedge $-1 $201 $430 $428 $432 reversed $125 $-1 #
coedge $-1 $433 $204 $201 $310 forward $315 $-1 #
edge $-1 $317 9.5395190758351553 $434 28.955586332454875 $309 $435 forward 7 unknown #
coedge $-1 $436 $306 $202 $312 forward $199 $-1 #
edge $-1 $437 7.4135782282411498 $316 11.635798580409677 $311 $438 forward 7 unknown #
edge $-1 $317 -101.55622877129593 $437 -95.783070877279641 $203 $439 forward 7 unknown #
coedge $-1 $204 $433 $436 $440 reversed $315 $-1 #
loop $-1 $-1 $309 $303 #
vertex $-1 $440 $441 #
vertex $-1 $205 $442 #
straight-curve $-1 -28.787071779980174 50.778114385647946 97.327984142855271 0 0 -1 I I #
coedge $-1 $319 $319 $-1 $443 reversed $208 $-1 #
edge $-1 $444 0 $444 6.2831853071796004 $209 $445 forward 7 unknown #
vertex $-1 $212 $446 #
ellipse-curve $-1 -42.655691248994259 48.667004209563679 18.217700030179905 0 0.68199836817093118 0.7313536940579346 1 0 0 1 I I #
coedge $-1 $323 $323 $-1 $447 reversed $215 $-1 #
edge $-1 $448 0 $448 6.2831853071796004 $216 $449 forward 7 unknown #
vertex $-1 $219 $450 #
ellipse-curve $-1 -34.334519567585808 48.667004209563679 18.217700030179905 0 0.68199836817093118 0.7313536940579346 1 0 0 1 I I #
face $-1 $-1 $235 $33 $-1 $451 reversed single #
loop $-1 $-1 $343 $220 #
plane-surface $-1 0 50.778114385647946 0 0 -1 0 0 0 -1 forward_v I I I I #
coedge $-1 $452 $341 $344 $453 forward $221 $-1 #
coedge $-1 $347 $223 $224 $335 reversed $139 $-1 #
coedge $-1 $341 $452 $223 $333 reversed $221 $-1 #
edge $-1 $348 -20.186342161636016 $454 20.186342161636016 $332 $455 forward 7 unknown #
coedge $-1 $225 $224 $452 $456 forward $89 $-1 #
edge $-1 $339 -74.618976409192186 $454 74.618976409192186 $331 $457 forward 7 unknown #
coedge $-1 $344 $343 $225 $337 reversed $328 $-1 #
edge $-1 $458 -74.618976409192186 $338 74.618976409192186 $336 $459 forward 7 unknown #
vertex $-1 $227 $460 #
vertex $-1 $350 $461 #
straight-curve $-1 74.618976409192186 0 -20.186342161636016 0 -1 0 I I #
coedge $-1 $330 $332 $228 $342 reversed $221 $-1 #
edge $-1 $345 -50.778114385647946 $348 50.778114385647946 $341 $462 forward 7 unknown #
coedge $-1 $336 $229 $234 $351 forward $328 $-1 #
coedge $-1 $229 $336 $330 $453 reversed $328 $-1 #
vertex $-1 $230 $463 #
straight-curve $-1 0 50.778114385647946 20.186342161636016 -1 0 0 I I #
coedge $-1 $231 $331 $233 $350 reversed $139 $-1 #
vertex $-1 $342 $464 #
straight-curve $-1 0 -50.778114385647946 20.186342161636016 1 0 0 I I #
edge $-1 $236 -20.186342161636016 $339 20.186342161636016 $233 $465 forward 7 unknown #
edge $-1 $237 -20.186342161636016 $338 20.186342161636016 $234 $466 forward 7 unknown #
point $-1 74.618976409192186 -50.778114385647946 20.186342161636016 #
point $-1 74.618976409192186 50.778114385647946 20.186342161636016 #
face $-1 $-1 $363 $34 $-1 $467 reversed single #
loop $-1 $-1 $360 $239 #
plane-surface $-1 0 0 20.186342161636016 0 0 1 1 0 0 forward_v I I I I #
coedge $-1 $468 $469 $246 $366 forward $240 $-1 #
coedge $-1 $242 $370 $470 $471 reversed $147 $-1 #
edge $-1 $472 -11.881677176785095 $252 -4.7276527929167411 $242 $473 forward 7 unknown #
coedge $-1 $470 $474 $243 $361 forward $355 $-1 #
edge $-1 $364 -50.778114385647946 $472 50.778114385647946 $360 $475 forward 7 unknown #
coedge $-1 $367 $244 $474 $476 reversed $363 $-1 #
loop $-1 $-1 $244 $354 #
vertex $-1 $245 $477 #
straight-curve $-1 -48.203139036599893 -50.778114385647946 8.304664984850918 0 0 1 I I #
edge $-1 $371 -50.778114385647946 $368 50.778114385647946 $357 $478 forward 7 unknown #
coedge $-1 $247 $362 $468 $479 forward $363 $-1 #
vertex $-1 $366 $480 #
straight-curve $-1 -30.70552886144802 -50.778114385647946 13.032317777767659 1 0 0 I I #
coedge $-1 $358 $249 $469 $481 reversed $147 $-1 #
vertex $-1 $366 $482 #
straight-curve $-1 -30.70552886144802 50.778114385647946 13.032317777767659 -1 0 0 I I #
point $-1 -48.203139036599893 50.778114385647946 13.032317777767659 #
point $-1 -48.203139036599893 -50.778114385647946 13.032317777767659 #
plane-surface $-1 0 0 20.186342161636016 0 0 1 1 0 0 forward_v I I I I #
coedge $-1 $386 $385 $378 $483 forward $256 $-1 #
coedge $-1 $378 $258 $260 $382 reversed $155 $-1 #
coedge $-1 $258 $377 $376 $483 reversed $155 $-1 #
coedge $-1 $266 $261 $258 $380 forward $267 $-1 #
edge $-1 $383 -46.324543886994576 $484 -33.411499256681786 $379 $485 forward 7 unknown #
coedge $-1 $260 $259 $386 $486 reversed $97 $-1 #
edge $-1 $487 -1.1373479346495045e-014 $383 20.974261618495746 $377 $488 forward 7 unknown #
vertex $-1 $262 $489 #
straight-curve $-1 -8.7355057832016278 -37.865069755335156 20.186342161636016 -1 0 0 I I #
coedge $-1 $376 $263 $266 $390 reversed $256 $-1 #
coedge $-1 $263 $376 $381 $486 forward $256 $-1 #
vertex $-1 $264 $490 #
straight-curve $-1 -7.3092404255132664 -50.778114385647946 47.769227457096775 0 0 1 I I #
straight-curve $-1 -7.3092404255132664 -50.778114385647939 3.6583982841703744 0 -0.61566146476048833 -0.78801076186113728 I I #
edge $-1 $484 -27.632782707293245 $268 -7.3092404255132664 $385 $491 forward 7 unknown #
point $-1 -7.3092404255132664 -50.778114385647946 20.186342161636016 #
point $-1 -7.3092404255132664 -37.865069755335156 20.186342161636016 #
edge $-1 $492 1 $492 0 $271 $-1 forward 7 unknown #
vertex $-1 $272 $493 #
ellipse-curve $-1 -21.826056341070391 -41.657164801345196 9.8406915521752154 0 -0.78801076186113728 0.61566146476048833 2 0 0 1 I I #
point $-1 -19.826056341070391 -44.321592070491562 11.922370222903202 #
edge $-1 $494 1 $494 0 $275 $-1 forward 7 unknown #
vertex $-1 $276 $495 #
ellipse-curve $-1 -13.115966791736113 -41.657164801345196 9.8406915521752154 0 -0.78801076186113728 0.61566146476048833 2 0 0 1 I I #
point $-1 -11.115966791736113 -44.321592070491562 11.922370222903202 #
plane-surface $-1 0 0 20.186342161636016 0 0 1 1 0 0 forward_v I I I I #
coedge $-1 $412 $411 $404 $496 forward $280 $-1 #
coedge $-1 $404 $282 $284 $408 reversed $177 $-1 #
coedge $-1 $282 $403 $402 $496 reversed $177 $-1 #
coedge $-1 $290 $285 $282 $406 forward $291 $-1 #
edge $-1 $409 -46.324543886994576 $497 -33.411499256681786 $405 $498 forward 7 unknown #
coedge $-1 $284 $283 $412 $499 reversed $111 $-1 #
edge $-1 $500 -1.1373479346495045e-014 $409 20.974261618495746 $403 $501 forward 7 unknown #
vertex $-1 $286 $502 #
straight-curve $-1 21.970023078246392 -37.865069755335156 20.186342161636016 -1 0 0 I I #
coedge $-1 $402 $287 $290 $416 reversed $280 $-1 #
coedge $-1 $287 $402 $407 $499 forward $280 $-1 #
vertex $-1 $288 $503 #
straight-curve $-1 54.101817297382773 -50.778114385647946 47.769227457096775 0 0 1 I I #
straight-curve $-1 54.101817297382773 -50.778114385647939 3.6583982841703744 0 -0.61566146476048833 -0.78801076186113728 I I #
edge $-1 $497 33.778275015602794 $292 54.101817297382773 $411 $504 forward 7 unknown #
point $-1 54.101817297382773 -50.778114385647946 20.186342161636016 #
point $-1 54.101817297382773 -37.865069755335156 20.186342161636016 #
edge $-1 $505 1 $505 0 $295 $-1 forward 7 unknown #
vertex $-1 $296 $506 #
ellipse-curve $-1 39.585001381825649 -41.657164801345196 9.8406915521752154 0 -0.78801076186113728 0.61566146476048833 2 0 0 1 I I #
point $-1 41.585001381825649 -44.321592070491562 11.922370222903202 #
edge $-1 $507 1 $507 0 $299 $-1 forward 7 unknown #
vertex $-1 $300 $508 #
ellipse-curve $-1 48.295090931159933 -41.657164801345196 9.8406915521752154 0 -0.78801076186113728 0.61566146476048833 2 0 0 1 I I #
point $-1 50.295090931159933 -44.321592070491562 11.922370222903202 #
plane-surface $-1 0 50.778114385647946 0 0 -1 0 0 0 -1 forward_v I I I I #
coedge $-1 $509 $510 $308 $432 forward $304 $-1 #
coedge $-1 $306 $436 $509 $511 forward $199 $-1 #
coedge $-1 $308 $307 $306 $431 reversed $125 $-1 #
edge $-1 $512 -28.955586332454882 $437 -9.5395190758351553 $306 $513 forward 7 unknown #
edge $-1 $434 -69.469347634520233 $512 -63.696189740503968 $428 $514 forward 7 unknown #
coedge $-1 $314 $309 $510 $515 forward $315 $-1 #
vertex $-1 $515 $516 #
straight-curve $-1 -19.247552704145019 50.778114385647939 16.249057898723784 -1 0 0 I I #
coedge $-1 $429 $311 $314 $440 forward $199 $-1 #
vertex $-1 $312 $517 #
straight-curve $-1 -28.787071779980174 39.142315805238269 20.18634216163602 0 1 0 I I #
straight-curve $-1 -28.787071779980174 -23.495408680832028 85.510240198341378 0 -0.7313536940579346 0.68199836817093118 I I #
edge $-1 $316 28.787071779980174 $518 48.203139036599893 $314 $519 forward 7 unknown #
point $-1 -28.787071779980174 50.778114385647946 20.186342161636016 #
point $-1 -28.787071779980174 50.778114385647953 16.249057898723777 #
edge $-1 $520 1 $520 0 $319 $-1 forward 7 unknown #
vertex $-1 $320 $521 #
ellipse-curve $-1 -42.655691248994259 47.623474066890097 17.098650982083285 0 0.68199836817093118 0.7313536940579346 1 0 0 1 I I #
point $-1 -41.655691248994259 48.6670042095637 18.217700030179927 #
edge $-1 $522 1 $522 0 $323 $-1 forward 7 unknown #
vertex $-1 $324 $523 #
ellipse-curve $-1 -34.334519567585808 47.623474066890097 17.098650982083285 0 0.68199836817093118 0.7313536940579346 1 0 0 1 I I #
point $-1 -33.334519567585808 48.6670042095637 18.217700030179927 #
plane-surface $-1 74.618976409192186 0 0 -1 0 0 0 0 1 forward_v I I I I #
coedge $-1 $332 $330 $334 $456 reversed $221 $-1 #
edge $-1 $345 -20.186342161636016 $458 20.186342161636016 $344 $524 forward 7 unknown #
vertex $-1 $456 $525 #
straight-curve $-1 -74.618976409192186 -50.778114385647946 0 0 0 -1 I I #
edge $-1 $454 -50.778114385647946 $458 50.778114385647946 $452 $526 forward 7 unknown #
straight-curve $-1 0 -50.778114385647946 -20.186342161636016 -1 0 0 I I #
vertex $-1 $337 $527 #
straight-curve $-1 0 50.778114385647946 -20.186342161636016 1 0 0 I I #
point $-1 74.618976409192186 50.778114385647946 -20.186342161636016 #
point $-1 74.618976409192186 -50.778114385647946 -20.186342161636016 #
straight-curve $-1 -74.618976409192186 0 20.186342161636016 0 -1 0 I I #
point $-1 -74.618976409192186 50.778114385647946 20.186342161636016 #
point $-1 -74.618976409192186 -50.778114385647946 20.186342161636016 #
straight-curve $-1 74.618976409192186 -50.778114385647946 0 0 0 -1 I I #
straight-curve $-1 74.618976409192186 50.778114385647946 0 0 0 -1 I I #
plane-surface $-1 0 -50.778114385647946 0 0 1 0 0 0 1 forward_v I I I I #
coedge $-1 $528 $357 $367 $479 reversed $240 $-1 #
coedge $-1 $357 $528 $370 $481 forward $240 $-1 #
coedge $-1 $529 $360 $358 $471 forward $355 $-1 #
edge $-1 $472 48.203139036599893 $530 74.618976409192186 $358 $531 forward 7 unknown #
vertex $-1 $471 $532 #
straight-curve $-1 -48.203139036599893 50.778114385647946 8.304664984850918 0 0 -1 I I #
coedge $-1 $360 $529 $362 $476 forward $355 $-1 #
straight-curve $-1 -48.203139036599893 0 20.186342161636016 0 1 0 I I #
edge $-1 $533 -74.618976409192186 $364 -48.203139036599893 $362 $534 forward 7 unknown #
point $-1 -48.203139036599893 -50.778114385647946 20.186342161636013 #
straight-curve $-1 -74.618976409192186 0 13.032317777767659 0 -1 0 I I #
edge $-1 $533 -20.186342161636016 $368 -13.032317777767659 $468 $535 forward 7 unknown #
point $-1 -74.618976409192186 -50.778114385647946 13.032317777767659 #
edge $-1 $530 -20.186342161636016 $371 -13.032317777767659 $370 $536 forward 7 unknown #
point $-1 -74.618976409192186 50.778114385647946 13.032317777767659 #
edge $-1 $484 27.582885295460759 $487 44.110829172926408 $376 $537 forward 7 unknown #
vertex $-1 $390 $538 #
straight-curve $-1 -27.632782707293245 -84.189613642329732 20.18634216163602 0 -1 0 I I #
edge $-1 $487 -18.897276924091617 $387 1.4262653576883615 $386 $539 forward 7 unknown #
vertex $-1 $486 $540 #
straight-curve $-1 -27.632782707293245 -50.778114385647939 3.6583982841703744 0 0.61566146476048833 0.78801076186113728 I I #
point $-1 -27.632782707293245 -37.865069755335156 20.186342161636016 #
point $-1 -7.3092404255132664 -50.778114385647946 3.6583982841703655 #
straight-curve $-1 0 -50.778114385647946 20.186342161636016 1 0 0 I I #
vertex $-1 $393 $541 #
point $-1 -19.826056341070391 -41.657164801345196 9.8406915521752154 #
vertex $-1 $397 $542 #
point $-1 -11.115966791736113 -41.657164801345196 9.8406915521752154 #
edge $-1 $497 27.582885295460759 $500 44.110829172926408 $402 $543 forward 7 unknown #
vertex $-1 $416 $544 #
straight-curve $-1 33.778275015602794 -84.189613642329732 20.18634216163602 0 -1 0 I I #
edge $-1 $500 11.808251937356403 $413 32.131794219136381 $412 $545 forward 7 unknown #
vertex $-1 $499 $546 #
straight-curve $-1 33.778275015602794 -50.778114385647939 3.6583982841703744 0 0.61566146476048833 0.78801076186113728 I I #
point $-1 33.778275015602794 -37.865069755335156 20.186342161636016 #
point $-1 54.101817297382773 -50.778114385647946 3.6583982841703655 #
straight-curve $-1 0 -50.778114385647946 20.186342161636016 1 0 0 I I #
vertex $-1 $419 $547 #
point $-1 41.585001381825649 -41.657164801345196 9.8406915521752154 #
vertex $-1 $423 $548 #
point $-1 50.295090931159933 -41.657164801345196 9.8406915521752154 #
coedge $-1 $510 $428 $429 $511 reversed $304 $-1 #
coedge $-1 $428 $509 $433 $515 reversed $304 $-1 #
edge $-1 $518 -50.778114385647946 $512 -46.555894033479419 $429 $549 forward 7 unknown #
vertex $-1 $432 $550 #
straight-curve $-1 -19.247552704145019 46.555894033479419 20.18634216163602 1 0 0 I I #
straight-curve $-1 -48.203139036599893 -0.028549630653275315 63.627039623365732 0 -0.7313536940579346 0.68199836817093118 I I #
edge $-1 $434 7.9443929138728731 $518 11.881677176785095 $433 $551 forward 7 unknown #
point $-1 -48.203139036599893 50.778114385647946 16.249057898723791 #
point $-1 -28.787071779980174 46.555894033479419 20.18634216163602 #
vertex $-1 $511 $552 #
straight-curve $-1 0 50.778114385647946 20.186342161636016 -1 0 0 I I #
vertex $-1 $443 $553 #
point $-1 -41.655691248994259 47.623474066890097 17.098650982083285 #
vertex $-1 $447 $554 #
point $-1 -33.334519567585808 47.623474066890097 17.098650982083285 #
straight-curve $-1 -74.618976409192186 50.778114385647946 0 0 0 -1 I I #
point $-1 -74.618976409192186 -50.778114385647946 -20.186342161636016 #
straight-curve $-1 -74.618976409192186 0 -20.186342161636016 0 1 0 I I #
point $-1 -74.618976409192186 50.778114385647946 -20.186342161636016 #
coedge $-1 $469 $468 $529 $555 reversed $240 $-1 #
coedge $-1 $474 $470 $528 $555 forward $355 $-1 #
vertex $-1 $471 $556 #
straight-curve $-1 0 50.778114385647946 20.186342161636016 -1 0 0 I I #
point $-1 -48.203139036599893 50.778114385647946 20.186342161636013 #
vertex $-1 $555 $557 #
straight-curve $-1 0 -50.778114385647946 20.186342161636016 1 0 0 I I #
straight-curve $-1 -74.618976409192186 -50.778114385647946 0 0 0 -1 I I #
straight-curve $-1 -74.618976409192186 50.778114385647946 0 0 0 -1 I I #
straight-curve $-1 -27.632782707293245 -50.778114385647946 47.769227457096775 0 0 -1 I I #
point $-1 -27.632782707293245 -50.778114385647946 20.186342161636016 #
straight-curve $-1 -8.7355057832016278 -50.778114385647946 3.6583982841703624 1 0 0 I I #
point $-1 -27.632782707293245 -50.778114385647946 3.6583982841703655 #
point $-1 -21.826056341070391 -40.081143277622921 8.6093686226542374 #
point $-1 -13.115966791736113 -40.081143277622921 8.6093686226542374 #
straight-curve $-1 33.778275015602794 -50.778114385647946 47.769227457096775 0 0 -1 I I #
point $-1 33.778275015602794 -50.778114385647946 20.186342161636016 #
straight-curve $-1 21.970023078246392 -50.778114385647946 3.6583982841703624 1 0 0 I I #
point $-1 33.778275015602794 -50.778114385647946 3.6583982841703655 #
point $-1 39.585001381825649 -40.081143277622921 8.6093686226542374 #
point $-1 48.295090931159933 -40.081143277622921 8.6093686226542374 #
straight-curve $-1 -48.203139036599893 0 20.186342161636016 0 -1 0 I I #
point $-1 -48.2031390365999 46.555894033479419 20.18634216163602 #
straight-curve $-1 -48.203139036599893 50.778114385647946 8.304664984850918 0 0 1 I I #
point $-1 -48.203139036599893 50.778114385647946 20.186342161636013 #
point $-1 -42.655691248994259 46.941475698719159 16.367297288025348 #
point $-1 -34.334519567585808 46.941475698719159 16.367297288025348 #
edge $-1 $530 -50.778114385647946 $533 50.778114385647946 $528 $558 forward 7 unknown #
point $-1 -74.618976409192186 50.778114385647946 20.186342161636016 #
point $-1 -74.618976409192186 -50.778114385647946 20.186342161636016 #
straight-curve $-1 -74.618976409192186 0 20.186342161636016 0 -1 0 I I #
End-of-ACIS-data 