600 0 4 0           
106 GICL ACIS Healer - Source: /gicl/data5/repository/Drexel/CICIRELLO-THESISDATA/Part1000.smdg.feat.sat - 6 0 18 ACIS 6.0.3 Solaris 24 Fri Apr 12 10:11:08 2002 
1 9.999999999999999547e-07 1.000000000000000036e-10 
body $-1 $4 $-1 $-1 #
body $-1 $5 $-1 $-1 #
body $-1 $6 $-1 $-1 #
body $-1 $7 $-1 $-1 #
lump $-1 $-1 $8 $0 #
lump $-1 $-1 $9 $1 #
lump $-1 $-1 $10 $2 #
lump $-1 $-1 $11 $3 #
shell $-1 $-1 $-1 $12 $-1 $4 #
shell $-1 $-1 $-1 $13 $-1 $5 #
shell $-1 $-1 $-1 $14 $-1 $6 #
shell $-1 $-1 $-1 $15 $-1 $7 #
face $-1 $16 $17 $8 $-1 $18 forward single #
face $-1 $19 $20 $9 $-1 $21 forward single #
face $-1 $22 $23 $10 $-1 $24 forward single #
face $-1 $25 $26 $11 $-1 $27 forward single #
face $-1 $28 $29 $8 $-1 $30 reversed single #
loop $-1 $-1 $31 $12 #
plane-surface $-1 46.69820245979186524 24.11042145310894824 10.32450232176131166 0 0 1 1 0 0 forward_v I I I I #
face $-1 $32 $33 $9 $-1 $34 reversed single #
loop $-1 $-1 $35 $13 #
plane-surface $-1 46.69820245979186524 3.333208559330689269 10.32450232176131166 0 0 1 1 0 0 forward_v I I I I #
face $-1 $36 $37 $10 $-1 $38 reversed single #
loop $-1 $-1 $39 $14 #
plane-surface $-1 75.32307535283808875 173.5742177919536289 153.9304086654133812 0 0.8191520524228198541 0.5735764247347356903 1 0 0 forward_v I I I I #
face $-1 $40 $41 $11 $-1 $42 forward single #
loop $-1 $43 $44 $15 #
cone-surface $-1 75.32307535283808875 46.58264486594089249 8.404131293450804563 0 -0.8191520524228198541 -0.5735764247347356903 0.5 0 0 1 I I 0 1 0.5 forward I I I I #
face $-1 $45 $46 $8 $-1 $47 reversed single #
loop $-1 $-1 $48 $16 #
plane-surface $-1 46.69820245979186524 24.11042145310894824 0 0 0 1 1 0 0 forward_v I I I I #
coedge $-1 $49 $50 $51 $52 forward $17 $-1 #
face $-1 $53 $54 $9 $-1 $55 reversed single #
loop $-1 $-1 $56 $19 #
plane-surface $-1 46.69820245979186524 3.333208559330689269 7.253114911200907677 0 0 1 1 0 0 forward_v I I I I #
coedge $-1 $57 $58 $59 $60 forward $20 $-1 #
face $-1 $61 $62 $10 $-1 $63 reversed single #
loop $-1 $-1 $64 $22 #
plane-surface $-1 75.32307535283808875 20.5625042343740887 46.79045663170834501 0 0.8191520524228198541 0.5735764247347356903 1 0 0 forward_v I I I I #
coedge $-1 $65 $66 $67 $68 forward $23 $-1 #
face $-1 $-1 $69 $11 $-1 $70 forward single #
loop $-1 $-1 $71 $25 #
plane-surface $-1 75.32307535283808875 47.15854123288441002 8.807378258641444191 0 0.8191520524228198541 0.5735764247347356903 -1 -0 0 forward_v I I I I #
loop $-1 $-1 $72 $15 #
coedge $-1 $44 $44 $71 $73 reversed $26 $-1 #
face $-1 $74 $75 $8 $-1 $76 reversed single #
loop $-1 $-1 $77 $28 #
plane-surface $-1 46.69820245979186524 0 5.162251160880655831 0 1 0 0 0 1 forward_v I I I I #
coedge $-1 $78 $79 $80 $81 forward $29 $-1 #
coedge $-1 $82 $31 $83 $84 forward $17 $-1 #
coedge $-1 $31 $82 $85 $86 forward $17 $-1 #
coedge $-1 $87 $88 $31 $52 reversed $89 $-1 #
edge $-1 $90 -24.11042145310894824 $91 24.11042145310894824 $51 $92 forward 7 unknown #
face $-1 $93 $94 $9 $-1 $95 reversed single #
loop $-1 $-1 $96 $32 #
plane-surface $-1 46.69820245979186524 0 8.788808616481109226 0 1 0 0 0 1 forward_v I I I I #
coedge $-1 $97 $98 $99 $100 forward $33 $-1 #
coedge $-1 $101 $35 $102 $103 forward $20 $-1 #
coedge $-1 $35 $101 $104 $105 forward $20 $-1 #
coedge $-1 $106 $107 $35 $60 reversed $108 $-1 #
edge $-1 $109 -3.333208559330689269 $110 3.333208559330689269 $59 $111 forward 7 unknown #
face $-1 $112 $113 $10 $-1 $114 reversed single #
loop $-1 $-1 $115 $36 #
plane-surface $-1 75.32307535283808875 -10.07159102054117739 253.3721462061403713 0 0.5735764247347356903 -0.8191520524228198541 0 0.8191520524228198541 0.5735764247347356903 forward_v I I I I #
coedge $-1 $116 $117 $118 $119 forward $37 $-1 #
coedge $-1 $120 $39 $121 $122 forward $23 $-1 #
coedge $-1 $39 $120 $123 $124 forward $23 $-1 #
coedge $-1 $125 $126 $39 $68 reversed $127 $-1 #
edge $-1 $128 -186.7928098391674894 $129 186.7928098391674894 $67 $130 forward 7 unknown #
loop $-1 $131 $132 $40 #
cone-surface $-1 75.32307535283808875 45.80196048589166935 7.857490222076478403 0 -0.8191520524228198541 -0.5735764247347356903 0.25 0 0 1 I I -0.7071067811865474617 0.7071067811865474617 0.25 forward I I I I #
coedge $-1 $71 $71 $44 $73 forward $41 $-1 #
coedge $-1 $72 $72 $132 $133 forward $43 $-1 #
edge $-1 $134 0 $134 6.283185307179586232 $71 $135 forward 7 unknown #
face $-1 $136 $137 $8 $-1 $138 reversed single #
loop $-1 $-1 $139 $45 #
plane-surface $-1 0 24.11042145310894824 5.162251160880655831 1 0 0 0 0 -1 forward_v I I I I #
coedge $-1 $140 $85 $141 $142 forward $46 $-1 #
coedge $-1 $143 $48 $140 $144 forward $29 $-1 #
coedge $-1 $48 $143 $145 $146 forward $29 $-1 #
coedge $-1 $88 $87 $48 $81 reversed $89 $-1 #
edge $-1 $147 -24.11042145310894824 $148 24.11042145310894824 $80 $149 forward 7 unknown #
coedge $-1 $50 $49 $150 $151 forward $17 $-1 #
coedge $-1 $152 $153 $49 $84 reversed $137 $-1 #
edge $-1 $91 -46.69820245979186524 $154 46.69820245979186524 $83 $155 forward 7 unknown #
coedge $-1 $77 $156 $50 $86 reversed $46 $-1 #
edge $-1 $157 -46.69820245979186524 $90 46.69820245979186524 $85 $158 forward 7 unknown #
coedge $-1 $80 $51 $156 $159 forward $89 $-1 #
coedge $-1 $51 $80 $152 $160 reversed $89 $-1 #
loop $-1 $-1 $87 $136 #
vertex $-1 $52 $161 #
vertex $-1 $52 $162 #
straight-curve $-1 93.39640491958373048 24.11042145310894824 10.32450232176131166 0 1 0 I I #
face $-1 $163 $164 $9 $-1 $165 reversed single #
loop $-1 $-1 $166 $53 #
plane-surface $-1 0 3.333208559330689269 8.788808616481109226 1 0 0 0 0 -1 forward_v I I I I #
coedge $-1 $167 $104 $168 $169 forward $54 $-1 #
coedge $-1 $170 $56 $167 $171 forward $33 $-1 #
coedge $-1 $56 $170 $172 $173 forward $33 $-1 #
coedge $-1 $107 $106 $56 $100 reversed $108 $-1 #
edge $-1 $174 -3.333208559330689269 $175 3.333208559330689269 $99 $176 forward 7 unknown #
coedge $-1 $58 $57 $177 $178 forward $20 $-1 #
coedge $-1 $179 $180 $57 $103 reversed $164 $-1 #
edge $-1 $110 -46.69820245979186524 $181 46.69820245979186524 $102 $182 forward 7 unknown #
coedge $-1 $96 $183 $58 $105 reversed $54 $-1 #
edge $-1 $184 -46.69820245979186524 $109 46.69820245979186524 $104 $185 forward 7 unknown #
coedge $-1 $99 $59 $183 $186 forward $108 $-1 #
coedge $-1 $59 $99 $179 $187 reversed $108 $-1 #
loop $-1 $-1 $106 $163 #
vertex $-1 $60 $188 #
vertex $-1 $60 $189 #
straight-curve $-1 93.39640491958373048 3.333208559330689269 10.32450232176131166 0 1 0 I I #
face $-1 $190 $191 $10 $-1 $192 reversed single #
loop $-1 $-1 $193 $61 #
plane-surface $-1 69.17450957408874501 97.06836101316385168 100.3604326485608595 1 0 0 0 -0.8191520524228198541 -0.5735764247347356903 forward_v I I I I #
coedge $-1 $194 $123 $195 $196 forward $62 $-1 #
coedge $-1 $197 $64 $194 $198 forward $37 $-1 #
coedge $-1 $64 $197 $199 $200 forward $37 $-1 #
coedge $-1 $126 $125 $64 $119 reversed $127 $-1 #
edge $-1 $201 -186.7928098391674894 $202 186.7928098391675178 $118 $203 forward 7 unknown #
coedge $-1 $66 $65 $204 $205 forward $23 $-1 #
coedge $-1 $206 $207 $65 $122 reversed $191 $-1 #
edge $-1 $129 -6.148565778749343735 $208 6.148565778749343735 $121 $209 forward 7 unknown #
coedge $-1 $115 $210 $66 $124 reversed $62 $-1 #
edge $-1 $211 -6.148565778749343735 $128 6.148565778749343735 $123 $212 forward 7 unknown #
coedge $-1 $118 $67 $210 $213 forward $127 $-1 #
coedge $-1 $67 $118 $206 $214 reversed $127 $-1 #
loop $-1 $-1 $125 $190 #
vertex $-1 $68 $215 #
vertex $-1 $68 $216 #
straight-curve $-1 81.47164113158743248 173.5742177919536289 153.9304086654133812 0 0.5735764247347356903 -0.8191520524228198541 I I #
loop $-1 $-1 $217 $40 #
coedge $-1 $132 $132 $72 $133 reversed $69 $-1 #
edge $-1 $218 0 $218 6.283185307179586232 $132 $219 forward 7 unknown #
vertex $-1 $73 $220 #
ellipse-curve $-1 75.32307535283808875 47.15854123288441002 8.807378258641444191 0 0.8191520524228198541 0.5735764247347356903 0.5 0 0 1 I I #
face $-1 $-1 $89 $8 $-1 $221 reversed single #
loop $-1 $-1 $152 $74 #
plane-surface $-1 46.69820245979186524 48.22084290621789648 5.162251160880655831 0 -1 0 0 0 -1 forward_v I I I I #
coedge $-1 $222 $150 $153 $223 forward $75 $-1 #
coedge $-1 $156 $77 $78 $144 reversed $46 $-1 #
coedge $-1 $150 $222 $77 $142 reversed $75 $-1 #
edge $-1 $157 -5.162251160880655831 $224 5.162251160880655831 $141 $225 forward 7 unknown #
coedge $-1 $79 $78 $222 $226 forward $29 $-1 #
edge $-1 $148 -46.69820245979186524 $224 46.69820245979186524 $140 $227 forward 7 unknown #
coedge $-1 $153 $152 $79 $146 reversed $137 $-1 #
edge $-1 $228 -46.69820245979186524 $147 46.69820245979186524 $145 $229 forward 7 unknown #
vertex $-1 $81 $230 #
vertex $-1 $159 $231 #
straight-curve $-1 93.39640491958373048 24.11042145310894824 0 0 -1 0 I I #
coedge $-1 $139 $141 $82 $151 reversed $75 $-1 #
edge $-1 $154 -24.11042145310894824 $157 24.11042145310894824 $150 $232 forward 7 unknown #
coedge $-1 $145 $83 $88 $160 forward $137 $-1 #
coedge $-1 $83 $145 $139 $223 reversed $137 $-1 #
vertex $-1 $84 $233 #
straight-curve $-1 46.69820245979186524 48.22084290621789648 10.32450232176131166 -1 0 0 I I #
coedge $-1 $85 $140 $87 $159 reversed $46 $-1 #
vertex $-1 $151 $234 #
straight-curve $-1 46.69820245979186524 0 10.32450232176131166 1 0 0 I I #
edge $-1 $90 -5.162251160880655831 $148 5.162251160880655831 $87 $235 forward 7 unknown #
edge $-1 $91 -5.162251160880655831 $147 5.162251160880655831 $88 $236 forward 7 unknown #
point $-1 93.39640491958373048 0 10.32450232176131166 #
point $-1 93.39640491958373048 48.22084290621789648 10.32450232176131166 #
face $-1 $-1 $108 $9 $-1 $237 reversed single #
loop $-1 $-1 $179 $93 #
plane-surface $-1 46.69820245979186524 6.666417118661378538 8.788808616481109226 0 -1 0 0 0 -1 forward_v I I I I #
coedge $-1 $238 $177 $180 $239 forward $94 $-1 #
coedge $-1 $183 $96 $97 $171 reversed $54 $-1 #
coedge $-1 $177 $238 $96 $169 reversed $94 $-1 #
edge $-1 $184 -1.535693705280202437 $240 1.535693705280201549 $168 $241 forward 7 unknown #
coedge $-1 $98 $97 $238 $242 forward $33 $-1 #
edge $-1 $175 -46.69820245979186524 $240 46.69820245979186524 $167 $243 forward 7 unknown #
coedge $-1 $180 $179 $98 $173 reversed $164 $-1 #
edge $-1 $244 -46.69820245979186524 $174 46.69820245979186524 $172 $245 forward 7 unknown #
vertex $-1 $100 $246 #
vertex $-1 $186 $247 #
straight-curve $-1 93.39640491958373048 3.333208559330689269 7.253114911200907677 0 -1 0 I I #
coedge $-1 $166 $168 $101 $178 reversed $94 $-1 #
edge $-1 $181 -3.333208559330689269 $184 3.333208559330689269 $177 $248 forward 7 unknown #
coedge $-1 $172 $102 $107 $187 forward $164 $-1 #
coedge $-1 $102 $172 $166 $239 reversed $164 $-1 #
vertex $-1 $103 $249 #
straight-curve $-1 46.69820245979186524 6.666417118661378538 10.32450232176131166 -1 0 0 I I #
coedge $-1 $104 $167 $106 $186 reversed $54 $-1 #
vertex $-1 $178 $250 #
straight-curve $-1 46.69820245979186524 0 10.32450232176131166 1 0 0 I I #
edge $-1 $109 -1.535693705280202437 $175 1.535693705280201549 $106 $251 forward 7 unknown #
edge $-1 $110 -1.535693705280202437 $174 1.535693705280201549 $107 $252 forward 7 unknown #
point $-1 93.39640491958373048 0 10.32450232176131166 #
point $-1 93.39640491958373048 6.666417118661378538 10.32450232176131166 #
face $-1 $-1 $127 $10 $-1 $253 reversed single #
loop $-1 $-1 $206 $112 #
plane-surface $-1 75.32307535283808875 204.2083130468688807 -52.65128090901866642 0 -0.5735764247347356903 0.8191520524228198541 0 -0.8191520524228198541 -0.5735764247347356903 forward_v I I I I #
coedge $-1 $254 $204 $207 $255 forward $113 $-1 #
coedge $-1 $210 $115 $116 $198 reversed $62 $-1 #
coedge $-1 $204 $254 $115 $196 reversed $113 $-1 #
edge $-1 $211 -93.39640491958374469 $256 93.39640491958373048 $195 $257 forward 7 unknown #
coedge $-1 $117 $116 $254 $258 forward $37 $-1 #
edge $-1 $202 -6.148565778749343735 $256 6.148565778749343735 $194 $259 forward 7 unknown #
coedge $-1 $207 $206 $117 $200 reversed $191 $-1 #
edge $-1 $260 -6.148565778749343735 $201 6.148565778749343735 $199 $261 forward 7 unknown #
vertex $-1 $119 $262 #
vertex $-1 $213 $263 #
straight-curve $-1 81.47164113158743248 20.5625042343740887 46.79045663170834501 0 -0.5735764247347356903 0.8191520524228198541 I I #
coedge $-1 $193 $195 $120 $205 reversed $113 $-1 #
edge $-1 $208 -186.7928098391674894 $211 186.7928098391674894 $204 $264 forward 7 unknown #
coedge $-1 $199 $121 $126 $214 forward $191 $-1 #
coedge $-1 $121 $199 $193 $255 reversed $191 $-1 #
vertex $-1 $122 $265 #
straight-curve $-1 75.32307535283808875 280.7141698256586437 0.9186951078338410071 -1 0 0 I I #
coedge $-1 $123 $194 $125 $213 reversed $62 $-1 #
vertex $-1 $205 $266 #
straight-curve $-1 75.32307535283808875 66.4342657582485856 306.9421222229929072 1 0 0 I I #
edge $-1 $128 -93.39640491958374469 $202 93.39640491958373048 $125 $267 forward 7 unknown #
edge $-1 $129 -93.39640491958374469 $201 93.39640491958374469 $126 $268 forward 7 unknown #
point $-1 81.47164113158743248 66.4342657582485856 306.9421222229929072 #
point $-1 81.47164113158743248 280.7141698256586437 0.9186951078338410071 #
coedge $-1 $217 $217 $-1 $269 reversed $131 $-1 #
vertex $-1 $133 $270 #
ellipse-curve $-1 75.32307535283808875 46.00674849899737495 8.000884328260163159 0 0.8191520524228198541 0.5735764247347356903 0.5 0 0 1 I I #
point $-1 75.82307535283808875 47.15854123288441002 8.807378258641444191 #
plane-surface $-1 93.39640491958373048 24.11042145310894824 5.162251160880655831 -1 0 0 0 0 1 forward_v I I I I #
coedge $-1 $141 $139 $143 $226 reversed $75 $-1 #
edge $-1 $154 -5.162251160880655831 $228 5.162251160880655831 $153 $271 forward 7 unknown #
vertex $-1 $226 $272 #
straight-curve $-1 0 0 5.162251160880655831 0 0 -1 I I #
edge $-1 $224 -24.11042145310894824 $228 24.11042145310894824 $222 $273 forward 7 unknown #
straight-curve $-1 46.69820245979186524 0 0 -1 0 0 I I #
vertex $-1 $146 $274 #
straight-curve $-1 46.69820245979186524 48.22084290621789648 0 1 0 0 I I #
point $-1 93.39640491958373048 48.22084290621789648 0 #
point $-1 93.39640491958373048 0 0 #
straight-curve $-1 0 24.11042145310894824 10.32450232176131166 0 -1 0 I I #
point $-1 0 48.22084290621789648 10.32450232176131166 #
point $-1 0 0 10.32450232176131166 #
straight-curve $-1 93.39640491958373048 0 5.162251160880655831 0 0 -1 I I #
straight-curve $-1 93.39640491958373048 48.22084290621789648 5.162251160880655831 0 0 -1 I I #
plane-surface $-1 93.39640491958373048 3.333208559330689269 8.788808616481109226 -1 0 0 0 0 1 forward_v I I I I #
coedge $-1 $168 $166 $170 $242 reversed $94 $-1 #
edge $-1 $181 -1.535693705280202437 $244 1.535693705280201549 $180 $275 forward 7 unknown #
vertex $-1 $242 $276 #
straight-curve $-1 0 0 8.788808616481109226 0 0 -1 I I #
edge $-1 $240 -3.333208559330689269 $244 3.333208559330689269 $238 $277 forward 7 unknown #
straight-curve $-1 46.69820245979186524 0 7.253114911200907677 -1 0 0 I I #
vertex $-1 $173 $278 #
straight-curve $-1 46.69820245979186524 6.666417118661378538 7.253114911200907677 1 0 0 I I #
point $-1 93.39640491958373048 6.666417118661378538 7.253114911200907677 #
point $-1 93.39640491958373048 0 7.253114911200907677 #
straight-curve $-1 0 3.333208559330689269 10.32450232176131166 0 -1 0 I I #
point $-1 0 6.666417118661378538 10.32450232176131166 #
point $-1 0 0 10.32450232176131166 #
straight-curve $-1 93.39640491958373048 0 8.788808616481109226 0 0 -1 I I #
straight-curve $-1 93.39640491958373048 6.666417118661378538 8.788808616481109226 0 0 -1 I I #
plane-surface $-1 81.47164113158743248 97.06836101316385168 100.3604326485608595 -1 0 0 0 0.8191520524228198541 0.5735764247347356903 forward_v I I I I #
coedge $-1 $195 $193 $197 $258 reversed $113 $-1 #
edge $-1 $208 -93.39640491958374469 $260 93.39640491958374469 $207 $279 forward 7 unknown #
vertex $-1 $258 $280 #
straight-curve $-1 69.17450957408874501 -10.07159102054117739 253.3721462061403713 0 -0.8191520524228198541 -0.5735764247347356903 I I #
edge $-1 $256 -186.7928098391675178 $260 186.7928098391674894 $254 $281 forward 7 unknown #
straight-curve $-1 75.32307535283808875 -86.57744779933095458 199.8021701892878923 -1 0 0 I I #
vertex $-1 $200 $282 #
straight-curve $-1 75.32307535283808875 127.7024562680791178 -106.2212569258711738 1 0 0 I I #
point $-1 81.47164113158743248 127.7024562680791178 -106.2212569258711738 #
point $-1 81.47164113158743248 -86.57744779933095458 199.8021701892878923 #
straight-curve $-1 69.17450957408874501 173.5742177919536289 153.9304086654133812 0 -0.5735764247347356903 0.8191520524228198541 I I #
point $-1 69.17450957408874501 280.7141698256586437 0.9186951078338410071 #
point $-1 69.17450957408874501 66.4342657582485856 306.9421222229929072 #
straight-curve $-1 81.47164113158743248 -10.07159102054117739 253.3721462061403713 0 -0.8191520524228198541 -0.5735764247347356903 I I #
straight-curve $-1 81.47164113158743248 204.2083130468688807 -52.65128090901866642 0 -0.8191520524228198541 -0.5735764247347356903 I I #
edge $-1 $283 1 $283 0 $217 $-1 forward 7 unknown #
point $-1 75.82307535283808875 46.00674849899737495 8.000884328260163159 #
straight-curve $-1 0 48.22084290621789648 5.162251160880655831 0 0 -1 I I #
point $-1 0 0 0 #
straight-curve $-1 0 24.11042145310894824 0 0 1 0 I I #
point $-1 0 48.22084290621789648 0 #
straight-curve $-1 0 6.666417118661378538 8.788808616481109226 0 0 -1 I I #
point $-1 0 0 7.253114911200907677 #
straight-curve $-1 0 3.333208559330689269 7.253114911200907677 0 1 0 I I #
point $-1 0 6.666417118661378538 7.253114911200907677 #
straight-curve $-1 69.17450957408874501 204.2083130468688807 -52.65128090901866642 0 -0.8191520524228198541 -0.5735764247347356903 I I #
point $-1 69.17450957408874501 -86.57744779933095458 199.8021701892878923 #
straight-curve $-1 69.17450957408874501 20.5625042343740887 46.79045663170834501 0 0.5735764247347356903 -0.8191520524228198541 I I #
point $-1 69.17450957408874501 127.7024562680791178 -106.2212569258711738 #
vertex $-1 $269 $284 #
point $-1 75.32307535283808875 45.59717247278596375 7.714096115892794536 #
End-of-ACIS-data 