500 0 4 0           
7 Unknown 11 ACIS 5.0 NT 24 Thu Mar 25 19:34:18 1999 
-1 9.9999999999999995e-007 1e-010 
body $-1 $4 $-1 $5 #
body $-1 $6 $-1 $7 #
body $-1 $8 $-1 $9 #
body $-1 $10 $-1 $11 #
lump $-1 $-1 $12 $0 #
transform $-1 1 0 0 0 1 0 0 0 1 46.203802606280711 27.251176779968922 6.558013531320138 1 rotate no_reflect no_shear #
lump $-1 $-1 $13 $1 #
transform $-1 1 0 0 0 1 0 0 0 1 46.203802606280711 27.251176779968922 6.558013531320138 1 rotate no_reflect no_shear #
lump $-1 $-1 $14 $2 #
transform $-1 1 0 0 0 1 0 0 0 1 46.203802606280711 27.251176779968922 6.558013531320138 1 rotate no_reflect no_shear #
lump $-1 $-1 $15 $3 #
transform $-1 1 0 0 0 1 0 0 0 1 46.203802606280711 27.251176779968922 6.558013531320138 1 rotate no_reflect no_shear #
shell $-1 $-1 $-1 $16 $-1 $4 #
shell $-1 $-1 $-1 $17 $-1 $6 #
shell $-1 $-1 $-1 $18 $-1 $8 #
shell $-1 $-1 $-1 $19 $-1 $10 #
face $-1 $20 $21 $12 $-1 $22 forward single #
face $-1 $23 $24 $13 $-1 $25 reversed single #
face $-1 $26 $27 $14 $-1 $28 reversed single #
face $-1 $29 $30 $15 $-1 $31 forward single #
face $-1 $32 $33 $12 $-1 $34 reversed single #
loop $-1 $-1 $35 $16 #
plane-surface $-1 0 0 6.558013531320138 0 0 1 1 0 0 forward_v I I I I #
face $-1 $36 $37 $13 $-1 $38 reversed single #
loop $-1 $-1 $39 $17 #
plane-surface $-1 -42.649247994021451 0 3.558013531320138 0 0 1 1 0 0 forward_v I I I I #
face $-1 $40 $41 $14 $-1 $42 reversed single #
loop $-1 $-1 $43 $18 #
plane-surface $-1 19.033053878836505 -9.1565121716950308 129.30128709138924 0 -1 0 -0.54463904215088732 0 -0.83867056331134215 forward_v I I I I #
face $-1 $44 $45 $15 $-1 $46 forward single #
loop $-1 $47 $48 $19 #
cone-surface $-1 40.820262960252727 -13.251854232021742 1.7543622311236891 -0.54463904215088732 0 -0.83867056331134215 1.2580058449670133 0 -0.81695856322633098 1 I I 0 1 1.5 forward I I I I #
face $-1 $49 $50 $12 $-1 $51 reversed single #
loop $-1 $-1 $52 $20 #
plane-surface $-1 0 0 -6.558013531320138 0 0 1 1 0 0 forward_v I I I I #
coedge $-1 $53 $54 $55 $56 forward $21 $-1 #
face $-1 $57 $58 $13 $-1 $59 reversed single #
loop $-1 $-1 $60 $23 #
plane-surface $-1 -39.094693381762191 0 5.058013531320138 -1 0 0 0 0 1 forward_v I I I I #
coedge $-1 $61 $62 $63 $64 forward $24 $-1 #
face $-1 $65 $66 $14 $-1 $67 reversed single #
loop $-1 $-1 $68 $26 #
plane-surface $-1 -31.295735711590289 -13.251854232021742 51.801748773518241 0.54463904215088732 0 0.83867056331134215 0.83867056331134215 0 -0.54463904215088732 forward_v I I I I #
coedge $-1 $69 $70 $71 $72 reversed $27 $-1 #
face $-1 $-1 $73 $15 $-1 $74 forward single #
loop $-1 $75 $76 $29 #
cone-surface $-1 38.94339247464729 -13.251854232021742 -1.1357648174419195 -0.54463904215088732 0 -0.83867056331134215 0.62900292248350664 0 -0.40847928161316549 1 I I -0.70710678118654757 0.70710678118654757 0.75 forward I I I I #
loop $-1 $-1 $77 $19 #
coedge $-1 $48 $48 $78 $79 reversed $30 $-1 #
face $-1 $80 $81 $12 $-1 $82 reversed single #
loop $-1 $-1 $83 $32 #
plane-surface $-1 0 -27.251176779968922 0 0 1 0 0 0 1 forward_v I I I I #
coedge $-1 $84 $85 $86 $87 forward $33 $-1 #
coedge $-1 $88 $35 $89 $90 forward $21 $-1 #
coedge $-1 $35 $88 $91 $92 forward $21 $-1 #
coedge $-1 $93 $94 $35 $56 reversed $95 $-1 #
edge $-1 $96 -27.251176779968922 $97 27.251176779968922 $55 $98 forward 7 unknown #
face $-1 $99 $100 $13 $-1 $101 reversed single #
loop $-1 $-1 $102 $36 #
plane-surface $-1 0 27.251176779968922 0 0 -1 0 0 0 -1 forward_v I I I I #
coedge $-1 $63 $103 $104 $105 reversed $37 $-1 #
coedge $-1 $106 $39 $107 $108 reversed $24 $-1 #
coedge $-1 $39 $106 $109 $110 reversed $24 $-1 #
coedge $-1 $111 $60 $39 $64 reversed $37 $-1 #
edge $-1 $112 -27.251176779968922 $113 27.251176779968922 $63 $114 forward 7 unknown #
face $-1 $115 $116 $14 $-1 $117 forward single #
loop $-1 $-1 $118 $40 #
plane-surface $-1 19.033053878836505 -17.347196292348453 129.30128709138924 0 1 0 0.54463904215088732 0 0.83867056331134215 forward_v I I I I #
coedge $-1 $119 $120 $121 $122 reversed $41 $-1 #
coedge $-1 $70 $43 $123 $124 reversed $27 $-1 #
coedge $-1 $43 $69 $119 $125 reversed $27 $-1 #
coedge $-1 $121 $126 $43 $72 forward $116 $-1 #
edge $-1 $127 -36.687275666862462 $128 -28.856978782791028 $71 $129 forward 7 unknown #
loop $-1 $-1 $78 $44 #
plane-surface $-1 -31.295735711590289 -13.251854232021742 51.801748773518241 0.54463904215088732 0 0.83867056331134215 0.83867056331134215 0 -0.54463904215088732 forward_v I I I I #
loop $-1 $-1 $130 $29 #
coedge $-1 $76 $76 $77 $131 reversed $45 $-1 #
coedge $-1 $77 $77 $76 $131 forward $47 $-1 #
coedge $-1 $78 $78 $48 $79 forward $73 $-1 #
edge $-1 $132 0 $132 6.2831853071796004 $78 $133 forward 7 unknown #
face $-1 $134 $135 $12 $-1 $136 reversed single #
loop $-1 $-1 $137 $49 #
plane-surface $-1 -46.203802606280711 0 0 1 0 0 0 0 -1 forward_v I I I I #
coedge $-1 $138 $91 $139 $140 forward $50 $-1 #
coedge $-1 $141 $52 $138 $142 forward $33 $-1 #
coedge $-1 $52 $141 $143 $144 forward $33 $-1 #
coedge $-1 $94 $93 $52 $87 reversed $95 $-1 #
edge $-1 $145 -27.251176779968922 $146 27.251176779968922 $86 $147 forward 7 unknown #
coedge $-1 $54 $53 $148 $149 forward $21 $-1 #
coedge $-1 $150 $151 $53 $90 reversed $135 $-1 #
edge $-1 $97 -46.203802606280711 $152 46.203802606280711 $89 $153 forward 7 unknown #
coedge $-1 $83 $154 $54 $92 reversed $50 $-1 #
edge $-1 $155 -46.203802606280711 $96 46.203802606280711 $91 $156 forward 7 unknown #
coedge $-1 $86 $55 $154 $157 forward $95 $-1 #
coedge $-1 $55 $86 $150 $158 reversed $95 $-1 #
loop $-1 $-1 $93 $134 #
vertex $-1 $56 $159 #
vertex $-1 $56 $160 #
straight-curve $-1 46.203802606280711 0 6.558013531320138 0 1 0 I I #
face $-1 $161 $162 $13 $-1 $163 forward single #
loop $-1 $-1 $164 $57 #
plane-surface $-1 -46.203802606280711 0 0 1 0 0 0 0 -1 forward_v I I I I #
coedge $-1 $109 $165 $111 $166 forward $58 $-1 #
coedge $-1 $60 $111 $167 $168 reversed $37 $-1 #
coedge $-1 $169 $107 $60 $105 forward $170 $-1 #
edge $-1 $113 1.029006765660069 $171 4.0290067656600694 $104 $172 forward 7 unknown #
coedge $-1 $62 $61 $164 $173 reversed $24 $-1 #
coedge $-1 $104 $174 $61 $108 forward $170 $-1 #
edge $-1 $175 -24.879178609269985 $113 -17.770069384751466 $107 $176 forward 7 unknown #
coedge $-1 $177 $102 $62 $110 forward $58 $-1 #
edge $-1 $112 17.770069384751466 $178 24.879178609269985 $109 $179 forward 7 unknown #
coedge $-1 $103 $63 $102 $166 reversed $37 $-1 #
vertex $-1 $110 $180 #
vertex $-1 $108 $181 #
straight-curve $-1 -39.094693381762191 0 3.558013531320138 0 -1 0 I I #
face $-1 $-1 $182 $14 $-1 $183 reversed single #
loop $-1 $-1 $71 $65 #
plane-surface $-1 0 0 6.558013531320138 0 0 1 1 0 0 forward_v I I I I #
coedge $-1 $184 $185 $186 $187 reversed $66 $-1 #
coedge $-1 $188 $68 $70 $125 forward $41 $-1 #
coedge $-1 $68 $188 $184 $189 forward $41 $-1 #
coedge $-1 $186 $71 $68 $122 forward $116 $-1 #
edge $-1 $128 2.5305850556841598 $190 10.721269176337582 $121 $191 forward 7 unknown #
coedge $-1 $192 $193 $69 $124 forward $182 $-1 #
edge $-1 $194 -63.177684362603173 $127 -58.092630014374485 $123 $195 forward 7 unknown #
edge $-1 $128 83.071046584397706 $194 92.407605212561421 $70 $196 forward 7 unknown #
coedge $-1 $71 $186 $192 $197 forward $116 $-1 #
vertex $-1 $124 $198 #
vertex $-1 $72 $199 #
straight-curve $-1 9.5165269394182523 -9.1565121716950308 6.5580135313201353 -1 0 0 I I #
coedge $-1 $130 $130 $-1 $200 reversed $75 $-1 #
edge $-1 $201 0 $201 6.2831853071796004 $76 $202 forward 7 unknown #
vertex $-1 $79 $203 #
ellipse-curve $-1 42.288654164245003 -13.251854232021742 4.0154863572057931 0.54463904215088732 0 0.83867056331134215 1.2580058449670133 0 -0.81695856322633098 1 I I #
face $-1 $-1 $95 $12 $-1 $204 reversed single #
loop $-1 $-1 $150 $80 #
plane-surface $-1 0 27.251176779968922 0 0 -1 0 0 0 -1 forward_v I I I I #
coedge $-1 $205 $148 $151 $206 forward $81 $-1 #
coedge $-1 $154 $83 $84 $142 reversed $50 $-1 #
coedge $-1 $148 $205 $83 $140 reversed $81 $-1 #
edge $-1 $155 -6.558013531320138 $207 6.558013531320138 $139 $208 forward 7 unknown #
coedge $-1 $85 $84 $205 $209 forward $33 $-1 #
edge $-1 $146 -46.203802606280711 $207 46.203802606280711 $138 $210 forward 7 unknown #
coedge $-1 $151 $150 $85 $144 reversed $135 $-1 #
edge $-1 $211 -46.203802606280711 $145 46.203802606280711 $143 $212 forward 7 unknown #
vertex $-1 $87 $213 #
vertex $-1 $157 $214 #
straight-curve $-1 46.203802606280711 0 -6.558013531320138 0 -1 0 I I #
coedge $-1 $137 $139 $88 $149 reversed $81 $-1 #
edge $-1 $152 -27.251176779968922 $155 27.251176779968922 $148 $215 forward 7 unknown #
coedge $-1 $143 $89 $94 $158 forward $135 $-1 #
coedge $-1 $89 $143 $137 $206 reversed $135 $-1 #
vertex $-1 $90 $216 #
straight-curve $-1 0 27.251176779968922 6.558013531320138 -1 0 0 I I #
coedge $-1 $91 $138 $93 $157 reversed $50 $-1 #
vertex $-1 $149 $217 #
straight-curve $-1 0 -27.251176779968922 6.558013531320138 1 0 0 I I #
edge $-1 $96 -6.558013531320138 $146 6.558013531320138 $93 $218 forward 7 unknown #
edge $-1 $97 -6.558013531320138 $145 6.558013531320138 $94 $219 forward 7 unknown #
point $-1 46.203802606280711 -27.251176779968922 6.558013531320138 #
point $-1 46.203802606280711 27.251176779968922 6.558013531320138 #
face $-1 $-1 $170 $13 $-1 $220 reversed single #
loop $-1 $-1 $167 $99 #
plane-surface $-1 0 0 6.558013531320138 0 0 1 1 0 0 forward_v I I I I #
coedge $-1 $221 $222 $106 $173 forward $100 $-1 #
coedge $-1 $102 $177 $223 $224 reversed $58 $-1 #
edge $-1 $225 -4.0290067656600694 $112 -1.029006765660069 $102 $226 forward 7 unknown #
coedge $-1 $223 $227 $103 $168 forward $162 $-1 #
edge $-1 $171 -27.251176779968922 $225 27.251176779968922 $167 $228 forward 7 unknown #
coedge $-1 $174 $104 $227 $229 reversed $170 $-1 #
loop $-1 $-1 $104 $161 #
vertex $-1 $105 $230 #
straight-curve $-1 -39.094693381762191 -27.251176779968922 2.529006765660069 0 0 1 I I #
edge $-1 $178 -27.251176779968922 $175 27.251176779968922 $164 $231 forward 7 unknown #
coedge $-1 $107 $169 $221 $232 forward $170 $-1 #
vertex $-1 $173 $233 #
straight-curve $-1 -21.324623997010725 -27.251176779968922 3.558013531320138 1 0 0 I I #
coedge $-1 $165 $109 $222 $234 reversed $58 $-1 #
vertex $-1 $173 $235 #
straight-curve $-1 -21.324623997010725 27.251176779968922 3.558013531320138 -1 0 0 I I #
point $-1 -39.094693381762191 27.251176779968922 3.558013531320138 #
point $-1 -39.094693381762191 -27.251176779968922 3.558013531320138 #
loop $-1 $-1 $123 $115 #
plane-surface $-1 46.203802606280711 0 0 -1 0 0 0 0 1 forward_v I I I I #
coedge $-1 $185 $118 $120 $189 reversed $66 $-1 #
coedge $-1 $118 $184 $236 $237 reversed $66 $-1 #
coedge $-1 $126 $121 $118 $187 forward $116 $-1 #
edge $-1 $190 28.856978782791028 $238 36.687275666862462 $186 $239 forward 7 unknown #
coedge $-1 $120 $119 $193 $240 reversed $41 $-1 #
edge $-1 $241 -92.407605212561421 $190 -83.071046584397706 $184 $242 forward 7 unknown #
vertex $-1 $122 $243 #
straight-curve $-1 38.373505722209273 -6.625927116010871 6.5580135313201318 0 -1 0 I I #
coedge $-1 $236 $123 $126 $197 reversed $182 $-1 #
coedge $-1 $123 $236 $188 $240 forward $182 $-1 #
vertex $-1 $124 $244 #
straight-curve $-1 46.203802606280711 -9.1565121716950308 64.650643545694621 0 0 1 I I #
straight-curve $-1 -31.295735711590289 -9.1565121716950308 51.801748773518241 0.83867056331134215 0 -0.54463904215088732 I I #
edge $-1 $238 -17.347196292348453 $127 -9.1565121716950308 $192 $245 forward 7 unknown #
point $-1 46.203802606280711 -9.1565121716950308 6.558013531320138 #
point $-1 38.373505722209281 -9.1565121716950308 6.5580135313201353 #
edge $-1 $246 1 $246 0 $130 $-1 forward 7 unknown #
vertex $-1 $131 $247 #
ellipse-curve $-1 39.351871756260458 -13.251854232021742 -0.50676189495841284 0.54463904215088732 0 0.83867056331134215 1.2580058449670133 0 -0.81695856322633098 1 I I #
point $-1 43.546660009212012 -13.251854232021742 3.1985277939794603 #
plane-surface $-1 46.203802606280711 0 0 -1 0 0 0 0 1 forward_v I I I I #
coedge $-1 $139 $137 $141 $209 reversed $81 $-1 #
edge $-1 $152 -6.558013531320138 $211 6.558013531320138 $151 $248 forward 7 unknown #
vertex $-1 $209 $249 #
straight-curve $-1 -46.203802606280711 -27.251176779968922 0 0 0 -1 I I #
edge $-1 $207 -27.251176779968922 $211 27.251176779968922 $205 $250 forward 7 unknown #
straight-curve $-1 0 -27.251176779968922 -6.558013531320138 -1 0 0 I I #
vertex $-1 $144 $251 #
straight-curve $-1 0 27.251176779968922 -6.558013531320138 1 0 0 I I #
point $-1 46.203802606280711 27.251176779968922 -6.558013531320138 #
point $-1 46.203802606280711 -27.251176779968922 -6.558013531320138 #
straight-curve $-1 -46.203802606280711 0 6.558013531320138 0 -1 0 I I #
point $-1 -46.203802606280711 27.251176779968922 6.558013531320138 #
point $-1 -46.203802606280711 -27.251176779968922 6.558013531320138 #
straight-curve $-1 46.203802606280711 -27.251176779968922 0 0 0 -1 I I #
straight-curve $-1 46.203802606280711 27.251176779968922 0 0 0 -1 I I #
plane-surface $-1 0 -27.251176779968922 0 0 1 0 0 0 1 forward_v I I I I #
coedge $-1 $252 $164 $174 $232 reversed $100 $-1 #
coedge $-1 $164 $252 $177 $234 forward $100 $-1 #
coedge $-1 $253 $167 $165 $224 forward $162 $-1 #
edge $-1 $225 39.094693381762191 $254 46.203802606280711 $165 $255 forward 7 unknown #
vertex $-1 $224 $256 #
straight-curve $-1 -39.094693381762191 27.251176779968922 2.529006765660069 0 0 -1 I I #
coedge $-1 $167 $253 $169 $229 forward $162 $-1 #
straight-curve $-1 -39.094693381762191 0 6.558013531320138 0 1 0 I I #
edge $-1 $257 -46.203802606280711 $171 -39.094693381762191 $169 $258 forward 7 unknown #
point $-1 -39.094693381762191 -27.251176779968922 6.558013531320138 #
straight-curve $-1 -46.203802606280711 0 3.558013531320138 0 -1 0 I I #
edge $-1 $257 -6.558013531320138 $175 -3.558013531320138 $221 $259 forward 7 unknown #
point $-1 -46.203802606280711 -27.251176779968922 3.558013531320138 #
edge $-1 $254 -6.558013531320138 $178 -3.558013531320138 $177 $260 forward 7 unknown #
point $-1 -46.203802606280711 27.251176779968922 3.558013531320138 #
coedge $-1 $193 $192 $185 $237 forward $182 $-1 #
edge $-1 $238 58.092630014374485 $241 63.177684362603173 $236 $261 forward 7 unknown #
vertex $-1 $197 $262 #
straight-curve $-1 9.5165269394182523 -17.347196292348453 6.5580135313201353 1 0 0 I I #
edge $-1 $241 -10.721269176337582 $194 -2.5305850556841598 $193 $263 forward 7 unknown #
vertex $-1 $240 $264 #
straight-curve $-1 -31.295735711590289 -17.347196292348453 51.801748773518241 -0.83867056331134215 0 0.54463904215088732 I I #
point $-1 38.373505722209281 -17.347196292348453 6.5580135313201353 #
point $-1 46.203802606280711 -9.1565121716950308 1.4729591830914472 #
straight-curve $-1 46.203802606280711 0 6.558013531320138 0 1 0 I I #
vertex $-1 $200 $265 #
point $-1 40.609877601227467 -13.251854232021742 -1.3237204581847437 #
straight-curve $-1 -46.203802606280711 27.251176779968922 0 0 0 -1 I I #
point $-1 -46.203802606280711 -27.251176779968922 -6.558013531320138 #
straight-curve $-1 -46.203802606280711 0 -6.558013531320138 0 1 0 I I #
point $-1 -46.203802606280711 27.251176779968922 -6.558013531320138 #
coedge $-1 $222 $221 $253 $266 reversed $100 $-1 #
coedge $-1 $227 $223 $252 $266 forward $162 $-1 #
vertex $-1 $224 $267 #
straight-curve $-1 0 27.251176779968922 6.558013531320138 -1 0 0 I I #
point $-1 -39.094693381762191 27.251176779968922 6.558013531320138 #
vertex $-1 $266 $268 #
straight-curve $-1 0 -27.251176779968922 6.558013531320138 1 0 0 I I #
straight-curve $-1 -46.203802606280711 -27.251176779968922 0 0 0 -1 I I #
straight-curve $-1 -46.203802606280711 27.251176779968922 0 0 0 -1 I I #
straight-curve $-1 46.203802606280711 -17.347196292348453 64.650643545694621 0 0 -1 I I #
point $-1 46.203802606280711 -17.347196292348453 6.558013531320138 #
straight-curve $-1 46.203802606280703 -6.625927116010871 1.4729591830914543 0 1 0 I I #
point $-1 46.203802606280711 -17.347196292348453 1.4729591830914472 #
point $-1 38.534913193034122 -13.251854232021742 -1.7647677399254262 #
edge $-1 $254 -27.251176779968922 $257 27.251176779968922 $252 $269 forward 7 unknown #
point $-1 -46.203802606280711 27.251176779968922 6.558013531320138 #
point $-1 -46.203802606280711 -27.251176779968922 6.558013531320138 #
straight-curve $-1 -46.203802606280711 0 6.558013531320138 0 -1 0 I I #
End-of-ACIS-data 