500 0 11 0           
7 Unknown 11 ACIS 5.0 NT 24 Fri Mar 26 02:35:41 1999 
-1 9.9999999999999995e-007 1e-010 
body $-1 $11 $-1 $12 #
body $-1 $13 $-1 $14 #
body $-1 $15 $-1 $16 #
body $-1 $17 $-1 $18 #
body $-1 $19 $-1 $20 #
body $-1 $21 $-1 $22 #
body $-1 $23 $-1 $24 #
body $-1 $25 $-1 $26 #
body $-1 $27 $-1 $28 #
body $-1 $29 $-1 $30 #
body $-1 $31 $-1 $32 #
lump $-1 $-1 $33 $0 #
transform $-1 1 0 0 0 1 0 0 0 1 56.428724021118811 22.994097991112479 5.5171238870243329 1 rotate no_reflect no_shear #
lump $-1 $-1 $34 $1 #
transform $-1 1 0 0 0 1 0 0 0 1 56.428724021118811 22.994097991112479 5.5171238870243329 1 rotate no_reflect no_shear #
lump $-1 $-1 $35 $2 #
transform $-1 1 0 0 0 1 0 0 0 1 56.428724021118811 22.994097991112479 5.5171238870243329 1 rotate no_reflect no_shear #
lump $-1 $-1 $36 $3 #
transform $-1 1 0 0 0 1 0 0 0 1 56.428724021118811 22.994097991112479 5.5171238870243329 1 rotate no_reflect no_shear #
lump $-1 $-1 $37 $4 #
transform $-1 1 0 0 0 1 0 0 0 1 56.428724021118811 22.994097991112479 5.5171238870243329 1 rotate no_reflect no_shear #
lump $-1 $-1 $38 $5 #
transform $-1 1 0 0 0 1 0 0 0 1 56.428724021118811 22.994097991112479 5.5171238870243329 1 rotate no_reflect no_shear #
lump $-1 $-1 $39 $6 #
transform $-1 1 0 0 0 1 0 0 0 1 56.428724021118811 22.994097991112479 5.5171238870243329 1 rotate no_reflect no_shear #
lump $-1 $-1 $40 $7 #
transform $-1 1 0 0 0 1 0 0 0 1 56.428724021118811 22.994097991112479 5.5171238870243329 1 rotate no_reflect no_shear #
lump $-1 $-1 $41 $8 #
transform $-1 1 0 0 0 1 0 0 0 1 56.428724021118811 22.994097991112479 5.5171238870243329 1 rotate no_reflect no_shear #
lump $-1 $-1 $42 $9 #
transform $-1 1 0 0 0 1 0 0 0 1 56.428724021118811 22.994097991112479 5.5171238870243329 1 rotate no_reflect no_shear #
lump $-1 $-1 $43 $10 #
transform $-1 1 0 0 0 1 0 0 0 1 56.428724021118811 22.994097991112479 5.5171238870243329 1 rotate no_reflect no_shear #
shell $-1 $-1 $-1 $44 $-1 $11 #
shell $-1 $-1 $-1 $45 $-1 $13 #
shell $-1 $-1 $-1 $46 $-1 $15 #
shell $-1 $-1 $-1 $47 $-1 $17 #
shell $-1 $-1 $-1 $48 $-1 $19 #
shell $-1 $-1 $-1 $49 $-1 $21 #
shell $-1 $-1 $-1 $50 $-1 $23 #
shell $-1 $-1 $-1 $51 $-1 $25 #
shell $-1 $-1 $-1 $52 $-1 $27 #
shell $-1 $-1 $-1 $53 $-1 $29 #
shell $-1 $-1 $-1 $54 $-1 $31 #
face $-1 $55 $56 $33 $-1 $57 reversed single #
face $-1 $58 $59 $34 $-1 $60 forward single #
face $-1 $61 $62 $35 $-1 $63 forward single #
face $-1 $64 $65 $36 $-1 $66 reversed single #
face $-1 $67 $68 $37 $-1 $69 forward single #
face $-1 $70 $71 $38 $-1 $72 forward single #
face $-1 $73 $74 $39 $-1 $75 forward single #
face $-1 $76 $77 $40 $-1 $78 reversed single #
face $-1 $79 $80 $41 $-1 $81 forward single #
face $-1 $82 $83 $42 $-1 $84 forward single #
face $-1 $85 $86 $43 $-1 $87 forward single #
face $-1 $88 $89 $33 $-1 $90 forward single #
loop $-1 $-1 $91 $44 #
plane-surface $-1 0 -22.994097991112479 0 0 1 0 0 0 1 forward_v I I I I #
face $-1 $92 $93 $34 $-1 $94 forward single #
loop $-1 $-1 $95 $45 #
plane-surface $-1 0 -22.994097991112479 0 0 1 0 0 0 1 forward_v I I I I #
face $-1 $96 $97 $35 $-1 $98 forward single #
loop $-1 $-1 $99 $46 #
plane-surface $-1 0 22.994097991112479 0 0 -1 0 0 0 -1 forward_v I I I I #
face $-1 $100 $101 $36 $-1 $102 reversed single #
loop $-1 $-1 $103 $47 #
plane-surface $-1 56.428725872938671 16.80731881733637 161.64668645491989 0 -1 0 -0.70710678939079041 0 -0.70710677298230451 forward_v I I I I #
face $-1 $104 $105 $37 $-1 $106 forward single #
loop $-1 $107 $108 $48 #
cone-surface $-1 54.127011893336906 10.321857674348085 3.2154117320168196 -0.70710678939079041 0 -0.70710677298230451 0.35355338649115226 0 -0.35355339469539521 1 I I 0 1 0.5 forward I I I I #
face $-1 $109 $110 $38 $-1 $111 forward single #
loop $-1 $112 $113 $49 #
cone-surface $-1 54.127011893336906 12.75390560296869 3.2154117320168196 -0.70710678939079041 0 -0.70710677298230451 0.35355338649115226 0 -0.35355339469539521 1 I I 0 1 0.5 forward I I I I #
face $-1 $114 $115 $39 $-1 $116 forward single #
loop $-1 $117 $118 $50 #
cone-surface $-1 54.127011893336906 15.185953531589295 3.2154117320168196 -0.70710678939079041 0 -0.70710677298230451 0.35355338649115226 0 -0.35355339469539521 1 I I 0 1 0.5 forward I I I I #
face $-1 $119 $120 $40 $-1 $121 reversed single #
loop $-1 $-1 $122 $51 #
plane-surface $-1 -152.13726886476408 6.7292846531838322 61.485132611277514 0 1 0 -0.84804810408105047 0 0.52991925155115449 forward_v I I I I #
face $-1 $123 $124 $41 $-1 $125 forward single #
loop $-1 $126 $127 $52 #
cone-surface $-1 -54.106296183259083 8.7448914860143425 2.8964114368841307 0.84804810408105047 0 -0.52991925155115449 0.52991925155115449 0 0.84804810408105047 1 I I 0 1 1 forward I I I I #
face $-1 $128 $129 $42 $-1 $130 forward single #
loop $-1 $131 $132 $53 #
cone-surface $-1 -54.106296183259083 11.768301735260099 2.8964114368841307 0.84804810408105047 0 -0.52991925155115449 0.52991925155115449 0 0.84804810408105047 1 I I 0 1 1 forward I I I I #
face $-1 $133 $134 $43 $-1 $135 forward single #
loop $-1 $136 $137 $54 #
cone-surface $-1 -54.106296183259083 14.791711984505856 2.8964114368841307 0.84804810408105047 0 -0.52991925155115449 0.52991925155115449 0 0.84804810408105047 1 I I 0 1 1 forward I I I I #
face $-1 $138 $139 $33 $-1 $140 reversed single #
loop $-1 $-1 $141 $55 #
plane-surface $-1 0 0 5.5171238870243329 0 0 1 1 0 0 forward_v I I I I #
coedge $-1 $142 $143 $144 $145 reversed $56 $-1 #
face $-1 $146 $147 $34 $-1 $148 reversed single #
loop $-1 $-1 $149 $58 #
plane-surface $-1 0 0 5.5171238870243329 0 0 1 1 0 0 forward_v I I I I #
coedge $-1 $150 $151 $152 $153 forward $59 $-1 #
face $-1 $154 $155 $35 $-1 $156 reversed single #
loop $-1 $-1 $157 $61 #
plane-surface $-1 0 0 5.5171238870243329 0 0 1 1 0 0 forward_v I I I I #
coedge $-1 $158 $159 $160 $161 forward $62 $-1 #
face $-1 $162 $163 $36 $-1 $164 reversed single #
loop $-1 $-1 $165 $64 #
plane-surface $-1 -23.373541871045916 12.75390560296869 81.844420562755147 0.70710678939079041 0 0.70710677298230451 0.70710677298230451 0 -0.70710678939079041 forward_v I I I I #
coedge $-1 $166 $167 $168 $169 reversed $65 $-1 #
face $-1 $-1 $170 $37 $-1 $171 forward single #
loop $-1 $172 $173 $67 #
cone-surface $-1 53.386008562015647 10.321857674348085 2.474408417890622 -0.70710678939079041 0 -0.70710677298230451 0.17677669324557613 0 -0.1767766973476976 1 I I -0.70710678118654746 0.70710678118654746 0.25 forward I I I I #
loop $-1 $-1 $174 $48 #
coedge $-1 $108 $108 $175 $176 reversed $68 $-1 #
face $-1 $-1 $177 $38 $-1 $178 forward single #
loop $-1 $179 $180 $70 #
cone-surface $-1 53.386008562015647 12.75390560296869 2.474408417890622 -0.70710678939079041 0 -0.70710677298230451 0.17677669324557613 0 -0.1767766973476976 1 I I -0.70710678118654746 0.70710678118654746 0.25 forward I I I I #
loop $-1 $-1 $181 $49 #
coedge $-1 $113 $113 $182 $183 reversed $71 $-1 #
face $-1 $-1 $184 $39 $-1 $185 forward single #
loop $-1 $186 $187 $73 #
cone-surface $-1 53.386008562015647 15.185953531589295 2.474408417890622 -0.70710678939079041 0 -0.70710677298230451 0.17677669324557613 0 -0.1767766973476976 1 I I -0.70710678118654746 0.70710678118654746 0.25 forward I I I I #
loop $-1 $-1 $188 $50 #
coedge $-1 $118 $118 $189 $190 reversed $74 $-1 #
face $-1 $191 $192 $40 $-1 $193 reversed single #
loop $-1 $-1 $194 $76 #
plane-surface $-1 -56.428724021118811 11.768301735260099 1.6797982127616464 -0.84804810408105047 0 0.52991925155115449 0.52991925155115449 0 0.84804810408105047 forward_v I I I I #
coedge $-1 $195 $196 $197 $198 reversed $77 $-1 #
face $-1 $-1 $199 $41 $-1 $200 forward single #
loop $-1 $201 $202 $79 #
cone-surface $-1 -52.558757857033847 8.7448914860143425 1.9294021980996909 0.84804810408105047 0 -0.52991925155115449 0.26495962577557725 0 0.42402405204052523 1 I I -0.70710678118654746 0.70710678118654746 0.5 forward I I I I #
loop $-1 $-1 $203 $52 #
coedge $-1 $127 $127 $204 $205 reversed $80 $-1 #
face $-1 $-1 $206 $42 $-1 $207 forward single #
loop $-1 $208 $209 $82 #
cone-surface $-1 -52.558757857033847 11.768301735260099 1.9294021980996909 0.84804810408105047 0 -0.52991925155115449 0.26495962577557725 0 0.42402405204052523 1 I I -0.70710678118654746 0.70710678118654746 0.5 forward I I I I #
loop $-1 $-1 $210 $53 #
coedge $-1 $132 $132 $211 $212 reversed $83 $-1 #
face $-1 $-1 $213 $43 $-1 $214 forward single #
loop $-1 $215 $216 $85 #
cone-surface $-1 -52.558757857033847 14.791711984505856 1.9294021980996909 0.84804810408105047 0 -0.52991925155115449 0.26495962577557725 0 0.42402405204052523 1 I I -0.70710678118654746 0.70710678118654746 0.5 forward I I I I #
loop $-1 $-1 $217 $54 #
coedge $-1 $137 $137 $218 $219 reversed $86 $-1 #
face $-1 $220 $221 $33 $-1 $222 reversed single #
loop $-1 $-1 $223 $88 #
plane-surface $-1 0 0 -5.5171238870243329 0 0 1 1 0 0 forward_v I I I I #
coedge $-1 $224 $225 $226 $227 forward $89 $-1 #
coedge $-1 $228 $91 $229 $230 reversed $56 $-1 #
coedge $-1 $91 $228 $231 $232 forward $56 $-1 #
coedge $-1 $233 $223 $91 $145 forward $139 $-1 #
edge $-1 $234 -56.428724021118811 $235 56.428724021118811 $91 $236 forward 7 unknown #
face $-1 $237 $238 $34 $-1 $239 reversed single #
loop $-1 $-1 $240 $92 #
plane-surface $-1 -56.428724021118811 0 0 1 0 0 0 0 -1 forward_v I I I I #
coedge $-1 $241 $242 $151 $243 forward $93 $-1 #
coedge $-1 $244 $95 $245 $246 reversed $59 $-1 #
coedge $-1 $95 $244 $149 $243 reversed $59 $-1 #
coedge $-1 $247 $248 $95 $153 reversed $249 $-1 #
edge $-1 $250 -5.5171238870243329 $251 5.5171238870243329 $152 $252 forward 7 unknown #
face $-1 $253 $254 $35 $-1 $255 reversed single #
loop $-1 $-1 $256 $96 #
plane-surface $-1 -54.928724021118811 29.180877164888592 0 0 -1 0 0 0 -1 forward_v I I I I #
coedge $-1 $257 $258 $158 $259 forward $97 $-1 #
coedge $-1 $260 $99 $157 $259 reversed $62 $-1 #
coedge $-1 $99 $260 $261 $262 reversed $62 $-1 #
coedge $-1 $263 $264 $99 $161 reversed $254 $-1 #
edge $-1 $265 -5.5171238870243329 $266 5.5171238870243329 $160 $267 forward 7 unknown #
face $-1 $268 $269 $36 $-1 $270 forward single #
loop $-1 $-1 $271 $100 #
plane-surface $-1 56.428725872938671 8.7004923886010097 161.64668645491989 0 1 0 0.70710678939079041 0 0.70710677298230451 forward_v I I I I #
coedge $-1 $272 $273 $274 $275 reversed $101 $-1 #
coedge $-1 $167 $103 $276 $277 reversed $65 $-1 #
coedge $-1 $103 $166 $272 $278 reversed $65 $-1 #
coedge $-1 $274 $279 $103 $169 forward $269 $-1 #
edge $-1 $280 -28.214361084649475 $281 -24.739390097032789 $168 $282 forward 7 unknown #
loop $-1 $-1 $175 $104 #
plane-surface $-1 -23.373541871045916 12.75390560296869 81.844420562755147 0.70710678939079041 0 0.70710677298230451 0.70710677298230451 0 -0.70710678939079041 forward_v I I I I #
loop $-1 $-1 $283 $67 #
coedge $-1 $173 $173 $174 $284 reversed $105 $-1 #
coedge $-1 $174 $174 $173 $284 forward $107 $-1 #
coedge $-1 $175 $175 $108 $176 forward $170 $-1 #
edge $-1 $285 0 $285 6.2831853071796004 $175 $286 forward 7 unknown #
loop $-1 $-1 $182 $109 #
plane-surface $-1 -23.373541871045916 12.75390560296869 81.844420562755147 0.70710678939079041 0 0.70710677298230451 0.70710677298230451 0 -0.70710678939079041 forward_v I I I I #
loop $-1 $-1 $287 $70 #
coedge $-1 $180 $180 $181 $288 reversed $110 $-1 #
coedge $-1 $181 $181 $180 $288 forward $112 $-1 #
coedge $-1 $182 $182 $113 $183 forward $177 $-1 #
edge $-1 $289 0 $289 6.2831853071796004 $182 $290 forward 7 unknown #
loop $-1 $-1 $189 $114 #
plane-surface $-1 -23.373541871045916 12.75390560296869 81.844420562755147 0.70710678939079041 0 0.70710677298230451 0.70710677298230451 0 -0.70710678939079041 forward_v I I I I #
loop $-1 $-1 $291 $73 #
coedge $-1 $187 $187 $188 $292 reversed $115 $-1 #
coedge $-1 $188 $188 $187 $292 forward $117 $-1 #
coedge $-1 $189 $189 $118 $190 forward $184 $-1 #
edge $-1 $293 0 $293 6.2831853071796004 $189 $294 forward 7 unknown #
face $-1 $295 $296 $40 $-1 $297 reversed single #
loop $-1 $-1 $298 $119 #
plane-surface $-1 -152.13726886476408 16.807318817336366 61.485132611277514 0 -1 0 0.84804810408105047 0 -0.52991925155115449 forward_v I I I I #
coedge $-1 $299 $300 $301 $302 reversed $120 $-1 #
coedge $-1 $196 $122 $303 $304 reversed $77 $-1 #
coedge $-1 $122 $195 $299 $305 reversed $77 $-1 #
coedge $-1 $301 $306 $122 $198 forward $307 $-1 #
edge $-1 $308 19.63991041126323 $309 22.037737538613271 $197 $310 forward 7 unknown #
loop $-1 $-1 $204 $123 #
plane-surface $-1 -56.428724021118811 11.768301735260099 1.6797982127616464 -0.84804810408105047 0 0.52991925155115449 0.52991925155115449 0 0.84804810408105047 forward_v I I I I #
loop $-1 $-1 $311 $79 #
coedge $-1 $202 $202 $203 $312 reversed $124 $-1 #
coedge $-1 $203 $203 $202 $312 forward $126 $-1 #
coedge $-1 $204 $204 $127 $205 forward $199 $-1 #
edge $-1 $313 0 $313 6.2831853071796004 $204 $314 forward 7 unknown #
loop $-1 $-1 $211 $128 #
plane-surface $-1 -56.428724021118811 11.768301735260099 1.6797982127616464 -0.84804810408105047 0 0.52991925155115449 0.52991925155115449 0 0.84804810408105047 forward_v I I I I #
loop $-1 $-1 $315 $82 #
coedge $-1 $209 $209 $210 $316 reversed $129 $-1 #
coedge $-1 $210 $210 $209 $316 forward $131 $-1 #
coedge $-1 $211 $211 $132 $212 forward $206 $-1 #
edge $-1 $317 0 $317 6.2831853071796004 $211 $318 forward 7 unknown #
loop $-1 $-1 $218 $133 #
plane-surface $-1 -56.428724021118811 11.768301735260099 1.6797982127616464 -0.84804810408105047 0 0.52991925155115449 0.52991925155115449 0 0.84804810408105047 forward_v I I I I #
loop $-1 $-1 $319 $85 #
coedge $-1 $216 $216 $217 $320 reversed $134 $-1 #
coedge $-1 $217 $217 $216 $320 forward $136 $-1 #
coedge $-1 $218 $218 $137 $219 forward $213 $-1 #
edge $-1 $321 0 $321 6.2831853071796004 $218 $322 forward 7 unknown #
face $-1 $323 $324 $33 $-1 $325 reversed single #
loop $-1 $-1 $326 $138 #
plane-surface $-1 -56.428724021118811 0 0 1 0 0 0 0 -1 forward_v I I I I #
coedge $-1 $144 $327 $328 $329 forward $139 $-1 #
coedge $-1 $330 $141 $331 $332 forward $89 $-1 #
coedge $-1 $141 $330 $228 $333 forward $89 $-1 #
coedge $-1 $229 $334 $141 $227 reversed $335 $-1 #
edge $-1 $336 -22.994097991112479 $337 22.994097991112479 $226 $338 forward 7 unknown #
coedge $-1 $143 $142 $225 $333 reversed $56 $-1 #
coedge $-1 $328 $226 $142 $230 forward $335 $-1 #
edge $-1 $336 -5.5171238870243329 $234 5.5171238870243329 $229 $339 forward 7 unknown #
coedge $-1 $340 $341 $143 $232 reversed $221 $-1 #
edge $-1 $342 -5.5171238870243329 $235 5.5171238870243329 $231 $343 forward 7 unknown #
coedge $-1 $327 $144 $341 $344 forward $139 $-1 #
vertex $-1 $230 $345 #
vertex $-1 $344 $346 #
straight-curve $-1 0 -22.994097991112479 -5.5171238870243329 -1 0 0 I I #
face $-1 $347 $249 $34 $-1 $348 reversed single #
loop $-1 $-1 $349 $146 #
plane-surface $-1 -54.928724021118811 -29.180877164888589 0 0 1 0 0 0 1 forward_v I I I I #
coedge $-1 $350 $351 $244 $352 forward $147 $-1 #
coedge $-1 $353 $149 $351 $354 forward $93 $-1 #
coedge $-1 $149 $353 $247 $355 forward $93 $-1 #
edge $-1 $250 53.428724021118811 $356 56.428724021118811 $149 $357 forward 7 unknown #
coedge $-1 $151 $150 $240 $352 reversed $59 $-1 #
coedge $-1 $358 $359 $150 $246 forward $360 $-1 #
edge $-1 $361 -56.428724021118811 $251 -53.428724021118811 $245 $362 forward 7 unknown #
coedge $-1 $363 $152 $242 $355 reversed $249 $-1 #
coedge $-1 $152 $363 $358 $364 reversed $249 $-1 #
loop $-1 $-1 $363 $237 #
vertex $-1 $243 $365 #
vertex $-1 $364 $366 #
straight-curve $-1 -53.428724021118811 -22.994097991112479 0 0 0 -1 I I #
face $-1 $367 $368 $35 $-1 $369 reversed single #
loop $-1 $-1 $160 $154 #
plane-surface $-1 -53.428724021118811 26.087487578000538 0 -1 0 0 0 0 1 forward_v I I I I #
coedge $-1 $370 $371 $372 $373 forward $155 $-1 #
coedge $-1 $374 $157 $264 $375 forward $97 $-1 #
coedge $-1 $157 $374 $376 $377 forward $97 $-1 #
edge $-1 $378 -56.428724021118811 $266 -53.428724021118811 $157 $379 forward 7 unknown #
coedge $-1 $159 $158 $380 $381 reversed $62 $-1 #
coedge $-1 $382 $383 $159 $262 forward $368 $-1 #
edge $-1 $265 53.428724021118811 $384 56.428724021118811 $261 $385 forward 7 unknown #
coedge $-1 $372 $160 $383 $386 reversed $254 $-1 #
coedge $-1 $160 $372 $257 $375 reversed $254 $-1 #
vertex $-1 $262 $387 #
vertex $-1 $375 $388 #
straight-curve $-1 -53.428724021118811 22.994097991112479 0 0 0 1 I I #
face $-1 $-1 $389 $36 $-1 $390 reversed single #
loop $-1 $-1 $168 $162 #
plane-surface $-1 0 0 5.5171238870243329 0 0 1 1 0 0 forward_v I I I I #
coedge $-1 $391 $392 $393 $394 reversed $163 $-1 #
coedge $-1 $395 $165 $167 $278 forward $101 $-1 #
coedge $-1 $165 $395 $391 $396 forward $101 $-1 #
coedge $-1 $393 $168 $165 $275 forward $269 $-1 #
edge $-1 $281 -10.430366015852025 $397 -2.3235395871166649 $274 $398 forward 7 unknown #
coedge $-1 $399 $400 $166 $277 forward $389 $-1 #
edge $-1 $401 -78.781190408689369 $280 -75.306219340435604 $276 $402 forward 7 unknown #
edge $-1 $281 107.94309688567806 $401 112.85744804223764 $167 $403 forward 7 unknown #
coedge $-1 $168 $393 $399 $404 forward $269 $-1 #
vertex $-1 $169 $405 #
vertex $-1 $169 $406 #
straight-curve $-1 28.214362936469335 16.80731881733637 5.5171238870243258 -1 0 0 I I #
coedge $-1 $283 $283 $-1 $407 reversed $172 $-1 #
edge $-1 $408 0 $408 6.2831853071796004 $173 $409 forward 7 unknown #
vertex $-1 $176 $410 #
ellipse-curve $-1 54.691238527310468 10.321857674348085 3.7796383528974404 0.70710678939079041 0 0.70710677298230451 0.35355338649115226 0 -0.35355339469539521 1 I I #
coedge $-1 $287 $287 $-1 $411 reversed $179 $-1 #
edge $-1 $412 0 $412 6.2831853071796004 $180 $413 forward 7 unknown #
vertex $-1 $183 $414 #
ellipse-curve $-1 54.691238527310468 12.75390560296869 3.7796383528974404 0.70710678939079041 0 0.70710677298230451 0.35355338649115226 0 -0.35355339469539521 1 I I #
coedge $-1 $291 $291 $-1 $415 reversed $186 $-1 #
edge $-1 $416 0 $416 6.2831853071796004 $187 $417 forward 7 unknown #
vertex $-1 $190 $418 #
ellipse-curve $-1 54.691238527310468 15.185953531589295 3.7796383528974404 0.70710678939079041 0 0.70710677298230451 0.35355338649115226 0 -0.35355339469539521 1 I I #
face $-1 $-1 $307 $40 $-1 $419 forward single #
loop $-1 $-1 $420 $191 #
plane-surface $-1 -56.428724021118811 0 0 1 0 0 0 0 -1 forward_v I I I I #
coedge $-1 $421 $422 $423 $424 reversed $192 $-1 #
coedge $-1 $425 $194 $196 $305 forward $120 $-1 #
coedge $-1 $194 $425 $421 $426 forward $120 $-1 #
coedge $-1 $423 $197 $194 $302 forward $307 $-1 #
edge $-1 $309 0.8451337855537826 $427 10.923167949706317 $301 $428 forward 7 unknown #
coedge $-1 $429 $430 $195 $304 forward $296 $-1 #
edge $-1 $431 -29.062768092877111 $308 -25.225442418614424 $303 $432 forward 7 unknown #
edge $-1 $309 -4.5248915194743988 $431 0 $196 $433 forward 7 unknown #
coedge $-1 $197 $423 $429 $434 forward $307 $-1 #
loop $-1 $-1 $423 $295 #
vertex $-1 $304 $435 #
vertex $-1 $198 $436 #
straight-curve $-1 -76.068634432382041 6.7292846531838322 5.5171238870243329 1 0 0 I I #
coedge $-1 $311 $311 $-1 $437 reversed $201 $-1 #
edge $-1 $438 0 $438 6.2831853071796004 $202 $439 forward 7 unknown #
vertex $-1 $205 $440 #
ellipse-curve $-1 -55.22981045744379 8.7448914860143425 3.5984610498929905 -0.84804810408105047 0 0.52991925155115449 0.52991925155115449 0 0.84804810408105047 1 I I #
coedge $-1 $315 $315 $-1 $441 reversed $208 $-1 #
edge $-1 $442 0 $442 6.2831853071796004 $209 $443 forward 7 unknown #
vertex $-1 $212 $444 #
ellipse-curve $-1 -55.22981045744379 11.768301735260099 3.5984610498929905 -0.84804810408105047 0 0.52991925155115449 0.52991925155115449 0 0.84804810408105047 1 I I #
coedge $-1 $319 $319 $-1 $445 reversed $215 $-1 #
edge $-1 $446 0 $446 6.2831853071796004 $216 $447 forward 7 unknown #
vertex $-1 $219 $448 #
ellipse-curve $-1 -55.22981045744379 14.791711984505856 3.5984610498929905 -0.84804810408105047 0 0.52991925155115449 0.52991925155115449 0 0.84804810408105047 1 I I #
face $-1 $-1 $335 $33 $-1 $449 reversed single #
loop $-1 $-1 $331 $220 #
plane-surface $-1 0 22.994097991112479 0 0 -1 0 0 0 -1 forward_v I I I I #
coedge $-1 $341 $340 $450 $451 forward $221 $-1 #
coedge $-1 $223 $233 $452 $453 forward $139 $-1 #
coedge $-1 $334 $229 $223 $329 reversed $335 $-1 #
edge $-1 $454 -22.994097991112479 $234 22.994097991112479 $328 $455 forward 7 unknown #
coedge $-1 $225 $224 $340 $456 forward $89 $-1 #
coedge $-1 $457 $450 $224 $332 reversed $324 $-1 #
edge $-1 $337 -56.428724021118811 $458 56.428724021118811 $331 $459 forward 7 unknown #
edge $-1 $342 -56.428724021118811 $336 56.428724021118811 $228 $460 forward 7 unknown #
coedge $-1 $226 $328 $457 $461 reversed $335 $-1 #
loop $-1 $-1 $229 $323 #
vertex $-1 $227 $462 #
vertex $-1 $227 $463 #
straight-curve $-1 56.428724021118811 0 5.5171238870243329 0 1 0 I I #
straight-curve $-1 56.428724021118811 -22.994097991112479 0 0 0 -1 I I #
coedge $-1 $326 $231 $330 $456 reversed $221 $-1 #
coedge $-1 $231 $326 $233 $344 reversed $221 $-1 #
vertex $-1 $456 $464 #
straight-curve $-1 -56.428724021118811 -22.994097991112479 0 0 0 -1 I I #
edge $-1 $235 -22.994097991112479 $465 22.994097991112479 $341 $466 forward 7 unknown #
point $-1 56.428724021118811 -22.994097991112479 -5.5171238870243329 #
point $-1 -56.428724021118811 -22.994097991112479 -5.5171238870243329 #
face $-1 $-1 $360 $34 $-1 $467 reversed single #
plane-surface $-1 -53.428724021118811 -26.087487578000534 0 -1 0 0 0 0 1 forward_v I I I I #
coedge $-1 $468 $469 $470 $471 forward $238 $-1 #
coedge $-1 $470 $240 $359 $472 reversed $147 $-1 #
coedge $-1 $240 $470 $241 $354 reversed $147 $-1 #
edge $-1 $356 -5.5171238870243329 $361 5.5171238870243329 $240 $473 forward 7 unknown #
coedge $-1 $242 $241 $469 $474 forward $93 $-1 #
edge $-1 $356 22.994097991112479 $475 29.180877164888589 $351 $476 forward 7 unknown #
edge $-1 $477 -3.0933895868880548 $250 3.0933895868880548 $247 $478 forward 7 unknown #
vertex $-1 $354 $479 #
straight-curve $-1 0 -22.994097991112479 5.5171238870243329 -1 0 0 I I #
coedge $-1 $480 $245 $248 $364 forward $360 $-1 #
coedge $-1 $245 $480 $350 $472 forward $360 $-1 #
loop $-1 $-1 $245 $347 #
vertex $-1 $352 $481 #
straight-curve $-1 0 -22.994097991112479 -5.5171238870243329 1 0 0 I I #
coedge $-1 $248 $247 $482 $483 forward $249 $-1 #
edge $-1 $251 -3.0933895868880548 $484 3.0933895868880548 $248 $485 forward 7 unknown #
point $-1 -53.428724021118811 -22.994097991112479 5.5171238870243329 #
point $-1 -53.428724021118811 -22.994097991112479 -5.5171238870243329 #
face $-1 $-1 $486 $35 $-1 $487 reversed single #
loop $-1 $-1 $261 $253 #
plane-surface $-1 0 0 -5.5171238870243329 0 0 1 1 0 0 forward_v I I I I #
coedge $-1 $488 $256 $489 $490 reversed $155 $-1 #
coedge $-1 $256 $488 $374 $491 reversed $155 $-1 #
coedge $-1 $264 $263 $256 $373 reversed $254 $-1 #
edge $-1 $492 -5.5171238870243329 $493 5.5171238870243329 $372 $494 forward 7 unknown #
coedge $-1 $258 $257 $371 $491 forward $97 $-1 #
edge $-1 $266 -3.0933895868880548 $492 3.0933895868880548 $264 $495 forward 7 unknown #
coedge $-1 $496 $380 $258 $377 reversed $486 $-1 #
edge $-1 $497 -29.180877164888592 $378 -22.994097991112479 $376 $498 forward 7 unknown #
vertex $-1 $381 $499 #
straight-curve $-1 0 22.994097991112479 5.5171238870243329 1 0 0 I I #
coedge $-1 $376 $500 $260 $381 forward $486 $-1 #
edge $-1 $384 -5.5171238870243329 $378 5.5171238870243329 $380 $501 forward 7 unknown #
coedge $-1 $489 $261 $500 $502 forward $368 $-1 #
coedge $-1 $261 $489 $263 $386 forward $368 $-1 #
vertex $-1 $502 $503 #
straight-curve $-1 0 22.994097991112479 -5.5171238870243329 -1 0 0 I I #
edge $-1 $493 -3.0933895868880548 $265 3.0933895868880548 $263 $504 forward 7 unknown #
point $-1 -53.428724021118811 22.994097991112483 -5.5171238870243329 #
point $-1 -53.428724021118811 22.994097991112483 5.5171238870243329 #
loop $-1 $-1 $276 $268 #
plane-surface $-1 56.428724021118811 0 0 -1 0 0 0 0 1 forward_v I I I I #
coedge $-1 $392 $271 $273 $396 reversed $163 $-1 #
coedge $-1 $271 $391 $505 $506 reversed $163 $-1 #
coedge $-1 $279 $274 $271 $394 forward $269 $-1 #
edge $-1 $397 24.739390097032789 $507 28.214361084649475 $393 $508 forward 7 unknown #
coedge $-1 $273 $272 $400 $509 reversed $101 $-1 #
edge $-1 $510 -112.85744804223764 $397 -107.94309688567806 $391 $511 forward 7 unknown #
vertex $-1 $275 $512 #
straight-curve $-1 52.953753033502124 6.3769528014843448 5.5171238870243258 0 -1 0 I I #
coedge $-1 $505 $276 $279 $404 reversed $389 $-1 #
coedge $-1 $276 $505 $395 $509 forward $389 $-1 #
vertex $-1 $277 $513 #
straight-curve $-1 56.428724021118811 16.80731881733637 80.823343227459944 0 0 1 I I #
straight-curve $-1 -23.373541871045916 16.80731881733637 81.844420562755147 0.70710677298230451 0 -0.70710678939079041 I I #
edge $-1 $507 8.7004923886010097 $280 16.80731881733637 $399 $514 forward 7 unknown #
point $-1 56.428724021118811 16.80731881733637 5.5171238870243329 #
point $-1 52.953753033502124 16.80731881733637 5.5171238870243258 #
edge $-1 $515 1 $515 0 $283 $-1 forward 7 unknown #
vertex $-1 $284 $516 #
ellipse-curve $-1 53.562785259363345 10.321857674348085 2.6511851111361984 0.70710678939079041 0 0.70710677298230451 0.35355338649115226 0 -0.35355339469539521 1 I I #
point $-1 55.044791913801618 10.321857674348085 3.4260849582020461 #
edge $-1 $517 1 $517 0 $287 $-1 forward 7 unknown #
vertex $-1 $288 $518 #
ellipse-curve $-1 53.562785259363345 12.75390560296869 2.6511851111361984 0.70710678939079041 0 0.70710677298230451 0.35355338649115226 0 -0.35355339469539521 1 I I #
point $-1 55.044791913801618 12.75390560296869 3.4260849582020461 #
edge $-1 $519 1 $519 0 $291 $-1 forward 7 unknown #
vertex $-1 $292 $520 #
ellipse-curve $-1 53.562785259363345 15.185953531589295 2.6511851111361984 0.70710678939079041 0 0.70710677298230451 0.35355338649115226 0 -0.35355339469539521 1 I I #
point $-1 55.044791913801618 15.185953531589295 3.4260849582020461 #
plane-surface $-1 0 0 5.5171238870243329 0 0 1 1 0 0 forward_v I I I I #
coedge $-1 $430 $429 $422 $521 forward $296 $-1 #
coedge $-1 $422 $298 $300 $426 reversed $192 $-1 #
coedge $-1 $298 $421 $420 $521 reversed $192 $-1 #
coedge $-1 $306 $301 $298 $424 forward $307 $-1 #
edge $-1 $427 -22.037737538613271 $522 -19.63991041126323 $423 $523 forward 7 unknown #
coedge $-1 $300 $299 $430 $524 reversed $120 $-1 #
edge $-1 $525 0 $427 4.5248915194743988 $421 $526 forward 7 unknown #
vertex $-1 $302 $527 #
straight-curve $-1 -54.030896893768777 5.8841508676300496 5.5171238870243329 0 1 0 I I #
coedge $-1 $420 $303 $306 $434 reversed $296 $-1 #
coedge $-1 $303 $420 $425 $524 forward $296 $-1 #
vertex $-1 $304 $528 #
straight-curve $-1 -56.428724021118811 6.7292846531838322 30.742566305638757 0 0 1 I I #
straight-curve $-1 -56.428724021118811 6.7292846531838322 1.6797982127616464 -0.52991925155115449 0 -0.84804810408105047 I I #
edge $-1 $522 -16.807318817336366 $308 -6.7292846531838322 $429 $529 forward 7 unknown #
point $-1 -56.428724021118811 6.7292846531838322 5.5171238870243329 #
point $-1 -54.030896893768769 6.7292846531838322 5.5171238870243329 #
edge $-1 $530 1 $530 0 $311 $-1 forward 7 unknown #
vertex $-1 $312 $531 #
ellipse-curve $-1 -52.982781909074369 8.7448914860143425 2.1943618238752682 -0.84804810408105047 0 0.52991925155115449 0.52991925155115449 0 0.84804810408105047 1 I I #
point $-1 -54.699891205892641 8.7448914860143425 4.4465091539740431 #
edge $-1 $532 1 $532 0 $315 $-1 forward 7 unknown #
vertex $-1 $316 $533 #
ellipse-curve $-1 -52.982781909074369 11.768301735260099 2.1943618238752682 -0.84804810408105047 0 0.52991925155115449 0.52991925155115449 0 0.84804810408105047 1 I I #
point $-1 -54.699891205892641 11.768301735260099 4.4465091539740431 #
edge $-1 $534 1 $534 0 $319 $-1 forward 7 unknown #
vertex $-1 $320 $535 #
ellipse-curve $-1 -52.982781909074369 14.791711984505856 2.1943618238752682 -0.84804810408105047 0 0.52991925155115449 0.52991925155115449 0 0.84804810408105047 1 I I #
point $-1 -54.699891205892641 14.791711984505856 4.4465091539740431 #
plane-surface $-1 56.428724021118811 0 0 -1 0 0 0 0 1 forward_v I I I I #
coedge $-1 $331 $452 $326 $451 reversed $324 $-1 #
edge $-1 $458 -5.5171238870243329 $465 5.5171238870243329 $450 $536 forward 7 unknown #
coedge $-1 $450 $457 $327 $453 reversed $324 $-1 #
edge $-1 $465 -56.428724021118811 $454 56.428724021118811 $452 $537 forward 7 unknown #
vertex $-1 $329 $538 #
straight-curve $-1 56.428724021118811 0 -5.5171238870243329 0 -1 0 I I #
edge $-1 $458 -22.994097991112479 $342 22.994097991112479 $340 $539 forward 7 unknown #
coedge $-1 $452 $331 $334 $461 forward $324 $-1 #
vertex $-1 $332 $540 #
straight-curve $-1 0 22.994097991112479 5.5171238870243329 -1 0 0 I I #
straight-curve $-1 0 -22.994097991112479 5.5171238870243329 1 0 0 I I #
edge $-1 $337 -5.5171238870243329 $454 5.5171238870243329 $334 $541 forward 7 unknown #
point $-1 56.428724021118811 -22.994097991112479 5.5171238870243329 #
point $-1 56.428724021118811 22.994097991112479 5.5171238870243329 #
point $-1 -56.428724021118811 -22.994097991112479 5.5171238870243329 #
vertex $-1 $453 $542 #
straight-curve $-1 -56.428724021118811 0 -5.5171238870243329 0 1 0 I I #
plane-surface $-1 0 0 -5.5171238870243329 0 0 1 1 0 0 forward_v I I I I #
coedge $-1 $482 $349 $480 $543 reversed $238 $-1 #
coedge $-1 $349 $482 $353 $474 reversed $238 $-1 #
coedge $-1 $351 $350 $349 $471 reversed $147 $-1 #
edge $-1 $475 -5.5171238870243329 $544 5.5171238870243329 $470 $545 forward 7 unknown #
edge $-1 $544 -29.180877164888589 $361 -22.994097991112479 $350 $546 forward 7 unknown #
straight-curve $-1 -56.428724021118811 -22.994097991112479 0 0 0 -1 I I #
edge $-1 $475 -1.5 $477 1.5 $469 $547 forward 7 unknown #
vertex $-1 $354 $548 #
straight-curve $-1 -56.428724021118811 0 5.5171238870243329 0 -1 0 I I #
vertex $-1 $355 $549 #
straight-curve $-1 -53.428724021118811 -26.087487578000534 5.5171238870243329 0 1 0 I I #
point $-1 -56.428724021118811 -22.994097991112479 5.5171238870243329 #
coedge $-1 $359 $358 $468 $543 forward $360 $-1 #
point $-1 -56.428724021118811 -22.994097991112479 -5.5171238870243329 #
coedge $-1 $469 $468 $363 $483 reversed $238 $-1 #
edge $-1 $477 -5.5171238870243329 $484 5.5171238870243329 $363 $550 forward 7 unknown #
vertex $-1 $483 $551 #
straight-curve $-1 -53.428724021118811 -26.087487578000534 -5.5171238870243329 0 -1 0 I I #
loop $-1 $-1 $380 $367 #
plane-surface $-1 -56.428724021118811 0 0 1 0 0 0 0 -1 forward_v I I I I #
coedge $-1 $371 $370 $496 $552 reversed $155 $-1 #
coedge $-1 $383 $382 $370 $490 forward $368 $-1 #
edge $-1 $553 -1.5 $493 1.5 $370 $554 forward 7 unknown #
edge $-1 $492 -1.5 $497 1.5 $371 $555 forward 7 unknown #
vertex $-1 $375 $556 #
vertex $-1 $386 $557 #
straight-curve $-1 -53.428724021118811 29.180877164888592 0 0 0 -1 I I #
straight-curve $-1 -53.428724021118811 26.087487578000538 5.5171238870243329 0 1 0 I I #
coedge $-1 $500 $376 $488 $552 forward $486 $-1 #
vertex $-1 $491 $558 #
straight-curve $-1 -56.428724021118811 0 5.5171238870243329 0 -1 0 I I #
point $-1 -56.428724021118811 22.994097991112479 5.5171238870243329 #
coedge $-1 $380 $496 $382 $502 reversed $486 $-1 #
straight-curve $-1 -56.428724021118811 22.994097991112479 0 0 0 1 I I #
edge $-1 $384 -3.0933895868880583 $553 3.0933895868880548 $500 $559 forward 7 unknown #
point $-1 -56.428724021118811 22.994097991112479 -5.5171238870243329 #
straight-curve $-1 -53.428724021118811 26.087487578000538 -5.5171238870243329 0 -1 0 I I #
coedge $-1 $400 $399 $392 $506 forward $389 $-1 #
edge $-1 $507 75.306219340435604 $510 78.781190408689369 $505 $560 forward 7 unknown #
vertex $-1 $404 $561 #
straight-curve $-1 28.214362936469335 8.7004923886010097 5.5171238870243258 1 0 0 I I #
edge $-1 $510 2.3235395871166649 $401 10.430366015852025 $400 $562 forward 7 unknown #
vertex $-1 $509 $563 #
straight-curve $-1 -23.373541871045916 8.7004923886010097 81.844420562755147 -0.70710677298230451 0 0.70710678939079041 I I #
point $-1 52.953753033502124 8.7004923886010097 5.5171238870243258 #
point $-1 56.428724021118811 16.80731881733637 2.0421528187705746 #
straight-curve $-1 56.428724021118811 0 5.5171238870243329 0 1 0 I I #
vertex $-1 $407 $564 #
point $-1 53.916338645854495 10.321857674348085 2.2976317164408031 #
vertex $-1 $411 $565 #
point $-1 53.916338645854495 12.75390560296869 2.2976317164408031 #
vertex $-1 $415 $566 #
point $-1 53.916338645854495 15.185953531589295 2.2976317164408031 #
edge $-1 $522 25.225442418614424 $525 29.062768092877111 $420 $567 forward 7 unknown #
vertex $-1 $434 $568 #
straight-curve $-1 -76.068634432382041 16.807318817336366 5.5171238870243329 -1 0 0 I I #
edge $-1 $525 -10.923167949706317 $431 -0.8451337855537826 $430 $569 forward 7 unknown #
vertex $-1 $524 $570 #
straight-curve $-1 -56.428724021118811 16.807318817336366 1.6797982127616464 0.52991925155115449 0 0.84804810408105047 I I #
point $-1 -54.030896893768769 16.807318817336366 5.5171238870243329 #
point $-1 -56.428724021118811 6.7292846531838322 1.6797982127616464 #
straight-curve $-1 -56.428724021118811 0 5.5171238870243329 0 -1 0 I I #
vertex $-1 $437 $571 #
point $-1 -52.45286265752322 8.7448914860143425 3.0424099279563186 #
vertex $-1 $441 $572 #
point $-1 -52.45286265752322 11.768301735260099 3.0424099279563186 #
vertex $-1 $445 $573 #
point $-1 -52.45286265752322 14.791711984505856 3.0424099279563186 #
straight-curve $-1 -56.428724021118811 22.994097991112479 0 0 0 -1 I I #
straight-curve $-1 0 22.994097991112479 -5.5171238870243329 1 0 0 I I #
point $-1 56.428724021118811 22.994097991112479 -5.5171238870243329 #
straight-curve $-1 -56.428724021118811 0 5.5171238870243329 0 -1 0 I I #
point $-1 -56.428724021118811 22.994097991112479 5.5171238870243329 #
straight-curve $-1 56.428724021118811 22.994097991112479 0 0 0 -1 I I #
point $-1 -56.428724021118811 22.994097991112479 -5.5171238870243329 #
edge $-1 $484 -1.5 $544 1.5 $468 $574 forward 7 unknown #
vertex $-1 $472 $575 #
straight-curve $-1 -56.428724021118811 -29.180877164888589 0 0 0 -1 I I #
straight-curve $-1 -56.428724021118811 0 -5.5171238870243329 0 1 0 I I #
straight-curve $-1 -54.928724021118811 -29.180877164888589 5.5171238870243329 1 0 0 I I #
point $-1 -56.428724021118811 -29.180877164888589 5.5171238870243329 #
point $-1 -53.428724021118811 -29.180877164888589 5.5171238870243329 #
straight-curve $-1 -53.428724021118811 -29.180877164888589 0 0 0 -1 I I #
point $-1 -53.428724021118811 -29.180877164888589 -5.5171238870243329 #
edge $-1 $497 -5.5171238870243329 $553 5.5171238870243329 $488 $576 forward 7 unknown #
vertex $-1 $490 $577 #
straight-curve $-1 -54.928724021118811 29.180877164888592 -5.5171238870243329 1 0 0 I I #
straight-curve $-1 -54.928724021118811 29.180877164888592 5.5171238870243329 -1 0 0 I I #
point $-1 -53.428724021118811 29.180877164888592 5.5171238870243329 #
point $-1 -53.428724021118811 29.180877164888592 -5.5171238870243329 #
point $-1 -56.428724021118811 29.180877164888592 5.5171238870243329 #
straight-curve $-1 -56.428724021118811 26.087487578000538 -5.5171238870243329 0 1 0 I I #
straight-curve $-1 56.428724021118811 8.7004923886010097 80.823343227459944 0 0 -1 I I #
point $-1 56.428724021118811 8.7004923886010097 5.5171238870243329 #
straight-curve $-1 56.428724021118803 6.3769528014843448 2.0421528187705817 0 1 0 I I #
point $-1 56.428724021118811 8.7004923886010097 2.0421528187705746 #
point $-1 53.209231864667949 10.321857674348085 2.2976317246450457 #
point $-1 53.209231864667949 12.75390560296869 2.2976317246450457 #
point $-1 53.209231864667949 15.185953531589295 2.2976317246450457 #
straight-curve $-1 -56.428724021118811 16.807318817336366 30.742566305638757 0 0 -1 I I #
point $-1 -56.428724021118811 16.807318817336366 5.5171238870243329 #
straight-curve $-1 -56.428724021118811 5.8841508676300496 1.6797982127616407 0 -1 0 I I #
point $-1 -56.428724021118811 16.807318817336366 1.6797982127616464 #
point $-1 -52.134733804993324 8.7448914860143425 1.6644425723241136 #
point $-1 -52.134733804993324 11.768301735260099 1.6644425723241136 #
point $-1 -52.134733804993324 14.791711984505856 1.6644425723241136 #
straight-curve $-1 -54.928724021118811 -29.180877164888589 -5.5171238870243329 -1 0 0 I I #
point $-1 -56.428724021118811 -29.180877164888589 -5.5171238870243329 #
straight-curve $-1 -56.428724021118811 29.180877164888592 0 0 0 -1 I I #
point $-1 -56.428724021118811 29.180877164888592 -5.5171238870243329 #
End-of-ACIS-data 