500 0 9 0           
7 Unknown 11 ACIS 5.0 NT 24 Fri Mar 26 02:33:56 1999 
-1 9.9999999999999995e-007 1e-010 
body $-1 $9 $-1 $10 #
body $-1 $11 $-1 $12 #
body $-1 $13 $-1 $14 #
body $-1 $15 $-1 $16 #
body $-1 $17 $-1 $18 #
body $-1 $19 $-1 $20 #
body $-1 $21 $-1 $22 #
body $-1 $23 $-1 $24 #
body $-1 $25 $-1 $26 #
lump $-1 $-1 $27 $0 #
transform $-1 1 0 0 0 1 0 0 0 1 74.711752677999215 43.291638103782319 10.364256241612928 1 rotate no_reflect no_shear #
lump $-1 $-1 $28 $1 #
transform $-1 1 0 0 0 1 0 0 0 1 74.711752677999215 43.291638103782319 10.364256241612928 1 rotate no_reflect no_shear #
lump $-1 $-1 $29 $2 #
transform $-1 1 0 0 0 1 0 0 0 1 74.711752677999215 43.291638103782319 10.364256241612928 1 rotate no_reflect no_shear #
lump $-1 $-1 $30 $3 #
transform $-1 1 0 0 0 1 0 0 0 1 74.711752677999215 43.291638103782319 10.364256241612928 1 rotate no_reflect no_shear #
lump $-1 $-1 $31 $4 #
transform $-1 1 0 0 0 1 0 0 0 1 74.711752677999215 43.291638103782319 10.364256241612928 1 rotate no_reflect no_shear #
lump $-1 $-1 $32 $5 #
transform $-1 1 0 0 0 1 0 0 0 1 74.711752677999215 43.291638103782319 10.364256241612928 1 rotate no_reflect no_shear #
lump $-1 $-1 $33 $6 #
transform $-1 1 0 0 0 1 0 0 0 1 74.711752677999215 43.291638103782319 10.364256241612928 1 rotate no_reflect no_shear #
lump $-1 $-1 $34 $7 #
transform $-1 1 0 0 0 1 0 0 0 1 74.711752677999215 43.291638103782319 10.364256241612928 1 rotate no_reflect no_shear #
lump $-1 $-1 $35 $8 #
transform $-1 1 0 0 0 1 0 0 0 1 74.711752677999215 43.291638103782319 10.364256241612928 1 rotate no_reflect no_shear #
shell $-1 $-1 $-1 $36 $-1 $9 #
shell $-1 $-1 $-1 $37 $-1 $11 #
shell $-1 $-1 $-1 $38 $-1 $13 #
shell $-1 $-1 $-1 $39 $-1 $15 #
shell $-1 $-1 $-1 $40 $-1 $17 #
shell $-1 $-1 $-1 $41 $-1 $19 #
shell $-1 $-1 $-1 $42 $-1 $21 #
shell $-1 $-1 $-1 $43 $-1 $23 #
shell $-1 $-1 $-1 $44 $-1 $25 #
face $-1 $45 $46 $27 $-1 $47 forward single #
face $-1 $48 $49 $28 $-1 $50 reversed single #
face $-1 $51 $52 $29 $-1 $53 reversed single #
face $-1 $54 $55 $30 $-1 $56 forward single #
face $-1 $57 $58 $31 $-1 $59 forward single #
face $-1 $60 $61 $32 $-1 $62 reversed single #
face $-1 $63 $64 $33 $-1 $65 forward single #
face $-1 $66 $67 $34 $-1 $68 forward single #
face $-1 $69 $70 $35 $-1 $71 forward single #
face $-1 $72 $73 $27 $-1 $74 reversed single #
loop $-1 $-1 $75 $36 #
plane-surface $-1 0 0 10.364256241612928 0 0 1 1 0 0 forward_v I I I I #
face $-1 $76 $77 $28 $-1 $78 reversed single #
loop $-1 $-1 $79 $37 #
plane-surface $-1 0 -38.528068796476141 5.5576730726075763 0 0 1 1 0 0 forward_v I I I I #
face $-1 $80 $81 $29 $-1 $82 reversed single #
loop $-1 $-1 $83 $38 #
plane-surface $-1 85.771219356561375 31.145976908132312 217.47578594912815 0 -1 0 -0.74314483375859142 0 -0.66913059716165679 forward_v I I I I #
face $-1 $84 $85 $30 $-1 $86 forward single #
loop $-1 $87 $88 $39 #
cone-surface $-1 72.455606372332824 15.399909666916322 7.9622536562793318 -0.74314483375859142 0 -0.66913059716165679 0.66913059716165679 0 -0.74314483375859142 1 I I 0 1 1 forward I I I I #
face $-1 $89 $90 $31 $-1 $91 forward single #
loop $-1 $92 $93 $40 #
cone-surface $-1 72.455606372332824 24.847550011645907 7.9622536562793318 -0.74314483375859142 0 -0.66913059716165679 0.66913059716165679 0 -0.74314483375859142 1 I I 0 1 1 forward I I I I #
face $-1 $94 $95 $32 $-1 $96 reversed single #
loop $-1 $-1 $97 $41 #
plane-surface $-1 -187.48310491914819 -5.8192038870970322 101.3955373744044 0 1 0 -0.75470958851134928 0 0.65605901945558964 forward_v I I I I #
face $-1 $98 $99 $33 $-1 $100 forward single #
loop $-1 $101 $102 $42 #
cone-surface $-1 -71.077112481447017 -4.1036836266502803 6.3495982035132119 0.75470958851134928 0 -0.65605901945558964 0.32802950972779482 0 0.37735479425567464 1 I I 0 1 0.5 forward I I I I #
face $-1 $103 $104 $34 $-1 $105 forward single #
loop $-1 $106 $107 $43 #
cone-surface $-1 -71.077112481447017 -1.5304032359801525 6.3495982035132119 0.75470958851134928 0 -0.65605901945558964 0.32802950972779482 0 0.37735479425567464 1 I I 0 1 0.5 forward I I I I #
face $-1 $108 $109 $35 $-1 $110 forward single #
loop $-1 $111 $112 $44 #
cone-surface $-1 -71.077112481447017 1.0428771546899753 6.3495982035132119 0.75470958851134928 0 -0.65605901945558964 0.32802950972779482 0 0.37735479425567464 1 I I 0 1 0.5 forward I I I I #
face $-1 $113 $114 $27 $-1 $115 reversed single #
loop $-1 $-1 $116 $45 #
plane-surface $-1 0 0 -10.364256241612928 0 0 1 1 0 0 forward_v I I I I #
coedge $-1 $117 $118 $119 $120 forward $46 $-1 #
face $-1 $121 $122 $28 $-1 $123 reversed single #
loop $-1 $-1 $124 $48 #
plane-surface $-1 0 -33.764499489169964 7.960964657110253 0 -1 0 0 0 -1 forward_v I I I I #
coedge $-1 $125 $126 $127 $128 reversed $49 $-1 #
face $-1 $129 $130 $29 $-1 $131 reversed single #
loop $-1 $-1 $132 $51 #
plane-surface $-1 -25.27208669084807 20.123729839281118 117.4919465802809 0.74314483375859142 0 0.66913059716165679 0.66913059716165679 0 -0.74314483375859142 forward_v I I I I #
coedge $-1 $133 $134 $135 $136 reversed $52 $-1 #
face $-1 $-1 $137 $30 $-1 $138 forward single #
loop $-1 $139 $140 $54 #
cone-surface $-1 71.590705715946797 15.399909666916322 7.1834936267356326 -0.74314483375859142 0 -0.66913059716165679 0.3345652985808284 0 -0.37157241687929571 1 I I -0.70710678118654746 0.70710678118654746 0.5 forward I I I I #
loop $-1 $-1 $141 $39 #
coedge $-1 $88 $88 $142 $143 reversed $55 $-1 #
face $-1 $-1 $144 $31 $-1 $145 forward single #
loop $-1 $146 $147 $57 #
cone-surface $-1 71.590705715946797 24.847550011645907 7.1834936267356326 -0.74314483375859142 0 -0.66913059716165679 0.3345652985808284 0 -0.37157241687929571 1 I I -0.70710678118654746 0.70710678118654746 0.5 forward I I I I #
loop $-1 $-1 $148 $40 #
coedge $-1 $93 $93 $149 $150 reversed $58 $-1 #
face $-1 $151 $152 $32 $-1 $153 reversed single #
loop $-1 $-1 $154 $60 #
plane-surface $-1 -74.711752677999215 -1.5304032359801525 3.3648989669310225 -0.75470958851134928 0 0.65605901945558964 0.65605901945558964 0 0.75470958851134928 forward_v I I I I #
coedge $-1 $155 $156 $157 $158 reversed $61 $-1 #
face $-1 $-1 $159 $33 $-1 $160 forward single #
loop $-1 $161 $162 $63 #
cone-surface $-1 -70.296019036200548 -4.1036836266502803 5.6706040478905528 0.75470958851134928 0 -0.65605901945558964 0.16401475486389741 0 0.18867739712783732 1 I I -0.70710678118654746 0.70710678118654746 0.25 forward I I I I #
loop $-1 $-1 $163 $42 #
coedge $-1 $102 $102 $164 $165 reversed $64 $-1 #
face $-1 $-1 $166 $34 $-1 $167 forward single #
loop $-1 $168 $169 $66 #
cone-surface $-1 -70.296019036200548 -1.5304032359801525 5.6706040478905528 0.75470958851134928 0 -0.65605901945558964 0.16401475486389741 0 0.18867739712783732 1 I I -0.70710678118654746 0.70710678118654746 0.25 forward I I I I #
loop $-1 $-1 $170 $43 #
coedge $-1 $107 $107 $171 $172 reversed $67 $-1 #
face $-1 $-1 $173 $35 $-1 $174 forward single #
loop $-1 $175 $176 $69 #
cone-surface $-1 -70.296019036200548 1.0428771546899753 5.6706040478905528 0.75470958851134928 0 -0.65605901945558964 0.16401475486389741 0 0.18867739712783732 1 I I -0.70710678118654746 0.70710678118654746 0.25 forward I I I I #
loop $-1 $-1 $177 $44 #
coedge $-1 $112 $112 $178 $179 reversed $70 $-1 #
face $-1 $180 $181 $27 $-1 $182 reversed single #
loop $-1 $-1 $183 $72 #
plane-surface $-1 0 -43.291638103782319 0 0 1 0 0 0 1 forward_v I I I I #
coedge $-1 $184 $185 $186 $187 forward $73 $-1 #
coedge $-1 $188 $75 $189 $190 forward $46 $-1 #
coedge $-1 $75 $188 $191 $192 forward $46 $-1 #
coedge $-1 $193 $194 $75 $120 reversed $195 $-1 #
edge $-1 $196 -43.291638103782319 $197 43.291638103782319 $119 $198 forward 7 unknown #
face $-1 $199 $200 $28 $-1 $201 reversed single #
loop $-1 $-1 $202 $76 #
plane-surface $-1 -74.711752677999215 0 0 1 0 0 0 0 -1 forward_v I I I I #
coedge $-1 $203 $204 $205 $206 reversed $77 $-1 #
coedge $-1 $207 $79 $208 $209 reversed $49 $-1 #
coedge $-1 $79 $207 $203 $210 forward $49 $-1 #
coedge $-1 $205 $211 $79 $128 forward $212 $-1 #
edge $-1 $213 -24.027603705544248 $214 -14.500465090931893 $127 $215 forward 7 unknown #
face $-1 $216 $217 $29 $-1 $218 reversed single #
loop $-1 $-1 $219 $80 #
plane-surface $-1 85.771219356561375 9.101482770429925 217.47578594912815 0 1 0 0.74314483375859142 0 0.66913059716165679 forward_v I I I I #
coedge $-1 $220 $221 $222 $223 reversed $81 $-1 #
coedge $-1 $134 $83 $224 $225 reversed $52 $-1 #
coedge $-1 $83 $133 $220 $226 reversed $52 $-1 #
coedge $-1 $222 $227 $83 $136 forward $228 $-1 #
edge $-1 $229 -31.826142999718527 $230 -28.30050686739915 $135 $231 forward 7 unknown #
loop $-1 $-1 $142 $84 #
plane-surface $-1 -25.27208669084807 20.123729839281118 117.4919465802809 0.74314483375859142 0 0.66913059716165679 0.66913059716165679 0 -0.74314483375859142 forward_v I I I I #
loop $-1 $-1 $232 $54 #
coedge $-1 $140 $140 $141 $233 reversed $85 $-1 #
coedge $-1 $141 $141 $140 $233 forward $87 $-1 #
coedge $-1 $142 $142 $88 $143 forward $137 $-1 #
edge $-1 $234 0 $234 6.2831853071796004 $142 $235 forward 7 unknown #
loop $-1 $-1 $149 $89 #
plane-surface $-1 -25.27208669084807 20.123729839281118 117.4919465802809 0.74314483375859142 0 0.66913059716165679 0.66913059716165679 0 -0.74314483375859142 forward_v I I I I #
loop $-1 $-1 $236 $57 #
coedge $-1 $147 $147 $148 $237 reversed $90 $-1 #
coedge $-1 $148 $148 $147 $237 forward $92 $-1 #
coedge $-1 $149 $149 $93 $150 forward $144 $-1 #
edge $-1 $238 0 $238 6.2831853071796004 $149 $239 forward 7 unknown #
face $-1 $240 $241 $32 $-1 $242 forward single #
loop $-1 $-1 $243 $94 #
plane-surface $-1 -187.48310491914819 2.7583974151367272 101.3955373744044 0 -1 0 0.75470958851134928 0 -0.65605901945558964 forward_v I I I I #
coedge $-1 $244 $245 $246 $247 reversed $95 $-1 #
coedge $-1 $156 $97 $248 $249 reversed $61 $-1 #
coedge $-1 $97 $155 $244 $250 reversed $61 $-1 #
coedge $-1 $246 $251 $97 $158 forward $241 $-1 #
edge $-1 $252 19.02979978157488 $253 25.114248078441989 $157 $254 forward 7 unknown #
loop $-1 $-1 $164 $98 #
plane-surface $-1 -74.711752677999215 -1.5304032359801525 3.3648989669310225 -0.75470958851134928 0 0.65605901945558964 0.65605901945558964 0 0.75470958851134928 forward_v I I I I #
loop $-1 $-1 $255 $63 #
coedge $-1 $162 $162 $163 $256 reversed $99 $-1 #
coedge $-1 $163 $163 $162 $256 forward $101 $-1 #
coedge $-1 $164 $164 $102 $165 forward $159 $-1 #
edge $-1 $257 0 $257 6.2831853071796004 $164 $258 forward 7 unknown #
loop $-1 $-1 $171 $103 #
plane-surface $-1 -74.711752677999215 -1.5304032359801525 3.3648989669310225 -0.75470958851134928 0 0.65605901945558964 0.65605901945558964 0 0.75470958851134928 forward_v I I I I #
loop $-1 $-1 $259 $66 #
coedge $-1 $169 $169 $170 $260 reversed $104 $-1 #
coedge $-1 $170 $170 $169 $260 forward $106 $-1 #
coedge $-1 $171 $171 $107 $172 forward $166 $-1 #
edge $-1 $261 0 $261 6.2831853071796004 $171 $262 forward 7 unknown #
loop $-1 $-1 $178 $108 #
plane-surface $-1 -74.711752677999215 -1.5304032359801525 3.3648989669310225 -0.75470958851134928 0 0.65605901945558964 0.65605901945558964 0 0.75470958851134928 forward_v I I I I #
loop $-1 $-1 $263 $69 #
coedge $-1 $176 $176 $177 $264 reversed $109 $-1 #
coedge $-1 $177 $177 $176 $264 forward $111 $-1 #
coedge $-1 $178 $178 $112 $179 forward $173 $-1 #
edge $-1 $265 0 $265 6.2831853071796004 $178 $266 forward 7 unknown #
face $-1 $267 $268 $27 $-1 $269 reversed single #
loop $-1 $-1 $270 $113 #
plane-surface $-1 -74.711752677999215 0 0 1 0 0 0 0 -1 forward_v I I I I #
coedge $-1 $271 $191 $272 $273 forward $114 $-1 #
coedge $-1 $274 $116 $271 $275 forward $73 $-1 #
coedge $-1 $116 $274 $276 $277 forward $73 $-1 #
coedge $-1 $194 $193 $116 $187 reversed $195 $-1 #
edge $-1 $278 -43.291638103782319 $279 43.291638103782319 $186 $280 forward 7 unknown #
coedge $-1 $118 $117 $281 $282 forward $46 $-1 #
coedge $-1 $283 $284 $117 $190 reversed $268 $-1 #
edge $-1 $197 -74.711752677999215 $285 74.711752677999215 $189 $286 forward 7 unknown #
coedge $-1 $183 $287 $118 $192 reversed $114 $-1 #
edge $-1 $288 -74.711752677999215 $196 74.711752677999215 $191 $289 forward 7 unknown #
coedge $-1 $186 $119 $287 $290 forward $195 $-1 #
coedge $-1 $119 $186 $283 $291 reversed $195 $-1 #
loop $-1 $-1 $193 $267 #
vertex $-1 $120 $292 #
vertex $-1 $120 $293 #
straight-curve $-1 74.711752677999215 0 10.364256241612928 0 1 0 I I #
face $-1 $294 $295 $28 $-1 $296 forward single #
loop $-1 $-1 $208 $121 #
plane-surface $-1 0 -43.291638103782319 0 0 1 0 0 0 1 forward_v I I I I #
coedge $-1 $297 $298 $299 $300 forward $122 $-1 #
coedge $-1 $299 $124 $126 $210 reversed $77 $-1 #
coedge $-1 $124 $299 $301 $302 reversed $77 $-1 #
coedge $-1 $303 $127 $124 $206 forward $212 $-1 #
edge $-1 $214 1.5771907440524497 $304 6.3837739130578033 $205 $305 forward 7 unknown #
coedge $-1 $126 $125 $297 $306 reversed $49 $-1 #
coedge $-1 $307 $308 $125 $209 forward $200 $-1 #
edge $-1 $309 -74.711752677999215 $213 74.711752677999215 $208 $310 forward 7 unknown #
edge $-1 $311 -74.711752677999215 $214 74.711752677999215 $203 $312 forward 7 unknown #
coedge $-1 $127 $303 $307 $313 forward $212 $-1 #
loop $-1 $-1 $205 $294 #
vertex $-1 $209 $314 #
vertex $-1 $128 $315 #
straight-curve $-1 74.711752677999215 -19.264034398238071 5.5576730726075763 0 1 0 I I #
face $-1 $-1 $228 $29 $-1 $316 forward single #
loop $-1 $-1 $317 $129 #
plane-surface $-1 74.711752677999215 0 0 -1 0 0 0 0 1 forward_v I I I I #
coedge $-1 $318 $319 $320 $321 reversed $130 $-1 #
coedge $-1 $322 $132 $134 $226 forward $81 $-1 #
coedge $-1 $132 $322 $318 $323 forward $81 $-1 #
coedge $-1 $320 $135 $132 $223 forward $228 $-1 #
edge $-1 $230 -21.084111988491752 $324 0.96038214921063414 $222 $325 forward 7 unknown #
coedge $-1 $326 $327 $133 $225 forward $217 $-1 #
edge $-1 $328 -102.28925244169267 $229 -98.373636732951155 $224 $329 forward 7 unknown #
edge $-1 $230 144.15452476046966 $328 149.42350535599846 $134 $330 forward 7 unknown #
coedge $-1 $135 $320 $326 $331 forward $228 $-1 #
loop $-1 $-1 $320 $216 #
vertex $-1 $225 $332 #
vertex $-1 $136 $333 #
straight-curve $-1 42.885609678280687 31.145976908132312 10.364256241612935 -1 0 0 I I #
coedge $-1 $232 $232 $-1 $334 reversed $139 $-1 #
edge $-1 $335 0 $335 6.2831853071796004 $140 $336 forward 7 unknown #
vertex $-1 $143 $337 #
ellipse-curve $-1 72.948934611839519 15.399909666916322 8.4064483872421789 0.74314483375859142 0 0.66913059716165679 0.66913059716165679 0 -0.74314483375859142 1 I I #
coedge $-1 $236 $236 $-1 $338 reversed $146 $-1 #
edge $-1 $339 0 $339 6.2831853071796004 $147 $340 forward 7 unknown #
vertex $-1 $150 $341 #
ellipse-curve $-1 72.948934611839519 24.847550011645907 8.4064483872421789 0.74314483375859142 0 0.66913059716165679 0.66913059716165679 0 -0.74314483375859142 1 I I #
face $-1 $-1 $342 $32 $-1 $343 reversed single #
loop $-1 $-1 $157 $151 #
plane-surface $-1 0 0 10.364256241612928 0 0 1 1 0 0 forward_v I I I I #
coedge $-1 $344 $345 $346 $347 reversed $152 $-1 #
coedge $-1 $348 $154 $156 $250 forward $95 $-1 #
coedge $-1 $154 $348 $344 $349 forward $95 $-1 #
coedge $-1 $346 $157 $154 $247 forward $241 $-1 #
edge $-1 $253 -5.0540022691069559 $350 3.5235990331268034 $246 $351 forward 7 unknown #
coedge $-1 $352 $353 $155 $249 forward $342 $-1 #
edge $-1 $354 -47.332869720271177 $252 -40.333512445589271 $248 $355 forward 7 unknown #
edge $-1 $253 -9.2742392321899718 $354 0 $156 $356 forward 7 unknown #
coedge $-1 $157 $346 $352 $357 forward $241 $-1 #
vertex $-1 $249 $358 #
vertex $-1 $158 $359 #
straight-curve $-1 -93.741552459574095 -5.8192038870970322 10.364256241612928 1 0 0 I I #
coedge $-1 $255 $255 $-1 $360 reversed $161 $-1 #
edge $-1 $361 0 $361 6.2831853071796004 $162 $362 forward 7 unknown #
vertex $-1 $165 $363 #
ellipse-curve $-1 -71.669528529565653 -4.1036836266502803 6.8645776042719779 -0.75470958851134928 0 0.65605901945558964 0.32802950972779482 0 0.37735479425567464 1 I I #
coedge $-1 $259 $259 $-1 $364 reversed $168 $-1 #
edge $-1 $365 0 $365 6.2831853071796004 $169 $366 forward 7 unknown #
vertex $-1 $172 $367 #
ellipse-curve $-1 -71.669528529565653 -1.5304032359801525 6.8645776042719779 -0.75470958851134928 0 0.65605901945558964 0.32802950972779482 0 0.37735479425567464 1 I I #
coedge $-1 $263 $263 $-1 $368 reversed $175 $-1 #
edge $-1 $369 0 $369 6.2831853071796004 $176 $370 forward 7 unknown #
vertex $-1 $179 $371 #
ellipse-curve $-1 -71.669528529565653 1.0428771546899753 6.8645776042719779 -0.75470958851134928 0 0.65605901945558964 0.32802950972779482 0 0.37735479425567464 1 I I #
face $-1 $-1 $195 $27 $-1 $372 reversed single #
loop $-1 $-1 $283 $180 #
plane-surface $-1 0 43.291638103782319 0 0 -1 0 0 0 -1 forward_v I I I I #
coedge $-1 $373 $281 $284 $374 forward $181 $-1 #
coedge $-1 $287 $183 $184 $275 reversed $114 $-1 #
coedge $-1 $281 $373 $183 $273 reversed $181 $-1 #
edge $-1 $288 -10.364256241612928 $375 10.364256241612928 $272 $376 forward 7 unknown #
coedge $-1 $185 $184 $373 $377 forward $73 $-1 #
edge $-1 $279 -74.711752677999215 $375 74.711752677999215 $271 $378 forward 7 unknown #
coedge $-1 $284 $283 $185 $277 reversed $268 $-1 #
edge $-1 $379 -74.711752677999215 $278 74.711752677999215 $276 $380 forward 7 unknown #
vertex $-1 $187 $381 #
vertex $-1 $290 $382 #
straight-curve $-1 74.711752677999215 0 -10.364256241612928 0 -1 0 I I #
coedge $-1 $270 $272 $188 $282 reversed $181 $-1 #
edge $-1 $285 -43.291638103782319 $288 43.291638103782319 $281 $383 forward 7 unknown #
coedge $-1 $276 $189 $194 $291 forward $268 $-1 #
coedge $-1 $189 $276 $270 $374 reversed $268 $-1 #
vertex $-1 $190 $384 #
straight-curve $-1 0 43.291638103782319 10.364256241612928 -1 0 0 I I #
coedge $-1 $191 $271 $193 $290 reversed $114 $-1 #
vertex $-1 $282 $385 #
straight-curve $-1 0 -43.291638103782319 10.364256241612928 1 0 0 I I #
edge $-1 $196 -10.364256241612928 $279 10.364256241612928 $193 $386 forward 7 unknown #
edge $-1 $197 -10.364256241612928 $278 10.364256241612928 $194 $387 forward 7 unknown #
point $-1 74.711752677999215 -43.291638103782319 10.364256241612928 #
point $-1 74.711752677999215 43.291638103782319 10.364256241612928 #
face $-1 $-1 $212 $28 $-1 $388 reversed single #
loop $-1 $-1 $301 $199 #
plane-surface $-1 0 0 10.364256241612928 0 0 1 1 0 0 forward_v I I I I #
coedge $-1 $389 $202 $207 $306 forward $122 $-1 #
coedge $-1 $202 $389 $390 $391 reversed $122 $-1 #
coedge $-1 $204 $203 $202 $300 reversed $77 $-1 #
edge $-1 $392 -6.3837739130578033 $311 -1.5771907440524497 $202 $393 forward 7 unknown #
coedge $-1 $390 $394 $204 $302 forward $295 $-1 #
edge $-1 $304 -74.711752677999215 $392 74.711752677999215 $301 $395 forward 7 unknown #
coedge $-1 $211 $205 $394 $396 reversed $212 $-1 #
vertex $-1 $206 $397 #
straight-curve $-1 74.711752677999215 -33.764499489169964 3.9804823285551265 0 0 1 I I #
edge $-1 $311 14.500465090931893 $309 24.027603705544248 $297 $398 forward 7 unknown #
coedge $-1 $399 $208 $211 $313 reversed $200 $-1 #
coedge $-1 $208 $399 $389 $400 forward $200 $-1 #
vertex $-1 $209 $401 #
straight-curve $-1 0 -43.291638103782319 5.5576730726075763 1 0 0 I I #
vertex $-1 $306 $402 #
straight-curve $-1 0 -33.764499489169964 5.5576730726075763 1 0 0 I I #
edge $-1 $403 -10.364256241612928 $213 -5.5576730726075763 $211 $404 forward 7 unknown #
point $-1 74.711752677999215 -43.291638103782319 5.5576730726075763 #
point $-1 74.711752677999215 -33.764499489169964 5.5576730726075763 #
plane-surface $-1 0 0 10.364256241612928 0 0 1 1 0 0 forward_v I I I I #
coedge $-1 $327 $326 $319 $405 forward $217 $-1 #
coedge $-1 $319 $219 $221 $323 reversed $130 $-1 #
coedge $-1 $219 $318 $317 $405 reversed $130 $-1 #
coedge $-1 $227 $222 $219 $321 forward $228 $-1 #
edge $-1 $324 28.30050686739915 $406 31.826142999718527 $320 $407 forward 7 unknown #
coedge $-1 $221 $220 $327 $408 reversed $81 $-1 #
edge $-1 $409 -149.42350535599846 $324 -144.15452476046966 $318 $410 forward 7 unknown #
vertex $-1 $223 $411 #
straight-curve $-1 71.186116545679823 10.061864919640559 10.364256241612935 0 -1 0 I I #
coedge $-1 $317 $224 $227 $331 reversed $217 $-1 #
coedge $-1 $224 $317 $322 $408 forward $217 $-1 #
vertex $-1 $225 $412 #
straight-curve $-1 74.711752677999215 31.145976908132312 108.73789297456408 0 0 1 I I #
straight-curve $-1 -25.27208669084807 31.145976908132312 117.4919465802809 0.66913059716165679 0 -0.74314483375859142 I I #
edge $-1 $406 9.101482770429925 $229 31.145976908132312 $326 $413 forward 7 unknown #
point $-1 74.711752677999215 31.145976908132312 10.364256241612928 #
point $-1 71.186116545679837 31.145976908132312 10.364256241612921 #
edge $-1 $414 1 $414 0 $232 $-1 forward 7 unknown #
vertex $-1 $233 $415 #
ellipse-curve $-1 71.962278132826086 15.399909666916322 7.5180589253164607 0.74314483375859142 0 0.66913059716165679 0.66913059716165679 0 -0.74314483375859142 1 I I #
point $-1 73.618065209001202 15.399909666916322 7.66330355348361 #
edge $-1 $416 1 $416 0 $236 $-1 forward 7 unknown #
vertex $-1 $237 $417 #
ellipse-curve $-1 71.962278132826086 24.847550011645907 7.5180589253164607 0.74314483375859142 0 0.66913059716165679 0.66913059716165679 0 -0.74314483375859142 1 I I #
point $-1 73.618065209001202 24.847550011645907 7.66330355348361 #
loop $-1 $-1 $248 $240 #
plane-surface $-1 -74.711752677999215 0 0 1 0 0 0 0 -1 forward_v I I I I #
coedge $-1 $345 $243 $245 $349 reversed $152 $-1 #
coedge $-1 $243 $344 $418 $419 reversed $152 $-1 #
coedge $-1 $251 $246 $243 $347 forward $241 $-1 #
edge $-1 $350 -25.114248078441989 $420 -19.02979978157488 $346 $421 forward 7 unknown #
coedge $-1 $245 $244 $353 $422 reversed $95 $-1 #
edge $-1 $423 0 $350 9.2742392321899718 $344 $424 forward 7 unknown #
vertex $-1 $247 $425 #
straight-curve $-1 -68.627304381132106 -0.76520161799007624 10.364256241612928 0 1 0 I I #
coedge $-1 $418 $248 $251 $357 reversed $342 $-1 #
coedge $-1 $248 $418 $348 $422 forward $342 $-1 #
vertex $-1 $249 $426 #
straight-curve $-1 -74.711752677999215 -5.8192038870970322 50.697768687202199 0 0 1 I I #
straight-curve $-1 -74.711752677999215 -5.8192038870970322 3.3648989669310225 -0.65605901945558964 0 -0.75470958851134928 I I #
edge $-1 $420 -2.7583974151367272 $252 5.8192038870970322 $352 $427 forward 7 unknown #
point $-1 -74.711752677999215 -5.8192038870970322 10.364256241612928 #
point $-1 -68.627304381132106 -5.8192038870970322 10.364256241612928 #
edge $-1 $428 1 $428 0 $255 $-1 forward 7 unknown #
vertex $-1 $256 $429 #
ellipse-curve $-1 -70.484696433328381 -4.1036836266502803 5.8346188027544503 -0.75470958851134928 0 0.65605901945558964 0.32802950972779482 0 0.37735479425567464 1 I I #
point $-1 -71.341499019837855 -4.1036836266502803 7.2419323985276485 #
edge $-1 $430 1 $430 0 $259 $-1 forward 7 unknown #
vertex $-1 $260 $431 #
ellipse-curve $-1 -70.484696433328381 -1.5304032359801525 5.8346188027544503 -0.75470958851134928 0 0.65605901945558964 0.32802950972779482 0 0.37735479425567464 1 I I #
point $-1 -71.341499019837855 -1.5304032359801525 7.2419323985276485 #
edge $-1 $432 1 $432 0 $263 $-1 forward 7 unknown #
vertex $-1 $264 $433 #
ellipse-curve $-1 -70.484696433328381 1.0428771546899753 5.8346188027544503 -0.75470958851134928 0 0.65605901945558964 0.32802950972779482 0 0.37735479425567464 1 I I #
point $-1 -71.341499019837855 1.0428771546899753 7.2419323985276485 #
plane-surface $-1 74.711752677999215 0 0 -1 0 0 0 0 1 forward_v I I I I #
coedge $-1 $272 $270 $274 $377 reversed $181 $-1 #
edge $-1 $285 -10.364256241612928 $379 10.364256241612928 $284 $434 forward 7 unknown #
vertex $-1 $377 $435 #
straight-curve $-1 -74.711752677999215 -43.291638103782319 0 0 0 -1 I I #
edge $-1 $375 -43.291638103782319 $379 43.291638103782319 $373 $436 forward 7 unknown #
straight-curve $-1 0 -43.291638103782319 -10.364256241612928 -1 0 0 I I #
vertex $-1 $277 $437 #
straight-curve $-1 0 43.291638103782319 -10.364256241612928 1 0 0 I I #
point $-1 74.711752677999215 43.291638103782319 -10.364256241612928 #
point $-1 74.711752677999215 -43.291638103782319 -10.364256241612928 #
straight-curve $-1 -74.711752677999215 0 10.364256241612928 0 -1 0 I I #
point $-1 -74.711752677999215 43.291638103782319 10.364256241612928 #
point $-1 -74.711752677999215 -43.291638103782319 10.364256241612928 #
straight-curve $-1 74.711752677999215 -43.291638103782319 0 0 0 -1 I I #
straight-curve $-1 74.711752677999215 43.291638103782319 0 0 0 -1 I I #
plane-surface $-1 74.711752677999215 0 0 -1 0 0 0 0 1 forward_v I I I I #
coedge $-1 $298 $297 $308 $400 reversed $122 $-1 #
coedge $-1 $438 $301 $298 $391 forward $295 $-1 #
edge $-1 $392 33.764499489169964 $439 43.291638103782319 $298 $440 forward 7 unknown #
vertex $-1 $391 $441 #
straight-curve $-1 -74.711752677999215 -33.764499489169964 3.9804823285551265 0 0 -1 I I #
coedge $-1 $301 $438 $303 $396 forward $295 $-1 #
straight-curve $-1 0 -33.764499489169964 10.364256241612928 -1 0 0 I I #
edge $-1 $403 -43.291638103782319 $304 -33.764499489169964 $303 $442 forward 7 unknown #
point $-1 74.711752677999215 -33.764499489169964 10.36425624161293 #
straight-curve $-1 -74.711752677999215 -19.264034398238071 5.5576730726075763 0 -1 0 I I #
coedge $-1 $308 $307 $438 $443 reversed $200 $-1 #
edge $-1 $439 -10.364256241612928 $309 -5.5576730726075763 $389 $444 forward 7 unknown #
point $-1 -74.711752677999215 -43.291638103782319 5.5576730726075763 #
point $-1 -74.711752677999215 -33.764499489169964 5.5576730726075763 #
vertex $-1 $396 $445 #
straight-curve $-1 74.711752677999215 -43.291638103782319 0 0 0 -1 I I #
edge $-1 $406 98.373636732951155 $409 102.28925244169267 $317 $446 forward 7 unknown #
vertex $-1 $331 $447 #
straight-curve $-1 42.885609678280687 9.101482770429925 10.364256241612935 1 0 0 I I #
edge $-1 $409 -0.96038214921063414 $328 21.084111988491752 $327 $448 forward 7 unknown #
vertex $-1 $408 $449 #
straight-curve $-1 -25.27208669084807 9.101482770429925 117.4919465802809 -0.66913059716165679 0 0.74314483375859142 I I #
point $-1 71.186116545679837 9.101482770429925 10.364256241612921 #
point $-1 74.711752677999215 31.145976908132312 6.4486405328714085 #
straight-curve $-1 74.711752677999215 0 10.364256241612928 0 1 0 I I #
vertex $-1 $334 $450 #
point $-1 72.631408729987754 15.399909666916322 6.7749140915578696 #
vertex $-1 $338 $451 #
point $-1 72.631408729987754 24.847550011645907 6.7749140915578696 #
coedge $-1 $353 $352 $345 $419 forward $342 $-1 #
edge $-1 $420 40.333512445589271 $423 47.332869720271177 $418 $452 forward 7 unknown #
vertex $-1 $357 $453 #
straight-curve $-1 -93.741552459574095 2.7583974151367272 10.364256241612928 -1 0 0 I I #
edge $-1 $423 -3.5235990331268034 $354 5.0540022691069559 $353 $454 forward 7 unknown #
vertex $-1 $422 $455 #
straight-curve $-1 -74.711752677999215 2.7583974151367272 3.3648989669310225 0.65605901945558964 0 0.75470958851134928 I I #
point $-1 -68.627304381132106 2.7583974151367272 10.364256241612928 #
point $-1 -74.711752677999215 -5.8192038870970322 3.3648989669310225 #
straight-curve $-1 -74.711752677999215 0 10.364256241612928 0 -1 0 I I #
vertex $-1 $360 $456 #
point $-1 -70.156666923600596 -4.1036836266502803 6.2119735970101253 #
vertex $-1 $364 $457 #
point $-1 -70.156666923600596 -1.5304032359801525 6.2119735970101253 #
vertex $-1 $368 $458 #
point $-1 -70.156666923600596 1.0428771546899753 6.2119735970101253 #
straight-curve $-1 -74.711752677999215 43.291638103782319 0 0 0 -1 I I #
point $-1 -74.711752677999215 -43.291638103782319 -10.364256241612928 #
straight-curve $-1 -74.711752677999215 0 -10.364256241612928 0 1 0 I I #
point $-1 -74.711752677999215 43.291638103782319 -10.364256241612928 #
coedge $-1 $394 $390 $399 $443 forward $295 $-1 #
vertex $-1 $391 $459 #
straight-curve $-1 -74.711752677999215 0 10.364256241612928 0 -1 0 I I #
point $-1 -74.711752677999215 -33.764499489169964 10.36425624161293 #
straight-curve $-1 74.711752677999215 0 10.364256241612928 0 1 0 I I #
edge $-1 $439 -74.711752677999215 $403 74.711752677999215 $399 $460 forward 7 unknown #
straight-curve $-1 -74.711752677999215 -43.291638103782319 0 0 0 -1 I I #
point $-1 74.711752677999215 -43.291638103782319 10.364256241612928 #
straight-curve $-1 74.711752677999215 9.101482770429925 108.73789297456408 0 0 -1 I I #
point $-1 74.711752677999215 9.101482770429925 10.364256241612928 #
straight-curve $-1 74.711752677999215 10.061864919640559 6.4486405328714156 0 1 0 I I #
point $-1 74.711752677999215 9.101482770429925 6.4486405328714085 #
point $-1 71.219133299067508 15.399909666916322 6.8489283281548046 #
point $-1 71.219133299067508 24.847550011645907 6.8489283281548046 #
straight-curve $-1 -74.711752677999215 2.7583974151367272 50.697768687202199 0 0 -1 I I #
point $-1 -74.711752677999215 2.7583974151367272 10.364256241612928 #
straight-curve $-1 -74.711752677999215 -0.76520161799007624 3.3648989669310239 0 -1 0 I I #
point $-1 -74.711752677999215 2.7583974151367272 3.3648989669310225 #
point $-1 -70.107341639072715 -4.1036836266502803 5.5065892930266553 #
point $-1 -70.107341639072715 -1.5304032359801525 5.5065892930266553 #
point $-1 -70.107341639072715 1.0428771546899753 5.5065892930266553 #
point $-1 -74.711752677999215 -43.291638103782319 10.364256241612928 #
straight-curve $-1 0 -43.291638103782319 10.364256241612928 1 0 0 I I #
End-of-ACIS-data 