500 0 10 0           
7 Unknown 11 ACIS 5.0 NT 24 Thu Mar 25 16:07:25 1999 
-1 9.9999999999999995e-007 1e-010 
body $-1 $10 $-1 $11 #
body $-1 $12 $-1 $13 #
body $-1 $14 $-1 $15 #
body $-1 $16 $-1 $17 #
body $-1 $18 $-1 $19 #
body $-1 $20 $-1 $21 #
body $-1 $22 $-1 $23 #
body $-1 $24 $-1 $25 #
body $-1 $26 $-1 $27 #
body $-1 $28 $-1 $29 #
lump $-1 $-1 $30 $0 #
transform $-1 1 0 0 0 1 0 0 0 1 44.936674092837308 22.004529460182578 9.0674080059274029 1 rotate no_reflect no_shear #
lump $-1 $-1 $31 $1 #
transform $-1 1 0 0 0 1 0 0 0 1 44.936674092837308 22.004529460182578 9.0674080059274029 1 rotate no_reflect no_shear #
lump $-1 $-1 $32 $2 #
transform $-1 1 0 0 0 1 0 0 0 1 44.936674092837308 22.004529460182578 9.0674080059274029 1 rotate no_reflect no_shear #
lump $-1 $-1 $33 $3 #
transform $-1 1 0 0 0 1 0 0 0 1 44.936674092837308 22.004529460182578 9.0674080059274029 1 rotate no_reflect no_shear #
lump $-1 $-1 $34 $4 #
transform $-1 1 0 0 0 1 0 0 0 1 44.936674092837308 22.004529460182578 9.0674080059274029 1 rotate no_reflect no_shear #
lump $-1 $-1 $35 $5 #
transform $-1 1 0 0 0 1 0 0 0 1 44.936674092837308 22.004529460182578 9.0674080059274029 1 rotate no_reflect no_shear #
lump $-1 $-1 $36 $6 #
transform $-1 1 0 0 0 1 0 0 0 1 44.936674092837308 22.004529460182578 9.0674080059274029 1 rotate no_reflect no_shear #
lump $-1 $-1 $37 $7 #
transform $-1 1 0 0 0 1 0 0 0 1 44.936674092837308 22.004529460182578 9.0674080059274029 1 rotate no_reflect no_shear #
lump $-1 $-1 $38 $8 #
transform $-1 1 0 0 0 1 0 0 0 1 44.936674092837308 22.004529460182578 9.0674080059274029 1 rotate no_reflect no_shear #
lump $-1 $-1 $39 $9 #
transform $-1 1 0 0 0 1 0 0 0 1 44.936674092837308 22.004529460182578 9.0674080059274029 1 rotate no_reflect no_shear #
shell $-1 $-1 $-1 $40 $-1 $10 #
shell $-1 $-1 $-1 $41 $-1 $12 #
shell $-1 $-1 $-1 $42 $-1 $14 #
shell $-1 $-1 $-1 $43 $-1 $16 #
shell $-1 $-1 $-1 $44 $-1 $18 #
shell $-1 $-1 $-1 $45 $-1 $20 #
shell $-1 $-1 $-1 $46 $-1 $22 #
shell $-1 $-1 $-1 $47 $-1 $24 #
shell $-1 $-1 $-1 $48 $-1 $26 #
shell $-1 $-1 $-1 $49 $-1 $28 #
face $-1 $50 $51 $30 $-1 $52 forward single #
face $-1 $53 $54 $31 $-1 $55 forward single #
face $-1 $56 $57 $32 $-1 $58 reversed single #
face $-1 $59 $60 $33 $-1 $61 forward single #
face $-1 $62 $63 $34 $-1 $64 forward single #
face $-1 $65 $66 $35 $-1 $67 forward single #
face $-1 $68 $69 $36 $-1 $70 reversed single #
face $-1 $71 $72 $37 $-1 $73 forward single #
face $-1 $74 $75 $38 $-1 $76 forward single #
face $-1 $77 $78 $39 $-1 $79 forward single #
face $-1 $80 $81 $30 $-1 $82 reversed single #
loop $-1 $-1 $83 $40 #
plane-surface $-1 0 0 9.0674080059274029 0 0 1 1 0 0 forward_v I I I I #
face $-1 $84 $85 $31 $-1 $86 reversed single #
loop $-1 $-1 $87 $41 #
plane-surface $-1 -44.936674092837308 0 0 1 0 0 0 0 -1 forward_v I I I I #
face $-1 $88 $89 $32 $-1 $90 reversed single #
loop $-1 $-1 $91 $42 #
plane-surface $-1 -4.2727932927133452 51.111818451448215 97.165959216319195 1 0 0 0 -0.68199836817093118 -0.7313536940579346 forward_v I I I I #
face $-1 $92 $93 $33 $-1 $94 forward single #
loop $-1 $95 $96 $43 #
cone-surface $-1 -0.49258195704732799 17.32575094875348 4.6232923751526602 0 -0.68199836817093118 -0.7313536940579346 1.5 0 0 1 I I 0 1 1.5 forward I I I I #
face $-1 $97 $98 $34 $-1 $99 forward single #
loop $-1 $100 $101 $44 #
cone-surface $-1 5.1777350464517014 17.32575094875348 4.6232923751526602 0 -0.68199836817093118 -0.7313536940579346 1.5 0 0 1 I I 0 1 1.5 forward I I I I #
face $-1 $102 $103 $35 $-1 $104 forward single #
loop $-1 $105 $106 $45 #
cone-surface $-1 10.848052049950731 17.32575094875348 4.6232923751526602 0 -0.68199836817093118 -0.7313536940579346 1.5 0 0 1 I I 0 1 1.5 forward I I I I #
face $-1 $107 $108 $36 $-1 $109 reversed single #
loop $-1 $-1 $110 $46 #
plane-surface $-1 14.628263385616748 -83.29800626487058 67.151852847891803 -1 0 0 0 -0.68199836817093118 0.7313536940579346 forward_v I I I I #
face $-1 $111 $112 $37 $-1 $113 forward single #
loop $-1 $114 $115 $47 #
cone-surface $-1 -0.49258195704732799 -17.325750948753484 4.6232923751526638 0 0.68199836817093118 -0.7313536940579346 1.5 0 0 1 I I 0 1 1.5 forward I I I I #
face $-1 $116 $117 $38 $-1 $118 forward single #
loop $-1 $119 $120 $48 #
cone-surface $-1 5.1777350464517014 -17.325750948753484 4.6232923751526638 0 0.68199836817093118 -0.7313536940579346 1.5 0 0 1 I I 0 1 1.5 forward I I I I #
face $-1 $121 $122 $39 $-1 $123 forward single #
loop $-1 $124 $125 $49 #
cone-surface $-1 10.848052049950731 -17.325750948753484 4.6232923751526638 0 0.68199836817093118 -0.7313536940579346 1.5 0 0 1 I I 0 1 1.5 forward I I I I #
face $-1 $126 $127 $30 $-1 $128 reversed single #
loop $-1 $-1 $129 $50 #
plane-surface $-1 0 0 -9.0674080059274029 0 0 1 1 0 0 forward_v I I I I #
coedge $-1 $130 $131 $132 $133 forward $51 $-1 #
face $-1 $134 $135 $31 $-1 $136 forward single #
loop $-1 $-1 $137 $53 #
plane-surface $-1 0 22.004529460182578 0 0 -1 0 0 0 -1 forward_v I I I I #
coedge $-1 $138 $139 $140 $141 forward $54 $-1 #
face $-1 $142 $143 $32 $-1 $144 reversed single #
loop $-1 $-1 $145 $56 #
plane-surface $-1 5.1777350464517014 -10.18165835323979 31.436754023371094 0 0.68199836817093118 0.7313536940579346 1 0 0 forward_v I I I I #
coedge $-1 $146 $147 $148 $149 reversed $57 $-1 #
face $-1 $-1 $150 $33 $-1 $151 forward single #
loop $-1 $152 $153 $59 #
cone-surface $-1 -0.49258195704732799 16.234474468100078 3.453041649326325 0 -0.68199836817093118 -0.7313536940579346 0.75 0 0 1 I I -0.70710678118654757 0.70710678118654757 0.75 forward I I I I #
loop $-1 $-1 $154 $43 #
coedge $-1 $96 $96 $155 $156 reversed $60 $-1 #
face $-1 $-1 $157 $34 $-1 $158 forward single #
loop $-1 $159 $160 $62 #
cone-surface $-1 5.1777350464517014 16.234474468100078 3.453041649326325 0 -0.68199836817093118 -0.7313536940579346 0.75 0 0 1 I I -0.70710678118654757 0.70710678118654757 0.75 forward I I I I #
loop $-1 $-1 $161 $44 #
coedge $-1 $101 $101 $162 $163 reversed $63 $-1 #
face $-1 $-1 $164 $35 $-1 $165 forward single #
loop $-1 $166 $167 $65 #
cone-surface $-1 10.848052049950731 16.234474468100078 3.453041649326325 0 -0.68199836817093118 -0.7313536940579346 0.75 0 0 1 I I -0.70710678118654757 0.70710678118654757 0.75 forward I I I I #
loop $-1 $-1 $168 $45 #
coedge $-1 $106 $106 $169 $170 reversed $66 $-1 #
face $-1 $171 $172 $36 $-1 $173 reversed single #
loop $-1 $-1 $174 $68 #
plane-surface $-1 5.1777350464517014 -22.004529460182574 1.4226476549437024 0 -0.68199836817093118 0.7313536940579346 1 0 0 forward_v I I I I #
coedge $-1 $175 $176 $177 $178 reversed $69 $-1 #
face $-1 $-1 $179 $37 $-1 $180 forward single #
loop $-1 $181 $182 $71 #
cone-surface $-1 -0.49258195704732799 -16.234474468100082 3.4530416493263285 0 0.68199836817093118 -0.7313536940579346 0.75 0 0 1 I I -0.70710678118654757 0.70710678118654757 0.75 forward I I I I #
loop $-1 $-1 $183 $47 #
coedge $-1 $115 $115 $184 $185 reversed $72 $-1 #
face $-1 $-1 $186 $38 $-1 $187 forward single #
loop $-1 $188 $189 $74 #
cone-surface $-1 5.1777350464517014 -16.234474468100082 3.4530416493263285 0 0.68199836817093118 -0.7313536940579346 0.75 0 0 1 I I -0.70710678118654757 0.70710678118654757 0.75 forward I I I I #
loop $-1 $-1 $190 $48 #
coedge $-1 $120 $120 $191 $192 reversed $75 $-1 #
face $-1 $-1 $193 $39 $-1 $194 forward single #
loop $-1 $195 $196 $77 #
cone-surface $-1 10.848052049950731 -16.234474468100082 3.4530416493263285 0 0.68199836817093118 -0.7313536940579346 0.75 0 0 1 I I -0.70710678118654757 0.70710678118654757 0.75 forward I I I I #
loop $-1 $-1 $197 $49 #
coedge $-1 $125 $125 $198 $199 reversed $78 $-1 #
face $-1 $200 $201 $30 $-1 $202 reversed single #
loop $-1 $-1 $203 $80 #
plane-surface $-1 0 -22.004529460182578 0 0 1 0 0 0 1 forward_v I I I I #
coedge $-1 $204 $205 $206 $207 forward $81 $-1 #
coedge $-1 $208 $83 $209 $210 forward $51 $-1 #
coedge $-1 $83 $208 $211 $212 forward $51 $-1 #
coedge $-1 $213 $214 $83 $133 reversed $215 $-1 #
edge $-1 $216 -22.004529460182578 $217 22.004529460182578 $132 $218 forward 7 unknown #
face $-1 $219 $220 $31 $-1 $221 reversed single #
loop $-1 $-1 $140 $84 #
plane-surface $-1 -49.567544115672263 0 1.6570120257635503 0 0 1 1 0 0 forward_v I I I I #
coedge $-1 $222 $223 $139 $224 forward $85 $-1 #
coedge $-1 $225 $87 $226 $227 reversed $54 $-1 #
coedge $-1 $87 $225 $137 $224 reversed $54 $-1 #
coedge $-1 $228 $229 $87 $141 reversed $135 $-1 #
edge $-1 $230 -22.004529460182578 $231 22.004529460182578 $140 $232 forward 7 unknown #
face $-1 $233 $234 $32 $-1 $235 forward single #
loop $-1 $-1 $236 $88 #
plane-surface $-1 14.628263385616748 51.111818451448215 97.165959216319195 -1 0 0 0 0.68199836817093118 0.7313536940579346 forward_v I I I I #
coedge $-1 $237 $238 $239 $240 reversed $89 $-1 #
coedge $-1 $147 $91 $241 $242 reversed $57 $-1 #
coedge $-1 $91 $146 $237 $243 reversed $57 $-1 #
coedge $-1 $239 $244 $91 $149 forward $234 $-1 #
edge $-1 $245 3.5513797655415296 $246 11.749381379349323 $148 $247 forward 7 unknown #
loop $-1 $-1 $155 $92 #
plane-surface $-1 5.1777350464517014 -10.18165835323979 31.436754023371094 0 0.68199836817093118 0.7313536940579346 1 0 0 forward_v I I I I #
loop $-1 $-1 $248 $59 #
coedge $-1 $153 $153 $154 $249 reversed $93 $-1 #
coedge $-1 $154 $154 $153 $249 forward $95 $-1 #
coedge $-1 $155 $155 $96 $156 forward $150 $-1 #
edge $-1 $250 5.2072104952035711e-016 $250 6.2831853071796013 $155 $251 forward 7 unknown #
loop $-1 $-1 $162 $97 #
plane-surface $-1 5.1777350464517014 -10.18165835323979 31.436754023371094 0 0.68199836817093118 0.7313536940579346 1 0 0 forward_v I I I I #
loop $-1 $-1 $252 $62 #
coedge $-1 $160 $160 $161 $253 reversed $98 $-1 #
coedge $-1 $161 $161 $160 $253 forward $100 $-1 #
coedge $-1 $162 $162 $101 $163 forward $157 $-1 #
edge $-1 $254 5.2072104952035711e-016 $254 6.2831853071796013 $162 $255 forward 7 unknown #
loop $-1 $-1 $169 $102 #
plane-surface $-1 5.1777350464517014 -10.18165835323979 31.436754023371094 0 0.68199836817093118 0.7313536940579346 1 0 0 forward_v I I I I #
loop $-1 $-1 $256 $65 #
coedge $-1 $167 $167 $168 $257 reversed $103 $-1 #
coedge $-1 $168 $168 $167 $257 forward $105 $-1 #
coedge $-1 $169 $169 $106 $170 forward $164 $-1 #
edge $-1 $258 5.2072104952035711e-016 $258 6.2831853071796013 $169 $259 forward 7 unknown #
face $-1 $260 $261 $36 $-1 $262 reversed single #
loop $-1 $-1 $263 $107 #
plane-surface $-1 -4.2727932927133452 -83.29800626487058 67.151852847891803 1 0 0 0 0.68199836817093118 -0.7313536940579346 forward_v I I I I #
coedge $-1 $264 $265 $266 $267 reversed $108 $-1 #
coedge $-1 $176 $110 $268 $269 reversed $69 $-1 #
coedge $-1 $110 $175 $264 $270 reversed $69 $-1 #
coedge $-1 $266 $271 $110 $178 forward $272 $-1 #
edge $-1 $273 19.644473672252712 $274 27.842475286060491 $177 $275 forward 7 unknown #
loop $-1 $-1 $184 $111 #
plane-surface $-1 5.1777350464517014 -22.004529460182574 1.4226476549437024 0 -0.68199836817093118 0.7313536940579346 1 0 0 forward_v I I I I #
loop $-1 $-1 $276 $71 #
coedge $-1 $182 $182 $183 $277 reversed $112 $-1 #
coedge $-1 $183 $183 $182 $277 forward $114 $-1 #
coedge $-1 $184 $184 $115 $185 forward $179 $-1 #
edge $-1 $278 0 $278 6.2831853071796004 $184 $279 forward 7 unknown #
loop $-1 $-1 $191 $116 #
plane-surface $-1 5.1777350464517014 -22.004529460182574 1.4226476549437024 0 -0.68199836817093118 0.7313536940579346 1 0 0 forward_v I I I I #
loop $-1 $-1 $280 $74 #
coedge $-1 $189 $189 $190 $281 reversed $117 $-1 #
coedge $-1 $190 $190 $189 $281 forward $119 $-1 #
coedge $-1 $191 $191 $120 $192 forward $186 $-1 #
edge $-1 $282 0 $282 6.2831853071796004 $191 $283 forward 7 unknown #
loop $-1 $-1 $198 $121 #
plane-surface $-1 5.1777350464517014 -22.004529460182574 1.4226476549437024 0 -0.68199836817093118 0.7313536940579346 1 0 0 forward_v I I I I #
loop $-1 $-1 $284 $77 #
coedge $-1 $196 $196 $197 $285 reversed $122 $-1 #
coedge $-1 $197 $197 $196 $285 forward $124 $-1 #
coedge $-1 $198 $198 $125 $199 forward $193 $-1 #
edge $-1 $286 0 $286 6.2831853071796004 $198 $287 forward 7 unknown #
face $-1 $288 $289 $30 $-1 $290 reversed single #
loop $-1 $-1 $291 $126 #
plane-surface $-1 -44.936674092837308 0 0 1 0 0 0 0 -1 forward_v I I I I #
coedge $-1 $292 $211 $291 $293 forward $127 $-1 #
coedge $-1 $294 $129 $292 $295 forward $81 $-1 #
coedge $-1 $129 $294 $296 $297 forward $81 $-1 #
coedge $-1 $214 $213 $129 $207 reversed $215 $-1 #
edge $-1 $298 -22.004529460182578 $299 22.004529460182578 $206 $300 forward 7 unknown #
coedge $-1 $131 $130 $301 $302 forward $51 $-1 #
coedge $-1 $303 $304 $130 $210 reversed $289 $-1 #
edge $-1 $217 -44.936674092837308 $305 44.936674092837308 $209 $306 forward 7 unknown #
coedge $-1 $203 $307 $131 $212 reversed $127 $-1 #
edge $-1 $308 -44.936674092837308 $216 44.936674092837308 $211 $309 forward 7 unknown #
coedge $-1 $206 $132 $307 $310 forward $215 $-1 #
coedge $-1 $132 $206 $303 $311 reversed $215 $-1 #
loop $-1 $-1 $213 $288 #
vertex $-1 $133 $312 #
vertex $-1 $133 $313 #
straight-curve $-1 44.936674092837308 0 9.0674080059274029 0 1 0 I I #
face $-1 $314 $315 $31 $-1 $316 reversed single #
loop $-1 $-1 $317 $134 #
plane-surface $-1 -49.567544115672263 0 -3.2647417298998791 0 0 1 1 0 0 forward_v I I I I #
coedge $-1 $318 $137 $319 $320 reversed $85 $-1 #
coedge $-1 $137 $318 $228 $321 reversed $85 $-1 #
edge $-1 $230 -1.6570120257635503 $322 3.2647417298998791 $137 $323 forward 7 unknown #
coedge $-1 $139 $138 $317 $324 forward $54 $-1 #
coedge $-1 $325 $326 $138 $227 forward $327 $-1 #
edge $-1 $328 -3.2647417298998791 $231 1.6570120257635503 $226 $329 forward 7 unknown #
coedge $-1 $330 $140 $223 $321 forward $135 $-1 #
coedge $-1 $140 $330 $325 $331 forward $135 $-1 #
vertex $-1 $224 $332 #
vertex $-1 $331 $333 #
straight-curve $-1 -44.936674092837308 0 1.6570120257635503 0 -1 0 I I #
face $-1 $-1 $334 $32 $-1 $335 reversed single #
loop $-1 $-1 $148 $142 #
plane-surface $-1 0 0 9.0674080059274029 0 0 1 1 0 0 forward_v I I I I #
coedge $-1 $336 $337 $338 $339 reversed $143 $-1 #
coedge $-1 $340 $145 $147 $243 forward $89 $-1 #
coedge $-1 $145 $340 $336 $341 forward $89 $-1 #
coedge $-1 $338 $148 $145 $240 forward $234 $-1 #
edge $-1 $246 -6.8616608159391959 $342 12.039395862390897 $239 $343 forward 7 unknown #
coedge $-1 $344 $345 $146 $242 forward $334 $-1 #
edge $-1 $346 -47.160331953215916 $245 -39.515571602232193 $241 $347 forward 7 unknown #
edge $-1 $246 32.799706071785202 $346 44.009058920365163 $147 $348 forward 7 unknown #
coedge $-1 $148 $338 $344 $349 forward $234 $-1 #
vertex $-1 $242 $350 #
vertex $-1 $149 $351 #
straight-curve $-1 -4.2727932927133452 25.555909225724108 9.0674080059274047 0 -1 0 I I #
coedge $-1 $248 $248 $-1 $352 reversed $152 $-1 #
edge $-1 $353 0 $353 6.2831853071796004 $153 $354 forward 7 unknown #
vertex $-1 $156 $355 #
ellipse-curve $-1 -0.49258195704732799 17.905528653278683 5.2450278304355438 0 0.68199836817093118 0.7313536940579346 1.5 0 0 1 I I #
coedge $-1 $252 $252 $-1 $356 reversed $159 $-1 #
edge $-1 $357 0 $357 6.2831853071796004 $160 $358 forward 7 unknown #
vertex $-1 $163 $359 #
ellipse-curve $-1 5.1777350464517014 17.905528653278683 5.2450278304355438 0 0.68199836817093118 0.7313536940579346 1.5 0 0 1 I I #
coedge $-1 $256 $256 $-1 $360 reversed $166 $-1 #
edge $-1 $361 0 $361 6.2831853071796004 $167 $362 forward 7 unknown #
vertex $-1 $170 $363 #
ellipse-curve $-1 10.848052049950731 17.905528653278683 5.2450278304355438 0 0.68199836817093118 0.7313536940579346 1.5 0 0 1 I I #
face $-1 $-1 $272 $36 $-1 $364 forward single #
loop $-1 $-1 $365 $171 #
plane-surface $-1 0 -22.004529460182578 0 0 1 0 0 0 1 forward_v I I I I #
coedge $-1 $366 $367 $368 $369 reversed $172 $-1 #
coedge $-1 $370 $174 $176 $270 forward $108 $-1 #
coedge $-1 $174 $370 $366 $371 forward $108 $-1 #
coedge $-1 $368 $177 $174 $267 forward $272 $-1 #
edge $-1 $274 -12.039395862390897 $372 6.8616608159391959 $266 $373 forward 7 unknown #
coedge $-1 $374 $375 $175 $269 forward $261 $-1 #
edge $-1 $376 -32.153278769002199 $273 -24.508518418018497 $268 $377 forward 7 unknown #
edge $-1 $274 -11.209352848579943 $376 4.869801146221358e-015 $176 $378 forward 7 unknown #
coedge $-1 $177 $368 $374 $379 forward $272 $-1 #
loop $-1 $-1 $368 $260 #
vertex $-1 $269 $380 #
vertex $-1 $178 $381 #
straight-curve $-1 14.628263385616748 -41.64900313243529 9.0674080059274047 0 1 0 I I #
coedge $-1 $276 $276 $-1 $382 reversed $181 $-1 #
edge $-1 $383 0 $383 6.2831853071796004 $182 $384 forward 7 unknown #
vertex $-1 $185 $385 #
ellipse-curve $-1 -0.49258195704732799 -17.90552865327869 5.24502783043555 0 -0.68199836817093118 0.7313536940579346 1.5 0 0 1 I I #
coedge $-1 $280 $280 $-1 $386 reversed $188 $-1 #
edge $-1 $387 0 $387 6.2831853071796004 $189 $388 forward 7 unknown #
vertex $-1 $192 $389 #
ellipse-curve $-1 5.1777350464517014 -17.90552865327869 5.24502783043555 0 -0.68199836817093118 0.7313536940579346 1.5 0 0 1 I I #
coedge $-1 $284 $284 $-1 $390 reversed $195 $-1 #
edge $-1 $391 0 $391 6.2831853071796004 $196 $392 forward 7 unknown #
vertex $-1 $199 $393 #
ellipse-curve $-1 10.848052049950731 -17.90552865327869 5.24502783043555 0 -0.68199836817093118 0.7313536940579346 1.5 0 0 1 I I #
face $-1 $-1 $215 $30 $-1 $394 reversed single #
loop $-1 $-1 $303 $200 #
plane-surface $-1 0 22.004529460182578 0 0 -1 0 0 0 -1 forward_v I I I I #
coedge $-1 $301 $395 $203 $293 reversed $201 $-1 #
coedge $-1 $307 $203 $204 $295 reversed $127 $-1 #
edge $-1 $308 -9.0674080059274029 $396 9.0674080059274029 $291 $397 forward 7 unknown #
coedge $-1 $205 $204 $395 $398 forward $81 $-1 #
edge $-1 $299 -44.936674092837308 $396 44.936674092837308 $292 $399 forward 7 unknown #
coedge $-1 $304 $303 $205 $297 reversed $289 $-1 #
edge $-1 $400 -44.936674092837308 $298 44.936674092837308 $296 $401 forward 7 unknown #
vertex $-1 $207 $402 #
vertex $-1 $310 $403 #
straight-curve $-1 44.936674092837308 0 -9.0674080059274029 0 -1 0 I I #
coedge $-1 $404 $291 $208 $302 reversed $201 $-1 #
edge $-1 $305 -22.004529460182578 $308 22.004529460182578 $301 $405 forward 7 unknown #
coedge $-1 $296 $209 $214 $311 forward $289 $-1 #
coedge $-1 $209 $296 $404 $406 reversed $289 $-1 #
vertex $-1 $210 $407 #
straight-curve $-1 0 22.004529460182578 9.0674080059274029 -1 0 0 I I #
coedge $-1 $211 $292 $213 $310 reversed $127 $-1 #
vertex $-1 $302 $408 #
straight-curve $-1 0 -22.004529460182578 9.0674080059274029 1 0 0 I I #
edge $-1 $216 -9.0674080059274029 $299 9.0674080059274029 $213 $409 forward 7 unknown #
edge $-1 $217 -9.0674080059274029 $298 9.0674080059274029 $214 $410 forward 7 unknown #
point $-1 44.936674092837308 -22.004529460182578 9.0674080059274029 #
point $-1 44.936674092837308 22.004529460182578 9.0674080059274029 #
face $-1 $-1 $327 $31 $-1 $411 reversed single #
loop $-1 $-1 $412 $219 #
plane-surface $-1 -54.198414138507218 0 -0.80386485206816438 1 0 0 0 0 -1 forward_v I I I I #
coedge $-1 $413 $319 $225 $324 reversed $220 $-1 #
coedge $-1 $223 $222 $412 $414 reversed $85 $-1 #
coedge $-1 $317 $415 $222 $320 forward $220 $-1 #
edge $-1 $416 -4.6308700228349551 $322 4.6308700228349551 $222 $417 forward 7 unknown #
edge $-1 $230 -4.6308700228349551 $418 4.6308700228349551 $223 $419 forward 7 unknown #
vertex $-1 $224 $420 #
straight-curve $-1 -44.936674092837308 22.004529460182578 0 0 0 -1 I I #
edge $-1 $328 -22.004529460182578 $322 22.004529460182578 $317 $421 forward 7 unknown #
coedge $-1 $422 $226 $229 $331 reversed $327 $-1 #
coedge $-1 $226 $422 $413 $423 reversed $327 $-1 #
loop $-1 $-1 $226 $314 #
vertex $-1 $227 $424 #
straight-curve $-1 -44.936674092837308 -22.004529460182578 0 0 0 1 I I #
coedge $-1 $229 $228 $425 $426 forward $135 $-1 #
edge $-1 $427 -4.6308700228349551 $231 4.6308700228349551 $325 $428 forward 7 unknown #
point $-1 -44.936674092837308 22.004529460182578 1.6570120257635503 #
point $-1 -44.936674092837308 -22.004529460182578 1.6570120257635503 #
loop $-1 $-1 $241 $233 #
plane-surface $-1 0 22.004529460182578 0 0 -1 0 0 0 -1 forward_v I I I I #
coedge $-1 $337 $236 $238 $341 reversed $143 $-1 #
coedge $-1 $236 $336 $429 $430 reversed $143 $-1 #
coedge $-1 $244 $239 $236 $339 forward $234 $-1 #
edge $-1 $342 -11.749381379349323 $431 -3.5513797655415296 $338 $432 forward 7 unknown #
coedge $-1 $238 $237 $345 $433 reversed $89 $-1 #
edge $-1 $434 -44.009058920365163 $342 -32.799706071785202 $336 $435 forward 7 unknown #
vertex $-1 $240 $436 #
straight-curve $-1 2.5888675232258507 13.806527846374781 9.0674080059274029 1 0 0 I I #
coedge $-1 $429 $241 $244 $349 reversed $334 $-1 #
coedge $-1 $241 $429 $340 $433 forward $334 $-1 #
vertex $-1 $242 $437 #
straight-curve $-1 -4.2727932927133452 22.004529460182578 48.582979608159597 0 0 1 I I #
straight-curve $-1 -4.2727932927133452 -10.18165835323979 31.436754023371094 0 0.7313536940579346 -0.68199836817093118 I I #
edge $-1 $431 -14.628263385616748 $245 4.2727932927133452 $344 $438 forward 7 unknown #
point $-1 -4.2727932927133452 22.004529460182578 9.0674080059274029 #
point $-1 -4.2727932927133452 13.806527846374784 9.0674080059274011 #
edge $-1 $439 1 $439 0 $248 $-1 forward 7 unknown #
vertex $-1 $249 $440 #
ellipse-curve $-1 -0.49258195704732799 16.745973244228278 4.0015569198697758 0 0.68199836817093118 0.7313536940579346 1.5 0 0 1 I I #
point $-1 1.007418042952672 17.905528653278687 5.2450278304355464 #
edge $-1 $441 1 $441 0 $252 $-1 forward 7 unknown #
vertex $-1 $253 $442 #
ellipse-curve $-1 5.1777350464517014 16.745973244228278 4.0015569198697758 0 0.68199836817093118 0.7313536940579346 1.5 0 0 1 I I #
point $-1 6.6777350464517014 17.905528653278687 5.2450278304355464 #
edge $-1 $443 1 $443 0 $256 $-1 forward 7 unknown #
vertex $-1 $257 $444 #
ellipse-curve $-1 10.848052049950731 16.745973244228278 4.0015569198697758 0 0.68199836817093118 0.7313536940579346 1.5 0 0 1 I I #
point $-1 12.348052049950731 17.905528653278687 5.2450278304355464 #
plane-surface $-1 0 0 9.0674080059274029 0 0 1 1 0 0 forward_v I I I I #
coedge $-1 $375 $374 $367 $445 forward $261 $-1 #
coedge $-1 $367 $263 $265 $371 reversed $172 $-1 #
coedge $-1 $263 $366 $365 $445 reversed $172 $-1 #
coedge $-1 $271 $266 $263 $369 forward $272 $-1 #
edge $-1 $372 -27.842475286060491 $446 -19.644473672252712 $368 $447 forward 7 unknown #
coedge $-1 $265 $264 $375 $448 reversed $108 $-1 #
edge $-1 $449 -4.869801146221358e-015 $372 11.209352848579943 $366 $450 forward 7 unknown #
vertex $-1 $267 $451 #
straight-curve $-1 2.5888675232258507 -13.8065278463748 9.0674080059274029 -1 0 0 I I #
coedge $-1 $365 $268 $271 $379 reversed $261 $-1 #
coedge $-1 $268 $365 $370 $448 forward $261 $-1 #
vertex $-1 $269 $452 #
straight-curve $-1 14.628263385616748 -22.004529460182578 33.575926423945901 0 0 1 I I #
straight-curve $-1 14.628263385616748 -22.004529460182574 1.4226476549437024 0 -0.7313536940579346 -0.68199836817093118 I I #
edge $-1 $446 -4.2727932927133452 $273 14.628263385616748 $374 $453 forward 7 unknown #
point $-1 14.628263385616748 -22.004529460182578 9.0674080059274029 #
point $-1 14.628263385616748 -13.8065278463748 9.0674080059274029 #
edge $-1 $454 1 $454 0 $276 $-1 forward 7 unknown #
vertex $-1 $277 $455 #
ellipse-curve $-1 -0.49258195704732799 -16.745973244228281 4.0015569198697793 0 -0.68199836817093118 0.7313536940579346 1.5 0 0 1 I I #
point $-1 1.007418042952672 -17.90552865327869 5.24502783043555 #
edge $-1 $456 1 $456 0 $280 $-1 forward 7 unknown #
vertex $-1 $281 $457 #
ellipse-curve $-1 5.1777350464517014 -16.745973244228281 4.0015569198697793 0 -0.68199836817093118 0.7313536940579346 1.5 0 0 1 I I #
point $-1 6.6777350464517014 -17.90552865327869 5.24502783043555 #
edge $-1 $458 1 $458 0 $284 $-1 forward 7 unknown #
vertex $-1 $285 $459 #
ellipse-curve $-1 10.848052049950731 -16.745973244228281 4.0015569198697793 0 -0.68199836817093118 0.7313536940579346 1.5 0 0 1 I I #
point $-1 12.348052049950731 -17.90552865327869 5.24502783043555 #
plane-surface $-1 44.936674092837308 0 0 -1 0 0 0 0 1 forward_v I I I I #
coedge $-1 $291 $404 $294 $398 reversed $201 $-1 #
vertex $-1 $398 $460 #
straight-curve $-1 -44.936674092837308 -22.004529460182578 0 0 0 -1 I I #
edge $-1 $396 -22.004529460182578 $400 22.004529460182578 $395 $461 forward 7 unknown #
straight-curve $-1 0 -22.004529460182578 -9.0674080059274029 -1 0 0 I I #
vertex $-1 $297 $462 #
straight-curve $-1 0 22.004529460182578 -9.0674080059274029 1 0 0 I I #
point $-1 44.936674092837308 22.004529460182578 -9.0674080059274029 #
point $-1 44.936674092837308 -22.004529460182578 -9.0674080059274029 #
coedge $-1 $395 $301 $304 $406 forward $201 $-1 #
straight-curve $-1 -44.936674092837308 0 9.0674080059274029 0 -1 0 I I #
edge $-1 $305 -9.0674080059274029 $400 9.0674080059274029 $304 $463 forward 7 unknown #
point $-1 -44.936674092837308 22.004529460182578 9.0674080059274029 #
point $-1 -44.936674092837308 -22.004529460182578 9.0674080059274029 #
straight-curve $-1 44.936674092837308 -22.004529460182578 0 0 0 -1 I I #
straight-curve $-1 44.936674092837308 22.004529460182578 0 0 0 -1 I I #
plane-surface $-1 0 -22.004529460182578 0 0 1 0 0 0 1 forward_v I I I I #
coedge $-1 $464 $425 $318 $414 forward $315 $-1 #
coedge $-1 $415 $317 $326 $423 forward $220 $-1 #
edge $-1 $418 -2.4608768778317147 $416 2.4608768778317147 $318 $465 forward 7 unknown #
coedge $-1 $319 $413 $464 $466 forward $220 $-1 #
vertex $-1 $320 $467 #
straight-curve $-1 -49.567544115672263 22.004529460182578 -3.2647417298998791 1 0 0 I I #
vertex $-1 $321 $468 #
straight-curve $-1 -49.567544115672263 22.004529460182578 1.6570120257635503 -1 0 0 I I #
point $-1 -44.936674092837308 22.004529460182578 -3.2647417298998791 #
straight-curve $-1 -44.936674092837308 0 -3.2647417298998791 0 1 0 I I #
coedge $-1 $326 $325 $469 $470 forward $327 $-1 #
edge $-1 $328 -4.6308700228349551 $471 4.6308700228349551 $326 $472 forward 7 unknown #
point $-1 -44.936674092837308 -22.004529460182578 -3.2647417298998791 #
coedge $-1 $412 $469 $330 $426 reversed $315 $-1 #
edge $-1 $418 -22.004529460182578 $427 22.004529460182578 $425 $473 forward 7 unknown #
vertex $-1 $426 $474 #
straight-curve $-1 -49.567544115672263 -22.004529460182578 1.6570120257635503 1 0 0 I I #
coedge $-1 $345 $344 $337 $430 forward $334 $-1 #
edge $-1 $431 39.515571602232193 $434 47.160331953215916 $429 $475 forward 7 unknown #
vertex $-1 $349 $476 #
straight-curve $-1 14.628263385616748 25.555909225724108 9.0674080059274047 0 1 0 I I #
edge $-1 $434 -12.039395862390897 $346 6.8616608159391959 $345 $477 forward 7 unknown #
vertex $-1 $433 $478 #
straight-curve $-1 14.628263385616748 -10.18165835323979 31.436754023371094 0 -0.7313536940579346 0.68199836817093118 I I #
point $-1 14.628263385616748 13.806527846374784 9.0674080059274011 #
point $-1 -4.2727932927133452 22.004529460182574 1.4226476549436846 #
straight-curve $-1 0 22.004529460182578 9.0674080059274029 -1 0 0 I I #
vertex $-1 $352 $479 #
point $-1 1.007418042952672 16.745973244228278 4.0015569198697758 #
vertex $-1 $356 $480 #
point $-1 6.6777350464517014 16.745973244228278 4.0015569198697758 #
vertex $-1 $360 $481 #
point $-1 12.348052049950731 16.745973244228278 4.0015569198697758 #
edge $-1 $446 24.508518418018497 $449 32.153278769002199 $365 $482 forward 7 unknown #
vertex $-1 $379 $483 #
straight-curve $-1 -4.2727932927133452 -41.64900313243529 9.0674080059274047 0 -1 0 I I #
edge $-1 $449 -6.8616608159391959 $376 12.039395862390897 $375 $484 forward 7 unknown #
vertex $-1 $448 $485 #
straight-curve $-1 -4.2727932927133452 -22.004529460182574 1.4226476549437024 0 0.7313536940579346 0.68199836817093118 I I #
point $-1 -4.2727932927133452 -13.8065278463748 9.0674080059274029 #
point $-1 14.628263385616748 -22.004529460182578 1.422647654943699 #
straight-curve $-1 0 -22.004529460182578 9.0674080059274029 1 0 0 I I #
vertex $-1 $382 $486 #
point $-1 1.007418042952672 -16.745973244228281 4.0015569198697793 #
vertex $-1 $386 $487 #
point $-1 6.6777350464517014 -16.745973244228281 4.0015569198697793 #
vertex $-1 $390 $488 #
point $-1 12.348052049950731 -16.745973244228281 4.0015569198697793 #
point $-1 -44.936674092837308 -22.004529460182578 -9.0674080059274029 #
straight-curve $-1 -44.936674092837308 0 -9.0674080059274029 0 1 0 I I #
point $-1 -44.936674092837308 22.004529460182578 -9.0674080059274029 #
straight-curve $-1 -44.936674092837308 22.004529460182578 0 0 0 -1 I I #
coedge $-1 $469 $412 $415 $466 reversed $315 $-1 #
straight-curve $-1 -54.198414138507218 22.004529460182578 -0.80386485206816438 0 0 -1 I I #
edge $-1 $471 -22.004529460182578 $416 22.004529460182578 $464 $489 forward 7 unknown #
point $-1 -54.198414138507218 22.004529460182578 -3.2647417298998791 #
point $-1 -54.198414138507218 22.004529460182578 1.6570120257635503 #
coedge $-1 $425 $464 $422 $470 reversed $315 $-1 #
edge $-1 $427 -2.4608768778317147 $471 2.4608768778317147 $469 $490 forward 7 unknown #
vertex $-1 $466 $491 #
straight-curve $-1 -49.567544115672263 -22.004529460182578 -3.2647417298998791 -1 0 0 I I #
straight-curve $-1 -54.198414138507218 0 1.6570120257635503 0 -1 0 I I #
point $-1 -54.198414138507218 -22.004529460182578 1.6570120257635503 #
straight-curve $-1 14.628263385616748 22.004529460182578 48.582979608159597 0 0 -1 I I #
point $-1 14.628263385616748 22.004529460182578 9.0674080059274029 #
straight-curve $-1 2.5888675232258507 22.004529460182574 1.4226476549436882 -1 0 0 I I #
point $-1 14.628263385616748 22.004529460182574 1.4226476549436846 #
point $-1 -0.49258195704732799 15.722975691971881 2.9045263787828741 #
point $-1 5.1777350464517014 15.722975691971881 2.9045263787828741 #
point $-1 10.848052049950731 15.722975691971881 2.9045263787828741 #
straight-curve $-1 -4.2727932927133452 -22.004529460182578 33.575926423945901 0 0 -1 I I #
point $-1 -4.2727932927133452 -22.004529460182578 9.0674080059274029 #
straight-curve $-1 2.5888675232258507 -22.004529460182578 1.4226476549436973 1 0 0 I I #
point $-1 -4.2727932927133452 -22.004529460182578 1.422647654943699 #
point $-1 -0.49258195704732799 -15.722975691971884 2.9045263787828777 #
point $-1 5.1777350464517014 -15.722975691971884 2.9045263787828777 #
point $-1 10.848052049950731 -15.722975691971884 2.9045263787828777 #
straight-curve $-1 -54.198414138507218 0 -3.2647417298998791 0 1 0 I I #
straight-curve $-1 -54.198414138507218 -22.004529460182578 -0.80386485206816438 0 0 -1 I I #
point $-1 -54.198414138507218 -22.004529460182578 -3.2647417298998791 #
End-of-ACIS-data 