500 0 5 0           
7 Unknown 11 ACIS 5.0 NT 24 Thu Mar 25 19:47:37 1999 
-1 9.9999999999999995e-007 1e-010 
body $-1 $5 $-1 $6 #
body $-1 $7 $-1 $8 #
body $-1 $9 $-1 $10 #
body $-1 $11 $-1 $12 #
body $-1 $13 $-1 $14 #
lump $-1 $-1 $15 $0 #
transform $-1 1 0 0 0 1 0 0 0 1 58.903164769432664 26.807258663416381 9.8185562951483298 1 rotate no_reflect no_shear #
lump $-1 $-1 $16 $1 #
transform $-1 1 0 0 0 1 0 0 0 1 58.903164769432664 26.807258663416381 9.8185562951483298 1 rotate no_reflect no_shear #
lump $-1 $-1 $17 $2 #
transform $-1 1 0 0 0 1 0 0 0 1 58.903164769432664 26.807258663416381 9.8185562951483298 1 rotate no_reflect no_shear #
lump $-1 $-1 $18 $3 #
transform $-1 1 0 0 0 1 0 0 0 1 58.903164769432664 26.807258663416381 9.8185562951483298 1 rotate no_reflect no_shear #
lump $-1 $-1 $19 $4 #
transform $-1 1 0 0 0 1 0 0 0 1 58.903164769432664 26.807258663416381 9.8185562951483298 1 rotate no_reflect no_shear #
shell $-1 $-1 $-1 $20 $-1 $5 #
shell $-1 $-1 $-1 $21 $-1 $7 #
shell $-1 $-1 $-1 $22 $-1 $9 #
shell $-1 $-1 $-1 $23 $-1 $11 #
shell $-1 $-1 $-1 $24 $-1 $13 #
face $-1 $25 $26 $15 $-1 $27 forward single #
face $-1 $28 $29 $16 $-1 $30 forward single #
face $-1 $31 $32 $17 $-1 $33 forward single #
face $-1 $34 $35 $18 $-1 $36 reversed single #
face $-1 $37 $38 $19 $-1 $39 reversed single #
face $-1 $40 $41 $15 $-1 $42 reversed single #
loop $-1 $-1 $43 $20 #
plane-surface $-1 0 0 9.8185562951483298 0 0 1 1 0 0 forward_v I I I I #
face $-1 $44 $45 $16 $-1 $46 forward single #
loop $-1 $-1 $47 $21 #
plane-surface $-1 0 -22.755497330858564 4.4880034414567582 0 0 1 1 0 0 forward_v I I I I #
face $-1 $48 $49 $17 $-1 $50 forward single #
loop $-1 $-1 $51 $22 #
plane-surface $-1 46.294360545387804 -12.40391663869589 43.054783985968768 0 0.68199836817093118 0.7313536940579346 1 0 0 forward_v I I I I #
face $-1 $52 $53 $18 $-1 $54 reversed single #
loop $-1 $55 $56 $23 #
cone-surface $-1 40.890587306511449 24.681416739602685 7.7884866299435451 0 -0.68199836817093118 -0.7313536940579346 0.5 0 0 1 I I 0 1 0.5 forward I I I I #
face $-1 $57 $58 $19 $-1 $59 reversed single #
loop $-1 $60 $61 $24 #
cone-surface $-1 51.698133784264172 24.681416739602685 7.7884866299435451 0 -0.68199836817093118 -0.7313536940579346 0.5 0 0 1 I I 0 1 0.5 forward I I I I #
face $-1 $62 $63 $15 $-1 $64 reversed single #
loop $-1 $-1 $65 $25 #
plane-surface $-1 0 0 -9.8185562951483298 0 0 1 1 0 0 forward_v I I I I #
coedge $-1 $66 $67 $68 $69 forward $26 $-1 #
face $-1 $70 $71 $16 $-1 $72 forward single #
loop $-1 $-1 $73 $28 #
plane-surface $-1 0 -18.703735998300747 7.153279868302544 0 -1 0 0 0 -1 forward_v I I I I #
coedge $-1 $74 $75 $76 $77 reversed $29 $-1 #
face $-1 $78 $79 $17 $-1 $80 reversed single #
loop $-1 $-1 $81 $31 #
plane-surface $-1 33.685556321342951 67.939807867017237 129.2128782776243 1 0 0 0 -0.68199836817093118 -0.7313536940579346 forward_v I I I I #
coedge $-1 $82 $83 $84 $85 reversed $32 $-1 #
face $-1 $86 $87 $18 $-1 $88 forward single #
loop $-1 $89 $90 $34 #
cone-surface $-1 40.890587306511449 24.169917963474486 7.2399713594000943 0 -0.68199836817093118 -0.7313536940579346 0.25 0 0 1 I I -0.70710678118654746 0.70710678118654746 0.25 forward I I I I #
loop $-1 $-1 $91 $23 #
coedge $-1 $56 $56 $92 $93 reversed $35 $-1 #
face $-1 $94 $95 $19 $-1 $96 reversed single #
loop $-1 $97 $98 $37 #
cone-surface $-1 51.698133784264172 24.169917963474486 7.2399713594000943 0 -0.68199836817093118 -0.7313536940579346 0.25 0 0 1 I I -0.70710678118654746 0.70710678118654746 0.25 forward I I I I #
loop $-1 $-1 $99 $24 #
coedge $-1 $61 $61 $100 $101 reversed $38 $-1 #
face $-1 $102 $103 $15 $-1 $104 reversed single #
loop $-1 $-1 $105 $40 #
plane-surface $-1 0 -26.807258663416381 0 0 1 0 0 0 1 forward_v I I I I #
coedge $-1 $106 $107 $108 $109 forward $41 $-1 #
coedge $-1 $110 $43 $111 $112 forward $26 $-1 #
coedge $-1 $43 $110 $113 $114 forward $26 $-1 #
coedge $-1 $115 $116 $43 $69 reversed $117 $-1 #
edge $-1 $118 -26.807258663416381 $119 26.807258663416381 $68 $120 forward 7 unknown #
face $-1 $121 $122 $16 $-1 $123 reversed single #
loop $-1 $-1 $124 $44 #
plane-surface $-1 0 0 9.8185562951483298 0 0 1 1 0 0 forward_v I I I I #
coedge $-1 $125 $126 $127 $128 reversed $45 $-1 #
coedge $-1 $129 $47 $126 $130 reversed $29 $-1 #
coedge $-1 $47 $129 $131 $132 reversed $29 $-1 #
coedge $-1 $133 $127 $47 $77 forward $122 $-1 #
edge $-1 $134 7.3259873328714651 $135 15.429509997987099 $76 $136 forward 7 unknown #
face $-1 $137 $138 $17 $-1 $139 reversed single #
loop $-1 $-1 $140 $48 #
plane-surface $-1 0 26.807258663416381 0 0 -1 0 0 0 -1 forward_v I I I I #
coedge $-1 $141 $142 $140 $143 reversed $49 $-1 #
coedge $-1 $144 $51 $142 $145 reversed $32 $-1 #
coedge $-1 $51 $144 $146 $147 reversed $32 $-1 #
coedge $-1 $148 $140 $51 $85 forward $79 $-1 #
edge $-1 $149 10.538376048649049 $150 35.755984496738762 $84 $151 forward 7 unknown #
face $-1 $152 $153 $18 $-1 $154 forward single #
loop $-1 $155 $92 $52 #
plane-surface $-1 46.294360545387804 -12.40391663869589 43.054783985968768 0 0.68199836817093118 0.7313536940579346 1 0 0 forward_v I I I I #
loop $-1 $-1 $156 $34 #
coedge $-1 $90 $90 $91 $157 forward $53 $-1 #
coedge $-1 $91 $91 $90 $157 reversed $55 $-1 #
coedge $-1 $92 $92 $56 $93 forward $87 $-1 #
edge $-1 $158 -6.6949151751635336e-016 $158 6.2831853071795996 $92 $159 forward 7 unknown #
face $-1 $160 $161 $19 $-1 $162 reversed single #
loop $-1 $163 $164 $57 #
cone-surface $-1 40.890587306511449 24.681416739602685 7.7884866299435451 0 -0.68199836817093118 -0.7313536940579346 0.5 0 0 1 I I 0 1 0.5 forward I I I I #
loop $-1 $-1 $165 $37 #
coedge $-1 $98 $98 $99 $166 forward $58 $-1 #
coedge $-1 $99 $99 $98 $166 reversed $60 $-1 #
coedge $-1 $100 $100 $61 $101 forward $167 $-1 #
edge $-1 $168 -6.6949151751635336e-016 $168 6.2831853071795996 $100 $169 forward 7 unknown #
face $-1 $170 $171 $15 $-1 $172 reversed single #
loop $-1 $-1 $173 $62 #
plane-surface $-1 -58.903164769432664 0 0 1 0 0 0 0 -1 forward_v I I I I #
coedge $-1 $174 $113 $175 $176 forward $63 $-1 #
coedge $-1 $177 $65 $174 $178 forward $41 $-1 #
coedge $-1 $65 $177 $179 $180 forward $41 $-1 #
coedge $-1 $116 $115 $65 $109 reversed $117 $-1 #
edge $-1 $181 -26.807258663416381 $182 26.807258663416381 $108 $183 forward 7 unknown #
coedge $-1 $67 $66 $184 $185 forward $26 $-1 #
coedge $-1 $186 $187 $66 $112 reversed $171 $-1 #
edge $-1 $119 -58.903164769432664 $188 58.903164769432664 $111 $189 forward 7 unknown #
coedge $-1 $105 $190 $67 $114 reversed $63 $-1 #
edge $-1 $191 -58.903164769432664 $118 58.903164769432664 $113 $192 forward 7 unknown #
coedge $-1 $108 $68 $190 $193 forward $117 $-1 #
coedge $-1 $68 $108 $186 $194 reversed $117 $-1 #
loop $-1 $-1 $115 $170 #
vertex $-1 $69 $195 #
vertex $-1 $69 $196 #
straight-curve $-1 58.903164769432664 0 9.8185562951483298 0 1 0 I I #
face $-1 $197 $198 $16 $-1 $199 reversed single #
loop $-1 $-1 $127 $70 #
plane-surface $-1 58.903164769432664 0 0 -1 0 0 0 0 1 forward_v I I I I #
coedge $-1 $200 $201 $125 $202 forward $71 $-1 #
coedge $-1 $203 $73 $124 $202 reversed $45 $-1 #
coedge $-1 $73 $203 $74 $130 forward $45 $-1 #
coedge $-1 $76 $204 $73 $128 forward $122 $-1 #
edge $-1 $205 -6.2419163609970578 $134 -0.91136350730548621 $127 $206 forward 7 unknown #
coedge $-1 $75 $74 $207 $208 reversed $29 $-1 #
edge $-1 $209 -58.903164769432664 $134 58.903164769432664 $126 $210 forward 7 unknown #
coedge $-1 $211 $212 $75 $132 forward $213 $-1 #
edge $-1 $135 -58.903164769432664 $214 58.903164769432664 $131 $215 forward 7 unknown #
coedge $-1 $216 $76 $212 $217 forward $122 $-1 #
vertex $-1 $77 $218 #
vertex $-1 $217 $219 #
straight-curve $-1 58.903164769432664 -11.377748665429282 4.4880034414567582 0 -1 0 I I #
face $-1 $220 $221 $17 $-1 $222 forward single #
loop $-1 $-1 $146 $78 #
plane-surface $-1 58.903164769432664 0 0 -1 0 0 0 0 1 forward_v I I I I #
coedge $-1 $84 $223 $81 $143 forward $79 $-1 #
coedge $-1 $142 $81 $224 $225 reversed $49 $-1 #
coedge $-1 $81 $141 $82 $145 forward $49 $-1 #
edge $-1 $226 54.787882843663823 $149 58.116668480015427 $140 $227 forward 7 unknown #
coedge $-1 $83 $82 $228 $229 reversed $32 $-1 #
edge $-1 $230 48.733588292824699 $149 53.61451732683274 $142 $231 forward 7 unknown #
coedge $-1 $232 $233 $83 $147 forward $138 $-1 #
edge $-1 $150 -34.397045989392964 $234 -29.516116955384916 $146 $235 forward 7 unknown #
coedge $-1 $236 $84 $233 $237 forward $79 $-1 #
vertex $-1 $85 $238 #
vertex $-1 $237 $239 #
straight-curve $-1 23.147180272693902 26.807258663416377 6.4897706587967257 1 0 0 I I #
face $-1 $240 $241 $18 $-1 $242 reversed single #
loop $-1 $-1 $243 $86 #
plane-surface $-1 33.685556321342951 67.939807867017237 129.2128782776243 1 0 0 0 -0.68199836817093118 -0.7313536940579346 forward_v I I I I #
loop $-1 $-1 $244 $52 #
coedge $-1 $156 $156 $-1 $245 forward $89 $-1 #
edge $-1 $246 0 $246 6.2831853071796004 $90 $247 forward 7 unknown #
vertex $-1 $93 $248 #
ellipse-curve $-1 40.890587306511449 25.022415923688168 8.1541634769725313 0 -0.68199836817093118 -0.7313536940579346 0.5 0 0 1 I I #
face $-1 $249 $167 $19 $-1 $250 forward single #
loop $-1 $251 $252 $94 #
cone-surface $-1 40.890587306511449 24.169917963474486 7.2399713594000943 0 -0.68199836817093118 -0.7313536940579346 0.25 0 0 1 I I -0.70710678118654746 0.70710678118654746 0.25 forward I I I I #
loop $-1 $-1 $253 $57 #
coedge $-1 $164 $164 $254 $255 reversed $95 $-1 #
coedge $-1 $165 $165 $-1 $256 forward $97 $-1 #
edge $-1 $257 0 $257 6.2831853071796004 $98 $258 forward 7 unknown #
loop $-1 $259 $100 $160 #
vertex $-1 $101 $260 #
ellipse-curve $-1 51.698133784264172 25.022415923688168 8.1541634769725313 0 -0.68199836817093118 -0.7313536940579346 0.5 0 0 1 I I #
face $-1 $-1 $117 $15 $-1 $261 reversed single #
loop $-1 $-1 $186 $102 #
plane-surface $-1 0 26.807258663416381 0 0 -1 0 0 0 -1 forward_v I I I I #
coedge $-1 $262 $184 $187 $263 forward $103 $-1 #
coedge $-1 $190 $105 $106 $178 reversed $63 $-1 #
coedge $-1 $184 $262 $105 $176 reversed $103 $-1 #
edge $-1 $191 -9.8185562951483298 $264 9.8185562951483298 $175 $265 forward 7 unknown #
coedge $-1 $107 $106 $262 $266 forward $41 $-1 #
edge $-1 $182 -58.903164769432664 $264 58.903164769432664 $174 $267 forward 7 unknown #
coedge $-1 $187 $186 $107 $180 reversed $171 $-1 #
edge $-1 $268 -58.903164769432664 $181 58.903164769432664 $179 $269 forward 7 unknown #
vertex $-1 $109 $270 #
vertex $-1 $193 $271 #
straight-curve $-1 58.903164769432664 0 -9.8185562951483298 0 -1 0 I I #
coedge $-1 $173 $175 $110 $185 reversed $103 $-1 #
edge $-1 $188 -26.807258663416381 $191 26.807258663416381 $184 $272 forward 7 unknown #
coedge $-1 $179 $111 $116 $194 forward $171 $-1 #
coedge $-1 $111 $179 $173 $263 reversed $171 $-1 #
vertex $-1 $112 $273 #
straight-curve $-1 0 26.807258663416381 9.8185562951483298 -1 0 0 I I #
coedge $-1 $113 $174 $115 $193 reversed $63 $-1 #
vertex $-1 $185 $274 #
straight-curve $-1 0 -26.807258663416381 9.8185562951483298 1 0 0 I I #
edge $-1 $118 -9.8185562951483298 $182 9.8185562951483298 $115 $275 forward 7 unknown #
edge $-1 $119 -9.8185562951483298 $181 9.8185562951483298 $116 $276 forward 7 unknown #
point $-1 58.903164769432664 -26.807258663416381 9.8185562951483298 #
point $-1 58.903164769432664 26.807258663416381 9.8185562951483298 #
face $-1 $277 $213 $16 $-1 $278 reversed single #
loop $-1 $-1 $279 $121 #
plane-surface $-1 0 0 -9.8185562951483298 0 0 1 1 0 0 forward_v I I I I #
coedge $-1 $280 $124 $204 $281 forward $71 $-1 #
coedge $-1 $124 $280 $282 $283 forward $71 $-1 #
edge $-1 $284 -58.903164769432664 $205 58.903164769432664 $124 $285 forward 7 unknown #
coedge $-1 $126 $125 $286 $287 reversed $45 $-1 #
coedge $-1 $127 $288 $200 $281 reversed $122 $-1 #
vertex $-1 $281 $289 #
straight-curve $-1 58.903164769432664 -18.703735998300747 3.576639934151272 0 0 -1 I I #
coedge $-1 $286 $290 $129 $208 forward $291 $-1 #
edge $-1 $214 -15.429509997987099 $209 -7.3259873328714651 $207 $292 forward 7 unknown #
vertex $-1 $208 $293 #
straight-curve $-1 0 -18.703735998300747 4.4880034414567582 1 0 0 I I #
coedge $-1 $294 $131 $290 $295 forward $213 $-1 #
coedge $-1 $131 $294 $133 $217 reversed $213 $-1 #
loop $-1 $-1 $131 $197 #
vertex $-1 $295 $296 #
straight-curve $-1 0 -26.807258663416381 4.4880034414567582 -1 0 0 I I #
coedge $-1 $288 $133 $279 $297 reversed $122 $-1 #
edge $-1 $135 -4.4880034414567582 $298 9.8185562951483298 $133 $299 forward 7 unknown #
point $-1 58.903164769432664 -18.703735998300747 4.4880034414567582 #
point $-1 58.903164769432664 -26.807258663416381 4.4880034414567582 #
face $-1 $300 $301 $17 $-1 $302 forward single #
loop $-1 $-1 $303 $137 #
plane-surface $-1 0 -22.755497330858564 4.4880034414567582 0 0 1 1 0 0 forward_v I I I I #
coedge $-1 $140 $304 $305 $306 reversed $79 $-1 #
coedge $-1 $305 $228 $141 $225 forward $307 $-1 #
edge $-1 $230 -10.732330749548652 $226 -7.1626452700922378 $224 $308 forward 7 unknown #
vertex $-1 $306 $309 #
straight-curve $-1 33.685556321342951 26.807258663416381 64.606439138812149 0 0 -1 I I #
coedge $-1 $224 $310 $144 $229 forward $307 $-1 #
edge $-1 $234 -35.755984496738755 $230 -10.538376048649049 $228 $311 forward 7 unknown #
vertex $-1 $229 $312 #
straight-curve $-1 33.685556321342951 -12.40391663869589 43.054783985968768 0 0.7313536940579346 -0.68199836817093118 I I #
coedge $-1 $313 $146 $310 $314 reversed $138 $-1 #
coedge $-1 $146 $315 $148 $237 reversed $138 $-1 #
vertex $-1 $229 $316 #
straight-curve $-1 58.903164769432664 1.6508520143931689 29.948499893463193 0 -0.7313536940579346 0.68199836817093118 I I #
coedge $-1 $304 $148 $317 $318 reversed $79 $-1 #
edge $-1 $150 -6.4897706587967248 $319 9.8185562951483298 $233 $320 forward 7 unknown #
point $-1 33.685556321342951 26.807258663416377 6.4897706587967221 #
point $-1 58.903164769432664 26.807258663416381 6.4897706587967248 #
face $-1 $321 $322 $18 $-1 $323 reversed single #
loop $-1 $-1 $324 $152 #
plane-surface $-1 0 26.807258663416381 0 0 -1 0 0 0 -1 forward_v I I I I #
coedge $-1 $325 $326 $324 $327 reversed $153 $-1 #
coedge $-1 $328 $329 $330 $331 reversed $155 $-1 #
edge $-1 $332 1 $332 0 $156 $-1 forward 7 unknown #
vertex $-1 $157 $333 #
ellipse-curve $-1 40.890587306511449 24.34041755551722 7.4228097829145776 0 0.68199836817093118 0.7313536940579346 0.5 0 0 1 I I #
point $-1 41.390587306511449 25.02241592368815 8.1541634769725118 #
face $-1 $334 $335 $19 $-1 $336 forward single #
plane-surface $-1 46.294360545387804 -12.40391663869589 43.054783985968768 0 0.68199836817093118 0.7313536940579346 1 0 0 forward_v I I I I #
loop $-1 $-1 $337 $94 #
coedge $-1 $252 $252 $253 $338 forward $161 $-1 #
coedge $-1 $253 $253 $252 $338 reversed $163 $-1 #
coedge $-1 $254 $254 $164 $255 forward $259 $-1 #
edge $-1 $339 -6.6949151751635336e-016 $339 6.2831853071795996 $254 $340 forward 7 unknown #
edge $-1 $341 1 $341 0 $165 $-1 forward 7 unknown #
vertex $-1 $166 $342 #
ellipse-curve $-1 51.698133784264172 24.34041755551722 7.4228097829145776 0 0.68199836817093118 0.7313536940579346 0.5 0 0 1 I I #
loop $-1 $343 $254 $160 #
point $-1 52.198133784264172 25.02241592368815 8.1541634769725118 #
plane-surface $-1 58.903164769432664 0 0 -1 0 0 0 0 1 forward_v I I I I #
coedge $-1 $175 $173 $177 $266 reversed $103 $-1 #
edge $-1 $188 -9.8185562951483298 $268 9.8185562951483298 $187 $344 forward 7 unknown #
vertex $-1 $266 $345 #
straight-curve $-1 -58.903164769432664 -26.807258663416381 0 0 0 -1 I I #
edge $-1 $264 -26.807258663416381 $268 26.807258663416381 $262 $346 forward 7 unknown #
straight-curve $-1 0 -26.807258663416381 -9.8185562951483298 -1 0 0 I I #
vertex $-1 $180 $347 #
straight-curve $-1 0 26.807258663416381 -9.8185562951483298 1 0 0 I I #
point $-1 58.903164769432664 26.807258663416381 -9.8185562951483298 #
point $-1 58.903164769432664 -26.807258663416381 -9.8185562951483298 #
straight-curve $-1 -58.903164769432664 0 9.8185562951483298 0 -1 0 I I #
point $-1 -58.903164769432664 26.807258663416381 9.8185562951483298 #
point $-1 -58.903164769432664 -26.807258663416381 9.8185562951483298 #
straight-curve $-1 58.903164769432664 -26.807258663416381 0 0 0 -1 I I #
straight-curve $-1 58.903164769432664 26.807258663416381 0 0 0 -1 I I #
face $-1 $348 $291 $16 $-1 $349 reversed single #
plane-surface $-1 0 -26.807258663416381 0 0 1 0 0 0 1 forward_v I I I I #
coedge $-1 $350 $351 $216 $297 forward $198 $-1 #
coedge $-1 $201 $200 $352 $353 forward $71 $-1 #
edge $-1 $205 -18.703735998300747 $354 26.807258663416381 $204 $355 forward 7 unknown #
coedge $-1 $356 $286 $201 $283 reversed $291 $-1 #
edge $-1 $357 -26.807258663416381 $284 18.703735998300747 $282 $358 forward 7 unknown #
vertex $-1 $287 $359 #
straight-curve $-1 0 -18.703735998300747 9.8185562951483298 1 0 0 I I #
coedge $-1 $282 $207 $203 $287 forward $291 $-1 #
edge $-1 $209 0.91136350730548621 $284 6.2419163609970578 $286 $360 forward 7 unknown #
coedge $-1 $204 $216 $361 $362 reversed $122 $-1 #
point $-1 58.903164769432664 -18.703735998300747 9.8185562951483298 #
coedge $-1 $207 $363 $211 $295 reversed $291 $-1 #
loop $-1 $-1 $286 $277 #
straight-curve $-1 -58.903164769432664 -11.377748665429282 4.4880034414567582 0 1 0 I I #
point $-1 -58.903164769432664 -18.703735998300747 4.4880034414567582 #
coedge $-1 $212 $211 $350 $364 reversed $213 $-1 #
edge $-1 $214 -4.4880034414567582 $365 9.8185562951483298 $290 $366 forward 7 unknown #
point $-1 -58.903164769432664 -26.807258663416381 4.4880034414567582 #
edge $-1 $367 -26.807258663416381 $298 26.807258663416381 $216 $368 forward 7 unknown #
vertex $-1 $217 $369 #
straight-curve $-1 58.903164769432664 -26.807258663416381 0 0 0 -1 I I #
face $-1 $370 $307 $17 $-1 $371 forward single #
loop $-1 $-1 $372 $220 #
plane-surface $-1 0 -18.703735998300747 7.153279868302544 0 -1 0 0 0 -1 forward_v I I I I #
coedge $-1 $373 $374 $375 $376 reversed $221 $-1 #
coedge $-1 $223 $236 $377 $378 reversed $79 $-1 #
coedge $-1 $379 $224 $223 $306 forward $307 $-1 #
edge $-1 $226 -33.685556321342951 $380 58.903164769432664 $223 $381 forward 7 unknown #
loop $-1 $-1 $224 $300 #
straight-curve $-1 33.685556321342951 33.969903933508618 9.8185562951483263 0 1 0 I I #
point $-1 33.685556321342951 26.807258663416381 9.8185562951483298 #
coedge $-1 $228 $382 $232 $314 forward $307 $-1 #
straight-curve $-1 23.147180272693902 23.23757318395997 9.8185562951483298 -1 0 0 I I #
point $-1 33.685556321342951 23.237573183959967 9.8185562951483263 #
coedge $-1 $375 $232 $372 $383 forward $138 $-1 #
edge $-1 $384 -18.703735998300747 $234 23.237573183959967 $232 $385 forward 7 unknown #
coedge $-1 $233 $386 $387 $388 reversed $138 $-1 #
point $-1 58.903164769432657 23.237573183959967 9.8185562951483263 #
coedge $-1 $387 $389 $236 $318 forward $390 $-1 #
edge $-1 $391 -58.903164769432664 $319 58.903164769432664 $236 $392 forward 7 unknown #
vertex $-1 $388 $393 #
straight-curve $-1 58.903164769432664 26.807258663416381 0 0 0 -1 I I #
face $-1 $394 $395 $18 $-1 $396 forward single #
loop $-1 $-1 $397 $240 #
plane-surface $-1 58.903164769432664 0 0 -1 0 0 0 0 1 forward_v I I I I #
coedge $-1 $330 $398 $243 $327 forward $241 $-1 #
coedge $-1 $326 $243 $399 $400 reversed $153 $-1 #
coedge $-1 $243 $325 $328 $401 forward $153 $-1 #
edge $-1 $402 54.787882843663823 $403 58.116668480015427 $324 $404 forward 7 unknown #
coedge $-1 $405 $244 $326 $401 reversed $155 $-1 #
coedge $-1 $244 $405 $397 $406 reversed $155 $-1 #
coedge $-1 $407 $324 $244 $331 forward $241 $-1 #
edge $-1 $403 10.538376048649049 $408 35.755984496738762 $330 $409 forward 7 unknown #
vertex $-1 $245 $410 #
point $-1 41.390587306511449 24.34041755551722 7.4228097829145776 #
face $-1 $411 $412 $19 $-1 $413 reversed single #
loop $-1 $-1 $414 $249 #
plane-surface $-1 33.685556321342951 67.939807867017237 129.2128782776243 1 0 0 0 -0.68199836817093118 -0.7313536940579346 forward_v I I I I #
coedge $-1 $337 $337 $-1 $415 forward $251 $-1 #
edge $-1 $416 0 $416 6.2831853071796004 $252 $417 forward 7 unknown #
vertex $-1 $255 $418 #
ellipse-curve $-1 40.890587306511449 25.022415923688168 8.1541634769725313 0 -0.68199836817093118 -0.7313536940579346 0.5 0 0 1 I I #
vertex $-1 $256 $419 #
point $-1 52.198133784264172 24.34041755551722 7.4228097829145776 #
loop $-1 $-1 $420 $160 #
straight-curve $-1 -58.903164769432664 26.807258663416381 0 0 0 -1 I I #
point $-1 -58.903164769432664 -26.807258663416381 -9.8185562951483298 #
straight-curve $-1 -58.903164769432664 0 -9.8185562951483298 0 1 0 I I #
point $-1 -58.903164769432664 26.807258663416381 -9.8185562951483298 #
face $-1 $-1 $421 $16 $-1 $422 reversed single #
plane-surface $-1 -58.903164769432664 0 0 1 0 0 0 0 -1 forward_v I I I I #
coedge $-1 $423 $279 $294 $364 forward $198 $-1 #
coedge $-1 $279 $423 $424 $425 forward $198 $-1 #
coedge $-1 $361 $426 $280 $353 reversed $421 $-1 #
edge $-1 $354 -58.903164769432664 $357 58.903164769432664 $352 $427 forward 7 unknown #
vertex $-1 $281 $428 #
straight-curve $-1 58.903164769432664 0 9.8185562951483298 0 1 0 I I #
coedge $-1 $363 $282 $426 $429 forward $291 $-1 #
vertex $-1 $353 $430 #
straight-curve $-1 -58.903164769432664 0 9.8185562951483298 0 -1 0 I I #
point $-1 -58.903164769432664 -18.703735998300747 9.8185562951483298 #
straight-curve $-1 -58.903164769432664 -18.703735998300747 3.576639934151272 0 0 1 I I #
coedge $-1 $424 $352 $288 $362 forward $421 $-1 #
edge $-1 $354 -9.8185562951483298 $367 9.8185562951483298 $288 $431 forward 7 unknown #
coedge $-1 $290 $356 $423 $432 reversed $291 $-1 #
edge $-1 $298 -58.903164769432664 $365 58.903164769432664 $294 $433 forward 7 unknown #
vertex $-1 $432 $434 #
straight-curve $-1 -58.903164769432664 -26.807258663416381 0 0 0 -1 I I #
vertex $-1 $297 $435 #
straight-curve $-1 58.903164769432664 0 -9.8185562951483298 0 -1 0 I I #
point $-1 58.903164769432664 -26.807258663416381 -9.8185562951483298 #
face $-1 $436 $390 $17 $-1 $437 reversed single #
plane-surface $-1 0 0 9.8185562951483298 0 0 1 1 0 0 forward_v I I I I #
coedge $-1 $438 $439 $313 $383 reversed $301 $-1 #
coedge $-1 $440 $303 $439 $441 reversed $221 $-1 #
coedge $-1 $303 $440 $442 $443 reversed $221 $-1 #
coedge $-1 $386 $313 $303 $376 forward $138 $-1 #
edge $-1 $444 7.3259873328714651 $445 15.429509997987099 $375 $446 forward 7 unknown #
coedge $-1 $447 $448 $304 $378 forward $449 $-1 #
edge $-1 $380 -9.8185562951483298 $391 9.8185562951483298 $304 $450 forward 7 unknown #
coedge $-1 $382 $305 $448 $451 forward $307 $-1 #
vertex $-1 $306 $452 #
straight-curve $-1 0 26.807258663416381 9.8185562951483298 -1 0 0 I I #
coedge $-1 $310 $379 $438 $453 forward $307 $-1 #
edge $-1 $384 -6.2419163609970578 $444 -0.91136350730548621 $313 $454 forward 7 unknown #
vertex $-1 $314 $455 #
straight-curve $-1 58.903164769432664 0 9.8185562951483298 0 1 0 I I #
coedge $-1 $315 $375 $456 $457 forward $138 $-1 #
coedge $-1 $458 $317 $315 $388 forward $390 $-1 #
edge $-1 $319 -26.807258663416381 $459 26.807258663416381 $315 $460 forward 7 unknown #
coedge $-1 $317 $458 $447 $461 forward $390 $-1 #
loop $-1 $-1 $387 $370 #
vertex $-1 $318 $462 #
straight-curve $-1 0 26.807258663416381 -9.8185562951483298 1 0 0 I I #
point $-1 58.903164769432664 26.807258663416381 -9.8185562951483298 #
face $-1 $463 $464 $18 $-1 $465 forward single #
loop $-1 $-1 $466 $321 #
plane-surface $-1 0 -22.755497330858564 4.4880034414567582 0 0 1 1 0 0 forward_v I I I I #
coedge $-1 $467 $468 $329 $406 forward $322 $-1 #
coedge $-1 $324 $469 $470 $471 reversed $241 $-1 #
coedge $-1 $470 $472 $325 $400 forward $473 $-1 #
edge $-1 $474 -10.732330749548652 $402 -7.1626452700922378 $399 $475 forward 7 unknown #
edge $-1 $474 48.733588292824699 $403 53.61451732683274 $326 $476 forward 7 unknown #
vertex $-1 $471 $477 #
vertex $-1 $331 $478 #
straight-curve $-1 33.685556321342951 26.807258663416381 64.606439138812149 0 0 -1 I I #
coedge $-1 $329 $328 $472 $479 reversed $155 $-1 #
edge $-1 $408 -34.397045989392964 $480 -29.516116955384916 $397 $481 forward 7 unknown #
coedge $-1 $482 $330 $468 $483 forward $241 $-1 #
vertex $-1 $483 $484 #
straight-curve $-1 23.147180272693902 26.807258663416377 6.4897706587967257 1 0 0 I I #
point $-1 40.890587306511449 23.999418371431751 7.057132935885611 #
face $-1 $485 $486 $19 $-1 $487 reversed single #
loop $-1 $-1 $488 $334 #
plane-surface $-1 0 26.807258663416381 0 0 -1 0 0 0 -1 forward_v I I I I #
coedge $-1 $489 $490 $488 $491 reversed $335 $-1 #
edge $-1 $492 1 $492 0 $337 $-1 forward 7 unknown #
vertex $-1 $338 $493 #
ellipse-curve $-1 40.890587306511449 24.34041755551722 7.4228097829145776 0 0.68199836817093118 0.7313536940579346 0.5 0 0 1 I I #
point $-1 41.390587306511449 25.02241592368815 8.1541634769725118 #
point $-1 51.698133784264172 23.999418371431751 7.057132935885611 #
coedge $-1 $494 $495 $496 $497 reversed $343 $-1 #
loop $-1 $-1 $361 $348 #
plane-surface $-1 0 26.807258663416381 0 0 -1 0 0 0 -1 forward_v I I I I #
coedge $-1 $351 $350 $363 $432 forward $198 $-1 #
coedge $-1 $426 $361 $351 $425 reversed $421 $-1 #
edge $-1 $498 -58.903164769432664 $367 58.903164769432664 $424 $499 forward 7 unknown #
coedge $-1 $352 $424 $356 $429 reversed $421 $-1 #
straight-curve $-1 0 26.807258663416381 9.8185562951483298 -1 0 0 I I #
point $-1 58.903164769432664 26.807258663416381 9.8185562951483298 #
edge $-1 $357 -9.8185562951483298 $498 9.8185562951483298 $426 $500 forward 7 unknown #
point $-1 -58.903164769432664 26.807258663416381 9.8185562951483298 #
straight-curve $-1 58.903164769432664 26.807258663416381 0 0 0 -1 I I #
edge $-1 $365 -26.807258663416381 $498 26.807258663416381 $363 $501 forward 7 unknown #
straight-curve $-1 0 -26.807258663416381 -9.8185562951483298 -1 0 0 I I #
point $-1 -58.903164769432664 -26.807258663416381 -9.8185562951483298 #
point $-1 58.903164769432664 26.807258663416381 -9.8185562951483298 #
face $-1 $502 $503 $17 $-1 $504 reversed single #
plane-surface $-1 0 0 -9.8185562951483298 0 0 1 1 0 0 forward_v I I I I #
coedge $-1 $505 $372 $382 $453 reversed $301 $-1 #
coedge $-1 $372 $505 $373 $441 forward $301 $-1 #
coedge $-1 $374 $373 $506 $507 reversed $221 $-1 #
edge $-1 $508 -58.903164769432664 $444 58.903164769432664 $439 $509 forward 7 unknown #
coedge $-1 $510 $456 $374 $443 forward $503 $-1 #
edge $-1 $445 -58.903164769432664 $511 58.903164769432664 $442 $512 forward 7 unknown #
vertex $-1 $376 $513 #
vertex $-1 $457 $514 #
straight-curve $-1 58.903164769432664 -11.377748665429282 4.4880034414567582 0 -1 0 I I #
coedge $-1 $515 $377 $389 $461 reversed $449 $-1 #
coedge $-1 $377 $516 $379 $451 reversed $449 $-1 #
loop $-1 $-1 $516 $502 #
straight-curve $-1 -58.903164769432664 26.807258663416381 0 0 0 -1 I I #
edge $-1 $380 -26.807258663416381 $517 18.703735998300747 $448 $518 forward 7 unknown #
point $-1 -58.903164769432664 26.807258663416381 9.8185562951483298 #
edge $-1 $517 -58.903164769432664 $384 58.903164769432664 $382 $519 forward 7 unknown #
straight-curve $-1 58.903164769432664 -18.703735998300747 3.576639934151272 0 0 -1 I I #
point $-1 58.903164769432664 -18.703735998300747 9.8185562951483298 #
coedge $-1 $442 $520 $386 $457 reversed $503 $-1 #
edge $-1 $445 -4.4880034414567582 $459 9.8185562951483298 $386 $521 forward 7 unknown #
coedge $-1 $389 $387 $520 $522 forward $390 $-1 #
vertex $-1 $457 $523 #
straight-curve $-1 58.903164769432664 0 -9.8185562951483298 0 -1 0 I I #
edge $-1 $524 -26.807258663416381 $391 26.807258663416381 $447 $525 forward 7 unknown #
point $-1 -58.903164769432664 26.807258663416381 -9.8185562951483298 #
face $-1 $526 $473 $18 $-1 $527 forward single #
loop $-1 $-1 $528 $394 #
plane-surface $-1 0 -18.703735998300747 7.153279868302544 0 -1 0 0 0 -1 forward_v I I I I #
coedge $-1 $529 $530 $531 $532 reversed $395 $-1 #
coedge $-1 $533 $397 $534 $535 reversed $322 $-1 #
coedge $-1 $397 $536 $407 $483 reversed $322 $-1 #
coedge $-1 $398 $482 $537 $538 reversed $241 $-1 #
coedge $-1 $539 $399 $398 $471 forward $473 $-1 #
edge $-1 $402 -33.685556321342951 $540 58.903164769432664 $398 $541 forward 7 unknown #
coedge $-1 $399 $534 $405 $479 forward $473 $-1 #
loop $-1 $-1 $399 $463 #
vertex $-1 $479 $542 #
straight-curve $-1 33.685556321342951 33.969903933508618 9.8185562951483263 0 1 0 I I #
straight-curve $-1 33.685556321342951 -12.40391663869589 43.054783985968768 0 0.7313536940579346 -0.68199836817093118 I I #
point $-1 33.685556321342951 26.807258663416381 9.8185562951483298 #
point $-1 33.685556321342951 26.807258663416377 6.4897706587967221 #
edge $-1 $480 -35.755984496738755 $474 -10.538376048649049 $472 $543 forward 7 unknown #
vertex $-1 $479 $544 #
straight-curve $-1 58.903164769432664 1.6508520143931689 29.948499893463193 0 -0.7313536940579346 0.68199836817093118 I I #
coedge $-1 $469 $407 $545 $546 reversed $241 $-1 #
edge $-1 $408 -6.4897706587967248 $547 9.8185562951483298 $468 $548 forward 7 unknown #
point $-1 58.903164769432664 26.807258663416381 6.4897706587967248 #
face $-1 $549 $550 $19 $-1 $551 forward single #
loop $-1 $-1 $552 $411 #
plane-surface $-1 58.903164769432664 0 0 -1 0 0 0 0 1 forward_v I I I I #
coedge $-1 $496 $553 $414 $491 forward $412 $-1 #
coedge $-1 $490 $414 $554 $555 reversed $335 $-1 #
coedge $-1 $414 $489 $494 $556 forward $335 $-1 #
edge $-1 $557 54.787882843663823 $558 58.116668480015427 $488 $559 forward 7 unknown #
vertex $-1 $415 $560 #
point $-1 41.390587306511449 24.34041755551722 7.4228097829145776 #
coedge $-1 $561 $420 $490 $556 reversed $343 $-1 #
coedge $-1 $420 $561 $552 $562 reversed $343 $-1 #
coedge $-1 $563 $488 $420 $497 forward $412 $-1 #
edge $-1 $558 10.538376048649049 $564 35.755984496738762 $496 $565 forward 7 unknown #
vertex $-1 $425 $566 #
straight-curve $-1 0 26.807258663416381 -9.8185562951483298 1 0 0 I I #
straight-curve $-1 -58.903164769432664 26.807258663416381 0 0 0 -1 I I #
straight-curve $-1 -58.903164769432664 0 -9.8185562951483298 0 1 0 I I #
face $-1 $-1 $449 $17 $-1 $567 reversed single #
loop $-1 $-1 $442 $436 #
plane-surface $-1 0 -26.807258663416381 0 0 1 0 0 0 1 forward_v I I I I #
coedge $-1 $439 $438 $516 $568 reversed $301 $-1 #
coedge $-1 $516 $515 $440 $507 forward $449 $-1 #
edge $-1 $511 -15.429509997987099 $508 -7.3259873328714651 $506 $569 forward 7 unknown #
vertex $-1 $507 $570 #
straight-curve $-1 0 -18.703735998300747 4.4880034414567582 1 0 0 I I #
coedge $-1 $520 $442 $515 $571 forward $503 $-1 #
vertex $-1 $571 $572 #
straight-curve $-1 0 -26.807258663416381 4.4880034414567582 -1 0 0 I I #
point $-1 58.903164769432664 -18.703735998300747 4.4880034414567582 #
point $-1 58.903164769432664 -26.807258663416381 4.4880034414567582 #
coedge $-1 $506 $447 $510 $571 reversed $449 $-1 #
coedge $-1 $448 $506 $505 $568 forward $449 $-1 #
vertex $-1 $568 $573 #
straight-curve $-1 -58.903164769432664 0 9.8185562951483298 0 -1 0 I I #
straight-curve $-1 0 -18.703735998300747 9.8185562951483298 1 0 0 I I #
coedge $-1 $456 $510 $458 $522 reversed $503 $-1 #
straight-curve $-1 58.903164769432664 -26.807258663416381 0 0 0 -1 I I #
edge $-1 $459 -58.903164769432664 $524 58.903164769432664 $520 $574 forward 7 unknown #
point $-1 58.903164769432664 -26.807258663416381 -9.8185562951483298 #
vertex $-1 $461 $575 #
straight-curve $-1 -58.903164769432664 0 -9.8185562951483298 0 1 0 I I #
face $-1 $576 $577 $18 $-1 $578 reversed single #
plane-surface $-1 0 0 9.8185562951483298 0 0 1 1 0 0 forward_v I I I I #
coedge $-1 $579 $580 $533 $581 reversed $464 $-1 #
coedge $-1 $582 $466 $580 $583 reversed $395 $-1 #
coedge $-1 $466 $582 $584 $585 reversed $395 $-1 #
coedge $-1 $586 $533 $466 $532 forward $322 $-1 #
edge $-1 $587 7.3259873328714651 $588 15.429509997987099 $531 $589 forward 7 unknown #
coedge $-1 $531 $467 $528 $581 forward $322 $-1 #
coedge $-1 $472 $590 $467 $535 forward $473 $-1 #
edge $-1 $591 -18.703735998300747 $480 23.237573183959967 $467 $592 forward 7 unknown #
coedge $-1 $468 $586 $593 $594 reversed $322 $-1 #
coedge $-1 $595 $596 $469 $538 forward $597 $-1 #
edge $-1 $540 -9.8185562951483298 $598 9.8185562951483298 $469 $599 forward 7 unknown #
coedge $-1 $590 $470 $596 $600 forward $473 $-1 #
vertex $-1 $471 $601 #
straight-curve $-1 0 26.807258663416381 9.8185562951483298 -1 0 0 I I #
point $-1 33.685556321342951 23.237573183959967 9.8185562951483263 #
straight-curve $-1 23.147180272693902 23.23757318395997 9.8185562951483298 -1 0 0 I I #
point $-1 58.903164769432657 23.237573183959967 9.8185562951483263 #
coedge $-1 $593 $602 $482 $546 forward $577 $-1 #
edge $-1 $598 -58.903164769432664 $547 58.903164769432664 $482 $603 forward 7 unknown #
vertex $-1 $594 $604 #
straight-curve $-1 58.903164769432664 26.807258663416381 0 0 0 -1 I I #
face $-1 $605 $606 $19 $-1 $607 forward single #
loop $-1 $-1 $608 $485 #
plane-surface $-1 0 -22.755497330858564 4.4880034414567582 0 0 1 1 0 0 forward_v I I I I #
coedge $-1 $609 $610 $495 $562 forward $486 $-1 #
coedge $-1 $488 $611 $612 $613 reversed $412 $-1 #
coedge $-1 $612 $614 $489 $555 forward $615 $-1 #
edge $-1 $616 -10.732330749548652 $557 -7.1626452700922378 $554 $617 forward 7 unknown #
edge $-1 $616 48.733588292824699 $558 53.61451732683274 $490 $618 forward 7 unknown #
vertex $-1 $613 $619 #
vertex $-1 $497 $620 #
straight-curve $-1 33.685556321342951 26.807258663416381 64.606439138812149 0 0 -1 I I #
point $-1 40.890587306511449 23.999418371431751 7.057132935885611 #
coedge $-1 $495 $494 $614 $621 reversed $343 $-1 #
edge $-1 $564 -34.397045989392964 $622 -29.516116955384916 $552 $623 forward 7 unknown #
coedge $-1 $624 $496 $610 $625 forward $412 $-1 #
vertex $-1 $625 $626 #
straight-curve $-1 23.147180272693902 26.807258663416377 6.4897706587967257 1 0 0 I I #
point $-1 -58.903164769432664 26.807258663416381 -9.8185562951483298 #
plane-surface $-1 -58.903164769432664 0 0 1 0 0 0 0 -1 forward_v I I I I #
edge $-1 $508 0.91136350730548621 $517 6.2419163609970578 $516 $627 forward 7 unknown #
straight-curve $-1 -58.903164769432664 -11.377748665429282 4.4880034414567582 0 1 0 I I #
point $-1 -58.903164769432664 -18.703735998300747 4.4880034414567582 #
edge $-1 $511 -4.4880034414567582 $524 9.8185562951483298 $515 $628 forward 7 unknown #
point $-1 -58.903164769432664 -26.807258663416381 4.4880034414567582 #
point $-1 -58.903164769432664 -18.703735998300747 9.8185562951483298 #
straight-curve $-1 0 -26.807258663416381 -9.8185562951483298 -1 0 0 I I #
point $-1 -58.903164769432664 -26.807258663416381 -9.8185562951483298 #
face $-1 $629 $630 $18 $-1 $631 reversed single #
loop $-1 $-1 $593 $526 #
plane-surface $-1 0 0 -9.8185562951483298 0 0 1 1 0 0 forward_v I I I I #
coedge $-1 $632 $528 $590 $633 reversed $464 $-1 #
coedge $-1 $528 $632 $529 $583 forward $464 $-1 #
edge $-1 $591 -6.2419163609970578 $587 -0.91136350730548621 $533 $634 forward 7 unknown #
coedge $-1 $530 $529 $635 $636 reversed $395 $-1 #
edge $-1 $637 -58.903164769432664 $587 58.903164769432664 $580 $638 forward 7 unknown #
coedge $-1 $639 $640 $530 $585 forward $630 $-1 #
edge $-1 $588 -58.903164769432664 $641 58.903164769432664 $584 $642 forward 7 unknown #
coedge $-1 $536 $531 $640 $643 forward $322 $-1 #
vertex $-1 $532 $644 #
vertex $-1 $643 $645 #
straight-curve $-1 58.903164769432664 -11.377748665429282 4.4880034414567582 0 -1 0 I I #
coedge $-1 $534 $539 $579 $633 forward $473 $-1 #
vertex $-1 $535 $646 #
straight-curve $-1 58.903164769432664 0 9.8185562951483298 0 1 0 I I #
coedge $-1 $647 $545 $536 $594 forward $577 $-1 #
edge $-1 $547 -26.807258663416381 $648 26.807258663416381 $536 $649 forward 7 unknown #
coedge $-1 $650 $537 $602 $651 reversed $597 $-1 #
coedge $-1 $537 $652 $539 $600 reversed $597 $-1 #
loop $-1 $-1 $652 $629 #
vertex $-1 $546 $653 #
straight-curve $-1 -58.903164769432664 26.807258663416381 0 0 0 -1 I I #
edge $-1 $540 -26.807258663416381 $654 18.703735998300747 $596 $655 forward 7 unknown #
point $-1 -58.903164769432664 26.807258663416381 9.8185562951483298 #
coedge $-1 $545 $647 $595 $651 forward $577 $-1 #
straight-curve $-1 0 26.807258663416381 -9.8185562951483298 1 0 0 I I #
point $-1 58.903164769432664 26.807258663416381 -9.8185562951483298 #
face $-1 $656 $615 $19 $-1 $657 forward single #
loop $-1 $-1 $658 $549 #
plane-surface $-1 0 -18.703735998300747 7.153279868302544 0 -1 0 0 0 -1 forward_v I I I I #
coedge $-1 $659 $660 $661 $662 reversed $550 $-1 #
coedge $-1 $663 $552 $664 $665 reversed $486 $-1 #
coedge $-1 $552 $666 $563 $625 reversed $486 $-1 #
coedge $-1 $553 $624 $667 $668 reversed $412 $-1 #
coedge $-1 $669 $554 $553 $613 forward $615 $-1 #
edge $-1 $557 -33.685556321342951 $670 58.903164769432664 $553 $671 forward 7 unknown #
coedge $-1 $554 $664 $561 $621 forward $615 $-1 #
loop $-1 $-1 $554 $605 #
vertex $-1 $621 $672 #
straight-curve $-1 33.685556321342951 33.969903933508618 9.8185562951483263 0 1 0 I I #
straight-curve $-1 33.685556321342951 -12.40391663869589 43.054783985968768 0 0.7313536940579346 -0.68199836817093118 I I #
point $-1 33.685556321342951 26.807258663416381 9.8185562951483298 #
point $-1 33.685556321342951 26.807258663416377 6.4897706587967221 #
edge $-1 $622 -35.755984496738755 $616 -10.538376048649049 $614 $673 forward 7 unknown #
vertex $-1 $621 $674 #
straight-curve $-1 58.903164769432664 1.6508520143931689 29.948499893463193 0 -0.7313536940579346 0.68199836817093118 I I #
coedge $-1 $611 $563 $675 $676 reversed $412 $-1 #
edge $-1 $564 -6.4897706587967248 $677 9.8185562951483298 $610 $678 forward 7 unknown #
point $-1 58.903164769432664 26.807258663416381 6.4897706587967248 #
straight-curve $-1 -58.903164769432664 -18.703735998300747 3.576639934151272 0 0 1 I I #
straight-curve $-1 -58.903164769432664 -26.807258663416381 0 0 0 -1 I I #
face $-1 $-1 $597 $18 $-1 $679 reversed single #
loop $-1 $-1 $584 $576 #
plane-surface $-1 0 -26.807258663416381 0 0 1 0 0 0 1 forward_v I I I I #
coedge $-1 $580 $579 $652 $680 reversed $464 $-1 #
edge $-1 $654 -58.903164769432664 $591 58.903164769432664 $590 $681 forward 7 unknown #
straight-curve $-1 58.903164769432664 -18.703735998300747 3.576639934151272 0 0 -1 I I #
coedge $-1 $652 $650 $582 $636 forward $597 $-1 #
edge $-1 $641 -15.429509997987099 $637 -7.3259873328714651 $635 $682 forward 7 unknown #
vertex $-1 $636 $683 #
straight-curve $-1 0 -18.703735998300747 4.4880034414567582 1 0 0 I I #
coedge $-1 $684 $584 $650 $685 forward $630 $-1 #
coedge $-1 $584 $684 $586 $643 reversed $630 $-1 #
vertex $-1 $685 $686 #
straight-curve $-1 0 -26.807258663416381 4.4880034414567582 -1 0 0 I I #
edge $-1 $588 -4.4880034414567582 $648 9.8185562951483298 $586 $687 forward 7 unknown #
point $-1 58.903164769432664 -18.703735998300747 4.4880034414567582 #
point $-1 58.903164769432664 -26.807258663416381 4.4880034414567582 #
point $-1 58.903164769432664 -18.703735998300747 9.8185562951483298 #
coedge $-1 $602 $593 $684 $688 forward $577 $-1 #
vertex $-1 $643 $689 #
straight-curve $-1 58.903164769432664 0 -9.8185562951483298 0 -1 0 I I #
coedge $-1 $635 $595 $639 $685 reversed $597 $-1 #
edge $-1 $690 -26.807258663416381 $598 26.807258663416381 $595 $691 forward 7 unknown #
coedge $-1 $596 $635 $632 $680 forward $597 $-1 #
point $-1 -58.903164769432664 26.807258663416381 -9.8185562951483298 #
vertex $-1 $680 $692 #
straight-curve $-1 -58.903164769432664 0 9.8185562951483298 0 -1 0 I I #
face $-1 $693 $694 $19 $-1 $695 reversed single #
plane-surface $-1 0 0 9.8185562951483298 0 0 1 1 0 0 forward_v I I I I #
coedge $-1 $696 $697 $663 $698 reversed $606 $-1 #
coedge $-1 $699 $608 $697 $700 reversed $550 $-1 #
coedge $-1 $608 $699 $701 $702 reversed $550 $-1 #
coedge $-1 $703 $663 $608 $662 forward $486 $-1 #
edge $-1 $704 7.3259873328714651 $705 15.429509997987099 $661 $706 forward 7 unknown #
coedge $-1 $661 $609 $658 $698 forward $486 $-1 #
coedge $-1 $614 $707 $609 $665 forward $615 $-1 #
edge $-1 $708 -18.703735998300747 $622 23.237573183959967 $609 $709 forward 7 unknown #
coedge $-1 $610 $703 $710 $711 reversed $486 $-1 #
coedge $-1 $712 $713 $611 $668 forward $714 $-1 #
edge $-1 $670 -9.8185562951483298 $715 9.8185562951483298 $611 $716 forward 7 unknown #
coedge $-1 $707 $612 $713 $717 forward $615 $-1 #
vertex $-1 $613 $718 #
straight-curve $-1 0 26.807258663416381 9.8185562951483298 -1 0 0 I I #
point $-1 33.685556321342951 23.237573183959967 9.8185562951483263 #
straight-curve $-1 23.147180272693902 23.23757318395997 9.8185562951483298 -1 0 0 I I #
point $-1 58.903164769432657 23.237573183959967 9.8185562951483263 #
coedge $-1 $710 $719 $624 $676 forward $694 $-1 #
edge $-1 $715 -58.903164769432664 $677 58.903164769432664 $624 $720 forward 7 unknown #
vertex $-1 $711 $721 #
straight-curve $-1 58.903164769432664 26.807258663416381 0 0 0 -1 I I #
plane-surface $-1 -58.903164769432664 0 0 1 0 0 0 0 -1 forward_v I I I I #
edge $-1 $637 0.91136350730548621 $654 6.2419163609970578 $652 $722 forward 7 unknown #
straight-curve $-1 0 -18.703735998300747 9.8185562951483298 1 0 0 I I #
straight-curve $-1 -58.903164769432664 -11.377748665429282 4.4880034414567582 0 1 0 I I #
point $-1 -58.903164769432664 -18.703735998300747 4.4880034414567582 #
coedge $-1 $640 $639 $647 $688 reversed $630 $-1 #
edge $-1 $641 -4.4880034414567582 $690 9.8185562951483298 $650 $723 forward 7 unknown #
point $-1 -58.903164769432664 -26.807258663416381 4.4880034414567582 #
straight-curve $-1 58.903164769432664 -26.807258663416381 0 0 0 -1 I I #
edge $-1 $648 -58.903164769432664 $690 58.903164769432664 $684 $724 forward 7 unknown #
point $-1 58.903164769432664 -26.807258663416381 -9.8185562951483298 #
vertex $-1 $651 $725 #
straight-curve $-1 -58.903164769432664 0 -9.8185562951483298 0 1 0 I I #
point $-1 -58.903164769432664 -18.703735998300747 9.8185562951483298 #
face $-1 $726 $727 $19 $-1 $728 reversed single #
loop $-1 $-1 $710 $656 #
plane-surface $-1 0 0 -9.8185562951483298 0 0 1 1 0 0 forward_v I I I I #
coedge $-1 $729 $658 $707 $730 reversed $606 $-1 #
coedge $-1 $658 $729 $659 $700 forward $606 $-1 #
edge $-1 $708 -6.2419163609970578 $704 -0.91136350730548621 $663 $731 forward 7 unknown #
coedge $-1 $660 $659 $732 $733 reversed $550 $-1 #
edge $-1 $734 -58.903164769432664 $704 58.903164769432664 $697 $735 forward 7 unknown #
coedge $-1 $736 $737 $660 $702 forward $727 $-1 #
edge $-1 $705 -58.903164769432664 $738 58.903164769432664 $701 $739 forward 7 unknown #
coedge $-1 $666 $661 $737 $740 forward $486 $-1 #
vertex $-1 $662 $741 #
vertex $-1 $740 $742 #
straight-curve $-1 58.903164769432664 -11.377748665429282 4.4880034414567582 0 -1 0 I I #
coedge $-1 $664 $669 $696 $730 forward $615 $-1 #
vertex $-1 $665 $743 #
straight-curve $-1 58.903164769432664 0 9.8185562951483298 0 1 0 I I #
coedge $-1 $744 $675 $666 $711 forward $694 $-1 #
edge $-1 $677 -26.807258663416381 $745 26.807258663416381 $666 $746 forward 7 unknown #
coedge $-1 $747 $667 $719 $748 reversed $714 $-1 #
coedge $-1 $667 $749 $669 $717 reversed $714 $-1 #
loop $-1 $-1 $749 $726 #
vertex $-1 $676 $750 #
straight-curve $-1 -58.903164769432664 26.807258663416381 0 0 0 -1 I I #
edge $-1 $670 -26.807258663416381 $751 18.703735998300747 $713 $752 forward 7 unknown #
point $-1 -58.903164769432664 26.807258663416381 9.8185562951483298 #
coedge $-1 $675 $744 $712 $748 forward $694 $-1 #
straight-curve $-1 0 26.807258663416381 -9.8185562951483298 1 0 0 I I #
point $-1 58.903164769432664 26.807258663416381 -9.8185562951483298 #
straight-curve $-1 -58.903164769432664 -18.703735998300747 3.576639934151272 0 0 1 I I #
straight-curve $-1 -58.903164769432664 -26.807258663416381 0 0 0 -1 I I #
straight-curve $-1 0 -26.807258663416381 -9.8185562951483298 -1 0 0 I I #
point $-1 -58.903164769432664 -26.807258663416381 -9.8185562951483298 #
face $-1 $-1 $714 $19 $-1 $753 reversed single #
loop $-1 $-1 $701 $693 #
plane-surface $-1 0 -26.807258663416381 0 0 1 0 0 0 1 forward_v I I I I #
coedge $-1 $697 $696 $749 $754 reversed $606 $-1 #
edge $-1 $751 -58.903164769432664 $708 58.903164769432664 $707 $755 forward 7 unknown #
straight-curve $-1 58.903164769432664 -18.703735998300747 3.576639934151272 0 0 -1 I I #
coedge $-1 $749 $747 $699 $733 forward $714 $-1 #
edge $-1 $738 -15.429509997987099 $734 -7.3259873328714651 $732 $756 forward 7 unknown #
vertex $-1 $733 $757 #
straight-curve $-1 0 -18.703735998300747 4.4880034414567582 1 0 0 I I #
coedge $-1 $758 $701 $747 $759 forward $727 $-1 #
coedge $-1 $701 $758 $703 $740 reversed $727 $-1 #
vertex $-1 $759 $760 #
straight-curve $-1 0 -26.807258663416381 4.4880034414567582 -1 0 0 I I #
edge $-1 $705 -4.4880034414567582 $745 9.8185562951483298 $703 $761 forward 7 unknown #
point $-1 58.903164769432664 -18.703735998300747 4.4880034414567582 #
point $-1 58.903164769432664 -26.807258663416381 4.4880034414567582 #
point $-1 58.903164769432664 -18.703735998300747 9.8185562951483298 #
coedge $-1 $719 $710 $758 $762 forward $694 $-1 #
vertex $-1 $740 $763 #
straight-curve $-1 58.903164769432664 0 -9.8185562951483298 0 -1 0 I I #
coedge $-1 $732 $712 $736 $759 reversed $714 $-1 #
edge $-1 $764 -26.807258663416381 $715 26.807258663416381 $712 $765 forward 7 unknown #
coedge $-1 $713 $732 $729 $754 forward $714 $-1 #
point $-1 -58.903164769432664 26.807258663416381 -9.8185562951483298 #
vertex $-1 $754 $766 #
straight-curve $-1 -58.903164769432664 0 9.8185562951483298 0 -1 0 I I #
plane-surface $-1 -58.903164769432664 0 0 1 0 0 0 0 -1 forward_v I I I I #
edge $-1 $734 0.91136350730548621 $751 6.2419163609970578 $749 $767 forward 7 unknown #
straight-curve $-1 0 -18.703735998300747 9.8185562951483298 1 0 0 I I #
straight-curve $-1 -58.903164769432664 -11.377748665429282 4.4880034414567582 0 1 0 I I #
point $-1 -58.903164769432664 -18.703735998300747 4.4880034414567582 #
coedge $-1 $737 $736 $744 $762 reversed $727 $-1 #
edge $-1 $738 -4.4880034414567582 $764 9.8185562951483298 $747 $768 forward 7 unknown #
point $-1 -58.903164769432664 -26.807258663416381 4.4880034414567582 #
straight-curve $-1 58.903164769432664 -26.807258663416381 0 0 0 -1 I I #
edge $-1 $745 -58.903164769432664 $764 58.903164769432664 $758 $769 forward 7 unknown #
point $-1 58.903164769432664 -26.807258663416381 -9.8185562951483298 #
vertex $-1 $748 $770 #
straight-curve $-1 -58.903164769432664 0 -9.8185562951483298 0 1 0 I I #
point $-1 -58.903164769432664 -18.703735998300747 9.8185562951483298 #
straight-curve $-1 -58.903164769432664 -18.703735998300747 3.576639934151272 0 0 1 I I #
straight-curve $-1 -58.903164769432664 -26.807258663416381 0 0 0 -1 I I #
straight-curve $-1 0 -26.807258663416381 -9.8185562951483298 -1 0 0 I I #
point $-1 -58.903164769432664 -26.807258663416381 -9.8185562951483298 #
End-of-ACIS-data 