500 0 12 0           
7 Unknown 11 ACIS 5.0 NT 24 Fri Mar 26 18:44:53 1999 
-1 9.9999999999999995e-007 1e-010 
body $-1 $12 $-1 $13 #
body $-1 $14 $-1 $15 #
body $-1 $16 $-1 $17 #
body $-1 $18 $-1 $19 #
body $-1 $20 $-1 $21 #
body $-1 $22 $-1 $23 #
body $-1 $24 $-1 $25 #
body $-1 $26 $-1 $27 #
body $-1 $28 $-1 $29 #
body $-1 $30 $-1 $31 #
body $-1 $32 $-1 $33 #
body $-1 $34 $-1 $35 #
lump $-1 $-1 $36 $0 #
transform $-1 1 0 0 0 1 0 0 0 1 46.96676534318064 22.142048432625863 7.250309593585496 1 rotate no_reflect no_shear #
lump $-1 $-1 $37 $1 #
transform $-1 1 0 0 0 1 0 0 0 1 46.96676534318064 22.142048432625863 7.250309593585496 1 rotate no_reflect no_shear #
lump $-1 $-1 $38 $2 #
transform $-1 1 0 0 0 1 0 0 0 1 46.96676534318064 22.142048432625863 7.250309593585496 1 rotate no_reflect no_shear #
lump $-1 $-1 $39 $3 #
transform $-1 1 0 0 0 1 0 0 0 1 46.96676534318064 22.142048432625863 7.250309593585496 1 rotate no_reflect no_shear #
lump $-1 $-1 $40 $4 #
transform $-1 1 0 0 0 1 0 0 0 1 46.96676534318064 22.142048432625863 7.250309593585496 1 rotate no_reflect no_shear #
lump $-1 $-1 $41 $5 #
transform $-1 1 0 0 0 1 0 0 0 1 46.96676534318064 22.142048432625863 7.250309593585496 1 rotate no_reflect no_shear #
lump $-1 $-1 $42 $6 #
transform $-1 1 0 0 0 1 0 0 0 1 46.96676534318064 22.142048432625863 7.250309593585496 1 rotate no_reflect no_shear #
lump $-1 $-1 $43 $7 #
transform $-1 1 0 0 0 1 0 0 0 1 46.96676534318064 22.142048432625863 7.250309593585496 1 rotate no_reflect no_shear #
lump $-1 $-1 $44 $8 #
transform $-1 1 0 0 0 1 0 0 0 1 46.96676534318064 22.142048432625863 7.250309593585496 1 rotate no_reflect no_shear #
lump $-1 $-1 $45 $9 #
transform $-1 1 0 0 0 1 0 0 0 1 46.96676534318064 22.142048432625863 7.250309593585496 1 rotate no_reflect no_shear #
lump $-1 $-1 $46 $10 #
transform $-1 1 0 0 0 1 0 0 0 1 46.96676534318064 22.142048432625863 7.250309593585496 1 rotate no_reflect no_shear #
lump $-1 $-1 $47 $11 #
transform $-1 1 0 0 0 1 0 0 0 1 46.96676534318064 22.142048432625863 7.250309593585496 1 rotate no_reflect no_shear #
shell $-1 $-1 $-1 $48 $-1 $12 #
shell $-1 $-1 $-1 $49 $-1 $14 #
shell $-1 $-1 $-1 $50 $-1 $16 #
shell $-1 $-1 $-1 $51 $-1 $18 #
shell $-1 $-1 $-1 $52 $-1 $20 #
shell $-1 $-1 $-1 $53 $-1 $22 #
shell $-1 $-1 $-1 $54 $-1 $24 #
shell $-1 $-1 $-1 $55 $-1 $26 #
shell $-1 $-1 $-1 $56 $-1 $28 #
shell $-1 $-1 $-1 $57 $-1 $30 #
shell $-1 $-1 $-1 $58 $-1 $32 #
shell $-1 $-1 $-1 $59 $-1 $34 #
face $-1 $60 $61 $36 $-1 $62 forward single #
face $-1 $63 $64 $37 $-1 $65 forward single #
face $-1 $66 $67 $38 $-1 $68 reversed single #
face $-1 $69 $70 $39 $-1 $71 forward single #
face $-1 $72 $73 $40 $-1 $74 forward single #
face $-1 $75 $76 $41 $-1 $77 forward single #
face $-1 $78 $79 $42 $-1 $80 reversed single #
face $-1 $81 $82 $43 $-1 $83 forward single #
face $-1 $84 $85 $44 $-1 $86 forward single #
face $-1 $87 $88 $45 $-1 $89 forward single #
face $-1 $90 $91 $46 $-1 $92 reversed single #
face $-1 $93 $94 $47 $-1 $95 forward single #
face $-1 $96 $97 $36 $-1 $98 reversed single #
loop $-1 $-1 $99 $48 #
plane-surface $-1 0 0 7.250309593585496 0 0 1 1 0 0 forward_v I I I I #
face $-1 $100 $101 $37 $-1 $102 reversed single #
loop $-1 $-1 $103 $49 #
plane-surface $-1 -46.96676534318064 0 0 1 0 0 0 0 -1 forward_v I I I I #
face $-1 $104 $105 $38 $-1 $106 reversed single #
loop $-1 $-1 $107 $50 #
plane-surface $-1 -13.680240248373551 67.273228524268404 95.715807236236188 1 0 0 0 -0.77714596973225614 -0.62932038083071107 forward_v I I I I #
face $-1 $108 $109 $39 $-1 $110 forward single #
loop $-1 $111 $112 $51 #
cone-surface $-1 -10.360846188895046 19.045802061812537 3.8713790042654939 0 -0.77714596973225614 -0.62932038083071107 1 0 0 1 I I 0 1 1 forward I I I I #
face $-1 $113 $114 $40 $-1 $115 forward single #
loop $-1 $116 $117 $52 #
cone-surface $-1 -5.3817550996772852 19.045802061812537 3.8713790042654939 0 -0.77714596973225614 -0.62932038083071107 1 0 0 1 I I 0 1 1 forward I I I I #
face $-1 $118 $119 $41 $-1 $120 forward single #
loop $-1 $121 $122 $53 #
cone-surface $-1 -0.40266401045952449 19.045802061812537 3.8713790042654939 0 -0.77714596973225614 -0.62932038083071107 1 0 0 1 I I 0 1 1 forward I I I I #
face $-1 $123 $124 $42 $-1 $125 reversed single #
loop $-1 $-1 $126 $54 #
plane-surface $-1 -5.3817550996772852 -5.7268362713584651 36.601521931922022 0 0.77714596973225614 0.62932038083071107 1 0 0 forward_v I I I I #
face $-1 $127 $128 $43 $-1 $129 forward single #
loop $-1 $130 $131 $55 #
cone-surface $-1 6.236124108497485 19.045802061812537 3.8713790042654939 0 -0.77714596973225614 -0.62932038083071107 1 0 0 1 I I 0 1 1 forward I I I I #
face $-1 $132 $133 $44 $-1 $134 forward single #
loop $-1 $135 $136 $56 #
cone-surface $-1 11.215215197715246 19.045802061812537 3.8713790042654939 0 -0.77714596973225614 -0.62932038083071107 1 0 0 1 I I 0 1 1 forward I I I I #
face $-1 $137 $138 $45 $-1 $139 forward single #
loop $-1 $140 $141 $57 #
cone-surface $-1 16.194306286933006 19.045802061812537 3.8713790042654939 0 -0.77714596973225614 -0.62932038083071107 1 0 0 1 I I 0 1 1 forward I I I I #
face $-1 $142 $143 $46 $-1 $144 reversed single #
loop $-1 $-1 $145 $58 #
plane-surface $-1 26.973555671031779 -101.80220104083372 53.369461245127304 -1 0 0 0 -0.84804810408105047 0.52991925155115449 forward_v I I I I #
face $-1 $146 $147 $47 $-1 $148 forward single #
loop $-1 $149 $150 $59 #
cone-surface $-1 18.83101412700249 -20.575127555820451 5.1563326551438342 0 0.84804810408105047 -0.52991925155115449 0.25 0 0 1 I I 0 1 0.25 forward I I I I #
face $-1 $151 $152 $36 $-1 $153 reversed single #
loop $-1 $-1 $154 $60 #
plane-surface $-1 0 0 -7.250309593585496 0 0 1 1 0 0 forward_v I I I I #
coedge $-1 $155 $156 $157 $158 forward $61 $-1 #
face $-1 $159 $160 $37 $-1 $161 forward single #
loop $-1 $-1 $162 $63 #
plane-surface $-1 0 22.142048432625863 0 0 -1 0 0 0 -1 forward_v I I I I #
coedge $-1 $163 $164 $165 $166 forward $64 $-1 #
face $-1 $167 $168 $38 $-1 $169 reversed single #
loop $-1 $-1 $170 $66 #
plane-surface $-1 -5.3817550996772852 -5.7268362713584651 36.601521931922022 0 0.77714596973225614 0.62932038083071107 1 0 0 forward_v I I I I #
coedge $-1 $171 $172 $173 $174 reversed $67 $-1 #
face $-1 $-1 $175 $39 $-1 $176 forward single #
loop $-1 $177 $178 $69 #
cone-surface $-1 -10.360846188895046 17.611353824397561 2.7097857563934822 0 -0.77714596973225614 -0.62932038083071107 0.5 0 0 1 I I -0.70710678118654746 0.70710678118654746 0.5 forward I I I I #
loop $-1 $-1 $179 $51 #
coedge $-1 $112 $112 $180 $181 reversed $70 $-1 #
face $-1 $-1 $182 $40 $-1 $183 forward single #
loop $-1 $184 $185 $72 #
cone-surface $-1 -5.3817550996772852 17.611353824397561 2.7097857563934822 0 -0.77714596973225614 -0.62932038083071107 0.5 0 0 1 I I -0.70710678118654746 0.70710678118654746 0.5 forward I I I I #
loop $-1 $-1 $186 $52 #
coedge $-1 $117 $117 $187 $188 reversed $73 $-1 #
face $-1 $-1 $189 $41 $-1 $190 forward single #
loop $-1 $191 $192 $75 #
cone-surface $-1 -0.40266401045952449 17.611353824397561 2.7097857563934822 0 -0.77714596973225614 -0.62932038083071107 0.5 0 0 1 I I -0.70710678118654746 0.70710678118654746 0.5 forward I I I I #
loop $-1 $-1 $193 $53 #
coedge $-1 $122 $122 $194 $195 reversed $76 $-1 #
face $-1 $196 $197 $42 $-1 $198 forward single #
loop $-1 $-1 $199 $78 #
plane-surface $-1 19.513700346411511 67.273228524268404 95.715807236236188 -1 0 0 0 0.77714596973225614 0.62932038083071107 forward_v I I I I #
coedge $-1 $200 $201 $202 $203 reversed $79 $-1 #
face $-1 $-1 $204 $43 $-1 $205 forward single #
loop $-1 $206 $207 $81 #
cone-surface $-1 6.236124108497485 17.611353824397561 2.7097857563934822 0 -0.77714596973225614 -0.62932038083071107 0.5 0 0 1 I I -0.70710678118654746 0.70710678118654746 0.5 forward I I I I #
loop $-1 $-1 $208 $55 #
coedge $-1 $131 $131 $209 $210 reversed $82 $-1 #
face $-1 $-1 $211 $44 $-1 $212 forward single #
loop $-1 $213 $214 $84 #
cone-surface $-1 11.215215197715246 17.611353824397561 2.7097857563934822 0 -0.77714596973225614 -0.62932038083071107 0.5 0 0 1 I I -0.70710678118654746 0.70710678118654746 0.5 forward I I I I #
loop $-1 $-1 $215 $56 #
coedge $-1 $136 $136 $216 $217 reversed $85 $-1 #
face $-1 $-1 $218 $45 $-1 $219 forward single #
loop $-1 $220 $221 $87 #
cone-surface $-1 16.194306286933006 17.611353824397561 2.7097857563934822 0 -0.77714596973225614 -0.62932038083071107 0.5 0 0 1 I I -0.70710678118654746 0.70710678118654746 0.5 forward I I I I #
loop $-1 $-1 $222 $57 #
coedge $-1 $141 $141 $223 $224 reversed $88 $-1 #
face $-1 $225 $226 $46 $-1 $227 reversed single #
loop $-1 $-1 $228 $90 #
plane-surface $-1 18.83101412700249 -22.14204843262587 3.592274968253335 0 -0.84804810408105047 0.52991925155115449 1 0 0 forward_v I I I I #
coedge $-1 $229 $230 $231 $232 reversed $91 $-1 #
face $-1 $-1 $233 $47 $-1 $234 forward single #
loop $-1 $235 $236 $93 #
cone-surface $-1 18.83101412700249 -20.045097490769795 4.8251331229243624 0 0.84804810408105047 -0.52991925155115449 0.125 0 0 1 I I -0.70710678118654746 0.70710678118654746 0.125 forward I I I I #
loop $-1 $-1 $237 $59 #
coedge $-1 $150 $150 $238 $239 reversed $94 $-1 #
face $-1 $240 $241 $36 $-1 $242 reversed single #
loop $-1 $-1 $243 $96 #
plane-surface $-1 0 -22.142048432625863 0 0 1 0 0 0 1 forward_v I I I I #
coedge $-1 $244 $245 $246 $247 forward $97 $-1 #
coedge $-1 $248 $99 $249 $250 forward $61 $-1 #
coedge $-1 $99 $248 $251 $252 forward $61 $-1 #
coedge $-1 $253 $254 $99 $158 reversed $255 $-1 #
edge $-1 $256 -22.142048432625863 $257 22.142048432625863 $157 $258 forward 7 unknown #
face $-1 $259 $260 $37 $-1 $261 reversed single #
loop $-1 $-1 $165 $100 #
plane-surface $-1 -49.88349539219962 0 -2.2476561657403882 0 0 1 1 0 0 forward_v I I I I #
coedge $-1 $262 $263 $164 $264 forward $101 $-1 #
coedge $-1 $265 $103 $266 $267 reversed $64 $-1 #
coedge $-1 $103 $265 $162 $264 reversed $64 $-1 #
coedge $-1 $268 $269 $103 $166 reversed $160 $-1 #
edge $-1 $270 -22.142048432625863 $271 22.142048432625863 $165 $272 forward 7 unknown #
face $-1 $273 $274 $38 $-1 $275 forward single #
loop $-1 $-1 $276 $104 #
plane-surface $-1 2.9167300490189803 67.273228524268404 95.715807236236188 -1 0 0 0 0.77714596973225614 0.62932038083071107 forward_v I I I I #
coedge $-1 $277 $278 $279 $280 reversed $105 $-1 #
coedge $-1 $172 $107 $281 $282 reversed $67 $-1 #
coedge $-1 $107 $171 $277 $283 reversed $67 $-1 #
coedge $-1 $279 $284 $107 $174 forward $274 $-1 #
edge $-1 $285 11.494565829508339 $286 15.595308066037315 $173 $287 forward 7 unknown #
loop $-1 $-1 $180 $108 #
plane-surface $-1 -5.3817550996772852 -5.7268362713584651 36.601521931922022 0 0.77714596973225614 0.62932038083071107 1 0 0 forward_v I I I I #
loop $-1 $-1 $288 $69 #
coedge $-1 $178 $178 $179 $289 reversed $109 $-1 #
coedge $-1 $179 $179 $178 $289 forward $111 $-1 #
coedge $-1 $180 $180 $112 $181 forward $175 $-1 #
edge $-1 $290 -1.9505741675554339e-016 $290 6.2831853071796004 $180 $291 forward 7 unknown #
loop $-1 $-1 $187 $113 #
plane-surface $-1 -5.3817550996772852 -5.7268362713584651 36.601521931922022 0 0.77714596973225614 0.62932038083071107 1 0 0 forward_v I I I I #
loop $-1 $-1 $292 $72 #
coedge $-1 $185 $185 $186 $293 reversed $114 $-1 #
coedge $-1 $186 $186 $185 $293 forward $116 $-1 #
coedge $-1 $187 $187 $117 $188 forward $182 $-1 #
edge $-1 $294 -1.9505741675554339e-016 $294 6.2831853071796004 $187 $295 forward 7 unknown #
loop $-1 $-1 $194 $118 #
plane-surface $-1 -5.3817550996772852 -5.7268362713584651 36.601521931922022 0 0.77714596973225614 0.62932038083071107 1 0 0 forward_v I I I I #
loop $-1 $-1 $296 $75 #
coedge $-1 $192 $192 $193 $297 reversed $119 $-1 #
coedge $-1 $193 $193 $192 $297 forward $121 $-1 #
coedge $-1 $194 $194 $122 $195 forward $189 $-1 #
edge $-1 $298 -1.9505741675554339e-016 $298 6.2831853071796004 $194 $299 forward 7 unknown #
face $-1 $300 $301 $42 $-1 $302 forward single #
loop $-1 $-1 $303 $123 #
plane-surface $-1 0 0 7.250309593585496 0 0 1 1 0 0 forward_v I I I I #
coedge $-1 $304 $305 $306 $307 reversed $124 $-1 #
coedge $-1 $308 $126 $309 $310 reversed $79 $-1 #
coedge $-1 $126 $308 $303 $311 reversed $79 $-1 #
coedge $-1 $312 $313 $126 $203 forward $301 $-1 #
edge $-1 $314 -44.28409686525174 $315 -37.767952844751498 $202 $316 forward 7 unknown #
loop $-1 $-1 $209 $127 #
plane-surface $-1 -5.3817550996772852 -5.7268362713584651 36.601521931922022 0 0.77714596973225614 0.62932038083071107 1 0 0 forward_v I I I I #
loop $-1 $-1 $317 $81 #
coedge $-1 $207 $207 $208 $318 reversed $128 $-1 #
coedge $-1 $208 $208 $207 $318 forward $130 $-1 #
coedge $-1 $209 $209 $131 $210 forward $204 $-1 #
edge $-1 $319 -1.9505741675554339e-016 $319 6.2831853071796004 $209 $320 forward 7 unknown #
loop $-1 $-1 $216 $132 #
plane-surface $-1 -5.3817550996772852 -5.7268362713584651 36.601521931922022 0 0.77714596973225614 0.62932038083071107 1 0 0 forward_v I I I I #
loop $-1 $-1 $321 $84 #
coedge $-1 $214 $214 $215 $322 reversed $133 $-1 #
coedge $-1 $215 $215 $214 $322 forward $135 $-1 #
coedge $-1 $216 $216 $136 $217 forward $211 $-1 #
edge $-1 $323 -1.9505741675554339e-016 $323 6.2831853071796004 $216 $324 forward 7 unknown #
loop $-1 $-1 $223 $137 #
plane-surface $-1 -5.3817550996772852 -5.7268362713584651 36.601521931922022 0 0.77714596973225614 0.62932038083071107 1 0 0 forward_v I I I I #
loop $-1 $-1 $325 $87 #
coedge $-1 $221 $221 $222 $326 reversed $138 $-1 #
coedge $-1 $222 $222 $221 $326 forward $140 $-1 #
coedge $-1 $223 $223 $141 $224 forward $218 $-1 #
edge $-1 $327 -1.9505741675554339e-016 $327 6.2831853071796004 $223 $328 forward 7 unknown #
face $-1 $329 $330 $46 $-1 $331 reversed single #
loop $-1 $-1 $332 $142 #
plane-surface $-1 10.688472582973201 -101.80220104083372 53.369461245127304 1 0 0 0 0.84804810408105047 -0.52991925155115449 forward_v I I I I #
coedge $-1 $333 $334 $335 $336 reversed $143 $-1 #
coedge $-1 $230 $145 $337 $338 reversed $91 $-1 #
coedge $-1 $145 $229 $333 $339 reversed $91 $-1 #
coedge $-1 $335 $340 $145 $232 forward $341 $-1 #
edge $-1 $342 28.759052087790998 $343 31.04484573732076 $231 $344 forward 7 unknown #
loop $-1 $-1 $238 $146 #
plane-surface $-1 18.83101412700249 -22.14204843262587 3.592274968253335 0 -0.84804810408105047 0.52991925155115449 1 0 0 forward_v I I I I #
loop $-1 $-1 $345 $93 #
coedge $-1 $236 $236 $237 $346 reversed $147 $-1 #
coedge $-1 $237 $237 $236 $346 forward $149 $-1 #
coedge $-1 $238 $238 $150 $239 forward $233 $-1 #
edge $-1 $347 -3.0160216087333925e-015 $347 6.2831853071795978 $238 $348 forward 7 unknown #
face $-1 $349 $350 $36 $-1 $351 reversed single #
loop $-1 $-1 $352 $151 #
plane-surface $-1 -46.96676534318064 0 0 1 0 0 0 0 -1 forward_v I I I I #
coedge $-1 $353 $251 $354 $355 forward $152 $-1 #
coedge $-1 $356 $154 $353 $357 forward $97 $-1 #
coedge $-1 $154 $356 $358 $359 forward $97 $-1 #
coedge $-1 $254 $253 $154 $247 reversed $255 $-1 #
edge $-1 $360 -22.142048432625863 $361 22.142048432625863 $246 $362 forward 7 unknown #
coedge $-1 $156 $155 $363 $364 forward $61 $-1 #
coedge $-1 $365 $366 $155 $250 reversed $350 $-1 #
edge $-1 $257 -46.96676534318064 $367 46.96676534318064 $249 $368 forward 7 unknown #
coedge $-1 $243 $369 $156 $252 reversed $152 $-1 #
edge $-1 $370 -46.96676534318064 $256 46.96676534318064 $251 $371 forward 7 unknown #
coedge $-1 $246 $157 $369 $372 forward $255 $-1 #
coedge $-1 $157 $246 $365 $373 reversed $255 $-1 #
loop $-1 $-1 $253 $349 #
vertex $-1 $158 $374 #
vertex $-1 $158 $375 #
straight-curve $-1 46.96676534318064 0 7.250309593585496 0 1 0 I I #
face $-1 $376 $377 $37 $-1 $378 reversed single #
loop $-1 $-1 $379 $159 #
plane-surface $-1 -49.88349539219962 0 -6.5043780474957842 0 0 1 1 0 0 forward_v I I I I #
coedge $-1 $380 $162 $381 $382 reversed $101 $-1 #
coedge $-1 $162 $380 $268 $383 reversed $101 $-1 #
edge $-1 $270 2.2476561657403882 $384 6.5043780474957842 $162 $385 forward 7 unknown #
coedge $-1 $164 $163 $379 $386 forward $64 $-1 #
coedge $-1 $387 $388 $163 $267 forward $389 $-1 #
edge $-1 $390 -6.5043780474957842 $271 -2.2476561657403882 $266 $391 forward 7 unknown #
coedge $-1 $392 $165 $263 $383 forward $160 $-1 #
coedge $-1 $165 $392 $387 $393 forward $160 $-1 #
vertex $-1 $264 $394 #
vertex $-1 $393 $395 #
straight-curve $-1 -46.96676534318064 0 -2.2476561657403882 0 -1 0 I I #
face $-1 $-1 $396 $38 $-1 $397 reversed single #
loop $-1 $-1 $173 $167 #
plane-surface $-1 0 0 7.250309593585496 0 0 1 1 0 0 forward_v I I I I #
coedge $-1 $398 $399 $400 $401 reversed $168 $-1 #
coedge $-1 $402 $170 $172 $283 forward $105 $-1 #
coedge $-1 $170 $402 $398 $403 forward $105 $-1 #
coedge $-1 $400 $173 $170 $280 forward $274 $-1 #
edge $-1 $286 -10.989362698534908 $404 5.6076075988576228 $279 $405 forward 7 unknown #
coedge $-1 $406 $407 $171 $282 forward $396 $-1 #
edge $-1 $408 -45.671589088259303 $285 -40.607594024532595 $281 $409 forward 7 unknown #
edge $-1 $286 37.767952844751498 $408 44.28409686525174 $172 $410 forward 7 unknown #
coedge $-1 $173 $400 $406 $411 forward $274 $-1 #
vertex $-1 $282 $412 #
vertex $-1 $174 $413 #
straight-curve $-1 -13.680240248373551 33.636614262134202 7.2503095935854986 0 -1 0 I I #
coedge $-1 $288 $288 $-1 $414 reversed $177 $-1 #
edge $-1 $415 0 $415 6.2831853071796004 $178 $416 forward 7 unknown #
vertex $-1 $181 $417 #
ellipse-curve $-1 -10.360846188895046 20.091677314361377 4.7183120617221421 0 0.77714596973225614 0.62932038083071107 1 0 0 1 I I #
coedge $-1 $292 $292 $-1 $418 reversed $184 $-1 #
edge $-1 $419 0 $419 6.2831853071796004 $185 $420 forward 7 unknown #
vertex $-1 $188 $421 #
ellipse-curve $-1 -5.3817550996772852 20.091677314361377 4.7183120617221421 0 0.77714596973225614 0.62932038083071107 1 0 0 1 I I #
coedge $-1 $296 $296 $-1 $422 reversed $191 $-1 #
edge $-1 $423 0 $423 6.2831853071796004 $192 $424 forward 7 unknown #
vertex $-1 $195 $425 #
ellipse-curve $-1 -0.40266401045952449 20.091677314361377 4.7183120617221421 0 0.77714596973225614 0.62932038083071107 1 0 0 1 I I #
face $-1 $-1 $426 $42 $-1 $427 reversed single #
loop $-1 $-1 $312 $196 #
plane-surface $-1 2.9167300490189803 67.273228524268404 95.715807236236188 -1 0 0 0 0.77714596973225614 0.62932038083071107 forward_v I I I I #
coedge $-1 $306 $428 $201 $311 forward $197 $-1 #
coedge $-1 $305 $199 $308 $429 reversed $124 $-1 #
coedge $-1 $199 $304 $430 $431 reversed $124 $-1 #
coedge $-1 $432 $303 $199 $307 forward $197 $-1 #
edge $-1 $433 -15.595308066037315 $434 -11.494565829508339 $306 $435 forward 7 unknown #
coedge $-1 $201 $200 $304 $429 forward $79 $-1 #
coedge $-1 $436 $430 $200 $310 forward $426 $-1 #
edge $-1 $437 -22.204577896250154 $314 -5.6076075988576228 $309 $438 forward 7 unknown #
edge $-1 $315 5.6076075988576228 $433 22.204577896250154 $303 $439 forward 7 unknown #
coedge $-1 $313 $202 $428 $440 reversed $301 $-1 #
coedge $-1 $202 $312 $436 $441 reversed $301 $-1 #
vertex $-1 $310 $442 #
vertex $-1 $311 $443 #
straight-curve $-1 2.9167300490189803 -5.7268362713584651 36.601521931922022 0 -0.62932038083071107 0.77714596973225614 I I #
coedge $-1 $317 $317 $-1 $444 reversed $206 $-1 #
edge $-1 $445 0 $445 6.2831853071796004 $207 $446 forward 7 unknown #
vertex $-1 $210 $447 #
ellipse-curve $-1 6.236124108497485 20.091677314361377 4.7183120617221421 0 0.77714596973225614 0.62932038083071107 1 0 0 1 I I #
coedge $-1 $321 $321 $-1 $448 reversed $213 $-1 #
edge $-1 $449 0 $449 6.2831853071796004 $214 $450 forward 7 unknown #
vertex $-1 $217 $451 #
ellipse-curve $-1 11.215215197715246 20.091677314361377 4.7183120617221421 0 0.77714596973225614 0.62932038083071107 1 0 0 1 I I #
coedge $-1 $325 $325 $-1 $452 reversed $220 $-1 #
edge $-1 $453 0 $453 6.2831853071796004 $221 $454 forward 7 unknown #
vertex $-1 $224 $455 #
ellipse-curve $-1 16.194306286933006 20.091677314361377 4.7183120617221421 0 0.77714596973225614 0.62932038083071107 1 0 0 1 I I #
face $-1 $-1 $341 $46 $-1 $456 forward single #
loop $-1 $-1 $457 $225 #
plane-surface $-1 0 -22.142048432625863 0 0 1 0 0 0 1 forward_v I I I I #
coedge $-1 $458 $459 $460 $461 reversed $226 $-1 #
coedge $-1 $462 $228 $230 $339 forward $143 $-1 #
coedge $-1 $228 $462 $458 $463 forward $143 $-1 #
coedge $-1 $460 $231 $228 $336 forward $341 $-1 #
edge $-1 $343 -17.558048607530534 $464 -1.2729655194719562 $335 $465 forward 7 unknown #
coedge $-1 $466 $467 $229 $338 forward $330 $-1 #
edge $-1 $468 -23.092455654310307 $342 -19.434421028978157 $337 $469 forward 7 unknown #
edge $-1 $343 -4.3134753886349717 $468 -1.3557137071152151e-014 $230 $470 forward 7 unknown #
coedge $-1 $231 $460 $466 $471 forward $341 $-1 #
loop $-1 $-1 $460 $329 #
vertex $-1 $338 $472 #
vertex $-1 $232 $473 #
straight-curve $-1 26.973555671031779 -50.901100520416861 7.2503095935854951 0 1 0 I I #
coedge $-1 $345 $345 $-1 $474 reversed $235 $-1 #
edge $-1 $475 0 $475 6.2831853071796004 $236 $476 forward 7 unknown #
vertex $-1 $239 $477 #
ellipse-curve $-1 18.83101412700249 -20.999151607860984 5.4212922809194168 0 -0.84804810408105047 0.52991925155115449 0.25 0 0 1 I I #
face $-1 $-1 $255 $36 $-1 $478 reversed single #
loop $-1 $-1 $365 $240 #
plane-surface $-1 0 22.142048432625863 0 0 -1 0 0 0 -1 forward_v I I I I #
coedge $-1 $479 $363 $366 $480 forward $241 $-1 #
coedge $-1 $369 $243 $244 $357 reversed $152 $-1 #
coedge $-1 $363 $479 $243 $355 reversed $241 $-1 #
edge $-1 $370 -7.250309593585496 $481 7.250309593585496 $354 $482 forward 7 unknown #
coedge $-1 $245 $244 $479 $483 forward $97 $-1 #
edge $-1 $361 -46.96676534318064 $481 46.96676534318064 $353 $484 forward 7 unknown #
coedge $-1 $366 $365 $245 $359 reversed $350 $-1 #
edge $-1 $485 -46.96676534318064 $360 46.96676534318064 $358 $486 forward 7 unknown #
vertex $-1 $247 $487 #
vertex $-1 $372 $488 #
straight-curve $-1 46.96676534318064 0 -7.250309593585496 0 -1 0 I I #
coedge $-1 $352 $354 $248 $364 reversed $241 $-1 #
edge $-1 $367 -22.142048432625863 $370 22.142048432625863 $363 $489 forward 7 unknown #
coedge $-1 $358 $249 $254 $373 forward $350 $-1 #
coedge $-1 $249 $358 $352 $480 reversed $350 $-1 #
vertex $-1 $250 $490 #
straight-curve $-1 0 22.142048432625863 7.250309593585496 -1 0 0 I I #
coedge $-1 $251 $353 $253 $372 reversed $152 $-1 #
vertex $-1 $364 $491 #
straight-curve $-1 0 -22.142048432625863 7.250309593585496 1 0 0 I I #
edge $-1 $256 -7.250309593585496 $361 7.250309593585496 $253 $492 forward 7 unknown #
edge $-1 $257 -7.250309593585496 $360 7.250309593585496 $254 $493 forward 7 unknown #
point $-1 46.96676534318064 -22.142048432625863 7.250309593585496 #
point $-1 46.96676534318064 22.142048432625863 7.250309593585496 #
face $-1 $-1 $389 $37 $-1 $494 reversed single #
loop $-1 $-1 $495 $259 #
plane-surface $-1 -52.800225441218601 0 -4.376017106618086 1 0 0 0 0 -1 forward_v I I I I #
coedge $-1 $496 $381 $265 $386 reversed $260 $-1 #
coedge $-1 $263 $262 $495 $497 reversed $101 $-1 #
coedge $-1 $379 $498 $262 $382 forward $260 $-1 #
edge $-1 $499 -2.9167300490189803 $384 2.9167300490189803 $262 $500 forward 7 unknown #
edge $-1 $270 -2.9167300490189803 $501 2.9167300490189803 $263 $502 forward 7 unknown #
vertex $-1 $264 $503 #
straight-curve $-1 -46.96676534318064 22.142048432625863 0 0 0 -1 I I #
edge $-1 $390 -22.142048432625863 $384 22.142048432625863 $379 $504 forward 7 unknown #
coedge $-1 $505 $266 $269 $393 reversed $389 $-1 #
coedge $-1 $266 $505 $496 $506 reversed $389 $-1 #
loop $-1 $-1 $266 $376 #
vertex $-1 $267 $507 #
straight-curve $-1 -46.96676534318064 -22.142048432625863 0 0 0 1 I I #
coedge $-1 $269 $268 $508 $509 forward $160 $-1 #
edge $-1 $510 -2.9167300490189803 $271 2.9167300490189803 $387 $511 forward 7 unknown #
point $-1 -46.96676534318064 22.142048432625863 -2.2476561657403882 #
point $-1 -46.96676534318064 -22.142048432625863 -2.2476561657403882 #
loop $-1 $-1 $281 $273 #
plane-surface $-1 0 22.142048432625863 0 0 -1 0 0 0 -1 forward_v I I I I #
coedge $-1 $399 $276 $278 $403 reversed $168 $-1 #
coedge $-1 $276 $398 $512 $513 reversed $168 $-1 #
coedge $-1 $284 $279 $276 $401 forward $274 $-1 #
edge $-1 $404 -15.595308066037315 $514 -11.494565829508339 $400 $515 forward 7 unknown #
coedge $-1 $278 $277 $407 $516 reversed $105 $-1 #
edge $-1 $517 -44.28409686525174 $404 -37.767952844751498 $398 $518 forward 7 unknown #
vertex $-1 $280 $519 #
straight-curve $-1 -2.6908775498386426 18.041306196096887 7.2503095935854986 1 0 0 I I #
coedge $-1 $512 $281 $284 $411 reversed $396 $-1 #
coedge $-1 $281 $512 $402 $516 forward $396 $-1 #
vertex $-1 $282 $520 #
straight-curve $-1 -13.680240248373551 22.142048432625863 47.857903618118094 0 0 1 I I #
straight-curve $-1 -13.680240248373551 -5.7268362713584651 36.601521931922022 0 0.62932038083071107 -0.77714596973225614 I I #
edge $-1 $514 -2.9167300490189803 $285 13.680240248373551 $406 $521 forward 7 unknown #
point $-1 -13.680240248373551 22.142048432625863 7.250309593585496 #
point $-1 -13.680240248373551 18.041306196096887 7.2503095935854986 #
edge $-1 $522 1 $522 0 $288 $-1 forward 7 unknown #
vertex $-1 $289 $523 #
ellipse-curve $-1 -10.360846188895046 17.999926809263687 3.0244459468088376 0 0.77714596973225614 0.62932038083071107 1 0 0 1 I I #
point $-1 -9.3608461888950458 20.091677314361387 4.718312061722151 #
edge $-1 $524 1 $524 0 $292 $-1 forward 7 unknown #
vertex $-1 $293 $525 #
ellipse-curve $-1 -5.3817550996772852 17.999926809263687 3.0244459468088376 0 0.77714596973225614 0.62932038083071107 1 0 0 1 I I #
point $-1 -4.3817550996772852 20.091677314361387 4.718312061722151 #
edge $-1 $526 1 $526 0 $296 $-1 forward 7 unknown #
vertex $-1 $297 $527 #
ellipse-curve $-1 -0.40266401045952449 17.999926809263687 3.0244459468088376 0 0.77714596973225614 0.62932038083071107 1 0 0 1 I I #
point $-1 0.59733598954047551 20.091677314361387 4.718312061722151 #
loop $-1 $-1 $309 $300 #
plane-surface $-1 0 22.142048432625863 0 0 -1 0 0 0 -1 forward_v I I I I #
coedge $-1 $303 $432 $312 $440 forward $197 $-1 #
edge $-1 $437 -44.28409686525174 $433 -37.767952844751498 $304 $528 forward 7 unknown #
coedge $-1 $309 $529 $305 $431 forward $426 $-1 #
edge $-1 $434 40.607594024532595 $437 45.671589088259303 $430 $530 forward 7 unknown #
coedge $-1 $428 $306 $529 $531 forward $197 $-1 #
vertex $-1 $307 $532 #
vertex $-1 $531 $533 #
straight-curve $-1 19.513700346411511 33.636614262134202 7.2503095935854986 0 1 0 I I #
coedge $-1 $529 $309 $313 $441 forward $426 $-1 #
vertex $-1 $431 $534 #
straight-curve $-1 -2.6908775498386426 22.142048432625863 2.1863145298587909 -1 0 0 I I #
straight-curve $-1 -2.6908775498386426 18.041306196096887 7.2503095935854986 1 0 0 I I #
edge $-1 $535 11.494565829508339 $315 15.595308066037315 $428 $536 forward 7 unknown #
edge $-1 $314 -45.671589088259303 $535 -40.607594024532595 $436 $537 forward 7 unknown #
point $-1 2.9167300490189803 22.142048432625863 2.1863145298587909 #
point $-1 2.9167300490189803 18.041306196096887 7.2503095935854986 #
edge $-1 $538 1 $538 0 $317 $-1 forward 7 unknown #
vertex $-1 $318 $539 #
ellipse-curve $-1 6.236124108497485 17.999926809263687 3.0244459468088376 0 0.77714596973225614 0.62932038083071107 1 0 0 1 I I #
point $-1 7.236124108497485 20.091677314361387 4.718312061722151 #
edge $-1 $540 1 $540 0 $321 $-1 forward 7 unknown #
vertex $-1 $322 $541 #
ellipse-curve $-1 11.215215197715246 17.999926809263687 3.0244459468088376 0 0.77714596973225614 0.62932038083071107 1 0 0 1 I I #
point $-1 12.215215197715246 20.091677314361387 4.718312061722151 #
edge $-1 $542 1 $542 0 $325 $-1 forward 7 unknown #
vertex $-1 $326 $543 #
ellipse-curve $-1 16.194306286933006 17.999926809263687 3.0244459468088376 0 0.77714596973225614 0.62932038083071107 1 0 0 1 I I #
point $-1 17.194306286933006 20.091677314361387 4.718312061722151 #
plane-surface $-1 0 0 7.250309593585496 0 0 1 1 0 0 forward_v I I I I #
coedge $-1 $467 $466 $459 $544 forward $330 $-1 #
coedge $-1 $459 $332 $334 $463 reversed $226 $-1 #
coedge $-1 $332 $458 $457 $544 reversed $226 $-1 #
coedge $-1 $340 $335 $332 $461 forward $341 $-1 #
edge $-1 $464 -31.04484573732076 $545 -28.759052087790998 $460 $546 forward 7 unknown #
coedge $-1 $334 $333 $467 $547 reversed $143 $-1 #
edge $-1 $548 1.3557137071152151e-014 $464 4.3134753886349717 $458 $549 forward 7 unknown #
vertex $-1 $336 $550 #
straight-curve $-1 9.415507063501245 -19.856254783096098 7.2503095935854969 -1 0 0 I I #
coedge $-1 $457 $337 $340 $471 reversed $330 $-1 #
coedge $-1 $337 $457 $462 $547 forward $330 $-1 #
vertex $-1 $338 $551 #
straight-curve $-1 26.973555671031779 -22.142048432625863 26.684730622563652 0 0 1 I I #
straight-curve $-1 26.973555671031779 -22.14204843262587 3.592274968253335 0 -0.52991925155115449 -0.84804810408105047 I I #
edge $-1 $545 10.688472582973201 $342 26.973555671031779 $466 $552 forward 7 unknown #
point $-1 26.973555671031779 -22.142048432625863 7.250309593585496 #
point $-1 26.973555671031779 -19.856254783096102 7.250309593585496 #
edge $-1 $553 1 $553 0 $345 $-1 forward 7 unknown #
vertex $-1 $346 $554 #
ellipse-curve $-1 18.83101412700249 -20.151103503779925 4.8913730293682569 0 -0.84804810408105047 0.52991925155115449 0.25 0 0 1 I I #
point $-1 19.08101412700249 -20.999151607860977 5.4212922809194115 #
plane-surface $-1 46.96676534318064 0 0 -1 0 0 0 0 1 forward_v I I I I #
coedge $-1 $354 $352 $356 $483 reversed $241 $-1 #
edge $-1 $367 -7.250309593585496 $485 7.250309593585496 $366 $555 forward 7 unknown #
vertex $-1 $483 $556 #
straight-curve $-1 -46.96676534318064 -22.142048432625863 0 0 0 -1 I I #
edge $-1 $481 -22.142048432625863 $485 22.142048432625863 $479 $557 forward 7 unknown #
straight-curve $-1 0 -22.142048432625863 -7.250309593585496 -1 0 0 I I #
vertex $-1 $359 $558 #
straight-curve $-1 0 22.142048432625863 -7.250309593585496 1 0 0 I I #
point $-1 46.96676534318064 22.142048432625863 -7.250309593585496 #
point $-1 46.96676534318064 -22.142048432625863 -7.250309593585496 #
straight-curve $-1 -46.96676534318064 0 7.250309593585496 0 -1 0 I I #
point $-1 -46.96676534318064 22.142048432625863 7.250309593585496 #
point $-1 -46.96676534318064 -22.142048432625863 7.250309593585496 #
straight-curve $-1 46.96676534318064 -22.142048432625863 0 0 0 -1 I I #
straight-curve $-1 46.96676534318064 22.142048432625863 0 0 0 -1 I I #
plane-surface $-1 0 -22.142048432625863 0 0 1 0 0 0 1 forward_v I I I I #
coedge $-1 $559 $508 $380 $497 forward $377 $-1 #
coedge $-1 $498 $379 $388 $506 forward $260 $-1 #
edge $-1 $501 -2.1283609408776978 $499 2.1283609408776982 $380 $560 forward 7 unknown #
coedge $-1 $381 $496 $559 $561 forward $260 $-1 #
vertex $-1 $382 $562 #
straight-curve $-1 -49.88349539219962 22.142048432625863 -6.5043780474957842 1 0 0 I I #
vertex $-1 $383 $563 #
straight-curve $-1 -49.88349539219962 22.142048432625863 -2.2476561657403882 -1 0 0 I I #
point $-1 -46.96676534318064 22.142048432625863 -6.5043780474957842 #
straight-curve $-1 -46.96676534318064 0 -6.5043780474957842 0 1 0 I I #
coedge $-1 $388 $387 $564 $565 forward $389 $-1 #
edge $-1 $390 -2.9167300490189803 $566 2.9167300490189803 $388 $567 forward 7 unknown #
point $-1 -46.96676534318064 -22.142048432625863 -6.5043780474957842 #
coedge $-1 $495 $564 $392 $509 reversed $377 $-1 #
edge $-1 $501 -22.142048432625863 $510 22.142048432625863 $508 $568 forward 7 unknown #
vertex $-1 $509 $569 #
straight-curve $-1 -49.88349539219962 -22.142048432625863 -2.2476561657403882 1 0 0 I I #
coedge $-1 $407 $406 $399 $513 forward $396 $-1 #
edge $-1 $514 40.607594024532595 $517 45.671589088259303 $512 $570 forward 7 unknown #
vertex $-1 $411 $571 #
straight-curve $-1 2.9167300490189803 33.636614262134202 7.2503095935854986 0 1 0 I I #
edge $-1 $517 -5.6076075988576228 $408 10.989362698534908 $407 $572 forward 7 unknown #
vertex $-1 $516 $573 #
straight-curve $-1 2.9167300490189803 -5.7268362713584651 36.601521931922022 0 -0.62932038083071107 0.77714596973225614 I I #
point $-1 2.9167300490189803 18.041306196096887 7.2503095935854986 #
point $-1 -13.680240248373551 22.142048432625863 2.1863145298587909 #
straight-curve $-1 0 22.142048432625863 7.250309593585496 -1 0 0 I I #
vertex $-1 $414 $574 #
point $-1 -9.3608461888950458 17.999926809263687 3.0244459468088376 #
vertex $-1 $418 $575 #
point $-1 -4.3817550996772852 17.999926809263687 3.0244459468088376 #
vertex $-1 $422 $576 #
point $-1 0.59733598954047551 17.999926809263687 3.0244459468088376 #
straight-curve $-1 19.513700346411511 -5.7268362713584651 36.601521931922022 0 -0.62932038083071107 0.77714596973225614 I I #
coedge $-1 $430 $436 $432 $531 reversed $426 $-1 #
straight-curve $-1 19.513700346411511 22.142048432625863 47.857903618118094 0 0 -1 I I #
edge $-1 $434 -19.513700346411511 $535 -2.9167300490189803 $529 $577 forward 7 unknown #
point $-1 19.513700346411511 18.041306196096887 7.2503095935854986 #
point $-1 19.513700346411511 22.142048432625863 7.250309593585496 #
point $-1 19.513700346411511 22.142048432625863 2.1863145298587909 #
vertex $-1 $441 $578 #
straight-curve $-1 2.9167300490189803 33.636614262134202 7.2503095935854986 0 -1 0 I I #
straight-curve $-1 2.9167300490189803 22.142048432625863 47.857903618118094 0 0 1 I I #
vertex $-1 $444 $579 #
point $-1 7.236124108497485 17.999926809263687 3.0244459468088376 #
vertex $-1 $448 $580 #
point $-1 12.215215197715246 17.999926809263687 3.0244459468088376 #
vertex $-1 $452 $581 #
point $-1 17.194306286933006 17.999926809263687 3.0244459468088376 #
edge $-1 $545 19.434421028978157 $548 23.092455654310307 $457 $582 forward 7 unknown #
vertex $-1 $471 $583 #
straight-curve $-1 10.688472582973201 -50.901100520416861 7.2503095935854951 0 -1 0 I I #
edge $-1 $548 1.2729655194719562 $468 17.558048607530534 $467 $584 forward 7 unknown #
vertex $-1 $547 $585 #
straight-curve $-1 10.688472582973201 -22.14204843262587 3.592274968253335 0 0.52991925155115449 0.84804810408105047 I I #
point $-1 10.688472582973201 -19.856254783096102 7.250309593585496 #
point $-1 26.973555671031779 -22.142048432625863 3.5922749682533466 #
straight-curve $-1 0 -22.142048432625863 7.250309593585496 1 0 0 I I #
vertex $-1 $474 $586 #
point $-1 19.08101412700249 -20.151103503779925 4.8913730293682569 #
straight-curve $-1 -46.96676534318064 22.142048432625863 0 0 0 -1 I I #
point $-1 -46.96676534318064 -22.142048432625863 -7.250309593585496 #
straight-curve $-1 -46.96676534318064 0 -7.250309593585496 0 1 0 I I #
point $-1 -46.96676534318064 22.142048432625863 -7.250309593585496 #
coedge $-1 $564 $495 $498 $561 reversed $377 $-1 #
straight-curve $-1 -52.800225441218601 22.142048432625863 -4.376017106618086 0 0 -1 I I #
edge $-1 $566 -22.142048432625863 $499 22.142048432625863 $559 $587 forward 7 unknown #
point $-1 -52.800225441218601 22.142048432625863 -6.5043780474957842 #
point $-1 -52.800225441218601 22.142048432625863 -2.2476561657403882 #
coedge $-1 $508 $559 $505 $565 reversed $377 $-1 #
edge $-1 $510 -2.1283609408776978 $566 2.1283609408776982 $564 $588 forward 7 unknown #
vertex $-1 $561 $589 #
straight-curve $-1 -49.88349539219962 -22.142048432625863 -6.5043780474957842 -1 0 0 I I #
straight-curve $-1 -52.800225441218601 0 -2.2476561657403882 0 -1 0 I I #
point $-1 -52.800225441218601 -22.142048432625863 -2.2476561657403882 #
straight-curve $-1 2.9167300490189803 22.142048432625863 47.857903618118094 0 0 -1 I I #
point $-1 2.9167300490189803 22.142048432625863 7.250309593585496 #
straight-curve $-1 -2.6908775498386426 22.142048432625863 2.1863145298587909 -1 0 0 I I #
point $-1 2.9167300490189803 22.142048432625863 2.1863145298587909 #
point $-1 -10.360846188895046 17.222780839531435 2.3951255659781268 #
point $-1 -5.3817550996772852 17.222780839531435 2.3951255659781268 #
point $-1 -0.40266401045952449 17.222780839531435 2.3951255659781268 #
straight-curve $-1 0 22.142048432625863 7.250309593585496 -1 0 0 I I #
point $-1 2.9167300490189803 22.142048432625863 7.250309593585496 #
point $-1 6.236124108497485 17.222780839531435 2.3951255659781268 #
point $-1 11.215215197715246 17.222780839531435 2.3951255659781268 #
point $-1 16.194306286933006 17.222780839531435 2.3951255659781268 #
straight-curve $-1 10.688472582973201 -22.142048432625863 26.684730622563652 0 0 -1 I I #
point $-1 10.688472582973201 -22.142048432625863 7.250309593585496 #
straight-curve $-1 9.415507063501245 -22.142048432625863 3.5922749682533475 1 0 0 I I #
point $-1 10.688472582973201 -22.142048432625863 3.5922749682533466 #
point $-1 18.83101412700249 -19.939091477759664 4.7588932164804678 #
straight-curve $-1 -52.800225441218601 0 -6.5043780474957842 0 1 0 I I #
straight-curve $-1 -52.800225441218601 -22.142048432625863 -4.376017106618086 0 0 -1 I I #
point $-1 -52.800225441218601 -22.142048432625863 -6.5043780474957842 #
End-of-ACIS-data 