500 0 9 0           
7 Unknown 11 ACIS 5.0 NT 24 Fri Mar 26 01:11:02 1999 
-1 9.9999999999999995e-007 1e-010 
body $-1 $9 $-1 $10 #
body $-1 $11 $-1 $12 #
body $-1 $13 $-1 $14 #
body $-1 $15 $-1 $16 #
body $-1 $17 $-1 $18 #
body $-1 $19 $-1 $20 #
body $-1 $21 $-1 $22 #
body $-1 $23 $-1 $24 #
body $-1 $25 $-1 $26 #
lump $-1 $-1 $27 $0 #
transform $-1 1 0 0 0 1 0 0 0 1 47.254860072634052 23.012498173925866 9.6114946442786913 1 rotate no_reflect no_shear #
lump $-1 $-1 $28 $1 #
transform $-1 1 0 0 0 1 0 0 0 1 47.254860072634052 23.012498173925866 9.6114946442786913 1 rotate no_reflect no_shear #
lump $-1 $-1 $29 $2 #
transform $-1 1 0 0 0 1 0 0 0 1 47.254860072634052 23.012498173925866 9.6114946442786913 1 rotate no_reflect no_shear #
lump $-1 $-1 $30 $3 #
transform $-1 1 0 0 0 1 0 0 0 1 47.254860072634052 23.012498173925866 9.6114946442786913 1 rotate no_reflect no_shear #
lump $-1 $-1 $31 $4 #
transform $-1 1 0 0 0 1 0 0 0 1 47.254860072634052 23.012498173925866 9.6114946442786913 1 rotate no_reflect no_shear #
lump $-1 $-1 $32 $5 #
transform $-1 1 0 0 0 1 0 0 0 1 47.254860072634052 23.012498173925866 9.6114946442786913 1 rotate no_reflect no_shear #
lump $-1 $-1 $33 $6 #
transform $-1 1 0 0 0 1 0 0 0 1 47.254860072634052 23.012498173925866 9.6114946442786913 1 rotate no_reflect no_shear #
lump $-1 $-1 $34 $7 #
transform $-1 1 0 0 0 1 0 0 0 1 47.254860072634052 23.012498173925866 9.6114946442786913 1 rotate no_reflect no_shear #
lump $-1 $-1 $35 $8 #
transform $-1 1 0 0 0 1 0 0 0 1 47.254860072634052 23.012498173925866 9.6114946442786913 1 rotate no_reflect no_shear #
shell $-1 $-1 $-1 $36 $-1 $9 #
shell $-1 $-1 $-1 $37 $-1 $11 #
shell $-1 $-1 $-1 $38 $-1 $13 #
shell $-1 $-1 $-1 $39 $-1 $15 #
shell $-1 $-1 $-1 $40 $-1 $17 #
shell $-1 $-1 $-1 $41 $-1 $19 #
shell $-1 $-1 $-1 $42 $-1 $21 #
shell $-1 $-1 $-1 $43 $-1 $23 #
shell $-1 $-1 $-1 $44 $-1 $25 #
face $-1 $45 $46 $27 $-1 $47 forward single #
face $-1 $48 $49 $28 $-1 $50 forward single #
face $-1 $51 $52 $29 $-1 $53 reversed single #
face $-1 $54 $55 $30 $-1 $56 reversed single #
face $-1 $57 $58 $31 $-1 $59 forward single #
face $-1 $60 $61 $32 $-1 $62 forward single #
face $-1 $63 $64 $33 $-1 $65 reversed single #
face $-1 $66 $67 $34 $-1 $68 forward single #
face $-1 $69 $70 $35 $-1 $71 forward single #
face $-1 $72 $73 $27 $-1 $74 reversed single #
loop $-1 $-1 $75 $36 #
plane-surface $-1 0 0 9.6114946442786913 0 0 1 1 0 0 forward_v I I I I #
face $-1 $76 $77 $28 $-1 $78 reversed single #
loop $-1 $-1 $79 $37 #
plane-surface $-1 -42.729631585699728 0 -6.2491874904498719 0 0 1 1 0 0 forward_v I I I I #
face $-1 $80 $81 $29 $-1 $82 reversed single #
loop $-1 $-1 $83 $38 #
plane-surface $-1 43.88956683477317 -6.789508885368484 0 0 1 0 0 0 1 forward_v I I I I #
face $-1 $84 $85 $30 $-1 $86 reversed single #
loop $-1 $-1 $87 $39 #
plane-surface $-1 -38.204403098765411 50.280948802369366 102.34109824944854 1 0 0 0 -0.6560590369687036 -0.75470957328743171 forward_v I I I I #
face $-1 $88 $89 $31 $-1 $90 forward single #
loop $-1 $91 $92 $40 #
cone-surface $-1 -34.941904365316617 17.43060540876149 4.6118427190659741 0 -0.6560590369687036 -0.75470957328743171 1 0 0 1 I I 0 1 1 forward I I I I #
face $-1 $93 $94 $32 $-1 $95 forward single #
loop $-1 $96 $97 $41 #
cone-surface $-1 -30.048156265143426 17.43060540876149 4.6118427190659741 0 -0.6560590369687036 -0.75470957328743171 1 0 0 1 I I 0 1 1 forward I I I I #
face $-1 $98 $99 $33 $-1 $100 reversed single #
loop $-1 $-1 $101 $42 #
plane-surface $-1 -26.785657531694635 -85.016454156612141 72.145983468988831 -1 0 0 0 -0.6560590369687036 0.75470957328743171 forward_v I I I I #
face $-1 $102 $103 $34 $-1 $104 forward single #
loop $-1 $105 $106 $43 #
cone-surface $-1 -34.941904365316617 -17.43060540876149 4.6118427190659723 0 0.6560590369687036 -0.75470957328743171 1 0 0 1 I I 0 1 1 forward I I I I #
face $-1 $107 $108 $35 $-1 $109 forward single #
loop $-1 $110 $111 $44 #
cone-surface $-1 -30.048156265143426 -17.43060540876149 4.6118427190659723 0 0.6560590369687036 -0.75470957328743171 1 0 0 1 I I 0 1 1 forward I I I I #
face $-1 $112 $113 $27 $-1 $114 reversed single #
loop $-1 $-1 $115 $45 #
plane-surface $-1 0 0 -9.6114946442786913 0 0 1 1 0 0 forward_v I I I I #
coedge $-1 $116 $117 $118 $119 forward $46 $-1 #
face $-1 $120 $121 $28 $-1 $122 reversed single #
loop $-1 $-1 $123 $48 #
plane-surface $-1 -38.204403098765404 0 -7.9303410673642816 -1 0 0 0 0 1 forward_v I I I I #
coedge $-1 $124 $125 $126 $127 forward $49 $-1 #
face $-1 $128 $129 $29 $-1 $130 reversed single #
loop $-1 $-1 $131 $51 #
plane-surface $-1 40.52427359691228 -5.289508885368484 0 1 0 0 0 0 -1 forward_v I I I I #
coedge $-1 $132 $133 $134 $135 forward $52 $-1 #
face $-1 $136 $137 $30 $-1 $138 reversed single #
loop $-1 $-1 $139 $54 #
plane-surface $-1 -32.495030315230025 -11.723007180316912 31.013707687098659 0 0.6560590369687036 0.75470957328743171 1 0 0 forward_v I I I I #
coedge $-1 $140 $141 $142 $143 reversed $55 $-1 #
face $-1 $-1 $144 $31 $-1 $145 forward single #
loop $-1 $146 $147 $57 #
cone-surface $-1 -34.941904365316617 16.578221200523014 3.6312868760294084 0 -0.6560590369687036 -0.75470957328743171 0.5 0 0 1 I I -0.70710678118654724 0.70710678118654791 0.5 forward I I I I #
loop $-1 $-1 $148 $40 #
coedge $-1 $92 $92 $149 $150 reversed $58 $-1 #
face $-1 $-1 $151 $32 $-1 $152 forward single #
loop $-1 $153 $154 $60 #
cone-surface $-1 -30.048156265143426 16.578221200523014 3.6312868760294084 0 -0.6560590369687036 -0.75470957328743171 0.5 0 0 1 I I -0.70710678118654724 0.70710678118654791 0.5 forward I I I I #
loop $-1 $-1 $155 $41 #
coedge $-1 $97 $97 $156 $157 reversed $61 $-1 #
face $-1 $158 $159 $33 $-1 $160 reversed single #
loop $-1 $-1 $161 $63 #
plane-surface $-1 -32.495030315230025 -23.012498173925863 0.81859290663895479 0 -0.6560590369687036 0.75470957328743171 1 0 0 forward_v I I I I #
coedge $-1 $162 $163 $164 $165 reversed $64 $-1 #
face $-1 $-1 $166 $34 $-1 $167 forward single #
loop $-1 $168 $169 $66 #
cone-surface $-1 -34.941904365316617 -16.578221200523014 3.6312868760294066 0 0.6560590369687036 -0.75470957328743171 0.5 0 0 1 I I -0.70710678118654724 0.70710678118654791 0.5 forward I I I I #
loop $-1 $-1 $170 $43 #
coedge $-1 $106 $106 $171 $172 reversed $67 $-1 #
face $-1 $-1 $173 $35 $-1 $174 forward single #
loop $-1 $175 $176 $69 #
cone-surface $-1 -30.048156265143426 -16.578221200523014 3.6312868760294066 0 0.6560590369687036 -0.75470957328743171 0.5 0 0 1 I I -0.70710678118654724 0.70710678118654791 0.5 forward I I I I #
loop $-1 $-1 $177 $44 #
coedge $-1 $111 $111 $178 $179 reversed $70 $-1 #
face $-1 $180 $181 $27 $-1 $182 reversed single #
loop $-1 $-1 $183 $72 #
plane-surface $-1 0 -23.012498173925866 0 0 1 0 0 0 1 forward_v I I I I #
coedge $-1 $184 $185 $186 $187 forward $73 $-1 #
coedge $-1 $188 $75 $189 $190 forward $46 $-1 #
coedge $-1 $75 $188 $191 $192 forward $46 $-1 #
coedge $-1 $193 $194 $75 $119 reversed $195 $-1 #
edge $-1 $196 -23.012498173925866 $197 23.012498173925866 $118 $198 forward 7 unknown #
face $-1 $199 $200 $28 $-1 $201 reversed single #
loop $-1 $-1 $202 $76 #
plane-surface $-1 0 0 -9.6114946442786913 0 0 1 1 0 0 forward_v I I I I #
coedge $-1 $203 $126 $204 $205 reversed $77 $-1 #
coedge $-1 $206 $79 $207 $208 reversed $49 $-1 #
coedge $-1 $79 $206 $209 $210 reversed $49 $-1 #
coedge $-1 $123 $211 $79 $127 reversed $77 $-1 #
edge $-1 $212 -23.012498173925866 $213 23.012498173925866 $126 $214 forward 7 unknown #
face $-1 $215 $216 $29 $-1 $217 reversed single #
loop $-1 $-1 $218 $80 #
plane-surface $-1 43.88956683477317 -3.789508885368484 0 0 -1 0 0 0 -1 forward_v I I I I #
coedge $-1 $219 $220 $221 $222 forward $81 $-1 #
coedge $-1 $223 $83 $224 $225 reversed $52 $-1 #
coedge $-1 $83 $223 $226 $227 reversed $52 $-1 #
coedge $-1 $220 $219 $83 $135 reversed $81 $-1 #
edge $-1 $228 -9.6114946442786913 $229 9.6114946442786913 $134 $230 forward 7 unknown #
face $-1 $231 $232 $30 $-1 $233 reversed single #
loop $-1 $-1 $234 $84 #
plane-surface $-1 -26.785657531694635 50.280948802369366 102.34109824944854 -1 0 0 0 0.6560590369687036 0.75470957328743171 forward_v I I I I #
coedge $-1 $235 $236 $237 $238 reversed $85 $-1 #
coedge $-1 $141 $87 $239 $240 reversed $55 $-1 #
coedge $-1 $87 $140 $235 $241 reversed $55 $-1 #
coedge $-1 $237 $242 $87 $143 forward $243 $-1 #
edge $-1 $244 2.1279762272588165 $245 12.243052378079323 $142 $246 forward 7 unknown #
loop $-1 $-1 $149 $88 #
plane-surface $-1 -32.495030315230025 -11.723007180316912 31.013707687098659 0 0.6560590369687036 0.75470957328743171 1 0 0 forward_v I I I I #
loop $-1 $-1 $247 $57 #
coedge $-1 $147 $147 $148 $248 reversed $89 $-1 #
coedge $-1 $148 $148 $147 $248 forward $91 $-1 #
coedge $-1 $149 $149 $92 $150 forward $144 $-1 #
edge $-1 $249 -5.826974786848492e-016 $249 6.2831853071795996 $149 $250 forward 7 unknown #
loop $-1 $-1 $156 $93 #
plane-surface $-1 -32.495030315230025 -11.723007180316912 31.013707687098659 0 0.6560590369687036 0.75470957328743171 1 0 0 forward_v I I I I #
loop $-1 $-1 $251 $60 #
coedge $-1 $154 $154 $155 $252 reversed $94 $-1 #
coedge $-1 $155 $155 $154 $252 forward $96 $-1 #
coedge $-1 $156 $156 $97 $157 forward $151 $-1 #
edge $-1 $253 -5.826974786848492e-016 $253 6.2831853071795996 $156 $254 forward 7 unknown #
face $-1 $255 $256 $33 $-1 $257 forward single #
loop $-1 $-1 $258 $98 #
plane-surface $-1 -38.204403098765411 -85.016454156612141 72.145983468988831 1 0 0 0 0.6560590369687036 -0.75470957328743171 forward_v I I I I #
coedge $-1 $259 $260 $261 $262 reversed $99 $-1 #
coedge $-1 $163 $101 $263 $264 reversed $64 $-1 #
coedge $-1 $101 $162 $259 $265 reversed $64 $-1 #
coedge $-1 $261 $266 $101 $165 forward $256 $-1 #
edge $-1 $267 19.495728904380204 $268 29.610805055200714 $164 $269 forward 7 unknown #
loop $-1 $-1 $171 $102 #
plane-surface $-1 -32.495030315230025 -23.012498173925863 0.81859290663895479 0 -0.6560590369687036 0.75470957328743171 1 0 0 forward_v I I I I #
loop $-1 $-1 $270 $66 #
coedge $-1 $169 $169 $170 $271 reversed $103 $-1 #
coedge $-1 $170 $170 $169 $271 forward $105 $-1 #
coedge $-1 $171 $171 $106 $172 forward $166 $-1 #
edge $-1 $272 1.1653949573696984e-015 $272 6.2831853071796013 $171 $273 forward 7 unknown #
loop $-1 $-1 $178 $107 #
plane-surface $-1 -32.495030315230025 -23.012498173925863 0.81859290663895479 0 -0.6560590369687036 0.75470957328743171 1 0 0 forward_v I I I I #
loop $-1 $-1 $274 $69 #
coedge $-1 $176 $176 $177 $275 reversed $108 $-1 #
coedge $-1 $177 $177 $176 $275 forward $110 $-1 #
coedge $-1 $178 $178 $111 $179 forward $173 $-1 #
edge $-1 $276 1.1653949573696984e-015 $276 6.2831853071796013 $178 $277 forward 7 unknown #
face $-1 $278 $279 $27 $-1 $280 reversed single #
loop $-1 $-1 $281 $112 #
plane-surface $-1 -47.254860072634052 0 0 1 0 0 0 0 -1 forward_v I I I I #
coedge $-1 $282 $191 $283 $284 forward $113 $-1 #
coedge $-1 $285 $115 $282 $286 forward $73 $-1 #
coedge $-1 $115 $285 $287 $288 forward $73 $-1 #
coedge $-1 $194 $193 $115 $187 reversed $195 $-1 #
edge $-1 $289 -23.012498173925866 $290 23.012498173925866 $186 $291 forward 7 unknown #
coedge $-1 $117 $116 $292 $293 forward $46 $-1 #
coedge $-1 $294 $295 $116 $190 reversed $279 $-1 #
edge $-1 $197 -47.254860072634052 $296 47.254860072634052 $189 $297 forward 7 unknown #
coedge $-1 $183 $298 $117 $192 reversed $113 $-1 #
edge $-1 $299 -47.254860072634052 $196 47.254860072634052 $191 $300 forward 7 unknown #
coedge $-1 $186 $118 $298 $301 forward $195 $-1 #
coedge $-1 $118 $186 $294 $302 reversed $195 $-1 #
loop $-1 $-1 $193 $278 #
vertex $-1 $119 $303 #
vertex $-1 $119 $304 #
straight-curve $-1 47.254860072634052 0 9.6114946442786913 0 1 0 I I #
face $-1 $305 $306 $28 $-1 $307 reversed single #
loop $-1 $-1 $204 $120 #
plane-surface $-1 0 -23.012498173925866 0 0 1 0 0 0 1 forward_v I I I I #
coedge $-1 $308 $309 $203 $310 forward $121 $-1 #
coedge $-1 $211 $123 $202 $310 reversed $77 $-1 #
coedge $-1 $209 $311 $123 $205 forward $200 $-1 #
edge $-1 $312 -5.6463241105965505 $212 -2.2840169567677311 $204 $313 forward 7 unknown #
coedge $-1 $125 $124 $314 $315 reversed $49 $-1 #
coedge $-1 $316 $317 $124 $208 forward $318 $-1 #
edge $-1 $319 -25.890044279784188 $213 -16.83958730591554 $207 $320 forward 7 unknown #
coedge $-1 $321 $204 $125 $210 forward $200 $-1 #
edge $-1 $212 16.83958730591554 $322 25.890044279784188 $209 $323 forward 7 unknown #
coedge $-1 $126 $203 $316 $324 reversed $77 $-1 #
vertex $-1 $210 $325 #
vertex $-1 $208 $326 #
straight-curve $-1 -38.204403098765404 0 -6.2491874904498719 0 1 0 I I #
face $-1 $327 $328 $29 $-1 $329 forward single #
loop $-1 $-1 $224 $128 #
plane-surface $-1 0 0 -9.6114946442786913 0 0 1 1 0 0 forward_v I I I I #
coedge $-1 $330 $331 $332 $333 reversed $129 $-1 #
coedge $-1 $134 $131 $334 $335 reversed $81 $-1 #
coedge $-1 $131 $134 $336 $337 reversed $81 $-1 #
coedge $-1 $331 $330 $131 $222 reversed $129 $-1 #
edge $-1 $338 -9.6114946442786913 $339 9.6114946442786913 $221 $340 forward 7 unknown #
coedge $-1 $133 $132 $341 $342 reversed $52 $-1 #
coedge $-1 $334 $343 $132 $225 forward $216 $-1 #
edge $-1 $344 -25.310076655247475 $229 -18.579490179525695 $224 $345 forward 7 unknown #
coedge $-1 $346 $336 $133 $227 forward $328 $-1 #
edge $-1 $228 18.579490179525695 $347 25.310076655247475 $226 $348 forward 7 unknown #
vertex $-1 $227 $349 #
vertex $-1 $225 $350 #
straight-curve $-1 40.52427359691228 -6.789508885368484 0 0 0 -1 I I #
face $-1 $-1 $243 $30 $-1 $351 forward single #
loop $-1 $-1 $352 $136 #
plane-surface $-1 0 23.012498173925866 0 0 -1 0 0 0 -1 forward_v I I I I #
coedge $-1 $353 $354 $355 $356 reversed $137 $-1 #
coedge $-1 $357 $139 $141 $241 forward $85 $-1 #
coedge $-1 $139 $357 $353 $358 forward $85 $-1 #
coedge $-1 $355 $142 $139 $238 forward $243 $-1 #
edge $-1 $245 -21.956887941150399 $359 -10.538142374079623 $237 $360 forward 7 unknown #
coedge $-1 $361 $362 $140 $240 forward $232 $-1 #
edge $-1 $363 -50.351956218085306 $244 -41.559054480445575 $239 $364 forward 7 unknown #
edge $-1 $245 32.622388896139739 $363 46.024996347851726 $141 $365 forward 7 unknown #
coedge $-1 $142 $355 $361 $366 forward $243 $-1 #
loop $-1 $-1 $355 $231 #
vertex $-1 $240 $367 #
vertex $-1 $143 $368 #
straight-curve $-1 -38.204403098765411 25.140474401184683 9.611494644278693 0 -1 0 I I #
coedge $-1 $247 $247 $-1 $369 reversed $146 $-1 #
edge $-1 $370 0 $370 6.2831853071796004 $147 $371 forward 7 unknown #
vertex $-1 $150 $372 #
ellipse-curve $-1 -34.941904365316617 17.954960098515613 5.2150437754588239 0 0.6560590369687036 0.75470957328743171 1 0 0 1 I I #
coedge $-1 $251 $251 $-1 $373 reversed $153 $-1 #
edge $-1 $374 0 $374 6.2831853071796004 $154 $375 forward 7 unknown #
vertex $-1 $157 $376 #
ellipse-curve $-1 -30.048156265143426 17.954960098515613 5.2150437754588239 0 0.6560590369687036 0.75470957328743171 1 0 0 1 I I #
face $-1 $-1 $377 $33 $-1 $378 reversed single #
loop $-1 $-1 $164 $158 #
plane-surface $-1 0 0 9.6114946442786913 0 0 1 1 0 0 forward_v I I I I #
coedge $-1 $379 $380 $381 $382 reversed $159 $-1 #
coedge $-1 $383 $161 $163 $265 forward $99 $-1 #
coedge $-1 $161 $383 $379 $384 forward $99 $-1 #
coedge $-1 $381 $164 $161 $262 forward $256 $-1 #
edge $-1 $268 10.538142374079623 $385 21.956887941150399 $261 $386 forward 7 unknown #
coedge $-1 $387 $388 $162 $264 forward $377 $-1 #
edge $-1 $389 -35.254398827855461 $267 -26.461497090215722 $263 $390 forward 7 unknown #
edge $-1 $268 -13.402607451711987 $389 4.72070819993692e-015 $163 $391 forward 7 unknown #
coedge $-1 $164 $381 $387 $392 forward $256 $-1 #
vertex $-1 $165 $393 #
vertex $-1 $165 $394 #
straight-curve $-1 -26.785657531694635 -42.508227078306071 9.611494644278693 0 1 0 I I #
coedge $-1 $270 $270 $-1 $395 reversed $168 $-1 #
edge $-1 $396 0 $396 6.2831853071796004 $169 $397 forward 7 unknown #
vertex $-1 $172 $398 #
ellipse-curve $-1 -34.941904365316617 -17.954960098515613 5.2150437754588213 0 -0.6560590369687036 0.75470957328743171 1 0 0 1 I I #
coedge $-1 $274 $274 $-1 $399 reversed $175 $-1 #
edge $-1 $400 0 $400 6.2831853071796004 $176 $401 forward 7 unknown #
vertex $-1 $179 $402 #
ellipse-curve $-1 -30.048156265143426 -17.954960098515613 5.2150437754588213 0 -0.6560590369687036 0.75470957328743171 1 0 0 1 I I #
face $-1 $-1 $195 $27 $-1 $403 reversed single #
loop $-1 $-1 $294 $180 #
plane-surface $-1 0 23.012498173925866 0 0 -1 0 0 0 -1 forward_v I I I I #
coedge $-1 $404 $292 $295 $405 forward $181 $-1 #
coedge $-1 $298 $183 $184 $286 reversed $113 $-1 #
coedge $-1 $292 $404 $183 $284 reversed $181 $-1 #
edge $-1 $299 -9.6114946442786913 $406 9.6114946442786913 $283 $407 forward 7 unknown #
coedge $-1 $185 $184 $404 $408 forward $73 $-1 #
edge $-1 $290 -47.254860072634052 $406 47.254860072634052 $282 $409 forward 7 unknown #
coedge $-1 $295 $294 $185 $288 reversed $279 $-1 #
edge $-1 $410 -47.254860072634052 $289 47.254860072634052 $287 $411 forward 7 unknown #
vertex $-1 $187 $412 #
vertex $-1 $301 $413 #
straight-curve $-1 47.254860072634052 0 -9.6114946442786913 0 -1 0 I I #
coedge $-1 $281 $283 $188 $293 reversed $181 $-1 #
edge $-1 $296 -23.012498173925866 $299 23.012498173925866 $292 $414 forward 7 unknown #
coedge $-1 $287 $189 $194 $302 forward $279 $-1 #
coedge $-1 $189 $287 $281 $405 reversed $279 $-1 #
vertex $-1 $190 $415 #
straight-curve $-1 0 23.012498173925866 9.6114946442786913 -1 0 0 I I #
coedge $-1 $191 $282 $193 $301 reversed $113 $-1 #
vertex $-1 $293 $416 #
straight-curve $-1 0 -23.012498173925866 9.6114946442786913 1 0 0 I I #
edge $-1 $196 -9.6114946442786913 $290 9.6114946442786913 $193 $417 forward 7 unknown #
edge $-1 $197 -9.6114946442786913 $289 9.6114946442786913 $194 $418 forward 7 unknown #
point $-1 47.254860072634052 -23.012498173925866 9.6114946442786913 #
point $-1 47.254860072634052 23.012498173925866 9.6114946442786913 #
face $-1 $-1 $318 $28 $-1 $419 reversed single #
loop $-1 $-1 $314 $199 #
plane-surface $-1 -47.254860072634052 0 0 1 0 0 0 0 -1 forward_v I I I I #
coedge $-1 $420 $202 $311 $421 forward $121 $-1 #
coedge $-1 $202 $420 $422 $423 forward $121 $-1 #
edge $-1 $424 -23.012498173925866 $312 23.012498173925866 $202 $425 forward 7 unknown #
coedge $-1 $204 $321 $308 $421 reversed $200 $-1 #
vertex $-1 $421 $426 #
straight-curve $-1 -38.204403098765404 -23.012498173925866 -3.9651705336821408 0 0 1 I I #
coedge $-1 $427 $428 $206 $315 forward $306 $-1 #
edge $-1 $322 -23.012498173925866 $319 23.012498173925866 $314 $429 forward 7 unknown #
coedge $-1 $422 $207 $211 $324 forward $318 $-1 #
coedge $-1 $207 $422 $427 $430 reversed $318 $-1 #
loop $-1 $-1 $316 $305 #
vertex $-1 $430 $431 #
straight-curve $-1 -21.364815792849864 23.012498173925866 -6.2491874904498719 1 0 0 I I #
coedge $-1 $311 $209 $428 $432 forward $200 $-1 #
vertex $-1 $432 $433 #
straight-curve $-1 -21.364815792849864 -23.012498173925866 -6.2491874904498719 -1 0 0 I I #
edge $-1 $213 2.2840169567677311 $424 5.6463241105965505 $316 $434 forward 7 unknown #
point $-1 -38.204403098765404 -23.012498173925866 -6.2491874904498719 #
point $-1 -38.204403098765404 23.012498173925866 -6.2491874904498719 #
face $-1 $-1 $435 $29 $-1 $436 reversed single #
loop $-1 $-1 $437 $215 #
plane-surface $-1 0 0 9.6114946442786913 0 0 1 1 0 0 forward_v I I I I #
coedge $-1 $221 $218 $438 $439 reversed $129 $-1 #
coedge $-1 $218 $221 $437 $440 reversed $129 $-1 #
coedge $-1 $441 $442 $218 $333 forward $435 $-1 #
edge $-1 $443 -9.6114946442786913 $444 9.6114946442786913 $332 $445 forward 7 unknown #
coedge $-1 $438 $224 $219 $335 forward $216 $-1 #
edge $-1 $229 -4.144754442684242 $339 -1.144754442684242 $334 $446 forward 7 unknown #
coedge $-1 $226 $437 $220 $337 forward $328 $-1 #
edge $-1 $338 1.144754442684242 $228 4.144754442684242 $336 $447 forward 7 unknown #
vertex $-1 $337 $448 #
vertex $-1 $335 $449 #
straight-curve $-1 40.52427359691228 -3.789508885368484 0 0 0 -1 I I #
coedge $-1 $442 $441 $223 $342 forward $435 $-1 #
edge $-1 $347 -9.6114946442786913 $344 9.6114946442786913 $341 $450 forward 7 unknown #
coedge $-1 $224 $438 $442 $451 forward $216 $-1 #
vertex $-1 $342 $452 #
straight-curve $-1 21.944783417386585 -6.789508885368484 -9.6114946442786913 -1 0 0 I I #
coedge $-1 $437 $226 $441 $453 forward $328 $-1 #
vertex $-1 $453 $454 #
straight-curve $-1 21.944783417386585 -6.789508885368484 9.6114946442786913 1 0 0 I I #
point $-1 40.52427359691228 -6.789508885368484 9.6114946442786913 #
point $-1 40.52427359691228 -6.789508885368484 -9.6114946442786913 #
plane-surface $-1 0 0 9.6114946442786913 0 0 1 1 0 0 forward_v I I I I #
coedge $-1 $362 $361 $354 $455 forward $232 $-1 #
coedge $-1 $354 $234 $236 $358 reversed $137 $-1 #
coedge $-1 $234 $353 $352 $455 reversed $137 $-1 #
coedge $-1 $242 $237 $234 $356 forward $243 $-1 #
edge $-1 $359 -12.243052378079323 $456 -2.1279762272588165 $355 $457 forward 7 unknown #
coedge $-1 $236 $235 $362 $458 reversed $85 $-1 #
edge $-1 $459 -46.024996347851726 $359 -32.622388896139739 $353 $460 forward 7 unknown #
vertex $-1 $238 $461 #
straight-curve $-1 -16.247515157615013 12.897422023105356 9.6114946442786948 1 0 0 I I #
coedge $-1 $352 $239 $242 $366 reversed $232 $-1 #
coedge $-1 $239 $352 $357 $458 forward $232 $-1 #
vertex $-1 $240 $462 #
straight-curve $-1 -38.204403098765411 23.012498173925866 51.170549124724268 0 0 1 I I #
straight-curve $-1 -38.204403098765411 -11.723007180316912 31.013707687098659 0 0.75470957328743171 -0.6560590369687036 I I #
edge $-1 $456 26.785657531694635 $244 38.204403098765411 $361 $463 forward 7 unknown #
point $-1 -38.204403098765411 23.012498173925866 9.6114946442786913 #
point $-1 -38.204403098765411 12.89742202310536 9.611494644278693 #
edge $-1 $464 1 $464 0 $247 $-1 forward 7 unknown #
vertex $-1 $248 $465 #
ellipse-curve $-1 -34.941904365316617 16.906250719007367 4.0086416626731243 0 0.6560590369687036 0.75470957328743171 1 0 0 1 I I #
point $-1 -33.941904365316617 17.954960098515613 5.2150437754588248 #
edge $-1 $466 1 $466 0 $251 $-1 forward 7 unknown #
vertex $-1 $252 $467 #
ellipse-curve $-1 -30.048156265143426 16.906250719007367 4.0086416626731243 0 0.6560590369687036 0.75470957328743171 1 0 0 1 I I #
point $-1 -29.048156265143426 17.954960098515613 5.2150437754588248 #
loop $-1 $-1 $263 $255 #
plane-surface $-1 0 -23.012498173925866 0 0 1 0 0 0 1 forward_v I I I I #
coedge $-1 $380 $258 $260 $384 reversed $159 $-1 #
coedge $-1 $258 $379 $468 $469 reversed $159 $-1 #
coedge $-1 $266 $261 $258 $382 forward $256 $-1 #
edge $-1 $385 -29.610805055200714 $470 -19.495728904380204 $381 $471 forward 7 unknown #
coedge $-1 $260 $259 $388 $472 reversed $99 $-1 #
edge $-1 $473 -4.72070819993692e-015 $385 13.402607451711987 $379 $474 forward 7 unknown #
vertex $-1 $262 $475 #
straight-curve $-1 -16.247515157615013 -12.89742202310536 9.6114946442786913 -1 0 0 I I #
coedge $-1 $468 $263 $266 $392 reversed $377 $-1 #
coedge $-1 $263 $468 $383 $472 forward $377 $-1 #
vertex $-1 $264 $476 #
straight-curve $-1 -26.785657531694635 -23.012498173925866 36.072991734494416 0 0 1 I I #
straight-curve $-1 -26.785657531694635 -23.012498173925863 0.81859290663895479 0 -0.75470957328743171 -0.6560590369687036 I I #
edge $-1 $470 -38.204403098765411 $267 -26.785657531694635 $387 $477 forward 7 unknown #
point $-1 -26.785657531694635 -23.012498173925866 9.6114946442786913 #
point $-1 -26.785657531694635 -12.897422023105356 9.6114946442786913 #
edge $-1 $478 1 $478 0 $270 $-1 forward 7 unknown #
vertex $-1 $271 $479 #
ellipse-curve $-1 -34.941904365316617 -16.906250719007367 4.0086416626731225 0 -0.6560590369687036 0.75470957328743171 1 0 0 1 I I #
point $-1 -33.941904365316617 -17.954960098515613 5.215043775458823 #
edge $-1 $480 1 $480 0 $274 $-1 forward 7 unknown #
vertex $-1 $275 $481 #
ellipse-curve $-1 -30.048156265143426 -16.906250719007367 4.0086416626731225 0 -0.6560590369687036 0.75470957328743171 1 0 0 1 I I #
point $-1 -29.048156265143426 -17.954960098515613 5.215043775458823 #
plane-surface $-1 47.254860072634052 0 0 -1 0 0 0 0 1 forward_v I I I I #
coedge $-1 $283 $281 $285 $408 reversed $181 $-1 #
edge $-1 $296 -9.6114946442786913 $410 9.6114946442786913 $295 $482 forward 7 unknown #
vertex $-1 $408 $483 #
straight-curve $-1 -47.254860072634052 -23.012498173925866 0 0 0 -1 I I #
edge $-1 $406 -23.012498173925866 $410 23.012498173925866 $404 $484 forward 7 unknown #
straight-curve $-1 0 -23.012498173925866 -9.6114946442786913 -1 0 0 I I #
vertex $-1 $288 $485 #
straight-curve $-1 0 23.012498173925866 -9.6114946442786913 1 0 0 I I #
point $-1 47.254860072634052 23.012498173925866 -9.6114946442786913 #
point $-1 47.254860072634052 -23.012498173925866 -9.6114946442786913 #
straight-curve $-1 -47.254860072634052 0 9.6114946442786913 0 -1 0 I I #
point $-1 -47.254860072634052 23.012498173925866 9.6114946442786913 #
point $-1 -47.254860072634052 -23.012498173925866 9.6114946442786913 #
straight-curve $-1 47.254860072634052 -23.012498173925866 0 0 0 -1 I I #
straight-curve $-1 47.254860072634052 23.012498173925866 0 0 0 -1 I I #
plane-surface $-1 0 23.012498173925866 0 0 -1 0 0 0 -1 forward_v I I I I #
coedge $-1 $309 $308 $486 $487 forward $121 $-1 #
edge $-1 $312 38.204403098765404 $488 47.254860072634052 $311 $489 forward 7 unknown #
coedge $-1 $317 $316 $309 $423 reversed $318 $-1 #
edge $-1 $490 -47.254860072634052 $424 -38.204403098765404 $422 $491 forward 7 unknown #
vertex $-1 $324 $492 #
straight-curve $-1 -38.204403098765404 0 -9.6114946442786913 0 -1 0 I I #
point $-1 -38.204403098765404 -23.012498173925866 -9.6114946442786913 #
coedge $-1 $486 $314 $317 $430 forward $306 $-1 #
coedge $-1 $314 $486 $321 $432 reversed $306 $-1 #
straight-curve $-1 -47.254860072634052 0 -6.2491874904498719 0 1 0 I I #
edge $-1 $319 6.2491874904498719 $490 9.6114946442786913 $317 $493 forward 7 unknown #
point $-1 -47.254860072634052 23.012498173925866 -6.2491874904498719 #
edge $-1 $322 6.2491874904498719 $488 9.6114946442786913 $428 $494 forward 7 unknown #
point $-1 -47.254860072634052 -23.012498173925866 -6.2491874904498719 #
straight-curve $-1 -38.204403098765404 23.012498173925866 -3.9651705336821408 0 0 -1 I I #
loop $-1 $-1 $341 $327 #
plane-surface $-1 47.254860072634052 0 0 -1 0 0 0 0 1 forward_v I I I I #
coedge $-1 $336 $346 $331 $440 forward $328 $-1 #
coedge $-1 $343 $334 $330 $439 forward $216 $-1 #
edge $-1 $339 18.579490179525695 $443 25.310076655247475 $438 $495 forward 7 unknown #
edge $-1 $444 -25.310076655247475 $338 -18.579490179525695 $437 $496 forward 7 unknown #
coedge $-1 $341 $332 $346 $453 reversed $435 $-1 #
coedge $-1 $332 $341 $343 $451 reversed $435 $-1 #
vertex $-1 $451 $497 #
vertex $-1 $333 $498 #
straight-curve $-1 47.254860072634052 -3.789508885368484 0 0 0 1 I I #
straight-curve $-1 40.52427359691228 -2.644754442684242 -9.6114946442786913 0 1 0 I I #
straight-curve $-1 40.52427359691228 -2.644754442684242 9.6114946442786913 0 -1 0 I I #
point $-1 40.52427359691228 -3.789508885368484 9.6114946442786913 #
point $-1 40.52427359691228 -3.789508885368484 -9.6114946442786913 #
straight-curve $-1 47.254860072634052 -6.789508885368484 0 0 0 -1 I I #
edge $-1 $443 3.789508885368484 $344 6.789508885368484 $442 $499 forward 7 unknown #
point $-1 47.25486007263406 -6.789508885368484 -9.6114946442786913 #
edge $-1 $347 -6.789508885368484 $444 -3.789508885368484 $441 $500 forward 7 unknown #
point $-1 47.25486007263406 -6.789508885368484 9.6114946442786913 #
edge $-1 $456 41.559054480445575 $459 50.351956218085306 $352 $501 forward 7 unknown #
vertex $-1 $366 $502 #
straight-curve $-1 -26.785657531694635 25.140474401184683 9.611494644278693 0 1 0 I I #
edge $-1 $459 10.538142374079623 $363 21.956887941150399 $362 $503 forward 7 unknown #
vertex $-1 $458 $504 #
straight-curve $-1 -26.785657531694635 -11.723007180316912 31.013707687098659 0 -0.75470957328743171 0.6560590369687036 I I #
point $-1 -26.785657531694635 12.89742202310536 9.611494644278693 #
point $-1 -38.204403098765411 23.012498173925863 0.81859290663895834 #
straight-curve $-1 0 23.012498173925866 9.6114946442786913 -1 0 0 I I #
vertex $-1 $369 $505 #
point $-1 -33.941904365316617 16.906250719007367 4.0086416626731243 #
vertex $-1 $373 $506 #
point $-1 -29.048156265143426 16.906250719007367 4.0086416626731243 #
coedge $-1 $388 $387 $380 $469 forward $377 $-1 #
edge $-1 $470 26.461497090215722 $473 35.254398827855461 $468 $507 forward 7 unknown #
vertex $-1 $392 $508 #
straight-curve $-1 -38.204403098765411 -42.508227078306071 9.611494644278693 0 -1 0 I I #
edge $-1 $473 -21.956887941150399 $389 -10.538142374079623 $388 $509 forward 7 unknown #
vertex $-1 $472 $510 #
straight-curve $-1 -38.204403098765411 -23.012498173925863 0.81859290663895479 0 0.75470957328743171 0.6560590369687036 I I #
point $-1 -38.204403098765411 -12.897422023105356 9.6114946442786913 #
point $-1 -26.785657531694635 -23.012498173925866 0.81859290663895168 #
straight-curve $-1 0 -23.012498173925866 9.6114946442786913 1 0 0 I I #
vertex $-1 $395 $511 #
point $-1 -33.941904365316617 -16.906250719007367 4.0086416626731225 #
vertex $-1 $399 $512 #
point $-1 -29.048156265143426 -16.906250719007367 4.0086416626731225 #
straight-curve $-1 -47.254860072634052 23.012498173925866 0 0 0 -1 I I #
point $-1 -47.254860072634052 -23.012498173925866 -9.6114946442786913 #
straight-curve $-1 -47.254860072634052 0 -9.6114946442786913 0 1 0 I I #
point $-1 -47.254860072634052 23.012498173925866 -9.6114946442786913 #
coedge $-1 $428 $427 $420 $487 reversed $306 $-1 #
edge $-1 $488 -23.012498173925866 $490 23.012498173925866 $486 $513 forward 7 unknown #
vertex $-1 $487 $514 #
straight-curve $-1 0 -23.012498173925866 -9.6114946442786913 -1 0 0 I I #
vertex $-1 $423 $515 #
straight-curve $-1 0 23.012498173925866 -9.6114946442786913 1 0 0 I I #
point $-1 -38.204403098765404 23.012498173925866 -9.6114946442786913 #
straight-curve $-1 -47.254860072634052 23.012498173925866 0 0 0 -1 I I #
straight-curve $-1 -47.254860072634052 -23.012498173925866 0 0 0 -1 I I #
straight-curve $-1 21.944783417386585 -3.789508885368484 -9.6114946442786913 1 0 0 I I #
straight-curve $-1 21.944783417386585 -3.789508885368484 9.6114946442786913 -1 0 0 I I #
point $-1 47.25486007263406 -3.789508885368484 -9.6114946442786913 #
point $-1 47.25486007263406 -3.789508885368484 9.6114946442786913 #
straight-curve $-1 47.254860072634052 0 -9.6114946442786913 0 -1 0 I I #
straight-curve $-1 47.254860072634052 0 9.6114946442786913 0 1 0 I I #
straight-curve $-1 -26.785657531694635 23.012498173925866 51.170549124724268 0 0 -1 I I #
point $-1 -26.785657531694635 23.012498173925866 9.6114946442786913 #
straight-curve $-1 -16.247515157615013 23.012498173925866 0.81859290663895656 -1 0 0 I I #
point $-1 -26.785657531694635 23.012498173925863 0.81859290663895834 #
point $-1 -34.941904365316617 16.250191682038661 3.253932089385692 #
point $-1 -30.048156265143426 16.250191682038661 3.253932089385692 #
straight-curve $-1 -38.204403098765411 -23.012498173925866 36.072991734494416 0 0 -1 I I #
point $-1 -38.204403098765411 -23.012498173925866 9.6114946442786913 #
straight-curve $-1 -16.247515157615013 -23.012498173925866 0.81859290663894957 1 0 0 I I #
point $-1 -38.204403098765411 -23.012498173925866 0.81859290663895168 #
point $-1 -34.941904365316617 -16.250191682038661 3.2539320893856902 #
point $-1 -30.048156265143426 -16.250191682038661 3.2539320893856902 #
straight-curve $-1 -47.254860072634052 0 -9.6114946442786913 0 1 0 I I #
point $-1 -47.254860072634052 -23.012498173925866 -9.6114946442786913 #
point $-1 -47.254860072634052 23.012498173925866 -9.6114946442786913 #
End-of-ACIS-data 