500 0 10 0           
7 Unknown 11 ACIS 5.0 NT 24 Fri Mar 26 19:10:21 1999 
-1 9.9999999999999995e-007 1e-010 
body $-1 $10 $-1 $11 #
body $-1 $12 $-1 $13 #
body $-1 $14 $-1 $15 #
body $-1 $16 $-1 $17 #
body $-1 $18 $-1 $19 #
body $-1 $20 $-1 $21 #
body $-1 $22 $-1 $23 #
body $-1 $24 $-1 $25 #
body $-1 $26 $-1 $27 #
body $-1 $28 $-1 $29 #
lump $-1 $-1 $30 $0 #
transform $-1 1 0 0 0 1 0 0 0 1 57.941221350749231 23.84171536827149 8.0805857781876842 1 rotate no_reflect no_shear #
lump $-1 $-1 $31 $1 #
transform $-1 1 0 0 0 1 0 0 0 1 57.941221350749231 23.84171536827149 8.0805857781876842 1 rotate no_reflect no_shear #
lump $-1 $-1 $32 $2 #
transform $-1 1 0 0 0 1 0 0 0 1 57.941221350749231 23.84171536827149 8.0805857781876842 1 rotate no_reflect no_shear #
lump $-1 $-1 $33 $3 #
transform $-1 1 0 0 0 1 0 0 0 1 57.941221350749231 23.84171536827149 8.0805857781876842 1 rotate no_reflect no_shear #
lump $-1 $-1 $34 $4 #
transform $-1 1 0 0 0 1 0 0 0 1 57.941221350749231 23.84171536827149 8.0805857781876842 1 rotate no_reflect no_shear #
lump $-1 $-1 $35 $5 #
transform $-1 1 0 0 0 1 0 0 0 1 57.941221350749231 23.84171536827149 8.0805857781876842 1 rotate no_reflect no_shear #
lump $-1 $-1 $36 $6 #
transform $-1 1 0 0 0 1 0 0 0 1 57.941221350749231 23.84171536827149 8.0805857781876842 1 rotate no_reflect no_shear #
lump $-1 $-1 $37 $7 #
transform $-1 1 0 0 0 1 0 0 0 1 57.941221350749231 23.84171536827149 8.0805857781876842 1 rotate no_reflect no_shear #
lump $-1 $-1 $38 $8 #
transform $-1 1 0 0 0 1 0 0 0 1 57.941221350749231 23.84171536827149 8.0805857781876842 1 rotate no_reflect no_shear #
lump $-1 $-1 $39 $9 #
transform $-1 1 0 0 0 1 0 0 0 1 57.941221350749231 23.84171536827149 8.0805857781876842 1 rotate no_reflect no_shear #
shell $-1 $-1 $-1 $40 $-1 $10 #
shell $-1 $-1 $-1 $41 $-1 $12 #
shell $-1 $-1 $-1 $42 $-1 $14 #
shell $-1 $-1 $-1 $43 $-1 $16 #
shell $-1 $-1 $-1 $44 $-1 $18 #
shell $-1 $-1 $-1 $45 $-1 $20 #
shell $-1 $-1 $-1 $46 $-1 $22 #
shell $-1 $-1 $-1 $47 $-1 $24 #
shell $-1 $-1 $-1 $48 $-1 $26 #
shell $-1 $-1 $-1 $49 $-1 $28 #
face $-1 $50 $51 $30 $-1 $52 forward single #
face $-1 $53 $54 $31 $-1 $55 reversed single #
face $-1 $56 $57 $32 $-1 $58 forward single #
face $-1 $59 $60 $33 $-1 $61 forward single #
face $-1 $62 $63 $34 $-1 $64 reversed single #
face $-1 $65 $66 $35 $-1 $67 forward single #
face $-1 $68 $69 $36 $-1 $70 forward single #
face $-1 $71 $72 $37 $-1 $73 reversed single #
face $-1 $74 $75 $38 $-1 $76 forward single #
face $-1 $77 $78 $39 $-1 $79 forward single #
face $-1 $80 $81 $30 $-1 $82 reversed single #
loop $-1 $-1 $83 $40 #
plane-surface $-1 0 0 8.0805857781876842 0 0 1 1 0 0 forward_v I I I I #
face $-1 $84 $85 $31 $-1 $86 reversed single #
loop $-1 $-1 $87 $41 #
plane-surface $-1 55.081078825846902 0 167.60857773089666 0 -1 0 -0.69465837861970381 0 -0.71933979245794832 forward_v I I I I #
face $-1 $88 $89 $32 $-1 $90 forward single #
loop $-1 $91 $92 $42 #
cone-surface $-1 54.481383010792833 -6.7279464334591097 4.6543820876234818 -0.69465837861970381 0 -0.71933979245794832 0.71933979245794832 0 -0.69465837861970381 1 I I 0 1 1 forward I I I I #
face $-1 $93 $94 $33 $-1 $95 forward single #
loop $-1 $96 $97 $43 #
cone-surface $-1 54.481383010792833 -2.6911785733836417 4.6543820876234818 -0.69465837861970381 0 -0.71933979245794832 0.71933979245794832 0 -0.69465837861970381 1 I I 0 1 1 forward I I I I #
face $-1 $98 $99 $34 $-1 $100 reversed single #
loop $-1 $-1 $101 $44 #
plane-surface $-1 55.081078825846902 14.422590361428739 167.60857773089666 0 1 0 0.69465837861970381 0 0.71933979245794832 forward_v I I I I #
face $-1 $102 $103 $35 $-1 $104 forward single #
loop $-1 $105 $106 $45 #
cone-surface $-1 54.481383010792833 17.113768934812381 4.6543820876234818 -0.69465837861970381 0 -0.71933979245794832 0.71933979245794832 0 -0.69465837861970381 1 I I 0 1 1 forward I I I I #
face $-1 $107 $108 $36 $-1 $109 forward single #
loop $-1 $110 $111 $46 #
cone-surface $-1 54.481383010792833 21.150536794887845 4.6543820876234818 -0.69465837861970381 0 -0.71933979245794832 0.71933979245794832 0 -0.69465837861970381 1 I I 0 1 1 forward I I I I #
face $-1 $112 $113 $37 $-1 $114 reversed single #
loop $-1 $-1 $115 $47 #
plane-surface $-1 -157.27186286788486 -11.999753380379602 64.708015578502767 0 1 0 -0.85716730853699208 0 0.51503806187062418 forward_v I I I I #
face $-1 $116 $117 $38 $-1 $118 forward single #
loop $-1 $119 $120 $48 #
cone-surface $-1 -56.594390845337884 -10.276560458980647 6.2948473005032 0.85716730853699208 0 -0.51503806187062418 0.25751903093531209 0 0.42858365426849604 1 I I 0 1 0.5 forward I I I I #
face $-1 $121 $122 $39 $-1 $123 forward single #
loop $-1 $124 $125 $49 #
cone-surface $-1 -56.594390845337884 -7.6917710768822154 6.2948473005032 0.85716730853699208 0 -0.51503806187062418 0.25751903093531209 0 0.42858365426849604 1 I I 0 1 0.5 forward I I I I #
face $-1 $126 $127 $30 $-1 $128 reversed single #
loop $-1 $-1 $129 $50 #
plane-surface $-1 0 0 -8.0805857781876842 0 0 1 1 0 0 forward_v I I I I #
coedge $-1 $130 $131 $132 $133 forward $51 $-1 #
face $-1 $134 $135 $31 $-1 $136 reversed single #
loop $-1 $-1 $137 $53 #
plane-surface $-1 -25.41763093166675 -4.7095625034213775 84.24972544848066 0.69465837861970381 0 0.71933979245794832 0.71933979245794832 0 -0.69465837861970381 forward_v I I I I #
coedge $-1 $138 $139 $140 $141 reversed $54 $-1 #
face $-1 $-1 $142 $32 $-1 $143 forward single #
loop $-1 $144 $145 $56 #
cone-surface $-1 52.915915966131593 -6.7279464334591097 3.033293544440637 -0.69465837861970381 0 -0.71933979245794832 0.35966989622897416 0 -0.3473291893098519 1 I I -0.70710678118654746 0.70710678118654746 0.5 forward I I I I #
loop $-1 $-1 $146 $42 #
coedge $-1 $92 $92 $147 $148 reversed $57 $-1 #
face $-1 $-1 $149 $33 $-1 $150 forward single #
loop $-1 $151 $152 $59 #
cone-surface $-1 52.915915966131593 -2.6911785733836417 3.033293544440637 -0.69465837861970381 0 -0.71933979245794832 0.35966989622897416 0 -0.3473291893098519 1 I I -0.70710678118654746 0.70710678118654746 0.5 forward I I I I #
loop $-1 $-1 $153 $43 #
coedge $-1 $97 $97 $154 $155 reversed $60 $-1 #
face $-1 $156 $157 $34 $-1 $158 reversed single #
loop $-1 $-1 $159 $62 #
plane-surface $-1 -25.41763093166675 19.132152864850116 84.24972544848066 0.69465837861970381 0 0.71933979245794832 0.71933979245794832 0 -0.69465837861970381 forward_v I I I I #
coedge $-1 $160 $161 $162 $163 reversed $63 $-1 #
face $-1 $-1 $164 $35 $-1 $165 forward single #
loop $-1 $166 $167 $65 #
cone-surface $-1 52.915915966131593 17.113768934812381 3.033293544440637 -0.69465837861970381 0 -0.71933979245794832 0.35966989622897416 0 -0.3473291893098519 1 I I -0.70710678118654746 0.70710678118654746 0.5 forward I I I I #
loop $-1 $-1 $168 $45 #
coedge $-1 $106 $106 $169 $170 reversed $66 $-1 #
face $-1 $-1 $171 $36 $-1 $172 forward single #
loop $-1 $173 $174 $68 #
cone-surface $-1 52.915915966131593 21.150536794887845 3.033293544440637 -0.69465837861970381 0 -0.71933979245794832 0.35966989622897416 0 -0.3473291893098519 1 I I -0.70710678118654746 0.70710678118654746 0.5 forward I I I I #
loop $-1 $-1 $175 $46 #
coedge $-1 $111 $111 $176 $177 reversed $69 $-1 #
face $-1 $178 $179 $37 $-1 $180 reversed single #
loop $-1 $-1 $181 $71 #
plane-surface $-1 -57.941221350749231 -8.9841657679314313 5.024146884689344 -0.85716730853699208 0 0.51503806187062418 0.51503806187062418 0 0.85716730853699208 forward_v I I I I #
coedge $-1 $182 $183 $184 $185 reversed $72 $-1 #
face $-1 $-1 $186 $38 $-1 $187 forward single #
loop $-1 $188 $189 $74 #
cone-surface $-1 -55.951515363935137 -10.276560458980647 5.9085687541002319 0.85716730853699208 0 -0.51503806187062418 0.12875951546765604 0 0.21429182713424802 1 I I -0.70710678118654746 0.70710678118654746 0.25 forward I I I I #
loop $-1 $-1 $190 $48 #
coedge $-1 $120 $120 $191 $192 reversed $75 $-1 #
face $-1 $-1 $193 $39 $-1 $194 forward single #
loop $-1 $195 $196 $77 #
cone-surface $-1 -55.951515363935137 -7.6917710768822154 5.9085687541002319 0.85716730853699208 0 -0.51503806187062418 0.12875951546765604 0 0.21429182713424802 1 I I -0.70710678118654746 0.70710678118654746 0.25 forward I I I I #
loop $-1 $-1 $197 $49 #
coedge $-1 $125 $125 $198 $199 reversed $78 $-1 #
face $-1 $200 $201 $30 $-1 $202 reversed single #
loop $-1 $-1 $203 $80 #
plane-surface $-1 0 -23.84171536827149 0 0 1 0 0 0 1 forward_v I I I I #
coedge $-1 $204 $205 $206 $207 forward $81 $-1 #
coedge $-1 $208 $83 $209 $210 forward $51 $-1 #
coedge $-1 $83 $208 $211 $212 forward $51 $-1 #
coedge $-1 $213 $214 $83 $133 reversed $215 $-1 #
edge $-1 $216 -23.84171536827149 $217 23.84171536827149 $132 $218 forward 7 unknown #
face $-1 $219 $220 $31 $-1 $221 forward single #
loop $-1 $-1 $222 $84 #
plane-surface $-1 55.081078825846902 -9.419125006842755 167.60857773089666 0 1 0 0.69465837861970381 0 0.71933979245794832 forward_v I I I I #
coedge $-1 $223 $224 $225 $226 reversed $85 $-1 #
coedge $-1 $139 $87 $227 $228 reversed $54 $-1 #
coedge $-1 $87 $138 $223 $229 reversed $54 $-1 #
coedge $-1 $225 $230 $87 $141 forward $220 $-1 #
edge $-1 $231 -30.40068193782578 $232 -25.917280968615742 $140 $233 forward 7 unknown #
loop $-1 $-1 $147 $88 #
plane-surface $-1 -25.41763093166675 -4.7095625034213775 84.24972544848066 0.69465837861970381 0 0.71933979245794832 0.71933979245794832 0 -0.69465837861970381 forward_v I I I I #
loop $-1 $-1 $234 $56 #
coedge $-1 $145 $145 $146 $235 reversed $89 $-1 #
coedge $-1 $146 $146 $145 $235 forward $91 $-1 #
coedge $-1 $147 $147 $92 $148 forward $142 $-1 #
edge $-1 $236 0 $236 6.2831853071796004 $147 $237 forward 7 unknown #
loop $-1 $-1 $154 $93 #
plane-surface $-1 -25.41763093166675 -4.7095625034213775 84.24972544848066 0.69465837861970381 0 0.71933979245794832 0.71933979245794832 0 -0.69465837861970381 forward_v I I I I #
loop $-1 $-1 $238 $59 #
coedge $-1 $152 $152 $153 $239 reversed $94 $-1 #
coedge $-1 $153 $153 $152 $239 forward $96 $-1 #
coedge $-1 $154 $154 $97 $155 forward $149 $-1 #
edge $-1 $240 0 $240 6.2831853071796004 $154 $241 forward 7 unknown #
face $-1 $242 $243 $34 $-1 $244 forward single #
loop $-1 $-1 $162 $98 #
plane-surface $-1 57.941221350749231 0 0 -1 0 0 0 0 1 forward_v I I I I #
coedge $-1 $245 $246 $247 $248 reversed $99 $-1 #
coedge $-1 $161 $101 $249 $250 reversed $63 $-1 #
coedge $-1 $101 $160 $245 $251 reversed $63 $-1 #
coedge $-1 $247 $252 $101 $163 forward $157 $-1 #
edge $-1 $253 75.723703087260645 $254 80.053273174481305 $162 $255 forward 7 unknown #
loop $-1 $-1 $169 $102 #
plane-surface $-1 -25.41763093166675 19.132152864850116 84.24972544848066 0.69465837861970381 0 0.71933979245794832 0.71933979245794832 0 -0.69465837861970381 forward_v I I I I #
loop $-1 $-1 $256 $65 #
coedge $-1 $167 $167 $168 $257 reversed $103 $-1 #
coedge $-1 $168 $168 $167 $257 forward $105 $-1 #
coedge $-1 $169 $169 $106 $170 forward $164 $-1 #
edge $-1 $258 0 $258 6.2831853071796004 $169 $259 forward 7 unknown #
loop $-1 $-1 $176 $107 #
plane-surface $-1 -25.41763093166675 19.132152864850116 84.24972544848066 0.69465837861970381 0 0.71933979245794832 0.71933979245794832 0 -0.69465837861970381 forward_v I I I I #
loop $-1 $-1 $260 $68 #
coedge $-1 $174 $174 $175 $261 reversed $108 $-1 #
coedge $-1 $175 $175 $174 $261 forward $110 $-1 #
coedge $-1 $176 $176 $111 $177 forward $171 $-1 #
edge $-1 $262 0 $262 6.2831853071796004 $176 $263 forward 7 unknown #
face $-1 $264 $265 $37 $-1 $266 reversed single #
loop $-1 $-1 $267 $112 #
plane-surface $-1 -157.27186286788486 -5.9685781554832609 64.708015578502767 0 -1 0 0.85716730853699208 0 -0.51503806187062418 forward_v I I I I #
coedge $-1 $268 $269 $270 $271 reversed $113 $-1 #
coedge $-1 $183 $115 $272 $273 reversed $72 $-1 #
coedge $-1 $115 $182 $268 $274 reversed $72 $-1 #
coedge $-1 $270 $275 $115 $185 forward $276 $-1 #
edge $-1 $277 20.6947100831932 $278 22.531203785478915 $184 $279 forward 7 unknown #
loop $-1 $-1 $191 $116 #
plane-surface $-1 -57.941221350749231 -8.9841657679314313 5.024146884689344 -0.85716730853699208 0 0.51503806187062418 0.51503806187062418 0 0.85716730853699208 forward_v I I I I #
loop $-1 $-1 $280 $74 #
coedge $-1 $189 $189 $190 $281 reversed $117 $-1 #
coedge $-1 $190 $190 $189 $281 forward $119 $-1 #
coedge $-1 $191 $191 $120 $192 forward $186 $-1 #
edge $-1 $282 0 $282 6.2831853071796004 $191 $283 forward 7 unknown #
loop $-1 $-1 $198 $121 #
plane-surface $-1 -57.941221350749231 -8.9841657679314313 5.024146884689344 -0.85716730853699208 0 0.51503806187062418 0.51503806187062418 0 0.85716730853699208 forward_v I I I I #
loop $-1 $-1 $284 $77 #
coedge $-1 $196 $196 $197 $285 reversed $122 $-1 #
coedge $-1 $197 $197 $196 $285 forward $124 $-1 #
coedge $-1 $198 $198 $125 $199 forward $193 $-1 #
edge $-1 $286 0 $286 6.2831853071796004 $198 $287 forward 7 unknown #
face $-1 $288 $289 $30 $-1 $290 reversed single #
loop $-1 $-1 $291 $126 #
plane-surface $-1 -57.941221350749231 0 0 1 0 0 0 0 -1 forward_v I I I I #
coedge $-1 $292 $211 $293 $294 forward $127 $-1 #
coedge $-1 $295 $129 $292 $296 forward $81 $-1 #
coedge $-1 $129 $295 $297 $298 forward $81 $-1 #
coedge $-1 $214 $213 $129 $207 reversed $215 $-1 #
edge $-1 $299 -23.84171536827149 $300 23.84171536827149 $206 $301 forward 7 unknown #
coedge $-1 $131 $130 $302 $303 forward $51 $-1 #
coedge $-1 $304 $305 $130 $210 reversed $289 $-1 #
edge $-1 $217 -57.941221350749231 $306 57.941221350749231 $209 $307 forward 7 unknown #
coedge $-1 $203 $308 $131 $212 reversed $127 $-1 #
edge $-1 $309 -57.941221350749231 $216 57.941221350749231 $211 $310 forward 7 unknown #
coedge $-1 $206 $132 $308 $311 forward $215 $-1 #
coedge $-1 $132 $206 $304 $312 reversed $215 $-1 #
loop $-1 $-1 $213 $288 #
vertex $-1 $133 $313 #
vertex $-1 $133 $314 #
straight-curve $-1 57.941221350749231 0 8.0805857781876842 0 1 0 I I #
face $-1 $-1 $315 $31 $-1 $316 reversed single #
loop $-1 $-1 $140 $134 #
plane-surface $-1 0 0 8.0805857781876842 0 0 1 1 0 0 forward_v I I I I #
coedge $-1 $317 $318 $319 $320 reversed $135 $-1 #
coedge $-1 $321 $137 $139 $229 forward $85 $-1 #
coedge $-1 $137 $321 $317 $322 forward $85 $-1 #
coedge $-1 $319 $140 $137 $226 forward $220 $-1 #
edge $-1 $232 -2.3547812517106887 $323 7.0643437551320662 $225 $324 forward 7 unknown #
coedge $-1 $325 $326 $138 $228 forward $315 $-1 #
edge $-1 $327 -80.053273174481305 $231 -75.723703087260645 $227 $328 forward 7 unknown #
edge $-1 $232 109.64978184189205 $327 115.88244270149843 $139 $329 forward 7 unknown #
coedge $-1 $140 $319 $325 $330 forward $220 $-1 #
vertex $-1 $228 $331 #
vertex $-1 $141 $332 #
straight-curve $-1 27.540539412923451 0 8.0805857781876824 -1 0 0 I I #
coedge $-1 $234 $234 $-1 $333 reversed $144 $-1 #
edge $-1 $334 0 $334 6.2831853071796004 $145 $335 forward 7 unknown #
vertex $-1 $148 $336 #
ellipse-curve $-1 55.699520866144212 -6.7279464334591097 5.9158007345773473 0.69465837861970381 0 0.71933979245794832 0.71933979245794832 0 -0.69465837861970381 1 I I #
coedge $-1 $238 $238 $-1 $337 reversed $151 $-1 #
edge $-1 $338 0 $338 6.2831853071796004 $152 $339 forward 7 unknown #
vertex $-1 $155 $340 #
ellipse-curve $-1 55.699520866144212 -2.6911785733836417 5.9158007345773473 0.69465837861970381 0 0.71933979245794832 0.71933979245794832 0 -0.69465837861970381 1 I I #
face $-1 $-1 $341 $34 $-1 $342 reversed single #
loop $-1 $-1 $249 $156 #
plane-surface $-1 0 0 8.0805857781876842 0 0 1 1 0 0 forward_v I I I I #
coedge $-1 $343 $159 $161 $251 forward $99 $-1 #
coedge $-1 $159 $343 $344 $345 reversed $99 $-1 #
coedge $-1 $346 $162 $159 $248 forward $157 $-1 #
edge $-1 $254 4.8565139290036807 $347 14.275638935846432 $247 $348 forward 7 unknown #
coedge $-1 $349 $350 $160 $250 forward $243 $-1 #
edge $-1 $351 25.917280968615742 $253 30.40068193782578 $249 $352 forward 7 unknown #
edge $-1 $254 -115.88244270149843 $351 -109.64978184189205 $161 $353 forward 7 unknown #
coedge $-1 $162 $346 $349 $354 reversed $157 $-1 #
vertex $-1 $354 $355 #
vertex $-1 $163 $356 #
straight-curve $-1 57.941221350749231 14.422590361428739 83.804288865448328 0 0 -1 I I #
coedge $-1 $256 $256 $-1 $357 reversed $166 $-1 #
edge $-1 $358 0 $358 6.2831853071796004 $167 $359 forward 7 unknown #
vertex $-1 $170 $360 #
ellipse-curve $-1 55.699520866144212 17.113768934812381 5.9158007345773473 0.69465837861970381 0 0.71933979245794832 0.71933979245794832 0 -0.69465837861970381 1 I I #
coedge $-1 $260 $260 $-1 $361 reversed $173 $-1 #
edge $-1 $362 0 $362 6.2831853071796004 $174 $363 forward 7 unknown #
vertex $-1 $177 $364 #
ellipse-curve $-1 55.699520866144212 21.150536794887845 5.9158007345773473 0.69465837861970381 0 0.71933979245794832 0.71933979245794832 0 -0.69465837861970381 1 I I #
face $-1 $-1 $276 $37 $-1 $365 forward single #
loop $-1 $-1 $366 $178 #
plane-surface $-1 -57.941221350749231 0 0 1 0 0 0 0 -1 forward_v I I I I #
coedge $-1 $367 $368 $369 $370 reversed $179 $-1 #
coedge $-1 $371 $181 $183 $274 forward $113 $-1 #
coedge $-1 $181 $371 $367 $372 forward $113 $-1 #
coedge $-1 $369 $184 $181 $271 forward $276 $-1 #
edge $-1 $278 -7.5076704964138861 $373 -1.4764952715175452 $270 $374 forward 7 unknown #
coedge $-1 $375 $376 $182 $273 forward $265 $-1 #
edge $-1 $377 -27.32986090456204 $277 -24.273422011063701 $272 $378 forward 7 unknown #
edge $-1 $278 -3.5657436571105969 $377 0 $183 $379 forward 7 unknown #
coedge $-1 $184 $369 $375 $380 forward $276 $-1 #
loop $-1 $-1 $369 $264 #
vertex $-1 $273 $381 #
vertex $-1 $185 $382 #
straight-curve $-1 -78.635931433942432 -11.999753380379602 8.0805857781876824 1 0 0 I I #
coedge $-1 $280 $280 $-1 $383 reversed $188 $-1 #
edge $-1 $384 0 $384 6.2831853071796004 $189 $385 forward 7 unknown #
vertex $-1 $192 $386 #
ellipse-curve $-1 -57.022974499606377 -10.276560458980647 6.5523663314385105 -0.85716730853699208 0 0.51503806187062418 0.25751903093531209 0 0.42858365426849604 1 I I #
coedge $-1 $284 $284 $-1 $387 reversed $195 $-1 #
edge $-1 $388 0 $388 6.2831853071796004 $196 $389 forward 7 unknown #
vertex $-1 $199 $390 #
ellipse-curve $-1 -57.022974499606377 -7.6917710768822154 6.5523663314385105 -0.85716730853699208 0 0.51503806187062418 0.25751903093531209 0 0.42858365426849604 1 I I #
face $-1 $-1 $215 $30 $-1 $391 reversed single #
loop $-1 $-1 $304 $200 #
plane-surface $-1 0 23.84171536827149 0 0 -1 0 0 0 -1 forward_v I I I I #
coedge $-1 $392 $302 $305 $393 forward $201 $-1 #
coedge $-1 $308 $203 $204 $296 reversed $127 $-1 #
coedge $-1 $302 $392 $203 $294 reversed $201 $-1 #
edge $-1 $309 -8.0805857781876842 $394 8.0805857781876842 $293 $395 forward 7 unknown #
coedge $-1 $205 $204 $392 $396 forward $81 $-1 #
edge $-1 $300 -57.941221350749231 $394 57.941221350749231 $292 $397 forward 7 unknown #
coedge $-1 $305 $304 $205 $298 reversed $289 $-1 #
edge $-1 $398 -57.941221350749231 $299 57.941221350749231 $297 $399 forward 7 unknown #
vertex $-1 $207 $400 #
vertex $-1 $311 $401 #
straight-curve $-1 57.941221350749231 0 -8.0805857781876842 0 -1 0 I I #
coedge $-1 $291 $293 $208 $303 reversed $201 $-1 #
edge $-1 $306 -23.84171536827149 $309 23.84171536827149 $302 $402 forward 7 unknown #
coedge $-1 $297 $209 $214 $312 forward $289 $-1 #
coedge $-1 $209 $297 $291 $393 reversed $289 $-1 #
vertex $-1 $210 $403 #
straight-curve $-1 0 23.84171536827149 8.0805857781876842 -1 0 0 I I #
coedge $-1 $211 $292 $213 $311 reversed $127 $-1 #
vertex $-1 $303 $404 #
straight-curve $-1 0 -23.84171536827149 8.0805857781876842 1 0 0 I I #
edge $-1 $216 -8.0805857781876842 $300 8.0805857781876842 $213 $405 forward 7 unknown #
edge $-1 $217 -8.0805857781876842 $299 8.0805857781876842 $214 $406 forward 7 unknown #
point $-1 57.941221350749231 -23.84171536827149 8.0805857781876842 #
point $-1 57.941221350749231 23.84171536827149 8.0805857781876842 #
loop $-1 $-1 $227 $219 #
plane-surface $-1 57.941221350749231 0 0 -1 0 0 0 0 1 forward_v I I I I #
coedge $-1 $318 $222 $224 $322 reversed $135 $-1 #
coedge $-1 $222 $317 $407 $408 reversed $135 $-1 #
coedge $-1 $230 $225 $222 $320 forward $220 $-1 #
edge $-1 $323 25.917280968615742 $409 30.40068193782578 $319 $410 forward 7 unknown #
coedge $-1 $224 $223 $326 $411 reversed $85 $-1 #
edge $-1 $412 -115.88244270149843 $323 -109.64978184189205 $317 $413 forward 7 unknown #
vertex $-1 $226 $414 #
straight-curve $-1 53.457820381539186 -2.3547812517106887 8.0805857781876824 0 -1 0 I I #
coedge $-1 $407 $227 $230 $330 reversed $315 $-1 #
coedge $-1 $227 $407 $321 $411 forward $315 $-1 #
vertex $-1 $228 $415 #
straight-curve $-1 57.941221350749231 0 83.804288865448328 0 0 1 I I #
straight-curve $-1 -25.41763093166675 0 84.24972544848066 0.71933979245794832 0 -0.69465837861970381 I I #
edge $-1 $409 -9.419125006842755 $231 0 $325 $416 forward 7 unknown #
point $-1 57.941221350749231 0 8.0805857781876842 #
point $-1 53.457820381539193 0 8.0805857781876824 #
edge $-1 $417 1 $417 0 $234 $-1 forward 7 unknown #
vertex $-1 $235 $418 #
ellipse-curve $-1 53.263245155441446 -6.7279464334591097 3.392963440669611 0.69465837861970381 0 0.71933979245794832 0.71933979245794832 0 -0.69465837861970381 1 I I #
point $-1 56.418860658602163 -6.7279464334591097 5.2211423559576486 #
edge $-1 $419 1 $419 0 $238 $-1 forward 7 unknown #
vertex $-1 $239 $420 #
ellipse-curve $-1 53.263245155441446 -2.6911785733836417 3.392963440669611 0.69465837861970381 0 0.71933979245794832 0.71933979245794832 0 -0.69465837861970381 1 I I #
point $-1 56.418860658602163 -2.6911785733836417 5.2211423559576486 #
loop $-1 $-1 $344 $242 #
plane-surface $-1 0 23.84171536827149 0 0 -1 0 0 0 -1 forward_v I I I I #
coedge $-1 $246 $245 $350 $421 reversed $99 $-1 #
coedge $-1 $422 $423 $246 $345 forward $341 $-1 #
edge $-1 $347 -77.478097182321108 $424 -71.24543632271471 $344 $425 forward 7 unknown #
coedge $-1 $252 $247 $423 $426 reversed $157 $-1 #
vertex $-1 $248 $427 #
straight-curve $-1 57.941221350749231 9.5660764324250582 3.7510156909670229 0 1 0 I I #
coedge $-1 $428 $249 $252 $354 forward $243 $-1 #
coedge $-1 $249 $428 $343 $421 forward $243 $-1 #
vertex $-1 $250 $429 #
straight-curve $-1 27.540539412923451 14.422590361428739 8.0805857781876824 1 0 0 I I #
straight-curve $-1 -25.41763093166675 14.422590361428739 84.24972544848066 -0.71933979245794832 0 0.69465837861970381 I I #
edge $-1 $253 14.422590361428739 $430 23.84171536827149 $252 $431 forward 7 unknown #
point $-1 57.941221350749231 14.422590361428739 8.0805857781876842 #
point $-1 57.941221350749231 14.422590361428739 3.7510156909670229 #
edge $-1 $432 1 $432 0 $256 $-1 forward 7 unknown #
vertex $-1 $257 $433 #
ellipse-curve $-1 53.263245155441446 17.113768934812381 3.392963440669611 0.69465837861970381 0 0.71933979245794832 0.71933979245794832 0 -0.69465837861970381 1 I I #
point $-1 56.418860658602163 17.113768934812381 5.2211423559576486 #
edge $-1 $434 1 $434 0 $260 $-1 forward 7 unknown #
vertex $-1 $261 $435 #
ellipse-curve $-1 53.263245155441446 21.150536794887845 3.392963440669611 0.69465837861970381 0 0.71933979245794832 0.71933979245794832 0 -0.69465837861970381 1 I I #
point $-1 56.418860658602163 21.150536794887845 5.2211423559576486 #
plane-surface $-1 0 0 8.0805857781876842 0 0 1 1 0 0 forward_v I I I I #
coedge $-1 $376 $375 $368 $436 forward $265 $-1 #
coedge $-1 $368 $267 $269 $372 reversed $179 $-1 #
coedge $-1 $267 $367 $366 $436 reversed $179 $-1 #
coedge $-1 $275 $270 $267 $370 forward $276 $-1 #
edge $-1 $373 -22.531203785478915 $437 -20.6947100831932 $369 $438 forward 7 unknown #
coedge $-1 $269 $268 $376 $439 reversed $113 $-1 #
edge $-1 $440 0 $373 3.5657436571105969 $367 $441 forward 7 unknown #
vertex $-1 $271 $442 #
straight-curve $-1 -56.104727648463509 -4.4920828839657156 8.0805857781876842 0 1 0 I I #
coedge $-1 $366 $272 $275 $380 reversed $265 $-1 #
coedge $-1 $272 $366 $371 $439 forward $265 $-1 #
vertex $-1 $273 $443 #
straight-curve $-1 -57.941221350749231 -11.999753380379602 32.354007789251384 0 0 1 I I #
straight-curve $-1 -57.941221350749231 -11.999753380379602 5.024146884689344 -0.51503806187062418 0 -0.85716730853699208 I I #
edge $-1 $437 5.9685781554832609 $277 11.999753380379602 $375 $444 forward 7 unknown #
point $-1 -57.941221350749231 -11.999753380379602 8.0805857781876842 #
point $-1 -56.104727648463516 -11.999753380379602 8.0805857781876842 #
edge $-1 $445 1 $445 0 $280 $-1 forward 7 unknown #
vertex $-1 $281 $446 #
ellipse-curve $-1 -56.165807191069383 -10.276560458980647 6.0373282695678876 -0.85716730853699208 0 0.51503806187062418 0.25751903093531209 0 0.42858365426849604 1 I I #
point $-1 -56.765455468671064 -10.276560458980647 6.9809499857070083 #
edge $-1 $447 1 $447 0 $284 $-1 forward 7 unknown #
vertex $-1 $285 $448 #
ellipse-curve $-1 -56.165807191069383 -7.6917710768822154 6.0373282695678876 -0.85716730853699208 0 0.51503806187062418 0.25751903093531209 0 0.42858365426849604 1 I I #
point $-1 -56.765455468671064 -7.6917710768822154 6.9809499857070083 #
plane-surface $-1 57.941221350749231 0 0 -1 0 0 0 0 1 forward_v I I I I #
coedge $-1 $293 $291 $295 $396 reversed $201 $-1 #
edge $-1 $306 -8.0805857781876842 $398 8.0805857781876842 $305 $449 forward 7 unknown #
vertex $-1 $396 $450 #
straight-curve $-1 -57.941221350749231 -23.84171536827149 0 0 0 -1 I I #
edge $-1 $394 -23.84171536827149 $398 23.84171536827149 $392 $451 forward 7 unknown #
straight-curve $-1 0 -23.84171536827149 -8.0805857781876842 -1 0 0 I I #
vertex $-1 $298 $452 #
straight-curve $-1 0 23.84171536827149 -8.0805857781876842 1 0 0 I I #
point $-1 57.941221350749231 23.84171536827149 -8.0805857781876842 #
point $-1 57.941221350749231 -23.84171536827149 -8.0805857781876842 #
straight-curve $-1 -57.941221350749231 0 8.0805857781876842 0 -1 0 I I #
point $-1 -57.941221350749231 23.84171536827149 8.0805857781876842 #
point $-1 -57.941221350749231 -23.84171536827149 8.0805857781876842 #
straight-curve $-1 57.941221350749231 -23.84171536827149 0 0 0 -1 I I #
straight-curve $-1 57.941221350749231 23.84171536827149 0 0 0 -1 I I #
coedge $-1 $326 $325 $318 $408 forward $315 $-1 #
edge $-1 $409 75.723703087260645 $412 80.053273174481305 $407 $453 forward 7 unknown #
vertex $-1 $330 $454 #
straight-curve $-1 27.540539412923451 -9.419125006842755 8.0805857781876824 1 0 0 I I #
edge $-1 $412 -7.0643437551320662 $327 2.3547812517106887 $326 $455 forward 7 unknown #
vertex $-1 $411 $456 #
straight-curve $-1 -25.41763093166675 -9.419125006842755 84.24972544848066 -0.71933979245794832 0 0.69465837861970381 I I #
point $-1 53.457820381539193 -9.419125006842755 8.0805857781876824 #
point $-1 57.941221350749231 0 3.7510156909670229 #
straight-curve $-1 57.941221350749231 0 8.0805857781876842 0 1 0 I I #
vertex $-1 $333 $457 #
point $-1 53.98258494789939 -6.7279464334591097 2.6983050620499074 #
vertex $-1 $337 $458 #
point $-1 53.98258494789939 -2.6911785733836417 2.6983050620499074 #
edge $-1 $424 -14.275638935846436 $351 -4.8565139290036807 $350 $459 forward 7 unknown #
coedge $-1 $423 $344 $428 $460 reversed $341 $-1 #
coedge $-1 $344 $422 $346 $426 forward $341 $-1 #
vertex $-1 $345 $461 #
straight-curve $-1 2.2081430035816076 23.84171536827149 57.571825058178042 -0.71933979245794832 0 0.69465837861970381 I I #
edge $-1 $430 -8.0805857781876842 $347 -3.751015690967014 $346 $462 forward 7 unknown #
point $-1 57.941221350749231 23.84171536827149 3.751015690967014 #
coedge $-1 $350 $349 $422 $460 forward $243 $-1 #
point $-1 53.457820381539193 14.422590361428739 8.0805857781876824 #
vertex $-1 $354 $463 #
straight-curve $-1 57.941221350749231 0 8.0805857781876842 0 1 0 I I #
vertex $-1 $357 $464 #
point $-1 53.98258494789939 17.113768934812381 2.6983050620499074 #
vertex $-1 $361 $465 #
point $-1 53.98258494789939 21.150536794887845 2.6983050620499074 #
edge $-1 $437 24.273422011063701 $440 27.32986090456204 $366 $466 forward 7 unknown #
vertex $-1 $380 $467 #
straight-curve $-1 -78.635931433942432 -5.9685781554832609 8.0805857781876824 -1 0 0 I I #
edge $-1 $440 1.4764952715175452 $377 7.5076704964138861 $376 $468 forward 7 unknown #
vertex $-1 $439 $469 #
straight-curve $-1 -57.941221350749231 -5.9685781554832609 5.024146884689344 0.51503806187062418 0 0.85716730853699208 I I #
point $-1 -56.104727648463516 -5.9685781554832609 8.0805857781876842 #
point $-1 -57.941221350749231 -11.999753380379602 5.024146884689344 #
straight-curve $-1 -57.941221350749231 0 8.0805857781876842 0 -1 0 I I #
vertex $-1 $383 $470 #
point $-1 -55.90828816013407 -10.276560458980647 6.4659119238363836 #
vertex $-1 $387 $471 #
point $-1 -55.90828816013407 -7.6917710768822154 6.4659119238363836 #
straight-curve $-1 -57.941221350749231 23.84171536827149 0 0 0 -1 I I #
point $-1 -57.941221350749231 -23.84171536827149 -8.0805857781876842 #
straight-curve $-1 -57.941221350749231 0 -8.0805857781876842 0 1 0 I I #
point $-1 -57.941221350749231 23.84171536827149 -8.0805857781876842 #
straight-curve $-1 57.941221350749231 -9.419125006842755 83.804288865448328 0 0 -1 I I #
point $-1 57.941221350749231 -9.419125006842755 8.0805857781876842 #
straight-curve $-1 57.941221350749231 -2.3547812517106887 3.7510156909670229 0 1 0 I I #
point $-1 57.941221350749231 -9.419125006842755 3.7510156909670229 #
point $-1 52.568586776821739 -6.7279464334591097 2.6736236482116631 #
point $-1 52.568586776821739 -2.6911785733836417 2.6736236482116631 #
straight-curve $-1 53.457820381539186 9.5660764324250582 8.0805857781876824 0 -1 0 I I #
edge $-1 $430 -57.941221350749231 $424 -53.457820381539193 $422 $472 forward 7 unknown #
point $-1 53.457820381539193 23.841715368271494 8.0805857781876824 #
straight-curve $-1 57.941221350749231 23.84171536827149 0 0 0 -1 I I #
point $-1 57.941221350749231 23.84171536827149 8.0805857781876842 #
point $-1 52.568586776821739 17.113768934812381 2.6736236482116631 #
point $-1 52.568586776821739 21.150536794887845 2.6736236482116631 #
straight-curve $-1 -57.941221350749231 -5.9685781554832609 32.354007789251384 0 0 -1 I I #
point $-1 -57.941221350749231 -5.9685781554832609 8.0805857781876842 #
straight-curve $-1 -57.941221350749231 -4.4920828839657156 5.0241468846893405 0 -1 0 I I #
point $-1 -57.941221350749231 -5.9685781554832609 5.024146884689344 #
point $-1 -55.73722353680089 -10.276560458980647 5.7798092386325761 #
point $-1 -55.73722353680089 -7.6917710768822154 5.7798092386325761 #
straight-curve $-1 0 23.84171536827149 8.0805857781876842 -1 0 0 I I #
End-of-ACIS-data 