500 0 5 0           
7 Unknown 11 ACIS 5.0 NT 24 Thu Mar 25 19:58:10 1999 
-1 9.9999999999999995e-007 1e-010 
body $-1 $5 $-1 $6 #
body $-1 $7 $-1 $8 #
body $-1 $9 $-1 $10 #
body $-1 $11 $-1 $12 #
body $-1 $13 $-1 $14 #
lump $-1 $-1 $15 $0 #
transform $-1 1 0 0 0 1 0 0 0 1 70.520950956755271 43.068851654597729 13.338896671845276 1 rotate no_reflect no_shear #
lump $-1 $-1 $16 $1 #
transform $-1 1 0 0 0 1 0 0 0 1 70.520950956755271 43.068851654597729 13.338896671845276 1 rotate no_reflect no_shear #
lump $-1 $-1 $17 $2 #
transform $-1 1 0 0 0 1 0 0 0 1 70.520950956755271 43.068851654597729 13.338896671845276 1 rotate no_reflect no_shear #
lump $-1 $-1 $18 $3 #
transform $-1 1 0 0 0 1 0 0 0 1 70.520950956755271 43.068851654597729 13.338896671845276 1 rotate no_reflect no_shear #
lump $-1 $-1 $19 $4 #
transform $-1 1 0 0 0 1 0 0 0 1 70.520950956755271 43.068851654597729 13.338896671845276 1 rotate no_reflect no_shear #
shell $-1 $-1 $-1 $20 $-1 $5 #
shell $-1 $-1 $-1 $21 $-1 $7 #
shell $-1 $-1 $-1 $22 $-1 $9 #
shell $-1 $-1 $-1 $23 $-1 $11 #
shell $-1 $-1 $-1 $24 $-1 $13 #
face $-1 $25 $26 $15 $-1 $27 forward single #
face $-1 $28 $29 $16 $-1 $30 reversed single #
face $-1 $31 $32 $17 $-1 $33 forward single #
face $-1 $34 $35 $18 $-1 $36 reversed single #
face $-1 $37 $38 $19 $-1 $39 reversed single #
face $-1 $40 $41 $15 $-1 $42 reversed single #
loop $-1 $-1 $43 $20 #
plane-surface $-1 0 0 13.338896671845276 0 0 1 1 0 0 forward_v I I I I #
face $-1 $44 $45 $16 $-1 $46 forward single #
loop $-1 $-1 $47 $21 #
plane-surface $-1 -64.691913766562308 0 -7.4445755417352117 0 0 1 1 0 0 forward_v I I I I #
face $-1 $48 $49 $17 $-1 $50 forward single #
loop $-1 $-1 $51 $22 #
plane-surface $-1 67.039837407094822 -29.909895953592461 206.79015110618022 0 -1 0 -0.69465837861970381 0 -0.71933979245794832 forward_v I I I I #
face $-1 $52 $53 $18 $-1 $54 reversed single #
loop $-1 $55 $56 $23 #
cone-surface $-1 66.755943817333488 -39.309150025739079 9.656426261793456 -0.69465837861970381 0 -0.71933979245794832 0.71933979245794832 0 -0.69465837861970381 1 I I 0 1 1 forward I I I I #
face $-1 $57 $58 $19 $-1 $59 reversed single #
loop $-1 $60 $61 $24 #
cone-surface $-1 66.755943817333488 -33.669597582451104 9.656426261793456 -0.69465837861970381 0 -0.71933979245794832 0.71933979245794832 0 -0.69465837861970381 1 I I 0 1 1 forward I I I I #
face $-1 $62 $63 $15 $-1 $64 reversed single #
loop $-1 $-1 $65 $25 #
plane-surface $-1 0 0 -13.338896671845276 0 0 1 1 0 0 forward_v I I I I #
coedge $-1 $66 $67 $68 $69 forward $26 $-1 #
face $-1 $70 $71 $16 $-1 $72 reversed single #
loop $-1 $-1 $73 $28 #
plane-surface $-1 -58.862876576369352 0 -10.391736106790244 -1 0 0 0 0 1 forward_v I I I I #
coedge $-1 $74 $75 $76 $77 reversed $29 $-1 #
face $-1 $78 $79 $17 $-1 $80 reversed single #
loop $-1 $-1 $81 $31 #
plane-surface $-1 -30.936101493583706 -36.489373804095095 105.33309865584124 0.69465837861970381 0 0.71933979245794832 0.71933979245794832 0 -0.69465837861970381 forward_v I I I I #
coedge $-1 $82 $83 $84 $85 reversed $32 $-1 #
face $-1 $86 $87 $18 $-1 $88 forward single #
loop $-1 $89 $90 $34 #
cone-surface $-1 65.740742371459234 -39.309150025739079 8.6051544138539526 -0.69465837861970381 0 -0.71933979245794832 0.35966989622897416 0 -0.3473291893098519 1 I I -0.70710678118654746 0.70710678118654746 0.5 forward I I I I #
loop $-1 $-1 $91 $23 #
coedge $-1 $56 $56 $92 $93 reversed $35 $-1 #
face $-1 $94 $95 $19 $-1 $96 reversed single #
loop $-1 $97 $98 $37 #
cone-surface $-1 65.740742371459234 -33.669597582451104 8.6051544138539526 -0.69465837861970381 0 -0.71933979245794832 0.35966989622897416 0 -0.3473291893098519 1 I I -0.70710678118654746 0.70710678118654746 0.5 forward I I I I #
loop $-1 $-1 $99 $24 #
coedge $-1 $61 $61 $100 $101 reversed $38 $-1 #
face $-1 $102 $103 $15 $-1 $104 reversed single #
loop $-1 $-1 $105 $40 #
plane-surface $-1 0 -43.068851654597729 0 0 1 0 0 0 1 forward_v I I I I #
coedge $-1 $106 $107 $108 $109 forward $41 $-1 #
coedge $-1 $110 $43 $111 $112 forward $26 $-1 #
coedge $-1 $43 $110 $113 $114 forward $26 $-1 #
coedge $-1 $115 $116 $43 $69 reversed $117 $-1 #
edge $-1 $118 -43.068851654597729 $119 43.068851654597729 $68 $120 forward 7 unknown #
face $-1 $121 $122 $16 $-1 $123 reversed single #
loop $-1 $-1 $124 $44 #
plane-surface $-1 -70.520950956755271 0 0 1 0 0 0 0 -1 forward_v I I I I #
coedge $-1 $76 $125 $126 $127 reversed $45 $-1 #
coedge $-1 $128 $47 $129 $130 reversed $29 $-1 #
coedge $-1 $47 $128 $131 $132 reversed $29 $-1 #
coedge $-1 $133 $73 $47 $77 forward $45 $-1 #
edge $-1 $134 -43.068851654597729 $135 43.068851654597729 $76 $136 forward 7 unknown #
face $-1 $137 $138 $17 $-1 $139 reversed single #
loop $-1 $-1 $140 $48 #
plane-surface $-1 70.520950956755271 0 0 -1 0 0 0 0 1 forward_v I I I I #
coedge $-1 $141 $142 $143 $144 reversed $49 $-1 #
coedge $-1 $83 $51 $142 $145 forward $32 $-1 #
coedge $-1 $51 $82 $140 $146 reversed $32 $-1 #
coedge $-1 $147 $143 $51 $85 forward $148 $-1 #
edge $-1 $149 30.806762487493081 $150 37.00103225320786 $84 $151 forward 7 unknown #
face $-1 $152 $153 $18 $-1 $154 forward single #
loop $-1 $-1 $155 $52 #
plane-surface $-1 67.039837407094822 -29.909895953592461 206.79015110618022 0 -1 0 -0.69465837861970381 0 -0.71933979245794832 forward_v I I I I #
loop $-1 $-1 $156 $34 #
coedge $-1 $90 $90 $91 $157 forward $53 $-1 #
coedge $-1 $91 $91 $90 $157 reversed $55 $-1 #
coedge $-1 $92 $92 $56 $93 forward $153 $-1 #
edge $-1 $158 0 $158 6.2831853071796004 $92 $159 forward 7 unknown #
face $-1 $160 $161 $19 $-1 $162 reversed single #
loop $-1 $163 $164 $57 #
cone-surface $-1 66.755943817333488 -39.309150025739079 9.656426261793456 -0.69465837861970381 0 -0.71933979245794832 0.71933979245794832 0 -0.69465837861970381 1 I I 0 1 1 forward I I I I #
loop $-1 $-1 $165 $37 #
coedge $-1 $98 $98 $99 $166 forward $58 $-1 #
coedge $-1 $99 $99 $98 $166 reversed $60 $-1 #
coedge $-1 $100 $100 $61 $101 forward $167 $-1 #
edge $-1 $168 0 $168 6.2831853071796004 $100 $169 forward 7 unknown #
face $-1 $170 $171 $15 $-1 $172 reversed single #
loop $-1 $-1 $173 $62 #
plane-surface $-1 -70.520950956755271 0 0 1 0 0 0 0 -1 forward_v I I I I #
coedge $-1 $174 $113 $175 $176 forward $63 $-1 #
coedge $-1 $177 $65 $174 $178 forward $41 $-1 #
coedge $-1 $65 $177 $179 $180 forward $41 $-1 #
coedge $-1 $116 $115 $65 $109 reversed $117 $-1 #
edge $-1 $181 -43.068851654597729 $182 43.068851654597729 $108 $183 forward 7 unknown #
coedge $-1 $67 $66 $184 $185 forward $26 $-1 #
coedge $-1 $186 $187 $66 $112 reversed $171 $-1 #
edge $-1 $119 -70.520950956755271 $188 70.520950956755271 $111 $189 forward 7 unknown #
coedge $-1 $105 $190 $67 $114 reversed $63 $-1 #
edge $-1 $191 -70.520950956755271 $118 70.520950956755271 $113 $192 forward 7 unknown #
coedge $-1 $108 $68 $190 $193 forward $117 $-1 #
coedge $-1 $68 $108 $186 $194 reversed $117 $-1 #
loop $-1 $-1 $115 $170 #
vertex $-1 $69 $195 #
vertex $-1 $69 $196 #
straight-curve $-1 70.520950956755271 0 13.338896671845276 0 1 0 I I #
face $-1 $197 $198 $16 $-1 $199 forward single #
loop $-1 $-1 $129 $70 #
plane-surface $-1 0 -43.068851654597729 0 0 1 0 0 0 1 forward_v I I I I #
coedge $-1 $200 $201 $128 $202 forward $71 $-1 #
coedge $-1 $73 $133 $203 $204 reversed $45 $-1 #
coedge $-1 $205 $129 $73 $127 forward $122 $-1 #
edge $-1 $134 2.2487074883400897 $206 8.1430286184501544 $126 $207 forward 7 unknown #
coedge $-1 $75 $74 $124 $202 reversed $29 $-1 #
coedge $-1 $126 $208 $74 $130 forward $122 $-1 #
edge $-1 $209 -38.174994073474117 $134 -26.516919693088198 $129 $210 forward 7 unknown #
coedge $-1 $211 $212 $75 $132 forward $213 $-1 #
edge $-1 $135 26.516919693088198 $214 38.174994073474117 $131 $215 forward 7 unknown #
coedge $-1 $125 $76 $212 $216 reversed $45 $-1 #
vertex $-1 $130 $217 #
vertex $-1 $132 $218 #
straight-curve $-1 -58.862876576369352 0 -7.4445755417352117 0 1 0 I I #
face $-1 $219 $220 $17 $-1 $221 forward single #
loop $-1 $-1 $222 $78 #
plane-surface $-1 -64.691913766562308 0 -7.4445755417352117 0 0 1 1 0 0 forward_v I I I I #
coedge $-1 $223 $224 $83 $146 forward $79 $-1 #
coedge $-1 $225 $81 $226 $227 reversed $49 $-1 #
coedge $-1 $81 $225 $82 $145 reversed $49 $-1 #
coedge $-1 $84 $228 $81 $144 forward $148 $-1 #
edge $-1 $229 -24.824164752550182 $149 -11.665209051544913 $143 $230 forward 7 unknown #
edge $-1 $149 132.43085351794036 $231 141.04190191351051 $82 $232 forward 7 unknown #
edge $-1 $150 90.056178881244833 $231 96.037915797927397 $140 $233 forward 7 unknown #
coedge $-1 $234 $84 $224 $235 forward $148 $-1 #
loop $-1 $-1 $84 $236 #
vertex $-1 $144 $237 #
vertex $-1 $235 $238 #
straight-curve $-1 33.519918703547411 -29.909895953592461 13.338896671845276 1 0 0 I I #
face $-1 $239 $240 $18 $-1 $241 reversed single #
loop $-1 $242 $92 $86 #
plane-surface $-1 -30.936101493583706 -36.489373804095095 105.33309865584124 0.69465837861970381 0 0.71933979245794832 0.71933979245794832 0 -0.69465837861970381 forward_v I I I I #
coedge $-1 $243 $244 $245 $246 reversed $87 $-1 #
coedge $-1 $156 $156 $-1 $247 forward $89 $-1 #
edge $-1 $248 0 $248 6.2831853071796004 $90 $249 forward 7 unknown #
vertex $-1 $93 $250 #
ellipse-curve $-1 67.423816073897882 -39.309150025739079 10.348028213503978 -0.69465837861970381 0 -0.71933979245794832 0.71933979245794832 0 -0.69465837861970381 1 I I #
face $-1 $251 $252 $19 $-1 $253 forward single #
loop $-1 $254 $255 $94 #
cone-surface $-1 65.740742371459234 -39.309150025739079 8.6051544138539526 -0.69465837861970381 0 -0.71933979245794832 0.35966989622897416 0 -0.3473291893098519 1 I I -0.70710678118654746 0.70710678118654746 0.5 forward I I I I #
loop $-1 $-1 $256 $57 #
coedge $-1 $164 $164 $257 $258 reversed $95 $-1 #
coedge $-1 $165 $165 $-1 $259 forward $97 $-1 #
edge $-1 $260 0 $260 6.2831853071796004 $98 $261 forward 7 unknown #
loop $-1 $262 $100 $251 #
vertex $-1 $101 $263 #
ellipse-curve $-1 67.423816073897882 -33.669597582451104 10.348028213503978 -0.69465837861970381 0 -0.71933979245794832 0.71933979245794832 0 -0.69465837861970381 1 I I #
face $-1 $-1 $117 $15 $-1 $264 reversed single #
loop $-1 $-1 $186 $102 #
plane-surface $-1 0 43.068851654597729 0 0 -1 0 0 0 -1 forward_v I I I I #
coedge $-1 $265 $184 $187 $266 forward $103 $-1 #
coedge $-1 $190 $105 $106 $178 reversed $63 $-1 #
coedge $-1 $184 $265 $105 $176 reversed $103 $-1 #
edge $-1 $191 -13.338896671845276 $267 13.338896671845276 $175 $268 forward 7 unknown #
coedge $-1 $107 $106 $265 $269 forward $41 $-1 #
edge $-1 $182 -70.520950956755271 $267 70.520950956755271 $174 $270 forward 7 unknown #
coedge $-1 $187 $186 $107 $180 reversed $171 $-1 #
edge $-1 $271 -70.520950956755271 $181 70.520950956755271 $179 $272 forward 7 unknown #
vertex $-1 $109 $273 #
vertex $-1 $193 $274 #
straight-curve $-1 70.520950956755271 0 -13.338896671845276 0 -1 0 I I #
coedge $-1 $173 $175 $110 $185 reversed $103 $-1 #
edge $-1 $188 -43.068851654597729 $191 43.068851654597729 $184 $275 forward 7 unknown #
coedge $-1 $179 $111 $116 $194 forward $171 $-1 #
coedge $-1 $111 $179 $173 $266 reversed $171 $-1 #
vertex $-1 $112 $276 #
straight-curve $-1 0 43.068851654597729 13.338896671845276 -1 0 0 I I #
coedge $-1 $113 $174 $115 $193 reversed $63 $-1 #
vertex $-1 $185 $277 #
straight-curve $-1 0 -43.068851654597729 13.338896671845276 1 0 0 I I #
edge $-1 $118 -13.338896671845276 $182 13.338896671845276 $115 $278 forward 7 unknown #
edge $-1 $119 -13.338896671845276 $181 13.338896671845276 $116 $279 forward 7 unknown #
point $-1 70.520950956755271 -43.068851654597729 13.338896671845276 #
point $-1 70.520950956755271 43.068851654597729 13.338896671845276 #
face $-1 $280 $281 $16 $-1 $282 reversed single #
loop $-1 $-1 $283 $121 #
plane-surface $-1 0 0 13.338896671845276 0 0 1 1 0 0 forward_v I I I I #
coedge $-1 $284 $124 $208 $285 reversed $71 $-1 #
coedge $-1 $124 $284 $211 $286 forward $71 $-1 #
edge $-1 $214 -43.068851654597729 $209 43.068851654597729 $124 $287 forward 7 unknown #
coedge $-1 $288 $289 $125 $204 forward $281 $-1 #
edge $-1 $206 -43.068851654597729 $290 43.068851654597729 $203 $291 forward 7 unknown #
coedge $-1 $292 $126 $289 $293 reversed $122 $-1 #
vertex $-1 $127 $294 #
straight-curve $-1 -58.862876576369352 -43.068851654597729 -5.195868053395122 0 0 -1 I I #
coedge $-1 $129 $295 $200 $285 forward $122 $-1 #
vertex $-1 $130 $296 #
straight-curve $-1 -32.345956883281154 -43.068851654597729 -7.4445755417352117 1 0 0 I I #
coedge $-1 $297 $131 $201 $286 reversed $213 $-1 #
coedge $-1 $131 $298 $133 $216 forward $213 $-1 #
loop $-1 $-1 $131 $280 #
vertex $-1 $202 $299 #
straight-curve $-1 -32.345956883281154 43.068851654597729 -7.4445755417352117 -1 0 0 I I #
edge $-1 $290 -8.1430286184501544 $135 -2.2487074883400897 $212 $300 forward 7 unknown #
point $-1 -58.862876576369352 -43.068851654597729 -7.4445755417352117 #
point $-1 -58.862876576369352 43.068851654597729 -7.4445755417352117 #
face $-1 $301 $302 $17 $-1 $303 reversed single #
loop $-1 $-1 $304 $137 #
plane-surface $-1 -58.862876576369352 0 -10.391736106790244 -1 0 0 0 0 1 forward_v I I I I #
coedge $-1 $305 $306 $307 $308 reversed $138 $-1 #
coedge $-1 $309 $140 $225 $310 forward $79 $-1 #
coedge $-1 $140 $311 $147 $235 reversed $79 $-1 #
coedge $-1 $142 $141 $223 $310 reversed $49 $-1 #
coedge $-1 $312 $313 $141 $227 forward $314 $-1 #
edge $-1 $315 -93.329857735956281 $229 -84.718809340386116 $226 $316 forward 7 unknown #
coedge $-1 $143 $317 $312 $318 forward $148 $-1 #
vertex $-1 $227 $319 #
straight-curve $-1 64.326681191040464 -18.244686902047548 13.338896671845283 0 1 0 I I #
vertex $-1 $310 $320 #
straight-curve $-1 -30.936101493583706 -29.909895953592461 105.33309865584124 0.71933979245794832 0 -0.69465837861970381 I I #
straight-curve $-1 70.520950956755271 -29.909895953592461 103.39507555309011 0 0 -1 I I #
coedge $-1 $317 $147 $321 $322 forward $148 $-1 #
edge $-1 $150 -29.909895953592461 $323 43.068851654597729 $224 $324 forward 7 unknown #
face $-1 $325 $148 $17 $-1 $326 forward single #
point $-1 64.326681191040493 -29.909895953592461 13.338896671845276 #
point $-1 70.520950956755271 -29.909895953592461 13.338896671845276 #
face $-1 $327 $328 $18 $-1 $329 reversed single #
loop $-1 $-1 $330 $152 #
plane-surface $-1 70.520950956755271 0 0 -1 0 0 0 0 1 forward_v I I I I #
loop $-1 $-1 $331 $86 #
coedge $-1 $244 $155 $332 $333 forward $87 $-1 #
coedge $-1 $155 $243 $330 $334 reversed $87 $-1 #
coedge $-1 $335 $336 $155 $246 forward $337 $-1 #
edge $-1 $338 30.806762487493081 $339 37.00103225320786 $245 $340 forward 7 unknown #
edge $-1 $341 1 $341 0 $156 $-1 forward 7 unknown #
vertex $-1 $157 $342 #
ellipse-curve $-1 66.08807156076908 -39.309150025739079 8.9648243100829266 0.69465837861970381 0 0.71933979245794832 0.71933979245794832 0 -0.69465837861970381 1 I I #
point $-1 68.143155866355841 -39.309150025739079 9.653369834884284 #
face $-1 $343 $167 $19 $-1 $344 forward single #
loop $-1 $-1 $345 $160 #
plane-surface $-1 67.039837407094822 -29.909895953592461 206.79015110618022 0 -1 0 -0.69465837861970381 0 -0.71933979245794832 forward_v I I I I #
loop $-1 $-1 $346 $94 #
coedge $-1 $255 $255 $256 $347 forward $161 $-1 #
coedge $-1 $256 $256 $255 $347 reversed $163 $-1 #
coedge $-1 $257 $257 $164 $258 forward $262 $-1 #
edge $-1 $348 0 $348 6.2831853071796004 $257 $349 forward 7 unknown #
edge $-1 $350 1 $350 0 $165 $-1 forward 7 unknown #
vertex $-1 $166 $351 #
ellipse-curve $-1 66.08807156076908 -33.669597582451104 8.9648243100829266 0.69465837861970381 0 0.71933979245794832 0.71933979245794832 0 -0.69465837861970381 1 I I #
loop $-1 $352 $257 $251 #
point $-1 68.143155866355841 -33.669597582451104 9.653369834884284 #
plane-surface $-1 70.520950956755271 0 0 -1 0 0 0 0 1 forward_v I I I I #
coedge $-1 $175 $173 $177 $269 reversed $103 $-1 #
edge $-1 $188 -13.338896671845276 $271 13.338896671845276 $187 $353 forward 7 unknown #
vertex $-1 $269 $354 #
straight-curve $-1 -70.520950956755271 -43.068851654597729 0 0 0 -1 I I #
edge $-1 $267 -43.068851654597729 $271 43.068851654597729 $265 $355 forward 7 unknown #
straight-curve $-1 0 -43.068851654597729 -13.338896671845276 -1 0 0 I I #
vertex $-1 $180 $356 #
straight-curve $-1 0 43.068851654597729 -13.338896671845276 1 0 0 I I #
point $-1 70.520950956755271 43.068851654597729 -13.338896671845276 #
point $-1 70.520950956755271 -43.068851654597729 -13.338896671845276 #
straight-curve $-1 -70.520950956755271 0 13.338896671845276 0 -1 0 I I #
point $-1 -70.520950956755271 43.068851654597729 13.338896671845276 #
point $-1 -70.520950956755271 -43.068851654597729 13.338896671845276 #
straight-curve $-1 70.520950956755271 -43.068851654597729 0 0 0 -1 I I #
straight-curve $-1 70.520950956755271 43.068851654597729 0 0 0 -1 I I #
face $-1 $357 $213 $16 $-1 $358 reversed single #
loop $-1 $-1 $203 $197 #
plane-surface $-1 0 0 -13.338896671845276 0 0 1 1 0 0 forward_v I I I I #
coedge $-1 $359 $360 $361 $362 forward $198 $-1 #
coedge $-1 $201 $200 $363 $364 reversed $71 $-1 #
edge $-1 $365 -13.338896671845276 $209 7.4445755417352117 $200 $366 forward 7 unknown #
edge $-1 $367 -13.338896671845276 $214 7.4445755417352117 $211 $368 forward 7 unknown #
straight-curve $-1 -70.520950956755271 0 -7.4445755417352117 0 -1 0 I I #
coedge $-1 $369 $203 $298 $370 forward $281 $-1 #
coedge $-1 $203 $369 $205 $293 forward $281 $-1 #
vertex $-1 $370 $371 #
straight-curve $-1 -58.862876576369352 0 -13.338896671845276 0 1 0 I I #
coedge $-1 $295 $205 $372 $373 reversed $122 $-1 #
edge $-1 $374 -70.520950956755271 $206 58.862876576369352 $205 $375 forward 7 unknown #
point $-1 -58.862876576369352 -43.068851654597729 -13.338896671845276 #
coedge $-1 $208 $292 $360 $376 reversed $122 $-1 #
point $-1 -70.520950956755271 -43.068851654597729 -7.4445755417352117 #
coedge $-1 $377 $211 $359 $378 reversed $213 $-1 #
coedge $-1 $212 $377 $288 $370 reversed $213 $-1 #
point $-1 -70.520950956755271 43.068851654597729 -7.4445755417352117 #
straight-curve $-1 -58.862876576369352 43.068851654597729 -5.195868053395122 0 0 1 I I #
face $-1 $236 $314 $17 $-1 $379 reversed single #
loop $-1 $-1 $380 $219 #
plane-surface $-1 -70.520950956755271 0 0 1 0 0 0 0 -1 forward_v I I I I #
coedge $-1 $307 $381 $382 $383 reversed $220 $-1 #
coedge $-1 $384 $222 $385 $386 reversed $138 $-1 #
coedge $-1 $222 $384 $387 $388 reversed $138 $-1 #
coedge $-1 $389 $304 $222 $308 forward $220 $-1 #
edge $-1 $390 -43.068851654597729 $391 43.068851654597729 $307 $392 forward 7 unknown #
coedge $-1 $393 $223 $313 $394 forward $79 $-1 #
edge $-1 $231 11.665209051544913 $315 24.824164752550182 $223 $395 forward 7 unknown #
coedge $-1 $224 $393 $396 $397 reversed $79 $-1 #
coedge $-1 $398 $226 $228 $318 reversed $314 $-1 #
coedge $-1 $226 $399 $309 $394 reversed $314 $-1 #
loop $-1 $-1 $226 $301 #
vertex $-1 $394 $400 #
straight-curve $-1 3.3850704628426307 -43.068851654597729 72.189527406829711 -0.71933979245794832 0 0.69465837861970381 I I #
coedge $-1 $228 $234 $401 $402 forward $148 $-1 #
edge $-1 $403 -70.520950956755271 $229 64.326681191040478 $312 $404 forward 7 unknown #
point $-1 64.326681191040478 -43.068851654597729 13.338896671845276 #
point $-1 70.520950956755271 -29.909895953592461 7.3571597551627121 #
coedge $-1 $396 $405 $234 $322 reversed $406 $-1 #
edge $-1 $323 -70.520950956755271 $407 70.520950956755271 $321 $408 forward 7 unknown #
vertex $-1 $235 $409 #
straight-curve $-1 70.520950956755271 0 13.338896671845276 0 1 0 I I #
face $-1 $410 $411 $17 $-1 $412 reversed single #
plane-surface $-1 0 0 13.338896671845276 0 0 1 1 0 0 forward_v I I I I #
face $-1 $413 $414 $18 $-1 $415 forward single #
loop $-1 $-1 $416 $239 #
plane-surface $-1 -64.691913766562308 0 -7.4445755417352117 0 0 1 1 0 0 forward_v I I I I #
coedge $-1 $417 $418 $244 $334 forward $240 $-1 #
coedge $-1 $419 $332 $336 $420 reversed $242 $-1 #
coedge $-1 $331 $421 $243 $333 reversed $242 $-1 #
edge $-1 $338 132.43085351794036 $422 141.04190191351051 $243 $423 forward 7 unknown #
edge $-1 $339 90.056178881244833 $422 96.037915797927397 $330 $424 forward 7 unknown #
coedge $-1 $425 $245 $418 $426 forward $337 $-1 #
coedge $-1 $245 $427 $331 $420 forward $337 $-1 #
loop $-1 $-1 $245 $428 #
vertex $-1 $420 $429 #
vertex $-1 $426 $430 #
straight-curve $-1 33.519918703547411 -29.909895953592461 13.338896671845276 1 0 0 I I #
vertex $-1 $247 $431 #
point $-1 66.807411353227039 -39.309150025739079 8.2701659314632234 #
face $-1 $432 $433 $19 $-1 $434 reversed single #
plane-surface $-1 -30.936101493583706 -36.489373804095095 105.33309865584124 0.69465837861970381 0 0.71933979245794832 0.71933979245794832 0 -0.69465837861970381 forward_v I I I I #
coedge $-1 $435 $436 $437 $438 reversed $252 $-1 #
coedge $-1 $346 $346 $-1 $439 forward $254 $-1 #
edge $-1 $440 0 $440 6.2831853071796004 $255 $441 forward 7 unknown #
vertex $-1 $258 $442 #
ellipse-curve $-1 67.423816073897882 -39.309150025739079 10.348028213503978 -0.69465837861970381 0 -0.71933979245794832 0.71933979245794832 0 -0.69465837861970381 1 I I #
vertex $-1 $259 $443 #
point $-1 66.807411353227039 -33.669597582451104 8.2701659314632234 #
loop $-1 $-1 $444 $251 #
straight-curve $-1 -70.520950956755271 43.068851654597729 0 0 0 -1 I I #
point $-1 -70.520950956755271 -43.068851654597729 -13.338896671845276 #
straight-curve $-1 -70.520950956755271 0 -13.338896671845276 0 1 0 I I #
point $-1 -70.520950956755271 43.068851654597729 -13.338896671845276 #
face $-1 $-1 $445 $16 $-1 $446 reversed single #
plane-surface $-1 0 43.068851654597729 0 0 -1 0 0 0 -1 forward_v I I I I #
coedge $-1 $363 $283 $297 $378 forward $198 $-1 #
coedge $-1 $283 $363 $295 $376 forward $198 $-1 #
coedge $-1 $372 $447 $283 $362 reversed $445 $-1 #
edge $-1 $448 -43.068851654597729 $449 43.068851654597729 $361 $450 forward 7 unknown #
coedge $-1 $360 $359 $284 $364 forward $198 $-1 #
edge $-1 $367 -43.068851654597729 $365 43.068851654597729 $284 $451 forward 7 unknown #
vertex $-1 $364 $452 #
straight-curve $-1 -70.520950956755271 -43.068851654597729 0 0 0 -1 I I #
vertex $-1 $378 $453 #
straight-curve $-1 -70.520950956755271 43.068851654597729 0 0 0 -1 I I #
coedge $-1 $289 $288 $454 $455 forward $281 $-1 #
edge $-1 $290 -58.862876576369352 $456 70.520950956755271 $298 $457 forward 7 unknown #
point $-1 -58.862876576369352 43.068851654597729 -13.338896671845276 #
coedge $-1 $454 $361 $292 $373 forward $445 $-1 #
edge $-1 $448 -13.338896671845276 $374 13.338896671845276 $372 $458 forward 7 unknown #
vertex $-1 $373 $459 #
straight-curve $-1 0 -43.068851654597729 -13.338896671845276 -1 0 0 I I #
edge $-1 $365 -70.520950956755271 $448 70.520950956755271 $295 $460 forward 7 unknown #
coedge $-1 $298 $297 $447 $461 forward $213 $-1 #
edge $-1 $449 -70.520950956755271 $367 70.520950956755271 $297 $462 forward 7 unknown #
plane-surface $-1 0 -43.068851654597729 0 0 1 0 0 0 1 forward_v I I I I #
coedge $-1 $463 $464 $384 $465 forward $302 $-1 #
coedge $-1 $304 $389 $466 $467 reversed $220 $-1 #
coedge $-1 $399 $385 $304 $383 forward $314 $-1 #
edge $-1 $390 2.2487074883400897 $468 8.1430286184501544 $382 $469 forward 7 unknown #
coedge $-1 $306 $305 $380 $465 reversed $138 $-1 #
coedge $-1 $382 $398 $305 $386 forward $314 $-1 #
edge $-1 $470 -38.174994073474117 $390 -26.516919693088198 $385 $471 forward 7 unknown #
coedge $-1 $405 $472 $306 $388 forward $406 $-1 #
edge $-1 $391 26.516919693088198 $473 38.174994073474117 $387 $474 forward 7 unknown #
coedge $-1 $381 $307 $472 $475 reversed $220 $-1 #
vertex $-1 $386 $476 #
vertex $-1 $388 $477 #
straight-curve $-1 -58.862876576369352 0 -7.4445755417352117 0 1 0 I I #
coedge $-1 $311 $309 $478 $479 reversed $79 $-1 #
edge $-1 $315 -7.357159755162697 $480 13.338896671845276 $309 $481 forward 7 unknown #
straight-curve $-1 70.520950956755257 -18.244686902047548 7.3571597551627121 0 -1 0 I I #
coedge $-1 $482 $321 $311 $397 forward $406 $-1 #
edge $-1 $323 -13.338896671845276 $483 13.338896671845276 $311 $484 forward 7 unknown #
coedge $-1 $385 $312 $463 $485 forward $314 $-1 #
coedge $-1 $313 $382 $486 $487 reversed $314 $-1 #
point $-1 70.520950956755271 -43.068851654597729 7.357159755162697 #
coedge $-1 $464 $463 $317 $402 reversed $302 $-1 #
edge $-1 $407 -43.068851654597729 $403 43.068851654597729 $401 $488 forward 7 unknown #
vertex $-1 $402 $489 #
straight-curve $-1 0 -43.068851654597729 13.338896671845276 1 0 0 I I #
coedge $-1 $321 $387 $464 $490 reversed $406 $-1 #
loop $-1 $-1 $387 $410 #
vertex $-1 $322 $491 #
straight-curve $-1 0 43.068851654597729 13.338896671845276 -1 0 0 I I #
point $-1 70.520950956755271 43.068851654597729 13.338896671845276 #
face $-1 $-1 $406 $17 $-1 $492 reversed single #
loop $-1 $-1 $466 $325 #
plane-surface $-1 0 0 -13.338896671845276 0 0 1 1 0 0 forward_v I I I I #
face $-1 $493 $494 $18 $-1 $495 reversed single #
loop $-1 $-1 $496 $327 #
plane-surface $-1 -58.862876576369352 0 -10.391736106790244 -1 0 0 0 0 1 forward_v I I I I #
coedge $-1 $497 $498 $499 $500 reversed $328 $-1 #
coedge $-1 $501 $330 $421 $502 forward $240 $-1 #
coedge $-1 $330 $503 $335 $426 reversed $240 $-1 #
coedge $-1 $421 $331 $504 $505 reversed $242 $-1 #
edge $-1 $506 -24.824164752550182 $338 -11.665209051544913 $336 $507 forward 7 unknown #
coedge $-1 $332 $419 $417 $502 reversed $242 $-1 #
vertex $-1 $502 $508 #
straight-curve $-1 -30.936101493583706 -29.909895953592461 105.33309865584124 0.71933979245794832 0 -0.69465837861970381 I I #
straight-curve $-1 70.520950956755271 -29.909895953592461 103.39507555309011 0 0 -1 I I #
coedge $-1 $509 $335 $510 $511 forward $337 $-1 #
edge $-1 $339 -29.909895953592461 $512 43.068851654597729 $418 $513 forward 7 unknown #
coedge $-1 $336 $509 $514 $515 forward $337 $-1 #
face $-1 $516 $337 $18 $-1 $517 forward single #
point $-1 64.326681191040493 -29.909895953592461 13.338896671845276 #
point $-1 70.520950956755271 -29.909895953592461 13.338896671845276 #
point $-1 65.393413182149388 -39.309150025739079 8.2454845176249787 #
face $-1 $518 $519 $19 $-1 $520 reversed single #
loop $-1 $-1 $521 $343 #
plane-surface $-1 70.520950956755271 0 0 -1 0 0 0 0 1 forward_v I I I I #
coedge $-1 $436 $345 $522 $523 forward $252 $-1 #
coedge $-1 $345 $435 $521 $524 reversed $252 $-1 #
coedge $-1 $525 $526 $345 $438 forward $527 $-1 #
edge $-1 $528 30.806762487493081 $529 37.00103225320786 $437 $530 forward 7 unknown #
edge $-1 $531 1 $531 0 $346 $-1 forward 7 unknown #
vertex $-1 $347 $532 #
ellipse-curve $-1 66.08807156076908 -39.309150025739079 8.9648243100829266 0.69465837861970381 0 0.71933979245794832 0.71933979245794832 0 -0.69465837861970381 1 I I #
point $-1 68.143155866355841 -39.309150025739079 9.653369834884284 #
point $-1 65.393413182149388 -33.669597582451104 8.2454845176249787 #
coedge $-1 $533 $522 $526 $534 reversed $352 $-1 #
loop $-1 $-1 $372 $357 #
plane-surface $-1 70.520950956755271 0 0 -1 0 0 0 0 1 forward_v I I I I #
coedge $-1 $361 $454 $377 $461 reversed $445 $-1 #
vertex $-1 $362 $535 #
vertex $-1 $362 $536 #
straight-curve $-1 70.520950956755271 0 13.338896671845276 0 1 0 I I #
straight-curve $-1 -70.520950956755271 0 13.338896671845276 0 -1 0 I I #
point $-1 -70.520950956755271 -43.068851654597729 13.338896671845276 #
point $-1 -70.520950956755271 43.068851654597729 13.338896671845276 #
coedge $-1 $447 $372 $369 $455 reversed $445 $-1 #
edge $-1 $456 -43.068851654597729 $374 43.068851654597729 $454 $537 forward 7 unknown #
vertex $-1 $455 $538 #
straight-curve $-1 0 43.068851654597729 -13.338896671845276 1 0 0 I I #
straight-curve $-1 70.520950956755271 -43.068851654597729 0 0 0 -1 I I #
point $-1 70.520950956755271 -43.068851654597729 -13.338896671845276 #
straight-curve $-1 0 -43.068851654597729 13.338896671845276 1 0 0 I I #
edge $-1 $449 -13.338896671845276 $456 13.338896671845276 $447 $539 forward 7 unknown #
straight-curve $-1 0 43.068851654597729 13.338896671845276 -1 0 0 I I #
coedge $-1 $401 $380 $398 $485 reversed $302 $-1 #
coedge $-1 $380 $401 $405 $490 forward $302 $-1 #
edge $-1 $473 -43.068851654597729 $470 43.068851654597729 $380 $540 forward 7 unknown #
coedge $-1 $541 $486 $381 $467 forward $411 $-1 #
edge $-1 $468 -43.068851654597729 $542 43.068851654597729 $466 $543 forward 7 unknown #
vertex $-1 $383 $544 #
straight-curve $-1 -58.862876576369352 -43.068851654597729 -5.195868053395122 0 0 -1 I I #
vertex $-1 $386 $545 #
straight-curve $-1 -32.345956883281154 -43.068851654597729 -7.4445755417352117 1 0 0 I I #
coedge $-1 $387 $482 $389 $475 forward $406 $-1 #
vertex $-1 $465 $546 #
straight-curve $-1 -32.345956883281154 43.068851654597729 -7.4445755417352117 -1 0 0 I I #
edge $-1 $542 -8.1430286184501544 $391 -2.2487074883400897 $472 $547 forward 7 unknown #
point $-1 -58.862876576369352 -43.068851654597729 -7.4445755417352117 #
point $-1 -58.862876576369352 43.068851654597729 -7.4445755417352117 #
coedge $-1 $486 $541 $393 $479 forward $411 $-1 #
edge $-1 $483 -43.068851654597729 $480 43.068851654597729 $393 $548 forward 7 unknown #
vertex $-1 $394 $549 #
straight-curve $-1 70.520950956755271 -43.068851654597729 0 0 0 -1 I I #
coedge $-1 $472 $396 $541 $550 reversed $406 $-1 #
vertex $-1 $479 $551 #
straight-curve $-1 70.520950956755271 43.068851654597729 0 0 0 -1 I I #
edge $-1 $403 -13.338896671845276 $470 7.4445755417352117 $463 $552 forward 7 unknown #
coedge $-1 $466 $478 $399 $487 forward $411 $-1 #
edge $-1 $480 -70.520950956755271 $468 58.862876576369352 $399 $553 forward 7 unknown #
straight-curve $-1 -70.520950956755271 0 13.338896671845276 0 -1 0 I I #
point $-1 -70.520950956755271 -43.068851654597729 13.338896671845276 #
edge $-1 $407 -13.338896671845276 $473 7.4445755417352117 $405 $554 forward 7 unknown #
point $-1 -70.520950956755271 43.068851654597729 13.338896671845276 #
plane-surface $-1 0 43.068851654597729 0 0 -1 0 0 0 -1 forward_v I I I I #
face $-1 $428 $555 $18 $-1 $556 reversed single #
loop $-1 $-1 $557 $413 #
plane-surface $-1 -70.520950956755271 0 0 1 0 0 0 0 -1 forward_v I I I I #
coedge $-1 $499 $558 $559 $560 reversed $414 $-1 #
coedge $-1 $561 $416 $562 $563 reversed $328 $-1 #
coedge $-1 $416 $561 $564 $565 reversed $328 $-1 #
coedge $-1 $566 $496 $416 $500 forward $414 $-1 #
edge $-1 $567 -43.068851654597729 $568 43.068851654597729 $499 $569 forward 7 unknown #
coedge $-1 $570 $417 $571 $572 forward $240 $-1 #
edge $-1 $422 11.665209051544913 $573 24.824164752550182 $417 $574 forward 7 unknown #
coedge $-1 $418 $570 $575 $576 reversed $240 $-1 #
coedge $-1 $514 $571 $419 $505 forward $555 $-1 #
edge $-1 $573 -93.329857735956281 $506 -84.718809340386116 $504 $577 forward 7 unknown #
vertex $-1 $505 $578 #
straight-curve $-1 64.326681191040464 -18.244686902047548 13.338896671845283 0 1 0 I I #
point $-1 70.520950956755271 -29.909895953592461 7.3571597551627121 #
coedge $-1 $427 $425 $579 $580 forward $337 $-1 #
coedge $-1 $575 $581 $425 $511 reversed $582 $-1 #
edge $-1 $512 -70.520950956755271 $583 70.520950956755271 $510 $584 forward 7 unknown #
vertex $-1 $426 $585 #
straight-curve $-1 70.520950956755271 0 13.338896671845276 0 1 0 I I #
coedge $-1 $586 $504 $427 $515 reversed $555 $-1 #
edge $-1 $587 -70.520950956755271 $506 64.326681191040478 $514 $588 forward 7 unknown #
face $-1 $589 $590 $18 $-1 $591 reversed single #
plane-surface $-1 0 0 13.338896671845276 0 0 1 1 0 0 forward_v I I I I #
face $-1 $592 $593 $19 $-1 $594 forward single #
loop $-1 $-1 $595 $432 #
plane-surface $-1 -64.691913766562308 0 -7.4445755417352117 0 0 1 1 0 0 forward_v I I I I #
coedge $-1 $596 $597 $436 $524 forward $433 $-1 #
coedge $-1 $444 $598 $435 $523 reversed $352 $-1 #
edge $-1 $528 132.43085351794036 $599 141.04190191351051 $435 $600 forward 7 unknown #
edge $-1 $529 90.056178881244833 $599 96.037915797927397 $521 $601 forward 7 unknown #
coedge $-1 $602 $437 $597 $603 forward $527 $-1 #
coedge $-1 $437 $604 $444 $534 forward $527 $-1 #
loop $-1 $-1 $437 $605 #
vertex $-1 $534 $606 #
vertex $-1 $603 $607 #
straight-curve $-1 33.519918703547411 -29.909895953592461 13.338896671845276 1 0 0 I I #
vertex $-1 $439 $608 #
point $-1 66.807411353227039 -39.309150025739079 8.2701659314632234 #
coedge $-1 $598 $444 $609 $610 reversed $352 $-1 #
edge $-1 $611 -24.824164752550182 $528 -11.665209051544913 $526 $612 forward 7 unknown #
point $-1 70.520950956755271 -43.068851654597729 13.338896671845276 #
point $-1 70.520950956755271 43.068851654597729 13.338896671845276 #
straight-curve $-1 70.520950956755271 0 -13.338896671845276 0 -1 0 I I #
point $-1 70.520950956755271 43.068851654597729 -13.338896671845276 #
straight-curve $-1 70.520950956755271 43.068851654597729 0 0 0 -1 I I #
straight-curve $-1 -70.520950956755271 0 -7.4445755417352117 0 -1 0 I I #
coedge $-1 $478 $466 $482 $550 forward $411 $-1 #
vertex $-1 $550 $613 #
straight-curve $-1 -58.862876576369352 0 -13.338896671845276 0 1 0 I I #
point $-1 -58.862876576369352 -43.068851654597729 -13.338896671845276 #
point $-1 -70.520950956755271 -43.068851654597729 -7.4445755417352117 #
point $-1 -70.520950956755271 43.068851654597729 -7.4445755417352117 #
straight-curve $-1 -58.862876576369352 43.068851654597729 -5.195868053395122 0 0 1 I I #
straight-curve $-1 70.520950956755271 0 -13.338896671845276 0 -1 0 I I #
point $-1 70.520950956755271 -43.068851654597729 -13.338896671845276 #
edge $-1 $542 -58.862876576369352 $483 70.520950956755271 $482 $614 forward 7 unknown #
point $-1 70.520950956755271 43.068851654597729 -13.338896671845276 #
straight-curve $-1 -70.520950956755271 -43.068851654597729 0 0 0 -1 I I #
straight-curve $-1 0 -43.068851654597729 -13.338896671845276 -1 0 0 I I #
straight-curve $-1 -70.520950956755271 43.068851654597729 0 0 0 -1 I I #
loop $-1 $-1 $504 $493 #
plane-surface $-1 0 -43.068851654597729 0 0 1 0 0 0 1 forward_v I I I I #
coedge $-1 $615 $616 $561 $617 forward $494 $-1 #
coedge $-1 $496 $566 $618 $619 reversed $414 $-1 #
coedge $-1 $620 $562 $496 $560 forward $555 $-1 #
edge $-1 $567 2.2487074883400897 $621 8.1430286184501544 $559 $622 forward 7 unknown #
coedge $-1 $498 $497 $557 $617 reversed $328 $-1 #
coedge $-1 $559 $586 $497 $563 forward $555 $-1 #
edge $-1 $623 -38.174994073474117 $567 -26.516919693088198 $562 $624 forward 7 unknown #
coedge $-1 $581 $625 $498 $565 forward $582 $-1 #
edge $-1 $568 26.516919693088198 $626 38.174994073474117 $564 $627 forward 7 unknown #
coedge $-1 $558 $499 $625 $628 reversed $414 $-1 #
vertex $-1 $563 $629 #
vertex $-1 $565 $630 #
straight-curve $-1 -58.862876576369352 0 -7.4445755417352117 0 1 0 I I #
coedge $-1 $503 $501 $631 $632 reversed $240 $-1 #
coedge $-1 $504 $620 $501 $572 reversed $555 $-1 #
edge $-1 $573 -7.357159755162697 $633 13.338896671845276 $501 $634 forward 7 unknown #
vertex $-1 $572 $635 #
straight-curve $-1 70.520950956755257 -18.244686902047548 7.3571597551627121 0 -1 0 I I #
coedge $-1 $636 $510 $503 $576 forward $582 $-1 #
edge $-1 $512 -13.338896671845276 $637 13.338896671845276 $503 $638 forward 7 unknown #
straight-curve $-1 3.3850704628426307 -43.068851654597729 72.189527406829711 -0.71933979245794832 0 0.69465837861970381 I I #
point $-1 64.326681191040478 -43.068851654597729 13.338896671845276 #
coedge $-1 $616 $615 $509 $580 reversed $494 $-1 #
edge $-1 $583 -43.068851654597729 $587 43.068851654597729 $579 $639 forward 7 unknown #
coedge $-1 $510 $564 $616 $640 reversed $582 $-1 #
loop $-1 $-1 $564 $589 #
vertex $-1 $511 $641 #
straight-curve $-1 0 43.068851654597729 13.338896671845276 -1 0 0 I I #
point $-1 70.520950956755271 43.068851654597729 13.338896671845276 #
coedge $-1 $562 $514 $615 $642 forward $555 $-1 #
vertex $-1 $580 $643 #
straight-curve $-1 0 -43.068851654597729 13.338896671845276 1 0 0 I I #
face $-1 $-1 $582 $18 $-1 $644 reversed single #
loop $-1 $-1 $618 $516 #
plane-surface $-1 0 0 -13.338896671845276 0 0 1 1 0 0 forward_v I I I I #
face $-1 $645 $646 $19 $-1 $647 reversed single #
loop $-1 $-1 $648 $518 #
plane-surface $-1 -58.862876576369352 0 -10.391736106790244 -1 0 0 0 0 1 forward_v I I I I #
coedge $-1 $649 $650 $651 $652 reversed $519 $-1 #
coedge $-1 $653 $521 $598 $654 forward $433 $-1 #
coedge $-1 $521 $655 $525 $603 reversed $433 $-1 #
coedge $-1 $522 $533 $596 $654 reversed $352 $-1 #
vertex $-1 $654 $656 #
straight-curve $-1 -30.936101493583706 -29.909895953592461 105.33309865584124 0.71933979245794832 0 -0.69465837861970381 I I #
straight-curve $-1 70.520950956755271 -29.909895953592461 103.39507555309011 0 0 -1 I I #
coedge $-1 $657 $525 $658 $659 forward $527 $-1 #
edge $-1 $529 -29.909895953592461 $660 43.068851654597729 $597 $661 forward 7 unknown #
coedge $-1 $526 $657 $662 $663 forward $527 $-1 #
face $-1 $664 $527 $19 $-1 $665 forward single #
point $-1 64.326681191040493 -29.909895953592461 13.338896671845276 #
point $-1 70.520950956755271 -29.909895953592461 13.338896671845276 #
point $-1 65.393413182149388 -39.309150025739079 8.2454845176249787 #
coedge $-1 $662 $666 $533 $610 forward $667 $-1 #
edge $-1 $668 -93.329857735956281 $611 -84.718809340386116 $609 $669 forward 7 unknown #
vertex $-1 $610 $670 #
straight-curve $-1 64.326681191040464 -18.244686902047548 13.338896671845283 0 1 0 I I #
point $-1 -58.862876576369352 43.068851654597729 -13.338896671845276 #
straight-curve $-1 0 43.068851654597729 -13.338896671845276 1 0 0 I I #
coedge $-1 $579 $557 $586 $642 reversed $494 $-1 #
coedge $-1 $557 $579 $581 $640 forward $494 $-1 #
edge $-1 $626 -43.068851654597729 $623 43.068851654597729 $557 $671 forward 7 unknown #
coedge $-1 $672 $673 $558 $619 forward $590 $-1 #
edge $-1 $621 -43.068851654597729 $674 43.068851654597729 $618 $675 forward 7 unknown #
coedge $-1 $571 $559 $673 $676 reversed $555 $-1 #
vertex $-1 $560 $677 #
straight-curve $-1 -58.862876576369352 -43.068851654597729 -5.195868053395122 0 0 -1 I I #
vertex $-1 $563 $678 #
straight-curve $-1 -32.345956883281154 -43.068851654597729 -7.4445755417352117 1 0 0 I I #
coedge $-1 $564 $636 $566 $628 forward $582 $-1 #
vertex $-1 $617 $679 #
straight-curve $-1 -32.345956883281154 43.068851654597729 -7.4445755417352117 -1 0 0 I I #
edge $-1 $674 -8.1430286184501544 $568 -2.2487074883400897 $625 $680 forward 7 unknown #
point $-1 -58.862876576369352 -43.068851654597729 -7.4445755417352117 #
point $-1 -58.862876576369352 43.068851654597729 -7.4445755417352117 #
coedge $-1 $673 $672 $570 $632 forward $590 $-1 #
edge $-1 $637 -43.068851654597729 $633 43.068851654597729 $570 $681 forward 7 unknown #
vertex $-1 $572 $682 #
straight-curve $-1 70.520950956755271 -43.068851654597729 0 0 0 -1 I I #
point $-1 70.520950956755271 -43.068851654597729 7.357159755162697 #
coedge $-1 $625 $575 $672 $683 reversed $582 $-1 #
vertex $-1 $632 $684 #
straight-curve $-1 70.520950956755271 43.068851654597729 0 0 0 -1 I I #
straight-curve $-1 -70.520950956755271 0 13.338896671845276 0 -1 0 I I #
edge $-1 $583 -13.338896671845276 $626 7.4445755417352117 $581 $685 forward 7 unknown #
point $-1 -70.520950956755271 43.068851654597729 13.338896671845276 #
edge $-1 $587 -13.338896671845276 $623 7.4445755417352117 $615 $686 forward 7 unknown #
point $-1 -70.520950956755271 -43.068851654597729 13.338896671845276 #
plane-surface $-1 0 43.068851654597729 0 0 -1 0 0 0 -1 forward_v I I I I #
face $-1 $605 $667 $19 $-1 $687 reversed single #
loop $-1 $-1 $688 $592 #
plane-surface $-1 -70.520950956755271 0 0 1 0 0 0 0 -1 forward_v I I I I #
coedge $-1 $651 $689 $690 $691 reversed $593 $-1 #
coedge $-1 $692 $595 $693 $694 reversed $519 $-1 #
coedge $-1 $595 $692 $695 $696 reversed $519 $-1 #
coedge $-1 $697 $648 $595 $652 forward $593 $-1 #
edge $-1 $698 -43.068851654597729 $699 43.068851654597729 $651 $700 forward 7 unknown #
coedge $-1 $701 $596 $666 $702 forward $433 $-1 #
edge $-1 $599 11.665209051544913 $668 24.824164752550182 $596 $703 forward 7 unknown #
coedge $-1 $597 $701 $704 $705 reversed $433 $-1 #
point $-1 70.520950956755271 -29.909895953592461 7.3571597551627121 #
coedge $-1 $604 $602 $706 $707 forward $527 $-1 #
coedge $-1 $704 $708 $602 $659 reversed $709 $-1 #
edge $-1 $660 -70.520950956755271 $710 70.520950956755271 $658 $711 forward 7 unknown #
vertex $-1 $603 $712 #
straight-curve $-1 70.520950956755271 0 13.338896671845276 0 1 0 I I #
coedge $-1 $713 $609 $604 $663 reversed $667 $-1 #
edge $-1 $714 -70.520950956755271 $611 64.326681191040478 $662 $715 forward 7 unknown #
face $-1 $716 $717 $19 $-1 $718 reversed single #
plane-surface $-1 0 0 13.338896671845276 0 0 1 1 0 0 forward_v I I I I #
coedge $-1 $609 $719 $653 $702 reversed $667 $-1 #
loop $-1 $-1 $609 $645 #
vertex $-1 $702 $720 #
straight-curve $-1 3.3850704628426307 -43.068851654597729 72.189527406829711 -0.71933979245794832 0 0.69465837861970381 I I #
point $-1 64.326681191040478 -43.068851654597729 13.338896671845276 #
straight-curve $-1 -70.520950956755271 0 -7.4445755417352117 0 -1 0 I I #
coedge $-1 $631 $618 $636 $683 forward $590 $-1 #
coedge $-1 $618 $631 $620 $676 forward $590 $-1 #
vertex $-1 $683 $721 #
straight-curve $-1 -58.862876576369352 0 -13.338896671845276 0 1 0 I I #
edge $-1 $633 -70.520950956755271 $621 58.862876576369352 $620 $722 forward 7 unknown #
point $-1 -58.862876576369352 -43.068851654597729 -13.338896671845276 #
point $-1 -70.520950956755271 -43.068851654597729 -7.4445755417352117 #
point $-1 -70.520950956755271 43.068851654597729 -7.4445755417352117 #
straight-curve $-1 -58.862876576369352 43.068851654597729 -5.195868053395122 0 0 1 I I #
straight-curve $-1 70.520950956755271 0 -13.338896671845276 0 -1 0 I I #
point $-1 70.520950956755271 -43.068851654597729 -13.338896671845276 #
edge $-1 $674 -58.862876576369352 $637 70.520950956755271 $636 $723 forward 7 unknown #
point $-1 70.520950956755271 43.068851654597729 -13.338896671845276 #
straight-curve $-1 -70.520950956755271 43.068851654597729 0 0 0 -1 I I #
straight-curve $-1 -70.520950956755271 -43.068851654597729 0 0 0 -1 I I #
plane-surface $-1 0 -43.068851654597729 0 0 1 0 0 0 1 forward_v I I I I #
coedge $-1 $724 $725 $692 $726 forward $646 $-1 #
coedge $-1 $648 $697 $727 $728 reversed $593 $-1 #
coedge $-1 $719 $693 $648 $691 forward $667 $-1 #
edge $-1 $698 2.2487074883400897 $729 8.1430286184501544 $690 $730 forward 7 unknown #
coedge $-1 $650 $649 $688 $726 reversed $519 $-1 #
coedge $-1 $690 $713 $649 $694 forward $667 $-1 #
edge $-1 $731 -38.174994073474117 $698 -26.516919693088198 $693 $732 forward 7 unknown #
coedge $-1 $708 $733 $650 $696 forward $709 $-1 #
edge $-1 $699 26.516919693088198 $734 38.174994073474117 $695 $735 forward 7 unknown #
coedge $-1 $689 $651 $733 $736 reversed $593 $-1 #
vertex $-1 $694 $737 #
vertex $-1 $696 $738 #
straight-curve $-1 -58.862876576369352 0 -7.4445755417352117 0 1 0 I I #
coedge $-1 $655 $653 $739 $740 reversed $433 $-1 #
edge $-1 $668 -7.357159755162697 $741 13.338896671845276 $653 $742 forward 7 unknown #
straight-curve $-1 70.520950956755257 -18.244686902047548 7.3571597551627121 0 -1 0 I I #
coedge $-1 $743 $658 $655 $705 forward $709 $-1 #
edge $-1 $660 -13.338896671845276 $744 13.338896671845276 $655 $745 forward 7 unknown #
coedge $-1 $725 $724 $657 $707 reversed $646 $-1 #
edge $-1 $710 -43.068851654597729 $714 43.068851654597729 $706 $746 forward 7 unknown #
coedge $-1 $658 $695 $725 $747 reversed $709 $-1 #
loop $-1 $-1 $695 $716 #
vertex $-1 $659 $748 #
straight-curve $-1 0 43.068851654597729 13.338896671845276 -1 0 0 I I #
point $-1 70.520950956755271 43.068851654597729 13.338896671845276 #
coedge $-1 $693 $662 $724 $749 forward $667 $-1 #
vertex $-1 $707 $750 #
straight-curve $-1 0 -43.068851654597729 13.338896671845276 1 0 0 I I #
face $-1 $-1 $709 $19 $-1 $751 reversed single #
loop $-1 $-1 $727 $664 #
plane-surface $-1 0 0 -13.338896671845276 0 0 1 1 0 0 forward_v I I I I #
coedge $-1 $666 $690 $752 $753 reversed $667 $-1 #
point $-1 70.520950956755271 -43.068851654597729 7.357159755162697 #
point $-1 -58.862876576369352 43.068851654597729 -13.338896671845276 #
straight-curve $-1 0 -43.068851654597729 -13.338896671845276 -1 0 0 I I #
straight-curve $-1 0 43.068851654597729 -13.338896671845276 1 0 0 I I #
coedge $-1 $706 $688 $713 $749 reversed $646 $-1 #
coedge $-1 $688 $706 $708 $747 forward $646 $-1 #
edge $-1 $734 -43.068851654597729 $731 43.068851654597729 $688 $754 forward 7 unknown #
coedge $-1 $755 $752 $689 $728 forward $717 $-1 #
edge $-1 $729 -43.068851654597729 $756 43.068851654597729 $727 $757 forward 7 unknown #
vertex $-1 $691 $758 #
straight-curve $-1 -58.862876576369352 -43.068851654597729 -5.195868053395122 0 0 -1 I I #
vertex $-1 $694 $759 #
straight-curve $-1 -32.345956883281154 -43.068851654597729 -7.4445755417352117 1 0 0 I I #
coedge $-1 $695 $743 $697 $736 forward $709 $-1 #
vertex $-1 $726 $760 #
straight-curve $-1 -32.345956883281154 43.068851654597729 -7.4445755417352117 -1 0 0 I I #
edge $-1 $756 -8.1430286184501544 $699 -2.2487074883400897 $733 $761 forward 7 unknown #
point $-1 -58.862876576369352 -43.068851654597729 -7.4445755417352117 #
point $-1 -58.862876576369352 43.068851654597729 -7.4445755417352117 #
coedge $-1 $752 $755 $701 $740 forward $717 $-1 #
edge $-1 $744 -43.068851654597729 $741 43.068851654597729 $701 $762 forward 7 unknown #
vertex $-1 $702 $763 #
straight-curve $-1 70.520950956755271 -43.068851654597729 0 0 0 -1 I I #
coedge $-1 $733 $704 $755 $764 reversed $709 $-1 #
vertex $-1 $740 $765 #
straight-curve $-1 70.520950956755271 43.068851654597729 0 0 0 -1 I I #
straight-curve $-1 -70.520950956755271 0 13.338896671845276 0 -1 0 I I #
edge $-1 $710 -13.338896671845276 $734 7.4445755417352117 $708 $766 forward 7 unknown #
point $-1 -70.520950956755271 43.068851654597729 13.338896671845276 #
edge $-1 $714 -13.338896671845276 $731 7.4445755417352117 $724 $767 forward 7 unknown #
point $-1 -70.520950956755271 -43.068851654597729 13.338896671845276 #
plane-surface $-1 0 43.068851654597729 0 0 -1 0 0 0 -1 forward_v I I I I #
coedge $-1 $727 $739 $719 $753 forward $717 $-1 #
edge $-1 $741 -70.520950956755271 $729 58.862876576369352 $719 $768 forward 7 unknown #
straight-curve $-1 -70.520950956755271 0 -7.4445755417352117 0 -1 0 I I #
coedge $-1 $739 $727 $743 $764 forward $717 $-1 #
vertex $-1 $764 $769 #
straight-curve $-1 -58.862876576369352 0 -13.338896671845276 0 1 0 I I #
point $-1 -58.862876576369352 -43.068851654597729 -13.338896671845276 #
point $-1 -70.520950956755271 -43.068851654597729 -7.4445755417352117 #
point $-1 -70.520950956755271 43.068851654597729 -7.4445755417352117 #
straight-curve $-1 -58.862876576369352 43.068851654597729 -5.195868053395122 0 0 1 I I #
straight-curve $-1 70.520950956755271 0 -13.338896671845276 0 -1 0 I I #
point $-1 70.520950956755271 -43.068851654597729 -13.338896671845276 #
edge $-1 $756 -58.862876576369352 $744 70.520950956755271 $743 $770 forward 7 unknown #
point $-1 70.520950956755271 43.068851654597729 -13.338896671845276 #
straight-curve $-1 -70.520950956755271 43.068851654597729 0 0 0 -1 I I #
straight-curve $-1 -70.520950956755271 -43.068851654597729 0 0 0 -1 I I #
straight-curve $-1 0 -43.068851654597729 -13.338896671845276 -1 0 0 I I #
point $-1 -58.862876576369352 43.068851654597729 -13.338896671845276 #
straight-curve $-1 0 43.068851654597729 -13.338896671845276 1 0 0 I I #
End-of-ACIS-data 