500 0 4 0           
7 Unknown 11 ACIS 5.0 NT 24 Fri Mar 26 19:51:00 1999 
-1 9.9999999999999995e-007 1e-010 
body $-1 $4 $-1 $5 #
body $-1 $6 $-1 $7 #
body $-1 $8 $-1 $9 #
body $-1 $10 $-1 $11 #
lump $-1 $-1 $12 $0 #
transform $-1 1 0 0 0 1 0 0 0 1 54.568315683462018 24.955840871698715 8.5655800026748494 1 rotate no_reflect no_shear #
lump $-1 $-1 $13 $1 #
transform $-1 1 0 0 0 1 0 0 0 1 54.568315683462018 24.955840871698715 8.5655800026748494 1 rotate no_reflect no_shear #
lump $-1 $-1 $14 $2 #
transform $-1 1 0 0 0 1 0 0 0 1 54.568315683462018 24.955840871698715 8.5655800026748494 1 rotate no_reflect no_shear #
lump $-1 $-1 $15 $3 #
transform $-1 1 0 0 0 1 0 0 0 1 54.568315683462018 24.955840871698715 8.5655800026748494 1 rotate no_reflect no_shear #
shell $-1 $-1 $-1 $16 $-1 $4 #
shell $-1 $-1 $-1 $17 $-1 $6 #
shell $-1 $-1 $-1 $18 $-1 $8 #
shell $-1 $-1 $-1 $19 $-1 $10 #
face $-1 $20 $21 $12 $-1 $22 reversed single #
face $-1 $23 $24 $13 $-1 $25 forward single #
face $-1 $26 $27 $14 $-1 $28 reversed single #
face $-1 $29 $30 $15 $-1 $31 forward single #
face $-1 $32 $33 $12 $-1 $34 forward single #
loop $-1 $-1 $35 $16 #
plane-surface $-1 -54.568315683462018 0 0 1 0 0 0 0 -1 forward_v I I I I #
face $-1 $36 $37 $13 $-1 $38 reversed single #
loop $-1 $-1 $39 $17 #
plane-surface $-1 -54.568315683462018 0 0 1 0 0 0 0 -1 forward_v I I I I #
face $-1 $40 $41 $14 $-1 $42 reversed single #
loop $-1 $-1 $43 $18 #
plane-surface $-1 -35.910051726809158 -20.129755842263851 64.641887667783976 0.55919291073839883 0 0.82903756765294845 0.82903756765294845 0 -0.55919291073839883 forward_v I I I I #
face $-1 $44 $45 $15 $-1 $46 forward single #
loop $-1 $47 $48 $19 #
cone-surface $-1 48.682493256071773 -20.129755842263851 2.805778852787939 -0.55919291073839883 0 -0.82903756765294845 1.6580751353058969 0 -1.1183858214767977 1 I I 0 1 2 forward I I I I #
face $-1 $49 $50 $12 $-1 $51 reversed single #
loop $-1 $-1 $52 $20 #
plane-surface $-1 0 0 8.5655800026748494 0 0 1 1 0 0 forward_v I I I I #
coedge $-1 $53 $54 $55 $56 reversed $21 $-1 #
face $-1 $57 $58 $13 $-1 $59 reversed single #
loop $-1 $-1 $60 $23 #
plane-surface $-1 0 0 -8.5655800026748494 0 0 1 1 0 0 forward_v I I I I #
coedge $-1 $61 $62 $63 $64 forward $24 $-1 #
face $-1 $65 $66 $14 $-1 $67 reversed single #
loop $-1 $-1 $68 $26 #
plane-surface $-1 25.11837883544473 -15.303670812828987 155.12025507805515 0 -1 0 -0.55919291073839883 0 -0.82903756765294845 forward_v I I I I #
coedge $-1 $69 $70 $71 $72 reversed $27 $-1 #
face $-1 $-1 $73 $15 $-1 $74 forward single #
loop $-1 $75 $76 $29 #
cone-surface $-1 45.908389907819881 -20.129755842263851 -1.3069984161795389 -0.55919291073839883 0 -0.82903756765294845 0.82903756765294845 0 -0.55919291073839883 1 I I -0.70710678118654746 0.70710678118654746 1 forward I I I I #
loop $-1 $-1 $77 $19 #
coedge $-1 $48 $48 $78 $79 reversed $30 $-1 #
face $-1 $80 $81 $12 $-1 $82 reversed single #
loop $-1 $-1 $83 $32 #
plane-surface $-1 0 0 -8.5655800026748494 0 0 1 1 0 0 forward_v I I I I #
coedge $-1 $84 $85 $86 $87 forward $33 $-1 #
coedge $-1 $88 $35 $89 $90 reversed $21 $-1 #
coedge $-1 $35 $88 $91 $92 forward $21 $-1 #
coedge $-1 $93 $94 $35 $56 forward $50 $-1 #
edge $-1 $95 -24.955840871698715 $96 24.955840871698715 $35 $97 forward 7 unknown #
face $-1 $98 $99 $13 $-1 $100 reversed single #
loop $-1 $-1 $101 $36 #
plane-surface $-1 -59.248271817355487 -15.732367886596872 0 0 1 0 0 0 1 forward_v I I I I #
coedge $-1 $102 $103 $62 $104 forward $37 $-1 #
coedge $-1 $105 $39 $106 $107 reversed $24 $-1 #
coedge $-1 $39 $105 $60 $104 reversed $24 $-1 #
coedge $-1 $108 $109 $39 $64 reversed $110 $-1 #
edge $-1 $111 -8.5655800026748494 $112 8.5655800026748494 $63 $113 forward 7 unknown #
face $-1 $114 $115 $14 $-1 $116 reversed single #
loop $-1 $-1 $117 $40 #
plane-surface $-1 0 -24.955840871698715 0 0 1 0 0 0 1 forward_v I I I I #
coedge $-1 $118 $119 $120 $121 reversed $41 $-1 #
coedge $-1 $122 $43 $117 $123 reversed $27 $-1 #
coedge $-1 $43 $122 $118 $124 forward $27 $-1 #
coedge $-1 $120 $125 $43 $72 forward $115 $-1 #
edge $-1 $126 -14.89096295056679 $127 -5.2387928916970612 $71 $128 forward 7 unknown #
loop $-1 $-1 $78 $44 #
plane-surface $-1 -35.910051726809158 -20.129755842263851 64.641887667783976 0.55919291073839883 0 0.82903756765294845 0.82903756765294845 0 -0.55919291073839883 forward_v I I I I #
loop $-1 $-1 $129 $29 #
coedge $-1 $76 $76 $77 $130 reversed $45 $-1 #
coedge $-1 $77 $77 $76 $130 forward $47 $-1 #
coedge $-1 $78 $78 $48 $79 forward $73 $-1 #
edge $-1 $131 0 $131 6.2831853071796004 $78 $132 forward 7 unknown #
face $-1 $133 $134 $12 $-1 $135 reversed single #
loop $-1 $-1 $89 $49 #
plane-surface $-1 0 -24.955840871698715 0 0 1 0 0 0 1 forward_v I I I I #
coedge $-1 $94 $93 $136 $137 forward $50 $-1 #
coedge $-1 $138 $52 $139 $140 forward $33 $-1 #
coedge $-1 $52 $138 $141 $142 forward $33 $-1 #
coedge $-1 $143 $144 $52 $87 reversed $145 $-1 #
edge $-1 $146 -24.955840871698715 $147 24.955840871698715 $86 $148 forward 7 unknown #
coedge $-1 $54 $53 $138 $149 reversed $21 $-1 #
coedge $-1 $150 $141 $53 $90 forward $81 $-1 #
edge $-1 $151 -8.5655800026748494 $95 8.5655800026748494 $53 $152 forward 7 unknown #
coedge $-1 $139 $153 $54 $92 reversed $134 $-1 #
edge $-1 $154 -8.5655800026748494 $96 8.5655800026748494 $91 $155 forward 7 unknown #
coedge $-1 $83 $55 $153 $156 forward $50 $-1 #
coedge $-1 $55 $83 $150 $157 forward $50 $-1 #
vertex $-1 $56 $158 #
vertex $-1 $156 $159 #
straight-curve $-1 -54.568315683462018 0 -8.5655800026748494 0 1 0 I I #
face $-1 $160 $110 $13 $-1 $161 reversed single #
loop $-1 $-1 $162 $57 #
plane-surface $-1 -63.928227951248957 -13.662350540877664 0 1 0 0 0 0 -1 forward_v I I I I #
coedge $-1 $163 $164 $165 $166 forward $58 $-1 #
coedge $-1 $167 $60 $163 $168 forward $37 $-1 #
coedge $-1 $60 $167 $108 $169 forward $37 $-1 #
edge $-1 $111 11.592333195158457 $170 15.732367886596872 $60 $171 forward 7 unknown #
coedge $-1 $62 $61 $172 $173 forward $24 $-1 #
coedge $-1 $174 $175 $61 $107 forward $176 $-1 #
edge $-1 $177 -15.732367886596872 $112 -11.592333195158457 $106 $178 forward 7 unknown #
coedge $-1 $179 $63 $103 $169 reversed $110 $-1 #
coedge $-1 $63 $179 $174 $180 reversed $110 $-1 #
loop $-1 $-1 $63 $98 #
vertex $-1 $104 $181 #
vertex $-1 $180 $182 #
straight-curve $-1 -54.568315683462018 -11.592333195158457 0 0 0 1 I I #
face $-1 $-1 $183 $14 $-1 $184 forward single #
loop $-1 $-1 $71 $65 #
plane-surface $-1 54.568315683462018 0 0 -1 0 0 0 0 1 forward_v I I I I #
coedge $-1 $185 $186 $69 $123 forward $66 $-1 #
coedge $-1 $119 $68 $70 $124 reversed $41 $-1 #
coedge $-1 $68 $118 $187 $188 reversed $41 $-1 #
coedge $-1 $189 $71 $68 $121 forward $115 $-1 #
edge $-1 $127 -73.946670433497488 $190 -68.994547536352727 $120 $191 forward 7 unknown #
coedge $-1 $70 $69 $192 $193 reversed $27 $-1 #
edge $-1 $194 67.321757826195324 $126 76.177597737694953 $117 $195 forward 7 unknown #
edge $-1 $196 100.28079145542439 $127 109.13663136692404 $118 $197 forward 7 unknown #
coedge $-1 $71 $189 $185 $198 forward $115 $-1 #
vertex $-1 $72 $199 #
vertex $-1 $72 $200 #
straight-curve $-1 54.568315683462018 -10.064877921131925 3.6134571055300846 0 1 0 I I #
coedge $-1 $129 $129 $-1 $201 reversed $75 $-1 #
edge $-1 $202 0 $202 6.2831853071796004 $76 $203 forward 7 unknown #
vertex $-1 $79 $204 #
ellipse-curve $-1 50.897403693585261 -20.129755842263851 6.0895185541024643 0.55919291073839883 0 0.82903756765294845 1.6580751353058969 0 -1.1183858214767977 1 I I #
face $-1 $-1 $145 $12 $-1 $205 reversed single #
loop $-1 $-1 $206 $80 #
plane-surface $-1 0 24.955840871698715 0 0 -1 0 0 0 -1 forward_v I I I I #
coedge $-1 $144 $143 $83 $137 reversed $145 $-1 #
edge $-1 $207 -24.955840871698715 $208 24.955840871698715 $136 $209 forward 7 unknown #
coedge $-1 $85 $84 $88 $149 forward $33 $-1 #
coedge $-1 $206 $91 $84 $140 reversed $134 $-1 #
edge $-1 $147 -54.568315683462018 $154 54.568315683462018 $139 $210 forward 7 unknown #
coedge $-1 $89 $211 $85 $142 reversed $81 $-1 #
edge $-1 $151 -54.568315683462018 $146 54.568315683462018 $141 $212 forward 7 unknown #
coedge $-1 $136 $86 $211 $213 forward $145 $-1 #
coedge $-1 $86 $136 $206 $214 reversed $145 $-1 #
loop $-1 $-1 $143 $133 #
vertex $-1 $87 $215 #
vertex $-1 $87 $216 #
straight-curve $-1 54.568315683462018 0 8.5655800026748494 0 1 0 I I #
edge $-1 $154 -24.955840871698715 $151 24.955840871698715 $88 $217 forward 7 unknown #
coedge $-1 $211 $89 $94 $157 reversed $81 $-1 #
vertex $-1 $149 $218 #
straight-curve $-1 -54.568315683462018 -24.955840871698715 0 0 0 -1 I I #
coedge $-1 $91 $206 $93 $156 reversed $134 $-1 #
vertex $-1 $140 $219 #
straight-curve $-1 -54.568315683462018 24.955840871698715 0 0 0 -1 I I #
edge $-1 $96 -54.568315683462018 $207 54.568315683462018 $153 $220 forward 7 unknown #
edge $-1 $208 -54.568315683462018 $95 54.568315683462018 $150 $221 forward 7 unknown #
point $-1 -54.568315683462018 -24.955840871698715 -8.5655800026748494 #
point $-1 -54.568315683462018 24.955840871698715 -8.5655800026748494 #
face $-1 $-1 $176 $13 $-1 $222 forward single #
plane-surface $-1 -59.248271817355487 -11.592333195158457 0 0 -1 0 0 0 -1 forward_v I I I I #
coedge $-1 $223 $224 $179 $225 forward $99 $-1 #
coedge $-1 $172 $101 $102 $168 reversed $58 $-1 #
coedge $-1 $101 $172 $175 $226 reversed $58 $-1 #
coedge $-1 $224 $223 $101 $166 reversed $99 $-1 #
edge $-1 $227 -8.5655800026748494 $228 8.5655800026748494 $165 $229 forward 7 unknown #
coedge $-1 $103 $102 $223 $230 forward $37 $-1 #
edge $-1 $170 -4.6799561338934694 $228 4.6799561338934694 $163 $231 forward 7 unknown #
edge $-1 $232 -4.6799561338934694 $111 4.6799561338934694 $108 $233 forward 7 unknown #
vertex $-1 $168 $234 #
straight-curve $-1 -54.568315683462018 0 -8.5655800026748494 0 -1 0 I I #
coedge $-1 $164 $163 $105 $173 reversed $58 $-1 #
edge $-1 $177 -8.5655800026748494 $170 8.5655800026748494 $172 $235 forward 7 unknown #
coedge $-1 $236 $106 $109 $180 forward $176 $-1 #
coedge $-1 $106 $236 $164 $226 forward $176 $-1 #
loop $-1 $-1 $106 $160 #
vertex $-1 $107 $237 #
straight-curve $-1 -54.568315683462018 0 8.5655800026748494 0 1 0 I I #
coedge $-1 $109 $108 $162 $225 reversed $110 $-1 #
edge $-1 $112 -4.6799561338934694 $238 4.6799561338934694 $109 $239 forward 7 unknown #
point $-1 -54.568315683462018 -11.592333195158457 -8.5655800026748494 #
point $-1 -54.568315683462018 -11.592333195158457 8.5655800026748494 #
loop $-1 $-1 $192 $114 #
plane-surface $-1 0 0 8.5655800026748494 0 0 1 1 0 0 forward_v I I I I #
coedge $-1 $186 $117 $125 $198 reversed $66 $-1 #
coedge $-1 $117 $185 $240 $241 reversed $66 $-1 #
coedge $-1 $192 $242 $119 $188 forward $183 $-1 #
edge $-1 $190 -42.009126265739653 $196 -34.667302285986096 $187 $243 forward 7 unknown #
coedge $-1 $125 $120 $242 $244 reversed $115 $-1 #
vertex $-1 $121 $245 #
straight-curve $-1 54.568315683462018 -15.303670812828987 77.560127539027576 0 0 1 I I #
coedge $-1 $240 $187 $122 $193 forward $183 $-1 #
edge $-1 $196 5.2387928916970612 $194 14.89096295056679 $192 $246 forward 7 unknown #
vertex $-1 $241 $247 #
straight-curve $-1 -8.5857746546413534 -24.955840871698715 46.211429717530592 0.82903756765294845 0 -0.55919291073839883 I I #
vertex $-1 $193 $248 #
straight-curve $-1 -35.910051726809158 -15.303670812828987 64.641887667783976 0.82903756765294845 0 -0.55919291073839883 I I #
edge $-1 $249 -8.5655800026748494 $126 -3.6134571055300873 $125 $250 forward 7 unknown #
point $-1 54.568315683462018 -24.955840871698715 3.6134571055300873 #
point $-1 54.568315683462018 -15.303670812828987 3.6134571055300881 #
edge $-1 $251 1 $251 0 $129 $-1 forward 7 unknown #
vertex $-1 $130 $252 #
ellipse-curve $-1 46.467582818558277 -20.129755842263851 -0.47796084852659049 0.55919291073839883 0 0.82903756765294845 1.6580751353058969 0 -1.1183858214767977 1 I I #
point $-1 52.555478828891161 -20.129755842263851 4.971132732625672 #
plane-surface $-1 54.568315683462018 0 0 -1 0 0 0 0 1 forward_v I I I I #
coedge $-1 $153 $139 $144 $214 forward $134 $-1 #
vertex $-1 $137 $253 #
vertex $-1 $213 $254 #
straight-curve $-1 54.568315683462018 0 -8.5655800026748494 0 -1 0 I I #
straight-curve $-1 0 24.955840871698715 8.5655800026748494 -1 0 0 I I #
coedge $-1 $141 $150 $143 $213 reversed $81 $-1 #
straight-curve $-1 0 -24.955840871698715 8.5655800026748494 1 0 0 I I #
edge $-1 $146 -8.5655800026748494 $208 8.5655800026748494 $143 $255 forward 7 unknown #
edge $-1 $147 -8.5655800026748494 $207 8.5655800026748494 $144 $256 forward 7 unknown #
point $-1 54.568315683462018 -24.955840871698715 8.5655800026748494 #
point $-1 54.568315683462018 24.955840871698715 8.5655800026748494 #
straight-curve $-1 -54.568315683462018 0 8.5655800026748494 0 -1 0 I I #
point $-1 -54.568315683462018 -24.955840871698715 8.5655800026748494 #
point $-1 -54.568315683462018 24.955840871698715 8.5655800026748494 #
straight-curve $-1 0 24.955840871698715 -8.5655800026748494 1 0 0 I I #
straight-curve $-1 0 -24.955840871698715 -8.5655800026748494 -1 0 0 I I #
plane-surface $-1 0 0 8.5655800026748494 0 0 1 1 0 0 forward_v I I I I #
coedge $-1 $165 $162 $167 $230 reversed $99 $-1 #
coedge $-1 $162 $165 $236 $257 reversed $99 $-1 #
edge $-1 $238 -8.5655800026748494 $232 8.5655800026748494 $179 $258 forward 7 unknown #
edge $-1 $227 -4.6799561338934694 $177 4.6799561338934694 $164 $259 forward 7 unknown #
vertex $-1 $257 $260 #
vertex $-1 $230 $261 #
straight-curve $-1 -63.928227951248957 -15.732367886596872 0 0 0 -1 I I #
edge $-1 $228 -2.0700173457192079 $232 2.0700173457192079 $223 $262 forward 7 unknown #
straight-curve $-1 -59.248271817355487 -15.732367886596872 -8.5655800026748494 -1 0 0 I I #
vertex $-1 $169 $263 #
straight-curve $-1 -59.248271817355487 -11.592333195158457 -8.5655800026748494 1 0 0 I I #
point $-1 -54.568315683462018 -15.732367886596872 -8.5655800026748494 #
straight-curve $-1 -54.568315683462018 -15.732367886596872 0 0 0 -1 I I #
coedge $-1 $175 $174 $224 $257 forward $176 $-1 #
point $-1 -54.568315683462018 -15.732367886596872 8.5655800026748494 #
vertex $-1 $180 $264 #
straight-curve $-1 -59.248271817355487 -11.592333195158457 8.5655800026748494 -1 0 0 I I #
coedge $-1 $242 $192 $186 $241 forward $183 $-1 #
edge $-1 $194 47.226491703708462 $249 54.568315683462018 $186 $265 forward 7 unknown #
coedge $-1 $187 $240 $189 $244 forward $183 $-1 #
straight-curve $-1 12.559189417722365 -15.303670812828987 8.5655800026748494 -1 0 0 I I #
edge $-1 $249 -24.955840871698715 $190 -15.303670812828987 $189 $266 forward 7 unknown #
point $-1 54.568315683462018 -15.303670812828987 8.5655800026748494 #
straight-curve $-1 47.226491703708462 -10.064877921131925 8.5655800026748423 0 -1 0 I I #
point $-1 47.226491703708462 -24.955840871698715 8.5655800026748494 #
point $-1 47.226491703708462 -15.303670812828987 8.5655800026748494 #
vertex $-1 $244 $267 #
straight-curve $-1 54.568315683462018 -24.955840871698715 0 0 0 -1 I I #
vertex $-1 $201 $268 #
point $-1 48.125657953864177 -20.129755842263851 -1.5963466700033881 #
point $-1 54.568315683462018 24.955840871698715 -8.5655800026748494 #
point $-1 54.568315683462018 -24.955840871698715 -8.5655800026748494 #
straight-curve $-1 54.568315683462018 -24.955840871698715 0 0 0 -1 I I #
straight-curve $-1 54.568315683462018 24.955840871698715 0 0 0 -1 I I #
edge $-1 $238 -2.0700173457192079 $227 2.0700173457192079 $224 $269 forward 7 unknown #
straight-curve $-1 -63.928227951248957 -11.592333195158457 0 0 0 -1 I I #
straight-curve $-1 -59.248271817355487 -15.732367886596872 8.5655800026748494 1 0 0 I I #
point $-1 -63.928227951248957 -15.732367886596872 8.5655800026748494 #
point $-1 -63.928227951248957 -15.732367886596872 -8.5655800026748494 #
straight-curve $-1 -63.928227951248957 -13.662350540877664 -8.5655800026748494 0 1 0 I I #
point $-1 -63.928227951248957 -11.592333195158457 -8.5655800026748494 #
point $-1 -63.928227951248957 -11.592333195158457 8.5655800026748494 #
straight-curve $-1 0 -24.955840871698715 8.5655800026748494 1 0 0 I I #
straight-curve $-1 54.568315683462018 0 8.5655800026748494 0 1 0 I I #
point $-1 54.568315683462018 -24.955840871698715 8.5655800026748494 #
point $-1 45.349196997081485 -20.129755842263851 -2.1360359838324872 #
straight-curve $-1 -63.928227951248957 -13.662350540877664 8.5655800026748494 0 -1 0 I I #
End-of-ACIS-data 