500 0 6 0           
7 Unknown 11 ACIS 5.0 NT 24 Fri Mar 26 15:31:15 1999 
-1 9.9999999999999995e-007 1e-010 
body $-1 $6 $-1 $7 #
body $-1 $8 $-1 $9 #
body $-1 $10 $-1 $11 #
body $-1 $12 $-1 $13 #
body $-1 $14 $-1 $15 #
body $-1 $16 $-1 $17 #
lump $-1 $-1 $18 $0 #
transform $-1 1 0 0 0 1 0 0 0 1 58.981292153691214 30.529438267216868 7.1188459738302932 1 rotate no_reflect no_shear #
lump $-1 $-1 $19 $1 #
transform $-1 1 0 0 0 1 0 0 0 1 58.981292153691214 30.529438267216868 7.1188459738302932 1 rotate no_reflect no_shear #
lump $-1 $-1 $20 $2 #
transform $-1 1 0 0 0 1 0 0 0 1 58.981292153691214 30.529438267216868 7.1188459738302932 1 rotate no_reflect no_shear #
lump $-1 $-1 $21 $3 #
transform $-1 1 0 0 0 1 0 0 0 1 58.981292153691214 30.529438267216868 7.1188459738302932 1 rotate no_reflect no_shear #
lump $-1 $-1 $22 $4 #
transform $-1 1 0 0 0 1 0 0 0 1 58.981292153691214 30.529438267216868 7.1188459738302932 1 rotate no_reflect no_shear #
lump $-1 $-1 $23 $5 #
transform $-1 1 0 0 0 1 0 0 0 1 58.981292153691214 30.529438267216868 7.1188459738302932 1 rotate no_reflect no_shear #
shell $-1 $-1 $-1 $24 $-1 $6 #
shell $-1 $-1 $-1 $25 $-1 $8 #
shell $-1 $-1 $-1 $26 $-1 $10 #
shell $-1 $-1 $-1 $27 $-1 $12 #
shell $-1 $-1 $-1 $28 $-1 $14 #
shell $-1 $-1 $-1 $29 $-1 $16 #
face $-1 $30 $31 $18 $-1 $32 forward single #
face $-1 $33 $34 $19 $-1 $35 forward single #
face $-1 $36 $37 $20 $-1 $38 reversed single #
face $-1 $39 $40 $21 $-1 $41 forward single #
face $-1 $42 $43 $22 $-1 $44 forward single #
face $-1 $45 $46 $23 $-1 $47 forward single #
face $-1 $48 $49 $18 $-1 $50 reversed single #
loop $-1 $-1 $51 $24 #
plane-surface $-1 0 0 7.1188459738302932 0 0 1 1 0 0 forward_v I I I I #
face $-1 $52 $53 $19 $-1 $54 forward single #
loop $-1 $-1 $55 $25 #
plane-surface $-1 0 -30.529438267216868 0 0 1 0 0 0 1 forward_v I I I I #
face $-1 $56 $57 $20 $-1 $58 reversed single #
loop $-1 $-1 $59 $26 #
plane-surface $-1 61.892779384995734 -5.5179185982752035 168.99814379245524 0 -1 0 -0.71933980857756763 0 -0.69465836192734942 forward_v I I I I #
face $-1 $60 $61 $21 $-1 $62 forward single #
loop $-1 $63 $64 $27 #
cone-surface $-1 56.009684933140448 -13.022716825577792 4.0832971730372671 -0.71933980857756763 0 -0.69465836192734942 0.34732918096367471 0 -0.35966990428878381 1 I I 0 1 0.5 forward I I I I #
face $-1 $65 $66 $22 $-1 $67 forward single #
loop $-1 $68 $69 $28 #
cone-surface $-1 56.009684933140448 -10.208417490339322 4.0832971730372671 -0.71933980857756763 0 -0.69465836192734942 0.34732918096367471 0 -0.35966990428878381 1 I I 0 1 0.5 forward I I I I #
face $-1 $70 $71 $23 $-1 $72 forward single #
loop $-1 $73 $74 $29 #
cone-surface $-1 56.009684933140448 -7.3941181551008519 4.0832971730372671 -0.71933980857756763 0 -0.69465836192734942 0.34732918096367471 0 -0.35966990428878381 1 I I 0 1 0.5 forward I I I I #
face $-1 $75 $76 $18 $-1 $77 reversed single #
loop $-1 $-1 $78 $30 #
plane-surface $-1 0 0 -7.1188459738302932 0 0 1 1 0 0 forward_v I I I I #
coedge $-1 $79 $80 $81 $82 forward $31 $-1 #
face $-1 $83 $84 $19 $-1 $85 reversed single #
loop $-1 $-1 $86 $33 #
plane-surface $-1 0 0 7.1188459738302932 0 0 1 1 0 0 forward_v I I I I #
coedge $-1 $87 $88 $89 $90 forward $34 $-1 #
face $-1 $91 $92 $20 $-1 $93 reversed single #
loop $-1 $-1 $94 $36 #
plane-surface $-1 -22.962403429991923 -10.208417490339322 87.054448208772101 0.71933980857756763 0 0.69465836192734942 0.69465836192734942 0 -0.71933980857756763 forward_v I I I I #
coedge $-1 $95 $96 $97 $98 reversed $37 $-1 #
face $-1 $-1 $99 $21 $-1 $100 forward single #
loop $-1 $101 $102 $39 #
cone-surface $-1 55.233634575519389 -13.022716825577792 3.3338740717853277 -0.71933980857756763 0 -0.69465836192734942 0.17366459048183736 0 -0.17983495214439191 1 I I -0.70710678118654746 0.70710678118654746 0.25 forward I I I I #
loop $-1 $-1 $103 $27 #
coedge $-1 $64 $64 $104 $105 reversed $40 $-1 #
face $-1 $-1 $106 $22 $-1 $107 forward single #
loop $-1 $108 $109 $42 #
cone-surface $-1 55.233634575519389 -10.208417490339322 3.3338740717853277 -0.71933980857756763 0 -0.69465836192734942 0.17366459048183736 0 -0.17983495214439191 1 I I -0.70710678118654746 0.70710678118654746 0.25 forward I I I I #
loop $-1 $-1 $110 $28 #
coedge $-1 $69 $69 $111 $112 reversed $43 $-1 #
face $-1 $-1 $113 $23 $-1 $114 forward single #
loop $-1 $115 $116 $45 #
cone-surface $-1 55.233634575519389 -7.3941181551008519 3.3338740717853277 -0.71933980857756763 0 -0.69465836192734942 0.17366459048183736 0 -0.17983495214439191 1 I I -0.70710678118654746 0.70710678118654746 0.25 forward I I I I #
loop $-1 $-1 $117 $29 #
coedge $-1 $74 $74 $118 $119 reversed $46 $-1 #
face $-1 $120 $121 $18 $-1 $122 reversed single #
loop $-1 $-1 $123 $48 #
plane-surface $-1 0 -30.529438267216868 0 0 1 0 0 0 1 forward_v I I I I #
coedge $-1 $124 $125 $126 $127 forward $49 $-1 #
coedge $-1 $128 $51 $129 $130 forward $31 $-1 #
coedge $-1 $51 $128 $131 $132 forward $31 $-1 #
coedge $-1 $133 $134 $51 $82 reversed $135 $-1 #
edge $-1 $136 -30.529438267216868 $137 30.529438267216868 $81 $138 forward 7 unknown #
face $-1 $139 $140 $19 $-1 $141 reversed single #
loop $-1 $-1 $142 $52 #
plane-surface $-1 -58.981292153691214 0 0 1 0 0 0 0 -1 forward_v I I I I #
coedge $-1 $143 $144 $145 $146 forward $53 $-1 #
coedge $-1 $145 $55 $142 $147 reversed $34 $-1 #
coedge $-1 $55 $145 $148 $149 reversed $34 $-1 #
coedge $-1 $150 $151 $55 $90 reversed $140 $-1 #
edge $-1 $152 -58.981292153691214 $153 58.981292153691214 $89 $154 forward 7 unknown #
face $-1 $155 $156 $20 $-1 $157 reversed single #
loop $-1 $-1 $158 $56 #
plane-surface $-1 61.892779384995734 -14.89891638240344 168.99814379245524 0 1 0 0.71933980857756763 0 0.69465836192734942 forward_v I I I I #
coedge $-1 $159 $160 $161 $162 reversed $57 $-1 #
coedge $-1 $96 $59 $163 $164 reversed $37 $-1 #
coedge $-1 $59 $95 $159 $165 reversed $37 $-1 #
coedge $-1 $161 $166 $59 $98 forward $167 $-1 #
edge $-1 $168 -28.034902461193347 $169 -23.284118831045141 $97 $170 forward 7 unknown #
loop $-1 $-1 $104 $60 #
plane-surface $-1 -22.962403429991923 -10.208417490339322 87.054448208772101 0.71933980857756763 0 0.69465836192734942 0.69465836192734942 0 -0.71933980857756763 forward_v I I I I #
loop $-1 $-1 $171 $39 #
coedge $-1 $102 $102 $103 $172 reversed $61 $-1 #
coedge $-1 $103 $103 $102 $172 forward $63 $-1 #
coedge $-1 $104 $104 $64 $105 forward $99 $-1 #
edge $-1 $173 0 $173 6.2831853071796004 $104 $174 forward 7 unknown #
loop $-1 $-1 $111 $65 #
plane-surface $-1 -22.962403429991923 -10.208417490339322 87.054448208772101 0.71933980857756763 0 0.69465836192734942 0.69465836192734942 0 -0.71933980857756763 forward_v I I I I #
loop $-1 $-1 $175 $42 #
coedge $-1 $109 $109 $110 $176 reversed $66 $-1 #
coedge $-1 $110 $110 $109 $176 forward $68 $-1 #
coedge $-1 $111 $111 $69 $112 forward $106 $-1 #
edge $-1 $177 0 $177 6.2831853071796004 $111 $178 forward 7 unknown #
loop $-1 $-1 $118 $70 #
plane-surface $-1 -22.962403429991923 -10.208417490339322 87.054448208772101 0.71933980857756763 0 0.69465836192734942 0.69465836192734942 0 -0.71933980857756763 forward_v I I I I #
loop $-1 $-1 $179 $45 #
coedge $-1 $116 $116 $117 $180 reversed $71 $-1 #
coedge $-1 $117 $117 $116 $180 forward $73 $-1 #
coedge $-1 $118 $118 $74 $119 forward $113 $-1 #
edge $-1 $181 0 $181 6.2831853071796004 $118 $182 forward 7 unknown #
face $-1 $183 $184 $18 $-1 $185 reversed single #
loop $-1 $-1 $186 $75 #
plane-surface $-1 -58.981292153691214 0 0 1 0 0 0 0 -1 forward_v I I I I #
coedge $-1 $187 $131 $188 $189 forward $76 $-1 #
coedge $-1 $190 $78 $187 $191 forward $49 $-1 #
coedge $-1 $78 $190 $192 $193 forward $49 $-1 #
coedge $-1 $134 $133 $78 $127 reversed $135 $-1 #
edge $-1 $194 -30.529438267216868 $195 30.529438267216868 $126 $196 forward 7 unknown #
coedge $-1 $80 $79 $197 $198 forward $31 $-1 #
coedge $-1 $199 $200 $79 $130 reversed $184 $-1 #
edge $-1 $137 -58.981292153691214 $201 58.981292153691214 $129 $202 forward 7 unknown #
coedge $-1 $123 $203 $80 $132 reversed $76 $-1 #
edge $-1 $204 -58.981292153691214 $136 58.981292153691214 $131 $205 forward 7 unknown #
coedge $-1 $126 $81 $203 $206 forward $135 $-1 #
coedge $-1 $81 $126 $199 $207 reversed $135 $-1 #
loop $-1 $-1 $133 $183 #
vertex $-1 $82 $208 #
vertex $-1 $82 $209 #
straight-curve $-1 58.981292153691214 0 7.1188459738302932 0 1 0 I I #
face $-1 $210 $211 $19 $-1 $212 reversed single #
loop $-1 $-1 $150 $83 #
plane-surface $-1 0 -33.512366604988728 4.1188459738302932 0 0 1 1 0 0 forward_v I I I I #
coedge $-1 $213 $214 $87 $147 forward $84 $-1 #
coedge $-1 $215 $86 $214 $216 forward $53 $-1 #
coedge $-1 $86 $215 $217 $218 forward $53 $-1 #
coedge $-1 $88 $87 $86 $146 reversed $34 $-1 #
edge $-1 $219 -58.981292153691214 $220 58.981292153691214 $86 $221 forward 7 unknown #
edge $-1 $220 -7.1188459738302932 $153 -4.1188459738302932 $142 $222 forward 7 unknown #
coedge $-1 $217 $223 $88 $149 forward $224 $-1 #
edge $-1 $152 4.1188459738302932 $219 7.1188459738302932 $148 $225 forward 7 unknown #
coedge $-1 $226 $89 $223 $227 forward $140 $-1 #
coedge $-1 $89 $226 $213 $228 forward $140 $-1 #
vertex $-1 $149 $229 #
vertex $-1 $147 $230 #
straight-curve $-1 0 -30.529438267216868 4.1188459738302932 -1 0 0 I I #
face $-1 $-1 $167 $20 $-1 $231 forward single #
loop $-1 $-1 $232 $91 #
plane-surface $-1 58.981292153691214 0 0 -1 0 0 0 0 1 forward_v I I I I #
coedge $-1 $233 $234 $235 $236 reversed $92 $-1 #
coedge $-1 $237 $94 $96 $165 forward $57 $-1 #
coedge $-1 $94 $237 $233 $238 forward $57 $-1 #
coedge $-1 $235 $97 $94 $162 forward $167 $-1 #
edge $-1 $169 0.41370985310554254 $239 9.7947076372337794 $161 $240 forward 7 unknown #
coedge $-1 $241 $242 $95 $164 forward $156 $-1 #
edge $-1 $243 -82.29980650244319 $168 -77.380225922397329 $163 $244 forward 7 unknown #
edge $-1 $169 111.12356258026031 $243 117.96258430738244 $96 $245 forward 7 unknown #
coedge $-1 $97 $235 $241 $246 forward $167 $-1 #
loop $-1 $-1 $235 $155 #
vertex $-1 $164 $247 #
vertex $-1 $98 $248 #
straight-curve $-1 30.946389692497867 -5.5179185982752035 7.1188459738302896 -1 0 0 I I #
coedge $-1 $171 $171 $-1 $249 reversed $101 $-1 #
edge $-1 $250 0 $250 6.2831853071796004 $102 $251 forward 7 unknown #
vertex $-1 $105 $252 #
ellipse-curve $-1 56.605900338617111 -13.022716825577792 4.6590556838073676 0.71933980857756763 0 0.69465836192734942 0.34732918096367471 0 -0.35966990428878381 1 I I #
coedge $-1 $175 $175 $-1 $253 reversed $108 $-1 #
edge $-1 $254 0 $254 6.2831853071796004 $109 $255 forward 7 unknown #
vertex $-1 $112 $256 #
ellipse-curve $-1 56.605900338617111 -10.208417490339322 4.6590556838073676 0.71933980857756763 0 0.69465836192734942 0.34732918096367471 0 -0.35966990428878381 1 I I #
coedge $-1 $179 $179 $-1 $257 reversed $115 $-1 #
edge $-1 $258 0 $258 6.2831853071796004 $116 $259 forward 7 unknown #
vertex $-1 $119 $260 #
ellipse-curve $-1 56.605900338617111 -7.3941181551008519 4.6590556838073676 0.71933980857756763 0 0.69465836192734942 0.34732918096367471 0 -0.35966990428878381 1 I I #
face $-1 $-1 $135 $18 $-1 $261 reversed single #
loop $-1 $-1 $199 $120 #
plane-surface $-1 0 30.529438267216868 0 0 -1 0 0 0 -1 forward_v I I I I #
coedge $-1 $262 $197 $200 $263 forward $121 $-1 #
coedge $-1 $203 $123 $124 $191 reversed $76 $-1 #
coedge $-1 $197 $262 $123 $189 reversed $121 $-1 #
edge $-1 $204 -7.1188459738302932 $264 7.1188459738302932 $188 $265 forward 7 unknown #
coedge $-1 $125 $124 $262 $266 forward $49 $-1 #
edge $-1 $195 -58.981292153691214 $264 58.981292153691214 $187 $267 forward 7 unknown #
coedge $-1 $200 $199 $125 $193 reversed $184 $-1 #
edge $-1 $268 -58.981292153691214 $194 58.981292153691214 $192 $269 forward 7 unknown #
vertex $-1 $127 $270 #
vertex $-1 $206 $271 #
straight-curve $-1 58.981292153691214 0 -7.1188459738302932 0 -1 0 I I #
coedge $-1 $186 $188 $128 $198 reversed $121 $-1 #
edge $-1 $201 -30.529438267216868 $204 30.529438267216868 $197 $272 forward 7 unknown #
coedge $-1 $192 $129 $134 $207 forward $184 $-1 #
coedge $-1 $129 $192 $186 $263 reversed $184 $-1 #
vertex $-1 $130 $273 #
straight-curve $-1 0 30.529438267216868 7.1188459738302932 -1 0 0 I I #
coedge $-1 $131 $187 $133 $206 reversed $76 $-1 #
vertex $-1 $198 $274 #
straight-curve $-1 0 -30.529438267216868 7.1188459738302932 1 0 0 I I #
edge $-1 $136 -7.1188459738302932 $195 7.1188459738302932 $133 $275 forward 7 unknown #
edge $-1 $137 -7.1188459738302932 $194 7.1188459738302932 $134 $276 forward 7 unknown #
point $-1 58.981292153691214 -30.529438267216868 7.1188459738302932 #
point $-1 58.981292153691214 30.529438267216868 7.1188459738302932 #
face $-1 $-1 $224 $19 $-1 $277 reversed single #
loop $-1 $-1 $278 $139 #
plane-surface $-1 0 -36.495294942760587 5.6188459738302932 0 1 0 0 0 1 forward_v I I I I #
coedge $-1 $279 $142 $151 $228 reversed $84 $-1 #
coedge $-1 $142 $279 $143 $216 reversed $84 $-1 #
coedge $-1 $144 $143 $280 $281 forward $53 $-1 #
edge $-1 $220 30.529438267216868 $282 36.495294942760587 $214 $283 forward 7 unknown #
coedge $-1 $284 $148 $144 $218 reversed $224 $-1 #
edge $-1 $285 -36.495294942760587 $219 -30.529438267216868 $217 $286 forward 7 unknown #
vertex $-1 $149 $287 #
vertex $-1 $216 $288 #
straight-curve $-1 0 -30.529438267216868 7.1188459738302932 -1 0 0 I I #
straight-curve $-1 -58.981292153691214 -30.529438267216868 0 0 0 -1 I I #
coedge $-1 $148 $284 $150 $227 reversed $224 $-1 #
loop $-1 $-1 $148 $210 #
straight-curve $-1 58.981292153691214 -30.529438267216868 0 0 0 1 I I #
coedge $-1 $151 $150 $289 $290 forward $140 $-1 #
edge $-1 $152 -2.9829283377718561 $291 2.9829283377718596 $223 $292 forward 7 unknown #
edge $-1 $293 -2.9829283377718596 $153 2.9829283377718561 $213 $294 forward 7 unknown #
point $-1 58.981292153691214 -30.529438267216872 4.1188459738302932 #
point $-1 -58.981292153691214 -30.529438267216872 4.1188459738302932 #
plane-surface $-1 0 0 7.1188459738302932 0 0 1 1 0 0 forward_v I I I I #
coedge $-1 $242 $241 $234 $295 forward $156 $-1 #
coedge $-1 $234 $158 $160 $238 reversed $92 $-1 #
coedge $-1 $158 $233 $232 $295 reversed $92 $-1 #
coedge $-1 $166 $161 $158 $236 forward $167 $-1 #
edge $-1 $239 23.284118831045141 $296 28.034902461193347 $235 $297 forward 7 unknown #
coedge $-1 $160 $159 $242 $298 reversed $57 $-1 #
edge $-1 $299 -117.96258430738244 $239 -111.12356258026031 $233 $300 forward 7 unknown #
vertex $-1 $162 $301 #
straight-curve $-1 54.230508523543001 -5.1042087451696609 7.1188459738302967 0 -1 0 I I #
coedge $-1 $232 $163 $166 $246 reversed $156 $-1 #
coedge $-1 $163 $232 $237 $298 forward $156 $-1 #
vertex $-1 $164 $302 #
straight-curve $-1 58.981292153691214 -5.5179185982752035 84.499071896227619 0 0 1 I I #
straight-curve $-1 -22.962403429991923 -5.5179185982752035 87.054448208772101 0.69465836192734942 0 -0.71933980857756763 I I #
edge $-1 $296 -14.89891638240344 $168 -5.5179185982752035 $241 $303 forward 7 unknown #
point $-1 58.981292153691214 -5.5179185982752035 7.1188459738302932 #
point $-1 54.230508523543008 -5.5179185982752035 7.1188459738302896 #
edge $-1 $304 1 $304 0 $171 $-1 forward 7 unknown #
vertex $-1 $172 $305 #
ellipse-curve $-1 55.413469527663779 -13.022716825577792 3.5075386622671649 0.71933980857756763 0 0.69465836192734942 0.34732918096367471 0 -0.35966990428878381 1 I I #
point $-1 56.953229519580788 -13.022716825577792 4.2993857795185848 #
edge $-1 $306 1 $306 0 $175 $-1 forward 7 unknown #
vertex $-1 $176 $307 #
ellipse-curve $-1 55.413469527663779 -10.208417490339322 3.5075386622671649 0.71933980857756763 0 0.69465836192734942 0.34732918096367471 0 -0.35966990428878381 1 I I #
point $-1 56.953229519580788 -10.208417490339322 4.2993857795185848 #
edge $-1 $308 1 $308 0 $179 $-1 forward 7 unknown #
vertex $-1 $180 $309 #
ellipse-curve $-1 55.413469527663779 -7.3941181551008519 3.5075386622671649 0.71933980857756763 0 0.69465836192734942 0.34732918096367471 0 -0.35966990428878381 1 I I #
point $-1 56.953229519580788 -7.3941181551008519 4.2993857795185848 #
plane-surface $-1 58.981292153691214 0 0 -1 0 0 0 0 1 forward_v I I I I #
coedge $-1 $188 $186 $190 $266 reversed $121 $-1 #
edge $-1 $201 -7.1188459738302932 $268 7.1188459738302932 $200 $310 forward 7 unknown #
vertex $-1 $266 $311 #
straight-curve $-1 -58.981292153691214 -30.529438267216868 0 0 0 -1 I I #
edge $-1 $264 -30.529438267216868 $268 30.529438267216868 $262 $312 forward 7 unknown #
straight-curve $-1 0 -30.529438267216868 -7.1188459738302932 -1 0 0 I I #
vertex $-1 $193 $313 #
straight-curve $-1 0 30.529438267216868 -7.1188459738302932 1 0 0 I I #
point $-1 58.981292153691214 30.529438267216868 -7.1188459738302932 #
point $-1 58.981292153691214 -30.529438267216868 -7.1188459738302932 #
straight-curve $-1 -58.981292153691214 0 7.1188459738302932 0 -1 0 I I #
point $-1 -58.981292153691214 30.529438267216868 7.1188459738302932 #
point $-1 -58.981292153691214 -30.529438267216868 7.1188459738302932 #
straight-curve $-1 58.981292153691214 -30.529438267216868 0 0 0 -1 I I #
straight-curve $-1 58.981292153691214 30.529438267216868 0 0 0 -1 I I #
plane-surface $-1 58.981292153691214 0 0 -1 0 0 0 0 1 forward_v I I I I #
coedge $-1 $289 $280 $279 $314 forward $211 $-1 #
coedge $-1 $214 $213 $278 $314 reversed $84 $-1 #
coedge $-1 $278 $315 $215 $281 reversed $211 $-1 #
edge $-1 $282 -58.981292153691214 $285 58.981292153691214 $280 $316 forward 7 unknown #
vertex $-1 $216 $317 #
straight-curve $-1 -58.981292153691214 0 7.1188459738302932 0 -1 0 I I #
coedge $-1 $223 $217 $315 $318 forward $224 $-1 #
vertex $-1 $218 $319 #
straight-curve $-1 58.981292153691214 0 7.1188459738302932 0 1 0 I I #
point $-1 58.981292153691214 -30.529438267216868 7.1188459738302932 #
point $-1 -58.981292153691214 -30.529438267216868 7.1188459738302932 #
coedge $-1 $315 $278 $226 $290 reversed $211 $-1 #
edge $-1 $291 -58.981292153691214 $293 58.981292153691214 $289 $320 forward 7 unknown #
vertex $-1 $318 $321 #
straight-curve $-1 58.981292153691214 -33.512366604988728 4.1188459738302932 0 -1 0 I I #
vertex $-1 $228 $322 #
straight-curve $-1 -58.981292153691214 -33.512366604988728 4.1188459738302932 0 1 0 I I #
edge $-1 $296 77.380225922397329 $299 82.29980650244319 $232 $323 forward 7 unknown #
vertex $-1 $246 $324 #
straight-curve $-1 30.946389692497867 -14.89891638240344 7.1188459738302896 1 0 0 I I #
edge $-1 $299 -9.7947076372337794 $243 -0.41370985310554254 $242 $325 forward 7 unknown #
vertex $-1 $298 $326 #
straight-curve $-1 -22.962403429991923 -14.89891638240344 87.054448208772101 -0.69465836192734942 0 0.71933980857756763 I I #
point $-1 54.230508523543008 -14.89891638240344 7.1188459738302896 #
point $-1 58.981292153691214 -5.5179185982752035 2.1992653937844295 #
straight-curve $-1 58.981292153691214 0 7.1188459738302932 0 1 0 I I #
vertex $-1 $249 $327 #
point $-1 55.760798708627455 -13.022716825577792 3.1478687579783813 #
vertex $-1 $253 $328 #
point $-1 55.760798708627455 -10.208417490339322 3.1478687579783813 #
vertex $-1 $257 $329 #
point $-1 55.760798708627455 -7.3941181551008519 3.1478687579783813 #
straight-curve $-1 -58.981292153691214 30.529438267216868 0 0 0 -1 I I #
point $-1 -58.981292153691214 -30.529438267216868 -7.1188459738302932 #
straight-curve $-1 -58.981292153691214 0 -7.1188459738302932 0 1 0 I I #
point $-1 -58.981292153691214 30.529438267216868 -7.1188459738302932 #
edge $-1 $282 -1.5 $293 1.5 $279 $330 forward 7 unknown #
coedge $-1 $280 $289 $284 $318 reversed $211 $-1 #
straight-curve $-1 0 -36.495294942760587 7.1188459738302932 1 0 0 I I #
point $-1 -58.981292153691214 -36.495294942760587 7.1188459738302932 #
edge $-1 $285 -1.5 $291 1.5 $284 $331 forward 7 unknown #
point $-1 58.981292153691214 -36.495294942760587 7.1188459738302932 #
straight-curve $-1 0 -36.495294942760587 4.1188459738302932 -1 0 0 I I #
point $-1 58.981292153691214 -36.495294942760587 4.1188459738302932 #
point $-1 -58.981292153691214 -36.495294942760587 4.1188459738302932 #
straight-curve $-1 58.981292153691214 -14.89891638240344 84.499071896227619 0 0 -1 I I #
point $-1 58.981292153691214 -14.89891638240344 7.1188459738302932 #
straight-curve $-1 58.981292153691214 -5.1042087451696609 2.1992653937844366 0 1 0 I I #
point $-1 58.981292153691214 -14.89891638240344 2.1992653937844295 #
point $-1 55.053799623374999 -13.022716825577792 3.1602094813034904 #
point $-1 55.053799623374999 -10.208417490339322 3.1602094813034904 #
point $-1 55.053799623374999 -7.3941181551008519 3.1602094813034904 #
straight-curve $-1 -58.981292153691214 -36.495294942760587 5.6188459738302932 0 0 -1 I I #
straight-curve $-1 58.981292153691214 -36.495294942760587 5.6188459738302932 0 0 -1 I I #
End-of-ACIS-data 