500 0 11 0           
7 Unknown 11 ACIS 5.0 NT 24 Fri Mar 26 20:06:27 1999 
-1 9.9999999999999995e-007 1e-010 
body $-1 $11 $-1 $12 #
body $-1 $13 $-1 $14 #
body $-1 $15 $-1 $16 #
body $-1 $17 $-1 $18 #
body $-1 $19 $-1 $20 #
body $-1 $21 $-1 $22 #
body $-1 $23 $-1 $24 #
body $-1 $25 $-1 $26 #
body $-1 $27 $-1 $28 #
body $-1 $29 $-1 $30 #
body $-1 $31 $-1 $32 #
lump $-1 $-1 $33 $0 #
transform $-1 1 0 0 0 1 0 0 0 1 72.928250984221933 44.121068814997365 10.271980515826561 1 rotate no_reflect no_shear #
lump $-1 $-1 $34 $1 #
transform $-1 1 0 0 0 1 0 0 0 1 72.928250984221933 44.121068814997365 10.271980515826561 1 rotate no_reflect no_shear #
lump $-1 $-1 $35 $2 #
transform $-1 1 0 0 0 1 0 0 0 1 72.928250984221933 44.121068814997365 10.271980515826561 1 rotate no_reflect no_shear #
lump $-1 $-1 $36 $3 #
transform $-1 1 0 0 0 1 0 0 0 1 72.928250984221933 44.121068814997365 10.271980515826561 1 rotate no_reflect no_shear #
lump $-1 $-1 $37 $4 #
transform $-1 1 0 0 0 1 0 0 0 1 72.928250984221933 44.121068814997365 10.271980515826561 1 rotate no_reflect no_shear #
lump $-1 $-1 $38 $5 #
transform $-1 1 0 0 0 1 0 0 0 1 72.928250984221933 44.121068814997365 10.271980515826561 1 rotate no_reflect no_shear #
lump $-1 $-1 $39 $6 #
transform $-1 1 0 0 0 1 0 0 0 1 72.928250984221933 44.121068814997365 10.271980515826561 1 rotate no_reflect no_shear #
lump $-1 $-1 $40 $7 #
transform $-1 1 0 0 0 1 0 0 0 1 72.928250984221933 44.121068814997365 10.271980515826561 1 rotate no_reflect no_shear #
lump $-1 $-1 $41 $8 #
transform $-1 1 0 0 0 1 0 0 0 1 72.928250984221933 44.121068814997365 10.271980515826561 1 rotate no_reflect no_shear #
lump $-1 $-1 $42 $9 #
transform $-1 1 0 0 0 1 0 0 0 1 72.928250984221933 44.121068814997365 10.271980515826561 1 rotate no_reflect no_shear #
lump $-1 $-1 $43 $10 #
transform $-1 1 0 0 0 1 0 0 0 1 72.928250984221933 44.121068814997365 10.271980515826561 1 rotate no_reflect no_shear #
shell $-1 $-1 $-1 $44 $-1 $11 #
shell $-1 $-1 $-1 $45 $-1 $13 #
shell $-1 $-1 $-1 $46 $-1 $15 #
shell $-1 $-1 $-1 $47 $-1 $17 #
shell $-1 $-1 $-1 $48 $-1 $19 #
shell $-1 $-1 $-1 $49 $-1 $21 #
shell $-1 $-1 $-1 $50 $-1 $23 #
shell $-1 $-1 $-1 $51 $-1 $25 #
shell $-1 $-1 $-1 $52 $-1 $27 #
shell $-1 $-1 $-1 $53 $-1 $29 #
shell $-1 $-1 $-1 $54 $-1 $31 #
face $-1 $55 $56 $33 $-1 $57 forward single #
face $-1 $58 $59 $34 $-1 $60 reversed single #
face $-1 $61 $62 $35 $-1 $63 reversed single #
face $-1 $64 $65 $36 $-1 $66 reversed single #
face $-1 $67 $68 $37 $-1 $69 forward single #
face $-1 $70 $71 $38 $-1 $72 reversed single #
face $-1 $73 $74 $39 $-1 $75 forward single #
face $-1 $76 $77 $40 $-1 $78 reversed single #
face $-1 $79 $80 $41 $-1 $81 forward single #
face $-1 $82 $83 $42 $-1 $84 forward single #
face $-1 $85 $86 $43 $-1 $87 forward single #
face $-1 $88 $89 $33 $-1 $90 reversed single #
loop $-1 $-1 $91 $44 #
plane-surface $-1 0 0 10.271980515826561 0 0 1 1 0 0 forward_v I I I I #
face $-1 $92 $93 $34 $-1 $94 reversed single #
loop $-1 $-1 $95 $45 #
plane-surface $-1 -67.155831798307446 0 6.7090920196390815 0 0 1 1 0 0 forward_v I I I I #
face $-1 $96 $97 $35 $-1 $98 reversed single #
loop $-1 $-1 $99 $46 #
plane-surface $-1 67.155831798307446 0 6.7090920196390815 0 0 1 1 0 0 forward_v I I I I #
face $-1 $100 $101 $36 $-1 $102 reversed single #
loop $-1 $-1 $103 $47 #
plane-surface $-1 -9.1063319831430007 -165.04159032593634 83.090129103136505 -1 0 0 0 -0.82903758062907751 0.55919289150049634 forward_v I I I I #
face $-1 $104 $105 $37 $-1 $106 forward single #
loop $-1 $107 $108 $48 #
cone-surface $-1 -19.817097741721959 -38.012025362167371 3.7685339509246765 0 0.82903758062907751 -0.55919289150049634 2 0 0 1 I I 0 1 2 forward I I I I #
face $-1 $109 $110 $38 $-1 $111 reversed single #
loop $-1 $-1 $112 $49 #
plane-surface $-1 30.527863500300924 -165.04159032593634 83.090129103136505 -1 0 0 0 -0.82903758062907751 0.55919289150049634 forward_v I I I I #
face $-1 $113 $114 $39 $-1 $115 forward single #
loop $-1 $116 $117 $50 #
cone-surface $-1 19.817097741721966 -38.012025362167371 3.7685339509246765 0 0.82903758062907751 -0.55919289150049634 2 0 0 1 I I 0 1 2 forward I I I I #
face $-1 $118 $119 $40 $-1 $120 reversed single #
loop $-1 $-1 $121 $51 #
plane-surface $-1 48.233758188996518 112.98611194889835 159.25122388678187 1 0 0 0 -0.81915205242281985 -0.57357642473473569 forward_v I I I I #
face $-1 $122 $123 $41 $-1 $124 forward single #
loop $-1 $125 $126 $52 #
cone-surface $-1 50.863689073675801 40.791503679352097 6.165700178151547 0 -0.81915205242281985 -0.57357642473473569 1 0 0 1 I I 0 1 1 forward I I I I #
face $-1 $127 $128 $42 $-1 $129 forward single #
loop $-1 $130 $131 $53 #
cone-surface $-1 54.808585400694739 40.791503679352097 6.165700178151547 0 -0.81915205242281985 -0.57357642473473569 1 0 0 1 I I 0 1 1 forward I I I I #
face $-1 $132 $133 $43 $-1 $134 forward single #
loop $-1 $135 $136 $54 #
cone-surface $-1 58.753481727713677 40.791503679352097 6.165700178151547 0 -0.81915205242281985 -0.57357642473473569 1 0 0 1 I I 0 1 1 forward I I I I #
face $-1 $137 $138 $33 $-1 $139 reversed single #
loop $-1 $-1 $140 $55 #
plane-surface $-1 0 0 -10.271980515826561 0 0 1 1 0 0 forward_v I I I I #
coedge $-1 $141 $142 $143 $144 forward $56 $-1 #
face $-1 $145 $146 $34 $-1 $147 reversed single #
loop $-1 $-1 $148 $58 #
plane-surface $-1 -61.383412612392959 0 8.4905362677328231 -1 0 0 0 0 1 forward_v I I I I #
coedge $-1 $149 $150 $151 $152 forward $59 $-1 #
face $-1 $153 $154 $35 $-1 $155 forward single #
loop $-1 $-1 $156 $61 #
plane-surface $-1 61.383412612392959 0 8.4905362677328231 1 0 0 0 0 -1 forward_v I I I I #
coedge $-1 $157 $158 $159 $160 reversed $62 $-1 #
face $-1 $161 $162 $36 $-1 $163 reversed single #
loop $-1 $-1 $164 $64 #
plane-surface $-1 -19.817097741721959 -44.121068814997358 1.5282100232545446 0 -0.82903758062907751 0.55919289150049634 1 0 0 forward_v I I I I #
coedge $-1 $165 $166 $167 $168 reversed $65 $-1 #
face $-1 $-1 $169 $37 $-1 $170 forward single #
loop $-1 $171 $172 $67 #
cone-surface $-1 -19.817097741721959 -34.022818070142264 1.0777797408083014 0 0.82903758062907751 -0.55919289150049634 1 0 0 1 I I -0.70710678118654746 0.70710678118654746 1 forward I I I I #
loop $-1 $-1 $173 $48 #
coedge $-1 $108 $108 $174 $175 reversed $68 $-1 #
face $-1 $176 $177 $38 $-1 $178 reversed single #
loop $-1 $-1 $179 $70 #
plane-surface $-1 19.817097741721966 -44.121068814997358 1.5282100232545446 0 -0.82903758062907751 0.55919289150049634 1 0 0 forward_v I I I I #
coedge $-1 $180 $181 $182 $183 reversed $71 $-1 #
face $-1 $-1 $184 $39 $-1 $185 forward single #
loop $-1 $186 $187 $73 #
cone-surface $-1 19.817097741721966 -34.022818070142264 1.0777797408083014 0 0.82903758062907751 -0.55919289150049634 1 0 0 1 I I -0.70710678118654746 0.70710678118654746 1 forward I I I I #
loop $-1 $-1 $188 $50 #
coedge $-1 $117 $117 $189 $190 reversed $74 $-1 #
face $-1 $191 $192 $40 $-1 $193 forward single #
loop $-1 $-1 $194 $76 #
plane-surface $-1 54.808585400694739 -6.4925409977655022 75.591372963406897 0 0.81915205242281985 0.57357642473473569 1 0 0 forward_v I I I I #
coedge $-1 $195 $196 $197 $198 reversed $77 $-1 #
face $-1 $-1 $199 $41 $-1 $200 forward single #
loop $-1 $201 $202 $79 #
cone-surface $-1 50.863689073675801 39.490602622558605 5.2547994792125596 0 -0.81915205242281985 -0.57357642473473569 0.5 0 0 1 I I -0.70710678118654746 0.70710678118654746 0.5 forward I I I I #
loop $-1 $-1 $203 $52 #
coedge $-1 $126 $126 $204 $205 reversed $80 $-1 #
face $-1 $-1 $206 $42 $-1 $207 forward single #
loop $-1 $208 $209 $82 #
cone-surface $-1 54.808585400694739 39.490602622558605 5.2547994792125596 0 -0.81915205242281985 -0.57357642473473569 0.5 0 0 1 I I -0.70710678118654746 0.70710678118654746 0.5 forward I I I I #
loop $-1 $-1 $210 $53 #
coedge $-1 $131 $131 $211 $212 reversed $83 $-1 #
face $-1 $-1 $213 $43 $-1 $214 forward single #
loop $-1 $215 $216 $85 #
cone-surface $-1 58.753481727713677 39.490602622558605 5.2547994792125596 0 -0.81915205242281985 -0.57357642473473569 0.5 0 0 1 I I -0.70710678118654746 0.70710678118654746 0.5 forward I I I I #
loop $-1 $-1 $217 $54 #
coedge $-1 $136 $136 $218 $219 reversed $86 $-1 #
face $-1 $220 $221 $33 $-1 $222 reversed single #
loop $-1 $-1 $223 $88 #
plane-surface $-1 0 -44.121068814997365 0 0 1 0 0 0 1 forward_v I I I I #
coedge $-1 $224 $225 $226 $227 forward $89 $-1 #
coedge $-1 $228 $91 $229 $230 forward $56 $-1 #
coedge $-1 $91 $228 $231 $232 forward $56 $-1 #
coedge $-1 $233 $234 $91 $144 reversed $235 $-1 #
edge $-1 $236 -44.121068814997365 $237 44.121068814997365 $143 $238 forward 7 unknown #
face $-1 $239 $240 $34 $-1 $241 reversed single #
loop $-1 $-1 $242 $92 #
plane-surface $-1 0 44.121068814997365 0 0 -1 0 0 0 -1 forward_v I I I I #
coedge $-1 $151 $243 $244 $245 reversed $93 $-1 #
coedge $-1 $246 $95 $247 $248 reversed $59 $-1 #
coedge $-1 $95 $246 $249 $250 reversed $59 $-1 #
coedge $-1 $251 $148 $95 $152 reversed $93 $-1 #
edge $-1 $252 -44.121068814997365 $253 44.121068814997365 $151 $254 forward 7 unknown #
face $-1 $255 $256 $35 $-1 $257 reversed single #
loop $-1 $-1 $258 $96 #
plane-surface $-1 0 0 10.271980515826561 0 0 1 1 0 0 forward_v I I I I #
coedge $-1 $259 $260 $261 $262 reversed $97 $-1 #
coedge $-1 $263 $99 $264 $265 reversed $62 $-1 #
coedge $-1 $99 $263 $266 $267 reversed $62 $-1 #
coedge $-1 $268 $269 $99 $160 forward $270 $-1 #
edge $-1 $271 -44.121068814997365 $272 44.121068814997365 $159 $273 forward 7 unknown #
face $-1 $274 $275 $36 $-1 $276 forward single #
loop $-1 $-1 $277 $100 #
plane-surface $-1 -30.527863500300917 -165.04159032593634 83.090129103136505 1 0 0 0 0.82903758062907751 -0.55919289150049634 forward_v I I I I #
coedge $-1 $278 $279 $280 $281 reversed $101 $-1 #
coedge $-1 $166 $103 $282 $283 reversed $65 $-1 #
coedge $-1 $103 $165 $278 $284 reversed $65 $-1 #
coedge $-1 $280 $285 $103 $168 forward $275 $-1 #
edge $-1 $286 38.399726347970805 $287 44.297473830838747 $167 $288 forward 7 unknown #
loop $-1 $-1 $174 $104 #
plane-surface $-1 -19.817097741721959 -44.121068814997358 1.5282100232545446 0 -0.82903758062907751 0.55919289150049634 1 0 0 forward_v I I I I #
loop $-1 $-1 $289 $67 #
coedge $-1 $172 $172 $173 $290 reversed $105 $-1 #
coedge $-1 $173 $173 $172 $290 forward $107 $-1 #
coedge $-1 $174 $174 $108 $175 forward $169 $-1 #
edge $-1 $291 -1.4581901413394462e-016 $291 6.2831853071796004 $174 $292 forward 7 unknown #
face $-1 $293 $294 $38 $-1 $295 reversed single #
loop $-1 $-1 $296 $109 #
plane-surface $-1 9.1063319831430078 -165.04159032593634 83.090129103136505 1 0 0 0 0.82903758062907751 -0.55919289150049634 forward_v I I I I #
coedge $-1 $297 $298 $299 $300 reversed $110 $-1 #
coedge $-1 $181 $112 $301 $302 reversed $71 $-1 #
coedge $-1 $112 $180 $297 $303 reversed $71 $-1 #
coedge $-1 $299 $304 $112 $183 forward $305 $-1 #
edge $-1 $306 38.399726347970805 $307 44.297473830838747 $182 $308 forward 7 unknown #
loop $-1 $-1 $189 $113 #
plane-surface $-1 19.817097741721966 -44.121068814997358 1.5282100232545446 0 -0.82903758062907751 0.55919289150049634 1 0 0 forward_v I I I I #
loop $-1 $-1 $309 $73 #
coedge $-1 $187 $187 $188 $310 reversed $114 $-1 #
coedge $-1 $188 $188 $187 $310 forward $116 $-1 #
coedge $-1 $189 $189 $117 $190 forward $184 $-1 #
edge $-1 $311 -1.4581901413394462e-016 $311 6.2831853071796004 $189 $312 forward 7 unknown #
face $-1 $313 $314 $40 $-1 $315 forward single #
loop $-1 $-1 $197 $118 #
plane-surface $-1 0 0 10.271980515826561 0 0 1 1 0 0 forward_v I I I I #
coedge $-1 $316 $317 $318 $319 reversed $119 $-1 #
coedge $-1 $196 $121 $320 $321 reversed $77 $-1 #
coedge $-1 $121 $195 $316 $322 reversed $77 $-1 #
coedge $-1 $318 $323 $121 $198 forward $192 $-1 #
edge $-1 $324 12.371987159451812 $325 17.248467369578151 $197 $326 forward 7 unknown #
loop $-1 $-1 $204 $122 #
plane-surface $-1 54.808585400694739 -6.4925409977655022 75.591372963406897 0 0.81915205242281985 0.57357642473473569 1 0 0 forward_v I I I I #
loop $-1 $-1 $327 $79 #
coedge $-1 $202 $202 $203 $328 reversed $123 $-1 #
coedge $-1 $203 $203 $202 $328 forward $125 $-1 #
coedge $-1 $204 $204 $126 $205 forward $199 $-1 #
edge $-1 $329 2.1826595262450425e-015 $329 6.2831853071796022 $204 $330 forward 7 unknown #
loop $-1 $-1 $211 $127 #
plane-surface $-1 54.808585400694739 -6.4925409977655022 75.591372963406897 0 0.81915205242281985 0.57357642473473569 1 0 0 forward_v I I I I #
loop $-1 $-1 $331 $82 #
coedge $-1 $209 $209 $210 $332 reversed $128 $-1 #
coedge $-1 $210 $210 $209 $332 forward $130 $-1 #
coedge $-1 $211 $211 $131 $212 forward $206 $-1 #
edge $-1 $333 2.1826595262450425e-015 $333 6.2831853071796022 $211 $334 forward 7 unknown #
loop $-1 $-1 $218 $132 #
plane-surface $-1 54.808585400694739 -6.4925409977655022 75.591372963406897 0 0.81915205242281985 0.57357642473473569 1 0 0 forward_v I I I I #
loop $-1 $-1 $335 $85 #
coedge $-1 $216 $216 $217 $336 reversed $133 $-1 #
coedge $-1 $217 $217 $216 $336 forward $135 $-1 #
coedge $-1 $218 $218 $136 $219 forward $213 $-1 #
edge $-1 $337 2.1826595262450425e-015 $337 6.2831853071796022 $218 $338 forward 7 unknown #
face $-1 $339 $340 $33 $-1 $341 reversed single #
loop $-1 $-1 $342 $137 #
plane-surface $-1 -72.928250984221933 0 0 1 0 0 0 0 -1 forward_v I I I I #
coedge $-1 $343 $231 $344 $345 forward $138 $-1 #
coedge $-1 $346 $140 $343 $347 forward $89 $-1 #
coedge $-1 $140 $346 $348 $349 forward $89 $-1 #
coedge $-1 $234 $233 $140 $227 reversed $235 $-1 #
edge $-1 $350 -44.121068814997365 $351 44.121068814997365 $226 $352 forward 7 unknown #
coedge $-1 $142 $141 $353 $354 forward $56 $-1 #
coedge $-1 $355 $356 $141 $230 reversed $340 $-1 #
edge $-1 $237 -72.928250984221933 $357 72.928250984221933 $229 $358 forward 7 unknown #
coedge $-1 $223 $359 $142 $232 reversed $138 $-1 #
edge $-1 $360 -72.928250984221933 $236 72.928250984221933 $231 $361 forward 7 unknown #
coedge $-1 $226 $143 $359 $362 forward $235 $-1 #
coedge $-1 $143 $226 $355 $363 reversed $235 $-1 #
loop $-1 $-1 $233 $339 #
vertex $-1 $144 $364 #
vertex $-1 $144 $365 #
straight-curve $-1 72.928250984221933 0 10.271980515826561 0 1 0 I I #
face $-1 $366 $367 $34 $-1 $368 forward single #
loop $-1 $-1 $369 $145 #
plane-surface $-1 -72.928250984221933 0 0 1 0 0 0 0 -1 forward_v I I I I #
coedge $-1 $249 $370 $251 $371 forward $146 $-1 #
coedge $-1 $148 $251 $372 $373 reversed $93 $-1 #
coedge $-1 $374 $247 $148 $245 forward $375 $-1 #
edge $-1 $253 2.46382388577267 $376 6.0267123819601531 $244 $377 forward 7 unknown #
coedge $-1 $150 $149 $369 $378 reversed $59 $-1 #
coedge $-1 $244 $379 $149 $248 forward $375 $-1 #
edge $-1 $380 -39.35033508506821 $253 -27.805496713239236 $247 $381 forward 7 unknown #
coedge $-1 $382 $242 $150 $250 forward $146 $-1 #
edge $-1 $252 27.805496713239236 $383 39.35033508506821 $249 $384 forward 7 unknown #
coedge $-1 $243 $151 $242 $371 reversed $93 $-1 #
vertex $-1 $250 $385 #
vertex $-1 $248 $386 #
straight-curve $-1 -61.383412612392959 0 6.7090920196390815 0 -1 0 I I #
face $-1 $387 $388 $35 $-1 $389 reversed single #
loop $-1 $-1 $390 $153 #
plane-surface $-1 0 -44.121068814997365 0 0 1 0 0 0 1 forward_v I I I I #
coedge $-1 $391 $392 $260 $393 forward $154 $-1 #
coedge $-1 $394 $156 $263 $395 reversed $97 $-1 #
coedge $-1 $156 $394 $258 $393 reversed $97 $-1 #
coedge $-1 $396 $266 $156 $262 forward $388 $-1 #
edge $-1 $397 2.46382388577267 $398 6.0267123819601531 $261 $399 forward 7 unknown #
coedge $-1 $158 $157 $259 $395 forward $62 $-1 #
coedge $-1 $400 $390 $157 $265 forward $256 $-1 #
edge $-1 $401 27.805496713239236 $271 39.35033508506821 $264 $402 forward 7 unknown #
coedge $-1 $261 $403 $158 $267 forward $388 $-1 #
edge $-1 $272 -39.35033508506821 $397 -27.805496713239236 $266 $404 forward 7 unknown #
coedge $-1 $405 $159 $403 $406 reversed $270 $-1 #
coedge $-1 $159 $405 $400 $407 forward $270 $-1 #
loop $-1 $-1 $159 $387 #
vertex $-1 $265 $408 #
vertex $-1 $160 $409 #
straight-curve $-1 72.928250984221933 0 6.7090920196390815 0 1 0 I I #
face $-1 $-1 $410 $36 $-1 $411 reversed single #
loop $-1 $-1 $167 $161 #
plane-surface $-1 0 0 10.271980515826561 0 0 1 1 0 0 forward_v I I I I #
coedge $-1 $412 $413 $414 $415 reversed $162 $-1 #
coedge $-1 $416 $164 $166 $284 forward $101 $-1 #
coedge $-1 $164 $416 $412 $417 forward $101 $-1 #
coedge $-1 $414 $167 $164 $281 forward $275 $-1 #
edge $-1 $287 -0.80221688771797872 $418 20.619314629439938 $280 $419 forward 7 unknown #
coedge $-1 $420 $421 $165 $283 forward $410 $-1 #
edge $-1 $422 -40.016854528313715 $286 -31.273084035741689 $282 $423 forward 7 unknown #
edge $-1 $287 -10.546892803022516 $422 1.2625220606206639e-014 $166 $424 forward 7 unknown #
coedge $-1 $167 $414 $420 $425 forward $275 $-1 #
vertex $-1 $283 $426 #
vertex $-1 $168 $427 #
straight-curve $-1 -9.1063319831430007 -82.52079516296817 10.271980515826563 0 1 0 I I #
coedge $-1 $289 $289 $-1 $428 reversed $171 $-1 #
edge $-1 $429 0 $429 6.2831853071796004 $172 $430 forward 7 unknown #
vertex $-1 $175 $431 #
ellipse-curve $-1 -19.817097741721959 -41.172195073563394 5.9000952695405502 0 -0.82903758062907751 0.55919289150049634 2 0 0 1 I I #
face $-1 $-1 $305 $38 $-1 $432 forward single #
loop $-1 $-1 $433 $176 #
plane-surface $-1 0 -44.121068814997365 0 0 1 0 0 0 1 forward_v I I I I #
coedge $-1 $434 $435 $436 $437 reversed $177 $-1 #
coedge $-1 $438 $179 $181 $303 forward $110 $-1 #
coedge $-1 $179 $438 $434 $439 forward $110 $-1 #
coedge $-1 $436 $182 $179 $300 forward $305 $-1 #
edge $-1 $307 -20.619314629439941 $440 0.80221688771797517 $299 $441 forward 7 unknown #
coedge $-1 $442 $443 $180 $302 forward $294 $-1 #
edge $-1 $444 -40.016854528313715 $306 -31.273084035741689 $301 $445 forward 7 unknown #
edge $-1 $307 -10.546892803022516 $444 1.2625220606206639e-014 $181 $446 forward 7 unknown #
coedge $-1 $182 $436 $442 $447 forward $305 $-1 #
loop $-1 $-1 $436 $293 #
vertex $-1 $302 $448 #
vertex $-1 $183 $449 #
straight-curve $-1 30.527863500300924 -82.52079516296817 10.271980515826563 0 1 0 I I #
coedge $-1 $309 $309 $-1 $450 reversed $186 $-1 #
edge $-1 $451 0 $451 6.2831853071796004 $187 $452 forward 7 unknown #
vertex $-1 $190 $453 #
ellipse-curve $-1 19.817097741721966 -41.172195073563394 5.9000952695405502 0 -0.82903758062907751 0.55919289150049634 2 0 0 1 I I #
face $-1 $-1 $454 $40 $-1 $455 reversed single #
loop $-1 $-1 $456 $191 #
plane-surface $-1 61.383412612392959 0 8.4905362677328231 1 0 0 0 0 -1 forward_v I I I I #
coedge $-1 $457 $194 $196 $322 forward $119 $-1 #
coedge $-1 $194 $457 $456 $458 forward $119 $-1 #
coedge $-1 $459 $197 $194 $319 forward $192 $-1 #
edge $-1 $325 20.829465488649149 $460 33.97911991204559 $318 $461 forward 7 unknown #
coedge $-1 $462 $463 $195 $321 forward $454 $-1 #
edge $-1 $464 -76.317967129771176 $324 -69.35363142756438 $320 $465 forward 7 unknown #
edge $-1 $325 79.740253661556579 $464 88.242137629994744 $196 $466 forward 7 unknown #
coedge $-1 $197 $459 $462 $467 forward $192 $-1 #
vertex $-1 $321 $468 #
vertex $-1 $198 $469 #
straight-curve $-1 48.233758188996518 56.493055974449177 10.271980515826556 0 -1 0 I I #
coedge $-1 $327 $327 $-1 $470 reversed $201 $-1 #
edge $-1 $471 0 $471 6.2831853071796004 $202 $472 forward 7 unknown #
vertex $-1 $205 $473 #
ellipse-curve $-1 50.863689073675801 41.682828709934185 6.7898126647231694 0 0.81915205242281985 0.57357642473473569 1 0 0 1 I I #
coedge $-1 $331 $331 $-1 $474 reversed $208 $-1 #
edge $-1 $475 0 $475 6.2831853071796004 $209 $476 forward 7 unknown #
vertex $-1 $212 $477 #
ellipse-curve $-1 54.808585400694739 41.682828709934185 6.7898126647231694 0 0.81915205242281985 0.57357642473473569 1 0 0 1 I I #
coedge $-1 $335 $335 $-1 $478 reversed $215 $-1 #
edge $-1 $479 0 $479 6.2831853071796004 $216 $480 forward 7 unknown #
vertex $-1 $219 $481 #
ellipse-curve $-1 58.753481727713677 41.682828709934185 6.7898126647231694 0 0.81915205242281985 0.57357642473473569 1 0 0 1 I I #
face $-1 $-1 $235 $33 $-1 $482 reversed single #
loop $-1 $-1 $355 $220 #
plane-surface $-1 0 44.121068814997365 0 0 -1 0 0 0 -1 forward_v I I I I #
coedge $-1 $483 $353 $356 $484 forward $221 $-1 #
coedge $-1 $359 $223 $224 $347 reversed $138 $-1 #
coedge $-1 $353 $483 $223 $345 reversed $221 $-1 #
edge $-1 $360 -10.271980515826561 $485 10.271980515826561 $344 $486 forward 7 unknown #
coedge $-1 $225 $224 $483 $487 forward $89 $-1 #
edge $-1 $351 -72.928250984221933 $485 72.928250984221933 $343 $488 forward 7 unknown #
coedge $-1 $356 $355 $225 $349 reversed $340 $-1 #
edge $-1 $489 -72.928250984221933 $350 72.928250984221933 $348 $490 forward 7 unknown #
vertex $-1 $227 $491 #
vertex $-1 $362 $492 #
straight-curve $-1 72.928250984221933 0 -10.271980515826561 0 -1 0 I I #
coedge $-1 $342 $344 $228 $354 reversed $221 $-1 #
edge $-1 $357 -44.121068814997365 $360 44.121068814997365 $353 $493 forward 7 unknown #
coedge $-1 $348 $229 $234 $363 forward $340 $-1 #
coedge $-1 $229 $348 $342 $484 reversed $340 $-1 #
vertex $-1 $230 $494 #
straight-curve $-1 0 44.121068814997365 10.271980515826561 -1 0 0 I I #
coedge $-1 $231 $343 $233 $362 reversed $138 $-1 #
vertex $-1 $354 $495 #
straight-curve $-1 0 -44.121068814997365 10.271980515826561 1 0 0 I I #
edge $-1 $236 -10.271980515826561 $351 10.271980515826561 $233 $496 forward 7 unknown #
edge $-1 $237 -10.271980515826561 $350 10.271980515826561 $234 $497 forward 7 unknown #
point $-1 72.928250984221933 -44.121068814997365 10.271980515826561 #
point $-1 72.928250984221933 44.121068814997365 10.271980515826561 #
face $-1 $-1 $375 $34 $-1 $498 reversed single #
loop $-1 $-1 $372 $239 #
plane-surface $-1 0 0 10.271980515826561 0 0 1 1 0 0 forward_v I I I I #
coedge $-1 $499 $500 $246 $378 forward $240 $-1 #
coedge $-1 $242 $382 $501 $502 reversed $146 $-1 #
edge $-1 $503 -6.0267123819601531 $252 -2.46382388577267 $242 $504 forward 7 unknown #
coedge $-1 $501 $505 $243 $373 forward $367 $-1 #
edge $-1 $376 -44.121068814997365 $503 44.121068814997365 $372 $506 forward 7 unknown #
coedge $-1 $379 $244 $505 $507 reversed $375 $-1 #
loop $-1 $-1 $244 $366 #
vertex $-1 $245 $508 #
straight-curve $-1 -61.383412612392959 -44.121068814997365 4.2452681338664116 0 0 1 I I #
edge $-1 $383 -44.121068814997365 $380 44.121068814997365 $369 $509 forward 7 unknown #
coedge $-1 $247 $374 $499 $510 forward $375 $-1 #
vertex $-1 $378 $511 #
straight-curve $-1 -33.577915899153723 -44.121068814997365 6.7090920196390815 1 0 0 I I #
coedge $-1 $370 $249 $500 $512 reversed $146 $-1 #
vertex $-1 $378 $513 #
straight-curve $-1 -33.577915899153723 44.121068814997365 6.7090920196390815 -1 0 0 I I #
point $-1 -61.383412612392959 44.121068814997365 6.7090920196390815 #
point $-1 -61.383412612392959 -44.121068814997365 6.7090920196390815 #
face $-1 $-1 $270 $35 $-1 $514 reversed single #
loop $-1 $-1 $261 $255 #
plane-surface $-1 0 44.121068814997365 0 0 -1 0 0 0 -1 forward_v I I I I #
coedge $-1 $264 $515 $394 $516 forward $256 $-1 #
coedge $-1 $517 $258 $515 $518 forward $154 $-1 #
coedge $-1 $258 $517 $396 $519 forward $154 $-1 #
edge $-1 $398 -44.121068814997365 $520 44.121068814997365 $258 $521 forward 7 unknown #
coedge $-1 $260 $259 $390 $516 reversed $97 $-1 #
edge $-1 $401 -44.121068814997365 $397 44.121068814997365 $259 $522 forward 7 unknown #
coedge $-1 $403 $261 $392 $519 reversed $388 $-1 #
vertex $-1 $267 $523 #
vertex $-1 $262 $524 #
straight-curve $-1 61.383412612392959 44.121068814997365 4.2452681338664116 0 0 1 I I #
coedge $-1 $515 $264 $269 $407 reversed $256 $-1 #
vertex $-1 $265 $525 #
straight-curve $-1 33.577915899153723 -44.121068814997365 6.7090920196390815 1 0 0 I I #
coedge $-1 $266 $396 $268 $406 forward $388 $-1 #
straight-curve $-1 33.577915899153723 44.121068814997365 6.7090920196390815 -1 0 0 I I #
coedge $-1 $269 $268 $517 $526 reversed $270 $-1 #
edge $-1 $527 -10.271980515826561 $272 -6.7090920196390815 $268 $528 forward 7 unknown #
edge $-1 $529 -10.271980515826561 $271 -6.7090920196390815 $269 $530 forward 7 unknown #
point $-1 72.928250984221933 -44.121068814997365 6.7090920196390815 #
point $-1 72.928250984221933 44.121068814997365 6.7090920196390815 #
loop $-1 $-1 $282 $274 #
plane-surface $-1 0 -44.121068814997365 0 0 1 0 0 0 1 forward_v I I I I #
coedge $-1 $413 $277 $279 $417 reversed $162 $-1 #
coedge $-1 $277 $412 $531 $532 reversed $162 $-1 #
coedge $-1 $285 $280 $277 $415 forward $275 $-1 #
edge $-1 $418 -44.297473830838747 $533 -38.399726347970805 $414 $534 forward 7 unknown #
coedge $-1 $279 $278 $421 $535 reversed $101 $-1 #
edge $-1 $536 -1.2625220606206639e-014 $418 10.546892803022516 $412 $537 forward 7 unknown #
vertex $-1 $281 $538 #
straight-curve $-1 -9.9085488708609795 -38.22332133212943 10.271980515826561 -1 0 0 I I #
coedge $-1 $531 $282 $285 $425 reversed $410 $-1 #
coedge $-1 $282 $531 $416 $535 forward $410 $-1 #
vertex $-1 $283 $539 #
straight-curve $-1 -9.1063319831430007 -44.121068814997365 41.545064551568252 0 0 1 I I #
straight-curve $-1 -9.1063319831430007 -44.121068814997358 1.5282100232545446 0 -0.55919289150049634 -0.82903758062907751 I I #
edge $-1 $533 -30.527863500300917 $286 -9.1063319831430007 $420 $540 forward 7 unknown #
point $-1 -9.1063319831430007 -44.121068814997365 10.271980515826561 #
point $-1 -9.1063319831430007 -38.223321332129423 10.271980515826561 #
edge $-1 $541 1 $541 0 $289 $-1 forward 7 unknown #
vertex $-1 $290 $542 #
ellipse-curve $-1 -19.817097741721959 -34.851855650771341 1.6369726323087979 0 -0.82903758062907751 0.55919289150049634 2 0 0 1 I I #
point $-1 -17.817097741721959 -41.172195073563401 5.9000952695405546 #
plane-surface $-1 0 0 10.271980515826561 0 0 1 1 0 0 forward_v I I I I #
coedge $-1 $443 $442 $435 $543 forward $294 $-1 #
coedge $-1 $435 $296 $298 $439 reversed $177 $-1 #
coedge $-1 $296 $434 $433 $543 reversed $177 $-1 #
coedge $-1 $304 $299 $296 $437 forward $305 $-1 #
edge $-1 $440 -44.297473830838747 $544 -38.399726347970805 $436 $545 forward 7 unknown #
coedge $-1 $298 $297 $443 $546 reversed $110 $-1 #
edge $-1 $547 -1.2625220606206639e-014 $440 10.546892803022516 $434 $548 forward 7 unknown #
vertex $-1 $300 $549 #
straight-curve $-1 9.908548870860983 -38.22332133212943 10.271980515826561 -1 0 0 I I #
coedge $-1 $433 $301 $304 $447 reversed $294 $-1 #
coedge $-1 $301 $433 $438 $546 forward $294 $-1 #
vertex $-1 $302 $550 #
straight-curve $-1 30.527863500300924 -44.121068814997365 41.545064551568252 0 0 1 I I #
straight-curve $-1 30.527863500300924 -44.121068814997358 1.5282100232545446 0 -0.55919289150049634 -0.82903758062907751 I I #
edge $-1 $544 9.1063319831430078 $306 30.527863500300924 $442 $551 forward 7 unknown #
point $-1 30.527863500300924 -44.121068814997365 10.271980515826561 #
point $-1 30.527863500300924 -38.223321332129423 10.271980515826561 #
edge $-1 $552 1 $552 0 $309 $-1 forward 7 unknown #
vertex $-1 $310 $553 #
ellipse-curve $-1 19.817097741721966 -34.851855650771341 1.6369726323087979 0 -0.82903758062907751 0.55919289150049634 2 0 0 1 I I #
point $-1 21.817097741721966 -41.172195073563401 5.9000952695405546 #
loop $-1 $-1 $320 $313 #
plane-surface $-1 0 44.121068814997365 0 0 -1 0 0 0 -1 forward_v I I I I #
coedge $-1 $554 $555 $317 $458 reversed $314 $-1 #
coedge $-1 $317 $316 $463 $556 reversed $119 $-1 #
edge $-1 $557 -88.242137629994744 $460 -79.740253661556579 $456 $558 forward 7 unknown #
coedge $-1 $323 $318 $555 $559 forward $192 $-1 #
vertex $-1 $559 $560 #
straight-curve $-1 27.404292700347369 39.244588604871026 10.271980515826563 1 0 0 I I #
coedge $-1 $561 $320 $323 $467 reversed $454 $-1 #
coedge $-1 $320 $561 $457 $556 forward $454 $-1 #
vertex $-1 $321 $562 #
straight-curve $-1 48.233758188996518 44.121068814997365 79.625611943390936 0 0 1 I I #
straight-curve $-1 48.233758188996518 -6.4925409977655022 75.591372963406897 0 0.57357642473473569 -0.81915205242281985 I I #
edge $-1 $563 -61.383412612392959 $324 -48.233758188996518 $462 $564 forward 7 unknown #
point $-1 48.233758188996518 44.121068814997365 10.271980515826561 #
point $-1 48.233758188996518 39.244588604871026 10.271980515826556 #
edge $-1 $565 1 $565 0 $327 $-1 forward 7 unknown #
vertex $-1 $328 $566 #
ellipse-curve $-1 50.863689073675801 39.900178648770016 5.5415876915799274 0 0.81915205242281985 0.57357642473473569 1 0 0 1 I I #
point $-1 51.863689073675801 41.682828709934185 6.7898126647231667 #
edge $-1 $567 1 $567 0 $331 $-1 forward 7 unknown #
vertex $-1 $332 $568 #
ellipse-curve $-1 54.808585400694739 39.900178648770016 5.5415876915799274 0 0.81915205242281985 0.57357642473473569 1 0 0 1 I I #
point $-1 55.808585400694739 41.682828709934185 6.7898126647231667 #
edge $-1 $569 1 $569 0 $335 $-1 forward 7 unknown #
vertex $-1 $336 $570 #
ellipse-curve $-1 58.753481727713677 39.900178648770016 5.5415876915799274 0 0.81915205242281985 0.57357642473473569 1 0 0 1 I I #
point $-1 59.753481727713677 41.682828709934185 6.7898126647231667 #
plane-surface $-1 72.928250984221933 0 0 -1 0 0 0 0 1 forward_v I I I I #
coedge $-1 $344 $342 $346 $487 reversed $221 $-1 #
edge $-1 $357 -10.271980515826561 $489 10.271980515826561 $356 $571 forward 7 unknown #
vertex $-1 $487 $572 #
straight-curve $-1 -72.928250984221933 -44.121068814997365 0 0 0 -1 I I #
edge $-1 $485 -44.121068814997365 $489 44.121068814997365 $483 $573 forward 7 unknown #
straight-curve $-1 0 -44.121068814997365 -10.271980515826561 -1 0 0 I I #
vertex $-1 $349 $574 #
straight-curve $-1 0 44.121068814997365 -10.271980515826561 1 0 0 I I #
point $-1 72.928250984221933 44.121068814997365 -10.271980515826561 #
point $-1 72.928250984221933 -44.121068814997365 -10.271980515826561 #
straight-curve $-1 -72.928250984221933 0 10.271980515826561 0 -1 0 I I #
point $-1 -72.928250984221933 44.121068814997365 10.271980515826561 #
point $-1 -72.928250984221933 -44.121068814997365 10.271980515826561 #
straight-curve $-1 72.928250984221933 -44.121068814997365 0 0 0 -1 I I #
straight-curve $-1 72.928250984221933 44.121068814997365 0 0 0 -1 I I #
plane-surface $-1 0 -44.121068814997365 0 0 1 0 0 0 1 forward_v I I I I #
coedge $-1 $575 $369 $379 $510 reversed $240 $-1 #
coedge $-1 $369 $575 $382 $512 forward $240 $-1 #
coedge $-1 $576 $372 $370 $502 forward $367 $-1 #
edge $-1 $503 61.383412612392959 $577 72.928250984221933 $370 $578 forward 7 unknown #
vertex $-1 $502 $579 #
straight-curve $-1 -61.383412612392959 44.121068814997365 4.2452681338664116 0 0 -1 I I #
coedge $-1 $372 $576 $374 $507 forward $367 $-1 #
straight-curve $-1 -61.383412612392959 0 10.271980515826561 0 1 0 I I #
edge $-1 $580 -72.928250984221933 $376 -61.383412612392959 $374 $581 forward 7 unknown #
point $-1 -61.383412612392959 -44.121068814997365 10.271980515826565 #
straight-curve $-1 -72.928250984221933 0 6.7090920196390815 0 -1 0 I I #
edge $-1 $580 -10.271980515826561 $380 -6.7090920196390815 $499 $582 forward 7 unknown #
point $-1 -72.928250984221933 -44.121068814997365 6.7090920196390815 #
edge $-1 $577 -10.271980515826561 $383 -6.7090920196390815 $382 $583 forward 7 unknown #
point $-1 -72.928250984221933 44.121068814997365 6.7090920196390815 #
plane-surface $-1 72.928250984221933 0 0 -1 0 0 0 0 1 forward_v I I I I #
coedge $-1 $390 $400 $391 $518 reversed $256 $-1 #
edge $-1 $520 -6.0267123819601531 $401 -2.46382388577267 $390 $584 forward 7 unknown #
coedge $-1 $392 $391 $405 $526 forward $154 $-1 #
edge $-1 $520 61.383412612392959 $529 72.928250984221933 $515 $585 forward 7 unknown #
edge $-1 $527 -72.928250984221933 $398 -61.383412612392959 $396 $586 forward 7 unknown #
vertex $-1 $518 $587 #
straight-curve $-1 61.383412612392959 0 10.271980515826561 0 -1 0 I I #
straight-curve $-1 61.383412612392959 0 6.7090920196390815 0 1 0 I I #
point $-1 61.383412612392959 44.121068814997365 6.7090920196390815 #
point $-1 61.383412612392959 44.121068814997365 10.271980515826565 #
point $-1 61.383412612392959 -44.121068814997365 6.7090920196390815 #
edge $-1 $529 -44.121068814997365 $527 44.121068814997365 $405 $588 forward 7 unknown #
vertex $-1 $526 $589 #
straight-curve $-1 72.928250984221933 44.121068814997365 0 0 0 -1 I I #
vertex $-1 $526 $590 #
straight-curve $-1 72.928250984221933 -44.121068814997365 0 0 0 -1 I I #
coedge $-1 $421 $420 $413 $532 forward $410 $-1 #
edge $-1 $533 31.273084035741689 $536 40.016854528313715 $531 $591 forward 7 unknown #
vertex $-1 $425 $592 #
straight-curve $-1 -30.527863500300917 -82.52079516296817 10.271980515826563 0 -1 0 I I #
edge $-1 $536 -20.619314629439938 $422 0.80221688771797872 $421 $593 forward 7 unknown #
vertex $-1 $535 $594 #
straight-curve $-1 -30.527863500300917 -44.121068814997358 1.5282100232545446 0 0.55919289150049634 0.82903758062907751 I I #
point $-1 -30.527863500300917 -38.223321332129423 10.271980515826561 #
point $-1 -9.1063319831430007 -44.121068814997365 1.5282100232545341 #
straight-curve $-1 0 -44.121068814997365 10.271980515826561 1 0 0 I I #
vertex $-1 $428 $595 #
point $-1 -17.817097741721959 -34.851855650771341 1.6369726323087979 #
edge $-1 $544 31.273084035741689 $547 40.016854528313715 $433 $596 forward 7 unknown #
vertex $-1 $447 $597 #
straight-curve $-1 9.1063319831430078 -82.52079516296817 10.271980515826563 0 -1 0 I I #
edge $-1 $547 -0.80221688771797517 $444 20.619314629439941 $443 $598 forward 7 unknown #
vertex $-1 $546 $599 #
straight-curve $-1 9.1063319831430078 -44.121068814997358 1.5282100232545446 0 0.55919289150049634 0.82903758062907751 I I #
point $-1 9.1063319831430078 -38.223321332129423 10.271980515826561 #
point $-1 30.527863500300924 -44.121068814997365 1.5282100232545341 #
straight-curve $-1 0 -44.121068814997365 10.271980515826561 1 0 0 I I #
vertex $-1 $450 $600 #
point $-1 21.817097741721966 -34.851855650771341 1.6369726323087979 #
coedge $-1 $555 $456 $561 $601 reversed $314 $-1 #
coedge $-1 $456 $554 $459 $559 reversed $314 $-1 #
edge $-1 $557 -33.97911991204559 $464 -20.829465488649149 $463 $602 forward 7 unknown #
vertex $-1 $601 $603 #
straight-curve $-1 61.383412612392959 -6.4925409977655022 75.591372963406897 0 -0.57357642473473569 0.81915205242281985 I I #
edge $-1 $460 39.244588604871026 $563 44.121068814997365 $459 $604 forward 7 unknown #
point $-1 61.383412612392959 39.244588604871026 10.271980515826556 #
coedge $-1 $463 $462 $554 $601 forward $454 $-1 #
point $-1 48.233758188996518 44.121068814997365 3.3076448136197598 #
vertex $-1 $467 $605 #
straight-curve $-1 0 44.121068814997365 10.271980515826561 -1 0 0 I I #
vertex $-1 $470 $606 #
point $-1 51.863689073675801 39.900178648770016 5.5415876915799274 #
vertex $-1 $474 $607 #
point $-1 55.808585400694739 39.900178648770016 5.5415876915799274 #
vertex $-1 $478 $608 #
point $-1 59.753481727713677 39.900178648770016 5.5415876915799274 #
straight-curve $-1 -72.928250984221933 44.121068814997365 0 0 0 -1 I I #
point $-1 -72.928250984221933 -44.121068814997365 -10.271980515826561 #
straight-curve $-1 -72.928250984221933 0 -10.271980515826561 0 1 0 I I #
point $-1 -72.928250984221933 44.121068814997365 -10.271980515826561 #
coedge $-1 $500 $499 $576 $609 reversed $240 $-1 #
coedge $-1 $505 $501 $575 $609 forward $367 $-1 #
vertex $-1 $502 $610 #
straight-curve $-1 0 44.121068814997365 10.271980515826561 -1 0 0 I I #
point $-1 -61.383412612392959 44.121068814997365 10.271980515826565 #
vertex $-1 $609 $611 #
straight-curve $-1 0 -44.121068814997365 10.271980515826561 1 0 0 I I #
straight-curve $-1 -72.928250984221933 -44.121068814997365 0 0 0 -1 I I #
straight-curve $-1 -72.928250984221933 44.121068814997365 0 0 0 -1 I I #
straight-curve $-1 61.383412612392959 -44.121068814997365 4.2452681338664116 0 0 -1 I I #
straight-curve $-1 0 -44.121068814997365 10.271980515826561 1 0 0 I I #
straight-curve $-1 0 44.121068814997365 10.271980515826561 -1 0 0 I I #
point $-1 61.383412612392959 -44.121068814997365 10.271980515826565 #
straight-curve $-1 72.928250984221933 0 10.271980515826561 0 1 0 I I #
point $-1 72.928250984221933 44.121068814997365 10.271980515826561 #
point $-1 72.928250984221933 -44.121068814997365 10.271980515826561 #
straight-curve $-1 -30.527863500300917 -44.121068814997365 41.545064551568252 0 0 -1 I I #
point $-1 -30.527863500300917 -44.121068814997365 10.271980515826561 #
straight-curve $-1 -9.9085488708609795 -44.121068814997365 1.5282100232545255 1 0 0 I I #
point $-1 -30.527863500300917 -44.121068814997365 1.5282100232545341 #
point $-1 -19.817097741721959 -33.193780489513188 0.51858684930780508 #
straight-curve $-1 9.1063319831430078 -44.121068814997365 41.545064551568252 0 0 -1 I I #
point $-1 9.1063319831430078 -44.121068814997365 10.271980515826561 #
straight-curve $-1 9.908548870860983 -44.121068814997365 1.5282100232545255 1 0 0 I I #
point $-1 9.1063319831430078 -44.121068814997365 1.5282100232545341 #
point $-1 19.817097741721966 -33.193780489513188 0.51858684930780508 #
edge $-1 $563 69.353631427564366 $557 76.317967129771176 $561 $612 forward 7 unknown #
straight-curve $-1 27.404292700347369 44.121068814997365 3.3076448136197456 -1 0 0 I I #
point $-1 61.383412612392959 44.121068814997365 3.3076448136197598 #
straight-curve $-1 61.383412612392959 0 10.271980515826561 0 1 0 I I #
point $-1 61.383412612392959 44.121068814997365 10.271980515826565 #
point $-1 50.863689073675801 39.081026596347193 4.9680112668451919 #
point $-1 54.808585400694739 39.081026596347193 4.9680112668451919 #
point $-1 58.753481727713677 39.081026596347193 4.9680112668451919 #
edge $-1 $577 -44.121068814997365 $580 44.121068814997365 $575 $613 forward 7 unknown #
point $-1 -72.928250984221933 44.121068814997365 10.271980515826561 #
point $-1 -72.928250984221933 -44.121068814997365 10.271980515826561 #
straight-curve $-1 61.383412612392959 44.121068814997365 79.625611943390936 0 0 -1 I I #
straight-curve $-1 -72.928250984221933 0 10.271980515826561 0 -1 0 I I #
End-of-ACIS-data 