500 0 16 0           
7 Unknown 11 ACIS 5.0 NT 24 Thu Mar 25 16:35:10 1999 
-1 9.9999999999999995e-007 1e-010 
body $-1 $16 $-1 $17 #
body $-1 $18 $-1 $19 #
body $-1 $20 $-1 $21 #
body $-1 $22 $-1 $23 #
body $-1 $24 $-1 $25 #
body $-1 $26 $-1 $27 #
body $-1 $28 $-1 $29 #
body $-1 $30 $-1 $31 #
body $-1 $32 $-1 $33 #
body $-1 $34 $-1 $35 #
body $-1 $36 $-1 $37 #
body $-1 $38 $-1 $39 #
body $-1 $40 $-1 $41 #
body $-1 $42 $-1 $43 #
body $-1 $44 $-1 $45 #
body $-1 $46 $-1 $47 #
lump $-1 $-1 $48 $0 #
transform $-1 1 0 0 0 1 0 0 0 1 41.297647022919399 26.50702209928378 12.540740970852898 1 rotate no_reflect no_shear #
lump $-1 $-1 $49 $1 #
transform $-1 0.62932038083071107 0 -0.77714596973225614 0 1 0 0.77714596973225614 0 0.62932038083071107 94.804992028661189 29.966453914153018 132.33126103872414 1 rotate no_reflect no_shear #
lump $-1 $-1 $50 $2 #
transform $-1 0.62932038083071107 0 -0.77714596973225614 0 -1 0 -0.77714596973225614 0 -0.62932038083071107 76.428834797684331 28.193148122493866 18.553019464104757 1 rotate no_reflect no_shear #
lump $-1 $-1 $51 $3 #
transform $-1 0.62932038083071107 0 -0.77714596973225614 0 -1 0 -0.77714596973225614 0 -0.62932038083071107 76.428834797684331 31.739759705812165 18.553019464104757 1 rotate no_reflect no_shear #
lump $-1 $-1 $52 $4 #
transform $-1 0.69465836192734942 0 0.71933980857756763 0 1 0 -0.71933980857756763 0 0.69465836192734942 -59.414083008341592 7.709936410579517 76.347888955878943 1 rotate no_reflect no_shear #
lump $-1 $-1 $53 $5 #
transform $-1 0.69465836192734942 0 0.71933980857756763 0 -1 0 0.71933980857756763 0 -0.69465836192734942 4.1232485051619463 6.2724963862410297 20.893692241226056 1 rotate no_reflect no_shear #
lump $-1 $-1 $54 $6 #
transform $-1 0.69465836192734942 0 0.71933980857756763 0 -1 0 0.71933980857756763 0 -0.69465836192734942 4.1232485051619463 9.1473764349180051 20.893692241226056 1 rotate no_reflect no_shear #
lump $-1 $-1 $55 $7 #
transform $-1 0.69465836192734942 0 0.71933980857756763 0 1 0 -0.71933980857756763 0 0.69465836192734942 -59.414083008341592 20.963447460221406 76.347888955878943 1 rotate no_reflect no_shear #
lump $-1 $-1 $56 $8 #
transform $-1 0.69465836192734942 0 0.71933980857756763 0 -1 0 0.71933980857756763 0 -0.69465836192734942 4.1232485051619463 19.526007435882921 20.893692241226056 1 rotate no_reflect no_shear #
lump $-1 $-1 $57 $9 #
transform $-1 0.69465836192734942 0 0.71933980857756763 0 -1 0 0.71933980857756763 0 -0.69465836192734942 4.1232485051619463 22.400887484559895 20.893692241226056 1 rotate no_reflect no_shear #
lump $-1 $-1 $58 $10 #
transform $-1 0.69465836192734942 0 0.71933980857756763 0 1 0 -0.71933980857756763 0 0.69465836192734942 -59.414083008341592 34.216958509863296 76.347888955878943 1 rotate no_reflect no_shear #
lump $-1 $-1 $59 $11 #
transform $-1 0.69465836192734942 0 0.71933980857756763 0 -1 0 0.71933980857756763 0 -0.69465836192734942 4.1232485051619463 32.779518485524811 20.893692241226056 1 rotate no_reflect no_shear #
lump $-1 $-1 $60 $12 #
transform $-1 0.69465836192734942 0 0.71933980857756763 0 -1 0 0.71933980857756763 0 -0.69465836192734942 4.1232485051619463 35.654398534201789 20.893692241226056 1 rotate no_reflect no_shear #
lump $-1 $-1 $61 $13 #
transform $-1 0.69465836192734942 0 0.71933980857756763 0 1 0 -0.71933980857756763 0 0.69465836192734942 -59.414083008341592 47.47046955950519 76.347888955878943 1 rotate no_reflect no_shear #
lump $-1 $-1 $62 $14 #
transform $-1 0.69465836192734942 0 0.71933980857756763 0 -1 0 0.71933980857756763 0 -0.69465836192734942 4.1232485051619463 46.033029535166705 20.893692241226056 1 rotate no_reflect no_shear #
lump $-1 $-1 $63 $15 #
transform $-1 0.69465836192734942 0 0.71933980857756763 0 -1 0 0.71933980857756763 0 -0.69465836192734942 4.1232485051619463 48.907909583843676 20.893692241226056 1 rotate no_reflect no_shear #
shell $-1 $-1 $-1 $64 $-1 $16 #
shell $-1 $-1 $-1 $65 $-1 $18 #
shell $-1 $-1 $-1 $66 $-1 $20 #
shell $-1 $-1 $-1 $67 $-1 $22 #
shell $-1 $-1 $-1 $68 $-1 $24 #
shell $-1 $-1 $-1 $69 $-1 $26 #
shell $-1 $-1 $-1 $70 $-1 $28 #
shell $-1 $-1 $-1 $71 $-1 $30 #
shell $-1 $-1 $-1 $72 $-1 $32 #
shell $-1 $-1 $-1 $73 $-1 $34 #
shell $-1 $-1 $-1 $74 $-1 $36 #
shell $-1 $-1 $-1 $75 $-1 $38 #
shell $-1 $-1 $-1 $76 $-1 $40 #
shell $-1 $-1 $-1 $77 $-1 $42 #
shell $-1 $-1 $-1 $78 $-1 $44 #
shell $-1 $-1 $-1 $79 $-1 $46 #
face $-1 $80 $81 $48 $-1 $82 forward single #
face $-1 $83 $84 $49 $-1 $85 forward single #
face $-1 $86 $87 $50 $-1 $88 forward single #
face $-1 $89 $90 $51 $-1 $91 forward single #
face $-1 $92 $93 $52 $-1 $94 forward single #
face $-1 $95 $96 $53 $-1 $97 forward single #
face $-1 $98 $99 $54 $-1 $100 forward single #
face $-1 $101 $102 $55 $-1 $103 forward single #
face $-1 $104 $105 $56 $-1 $106 forward single #
face $-1 $107 $108 $57 $-1 $109 forward single #
face $-1 $110 $111 $58 $-1 $112 forward single #
face $-1 $113 $114 $59 $-1 $115 forward single #
face $-1 $116 $117 $60 $-1 $118 forward single #
face $-1 $119 $120 $61 $-1 $121 forward single #
face $-1 $122 $123 $62 $-1 $124 forward single #
face $-1 $125 $126 $63 $-1 $127 forward single #
face $-1 $128 $129 $48 $-1 $130 reversed single #
loop $-1 $-1 $131 $64 #
plane-surface $-1 0 0 12.540740970852898 0 0 1 1 0 0 forward_v I I I I #
face $-1 $132 $133 $49 $-1 $134 reversed single #
loop $-1 $-1 $135 $65 #
plane-surface $-1 0 0 82.595294045838799 0 0 1 1 0 0 forward_v I I I I #
face $-1 $136 $137 $50 $-1 $138 forward single #
loop $-1 $139 $140 $66 #
cone-surface $-1 0 0 -1.894314401684623 0 0 1 1 0 0 1 I I 0 1 1 forward I I I I #
face $-1 $141 $142 $51 $-1 $143 forward single #
loop $-1 $144 $145 $67 #
cone-surface $-1 0 0 -1.894314401684623 0 0 1 1 0 0 1 I I 0 1 1 forward I I I I #
face $-1 $146 $147 $52 $-1 $148 reversed single #
loop $-1 $-1 $149 $68 #
plane-surface $-1 0 0 82.595294045838799 0 0 1 1 0 0 forward_v I I I I #
face $-1 $150 $151 $53 $-1 $152 forward single #
loop $-1 $153 $154 $69 #
cone-surface $-1 0 0 -0.94067964720602859 0 0 1 0.5 0 0 1 I I 0 1 0.5 forward I I I I #
face $-1 $155 $156 $54 $-1 $157 forward single #
loop $-1 $158 $159 $70 #
cone-surface $-1 0 0 -0.94067964720602859 0 0 1 0.5 0 0 1 I I 0 1 0.5 forward I I I I #
face $-1 $160 $161 $55 $-1 $162 reversed single #
loop $-1 $-1 $163 $71 #
plane-surface $-1 0 0 82.595294045838799 0 0 1 1 0 0 forward_v I I I I #
face $-1 $164 $165 $56 $-1 $166 forward single #
loop $-1 $167 $168 $72 #
cone-surface $-1 0 0 -0.94067964720602859 0 0 1 0.5 0 0 1 I I 0 1 0.5 forward I I I I #
face $-1 $169 $170 $57 $-1 $171 forward single #
loop $-1 $172 $173 $73 #
cone-surface $-1 0 0 -0.94067964720602859 0 0 1 0.5 0 0 1 I I 0 1 0.5 forward I I I I #
face $-1 $174 $175 $58 $-1 $176 reversed single #
loop $-1 $-1 $177 $74 #
plane-surface $-1 0 0 82.595294045838799 0 0 1 1 0 0 forward_v I I I I #
face $-1 $178 $179 $59 $-1 $180 forward single #
loop $-1 $181 $182 $75 #
cone-surface $-1 0 0 -0.94067964720602859 0 0 1 0.5 0 0 1 I I 0 1 0.5 forward I I I I #
face $-1 $183 $184 $60 $-1 $185 forward single #
loop $-1 $186 $187 $76 #
cone-surface $-1 0 0 -0.94067964720602859 0 0 1 0.5 0 0 1 I I 0 1 0.5 forward I I I I #
face $-1 $188 $189 $61 $-1 $190 reversed single #
loop $-1 $-1 $191 $77 #
plane-surface $-1 0 0 82.595294045838799 0 0 1 1 0 0 forward_v I I I I #
face $-1 $192 $193 $62 $-1 $194 forward single #
loop $-1 $195 $196 $78 #
cone-surface $-1 0 0 -0.94067964720602859 0 0 1 0.5 0 0 1 I I 0 1 0.5 forward I I I I #
face $-1 $197 $198 $63 $-1 $199 forward single #
loop $-1 $200 $201 $79 #
cone-surface $-1 0 0 -0.94067964720602859 0 0 1 0.5 0 0 1 I I 0 1 0.5 forward I I I I #
face $-1 $202 $203 $48 $-1 $204 reversed single #
loop $-1 $-1 $205 $80 #
plane-surface $-1 0 0 -12.540740970852898 0 0 1 1 0 0 forward_v I I I I #
coedge $-1 $206 $207 $208 $209 forward $81 $-1 #
face $-1 $210 $211 $49 $-1 $212 reversed single #
loop $-1 $-1 $213 $83 #
plane-surface $-1 0 0 -82.595294045838799 0 0 1 1 0 0 forward_v I I I I #
coedge $-1 $214 $215 $216 $217 forward $84 $-1 #
face $-1 $-1 $218 $50 $-1 $219 forward single #
loop $-1 $-1 $220 $86 #
plane-surface $-1 0 0 -3.288628803369245 0 0 -1 -1 0 0 forward_v I I I I #
loop $-1 $-1 $221 $66 #
coedge $-1 $140 $140 $220 $222 reversed $87 $-1 #
face $-1 $-1 $223 $51 $-1 $224 forward single #
loop $-1 $-1 $225 $89 #
plane-surface $-1 0 0 -3.288628803369245 0 0 -1 -1 0 0 forward_v I I I I #
loop $-1 $-1 $226 $67 #
coedge $-1 $145 $145 $225 $227 reversed $90 $-1 #
face $-1 $228 $229 $52 $-1 $230 reversed single #
loop $-1 $-1 $231 $92 #
plane-surface $-1 0 0 -82.595294045838799 0 0 1 1 0 0 forward_v I I I I #
coedge $-1 $232 $233 $234 $235 forward $93 $-1 #
face $-1 $-1 $236 $53 $-1 $237 forward single #
loop $-1 $-1 $238 $95 #
plane-surface $-1 0 0 -1.631359294412059 0 0 -1 -1 0 0 forward_v I I I I #
loop $-1 $-1 $239 $69 #
coedge $-1 $154 $154 $238 $240 reversed $96 $-1 #
face $-1 $-1 $241 $54 $-1 $242 forward single #
loop $-1 $-1 $243 $98 #
plane-surface $-1 0 0 -1.631359294412059 0 0 -1 -1 0 0 forward_v I I I I #
loop $-1 $-1 $244 $70 #
coedge $-1 $159 $159 $243 $245 reversed $99 $-1 #
face $-1 $246 $247 $55 $-1 $248 reversed single #
loop $-1 $-1 $249 $101 #
plane-surface $-1 0 0 -82.595294045838799 0 0 1 1 0 0 forward_v I I I I #
coedge $-1 $250 $251 $252 $253 forward $102 $-1 #
face $-1 $-1 $254 $56 $-1 $255 forward single #
loop $-1 $-1 $256 $104 #
plane-surface $-1 0 0 -1.631359294412059 0 0 -1 -1 0 0 forward_v I I I I #
loop $-1 $-1 $257 $72 #
coedge $-1 $168 $168 $256 $258 reversed $105 $-1 #
face $-1 $-1 $259 $57 $-1 $260 forward single #
loop $-1 $-1 $261 $107 #
plane-surface $-1 0 0 -1.631359294412059 0 0 -1 -1 0 0 forward_v I I I I #
loop $-1 $-1 $262 $73 #
coedge $-1 $173 $173 $261 $263 reversed $108 $-1 #
face $-1 $264 $265 $58 $-1 $266 reversed single #
loop $-1 $-1 $267 $110 #
plane-surface $-1 0 0 -82.595294045838799 0 0 1 1 0 0 forward_v I I I I #
coedge $-1 $268 $269 $270 $271 forward $111 $-1 #
face $-1 $-1 $272 $59 $-1 $273 forward single #
loop $-1 $-1 $274 $113 #
plane-surface $-1 0 0 -1.631359294412059 0 0 -1 -1 0 0 forward_v I I I I #
loop $-1 $-1 $275 $75 #
coedge $-1 $182 $182 $274 $276 reversed $114 $-1 #
face $-1 $-1 $277 $60 $-1 $278 forward single #
loop $-1 $-1 $279 $116 #
plane-surface $-1 0 0 -1.631359294412059 0 0 -1 -1 0 0 forward_v I I I I #
loop $-1 $-1 $280 $76 #
coedge $-1 $187 $187 $279 $281 reversed $117 $-1 #
face $-1 $282 $283 $61 $-1 $284 reversed single #
loop $-1 $-1 $285 $119 #
plane-surface $-1 0 0 -82.595294045838799 0 0 1 1 0 0 forward_v I I I I #
coedge $-1 $286 $287 $288 $289 forward $120 $-1 #
face $-1 $-1 $290 $62 $-1 $291 forward single #
loop $-1 $-1 $292 $122 #
plane-surface $-1 0 0 -1.631359294412059 0 0 -1 -1 0 0 forward_v I I I I #
loop $-1 $-1 $293 $78 #
coedge $-1 $196 $196 $292 $294 reversed $123 $-1 #
face $-1 $-1 $295 $63 $-1 $296 forward single #
loop $-1 $-1 $297 $125 #
plane-surface $-1 0 0 -1.631359294412059 0 0 -1 -1 0 0 forward_v I I I I #
loop $-1 $-1 $298 $79 #
coedge $-1 $201 $201 $297 $299 reversed $126 $-1 #
face $-1 $300 $301 $48 $-1 $302 reversed single #
loop $-1 $-1 $303 $128 #
plane-surface $-1 0 -26.50702209928378 0 0 1 0 0 0 1 forward_v I I I I #
coedge $-1 $304 $305 $306 $307 forward $129 $-1 #
coedge $-1 $308 $131 $309 $310 forward $81 $-1 #
coedge $-1 $131 $308 $311 $312 forward $81 $-1 #
coedge $-1 $313 $314 $131 $209 reversed $315 $-1 #
edge $-1 $316 -26.50702209928378 $317 26.50702209928378 $208 $318 forward 7 unknown #
face $-1 $319 $320 $49 $-1 $321 reversed single #
loop $-1 $-1 $322 $132 #
plane-surface $-1 0 -4.1377135138713506 0 0 1 0 0 0 1 forward_v I I I I #
coedge $-1 $323 $324 $325 $326 forward $133 $-1 #
coedge $-1 $327 $135 $328 $329 forward $84 $-1 #
coedge $-1 $135 $327 $330 $331 forward $84 $-1 #
coedge $-1 $332 $333 $135 $217 reversed $334 $-1 #
edge $-1 $335 -4.1377135138713506 $336 4.1377135138713506 $216 $337 forward 7 unknown #
loop $-1 $338 $339 $136 #
cone-surface $-1 0 0 0 0 0 1 0.5 0 0 1 I I -0.70710678118654746 0.70710678118654746 0.5 forward I I I I #
coedge $-1 $220 $220 $140 $222 forward $137 $-1 #
coedge $-1 $221 $221 $339 $340 forward $139 $-1 #
edge $-1 $341 0 $341 6.2831853071796004 $220 $342 forward 7 unknown #
loop $-1 $343 $344 $141 #
cone-surface $-1 0 0 0 0 0 1 0.5 0 0 1 I I -0.70710678118654746 0.70710678118654746 0.5 forward I I I I #
coedge $-1 $225 $225 $145 $227 forward $142 $-1 #
coedge $-1 $226 $226 $344 $345 forward $144 $-1 #
edge $-1 $346 0 $346 6.2831853071796004 $225 $347 forward 7 unknown #
face $-1 $348 $349 $52 $-1 $350 reversed single #
loop $-1 $-1 $351 $146 #
plane-surface $-1 0 -3.35402672345647 0 0 1 0 0 0 1 forward_v I I I I #
coedge $-1 $352 $353 $354 $355 forward $147 $-1 #
coedge $-1 $356 $149 $357 $358 forward $93 $-1 #
coedge $-1 $149 $356 $359 $360 forward $93 $-1 #
coedge $-1 $361 $362 $149 $235 reversed $363 $-1 #
edge $-1 $364 -3.35402672345647 $365 3.35402672345647 $234 $366 forward 7 unknown #
loop $-1 $367 $368 $150 #
cone-surface $-1 0 0 0 0 0 1 0.25 0 0 1 I I -0.70710678118654746 0.70710678118654746 0.25 forward I I I I #
coedge $-1 $238 $238 $154 $240 forward $151 $-1 #
coedge $-1 $239 $239 $368 $369 forward $153 $-1 #
edge $-1 $370 0 $370 6.2831853071796004 $238 $371 forward 7 unknown #
loop $-1 $372 $373 $155 #
cone-surface $-1 0 0 0 0 0 1 0.25 0 0 1 I I -0.70710678118654746 0.70710678118654746 0.25 forward I I I I #
coedge $-1 $243 $243 $159 $245 forward $156 $-1 #
coedge $-1 $244 $244 $373 $374 forward $158 $-1 #
edge $-1 $375 0 $375 6.2831853071796004 $243 $376 forward 7 unknown #
face $-1 $377 $378 $55 $-1 $379 reversed single #
loop $-1 $-1 $380 $160 #
plane-surface $-1 0 -3.35402672345647 0 0 1 0 0 0 1 forward_v I I I I #
coedge $-1 $381 $382 $383 $384 forward $161 $-1 #
coedge $-1 $385 $163 $386 $387 forward $102 $-1 #
coedge $-1 $163 $385 $388 $389 forward $102 $-1 #
coedge $-1 $390 $391 $163 $253 reversed $392 $-1 #
edge $-1 $393 -3.35402672345647 $394 3.35402672345647 $252 $395 forward 7 unknown #
loop $-1 $396 $397 $164 #
cone-surface $-1 0 0 0 0 0 1 0.25 0 0 1 I I -0.70710678118654746 0.70710678118654746 0.25 forward I I I I #
coedge $-1 $256 $256 $168 $258 forward $165 $-1 #
coedge $-1 $257 $257 $397 $398 forward $167 $-1 #
edge $-1 $399 0 $399 6.2831853071796004 $256 $400 forward 7 unknown #
loop $-1 $401 $402 $169 #
cone-surface $-1 0 0 0 0 0 1 0.25 0 0 1 I I -0.70710678118654746 0.70710678118654746 0.25 forward I I I I #
coedge $-1 $261 $261 $173 $263 forward $170 $-1 #
coedge $-1 $262 $262 $402 $403 forward $172 $-1 #
edge $-1 $404 0 $404 6.2831853071796004 $261 $405 forward 7 unknown #
face $-1 $406 $407 $58 $-1 $408 reversed single #
loop $-1 $-1 $409 $174 #
plane-surface $-1 0 -3.35402672345647 0 0 1 0 0 0 1 forward_v I I I I #
coedge $-1 $410 $411 $412 $413 forward $175 $-1 #
coedge $-1 $414 $177 $415 $416 forward $111 $-1 #
coedge $-1 $177 $414 $417 $418 forward $111 $-1 #
coedge $-1 $419 $420 $177 $271 reversed $421 $-1 #
edge $-1 $422 -3.35402672345647 $423 3.35402672345647 $270 $424 forward 7 unknown #
loop $-1 $425 $426 $178 #
cone-surface $-1 0 0 0 0 0 1 0.25 0 0 1 I I -0.70710678118654746 0.70710678118654746 0.25 forward I I I I #
coedge $-1 $274 $274 $182 $276 forward $179 $-1 #
coedge $-1 $275 $275 $426 $427 forward $181 $-1 #
edge $-1 $428 0 $428 6.2831853071796004 $274 $429 forward 7 unknown #
loop $-1 $430 $431 $183 #
cone-surface $-1 0 0 0 0 0 1 0.25 0 0 1 I I -0.70710678118654746 0.70710678118654746 0.25 forward I I I I #
coedge $-1 $279 $279 $187 $281 forward $184 $-1 #
coedge $-1 $280 $280 $431 $432 forward $186 $-1 #
edge $-1 $433 0 $433 6.2831853071796004 $279 $434 forward 7 unknown #
face $-1 $435 $436 $61 $-1 $437 reversed single #
loop $-1 $-1 $438 $188 #
plane-surface $-1 0 -3.35402672345647 0 0 1 0 0 0 1 forward_v I I I I #
coedge $-1 $439 $440 $441 $442 forward $189 $-1 #
coedge $-1 $443 $191 $444 $445 forward $120 $-1 #
coedge $-1 $191 $443 $446 $447 forward $120 $-1 #
coedge $-1 $448 $449 $191 $289 reversed $450 $-1 #
edge $-1 $451 -3.35402672345647 $452 3.35402672345647 $288 $453 forward 7 unknown #
loop $-1 $454 $455 $192 #
cone-surface $-1 0 0 0 0 0 1 0.25 0 0 1 I I -0.70710678118654746 0.70710678118654746 0.25 forward I I I I #
coedge $-1 $292 $292 $196 $294 forward $193 $-1 #
coedge $-1 $293 $293 $455 $456 forward $195 $-1 #
edge $-1 $457 0 $457 6.2831853071796004 $292 $458 forward 7 unknown #
loop $-1 $459 $460 $197 #
cone-surface $-1 0 0 0 0 0 1 0.25 0 0 1 I I -0.70710678118654746 0.70710678118654746 0.25 forward I I I I #
coedge $-1 $297 $297 $201 $299 forward $198 $-1 #
coedge $-1 $298 $298 $460 $461 forward $200 $-1 #
edge $-1 $462 0 $462 6.2831853071796004 $297 $463 forward 7 unknown #
face $-1 $464 $465 $48 $-1 $466 reversed single #
loop $-1 $-1 $467 $202 #
plane-surface $-1 -41.297647022919399 0 0 1 0 0 0 0 -1 forward_v I I I I #
coedge $-1 $468 $311 $469 $470 forward $203 $-1 #
coedge $-1 $471 $205 $468 $472 forward $129 $-1 #
coedge $-1 $205 $471 $473 $474 forward $129 $-1 #
coedge $-1 $314 $313 $205 $307 reversed $315 $-1 #
edge $-1 $475 -26.50702209928378 $476 26.50702209928378 $306 $477 forward 7 unknown #
coedge $-1 $207 $206 $478 $479 forward $81 $-1 #
coedge $-1 $480 $481 $206 $310 reversed $465 $-1 #
edge $-1 $317 -41.297647022919399 $482 41.297647022919399 $309 $483 forward 7 unknown #
coedge $-1 $303 $484 $207 $312 reversed $203 $-1 #
edge $-1 $485 -41.297647022919399 $316 41.297647022919399 $311 $486 forward 7 unknown #
coedge $-1 $306 $208 $484 $487 forward $315 $-1 #
coedge $-1 $208 $306 $480 $488 reversed $315 $-1 #
loop $-1 $-1 $313 $464 #
vertex $-1 $209 $489 #
vertex $-1 $209 $490 #
straight-curve $-1 41.297647022919399 0 12.540740970852898 0 1 0 I I #
face $-1 $491 $492 $49 $-1 $493 reversed single #
loop $-1 $-1 $494 $210 #
plane-surface $-1 -165.1905880916776 0 0 1 0 0 0 0 -1 forward_v I I I I #
coedge $-1 $495 $330 $496 $497 forward $211 $-1 #
coedge $-1 $498 $213 $495 $499 forward $133 $-1 #
coedge $-1 $213 $498 $500 $501 forward $133 $-1 #
coedge $-1 $333 $332 $213 $326 reversed $334 $-1 #
edge $-1 $502 -4.1377135138713506 $503 4.1377135138713506 $325 $504 forward 7 unknown #
coedge $-1 $215 $214 $505 $506 forward $84 $-1 #
coedge $-1 $507 $508 $214 $329 reversed $492 $-1 #
edge $-1 $336 -165.1905880916776 $509 165.1905880916776 $328 $510 forward 7 unknown #
coedge $-1 $322 $511 $215 $331 reversed $211 $-1 #
edge $-1 $512 -165.1905880916776 $335 165.1905880916776 $330 $513 forward 7 unknown #
coedge $-1 $325 $216 $511 $514 forward $334 $-1 #
coedge $-1 $216 $325 $507 $515 reversed $334 $-1 #
loop $-1 $-1 $332 $491 #
vertex $-1 $217 $516 #
vertex $-1 $217 $517 #
straight-curve $-1 165.1905880916776 0 82.595294045838799 0 1 0 I I #
loop $-1 $-1 $518 $136 #
coedge $-1 $339 $339 $221 $340 reversed $218 $-1 #
edge $-1 $519 0 $519 6.2831853071796004 $339 $520 forward 7 unknown #
vertex $-1 $222 $521 #
ellipse-curve $-1 0 0 -3.288628803369245 0 0 -1 1 0 0 1 I I #
loop $-1 $-1 $522 $141 #
coedge $-1 $344 $344 $226 $345 reversed $223 $-1 #
edge $-1 $523 0 $523 6.2831853071796004 $344 $524 forward 7 unknown #
vertex $-1 $227 $525 #
ellipse-curve $-1 0 0 -3.288628803369245 0 0 -1 1 0 0 1 I I #
face $-1 $526 $527 $52 $-1 $528 reversed single #
loop $-1 $-1 $529 $228 #
plane-surface $-1 -165.1905880916776 0 0 1 0 0 0 0 -1 forward_v I I I I #
coedge $-1 $530 $359 $531 $532 forward $229 $-1 #
coedge $-1 $533 $231 $530 $534 forward $147 $-1 #
coedge $-1 $231 $533 $535 $536 forward $147 $-1 #
coedge $-1 $362 $361 $231 $355 reversed $363 $-1 #
edge $-1 $537 -3.35402672345647 $538 3.35402672345647 $354 $539 forward 7 unknown #
coedge $-1 $233 $232 $540 $541 forward $93 $-1 #
coedge $-1 $542 $543 $232 $358 reversed $527 $-1 #
edge $-1 $365 -165.1905880916776 $544 165.1905880916776 $357 $545 forward 7 unknown #
coedge $-1 $351 $546 $233 $360 reversed $229 $-1 #
edge $-1 $547 -165.1905880916776 $364 165.1905880916776 $359 $548 forward 7 unknown #
coedge $-1 $354 $234 $546 $549 forward $363 $-1 #
coedge $-1 $234 $354 $542 $550 reversed $363 $-1 #
loop $-1 $-1 $361 $526 #
vertex $-1 $235 $551 #
vertex $-1 $235 $552 #
straight-curve $-1 165.1905880916776 0 82.595294045838799 0 1 0 I I #
loop $-1 $-1 $553 $150 #
coedge $-1 $368 $368 $239 $369 reversed $236 $-1 #
edge $-1 $554 0 $554 6.2831853071796004 $368 $555 forward 7 unknown #
vertex $-1 $240 $556 #
ellipse-curve $-1 0 0 -1.631359294412059 0 0 -1 0.5 0 0 1 I I #
loop $-1 $-1 $557 $155 #
coedge $-1 $373 $373 $244 $374 reversed $241 $-1 #
edge $-1 $558 0 $558 6.2831853071796004 $373 $559 forward 7 unknown #
vertex $-1 $245 $560 #
ellipse-curve $-1 0 0 -1.631359294412059 0 0 -1 0.5 0 0 1 I I #
face $-1 $561 $562 $55 $-1 $563 reversed single #
loop $-1 $-1 $564 $246 #
plane-surface $-1 -165.1905880916776 0 0 1 0 0 0 0 -1 forward_v I I I I #
coedge $-1 $565 $388 $566 $567 forward $247 $-1 #
coedge $-1 $568 $249 $565 $569 forward $161 $-1 #
coedge $-1 $249 $568 $570 $571 forward $161 $-1 #
coedge $-1 $391 $390 $249 $384 reversed $392 $-1 #
edge $-1 $572 -3.35402672345647 $573 3.35402672345647 $383 $574 forward 7 unknown #
coedge $-1 $251 $250 $575 $576 forward $102 $-1 #
coedge $-1 $577 $578 $250 $387 reversed $562 $-1 #
edge $-1 $394 -165.1905880916776 $579 165.1905880916776 $386 $580 forward 7 unknown #
coedge $-1 $380 $581 $251 $389 reversed $247 $-1 #
edge $-1 $582 -165.1905880916776 $393 165.1905880916776 $388 $583 forward 7 unknown #
coedge $-1 $383 $252 $581 $584 forward $392 $-1 #
coedge $-1 $252 $383 $577 $585 reversed $392 $-1 #
loop $-1 $-1 $390 $561 #
vertex $-1 $253 $586 #
vertex $-1 $253 $587 #
straight-curve $-1 165.1905880916776 0 82.595294045838799 0 1 0 I I #
loop $-1 $-1 $588 $164 #
coedge $-1 $397 $397 $257 $398 reversed $254 $-1 #
edge $-1 $589 0 $589 6.2831853071796004 $397 $590 forward 7 unknown #
vertex $-1 $258 $591 #
ellipse-curve $-1 0 0 -1.631359294412059 0 0 -1 0.5 0 0 1 I I #
loop $-1 $-1 $592 $169 #
coedge $-1 $402 $402 $262 $403 reversed $259 $-1 #
edge $-1 $593 0 $593 6.2831853071796004 $402 $594 forward 7 unknown #
vertex $-1 $263 $595 #
ellipse-curve $-1 0 0 -1.631359294412059 0 0 -1 0.5 0 0 1 I I #
face $-1 $596 $597 $58 $-1 $598 reversed single #
loop $-1 $-1 $599 $264 #
plane-surface $-1 -165.1905880916776 0 0 1 0 0 0 0 -1 forward_v I I I I #
coedge $-1 $600 $417 $601 $602 forward $265 $-1 #
coedge $-1 $603 $267 $600 $604 forward $175 $-1 #
coedge $-1 $267 $603 $605 $606 forward $175 $-1 #
coedge $-1 $420 $419 $267 $413 reversed $421 $-1 #
edge $-1 $607 -3.35402672345647 $608 3.35402672345647 $412 $609 forward 7 unknown #
coedge $-1 $269 $268 $610 $611 forward $111 $-1 #
coedge $-1 $612 $613 $268 $416 reversed $597 $-1 #
edge $-1 $423 -165.1905880916776 $614 165.1905880916776 $415 $615 forward 7 unknown #
coedge $-1 $409 $616 $269 $418 reversed $265 $-1 #
edge $-1 $617 -165.1905880916776 $422 165.1905880916776 $417 $618 forward 7 unknown #
coedge $-1 $412 $270 $616 $619 forward $421 $-1 #
coedge $-1 $270 $412 $612 $620 reversed $421 $-1 #
loop $-1 $-1 $419 $596 #
vertex $-1 $271 $621 #
vertex $-1 $271 $622 #
straight-curve $-1 165.1905880916776 0 82.595294045838799 0 1 0 I I #
loop $-1 $-1 $623 $178 #
coedge $-1 $426 $426 $275 $427 reversed $272 $-1 #
edge $-1 $624 0 $624 6.2831853071796004 $426 $625 forward 7 unknown #
vertex $-1 $276 $626 #
ellipse-curve $-1 0 0 -1.631359294412059 0 0 -1 0.5 0 0 1 I I #
loop $-1 $-1 $627 $183 #
coedge $-1 $431 $431 $280 $432 reversed $277 $-1 #
edge $-1 $628 0 $628 6.2831853071796004 $431 $629 forward 7 unknown #
vertex $-1 $281 $630 #
ellipse-curve $-1 0 0 -1.631359294412059 0 0 -1 0.5 0 0 1 I I #
face $-1 $631 $632 $61 $-1 $633 reversed single #
loop $-1 $-1 $634 $282 #
plane-surface $-1 -165.1905880916776 0 0 1 0 0 0 0 -1 forward_v I I I I #
coedge $-1 $635 $446 $636 $637 forward $283 $-1 #
coedge $-1 $638 $285 $635 $639 forward $189 $-1 #
coedge $-1 $285 $638 $640 $641 forward $189 $-1 #
coedge $-1 $449 $448 $285 $442 reversed $450 $-1 #
edge $-1 $642 -3.35402672345647 $643 3.35402672345647 $441 $644 forward 7 unknown #
coedge $-1 $287 $286 $645 $646 forward $120 $-1 #
coedge $-1 $647 $648 $286 $445 reversed $632 $-1 #
edge $-1 $452 -165.1905880916776 $649 165.1905880916776 $444 $650 forward 7 unknown #
coedge $-1 $438 $651 $287 $447 reversed $283 $-1 #
edge $-1 $652 -165.1905880916776 $451 165.1905880916776 $446 $653 forward 7 unknown #
coedge $-1 $441 $288 $651 $654 forward $450 $-1 #
coedge $-1 $288 $441 $647 $655 reversed $450 $-1 #
loop $-1 $-1 $448 $631 #
vertex $-1 $289 $656 #
vertex $-1 $289 $657 #
straight-curve $-1 165.1905880916776 0 82.595294045838799 0 1 0 I I #
loop $-1 $-1 $658 $192 #
coedge $-1 $455 $455 $293 $456 reversed $290 $-1 #
edge $-1 $659 0 $659 6.2831853071796004 $455 $660 forward 7 unknown #
vertex $-1 $294 $661 #
ellipse-curve $-1 0 0 -1.631359294412059 0 0 -1 0.5 0 0 1 I I #
loop $-1 $-1 $662 $197 #
coedge $-1 $460 $460 $298 $461 reversed $295 $-1 #
edge $-1 $663 0 $663 6.2831853071796004 $460 $664 forward 7 unknown #
vertex $-1 $299 $665 #
ellipse-curve $-1 0 0 -1.631359294412059 0 0 -1 0.5 0 0 1 I I #
face $-1 $-1 $315 $48 $-1 $666 reversed single #
loop $-1 $-1 $480 $300 #
plane-surface $-1 0 26.50702209928378 0 0 -1 0 0 0 -1 forward_v I I I I #
coedge $-1 $667 $478 $481 $668 forward $301 $-1 #
coedge $-1 $484 $303 $304 $472 reversed $203 $-1 #
coedge $-1 $478 $667 $303 $470 reversed $301 $-1 #
edge $-1 $485 -12.540740970852898 $669 12.540740970852898 $469 $670 forward 7 unknown #
coedge $-1 $305 $304 $667 $671 forward $129 $-1 #
edge $-1 $476 -41.297647022919399 $669 41.297647022919399 $468 $672 forward 7 unknown #
coedge $-1 $481 $480 $305 $474 reversed $465 $-1 #
edge $-1 $673 -41.297647022919399 $475 41.297647022919399 $473 $674 forward 7 unknown #
vertex $-1 $307 $675 #
vertex $-1 $487 $676 #
straight-curve $-1 41.297647022919399 0 -12.540740970852898 0 -1 0 I I #
coedge $-1 $467 $469 $308 $479 reversed $301 $-1 #
edge $-1 $482 -26.50702209928378 $485 26.50702209928378 $478 $677 forward 7 unknown #
coedge $-1 $473 $309 $314 $488 forward $465 $-1 #
coedge $-1 $309 $473 $467 $668 reversed $465 $-1 #
vertex $-1 $310 $678 #
straight-curve $-1 0 26.50702209928378 12.540740970852898 -1 0 0 I I #
coedge $-1 $311 $468 $313 $487 reversed $203 $-1 #
vertex $-1 $479 $679 #
straight-curve $-1 0 -26.50702209928378 12.540740970852898 1 0 0 I I #
edge $-1 $316 -12.540740970852898 $476 12.540740970852898 $313 $680 forward 7 unknown #
edge $-1 $317 -12.540740970852898 $475 12.540740970852898 $314 $681 forward 7 unknown #
point $-1 41.297647022919399 -26.50702209928378 12.540740970852898 #
point $-1 41.297647022919399 26.50702209928378 12.540740970852898 #
face $-1 $-1 $334 $49 $-1 $682 reversed single #
loop $-1 $-1 $507 $319 #
plane-surface $-1 0 4.1377135138713506 0 0 -1 0 0 0 -1 forward_v I I I I #
coedge $-1 $683 $505 $508 $684 forward $320 $-1 #
coedge $-1 $511 $322 $323 $499 reversed $211 $-1 #
coedge $-1 $505 $683 $322 $497 reversed $320 $-1 #
edge $-1 $512 -82.595294045838799 $685 82.595294045838799 $496 $686 forward 7 unknown #
coedge $-1 $324 $323 $683 $687 forward $133 $-1 #
edge $-1 $503 -165.1905880916776 $685 165.1905880916776 $495 $688 forward 7 unknown #
coedge $-1 $508 $507 $324 $501 reversed $492 $-1 #
edge $-1 $689 -165.1905880916776 $502 165.1905880916776 $500 $690 forward 7 unknown #
vertex $-1 $326 $691 #
vertex $-1 $514 $692 #
straight-curve $-1 165.1905880916776 0 -82.595294045838799 0 -1 0 I I #
coedge $-1 $494 $496 $327 $506 reversed $320 $-1 #
edge $-1 $509 -4.1377135138713506 $512 4.1377135138713506 $505 $693 forward 7 unknown #
coedge $-1 $500 $328 $333 $515 forward $492 $-1 #
coedge $-1 $328 $500 $494 $684 reversed $492 $-1 #
vertex $-1 $329 $694 #
straight-curve $-1 0 4.1377135138713506 82.595294045838799 -1 0 0 I I #
coedge $-1 $330 $495 $332 $514 reversed $211 $-1 #
vertex $-1 $506 $695 #
straight-curve $-1 0 -4.1377135138713506 82.595294045838799 1 0 0 I I #
edge $-1 $335 -82.595294045838799 $503 82.595294045838799 $332 $696 forward 7 unknown #
edge $-1 $336 -82.595294045838799 $502 82.595294045838799 $333 $697 forward 7 unknown #
point $-1 165.1905880916776 -4.1377135138713506 82.595294045838799 #
point $-1 165.1905880916776 4.1377135138713506 82.595294045838799 #
coedge $-1 $518 $518 $-1 $698 reversed $338 $-1 #
vertex $-1 $340 $699 #
ellipse-curve $-1 0 0 -0.5 0 0 -1 1 0 0 1 I I #
point $-1 1 0 -3.288628803369245 #
coedge $-1 $522 $522 $-1 $700 reversed $343 $-1 #
vertex $-1 $345 $701 #
ellipse-curve $-1 0 0 -0.5 0 0 -1 1 0 0 1 I I #
point $-1 1 0 -3.288628803369245 #
face $-1 $-1 $363 $52 $-1 $702 reversed single #
loop $-1 $-1 $542 $348 #
plane-surface $-1 0 3.35402672345647 0 0 -1 0 0 0 -1 forward_v I I I I #
coedge $-1 $703 $540 $543 $704 forward $349 $-1 #
coedge $-1 $546 $351 $352 $534 reversed $229 $-1 #
coedge $-1 $540 $703 $351 $532 reversed $349 $-1 #
edge $-1 $547 -82.595294045838799 $705 82.595294045838799 $531 $706 forward 7 unknown #
coedge $-1 $353 $352 $703 $707 forward $147 $-1 #
edge $-1 $538 -165.1905880916776 $705 165.1905880916776 $530 $708 forward 7 unknown #
coedge $-1 $543 $542 $353 $536 reversed $527 $-1 #
edge $-1 $709 -165.1905880916776 $537 165.1905880916776 $535 $710 forward 7 unknown #
vertex $-1 $355 $711 #
vertex $-1 $549 $712 #
straight-curve $-1 165.1905880916776 0 -82.595294045838799 0 -1 0 I I #
coedge $-1 $529 $531 $356 $541 reversed $349 $-1 #
edge $-1 $544 -3.35402672345647 $547 3.35402672345647 $540 $713 forward 7 unknown #
coedge $-1 $535 $357 $362 $550 forward $527 $-1 #
coedge $-1 $357 $535 $529 $704 reversed $527 $-1 #
vertex $-1 $358 $714 #
straight-curve $-1 0 3.35402672345647 82.595294045838799 -1 0 0 I I #
coedge $-1 $359 $530 $361 $549 reversed $229 $-1 #
vertex $-1 $541 $715 #
straight-curve $-1 0 -3.35402672345647 82.595294045838799 1 0 0 I I #
edge $-1 $364 -82.595294045838799 $538 82.595294045838799 $361 $716 forward 7 unknown #
edge $-1 $365 -82.595294045838799 $537 82.595294045838799 $362 $717 forward 7 unknown #
point $-1 165.1905880916776 -3.35402672345647 82.595294045838799 #
point $-1 165.1905880916776 3.35402672345647 82.595294045838799 #
coedge $-1 $553 $553 $-1 $718 reversed $367 $-1 #
vertex $-1 $369 $719 #
ellipse-curve $-1 0 0 -0.25 0 0 -1 0.5 0 0 1 I I #
point $-1 0.5 0 -1.631359294412059 #
coedge $-1 $557 $557 $-1 $720 reversed $372 $-1 #
vertex $-1 $374 $721 #
ellipse-curve $-1 0 0 -0.25 0 0 -1 0.5 0 0 1 I I #
point $-1 0.5 0 -1.631359294412059 #
face $-1 $-1 $392 $55 $-1 $722 reversed single #
loop $-1 $-1 $577 $377 #
plane-surface $-1 0 3.35402672345647 0 0 -1 0 0 0 -1 forward_v I I I I #
coedge $-1 $723 $575 $578 $724 forward $378 $-1 #
coedge $-1 $581 $380 $381 $569 reversed $247 $-1 #
coedge $-1 $575 $723 $380 $567 reversed $378 $-1 #
edge $-1 $582 -82.595294045838799 $725 82.595294045838799 $566 $726 forward 7 unknown #
coedge $-1 $382 $381 $723 $727 forward $161 $-1 #
edge $-1 $573 -165.1905880916776 $725 165.1905880916776 $565 $728 forward 7 unknown #
coedge $-1 $578 $577 $382 $571 reversed $562 $-1 #
edge $-1 $729 -165.1905880916776 $572 165.1905880916776 $570 $730 forward 7 unknown #
vertex $-1 $384 $731 #
vertex $-1 $584 $732 #
straight-curve $-1 165.1905880916776 0 -82.595294045838799 0 -1 0 I I #
coedge $-1 $564 $566 $385 $576 reversed $378 $-1 #
edge $-1 $579 -3.35402672345647 $582 3.35402672345647 $575 $733 forward 7 unknown #
coedge $-1 $570 $386 $391 $585 forward $562 $-1 #
coedge $-1 $386 $570 $564 $724 reversed $562 $-1 #
vertex $-1 $387 $734 #
straight-curve $-1 0 3.35402672345647 82.595294045838799 -1 0 0 I I #
coedge $-1 $388 $565 $390 $584 reversed $247 $-1 #
vertex $-1 $576 $735 #
straight-curve $-1 0 -3.35402672345647 82.595294045838799 1 0 0 I I #
edge $-1 $393 -82.595294045838799 $573 82.595294045838799 $390 $736 forward 7 unknown #
edge $-1 $394 -82.595294045838799 $572 82.595294045838799 $391 $737 forward 7 unknown #
point $-1 165.1905880916776 -3.35402672345647 82.595294045838799 #
point $-1 165.1905880916776 3.35402672345647 82.595294045838799 #
coedge $-1 $588 $588 $-1 $738 reversed $396 $-1 #
vertex $-1 $398 $739 #
ellipse-curve $-1 0 0 -0.25 0 0 -1 0.5 0 0 1 I I #
point $-1 0.5 0 -1.631359294412059 #
coedge $-1 $592 $592 $-1 $740 reversed $401 $-1 #
vertex $-1 $403 $741 #
ellipse-curve $-1 0 0 -0.25 0 0 -1 0.5 0 0 1 I I #
point $-1 0.5 0 -1.631359294412059 #
face $-1 $-1 $421 $58 $-1 $742 reversed single #
loop $-1 $-1 $612 $406 #
plane-surface $-1 0 3.35402672345647 0 0 -1 0 0 0 -1 forward_v I I I I #
coedge $-1 $743 $610 $613 $744 forward $407 $-1 #
coedge $-1 $616 $409 $410 $604 reversed $265 $-1 #
coedge $-1 $610 $743 $409 $602 reversed $407 $-1 #
edge $-1 $617 -82.595294045838799 $745 82.595294045838799 $601 $746 forward 7 unknown #
coedge $-1 $411 $410 $743 $747 forward $175 $-1 #
edge $-1 $608 -165.1905880916776 $745 165.1905880916776 $600 $748 forward 7 unknown #
coedge $-1 $613 $612 $411 $606 reversed $597 $-1 #
edge $-1 $749 -165.1905880916776 $607 165.1905880916776 $605 $750 forward 7 unknown #
vertex $-1 $413 $751 #
vertex $-1 $619 $752 #
straight-curve $-1 165.1905880916776 0 -82.595294045838799 0 -1 0 I I #
coedge $-1 $599 $601 $414 $611 reversed $407 $-1 #
edge $-1 $614 -3.35402672345647 $617 3.35402672345647 $610 $753 forward 7 unknown #
coedge $-1 $605 $415 $420 $620 forward $597 $-1 #
coedge $-1 $415 $605 $599 $744 reversed $597 $-1 #
vertex $-1 $416 $754 #
straight-curve $-1 0 3.35402672345647 82.595294045838799 -1 0 0 I I #
coedge $-1 $417 $600 $419 $619 reversed $265 $-1 #
vertex $-1 $611 $755 #
straight-curve $-1 0 -3.35402672345647 82.595294045838799 1 0 0 I I #
edge $-1 $422 -82.595294045838799 $608 82.595294045838799 $419 $756 forward 7 unknown #
edge $-1 $423 -82.595294045838799 $607 82.595294045838799 $420 $757 forward 7 unknown #
point $-1 165.1905880916776 -3.35402672345647 82.595294045838799 #
point $-1 165.1905880916776 3.35402672345647 82.595294045838799 #
coedge $-1 $623 $623 $-1 $758 reversed $425 $-1 #
vertex $-1 $427 $759 #
ellipse-curve $-1 0 0 -0.25 0 0 -1 0.5 0 0 1 I I #
point $-1 0.5 0 -1.631359294412059 #
coedge $-1 $627 $627 $-1 $760 reversed $430 $-1 #
vertex $-1 $432 $761 #
ellipse-curve $-1 0 0 -0.25 0 0 -1 0.5 0 0 1 I I #
point $-1 0.5 0 -1.631359294412059 #
face $-1 $-1 $450 $61 $-1 $762 reversed single #
loop $-1 $-1 $647 $435 #
plane-surface $-1 0 3.35402672345647 0 0 -1 0 0 0 -1 forward_v I I I I #
coedge $-1 $763 $645 $648 $764 forward $436 $-1 #
coedge $-1 $651 $438 $439 $639 reversed $283 $-1 #
coedge $-1 $645 $763 $438 $637 reversed $436 $-1 #
edge $-1 $652 -82.595294045838799 $765 82.595294045838799 $636 $766 forward 7 unknown #
coedge $-1 $440 $439 $763 $767 forward $189 $-1 #
edge $-1 $643 -165.1905880916776 $765 165.1905880916776 $635 $768 forward 7 unknown #
coedge $-1 $648 $647 $440 $641 reversed $632 $-1 #
edge $-1 $769 -165.1905880916776 $642 165.1905880916776 $640 $770 forward 7 unknown #
vertex $-1 $442 $771 #
vertex $-1 $654 $772 #
straight-curve $-1 165.1905880916776 0 -82.595294045838799 0 -1 0 I I #
coedge $-1 $634 $636 $443 $646 reversed $436 $-1 #
edge $-1 $649 -3.35402672345647 $652 3.35402672345647 $645 $773 forward 7 unknown #
coedge $-1 $640 $444 $449 $655 forward $632 $-1 #
coedge $-1 $444 $640 $634 $764 reversed $632 $-1 #
vertex $-1 $445 $774 #
straight-curve $-1 0 3.35402672345647 82.595294045838799 -1 0 0 I I #
coedge $-1 $446 $635 $448 $654 reversed $283 $-1 #
vertex $-1 $646 $775 #
straight-curve $-1 0 -3.35402672345647 82.595294045838799 1 0 0 I I #
edge $-1 $451 -82.595294045838799 $643 82.595294045838799 $448 $776 forward 7 unknown #
edge $-1 $452 -82.595294045838799 $642 82.595294045838799 $449 $777 forward 7 unknown #
point $-1 165.1905880916776 -3.35402672345647 82.595294045838799 #
point $-1 165.1905880916776 3.35402672345647 82.595294045838799 #
coedge $-1 $658 $658 $-1 $778 reversed $454 $-1 #
vertex $-1 $456 $779 #
ellipse-curve $-1 0 0 -0.25 0 0 -1 0.5 0 0 1 I I #
point $-1 0.5 0 -1.631359294412059 #
coedge $-1 $662 $662 $-1 $780 reversed $459 $-1 #
vertex $-1 $461 $781 #
ellipse-curve $-1 0 0 -0.25 0 0 -1 0.5 0 0 1 I I #
point $-1 0.5 0 -1.631359294412059 #
plane-surface $-1 41.297647022919399 0 0 -1 0 0 0 0 1 forward_v I I I I #
coedge $-1 $469 $467 $471 $671 reversed $301 $-1 #
edge $-1 $482 -12.540740970852898 $673 12.540740970852898 $481 $782 forward 7 unknown #
vertex $-1 $671 $783 #
straight-curve $-1 -41.297647022919399 -26.50702209928378 0 0 0 -1 I I #
edge $-1 $669 -26.50702209928378 $673 26.50702209928378 $667 $784 forward 7 unknown #
straight-curve $-1 0 -26.50702209928378 -12.540740970852898 -1 0 0 I I #
vertex $-1 $474 $785 #
straight-curve $-1 0 26.50702209928378 -12.540740970852898 1 0 0 I I #
point $-1 41.297647022919399 26.50702209928378 -12.540740970852898 #
point $-1 41.297647022919399 -26.50702209928378 -12.540740970852898 #
straight-curve $-1 -41.297647022919399 0 12.540740970852898 0 -1 0 I I #
point $-1 -41.297647022919399 26.50702209928378 12.540740970852898 #
point $-1 -41.297647022919399 -26.50702209928378 12.540740970852898 #
straight-curve $-1 41.297647022919399 -26.50702209928378 0 0 0 -1 I I #
straight-curve $-1 41.297647022919399 26.50702209928378 0 0 0 -1 I I #
plane-surface $-1 165.1905880916776 0 0 -1 0 0 0 0 1 forward_v I I I I #
coedge $-1 $496 $494 $498 $687 reversed $320 $-1 #
edge $-1 $509 -82.595294045838799 $689 82.595294045838799 $508 $786 forward 7 unknown #
vertex $-1 $687 $787 #
straight-curve $-1 -165.1905880916776 -4.1377135138713506 0 0 0 -1 I I #
edge $-1 $685 -4.1377135138713506 $689 4.1377135138713506 $683 $788 forward 7 unknown #
straight-curve $-1 0 -4.1377135138713506 -82.595294045838799 -1 0 0 I I #
vertex $-1 $501 $789 #
straight-curve $-1 0 4.1377135138713506 -82.595294045838799 1 0 0 I I #
point $-1 165.1905880916776 4.1377135138713506 -82.595294045838799 #
point $-1 165.1905880916776 -4.1377135138713506 -82.595294045838799 #
straight-curve $-1 -165.1905880916776 0 82.595294045838799 0 -1 0 I I #
point $-1 -165.1905880916776 4.1377135138713506 82.595294045838799 #
point $-1 -165.1905880916776 -4.1377135138713506 82.595294045838799 #
straight-curve $-1 165.1905880916776 -4.1377135138713506 0 0 0 -1 I I #
straight-curve $-1 165.1905880916776 4.1377135138713506 0 0 0 -1 I I #
edge $-1 $790 1 $790 0 $518 $-1 forward 7 unknown #
point $-1 1 0 -0.5 #
edge $-1 $791 1 $791 0 $522 $-1 forward 7 unknown #
point $-1 1 0 -0.5 #
plane-surface $-1 165.1905880916776 0 0 -1 0 0 0 0 1 forward_v I I I I #
coedge $-1 $531 $529 $533 $707 reversed $349 $-1 #
edge $-1 $544 -82.595294045838799 $709 82.595294045838799 $543 $792 forward 7 unknown #
vertex $-1 $707 $793 #
straight-curve $-1 -165.1905880916776 -3.35402672345647 0 0 0 -1 I I #
edge $-1 $705 -3.35402672345647 $709 3.35402672345647 $703 $794 forward 7 unknown #
straight-curve $-1 0 -3.35402672345647 -82.595294045838799 -1 0 0 I I #
vertex $-1 $536 $795 #
straight-curve $-1 0 3.35402672345647 -82.595294045838799 1 0 0 I I #
point $-1 165.1905880916776 3.35402672345647 -82.595294045838799 #
point $-1 165.1905880916776 -3.35402672345647 -82.595294045838799 #
straight-curve $-1 -165.1905880916776 0 82.595294045838799 0 -1 0 I I #
point $-1 -165.1905880916776 3.35402672345647 82.595294045838799 #
point $-1 -165.1905880916776 -3.35402672345647 82.595294045838799 #
straight-curve $-1 165.1905880916776 -3.35402672345647 0 0 0 -1 I I #
straight-curve $-1 165.1905880916776 3.35402672345647 0 0 0 -1 I I #
edge $-1 $796 1 $796 0 $553 $-1 forward 7 unknown #
point $-1 0.5 0 -0.25 #
edge $-1 $797 1 $797 0 $557 $-1 forward 7 unknown #
point $-1 0.5 0 -0.25 #
plane-surface $-1 165.1905880916776 0 0 -1 0 0 0 0 1 forward_v I I I I #
coedge $-1 $566 $564 $568 $727 reversed $378 $-1 #
edge $-1 $579 -82.595294045838799 $729 82.595294045838799 $578 $798 forward 7 unknown #
vertex $-1 $727 $799 #
straight-curve $-1 -165.1905880916776 -3.35402672345647 0 0 0 -1 I I #
edge $-1 $725 -3.35402672345647 $729 3.35402672345647 $723 $800 forward 7 unknown #
straight-curve $-1 0 -3.35402672345647 -82.595294045838799 -1 0 0 I I #
vertex $-1 $571 $801 #
straight-curve $-1 0 3.35402672345647 -82.595294045838799 1 0 0 I I #
point $-1 165.1905880916776 3.35402672345647 -82.595294045838799 #
point $-1 165.1905880916776 -3.35402672345647 -82.595294045838799 #
straight-curve $-1 -165.1905880916776 0 82.595294045838799 0 -1 0 I I #
point $-1 -165.1905880916776 3.35402672345647 82.595294045838799 #
point $-1 -165.1905880916776 -3.35402672345647 82.595294045838799 #
straight-curve $-1 165.1905880916776 -3.35402672345647 0 0 0 -1 I I #
straight-curve $-1 165.1905880916776 3.35402672345647 0 0 0 -1 I I #
edge $-1 $802 1 $802 0 $588 $-1 forward 7 unknown #
point $-1 0.5 0 -0.25 #
edge $-1 $803 1 $803 0 $592 $-1 forward 7 unknown #
point $-1 0.5 0 -0.25 #
plane-surface $-1 165.1905880916776 0 0 -1 0 0 0 0 1 forward_v I I I I #
coedge $-1 $601 $599 $603 $747 reversed $407 $-1 #
edge $-1 $614 -82.595294045838799 $749 82.595294045838799 $613 $804 forward 7 unknown #
vertex $-1 $747 $805 #
straight-curve $-1 -165.1905880916776 -3.35402672345647 0 0 0 -1 I I #
edge $-1 $745 -3.35402672345647 $749 3.35402672345647 $743 $806 forward 7 unknown #
straight-curve $-1 0 -3.35402672345647 -82.595294045838799 -1 0 0 I I #
vertex $-1 $606 $807 #
straight-curve $-1 0 3.35402672345647 -82.595294045838799 1 0 0 I I #
point $-1 165.1905880916776 3.35402672345647 -82.595294045838799 #
point $-1 165.1905880916776 -3.35402672345647 -82.595294045838799 #
straight-curve $-1 -165.1905880916776 0 82.595294045838799 0 -1 0 I I #
point $-1 -165.1905880916776 3.35402672345647 82.595294045838799 #
point $-1 -165.1905880916776 -3.35402672345647 82.595294045838799 #
straight-curve $-1 165.1905880916776 -3.35402672345647 0 0 0 -1 I I #
straight-curve $-1 165.1905880916776 3.35402672345647 0 0 0 -1 I I #
edge $-1 $808 1 $808 0 $623 $-1 forward 7 unknown #
point $-1 0.5 0 -0.25 #
edge $-1 $809 1 $809 0 $627 $-1 forward 7 unknown #
point $-1 0.5 0 -0.25 #
plane-surface $-1 165.1905880916776 0 0 -1 0 0 0 0 1 forward_v I I I I #
coedge $-1 $636 $634 $638 $767 reversed $436 $-1 #
edge $-1 $649 -82.595294045838799 $769 82.595294045838799 $648 $810 forward 7 unknown #
vertex $-1 $767 $811 #
straight-curve $-1 -165.1905880916776 -3.35402672345647 0 0 0 -1 I I #
edge $-1 $765 -3.35402672345647 $769 3.35402672345647 $763 $812 forward 7 unknown #
straight-curve $-1 0 -3.35402672345647 -82.595294045838799 -1 0 0 I I #
vertex $-1 $641 $813 #
straight-curve $-1 0 3.35402672345647 -82.595294045838799 1 0 0 I I #
point $-1 165.1905880916776 3.35402672345647 -82.595294045838799 #
point $-1 165.1905880916776 -3.35402672345647 -82.595294045838799 #
straight-curve $-1 -165.1905880916776 0 82.595294045838799 0 -1 0 I I #
point $-1 -165.1905880916776 3.35402672345647 82.595294045838799 #
point $-1 -165.1905880916776 -3.35402672345647 82.595294045838799 #
straight-curve $-1 165.1905880916776 -3.35402672345647 0 0 0 -1 I I #
straight-curve $-1 165.1905880916776 3.35402672345647 0 0 0 -1 I I #
edge $-1 $814 1 $814 0 $658 $-1 forward 7 unknown #
point $-1 0.5 0 -0.25 #
edge $-1 $815 1 $815 0 $662 $-1 forward 7 unknown #
point $-1 0.5 0 -0.25 #
straight-curve $-1 -41.297647022919399 26.50702209928378 0 0 0 -1 I I #
point $-1 -41.297647022919399 -26.50702209928378 -12.540740970852898 #
straight-curve $-1 -41.297647022919399 0 -12.540740970852898 0 1 0 I I #
point $-1 -41.297647022919399 26.50702209928378 -12.540740970852898 #
straight-curve $-1 -165.1905880916776 4.1377135138713506 0 0 0 -1 I I #
point $-1 -165.1905880916776 -4.1377135138713506 -82.595294045838799 #
straight-curve $-1 -165.1905880916776 0 -82.595294045838799 0 1 0 I I #
point $-1 -165.1905880916776 4.1377135138713506 -82.595294045838799 #
vertex $-1 $698 $816 #
vertex $-1 $700 $817 #
straight-curve $-1 -165.1905880916776 3.35402672345647 0 0 0 -1 I I #
point $-1 -165.1905880916776 -3.35402672345647 -82.595294045838799 #
straight-curve $-1 -165.1905880916776 0 -82.595294045838799 0 1 0 I I #
point $-1 -165.1905880916776 3.35402672345647 -82.595294045838799 #
vertex $-1 $718 $818 #
vertex $-1 $720 $819 #
straight-curve $-1 -165.1905880916776 3.35402672345647 0 0 0 -1 I I #
point $-1 -165.1905880916776 -3.35402672345647 -82.595294045838799 #
straight-curve $-1 -165.1905880916776 0 -82.595294045838799 0 1 0 I I #
point $-1 -165.1905880916776 3.35402672345647 -82.595294045838799 #
vertex $-1 $738 $820 #
vertex $-1 $740 $821 #
straight-curve $-1 -165.1905880916776 3.35402672345647 0 0 0 -1 I I #
point $-1 -165.1905880916776 -3.35402672345647 -82.595294045838799 #
straight-curve $-1 -165.1905880916776 0 -82.595294045838799 0 1 0 I I #
point $-1 -165.1905880916776 3.35402672345647 -82.595294045838799 #
vertex $-1 $758 $822 #
vertex $-1 $760 $823 #
straight-curve $-1 -165.1905880916776 3.35402672345647 0 0 0 -1 I I #
point $-1 -165.1905880916776 -3.35402672345647 -82.595294045838799 #
straight-curve $-1 -165.1905880916776 0 -82.595294045838799 0 1 0 I I #
point $-1 -165.1905880916776 3.35402672345647 -82.595294045838799 #
vertex $-1 $778 $824 #
vertex $-1 $780 $825 #
point $-1 0 0 0.5 #
point $-1 0 0 0.5 #
point $-1 0 0 0.25 #
point $-1 0 0 0.25 #
point $-1 0 0 0.25 #
point $-1 0 0 0.25 #
point $-1 0 0 0.25 #
point $-1 0 0 0.25 #
point $-1 0 0 0.25 #
point $-1 0 0 0.25 #
End-of-ACIS-data 