500 0 8 0           
7 Unknown 11 ACIS 5.0 NT 24 Fri Mar 26 03:01:55 1999 
-1 9.9999999999999995e-007 1e-010 
body $-1 $8 $-1 $9 #
body $-1 $10 $-1 $11 #
body $-1 $12 $-1 $13 #
body $-1 $14 $-1 $15 #
body $-1 $16 $-1 $17 #
body $-1 $18 $-1 $19 #
body $-1 $20 $-1 $21 #
body $-1 $22 $-1 $23 #
lump $-1 $-1 $24 $0 #
transform $-1 1 0 0 0 1 0 0 0 1 40.555436872463147 23.529876580891877 4.812828114275141 1 rotate no_reflect no_shear #
lump $-1 $-1 $25 $1 #
transform $-1 1 0 0 0 1 0 0 0 1 40.555436872463147 23.529876580891877 4.812828114275141 1 rotate no_reflect no_shear #
lump $-1 $-1 $26 $2 #
transform $-1 1 0 0 0 1 0 0 0 1 40.555436872463147 23.529876580891877 4.812828114275141 1 rotate no_reflect no_shear #
lump $-1 $-1 $27 $3 #
transform $-1 1 0 0 0 1 0 0 0 1 40.555436872463147 23.529876580891877 4.812828114275141 1 rotate no_reflect no_shear #
lump $-1 $-1 $28 $4 #
transform $-1 1 0 0 0 1 0 0 0 1 40.555436872463147 23.529876580891877 4.812828114275141 1 rotate no_reflect no_shear #
lump $-1 $-1 $29 $5 #
transform $-1 1 0 0 0 1 0 0 0 1 40.555436872463147 23.529876580891877 4.812828114275141 1 rotate no_reflect no_shear #
lump $-1 $-1 $30 $6 #
transform $-1 1 0 0 0 1 0 0 0 1 40.555436872463147 23.529876580891877 4.812828114275141 1 rotate no_reflect no_shear #
lump $-1 $-1 $31 $7 #
transform $-1 1 0 0 0 1 0 0 0 1 40.555436872463147 23.529876580891877 4.812828114275141 1 rotate no_reflect no_shear #
shell $-1 $-1 $-1 $32 $-1 $8 #
shell $-1 $-1 $-1 $33 $-1 $10 #
shell $-1 $-1 $-1 $34 $-1 $12 #
shell $-1 $-1 $-1 $35 $-1 $14 #
shell $-1 $-1 $-1 $36 $-1 $16 #
shell $-1 $-1 $-1 $37 $-1 $18 #
shell $-1 $-1 $-1 $38 $-1 $20 #
shell $-1 $-1 $-1 $39 $-1 $22 #
face $-1 $40 $41 $24 $-1 $42 reversed single #
face $-1 $43 $44 $25 $-1 $45 forward single #
face $-1 $46 $47 $26 $-1 $48 reversed single #
face $-1 $49 $50 $27 $-1 $51 forward single #
face $-1 $52 $53 $28 $-1 $54 forward single #
face $-1 $55 $56 $29 $-1 $57 forward single #
face $-1 $58 $59 $30 $-1 $60 reversed single #
face $-1 $61 $62 $31 $-1 $63 forward single #
face $-1 $64 $65 $24 $-1 $66 forward single #
loop $-1 $-1 $67 $32 #
plane-surface $-1 0 -23.529876580891877 0 0 1 0 0 0 1 forward_v I I I I #
face $-1 $68 $69 $25 $-1 $70 reversed single #
loop $-1 $-1 $71 $33 #
plane-surface $-1 0 -23.529876580891877 0 0 1 0 0 0 1 forward_v I I I I #
face $-1 $72 $73 $26 $-1 $74 reversed single #
loop $-1 $-1 $75 $34 #
plane-surface $-1 26.576037437278117 2.2480524112573219 114.54707551868523 0 -1 0 -0.61566148304635926 0 -0.78801074757464917 forward_v I I I I #
face $-1 $76 $77 $27 $-1 $78 forward single #
loop $-1 $79 $80 $35 #
cone-surface $-1 36.77614164765906 -7.799594004002822 1.289974771147008 -0.61566148304635926 0 -0.78801074757464917 0.78801074757464917 0 -0.61566148304635926 1 I I 0 1 1 forward I I I I #
face $-1 $81 $82 $28 $-1 $83 forward single #
loop $-1 $84 $85 $36 #
cone-surface $-1 36.77614164765906 -4.0317265982802688 1.289974771147008 -0.61566148304635926 0 -0.78801074757464917 0.78801074757464917 0 -0.61566148304635926 1 I I 0 1 1 forward I I I I #
face $-1 $86 $87 $29 $-1 $88 forward single #
loop $-1 $89 $90 $37 #
cone-surface $-1 36.77614164765906 -0.26385919255771384 1.289974771147008 -0.61566148304635926 0 -0.78801074757464917 0.78801074757464917 0 -0.61566148304635926 1 I I 0 1 1 forward I I I I #
face $-1 $91 $92 $30 $-1 $93 reversed single #
loop $-1 $-1 $94 $38 #
plane-surface $-1 -96.899784916541165 -12.128411470473889 59.232859197799492 0 1 0 -0.69465837861970381 0 0.71933979245794832 forward_v I I I I #
face $-1 $95 $96 $31 $-1 $97 forward single #
loop $-1 $98 $99 $39 #
cone-surface $-1 -38.044853695810318 -7.0853099674406472 2.3550221705528478 0.69465837861970381 0 -0.71933979245794832 0.71933979245794832 0 0.69465837861970381 1 I I 0 1 1 forward I I I I #
face $-1 $100 $101 $24 $-1 $102 reversed single #
loop $-1 $-1 $103 $40 #
plane-surface $-1 0 0 4.812828114275141 0 0 1 1 0 0 forward_v I I I I #
coedge $-1 $104 $105 $106 $107 reversed $41 $-1 #
face $-1 $108 $109 $25 $-1 $110 reversed single #
loop $-1 $-1 $111 $43 #
plane-surface $-1 0 0 -4.812828114275141 0 0 1 1 0 0 forward_v I I I I #
coedge $-1 $112 $113 $114 $115 forward $44 $-1 #
face $-1 $116 $117 $26 $-1 $118 reversed single #
loop $-1 $-1 $119 $46 #
plane-surface $-1 -23.360803383709211 -4.0317265982802688 50.630835262512882 0.61566148304635926 0 0.78801074757464917 0.78801074757464917 0 -0.61566148304635926 forward_v I I I I #
coedge $-1 $120 $121 $122 $123 reversed $47 $-1 #
face $-1 $-1 $124 $27 $-1 $125 forward single #
loop $-1 $126 $127 $49 #
cone-surface $-1 35.324948975013754 -7.799594004002822 -0.56746710939364586 -0.61566148304635926 0 -0.78801074757464917 0.39400537378732459 0 -0.30783074152317963 1 I I -0.70710678118654746 0.70710678118654746 0.5 forward I I I I #
loop $-1 $-1 $128 $35 #
coedge $-1 $80 $80 $129 $130 reversed $50 $-1 #
face $-1 $-1 $131 $28 $-1 $132 forward single #
loop $-1 $133 $134 $52 #
cone-surface $-1 35.324948975013754 -4.0317265982802688 -0.56746710939364586 -0.61566148304635926 0 -0.78801074757464917 0.39400537378732459 0 -0.30783074152317963 1 I I -0.70710678118654746 0.70710678118654746 0.5 forward I I I I #
loop $-1 $-1 $135 $36 #
coedge $-1 $85 $85 $136 $137 reversed $53 $-1 #
face $-1 $-1 $138 $29 $-1 $139 forward single #
loop $-1 $140 $141 $55 #
cone-surface $-1 35.324948975013754 -0.26385919255771384 -0.56746710939364586 -0.61566148304635926 0 -0.78801074757464917 0.39400537378732459 0 -0.30783074152317963 1 I I -0.70710678118654746 0.70710678118654746 0.5 forward I I I I #
loop $-1 $-1 $142 $37 #
coedge $-1 $90 $90 $143 $144 reversed $56 $-1 #
face $-1 $145 $146 $30 $-1 $147 reversed single #
loop $-1 $-1 $148 $58 #
plane-surface $-1 -40.555436872463162 -7.0853099674406472 0.88658011204135789 -0.69465837861970381 0 0.71933979245794832 0.71933979245794832 0 0.69465837861970381 forward_v I I I I #
coedge $-1 $149 $150 $151 $152 reversed $59 $-1 #
face $-1 $-1 $153 $31 $-1 $154 forward single #
loop $-1 $155 $156 $61 #
cone-surface $-1 -37.219815696581122 -7.0853099674406472 1.5006703317184726 0.69465837861970381 0 -0.71933979245794832 0.35966989622897416 0 0.3473291893098519 1 I I -0.70710678118654746 0.70710678118654746 0.5 forward I I I I #
loop $-1 $-1 $157 $39 #
coedge $-1 $99 $99 $158 $159 reversed $62 $-1 #
face $-1 $160 $161 $24 $-1 $162 reversed single #
loop $-1 $-1 $163 $64 #
plane-surface $-1 0 0 -4.812828114275141 0 0 1 1 0 0 forward_v I I I I #
coedge $-1 $164 $165 $166 $167 forward $65 $-1 #
coedge $-1 $168 $67 $169 $170 reversed $41 $-1 #
coedge $-1 $67 $168 $171 $172 forward $41 $-1 #
coedge $-1 $173 $163 $67 $107 forward $101 $-1 #
edge $-1 $174 -40.555436872463147 $175 40.555436872463147 $67 $176 forward 7 unknown #
face $-1 $177 $178 $25 $-1 $179 reversed single #
loop $-1 $-1 $180 $68 #
plane-surface $-1 -32.429780643912864 -27.693784413620651 0 0 1 0 0 0 1 forward_v I I I I #
coedge $-1 $181 $182 $113 $183 forward $69 $-1 #
coedge $-1 $184 $71 $185 $186 reversed $44 $-1 #
coedge $-1 $71 $184 $111 $183 reversed $44 $-1 #
coedge $-1 $187 $188 $71 $115 reversed $178 $-1 #
edge $-1 $189 -4.812828114275141 $190 4.812828114275141 $114 $191 forward 7 unknown #
face $-1 $192 $193 $26 $-1 $194 forward single #
loop $-1 $-1 $195 $72 #
plane-surface $-1 26.576037437278117 -10.31150560781786 114.54707551868523 0 1 0 0.61566148304635926 0 0.78801074757464917 forward_v I I I I #
coedge $-1 $196 $197 $198 $199 reversed $73 $-1 #
coedge $-1 $121 $75 $200 $201 reversed $47 $-1 #
coedge $-1 $75 $120 $196 $202 reversed $47 $-1 #
coedge $-1 $198 $203 $75 $123 forward $193 $-1 #
edge $-1 $204 -27.267418153824089 $205 -21.995551566460136 $122 $206 forward 7 unknown #
loop $-1 $-1 $129 $76 #
plane-surface $-1 -23.360803383709211 -4.0317265982802688 50.630835262512882 0.61566148304635926 0 0.78801074757464917 0.78801074757464917 0 -0.61566148304635926 forward_v I I I I #
loop $-1 $-1 $207 $49 #
coedge $-1 $127 $127 $128 $208 reversed $77 $-1 #
coedge $-1 $128 $128 $127 $208 forward $79 $-1 #
coedge $-1 $129 $129 $80 $130 forward $124 $-1 #
edge $-1 $209 0 $209 6.2831853071796004 $129 $210 forward 7 unknown #
loop $-1 $-1 $136 $81 #
plane-surface $-1 -23.360803383709211 -4.0317265982802688 50.630835262512882 0.61566148304635926 0 0.78801074757464917 0.78801074757464917 0 -0.61566148304635926 forward_v I I I I #
loop $-1 $-1 $211 $52 #
coedge $-1 $134 $134 $135 $212 reversed $82 $-1 #
coedge $-1 $135 $135 $134 $212 forward $84 $-1 #
coedge $-1 $136 $136 $85 $137 forward $131 $-1 #
edge $-1 $213 0 $213 6.2831853071796004 $136 $214 forward 7 unknown #
loop $-1 $-1 $143 $86 #
plane-surface $-1 -23.360803383709211 -4.0317265982802688 50.630835262512882 0.61566148304635926 0 0.78801074757464917 0.78801074757464917 0 -0.61566148304635926 forward_v I I I I #
loop $-1 $-1 $215 $55 #
coedge $-1 $141 $141 $142 $216 reversed $87 $-1 #
coedge $-1 $142 $142 $141 $216 forward $89 $-1 #
coedge $-1 $143 $143 $90 $144 forward $138 $-1 #
edge $-1 $217 0 $217 6.2831853071796004 $143 $218 forward 7 unknown #
face $-1 $219 $220 $30 $-1 $221 reversed single #
loop $-1 $-1 $222 $91 #
plane-surface $-1 -96.899784916541165 -2.0422084644074046 59.232859197799492 0 -1 0 0.69465837861970381 0 -0.71933979245794832 forward_v I I I I #
coedge $-1 $223 $224 $225 $226 reversed $92 $-1 #
coedge $-1 $150 $94 $227 $228 reversed $59 $-1 #
coedge $-1 $94 $149 $223 $229 reversed $59 $-1 #
coedge $-1 $225 $230 $94 $152 forward $231 $-1 #
edge $-1 $232 7.8944555858074352 $233 11.960204319274396 $151 $234 forward 7 unknown #
loop $-1 $-1 $158 $95 #
plane-surface $-1 -40.555436872463162 -7.0853099674406472 0.88658011204135789 -0.69465837861970381 0 0.71933979245794832 0.71933979245794832 0 0.69465837861970381 forward_v I I I I #
loop $-1 $-1 $235 $61 #
coedge $-1 $156 $156 $157 $236 reversed $96 $-1 #
coedge $-1 $157 $157 $156 $236 forward $98 $-1 #
coedge $-1 $158 $158 $99 $159 forward $153 $-1 #
edge $-1 $237 0 $237 6.2831853071796004 $158 $238 forward 7 unknown #
face $-1 $239 $240 $24 $-1 $241 reversed single #
loop $-1 $-1 $242 $100 #
plane-surface $-1 -40.555436872463147 0 0 1 0 0 0 0 -1 forward_v I I I I #
coedge $-1 $106 $243 $244 $245 forward $101 $-1 #
coedge $-1 $246 $103 $247 $248 forward $65 $-1 #
coedge $-1 $103 $246 $168 $249 forward $65 $-1 #
coedge $-1 $169 $250 $103 $167 reversed $251 $-1 #
edge $-1 $252 -23.529876580891877 $253 23.529876580891877 $166 $254 forward 7 unknown #
coedge $-1 $105 $104 $165 $249 reversed $41 $-1 #
coedge $-1 $244 $166 $104 $170 forward $251 $-1 #
edge $-1 $252 -4.812828114275141 $174 4.812828114275141 $169 $255 forward 7 unknown #
coedge $-1 $256 $257 $105 $172 reversed $161 $-1 #
edge $-1 $258 -4.812828114275141 $175 4.812828114275141 $171 $259 forward 7 unknown #
coedge $-1 $243 $106 $257 $260 forward $101 $-1 #
vertex $-1 $170 $261 #
vertex $-1 $260 $262 #
straight-curve $-1 0 -23.529876580891877 -4.812828114275141 -1 0 0 I I #
face $-1 $263 $264 $25 $-1 $265 reversed single #
loop $-1 $-1 $114 $108 #
plane-surface $-1 -33.929780643912864 -25.611830497256264 0 1 0 0 0 0 -1 forward_v I I I I #
coedge $-1 $266 $267 $268 $269 forward $109 $-1 #
coedge $-1 $270 $111 $271 $272 forward $69 $-1 #
coedge $-1 $111 $270 $187 $273 forward $69 $-1 #
edge $-1 $189 -33.929780643912864 $274 -30.929780643912864 $111 $275 forward 7 unknown #
coedge $-1 $113 $112 $276 $277 forward $44 $-1 #
coedge $-1 $278 $279 $112 $186 forward $280 $-1 #
edge $-1 $281 30.929780643912864 $190 33.929780643912864 $185 $282 forward 7 unknown #
coedge $-1 $268 $114 $182 $273 reversed $178 $-1 #
coedge $-1 $114 $268 $278 $283 reversed $178 $-1 #
vertex $-1 $183 $284 #
vertex $-1 $283 $285 #
straight-curve $-1 -33.929780643912864 -23.529876580891877 0 0 0 1 I I #
face $-1 $-1 $286 $26 $-1 $287 reversed single #
loop $-1 $-1 $122 $116 #
plane-surface $-1 0 0 4.812828114275141 0 0 1 1 0 0 forward_v I I I I #
coedge $-1 $288 $289 $290 $291 reversed $117 $-1 #
coedge $-1 $292 $119 $121 $202 forward $73 $-1 #
coedge $-1 $119 $292 $288 $293 forward $73 $-1 #
coedge $-1 $290 $122 $119 $199 forward $193 $-1 #
edge $-1 $205 -4.2639157103974563 $294 8.295642308677726 $198 $295 forward 7 unknown #
coedge $-1 $296 $297 $120 $201 forward $286 $-1 #
edge $-1 $298 -56.579543317817063 $204 -52.460709645067475 $200 $299 forward 7 unknown #
edge $-1 $205 74.42077896691751 $298 81.110873744926295 $121 $300 forward 7 unknown #
coedge $-1 $122 $290 $296 $301 forward $193 $-1 #
vertex $-1 $123 $302 #
vertex $-1 $123 $303 #
straight-curve $-1 13.288018718639059 2.2480524112573219 4.8128281142751419 -1 0 0 I I #
coedge $-1 $207 $207 $-1 $304 reversed $126 $-1 #
edge $-1 $305 0 $305 6.2831853071796004 $127 $306 forward 7 unknown #
vertex $-1 $130 $307 #
ellipse-curve $-1 37.919503578781182 -7.799594004002822 2.7534112779003346 0.61566148304635926 0 0.78801074757464917 0.78801074757464917 0 -0.61566148304635926 1 I I #
coedge $-1 $211 $211 $-1 $308 reversed $133 $-1 #
edge $-1 $309 0 $309 6.2831853071796004 $134 $310 forward 7 unknown #
vertex $-1 $137 $311 #
ellipse-curve $-1 37.919503578781182 -4.0317265982802688 2.7534112779003346 0.61566148304635926 0 0.78801074757464917 0.78801074757464917 0 -0.61566148304635926 1 I I #
coedge $-1 $215 $215 $-1 $312 reversed $140 $-1 #
edge $-1 $313 0 $313 6.2831853071796004 $141 $314 forward 7 unknown #
vertex $-1 $144 $315 #
ellipse-curve $-1 37.919503578781182 -0.26385919255771384 2.7534112779003346 0.61566148304635926 0 0.78801074757464917 0.78801074757464917 0 -0.61566148304635926 1 I I #
face $-1 $-1 $231 $30 $-1 $316 forward single #
loop $-1 $-1 $317 $145 #
plane-surface $-1 -40.555436872463147 0 0 1 0 0 0 0 -1 forward_v I I I I #
coedge $-1 $318 $319 $320 $321 reversed $146 $-1 #
coedge $-1 $322 $148 $150 $229 forward $92 $-1 #
coedge $-1 $148 $322 $318 $323 forward $92 $-1 #
coedge $-1 $320 $151 $148 $226 forward $231 $-1 #
edge $-1 $233 -8.5857564867535654 $324 1.5004465193129191 $225 $325 forward 7 unknown #
coedge $-1 $326 $327 $149 $228 forward $220 $-1 #
edge $-1 $328 -28.729849486858374 $232 -24.803601484624604 $227 $329 forward 7 unknown #
edge $-1 $233 -5.6520559214088699 $328 -1.9785632286268914e-014 $150 $330 forward 7 unknown #
coedge $-1 $151 $320 $326 $331 forward $231 $-1 #
loop $-1 $-1 $320 $219 #
vertex $-1 $228 $332 #
vertex $-1 $152 $333 #
straight-curve $-1 -48.449892458270583 -12.128411470473889 4.8128281142751419 1 0 0 I I #
coedge $-1 $235 $235 $-1 $334 reversed $155 $-1 #
edge $-1 $335 0 $335 6.2831853071796004 $156 $336 forward 7 unknown #
vertex $-1 $159 $337 #
ellipse-curve $-1 -38.522562505729667 -7.0853099674406472 2.8497041131582561 -0.69465837861970381 0 0.71933979245794832 0.71933979245794832 0 0.69465837861970381 1 I I #
face $-1 $-1 $251 $24 $-1 $338 reversed single #
loop $-1 $-1 $339 $160 #
plane-surface $-1 0 23.529876580891877 0 0 -1 0 0 0 -1 forward_v I I I I #
coedge $-1 $257 $256 $340 $341 forward $161 $-1 #
coedge $-1 $163 $173 $342 $343 forward $101 $-1 #
coedge $-1 $250 $169 $163 $245 reversed $251 $-1 #
edge $-1 $344 -23.529876580891877 $174 23.529876580891877 $244 $345 forward 7 unknown #
coedge $-1 $165 $164 $256 $346 forward $65 $-1 #
coedge $-1 $339 $340 $164 $248 reversed $240 $-1 #
edge $-1 $253 -40.555436872463147 $347 40.555436872463147 $247 $348 forward 7 unknown #
edge $-1 $258 -40.555436872463147 $252 40.555436872463147 $168 $349 forward 7 unknown #
coedge $-1 $166 $244 $339 $350 reversed $251 $-1 #
loop $-1 $-1 $169 $239 #
vertex $-1 $167 $351 #
vertex $-1 $167 $352 #
straight-curve $-1 40.555436872463147 0 4.812828114275141 0 1 0 I I #
straight-curve $-1 40.555436872463147 -23.529876580891877 0 0 0 -1 I I #
coedge $-1 $242 $171 $246 $346 reversed $161 $-1 #
coedge $-1 $171 $242 $173 $260 reversed $161 $-1 #
vertex $-1 $346 $353 #
straight-curve $-1 -40.555436872463147 -23.529876580891877 0 0 0 -1 I I #
edge $-1 $175 -23.529876580891877 $354 23.529876580891877 $257 $355 forward 7 unknown #
point $-1 40.555436872463147 -23.529876580891877 -4.812828114275141 #
point $-1 -40.555436872463147 -23.529876580891877 -4.812828114275141 #
face $-1 $-1 $280 $25 $-1 $356 forward single #
loop $-1 $-1 $357 $177 #
plane-surface $-1 -30.929780643912864 -25.611830497256264 0 -1 0 0 0 0 1 forward_v I I I I #
coedge $-1 $358 $180 $270 $359 reversed $109 $-1 #
coedge $-1 $180 $358 $360 $361 reversed $109 $-1 #
coedge $-1 $188 $187 $180 $269 reversed $178 $-1 #
edge $-1 $362 -4.812828114275141 $363 4.812828114275141 $268 $364 forward 7 unknown #
coedge $-1 $182 $181 $266 $359 forward $69 $-1 #
coedge $-1 $276 $357 $181 $272 reversed $264 $-1 #
edge $-1 $274 -2.0819539163643874 $365 2.0819539163643874 $271 $366 forward 7 unknown #
edge $-1 $363 -2.0819539163643874 $189 2.0819539163643874 $187 $367 forward 7 unknown #
vertex $-1 $272 $368 #
straight-curve $-1 0 -23.529876580891877 -4.812828114275141 1 0 0 I I #
coedge $-1 $369 $271 $184 $277 reversed $264 $-1 #
edge $-1 $281 -4.812828114275141 $274 4.812828114275141 $276 $370 forward 7 unknown #
coedge $-1 $360 $185 $188 $283 forward $280 $-1 #
coedge $-1 $185 $360 $369 $371 forward $280 $-1 #
loop $-1 $-1 $185 $263 #
vertex $-1 $186 $372 #
straight-curve $-1 0 -23.529876580891877 4.812828114275141 -1 0 0 I I #
edge $-1 $190 -2.0819539163643874 $362 2.0819539163643874 $188 $373 forward 7 unknown #
point $-1 -33.929780643912864 -23.529876580891877 -4.812828114275141 #
point $-1 -33.929780643912864 -23.529876580891877 4.812828114275141 #
loop $-1 $-1 $200 $192 #
plane-surface $-1 40.555436872463147 0 0 -1 0 0 0 0 1 forward_v I I I I #
coedge $-1 $289 $195 $197 $293 reversed $117 $-1 #
coedge $-1 $195 $288 $374 $375 reversed $117 $-1 #
coedge $-1 $203 $198 $195 $291 forward $193 $-1 #
edge $-1 $294 21.995551566460136 $376 27.267418153824089 $290 $377 forward 7 unknown #
coedge $-1 $197 $196 $297 $378 reversed $73 $-1 #
edge $-1 $379 -81.110873744926295 $294 -74.42077896691751 $288 $380 forward 7 unknown #
vertex $-1 $199 $381 #
straight-curve $-1 35.283570285099188 -2.0158632991401344 4.8128281142751455 0 -1 0 I I #
coedge $-1 $374 $200 $203 $301 reversed $286 $-1 #
coedge $-1 $200 $374 $292 $378 forward $286 $-1 #
vertex $-1 $201 $382 #
straight-curve $-1 40.555436872463147 2.2480524112573219 57.273537759342616 0 0 1 I I #
straight-curve $-1 -23.360803383709211 2.2480524112573219 50.630835262512882 0.78801074757464917 0 -0.61566148304635926 I I #
edge $-1 $376 -10.31150560781786 $204 2.2480524112573219 $296 $383 forward 7 unknown #
point $-1 40.555436872463147 2.2480524112573219 4.812828114275141 #
point $-1 35.283570285099195 2.2480524112573219 4.8128281142751419 #
edge $-1 $384 1 $384 0 $207 $-1 forward 7 unknown #
vertex $-1 $208 $385 #
ellipse-curve $-1 35.63277971653693 -7.799594004002822 -0.17346173560632128 0.61566148304635926 0 0.78801074757464917 0.78801074757464917 0 -0.61566148304635926 1 I I #
point $-1 38.707514326355827 -7.799594004002822 2.1377497948539781 #
edge $-1 $386 1 $386 0 $211 $-1 forward 7 unknown #
vertex $-1 $212 $387 #
ellipse-curve $-1 35.63277971653693 -4.0317265982802688 -0.17346173560632128 0.61566148304635926 0 0.78801074757464917 0.78801074757464917 0 -0.61566148304635926 1 I I #
point $-1 38.707514326355827 -4.0317265982802688 2.1377497948539781 #
edge $-1 $388 1 $388 0 $215 $-1 forward 7 unknown #
vertex $-1 $216 $389 #
ellipse-curve $-1 35.63277971653693 -0.26385919255771384 -0.17346173560632128 0.61566148304635926 0 0.78801074757464917 0.78801074757464917 0 -0.61566148304635926 1 I I #
point $-1 38.707514326355827 -0.26385919255771384 2.1377497948539781 #
plane-surface $-1 0 0 4.812828114275141 0 0 1 1 0 0 forward_v I I I I #
coedge $-1 $327 $326 $319 $390 forward $220 $-1 #
coedge $-1 $319 $222 $224 $323 reversed $146 $-1 #
coedge $-1 $222 $318 $317 $390 reversed $146 $-1 #
coedge $-1 $230 $225 $222 $321 forward $231 $-1 #
edge $-1 $324 -11.960204319274396 $391 -7.8944555858074352 $320 $392 forward 7 unknown #
coedge $-1 $224 $223 $327 $393 reversed $92 $-1 #
edge $-1 $394 1.9785632286268914e-014 $324 5.6520559214088699 $318 $395 forward 7 unknown #
vertex $-1 $226 $396 #
straight-curve $-1 -36.489688138996186 -3.5426549837203236 4.8128281142751419 0 1 0 I I #
coedge $-1 $317 $227 $230 $331 reversed $220 $-1 #
coedge $-1 $227 $317 $322 $393 forward $220 $-1 #
vertex $-1 $228 $397 #
straight-curve $-1 -40.555436872463147 -12.128411470473889 29.616429598899746 0 0 1 I I #
straight-curve $-1 -40.555436872463162 -12.128411470473889 0.88658011204135789 -0.71933979245794832 0 -0.69465837861970381 I I #
edge $-1 $391 2.0422084644074046 $232 12.128411470473889 $326 $398 forward 7 unknown #
point $-1 -40.555436872463147 -12.128411470473889 4.812828114275141 #
point $-1 -36.489688138996186 -12.128411470473889 4.8128281142751401 #
edge $-1 $399 1 $399 0 $235 $-1 forward 7 unknown #
vertex $-1 $236 $400 #
ellipse-curve $-1 -37.567144885890976 -7.0853099674406472 1.8603402279474468 -0.69465837861970381 0 0.71933979245794832 0.71933979245794832 0 0.69465837861970381 1 I I #
point $-1 -37.803222713271708 -7.0853099674406472 3.544362491777953 #
plane-surface $-1 40.555436872463147 0 0 -1 0 0 0 0 1 forward_v I I I I #
coedge $-1 $342 $247 $250 $350 forward $240 $-1 #
coedge $-1 $247 $342 $242 $341 reversed $240 $-1 #
edge $-1 $347 -4.812828114275141 $354 4.812828114275141 $340 $401 forward 7 unknown #
coedge $-1 $340 $339 $243 $343 reversed $240 $-1 #
edge $-1 $354 -40.555436872463147 $344 40.555436872463147 $342 $402 forward 7 unknown #
vertex $-1 $245 $403 #
straight-curve $-1 40.555436872463147 0 -4.812828114275141 0 -1 0 I I #
edge $-1 $347 -23.529876580891877 $258 23.529876580891877 $256 $404 forward 7 unknown #
vertex $-1 $248 $405 #
straight-curve $-1 0 23.529876580891877 4.812828114275141 -1 0 0 I I #
straight-curve $-1 0 -23.529876580891877 4.812828114275141 1 0 0 I I #
edge $-1 $253 -4.812828114275141 $344 4.812828114275141 $250 $406 forward 7 unknown #
point $-1 40.555436872463147 -23.529876580891877 4.812828114275141 #
point $-1 40.555436872463147 23.529876580891877 4.812828114275141 #
point $-1 -40.555436872463147 -23.529876580891877 4.812828114275141 #
vertex $-1 $343 $407 #
straight-curve $-1 -40.555436872463147 0 -4.812828114275141 0 1 0 I I #
plane-surface $-1 0 0 4.812828114275141 0 0 1 1 0 0 forward_v I I I I #
coedge $-1 $271 $369 $358 $408 forward $264 $-1 #
coedge $-1 $267 $266 $357 $408 reversed $109 $-1 #
edge $-1 $365 -1.5 $363 1.5 $266 $409 forward 7 unknown #
coedge $-1 $279 $278 $267 $361 forward $280 $-1 #
edge $-1 $362 -1.5 $410 1.5 $267 $411 forward 7 unknown #
vertex $-1 $283 $412 #
vertex $-1 $273 $413 #
straight-curve $-1 -33.929780643912864 -27.693784413620651 0 0 0 -1 I I #
vertex $-1 $408 $414 #
straight-curve $-1 -30.929780643912864 -25.611830497256264 -4.812828114275141 0 -1 0 I I #
straight-curve $-1 -33.929780643912864 -25.611830497256264 -4.812828114275141 0 1 0 I I #
point $-1 -30.929780643912864 -23.529876580891877 -4.812828114275141 #
coedge $-1 $357 $276 $279 $371 reversed $264 $-1 #
straight-curve $-1 -30.929780643912864 -23.529876580891877 0 0 0 -1 I I #
edge $-1 $410 -2.0819539163643874 $281 2.0819539163643874 $369 $415 forward 7 unknown #
point $-1 -30.929780643912864 -23.529876580891877 4.812828114275141 #
straight-curve $-1 -33.929780643912864 -25.611830497256264 4.812828114275141 0 -1 0 I I #
coedge $-1 $297 $296 $289 $375 forward $286 $-1 #
edge $-1 $376 52.460709645067475 $379 56.579543317817063 $374 $416 forward 7 unknown #
vertex $-1 $301 $417 #
straight-curve $-1 13.288018718639059 -10.31150560781786 4.8128281142751419 1 0 0 I I #
edge $-1 $379 -8.295642308677726 $298 4.2639157103974563 $297 $418 forward 7 unknown #
vertex $-1 $378 $419 #
straight-curve $-1 -23.360803383709211 -10.31150560781786 50.630835262512882 -0.78801074757464917 0 0.61566148304635926 I I #
point $-1 35.283570285099195 -10.31150560781786 4.8128281142751419 #
point $-1 40.55543687246314 2.2480524112573219 0.6939944415255539 #
straight-curve $-1 40.555436872463147 0 4.812828114275141 0 1 0 I I #
vertex $-1 $304 $420 #
point $-1 36.420790464111583 -7.799594004002822 -0.78912321865268054 #
vertex $-1 $308 $421 #
point $-1 36.420790464111583 -4.0317265982802688 -0.78912321865268054 #
vertex $-1 $312 $422 #
point $-1 36.420790464111583 -0.26385919255771384 -0.78912321865268054 #
edge $-1 $391 24.803601484624604 $394 28.729849486858374 $317 $423 forward 7 unknown #
vertex $-1 $331 $424 #
straight-curve $-1 -48.449892458270583 -2.0422084644074046 4.8128281142751419 -1 0 0 I I #
edge $-1 $394 -1.5004465193129191 $328 8.5857564867535654 $327 $425 forward 7 unknown #
vertex $-1 $393 $426 #
straight-curve $-1 -40.555436872463162 -2.0422084644074046 0.88658011204135789 0.71933979245794832 0 0.69465837861970381 I I #
point $-1 -36.489688138996186 -2.0422084644074046 4.8128281142751401 #
point $-1 -40.555436872463147 -12.128411470473889 0.88658011204137166 #
straight-curve $-1 -40.555436872463147 0 4.812828114275141 0 -1 0 I I #
vertex $-1 $334 $427 #
point $-1 -36.847805093433024 -7.0853099674406472 2.5549986065671506 #
straight-curve $-1 -40.555436872463147 23.529876580891877 0 0 0 -1 I I #
straight-curve $-1 0 23.529876580891877 -4.812828114275141 1 0 0 I I #
point $-1 40.555436872463147 23.529876580891877 -4.812828114275141 #
straight-curve $-1 -40.555436872463147 0 4.812828114275141 0 -1 0 I I #
point $-1 -40.555436872463147 23.529876580891877 4.812828114275141 #
straight-curve $-1 40.555436872463147 23.529876580891877 0 0 0 -1 I I #
point $-1 -40.555436872463147 23.529876580891877 -4.812828114275141 #
edge $-1 $410 -4.812828114275141 $365 4.812828114275141 $357 $428 forward 7 unknown #
straight-curve $-1 -32.429780643912864 -27.693784413620651 -4.812828114275141 -1 0 0 I I #
vertex $-1 $371 $429 #
straight-curve $-1 -32.429780643912864 -27.693784413620651 4.812828114275141 1 0 0 I I #
point $-1 -33.929780643912864 -27.693784413620651 4.812828114275141 #
point $-1 -33.929780643912864 -27.693784413620651 -4.812828114275141 #
point $-1 -30.929780643912864 -27.693784413620651 -4.812828114275141 #
straight-curve $-1 -30.929780643912864 -25.611830497256264 4.812828114275141 0 1 0 I I #
straight-curve $-1 40.555436872463147 -10.31150560781786 57.273537759342616 0 0 -1 I I #
point $-1 40.555436872463147 -10.31150560781786 4.812828114275141 #
straight-curve $-1 40.555436872463147 -2.0158632991401344 0.69399444152555034 0 1 0 I I #
point $-1 40.55543687246314 -10.31150560781786 0.6939944415255539 #
point $-1 35.017118233490578 -7.799594004002822 -0.96147248318097045 #
point $-1 35.017118233490578 -4.0317265982802688 -0.96147248318097045 #
point $-1 35.017118233490578 -0.26385919255771384 -0.96147248318097045 #
straight-curve $-1 -40.555436872463147 -2.0422084644074046 29.616429598899746 0 0 -1 I I #
point $-1 -40.555436872463147 -2.0422084644074046 4.812828114275141 #
straight-curve $-1 -40.555436872463147 -3.5426549837203236 0.88658011204137122 0 -1 0 I I #
point $-1 -40.555436872463147 -2.0422084644074046 0.88658011204137166 #
point $-1 -36.872486507271269 -7.0853099674406472 1.1410004354894985 #
straight-curve $-1 -30.929780643912864 -27.693784413620651 0 0 0 -1 I I #
point $-1 -30.929780643912864 -27.693784413620651 4.812828114275141 #
End-of-ACIS-data 