500 0 6 0           
7 Unknown 11 ACIS 5.0 NT 24 Fri Mar 26 19:20:53 1999 
-1 9.9999999999999995e-007 1e-010 
body $-1 $6 $-1 $7 #
body $-1 $8 $-1 $9 #
body $-1 $10 $-1 $11 #
body $-1 $12 $-1 $13 #
body $-1 $14 $-1 $15 #
body $-1 $16 $-1 $17 #
lump $-1 $-1 $18 $0 #
transform $-1 1 0 0 0 1 0 0 0 1 79.55076754051332 32.413168658509882 6.9316323356052223 1 rotate no_reflect no_shear #
lump $-1 $-1 $19 $1 #
transform $-1 1 0 0 0 1 0 0 0 1 79.55076754051332 32.413168658509882 6.9316323356052223 1 rotate no_reflect no_shear #
lump $-1 $-1 $20 $2 #
transform $-1 1 0 0 0 1 0 0 0 1 79.55076754051332 32.413168658509882 6.9316323356052223 1 rotate no_reflect no_shear #
lump $-1 $-1 $21 $3 #
transform $-1 1 0 0 0 1 0 0 0 1 79.55076754051332 32.413168658509882 6.9316323356052223 1 rotate no_reflect no_shear #
lump $-1 $-1 $22 $4 #
transform $-1 1 0 0 0 1 0 0 0 1 79.55076754051332 32.413168658509882 6.9316323356052223 1 rotate no_reflect no_shear #
lump $-1 $-1 $23 $5 #
transform $-1 1 0 0 0 1 0 0 0 1 79.55076754051332 32.413168658509882 6.9316323356052223 1 rotate no_reflect no_shear #
shell $-1 $-1 $-1 $24 $-1 $6 #
shell $-1 $-1 $-1 $25 $-1 $8 #
shell $-1 $-1 $-1 $26 $-1 $10 #
shell $-1 $-1 $-1 $27 $-1 $12 #
shell $-1 $-1 $-1 $28 $-1 $14 #
shell $-1 $-1 $-1 $29 $-1 $16 #
face $-1 $30 $31 $18 $-1 $32 forward single #
face $-1 $33 $34 $19 $-1 $35 forward single #
face $-1 $36 $37 $20 $-1 $38 reversed single #
face $-1 $39 $40 $21 $-1 $41 forward single #
face $-1 $42 $43 $22 $-1 $44 reversed single #
face $-1 $45 $46 $23 $-1 $47 forward single #
face $-1 $48 $49 $18 $-1 $50 reversed single #
loop $-1 $-1 $51 $24 #
plane-surface $-1 0 0 6.9316323356052223 0 0 1 1 0 0 forward_v I I I I #
face $-1 $52 $53 $19 $-1 $54 reversed single #
loop $-1 $-1 $55 $25 #
plane-surface $-1 0 -32.413168658509882 0 0 1 0 0 0 1 forward_v I I I I #
face $-1 $56 $57 $20 $-1 $58 reversed single #
loop $-1 $-1 $59 $26 #
plane-surface $-1 137.78597452348447 -1.6072904606062703 219.81172117398569 0 -1 0 -0.86602541151947299 0 -0.49999998660252726 forward_v I I I I #
face $-1 $60 $61 $21 $-1 $62 forward single #
loop $-1 $63 $64 $27 #
cone-surface $-1 77.384237069164257 -8.392937900909704 4.195235722212435 -0.86602541151947299 0 -0.49999998660252726 0.49999998660252726 0 -0.86602541151947299 1 I I 0 1 1 forward I I I I #
face $-1 $65 $66 $22 $-1 $67 reversed single #
loop $-1 $-1 $68 $28 #
plane-surface $-1 -203.19588430694833 14.22359566274034 102.1545882902781 0 1 0 -0.77714596973225614 0 0.62932038083071107 forward_v I I I I #
face $-1 $69 $70 $23 $-1 $71 forward single #
loop $-1 $72 $73 $29 #
cone-surface $-1 -75.444926089265309 17.541598052362644 2.7628792472100296 0.77714596973225614 0 -0.62932038083071107 0.9439805712460666 0 1.1657189545983841 1 I I 0 1 1.5 forward I I I I #
face $-1 $74 $75 $18 $-1 $76 reversed single #
loop $-1 $-1 $77 $30 #
plane-surface $-1 0 0 -6.9316323356052223 0 0 1 1 0 0 forward_v I I I I #
coedge $-1 $78 $79 $80 $81 forward $31 $-1 #
face $-1 $82 $83 $19 $-1 $84 forward single #
loop $-1 $-1 $85 $33 #
plane-surface $-1 -79.55076754051332 0 0 1 0 0 0 0 -1 forward_v I I I I #
coedge $-1 $86 $87 $88 $89 forward $34 $-1 #
face $-1 $90 $91 $20 $-1 $92 reversed single #
loop $-1 $-1 $93 $36 #
plane-surface $-1 2.1315585172487772e-006 -8.3929379009097005 140.26095576503084 0.86602541151947299 0 0.49999998660252726 0.49999998660252726 0 -0.86602541151947299 forward_v I I I I #
coedge $-1 $94 $95 $96 $97 reversed $37 $-1 #
face $-1 $-1 $98 $21 $-1 $99 forward single #
loop $-1 $100 $101 $39 #
cone-surface $-1 76.071217585183987 -8.392937900909704 3.437163596768535 -0.86602541151947299 0 -0.49999998660252726 0.24999999330126363 0 -0.43301270575973649 1 I I -0.70710678118654746 0.70710678118654746 0.5 forward I I I I #
loop $-1 $-1 $102 $27 #
coedge $-1 $64 $64 $103 $104 reversed $40 $-1 #
face $-1 $105 $106 $22 $-1 $107 reversed single #
loop $-1 $-1 $108 $42 #
plane-surface $-1 -79.550767540513291 17.541598052362637 2.0287496423356544 -0.77714596973225614 0 0.62932038083071107 0.62932038083071107 0 0.77714596973225614 forward_v I I I I #
coedge $-1 $109 $110 $111 $112 reversed $43 $-1 #
face $-1 $-1 $113 $23 $-1 $114 forward single #
loop $-1 $115 $116 $45 #
cone-surface $-1 -72.741363168163303 17.541598052362644 0.57357721982657761 0.77714596973225614 0 -0.62932038083071107 0.4719902856230333 0 0.58285947729919207 1 I I -0.70710678118654757 0.70710678118654757 0.75 forward I I I I #
loop $-1 $-1 $117 $29 #
coedge $-1 $73 $73 $118 $119 reversed $46 $-1 #
face $-1 $120 $121 $18 $-1 $122 reversed single #
loop $-1 $-1 $123 $48 #
plane-surface $-1 0 -32.413168658509882 0 0 1 0 0 0 1 forward_v I I I I #
coedge $-1 $124 $125 $126 $127 forward $49 $-1 #
coedge $-1 $128 $51 $129 $130 forward $31 $-1 #
coedge $-1 $51 $128 $131 $132 forward $31 $-1 #
coedge $-1 $133 $134 $51 $81 reversed $135 $-1 #
edge $-1 $136 -32.413168658509882 $137 32.413168658509882 $80 $138 forward 7 unknown #
face $-1 $139 $140 $19 $-1 $141 reversed single #
loop $-1 $-1 $142 $52 #
plane-surface $-1 0 -34.956039260662337 3.5921480279765108 0 0 1 1 0 0 forward_v I I I I #
coedge $-1 $143 $144 $87 $145 forward $53 $-1 #
coedge $-1 $146 $55 $147 $148 reversed $34 $-1 #
coedge $-1 $55 $146 $85 $145 reversed $34 $-1 #
coedge $-1 $149 $142 $55 $89 reversed $83 $-1 #
edge $-1 $150 -79.55076754051332 $151 79.55076754051332 $88 $152 forward 7 unknown #
face $-1 $153 $154 $20 $-1 $155 reversed single #
loop $-1 $-1 $156 $56 #
plane-surface $-1 137.78597452348447 -15.178585341213131 219.81172117398569 0 1 0 0.86602541151947299 0 0.49999998660252726 forward_v I I I I #
coedge $-1 $157 $158 $159 $160 reversed $57 $-1 #
coedge $-1 $95 $59 $161 $162 reversed $37 $-1 #
coedge $-1 $59 $94 $157 $163 reversed $37 $-1 #
coedge $-1 $159 $164 $59 $97 forward $165 $-1 #
edge $-1 $166 -10.657780278771085 $167 -8.0847328925140971 $96 $168 forward 7 unknown #
loop $-1 $-1 $103 $60 #
plane-surface $-1 2.1315585172487772e-006 -8.3929379009097005 140.26095576503084 0.86602541151947299 0 0.49999998660252726 0.49999998660252726 0 -0.86602541151947299 forward_v I I I I #
loop $-1 $-1 $169 $39 #
coedge $-1 $101 $101 $102 $170 reversed $61 $-1 #
coedge $-1 $102 $102 $101 $170 forward $63 $-1 #
coedge $-1 $103 $103 $64 $104 forward $98 $-1 #
edge $-1 $171 0 $171 6.2831853071796004 $103 $172 forward 7 unknown #
face $-1 $173 $174 $22 $-1 $175 forward single #
loop $-1 $-1 $176 $65 #
plane-surface $-1 -203.19588430694833 20.859600441984934 102.1545882902781 0 -1 0 0.77714596973225614 0 -0.62932038083071107 forward_v I I I I #
coedge $-1 $177 $178 $179 $180 reversed $66 $-1 #
coedge $-1 $110 $68 $181 $182 reversed $43 $-1 #
coedge $-1 $68 $109 $177 $183 reversed $43 $-1 #
coedge $-1 $179 $184 $68 $112 forward $174 $-1 #
edge $-1 $185 22.047174612960845 $186 26.017450627851261 $111 $187 forward 7 unknown #
loop $-1 $-1 $118 $69 #
plane-surface $-1 -79.550767540513291 17.541598052362637 2.0287496423356544 -0.77714596973225614 0 0.62932038083071107 0.62932038083071107 0 0.77714596973225614 forward_v I I I I #
loop $-1 $-1 $188 $45 #
coedge $-1 $116 $116 $117 $189 reversed $70 $-1 #
coedge $-1 $117 $117 $116 $189 forward $72 $-1 #
coedge $-1 $118 $118 $73 $119 forward $113 $-1 #
edge $-1 $190 0 $190 6.2831853071796004 $118 $191 forward 7 unknown #
face $-1 $192 $193 $18 $-1 $194 reversed single #
loop $-1 $-1 $195 $74 #
plane-surface $-1 -79.55076754051332 0 0 1 0 0 0 0 -1 forward_v I I I I #
coedge $-1 $196 $131 $197 $198 forward $75 $-1 #
coedge $-1 $199 $77 $196 $200 forward $49 $-1 #
coedge $-1 $77 $199 $201 $202 forward $49 $-1 #
coedge $-1 $134 $133 $77 $127 reversed $135 $-1 #
edge $-1 $203 -32.413168658509882 $204 32.413168658509882 $126 $205 forward 7 unknown #
coedge $-1 $79 $78 $206 $207 forward $31 $-1 #
coedge $-1 $208 $209 $78 $130 reversed $193 $-1 #
edge $-1 $137 -79.55076754051332 $210 79.55076754051332 $129 $211 forward 7 unknown #
coedge $-1 $123 $212 $79 $132 reversed $75 $-1 #
edge $-1 $213 -79.55076754051332 $136 79.55076754051332 $131 $214 forward 7 unknown #
coedge $-1 $126 $80 $212 $215 forward $135 $-1 #
coedge $-1 $80 $126 $208 $216 reversed $135 $-1 #
loop $-1 $-1 $133 $192 #
vertex $-1 $81 $217 #
vertex $-1 $81 $218 #
straight-curve $-1 79.55076754051332 0 6.9316323356052223 0 1 0 I I #
face $-1 $219 $220 $19 $-1 $221 reversed single #
loop $-1 $-1 $222 $82 #
plane-surface $-1 0 -34.956039260662337 -0.23673954024723276 0 0 1 1 0 0 forward_v I I I I #
coedge $-1 $88 $223 $224 $225 forward $83 $-1 #
coedge $-1 $226 $85 $227 $228 reversed $53 $-1 #
coedge $-1 $85 $226 $149 $229 reversed $53 $-1 #
edge $-1 $150 -3.5921480279765108 $230 0.23673954024723276 $85 $231 forward 7 unknown #
coedge $-1 $87 $86 $232 $233 forward $34 $-1 #
coedge $-1 $224 $234 $86 $148 forward $235 $-1 #
edge $-1 $236 -0.23673954024723276 $151 3.5921480279765108 $147 $237 forward 7 unknown #
coedge $-1 $223 $88 $144 $229 forward $83 $-1 #
vertex $-1 $145 $238 #
vertex $-1 $225 $239 #
straight-curve $-1 0 -32.413168658509882 3.5921480279765108 1 0 0 I I #
face $-1 $-1 $165 $20 $-1 $240 forward single #
loop $-1 $-1 $241 $90 #
plane-surface $-1 79.55076754051332 0 0 -1 0 0 0 0 1 forward_v I I I I #
coedge $-1 $242 $243 $244 $245 reversed $91 $-1 #
coedge $-1 $246 $93 $95 $163 forward $57 $-1 #
coedge $-1 $93 $246 $242 $247 forward $57 $-1 #
coedge $-1 $244 $96 $93 $160 forward $165 $-1 #
edge $-1 $167 -2.5891784898485799 $248 10.98211639075828 $159 $249 forward 7 unknown #
coedge $-1 $250 $251 $94 $162 forward $154 $-1 #
edge $-1 $252 -107.4308772138879 $166 -102.97422825138761 $161 $253 forward 7 unknown #
edge $-1 $167 153.95544017062326 $252 159.10153508102655 $95 $254 forward 7 unknown #
coedge $-1 $96 $244 $250 $255 forward $165 $-1 #
loop $-1 $-1 $244 $153 #
vertex $-1 $162 $256 #
vertex $-1 $97 $257 #
straight-curve $-1 68.892987261742235 -1.6072904606062703 6.9316323356052294 -1 0 0 I I #
coedge $-1 $169 $169 $-1 $258 reversed $100 $-1 #
edge $-1 $259 0 $259 6.2831853071796004 $101 $260 forward 7 unknown #
vertex $-1 $104 $261 #
ellipse-curve $-1 78.264243847384819 -8.392937900909704 4.703307854355085 0.86602541151947299 0 0.49999998660252726 0.49999998660252726 0 -0.86602541151947299 1 I I #
face $-1 $-1 $262 $22 $-1 $263 reversed single #
loop $-1 $-1 $111 $105 #
plane-surface $-1 0 0 6.9316323356052223 0 0 1 1 0 0 forward_v I I I I #
coedge $-1 $264 $265 $266 $267 reversed $106 $-1 #
coedge $-1 $268 $108 $110 $183 forward $66 $-1 #
coedge $-1 $108 $268 $264 $269 forward $66 $-1 #
coedge $-1 $266 $111 $108 $180 forward $174 $-1 #
edge $-1 $186 5.4527966365590217 $270 12.088801415803616 $179 $271 forward 7 unknown #
coedge $-1 $272 $273 $109 $182 forward $262 $-1 #
edge $-1 $274 -49.048544502803431 $185 -44.145661809533827 $181 $275 forward 7 unknown #
edge $-1 $186 -6.3088311388383307 $274 4.5151010033889764e-014 $110 $276 forward 7 unknown #
coedge $-1 $111 $266 $272 $277 forward $174 $-1 #
vertex $-1 $112 $278 #
vertex $-1 $112 $279 #
straight-curve $-1 -101.59794215347416 14.22359566274034 6.9316323356052223 1 0 0 I I #
coedge $-1 $188 $188 $-1 $280 reversed $115 $-1 #
edge $-1 $281 0 $281 6.2831853071796004 $116 $282 forward 7 unknown #
vertex $-1 $119 $283 #
ellipse-curve $-1 -77.565629533068105 17.541598052362644 4.4801909889704294 -0.77714596973225614 0 0.62932038083071107 0.9439805712460666 0 1.1657189545983841 1 I I #
face $-1 $-1 $135 $18 $-1 $284 reversed single #
loop $-1 $-1 $208 $120 #
plane-surface $-1 0 32.413168658509882 0 0 -1 0 0 0 -1 forward_v I I I I #
coedge $-1 $285 $206 $209 $286 forward $121 $-1 #
coedge $-1 $212 $123 $124 $200 reversed $75 $-1 #
coedge $-1 $206 $285 $123 $198 reversed $121 $-1 #
edge $-1 $213 -6.9316323356052223 $287 6.9316323356052223 $197 $288 forward 7 unknown #
coedge $-1 $125 $124 $285 $289 forward $49 $-1 #
edge $-1 $204 -79.55076754051332 $287 79.55076754051332 $196 $290 forward 7 unknown #
coedge $-1 $209 $208 $125 $202 reversed $193 $-1 #
edge $-1 $291 -79.55076754051332 $203 79.55076754051332 $201 $292 forward 7 unknown #
vertex $-1 $127 $293 #
vertex $-1 $215 $294 #
straight-curve $-1 79.55076754051332 0 -6.9316323356052223 0 -1 0 I I #
coedge $-1 $195 $197 $128 $207 reversed $121 $-1 #
edge $-1 $210 -32.413168658509882 $213 32.413168658509882 $206 $295 forward 7 unknown #
coedge $-1 $201 $129 $134 $216 forward $193 $-1 #
coedge $-1 $129 $201 $195 $286 reversed $193 $-1 #
vertex $-1 $130 $296 #
straight-curve $-1 0 32.413168658509882 6.9316323356052223 -1 0 0 I I #
coedge $-1 $131 $196 $133 $215 reversed $75 $-1 #
vertex $-1 $207 $297 #
straight-curve $-1 0 -32.413168658509882 6.9316323356052223 1 0 0 I I #
edge $-1 $136 -6.9316323356052223 $204 6.9316323356052223 $133 $298 forward 7 unknown #
edge $-1 $137 -6.9316323356052223 $203 6.9316323356052223 $134 $299 forward 7 unknown #
point $-1 79.55076754051332 -32.413168658509882 6.9316323356052223 #
point $-1 79.55076754051332 32.413168658509882 6.9316323356052223 #
face $-1 $-1 $235 $19 $-1 $300 reversed single #
loop $-1 $-1 $301 $139 #
plane-surface $-1 0 -37.498909862814791 1.677704243864639 0 1 0 0 0 1 forward_v I I I I #
coedge $-1 $302 $232 $234 $303 forward $140 $-1 #
coedge $-1 $142 $149 $304 $305 forward $83 $-1 #
coedge $-1 $306 $147 $142 $225 reversed $235 $-1 #
edge $-1 $307 -2.5428706021524548 $151 2.5428706021524548 $224 $308 forward 7 unknown #
coedge $-1 $144 $143 $301 $309 reversed $53 $-1 #
coedge $-1 $232 $302 $143 $228 forward $140 $-1 #
edge $-1 $310 -2.5428706021524548 $230 2.5428706021524548 $143 $311 forward 7 unknown #
edge $-1 $150 -2.5428706021524548 $312 2.5428706021524548 $144 $313 forward 7 unknown #
vertex $-1 $145 $314 #
straight-curve $-1 -79.55076754051332 -32.413168658509882 0 0 0 -1 I I #
coedge $-1 $222 $227 $146 $233 reversed $140 $-1 #
edge $-1 $236 -79.55076754051332 $230 79.55076754051332 $232 $315 forward 7 unknown #
coedge $-1 $147 $306 $222 $303 reversed $235 $-1 #
loop $-1 $-1 $147 $219 #
vertex $-1 $148 $316 #
straight-curve $-1 79.55076754051332 -32.413168658509882 0 0 0 1 I I #
point $-1 -79.55076754051332 -32.413168658509882 3.5921480279765108 #
point $-1 79.55076754051332 -32.413168658509882 3.5921480279765108 #
plane-surface $-1 0 0 6.9316323356052223 0 0 1 1 0 0 forward_v I I I I #
coedge $-1 $251 $250 $243 $317 forward $154 $-1 #
coedge $-1 $243 $156 $158 $247 reversed $91 $-1 #
coedge $-1 $156 $242 $241 $317 reversed $91 $-1 #
coedge $-1 $164 $159 $156 $245 forward $165 $-1 #
edge $-1 $248 8.0847328925140971 $318 10.657780278771085 $244 $319 forward 7 unknown #
coedge $-1 $158 $157 $251 $320 reversed $57 $-1 #
edge $-1 $321 -159.10153508102655 $248 -153.95544017062326 $242 $322 forward 7 unknown #
vertex $-1 $160 $323 #
straight-curve $-1 76.977720154256346 -4.1964689504548502 6.9316323356052294 0 -1 0 I I #
coedge $-1 $241 $161 $164 $255 reversed $154 $-1 #
coedge $-1 $161 $241 $246 $320 forward $154 $-1 #
vertex $-1 $162 $324 #
straight-curve $-1 79.55076754051332 -1.6072904606062703 109.90586058699284 0 0 1 I I #
straight-curve $-1 2.1315585172487772e-006 -1.6072904606062703 140.26095576503084 0.49999998660252726 0 -0.86602541151947299 I I #
edge $-1 $318 -15.178585341213131 $166 -1.6072904606062703 $250 $325 forward 7 unknown #
point $-1 79.55076754051332 -1.6072904606062703 6.9316323356052223 #
point $-1 76.977720154256332 -1.6072904606062703 6.9316323356052294 #
edge $-1 $326 1 $326 0 $169 $-1 forward 7 unknown #
vertex $-1 $170 $327 #
ellipse-curve $-1 76.504230290943724 -8.392937900909704 3.6871635900697988 0.86602541151947299 0 0.49999998660252726 0.49999998660252726 0 -0.86602541151947299 1 I I #
point $-1 78.764243833987322 -8.392937900909704 3.8372824428355976 #
loop $-1 $-1 $181 $173 #
plane-surface $-1 -79.55076754051332 0 0 1 0 0 0 0 -1 forward_v I I I I #
coedge $-1 $265 $176 $178 $269 reversed $106 $-1 #
coedge $-1 $176 $264 $328 $329 reversed $106 $-1 #
coedge $-1 $184 $179 $176 $267 forward $174 $-1 #
edge $-1 $270 -26.017450627851261 $330 -22.047174612960845 $266 $331 forward 7 unknown #
coedge $-1 $178 $177 $273 $332 reversed $66 $-1 #
edge $-1 $333 -4.5151010033889764e-014 $270 6.3088311388383307 $264 $334 forward 7 unknown #
vertex $-1 $180 $335 #
straight-curve $-1 -75.580491525622904 8.7707990261813187 6.9316323356052223 0 1 0 I I #
coedge $-1 $328 $181 $184 $277 reversed $262 $-1 #
coedge $-1 $181 $328 $268 $332 forward $262 $-1 #
vertex $-1 $182 $336 #
straight-curve $-1 -79.55076754051332 14.22359566274034 51.077294145139049 0 0 1 I I #
straight-curve $-1 -79.550767540513291 14.22359566274034 2.0287496423356544 -0.62932038083071107 0 -0.77714596973225614 I I #
edge $-1 $330 -20.859600441984934 $185 -14.22359566274034 $272 $337 forward 7 unknown #
point $-1 -79.55076754051332 14.22359566274034 6.9316323356052223 #
point $-1 -75.580491525622904 14.22359566274034 6.9316323356052223 #
edge $-1 $338 1 $338 0 $188 $-1 forward 7 unknown #
vertex $-1 $189 $339 #
ellipse-curve $-1 -73.324222645462498 17.541598052362644 1.045567505449611 -0.77714596973225614 0 0.62932038083071107 0.9439805712460666 0 1.1657189545983841 1 I I #
point $-1 -76.621648961822061 17.541598052362644 5.6459099435688334 #
plane-surface $-1 79.55076754051332 0 0 -1 0 0 0 0 1 forward_v I I I I #
coedge $-1 $197 $195 $199 $289 reversed $121 $-1 #
edge $-1 $210 -6.9316323356052223 $291 6.9316323356052223 $209 $340 forward 7 unknown #
vertex $-1 $289 $341 #
straight-curve $-1 -79.55076754051332 -32.413168658509882 0 0 0 -1 I I #
edge $-1 $287 -32.413168658509882 $291 32.413168658509882 $285 $342 forward 7 unknown #
straight-curve $-1 0 -32.413168658509882 -6.9316323356052223 -1 0 0 I I #
vertex $-1 $202 $343 #
straight-curve $-1 0 32.413168658509882 -6.9316323356052223 1 0 0 I I #
point $-1 79.55076754051332 32.413168658509882 -6.9316323356052223 #
point $-1 79.55076754051332 -32.413168658509882 -6.9316323356052223 #
straight-curve $-1 -79.55076754051332 0 6.9316323356052223 0 -1 0 I I #
point $-1 -79.55076754051332 32.413168658509882 6.9316323356052223 #
point $-1 -79.55076754051332 -32.413168658509882 6.9316323356052223 #
straight-curve $-1 79.55076754051332 -32.413168658509882 0 0 0 -1 I I #
straight-curve $-1 79.55076754051332 32.413168658509882 0 0 0 -1 I I #
plane-surface $-1 79.55076754051332 0 0 -1 0 0 0 0 1 forward_v I I I I #
coedge $-1 $344 $304 $226 $309 forward $220 $-1 #
coedge $-1 $227 $222 $344 $345 forward $140 $-1 #
edge $-1 $236 -2.5428706021524548 $346 2.5428706021524548 $234 $347 forward 7 unknown #
coedge $-1 $301 $348 $223 $305 reversed $220 $-1 #
edge $-1 $312 -79.55076754051332 $307 79.55076754051332 $304 $349 forward 7 unknown #
coedge $-1 $234 $224 $348 $350 forward $235 $-1 #
vertex $-1 $225 $351 #
straight-curve $-1 79.55076754051332 -34.956039260662337 3.5921480279765108 0 1 0 I I #
edge $-1 $312 -1.9144437841118718 $310 1.9144437841118718 $226 $352 forward 7 unknown #
vertex $-1 $228 $353 #
straight-curve $-1 -79.55076754051332 -34.956039260662337 -0.23673954024723276 0 1 0 I I #
vertex $-1 $229 $354 #
straight-curve $-1 -79.55076754051332 -34.956039260662337 3.5921480279765108 0 -1 0 I I #
point $-1 -79.55076754051332 -32.413168658509882 -0.23673954024723276 #
straight-curve $-1 0 -32.413168658509882 -0.23673954024723276 -1 0 0 I I #
point $-1 79.55076754051332 -32.413168658509882 -0.23673954024723276 #
edge $-1 $318 102.97422825138761 $321 107.4308772138879 $241 $355 forward 7 unknown #
vertex $-1 $255 $356 #
straight-curve $-1 68.892987261742235 -15.178585341213131 6.9316323356052294 1 0 0 I I #
edge $-1 $321 -10.98211639075828 $252 2.5891784898485799 $251 $357 forward 7 unknown #
vertex $-1 $320 $358 #
straight-curve $-1 2.1315585172487772e-006 -15.178585341213131 140.26095576503084 -0.49999998660252726 0 0.86602541151947299 I I #
point $-1 76.977720154256332 -15.178585341213131 6.9316323356052294 #
point $-1 79.55076754051332 -1.6072904606062703 2.4749833731049478 #
straight-curve $-1 79.55076754051332 0 6.9316323356052223 0 1 0 I I #
vertex $-1 $258 $359 #
point $-1 77.004230277546256 -8.392937900909704 2.8211381785503256 #
coedge $-1 $273 $272 $265 $329 forward $262 $-1 #
edge $-1 $330 44.145661809533827 $333 49.048544502803431 $328 $360 forward 7 unknown #
vertex $-1 $277 $361 #
straight-curve $-1 -101.59794215347416 20.859600441984934 6.9316323356052223 -1 0 0 I I #
edge $-1 $333 -12.088801415803616 $274 -5.4527966365590217 $273 $362 forward 7 unknown #
vertex $-1 $332 $363 #
straight-curve $-1 -79.550767540513291 20.859600441984934 2.0287496423356544 0.62932038083071107 0 0.77714596973225614 I I #
point $-1 -75.580491525622904 20.859600441984934 6.9316323356052223 #
point $-1 -79.55076754051332 14.22359566274034 2.0287496423356193 #
straight-curve $-1 -79.55076754051332 0 6.9316323356052223 0 -1 0 I I #
vertex $-1 $280 $364 #
point $-1 -72.380242074216426 17.541598052362644 2.2112864600479951 #
straight-curve $-1 -79.55076754051332 32.413168658509882 0 0 0 -1 I I #
point $-1 -79.55076754051332 -32.413168658509882 -6.9316323356052223 #
straight-curve $-1 -79.55076754051332 0 -6.9316323356052223 0 1 0 I I #
point $-1 -79.55076754051332 32.413168658509882 -6.9316323356052223 #
coedge $-1 $348 $301 $302 $345 reversed $220 $-1 #
edge $-1 $346 -79.55076754051332 $310 79.55076754051332 $344 $365 forward 7 unknown #
vertex $-1 $350 $366 #
straight-curve $-1 79.55076754051332 -34.956039260662337 -0.23673954024723276 0 -1 0 I I #
coedge $-1 $304 $344 $306 $350 reversed $220 $-1 #
straight-curve $-1 0 -37.498909862814791 3.5921480279765108 1 0 0 I I #
edge $-1 $307 -1.9144437841118718 $346 1.9144437841118718 $306 $367 forward 7 unknown #
point $-1 79.55076754051332 -37.498909862814791 3.5921480279765108 #
straight-curve $-1 -79.55076754051332 -37.498909862814791 1.677704243864639 0 0 -1 I I #
point $-1 -79.55076754051332 -37.498909862814791 -0.23673954024723276 #
point $-1 -79.55076754051332 -37.498909862814791 3.5921480279765108 #
straight-curve $-1 79.55076754051332 -15.178585341213131 109.90586058699284 0 0 -1 I I #
point $-1 79.55076754051332 -15.178585341213131 6.9316323356052223 #
straight-curve $-1 79.55076754051332 -4.1964689504548502 2.4749833731049335 0 1 0 I I #
point $-1 79.55076754051332 -15.178585341213131 2.4749833731049478 #
point $-1 75.638204879424251 -8.392937900909704 3.1871636034672712 #
straight-curve $-1 -79.55076754051332 20.859600441984934 51.077294145139049 0 0 -1 I I #
point $-1 -79.55076754051332 20.859600441984934 6.9316323356052223 #
straight-curve $-1 -79.55076754051332 8.7707990261813187 2.0287496423356162 0 -1 0 I I #
point $-1 -79.55076754051332 20.859600441984934 2.0287496423356193 #
point $-1 -72.158503690864109 17.541598052362644 0.10158693420354431 #
straight-curve $-1 0 -37.498909862814791 -0.23673954024723276 -1 0 0 I I #
point $-1 79.55076754051332 -37.498909862814791 -0.23673954024723276 #
straight-curve $-1 79.55076754051332 -37.498909862814791 1.677704243864639 0 0 -1 I I #
End-of-ACIS-data 