500 0 8 0           
7 Unknown 11 ACIS 5.0 NT 24 Fri Mar 26 19:27:05 1999 
-1 9.9999999999999995e-007 1e-010 
body $-1 $8 $-1 $9 #
body $-1 $10 $-1 $11 #
body $-1 $12 $-1 $13 #
body $-1 $14 $-1 $15 #
body $-1 $16 $-1 $17 #
body $-1 $18 $-1 $19 #
body $-1 $20 $-1 $21 #
body $-1 $22 $-1 $23 #
lump $-1 $-1 $24 $0 #
transform $-1 1 0 0 0 1 0 0 0 1 54.209418012024294 33.195348137188859 12.547004797933829 1 rotate no_reflect no_shear #
lump $-1 $-1 $25 $1 #
transform $-1 1 0 0 0 1 0 0 0 1 54.209418012024294 33.195348137188859 12.547004797933829 1 rotate no_reflect no_shear #
lump $-1 $-1 $26 $2 #
transform $-1 1 0 0 0 1 0 0 0 1 54.209418012024294 33.195348137188859 12.547004797933829 1 rotate no_reflect no_shear #
lump $-1 $-1 $27 $3 #
transform $-1 1 0 0 0 1 0 0 0 1 54.209418012024294 33.195348137188859 12.547004797933829 1 rotate no_reflect no_shear #
lump $-1 $-1 $28 $4 #
transform $-1 1 0 0 0 1 0 0 0 1 54.209418012024294 33.195348137188859 12.547004797933829 1 rotate no_reflect no_shear #
lump $-1 $-1 $29 $5 #
transform $-1 1 0 0 0 1 0 0 0 1 54.209418012024294 33.195348137188859 12.547004797933829 1 rotate no_reflect no_shear #
lump $-1 $-1 $30 $6 #
transform $-1 1 0 0 0 1 0 0 0 1 54.209418012024294 33.195348137188859 12.547004797933829 1 rotate no_reflect no_shear #
lump $-1 $-1 $31 $7 #
transform $-1 1 0 0 0 1 0 0 0 1 54.209418012024294 33.195348137188859 12.547004797933829 1 rotate no_reflect no_shear #
shell $-1 $-1 $-1 $32 $-1 $8 #
shell $-1 $-1 $-1 $33 $-1 $10 #
shell $-1 $-1 $-1 $34 $-1 $12 #
shell $-1 $-1 $-1 $35 $-1 $14 #
shell $-1 $-1 $-1 $36 $-1 $16 #
shell $-1 $-1 $-1 $37 $-1 $18 #
shell $-1 $-1 $-1 $38 $-1 $20 #
shell $-1 $-1 $-1 $39 $-1 $22 #
face $-1 $40 $41 $24 $-1 $42 reversed single #
face $-1 $43 $44 $25 $-1 $45 forward single #
face $-1 $46 $47 $26 $-1 $48 reversed single #
face $-1 $49 $50 $27 $-1 $51 forward single #
face $-1 $52 $53 $28 $-1 $54 forward single #
face $-1 $55 $56 $29 $-1 $57 reversed single #
face $-1 $58 $59 $30 $-1 $60 forward single #
face $-1 $61 $62 $31 $-1 $63 forward single #
face $-1 $64 $65 $24 $-1 $66 forward single #
loop $-1 $-1 $67 $32 #
plane-surface $-1 0 -33.195348137188859 0 0 1 0 0 0 1 forward_v I I I I #
face $-1 $68 $69 $25 $-1 $70 reversed single #
loop $-1 $-1 $71 $33 #
plane-surface $-1 0 -33.195348137188859 0 0 1 0 0 0 1 forward_v I I I I #
face $-1 $72 $73 $26 $-1 $74 reversed single #
loop $-1 $-1 $75 $34 #
plane-surface $-1 -18.964610753362741 79.827563744730639 123.08915155091609 1 0 0 0 -0.79863551827123203 -0.60181501223851219 forward_v I I I I #
face $-1 $76 $77 $27 $-1 $78 forward single #
loop $-1 $79 $80 $35 #
cone-surface $-1 -13.546150538116244 27.929148711684107 6.9088075966626175 0 -0.79863551827123203 -0.60181501223851219 1.5 0 0 1 I I 0 1 1.5 forward I I I I #
face $-1 $81 $82 $28 $-1 $83 forward single #
loop $-1 $84 $85 $36 #
cone-surface $-1 -5.4184602152464976 27.929148711684107 6.9088075966626175 0 -0.79863551827123203 -0.60181501223851219 1.5 0 0 1 I I 0 1 1.5 forward I I I I #
face $-1 $86 $87 $29 $-1 $88 reversed single #
loop $-1 $-1 $89 $37 #
plane-surface $-1 -9.4823053766813743 -6.7595695536991229 57.841068422218044 0 0.79863551827123203 0.60181501223851219 1 0 0 forward_v I I I I #
face $-1 $90 $91 $30 $-1 $92 forward single #
loop $-1 $93 $94 $38 #
cone-surface $-1 5.4184602152465047 27.929148711684107 6.9088075966626175 0 -0.79863551827123203 -0.60181501223851219 1.5 0 0 1 I I 0 1 1.5 forward I I I I #
face $-1 $95 $96 $31 $-1 $97 forward single #
loop $-1 $98 $99 $39 #
cone-surface $-1 13.546150538116244 27.929148711684107 6.9088075966626175 0 -0.79863551827123203 -0.60181501223851219 1.5 0 0 1 I I 0 1 1.5 forward I I I I #
face $-1 $100 $101 $24 $-1 $102 reversed single #
loop $-1 $-1 $103 $40 #
plane-surface $-1 0 0 12.547004797933829 0 0 1 1 0 0 forward_v I I I I #
coedge $-1 $104 $105 $106 $107 reversed $41 $-1 #
face $-1 $108 $109 $25 $-1 $110 reversed single #
loop $-1 $-1 $111 $43 #
plane-surface $-1 0 0 -12.547004797933829 0 0 1 1 0 0 forward_v I I I I #
coedge $-1 $112 $113 $114 $115 forward $44 $-1 #
face $-1 $116 $117 $26 $-1 $118 reversed single #
loop $-1 $-1 $119 $46 #
plane-surface $-1 -9.4823053766813743 -6.7595695536991229 57.841068422218044 0 0.79863551827123203 0.60181501223851219 1 0 0 forward_v I I I I #
coedge $-1 $120 $121 $122 $123 reversed $47 $-1 #
face $-1 $-1 $124 $27 $-1 $125 forward single #
loop $-1 $126 $127 $49 #
cone-surface $-1 -13.546150538116244 24.975669433284736 4.6832013878082126 0 -0.79863551827123203 -0.60181501223851219 0.75 0 0 1 I I -0.70710678118654757 0.70710678118654757 0.75 forward I I I I #
loop $-1 $-1 $128 $35 #
coedge $-1 $80 $80 $129 $130 reversed $50 $-1 #
face $-1 $-1 $131 $28 $-1 $132 forward single #
loop $-1 $133 $134 $52 #
cone-surface $-1 -5.4184602152464976 24.975669433284736 4.6832013878082126 0 -0.79863551827123203 -0.60181501223851219 0.75 0 0 1 I I -0.70710678118654757 0.70710678118654757 0.75 forward I I I I #
loop $-1 $-1 $135 $36 #
coedge $-1 $85 $85 $136 $137 reversed $53 $-1 #
face $-1 $138 $139 $29 $-1 $140 forward single #
loop $-1 $-1 $141 $55 #
plane-surface $-1 18.964610753362741 79.827563744730639 123.08915155091609 -1 0 0 0 0.79863551827123203 0.60181501223851219 forward_v I I I I #
coedge $-1 $142 $143 $144 $145 reversed $56 $-1 #
face $-1 $-1 $146 $30 $-1 $147 forward single #
loop $-1 $148 $149 $58 #
cone-surface $-1 5.4184602152465047 24.975669433284736 4.6832013878082126 0 -0.79863551827123203 -0.60181501223851219 0.75 0 0 1 I I -0.70710678118654757 0.70710678118654757 0.75 forward I I I I #
loop $-1 $-1 $150 $38 #
coedge $-1 $94 $94 $151 $152 reversed $59 $-1 #
face $-1 $-1 $153 $31 $-1 $154 forward single #
loop $-1 $155 $156 $61 #
cone-surface $-1 13.546150538116244 24.975669433284736 4.6832013878082126 0 -0.79863551827123203 -0.60181501223851219 0.75 0 0 1 I I -0.70710678118654757 0.70710678118654757 0.75 forward I I I I #
loop $-1 $-1 $157 $39 #
coedge $-1 $99 $99 $158 $159 reversed $62 $-1 #
face $-1 $160 $161 $24 $-1 $162 reversed single #
loop $-1 $-1 $163 $64 #
plane-surface $-1 0 0 -12.547004797933829 0 0 1 1 0 0 forward_v I I I I #
coedge $-1 $164 $165 $166 $167 forward $65 $-1 #
coedge $-1 $168 $67 $169 $170 reversed $41 $-1 #
coedge $-1 $67 $168 $171 $172 forward $41 $-1 #
coedge $-1 $173 $163 $67 $107 forward $101 $-1 #
edge $-1 $174 -54.209418012024294 $175 54.209418012024294 $67 $176 forward 7 unknown #
face $-1 $177 $178 $25 $-1 $179 reversed single #
loop $-1 $-1 $180 $68 #
plane-surface $-1 -31.802826970596744 -45.337495970101315 0 0 1 0 0 0 1 forward_v I I I I #
coedge $-1 $181 $182 $113 $183 forward $69 $-1 #
coedge $-1 $184 $71 $185 $186 reversed $44 $-1 #
coedge $-1 $71 $184 $111 $183 reversed $44 $-1 #
coedge $-1 $187 $188 $71 $115 reversed $178 $-1 #
edge $-1 $189 -12.547004797933829 $190 12.547004797933829 $114 $191 forward 7 unknown #
face $-1 $192 $193 $26 $-1 $194 forward single #
loop $-1 $-1 $195 $72 #
plane-surface $-1 -7.1054273576010019e-015 79.827563744730639 123.08915155091609 -1 0 0 0 0.79863551827123203 0.60181501223851219 forward_v I I I I #
coedge $-1 $196 $197 $198 $199 reversed $73 $-1 #
coedge $-1 $121 $75 $200 $201 reversed $47 $-1 #
coedge $-1 $75 $120 $196 $202 reversed $47 $-1 #
coedge $-1 $198 $203 $75 $123 forward $193 $-1 #
edge $-1 $204 6.7184337351764611 $205 12.541827306794062 $122 $206 forward 7 unknown #
loop $-1 $-1 $129 $76 #
plane-surface $-1 -9.4823053766813743 -6.7595695536991229 57.841068422218044 0 0.79863551827123203 0.60181501223851219 1 0 0 forward_v I I I I #
loop $-1 $-1 $207 $49 #
coedge $-1 $127 $127 $128 $208 reversed $77 $-1 #
coedge $-1 $128 $128 $127 $208 forward $79 $-1 #
coedge $-1 $129 $129 $80 $130 forward $124 $-1 #
edge $-1 $209 -4.6616460270058674e-016 $209 6.2831853071795996 $129 $210 forward 7 unknown #
loop $-1 $-1 $136 $81 #
plane-surface $-1 -9.4823053766813743 -6.7595695536991229 57.841068422218044 0 0.79863551827123203 0.60181501223851219 1 0 0 forward_v I I I I #
loop $-1 $-1 $211 $52 #
coedge $-1 $134 $134 $135 $212 reversed $82 $-1 #
coedge $-1 $135 $135 $134 $212 forward $84 $-1 #
coedge $-1 $136 $136 $85 $137 forward $131 $-1 #
edge $-1 $213 -4.6616460270058674e-016 $213 6.2831853071795996 $136 $214 forward 7 unknown #
face $-1 $215 $216 $29 $-1 $217 forward single #
loop $-1 $-1 $218 $86 #
plane-surface $-1 0 0 12.547004797933829 0 0 1 1 0 0 forward_v I I I I #
coedge $-1 $219 $220 $221 $222 reversed $87 $-1 #
coedge $-1 $223 $89 $224 $225 reversed $56 $-1 #
coedge $-1 $89 $223 $218 $226 reversed $56 $-1 #
coedge $-1 $227 $228 $89 $145 forward $216 $-1 #
edge $-1 $229 -66.390696274377731 $230 -56.714311582748152 $144 $231 forward 7 unknown #
loop $-1 $-1 $151 $90 #
plane-surface $-1 -9.4823053766813743 -6.7595695536991229 57.841068422218044 0 0.79863551827123203 0.60181501223851219 1 0 0 forward_v I I I I #
loop $-1 $-1 $232 $58 #
coedge $-1 $149 $149 $150 $233 reversed $91 $-1 #
coedge $-1 $150 $150 $149 $233 forward $93 $-1 #
coedge $-1 $151 $151 $94 $152 forward $146 $-1 #
edge $-1 $234 -4.6616460270058674e-016 $234 6.2831853071795996 $151 $235 forward 7 unknown #
loop $-1 $-1 $158 $95 #
plane-surface $-1 -9.4823053766813743 -6.7595695536991229 57.841068422218044 0 0.79863551827123203 0.60181501223851219 1 0 0 forward_v I I I I #
loop $-1 $-1 $236 $61 #
coedge $-1 $156 $156 $157 $237 reversed $96 $-1 #
coedge $-1 $157 $157 $156 $237 forward $98 $-1 #
coedge $-1 $158 $158 $99 $159 forward $153 $-1 #
edge $-1 $238 -4.6616460270058674e-016 $238 6.2831853071795996 $158 $239 forward 7 unknown #
face $-1 $240 $241 $24 $-1 $242 reversed single #
loop $-1 $-1 $243 $100 #
plane-surface $-1 -54.209418012024294 0 0 1 0 0 0 0 -1 forward_v I I I I #
coedge $-1 $106 $244 $245 $246 forward $101 $-1 #
coedge $-1 $247 $103 $248 $249 forward $65 $-1 #
coedge $-1 $103 $247 $168 $250 forward $65 $-1 #
coedge $-1 $169 $251 $103 $167 reversed $252 $-1 #
edge $-1 $253 -33.195348137188859 $254 33.195348137188859 $166 $255 forward 7 unknown #
coedge $-1 $105 $104 $165 $250 reversed $41 $-1 #
coedge $-1 $245 $166 $104 $170 forward $252 $-1 #
edge $-1 $253 -12.547004797933829 $174 12.547004797933829 $169 $256 forward 7 unknown #
coedge $-1 $257 $258 $105 $172 reversed $161 $-1 #
edge $-1 $259 -12.547004797933829 $175 12.547004797933829 $171 $260 forward 7 unknown #
coedge $-1 $244 $106 $258 $261 forward $101 $-1 #
vertex $-1 $170 $262 #
vertex $-1 $261 $263 #
straight-curve $-1 0 -33.195348137188859 -12.547004797933829 -1 0 0 I I #
face $-1 $264 $265 $25 $-1 $266 reversed single #
loop $-1 $-1 $114 $108 #
plane-surface $-1 -34.490245525036855 -39.266422053645087 0 1 0 0 0 0 -1 forward_v I I I I #
coedge $-1 $267 $268 $269 $270 forward $109 $-1 #
coedge $-1 $271 $111 $272 $273 forward $69 $-1 #
coedge $-1 $111 $271 $187 $274 forward $69 $-1 #
edge $-1 $189 -34.490245525036855 $275 -29.115408416156637 $111 $276 forward 7 unknown #
coedge $-1 $113 $112 $277 $278 forward $44 $-1 #
coedge $-1 $279 $280 $112 $186 forward $281 $-1 #
edge $-1 $282 29.115408416156637 $190 34.490245525036855 $185 $283 forward 7 unknown #
coedge $-1 $269 $114 $182 $274 reversed $178 $-1 #
coedge $-1 $114 $269 $279 $284 reversed $178 $-1 #
vertex $-1 $183 $285 #
vertex $-1 $284 $286 #
straight-curve $-1 -34.490245525036855 -33.195348137188859 0 0 0 1 I I #
face $-1 $-1 $287 $26 $-1 $288 reversed single #
loop $-1 $-1 $122 $116 #
plane-surface $-1 0 0 12.547004797933829 0 0 1 1 0 0 forward_v I I I I #
coedge $-1 $289 $290 $291 $292 reversed $117 $-1 #
coedge $-1 $293 $119 $121 $202 forward $73 $-1 #
coedge $-1 $119 $293 $289 $294 forward $73 $-1 #
coedge $-1 $291 $122 $119 $199 forward $193 $-1 #
edge $-1 $205 -14.223458065022054 $295 4.74115268834068 $198 $296 forward 7 unknown #
coedge $-1 $297 $298 $120 $201 forward $287 $-1 #
edge $-1 $299 -56.725475480715609 $204 -48.997570977524212 $200 $300 forward 7 unknown #
edge $-1 $205 56.714311582748152 $299 66.390696274377731 $121 $301 forward 7 unknown #
coedge $-1 $122 $291 $297 $302 forward $193 $-1 #
vertex $-1 $201 $303 #
vertex $-1 $123 $304 #
straight-curve $-1 -18.964610753362741 39.91378187236532 12.54700479793383 0 -1 0 I I #
coedge $-1 $207 $207 $-1 $305 reversed $126 $-1 #
edge $-1 $306 0 $306 6.2831853071796004 $127 $307 forward 7 unknown #
vertex $-1 $130 $308 #
ellipse-curve $-1 -13.546150538116244 30.283651351380051 8.6830525463381356 0 0.79863551827123203 0.60181501223851219 1.5 0 0 1 I I #
coedge $-1 $211 $211 $-1 $309 reversed $133 $-1 #
edge $-1 $310 0 $310 6.2831853071796004 $134 $311 forward 7 unknown #
vertex $-1 $137 $312 #
ellipse-curve $-1 -5.4184602152464976 30.283651351380051 8.6830525463381356 0 0.79863551827123203 0.60181501223851219 1.5 0 0 1 I I #
face $-1 $-1 $313 $29 $-1 $314 reversed single #
loop $-1 $-1 $227 $138 #
plane-surface $-1 -7.1054273576010019e-015 79.827563744730639 123.08915155091609 -1 0 0 0 0.79863551827123203 0.60181501223851219 forward_v I I I I #
coedge $-1 $221 $315 $143 $226 forward $139 $-1 #
coedge $-1 $220 $141 $223 $316 reversed $87 $-1 #
coedge $-1 $141 $219 $317 $318 reversed $87 $-1 #
coedge $-1 $319 $218 $141 $222 forward $139 $-1 #
edge $-1 $320 -12.541827306794062 $321 -6.7184337351764611 $221 $322 forward 7 unknown #
coedge $-1 $143 $142 $219 $316 forward $56 $-1 #
coedge $-1 $323 $317 $142 $225 forward $313 $-1 #
edge $-1 $324 -23.705763441703429 $229 -4.74115268834068 $224 $325 forward 7 unknown #
edge $-1 $230 4.74115268834068 $320 23.705763441703429 $218 $326 forward 7 unknown #
coedge $-1 $228 $144 $315 $327 reversed $216 $-1 #
coedge $-1 $144 $227 $323 $328 reversed $216 $-1 #
vertex $-1 $225 $329 #
vertex $-1 $226 $330 #
straight-curve $-1 -7.1054273576010019e-015 -6.7595695536991229 57.841068422218044 0 -0.60181501223851219 0.79863551827123203 I I #
coedge $-1 $232 $232 $-1 $331 reversed $148 $-1 #
edge $-1 $332 0 $332 6.2831853071796004 $149 $333 forward 7 unknown #
vertex $-1 $152 $334 #
ellipse-curve $-1 5.4184602152465047 30.283651351380051 8.6830525463381356 0 0.79863551827123203 0.60181501223851219 1.5 0 0 1 I I #
coedge $-1 $236 $236 $-1 $335 reversed $155 $-1 #
edge $-1 $336 0 $336 6.2831853071796004 $156 $337 forward 7 unknown #
vertex $-1 $159 $338 #
ellipse-curve $-1 13.546150538116244 30.283651351380051 8.6830525463381356 0 0.79863551827123203 0.60181501223851219 1.5 0 0 1 I I #
face $-1 $-1 $252 $24 $-1 $339 reversed single #
loop $-1 $-1 $340 $160 #
plane-surface $-1 0 33.195348137188859 0 0 -1 0 0 0 -1 forward_v I I I I #
coedge $-1 $258 $257 $341 $342 forward $161 $-1 #
coedge $-1 $163 $173 $343 $344 forward $101 $-1 #
coedge $-1 $251 $169 $163 $246 reversed $252 $-1 #
edge $-1 $345 -33.195348137188859 $174 33.195348137188859 $245 $346 forward 7 unknown #
coedge $-1 $165 $164 $257 $347 forward $65 $-1 #
coedge $-1 $340 $341 $164 $249 reversed $241 $-1 #
edge $-1 $254 -54.209418012024294 $348 54.209418012024294 $248 $349 forward 7 unknown #
edge $-1 $259 -54.209418012024294 $253 54.209418012024294 $168 $350 forward 7 unknown #
coedge $-1 $166 $245 $340 $351 reversed $252 $-1 #
loop $-1 $-1 $169 $240 #
vertex $-1 $167 $352 #
vertex $-1 $167 $353 #
straight-curve $-1 54.209418012024294 0 12.547004797933829 0 1 0 I I #
straight-curve $-1 54.209418012024294 -33.195348137188859 0 0 0 -1 I I #
coedge $-1 $243 $171 $247 $347 reversed $161 $-1 #
coedge $-1 $171 $243 $173 $261 reversed $161 $-1 #
vertex $-1 $347 $354 #
straight-curve $-1 -54.209418012024294 -33.195348137188859 0 0 0 -1 I I #
edge $-1 $175 -33.195348137188859 $355 33.195348137188859 $258 $356 forward 7 unknown #
point $-1 54.209418012024294 -33.195348137188859 -12.547004797933829 #
point $-1 -54.209418012024294 -33.195348137188859 -12.547004797933829 #
face $-1 $-1 $281 $25 $-1 $357 forward single #
loop $-1 $-1 $358 $177 #
plane-surface $-1 -29.115408416156637 -39.266422053645087 0 -1 0 0 0 0 1 forward_v I I I I #
coedge $-1 $359 $180 $271 $360 reversed $109 $-1 #
coedge $-1 $180 $359 $361 $362 reversed $109 $-1 #
coedge $-1 $188 $187 $180 $270 reversed $178 $-1 #
edge $-1 $363 -12.547004797933829 $364 12.547004797933829 $269 $365 forward 7 unknown #
coedge $-1 $182 $181 $267 $360 forward $69 $-1 #
coedge $-1 $277 $358 $181 $273 reversed $265 $-1 #
edge $-1 $275 -6.0710739164562284 $366 6.0710739164562284 $272 $367 forward 7 unknown #
edge $-1 $364 -6.0710739164562284 $189 6.0710739164562284 $187 $368 forward 7 unknown #
vertex $-1 $273 $369 #
straight-curve $-1 0 -33.195348137188859 -12.547004797933829 1 0 0 I I #
coedge $-1 $370 $272 $184 $278 reversed $265 $-1 #
edge $-1 $282 -12.547004797933829 $275 12.547004797933829 $277 $371 forward 7 unknown #
coedge $-1 $361 $185 $188 $284 forward $281 $-1 #
coedge $-1 $185 $361 $370 $372 forward $281 $-1 #
loop $-1 $-1 $185 $264 #
vertex $-1 $186 $373 #
straight-curve $-1 0 -33.195348137188859 12.547004797933829 -1 0 0 I I #
edge $-1 $190 -6.0710739164562284 $363 6.0710739164562284 $188 $374 forward 7 unknown #
point $-1 -34.490245525036855 -33.195348137188859 -12.547004797933829 #
point $-1 -34.490245525036855 -33.195348137188859 12.547004797933829 #
loop $-1 $-1 $200 $192 #
plane-surface $-1 0 33.195348137188859 0 0 -1 0 0 0 -1 forward_v I I I I #
coedge $-1 $290 $195 $197 $294 reversed $117 $-1 #
coedge $-1 $195 $289 $375 $376 reversed $117 $-1 #
coedge $-1 $203 $198 $195 $292 forward $193 $-1 #
edge $-1 $295 -12.541827306794062 $377 -6.7184337351764611 $291 $378 forward 7 unknown #
coedge $-1 $197 $196 $298 $379 reversed $73 $-1 #
edge $-1 $380 -66.390696274377731 $295 -56.714311582748152 $289 $381 forward 7 unknown #
vertex $-1 $199 $382 #
straight-curve $-1 -4.7411526883406871 27.371954565571251 12.547004797933834 1 0 0 I I #
coedge $-1 $375 $200 $203 $302 reversed $287 $-1 #
coedge $-1 $200 $375 $293 $379 forward $287 $-1 #
vertex $-1 $201 $383 #
straight-curve $-1 -18.964610753362741 33.195348137188859 61.544575775458043 0 0 1 I I #
straight-curve $-1 -18.964610753362741 -6.7595695536991229 57.841068422218044 0 0.60181501223851219 -0.79863551827123203 I I #
edge $-1 $377 7.1054273576010019e-015 $204 18.964610753362741 $297 $384 forward 7 unknown #
point $-1 -18.964610753362741 33.195348137188859 12.547004797933829 #
point $-1 -18.964610753362741 27.371954565571258 12.54700479793383 #
edge $-1 $385 1 $385 0 $207 $-1 forward 7 unknown #
vertex $-1 $208 $386 #
ellipse-curve $-1 -13.546150538116244 25.574646071988159 5.1345626469870966 0 0.79863551827123203 0.60181501223851219 1.5 0 0 1 I I #
point $-1 -12.046150538116244 30.283651351380055 8.6830525463381392 #
edge $-1 $387 1 $387 0 $211 $-1 forward 7 unknown #
vertex $-1 $212 $388 #
ellipse-curve $-1 -5.4184602152464976 25.574646071988159 5.1345626469870966 0 0.79863551827123203 0.60181501223851219 1.5 0 0 1 I I #
point $-1 -3.9184602152464976 30.283651351380055 8.6830525463381392 #
loop $-1 $-1 $224 $215 #
plane-surface $-1 0 33.195348137188859 0 0 -1 0 0 0 -1 forward_v I I I I #
coedge $-1 $218 $319 $227 $327 forward $139 $-1 #
edge $-1 $324 -66.390696274377731 $320 -56.714311582748152 $219 $389 forward 7 unknown #
coedge $-1 $224 $390 $220 $318 forward $313 $-1 #
edge $-1 $321 48.997570977524212 $324 56.725475480715609 $317 $391 forward 7 unknown #
coedge $-1 $315 $221 $390 $392 forward $139 $-1 #
vertex $-1 $222 $393 #
vertex $-1 $392 $394 #
straight-curve $-1 18.964610753362741 39.91378187236532 12.54700479793383 0 1 0 I I #
coedge $-1 $390 $224 $228 $328 forward $313 $-1 #
vertex $-1 $318 $395 #
straight-curve $-1 -4.7411526883406871 33.195348137188859 4.8191002947424302 -1 0 0 I I #
straight-curve $-1 -4.7411526883406871 27.371954565571251 12.547004797933834 1 0 0 I I #
edge $-1 $396 6.7184337351764611 $230 12.541827306794062 $315 $397 forward 7 unknown #
edge $-1 $229 -56.725475480715609 $396 -48.997570977524212 $323 $398 forward 7 unknown #
point $-1 -7.1054273576010019e-015 33.195348137188859 4.8191002947424337 #
point $-1 -7.1054273576010019e-015 27.371954565571258 12.54700479793383 #
edge $-1 $399 1 $399 0 $232 $-1 forward 7 unknown #
vertex $-1 $233 $400 #
ellipse-curve $-1 5.4184602152465047 25.574646071988159 5.1345626469870966 0 0.79863551827123203 0.60181501223851219 1.5 0 0 1 I I #
point $-1 6.9184602152465047 30.283651351380055 8.6830525463381392 #
edge $-1 $401 1 $401 0 $236 $-1 forward 7 unknown #
vertex $-1 $237 $402 #
ellipse-curve $-1 13.546150538116244 25.574646071988159 5.1345626469870966 0 0.79863551827123203 0.60181501223851219 1.5 0 0 1 I I #
point $-1 15.046150538116244 30.283651351380055 8.6830525463381392 #
plane-surface $-1 54.209418012024294 0 0 -1 0 0 0 0 1 forward_v I I I I #
coedge $-1 $343 $248 $251 $351 forward $241 $-1 #
coedge $-1 $248 $343 $243 $342 reversed $241 $-1 #
edge $-1 $348 -12.547004797933829 $355 12.547004797933829 $341 $403 forward 7 unknown #
coedge $-1 $341 $340 $244 $344 reversed $241 $-1 #
edge $-1 $355 -54.209418012024294 $345 54.209418012024294 $343 $404 forward 7 unknown #
vertex $-1 $246 $405 #
straight-curve $-1 54.209418012024294 0 -12.547004797933829 0 -1 0 I I #
edge $-1 $348 -33.195348137188859 $259 33.195348137188859 $257 $406 forward 7 unknown #
vertex $-1 $249 $407 #
straight-curve $-1 0 33.195348137188859 12.547004797933829 -1 0 0 I I #
straight-curve $-1 0 -33.195348137188859 12.547004797933829 1 0 0 I I #
edge $-1 $254 -12.547004797933829 $345 12.547004797933829 $251 $408 forward 7 unknown #
point $-1 54.209418012024294 -33.195348137188859 12.547004797933829 #
point $-1 54.209418012024294 33.195348137188859 12.547004797933829 #
point $-1 -54.209418012024294 -33.195348137188859 12.547004797933829 #
vertex $-1 $344 $409 #
straight-curve $-1 -54.209418012024294 0 -12.547004797933829 0 1 0 I I #
plane-surface $-1 0 0 12.547004797933829 0 0 1 1 0 0 forward_v I I I I #
coedge $-1 $272 $370 $359 $410 forward $265 $-1 #
coedge $-1 $268 $267 $358 $410 reversed $109 $-1 #
edge $-1 $366 -2.6874185544401072 $364 2.6874185544401108 $267 $411 forward 7 unknown #
coedge $-1 $280 $279 $268 $362 forward $281 $-1 #
edge $-1 $363 -2.6874185544401108 $412 2.6874185544401072 $268 $413 forward 7 unknown #
vertex $-1 $284 $414 #
vertex $-1 $274 $415 #
straight-curve $-1 -34.490245525036855 -45.337495970101315 0 0 0 -1 I I #
vertex $-1 $410 $416 #
straight-curve $-1 -29.115408416156637 -39.266422053645087 -12.547004797933829 0 -1 0 I I #
straight-curve $-1 -34.490245525036855 -39.266422053645087 -12.547004797933829 0 1 0 I I #
point $-1 -29.115408416156637 -33.195348137188859 -12.547004797933829 #
coedge $-1 $358 $277 $280 $372 reversed $265 $-1 #
straight-curve $-1 -29.115408416156637 -33.195348137188859 0 0 0 -1 I I #
edge $-1 $412 -6.0710739164562284 $282 6.0710739164562284 $370 $417 forward 7 unknown #
point $-1 -29.115408416156637 -33.195348137188859 12.547004797933829 #
straight-curve $-1 -34.490245525036855 -39.266422053645087 12.547004797933829 0 -1 0 I I #
coedge $-1 $298 $297 $290 $376 forward $287 $-1 #
edge $-1 $377 48.997570977524212 $380 56.725475480715609 $375 $418 forward 7 unknown #
vertex $-1 $302 $419 #
straight-curve $-1 -7.1054273576010019e-015 39.91378187236532 12.54700479793383 0 1 0 I I #
edge $-1 $380 -4.74115268834068 $299 14.223458065022054 $298 $420 forward 7 unknown #
vertex $-1 $379 $421 #
straight-curve $-1 -7.1054273576010019e-015 -6.7595695536991229 57.841068422218044 0 -0.60181501223851219 0.79863551827123203 I I #
point $-1 -7.1054273576010019e-015 27.371954565571258 12.54700479793383 #
point $-1 -18.964610753362741 33.195348137188859 4.8191002947424337 #
straight-curve $-1 0 33.195348137188859 12.547004797933829 -1 0 0 I I #
vertex $-1 $305 $422 #
point $-1 -12.046150538116244 25.574646071988159 5.1345626469870966 #
vertex $-1 $309 $423 #
point $-1 -3.9184602152464976 25.574646071988159 5.1345626469870966 #
straight-curve $-1 18.964610753362741 -6.7595695536991229 57.841068422218044 0 -0.60181501223851219 0.79863551827123203 I I #
coedge $-1 $317 $323 $319 $392 reversed $313 $-1 #
straight-curve $-1 18.964610753362741 33.195348137188859 61.544575775458043 0 0 -1 I I #
edge $-1 $321 -18.964610753362741 $396 7.1054273576010019e-015 $390 $424 forward 7 unknown #
point $-1 18.964610753362741 27.371954565571258 12.54700479793383 #
point $-1 18.964610753362741 33.195348137188859 12.547004797933829 #
point $-1 18.964610753362741 33.195348137188859 4.8191002947424337 #
vertex $-1 $328 $425 #
straight-curve $-1 -7.1054273576010019e-015 39.91378187236532 12.54700479793383 0 -1 0 I I #
straight-curve $-1 -7.1054273576010019e-015 33.195348137188859 61.544575775458043 0 0 1 I I #
vertex $-1 $331 $426 #
point $-1 6.9184602152465047 25.574646071988159 5.1345626469870966 #
vertex $-1 $335 $427 #
point $-1 15.046150538116244 25.574646071988159 5.1345626469870966 #
straight-curve $-1 -54.209418012024294 33.195348137188859 0 0 0 -1 I I #
straight-curve $-1 0 33.195348137188859 -12.547004797933829 1 0 0 I I #
point $-1 54.209418012024294 33.195348137188859 -12.547004797933829 #
straight-curve $-1 -54.209418012024294 0 12.547004797933829 0 -1 0 I I #
point $-1 -54.209418012024294 33.195348137188859 12.547004797933829 #
straight-curve $-1 54.209418012024294 33.195348137188859 0 0 0 -1 I I #
point $-1 -54.209418012024294 33.195348137188859 -12.547004797933829 #
edge $-1 $412 -12.547004797933829 $366 12.547004797933829 $358 $428 forward 7 unknown #
straight-curve $-1 -31.802826970596744 -45.337495970101315 -12.547004797933829 -1 0 0 I I #
vertex $-1 $372 $429 #
straight-curve $-1 -31.802826970596744 -45.337495970101315 12.547004797933829 1 0 0 I I #
point $-1 -34.490245525036855 -45.337495970101315 12.547004797933829 #
point $-1 -34.490245525036855 -45.337495970101315 -12.547004797933829 #
point $-1 -29.115408416156637 -45.337495970101315 -12.547004797933829 #
straight-curve $-1 -29.115408416156637 -39.266422053645087 12.547004797933829 0 1 0 I I #
straight-curve $-1 -7.1054273576010019e-015 33.195348137188859 61.544575775458043 0 0 -1 I I #
point $-1 -7.1054273576010019e-015 33.195348137188859 12.547004797933829 #
straight-curve $-1 -4.7411526883406871 33.195348137188859 4.8191002947424302 -1 0 0 I I #
point $-1 -7.1054273576010019e-015 33.195348137188859 4.8191002947424337 #
point $-1 -13.546150538116244 24.376692794581313 4.2318401286293286 #
point $-1 -5.4184602152464976 24.376692794581313 4.2318401286293286 #
straight-curve $-1 0 33.195348137188859 12.547004797933829 -1 0 0 I I #
point $-1 -7.1054273576010019e-015 33.195348137188859 12.547004797933829 #
point $-1 5.4184602152465047 24.376692794581313 4.2318401286293286 #
point $-1 13.546150538116244 24.376692794581313 4.2318401286293286 #
straight-curve $-1 -29.115408416156637 -45.337495970101315 0 0 0 -1 I I #
point $-1 -29.115408416156637 -45.337495970101315 12.547004797933829 #
End-of-ACIS-data 