500 0 5 0           
7 Unknown 11 ACIS 5.0 NT 24 Fri Mar 26 19:47:08 1999 
-1 9.9999999999999995e-007 1e-010 
body $-1 $5 $-1 $6 #
body $-1 $7 $-1 $8 #
body $-1 $9 $-1 $10 #
body $-1 $11 $-1 $12 #
body $-1 $13 $-1 $14 #
lump $-1 $-1 $15 $0 #
transform $-1 1 0 0 0 1 0 0 0 1 78.746299630726043 51.628608954034561 12.929289814600567 1 rotate no_reflect no_shear #
lump $-1 $-1 $16 $1 #
transform $-1 1 0 0 0 1 0 0 0 1 78.746299630726043 51.628608954034561 12.929289814600567 1 rotate no_reflect no_shear #
lump $-1 $-1 $17 $2 #
transform $-1 1 0 0 0 1 0 0 0 1 78.746299630726043 51.628608954034561 12.929289814600567 1 rotate no_reflect no_shear #
lump $-1 $-1 $18 $3 #
transform $-1 1 0 0 0 1 0 0 0 1 78.746299630726043 51.628608954034561 12.929289814600567 1 rotate no_reflect no_shear #
lump $-1 $-1 $19 $4 #
transform $-1 1 0 0 0 1 0 0 0 1 78.746299630726043 51.628608954034561 12.929289814600567 1 rotate no_reflect no_shear #
shell $-1 $-1 $-1 $20 $-1 $5 #
shell $-1 $-1 $-1 $21 $-1 $7 #
shell $-1 $-1 $-1 $22 $-1 $9 #
shell $-1 $-1 $-1 $23 $-1 $11 #
shell $-1 $-1 $-1 $24 $-1 $13 #
face $-1 $25 $26 $15 $-1 $27 forward single #
face $-1 $28 $29 $16 $-1 $30 reversed single #
face $-1 $31 $32 $17 $-1 $33 reversed single #
face $-1 $34 $35 $18 $-1 $36 forward single #
face $-1 $37 $38 $19 $-1 $39 forward single #
face $-1 $40 $41 $15 $-1 $42 reversed single #
loop $-1 $-1 $43 $20 #
plane-surface $-1 0 0 12.929289814600567 0 0 1 1 0 0 forward_v I I I I #
face $-1 $44 $45 $16 $-1 $46 reversed single #
loop $-1 $-1 $47 $21 #
plane-surface $-1 -70.322867513805107 0 6.7263715815159433 0 0 1 1 0 0 forward_v I I I I #
face $-1 $48 $49 $17 $-1 $50 reversed single #
loop $-1 $-1 $51 $22 #
plane-surface $-1 48.310900803849158 139.31465001629039 176.31522840654725 1 0 0 0 -0.87461971476443456 -0.48480960649040278 forward_v I I I I #
face $-1 $52 $53 $18 $-1 $54 forward single #
loop $-1 $55 $56 $23 #
cone-surface $-1 57.006729040099685 49.874587117684889 10.821344469117111 0 -0.87461971476443456 -0.48480960649040278 0.5 0 0 1 I I 0 1 0.5 forward I I I I #
face $-1 $57 $58 $19 $-1 $59 forward single #
loop $-1 $60 $61 $24 #
cone-surface $-1 70.050471394475494 49.874587117684889 10.821344469117111 0 -0.87461971476443456 -0.48480960649040278 0.5 0 0 1 I I 0 1 0.5 forward I I I I #
face $-1 $62 $63 $15 $-1 $64 reversed single #
loop $-1 $-1 $65 $25 #
plane-surface $-1 0 0 -12.929289814600567 0 0 1 1 0 0 forward_v I I I I #
coedge $-1 $66 $67 $68 $69 forward $26 $-1 #
face $-1 $70 $71 $16 $-1 $72 reversed single #
loop $-1 $-1 $73 $28 #
plane-surface $-1 -61.899435396884165 0 9.8278306980582553 -1 0 0 0 0 1 forward_v I I I I #
coedge $-1 $74 $75 $76 $77 forward $29 $-1 #
face $-1 $78 $79 $17 $-1 $80 forward single #
loop $-1 $-1 $81 $31 #
plane-surface $-1 63.528600217287618 1.5685177727297628 99.961303333451966 0 0.87461971476443456 0.48480960649040278 1 0 0 forward_v I I I I #
coedge $-1 $82 $83 $84 $85 reversed $32 $-1 #
face $-1 $-1 $86 $18 $-1 $87 forward single #
loop $-1 $88 $89 $34 #
cone-surface $-1 57.006729040099685 48.810640408175004 10.231589199647599 0 -0.87461971476443456 -0.48480960649040278 0.25 0 0 1 I I -0.70710678118654746 0.70710678118654746 0.25 forward I I I I #
loop $-1 $-1 $90 $23 #
coedge $-1 $56 $56 $91 $92 reversed $35 $-1 #
face $-1 $-1 $93 $19 $-1 $94 forward single #
loop $-1 $95 $96 $37 #
cone-surface $-1 70.050471394475494 48.810640408175004 10.231589199647599 0 -0.87461971476443456 -0.48480960649040278 0.25 0 0 1 I I -0.70710678118654746 0.70710678118654746 0.25 forward I I I I #
loop $-1 $-1 $97 $24 #
coedge $-1 $61 $61 $98 $99 reversed $38 $-1 #
face $-1 $100 $101 $15 $-1 $102 reversed single #
loop $-1 $-1 $103 $40 #
plane-surface $-1 0 -51.628608954034561 0 0 1 0 0 0 1 forward_v I I I I #
coedge $-1 $104 $105 $106 $107 forward $41 $-1 #
coedge $-1 $108 $43 $109 $110 forward $26 $-1 #
coedge $-1 $43 $108 $111 $112 forward $26 $-1 #
coedge $-1 $113 $114 $43 $69 reversed $115 $-1 #
edge $-1 $116 -51.628608954034561 $117 51.628608954034561 $68 $118 forward 7 unknown #
face $-1 $119 $120 $16 $-1 $121 reversed single #
loop $-1 $-1 $122 $44 #
plane-surface $-1 0 51.628608954034561 0 0 -1 0 0 0 -1 forward_v I I I I #
coedge $-1 $76 $123 $124 $125 reversed $45 $-1 #
coedge $-1 $126 $47 $127 $128 reversed $29 $-1 #
coedge $-1 $47 $126 $129 $130 reversed $29 $-1 #
coedge $-1 $131 $73 $47 $77 reversed $45 $-1 #
edge $-1 $132 -51.628608954034561 $133 51.628608954034561 $76 $134 forward 7 unknown #
face $-1 $135 $136 $17 $-1 $137 reversed single #
loop $-1 $-1 $84 $48 #
plane-surface $-1 0 0 12.929289814600567 0 0 1 1 0 0 forward_v I I I I #
coedge $-1 $138 $139 $140 $141 reversed $49 $-1 #
coedge $-1 $83 $51 $142 $143 reversed $32 $-1 #
coedge $-1 $51 $82 $138 $144 reversed $32 $-1 #
coedge $-1 $140 $145 $51 $85 forward $79 $-1 #
edge $-1 $146 18.028716054110632 $147 19.846176165172452 $84 $148 forward 7 unknown #
loop $-1 $-1 $91 $52 #
plane-surface $-1 63.528600217287618 1.5685177727297628 99.961303333451966 0 0.87461971476443456 0.48480960649040278 1 0 0 forward_v I I I I #
loop $-1 $-1 $149 $34 #
coedge $-1 $89 $89 $90 $150 reversed $53 $-1 #
coedge $-1 $90 $90 $89 $150 forward $55 $-1 #
coedge $-1 $91 $91 $56 $92 forward $86 $-1 #
edge $-1 $151 5.1323095251471092e-015 $151 6.2831853071796058 $91 $152 forward 7 unknown #
loop $-1 $-1 $98 $57 #
plane-surface $-1 63.528600217287618 1.5685177727297628 99.961303333451966 0 0.87461971476443456 0.48480960649040278 1 0 0 forward_v I I I I #
loop $-1 $-1 $153 $37 #
coedge $-1 $96 $96 $97 $154 reversed $58 $-1 #
coedge $-1 $97 $97 $96 $154 forward $60 $-1 #
coedge $-1 $98 $98 $61 $99 forward $93 $-1 #
edge $-1 $155 5.1323095251471092e-015 $155 6.2831853071796058 $98 $156 forward 7 unknown #
face $-1 $157 $158 $15 $-1 $159 reversed single #
loop $-1 $-1 $160 $62 #
plane-surface $-1 -78.746299630726043 0 0 1 0 0 0 0 -1 forward_v I I I I #
coedge $-1 $161 $111 $162 $163 forward $63 $-1 #
coedge $-1 $164 $65 $161 $165 forward $41 $-1 #
coedge $-1 $65 $164 $166 $167 forward $41 $-1 #
coedge $-1 $114 $113 $65 $107 reversed $115 $-1 #
edge $-1 $168 -51.628608954034561 $169 51.628608954034561 $106 $170 forward 7 unknown #
coedge $-1 $67 $66 $171 $172 forward $26 $-1 #
coedge $-1 $173 $174 $66 $110 reversed $158 $-1 #
edge $-1 $117 -78.746299630726043 $175 78.746299630726043 $109 $176 forward 7 unknown #
coedge $-1 $103 $177 $67 $112 reversed $63 $-1 #
edge $-1 $178 -78.746299630726043 $116 78.746299630726043 $111 $179 forward 7 unknown #
coedge $-1 $106 $68 $177 $180 forward $115 $-1 #
coedge $-1 $68 $106 $173 $181 reversed $115 $-1 #
loop $-1 $-1 $113 $157 #
vertex $-1 $69 $182 #
vertex $-1 $69 $183 #
straight-curve $-1 78.746299630726043 0 12.929289814600567 0 1 0 I I #
face $-1 $184 $185 $16 $-1 $186 forward single #
loop $-1 $-1 $187 $70 #
plane-surface $-1 -78.746299630726043 0 0 1 0 0 0 0 -1 forward_v I I I I #
coedge $-1 $129 $188 $131 $189 forward $71 $-1 #
coedge $-1 $73 $131 $190 $191 reversed $45 $-1 #
coedge $-1 $192 $127 $73 $125 forward $193 $-1 #
edge $-1 $133 1.8124562324868156 $194 8.0153744655714405 $124 $195 forward 7 unknown #
coedge $-1 $75 $74 $187 $196 reversed $29 $-1 #
coedge $-1 $124 $197 $74 $128 forward $193 $-1 #
edge $-1 $198 -43.584865873823489 $133 -26.738001639981611 $127 $199 forward 7 unknown #
coedge $-1 $200 $122 $75 $130 forward $71 $-1 #
edge $-1 $132 26.738001639981611 $201 43.584865873823489 $129 $202 forward 7 unknown #
coedge $-1 $123 $76 $122 $189 reversed $45 $-1 #
vertex $-1 $130 $203 #
vertex $-1 $128 $204 #
straight-curve $-1 -61.899435396884165 0 6.7263715815159433 0 -1 0 I I #
face $-1 $-1 $205 $17 $-1 $206 reversed single #
loop $-1 $-1 $207 $78 #
plane-surface $-1 78.746299630726043 0 0 -1 0 0 0 0 1 forward_v I I I I #
coedge $-1 $208 $81 $83 $144 forward $49 $-1 #
coedge $-1 $81 $208 $207 $209 reversed $49 $-1 #
coedge $-1 $210 $84 $81 $141 forward $79 $-1 #
edge $-1 $147 16.546600695205349 $211 46.981999522082262 $140 $212 forward 7 unknown #
coedge $-1 $213 $214 $82 $143 forward $205 $-1 #
edge $-1 $215 -78.507109343946198 $146 -75.228324388673059 $142 $216 forward 7 unknown #
edge $-1 $147 99.508405824458407 $215 103.25721790806921 $83 $217 forward 7 unknown #
coedge $-1 $84 $210 $213 $218 forward $79 $-1 #
vertex $-1 $143 $219 #
vertex $-1 $85 $220 #
straight-curve $-1 48.310900803849158 69.657325008145193 12.929289814600565 0 -1 0 I I #
coedge $-1 $149 $149 $-1 $221 reversed $88 $-1 #
edge $-1 $222 0 $222 6.2831853071796004 $89 $223 forward 7 unknown #
vertex $-1 $92 $224 #
ellipse-curve $-1 57.006729040099685 50.719878898503644 11.289897336964012 0 0.87461971476443456 0.48480960649040278 0.5 0 0 1 I I #
coedge $-1 $153 $153 $-1 $225 reversed $95 $-1 #
edge $-1 $226 0 $226 6.2831853071796004 $96 $227 forward 7 unknown #
vertex $-1 $99 $228 #
ellipse-curve $-1 70.050471394475494 50.719878898503644 11.289897336964012 0 0.87461971476443456 0.48480960649040278 0.5 0 0 1 I I #
face $-1 $-1 $115 $15 $-1 $229 reversed single #
loop $-1 $-1 $173 $100 #
plane-surface $-1 0 51.628608954034561 0 0 -1 0 0 0 -1 forward_v I I I I #
coedge $-1 $230 $171 $174 $231 forward $101 $-1 #
coedge $-1 $177 $103 $104 $165 reversed $63 $-1 #
coedge $-1 $171 $230 $103 $163 reversed $101 $-1 #
edge $-1 $178 -12.929289814600567 $232 12.929289814600567 $162 $233 forward 7 unknown #
coedge $-1 $105 $104 $230 $234 forward $41 $-1 #
edge $-1 $169 -78.746299630726043 $232 78.746299630726043 $161 $235 forward 7 unknown #
coedge $-1 $174 $173 $105 $167 reversed $158 $-1 #
edge $-1 $236 -78.746299630726043 $168 78.746299630726043 $166 $237 forward 7 unknown #
vertex $-1 $107 $238 #
vertex $-1 $180 $239 #
straight-curve $-1 78.746299630726043 0 -12.929289814600567 0 -1 0 I I #
coedge $-1 $160 $162 $108 $172 reversed $101 $-1 #
edge $-1 $175 -51.628608954034561 $178 51.628608954034561 $171 $240 forward 7 unknown #
coedge $-1 $166 $109 $114 $181 forward $158 $-1 #
coedge $-1 $109 $166 $160 $231 reversed $158 $-1 #
vertex $-1 $110 $241 #
straight-curve $-1 0 51.628608954034561 12.929289814600567 -1 0 0 I I #
coedge $-1 $111 $161 $113 $180 reversed $63 $-1 #
vertex $-1 $172 $242 #
straight-curve $-1 0 -51.628608954034561 12.929289814600567 1 0 0 I I #
edge $-1 $116 -12.929289814600567 $169 12.929289814600567 $113 $243 forward 7 unknown #
edge $-1 $117 -12.929289814600567 $168 12.929289814600567 $114 $244 forward 7 unknown #
point $-1 78.746299630726043 -51.628608954034561 12.929289814600567 #
point $-1 78.746299630726043 51.628608954034561 12.929289814600567 #
face $-1 $-1 $193 $16 $-1 $245 reversed single #
loop $-1 $-1 $190 $119 #
plane-surface $-1 0 0 12.929289814600567 0 0 1 1 0 0 forward_v I I I I #
coedge $-1 $246 $247 $126 $196 forward $120 $-1 #
coedge $-1 $122 $200 $248 $249 reversed $71 $-1 #
edge $-1 $250 -8.0153744655714405 $132 -1.8124562324868156 $122 $251 forward 7 unknown #
coedge $-1 $248 $252 $123 $191 forward $185 $-1 #
edge $-1 $194 -51.628608954034561 $250 51.628608954034561 $190 $253 forward 7 unknown #
coedge $-1 $197 $124 $252 $254 reversed $193 $-1 #
loop $-1 $-1 $124 $184 #
vertex $-1 $125 $255 #
straight-curve $-1 -61.899435396884165 -51.628608954034561 4.9139153490291276 0 0 1 I I #
edge $-1 $201 -51.628608954034561 $198 51.628608954034561 $187 $256 forward 7 unknown #
coedge $-1 $127 $192 $246 $257 forward $193 $-1 #
vertex $-1 $196 $258 #
straight-curve $-1 -35.161433756902554 -51.628608954034561 6.7263715815159433 1 0 0 I I #
coedge $-1 $188 $129 $247 $259 reversed $71 $-1 #
vertex $-1 $196 $260 #
straight-curve $-1 -35.161433756902554 51.628608954034561 6.7263715815159433 -1 0 0 I I #
point $-1 -61.899435396884165 51.628608954034561 6.7263715815159433 #
point $-1 -61.899435396884165 -51.628608954034561 6.7263715815159433 #
loop $-1 $-1 $142 $135 #
plane-surface $-1 0 51.628608954034561 0 0 -1 0 0 0 -1 forward_v I I I I #
coedge $-1 $261 $262 $139 $209 forward $136 $-1 #
coedge $-1 $139 $138 $214 $263 reversed $49 $-1 #
edge $-1 $211 56.17455876205112 $264 59.923370845661921 $207 $265 forward 7 unknown #
coedge $-1 $145 $140 $262 $266 forward $79 $-1 #
vertex $-1 $266 $267 #
straight-curve $-1 31.764300108643809 49.811148842972742 12.929289814600565 1 0 0 I I #
coedge $-1 $268 $142 $145 $218 reversed $205 $-1 #
coedge $-1 $142 $268 $208 $263 forward $205 $-1 #
vertex $-1 $143 $269 #
straight-curve $-1 48.310900803849158 51.628608954034561 88.157614203273624 0 0 1 I I #
straight-curve $-1 48.310900803849158 1.5685177727297628 99.961303333451966 0 0.48480960649040278 -0.87461971476443456 I I #
edge $-1 $270 -78.746299630726043 $146 -48.310900803849158 $213 $271 forward 7 unknown #
point $-1 48.310900803849158 51.628608954034561 12.929289814600567 #
point $-1 48.310900803849158 49.811148842972742 12.929289814600565 #
edge $-1 $272 1 $272 0 $149 $-1 forward 7 unknown #
vertex $-1 $150 $273 #
ellipse-curve $-1 57.006729040099685 49.029295336866113 10.3527916012702 0 0.87461971476443456 0.48480960649040278 0.5 0 0 1 I I #
point $-1 57.506729040099685 50.719878898503666 11.289897336964021 #
edge $-1 $274 1 $274 0 $153 $-1 forward 7 unknown #
vertex $-1 $154 $275 #
ellipse-curve $-1 70.050471394475494 49.029295336866113 10.3527916012702 0 0.87461971476443456 0.48480960649040278 0.5 0 0 1 I I #
point $-1 70.550471394475494 50.719878898503666 11.289897336964021 #
plane-surface $-1 78.746299630726043 0 0 -1 0 0 0 0 1 forward_v I I I I #
coedge $-1 $162 $160 $164 $234 reversed $101 $-1 #
edge $-1 $175 -12.929289814600567 $236 12.929289814600567 $174 $276 forward 7 unknown #
vertex $-1 $234 $277 #
straight-curve $-1 -78.746299630726043 -51.628608954034561 0 0 0 -1 I I #
edge $-1 $232 -51.628608954034561 $236 51.628608954034561 $230 $278 forward 7 unknown #
straight-curve $-1 0 -51.628608954034561 -12.929289814600567 -1 0 0 I I #
vertex $-1 $167 $279 #
straight-curve $-1 0 51.628608954034561 -12.929289814600567 1 0 0 I I #
point $-1 78.746299630726043 51.628608954034561 -12.929289814600567 #
point $-1 78.746299630726043 -51.628608954034561 -12.929289814600567 #
straight-curve $-1 -78.746299630726043 0 12.929289814600567 0 -1 0 I I #
point $-1 -78.746299630726043 51.628608954034561 12.929289814600567 #
point $-1 -78.746299630726043 -51.628608954034561 12.929289814600567 #
straight-curve $-1 78.746299630726043 -51.628608954034561 0 0 0 -1 I I #
straight-curve $-1 78.746299630726043 51.628608954034561 0 0 0 -1 I I #
plane-surface $-1 0 -51.628608954034561 0 0 1 0 0 0 1 forward_v I I I I #
coedge $-1 $280 $187 $197 $257 reversed $120 $-1 #
coedge $-1 $187 $280 $200 $259 forward $120 $-1 #
coedge $-1 $281 $190 $188 $249 forward $185 $-1 #
edge $-1 $250 61.899435396884165 $282 78.746299630726043 $188 $283 forward 7 unknown #
vertex $-1 $249 $284 #
straight-curve $-1 -61.899435396884165 51.628608954034561 4.9139153490291276 0 0 -1 I I #
coedge $-1 $190 $281 $192 $254 forward $185 $-1 #
straight-curve $-1 -61.899435396884165 0 12.929289814600567 0 1 0 I I #
edge $-1 $285 -78.746299630726043 $194 -61.899435396884165 $192 $286 forward 7 unknown #
point $-1 -61.899435396884165 -51.628608954034561 12.929289814600567 #
straight-curve $-1 -78.746299630726043 0 6.7263715815159433 0 -1 0 I I #
edge $-1 $285 -12.929289814600567 $198 -6.7263715815159433 $246 $287 forward 7 unknown #
point $-1 -78.746299630726043 -51.628608954034561 6.7263715815159433 #
edge $-1 $282 -12.929289814600567 $201 -6.7263715815159433 $200 $288 forward 7 unknown #
point $-1 -78.746299630726043 51.628608954034561 6.7263715815159433 #
coedge $-1 $262 $207 $268 $289 reversed $136 $-1 #
coedge $-1 $207 $261 $210 $266 reversed $136 $-1 #
edge $-1 $264 -46.981999522082262 $215 -16.546600695205349 $214 $290 forward 7 unknown #
vertex $-1 $209 $291 #
straight-curve $-1 78.746299630726043 22.577183114770733 62.060666376083681 0 0.48480960649040278 -0.87461971476443456 I I #
edge $-1 $211 49.811148842972742 $270 51.628608954034561 $262 $292 forward 7 unknown #
point $-1 78.746299630726071 49.811148842972742 12.929289814600565 #
coedge $-1 $214 $213 $261 $289 forward $205 $-1 #
point $-1 48.310900803849158 51.628608954034561 9.6505048593274267 #
vertex $-1 $266 $293 #
straight-curve $-1 0 51.628608954034561 12.929289814600567 -1 0 0 I I #
vertex $-1 $221 $294 #
point $-1 57.506729040099685 49.029295336866113 10.3527916012702 #
vertex $-1 $225 $295 #
point $-1 70.550471394475494 49.029295336866113 10.3527916012702 #
straight-curve $-1 -78.746299630726043 51.628608954034561 0 0 0 -1 I I #
point $-1 -78.746299630726043 -51.628608954034561 -12.929289814600567 #
straight-curve $-1 -78.746299630726043 0 -12.929289814600567 0 1 0 I I #
point $-1 -78.746299630726043 51.628608954034561 -12.929289814600567 #
coedge $-1 $247 $246 $281 $296 reversed $120 $-1 #
coedge $-1 $252 $248 $280 $296 forward $185 $-1 #
vertex $-1 $249 $297 #
straight-curve $-1 0 51.628608954034561 12.929289814600567 -1 0 0 I I #
point $-1 -61.899435396884165 51.628608954034561 12.929289814600567 #
vertex $-1 $296 $298 #
straight-curve $-1 0 -51.628608954034561 12.929289814600567 1 0 0 I I #
straight-curve $-1 -78.746299630726043 -51.628608954034561 0 0 0 -1 I I #
straight-curve $-1 -78.746299630726043 51.628608954034561 0 0 0 -1 I I #
edge $-1 $270 -12.929289814600567 $264 -9.6505048593274267 $261 $299 forward 7 unknown #
straight-curve $-1 31.764300108643809 51.628608954034561 9.6505048593274196 -1 0 0 I I #
point $-1 78.746299630726071 51.628608954034561 9.6505048593274267 #
straight-curve $-1 78.746299630726043 0 12.929289814600567 0 1 0 I I #
point $-1 78.746299630726043 51.628608954034561 12.929289814600567 #
point $-1 57.006729040099685 48.591985479483895 10.110386798024999 #
point $-1 70.050471394475494 48.591985479483895 10.110386798024999 #
edge $-1 $282 -51.628608954034561 $285 51.628608954034561 $280 $300 forward 7 unknown #
point $-1 -78.746299630726043 51.628608954034561 12.929289814600567 #
point $-1 -78.746299630726043 -51.628608954034561 12.929289814600567 #
straight-curve $-1 78.746299630726043 51.628608954034561 0 0 0 -1 I I #
straight-curve $-1 -78.746299630726043 0 12.929289814600567 0 -1 0 I I #
End-of-ACIS-data 