500 0 3 0           
7 Unknown 11 ACIS 5.0 NT 24 Fri Mar 26 19:21:37 1999 
-1 9.9999999999999995e-007 1e-010 
body $-1 $3 $-1 $4 #
body $-1 $5 $-1 $6 #
body $-1 $7 $-1 $8 #
lump $-1 $-1 $9 $0 #
transform $-1 1 0 0 0 1 0 0 0 1 78.800012207403796 46.977957044183171 22.65026564417029 1 rotate no_reflect no_shear #
lump $-1 $-1 $10 $1 #
transform $-1 1 0 0 0 1 0 0 0 1 78.800012207403796 46.977957044183171 22.65026564417029 1 rotate no_reflect no_shear #
lump $-1 $-1 $11 $2 #
transform $-1 1 0 0 0 1 0 0 0 1 78.800012207403796 46.977957044183171 22.65026564417029 1 rotate no_reflect no_shear #
shell $-1 $-1 $-1 $12 $-1 $3 #
shell $-1 $-1 $-1 $13 $-1 $5 #
shell $-1 $-1 $-1 $14 $-1 $7 #
face $-1 $15 $16 $9 $-1 $17 forward single #
face $-1 $18 $19 $10 $-1 $20 forward single #
face $-1 $21 $22 $11 $-1 $23 reversed single #
face $-1 $24 $25 $9 $-1 $26 reversed single #
loop $-1 $-1 $27 $12 #
plane-surface $-1 0 0 22.65026564417029 0 0 1 1 0 0 forward_v I I I I #
face $-1 $28 $29 $10 $-1 $30 forward single #
loop $-1 $-1 $31 $13 #
plane-surface $-1 -177.9809224331797 -1.9047574805606331 135.81487904362001 0 1 0 -0.62932039886446345 0 0.77714595512881146 forward_v I I I I #
face $-1 $32 $33 $11 $-1 $34 reversed single #
loop $-1 $35 $36 $14 #
cone-surface $-1 -70.403357774969678 8.0409435543587406 14.725947902446798 0.62932039886446345 0 -0.77714595512881146 2.3314378653864343 0 1.8879611965933902 1 I I 0 1 3 forward I I I I #
face $-1 $37 $38 $9 $-1 $39 reversed single #
loop $-1 $-1 $40 $15 #
plane-surface $-1 0 0 -22.65026564417029 0 0 1 1 0 0 forward_v I I I I #
coedge $-1 $41 $42 $43 $44 forward $16 $-1 #
face $-1 $45 $46 $10 $-1 $47 forward single #
loop $-1 $-1 $48 $18 #
plane-surface $-1 -78.80001220740381 8.0409435543587406 13.336657541450364 -0.62932039886446345 0 0.77714595512881146 0.77714595512881146 0 0.62932039886446345 forward_v I I I I #
coedge $-1 $49 $50 $51 $52 reversed $19 $-1 #
face $-1 $53 $54 $11 $-1 $55 forward single #
loop $-1 $56 $57 $21 #
cone-surface $-1 -66.813396707568145 8.0409435543587406 10.292715279390066 0.62932039886446345 0 -0.77714595512881146 1.1657189326932171 0 0.94398059829669512 1 I I -0.70710678118654757 0.70710678118654757 1.5 forward I I I I #
loop $-1 $-1 $58 $14 #
coedge $-1 $36 $36 $59 $60 reversed $22 $-1 #
face $-1 $61 $62 $9 $-1 $63 reversed single #
loop $-1 $-1 $64 $24 #
plane-surface $-1 0 -46.977957044183171 0 0 1 0 0 0 1 forward_v I I I I #
coedge $-1 $65 $66 $67 $68 forward $25 $-1 #
coedge $-1 $69 $27 $70 $71 forward $16 $-1 #
coedge $-1 $27 $69 $72 $73 forward $16 $-1 #
coedge $-1 $74 $75 $27 $44 reversed $76 $-1 #
edge $-1 $77 -46.977957044183171 $78 46.977957044183171 $43 $79 forward 7 unknown #
face $-1 $80 $81 $10 $-1 $82 forward single #
loop $-1 $-1 $83 $28 #
plane-surface $-1 -177.9809224331797 17.986644589278114 135.81487904362001 0 -1 0 0.62932039886446345 0 -0.77714595512881146 forward_v I I I I #
coedge $-1 $84 $85 $86 $87 reversed $29 $-1 #
coedge $-1 $50 $31 $85 $88 forward $19 $-1 #
coedge $-1 $31 $49 $89 $90 reversed $19 $-1 #
coedge $-1 $91 $86 $31 $52 forward $81 $-1 #
edge $-1 $92 -21.691796935844565 $93 -10.190449009186054 $51 $94 forward 7 unknown #
face $-1 $95 $96 $11 $-1 $97 forward single #
loop $-1 $-1 $98 $32 #
plane-surface $-1 -177.9809224331797 -1.9047574805606331 135.81487904362001 0 1 0 -0.62932039886446345 0 0.77714595512881146 forward_v I I I I #
loop $-1 $-1 $99 $21 #
coedge $-1 $57 $57 $58 $100 forward $33 $-1 #
coedge $-1 $58 $58 $57 $100 reversed $35 $-1 #
coedge $-1 $59 $59 $36 $60 forward $96 $-1 #
edge $-1 $101 0 $101 6.2831853071796004 $59 $102 forward 7 unknown #
face $-1 $103 $104 $9 $-1 $105 reversed single #
loop $-1 $-1 $106 $37 #
plane-surface $-1 -78.800012207403796 0 0 1 0 0 0 0 -1 forward_v I I I I #
coedge $-1 $107 $72 $108 $109 forward $38 $-1 #
coedge $-1 $110 $40 $107 $111 forward $25 $-1 #
coedge $-1 $40 $110 $112 $113 forward $25 $-1 #
coedge $-1 $75 $74 $40 $68 reversed $76 $-1 #
edge $-1 $114 -46.977957044183171 $115 46.977957044183171 $67 $116 forward 7 unknown #
coedge $-1 $42 $41 $117 $118 forward $16 $-1 #
coedge $-1 $119 $120 $41 $71 reversed $104 $-1 #
edge $-1 $78 -78.800012207403796 $121 78.800012207403796 $70 $122 forward 7 unknown #
coedge $-1 $64 $123 $42 $73 reversed $38 $-1 #
edge $-1 $124 -78.800012207403796 $77 78.800012207403796 $72 $125 forward 7 unknown #
coedge $-1 $67 $43 $123 $126 forward $76 $-1 #
coedge $-1 $43 $67 $119 $127 reversed $76 $-1 #
loop $-1 $-1 $74 $103 #
vertex $-1 $44 $128 #
vertex $-1 $44 $129 #
straight-curve $-1 78.800012207403796 0 22.65026564417029 0 1 0 I I #
face $-1 $130 $131 $10 $-1 $132 reversed single #
loop $-1 $-1 $133 $45 #
plane-surface $-1 0 0 22.65026564417029 0 0 1 1 0 0 forward_v I I I I #
coedge $-1 $134 $135 $133 $136 reversed $46 $-1 #
coedge $-1 $137 $48 $135 $138 reversed $29 $-1 #
coedge $-1 $48 $137 $49 $88 reversed $29 $-1 #
coedge $-1 $51 $133 $48 $87 forward $81 $-1 #
edge $-1 $139 -13.966172812098744 $92 5.9252292577400034 $86 $140 forward 7 unknown #
edge $-1 $92 -14.799469585802818 $141 -1.7751293829024333e-014 $49 $142 forward 7 unknown #
coedge $-1 $143 $144 $50 $90 forward $145 $-1 #
edge $-1 $93 45.257173877639715 $141 54.570781980359627 $89 $146 forward 7 unknown #
coedge $-1 $147 $51 $144 $148 forward $81 $-1 #
vertex $-1 $87 $149 #
vertex $-1 $148 $150 #
straight-curve $-1 -88.99046121658985 -1.9047574805606331 22.65026564417029 -1 0 0 I I #
face $-1 $151 $152 $11 $-1 $153 forward single #
loop $-1 $154 $59 $53 #
plane-surface $-1 -78.80001220740381 8.0409435543587406 13.336657541450364 -0.62932039886446345 0 0.77714595512881146 0.77714595512881146 0 0.62932039886446345 forward_v I I I I #
coedge $-1 $155 $156 $157 $158 reversed $54 $-1 #
coedge $-1 $99 $99 $-1 $159 forward $56 $-1 #
edge $-1 $160 0 $160 6.2831853071796004 $57 $161 forward 7 unknown #
vertex $-1 $60 $162 #
ellipse-curve $-1 -73.049338244074534 8.0409435543587406 17.993461592810334 0.62932039886446345 0 -0.77714595512881146 2.3314378653864343 0 1.8879611965933902 1 I I #
face $-1 $-1 $76 $9 $-1 $163 reversed single #
loop $-1 $-1 $119 $61 #
plane-surface $-1 0 46.977957044183171 0 0 -1 0 0 0 -1 forward_v I I I I #
coedge $-1 $164 $117 $120 $165 forward $62 $-1 #
coedge $-1 $123 $64 $65 $111 reversed $38 $-1 #
coedge $-1 $117 $164 $64 $109 reversed $62 $-1 #
edge $-1 $124 -22.65026564417029 $166 22.65026564417029 $108 $167 forward 7 unknown #
coedge $-1 $66 $65 $164 $168 forward $25 $-1 #
edge $-1 $115 -78.800012207403796 $166 78.800012207403796 $107 $169 forward 7 unknown #
coedge $-1 $120 $119 $66 $113 reversed $104 $-1 #
edge $-1 $170 -78.800012207403796 $114 78.800012207403796 $112 $171 forward 7 unknown #
vertex $-1 $68 $172 #
vertex $-1 $126 $173 #
straight-curve $-1 78.800012207403796 0 -22.65026564417029 0 -1 0 I I #
coedge $-1 $106 $108 $69 $118 reversed $62 $-1 #
edge $-1 $121 -46.977957044183171 $124 46.977957044183171 $117 $174 forward 7 unknown #
coedge $-1 $112 $70 $75 $127 forward $104 $-1 #
coedge $-1 $70 $112 $106 $165 reversed $104 $-1 #
vertex $-1 $71 $175 #
straight-curve $-1 0 46.977957044183171 22.65026564417029 -1 0 0 I I #
coedge $-1 $72 $107 $74 $126 reversed $38 $-1 #
vertex $-1 $118 $176 #
straight-curve $-1 0 -46.977957044183171 22.65026564417029 1 0 0 I I #
edge $-1 $77 -22.65026564417029 $115 22.65026564417029 $74 $177 forward 7 unknown #
edge $-1 $78 -22.65026564417029 $114 22.65026564417029 $75 $178 forward 7 unknown #
point $-1 78.800012207403796 -46.977957044183171 22.65026564417029 #
point $-1 78.800012207403796 46.977957044183171 22.65026564417029 #
face $-1 $179 $180 $10 $-1 $181 reversed single #
loop $-1 $-1 $182 $80 #
plane-surface $-1 0 0 -22.65026564417029 0 0 1 1 0 0 forward_v I I I I #
coedge $-1 $86 $183 $83 $136 forward $81 $-1 #
coedge $-1 $135 $83 $184 $185 reversed $46 $-1 #
coedge $-1 $83 $134 $84 $138 forward $46 $-1 #
edge $-1 $186 10.190449009186054 $139 21.691796935844565 $133 $187 forward 7 unknown #
coedge $-1 $85 $84 $143 $188 reversed $29 $-1 #
edge $-1 $189 1.7751293829024333e-014 $139 14.799469585802818 $135 $190 forward 7 unknown #
vertex $-1 $87 $191 #
straight-curve $-1 -67.298664280745285 4.0204717771793703 22.65026564417029 0 -1 0 I I #
vertex $-1 $188 $192 #
straight-curve $-1 -78.80001220740381 -1.9047574805606331 13.336657541450364 -0.77714595512881146 0 -0.62932039886446345 I I #
coedge $-1 $184 $89 $137 $188 forward $145 $-1 #
coedge $-1 $89 $193 $91 $148 reversed $145 $-1 #
loop $-1 $-1 $184 $179 #
straight-curve $-1 -78.800012207403796 -1.9047574805606331 67.907439521810005 0 0 -1 I I #
coedge $-1 $194 $91 $195 $196 forward $81 $-1 #
edge $-1 $93 1.9047574805606331 $197 46.977957044183171 $144 $198 forward 7 unknown #
point $-1 -67.298664280745285 -1.9047574805606331 22.65026564417029 #
point $-1 -78.800012207403796 -1.9047574805606331 22.65026564417029 #
face $-1 $199 $200 $11 $-1 $201 forward single #
loop $-1 $-1 $202 $95 #
plane-surface $-1 -177.9809224331797 17.986644589278114 135.81487904362001 0 -1 0 0.62932039886446345 0 -0.77714595512881146 forward_v I I I I #
loop $-1 $-1 $203 $53 #
coedge $-1 $156 $98 $204 $205 forward $54 $-1 #
coedge $-1 $98 $155 $206 $207 reversed $54 $-1 #
coedge $-1 $208 $209 $98 $158 forward $200 $-1 #
edge $-1 $210 -21.691796935844565 $211 -10.190449009186054 $157 $212 forward 7 unknown #
edge $-1 $213 1 $213 0 $99 $-1 forward 7 unknown #
vertex $-1 $100 $214 #
ellipse-curve $-1 -67.757377305864836 8.0409435543587406 11.458434212083283 -0.62932039886446345 0 0.77714595512881146 2.3314378653864343 0 1.8879611965933902 1 I I #
point $-1 -70.717900378688086 8.0409435543587406 19.8814227894037 #
plane-surface $-1 78.800012207403796 0 0 -1 0 0 0 0 1 forward_v I I I I #
coedge $-1 $108 $106 $110 $168 reversed $62 $-1 #
edge $-1 $121 -22.65026564417029 $170 22.65026564417029 $120 $215 forward 7 unknown #
vertex $-1 $168 $216 #
straight-curve $-1 -78.800012207403796 -46.977957044183171 0 0 0 -1 I I #
edge $-1 $166 -46.977957044183171 $170 46.977957044183171 $164 $217 forward 7 unknown #
straight-curve $-1 0 -46.977957044183171 -22.65026564417029 -1 0 0 I I #
vertex $-1 $113 $218 #
straight-curve $-1 0 46.977957044183171 -22.65026564417029 1 0 0 I I #
point $-1 78.800012207403796 46.977957044183171 -22.65026564417029 #
point $-1 78.800012207403796 -46.977957044183171 -22.65026564417029 #
straight-curve $-1 -78.800012207403796 0 22.65026564417029 0 -1 0 I I #
point $-1 -78.800012207403796 46.977957044183171 22.65026564417029 #
point $-1 -78.800012207403796 -46.977957044183171 22.65026564417029 #
straight-curve $-1 78.800012207403796 -46.977957044183171 0 0 0 -1 I I #
straight-curve $-1 78.800012207403796 46.977957044183171 0 0 0 -1 I I #
face $-1 $219 $145 $10 $-1 $220 reversed single #
loop $-1 $-1 $221 $130 #
plane-surface $-1 0 -46.977957044183171 0 0 1 0 0 0 1 forward_v I I I I #
coedge $-1 $222 $223 $224 $225 forward $131 $-1 #
coedge $-1 $133 $226 $227 $228 forward $81 $-1 #
coedge $-1 $227 $143 $134 $185 forward $145 $-1 #
edge $-1 $189 -54.570781980359627 $186 -45.257173877639715 $184 $229 forward 7 unknown #
vertex $-1 $185 $230 #
straight-curve $-1 -88.99046121658985 17.986644589278114 22.65026564417029 1 0 0 I I #
edge $-1 $141 -5.9252292577400034 $189 13.966172812098744 $143 $231 forward 7 unknown #
vertex $-1 $188 $232 #
straight-curve $-1 -78.80001220740381 17.986644589278114 13.336657541450364 0.77714595512881146 0 0.62932039886446345 I I #
point $-1 -67.298664280745285 17.986644589278114 22.65026564417029 #
point $-1 -78.800012207403796 -1.9047574805606331 13.336657541450375 #
coedge $-1 $144 $233 $221 $234 reversed $145 $-1 #
coedge $-1 $226 $147 $235 $236 forward $81 $-1 #
coedge $-1 $221 $237 $147 $196 reversed $180 $-1 #
edge $-1 $197 -78.800012207403796 $238 78.800012207403796 $195 $239 forward 7 unknown #
vertex $-1 $148 $240 #
straight-curve $-1 -78.800012207403796 0 22.65026564417029 0 -1 0 I I #
face $-1 $241 $242 $11 $-1 $243 reversed single #
loop $-1 $-1 $244 $151 #
plane-surface $-1 0 0 22.65026564417029 0 0 1 1 0 0 forward_v I I I I #
coedge $-1 $245 $246 $244 $247 reversed $152 $-1 #
coedge $-1 $248 $204 $209 $249 reversed $154 $-1 #
coedge $-1 $203 $250 $155 $205 reversed $154 $-1 #
edge $-1 $210 -14.799469585802818 $251 -1.7751293829024333e-014 $155 $252 forward 7 unknown #
coedge $-1 $253 $254 $156 $207 forward $255 $-1 #
edge $-1 $211 45.257173877639715 $251 54.570781980359627 $206 $256 forward 7 unknown #
coedge $-1 $257 $157 $254 $258 forward $200 $-1 #
coedge $-1 $157 $244 $203 $249 forward $200 $-1 #
vertex $-1 $249 $259 #
vertex $-1 $258 $260 #
straight-curve $-1 -88.99046121658985 -1.9047574805606331 22.65026564417029 -1 0 0 I I #
vertex $-1 $159 $261 #
point $-1 -65.425939440478402 8.0409435543587406 13.346395408676674 #
straight-curve $-1 -78.800012207403796 46.977957044183171 0 0 0 -1 I I #
point $-1 -78.800012207403796 -46.977957044183171 -22.65026564417029 #
straight-curve $-1 -78.800012207403796 0 -22.65026564417029 0 1 0 I I #
point $-1 -78.800012207403796 46.977957044183171 -22.65026564417029 #
face $-1 $262 $263 $10 $-1 $264 reversed single #
plane-surface $-1 -78.800012207403796 0 0 1 0 0 0 0 -1 forward_v I I I I #
coedge $-1 $265 $195 $193 $234 forward $180 $-1 #
coedge $-1 $266 $182 $265 $267 forward $131 $-1 #
coedge $-1 $182 $266 $268 $269 forward $131 $-1 #
coedge $-1 $270 $271 $182 $225 reversed $272 $-1 #
edge $-1 $273 -46.977957044183171 $274 46.977957044183171 $224 $275 forward 7 unknown #
coedge $-1 $183 $194 $276 $277 forward $81 $-1 #
coedge $-1 $278 $184 $183 $228 reversed $145 $-1 #
edge $-1 $279 -46.977957044183171 $186 -17.986644589278114 $227 $198 forward 7 unknown #
straight-curve $-1 -78.800012207403796 17.986644589278114 67.907439521810005 0 0 1 I I #
point $-1 -78.800012207403796 17.986644589278114 22.65026564417029 #
straight-curve $-1 -78.800012207403796 4.0204717771793703 13.336657541450368 0 1 0 I I #
point $-1 -78.800012207403796 17.986644589278114 13.336657541450375 #
coedge $-1 $193 $278 $266 $280 reversed $145 $-1 #
edge $-1 $197 -22.65026564417029 $281 22.65026564417029 $193 $282 forward 7 unknown #
coedge $-1 $271 $270 $194 $236 reversed $272 $-1 #
edge $-1 $238 -46.977957044183171 $283 46.977957044183171 $235 $284 forward 7 unknown #
coedge $-1 $195 $265 $271 $285 reversed $180 $-1 #
vertex $-1 $236 $286 #
straight-curve $-1 0 -46.977957044183171 22.65026564417029 1 0 0 I I #
point $-1 -78.800012207403796 -46.977957044183171 22.65026564417029 #
face $-1 $287 $288 $11 $-1 $289 reversed single #
loop $-1 $-1 $290 $199 #
plane-surface $-1 0 0 -22.65026564417029 0 0 1 1 0 0 forward_v I I I I #
coedge $-1 $209 $291 $202 $247 forward $200 $-1 #
coedge $-1 $246 $202 $292 $293 reversed $152 $-1 #
coedge $-1 $202 $245 $248 $294 forward $152 $-1 #
edge $-1 $295 10.190449009186054 $296 21.691796935844565 $244 $297 forward 7 unknown #
coedge $-1 $250 $203 $246 $294 reversed $154 $-1 #
edge $-1 $296 -13.966172812098744 $210 5.9252292577400034 $209 $298 forward 7 unknown #
coedge $-1 $204 $248 $253 $299 reversed $154 $-1 #
vertex $-1 $299 $300 #
straight-curve $-1 -78.80001220740381 -1.9047574805606331 13.336657541450364 -0.77714595512881146 0 -0.62932039886446345 I I #
coedge $-1 $292 $206 $250 $299 forward $255 $-1 #
coedge $-1 $206 $301 $208 $258 reversed $255 $-1 #
loop $-1 $-1 $292 $287 #
straight-curve $-1 -78.800012207403796 -1.9047574805606331 67.907439521810005 0 0 -1 I I #
coedge $-1 $302 $208 $303 $304 forward $200 $-1 #
edge $-1 $211 1.9047574805606331 $305 46.977957044183171 $254 $306 forward 7 unknown #
point $-1 -67.298664280745285 -1.9047574805606331 22.65026564417029 #
point $-1 -78.800012207403796 -1.9047574805606331 22.65026564417029 #
point $-1 -65.869416109271455 8.0409435543587406 9.1269963466968491 #
face $-1 $-1 $272 $10 $-1 $307 reversed single #
loop $-1 $-1 $308 $219 #
plane-surface $-1 0 46.977957044183171 0 0 -1 0 0 0 -1 forward_v I I I I #
coedge $-1 $237 $221 $222 $267 reversed $180 $-1 #
coedge $-1 $223 $222 $233 $280 forward $131 $-1 #
edge $-1 $274 -78.800012207403796 $281 78.800012207403796 $265 $309 forward 7 unknown #
coedge $-1 $310 $308 $223 $269 reversed $263 $-1 #
edge $-1 $311 -78.800012207403796 $273 78.800012207403796 $268 $312 forward 7 unknown #
coedge $-1 $235 $224 $308 $313 reversed $272 $-1 #
coedge $-1 $224 $235 $237 $285 forward $272 $-1 #
loop $-1 $-1 $271 $262 #
vertex $-1 $225 $314 #
vertex $-1 $285 $315 #
straight-curve $-1 78.800012207403796 0 -22.65026564417029 0 -1 0 I I #
coedge $-1 $308 $310 $226 $277 reversed $263 $-1 #
edge $-1 $283 -78.800012207403796 $279 78.800012207403796 $276 $316 forward 7 unknown #
coedge $-1 $233 $227 $310 $317 forward $145 $-1 #
vertex $-1 $277 $318 #
edge $-1 $281 -46.977957044183171 $311 46.977957044183171 $233 $319 forward 7 unknown #
vertex $-1 $280 $320 #
straight-curve $-1 -78.800012207403796 -46.977957044183171 0 0 0 -1 I I #
vertex $-1 $236 $321 #
straight-curve $-1 78.800012207403796 0 22.65026564417029 0 1 0 I I #
edge $-1 $238 -22.65026564417029 $274 22.65026564417029 $271 $322 forward 7 unknown #
point $-1 78.800012207403796 -46.977957044183171 22.65026564417029 #
face $-1 $323 $255 $11 $-1 $324 reversed single #
loop $-1 $-1 $325 $241 #
plane-surface $-1 0 -46.977957044183171 0 0 1 0 0 0 1 forward_v I I I I #
coedge $-1 $326 $327 $328 $329 forward $242 $-1 #
coedge $-1 $244 $330 $331 $332 forward $200 $-1 #
coedge $-1 $331 $253 $245 $293 forward $255 $-1 #
edge $-1 $333 -54.570781980359627 $295 -45.257173877639715 $292 $334 forward 7 unknown #
edge $-1 $333 1.7751293829024333e-014 $296 14.799469585802818 $246 $335 forward 7 unknown #
vertex $-1 $293 $336 #
vertex $-1 $249 $337 #
straight-curve $-1 -88.99046121658985 17.986644589278114 22.65026564417029 1 0 0 I I #
straight-curve $-1 -67.298664280745285 4.0204717771793703 22.65026564417029 0 -1 0 I I #
edge $-1 $251 -5.9252292577400034 $333 13.966172812098744 $253 $338 forward 7 unknown #
point $-1 -78.800012207403796 -1.9047574805606331 13.336657541450375 #
coedge $-1 $254 $339 $325 $340 reversed $255 $-1 #
coedge $-1 $330 $257 $341 $342 forward $200 $-1 #
coedge $-1 $325 $343 $257 $304 reversed $288 $-1 #
edge $-1 $305 -78.800012207403796 $344 78.800012207403796 $303 $345 forward 7 unknown #
vertex $-1 $258 $346 #
straight-curve $-1 -78.800012207403796 0 22.65026564417029 0 -1 0 I I #
plane-surface $-1 78.800012207403796 0 0 -1 0 0 0 0 1 forward_v I I I I #
coedge $-1 $268 $276 $270 $313 forward $263 $-1 #
straight-curve $-1 0 -46.977957044183171 -22.65026564417029 -1 0 0 I I #
coedge $-1 $276 $268 $278 $317 reversed $263 $-1 #
vertex $-1 $269 $347 #
straight-curve $-1 0 46.977957044183171 -22.65026564417029 1 0 0 I I #
edge $-1 $283 -22.65026564417029 $273 22.65026564417029 $270 $348 forward 7 unknown #
point $-1 78.800012207403796 46.977957044183171 -22.65026564417029 #
point $-1 78.800012207403796 -46.977957044183171 -22.65026564417029 #
straight-curve $-1 0 46.977957044183171 22.65026564417029 -1 0 0 I I #
edge $-1 $279 -22.65026564417029 $311 22.65026564417029 $310 $349 forward 7 unknown #
point $-1 -78.800012207403796 46.977957044183171 22.65026564417029 #
straight-curve $-1 -78.800012207403796 0 -22.65026564417029 0 1 0 I I #
point $-1 -78.800012207403796 -46.977957044183171 -22.65026564417029 #
point $-1 78.800012207403796 46.977957044183171 22.65026564417029 #
straight-curve $-1 78.800012207403796 -46.977957044183171 0 0 0 -1 I I #
face $-1 $350 $351 $11 $-1 $352 reversed single #
plane-surface $-1 -78.800012207403796 0 0 1 0 0 0 0 -1 forward_v I I I I #
coedge $-1 $353 $303 $301 $340 forward $288 $-1 #
coedge $-1 $354 $290 $353 $355 forward $242 $-1 #
coedge $-1 $290 $354 $356 $357 forward $242 $-1 #
coedge $-1 $358 $359 $290 $329 reversed $360 $-1 #
edge $-1 $361 -46.977957044183171 $362 46.977957044183171 $328 $363 forward 7 unknown #
coedge $-1 $291 $302 $364 $365 forward $200 $-1 #
coedge $-1 $366 $292 $291 $332 reversed $255 $-1 #
edge $-1 $367 -46.977957044183171 $295 -17.986644589278114 $331 $306 forward 7 unknown #
vertex $-1 $299 $368 #
straight-curve $-1 -78.800012207403796 17.986644589278114 67.907439521810005 0 0 1 I I #
straight-curve $-1 -78.80001220740381 17.986644589278114 13.336657541450364 0.77714595512881146 0 0.62932039886446345 I I #
point $-1 -78.800012207403796 17.986644589278114 22.65026564417029 #
point $-1 -67.298664280745285 17.986644589278114 22.65026564417029 #
straight-curve $-1 -78.800012207403796 4.0204717771793703 13.336657541450368 0 1 0 I I #
coedge $-1 $301 $366 $354 $369 reversed $255 $-1 #
edge $-1 $305 -22.65026564417029 $370 22.65026564417029 $301 $371 forward 7 unknown #
coedge $-1 $359 $358 $302 $342 reversed $360 $-1 #
edge $-1 $344 -46.977957044183171 $372 46.977957044183171 $341 $373 forward 7 unknown #
coedge $-1 $303 $353 $359 $374 reversed $288 $-1 #
vertex $-1 $342 $375 #
straight-curve $-1 0 -46.977957044183171 22.65026564417029 1 0 0 I I #
point $-1 -78.800012207403796 -46.977957044183171 22.65026564417029 #
point $-1 -78.800012207403796 46.977957044183171 -22.65026564417029 #
straight-curve $-1 78.800012207403796 46.977957044183171 0 0 0 -1 I I #
straight-curve $-1 -78.800012207403796 46.977957044183171 0 0 0 -1 I I #
face $-1 $-1 $360 $11 $-1 $376 reversed single #
loop $-1 $-1 $377 $323 #
plane-surface $-1 0 46.977957044183171 0 0 -1 0 0 0 -1 forward_v I I I I #
coedge $-1 $343 $325 $326 $355 reversed $288 $-1 #
coedge $-1 $327 $326 $339 $369 forward $242 $-1 #
edge $-1 $362 -78.800012207403796 $370 78.800012207403796 $353 $378 forward 7 unknown #
coedge $-1 $379 $377 $327 $357 reversed $351 $-1 #
edge $-1 $380 -78.800012207403796 $361 78.800012207403796 $356 $381 forward 7 unknown #
coedge $-1 $341 $328 $377 $382 reversed $360 $-1 #
coedge $-1 $328 $341 $343 $374 forward $360 $-1 #
loop $-1 $-1 $359 $350 #
vertex $-1 $329 $383 #
vertex $-1 $374 $384 #
straight-curve $-1 78.800012207403796 0 -22.65026564417029 0 -1 0 I I #
coedge $-1 $377 $379 $330 $365 reversed $351 $-1 #
edge $-1 $372 -78.800012207403796 $367 78.800012207403796 $364 $385 forward 7 unknown #
coedge $-1 $339 $331 $379 $386 forward $255 $-1 #
vertex $-1 $365 $387 #
point $-1 -78.800012207403796 17.986644589278114 13.336657541450375 #
edge $-1 $370 -46.977957044183171 $380 46.977957044183171 $339 $388 forward 7 unknown #
vertex $-1 $369 $389 #
straight-curve $-1 -78.800012207403796 -46.977957044183171 0 0 0 -1 I I #
vertex $-1 $342 $390 #
straight-curve $-1 78.800012207403796 0 22.65026564417029 0 1 0 I I #
edge $-1 $344 -22.65026564417029 $362 22.65026564417029 $359 $391 forward 7 unknown #
point $-1 78.800012207403796 -46.977957044183171 22.65026564417029 #
plane-surface $-1 78.800012207403796 0 0 -1 0 0 0 0 1 forward_v I I I I #
coedge $-1 $356 $364 $358 $382 forward $351 $-1 #
straight-curve $-1 0 -46.977957044183171 -22.65026564417029 -1 0 0 I I #
coedge $-1 $364 $356 $366 $386 reversed $351 $-1 #
vertex $-1 $357 $392 #
straight-curve $-1 0 46.977957044183171 -22.65026564417029 1 0 0 I I #
edge $-1 $372 -22.65026564417029 $361 22.65026564417029 $358 $393 forward 7 unknown #
point $-1 78.800012207403796 46.977957044183171 -22.65026564417029 #
point $-1 78.800012207403796 -46.977957044183171 -22.65026564417029 #
straight-curve $-1 0 46.977957044183171 22.65026564417029 -1 0 0 I I #
edge $-1 $367 -22.65026564417029 $380 22.65026564417029 $379 $394 forward 7 unknown #
point $-1 -78.800012207403796 46.977957044183171 22.65026564417029 #
straight-curve $-1 -78.800012207403796 0 -22.65026564417029 0 1 0 I I #
point $-1 -78.800012207403796 -46.977957044183171 -22.65026564417029 #
point $-1 78.800012207403796 46.977957044183171 22.65026564417029 #
straight-curve $-1 78.800012207403796 -46.977957044183171 0 0 0 -1 I I #
point $-1 -78.800012207403796 46.977957044183171 -22.65026564417029 #
straight-curve $-1 78.800012207403796 46.977957044183171 0 0 0 -1 I I #
straight-curve $-1 -78.800012207403796 46.977957044183171 0 0 0 -1 I I #
End-of-ACIS-data 