500 0 8 0           
7 Unknown 11 ACIS 5.0 NT 24 Thu Mar 25 21:07:11 1999 
-1 9.9999999999999995e-007 1e-010 
body $-1 $8 $-1 $9 #
body $-1 $10 $-1 $11 #
body $-1 $12 $-1 $13 #
body $-1 $14 $-1 $15 #
body $-1 $16 $-1 $17 #
body $-1 $18 $-1 $19 #
body $-1 $20 $-1 $21 #
body $-1 $22 $-1 $23 #
lump $-1 $-1 $24 $0 #
transform $-1 1 0 0 0 1 0 0 0 1 75.955687124240853 36.389280911092186 11.533359753592507 1 rotate no_reflect no_shear #
lump $-1 $-1 $25 $1 #
transform $-1 1 0 0 0 1 0 0 0 1 75.955687124240853 36.389280911092186 11.533359753592507 1 rotate no_reflect no_shear #
lump $-1 $-1 $26 $2 #
transform $-1 1 0 0 0 1 0 0 0 1 75.955687124240853 36.389280911092186 11.533359753592507 1 rotate no_reflect no_shear #
lump $-1 $-1 $27 $3 #
transform $-1 1 0 0 0 1 0 0 0 1 75.955687124240853 36.389280911092186 11.533359753592507 1 rotate no_reflect no_shear #
lump $-1 $-1 $28 $4 #
transform $-1 1 0 0 0 1 0 0 0 1 75.955687124240853 36.389280911092186 11.533359753592507 1 rotate no_reflect no_shear #
lump $-1 $-1 $29 $5 #
transform $-1 1 0 0 0 1 0 0 0 1 75.955687124240853 36.389280911092186 11.533359753592507 1 rotate no_reflect no_shear #
lump $-1 $-1 $30 $6 #
transform $-1 1 0 0 0 1 0 0 0 1 75.955687124240853 36.389280911092186 11.533359753592507 1 rotate no_reflect no_shear #
lump $-1 $-1 $31 $7 #
transform $-1 1 0 0 0 1 0 0 0 1 75.955687124240853 36.389280911092186 11.533359753592507 1 rotate no_reflect no_shear #
shell $-1 $-1 $-1 $32 $-1 $8 #
shell $-1 $-1 $-1 $33 $-1 $10 #
shell $-1 $-1 $-1 $34 $-1 $12 #
shell $-1 $-1 $-1 $35 $-1 $14 #
shell $-1 $-1 $-1 $36 $-1 $16 #
shell $-1 $-1 $-1 $37 $-1 $18 #
shell $-1 $-1 $-1 $38 $-1 $20 #
shell $-1 $-1 $-1 $39 $-1 $22 #
face $-1 $40 $41 $24 $-1 $42 forward single #
face $-1 $43 $44 $25 $-1 $45 forward single #
face $-1 $46 $47 $26 $-1 $48 reversed single #
face $-1 $49 $50 $27 $-1 $51 forward single #
face $-1 $52 $53 $28 $-1 $54 forward single #
face $-1 $55 $56 $29 $-1 $57 reversed single #
face $-1 $58 $59 $30 $-1 $60 forward single #
face $-1 $61 $62 $31 $-1 $63 forward single #
face $-1 $64 $65 $24 $-1 $66 reversed single #
loop $-1 $-1 $67 $32 #
plane-surface $-1 0 0 11.533359753592507 0 0 1 1 0 0 forward_v I I I I #
face $-1 $68 $69 $25 $-1 $70 reversed single #
loop $-1 $-1 $71 $33 #
plane-surface $-1 0 -36.389280911092186 0 0 1 0 0 0 1 forward_v I I I I #
face $-1 $72 $73 $26 $-1 $74 reversed single #
loop $-1 $-1 $75 $34 #
plane-surface $-1 -207.5147975222709 28.771715693965113 77.538290369403654 0 1 0 -0.86602541151947299 0 0.49999998660252726 forward_v I I I I #
face $-1 $76 $77 $27 $-1 $78 forward single #
loop $-1 $79 $80 $35 #
cone-surface $-1 -72.280102045691422 30.94816289885857 6.0943415186421044 0.86602541151947299 0 -0.49999998660252726 0.24999999330126363 0 0.43301270575973649 1 I I 0 1 0.5 forward I I I I #
face $-1 $81 $82 $28 $-1 $83 forward single #
loop $-1 $84 $85 $36 #
cone-surface $-1 -72.280102045691422 34.212833706198737 6.0943415186421044 0.86602541151947299 0 -0.49999998660252726 0.24999999330126363 0 0.43301270575973649 1 I I 0 1 0.5 forward I I I I #
face $-1 $86 $87 $29 $-1 $88 reversed single #
loop $-1 $-1 $89 $37 #
plane-surface $-1 131.55911243325852 28.771715693965113 209.09740076743373 0 1 0 0.86602541151947299 0 0.49999998660252726 forward_v I I I I #
face $-1 $90 $91 $30 $-1 $92 forward single #
loop $-1 $93 $94 $38 #
cone-surface $-1 72.280102045691436 30.94816289885857 6.0943415186421079 -0.86602541151947299 0 -0.49999998660252726 0.24999999330126363 0 -0.43301270575973649 1 I I 0 1 0.5 forward I I I I #
face $-1 $95 $96 $31 $-1 $97 forward single #
loop $-1 $98 $99 $39 #
cone-surface $-1 72.280102045691436 34.212833706198737 6.0943415186421079 -0.86602541151947299 0 -0.49999998660252726 0.24999999330126363 0 -0.43301270575973649 1 I I 0 1 0.5 forward I I I I #
face $-1 $100 $101 $24 $-1 $102 reversed single #
loop $-1 $-1 $103 $40 #
plane-surface $-1 0 0 -11.533359753592507 0 0 1 1 0 0 forward_v I I I I #
coedge $-1 $104 $105 $106 $107 forward $41 $-1 #
face $-1 $108 $109 $25 $-1 $110 reversed single #
loop $-1 $-1 $111 $43 #
plane-surface $-1 0 0 -11.533359753592507 0 0 1 1 0 0 forward_v I I I I #
coedge $-1 $112 $113 $114 $115 forward $44 $-1 #
face $-1 $116 $117 $26 $-1 $118 reversed single #
loop $-1 $-1 $119 $46 #
plane-surface $-1 -75.955687124240853 32.580498302528639 1.5826052803912916 -0.86602541151947299 0 0.49999998660252726 0.49999998660252726 0 0.86602541151947299 forward_v I I I I #
coedge $-1 $120 $121 $122 $123 reversed $47 $-1 #
face $-1 $-1 $124 $27 $-1 $125 forward single #
loop $-1 $126 $127 $49 #
cone-surface $-1 -71.260545898507516 30.94816289885857 5.5057005236416749 0.86602541151947299 0 -0.49999998660252726 0.12499999665063181 0 0.21650635287986825 1 I I -0.70710678118654879 0.70710678118654635 0.25 forward I I I I #
loop $-1 $-1 $128 $35 #
coedge $-1 $80 $80 $129 $130 reversed $50 $-1 #
face $-1 $-1 $131 $28 $-1 $132 forward single #
loop $-1 $133 $134 $52 #
cone-surface $-1 -71.260545898507516 34.212833706198737 5.5057005236416749 0.86602541151947299 0 -0.49999998660252726 0.12499999665063181 0 0.21650635287986825 1 I I -0.70710678118654879 0.70710678118654635 0.25 forward I I I I #
loop $-1 $-1 $135 $36 #
coedge $-1 $85 $85 $136 $137 reversed $53 $-1 #
face $-1 $138 $139 $29 $-1 $140 forward single #
loop $-1 $-1 $141 $55 #
plane-surface $-1 2.0352284764157957e-006 32.580498302528639 133.14171567842135 0.86602541151947299 0 0.49999998660252726 0.49999998660252726 0 -0.86602541151947299 forward_v I I I I #
coedge $-1 $142 $143 $144 $145 reversed $56 $-1 #
face $-1 $-1 $146 $30 $-1 $147 forward single #
loop $-1 $148 $149 $58 #
cone-surface $-1 71.26054589850753 30.94816289885857 5.5057005236416785 -0.86602541151947299 0 -0.49999998660252726 0.12499999665063181 0 -0.21650635287986825 1 I I -0.70710678118654879 0.70710678118654635 0.25 forward I I I I #
loop $-1 $-1 $150 $38 #
coedge $-1 $94 $94 $151 $152 reversed $59 $-1 #
face $-1 $-1 $153 $31 $-1 $154 forward single #
loop $-1 $155 $156 $61 #
cone-surface $-1 71.26054589850753 34.212833706198737 5.5057005236416785 -0.86602541151947299 0 -0.49999998660252726 0.12499999665063181 0 -0.21650635287986825 1 I I -0.70710678118654879 0.70710678118654635 0.25 forward I I I I #
loop $-1 $-1 $157 $39 #
coedge $-1 $99 $99 $158 $159 reversed $62 $-1 #
face $-1 $160 $161 $24 $-1 $162 reversed single #
loop $-1 $-1 $163 $64 #
plane-surface $-1 0 -36.389280911092186 0 0 1 0 0 0 1 forward_v I I I I #
coedge $-1 $164 $165 $166 $167 forward $65 $-1 #
coedge $-1 $168 $67 $169 $170 forward $41 $-1 #
coedge $-1 $67 $168 $171 $172 forward $41 $-1 #
coedge $-1 $173 $174 $67 $107 reversed $175 $-1 #
edge $-1 $176 -36.389280911092186 $177 36.389280911092186 $106 $178 forward 7 unknown #
face $-1 $179 $180 $25 $-1 $181 forward single #
loop $-1 $-1 $182 $68 #
plane-surface $-1 75.955687124240853 0 0 -1 0 0 0 0 1 forward_v I I I I #
coedge $-1 $183 $184 $185 $186 forward $69 $-1 #
coedge $-1 $185 $71 $182 $187 reversed $44 $-1 #
coedge $-1 $71 $185 $188 $189 reversed $44 $-1 #
coedge $-1 $190 $191 $71 $115 reversed $180 $-1 #
edge $-1 $192 -75.955687124240853 $193 75.955687124240853 $114 $194 forward 7 unknown #
face $-1 $195 $196 $26 $-1 $197 reversed single #
loop $-1 $-1 $198 $72 #
plane-surface $-1 0 36.389280911092186 0 0 -1 0 0 0 -1 forward_v I I I I #
coedge $-1 $199 $200 $201 $202 reversed $73 $-1 #
coedge $-1 $121 $75 $203 $204 reversed $47 $-1 #
coedge $-1 $75 $120 $199 $205 reversed $47 $-1 #
coedge $-1 $201 $206 $75 $123 forward $207 $-1 #
edge $-1 $208 27.801711636894595 $209 33.546782205385384 $122 $210 forward 7 unknown #
loop $-1 $-1 $129 $76 #
plane-surface $-1 -75.955687124240853 32.580498302528639 1.5826052803912916 -0.86602541151947299 0 0.49999998660252726 0.49999998660252726 0 0.86602541151947299 forward_v I I I I #
loop $-1 $-1 $211 $49 #
coedge $-1 $127 $127 $128 $212 reversed $77 $-1 #
coedge $-1 $128 $128 $127 $212 forward $79 $-1 #
coedge $-1 $129 $129 $80 $130 forward $124 $-1 #
edge $-1 $213 0 $213 6.2831853071796004 $129 $214 forward 7 unknown #
loop $-1 $-1 $136 $81 #
plane-surface $-1 -75.955687124240853 32.580498302528639 1.5826052803912916 -0.86602541151947299 0 0.49999998660252726 0.49999998660252726 0 0.86602541151947299 forward_v I I I I #
loop $-1 $-1 $215 $52 #
coedge $-1 $134 $134 $135 $216 reversed $82 $-1 #
coedge $-1 $135 $135 $134 $216 forward $84 $-1 #
coedge $-1 $136 $136 $85 $137 forward $131 $-1 #
edge $-1 $217 0 $217 6.2831853071796004 $136 $218 forward 7 unknown #
face $-1 $219 $220 $29 $-1 $221 reversed single #
loop $-1 $-1 $222 $86 #
plane-surface $-1 0 0 11.533359753592507 0 0 1 1 0 0 forward_v I I I I #
coedge $-1 $223 $224 $225 $226 reversed $87 $-1 #
coedge $-1 $143 $89 $227 $228 reversed $56 $-1 #
coedge $-1 $89 $142 $223 $229 reversed $56 $-1 #
coedge $-1 $225 $230 $89 $145 forward $231 $-1 #
edge $-1 $232 93.015340630124356 $233 102.96609510332559 $144 $234 forward 7 unknown #
loop $-1 $-1 $151 $90 #
plane-surface $-1 2.0352284764157957e-006 32.580498302528639 133.14171567842135 0.86602541151947299 0 0.49999998660252726 0.49999998660252726 0 -0.86602541151947299 forward_v I I I I #
loop $-1 $-1 $235 $58 #
coedge $-1 $149 $149 $150 $236 reversed $91 $-1 #
coedge $-1 $150 $150 $149 $236 forward $93 $-1 #
coedge $-1 $151 $151 $94 $152 forward $146 $-1 #
edge $-1 $237 0 $237 6.2831853071796004 $151 $238 forward 7 unknown #
loop $-1 $-1 $158 $95 #
plane-surface $-1 2.0352284764157957e-006 32.580498302528639 133.14171567842135 0.86602541151947299 0 0.49999998660252726 0.49999998660252726 0 -0.86602541151947299 forward_v I I I I #
loop $-1 $-1 $239 $61 #
coedge $-1 $156 $156 $157 $240 reversed $96 $-1 #
coedge $-1 $157 $157 $156 $240 forward $98 $-1 #
coedge $-1 $158 $158 $99 $159 forward $153 $-1 #
edge $-1 $241 0 $241 6.2831853071796004 $158 $242 forward 7 unknown #
face $-1 $243 $244 $24 $-1 $245 reversed single #
loop $-1 $-1 $246 $100 #
plane-surface $-1 -75.955687124240853 0 0 1 0 0 0 0 -1 forward_v I I I I #
coedge $-1 $247 $171 $248 $249 forward $101 $-1 #
coedge $-1 $250 $103 $247 $251 forward $65 $-1 #
coedge $-1 $103 $250 $252 $253 forward $65 $-1 #
coedge $-1 $174 $173 $103 $167 reversed $175 $-1 #
edge $-1 $254 -36.389280911092186 $255 36.389280911092186 $166 $256 forward 7 unknown #
coedge $-1 $105 $104 $257 $258 forward $41 $-1 #
coedge $-1 $259 $260 $104 $170 reversed $244 $-1 #
edge $-1 $177 -75.955687124240853 $261 75.955687124240853 $169 $262 forward 7 unknown #
coedge $-1 $163 $263 $105 $172 reversed $101 $-1 #
edge $-1 $264 -75.955687124240853 $176 75.955687124240853 $171 $265 forward 7 unknown #
coedge $-1 $166 $106 $263 $266 forward $175 $-1 #
coedge $-1 $106 $166 $259 $267 reversed $175 $-1 #
loop $-1 $-1 $173 $243 #
vertex $-1 $107 $268 #
vertex $-1 $107 $269 #
straight-curve $-1 75.955687124240853 0 11.533359753592507 0 1 0 I I #
face $-1 $270 $271 $25 $-1 $272 reversed single #
loop $-1 $-1 $191 $108 #
plane-surface $-1 0 -42.535903103401544 -7.2744606677281132 0 0 1 1 0 0 forward_v I I I I #
coedge $-1 $273 $274 $112 $187 forward $109 $-1 #
coedge $-1 $275 $111 $274 $276 forward $69 $-1 #
coedge $-1 $111 $275 $277 $278 forward $69 $-1 #
coedge $-1 $113 $112 $111 $186 reversed $44 $-1 #
edge $-1 $279 -75.955687124240853 $280 75.955687124240853 $111 $281 forward 7 unknown #
edge $-1 $280 -11.533359753592507 $193 -7.2744606677281132 $182 $282 forward 7 unknown #
coedge $-1 $277 $283 $113 $189 forward $284 $-1 #
edge $-1 $192 7.2744606677281132 $279 11.533359753592507 $188 $285 forward 7 unknown #
coedge $-1 $286 $114 $283 $287 forward $180 $-1 #
coedge $-1 $114 $286 $273 $288 forward $180 $-1 #
vertex $-1 $189 $289 #
vertex $-1 $288 $290 #
straight-curve $-1 0 -36.389280911092186 -7.2744606677281132 1 0 0 I I #
face $-1 $-1 $207 $26 $-1 $291 forward single #
loop $-1 $-1 $292 $116 #
plane-surface $-1 -75.955687124240853 0 0 1 0 0 0 0 -1 forward_v I I I I #
coedge $-1 $293 $294 $200 $295 forward $117 $-1 #
coedge $-1 $296 $119 $121 $205 forward $73 $-1 #
coedge $-1 $119 $296 $198 $295 reversed $73 $-1 #
coedge $-1 $297 $122 $119 $202 forward $207 $-1 #
edge $-1 $209 12.481466542700794 $298 20.099031759827845 $201 $299 forward 7 unknown #
coedge $-1 $300 $292 $120 $204 forward $196 $-1 #
edge $-1 $301 -37.186539904310536 $208 -27.235785431109321 $203 $302 forward 7 unknown #
edge $-1 $209 -11.490141444859287 $301 0 $121 $303 forward 7 unknown #
coedge $-1 $122 $297 $300 $304 forward $207 $-1 #
loop $-1 $-1 $201 $195 #
vertex $-1 $204 $305 #
vertex $-1 $123 $306 #
straight-curve $-1 -103.75739876113545 28.771715693965113 11.533359753592507 1 0 0 I I #
coedge $-1 $211 $211 $-1 $307 reversed $126 $-1 #
edge $-1 $308 0 $308 6.2831853071796004 $127 $309 forward 7 unknown #
vertex $-1 $130 $310 #
ellipse-curve $-1 -73.083151839995466 30.94816289885857 6.5579825169918999 -0.86602541151947299 0 0.49999998660252726 0.24999999330126363 0 0.43301270575973649 1 I I #
coedge $-1 $215 $215 $-1 $311 reversed $133 $-1 #
edge $-1 $312 0 $312 6.2831853071796004 $134 $313 forward 7 unknown #
vertex $-1 $137 $314 #
ellipse-curve $-1 -73.083151839995466 34.212833706198737 6.5579825169918999 -0.86602541151947299 0 0.49999998660252726 0.24999999330126363 0 0.43301270575973649 1 I I #
face $-1 $-1 $231 $29 $-1 $315 reversed single #
loop $-1 $-1 $316 $138 #
plane-surface $-1 0 36.389280911092186 0 0 -1 0 0 0 -1 forward_v I I I I #
coedge $-1 $227 $317 $318 $319 forward $139 $-1 #
coedge $-1 $318 $141 $143 $229 forward $87 $-1 #
coedge $-1 $141 $318 $316 $320 reversed $87 $-1 #
coedge $-1 $321 $144 $141 $226 forward $231 $-1 #
edge $-1 $233 12.481466542700794 $322 20.099031759827866 $225 $323 forward 7 unknown #
coedge $-1 $324 $222 $142 $228 forward $139 $-1 #
edge $-1 $325 4.4310603391208048 $232 10.176130907611594 $227 $326 forward 7 unknown #
edge $-1 $233 -151.91137424848174 $325 -140.42123280362244 $143 $327 forward 7 unknown #
coedge $-1 $144 $321 $324 $328 reversed $231 $-1 #
loop $-1 $-1 $225 $219 #
vertex $-1 $328 $329 #
vertex $-1 $145 $330 #
straight-curve $-1 75.955687124240853 28.771715693965113 104.54870038371686 0 0 -1 I I #
coedge $-1 $235 $235 $-1 $331 reversed $148 $-1 #
edge $-1 $332 0 $332 6.2831853071796004 $149 $333 forward 7 unknown #
vertex $-1 $152 $334 #
ellipse-curve $-1 73.083151839995452 30.94816289885857 6.5579825169918893 0.86602541151947299 0 0.49999998660252726 0.24999999330126363 0 -0.43301270575973649 1 I I #
coedge $-1 $239 $239 $-1 $335 reversed $155 $-1 #
edge $-1 $336 0 $336 6.2831853071796004 $156 $337 forward 7 unknown #
vertex $-1 $159 $338 #
ellipse-curve $-1 73.083151839995452 34.212833706198737 6.5579825169918893 0.86602541151947299 0 0.49999998660252726 0.24999999330126363 0 -0.43301270575973649 1 I I #
face $-1 $-1 $175 $24 $-1 $339 reversed single #
loop $-1 $-1 $259 $160 #
plane-surface $-1 0 36.389280911092186 0 0 -1 0 0 0 -1 forward_v I I I I #
coedge $-1 $340 $257 $260 $341 forward $161 $-1 #
coedge $-1 $263 $163 $164 $251 reversed $101 $-1 #
coedge $-1 $257 $340 $163 $249 reversed $161 $-1 #
edge $-1 $264 -11.533359753592507 $342 11.533359753592507 $248 $343 forward 7 unknown #
coedge $-1 $165 $164 $340 $344 forward $65 $-1 #
edge $-1 $255 -75.955687124240853 $342 75.955687124240853 $247 $345 forward 7 unknown #
coedge $-1 $260 $259 $165 $253 reversed $244 $-1 #
edge $-1 $346 -75.955687124240853 $254 75.955687124240853 $252 $347 forward 7 unknown #
vertex $-1 $167 $348 #
vertex $-1 $266 $349 #
straight-curve $-1 75.955687124240853 0 -11.533359753592507 0 -1 0 I I #
coedge $-1 $246 $248 $168 $258 reversed $161 $-1 #
edge $-1 $261 -36.389280911092186 $264 36.389280911092186 $257 $350 forward 7 unknown #
coedge $-1 $252 $169 $174 $267 forward $244 $-1 #
coedge $-1 $169 $252 $246 $341 reversed $244 $-1 #
vertex $-1 $170 $351 #
straight-curve $-1 0 36.389280911092186 11.533359753592507 -1 0 0 I I #
coedge $-1 $171 $247 $173 $266 reversed $101 $-1 #
vertex $-1 $258 $352 #
straight-curve $-1 0 -36.389280911092186 11.533359753592507 1 0 0 I I #
edge $-1 $176 -11.533359753592507 $255 11.533359753592507 $173 $353 forward 7 unknown #
edge $-1 $177 -11.533359753592507 $254 11.533359753592507 $174 $354 forward 7 unknown #
point $-1 75.955687124240853 -36.389280911092186 11.533359753592507 #
point $-1 75.955687124240853 36.389280911092186 11.533359753592507 #
face $-1 $-1 $284 $25 $-1 $355 reversed single #
loop $-1 $-1 $356 $179 #
plane-surface $-1 0 -48.682525295710903 -9.4039102106603103 0 1 0 0 0 1 forward_v I I I I #
coedge $-1 $357 $182 $191 $288 reversed $109 $-1 #
coedge $-1 $182 $357 $183 $276 reversed $109 $-1 #
coedge $-1 $184 $183 $358 $359 forward $69 $-1 #
edge $-1 $280 36.389280911092186 $360 48.682525295710903 $274 $361 forward 7 unknown #
coedge $-1 $362 $188 $184 $278 reversed $284 $-1 #
edge $-1 $363 -48.682525295710903 $279 -36.389280911092186 $277 $364 forward 7 unknown #
vertex $-1 $189 $365 #
vertex $-1 $276 $366 #
straight-curve $-1 0 -36.389280911092186 -11.533359753592507 1 0 0 I I #
straight-curve $-1 75.955687124240853 -36.389280911092186 0 0 0 1 I I #
coedge $-1 $188 $362 $190 $287 reversed $284 $-1 #
loop $-1 $-1 $188 $270 #
straight-curve $-1 -75.955687124240853 -36.389280911092186 0 0 0 -1 I I #
coedge $-1 $191 $190 $367 $368 forward $180 $-1 #
edge $-1 $192 -6.1466221923093585 $369 6.1466221923093585 $283 $370 forward 7 unknown #
edge $-1 $371 -6.1466221923093585 $193 6.1466221923093585 $273 $372 forward 7 unknown #
point $-1 -75.955687124240853 -36.389280911092186 -7.2744606677281132 #
point $-1 75.955687124240853 -36.389280911092186 -7.2744606677281132 #
plane-surface $-1 0 0 11.533359753592507 0 0 1 1 0 0 forward_v I I I I #
coedge $-1 $203 $373 $296 $374 forward $196 $-1 #
coedge $-1 $294 $198 $373 $375 reversed $117 $-1 #
coedge $-1 $198 $293 $297 $376 reversed $117 $-1 #
edge $-1 $298 6.8134916327819273 $377 18.303633077641216 $198 $378 forward 7 unknown #
coedge $-1 $200 $199 $292 $374 reversed $73 $-1 #
coedge $-1 $206 $201 $294 $376 forward $207 $-1 #
vertex $-1 $376 $379 #
straight-curve $-1 -70.210616555750065 16.290249151264319 11.533359753592507 0 1 0 I I #
coedge $-1 $373 $203 $206 $304 reversed $196 $-1 #
vertex $-1 $204 $380 #
straight-curve $-1 -75.955687124240853 28.771715693965113 38.769145184701827 0 0 1 I I #
straight-curve $-1 -75.955687124240853 28.771715693965113 1.5826052803912916 -0.49999998660252726 0 -0.86602541151947299 I I #
edge $-1 $381 -36.389280911092186 $208 -28.771715693965113 $300 $382 forward 7 unknown #
point $-1 -75.955687124240853 28.771715693965113 11.533359753592507 #
point $-1 -70.210616555750065 28.771715693965113 11.533359753592507 #
edge $-1 $383 1 $383 0 $211 $-1 forward 7 unknown #
vertex $-1 $212 $384 #
ellipse-curve $-1 -71.477052251387377 30.94816289885857 5.6307005202923062 -0.86602541151947299 0 0.49999998660252726 0.24999999330126363 0 0.43301270575973649 1 I I #
point $-1 -72.833151846694207 30.94816289885857 6.9909952227516392 #
edge $-1 $385 1 $385 0 $215 $-1 forward 7 unknown #
vertex $-1 $216 $386 #
ellipse-curve $-1 -71.477052251387377 34.212833706198737 5.6307005202923062 -0.86602541151947299 0 0.49999998660252726 0.24999999330126363 0 0.43301270575973649 1 I I #
point $-1 -72.833151846694207 34.212833706198737 6.9909952227516392 #
plane-surface $-1 75.955687124240853 0 0 -1 0 0 0 0 1 forward_v I I I I #
coedge $-1 $387 $388 $224 $320 forward $220 $-1 #
coedge $-1 $222 $324 $387 $389 forward $139 $-1 #
coedge $-1 $224 $223 $222 $319 reversed $87 $-1 #
edge $-1 $390 -20.099031759827845 $325 -12.481466542700794 $222 $391 forward 7 unknown #
edge $-1 $322 -94.259320201882119 $390 -82.769178757022786 $316 $392 forward 7 unknown #
coedge $-1 $230 $225 $388 $393 reversed $231 $-1 #
vertex $-1 $226 $394 #
straight-curve $-1 75.955687124240853 16.290249151264319 1.5826052803912489 0 1 0 I I #
coedge $-1 $317 $227 $230 $328 forward $139 $-1 #
vertex $-1 $228 $395 #
straight-curve $-1 65.77955621662926 28.771715693965113 11.533359753592507 1 0 0 I I #
straight-curve $-1 2.0352284764157957e-006 28.771715693965113 133.14171567842135 -0.49999998660252726 0 0.86602541151947299 I I #
edge $-1 $232 28.771715693965113 $396 36.389280911092186 $230 $397 forward 7 unknown #
point $-1 75.955687124240853 28.771715693965113 11.533359753592507 #
point $-1 75.955687124240853 28.771715693965113 1.5826052803912773 #
edge $-1 $398 1 $398 0 $235 $-1 forward 7 unknown #
vertex $-1 $236 $399 #
ellipse-curve $-1 71.477052251387391 30.94816289885857 5.6307005202923097 0.86602541151947299 0 0.49999998660252726 0.24999999330126363 0 -0.43301270575973649 1 I I #
point $-1 73.333151833296739 30.94816289885857 6.1249698112321695 #
edge $-1 $400 1 $400 0 $239 $-1 forward 7 unknown #
vertex $-1 $240 $401 #
ellipse-curve $-1 71.477052251387391 34.212833706198737 5.6307005202923097 0.86602541151947299 0 0.49999998660252726 0.24999999330126363 0 -0.43301270575973649 1 I I #
point $-1 73.333151833296739 34.212833706198737 6.1249698112321695 #
plane-surface $-1 75.955687124240853 0 0 -1 0 0 0 0 1 forward_v I I I I #
coedge $-1 $248 $246 $250 $344 reversed $161 $-1 #
edge $-1 $261 -11.533359753592507 $346 11.533359753592507 $260 $402 forward 7 unknown #
vertex $-1 $344 $403 #
straight-curve $-1 -75.955687124240853 -36.389280911092186 0 0 0 -1 I I #
edge $-1 $342 -36.389280911092186 $346 36.389280911092186 $340 $404 forward 7 unknown #
straight-curve $-1 0 -36.389280911092186 -11.533359753592507 -1 0 0 I I #
vertex $-1 $253 $405 #
straight-curve $-1 0 36.389280911092186 -11.533359753592507 1 0 0 I I #
point $-1 75.955687124240853 36.389280911092186 -11.533359753592507 #
point $-1 75.955687124240853 -36.389280911092186 -11.533359753592507 #
straight-curve $-1 -75.955687124240853 0 11.533359753592507 0 -1 0 I I #
point $-1 -75.955687124240853 36.389280911092186 11.533359753592507 #
point $-1 -75.955687124240853 -36.389280911092186 11.533359753592507 #
straight-curve $-1 75.955687124240853 -36.389280911092186 0 0 0 -1 I I #
straight-curve $-1 75.955687124240853 36.389280911092186 0 0 0 -1 I I #
plane-surface $-1 -75.955687124240853 0 0 1 0 0 0 0 -1 forward_v I I I I #
coedge $-1 $358 $367 $362 $406 forward $271 $-1 #
coedge $-1 $274 $273 $407 $408 forward $109 $-1 #
coedge $-1 $407 $356 $275 $359 reversed $271 $-1 #
edge $-1 $360 -75.955687124240853 $363 75.955687124240853 $358 $409 forward 7 unknown #
vertex $-1 $408 $410 #
straight-curve $-1 75.955687124240853 0 -11.533359753592507 0 -1 0 I I #
coedge $-1 $283 $277 $356 $406 reversed $284 $-1 #
vertex $-1 $278 $411 #
straight-curve $-1 -75.955687124240853 0 -11.533359753592507 0 1 0 I I #
point $-1 -75.955687124240853 -36.389280911092186 -11.533359753592507 #
point $-1 75.955687124240853 -36.389280911092186 -11.533359753592507 #
coedge $-1 $356 $407 $286 $368 reversed $271 $-1 #
edge $-1 $369 -75.955687124240853 $371 75.955687124240853 $367 $412 forward 7 unknown #
vertex $-1 $287 $413 #
straight-curve $-1 -75.955687124240853 -42.535903103401544 -7.2744606677281132 0 -1 0 I I #
vertex $-1 $288 $414 #
straight-curve $-1 75.955687124240853 -42.535903103401544 -7.2744606677281132 0 1 0 I I #
coedge $-1 $292 $300 $293 $375 forward $196 $-1 #
edge $-1 $377 -20.099031759827845 $301 -12.481466542700794 $292 $415 forward 7 unknown #
edge $-1 $381 -11.533359753592507 $377 -1.5826052803912916 $293 $416 forward 7 unknown #
edge $-1 $298 70.210616555750065 $381 75.955687124240853 $294 $417 forward 7 unknown #
vertex $-1 $295 $418 #
straight-curve $-1 -66.803870830642666 36.389280911092186 17.434016648756959 -0.49999998660252726 0 -0.86602541151947299 I I #
point $-1 -70.210616555750065 36.389280911092165 11.533359753592507 #
point $-1 -75.955687124240853 28.771715693965113 1.5826052803912916 #
vertex $-1 $376 $419 #
straight-curve $-1 -75.955687124240853 0 11.533359753592507 0 -1 0 I I #
vertex $-1 $307 $420 #
point $-1 -71.227052258086118 30.94816289885857 6.0637132260520428 #
vertex $-1 $311 $421 #
point $-1 -71.227052258086118 34.212833706198737 6.0637132260520428 #
coedge $-1 $388 $316 $317 $389 reversed $220 $-1 #
coedge $-1 $316 $387 $321 $393 forward $220 $-1 #
edge $-1 $396 -75.955687124240853 $390 -70.210616555750065 $387 $422 forward 7 unknown #
vertex $-1 $320 $423 #
straight-curve $-1 70.21061655575005 16.290249151264319 11.533359753592507 0 -1 0 I I #
straight-curve $-1 28.826028286136477 36.389280911092186 83.213571847771988 -0.49999998660252726 0 0.86602541151947299 I I #
edge $-1 $396 -11.533359753592507 $322 -1.5826052803912554 $321 $424 forward 7 unknown #
point $-1 75.955687124240853 36.389280911092186 1.5826052803912554 #
point $-1 70.210616555750065 28.771715693965113 11.533359753592507 #
vertex $-1 $328 $425 #
straight-curve $-1 75.955687124240853 0 11.533359753592507 0 1 0 I I #
vertex $-1 $331 $426 #
point $-1 71.727052244688664 30.94816289885857 5.1976878145325731 #
vertex $-1 $335 $427 #
point $-1 71.727052244688664 34.212833706198737 5.1976878145325731 #
straight-curve $-1 -75.955687124240853 36.389280911092186 0 0 0 -1 I I #
point $-1 -75.955687124240853 -36.389280911092186 -11.533359753592507 #
straight-curve $-1 -75.955687124240853 0 -11.533359753592507 0 1 0 I I #
point $-1 -75.955687124240853 36.389280911092186 -11.533359753592507 #
edge $-1 $369 -2.1294495429321971 $363 2.1294495429321962 $362 $428 forward 7 unknown #
coedge $-1 $367 $358 $357 $408 reversed $271 $-1 #
edge $-1 $371 -2.1294495429321971 $360 2.1294495429321962 $357 $429 forward 7 unknown #
straight-curve $-1 0 -48.682525295710903 -11.533359753592507 -1 0 0 I I #
point $-1 75.955687124240853 -48.682525295710903 -11.533359753592507 #
point $-1 -75.955687124240853 -48.682525295710903 -11.533359753592507 #
straight-curve $-1 0 -48.682525295710903 -7.2744606677281132 1 0 0 I I #
point $-1 -75.955687124240853 -48.682525295710903 -7.2744606677281132 #
point $-1 75.955687124240853 -48.682525295710903 -7.2744606677281132 #
straight-curve $-1 -75.955687124240853 16.290249151264319 1.5826052803912989 0 -1 0 I I #
straight-curve $-1 -75.955687124240853 36.389280911092186 0 0 0 -1 I I #
straight-curve $-1 0 36.389280911092186 11.533359753592507 -1 0 0 I I #
point $-1 -75.955687124240853 36.389280911092165 1.5826052803912916 #
point $-1 -75.955687124240853 36.389280911092186 11.533359753592507 #
point $-1 -71.044039545627655 30.94816289885857 5.3807005269910437 #
point $-1 -71.044039545627655 34.212833706198737 5.3807005269910437 #
straight-curve $-1 0 36.389280911092186 11.533359753592507 -1 0 0 I I #
point $-1 70.210616555750065 36.389280911092165 11.533359753592507 #
straight-curve $-1 75.955687124240853 36.389280911092186 0 0 0 -1 I I #
point $-1 75.955687124240853 36.389280911092186 11.533359753592507 #
point $-1 71.044039545627669 30.94816289885857 5.3807005269910473 #
point $-1 71.044039545627669 34.212833706198737 5.3807005269910473 #
straight-curve $-1 -75.955687124240853 -48.682525295710903 -9.4039102106603103 0 0 -1 I I #
straight-curve $-1 75.955687124240853 -48.682525295710903 -9.4039102106603103 0 0 -1 I I #
End-of-ACIS-data 