500 0 8 0           
7 Unknown 11 ACIS 5.0 NT 24 Thu Mar 25 18:31:40 1999 
-1 9.9999999999999995e-007 1e-010 
body $-1 $8 $-1 $9 #
body $-1 $10 $-1 $11 #
body $-1 $12 $-1 $13 #
body $-1 $14 $-1 $15 #
body $-1 $16 $-1 $17 #
body $-1 $18 $-1 $19 #
body $-1 $20 $-1 $21 #
body $-1 $22 $-1 $23 #
lump $-1 $-1 $24 $0 #
transform $-1 1 0 0 0 1 0 0 0 1 73.997619556260872 48.471184640271026 13.098920865187534 1 rotate no_reflect no_shear #
lump $-1 $-1 $25 $1 #
transform $-1 1 0 0 0 1 0 0 0 1 73.997619556260872 48.471184640271026 13.098920865187534 1 rotate no_reflect no_shear #
lump $-1 $-1 $26 $2 #
transform $-1 1 0 0 0 1 0 0 0 1 73.997619556260872 48.471184640271026 13.098920865187534 1 rotate no_reflect no_shear #
lump $-1 $-1 $27 $3 #
transform $-1 1 0 0 0 1 0 0 0 1 73.997619556260872 48.471184640271026 13.098920865187534 1 rotate no_reflect no_shear #
lump $-1 $-1 $28 $4 #
transform $-1 1 0 0 0 1 0 0 0 1 73.997619556260872 48.471184640271026 13.098920865187534 1 rotate no_reflect no_shear #
lump $-1 $-1 $29 $5 #
transform $-1 1 0 0 0 1 0 0 0 1 73.997619556260872 48.471184640271026 13.098920865187534 1 rotate no_reflect no_shear #
lump $-1 $-1 $30 $6 #
transform $-1 1 0 0 0 1 0 0 0 1 73.997619556260872 48.471184640271026 13.098920865187534 1 rotate no_reflect no_shear #
lump $-1 $-1 $31 $7 #
transform $-1 1 0 0 0 1 0 0 0 1 73.997619556260872 48.471184640271026 13.098920865187534 1 rotate no_reflect no_shear #
shell $-1 $-1 $-1 $32 $-1 $8 #
shell $-1 $-1 $-1 $33 $-1 $10 #
shell $-1 $-1 $-1 $34 $-1 $12 #
shell $-1 $-1 $-1 $35 $-1 $14 #
shell $-1 $-1 $-1 $36 $-1 $16 #
shell $-1 $-1 $-1 $37 $-1 $18 #
shell $-1 $-1 $-1 $38 $-1 $20 #
shell $-1 $-1 $-1 $39 $-1 $22 #
face $-1 $40 $41 $24 $-1 $42 forward single #
face $-1 $43 $44 $25 $-1 $45 reversed single #
face $-1 $46 $47 $26 $-1 $48 reversed single #
face $-1 $49 $50 $27 $-1 $51 forward single #
face $-1 $52 $53 $28 $-1 $54 forward single #
face $-1 $55 $56 $29 $-1 $57 reversed single #
face $-1 $58 $59 $30 $-1 $60 forward single #
face $-1 $61 $62 $31 $-1 $63 forward single #
face $-1 $64 $65 $24 $-1 $66 reversed single #
loop $-1 $-1 $67 $32 #
plane-surface $-1 0 0 13.098920865187534 0 0 1 1 0 0 forward_v I I I I #
face $-1 $68 $69 $25 $-1 $70 reversed single #
loop $-1 $-1 $71 $33 #
plane-surface $-1 -65.455889494216464 -25.407857467345082 0 0 1 0 0 0 1 forward_v I I I I #
face $-1 $72 $73 $26 $-1 $74 reversed single #
loop $-1 $-1 $75 $34 #
plane-surface $-1 -56.914159432172056 119.79183980243599 163.25940248058222 1 0 0 0 -0.83867057594974714 -0.54463902268945019 forward_v I I I I #
face $-1 $76 $77 $27 $-1 $78 forward single #
loop $-1 $79 $80 $35 #
cone-surface $-1 -47.91107451607904 40.789839777912974 4.7143570635521463 0 -0.83867057594974714 -0.54463902268945019 2.5 0 0 1 I I 0 1 2.5 forward I I I I #
face $-1 $81 $82 $28 $-1 $83 forward single #
loop $-1 $84 $85 $36 #
cone-surface $-1 -34.406447141939523 40.789839777912974 4.7143570635521463 0 -0.83867057594974714 -0.54463902268945019 2.5 0 0 1 I I 0 1 2.5 forward I I I I #
face $-1 $86 $87 $29 $-1 $88 reversed single #
loop $-1 $-1 $89 $37 #
plane-surface $-1 -11.351829431070069 -141.60760754860488 118.1347752813606 -1 0 0 0 -0.62932039886446345 0.77714595512881146 forward_v I I I I #
face $-1 $90 $91 $30 $-1 $92 forward single #
loop $-1 $93 $94 $38 #
cone-surface $-1 -21.35845964315061 -40.902690303446498 6.3717012108451829 0 0.62932039886446345 -0.77714595512881146 2 0 0 1 I I 0 1 2 forward I I I I #
face $-1 $95 $96 $31 $-1 $97 forward single #
loop $-1 $98 $99 $39 #
cone-surface $-1 -15.354481515902286 -40.902690303446498 6.3717012108451829 0 0.62932039886446345 -0.77714595512881146 2 0 0 1 I I 0 1 2 forward I I I I #
face $-1 $100 $101 $24 $-1 $102 reversed single #
loop $-1 $-1 $103 $40 #
plane-surface $-1 0 0 -13.098920865187534 0 0 1 1 0 0 forward_v I I I I #
coedge $-1 $104 $105 $106 $107 forward $41 $-1 #
face $-1 $108 $109 $25 $-1 $110 reversed single #
loop $-1 $-1 $111 $43 #
plane-surface $-1 -65.455889494216464 -22.273342909895959 0 0 -1 0 0 0 -1 forward_v I I I I #
coedge $-1 $112 $113 $114 $115 reversed $44 $-1 #
face $-1 $116 $117 $26 $-1 $118 reversed single #
loop $-1 $-1 $119 $46 #
plane-surface $-1 -41.158760829009282 -4.3274126218831697 82.655420087646888 0 0.83867057594974714 0.54463902268945019 1 0 0 forward_v I I I I #
coedge $-1 $120 $121 $122 $123 reversed $47 $-1 #
face $-1 $-1 $124 $27 $-1 $125 forward single #
loop $-1 $126 $127 $49 #
cone-surface $-1 -47.91107451607904 35.87419667771983 1.5221012115479233 0 -0.83867057594974714 -0.54463902268945019 1.25 0 0 1 I I -0.70710678118654746 0.70710678118654746 1.25 forward I I I I #
loop $-1 $-1 $128 $35 #
coedge $-1 $80 $80 $129 $130 reversed $50 $-1 #
face $-1 $-1 $131 $28 $-1 $132 forward single #
loop $-1 $133 $134 $52 #
cone-surface $-1 -34.406447141939523 35.87419667771983 1.5221012115479233 0 -0.83867057594974714 -0.54463902268945019 1.25 0 0 1 I I -0.70710678118654746 0.70710678118654746 1.25 forward I I I I #
loop $-1 $-1 $135 $36 #
coedge $-1 $85 $85 $136 $137 reversed $53 $-1 #
face $-1 $138 $139 $29 $-1 $140 reversed single #
loop $-1 $-1 $141 $55 #
plane-surface $-1 -18.356470579526444 -48.471184640271048 3.1208738267430505 0 -0.62932039886446345 0.77714595512881146 1 0 0 forward_v I I I I #
coedge $-1 $142 $143 $144 $145 reversed $56 $-1 #
face $-1 $-1 $146 $30 $-1 $147 forward single #
loop $-1 $148 $149 $58 #
cone-surface $-1 -21.35845964315061 -38.865806398860464 3.8563591205962702 0 0.62932039886446345 -0.77714595512881146 1 0 0 1 I I -0.70710678118654746 0.70710678118654746 1 forward I I I I #
loop $-1 $-1 $150 $38 #
coedge $-1 $94 $94 $151 $152 reversed $59 $-1 #
face $-1 $-1 $153 $31 $-1 $154 forward single #
loop $-1 $155 $156 $61 #
cone-surface $-1 -15.354481515902286 -38.865806398860464 3.8563591205962702 0 0.62932039886446345 -0.77714595512881146 1 0 0 1 I I -0.70710678118654746 0.70710678118654746 1 forward I I I I #
loop $-1 $-1 $157 $39 #
coedge $-1 $99 $99 $158 $159 reversed $62 $-1 #
face $-1 $160 $161 $24 $-1 $162 reversed single #
loop $-1 $-1 $163 $64 #
plane-surface $-1 0 -48.471184640271026 0 0 1 0 0 0 1 forward_v I I I I #
coedge $-1 $164 $165 $166 $167 forward $65 $-1 #
coedge $-1 $168 $67 $169 $170 forward $41 $-1 #
coedge $-1 $67 $168 $171 $172 forward $41 $-1 #
coedge $-1 $173 $174 $67 $107 reversed $175 $-1 #
edge $-1 $176 -48.471184640271026 $177 48.471184640271026 $106 $178 forward 7 unknown #
face $-1 $179 $180 $25 $-1 $181 reversed single #
loop $-1 $-1 $182 $68 #
plane-surface $-1 -56.914159432172056 -23.84060018862052 0 -1 0 0 0 0 1 forward_v I I I I #
coedge $-1 $183 $184 $185 $186 forward $69 $-1 #
coedge $-1 $187 $71 $188 $189 reversed $44 $-1 #
coedge $-1 $71 $187 $190 $191 reversed $44 $-1 #
coedge $-1 $192 $193 $71 $115 forward $194 $-1 #
edge $-1 $195 -13.098920865187534 $196 13.098920865187534 $114 $197 forward 7 unknown #
face $-1 $198 $199 $26 $-1 $200 reversed single #
loop $-1 $-1 $201 $72 #
plane-surface $-1 -25.403362225846507 119.79183980243599 163.25940248058222 -1 0 0 0 0.83867057594974714 0.54463902268945019 forward_v I I I I #
coedge $-1 $202 $203 $204 $205 reversed $73 $-1 #
coedge $-1 $121 $75 $206 $207 reversed $47 $-1 #
coedge $-1 $75 $120 $202 $208 reversed $47 $-1 #
coedge $-1 $204 $209 $75 $123 forward $210 $-1 #
edge $-1 $211 11.424735260946967 $212 19.052815225151143 $122 $213 forward 7 unknown #
loop $-1 $-1 $129 $76 #
plane-surface $-1 -41.158760829009282 -4.3274126218831697 82.655420087646888 0 0.83867057594974714 0.54463902268945019 1 0 0 forward_v I I I I #
loop $-1 $-1 $214 $49 #
coedge $-1 $127 $127 $128 $215 reversed $77 $-1 #
coedge $-1 $128 $128 $127 $215 forward $79 $-1 #
coedge $-1 $129 $129 $80 $130 forward $124 $-1 #
edge $-1 $216 4.7955330315323971e-016 $216 6.2831853071796013 $129 $217 forward 7 unknown #
loop $-1 $-1 $136 $81 #
plane-surface $-1 -41.158760829009282 -4.3274126218831697 82.655420087646888 0 0.83867057594974714 0.54463902268945019 1 0 0 forward_v I I I I #
loop $-1 $-1 $218 $52 #
coedge $-1 $134 $134 $135 $219 reversed $82 $-1 #
coedge $-1 $135 $135 $134 $219 forward $84 $-1 #
coedge $-1 $136 $136 $85 $137 forward $131 $-1 #
edge $-1 $220 4.7955330315323971e-016 $220 6.2831853071796013 $136 $221 forward 7 unknown #
face $-1 $222 $223 $29 $-1 $224 forward single #
loop $-1 $-1 $225 $86 #
plane-surface $-1 -25.36111172798282 -141.60760754860488 118.1347752813606 1 0 0 0 0.62932039886446345 -0.77714595512881146 forward_v I I I I #
coedge $-1 $226 $227 $228 $229 reversed $87 $-1 #
coedge $-1 $143 $89 $230 $231 reversed $56 $-1 #
coedge $-1 $89 $142 $226 $232 reversed $56 $-1 #
coedge $-1 $228 $233 $89 $145 forward $223 $-1 #
edge $-1 $234 22.332619134031411 $235 34.654480796237273 $144 $236 forward 7 unknown #
loop $-1 $-1 $151 $90 #
plane-surface $-1 -18.356470579526444 -48.471184640271048 3.1208738267430505 0 -0.62932039886446345 0.77714595512881146 1 0 0 forward_v I I I I #
loop $-1 $-1 $237 $58 #
coedge $-1 $149 $149 $150 $238 reversed $91 $-1 #
coedge $-1 $150 $150 $149 $238 forward $93 $-1 #
coedge $-1 $151 $151 $94 $152 forward $146 $-1 #
edge $-1 $239 -1.7443802351091741e-015 $239 6.2831853071795987 $151 $240 forward 7 unknown #
loop $-1 $-1 $158 $95 #
plane-surface $-1 -18.356470579526444 -48.471184640271048 3.1208738267430505 0 -0.62932039886446345 0.77714595512881146 1 0 0 forward_v I I I I #
loop $-1 $-1 $241 $61 #
coedge $-1 $156 $156 $157 $242 reversed $96 $-1 #
coedge $-1 $157 $157 $156 $242 forward $98 $-1 #
coedge $-1 $158 $158 $99 $159 forward $153 $-1 #
edge $-1 $243 -1.7443802351091741e-015 $243 6.2831853071795987 $158 $244 forward 7 unknown #
face $-1 $245 $246 $24 $-1 $247 reversed single #
loop $-1 $-1 $248 $100 #
plane-surface $-1 -73.997619556260872 0 0 1 0 0 0 0 -1 forward_v I I I I #
coedge $-1 $249 $171 $250 $251 forward $101 $-1 #
coedge $-1 $252 $103 $249 $253 forward $65 $-1 #
coedge $-1 $103 $252 $254 $255 forward $65 $-1 #
coedge $-1 $174 $173 $103 $167 reversed $175 $-1 #
edge $-1 $256 -48.471184640271026 $257 48.471184640271026 $166 $258 forward 7 unknown #
coedge $-1 $105 $104 $259 $260 forward $41 $-1 #
coedge $-1 $261 $262 $104 $170 reversed $246 $-1 #
edge $-1 $177 -73.997619556260872 $263 73.997619556260872 $169 $264 forward 7 unknown #
coedge $-1 $163 $265 $105 $172 reversed $101 $-1 #
edge $-1 $266 -73.997619556260872 $176 73.997619556260872 $171 $267 forward 7 unknown #
coedge $-1 $166 $106 $265 $268 forward $175 $-1 #
coedge $-1 $106 $166 $261 $269 reversed $175 $-1 #
loop $-1 $-1 $173 $245 #
vertex $-1 $107 $270 #
vertex $-1 $107 $271 #
straight-curve $-1 73.997619556260872 0 13.098920865187534 0 1 0 I I #
face $-1 $272 $273 $25 $-1 $274 forward single #
loop $-1 $-1 $275 $108 #
plane-surface $-1 0 0 -13.098920865187534 0 0 1 1 0 0 forward_v I I I I #
coedge $-1 $276 $277 $187 $278 forward $109 $-1 #
coedge $-1 $279 $111 $275 $280 reversed $69 $-1 #
coedge $-1 $111 $279 $281 $282 reversed $69 $-1 #
coedge $-1 $277 $276 $111 $186 reversed $109 $-1 #
edge $-1 $283 -13.098920865187534 $284 13.098920865187534 $185 $285 forward 7 unknown #
coedge $-1 $113 $112 $182 $278 reversed $44 $-1 #
coedge $-1 $286 $287 $112 $189 forward $180 $-1 #
edge $-1 $288 24.186214685063824 $195 41.26967480915264 $188 $289 forward 7 unknown #
coedge $-1 $290 $291 $113 $191 forward $273 $-1 #
edge $-1 $196 -41.26967480915264 $292 -24.186214685063824 $190 $293 forward 7 unknown #
coedge $-1 $294 $114 $291 $295 reversed $194 $-1 #
coedge $-1 $114 $294 $286 $296 reversed $194 $-1 #
loop $-1 $-1 $294 $272 #
vertex $-1 $296 $297 #
vertex $-1 $115 $298 #
straight-curve $-1 -73.997619556260872 -25.407857467345082 0 0 0 1 I I #
face $-1 $-1 $210 $26 $-1 $299 forward single #
loop $-1 $-1 $300 $116 #
plane-surface $-1 0 48.471184640271026 0 0 -1 0 0 0 -1 forward_v I I I I #
coedge $-1 $301 $302 $303 $304 reversed $117 $-1 #
coedge $-1 $305 $119 $121 $208 forward $73 $-1 #
coedge $-1 $119 $305 $301 $306 forward $73 $-1 #
coedge $-1 $303 $122 $119 $205 forward $210 $-1 #
edge $-1 $212 -36.334779017667415 $307 -4.8239818113418664 $204 $308 forward 7 unknown #
coedge $-1 $309 $310 $120 $207 forward $199 $-1 #
edge $-1 $311 -80.276993831089484 $211 -68.530780375103575 $206 $312 forward 7 unknown #
edge $-1 $212 82.936615659480523 $311 96.942369280542039 $121 $313 forward 7 unknown #
coedge $-1 $122 $303 $309 $314 forward $210 $-1 #
loop $-1 $-1 $303 $198 #
vertex $-1 $207 $315 #
vertex $-1 $123 $316 #
straight-curve $-1 -56.914159432172056 59.895919901217994 13.098920865187537 0 -1 0 I I #
coedge $-1 $214 $214 $-1 $317 reversed $126 $-1 #
edge $-1 $318 0 $318 6.2831853071796004 $127 $319 forward 7 unknown #
vertex $-1 $130 $320 #
ellipse-curve $-1 -47.91107451607904 44.657144658168946 7.2258141371945666 0 0.83867057594974714 0.54463902268945019 2.5 0 0 1 I I #
coedge $-1 $218 $218 $-1 $321 reversed $133 $-1 #
edge $-1 $322 0 $322 6.2831853071796004 $134 $323 forward 7 unknown #
vertex $-1 $137 $324 #
ellipse-curve $-1 -34.406447141939523 44.657144658168946 7.2258141371945666 0 0.83867057594974714 0.54463902268945019 2.5 0 0 1 I I #
face $-1 $-1 $325 $29 $-1 $326 reversed single #
loop $-1 $-1 $144 $138 #
plane-surface $-1 0 0 13.098920865187534 0 0 1 1 0 0 forward_v I I I I #
coedge $-1 $327 $328 $329 $330 reversed $139 $-1 #
coedge $-1 $331 $141 $143 $232 forward $87 $-1 #
coedge $-1 $141 $331 $327 $332 forward $87 $-1 #
coedge $-1 $329 $144 $141 $229 forward $223 $-1 #
edge $-1 $235 2.1735941413068467 $333 16.182876438219598 $228 $334 forward 7 unknown #
coedge $-1 $335 $336 $142 $231 forward $325 $-1 #
edge $-1 $337 -55.946513813937237 $234 -45.968466775492772 $230 $338 forward 7 unknown #
edge $-1 $235 -15.855273492562336 $337 -2.7465363939559239e-014 $143 $339 forward 7 unknown #
coedge $-1 $144 $329 $335 $340 forward $223 $-1 #
vertex $-1 $231 $341 #
vertex $-1 $145 $342 #
straight-curve $-1 -11.351829431070069 -70.803803774302438 13.098920865187537 0 1 0 I I #
coedge $-1 $237 $237 $-1 $343 reversed $148 $-1 #
edge $-1 $344 0 $344 6.2831853071796004 $149 $345 forward 7 unknown #
vertex $-1 $152 $346 #
ellipse-curve $-1 -21.35845964315061 -42.310253809168088 8.1098973459653063 0 -0.62932039886446345 0.77714595512881146 2 0 0 1 I I #
coedge $-1 $241 $241 $-1 $347 reversed $155 $-1 #
edge $-1 $348 0 $348 6.2831853071796004 $156 $349 forward 7 unknown #
vertex $-1 $159 $350 #
ellipse-curve $-1 -15.354481515902286 -42.310253809168088 8.1098973459653063 0 -0.62932039886446345 0.77714595512881146 2 0 0 1 I I #
face $-1 $-1 $175 $24 $-1 $351 reversed single #
loop $-1 $-1 $261 $160 #
plane-surface $-1 0 48.471184640271026 0 0 -1 0 0 0 -1 forward_v I I I I #
coedge $-1 $352 $259 $262 $353 forward $161 $-1 #
coedge $-1 $265 $163 $164 $253 reversed $101 $-1 #
coedge $-1 $259 $352 $163 $251 reversed $161 $-1 #
edge $-1 $266 -13.098920865187534 $354 13.098920865187534 $250 $355 forward 7 unknown #
coedge $-1 $165 $164 $352 $356 forward $65 $-1 #
edge $-1 $257 -73.997619556260872 $354 73.997619556260872 $249 $357 forward 7 unknown #
coedge $-1 $262 $261 $165 $255 reversed $246 $-1 #
edge $-1 $358 -73.997619556260872 $256 73.997619556260872 $254 $359 forward 7 unknown #
vertex $-1 $167 $360 #
vertex $-1 $268 $361 #
straight-curve $-1 73.997619556260872 0 -13.098920865187534 0 -1 0 I I #
coedge $-1 $248 $250 $168 $260 reversed $161 $-1 #
edge $-1 $263 -48.471184640271026 $266 48.471184640271026 $259 $362 forward 7 unknown #
coedge $-1 $254 $169 $174 $269 forward $246 $-1 #
coedge $-1 $169 $254 $248 $353 reversed $246 $-1 #
vertex $-1 $170 $363 #
straight-curve $-1 0 48.471184640271026 13.098920865187534 -1 0 0 I I #
coedge $-1 $171 $249 $173 $268 reversed $101 $-1 #
vertex $-1 $260 $364 #
straight-curve $-1 0 -48.471184640271026 13.098920865187534 1 0 0 I I #
edge $-1 $176 -13.098920865187534 $257 13.098920865187534 $173 $365 forward 7 unknown #
edge $-1 $177 -13.098920865187534 $256 13.098920865187534 $174 $366 forward 7 unknown #
point $-1 73.997619556260872 -48.471184640271026 13.098920865187534 #
point $-1 73.997619556260872 48.471184640271026 13.098920865187534 #
face $-1 $-1 $194 $25 $-1 $367 reversed single #
loop $-1 $-1 $281 $179 #
plane-surface $-1 0 0 13.098920865187534 0 0 1 1 0 0 forward_v I I I I #
coedge $-1 $287 $286 $183 $280 forward $180 $-1 #
coedge $-1 $185 $182 $287 $368 reversed $109 $-1 #
coedge $-1 $182 $185 $290 $369 reversed $109 $-1 #
edge $-1 $292 -13.098920865187534 $288 13.098920865187534 $182 $370 forward 7 unknown #
coedge $-1 $184 $183 $294 $371 reversed $69 $-1 #
edge $-1 $372 -41.26967480915264 $284 -24.186214685063824 $275 $373 forward 7 unknown #
coedge $-1 $291 $290 $184 $282 forward $273 $-1 #
edge $-1 $283 24.186214685063824 $374 41.26967480915264 $281 $375 forward 7 unknown #
vertex $-1 $282 $376 #
vertex $-1 $280 $377 #
straight-curve $-1 -56.914159432172056 -22.273342909895959 0 0 0 -1 I I #
coedge $-1 $275 $188 $193 $296 forward $180 $-1 #
coedge $-1 $188 $275 $276 $368 forward $180 $-1 #
vertex $-1 $189 $378 #
straight-curve $-1 -32.727944747108232 -25.407857467345082 -13.098920865187534 -1 0 0 I I #
coedge $-1 $281 $190 $277 $369 forward $273 $-1 #
coedge $-1 $190 $281 $192 $295 forward $273 $-1 #
vertex $-1 $191 $379 #
straight-curve $-1 -32.727944747108232 -25.407857467345082 13.098920865187534 1 0 0 I I #
coedge $-1 $193 $192 $279 $371 forward $194 $-1 #
edge $-1 $374 22.273342909895959 $196 25.407857467345082 $192 $380 forward 7 unknown #
edge $-1 $195 -25.407857467345082 $372 -22.273342909895959 $193 $381 forward 7 unknown #
point $-1 -73.997619556260872 -25.407857467345082 -13.098920865187534 #
point $-1 -73.997619556260872 -25.407857467345082 13.098920865187534 #
plane-surface $-1 0 0 13.098920865187534 0 0 1 1 0 0 forward_v I I I I #
coedge $-1 $310 $309 $302 $382 forward $199 $-1 #
coedge $-1 $302 $201 $203 $306 reversed $117 $-1 #
coedge $-1 $201 $301 $300 $382 reversed $117 $-1 #
coedge $-1 $209 $204 $201 $304 forward $210 $-1 #
edge $-1 $307 -19.052815225151143 $383 -11.424735260946967 $303 $384 forward 7 unknown #
coedge $-1 $203 $202 $310 $385 reversed $73 $-1 #
edge $-1 $386 -96.942369280542039 $307 -82.936615659480523 $301 $387 forward 7 unknown #
vertex $-1 $205 $388 #
straight-curve $-1 -20.579380414504641 40.843104676066858 13.098920865187537 1 0 0 I I #
coedge $-1 $300 $206 $209 $314 reversed $199 $-1 #
coedge $-1 $206 $300 $305 $385 forward $199 $-1 #
vertex $-1 $207 $389 #
straight-curve $-1 -56.914159432172056 48.471184640271026 81.629701240291112 0 0 1 I I #
straight-curve $-1 -56.914159432172056 -4.3274126218831697 82.655420087646888 0 0.54463902268945019 -0.83867057594974714 I I #
edge $-1 $383 25.403362225846507 $211 56.914159432172056 $309 $390 forward 7 unknown #
point $-1 -56.914159432172056 48.471184640271026 13.098920865187534 #
point $-1 -56.914159432172056 40.843104676066851 13.098920865187537 #
edge $-1 $391 1 $391 0 $214 $-1 forward 7 unknown #
vertex $-1 $215 $392 #
ellipse-curve $-1 -47.91107451607904 36.922534897657016 2.2028999899097359 0 0.83867057594974714 0.54463902268945019 2.5 0 0 1 I I #
point $-1 -45.41107451607904 44.657144658168932 7.2258141371945559 #
edge $-1 $393 1 $393 0 $218 $-1 forward 7 unknown #
vertex $-1 $219 $394 #
ellipse-curve $-1 -34.406447141939523 36.922534897657016 2.2028999899097359 0 0.83867057594974714 0.54463902268945019 2.5 0 0 1 I I #
point $-1 -31.906447141939523 44.657144658168932 7.2258141371945559 #
loop $-1 $-1 $230 $222 #
plane-surface $-1 0 -48.471184640271026 0 0 1 0 0 0 1 forward_v I I I I #
coedge $-1 $328 $225 $227 $332 reversed $139 $-1 #
coedge $-1 $225 $327 $395 $396 reversed $139 $-1 #
coedge $-1 $233 $228 $225 $330 forward $223 $-1 #
edge $-1 $333 -34.654480796237273 $397 -22.332619134031411 $329 $398 forward 7 unknown #
coedge $-1 $227 $226 $336 $399 reversed $87 $-1 #
edge $-1 $400 2.7465363939559239e-014 $333 15.855273492562336 $327 $401 forward 7 unknown #
vertex $-1 $229 $402 #
straight-curve $-1 -9.1782352897632222 -36.149322978065165 13.098920865187534 -1 0 0 I I #
coedge $-1 $395 $230 $233 $340 reversed $325 $-1 #
coedge $-1 $230 $395 $331 $399 forward $325 $-1 #
vertex $-1 $231 $403 #
straight-curve $-1 -11.351829431070069 -48.471184640271026 59.067387640680302 0 0 1 I I #
straight-curve $-1 -11.351829431070069 -48.471184640271048 3.1208738267430505 0 -0.77714595512881146 -0.62932039886446345 I I #
edge $-1 $397 -25.36111172798282 $234 -11.351829431070069 $335 $404 forward 7 unknown #
point $-1 -11.351829431070069 -48.471184640271026 13.098920865187534 #
point $-1 -11.351829431070069 -36.149322978065165 13.098920865187534 #
edge $-1 $405 1 $405 0 $237 $-1 forward 7 unknown #
vertex $-1 $238 $406 #
ellipse-curve $-1 -21.35845964315061 -39.495126797724929 4.6335050757250817 0 -0.62932039886446345 0.77714595512881146 2 0 0 1 I I #
point $-1 -19.35845964315061 -42.310253809168074 8.1098973459652832 #
edge $-1 $407 1 $407 0 $241 $-1 forward 7 unknown #
vertex $-1 $242 $408 #
ellipse-curve $-1 -15.354481515902286 -39.495126797724929 4.6335050757250817 0 -0.62932039886446345 0.77714595512881146 2 0 0 1 I I #
point $-1 -13.354481515902286 -42.310253809168074 8.1098973459652832 #
plane-surface $-1 73.997619556260872 0 0 -1 0 0 0 0 1 forward_v I I I I #
coedge $-1 $250 $248 $252 $356 reversed $161 $-1 #
edge $-1 $263 -13.098920865187534 $358 13.098920865187534 $262 $409 forward 7 unknown #
vertex $-1 $356 $410 #
straight-curve $-1 -73.997619556260872 -48.471184640271026 0 0 0 -1 I I #
edge $-1 $354 -48.471184640271026 $358 48.471184640271026 $352 $411 forward 7 unknown #
straight-curve $-1 0 -48.471184640271026 -13.098920865187534 -1 0 0 I I #
vertex $-1 $255 $412 #
straight-curve $-1 0 48.471184640271026 -13.098920865187534 1 0 0 I I #
point $-1 73.997619556260872 48.471184640271026 -13.098920865187534 #
point $-1 73.997619556260872 -48.471184640271026 -13.098920865187534 #
straight-curve $-1 -73.997619556260872 0 13.098920865187534 0 -1 0 I I #
point $-1 -73.997619556260872 48.471184640271026 13.098920865187534 #
point $-1 -73.997619556260872 -48.471184640271026 13.098920865187534 #
straight-curve $-1 73.997619556260872 -48.471184640271026 0 0 0 -1 I I #
straight-curve $-1 73.997619556260872 48.471184640271026 0 0 0 -1 I I #
plane-surface $-1 -73.997619556260872 0 0 1 0 0 0 0 -1 forward_v I I I I #
edge $-1 $284 10.353042815585699 $288 13.487557373034821 $287 $413 forward 7 unknown #
edge $-1 $292 -13.487557373034821 $283 -10.353042815585699 $290 $414 forward 7 unknown #
straight-curve $-1 -56.914159432172056 -25.407857467345082 0 0 0 -1 I I #
edge $-1 $374 -13.098920865187534 $372 13.098920865187534 $294 $415 forward 7 unknown #
vertex $-1 $371 $416 #
straight-curve $-1 -32.727944747108232 -22.273342909895959 -13.098920865187534 1 0 0 I I #
vertex $-1 $295 $417 #
straight-curve $-1 -32.727944747108232 -22.273342909895959 13.098920865187534 -1 0 0 I I #
point $-1 -56.914159432172056 -22.273342909895959 13.098920865187534 #
point $-1 -56.914159432172056 -22.273342909895959 -13.098920865187534 #
point $-1 -56.914159432172056 -25.407857467345082 -13.098920865187534 #
point $-1 -56.914159432172056 -25.407857467345082 13.098920865187534 #
straight-curve $-1 -73.997619556260872 0 13.098920865187534 0 -1 0 I I #
straight-curve $-1 -73.997619556260872 0 -13.098920865187534 0 1 0 I I #
edge $-1 $383 68.530780375103575 $386 80.276993831089484 $300 $418 forward 7 unknown #
vertex $-1 $314 $419 #
straight-curve $-1 -25.403362225846507 59.895919901217994 13.098920865187537 0 1 0 I I #
edge $-1 $386 4.8239818113418664 $311 36.334779017667415 $310 $420 forward 7 unknown #
vertex $-1 $385 $421 #
straight-curve $-1 -25.403362225846507 -4.3274126218831697 82.655420087646888 0 -0.54463902268945019 0.83867057594974714 I I #
point $-1 -25.403362225846507 40.843104676066851 13.098920865187537 #
point $-1 -56.914159432172056 48.471184640271026 1.3527074092016278 #
straight-curve $-1 0 48.471184640271026 13.098920865187534 -1 0 0 I I #
vertex $-1 $317 $422 #
point $-1 -45.41107451607904 36.922534897657016 2.2028999899097359 #
vertex $-1 $321 $423 #
point $-1 -31.906447141939523 36.922534897657016 2.2028999899097359 #
coedge $-1 $336 $335 $328 $396 forward $325 $-1 #
edge $-1 $397 45.968466775492772 $400 55.946513813937237 $395 $424 forward 7 unknown #
vertex $-1 $340 $425 #
straight-curve $-1 -25.36111172798282 -70.803803774302438 13.098920865187537 0 -1 0 I I #
edge $-1 $400 -16.182876438219598 $337 -2.1735941413068467 $336 $426 forward 7 unknown #
vertex $-1 $399 $427 #
straight-curve $-1 -25.36111172798282 -48.471184640271048 3.1208738267430505 0 0.77714595512881146 0.62932039886446345 I I #
point $-1 -25.36111172798282 -36.149322978065165 13.098920865187534 #
point $-1 -11.351829431070069 -48.471184640271026 3.1208738267430678 #
straight-curve $-1 0 -48.471184640271026 13.098920865187534 1 0 0 I I #
vertex $-1 $343 $428 #
point $-1 -19.35845964315061 -39.495126797724929 4.6335050757250817 #
vertex $-1 $347 $429 #
point $-1 -13.354481515902286 -39.495126797724929 4.6335050757250817 #
straight-curve $-1 -73.997619556260872 48.471184640271026 0 0 0 -1 I I #
point $-1 -73.997619556260872 -48.471184640271026 -13.098920865187534 #
straight-curve $-1 -73.997619556260872 0 -13.098920865187534 0 1 0 I I #
point $-1 -73.997619556260872 48.471184640271026 -13.098920865187534 #
straight-curve $-1 -56.914159432172056 -11.92030009431026 -13.098920865187534 0 -1 0 I I #
straight-curve $-1 -56.914159432172056 -11.92030009431026 13.098920865187534 0 1 0 I I #
straight-curve $-1 -73.997619556260872 -22.273342909895959 0 0 0 -1 I I #
point $-1 -73.997619556260872 -22.273342909895959 -13.098920865187534 #
point $-1 -73.997619556260872 -22.273342909895959 13.098920865187534 #
straight-curve $-1 -25.403362225846507 48.471184640271026 81.629701240291112 0 0 -1 I I #
point $-1 -25.403362225846507 48.471184640271026 13.098920865187534 #
straight-curve $-1 -20.579380414504641 48.471184640271026 1.3527074092016207 -1 0 0 I I #
point $-1 -25.403362225846507 48.471184640271026 1.3527074092016278 #
point $-1 -47.91107451607904 34.825858457782644 0.84130243318611053 #
point $-1 -34.406447141939523 34.825858457782644 0.84130243318611053 #
straight-curve $-1 -25.36111172798282 -48.471184640271026 59.067387640680302 0 0 -1 I I #
point $-1 -25.36111172798282 -48.471184640271026 13.098920865187534 #
straight-curve $-1 -9.1782352897632222 -48.471184640271026 3.1208738267430638 1 0 0 I I #
point $-1 -25.36111172798282 -48.471184640271026 3.1208738267430678 #
point $-1 -21.35845964315061 -38.236485999995999 3.0792131654674586 #
point $-1 -15.354481515902286 -38.236485999995999 3.0792131654674586 #
End-of-ACIS-data 