500 0 16 0           
7 Unknown 11 ACIS 5.0 NT 24 Fri Mar 26 18:30:03 1999 
-1 9.9999999999999995e-007 1e-010 
body $-1 $16 $-1 $17 #
body $-1 $18 $-1 $19 #
body $-1 $20 $-1 $21 #
body $-1 $22 $-1 $23 #
body $-1 $24 $-1 $25 #
body $-1 $26 $-1 $27 #
body $-1 $28 $-1 $29 #
body $-1 $30 $-1 $31 #
body $-1 $32 $-1 $33 #
body $-1 $34 $-1 $35 #
body $-1 $36 $-1 $37 #
body $-1 $38 $-1 $39 #
body $-1 $40 $-1 $41 #
body $-1 $42 $-1 $43 #
body $-1 $44 $-1 $45 #
body $-1 $46 $-1 $47 #
lump $-1 $-1 $48 $0 #
transform $-1 1 0 0 0 1 0 0 0 1 41.085238196966458 22.469175343779991 5.9478479292238795 1 rotate no_reflect no_shear #
lump $-1 $-1 $49 $1 #
transform $-1 1 0 0 0 1 0 0 0 1 41.085238196966458 22.469175343779991 5.9478479292238795 1 rotate no_reflect no_shear #
lump $-1 $-1 $50 $2 #
transform $-1 1 0 0 0 1 0 0 0 1 41.085238196966458 22.469175343779991 5.9478479292238795 1 rotate no_reflect no_shear #
lump $-1 $-1 $51 $3 #
transform $-1 1 0 0 0 1 0 0 0 1 41.085238196966458 22.469175343779991 5.9478479292238795 1 rotate no_reflect no_shear #
lump $-1 $-1 $52 $4 #
transform $-1 1 0 0 0 1 0 0 0 1 41.085238196966458 22.469175343779991 5.9478479292238795 1 rotate no_reflect no_shear #
lump $-1 $-1 $53 $5 #
transform $-1 1 0 0 0 1 0 0 0 1 41.085238196966458 22.469175343779991 5.9478479292238795 1 rotate no_reflect no_shear #
lump $-1 $-1 $54 $6 #
transform $-1 1 0 0 0 1 0 0 0 1 41.085238196966458 22.469175343779991 5.9478479292238795 1 rotate no_reflect no_shear #
lump $-1 $-1 $55 $7 #
transform $-1 1 0 0 0 1 0 0 0 1 41.085238196966458 22.469175343779991 5.9478479292238795 1 rotate no_reflect no_shear #
lump $-1 $-1 $56 $8 #
transform $-1 1 0 0 0 1 0 0 0 1 41.085238196966458 22.469175343779991 5.9478479292238795 1 rotate no_reflect no_shear #
lump $-1 $-1 $57 $9 #
transform $-1 1 0 0 0 1 0 0 0 1 41.085238196966458 22.469175343779991 5.9478479292238795 1 rotate no_reflect no_shear #
lump $-1 $-1 $58 $10 #
transform $-1 1 0 0 0 1 0 0 0 1 41.085238196966458 22.469175343779991 5.9478479292238795 1 rotate no_reflect no_shear #
lump $-1 $-1 $59 $11 #
transform $-1 1 0 0 0 1 0 0 0 1 41.085238196966458 22.469175343779991 5.9478479292238795 1 rotate no_reflect no_shear #
lump $-1 $-1 $60 $12 #
transform $-1 1 0 0 0 1 0 0 0 1 41.085238196966458 22.469175343779991 5.9478479292238795 1 rotate no_reflect no_shear #
lump $-1 $-1 $61 $13 #
transform $-1 1 0 0 0 1 0 0 0 1 41.085238196966458 22.469175343779991 5.9478479292238795 1 rotate no_reflect no_shear #
lump $-1 $-1 $62 $14 #
transform $-1 1 0 0 0 1 0 0 0 1 41.085238196966458 22.469175343779991 5.9478479292238795 1 rotate no_reflect no_shear #
lump $-1 $-1 $63 $15 #
transform $-1 1 0 0 0 1 0 0 0 1 41.085238196966458 22.469175343779991 5.9478479292238795 1 rotate no_reflect no_shear #
shell $-1 $-1 $-1 $64 $-1 $16 #
shell $-1 $-1 $-1 $65 $-1 $18 #
shell $-1 $-1 $-1 $66 $-1 $20 #
shell $-1 $-1 $-1 $67 $-1 $22 #
shell $-1 $-1 $-1 $68 $-1 $24 #
shell $-1 $-1 $-1 $69 $-1 $26 #
shell $-1 $-1 $-1 $70 $-1 $28 #
shell $-1 $-1 $-1 $71 $-1 $30 #
shell $-1 $-1 $-1 $72 $-1 $32 #
shell $-1 $-1 $-1 $73 $-1 $34 #
shell $-1 $-1 $-1 $74 $-1 $36 #
shell $-1 $-1 $-1 $75 $-1 $38 #
shell $-1 $-1 $-1 $76 $-1 $40 #
shell $-1 $-1 $-1 $77 $-1 $42 #
shell $-1 $-1 $-1 $78 $-1 $44 #
shell $-1 $-1 $-1 $79 $-1 $46 #
face $-1 $80 $81 $48 $-1 $82 forward single #
face $-1 $83 $84 $49 $-1 $85 reversed single #
face $-1 $86 $87 $50 $-1 $88 forward single #
face $-1 $89 $90 $51 $-1 $91 forward single #
face $-1 $92 $93 $52 $-1 $94 reversed single #
face $-1 $95 $96 $53 $-1 $97 forward single #
face $-1 $98 $99 $54 $-1 $100 forward single #
face $-1 $101 $102 $55 $-1 $103 reversed single #
face $-1 $104 $105 $56 $-1 $106 forward single #
face $-1 $107 $108 $57 $-1 $109 forward single #
face $-1 $110 $111 $58 $-1 $112 reversed single #
face $-1 $113 $114 $59 $-1 $115 forward single #
face $-1 $116 $117 $60 $-1 $118 forward single #
face $-1 $119 $120 $61 $-1 $121 reversed single #
face $-1 $122 $123 $62 $-1 $124 forward single #
face $-1 $125 $126 $63 $-1 $127 forward single #
face $-1 $128 $129 $48 $-1 $130 reversed single #
loop $-1 $-1 $131 $64 #
plane-surface $-1 0 0 5.9478479292238795 0 0 1 1 0 0 forward_v I I I I #
face $-1 $132 $133 $49 $-1 $134 reversed single #
loop $-1 $-1 $135 $65 #
plane-surface $-1 -20.542619098483229 -68.418323215264223 69.4457812186985 -1 0 0 0 -0.55919291073839883 0.82903756765294845 forward_v I I I I #
face $-1 $136 $137 $50 $-1 $138 forward single #
loop $-1 $139 $140 $66 #
cone-surface $-1 -27.186152752973758 -18.490812415874498 2.8197149298072017 0 0.55919291073839883 -0.82903756765294845 1 0 0 1 I I 0 1 1 forward I I I I #
face $-1 $141 $142 $51 $-1 $143 forward single #
loop $-1 $144 $145 $67 #
cone-surface $-1 -23.200032560279439 -18.490812415874498 2.8197149298072017 0 0.55919291073839883 -0.82903756765294845 1 0 0 1 I I 0 1 1 forward I I I I #
face $-1 $146 $147 $52 $-1 $148 reversed single #
loop $-1 $-1 $149 $68 #
plane-surface $-1 -4.4408920985006262e-015 -68.418323215264223 69.4457812186985 -1 0 0 0 -0.55919291073839883 0.82903756765294845 forward_v I I I I #
face $-1 $150 $151 $53 $-1 $152 forward single #
loop $-1 $153 $154 $69 #
cone-surface $-1 -6.6435336544905255 -18.490812415874498 2.8197149298072017 0 0.55919291073839883 -0.82903756765294845 1 0 0 1 I I 0 1 1 forward I I I I #
face $-1 $155 $156 $54 $-1 $157 forward single #
loop $-1 $158 $159 $70 #
cone-surface $-1 -2.6574134617962102 -18.490812415874498 2.8197149298072017 0 0.55919291073839883 -0.82903756765294845 1 0 0 1 I I 0 1 1 forward I I I I #
face $-1 $160 $161 $55 $-1 $162 reversed single #
loop $-1 $-1 $163 $71 #
plane-surface $-1 20.542619098483225 -68.418323215264223 69.4457812186985 -1 0 0 0 -0.55919291073839883 0.82903756765294845 forward_v I I I I #
face $-1 $164 $165 $56 $-1 $166 forward single #
loop $-1 $167 $168 $72 #
cone-surface $-1 13.899085443992703 -18.490812415874498 2.8197149298072017 0 0.55919291073839883 -0.82903756765294845 1 0 0 1 I I 0 1 1 forward I I I I #
face $-1 $169 $170 $57 $-1 $171 forward single #
loop $-1 $172 $173 $73 #
cone-surface $-1 17.885205636687019 -18.490812415874498 2.8197149298072017 0 0.55919291073839883 -0.82903756765294845 1 0 0 1 I I 0 1 1 forward I I I I #
face $-1 $174 $175 $58 $-1 $176 reversed single #
loop $-1 $-1 $177 $74 #
plane-surface $-1 36.434764638823083 -22.469175343779987 1.3233693361883354 0 -0.55919291073839883 0.82903756765294845 1 0 0 forward_v I I I I #
face $-1 $178 $179 $59 $-1 $180 forward single #
loop $-1 $181 $182 $75 #
cone-surface $-1 34.441704542475932 -18.490812415874498 2.8197149298072017 0 0.55919291073839883 -0.82903756765294845 1 0 0 1 I I 0 1 1 forward I I I I #
face $-1 $183 $184 $60 $-1 $185 forward single #
loop $-1 $186 $187 $76 #
cone-surface $-1 38.427824735170248 -18.490812415874498 2.8197149298072017 0 0.55919291073839883 -0.82903756765294845 1 0 0 1 I I 0 1 1 forward I I I I #
face $-1 $188 $189 $61 $-1 $190 reversed single #
loop $-1 $-1 $191 $77 #
plane-surface $-1 7.5779648040665428 71.161721235867219 80.759497388294193 1 0 0 0 -0.86602541151947299 -0.49999998660252726 forward_v I I I I #
face $-1 $192 $193 $62 $-1 $194 forward single #
loop $-1 $195 $196 $78 #
cone-surface $-1 11.748447231475353 20.01975202828384 2.8032256126235442 0 -0.86602541151947299 -0.49999998660252726 1 0 0 1 I I 0 1 1 forward I I I I #
face $-1 $197 $198 $63 $-1 $199 forward single #
loop $-1 $200 $201 $79 #
cone-surface $-1 18.00417087258856 20.01975202828384 2.8032256126235442 0 -0.86602541151947299 -0.49999998660252726 1 0 0 1 I I 0 1 1 forward I I I I #
face $-1 $202 $203 $48 $-1 $204 reversed single #
loop $-1 $-1 $205 $80 #
plane-surface $-1 0 0 -5.9478479292238795 0 0 1 1 0 0 forward_v I I I I #
coedge $-1 $206 $207 $208 $209 forward $81 $-1 #
face $-1 $210 $211 $49 $-1 $212 reversed single #
loop $-1 $-1 $213 $83 #
plane-surface $-1 -25.1930926566266 -22.469175343779987 1.3233693361883354 0 -0.55919291073839883 0.82903756765294845 1 0 0 forward_v I I I I #
coedge $-1 $214 $215 $216 $217 reversed $84 $-1 #
face $-1 $-1 $218 $50 $-1 $219 forward single #
loop $-1 $220 $221 $86 #
cone-surface $-1 -27.186152752973758 -17.660888698655373 1.5893024430818219 0 0.55919291073839883 -0.82903756765294845 0.5 0 0 1 I I -0.70710678118654746 0.70710678118654746 0.5 forward I I I I #
loop $-1 $-1 $222 $66 #
coedge $-1 $140 $140 $223 $224 reversed $87 $-1 #
face $-1 $-1 $225 $51 $-1 $226 forward single #
loop $-1 $227 $228 $89 #
cone-surface $-1 -23.200032560279439 -17.660888698655373 1.5893024430818219 0 0.55919291073839883 -0.82903756765294845 0.5 0 0 1 I I -0.70710678118654746 0.70710678118654746 0.5 forward I I I I #
loop $-1 $-1 $229 $67 #
coedge $-1 $145 $145 $230 $231 reversed $90 $-1 #
face $-1 $232 $233 $52 $-1 $234 reversed single #
loop $-1 $-1 $235 $92 #
plane-surface $-1 -4.6504735581433749 -22.469175343779987 1.3233693361883354 0 -0.55919291073839883 0.82903756765294845 1 0 0 forward_v I I I I #
coedge $-1 $236 $237 $238 $239 reversed $93 $-1 #
face $-1 $-1 $240 $53 $-1 $241 forward single #
loop $-1 $242 $243 $95 #
cone-surface $-1 -6.6435336544905255 -17.660888698655373 1.5893024430818219 0 0.55919291073839883 -0.82903756765294845 0.5 0 0 1 I I -0.70710678118654746 0.70710678118654746 0.5 forward I I I I #
loop $-1 $-1 $244 $69 #
coedge $-1 $154 $154 $245 $246 reversed $96 $-1 #
face $-1 $-1 $247 $54 $-1 $248 forward single #
loop $-1 $249 $250 $98 #
cone-surface $-1 -2.6574134617962102 -17.660888698655373 1.5893024430818219 0 0.55919291073839883 -0.82903756765294845 0.5 0 0 1 I I -0.70710678118654746 0.70710678118654746 0.5 forward I I I I #
loop $-1 $-1 $251 $70 #
coedge $-1 $159 $159 $252 $253 reversed $99 $-1 #
face $-1 $254 $255 $55 $-1 $256 reversed single #
loop $-1 $-1 $257 $101 #
plane-surface $-1 15.892145540339854 -22.469175343779987 1.3233693361883354 0 -0.55919291073839883 0.82903756765294845 1 0 0 forward_v I I I I #
coedge $-1 $258 $259 $260 $261 reversed $102 $-1 #
face $-1 $-1 $262 $56 $-1 $263 forward single #
loop $-1 $264 $265 $104 #
cone-surface $-1 13.899085443992703 -17.660888698655373 1.5893024430818219 0 0.55919291073839883 -0.82903756765294845 0.5 0 0 1 I I -0.70710678118654746 0.70710678118654746 0.5 forward I I I I #
loop $-1 $-1 $266 $72 #
coedge $-1 $168 $168 $267 $268 reversed $105 $-1 #
face $-1 $-1 $269 $57 $-1 $270 forward single #
loop $-1 $271 $272 $107 #
cone-surface $-1 17.885205636687019 -17.660888698655373 1.5893024430818219 0 0.55919291073839883 -0.82903756765294845 0.5 0 0 1 I I -0.70710678118654746 0.70710678118654746 0.5 forward I I I I #
loop $-1 $-1 $273 $73 #
coedge $-1 $173 $173 $274 $275 reversed $108 $-1 #
face $-1 $276 $277 $58 $-1 $278 reversed single #
loop $-1 $-1 $279 $110 #
plane-surface $-1 31.784291080679711 -68.418323215264223 69.4457812186985 1 0 0 0 0.55919291073839883 -0.82903756765294845 forward_v I I I I #
coedge $-1 $280 $281 $282 $283 reversed $111 $-1 #
face $-1 $-1 $284 $59 $-1 $285 forward single #
loop $-1 $286 $287 $113 #
cone-surface $-1 34.441704542475932 -17.660888698655373 1.5893024430818219 0 0.55919291073839883 -0.82903756765294845 0.5 0 0 1 I I -0.70710678118654746 0.70710678118654746 0.5 forward I I I I #
loop $-1 $-1 $288 $75 #
coedge $-1 $182 $182 $289 $290 reversed $114 $-1 #
face $-1 $-1 $291 $60 $-1 $292 forward single #
loop $-1 $293 $294 $116 #
cone-surface $-1 38.427824735170248 -17.660888698655373 1.5893024430818219 0 0.55919291073839883 -0.82903756765294845 0.5 0 0 1 I I -0.70710678118654746 0.70710678118654746 0.5 forward I I I I #
loop $-1 $-1 $295 $76 #
coedge $-1 $187 $187 $296 $297 reversed $117 $-1 #
face $-1 $298 $299 $61 $-1 $300 reversed single #
loop $-1 $-1 $301 $119 #
plane-surface $-1 14.876309052031957 6.0206032514997787e-007 39.674260292204451 0 0.86602541151947299 0.49999998660252726 1 0 0 forward_v I I I I #
coedge $-1 $302 $303 $304 $305 reversed $120 $-1 #
face $-1 $-1 $306 $62 $-1 $307 forward single #
loop $-1 $308 $309 $122 #
cone-surface $-1 11.748447231475353 18.635927097437492 2.0042739448319118 0 -0.86602541151947299 -0.49999998660252726 0.5 0 0 1 I I -0.70710678118654746 0.70710678118654746 0.5 forward I I I I #
loop $-1 $-1 $310 $78 #
coedge $-1 $196 $196 $311 $312 reversed $123 $-1 #
face $-1 $-1 $313 $63 $-1 $314 forward single #
loop $-1 $315 $316 $125 #
cone-surface $-1 18.00417087258856 18.635927097437492 2.0042739448319118 0 -0.86602541151947299 -0.49999998660252726 0.5 0 0 1 I I -0.70710678118654746 0.70710678118654746 0.5 forward I I I I #
loop $-1 $-1 $317 $79 #
coedge $-1 $201 $201 $318 $319 reversed $126 $-1 #
face $-1 $320 $321 $48 $-1 $322 reversed single #
loop $-1 $-1 $323 $128 #
plane-surface $-1 0 -22.469175343779991 0 0 1 0 0 0 1 forward_v I I I I #
coedge $-1 $324 $325 $326 $327 forward $129 $-1 #
coedge $-1 $328 $131 $329 $330 forward $81 $-1 #
coedge $-1 $131 $328 $331 $332 forward $81 $-1 #
coedge $-1 $333 $334 $131 $209 reversed $335 $-1 #
edge $-1 $336 -22.469175343779991 $337 22.469175343779991 $208 $338 forward 7 unknown #
face $-1 $339 $340 $49 $-1 $341 reversed single #
loop $-1 $-1 $342 $132 #
plane-surface $-1 -29.843566214769972 -68.418323215264223 69.4457812186985 1 0 0 0 0.55919291073839883 -0.82903756765294845 forward_v I I I I #
coedge $-1 $343 $344 $345 $346 reversed $133 $-1 #
coedge $-1 $215 $135 $347 $348 reversed $84 $-1 #
coedge $-1 $135 $214 $343 $349 reversed $84 $-1 #
coedge $-1 $345 $350 $135 $217 forward $351 $-1 #
edge $-1 $352 11.739986263852121 $353 18.596057595963259 $216 $354 forward 7 unknown #
loop $-1 $-1 $223 $136 #
plane-surface $-1 -25.1930926566266 -22.469175343779987 1.3233693361883354 0 -0.55919291073839883 0.82903756765294845 1 0 0 forward_v I I I I #
loop $-1 $-1 $355 $86 #
coedge $-1 $221 $221 $222 $356 reversed $137 $-1 #
coedge $-1 $222 $222 $221 $356 forward $139 $-1 #
coedge $-1 $223 $223 $140 $224 forward $218 $-1 #
edge $-1 $357 9.9332615153428852e-016 $357 6.2831853071796013 $223 $358 forward 7 unknown #
loop $-1 $-1 $230 $141 #
plane-surface $-1 -25.1930926566266 -22.469175343779987 1.3233693361883354 0 -0.55919291073839883 0.82903756765294845 1 0 0 forward_v I I I I #
loop $-1 $-1 $359 $89 #
coedge $-1 $228 $228 $229 $360 reversed $142 $-1 #
coedge $-1 $229 $229 $228 $360 forward $144 $-1 #
coedge $-1 $230 $230 $145 $231 forward $225 $-1 #
edge $-1 $361 9.9332615153428852e-016 $361 6.2831853071796013 $230 $362 forward 7 unknown #
face $-1 $363 $364 $52 $-1 $365 reversed single #
loop $-1 $-1 $366 $146 #
plane-surface $-1 -9.3009471162867463 -68.418323215264223 69.4457812186985 1 0 0 0 0.55919291073839883 -0.82903756765294845 forward_v I I I I #
coedge $-1 $367 $368 $369 $370 reversed $147 $-1 #
coedge $-1 $237 $149 $371 $372 reversed $93 $-1 #
coedge $-1 $149 $236 $367 $373 reversed $93 $-1 #
coedge $-1 $369 $374 $149 $239 forward $375 $-1 #
edge $-1 $376 11.739986263852121 $377 18.596057595963259 $238 $378 forward 7 unknown #
loop $-1 $-1 $245 $150 #
plane-surface $-1 -4.6504735581433749 -22.469175343779987 1.3233693361883354 0 -0.55919291073839883 0.82903756765294845 1 0 0 forward_v I I I I #
loop $-1 $-1 $379 $95 #
coedge $-1 $243 $243 $244 $380 reversed $151 $-1 #
coedge $-1 $244 $244 $243 $380 forward $153 $-1 #
coedge $-1 $245 $245 $154 $246 forward $240 $-1 #
edge $-1 $381 9.9332615153428852e-016 $381 6.2831853071796013 $245 $382 forward 7 unknown #
loop $-1 $-1 $252 $155 #
plane-surface $-1 -4.6504735581433749 -22.469175343779987 1.3233693361883354 0 -0.55919291073839883 0.82903756765294845 1 0 0 forward_v I I I I #
loop $-1 $-1 $383 $98 #
coedge $-1 $250 $250 $251 $384 reversed $156 $-1 #
coedge $-1 $251 $251 $250 $384 forward $158 $-1 #
coedge $-1 $252 $252 $159 $253 forward $247 $-1 #
edge $-1 $385 9.9332615153428852e-016 $385 6.2831853071796013 $252 $386 forward 7 unknown #
face $-1 $387 $388 $55 $-1 $389 reversed single #
loop $-1 $-1 $390 $160 #
plane-surface $-1 11.241671982196483 -68.418323215264223 69.4457812186985 1 0 0 0 0.55919291073839883 -0.82903756765294845 forward_v I I I I #
coedge $-1 $391 $392 $393 $394 reversed $161 $-1 #
coedge $-1 $259 $163 $395 $396 reversed $102 $-1 #
coedge $-1 $163 $258 $391 $397 reversed $102 $-1 #
coedge $-1 $393 $398 $163 $261 forward $399 $-1 #
edge $-1 $400 11.739986263852121 $401 18.596057595963259 $260 $402 forward 7 unknown #
loop $-1 $-1 $267 $164 #
plane-surface $-1 15.892145540339854 -22.469175343779987 1.3233693361883354 0 -0.55919291073839883 0.82903756765294845 1 0 0 forward_v I I I I #
loop $-1 $-1 $403 $104 #
coedge $-1 $265 $265 $266 $404 reversed $165 $-1 #
coedge $-1 $266 $266 $265 $404 forward $167 $-1 #
coedge $-1 $267 $267 $168 $268 forward $262 $-1 #
edge $-1 $405 9.9332615153428852e-016 $405 6.2831853071796013 $267 $406 forward 7 unknown #
loop $-1 $-1 $274 $169 #
plane-surface $-1 15.892145540339854 -22.469175343779987 1.3233693361883354 0 -0.55919291073839883 0.82903756765294845 1 0 0 forward_v I I I I #
loop $-1 $-1 $407 $107 #
coedge $-1 $272 $272 $273 $408 reversed $170 $-1 #
coedge $-1 $273 $273 $272 $408 forward $172 $-1 #
coedge $-1 $274 $274 $173 $275 forward $269 $-1 #
edge $-1 $409 9.9332615153428852e-016 $409 6.2831853071796013 $274 $410 forward 7 unknown #
face $-1 $411 $412 $58 $-1 $413 forward single #
loop $-1 $-1 $414 $174 #
plane-surface $-1 0 -22.469175343779991 0 0 1 0 0 0 1 forward_v I I I I #
coedge $-1 $415 $416 $417 $418 reversed $175 $-1 #
coedge $-1 $419 $177 $420 $421 reversed $111 $-1 #
coedge $-1 $177 $419 $415 $422 forward $111 $-1 #
coedge $-1 $417 $423 $177 $283 forward $412 $-1 #
edge $-1 $424 -22.867855877554909 $425 -13.56690876126817 $282 $426 forward 7 unknown #
loop $-1 $-1 $289 $178 #
plane-surface $-1 36.434764638823083 -22.469175343779987 1.3233693361883354 0 -0.55919291073839883 0.82903756765294845 1 0 0 forward_v I I I I #
loop $-1 $-1 $427 $113 #
coedge $-1 $287 $287 $288 $428 reversed $179 $-1 #
coedge $-1 $288 $288 $287 $428 forward $181 $-1 #
coedge $-1 $289 $289 $182 $290 forward $284 $-1 #
edge $-1 $429 9.9332615153428852e-016 $429 6.2831853071796013 $289 $430 forward 7 unknown #
loop $-1 $-1 $296 $183 #
plane-surface $-1 36.434764638823083 -22.469175343779987 1.3233693361883354 0 -0.55919291073839883 0.82903756765294845 1 0 0 forward_v I I I I #
loop $-1 $-1 $431 $116 #
coedge $-1 $294 $294 $295 $432 reversed $184 $-1 #
coedge $-1 $295 $295 $294 $432 forward $186 $-1 #
coedge $-1 $296 $296 $187 $297 forward $291 $-1 #
edge $-1 $433 9.9332615153428852e-016 $433 6.2831853071796013 $296 $434 forward 7 unknown #
face $-1 $435 $436 $61 $-1 $437 forward single #
loop $-1 $-1 $438 $188 #
plane-surface $-1 22.17465329999737 71.161721235867219 80.759497388294193 -1 0 0 0 0.86602541151947299 0.49999998660252726 forward_v I I I I #
coedge $-1 $439 $440 $441 $442 reversed $189 $-1 #
coedge $-1 $303 $191 $443 $444 reversed $120 $-1 #
coedge $-1 $191 $302 $439 $445 reversed $120 $-1 #
coedge $-1 $441 $446 $191 $305 forward $436 $-1 #
edge $-1 $447 13.111685274153619 $448 16.108907454972691 $304 $449 forward 7 unknown #
loop $-1 $-1 $311 $192 #
plane-surface $-1 14.876309052031957 6.0206032514997787e-007 39.674260292204451 0 0.86602541151947299 0.49999998660252726 1 0 0 forward_v I I I I #
loop $-1 $-1 $450 $122 #
coedge $-1 $309 $309 $310 $451 reversed $193 $-1 #
coedge $-1 $310 $310 $309 $451 forward $195 $-1 #
coedge $-1 $311 $311 $196 $312 forward $306 $-1 #
edge $-1 $452 2.3798662895583359e-016 $452 6.2831853071796004 $311 $453 forward 7 unknown #
loop $-1 $-1 $318 $197 #
plane-surface $-1 14.876309052031957 6.0206032514997787e-007 39.674260292204451 0 0.86602541151947299 0.49999998660252726 1 0 0 forward_v I I I I #
loop $-1 $-1 $454 $125 #
coedge $-1 $316 $316 $317 $455 reversed $198 $-1 #
coedge $-1 $317 $317 $316 $455 forward $200 $-1 #
coedge $-1 $318 $318 $201 $319 forward $313 $-1 #
edge $-1 $456 2.3798662895583359e-016 $456 6.2831853071796004 $318 $457 forward 7 unknown #
face $-1 $458 $459 $48 $-1 $460 reversed single #
loop $-1 $-1 $461 $202 #
plane-surface $-1 -41.085238196966458 0 0 1 0 0 0 0 -1 forward_v I I I I #
coedge $-1 $462 $331 $463 $464 forward $203 $-1 #
coedge $-1 $465 $205 $462 $466 forward $129 $-1 #
coedge $-1 $205 $465 $467 $468 forward $129 $-1 #
coedge $-1 $334 $333 $205 $327 reversed $335 $-1 #
edge $-1 $469 -22.469175343779991 $470 22.469175343779991 $326 $471 forward 7 unknown #
coedge $-1 $207 $206 $472 $473 forward $81 $-1 #
coedge $-1 $474 $475 $206 $330 reversed $459 $-1 #
edge $-1 $337 -41.085238196966458 $476 41.085238196966458 $329 $477 forward 7 unknown #
coedge $-1 $323 $478 $207 $332 reversed $203 $-1 #
edge $-1 $479 -41.085238196966458 $336 41.085238196966458 $331 $480 forward 7 unknown #
coedge $-1 $326 $208 $478 $481 forward $335 $-1 #
coedge $-1 $208 $326 $474 $482 reversed $335 $-1 #
loop $-1 $-1 $333 $458 #
vertex $-1 $209 $483 #
vertex $-1 $209 $484 #
straight-curve $-1 41.085238196966458 0 5.9478479292238795 0 1 0 I I #
face $-1 $-1 $351 $49 $-1 $485 forward single #
loop $-1 $-1 $486 $210 #
plane-surface $-1 0 -22.469175343779991 0 0 1 0 0 0 1 forward_v I I I I #
coedge $-1 $487 $488 $489 $490 reversed $211 $-1 #
coedge $-1 $491 $213 $215 $349 forward $133 $-1 #
coedge $-1 $213 $491 $487 $492 forward $133 $-1 #
coedge $-1 $489 $216 $213 $346 forward $351 $-1 #
edge $-1 $353 7.9460727701699287 $493 17.24701988645667 $345 $494 forward 7 unknown #
coedge $-1 $495 $496 $214 $348 forward $340 $-1 #
edge $-1 $497 -33.399521273160914 $352 -28.77504268012537 $347 $498 forward 7 unknown #
edge $-1 $353 -8.2699163459154867 $497 4.3111565651997722e-015 $215 $499 forward 7 unknown #
coedge $-1 $216 $489 $495 $500 forward $351 $-1 #
loop $-1 $-1 $489 $339 #
vertex $-1 $348 $501 #
vertex $-1 $217 $502 #
straight-curve $-1 -20.542619098483229 -34.209161607632112 5.9478479292238795 0 1 0 I I #
coedge $-1 $355 $355 $-1 $503 reversed $220 $-1 #
edge $-1 $504 0 $504 6.2831853071796004 $221 $505 forward 7 unknown #
vertex $-1 $224 $506 #
ellipse-curve $-1 -27.186152752973758 -19.041139677724424 3.6356086327061061 0 -0.55919291073839883 0.82903756765294845 1 0 0 1 I I #
coedge $-1 $359 $359 $-1 $507 reversed $227 $-1 #
edge $-1 $508 0 $508 6.2831853071796004 $228 $509 forward 7 unknown #
vertex $-1 $231 $510 #
ellipse-curve $-1 -23.200032560279439 -19.041139677724424 3.6356086327061061 0 -0.55919291073839883 0.82903756765294845 1 0 0 1 I I #
face $-1 $-1 $375 $52 $-1 $511 forward single #
loop $-1 $-1 $512 $232 #
plane-surface $-1 0 -22.469175343779991 0 0 1 0 0 0 1 forward_v I I I I #
coedge $-1 $513 $514 $515 $516 reversed $233 $-1 #
coedge $-1 $517 $235 $237 $373 forward $147 $-1 #
coedge $-1 $235 $517 $513 $518 forward $147 $-1 #
coedge $-1 $515 $238 $235 $370 forward $375 $-1 #
edge $-1 $377 -2.325236779071683 $519 6.9757103372150588 $369 $520 forward 7 unknown #
coedge $-1 $521 $522 $236 $372 forward $364 $-1 #
edge $-1 $523 -33.399521273160914 $376 -28.77504268012537 $371 $524 forward 7 unknown #
edge $-1 $377 -8.2699163459154867 $523 4.3111565651997722e-015 $237 $525 forward 7 unknown #
coedge $-1 $238 $515 $521 $526 forward $375 $-1 #
loop $-1 $-1 $515 $363 #
vertex $-1 $372 $527 #
vertex $-1 $239 $528 #
straight-curve $-1 -4.4408920985006262e-015 -34.209161607632112 5.9478479292238795 0 1 0 I I #
coedge $-1 $379 $379 $-1 $529 reversed $242 $-1 #
edge $-1 $530 0 $530 6.2831853071796004 $243 $531 forward 7 unknown #
vertex $-1 $246 $532 #
ellipse-curve $-1 -6.6435336544905255 -19.041139677724424 3.6356086327061061 0 -0.55919291073839883 0.82903756765294845 1 0 0 1 I I #
coedge $-1 $383 $383 $-1 $533 reversed $249 $-1 #
edge $-1 $534 0 $534 6.2831853071796004 $250 $535 forward 7 unknown #
vertex $-1 $253 $536 #
ellipse-curve $-1 -2.6574134617962102 -19.041139677724424 3.6356086327061061 0 -0.55919291073839883 0.82903756765294845 1 0 0 1 I I #
face $-1 $-1 $399 $55 $-1 $537 forward single #
loop $-1 $-1 $538 $254 #
plane-surface $-1 0 -22.469175343779991 0 0 1 0 0 0 1 forward_v I I I I #
coedge $-1 $539 $540 $541 $542 reversed $255 $-1 #
coedge $-1 $543 $257 $259 $397 forward $161 $-1 #
coedge $-1 $257 $543 $539 $544 forward $161 $-1 #
coedge $-1 $541 $260 $257 $394 forward $399 $-1 #
edge $-1 $401 -12.596546328313298 $545 -3.2955992120265556 $393 $546 forward 7 unknown #
coedge $-1 $547 $548 $258 $396 forward $388 $-1 #
edge $-1 $549 -33.399521273160914 $400 -28.77504268012537 $395 $550 forward 7 unknown #
edge $-1 $401 -8.2699163459154867 $549 4.3111565651997722e-015 $259 $551 forward 7 unknown #
coedge $-1 $260 $541 $547 $552 forward $399 $-1 #
loop $-1 $-1 $541 $387 #
vertex $-1 $396 $553 #
vertex $-1 $261 $554 #
straight-curve $-1 20.542619098483225 -34.209161607632112 5.9478479292238795 0 1 0 I I #
coedge $-1 $403 $403 $-1 $555 reversed $264 $-1 #
edge $-1 $556 0 $556 6.2831853071796004 $265 $557 forward 7 unknown #
vertex $-1 $268 $558 #
ellipse-curve $-1 13.899085443992703 -19.041139677724424 3.6356086327061061 0 -0.55919291073839883 0.82903756765294845 1 0 0 1 I I #
coedge $-1 $407 $407 $-1 $559 reversed $271 $-1 #
edge $-1 $560 0 $560 6.2831853071796004 $272 $561 forward 7 unknown #
vertex $-1 $275 $562 #
ellipse-curve $-1 17.885205636687019 -19.041139677724424 3.6356086327061061 0 -0.55919291073839883 0.82903756765294845 1 0 0 1 I I #
face $-1 $-1 $563 $58 $-1 $564 reversed single #
loop $-1 $-1 $417 $276 #
plane-surface $-1 0 0 5.9478479292238795 0 0 1 1 0 0 forward_v I I I I #
coedge $-1 $565 $566 $416 $567 forward $277 $-1 #
coedge $-1 $416 $279 $281 $422 reversed $175 $-1 #
coedge $-1 $279 $415 $414 $567 reversed $175 $-1 #
coedge $-1 $568 $282 $279 $418 forward $412 $-1 #
edge $-1 $425 -18.596057595963259 $569 -11.739986263852121 $417 $570 forward 7 unknown #
coedge $-1 $281 $280 $565 $571 reversed $111 $-1 #
coedge $-1 $572 $573 $280 $421 forward $563 $-1 #
edge $-1 $574 -8.9438858615449384 $424 -0.67396951562944607 $420 $575 forward 7 unknown #
edge $-1 $576 -4.3111565651997722e-015 $425 8.2699163459154867 $415 $577 forward 7 unknown #
coedge $-1 $282 $568 $572 $578 forward $412 $-1 #
vertex $-1 $421 $579 #
vertex $-1 $283 $580 #
straight-curve $-1 18.217382319411541 -15.613104011668852 5.9478479292238795 -1 0 0 I I #
coedge $-1 $427 $427 $-1 $581 reversed $286 $-1 #
edge $-1 $582 0 $582 6.2831853071796004 $287 $583 forward 7 unknown #
vertex $-1 $290 $584 #
ellipse-curve $-1 34.441704542475932 -19.041139677724424 3.6356086327061061 0 -0.55919291073839883 0.82903756765294845 1 0 0 1 I I #
coedge $-1 $431 $431 $-1 $585 reversed $293 $-1 #
edge $-1 $586 0 $586 6.2831853071796004 $294 $587 forward 7 unknown #
vertex $-1 $297 $588 #
ellipse-curve $-1 38.427824735170248 -19.041139677724424 3.6356086327061061 0 -0.55919291073839883 0.82903756765294845 1 0 0 1 I I #
face $-1 $-1 $589 $61 $-1 $590 reversed single #
loop $-1 $-1 $304 $298 #
plane-surface $-1 0 0 5.9478479292238795 0 0 1 1 0 0 forward_v I I I I #
coedge $-1 $591 $592 $593 $594 reversed $299 $-1 #
coedge $-1 $595 $301 $303 $445 forward $189 $-1 #
coedge $-1 $301 $595 $591 $596 forward $189 $-1 #
coedge $-1 $593 $304 $301 $442 forward $436 $-1 #
edge $-1 $448 0.13981027805056456 $597 14.736498773981392 $441 $598 forward 7 unknown #
coedge $-1 $599 $600 $302 $444 forward $589 $-1 #
edge $-1 $601 -39.62324204914318 $447 -34.431900764923213 $443 $602 forward 7 unknown #
edge $-1 $448 38.94390616530103 $601 44.938350687559989 $303 $603 forward 7 unknown #
coedge $-1 $304 $593 $599 $604 forward $436 $-1 #
vertex $-1 $444 $605 #
vertex $-1 $305 $606 #
straight-curve $-1 7.5779648040665428 35.58086061793361 5.9478479292238831 0 -1 0 I I #
coedge $-1 $450 $450 $-1 $607 reversed $308 $-1 #
edge $-1 $608 0 $608 6.2831853071796004 $309 $609 forward 7 unknown #
vertex $-1 $312 $610 #
ellipse-curve $-1 11.748447231475353 20.970564253370451 3.3521772871139115 0 0.86602541151947299 0.49999998660252726 1 0 0 1 I I #
coedge $-1 $454 $454 $-1 $611 reversed $315 $-1 #
edge $-1 $612 0 $612 6.2831853071796004 $316 $613 forward 7 unknown #
vertex $-1 $319 $614 #
ellipse-curve $-1 18.00417087258856 20.970564253370451 3.3521772871139115 0 0.86602541151947299 0.49999998660252726 1 0 0 1 I I #
face $-1 $-1 $335 $48 $-1 $615 reversed single #
loop $-1 $-1 $474 $320 #
plane-surface $-1 0 22.469175343779991 0 0 -1 0 0 0 -1 forward_v I I I I #
coedge $-1 $616 $472 $475 $617 forward $321 $-1 #
coedge $-1 $478 $323 $324 $466 reversed $203 $-1 #
coedge $-1 $472 $616 $323 $464 reversed $321 $-1 #
edge $-1 $479 -5.9478479292238795 $618 5.9478479292238795 $463 $619 forward 7 unknown #
coedge $-1 $325 $324 $616 $620 forward $129 $-1 #
edge $-1 $470 -41.085238196966458 $618 41.085238196966458 $462 $621 forward 7 unknown #
coedge $-1 $475 $474 $325 $468 reversed $459 $-1 #
edge $-1 $622 -41.085238196966458 $469 41.085238196966458 $467 $623 forward 7 unknown #
vertex $-1 $327 $624 #
vertex $-1 $481 $625 #
straight-curve $-1 41.085238196966458 0 -5.9478479292238795 0 -1 0 I I #
coedge $-1 $461 $463 $328 $473 reversed $321 $-1 #
edge $-1 $476 -22.469175343779991 $479 22.469175343779991 $472 $626 forward 7 unknown #
coedge $-1 $467 $329 $334 $482 forward $459 $-1 #
coedge $-1 $329 $467 $461 $617 reversed $459 $-1 #
vertex $-1 $330 $627 #
straight-curve $-1 0 22.469175343779991 5.9478479292238795 -1 0 0 I I #
coedge $-1 $331 $462 $333 $481 reversed $203 $-1 #
vertex $-1 $473 $628 #
straight-curve $-1 0 -22.469175343779991 5.9478479292238795 1 0 0 I I #
edge $-1 $336 -5.9478479292238795 $470 5.9478479292238795 $333 $629 forward 7 unknown #
edge $-1 $337 -5.9478479292238795 $469 5.9478479292238795 $334 $630 forward 7 unknown #
point $-1 41.085238196966458 -22.469175343779991 5.9478479292238795 #
point $-1 41.085238196966458 22.469175343779991 5.9478479292238795 #
plane-surface $-1 0 0 5.9478479292238795 0 0 1 1 0 0 forward_v I I I I #
coedge $-1 $496 $495 $488 $631 forward $340 $-1 #
coedge $-1 $488 $342 $344 $492 reversed $211 $-1 #
coedge $-1 $342 $487 $486 $631 reversed $211 $-1 #
coedge $-1 $350 $345 $342 $490 forward $351 $-1 #
edge $-1 $493 -18.596057595963259 $632 -11.739986263852121 $489 $633 forward 7 unknown #
coedge $-1 $344 $343 $496 $634 reversed $133 $-1 #
edge $-1 $635 -4.3111565651997722e-015 $493 8.2699163459154867 $487 $636 forward 7 unknown #
vertex $-1 $346 $637 #
straight-curve $-1 -12.5965463283133 -15.613104011668852 5.9478479292238795 -1 0 0 I I #
coedge $-1 $486 $347 $350 $500 reversed $340 $-1 #
coedge $-1 $347 $486 $491 $634 forward $340 $-1 #
vertex $-1 $348 $638 #
straight-curve $-1 -20.542619098483229 -22.469175343779991 34.72289060934925 0 0 1 I I #
straight-curve $-1 -20.542619098483229 -22.469175343779987 1.3233693361883354 0 -0.82903756765294845 -0.55919291073839883 I I #
edge $-1 $632 -29.843566214769972 $352 -20.542619098483229 $495 $639 forward 7 unknown #
point $-1 -20.542619098483229 -22.469175343779991 5.9478479292238795 #
point $-1 -20.542619098483229 -15.613104011668852 5.9478479292238795 #
edge $-1 $640 1 $640 0 $355 $-1 forward 7 unknown #
vertex $-1 $356 $641 #
ellipse-curve $-1 -27.186152752973758 -17.940485154024572 2.003821226908296 0 -0.55919291073839883 0.82903756765294845 1 0 0 1 I I #
point $-1 -26.186152752973758 -19.041139677724424 3.6356086327061079 #
edge $-1 $642 1 $642 0 $359 $-1 forward 7 unknown #
vertex $-1 $360 $643 #
ellipse-curve $-1 -23.200032560279439 -17.940485154024572 2.003821226908296 0 -0.55919291073839883 0.82903756765294845 1 0 0 1 I I #
point $-1 -22.200032560279439 -19.041139677724424 3.6356086327061079 #
plane-surface $-1 0 0 5.9478479292238795 0 0 1 1 0 0 forward_v I I I I #
coedge $-1 $522 $521 $514 $644 forward $364 $-1 #
coedge $-1 $514 $366 $368 $518 reversed $233 $-1 #
coedge $-1 $366 $513 $512 $644 reversed $233 $-1 #
coedge $-1 $374 $369 $366 $516 forward $375 $-1 #
edge $-1 $519 -18.596057595963259 $645 -11.739986263852121 $515 $646 forward 7 unknown #
coedge $-1 $368 $367 $522 $647 reversed $147 $-1 #
edge $-1 $648 -4.3111565651997722e-015 $519 8.2699163459154867 $513 $649 forward 7 unknown #
vertex $-1 $370 $650 #
straight-curve $-1 -2.3252367790716875 -15.613104011668852 5.9478479292238795 -1 0 0 I I #
coedge $-1 $512 $371 $374 $526 reversed $364 $-1 #
coedge $-1 $371 $512 $517 $647 forward $364 $-1 #
vertex $-1 $372 $651 #
straight-curve $-1 -4.4408920985006262e-015 -22.469175343779991 34.72289060934925 0 0 1 I I #
straight-curve $-1 -4.4408920985006262e-015 -22.469175343779987 1.3233693361883354 0 -0.82903756765294845 -0.55919291073839883 I I #
edge $-1 $645 -9.3009471162867463 $376 -4.4408920985006262e-015 $521 $652 forward 7 unknown #
point $-1 -4.4408920985006262e-015 -22.469175343779991 5.9478479292238795 #
point $-1 -4.4408920985006262e-015 -15.613104011668852 5.9478479292238795 #
edge $-1 $653 1 $653 0 $379 $-1 forward 7 unknown #
vertex $-1 $380 $654 #
ellipse-curve $-1 -6.6435336544905255 -17.940485154024572 2.003821226908296 0 -0.55919291073839883 0.82903756765294845 1 0 0 1 I I #
point $-1 -5.6435336544905255 -19.041139677724424 3.6356086327061079 #
edge $-1 $655 1 $655 0 $383 $-1 forward 7 unknown #
vertex $-1 $384 $656 #
ellipse-curve $-1 -2.6574134617962102 -17.940485154024572 2.003821226908296 0 -0.55919291073839883 0.82903756765294845 1 0 0 1 I I #
point $-1 -1.6574134617962102 -19.041139677724424 3.6356086327061079 #
plane-surface $-1 0 0 5.9478479292238795 0 0 1 1 0 0 forward_v I I I I #
coedge $-1 $548 $547 $540 $657 forward $388 $-1 #
coedge $-1 $540 $390 $392 $544 reversed $255 $-1 #
coedge $-1 $390 $539 $538 $657 reversed $255 $-1 #
coedge $-1 $398 $393 $390 $542 forward $399 $-1 #
edge $-1 $545 -18.596057595963259 $658 -11.739986263852121 $541 $659 forward 7 unknown #
coedge $-1 $392 $391 $548 $660 reversed $161 $-1 #
edge $-1 $661 -4.3111565651997722e-015 $545 8.2699163459154867 $539 $662 forward 7 unknown #
vertex $-1 $394 $663 #
straight-curve $-1 7.946072770169927 -15.613104011668852 5.9478479292238795 -1 0 0 I I #
coedge $-1 $538 $395 $398 $552 reversed $388 $-1 #
coedge $-1 $395 $538 $543 $660 forward $388 $-1 #
vertex $-1 $396 $664 #
straight-curve $-1 20.542619098483225 -22.469175343779991 34.72289060934925 0 0 1 I I #
straight-curve $-1 20.542619098483225 -22.469175343779987 1.3233693361883354 0 -0.82903756765294845 -0.55919291073839883 I I #
edge $-1 $658 11.241671982196483 $400 20.542619098483225 $547 $665 forward 7 unknown #
point $-1 20.542619098483225 -22.469175343779991 5.9478479292238795 #
point $-1 20.542619098483225 -15.613104011668852 5.9478479292238795 #
edge $-1 $666 1 $666 0 $403 $-1 forward 7 unknown #
vertex $-1 $404 $667 #
ellipse-curve $-1 13.899085443992703 -17.940485154024572 2.003821226908296 0 -0.55919291073839883 0.82903756765294845 1 0 0 1 I I #
point $-1 14.899085443992703 -19.041139677724424 3.6356086327061079 #
edge $-1 $668 1 $668 0 $407 $-1 forward 7 unknown #
vertex $-1 $408 $669 #
ellipse-curve $-1 17.885205636687019 -17.940485154024572 2.003821226908296 0 -0.55919291073839883 0.82903756765294845 1 0 0 1 I I #
point $-1 18.885205636687019 -19.041139677724424 3.6356086327061079 #
loop $-1 $-1 $420 $411 #
plane-surface $-1 41.085238196966458 0 0 -1 0 0 0 0 1 forward_v I I I I #
coedge $-1 $670 $414 $419 $571 forward $277 $-1 #
coedge $-1 $414 $670 $568 $671 reversed $277 $-1 #
edge $-1 $569 28.77504268012537 $576 33.399521273160914 $414 $672 forward 7 unknown #
coedge $-1 $423 $417 $566 $671 forward $412 $-1 #
vertex $-1 $671 $673 #
straight-curve $-1 31.784291080679711 -34.209161607632112 5.9478479292238795 0 -1 0 I I #
edge $-1 $576 13.56690876126817 $574 22.867855877554909 $565 $674 forward 7 unknown #
coedge $-1 $573 $420 $423 $578 reversed $563 $-1 #
coedge $-1 $420 $572 $670 $675 forward $563 $-1 #
vertex $-1 $571 $676 #
straight-curve $-1 41.085238196966458 -15.05435796375918 6.3247269044176582 0 0.82903756765294845 0.55919291073839883 I I #
vertex $-1 $571 $677 #
straight-curve $-1 31.784291080679711 -22.469175343779987 1.3233693361883354 0 0.82903756765294845 0.55919291073839883 I I #
edge $-1 $678 -22.469175343779991 $424 -15.613104011668852 $572 $679 forward 7 unknown #
point $-1 41.085238196966451 -15.613104011668852 5.9478479292238795 #
point $-1 31.784291080679711 -15.613104011668852 5.9478479292238795 #
edge $-1 $680 1 $680 0 $427 $-1 forward 7 unknown #
vertex $-1 $428 $681 #
ellipse-curve $-1 34.441704542475932 -17.940485154024572 2.003821226908296 0 -0.55919291073839883 0.82903756765294845 1 0 0 1 I I #
point $-1 35.441704542475932 -19.041139677724424 3.6356086327061079 #
edge $-1 $682 1 $682 0 $431 $-1 forward 7 unknown #
vertex $-1 $432 $683 #
ellipse-curve $-1 38.427824735170248 -17.940485154024572 2.003821226908296 0 -0.55919291073839883 0.82903756765294845 1 0 0 1 I I #
point $-1 39.427824735170248 -19.041139677724424 3.6356086327061079 #
loop $-1 $-1 $443 $435 #
plane-surface $-1 0 22.469175343779991 0 0 -1 0 0 0 -1 forward_v I I I I #
coedge $-1 $592 $438 $440 $596 reversed $299 $-1 #
coedge $-1 $438 $591 $684 $685 reversed $299 $-1 #
coedge $-1 $446 $441 $438 $594 forward $436 $-1 #
edge $-1 $597 -16.108907454972691 $686 -13.111685274153619 $593 $687 forward 7 unknown #
coedge $-1 $440 $439 $600 $688 reversed $189 $-1 #
edge $-1 $689 -44.938350687559989 $597 -38.94390616530103 $591 $690 forward 7 unknown #
vertex $-1 $442 $691 #
straight-curve $-1 7.4381545260159783 19.471953162960922 5.9478479292238795 1 0 0 I I #
coedge $-1 $684 $443 $446 $604 reversed $589 $-1 #
coedge $-1 $443 $684 $595 $688 forward $589 $-1 #
vertex $-1 $444 $692 #
straight-curve $-1 7.5779648040665428 22.469175343779991 40.379748694147096 0 0 1 I I #
straight-curve $-1 7.5779648040665428 6.0206032514997787e-007 39.674260292204451 0 0.49999998660252726 -0.86602541151947299 I I #
edge $-1 $686 -22.17465329999737 $447 -7.5779648040665428 $599 $693 forward 7 unknown #
point $-1 7.5779648040665428 22.469175343779991 5.9478479292238795 #
point $-1 7.5779648040665428 19.471953162960919 5.9478479292238831 #
edge $-1 $694 1 $694 0 $450 $-1 forward 7 unknown #
vertex $-1 $451 $695 #
ellipse-curve $-1 11.748447231475353 19.068939803197228 2.2542739381331756 0 0.86602541151947299 0.49999998660252726 1 0 0 1 I I #
point $-1 12.748447231475353 20.970564253370455 3.3521772871139133 #
edge $-1 $696 1 $696 0 $454 $-1 forward 7 unknown #
vertex $-1 $455 $697 #
ellipse-curve $-1 18.00417087258856 19.068939803197228 2.2542739381331756 0 0.86602541151947299 0.49999998660252726 1 0 0 1 I I #
point $-1 19.00417087258856 20.970564253370455 3.3521772871139133 #
plane-surface $-1 41.085238196966458 0 0 -1 0 0 0 0 1 forward_v I I I I #
coedge $-1 $463 $461 $465 $620 reversed $321 $-1 #
edge $-1 $476 -5.9478479292238795 $622 5.9478479292238795 $475 $698 forward 7 unknown #
vertex $-1 $620 $699 #
straight-curve $-1 -41.085238196966458 -22.469175343779991 0 0 0 -1 I I #
edge $-1 $618 -22.469175343779991 $622 22.469175343779991 $616 $700 forward 7 unknown #
straight-curve $-1 0 -22.469175343779991 -5.9478479292238795 -1 0 0 I I #
vertex $-1 $468 $701 #
straight-curve $-1 0 22.469175343779991 -5.9478479292238795 1 0 0 I I #
point $-1 41.085238196966458 22.469175343779991 -5.9478479292238795 #
point $-1 41.085238196966458 -22.469175343779991 -5.9478479292238795 #
straight-curve $-1 -41.085238196966458 0 5.9478479292238795 0 -1 0 I I #
point $-1 -41.085238196966458 22.469175343779991 5.9478479292238795 #
point $-1 -41.085238196966458 -22.469175343779991 5.9478479292238795 #
straight-curve $-1 41.085238196966458 -22.469175343779991 0 0 0 -1 I I #
straight-curve $-1 41.085238196966458 22.469175343779991 0 0 0 -1 I I #
edge $-1 $632 28.77504268012537 $635 33.399521273160914 $486 $702 forward 7 unknown #
vertex $-1 $500 $703 #
straight-curve $-1 -29.843566214769972 -34.209161607632112 5.9478479292238795 0 -1 0 I I #
edge $-1 $635 -17.24701988645667 $497 -7.9460727701699287 $496 $704 forward 7 unknown #
vertex $-1 $634 $705 #
straight-curve $-1 -29.843566214769972 -22.469175343779987 1.3233693361883354 0 0.82903756765294845 0.55919291073839883 I I #
point $-1 -29.843566214769972 -15.613104011668852 5.9478479292238795 #
point $-1 -20.542619098483229 -22.469175343779991 1.323369336188333 #
straight-curve $-1 0 -22.469175343779991 5.9478479292238795 1 0 0 I I #
vertex $-1 $503 $706 #
point $-1 -26.186152752973758 -17.940485154024572 2.003821226908296 #
vertex $-1 $507 $707 #
point $-1 -22.200032560279439 -17.940485154024572 2.003821226908296 #
edge $-1 $645 28.77504268012537 $648 33.399521273160914 $512 $708 forward 7 unknown #
vertex $-1 $526 $709 #
straight-curve $-1 -9.3009471162867463 -34.209161607632112 5.9478479292238795 0 -1 0 I I #
edge $-1 $648 -6.9757103372150588 $523 2.325236779071683 $522 $710 forward 7 unknown #
vertex $-1 $647 $711 #
straight-curve $-1 -9.3009471162867463 -22.469175343779987 1.3233693361883354 0 0.82903756765294845 0.55919291073839883 I I #
point $-1 -9.3009471162867463 -15.613104011668852 5.9478479292238795 #
point $-1 -4.4408920985006262e-015 -22.469175343779991 1.323369336188333 #
straight-curve $-1 0 -22.469175343779991 5.9478479292238795 1 0 0 I I #
vertex $-1 $529 $712 #
point $-1 -5.6435336544905255 -17.940485154024572 2.003821226908296 #
vertex $-1 $533 $713 #
point $-1 -1.6574134617962102 -17.940485154024572 2.003821226908296 #
edge $-1 $658 28.77504268012537 $661 33.399521273160914 $538 $714 forward 7 unknown #
vertex $-1 $552 $715 #
straight-curve $-1 11.241671982196483 -34.209161607632112 5.9478479292238795 0 -1 0 I I #
edge $-1 $661 3.2955992120265556 $549 12.596546328313298 $548 $716 forward 7 unknown #
vertex $-1 $660 $717 #
straight-curve $-1 11.241671982196483 -22.469175343779987 1.3233693361883354 0 0.82903756765294845 0.55919291073839883 I I #
point $-1 11.241671982196483 -15.613104011668852 5.9478479292238795 #
point $-1 20.542619098483225 -22.469175343779991 1.323369336188333 #
straight-curve $-1 0 -22.469175343779991 5.9478479292238795 1 0 0 I I #
vertex $-1 $555 $718 #
point $-1 14.899085443992703 -17.940485154024572 2.003821226908296 #
vertex $-1 $559 $719 #
point $-1 18.885205636687019 -17.940485154024572 2.003821226908296 #
coedge $-1 $566 $565 $573 $675 reversed $277 $-1 #
edge $-1 $569 31.784291080679711 $678 41.085238196966458 $566 $720 forward 7 unknown #
straight-curve $-1 31.784291080679711 -22.469175343779991 34.72289060934925 0 0 -1 I I #
point $-1 31.784291080679711 -22.469175343779991 5.9478479292238795 #
straight-curve $-1 18.217382319411541 -22.469175343779991 1.3233693361883305 1 0 0 I I #
edge $-1 $678 -5.9478479292238795 $574 -1.323369336188333 $573 $721 forward 7 unknown #
point $-1 41.085238196966451 -22.469175343779991 1.323369336188333 #
point $-1 31.784291080679711 -22.469175343779991 1.323369336188333 #
vertex $-1 $578 $722 #
straight-curve $-1 41.085238196966458 0 5.9478479292238795 0 1 0 I I #
vertex $-1 $581 $723 #
point $-1 35.441704542475932 -17.940485154024572 2.003821226908296 #
vertex $-1 $585 $724 #
point $-1 39.427824735170248 -17.940485154024572 2.003821226908296 #
coedge $-1 $600 $599 $592 $685 forward $589 $-1 #
edge $-1 $686 34.431900764923213 $689 39.62324204914318 $684 $725 forward 7 unknown #
vertex $-1 $604 $726 #
straight-curve $-1 22.17465329999737 35.58086061793361 5.9478479292238831 0 1 0 I I #
edge $-1 $689 -14.736498773981392 $601 -0.13981027805056456 $600 $727 forward 7 unknown #
vertex $-1 $688 $728 #
straight-curve $-1 22.17465329999737 6.0206032514997787e-007 39.674260292204451 0 -0.49999998660252726 0.86602541151947299 I I #
point $-1 22.17465329999737 19.471953162960919 5.9478479292238831 #
point $-1 7.5779648040665428 22.469175343779991 0.75650664500391684 #
straight-curve $-1 0 22.469175343779991 5.9478479292238795 -1 0 0 I I #
vertex $-1 $607 $729 #
point $-1 12.748447231475353 19.068939803197228 2.2542739381331756 #
vertex $-1 $611 $730 #
point $-1 19.00417087258856 19.068939803197228 2.2542739381331756 #
straight-curve $-1 -41.085238196966458 22.469175343779991 0 0 0 -1 I I #
point $-1 -41.085238196966458 -22.469175343779991 -5.9478479292238795 #
straight-curve $-1 -41.085238196966458 0 -5.9478479292238795 0 1 0 I I #
point $-1 -41.085238196966458 22.469175343779991 -5.9478479292238795 #
straight-curve $-1 -29.843566214769972 -22.469175343779991 34.72289060934925 0 0 -1 I I #
point $-1 -29.843566214769972 -22.469175343779991 5.9478479292238795 #
straight-curve $-1 -12.5965463283133 -22.469175343779991 1.3233693361883305 1 0 0 I I #
point $-1 -29.843566214769972 -22.469175343779991 1.323369336188333 #
point $-1 -27.186152752973758 -17.381292243286175 1.1747836592553478 #
point $-1 -23.200032560279439 -17.381292243286175 1.1747836592553478 #
straight-curve $-1 -9.3009471162867463 -22.469175343779991 34.72289060934925 0 0 -1 I I #
point $-1 -9.3009471162867463 -22.469175343779991 5.9478479292238795 #
straight-curve $-1 -2.3252367790716875 -22.469175343779991 1.3233693361883305 1 0 0 I I #
point $-1 -9.3009471162867463 -22.469175343779991 1.323369336188333 #
point $-1 -6.6435336544905255 -17.381292243286175 1.1747836592553478 #
point $-1 -2.6574134617962102 -17.381292243286175 1.1747836592553478 #
straight-curve $-1 11.241671982196483 -22.469175343779991 34.72289060934925 0 0 -1 I I #
point $-1 11.241671982196483 -22.469175343779991 5.9478479292238795 #
straight-curve $-1 7.946072770169927 -22.469175343779991 1.3233693361883305 1 0 0 I I #
point $-1 11.241671982196483 -22.469175343779991 1.323369336188333 #
point $-1 13.899085443992703 -17.381292243286175 1.1747836592553478 #
point $-1 17.885205636687019 -17.381292243286175 1.1747836592553478 #
straight-curve $-1 0 -22.469175343779991 5.9478479292238795 1 0 0 I I #
straight-curve $-1 41.085238196966458 -22.469175343779991 0 0 0 -1 I I #
point $-1 41.085238196966458 -22.469175343779991 5.9478479292238795 #
point $-1 34.441704542475932 -17.381292243286175 1.1747836592553478 #
point $-1 38.427824735170248 -17.381292243286175 1.1747836592553478 #
straight-curve $-1 22.17465329999737 22.469175343779991 40.379748694147096 0 0 -1 I I #
point $-1 22.17465329999737 22.469175343779991 5.9478479292238795 #
straight-curve $-1 7.4381545260159783 22.469175343779995 0.7565066450039204 -1 0 0 I I #
point $-1 22.17465329999737 22.469175343779991 0.75650664500391684 #
point $-1 11.748447231475353 18.202914391677755 1.7542739515306482 #
point $-1 18.00417087258856 18.202914391677755 1.7542739515306482 #
End-of-ACIS-data 