500 0 11 0           
7 Unknown 11 ACIS 5.0 NT 24 Fri Mar 26 14:59:54 1999 
-1 9.9999999999999995e-007 1e-010 
body $-1 $11 $-1 $12 #
body $-1 $13 $-1 $14 #
body $-1 $15 $-1 $16 #
body $-1 $17 $-1 $18 #
body $-1 $19 $-1 $20 #
body $-1 $21 $-1 $22 #
body $-1 $23 $-1 $24 #
body $-1 $25 $-1 $26 #
body $-1 $27 $-1 $28 #
body $-1 $29 $-1 $30 #
body $-1 $31 $-1 $32 #
lump $-1 $-1 $33 $0 #
transform $-1 1 0 0 0 1 0 0 0 1 64.058351390118105 33.718656797123323 15.962826008911897 1 rotate no_reflect no_shear #
lump $-1 $-1 $34 $1 #
transform $-1 1 0 0 0 0.7313536940579346 -0.68199836817093118 0 0.68199836817093118 0.7313536940579346 14.636337237768691 105.49216741131229 167.05693433367142 1 rotate no_reflect no_shear #
lump $-1 $-1 $35 $2 #
transform $-1 1 0 0 0 -0.7313536940579346 0.68199836817093118 0 -0.68199836817093118 -0.7313536940579346 8.3636212787249669 60.453261005426597 24.77807576333889 1 rotate no_reflect no_shear #
lump $-1 $-1 $36 $3 #
transform $-1 1 0 0 0 -0.7313536940579346 0.68199836817093118 0 -0.68199836817093118 -0.7313536940579346 20.909053196812415 60.453261005426597 24.77807576333889 1 rotate no_reflect no_shear #
lump $-1 $-1 $37 $4 #
transform $-1 1 0 0 0 0.7313536940579346 -0.68199836817093118 0 0.68199836817093118 0.7313536940579346 113.48036554246751 105.49216741131229 167.05693433367142 1 rotate no_reflect no_shear #
lump $-1 $-1 $38 $5 #
transform $-1 1 0 0 0 -0.7313536940579346 0.68199836817093118 0 -0.68199836817093118 -0.7313536940579346 107.20764958342379 60.453261005426597 24.77807576333889 1 rotate no_reflect no_shear #
lump $-1 $-1 $39 $6 #
transform $-1 1 0 0 0 -0.7313536940579346 0.68199836817093118 0 -0.68199836817093118 -0.7313536940579346 119.75308150151125 60.453261005426597 24.77807576333889 1 rotate no_reflect no_shear #
lump $-1 $-1 $40 $7 #
transform $-1 1 0 0 0 0.81915203911291934 0.57357644374324357 0 -0.57357644374324357 0.81915203911291934 27.516287698749082 -73.484722764798008 127.43540742353748 1 rotate no_reflect no_shear #
lump $-1 $-1 $41 $8 #
transform $-1 1 0 0 0 -0.81915203911291934 -0.57357644374324357 0 0.57357644374324357 -0.81915203911291934 17.55734203742788 14.385641119422241 16.28636916329036 1 rotate no_reflect no_shear #
lump $-1 $-1 $42 $9 #
transform $-1 1 0 0 0 -0.81915203911291934 -0.57357644374324357 0 0.57357644374324357 -0.81915203911291934 27.516287698749082 14.385641119422241 16.28636916329036 1 rotate no_reflect no_shear #
lump $-1 $-1 $43 $10 #
transform $-1 1 0 0 0 -0.81915203911291934 -0.57357644374324357 0 0.57357644374324357 -0.81915203911291934 37.475233360070284 14.385641119422241 16.28636916329036 1 rotate no_reflect no_shear #
shell $-1 $-1 $-1 $44 $-1 $11 #
shell $-1 $-1 $-1 $45 $-1 $13 #
shell $-1 $-1 $-1 $46 $-1 $15 #
shell $-1 $-1 $-1 $47 $-1 $17 #
shell $-1 $-1 $-1 $48 $-1 $19 #
shell $-1 $-1 $-1 $49 $-1 $21 #
shell $-1 $-1 $-1 $50 $-1 $23 #
shell $-1 $-1 $-1 $51 $-1 $25 #
shell $-1 $-1 $-1 $52 $-1 $27 #
shell $-1 $-1 $-1 $53 $-1 $29 #
shell $-1 $-1 $-1 $54 $-1 $31 #
face $-1 $55 $56 $33 $-1 $57 forward single #
face $-1 $58 $59 $34 $-1 $60 forward single #
face $-1 $61 $62 $35 $-1 $63 forward single #
face $-1 $64 $65 $36 $-1 $66 forward single #
face $-1 $67 $68 $37 $-1 $69 forward single #
face $-1 $70 $71 $38 $-1 $72 forward single #
face $-1 $73 $74 $39 $-1 $75 forward single #
face $-1 $76 $77 $40 $-1 $78 forward single #
face $-1 $79 $80 $41 $-1 $81 forward single #
face $-1 $82 $83 $42 $-1 $84 forward single #
face $-1 $85 $86 $43 $-1 $87 forward single #
face $-1 $88 $89 $33 $-1 $90 reversed single #
loop $-1 $-1 $91 $44 #
plane-surface $-1 0 0 15.962826008911897 0 0 1 1 0 0 forward_v I I I I #
face $-1 $92 $93 $34 $-1 $94 reversed single #
loop $-1 $-1 $95 $45 #
plane-surface $-1 0 0 128.11670278023621 0 0 1 1 0 0 forward_v I I I I #
face $-1 $96 $97 $35 $-1 $98 forward single #
loop $-1 $99 $100 $46 #
cone-surface $-1 0 0 -3.7029633472701171 0 0 1 1.5 0 0 1 I I 0 1 1.5 forward I I I I #
face $-1 $101 $102 $36 $-1 $103 forward single #
loop $-1 $104 $105 $47 #
cone-surface $-1 0 0 -3.7029633472701171 0 0 1 1.5 0 0 1 I I 0 1 1.5 forward I I I I #
face $-1 $106 $107 $37 $-1 $108 reversed single #
loop $-1 $-1 $109 $48 #
plane-surface $-1 0 0 128.11670278023621 0 0 1 1 0 0 forward_v I I I I #
face $-1 $110 $111 $38 $-1 $112 forward single #
loop $-1 $113 $114 $49 #
cone-surface $-1 0 0 -3.7029633472701171 0 0 1 1.5 0 0 1 I I 0 1 1.5 forward I I I I #
face $-1 $115 $116 $39 $-1 $117 forward single #
loop $-1 $118 $119 $50 #
cone-surface $-1 0 0 -3.7029633472701171 0 0 1 1.5 0 0 1 I I 0 1 1.5 forward I I I I #
face $-1 $120 $121 $40 $-1 $122 reversed single #
loop $-1 $-1 $123 $51 #
plane-surface $-1 0 0 128.11670278023621 0 0 1 1 0 0 forward_v I I I I #
face $-1 $124 $125 $41 $-1 $126 forward single #
loop $-1 $127 $128 $52 #
cone-surface $-1 0 0 -7.4158146916104624 0 0 1 3 0 0 1 I I 0 1 3 forward I I I I #
face $-1 $129 $130 $42 $-1 $131 forward single #
loop $-1 $132 $133 $53 #
cone-surface $-1 0 0 -7.4158146916104624 0 0 1 3 0 0 1 I I 0 1 3 forward I I I I #
face $-1 $134 $135 $43 $-1 $136 forward single #
loop $-1 $137 $138 $54 #
cone-surface $-1 0 0 -7.4158146916104624 0 0 1 3 0 0 1 I I 0 1 3 forward I I I I #
face $-1 $139 $140 $33 $-1 $141 reversed single #
loop $-1 $-1 $142 $55 #
plane-surface $-1 0 0 -15.962826008911897 0 0 1 1 0 0 forward_v I I I I #
coedge $-1 $143 $144 $145 $146 forward $56 $-1 #
face $-1 $147 $148 $34 $-1 $149 reversed single #
loop $-1 $-1 $150 $58 #
plane-surface $-1 0 0 -128.11670278023621 0 0 1 1 0 0 forward_v I I I I #
coedge $-1 $151 $152 $153 $154 forward $59 $-1 #
face $-1 $-1 $155 $35 $-1 $156 forward single #
loop $-1 $-1 $157 $61 #
plane-surface $-1 0 0 -6.655926694540236 0 0 -1 -1 0 0 forward_v I I I I #
loop $-1 $-1 $158 $46 #
coedge $-1 $100 $100 $157 $159 reversed $62 $-1 #
face $-1 $-1 $160 $36 $-1 $161 forward single #
loop $-1 $-1 $162 $64 #
plane-surface $-1 0 0 -6.655926694540236 0 0 -1 -1 0 0 forward_v I I I I #
loop $-1 $-1 $163 $47 #
coedge $-1 $105 $105 $162 $164 reversed $65 $-1 #
face $-1 $165 $166 $37 $-1 $167 reversed single #
loop $-1 $-1 $168 $67 #
plane-surface $-1 0 0 -128.11670278023621 0 0 1 1 0 0 forward_v I I I I #
coedge $-1 $169 $170 $171 $172 forward $68 $-1 #
face $-1 $-1 $173 $38 $-1 $174 forward single #
loop $-1 $-1 $175 $70 #
plane-surface $-1 0 0 -6.655926694540236 0 0 -1 -1 0 0 forward_v I I I I #
loop $-1 $-1 $176 $49 #
coedge $-1 $114 $114 $175 $177 reversed $71 $-1 #
face $-1 $-1 $178 $39 $-1 $179 forward single #
loop $-1 $-1 $180 $73 #
plane-surface $-1 0 0 -6.655926694540236 0 0 -1 -1 0 0 forward_v I I I I #
loop $-1 $-1 $181 $50 #
coedge $-1 $119 $119 $180 $182 reversed $74 $-1 #
face $-1 $183 $184 $40 $-1 $185 reversed single #
loop $-1 $-1 $186 $76 #
plane-surface $-1 0 0 -128.11670278023621 0 0 1 1 0 0 forward_v I I I I #
coedge $-1 $187 $188 $189 $190 forward $77 $-1 #
face $-1 $-1 $191 $41 $-1 $192 forward single #
loop $-1 $-1 $193 $79 #
plane-surface $-1 0 0 -13.331629383220925 0 0 -1 -1 0 0 forward_v I I I I #
loop $-1 $-1 $194 $52 #
coedge $-1 $128 $128 $193 $195 reversed $80 $-1 #
face $-1 $-1 $196 $42 $-1 $197 forward single #
loop $-1 $-1 $198 $82 #
plane-surface $-1 0 0 -13.331629383220925 0 0 -1 -1 0 0 forward_v I I I I #
loop $-1 $-1 $199 $53 #
coedge $-1 $133 $133 $198 $200 reversed $83 $-1 #
face $-1 $-1 $201 $43 $-1 $202 forward single #
loop $-1 $-1 $203 $85 #
plane-surface $-1 0 0 -13.331629383220925 0 0 -1 -1 0 0 forward_v I I I I #
loop $-1 $-1 $204 $54 #
coedge $-1 $138 $138 $203 $205 reversed $86 $-1 #
face $-1 $206 $207 $33 $-1 $208 reversed single #
loop $-1 $-1 $209 $88 #
plane-surface $-1 0 -33.718656797123323 0 0 1 0 0 0 1 forward_v I I I I #
coedge $-1 $210 $211 $212 $213 forward $89 $-1 #
coedge $-1 $214 $91 $215 $216 forward $56 $-1 #
coedge $-1 $91 $214 $217 $218 forward $56 $-1 #
coedge $-1 $219 $220 $91 $146 reversed $221 $-1 #
edge $-1 $222 -33.718656797123323 $223 33.718656797123323 $145 $224 forward 7 unknown #
face $-1 $225 $226 $34 $-1 $227 reversed single #
loop $-1 $-1 $228 $92 #
plane-surface $-1 0 -256.23340556047242 0 0 1 0 0 0 1 forward_v I I I I #
coedge $-1 $229 $230 $231 $232 forward $93 $-1 #
coedge $-1 $233 $95 $234 $235 forward $59 $-1 #
coedge $-1 $95 $233 $236 $237 forward $59 $-1 #
coedge $-1 $238 $239 $95 $154 reversed $240 $-1 #
edge $-1 $241 -256.23340556047242 $242 256.23340556047242 $153 $243 forward 7 unknown #
loop $-1 $244 $245 $96 #
cone-surface $-1 0 0 0 0 0 1 0.75 0 0 1 I I -0.70710678118654757 0.70710678118654757 0.75 forward I I I I #
coedge $-1 $157 $157 $100 $159 forward $97 $-1 #
coedge $-1 $158 $158 $245 $246 forward $99 $-1 #
edge $-1 $247 0 $247 6.2831853071796004 $157 $248 forward 7 unknown #
loop $-1 $249 $250 $101 #
cone-surface $-1 0 0 0 0 0 1 0.75 0 0 1 I I -0.70710678118654757 0.70710678118654757 0.75 forward I I I I #
coedge $-1 $162 $162 $105 $164 forward $102 $-1 #
coedge $-1 $163 $163 $250 $251 forward $104 $-1 #
edge $-1 $252 0 $252 6.2831853071796004 $162 $253 forward 7 unknown #
face $-1 $254 $255 $37 $-1 $256 reversed single #
loop $-1 $-1 $257 $106 #
plane-surface $-1 0 -256.23340556047242 0 0 1 0 0 0 1 forward_v I I I I #
coedge $-1 $258 $259 $260 $261 forward $107 $-1 #
coedge $-1 $262 $109 $263 $264 forward $68 $-1 #
coedge $-1 $109 $262 $265 $266 forward $68 $-1 #
coedge $-1 $267 $268 $109 $172 reversed $269 $-1 #
edge $-1 $270 -256.23340556047242 $271 256.23340556047242 $171 $272 forward 7 unknown #
loop $-1 $273 $274 $110 #
cone-surface $-1 0 0 0 0 0 1 0.75 0 0 1 I I -0.70710678118654757 0.70710678118654757 0.75 forward I I I I #
coedge $-1 $175 $175 $114 $177 forward $111 $-1 #
coedge $-1 $176 $176 $274 $275 forward $113 $-1 #
edge $-1 $276 0 $276 6.2831853071796004 $175 $277 forward 7 unknown #
loop $-1 $278 $279 $115 #
cone-surface $-1 0 0 0 0 0 1 0.75 0 0 1 I I -0.70710678118654757 0.70710678118654757 0.75 forward I I I I #
coedge $-1 $180 $180 $119 $182 forward $116 $-1 #
coedge $-1 $181 $181 $279 $280 forward $118 $-1 #
edge $-1 $281 0 $281 6.2831853071796004 $180 $282 forward 7 unknown #
face $-1 $283 $284 $40 $-1 $285 reversed single #
loop $-1 $-1 $286 $120 #
plane-surface $-1 0 -256.23340556047242 0 0 1 0 0 0 1 forward_v I I I I #
coedge $-1 $287 $288 $289 $290 forward $121 $-1 #
coedge $-1 $291 $123 $292 $293 forward $77 $-1 #
coedge $-1 $123 $291 $294 $295 forward $77 $-1 #
coedge $-1 $296 $297 $123 $190 reversed $298 $-1 #
edge $-1 $299 -256.23340556047242 $300 256.23340556047242 $189 $301 forward 7 unknown #
loop $-1 $302 $303 $124 #
cone-surface $-1 0 0 0 0 0 1 1.5 0 0 1 I I -0.70710678118654757 0.70710678118654757 1.5 forward I I I I #
coedge $-1 $193 $193 $128 $195 forward $125 $-1 #
coedge $-1 $194 $194 $303 $304 forward $127 $-1 #
edge $-1 $305 0 $305 6.2831853071796004 $193 $306 forward 7 unknown #
loop $-1 $307 $308 $129 #
cone-surface $-1 0 0 0 0 0 1 1.5 0 0 1 I I -0.70710678118654757 0.70710678118654757 1.5 forward I I I I #
coedge $-1 $198 $198 $133 $200 forward $130 $-1 #
coedge $-1 $199 $199 $308 $309 forward $132 $-1 #
edge $-1 $310 0 $310 6.2831853071796004 $198 $311 forward 7 unknown #
loop $-1 $312 $313 $134 #
cone-surface $-1 0 0 0 0 0 1 1.5 0 0 1 I I -0.70710678118654757 0.70710678118654757 1.5 forward I I I I #
coedge $-1 $203 $203 $138 $205 forward $135 $-1 #
coedge $-1 $204 $204 $313 $314 forward $137 $-1 #
edge $-1 $315 0 $315 6.2831853071796004 $203 $316 forward 7 unknown #
face $-1 $317 $318 $33 $-1 $319 reversed single #
loop $-1 $-1 $320 $139 #
plane-surface $-1 -64.058351390118105 0 0 1 0 0 0 0 -1 forward_v I I I I #
coedge $-1 $321 $217 $322 $323 forward $140 $-1 #
coedge $-1 $324 $142 $321 $325 forward $89 $-1 #
coedge $-1 $142 $324 $326 $327 forward $89 $-1 #
coedge $-1 $220 $219 $142 $213 reversed $221 $-1 #
edge $-1 $328 -33.718656797123323 $329 33.718656797123323 $212 $330 forward 7 unknown #
coedge $-1 $144 $143 $331 $332 forward $56 $-1 #
coedge $-1 $333 $334 $143 $216 reversed $318 $-1 #
edge $-1 $223 -64.058351390118105 $335 64.058351390118105 $215 $336 forward 7 unknown #
coedge $-1 $209 $337 $144 $218 reversed $140 $-1 #
edge $-1 $338 -64.058351390118105 $222 64.058351390118105 $217 $339 forward 7 unknown #
coedge $-1 $212 $145 $337 $340 forward $221 $-1 #
coedge $-1 $145 $212 $333 $341 reversed $221 $-1 #
loop $-1 $-1 $219 $317 #
vertex $-1 $146 $342 #
vertex $-1 $146 $343 #
straight-curve $-1 64.058351390118105 0 15.962826008911897 0 1 0 I I #
face $-1 $344 $345 $34 $-1 $346 reversed single #
loop $-1 $-1 $347 $147 #
plane-surface $-1 -14.636337237768691 0 0 1 0 0 0 0 -1 forward_v I I I I #
coedge $-1 $348 $236 $349 $350 forward $148 $-1 #
coedge $-1 $351 $150 $348 $352 forward $93 $-1 #
coedge $-1 $150 $351 $353 $354 forward $93 $-1 #
coedge $-1 $239 $238 $150 $232 reversed $240 $-1 #
edge $-1 $355 -256.23340556047242 $356 256.23340556047242 $231 $357 forward 7 unknown #
coedge $-1 $152 $151 $358 $359 forward $59 $-1 #
coedge $-1 $360 $361 $151 $235 reversed $345 $-1 #
edge $-1 $242 -14.636337237768691 $362 14.636337237768691 $234 $363 forward 7 unknown #
coedge $-1 $228 $364 $152 $237 reversed $148 $-1 #
edge $-1 $365 -14.636337237768691 $241 14.636337237768691 $236 $366 forward 7 unknown #
coedge $-1 $231 $153 $364 $367 forward $240 $-1 #
coedge $-1 $153 $231 $360 $368 reversed $240 $-1 #
loop $-1 $-1 $238 $344 #
vertex $-1 $154 $369 #
vertex $-1 $154 $370 #
straight-curve $-1 14.636337237768691 0 128.11670278023621 0 1 0 I I #
loop $-1 $-1 $371 $96 #
coedge $-1 $245 $245 $158 $246 reversed $155 $-1 #
edge $-1 $372 0 $372 6.2831853071796004 $245 $373 forward 7 unknown #
vertex $-1 $159 $374 #
ellipse-curve $-1 0 0 -6.655926694540236 0 0 -1 1.5 0 0 1 I I #
loop $-1 $-1 $375 $101 #
coedge $-1 $250 $250 $163 $251 reversed $160 $-1 #
edge $-1 $376 0 $376 6.2831853071796004 $250 $377 forward 7 unknown #
vertex $-1 $164 $378 #
ellipse-curve $-1 0 0 -6.655926694540236 0 0 -1 1.5 0 0 1 I I #
face $-1 $379 $380 $37 $-1 $381 reversed single #
loop $-1 $-1 $382 $165 #
plane-surface $-1 -14.636337237768691 0 0 1 0 0 0 0 -1 forward_v I I I I #
coedge $-1 $383 $265 $384 $385 forward $166 $-1 #
coedge $-1 $386 $168 $383 $387 forward $107 $-1 #
coedge $-1 $168 $386 $388 $389 forward $107 $-1 #
coedge $-1 $268 $267 $168 $261 reversed $269 $-1 #
edge $-1 $390 -256.23340556047242 $391 256.23340556047242 $260 $392 forward 7 unknown #
coedge $-1 $170 $169 $393 $394 forward $68 $-1 #
coedge $-1 $395 $396 $169 $264 reversed $380 $-1 #
edge $-1 $271 -14.636337237768691 $397 14.636337237768691 $263 $398 forward 7 unknown #
coedge $-1 $257 $399 $170 $266 reversed $166 $-1 #
edge $-1 $400 -14.636337237768691 $270 14.636337237768691 $265 $401 forward 7 unknown #
coedge $-1 $260 $171 $399 $402 forward $269 $-1 #
coedge $-1 $171 $260 $395 $403 reversed $269 $-1 #
loop $-1 $-1 $267 $379 #
vertex $-1 $172 $404 #
vertex $-1 $172 $405 #
straight-curve $-1 14.636337237768691 0 128.11670278023621 0 1 0 I I #
loop $-1 $-1 $406 $110 #
coedge $-1 $274 $274 $176 $275 reversed $173 $-1 #
edge $-1 $407 0 $407 6.2831853071796004 $274 $408 forward 7 unknown #
vertex $-1 $177 $409 #
ellipse-curve $-1 0 0 -6.655926694540236 0 0 -1 1.5 0 0 1 I I #
loop $-1 $-1 $410 $115 #
coedge $-1 $279 $279 $181 $280 reversed $178 $-1 #
edge $-1 $411 0 $411 6.2831853071796004 $279 $412 forward 7 unknown #
vertex $-1 $182 $413 #
ellipse-curve $-1 0 0 -6.655926694540236 0 0 -1 1.5 0 0 1 I I #
face $-1 $414 $415 $40 $-1 $416 reversed single #
loop $-1 $-1 $417 $183 #
plane-surface $-1 -16.598242768868673 0 0 1 0 0 0 0 -1 forward_v I I I I #
coedge $-1 $418 $294 $419 $420 forward $184 $-1 #
coedge $-1 $421 $186 $418 $422 forward $121 $-1 #
coedge $-1 $186 $421 $423 $424 forward $121 $-1 #
coedge $-1 $297 $296 $186 $290 reversed $298 $-1 #
edge $-1 $425 -256.23340556047242 $426 256.23340556047242 $289 $427 forward 7 unknown #
coedge $-1 $188 $187 $428 $429 forward $77 $-1 #
coedge $-1 $430 $431 $187 $293 reversed $415 $-1 #
edge $-1 $300 -16.598242768868673 $432 16.598242768868673 $292 $433 forward 7 unknown #
coedge $-1 $286 $434 $188 $295 reversed $184 $-1 #
edge $-1 $435 -16.598242768868673 $299 16.598242768868673 $294 $436 forward 7 unknown #
coedge $-1 $289 $189 $434 $437 forward $298 $-1 #
coedge $-1 $189 $289 $430 $438 reversed $298 $-1 #
loop $-1 $-1 $296 $414 #
vertex $-1 $190 $439 #
vertex $-1 $190 $440 #
straight-curve $-1 16.598242768868673 0 128.11670278023621 0 1 0 I I #
loop $-1 $-1 $441 $124 #
coedge $-1 $303 $303 $194 $304 reversed $191 $-1 #
edge $-1 $442 0 $442 6.2831853071796004 $303 $443 forward 7 unknown #
vertex $-1 $195 $444 #
ellipse-curve $-1 0 0 -13.331629383220925 0 0 -1 3 0 0 1 I I #
loop $-1 $-1 $445 $129 #
coedge $-1 $308 $308 $199 $309 reversed $196 $-1 #
edge $-1 $446 0 $446 6.2831853071796004 $308 $447 forward 7 unknown #
vertex $-1 $200 $448 #
ellipse-curve $-1 0 0 -13.331629383220925 0 0 -1 3 0 0 1 I I #
loop $-1 $-1 $449 $134 #
coedge $-1 $313 $313 $204 $314 reversed $201 $-1 #
edge $-1 $450 0 $450 6.2831853071796004 $313 $451 forward 7 unknown #
vertex $-1 $205 $452 #
ellipse-curve $-1 0 0 -13.331629383220925 0 0 -1 3 0 0 1 I I #
face $-1 $-1 $221 $33 $-1 $453 reversed single #
loop $-1 $-1 $333 $206 #
plane-surface $-1 0 33.718656797123323 0 0 -1 0 0 0 -1 forward_v I I I I #
coedge $-1 $454 $331 $334 $455 forward $207 $-1 #
coedge $-1 $337 $209 $210 $325 reversed $140 $-1 #
coedge $-1 $331 $454 $209 $323 reversed $207 $-1 #
edge $-1 $338 -15.962826008911897 $456 15.962826008911897 $322 $457 forward 7 unknown #
coedge $-1 $211 $210 $454 $458 forward $89 $-1 #
edge $-1 $329 -64.058351390118105 $456 64.058351390118105 $321 $459 forward 7 unknown #
coedge $-1 $334 $333 $211 $327 reversed $318 $-1 #
edge $-1 $460 -64.058351390118105 $328 64.058351390118105 $326 $461 forward 7 unknown #
vertex $-1 $213 $462 #
vertex $-1 $340 $463 #
straight-curve $-1 64.058351390118105 0 -15.962826008911897 0 -1 0 I I #
coedge $-1 $320 $322 $214 $332 reversed $207 $-1 #
edge $-1 $335 -33.718656797123323 $338 33.718656797123323 $331 $464 forward 7 unknown #
coedge $-1 $326 $215 $220 $341 forward $318 $-1 #
coedge $-1 $215 $326 $320 $455 reversed $318 $-1 #
vertex $-1 $216 $465 #
straight-curve $-1 0 33.718656797123323 15.962826008911897 -1 0 0 I I #
coedge $-1 $217 $321 $219 $340 reversed $140 $-1 #
vertex $-1 $332 $466 #
straight-curve $-1 0 -33.718656797123323 15.962826008911897 1 0 0 I I #
edge $-1 $222 -15.962826008911897 $329 15.962826008911897 $219 $467 forward 7 unknown #
edge $-1 $223 -15.962826008911897 $328 15.962826008911897 $220 $468 forward 7 unknown #
point $-1 64.058351390118105 -33.718656797123323 15.962826008911897 #
point $-1 64.058351390118105 33.718656797123323 15.962826008911897 #
face $-1 $-1 $240 $34 $-1 $469 reversed single #
loop $-1 $-1 $360 $225 #
plane-surface $-1 0 256.23340556047242 0 0 -1 0 0 0 -1 forward_v I I I I #
coedge $-1 $470 $358 $361 $471 forward $226 $-1 #
coedge $-1 $364 $228 $229 $352 reversed $148 $-1 #
coedge $-1 $358 $470 $228 $350 reversed $226 $-1 #
edge $-1 $365 -128.11670278023621 $472 128.11670278023621 $349 $473 forward 7 unknown #
coedge $-1 $230 $229 $470 $474 forward $93 $-1 #
edge $-1 $356 -14.636337237768691 $472 14.636337237768691 $348 $475 forward 7 unknown #
coedge $-1 $361 $360 $230 $354 reversed $345 $-1 #
edge $-1 $476 -14.636337237768691 $355 14.636337237768691 $353 $477 forward 7 unknown #
vertex $-1 $232 $478 #
vertex $-1 $367 $479 #
straight-curve $-1 14.636337237768691 0 -128.11670278023621 0 -1 0 I I #
coedge $-1 $347 $349 $233 $359 reversed $226 $-1 #
edge $-1 $362 -256.23340556047242 $365 256.23340556047242 $358 $480 forward 7 unknown #
coedge $-1 $353 $234 $239 $368 forward $345 $-1 #
coedge $-1 $234 $353 $347 $471 reversed $345 $-1 #
vertex $-1 $235 $481 #
straight-curve $-1 0 256.23340556047242 128.11670278023621 -1 0 0 I I #
coedge $-1 $236 $348 $238 $367 reversed $148 $-1 #
vertex $-1 $359 $482 #
straight-curve $-1 0 -256.23340556047242 128.11670278023621 1 0 0 I I #
edge $-1 $241 -128.11670278023621 $356 128.11670278023621 $238 $483 forward 7 unknown #
edge $-1 $242 -128.11670278023621 $355 128.11670278023621 $239 $484 forward 7 unknown #
point $-1 14.636337237768691 -256.23340556047242 128.11670278023621 #
point $-1 14.636337237768691 256.23340556047242 128.11670278023621 #
coedge $-1 $371 $371 $-1 $485 reversed $244 $-1 #
vertex $-1 $246 $486 #
ellipse-curve $-1 0 0 -0.75 0 0 -1 1.5 0 0 1 I I #
point $-1 1.5 0 -6.655926694540236 #
coedge $-1 $375 $375 $-1 $487 reversed $249 $-1 #
vertex $-1 $251 $488 #
ellipse-curve $-1 0 0 -0.75 0 0 -1 1.5 0 0 1 I I #
point $-1 1.5 0 -6.655926694540236 #
face $-1 $-1 $269 $37 $-1 $489 reversed single #
loop $-1 $-1 $395 $254 #
plane-surface $-1 0 256.23340556047242 0 0 -1 0 0 0 -1 forward_v I I I I #
coedge $-1 $490 $393 $396 $491 forward $255 $-1 #
coedge $-1 $399 $257 $258 $387 reversed $166 $-1 #
coedge $-1 $393 $490 $257 $385 reversed $255 $-1 #
edge $-1 $400 -128.11670278023621 $492 128.11670278023621 $384 $493 forward 7 unknown #
coedge $-1 $259 $258 $490 $494 forward $107 $-1 #
edge $-1 $391 -14.636337237768691 $492 14.636337237768691 $383 $495 forward 7 unknown #
coedge $-1 $396 $395 $259 $389 reversed $380 $-1 #
edge $-1 $496 -14.636337237768691 $390 14.636337237768691 $388 $497 forward 7 unknown #
vertex $-1 $261 $498 #
vertex $-1 $402 $499 #
straight-curve $-1 14.636337237768691 0 -128.11670278023621 0 -1 0 I I #
coedge $-1 $382 $384 $262 $394 reversed $255 $-1 #
edge $-1 $397 -256.23340556047242 $400 256.23340556047242 $393 $500 forward 7 unknown #
coedge $-1 $388 $263 $268 $403 forward $380 $-1 #
coedge $-1 $263 $388 $382 $491 reversed $380 $-1 #
vertex $-1 $264 $501 #
straight-curve $-1 0 256.23340556047242 128.11670278023621 -1 0 0 I I #
coedge $-1 $265 $383 $267 $402 reversed $166 $-1 #
vertex $-1 $394 $502 #
straight-curve $-1 0 -256.23340556047242 128.11670278023621 1 0 0 I I #
edge $-1 $270 -128.11670278023621 $391 128.11670278023621 $267 $503 forward 7 unknown #
edge $-1 $271 -128.11670278023621 $390 128.11670278023621 $268 $504 forward 7 unknown #
point $-1 14.636337237768691 -256.23340556047242 128.11670278023621 #
point $-1 14.636337237768691 256.23340556047242 128.11670278023621 #
coedge $-1 $406 $406 $-1 $505 reversed $273 $-1 #
vertex $-1 $275 $506 #
ellipse-curve $-1 0 0 -0.75 0 0 -1 1.5 0 0 1 I I #
point $-1 1.5 0 -6.655926694540236 #
coedge $-1 $410 $410 $-1 $507 reversed $278 $-1 #
vertex $-1 $280 $508 #
ellipse-curve $-1 0 0 -0.75 0 0 -1 1.5 0 0 1 I I #
point $-1 1.5 0 -6.655926694540236 #
face $-1 $-1 $298 $40 $-1 $509 reversed single #
loop $-1 $-1 $430 $283 #
plane-surface $-1 0 256.23340556047242 0 0 -1 0 0 0 -1 forward_v I I I I #
coedge $-1 $510 $428 $431 $511 forward $284 $-1 #
coedge $-1 $434 $286 $287 $422 reversed $184 $-1 #
coedge $-1 $428 $510 $286 $420 reversed $284 $-1 #
edge $-1 $435 -128.11670278023621 $512 128.11670278023621 $419 $513 forward 7 unknown #
coedge $-1 $288 $287 $510 $514 forward $121 $-1 #
edge $-1 $426 -16.598242768868673 $512 16.598242768868673 $418 $515 forward 7 unknown #
coedge $-1 $431 $430 $288 $424 reversed $415 $-1 #
edge $-1 $516 -16.598242768868673 $425 16.598242768868673 $423 $517 forward 7 unknown #
vertex $-1 $290 $518 #
vertex $-1 $437 $519 #
straight-curve $-1 16.598242768868673 0 -128.11670278023621 0 -1 0 I I #
coedge $-1 $417 $419 $291 $429 reversed $284 $-1 #
edge $-1 $432 -256.23340556047242 $435 256.23340556047242 $428 $520 forward 7 unknown #
coedge $-1 $423 $292 $297 $438 forward $415 $-1 #
coedge $-1 $292 $423 $417 $511 reversed $415 $-1 #
vertex $-1 $293 $521 #
straight-curve $-1 0 256.23340556047242 128.11670278023621 -1 0 0 I I #
coedge $-1 $294 $418 $296 $437 reversed $184 $-1 #
vertex $-1 $429 $522 #
straight-curve $-1 0 -256.23340556047242 128.11670278023621 1 0 0 I I #
edge $-1 $299 -128.11670278023621 $426 128.11670278023621 $296 $523 forward 7 unknown #
edge $-1 $300 -128.11670278023621 $425 128.11670278023621 $297 $524 forward 7 unknown #
point $-1 16.598242768868673 -256.23340556047242 128.11670278023621 #
point $-1 16.598242768868673 256.23340556047242 128.11670278023621 #
coedge $-1 $441 $441 $-1 $525 reversed $302 $-1 #
vertex $-1 $304 $526 #
ellipse-curve $-1 0 0 -1.5 0 0 -1 3 0 0 1 I I #
point $-1 3 0 -13.331629383220925 #
coedge $-1 $445 $445 $-1 $527 reversed $307 $-1 #
vertex $-1 $309 $528 #
ellipse-curve $-1 0 0 -1.5 0 0 -1 3 0 0 1 I I #
point $-1 3 0 -13.331629383220925 #
coedge $-1 $449 $449 $-1 $529 reversed $312 $-1 #
vertex $-1 $314 $530 #
ellipse-curve $-1 0 0 -1.5 0 0 -1 3 0 0 1 I I #
point $-1 3 0 -13.331629383220925 #
plane-surface $-1 64.058351390118105 0 0 -1 0 0 0 0 1 forward_v I I I I #
coedge $-1 $322 $320 $324 $458 reversed $207 $-1 #
edge $-1 $335 -15.962826008911897 $460 15.962826008911897 $334 $531 forward 7 unknown #
vertex $-1 $458 $532 #
straight-curve $-1 -64.058351390118105 -33.718656797123323 0 0 0 -1 I I #
edge $-1 $456 -33.718656797123323 $460 33.718656797123323 $454 $533 forward 7 unknown #
straight-curve $-1 0 -33.718656797123323 -15.962826008911897 -1 0 0 I I #
vertex $-1 $327 $534 #
straight-curve $-1 0 33.718656797123323 -15.962826008911897 1 0 0 I I #
point $-1 64.058351390118105 33.718656797123323 -15.962826008911897 #
point $-1 64.058351390118105 -33.718656797123323 -15.962826008911897 #
straight-curve $-1 -64.058351390118105 0 15.962826008911897 0 -1 0 I I #
point $-1 -64.058351390118105 33.718656797123323 15.962826008911897 #
point $-1 -64.058351390118105 -33.718656797123323 15.962826008911897 #
straight-curve $-1 64.058351390118105 -33.718656797123323 0 0 0 -1 I I #
straight-curve $-1 64.058351390118105 33.718656797123323 0 0 0 -1 I I #
plane-surface $-1 14.636337237768691 0 0 -1 0 0 0 0 1 forward_v I I I I #
coedge $-1 $349 $347 $351 $474 reversed $226 $-1 #
edge $-1 $362 -128.11670278023621 $476 128.11670278023621 $361 $535 forward 7 unknown #
vertex $-1 $474 $536 #
straight-curve $-1 -14.636337237768691 -256.23340556047242 0 0 0 -1 I I #
edge $-1 $472 -256.23340556047242 $476 256.23340556047242 $470 $537 forward 7 unknown #
straight-curve $-1 0 -256.23340556047242 -128.11670278023621 -1 0 0 I I #
vertex $-1 $354 $538 #
straight-curve $-1 0 256.23340556047242 -128.11670278023621 1 0 0 I I #
point $-1 14.636337237768691 256.23340556047242 -128.11670278023621 #
point $-1 14.636337237768691 -256.23340556047242 -128.11670278023621 #
straight-curve $-1 -14.636337237768691 0 128.11670278023621 0 -1 0 I I #
point $-1 -14.636337237768691 256.23340556047242 128.11670278023621 #
point $-1 -14.636337237768691 -256.23340556047242 128.11670278023621 #
straight-curve $-1 14.636337237768691 -256.23340556047242 0 0 0 -1 I I #
straight-curve $-1 14.636337237768691 256.23340556047242 0 0 0 -1 I I #
edge $-1 $539 1 $539 0 $371 $-1 forward 7 unknown #
point $-1 1.5 0 -0.75 #
edge $-1 $540 1 $540 0 $375 $-1 forward 7 unknown #
point $-1 1.5 0 -0.75 #
plane-surface $-1 14.636337237768691 0 0 -1 0 0 0 0 1 forward_v I I I I #
coedge $-1 $384 $382 $386 $494 reversed $255 $-1 #
edge $-1 $397 -128.11670278023621 $496 128.11670278023621 $396 $541 forward 7 unknown #
vertex $-1 $494 $542 #
straight-curve $-1 -14.636337237768691 -256.23340556047242 0 0 0 -1 I I #
edge $-1 $492 -256.23340556047242 $496 256.23340556047242 $490 $543 forward 7 unknown #
straight-curve $-1 0 -256.23340556047242 -128.11670278023621 -1 0 0 I I #
vertex $-1 $389 $544 #
straight-curve $-1 0 256.23340556047242 -128.11670278023621 1 0 0 I I #
point $-1 14.636337237768691 256.23340556047242 -128.11670278023621 #
point $-1 14.636337237768691 -256.23340556047242 -128.11670278023621 #
straight-curve $-1 -14.636337237768691 0 128.11670278023621 0 -1 0 I I #
point $-1 -14.636337237768691 256.23340556047242 128.11670278023621 #
point $-1 -14.636337237768691 -256.23340556047242 128.11670278023621 #
straight-curve $-1 14.636337237768691 -256.23340556047242 0 0 0 -1 I I #
straight-curve $-1 14.636337237768691 256.23340556047242 0 0 0 -1 I I #
edge $-1 $545 1 $545 0 $406 $-1 forward 7 unknown #
point $-1 1.5 0 -0.75 #
edge $-1 $546 1 $546 0 $410 $-1 forward 7 unknown #
point $-1 1.5 0 -0.75 #
plane-surface $-1 16.598242768868673 0 0 -1 0 0 0 0 1 forward_v I I I I #
coedge $-1 $419 $417 $421 $514 reversed $284 $-1 #
edge $-1 $432 -128.11670278023621 $516 128.11670278023621 $431 $547 forward 7 unknown #
vertex $-1 $514 $548 #
straight-curve $-1 -16.598242768868673 -256.23340556047242 0 0 0 -1 I I #
edge $-1 $512 -256.23340556047242 $516 256.23340556047242 $510 $549 forward 7 unknown #
straight-curve $-1 0 -256.23340556047242 -128.11670278023621 -1 0 0 I I #
vertex $-1 $424 $550 #
straight-curve $-1 0 256.23340556047242 -128.11670278023621 1 0 0 I I #
point $-1 16.598242768868673 256.23340556047242 -128.11670278023621 #
point $-1 16.598242768868673 -256.23340556047242 -128.11670278023621 #
straight-curve $-1 -16.598242768868673 0 128.11670278023621 0 -1 0 I I #
point $-1 -16.598242768868673 256.23340556047242 128.11670278023621 #
point $-1 -16.598242768868673 -256.23340556047242 128.11670278023621 #
straight-curve $-1 16.598242768868673 -256.23340556047242 0 0 0 -1 I I #
straight-curve $-1 16.598242768868673 256.23340556047242 0 0 0 -1 I I #
edge $-1 $551 1 $551 0 $441 $-1 forward 7 unknown #
point $-1 3 0 -1.5 #
edge $-1 $552 1 $552 0 $445 $-1 forward 7 unknown #
point $-1 3 0 -1.5 #
edge $-1 $553 1 $553 0 $449 $-1 forward 7 unknown #
point $-1 3 0 -1.5 #
straight-curve $-1 -64.058351390118105 33.718656797123323 0 0 0 -1 I I #
point $-1 -64.058351390118105 -33.718656797123323 -15.962826008911897 #
straight-curve $-1 -64.058351390118105 0 -15.962826008911897 0 1 0 I I #
point $-1 -64.058351390118105 33.718656797123323 -15.962826008911897 #
straight-curve $-1 -14.636337237768691 256.23340556047242 0 0 0 -1 I I #
point $-1 -14.636337237768691 -256.23340556047242 -128.11670278023621 #
straight-curve $-1 -14.636337237768691 0 -128.11670278023621 0 1 0 I I #
point $-1 -14.636337237768691 256.23340556047242 -128.11670278023621 #
vertex $-1 $485 $554 #
vertex $-1 $487 $555 #
straight-curve $-1 -14.636337237768691 256.23340556047242 0 0 0 -1 I I #
point $-1 -14.636337237768691 -256.23340556047242 -128.11670278023621 #
straight-curve $-1 -14.636337237768691 0 -128.11670278023621 0 1 0 I I #
point $-1 -14.636337237768691 256.23340556047242 -128.11670278023621 #
vertex $-1 $505 $556 #
vertex $-1 $507 $557 #
straight-curve $-1 -16.598242768868673 256.23340556047242 0 0 0 -1 I I #
point $-1 -16.598242768868673 -256.23340556047242 -128.11670278023621 #
straight-curve $-1 -16.598242768868673 0 -128.11670278023621 0 1 0 I I #
point $-1 -16.598242768868673 256.23340556047242 -128.11670278023621 #
vertex $-1 $525 $558 #
vertex $-1 $527 $559 #
vertex $-1 $529 $560 #
point $-1 0 0 0.75 #
point $-1 0 0 0.75 #
point $-1 0 0 0.75 #
point $-1 0 0 0.75 #
point $-1 0 0 1.5 #
point $-1 0 0 1.5 #
point $-1 0 0 1.5 #
End-of-ACIS-data 