500 0 12 0           
7 Unknown 11 ACIS 5.0 NT 24 Fri Mar 26 19:58:36 1999 
-1 9.9999999999999995e-007 1e-010 
body $-1 $12 $-1 $13 #
body $-1 $14 $-1 $15 #
body $-1 $16 $-1 $17 #
body $-1 $18 $-1 $19 #
body $-1 $20 $-1 $21 #
body $-1 $22 $-1 $23 #
body $-1 $24 $-1 $25 #
body $-1 $26 $-1 $27 #
body $-1 $28 $-1 $29 #
body $-1 $30 $-1 $31 #
body $-1 $32 $-1 $33 #
body $-1 $34 $-1 $35 #
lump $-1 $-1 $36 $0 #
transform $-1 1 0 0 0 1 0 0 0 1 41.173131504257334 17.205083950587273 7.0646541496496944 1 rotate no_reflect no_shear #
lump $-1 $-1 $37 $1 #
transform $-1 1 0 0 0 1 0 0 0 1 41.173131504257334 17.205083950587273 7.0646541496496944 1 rotate no_reflect no_shear #
lump $-1 $-1 $38 $2 #
transform $-1 1 0 0 0 1 0 0 0 1 41.173131504257334 17.205083950587273 7.0646541496496944 1 rotate no_reflect no_shear #
lump $-1 $-1 $39 $3 #
transform $-1 1 0 0 0 1 0 0 0 1 41.173131504257334 17.205083950587273 7.0646541496496944 1 rotate no_reflect no_shear #
lump $-1 $-1 $40 $4 #
transform $-1 1 0 0 0 1 0 0 0 1 41.173131504257334 17.205083950587273 7.0646541496496944 1 rotate no_reflect no_shear #
lump $-1 $-1 $41 $5 #
transform $-1 1 0 0 0 1 0 0 0 1 41.173131504257334 17.205083950587273 7.0646541496496944 1 rotate no_reflect no_shear #
lump $-1 $-1 $42 $6 #
transform $-1 1 0 0 0 1 0 0 0 1 41.173131504257334 17.205083950587273 7.0646541496496944 1 rotate no_reflect no_shear #
lump $-1 $-1 $43 $7 #
transform $-1 1 0 0 0 1 0 0 0 1 41.173131504257334 17.205083950587273 7.0646541496496944 1 rotate no_reflect no_shear #
lump $-1 $-1 $44 $8 #
transform $-1 1 0 0 0 1 0 0 0 1 41.173131504257334 17.205083950587273 7.0646541496496944 1 rotate no_reflect no_shear #
lump $-1 $-1 $45 $9 #
transform $-1 1 0 0 0 1 0 0 0 1 41.173131504257334 17.205083950587273 7.0646541496496944 1 rotate no_reflect no_shear #
lump $-1 $-1 $46 $10 #
transform $-1 1 0 0 0 1 0 0 0 1 41.173131504257334 17.205083950587273 7.0646541496496944 1 rotate no_reflect no_shear #
lump $-1 $-1 $47 $11 #
transform $-1 1 0 0 0 1 0 0 0 1 41.173131504257334 17.205083950587273 7.0646541496496944 1 rotate no_reflect no_shear #
shell $-1 $-1 $-1 $48 $-1 $12 #
shell $-1 $-1 $-1 $49 $-1 $14 #
shell $-1 $-1 $-1 $50 $-1 $16 #
shell $-1 $-1 $-1 $51 $-1 $18 #
shell $-1 $-1 $-1 $52 $-1 $20 #
shell $-1 $-1 $-1 $53 $-1 $22 #
shell $-1 $-1 $-1 $54 $-1 $24 #
shell $-1 $-1 $-1 $55 $-1 $26 #
shell $-1 $-1 $-1 $56 $-1 $28 #
shell $-1 $-1 $-1 $57 $-1 $30 #
shell $-1 $-1 $-1 $58 $-1 $32 #
shell $-1 $-1 $-1 $59 $-1 $34 #
face $-1 $60 $61 $36 $-1 $62 forward single #
face $-1 $63 $64 $37 $-1 $65 reversed single #
face $-1 $66 $67 $38 $-1 $68 reversed single #
face $-1 $69 $70 $39 $-1 $71 forward single #
face $-1 $72 $73 $40 $-1 $74 reversed single #
face $-1 $75 $76 $41 $-1 $77 forward single #
face $-1 $78 $79 $42 $-1 $80 reversed single #
face $-1 $81 $82 $43 $-1 $83 forward single #
face $-1 $84 $85 $44 $-1 $86 reversed single #
face $-1 $87 $88 $45 $-1 $89 forward single #
face $-1 $90 $91 $46 $-1 $92 reversed single #
face $-1 $93 $94 $47 $-1 $95 forward single #
face $-1 $96 $97 $36 $-1 $98 reversed single #
loop $-1 $-1 $99 $48 #
plane-surface $-1 0 0 7.0646541496496944 0 0 1 1 0 0 forward_v I I I I #
face $-1 $100 $101 $37 $-1 $102 reversed single #
loop $-1 $-1 $103 $49 #
plane-surface $-1 -39.583126164817607 -8.7390768367822353 0 0 -1 0 0 0 -1 forward_v I I I I #
face $-1 $104 $105 $38 $-1 $106 reversed single #
loop $-1 $-1 $107 $50 #
plane-surface $-1 18.952432414529433 -1.703866720525447 117.10801829820957 0 -1 0 -0.55919291073839883 0 -0.82903756765294845 forward_v I I I I #
face $-1 $108 $109 $39 $-1 $110 forward single #
loop $-1 $111 $112 $51 #
cone-surface $-1 37.46517739721353 -4.6458766490780334 4.1264228655313682 -0.55919291073839883 0 -0.82903756765294845 0.82903756765294845 0 -0.55919291073839883 1 I I 0 1 1 forward I I I I #
face $-1 $113 $114 $40 $-1 $115 reversed single #
loop $-1 $-1 $116 $52 #
plane-surface $-1 18.952432414529433 6.9441868752643892 117.10801829820957 0 -1 0 -0.55919291073839883 0 -0.82903756765294845 forward_v I I I I #
face $-1 $117 $118 $41 $-1 $119 forward single #
loop $-1 $120 $121 $53 #
cone-surface $-1 37.46517739721353 4.0021769467118027 4.1264228655313682 -0.55919291073839883 0 -0.82903756765294845 0.82903756765294845 0 -0.55919291073839883 1 I I 0 1 1 forward I I I I #
face $-1 $122 $123 $42 $-1 $124 reversed single #
loop $-1 $-1 $125 $54 #
plane-surface $-1 18.952432414529433 15.592240471054225 117.10801829820957 0 -1 0 -0.55919291073839883 0 -0.82903756765294845 forward_v I I I I #
face $-1 $126 $127 $43 $-1 $128 forward single #
loop $-1 $129 $130 $55 #
cone-surface $-1 37.46517739721353 12.650230542501639 4.1264228655313682 -0.55919291073839883 0 -0.82903756765294845 0.82903756765294845 0 -0.55919291073839883 1 I I 0 1 1 forward I I I I #
face $-1 $131 $132 $44 $-1 $133 reversed single #
loop $-1 $-1 $134 $56 #
plane-surface $-1 -111.75765613534512 -2.1783810318369614 45.8256104075015 0 1 0 -0.85716730853699208 0 0.51503806187062418 forward_v I I I I #
face $-1 $135 $136 $45 $-1 $137 forward single #
loop $-1 $138 $139 $57 #
cone-surface $-1 -39.638840230640888 1.0273112625327805 4.9764841969139715 0.85716730853699208 0 -0.51503806187062418 0.51503806187062418 0 0.85716730853699208 1 I I 0 1 1 forward I I I I #
face $-1 $140 $141 $46 $-1 $142 reversed single #
loop $-1 $-1 $143 $58 #
plane-surface $-1 -41.173131504257327 1.0273112625327769 3.4141507053074349 -0.85716730853699208 0 0.51503806187062418 0.51503806187062418 0 0.85716730853699208 forward_v I I I I #
face $-1 $144 $145 $47 $-1 $146 forward single #
loop $-1 $147 $148 $59 #
cone-surface $-1 -39.638840230640888 7.4386958512722607 4.9764841969139715 0.85716730853699208 0 -0.51503806187062418 0.51503806187062418 0 0.85716730853699208 1 I I 0 1 1 forward I I I I #
face $-1 $149 $150 $36 $-1 $151 reversed single #
loop $-1 $-1 $152 $60 #
plane-surface $-1 0 0 -7.0646541496496944 0 0 1 1 0 0 forward_v I I I I #
coedge $-1 $153 $154 $155 $156 forward $61 $-1 #
face $-1 $157 $158 $37 $-1 $159 forward single #
loop $-1 $-1 $160 $63 #
plane-surface $-1 -37.993120825377879 -12.972080393684754 0 -1 0 0 0 0 1 forward_v I I I I #
coedge $-1 $161 $162 $163 $164 forward $64 $-1 #
face $-1 $165 $166 $38 $-1 $167 reversed single #
loop $-1 $-1 $168 $66 #
plane-surface $-1 -27.095014085631625 -4.6458766490780334 48.839872708320613 0.55919291073839883 0 0.82903756765294845 0.82903756765294845 0 -0.55919291073839883 forward_v I I I I #
coedge $-1 $169 $170 $171 $172 reversed $67 $-1 #
face $-1 $-1 $173 $39 $-1 $174 forward single #
loop $-1 $175 $176 $69 #
cone-surface $-1 36.644545972236507 -4.6458766490780334 2.9097867683316387 -0.55919291073839883 0 -0.82903756765294845 0.41451878382647422 0 -0.27959645536919941 1 I I -0.70710678118654746 0.70710678118654746 0.5 forward I I I I #
loop $-1 $-1 $177 $51 #
coedge $-1 $112 $112 $178 $179 reversed $70 $-1 #
face $-1 $180 $181 $40 $-1 $182 reversed single #
loop $-1 $-1 $183 $72 #
plane-surface $-1 -27.095014085631625 4.0021769467118027 48.839872708320613 0.55919291073839883 0 0.82903756765294845 0.82903756765294845 0 -0.55919291073839883 forward_v I I I I #
coedge $-1 $184 $185 $186 $187 reversed $73 $-1 #
face $-1 $-1 $188 $41 $-1 $189 forward single #
loop $-1 $190 $191 $75 #
cone-surface $-1 36.644545972236507 4.0021769467118027 2.9097867683316387 -0.55919291073839883 0 -0.82903756765294845 0.41451878382647422 0 -0.27959645536919941 1 I I -0.70710678118654746 0.70710678118654746 0.5 forward I I I I #
loop $-1 $-1 $192 $53 #
coedge $-1 $121 $121 $193 $194 reversed $76 $-1 #
face $-1 $195 $196 $42 $-1 $197 reversed single #
loop $-1 $-1 $198 $78 #
plane-surface $-1 -27.095014085631625 12.650230542501639 48.839872708320613 0.55919291073839883 0 0.82903756765294845 0.82903756765294845 0 -0.55919291073839883 forward_v I I I I #
coedge $-1 $199 $200 $201 $202 reversed $79 $-1 #
face $-1 $-1 $203 $43 $-1 $204 forward single #
loop $-1 $205 $206 $81 #
cone-surface $-1 36.644545972236507 12.650230542501639 2.9097867683316387 -0.55919291073839883 0 -0.82903756765294845 0.41451878382647422 0 -0.27959645536919941 1 I I -0.70710678118654746 0.70710678118654746 0.5 forward I I I I #
loop $-1 $-1 $207 $55 #
coedge $-1 $130 $130 $208 $209 reversed $82 $-1 #
face $-1 $210 $211 $44 $-1 $212 reversed single #
loop $-1 $-1 $213 $84 #
plane-surface $-1 -41.173131504257327 1.0273112625327769 3.4141507053074349 -0.85716730853699208 0 0.51503806187062418 0.51503806187062418 0 0.85716730853699208 forward_v I I I I #
coedge $-1 $214 $215 $216 $217 reversed $85 $-1 #
face $-1 $-1 $218 $45 $-1 $219 forward single #
loop $-1 $220 $221 $87 #
cone-surface $-1 -38.77268714463014 1.0273112625327805 4.4560469354140686 0.85716730853699208 0 -0.51503806187062418 0.25751903093531209 0 0.42858365426849604 1 I I -0.70710678118654691 0.70710678118654813 0.5 forward I I I I #
loop $-1 $-1 $222 $57 #
coedge $-1 $139 $139 $223 $224 reversed $88 $-1 #
face $-1 $225 $226 $46 $-1 $227 reversed single #
loop $-1 $-1 $228 $90 #
plane-surface $-1 -111.75765613534512 10.644388145641996 45.8256104075015 0 -1 0 0.85716730853699208 0 -0.51503806187062418 forward_v I I I I #
coedge $-1 $229 $230 $231 $232 reversed $91 $-1 #
face $-1 $-1 $233 $47 $-1 $234 forward single #
loop $-1 $235 $236 $93 #
cone-surface $-1 -38.77268714463014 7.4386958512722607 4.4560469354140686 0.85716730853699208 0 -0.51503806187062418 0.25751903093531209 0 0.42858365426849604 1 I I -0.70710678118654691 0.70710678118654813 0.5 forward I I I I #
loop $-1 $-1 $237 $59 #
coedge $-1 $148 $148 $238 $239 reversed $94 $-1 #
face $-1 $240 $241 $36 $-1 $242 reversed single #
loop $-1 $-1 $243 $96 #
plane-surface $-1 0 -17.205083950587273 0 0 1 0 0 0 1 forward_v I I I I #
coedge $-1 $244 $245 $246 $247 forward $97 $-1 #
coedge $-1 $248 $99 $249 $250 forward $61 $-1 #
coedge $-1 $99 $248 $251 $252 forward $61 $-1 #
coedge $-1 $253 $254 $99 $156 reversed $255 $-1 #
edge $-1 $256 -17.205083950587273 $257 17.205083950587273 $155 $258 forward 7 unknown #
face $-1 $259 $260 $37 $-1 $261 reversed single #
loop $-1 $-1 $262 $100 #
plane-surface $-1 0 0 7.0646541496496944 0 0 1 1 0 0 forward_v I I I I #
coedge $-1 $263 $264 $265 $266 reversed $101 $-1 #
coedge $-1 $267 $103 $268 $269 reversed $64 $-1 #
coedge $-1 $103 $267 $270 $271 reversed $64 $-1 #
coedge $-1 $264 $263 $103 $164 reversed $101 $-1 #
edge $-1 $272 -7.0646541496496944 $273 7.0646541496496944 $163 $274 forward 7 unknown #
face $-1 $275 $276 $38 $-1 $277 reversed single #
loop $-1 $-1 $278 $104 #
plane-surface $-1 18.952432414529433 -7.5878865776306199 117.10801829820957 0 1 0 0.55919291073839883 0 0.82903756765294845 forward_v I I I I #
coedge $-1 $279 $280 $281 $282 reversed $105 $-1 #
coedge $-1 $170 $107 $283 $284 reversed $67 $-1 #
coedge $-1 $107 $169 $279 $285 reversed $67 $-1 #
coedge $-1 $281 $286 $107 $172 forward $287 $-1 #
edge $-1 $288 -31.696915296992618 $289 -25.363077022120624 $171 $290 forward 7 unknown #
loop $-1 $-1 $178 $108 #
plane-surface $-1 -27.095014085631625 -4.6458766490780334 48.839872708320613 0.55919291073839883 0 0.82903756765294845 0.82903756765294845 0 -0.55919291073839883 forward_v I I I I #
loop $-1 $-1 $291 $69 #
coedge $-1 $176 $176 $177 $292 reversed $109 $-1 #
coedge $-1 $177 $177 $176 $292 forward $111 $-1 #
coedge $-1 $178 $178 $112 $179 forward $173 $-1 #
edge $-1 $293 0 $293 6.2831853071796004 $178 $294 forward 7 unknown #
face $-1 $295 $296 $40 $-1 $297 reversed single #
loop $-1 $-1 $298 $113 #
plane-surface $-1 18.952432414529433 1.0601670181592162 117.10801829820957 0 1 0 0.55919291073839883 0 0.82903756765294845 forward_v I I I I #
coedge $-1 $299 $300 $301 $302 reversed $114 $-1 #
coedge $-1 $185 $116 $303 $304 reversed $73 $-1 #
coedge $-1 $116 $184 $299 $305 reversed $73 $-1 #
coedge $-1 $301 $306 $116 $187 forward $307 $-1 #
edge $-1 $308 -31.696915296992618 $309 -25.363077022120624 $186 $310 forward 7 unknown #
loop $-1 $-1 $193 $117 #
plane-surface $-1 -27.095014085631625 4.0021769467118027 48.839872708320613 0.55919291073839883 0 0.82903756765294845 0.82903756765294845 0 -0.55919291073839883 forward_v I I I I #
loop $-1 $-1 $311 $75 #
coedge $-1 $191 $191 $192 $312 reversed $118 $-1 #
coedge $-1 $192 $192 $191 $312 forward $120 $-1 #
coedge $-1 $193 $193 $121 $194 forward $188 $-1 #
edge $-1 $313 0 $313 6.2831853071796004 $193 $314 forward 7 unknown #
face $-1 $315 $316 $42 $-1 $317 reversed single #
loop $-1 $-1 $318 $122 #
plane-surface $-1 18.952432414529433 9.7082206139490523 117.10801829820957 0 1 0 0.55919291073839883 0 0.82903756765294845 forward_v I I I I #
coedge $-1 $319 $320 $321 $322 reversed $123 $-1 #
coedge $-1 $200 $125 $323 $324 reversed $79 $-1 #
coedge $-1 $125 $199 $319 $325 reversed $79 $-1 #
coedge $-1 $321 $326 $125 $202 forward $327 $-1 #
edge $-1 $328 -31.696915296992618 $329 -25.363077022120624 $201 $330 forward 7 unknown #
loop $-1 $-1 $208 $126 #
plane-surface $-1 -27.095014085631625 12.650230542501639 48.839872708320613 0.55919291073839883 0 0.82903756765294845 0.82903756765294845 0 -0.55919291073839883 forward_v I I I I #
loop $-1 $-1 $331 $81 #
coedge $-1 $206 $206 $207 $332 reversed $127 $-1 #
coedge $-1 $207 $207 $206 $332 forward $129 $-1 #
coedge $-1 $208 $208 $130 $209 forward $203 $-1 #
edge $-1 $333 0 $333 6.2831853071796004 $208 $334 forward 7 unknown #
face $-1 $335 $336 $44 $-1 $337 reversed single #
loop $-1 $-1 $338 $131 #
plane-surface $-1 -111.75765613534512 4.2330035569025153 45.8256104075015 0 -1 0 0.85716730853699208 0 -0.51503806187062418 forward_v I I I I #
coedge $-1 $339 $340 $341 $342 reversed $132 $-1 #
coedge $-1 $215 $134 $343 $344 reversed $85 $-1 #
coedge $-1 $134 $214 $339 $345 reversed $85 $-1 #
coedge $-1 $341 $346 $134 $217 forward $347 $-1 #
edge $-1 $348 14.705696563415223 $349 16.899140247163622 $216 $350 forward 7 unknown #
loop $-1 $-1 $223 $135 #
plane-surface $-1 -41.173131504257327 1.0273112625327769 3.4141507053074349 -0.85716730853699208 0 0.51503806187062418 0.51503806187062418 0 0.85716730853699208 forward_v I I I I #
loop $-1 $-1 $351 $87 #
coedge $-1 $221 $221 $222 $352 reversed $136 $-1 #
coedge $-1 $222 $222 $221 $352 forward $138 $-1 #
coedge $-1 $223 $223 $139 $224 forward $218 $-1 #
edge $-1 $353 0 $353 6.2831853071796004 $223 $354 forward 7 unknown #
face $-1 $355 $356 $46 $-1 $357 forward single #
loop $-1 $-1 $358 $140 #
plane-surface $-1 -41.173131504257334 0 0 1 0 0 0 0 -1 forward_v I I I I #
coedge $-1 $359 $360 $361 $362 reversed $141 $-1 #
coedge $-1 $363 $143 $364 $365 reversed $91 $-1 #
coedge $-1 $143 $363 $366 $367 reversed $91 $-1 #
coedge $-1 $368 $369 $143 $232 forward $356 $-1 #
edge $-1 $370 -1.393735185947377e-014 $371 4.2587991958920091 $231 $372 forward 7 unknown #
loop $-1 $-1 $238 $144 #
plane-surface $-1 -41.173131504257327 1.0273112625327769 3.4141507053074349 -0.85716730853699208 0 0.51503806187062418 0.51503806187062418 0 0.85716730853699208 forward_v I I I I #
loop $-1 $-1 $373 $93 #
coedge $-1 $236 $236 $237 $374 reversed $145 $-1 #
coedge $-1 $237 $237 $236 $374 forward $147 $-1 #
coedge $-1 $238 $238 $148 $239 forward $233 $-1 #
edge $-1 $375 0 $375 6.2831853071796004 $238 $376 forward 7 unknown #
face $-1 $377 $378 $36 $-1 $379 reversed single #
loop $-1 $-1 $380 $149 #
plane-surface $-1 -41.173131504257334 0 0 1 0 0 0 0 -1 forward_v I I I I #
coedge $-1 $381 $251 $382 $383 forward $150 $-1 #
coedge $-1 $384 $152 $381 $385 forward $97 $-1 #
coedge $-1 $152 $384 $386 $387 forward $97 $-1 #
coedge $-1 $254 $253 $152 $247 reversed $255 $-1 #
edge $-1 $388 -17.205083950587273 $389 17.205083950587273 $246 $390 forward 7 unknown #
coedge $-1 $154 $153 $391 $392 forward $61 $-1 #
coedge $-1 $393 $394 $153 $250 reversed $378 $-1 #
edge $-1 $257 -41.173131504257334 $395 41.173131504257334 $249 $396 forward 7 unknown #
coedge $-1 $243 $397 $154 $252 reversed $150 $-1 #
edge $-1 $398 -41.173131504257334 $256 41.173131504257334 $251 $399 forward 7 unknown #
coedge $-1 $246 $155 $397 $400 forward $255 $-1 #
coedge $-1 $155 $246 $393 $401 reversed $255 $-1 #
loop $-1 $-1 $253 $377 #
vertex $-1 $156 $402 #
vertex $-1 $156 $403 #
straight-curve $-1 41.173131504257334 0 7.0646541496496944 0 1 0 I I #
face $-1 $404 $405 $37 $-1 $406 reversed single #
loop $-1 $-1 $407 $157 #
plane-surface $-1 -41.173131504257334 0 0 1 0 0 0 0 -1 forward_v I I I I #
coedge $-1 $270 $408 $264 $409 forward $158 $-1 #
coedge $-1 $163 $160 $410 $411 reversed $101 $-1 #
coedge $-1 $160 $163 $262 $409 reversed $101 $-1 #
coedge $-1 $412 $413 $160 $266 forward $414 $-1 #
edge $-1 $415 -7.0646541496496944 $416 7.0646541496496944 $265 $417 forward 7 unknown #
coedge $-1 $162 $161 $407 $418 reversed $64 $-1 #
coedge $-1 $410 $419 $161 $269 forward $405 $-1 #
edge $-1 $420 -21.381568421848531 $273 -18.201557742969076 $268 $421 forward 7 unknown #
coedge $-1 $422 $262 $162 $271 forward $158 $-1 #
edge $-1 $272 18.201557742969076 $423 21.381568421848531 $270 $424 forward 7 unknown #
vertex $-1 $271 $425 #
vertex $-1 $269 $426 #
straight-curve $-1 -37.993120825377879 -8.7390768367822353 0 0 0 -1 I I #
face $-1 $-1 $287 $38 $-1 $427 forward single #
loop $-1 $-1 $428 $165 #
plane-surface $-1 41.173131504257334 0 0 -1 0 0 0 0 1 forward_v I I I I #
coedge $-1 $429 $430 $431 $432 reversed $166 $-1 #
coedge $-1 $433 $168 $170 $285 forward $105 $-1 #
coedge $-1 $168 $433 $429 $434 forward $105 $-1 #
coedge $-1 $431 $171 $168 $282 forward $287 $-1 #
edge $-1 $289 -0.61907160401356975 $435 5.2649482530916032 $281 $436 forward 7 unknown #
coedge $-1 $437 $438 $169 $284 forward $276 $-1 #
edge $-1 $439 -55.761582940945225 $288 -51.489354999455088 $283 $440 forward 7 unknown #
edge $-1 $289 74.706273553267835 $439 82.346263008514654 $170 $441 forward 7 unknown #
coedge $-1 $171 $431 $437 $442 forward $287 $-1 #
loop $-1 $-1 $431 $275 #
vertex $-1 $284 $443 #
vertex $-1 $172 $444 #
straight-curve $-1 9.4762162072647165 -1.703866720525447 7.064654149649698 -1 0 0 I I #
coedge $-1 $291 $291 $-1 $445 reversed $175 $-1 #
edge $-1 $446 0 $446 6.2831853071796004 $176 $447 forward 7 unknown #
vertex $-1 $179 $448 #
ellipse-curve $-1 38.006212366821352 -4.6458766490780334 4.9285401789046235 0.55919291073839883 0 0.82903756765294845 0.82903756765294845 0 -0.55919291073839883 1 I I #
face $-1 $-1 $307 $40 $-1 $449 forward single #
loop $-1 $-1 $450 $180 #
plane-surface $-1 41.173131504257334 0 0 -1 0 0 0 0 1 forward_v I I I I #
coedge $-1 $451 $452 $453 $454 reversed $181 $-1 #
coedge $-1 $455 $183 $185 $305 forward $114 $-1 #
coedge $-1 $183 $455 $451 $456 forward $114 $-1 #
coedge $-1 $453 $186 $183 $302 forward $307 $-1 #
edge $-1 $309 -4.9430984019084878 $457 0.94092145519668513 $301 $458 forward 7 unknown #
coedge $-1 $459 $460 $184 $304 forward $296 $-1 #
edge $-1 $461 -55.761582940945225 $308 -51.489354999455088 $303 $462 forward 7 unknown #
edge $-1 $309 74.706273553267835 $461 82.346263008514654 $185 $463 forward 7 unknown #
coedge $-1 $186 $453 $459 $464 forward $307 $-1 #
loop $-1 $-1 $453 $295 #
vertex $-1 $304 $465 #
vertex $-1 $187 $466 #
straight-curve $-1 9.4762162072647165 6.9441868752643892 7.064654149649698 -1 0 0 I I #
coedge $-1 $311 $311 $-1 $467 reversed $190 $-1 #
edge $-1 $468 0 $468 6.2831853071796004 $191 $469 forward 7 unknown #
vertex $-1 $194 $470 #
ellipse-curve $-1 38.006212366821352 4.0021769467118027 4.9285401789046235 0.55919291073839883 0 0.82903756765294845 0.82903756765294845 0 -0.55919291073839883 1 I I #
face $-1 $-1 $327 $42 $-1 $471 forward single #
loop $-1 $-1 $472 $195 #
plane-surface $-1 41.173131504257334 0 0 -1 0 0 0 0 1 forward_v I I I I #
coedge $-1 $473 $474 $475 $476 reversed $196 $-1 #
coedge $-1 $477 $198 $200 $325 forward $123 $-1 #
coedge $-1 $198 $477 $473 $478 forward $123 $-1 #
coedge $-1 $475 $201 $198 $322 forward $327 $-1 #
edge $-1 $329 -9.2671251998034059 $479 -3.3831053426982329 $321 $480 forward 7 unknown #
coedge $-1 $481 $482 $199 $324 forward $316 $-1 #
edge $-1 $483 -55.761582940945225 $328 -51.489354999455088 $323 $484 forward 7 unknown #
edge $-1 $329 74.706273553267835 $483 82.346263008514654 $200 $485 forward 7 unknown #
coedge $-1 $201 $475 $481 $486 forward $327 $-1 #
loop $-1 $-1 $475 $315 #
vertex $-1 $324 $487 #
vertex $-1 $202 $488 #
straight-curve $-1 9.4762162072647165 15.592240471054225 7.064654149649698 -1 0 0 I I #
coedge $-1 $331 $331 $-1 $489 reversed $205 $-1 #
edge $-1 $490 0 $490 6.2831853071796004 $206 $491 forward 7 unknown #
vertex $-1 $209 $492 #
ellipse-curve $-1 38.006212366821352 12.650230542501639 4.9285401789046235 0.55919291073839883 0 0.82903756765294845 0.82903756765294845 0 -0.55919291073839883 1 I I #
face $-1 $-1 $347 $44 $-1 $493 forward single #
loop $-1 $-1 $494 $210 #
plane-surface $-1 -41.173131504257334 0 0 1 0 0 0 0 -1 forward_v I I I I #
coedge $-1 $495 $496 $497 $498 reversed $211 $-1 #
coedge $-1 $499 $213 $215 $345 forward $132 $-1 #
coedge $-1 $213 $499 $495 $500 forward $132 $-1 #
coedge $-1 $497 $216 $213 $342 forward $347 $-1 #
edge $-1 $349 -2.6920366631033499 $501 3.7193479256361268 $341 $502 forward 7 unknown #
coedge $-1 $503 $504 $214 $344 forward $336 $-1 #
edge $-1 $505 -19.498654498443326 $348 -15.848151054101056 $343 $506 forward 7 unknown #
edge $-1 $349 -4.2587991958920091 $505 1.393735185947377e-014 $215 $507 forward 7 unknown #
coedge $-1 $216 $497 $503 $508 forward $347 $-1 #
loop $-1 $-1 $497 $335 #
vertex $-1 $344 $509 #
vertex $-1 $217 $510 #
straight-curve $-1 -55.878828067672558 -2.1783810318369614 7.0646541496496944 1 0 0 I I #
coedge $-1 $351 $351 $-1 $511 reversed $220 $-1 #
edge $-1 $512 0 $512 6.2831853071796004 $221 $513 forward 7 unknown #
vertex $-1 $224 $514 #
ellipse-curve $-1 -40.076409662383135 1.0273112625327805 5.2394024274785602 -0.85716730853699208 0 0.51503806187062418 0.51503806187062418 0 0.85716730853699208 1 I I #
face $-1 $-1 $515 $46 $-1 $516 forward single #
loop $-1 $-1 $368 $225 #
plane-surface $-1 -111.75765613534512 4.2330035569025153 45.8256104075015 0 -1 0 0.85716730853699208 0 -0.51503806187062418 forward_v I I I I #
coedge $-1 $364 $517 $360 $518 forward $226 $-1 #
coedge $-1 $360 $228 $363 $519 reversed $141 $-1 #
coedge $-1 $228 $359 $358 $518 reversed $141 $-1 #
coedge $-1 $520 $366 $228 $362 forward $515 $-1 #
edge $-1 $521 -16.899140247163622 $522 -14.705696563415223 $361 $523 forward 7 unknown #
coedge $-1 $230 $229 $359 $519 forward $91 $-1 #
coedge $-1 $524 $358 $229 $365 forward $226 $-1 #
edge $-1 $525 -10.130732514375607 $370 -3.7193479256361268 $364 $526 forward 7 unknown #
coedge $-1 $361 $527 $230 $367 forward $515 $-1 #
edge $-1 $371 3.7193479256361268 $521 10.130732514375607 $366 $528 forward 7 unknown #
coedge $-1 $369 $231 $527 $529 reversed $356 $-1 #
coedge $-1 $231 $368 $524 $530 reversed $356 $-1 #
vertex $-1 $365 $531 #
vertex $-1 $367 $532 #
straight-curve $-1 -41.173131504257327 4.2330035569025153 3.4141507053074349 0.51503806187062418 0 0.85716730853699208 I I #
coedge $-1 $373 $373 $-1 $533 reversed $235 $-1 #
edge $-1 $534 0 $534 6.2831853071796004 $236 $535 forward 7 unknown #
vertex $-1 $239 $536 #
ellipse-curve $-1 -40.076409662383135 7.4386958512722607 5.2394024274785602 -0.85716730853699208 0 0.51503806187062418 0.51503806187062418 0 0.85716730853699208 1 I I #
face $-1 $-1 $255 $36 $-1 $537 reversed single #
loop $-1 $-1 $393 $240 #
plane-surface $-1 0 17.205083950587273 0 0 -1 0 0 0 -1 forward_v I I I I #
coedge $-1 $538 $391 $394 $539 forward $241 $-1 #
coedge $-1 $397 $243 $244 $385 reversed $150 $-1 #
coedge $-1 $391 $538 $243 $383 reversed $241 $-1 #
edge $-1 $398 -7.0646541496496944 $540 7.0646541496496944 $382 $541 forward 7 unknown #
coedge $-1 $245 $244 $538 $542 forward $97 $-1 #
edge $-1 $389 -41.173131504257334 $540 41.173131504257334 $381 $543 forward 7 unknown #
coedge $-1 $394 $393 $245 $387 reversed $378 $-1 #
edge $-1 $544 -41.173131504257334 $388 41.173131504257334 $386 $545 forward 7 unknown #
vertex $-1 $247 $546 #
vertex $-1 $400 $547 #
straight-curve $-1 41.173131504257334 0 -7.0646541496496944 0 -1 0 I I #
coedge $-1 $380 $382 $248 $392 reversed $241 $-1 #
edge $-1 $395 -17.205083950587273 $398 17.205083950587273 $391 $548 forward 7 unknown #
coedge $-1 $386 $249 $254 $401 forward $378 $-1 #
coedge $-1 $249 $386 $380 $539 reversed $378 $-1 #
vertex $-1 $250 $549 #
straight-curve $-1 0 17.205083950587273 7.0646541496496944 -1 0 0 I I #
coedge $-1 $251 $381 $253 $400 reversed $150 $-1 #
vertex $-1 $392 $550 #
straight-curve $-1 0 -17.205083950587273 7.0646541496496944 1 0 0 I I #
edge $-1 $256 -7.0646541496496944 $389 7.0646541496496944 $253 $551 forward 7 unknown #
edge $-1 $257 -7.0646541496496944 $388 7.0646541496496944 $254 $552 forward 7 unknown #
point $-1 41.173131504257334 -17.205083950587273 7.0646541496496944 #
point $-1 41.173131504257334 17.205083950587273 7.0646541496496944 #
face $-1 $-1 $414 $37 $-1 $553 reversed single #
loop $-1 $-1 $410 $259 #
plane-surface $-1 0 0 -7.0646541496496944 0 0 1 1 0 0 forward_v I I I I #
coedge $-1 $554 $555 $267 $418 forward $260 $-1 #
coedge $-1 $262 $422 $412 $556 forward $158 $-1 #
edge $-1 $416 -10.719043753744895 $272 -2.2530366399398583 $262 $557 forward 7 unknown #
coedge $-1 $558 $268 $263 $411 forward $405 $-1 #
edge $-1 $273 2.2530366399398583 $415 10.719043753744895 $410 $559 forward 7 unknown #
coedge $-1 $560 $265 $408 $556 reversed $414 $-1 #
coedge $-1 $265 $560 $558 $561 reversed $414 $-1 #
loop $-1 $-1 $265 $404 #
vertex $-1 $561 $562 #
vertex $-1 $266 $563 #
straight-curve $-1 -37.993120825377879 -17.205083950587273 0 0 0 1 I I #
edge $-1 $423 -7.0646541496496944 $420 7.0646541496496944 $407 $564 forward 7 unknown #
coedge $-1 $268 $558 $554 $565 forward $405 $-1 #
vertex $-1 $269 $566 #
straight-curve $-1 -19.791563082408803 -8.7390768367822353 -7.0646541496496944 1 0 0 I I #
coedge $-1 $408 $270 $555 $567 forward $158 $-1 #
vertex $-1 $567 $568 #
straight-curve $-1 -19.791563082408803 -8.7390768367822353 7.0646541496496944 -1 0 0 I I #
point $-1 -37.993120825377879 -8.7390768367822353 7.0646541496496944 #
point $-1 -37.993120825377879 -8.7390768367822353 -7.0646541496496944 #
plane-surface $-1 0 0 7.0646541496496944 0 0 1 1 0 0 forward_v I I I I #
coedge $-1 $438 $437 $430 $569 forward $276 $-1 #
coedge $-1 $430 $278 $280 $434 reversed $166 $-1 #
coedge $-1 $278 $429 $428 $569 reversed $166 $-1 #
coedge $-1 $286 $281 $278 $432 forward $287 $-1 #
edge $-1 $435 25.363077022120624 $570 31.696915296992618 $431 $571 forward 7 unknown #
coedge $-1 $280 $279 $438 $572 reversed $105 $-1 #
edge $-1 $573 -82.346263008514654 $435 -74.706273553267835 $429 $574 forward 7 unknown #
vertex $-1 $282 $575 #
straight-curve $-1 34.839293229385348 -2.3229383245390167 7.0646541496496944 0 -1 0 I I #
coedge $-1 $428 $283 $286 $442 reversed $276 $-1 #
coedge $-1 $283 $428 $433 $572 forward $276 $-1 #
vertex $-1 $284 $576 #
straight-curve $-1 41.173131504257334 -1.703866720525447 58.554009149104786 0 0 1 I I #
straight-curve $-1 -27.095014085631625 -1.703866720525447 48.839872708320613 0.82903756765294845 0 -0.55919291073839883 I I #
edge $-1 $570 -7.5878865776306199 $288 -1.703866720525447 $437 $577 forward 7 unknown #
point $-1 41.173131504257334 -1.703866720525447 7.0646541496496944 #
point $-1 34.839293229385341 -1.703866720525447 7.064654149649698 #
edge $-1 $578 1 $578 0 $291 $-1 forward 7 unknown #
vertex $-1 $292 $579 #
ellipse-curve $-1 36.924142427605709 -4.6458766490780334 3.3243055521581129 0.55919291073839883 0 0.82903756765294845 0.82903756765294845 0 -0.55919291073839883 1 I I #
point $-1 38.835249934474298 -4.6458766490780334 4.3693472681662238 #
plane-surface $-1 0 0 7.0646541496496944 0 0 1 1 0 0 forward_v I I I I #
coedge $-1 $460 $459 $452 $580 forward $296 $-1 #
coedge $-1 $452 $298 $300 $456 reversed $181 $-1 #
coedge $-1 $298 $451 $450 $580 reversed $181 $-1 #
coedge $-1 $306 $301 $298 $454 forward $307 $-1 #
edge $-1 $457 25.363077022120624 $581 31.696915296992618 $453 $582 forward 7 unknown #
coedge $-1 $300 $299 $460 $583 reversed $114 $-1 #
edge $-1 $584 -82.346263008514654 $457 -74.706273553267835 $451 $585 forward 7 unknown #
vertex $-1 $302 $586 #
straight-curve $-1 34.839293229385348 2.0010884733559013 7.0646541496496944 0 -1 0 I I #
coedge $-1 $450 $303 $306 $464 reversed $296 $-1 #
coedge $-1 $303 $450 $455 $583 forward $296 $-1 #
vertex $-1 $304 $587 #
straight-curve $-1 41.173131504257334 6.9441868752643892 58.554009149104786 0 0 1 I I #
straight-curve $-1 -27.095014085631625 6.9441868752643892 48.839872708320613 0.82903756765294845 0 -0.55919291073839883 I I #
edge $-1 $581 1.0601670181592162 $308 6.9441868752643892 $459 $588 forward 7 unknown #
point $-1 41.173131504257334 6.9441868752643892 7.0646541496496944 #
point $-1 34.839293229385341 6.9441868752643892 7.064654149649698 #
edge $-1 $589 1 $589 0 $311 $-1 forward 7 unknown #
vertex $-1 $312 $590 #
ellipse-curve $-1 36.924142427605709 4.0021769467118027 3.3243055521581129 0.55919291073839883 0 0.82903756765294845 0.82903756765294845 0 -0.55919291073839883 1 I I #
point $-1 38.835249934474298 4.0021769467118027 4.3693472681662238 #
plane-surface $-1 0 0 7.0646541496496944 0 0 1 1 0 0 forward_v I I I I #
coedge $-1 $482 $481 $474 $591 forward $316 $-1 #
coedge $-1 $474 $318 $320 $478 reversed $196 $-1 #
coedge $-1 $318 $473 $472 $591 reversed $196 $-1 #
coedge $-1 $326 $321 $318 $476 forward $327 $-1 #
edge $-1 $479 25.363077022120624 $592 31.696915296992618 $475 $593 forward 7 unknown #
coedge $-1 $320 $319 $482 $594 reversed $123 $-1 #
edge $-1 $595 -82.346263008514654 $479 -74.706273553267835 $473 $596 forward 7 unknown #
vertex $-1 $322 $597 #
straight-curve $-1 34.839293229385348 6.3251152712508194 7.0646541496496944 0 -1 0 I I #
coedge $-1 $472 $323 $326 $486 reversed $316 $-1 #
coedge $-1 $323 $472 $477 $594 forward $316 $-1 #
vertex $-1 $324 $598 #
straight-curve $-1 41.173131504257334 15.592240471054225 58.554009149104786 0 0 1 I I #
straight-curve $-1 -27.095014085631625 15.592240471054225 48.839872708320613 0.82903756765294845 0 -0.55919291073839883 I I #
edge $-1 $592 9.7082206139490523 $328 15.592240471054225 $481 $599 forward 7 unknown #
point $-1 41.173131504257334 15.592240471054225 7.0646541496496944 #
point $-1 34.839293229385341 15.592240471054225 7.064654149649698 #
edge $-1 $600 1 $600 0 $331 $-1 forward 7 unknown #
vertex $-1 $332 $601 #
ellipse-curve $-1 36.924142427605709 12.650230542501639 3.3243055521581129 0.55919291073839883 0 0.82903756765294845 0.82903756765294845 0 -0.55919291073839883 1 I I #
point $-1 38.835249934474298 12.650230542501639 4.3693472681662238 #
plane-surface $-1 0 0 7.0646541496496944 0 0 1 1 0 0 forward_v I I I I #
coedge $-1 $504 $503 $496 $602 forward $336 $-1 #
coedge $-1 $496 $338 $340 $500 reversed $211 $-1 #
coedge $-1 $338 $495 $494 $602 reversed $211 $-1 #
coedge $-1 $346 $341 $338 $498 forward $347 $-1 #
edge $-1 $501 -16.899140247163622 $603 -14.705696563415223 $497 $604 forward 7 unknown #
coedge $-1 $340 $339 $504 $605 reversed $132 $-1 #
edge $-1 $606 -1.393735185947377e-014 $501 4.2587991958920091 $495 $607 forward 7 unknown #
vertex $-1 $342 $608 #
straight-curve $-1 -38.979687820508929 0.51365563126638847 7.0646541496496944 0 1 0 I I #
coedge $-1 $494 $343 $346 $508 reversed $336 $-1 #
coedge $-1 $343 $494 $499 $605 forward $336 $-1 #
vertex $-1 $344 $609 #
straight-curve $-1 -41.173131504257334 -2.1783810318369614 22.91280520375075 0 0 1 I I #
straight-curve $-1 -41.173131504257327 -2.1783810318369614 3.4141507053074349 -0.51503806187062418 0 -0.85716730853699208 I I #
edge $-1 $603 -4.2330035569025153 $348 2.1783810318369614 $503 $610 forward 7 unknown #
point $-1 -41.173131504257334 -2.1783810318369614 7.0646541496496944 #
point $-1 -38.979687820508936 -2.1783810318369614 7.0646541496496944 #
edge $-1 $611 1 $611 0 $351 $-1 forward 7 unknown #
vertex $-1 $352 $612 #
ellipse-curve $-1 -39.201270798898634 1.0273112625327805 4.713565966349381 -0.85716730853699208 0 0.51503806187062418 0.51503806187062418 0 0.85716730853699208 1 I I #
point $-1 -39.561371600512508 1.0273112625327805 6.096569736015554 #
loop $-1 $-1 $361 $355 #
plane-surface $-1 0 0 7.0646541496496944 0 0 1 1 0 0 forward_v I I I I #
coedge $-1 $358 $524 $520 $613 reversed $226 $-1 #
edge $-1 $522 15.848151054101056 $525 19.498654498443326 $358 $614 forward 7 unknown #
edge $-1 $525 -1.393735185947377e-014 $521 4.2587991958920091 $359 $615 forward 7 unknown #
coedge $-1 $527 $361 $517 $613 forward $515 $-1 #
vertex $-1 $362 $616 #
vertex $-1 $613 $617 #
straight-curve $-1 -55.878828067672558 10.644388145641996 7.0646541496496944 -1 0 0 I I #
coedge $-1 $517 $364 $369 $530 forward $226 $-1 #
vertex $-1 $518 $618 #
straight-curve $-1 -41.173131504257334 0.51365563126638847 3.4141507053074216 0 -1 0 I I #
coedge $-1 $366 $520 $368 $529 forward $515 $-1 #
straight-curve $-1 -38.979687820508929 0.51365563126638847 7.0646541496496944 0 1 0 I I #
edge $-1 $619 14.705696563415223 $371 16.899140247163622 $527 $620 forward 7 unknown #
edge $-1 $370 -19.498654498443326 $619 -15.848151054101056 $524 $621 forward 7 unknown #
point $-1 -41.173131504257334 4.2330035569025153 3.4141507053074229 #
point $-1 -38.979687820508936 4.2330035569025153 7.0646541496496944 #
edge $-1 $622 1 $622 0 $373 $-1 forward 7 unknown #
vertex $-1 $374 $623 #
ellipse-curve $-1 -39.201270798898634 7.4386958512722607 4.713565966349381 -0.85716730853699208 0 0.51503806187062418 0.51503806187062418 0 0.85716730853699208 1 I I #
point $-1 -39.561371600512508 7.4386958512722607 6.096569736015554 #
plane-surface $-1 41.173131504257334 0 0 -1 0 0 0 0 1 forward_v I I I I #
coedge $-1 $382 $380 $384 $542 reversed $241 $-1 #
edge $-1 $395 -7.0646541496496944 $544 7.0646541496496944 $394 $624 forward 7 unknown #
vertex $-1 $542 $625 #
straight-curve $-1 -41.173131504257334 -17.205083950587273 0 0 0 -1 I I #
edge $-1 $540 -17.205083950587273 $544 17.205083950587273 $538 $626 forward 7 unknown #
straight-curve $-1 0 -17.205083950587273 -7.0646541496496944 -1 0 0 I I #
vertex $-1 $387 $627 #
straight-curve $-1 0 17.205083950587273 -7.0646541496496944 1 0 0 I I #
point $-1 41.173131504257334 17.205083950587273 -7.0646541496496944 #
point $-1 41.173131504257334 -17.205083950587273 -7.0646541496496944 #
straight-curve $-1 -41.173131504257334 0 7.0646541496496944 0 -1 0 I I #
point $-1 -41.173131504257334 17.205083950587273 7.0646541496496944 #
point $-1 -41.173131504257334 -17.205083950587273 7.0646541496496944 #
straight-curve $-1 41.173131504257334 -17.205083950587273 0 0 0 -1 I I #
straight-curve $-1 41.173131504257334 17.205083950587273 0 0 0 -1 I I #
plane-surface $-1 0 -17.205083950587273 0 0 1 0 0 0 1 forward_v I I I I #
coedge $-1 $628 $407 $419 $565 reversed $260 $-1 #
coedge $-1 $407 $628 $422 $567 reversed $260 $-1 #
edge $-1 $629 -41.173131504257334 $416 -37.993120825377879 $412 $630 forward 7 unknown #
straight-curve $-1 -37.993120825377879 -6.4860401968423771 7.0646541496496944 0 1 0 I I #
coedge $-1 $419 $410 $413 $561 forward $405 $-1 #
straight-curve $-1 -37.993120825377879 -6.4860401968423771 -7.0646541496496944 0 -1 0 I I #
coedge $-1 $413 $412 $628 $631 forward $414 $-1 #
edge $-1 $415 37.993120825377879 $632 41.173131504257334 $413 $633 forward 7 unknown #
point $-1 -37.993120825377879 -17.205083950587273 -7.0646541496496944 #
point $-1 -37.993120825377879 -17.205083950587273 7.0646541496496944 #
straight-curve $-1 -41.173131504257334 -8.7390768367822353 0 0 0 -1 I I #
edge $-1 $632 -17.205083950587273 $420 -8.7390768367822353 $554 $634 forward 7 unknown #
point $-1 -41.173131504257334 -8.7390768367822353 -7.0646541496496944 #
edge $-1 $423 8.7390768367822353 $629 17.205083950587273 $555 $635 forward 7 unknown #
point $-1 -41.173131504257334 -8.7390768367822353 7.0646541496496944 #
edge $-1 $570 51.489354999455088 $573 55.761582940945225 $428 $636 forward 7 unknown #
vertex $-1 $442 $637 #
straight-curve $-1 9.4762162072647165 -7.5878865776306199 7.064654149649698 1 0 0 I I #
edge $-1 $573 -5.2649482530916032 $439 0.61907160401356975 $438 $638 forward 7 unknown #
vertex $-1 $572 $639 #
straight-curve $-1 -27.095014085631625 -7.5878865776306199 48.839872708320613 -0.82903756765294845 0 0.55919291073839883 I I #
point $-1 34.839293229385341 -7.5878865776306199 7.064654149649698 #
point $-1 41.173131504257334 -1.703866720525447 2.7924262081595614 #
straight-curve $-1 41.173131504257334 0 7.0646541496496944 0 1 0 I I #
vertex $-1 $445 $640 #
point $-1 37.753179995258655 -4.6458766490780334 2.765112641419714 #
edge $-1 $581 51.489354999455088 $584 55.761582940945225 $450 $641 forward 7 unknown #
vertex $-1 $464 $642 #
straight-curve $-1 9.4762162072647165 1.0601670181592162 7.064654149649698 1 0 0 I I #
edge $-1 $584 -0.94092145519668513 $461 4.9430984019084878 $460 $643 forward 7 unknown #
vertex $-1 $583 $644 #
straight-curve $-1 -27.095014085631625 1.0601670181592162 48.839872708320613 -0.82903756765294845 0 0.55919291073839883 I I #
point $-1 34.839293229385341 1.0601670181592162 7.064654149649698 #
point $-1 41.173131504257334 6.9441868752643892 2.7924262081595614 #
straight-curve $-1 41.173131504257334 0 7.0646541496496944 0 1 0 I I #
vertex $-1 $467 $645 #
point $-1 37.753179995258655 4.0021769467118027 2.765112641419714 #
edge $-1 $592 51.489354999455088 $595 55.761582940945225 $472 $646 forward 7 unknown #
vertex $-1 $486 $647 #
straight-curve $-1 9.4762162072647165 9.7082206139490523 7.064654149649698 1 0 0 I I #
edge $-1 $595 3.3831053426982329 $483 9.2671251998034059 $482 $648 forward 7 unknown #
vertex $-1 $594 $649 #
straight-curve $-1 -27.095014085631625 9.7082206139490523 48.839872708320613 -0.82903756765294845 0 0.55919291073839883 I I #
point $-1 34.839293229385341 9.7082206139490523 7.064654149649698 #
point $-1 41.173131504257334 15.592240471054225 2.7924262081595614 #
straight-curve $-1 41.173131504257334 0 7.0646541496496944 0 1 0 I I #
vertex $-1 $489 $650 #
point $-1 37.753179995258655 12.650230542501639 2.765112641419714 #
edge $-1 $603 15.848151054101056 $606 19.498654498443326 $494 $651 forward 7 unknown #
vertex $-1 $508 $652 #
straight-curve $-1 -55.878828067672558 4.2330035569025153 7.0646541496496944 -1 0 0 I I #
edge $-1 $606 -3.7193479256361268 $505 2.6920366631033499 $504 $653 forward 7 unknown #
vertex $-1 $605 $654 #
straight-curve $-1 -41.173131504257327 4.2330035569025153 3.4141507053074349 0.51503806187062418 0 0.85716730853699208 I I #
point $-1 -38.979687820508936 4.2330035569025153 7.0646541496496944 #
point $-1 -41.173131504257334 -2.1783810318369614 3.4141507053074229 #
straight-curve $-1 -41.173131504257334 0 7.0646541496496944 0 -1 0 I I #
vertex $-1 $511 $655 #
point $-1 -38.686232737028014 1.0273112625327805 5.5707332748863729 #
edge $-1 $522 -10.644388145641996 $619 -4.2330035569025153 $517 $656 forward 7 unknown #
straight-curve $-1 -41.173131504257334 10.644388145641996 22.91280520375075 0 0 -1 I I #
straight-curve $-1 -41.173131504257327 10.644388145641996 3.4141507053074349 0.51503806187062418 0 0.85716730853699208 I I #
point $-1 -38.979687820508936 10.644388145641996 7.0646541496496944 #
point $-1 -41.173131504257334 10.644388145641996 7.0646541496496944 #
point $-1 -41.173131504257334 10.644388145641996 3.4141507053074229 #
vertex $-1 $530 $657 #
straight-curve $-1 -55.878828067672558 4.2330035569025153 7.0646541496496944 1 0 0 I I #
straight-curve $-1 -41.173131504257334 4.2330035569025153 22.91280520375075 0 0 1 I I #
vertex $-1 $533 $658 #
point $-1 -38.686232737028014 7.4386958512722607 5.5707332748863729 #
straight-curve $-1 -41.173131504257334 17.205083950587273 0 0 0 -1 I I #
point $-1 -41.173131504257334 -17.205083950587273 -7.0646541496496944 #
straight-curve $-1 -41.173131504257334 0 -7.0646541496496944 0 1 0 I I #
point $-1 -41.173131504257334 17.205083950587273 -7.0646541496496944 #
coedge $-1 $555 $554 $560 $631 reversed $260 $-1 #
vertex $-1 $567 $659 #
straight-curve $-1 0 -17.205083950587273 7.0646541496496944 1 0 0 I I #
edge $-1 $629 -7.0646541496496944 $632 7.0646541496496944 $628 $660 forward 7 unknown #
vertex $-1 $565 $661 #
straight-curve $-1 0 -17.205083950587273 -7.0646541496496944 -1 0 0 I I #
straight-curve $-1 -41.173131504257334 0 -7.0646541496496944 0 1 0 I I #
straight-curve $-1 -41.173131504257334 0 7.0646541496496944 0 -1 0 I I #
straight-curve $-1 41.173131504257334 -7.5878865776306199 58.554009149104786 0 0 -1 I I #
point $-1 41.173131504257334 -7.5878865776306199 7.0646541496496944 #
straight-curve $-1 41.173131504257327 -2.3229383245390167 2.792426208159565 0 1 0 I I #
point $-1 41.173131504257334 -7.5878865776306199 2.7924262081595614 #
point $-1 36.364949516867306 -4.6458766490780334 2.4952679845051646 #
straight-curve $-1 41.173131504257334 1.0601670181592162 58.554009149104786 0 0 -1 I I #
point $-1 41.173131504257334 1.0601670181592162 7.0646541496496944 #
straight-curve $-1 41.173131504257327 2.0010884733559013 2.792426208159565 0 1 0 I I #
point $-1 41.173131504257334 1.0601670181592162 2.7924262081595614 #
point $-1 36.364949516867306 4.0021769467118027 2.4952679845051646 #
straight-curve $-1 41.173131504257334 9.7082206139490523 58.554009149104786 0 0 -1 I I #
point $-1 41.173131504257334 9.7082206139490523 7.0646541496496944 #
straight-curve $-1 41.173131504257327 6.3251152712508194 2.792426208159565 0 1 0 I I #
point $-1 41.173131504257334 9.7082206139490523 2.7924262081595614 #
point $-1 36.364949516867306 12.650230542501639 2.4952679845051646 #
straight-curve $-1 -41.173131504257334 4.2330035569025153 22.91280520375075 0 0 -1 I I #
point $-1 -41.173131504257334 4.2330035569025153 7.0646541496496944 #
straight-curve $-1 -41.173131504257334 0.51365563126638847 3.4141507053074216 0 -1 0 I I #
point $-1 -41.173131504257334 4.2330035569025153 3.4141507053074229 #
point $-1 -38.344103490361647 1.0273112625327805 4.1985279044787562 #
straight-curve $-1 -41.173131504257334 0 7.0646541496496944 0 -1 0 I I #
point $-1 -41.173131504257334 4.2330035569025153 7.0646541496496944 #
point $-1 -38.344103490361647 7.4386958512722607 4.1985279044787562 #
point $-1 -41.173131504257334 -17.205083950587273 7.0646541496496944 #
straight-curve $-1 -41.173131504257334 -17.205083950587273 0 0 0 -1 I I #
point $-1 -41.173131504257334 -17.205083950587273 -7.0646541496496944 #
End-of-ACIS-data 