500 0 12 0           
7 Unknown 11 ACIS 5.0 NT 24 Thu Mar 25 19:31:09 1999 
-1 9.9999999999999995e-007 1e-010 
body $-1 $12 $-1 $13 #
body $-1 $14 $-1 $15 #
body $-1 $16 $-1 $17 #
body $-1 $18 $-1 $19 #
body $-1 $20 $-1 $21 #
body $-1 $22 $-1 $23 #
body $-1 $24 $-1 $25 #
body $-1 $26 $-1 $27 #
body $-1 $28 $-1 $29 #
body $-1 $30 $-1 $31 #
body $-1 $32 $-1 $33 #
body $-1 $34 $-1 $35 #
lump $-1 $-1 $36 $0 #
transform $-1 1 0 0 0 1 0 0 0 1 79.359111301004063 47.856205806552929 11.487271203658583 1 rotate no_reflect no_shear #
lump $-1 $-1 $37 $1 #
transform $-1 1 0 0 0 1 0 0 0 1 79.359111301004063 47.856205806552929 11.487271203658583 1 rotate no_reflect no_shear #
lump $-1 $-1 $38 $2 #
transform $-1 1 0 0 0 1 0 0 0 1 79.359111301004063 47.856205806552929 11.487271203658583 1 rotate no_reflect no_shear #
lump $-1 $-1 $39 $3 #
transform $-1 1 0 0 0 1 0 0 0 1 79.359111301004063 47.856205806552929 11.487271203658583 1 rotate no_reflect no_shear #
lump $-1 $-1 $40 $4 #
transform $-1 1 0 0 0 1 0 0 0 1 79.359111301004063 47.856205806552929 11.487271203658583 1 rotate no_reflect no_shear #
lump $-1 $-1 $41 $5 #
transform $-1 1 0 0 0 1 0 0 0 1 79.359111301004063 47.856205806552929 11.487271203658583 1 rotate no_reflect no_shear #
lump $-1 $-1 $42 $6 #
transform $-1 1 0 0 0 1 0 0 0 1 79.359111301004063 47.856205806552929 11.487271203658583 1 rotate no_reflect no_shear #
lump $-1 $-1 $43 $7 #
transform $-1 1 0 0 0 1 0 0 0 1 79.359111301004063 47.856205806552929 11.487271203658583 1 rotate no_reflect no_shear #
lump $-1 $-1 $44 $8 #
transform $-1 1 0 0 0 1 0 0 0 1 79.359111301004063 47.856205806552929 11.487271203658583 1 rotate no_reflect no_shear #
lump $-1 $-1 $45 $9 #
transform $-1 1 0 0 0 1 0 0 0 1 79.359111301004063 47.856205806552929 11.487271203658583 1 rotate no_reflect no_shear #
lump $-1 $-1 $46 $10 #
transform $-1 1 0 0 0 1 0 0 0 1 79.359111301004063 47.856205806552929 11.487271203658583 1 rotate no_reflect no_shear #
lump $-1 $-1 $47 $11 #
transform $-1 1 0 0 0 1 0 0 0 1 79.359111301004063 47.856205806552929 11.487271203658583 1 rotate no_reflect no_shear #
shell $-1 $-1 $-1 $48 $-1 $12 #
shell $-1 $-1 $-1 $49 $-1 $14 #
shell $-1 $-1 $-1 $50 $-1 $16 #
shell $-1 $-1 $-1 $51 $-1 $18 #
shell $-1 $-1 $-1 $52 $-1 $20 #
shell $-1 $-1 $-1 $53 $-1 $22 #
shell $-1 $-1 $-1 $54 $-1 $24 #
shell $-1 $-1 $-1 $55 $-1 $26 #
shell $-1 $-1 $-1 $56 $-1 $28 #
shell $-1 $-1 $-1 $57 $-1 $30 #
shell $-1 $-1 $-1 $58 $-1 $32 #
shell $-1 $-1 $-1 $59 $-1 $34 #
face $-1 $60 $61 $36 $-1 $62 forward single #
face $-1 $63 $64 $37 $-1 $65 forward single #
face $-1 $66 $67 $38 $-1 $68 reversed single #
face $-1 $69 $70 $39 $-1 $71 forward single #
face $-1 $72 $73 $40 $-1 $74 forward single #
face $-1 $75 $76 $41 $-1 $77 reversed single #
face $-1 $78 $79 $42 $-1 $80 forward single #
face $-1 $81 $82 $43 $-1 $83 forward single #
face $-1 $84 $85 $44 $-1 $86 reversed single #
face $-1 $87 $88 $45 $-1 $89 forward single #
face $-1 $90 $91 $46 $-1 $92 forward single #
face $-1 $93 $94 $47 $-1 $95 forward single #
face $-1 $96 $97 $36 $-1 $98 reversed single #
loop $-1 $-1 $99 $48 #
plane-surface $-1 0 0 11.487271203658583 0 0 1 1 0 0 forward_v I I I I #
face $-1 $100 $101 $37 $-1 $102 reversed single #
loop $-1 $-1 $103 $49 #
plane-surface $-1 0 -43.608779654007073 -3.9782136568692725 0 0 1 1 0 0 forward_v I I I I #
face $-1 $104 $105 $38 $-1 $106 reversed single #
loop $-1 $-1 $107 $50 #
plane-surface $-1 36.529846976878048 -14.594436024388411 228.30308129842709 0 1 0 0.55919291073839883 0 0.82903756765294845 forward_v I I I I #
face $-1 $108 $109 $39 $-1 $110 forward single #
loop $-1 $111 $112 $51 #
cone-surface $-1 75.876008102975689 -9.2110468309786242 8.4328121925377832 -0.55919291073839883 0 -0.82903756765294845 0.82903756765294845 0 -0.55919291073839883 1 I I 0 1 1 forward I I I I #
face $-1 $113 $114 $40 $-1 $115 forward single #
loop $-1 $116 $117 $52 #
cone-surface $-1 75.876008102975689 -1.1359630408639347 8.4328121925377832 -0.55919291073839883 0 -0.82903756765294845 0.82903756765294845 0 -0.55919291073839883 1 I I 0 1 1 forward I I I I #
face $-1 $118 $119 $41 $-1 $120 reversed single #
loop $-1 $-1 $121 $53 #
plane-surface $-1 36.529846976878048 23.089288329480116 228.30308129842709 0 -1 0 -0.55919291073839883 0 -0.82903756765294845 forward_v I I I I #
face $-1 $122 $123 $42 $-1 $124 forward single #
loop $-1 $125 $126 $54 #
cone-surface $-1 75.876008102975689 9.6308153459556394 8.4328121925377832 -0.55919291073839883 0 -0.82903756765294845 0.82903756765294845 0 -0.55919291073839883 1 I I 0 1 1 forward I I I I #
face $-1 $127 $128 $43 $-1 $129 forward single #
loop $-1 $130 $131 $55 #
cone-surface $-1 75.876008102975689 17.705899136070322 8.4328121925377832 -0.55919291073839883 0 -0.82903756765294845 0.82903756765294845 0 -0.55919291073839883 1 I I 0 1 1 forward I I I I #
face $-1 $132 $133 $44 $-1 $134 reversed single #
loop $-1 $-1 $135 $56 #
plane-surface $-1 -215.40718298454254 20.371254848676543 83.713433063593953 0 1 0 -0.85716730853699208 0 0.51503806187062418 forward_v I I I I #
face $-1 $136 $137 $45 $-1 $138 forward single #
loop $-1 $139 $140 $57 #
cone-surface $-1 -75.82800385836552 22.874204759248109 6.3241625683290401 0.85716730853699208 0 -0.51503806187062418 0.51503806187062418 0 0.85716730853699208 1 I I 0 1 1 forward I I I I #
face $-1 $141 $142 $46 $-1 $143 forward single #
loop $-1 $144 $145 $58 #
cone-surface $-1 -75.82800385836552 26.62862962510544 6.3241625683290401 0.85716730853699208 0 -0.51503806187062418 0.51503806187062418 0 0.85716730853699208 1 I I 0 1 1 forward I I I I #
face $-1 $146 $147 $47 $-1 $148 forward single #
loop $-1 $149 $150 $59 #
cone-surface $-1 -75.82800385836552 30.38305449096277 6.3241625683290401 0.85716730853699208 0 -0.51503806187062418 0.51503806187062418 0 0.85716730853699208 1 I I 0 1 1 forward I I I I #
face $-1 $151 $152 $36 $-1 $153 reversed single #
loop $-1 $-1 $154 $60 #
plane-surface $-1 0 0 -11.487271203658583 0 0 1 1 0 0 forward_v I I I I #
coedge $-1 $155 $156 $157 $158 forward $61 $-1 #
face $-1 $159 $160 $37 $-1 $161 reversed single #
loop $-1 $-1 $162 $63 #
plane-surface $-1 0 -43.608779654007073 -7.8787744914328925 0 0 1 1 0 0 forward_v I I I I #
coedge $-1 $163 $164 $165 $166 reversed $64 $-1 #
face $-1 $167 $168 $38 $-1 $169 reversed single #
loop $-1 $-1 $170 $66 #
plane-surface $-1 -52.224257907164017 -5.1735049359212795 96.719712090259009 0.55919291073839883 0 0.82903756765294845 0.82903756765294845 0 -0.55919291073839883 forward_v I I I I #
coedge $-1 $171 $172 $173 $174 reversed $67 $-1 #
face $-1 $-1 $175 $39 $-1 $176 forward single #
loop $-1 $177 $178 $69 #
cone-surface $-1 74.723849193625384 -9.2110468309786242 6.7246663963112887 -0.55919291073839883 0 -0.82903756765294845 0.41451878382647422 0 -0.27959645536919941 1 I I -0.70710678118654746 0.70710678118654746 0.5 forward I I I I #
loop $-1 $-1 $179 $51 #
coedge $-1 $112 $112 $180 $181 reversed $70 $-1 #
face $-1 $-1 $182 $40 $-1 $183 forward single #
loop $-1 $184 $185 $72 #
cone-surface $-1 74.723849193625384 -1.1359630408639347 6.7246663963112887 -0.55919291073839883 0 -0.82903756765294845 0.41451878382647422 0 -0.27959645536919941 1 I I -0.70710678118654746 0.70710678118654746 0.5 forward I I I I #
loop $-1 $-1 $186 $52 #
coedge $-1 $117 $117 $187 $188 reversed $73 $-1 #
face $-1 $189 $190 $41 $-1 $191 reversed single #
loop $-1 $-1 $192 $75 #
plane-surface $-1 -52.224257907164017 -5.1735049359212795 96.719712090259009 0.55919291073839883 0 0.82903756765294845 0.82903756765294845 0 -0.55919291073839883 forward_v I I I I #
coedge $-1 $193 $194 $195 $196 reversed $76 $-1 #
face $-1 $-1 $197 $42 $-1 $198 forward single #
loop $-1 $199 $200 $78 #
cone-surface $-1 74.723849193625384 9.6308153459556394 6.7246663963112887 -0.55919291073839883 0 -0.82903756765294845 0.41451878382647422 0 -0.27959645536919941 1 I I -0.70710678118654746 0.70710678118654746 0.5 forward I I I I #
loop $-1 $-1 $201 $54 #
coedge $-1 $126 $126 $202 $203 reversed $79 $-1 #
face $-1 $-1 $204 $43 $-1 $205 forward single #
loop $-1 $206 $207 $81 #
cone-surface $-1 74.723849193625384 17.705899136070322 6.7246663963112887 -0.55919291073839883 0 -0.82903756765294845 0.41451878382647422 0 -0.27959645536919941 1 I I -0.70710678118654746 0.70710678118654746 0.5 forward I I I I #
loop $-1 $-1 $208 $55 #
coedge $-1 $131 $131 $209 $210 reversed $82 $-1 #
face $-1 $211 $212 $44 $-1 $213 reversed single #
loop $-1 $-1 $214 $84 #
plane-surface $-1 -79.359111301004049 26.628629625105425 1.9675073111053933 -0.85716730853699208 0 0.51503806187062418 0.51503806187062418 0 0.85716730853699208 forward_v I I I I #
coedge $-1 $215 $216 $217 $218 reversed $85 $-1 #
face $-1 $-1 $219 $45 $-1 $220 forward single #
loop $-1 $221 $222 $87 #
cone-surface $-1 -74.728338275646024 22.874204759248109 5.663416848340777 0.85716730853699208 0 -0.51503806187062418 0.25751903093531209 0 0.42858365426849604 1 I I -0.70710678118654746 0.70710678118654746 0.5 forward I I I I #
loop $-1 $-1 $223 $57 #
coedge $-1 $140 $140 $224 $225 reversed $88 $-1 #
face $-1 $-1 $226 $46 $-1 $227 forward single #
loop $-1 $228 $229 $90 #
cone-surface $-1 -74.728338275646024 26.62862962510544 5.663416848340777 0.85716730853699208 0 -0.51503806187062418 0.25751903093531209 0 0.42858365426849604 1 I I -0.70710678118654746 0.70710678118654746 0.5 forward I I I I #
loop $-1 $-1 $230 $58 #
coedge $-1 $145 $145 $231 $232 reversed $91 $-1 #
face $-1 $-1 $233 $47 $-1 $234 forward single #
loop $-1 $235 $236 $93 #
cone-surface $-1 -74.728338275646024 30.38305449096277 5.663416848340777 0.85716730853699208 0 -0.51503806187062418 0.25751903093531209 0 0.42858365426849604 1 I I -0.70710678118654746 0.70710678118654746 0.5 forward I I I I #
loop $-1 $-1 $237 $59 #
coedge $-1 $150 $150 $238 $239 reversed $94 $-1 #
face $-1 $240 $241 $36 $-1 $242 reversed single #
loop $-1 $-1 $243 $96 #
plane-surface $-1 0 -47.856205806552929 0 0 1 0 0 0 1 forward_v I I I I #
coedge $-1 $244 $245 $246 $247 forward $97 $-1 #
coedge $-1 $248 $99 $249 $250 forward $61 $-1 #
coedge $-1 $99 $248 $251 $252 forward $61 $-1 #
coedge $-1 $253 $254 $99 $158 reversed $255 $-1 #
edge $-1 $256 -47.856205806552929 $257 47.856205806552929 $157 $258 forward 7 unknown #
face $-1 $259 $260 $37 $-1 $261 reversed single #
loop $-1 $-1 $262 $100 #
plane-surface $-1 0 -39.361353501461217 -5.9284940741510823 0 -1 0 0 0 -1 forward_v I I I I #
coedge $-1 $263 $264 $265 $266 reversed $101 $-1 #
coedge $-1 $267 $103 $268 $269 forward $64 $-1 #
coedge $-1 $103 $267 $270 $271 reversed $64 $-1 #
coedge $-1 $272 $273 $103 $166 forward $274 $-1 #
edge $-1 $275 17.55696367445768 $276 26.051815979549392 $165 $277 forward 7 unknown #
face $-1 $278 $279 $38 $-1 $280 forward single #
loop $-1 $-1 $281 $104 #
plane-surface $-1 36.529846976878048 4.2474261525458523 228.30308129842709 0 -1 0 -0.55919291073839883 0 -0.82903756765294845 forward_v I I I I #
coedge $-1 $282 $283 $284 $285 reversed $105 $-1 #
coedge $-1 $172 $107 $286 $287 reversed $67 $-1 #
coedge $-1 $107 $171 $282 $288 reversed $67 $-1 #
coedge $-1 $284 $289 $107 $174 forward $290 $-1 #
edge $-1 $291 102.66426944555496 $292 106.18593344299661 $173 $293 forward 7 unknown #
loop $-1 $-1 $180 $108 #
plane-surface $-1 -52.224257907164017 -5.1735049359212795 96.719712090259009 0.55919291073839883 0 0.82903756765294845 0.82903756765294845 0 -0.55919291073839883 forward_v I I I I #
loop $-1 $-1 $294 $69 #
coedge $-1 $178 $178 $179 $295 reversed $109 $-1 #
coedge $-1 $179 $179 $178 $295 forward $111 $-1 #
coedge $-1 $180 $180 $112 $181 forward $175 $-1 #
edge $-1 $296 0 $296 6.2831853071796004 $180 $297 forward 7 unknown #
loop $-1 $-1 $187 $113 #
plane-surface $-1 -52.224257907164017 -5.1735049359212795 96.719712090259009 0.55919291073839883 0 0.82903756765294845 0.82903756765294845 0 -0.55919291073839883 forward_v I I I I #
loop $-1 $-1 $298 $72 #
coedge $-1 $185 $185 $186 $299 reversed $114 $-1 #
coedge $-1 $186 $186 $185 $299 forward $116 $-1 #
coedge $-1 $187 $187 $117 $188 forward $182 $-1 #
edge $-1 $300 0 $300 6.2831853071796004 $187 $301 forward 7 unknown #
face $-1 $302 $303 $41 $-1 $304 forward single #
loop $-1 $-1 $305 $118 #
plane-surface $-1 79.359111301004063 0 0 -1 0 0 0 0 1 forward_v I I I I #
coedge $-1 $306 $307 $308 $309 reversed $119 $-1 #
coedge $-1 $194 $121 $310 $311 reversed $76 $-1 #
coedge $-1 $121 $193 $312 $313 reversed $76 $-1 #
coedge $-1 $314 $305 $121 $196 forward $190 $-1 #
edge $-1 $315 -106.18593344299661 $316 -102.66426944555496 $195 $317 forward 7 unknown #
loop $-1 $-1 $202 $122 #
plane-surface $-1 -52.224257907164017 -5.1735049359212795 96.719712090259009 0.55919291073839883 0 0.82903756765294845 0.82903756765294845 0 -0.55919291073839883 forward_v I I I I #
loop $-1 $-1 $318 $78 #
coedge $-1 $200 $200 $201 $319 reversed $123 $-1 #
coedge $-1 $201 $201 $200 $319 forward $125 $-1 #
coedge $-1 $202 $202 $126 $203 forward $197 $-1 #
edge $-1 $320 0 $320 6.2831853071796004 $202 $321 forward 7 unknown #
loop $-1 $-1 $209 $127 #
plane-surface $-1 -52.224257907164017 -5.1735049359212795 96.719712090259009 0.55919291073839883 0 0.82903756765294845 0.82903756765294845 0 -0.55919291073839883 forward_v I I I I #
loop $-1 $-1 $322 $81 #
coedge $-1 $207 $207 $208 $323 reversed $128 $-1 #
coedge $-1 $208 $208 $207 $323 forward $130 $-1 #
coedge $-1 $209 $209 $131 $210 forward $204 $-1 #
edge $-1 $324 0 $324 6.2831853071796004 $209 $325 forward 7 unknown #
face $-1 $326 $327 $44 $-1 $328 reversed single #
loop $-1 $-1 $329 $132 #
plane-surface $-1 -215.40718298454254 32.886004401534308 83.713433063593953 0 -1 0 0.85716730853699208 0 -0.51503806187062418 forward_v I I I I #
coedge $-1 $330 $331 $332 $333 reversed $133 $-1 #
coedge $-1 $216 $135 $334 $335 reversed $85 $-1 #
coedge $-1 $135 $215 $330 $336 reversed $85 $-1 #
coedge $-1 $332 $337 $135 $218 forward $338 $-1 #
edge $-1 $339 28.344480191267209 $340 34.064531219642333 $217 $341 forward 7 unknown #
loop $-1 $-1 $224 $136 #
plane-surface $-1 -79.359111301004049 26.628629625105425 1.9675073111053933 -0.85716730853699208 0 0.51503806187062418 0.51503806187062418 0 0.85716730853699208 forward_v I I I I #
loop $-1 $-1 $342 $87 #
coedge $-1 $222 $222 $223 $343 reversed $137 $-1 #
coedge $-1 $223 $223 $222 $343 forward $139 $-1 #
coedge $-1 $224 $224 $140 $225 forward $219 $-1 #
edge $-1 $344 0 $344 6.2831853071796004 $224 $345 forward 7 unknown #
loop $-1 $-1 $231 $141 #
plane-surface $-1 -79.359111301004049 26.628629625105425 1.9675073111053933 -0.85716730853699208 0 0.51503806187062418 0.51503806187062418 0 0.85716730853699208 forward_v I I I I #
loop $-1 $-1 $346 $90 #
coedge $-1 $229 $229 $230 $347 reversed $142 $-1 #
coedge $-1 $230 $230 $229 $347 forward $144 $-1 #
coedge $-1 $231 $231 $145 $232 forward $226 $-1 #
edge $-1 $348 0 $348 6.2831853071796004 $231 $349 forward 7 unknown #
loop $-1 $-1 $238 $146 #
plane-surface $-1 -79.359111301004049 26.628629625105425 1.9675073111053933 -0.85716730853699208 0 0.51503806187062418 0.51503806187062418 0 0.85716730853699208 forward_v I I I I #
loop $-1 $-1 $350 $93 #
coedge $-1 $236 $236 $237 $351 reversed $147 $-1 #
coedge $-1 $237 $237 $236 $351 forward $149 $-1 #
coedge $-1 $238 $238 $150 $239 forward $233 $-1 #
edge $-1 $352 0 $352 6.2831853071796004 $238 $353 forward 7 unknown #
face $-1 $354 $355 $36 $-1 $356 reversed single #
loop $-1 $-1 $357 $151 #
plane-surface $-1 -79.359111301004063 0 0 1 0 0 0 0 -1 forward_v I I I I #
coedge $-1 $358 $251 $359 $360 forward $152 $-1 #
coedge $-1 $361 $154 $358 $362 forward $97 $-1 #
coedge $-1 $154 $361 $363 $364 forward $97 $-1 #
coedge $-1 $254 $253 $154 $247 reversed $255 $-1 #
edge $-1 $365 -47.856205806552929 $366 47.856205806552929 $246 $367 forward 7 unknown #
coedge $-1 $156 $155 $368 $369 forward $61 $-1 #
coedge $-1 $370 $371 $155 $250 reversed $355 $-1 #
edge $-1 $257 -79.359111301004063 $372 79.359111301004063 $249 $373 forward 7 unknown #
coedge $-1 $243 $374 $156 $252 reversed $152 $-1 #
edge $-1 $375 -79.359111301004063 $256 79.359111301004063 $251 $376 forward 7 unknown #
coedge $-1 $246 $157 $374 $377 forward $255 $-1 #
coedge $-1 $157 $246 $370 $378 reversed $255 $-1 #
loop $-1 $-1 $253 $354 #
vertex $-1 $158 $379 #
vertex $-1 $158 $380 #
straight-curve $-1 79.359111301004063 0 11.487271203658583 0 1 0 I I #
face $-1 $381 $382 $37 $-1 $383 reversed single #
loop $-1 $-1 $384 $159 #
plane-surface $-1 -79.359111301004063 0 0 1 0 0 0 0 -1 forward_v I I I I #
coedge $-1 $385 $268 $273 $386 reversed $160 $-1 #
coedge $-1 $387 $162 $388 $389 reversed $101 $-1 #
coedge $-1 $162 $387 $385 $390 forward $101 $-1 #
coedge $-1 $273 $272 $162 $266 forward $274 $-1 #
edge $-1 $391 -26.051815979549392 $392 -17.55696367445768 $265 $393 forward 7 unknown #
coedge $-1 $164 $163 $384 $394 reversed $64 $-1 #
coedge $-1 $262 $395 $163 $269 reversed $160 $-1 #
edge $-1 $275 -79.359111301004063 $396 79.359111301004063 $268 $397 forward 7 unknown #
coedge $-1 $398 $399 $164 $271 forward $382 $-1 #
edge $-1 $276 -79.359111301004063 $400 79.359111301004063 $270 $401 forward 7 unknown #
coedge $-1 $265 $165 $399 $402 forward $274 $-1 #
coedge $-1 $165 $265 $262 $386 forward $274 $-1 #
loop $-1 $-1 $165 $381 #
vertex $-1 $166 $403 #
vertex $-1 $402 $404 #
straight-curve $-1 79.359111301004063 -21.804389827003536 -3.9782136568692725 0 -1 0 I I #
face $-1 $-1 $290 $38 $-1 $405 reversed single #
loop $-1 $-1 $406 $167 #
plane-surface $-1 0 0 11.487271203658583 0 0 1 1 0 0 forward_v I I I I #
coedge $-1 $407 $408 $409 $410 reversed $168 $-1 #
coedge $-1 $411 $170 $172 $288 forward $105 $-1 #
coedge $-1 $170 $411 $407 $412 forward $105 $-1 #
coedge $-1 $409 $173 $170 $285 forward $290 $-1 #
edge $-1 $292 -12.007683556427772 $413 6.8341786205064921 $284 $414 forward 7 unknown #
coedge $-1 $415 $416 $171 $287 forward $279 $-1 #
edge $-1 $417 55.873106324470456 $291 61.094187812565039 $286 $418 forward 7 unknown #
edge $-1 $292 -158.71822260200815 $417 -152.42046036322839 $172 $419 forward 7 unknown #
coedge $-1 $173 $409 $415 $420 reversed $290 $-1 #
loop $-1 $-1 $409 $278 #
vertex $-1 $420 $421 #
vertex $-1 $174 $422 #
straight-curve $-1 79.359111301004063 -14.594436024388411 114.15154064921354 0 0 -1 I I #
coedge $-1 $294 $294 $-1 $423 reversed $177 $-1 #
edge $-1 $424 0 $424 6.2831853071796004 $178 $425 forward 7 unknown #
vertex $-1 $181 $426 #
ellipse-curve $-1 76.748570556956778 -9.2110468309786242 9.7264392049377655 0.55919291073839883 0 0.82903756765294845 0.82903756765294845 0 -0.55919291073839883 1 I I #
coedge $-1 $298 $298 $-1 $427 reversed $184 $-1 #
edge $-1 $428 0 $428 6.2831853071796004 $185 $429 forward 7 unknown #
vertex $-1 $188 $430 #
ellipse-curve $-1 76.748570556956778 -1.1359630408639347 9.7264392049377655 0.55919291073839883 0 0.82903756765294845 0.82903756765294845 0 -0.55919291073839883 1 I I #
face $-1 $-1 $431 $41 $-1 $432 forward single #
loop $-1 $-1 $433 $189 #
plane-surface $-1 36.529846976878048 4.2474261525458523 228.30308129842709 0 -1 0 -0.55919291073839883 0 -0.82903756765294845 forward_v I I I I #
coedge $-1 $195 $434 $307 $435 forward $190 $-1 #
coedge $-1 $310 $192 $436 $437 reversed $119 $-1 #
coedge $-1 $192 $310 $305 $435 reversed $119 $-1 #
coedge $-1 $433 $438 $192 $309 forward $303 $-1 #
edge $-1 $439 152.42046036322839 $440 158.71822260200815 $308 $441 forward 7 unknown #
coedge $-1 $307 $306 $193 $311 forward $119 $-1 #
edge $-1 $442 152.42046036322839 $315 158.71822260200815 $193 $443 forward 7 unknown #
coedge $-1 $436 $444 $194 $313 forward $431 $-1 #
edge $-1 $316 -61.094187812565039 $442 -55.873106324470456 $312 $445 forward 7 unknown #
coedge $-1 $434 $195 $444 $446 reversed $190 $-1 #
vertex $-1 $196 $447 #
vertex $-1 $313 $448 #
straight-curve $-1 79.359111301004063 23.089288329480116 114.15154064921354 0 0 1 I I #
coedge $-1 $318 $318 $-1 $449 reversed $199 $-1 #
edge $-1 $450 0 $450 6.2831853071796004 $200 $451 forward 7 unknown #
vertex $-1 $203 $452 #
ellipse-curve $-1 76.748570556956778 9.6308153459556394 9.7264392049377655 0.55919291073839883 0 0.82903756765294845 0.82903756765294845 0 -0.55919291073839883 1 I I #
coedge $-1 $322 $322 $-1 $453 reversed $206 $-1 #
edge $-1 $454 0 $454 6.2831853071796004 $207 $455 forward 7 unknown #
vertex $-1 $210 $456 #
ellipse-curve $-1 76.748570556956778 17.705899136070322 9.7264392049377655 0.55919291073839883 0 0.82903756765294845 0.82903756765294845 0 -0.55919291073839883 1 I I #
face $-1 $-1 $338 $44 $-1 $457 forward single #
loop $-1 $-1 $458 $211 #
plane-surface $-1 -79.359111301004063 0 0 1 0 0 0 0 -1 forward_v I I I I #
coedge $-1 $459 $460 $461 $462 reversed $212 $-1 #
coedge $-1 $463 $214 $216 $336 forward $133 $-1 #
coedge $-1 $214 $463 $459 $464 forward $133 $-1 #
coedge $-1 $461 $217 $214 $333 forward $338 $-1 #
edge $-1 $340 7.0569400361238301 $465 19.571689588981595 $332 $466 forward 7 unknown #
coedge $-1 $467 $468 $215 $335 forward $327 $-1 #
edge $-1 $469 -39.889209220691605 $339 -30.369445328138394 $334 $470 forward 7 unknown #
edge $-1 $340 -11.106074389142849 $469 2.7684374342568793e-014 $216 $471 forward 7 unknown #
coedge $-1 $217 $461 $467 $472 forward $338 $-1 #
loop $-1 $-1 $461 $326 #
vertex $-1 $335 $473 #
vertex $-1 $218 $474 #
straight-curve $-1 -107.70359149227127 20.371254848676543 11.487271203658587 1 0 0 I I #
coedge $-1 $342 $342 $-1 $475 reversed $221 $-1 #
edge $-1 $476 0 $476 6.2831853071796004 $222 $477 forward 7 unknown #
vertex $-1 $225 $478 #
ellipse-curve $-1 -76.499085786816494 22.874204759248109 6.7273892573819829 -0.85716730853699208 0 0.51503806187062418 0.51503806187062418 0 0.85716730853699208 1 I I #
coedge $-1 $346 $346 $-1 $479 reversed $228 $-1 #
edge $-1 $480 0 $480 6.2831853071796004 $229 $481 forward 7 unknown #
vertex $-1 $232 $482 #
ellipse-curve $-1 -76.499085786816494 26.62862962510544 6.7273892573819829 -0.85716730853699208 0 0.51503806187062418 0.51503806187062418 0 0.85716730853699208 1 I I #
coedge $-1 $350 $350 $-1 $483 reversed $235 $-1 #
edge $-1 $484 0 $484 6.2831853071796004 $236 $485 forward 7 unknown #
vertex $-1 $239 $486 #
ellipse-curve $-1 -76.499085786816494 30.38305449096277 6.7273892573819829 -0.85716730853699208 0 0.51503806187062418 0.51503806187062418 0 0.85716730853699208 1 I I #
face $-1 $-1 $255 $36 $-1 $487 reversed single #
loop $-1 $-1 $370 $240 #
plane-surface $-1 0 47.856205806552929 0 0 -1 0 0 0 -1 forward_v I I I I #
coedge $-1 $488 $368 $371 $489 forward $241 $-1 #
coedge $-1 $374 $243 $244 $362 reversed $152 $-1 #
coedge $-1 $368 $488 $243 $360 reversed $241 $-1 #
edge $-1 $375 -11.487271203658583 $490 11.487271203658583 $359 $491 forward 7 unknown #
coedge $-1 $245 $244 $488 $492 forward $97 $-1 #
edge $-1 $366 -79.359111301004063 $490 79.359111301004063 $358 $493 forward 7 unknown #
coedge $-1 $371 $370 $245 $364 reversed $355 $-1 #
edge $-1 $494 -79.359111301004063 $365 79.359111301004063 $363 $495 forward 7 unknown #
vertex $-1 $247 $496 #
vertex $-1 $377 $497 #
straight-curve $-1 79.359111301004063 0 -11.487271203658583 0 -1 0 I I #
coedge $-1 $357 $359 $248 $369 reversed $241 $-1 #
edge $-1 $372 -47.856205806552929 $375 47.856205806552929 $368 $498 forward 7 unknown #
coedge $-1 $363 $249 $254 $378 forward $355 $-1 #
coedge $-1 $249 $363 $357 $489 reversed $355 $-1 #
vertex $-1 $250 $499 #
straight-curve $-1 0 47.856205806552929 11.487271203658583 -1 0 0 I I #
coedge $-1 $251 $358 $253 $377 reversed $152 $-1 #
vertex $-1 $369 $500 #
straight-curve $-1 0 -47.856205806552929 11.487271203658583 1 0 0 I I #
edge $-1 $256 -11.487271203658583 $366 11.487271203658583 $253 $501 forward 7 unknown #
edge $-1 $257 -11.487271203658583 $365 11.487271203658583 $254 $502 forward 7 unknown #
point $-1 79.359111301004063 -47.856205806552929 11.487271203658583 #
point $-1 79.359111301004063 47.856205806552929 11.487271203658583 #
face $-1 $-1 $274 $37 $-1 $503 reversed single #
loop $-1 $-1 $270 $259 #
plane-surface $-1 0 -47.856205806552929 0 0 1 0 0 0 1 forward_v I I I I #
coedge $-1 $504 $505 $267 $394 forward $260 $-1 #
coedge $-1 $395 $262 $264 $390 reversed $160 $-1 #
edge $-1 $392 -4.9145274543573514 $275 -1.0139666197937314 $273 $506 forward 7 unknown #
coedge $-1 $264 $263 $507 $508 reversed $101 $-1 #
coedge $-1 $399 $398 $263 $389 forward $382 $-1 #
edge $-1 $509 -79.359111301004063 $391 79.359111301004063 $388 $510 forward 7 unknown #
edge $-1 $511 -79.359111301004063 $392 79.359111301004063 $385 $512 forward 7 unknown #
vertex $-1 $389 $513 #
vertex $-1 $266 $514 #
straight-curve $-1 79.359111301004063 -21.804389827003536 -7.8787744914328925 0 1 0 I I #
edge $-1 $400 -26.051815979549392 $396 -17.55696367445768 $384 $515 forward 7 unknown #
coedge $-1 $268 $385 $504 $516 reversed $160 $-1 #
vertex $-1 $394 $517 #
straight-curve $-1 0 -39.361353501461217 -3.9782136568692725 -1 0 0 I I #
coedge $-1 $388 $270 $505 $518 forward $382 $-1 #
coedge $-1 $270 $388 $272 $402 reversed $382 $-1 #
vertex $-1 $518 $519 #
straight-curve $-1 0 -47.856205806552929 -3.9782136568692725 -1 0 0 I I #
edge $-1 $276 3.9782136568692725 $391 7.8787744914328925 $272 $520 forward 7 unknown #
point $-1 79.359111301004063 -39.361353501461217 -3.9782136568692725 #
point $-1 79.359111301004063 -47.856205806552929 -3.9782136568692725 #
plane-surface $-1 79.359111301004063 0 0 -1 0 0 0 0 1 forward_v I I I I #
coedge $-1 $416 $415 $408 $521 forward $279 $-1 #
coedge $-1 $408 $281 $283 $412 reversed $168 $-1 #
coedge $-1 $281 $407 $406 $521 reversed $168 $-1 #
coedge $-1 $289 $284 $281 $410 forward $290 $-1 #
edge $-1 $413 -106.18593344299661 $522 -102.66426944555496 $409 $523 forward 7 unknown #
coedge $-1 $283 $282 $416 $524 reversed $105 $-1 #
edge $-1 $525 152.42046036322839 $413 158.71822260200815 $407 $526 forward 7 unknown #
vertex $-1 $285 $527 #
straight-curve $-1 79.359111301004077 -2.5867524679606397 7.9656072062169301 0 1 0 I I #
coedge $-1 $406 $286 $289 $420 forward $279 $-1 #
coedge $-1 $286 $406 $411 $524 forward $279 $-1 #
vertex $-1 $287 $528 #
straight-curve $-1 18.264923488439024 -14.594436024388411 11.48727120365858 1 0 0 I I #
straight-curve $-1 -52.224257907164017 -14.594436024388411 96.719712090259009 -0.82903756765294845 0 0.55919291073839883 I I #
edge $-1 $291 -14.594436024388411 $522 4.2474261525458523 $289 $529 forward 7 unknown #
point $-1 79.359111301004063 -14.594436024388411 11.487271203658583 #
point $-1 79.359111301004063 -14.594436024388411 7.9656072062169301 #
edge $-1 $530 1 $530 0 $294 $-1 forward 7 unknown #
vertex $-1 $295 $531 #
ellipse-curve $-1 75.003445648994585 -9.2110468309786242 7.1391851801377628 0.55919291073839883 0 0.82903756765294845 0.82903756765294845 0 -0.55919291073839883 1 I I #
point $-1 77.577608124609753 -9.2110468309786242 9.1672462941994048 #
edge $-1 $532 1 $532 0 $298 $-1 forward 7 unknown #
vertex $-1 $299 $533 #
ellipse-curve $-1 75.003445648994585 -1.1359630408639347 7.1391851801377628 0.55919291073839883 0 0.82903756765294845 0.82903756765294845 0 -0.55919291073839883 1 I I #
point $-1 77.577608124609753 -1.1359630408639347 9.1672462941994048 #
loop $-1 $-1 $436 $302 #
plane-surface $-1 0 0 11.487271203658583 0 0 1 1 0 0 forward_v I I I I #
coedge $-1 $438 $308 $434 $534 reversed $303 $-1 #
coedge $-1 $305 $314 $433 $534 forward $190 $-1 #
edge $-1 $440 6.8341786205064921 $315 25.676040797440756 $305 $535 forward 7 unknown #
coedge $-1 $536 $312 $306 $437 forward $431 $-1 #
edge $-1 $442 -25.676040797440756 $439 -6.8341786205064921 $436 $537 forward 7 unknown #
coedge $-1 $308 $433 $536 $538 reversed $303 $-1 #
vertex $-1 $437 $539 #
vertex $-1 $435 $540 #
straight-curve $-1 -52.224257907164017 4.2474261525458523 96.719712090259009 0.82903756765294845 0 -0.55919291073839883 I I #
vertex $-1 $313 $541 #
straight-curve $-1 -52.224257907164017 23.089288329480116 96.719712090259009 0.82903756765294845 0 -0.55919291073839883 I I #
coedge $-1 $312 $536 $314 $446 forward $431 $-1 #
straight-curve $-1 18.264923488439024 23.089288329480116 11.48727120365858 -1 0 0 I I #
edge $-1 $542 4.2474261525458523 $316 23.089288329480116 $314 $543 forward 7 unknown #
point $-1 79.359111301004063 23.089288329480116 7.9656072062169301 #
point $-1 79.359111301004063 23.089288329480116 11.487271203658583 #
edge $-1 $544 1 $544 0 $318 $-1 forward 7 unknown #
vertex $-1 $319 $545 #
ellipse-curve $-1 75.003445648994585 9.6308153459556394 7.1391851801377628 0.55919291073839883 0 0.82903756765294845 0.82903756765294845 0 -0.55919291073839883 1 I I #
point $-1 77.577608124609753 9.6308153459556394 9.1672462941994048 #
edge $-1 $546 1 $546 0 $322 $-1 forward 7 unknown #
vertex $-1 $323 $547 #
ellipse-curve $-1 75.003445648994585 17.705899136070322 7.1391851801377628 0.55919291073839883 0 0.82903756765294845 0.82903756765294845 0 -0.55919291073839883 1 I I #
point $-1 77.577608124609753 17.705899136070322 9.1672462941994048 #
plane-surface $-1 0 0 11.487271203658583 0 0 1 1 0 0 forward_v I I I I #
coedge $-1 $468 $467 $460 $548 forward $327 $-1 #
coedge $-1 $460 $329 $331 $464 reversed $212 $-1 #
coedge $-1 $329 $459 $458 $548 reversed $212 $-1 #
coedge $-1 $337 $332 $329 $462 forward $338 $-1 #
edge $-1 $465 -34.064531219642333 $549 -28.344480191267209 $461 $550 forward 7 unknown #
coedge $-1 $331 $330 $468 $551 reversed $133 $-1 #
edge $-1 $552 -2.7684374342568793e-014 $465 11.106074389142849 $459 $553 forward 7 unknown #
vertex $-1 $333 $554 #
straight-curve $-1 -73.639060272628939 13.314314812552713 11.487271203658583 0 1 0 I I #
coedge $-1 $458 $334 $337 $472 reversed $327 $-1 #
coedge $-1 $334 $458 $463 $551 forward $327 $-1 #
vertex $-1 $335 $555 #
straight-curve $-1 -79.359111301004063 20.371254848676543 41.856716531796977 0 0 1 I I #
straight-curve $-1 -79.359111301004049 20.371254848676543 1.9675073111053933 -0.51503806187062418 0 -0.85716730853699208 I I #
edge $-1 $549 -32.886004401534308 $339 -20.371254848676543 $467 $556 forward 7 unknown #
point $-1 -79.359111301004063 20.371254848676543 11.487271203658583 #
point $-1 -73.639060272628939 20.371254848676543 11.487271203658583 #
edge $-1 $557 1 $557 0 $342 $-1 forward 7 unknown #
vertex $-1 $343 $558 #
ellipse-curve $-1 -75.156921929914517 22.874204759248109 5.9209358792760893 -0.85716730853699208 0 0.51503806187062418 0.51503806187062418 0 0.85716730853699208 1 I I #
point $-1 -75.984047724945881 22.874204759248109 7.5845565659189838 #
edge $-1 $559 1 $559 0 $346 $-1 forward 7 unknown #
vertex $-1 $347 $560 #
ellipse-curve $-1 -75.156921929914517 26.62862962510544 5.9209358792760893 -0.85716730853699208 0 0.51503806187062418 0.51503806187062418 0 0.85716730853699208 1 I I #
point $-1 -75.984047724945881 26.62862962510544 7.5845565659189838 #
edge $-1 $561 1 $561 0 $350 $-1 forward 7 unknown #
vertex $-1 $351 $562 #
ellipse-curve $-1 -75.156921929914517 30.38305449096277 5.9209358792760893 -0.85716730853699208 0 0.51503806187062418 0.51503806187062418 0 0.85716730853699208 1 I I #
point $-1 -75.984047724945881 30.38305449096277 7.5845565659189838 #
plane-surface $-1 79.359111301004063 0 0 -1 0 0 0 0 1 forward_v I I I I #
coedge $-1 $359 $357 $361 $492 reversed $241 $-1 #
edge $-1 $372 -11.487271203658583 $494 11.487271203658583 $371 $563 forward 7 unknown #
vertex $-1 $492 $564 #
straight-curve $-1 -79.359111301004063 -47.856205806552929 0 0 0 -1 I I #
edge $-1 $490 -47.856205806552929 $494 47.856205806552929 $488 $565 forward 7 unknown #
straight-curve $-1 0 -47.856205806552929 -11.487271203658583 -1 0 0 I I #
vertex $-1 $364 $566 #
straight-curve $-1 0 47.856205806552929 -11.487271203658583 1 0 0 I I #
point $-1 79.359111301004063 47.856205806552929 -11.487271203658583 #
point $-1 79.359111301004063 -47.856205806552929 -11.487271203658583 #
straight-curve $-1 -79.359111301004063 0 11.487271203658583 0 -1 0 I I #
point $-1 -79.359111301004063 47.856205806552929 11.487271203658583 #
point $-1 -79.359111301004063 -47.856205806552929 11.487271203658583 #
straight-curve $-1 79.359111301004063 -47.856205806552929 0 0 0 -1 I I #
straight-curve $-1 79.359111301004063 47.856205806552929 0 0 0 -1 I I #
plane-surface $-1 79.359111301004063 0 0 -1 0 0 0 0 1 forward_v I I I I #
coedge $-1 $507 $384 $395 $516 forward $260 $-1 #
coedge $-1 $384 $507 $398 $518 reversed $260 $-1 #
straight-curve $-1 79.359111301004063 -39.361353501461217 -2.9642470370755412 0 0 1 I I #
coedge $-1 $505 $504 $387 $508 forward $260 $-1 #
edge $-1 $511 17.55696367445768 $509 26.051815979549392 $507 $567 forward 7 unknown #
vertex $-1 $389 $568 #
straight-curve $-1 0 -47.856205806552929 -7.8787744914328925 1 0 0 I I #
vertex $-1 $508 $569 #
straight-curve $-1 0 -39.361353501461217 -7.8787744914328925 1 0 0 I I #
point $-1 79.359111301004063 -47.856205806552929 -7.8787744914328925 #
point $-1 79.359111301004063 -39.361353501461217 -7.8787744914328925 #
straight-curve $-1 -79.359111301004063 -21.804389827003536 -3.9782136568692725 0 1 0 I I #
edge $-1 $396 1.0139666197937314 $511 4.9145274543573514 $504 $570 forward 7 unknown #
point $-1 -79.359111301004063 -39.361353501461217 -3.9782136568692725 #
edge $-1 $400 3.9782136568692725 $509 7.8787744914328925 $505 $571 forward 7 unknown #
point $-1 -79.359111301004063 -47.856205806552929 -3.9782136568692725 #
straight-curve $-1 79.359111301004063 -47.856205806552929 0 0 0 -1 I I #
edge $-1 $522 -61.094187812565039 $525 -55.873106324470456 $406 $572 forward 7 unknown #
vertex $-1 $521 $573 #
straight-curve $-1 79.359111301004063 4.2474261525458523 114.15154064921354 0 0 1 I I #
edge $-1 $525 -6.8341786205064921 $417 12.007683556427772 $416 $574 forward 7 unknown #
vertex $-1 $524 $575 #
straight-curve $-1 -52.224257907164017 4.2474261525458523 96.719712090259009 0.82903756765294845 0 -0.55919291073839883 I I #
point $-1 79.359111301004063 4.2474261525458523 7.9656072062169301 #
point $-1 74.13802981290948 -14.594436024388411 11.48727120365858 #
straight-curve $-1 79.359111301004063 0 11.487271203658583 0 1 0 I I #
vertex $-1 $423 $576 #
point $-1 75.832483216647532 -9.2110468309786242 6.579992269399364 #
vertex $-1 $427 $577 #
point $-1 75.832483216647532 -1.1359630408639347 6.579992269399364 #
edge $-1 $542 102.66426944555496 $440 106.18593344299661 $434 $578 forward 7 unknown #
straight-curve $-1 79.359111301004077 -2.5867524679606397 7.9656072062169301 0 1 0 I I #
coedge $-1 $444 $436 $438 $538 forward $431 $-1 #
straight-curve $-1 74.13802981290948 -2.5867524679606397 11.48727120365858 0 -1 0 I I #
edge $-1 $439 55.873106324470456 $542 61.094187812565039 $536 $579 forward 7 unknown #
point $-1 74.13802981290948 4.2474261525458523 11.48727120365858 #
point $-1 79.359111301004063 4.2474261525458523 7.9656072062169301 #
point $-1 74.13802981290948 23.089288329480116 11.48727120365858 #
vertex $-1 $446 $580 #
straight-curve $-1 79.359111301004063 0 11.487271203658583 0 1 0 I I #
vertex $-1 $449 $581 #
point $-1 75.832483216647532 9.6308153459556394 6.579992269399364 #
vertex $-1 $453 $582 #
point $-1 75.832483216647532 17.705899136070322 6.579992269399364 #
edge $-1 $549 30.369445328138394 $552 39.889209220691605 $458 $583 forward 7 unknown #
vertex $-1 $472 $584 #
straight-curve $-1 -107.70359149227127 32.886004401534308 11.487271203658587 -1 0 0 I I #
edge $-1 $552 -19.571689588981595 $469 -7.0569400361238301 $468 $585 forward 7 unknown #
vertex $-1 $551 $586 #
straight-curve $-1 -79.359111301004049 32.886004401534308 1.9675073111053933 0.51503806187062418 0 0.85716730853699208 I I #
point $-1 -73.639060272628939 32.886004401534308 11.487271203658583 #
point $-1 -79.359111301004063 20.371254848676543 1.9675073111053696 #
straight-curve $-1 -79.359111301004063 0 11.487271203658583 0 -1 0 I I #
vertex $-1 $475 $587 #
point $-1 -74.641883868043891 22.874204759248109 6.7781031878130813 #
vertex $-1 $479 $588 #
point $-1 -74.641883868043891 26.62862962510544 6.7781031878130813 #
vertex $-1 $483 $589 #
point $-1 -74.641883868043891 30.38305449096277 6.7781031878130813 #
straight-curve $-1 -79.359111301004063 47.856205806552929 0 0 0 -1 I I #
point $-1 -79.359111301004063 -47.856205806552929 -11.487271203658583 #
straight-curve $-1 -79.359111301004063 0 -11.487271203658583 0 1 0 I I #
point $-1 -79.359111301004063 47.856205806552929 -11.487271203658583 #
straight-curve $-1 -79.359111301004063 -21.804389827003536 -7.8787744914328925 0 -1 0 I I #
point $-1 -79.359111301004063 -47.856205806552929 -7.8787744914328925 #
point $-1 -79.359111301004063 -39.361353501461217 -7.8787744914328925 #
straight-curve $-1 -79.359111301004063 -39.361353501461217 -2.9642470370755412 0 0 -1 I I #
straight-curve $-1 -79.359111301004063 -47.856205806552929 0 0 0 -1 I I #
straight-curve $-1 18.264923488439024 4.2474261525458523 11.48727120365858 -1 0 0 I I #
point $-1 79.359111301004063 4.2474261525458523 11.487271203658583 #
straight-curve $-1 74.13802981290948 -2.5867524679606397 11.48727120365858 0 -1 0 I I #
point $-1 74.13802981290948 4.2474261525458523 11.48727120365858 #
point $-1 74.444252738256182 -9.2110468309786242 6.3101476124848146 #
point $-1 74.444252738256182 -1.1359630408639347 6.3101476124848146 #
straight-curve $-1 79.359111301004063 4.2474261525458523 114.15154064921354 0 0 -1 I I #
straight-curve $-1 18.264923488439024 4.2474261525458523 11.48727120365858 1 0 0 I I #
point $-1 79.359111301004063 4.2474261525458523 11.487271203658583 #
point $-1 74.444252738256182 9.6308153459556394 6.3101476124848146 #
point $-1 74.444252738256182 17.705899136070322 6.3101476124848146 #
straight-curve $-1 -79.359111301004063 32.886004401534308 41.856716531796977 0 0 -1 I I #
point $-1 -79.359111301004063 32.886004401534308 11.487271203658583 #
straight-curve $-1 -79.359111301004063 13.314314812552713 1.9675073111053649 0 -1 0 I I #
point $-1 -79.359111301004063 32.886004401534308 1.9675073111053696 #
point $-1 -74.299754621377531 22.874204759248109 5.4058978174054646 #
point $-1 -74.299754621377531 26.62862962510544 5.4058978174054646 #
point $-1 -74.299754621377531 30.38305449096277 5.4058978174054646 #
End-of-ACIS-data 