500 0 8 0           
7 Unknown 11 ACIS 5.0 NT 24 Thu Mar 25 21:02:08 1999 
-1 9.9999999999999995e-007 1e-010 
body $-1 $8 $-1 $9 #
body $-1 $10 $-1 $11 #
body $-1 $12 $-1 $13 #
body $-1 $14 $-1 $15 #
body $-1 $16 $-1 $17 #
body $-1 $18 $-1 $19 #
body $-1 $20 $-1 $21 #
body $-1 $22 $-1 $23 #
lump $-1 $-1 $24 $0 #
transform $-1 1 0 0 0 1 0 0 0 1 53.362224188970615 23.385607566490652 8.2144025210741738 1 rotate no_reflect no_shear #
lump $-1 $-1 $25 $1 #
transform $-1 1 0 0 0 1 0 0 0 1 53.362224188970615 23.385607566490652 8.2144025210741738 1 rotate no_reflect no_shear #
lump $-1 $-1 $26 $2 #
transform $-1 1 0 0 0 1 0 0 0 1 53.362224188970615 23.385607566490652 8.2144025210741738 1 rotate no_reflect no_shear #
lump $-1 $-1 $27 $3 #
transform $-1 1 0 0 0 1 0 0 0 1 53.362224188970615 23.385607566490652 8.2144025210741738 1 rotate no_reflect no_shear #
lump $-1 $-1 $28 $4 #
transform $-1 1 0 0 0 1 0 0 0 1 53.362224188970615 23.385607566490652 8.2144025210741738 1 rotate no_reflect no_shear #
lump $-1 $-1 $29 $5 #
transform $-1 1 0 0 0 1 0 0 0 1 53.362224188970615 23.385607566490652 8.2144025210741738 1 rotate no_reflect no_shear #
lump $-1 $-1 $30 $6 #
transform $-1 1 0 0 0 1 0 0 0 1 53.362224188970615 23.385607566490652 8.2144025210741738 1 rotate no_reflect no_shear #
lump $-1 $-1 $31 $7 #
transform $-1 1 0 0 0 1 0 0 0 1 53.362224188970615 23.385607566490652 8.2144025210741738 1 rotate no_reflect no_shear #
shell $-1 $-1 $-1 $32 $-1 $8 #
shell $-1 $-1 $-1 $33 $-1 $10 #
shell $-1 $-1 $-1 $34 $-1 $12 #
shell $-1 $-1 $-1 $35 $-1 $14 #
shell $-1 $-1 $-1 $36 $-1 $16 #
shell $-1 $-1 $-1 $37 $-1 $18 #
shell $-1 $-1 $-1 $38 $-1 $20 #
shell $-1 $-1 $-1 $39 $-1 $22 #
face $-1 $40 $41 $24 $-1 $42 forward single #
face $-1 $43 $44 $25 $-1 $45 forward single #
face $-1 $46 $47 $26 $-1 $48 reversed single #
face $-1 $49 $50 $27 $-1 $51 forward single #
face $-1 $52 $53 $28 $-1 $54 forward single #
face $-1 $55 $56 $29 $-1 $57 reversed single #
face $-1 $58 $59 $30 $-1 $60 forward single #
face $-1 $61 $62 $31 $-1 $63 forward single #
face $-1 $64 $65 $24 $-1 $66 reversed single #
loop $-1 $-1 $67 $32 #
plane-surface $-1 0 0 8.2144025210741738 0 0 1 1 0 0 forward_v I I I I #
face $-1 $68 $69 $25 $-1 $70 reversed single #
loop $-1 $-1 $71 $33 #
plane-surface $-1 0 -23.385607566490652 0 0 1 0 0 0 1 forward_v I I I I #
face $-1 $72 $73 $26 $-1 $74 reversed single #
loop $-1 $-1 $75 $34 #
plane-surface $-1 -27.19752071566889 56.157932337157604 115.89079885028116 -1 0 0 0 0.64278761758704617 0.76604443648966558 forward_v I I I I #
face $-1 $76 $77 $27 $-1 $78 forward single #
loop $-1 $79 $80 $35 #
cone-surface $-1 -45.886594625170126 19.536628199397803 4.4980191893873211 0 -0.64278761758704617 -0.76604443648966558 1.5 0 0 1 I I 0 1 1.5 forward I I I I #
face $-1 $81 $82 $28 $-1 $83 forward single #
loop $-1 $84 $85 $36 #
cone-surface $-1 -34.673150279469382 19.536628199397803 4.4980191893873211 0 -0.64278761758704617 -0.76604443648966558 1.5 0 0 1 I I 0 1 1.5 forward I I I I #
face $-1 $86 $87 $29 $-1 $88 reversed single #
loop $-1 $-1 $89 $37 #
plane-surface $-1 40.279872452319751 -12.44322157399094 34.135128932930769 0 0.64278761758704617 0.76604443648966558 1 0 0 forward_v I I I I #
face $-1 $90 $91 $30 $-1 $92 forward single #
loop $-1 $93 $94 $38 #
cone-surface $-1 34.673150279469382 19.536628199397803 4.4980191893873211 0 -0.64278761758704617 -0.76604443648966558 1.5 0 0 1 I I 0 1 1.5 forward I I I I #
face $-1 $95 $96 $31 $-1 $97 forward single #
loop $-1 $98 $99 $39 #
cone-surface $-1 45.886594625170119 19.536628199397803 4.4980191893873211 0 -0.64278761758704617 -0.76604443648966558 1.5 0 0 1 I I 0 1 1.5 forward I I I I #
face $-1 $100 $101 $24 $-1 $102 reversed single #
loop $-1 $-1 $103 $40 #
plane-surface $-1 0 0 -8.2144025210741738 0 0 1 1 0 0 forward_v I I I I #
coedge $-1 $104 $105 $106 $107 forward $41 $-1 #
face $-1 $108 $109 $25 $-1 $110 reversed single #
loop $-1 $-1 $111 $43 #
plane-surface $-1 0 0 -8.2144025210741738 0 0 1 1 0 0 forward_v I I I I #
coedge $-1 $112 $113 $114 $115 forward $44 $-1 #
face $-1 $116 $117 $26 $-1 $118 reversed single #
loop $-1 $-1 $119 $46 #
plane-surface $-1 -40.279872452319751 -12.44322157399094 34.135128932930769 0 0.64278761758704617 0.76604443648966558 1 0 0 forward_v I I I I #
coedge $-1 $120 $121 $122 $123 reversed $47 $-1 #
face $-1 $-1 $124 $27 $-1 $125 forward single #
loop $-1 $126 $127 $49 #
cone-surface $-1 -45.886594625170126 17.674413600871215 2.2787182978950433 0 -0.64278761758704617 -0.76604443648966558 0.75 0 0 1 I I -0.70710678118654757 0.70710678118654757 0.75 forward I I I I #
loop $-1 $-1 $128 $35 #
coedge $-1 $80 $80 $129 $130 reversed $50 $-1 #
face $-1 $-1 $131 $28 $-1 $132 forward single #
loop $-1 $133 $134 $52 #
cone-surface $-1 -34.673150279469382 17.674413600871215 2.2787182978950433 0 -0.64278761758704617 -0.76604443648966558 0.75 0 0 1 I I -0.70710678118654757 0.70710678118654757 0.75 forward I I I I #
loop $-1 $-1 $135 $36 #
coedge $-1 $85 $85 $136 $137 reversed $53 $-1 #
face $-1 $138 $139 $29 $-1 $140 forward single #
loop $-1 $-1 $141 $55 #
plane-surface $-1 27.19752071566889 56.157932337157604 115.89079885028116 1 0 0 0 -0.64278761758704617 -0.76604443648966558 forward_v I I I I #
coedge $-1 $142 $143 $144 $145 reversed $56 $-1 #
face $-1 $-1 $146 $30 $-1 $147 forward single #
loop $-1 $148 $149 $58 #
cone-surface $-1 34.673150279469382 17.674413600871215 2.2787182978950433 0 -0.64278761758704617 -0.76604443648966558 0.75 0 0 1 I I -0.70710678118654757 0.70710678118654757 0.75 forward I I I I #
loop $-1 $-1 $150 $38 #
coedge $-1 $94 $94 $151 $152 reversed $59 $-1 #
face $-1 $-1 $153 $31 $-1 $154 forward single #
loop $-1 $155 $156 $61 #
cone-surface $-1 45.886594625170119 17.674413600871215 2.2787182978950433 0 -0.64278761758704617 -0.76604443648966558 0.75 0 0 1 I I -0.70710678118654757 0.70710678118654757 0.75 forward I I I I #
loop $-1 $-1 $157 $39 #
coedge $-1 $99 $99 $158 $159 reversed $62 $-1 #
face $-1 $160 $161 $24 $-1 $162 reversed single #
loop $-1 $-1 $163 $64 #
plane-surface $-1 0 -23.385607566490652 0 0 1 0 0 0 1 forward_v I I I I #
coedge $-1 $164 $165 $166 $167 forward $65 $-1 #
coedge $-1 $168 $67 $169 $170 forward $41 $-1 #
coedge $-1 $67 $168 $171 $172 forward $41 $-1 #
coedge $-1 $173 $174 $67 $107 reversed $175 $-1 #
edge $-1 $176 -23.385607566490652 $177 23.385607566490652 $106 $178 forward 7 unknown #
face $-1 $179 $180 $25 $-1 $181 reversed single #
loop $-1 $-1 $182 $68 #
plane-surface $-1 -41.31039144279471 -29.620330807172351 0 0 1 0 0 0 1 forward_v I I I I #
coedge $-1 $183 $184 $113 $185 forward $69 $-1 #
coedge $-1 $186 $71 $187 $188 reversed $44 $-1 #
coedge $-1 $71 $186 $111 $185 reversed $44 $-1 #
coedge $-1 $189 $190 $71 $115 reversed $180 $-1 #
edge $-1 $191 -8.2144025210741738 $192 8.2144025210741738 $114 $193 forward 7 unknown #
face $-1 $194 $195 $26 $-1 $196 forward single #
loop $-1 $-1 $197 $72 #
plane-surface $-1 -53.362224188970615 0 0 1 0 0 0 0 -1 forward_v I I I I #
coedge $-1 $198 $199 $200 $201 reversed $73 $-1 #
coedge $-1 $121 $75 $202 $203 reversed $47 $-1 #
coedge $-1 $75 $120 $198 $204 reversed $47 $-1 #
coedge $-1 $200 $205 $75 $123 forward $206 $-1 #
edge $-1 $207 49.730996904066401 $208 53.874228439190063 $122 $209 forward 7 unknown #
loop $-1 $-1 $129 $76 #
plane-surface $-1 -40.279872452319751 -12.44322157399094 34.135128932930769 0 0.64278761758704617 0.76604443648966558 1 0 0 forward_v I I I I #
loop $-1 $-1 $210 $49 #
coedge $-1 $127 $127 $128 $211 reversed $77 $-1 #
coedge $-1 $128 $128 $127 $211 forward $79 $-1 #
coedge $-1 $129 $129 $80 $130 forward $124 $-1 #
edge $-1 $212 -1.2304961166962078e-015 $212 6.2831853071795996 $129 $213 forward 7 unknown #
loop $-1 $-1 $136 $81 #
plane-surface $-1 -40.279872452319751 -12.44322157399094 34.135128932930769 0 0.64278761758704617 0.76604443648966558 1 0 0 forward_v I I I I #
loop $-1 $-1 $214 $52 #
coedge $-1 $134 $134 $135 $215 reversed $82 $-1 #
coedge $-1 $135 $135 $134 $215 forward $84 $-1 #
coedge $-1 $136 $136 $85 $137 forward $131 $-1 #
edge $-1 $216 -1.2304961166962078e-015 $216 6.2831853071795996 $136 $217 forward 7 unknown #
face $-1 $218 $219 $29 $-1 $220 reversed single #
loop $-1 $-1 $221 $86 #
plane-surface $-1 0 0 8.2144025210741738 0 0 1 1 0 0 forward_v I I I I #
coedge $-1 $222 $223 $224 $225 reversed $87 $-1 #
coedge $-1 $226 $89 $227 $228 reversed $56 $-1 #
coedge $-1 $89 $226 $222 $229 forward $56 $-1 #
coedge $-1 $224 $230 $89 $145 forward $219 $-1 #
edge $-1 $231 -33.222287962810739 $232 -7.057584489509015 $144 $233 forward 7 unknown #
loop $-1 $-1 $151 $90 #
plane-surface $-1 40.279872452319751 -12.44322157399094 34.135128932930769 0 0.64278761758704617 0.76604443648966558 1 0 0 forward_v I I I I #
loop $-1 $-1 $234 $58 #
coedge $-1 $149 $149 $150 $235 reversed $91 $-1 #
coedge $-1 $150 $150 $149 $235 forward $93 $-1 #
coedge $-1 $151 $151 $94 $152 forward $146 $-1 #
edge $-1 $236 -1.2304961166962078e-015 $236 6.2831853071795996 $151 $237 forward 7 unknown #
loop $-1 $-1 $158 $95 #
plane-surface $-1 40.279872452319751 -12.44322157399094 34.135128932930769 0 0.64278761758704617 0.76604443648966558 1 0 0 forward_v I I I I #
loop $-1 $-1 $238 $61 #
coedge $-1 $156 $156 $157 $239 reversed $96 $-1 #
coedge $-1 $157 $157 $156 $239 forward $98 $-1 #
coedge $-1 $158 $158 $99 $159 forward $153 $-1 #
edge $-1 $240 -1.2304961166962078e-015 $240 6.2831853071795996 $158 $241 forward 7 unknown #
face $-1 $242 $243 $24 $-1 $244 reversed single #
loop $-1 $-1 $245 $100 #
plane-surface $-1 -53.362224188970615 0 0 1 0 0 0 0 -1 forward_v I I I I #
coedge $-1 $246 $171 $247 $248 forward $101 $-1 #
coedge $-1 $249 $103 $246 $250 forward $65 $-1 #
coedge $-1 $103 $249 $251 $252 forward $65 $-1 #
coedge $-1 $174 $173 $103 $167 reversed $175 $-1 #
edge $-1 $253 -23.385607566490652 $254 23.385607566490652 $166 $255 forward 7 unknown #
coedge $-1 $105 $104 $256 $257 forward $41 $-1 #
coedge $-1 $258 $259 $104 $170 reversed $243 $-1 #
edge $-1 $177 -53.362224188970615 $260 53.362224188970615 $169 $261 forward 7 unknown #
coedge $-1 $163 $262 $105 $172 reversed $101 $-1 #
edge $-1 $263 -53.362224188970615 $176 53.362224188970615 $171 $264 forward 7 unknown #
coedge $-1 $166 $106 $262 $265 forward $175 $-1 #
coedge $-1 $106 $166 $258 $266 reversed $175 $-1 #
loop $-1 $-1 $173 $242 #
vertex $-1 $107 $267 #
vertex $-1 $107 $268 #
straight-curve $-1 53.362224188970615 0 8.2144025210741738 0 1 0 I I #
face $-1 $269 $270 $25 $-1 $271 reversed single #
loop $-1 $-1 $114 $108 #
plane-surface $-1 -43.142970069745736 -26.5029691868315 0 1 0 0 0 0 -1 forward_v I I I I #
coedge $-1 $272 $273 $274 $275 forward $109 $-1 #
coedge $-1 $276 $111 $277 $278 forward $69 $-1 #
coedge $-1 $111 $276 $189 $279 forward $69 $-1 #
edge $-1 $191 -43.142970069745736 $280 -39.477812815843684 $111 $281 forward 7 unknown #
coedge $-1 $113 $112 $282 $283 forward $44 $-1 #
coedge $-1 $284 $285 $112 $188 forward $286 $-1 #
edge $-1 $287 39.477812815843684 $192 43.142970069745736 $187 $288 forward 7 unknown #
coedge $-1 $274 $114 $184 $279 reversed $180 $-1 #
coedge $-1 $114 $274 $284 $289 reversed $180 $-1 #
vertex $-1 $185 $290 #
vertex $-1 $289 $291 #
straight-curve $-1 -43.142970069745736 -23.385607566490652 0 0 0 1 I I #
face $-1 $-1 $206 $26 $-1 $292 reversed single #
loop $-1 $-1 $202 $116 #
plane-surface $-1 0 0 8.2144025210741738 0 0 1 1 0 0 forward_v I I I I #
coedge $-1 $293 $294 $199 $295 forward $117 $-1 #
coedge $-1 $296 $119 $121 $204 forward $73 $-1 #
coedge $-1 $119 $296 $197 $295 reversed $73 $-1 #
coedge $-1 $297 $122 $119 $201 forward $206 $-1 #
edge $-1 $208 7.057584489509015 $298 33.222287962810739 $200 $299 forward 7 unknown #
coedge $-1 $300 $301 $120 $203 forward $195 $-1 #
edge $-1 $302 -9.6310695656012442 $207 -4.6933586020881499 $202 $303 forward 7 unknown #
edge $-1 $208 -46.771215132981311 $302 -40.325491192814425 $121 $304 forward 7 unknown #
coedge $-1 $122 $297 $300 $305 reversed $206 $-1 #
loop $-1 $-1 $200 $194 #
vertex $-1 $305 $306 #
vertex $-1 $123 $307 #
straight-curve $-1 -27.19752071566889 23.385607566490652 57.945399425140579 0 0 -1 I I #
coedge $-1 $210 $210 $-1 $308 reversed $126 $-1 #
edge $-1 $309 0 $309 6.2831853071796004 $127 $310 forward 7 unknown #
vertex $-1 $130 $311 #
ellipse-curve $-1 -45.886594625170126 20.916752084734103 6.1427867535123433 0 0.64278761758704617 0.76604443648966558 1.5 0 0 1 I I #
coedge $-1 $214 $214 $-1 $312 reversed $133 $-1 #
edge $-1 $313 0 $313 6.2831853071796004 $134 $314 forward 7 unknown #
vertex $-1 $137 $315 #
ellipse-curve $-1 -34.673150279469382 20.916752084734103 6.1427867535123433 0 0.64278761758704617 0.76604443648966558 1.5 0 0 1 I I #
face $-1 $-1 $316 $29 $-1 $317 reversed single #
loop $-1 $-1 $224 $138 #
plane-surface $-1 0 23.385607566490652 0 0 -1 0 0 0 -1 forward_v I I I I #
coedge $-1 $318 $319 $223 $320 forward $139 $-1 #
coedge $-1 $223 $141 $143 $229 reversed $87 $-1 #
coedge $-1 $141 $222 $221 $320 reversed $87 $-1 #
coedge $-1 $321 $144 $141 $225 forward $219 $-1 #
edge $-1 $232 -53.874228439190063 $322 -49.730996904066401 $224 $323 forward 7 unknown #
coedge $-1 $143 $142 $318 $324 reversed $56 $-1 #
coedge $-1 $325 $326 $142 $228 forward $316 $-1 #
edge $-1 $327 24.588641762019847 $231 31.034365702186733 $227 $328 forward 7 unknown #
edge $-1 $329 40.325491192814425 $232 46.771215132981311 $222 $330 forward 7 unknown #
coedge $-1 $144 $321 $325 $331 forward $219 $-1 #
vertex $-1 $228 $332 #
vertex $-1 $145 $333 #
straight-curve $-1 20.139936226159875 23.385607566490652 4.0711709859505092 -1 0 0 I I #
coedge $-1 $234 $234 $-1 $334 reversed $148 $-1 #
edge $-1 $335 0 $335 6.2831853071796004 $149 $336 forward 7 unknown #
vertex $-1 $152 $337 #
ellipse-curve $-1 34.673150279469382 20.916752084734103 6.1427867535123433 0 0.64278761758704617 0.76604443648966558 1.5 0 0 1 I I #
coedge $-1 $238 $238 $-1 $338 reversed $155 $-1 #
edge $-1 $339 0 $339 6.2831853071796004 $156 $340 forward 7 unknown #
vertex $-1 $159 $341 #
ellipse-curve $-1 45.886594625170119 20.916752084734103 6.1427867535123433 0 0.64278761758704617 0.76604443648966558 1.5 0 0 1 I I #
face $-1 $-1 $175 $24 $-1 $342 reversed single #
loop $-1 $-1 $258 $160 #
plane-surface $-1 0 23.385607566490652 0 0 -1 0 0 0 -1 forward_v I I I I #
coedge $-1 $343 $256 $259 $344 forward $161 $-1 #
coedge $-1 $262 $163 $164 $250 reversed $101 $-1 #
coedge $-1 $256 $343 $163 $248 reversed $161 $-1 #
edge $-1 $263 -8.2144025210741738 $345 8.2144025210741738 $247 $346 forward 7 unknown #
coedge $-1 $165 $164 $343 $347 forward $65 $-1 #
edge $-1 $254 -53.362224188970615 $345 53.362224188970615 $246 $348 forward 7 unknown #
coedge $-1 $259 $258 $165 $252 reversed $243 $-1 #
edge $-1 $349 -53.362224188970615 $253 53.362224188970615 $251 $350 forward 7 unknown #
vertex $-1 $167 $351 #
vertex $-1 $265 $352 #
straight-curve $-1 53.362224188970615 0 -8.2144025210741738 0 -1 0 I I #
coedge $-1 $245 $247 $168 $257 reversed $161 $-1 #
edge $-1 $260 -23.385607566490652 $263 23.385607566490652 $256 $353 forward 7 unknown #
coedge $-1 $251 $169 $174 $266 forward $243 $-1 #
coedge $-1 $169 $251 $245 $344 reversed $243 $-1 #
vertex $-1 $170 $354 #
straight-curve $-1 0 23.385607566490652 8.2144025210741738 -1 0 0 I I #
coedge $-1 $171 $246 $173 $265 reversed $101 $-1 #
vertex $-1 $257 $355 #
straight-curve $-1 0 -23.385607566490652 8.2144025210741738 1 0 0 I I #
edge $-1 $176 -8.2144025210741738 $254 8.2144025210741738 $173 $356 forward 7 unknown #
edge $-1 $177 -8.2144025210741738 $253 8.2144025210741738 $174 $357 forward 7 unknown #
point $-1 53.362224188970615 -23.385607566490652 8.2144025210741738 #
point $-1 53.362224188970615 23.385607566490652 8.2144025210741738 #
face $-1 $-1 $286 $25 $-1 $358 forward single #
loop $-1 $-1 $359 $179 #
plane-surface $-1 -39.477812815843684 -26.5029691868315 0 -1 0 0 0 0 1 forward_v I I I I #
coedge $-1 $360 $182 $276 $361 reversed $109 $-1 #
coedge $-1 $182 $360 $362 $363 reversed $109 $-1 #
coedge $-1 $190 $189 $182 $275 reversed $180 $-1 #
edge $-1 $364 -8.2144025210741738 $365 8.2144025210741738 $274 $366 forward 7 unknown #
coedge $-1 $184 $183 $272 $361 forward $69 $-1 #
coedge $-1 $282 $359 $183 $278 reversed $270 $-1 #
edge $-1 $280 -3.1173616203408514 $367 3.1173616203408514 $277 $368 forward 7 unknown #
edge $-1 $365 -3.1173616203408514 $191 3.1173616203408514 $189 $369 forward 7 unknown #
vertex $-1 $278 $370 #
straight-curve $-1 0 -23.385607566490652 -8.2144025210741738 1 0 0 I I #
coedge $-1 $371 $277 $186 $283 reversed $270 $-1 #
edge $-1 $287 -8.2144025210741738 $280 8.2144025210741738 $282 $372 forward 7 unknown #
coedge $-1 $362 $187 $190 $289 forward $286 $-1 #
coedge $-1 $187 $362 $371 $373 forward $286 $-1 #
loop $-1 $-1 $187 $269 #
vertex $-1 $188 $374 #
straight-curve $-1 0 -23.385607566490652 8.2144025210741738 -1 0 0 I I #
edge $-1 $192 -3.1173616203408514 $364 3.1173616203408514 $190 $375 forward 7 unknown #
point $-1 -43.142970069745736 -23.385607566490648 -8.2144025210741738 #
point $-1 -43.142970069745736 -23.385607566490648 8.2144025210741738 #
plane-surface $-1 0 23.385607566490652 0 0 -1 0 0 0 -1 forward_v I I I I #
coedge $-1 $294 $197 $376 $377 reversed $117 $-1 #
coedge $-1 $197 $293 $297 $378 forward $117 $-1 #
edge $-1 $298 -31.034365702186733 $379 -24.588641762019847 $197 $380 forward 7 unknown #
coedge $-1 $199 $198 $301 $381 reversed $73 $-1 #
coedge $-1 $205 $200 $294 $378 reversed $206 $-1 #
vertex $-1 $295 $382 #
straight-curve $-1 -20.139936226159875 23.385607566490652 4.0711709859505092 -1 0 0 I I #
coedge $-1 $376 $202 $205 $305 forward $195 $-1 #
coedge $-1 $202 $376 $296 $381 forward $195 $-1 #
vertex $-1 $203 $383 #
straight-curve $-1 -27.19752071566889 28.078966168578802 8.2144025210741702 0 1 0 I I #
straight-curve $-1 -27.19752071566889 -12.44322157399094 34.135128932930769 0 -0.76604443648966558 0.64278761758704617 I I #
edge $-1 $207 27.19752071566889 $384 53.362224188970615 $205 $385 forward 7 unknown #
point $-1 -27.19752071566889 23.385607566490652 8.2144025210741738 #
point $-1 -27.19752071566889 23.385607566490648 4.0711709859505127 #
edge $-1 $386 1 $386 0 $210 $-1 forward 7 unknown #
vertex $-1 $211 $387 #
ellipse-curve $-1 -45.886594625170126 18.1565043140615 2.8532516252622924 0 0.64278761758704617 0.76604443648966558 1.5 0 0 1 I I #
point $-1 -44.386594625170126 20.916752084734107 6.1427867535123504 #
edge $-1 $388 1 $388 0 $214 $-1 forward 7 unknown #
vertex $-1 $215 $389 #
ellipse-curve $-1 -34.673150279469382 18.1565043140615 2.8532516252622924 0 0.64278761758704617 0.76604443648966558 1.5 0 0 1 I I #
point $-1 -33.173150279469382 20.916752084734107 6.1427867535123504 #
loop $-1 $-1 $227 $218 #
plane-surface $-1 53.362224188970615 0 0 -1 0 0 0 0 1 forward_v I I I I #
coedge $-1 $390 $221 $226 $324 forward $139 $-1 #
coedge $-1 $221 $390 $321 $391 forward $139 $-1 #
edge $-1 $322 4.6933586020881499 $329 9.6310695656012442 $221 $392 forward 7 unknown #
coedge $-1 $230 $224 $319 $391 reversed $219 $-1 #
vertex $-1 $320 $393 #
straight-curve $-1 27.19752071566889 23.385607566490652 57.945399425140579 0 0 1 I I #
edge $-1 $329 7.057584489509015 $327 33.222287962810739 $318 $394 forward 7 unknown #
coedge $-1 $326 $227 $230 $331 reversed $316 $-1 #
coedge $-1 $227 $325 $390 $395 reversed $316 $-1 #
vertex $-1 $395 $396 #
straight-curve $-1 53.362224188970615 -0.3880956196551919 24.019676978984258 0 0.76604443648966558 -0.64278761758704617 I I #
vertex $-1 $324 $397 #
straight-curve $-1 27.19752071566889 -12.44322157399094 34.135128932930769 0 0.76604443648966558 -0.64278761758704617 I I #
edge $-1 $398 -8.2144025210741738 $231 -4.0711709859505127 $325 $399 forward 7 unknown #
point $-1 53.362224188970615 23.385607566490648 4.0711709859505127 #
point $-1 27.19752071566889 23.385607566490648 4.0711709859505127 #
edge $-1 $400 1 $400 0 $234 $-1 forward 7 unknown #
vertex $-1 $235 $401 #
ellipse-curve $-1 34.673150279469382 18.1565043140615 2.8532516252622924 0 0.64278761758704617 0.76604443648966558 1.5 0 0 1 I I #
point $-1 36.173150279469382 20.916752084734107 6.1427867535123504 #
edge $-1 $402 1 $402 0 $238 $-1 forward 7 unknown #
vertex $-1 $239 $403 #
ellipse-curve $-1 45.886594625170119 18.1565043140615 2.8532516252622924 0 0.64278761758704617 0.76604443648966558 1.5 0 0 1 I I #
point $-1 47.386594625170119 20.916752084734107 6.1427867535123504 #
plane-surface $-1 53.362224188970615 0 0 -1 0 0 0 0 1 forward_v I I I I #
coedge $-1 $247 $245 $249 $347 reversed $161 $-1 #
edge $-1 $260 -8.2144025210741738 $349 8.2144025210741738 $259 $404 forward 7 unknown #
vertex $-1 $347 $405 #
straight-curve $-1 -53.362224188970615 -23.385607566490652 0 0 0 -1 I I #
edge $-1 $345 -23.385607566490652 $349 23.385607566490652 $343 $406 forward 7 unknown #
straight-curve $-1 0 -23.385607566490652 -8.2144025210741738 -1 0 0 I I #
vertex $-1 $252 $407 #
straight-curve $-1 0 23.385607566490652 -8.2144025210741738 1 0 0 I I #
point $-1 53.362224188970615 23.385607566490652 -8.2144025210741738 #
point $-1 53.362224188970615 -23.385607566490652 -8.2144025210741738 #
straight-curve $-1 -53.362224188970615 0 8.2144025210741738 0 -1 0 I I #
point $-1 -53.362224188970615 23.385607566490652 8.2144025210741738 #
point $-1 -53.362224188970615 -23.385607566490652 8.2144025210741738 #
straight-curve $-1 53.362224188970615 -23.385607566490652 0 0 0 -1 I I #
straight-curve $-1 53.362224188970615 23.385607566490652 0 0 0 -1 I I #
plane-surface $-1 0 0 8.2144025210741738 0 0 1 1 0 0 forward_v I I I I #
coedge $-1 $277 $371 $360 $408 forward $270 $-1 #
coedge $-1 $273 $272 $359 $408 reversed $109 $-1 #
edge $-1 $367 -1.832578626951026 $365 1.832578626951026 $272 $409 forward 7 unknown #
coedge $-1 $285 $284 $273 $363 forward $286 $-1 #
edge $-1 $364 -1.832578626951026 $410 1.832578626951026 $273 $411 forward 7 unknown #
vertex $-1 $289 $412 #
vertex $-1 $279 $413 #
straight-curve $-1 -43.142970069745736 -29.620330807172351 0 0 0 -1 I I #
vertex $-1 $408 $414 #
straight-curve $-1 -39.477812815843684 -26.5029691868315 -8.2144025210741738 0 -1 0 I I #
straight-curve $-1 -43.142970069745736 -26.5029691868315 -8.2144025210741738 0 1 0 I I #
point $-1 -39.477812815843684 -23.385607566490648 -8.2144025210741738 #
coedge $-1 $359 $282 $285 $373 reversed $270 $-1 #
straight-curve $-1 -39.477812815843684 -23.385607566490652 0 0 0 -1 I I #
edge $-1 $410 -3.1173616203408514 $287 3.1173616203408514 $371 $415 forward 7 unknown #
point $-1 -39.477812815843684 -23.385607566490648 8.2144025210741738 #
straight-curve $-1 -43.142970069745736 -26.5029691868315 8.2144025210741738 0 -1 0 I I #
coedge $-1 $301 $300 $293 $377 forward $195 $-1 #
edge $-1 $384 -23.385607566490652 $379 -18.447896602977558 $293 $416 forward 7 unknown #
edge $-1 $384 -8.2144025210741738 $298 -4.0711709859505119 $297 $417 forward 7 unknown #
vertex $-1 $295 $418 #
straight-curve $-1 -53.362224188970615 -0.3880956196551919 24.019676978984258 0 -0.76604443648966558 0.64278761758704617 I I #
edge $-1 $379 -33.222287962810739 $302 -7.057584489509015 $301 $419 forward 7 unknown #
point $-1 -53.362224188970615 23.385607566490652 4.0711709859505119 #
point $-1 -27.19752071566889 18.447896602977558 8.2144025210741702 #
vertex $-1 $305 $420 #
straight-curve $-1 0 23.385607566490652 8.2144025210741738 -1 0 0 I I #
vertex $-1 $308 $421 #
point $-1 -44.386594625170126 18.1565043140615 2.8532516252622924 #
vertex $-1 $312 $422 #
point $-1 -33.173150279469382 18.1565043140615 2.8532516252622924 #
coedge $-1 $319 $318 $326 $395 forward $139 $-1 #
edge $-1 $398 -53.362224188970615 $322 -27.19752071566889 $321 $423 forward 7 unknown #
straight-curve $-1 27.19752071566889 28.078966168578802 8.2144025210741702 0 -1 0 I I #
point $-1 27.19752071566889 23.385607566490652 8.2144025210741738 #
straight-curve $-1 20.139936226159875 18.447896602977558 8.2144025210741738 1 0 0 I I #
edge $-1 $327 18.447896602977558 $398 23.385607566490652 $326 $424 forward 7 unknown #
point $-1 53.362224188970615 18.447896602977558 8.2144025210741702 #
point $-1 27.19752071566889 18.447896602977558 8.2144025210741702 #
vertex $-1 $395 $425 #
straight-curve $-1 53.362224188970615 23.385607566490652 0 0 0 -1 I I #
vertex $-1 $334 $426 #
point $-1 36.173150279469382 18.1565043140615 2.8532516252622924 #
vertex $-1 $338 $427 #
point $-1 47.386594625170119 18.1565043140615 2.8532516252622924 #
straight-curve $-1 -53.362224188970615 23.385607566490652 0 0 0 -1 I I #
point $-1 -53.362224188970615 -23.385607566490652 -8.2144025210741738 #
straight-curve $-1 -53.362224188970615 0 -8.2144025210741738 0 1 0 I I #
point $-1 -53.362224188970615 23.385607566490652 -8.2144025210741738 #
edge $-1 $410 -8.2144025210741738 $367 8.2144025210741738 $359 $428 forward 7 unknown #
straight-curve $-1 -41.31039144279471 -29.620330807172351 -8.2144025210741738 -1 0 0 I I #
vertex $-1 $373 $429 #
straight-curve $-1 -41.31039144279471 -29.620330807172351 8.2144025210741738 1 0 0 I I #
point $-1 -43.142970069745736 -29.620330807172351 8.2144025210741738 #
point $-1 -43.142970069745736 -29.620330807172351 -8.2144025210741738 #
point $-1 -39.477812815843684 -29.620330807172351 -8.2144025210741738 #
straight-curve $-1 -39.477812815843684 -26.5029691868315 8.2144025210741738 0 1 0 I I #
straight-curve $-1 -53.362224188970615 0 8.2144025210741738 0 -1 0 I I #
straight-curve $-1 -53.362224188970615 23.385607566490652 0 0 0 -1 I I #
point $-1 -53.362224188970615 18.447896602977558 8.2144025210741702 #
straight-curve $-1 -20.139936226159875 18.447896602977558 8.2144025210741738 1 0 0 I I #
point $-1 -53.362224188970615 23.385607566490652 8.2144025210741738 #
point $-1 -45.886594625170126 17.19232288768093 1.7041849705277943 #
point $-1 -34.673150279469382 17.19232288768093 1.7041849705277943 #
straight-curve $-1 0 23.385607566490652 8.2144025210741738 -1 0 0 I I #
straight-curve $-1 53.362224188970615 0 8.2144025210741738 0 1 0 I I #
point $-1 53.362224188970615 23.385607566490652 8.2144025210741738 #
point $-1 34.673150279469382 17.19232288768093 1.7041849705277943 #
point $-1 45.886594625170119 17.19232288768093 1.7041849705277943 #
straight-curve $-1 -39.477812815843684 -29.620330807172351 0 0 0 -1 I I #
point $-1 -39.477812815843684 -29.620330807172351 8.2144025210741738 #
End-of-ACIS-data 