500 0 4 0           
7 Unknown 11 ACIS 5.0 NT 24 Thu Mar 25 20:07:51 1999 
-1 9.9999999999999995e-007 1e-010 
body $-1 $4 $-1 $5 #
body $-1 $6 $-1 $7 #
body $-1 $8 $-1 $9 #
body $-1 $10 $-1 $11 #
lump $-1 $-1 $12 $0 #
transform $-1 1 0 0 0 1 0 0 0 1 49.908749656666771 25.402482807366905 11.399293418616404 1 rotate no_reflect no_shear #
lump $-1 $-1 $13 $1 #
transform $-1 1 0 0 0 1 0 0 0 1 49.908749656666771 25.402482807366905 11.399293418616404 1 rotate no_reflect no_shear #
lump $-1 $-1 $14 $2 #
transform $-1 1 0 0 0 1 0 0 0 1 49.908749656666771 25.402482807366905 11.399293418616404 1 rotate no_reflect no_shear #
lump $-1 $-1 $15 $3 #
transform $-1 1 0 0 0 1 0 0 0 1 49.908749656666771 25.402482807366905 11.399293418616404 1 rotate no_reflect no_shear #
shell $-1 $-1 $-1 $16 $-1 $4 #
shell $-1 $-1 $-1 $17 $-1 $6 #
shell $-1 $-1 $-1 $18 $-1 $8 #
shell $-1 $-1 $-1 $19 $-1 $10 #
face $-1 $20 $21 $12 $-1 $22 forward single #
face $-1 $23 $24 $13 $-1 $25 forward single #
face $-1 $26 $27 $14 $-1 $28 reversed single #
face $-1 $29 $30 $15 $-1 $31 forward single #
face $-1 $32 $33 $12 $-1 $34 reversed single #
loop $-1 $-1 $35 $16 #
plane-surface $-1 0 0 11.399293418616404 0 0 1 1 0 0 forward_v I I I I #
face $-1 $36 $37 $13 $-1 $38 reversed single #
loop $-1 $-1 $39 $17 #
plane-surface $-1 0 -19.609152949625852 -1.3026900553759688 0 0 1 1 0 0 forward_v I I I I #
face $-1 $40 $41 $14 $-1 $42 reversed single #
loop $-1 $-1 $43 $18 #
plane-surface $-1 5.31665975052411 33.263941150814446 118.46196170981592 1 0 0 0 -0.51503808176128008 -0.85716729658548041 forward_v I I I I #
face $-1 $44 $45 $15 $-1 $46 forward single #
loop $-1 $47 $48 $19 #
cone-surface $-1 13.350769733556433 20.18004990661646 6.8350461010570349 0 -0.51503808176128008 -0.85716729658548041 2 0 0 1 I I 0 1 2 forward I I I I #
face $-1 $49 $50 $12 $-1 $51 reversed single #
loop $-1 $-1 $52 $20 #
plane-surface $-1 0 0 -11.399293418616404 0 0 1 1 0 0 forward_v I I I I #
coedge $-1 $53 $54 $55 $56 forward $21 $-1 #
face $-1 $57 $58 $13 $-1 $59 reversed single #
loop $-1 $-1 $60 $23 #
plane-surface $-1 0 -19.609152949625852 -4.3026900553759688 0 0 1 1 0 0 forward_v I I I I #
coedge $-1 $61 $62 $63 $64 reversed $24 $-1 #
face $-1 $65 $66 $14 $-1 $67 reversed single #
loop $-1 $-1 $68 $26 #
plane-surface $-1 13.350769733556433 -18.145872221732752 32.90166567148276 0 0.51503808176128008 0.85716729658548041 1 0 0 forward_v I I I I #
coedge $-1 $69 $70 $71 $72 reversed $27 $-1 #
face $-1 $-1 $73 $15 $-1 $74 forward single #
loop $-1 $75 $76 $29 #
cone-surface $-1 13.350769733556433 18.323778281452061 3.7456913775591403 0 -0.51503808176128008 -0.85716729658548041 1 0 0 1 I I -0.70710678118654746 0.70710678118654746 1 forward I I I I #
loop $-1 $-1 $77 $19 #
coedge $-1 $48 $48 $78 $79 reversed $30 $-1 #
face $-1 $80 $81 $12 $-1 $82 reversed single #
loop $-1 $-1 $83 $32 #
plane-surface $-1 0 -25.402482807366905 0 0 1 0 0 0 1 forward_v I I I I #
coedge $-1 $84 $85 $86 $87 forward $33 $-1 #
coedge $-1 $88 $35 $89 $90 forward $21 $-1 #
coedge $-1 $35 $88 $91 $92 forward $21 $-1 #
coedge $-1 $93 $94 $35 $56 reversed $95 $-1 #
edge $-1 $96 -25.402482807366905 $97 25.402482807366905 $55 $98 forward 7 unknown #
face $-1 $99 $100 $13 $-1 $101 reversed single #
loop $-1 $-1 $102 $36 #
plane-surface $-1 0 -13.8158230918848 -2.8026900553759688 0 -1 0 0 0 -1 forward_v I I I I #
coedge $-1 $103 $104 $105 $106 reversed $37 $-1 #
coedge $-1 $107 $39 $108 $109 forward $24 $-1 #
coedge $-1 $39 $107 $110 $111 reversed $24 $-1 #
coedge $-1 $112 $113 $39 $64 forward $114 $-1 #
edge $-1 $115 4.0112466170718744 $116 15.597906332553976 $63 $117 forward 7 unknown #
face $-1 $118 $119 $14 $-1 $120 reversed single #
loop $-1 $-1 $121 $40 #
plane-surface $-1 21.384879716588756 33.263941150814446 118.46196170981592 -1 0 0 0 0.51503808176128008 0.85716729658548041 forward_v I I I I #
coedge $-1 $122 $123 $124 $125 reversed $41 $-1 #
coedge $-1 $70 $43 $126 $127 reversed $27 $-1 #
coedge $-1 $43 $69 $122 $128 reversed $27 $-1 #
coedge $-1 $124 $129 $43 $72 forward $130 $-1 #
edge $-1 $131 -8.7705122319596818 $132 -1.0081135172649951 $71 $133 forward 7 unknown #
loop $-1 $-1 $78 $44 #
plane-surface $-1 13.350769733556433 -18.145872221732752 32.90166567148276 0 0.51503808176128008 0.85716729658548041 1 0 0 forward_v I I I I #
loop $-1 $-1 $134 $29 #
coedge $-1 $76 $76 $77 $135 reversed $45 $-1 #
coedge $-1 $77 $77 $76 $135 forward $47 $-1 #
coedge $-1 $78 $78 $48 $79 forward $73 $-1 #
edge $-1 $136 -4.6399783558577058e-016 $136 6.2831853071795996 $78 $137 forward 7 unknown #
face $-1 $138 $139 $12 $-1 $140 reversed single #
loop $-1 $-1 $141 $49 #
plane-surface $-1 -49.908749656666771 0 0 1 0 0 0 0 -1 forward_v I I I I #
coedge $-1 $142 $91 $143 $144 forward $50 $-1 #
coedge $-1 $145 $52 $142 $146 forward $33 $-1 #
coedge $-1 $52 $145 $147 $148 forward $33 $-1 #
coedge $-1 $94 $93 $52 $87 reversed $95 $-1 #
edge $-1 $149 -25.402482807366905 $150 25.402482807366905 $86 $151 forward 7 unknown #
coedge $-1 $54 $53 $152 $153 forward $21 $-1 #
coedge $-1 $154 $155 $53 $90 reversed $139 $-1 #
edge $-1 $97 -49.908749656666771 $156 49.908749656666771 $89 $157 forward 7 unknown #
coedge $-1 $83 $158 $54 $92 reversed $50 $-1 #
edge $-1 $159 -49.908749656666771 $96 49.908749656666771 $91 $160 forward 7 unknown #
coedge $-1 $86 $55 $158 $161 forward $95 $-1 #
coedge $-1 $55 $86 $154 $162 reversed $95 $-1 #
loop $-1 $-1 $93 $138 #
vertex $-1 $56 $163 #
vertex $-1 $56 $164 #
straight-curve $-1 49.908749656666771 0 11.399293418616404 0 1 0 I I #
face $-1 $165 $166 $13 $-1 $167 reversed single #
loop $-1 $-1 $168 $57 #
plane-surface $-1 -49.908749656666771 0 0 1 0 0 0 0 -1 forward_v I I I I #
coedge $-1 $169 $108 $113 $170 reversed $58 $-1 #
coedge $-1 $171 $60 $172 $173 reversed $37 $-1 #
coedge $-1 $60 $171 $169 $174 forward $37 $-1 #
coedge $-1 $113 $112 $60 $106 forward $114 $-1 #
edge $-1 $175 -15.597906332553976 $176 -4.0112466170718744 $105 $177 forward 7 unknown #
coedge $-1 $62 $61 $168 $178 reversed $24 $-1 #
coedge $-1 $102 $179 $61 $109 reversed $58 $-1 #
edge $-1 $115 -49.908749656666771 $180 49.908749656666771 $108 $181 forward 7 unknown #
coedge $-1 $182 $183 $62 $111 forward $166 $-1 #
edge $-1 $116 -49.908749656666771 $184 49.908749656666771 $110 $185 forward 7 unknown #
coedge $-1 $105 $63 $183 $186 forward $114 $-1 #
coedge $-1 $63 $105 $102 $170 forward $114 $-1 #
loop $-1 $-1 $63 $165 #
vertex $-1 $64 $187 #
vertex $-1 $186 $188 #
straight-curve $-1 49.908749656666771 -9.8045764748129258 -1.3026900553759688 0 -1 0 I I #
face $-1 $-1 $130 $14 $-1 $189 forward single #
loop $-1 $-1 $190 $65 #
plane-surface $-1 0 25.402482807366905 0 0 -1 0 0 0 -1 forward_v I I I I #
coedge $-1 $191 $192 $193 $194 reversed $66 $-1 #
coedge $-1 $195 $68 $70 $128 forward $41 $-1 #
coedge $-1 $68 $195 $191 $196 forward $41 $-1 #
coedge $-1 $193 $71 $68 $125 forward $130 $-1 #
edge $-1 $132 -1.3587251162541065 $197 14.70949484981054 $124 $198 forward 7 unknown #
coedge $-1 $199 $200 $69 $127 forward $119 $-1 #
edge $-1 $201 -52.495807217585487 $131 -47.83168743629156 $126 $202 forward 7 unknown #
edge $-1 $132 41.749091988177874 $201 50.804965614733788 $70 $203 forward 7 unknown #
coedge $-1 $71 $193 $199 $204 forward $130 $-1 #
loop $-1 $-1 $193 $118 #
vertex $-1 $127 $205 #
vertex $-1 $72 $206 #
straight-curve $-1 5.31665975052411 16.631970575407223 11.399293418616402 0 -1 0 I I #
coedge $-1 $134 $134 $-1 $207 reversed $75 $-1 #
edge $-1 $208 0 $208 6.2831853071796004 $76 $209 forward 7 unknown #
vertex $-1 $79 $210 #
ellipse-curve $-1 13.350769733556433 21.52128345001957 9.0672335279694298 0 0.51503808176128008 0.85716729658548041 2 0 0 1 I I #
face $-1 $-1 $95 $12 $-1 $211 reversed single #
loop $-1 $-1 $154 $80 #
plane-surface $-1 0 25.402482807366905 0 0 -1 0 0 0 -1 forward_v I I I I #
coedge $-1 $212 $152 $155 $213 forward $81 $-1 #
coedge $-1 $158 $83 $84 $146 reversed $50 $-1 #
coedge $-1 $152 $212 $83 $144 reversed $81 $-1 #
edge $-1 $159 -11.399293418616404 $214 11.399293418616404 $143 $215 forward 7 unknown #
coedge $-1 $85 $84 $212 $216 forward $33 $-1 #
edge $-1 $150 -49.908749656666771 $214 49.908749656666771 $142 $217 forward 7 unknown #
coedge $-1 $155 $154 $85 $148 reversed $139 $-1 #
edge $-1 $218 -49.908749656666771 $149 49.908749656666771 $147 $219 forward 7 unknown #
vertex $-1 $87 $220 #
vertex $-1 $161 $221 #
straight-curve $-1 49.908749656666771 0 -11.399293418616404 0 -1 0 I I #
coedge $-1 $141 $143 $88 $153 reversed $81 $-1 #
edge $-1 $156 -25.402482807366905 $159 25.402482807366905 $152 $222 forward 7 unknown #
coedge $-1 $147 $89 $94 $162 forward $139 $-1 #
coedge $-1 $89 $147 $141 $213 reversed $139 $-1 #
vertex $-1 $90 $223 #
straight-curve $-1 0 25.402482807366905 11.399293418616404 -1 0 0 I I #
coedge $-1 $91 $142 $93 $161 reversed $50 $-1 #
vertex $-1 $153 $224 #
straight-curve $-1 0 -25.402482807366905 11.399293418616404 1 0 0 I I #
edge $-1 $96 -11.399293418616404 $150 11.399293418616404 $93 $225 forward 7 unknown #
edge $-1 $97 -11.399293418616404 $149 11.399293418616404 $94 $226 forward 7 unknown #
point $-1 49.908749656666771 -25.402482807366905 11.399293418616404 #
point $-1 49.908749656666771 25.402482807366905 11.399293418616404 #
face $-1 $-1 $114 $13 $-1 $227 reversed single #
loop $-1 $-1 $110 $99 #
plane-surface $-1 0 -25.402482807366905 0 0 1 0 0 0 1 forward_v I I I I #
coedge $-1 $228 $229 $107 $178 forward $100 $-1 #
coedge $-1 $179 $102 $104 $174 reversed $58 $-1 #
edge $-1 $176 -2.9013450276879844 $115 0.098654972312015587 $113 $230 forward 7 unknown #
coedge $-1 $104 $103 $231 $232 reversed $37 $-1 #
coedge $-1 $183 $182 $103 $173 forward $166 $-1 #
edge $-1 $233 -49.908749656666771 $175 49.908749656666771 $172 $234 forward 7 unknown #
edge $-1 $235 -49.908749656666771 $176 49.908749656666771 $169 $236 forward 7 unknown #
vertex $-1 $173 $237 #
vertex $-1 $106 $238 #
straight-curve $-1 49.908749656666771 -9.8045764748129258 -4.3026900553759688 0 1 0 I I #
edge $-1 $184 -15.597906332553976 $180 -4.0112466170718744 $168 $239 forward 7 unknown #
coedge $-1 $108 $169 $228 $240 reversed $58 $-1 #
vertex $-1 $178 $241 #
straight-curve $-1 0 -13.8158230918848 -1.3026900553759688 -1 0 0 I I #
coedge $-1 $172 $110 $229 $242 forward $166 $-1 #
coedge $-1 $110 $172 $112 $186 reversed $166 $-1 #
vertex $-1 $242 $243 #
straight-curve $-1 0 -25.402482807366905 -1.3026900553759688 -1 0 0 I I #
edge $-1 $116 1.3026900553759688 $175 4.3026900553759688 $112 $244 forward 7 unknown #
point $-1 49.908749656666771 -13.8158230918848 -1.3026900553759688 #
point $-1 49.908749656666771 -25.402482807366901 -1.3026900553759688 #
plane-surface $-1 0 0 11.399293418616404 0 0 1 1 0 0 forward_v I I I I #
coedge $-1 $200 $199 $192 $245 forward $119 $-1 #
coedge $-1 $192 $121 $123 $196 reversed $66 $-1 #
coedge $-1 $121 $191 $190 $245 reversed $66 $-1 #
coedge $-1 $129 $124 $121 $194 forward $130 $-1 #
edge $-1 $197 1.0081135172649951 $246 8.7705122319596818 $193 $247 forward 7 unknown #
coedge $-1 $123 $122 $200 $248 reversed $41 $-1 #
edge $-1 $249 -50.804965614733788 $197 -41.749091988177874 $191 $250 forward 7 unknown #
vertex $-1 $125 $251 #
straight-curve $-1 6.6753848667782165 17.640084092672215 11.399293418616404 1 0 0 I I #
coedge $-1 $190 $126 $129 $204 reversed $119 $-1 #
coedge $-1 $126 $190 $195 $248 forward $119 $-1 #
vertex $-1 $127 $252 #
straight-curve $-1 5.31665975052411 25.402482807366905 59.230980854907962 0 0 1 I I #
straight-curve $-1 5.31665975052411 -18.145872221732752 32.90166567148276 0 0.85716729658548041 -0.51503808176128008 I I #
edge $-1 $246 -21.384879716588756 $131 -5.31665975052411 $199 $253 forward 7 unknown #
point $-1 5.31665975052411 25.402482807366905 11.399293418616404 #
point $-1 5.31665975052411 17.640084092672218 11.399293418616402 #
edge $-1 $254 1 $254 0 $134 $-1 forward 7 unknown #
vertex $-1 $135 $255 #
ellipse-curve $-1 13.350769733556433 18.83881636321334 4.6028586741446205 0 0.51503808176128008 0.85716729658548041 2 0 0 1 I I #
point $-1 15.350769733556433 21.521283450019581 9.0672335279694494 #
plane-surface $-1 49.908749656666771 0 0 -1 0 0 0 0 1 forward_v I I I I #
coedge $-1 $143 $141 $145 $216 reversed $81 $-1 #
edge $-1 $156 -11.399293418616404 $218 11.399293418616404 $155 $256 forward 7 unknown #
vertex $-1 $216 $257 #
straight-curve $-1 -49.908749656666771 -25.402482807366905 0 0 0 -1 I I #
edge $-1 $214 -25.402482807366905 $218 25.402482807366905 $212 $258 forward 7 unknown #
straight-curve $-1 0 -25.402482807366905 -11.399293418616404 -1 0 0 I I #
vertex $-1 $148 $259 #
straight-curve $-1 0 25.402482807366905 -11.399293418616404 1 0 0 I I #
point $-1 49.908749656666771 25.402482807366905 -11.399293418616404 #
point $-1 49.908749656666771 -25.402482807366905 -11.399293418616404 #
straight-curve $-1 -49.908749656666771 0 11.399293418616404 0 -1 0 I I #
point $-1 -49.908749656666771 25.402482807366905 11.399293418616404 #
point $-1 -49.908749656666771 -25.402482807366905 11.399293418616404 #
straight-curve $-1 49.908749656666771 -25.402482807366905 0 0 0 -1 I I #
straight-curve $-1 49.908749656666771 25.402482807366905 0 0 0 -1 I I #
plane-surface $-1 49.908749656666771 0 0 -1 0 0 0 0 1 forward_v I I I I #
coedge $-1 $231 $168 $179 $240 forward $100 $-1 #
coedge $-1 $168 $231 $182 $242 reversed $100 $-1 #
straight-curve $-1 49.908749656666771 -13.8158230918848 -1.4013450276879844 0 0 1 I I #
coedge $-1 $229 $228 $171 $232 forward $100 $-1 #
edge $-1 $235 4.0112466170718744 $233 15.597906332553976 $231 $260 forward 7 unknown #
vertex $-1 $173 $261 #
straight-curve $-1 0 -25.402482807366905 -4.3026900553759688 1 0 0 I I #
vertex $-1 $232 $262 #
straight-curve $-1 0 -13.8158230918848 -4.3026900553759688 1 0 0 I I #
point $-1 49.908749656666771 -25.402482807366901 -4.3026900553759688 #
point $-1 49.908749656666771 -13.8158230918848 -4.3026900553759688 #
straight-curve $-1 -49.908749656666771 -9.8045764748129258 -1.3026900553759688 0 1 0 I I #
edge $-1 $180 -0.098654972312015587 $235 2.9013450276879844 $228 $263 forward 7 unknown #
point $-1 -49.908749656666771 -13.8158230918848 -1.3026900553759688 #
edge $-1 $184 1.3026900553759688 $233 4.3026900553759688 $229 $264 forward 7 unknown #
point $-1 -49.908749656666771 -25.402482807366901 -1.3026900553759688 #
straight-curve $-1 49.908749656666771 -25.402482807366905 0 0 0 -1 I I #
edge $-1 $246 47.83168743629156 $249 52.495807217585487 $190 $265 forward 7 unknown #
vertex $-1 $204 $266 #
straight-curve $-1 21.384879716588756 16.631970575407223 11.399293418616402 0 1 0 I I #
edge $-1 $249 -14.70949484981054 $201 1.3587251162541065 $200 $267 forward 7 unknown #
vertex $-1 $248 $268 #
straight-curve $-1 21.384879716588756 -18.145872221732752 32.90166567148276 0 -0.85716729658548041 0.51503808176128008 I I #
point $-1 21.384879716588756 17.640084092672218 11.399293418616402 #
point $-1 5.31665975052411 25.402482807366901 6.7351736373224753 #
straight-curve $-1 0 25.402482807366905 11.399293418616404 -1 0 0 I I #
vertex $-1 $207 $269 #
point $-1 15.350769733556433 18.83881636321334 4.6028586741446205 #
straight-curve $-1 -49.908749656666771 25.402482807366905 0 0 0 -1 I I #
point $-1 -49.908749656666771 -25.402482807366905 -11.399293418616404 #
straight-curve $-1 -49.908749656666771 0 -11.399293418616404 0 1 0 I I #
point $-1 -49.908749656666771 25.402482807366905 -11.399293418616404 #
straight-curve $-1 -49.908749656666771 -9.8045764748129258 -4.3026900553759688 0 -1 0 I I #
point $-1 -49.908749656666771 -25.402482807366901 -4.3026900553759688 #
point $-1 -49.908749656666771 -13.8158230918848 -4.3026900553759688 #
straight-curve $-1 -49.908749656666771 -13.8158230918848 -1.4013450276879844 0 0 -1 I I #
straight-curve $-1 -49.908749656666771 -25.402482807366905 0 0 0 -1 I I #
straight-curve $-1 21.384879716588756 25.402482807366905 59.230980854907962 0 0 -1 I I #
point $-1 21.384879716588756 25.402482807366905 11.399293418616404 #
straight-curve $-1 6.6753848667782165 25.402482807366905 6.7351736373224753 -1 0 0 I I #
point $-1 21.384879716588756 25.402482807366901 6.7351736373224753 #
point $-1 13.350769733556433 17.808740199690781 2.8885240809736601 #
End-of-ACIS-data 