500 0 13 0           
7 Unknown 11 ACIS 5.0 NT 24 Fri Mar 26 03:14:49 1999 
-1 9.9999999999999995e-007 1e-010 
body $-1 $13 $-1 $14 #
body $-1 $15 $-1 $16 #
body $-1 $17 $-1 $18 #
body $-1 $19 $-1 $20 #
body $-1 $21 $-1 $22 #
body $-1 $23 $-1 $24 #
body $-1 $25 $-1 $26 #
body $-1 $27 $-1 $28 #
body $-1 $29 $-1 $30 #
body $-1 $31 $-1 $32 #
body $-1 $33 $-1 $34 #
body $-1 $35 $-1 $36 #
body $-1 $37 $-1 $38 #
lump $-1 $-1 $39 $0 #
transform $-1 1 0 0 0 1 0 0 0 1 67.958616901150549 43.913747824228984 11.923600402605221 1 rotate no_reflect no_shear #
lump $-1 $-1 $40 $1 #
transform $-1 1 0 0 0 1 0 0 0 1 67.958616901150549 43.913747824228984 11.923600402605221 1 rotate no_reflect no_shear #
lump $-1 $-1 $41 $2 #
transform $-1 1 0 0 0 1 0 0 0 1 67.958616901150549 43.913747824228984 11.923600402605221 1 rotate no_reflect no_shear #
lump $-1 $-1 $42 $3 #
transform $-1 1 0 0 0 1 0 0 0 1 67.958616901150549 43.913747824228984 11.923600402605221 1 rotate no_reflect no_shear #
lump $-1 $-1 $43 $4 #
transform $-1 1 0 0 0 1 0 0 0 1 67.958616901150549 43.913747824228984 11.923600402605221 1 rotate no_reflect no_shear #
lump $-1 $-1 $44 $5 #
transform $-1 1 0 0 0 1 0 0 0 1 67.958616901150549 43.913747824228984 11.923600402605221 1 rotate no_reflect no_shear #
lump $-1 $-1 $45 $6 #
transform $-1 1 0 0 0 1 0 0 0 1 67.958616901150549 43.913747824228984 11.923600402605221 1 rotate no_reflect no_shear #
lump $-1 $-1 $46 $7 #
transform $-1 1 0 0 0 1 0 0 0 1 67.958616901150549 43.913747824228984 11.923600402605221 1 rotate no_reflect no_shear #
lump $-1 $-1 $47 $8 #
transform $-1 1 0 0 0 1 0 0 0 1 67.958616901150549 43.913747824228984 11.923600402605221 1 rotate no_reflect no_shear #
lump $-1 $-1 $48 $9 #
transform $-1 1 0 0 0 1 0 0 0 1 67.958616901150549 43.913747824228984 11.923600402605221 1 rotate no_reflect no_shear #
lump $-1 $-1 $49 $10 #
transform $-1 1 0 0 0 1 0 0 0 1 67.958616901150549 43.913747824228984 11.923600402605221 1 rotate no_reflect no_shear #
lump $-1 $-1 $50 $11 #
transform $-1 1 0 0 0 1 0 0 0 1 67.958616901150549 43.913747824228984 11.923600402605221 1 rotate no_reflect no_shear #
lump $-1 $-1 $51 $12 #
transform $-1 1 0 0 0 1 0 0 0 1 67.958616901150549 43.913747824228984 11.923600402605221 1 rotate no_reflect no_shear #
shell $-1 $-1 $-1 $52 $-1 $13 #
shell $-1 $-1 $-1 $53 $-1 $15 #
shell $-1 $-1 $-1 $54 $-1 $17 #
shell $-1 $-1 $-1 $55 $-1 $19 #
shell $-1 $-1 $-1 $56 $-1 $21 #
shell $-1 $-1 $-1 $57 $-1 $23 #
shell $-1 $-1 $-1 $58 $-1 $25 #
shell $-1 $-1 $-1 $59 $-1 $27 #
shell $-1 $-1 $-1 $60 $-1 $29 #
shell $-1 $-1 $-1 $61 $-1 $31 #
shell $-1 $-1 $-1 $62 $-1 $33 #
shell $-1 $-1 $-1 $63 $-1 $35 #
shell $-1 $-1 $-1 $64 $-1 $37 #
face $-1 $65 $66 $39 $-1 $67 forward single #
face $-1 $68 $69 $40 $-1 $70 reversed single #
face $-1 $71 $72 $41 $-1 $73 reversed single #
face $-1 $74 $75 $42 $-1 $76 reversed single #
face $-1 $77 $78 $43 $-1 $79 forward single #
face $-1 $80 $81 $44 $-1 $82 forward single #
face $-1 $83 $84 $45 $-1 $85 forward single #
face $-1 $86 $87 $46 $-1 $88 reversed single #
face $-1 $89 $90 $47 $-1 $91 forward single #
face $-1 $92 $93 $48 $-1 $94 forward single #
face $-1 $95 $96 $49 $-1 $97 forward single #
face $-1 $98 $99 $50 $-1 $100 reversed single #
face $-1 $101 $102 $51 $-1 $103 forward single #
face $-1 $104 $105 $39 $-1 $106 reversed single #
loop $-1 $-1 $107 $52 #
plane-surface $-1 0 0 11.923600402605221 0 0 1 1 0 0 forward_v I I I I #
face $-1 $108 $109 $40 $-1 $110 reversed single #
loop $-1 $-1 $111 $53 #
plane-surface $-1 0 -39.744916230846677 8.9236004026052207 0 0 1 1 0 0 forward_v I I I I #
face $-1 $112 $113 $41 $-1 $114 reversed single #
loop $-1 $-1 $115 $54 #
plane-surface $-1 0 39.744916230846677 8.9236004026052207 0 0 1 1 0 0 forward_v I I I I #
face $-1 $116 $117 $42 $-1 $118 reversed single #
loop $-1 $-1 $119 $55 #
plane-surface $-1 -151.63762263543401 -7.3262826598920228 110.83441328510213 0 1 0 -0.61566148304635926 0 0.78801074757464917 forward_v I I I I #
face $-1 $120 $121 $43 $-1 $122 forward single #
loop $-1 $123 $124 $56 #
cone-surface $-1 -62.407231375765292 -5.8610261279136182 7.4328809616515157 0.61566148304635926 0 -0.78801074757464917 0.39400537378732459 0 0.30783074152317963 1 I I 0 1 0.5 forward I I I I #
face $-1 $125 $126 $44 $-1 $127 forward single #
loop $-1 $128 $129 $57 #
cone-surface $-1 -62.407231375765292 -3.6631413299460078 7.4328809616515157 0.61566148304635926 0 -0.78801074757464917 0.39400537378732459 0 0.30783074152317963 1 I I 0 1 0.5 forward I I I I #
face $-1 $130 $131 $45 $-1 $132 forward single #
loop $-1 $133 $134 $58 #
cone-surface $-1 -62.407231375765292 -1.4652565319783974 7.4328809616515157 0.61566148304635926 0 -0.78801074757464917 0.39400537378732459 0 0.30783074152317963 1 I I 0 1 0.5 forward I I I I #
face $-1 $135 $136 $46 $-1 $137 reversed single #
loop $-1 $-1 $138 $59 #
plane-surface $-1 -151.63762263543401 28.249801977572339 110.83441328510213 0 1 0 -0.61566148304635926 0 0.78801074757464917 forward_v I I I I #
face $-1 $139 $140 $47 $-1 $141 forward single #
loop $-1 $142 $143 $60 #
cone-surface $-1 -62.407231375765292 29.715058509550751 7.4328809616515157 0.61566148304635926 0 -0.78801074757464917 0.39400537378732459 0 0.30783074152317963 1 I I 0 1 0.5 forward I I I I #
face $-1 $144 $145 $48 $-1 $146 forward single #
loop $-1 $147 $148 $61 #
cone-surface $-1 -62.407231375765292 31.912943307518354 7.4328809616515157 0.61566148304635926 0 -0.78801074757464917 0.39400537378732459 0 0.30783074152317963 1 I I 0 1 0.5 forward I I I I #
face $-1 $149 $150 $49 $-1 $151 forward single #
loop $-1 $152 $153 $62 #
cone-surface $-1 -62.407231375765292 34.110828105485972 7.4328809616515157 0.61566148304635926 0 -0.78801074757464917 0.39400537378732459 0 0.30783074152317963 1 I I 0 1 0.5 forward I I I I #
face $-1 $154 $155 $50 $-1 $156 reversed single #
loop $-1 $-1 $157 $63 #
plane-surface $-1 34.580661289151038 26.210127141886922 190.87725207636146 0 -1 0 -0.57357644374324357 0 -0.81915203911291934 forward_v I I I I #
face $-1 $158 $159 $51 $-1 $160 forward single #
loop $-1 $161 $162 $64 #
cone-surface $-1 59.503301016595863 19.63788332536533 5.2240426691990089 -0.57357644374324357 0 -0.81915203911291934 1.6383040782258387 0 -1.1471528874864871 1 I I 0 1 2 forward I I I I #
face $-1 $163 $164 $39 $-1 $165 reversed single #
loop $-1 $-1 $166 $65 #
plane-surface $-1 0 0 -11.923600402605221 0 0 1 1 0 0 forward_v I I I I #
coedge $-1 $167 $168 $169 $170 forward $66 $-1 #
face $-1 $171 $172 $40 $-1 $173 reversed single #
loop $-1 $-1 $174 $68 #
plane-surface $-1 0 -35.576084637464369 10.423600402605221 0 -1 0 0 0 -1 forward_v I I I I #
coedge $-1 $175 $176 $177 $178 reversed $69 $-1 #
face $-1 $179 $180 $41 $-1 $181 forward single #
loop $-1 $-1 $182 $71 #
plane-surface $-1 0 35.576084637464369 10.423600402605221 0 1 0 0 0 1 forward_v I I I I #
coedge $-1 $183 $184 $185 $186 reversed $72 $-1 #
face $-1 $187 $188 $42 $-1 $189 reversed single #
loop $-1 $-1 $190 $74 #
plane-surface $-1 -67.958616901150563 -3.6631413299460078 3.7301722682724687 -0.61566148304635926 0 0.78801074757464917 0.78801074757464917 0 0.61566148304635926 forward_v I I I I #
coedge $-1 $191 $192 $193 $194 reversed $75 $-1 #
face $-1 $-1 $195 $43 $-1 $196 forward single #
loop $-1 $197 $198 $77 #
cone-surface $-1 -61.945485263480521 -5.8610261279136182 6.8418729009705288 0.61566148304635926 0 -0.78801074757464917 0.19700268689366229 0 0.15391537076158981 1 I I -0.70710678118654746 0.70710678118654746 0.25 forward I I I I #
loop $-1 $-1 $199 $56 #
coedge $-1 $124 $124 $200 $201 reversed $78 $-1 #
face $-1 $-1 $202 $44 $-1 $203 forward single #
loop $-1 $204 $205 $80 #
cone-surface $-1 -61.945485263480521 -3.6631413299460078 6.8418729009705288 0.61566148304635926 0 -0.78801074757464917 0.19700268689366229 0 0.15391537076158981 1 I I -0.70710678118654746 0.70710678118654746 0.25 forward I I I I #
loop $-1 $-1 $206 $57 #
coedge $-1 $129 $129 $207 $208 reversed $81 $-1 #
face $-1 $-1 $209 $45 $-1 $210 forward single #
loop $-1 $211 $212 $83 #
cone-surface $-1 -61.945485263480521 -1.4652565319783974 6.8418729009705288 0.61566148304635926 0 -0.78801074757464917 0.19700268689366229 0 0.15391537076158981 1 I I -0.70710678118654746 0.70710678118654746 0.25 forward I I I I #
loop $-1 $-1 $213 $58 #
coedge $-1 $134 $134 $214 $215 reversed $84 $-1 #
face $-1 $216 $217 $46 $-1 $218 forward single #
loop $-1 $-1 $219 $86 #
plane-surface $-1 -67.958616901150563 31.912943307518354 3.7301722682724687 -0.61566148304635926 0 0.78801074757464917 0.78801074757464917 0 0.61566148304635926 forward_v I I I I #
coedge $-1 $220 $221 $222 $223 reversed $87 $-1 #
face $-1 $-1 $224 $47 $-1 $225 forward single #
loop $-1 $226 $227 $89 #
cone-surface $-1 -61.945485263480521 29.715058509550751 6.8418729009705288 0.61566148304635926 0 -0.78801074757464917 0.19700268689366229 0 0.15391537076158981 1 I I -0.70710678118654746 0.70710678118654746 0.25 forward I I I I #
loop $-1 $-1 $228 $60 #
coedge $-1 $143 $143 $229 $230 reversed $90 $-1 #
face $-1 $-1 $231 $48 $-1 $232 forward single #
loop $-1 $233 $234 $92 #
cone-surface $-1 -61.945485263480521 31.912943307518354 6.8418729009705288 0.61566148304635926 0 -0.78801074757464917 0.19700268689366229 0 0.15391537076158981 1 I I -0.70710678118654746 0.70710678118654746 0.25 forward I I I I #
loop $-1 $-1 $235 $61 #
coedge $-1 $148 $148 $236 $237 reversed $93 $-1 #
face $-1 $-1 $238 $49 $-1 $239 forward single #
loop $-1 $240 $241 $95 #
cone-surface $-1 -61.945485263480521 34.110828105485972 6.8418729009705288 0.61566148304635926 0 -0.78801074757464917 0.19700268689366229 0 0.15391537076158981 1 I I -0.70710678118654746 0.70710678118654746 0.25 forward I I I I #
loop $-1 $-1 $242 $62 #
coedge $-1 $153 $153 $243 $244 reversed $96 $-1 #
face $-1 $245 $246 $50 $-1 $247 reversed single #
loop $-1 $-1 $248 $98 #
plane-surface $-1 -43.378262318591794 19.63788332536533 79.540372856619101 0.57357644374324357 0 0.81915203911291934 0.81915203911291934 0 -0.57357644374324357 forward_v I I I I #
coedge $-1 $249 $250 $251 $252 reversed $99 $-1 #
face $-1 $-1 $253 $51 $-1 $254 forward single #
loop $-1 $255 $256 $101 #
cone-surface $-1 57.859469824266981 19.63788332536533 2.8764084735443554 -0.57357644374324357 0 -0.81915203911291934 0.81915203911291934 0 -0.57357644374324357 1 I I -0.70710678118654746 0.70710678118654746 1 forward I I I I #
loop $-1 $-1 $257 $64 #
coedge $-1 $162 $162 $258 $259 reversed $102 $-1 #
face $-1 $260 $261 $39 $-1 $262 reversed single #
loop $-1 $-1 $263 $104 #
plane-surface $-1 0 -43.913747824228984 0 0 1 0 0 0 1 forward_v I I I I #
coedge $-1 $264 $265 $266 $267 forward $105 $-1 #
coedge $-1 $268 $107 $269 $270 forward $66 $-1 #
coedge $-1 $107 $268 $271 $272 forward $66 $-1 #
coedge $-1 $273 $274 $107 $170 reversed $275 $-1 #
edge $-1 $276 -43.913747824228984 $277 43.913747824228984 $169 $278 forward 7 unknown #
face $-1 $279 $280 $40 $-1 $281 reversed single #
loop $-1 $-1 $282 $108 #
plane-surface $-1 -67.958616901150549 0 0 1 0 0 0 0 -1 forward_v I I I I #
coedge $-1 $283 $284 $285 $286 reversed $109 $-1 #
coedge $-1 $287 $111 $288 $289 reversed $69 $-1 #
coedge $-1 $111 $287 $283 $290 forward $69 $-1 #
coedge $-1 $285 $291 $111 $178 forward $292 $-1 #
edge $-1 $293 -24.041289708805646 $294 -15.703626522041031 $177 $295 forward 7 unknown #
face $-1 $296 $297 $41 $-1 $298 reversed single #
loop $-1 $-1 $299 $112 #
plane-surface $-1 0 0 11.923600402605221 0 0 1 1 0 0 forward_v I I I I #
coedge $-1 $300 $301 $183 $302 reversed $113 $-1 #
coedge $-1 $303 $115 $182 $302 forward $72 $-1 #
coedge $-1 $115 $303 $304 $305 reversed $72 $-1 #
coedge $-1 $306 $307 $115 $186 forward $297 $-1 #
edge $-1 $308 15.703626522041031 $309 24.041289708805646 $185 $310 forward 7 unknown #
face $-1 $311 $312 $42 $-1 $313 reversed single #
loop $-1 $-1 $314 $116 #
plane-surface $-1 -151.63762263543401 7.1054273576010019e-015 110.83441328510213 0 -1 0 0.61566148304635926 0 -0.78801074757464917 forward_v I I I I #
coedge $-1 $315 $316 $317 $318 reversed $117 $-1 #
coedge $-1 $192 $119 $319 $320 reversed $75 $-1 #
coedge $-1 $119 $191 $315 $321 reversed $75 $-1 #
coedge $-1 $317 $322 $119 $194 forward $323 $-1 #
edge $-1 $324 7.8601944165664577 $325 18.347303984290598 $193 $326 forward 7 unknown #
loop $-1 $-1 $200 $120 #
plane-surface $-1 -67.958616901150563 -3.6631413299460078 3.7301722682724687 -0.61566148304635926 0 0.78801074757464917 0.78801074757464917 0 0.61566148304635926 forward_v I I I I #
loop $-1 $-1 $327 $77 #
coedge $-1 $198 $198 $199 $328 reversed $121 $-1 #
coedge $-1 $199 $199 $198 $328 forward $123 $-1 #
coedge $-1 $200 $200 $124 $201 forward $195 $-1 #
edge $-1 $329 0 $329 6.2831853071796004 $200 $330 forward 7 unknown #
loop $-1 $-1 $207 $125 #
plane-surface $-1 -67.958616901150563 -3.6631413299460078 3.7301722682724687 -0.61566148304635926 0 0.78801074757464917 0.78801074757464917 0 0.61566148304635926 forward_v I I I I #
loop $-1 $-1 $331 $80 #
coedge $-1 $205 $205 $206 $332 reversed $126 $-1 #
coedge $-1 $206 $206 $205 $332 forward $128 $-1 #
coedge $-1 $207 $207 $129 $208 forward $202 $-1 #
edge $-1 $333 0 $333 6.2831853071796004 $207 $334 forward 7 unknown #
loop $-1 $-1 $214 $130 #
plane-surface $-1 -67.958616901150563 -3.6631413299460078 3.7301722682724687 -0.61566148304635926 0 0.78801074757464917 0.78801074757464917 0 0.61566148304635926 forward_v I I I I #
loop $-1 $-1 $335 $83 #
coedge $-1 $212 $212 $213 $336 reversed $131 $-1 #
coedge $-1 $213 $213 $212 $336 forward $133 $-1 #
coedge $-1 $214 $214 $134 $215 forward $209 $-1 #
edge $-1 $337 0 $337 6.2831853071796004 $214 $338 forward 7 unknown #
face $-1 $339 $340 $46 $-1 $341 forward single #
loop $-1 $-1 $222 $135 #
plane-surface $-1 0 0 11.923600402605221 0 0 1 1 0 0 forward_v I I I I #
coedge $-1 $342 $343 $344 $345 reversed $136 $-1 #
coedge $-1 $221 $138 $346 $347 reversed $87 $-1 #
coedge $-1 $138 $220 $342 $348 reversed $87 $-1 #
coedge $-1 $344 $349 $138 $223 forward $217 $-1 #
edge $-1 $350 7.8601944165664577 $351 18.347303984290598 $222 $352 forward 7 unknown #
loop $-1 $-1 $229 $139 #
plane-surface $-1 -67.958616901150563 31.912943307518354 3.7301722682724687 -0.61566148304635926 0 0.78801074757464917 0.78801074757464917 0 0.61566148304635926 forward_v I I I I #
loop $-1 $-1 $353 $89 #
coedge $-1 $227 $227 $228 $354 reversed $140 $-1 #
coedge $-1 $228 $228 $227 $354 forward $142 $-1 #
coedge $-1 $229 $229 $143 $230 forward $224 $-1 #
edge $-1 $355 0 $355 6.2831853071796004 $229 $356 forward 7 unknown #
loop $-1 $-1 $236 $144 #
plane-surface $-1 -67.958616901150563 31.912943307518354 3.7301722682724687 -0.61566148304635926 0 0.78801074757464917 0.78801074757464917 0 0.61566148304635926 forward_v I I I I #
loop $-1 $-1 $357 $92 #
coedge $-1 $234 $234 $235 $358 reversed $145 $-1 #
coedge $-1 $235 $235 $234 $358 forward $147 $-1 #
coedge $-1 $236 $236 $148 $237 forward $231 $-1 #
edge $-1 $359 0 $359 6.2831853071796004 $236 $360 forward 7 unknown #
loop $-1 $-1 $243 $149 #
plane-surface $-1 -67.958616901150563 31.912943307518354 3.7301722682724687 -0.61566148304635926 0 0.78801074757464917 0.78801074757464917 0 0.61566148304635926 forward_v I I I I #
loop $-1 $-1 $361 $95 #
coedge $-1 $241 $241 $242 $362 reversed $150 $-1 #
coedge $-1 $242 $242 $241 $362 forward $152 $-1 #
coedge $-1 $243 $243 $153 $244 forward $238 $-1 #
edge $-1 $363 0 $363 6.2831853071796004 $243 $364 forward 7 unknown #
face $-1 $365 $366 $50 $-1 $367 forward single #
loop $-1 $-1 $368 $154 #
plane-surface $-1 34.580661289151038 13.065639508843738 190.87725207636146 0 1 0 0.57357644374324357 0 0.81915203911291934 forward_v I I I I #
coedge $-1 $369 $370 $371 $372 reversed $155 $-1 #
coedge $-1 $250 $157 $373 $374 reversed $99 $-1 #
coedge $-1 $157 $249 $369 $375 reversed $99 $-1 #
coedge $-1 $371 $376 $157 $252 forward $366 $-1 #
edge $-1 $377 -50.66828625657503 $378 -35.89816398463698 $251 $379 forward 7 unknown #
loop $-1 $-1 $258 $158 #
plane-surface $-1 -43.378262318591794 19.63788332536533 79.540372856619101 0.57357644374324357 0 0.81915203911291934 0.81915203911291934 0 -0.57357644374324357 forward_v I I I I #
loop $-1 $-1 $380 $101 #
coedge $-1 $256 $256 $257 $381 reversed $159 $-1 #
coedge $-1 $257 $257 $256 $381 forward $161 $-1 #
coedge $-1 $258 $258 $162 $259 forward $253 $-1 #
edge $-1 $382 0 $382 6.2831853071796004 $258 $383 forward 7 unknown #
face $-1 $384 $385 $39 $-1 $386 reversed single #
loop $-1 $-1 $387 $163 #
plane-surface $-1 -67.958616901150549 0 0 1 0 0 0 0 -1 forward_v I I I I #
coedge $-1 $388 $271 $389 $390 forward $164 $-1 #
coedge $-1 $391 $166 $388 $392 forward $105 $-1 #
coedge $-1 $166 $391 $393 $394 forward $105 $-1 #
coedge $-1 $274 $273 $166 $267 reversed $275 $-1 #
edge $-1 $395 -43.913747824228984 $396 43.913747824228984 $266 $397 forward 7 unknown #
coedge $-1 $168 $167 $398 $399 forward $66 $-1 #
coedge $-1 $400 $401 $167 $270 reversed $385 $-1 #
edge $-1 $277 -67.958616901150549 $402 67.958616901150549 $269 $403 forward 7 unknown #
coedge $-1 $263 $404 $168 $272 reversed $164 $-1 #
edge $-1 $405 -67.958616901150549 $276 67.958616901150549 $271 $406 forward 7 unknown #
coedge $-1 $266 $169 $404 $407 forward $275 $-1 #
coedge $-1 $169 $266 $400 $408 reversed $275 $-1 #
loop $-1 $-1 $273 $384 #
vertex $-1 $170 $409 #
vertex $-1 $170 $410 #
straight-curve $-1 67.958616901150549 0 11.923600402605221 0 1 0 I I #
face $-1 $411 $412 $40 $-1 $413 forward single #
loop $-1 $-1 $288 $171 #
plane-surface $-1 0 -43.913747824228984 0 0 1 0 0 0 1 forward_v I I I I #
coedge $-1 $414 $415 $416 $417 forward $172 $-1 #
coedge $-1 $416 $174 $176 $290 reversed $109 $-1 #
coedge $-1 $174 $416 $418 $419 reversed $109 $-1 #
coedge $-1 $420 $177 $174 $286 forward $292 $-1 #
edge $-1 $294 3.7118002013026103 $421 6.7118002013026103 $285 $422 forward 7 unknown #
coedge $-1 $176 $175 $414 $423 reversed $69 $-1 #
coedge $-1 $424 $425 $175 $289 forward $280 $-1 #
edge $-1 $426 -67.958616901150549 $293 67.958616901150549 $288 $427 forward 7 unknown #
edge $-1 $428 -67.958616901150549 $294 67.958616901150549 $283 $429 forward 7 unknown #
coedge $-1 $177 $420 $424 $430 forward $292 $-1 #
loop $-1 $-1 $285 $411 #
vertex $-1 $289 $431 #
vertex $-1 $178 $432 #
straight-curve $-1 67.958616901150549 -19.872458115423338 8.9236004026052207 0 1 0 I I #
face $-1 $433 $434 $41 $-1 $435 reversed single #
loop $-1 $-1 $307 $179 #
plane-surface $-1 67.958616901150549 0 0 -1 0 0 0 0 1 forward_v I I I I #
coedge $-1 $436 $437 $438 $439 forward $180 $-1 #
coedge $-1 $438 $182 $307 $440 reversed $113 $-1 #
coedge $-1 $182 $438 $441 $442 reversed $113 $-1 #
edge $-1 $308 -67.958616901150549 $443 67.958616901150549 $182 $444 forward 7 unknown #
coedge $-1 $184 $183 $445 $446 reversed $72 $-1 #
coedge $-1 $447 $448 $184 $305 forward $449 $-1 #
edge $-1 $309 -67.958616901150549 $450 67.958616901150549 $304 $451 forward 7 unknown #
coedge $-1 $452 $185 $448 $453 reversed $297 $-1 #
coedge $-1 $185 $452 $300 $440 forward $297 $-1 #
vertex $-1 $186 $454 #
vertex $-1 $305 $455 #
straight-curve $-1 67.958616901150549 19.872458115423338 8.9236004026052207 0 1 0 I I #
face $-1 $-1 $323 $42 $-1 $456 forward single #
loop $-1 $-1 $457 $187 #
plane-surface $-1 -67.958616901150549 0 0 1 0 0 0 0 -1 forward_v I I I I #
coedge $-1 $458 $459 $460 $461 reversed $188 $-1 #
coedge $-1 $462 $190 $192 $321 forward $117 $-1 #
coedge $-1 $190 $462 $458 $463 forward $117 $-1 #
coedge $-1 $460 $193 $190 $318 forward $323 $-1 #
edge $-1 $325 -5.4947119949190188 $464 1.831570664973011 $317 $465 forward 7 unknown #
coedge $-1 $466 $467 $191 $320 forward $312 $-1 #
edge $-1 $468 -51.687034374278582 $324 -43.493606239945848 $319 $469 forward 7 unknown #
edge $-1 $325 -13.308333166776633 $468 -1.8033521786330445e-014 $192 $470 forward 7 unknown #
coedge $-1 $193 $460 $466 $471 forward $323 $-1 #
loop $-1 $-1 $460 $311 #
vertex $-1 $320 $472 #
vertex $-1 $194 $473 #
straight-curve $-1 -75.818811317717007 -7.3262826598920228 11.923600402605217 1 0 0 I I #
coedge $-1 $327 $327 $-1 $474 reversed $197 $-1 #
edge $-1 $475 0 $475 6.2831853071796004 $198 $476 forward 7 unknown #
vertex $-1 $201 $477 #
ellipse-curve $-1 -62.715062117288483 -5.8610261279136182 7.82688633543885 -0.61566148304635926 0 0.78801074757464917 0.39400537378732459 0 0.30783074152317963 1 I I #
coedge $-1 $331 $331 $-1 $478 reversed $204 $-1 #
edge $-1 $479 0 $479 6.2831853071796004 $205 $480 forward 7 unknown #
vertex $-1 $208 $481 #
ellipse-curve $-1 -62.715062117288483 -3.6631413299460078 7.82688633543885 -0.61566148304635926 0 0.78801074757464917 0.39400537378732459 0 0.30783074152317963 1 I I #
coedge $-1 $335 $335 $-1 $482 reversed $211 $-1 #
edge $-1 $483 0 $483 6.2831853071796004 $212 $484 forward 7 unknown #
vertex $-1 $215 $485 #
ellipse-curve $-1 -62.715062117288483 -1.4652565319783974 7.82688633543885 -0.61566148304635926 0 0.78801074757464917 0.39400537378732459 0 0.30783074152317963 1 I I #
face $-1 $-1 $486 $46 $-1 $487 reversed single #
loop $-1 $-1 $488 $216 #
plane-surface $-1 0 35.576084637464369 10.423600402605221 0 1 0 0 0 1 forward_v I I I I #
coedge $-1 $489 $219 $221 $348 forward $136 $-1 #
coedge $-1 $219 $489 $488 $490 forward $136 $-1 #
coedge $-1 $491 $222 $219 $345 forward $217 $-1 #
edge $-1 $351 12.293330323813162 $492 19.619612983705192 $344 $493 forward 7 unknown #
coedge $-1 $494 $495 $220 $347 forward $486 $-1 #
edge $-1 $496 -51.687034374278582 $350 -43.493606239945848 $346 $497 forward 7 unknown #
edge $-1 $351 -13.308333166776633 $496 -1.8033521786330445e-014 $221 $498 forward 7 unknown #
coedge $-1 $222 $491 $494 $499 forward $217 $-1 #
vertex $-1 $347 $500 #
vertex $-1 $223 $501 #
straight-curve $-1 -75.818811317717007 28.249801977572339 11.923600402605217 1 0 0 I I #
coedge $-1 $353 $353 $-1 $502 reversed $226 $-1 #
edge $-1 $503 0 $503 6.2831853071796004 $227 $504 forward 7 unknown #
vertex $-1 $230 $505 #
ellipse-curve $-1 -62.715062117288483 29.715058509550751 7.82688633543885 -0.61566148304635926 0 0.78801074757464917 0.39400537378732459 0 0.30783074152317963 1 I I #
coedge $-1 $357 $357 $-1 $506 reversed $233 $-1 #
edge $-1 $507 0 $507 6.2831853071796004 $234 $508 forward 7 unknown #
vertex $-1 $237 $509 #
ellipse-curve $-1 -62.715062117288483 31.912943307518354 7.82688633543885 -0.61566148304635926 0 0.78801074757464917 0.39400537378732459 0 0.30783074152317963 1 I I #
coedge $-1 $361 $361 $-1 $510 reversed $240 $-1 #
edge $-1 $511 0 $511 6.2831853071796004 $241 $512 forward 7 unknown #
vertex $-1 $244 $513 #
ellipse-curve $-1 -62.715062117288483 34.110828105485972 7.82688633543885 -0.61566148304635926 0 0.78801074757464917 0.39400537378732459 0 0.30783074152317963 1 I I #
face $-1 $-1 $514 $50 $-1 $515 reversed single #
loop $-1 $-1 $251 $245 #
plane-surface $-1 0 0 11.923600402605221 0 0 1 1 0 0 forward_v I I I I #
coedge $-1 $516 $517 $518 $519 reversed $246 $-1 #
coedge $-1 $520 $248 $250 $375 forward $155 $-1 #
coedge $-1 $248 $520 $516 $521 forward $155 $-1 #
coedge $-1 $518 $251 $248 $372 forward $366 $-1 #
edge $-1 $378 -16.391185479204257 $522 -3.2466978461610729 $371 $523 forward 7 unknown #
coedge $-1 $524 $525 $249 $374 forward $514 $-1 #
edge $-1 $526 -93.857176789304461 $377 -83.515025635575512 $373 $527 forward 7 unknown #
edge $-1 $378 117.88624374588495 $526 135.9172338023011 $250 $528 forward 7 unknown #
coedge $-1 $251 $518 $524 $529 forward $366 $-1 #
vertex $-1 $374 $530 #
vertex $-1 $252 $531 #
straight-curve $-1 17.290330644575519 26.210127141886922 11.923600402605217 -1 0 0 I I #
coedge $-1 $380 $380 $-1 $532 reversed $255 $-1 #
edge $-1 $533 0 $533 6.2831853071796004 $256 $534 forward 7 unknown #
vertex $-1 $259 $535 #
ellipse-curve $-1 60.57355576518151 19.63788332536533 6.7525248257407577 0.57357644374324357 0 0.81915203911291934 1.6383040782258387 0 -1.1471528874864871 1 I I #
face $-1 $-1 $275 $39 $-1 $536 reversed single #
loop $-1 $-1 $400 $260 #
plane-surface $-1 0 43.913747824228984 0 0 -1 0 0 0 -1 forward_v I I I I #
coedge $-1 $537 $398 $401 $538 forward $261 $-1 #
coedge $-1 $404 $263 $264 $392 reversed $164 $-1 #
coedge $-1 $398 $537 $263 $390 reversed $261 $-1 #
edge $-1 $405 -11.923600402605221 $539 11.923600402605221 $389 $540 forward 7 unknown #
coedge $-1 $265 $264 $537 $541 forward $105 $-1 #
edge $-1 $396 -67.958616901150549 $539 67.958616901150549 $388 $542 forward 7 unknown #
coedge $-1 $401 $400 $265 $394 reversed $385 $-1 #
edge $-1 $543 -67.958616901150549 $395 67.958616901150549 $393 $544 forward 7 unknown #
vertex $-1 $267 $545 #
vertex $-1 $407 $546 #
straight-curve $-1 67.958616901150549 0 -11.923600402605221 0 -1 0 I I #
coedge $-1 $387 $389 $268 $399 reversed $261 $-1 #
edge $-1 $402 -43.913747824228984 $405 43.913747824228984 $398 $547 forward 7 unknown #
coedge $-1 $393 $269 $274 $408 forward $385 $-1 #
coedge $-1 $269 $393 $387 $538 reversed $385 $-1 #
vertex $-1 $270 $548 #
straight-curve $-1 0 43.913747824228984 11.923600402605221 -1 0 0 I I #
coedge $-1 $271 $388 $273 $407 reversed $164 $-1 #
vertex $-1 $399 $549 #
straight-curve $-1 0 -43.913747824228984 11.923600402605221 1 0 0 I I #
edge $-1 $276 -11.923600402605221 $396 11.923600402605221 $273 $550 forward 7 unknown #
edge $-1 $277 -11.923600402605221 $395 11.923600402605221 $274 $551 forward 7 unknown #
point $-1 67.958616901150549 -43.913747824228984 11.923600402605221 #
point $-1 67.958616901150549 43.913747824228984 11.923600402605221 #
face $-1 $-1 $292 $40 $-1 $552 reversed single #
loop $-1 $-1 $418 $279 #
plane-surface $-1 0 0 11.923600402605221 0 0 1 1 0 0 forward_v I I I I #
coedge $-1 $553 $282 $287 $423 forward $172 $-1 #
coedge $-1 $282 $553 $554 $555 reversed $172 $-1 #
coedge $-1 $284 $283 $282 $417 reversed $109 $-1 #
edge $-1 $556 -6.7118002013026103 $428 -3.7118002013026103 $282 $557 forward 7 unknown #
coedge $-1 $554 $558 $284 $419 forward $412 $-1 #
edge $-1 $421 -67.958616901150549 $556 67.958616901150549 $418 $559 forward 7 unknown #
coedge $-1 $291 $285 $558 $560 reversed $292 $-1 #
vertex $-1 $286 $561 #
straight-curve $-1 67.958616901150549 -35.576084637464369 5.2118002013026103 0 0 1 I I #
edge $-1 $428 15.703626522041031 $426 24.041289708805646 $414 $562 forward 7 unknown #
coedge $-1 $563 $288 $291 $430 reversed $280 $-1 #
coedge $-1 $288 $563 $553 $564 forward $280 $-1 #
vertex $-1 $289 $565 #
straight-curve $-1 0 -43.913747824228984 8.9236004026052207 1 0 0 I I #
vertex $-1 $423 $566 #
straight-curve $-1 0 -35.576084637464369 8.9236004026052207 1 0 0 I I #
edge $-1 $567 -11.923600402605221 $293 -8.9236004026052207 $291 $568 forward 7 unknown #
point $-1 67.958616901150549 -43.913747824228984 8.9236004026052207 #
point $-1 67.958616901150549 -35.576084637464369 8.9236004026052207 #
face $-1 $-1 $449 $41 $-1 $569 reversed single #
loop $-1 $-1 $441 $296 #
plane-surface $-1 -67.958616901150549 0 0 1 0 0 0 0 -1 forward_v I I I I #
coedge $-1 $570 $299 $452 $571 forward $180 $-1 #
coedge $-1 $299 $570 $572 $573 forward $180 $-1 #
coedge $-1 $301 $300 $299 $439 reversed $113 $-1 #
edge $-1 $574 -67.958616901150549 $575 67.958616901150549 $299 $576 forward 7 unknown #
edge $-1 $575 -6.7118002013026103 $308 -3.7118002013026103 $307 $577 forward 7 unknown #
coedge $-1 $572 $445 $301 $442 forward $434 $-1 #
edge $-1 $443 3.7118002013026103 $574 6.7118002013026103 $441 $578 forward 7 unknown #
vertex $-1 $446 $579 #
straight-curve $-1 0 35.576084637464369 8.9236004026052207 -1 0 0 I I #
coedge $-1 $441 $580 $303 $446 forward $434 $-1 #
edge $-1 $450 -24.041289708805646 $443 -15.703626522041031 $445 $581 forward 7 unknown #
coedge $-1 $582 $304 $580 $583 reversed $449 $-1 #
coedge $-1 $304 $582 $306 $453 forward $449 $-1 #
loop $-1 $-1 $304 $433 #
vertex $-1 $305 $584 #
straight-curve $-1 0 43.913747824228984 8.9236004026052207 -1 0 0 I I #
coedge $-1 $307 $306 $436 $571 reversed $297 $-1 #
edge $-1 $585 -11.923600402605221 $309 -8.9236004026052207 $306 $586 forward 7 unknown #
point $-1 67.958616901150549 35.576084637464369 8.9236004026052207 #
point $-1 67.958616901150549 43.913747824228984 8.9236004026052207 #
plane-surface $-1 0 0 11.923600402605221 0 0 1 1 0 0 forward_v I I I I #
coedge $-1 $467 $466 $459 $587 forward $312 $-1 #
coedge $-1 $459 $314 $316 $463 reversed $188 $-1 #
coedge $-1 $314 $458 $457 $587 reversed $188 $-1 #
coedge $-1 $322 $317 $314 $461 forward $323 $-1 #
edge $-1 $464 -18.347303984290598 $588 -7.8601944165664577 $460 $589 forward 7 unknown #
coedge $-1 $316 $315 $467 $590 reversed $117 $-1 #
edge $-1 $591 1.8033521786330445e-014 $464 13.308333166776633 $458 $592 forward 7 unknown #
vertex $-1 $318 $593 #
straight-curve $-1 -57.471507333426416 -1.8315706649730039 11.923600402605219 0 1 0 I I #
coedge $-1 $457 $319 $322 $471 reversed $312 $-1 #
coedge $-1 $319 $457 $462 $590 forward $312 $-1 #
vertex $-1 $320 $594 #
straight-curve $-1 -67.958616901150549 -7.3262826598920228 55.417206642551065 0 0 1 I I #
straight-curve $-1 -67.958616901150563 -7.3262826598920228 3.7301722682724687 -0.78801074757464917 0 -0.61566148304635926 I I #
edge $-1 $588 -7.1054273576010019e-015 $324 7.3262826598920228 $466 $595 forward 7 unknown #
point $-1 -67.958616901150549 -7.3262826598920228 11.923600402605221 #
point $-1 -57.471507333426409 -7.3262826598920228 11.923600402605221 #
edge $-1 $596 1 $596 0 $327 $-1 forward 7 unknown #
vertex $-1 $328 $597 #
ellipse-curve $-1 -62.099400634242109 -5.8610261279136182 7.0388755878641911 -0.61566148304635926 0 0.78801074757464917 0.39400537378732459 0 0.30783074152317963 1 I I #
point $-1 -62.321056743501146 -5.8610261279136182 8.1347170769620192 #
edge $-1 $598 1 $598 0 $331 $-1 forward 7 unknown #
vertex $-1 $332 $599 #
ellipse-curve $-1 -62.099400634242109 -3.6631413299460078 7.0388755878641911 -0.61566148304635926 0 0.78801074757464917 0.39400537378732459 0 0.30783074152317963 1 I I #
point $-1 -62.321056743501146 -3.6631413299460078 8.1347170769620192 #
edge $-1 $600 1 $600 0 $335 $-1 forward 7 unknown #
vertex $-1 $336 $601 #
ellipse-curve $-1 -62.099400634242109 -1.4652565319783974 7.0388755878641911 -0.61566148304635926 0 0.78801074757464917 0.39400537378732459 0 0.30783074152317963 1 I I #
point $-1 -62.321056743501146 -1.4652565319783974 8.1347170769620192 #
loop $-1 $-1 $346 $339 #
plane-surface $-1 -67.958616901150549 0 0 1 0 0 0 0 -1 forward_v I I I I #
coedge $-1 $602 $603 $343 $490 reversed $340 $-1 #
coedge $-1 $343 $342 $495 $604 reversed $136 $-1 #
edge $-1 $605 1.8033521786330445e-014 $492 13.308333166776633 $488 $606 forward 7 unknown #
coedge $-1 $349 $344 $603 $607 forward $217 $-1 #
vertex $-1 $607 $608 #
straight-curve $-1 -57.471507333426416 15.956471653759177 11.923600402605219 0 1 0 I I #
coedge $-1 $609 $346 $349 $499 reversed $486 $-1 #
coedge $-1 $346 $609 $489 $604 forward $486 $-1 #
vertex $-1 $347 $610 #
straight-curve $-1 -67.958616901150549 28.249801977572339 55.417206642551065 0 0 1 I I #
straight-curve $-1 -67.958616901150563 28.249801977572339 3.7301722682724687 -0.78801074757464917 0 -0.61566148304635926 I I #
edge $-1 $611 -35.576084637464369 $350 -28.249801977572339 $494 $612 forward 7 unknown #
point $-1 -67.958616901150549 28.249801977572339 11.923600402605221 #
point $-1 -57.471507333426409 28.249801977572339 11.923600402605221 #
edge $-1 $613 1 $613 0 $353 $-1 forward 7 unknown #
vertex $-1 $354 $614 #
ellipse-curve $-1 -62.099400634242109 29.715058509550751 7.0388755878641911 -0.61566148304635926 0 0.78801074757464917 0.39400537378732459 0 0.30783074152317963 1 I I #
point $-1 -62.321056743501146 29.715058509550751 8.1347170769620192 #
edge $-1 $615 1 $615 0 $357 $-1 forward 7 unknown #
vertex $-1 $358 $616 #
ellipse-curve $-1 -62.099400634242109 31.912943307518354 7.0388755878641911 -0.61566148304635926 0 0.78801074757464917 0.39400537378732459 0 0.30783074152317963 1 I I #
point $-1 -62.321056743501146 31.912943307518354 8.1347170769620192 #
edge $-1 $617 1 $617 0 $361 $-1 forward 7 unknown #
vertex $-1 $362 $618 #
ellipse-curve $-1 -62.099400634242109 34.110828105485972 7.0388755878641911 -0.61566148304635926 0 0.78801074757464917 0.39400537378732459 0 0.30783074152317963 1 I I #
point $-1 -62.321056743501146 34.110828105485972 8.1347170769620192 #
loop $-1 $-1 $373 $365 #
plane-surface $-1 67.958616901150549 0 0 -1 0 0 0 0 1 forward_v I I I I #
coedge $-1 $517 $368 $370 $521 reversed $246 $-1 #
coedge $-1 $368 $516 $619 $620 reversed $246 $-1 #
coedge $-1 $376 $371 $368 $519 forward $366 $-1 #
edge $-1 $522 35.89816398463698 $621 50.66828625657503 $518 $622 forward 7 unknown #
coedge $-1 $370 $369 $525 $623 reversed $155 $-1 #
edge $-1 $624 -135.9172338023011 $522 -117.88624374588495 $516 $625 forward 7 unknown #
vertex $-1 $372 $626 #
straight-curve $-1 53.188494629212492 9.8189416626826649 11.923600402605224 0 -1 0 I I #
coedge $-1 $619 $373 $376 $529 reversed $514 $-1 #
coedge $-1 $373 $619 $520 $623 forward $514 $-1 #
vertex $-1 $374 $627 #
straight-curve $-1 67.958616901150549 26.210127141886922 95.438626038180729 0 0 1 I I #
straight-curve $-1 -43.378262318591794 26.210127141886922 79.540372856619101 0.81915203911291934 0 -0.57357644374324357 I I #
edge $-1 $621 13.065639508843738 $377 26.210127141886922 $524 $628 forward 7 unknown #
point $-1 67.958616901150549 26.210127141886922 11.923600402605221 #
point $-1 53.188494629212499 26.210127141886922 11.923600402605217 #
edge $-1 $629 1 $629 0 $380 $-1 forward 7 unknown #
vertex $-1 $381 $630 #
ellipse-curve $-1 58.433046268010223 19.63788332536533 3.6955605126572748 0.57357644374324357 0 0.81915203911291934 1.6383040782258387 0 -1.1471528874864871 1 I I #
point $-1 62.211859843407339 19.63788332536533 5.6053719382542564 #
plane-surface $-1 67.958616901150549 0 0 -1 0 0 0 0 1 forward_v I I I I #
coedge $-1 $389 $387 $391 $541 reversed $261 $-1 #
edge $-1 $402 -11.923600402605221 $543 11.923600402605221 $401 $631 forward 7 unknown #
vertex $-1 $541 $632 #
straight-curve $-1 -67.958616901150549 -43.913747824228984 0 0 0 -1 I I #
edge $-1 $539 -43.913747824228984 $543 43.913747824228984 $537 $633 forward 7 unknown #
straight-curve $-1 0 -43.913747824228984 -11.923600402605221 -1 0 0 I I #
vertex $-1 $394 $634 #
straight-curve $-1 0 43.913747824228984 -11.923600402605221 1 0 0 I I #
point $-1 67.958616901150549 43.913747824228984 -11.923600402605221 #
point $-1 67.958616901150549 -43.913747824228984 -11.923600402605221 #
straight-curve $-1 -67.958616901150549 0 11.923600402605221 0 -1 0 I I #
point $-1 -67.958616901150549 43.913747824228984 11.923600402605221 #
point $-1 -67.958616901150549 -43.913747824228984 11.923600402605221 #
straight-curve $-1 67.958616901150549 -43.913747824228984 0 0 0 -1 I I #
straight-curve $-1 67.958616901150549 43.913747824228984 0 0 0 -1 I I #
plane-surface $-1 67.958616901150549 0 0 -1 0 0 0 0 1 forward_v I I I I #
coedge $-1 $415 $414 $425 $564 reversed $172 $-1 #
coedge $-1 $635 $418 $415 $555 forward $412 $-1 #
edge $-1 $556 35.576084637464369 $636 43.913747824228984 $415 $637 forward 7 unknown #
vertex $-1 $555 $638 #
straight-curve $-1 -67.958616901150549 -35.576084637464369 5.2118002013026103 0 0 -1 I I #
coedge $-1 $418 $635 $420 $560 forward $412 $-1 #
straight-curve $-1 0 -35.576084637464369 11.923600402605221 -1 0 0 I I #
edge $-1 $567 -43.913747824228984 $421 -35.576084637464369 $420 $639 forward 7 unknown #
point $-1 67.958616901150549 -35.576084637464369 11.923600402605221 #
straight-curve $-1 -67.958616901150549 -19.872458115423338 8.9236004026052207 0 -1 0 I I #
coedge $-1 $425 $424 $635 $640 reversed $280 $-1 #
edge $-1 $636 -11.923600402605221 $426 -8.9236004026052207 $553 $641 forward 7 unknown #
point $-1 -67.958616901150549 -43.913747824228984 8.9236004026052207 #
point $-1 -67.958616901150549 -35.576084637464369 8.9236004026052207 #
vertex $-1 $560 $642 #
straight-curve $-1 67.958616901150549 -43.913747824228984 0 0 0 -1 I I #
plane-surface $-1 0 43.913747824228984 0 0 -1 0 0 0 -1 forward_v I I I I #
coedge $-1 $437 $436 $582 $643 forward $180 $-1 #
edge $-1 $575 35.576084637464369 $585 43.913747824228984 $452 $644 forward 7 unknown #
coedge $-1 $580 $441 $437 $573 reversed $434 $-1 #
edge $-1 $645 -43.913747824228984 $574 -35.576084637464369 $572 $646 forward 7 unknown #
vertex $-1 $442 $647 #
vertex $-1 $571 $648 #
straight-curve $-1 0 35.576084637464369 11.923600402605221 1 0 0 I I #
straight-curve $-1 67.958616901150549 35.576084637464369 5.2118002013026103 0 0 -1 I I #
straight-curve $-1 -67.958616901150549 35.576084637464369 5.2118002013026103 0 0 1 I I #
point $-1 -67.958616901150549 35.576084637464369 8.9236004026052207 #
coedge $-1 $445 $572 $447 $583 forward $434 $-1 #
straight-curve $-1 -67.958616901150549 19.872458115423338 8.9236004026052207 0 -1 0 I I #
coedge $-1 $448 $447 $570 $643 reversed $449 $-1 #
edge $-1 $645 -11.923600402605221 $450 -8.9236004026052207 $447 $649 forward 7 unknown #
point $-1 -67.958616901150549 43.913747824228984 8.9236004026052207 #
vertex $-1 $571 $650 #
straight-curve $-1 67.958616901150549 43.913747824228984 0 0 0 -1 I I #
edge $-1 $588 43.493606239945848 $591 51.687034374278582 $457 $651 forward 7 unknown #
vertex $-1 $471 $652 #
straight-curve $-1 -75.818811317717007 7.1054273576010019e-015 11.923600402605217 -1 0 0 I I #
edge $-1 $591 -1.831570664973011 $468 5.4947119949190188 $467 $653 forward 7 unknown #
vertex $-1 $590 $654 #
straight-curve $-1 -67.958616901150563 7.1054273576010019e-015 3.7301722682724687 0.78801074757464917 0 0.61566148304635926 I I #
point $-1 -57.471507333426409 7.1054273576010019e-015 11.923600402605221 #
point $-1 -67.958616901150549 -7.3262826598920228 3.7301722682724798 #
straight-curve $-1 -67.958616901150549 0 11.923600402605221 0 -1 0 I I #
vertex $-1 $474 $655 #
point $-1 -61.705395260454786 -5.8610261279136182 7.3467063293873709 #
vertex $-1 $478 $656 #
point $-1 -61.705395260454786 -3.6631413299460078 7.3467063293873709 #
vertex $-1 $482 $657 #
point $-1 -61.705395260454786 -1.4652565319783974 7.3467063293873709 #
coedge $-1 $603 $488 $609 $658 reversed $340 $-1 #
coedge $-1 $488 $602 $491 $607 reversed $340 $-1 #
edge $-1 $605 -19.619612983705192 $496 -12.293330323813162 $495 $659 forward 7 unknown #
vertex $-1 $658 $660 #
straight-curve $-1 -67.958616901150563 35.576084637464369 3.7301722682724687 0.78801074757464917 0 0.61566148304635926 I I #
edge $-1 $492 57.471507333426409 $611 67.958616901150549 $491 $661 forward 7 unknown #
point $-1 -57.471507333426409 35.576084637464369 11.923600402605221 #
coedge $-1 $495 $494 $602 $658 forward $486 $-1 #
point $-1 -67.958616901150549 28.249801977572339 3.7301722682724798 #
vertex $-1 $499 $662 #
straight-curve $-1 -67.958616901150549 0 11.923600402605221 0 -1 0 I I #
vertex $-1 $502 $663 #
point $-1 -61.705395260454786 29.715058509550751 7.3467063293873709 #
vertex $-1 $506 $664 #
point $-1 -61.705395260454786 31.912943307518354 7.3467063293873709 #
vertex $-1 $510 $665 #
point $-1 -61.705395260454786 34.110828105485972 7.3467063293873709 #
coedge $-1 $525 $524 $517 $620 forward $514 $-1 #
edge $-1 $621 83.515025635575512 $624 93.857176789304461 $619 $666 forward 7 unknown #
vertex $-1 $529 $667 #
straight-curve $-1 17.290330644575519 13.065639508843738 11.923600402605217 1 0 0 I I #
edge $-1 $624 3.2466978461610729 $526 16.391185479204257 $525 $668 forward 7 unknown #
vertex $-1 $623 $669 #
straight-curve $-1 -43.378262318591794 13.065639508843738 79.540372856619101 -0.81915203911291934 0 0.57357644374324357 I I #
point $-1 53.188494629212499 13.065639508843738 11.923600402605217 #
point $-1 67.958616901150563 26.210127141886922 1.5814492488762681 #
straight-curve $-1 67.958616901150549 0 11.923600402605221 0 1 0 I I #
vertex $-1 $532 $670 #
point $-1 60.071350346236059 19.63788332536533 2.5484076251707877 #
straight-curve $-1 -67.958616901150549 43.913747824228984 0 0 0 -1 I I #
point $-1 -67.958616901150549 -43.913747824228984 -11.923600402605221 #
straight-curve $-1 -67.958616901150549 0 -11.923600402605221 0 1 0 I I #
point $-1 -67.958616901150549 43.913747824228984 -11.923600402605221 #
coedge $-1 $558 $554 $563 $640 forward $412 $-1 #
vertex $-1 $555 $671 #
straight-curve $-1 -67.958616901150549 0 11.923600402605221 0 -1 0 I I #
point $-1 -67.958616901150549 -35.576084637464369 11.923600402605221 #
straight-curve $-1 67.958616901150549 0 11.923600402605221 0 1 0 I I #
edge $-1 $636 -67.958616901150549 $567 67.958616901150549 $563 $672 forward 7 unknown #
straight-curve $-1 -67.958616901150549 -43.913747824228984 0 0 0 -1 I I #
point $-1 67.958616901150549 -43.913747824228984 11.923600402605221 #
edge $-1 $585 -67.958616901150549 $645 67.958616901150549 $582 $673 forward 7 unknown #
straight-curve $-1 67.958616901150549 0 11.923600402605221 0 1 0 I I #
vertex $-1 $643 $674 #
straight-curve $-1 -67.958616901150549 0 11.923600402605221 0 -1 0 I I #
point $-1 -67.958616901150549 35.576084637464369 11.923600402605221 #
point $-1 67.958616901150549 35.576084637464369 11.923600402605221 #
straight-curve $-1 -67.958616901150549 43.913747824228984 0 0 0 -1 I I #
point $-1 67.958616901150549 43.913747824228984 11.923600402605221 #
straight-curve $-1 -67.958616901150549 7.1054273576010019e-015 55.417206642551065 0 0 -1 I I #
point $-1 -67.958616901150549 7.1054273576010019e-015 11.923600402605221 #
straight-curve $-1 -67.958616901150549 -1.8315706649730039 3.7301722682724692 0 -1 0 I I #
point $-1 -67.958616901150549 7.1054273576010019e-015 3.7301722682724798 #
point $-1 -61.791569892718933 -5.8610261279136182 6.6448702140768665 #
point $-1 -61.791569892718933 -3.6631413299460078 6.6448702140768665 #
point $-1 -61.791569892718933 -1.4652565319783974 6.6448702140768665 #
edge $-1 $611 43.493606239945848 $605 51.687034374278582 $609 $675 forward 7 unknown #
straight-curve $-1 -67.958616901150549 15.956471653759177 3.7301722682724692 0 -1 0 I I #
point $-1 -67.958616901150549 35.576084637464369 3.7301722682724798 #
straight-curve $-1 0 35.576084637464369 11.923600402605221 -1 0 0 I I #
point $-1 -67.958616901150549 35.576084637464369 11.923600402605221 #
point $-1 -61.791569892718933 29.715058509550751 6.6448702140768665 #
point $-1 -61.791569892718933 31.912943307518354 6.6448702140768665 #
point $-1 -61.791569892718933 34.110828105485972 6.6448702140768665 #
straight-curve $-1 67.958616901150549 13.065639508843738 95.438626038180729 0 0 -1 I I #
point $-1 67.958616901150549 13.065639508843738 11.923600402605221 #
straight-curve $-1 67.958616901150549 9.8189416626826649 1.5814492488762681 0 1 0 I I #
point $-1 67.958616901150563 13.065639508843738 1.5814492488762681 #
point $-1 57.285893380523738 19.63788332536533 2.0572564344314359 #
point $-1 -67.958616901150549 -43.913747824228984 11.923600402605221 #
straight-curve $-1 0 -43.913747824228984 11.923600402605221 1 0 0 I I #
straight-curve $-1 0 43.913747824228984 11.923600402605221 -1 0 0 I I #
point $-1 -67.958616901150549 43.913747824228984 11.923600402605221 #
straight-curve $-1 -67.958616901150549 35.576084637464369 55.417206642551065 0 0 -1 I I #
End-of-ACIS-data 