500 0 10 0           
7 Unknown 11 ACIS 5.0 NT 24 Thu Mar 25 20:50:18 1999 
-1 9.9999999999999995e-007 1e-010 
body $-1 $10 $-1 $11 #
body $-1 $12 $-1 $13 #
body $-1 $14 $-1 $15 #
body $-1 $16 $-1 $17 #
body $-1 $18 $-1 $19 #
body $-1 $20 $-1 $21 #
body $-1 $22 $-1 $23 #
body $-1 $24 $-1 $25 #
body $-1 $26 $-1 $27 #
body $-1 $28 $-1 $29 #
lump $-1 $-1 $30 $0 #
transform $-1 1 0 0 0 1 0 0 0 1 45.693533127842038 29.707559850937528 10.281642582157568 1 rotate no_reflect no_shear #
lump $-1 $-1 $31 $1 #
transform $-1 1 0 0 0 1 0 0 0 1 45.693533127842038 29.707559850937528 10.281642582157568 1 rotate no_reflect no_shear #
lump $-1 $-1 $32 $2 #
transform $-1 1 0 0 0 1 0 0 0 1 45.693533127842038 29.707559850937528 10.281642582157568 1 rotate no_reflect no_shear #
lump $-1 $-1 $33 $3 #
transform $-1 1 0 0 0 1 0 0 0 1 45.693533127842038 29.707559850937528 10.281642582157568 1 rotate no_reflect no_shear #
lump $-1 $-1 $34 $4 #
transform $-1 1 0 0 0 1 0 0 0 1 45.693533127842038 29.707559850937528 10.281642582157568 1 rotate no_reflect no_shear #
lump $-1 $-1 $35 $5 #
transform $-1 1 0 0 0 1 0 0 0 1 45.693533127842038 29.707559850937528 10.281642582157568 1 rotate no_reflect no_shear #
lump $-1 $-1 $36 $6 #
transform $-1 1 0 0 0 1 0 0 0 1 45.693533127842038 29.707559850937528 10.281642582157568 1 rotate no_reflect no_shear #
lump $-1 $-1 $37 $7 #
transform $-1 1 0 0 0 1 0 0 0 1 45.693533127842038 29.707559850937528 10.281642582157568 1 rotate no_reflect no_shear #
lump $-1 $-1 $38 $8 #
transform $-1 1 0 0 0 1 0 0 0 1 45.693533127842038 29.707559850937528 10.281642582157568 1 rotate no_reflect no_shear #
lump $-1 $-1 $39 $9 #
transform $-1 1 0 0 0 1 0 0 0 1 45.693533127842038 29.707559850937528 10.281642582157568 1 rotate no_reflect no_shear #
shell $-1 $-1 $-1 $40 $-1 $10 #
shell $-1 $-1 $-1 $41 $-1 $12 #
shell $-1 $-1 $-1 $42 $-1 $14 #
shell $-1 $-1 $-1 $43 $-1 $16 #
shell $-1 $-1 $-1 $44 $-1 $18 #
shell $-1 $-1 $-1 $45 $-1 $20 #
shell $-1 $-1 $-1 $46 $-1 $22 #
shell $-1 $-1 $-1 $47 $-1 $24 #
shell $-1 $-1 $-1 $48 $-1 $26 #
shell $-1 $-1 $-1 $49 $-1 $28 #
face $-1 $50 $51 $30 $-1 $52 forward single #
face $-1 $53 $54 $31 $-1 $55 forward single #
face $-1 $56 $57 $32 $-1 $58 reversed single #
face $-1 $59 $60 $33 $-1 $61 forward single #
face $-1 $62 $63 $34 $-1 $64 forward single #
face $-1 $65 $66 $35 $-1 $67 reversed single #
face $-1 $68 $69 $36 $-1 $70 forward single #
face $-1 $71 $72 $37 $-1 $73 forward single #
face $-1 $74 $75 $38 $-1 $76 reversed single #
face $-1 $77 $78 $39 $-1 $79 forward single #
face $-1 $80 $81 $30 $-1 $82 reversed single #
loop $-1 $-1 $83 $40 #
plane-surface $-1 0 0 10.281642582157568 0 0 1 1 0 0 forward_v I I I I #
face $-1 $84 $85 $31 $-1 $86 forward single #
loop $-1 $-1 $87 $41 #
plane-surface $-1 0 -29.707559850937528 0 0 1 0 0 0 1 forward_v I I I I #
face $-1 $88 $89 $32 $-1 $90 reversed single #
loop $-1 $-1 $91 $42 #
plane-surface $-1 72.564214166902502 1.5529983710090463 131.99511705902296 0 -1 0 -0.83867057594974714 0 -0.54463902268945019 forward_v I I I I #
face $-1 $92 $93 $33 $-1 $94 forward single #
loop $-1 $95 $96 $43 #
cone-surface $-1 43.000455001001008 -4.6265050846336564 7.1728977958047349 -0.83867057594974714 0 -0.54463902268945019 0.54463902268945019 0 -0.83867057594974714 1 I I 0 1 1 forward I I I I #
face $-1 $97 $98 $34 $-1 $99 forward single #
loop $-1 $100 $101 $44 #
cone-surface $-1 43.000455001001008 -0.91880301124803054 7.1728977958047349 -0.83867057594974714 0 -0.54463902268945019 0.54463902268945019 0 -0.83867057594974714 1 I I 0 1 1 forward I I I I #
face $-1 $102 $103 $35 $-1 $104 reversed single #
loop $-1 $-1 $105 $45 #
plane-surface $-1 72.564214166902502 24.571491062170487 131.99511705902296 0 -1 0 -0.83867057594974714 0 -0.54463902268945019 forward_v I I I I #
face $-1 $106 $107 $36 $-1 $108 forward single #
loop $-1 $109 $110 $46 #
cone-surface $-1 43.000455001001008 18.391987606527792 7.1728977958047349 -0.83867057594974714 0 -0.54463902268945019 0.54463902268945019 0 -0.83867057594974714 1 I I 0 1 1 forward I I I I #
face $-1 $111 $112 $37 $-1 $113 forward single #
loop $-1 $114 $115 $47 #
cone-surface $-1 43.000455001001008 22.099689679913411 7.1728977958047349 -0.83867057594974714 0 -0.54463902268945019 0.54463902268945019 0 -0.83867057594974714 1 I I 0 1 1 forward I I I I #
face $-1 $116 $117 $38 $-1 $118 reversed single #
loop $-1 $-1 $119 $48 #
plane-surface $-1 -111.43188787467133 17.843814926766456 64.107908328739839 0 1 0 -0.71933980857756763 0 0.69465836192734942 forward_v I I I I #
face $-1 $120 $121 $39 $-1 $122 forward single #
loop $-1 $123 $124 $49 #
cone-surface $-1 -39.697559116396228 23.775687388851992 4.1657546599814204 0.71933980857756763 0 -0.69465836192734942 1.0419875428910241 0 1.0790097128663514 1 I I 0 1 1.5 forward I I I I #
face $-1 $125 $126 $30 $-1 $127 reversed single #
loop $-1 $-1 $128 $50 #
plane-surface $-1 0 0 -10.281642582157568 0 0 1 1 0 0 forward_v I I I I #
coedge $-1 $129 $130 $131 $132 forward $51 $-1 #
face $-1 $133 $134 $31 $-1 $135 reversed single #
loop $-1 $-1 $136 $53 #
plane-surface $-1 0 0 10.281642582157568 0 0 1 1 0 0 forward_v I I I I #
coedge $-1 $137 $138 $139 $140 forward $54 $-1 #
face $-1 $141 $142 $32 $-1 $143 reversed single #
loop $-1 $-1 $144 $56 #
plane-surface $-1 -4.0794293241097819 -2.772654047940847 82.222154607071147 0.83867057594974714 0 0.54463902268945019 0.54463902268945019 0 -0.83867057594974714 forward_v I I I I #
coedge $-1 $145 $146 $147 $148 reversed $57 $-1 #
face $-1 $-1 $149 $33 $-1 $150 forward single #
loop $-1 $151 $152 $59 #
cone-surface $-1 41.415166179995502 -4.6265050846336564 6.1433992311565273 -0.83867057594974714 0 -0.54463902268945019 0.2723195113447251 0 -0.41933528797487357 1 I I -0.70710678118654746 0.70710678118654746 0.5 forward I I I I #
loop $-1 $-1 $153 $43 #
coedge $-1 $96 $96 $154 $155 reversed $60 $-1 #
face $-1 $-1 $156 $34 $-1 $157 forward single #
loop $-1 $158 $159 $62 #
cone-surface $-1 41.415166179995502 -0.91880301124803054 6.1433992311565273 -0.83867057594974714 0 -0.54463902268945019 0.2723195113447251 0 -0.41933528797487357 1 I I -0.70710678118654746 0.70710678118654746 0.5 forward I I I I #
loop $-1 $-1 $160 $44 #
coedge $-1 $101 $101 $161 $162 reversed $63 $-1 #
face $-1 $163 $164 $35 $-1 $165 reversed single #
loop $-1 $-1 $166 $65 #
plane-surface $-1 -4.0794293241097819 20.245838643220594 82.222154607071147 0.83867057594974714 0 0.54463902268945019 0.54463902268945019 0 -0.83867057594974714 forward_v I I I I #
coedge $-1 $167 $168 $169 $170 reversed $66 $-1 #
face $-1 $-1 $171 $36 $-1 $172 forward single #
loop $-1 $173 $174 $68 #
cone-surface $-1 41.415166179995502 18.391987606527792 6.1433992311565273 -0.83867057594974714 0 -0.54463902268945019 0.2723195113447251 0 -0.41933528797487357 1 I I -0.70710678118654746 0.70710678118654746 0.5 forward I I I I #
loop $-1 $-1 $175 $46 #
coedge $-1 $110 $110 $176 $177 reversed $69 $-1 #
face $-1 $-1 $178 $37 $-1 $179 forward single #
loop $-1 $180 $181 $71 #
cone-surface $-1 41.415166179995502 22.099689679913411 6.1433992311565273 -0.83867057594974714 0 -0.54463902268945019 0.2723195113447251 0 -0.41933528797487357 1 I I -0.70710678118654746 0.70710678118654746 0.5 forward I I I I #
loop $-1 $-1 $182 $47 #
coedge $-1 $115 $115 $183 $184 reversed $72 $-1 #
face $-1 $185 $186 $38 $-1 $187 forward single #
loop $-1 $-1 $188 $74 #
plane-surface $-1 -45.693533127842059 23.775687388851992 0.62511858222018901 -0.71933980857756763 0 0.69465836192734942 0.69465836192734942 0 0.71933980857756763 forward_v I I I I #
coedge $-1 $189 $190 $191 $192 reversed $75 $-1 #
face $-1 $-1 $193 $39 $-1 $194 forward single #
loop $-1 $195 $196 $77 #
cone-surface $-1 -37.824678553046709 23.775687388851992 2.3571349663284469 0.71933980857756763 0 -0.69465836192734942 0.52099377144551207 0 0.53950485643317569 1 I I -0.70710678118654757 0.70710678118654757 0.75 forward I I I I #
loop $-1 $-1 $197 $49 #
coedge $-1 $124 $124 $198 $199 reversed $78 $-1 #
face $-1 $200 $201 $30 $-1 $202 reversed single #
loop $-1 $-1 $203 $80 #
plane-surface $-1 0 -29.707559850937528 0 0 1 0 0 0 1 forward_v I I I I #
coedge $-1 $204 $205 $206 $207 forward $81 $-1 #
coedge $-1 $208 $83 $209 $210 forward $51 $-1 #
coedge $-1 $83 $208 $211 $212 forward $51 $-1 #
coedge $-1 $213 $214 $83 $132 reversed $215 $-1 #
edge $-1 $216 -29.707559850937528 $217 29.707559850937528 $131 $218 forward 7 unknown #
face $-1 $219 $220 $31 $-1 $221 reversed single #
loop $-1 $-1 $222 $84 #
plane-surface $-1 -45.693533127842038 0 0 1 0 0 0 0 -1 forward_v I I I I #
coedge $-1 $223 $224 $225 $226 forward $85 $-1 #
coedge $-1 $225 $87 $222 $227 reversed $54 $-1 #
coedge $-1 $87 $225 $228 $229 reversed $54 $-1 #
coedge $-1 $230 $231 $87 $140 reversed $220 $-1 #
edge $-1 $232 -45.693533127842038 $233 45.693533127842038 $139 $234 forward 7 unknown #
face $-1 $235 $236 $32 $-1 $237 reversed single #
loop $-1 $-1 $238 $88 #
plane-surface $-1 72.564214166902502 -7.0983064668907403 131.99511705902296 0 1 0 0.83867057594974714 0 0.54463902268945019 forward_v I I I I #
coedge $-1 $239 $240 $241 $242 reversed $89 $-1 #
coedge $-1 $146 $91 $243 $244 reversed $57 $-1 #
coedge $-1 $91 $145 $239 $245 reversed $57 $-1 #
coedge $-1 $241 $246 $91 $148 forward $247 $-1 #
edge $-1 $248 -9.4114260443907867 $249 -6.3571768567699678 $147 $250 forward 7 unknown #
loop $-1 $-1 $154 $92 #
plane-surface $-1 -4.0794293241097819 -2.772654047940847 82.222154607071147 0.83867057594974714 0 0.54463902268945019 0.54463902268945019 0 -0.83867057594974714 forward_v I I I I #
loop $-1 $-1 $251 $59 #
coedge $-1 $152 $152 $153 $252 reversed $93 $-1 #
coedge $-1 $153 $153 $152 $252 forward $95 $-1 #
coedge $-1 $154 $154 $96 $155 forward $149 $-1 #
edge $-1 $253 0 $253 6.2831853071796004 $154 $254 forward 7 unknown #
loop $-1 $-1 $161 $97 #
plane-surface $-1 -4.0794293241097819 -2.772654047940847 82.222154607071147 0.83867057594974714 0 0.54463902268945019 0.54463902268945019 0 -0.83867057594974714 forward_v I I I I #
loop $-1 $-1 $255 $62 #
coedge $-1 $159 $159 $160 $256 reversed $98 $-1 #
coedge $-1 $160 $160 $159 $256 forward $100 $-1 #
coedge $-1 $161 $161 $101 $162 forward $156 $-1 #
edge $-1 $257 0 $257 6.2831853071796004 $161 $258 forward 7 unknown #
face $-1 $259 $260 $35 $-1 $261 reversed single #
loop $-1 $-1 $262 $102 #
plane-surface $-1 72.564214166902502 15.920186224270701 131.99511705902296 0 1 0 0.83867057594974714 0 0.54463902268945019 forward_v I I I I #
coedge $-1 $263 $264 $265 $266 reversed $103 $-1 #
coedge $-1 $168 $105 $267 $268 reversed $66 $-1 #
coedge $-1 $105 $167 $263 $269 reversed $66 $-1 #
coedge $-1 $265 $270 $105 $170 forward $271 $-1 #
edge $-1 $272 -9.4114260443907867 $273 -6.3571768567699678 $169 $274 forward 7 unknown #
loop $-1 $-1 $176 $106 #
plane-surface $-1 -4.0794293241097819 20.245838643220594 82.222154607071147 0.83867057594974714 0 0.54463902268945019 0.54463902268945019 0 -0.83867057594974714 forward_v I I I I #
loop $-1 $-1 $275 $68 #
coedge $-1 $174 $174 $175 $276 reversed $107 $-1 #
coedge $-1 $175 $175 $174 $276 forward $109 $-1 #
coedge $-1 $176 $176 $110 $177 forward $171 $-1 #
edge $-1 $277 0 $277 6.2831853071796004 $176 $278 forward 7 unknown #
loop $-1 $-1 $183 $111 #
plane-surface $-1 -4.0794293241097819 20.245838643220594 82.222154607071147 0.83867057594974714 0 0.54463902268945019 0.54463902268945019 0 -0.83867057594974714 forward_v I I I I #
loop $-1 $-1 $279 $71 #
coedge $-1 $181 $181 $182 $280 reversed $112 $-1 #
coedge $-1 $182 $182 $181 $280 forward $114 $-1 #
coedge $-1 $183 $183 $115 $184 forward $178 $-1 #
edge $-1 $281 0 $281 6.2831853071796004 $183 $282 forward 7 unknown #
face $-1 $283 $284 $38 $-1 $285 reversed single #
loop $-1 $-1 $191 $116 #
plane-surface $-1 0 0 10.281642582157568 0 0 1 1 0 0 forward_v I I I I #
coedge $-1 $286 $287 $288 $289 reversed $117 $-1 #
coedge $-1 $190 $119 $290 $291 reversed $75 $-1 #
coedge $-1 $119 $189 $286 $292 reversed $75 $-1 #
coedge $-1 $288 $293 $119 $192 forward $186 $-1 #
edge $-1 $294 10.022410809493628 $295 19.347607418552542 $191 $296 forward 7 unknown #
loop $-1 $-1 $198 $120 #
plane-surface $-1 -45.693533127842059 23.775687388851992 0.62511858222018901 -0.71933980857756763 0 0.69465836192734942 0.69465836192734942 0 0.71933980857756763 forward_v I I I I #
loop $-1 $-1 $297 $77 #
coedge $-1 $196 $196 $197 $298 reversed $121 $-1 #
coedge $-1 $197 $197 $196 $298 forward $123 $-1 #
coedge $-1 $198 $198 $124 $199 forward $193 $-1 #
edge $-1 $299 0 $299 6.2831853071796004 $198 $300 forward 7 unknown #
face $-1 $301 $302 $30 $-1 $303 reversed single #
loop $-1 $-1 $304 $125 #
plane-surface $-1 -45.693533127842038 0 0 1 0 0 0 0 -1 forward_v I I I I #
coedge $-1 $305 $211 $306 $307 forward $126 $-1 #
coedge $-1 $308 $128 $305 $309 forward $81 $-1 #
coedge $-1 $128 $308 $310 $311 forward $81 $-1 #
coedge $-1 $214 $213 $128 $207 reversed $215 $-1 #
edge $-1 $312 -29.707559850937528 $313 29.707559850937528 $206 $314 forward 7 unknown #
coedge $-1 $130 $129 $315 $316 forward $51 $-1 #
coedge $-1 $317 $318 $129 $210 reversed $302 $-1 #
edge $-1 $217 -45.693533127842038 $319 45.693533127842038 $209 $320 forward 7 unknown #
coedge $-1 $203 $321 $130 $212 reversed $126 $-1 #
edge $-1 $322 -45.693533127842038 $216 45.693533127842038 $211 $323 forward 7 unknown #
coedge $-1 $206 $131 $321 $324 forward $215 $-1 #
coedge $-1 $131 $206 $317 $325 reversed $215 $-1 #
loop $-1 $-1 $213 $301 #
vertex $-1 $132 $326 #
vertex $-1 $132 $327 #
straight-curve $-1 45.693533127842038 0 10.281642582157568 0 1 0 I I #
face $-1 $328 $329 $31 $-1 $330 reversed single #
loop $-1 $-1 $230 $133 #
plane-surface $-1 0 -36.396627010713615 4.1626108735893528 0 0 1 1 0 0 forward_v I I I I #
coedge $-1 $331 $332 $137 $227 forward $134 $-1 #
coedge $-1 $333 $136 $332 $334 forward $85 $-1 #
coedge $-1 $136 $333 $335 $336 forward $85 $-1 #
coedge $-1 $138 $137 $136 $226 reversed $54 $-1 #
edge $-1 $337 -45.693533127842038 $338 45.693533127842038 $136 $339 forward 7 unknown #
edge $-1 $338 -10.281642582157568 $233 -4.1626108735893528 $222 $340 forward 7 unknown #
coedge $-1 $335 $341 $138 $229 forward $342 $-1 #
edge $-1 $232 4.1626108735893528 $337 10.281642582157568 $228 $343 forward 7 unknown #
coedge $-1 $344 $139 $341 $345 forward $220 $-1 #
coedge $-1 $139 $344 $331 $346 forward $220 $-1 #
vertex $-1 $229 $347 #
vertex $-1 $227 $348 #
straight-curve $-1 0 -29.707559850937528 4.1626108735893528 -1 0 0 I I #
face $-1 $-1 $247 $32 $-1 $349 forward single #
loop $-1 $-1 $350 $141 #
plane-surface $-1 45.693533127842038 0 0 -1 0 0 0 0 1 forward_v I I I I #
coedge $-1 $351 $352 $353 $354 reversed $142 $-1 #
coedge $-1 $355 $144 $146 $245 forward $89 $-1 #
coedge $-1 $144 $355 $351 $356 forward $89 $-1 #
coedge $-1 $353 $147 $144 $242 forward $247 $-1 #
edge $-1 $249 -2.9393253949794698 $357 5.7119794429203168 $241 $358 forward 7 unknown #
coedge $-1 $359 $360 $145 $244 forward $236 $-1 #
edge $-1 $361 -60.419047413452617 $248 -55.715915947353913 $243 $362 forward 7 unknown #
edge $-1 $249 85.779224987647865 $361 91.387066255684104 $146 $363 forward 7 unknown #
coedge $-1 $147 $353 $359 $364 forward $247 $-1 #
loop $-1 $-1 $353 $235 #
vertex $-1 $244 $365 #
vertex $-1 $148 $366 #
straight-curve $-1 36.282107083451251 1.5529983710090463 10.281642582157566 -1 0 0 I I #
coedge $-1 $251 $251 $-1 $367 reversed $151 $-1 #
edge $-1 $368 0 $368 6.2831853071796004 $152 $369 forward 7 unknown #
vertex $-1 $155 $370 #
ellipse-curve $-1 44.166408534031632 -4.6265050846336564 7.930076849108211 0.83867057594974714 0 0.54463902268945019 0.54463902268945019 0 -0.83867057594974714 1 I I #
coedge $-1 $255 $255 $-1 $371 reversed $158 $-1 #
edge $-1 $372 0 $372 6.2831853071796004 $159 $373 forward 7 unknown #
vertex $-1 $162 $374 #
ellipse-curve $-1 44.166408534031632 -0.91880301124803054 7.930076849108211 0.83867057594974714 0 0.54463902268945019 0.54463902268945019 0 -0.83867057594974714 1 I I #
face $-1 $-1 $271 $35 $-1 $375 forward single #
loop $-1 $-1 $376 $163 #
plane-surface $-1 45.693533127842038 0 0 -1 0 0 0 0 1 forward_v I I I I #
coedge $-1 $377 $378 $379 $380 reversed $164 $-1 #
coedge $-1 $381 $166 $168 $269 forward $103 $-1 #
coedge $-1 $166 $381 $377 $382 forward $103 $-1 #
coedge $-1 $379 $169 $166 $266 forward $271 $-1 #
edge $-1 $273 -14.44857174056019 $383 -5.7972669026604038 $265 $384 forward 7 unknown #
coedge $-1 $385 $386 $167 $268 forward $260 $-1 #
edge $-1 $387 -60.419047413452617 $272 -55.715915947353913 $267 $388 forward 7 unknown #
edge $-1 $273 85.779224987647865 $387 91.387066255684104 $168 $389 forward 7 unknown #
coedge $-1 $169 $379 $385 $390 forward $271 $-1 #
loop $-1 $-1 $379 $259 #
vertex $-1 $268 $391 #
vertex $-1 $170 $392 #
straight-curve $-1 36.282107083451251 24.571491062170487 10.281642582157566 -1 0 0 I I #
coedge $-1 $275 $275 $-1 $393 reversed $173 $-1 #
edge $-1 $394 0 $394 6.2831853071796004 $174 $395 forward 7 unknown #
vertex $-1 $177 $396 #
ellipse-curve $-1 44.166408534031632 18.391987606527792 7.930076849108211 0.83867057594974714 0 0.54463902268945019 0.54463902268945019 0 -0.83867057594974714 1 I I #
coedge $-1 $279 $279 $-1 $397 reversed $180 $-1 #
edge $-1 $398 0 $398 6.2831853071796004 $181 $399 forward 7 unknown #
vertex $-1 $184 $400 #
ellipse-curve $-1 44.166408534031632 22.099689679913411 7.930076849108211 0.83867057594974714 0 0.54463902268945019 0.54463902268945019 0 -0.83867057594974714 1 I I #
face $-1 $-1 $401 $38 $-1 $402 reversed single #
loop $-1 $-1 $403 $185 #
plane-surface $-1 0 29.707559850937528 0 0 -1 0 0 0 -1 forward_v I I I I #
coedge $-1 $404 $188 $190 $292 forward $117 $-1 #
coedge $-1 $188 $404 $403 $405 reversed $117 $-1 #
coedge $-1 $406 $191 $188 $289 forward $186 $-1 #
edge $-1 $295 5.9559712323404597 $407 17.819716156511532 $288 $408 forward 7 unknown #
coedge $-1 $409 $410 $189 $291 forward $401 $-1 #
edge $-1 $411 -31.428835582149709 $294 -21.772311582212353 $290 $412 forward 7 unknown #
edge $-1 $295 -13.424147926738996 $411 -3.07002231855188e-014 $190 $413 forward 7 unknown #
coedge $-1 $191 $406 $409 $414 forward $186 $-1 #
vertex $-1 $291 $415 #
vertex $-1 $192 $416 #
straight-curve $-1 -55.715943937335666 17.843814926766456 10.281642582157566 1 0 0 I I #
coedge $-1 $297 $297 $-1 $417 reversed $195 $-1 #
edge $-1 $418 0 $418 6.2831853071796004 $196 $419 forward 7 unknown #
vertex $-1 $199 $420 #
ellipse-curve $-1 -41.030934823312577 23.775687388851992 5.4533805821888901 -0.71933980857756763 0 0.69465836192734942 1.0419875428910241 0 1.0790097128663514 1 I I #
face $-1 $-1 $215 $30 $-1 $421 reversed single #
loop $-1 $-1 $317 $200 #
plane-surface $-1 0 29.707559850937528 0 0 -1 0 0 0 -1 forward_v I I I I #
coedge $-1 $422 $315 $318 $423 forward $201 $-1 #
coedge $-1 $321 $203 $204 $309 reversed $126 $-1 #
coedge $-1 $315 $422 $203 $307 reversed $201 $-1 #
edge $-1 $322 -10.281642582157568 $424 10.281642582157568 $306 $425 forward 7 unknown #
coedge $-1 $205 $204 $422 $426 forward $81 $-1 #
edge $-1 $313 -45.693533127842038 $424 45.693533127842038 $305 $427 forward 7 unknown #
coedge $-1 $318 $317 $205 $311 reversed $302 $-1 #
edge $-1 $428 -45.693533127842038 $312 45.693533127842038 $310 $429 forward 7 unknown #
vertex $-1 $207 $430 #
vertex $-1 $324 $431 #
straight-curve $-1 45.693533127842038 0 -10.281642582157568 0 -1 0 I I #
coedge $-1 $304 $306 $208 $316 reversed $201 $-1 #
edge $-1 $319 -29.707559850937528 $322 29.707559850937528 $315 $432 forward 7 unknown #
coedge $-1 $310 $209 $214 $325 forward $302 $-1 #
coedge $-1 $209 $310 $304 $423 reversed $302 $-1 #
vertex $-1 $210 $433 #
straight-curve $-1 0 29.707559850937528 10.281642582157568 -1 0 0 I I #
coedge $-1 $211 $305 $213 $324 reversed $126 $-1 #
vertex $-1 $316 $434 #
straight-curve $-1 0 -29.707559850937528 10.281642582157568 1 0 0 I I #
edge $-1 $216 -10.281642582157568 $313 10.281642582157568 $213 $435 forward 7 unknown #
edge $-1 $217 -10.281642582157568 $312 10.281642582157568 $214 $436 forward 7 unknown #
point $-1 45.693533127842038 -29.707559850937528 10.281642582157568 #
point $-1 45.693533127842038 29.707559850937528 10.281642582157568 #
face $-1 $-1 $342 $31 $-1 $437 reversed single #
loop $-1 $-1 $438 $219 #
plane-surface $-1 0 -43.085694170489703 7.2221267278734604 0 1 0 0 0 1 forward_v I I I I #
coedge $-1 $439 $222 $231 $346 reversed $134 $-1 #
coedge $-1 $222 $439 $223 $334 reversed $134 $-1 #
coedge $-1 $224 $223 $440 $441 forward $85 $-1 #
edge $-1 $338 29.707559850937528 $442 43.085694170489703 $332 $443 forward 7 unknown #
coedge $-1 $444 $228 $224 $336 reversed $342 $-1 #
edge $-1 $445 -43.085694170489703 $337 -29.707559850937528 $335 $446 forward 7 unknown #
vertex $-1 $229 $447 #
vertex $-1 $334 $448 #
straight-curve $-1 0 -29.707559850937528 10.281642582157568 -1 0 0 I I #
straight-curve $-1 -45.693533127842038 -29.707559850937528 0 0 0 -1 I I #
coedge $-1 $228 $444 $230 $345 reversed $342 $-1 #
loop $-1 $-1 $228 $328 #
straight-curve $-1 45.693533127842038 -29.707559850937528 0 0 0 1 I I #
coedge $-1 $231 $230 $449 $450 forward $220 $-1 #
edge $-1 $232 -6.6890671597760836 $451 6.6890671597760871 $341 $452 forward 7 unknown #
edge $-1 $453 -6.6890671597760871 $233 6.6890671597760836 $331 $454 forward 7 unknown #
point $-1 45.693533127842038 -29.707559850937532 4.1626108735893528 #
point $-1 -45.693533127842038 -29.707559850937532 4.1626108735893528 #
plane-surface $-1 0 0 10.281642582157568 0 0 1 1 0 0 forward_v I I I I #
coedge $-1 $360 $359 $352 $455 forward $236 $-1 #
coedge $-1 $352 $238 $240 $356 reversed $142 $-1 #
coedge $-1 $238 $351 $350 $455 reversed $142 $-1 #
coedge $-1 $246 $241 $238 $354 forward $247 $-1 #
edge $-1 $357 6.3571768567699678 $456 9.4114260443907867 $353 $457 forward 7 unknown #
coedge $-1 $240 $239 $360 $458 reversed $89 $-1 #
edge $-1 $459 -91.387066255684104 $357 -85.779224987647865 $351 $460 forward 7 unknown #
vertex $-1 $242 $461 #
straight-curve $-1 42.639283940221219 -1.3863270239704235 10.281642582157566 0 -1 0 I I #
coedge $-1 $350 $243 $246 $364 reversed $236 $-1 #
coedge $-1 $243 $350 $355 $458 forward $236 $-1 #
vertex $-1 $244 $462 #
straight-curve $-1 45.693533127842038 1.5529983710090463 65.99755852951148 0 0 1 I I #
straight-curve $-1 -4.0794293241097819 1.5529983710090463 82.222154607071147 0.54463902268945019 0 -0.83867057594974714 I I #
edge $-1 $456 -7.0983064668907403 $248 1.5529983710090463 $359 $463 forward 7 unknown #
point $-1 45.693533127842038 1.5529983710090463 10.281642582157568 #
point $-1 42.639283940221219 1.5529983710090463 10.281642582157573 #
edge $-1 $464 1 $464 0 $251 $-1 forward 7 unknown #
vertex $-1 $252 $465 #
ellipse-curve $-1 41.834501467970377 -4.6265050846336564 6.4157187425012525 0.83867057594974714 0 0.54463902268945019 0.54463902268945019 0 -0.83867057594974714 1 I I #
point $-1 44.711047556721091 -4.6265050846336564 7.0914062731584702 #
edge $-1 $466 1 $466 0 $255 $-1 forward 7 unknown #
vertex $-1 $256 $467 #
ellipse-curve $-1 41.834501467970377 -0.91880301124803054 6.4157187425012525 0.83867057594974714 0 0.54463902268945019 0.54463902268945019 0 -0.83867057594974714 1 I I #
point $-1 44.711047556721091 -0.91880301124803054 7.0914062731584702 #
plane-surface $-1 0 0 10.281642582157568 0 0 1 1 0 0 forward_v I I I I #
coedge $-1 $386 $385 $378 $468 forward $260 $-1 #
coedge $-1 $378 $262 $264 $382 reversed $164 $-1 #
coedge $-1 $262 $377 $376 $468 reversed $164 $-1 #
coedge $-1 $270 $265 $262 $380 forward $271 $-1 #
edge $-1 $383 6.3571768567699678 $469 9.4114260443907867 $379 $470 forward 7 unknown #
coedge $-1 $264 $263 $386 $471 reversed $103 $-1 #
edge $-1 $472 -91.387066255684104 $383 -85.779224987647865 $377 $473 forward 7 unknown #
vertex $-1 $266 $474 #
straight-curve $-1 42.639283940221219 10.122919321610297 10.281642582157566 0 -1 0 I I #
coedge $-1 $376 $267 $270 $390 reversed $260 $-1 #
coedge $-1 $267 $376 $381 $471 forward $260 $-1 #
vertex $-1 $268 $475 #
straight-curve $-1 45.693533127842038 24.571491062170487 65.99755852951148 0 0 1 I I #
straight-curve $-1 -4.0794293241097819 24.571491062170487 82.222154607071147 0.54463902268945019 0 -0.83867057594974714 I I #
edge $-1 $469 15.920186224270701 $272 24.571491062170487 $385 $476 forward 7 unknown #
point $-1 45.693533127842038 24.571491062170487 10.281642582157568 #
point $-1 42.639283940221219 24.571491062170487 10.281642582157573 #
edge $-1 $477 1 $477 0 $275 $-1 forward 7 unknown #
vertex $-1 $276 $478 #
ellipse-curve $-1 41.834501467970377 18.391987606527792 6.4157187425012525 0.83867057594974714 0 0.54463902268945019 0.54463902268945019 0 -0.83867057594974714 1 I I #
point $-1 44.711047556721091 18.391987606527792 7.0914062731584702 #
edge $-1 $479 1 $479 0 $279 $-1 forward 7 unknown #
vertex $-1 $280 $480 #
ellipse-curve $-1 41.834501467970377 22.099689679913411 6.4157187425012525 0.83867057594974714 0 0.54463902268945019 0.54463902268945019 0 -0.83867057594974714 1 I I #
point $-1 44.711047556721091 22.099689679913411 7.0914062731584702 #
loop $-1 $-1 $290 $283 #
plane-surface $-1 -45.693533127842038 0 0 1 0 0 0 0 -1 forward_v I I I I #
coedge $-1 $481 $482 $287 $405 forward $284 $-1 #
coedge $-1 $287 $286 $410 $483 reversed $117 $-1 #
edge $-1 $407 2.2217131692546497 $484 15.645861095993613 $403 $485 forward 7 unknown #
coedge $-1 $293 $288 $482 $486 forward $186 $-1 #
vertex $-1 $486 $487 #
straight-curve $-1 -36.368336518783124 11.887843694425996 10.28164258215757 0 1 0 I I #
coedge $-1 $488 $290 $293 $414 reversed $401 $-1 #
coedge $-1 $290 $488 $404 $483 forward $401 $-1 #
vertex $-1 $291 $489 #
straight-curve $-1 -45.693533127842038 17.843814926766456 32.05395416436992 0 0 1 I I #
straight-curve $-1 -45.693533127842059 17.843814926766456 0.62511858222018901 -0.69465836192734942 0 -0.71933980857756763 I I #
edge $-1 $490 -29.707559850937528 $294 -17.843814926766456 $409 $491 forward 7 unknown #
point $-1 -45.693533127842038 17.843814926766456 10.281642582157568 #
point $-1 -36.368336518783124 17.843814926766456 10.281642582157568 #
edge $-1 $492 1 $492 0 $297 $-1 forward 7 unknown #
vertex $-1 $298 $493 #
ellipse-curve $-1 -38.364183409479885 23.775687388851992 2.8781287377739591 -0.71933980857756763 0 0.69465836192734942 1.0419875428910241 0 1.0790097128663514 1 I I #
point $-1 -39.988947280421549 23.775687388851992 6.5323902950552331 #
plane-surface $-1 45.693533127842038 0 0 -1 0 0 0 0 1 forward_v I I I I #
coedge $-1 $306 $304 $308 $426 reversed $201 $-1 #
edge $-1 $319 -10.281642582157568 $428 10.281642582157568 $318 $494 forward 7 unknown #
vertex $-1 $426 $495 #
straight-curve $-1 -45.693533127842038 -29.707559850937528 0 0 0 -1 I I #
edge $-1 $424 -29.707559850937528 $428 29.707559850937528 $422 $496 forward 7 unknown #
straight-curve $-1 0 -29.707559850937528 -10.281642582157568 -1 0 0 I I #
vertex $-1 $311 $497 #
straight-curve $-1 0 29.707559850937528 -10.281642582157568 1 0 0 I I #
point $-1 45.693533127842038 29.707559850937528 -10.281642582157568 #
point $-1 45.693533127842038 -29.707559850937528 -10.281642582157568 #
straight-curve $-1 -45.693533127842038 0 10.281642582157568 0 -1 0 I I #
point $-1 -45.693533127842038 29.707559850937528 10.281642582157568 #
point $-1 -45.693533127842038 -29.707559850937528 10.281642582157568 #
straight-curve $-1 45.693533127842038 -29.707559850937528 0 0 0 -1 I I #
straight-curve $-1 45.693533127842038 29.707559850937528 0 0 0 -1 I I #
plane-surface $-1 45.693533127842038 0 0 -1 0 0 0 0 1 forward_v I I I I #
coedge $-1 $449 $440 $439 $498 forward $329 $-1 #
coedge $-1 $332 $331 $438 $498 reversed $134 $-1 #
coedge $-1 $438 $499 $333 $441 reversed $329 $-1 #
edge $-1 $442 -45.693533127842038 $445 45.693533127842038 $440 $500 forward 7 unknown #
vertex $-1 $334 $501 #
straight-curve $-1 -45.693533127842038 0 10.281642582157568 0 -1 0 I I #
coedge $-1 $341 $335 $499 $502 forward $342 $-1 #
vertex $-1 $336 $503 #
straight-curve $-1 45.693533127842038 0 10.281642582157568 0 1 0 I I #
point $-1 45.693533127842038 -29.707559850937528 10.281642582157568 #
point $-1 -45.693533127842038 -29.707559850937528 10.281642582157568 #
coedge $-1 $499 $438 $344 $450 reversed $329 $-1 #
edge $-1 $451 -45.693533127842038 $453 45.693533127842038 $449 $504 forward 7 unknown #
vertex $-1 $502 $505 #
straight-curve $-1 45.693533127842038 -36.396627010713615 4.1626108735893528 0 -1 0 I I #
vertex $-1 $346 $506 #
straight-curve $-1 -45.693533127842038 -36.396627010713615 4.1626108735893528 0 1 0 I I #
edge $-1 $456 55.715915947353913 $459 60.419047413452617 $350 $507 forward 7 unknown #
vertex $-1 $364 $508 #
straight-curve $-1 36.282107083451251 -7.0983064668907403 10.281642582157566 1 0 0 I I #
edge $-1 $459 -5.7119794429203168 $361 2.9393253949794698 $360 $509 forward 7 unknown #
vertex $-1 $458 $510 #
straight-curve $-1 -4.0794293241097819 -7.0983064668907403 82.222154607071147 -0.54463902268945019 0 0.83867057594974714 I I #
point $-1 42.639283940221219 -7.0983064668907403 10.281642582157573 #
point $-1 45.693533127842038 1.5529983710090463 5.5785111160588627 #
straight-curve $-1 45.693533127842038 0 10.281642582157568 0 1 0 I I #
vertex $-1 $367 $511 #
point $-1 42.379140490659829 -4.6265050846336564 5.5770481665515055 #
vertex $-1 $371 $512 #
point $-1 42.379140490659829 -0.91880301124803054 5.5770481665515055 #
edge $-1 $469 55.715915947353913 $472 60.419047413452617 $376 $513 forward 7 unknown #
vertex $-1 $390 $514 #
straight-curve $-1 36.282107083451251 15.920186224270701 10.281642582157566 1 0 0 I I #
edge $-1 $472 5.7972669026604038 $387 14.44857174056019 $386 $515 forward 7 unknown #
vertex $-1 $471 $516 #
straight-curve $-1 -4.0794293241097819 15.920186224270701 82.222154607071147 -0.54463902268945019 0 0.83867057594974714 I I #
point $-1 42.639283940221219 15.920186224270701 10.281642582157573 #
point $-1 45.693533127842038 24.571491062170487 5.5785111160588627 #
straight-curve $-1 45.693533127842038 0 10.281642582157568 0 1 0 I I #
vertex $-1 $393 $517 #
point $-1 42.379140490659829 18.391987606527792 5.5770481665515055 #
vertex $-1 $397 $518 #
point $-1 42.379140490659829 22.099689679913411 5.5770481665515055 #
coedge $-1 $482 $403 $488 $519 reversed $284 $-1 #
coedge $-1 $403 $481 $406 $486 reversed $284 $-1 #
edge $-1 $484 -17.819716156511532 $411 -5.9559712323404597 $410 $520 forward 7 unknown #
vertex $-1 $405 $521 #
straight-curve $-1 -34.825004887956268 29.707559850937528 11.879809308043468 -0.69465836192734942 0 -0.71933980857756763 I I #
edge $-1 $407 36.368336518783124 $490 45.693533127842038 $482 $522 forward 7 unknown #
point $-1 -36.368336518783124 29.707559850937528 10.281642582157568 #
coedge $-1 $410 $409 $481 $519 forward $401 $-1 #
point $-1 -45.693533127842038 17.843814926766456 0.62511858222021111 #
vertex $-1 $486 $523 #
straight-curve $-1 -45.693533127842038 0 10.281642582157568 0 -1 0 I I #
vertex $-1 $417 $524 #
point $-1 -37.322195866588864 23.775687388851992 3.9571384506403104 #
straight-curve $-1 -45.693533127842038 29.707559850937528 0 0 0 -1 I I #
point $-1 -45.693533127842038 -29.707559850937528 -10.281642582157568 #
straight-curve $-1 -45.693533127842038 0 -10.281642582157568 0 1 0 I I #
point $-1 -45.693533127842038 29.707559850937528 -10.281642582157568 #
edge $-1 $442 -3.0595158542841077 $453 3.0595158542841077 $439 $525 forward 7 unknown #
coedge $-1 $440 $449 $444 $502 reversed $329 $-1 #
straight-curve $-1 0 -43.085694170489703 10.281642582157568 1 0 0 I I #
point $-1 -45.693533127842038 -43.085694170489703 10.281642582157568 #
edge $-1 $445 -3.0595158542841077 $451 3.0595158542841077 $444 $526 forward 7 unknown #
point $-1 45.693533127842038 -43.085694170489703 10.281642582157568 #
straight-curve $-1 0 -43.085694170489703 4.1626108735893528 -1 0 0 I I #
point $-1 45.693533127842038 -43.085694170489703 4.1626108735893528 #
point $-1 -45.693533127842038 -43.085694170489703 4.1626108735893528 #
straight-curve $-1 45.693533127842038 -7.0983064668907403 65.99755852951148 0 0 -1 I I #
point $-1 45.693533127842038 -7.0983064668907403 10.281642582157568 #
straight-curve $-1 45.693533127842038 -1.3863270239704235 5.5785111160588627 0 1 0 I I #
point $-1 45.693533127842038 -7.0983064668907403 5.5785111160588627 #
point $-1 40.995830892020628 -4.6265050846336564 5.8710797198118021 #
point $-1 40.995830892020628 -0.91880301124803054 5.8710797198118021 #
straight-curve $-1 45.693533127842038 15.920186224270701 65.99755852951148 0 0 -1 I I #
point $-1 45.693533127842038 15.920186224270701 10.281642582157568 #
straight-curve $-1 45.693533127842038 10.122919321610297 5.5785111160588627 0 1 0 I I #
point $-1 45.693533127842038 15.920186224270701 5.5785111160588627 #
point $-1 40.995830892020628 18.391987606527792 5.8710797198118021 #
point $-1 40.995830892020628 22.099689679913411 5.8710797198118021 #
edge $-1 $490 -10.281642582157568 $484 -0.62511858222021111 $481 $527 forward 7 unknown #
straight-curve $-1 -45.693533127842038 11.887843694425996 0.62511858222020733 0 -1 0 I I #
point $-1 -45.693533127842038 29.707559850937528 0.62511858222021111 #
straight-curve $-1 0 29.707559850937528 10.281642582157568 -1 0 0 I I #
point $-1 -45.693533127842038 29.707559850937528 10.281642582157568 #
point $-1 -37.285173696613533 23.775687388851992 1.8361411948829347 #
straight-curve $-1 -45.693533127842038 -43.085694170489703 7.2221267278734604 0 0 -1 I I #
straight-curve $-1 45.693533127842038 -43.085694170489703 7.2221267278734604 0 0 -1 I I #
straight-curve $-1 -45.693533127842038 29.707559850937528 0 0 0 -1 I I #
End-of-ACIS-data 