500 0 9 0           
7 Unknown 11 ACIS 5.0 NT 24 Fri Mar 26 02:25:24 1999 
-1 9.9999999999999995e-007 1e-010 
body $-1 $9 $-1 $10 #
body $-1 $11 $-1 $12 #
body $-1 $13 $-1 $14 #
body $-1 $15 $-1 $16 #
body $-1 $17 $-1 $18 #
body $-1 $19 $-1 $20 #
body $-1 $21 $-1 $22 #
body $-1 $23 $-1 $24 #
body $-1 $25 $-1 $26 #
lump $-1 $-1 $27 $0 #
transform $-1 1 0 0 0 1 0 0 0 1 69.74822229682303 46.837122230609303 20.845213810035144 1 rotate no_reflect no_shear #
lump $-1 $-1 $28 $1 #
transform $-1 1 0 0 0 1 0 0 0 1 69.74822229682303 46.837122230609303 20.845213810035144 1 rotate no_reflect no_shear #
lump $-1 $-1 $29 $2 #
transform $-1 1 0 0 0 1 0 0 0 1 69.74822229682303 46.837122230609303 20.845213810035144 1 rotate no_reflect no_shear #
lump $-1 $-1 $30 $3 #
transform $-1 1 0 0 0 1 0 0 0 1 69.74822229682303 46.837122230609303 20.845213810035144 1 rotate no_reflect no_shear #
lump $-1 $-1 $31 $4 #
transform $-1 1 0 0 0 1 0 0 0 1 69.74822229682303 46.837122230609303 20.845213810035144 1 rotate no_reflect no_shear #
lump $-1 $-1 $32 $5 #
transform $-1 1 0 0 0 1 0 0 0 1 69.74822229682303 46.837122230609303 20.845213810035144 1 rotate no_reflect no_shear #
lump $-1 $-1 $33 $6 #
transform $-1 1 0 0 0 1 0 0 0 1 69.74822229682303 46.837122230609303 20.845213810035144 1 rotate no_reflect no_shear #
lump $-1 $-1 $34 $7 #
transform $-1 1 0 0 0 1 0 0 0 1 69.74822229682303 46.837122230609303 20.845213810035144 1 rotate no_reflect no_shear #
lump $-1 $-1 $35 $8 #
transform $-1 1 0 0 0 1 0 0 0 1 69.74822229682303 46.837122230609303 20.845213810035144 1 rotate no_reflect no_shear #
shell $-1 $-1 $-1 $36 $-1 $9 #
shell $-1 $-1 $-1 $37 $-1 $11 #
shell $-1 $-1 $-1 $38 $-1 $13 #
shell $-1 $-1 $-1 $39 $-1 $15 #
shell $-1 $-1 $-1 $40 $-1 $17 #
shell $-1 $-1 $-1 $41 $-1 $19 #
shell $-1 $-1 $-1 $42 $-1 $21 #
shell $-1 $-1 $-1 $43 $-1 $23 #
shell $-1 $-1 $-1 $44 $-1 $25 #
face $-1 $45 $46 $27 $-1 $47 forward single #
face $-1 $48 $49 $28 $-1 $50 reversed single #
face $-1 $51 $52 $29 $-1 $53 forward single #
face $-1 $54 $55 $30 $-1 $56 reversed single #
face $-1 $57 $58 $31 $-1 $59 forward single #
face $-1 $60 $61 $32 $-1 $62 reversed single #
face $-1 $63 $64 $33 $-1 $65 forward single #
face $-1 $66 $67 $34 $-1 $68 forward single #
face $-1 $69 $70 $35 $-1 $71 forward single #
face $-1 $72 $73 $27 $-1 $74 reversed single #
loop $-1 $-1 $75 $36 #
plane-surface $-1 0 0 20.845213810035144 0 0 1 1 0 0 forward_v I I I I #
face $-1 $76 $77 $28 $-1 $78 reversed single #
loop $-1 $-1 $79 $37 #
plane-surface $-1 0 -37.779502447131755 9.9966945344673732 0 0 1 1 0 0 forward_v I I I I #
face $-1 $80 $81 $29 $-1 $82 reversed single #
loop $-1 $-1 $83 $38 #
plane-surface $-1 0 34.197811610976693 17.422544825488721 0 0 1 1 0 0 forward_v I I I I #
face $-1 $84 $85 $30 $-1 $86 reversed single #
loop $-1 $-1 $87 $39 #
plane-surface $-1 42.292466015435963 10.782596857081039 211.34378804097562 0 1 0 0.6018150307709319 0 0.79863550430605224 forward_v I I I I #
face $-1 $88 $89 $31 $-1 $90 forward single #
loop $-1 $91 $92 $40 #
cone-surface $-1 65.75752727069532 16.170548924212554 17.3984613186208 -0.6018150307709319 0 -0.79863550430605224 0.79863550430605224 0 -0.6018150307709319 1 I I 0 1 1 forward I I I I #
face $-1 $93 $94 $32 $-1 $95 reversed single #
loop $-1 $-1 $96 $41 #
plane-surface $-1 -69.748222296823002 -23.28181066982382 2.0673370043913906 -0.85716730853699208 0 0.51503806187062418 0.51503806187062418 0 0.85716730853699208 forward_v I I I I #
face $-1 $97 $98 $33 $-1 $99 forward single #
loop $-1 $100 $101 $42 #
cone-surface $-1 -63.678195496215316 -26.545853866122048 11.198756376277965 0.85716730853699208 0 -0.51503806187062418 0.25751903093531209 0 0.42858365426849604 1 I I 0 1 0.5 forward I I I I #
face $-1 $102 $103 $34 $-1 $104 forward single #
loop $-1 $105 $106 $43 #
cone-surface $-1 -63.678195496215316 -23.281810669823816 11.198756376277965 0.85716730853699208 0 -0.51503806187062418 0.25751903093531209 0 0.42858365426849604 1 I I 0 1 0.5 forward I I I I #
face $-1 $107 $108 $35 $-1 $109 forward single #
loop $-1 $110 $111 $44 #
cone-surface $-1 -63.678195496215316 -20.017767473525584 11.198756376277965 0.85716730853699208 0 -0.51503806187062418 0.25751903093531209 0 0.42858365426849604 1 I I 0 1 0.5 forward I I I I #
face $-1 $112 $113 $27 $-1 $114 reversed single #
loop $-1 $-1 $115 $45 #
plane-surface $-1 0 0 -20.845213810035144 0 0 1 1 0 0 forward_v I I I I #
coedge $-1 $116 $117 $118 $119 forward $46 $-1 #
face $-1 $120 $121 $28 $-1 $122 reversed single #
loop $-1 $-1 $123 $48 #
plane-surface $-1 0 -28.721882663654206 15.42095417225126 0 -1 0 0 0 -1 forward_v I I I I #
coedge $-1 $124 $125 $126 $127 reversed $49 $-1 #
face $-1 $128 $129 $29 $-1 $130 reversed single #
loop $-1 $-1 $131 $51 #
plane-surface $-1 0 34.197811610976693 11.39208369719357 0 0 1 1 0 0 forward_v I I I I #
coedge $-1 $132 $133 $134 $135 reversed $52 $-1 #
face $-1 $136 $137 $30 $-1 $138 reversed single #
loop $-1 $-1 $139 $54 #
plane-surface $-1 -41.658591080124737 16.170548924212554 99.936974664027829 0.6018150307709319 0 0.79863550430605224 0.79863550430605224 0 -0.6018150307709319 forward_v I I I I #
coedge $-1 $140 $141 $142 $143 reversed $55 $-1 #
face $-1 $-1 $144 $31 $-1 $145 forward single #
loop $-1 $146 $147 $57 #
cone-surface $-1 64.690176622231263 16.170548924212554 15.982039195837455 -0.6018150307709319 0 -0.79863550430605224 0.39931775215302612 0 -0.30090751538546595 1 I I -0.70710678118654746 0.70710678118654746 0.5 forward I I I I #
loop $-1 $-1 $148 $40 #
coedge $-1 $92 $92 $149 $150 reversed $58 $-1 #
face $-1 $151 $152 $32 $-1 $153 reversed single #
loop $-1 $-1 $154 $60 #
plane-surface $-1 -189.32001425963824 -17.841738675993433 73.913315465745768 0 -1 0 0.85716730853699208 0 -0.51503806187062418 forward_v I I I I #
coedge $-1 $155 $156 $157 $158 reversed $61 $-1 #
face $-1 $-1 $159 $33 $-1 $160 forward single #
loop $-1 $161 $162 $63 #
cone-surface $-1 -63.035320014812569 -26.545853866122048 10.812477829874997 0.85716730853699208 0 -0.51503806187062418 0.12875951546765604 0 0.21429182713424802 1 I I -0.70710678118654746 0.70710678118654746 0.25 forward I I I I #
loop $-1 $-1 $163 $42 #
coedge $-1 $101 $101 $164 $165 reversed $64 $-1 #
face $-1 $-1 $166 $34 $-1 $167 forward single #
loop $-1 $168 $169 $66 #
cone-surface $-1 -63.035320014812569 -23.281810669823816 10.812477829874997 0.85716730853699208 0 -0.51503806187062418 0.12875951546765604 0 0.21429182713424802 1 I I -0.70710678118654746 0.70710678118654746 0.25 forward I I I I #
loop $-1 $-1 $170 $43 #
coedge $-1 $106 $106 $171 $172 reversed $67 $-1 #
face $-1 $-1 $173 $35 $-1 $174 forward single #
loop $-1 $175 $176 $69 #
cone-surface $-1 -63.035320014812569 -20.017767473525584 10.812477829874997 0.85716730853699208 0 -0.51503806187062418 0.12875951546765604 0 0.21429182713424802 1 I I -0.70710678118654746 0.70710678118654746 0.25 forward I I I I #
loop $-1 $-1 $177 $44 #
coedge $-1 $111 $111 $178 $179 reversed $70 $-1 #
face $-1 $180 $181 $27 $-1 $182 reversed single #
loop $-1 $-1 $183 $72 #
plane-surface $-1 0 -46.837122230609303 0 0 1 0 0 0 1 forward_v I I I I #
coedge $-1 $184 $185 $186 $187 forward $73 $-1 #
coedge $-1 $188 $75 $189 $190 forward $46 $-1 #
coedge $-1 $75 $188 $191 $192 forward $46 $-1 #
coedge $-1 $193 $194 $75 $119 reversed $195 $-1 #
edge $-1 $196 -46.837122230609303 $197 46.837122230609303 $118 $198 forward 7 unknown #
face $-1 $199 $200 $28 $-1 $201 reversed single #
loop $-1 $-1 $202 $76 #
plane-surface $-1 -69.74822229682303 0 0 1 0 0 0 0 -1 forward_v I I I I #
coedge $-1 $203 $204 $205 $206 reversed $77 $-1 #
coedge $-1 $207 $79 $208 $209 reversed $49 $-1 #
coedge $-1 $79 $207 $203 $210 forward $49 $-1 #
coedge $-1 $205 $211 $79 $127 forward $212 $-1 #
edge $-1 $213 -27.947371007043426 $214 -9.8321314400883288 $126 $215 forward 7 unknown #
face $-1 $216 $217 $29 $-1 $218 reversed single #
loop $-1 $-1 $219 $80 #
plane-surface $-1 0 21.558500991344076 14.407314261341146 0 1 0 0 0 1 forward_v I I I I #
coedge $-1 $220 $221 $222 $223 reversed $81 $-1 #
coedge $-1 $224 $83 $225 $226 reversed $52 $-1 #
coedge $-1 $83 $224 $227 $228 forward $52 $-1 #
coedge $-1 $229 $230 $83 $135 forward $217 $-1 #
edge $-1 $231 -29.738216425120964 $232 -4.4595951858557292 $134 $233 forward 7 unknown #
face $-1 $234 $235 $30 $-1 $236 forward single #
loop $-1 $-1 $237 $84 #
plane-surface $-1 69.74822229682303 0 0 -1 0 0 0 0 1 forward_v I I I I #
coedge $-1 $238 $239 $240 $241 reversed $85 $-1 #
coedge $-1 $141 $87 $242 $243 reversed $55 $-1 #
coedge $-1 $87 $140 $238 $244 reversed $55 $-1 #
coedge $-1 $240 $245 $87 $143 forward $137 $-1 #
edge $-1 $246 84.826680210452665 $247 89.685976452020668 $142 $248 forward 7 unknown #
loop $-1 $-1 $149 $88 #
plane-surface $-1 -41.658591080124737 16.170548924212554 99.936974664027829 0.6018150307709319 0 0.79863550430605224 0.79863550430605224 0 -0.6018150307709319 forward_v I I I I #
loop $-1 $-1 $249 $57 #
coedge $-1 $147 $147 $148 $250 reversed $89 $-1 #
coedge $-1 $148 $148 $147 $250 forward $91 $-1 #
coedge $-1 $149 $149 $92 $150 forward $144 $-1 #
edge $-1 $251 0 $251 6.2831853071796004 $149 $252 forward 7 unknown #
face $-1 $253 $254 $32 $-1 $255 forward single #
loop $-1 $-1 $256 $93 #
plane-surface $-1 -69.74822229682303 0 0 1 0 0 0 0 -1 forward_v I I I I #
coedge $-1 $257 $258 $259 $260 reversed $94 $-1 #
coedge $-1 $261 $96 $262 $263 reversed $61 $-1 #
coedge $-1 $96 $261 $257 $264 forward $61 $-1 #
coedge $-1 $259 $265 $96 $158 forward $266 $-1 #
edge $-1 $267 -17.080977328742296 $268 -6.2008333410815233 $157 $269 forward 7 unknown #
loop $-1 $-1 $164 $97 #
plane-surface $-1 -69.748222296823002 -23.28181066982382 2.0673370043913906 -0.85716730853699208 0 0.51503806187062418 0.51503806187062418 0 0.85716730853699208 forward_v I I I I #
loop $-1 $-1 $270 $63 #
coedge $-1 $162 $162 $163 $271 reversed $98 $-1 #
coedge $-1 $163 $163 $162 $271 forward $100 $-1 #
coedge $-1 $164 $164 $101 $165 forward $159 $-1 #
edge $-1 $272 0 $272 6.2831853071796004 $164 $273 forward 7 unknown #
loop $-1 $-1 $171 $102 #
plane-surface $-1 -69.748222296823002 -23.28181066982382 2.0673370043913906 -0.85716730853699208 0 0.51503806187062418 0.51503806187062418 0 0.85716730853699208 forward_v I I I I #
loop $-1 $-1 $274 $66 #
coedge $-1 $169 $169 $170 $275 reversed $103 $-1 #
coedge $-1 $170 $170 $169 $275 forward $105 $-1 #
coedge $-1 $171 $171 $106 $172 forward $166 $-1 #
edge $-1 $276 0 $276 6.2831853071796004 $171 $277 forward 7 unknown #
loop $-1 $-1 $178 $107 #
plane-surface $-1 -69.748222296823002 -23.28181066982382 2.0673370043913906 -0.85716730853699208 0 0.51503806187062418 0.51503806187062418 0 0.85716730853699208 forward_v I I I I #
loop $-1 $-1 $278 $69 #
coedge $-1 $176 $176 $177 $279 reversed $108 $-1 #
coedge $-1 $177 $177 $176 $279 forward $110 $-1 #
coedge $-1 $178 $178 $111 $179 forward $173 $-1 #
edge $-1 $280 0 $280 6.2831853071796004 $178 $281 forward 7 unknown #
face $-1 $282 $283 $27 $-1 $284 reversed single #
loop $-1 $-1 $285 $112 #
plane-surface $-1 -69.74822229682303 0 0 1 0 0 0 0 -1 forward_v I I I I #
coedge $-1 $286 $191 $287 $288 forward $113 $-1 #
coedge $-1 $289 $115 $286 $290 forward $73 $-1 #
coedge $-1 $115 $289 $291 $292 forward $73 $-1 #
coedge $-1 $194 $193 $115 $187 reversed $195 $-1 #
edge $-1 $293 -46.837122230609303 $294 46.837122230609303 $186 $295 forward 7 unknown #
coedge $-1 $117 $116 $296 $297 forward $46 $-1 #
coedge $-1 $298 $299 $116 $190 reversed $283 $-1 #
edge $-1 $197 -69.74822229682303 $300 69.74822229682303 $189 $301 forward 7 unknown #
coedge $-1 $183 $302 $117 $192 reversed $113 $-1 #
edge $-1 $303 -69.74822229682303 $196 69.74822229682303 $191 $304 forward 7 unknown #
coedge $-1 $186 $118 $302 $305 forward $195 $-1 #
coedge $-1 $118 $186 $298 $306 reversed $195 $-1 #
loop $-1 $-1 $193 $282 #
vertex $-1 $119 $307 #
vertex $-1 $119 $308 #
straight-curve $-1 69.74822229682303 0 20.845213810035144 0 1 0 I I #
face $-1 $309 $310 $28 $-1 $311 forward single #
loop $-1 $-1 $208 $120 #
plane-surface $-1 0 -46.837122230609303 0 0 1 0 0 0 1 forward_v I I I I #
coedge $-1 $312 $313 $314 $315 forward $121 $-1 #
coedge $-1 $314 $123 $125 $210 reversed $77 $-1 #
coedge $-1 $123 $314 $316 $317 reversed $77 $-1 #
coedge $-1 $318 $126 $123 $206 forward $212 $-1 #
edge $-1 $214 2.286217448341743 $319 13.134736723909517 $205 $320 forward 7 unknown #
coedge $-1 $125 $124 $312 $321 reversed $49 $-1 #
coedge $-1 $322 $323 $124 $209 forward $200 $-1 #
edge $-1 $324 -69.74822229682303 $213 69.74822229682303 $208 $325 forward 7 unknown #
edge $-1 $326 -69.74822229682303 $214 69.74822229682303 $203 $327 forward 7 unknown #
coedge $-1 $126 $318 $322 $328 forward $212 $-1 #
loop $-1 $-1 $205 $309 #
vertex $-1 $209 $329 #
vertex $-1 $127 $330 #
straight-curve $-1 69.74822229682303 -18.889751223565877 9.9966945344673732 0 1 0 I I #
face $-1 $331 $332 $29 $-1 $333 reversed single #
loop $-1 $-1 $134 $128 #
plane-surface $-1 69.74822229682303 0 0 -1 0 0 0 0 1 forward_v I I I I #
coedge $-1 $334 $227 $335 $336 reversed $129 $-1 #
coedge $-1 $337 $131 $334 $338 forward $81 $-1 #
coedge $-1 $131 $337 $339 $340 reversed $81 $-1 #
coedge $-1 $230 $229 $131 $223 forward $217 $-1 #
edge $-1 $341 4.4595951858557292 $342 29.738216425120964 $222 $343 forward 7 unknown #
coedge $-1 $133 $132 $344 $345 reversed $52 $-1 #
coedge $-1 $346 $347 $132 $226 forward $348 $-1 #
edge $-1 $349 -69.74822229682303 $231 69.74822229682303 $225 $350 forward 7 unknown #
coedge $-1 $219 $351 $133 $228 reversed $129 $-1 #
edge $-1 $352 -69.74822229682303 $232 69.74822229682303 $227 $353 forward 7 unknown #
coedge $-1 $222 $134 $351 $354 forward $217 $-1 #
coedge $-1 $134 $222 $346 $355 reversed $217 $-1 #
vertex $-1 $355 $356 #
vertex $-1 $135 $357 #
straight-curve $-1 69.74822229682303 17.098905805488346 17.422544825488721 0 -1 0 I I #
face $-1 $-1 $358 $30 $-1 $359 forward single #
loop $-1 $-1 $360 $136 #
plane-surface $-1 0 0 20.845213810035144 0 0 1 1 0 0 forward_v I I I I #
coedge $-1 $245 $240 $361 $362 forward $137 $-1 #
coedge $-1 $363 $139 $141 $244 forward $85 $-1 #
coedge $-1 $139 $363 $364 $365 forward $85 $-1 #
coedge $-1 $237 $142 $139 $241 forward $137 $-1 #
edge $-1 $247 2.697322394974762 $366 13.473226529237799 $240 $367 forward 7 unknown #
coedge $-1 $368 $369 $140 $243 forward $235 $-1 #
edge $-1 $370 42.153485503006848 $246 48.601989289105049 $242 $371 forward 7 unknown #
edge $-1 $247 -139.49644459364603 $370 -131.42204300327171 $141 $372 forward 7 unknown #
coedge $-1 $142 $237 $368 $373 reversed $137 $-1 #
vertex $-1 $373 $374 #
vertex $-1 $143 $375 #
straight-curve $-1 69.74822229682303 10.782596857081039 105.67189402048781 0 0 -1 I I #
coedge $-1 $249 $249 $-1 $376 reversed $146 $-1 #
edge $-1 $377 0 $377 6.2831853071796004 $147 $378 forward 7 unknown #
vertex $-1 $150 $379 #
ellipse-curve $-1 66.52397040377393 16.170548924212554 18.415565689251139 0.6018150307709319 0 0.79863550430605224 0.79863550430605224 0 -0.6018150307709319 1 I I #
face $-1 $-1 $266 $32 $-1 $380 forward single #
loop $-1 $-1 $262 $151 #
plane-surface $-1 0 -28.721882663654206 15.42095417225126 0 -1 0 0 0 -1 forward_v I I I I #
coedge $-1 $381 $382 $258 $383 forward $152 $-1 #
coedge $-1 $258 $154 $156 $264 reversed $94 $-1 #
coedge $-1 $154 $257 $256 $383 reversed $94 $-1 #
coedge $-1 $384 $157 $154 $260 forward $266 $-1 #
edge $-1 $268 -36.194671125674567 $385 -24.911784832996091 $259 $386 forward 7 unknown #
coedge $-1 $156 $155 $381 $387 reversed $61 $-1 #
coedge $-1 $388 $389 $155 $263 forward $254 $-1 #
edge $-1 $390 -23.684636658842553 $267 -1.7777386488218929 $262 $391 forward 7 unknown #
edge $-1 $392 -5.5368748685137586e-014 $268 21.906898010020612 $257 $393 forward 7 unknown #
coedge $-1 $157 $384 $388 $394 forward $266 $-1 #
loop $-1 $-1 $259 $253 #
vertex $-1 $263 $395 #
vertex $-1 $158 $396 #
straight-curve $-1 -58.465336004144547 -11.64090533491191 20.845213810035144 0 1 0 I I #
coedge $-1 $270 $270 $-1 $397 reversed $161 $-1 #
edge $-1 $398 0 $398 6.2831853071796004 $162 $399 forward 7 unknown #
vertex $-1 $165 $400 #
ellipse-curve $-1 -64.106779150483788 -26.545853866122048 11.456275407213258 -0.85716730853699208 0 0.51503806187062418 0.25751903093531209 0 0.42858365426849604 1 I I #
coedge $-1 $274 $274 $-1 $401 reversed $168 $-1 #
edge $-1 $402 0 $402 6.2831853071796004 $169 $403 forward 7 unknown #
vertex $-1 $172 $404 #
ellipse-curve $-1 -64.106779150483788 -23.281810669823816 11.456275407213258 -0.85716730853699208 0 0.51503806187062418 0.25751903093531209 0 0.42858365426849604 1 I I #
coedge $-1 $278 $278 $-1 $405 reversed $175 $-1 #
edge $-1 $406 0 $406 6.2831853071796004 $176 $407 forward 7 unknown #
vertex $-1 $179 $408 #
ellipse-curve $-1 -64.106779150483788 -20.017767473525584 11.456275407213258 -0.85716730853699208 0 0.51503806187062418 0.25751903093531209 0 0.42858365426849604 1 I I #
face $-1 $-1 $195 $27 $-1 $409 reversed single #
loop $-1 $-1 $298 $180 #
plane-surface $-1 0 46.837122230609303 0 0 -1 0 0 0 -1 forward_v I I I I #
coedge $-1 $410 $296 $299 $411 forward $181 $-1 #
coedge $-1 $302 $183 $184 $290 reversed $113 $-1 #
coedge $-1 $296 $410 $183 $288 reversed $181 $-1 #
edge $-1 $303 -20.845213810035144 $412 20.845213810035144 $287 $413 forward 7 unknown #
coedge $-1 $185 $184 $410 $414 forward $73 $-1 #
edge $-1 $294 -69.74822229682303 $412 69.74822229682303 $286 $415 forward 7 unknown #
coedge $-1 $299 $298 $185 $292 reversed $283 $-1 #
edge $-1 $416 -69.74822229682303 $293 69.74822229682303 $291 $417 forward 7 unknown #
vertex $-1 $187 $418 #
vertex $-1 $305 $419 #
straight-curve $-1 69.74822229682303 0 -20.845213810035144 0 -1 0 I I #
coedge $-1 $285 $287 $188 $297 reversed $181 $-1 #
edge $-1 $300 -46.837122230609303 $303 46.837122230609303 $296 $420 forward 7 unknown #
coedge $-1 $291 $189 $194 $306 forward $283 $-1 #
coedge $-1 $189 $291 $285 $411 reversed $283 $-1 #
vertex $-1 $190 $421 #
straight-curve $-1 0 46.837122230609303 20.845213810035144 -1 0 0 I I #
coedge $-1 $191 $286 $193 $305 reversed $113 $-1 #
vertex $-1 $297 $422 #
straight-curve $-1 0 -46.837122230609303 20.845213810035144 1 0 0 I I #
edge $-1 $196 -20.845213810035144 $294 20.845213810035144 $193 $423 forward 7 unknown #
edge $-1 $197 -20.845213810035144 $293 20.845213810035144 $194 $424 forward 7 unknown #
point $-1 69.74822229682303 -46.837122230609303 20.845213810035144 #
point $-1 69.74822229682303 46.837122230609303 20.845213810035144 #
face $-1 $-1 $212 $28 $-1 $425 reversed single #
loop $-1 $-1 $316 $199 #
plane-surface $-1 0 0 20.845213810035144 0 0 1 1 0 0 forward_v I I I I #
coedge $-1 $426 $202 $207 $321 forward $121 $-1 #
coedge $-1 $202 $426 $427 $428 reversed $121 $-1 #
coedge $-1 $204 $203 $202 $315 reversed $77 $-1 #
edge $-1 $429 -13.134736723909517 $326 -2.286217448341743 $202 $430 forward 7 unknown #
coedge $-1 $427 $431 $204 $317 forward $310 $-1 #
edge $-1 $319 -69.74822229682303 $429 69.74822229682303 $316 $432 forward 7 unknown #
coedge $-1 $211 $205 $431 $433 reversed $212 $-1 #
vertex $-1 $206 $434 #
straight-curve $-1 69.74822229682303 -28.721882663654206 7.7104770861256302 0 0 1 I I #
edge $-1 $326 9.8321314400883288 $324 27.947371007043426 $312 $435 forward 7 unknown #
coedge $-1 $436 $208 $211 $328 reversed $200 $-1 #
coedge $-1 $208 $436 $426 $437 forward $200 $-1 #
vertex $-1 $209 $438 #
straight-curve $-1 0 -46.837122230609303 9.9966945344673732 1 0 0 I I #
vertex $-1 $321 $439 #
straight-curve $-1 0 -28.721882663654206 9.9966945344673732 1 0 0 I I #
edge $-1 $440 -20.845213810035144 $213 -9.9966945344673732 $211 $441 forward 7 unknown #
point $-1 69.74822229682303 -46.837122230609303 9.9966945344673732 #
point $-1 69.74822229682303 -28.721882663654206 9.9966945344673732 #
face $-1 $-1 $348 $29 $-1 $442 reversed single #
loop $-1 $-1 $344 $216 #
plane-surface $-1 -69.74822229682303 0 0 1 0 0 0 0 -1 forward_v I I I I #
coedge $-1 $351 $219 $220 $338 reversed $129 $-1 #
coedge $-1 $344 $443 $219 $336 forward $332 $-1 #
edge $-1 $444 4.1884265665229972 $352 10.218887694818148 $335 $445 forward 7 unknown #
coedge $-1 $221 $220 $443 $446 reversed $81 $-1 #
edge $-1 $341 -69.74822229682303 $444 69.74822229682303 $334 $447 forward 7 unknown #
coedge $-1 $347 $346 $221 $340 forward $348 $-1 #
edge $-1 $342 -69.74822229682303 $448 69.74822229682303 $339 $449 forward 7 unknown #
vertex $-1 $223 $450 #
vertex $-1 $340 $451 #
straight-curve $-1 69.74822229682303 17.098905805488346 11.39208369719357 0 1 0 I I #
coedge $-1 $452 $335 $224 $345 forward $332 $-1 #
edge $-1 $352 4.4595951858557292 $349 29.738216425120964 $344 $453 forward 7 unknown #
coedge $-1 $339 $225 $230 $355 forward $348 $-1 #
coedge $-1 $225 $339 $452 $454 reversed $348 $-1 #
loop $-1 $-1 $225 $331 #
vertex $-1 $454 $455 #
straight-curve $-1 0 46.837122230609303 17.422544825488721 1 0 0 I I #
coedge $-1 $227 $334 $229 $354 reversed $129 $-1 #
vertex $-1 $345 $456 #
straight-curve $-1 0 21.558500991344076 17.422544825488721 1 0 0 I I #
edge $-1 $232 -10.218887694818148 $341 -4.1884265665229972 $229 $457 forward 7 unknown #
edge $-1 $231 -17.422544825488721 $342 -11.39208369719357 $230 $458 forward 7 unknown #
point $-1 69.74822229682303 46.83712223060931 17.422544825488721 #
point $-1 69.74822229682303 21.558500991344076 17.422544825488721 #
loop $-1 $-1 $364 $234 #
plane-surface $-1 0 21.558500991344076 14.407314261341146 0 1 0 0 0 1 forward_v I I I I #
coedge $-1 $369 $368 $459 $460 forward $235 $-1 #
coedge $-1 $364 $459 $237 $362 reversed $358 $-1 #
edge $-1 $366 -89.685976452020668 $461 -84.826680210452665 $237 $462 forward 7 unknown #
coedge $-1 $239 $238 $369 $463 reversed $85 $-1 #
coedge $-1 $459 $361 $239 $365 reversed $358 $-1 #
edge $-1 $464 131.42204300327171 $366 139.49644459364603 $364 $465 forward 7 unknown #
vertex $-1 $362 $466 #
straight-curve $-1 69.74822229682303 8.0852744621062769 15.985917568467151 0 1 0 I I #
coedge $-1 $360 $242 $245 $373 forward $235 $-1 #
coedge $-1 $242 $360 $363 $463 forward $235 $-1 #
vertex $-1 $243 $467 #
straight-curve $-1 21.146233007717981 10.782596857081039 20.845213810035148 1 0 0 I I #
straight-curve $-1 -41.658591080124737 10.782596857081039 99.936974664027829 -0.79863550430605224 0 0.6018150307709319 I I #
edge $-1 $246 10.782596857081039 $461 21.558500991344069 $245 $468 forward 7 unknown #
point $-1 69.74822229682303 10.782596857081039 20.845213810035144 #
point $-1 69.74822229682303 10.782596857081039 15.985917568467144 #
edge $-1 $469 1 $469 0 $249 $-1 forward 7 unknown #
vertex $-1 $250 $470 #
ellipse-curve $-1 64.991084137616724 16.170548924212554 16.381356947990483 0.6018150307709319 0 0.79863550430605224 0.79863550430605224 0 -0.6018150307709319 1 I I #
point $-1 67.322605908079979 16.170548924212554 17.813750658480188 #
plane-surface $-1 0 0 20.845213810035144 0 0 1 1 0 0 forward_v I I I I #
coedge $-1 $471 $256 $261 $387 forward $152 $-1 #
coedge $-1 $256 $471 $384 $472 reversed $152 $-1 #
edge $-1 $385 16.11144392283774 $392 34.889320728481543 $256 $473 forward 7 unknown #
coedge $-1 $265 $259 $382 $472 forward $266 $-1 #
vertex $-1 $472 $474 #
straight-curve $-1 -94.660007129819121 -17.841738675993433 20.845213810035144 -1 0 0 I I #
edge $-1 $392 6.2008333410815233 $390 17.080977328742296 $381 $475 forward 7 unknown #
coedge $-1 $389 $262 $265 $394 reversed $254 $-1 #
coedge $-1 $262 $388 $471 $476 reversed $254 $-1 #
vertex $-1 $387 $477 #
straight-curve $-1 -57.549732935942821 -28.721882663654206 22.369033262927989 0.51503806187062429 0 0.85716730853699219 I I #
vertex $-1 $387 $478 #
straight-curve $-1 -69.748222296823002 -17.841738675993433 2.0673370043913906 0.51503806187062418 0 0.85716730853699208 I I #
edge $-1 $479 -69.74822229682303 $267 -58.465336004144561 $265 $480 forward 7 unknown #
point $-1 -58.465336004144561 -28.721882663654206 20.845213810035144 #
point $-1 -58.465336004144554 -17.841738675993433 20.845213810035144 #
edge $-1 $481 1 $481 0 $270 $-1 forward 7 unknown #
vertex $-1 $271 $482 #
ellipse-curve $-1 -63.249611841946816 -26.545853866122048 10.941237345342653 -0.85716730853699208 0 0.51503806187062418 0.25751903093531209 0 0.42858365426849604 1 I I #
point $-1 -63.849260119548497 -26.545853866122048 11.884859061481773 #
edge $-1 $483 1 $483 0 $274 $-1 forward 7 unknown #
vertex $-1 $275 $484 #
ellipse-curve $-1 -63.249611841946816 -23.281810669823816 10.941237345342653 -0.85716730853699208 0 0.51503806187062418 0.25751903093531209 0 0.42858365426849604 1 I I #
point $-1 -63.849260119548497 -23.281810669823816 11.884859061481773 #
edge $-1 $485 1 $485 0 $278 $-1 forward 7 unknown #
vertex $-1 $279 $486 #
ellipse-curve $-1 -63.249611841946816 -20.017767473525584 10.941237345342653 -0.85716730853699208 0 0.51503806187062418 0.25751903093531209 0 0.42858365426849604 1 I I #
point $-1 -63.849260119548497 -20.017767473525584 11.884859061481773 #
plane-surface $-1 69.74822229682303 0 0 -1 0 0 0 0 1 forward_v I I I I #
coedge $-1 $287 $285 $289 $414 reversed $181 $-1 #
edge $-1 $300 -20.845213810035144 $416 20.845213810035144 $299 $487 forward 7 unknown #
vertex $-1 $414 $488 #
straight-curve $-1 -69.74822229682303 -46.837122230609303 0 0 0 -1 I I #
edge $-1 $412 -46.837122230609303 $416 46.837122230609303 $410 $489 forward 7 unknown #
straight-curve $-1 0 -46.837122230609303 -20.845213810035144 -1 0 0 I I #
vertex $-1 $292 $490 #
straight-curve $-1 0 46.837122230609303 -20.845213810035144 1 0 0 I I #
point $-1 69.74822229682303 46.837122230609303 -20.845213810035144 #
point $-1 69.74822229682303 -46.837122230609303 -20.845213810035144 #
straight-curve $-1 -69.74822229682303 0 20.845213810035144 0 -1 0 I I #
point $-1 -69.74822229682303 46.837122230609303 20.845213810035144 #
point $-1 -69.74822229682303 -46.837122230609303 20.845213810035144 #
straight-curve $-1 69.74822229682303 -46.837122230609303 0 0 0 -1 I I #
straight-curve $-1 69.74822229682303 46.837122230609303 0 0 0 -1 I I #
plane-surface $-1 69.74822229682303 0 0 -1 0 0 0 0 1 forward_v I I I I #
coedge $-1 $313 $312 $323 $437 reversed $121 $-1 #
coedge $-1 $491 $316 $313 $428 forward $310 $-1 #
edge $-1 $429 28.721882663654206 $492 46.837122230609303 $313 $493 forward 7 unknown #
vertex $-1 $428 $494 #
straight-curve $-1 -69.74822229682303 -28.721882663654206 7.7104770861256302 0 0 -1 I I #
coedge $-1 $316 $491 $318 $433 forward $310 $-1 #
straight-curve $-1 0 -28.721882663654206 20.845213810035144 -1 0 0 I I #
edge $-1 $440 -46.837122230609303 $319 -28.721882663654206 $318 $495 forward 7 unknown #
point $-1 69.74822229682303 -28.721882663654206 20.845213810035148 #
straight-curve $-1 -69.74822229682303 -18.889751223565877 9.9966945344673732 0 -1 0 I I #
coedge $-1 $323 $322 $491 $496 reversed $200 $-1 #
edge $-1 $492 -20.845213810035144 $324 -9.9966945344673732 $426 $497 forward 7 unknown #
point $-1 -69.74822229682303 -46.837122230609303 9.9966945344673732 #
point $-1 -69.74822229682303 -28.721882663654206 9.9966945344673732 #
vertex $-1 $433 $498 #
straight-curve $-1 69.74822229682303 -46.837122230609303 0 0 0 -1 I I #
plane-surface $-1 0 46.837122230609303 0 0 -1 0 0 0 -1 forward_v I I I I #
coedge $-1 $335 $452 $337 $446 forward $332 $-1 #
vertex $-1 $446 $499 #
straight-curve $-1 -69.74822229682303 21.558500991344076 7.2036571306705728 0 0 1 I I #
edge $-1 $448 -29.738216425120964 $444 -4.4595951858557292 $443 $500 forward 7 unknown #
straight-curve $-1 0 21.558500991344076 11.39208369719357 -1 0 0 I I #
vertex $-1 $340 $501 #
straight-curve $-1 0 46.837122230609303 11.39208369719357 -1 0 0 I I #
point $-1 69.74822229682303 21.558500991344076 11.39208369719357 #
point $-1 69.74822229682303 46.83712223060931 11.39208369719357 #
coedge $-1 $443 $344 $347 $454 forward $332 $-1 #
straight-curve $-1 -69.74822229682303 17.098905805488346 17.422544825488721 0 1 0 I I #
edge $-1 $349 -17.422544825488721 $448 -11.39208369719357 $347 $502 forward 7 unknown #
point $-1 -69.74822229682303 46.83712223060931 17.422544825488721 #
point $-1 -69.74822229682303 21.558500991344076 17.422544825488721 #
straight-curve $-1 69.74822229682303 21.558500991344076 7.2036571306705728 0 0 -1 I I #
straight-curve $-1 69.74822229682303 46.837122230609303 0 0 0 -1 I I #
coedge $-1 $361 $364 $360 $460 reversed $358 $-1 #
edge $-1 $461 -48.601989289105049 $464 -42.153485503006848 $360 $503 forward 7 unknown #
vertex $-1 $362 $504 #
straight-curve $-1 69.74822229682303 21.558500991344069 105.67189402048781 0 0 1 I I #
edge $-1 $464 -13.473226529237792 $370 -2.697322394974762 $369 $505 forward 7 unknown #
vertex $-1 $463 $506 #
straight-curve $-1 -41.658591080124737 21.558500991344069 99.936974664027829 0.79863550430605224 0 -0.6018150307709319 I I #
point $-1 69.74822229682303 21.558500991344076 15.985917568467142 #
point $-1 63.29971851072483 10.782596857081039 20.845213810035148 #
straight-curve $-1 69.74822229682303 0 20.845213810035144 0 1 0 I I #
vertex $-1 $376 $507 #
point $-1 65.789719641922787 16.170548924212554 15.77954191721955 #
coedge $-1 $382 $381 $389 $476 forward $152 $-1 #
edge $-1 $385 17.841738675993433 $479 28.721882663654206 $382 $508 forward 7 unknown #
straight-curve $-1 -69.74822229682303 -17.841738675993433 36.956657732872884 0 0 -1 I I #
point $-1 -69.74822229682303 -17.841738675993433 20.845213810035144 #
straight-curve $-1 -69.74822229682303 -11.64090533491191 2.0673370043913364 0 -1 0 I I #
edge $-1 $390 -34.889320728481543 $479 -16.111443922837736 $471 $509 forward 7 unknown #
point $-1 -69.74822229682303 -28.721882663654206 2.067337004391343 #
point $-1 -69.74822229682303 -17.841738675993433 2.067337004391343 #
vertex $-1 $476 $510 #
straight-curve $-1 0 -28.721882663654206 20.845213810035144 1 0 0 I I #
vertex $-1 $397 $511 #
point $-1 -62.992092811011503 -26.545853866122048 11.369820999611148 #
vertex $-1 $401 $512 #
point $-1 -62.992092811011503 -23.281810669823816 11.369820999611148 #
vertex $-1 $405 $513 #
point $-1 -62.992092811011503 -20.017767473525584 11.369820999611148 #
straight-curve $-1 -69.74822229682303 46.837122230609303 0 0 0 -1 I I #
point $-1 -69.74822229682303 -46.837122230609303 -20.845213810035144 #
straight-curve $-1 -69.74822229682303 0 -20.845213810035144 0 1 0 I I #
point $-1 -69.74822229682303 46.837122230609303 -20.845213810035144 #
coedge $-1 $431 $427 $436 $496 forward $310 $-1 #
vertex $-1 $428 $514 #
straight-curve $-1 -69.74822229682303 0 20.845213810035144 0 -1 0 I I #
point $-1 -69.74822229682303 -28.721882663654206 20.845213810035148 #
straight-curve $-1 69.74822229682303 0 20.845213810035144 0 1 0 I I #
edge $-1 $492 -69.74822229682303 $440 69.74822229682303 $436 $515 forward 7 unknown #
straight-curve $-1 -69.74822229682303 -46.837122230609303 0 0 0 -1 I I #
point $-1 69.74822229682303 -46.837122230609303 20.845213810035144 #
point $-1 -69.74822229682303 21.558500991344076 11.39208369719357 #
straight-curve $-1 -69.74822229682303 17.098905805488346 11.39208369719357 0 -1 0 I I #
point $-1 -69.74822229682303 46.83712223060931 11.39208369719357 #
straight-curve $-1 -69.74822229682303 46.837122230609303 0 0 0 -1 I I #
straight-curve $-1 21.146233007717981 21.558500991344069 20.845213810035148 -1 0 0 I I #
point $-1 69.74822229682303 21.558500991344069 20.845213810035144 #
straight-curve $-1 63.299718510724816 8.0852744621062769 20.845213810035148 0 -1 0 I I #
point $-1 63.29971851072483 21.558500991344069 20.845213810035148 #
point $-1 64.389269106845802 16.170548924212554 15.582721443684429 #
straight-curve $-1 -69.74822229682303 0 20.845213810035144 0 -1 0 I I #
straight-curve $-1 -69.74822229682303 -28.721882663654206 36.956657732872884 0 0 1 I I #
point $-1 -69.74822229682303 -28.721882663654206 20.845213810035148 #
point $-1 -62.821028187678323 -26.545853866122048 10.68371831440734 #
point $-1 -62.821028187678323 -23.281810669823816 10.68371831440734 #
point $-1 -62.821028187678323 -20.017767473525584 10.68371831440734 #
point $-1 -69.74822229682303 -46.837122230609303 20.845213810035144 #
straight-curve $-1 0 -46.837122230609303 20.845213810035144 1 0 0 I I #
End-of-ACIS-data 