500 0 8 0           
7 Unknown 11 ACIS 5.0 NT 24 Thu Mar 25 22:05:15 1999 
-1 9.9999999999999995e-007 1e-010 
body $-1 $8 $-1 $9 #
body $-1 $10 $-1 $11 #
body $-1 $12 $-1 $13 #
body $-1 $14 $-1 $15 #
body $-1 $16 $-1 $17 #
body $-1 $18 $-1 $19 #
body $-1 $20 $-1 $21 #
body $-1 $22 $-1 $23 #
lump $-1 $-1 $24 $0 #
transform $-1 1 0 0 0 1 0 0 0 1 48.26197088534196 24.320840114966902 10.533810324766085 1 rotate no_reflect no_shear #
lump $-1 $-1 $25 $1 #
transform $-1 1 0 0 0 1 0 0 0 1 48.26197088534196 24.320840114966902 10.533810324766085 1 rotate no_reflect no_shear #
lump $-1 $-1 $26 $2 #
transform $-1 1 0 0 0 1 0 0 0 1 48.26197088534196 24.320840114966902 10.533810324766085 1 rotate no_reflect no_shear #
lump $-1 $-1 $27 $3 #
transform $-1 1 0 0 0 1 0 0 0 1 48.26197088534196 24.320840114966902 10.533810324766085 1 rotate no_reflect no_shear #
lump $-1 $-1 $28 $4 #
transform $-1 1 0 0 0 1 0 0 0 1 48.26197088534196 24.320840114966902 10.533810324766085 1 rotate no_reflect no_shear #
lump $-1 $-1 $29 $5 #
transform $-1 1 0 0 0 1 0 0 0 1 48.26197088534196 24.320840114966902 10.533810324766085 1 rotate no_reflect no_shear #
lump $-1 $-1 $30 $6 #
transform $-1 1 0 0 0 1 0 0 0 1 48.26197088534196 24.320840114966902 10.533810324766085 1 rotate no_reflect no_shear #
lump $-1 $-1 $31 $7 #
transform $-1 1 0 0 0 1 0 0 0 1 48.26197088534196 24.320840114966902 10.533810324766085 1 rotate no_reflect no_shear #
shell $-1 $-1 $-1 $32 $-1 $8 #
shell $-1 $-1 $-1 $33 $-1 $10 #
shell $-1 $-1 $-1 $34 $-1 $12 #
shell $-1 $-1 $-1 $35 $-1 $14 #
shell $-1 $-1 $-1 $36 $-1 $16 #
shell $-1 $-1 $-1 $37 $-1 $18 #
shell $-1 $-1 $-1 $38 $-1 $20 #
shell $-1 $-1 $-1 $39 $-1 $22 #
face $-1 $40 $41 $24 $-1 $42 forward single #
face $-1 $43 $44 $25 $-1 $45 reversed single #
face $-1 $46 $47 $26 $-1 $48 reversed single #
face $-1 $49 $50 $27 $-1 $51 forward single #
face $-1 $52 $53 $28 $-1 $54 forward single #
face $-1 $55 $56 $29 $-1 $57 forward single #
face $-1 $58 $59 $30 $-1 $60 reversed single #
face $-1 $61 $62 $31 $-1 $63 forward single #
face $-1 $64 $65 $24 $-1 $66 reversed single #
loop $-1 $-1 $67 $32 #
plane-surface $-1 0 0 10.533810324766085 0 0 1 1 0 0 forward_v I I I I #
face $-1 $68 $69 $25 $-1 $70 reversed single #
loop $-1 $-1 $71 $33 #
plane-surface $-1 0 -18.122274450008256 4.3373567583771511 0 0 1 1 0 0 forward_v I I I I #
face $-1 $72 $73 $26 $-1 $74 reversed single #
loop $-1 $-1 $75 $34 #
plane-surface $-1 -48.261970885341967 -8.0578897467966719 3.8939363280202173 -0.80901700255871778 0 0.5877852410284794 0.5877852410284794 0 0.80901700255871778 forward_v I I I I #
face $-1 $76 $77 $27 $-1 $78 forward single #
loop $-1 $79 $80 $35 #
cone-surface $-1 -45.445387035069707 -10.377381169748432 6.9199807058789116 0.80901700255871778 0 -0.5877852410284794 0.2938926205142397 0 0.40450850127935889 1 I I 0 1 0.5 forward I I I I #
face $-1 $81 $82 $28 $-1 $83 forward single #
loop $-1 $84 $85 $36 #
cone-surface $-1 -45.445387035069707 -8.0578897467966719 6.9199807058789116 0.80901700255871778 0 -0.5877852410284794 0.2938926205142397 0 0.40450850127935889 1 I I 0 1 0.5 forward I I I I #
face $-1 $86 $87 $29 $-1 $88 forward single #
loop $-1 $89 $90 $37 #
cone-surface $-1 -45.445387035069707 -5.7383983238449119 6.9199807058789116 0.80901700255871778 0 -0.5877852410284794 0.2938926205142397 0 0.40450850127935889 1 I I 0 1 0.5 forward I I I I #
face $-1 $91 $92 $30 $-1 $93 reversed single #
loop $-1 $-1 $94 $38 #
plane-surface $-1 19.880889458104598 5.4819864701285592 139.25257854151312 0 -1 0 -0.54463904215088732 0 -0.83867056331134215 forward_v I I I I #
face $-1 $95 $96 $31 $-1 $97 forward single #
loop $-1 $98 $99 $39 #
cone-surface $-1 43.014178207277496 1.7777602146741849 5.7463156443420242 -0.54463904215088732 0 -0.83867056331134215 1.2580058449670133 0 -0.81695856322633098 1 I I 0 1 1.5 forward I I I I #
face $-1 $100 $101 $24 $-1 $102 reversed single #
loop $-1 $-1 $103 $40 #
plane-surface $-1 0 0 -10.533810324766085 0 0 1 1 0 0 forward_v I I I I #
coedge $-1 $104 $105 $106 $107 forward $41 $-1 #
face $-1 $108 $109 $25 $-1 $110 reversed single #
loop $-1 $-1 $111 $43 #
plane-surface $-1 0 -11.923708785049607 7.4355835415716189 0 -1 0 0 0 -1 forward_v I I I I #
coedge $-1 $112 $113 $114 $115 reversed $44 $-1 #
face $-1 $116 $117 $26 $-1 $118 forward single #
loop $-1 $-1 $119 $46 #
plane-surface $-1 -126.35148093181289 -4.1920707085437403 60.629284706720576 0 -1 0 0.80901700255871778 0 -0.5877852410284794 forward_v I I I I #
coedge $-1 $120 $121 $122 $123 reversed $47 $-1 #
face $-1 $-1 $124 $27 $-1 $125 forward single #
loop $-1 $126 $127 $49 #
cone-surface $-1 -44.838624283150672 -10.377381169748432 6.4791417751075517 0.80901700255871778 0 -0.5877852410284794 0.14694631025711985 0 0.20225425063967944 1 I I -0.70710678118654746 0.70710678118654746 0.25 forward I I I I #
loop $-1 $-1 $128 $35 #
coedge $-1 $80 $80 $129 $130 reversed $50 $-1 #
face $-1 $-1 $131 $28 $-1 $132 forward single #
loop $-1 $133 $134 $52 #
cone-surface $-1 -44.838624283150672 -8.0578897467966719 6.4791417751075517 0.80901700255871778 0 -0.5877852410284794 0.14694631025711985 0 0.20225425063967944 1 I I -0.70710678118654746 0.70710678118654746 0.25 forward I I I I #
loop $-1 $-1 $135 $36 #
coedge $-1 $85 $85 $136 $137 reversed $53 $-1 #
face $-1 $-1 $138 $29 $-1 $139 forward single #
loop $-1 $140 $141 $55 #
cone-surface $-1 -44.838624283150672 -5.7383983238449119 6.4791417751075517 0.80901700255871778 0 -0.5877852410284794 0.14694631025711985 0 0.20225425063967944 1 I I -0.70710678118654746 0.70710678118654746 0.25 forward I I I I #
loop $-1 $-1 $142 $37 #
coedge $-1 $90 $90 $143 $144 reversed $56 $-1 #
face $-1 $145 $146 $30 $-1 $147 reversed single #
loop $-1 $-1 $148 $58 #
plane-surface $-1 -32.689817732508715 1.7777602146741849 58.30078992366245 0.54463904215088732 0 0.83867056331134215 0.83867056331134215 0 -0.54463904215088732 forward_v I I I I #
coedge $-1 $149 $150 $151 $152 reversed $59 $-1 #
face $-1 $-1 $153 $31 $-1 $154 forward single #
loop $-1 $155 $156 $61 #
cone-surface $-1 41.056452085802341 1.7777602146741849 2.7316818372929408 -0.54463904215088732 0 -0.83867056331134215 0.62900292248350664 0 -0.40847928161316549 1 I I -0.70710678118654757 0.70710678118654757 0.75 forward I I I I #
loop $-1 $-1 $157 $39 #
coedge $-1 $99 $99 $158 $159 reversed $62 $-1 #
face $-1 $160 $161 $24 $-1 $162 reversed single #
loop $-1 $-1 $163 $64 #
plane-surface $-1 0 -24.320840114966902 0 0 1 0 0 0 1 forward_v I I I I #
coedge $-1 $164 $165 $166 $167 forward $65 $-1 #
coedge $-1 $168 $67 $169 $170 forward $41 $-1 #
coedge $-1 $67 $168 $171 $172 forward $41 $-1 #
coedge $-1 $173 $174 $67 $107 reversed $175 $-1 #
edge $-1 $176 -24.320840114966902 $177 24.320840114966902 $106 $178 forward 7 unknown #
face $-1 $179 $180 $25 $-1 $181 reversed single #
loop $-1 $-1 $182 $68 #
plane-surface $-1 -48.26197088534196 0 0 1 0 0 0 0 -1 forward_v I I I I #
coedge $-1 $183 $184 $185 $186 reversed $69 $-1 #
coedge $-1 $187 $71 $188 $189 reversed $44 $-1 #
coedge $-1 $71 $187 $190 $191 forward $44 $-1 #
coedge $-1 $192 $193 $71 $115 forward $194 $-1 #
edge $-1 $195 -15.259702889962778 $196 -2.8625715600454793 $114 $197 forward 7 unknown #
face $-1 $198 $199 $26 $-1 $200 reversed single #
loop $-1 $-1 $122 $72 #
plane-surface $-1 0 0 10.533810324766085 0 0 1 1 0 0 forward_v I I I I #
coedge $-1 $201 $202 $203 $204 reversed $73 $-1 #
coedge $-1 $205 $75 $206 $207 reversed $47 $-1 #
coedge $-1 $75 $205 $201 $208 forward $47 $-1 #
coedge $-1 $203 $209 $75 $123 forward $117 $-1 #
edge $-1 $210 -7.8947639116512711 $211 -0.16312583514540435 $122 $212 forward 7 unknown #
loop $-1 $-1 $129 $76 #
plane-surface $-1 -48.261970885341967 -8.0578897467966719 3.8939363280202173 -0.80901700255871778 0 0.5877852410284794 0.5877852410284794 0 0.80901700255871778 forward_v I I I I #
loop $-1 $-1 $213 $49 #
coedge $-1 $127 $127 $128 $214 reversed $77 $-1 #
coedge $-1 $128 $128 $127 $214 forward $79 $-1 #
coedge $-1 $129 $129 $80 $130 forward $124 $-1 #
edge $-1 $215 0 $215 6.2831853071796004 $129 $216 forward 7 unknown #
loop $-1 $-1 $136 $81 #
plane-surface $-1 -48.261970885341967 -8.0578897467966719 3.8939363280202173 -0.80901700255871778 0 0.5877852410284794 0.5877852410284794 0 0.80901700255871778 forward_v I I I I #
loop $-1 $-1 $217 $52 #
coedge $-1 $134 $134 $135 $218 reversed $82 $-1 #
coedge $-1 $135 $135 $134 $218 forward $84 $-1 #
coedge $-1 $136 $136 $85 $137 forward $131 $-1 #
edge $-1 $219 0 $219 6.2831853071796004 $136 $220 forward 7 unknown #
loop $-1 $-1 $143 $86 #
plane-surface $-1 -48.261970885341967 -8.0578897467966719 3.8939363280202173 -0.80901700255871778 0 0.5877852410284794 0.5877852410284794 0 0.80901700255871778 forward_v I I I I #
loop $-1 $-1 $221 $55 #
coedge $-1 $141 $141 $142 $222 reversed $87 $-1 #
coedge $-1 $142 $142 $141 $222 forward $89 $-1 #
coedge $-1 $143 $143 $90 $144 forward $138 $-1 #
edge $-1 $223 0 $223 6.2831853071796004 $143 $224 forward 7 unknown #
face $-1 $225 $226 $30 $-1 $227 reversed single #
loop $-1 $-1 $228 $91 #
plane-surface $-1 19.880889458104598 -1.9264660407801895 139.25257854151312 0 1 0 0.54463904215088732 0 0.83867056331134215 forward_v I I I I #
coedge $-1 $229 $230 $231 $232 reversed $92 $-1 #
coedge $-1 $150 $94 $233 $234 reversed $59 $-1 #
coedge $-1 $94 $149 $229 $235 reversed $59 $-1 #
coedge $-1 $231 $236 $94 $152 forward $237 $-1 #
edge $-1 $238 -38.321526156289664 $239 -30.924434479884713 $151 $240 forward 7 unknown #
loop $-1 $-1 $158 $95 #
plane-surface $-1 -32.689817732508715 1.7777602146741849 58.30078992366245 0.54463904215088732 0 0.83867056331134215 0.83867056331134215 0 -0.54463904215088732 forward_v I I I I #
loop $-1 $-1 $241 $61 #
coedge $-1 $156 $156 $157 $242 reversed $96 $-1 #
coedge $-1 $157 $157 $156 $242 forward $98 $-1 #
coedge $-1 $158 $158 $99 $159 forward $153 $-1 #
edge $-1 $243 0 $243 6.2831853071796004 $158 $244 forward 7 unknown #
face $-1 $245 $246 $24 $-1 $247 reversed single #
loop $-1 $-1 $248 $100 #
plane-surface $-1 -48.26197088534196 0 0 1 0 0 0 0 -1 forward_v I I I I #
coedge $-1 $249 $171 $250 $251 forward $101 $-1 #
coedge $-1 $252 $103 $249 $253 forward $65 $-1 #
coedge $-1 $103 $252 $254 $255 forward $65 $-1 #
coedge $-1 $174 $173 $103 $167 reversed $175 $-1 #
edge $-1 $256 -24.320840114966902 $257 24.320840114966902 $166 $258 forward 7 unknown #
coedge $-1 $105 $104 $259 $260 forward $41 $-1 #
coedge $-1 $261 $262 $104 $170 reversed $246 $-1 #
edge $-1 $177 -48.26197088534196 $263 48.26197088534196 $169 $264 forward 7 unknown #
coedge $-1 $163 $265 $105 $172 reversed $101 $-1 #
edge $-1 $266 -48.26197088534196 $176 48.26197088534196 $171 $267 forward 7 unknown #
coedge $-1 $166 $106 $265 $268 forward $175 $-1 #
coedge $-1 $106 $166 $261 $269 reversed $175 $-1 #
loop $-1 $-1 $173 $245 #
vertex $-1 $107 $270 #
vertex $-1 $107 $271 #
straight-curve $-1 48.26197088534196 0 10.533810324766085 0 1 0 I I #
face $-1 $272 $273 $25 $-1 $274 forward single #
loop $-1 $-1 $188 $108 #
plane-surface $-1 0 -24.320840114966902 0 0 1 0 0 0 1 forward_v I I I I #
coedge $-1 $275 $276 $184 $277 forward $109 $-1 #
coedge $-1 $190 $111 $192 $278 reversed $69 $-1 #
coedge $-1 $111 $190 $182 $277 reversed $69 $-1 #
coedge $-1 $279 $280 $111 $186 forward $273 $-1 #
edge $-1 $281 -48.26197088534196 $282 48.26197088534196 $185 $283 forward 7 unknown #
coedge $-1 $113 $112 $275 $284 reversed $44 $-1 #
coedge $-1 $285 $286 $112 $189 forward $180 $-1 #
edge $-1 $287 -48.26197088534196 $195 48.26197088534196 $188 $288 forward 7 unknown #
coedge $-1 $184 $183 $113 $191 reversed $69 $-1 #
edge $-1 $289 -48.26197088534196 $196 48.26197088534196 $190 $290 forward 7 unknown #
coedge $-1 $291 $114 $183 $278 forward $194 $-1 #
coedge $-1 $114 $291 $285 $292 forward $194 $-1 #
loop $-1 $-1 $192 $272 #
vertex $-1 $189 $293 #
vertex $-1 $115 $294 #
straight-curve $-1 48.26197088534196 -9.0611372250041278 4.3373567583771511 0 1 0 I I #
face $-1 $-1 $295 $26 $-1 $296 forward single #
loop $-1 $-1 $297 $116 #
plane-surface $-1 -48.26197088534196 0 0 1 0 0 0 0 -1 forward_v I I I I #
coedge $-1 $202 $119 $121 $208 reversed $73 $-1 #
coedge $-1 $119 $201 $297 $298 reversed $73 $-1 #
coedge $-1 $299 $122 $119 $204 forward $117 $-1 #
edge $-1 $211 -19.737920278550256 $300 -14.913769580564484 $203 $301 forward 7 unknown #
coedge $-1 $121 $120 $302 $303 reversed $47 $-1 #
coedge $-1 $304 $305 $120 $207 forward $295 $-1 #
edge $-1 $306 -15.616463501088976 $210 -7.4091279621007953 $206 $307 forward 7 unknown #
edge $-1 $308 1.2080531203272332e-014 $211 8.2073355389881932 $201 $309 forward 7 unknown #
coedge $-1 $122 $299 $304 $310 forward $117 $-1 #
vertex $-1 $207 $311 #
vertex $-1 $123 $312 #
straight-curve $-1 -43.437820187356188 -4.028944873398336 10.533810324766083 0 1 0 I I #
coedge $-1 $213 $213 $-1 $313 reversed $126 $-1 #
edge $-1 $314 0 $314 6.2831853071796004 $127 $315 forward 7 unknown #
vertex $-1 $130 $316 #
ellipse-curve $-1 -45.849895536349074 -10.377381169748432 7.2138733263931556 -0.80901700255871778 0 0.5877852410284794 0.2938926205142397 0 0.40450850127935889 1 I I #
coedge $-1 $217 $217 $-1 $317 reversed $133 $-1 #
edge $-1 $318 0 $318 6.2831853071796004 $134 $319 forward 7 unknown #
vertex $-1 $137 $320 #
ellipse-curve $-1 -45.849895536349074 -8.0578897467966719 7.2138733263931556 -0.80901700255871778 0 0.5877852410284794 0.2938926205142397 0 0.40450850127935889 1 I I #
coedge $-1 $221 $221 $-1 $321 reversed $140 $-1 #
edge $-1 $322 0 $322 6.2831853071796004 $141 $323 forward 7 unknown #
vertex $-1 $144 $324 #
ellipse-curve $-1 -45.849895536349074 -5.7383983238449119 7.2138733263931556 -0.80901700255871778 0 0.5877852410284794 0.2938926205142397 0 0.40450850127935889 1 I I #
face $-1 $-1 $237 $30 $-1 $325 forward single #
loop $-1 $-1 $326 $145 #
plane-surface $-1 48.26197088534196 0 0 -1 0 0 0 0 1 forward_v I I I I #
coedge $-1 $327 $328 $329 $330 reversed $146 $-1 #
coedge $-1 $331 $148 $150 $235 forward $92 $-1 #
coedge $-1 $148 $331 $327 $332 forward $92 $-1 #
coedge $-1 $329 $151 $148 $232 forward $237 $-1 #
edge $-1 $239 -4.5931063627914668 $333 2.8153461481172819 $231 $334 forward 7 unknown #
coedge $-1 $335 $336 $149 $234 forward $226 $-1 #
edge $-1 $337 -63.896206537707421 $238 -59.092478945990472 $233 $338 forward 7 unknown #
edge $-1 $239 87.703921133261233 $337 96.523941770683919 $150 $339 forward 7 unknown #
coedge $-1 $151 $329 $335 $340 forward $237 $-1 #
loop $-1 $-1 $329 $225 #
vertex $-1 $234 $341 #
vertex $-1 $152 $342 #
straight-curve $-1 9.9404447290522988 5.4819864701285592 10.53381032476608 -1 0 0 I I #
coedge $-1 $241 $241 $-1 $343 reversed $155 $-1 #
edge $-1 $344 0 $344 6.2831853071796004 $156 $345 forward 7 unknown #
vertex $-1 $159 $346 #
ellipse-curve $-1 44.563425047139489 1.7777602146741849 8.1319465289076049 0.54463904215088732 0 0.83867056331134215 1.2580058449670133 0 -0.81695856322633098 1 I I #
face $-1 $-1 $175 $24 $-1 $347 reversed single #
loop $-1 $-1 $261 $160 #
plane-surface $-1 0 24.320840114966902 0 0 -1 0 0 0 -1 forward_v I I I I #
coedge $-1 $348 $259 $262 $349 forward $161 $-1 #
coedge $-1 $265 $163 $164 $253 reversed $101 $-1 #
coedge $-1 $259 $348 $163 $251 reversed $161 $-1 #
edge $-1 $266 -10.533810324766085 $350 10.533810324766085 $250 $351 forward 7 unknown #
coedge $-1 $165 $164 $348 $352 forward $65 $-1 #
edge $-1 $257 -48.26197088534196 $350 48.26197088534196 $249 $353 forward 7 unknown #
coedge $-1 $262 $261 $165 $255 reversed $246 $-1 #
edge $-1 $354 -48.26197088534196 $256 48.26197088534196 $254 $355 forward 7 unknown #
vertex $-1 $167 $356 #
vertex $-1 $268 $357 #
straight-curve $-1 48.26197088534196 0 -10.533810324766085 0 -1 0 I I #
coedge $-1 $248 $250 $168 $260 reversed $161 $-1 #
edge $-1 $263 -24.320840114966902 $266 24.320840114966902 $259 $358 forward 7 unknown #
coedge $-1 $254 $169 $174 $269 forward $246 $-1 #
coedge $-1 $169 $254 $248 $349 reversed $246 $-1 #
vertex $-1 $170 $359 #
straight-curve $-1 0 24.320840114966902 10.533810324766085 -1 0 0 I I #
coedge $-1 $171 $249 $173 $268 reversed $101 $-1 #
vertex $-1 $260 $360 #
straight-curve $-1 0 -24.320840114966902 10.533810324766085 1 0 0 I I #
edge $-1 $176 -10.533810324766085 $257 10.533810324766085 $173 $361 forward 7 unknown #
edge $-1 $177 -10.533810324766085 $256 10.533810324766085 $174 $362 forward 7 unknown #
point $-1 48.26197088534196 -24.320840114966902 10.533810324766085 #
point $-1 48.26197088534196 24.320840114966902 10.533810324766085 #
face $-1 $-1 $194 $25 $-1 $363 reversed single #
loop $-1 $-1 $185 $179 #
plane-surface $-1 0 0 10.533810324766085 0 0 1 1 0 0 forward_v I I I I #
coedge $-1 $364 $182 $187 $284 forward $109 $-1 #
coedge $-1 $182 $364 $279 $365 reversed $109 $-1 #
edge $-1 $282 -6.8160185539802773 $289 -0.6195649875913416 $182 $366 forward 7 unknown #
edge $-1 $196 0.6195649875913416 $281 6.8160185539802773 $192 $367 forward 7 unknown #
coedge $-1 $368 $185 $276 $365 forward $273 $-1 #
coedge $-1 $185 $368 $291 $369 forward $273 $-1 #
vertex $-1 $278 $370 #
vertex $-1 $365 $371 #
straight-curve $-1 0 -11.923708785049607 10.533810324766085 -1 0 0 I I #
edge $-1 $289 2.8625715600454793 $287 15.259702889962778 $275 $372 forward 7 unknown #
coedge $-1 $373 $188 $193 $292 reversed $180 $-1 #
coedge $-1 $188 $373 $364 $374 forward $180 $-1 #
vertex $-1 $189 $375 #
straight-curve $-1 0 -24.320840114966902 4.3373567583771511 1 0 0 I I #
vertex $-1 $284 $376 #
straight-curve $-1 0 -11.923708785049607 4.3373567583771511 1 0 0 I I #
coedge $-1 $193 $192 $280 $369 reversed $194 $-1 #
edge $-1 $377 -10.533810324766085 $195 -4.3373567583771511 $193 $378 forward 7 unknown #
point $-1 48.26197088534196 -24.320840114966906 4.3373567583771511 #
point $-1 48.26197088534196 -11.923708785049607 4.3373567583771511 #
loop $-1 $-1 $206 $198 #
plane-surface $-1 0 -11.923708785049607 7.4355835415716189 0 -1 0 0 0 -1 forward_v I I I I #
coedge $-1 $302 $379 $202 $298 forward $199 $-1 #
edge $-1 $300 19.780832028594205 $308 26.42070602534006 $297 $380 forward 7 unknown #
coedge $-1 $209 $203 $379 $381 forward $117 $-1 #
vertex $-1 $381 $382 #
straight-curve $-1 -63.175740465906443 -4.1920707085437403 10.533810324766087 -1 0 0 I I #
coedge $-1 $383 $297 $205 $303 forward $199 $-1 #
edge $-1 $308 0.16312583514540435 $306 7.8947639116512676 $302 $384 forward 7 unknown #
coedge $-1 $305 $206 $209 $310 reversed $295 $-1 #
coedge $-1 $206 $304 $383 $385 reversed $295 $-1 #
vertex $-1 $385 $386 #
straight-curve $-1 -39.082844122341925 -11.923708785049607 16.527920820238851 0.5877852410284794 0 0.80901700255871778 I I #
vertex $-1 $303 $387 #
straight-curve $-1 -48.261970885341967 -4.1920707085437403 3.8939363280202173 0.5877852410284794 0 0.80901700255871778 I I #
edge $-1 $388 -48.26197088534196 $210 -43.437820187356188 $209 $389 forward 7 unknown #
point $-1 -43.437820187356188 -11.923708785049607 10.533810324766085 #
point $-1 -43.437820187356188 -4.1920707085437403 10.533810324766085 #
edge $-1 $390 1 $390 0 $213 $-1 forward 7 unknown #
vertex $-1 $214 $391 #
ellipse-curve $-1 -45.040878533790348 -10.377381169748432 6.626088085364672 -0.80901700255871778 0 0.5877852410284794 0.2938926205142397 0 0.40450850127935889 1 I I #
point $-1 -45.556002915834831 -10.377381169748432 7.6183818276725095 #
edge $-1 $392 1 $392 0 $217 $-1 forward 7 unknown #
vertex $-1 $218 $393 #
ellipse-curve $-1 -45.040878533790348 -8.0578897467966719 6.626088085364672 -0.80901700255871778 0 0.5877852410284794 0.2938926205142397 0 0.40450850127935889 1 I I #
point $-1 -45.556002915834831 -8.0578897467966719 7.6183818276725095 #
edge $-1 $394 1 $394 0 $221 $-1 forward 7 unknown #
vertex $-1 $222 $395 #
ellipse-curve $-1 -45.040878533790348 -5.7383983238449119 6.626088085364672 -0.80901700255871778 0 0.5877852410284794 0.2938926205142397 0 0.40450850127935889 1 I I #
point $-1 -45.556002915834831 -5.7383983238449119 7.6183818276725095 #
plane-surface $-1 0 0 10.533810324766085 0 0 1 1 0 0 forward_v I I I I #
coedge $-1 $336 $335 $328 $396 forward $226 $-1 #
coedge $-1 $328 $228 $230 $332 reversed $146 $-1 #
coedge $-1 $228 $327 $326 $396 reversed $146 $-1 #
coedge $-1 $236 $231 $228 $330 forward $237 $-1 #
edge $-1 $333 30.924434479884713 $397 38.321526156289664 $329 $398 forward 7 unknown #
coedge $-1 $230 $229 $336 $399 reversed $92 $-1 #
edge $-1 $400 -96.523941770683919 $333 -87.703921133261233 $327 $401 forward 7 unknown #
vertex $-1 $232 $402 #
straight-curve $-1 40.864879208937012 0.88888010733709244 10.533810324766087 0 -1 0 I I #
coedge $-1 $326 $233 $236 $340 reversed $226 $-1 #
coedge $-1 $233 $326 $331 $399 forward $226 $-1 #
vertex $-1 $234 $403 #
straight-curve $-1 48.26197088534196 5.4819864701285592 69.626289270756558 0 0 1 I I #
straight-curve $-1 -32.689817732508715 5.4819864701285592 58.30078992366245 0.83867056331134215 0 -0.54463904215088732 I I #
edge $-1 $397 -1.9264660407801895 $238 5.4819864701285592 $335 $404 forward 7 unknown #
point $-1 48.26197088534196 5.4819864701285592 10.533810324766085 #
point $-1 40.864879208937012 5.4819864701285592 10.533810324766087 #
edge $-1 $405 1 $405 0 $241 $-1 forward 7 unknown #
vertex $-1 $242 $406 #
ellipse-curve $-1 41.46493136741551 1.7777602146741849 3.3606847597764475 0.54463904215088732 0 0.83867056331134215 1.2580058449670133 0 -0.81695856322633098 1 I I #
point $-1 45.821430892106498 1.7777602146741849 7.3149879656812704 #
plane-surface $-1 48.26197088534196 0 0 -1 0 0 0 0 1 forward_v I I I I #
coedge $-1 $250 $248 $252 $352 reversed $161 $-1 #
edge $-1 $263 -10.533810324766085 $354 10.533810324766085 $262 $407 forward 7 unknown #
vertex $-1 $352 $408 #
straight-curve $-1 -48.26197088534196 -24.320840114966902 0 0 0 -1 I I #
edge $-1 $350 -24.320840114966902 $354 24.320840114966902 $348 $409 forward 7 unknown #
straight-curve $-1 0 -24.320840114966902 -10.533810324766085 -1 0 0 I I #
vertex $-1 $255 $410 #
straight-curve $-1 0 24.320840114966902 -10.533810324766085 1 0 0 I I #
point $-1 48.26197088534196 24.320840114966902 -10.533810324766085 #
point $-1 48.26197088534196 -24.320840114966902 -10.533810324766085 #
straight-curve $-1 -48.26197088534196 0 10.533810324766085 0 -1 0 I I #
point $-1 -48.26197088534196 24.320840114966902 10.533810324766085 #
point $-1 -48.26197088534196 -24.320840114966902 10.533810324766085 #
straight-curve $-1 48.26197088534196 -24.320840114966902 0 0 0 -1 I I #
straight-curve $-1 48.26197088534196 24.320840114966902 0 0 0 -1 I I #
plane-surface $-1 48.26197088534196 0 0 -1 0 0 0 0 1 forward_v I I I I #
coedge $-1 $276 $275 $286 $374 reversed $109 $-1 #
edge $-1 $282 11.923708785049607 $411 24.320840114966902 $276 $412 forward 7 unknown #
straight-curve $-1 -48.26197088534196 -11.923708785049607 3.7177917707858095 0 0 -1 I I #
straight-curve $-1 48.26197088534196 -11.923708785049607 3.7177917707858095 0 0 1 I I #
coedge $-1 $280 $279 $373 $413 forward $273 $-1 #
edge $-1 $377 -24.320840114966902 $281 -11.923708785049607 $291 $414 forward 7 unknown #
point $-1 48.26197088534196 -11.923708785049607 10.533810324766087 #
point $-1 -48.26197088534196 -11.923708785049607 10.533810324766087 #
straight-curve $-1 -48.26197088534196 -9.0611372250041278 4.3373567583771511 0 -1 0 I I #
coedge $-1 $286 $285 $368 $413 reversed $180 $-1 #
edge $-1 $411 -10.533810324766085 $287 -4.3373567583771511 $364 $415 forward 7 unknown #
point $-1 -48.26197088534196 -24.320840114966906 4.3373567583771511 #
point $-1 -48.26197088534196 -11.923708785049607 4.3373567583771511 #
vertex $-1 $369 $416 #
straight-curve $-1 48.26197088534196 -24.320840114966902 0 0 0 -1 I I #
coedge $-1 $297 $383 $299 $381 reversed $199 $-1 #
straight-curve $-1 -48.26197088534196 -4.1920707085437403 30.314642353360288 0 0 -1 I I #
edge $-1 $300 4.1920707085437403 $388 11.923708785049607 $379 $417 forward 7 unknown #
point $-1 -48.26197088534196 -4.1920707085437403 10.533810324766085 #
coedge $-1 $379 $302 $305 $385 forward $199 $-1 #
straight-curve $-1 -48.26197088534196 -4.028944873398336 3.8939363280202315 0 -1 0 I I #
edge $-1 $306 -26.42070602534006 $388 -19.780832028594201 $383 $418 forward 7 unknown #
point $-1 -48.26197088534196 -11.923708785049604 3.893936328020227 #
point $-1 -48.26197088534196 -4.1920707085437403 3.893936328020227 #
vertex $-1 $385 $419 #
straight-curve $-1 0 -11.923708785049607 10.533810324766085 1 0 0 I I #
vertex $-1 $313 $420 #
point $-1 -44.746985913276113 -10.377381169748432 7.0305965866440303 #
vertex $-1 $317 $421 #
point $-1 -44.746985913276113 -8.0578897467966719 7.0305965866440303 #
vertex $-1 $321 $422 #
point $-1 -44.746985913276113 -5.7383983238449119 7.0305965866440303 #
edge $-1 $397 59.092478945990472 $400 63.896206537707421 $326 $423 forward 7 unknown #
vertex $-1 $340 $424 #
straight-curve $-1 9.9404447290522988 -1.9264660407801895 10.53381032476608 1 0 0 I I #
edge $-1 $400 -2.8153461481172819 $337 4.5931063627914668 $336 $425 forward 7 unknown #
vertex $-1 $399 $426 #
straight-curve $-1 -32.689817732508715 -1.9264660407801895 58.30078992366245 -0.83867056331134215 0 0.54463904215088732 I I #
point $-1 40.864879208937012 -1.9264660407801895 10.533810324766087 #
point $-1 48.261970885341952 5.4819864701285592 5.7300827330491373 #
straight-curve $-1 48.26197088534196 0 10.533810324766085 0 1 0 I I #
vertex $-1 $343 $427 #
point $-1 42.722937212382519 1.7777602146741849 2.5437261965501166 #
straight-curve $-1 -48.26197088534196 24.320840114966902 0 0 0 -1 I I #
point $-1 -48.26197088534196 -24.320840114966902 -10.533810324766085 #
straight-curve $-1 -48.26197088534196 0 -10.533810324766085 0 1 0 I I #
point $-1 -48.26197088534196 24.320840114966902 -10.533810324766085 #
vertex $-1 $365 $428 #
straight-curve $-1 -48.26197088534196 0 10.533810324766085 0 -1 0 I I #
edge $-1 $411 -48.26197088534196 $377 48.26197088534196 $373 $429 forward 7 unknown #
straight-curve $-1 48.26197088534196 0 10.533810324766085 0 1 0 I I #
straight-curve $-1 -48.26197088534196 -24.320840114966902 0 0 0 -1 I I #
point $-1 48.26197088534196 -24.320840114966902 10.533810324766085 #
straight-curve $-1 -48.26197088534196 0 10.533810324766085 0 -1 0 I I #
straight-curve $-1 -48.26197088534196 -11.923708785049604 30.314642353360288 0 0 1 I I #
point $-1 -48.26197088534196 -11.923708785049607 10.533810324766087 #
point $-1 -44.636370032510996 -10.377381169748432 6.3321954648504315 #
point $-1 -44.636370032510996 -8.0578897467966719 6.3321954648504315 #
point $-1 -44.636370032510996 -5.7383983238449119 6.3321954648504315 #
straight-curve $-1 48.26197088534196 -1.9264660407801895 69.626289270756558 0 0 -1 I I #
point $-1 48.26197088534196 -1.9264660407801895 10.533810324766085 #
straight-curve $-1 48.261970885341952 0.88888010733709244 5.7300827330491408 0 1 0 I I #
point $-1 48.261970885341952 -1.9264660407801895 5.7300827330491373 #
point $-1 40.647972804189173 1.7777602146741849 2.102678914809434 #
point $-1 -48.26197088534196 -24.320840114966902 10.533810324766085 #
straight-curve $-1 0 -24.320840114966902 10.533810324766085 1 0 0 I I #
End-of-ACIS-data 