500 0 7 0           
7 Unknown 11 ACIS 5.0 NT 24 Fri Mar 26 18:22:33 1999 
-1 9.9999999999999995e-007 1e-010 
body $-1 $7 $-1 $8 #
body $-1 $9 $-1 $10 #
body $-1 $11 $-1 $12 #
body $-1 $13 $-1 $14 #
body $-1 $15 $-1 $16 #
body $-1 $17 $-1 $18 #
body $-1 $19 $-1 $20 #
lump $-1 $-1 $21 $0 #
transform $-1 1 0 0 0 1 0 0 0 1 61.778008362071596 39.753649699905033 16.134519852109349 1 rotate no_reflect no_shear #
lump $-1 $-1 $22 $1 #
transform $-1 1 0 0 0 1 0 0 0 1 61.778008362071596 39.753649699905033 16.134519852109349 1 rotate no_reflect no_shear #
lump $-1 $-1 $23 $2 #
transform $-1 1 0 0 0 1 0 0 0 1 61.778008362071596 39.753649699905033 16.134519852109349 1 rotate no_reflect no_shear #
lump $-1 $-1 $24 $3 #
transform $-1 1 0 0 0 1 0 0 0 1 61.778008362071596 39.753649699905033 16.134519852109349 1 rotate no_reflect no_shear #
lump $-1 $-1 $25 $4 #
transform $-1 1 0 0 0 1 0 0 0 1 61.778008362071596 39.753649699905033 16.134519852109349 1 rotate no_reflect no_shear #
lump $-1 $-1 $26 $5 #
transform $-1 1 0 0 0 1 0 0 0 1 61.778008362071596 39.753649699905033 16.134519852109349 1 rotate no_reflect no_shear #
lump $-1 $-1 $27 $6 #
transform $-1 1 0 0 0 1 0 0 0 1 61.778008362071596 39.753649699905033 16.134519852109349 1 rotate no_reflect no_shear #
shell $-1 $-1 $-1 $28 $-1 $7 #
shell $-1 $-1 $-1 $29 $-1 $9 #
shell $-1 $-1 $-1 $30 $-1 $11 #
shell $-1 $-1 $-1 $31 $-1 $13 #
shell $-1 $-1 $-1 $32 $-1 $15 #
shell $-1 $-1 $-1 $33 $-1 $17 #
shell $-1 $-1 $-1 $34 $-1 $19 #
face $-1 $35 $36 $21 $-1 $37 forward single #
face $-1 $38 $39 $22 $-1 $40 forward single #
face $-1 $41 $42 $23 $-1 $43 reversed single #
face $-1 $44 $45 $24 $-1 $46 forward single #
face $-1 $47 $48 $25 $-1 $49 forward single #
face $-1 $50 $51 $26 $-1 $52 reversed single #
face $-1 $53 $54 $27 $-1 $55 forward single #
face $-1 $56 $57 $21 $-1 $58 reversed single #
loop $-1 $-1 $59 $28 #
plane-surface $-1 0 0 16.134519852109349 0 0 1 1 0 0 forward_v I I I I #
face $-1 $60 $61 $22 $-1 $62 reversed single #
loop $-1 $-1 $63 $29 #
plane-surface $-1 -61.778008362071596 0 0 1 0 0 0 0 -1 forward_v I I I I #
face $-1 $64 $65 $23 $-1 $66 reversed single #
loop $-1 $-1 $67 $30 #
plane-surface $-1 -33.147215985895613 35.238646658224788 152.81122897236156 1 0 0 0 -0.51503808176128008 -0.85716729658548041 forward_v I I I I #
face $-1 $68 $69 $24 $-1 $70 forward single #
loop $-1 $71 $72 $31 #
cone-surface $-1 -28.849015597504376 30.557560600119057 9.8387403735270631 0 -0.51503808176128008 -0.85716729658548041 1 0 0 1 I I 0 1 1 forward I I I I #
face $-1 $73 $74 $25 $-1 $75 forward single #
loop $-1 $76 $77 $32 #
cone-surface $-1 -22.401715014917514 30.557560600119057 9.8387403735270631 0 -0.51503808176128008 -0.85716729658548041 1 0 0 1 I I 0 1 1 forward I I I I #
face $-1 $78 $79 $26 $-1 $80 reversed single #
loop $-1 $-1 $81 $33 #
plane-surface $-1 -8.2992655695622872 -110.62247037561983 102.52754120503334 -1 0 0 0 -0.57357644374324357 0.81915203911291934 forward_v I I I I #
face $-1 $82 $83 $27 $-1 $84 forward single #
loop $-1 $85 $86 $34 #
cone-surface $-1 -19.616651089648791 -26.35929887718293 4.7079241179398714 0 0.57357644374324357 -0.81915203911291934 3 0 0 1 I I 0 1 3 forward I I I I #
face $-1 $87 $88 $21 $-1 $89 reversed single #
loop $-1 $-1 $90 $35 #
plane-surface $-1 0 0 -16.134519852109349 0 0 1 1 0 0 forward_v I I I I #
coedge $-1 $91 $92 $93 $94 forward $36 $-1 #
face $-1 $95 $96 $22 $-1 $97 reversed single #
loop $-1 $-1 $98 $38 #
plane-surface $-1 0 39.753649699905033 0 0 -1 0 0 0 -1 forward_v I I I I #
coedge $-1 $99 $100 $101 $102 forward $39 $-1 #
face $-1 $103 $104 $23 $-1 $105 reversed single #
loop $-1 $-1 $106 $41 #
plane-surface $-1 -25.625365306210945 -28.39740718544256 46.903052140057341 0 0.51503808176128008 0.85716729658548041 1 0 0 forward_v I I I I #
coedge $-1 $107 $108 $109 $110 reversed $42 $-1 #
face $-1 $-1 $111 $24 $-1 $112 forward single #
loop $-1 $113 $114 $44 #
cone-surface $-1 -28.849015597504376 29.575762871245068 8.2047545871270096 0 -0.51503808176128008 -0.85716729658548041 0.5 0 0 1 I I -0.70710678118654746 0.70710678118654746 0.5 forward I I I I #
loop $-1 $-1 $115 $31 #
coedge $-1 $72 $72 $116 $117 reversed $45 $-1 #
face $-1 $-1 $118 $25 $-1 $119 forward single #
loop $-1 $120 $121 $47 #
cone-surface $-1 -22.401715014917514 29.575762871245068 8.2047545871270096 0 -0.51503808176128008 -0.85716729658548041 0.5 0 0 1 I I -0.70710678118654746 0.70710678118654746 0.5 forward I I I I #
loop $-1 $-1 $122 $32 #
coedge $-1 $77 $77 $123 $124 reversed $48 $-1 #
face $-1 $125 $126 $26 $-1 $127 reversed single #
loop $-1 $-1 $128 $50 #
plane-surface $-1 -19.616651089648791 -39.75364969990504 1.3163781607814684 0 -0.57357644374324357 0.81915203911291934 1 0 0 forward_v I I I I #
coedge $-1 $129 $130 $131 $132 reversed $51 $-1 #
face $-1 $-1 $133 $27 $-1 $134 forward single #
loop $-1 $135 $136 $53 #
cone-surface $-1 -19.616651089648791 -22.685832945660906 -0.53832882923505565 0 0.57357644374324357 -0.81915203911291934 1.5 0 0 1 I I -0.70710678118654757 0.70710678118654757 1.5 forward I I I I #
loop $-1 $-1 $137 $34 #
coedge $-1 $86 $86 $138 $139 reversed $54 $-1 #
face $-1 $140 $141 $21 $-1 $142 reversed single #
loop $-1 $-1 $143 $56 #
plane-surface $-1 0 -39.753649699905033 0 0 1 0 0 0 1 forward_v I I I I #
coedge $-1 $144 $145 $146 $147 forward $57 $-1 #
coedge $-1 $148 $59 $149 $150 forward $36 $-1 #
coedge $-1 $59 $148 $151 $152 forward $36 $-1 #
coedge $-1 $153 $154 $59 $94 reversed $155 $-1 #
edge $-1 $156 -39.753649699905033 $157 39.753649699905033 $93 $158 forward 7 unknown #
face $-1 $159 $160 $22 $-1 $161 reversed single #
loop $-1 $-1 $101 $60 #
plane-surface $-1 -71.890891219221771 0 7.5778620781890975 0 0 1 1 0 0 forward_v I I I I #
coedge $-1 $162 $163 $99 $164 forward $61 $-1 #
coedge $-1 $165 $63 $98 $164 reversed $39 $-1 #
coedge $-1 $63 $165 $166 $167 reversed $39 $-1 #
coedge $-1 $168 $169 $63 $102 reversed $96 $-1 #
edge $-1 $170 -39.753649699905033 $171 39.753649699905033 $101 $172 forward 7 unknown #
face $-1 $173 $174 $23 $-1 $175 forward single #
loop $-1 $-1 $176 $64 #
plane-surface $-1 -18.103514626526273 35.238646658224788 152.81122897236156 -1 0 0 0 0.51503808176128008 0.85716729658548041 forward_v I I I I #
coedge $-1 $177 $178 $179 $180 reversed $65 $-1 #
coedge $-1 $108 $67 $181 $182 reversed $42 $-1 #
coedge $-1 $67 $107 $177 $183 reversed $42 $-1 #
coedge $-1 $179 $184 $67 $110 forward $174 $-1 #
edge $-1 $185 -22.134326370792639 $186 -5.1907055472073331 $109 $187 forward 7 unknown #
loop $-1 $-1 $116 $68 #
plane-surface $-1 -25.625365306210945 -28.39740718544256 46.903052140057341 0 0.51503808176128008 0.85716729658548041 1 0 0 forward_v I I I I #
loop $-1 $-1 $188 $44 #
coedge $-1 $114 $114 $115 $189 reversed $69 $-1 #
coedge $-1 $115 $115 $114 $189 forward $71 $-1 #
coedge $-1 $116 $116 $72 $117 forward $111 $-1 #
edge $-1 $190 -3.0583742316829887e-015 $190 6.2831853071795978 $116 $191 forward 7 unknown #
loop $-1 $-1 $123 $73 #
plane-surface $-1 -25.625365306210945 -28.39740718544256 46.903052140057341 0 0.51503808176128008 0.85716729658548041 1 0 0 forward_v I I I I #
loop $-1 $-1 $192 $47 #
coedge $-1 $121 $121 $122 $193 reversed $74 $-1 #
coedge $-1 $122 $122 $121 $193 forward $76 $-1 #
coedge $-1 $123 $123 $77 $124 forward $118 $-1 #
edge $-1 $194 -3.0583742316829887e-015 $194 6.2831853071795978 $123 $195 forward 7 unknown #
face $-1 $196 $197 $26 $-1 $198 reversed single #
loop $-1 $-1 $199 $78 #
plane-surface $-1 -30.934036609735294 -110.62247037561983 102.52754120503334 1 0 0 0 0.57357644374324357 -0.81915203911291934 forward_v I I I I #
coedge $-1 $200 $201 $202 $203 reversed $79 $-1 #
coedge $-1 $130 $81 $204 $205 reversed $51 $-1 #
coedge $-1 $81 $129 $200 $206 reversed $51 $-1 #
coedge $-1 $202 $207 $81 $132 forward $208 $-1 #
edge $-1 $209 15.55758548790488 $210 36.720084601534793 $131 $211 forward 7 unknown #
loop $-1 $-1 $138 $82 #
plane-surface $-1 -19.616651089648791 -39.75364969990504 1.3163781607814684 0 -0.57357644374324357 0.81915203911291934 1 0 0 forward_v I I I I #
loop $-1 $-1 $212 $53 #
coedge $-1 $136 $136 $137 $213 reversed $83 $-1 #
coedge $-1 $137 $137 $136 $213 forward $85 $-1 #
coedge $-1 $138 $138 $86 $139 forward $133 $-1 #
edge $-1 $214 9.7611107941839768e-017 $214 6.2831853071796004 $138 $215 forward 7 unknown #
face $-1 $216 $217 $21 $-1 $218 reversed single #
loop $-1 $-1 $219 $87 #
plane-surface $-1 -61.778008362071596 0 0 1 0 0 0 0 -1 forward_v I I I I #
coedge $-1 $220 $151 $221 $222 forward $88 $-1 #
coedge $-1 $223 $90 $220 $224 forward $57 $-1 #
coedge $-1 $90 $223 $225 $226 forward $57 $-1 #
coedge $-1 $154 $153 $90 $147 reversed $155 $-1 #
edge $-1 $227 -39.753649699905033 $228 39.753649699905033 $146 $229 forward 7 unknown #
coedge $-1 $92 $91 $230 $231 forward $36 $-1 #
coedge $-1 $232 $233 $91 $150 reversed $217 $-1 #
edge $-1 $157 -61.778008362071596 $234 61.778008362071596 $149 $235 forward 7 unknown #
coedge $-1 $143 $236 $92 $152 reversed $88 $-1 #
edge $-1 $237 -61.778008362071596 $156 61.778008362071596 $151 $238 forward 7 unknown #
coedge $-1 $146 $93 $236 $239 forward $155 $-1 #
coedge $-1 $93 $146 $232 $240 reversed $155 $-1 #
loop $-1 $-1 $153 $216 #
vertex $-1 $94 $241 #
vertex $-1 $94 $242 #
straight-curve $-1 61.778008362071596 0 16.134519852109349 0 1 0 I I #
face $-1 $243 $244 $22 $-1 $245 forward single #
loop $-1 $-1 $246 $95 #
plane-surface $-1 -82.00377407637194 0 11.856190965149224 1 0 0 0 0 -1 forward_v I I I I #
coedge $-1 $247 $98 $169 $248 reversed $61 $-1 #
coedge $-1 $98 $247 $249 $250 reversed $61 $-1 #
edge $-1 $251 -16.134519852109349 $171 -7.5778620781890975 $98 $252 forward 7 unknown #
coedge $-1 $100 $99 $253 $254 reversed $39 $-1 #
coedge $-1 $255 $256 $100 $167 forward $257 $-1 #
edge $-1 $170 7.5778620781890975 $258 16.134519852109349 $166 $259 forward 7 unknown #
coedge $-1 $260 $101 $256 $261 forward $96 $-1 #
coedge $-1 $101 $260 $162 $248 forward $96 $-1 #
vertex $-1 $167 $262 #
vertex $-1 $164 $263 #
straight-curve $-1 -61.778008362071596 0 7.5778620781890975 0 1 0 I I #
face $-1 $-1 $264 $23 $-1 $265 reversed single #
loop $-1 $-1 $109 $103 #
plane-surface $-1 0 0 16.134519852109349 0 0 1 1 0 0 forward_v I I I I #
coedge $-1 $266 $267 $268 $269 reversed $104 $-1 #
coedge $-1 $270 $106 $108 $183 forward $65 $-1 #
coedge $-1 $106 $270 $266 $271 forward $65 $-1 #
coedge $-1 $268 $109 $106 $180 forward $174 $-1 #
edge $-1 $186 -20.334533332790141 $272 -5.2908319734208007 $179 $273 forward 7 unknown #
coedge $-1 $274 $275 $107 $182 forward $264 $-1 #
edge $-1 $276 -70.451849315021406 $185 -60.271094634071432 $181 $277 forward 7 unknown #
edge $-1 $186 59.74030538232936 $276 79.50729939981008 $108 $278 forward 7 unknown #
coedge $-1 $109 $268 $274 $279 forward $174 $-1 #
vertex $-1 $182 $280 #
vertex $-1 $110 $281 #
straight-curve $-1 -33.147215985895613 17.619323329112394 16.134519852109349 0 -1 0 I I #
coedge $-1 $188 $188 $-1 $282 reversed $113 $-1 #
edge $-1 $283 0 $283 6.2831853071796004 $114 $284 forward 7 unknown #
vertex $-1 $117 $285 #
ellipse-curve $-1 -28.849015597504376 31.281839288112394 11.044142511634359 0 0.51503808176128008 0.85716729658548041 1 0 0 1 I I #
coedge $-1 $192 $192 $-1 $286 reversed $120 $-1 #
edge $-1 $287 0 $287 6.2831853071796004 $121 $288 forward 7 unknown #
vertex $-1 $124 $289 #
ellipse-curve $-1 -22.401715014917514 31.281839288112394 11.044142511634359 0 0.51503808176128008 0.85716729658548041 1 0 0 1 I I #
face $-1 $-1 $208 $26 $-1 $290 forward single #
loop $-1 $-1 $291 $125 #
plane-surface $-1 0 -39.753649699905033 0 0 1 0 0 0 1 forward_v I I I I #
coedge $-1 $292 $293 $294 $295 reversed $126 $-1 #
coedge $-1 $296 $128 $130 $206 forward $79 $-1 #
coedge $-1 $128 $296 $292 $297 forward $79 $-1 #
coedge $-1 $294 $131 $128 $203 forward $208 $-1 #
edge $-1 $210 -1.5090599752621081 $298 21.125711064910899 $202 $299 forward 7 unknown #
coedge $-1 $300 $301 $129 $205 forward $197 $-1 #
edge $-1 $302 -49.947392441735197 $209 -35.129250750407323 $204 $303 forward 7 unknown #
edge $-1 $210 -25.834641315850639 $302 -8.6223355153435888e-015 $130 $304 forward 7 unknown #
coedge $-1 $131 $294 $300 $305 forward $208 $-1 #
loop $-1 $-1 $294 $196 #
vertex $-1 $205 $306 #
vertex $-1 $132 $307 #
straight-curve $-1 -8.2992655695622872 -55.311235187809913 16.134519852109349 0 1 0 I I #
coedge $-1 $212 $212 $-1 $308 reversed $135 $-1 #
edge $-1 $309 0 $309 6.2831853071796004 $136 $310 forward 7 unknown #
vertex $-1 $139 $311 #
ellipse-curve $-1 -19.616651089648791 -29.17240014309008 8.7254490064454089 0 -0.57357644374324357 0.81915203911291934 3 0 0 1 I I #
face $-1 $-1 $155 $21 $-1 $312 reversed single #
loop $-1 $-1 $232 $140 #
plane-surface $-1 0 39.753649699905033 0 0 -1 0 0 0 -1 forward_v I I I I #
coedge $-1 $313 $230 $233 $314 forward $141 $-1 #
coedge $-1 $236 $143 $144 $224 reversed $88 $-1 #
coedge $-1 $230 $313 $143 $222 reversed $141 $-1 #
edge $-1 $237 -16.134519852109349 $315 16.134519852109349 $221 $316 forward 7 unknown #
coedge $-1 $145 $144 $313 $317 forward $57 $-1 #
edge $-1 $228 -61.778008362071596 $315 61.778008362071596 $220 $318 forward 7 unknown #
coedge $-1 $233 $232 $145 $226 reversed $217 $-1 #
edge $-1 $319 -61.778008362071596 $227 61.778008362071596 $225 $320 forward 7 unknown #
vertex $-1 $147 $321 #
vertex $-1 $239 $322 #
straight-curve $-1 61.778008362071596 0 -16.134519852109349 0 -1 0 I I #
coedge $-1 $219 $221 $148 $231 reversed $141 $-1 #
edge $-1 $234 -39.753649699905033 $237 39.753649699905033 $230 $323 forward 7 unknown #
coedge $-1 $225 $149 $154 $240 forward $217 $-1 #
coedge $-1 $149 $225 $219 $314 reversed $217 $-1 #
vertex $-1 $150 $324 #
straight-curve $-1 0 39.753649699905033 16.134519852109349 -1 0 0 I I #
coedge $-1 $151 $220 $153 $239 reversed $88 $-1 #
vertex $-1 $231 $325 #
straight-curve $-1 0 -39.753649699905033 16.134519852109349 1 0 0 I I #
edge $-1 $156 -16.134519852109349 $228 16.134519852109349 $153 $326 forward 7 unknown #
edge $-1 $157 -16.134519852109349 $227 16.134519852109349 $154 $327 forward 7 unknown #
point $-1 61.778008362071596 -39.753649699905033 16.134519852109349 #
point $-1 61.778008362071596 39.753649699905033 16.134519852109349 #
face $-1 $-1 $257 $22 $-1 $328 reversed single #
loop $-1 $-1 $253 $159 #
plane-surface $-1 0 0 16.134519852109349 0 0 1 1 0 0 forward_v I I I I #
coedge $-1 $329 $330 $247 $331 forward $160 $-1 #
coedge $-1 $163 $162 $246 $331 reversed $61 $-1 #
edge $-1 $332 -10.112882857150169 $171 10.112882857150169 $162 $333 forward 7 unknown #
coedge $-1 $334 $253 $163 $250 forward $244 $-1 #
edge $-1 $251 61.778008362071596 $335 82.00377407637194 $163 $336 forward 7 unknown #
vertex $-1 $250 $337 #
straight-curve $-1 -61.778008362071596 39.753649699905033 0 0 0 -1 I I #
coedge $-1 $249 $338 $165 $254 forward $244 $-1 #
edge $-1 $258 -39.753649699905033 $251 39.753649699905033 $253 $339 forward 7 unknown #
coedge $-1 $340 $166 $338 $341 reversed $257 $-1 #
coedge $-1 $166 $340 $168 $261 reversed $257 $-1 #
loop $-1 $-1 $166 $243 #
vertex $-1 $167 $342 #
straight-curve $-1 -61.778008362071596 -39.753649699905033 0 0 0 1 I I #
coedge $-1 $169 $168 $329 $343 forward $96 $-1 #
edge $-1 $170 -10.112882857150169 $344 10.112882857150169 $256 $345 forward 7 unknown #
point $-1 -61.778008362071603 -39.753649699905033 7.5778620781890975 #
point $-1 -61.778008362071603 39.753649699905033 7.5778620781890975 #
loop $-1 $-1 $181 $173 #
plane-surface $-1 0 39.753649699905033 0 0 -1 0 0 0 -1 forward_v I I I I #
coedge $-1 $267 $176 $178 $271 reversed $104 $-1 #
coedge $-1 $176 $266 $346 $347 reversed $104 $-1 #
coedge $-1 $184 $179 $176 $269 forward $174 $-1 #
edge $-1 $272 5.1907055472073331 $348 22.134326370792639 $268 $349 forward 7 unknown #
coedge $-1 $178 $177 $275 $350 reversed $65 $-1 #
edge $-1 $351 -79.50729939981008 $272 -59.74030538232936 $266 $352 forward 7 unknown #
vertex $-1 $180 $353 #
straight-curve $-1 -12.812682653105472 22.81002887631972 16.134519852109346 1 0 0 I I #
coedge $-1 $346 $181 $184 $279 reversed $264 $-1 #
coedge $-1 $181 $346 $270 $350 forward $264 $-1 #
vertex $-1 $182 $354 #
straight-curve $-1 -33.147215985895613 39.753649699905033 76.405614486180781 0 0 1 I I #
straight-curve $-1 -33.147215985895613 -28.39740718544256 46.903052140057341 0 0.85716729658548041 -0.51503808176128008 I I #
edge $-1 $348 18.103514626526273 $185 33.147215985895613 $274 $355 forward 7 unknown #
point $-1 -33.147215985895613 39.753649699905033 16.134519852109349 #
point $-1 -33.147215985895613 22.810028876319727 16.134519852109349 #
edge $-1 $356 1 $356 0 $188 $-1 forward 7 unknown #
vertex $-1 $189 $357 #
ellipse-curve $-1 -28.849015597504376 29.83328191212571 8.6333382354197497 0 0.51503808176128008 0.85716729658548041 1 0 0 1 I I #
point $-1 -27.849015597504376 31.281839288112401 11.044142511634377 #
edge $-1 $358 1 $358 0 $192 $-1 forward 7 unknown #
vertex $-1 $193 $359 #
ellipse-curve $-1 -22.401715014917514 29.83328191212571 8.6333382354197497 0 0.51503808176128008 0.85716729658548041 1 0 0 1 I I #
point $-1 -21.401715014917514 31.281839288112401 11.044142511634377 #
plane-surface $-1 0 0 16.134519852109349 0 0 1 1 0 0 forward_v I I I I #
coedge $-1 $301 $300 $293 $360 forward $197 $-1 #
coedge $-1 $293 $199 $201 $297 reversed $126 $-1 #
coedge $-1 $199 $292 $291 $360 reversed $126 $-1 #
coedge $-1 $207 $202 $199 $295 forward $208 $-1 #
edge $-1 $298 -36.720084601534793 $361 -15.55758548790488 $294 $362 forward 7 unknown #
coedge $-1 $201 $200 $301 $363 reversed $79 $-1 #
edge $-1 $364 8.6223355153435888e-015 $298 25.834641315850639 $292 $365 forward 7 unknown #
vertex $-1 $203 $366 #
straight-curve $-1 -9.8083255448243953 -18.591150586275113 16.134519852109349 -1 0 0 I I #
coedge $-1 $291 $204 $207 $305 reversed $197 $-1 #
coedge $-1 $204 $291 $296 $363 forward $197 $-1 #
vertex $-1 $205 $367 #
straight-curve $-1 -8.2992655695622872 -39.753649699905033 51.263770602516672 0 0 1 I I #
straight-curve $-1 -8.2992655695622872 -39.75364969990504 1.3163781607814684 0 -0.81915203911291934 -0.57357644374324357 I I #
edge $-1 $361 -30.934036609735294 $209 -8.2992655695622872 $300 $368 forward 7 unknown #
point $-1 -8.2992655695622872 -39.753649699905033 16.134519852109349 #
point $-1 -8.2992655695622872 -18.591150586275116 16.134519852109349 #
edge $-1 $369 1 $369 0 $212 $-1 forward 7 unknown #
vertex $-1 $213 $370 #
ellipse-curve $-1 -19.616651089648791 -23.546197611275772 0.6903992294343233 0 -0.57357644374324357 0.81915203911291934 3 0 0 1 I I #
point $-1 -16.616651089648791 -29.172400143090087 8.7254490064454195 #
plane-surface $-1 61.778008362071596 0 0 -1 0 0 0 0 1 forward_v I I I I #
coedge $-1 $221 $219 $223 $317 reversed $141 $-1 #
edge $-1 $234 -16.134519852109349 $319 16.134519852109349 $233 $371 forward 7 unknown #
vertex $-1 $317 $372 #
straight-curve $-1 -61.778008362071596 -39.753649699905033 0 0 0 -1 I I #
edge $-1 $315 -39.753649699905033 $319 39.753649699905033 $313 $373 forward 7 unknown #
straight-curve $-1 0 -39.753649699905033 -16.134519852109349 -1 0 0 I I #
vertex $-1 $226 $374 #
straight-curve $-1 0 39.753649699905033 -16.134519852109349 1 0 0 I I #
point $-1 61.778008362071596 39.753649699905033 -16.134519852109349 #
point $-1 61.778008362071596 -39.753649699905033 -16.134519852109349 #
straight-curve $-1 -61.778008362071596 0 16.134519852109349 0 -1 0 I I #
point $-1 -61.778008362071596 39.753649699905033 16.134519852109349 #
point $-1 -61.778008362071596 -39.753649699905033 16.134519852109349 #
straight-curve $-1 61.778008362071596 -39.753649699905033 0 0 0 -1 I I #
straight-curve $-1 61.778008362071596 39.753649699905033 0 0 0 -1 I I #
plane-surface $-1 0 -39.753649699905033 0 0 1 0 0 0 1 forward_v I I I I #
coedge $-1 $375 $246 $260 $343 reversed $160 $-1 #
coedge $-1 $246 $375 $334 $376 reversed $160 $-1 #
edge $-1 $335 -4.278328886960125 $332 4.2783288869601268 $247 $377 forward 7 unknown #
vertex $-1 $248 $378 #
straight-curve $-1 -71.890891219221771 39.753649699905033 7.5778620781890975 1 0 0 I I #
coedge $-1 $338 $249 $330 $376 forward $244 $-1 #
vertex $-1 $250 $379 #
straight-curve $-1 0 39.753649699905033 16.134519852109349 -1 0 0 I I #
point $-1 -61.778008362071596 39.753649699905033 16.134519852109349 #
coedge $-1 $253 $334 $255 $341 forward $244 $-1 #
straight-curve $-1 -61.778008362071596 0 16.134519852109349 0 1 0 I I #
coedge $-1 $256 $255 $375 $380 forward $257 $-1 #
edge $-1 $381 -82.00377407637194 $258 -61.778008362071596 $255 $382 forward 7 unknown #
point $-1 -61.778008362071596 -39.753649699905033 16.134519852109349 #
edge $-1 $344 -39.753649699905033 $332 39.753649699905033 $329 $383 forward 7 unknown #
vertex $-1 $343 $384 #
straight-curve $-1 -71.890891219221771 -39.753649699905033 7.5778620781890975 -1 0 0 I I #
coedge $-1 $275 $274 $267 $347 forward $264 $-1 #
edge $-1 $348 60.271094634071432 $351 70.451849315021406 $346 $385 forward 7 unknown #
vertex $-1 $279 $386 #
straight-curve $-1 -18.103514626526273 17.619323329112394 16.134519852109349 0 1 0 I I #
edge $-1 $351 5.2908319734208007 $276 20.334533332790141 $275 $387 forward 7 unknown #
vertex $-1 $350 $388 #
straight-curve $-1 -18.103514626526273 -28.39740718544256 46.903052140057341 0 -0.85716729658548041 0.51503808176128008 I I #
point $-1 -18.103514626526273 22.810028876319727 16.134519852109349 #
point $-1 -33.147215985895613 39.75364969990504 5.9537651711593824 #
straight-curve $-1 0 39.753649699905033 16.134519852109349 -1 0 0 I I #
vertex $-1 $282 $389 #
point $-1 -27.849015597504376 29.83328191212571 8.6333382354197497 #
vertex $-1 $286 $390 #
point $-1 -21.401715014917514 29.83328191212571 8.6333382354197497 #
edge $-1 $361 35.129250750407323 $364 49.947392441735197 $291 $391 forward 7 unknown #
vertex $-1 $305 $392 #
straight-curve $-1 -30.934036609735294 -55.311235187809913 16.134519852109349 0 -1 0 I I #
edge $-1 $364 -21.125711064910899 $302 1.5090599752621081 $301 $393 forward 7 unknown #
vertex $-1 $363 $394 #
straight-curve $-1 -30.934036609735294 -39.75364969990504 1.3163781607814684 0 0.81915203911291934 0.57357644374324357 I I #
point $-1 -30.934036609735294 -18.591150586275116 16.134519852109349 #
point $-1 -8.2992655695622872 -39.753649699905033 1.3163781607814733 #
straight-curve $-1 0 -39.753649699905033 16.134519852109349 1 0 0 I I #
vertex $-1 $308 $395 #
point $-1 -16.616651089648791 -23.546197611275772 0.6903992294343233 #
straight-curve $-1 -61.778008362071596 39.753649699905033 0 0 0 -1 I I #
point $-1 -61.778008362071596 -39.753649699905033 -16.134519852109349 #
straight-curve $-1 -61.778008362071596 0 -16.134519852109349 0 1 0 I I #
point $-1 -61.778008362071596 39.753649699905033 -16.134519852109349 #
coedge $-1 $330 $329 $340 $380 reversed $160 $-1 #
edge $-1 $335 -39.753649699905033 $381 39.753649699905033 $330 $396 forward 7 unknown #
straight-curve $-1 -82.00377407637194 39.753649699905033 11.856190965149224 0 0 -1 I I #
point $-1 -82.00377407637194 39.753649699905033 7.5778620781890975 #
point $-1 -82.00377407637194 39.753649699905033 16.134519852109349 #
edge $-1 $381 -4.278328886960125 $344 4.2783288869601268 $375 $397 forward 7 unknown #
vertex $-1 $376 $398 #
straight-curve $-1 0 -39.753649699905033 16.134519852109349 1 0 0 I I #
straight-curve $-1 -82.00377407637194 0 7.5778620781890975 0 1 0 I I #
point $-1 -82.00377407637194 -39.753649699905033 7.5778620781890975 #
straight-curve $-1 -18.103514626526273 39.753649699905033 76.405614486180781 0 0 -1 I I #
point $-1 -18.103514626526273 39.753649699905033 16.134519852109349 #
straight-curve $-1 -12.812682653105472 39.753649699905026 5.9537651711593824 -1 0 0 I I #
point $-1 -18.103514626526273 39.75364969990504 5.9537651711593824 #
point $-1 -28.849015597504376 29.318243830364427 7.7761709388342695 #
point $-1 -22.401715014917514 29.318243830364427 7.7761709388342695 #
straight-curve $-1 -30.934036609735294 -39.753649699905033 51.263770602516672 0 0 -1 I I #
point $-1 -30.934036609735294 -39.753649699905033 16.134519852109349 #
straight-curve $-1 -9.8083255448243953 -39.753649699905033 1.316378160781476 1 0 0 I I #
point $-1 -30.934036609735294 -39.753649699905033 1.3163781607814733 #
point $-1 -19.616651089648791 -21.825468280046039 -1.7670568879044346 #
straight-curve $-1 -82.00377407637194 0 16.134519852109349 0 -1 0 I I #
straight-curve $-1 -82.00377407637194 -39.753649699905033 11.856190965149224 0 0 -1 I I #
point $-1 -82.00377407637194 -39.753649699905033 16.134519852109349 #
End-of-ACIS-data 