500 0 6 0           
7 Unknown 11 ACIS 5.0 NT 24 Thu Mar 25 17:28:20 1999 
-1 9.9999999999999995e-007 1e-010 
body $-1 $6 $-1 $7 #
body $-1 $8 $-1 $9 #
body $-1 $10 $-1 $11 #
body $-1 $12 $-1 $13 #
body $-1 $14 $-1 $15 #
body $-1 $16 $-1 $17 #
lump $-1 $-1 $18 $0 #
transform $-1 1 0 0 0 1 0 0 0 1 64.475844599749749 29.935508720170684 14.424535466533492 1 rotate no_reflect no_shear #
lump $-1 $-1 $19 $1 #
transform $-1 1 0 0 0 1 0 0 0 1 64.475844599749749 29.935508720170684 14.424535466533492 1 rotate no_reflect no_shear #
lump $-1 $-1 $20 $2 #
transform $-1 1 0 0 0 1 0 0 0 1 64.475844599749749 29.935508720170684 14.424535466533492 1 rotate no_reflect no_shear #
lump $-1 $-1 $21 $3 #
transform $-1 1 0 0 0 1 0 0 0 1 64.475844599749749 29.935508720170684 14.424535466533492 1 rotate no_reflect no_shear #
lump $-1 $-1 $22 $4 #
transform $-1 1 0 0 0 1 0 0 0 1 64.475844599749749 29.935508720170684 14.424535466533492 1 rotate no_reflect no_shear #
lump $-1 $-1 $23 $5 #
transform $-1 1 0 0 0 1 0 0 0 1 64.475844599749749 29.935508720170684 14.424535466533492 1 rotate no_reflect no_shear #
shell $-1 $-1 $-1 $24 $-1 $6 #
shell $-1 $-1 $-1 $25 $-1 $8 #
shell $-1 $-1 $-1 $26 $-1 $10 #
shell $-1 $-1 $-1 $27 $-1 $12 #
shell $-1 $-1 $-1 $28 $-1 $14 #
shell $-1 $-1 $-1 $29 $-1 $16 #
face $-1 $30 $31 $18 $-1 $32 reversed single #
face $-1 $33 $34 $19 $-1 $35 forward single #
face $-1 $36 $37 $20 $-1 $38 forward single #
face $-1 $39 $40 $21 $-1 $41 reversed single #
face $-1 $42 $43 $22 $-1 $44 forward single #
face $-1 $45 $46 $23 $-1 $47 forward single #
face $-1 $48 $49 $18 $-1 $50 forward single #
loop $-1 $-1 $51 $24 #
plane-surface $-1 64.475844599749749 0 0 -1 0 0 0 0 1 forward_v I I I I #
face $-1 $52 $53 $19 $-1 $54 reversed single #
loop $-1 $-1 $55 $25 #
plane-surface $-1 -64.475844599749749 0 0 1 0 0 0 0 -1 forward_v I I I I #
face $-1 $56 $57 $20 $-1 $58 reversed single #
loop $-1 $-1 $59 $26 #
plane-surface $-1 64.475844599749749 0 0 -1 0 0 0 0 1 forward_v I I I I #
face $-1 $60 $61 $21 $-1 $62 reversed single #
loop $-1 $-1 $63 $27 #
plane-surface $-1 50.131780494136756 -117.88035032711443 101.31247487122491 -1 0 0 0 -0.68199836817093118 0.7313536940579346 forward_v I I I I #
face $-1 $64 $65 $22 $-1 $66 forward single #
loop $-1 $67 $68 $28 #
cone-surface $-1 31.681272736011024 -23.291454560199075 7.8561671950363845 0 0.68199836817093118 -0.7313536940579346 2.5 0 0 1 I I 0 1 2.5 forward I I I I #
face $-1 $69 $70 $23 $-1 $71 forward single #
loop $-1 $72 $73 $29 #
cone-surface $-1 42.751577390886467 -23.291454560199075 7.8561671950363845 0 0.68199836817093118 -0.7313536940579346 2.5 0 0 1 I I 0 1 2.5 forward I I I I #
face $-1 $74 $75 $18 $-1 $76 reversed single #
loop $-1 $-1 $77 $30 #
plane-surface $-1 0 0 14.424535466533492 0 0 1 1 0 0 forward_v I I I I #
coedge $-1 $78 $79 $80 $81 reversed $31 $-1 #
face $-1 $82 $83 $19 $-1 $84 forward single #
loop $-1 $-1 $85 $33 #
plane-surface $-1 0 29.935508720170684 0 0 -1 0 0 0 -1 forward_v I I I I #
coedge $-1 $86 $87 $88 $89 forward $34 $-1 #
face $-1 $90 $91 $20 $-1 $92 forward single #
loop $-1 $-1 $93 $36 #
plane-surface $-1 0 -29.935508720170684 0 0 1 0 0 0 1 forward_v I I I I #
coedge $-1 $94 $95 $96 $97 forward $37 $-1 #
face $-1 $98 $99 $21 $-1 $100 reversed single #
loop $-1 $-1 $101 $39 #
plane-surface $-1 37.216425063448739 -29.935508720170674 7.0031806201602791 0 -0.68199836817093118 0.7313536940579346 1 0 0 forward_v I I I I #
coedge $-1 $102 $103 $104 $105 reversed $40 $-1 #
face $-1 $-1 $106 $22 $-1 $107 forward single #
loop $-1 $108 $109 $42 #
cone-surface $-1 31.681272736011024 -19.774116713184515 4.084284229153468 0 0.68199836817093118 -0.7313536940579346 1.25 0 0 1 I I -0.70710678118654746 0.70710678118654746 1.25 forward I I I I #
loop $-1 $-1 $110 $28 #
coedge $-1 $68 $68 $111 $112 reversed $43 $-1 #
face $-1 $-1 $113 $23 $-1 $114 forward single #
loop $-1 $115 $116 $45 #
cone-surface $-1 42.751577390886467 -19.774116713184515 4.084284229153468 0 0.68199836817093118 -0.7313536940579346 1.25 0 0 1 I I -0.70710678118654746 0.70710678118654746 1.25 forward I I I I #
loop $-1 $-1 $117 $29 #
coedge $-1 $73 $73 $118 $119 reversed $46 $-1 #
face $-1 $120 $121 $18 $-1 $122 reversed single #
loop $-1 $-1 $123 $48 #
plane-surface $-1 0 0 -14.424535466533492 0 0 1 1 0 0 forward_v I I I I #
coedge $-1 $124 $125 $78 $126 forward $49 $-1 #
coedge $-1 $127 $51 $77 $126 reversed $31 $-1 #
coedge $-1 $51 $127 $123 $128 reversed $31 $-1 #
coedge $-1 $129 $130 $51 $81 forward $131 $-1 #
edge $-1 $132 -14.424535466533492 $133 14.424535466533492 $51 $134 forward 7 unknown #
face $-1 $135 $136 $19 $-1 $137 reversed single #
loop $-1 $-1 $88 $52 #
plane-surface $-1 -71.647876652556235 0 12.249760572434507 0 0 1 1 0 0 forward_v I I I I #
coedge $-1 $138 $139 $87 $140 forward $53 $-1 #
coedge $-1 $141 $55 $142 $143 reversed $34 $-1 #
coedge $-1 $55 $141 $85 $140 reversed $34 $-1 #
coedge $-1 $144 $145 $55 $89 reversed $83 $-1 #
edge $-1 $146 -29.935508720170684 $147 29.935508720170684 $88 $148 forward 7 unknown #
face $-1 $149 $150 $20 $-1 $151 reversed single #
loop $-1 $-1 $152 $56 #
plane-surface $-1 71.647876652556235 0 12.249760572434507 0 0 1 1 0 0 forward_v I I I I #
coedge $-1 $153 $154 $95 $155 forward $57 $-1 #
coedge $-1 $156 $59 $157 $158 reversed $37 $-1 #
coedge $-1 $59 $156 $93 $155 reversed $37 $-1 #
coedge $-1 $159 $160 $59 $97 reversed $91 $-1 #
edge $-1 $161 -29.935508720170684 $162 29.935508720170684 $96 $163 forward 7 unknown #
face $-1 $164 $165 $21 $-1 $166 forward single #
loop $-1 $-1 $167 $60 #
plane-surface $-1 24.301069632760722 -117.88035032711443 101.31247487122491 1 0 0 0 0.68199836817093118 -0.7313536940579346 forward_v I I I I #
coedge $-1 $168 $169 $170 $171 reversed $61 $-1 #
coedge $-1 $103 $63 $172 $173 reversed $40 $-1 #
coedge $-1 $63 $102 $168 $174 reversed $40 $-1 #
coedge $-1 $170 $175 $63 $105 forward $165 $-1 #
edge $-1 $176 29.00466644338653 $177 36.963094989727963 $104 $178 forward 7 unknown #
loop $-1 $-1 $111 $64 #
plane-surface $-1 37.216425063448739 -29.935508720170674 7.0031806201602791 0 -0.68199836817093118 0.7313536940579346 1 0 0 forward_v I I I I #
loop $-1 $-1 $179 $42 #
coedge $-1 $109 $109 $110 $180 reversed $65 $-1 #
coedge $-1 $110 $110 $109 $180 forward $67 $-1 #
coedge $-1 $111 $111 $68 $112 forward $106 $-1 #
edge $-1 $181 -7.0138136560165447e-017 $181 6.2831853071796004 $111 $182 forward 7 unknown #
loop $-1 $-1 $118 $69 #
plane-surface $-1 37.216425063448739 -29.935508720170674 7.0031806201602791 0 -0.68199836817093118 0.7313536940579346 1 0 0 forward_v I I I I #
loop $-1 $-1 $183 $45 #
coedge $-1 $116 $116 $117 $184 reversed $70 $-1 #
coedge $-1 $117 $117 $116 $184 forward $72 $-1 #
coedge $-1 $118 $118 $73 $119 forward $113 $-1 #
edge $-1 $185 -7.0138136560165447e-017 $185 6.2831853071796004 $118 $186 forward 7 unknown #
face $-1 $187 $188 $18 $-1 $189 reversed single #
loop $-1 $-1 $190 $74 #
plane-surface $-1 0 -29.935508720170684 0 0 1 0 0 0 1 forward_v I I I I #
coedge $-1 $191 $192 $79 $128 forward $75 $-1 #
coedge $-1 $193 $77 $130 $194 forward $49 $-1 #
coedge $-1 $77 $193 $195 $196 forward $49 $-1 #
edge $-1 $197 -29.935508720170684 $132 29.935508720170684 $78 $198 forward 7 unknown #
coedge $-1 $79 $78 $199 $200 forward $31 $-1 #
edge $-1 $133 -29.935508720170684 $201 29.935508720170684 $79 $202 forward 7 unknown #
coedge $-1 $203 $80 $192 $204 reversed $131 $-1 #
coedge $-1 $80 $203 $124 $194 reversed $131 $-1 #
loop $-1 $-1 $80 $187 #
vertex $-1 $126 $205 #
vertex $-1 $128 $206 #
straight-curve $-1 64.475844599749749 29.935508720170684 0 0 0 -1 I I #
face $-1 $207 $208 $19 $-1 $209 reversed single #
loop $-1 $-1 $210 $82 #
plane-surface $-1 -71.647876652556235 0 8.6525850876103938 0 0 1 1 0 0 forward_v I I I I #
coedge $-1 $211 $85 $212 $213 reversed $53 $-1 #
coedge $-1 $85 $211 $144 $214 reversed $53 $-1 #
edge $-1 $146 -12.249760572434507 $215 -8.6525850876103938 $85 $216 forward 7 unknown #
coedge $-1 $87 $86 $210 $217 forward $34 $-1 #
coedge $-1 $218 $219 $86 $143 forward $220 $-1 #
edge $-1 $221 8.6525850876103938 $147 12.249760572434507 $142 $222 forward 7 unknown #
coedge $-1 $223 $88 $139 $214 forward $83 $-1 #
coedge $-1 $88 $223 $218 $224 forward $83 $-1 #
vertex $-1 $140 $225 #
vertex $-1 $224 $226 #
straight-curve $-1 -64.475844599749749 0 12.249760572434507 0 -1 0 I I #
face $-1 $227 $228 $20 $-1 $229 reversed single #
loop $-1 $-1 $230 $90 #
plane-surface $-1 71.647876652556235 0 8.6525850876103938 0 0 1 1 0 0 forward_v I I I I #
coedge $-1 $160 $159 $231 $232 forward $91 $-1 #
coedge $-1 $233 $93 $234 $235 reversed $57 $-1 #
coedge $-1 $93 $233 $159 $236 reversed $57 $-1 #
edge $-1 $161 -12.249760572434507 $237 -8.6525850876103938 $93 $238 forward 7 unknown #
coedge $-1 $95 $94 $239 $240 forward $37 $-1 #
coedge $-1 $241 $242 $94 $158 forward $243 $-1 #
edge $-1 $244 8.6525850876103938 $162 12.249760572434507 $157 $245 forward 7 unknown #
coedge $-1 $152 $96 $154 $236 forward $91 $-1 #
coedge $-1 $96 $152 $241 $246 forward $91 $-1 #
vertex $-1 $155 $247 #
vertex $-1 $246 $248 #
straight-curve $-1 64.475844599749749 0 12.249760572434507 0 1 0 I I #
face $-1 $-1 $249 $21 $-1 $250 reversed single #
loop $-1 $-1 $104 $98 #
plane-surface $-1 0 0 14.424535466533492 0 0 1 1 0 0 forward_v I I I I #
coedge $-1 $251 $252 $253 $254 reversed $99 $-1 #
coedge $-1 $255 $101 $103 $174 forward $61 $-1 #
coedge $-1 $101 $255 $251 $256 forward $61 $-1 #
coedge $-1 $253 $104 $101 $171 forward $165 $-1 #
edge $-1 $177 -31.523567962412386 $257 -5.6928571010363527 $170 $258 forward 7 unknown #
coedge $-1 $259 $260 $102 $173 forward $249 $-1 #
edge $-1 $261 -43.653056815452182 $176 -36.231701969078962 $172 $262 forward 7 unknown #
edge $-1 $177 -10.881778011106878 $261 1.4457969380444042e-014 $103 $263 forward 7 unknown #
coedge $-1 $104 $253 $259 $264 forward $165 $-1 #
vertex $-1 $173 $265 #
vertex $-1 $105 $266 #
straight-curve $-1 50.131780494136756 -58.940175163557214 14.424535466533492 0 1 0 I I #
coedge $-1 $179 $179 $-1 $267 reversed $108 $-1 #
edge $-1 $268 0 $268 6.2831853071796004 $109 $269 forward 7 unknown #
vertex $-1 $112 $270 #
ellipse-curve $-1 31.681272736011024 -25.956294446999969 10.71385804334688 0 -0.68199836817093118 0.7313536940579346 2.5 0 0 1 I I #
coedge $-1 $183 $183 $-1 $271 reversed $115 $-1 #
edge $-1 $272 0 $272 6.2831853071796004 $116 $273 forward 7 unknown #
vertex $-1 $119 $274 #
ellipse-curve $-1 42.751577390886467 -25.956294446999969 10.71385804334688 0 -0.68199836817093118 0.7313536940579346 2.5 0 0 1 I I #
face $-1 $-1 $131 $18 $-1 $275 reversed single #
loop $-1 $-1 $276 $120 #
plane-surface $-1 -64.475844599749749 0 0 1 0 0 0 0 -1 forward_v I I I I #
coedge $-1 $277 $195 $276 $278 forward $121 $-1 #
coedge $-1 $279 $123 $277 $280 forward $75 $-1 #
coedge $-1 $123 $279 $129 $204 forward $75 $-1 #
coedge $-1 $125 $124 $281 $282 forward $49 $-1 #
edge $-1 $132 -64.475844599749749 $283 64.475844599749749 $130 $284 forward 7 unknown #
coedge $-1 $190 $199 $125 $196 reversed $121 $-1 #
edge $-1 $285 -64.475844599749749 $197 64.475844599749749 $195 $286 forward 7 unknown #
vertex $-1 $126 $287 #
straight-curve $-1 64.475844599749749 0 14.424535466533492 0 1 0 I I #
coedge $-1 $195 $277 $127 $200 reversed $121 $-1 #
edge $-1 $197 -14.424535466533492 $201 14.424535466533492 $127 $288 forward 7 unknown #
vertex $-1 $200 $289 #
straight-curve $-1 64.475844599749749 0 -14.424535466533492 0 -1 0 I I #
coedge $-1 $130 $129 $290 $291 reversed $131 $-1 #
edge $-1 $292 -64.475844599749749 $133 64.475844599749749 $129 $293 forward 7 unknown #
point $-1 64.475844599749749 29.935508720170684 14.424535466533492 #
point $-1 64.475844599749749 29.935508720170684 -14.424535466533492 #
face $-1 $-1 $220 $19 $-1 $294 reversed single #
loop $-1 $-1 $295 $135 #
plane-surface $-1 -78.819908705362721 0 10.45117283002245 1 0 0 0 0 -1 forward_v I I I I #
coedge $-1 $296 $212 $141 $217 reversed $136 $-1 #
coedge $-1 $139 $138 $295 $297 reversed $53 $-1 #
coedge $-1 $210 $298 $138 $213 forward $136 $-1 #
edge $-1 $299 -7.172032052806486 $215 7.172032052806486 $138 $300 forward 7 unknown #
edge $-1 $146 -7.172032052806486 $301 7.172032052806486 $139 $302 forward 7 unknown #
vertex $-1 $140 $303 #
straight-curve $-1 -64.475844599749749 29.935508720170684 0 0 0 -1 I I #
edge $-1 $221 -29.935508720170684 $215 29.935508720170684 $210 $304 forward 7 unknown #
coedge $-1 $305 $142 $145 $224 reversed $220 $-1 #
coedge $-1 $142 $305 $296 $306 reversed $220 $-1 #
loop $-1 $-1 $142 $207 #
vertex $-1 $143 $307 #
straight-curve $-1 -64.475844599749749 -29.935508720170684 0 0 0 1 I I #
coedge $-1 $145 $144 $308 $309 forward $83 $-1 #
edge $-1 $310 -7.172032052806486 $147 7.172032052806486 $218 $311 forward 7 unknown #
point $-1 -64.475844599749749 29.935508720170684 12.249760572434507 #
point $-1 -64.475844599749749 -29.935508720170684 12.249760572434507 #
face $-1 $-1 $243 $20 $-1 $312 reversed single #
loop $-1 $-1 $313 $149 #
plane-surface $-1 78.819908705362721 0 10.45117283002245 -1 0 0 0 0 1 forward_v I I I I #
coedge $-1 $234 $314 $315 $316 forward $150 $-1 #
coedge $-1 $313 $317 $152 $232 reversed $228 $-1 #
edge $-1 $318 -29.935508720170684 $319 29.935508720170684 $231 $320 forward 7 unknown #
coedge $-1 $154 $153 $313 $321 reversed $57 $-1 #
coedge $-1 $239 $230 $153 $235 forward $150 $-1 #
edge $-1 $322 -7.172032052806486 $237 7.172032052806486 $153 $323 forward 7 unknown #
edge $-1 $161 -7.172032052806486 $318 7.172032052806486 $154 $324 forward 7 unknown #
vertex $-1 $155 $325 #
straight-curve $-1 64.475844599749749 -29.935508720170684 0 0 0 -1 I I #
coedge $-1 $314 $234 $156 $240 reversed $150 $-1 #
edge $-1 $244 -29.935508720170684 $237 29.935508720170684 $239 $326 forward 7 unknown #
coedge $-1 $327 $157 $160 $246 reversed $243 $-1 #
coedge $-1 $157 $327 $314 $328 reversed $243 $-1 #
loop $-1 $-1 $157 $227 #
vertex $-1 $158 $329 #
straight-curve $-1 64.475844599749749 29.935508720170684 0 0 0 1 I I #
edge $-1 $319 -7.172032052806486 $162 7.172032052806486 $241 $330 forward 7 unknown #
point $-1 64.475844599749749 -29.935508720170684 12.249760572434507 #
point $-1 64.475844599749749 29.935508720170684 12.249760572434507 #
loop $-1 $-1 $172 $164 #
plane-surface $-1 0 -29.935508720170684 0 0 1 0 0 0 1 forward_v I I I I #
coedge $-1 $252 $167 $169 $256 reversed $99 $-1 #
coedge $-1 $167 $251 $331 $332 reversed $99 $-1 #
coedge $-1 $175 $170 $167 $254 forward $165 $-1 #
edge $-1 $257 -36.963094989727963 $333 -29.00466644338653 $253 $334 forward 7 unknown #
coedge $-1 $169 $168 $260 $335 reversed $61 $-1 #
edge $-1 $336 -1.4457969380444042e-014 $257 10.881778011106878 $251 $337 forward 7 unknown #
vertex $-1 $171 $338 #
straight-curve $-1 18.608212531724369 -21.977080173829254 14.424535466533492 -1 0 0 I I #
coedge $-1 $331 $172 $175 $264 reversed $249 $-1 #
coedge $-1 $172 $331 $255 $335 forward $249 $-1 #
vertex $-1 $173 $339 #
straight-curve $-1 50.131780494136756 -29.935508720170688 50.656237435612454 0 0 1 I I #
straight-curve $-1 50.131780494136756 -29.935508720170674 7.0031806201602791 0 -0.7313536940579346 -0.68199836817093118 I I #
edge $-1 $333 24.301069632760722 $176 50.131780494136756 $259 $340 forward 7 unknown #
point $-1 50.131780494136756 -29.935508720170684 14.424535466533492 #
point $-1 50.131780494136756 -21.977080173829254 14.424535466533492 #
edge $-1 $341 1 $341 0 $179 $-1 forward 7 unknown #
vertex $-1 $180 $342 #
ellipse-curve $-1 31.681272736011024 -20.62661467339818 4.9984763467258864 0 -0.68199836817093118 0.7313536940579346 2.5 0 0 1 I I #
point $-1 34.181272736011024 -25.956294446999973 10.713858043346884 #
edge $-1 $343 1 $343 0 $183 $-1 forward 7 unknown #
vertex $-1 $184 $344 #
ellipse-curve $-1 42.751577390886467 -20.62661467339818 4.9984763467258864 0 -0.68199836817093118 0.7313536940579346 2.5 0 0 1 I I #
point $-1 45.251577390886467 -25.956294446999973 10.713858043346884 #
plane-surface $-1 0 29.935508720170684 0 0 -1 0 0 0 -1 forward_v I I I I #
coedge $-1 $281 $345 $190 $278 reversed $188 $-1 #
coedge $-1 $199 $190 $191 $280 reversed $121 $-1 #
edge $-1 $285 -14.424535466533492 $346 14.424535466533492 $276 $347 forward 7 unknown #
coedge $-1 $192 $191 $345 $348 forward $75 $-1 #
edge $-1 $201 -64.475844599749749 $346 64.475844599749749 $277 $349 forward 7 unknown #
coedge $-1 $290 $276 $193 $282 reversed $188 $-1 #
edge $-1 $283 -29.935508720170684 $285 29.935508720170684 $281 $350 forward 7 unknown #
vertex $-1 $194 $351 #
straight-curve $-1 0 29.935508720170684 14.424535466533492 -1 0 0 I I #
vertex $-1 $282 $352 #
straight-curve $-1 0 -29.935508720170684 14.424535466533492 1 0 0 I I #
point $-1 64.475844599749749 -29.935508720170684 14.424535466533492 #
straight-curve $-1 64.475844599749749 -29.935508720170684 0 0 0 -1 I I #
point $-1 64.475844599749749 -29.935508720170684 -14.424535466533492 #
coedge $-1 $345 $281 $203 $291 forward $188 $-1 #
edge $-1 $283 -14.424535466533492 $292 14.424535466533492 $203 $353 forward 7 unknown #
vertex $-1 $204 $354 #
straight-curve $-1 0 29.935508720170684 -14.424535466533492 1 0 0 I I #
plane-surface $-1 0 -29.935508720170684 0 0 1 0 0 0 1 forward_v I I I I #
coedge $-1 $355 $308 $211 $297 forward $208 $-1 #
coedge $-1 $298 $210 $219 $306 forward $136 $-1 #
edge $-1 $301 -1.7985877424120567 $299 1.7985877424120567 $211 $356 forward 7 unknown #
coedge $-1 $212 $296 $355 $357 forward $136 $-1 #
vertex $-1 $213 $358 #
straight-curve $-1 -71.647876652556235 29.935508720170684 8.6525850876103938 1 0 0 I I #
vertex $-1 $214 $359 #
straight-curve $-1 -71.647876652556235 29.935508720170684 12.249760572434507 -1 0 0 I I #
point $-1 -64.475844599749749 29.935508720170684 8.6525850876103938 #
straight-curve $-1 -64.475844599749749 0 8.6525850876103938 0 1 0 I I #
coedge $-1 $219 $218 $360 $361 forward $220 $-1 #
edge $-1 $221 -7.172032052806486 $362 7.172032052806486 $219 $363 forward 7 unknown #
point $-1 -64.475844599749749 -29.935508720170684 8.6525850876103938 #
coedge $-1 $295 $360 $223 $309 reversed $208 $-1 #
edge $-1 $301 -29.935508720170684 $310 29.935508720170684 $308 $364 forward 7 unknown #
vertex $-1 $309 $365 #
straight-curve $-1 -71.647876652556235 -29.935508720170684 12.249760572434507 1 0 0 I I #
plane-surface $-1 0 29.935508720170684 0 0 -1 0 0 0 -1 forward_v I I I I #
coedge $-1 $315 $231 $233 $321 forward $228 $-1 #
coedge $-1 $230 $239 $242 $328 forward $150 $-1 #
coedge $-1 $317 $313 $230 $316 reversed $228 $-1 #
edge $-1 $366 -29.935508720170684 $322 29.935508720170684 $315 $367 forward 7 unknown #
coedge $-1 $231 $315 $327 $368 reversed $228 $-1 #
vertex $-1 $232 $369 #
vertex $-1 $232 $370 #
straight-curve $-1 78.819908705362721 0 12.249760572434507 0 1 0 I I #
edge $-1 $318 -1.7985877424120567 $322 1.7985877424120567 $313 $371 forward 7 unknown #
vertex $-1 $321 $372 #
straight-curve $-1 71.647876652556235 -29.935508720170684 8.6525850876103938 -1 0 0 I I #
straight-curve $-1 71.647876652556235 -29.935508720170684 12.249760572434507 1 0 0 I I #
point $-1 64.475844599749749 -29.935508720170684 8.6525850876103938 #
straight-curve $-1 64.475844599749749 0 8.6525850876103938 0 -1 0 I I #
coedge $-1 $242 $241 $317 $368 forward $243 $-1 #
edge $-1 $244 -7.172032052806486 $366 7.172032052806486 $242 $373 forward 7 unknown #
point $-1 64.475844599749749 29.935508720170684 8.6525850876103938 #
straight-curve $-1 71.647876652556235 29.935508720170684 12.249760572434507 -1 0 0 I I #
coedge $-1 $260 $259 $252 $332 forward $249 $-1 #
edge $-1 $333 36.231701969078962 $336 43.653056815452182 $331 $374 forward 7 unknown #
vertex $-1 $264 $375 #
straight-curve $-1 24.301069632760722 -58.940175163557214 14.424535466533492 0 -1 0 I I #
edge $-1 $336 5.6928571010363527 $261 31.523567962412386 $260 $376 forward 7 unknown #
vertex $-1 $335 $377 #
straight-curve $-1 24.301069632760722 -29.935508720170674 7.0031806201602791 0 0.7313536940579346 0.68199836817093118 I I #
point $-1 24.301069632760722 -21.977080173829254 14.424535466533492 #
point $-1 50.131780494136756 -29.935508720170684 7.0031806201602693 #
straight-curve $-1 0 -29.935508720170684 14.424535466533492 1 0 0 I I #
vertex $-1 $267 $378 #
point $-1 34.181272736011024 -20.62661467339818 4.9984763467258864 #
vertex $-1 $271 $379 #
point $-1 45.251577390886467 -20.62661467339818 4.9984763467258864 #
coedge $-1 $276 $290 $279 $348 reversed $188 $-1 #
vertex $-1 $348 $380 #
straight-curve $-1 -64.475844599749749 -29.935508720170684 0 0 0 -1 I I #
edge $-1 $346 -29.935508720170684 $292 29.935508720170684 $345 $381 forward 7 unknown #
straight-curve $-1 0 -29.935508720170684 -14.424535466533492 -1 0 0 I I #
straight-curve $-1 -64.475844599749749 0 14.424535466533492 0 -1 0 I I #
point $-1 -64.475844599749749 29.935508720170684 14.424535466533492 #
point $-1 -64.475844599749749 -29.935508720170684 14.424535466533492 #
straight-curve $-1 -64.475844599749749 29.935508720170684 0 0 0 -1 I I #
point $-1 -64.475844599749749 29.935508720170684 -14.424535466533492 #
coedge $-1 $360 $295 $298 $357 reversed $208 $-1 #
straight-curve $-1 -78.819908705362721 29.935508720170684 10.45117283002245 0 0 -1 I I #
edge $-1 $362 -29.935508720170684 $299 29.935508720170684 $355 $382 forward 7 unknown #
point $-1 -78.819908705362721 29.935508720170684 8.6525850876103938 #
point $-1 -78.819908705362721 29.935508720170684 12.249760572434507 #
coedge $-1 $308 $355 $305 $361 reversed $208 $-1 #
edge $-1 $310 -1.7985877424120567 $362 1.7985877424120567 $360 $383 forward 7 unknown #
vertex $-1 $357 $384 #
straight-curve $-1 -71.647876652556235 -29.935508720170684 8.6525850876103938 -1 0 0 I I #
straight-curve $-1 -78.819908705362721 0 12.249760572434507 0 -1 0 I I #
point $-1 -78.819908705362721 -29.935508720170684 12.249760572434507 #
vertex $-1 $316 $385 #
straight-curve $-1 78.819908705362721 0 8.6525850876103938 0 -1 0 I I #
edge $-1 $319 -1.7985877424120567 $366 1.7985877424120567 $317 $386 forward 7 unknown #
point $-1 78.819908705362721 -29.935508720170684 12.249760572434507 #
point $-1 78.819908705362721 29.935508720170684 12.249760572434507 #
straight-curve $-1 78.819908705362721 -29.935508720170684 10.45117283002245 0 0 -1 I I #
point $-1 78.819908705362721 -29.935508720170684 8.6525850876103938 #
straight-curve $-1 71.647876652556235 29.935508720170684 8.6525850876103938 1 0 0 I I #
straight-curve $-1 24.301069632760722 -29.935508720170688 50.656237435612454 0 0 -1 I I #
point $-1 24.301069632760722 -29.935508720170684 14.424535466533492 #
straight-curve $-1 18.608212531724369 -29.935508720170684 7.0031806201602693 1 0 0 I I #
point $-1 24.301069632760722 -29.935508720170684 7.0031806201602693 #
point $-1 31.681272736011024 -18.921618752970851 3.1700921115810496 #
point $-1 42.751577390886467 -18.921618752970851 3.1700921115810496 #
point $-1 -64.475844599749749 -29.935508720170684 -14.424535466533492 #
straight-curve $-1 -64.475844599749749 0 -14.424535466533492 0 1 0 I I #
straight-curve $-1 -78.819908705362721 0 8.6525850876103938 0 1 0 I I #
straight-curve $-1 -78.819908705362721 -29.935508720170684 10.45117283002245 0 0 -1 I I #
point $-1 -78.819908705362721 -29.935508720170684 8.6525850876103938 #
point $-1 78.819908705362721 29.935508720170684 8.6525850876103938 #
straight-curve $-1 78.819908705362721 29.935508720170684 10.45117283002245 0 0 -1 I I #
End-of-ACIS-data 