500 0 3 0           
7 Unknown 11 ACIS 5.0 NT 24 Thu Mar 25 21:53:12 1999 
-1 9.9999999999999995e-007 1e-010 
body $-1 $3 $-1 $4 #
body $-1 $5 $-1 $6 #
body $-1 $7 $-1 $8 #
lump $-1 $-1 $9 $0 #
transform $-1 1 0 0 0 1 0 0 0 1 55.269020661030915 32.804332051333958 15.588540101471322 1 rotate no_reflect no_shear #
lump $-1 $-1 $10 $1 #
transform $-1 1 0 0 0 1 0 0 0 1 55.269020661030915 32.804332051333958 15.588540101471322 1 rotate no_reflect no_shear #
lump $-1 $-1 $11 $2 #
transform $-1 1 0 0 0 1 0 0 0 1 55.269020661030915 32.804332051333958 15.588540101471322 1 rotate no_reflect no_shear #
shell $-1 $-1 $-1 $12 $-1 $3 #
shell $-1 $-1 $-1 $13 $-1 $5 #
shell $-1 $-1 $-1 $14 $-1 $7 #
face $-1 $15 $16 $9 $-1 $17 forward single #
face $-1 $18 $19 $10 $-1 $20 reversed single #
face $-1 $21 $22 $11 $-1 $23 reversed single #
face $-1 $24 $25 $9 $-1 $26 reversed single #
loop $-1 $-1 $27 $12 #
plane-surface $-1 0 0 15.588540101471322 0 0 1 1 0 0 forward_v I I I I #
face $-1 $28 $29 $10 $-1 $30 reversed single #
loop $-1 $-1 $31 $13 #
plane-surface $-1 -65.689645968988188 -30.579062837654583 0 1 0 0 0 0 -1 forward_v I I I I #
face $-1 $32 $33 $11 $-1 $34 reversed single #
loop $-1 $-1 $35 $14 #
plane-surface $-1 60.479333315009562 -28.353793623975207 0 0 -1 0 0 0 -1 forward_v I I I I #
face $-1 $36 $37 $9 $-1 $38 reversed single #
loop $-1 $-1 $39 $15 #
plane-surface $-1 0 0 -15.588540101471322 0 0 1 1 0 0 forward_v I I I I #
coedge $-1 $40 $41 $42 $43 forward $16 $-1 #
face $-1 $44 $45 $10 $-1 $46 forward single #
loop $-1 $-1 $47 $18 #
plane-surface $-1 -60.479333315009555 -28.353793623975207 0 0 -1 0 0 0 -1 forward_v I I I I #
coedge $-1 $48 $49 $50 $51 forward $19 $-1 #
face $-1 $52 $53 $11 $-1 $54 reversed single #
loop $-1 $-1 $55 $21 #
plane-surface $-1 65.689645968988202 -30.579062837654583 0 -1 0 0 0 0 1 forward_v I I I I #
coedge $-1 $56 $57 $58 $59 forward $22 $-1 #
face $-1 $60 $61 $9 $-1 $62 reversed single #
loop $-1 $-1 $63 $24 #
plane-surface $-1 0 -32.804332051333958 0 0 1 0 0 0 1 forward_v I I I I #
coedge $-1 $64 $65 $66 $67 forward $25 $-1 #
coedge $-1 $68 $27 $69 $70 forward $16 $-1 #
coedge $-1 $27 $68 $71 $72 forward $16 $-1 #
coedge $-1 $73 $74 $27 $43 reversed $75 $-1 #
edge $-1 $76 -32.804332051333958 $77 32.804332051333958 $42 $78 forward 7 unknown #
face $-1 $79 $80 $10 $-1 $81 reversed single #
loop $-1 $-1 $82 $28 #
plane-surface $-1 0 0 15.588540101471322 0 0 1 1 0 0 forward_v I I I I #
coedge $-1 $83 $84 $85 $86 reversed $29 $-1 #
coedge $-1 $87 $31 $88 $89 reversed $19 $-1 #
coedge $-1 $31 $87 $90 $91 reversed $19 $-1 #
coedge $-1 $84 $83 $31 $51 reversed $29 $-1 #
edge $-1 $92 -15.588540101471322 $93 15.588540101471322 $50 $94 forward 7 unknown #
face $-1 $95 $96 $11 $-1 $97 reversed single #
loop $-1 $-1 $98 $32 #
plane-surface $-1 55.269020661030915 0 0 -1 0 0 0 0 1 forward_v I I I I #
coedge $-1 $99 $100 $101 $102 forward $33 $-1 #
coedge $-1 $103 $35 $104 $105 reversed $22 $-1 #
coedge $-1 $35 $103 $106 $107 reversed $22 $-1 #
coedge $-1 $100 $99 $35 $59 reversed $33 $-1 #
edge $-1 $108 -15.588540101471322 $109 15.588540101471322 $58 $110 forward 7 unknown #
face $-1 $111 $112 $9 $-1 $113 reversed single #
loop $-1 $-1 $114 $36 #
plane-surface $-1 -55.269020661030915 0 0 1 0 0 0 0 -1 forward_v I I I I #
coedge $-1 $115 $71 $116 $117 forward $37 $-1 #
coedge $-1 $118 $39 $115 $119 forward $25 $-1 #
coedge $-1 $39 $118 $120 $121 forward $25 $-1 #
coedge $-1 $74 $73 $39 $67 reversed $75 $-1 #
edge $-1 $122 -32.804332051333958 $123 32.804332051333958 $66 $124 forward 7 unknown #
coedge $-1 $41 $40 $125 $126 forward $16 $-1 #
coedge $-1 $127 $128 $40 $70 reversed $112 $-1 #
edge $-1 $77 -55.269020661030915 $129 55.269020661030915 $69 $130 forward 7 unknown #
coedge $-1 $63 $131 $41 $72 reversed $37 $-1 #
edge $-1 $132 -55.269020661030915 $76 55.269020661030915 $71 $133 forward 7 unknown #
coedge $-1 $66 $42 $131 $134 forward $75 $-1 #
coedge $-1 $42 $66 $127 $135 reversed $75 $-1 #
loop $-1 $-1 $73 $111 #
vertex $-1 $43 $136 #
vertex $-1 $43 $137 #
straight-curve $-1 55.269020661030915 0 15.588540101471322 0 1 0 I I #
face $-1 $138 $139 $10 $-1 $140 reversed single #
loop $-1 $-1 $141 $44 #
plane-surface $-1 0 0 -15.588540101471322 0 0 1 1 0 0 forward_v I I I I #
coedge $-1 $142 $143 $144 $145 forward $45 $-1 #
coedge $-1 $50 $47 $146 $147 reversed $29 $-1 #
coedge $-1 $47 $50 $148 $149 reversed $29 $-1 #
coedge $-1 $150 $151 $47 $86 forward $152 $-1 #
edge $-1 $153 -15.588540101471322 $154 15.588540101471322 $85 $155 forward 7 unknown #
coedge $-1 $49 $48 $156 $157 reversed $19 $-1 #
coedge $-1 $146 $158 $48 $89 forward $80 $-1 #
edge $-1 $159 -2.2252692136793755 $93 2.2252692136793755 $48 $160 forward 7 unknown #
coedge $-1 $143 $148 $49 $91 forward $45 $-1 #
edge $-1 $92 -2.2252692136793755 $161 2.2252692136793755 $49 $162 forward 7 unknown #
vertex $-1 $149 $163 #
vertex $-1 $147 $164 #
straight-curve $-1 -65.689645968988188 -28.353793623975207 0 0 0 -1 I I #
face $-1 $165 $166 $11 $-1 $167 reversed single #
loop $-1 $-1 $168 $52 #
plane-surface $-1 -65.689645968988188 -30.579062837654583 0 1 0 0 0 0 -1 forward_v I I I I #
coedge $-1 $169 $170 $103 $171 forward $53 $-1 #
coedge $-1 $58 $55 $172 $173 reversed $33 $-1 #
coedge $-1 $55 $58 $174 $175 reversed $33 $-1 #
coedge $-1 $176 $177 $55 $102 reversed $178 $-1 #
edge $-1 $179 -15.588540101471322 $180 15.588540101471322 $55 $181 forward 7 unknown #
coedge $-1 $57 $56 $98 $171 reversed $22 $-1 #
coedge $-1 $172 $182 $56 $105 forward $183 $-1 #
edge $-1 $184 -5.2103126539786402 $109 5.2103126539786402 $56 $185 forward 7 unknown #
coedge $-1 $186 $174 $57 $107 forward $187 $-1 #
edge $-1 $108 -5.2103126539786402 $188 5.2103126539786402 $57 $189 forward 7 unknown #
vertex $-1 $175 $190 #
vertex $-1 $173 $191 #
straight-curve $-1 65.689645968988202 -28.353793623975207 0 0 0 -1 I I #
face $-1 $-1 $75 $9 $-1 $192 reversed single #
loop $-1 $-1 $127 $60 #
plane-surface $-1 0 32.804332051333958 0 0 -1 0 0 0 -1 forward_v I I I I #
coedge $-1 $193 $125 $128 $194 forward $61 $-1 #
coedge $-1 $131 $63 $64 $119 reversed $37 $-1 #
coedge $-1 $125 $193 $63 $117 reversed $61 $-1 #
edge $-1 $132 -15.588540101471322 $195 15.588540101471322 $116 $196 forward 7 unknown #
coedge $-1 $65 $64 $193 $197 forward $25 $-1 #
edge $-1 $123 -55.269020661030915 $195 55.269020661030915 $115 $198 forward 7 unknown #
coedge $-1 $128 $127 $65 $121 reversed $112 $-1 #
edge $-1 $199 -55.269020661030915 $122 55.269020661030915 $120 $200 forward 7 unknown #
vertex $-1 $67 $201 #
vertex $-1 $134 $202 #
straight-curve $-1 55.269020661030915 0 -15.588540101471322 0 -1 0 I I #
coedge $-1 $114 $116 $68 $126 reversed $61 $-1 #
edge $-1 $129 -32.804332051333958 $132 32.804332051333958 $125 $203 forward 7 unknown #
coedge $-1 $120 $69 $74 $135 forward $112 $-1 #
coedge $-1 $69 $120 $114 $194 reversed $112 $-1 #
vertex $-1 $70 $204 #
straight-curve $-1 0 32.804332051333958 15.588540101471322 -1 0 0 I I #
coedge $-1 $71 $115 $73 $134 reversed $37 $-1 #
vertex $-1 $126 $205 #
straight-curve $-1 0 -32.804332051333958 15.588540101471322 1 0 0 I I #
edge $-1 $76 -15.588540101471322 $123 15.588540101471322 $73 $206 forward 7 unknown #
edge $-1 $77 -15.588540101471322 $122 15.588540101471322 $74 $207 forward 7 unknown #
point $-1 55.269020661030915 -32.804332051333958 15.588540101471322 #
point $-1 55.269020661030915 32.804332051333958 15.588540101471322 #
face $-1 $208 $152 $10 $-1 $209 reversed single #
loop $-1 $-1 $210 $79 #
plane-surface $-1 0 -32.804332051333958 0 0 1 0 0 0 1 forward_v I I I I #
coedge $-1 $158 $211 $212 $213 forward $80 $-1 #
coedge $-1 $214 $82 $215 $216 forward $45 $-1 #
coedge $-1 $82 $90 $217 $218 forward $45 $-1 #
coedge $-1 $219 $220 $82 $145 reversed $221 $-1 #
edge $-1 $222 -32.804332051333958 $223 32.804332051333958 $144 $224 forward 7 unknown #
coedge $-1 $225 $88 $83 $147 forward $80 $-1 #
edge $-1 $93 -5.2103126539786331 $153 5.2103126539786331 $83 $226 forward 7 unknown #
coedge $-1 $90 $214 $84 $149 forward $45 $-1 #
edge $-1 $154 -5.2103126539786331 $92 5.2103126539786331 $84 $227 forward 7 unknown #
coedge $-1 $228 $85 $214 $229 reversed $152 $-1 #
coedge $-1 $85 $228 $225 $230 reversed $152 $-1 #
loop $-1 $-1 $85 $138 #
vertex $-1 $230 $231 #
vertex $-1 $149 $232 #
straight-curve $-1 -55.269020661030915 -28.353793623975207 0 0 0 1 I I #
coedge $-1 $210 $217 $87 $157 forward $139 $-1 #
edge $-1 $161 -15.588540101471322 $159 15.588540101471322 $87 $233 forward 7 unknown #
coedge $-1 $88 $141 $210 $234 forward $80 $-1 #
vertex $-1 $89 $235 #
straight-curve $-1 -65.689645968988188 -30.579062837654583 -15.588540101471322 0 1 0 I I #
vertex $-1 $91 $236 #
straight-curve $-1 -65.689645968988188 -30.579062837654583 15.588540101471322 0 -1 0 I I #
point $-1 -65.689645968988188 -28.353793623975207 15.588540101471322 #
point $-1 -65.689645968988188 -28.353793623975207 -15.588540101471322 #
face $-1 $237 $187 $11 $-1 $238 forward single #
loop $-1 $-1 $239 $95 #
plane-surface $-1 -60.479333315009555 -28.353793623975207 0 0 -1 0 0 0 -1 forward_v I I I I #
coedge $-1 $240 $241 $242 $243 forward $96 $-1 #
coedge $-1 $244 $98 $182 $245 reversed $53 $-1 #
coedge $-1 $98 $244 $186 $246 reversed $53 $-1 #
edge $-1 $188 -15.588540101471322 $184 15.588540101471322 $98 $247 forward 7 unknown #
coedge $-1 $248 $104 $99 $173 forward $183 $-1 #
edge $-1 $109 -2.2252692136793755 $180 2.2252692136793755 $99 $249 forward 7 unknown #
coedge $-1 $106 $250 $100 $175 forward $187 $-1 #
edge $-1 $179 -2.2252692136793755 $108 2.2252692136793755 $100 $251 forward 7 unknown #
coedge $-1 $252 $101 $250 $253 reversed $178 $-1 #
coedge $-1 $101 $252 $248 $254 reversed $178 $-1 #
loop $-1 $-1 $177 $255 #
vertex $-1 $175 $256 #
vertex $-1 $102 $257 #
straight-curve $-1 65.689645968988202 -32.804332051333958 0 0 0 -1 I I #
coedge $-1 $104 $258 $169 $245 forward $183 $-1 #
loop $-1 $-1 $182 $237 #
vertex $-1 $105 $259 #
straight-curve $-1 60.479333315009562 -28.353793623975207 -15.588540101471322 1 0 0 I I #
coedge $-1 $260 $106 $170 $246 forward $187 $-1 #
loop $-1 $-1 $186 $165 #
vertex $-1 $246 $261 #
straight-curve $-1 60.479333315009562 -28.353793623975207 15.588540101471322 -1 0 0 I I #
point $-1 65.689645968988202 -28.353793623975207 15.588540101471322 #
point $-1 65.689645968988202 -28.353793623975207 -15.588540101471322 #
plane-surface $-1 55.269020661030915 0 0 -1 0 0 0 0 1 forward_v I I I I #
coedge $-1 $116 $114 $118 $197 reversed $61 $-1 #
edge $-1 $129 -15.588540101471322 $199 15.588540101471322 $128 $262 forward 7 unknown #
vertex $-1 $197 $263 #
straight-curve $-1 -55.269020661030915 -32.804332051333958 0 0 0 -1 I I #
edge $-1 $195 -32.804332051333958 $199 32.804332051333958 $193 $264 forward 7 unknown #
straight-curve $-1 0 -32.804332051333958 -15.588540101471322 -1 0 0 I I #
vertex $-1 $121 $265 #
straight-curve $-1 0 32.804332051333958 -15.588540101471322 1 0 0 I I #
point $-1 55.269020661030915 32.804332051333958 -15.588540101471322 #
point $-1 55.269020661030915 -32.804332051333958 -15.588540101471322 #
straight-curve $-1 -55.269020661030915 0 15.588540101471322 0 -1 0 I I #
point $-1 -55.269020661030915 32.804332051333958 15.588540101471322 #
point $-1 -55.269020661030915 -32.804332051333958 15.588540101471322 #
straight-curve $-1 55.269020661030915 -32.804332051333958 0 0 0 -1 I I #
straight-curve $-1 55.269020661030915 32.804332051333958 0 0 0 -1 I I #
face $-1 $266 $267 $10 $-1 $268 reversed single #
plane-surface $-1 -55.269020661030915 0 0 1 0 0 0 0 -1 forward_v I I I I #
coedge $-1 $269 $156 $158 $234 reversed $139 $-1 #
coedge $-1 $141 $225 $270 $271 forward $80 $-1 #
coedge $-1 $220 $219 $141 $213 reversed $221 $-1 #
edge $-1 $272 -32.804332051333958 $273 32.804332051333958 $212 $274 forward 7 unknown #
coedge $-1 $148 $142 $150 $229 forward $45 $-1 #
coedge $-1 $275 $276 $142 $216 reversed $267 $-1 #
edge $-1 $223 -55.269020661030915 $277 55.269020661030915 $215 $278 forward 7 unknown #
coedge $-1 $156 $269 $143 $218 reversed $139 $-1 #
edge $-1 $161 -65.689645968988188 $222 55.269020661030915 $217 $279 forward 7 unknown #
coedge $-1 $212 $144 $269 $280 forward $221 $-1 #
coedge $-1 $144 $212 $275 $281 reversed $221 $-1 #
loop $-1 $-1 $219 $266 #
vertex $-1 $145 $282 #
vertex $-1 $145 $283 #
straight-curve $-1 55.269020661030915 0 15.588540101471322 0 1 0 I I #
coedge $-1 $211 $146 $151 $230 forward $80 $-1 #
straight-curve $-1 -60.479333315009555 -28.353793623975207 -15.588540101471322 1 0 0 I I #
straight-curve $-1 -60.479333315009555 -28.353793623975207 15.588540101471322 -1 0 0 I I #
coedge $-1 $151 $150 $276 $284 forward $152 $-1 #
edge $-1 $277 -32.804332051333958 $154 28.353793623975207 $150 $285 forward 7 unknown #
edge $-1 $153 -28.353793623975207 $286 32.804332051333958 $151 $287 forward 7 unknown #
point $-1 -55.269020661030922 -28.353793623975207 -15.588540101471322 #
point $-1 -55.269020661030922 -28.353793623975207 15.588540101471322 #
straight-curve $-1 -65.689645968988188 -32.804332051333958 0 0 0 -1 I I #
edge $-1 $273 -115.74835397604048 $159 5.2103126539786331 $210 $288 forward 7 unknown #
point $-1 -65.689645968988188 -32.804332051333958 -15.588540101471322 #
point $-1 -65.689645968988188 -32.804332051333958 15.588540101471322 #
face $-1 $255 $183 $11 $-1 $289 reversed single #
plane-surface $-1 0 0 15.588540101471322 0 0 1 1 0 0 forward_v I I I I #
coedge $-1 $290 $291 $292 $293 reversed $166 $-1 #
coedge $-1 $294 $168 $295 $296 reversed $96 $-1 #
coedge $-1 $168 $294 $297 $298 reversed $96 $-1 #
coedge $-1 $291 $290 $168 $243 reversed $166 $-1 #
edge $-1 $299 -15.588540101471322 $300 15.588540101471322 $242 $301 forward 7 unknown #
coedge $-1 $170 $169 $302 $303 reversed $53 $-1 #
edge $-1 $304 -32.804332051333958 $184 28.353793623975207 $169 $305 forward 7 unknown #
edge $-1 $188 -28.353793623975207 $306 32.804332051333958 $170 $307 forward 7 unknown #
straight-curve $-1 55.269020661030915 -28.353793623975207 0 0 0 -1 I I #
coedge $-1 $295 $172 $177 $254 forward $183 $-1 #
straight-curve $-1 65.689645968988202 -30.579062837654583 -15.588540101471322 0 -1 0 I I #
coedge $-1 $174 $297 $176 $253 forward $187 $-1 #
straight-curve $-1 65.689645968988202 -30.579062837654583 15.588540101471322 0 1 0 I I #
coedge $-1 $177 $176 $294 $308 forward $178 $-1 #
edge $-1 $309 -126.16897928399774 $179 5.2103126539786402 $176 $310 forward 7 unknown #
edge $-1 $180 -5.2103126539786402 $311 126.16897928399774 $177 $312 forward 7 unknown #
face $-1 $313 $178 $11 $-1 $314 reversed single #
point $-1 65.689645968988202 -32.804332051333958 15.588540101471322 #
point $-1 65.689645968988202 -32.804332051333958 -15.588540101471322 #
coedge $-1 $182 $315 $316 $317 forward $183 $-1 #
point $-1 55.269020661030922 -28.353793623975207 -15.588540101471322 #
coedge $-1 $318 $186 $319 $320 forward $187 $-1 #
point $-1 55.269020661030922 -28.353793623975207 15.588540101471322 #
straight-curve $-1 -55.269020661030915 32.804332051333958 0 0 0 -1 I I #
point $-1 -55.269020661030915 -32.804332051333958 -15.588540101471322 #
straight-curve $-1 -55.269020661030915 0 -15.588540101471322 0 1 0 I I #
point $-1 -55.269020661030915 32.804332051333958 -15.588540101471322 #
face $-1 $-1 $221 $10 $-1 $321 reversed single #
loop $-1 $-1 $275 $208 #
plane-surface $-1 0 32.804332051333958 0 0 -1 0 0 0 -1 forward_v I I I I #
coedge $-1 $217 $210 $219 $280 reversed $139 $-1 #
coedge $-1 $276 $275 $211 $271 reversed $267 $-1 #
edge $-1 $286 -55.269020661030915 $272 55.269020661030915 $270 $322 forward 7 unknown #
vertex $-1 $213 $323 #
vertex $-1 $280 $324 #
straight-curve $-1 55.269020661030915 0 -15.588540101471322 0 -1 0 I I #
coedge $-1 $270 $215 $220 $281 forward $267 $-1 #
coedge $-1 $215 $270 $228 $284 reversed $267 $-1 #
vertex $-1 $216 $325 #
straight-curve $-1 0 32.804332051333958 15.588540101471322 -1 0 0 I I #
straight-curve $-1 0 -32.804332051333958 15.588540101471322 1 0 0 I I #
edge $-1 $222 -15.588540101471322 $273 15.588540101471322 $219 $326 forward 7 unknown #
edge $-1 $223 -15.588540101471322 $272 15.588540101471322 $220 $327 forward 7 unknown #
point $-1 55.269020661030915 -32.804332051333958 15.588540101471322 #
point $-1 55.269020661030915 32.804332051333958 15.588540101471322 #
edge $-1 $277 -15.588540101471322 $286 15.588540101471322 $276 $328 forward 7 unknown #
straight-curve $-1 -55.269020661030915 0 15.588540101471322 0 -1 0 I I #
vertex $-1 $271 $329 #
straight-curve $-1 -55.269020661030915 0 -15.588540101471322 0 1 0 I I #
straight-curve $-1 -60.479333315009555 -32.804332051333958 -15.588540101471322 -1 0 0 I I #
plane-surface $-1 0 0 -15.588540101471322 0 0 1 1 0 0 forward_v I I I I #
coedge $-1 $242 $239 $330 $331 reversed $166 $-1 #
coedge $-1 $239 $242 $332 $333 reversed $166 $-1 #
coedge $-1 $334 $335 $239 $293 forward $336 $-1 #
edge $-1 $337 -15.588540101471322 $338 15.588540101471322 $292 $339 forward 7 unknown #
coedge $-1 $241 $240 $252 $308 reversed $96 $-1 #
coedge $-1 $330 $248 $240 $296 forward $183 $-1 #
edge $-1 $311 -2.2252692136793755 $300 2.2252692136793755 $240 $340 forward 7 unknown #
coedge $-1 $250 $332 $241 $298 forward $187 $-1 #
edge $-1 $299 -2.2252692136793755 $309 2.2252692136793755 $241 $341 forward 7 unknown #
vertex $-1 $333 $342 #
vertex $-1 $331 $343 #
straight-curve $-1 -65.689645968988188 -28.353793623975207 0 0 0 -1 I I #
coedge $-1 $316 $319 $244 $303 forward $344 $-1 #
edge $-1 $306 -15.588540101471322 $304 15.588540101471322 $244 $345 forward 7 unknown #
vertex $-1 $245 $346 #
straight-curve $-1 55.269020661030915 0 -15.588540101471322 0 -1 0 I I #
vertex $-1 $246 $347 #
straight-curve $-1 55.269020661030915 0 15.588540101471322 0 1 0 I I #
edge $-1 $309 -15.588540101471322 $311 15.588540101471322 $294 $348 forward 7 unknown #
vertex $-1 $298 $349 #
straight-curve $-1 60.479333315009562 -32.804332051333958 15.588540101471322 1 0 0 I I #
vertex $-1 $296 $350 #
straight-curve $-1 60.479333315009562 -32.804332051333958 -15.588540101471322 -1 0 0 I I #
face $-1 $351 $336 $11 $-1 $352 reversed single #
plane-surface $-1 0 -32.804332051333958 0 0 1 0 0 0 1 forward_v I I I I #
coedge $-1 $258 $330 $335 $353 forward $183 $-1 #
coedge $-1 $354 $302 $258 $317 reversed $344 $-1 #
edge $-1 $355 -55.269020661030915 $304 55.269020661030915 $316 $356 forward 7 unknown #
coedge $-1 $332 $260 $334 $357 forward $187 $-1 #
coedge $-1 $302 $354 $260 $320 reversed $344 $-1 #
edge $-1 $306 -55.269020661030915 $358 55.269020661030915 $319 $359 forward 7 unknown #
plane-surface $-1 55.269020661030915 0 0 -1 0 0 0 0 1 forward_v I I I I #
straight-curve $-1 0 32.804332051333958 -15.588540101471322 1 0 0 I I #
point $-1 55.269020661030915 32.804332051333958 -15.588540101471322 #
point $-1 55.269020661030915 -32.804332051333958 -15.588540101471322 #
point $-1 -55.269020661030915 32.804332051333958 15.588540101471322 #
straight-curve $-1 55.269020661030915 -32.804332051333958 0 0 0 -1 I I #
straight-curve $-1 55.269020661030915 32.804332051333958 0 0 0 -1 I I #
straight-curve $-1 -55.269020661030915 32.804332051333958 0 0 0 -1 I I #
point $-1 -55.269020661030915 32.804332051333958 -15.588540101471322 #
coedge $-1 $315 $295 $290 $331 forward $183 $-1 #
edge $-1 $300 -5.2103126539786331 $337 5.2103126539786331 $290 $360 forward 7 unknown #
coedge $-1 $297 $318 $291 $333 forward $187 $-1 #
edge $-1 $338 -5.2103126539786331 $299 5.2103126539786331 $291 $361 forward 7 unknown #
coedge $-1 $362 $292 $318 $357 reversed $336 $-1 #
coedge $-1 $292 $362 $315 $353 reversed $336 $-1 #
loop $-1 $-1 $292 $313 #
vertex $-1 $353 $363 #
vertex $-1 $333 $364 #
straight-curve $-1 -55.269020661030915 -28.353793623975207 0 0 0 1 I I #
straight-curve $-1 -65.689645968988188 -30.579062837654583 -15.588540101471322 0 1 0 I I #
straight-curve $-1 -65.689645968988188 -30.579062837654583 15.588540101471322 0 -1 0 I I #
point $-1 -65.689645968988188 -28.353793623975207 15.588540101471322 #
point $-1 -65.689645968988188 -28.353793623975207 -15.588540101471322 #
loop $-1 $-1 $302 $351 #
straight-curve $-1 55.269020661030915 32.804332051333958 0 0 0 -1 I I #
point $-1 55.269020661030915 32.804332051333958 -15.588540101471322 #
point $-1 55.269020661030915 32.804332051333958 15.588540101471322 #
straight-curve $-1 -65.689645968988188 -32.804332051333958 0 0 0 -1 I I #
point $-1 -65.689645968988188 -32.804332051333958 15.588540101471322 #
point $-1 -65.689645968988188 -32.804332051333958 -15.588540101471322 #
face $-1 $-1 $344 $11 $-1 $365 reversed single #
plane-surface $-1 -55.269020661030915 0 0 1 0 0 0 0 -1 forward_v I I I I #
edge $-1 $337 -28.353793623975207 $355 32.804332051333958 $335 $366 forward 7 unknown #
coedge $-1 $319 $316 $362 $367 reversed $344 $-1 #
vertex $-1 $317 $368 #
straight-curve $-1 0 32.804332051333958 -15.588540101471322 1 0 0 I I #
edge $-1 $358 -32.804332051333958 $338 28.353793623975207 $334 $369 forward 7 unknown #
vertex $-1 $320 $370 #
straight-curve $-1 0 32.804332051333958 15.588540101471322 -1 0 0 I I #
straight-curve $-1 -60.479333315009555 -28.353793623975207 -15.588540101471322 1 0 0 I I #
straight-curve $-1 -60.479333315009555 -28.353793623975207 15.588540101471322 -1 0 0 I I #
coedge $-1 $335 $334 $354 $367 forward $336 $-1 #
point $-1 -55.269020661030922 -28.353793623975207 -15.588540101471322 #
point $-1 -55.269020661030922 -28.353793623975207 15.588540101471322 #
plane-surface $-1 0 32.804332051333958 0 0 -1 0 0 0 -1 forward_v I I I I #
straight-curve $-1 -55.269020661030915 0 -15.588540101471322 0 1 0 I I #
edge $-1 $358 -15.588540101471322 $355 15.588540101471322 $354 $371 forward 7 unknown #
point $-1 -55.269020661030915 32.804332051333958 -15.588540101471322 #
straight-curve $-1 -55.269020661030915 0 15.588540101471322 0 -1 0 I I #
point $-1 -55.269020661030915 32.804332051333958 15.588540101471322 #
straight-curve $-1 -55.269020661030915 32.804332051333958 0 0 0 -1 I I #
End-of-ACIS-data 