500 0 14 0           
7 Unknown 11 ACIS 5.0 NT 24 Fri Mar 26 19:51:16 1999 
-1 9.9999999999999995e-007 1e-010 
body $-1 $14 $-1 $15 #
body $-1 $16 $-1 $17 #
body $-1 $18 $-1 $19 #
body $-1 $20 $-1 $21 #
body $-1 $22 $-1 $23 #
body $-1 $24 $-1 $25 #
body $-1 $26 $-1 $27 #
body $-1 $28 $-1 $29 #
body $-1 $30 $-1 $31 #
body $-1 $32 $-1 $33 #
body $-1 $34 $-1 $35 #
body $-1 $36 $-1 $37 #
body $-1 $38 $-1 $39 #
body $-1 $40 $-1 $41 #
lump $-1 $-1 $42 $0 #
transform $-1 1 0 0 0 1 0 0 0 1 74.791100802636805 39.383162650805268 12.220475058811077 1 rotate no_reflect no_shear #
lump $-1 $-1 $43 $1 #
transform $-1 1 0 0 0 1 0 0 0 1 74.791100802636805 39.383162650805268 12.220475058811077 1 rotate no_reflect no_shear #
lump $-1 $-1 $44 $2 #
transform $-1 1 0 0 0 1 0 0 0 1 74.791100802636805 39.383162650805268 12.220475058811077 1 rotate no_reflect no_shear #
lump $-1 $-1 $45 $3 #
transform $-1 1 0 0 0 1 0 0 0 1 74.791100802636805 39.383162650805268 12.220475058811077 1 rotate no_reflect no_shear #
lump $-1 $-1 $46 $4 #
transform $-1 1 0 0 0 1 0 0 0 1 74.791100802636805 39.383162650805268 12.220475058811077 1 rotate no_reflect no_shear #
lump $-1 $-1 $47 $5 #
transform $-1 1 0 0 0 1 0 0 0 1 74.791100802636805 39.383162650805268 12.220475058811077 1 rotate no_reflect no_shear #
lump $-1 $-1 $48 $6 #
transform $-1 1 0 0 0 1 0 0 0 1 74.791100802636805 39.383162650805268 12.220475058811077 1 rotate no_reflect no_shear #
lump $-1 $-1 $49 $7 #
transform $-1 1 0 0 0 1 0 0 0 1 74.791100802636805 39.383162650805268 12.220475058811077 1 rotate no_reflect no_shear #
lump $-1 $-1 $50 $8 #
transform $-1 1 0 0 0 1 0 0 0 1 74.791100802636805 39.383162650805268 12.220475058811077 1 rotate no_reflect no_shear #
lump $-1 $-1 $51 $9 #
transform $-1 1 0 0 0 1 0 0 0 1 74.791100802636805 39.383162650805268 12.220475058811077 1 rotate no_reflect no_shear #
lump $-1 $-1 $52 $10 #
transform $-1 1 0 0 0 1 0 0 0 1 74.791100802636805 39.383162650805268 12.220475058811077 1 rotate no_reflect no_shear #
lump $-1 $-1 $53 $11 #
transform $-1 1 0 0 0 1 0 0 0 1 74.791100802636805 39.383162650805268 12.220475058811077 1 rotate no_reflect no_shear #
lump $-1 $-1 $54 $12 #
transform $-1 1 0 0 0 1 0 0 0 1 74.791100802636805 39.383162650805268 12.220475058811077 1 rotate no_reflect no_shear #
lump $-1 $-1 $55 $13 #
transform $-1 1 0 0 0 1 0 0 0 1 74.791100802636805 39.383162650805268 12.220475058811077 1 rotate no_reflect no_shear #
shell $-1 $-1 $-1 $56 $-1 $14 #
shell $-1 $-1 $-1 $57 $-1 $16 #
shell $-1 $-1 $-1 $58 $-1 $18 #
shell $-1 $-1 $-1 $59 $-1 $20 #
shell $-1 $-1 $-1 $60 $-1 $22 #
shell $-1 $-1 $-1 $61 $-1 $24 #
shell $-1 $-1 $-1 $62 $-1 $26 #
shell $-1 $-1 $-1 $63 $-1 $28 #
shell $-1 $-1 $-1 $64 $-1 $30 #
shell $-1 $-1 $-1 $65 $-1 $32 #
shell $-1 $-1 $-1 $66 $-1 $34 #
shell $-1 $-1 $-1 $67 $-1 $36 #
shell $-1 $-1 $-1 $68 $-1 $38 #
shell $-1 $-1 $-1 $69 $-1 $40 #
face $-1 $70 $71 $42 $-1 $72 forward single #
face $-1 $73 $74 $43 $-1 $75 forward single #
face $-1 $76 $77 $44 $-1 $78 reversed single #
face $-1 $79 $80 $45 $-1 $81 forward single #
face $-1 $82 $83 $46 $-1 $84 forward single #
face $-1 $85 $86 $47 $-1 $87 reversed single #
face $-1 $88 $89 $48 $-1 $90 forward single #
face $-1 $91 $92 $49 $-1 $93 forward single #
face $-1 $94 $95 $50 $-1 $96 reversed single #
face $-1 $97 $98 $51 $-1 $99 forward single #
face $-1 $100 $101 $52 $-1 $102 forward single #
face $-1 $103 $104 $53 $-1 $105 reversed single #
face $-1 $106 $107 $54 $-1 $108 forward single #
face $-1 $109 $110 $55 $-1 $111 forward single #
face $-1 $112 $113 $42 $-1 $114 reversed single #
loop $-1 $-1 $115 $56 #
plane-surface $-1 0 0 12.220475058811077 0 0 1 1 0 0 forward_v I I I I #
face $-1 $116 $117 $43 $-1 $118 forward single #
loop $-1 $-1 $119 $57 #
plane-surface $-1 0 -39.383162650805268 0 0 1 0 0 0 1 forward_v I I I I #
face $-1 $120 $121 $44 $-1 $122 reversed single #
loop $-1 $-1 $123 $58 #
plane-surface $-1 -61.999898406995555 89.457550874219919 166.60197146073372 1 0 0 0 -0.70710678939079041 -0.70710677298230451 forward_v I I I I #
face $-1 $124 $125 $45 $-1 $126 forward single #
loop $-1 $127 $128 $59 #
cone-surface $-1 -54.970084691087798 34.966321163341036 7.8036335094251301 0 -0.70710678939079041 -0.70710677298230451 1.5 0 0 1 I I 0 1 1.5 forward I I I I #
face $-1 $129 $130 $46 $-1 $131 forward single #
loop $-1 $132 $133 $60 #
cone-surface $-1 -44.42536411722616 34.966321163341036 7.8036335094251301 0 -0.70710678939079041 -0.70710677298230451 1.5 0 0 1 I I 0 1 1.5 forward I I I I #
face $-1 $134 $135 $47 $-1 $136 reversed single #
loop $-1 $-1 $137 $61 #
plane-surface $-1 -28.868082137557565 89.457550874219919 166.60197146073372 1 0 0 0 -0.70710678939079041 -0.70710677298230451 forward_v I I I I #
face $-1 $138 $139 $48 $-1 $140 forward single #
loop $-1 $141 $142 $62 #
cone-surface $-1 -21.838268421649808 34.966321163341036 7.8036335094251301 0 -0.70710678939079041 -0.70710677298230451 1.5 0 0 1 I I 0 1 1.5 forward I I I I #
face $-1 $143 $144 $49 $-1 $145 forward single #
loop $-1 $146 $147 $63 #
cone-surface $-1 -11.293547847788169 34.966321163341036 7.8036335094251301 0 -0.70710678939079041 -0.70710677298230451 1.5 0 0 1 I I 0 1 1.5 forward I I I I #
face $-1 $148 $149 $50 $-1 $150 reversed single #
loop $-1 $-1 $151 $64 #
plane-surface $-1 4.2637341318804172 89.457550874219919 166.60197146073372 1 0 0 0 -0.70710678939079041 -0.70710677298230451 forward_v I I I I #
face $-1 $152 $153 $51 $-1 $154 forward single #
loop $-1 $155 $156 $65 #
cone-surface $-1 11.293547847788176 34.966321163341036 7.8036335094251301 0 -0.70710678939079041 -0.70710677298230451 1.5 0 0 1 I I 0 1 1.5 forward I I I I #
face $-1 $157 $158 $52 $-1 $159 forward single #
loop $-1 $160 $161 $66 #
cone-surface $-1 21.838268421649815 34.966321163341036 7.8036335094251301 0 -0.70710678939079041 -0.70710677298230451 1.5 0 0 1 I I 0 1 1.5 forward I I I I #
face $-1 $162 $163 $53 $-1 $164 reversed single #
loop $-1 $-1 $165 $67 #
plane-surface $-1 37.39555040131841 89.457550874219919 166.60197146073372 1 0 0 0 -0.70710678939079041 -0.70710677298230451 forward_v I I I I #
face $-1 $166 $167 $54 $-1 $168 forward single #
loop $-1 $169 $170 $68 #
cone-surface $-1 44.425364117226167 34.966321163341036 7.8036335094251301 0 -0.70710678939079041 -0.70710677298230451 1.5 0 0 1 I I 0 1 1.5 forward I I I I #
face $-1 $171 $172 $55 $-1 $173 forward single #
loop $-1 $174 $175 $69 #
cone-surface $-1 54.970084691087806 34.966321163341036 7.8036335094251301 0 -0.70710678939079041 -0.70710677298230451 1.5 0 0 1 I I 0 1 1.5 forward I I I I #
face $-1 $176 $177 $42 $-1 $178 reversed single #
loop $-1 $-1 $179 $70 #
plane-surface $-1 0 0 -12.220475058811077 0 0 1 1 0 0 forward_v I I I I #
coedge $-1 $180 $181 $182 $183 forward $71 $-1 #
face $-1 $184 $185 $43 $-1 $186 reversed single #
loop $-1 $-1 $187 $73 #
plane-surface $-1 0 0 12.220475058811077 0 0 1 1 0 0 forward_v I I I I #
coedge $-1 $188 $189 $190 $191 forward $74 $-1 #
face $-1 $192 $193 $44 $-1 $194 reversed single #
loop $-1 $-1 $195 $76 #
plane-surface $-1 -49.697724404156979 -16.313039452891033 60.831383588040211 0 0.70710678939079041 0.70710677298230451 1 0 0 forward_v I I I I #
coedge $-1 $196 $197 $198 $199 reversed $77 $-1 #
face $-1 $-1 $200 $45 $-1 $201 forward single #
loop $-1 $202 $203 $79 #
cone-surface $-1 -54.970084691087798 33.561796935077858 6.3991093137540798 0 -0.70710678939079041 -0.70710677298230451 0.75 0 0 1 I I -0.70710678118654757 0.70710678118654757 0.75 forward I I I I #
loop $-1 $-1 $204 $59 #
coedge $-1 $128 $128 $205 $206 reversed $80 $-1 #
face $-1 $-1 $207 $46 $-1 $208 forward single #
loop $-1 $209 $210 $82 #
cone-surface $-1 -44.42536411722616 33.561796935077858 6.3991093137540798 0 -0.70710678939079041 -0.70710677298230451 0.75 0 0 1 I I -0.70710678118654757 0.70710678118654757 0.75 forward I I I I #
loop $-1 $-1 $211 $60 #
coedge $-1 $133 $133 $212 $213 reversed $83 $-1 #
face $-1 $214 $215 $47 $-1 $216 reversed single #
loop $-1 $-1 $217 $85 #
plane-surface $-1 -16.565908134718988 -16.313039452891033 60.831383588040211 0 0.70710678939079041 0.70710677298230451 1 0 0 forward_v I I I I #
coedge $-1 $218 $219 $220 $221 reversed $86 $-1 #
face $-1 $-1 $222 $48 $-1 $223 forward single #
loop $-1 $224 $225 $88 #
cone-surface $-1 -21.838268421649808 33.561796935077858 6.3991093137540798 0 -0.70710678939079041 -0.70710677298230451 0.75 0 0 1 I I -0.70710678118654757 0.70710678118654757 0.75 forward I I I I #
loop $-1 $-1 $226 $62 #
coedge $-1 $142 $142 $227 $228 reversed $89 $-1 #
face $-1 $-1 $229 $49 $-1 $230 forward single #
loop $-1 $231 $232 $91 #
cone-surface $-1 -11.293547847788169 33.561796935077858 6.3991093137540798 0 -0.70710678939079041 -0.70710677298230451 0.75 0 0 1 I I -0.70710678118654757 0.70710678118654757 0.75 forward I I I I #
loop $-1 $-1 $233 $63 #
coedge $-1 $147 $147 $234 $235 reversed $92 $-1 #
face $-1 $236 $237 $50 $-1 $238 reversed single #
loop $-1 $-1 $239 $94 #
plane-surface $-1 16.565908134718995 -16.313039452891033 60.831383588040211 0 0.70710678939079041 0.70710677298230451 1 0 0 forward_v I I I I #
coedge $-1 $240 $241 $242 $243 reversed $95 $-1 #
face $-1 $-1 $244 $51 $-1 $245 forward single #
loop $-1 $246 $247 $97 #
cone-surface $-1 11.293547847788176 33.561796935077858 6.3991093137540798 0 -0.70710678939079041 -0.70710677298230451 0.75 0 0 1 I I -0.70710678118654757 0.70710678118654757 0.75 forward I I I I #
loop $-1 $-1 $248 $65 #
coedge $-1 $156 $156 $249 $250 reversed $98 $-1 #
face $-1 $-1 $251 $52 $-1 $252 forward single #
loop $-1 $253 $254 $100 #
cone-surface $-1 21.838268421649815 33.561796935077858 6.3991093137540798 0 -0.70710678939079041 -0.70710677298230451 0.75 0 0 1 I I -0.70710678118654757 0.70710678118654757 0.75 forward I I I I #
loop $-1 $-1 $255 $66 #
coedge $-1 $161 $161 $256 $257 reversed $101 $-1 #
face $-1 $258 $259 $53 $-1 $260 reversed single #
loop $-1 $-1 $261 $103 #
plane-surface $-1 49.697724404156986 -16.313039452891033 60.831383588040211 0 0.70710678939079041 0.70710677298230451 1 0 0 forward_v I I I I #
coedge $-1 $262 $263 $264 $265 reversed $104 $-1 #
face $-1 $-1 $266 $54 $-1 $267 forward single #
loop $-1 $268 $269 $106 #
cone-surface $-1 44.425364117226167 33.561796935077858 6.3991093137540798 0 -0.70710678939079041 -0.70710677298230451 0.75 0 0 1 I I -0.70710678118654757 0.70710678118654757 0.75 forward I I I I #
loop $-1 $-1 $270 $68 #
coedge $-1 $170 $170 $271 $272 reversed $107 $-1 #
face $-1 $-1 $273 $55 $-1 $274 forward single #
loop $-1 $275 $276 $109 #
cone-surface $-1 54.970084691087806 33.561796935077858 6.3991093137540798 0 -0.70710678939079041 -0.70710677298230451 0.75 0 0 1 I I -0.70710678118654757 0.70710678118654757 0.75 forward I I I I #
loop $-1 $-1 $277 $69 #
coedge $-1 $175 $175 $278 $279 reversed $110 $-1 #
face $-1 $280 $281 $42 $-1 $282 reversed single #
loop $-1 $-1 $283 $112 #
plane-surface $-1 0 -39.383162650805268 0 0 1 0 0 0 1 forward_v I I I I #
coedge $-1 $284 $285 $286 $287 forward $113 $-1 #
coedge $-1 $288 $115 $289 $290 forward $71 $-1 #
coedge $-1 $115 $288 $291 $292 forward $71 $-1 #
coedge $-1 $293 $294 $115 $183 reversed $295 $-1 #
edge $-1 $296 -39.383162650805268 $297 39.383162650805268 $182 $298 forward 7 unknown #
face $-1 $299 $300 $43 $-1 $301 reversed single #
loop $-1 $-1 $302 $116 #
plane-surface $-1 -74.791100802636805 0 0 1 0 0 0 0 -1 forward_v I I I I #
coedge $-1 $303 $304 $305 $306 forward $117 $-1 #
coedge $-1 $305 $119 $302 $307 reversed $74 $-1 #
coedge $-1 $119 $305 $308 $309 reversed $74 $-1 #
coedge $-1 $310 $311 $119 $191 reversed $300 $-1 #
edge $-1 $312 -74.791100802636805 $313 74.791100802636805 $190 $314 forward 7 unknown #
face $-1 $315 $316 $44 $-1 $317 reversed single #
loop $-1 $-1 $318 $120 #
plane-surface $-1 -37.395550401318403 89.457550874219919 166.60197146073372 -1 0 0 0 0.70710678939079041 0.70710677298230451 forward_v I I I I #
coedge $-1 $319 $320 $321 $322 reversed $121 $-1 #
coedge $-1 $197 $123 $323 $324 reversed $77 $-1 #
coedge $-1 $123 $196 $319 $325 reversed $77 $-1 #
coedge $-1 $321 $326 $123 $199 forward $327 $-1 #
edge $-1 $328 5.3456127863046916 $329 12.430907488792997 $198 $330 forward 7 unknown #
loop $-1 $-1 $205 $124 #
plane-surface $-1 -49.697724404156979 -16.313039452891033 60.831383588040211 0 0.70710678939079041 0.70710677298230451 1 0 0 forward_v I I I I #
loop $-1 $-1 $331 $79 #
coedge $-1 $203 $203 $204 $332 reversed $125 $-1 #
coedge $-1 $204 $204 $203 $332 forward $127 $-1 #
coedge $-1 $205 $205 $128 $206 forward $200 $-1 #
edge $-1 $333 8.3738242116851291e-016 $333 6.2831853071796013 $205 $334 forward 7 unknown #
loop $-1 $-1 $212 $129 #
plane-surface $-1 -49.697724404156979 -16.313039452891033 60.831383588040211 0 0.70710678939079041 0.70710677298230451 1 0 0 forward_v I I I I #
loop $-1 $-1 $335 $82 #
coedge $-1 $210 $210 $211 $336 reversed $130 $-1 #
coedge $-1 $211 $211 $210 $336 forward $132 $-1 #
coedge $-1 $212 $212 $133 $213 forward $207 $-1 #
edge $-1 $337 8.3738242116851291e-016 $337 6.2831853071796013 $212 $338 forward 7 unknown #
face $-1 $339 $340 $47 $-1 $341 forward single #
loop $-1 $-1 $342 $134 #
plane-surface $-1 -4.2637341318804101 89.457550874219919 166.60197146073372 -1 0 0 0 0.70710678939079041 0.70710677298230451 forward_v I I I I #
coedge $-1 $343 $344 $345 $346 reversed $135 $-1 #
coedge $-1 $219 $137 $347 $348 reversed $86 $-1 #
coedge $-1 $137 $218 $343 $349 reversed $86 $-1 #
coedge $-1 $345 $350 $137 $221 forward $340 $-1 #
edge $-1 $351 5.3456127863046916 $352 12.430907488792997 $220 $353 forward 7 unknown #
loop $-1 $-1 $227 $138 #
plane-surface $-1 -16.565908134718988 -16.313039452891033 60.831383588040211 0 0.70710678939079041 0.70710677298230451 1 0 0 forward_v I I I I #
loop $-1 $-1 $354 $88 #
coedge $-1 $225 $225 $226 $355 reversed $139 $-1 #
coedge $-1 $226 $226 $225 $355 forward $141 $-1 #
coedge $-1 $227 $227 $142 $228 forward $222 $-1 #
edge $-1 $356 8.3738242116851291e-016 $356 6.2831853071796013 $227 $357 forward 7 unknown #
loop $-1 $-1 $234 $143 #
plane-surface $-1 -16.565908134718988 -16.313039452891033 60.831383588040211 0 0.70710678939079041 0.70710677298230451 1 0 0 forward_v I I I I #
loop $-1 $-1 $358 $91 #
coedge $-1 $232 $232 $233 $359 reversed $144 $-1 #
coedge $-1 $233 $233 $232 $359 forward $146 $-1 #
coedge $-1 $234 $234 $147 $235 forward $229 $-1 #
edge $-1 $360 8.3738242116851291e-016 $360 6.2831853071796013 $234 $361 forward 7 unknown #
face $-1 $362 $363 $50 $-1 $364 forward single #
loop $-1 $-1 $365 $148 #
plane-surface $-1 28.868082137557572 89.457550874219919 166.60197146073372 -1 0 0 0 0.70710678939079041 0.70710677298230451 forward_v I I I I #
coedge $-1 $366 $367 $368 $369 reversed $149 $-1 #
coedge $-1 $241 $151 $370 $371 reversed $95 $-1 #
coedge $-1 $151 $240 $366 $372 reversed $95 $-1 #
coedge $-1 $368 $373 $151 $243 forward $363 $-1 #
edge $-1 $374 5.3456127863046916 $375 12.430907488792997 $242 $376 forward 7 unknown #
loop $-1 $-1 $249 $152 #
plane-surface $-1 16.565908134718995 -16.313039452891033 60.831383588040211 0 0.70710678939079041 0.70710677298230451 1 0 0 forward_v I I I I #
loop $-1 $-1 $377 $97 #
coedge $-1 $247 $247 $248 $378 reversed $153 $-1 #
coedge $-1 $248 $248 $247 $378 forward $155 $-1 #
coedge $-1 $249 $249 $156 $250 forward $244 $-1 #
edge $-1 $379 8.3738242116851291e-016 $379 6.2831853071796013 $249 $380 forward 7 unknown #
loop $-1 $-1 $256 $157 #
plane-surface $-1 16.565908134718995 -16.313039452891033 60.831383588040211 0 0.70710678939079041 0.70710677298230451 1 0 0 forward_v I I I I #
loop $-1 $-1 $381 $100 #
coedge $-1 $254 $254 $255 $382 reversed $158 $-1 #
coedge $-1 $255 $255 $254 $382 forward $160 $-1 #
coedge $-1 $256 $256 $161 $257 forward $251 $-1 #
edge $-1 $383 8.3738242116851291e-016 $383 6.2831853071796013 $256 $384 forward 7 unknown #
face $-1 $385 $386 $53 $-1 $387 forward single #
loop $-1 $-1 $388 $162 #
plane-surface $-1 61.999898406995563 89.457550874219919 166.60197146073372 -1 0 0 0 0.70710678939079041 0.70710677298230451 forward_v I I I I #
coedge $-1 $389 $390 $391 $392 reversed $163 $-1 #
coedge $-1 $263 $165 $393 $394 reversed $104 $-1 #
coedge $-1 $165 $262 $389 $395 reversed $104 $-1 #
coedge $-1 $391 $396 $165 $265 forward $386 $-1 #
edge $-1 $397 5.3456127863046916 $398 12.430907488792997 $264 $399 forward 7 unknown #
loop $-1 $-1 $271 $166 #
plane-surface $-1 49.697724404156986 -16.313039452891033 60.831383588040211 0 0.70710678939079041 0.70710677298230451 1 0 0 forward_v I I I I #
loop $-1 $-1 $400 $106 #
coedge $-1 $269 $269 $270 $401 reversed $167 $-1 #
coedge $-1 $270 $270 $269 $401 forward $169 $-1 #
coedge $-1 $271 $271 $170 $272 forward $266 $-1 #
edge $-1 $402 8.3738242116851291e-016 $402 6.2831853071796013 $271 $403 forward 7 unknown #
loop $-1 $-1 $278 $171 #
plane-surface $-1 49.697724404156986 -16.313039452891033 60.831383588040211 0 0.70710678939079041 0.70710677298230451 1 0 0 forward_v I I I I #
loop $-1 $-1 $404 $109 #
coedge $-1 $276 $276 $277 $405 reversed $172 $-1 #
coedge $-1 $277 $277 $276 $405 forward $174 $-1 #
coedge $-1 $278 $278 $175 $279 forward $273 $-1 #
edge $-1 $406 8.3738242116851291e-016 $406 6.2831853071796013 $278 $407 forward 7 unknown #
face $-1 $408 $409 $42 $-1 $410 reversed single #
loop $-1 $-1 $411 $176 #
plane-surface $-1 -74.791100802636805 0 0 1 0 0 0 0 -1 forward_v I I I I #
coedge $-1 $412 $291 $413 $414 forward $177 $-1 #
coedge $-1 $415 $179 $412 $416 forward $113 $-1 #
coedge $-1 $179 $415 $417 $418 forward $113 $-1 #
coedge $-1 $294 $293 $179 $287 reversed $295 $-1 #
edge $-1 $419 -39.383162650805268 $420 39.383162650805268 $286 $421 forward 7 unknown #
coedge $-1 $181 $180 $422 $423 forward $71 $-1 #
coedge $-1 $424 $425 $180 $290 reversed $409 $-1 #
edge $-1 $297 -74.791100802636805 $426 74.791100802636805 $289 $427 forward 7 unknown #
coedge $-1 $283 $428 $181 $292 reversed $177 $-1 #
edge $-1 $429 -74.791100802636805 $296 74.791100802636805 $291 $430 forward 7 unknown #
coedge $-1 $286 $182 $428 $431 forward $295 $-1 #
coedge $-1 $182 $286 $424 $432 reversed $295 $-1 #
loop $-1 $-1 $293 $408 #
vertex $-1 $183 $433 #
vertex $-1 $183 $434 #
straight-curve $-1 74.791100802636805 0 12.220475058811077 0 1 0 I I #
face $-1 $435 $436 $43 $-1 $437 reversed single #
loop $-1 $-1 $310 $184 #
plane-surface $-1 0 -45.439497617869122 7.9641380839220925 0 0 1 1 0 0 forward_v I I I I #
coedge $-1 $438 $439 $188 $307 forward $185 $-1 #
coedge $-1 $440 $187 $439 $441 forward $117 $-1 #
coedge $-1 $187 $440 $442 $443 forward $117 $-1 #
coedge $-1 $189 $188 $187 $306 reversed $74 $-1 #
edge $-1 $444 -74.791100802636805 $445 74.791100802636805 $187 $446 forward 7 unknown #
edge $-1 $445 -12.220475058811077 $313 -7.9641380839220925 $302 $447 forward 7 unknown #
coedge $-1 $442 $448 $189 $309 forward $449 $-1 #
edge $-1 $312 7.9641380839220925 $444 12.220475058811077 $308 $450 forward 7 unknown #
coedge $-1 $451 $190 $448 $452 forward $300 $-1 #
coedge $-1 $190 $451 $438 $453 forward $300 $-1 #
vertex $-1 $309 $454 #
vertex $-1 $307 $455 #
straight-curve $-1 0 -39.383162650805268 7.9641380839220925 -1 0 0 I I #
face $-1 $-1 $327 $44 $-1 $456 forward single #
loop $-1 $-1 $457 $192 #
plane-surface $-1 0 39.383162650805268 0 0 -1 0 0 0 -1 forward_v I I I I #
coedge $-1 $458 $459 $460 $461 reversed $193 $-1 #
coedge $-1 $462 $195 $197 $325 forward $121 $-1 #
coedge $-1 $195 $462 $458 $463 forward $121 $-1 #
coedge $-1 $460 $198 $195 $322 forward $327 $-1 #
edge $-1 $329 -37.151036204917062 $464 -12.546688199239913 $321 $465 forward 7 unknown #
coedge $-1 $466 $467 $196 $324 forward $316 $-1 #
edge $-1 $468 -78.165805538459097 $328 -71.080510671555786 $323 $469 forward 7 unknown #
edge $-1 $329 68.746205323682446 $468 78.766325301610593 $197 $470 forward 7 unknown #
coedge $-1 $198 $460 $466 $471 forward $327 $-1 #
loop $-1 $-1 $460 $315 #
vertex $-1 $324 $472 #
vertex $-1 $199 $473 #
straight-curve $-1 -61.999898406995555 44.72877543710996 12.220475058811076 0 -1 0 I I #
coedge $-1 $331 $331 $-1 $474 reversed $202 $-1 #
edge $-1 $475 0 $475 6.2831853071796004 $203 $476 forward 7 unknown #
vertex $-1 $206 $477 #
ellipse-curve $-1 -54.970084691087798 35.840515299561105 8.6778276253594324 0 0.70710678939079041 0.70710677298230451 1.5 0 0 1 I I #
coedge $-1 $335 $335 $-1 $478 reversed $209 $-1 #
edge $-1 $479 0 $479 6.2831853071796004 $210 $480 forward 7 unknown #
vertex $-1 $213 $481 #
ellipse-curve $-1 -44.42536411722616 35.840515299561105 8.6778276253594324 0 0.70710678939079041 0.70710677298230451 1.5 0 0 1 I I #
face $-1 $-1 $482 $47 $-1 $483 reversed single #
loop $-1 $-1 $220 $214 #
plane-surface $-1 0 0 12.220475058811077 0 0 1 1 0 0 forward_v I I I I #
coedge $-1 $484 $485 $486 $487 reversed $215 $-1 #
coedge $-1 $488 $217 $219 $349 forward $135 $-1 #
coedge $-1 $217 $488 $484 $489 forward $135 $-1 #
coedge $-1 $486 $220 $217 $346 forward $340 $-1 #
edge $-1 $352 -20.585128070198071 $490 4.0192199354790841 $345 $491 forward 7 unknown #
coedge $-1 $492 $493 $218 $348 forward $482 $-1 #
edge $-1 $494 -78.165805538459097 $351 -71.080510671555786 $347 $495 forward 7 unknown #
edge $-1 $352 68.746205323682446 $494 78.766325301610593 $219 $496 forward 7 unknown #
coedge $-1 $220 $486 $492 $497 forward $340 $-1 #
vertex $-1 $221 $498 #
vertex $-1 $221 $499 #
straight-curve $-1 -28.868082137557565 44.72877543710996 12.220475058811076 0 -1 0 I I #
coedge $-1 $354 $354 $-1 $500 reversed $224 $-1 #
edge $-1 $501 0 $501 6.2831853071796004 $225 $502 forward 7 unknown #
vertex $-1 $228 $503 #
ellipse-curve $-1 -21.838268421649808 35.840515299561105 8.6778276253594324 0 0.70710678939079041 0.70710677298230451 1.5 0 0 1 I I #
coedge $-1 $358 $358 $-1 $504 reversed $231 $-1 #
edge $-1 $505 0 $505 6.2831853071796004 $232 $506 forward 7 unknown #
vertex $-1 $235 $507 #
ellipse-curve $-1 -11.293547847788169 35.840515299561105 8.6778276253594324 0 0.70710678939079041 0.70710677298230451 1.5 0 0 1 I I #
face $-1 $-1 $508 $50 $-1 $509 reversed single #
loop $-1 $-1 $242 $236 #
plane-surface $-1 0 0 12.220475058811077 0 0 1 1 0 0 forward_v I I I I #
coedge $-1 $510 $511 $512 $513 reversed $237 $-1 #
coedge $-1 $514 $239 $241 $372 forward $149 $-1 #
coedge $-1 $239 $514 $510 $515 forward $149 $-1 #
coedge $-1 $512 $242 $239 $369 forward $363 $-1 #
edge $-1 $375 -4.0192199354790805 $516 20.585128070198074 $368 $517 forward 7 unknown #
coedge $-1 $518 $519 $240 $371 forward $508 $-1 #
edge $-1 $520 -78.165805538459097 $374 -71.080510671555786 $370 $521 forward 7 unknown #
edge $-1 $375 68.746205323682446 $520 78.766325301610593 $241 $522 forward 7 unknown #
coedge $-1 $242 $512 $518 $523 forward $363 $-1 #
vertex $-1 $243 $524 #
vertex $-1 $243 $525 #
straight-curve $-1 4.2637341318804172 44.72877543710996 12.220475058811076 0 -1 0 I I #
coedge $-1 $377 $377 $-1 $526 reversed $246 $-1 #
edge $-1 $527 0 $527 6.2831853071796004 $247 $528 forward 7 unknown #
vertex $-1 $250 $529 #
ellipse-curve $-1 11.293547847788176 35.840515299561105 8.6778276253594324 0 0.70710678939079041 0.70710677298230451 1.5 0 0 1 I I #
coedge $-1 $381 $381 $-1 $530 reversed $253 $-1 #
edge $-1 $531 0 $531 6.2831853071796004 $254 $532 forward 7 unknown #
vertex $-1 $257 $533 #
ellipse-curve $-1 21.838268421649815 35.840515299561105 8.6778276253594324 0 0.70710678939079041 0.70710677298230451 1.5 0 0 1 I I #
face $-1 $-1 $534 $53 $-1 $535 reversed single #
loop $-1 $-1 $264 $258 #
plane-surface $-1 0 0 12.220475058811077 0 0 1 1 0 0 forward_v I I I I #
coedge $-1 $536 $537 $538 $539 reversed $259 $-1 #
coedge $-1 $540 $261 $263 $395 forward $163 $-1 #
coedge $-1 $261 $540 $536 $541 forward $163 $-1 #
coedge $-1 $538 $264 $261 $392 forward $386 $-1 #
edge $-1 $398 12.546688199239917 $542 37.151036204917069 $391 $543 forward 7 unknown #
coedge $-1 $544 $545 $262 $394 forward $534 $-1 #
edge $-1 $546 -78.165805538459097 $397 -71.080510671555786 $393 $547 forward 7 unknown #
edge $-1 $398 68.746205323682446 $546 78.766325301610593 $263 $548 forward 7 unknown #
coedge $-1 $264 $538 $544 $549 forward $386 $-1 #
vertex $-1 $265 $550 #
vertex $-1 $265 $551 #
straight-curve $-1 37.39555040131841 44.72877543710996 12.220475058811076 0 -1 0 I I #
coedge $-1 $400 $400 $-1 $552 reversed $268 $-1 #
edge $-1 $553 0 $553 6.2831853071796004 $269 $554 forward 7 unknown #
vertex $-1 $272 $555 #
ellipse-curve $-1 44.425364117226167 35.840515299561105 8.6778276253594324 0 0.70710678939079041 0.70710677298230451 1.5 0 0 1 I I #
coedge $-1 $404 $404 $-1 $556 reversed $275 $-1 #
edge $-1 $557 0 $557 6.2831853071796004 $276 $558 forward 7 unknown #
vertex $-1 $279 $559 #
ellipse-curve $-1 54.970084691087806 35.840515299561105 8.6778276253594324 0 0.70710678939079041 0.70710677298230451 1.5 0 0 1 I I #
face $-1 $-1 $295 $42 $-1 $560 reversed single #
loop $-1 $-1 $424 $280 #
plane-surface $-1 0 39.383162650805268 0 0 -1 0 0 0 -1 forward_v I I I I #
coedge $-1 $561 $422 $425 $562 forward $281 $-1 #
coedge $-1 $428 $283 $284 $416 reversed $177 $-1 #
coedge $-1 $422 $561 $283 $414 reversed $281 $-1 #
edge $-1 $429 -12.220475058811077 $563 12.220475058811077 $413 $564 forward 7 unknown #
coedge $-1 $285 $284 $561 $565 forward $113 $-1 #
edge $-1 $420 -74.791100802636805 $563 74.791100802636805 $412 $566 forward 7 unknown #
coedge $-1 $425 $424 $285 $418 reversed $409 $-1 #
edge $-1 $567 -74.791100802636805 $419 74.791100802636805 $417 $568 forward 7 unknown #
vertex $-1 $287 $569 #
vertex $-1 $431 $570 #
straight-curve $-1 74.791100802636805 0 -12.220475058811077 0 -1 0 I I #
coedge $-1 $411 $413 $288 $423 reversed $281 $-1 #
edge $-1 $426 -39.383162650805268 $429 39.383162650805268 $422 $571 forward 7 unknown #
coedge $-1 $417 $289 $294 $432 forward $409 $-1 #
coedge $-1 $289 $417 $411 $562 reversed $409 $-1 #
vertex $-1 $290 $572 #
straight-curve $-1 0 39.383162650805268 12.220475058811077 -1 0 0 I I #
coedge $-1 $291 $412 $293 $431 reversed $177 $-1 #
vertex $-1 $423 $573 #
straight-curve $-1 0 -39.383162650805268 12.220475058811077 1 0 0 I I #
edge $-1 $296 -12.220475058811077 $420 12.220475058811077 $293 $574 forward 7 unknown #
edge $-1 $297 -12.220475058811077 $419 12.220475058811077 $294 $575 forward 7 unknown #
point $-1 74.791100802636805 -39.383162650805268 12.220475058811077 #
point $-1 74.791100802636805 39.383162650805268 12.220475058811077 #
face $-1 $-1 $449 $43 $-1 $576 reversed single #
loop $-1 $-1 $577 $299 #
plane-surface $-1 0 -51.495832584932977 10.092306571366583 0 1 0 0 0 1 forward_v I I I I #
coedge $-1 $578 $302 $311 $453 reversed $185 $-1 #
coedge $-1 $302 $578 $303 $441 reversed $185 $-1 #
coedge $-1 $304 $303 $579 $580 forward $117 $-1 #
edge $-1 $445 39.383162650805268 $581 51.495832584932977 $439 $582 forward 7 unknown #
coedge $-1 $583 $308 $304 $443 reversed $449 $-1 #
edge $-1 $584 -51.495832584932977 $444 -39.383162650805268 $442 $585 forward 7 unknown #
vertex $-1 $309 $586 #
vertex $-1 $441 $587 #
straight-curve $-1 0 -39.383162650805268 12.220475058811077 -1 0 0 I I #
straight-curve $-1 -74.791100802636805 -39.383162650805268 0 0 0 -1 I I #
coedge $-1 $308 $583 $310 $452 reversed $449 $-1 #
loop $-1 $-1 $308 $435 #
straight-curve $-1 74.791100802636805 -39.383162650805268 0 0 0 1 I I #
coedge $-1 $311 $310 $588 $589 forward $300 $-1 #
edge $-1 $312 -6.0563349670638544 $590 6.0563349670638544 $448 $591 forward 7 unknown #
edge $-1 $592 -6.0563349670638544 $313 6.0563349670638544 $438 $593 forward 7 unknown #
point $-1 74.791100802636805 -39.383162650805268 7.9641380839220925 #
point $-1 -74.791100802636805 -39.383162650805268 7.9641380839220925 #
plane-surface $-1 0 0 12.220475058811077 0 0 1 1 0 0 forward_v I I I I #
coedge $-1 $467 $466 $459 $594 forward $316 $-1 #
coedge $-1 $459 $318 $320 $463 reversed $193 $-1 #
coedge $-1 $318 $458 $457 $594 reversed $193 $-1 #
coedge $-1 $326 $321 $318 $461 forward $327 $-1 #
edge $-1 $464 -12.430907488792997 $595 -5.3456127863046916 $460 $596 forward 7 unknown #
coedge $-1 $320 $319 $467 $597 reversed $121 $-1 #
edge $-1 $598 -78.766325301610593 $464 -68.746205323682446 $458 $599 forward 7 unknown #
vertex $-1 $322 $600 #
straight-curve $-1 -24.84886220207849 32.297867948316956 12.220475058811068 1 0 0 I I #
coedge $-1 $457 $323 $326 $471 reversed $316 $-1 #
coedge $-1 $323 $457 $462 $597 forward $316 $-1 #
vertex $-1 $324 $601 #
straight-curve $-1 -61.999898406995555 39.383162650805268 83.300985730366861 0 0 1 I I #
straight-curve $-1 -61.999898406995555 -16.313039452891033 60.831383588040211 0 0.70710677298230451 -0.70710678939079041 I I #
edge $-1 $595 37.395550401318403 $328 61.999898406995555 $466 $602 forward 7 unknown #
point $-1 -61.999898406995555 39.383162650805268 12.220475058811077 #
point $-1 -61.999898406995555 32.297867948316963 12.220475058811076 #
edge $-1 $603 1 $603 0 $331 $-1 forward 7 unknown #
vertex $-1 $332 $604 #
ellipse-curve $-1 -54.970084691087798 34.092127027120952 6.9294393934908083 0 0.70710678939079041 0.70710677298230451 1.5 0 0 1 I I #
point $-1 -53.470084691087798 35.840515299561126 8.677827625359452 #
edge $-1 $605 1 $605 0 $335 $-1 forward 7 unknown #
vertex $-1 $336 $606 #
ellipse-curve $-1 -44.42536411722616 34.092127027120952 6.9294393934908083 0 0.70710678939079041 0.70710677298230451 1.5 0 0 1 I I #
point $-1 -42.92536411722616 35.840515299561126 8.677827625359452 #
loop $-1 $-1 $347 $339 #
plane-surface $-1 0 39.383162650805268 0 0 -1 0 0 0 -1 forward_v I I I I #
coedge $-1 $485 $342 $344 $489 reversed $215 $-1 #
coedge $-1 $342 $484 $607 $608 reversed $215 $-1 #
coedge $-1 $350 $345 $342 $487 forward $340 $-1 #
edge $-1 $490 -12.430907488792997 $609 -5.3456127863046916 $486 $610 forward 7 unknown #
coedge $-1 $344 $343 $493 $611 reversed $135 $-1 #
edge $-1 $612 -78.766325301610593 $490 -68.746205323682446 $484 $613 forward 7 unknown #
vertex $-1 $346 $614 #
straight-curve $-1 -8.2829540673594941 32.297867948316956 12.220475058811068 1 0 0 I I #
coedge $-1 $607 $347 $350 $497 reversed $482 $-1 #
coedge $-1 $347 $607 $488 $611 forward $482 $-1 #
vertex $-1 $348 $615 #
straight-curve $-1 -28.868082137557565 39.383162650805268 83.300985730366861 0 0 1 I I #
straight-curve $-1 -28.868082137557565 -16.313039452891033 60.831383588040211 0 0.70710677298230451 -0.70710678939079041 I I #
edge $-1 $609 4.2637341318804101 $351 28.868082137557565 $492 $616 forward 7 unknown #
point $-1 -28.868082137557565 39.383162650805268 12.220475058811077 #
point $-1 -28.868082137557565 32.297867948316963 12.220475058811076 #
edge $-1 $617 1 $617 0 $354 $-1 forward 7 unknown #
vertex $-1 $355 $618 #
ellipse-curve $-1 -21.838268421649808 34.092127027120952 6.9294393934908083 0 0.70710678939079041 0.70710677298230451 1.5 0 0 1 I I #
point $-1 -20.338268421649808 35.840515299561126 8.677827625359452 #
edge $-1 $619 1 $619 0 $358 $-1 forward 7 unknown #
vertex $-1 $359 $620 #
ellipse-curve $-1 -11.293547847788169 34.092127027120952 6.9294393934908083 0 0.70710678939079041 0.70710677298230451 1.5 0 0 1 I I #
point $-1 -9.7935478477881688 35.840515299561126 8.677827625359452 #
loop $-1 $-1 $370 $362 #
plane-surface $-1 0 39.383162650805268 0 0 -1 0 0 0 -1 forward_v I I I I #
coedge $-1 $511 $365 $367 $515 reversed $237 $-1 #
coedge $-1 $365 $510 $621 $622 reversed $237 $-1 #
coedge $-1 $373 $368 $365 $513 forward $363 $-1 #
edge $-1 $516 -12.430907488792997 $623 -5.3456127863046916 $512 $624 forward 7 unknown #
coedge $-1 $367 $366 $519 $625 reversed $149 $-1 #
edge $-1 $626 -78.766325301610593 $516 -68.746205323682446 $510 $627 forward 7 unknown #
vertex $-1 $369 $628 #
straight-curve $-1 8.2829540673594977 32.297867948316956 12.220475058811068 1 0 0 I I #
coedge $-1 $621 $370 $373 $523 reversed $508 $-1 #
coedge $-1 $370 $621 $514 $625 forward $508 $-1 #
vertex $-1 $371 $629 #
straight-curve $-1 4.2637341318804172 39.383162650805268 83.300985730366861 0 0 1 I I #
straight-curve $-1 4.2637341318804172 -16.313039452891033 60.831383588040211 0 0.70710677298230451 -0.70710678939079041 I I #
edge $-1 $623 -28.868082137557572 $374 -4.2637341318804172 $518 $630 forward 7 unknown #
point $-1 4.2637341318804172 39.383162650805268 12.220475058811077 #
point $-1 4.2637341318804172 32.297867948316963 12.220475058811076 #
edge $-1 $631 1 $631 0 $377 $-1 forward 7 unknown #
vertex $-1 $378 $632 #
ellipse-curve $-1 11.293547847788176 34.092127027120952 6.9294393934908083 0 0.70710678939079041 0.70710677298230451 1.5 0 0 1 I I #
point $-1 12.793547847788176 35.840515299561126 8.677827625359452 #
edge $-1 $633 1 $633 0 $381 $-1 forward 7 unknown #
vertex $-1 $382 $634 #
ellipse-curve $-1 21.838268421649815 34.092127027120952 6.9294393934908083 0 0.70710678939079041 0.70710677298230451 1.5 0 0 1 I I #
point $-1 23.338268421649815 35.840515299561126 8.677827625359452 #
loop $-1 $-1 $393 $385 #
plane-surface $-1 0 39.383162650805268 0 0 -1 0 0 0 -1 forward_v I I I I #
coedge $-1 $537 $388 $390 $541 reversed $259 $-1 #
coedge $-1 $388 $536 $635 $636 reversed $259 $-1 #
coedge $-1 $396 $391 $388 $539 forward $386 $-1 #
edge $-1 $542 -12.430907488792997 $637 -5.3456127863046916 $538 $638 forward 7 unknown #
coedge $-1 $390 $389 $545 $639 reversed $163 $-1 #
edge $-1 $640 -78.766325301610593 $542 -68.746205323682446 $536 $641 forward 7 unknown #
vertex $-1 $392 $642 #
straight-curve $-1 24.848862202078493 32.297867948316956 12.220475058811068 1 0 0 I I #
coedge $-1 $635 $393 $396 $549 reversed $534 $-1 #
coedge $-1 $393 $635 $540 $639 forward $534 $-1 #
vertex $-1 $394 $643 #
straight-curve $-1 37.39555040131841 39.383162650805268 83.300985730366861 0 0 1 I I #
straight-curve $-1 37.39555040131841 -16.313039452891033 60.831383588040211 0 0.70710677298230451 -0.70710678939079041 I I #
edge $-1 $637 -61.999898406995563 $397 -37.39555040131841 $544 $644 forward 7 unknown #
point $-1 37.39555040131841 39.383162650805268 12.220475058811077 #
point $-1 37.39555040131841 32.297867948316963 12.220475058811076 #
edge $-1 $645 1 $645 0 $400 $-1 forward 7 unknown #
vertex $-1 $401 $646 #
ellipse-curve $-1 44.425364117226167 34.092127027120952 6.9294393934908083 0 0.70710678939079041 0.70710677298230451 1.5 0 0 1 I I #
point $-1 45.925364117226167 35.840515299561126 8.677827625359452 #
edge $-1 $647 1 $647 0 $404 $-1 forward 7 unknown #
vertex $-1 $405 $648 #
ellipse-curve $-1 54.970084691087806 34.092127027120952 6.9294393934908083 0 0.70710678939079041 0.70710677298230451 1.5 0 0 1 I I #
point $-1 56.470084691087806 35.840515299561126 8.677827625359452 #
plane-surface $-1 74.791100802636805 0 0 -1 0 0 0 0 1 forward_v I I I I #
coedge $-1 $413 $411 $415 $565 reversed $281 $-1 #
edge $-1 $426 -12.220475058811077 $567 12.220475058811077 $425 $649 forward 7 unknown #
vertex $-1 $565 $650 #
straight-curve $-1 -74.791100802636805 -39.383162650805268 0 0 0 -1 I I #
edge $-1 $563 -39.383162650805268 $567 39.383162650805268 $561 $651 forward 7 unknown #
straight-curve $-1 0 -39.383162650805268 -12.220475058811077 -1 0 0 I I #
vertex $-1 $418 $652 #
straight-curve $-1 0 39.383162650805268 -12.220475058811077 1 0 0 I I #
point $-1 74.791100802636805 39.383162650805268 -12.220475058811077 #
point $-1 74.791100802636805 -39.383162650805268 -12.220475058811077 #
straight-curve $-1 -74.791100802636805 0 12.220475058811077 0 -1 0 I I #
point $-1 -74.791100802636805 39.383162650805268 12.220475058811077 #
point $-1 -74.791100802636805 -39.383162650805268 12.220475058811077 #
straight-curve $-1 74.791100802636805 -39.383162650805268 0 0 0 -1 I I #
straight-curve $-1 74.791100802636805 39.383162650805268 0 0 0 -1 I I #
plane-surface $-1 74.791100802636805 0 0 -1 0 0 0 0 1 forward_v I I I I #
coedge $-1 $588 $579 $578 $653 forward $436 $-1 #
coedge $-1 $439 $438 $577 $653 reversed $185 $-1 #
coedge $-1 $577 $654 $440 $580 reversed $436 $-1 #
edge $-1 $581 -74.791100802636805 $584 74.791100802636805 $579 $655 forward 7 unknown #
vertex $-1 $441 $656 #
straight-curve $-1 -74.791100802636805 0 12.220475058811077 0 -1 0 I I #
coedge $-1 $448 $442 $654 $657 forward $449 $-1 #
vertex $-1 $443 $658 #
straight-curve $-1 74.791100802636805 0 12.220475058811077 0 1 0 I I #
point $-1 74.791100802636805 -39.383162650805268 12.220475058811077 #
point $-1 -74.791100802636805 -39.383162650805268 12.220475058811077 #
coedge $-1 $654 $577 $451 $589 reversed $436 $-1 #
edge $-1 $590 -74.791100802636805 $592 74.791100802636805 $588 $659 forward 7 unknown #
vertex $-1 $657 $660 #
straight-curve $-1 74.791100802636805 -45.439497617869122 7.9641380839220925 0 -1 0 I I #
vertex $-1 $453 $661 #
straight-curve $-1 -74.791100802636805 -45.439497617869122 7.9641380839220925 0 1 0 I I #
edge $-1 $595 71.080510671555786 $598 78.165805538459097 $457 $662 forward 7 unknown #
vertex $-1 $471 $663 #
straight-curve $-1 -37.395550401318403 44.72877543710996 12.220475058811076 0 1 0 I I #
edge $-1 $598 12.546688199239913 $468 37.151036204917062 $467 $664 forward 7 unknown #
vertex $-1 $597 $665 #
straight-curve $-1 -37.395550401318403 -16.313039452891033 60.831383588040211 0 -0.70710677298230451 0.70710678939079041 I I #
point $-1 -37.395550401318403 32.297867948316963 12.220475058811076 #
point $-1 -61.999898406995555 39.383162650805268 5.1351801919077715 #
straight-curve $-1 0 39.383162650805268 12.220475058811077 -1 0 0 I I #
vertex $-1 $474 $666 #
point $-1 -53.470084691087798 34.092127027120952 6.9294393934908083 #
vertex $-1 $478 $667 #
point $-1 -42.92536411722616 34.092127027120952 6.9294393934908083 #
coedge $-1 $493 $492 $485 $608 forward $482 $-1 #
edge $-1 $609 71.080510671555786 $612 78.165805538459097 $607 $668 forward 7 unknown #
vertex $-1 $497 $669 #
straight-curve $-1 -4.2637341318804101 44.72877543710996 12.220475058811076 0 1 0 I I #
edge $-1 $612 -4.0192199354790841 $494 20.585128070198071 $493 $670 forward 7 unknown #
vertex $-1 $611 $671 #
straight-curve $-1 -4.2637341318804101 -16.313039452891033 60.831383588040211 0 -0.70710677298230451 0.70710678939079041 I I #
point $-1 -4.2637341318804101 32.297867948316963 12.220475058811076 #
point $-1 -28.868082137557565 39.383162650805268 5.1351801919077715 #
straight-curve $-1 0 39.383162650805268 12.220475058811077 -1 0 0 I I #
vertex $-1 $500 $672 #
point $-1 -20.338268421649808 34.092127027120952 6.9294393934908083 #
vertex $-1 $504 $673 #
point $-1 -9.7935478477881688 34.092127027120952 6.9294393934908083 #
coedge $-1 $519 $518 $511 $622 forward $508 $-1 #
edge $-1 $623 71.080510671555786 $626 78.165805538459097 $621 $674 forward 7 unknown #
vertex $-1 $523 $675 #
straight-curve $-1 28.868082137557572 44.72877543710996 12.220475058811076 0 1 0 I I #
edge $-1 $626 -20.585128070198074 $520 4.0192199354790805 $519 $676 forward 7 unknown #
vertex $-1 $625 $677 #
straight-curve $-1 28.868082137557572 -16.313039452891033 60.831383588040211 0 -0.70710677298230451 0.70710678939079041 I I #
point $-1 28.868082137557572 32.297867948316963 12.220475058811076 #
point $-1 4.2637341318804172 39.383162650805268 5.1351801919077715 #
straight-curve $-1 0 39.383162650805268 12.220475058811077 -1 0 0 I I #
vertex $-1 $526 $678 #
point $-1 12.793547847788176 34.092127027120952 6.9294393934908083 #
vertex $-1 $530 $679 #
point $-1 23.338268421649815 34.092127027120952 6.9294393934908083 #
coedge $-1 $545 $544 $537 $636 forward $534 $-1 #
edge $-1 $637 71.080510671555786 $640 78.165805538459097 $635 $680 forward 7 unknown #
vertex $-1 $549 $681 #
straight-curve $-1 61.999898406995563 44.72877543710996 12.220475058811076 0 1 0 I I #
edge $-1 $640 -37.151036204917069 $546 -12.546688199239917 $545 $682 forward 7 unknown #
vertex $-1 $639 $683 #
straight-curve $-1 61.999898406995563 -16.313039452891033 60.831383588040211 0 -0.70710677298230451 0.70710678939079041 I I #
point $-1 61.999898406995563 32.297867948316963 12.220475058811076 #
point $-1 37.39555040131841 39.383162650805268 5.1351801919077715 #
straight-curve $-1 0 39.383162650805268 12.220475058811077 -1 0 0 I I #
vertex $-1 $552 $684 #
point $-1 45.925364117226167 34.092127027120952 6.9294393934908083 #
vertex $-1 $556 $685 #
point $-1 56.470084691087806 34.092127027120952 6.9294393934908083 #
straight-curve $-1 -74.791100802636805 39.383162650805268 0 0 0 -1 I I #
point $-1 -74.791100802636805 -39.383162650805268 -12.220475058811077 #
straight-curve $-1 -74.791100802636805 0 -12.220475058811077 0 1 0 I I #
point $-1 -74.791100802636805 39.383162650805268 -12.220475058811077 #
edge $-1 $581 -2.1281684874444906 $592 2.1281684874444906 $578 $686 forward 7 unknown #
coedge $-1 $579 $588 $583 $657 reversed $436 $-1 #
straight-curve $-1 0 -51.495832584932977 12.220475058811074 1 0 0 I I #
point $-1 -74.791100802636805 -51.495832584932977 12.220475058811074 #
edge $-1 $584 -2.1281684874444906 $590 2.1281684874444906 $583 $687 forward 7 unknown #
point $-1 74.791100802636805 -51.495832584932977 12.220475058811074 #
straight-curve $-1 0 -51.495832584932977 7.9641380839220925 -1 0 0 I I #
point $-1 74.791100802636805 -51.495832584932977 7.9641380839220925 #
point $-1 -74.791100802636805 -51.495832584932977 7.9641380839220925 #
straight-curve $-1 -37.395550401318403 39.383162650805268 83.300985730366861 0 0 -1 I I #
point $-1 -37.395550401318403 39.383162650805268 12.220475058811077 #
straight-curve $-1 -24.84886220207849 39.383162650805268 5.1351801919077715 -1 0 0 I I #
point $-1 -37.395550401318403 39.383162650805268 5.1351801919077715 #
point $-1 -54.970084691087798 33.031466843034764 5.8687792340173512 #
point $-1 -44.42536411722616 33.031466843034764 5.8687792340173512 #
straight-curve $-1 -4.2637341318804101 39.383162650805268 83.300985730366861 0 0 -1 I I #
point $-1 -4.2637341318804101 39.383162650805268 12.220475058811077 #
straight-curve $-1 -8.2829540673594941 39.383162650805268 5.1351801919077715 -1 0 0 I I #
point $-1 -4.2637341318804101 39.383162650805268 5.1351801919077715 #
point $-1 -21.838268421649808 33.031466843034764 5.8687792340173512 #
point $-1 -11.293547847788169 33.031466843034764 5.8687792340173512 #
straight-curve $-1 28.868082137557572 39.383162650805268 83.300985730366861 0 0 -1 I I #
point $-1 28.868082137557572 39.383162650805268 12.220475058811077 #
straight-curve $-1 8.2829540673594977 39.383162650805268 5.1351801919077715 -1 0 0 I I #
point $-1 28.868082137557572 39.383162650805268 5.1351801919077715 #
point $-1 11.293547847788176 33.031466843034764 5.8687792340173512 #
point $-1 21.838268421649815 33.031466843034764 5.8687792340173512 #
straight-curve $-1 61.999898406995563 39.383162650805268 83.300985730366861 0 0 -1 I I #
point $-1 61.999898406995563 39.383162650805268 12.220475058811077 #
straight-curve $-1 24.848862202078493 39.383162650805268 5.1351801919077715 -1 0 0 I I #
point $-1 61.999898406995563 39.383162650805268 5.1351801919077715 #
point $-1 44.425364117226167 33.031466843034764 5.8687792340173512 #
point $-1 54.970084691087806 33.031466843034764 5.8687792340173512 #
straight-curve $-1 -74.791100802636805 -51.495832584932977 10.092306571366583 0 0 -1 I I #
straight-curve $-1 74.791100802636805 -51.495832584932977 10.092306571366583 0 0 -1 I I #
End-of-ACIS-data 