500 0 12 0           
7 Unknown 11 ACIS 5.0 NT 24 Fri Mar 26 02:04:12 1999 
-1 9.9999999999999995e-007 1e-010 
body $-1 $12 $-1 $13 #
body $-1 $14 $-1 $15 #
body $-1 $16 $-1 $17 #
body $-1 $18 $-1 $19 #
body $-1 $20 $-1 $21 #
body $-1 $22 $-1 $23 #
body $-1 $24 $-1 $25 #
body $-1 $26 $-1 $27 #
body $-1 $28 $-1 $29 #
body $-1 $30 $-1 $31 #
body $-1 $32 $-1 $33 #
body $-1 $34 $-1 $35 #
lump $-1 $-1 $36 $0 #
transform $-1 1 0 0 0 1 0 0 0 1 68.040406506546219 34.784975179795552 17.334206540751662 1 rotate no_reflect no_shear #
lump $-1 $-1 $37 $1 #
transform $-1 1 0 0 0 1 0 0 0 1 68.040406506546219 34.784975179795552 17.334206540751662 1 rotate no_reflect no_shear #
lump $-1 $-1 $38 $2 #
transform $-1 1 0 0 0 1 0 0 0 1 68.040406506546219 34.784975179795552 17.334206540751662 1 rotate no_reflect no_shear #
lump $-1 $-1 $39 $3 #
transform $-1 1 0 0 0 1 0 0 0 1 68.040406506546219 34.784975179795552 17.334206540751662 1 rotate no_reflect no_shear #
lump $-1 $-1 $40 $4 #
transform $-1 1 0 0 0 1 0 0 0 1 68.040406506546219 34.784975179795552 17.334206540751662 1 rotate no_reflect no_shear #
lump $-1 $-1 $41 $5 #
transform $-1 1 0 0 0 1 0 0 0 1 68.040406506546219 34.784975179795552 17.334206540751662 1 rotate no_reflect no_shear #
lump $-1 $-1 $42 $6 #
transform $-1 1 0 0 0 1 0 0 0 1 68.040406506546219 34.784975179795552 17.334206540751662 1 rotate no_reflect no_shear #
lump $-1 $-1 $43 $7 #
transform $-1 1 0 0 0 1 0 0 0 1 68.040406506546219 34.784975179795552 17.334206540751662 1 rotate no_reflect no_shear #
lump $-1 $-1 $44 $8 #
transform $-1 1 0 0 0 1 0 0 0 1 68.040406506546219 34.784975179795552 17.334206540751662 1 rotate no_reflect no_shear #
lump $-1 $-1 $45 $9 #
transform $-1 1 0 0 0 1 0 0 0 1 68.040406506546219 34.784975179795552 17.334206540751662 1 rotate no_reflect no_shear #
lump $-1 $-1 $46 $10 #
transform $-1 1 0 0 0 1 0 0 0 1 68.040406506546219 34.784975179795552 17.334206540751662 1 rotate no_reflect no_shear #
lump $-1 $-1 $47 $11 #
transform $-1 1 0 0 0 1 0 0 0 1 68.040406506546219 34.784975179795552 17.334206540751662 1 rotate no_reflect no_shear #
shell $-1 $-1 $-1 $48 $-1 $12 #
shell $-1 $-1 $-1 $49 $-1 $14 #
shell $-1 $-1 $-1 $50 $-1 $16 #
shell $-1 $-1 $-1 $51 $-1 $18 #
shell $-1 $-1 $-1 $52 $-1 $20 #
shell $-1 $-1 $-1 $53 $-1 $22 #
shell $-1 $-1 $-1 $54 $-1 $24 #
shell $-1 $-1 $-1 $55 $-1 $26 #
shell $-1 $-1 $-1 $56 $-1 $28 #
shell $-1 $-1 $-1 $57 $-1 $30 #
shell $-1 $-1 $-1 $58 $-1 $32 #
shell $-1 $-1 $-1 $59 $-1 $34 #
face $-1 $60 $61 $36 $-1 $62 forward single #
face $-1 $63 $64 $37 $-1 $65 forward single #
face $-1 $66 $67 $38 $-1 $68 reversed single #
face $-1 $69 $70 $39 $-1 $71 forward single #
face $-1 $72 $73 $40 $-1 $74 reversed single #
face $-1 $75 $76 $41 $-1 $77 forward single #
face $-1 $78 $79 $42 $-1 $80 reversed single #
face $-1 $81 $82 $43 $-1 $83 forward single #
face $-1 $84 $85 $44 $-1 $86 forward single #
face $-1 $87 $88 $45 $-1 $89 reversed single #
face $-1 $90 $91 $46 $-1 $92 forward single #
face $-1 $93 $94 $47 $-1 $95 forward single #
face $-1 $96 $97 $36 $-1 $98 reversed single #
loop $-1 $-1 $99 $48 #
plane-surface $-1 0 0 17.334206540751662 0 0 1 1 0 0 forward_v I I I I #
face $-1 $100 $101 $37 $-1 $102 reversed single #
loop $-1 $-1 $103 $49 #
plane-surface $-1 0 -34.784975179795552 0 0 1 0 0 0 1 forward_v I I I I #
face $-1 $104 $105 $38 $-1 $106 reversed single #
loop $-1 $-1 $107 $50 #
plane-surface $-1 78.112323997200463 -5.3522977024133791 199.48521063349824 0 -1 0 -0.74314483375859142 0 -0.66913059716165679 forward_v I I I I #
face $-1 $108 $109 $39 $-1 $110 forward single #
loop $-1 $111 $112 $51 #
cone-surface $-1 63.097542950460024 -8.9197743950530146 11.934185628680769 -0.74314483375859142 0 -0.66913059716165679 0.66913059716165679 0 -0.74314483375859142 1 I I 0 1 1 forward I I I I #
face $-1 $113 $114 $40 $-1 $115 reversed single #
loop $-1 $-1 $116 $52 #
plane-surface $-1 78.112323997200463 18.283815431330723 199.48521063349824 0 -1 0 -0.74314483375859142 0 -0.66913059716165679 forward_v I I I I #
face $-1 $117 $118 $41 $-1 $119 forward single #
loop $-1 $120 $121 $53 #
cone-surface $-1 63.097542950460024 14.716338738691093 11.934185628680769 -0.74314483375859142 0 -0.66913059716165679 0.66913059716165679 0 -0.74314483375859142 1 I I 0 1 1 forward I I I I #
face $-1 $122 $123 $42 $-1 $124 reversed single #
loop $-1 $-1 $125 $54 #
plane-surface $-1 -140.15225176685703 4.9519497644064643 123.20908538637451 0 1 0 -0.52991927123019833 0 0.84804809178421925 forward_v I I I I #
face $-1 $126 $127 $43 $-1 $128 forward single #
loop $-1 $129 $130 $55 #
cone-surface $-1 -59.974675078050304 6.7224961305907414 11.863430356237865 0.52991927123019833 0 -0.84804809178421925 0.42402404589210962 0 0.26495963561509916 1 I I 0 1 0.5 forward I I I I #
face $-1 $131 $132 $44 $-1 $133 forward single #
loop $-1 $134 $135 $56 #
cone-surface $-1 -59.974675078050304 9.3783156798671641 11.863430356237865 0.52991927123019833 0 -0.84804809178421925 0.42402404589210962 0 0.26495963561509916 1 I I 0 1 0.5 forward I I I I #
face $-1 $136 $137 $45 $-1 $138 reversed single #
loop $-1 $-1 $139 $57 #
plane-surface $-1 -68.040406506546205 8.0504059052289563 7.8060115821763247 -0.52991927123019833 0 0.84804809178421925 0.84804809178421925 0 0.52991927123019833 forward_v I I I I #
face $-1 $140 $141 $46 $-1 $142 forward single #
loop $-1 $143 $144 $58 #
cone-surface $-1 -59.974675078050304 12.919408412235725 11.863430356237865 0.52991927123019833 0 -0.84804809178421925 0.42402404589210962 0 0.26495963561509916 1 I I 0 1 0.5 forward I I I I #
face $-1 $145 $146 $47 $-1 $147 forward single #
loop $-1 $148 $149 $59 #
cone-surface $-1 -59.974675078050304 15.575227961512148 11.863430356237865 0.52991927123019833 0 -0.84804809178421925 0.42402404589210962 0 0.26495963561509916 1 I I 0 1 0.5 forward I I I I #
face $-1 $150 $151 $36 $-1 $152 reversed single #
loop $-1 $-1 $153 $60 #
plane-surface $-1 0 0 -17.334206540751662 0 0 1 1 0 0 forward_v I I I I #
coedge $-1 $154 $155 $156 $157 forward $61 $-1 #
face $-1 $158 $159 $37 $-1 $160 forward single #
loop $-1 $-1 $161 $63 #
plane-surface $-1 -68.040406506546219 0 0 1 0 0 0 0 -1 forward_v I I I I #
coedge $-1 $162 $163 $164 $165 forward $64 $-1 #
face $-1 $166 $167 $38 $-1 $168 reversed single #
loop $-1 $-1 $169 $66 #
plane-surface $-1 -23.015429167148085 -8.9197743950530182 108.42937495980394 0.74314483375859142 0 0.66913059716165679 0.66913059716165679 0 -0.74314483375859142 forward_v I I I I #
coedge $-1 $170 $171 $172 $173 reversed $67 $-1 #
face $-1 $-1 $174 $39 $-1 $175 forward single #
loop $-1 $176 $177 $69 #
cone-surface $-1 62.299796804793914 -8.9197743950530146 11.215891790677208 -0.74314483375859142 0 -0.66913059716165679 0.3345652985808284 0 -0.37157241687929571 1 I I -0.70710678118654746 0.70710678118654746 0.5 forward I I I I #
loop $-1 $-1 $178 $51 #
coedge $-1 $112 $112 $179 $180 reversed $70 $-1 #
face $-1 $181 $182 $40 $-1 $183 reversed single #
loop $-1 $-1 $184 $72 #
plane-surface $-1 -23.015429167148085 14.716338738691086 108.42937495980394 0.74314483375859142 0 0.66913059716165679 0.66913059716165679 0 -0.74314483375859142 forward_v I I I I #
coedge $-1 $185 $186 $187 $188 reversed $73 $-1 #
face $-1 $-1 $189 $41 $-1 $190 forward single #
loop $-1 $191 $192 $75 #
cone-surface $-1 62.299796804793914 14.716338738691093 11.215891790677208 -0.74314483375859142 0 -0.66913059716165679 0.3345652985808284 0 -0.37157241687929571 1 I I -0.70710678118654746 0.70710678118654746 0.5 forward I I I I #
loop $-1 $-1 $193 $53 #
coedge $-1 $121 $121 $194 $195 reversed $76 $-1 #
face $-1 $196 $197 $42 $-1 $198 reversed single #
loop $-1 $-1 $199 $78 #
plane-surface $-1 -68.040406506546205 8.0504059052289563 7.8060115821763247 -0.52991927123019833 0 0.84804809178421925 0.84804809178421925 0 0.52991927123019833 forward_v I I I I #
coedge $-1 $200 $201 $202 $203 reversed $79 $-1 #
face $-1 $-1 $204 $43 $-1 $205 forward single #
loop $-1 $206 $207 $81 #
cone-surface $-1 -59.400613387592749 6.7224961305907414 10.944739628065662 0.52991927123019833 0 -0.84804809178421925 0.21201202294605481 0 0.13247981780754958 1 I I -0.70710678118654746 0.70710678118654746 0.25 forward I I I I #
loop $-1 $-1 $208 $55 #
coedge $-1 $130 $130 $209 $210 reversed $82 $-1 #
face $-1 $-1 $211 $44 $-1 $212 forward single #
loop $-1 $213 $214 $84 #
cone-surface $-1 -59.400613387592749 9.3783156798671641 10.944739628065662 0.52991927123019833 0 -0.84804809178421925 0.21201202294605481 0 0.13247981780754958 1 I I -0.70710678118654746 0.70710678118654746 0.25 forward I I I I #
loop $-1 $-1 $215 $56 #
coedge $-1 $135 $135 $216 $217 reversed $85 $-1 #
face $-1 $218 $219 $45 $-1 $220 forward single #
loop $-1 $-1 $221 $87 #
plane-surface $-1 -140.15225176685703 17.345774327696432 123.20908538637451 0 -1 0 0.52991927123019833 0 -0.84804809178421925 forward_v I I I I #
coedge $-1 $222 $223 $224 $225 reversed $88 $-1 #
face $-1 $-1 $226 $46 $-1 $227 forward single #
loop $-1 $228 $229 $90 #
cone-surface $-1 -59.400613387592749 12.919408412235725 10.944739628065662 0.52991927123019833 0 -0.84804809178421925 0.21201202294605481 0 0.13247981780754958 1 I I -0.70710678118654746 0.70710678118654746 0.25 forward I I I I #
loop $-1 $-1 $230 $58 #
coedge $-1 $144 $144 $231 $232 reversed $91 $-1 #
face $-1 $-1 $233 $47 $-1 $234 forward single #
loop $-1 $235 $236 $93 #
cone-surface $-1 -59.400613387592749 15.575227961512148 10.944739628065662 0.52991927123019833 0 -0.84804809178421925 0.21201202294605481 0 0.13247981780754958 1 I I -0.70710678118654746 0.70710678118654746 0.25 forward I I I I #
loop $-1 $-1 $237 $59 #
coedge $-1 $149 $149 $238 $239 reversed $94 $-1 #
face $-1 $240 $241 $36 $-1 $242 reversed single #
loop $-1 $-1 $243 $96 #
plane-surface $-1 0 -34.784975179795552 0 0 1 0 0 0 1 forward_v I I I I #
coedge $-1 $244 $245 $246 $247 forward $97 $-1 #
coedge $-1 $248 $99 $249 $250 forward $61 $-1 #
coedge $-1 $99 $248 $251 $252 forward $61 $-1 #
coedge $-1 $253 $254 $99 $157 reversed $255 $-1 #
edge $-1 $256 -34.784975179795552 $257 34.784975179795552 $156 $258 forward 7 unknown #
face $-1 $259 $260 $37 $-1 $261 reversed single #
loop $-1 $-1 $262 $100 #
plane-surface $-1 0 -45.933837225847 10.231834421009729 0 0 1 1 0 0 forward_v I I I I #
coedge $-1 $263 $264 $163 $265 forward $101 $-1 #
coedge $-1 $266 $103 $267 $268 reversed $64 $-1 #
coedge $-1 $103 $266 $161 $265 reversed $64 $-1 #
coedge $-1 $269 $262 $103 $165 reversed $159 $-1 #
edge $-1 $270 -68.040406506546219 $271 68.040406506546219 $164 $272 forward 7 unknown #
face $-1 $273 $274 $38 $-1 $275 reversed single #
loop $-1 $-1 $276 $104 #
plane-surface $-1 78.112323997200463 -12.487251087692657 199.48521063349824 0 1 0 0.74314483375859142 0 0.66913059716165679 forward_v I I I I #
coedge $-1 $277 $278 $279 $280 reversed $105 $-1 #
coedge $-1 $171 $107 $281 $282 reversed $67 $-1 #
coedge $-1 $107 $170 $277 $283 reversed $67 $-1 #
coedge $-1 $279 $284 $107 $173 forward $285 $-1 #
edge $-1 $286 -28.984244507945988 $287 -19.950864853347241 $172 $288 forward 7 unknown #
loop $-1 $-1 $179 $108 #
plane-surface $-1 -23.015429167148085 -8.9197743950530182 108.42937495980394 0.74314483375859142 0 0.66913059716165679 0.66913059716165679 0 -0.74314483375859142 forward_v I I I I #
loop $-1 $-1 $289 $69 #
coedge $-1 $177 $177 $178 $290 reversed $109 $-1 #
coedge $-1 $178 $178 $177 $290 forward $111 $-1 #
coedge $-1 $179 $179 $112 $180 forward $174 $-1 #
edge $-1 $291 0 $291 6.2831853071796004 $179 $292 forward 7 unknown #
face $-1 $293 $294 $40 $-1 $295 reversed single #
loop $-1 $-1 $296 $113 #
plane-surface $-1 78.112323997200463 11.148862046051446 199.48521063349824 0 1 0 0.74314483375859142 0 0.66913059716165679 forward_v I I I I #
coedge $-1 $297 $298 $299 $300 reversed $114 $-1 #
coedge $-1 $186 $116 $301 $302 reversed $73 $-1 #
coedge $-1 $116 $185 $297 $303 reversed $73 $-1 #
coedge $-1 $299 $304 $116 $188 forward $305 $-1 #
edge $-1 $306 -28.984244507945988 $307 -19.950864853347241 $187 $308 forward 7 unknown #
loop $-1 $-1 $194 $117 #
plane-surface $-1 -23.015429167148085 14.716338738691086 108.42937495980394 0.74314483375859142 0 0.66913059716165679 0.66913059716165679 0 -0.74314483375859142 forward_v I I I I #
loop $-1 $-1 $309 $75 #
coedge $-1 $192 $192 $193 $310 reversed $118 $-1 #
coedge $-1 $193 $193 $192 $310 forward $120 $-1 #
coedge $-1 $194 $194 $121 $195 forward $189 $-1 #
edge $-1 $311 0 $311 6.2831853071796004 $194 $312 forward 7 unknown #
face $-1 $313 $314 $42 $-1 $315 forward single #
loop $-1 $-1 $316 $122 #
plane-surface $-1 -140.15225176685703 11.148862046051448 123.20908538637451 0 -1 0 0.52991927123019833 0 -0.84804809178421925 forward_v I I I I #
coedge $-1 $317 $318 $319 $320 reversed $123 $-1 #
coedge $-1 $201 $125 $321 $322 reversed $79 $-1 #
coedge $-1 $125 $200 $317 $323 reversed $79 $-1 #
coedge $-1 $319 $324 $125 $203 forward $314 $-1 #
edge $-1 $325 2.0357193768822981 $326 17.284018488574176 $202 $327 forward 7 unknown #
loop $-1 $-1 $209 $126 #
plane-surface $-1 -68.040406506546205 8.0504059052289563 7.8060115821763247 -0.52991927123019833 0 0.84804809178421925 0.84804809178421925 0 0.52991927123019833 forward_v I I I I #
loop $-1 $-1 $328 $81 #
coedge $-1 $207 $207 $208 $329 reversed $127 $-1 #
coedge $-1 $208 $208 $207 $329 forward $129 $-1 #
coedge $-1 $209 $209 $130 $210 forward $204 $-1 #
edge $-1 $330 0 $330 6.2831853071796004 $209 $331 forward 7 unknown #
loop $-1 $-1 $216 $131 #
plane-surface $-1 -68.040406506546205 8.0504059052289563 7.8060115821763247 -0.52991927123019833 0 0.84804809178421925 0.84804809178421925 0 0.52991927123019833 forward_v I I I I #
loop $-1 $-1 $332 $84 #
coedge $-1 $214 $214 $215 $333 reversed $132 $-1 #
coedge $-1 $215 $215 $214 $333 forward $134 $-1 #
coedge $-1 $216 $216 $135 $217 forward $211 $-1 #
edge $-1 $334 0 $334 6.2831853071796004 $216 $335 forward 7 unknown #
face $-1 $336 $337 $45 $-1 $338 forward single #
loop $-1 $-1 $339 $136 #
plane-surface $-1 0 0 17.334206540751662 0 0 1 1 0 0 forward_v I I I I #
coedge $-1 $340 $341 $342 $343 reversed $137 $-1 #
coedge $-1 $344 $139 $345 $346 reversed $88 $-1 #
coedge $-1 $139 $344 $339 $347 reversed $88 $-1 #
coedge $-1 $348 $349 $139 $225 forward $337 $-1 #
edge $-1 $350 -1.675811683274863e-014 $351 17.980465093212782 $224 $352 forward 7 unknown #
loop $-1 $-1 $231 $140 #
plane-surface $-1 -68.040406506546205 8.0504059052289563 7.8060115821763247 -0.52991927123019833 0 0.84804809178421925 0.84804809178421925 0 0.52991927123019833 forward_v I I I I #
loop $-1 $-1 $353 $90 #
coedge $-1 $229 $229 $230 $354 reversed $141 $-1 #
coedge $-1 $230 $230 $229 $354 forward $143 $-1 #
coedge $-1 $231 $231 $144 $232 forward $226 $-1 #
edge $-1 $355 0 $355 6.2831853071796004 $231 $356 forward 7 unknown #
loop $-1 $-1 $238 $145 #
plane-surface $-1 -68.040406506546205 8.0504059052289563 7.8060115821763247 -0.52991927123019833 0 0.84804809178421925 0.84804809178421925 0 0.52991927123019833 forward_v I I I I #
loop $-1 $-1 $357 $93 #
coedge $-1 $236 $236 $237 $358 reversed $146 $-1 #
coedge $-1 $237 $237 $236 $358 forward $148 $-1 #
coedge $-1 $238 $238 $149 $239 forward $233 $-1 #
edge $-1 $359 0 $359 6.2831853071796004 $238 $360 forward 7 unknown #
face $-1 $361 $362 $36 $-1 $363 reversed single #
loop $-1 $-1 $364 $150 #
plane-surface $-1 -68.040406506546219 0 0 1 0 0 0 0 -1 forward_v I I I I #
coedge $-1 $365 $251 $366 $367 forward $151 $-1 #
coedge $-1 $368 $153 $365 $369 forward $97 $-1 #
coedge $-1 $153 $368 $370 $371 forward $97 $-1 #
coedge $-1 $254 $253 $153 $247 reversed $255 $-1 #
edge $-1 $372 -34.784975179795552 $373 34.784975179795552 $246 $374 forward 7 unknown #
coedge $-1 $155 $154 $375 $376 forward $61 $-1 #
coedge $-1 $377 $378 $154 $250 reversed $362 $-1 #
edge $-1 $257 -68.040406506546219 $379 68.040406506546219 $249 $380 forward 7 unknown #
coedge $-1 $243 $381 $155 $252 reversed $151 $-1 #
edge $-1 $382 -68.040406506546219 $256 68.040406506546219 $251 $383 forward 7 unknown #
coedge $-1 $246 $156 $381 $384 forward $255 $-1 #
coedge $-1 $156 $246 $377 $385 reversed $255 $-1 #
loop $-1 $-1 $253 $361 #
vertex $-1 $157 $386 #
vertex $-1 $157 $387 #
straight-curve $-1 68.040406506546219 0 17.334206540751662 0 1 0 I I #
face $-1 $388 $389 $37 $-1 $390 reversed single #
loop $-1 $-1 $391 $158 #
plane-surface $-1 0 -45.933837225847 4.2947086540229478 0 0 1 1 0 0 forward_v I I I I #
coedge $-1 $164 $392 $393 $394 forward $159 $-1 #
coedge $-1 $395 $161 $396 $397 reversed $101 $-1 #
coedge $-1 $161 $395 $269 $398 reversed $101 $-1 #
edge $-1 $270 -10.231834421009729 $399 -4.2947086540229478 $161 $400 forward 7 unknown #
coedge $-1 $163 $162 $401 $402 forward $64 $-1 #
coedge $-1 $393 $403 $162 $268 forward $404 $-1 #
edge $-1 $405 4.2947086540229478 $271 10.231834421009729 $267 $406 forward 7 unknown #
coedge $-1 $392 $164 $264 $398 forward $159 $-1 #
vertex $-1 $265 $407 #
vertex $-1 $394 $408 #
straight-curve $-1 0 -34.784975179795552 10.231834421009729 1 0 0 I I #
face $-1 $-1 $285 $38 $-1 $409 forward single #
loop $-1 $-1 $410 $166 #
plane-surface $-1 68.040406506546219 0 0 -1 0 0 0 0 1 forward_v I I I I #
coedge $-1 $411 $412 $413 $414 reversed $167 $-1 #
coedge $-1 $415 $169 $171 $283 forward $105 $-1 #
coedge $-1 $169 $415 $411 $416 forward $105 $-1 #
coedge $-1 $413 $172 $169 $280 forward $285 $-1 #
edge $-1 $287 0.89241050488687002 $417 8.0273638901661482 $279 $418 forward 7 unknown #
coedge $-1 $419 $420 $170 $282 forward $274 $-1 #
edge $-1 $421 -92.440983521293731 $286 -82.408398775997455 $281 $422 forward 7 unknown #
edge $-1 $287 122.58063876771064 $421 136.08081301309244 $171 $423 forward 7 unknown #
coedge $-1 $172 $413 $419 $424 forward $285 $-1 #
loop $-1 $-1 $413 $273 #
vertex $-1 $282 $425 #
vertex $-1 $173 $426 #
straight-curve $-1 39.056161998600231 -5.3522977024133791 17.334206540751666 -1 0 0 I I #
coedge $-1 $289 $289 $-1 $427 reversed $176 $-1 #
edge $-1 $428 0 $428 6.2831853071796004 $177 $429 forward 7 unknown #
vertex $-1 $180 $430 #
ellipse-curve $-1 63.52371667924686 -8.9197743950530146 12.31791416810352 0.74314483375859142 0 0.66913059716165679 0.66913059716165679 0 -0.74314483375859142 1 I I #
face $-1 $-1 $305 $40 $-1 $431 forward single #
loop $-1 $-1 $432 $181 #
plane-surface $-1 68.040406506546219 0 0 -1 0 0 0 0 1 forward_v I I I I #
coedge $-1 $433 $434 $435 $436 reversed $182 $-1 #
coedge $-1 $437 $184 $186 $303 forward $114 $-1 #
coedge $-1 $184 $437 $433 $438 forward $114 $-1 #
coedge $-1 $435 $187 $184 $300 forward $305 $-1 #
edge $-1 $307 -10.92564606198518 $439 -3.7906926767059037 $299 $440 forward 7 unknown #
coedge $-1 $441 $442 $185 $302 forward $294 $-1 #
edge $-1 $443 -92.440983521293731 $306 -82.408398775997455 $301 $444 forward 7 unknown #
edge $-1 $307 122.58063876771064 $443 136.08081301309244 $186 $445 forward 7 unknown #
coedge $-1 $187 $435 $441 $446 forward $305 $-1 #
loop $-1 $-1 $435 $293 #
vertex $-1 $302 $447 #
vertex $-1 $188 $448 #
straight-curve $-1 39.056161998600231 18.283815431330723 17.334206540751666 -1 0 0 I I #
coedge $-1 $309 $309 $-1 $449 reversed $191 $-1 #
edge $-1 $450 0 $450 6.2831853071796004 $192 $451 forward 7 unknown #
vertex $-1 $195 $452 #
ellipse-curve $-1 63.52371667924686 14.716338738691093 12.31791416810352 0.74314483375859142 0 0.66913059716165679 0.66913059716165679 0 -0.74314483375859142 1 I I #
face $-1 $-1 $453 $42 $-1 $454 reversed single #
loop $-1 $-1 $202 $196 #
plane-surface $-1 0 0 17.334206540751662 0 0 1 1 0 0 forward_v I I I I #
coedge $-1 $455 $456 $457 $458 reversed $197 $-1 #
coedge $-1 $459 $199 $201 $323 forward $123 $-1 #
coedge $-1 $199 $459 $455 $460 forward $123 $-1 #
coedge $-1 $457 $202 $199 $320 forward $314 $-1 #
edge $-1 $326 0.92674681179198615 $461 7.1236590934369701 $319 $462 forward 7 unknown #
coedge $-1 $463 $464 $200 $322 forward $453 $-1 #
edge $-1 $465 -53.798531111010938 $325 -44.27033615243559 $321 $466 forward 7 unknown #
edge $-1 $326 -17.980465093212782 $465 1.675811683274863e-014 $201 $467 forward 7 unknown #
coedge $-1 $202 $457 $463 $468 forward $314 $-1 #
vertex $-1 $203 $469 #
vertex $-1 $203 $470 #
straight-curve $-1 -70.076125883428517 4.9519497644064643 17.334206540751666 1 0 0 I I #
coedge $-1 $328 $328 $-1 $471 reversed $206 $-1 #
edge $-1 $472 0 $472 6.2831853071796004 $207 $473 forward 7 unknown #
vertex $-1 $210 $474 #
ellipse-curve $-1 -60.416256950700294 6.7224961305907414 12.570109061463983 -0.52991927123019833 0 0.84804809178421925 0.42402404589210962 0 0.26495963561509916 1 I I #
coedge $-1 $332 $332 $-1 $475 reversed $213 $-1 #
edge $-1 $476 0 $476 6.2831853071796004 $214 $477 forward 7 unknown #
vertex $-1 $217 $478 #
ellipse-curve $-1 -60.416256950700294 9.3783156798671641 12.570109061463983 -0.52991927123019833 0 0.84804809178421925 0.42402404589210962 0 0.26495963561509916 1 I I #
face $-1 $-1 $479 $45 $-1 $480 reversed single #
loop $-1 $-1 $348 $218 #
plane-surface $-1 -140.15225176685703 11.148862046051448 123.20908538637451 0 -1 0 0.52991927123019833 0 -0.84804809178421925 forward_v I I I I #
coedge $-1 $342 $481 $223 $347 forward $219 $-1 #
coedge $-1 $341 $221 $344 $482 reversed $137 $-1 #
coedge $-1 $221 $340 $483 $484 reversed $137 $-1 #
coedge $-1 $485 $339 $221 $343 forward $219 $-1 #
edge $-1 $486 -17.284018488574176 $487 -2.0357193768822981 $342 $488 forward 7 unknown #
coedge $-1 $223 $222 $340 $482 forward $88 $-1 #
coedge $-1 $489 $483 $222 $346 forward $479 $-1 #
edge $-1 $490 -13.320571375081954 $350 -7.1236590934369701 $345 $491 forward 7 unknown #
edge $-1 $351 7.1236590934369701 $486 13.320571375081954 $339 $492 forward 7 unknown #
coedge $-1 $349 $224 $481 $493 reversed $337 $-1 #
coedge $-1 $224 $348 $489 $494 reversed $337 $-1 #
vertex $-1 $346 $495 #
vertex $-1 $347 $496 #
straight-curve $-1 -68.040406506546205 11.148862046051448 7.8060115821763247 0.84804809178421925 0 0.52991927123019833 I I #
coedge $-1 $353 $353 $-1 $497 reversed $228 $-1 #
edge $-1 $498 0 $498 6.2831853071796004 $229 $499 forward 7 unknown #
vertex $-1 $232 $500 #
ellipse-curve $-1 -60.416256950700294 12.919408412235725 12.570109061463983 -0.52991927123019833 0 0.84804809178421925 0.42402404589210962 0 0.26495963561509916 1 I I #
coedge $-1 $357 $357 $-1 $501 reversed $235 $-1 #
edge $-1 $502 0 $502 6.2831853071796004 $236 $503 forward 7 unknown #
vertex $-1 $239 $504 #
ellipse-curve $-1 -60.416256950700294 15.575227961512148 12.570109061463983 -0.52991927123019833 0 0.84804809178421925 0.42402404589210962 0 0.26495963561509916 1 I I #
face $-1 $-1 $255 $36 $-1 $505 reversed single #
loop $-1 $-1 $377 $240 #
plane-surface $-1 0 34.784975179795552 0 0 -1 0 0 0 -1 forward_v I I I I #
coedge $-1 $506 $375 $378 $507 forward $241 $-1 #
coedge $-1 $381 $243 $244 $369 reversed $151 $-1 #
coedge $-1 $375 $506 $243 $367 reversed $241 $-1 #
edge $-1 $382 -17.334206540751662 $508 17.334206540751662 $366 $509 forward 7 unknown #
coedge $-1 $245 $244 $506 $510 forward $97 $-1 #
edge $-1 $373 -68.040406506546219 $508 68.040406506546219 $365 $511 forward 7 unknown #
coedge $-1 $378 $377 $245 $371 reversed $362 $-1 #
edge $-1 $512 -68.040406506546219 $372 68.040406506546219 $370 $513 forward 7 unknown #
vertex $-1 $247 $514 #
vertex $-1 $384 $515 #
straight-curve $-1 68.040406506546219 0 -17.334206540751662 0 -1 0 I I #
coedge $-1 $364 $366 $248 $376 reversed $241 $-1 #
edge $-1 $379 -34.784975179795552 $382 34.784975179795552 $375 $516 forward 7 unknown #
coedge $-1 $370 $249 $254 $385 forward $362 $-1 #
coedge $-1 $249 $370 $364 $507 reversed $362 $-1 #
vertex $-1 $250 $517 #
straight-curve $-1 0 34.784975179795552 17.334206540751662 -1 0 0 I I #
coedge $-1 $251 $365 $253 $384 reversed $151 $-1 #
vertex $-1 $376 $518 #
straight-curve $-1 0 -34.784975179795552 17.334206540751662 1 0 0 I I #
edge $-1 $256 -17.334206540751662 $373 17.334206540751662 $253 $519 forward 7 unknown #
edge $-1 $257 -17.334206540751662 $372 17.334206540751662 $254 $520 forward 7 unknown #
point $-1 68.040406506546219 -34.784975179795552 17.334206540751662 #
point $-1 68.040406506546219 34.784975179795552 17.334206540751662 #
face $-1 $-1 $404 $37 $-1 $521 reversed single #
loop $-1 $-1 $522 $259 #
plane-surface $-1 0 -57.082699271898449 7.2632715375163386 0 1 0 0 0 1 forward_v I I I I #
coedge $-1 $523 $401 $403 $524 forward $260 $-1 #
coedge $-1 $262 $269 $525 $526 forward $159 $-1 #
coedge $-1 $527 $267 $262 $394 reversed $404 $-1 #
edge $-1 $528 -11.148862046051448 $271 11.148862046051448 $393 $529 forward 7 unknown #
coedge $-1 $264 $263 $522 $530 reversed $101 $-1 #
coedge $-1 $401 $523 $263 $397 forward $260 $-1 #
edge $-1 $531 -11.148862046051448 $399 11.148862046051448 $263 $532 forward 7 unknown #
edge $-1 $270 -11.148862046051448 $533 11.148862046051448 $264 $534 forward 7 unknown #
vertex $-1 $265 $535 #
straight-curve $-1 -68.040406506546219 -34.784975179795552 0 0 0 -1 I I #
coedge $-1 $391 $396 $266 $402 reversed $260 $-1 #
edge $-1 $405 -68.040406506546219 $399 68.040406506546219 $401 $536 forward 7 unknown #
coedge $-1 $267 $527 $391 $524 reversed $404 $-1 #
loop $-1 $-1 $267 $388 #
vertex $-1 $268 $537 #
straight-curve $-1 68.040406506546219 -34.784975179795552 0 0 0 1 I I #
point $-1 -68.040406506546219 -34.784975179795552 10.231834421009729 #
point $-1 68.040406506546219 -34.784975179795552 10.231834421009729 #
plane-surface $-1 0 0 17.334206540751662 0 0 1 1 0 0 forward_v I I I I #
coedge $-1 $420 $419 $412 $538 forward $274 $-1 #
coedge $-1 $412 $276 $278 $416 reversed $167 $-1 #
coedge $-1 $276 $411 $410 $538 reversed $167 $-1 #
coedge $-1 $284 $279 $276 $414 forward $285 $-1 #
edge $-1 $417 19.950864853347241 $539 28.984244507945988 $413 $540 forward 7 unknown #
coedge $-1 $278 $277 $420 $541 reversed $105 $-1 #
edge $-1 $542 -136.08081301309244 $417 -122.58063876771064 $411 $543 forward 7 unknown #
vertex $-1 $280 $544 #
straight-curve $-1 59.007026851947472 -4.4598871975265091 17.334206540751666 0 -1 0 I I #
coedge $-1 $410 $281 $284 $424 reversed $274 $-1 #
coedge $-1 $281 $410 $415 $541 forward $274 $-1 #
vertex $-1 $282 $545 #
straight-curve $-1 68.040406506546219 -5.3522977024133791 99.74260531674912 0 0 1 I I #
straight-curve $-1 -23.015429167148085 -5.3522977024133791 108.42937495980394 0.66913059716165679 0 -0.74314483375859142 I I #
edge $-1 $539 -12.487251087692657 $286 -5.3522977024133791 $419 $546 forward 7 unknown #
point $-1 68.040406506546219 -5.3522977024133791 17.334206540751662 #
point $-1 59.007026851947472 -5.3522977024133791 17.334206540751666 #
edge $-1 $547 1 $547 0 $289 $-1 forward 7 unknown #
vertex $-1 $290 $548 #
ellipse-curve $-1 62.67136922167321 -8.9197743950530146 11.550457089258037 0.74314483375859142 0 0.66913059716165679 0.66913059716165679 0 -0.74314483375859142 1 I I #
point $-1 64.1928472764085 -8.9197743950530146 11.574769334344909 #
plane-surface $-1 0 0 17.334206540751662 0 0 1 1 0 0 forward_v I I I I #
coedge $-1 $442 $441 $434 $549 forward $294 $-1 #
coedge $-1 $434 $296 $298 $438 reversed $182 $-1 #
coedge $-1 $296 $433 $432 $549 reversed $182 $-1 #
coedge $-1 $304 $299 $296 $436 forward $305 $-1 #
edge $-1 $439 19.950864853347241 $550 28.984244507945988 $435 $551 forward 7 unknown #
coedge $-1 $298 $297 $442 $552 reversed $114 $-1 #
edge $-1 $553 -136.08081301309244 $439 -122.58063876771064 $433 $554 forward 7 unknown #
vertex $-1 $300 $555 #
straight-curve $-1 59.007026851947472 7.3581693693455428 17.334206540751666 0 -1 0 I I #
coedge $-1 $432 $301 $304 $446 reversed $294 $-1 #
coedge $-1 $301 $432 $437 $552 forward $294 $-1 #
vertex $-1 $302 $556 #
straight-curve $-1 68.040406506546219 18.283815431330723 99.74260531674912 0 0 1 I I #
straight-curve $-1 -23.015429167148085 18.283815431330723 108.42937495980394 0.66913059716165679 0 -0.74314483375859142 I I #
edge $-1 $550 11.148862046051446 $306 18.283815431330723 $441 $557 forward 7 unknown #
point $-1 68.040406506546219 18.283815431330723 17.334206540751662 #
point $-1 59.007026851947472 18.283815431330723 17.334206540751666 #
edge $-1 $558 1 $558 0 $309 $-1 forward 7 unknown #
vertex $-1 $310 $559 #
ellipse-curve $-1 62.67136922167321 14.716338738691093 11.550457089258037 0.74314483375859142 0 0.66913059716165679 0.66913059716165679 0 -0.74314483375859142 1 I I #
point $-1 64.1928472764085 14.716338738691093 11.574769334344909 #
loop $-1 $-1 $321 $313 #
plane-surface $-1 -68.040406506546219 0 0 1 0 0 0 0 -1 forward_v I I I I #
coedge $-1 $456 $316 $318 $460 reversed $197 $-1 #
coedge $-1 $316 $455 $560 $561 reversed $197 $-1 #
coedge $-1 $324 $319 $316 $458 forward $314 $-1 #
edge $-1 $461 -17.284018488574176 $562 -2.0357193768822981 $457 $563 forward 7 unknown #
coedge $-1 $318 $317 $464 $564 reversed $123 $-1 #
edge $-1 $565 -1.675811683274863e-014 $461 17.980465093212782 $455 $566 forward 7 unknown #
vertex $-1 $320 $567 #
straight-curve $-1 -52.792107394854341 4.0252029526144781 17.334206540751662 0 1 0 I I #
coedge $-1 $560 $321 $324 $468 reversed $453 $-1 #
coedge $-1 $321 $560 $459 $564 forward $453 $-1 #
vertex $-1 $322 $568 #
straight-curve $-1 -68.040406506546219 4.9519497644064643 61.604542693187256 0 0 1 I I #
straight-curve $-1 -68.040406506546205 4.9519497644064643 7.8060115821763247 -0.84804809178421925 0 -0.52991927123019833 I I #
edge $-1 $562 -11.148862046051448 $325 -4.9519497644064643 $463 $569 forward 7 unknown #
point $-1 -68.040406506546219 4.9519497644064643 17.334206540751662 #
point $-1 -52.792107394854341 4.9519497644064643 17.334206540751662 #
edge $-1 $570 1 $570 0 $328 $-1 forward 7 unknown #
vertex $-1 $329 $571 #
ellipse-curve $-1 -59.533093205400299 6.7224961305907414 11.156751651011717 -0.52991927123019833 0 0.84804809178421925 0.42402404589210962 0 0.26495963561509916 1 I I #
point $-1 -59.992232904808205 6.7224961305907414 12.835068697079111 #
edge $-1 $572 1 $572 0 $332 $-1 forward 7 unknown #
vertex $-1 $333 $573 #
ellipse-curve $-1 -59.533093205400299 9.3783156798671641 11.156751651011717 -0.52991927123019833 0 0.84804809178421925 0.42402404589210962 0 0.26495963561509916 1 I I #
point $-1 -59.992232904808205 9.3783156798671641 12.835068697079111 #
loop $-1 $-1 $345 $336 #
plane-surface $-1 -68.040406506546219 0 0 1 0 0 0 0 -1 forward_v I I I I #
coedge $-1 $339 $485 $348 $493 forward $219 $-1 #
edge $-1 $490 -1.675811683274863e-014 $486 17.980465093212782 $340 $574 forward 7 unknown #
coedge $-1 $345 $575 $341 $484 forward $479 $-1 #
edge $-1 $487 44.27033615243559 $490 53.798531111010938 $483 $576 forward 7 unknown #
coedge $-1 $481 $342 $575 $577 forward $219 $-1 #
vertex $-1 $343 $578 #
vertex $-1 $577 $579 #
straight-curve $-1 -70.076125883428517 17.345774327696432 17.334206540751666 -1 0 0 I I #
coedge $-1 $575 $345 $349 $494 forward $479 $-1 #
vertex $-1 $484 $580 #
straight-curve $-1 -68.040406506546219 4.0252029526144781 7.8060115821763247 0 -1 0 I I #
straight-curve $-1 -52.792107394854341 4.0252029526144781 17.334206540751662 0 1 0 I I #
edge $-1 $581 2.0357193768822981 $351 17.284018488574176 $481 $582 forward 7 unknown #
edge $-1 $350 -53.798531111010938 $581 -44.27033615243559 $489 $583 forward 7 unknown #
point $-1 -68.040406506546219 11.148862046051448 7.8060115821763159 #
point $-1 -52.792107394854341 11.148862046051448 17.334206540751662 #
edge $-1 $584 1 $584 0 $353 $-1 forward 7 unknown #
vertex $-1 $354 $585 #
ellipse-curve $-1 -59.533093205400299 12.919408412235725 11.156751651011717 -0.52991927123019833 0 0.84804809178421925 0.42402404589210962 0 0.26495963561509916 1 I I #
point $-1 -59.992232904808205 12.919408412235725 12.835068697079111 #
edge $-1 $586 1 $586 0 $357 $-1 forward 7 unknown #
vertex $-1 $358 $587 #
ellipse-curve $-1 -59.533093205400299 15.575227961512148 11.156751651011717 -0.52991927123019833 0 0.84804809178421925 0.42402404589210962 0 0.26495963561509916 1 I I #
point $-1 -59.992232904808205 15.575227961512148 12.835068697079111 #
plane-surface $-1 68.040406506546219 0 0 -1 0 0 0 0 1 forward_v I I I I #
coedge $-1 $366 $364 $368 $510 reversed $241 $-1 #
edge $-1 $379 -17.334206540751662 $512 17.334206540751662 $378 $588 forward 7 unknown #
vertex $-1 $510 $589 #
straight-curve $-1 -68.040406506546219 -34.784975179795552 0 0 0 -1 I I #
edge $-1 $508 -34.784975179795552 $512 34.784975179795552 $506 $590 forward 7 unknown #
straight-curve $-1 0 -34.784975179795552 -17.334206540751662 -1 0 0 I I #
vertex $-1 $371 $591 #
straight-curve $-1 0 34.784975179795552 -17.334206540751662 1 0 0 I I #
point $-1 68.040406506546219 34.784975179795552 -17.334206540751662 #
point $-1 68.040406506546219 -34.784975179795552 -17.334206540751662 #
straight-curve $-1 -68.040406506546219 0 17.334206540751662 0 -1 0 I I #
point $-1 -68.040406506546219 34.784975179795552 17.334206540751662 #
point $-1 -68.040406506546219 -34.784975179795552 17.334206540751662 #
straight-curve $-1 68.040406506546219 -34.784975179795552 0 0 0 -1 I I #
straight-curve $-1 68.040406506546219 34.784975179795552 0 0 0 -1 I I #
plane-surface $-1 68.040406506546219 0 0 -1 0 0 0 0 1 forward_v I I I I #
coedge $-1 $592 $525 $395 $530 forward $389 $-1 #
coedge $-1 $396 $391 $592 $593 forward $260 $-1 #
edge $-1 $405 -11.148862046051448 $594 11.148862046051448 $403 $595 forward 7 unknown #
coedge $-1 $522 $596 $392 $526 reversed $389 $-1 #
edge $-1 $533 -68.040406506546219 $528 68.040406506546219 $525 $597 forward 7 unknown #
coedge $-1 $403 $393 $596 $598 forward $404 $-1 #
vertex $-1 $394 $599 #
straight-curve $-1 68.040406506546219 -45.933837225847 10.231834421009729 0 1 0 I I #
edge $-1 $533 -2.9685628834933908 $531 2.9685628834933908 $395 $600 forward 7 unknown #
vertex $-1 $397 $601 #
straight-curve $-1 -68.040406506546219 -45.933837225847 4.2947086540229478 0 1 0 I I #
vertex $-1 $398 $602 #
straight-curve $-1 -68.040406506546219 -45.933837225847 10.231834421009729 0 -1 0 I I #
point $-1 -68.040406506546219 -34.784975179795552 4.2947086540229478 #
straight-curve $-1 0 -34.784975179795552 4.2947086540229478 -1 0 0 I I #
point $-1 68.040406506546219 -34.784975179795552 4.2947086540229478 #
edge $-1 $539 82.408398775997455 $542 92.440983521293731 $410 $603 forward 7 unknown #
vertex $-1 $424 $604 #
straight-curve $-1 39.056161998600231 -12.487251087692657 17.334206540751666 1 0 0 I I #
edge $-1 $542 -8.0273638901661482 $421 -0.89241050488687002 $420 $605 forward 7 unknown #
vertex $-1 $541 $606 #
straight-curve $-1 -23.015429167148085 -12.487251087692657 108.42937495980394 -0.66913059716165679 0 0.74314483375859142 I I #
point $-1 59.007026851947472 -12.487251087692657 17.334206540751666 #
point $-1 68.040406506546219 -5.3522977024133791 7.3016217954553895 #
straight-curve $-1 68.040406506546219 0 17.334206540751662 0 1 0 I I #
vertex $-1 $427 $607 #
point $-1 63.340499818834864 -8.9197743950530146 10.807312255499445 #
edge $-1 $550 82.408398775997455 $553 92.440983521293731 $432 $608 forward 7 unknown #
vertex $-1 $446 $609 #
straight-curve $-1 39.056161998600231 11.148862046051446 17.334206540751666 1 0 0 I I #
edge $-1 $553 3.7906926767059037 $443 10.92564606198518 $442 $610 forward 7 unknown #
vertex $-1 $552 $611 #
straight-curve $-1 -23.015429167148085 11.148862046051446 108.42937495980394 -0.66913059716165679 0 0.74314483375859142 I I #
point $-1 59.007026851947472 11.148862046051446 17.334206540751666 #
point $-1 68.040406506546219 18.283815431330723 7.3016217954553895 #
straight-curve $-1 68.040406506546219 0 17.334206540751662 0 1 0 I I #
vertex $-1 $449 $612 #
point $-1 63.340499818834864 14.716338738691093 10.807312255499445 #
coedge $-1 $464 $463 $456 $561 forward $453 $-1 #
edge $-1 $562 44.27033615243559 $565 53.798531111010938 $560 $613 forward 7 unknown #
vertex $-1 $468 $614 #
straight-curve $-1 -70.076125883428517 11.148862046051448 17.334206540751666 -1 0 0 I I #
edge $-1 $565 -7.1236590934369701 $465 -0.92674681179198615 $464 $615 forward 7 unknown #
vertex $-1 $564 $616 #
straight-curve $-1 -68.040406506546205 11.148862046051448 7.8060115821763247 0.84804809178421925 0 0.52991927123019833 I I #
point $-1 -52.792107394854341 11.148862046051448 17.334206540751662 #
point $-1 -68.040406506546219 4.9519497644064643 7.8060115821763159 #
straight-curve $-1 -68.040406506546219 0 17.334206540751662 0 -1 0 I I #
vertex $-1 $471 $617 #
point $-1 -59.109069159508188 6.7224961305907414 11.421711286626817 #
vertex $-1 $475 $618 #
point $-1 -59.109069159508188 9.3783156798671641 11.421711286626817 #
straight-curve $-1 -68.040406506546205 17.345774327696432 7.8060115821763247 0.84804809178421925 0 0.52991927123019833 I I #
coedge $-1 $483 $489 $485 $577 reversed $479 $-1 #
straight-curve $-1 -68.040406506546219 17.345774327696432 61.604542693187256 0 0 -1 I I #
edge $-1 $487 -17.345774327696432 $581 -11.148862046051448 $575 $619 forward 7 unknown #
point $-1 -52.792107394854341 17.345774327696432 17.334206540751662 #
point $-1 -68.040406506546219 17.345774327696432 17.334206540751662 #
point $-1 -68.040406506546219 17.345774327696432 7.8060115821763159 #
vertex $-1 $494 $620 #
straight-curve $-1 -70.076125883428517 11.148862046051448 17.334206540751666 1 0 0 I I #
straight-curve $-1 -68.040406506546219 11.148862046051448 61.604542693187256 0 0 1 I I #
vertex $-1 $497 $621 #
point $-1 -59.109069159508188 12.919408412235725 11.421711286626817 #
vertex $-1 $501 $622 #
point $-1 -59.109069159508188 15.575227961512148 11.421711286626817 #
straight-curve $-1 -68.040406506546219 34.784975179795552 0 0 0 -1 I I #
point $-1 -68.040406506546219 -34.784975179795552 -17.334206540751662 #
straight-curve $-1 -68.040406506546219 0 -17.334206540751662 0 1 0 I I #
point $-1 -68.040406506546219 34.784975179795552 -17.334206540751662 #
coedge $-1 $596 $522 $523 $593 reversed $389 $-1 #
edge $-1 $594 -68.040406506546219 $531 68.040406506546219 $592 $623 forward 7 unknown #
vertex $-1 $598 $624 #
straight-curve $-1 68.040406506546219 -45.933837225847 4.2947086540229478 0 -1 0 I I #
coedge $-1 $525 $592 $527 $598 reversed $389 $-1 #
straight-curve $-1 0 -57.082699271898449 10.231834421009729 1 0 0 I I #
edge $-1 $528 -2.9685628834933908 $594 2.9685628834933908 $527 $625 forward 7 unknown #
point $-1 68.040406506546219 -57.082699271898449 10.231834421009729 #
straight-curve $-1 -68.040406506546219 -57.082699271898449 7.2632715375163386 0 0 -1 I I #
point $-1 -68.040406506546219 -57.082699271898449 4.2947086540229478 #
point $-1 -68.040406506546219 -57.082699271898449 10.231834421009729 #
straight-curve $-1 68.040406506546219 -12.487251087692657 99.74260531674912 0 0 -1 I I #
point $-1 68.040406506546219 -12.487251087692657 17.334206540751662 #
straight-curve $-1 68.040406506546219 -4.4598871975265091 7.3016217954553895 0 1 0 I I #
point $-1 68.040406506546219 -12.487251087692657 7.3016217954553895 #
point $-1 61.928224387914618 -8.9197743950530146 10.881326492096379 #
straight-curve $-1 68.040406506546219 11.148862046051446 99.74260531674912 0 0 -1 I I #
point $-1 68.040406506546219 11.148862046051446 17.334206540751662 #
straight-curve $-1 68.040406506546219 7.3581693693455428 7.3016217954553895 0 1 0 I I #
point $-1 68.040406506546219 11.148862046051446 7.3016217954553895 #
point $-1 61.928224387914618 14.716338738691093 10.881326492096379 #
straight-curve $-1 -68.040406506546219 11.148862046051448 61.604542693187256 0 0 -1 I I #
point $-1 -68.040406506546219 11.148862046051448 17.334206540751662 #
straight-curve $-1 -68.040406506546219 4.0252029526144781 7.8060115821763247 0 -1 0 I I #
point $-1 -68.040406506546219 11.148862046051448 7.8060115821763159 #
point $-1 -59.268133569785199 6.7224961305907414 10.732727605119607 #
point $-1 -59.268133569785199 9.3783156798671641 10.732727605119607 #
straight-curve $-1 -68.040406506546219 0 17.334206540751662 0 -1 0 I I #
point $-1 -68.040406506546219 11.148862046051448 17.334206540751662 #
point $-1 -59.268133569785199 12.919408412235725 10.732727605119607 #
point $-1 -59.268133569785199 15.575227961512148 10.732727605119607 #
straight-curve $-1 0 -57.082699271898449 4.2947086540229478 -1 0 0 I I #
point $-1 68.040406506546219 -57.082699271898449 4.2947086540229478 #
straight-curve $-1 68.040406506546219 -57.082699271898449 7.2632715375163386 0 0 -1 I I #
End-of-ACIS-data 