500 0 11 0           
7 Unknown 11 ACIS 5.0 NT 24 Thu Mar 25 17:07:37 1999 
-1 9.9999999999999995e-007 1e-010 
body $-1 $11 $-1 $12 #
body $-1 $13 $-1 $14 #
body $-1 $15 $-1 $16 #
body $-1 $17 $-1 $18 #
body $-1 $19 $-1 $20 #
body $-1 $21 $-1 $22 #
body $-1 $23 $-1 $24 #
body $-1 $25 $-1 $26 #
body $-1 $27 $-1 $28 #
body $-1 $29 $-1 $30 #
body $-1 $31 $-1 $32 #
lump $-1 $-1 $33 $0 #
transform $-1 1 0 0 0 1 0 0 0 1 71.539048432874537 30.45021705979017 12.528665467646873 1 rotate no_reflect no_shear #
lump $-1 $-1 $34 $1 #
transform $-1 1 0 0 0 1 0 0 0 1 71.539048432874537 30.45021705979017 12.528665467646873 1 rotate no_reflect no_shear #
lump $-1 $-1 $35 $2 #
transform $-1 1 0 0 0 1 0 0 0 1 71.539048432874537 30.45021705979017 12.528665467646873 1 rotate no_reflect no_shear #
lump $-1 $-1 $36 $3 #
transform $-1 1 0 0 0 1 0 0 0 1 71.539048432874537 30.45021705979017 12.528665467646873 1 rotate no_reflect no_shear #
lump $-1 $-1 $37 $4 #
transform $-1 1 0 0 0 1 0 0 0 1 71.539048432874537 30.45021705979017 12.528665467646873 1 rotate no_reflect no_shear #
lump $-1 $-1 $38 $5 #
transform $-1 1 0 0 0 1 0 0 0 1 71.539048432874537 30.45021705979017 12.528665467646873 1 rotate no_reflect no_shear #
lump $-1 $-1 $39 $6 #
transform $-1 1 0 0 0 1 0 0 0 1 71.539048432874537 30.45021705979017 12.528665467646873 1 rotate no_reflect no_shear #
lump $-1 $-1 $40 $7 #
transform $-1 1 0 0 0 1 0 0 0 1 71.539048432874537 30.45021705979017 12.528665467646873 1 rotate no_reflect no_shear #
lump $-1 $-1 $41 $8 #
transform $-1 1 0 0 0 1 0 0 0 1 71.539048432874537 30.45021705979017 12.528665467646873 1 rotate no_reflect no_shear #
lump $-1 $-1 $42 $9 #
transform $-1 1 0 0 0 1 0 0 0 1 71.539048432874537 30.45021705979017 12.528665467646873 1 rotate no_reflect no_shear #
lump $-1 $-1 $43 $10 #
transform $-1 1 0 0 0 1 0 0 0 1 71.539048432874537 30.45021705979017 12.528665467646873 1 rotate no_reflect no_shear #
shell $-1 $-1 $-1 $44 $-1 $11 #
shell $-1 $-1 $-1 $45 $-1 $13 #
shell $-1 $-1 $-1 $46 $-1 $15 #
shell $-1 $-1 $-1 $47 $-1 $17 #
shell $-1 $-1 $-1 $48 $-1 $19 #
shell $-1 $-1 $-1 $49 $-1 $21 #
shell $-1 $-1 $-1 $50 $-1 $23 #
shell $-1 $-1 $-1 $51 $-1 $25 #
shell $-1 $-1 $-1 $52 $-1 $27 #
shell $-1 $-1 $-1 $53 $-1 $29 #
shell $-1 $-1 $-1 $54 $-1 $31 #
face $-1 $55 $56 $33 $-1 $57 forward single #
face $-1 $58 $59 $34 $-1 $60 forward single #
face $-1 $61 $62 $35 $-1 $63 reversed single #
face $-1 $64 $65 $36 $-1 $66 forward single #
face $-1 $67 $68 $37 $-1 $69 forward single #
face $-1 $70 $71 $38 $-1 $72 reversed single #
face $-1 $73 $74 $39 $-1 $75 forward single #
face $-1 $76 $77 $40 $-1 $78 forward single #
face $-1 $79 $80 $41 $-1 $81 reversed single #
face $-1 $82 $83 $42 $-1 $84 forward single #
face $-1 $85 $86 $43 $-1 $87 forward single #
face $-1 $88 $89 $33 $-1 $90 reversed single #
loop $-1 $-1 $91 $44 #
plane-surface $-1 0 0 12.528665467646873 0 0 1 1 0 0 forward_v I I I I #
face $-1 $92 $93 $34 $-1 $94 reversed single #
loop $-1 $-1 $95 $45 #
plane-surface $-1 0 -22.503429122539387 -7.8699295773504145 0 0 1 1 0 0 forward_v I I I I #
face $-1 $96 $97 $35 $-1 $98 reversed single #
loop $-1 $-1 $99 $46 #
plane-surface $-1 82.128864546135233 -14.556641185288607 204.80734959827018 0 1 0 0.74314483375859142 0 0.66913059716165679 forward_v I I I I #
face $-1 $100 $101 $36 $-1 $102 forward single #
loop $-1 $103 $104 $47 #
cone-surface $-1 66.05986811137258 -11.657498171037044 6.6689843194333305 -0.74314483375859142 0 -0.66913059716165679 0.66913059716165679 0 -0.74314483375859142 1 I I 0 1 1 forward I I I I #
face $-1 $105 $106 $37 $-1 $107 forward single #
loop $-1 $108 $109 $48 #
cone-surface $-1 66.05986811137258 -7.3087836496596985 6.6689843194333305 -0.74314483375859142 0 -0.66913059716165679 0.66913059716165679 0 -0.74314483375859142 1 I I 0 1 1 forward I I I I #
face $-1 $110 $111 $38 $-1 $112 reversed single #
loop $-1 $-1 $113 $49 #
plane-surface $-1 -170.92944721762871 -9.7072626726119466 111.98864251255266 0 1 0 -0.69465837861970381 0 0.71933979245794832 forward_v I I I I #
face $-1 $114 $115 $39 $-1 $116 forward single #
loop $-1 $117 $118 $50 #
cone-surface $-1 -69.135162454628144 -7.2742145121919322 10.164552263662113 0.69465837861970381 0 -0.71933979245794832 0.71933979245794832 0 0.69465837861970381 1 I I 0 1 1 forward I I I I #
face $-1 $119 $120 $40 $-1 $121 forward single #
loop $-1 $122 $123 $51 #
cone-surface $-1 -69.135162454628144 -3.6246422715619104 10.164552263662113 0.69465837861970381 0 -0.71933979245794832 0.71933979245794832 0 0.69465837861970381 1 I I 0 1 1 forward I I I I #
face $-1 $124 $125 $41 $-1 $126 reversed single #
loop $-1 $-1 $127 $52 #
plane-surface $-1 -170.92944721762871 12.796166449927441 111.98864251255266 0 1 0 -0.69465837861970381 0 0.71933979245794832 forward_v I I I I #
face $-1 $128 $129 $42 $-1 $130 forward single #
loop $-1 $131 $132 $53 #
cone-surface $-1 -69.135162454628144 15.229214610347455 10.164552263662113 0.69465837861970381 0 -0.71933979245794832 0.71933979245794832 0 0.69465837861970381 1 I I 0 1 1 forward I I I I #
face $-1 $133 $134 $43 $-1 $135 forward single #
loop $-1 $136 $137 $54 #
cone-surface $-1 -69.135162454628144 18.878786850977477 10.164552263662113 0.69465837861970381 0 -0.71933979245794832 0.71933979245794832 0 0.69465837861970381 1 I I 0 1 1 forward I I I I #
face $-1 $138 $139 $33 $-1 $140 reversed single #
loop $-1 $-1 $141 $55 #
plane-surface $-1 0 0 -12.528665467646873 0 0 1 1 0 0 forward_v I I I I #
coedge $-1 $142 $143 $144 $145 forward $56 $-1 #
face $-1 $146 $147 $34 $-1 $148 reversed single #
loop $-1 $-1 $149 $58 #
plane-surface $-1 0 -22.503429122539387 -11.770651015621842 0 0 1 1 0 0 forward_v I I I I #
coedge $-1 $150 $151 $152 $153 reversed $59 $-1 #
face $-1 $154 $155 $35 $-1 $156 reversed single #
loop $-1 $-1 $157 $61 #
plane-surface $-1 -24.198883963657508 -9.4831409103483679 109.06941720173812 0.74314483375859142 0 0.66913059716165679 0.66913059716165679 0 -0.74314483375859142 forward_v I I I I #
coedge $-1 $158 $159 $160 $161 reversed $62 $-1 #
face $-1 $-1 $162 $36 $-1 $163 forward single #
loop $-1 $164 $165 $64 #
cone-surface $-1 64.615241002515475 -11.657498171037044 5.3682362604896969 -0.74314483375859142 0 -0.66913059716165679 0.3345652985808284 0 -0.37157241687929571 1 I I -0.70710678118654746 0.70710678118654746 0.5 forward I I I I #
loop $-1 $-1 $166 $47 #
coedge $-1 $104 $104 $167 $168 reversed $65 $-1 #
face $-1 $-1 $169 $37 $-1 $170 forward single #
loop $-1 $171 $172 $67 #
cone-surface $-1 64.615241002515475 -7.3087836496596985 5.3682362604896969 -0.74314483375859142 0 -0.66913059716165679 0.3345652985808284 0 -0.37157241687929571 1 I I -0.70710678118654746 0.70710678118654746 0.5 forward I I I I #
loop $-1 $-1 $173 $48 #
coedge $-1 $109 $109 $174 $175 reversed $68 $-1 #
face $-1 $176 $177 $38 $-1 $178 reversed single #
loop $-1 $-1 $179 $70 #
plane-surface $-1 -71.539048432874523 -5.4494283918769213 9.0668740078664882 -0.69465837861970381 0 0.71933979245794832 0.71933979245794832 0 0.69465837861970381 forward_v I I I I #
coedge $-1 $180 $181 $182 $183 reversed $71 $-1 #
face $-1 $-1 $184 $39 $-1 $185 forward single #
loop $-1 $186 $187 $73 #
cone-surface $-1 -68.17634224469063 -7.2742145121919322 9.1716648933385603 0.69465837861970381 0 -0.71933979245794832 0.35966989622897416 0 0.3473291893098519 1 I I -0.70710678118654746 0.70710678118654746 0.5 forward I I I I #
loop $-1 $-1 $188 $50 #
coedge $-1 $118 $118 $189 $190 reversed $74 $-1 #
face $-1 $-1 $191 $40 $-1 $192 forward single #
loop $-1 $193 $194 $76 #
cone-surface $-1 -68.17634224469063 -3.6246422715619104 9.1716648933385603 0.69465837861970381 0 -0.71933979245794832 0.35966989622897416 0 0.3473291893098519 1 I I -0.70710678118654746 0.70710678118654746 0.5 forward I I I I #
loop $-1 $-1 $195 $51 #
coedge $-1 $123 $123 $196 $197 reversed $77 $-1 #
face $-1 $198 $199 $41 $-1 $200 reversed single #
loop $-1 $-1 $201 $79 #
plane-surface $-1 -71.539048432874523 17.054000730662466 9.0668740078664882 -0.69465837861970381 0 0.71933979245794832 0.71933979245794832 0 0.69465837861970381 forward_v I I I I #
coedge $-1 $202 $203 $204 $205 reversed $80 $-1 #
face $-1 $-1 $206 $42 $-1 $207 forward single #
loop $-1 $208 $209 $82 #
cone-surface $-1 -68.17634224469063 15.229214610347455 9.1716648933385603 0.69465837861970381 0 -0.71933979245794832 0.35966989622897416 0 0.3473291893098519 1 I I -0.70710678118654746 0.70710678118654746 0.5 forward I I I I #
loop $-1 $-1 $210 $53 #
coedge $-1 $132 $132 $211 $212 reversed $83 $-1 #
face $-1 $-1 $213 $43 $-1 $214 forward single #
loop $-1 $215 $216 $85 #
cone-surface $-1 -68.17634224469063 18.878786850977477 9.1716648933385603 0.69465837861970381 0 -0.71933979245794832 0.35966989622897416 0 0.3473291893098519 1 I I -0.70710678118654746 0.70710678118654746 0.5 forward I I I I #
loop $-1 $-1 $217 $54 #
coedge $-1 $137 $137 $218 $219 reversed $86 $-1 #
face $-1 $220 $221 $33 $-1 $222 reversed single #
loop $-1 $-1 $223 $88 #
plane-surface $-1 0 -30.45021705979017 0 0 1 0 0 0 1 forward_v I I I I #
coedge $-1 $224 $225 $226 $227 forward $89 $-1 #
coedge $-1 $228 $91 $229 $230 forward $56 $-1 #
coedge $-1 $91 $228 $231 $232 forward $56 $-1 #
coedge $-1 $233 $234 $91 $145 reversed $235 $-1 #
edge $-1 $236 -30.45021705979017 $237 30.45021705979017 $144 $238 forward 7 unknown #
face $-1 $239 $240 $34 $-1 $241 reversed single #
loop $-1 $-1 $242 $92 #
plane-surface $-1 0 -14.556641185288607 -9.8202902964861281 0 -1 0 0 0 -1 forward_v I I I I #
coedge $-1 $243 $244 $245 $246 reversed $93 $-1 #
coedge $-1 $247 $95 $248 $249 forward $59 $-1 #
coedge $-1 $95 $247 $250 $251 reversed $59 $-1 #
coedge $-1 $252 $253 $95 $153 forward $254 $-1 #
edge $-1 $255 3.304926624018913 $256 19.198502498520476 $152 $257 forward 7 unknown #
face $-1 $258 $259 $35 $-1 $260 forward single #
loop $-1 $-1 $261 $96 #
plane-surface $-1 82.128864546135233 -4.4096406354081292 204.80734959827018 0 -1 0 -0.74314483375859142 0 -0.66913059716165679 forward_v I I I I #
coedge $-1 $262 $263 $264 $265 reversed $97 $-1 #
coedge $-1 $159 $99 $266 $267 reversed $62 $-1 #
coedge $-1 $99 $158 $262 $268 reversed $62 $-1 #
coedge $-1 $264 $269 $99 $161 forward $270 $-1 #
edge $-1 $271 89.875009331488215 $272 99.662006107189711 $160 $273 forward 7 unknown #
loop $-1 $-1 $167 $100 #
plane-surface $-1 -24.198883963657508 -9.4831409103483679 109.06941720173812 0.74314483375859142 0 0.66913059716165679 0.66913059716165679 0 -0.74314483375859142 forward_v I I I I #
loop $-1 $-1 $274 $64 #
coedge $-1 $165 $165 $166 $275 reversed $101 $-1 #
coedge $-1 $166 $166 $165 $275 forward $103 $-1 #
coedge $-1 $167 $167 $104 $168 forward $162 $-1 #
edge $-1 $276 0 $276 6.2831853071796004 $167 $277 forward 7 unknown #
loop $-1 $-1 $174 $105 #
plane-surface $-1 -24.198883963657508 -9.4831409103483679 109.06941720173812 0.74314483375859142 0 0.66913059716165679 0.66913059716165679 0 -0.74314483375859142 forward_v I I I I #
loop $-1 $-1 $278 $67 #
coedge $-1 $172 $172 $173 $279 reversed $106 $-1 #
coedge $-1 $173 $173 $172 $279 forward $108 $-1 #
coedge $-1 $174 $174 $109 $175 forward $169 $-1 #
edge $-1 $280 0 $280 6.2831853071796004 $174 $281 forward 7 unknown #
face $-1 $282 $283 $38 $-1 $284 reversed single #
loop $-1 $-1 $285 $110 #
plane-surface $-1 -170.92944721762871 -1.191594111141896 111.98864251255266 0 -1 0 0.69465837861970381 0 -0.71933979245794832 forward_v I I I I #
coedge $-1 $286 $287 $288 $289 reversed $111 $-1 #
coedge $-1 $181 $113 $290 $291 reversed $71 $-1 #
coedge $-1 $113 $180 $286 $292 reversed $71 $-1 #
coedge $-1 $288 $293 $113 $183 forward $294 $-1 #
edge $-1 $295 13.925675175939816 $296 17.510465091177295 $182 $297 forward 7 unknown #
loop $-1 $-1 $189 $114 #
plane-surface $-1 -71.539048432874523 -5.4494283918769213 9.0668740078664882 -0.69465837861970381 0 0.71933979245794832 0.71933979245794832 0 0.69465837861970381 forward_v I I I I #
loop $-1 $-1 $298 $73 #
coedge $-1 $187 $187 $188 $299 reversed $115 $-1 #
coedge $-1 $188 $188 $187 $299 forward $117 $-1 #
coedge $-1 $189 $189 $118 $190 forward $184 $-1 #
edge $-1 $300 0 $300 6.2831853071796004 $189 $301 forward 7 unknown #
loop $-1 $-1 $196 $119 #
plane-surface $-1 -71.539048432874523 -5.4494283918769213 9.0668740078664882 -0.69465837861970381 0 0.71933979245794832 0.71933979245794832 0 0.69465837861970381 forward_v I I I I #
loop $-1 $-1 $302 $76 #
coedge $-1 $194 $194 $195 $303 reversed $120 $-1 #
coedge $-1 $195 $195 $194 $303 forward $122 $-1 #
coedge $-1 $196 $196 $123 $197 forward $191 $-1 #
edge $-1 $304 0 $304 6.2831853071796004 $196 $305 forward 7 unknown #
face $-1 $306 $307 $41 $-1 $308 forward single #
loop $-1 $-1 $309 $124 #
plane-surface $-1 -170.92944721762871 21.311835011397491 111.98864251255266 0 -1 0 0.69465837861970381 0 -0.71933979245794832 forward_v I I I I #
coedge $-1 $310 $311 $312 $313 reversed $125 $-1 #
coedge $-1 $203 $127 $314 $315 reversed $80 $-1 #
coedge $-1 $127 $202 $310 $316 reversed $80 $-1 #
coedge $-1 $312 $317 $127 $205 forward $307 $-1 #
edge $-1 $318 13.925675175939816 $319 17.510465091177295 $204 $320 forward 7 unknown #
loop $-1 $-1 $211 $128 #
plane-surface $-1 -71.539048432874523 17.054000730662466 9.0668740078664882 -0.69465837861970381 0 0.71933979245794832 0.71933979245794832 0 0.69465837861970381 forward_v I I I I #
loop $-1 $-1 $321 $82 #
coedge $-1 $209 $209 $210 $322 reversed $129 $-1 #
coedge $-1 $210 $210 $209 $322 forward $131 $-1 #
coedge $-1 $211 $211 $132 $212 forward $206 $-1 #
edge $-1 $323 0 $323 6.2831853071796004 $211 $324 forward 7 unknown #
loop $-1 $-1 $218 $133 #
plane-surface $-1 -71.539048432874523 17.054000730662466 9.0668740078664882 -0.69465837861970381 0 0.71933979245794832 0.71933979245794832 0 0.69465837861970381 forward_v I I I I #
loop $-1 $-1 $325 $85 #
coedge $-1 $216 $216 $217 $326 reversed $134 $-1 #
coedge $-1 $217 $217 $216 $326 forward $136 $-1 #
coedge $-1 $218 $218 $137 $219 forward $213 $-1 #
edge $-1 $327 0 $327 6.2831853071796004 $218 $328 forward 7 unknown #
face $-1 $329 $330 $33 $-1 $331 reversed single #
loop $-1 $-1 $332 $138 #
plane-surface $-1 -71.539048432874537 0 0 1 0 0 0 0 -1 forward_v I I I I #
coedge $-1 $333 $231 $334 $335 forward $139 $-1 #
coedge $-1 $336 $141 $333 $337 forward $89 $-1 #
coedge $-1 $141 $336 $338 $339 forward $89 $-1 #
coedge $-1 $234 $233 $141 $227 reversed $235 $-1 #
edge $-1 $340 -30.45021705979017 $341 30.45021705979017 $226 $342 forward 7 unknown #
coedge $-1 $143 $142 $343 $344 forward $56 $-1 #
coedge $-1 $345 $346 $142 $230 reversed $330 $-1 #
edge $-1 $237 -71.539048432874537 $347 71.539048432874537 $229 $348 forward 7 unknown #
coedge $-1 $223 $349 $143 $232 reversed $139 $-1 #
edge $-1 $350 -71.539048432874537 $236 71.539048432874537 $231 $351 forward 7 unknown #
coedge $-1 $226 $144 $349 $352 forward $235 $-1 #
coedge $-1 $144 $226 $345 $353 reversed $235 $-1 #
loop $-1 $-1 $233 $329 #
vertex $-1 $145 $354 #
vertex $-1 $145 $355 #
straight-curve $-1 71.539048432874537 0 12.528665467646873 0 1 0 I I #
face $-1 $356 $357 $34 $-1 $358 reversed single #
loop $-1 $-1 $359 $146 #
plane-surface $-1 -71.539048432874537 0 0 1 0 0 0 0 -1 forward_v I I I I #
coedge $-1 $360 $248 $253 $361 reversed $147 $-1 #
coedge $-1 $362 $149 $363 $364 reversed $93 $-1 #
coedge $-1 $149 $362 $360 $365 forward $93 $-1 #
coedge $-1 $253 $252 $149 $246 forward $254 $-1 #
edge $-1 $366 -19.198502498520476 $367 -3.304926624018913 $245 $368 forward 7 unknown #
coedge $-1 $151 $150 $359 $369 reversed $59 $-1 #
coedge $-1 $242 $370 $150 $249 reversed $147 $-1 #
edge $-1 $255 -71.539048432874537 $371 71.539048432874537 $248 $372 forward 7 unknown #
coedge $-1 $373 $374 $151 $251 forward $357 $-1 #
edge $-1 $256 -71.539048432874537 $375 71.539048432874537 $250 $376 forward 7 unknown #
coedge $-1 $245 $152 $374 $377 forward $254 $-1 #
coedge $-1 $152 $245 $242 $361 forward $254 $-1 #
loop $-1 $-1 $152 $356 #
vertex $-1 $153 $378 #
vertex $-1 $377 $379 #
straight-curve $-1 71.539048432874537 -11.251714561269694 -7.8699295773504145 0 -1 0 I I #
face $-1 $-1 $270 $35 $-1 $380 reversed single #
loop $-1 $-1 $381 $154 #
plane-surface $-1 0 0 12.528665467646873 0 0 1 1 0 0 forward_v I I I I #
coedge $-1 $382 $383 $384 $385 reversed $155 $-1 #
coedge $-1 $386 $157 $159 $268 forward $97 $-1 #
coedge $-1 $157 $386 $382 $387 forward $97 $-1 #
coedge $-1 $384 $160 $157 $265 forward $270 $-1 #
edge $-1 $272 -9.8150707301144227 $388 0.33192981976605473 $264 $389 forward 7 unknown #
coedge $-1 $390 $391 $158 $267 forward $259 $-1 #
edge $-1 $392 21.662364900758682 $271 30.474616159806921 $266 $393 forward 7 unknown #
edge $-1 $272 -143.07809686574907 $392 -129.90839382656901 $159 $394 forward 7 unknown #
coedge $-1 $160 $384 $390 $395 reversed $270 $-1 #
loop $-1 $-1 $384 $258 #
vertex $-1 $395 $396 #
vertex $-1 $161 $397 #
straight-curve $-1 71.539048432874537 -14.556641185288607 102.40367479913509 0 0 -1 I I #
coedge $-1 $274 $274 $-1 $398 reversed $164 $-1 #
edge $-1 $399 0 $399 6.2831853071796004 $165 $400 forward 7 unknown #
vertex $-1 $168 $401 #
ellipse-curve $-1 67.132922803350397 -11.657498171037044 7.6351670797961368 0.74314483375859142 0 0.66913059716165679 0.66913059716165679 0 -0.74314483375859142 1 I I #
coedge $-1 $278 $278 $-1 $402 reversed $171 $-1 #
edge $-1 $403 0 $403 6.2831853071796004 $172 $404 forward 7 unknown #
vertex $-1 $175 $405 #
ellipse-curve $-1 67.132922803350397 -7.3087836496596985 7.6351670797961368 0.74314483375859142 0 0.66913059716165679 0.66913059716165679 0 -0.74314483375859142 1 I I #
face $-1 $-1 $294 $38 $-1 $406 forward single #
loop $-1 $-1 $407 $176 #
plane-surface $-1 -71.539048432874537 0 0 1 0 0 0 0 -1 forward_v I I I I #
coedge $-1 $408 $409 $410 $411 reversed $177 $-1 #
coedge $-1 $412 $179 $181 $292 forward $111 $-1 #
coedge $-1 $179 $412 $408 $413 forward $111 $-1 #
coedge $-1 $410 $182 $179 $289 forward $294 $-1 #
edge $-1 $296 -6.982548476673486 $414 1.5331200847965647 $288 $415 forward 7 unknown #
coedge $-1 $416 $417 $180 $291 forward $283 $-1 #
edge $-1 $418 -46.927447248409855 $295 -43.465655788629455 $290 $419 forward 7 unknown #
edge $-1 $296 -4.9834444762028429 $418 2.0094122576745862e-014 $181 $420 forward 7 unknown #
coedge $-1 $182 $410 $416 $421 forward $294 $-1 #
loop $-1 $-1 $410 $282 #
vertex $-1 $291 $422 #
vertex $-1 $183 $423 #
straight-curve $-1 -85.464723608814353 -9.7072626726119466 12.528665467646874 1 0 0 I I #
coedge $-1 $298 $298 $-1 $424 reversed $186 $-1 #
edge $-1 $425 0 $425 6.2831853071796004 $187 $426 forward 7 unknown #
vertex $-1 $190 $427 #
ellipse-curve $-1 -69.746653475255798 -7.2742145121919322 10.797769737756678 -0.69465837861970381 0 0.71933979245794832 0.71933979245794832 0 0.69465837861970381 1 I I #
coedge $-1 $302 $302 $-1 $428 reversed $193 $-1 #
edge $-1 $429 0 $429 6.2831853071796004 $194 $430 forward 7 unknown #
vertex $-1 $197 $431 #
ellipse-curve $-1 -69.746653475255798 -3.6246422715619104 10.797769737756678 -0.69465837861970381 0 0.71933979245794832 0.71933979245794832 0 0.69465837861970381 1 I I #
face $-1 $-1 $432 $41 $-1 $433 reversed single #
loop $-1 $-1 $204 $198 #
plane-surface $-1 0 0 12.528665467646873 0 0 1 1 0 0 forward_v I I I I #
coedge $-1 $434 $435 $436 $437 reversed $199 $-1 #
coedge $-1 $438 $201 $203 $316 forward $125 $-1 #
coedge $-1 $201 $438 $434 $439 forward $125 $-1 #
coedge $-1 $436 $204 $201 $313 forward $307 $-1 #
edge $-1 $319 4.2691660845962076 $440 12.784834646066258 $312 $441 forward 7 unknown #
coedge $-1 $442 $443 $202 $315 forward $432 $-1 #
edge $-1 $444 -46.927447248409855 $318 -43.465655788629455 $314 $445 forward 7 unknown #
edge $-1 $319 -4.9834444762028429 $444 2.0094122576745862e-014 $203 $446 forward 7 unknown #
coedge $-1 $204 $436 $442 $447 forward $307 $-1 #
vertex $-1 $205 $448 #
vertex $-1 $205 $449 #
straight-curve $-1 -85.464723608814353 12.796166449927441 12.528665467646874 1 0 0 I I #
coedge $-1 $321 $321 $-1 $450 reversed $208 $-1 #
edge $-1 $451 0 $451 6.2831853071796004 $209 $452 forward 7 unknown #
vertex $-1 $212 $453 #
ellipse-curve $-1 -69.746653475255798 15.229214610347455 10.797769737756678 -0.69465837861970381 0 0.71933979245794832 0.71933979245794832 0 0.69465837861970381 1 I I #
coedge $-1 $325 $325 $-1 $454 reversed $215 $-1 #
edge $-1 $455 0 $455 6.2831853071796004 $216 $456 forward 7 unknown #
vertex $-1 $219 $457 #
ellipse-curve $-1 -69.746653475255798 18.878786850977477 10.797769737756678 -0.69465837861970381 0 0.71933979245794832 0.71933979245794832 0 0.69465837861970381 1 I I #
face $-1 $-1 $235 $33 $-1 $458 reversed single #
loop $-1 $-1 $345 $220 #
plane-surface $-1 0 30.45021705979017 0 0 -1 0 0 0 -1 forward_v I I I I #
coedge $-1 $459 $343 $346 $460 forward $221 $-1 #
coedge $-1 $349 $223 $224 $337 reversed $139 $-1 #
coedge $-1 $343 $459 $223 $335 reversed $221 $-1 #
edge $-1 $350 -12.528665467646873 $461 12.528665467646873 $334 $462 forward 7 unknown #
coedge $-1 $225 $224 $459 $463 forward $89 $-1 #
edge $-1 $341 -71.539048432874537 $461 71.539048432874537 $333 $464 forward 7 unknown #
coedge $-1 $346 $345 $225 $339 reversed $330 $-1 #
edge $-1 $465 -71.539048432874537 $340 71.539048432874537 $338 $466 forward 7 unknown #
vertex $-1 $227 $467 #
vertex $-1 $352 $468 #
straight-curve $-1 71.539048432874537 0 -12.528665467646873 0 -1 0 I I #
coedge $-1 $332 $334 $228 $344 reversed $221 $-1 #
edge $-1 $347 -30.45021705979017 $350 30.45021705979017 $343 $469 forward 7 unknown #
coedge $-1 $338 $229 $234 $353 forward $330 $-1 #
coedge $-1 $229 $338 $332 $460 reversed $330 $-1 #
vertex $-1 $230 $470 #
straight-curve $-1 0 30.45021705979017 12.528665467646873 -1 0 0 I I #
coedge $-1 $231 $333 $233 $352 reversed $139 $-1 #
vertex $-1 $344 $471 #
straight-curve $-1 0 -30.45021705979017 12.528665467646873 1 0 0 I I #
edge $-1 $236 -12.528665467646873 $341 12.528665467646873 $233 $472 forward 7 unknown #
edge $-1 $237 -12.528665467646873 $340 12.528665467646873 $234 $473 forward 7 unknown #
point $-1 71.539048432874537 -30.45021705979017 12.528665467646873 #
point $-1 71.539048432874537 30.45021705979017 12.528665467646873 #
face $-1 $-1 $254 $34 $-1 $474 reversed single #
loop $-1 $-1 $250 $239 #
plane-surface $-1 0 -30.45021705979017 0 0 1 0 0 0 1 forward_v I I I I #
coedge $-1 $475 $476 $247 $369 forward $240 $-1 #
coedge $-1 $370 $242 $244 $365 reversed $147 $-1 #
edge $-1 $367 -6.8605058673787784 $255 -2.9597844291073505 $253 $477 forward 7 unknown #
coedge $-1 $244 $243 $478 $479 reversed $93 $-1 #
coedge $-1 $374 $373 $243 $364 forward $357 $-1 #
edge $-1 $480 -71.539048432874537 $366 71.539048432874537 $363 $481 forward 7 unknown #
edge $-1 $482 -71.539048432874537 $367 71.539048432874537 $360 $483 forward 7 unknown #
vertex $-1 $364 $484 #
vertex $-1 $246 $485 #
straight-curve $-1 71.539048432874537 -11.251714561269694 -11.770651015621842 0 1 0 I I #
edge $-1 $375 -19.198502498520476 $371 -3.304926624018913 $359 $486 forward 7 unknown #
coedge $-1 $248 $360 $475 $487 reversed $147 $-1 #
vertex $-1 $369 $488 #
straight-curve $-1 0 -14.556641185288607 -7.8699295773504145 -1 0 0 I I #
coedge $-1 $363 $250 $476 $489 forward $357 $-1 #
coedge $-1 $250 $363 $252 $377 reversed $357 $-1 #
vertex $-1 $489 $490 #
straight-curve $-1 0 -30.45021705979017 -7.8699295773504145 -1 0 0 I I #
edge $-1 $256 7.8699295773504145 $366 11.770651015621842 $252 $491 forward 7 unknown #
point $-1 71.539048432874537 -14.556641185288607 -7.8699295773504145 #
point $-1 71.539048432874537 -30.45021705979017 -7.8699295773504145 #
plane-surface $-1 71.539048432874537 0 0 -1 0 0 0 0 1 forward_v I I I I #
coedge $-1 $391 $390 $383 $492 forward $259 $-1 #
coedge $-1 $383 $261 $263 $387 reversed $155 $-1 #
coedge $-1 $261 $382 $381 $492 reversed $155 $-1 #
coedge $-1 $269 $264 $261 $385 forward $270 $-1 #
edge $-1 $388 -99.662006107189711 $493 -89.875009331488215 $384 $494 forward 7 unknown #
coedge $-1 $263 $262 $391 $495 reversed $97 $-1 #
edge $-1 $496 129.90839382656901 $388 143.07809686574907 $382 $497 forward 7 unknown #
vertex $-1 $265 $498 #
straight-curve $-1 71.539048432874537 -4.741570455174184 2.7416686919454065 0 1 0 I I #
coedge $-1 $381 $266 $269 $395 forward $259 $-1 #
coedge $-1 $266 $381 $386 $495 forward $259 $-1 #
vertex $-1 $267 $499 #
straight-curve $-1 41.064432273067617 -14.556641185288607 12.528665467646874 1 0 0 I I #
straight-curve $-1 -24.198883963657508 -14.556641185288607 109.06941720173812 -0.66913059716165679 0 0.74314483375859142 I I #
edge $-1 $271 -14.556641185288607 $493 -4.4096406354081292 $269 $500 forward 7 unknown #
point $-1 71.539048432874537 -14.556641185288607 12.528665467646873 #
point $-1 71.539048432874552 -14.556641185288607 2.7416686919453781 #
edge $-1 $501 1 $501 0 $274 $-1 forward 7 unknown #
vertex $-1 $275 $502 #
ellipse-curve $-1 64.986813419394764 -11.657498171037044 5.702801559070525 0.74314483375859142 0 0.66913059716165679 0.66913059716165679 0 -0.74314483375859142 1 I I #
point $-1 67.802053400512065 -11.657498171037044 6.8920222460375449 #
edge $-1 $503 1 $503 0 $278 $-1 forward 7 unknown #
vertex $-1 $279 $504 #
ellipse-curve $-1 64.986813419394764 -7.3087836496596985 5.702801559070525 0.74314483375859142 0 0.66913059716165679 0.66913059716165679 0 -0.74314483375859142 1 I I #
point $-1 67.802053400512065 -7.3087836496596985 6.8920222460375449 #
plane-surface $-1 0 0 12.528665467646873 0 0 1 1 0 0 forward_v I I I I #
coedge $-1 $417 $416 $409 $505 forward $283 $-1 #
coedge $-1 $409 $285 $287 $413 reversed $177 $-1 #
coedge $-1 $285 $408 $407 $505 reversed $177 $-1 #
coedge $-1 $293 $288 $285 $411 forward $294 $-1 #
edge $-1 $414 -17.510465091177295 $506 -13.925675175939816 $410 $507 forward 7 unknown #
coedge $-1 $287 $286 $417 $508 reversed $111 $-1 #
edge $-1 $509 -2.0094122576745862e-014 $414 4.9834444762028429 $408 $510 forward 7 unknown #
vertex $-1 $289 $511 #
straight-curve $-1 -67.954258517637058 -2.7247141959384606 12.528665467646874 0 1 0 I I #
coedge $-1 $407 $290 $293 $421 reversed $283 $-1 #
coedge $-1 $290 $407 $412 $508 forward $283 $-1 #
vertex $-1 $291 $512 #
straight-curve $-1 -71.539048432874537 -9.7072626726119466 55.994321256276329 0 0 1 I I #
straight-curve $-1 -71.539048432874523 -9.7072626726119466 9.0668740078664882 -0.71933979245794832 0 -0.69465837861970381 I I #
edge $-1 $506 1.191594111141896 $295 9.7072626726119466 $416 $513 forward 7 unknown #
point $-1 -71.539048432874537 -9.7072626726119466 12.528665467646873 #
point $-1 -67.954258517637058 -9.7072626726119466 12.528665467646873 #
edge $-1 $514 1 $514 0 $298 $-1 forward 7 unknown #
vertex $-1 $299 $515 #
ellipse-curve $-1 -68.523671434000477 -7.2742145121919322 9.5313347895675342 -0.69465837861970381 0 0.71933979245794832 0.71933979245794832 0 0.69465837861970381 1 I I #
point $-1 -69.027313682797868 -7.2742145121919322 11.492428116376395 #
edge $-1 $516 1 $516 0 $302 $-1 forward 7 unknown #
vertex $-1 $303 $517 #
ellipse-curve $-1 -68.523671434000477 -3.6246422715619104 9.5313347895675342 -0.69465837861970381 0 0.71933979245794832 0.71933979245794832 0 0.69465837861970381 1 I I #
point $-1 -69.027313682797868 -3.6246422715619104 11.492428116376395 #
loop $-1 $-1 $314 $306 #
plane-surface $-1 -71.539048432874537 0 0 1 0 0 0 0 -1 forward_v I I I I #
coedge $-1 $435 $309 $311 $439 reversed $199 $-1 #
coedge $-1 $309 $434 $518 $519 reversed $199 $-1 #
coedge $-1 $317 $312 $309 $437 forward $307 $-1 #
edge $-1 $440 -17.510465091177295 $520 -13.925675175939816 $436 $521 forward 7 unknown #
coedge $-1 $311 $310 $443 $522 reversed $125 $-1 #
edge $-1 $523 -2.0094122576745862e-014 $440 4.9834444762028429 $434 $524 forward 7 unknown #
vertex $-1 $313 $525 #
straight-curve $-1 -67.954258517637058 8.527000365331233 12.528665467646874 0 1 0 I I #
coedge $-1 $518 $314 $317 $447 reversed $432 $-1 #
coedge $-1 $314 $518 $438 $522 forward $432 $-1 #
vertex $-1 $315 $526 #
straight-curve $-1 -71.539048432874537 12.796166449927441 55.994321256276329 0 0 1 I I #
straight-curve $-1 -71.539048432874523 12.796166449927441 9.0668740078664882 -0.71933979245794832 0 -0.69465837861970381 I I #
edge $-1 $520 -21.311835011397491 $318 -12.796166449927441 $442 $527 forward 7 unknown #
point $-1 -71.539048432874537 12.796166449927441 12.528665467646873 #
point $-1 -67.954258517637058 12.796166449927441 12.528665467646873 #
edge $-1 $528 1 $528 0 $321 $-1 forward 7 unknown #
vertex $-1 $322 $529 #
ellipse-curve $-1 -68.523671434000477 15.229214610347455 9.5313347895675342 -0.69465837861970381 0 0.71933979245794832 0.71933979245794832 0 0.69465837861970381 1 I I #
point $-1 -69.027313682797868 15.229214610347455 11.492428116376395 #
edge $-1 $530 1 $530 0 $325 $-1 forward 7 unknown #
vertex $-1 $326 $531 #
ellipse-curve $-1 -68.523671434000477 18.878786850977477 9.5313347895675342 -0.69465837861970381 0 0.71933979245794832 0.71933979245794832 0 0.69465837861970381 1 I I #
point $-1 -69.027313682797868 18.878786850977477 11.492428116376395 #
plane-surface $-1 71.539048432874537 0 0 -1 0 0 0 0 1 forward_v I I I I #
coedge $-1 $334 $332 $336 $463 reversed $221 $-1 #
edge $-1 $347 -12.528665467646873 $465 12.528665467646873 $346 $532 forward 7 unknown #
vertex $-1 $463 $533 #
straight-curve $-1 -71.539048432874537 -30.45021705979017 0 0 0 -1 I I #
edge $-1 $461 -30.45021705979017 $465 30.45021705979017 $459 $534 forward 7 unknown #
straight-curve $-1 0 -30.45021705979017 -12.528665467646873 -1 0 0 I I #
vertex $-1 $339 $535 #
straight-curve $-1 0 30.45021705979017 -12.528665467646873 1 0 0 I I #
point $-1 71.539048432874537 30.45021705979017 -12.528665467646873 #
point $-1 71.539048432874537 -30.45021705979017 -12.528665467646873 #
straight-curve $-1 -71.539048432874537 0 12.528665467646873 0 -1 0 I I #
point $-1 -71.539048432874537 30.45021705979017 12.528665467646873 #
point $-1 -71.539048432874537 -30.45021705979017 12.528665467646873 #
straight-curve $-1 71.539048432874537 -30.45021705979017 0 0 0 -1 I I #
straight-curve $-1 71.539048432874537 30.45021705979017 0 0 0 -1 I I #
plane-surface $-1 71.539048432874537 0 0 -1 0 0 0 0 1 forward_v I I I I #
coedge $-1 $478 $359 $370 $487 forward $240 $-1 #
coedge $-1 $359 $478 $373 $489 reversed $240 $-1 #
straight-curve $-1 71.539048432874537 -14.556641185288607 -4.910145148243064 0 0 1 I I #
coedge $-1 $476 $475 $362 $479 forward $240 $-1 #
edge $-1 $482 3.304926624018913 $480 19.198502498520476 $478 $536 forward 7 unknown #
vertex $-1 $364 $537 #
straight-curve $-1 0 -30.45021705979017 -11.770651015621842 1 0 0 I I #
vertex $-1 $479 $538 #
straight-curve $-1 0 -14.556641185288607 -11.770651015621842 1 0 0 I I #
point $-1 71.539048432874537 -30.45021705979017 -11.770651015621842 #
point $-1 71.539048432874537 -14.556641185288607 -11.770651015621842 #
straight-curve $-1 -71.539048432874537 -11.251714561269694 -7.8699295773504145 0 1 0 I I #
edge $-1 $371 2.9597844291073505 $482 6.8605058673787784 $475 $539 forward 7 unknown #
point $-1 -71.539048432874537 -14.556641185288607 -7.8699295773504145 #
edge $-1 $375 7.8699295773504145 $480 11.770651015621842 $476 $540 forward 7 unknown #
point $-1 -71.539048432874537 -30.45021705979017 -7.8699295773504145 #
straight-curve $-1 71.539048432874537 -30.45021705979017 0 0 0 -1 I I #
edge $-1 $493 -30.474616159806921 $496 -21.662364900758682 $381 $541 forward 7 unknown #
vertex $-1 $492 $542 #
straight-curve $-1 71.539048432874537 -4.4096406354081292 102.40367479913509 0 0 1 I I #
edge $-1 $496 -0.33192981976605473 $392 9.8150707301144227 $391 $543 forward 7 unknown #
vertex $-1 $495 $544 #
straight-curve $-1 -24.198883963657508 -4.4096406354081292 109.06941720173812 0.66913059716165679 0 -0.74314483375859142 I I #
point $-1 71.539048432874552 -4.4096406354081292 2.7416686919453781 #
point $-1 62.726797173826299 -14.556641185288607 12.528665467646874 #
straight-curve $-1 71.539048432874537 0 12.528665467646873 0 1 0 I I #
vertex $-1 $398 $545 #
point $-1 65.655944016556433 -11.657498171037044 4.9596567253119339 #
vertex $-1 $402 $546 #
point $-1 65.655944016556433 -7.3087836496596985 4.9596567253119339 #
edge $-1 $506 43.465655788629455 $509 46.927447248409855 $407 $547 forward 7 unknown #
vertex $-1 $421 $548 #
straight-curve $-1 -85.464723608814353 -1.191594111141896 12.528665467646874 -1 0 0 I I #
edge $-1 $509 -1.5331200847965647 $418 6.982548476673486 $417 $549 forward 7 unknown #
vertex $-1 $508 $550 #
straight-curve $-1 -71.539048432874523 -1.191594111141896 9.0668740078664882 0.71933979245794832 0 0.69465837861970381 I I #
point $-1 -67.954258517637058 -1.191594111141896 12.528665467646873 #
point $-1 -71.539048432874537 -9.7072626726119466 9.066874007866474 #
straight-curve $-1 -71.539048432874537 0 12.528665467646873 0 -1 0 I I #
vertex $-1 $424 $551 #
point $-1 -67.804331641542532 -7.2742145121919322 10.225993168187237 #
vertex $-1 $428 $552 #
point $-1 -67.804331641542532 -3.6246422715619104 10.225993168187237 #
coedge $-1 $443 $442 $435 $519 forward $432 $-1 #
edge $-1 $520 43.465655788629455 $523 46.927447248409855 $518 $553 forward 7 unknown #
vertex $-1 $447 $554 #
straight-curve $-1 -85.464723608814353 21.311835011397491 12.528665467646874 -1 0 0 I I #
edge $-1 $523 -12.784834646066258 $444 -4.2691660845962076 $443 $555 forward 7 unknown #
vertex $-1 $522 $556 #
straight-curve $-1 -71.539048432874523 21.311835011397491 9.0668740078664882 0.71933979245794832 0 0.69465837861970381 I I #
point $-1 -67.954258517637058 21.311835011397491 12.528665467646873 #
point $-1 -71.539048432874537 12.796166449927441 9.066874007866474 #
straight-curve $-1 -71.539048432874537 0 12.528665467646873 0 -1 0 I I #
vertex $-1 $450 $557 #
point $-1 -67.804331641542532 15.229214610347455 10.225993168187237 #
vertex $-1 $454 $558 #
point $-1 -67.804331641542532 18.878786850977477 10.225993168187237 #
straight-curve $-1 -71.539048432874537 30.45021705979017 0 0 0 -1 I I #
point $-1 -71.539048432874537 -30.45021705979017 -12.528665467646873 #
straight-curve $-1 -71.539048432874537 0 -12.528665467646873 0 1 0 I I #
point $-1 -71.539048432874537 30.45021705979017 -12.528665467646873 #
straight-curve $-1 -71.539048432874537 -11.251714561269694 -11.770651015621842 0 -1 0 I I #
point $-1 -71.539048432874537 -30.45021705979017 -11.770651015621842 #
point $-1 -71.539048432874537 -14.556641185288607 -11.770651015621842 #
straight-curve $-1 -71.539048432874537 -14.556641185288607 -4.910145148243064 0 0 -1 I I #
straight-curve $-1 -71.539048432874537 -30.45021705979017 0 0 0 -1 I I #
straight-curve $-1 41.064432273067617 -4.4096406354081292 12.528665467646874 -1 0 0 I I #
point $-1 71.539048432874537 -4.4096406354081292 12.528665467646873 #
straight-curve $-1 62.726797173826291 -4.741570455174184 12.528665467646874 0 -1 0 I I #
point $-1 62.726797173826299 -4.4096406354081292 12.528665467646874 #
point $-1 64.243668585636186 -11.657498171037044 5.0336709619088689 #
point $-1 64.243668585636186 -7.3087836496596985 5.0336709619088689 #
straight-curve $-1 -71.539048432874537 -1.191594111141896 55.994321256276329 0 0 -1 I I #
point $-1 -71.539048432874537 -1.191594111141896 12.528665467646873 #
straight-curve $-1 -71.539048432874537 -2.7247141959384606 9.0668740078664651 0 -1 0 I I #
point $-1 -71.539048432874537 -1.191594111141896 9.066874007866474 #
point $-1 -67.829013055380784 -7.2742145121919322 8.8119949971095863 #
point $-1 -67.829013055380784 -3.6246422715619104 8.8119949971095863 #
straight-curve $-1 -71.539048432874537 21.311835011397491 55.994321256276329 0 0 -1 I I #
point $-1 -71.539048432874537 21.311835011397491 12.528665467646873 #
straight-curve $-1 -71.539048432874537 8.527000365331233 9.0668740078664651 0 -1 0 I I #
point $-1 -71.539048432874537 21.311835011397491 9.066874007866474 #
point $-1 -67.829013055380784 15.229214610347455 8.8119949971095863 #
point $-1 -67.829013055380784 18.878786850977477 8.8119949971095863 #
End-of-ACIS-data 