500 0 10 0           
7 Unknown 11 ACIS 5.0 NT 24 Thu Mar 25 20:51:17 1999 
-1 9.9999999999999995e-007 1e-010 
body $-1 $10 $-1 $11 #
body $-1 $12 $-1 $13 #
body $-1 $14 $-1 $15 #
body $-1 $16 $-1 $17 #
body $-1 $18 $-1 $19 #
body $-1 $20 $-1 $21 #
body $-1 $22 $-1 $23 #
body $-1 $24 $-1 $25 #
body $-1 $26 $-1 $27 #
body $-1 $28 $-1 $29 #
lump $-1 $-1 $30 $0 #
transform $-1 1 0 0 0 1 0 0 0 1 72.795190282906589 45.192912330394208 12.661932177165564 1 rotate no_reflect no_shear #
lump $-1 $-1 $31 $1 #
transform $-1 1 0 0 0 1 0 0 0 1 72.795190282906589 45.192912330394208 12.661932177165564 1 rotate no_reflect no_shear #
lump $-1 $-1 $32 $2 #
transform $-1 1 0 0 0 1 0 0 0 1 72.795190282906589 45.192912330394208 12.661932177165564 1 rotate no_reflect no_shear #
lump $-1 $-1 $33 $3 #
transform $-1 1 0 0 0 1 0 0 0 1 72.795190282906589 45.192912330394208 12.661932177165564 1 rotate no_reflect no_shear #
lump $-1 $-1 $34 $4 #
transform $-1 1 0 0 0 1 0 0 0 1 72.795190282906589 45.192912330394208 12.661932177165564 1 rotate no_reflect no_shear #
lump $-1 $-1 $35 $5 #
transform $-1 1 0 0 0 1 0 0 0 1 72.795190282906589 45.192912330394208 12.661932177165564 1 rotate no_reflect no_shear #
lump $-1 $-1 $36 $6 #
transform $-1 1 0 0 0 1 0 0 0 1 72.795190282906589 45.192912330394208 12.661932177165564 1 rotate no_reflect no_shear #
lump $-1 $-1 $37 $7 #
transform $-1 1 0 0 0 1 0 0 0 1 72.795190282906589 45.192912330394208 12.661932177165564 1 rotate no_reflect no_shear #
lump $-1 $-1 $38 $8 #
transform $-1 1 0 0 0 1 0 0 0 1 72.795190282906589 45.192912330394208 12.661932177165564 1 rotate no_reflect no_shear #
lump $-1 $-1 $39 $9 #
transform $-1 1 0 0 0 1 0 0 0 1 72.795190282906589 45.192912330394208 12.661932177165564 1 rotate no_reflect no_shear #
shell $-1 $-1 $-1 $40 $-1 $10 #
shell $-1 $-1 $-1 $41 $-1 $12 #
shell $-1 $-1 $-1 $42 $-1 $14 #
shell $-1 $-1 $-1 $43 $-1 $16 #
shell $-1 $-1 $-1 $44 $-1 $18 #
shell $-1 $-1 $-1 $45 $-1 $20 #
shell $-1 $-1 $-1 $46 $-1 $22 #
shell $-1 $-1 $-1 $47 $-1 $24 #
shell $-1 $-1 $-1 $48 $-1 $26 #
shell $-1 $-1 $-1 $49 $-1 $28 #
face $-1 $50 $51 $30 $-1 $52 forward single #
face $-1 $53 $54 $31 $-1 $55 reversed single #
face $-1 $56 $57 $32 $-1 $58 reversed single #
face $-1 $59 $60 $33 $-1 $61 forward single #
face $-1 $62 $63 $34 $-1 $64 reversed single #
face $-1 $65 $66 $35 $-1 $67 forward single #
face $-1 $68 $69 $36 $-1 $70 reversed single #
face $-1 $71 $72 $37 $-1 $73 forward single #
face $-1 $74 $75 $38 $-1 $76 reversed single #
face $-1 $77 $78 $39 $-1 $79 forward single #
face $-1 $80 $81 $30 $-1 $82 reversed single #
loop $-1 $-1 $83 $40 #
plane-surface $-1 0 0 12.661932177165564 0 0 1 1 0 0 forward_v I I I I #
face $-1 $84 $85 $31 $-1 $86 reversed single #
loop $-1 $-1 $87 $41 #
plane-surface $-1 -65.784412873075084 0 8.0938678124344339 0 0 1 1 0 0 forward_v I I I I #
face $-1 $88 $89 $32 $-1 $90 reversed single #
loop $-1 $-1 $91 $42 #
plane-surface $-1 -46.641955392172861 51.672776787416595 171.97103588043899 1 0 0 0 -0.55919291073839883 -0.82903756765294845 forward_v I I I I #
face $-1 $92 $93 $33 $-1 $94 forward single #
loop $-1 $95 $96 $43 #
cone-surface $-1 -36.261692209439452 32.616015796492569 1.1642469985744066 0 -0.55919291073839883 -0.82903756765294845 5 0 0 1 I I 0 1 5 forward I I I I #
face $-1 $97 $98 $34 $-1 $99 reversed single #
loop $-1 $-1 $100 $44 #
plane-surface $-1 -13.749748955635319 51.672776787416595 171.97103588043899 1 0 0 0 -0.55919291073839883 -0.82903756765294845 forward_v I I I I #
face $-1 $101 $102 $35 $-1 $103 forward single #
loop $-1 $104 $105 $45 #
cone-surface $-1 -3.3694857729019105 32.616015796492569 1.1642469985744066 0 -0.55919291073839883 -0.82903756765294845 5 0 0 1 I I 0 1 5 forward I I I I #
face $-1 $106 $107 $36 $-1 $108 reversed single #
loop $-1 $-1 $109 $46 #
plane-surface $-1 19.142457480902216 51.672776787416595 171.97103588043899 1 0 0 0 -0.55919291073839883 -0.82903756765294845 forward_v I I I I #
face $-1 $110 $111 $37 $-1 $112 forward single #
loop $-1 $113 $114 $47 #
cone-surface $-1 29.522720663635624 32.616015796492569 1.1642469985744066 0 -0.55919291073839883 -0.82903756765294845 5 0 0 1 I I 0 1 5 forward I I I I #
face $-1 $115 $116 $38 $-1 $117 reversed single #
loop $-1 $-1 $118 $48 #
plane-surface $-1 52.034663917439765 51.672776787416595 171.97103588043899 1 0 0 0 -0.55919291073839883 -0.82903756765294845 forward_v I I I I #
face $-1 $119 $120 $39 $-1 $121 forward single #
loop $-1 $122 $123 $49 #
cone-surface $-1 62.414927100173173 32.616015796492569 1.1642469985744066 0 -0.55919291073839883 -0.82903756765294845 5 0 0 1 I I 0 1 5 forward I I I I #
face $-1 $124 $125 $30 $-1 $126 reversed single #
loop $-1 $-1 $127 $50 #
plane-surface $-1 0 0 -12.661932177165564 0 0 1 1 0 0 forward_v I I I I #
coedge $-1 $128 $129 $130 $131 forward $51 $-1 #
face $-1 $132 $133 $31 $-1 $134 reversed single #
loop $-1 $-1 $135 $53 #
plane-surface $-1 -58.773635463243586 0 10.3778999948 -1 0 0 0 0 1 forward_v I I I I #
coedge $-1 $136 $137 $138 $139 forward $54 $-1 #
face $-1 $140 $141 $32 $-1 $142 reversed single #
loop $-1 $-1 $143 $56 #
plane-surface $-1 -36.261692209439452 -29.740331896691686 51.271140902490131 0 0.55919291073839883 0.82903756765294845 1 0 0 forward_v I I I I #
coedge $-1 $144 $145 $146 $147 reversed $57 $-1 #
face $-1 $-1 $148 $33 $-1 $149 forward single #
loop $-1 $150 $151 $59 #
cone-surface $-1 -36.261692209439452 27.487506699823669 -6.4390802710329957 0 -0.55919291073839883 -0.82903756765294845 2.5 0 0 1 I I -0.70710678118654746 0.70710678118654746 2.5 forward I I I I #
loop $-1 $-1 $152 $43 #
coedge $-1 $96 $96 $153 $154 reversed $60 $-1 #
face $-1 $155 $156 $34 $-1 $157 reversed single #
loop $-1 $-1 $158 $62 #
plane-surface $-1 -3.3694857729019105 -29.740331896691686 51.271140902490131 0 0.55919291073839883 0.82903756765294845 1 0 0 forward_v I I I I #
coedge $-1 $159 $160 $161 $162 reversed $63 $-1 #
face $-1 $-1 $163 $35 $-1 $164 forward single #
loop $-1 $165 $166 $65 #
cone-surface $-1 -3.3694857729019105 27.487506699823669 -6.4390802710329957 0 -0.55919291073839883 -0.82903756765294845 2.5 0 0 1 I I -0.70710678118654746 0.70710678118654746 2.5 forward I I I I #
loop $-1 $-1 $167 $45 #
coedge $-1 $105 $105 $168 $169 reversed $66 $-1 #
face $-1 $170 $171 $36 $-1 $172 reversed single #
loop $-1 $-1 $173 $68 #
plane-surface $-1 29.522720663635624 -29.740331896691686 51.271140902490131 0 0.55919291073839883 0.82903756765294845 1 0 0 forward_v I I I I #
coedge $-1 $174 $175 $176 $177 reversed $69 $-1 #
face $-1 $-1 $178 $37 $-1 $179 forward single #
loop $-1 $180 $181 $71 #
cone-surface $-1 29.522720663635624 27.487506699823669 -6.4390802710329957 0 -0.55919291073839883 -0.82903756765294845 2.5 0 0 1 I I -0.70710678118654746 0.70710678118654746 2.5 forward I I I I #
loop $-1 $-1 $182 $47 #
coedge $-1 $114 $114 $183 $184 reversed $72 $-1 #
face $-1 $185 $186 $38 $-1 $187 forward single #
loop $-1 $-1 $188 $74 #
plane-surface $-1 62.414927100173173 -29.740331896691686 51.271140902490131 0 0.55919291073839883 0.82903756765294845 1 0 0 forward_v I I I I #
coedge $-1 $189 $190 $191 $192 reversed $75 $-1 #
face $-1 $-1 $193 $39 $-1 $194 forward single #
loop $-1 $195 $196 $77 #
cone-surface $-1 62.414927100173173 27.487506699823669 -6.4390802710329957 0 -0.55919291073839883 -0.82903756765294845 2.5 0 0 1 I I -0.70710678118654746 0.70710678118654746 2.5 forward I I I I #
loop $-1 $-1 $197 $49 #
coedge $-1 $123 $123 $198 $199 reversed $78 $-1 #
face $-1 $200 $201 $30 $-1 $202 reversed single #
loop $-1 $-1 $203 $80 #
plane-surface $-1 0 -45.192912330394208 0 0 1 0 0 0 1 forward_v I I I I #
coedge $-1 $204 $205 $206 $207 forward $81 $-1 #
coedge $-1 $208 $83 $209 $210 forward $51 $-1 #
coedge $-1 $83 $208 $211 $212 forward $51 $-1 #
coedge $-1 $213 $214 $83 $131 reversed $215 $-1 #
edge $-1 $216 -45.192912330394208 $217 45.192912330394208 $130 $218 forward 7 unknown #
face $-1 $219 $220 $31 $-1 $221 reversed single #
loop $-1 $-1 $222 $84 #
plane-surface $-1 0 45.192912330394208 0 0 -1 0 0 0 -1 forward_v I I I I #
coedge $-1 $138 $223 $224 $225 reversed $85 $-1 #
coedge $-1 $226 $87 $227 $228 reversed $54 $-1 #
coedge $-1 $87 $226 $229 $230 reversed $54 $-1 #
coedge $-1 $231 $135 $87 $139 reversed $85 $-1 #
edge $-1 $232 -45.192912330394208 $233 45.192912330394208 $138 $234 forward 7 unknown #
face $-1 $235 $236 $32 $-1 $237 forward single #
loop $-1 $-1 $238 $88 #
plane-surface $-1 -25.881429026706044 51.672776787416595 171.97103588043899 -1 0 0 0 0.55919291073839883 0.82903756765294845 forward_v I I I I #
coedge $-1 $239 $240 $241 $242 reversed $89 $-1 #
coedge $-1 $145 $91 $243 $244 reversed $57 $-1 #
coedge $-1 $91 $144 $239 $245 reversed $57 $-1 #
coedge $-1 $241 $246 $91 $147 forward $236 $-1 #
edge $-1 $247 -19.35652393668591 $248 -1.663784508528444 $146 $249 forward 7 unknown #
loop $-1 $-1 $153 $92 #
plane-surface $-1 -36.261692209439452 -29.740331896691686 51.271140902490131 0 0.55919291073839883 0.82903756765294845 1 0 0 forward_v I I I I #
loop $-1 $-1 $250 $59 #
coedge $-1 $151 $151 $152 $251 reversed $93 $-1 #
coedge $-1 $152 $152 $151 $251 forward $95 $-1 #
coedge $-1 $153 $153 $96 $154 forward $148 $-1 #
edge $-1 $252 1.986652303068577e-016 $252 6.2831853071796004 $153 $253 forward 7 unknown #
face $-1 $254 $255 $34 $-1 $256 forward single #
loop $-1 $-1 $257 $97 #
plane-surface $-1 7.0107774098314977 51.672776787416595 171.97103588043899 -1 0 0 0 0.55919291073839883 0.82903756765294845 forward_v I I I I #
coedge $-1 $258 $259 $260 $261 reversed $98 $-1 #
coedge $-1 $160 $100 $262 $263 reversed $63 $-1 #
coedge $-1 $100 $159 $258 $264 reversed $63 $-1 #
coedge $-1 $260 $265 $100 $162 forward $255 $-1 #
edge $-1 $266 -19.35652393668591 $267 -1.663784508528444 $161 $268 forward 7 unknown #
loop $-1 $-1 $168 $101 #
plane-surface $-1 -3.3694857729019105 -29.740331896691686 51.271140902490131 0 0.55919291073839883 0.82903756765294845 1 0 0 forward_v I I I I #
loop $-1 $-1 $269 $65 #
coedge $-1 $166 $166 $167 $270 reversed $102 $-1 #
coedge $-1 $167 $167 $166 $270 forward $104 $-1 #
coedge $-1 $168 $168 $105 $169 forward $163 $-1 #
edge $-1 $271 1.986652303068577e-016 $271 6.2831853071796004 $168 $272 forward 7 unknown #
face $-1 $273 $274 $36 $-1 $275 forward single #
loop $-1 $-1 $276 $106 #
plane-surface $-1 39.902983846369033 51.672776787416595 171.97103588043899 -1 0 0 0 0.55919291073839883 0.82903756765294845 forward_v I I I I #
coedge $-1 $277 $278 $279 $280 reversed $107 $-1 #
coedge $-1 $175 $109 $281 $282 reversed $69 $-1 #
coedge $-1 $109 $174 $277 $283 reversed $69 $-1 #
coedge $-1 $279 $284 $109 $177 forward $274 $-1 #
edge $-1 $285 -19.35652393668591 $286 -1.663784508528444 $176 $287 forward 7 unknown #
loop $-1 $-1 $183 $110 #
plane-surface $-1 29.522720663635624 -29.740331896691686 51.271140902490131 0 0.55919291073839883 0.82903756765294845 1 0 0 forward_v I I I I #
loop $-1 $-1 $288 $71 #
coedge $-1 $181 $181 $182 $289 reversed $111 $-1 #
coedge $-1 $182 $182 $181 $289 forward $113 $-1 #
coedge $-1 $183 $183 $114 $184 forward $178 $-1 #
edge $-1 $290 1.986652303068577e-016 $290 6.2831853071796004 $183 $291 forward 7 unknown #
face $-1 $292 $293 $38 $-1 $294 reversed single #
loop $-1 $-1 $191 $115 #
plane-surface $-1 0 0 12.661932177165564 0 0 1 1 0 0 forward_v I I I I #
coedge $-1 $295 $296 $297 $298 reversed $116 $-1 #
coedge $-1 $190 $118 $299 $300 reversed $75 $-1 #
coedge $-1 $118 $189 $295 $301 reversed $75 $-1 #
coedge $-1 $297 $302 $118 $192 forward $186 $-1 #
edge $-1 $303 -19.35652393668591 $304 -1.663784508528444 $191 $305 forward 7 unknown #
loop $-1 $-1 $198 $119 #
plane-surface $-1 62.414927100173173 -29.740331896691686 51.271140902490131 0 0.55919291073839883 0.82903756765294845 1 0 0 forward_v I I I I #
loop $-1 $-1 $306 $77 #
coedge $-1 $196 $196 $197 $307 reversed $120 $-1 #
coedge $-1 $197 $197 $196 $307 forward $122 $-1 #
coedge $-1 $198 $198 $123 $199 forward $193 $-1 #
edge $-1 $308 1.986652303068577e-016 $308 6.2831853071796004 $198 $309 forward 7 unknown #
face $-1 $310 $311 $30 $-1 $312 reversed single #
loop $-1 $-1 $313 $124 #
plane-surface $-1 -72.795190282906589 0 0 1 0 0 0 0 -1 forward_v I I I I #
coedge $-1 $314 $211 $315 $316 forward $125 $-1 #
coedge $-1 $317 $127 $314 $318 forward $81 $-1 #
coedge $-1 $127 $317 $319 $320 forward $81 $-1 #
coedge $-1 $214 $213 $127 $207 reversed $215 $-1 #
edge $-1 $321 -45.192912330394208 $322 45.192912330394208 $206 $323 forward 7 unknown #
coedge $-1 $129 $128 $324 $325 forward $51 $-1 #
coedge $-1 $326 $327 $128 $210 reversed $311 $-1 #
edge $-1 $217 -72.795190282906589 $328 72.795190282906589 $209 $329 forward 7 unknown #
coedge $-1 $203 $330 $129 $212 reversed $125 $-1 #
edge $-1 $331 -72.795190282906589 $216 72.795190282906589 $211 $332 forward 7 unknown #
coedge $-1 $206 $130 $330 $333 forward $215 $-1 #
coedge $-1 $130 $206 $326 $334 reversed $215 $-1 #
loop $-1 $-1 $213 $310 #
vertex $-1 $131 $335 #
vertex $-1 $131 $336 #
straight-curve $-1 72.795190282906589 0 12.661932177165564 0 1 0 I I #
face $-1 $337 $338 $31 $-1 $339 forward single #
loop $-1 $-1 $340 $132 #
plane-surface $-1 -72.795190282906589 0 0 1 0 0 0 0 -1 forward_v I I I I #
coedge $-1 $229 $341 $231 $342 forward $133 $-1 #
coedge $-1 $135 $231 $343 $344 reversed $85 $-1 #
coedge $-1 $345 $227 $135 $225 forward $346 $-1 #
edge $-1 $233 2.9049178150344339 $347 7.472982179765566 $224 $348 forward 7 unknown #
coedge $-1 $137 $136 $340 $349 reversed $54 $-1 #
coedge $-1 $224 $350 $136 $228 forward $346 $-1 #
edge $-1 $351 -39.902983846369047 $233 -25.881429026706044 $227 $352 forward 7 unknown #
coedge $-1 $353 $222 $137 $230 forward $133 $-1 #
edge $-1 $232 25.881429026706044 $354 39.902983846369047 $229 $355 forward 7 unknown #
coedge $-1 $223 $138 $222 $342 reversed $85 $-1 #
vertex $-1 $230 $356 #
vertex $-1 $228 $357 #
straight-curve $-1 -58.773635463243586 0 8.0938678124344339 0 -1 0 I I #
face $-1 $-1 $358 $32 $-1 $359 reversed single #
loop $-1 $-1 $146 $140 #
plane-surface $-1 0 0 12.661932177165564 0 0 1 1 0 0 forward_v I I I I #
coedge $-1 $360 $361 $362 $363 reversed $141 $-1 #
coedge $-1 $364 $143 $145 $245 forward $89 $-1 #
coedge $-1 $143 $364 $360 $365 forward $89 $-1 #
coedge $-1 $362 $146 $143 $242 forward $236 $-1 #
edge $-1 $248 -28.511109287453134 $366 -7.750582921986318 $241 $367 forward 7 unknown #
coedge $-1 $368 $369 $144 $244 forward $358 $-1 #
edge $-1 $370 -85.257489419286173 $247 -73.323585763053927 $243 $371 forward 7 unknown #
edge $-1 $248 69.044524678151177 $370 90.385824660788387 $145 $372 forward 7 unknown #
coedge $-1 $146 $362 $368 $373 forward $236 $-1 #
vertex $-1 $244 $374 #
vertex $-1 $147 $375 #
straight-curve $-1 -46.641955392172861 25.836388393708297 12.661932177165568 0 -1 0 I I #
coedge $-1 $250 $250 $-1 $376 reversed $150 $-1 #
edge $-1 $377 0 $377 6.2831853071796004 $151 $378 forward 7 unknown #
vertex $-1 $154 $379 #
ellipse-curve $-1 -36.261692209439452 36.346542616315475 6.6949803490494411 0 0.55919291073839883 0.82903756765294845 5 0 0 1 I I #
face $-1 $-1 $380 $34 $-1 $381 reversed single #
loop $-1 $-1 $161 $155 #
plane-surface $-1 0 0 12.661932177165564 0 0 1 1 0 0 forward_v I I I I #
coedge $-1 $382 $383 $384 $385 reversed $156 $-1 #
coedge $-1 $386 $158 $160 $264 forward $98 $-1 #
coedge $-1 $158 $386 $382 $387 forward $98 $-1 #
coedge $-1 $384 $161 $158 $261 forward $255 $-1 #
edge $-1 $267 -12.065006069184363 $388 8.6955202962824529 $260 $389 forward 7 unknown #
coedge $-1 $390 $391 $159 $263 forward $380 $-1 #
edge $-1 $392 -85.257489419286173 $266 -73.323585763053927 $262 $393 forward 7 unknown #
edge $-1 $267 69.044524678151177 $392 90.385824660788387 $160 $394 forward 7 unknown #
coedge $-1 $161 $384 $390 $395 forward $255 $-1 #
vertex $-1 $162 $396 #
vertex $-1 $162 $397 #
straight-curve $-1 -13.749748955635319 25.836388393708297 12.661932177165568 0 -1 0 I I #
coedge $-1 $269 $269 $-1 $398 reversed $165 $-1 #
edge $-1 $399 0 $399 6.2831853071796004 $166 $400 forward 7 unknown #
vertex $-1 $169 $401 #
ellipse-curve $-1 -3.3694857729019105 36.346542616315475 6.6949803490494411 0 0.55919291073839883 0.82903756765294845 5 0 0 1 I I #
face $-1 $-1 $402 $36 $-1 $403 reversed single #
loop $-1 $-1 $176 $170 #
plane-surface $-1 0 0 12.661932177165564 0 0 1 1 0 0 forward_v I I I I #
coedge $-1 $404 $405 $406 $407 reversed $171 $-1 #
coedge $-1 $408 $173 $175 $283 forward $107 $-1 #
coedge $-1 $173 $408 $404 $409 forward $107 $-1 #
coedge $-1 $406 $176 $173 $280 forward $274 $-1 #
edge $-1 $286 4.381097149084404 $410 25.14162351455122 $279 $411 forward 7 unknown #
coedge $-1 $412 $413 $174 $282 forward $402 $-1 #
edge $-1 $414 -85.257489419286173 $285 -73.323585763053927 $281 $415 forward 7 unknown #
edge $-1 $286 69.044524678151177 $414 90.385824660788387 $175 $416 forward 7 unknown #
coedge $-1 $176 $406 $412 $417 forward $274 $-1 #
vertex $-1 $177 $418 #
vertex $-1 $177 $419 #
straight-curve $-1 19.142457480902216 25.836388393708297 12.661932177165568 0 -1 0 I I #
coedge $-1 $288 $288 $-1 $420 reversed $180 $-1 #
edge $-1 $421 0 $421 6.2831853071796004 $181 $422 forward 7 unknown #
vertex $-1 $184 $423 #
ellipse-curve $-1 29.522720663635624 36.346542616315475 6.6949803490494411 0 0.55919291073839883 0.82903756765294845 5 0 0 1 I I #
face $-1 $-1 $424 $38 $-1 $425 reversed single #
loop $-1 $-1 $426 $185 #
plane-surface $-1 72.795190282906589 0 0 -1 0 0 0 0 1 forward_v I I I I #
coedge $-1 $427 $188 $190 $301 forward $116 $-1 #
coedge $-1 $188 $427 $426 $428 reversed $116 $-1 #
coedge $-1 $429 $191 $188 $298 forward $186 $-1 #
edge $-1 $304 20.827200367353178 $430 41.587726732820002 $297 $431 forward 7 unknown #
coedge $-1 $432 $433 $189 $300 forward $424 $-1 #
edge $-1 $434 -85.257489419286173 $303 -73.323585763053927 $299 $435 forward 7 unknown #
edge $-1 $304 69.044524678151177 $434 90.385824660788387 $190 $436 forward 7 unknown #
coedge $-1 $191 $429 $432 $437 forward $186 $-1 #
vertex $-1 $300 $438 #
vertex $-1 $192 $439 #
straight-curve $-1 52.034663917439765 25.836388393708297 12.661932177165568 0 -1 0 I I #
coedge $-1 $306 $306 $-1 $440 reversed $195 $-1 #
edge $-1 $441 0 $441 6.2831853071796004 $196 $442 forward 7 unknown #
vertex $-1 $199 $443 #
ellipse-curve $-1 62.414927100173173 36.346542616315475 6.6949803490494411 0 0.55919291073839883 0.82903756765294845 5 0 0 1 I I #
face $-1 $-1 $215 $30 $-1 $444 reversed single #
loop $-1 $-1 $326 $200 #
plane-surface $-1 0 45.192912330394208 0 0 -1 0 0 0 -1 forward_v I I I I #
coedge $-1 $445 $324 $327 $446 forward $201 $-1 #
coedge $-1 $330 $203 $204 $318 reversed $125 $-1 #
coedge $-1 $324 $445 $203 $316 reversed $201 $-1 #
edge $-1 $331 -12.661932177165564 $447 12.661932177165564 $315 $448 forward 7 unknown #
coedge $-1 $205 $204 $445 $449 forward $81 $-1 #
edge $-1 $322 -72.795190282906589 $447 72.795190282906589 $314 $450 forward 7 unknown #
coedge $-1 $327 $326 $205 $320 reversed $311 $-1 #
edge $-1 $451 -72.795190282906589 $321 72.795190282906589 $319 $452 forward 7 unknown #
vertex $-1 $207 $453 #
vertex $-1 $333 $454 #
straight-curve $-1 72.795190282906589 0 -12.661932177165564 0 -1 0 I I #
coedge $-1 $313 $315 $208 $325 reversed $201 $-1 #
edge $-1 $328 -45.192912330394208 $331 45.192912330394208 $324 $455 forward 7 unknown #
coedge $-1 $319 $209 $214 $334 forward $311 $-1 #
coedge $-1 $209 $319 $313 $446 reversed $311 $-1 #
vertex $-1 $210 $456 #
straight-curve $-1 0 45.192912330394208 12.661932177165564 -1 0 0 I I #
coedge $-1 $211 $314 $213 $333 reversed $125 $-1 #
vertex $-1 $325 $457 #
straight-curve $-1 0 -45.192912330394208 12.661932177165564 1 0 0 I I #
edge $-1 $216 -12.661932177165564 $322 12.661932177165564 $213 $458 forward 7 unknown #
edge $-1 $217 -12.661932177165564 $321 12.661932177165564 $214 $459 forward 7 unknown #
point $-1 72.795190282906589 -45.192912330394208 12.661932177165564 #
point $-1 72.795190282906589 45.192912330394208 12.661932177165564 #
face $-1 $-1 $346 $31 $-1 $460 reversed single #
loop $-1 $-1 $343 $219 #
plane-surface $-1 0 0 12.661932177165564 0 0 1 1 0 0 forward_v I I I I #
coedge $-1 $461 $462 $226 $349 forward $220 $-1 #
coedge $-1 $222 $353 $463 $464 reversed $133 $-1 #
edge $-1 $465 -7.472982179765566 $232 -2.9049178150344339 $222 $466 forward 7 unknown #
coedge $-1 $463 $467 $223 $344 forward $338 $-1 #
edge $-1 $347 -45.192912330394208 $465 45.192912330394208 $343 $468 forward 7 unknown #
coedge $-1 $350 $224 $467 $469 reversed $346 $-1 #
loop $-1 $-1 $224 $337 #
vertex $-1 $225 $470 #
straight-curve $-1 -58.773635463243586 -45.192912330394208 5.1889499974 0 0 1 I I #
edge $-1 $354 -45.192912330394208 $351 45.192912330394208 $340 $471 forward 7 unknown #
coedge $-1 $227 $345 $461 $472 forward $346 $-1 #
vertex $-1 $349 $473 #
straight-curve $-1 -32.892206436537542 -45.192912330394208 8.0938678124344339 1 0 0 I I #
coedge $-1 $341 $229 $462 $474 reversed $133 $-1 #
vertex $-1 $349 $475 #
straight-curve $-1 -32.892206436537542 45.192912330394208 8.0938678124344339 -1 0 0 I I #
point $-1 -58.773635463243586 45.192912330394208 8.0938678124344339 #
point $-1 -58.773635463243586 -45.192912330394208 8.0938678124344339 #
loop $-1 $-1 $243 $235 #
plane-surface $-1 0 45.192912330394208 0 0 -1 0 0 0 -1 forward_v I I I I #
coedge $-1 $361 $238 $240 $365 reversed $141 $-1 #
coedge $-1 $238 $360 $476 $477 reversed $141 $-1 #
coedge $-1 $246 $241 $238 $363 forward $236 $-1 #
edge $-1 $366 1.663784508528444 $478 19.35652393668591 $362 $479 forward 7 unknown #
coedge $-1 $240 $239 $369 $480 reversed $89 $-1 #
edge $-1 $481 -90.385824660788387 $366 -69.044524678151177 $360 $482 forward 7 unknown #
vertex $-1 $242 $483 #
straight-curve $-1 -18.130846104719726 27.500172902236745 12.661932177165561 1 0 0 I I #
coedge $-1 $476 $243 $246 $373 reversed $358 $-1 #
coedge $-1 $243 $476 $364 $480 forward $358 $-1 #
vertex $-1 $244 $484 #
straight-curve $-1 -46.641955392172861 45.192912330394208 85.985517940219495 0 0 1 I I #
straight-curve $-1 -46.641955392172861 -29.740331896691686 51.271140902490131 0 0.82903756765294845 -0.55919291073839883 I I #
edge $-1 $478 25.881429026706044 $247 46.641955392172861 $368 $485 forward 7 unknown #
point $-1 -46.641955392172861 45.192912330394208 12.661932177165564 #
point $-1 -46.641955392172861 27.500172902236741 12.661932177165568 #
edge $-1 $486 1 $486 0 $250 $-1 forward 7 unknown #
vertex $-1 $251 $487 #
ellipse-curve $-1 -36.261692209439452 28.885488976669667 -4.3664863519006243 0 0.55919291073839883 0.82903756765294845 5 0 0 1 I I #
point $-1 -31.261692209439452 36.346542616315475 6.6949803490494393 #
loop $-1 $-1 $262 $254 #
plane-surface $-1 0 45.192912330394208 0 0 -1 0 0 0 -1 forward_v I I I I #
coedge $-1 $383 $257 $259 $387 reversed $156 $-1 #
coedge $-1 $257 $382 $488 $489 reversed $156 $-1 #
coedge $-1 $265 $260 $257 $385 forward $255 $-1 #
edge $-1 $388 1.663784508528444 $490 19.35652393668591 $384 $491 forward 7 unknown #
coedge $-1 $259 $258 $391 $492 reversed $98 $-1 #
edge $-1 $493 -90.385824660788387 $388 -69.044524678151177 $382 $494 forward 7 unknown #
vertex $-1 $261 $495 #
straight-curve $-1 -1.6847428864509553 27.500172902236745 12.661932177165561 1 0 0 I I #
coedge $-1 $488 $262 $265 $395 reversed $380 $-1 #
coedge $-1 $262 $488 $386 $492 forward $380 $-1 #
vertex $-1 $263 $496 #
straight-curve $-1 -13.749748955635319 45.192912330394208 85.985517940219495 0 0 1 I I #
straight-curve $-1 -13.749748955635319 -29.740331896691686 51.271140902490131 0 0.82903756765294845 -0.55919291073839883 I I #
edge $-1 $490 -7.0107774098314977 $266 13.749748955635319 $390 $497 forward 7 unknown #
point $-1 -13.749748955635319 45.192912330394208 12.661932177165564 #
point $-1 -13.749748955635319 27.500172902236741 12.661932177165568 #
edge $-1 $498 1 $498 0 $269 $-1 forward 7 unknown #
vertex $-1 $270 $499 #
ellipse-curve $-1 -3.3694857729019105 28.885488976669667 -4.3664863519006243 0 0.55919291073839883 0.82903756765294845 5 0 0 1 I I #
point $-1 1.6305142270980895 36.346542616315475 6.6949803490494393 #
loop $-1 $-1 $281 $273 #
plane-surface $-1 0 45.192912330394208 0 0 -1 0 0 0 -1 forward_v I I I I #
coedge $-1 $405 $276 $278 $409 reversed $171 $-1 #
coedge $-1 $276 $404 $500 $501 reversed $171 $-1 #
coedge $-1 $284 $279 $276 $407 forward $274 $-1 #
edge $-1 $410 1.663784508528444 $502 19.35652393668591 $406 $503 forward 7 unknown #
coedge $-1 $278 $277 $413 $504 reversed $107 $-1 #
edge $-1 $505 -90.385824660788387 $410 -69.044524678151177 $404 $506 forward 7 unknown #
vertex $-1 $280 $507 #
straight-curve $-1 14.761360331817812 27.500172902236745 12.661932177165561 1 0 0 I I #
coedge $-1 $500 $281 $284 $417 reversed $402 $-1 #
coedge $-1 $281 $500 $408 $504 forward $402 $-1 #
vertex $-1 $282 $508 #
straight-curve $-1 19.142457480902216 45.192912330394208 85.985517940219495 0 0 1 I I #
straight-curve $-1 19.142457480902216 -29.740331896691686 51.271140902490131 0 0.82903756765294845 -0.55919291073839883 I I #
edge $-1 $502 -39.902983846369033 $285 -19.142457480902216 $412 $509 forward 7 unknown #
point $-1 19.142457480902216 45.192912330394208 12.661932177165564 #
point $-1 19.142457480902216 27.500172902236741 12.661932177165568 #
edge $-1 $510 1 $510 0 $288 $-1 forward 7 unknown #
vertex $-1 $289 $511 #
ellipse-curve $-1 29.522720663635624 28.885488976669667 -4.3664863519006243 0 0.55919291073839883 0.82903756765294845 5 0 0 1 I I #
point $-1 34.522720663635624 36.346542616315475 6.6949803490494393 #
loop $-1 $-1 $299 $292 #
plane-surface $-1 0 45.192912330394208 0 0 -1 0 0 0 -1 forward_v I I I I #
coedge $-1 $512 $513 $296 $428 forward $293 $-1 #
coedge $-1 $296 $295 $433 $514 reversed $116 $-1 #
edge $-1 $430 42.38136921066782 $515 63.72266919330503 $426 $516 forward 7 unknown #
coedge $-1 $302 $297 $513 $517 forward $186 $-1 #
vertex $-1 $517 $518 #
straight-curve $-1 31.207463550086587 27.500172902236745 12.661932177165561 1 0 0 I I #
coedge $-1 $519 $299 $302 $437 reversed $424 $-1 #
coedge $-1 $299 $519 $427 $514 forward $424 $-1 #
vertex $-1 $300 $520 #
straight-curve $-1 52.034663917439765 45.192912330394208 85.985517940219495 0 0 1 I I #
straight-curve $-1 52.034663917439765 -29.740331896691686 51.271140902490131 0 0.82903756765294845 -0.55919291073839883 I I #
edge $-1 $521 -72.795190282906589 $303 -52.034663917439765 $432 $522 forward 7 unknown #
point $-1 52.034663917439765 45.192912330394208 12.661932177165564 #
point $-1 52.034663917439765 27.500172902236741 12.661932177165568 #
edge $-1 $523 1 $523 0 $306 $-1 forward 7 unknown #
vertex $-1 $307 $524 #
ellipse-curve $-1 62.414927100173173 28.885488976669667 -4.3664863519006243 0 0.55919291073839883 0.82903756765294845 5 0 0 1 I I #
point $-1 67.414927100173173 36.346542616315475 6.6949803490494393 #
plane-surface $-1 72.795190282906589 0 0 -1 0 0 0 0 1 forward_v I I I I #
coedge $-1 $315 $313 $317 $449 reversed $201 $-1 #
edge $-1 $328 -12.661932177165564 $451 12.661932177165564 $327 $525 forward 7 unknown #
vertex $-1 $449 $526 #
straight-curve $-1 -72.795190282906589 -45.192912330394208 0 0 0 -1 I I #
edge $-1 $447 -45.192912330394208 $451 45.192912330394208 $445 $527 forward 7 unknown #
straight-curve $-1 0 -45.192912330394208 -12.661932177165564 -1 0 0 I I #
vertex $-1 $320 $528 #
straight-curve $-1 0 45.192912330394208 -12.661932177165564 1 0 0 I I #
point $-1 72.795190282906589 45.192912330394208 -12.661932177165564 #
point $-1 72.795190282906589 -45.192912330394208 -12.661932177165564 #
straight-curve $-1 -72.795190282906589 0 12.661932177165564 0 -1 0 I I #
point $-1 -72.795190282906589 45.192912330394208 12.661932177165564 #
point $-1 -72.795190282906589 -45.192912330394208 12.661932177165564 #
straight-curve $-1 72.795190282906589 -45.192912330394208 0 0 0 -1 I I #
straight-curve $-1 72.795190282906589 45.192912330394208 0 0 0 -1 I I #
plane-surface $-1 0 -45.192912330394208 0 0 1 0 0 0 1 forward_v I I I I #
coedge $-1 $529 $340 $350 $472 reversed $220 $-1 #
coedge $-1 $340 $529 $353 $474 forward $220 $-1 #
coedge $-1 $530 $343 $341 $464 forward $338 $-1 #
edge $-1 $465 58.773635463243586 $531 72.795190282906589 $341 $532 forward 7 unknown #
vertex $-1 $464 $533 #
straight-curve $-1 -58.773635463243586 45.192912330394208 5.1889499974 0 0 -1 I I #
coedge $-1 $343 $530 $345 $469 forward $338 $-1 #
straight-curve $-1 -58.773635463243586 0 12.661932177165564 0 1 0 I I #
edge $-1 $534 -72.795190282906589 $347 -58.773635463243586 $345 $535 forward 7 unknown #
point $-1 -58.773635463243586 -45.192912330394208 12.661932177165566 #
straight-curve $-1 -72.795190282906589 0 8.0938678124344339 0 -1 0 I I #
edge $-1 $534 -12.661932177165564 $351 -8.0938678124344339 $461 $536 forward 7 unknown #
point $-1 -72.795190282906589 -45.192912330394208 8.0938678124344339 #
edge $-1 $531 -12.661932177165564 $354 -8.0938678124344339 $353 $537 forward 7 unknown #
point $-1 -72.795190282906589 45.192912330394208 8.0938678124344339 #
coedge $-1 $369 $368 $361 $477 forward $358 $-1 #
edge $-1 $478 73.323585763053927 $481 85.257489419286173 $476 $538 forward 7 unknown #
vertex $-1 $373 $539 #
straight-curve $-1 -25.881429026706044 25.836388393708297 12.661932177165568 0 1 0 I I #
edge $-1 $481 7.750582921986318 $370 28.511109287453134 $369 $540 forward 7 unknown #
vertex $-1 $480 $541 #
straight-curve $-1 -25.881429026706044 -29.740331896691686 51.271140902490131 0 -0.82903756765294845 0.55919291073839883 I I #
point $-1 -25.881429026706044 27.500172902236741 12.661932177165568 #
point $-1 -46.641955392172861 45.192912330394208 0.72802852093332149 #
straight-curve $-1 0 45.192912330394208 12.661932177165564 -1 0 0 I I #
vertex $-1 $376 $542 #
point $-1 -31.261692209439452 28.885488976669667 -4.3664863519006243 #
coedge $-1 $391 $390 $383 $489 forward $380 $-1 #
edge $-1 $490 73.323585763053927 $493 85.257489419286173 $488 $543 forward 7 unknown #
vertex $-1 $395 $544 #
straight-curve $-1 7.0107774098314977 25.836388393708297 12.661932177165568 0 1 0 I I #
edge $-1 $493 -8.6955202962824529 $392 12.065006069184363 $391 $545 forward 7 unknown #
vertex $-1 $492 $546 #
straight-curve $-1 7.0107774098314977 -29.740331896691686 51.271140902490131 0 -0.82903756765294845 0.55919291073839883 I I #
point $-1 7.0107774098314977 27.500172902236741 12.661932177165568 #
point $-1 -13.749748955635319 45.192912330394208 0.72802852093332149 #
straight-curve $-1 0 45.192912330394208 12.661932177165564 -1 0 0 I I #
vertex $-1 $398 $547 #
point $-1 1.6305142270980895 28.885488976669667 -4.3664863519006243 #
coedge $-1 $413 $412 $405 $501 forward $402 $-1 #
edge $-1 $502 73.323585763053927 $505 85.257489419286173 $500 $548 forward 7 unknown #
vertex $-1 $417 $549 #
straight-curve $-1 39.902983846369033 25.836388393708297 12.661932177165568 0 1 0 I I #
edge $-1 $505 -25.14162351455122 $414 -4.381097149084404 $413 $550 forward 7 unknown #
vertex $-1 $504 $551 #
straight-curve $-1 39.902983846369033 -29.740331896691686 51.271140902490131 0 -0.82903756765294845 0.55919291073839883 I I #
point $-1 39.902983846369033 27.500172902236741 12.661932177165568 #
point $-1 19.142457480902216 45.192912330394208 0.72802852093332149 #
straight-curve $-1 0 45.192912330394208 12.661932177165564 -1 0 0 I I #
vertex $-1 $420 $552 #
point $-1 34.522720663635624 28.885488976669667 -4.3664863519006243 #
coedge $-1 $513 $426 $519 $553 reversed $293 $-1 #
coedge $-1 $426 $512 $429 $517 reversed $293 $-1 #
edge $-1 $515 -41.587726732820002 $434 -20.827200367353178 $433 $554 forward 7 unknown #
vertex $-1 $428 $555 #
straight-curve $-1 72.795190282906589 -7.6355743419768727 36.361293387157659 0 0.82903756765294845 -0.55919291073839883 I I #
edge $-1 $430 27.500172902236741 $521 45.192912330394208 $513 $556 forward 7 unknown #
point $-1 72.795190282906589 27.500172902236741 12.661932177165568 #
coedge $-1 $433 $432 $512 $553 forward $424 $-1 #
point $-1 52.034663917439765 45.192912330394208 0.72802852093332149 #
vertex $-1 $517 $557 #
straight-curve $-1 0 45.192912330394208 12.661932177165564 -1 0 0 I I #
vertex $-1 $440 $558 #
point $-1 67.414927100173173 28.885488976669667 -4.3664863519006243 #
straight-curve $-1 -72.795190282906589 45.192912330394208 0 0 0 -1 I I #
point $-1 -72.795190282906589 -45.192912330394208 -12.661932177165564 #
straight-curve $-1 -72.795190282906589 0 -12.661932177165564 0 1 0 I I #
point $-1 -72.795190282906589 45.192912330394208 -12.661932177165564 #
coedge $-1 $462 $461 $530 $559 reversed $220 $-1 #
coedge $-1 $467 $463 $529 $559 forward $338 $-1 #
vertex $-1 $464 $560 #
straight-curve $-1 0 45.192912330394208 12.661932177165564 -1 0 0 I I #
point $-1 -58.773635463243586 45.192912330394208 12.661932177165566 #
vertex $-1 $559 $561 #
straight-curve $-1 0 -45.192912330394208 12.661932177165564 1 0 0 I I #
straight-curve $-1 -72.795190282906589 -45.192912330394208 0 0 0 -1 I I #
straight-curve $-1 -72.795190282906589 45.192912330394208 0 0 0 -1 I I #
straight-curve $-1 -25.881429026706044 45.192912330394208 85.985517940219495 0 0 -1 I I #
point $-1 -25.881429026706044 45.192912330394208 12.661932177165564 #
straight-curve $-1 -18.130846104719726 45.192912330394215 0.72802852093331794 -1 0 0 I I #
point $-1 -25.881429026706044 45.192912330394208 0.72802852093332149 #
point $-1 -36.261692209439452 26.089524422977671 -8.5116741901653672 #
straight-curve $-1 7.0107774098314977 45.192912330394208 85.985517940219495 0 0 -1 I I #
point $-1 7.0107774098314977 45.192912330394208 12.661932177165564 #
straight-curve $-1 -1.6847428864509553 45.192912330394215 0.72802852093331794 -1 0 0 I I #
point $-1 7.0107774098314977 45.192912330394208 0.72802852093332149 #
point $-1 -3.3694857729019105 26.089524422977671 -8.5116741901653672 #
straight-curve $-1 39.902983846369033 45.192912330394208 85.985517940219495 0 0 -1 I I #
point $-1 39.902983846369033 45.192912330394208 12.661932177165564 #
straight-curve $-1 14.761360331817812 45.192912330394215 0.72802852093331794 -1 0 0 I I #
point $-1 39.902983846369033 45.192912330394208 0.72802852093332149 #
point $-1 29.522720663635624 26.089524422977671 -8.5116741901653672 #
edge $-1 $521 -12.661932177165564 $515 -0.72802852093332149 $512 $562 forward 7 unknown #
straight-curve $-1 31.207463550086587 45.192912330394215 0.72802852093331794 -1 0 0 I I #
point $-1 72.795190282906589 45.192912330394208 0.72802852093332149 #
straight-curve $-1 72.795190282906589 0 12.661932177165564 0 1 0 I I #
point $-1 72.795190282906589 45.192912330394208 12.661932177165564 #
point $-1 62.414927100173173 26.089524422977671 -8.5116741901653672 #
edge $-1 $531 -45.192912330394208 $534 45.192912330394208 $529 $563 forward 7 unknown #
point $-1 -72.795190282906589 45.192912330394208 12.661932177165564 #
point $-1 -72.795190282906589 -45.192912330394208 12.661932177165564 #
straight-curve $-1 72.795190282906589 45.192912330394208 0 0 0 -1 I I #
straight-curve $-1 -72.795190282906589 0 12.661932177165564 0 -1 0 I I #
End-of-ACIS-data 