500 0 9 0           
7 Unknown 11 ACIS 5.0 NT 24 Fri Mar 26 19:20:34 1999 
-1 9.9999999999999995e-007 1e-010 
body $-1 $9 $-1 $10 #
body $-1 $11 $-1 $12 #
body $-1 $13 $-1 $14 #
body $-1 $15 $-1 $16 #
body $-1 $17 $-1 $18 #
body $-1 $19 $-1 $20 #
body $-1 $21 $-1 $22 #
body $-1 $23 $-1 $24 #
body $-1 $25 $-1 $26 #
lump $-1 $-1 $27 $0 #
transform $-1 1 0 0 0 1 0 0 0 1 43.306985686819054 30.132103759255127 8.4105417335168742 1 rotate no_reflect no_shear #
lump $-1 $-1 $28 $1 #
transform $-1 1 0 0 0 1 0 0 0 1 43.306985686819054 30.132103759255127 8.4105417335168742 1 rotate no_reflect no_shear #
lump $-1 $-1 $29 $2 #
transform $-1 1 0 0 0 1 0 0 0 1 43.306985686819054 30.132103759255127 8.4105417335168742 1 rotate no_reflect no_shear #
lump $-1 $-1 $30 $3 #
transform $-1 1 0 0 0 1 0 0 0 1 43.306985686819054 30.132103759255127 8.4105417335168742 1 rotate no_reflect no_shear #
lump $-1 $-1 $31 $4 #
transform $-1 1 0 0 0 1 0 0 0 1 43.306985686819054 30.132103759255127 8.4105417335168742 1 rotate no_reflect no_shear #
lump $-1 $-1 $32 $5 #
transform $-1 1 0 0 0 1 0 0 0 1 43.306985686819054 30.132103759255127 8.4105417335168742 1 rotate no_reflect no_shear #
lump $-1 $-1 $33 $6 #
transform $-1 1 0 0 0 1 0 0 0 1 43.306985686819054 30.132103759255127 8.4105417335168742 1 rotate no_reflect no_shear #
lump $-1 $-1 $34 $7 #
transform $-1 1 0 0 0 1 0 0 0 1 43.306985686819054 30.132103759255127 8.4105417335168742 1 rotate no_reflect no_shear #
lump $-1 $-1 $35 $8 #
transform $-1 1 0 0 0 1 0 0 0 1 43.306985686819054 30.132103759255127 8.4105417335168742 1 rotate no_reflect no_shear #
shell $-1 $-1 $-1 $36 $-1 $9 #
shell $-1 $-1 $-1 $37 $-1 $11 #
shell $-1 $-1 $-1 $38 $-1 $13 #
shell $-1 $-1 $-1 $39 $-1 $15 #
shell $-1 $-1 $-1 $40 $-1 $17 #
shell $-1 $-1 $-1 $41 $-1 $19 #
shell $-1 $-1 $-1 $42 $-1 $21 #
shell $-1 $-1 $-1 $43 $-1 $23 #
shell $-1 $-1 $-1 $44 $-1 $25 #
face $-1 $45 $46 $27 $-1 $47 forward single #
face $-1 $48 $49 $28 $-1 $50 reversed single #
face $-1 $51 $52 $29 $-1 $53 reversed single #
face $-1 $54 $55 $30 $-1 $56 reversed single #
face $-1 $57 $58 $31 $-1 $59 forward single #
face $-1 $60 $61 $32 $-1 $62 reversed single #
face $-1 $63 $64 $33 $-1 $65 forward single #
face $-1 $66 $67 $34 $-1 $68 forward single #
face $-1 $69 $70 $35 $-1 $71 forward single #
face $-1 $72 $73 $27 $-1 $74 reversed single #
loop $-1 $-1 $75 $36 #
plane-surface $-1 0 0 8.4105417335168742 0 0 1 1 0 0 forward_v I I I I #
face $-1 $76 $77 $28 $-1 $78 reversed single #
loop $-1 $-1 $79 $37 #
plane-surface $-1 0 -25.088096514239265 4.4800438067813193 0 0 1 1 0 0 forward_v I I I I #
face $-1 $80 $81 $29 $-1 $82 reversed single #
loop $-1 $-1 $83 $38 #
plane-surface $-1 0 25.088096514239265 4.4800438067813193 0 0 1 1 0 0 forward_v I I I I #
face $-1 $84 $85 $30 $-1 $86 reversed single #
loop $-1 $-1 $87 $39 #
plane-surface $-1 -91.740904449856089 10.652082584590314 75.391688076603444 0 1 0 -0.55919291073839883 0 0.82903756765294845 forward_v I I I I #
face $-1 $88 $89 $31 $-1 $90 forward single #
loop $-1 $91 $92 $40 #
cone-surface $-1 -38.469236682324293 15.348085926906858 4.1284813129191686 0.55919291073839883 0 -0.82903756765294845 1.6580751353058969 0 1.1183858214767977 1 I I 0 1 2 forward I I I I #
face $-1 $93 $94 $32 $-1 $95 reversed single #
loop $-1 $-1 $96 $41 #
plane-surface $-1 77.069987246020816 13.76871986647507 120.51433246420299 0 -1 0 -0.87461971476443456 0 -0.48480960649040278 forward_v I I I I #
face $-1 $97 $98 $33 $-1 $99 forward single #
loop $-1 $100 $101 $42 #
cone-surface $-1 41.130530095904817 8.7079971708108168 5.2499646300933671 -0.87461971476443456 0 -0.48480960649040278 0.24240480324520139 0 -0.43730985738221728 1 I I 0 1 0.5 forward I I I I #
face $-1 $102 $103 $34 $-1 $104 forward single #
loop $-1 $105 $106 $43 #
cone-surface $-1 41.130530095904817 10.605768181684912 5.2499646300933671 -0.87461971476443456 0 -0.48480960649040278 0.24240480324520139 0 -0.43730985738221728 1 I I 0 1 0.5 forward I I I I #
face $-1 $107 $108 $35 $-1 $109 forward single #
loop $-1 $110 $111 $44 #
cone-surface $-1 41.130530095904817 12.503539192559007 5.2499646300933671 -0.87461971476443456 0 -0.48480960649040278 0.24240480324520139 0 -0.43730985738221728 1 I I 0 1 0.5 forward I I I I #
face $-1 $112 $113 $27 $-1 $114 reversed single #
loop $-1 $-1 $115 $45 #
plane-surface $-1 0 0 -8.4105417335168742 0 0 1 1 0 0 forward_v I I I I #
coedge $-1 $116 $117 $118 $119 forward $46 $-1 #
face $-1 $120 $121 $28 $-1 $122 reversed single #
loop $-1 $-1 $123 $48 #
plane-surface $-1 0 -20.044089269223402 6.4452927701490967 0 -1 0 0 0 -1 forward_v I I I I #
coedge $-1 $124 $125 $126 $127 reversed $49 $-1 #
face $-1 $128 $129 $29 $-1 $130 forward single #
loop $-1 $-1 $131 $51 #
plane-surface $-1 0 20.044089269223402 6.4452927701490967 0 1 0 0 0 1 forward_v I I I I #
coedge $-1 $132 $133 $134 $135 reversed $52 $-1 #
face $-1 $136 $137 $30 $-1 $138 forward single #
loop $-1 $-1 $139 $54 #
plane-surface $-1 -43.30698568681904 15.348085926906858 3.5854519242404024 -0.55919291073839883 0 0.82903756765294845 0.82903756765294845 0 0.55919291073839883 forward_v I I I I #
coedge $-1 $140 $141 $142 $143 reversed $55 $-1 #
face $-1 $-1 $144 $31 $-1 $145 forward single #
loop $-1 $146 $147 $57 #
cone-surface $-1 -36.649039609856992 15.348085926906858 1.4299282293067481 0.55919291073839883 0 -0.82903756765294845 0.82903756765294845 0 0.55919291073839883 1 I I -0.70710678118654746 0.70710678118654746 1 forward I I I I #
loop $-1 $-1 $148 $40 #
coedge $-1 $92 $92 $149 $150 reversed $58 $-1 #
face $-1 $151 $152 $32 $-1 $153 reversed single #
loop $-1 $-1 $154 $60 #
plane-surface $-1 1.3157003085945576 10.605768181684912 78.52304708597849 0.87461971476443456 0 0.48480960649040278 0.48480960649040278 0 -0.87461971476443456 forward_v I I I I #
coedge $-1 $155 $156 $157 $158 reversed $61 $-1 #
face $-1 $-1 $159 $33 $-1 $160 forward single #
loop $-1 $161 $162 $63 #
cone-surface $-1 40.299064817733459 8.7079971708108168 4.7890759175295781 -0.87461971476443456 0 -0.48480960649040278 0.12120240162260069 0 -0.21865492869110864 1 I I -0.70710678118654746 0.70710678118654746 0.25 forward I I I I #
loop $-1 $-1 $163 $42 #
coedge $-1 $101 $101 $164 $165 reversed $64 $-1 #
face $-1 $-1 $166 $34 $-1 $167 forward single #
loop $-1 $168 $169 $66 #
cone-surface $-1 40.299064817733459 10.605768181684912 4.7890759175295781 -0.87461971476443456 0 -0.48480960649040278 0.12120240162260069 0 -0.21865492869110864 1 I I -0.70710678118654746 0.70710678118654746 0.25 forward I I I I #
loop $-1 $-1 $170 $43 #
coedge $-1 $106 $106 $171 $172 reversed $67 $-1 #
face $-1 $-1 $173 $35 $-1 $174 forward single #
loop $-1 $175 $176 $69 #
cone-surface $-1 40.299064817733459 12.503539192559007 4.7890759175295781 -0.87461971476443456 0 -0.48480960649040278 0.12120240162260069 0 -0.21865492869110864 1 I I -0.70710678118654746 0.70710678118654746 0.25 forward I I I I #
loop $-1 $-1 $177 $44 #
coedge $-1 $111 $111 $178 $179 reversed $70 $-1 #
face $-1 $180 $181 $27 $-1 $182 reversed single #
loop $-1 $-1 $183 $72 #
plane-surface $-1 0 -30.132103759255127 0 0 1 0 0 0 1 forward_v I I I I #
coedge $-1 $184 $185 $186 $187 forward $73 $-1 #
coedge $-1 $188 $75 $189 $190 forward $46 $-1 #
coedge $-1 $75 $188 $191 $192 forward $46 $-1 #
coedge $-1 $193 $194 $75 $119 reversed $195 $-1 #
edge $-1 $196 -30.132103759255127 $197 30.132103759255127 $118 $198 forward 7 unknown #
face $-1 $199 $200 $28 $-1 $201 reversed single #
loop $-1 $-1 $202 $76 #
plane-surface $-1 -43.306985686819054 0 0 1 0 0 0 0 -1 forward_v I I I I #
coedge $-1 $203 $204 $205 $206 reversed $77 $-1 #
coedge $-1 $207 $79 $208 $209 reversed $49 $-1 #
coedge $-1 $79 $207 $203 $210 forward $49 $-1 #
coedge $-1 $205 $211 $79 $127 forward $212 $-1 #
edge $-1 $213 -17.588055502135497 $214 -7.5000410121037699 $126 $215 forward 7 unknown #
face $-1 $216 $217 $29 $-1 $218 reversed single #
loop $-1 $-1 $219 $80 #
plane-surface $-1 0 0 8.4105417335168742 0 0 1 1 0 0 forward_v I I I I #
coedge $-1 $220 $221 $222 $223 reversed $81 $-1 #
coedge $-1 $224 $83 $220 $225 forward $52 $-1 #
coedge $-1 $83 $224 $226 $227 reversed $52 $-1 #
coedge $-1 $228 $229 $83 $135 forward $217 $-1 #
edge $-1 $230 7.5000410121037699 $231 17.588055502135497 $134 $232 forward 7 unknown #
face $-1 $233 $234 $30 $-1 $235 forward single #
loop $-1 $-1 $142 $84 #
plane-surface $-1 0 0 8.4105417335168742 0 0 1 1 0 0 forward_v I I I I #
coedge $-1 $236 $237 $238 $239 reversed $85 $-1 #
coedge $-1 $141 $87 $240 $241 reversed $55 $-1 #
coedge $-1 $87 $140 $236 $242 reversed $55 $-1 #
coedge $-1 $238 $243 $87 $143 forward $137 $-1 #
edge $-1 $244 2.5634665381089903 $245 9.7169562236407216 $142 $246 forward 7 unknown #
loop $-1 $-1 $149 $88 #
plane-surface $-1 -43.30698568681904 15.348085926906858 3.5854519242404024 -0.55919291073839883 0 0.82903756765294845 0.82903756765294845 0 0.55919291073839883 forward_v I I I I #
loop $-1 $-1 $247 $57 #
coedge $-1 $147 $147 $148 $248 reversed $89 $-1 #
coedge $-1 $148 $148 $147 $248 forward $91 $-1 #
coedge $-1 $149 $149 $92 $150 forward $144 $-1 #
edge $-1 $249 0 $249 6.2831853071796004 $149 $250 forward 7 unknown #
face $-1 $251 $252 $32 $-1 $253 forward single #
loop $-1 $-1 $254 $93 #
plane-surface $-1 77.069987246020816 7.4428164968947534 120.51433246420299 0 1 0 0.87461971476443456 0 0.48480960649040278 forward_v I I I I #
coedge $-1 $255 $256 $257 $258 reversed $94 $-1 #
coedge $-1 $156 $96 $259 $260 reversed $61 $-1 #
coedge $-1 $96 $155 $255 $261 reversed $61 $-1 #
coedge $-1 $257 $262 $96 $158 forward $252 $-1 #
edge $-1 $263 -4.7719920638086464 $264 -1.6447015809406835 $157 $265 forward 7 unknown #
loop $-1 $-1 $164 $97 #
plane-surface $-1 1.3157003085945576 10.605768181684912 78.52304708597849 0.87461971476443456 0 0.48480960649040278 0.48480960649040278 0 -0.87461971476443456 forward_v I I I I #
loop $-1 $-1 $266 $63 #
coedge $-1 $162 $162 $163 $267 reversed $98 $-1 #
coedge $-1 $163 $163 $162 $267 forward $100 $-1 #
coedge $-1 $164 $164 $101 $165 forward $159 $-1 #
edge $-1 $268 0 $268 6.2831853071796004 $164 $269 forward 7 unknown #
loop $-1 $-1 $171 $102 #
plane-surface $-1 1.3157003085945576 10.605768181684912 78.52304708597849 0.87461971476443456 0 0.48480960649040278 0.48480960649040278 0 -0.87461971476443456 forward_v I I I I #
loop $-1 $-1 $270 $66 #
coedge $-1 $169 $169 $170 $271 reversed $103 $-1 #
coedge $-1 $170 $170 $169 $271 forward $105 $-1 #
coedge $-1 $171 $171 $106 $172 forward $166 $-1 #
edge $-1 $272 0 $272 6.2831853071796004 $171 $273 forward 7 unknown #
loop $-1 $-1 $178 $107 #
plane-surface $-1 1.3157003085945576 10.605768181684912 78.52304708597849 0.87461971476443456 0 0.48480960649040278 0.48480960649040278 0 -0.87461971476443456 forward_v I I I I #
loop $-1 $-1 $274 $69 #
coedge $-1 $176 $176 $177 $275 reversed $108 $-1 #
coedge $-1 $177 $177 $176 $275 forward $110 $-1 #
coedge $-1 $178 $178 $111 $179 forward $173 $-1 #
edge $-1 $276 0 $276 6.2831853071796004 $178 $277 forward 7 unknown #
face $-1 $278 $279 $27 $-1 $280 reversed single #
loop $-1 $-1 $281 $112 #
plane-surface $-1 -43.306985686819054 0 0 1 0 0 0 0 -1 forward_v I I I I #
coedge $-1 $282 $191 $283 $284 forward $113 $-1 #
coedge $-1 $285 $115 $282 $286 forward $73 $-1 #
coedge $-1 $115 $285 $287 $288 forward $73 $-1 #
coedge $-1 $194 $193 $115 $187 reversed $195 $-1 #
edge $-1 $289 -30.132103759255127 $290 30.132103759255127 $186 $291 forward 7 unknown #
coedge $-1 $117 $116 $292 $293 forward $46 $-1 #
coedge $-1 $294 $295 $116 $190 reversed $279 $-1 #
edge $-1 $197 -43.306985686819054 $296 43.306985686819054 $189 $297 forward 7 unknown #
coedge $-1 $183 $298 $117 $192 reversed $113 $-1 #
edge $-1 $299 -43.306985686819054 $196 43.306985686819054 $191 $300 forward 7 unknown #
coedge $-1 $186 $118 $298 $301 forward $195 $-1 #
coedge $-1 $118 $186 $294 $302 reversed $195 $-1 #
loop $-1 $-1 $193 $278 #
vertex $-1 $119 $303 #
vertex $-1 $119 $304 #
straight-curve $-1 43.306985686819054 0 8.4105417335168742 0 1 0 I I #
face $-1 $305 $306 $28 $-1 $307 forward single #
loop $-1 $-1 $208 $120 #
plane-surface $-1 0 -30.132103759255127 0 0 1 0 0 0 1 forward_v I I I I #
coedge $-1 $308 $309 $310 $311 forward $121 $-1 #
coedge $-1 $310 $123 $125 $210 reversed $77 $-1 #
coedge $-1 $123 $310 $312 $313 reversed $77 $-1 #
coedge $-1 $314 $126 $123 $206 forward $212 $-1 #
edge $-1 $214 1.2573974217067709 $315 5.1878953484423258 $205 $316 forward 7 unknown #
coedge $-1 $125 $124 $308 $317 reversed $49 $-1 #
coedge $-1 $318 $319 $124 $209 forward $200 $-1 #
edge $-1 $320 -43.306985686819054 $213 43.306985686819054 $208 $321 forward 7 unknown #
edge $-1 $322 -43.306985686819054 $214 43.306985686819054 $203 $323 forward 7 unknown #
coedge $-1 $126 $314 $318 $324 forward $212 $-1 #
loop $-1 $-1 $205 $305 #
vertex $-1 $209 $325 #
vertex $-1 $127 $326 #
straight-curve $-1 43.306985686819054 -12.544048257119632 4.4800438067813193 0 1 0 I I #
face $-1 $327 $328 $29 $-1 $329 reversed single #
loop $-1 $-1 $229 $128 #
plane-surface $-1 43.306985686819054 0 0 -1 0 0 0 0 1 forward_v I I I I #
coedge $-1 $330 $331 $221 $332 forward $129 $-1 #
coedge $-1 $333 $131 $132 $225 reversed $81 $-1 #
coedge $-1 $131 $333 $219 $332 reversed $81 $-1 #
coedge $-1 $334 $335 $131 $223 forward $328 $-1 #
edge $-1 $336 1.2573974217067709 $337 5.1878953484423258 $222 $338 forward 7 unknown #
coedge $-1 $133 $132 $335 $339 reversed $52 $-1 #
edge $-1 $230 -43.306985686819054 $336 43.306985686819054 $220 $340 forward 7 unknown #
coedge $-1 $341 $342 $133 $227 forward $343 $-1 #
edge $-1 $231 -43.306985686819054 $344 43.306985686819054 $226 $345 forward 7 unknown #
coedge $-1 $346 $134 $342 $347 reversed $217 $-1 #
coedge $-1 $134 $346 $333 $348 forward $217 $-1 #
vertex $-1 $135 $349 #
vertex $-1 $227 $350 #
straight-curve $-1 43.306985686819054 12.544048257119632 4.4800438067813193 0 1 0 I I #
face $-1 $-1 $351 $30 $-1 $352 reversed single #
loop $-1 $-1 $353 $136 #
plane-surface $-1 0 20.044089269223402 6.4452927701490967 0 1 0 0 0 1 forward_v I I I I #
coedge $-1 $354 $139 $141 $242 forward $85 $-1 #
coedge $-1 $139 $354 $353 $355 forward $85 $-1 #
coedge $-1 $356 $142 $139 $239 forward $137 $-1 #
edge $-1 $245 2.9780396211368849 $357 12.370046305769973 $238 $358 forward 7 unknown #
coedge $-1 $359 $360 $140 $241 forward $351 $-1 #
edge $-1 $361 -34.110392114061327 $244 -29.28530230478485 $240 $362 forward 7 unknown #
edge $-1 $245 -8.6286677041471656 $361 1.7244626260799089e-014 $141 $363 forward 7 unknown #
coedge $-1 $142 $356 $359 $364 forward $137 $-1 #
vertex $-1 $241 $365 #
vertex $-1 $143 $366 #
straight-curve $-1 -45.870452224928044 10.652082584590314 8.4105417335168724 1 0 0 I I #
coedge $-1 $247 $247 $-1 $367 reversed $146 $-1 #
edge $-1 $368 0 $368 6.2831853071796004 $147 $369 forward 7 unknown #
vertex $-1 $150 $370 #
ellipse-curve $-1 -39.730240844053192 15.348085926906858 5.9979968288786303 -0.55919291073839883 0 0.82903756765294845 1.6580751353058969 0 1.1183858214767977 1 I I #
face $-1 $-1 $371 $32 $-1 $372 reversed single #
loop $-1 $-1 $157 $151 #
plane-surface $-1 0 0 8.4105417335168742 0 0 1 1 0 0 forward_v I I I I #
coedge $-1 $373 $374 $375 $376 reversed $152 $-1 #
coedge $-1 $377 $154 $156 $261 forward $94 $-1 #
coedge $-1 $154 $377 $373 $378 forward $94 $-1 #
coedge $-1 $375 $157 $154 $258 forward $252 $-1 #
edge $-1 $264 -8.4658357756326144 $379 -2.1399324060522975 $257 $380 forward 7 unknown #
coedge $-1 $381 $382 $155 $260 forward $371 $-1 #
edge $-1 $383 -57.488406083549251 $263 -51.846624498584625 $259 $384 forward 7 unknown #
edge $-1 $264 80.163417504652699 $383 86.613971373638094 $156 $385 forward 7 unknown #
coedge $-1 $157 $375 $381 $386 forward $252 $-1 #
vertex $-1 $260 $387 #
vertex $-1 $158 $388 #
straight-curve $-1 38.534993623010408 13.76871986647507 8.4105417335168724 -1 0 0 I I #
coedge $-1 $266 $266 $-1 $389 reversed $161 $-1 #
edge $-1 $390 0 $390 6.2831853071796004 $162 $391 forward 7 unknown #
vertex $-1 $165 $392 #
ellipse-curve $-1 41.743340445385073 8.7079971708108168 5.5896509410345594 0.87461971476443456 0 0.48480960649040278 0.24240480324520139 0 -0.43730985738221728 1 I I #
coedge $-1 $270 $270 $-1 $393 reversed $168 $-1 #
edge $-1 $394 0 $394 6.2831853071796004 $169 $395 forward 7 unknown #
vertex $-1 $172 $396 #
ellipse-curve $-1 41.743340445385073 10.605768181684912 5.5896509410345594 0.87461971476443456 0 0.48480960649040278 0.24240480324520139 0 -0.43730985738221728 1 I I #
coedge $-1 $274 $274 $-1 $397 reversed $175 $-1 #
edge $-1 $398 0 $398 6.2831853071796004 $176 $399 forward 7 unknown #
vertex $-1 $179 $400 #
ellipse-curve $-1 41.743340445385073 12.503539192559007 5.5896509410345594 0.87461971476443456 0 0.48480960649040278 0.24240480324520139 0 -0.43730985738221728 1 I I #
face $-1 $-1 $195 $27 $-1 $401 reversed single #
loop $-1 $-1 $294 $180 #
plane-surface $-1 0 30.132103759255127 0 0 -1 0 0 0 -1 forward_v I I I I #
coedge $-1 $402 $292 $295 $403 forward $181 $-1 #
coedge $-1 $298 $183 $184 $286 reversed $113 $-1 #
coedge $-1 $292 $402 $183 $284 reversed $181 $-1 #
edge $-1 $299 -8.4105417335168742 $404 8.4105417335168742 $283 $405 forward 7 unknown #
coedge $-1 $185 $184 $402 $406 forward $73 $-1 #
edge $-1 $290 -43.306985686819054 $404 43.306985686819054 $282 $407 forward 7 unknown #
coedge $-1 $295 $294 $185 $288 reversed $279 $-1 #
edge $-1 $408 -43.306985686819054 $289 43.306985686819054 $287 $409 forward 7 unknown #
vertex $-1 $187 $410 #
vertex $-1 $301 $411 #
straight-curve $-1 43.306985686819054 0 -8.4105417335168742 0 -1 0 I I #
coedge $-1 $281 $283 $188 $293 reversed $181 $-1 #
edge $-1 $296 -30.132103759255127 $299 30.132103759255127 $292 $412 forward 7 unknown #
coedge $-1 $287 $189 $194 $302 forward $279 $-1 #
coedge $-1 $189 $287 $281 $403 reversed $279 $-1 #
vertex $-1 $190 $413 #
straight-curve $-1 0 30.132103759255127 8.4105417335168742 -1 0 0 I I #
coedge $-1 $191 $282 $193 $301 reversed $113 $-1 #
vertex $-1 $293 $414 #
straight-curve $-1 0 -30.132103759255127 8.4105417335168742 1 0 0 I I #
edge $-1 $196 -8.4105417335168742 $290 8.4105417335168742 $193 $415 forward 7 unknown #
edge $-1 $197 -8.4105417335168742 $289 8.4105417335168742 $194 $416 forward 7 unknown #
point $-1 43.306985686819054 -30.132103759255127 8.4105417335168742 #
point $-1 43.306985686819054 30.132103759255127 8.4105417335168742 #
face $-1 $-1 $212 $28 $-1 $417 reversed single #
loop $-1 $-1 $312 $199 #
plane-surface $-1 0 0 8.4105417335168742 0 0 1 1 0 0 forward_v I I I I #
coedge $-1 $418 $202 $207 $317 forward $121 $-1 #
coedge $-1 $202 $418 $419 $420 reversed $121 $-1 #
coedge $-1 $204 $203 $202 $311 reversed $77 $-1 #
edge $-1 $421 -5.1878953484423258 $322 -1.2573974217067709 $202 $422 forward 7 unknown #
coedge $-1 $419 $423 $204 $313 forward $306 $-1 #
edge $-1 $315 -43.306985686819054 $421 43.306985686819054 $312 $424 forward 7 unknown #
coedge $-1 $211 $205 $423 $425 reversed $212 $-1 #
vertex $-1 $206 $426 #
straight-curve $-1 43.306985686819054 -20.044089269223402 3.2226463850745484 0 0 1 I I #
edge $-1 $322 7.5000410121037699 $320 17.588055502135497 $308 $427 forward 7 unknown #
coedge $-1 $428 $208 $211 $324 reversed $200 $-1 #
coedge $-1 $208 $428 $418 $429 forward $200 $-1 #
vertex $-1 $209 $430 #
straight-curve $-1 0 -30.132103759255127 4.4800438067813193 1 0 0 I I #
vertex $-1 $317 $431 #
straight-curve $-1 0 -20.044089269223402 4.4800438067813193 1 0 0 I I #
edge $-1 $432 -8.4105417335168742 $213 -4.4800438067813193 $211 $433 forward 7 unknown #
point $-1 43.306985686819054 -30.132103759255127 4.4800438067813193 #
point $-1 43.306985686819054 -20.044089269223402 4.4800438067813193 #
face $-1 $-1 $343 $29 $-1 $434 reversed single #
loop $-1 $-1 $222 $216 #
plane-surface $-1 -43.306985686819054 0 0 1 0 0 0 0 -1 forward_v I I I I #
coedge $-1 $435 $219 $346 $436 forward $129 $-1 #
coedge $-1 $219 $435 $334 $437 forward $129 $-1 #
edge $-1 $337 -43.306985686819054 $438 43.306985686819054 $219 $439 forward 7 unknown #
coedge $-1 $221 $220 $229 $348 reversed $81 $-1 #
coedge $-1 $440 $222 $331 $437 reversed $328 $-1 #
coedge $-1 $222 $440 $224 $339 forward $328 $-1 #
vertex $-1 $339 $441 #
vertex $-1 $223 $442 #
straight-curve $-1 -43.306985686819054 20.044089269223402 3.2226463850745484 0 0 1 I I #
edge $-1 $344 -17.588055502135497 $336 -7.5000410121037699 $335 $443 forward 7 unknown #
straight-curve $-1 0 20.044089269223402 4.4800438067813193 -1 0 0 I I #
coedge $-1 $444 $226 $440 $445 reversed $343 $-1 #
coedge $-1 $226 $444 $228 $347 forward $343 $-1 #
loop $-1 $-1 $226 $327 #
vertex $-1 $227 $446 #
straight-curve $-1 0 30.132103759255127 4.4800438067813193 -1 0 0 I I #
coedge $-1 $229 $228 $330 $436 reversed $217 $-1 #
edge $-1 $447 -8.4105417335168742 $231 -4.4800438067813193 $228 $448 forward 7 unknown #
edge $-1 $438 -5.1878953484423258 $230 -1.2573974217067709 $229 $449 forward 7 unknown #
point $-1 43.306985686819054 20.044089269223402 4.4800438067813193 #
point $-1 43.306985686819054 30.132103759255127 4.4800438067813193 #
loop $-1 $-1 $240 $233 #
plane-surface $-1 -43.306985686819054 0 0 1 0 0 0 0 -1 forward_v I I I I #
coedge $-1 $450 $451 $237 $355 reversed $234 $-1 #
coedge $-1 $237 $236 $360 $452 reversed $85 $-1 #
edge $-1 $453 -1.7244626260799089e-014 $357 8.6286677041471656 $353 $454 forward 7 unknown #
coedge $-1 $243 $238 $451 $455 forward $137 $-1 #
vertex $-1 $455 $456 #
straight-curve $-1 -36.153496001287323 7.6740429634534291 8.4105417335168742 0 1 0 I I #
coedge $-1 $457 $240 $243 $364 reversed $351 $-1 #
coedge $-1 $240 $457 $354 $452 forward $351 $-1 #
vertex $-1 $241 $458 #
straight-curve $-1 -43.306985686819054 10.652082584590314 37.695844038301722 0 0 1 I I #
straight-curve $-1 -43.30698568681904 10.652082584590314 3.5854519242404024 -0.82903756765294845 0 -0.55919291073839883 I I #
edge $-1 $459 -20.044089269223402 $244 -10.652082584590314 $359 $460 forward 7 unknown #
point $-1 -43.306985686819054 10.652082584590314 8.4105417335168742 #
point $-1 -36.153496001287323 10.652082584590314 8.4105417335168742 #
edge $-1 $461 1 $461 0 $247 $-1 forward 7 unknown #
vertex $-1 $248 $462 #
ellipse-curve $-1 -37.208232520595388 15.348085926906858 2.2589657969596963 -0.55919291073839883 0 0.82903756765294845 1.6580751353058969 0 1.1183858214767977 1 I I #
point $-1 -38.072165708747306 15.348085926906858 7.1163826503554377 #
loop $-1 $-1 $259 $251 #
plane-surface $-1 43.306985686819054 0 0 -1 0 0 0 0 1 forward_v I I I I #
coedge $-1 $374 $254 $256 $378 reversed $152 $-1 #
coedge $-1 $254 $373 $463 $464 reversed $152 $-1 #
coedge $-1 $262 $257 $254 $376 forward $252 $-1 #
edge $-1 $379 1.6447015809406835 $465 4.7719920638086464 $375 $466 forward 7 unknown #
coedge $-1 $256 $255 $382 $467 reversed $94 $-1 #
edge $-1 $468 -86.613971373638094 $379 -80.163417504652699 $373 $469 forward 7 unknown #
vertex $-1 $258 $470 #
straight-curve $-1 40.179695203951098 5.3028840908424559 8.4105417335168653 0 -1 0 I I #
coedge $-1 $463 $259 $262 $386 reversed $371 $-1 #
coedge $-1 $259 $463 $377 $467 forward $371 $-1 #
vertex $-1 $260 $471 #
straight-curve $-1 43.306985686819054 13.76871986647507 60.257166232101497 0 0 1 I I #
straight-curve $-1 1.3157003085945576 13.76871986647507 78.52304708597849 0.48480960649040278 0 -0.87461971476443456 I I #
edge $-1 $465 7.4428164968947534 $263 13.76871986647507 $381 $472 forward 7 unknown #
point $-1 43.306985686819054 13.76871986647507 8.4105417335168742 #
point $-1 40.179695203951091 13.76871986647507 8.4105417335168795 #
edge $-1 $473 1 $473 0 $266 $-1 forward 7 unknown #
vertex $-1 $267 $474 #
ellipse-curve $-1 40.517719746424568 8.7079971708108168 4.9102783191521784 0.87461971476443456 0 0.48480960649040278 0.24240480324520139 0 -0.43730985738221728 1 I I #
point $-1 41.985745248630266 8.7079971708108168 5.1523410836523373 #
edge $-1 $475 1 $475 0 $270 $-1 forward 7 unknown #
vertex $-1 $271 $476 #
ellipse-curve $-1 40.517719746424568 10.605768181684912 4.9102783191521784 0.87461971476443456 0 0.48480960649040278 0.24240480324520139 0 -0.43730985738221728 1 I I #
point $-1 41.985745248630266 10.605768181684912 5.1523410836523373 #
edge $-1 $477 1 $477 0 $274 $-1 forward 7 unknown #
vertex $-1 $275 $478 #
ellipse-curve $-1 40.517719746424568 12.503539192559007 4.9102783191521784 0.87461971476443456 0 0.48480960649040278 0.24240480324520139 0 -0.43730985738221728 1 I I #
point $-1 41.985745248630266 12.503539192559007 5.1523410836523373 #
plane-surface $-1 43.306985686819054 0 0 -1 0 0 0 0 1 forward_v I I I I #
coedge $-1 $283 $281 $285 $406 reversed $181 $-1 #
edge $-1 $296 -8.4105417335168742 $408 8.4105417335168742 $295 $479 forward 7 unknown #
vertex $-1 $406 $480 #
straight-curve $-1 -43.306985686819054 -30.132103759255127 0 0 0 -1 I I #
edge $-1 $404 -30.132103759255127 $408 30.132103759255127 $402 $481 forward 7 unknown #
straight-curve $-1 0 -30.132103759255127 -8.4105417335168742 -1 0 0 I I #
vertex $-1 $288 $482 #
straight-curve $-1 0 30.132103759255127 -8.4105417335168742 1 0 0 I I #
point $-1 43.306985686819054 30.132103759255127 -8.4105417335168742 #
point $-1 43.306985686819054 -30.132103759255127 -8.4105417335168742 #
straight-curve $-1 -43.306985686819054 0 8.4105417335168742 0 -1 0 I I #
point $-1 -43.306985686819054 30.132103759255127 8.4105417335168742 #
point $-1 -43.306985686819054 -30.132103759255127 8.4105417335168742 #
straight-curve $-1 43.306985686819054 -30.132103759255127 0 0 0 -1 I I #
straight-curve $-1 43.306985686819054 30.132103759255127 0 0 0 -1 I I #
plane-surface $-1 43.306985686819054 0 0 -1 0 0 0 0 1 forward_v I I I I #
coedge $-1 $309 $308 $319 $429 reversed $121 $-1 #
coedge $-1 $483 $312 $309 $420 forward $306 $-1 #
edge $-1 $421 20.044089269223402 $484 30.132103759255127 $309 $485 forward 7 unknown #
vertex $-1 $420 $486 #
straight-curve $-1 -43.306985686819054 -20.044089269223402 3.2226463850745484 0 0 -1 I I #
coedge $-1 $312 $483 $314 $425 forward $306 $-1 #
straight-curve $-1 0 -20.044089269223402 8.4105417335168742 -1 0 0 I I #
edge $-1 $432 -30.132103759255127 $315 -20.044089269223402 $314 $487 forward 7 unknown #
point $-1 43.306985686819054 -20.044089269223402 8.4105417335168742 #
straight-curve $-1 -43.306985686819054 -12.544048257119632 4.4800438067813193 0 -1 0 I I #
coedge $-1 $319 $318 $483 $488 reversed $200 $-1 #
edge $-1 $484 -8.4105417335168742 $320 -4.4800438067813193 $418 $489 forward 7 unknown #
point $-1 -43.306985686819054 -30.132103759255127 4.4800438067813193 #
point $-1 -43.306985686819054 -20.044089269223402 4.4800438067813193 #
vertex $-1 $425 $490 #
straight-curve $-1 43.306985686819054 -30.132103759255127 0 0 0 -1 I I #
plane-surface $-1 0 30.132103759255127 0 0 -1 0 0 0 -1 forward_v I I I I #
coedge $-1 $331 $330 $444 $491 forward $129 $-1 #
edge $-1 $438 20.044089269223402 $447 30.132103759255127 $346 $492 forward 7 unknown #
edge $-1 $493 -30.132103759255127 $337 -20.044089269223402 $334 $494 forward 7 unknown #
vertex $-1 $436 $495 #
straight-curve $-1 0 20.044089269223402 8.4105417335168742 1 0 0 I I #
coedge $-1 $335 $334 $341 $445 forward $328 $-1 #
point $-1 -43.306985686819054 20.044089269223402 4.4800438067813193 #
point $-1 -43.306985686819054 20.044089269223402 8.4105417335168742 #
straight-curve $-1 -43.306985686819054 12.544048257119632 4.4800438067813193 0 -1 0 I I #
coedge $-1 $342 $341 $435 $491 reversed $343 $-1 #
edge $-1 $493 -8.4105417335168742 $344 -4.4800438067813193 $341 $496 forward 7 unknown #
point $-1 -43.306985686819054 30.132103759255127 4.4800438067813193 #
vertex $-1 $436 $497 #
straight-curve $-1 43.306985686819054 30.132103759255127 0 0 0 -1 I I #
straight-curve $-1 43.306985686819054 20.044089269223402 3.2226463850745484 0 0 -1 I I #
coedge $-1 $451 $353 $457 $498 reversed $234 $-1 #
coedge $-1 $353 $450 $356 $455 reversed $234 $-1 #
edge $-1 $453 -12.370046305769973 $361 -2.9780396211368849 $360 $499 forward 7 unknown #
vertex $-1 $498 $500 #
straight-curve $-1 -43.30698568681904 20.044089269223402 3.5854519242404024 0.82903756765294845 0 0.55919291073839883 I I #
edge $-1 $357 36.153496001287323 $459 43.306985686819054 $356 $501 forward 7 unknown #
point $-1 -36.153496001287323 20.044089269223402 8.4105417335168742 #
coedge $-1 $360 $359 $450 $498 forward $351 $-1 #
point $-1 -43.306985686819054 10.652082584590314 3.5854519242403926 #
vertex $-1 $364 $502 #
straight-curve $-1 -43.306985686819054 0 8.4105417335168742 0 -1 0 I I #
vertex $-1 $367 $503 #
point $-1 -35.550157385289495 15.348085926906858 3.377351618436494 #
coedge $-1 $382 $381 $374 $464 forward $371 $-1 #
edge $-1 $465 51.846624498584625 $468 57.488406083549251 $463 $504 forward 7 unknown #
vertex $-1 $386 $505 #
straight-curve $-1 38.534993623010408 7.4428164968947534 8.4105417335168724 1 0 0 I I #
edge $-1 $468 2.1399324060522975 $383 8.4658357756326144 $382 $506 forward 7 unknown #
vertex $-1 $467 $507 #
straight-curve $-1 1.3157003085945576 7.4428164968947534 78.52304708597849 -0.48480960649040278 0 0.87461971476443456 I I #
point $-1 40.179695203951091 7.4428164968947534 8.4105417335168795 #
point $-1 43.306985686819054 13.76871986647507 2.7687601485522464 #
straight-curve $-1 43.306985686819054 0 8.4105417335168742 0 1 0 I I #
vertex $-1 $389 $508 #
point $-1 40.760124549669769 8.7079971708108168 4.4729684617699617 #
vertex $-1 $393 $509 #
point $-1 40.760124549669769 10.605768181684912 4.4729684617699617 #
vertex $-1 $397 $510 #
point $-1 40.760124549669769 12.503539192559007 4.4729684617699617 #
straight-curve $-1 -43.306985686819054 30.132103759255127 0 0 0 -1 I I #
point $-1 -43.306985686819054 -30.132103759255127 -8.4105417335168742 #
straight-curve $-1 -43.306985686819054 0 -8.4105417335168742 0 1 0 I I #
point $-1 -43.306985686819054 30.132103759255127 -8.4105417335168742 #
coedge $-1 $423 $419 $428 $488 forward $306 $-1 #
vertex $-1 $420 $511 #
straight-curve $-1 -43.306985686819054 0 8.4105417335168742 0 -1 0 I I #
point $-1 -43.306985686819054 -20.044089269223402 8.4105417335168742 #
straight-curve $-1 43.306985686819054 0 8.4105417335168742 0 1 0 I I #
edge $-1 $484 -43.306985686819054 $432 43.306985686819054 $428 $512 forward 7 unknown #
straight-curve $-1 -43.306985686819054 -30.132103759255127 0 0 0 -1 I I #
point $-1 43.306985686819054 -30.132103759255127 8.4105417335168742 #
edge $-1 $447 -43.306985686819054 $493 43.306985686819054 $444 $513 forward 7 unknown #
straight-curve $-1 43.306985686819054 0 8.4105417335168742 0 1 0 I I #
vertex $-1 $491 $514 #
straight-curve $-1 -43.306985686819054 0 8.4105417335168742 0 -1 0 I I #
point $-1 43.306985686819054 20.044089269223402 8.4105417335168742 #
straight-curve $-1 -43.306985686819054 30.132103759255127 0 0 0 -1 I I #
point $-1 43.306985686819054 30.132103759255127 8.4105417335168742 #
edge $-1 $459 29.28530230478485 $453 34.110392114061327 $457 $515 forward 7 unknown #
straight-curve $-1 -43.306985686819054 7.6740429634534291 3.5854519242403917 0 -1 0 I I #
point $-1 -43.306985686819054 20.044089269223402 3.5854519242403926 #
straight-curve $-1 0 20.044089269223402 8.4105417335168742 -1 0 0 I I #
point $-1 -43.306985686819054 20.044089269223402 8.4105417335168742 #
point $-1 -36.089846699118596 15.348085926906858 0.60089066165379967 #
straight-curve $-1 43.306985686819054 7.4428164968947534 60.257166232101497 0 0 -1 I I #
point $-1 43.306985686819054 7.4428164968947534 8.4105417335168742 #
straight-curve $-1 43.306985686819054 5.3028840908424559 2.7687601485522464 0 1 0 I I #
point $-1 43.306985686819054 7.4428164968947534 2.7687601485522464 #
point $-1 40.08040988904235 8.7079971708108168 4.6678735159069777 #
point $-1 40.08040988904235 10.605768181684912 4.6678735159069777 #
point $-1 40.08040988904235 12.503539192559007 4.6678735159069777 #
point $-1 -43.306985686819054 -30.132103759255127 8.4105417335168742 #
straight-curve $-1 0 -30.132103759255127 8.4105417335168742 1 0 0 I I #
straight-curve $-1 0 30.132103759255127 8.4105417335168742 -1 0 0 I I #
point $-1 -43.306985686819054 30.132103759255127 8.4105417335168742 #
straight-curve $-1 -43.306985686819054 20.044089269223402 37.695844038301722 0 0 -1 I I #
End-of-ACIS-data 