500 0 9 0           
7 Unknown 11 ACIS 5.0 NT 24 Fri Mar 26 18:21:16 1999 
-1 9.9999999999999995e-007 1e-010 
body $-1 $9 $-1 $10 #
body $-1 $11 $-1 $12 #
body $-1 $13 $-1 $14 #
body $-1 $15 $-1 $16 #
body $-1 $17 $-1 $18 #
body $-1 $19 $-1 $20 #
body $-1 $21 $-1 $22 #
body $-1 $23 $-1 $24 #
body $-1 $25 $-1 $26 #
lump $-1 $-1 $27 $0 #
transform $-1 1 0 0 0 1 0 0 0 1 66.093325601977597 34.879977527379296 11.849207490715351 1 rotate no_reflect no_shear #
lump $-1 $-1 $28 $1 #
transform $-1 1 0 0 0 1 0 0 0 1 66.093325601977597 34.879977527379296 11.849207490715351 1 rotate no_reflect no_shear #
lump $-1 $-1 $29 $2 #
transform $-1 1 0 0 0 1 0 0 0 1 66.093325601977597 34.879977527379296 11.849207490715351 1 rotate no_reflect no_shear #
lump $-1 $-1 $30 $3 #
transform $-1 1 0 0 0 1 0 0 0 1 66.093325601977597 34.879977527379296 11.849207490715351 1 rotate no_reflect no_shear #
lump $-1 $-1 $31 $4 #
transform $-1 1 0 0 0 1 0 0 0 1 66.093325601977597 34.879977527379296 11.849207490715351 1 rotate no_reflect no_shear #
lump $-1 $-1 $32 $5 #
transform $-1 1 0 0 0 1 0 0 0 1 66.093325601977597 34.879977527379296 11.849207490715351 1 rotate no_reflect no_shear #
lump $-1 $-1 $33 $6 #
transform $-1 1 0 0 0 1 0 0 0 1 66.093325601977597 34.879977527379296 11.849207490715351 1 rotate no_reflect no_shear #
lump $-1 $-1 $34 $7 #
transform $-1 1 0 0 0 1 0 0 0 1 66.093325601977597 34.879977527379296 11.849207490715351 1 rotate no_reflect no_shear #
lump $-1 $-1 $35 $8 #
transform $-1 1 0 0 0 1 0 0 0 1 66.093325601977597 34.879977527379296 11.849207490715351 1 rotate no_reflect no_shear #
shell $-1 $-1 $-1 $36 $-1 $9 #
shell $-1 $-1 $-1 $37 $-1 $11 #
shell $-1 $-1 $-1 $38 $-1 $13 #
shell $-1 $-1 $-1 $39 $-1 $15 #
shell $-1 $-1 $-1 $40 $-1 $17 #
shell $-1 $-1 $-1 $41 $-1 $19 #
shell $-1 $-1 $-1 $42 $-1 $21 #
shell $-1 $-1 $-1 $43 $-1 $23 #
shell $-1 $-1 $-1 $44 $-1 $25 #
face $-1 $45 $46 $27 $-1 $47 forward single #
face $-1 $48 $49 $28 $-1 $50 reversed single #
face $-1 $51 $52 $29 $-1 $53 forward single #
face $-1 $54 $55 $30 $-1 $56 forward single #
face $-1 $57 $58 $31 $-1 $59 forward single #
face $-1 $60 $61 $32 $-1 $62 reversed single #
face $-1 $63 $64 $33 $-1 $65 forward single #
face $-1 $66 $67 $34 $-1 $68 forward single #
face $-1 $69 $70 $35 $-1 $71 forward single #
face $-1 $72 $73 $27 $-1 $74 reversed single #
loop $-1 $-1 $75 $36 #
plane-surface $-1 0 0 11.849207490715351 0 0 1 1 0 0 forward_v I I I I #
face $-1 $76 $77 $28 $-1 $78 reversed single #
loop $-1 $-1 $79 $37 #
plane-surface $-1 0 -139.04448125048049 85.750792638166473 -1 0 0 0 -0.78801076186113728 0.61566146476048833 forward_v I I I I #
face $-1 $80 $81 $29 $-1 $82 forward single #
loop $-1 $83 $84 $38 #
cone-surface $-1 -22.296366657678881 -28.932942316869422 5.7456723141369537 0 0.78801076186113728 -0.61566146476048833 2 0 0 1 I I 0 1 2 forward I I I I #
face $-1 $85 $86 $30 $-1 $87 forward single #
loop $-1 $88 $89 $39 #
cone-surface $-1 -13.9352291610493 -28.932942316869422 5.7456723141369537 0 0.78801076186113728 -0.61566146476048833 2 0 0 1 I I 0 1 2 forward I I I I #
face $-1 $90 $91 $31 $-1 $92 forward single #
loop $-1 $93 $94 $40 #
cone-surface $-1 -5.5740916644197185 -28.932942316869422 5.7456723141369537 0 0.78801076186113728 -0.61566146476048833 2 0 0 1 I I 0 1 2 forward I I I I #
face $-1 $95 $96 $32 $-1 $97 reversed single #
loop $-1 $-1 $98 $41 #
plane-surface $-1 27.870458322098607 -139.04448125048049 85.750792638166473 -1 0 0 0 -0.78801076186113728 0.61566146476048833 forward_v I I I I #
face $-1 $99 $100 $33 $-1 $101 forward single #
loop $-1 $102 $103 $42 #
cone-surface $-1 5.5740916644197114 -28.932942316869422 5.7456723141369537 0 0.78801076186113728 -0.61566146476048833 2 0 0 1 I I 0 1 2 forward I I I I #
face $-1 $104 $105 $34 $-1 $106 forward single #
loop $-1 $107 $108 $43 #
cone-surface $-1 13.935229161049307 -28.932942316869422 5.7456723141369537 0 0.78801076186113728 -0.61566146476048833 2 0 0 1 I I 0 1 2 forward I I I I #
face $-1 $109 $110 $35 $-1 $111 forward single #
loop $-1 $112 $113 $44 #
cone-surface $-1 22.296366657678874 -28.932942316869422 5.7456723141369537 0 0.78801076186113728 -0.61566146476048833 2 0 0 1 I I 0 1 2 forward I I I I #
face $-1 $114 $115 $27 $-1 $116 reversed single #
loop $-1 $-1 $117 $45 #
plane-surface $-1 0 0 -11.849207490715351 0 0 1 1 0 0 forward_v I I I I #
coedge $-1 $118 $119 $120 $121 forward $46 $-1 #
face $-1 $122 $123 $28 $-1 $124 reversed single #
loop $-1 $-1 $125 $48 #
plane-surface $-1 -13.9352291610493 -34.879977527379339 4.3685653361556547 0 -0.78801076186113728 0.61566146476048833 1 0 0 forward_v I I I I #
coedge $-1 $126 $127 $128 $129 reversed $49 $-1 #
face $-1 $-1 $130 $29 $-1 $131 forward single #
loop $-1 $132 $133 $51 #
cone-surface $-1 -22.296366657678881 -25.120155359938661 2.766796750077928 0 0.78801076186113728 -0.61566146476048833 1 0 0 1 I I -0.70710678118654746 0.70710678118654746 1 forward I I I I #
loop $-1 $-1 $134 $38 #
coedge $-1 $84 $84 $135 $136 reversed $52 $-1 #
face $-1 $-1 $137 $30 $-1 $138 forward single #
loop $-1 $139 $140 $54 #
cone-surface $-1 -13.9352291610493 -25.120155359938661 2.766796750077928 0 0.78801076186113728 -0.61566146476048833 1 0 0 1 I I -0.70710678118654746 0.70710678118654746 1 forward I I I I #
loop $-1 $-1 $141 $39 #
coedge $-1 $89 $89 $142 $143 reversed $55 $-1 #
face $-1 $-1 $144 $31 $-1 $145 forward single #
loop $-1 $146 $147 $57 #
cone-surface $-1 -5.5740916644197185 -25.120155359938661 2.766796750077928 0 0.78801076186113728 -0.61566146476048833 1 0 0 1 I I -0.70710678118654746 0.70710678118654746 1 forward I I I I #
loop $-1 $-1 $148 $40 #
coedge $-1 $94 $94 $149 $150 reversed $58 $-1 #
face $-1 $151 $152 $32 $-1 $153 reversed single #
loop $-1 $-1 $154 $60 #
plane-surface $-1 -13.9352291610493 -34.879977527379339 4.3685653361556547 0 -0.78801076186113728 0.61566146476048833 1 0 0 forward_v I I I I #
coedge $-1 $155 $156 $157 $158 reversed $61 $-1 #
face $-1 $-1 $159 $33 $-1 $160 forward single #
loop $-1 $161 $162 $63 #
cone-surface $-1 5.5740916644197114 -25.120155359938661 2.766796750077928 0 0.78801076186113728 -0.61566146476048833 1 0 0 1 I I -0.70710678118654746 0.70710678118654746 1 forward I I I I #
loop $-1 $-1 $163 $42 #
coedge $-1 $103 $103 $164 $165 reversed $64 $-1 #
face $-1 $-1 $166 $34 $-1 $167 forward single #
loop $-1 $168 $169 $66 #
cone-surface $-1 13.935229161049307 -25.120155359938661 2.766796750077928 0 0.78801076186113728 -0.61566146476048833 1 0 0 1 I I -0.70710678118654746 0.70710678118654746 1 forward I I I I #
loop $-1 $-1 $170 $43 #
coedge $-1 $108 $108 $171 $172 reversed $67 $-1 #
face $-1 $-1 $173 $35 $-1 $174 forward single #
loop $-1 $175 $176 $69 #
cone-surface $-1 22.296366657678874 -25.120155359938661 2.766796750077928 0 0.78801076186113728 -0.61566146476048833 1 0 0 1 I I -0.70710678118654746 0.70710678118654746 1 forward I I I I #
loop $-1 $-1 $177 $44 #
coedge $-1 $113 $113 $178 $179 reversed $70 $-1 #
face $-1 $180 $181 $27 $-1 $182 reversed single #
loop $-1 $-1 $183 $72 #
plane-surface $-1 0 -34.879977527379296 0 0 1 0 0 0 1 forward_v I I I I #
coedge $-1 $184 $185 $186 $187 forward $73 $-1 #
coedge $-1 $188 $75 $189 $190 forward $46 $-1 #
coedge $-1 $75 $188 $191 $192 forward $46 $-1 #
coedge $-1 $193 $194 $75 $121 reversed $195 $-1 #
edge $-1 $196 -34.879977527379296 $197 34.879977527379296 $120 $198 forward 7 unknown #
face $-1 $199 $200 $28 $-1 $201 reversed single #
loop $-1 $-1 $202 $76 #
plane-surface $-1 -27.8704583220986 -139.04448125048049 85.750792638166473 1 0 0 0 0.78801076186113728 -0.61566146476048833 forward_v I I I I #
coedge $-1 $203 $204 $205 $206 reversed $77 $-1 #
coedge $-1 $127 $79 $207 $208 reversed $49 $-1 #
coedge $-1 $79 $126 $203 $209 reversed $49 $-1 #
coedge $-1 $205 $210 $79 $129 forward $211 $-1 #
edge $-1 $212 34.642263097860948 $213 40.486781128741384 $128 $214 forward 7 unknown #
loop $-1 $-1 $135 $80 #
plane-surface $-1 -13.9352291610493 -34.879977527379339 4.3685653361556547 0 -0.78801076186113728 0.61566146476048833 1 0 0 forward_v I I I I #
loop $-1 $-1 $215 $51 #
coedge $-1 $133 $133 $134 $216 reversed $81 $-1 #
coedge $-1 $134 $134 $133 $216 forward $83 $-1 #
coedge $-1 $135 $135 $84 $136 forward $130 $-1 #
edge $-1 $217 1.3177838650638336e-016 $217 6.2831853071796004 $135 $218 forward 7 unknown #
loop $-1 $-1 $142 $85 #
plane-surface $-1 -13.9352291610493 -34.879977527379339 4.3685653361556547 0 -0.78801076186113728 0.61566146476048833 1 0 0 forward_v I I I I #
loop $-1 $-1 $219 $54 #
coedge $-1 $140 $140 $141 $220 reversed $86 $-1 #
coedge $-1 $141 $141 $140 $220 forward $88 $-1 #
coedge $-1 $142 $142 $89 $143 forward $137 $-1 #
edge $-1 $221 1.3177838650638336e-016 $221 6.2831853071796004 $142 $222 forward 7 unknown #
loop $-1 $-1 $149 $90 #
plane-surface $-1 -13.9352291610493 -34.879977527379339 4.3685653361556547 0 -0.78801076186113728 0.61566146476048833 1 0 0 forward_v I I I I #
loop $-1 $-1 $223 $57 #
coedge $-1 $147 $147 $148 $224 reversed $91 $-1 #
coedge $-1 $148 $148 $147 $224 forward $93 $-1 #
coedge $-1 $149 $149 $94 $150 forward $144 $-1 #
edge $-1 $225 1.3177838650638336e-016 $225 6.2831853071796004 $149 $226 forward 7 unknown #
face $-1 $227 $228 $32 $-1 $229 forward single #
loop $-1 $-1 $230 $95 #
plane-surface $-1 0 -34.879977527379296 0 0 1 0 0 0 1 forward_v I I I I #
coedge $-1 $231 $232 $233 $234 reversed $96 $-1 #
coedge $-1 $156 $98 $235 $236 reversed $61 $-1 #
coedge $-1 $98 $155 $237 $238 reversed $61 $-1 #
coedge $-1 $239 $230 $98 $158 forward $152 $-1 #
edge $-1 $240 -38.506830982927525 $241 -31.026188828367886 $157 $242 forward 7 unknown #
loop $-1 $-1 $164 $99 #
plane-surface $-1 -13.9352291610493 -34.879977527379339 4.3685653361556547 0 -0.78801076186113728 0.61566146476048833 1 0 0 forward_v I I I I #
loop $-1 $-1 $243 $63 #
coedge $-1 $162 $162 $163 $244 reversed $100 $-1 #
coedge $-1 $163 $163 $162 $244 forward $102 $-1 #
coedge $-1 $164 $164 $103 $165 forward $159 $-1 #
edge $-1 $245 1.3177838650638336e-016 $245 6.2831853071796004 $164 $246 forward 7 unknown #
loop $-1 $-1 $171 $104 #
plane-surface $-1 -13.9352291610493 -34.879977527379339 4.3685653361556547 0 -0.78801076186113728 0.61566146476048833 1 0 0 forward_v I I I I #
loop $-1 $-1 $247 $66 #
coedge $-1 $169 $169 $170 $248 reversed $105 $-1 #
coedge $-1 $170 $170 $169 $248 forward $107 $-1 #
coedge $-1 $171 $171 $108 $172 forward $166 $-1 #
edge $-1 $249 1.3177838650638336e-016 $249 6.2831853071796004 $171 $250 forward 7 unknown #
loop $-1 $-1 $178 $109 #
plane-surface $-1 -13.9352291610493 -34.879977527379339 4.3685653361556547 0 -0.78801076186113728 0.61566146476048833 1 0 0 forward_v I I I I #
loop $-1 $-1 $251 $69 #
coedge $-1 $176 $176 $177 $252 reversed $110 $-1 #
coedge $-1 $177 $177 $176 $252 forward $112 $-1 #
coedge $-1 $178 $178 $113 $179 forward $173 $-1 #
edge $-1 $253 1.3177838650638336e-016 $253 6.2831853071796004 $178 $254 forward 7 unknown #
face $-1 $255 $256 $27 $-1 $257 reversed single #
loop $-1 $-1 $258 $114 #
plane-surface $-1 -66.093325601977597 0 0 1 0 0 0 0 -1 forward_v I I I I #
coedge $-1 $259 $191 $260 $261 forward $115 $-1 #
coedge $-1 $262 $117 $259 $263 forward $73 $-1 #
coedge $-1 $117 $262 $264 $265 forward $73 $-1 #
coedge $-1 $194 $193 $117 $187 reversed $195 $-1 #
edge $-1 $266 -34.879977527379296 $267 34.879977527379296 $186 $268 forward 7 unknown #
coedge $-1 $119 $118 $269 $270 forward $46 $-1 #
coedge $-1 $271 $272 $118 $190 reversed $256 $-1 #
edge $-1 $197 -66.093325601977597 $273 66.093325601977597 $189 $274 forward 7 unknown #
coedge $-1 $183 $275 $119 $192 reversed $115 $-1 #
edge $-1 $276 -66.093325601977597 $196 66.093325601977597 $191 $277 forward 7 unknown #
coedge $-1 $186 $120 $275 $278 forward $195 $-1 #
coedge $-1 $120 $186 $271 $279 reversed $195 $-1 #
loop $-1 $-1 $193 $255 #
vertex $-1 $121 $280 #
vertex $-1 $121 $281 #
straight-curve $-1 66.093325601977597 0 11.849207490715351 0 1 0 I I #
face $-1 $-1 $211 $28 $-1 $282 forward single #
loop $-1 $-1 $283 $122 #
plane-surface $-1 0 -34.879977527379296 0 0 1 0 0 0 1 forward_v I I I I #
coedge $-1 $284 $285 $286 $287 reversed $123 $-1 #
coedge $-1 $288 $125 $127 $209 forward $77 $-1 #
coedge $-1 $125 $288 $284 $289 forward $77 $-1 #
coedge $-1 $286 $128 $125 $206 forward $211 $-1 #
edge $-1 $213 -6.9676145805246499 $290 20.90284374157395 $205 $291 forward 7 unknown #
coedge $-1 $292 $293 $126 $208 forward $200 $-1 #
edge $-1 $294 -38.506830982927525 $212 -31.026188828367886 $207 $295 forward 7 unknown #
edge $-1 $213 -9.4930710551360846 $294 -6.894077023214679e-014 $127 $296 forward 7 unknown #
coedge $-1 $128 $286 $292 $297 forward $211 $-1 #
loop $-1 $-1 $286 $199 #
vertex $-1 $208 $298 #
vertex $-1 $129 $299 #
straight-curve $-1 0 -69.522240625240244 11.849207490715351 0 1 0 I I #
coedge $-1 $215 $215 $-1 $300 reversed $132 $-1 #
edge $-1 $301 0 $301 6.2831853071796004 $133 $302 forward 7 unknown #
vertex $-1 $136 $303 #
ellipse-curve $-1 -22.296366657678881 -31.957718511939085 8.1088864134355205 0 -0.78801076186113728 0.61566146476048833 2 0 0 1 I I #
coedge $-1 $219 $219 $-1 $304 reversed $139 $-1 #
edge $-1 $305 0 $305 6.2831853071796004 $140 $306 forward 7 unknown #
vertex $-1 $143 $307 #
ellipse-curve $-1 -13.9352291610493 -31.957718511939085 8.1088864134355205 0 -0.78801076186113728 0.61566146476048833 2 0 0 1 I I #
coedge $-1 $223 $223 $-1 $308 reversed $146 $-1 #
edge $-1 $309 0 $309 6.2831853071796004 $147 $310 forward 7 unknown #
vertex $-1 $150 $311 #
ellipse-curve $-1 -5.5740916644197185 -31.957718511939085 8.1088864134355205 0 -0.78801076186113728 0.61566146476048833 2 0 0 1 I I #
face $-1 $-1 $312 $32 $-1 $313 forward single #
loop $-1 $-1 $314 $151 #
plane-surface $-1 0 -139.04448125048049 85.750792638166473 -1 0 0 0 -0.78801076186113728 0.61566146476048833 forward_v I I I I #
coedge $-1 $157 $315 $232 $316 forward $152 $-1 #
coedge $-1 $235 $154 $317 $318 reversed $96 $-1 #
coedge $-1 $154 $235 $230 $316 reversed $96 $-1 #
coedge $-1 $319 $314 $154 $234 forward $228 $-1 #
edge $-1 $320 -9.4930710551360846 $321 -6.894077023214679e-014 $233 $322 forward 7 unknown #
coedge $-1 $232 $231 $155 $236 forward $96 $-1 #
edge $-1 $323 -9.4930710551360846 $240 -6.894077023214679e-014 $155 $324 forward 7 unknown #
coedge $-1 $317 $325 $156 $238 forward $312 $-1 #
edge $-1 $241 34.642263097860948 $323 40.486781128741384 $237 $326 forward 7 unknown #
coedge $-1 $315 $157 $325 $327 reversed $152 $-1 #
vertex $-1 $158 $328 #
vertex $-1 $158 $329 #
straight-curve $-1 27.870458322098607 -34.879977527379296 42.875396319083237 0 0 1 I I #
coedge $-1 $243 $243 $-1 $330 reversed $161 $-1 #
edge $-1 $331 0 $331 6.2831853071796004 $162 $332 forward 7 unknown #
vertex $-1 $165 $333 #
ellipse-curve $-1 5.5740916644197114 -31.957718511939085 8.1088864134355205 0 -0.78801076186113728 0.61566146476048833 2 0 0 1 I I #
coedge $-1 $247 $247 $-1 $334 reversed $168 $-1 #
edge $-1 $335 0 $335 6.2831853071796004 $169 $336 forward 7 unknown #
vertex $-1 $172 $337 #
ellipse-curve $-1 13.935229161049307 -31.957718511939085 8.1088864134355205 0 -0.78801076186113728 0.61566146476048833 2 0 0 1 I I #
coedge $-1 $251 $251 $-1 $338 reversed $175 $-1 #
edge $-1 $339 0 $339 6.2831853071796004 $176 $340 forward 7 unknown #
vertex $-1 $179 $341 #
ellipse-curve $-1 22.296366657678874 -31.957718511939085 8.1088864134355205 0 -0.78801076186113728 0.61566146476048833 2 0 0 1 I I #
face $-1 $-1 $195 $27 $-1 $342 reversed single #
loop $-1 $-1 $271 $180 #
plane-surface $-1 0 34.879977527379296 0 0 -1 0 0 0 -1 forward_v I I I I #
coedge $-1 $343 $269 $272 $344 forward $181 $-1 #
coedge $-1 $275 $183 $184 $263 reversed $115 $-1 #
coedge $-1 $269 $343 $183 $261 reversed $181 $-1 #
edge $-1 $276 -11.849207490715351 $345 11.849207490715351 $260 $346 forward 7 unknown #
coedge $-1 $185 $184 $343 $347 forward $73 $-1 #
edge $-1 $267 -66.093325601977597 $345 66.093325601977597 $259 $348 forward 7 unknown #
coedge $-1 $272 $271 $185 $265 reversed $256 $-1 #
edge $-1 $349 -66.093325601977597 $266 66.093325601977597 $264 $350 forward 7 unknown #
vertex $-1 $187 $351 #
vertex $-1 $278 $352 #
straight-curve $-1 66.093325601977597 0 -11.849207490715351 0 -1 0 I I #
coedge $-1 $258 $260 $188 $270 reversed $181 $-1 #
edge $-1 $273 -34.879977527379296 $276 34.879977527379296 $269 $353 forward 7 unknown #
coedge $-1 $264 $189 $194 $279 forward $256 $-1 #
coedge $-1 $189 $264 $258 $344 reversed $256 $-1 #
vertex $-1 $190 $354 #
straight-curve $-1 0 34.879977527379296 11.849207490715351 -1 0 0 I I #
coedge $-1 $191 $259 $193 $278 reversed $115 $-1 #
vertex $-1 $270 $355 #
straight-curve $-1 0 -34.879977527379296 11.849207490715351 1 0 0 I I #
edge $-1 $196 -11.849207490715351 $267 11.849207490715351 $193 $356 forward 7 unknown #
edge $-1 $197 -11.849207490715351 $266 11.849207490715351 $194 $357 forward 7 unknown #
point $-1 66.093325601977597 -34.879977527379296 11.849207490715351 #
point $-1 66.093325601977597 34.879977527379296 11.849207490715351 #
plane-surface $-1 0 0 11.849207490715351 0 0 1 1 0 0 forward_v I I I I #
coedge $-1 $293 $292 $285 $358 forward $200 $-1 #
coedge $-1 $285 $202 $204 $289 reversed $123 $-1 #
coedge $-1 $202 $284 $283 $358 reversed $123 $-1 #
coedge $-1 $210 $205 $202 $287 forward $211 $-1 #
edge $-1 $290 -40.486781128741384 $359 -34.642263097860948 $286 $360 forward 7 unknown #
coedge $-1 $204 $203 $293 $361 reversed $77 $-1 #
edge $-1 $362 6.894077023214679e-014 $290 9.4930710551360846 $284 $363 forward 7 unknown #
vertex $-1 $206 $364 #
straight-curve $-1 -6.9676145805246499 -29.035459496498863 11.849207490715351 -1 0 0 I I #
coedge $-1 $283 $207 $210 $297 reversed $200 $-1 #
coedge $-1 $207 $283 $288 $361 forward $200 $-1 #
vertex $-1 $208 $365 #
straight-curve $-1 0 -34.879977527379296 42.875396319083237 0 0 1 I I #
straight-curve $-1 0 -34.879977527379339 4.3685653361556547 0 -0.61566146476048833 -0.78801076186113728 I I #
edge $-1 $359 -27.8704583220986 $212 0 $292 $366 forward 7 unknown #
point $-1 0 -34.879977527379296 11.849207490715351 #
point $-1 0 -29.035459496498863 11.849207490715351 #
edge $-1 $367 1 $367 0 $215 $-1 forward 7 unknown #
vertex $-1 $216 $368 #
ellipse-curve $-1 -22.296366657678881 -25.908166121799798 3.3824582148384161 0 -0.78801076186113728 0.61566146476048833 2 0 0 1 I I #
point $-1 -20.296366657678881 -31.957718511939046 8.1088864134354903 #
edge $-1 $369 1 $369 0 $219 $-1 forward 7 unknown #
vertex $-1 $220 $370 #
ellipse-curve $-1 -13.9352291610493 -25.908166121799798 3.3824582148384161 0 -0.78801076186113728 0.61566146476048833 2 0 0 1 I I #
point $-1 -11.9352291610493 -31.957718511939046 8.1088864134354903 #
edge $-1 $371 1 $371 0 $223 $-1 forward 7 unknown #
vertex $-1 $224 $372 #
ellipse-curve $-1 -5.5740916644197185 -25.908166121799798 3.3824582148384161 0 -0.78801076186113728 0.61566146476048833 2 0 0 1 I I #
point $-1 -3.5740916644197185 -31.957718511939046 8.1088864134354903 #
loop $-1 $-1 $317 $227 #
plane-surface $-1 0 0 11.849207490715351 0 0 1 1 0 0 forward_v I I I I #
coedge $-1 $233 $319 $373 $374 reversed $228 $-1 #
coedge $-1 $230 $239 $319 $375 forward $152 $-1 #
edge $-1 $321 6.9676145805246499 $240 34.838072902623253 $230 $376 forward 7 unknown #
coedge $-1 $373 $237 $231 $318 forward $312 $-1 #
edge $-1 $323 -34.838072902623253 $320 -6.9676145805246499 $317 $377 forward 7 unknown #
coedge $-1 $314 $233 $315 $375 reversed $228 $-1 #
vertex $-1 $318 $378 #
vertex $-1 $316 $379 #
straight-curve $-1 0 -34.879977527379339 4.3685653361556547 0 -0.61566146476048833 -0.78801076186113728 I I #
vertex $-1 $238 $380 #
straight-curve $-1 27.870458322098607 -34.879977527379339 4.3685653361556547 0 -0.61566146476048833 -0.78801076186113728 I I #
coedge $-1 $237 $373 $239 $327 forward $312 $-1 #
straight-curve $-1 27.870458322098607 -69.522240625240244 11.849207490715351 0 1 0 I I #
edge $-1 $381 0 $241 27.870458322098607 $239 $382 forward 7 unknown #
point $-1 27.870458322098607 -34.879977527379296 4.3685653361557089 #
point $-1 27.870458322098607 -34.879977527379296 11.849207490715351 #
edge $-1 $383 1 $383 0 $243 $-1 forward 7 unknown #
vertex $-1 $244 $384 #
ellipse-curve $-1 5.5740916644197114 -25.908166121799798 3.3824582148384161 0 -0.78801076186113728 0.61566146476048833 2 0 0 1 I I #
point $-1 7.5740916644197114 -31.957718511939046 8.1088864134354903 #
edge $-1 $385 1 $385 0 $247 $-1 forward 7 unknown #
vertex $-1 $248 $386 #
ellipse-curve $-1 13.935229161049307 -25.908166121799798 3.3824582148384161 0 -0.78801076186113728 0.61566146476048833 2 0 0 1 I I #
point $-1 15.935229161049307 -31.957718511939046 8.1088864134354903 #
edge $-1 $387 1 $387 0 $251 $-1 forward 7 unknown #
vertex $-1 $252 $388 #
ellipse-curve $-1 22.296366657678874 -25.908166121799798 3.3824582148384161 0 -0.78801076186113728 0.61566146476048833 2 0 0 1 I I #
point $-1 24.296366657678874 -31.957718511939046 8.1088864134354903 #
plane-surface $-1 66.093325601977597 0 0 -1 0 0 0 0 1 forward_v I I I I #
coedge $-1 $260 $258 $262 $347 reversed $181 $-1 #
edge $-1 $273 -11.849207490715351 $349 11.849207490715351 $272 $389 forward 7 unknown #
vertex $-1 $347 $390 #
straight-curve $-1 -66.093325601977597 -34.879977527379296 0 0 0 -1 I I #
edge $-1 $345 -34.879977527379296 $349 34.879977527379296 $343 $391 forward 7 unknown #
straight-curve $-1 0 -34.879977527379296 -11.849207490715351 -1 0 0 I I #
vertex $-1 $265 $392 #
straight-curve $-1 0 34.879977527379296 -11.849207490715351 1 0 0 I I #
point $-1 66.093325601977597 34.879977527379296 -11.849207490715351 #
point $-1 66.093325601977597 -34.879977527379296 -11.849207490715351 #
straight-curve $-1 -66.093325601977597 0 11.849207490715351 0 -1 0 I I #
point $-1 -66.093325601977597 34.879977527379296 11.849207490715351 #
point $-1 -66.093325601977597 -34.879977527379296 11.849207490715351 #
straight-curve $-1 66.093325601977597 -34.879977527379296 0 0 0 -1 I I #
straight-curve $-1 66.093325601977597 34.879977527379296 0 0 0 -1 I I #
edge $-1 $359 31.026188828367886 $362 38.506830982927525 $283 $393 forward 7 unknown #
vertex $-1 $297 $394 #
straight-curve $-1 -27.8704583220986 -69.522240625240244 11.849207490715351 0 -1 0 I I #
edge $-1 $362 -20.90284374157395 $294 6.9676145805246499 $293 $395 forward 7 unknown #
vertex $-1 $361 $396 #
straight-curve $-1 -27.8704583220986 -34.879977527379339 4.3685653361556547 0 0.61566146476048833 0.78801076186113728 I I #
point $-1 -27.8704583220986 -29.035459496498863 11.849207490715351 #
point $-1 0 -34.879977527379296 4.3685653361557089 #
straight-curve $-1 0 -34.879977527379296 11.849207490715351 1 0 0 I I #
vertex $-1 $300 $397 #
point $-1 -20.296366657678881 -25.908166121799798 3.3824582148384161 #
vertex $-1 $304 $398 #
point $-1 -11.9352291610493 -25.908166121799798 3.3824582148384161 #
vertex $-1 $308 $399 #
point $-1 -3.5740916644197185 -25.908166121799798 3.3824582148384161 #
coedge $-1 $325 $317 $314 $374 forward $312 $-1 #
edge $-1 $320 -40.486781128741384 $381 -34.642263097860948 $373 $400 forward 7 unknown #
edge $-1 $381 31.026188828367886 $321 38.506830982927525 $315 $401 forward 7 unknown #
straight-curve $-1 -6.9676145805246499 -34.879977527379296 4.3685653361557115 1 0 0 I I #
straight-curve $-1 -6.9676145805246499 -29.035459496498863 11.849207490715351 -1 0 0 I I #
point $-1 0 -29.035459496498863 11.849207490715351 #
point $-1 0 -34.879977527379296 4.3685653361557089 #
point $-1 27.870458322098607 -29.035459496498863 11.849207490715351 #
vertex $-1 $327 $402 #
straight-curve $-1 0 -34.879977527379296 11.849207490715351 1 0 0 I I #
vertex $-1 $330 $403 #
point $-1 7.5740916644197114 -25.908166121799798 3.3824582148384161 #
vertex $-1 $334 $404 #
point $-1 15.935229161049307 -25.908166121799798 3.3824582148384161 #
vertex $-1 $338 $405 #
point $-1 24.296366657678874 -25.908166121799798 3.3824582148384161 #
straight-curve $-1 -66.093325601977597 34.879977527379296 0 0 0 -1 I I #
point $-1 -66.093325601977597 -34.879977527379296 -11.849207490715351 #
straight-curve $-1 -66.093325601977597 0 -11.849207490715351 0 1 0 I I #
point $-1 -66.093325601977597 34.879977527379296 -11.849207490715351 #
straight-curve $-1 -27.8704583220986 -34.879977527379296 42.875396319083237 0 0 -1 I I #
point $-1 -27.8704583220986 -34.879977527379296 11.849207490715351 #
straight-curve $-1 -6.9676145805246499 -34.879977527379296 4.3685653361557115 1 0 0 I I #
point $-1 -27.8704583220986 -34.879977527379296 4.3685653361557089 #
point $-1 -22.296366657678881 -24.332144598077523 2.1511352853174399 #
point $-1 -13.9352291610493 -24.332144598077523 2.1511352853174399 #
point $-1 -5.5740916644197185 -24.332144598077523 2.1511352853174399 #
straight-curve $-1 0 -69.522240625240244 11.849207490715351 0 -1 0 I I #
straight-curve $-1 0 -34.879977527379296 42.875396319083237 0 0 -1 I I #
point $-1 0 -34.879977527379296 11.849207490715351 #
point $-1 5.5740916644197114 -24.332144598077523 2.1511352853174399 #
point $-1 13.935229161049307 -24.332144598077523 2.1511352853174399 #
point $-1 22.296366657678874 -24.332144598077523 2.1511352853174399 #
End-of-ACIS-data 