500 0 10 0           
7 Unknown 11 ACIS 5.0 NT 24 Fri Mar 26 03:04:55 1999 
-1 9.9999999999999995e-007 1e-010 
body $-1 $10 $-1 $11 #
body $-1 $12 $-1 $13 #
body $-1 $14 $-1 $15 #
body $-1 $16 $-1 $17 #
body $-1 $18 $-1 $19 #
body $-1 $20 $-1 $21 #
body $-1 $22 $-1 $23 #
body $-1 $24 $-1 $25 #
body $-1 $26 $-1 $27 #
body $-1 $28 $-1 $29 #
lump $-1 $-1 $30 $0 #
transform $-1 1 0 0 0 1 0 0 0 1 77.011627552110355 34.527494675818438 11.285950246447751 1 rotate no_reflect no_shear #
lump $-1 $-1 $31 $1 #
transform $-1 1 0 0 0 1 0 0 0 1 77.011627552110355 34.527494675818438 11.285950246447751 1 rotate no_reflect no_shear #
lump $-1 $-1 $32 $2 #
transform $-1 1 0 0 0 1 0 0 0 1 77.011627552110355 34.527494675818438 11.285950246447751 1 rotate no_reflect no_shear #
lump $-1 $-1 $33 $3 #
transform $-1 1 0 0 0 1 0 0 0 1 77.011627552110355 34.527494675818438 11.285950246447751 1 rotate no_reflect no_shear #
lump $-1 $-1 $34 $4 #
transform $-1 1 0 0 0 1 0 0 0 1 77.011627552110355 34.527494675818438 11.285950246447751 1 rotate no_reflect no_shear #
lump $-1 $-1 $35 $5 #
transform $-1 1 0 0 0 1 0 0 0 1 77.011627552110355 34.527494675818438 11.285950246447751 1 rotate no_reflect no_shear #
lump $-1 $-1 $36 $6 #
transform $-1 1 0 0 0 1 0 0 0 1 77.011627552110355 34.527494675818438 11.285950246447751 1 rotate no_reflect no_shear #
lump $-1 $-1 $37 $7 #
transform $-1 1 0 0 0 1 0 0 0 1 77.011627552110355 34.527494675818438 11.285950246447751 1 rotate no_reflect no_shear #
lump $-1 $-1 $38 $8 #
transform $-1 1 0 0 0 1 0 0 0 1 77.011627552110355 34.527494675818438 11.285950246447751 1 rotate no_reflect no_shear #
lump $-1 $-1 $39 $9 #
transform $-1 1 0 0 0 1 0 0 0 1 77.011627552110355 34.527494675818438 11.285950246447751 1 rotate no_reflect no_shear #
shell $-1 $-1 $-1 $40 $-1 $10 #
shell $-1 $-1 $-1 $41 $-1 $12 #
shell $-1 $-1 $-1 $42 $-1 $14 #
shell $-1 $-1 $-1 $43 $-1 $16 #
shell $-1 $-1 $-1 $44 $-1 $18 #
shell $-1 $-1 $-1 $45 $-1 $20 #
shell $-1 $-1 $-1 $46 $-1 $22 #
shell $-1 $-1 $-1 $47 $-1 $24 #
shell $-1 $-1 $-1 $48 $-1 $26 #
shell $-1 $-1 $-1 $49 $-1 $28 #
face $-1 $50 $51 $30 $-1 $52 forward single #
face $-1 $53 $54 $31 $-1 $55 forward single #
face $-1 $56 $57 $32 $-1 $58 reversed single #
face $-1 $59 $60 $33 $-1 $61 forward single #
face $-1 $62 $63 $34 $-1 $64 forward single #
face $-1 $65 $66 $35 $-1 $67 forward single #
face $-1 $68 $69 $36 $-1 $70 reversed single #
face $-1 $71 $72 $37 $-1 $73 forward single #
face $-1 $74 $75 $38 $-1 $76 forward single #
face $-1 $77 $78 $39 $-1 $79 forward single #
face $-1 $80 $81 $30 $-1 $82 reversed single #
loop $-1 $-1 $83 $40 #
plane-surface $-1 0 0 11.285950246447751 0 0 1 1 0 0 forward_v I I I I #
face $-1 $84 $85 $31 $-1 $86 reversed single #
loop $-1 $-1 $87 $41 #
plane-surface $-1 0 -34.527494675818438 0 0 1 0 0 0 1 forward_v I I I I #
face $-1 $88 $89 $32 $-1 $90 reversed single #
loop $-1 $-1 $91 $42 #
plane-surface $-1 -193.25445503299534 23.216982092944797 105.80138141856924 0 1 0 -0.75470958851134928 0 0.65605901945558964 forward_v I I I I #
face $-1 $92 $93 $33 $-1 $94 forward single #
loop $-1 $95 $96 $43 #
cone-surface $-1 -73.794784843718105 25.479084609519525 7.6914634642641087 0.75470958851134928 0 -0.65605901945558964 0.32802950972779482 0 0.37735479425567464 1 I I 0 1 0.5 forward I I I I #
face $-1 $97 $98 $34 $-1 $99 forward single #
loop $-1 $100 $101 $44 #
cone-surface $-1 -73.794784843718105 28.872238384381617 7.6914634642641087 0.75470958851134928 0 -0.65605901945558964 0.32802950972779482 0 0.37735479425567464 1 I I 0 1 0.5 forward I I I I #
face $-1 $102 $103 $35 $-1 $104 forward single #
loop $-1 $105 $106 $45 #
cone-surface $-1 -73.794784843718105 32.26539215924371 7.6914634642641087 0.75470958851134928 0 -0.65605901945558964 0.32802950972779482 0 0.37735479425567464 1 I I 0 1 0.5 forward I I I I #
face $-1 $107 $108 $36 $-1 $109 reversed single #
loop $-1 $-1 $110 $46 #
plane-surface $-1 24.315772218635814 8.2025147047830274 216.68062365686021 0 -1 0 -0.51503808176128008 0 -0.85716729658548041 forward_v I I I I #
face $-1 $111 $112 $37 $-1 $113 forward single #
loop $-1 $114 $115 $47 #
cone-surface $-1 71.650104545541993 -0.77855918419034253 7.6341857960458661 -0.51503808176128008 0 -0.85716729658548041 0.4285836482927402 0 -0.25751904088064004 1 I I 0 1 0.5 forward I I I I #
face $-1 $116 $117 $38 $-1 $118 forward single #
loop $-1 $119 $120 $48 #
cone-surface $-1 71.650104545541993 2.589343524174673 7.6341857960458661 -0.51503808176128008 0 -0.85716729658548041 0.4285836482927402 0 -0.25751904088064004 1 I I 0 1 0.5 forward I I I I #
face $-1 $121 $122 $39 $-1 $123 forward single #
loop $-1 $124 $125 $49 #
cone-surface $-1 71.650104545541993 5.9572462325396884 7.6341857960458661 -0.51503808176128008 0 -0.85716729658548041 0.4285836482927402 0 -0.25751904088064004 1 I I 0 1 0.5 forward I I I I #
face $-1 $126 $127 $30 $-1 $128 reversed single #
loop $-1 $-1 $129 $50 #
plane-surface $-1 0 0 -11.285950246447751 0 0 1 1 0 0 forward_v I I I I #
coedge $-1 $130 $131 $132 $133 forward $51 $-1 #
face $-1 $134 $135 $31 $-1 $136 reversed single #
loop $-1 $-1 $137 $53 #
plane-surface $-1 0 0 -11.285950246447751 0 0 1 1 0 0 forward_v I I I I #
coedge $-1 $138 $139 $140 $141 forward $54 $-1 #
face $-1 $142 $143 $32 $-1 $144 reversed single #
loop $-1 $-1 $145 $56 #
plane-surface $-1 -77.011627552110355 28.872238384381617 4.7530357015360494 -0.75470958851134928 0 0.65605901945558964 0.65605901945558964 0 0.75470958851134928 forward_v I I I I #
coedge $-1 $146 $147 $148 $149 reversed $57 $-1 #
face $-1 $-1 $150 $33 $-1 $151 forward single #
loop $-1 $152 $153 $59 #
cone-surface $-1 -73.228752652334592 25.479084609519525 7.1994191996724162 0.75470958851134928 0 -0.65605901945558964 0.16401475486389741 0 0.18867739712783732 1 I I -0.70710678118654746 0.70710678118654746 0.25 forward I I I I #
loop $-1 $-1 $154 $43 #
coedge $-1 $96 $96 $155 $156 reversed $60 $-1 #
face $-1 $-1 $157 $34 $-1 $158 forward single #
loop $-1 $159 $160 $62 #
cone-surface $-1 -73.228752652334592 28.872238384381617 7.1994191996724162 0.75470958851134928 0 -0.65605901945558964 0.16401475486389741 0 0.18867739712783732 1 I I -0.70710678118654746 0.70710678118654746 0.25 forward I I I I #
loop $-1 $-1 $161 $44 #
coedge $-1 $101 $101 $162 $163 reversed $63 $-1 #
face $-1 $-1 $164 $35 $-1 $165 forward single #
loop $-1 $166 $167 $65 #
cone-surface $-1 -73.228752652334592 32.26539215924371 7.1994191996724162 0.75470958851134928 0 -0.65605901945558964 0.16401475486389741 0 0.18867739712783732 1 I I -0.70710678118654746 0.70710678118654746 0.25 forward I I I I #
loop $-1 $-1 $168 $45 #
coedge $-1 $106 $106 $169 $170 reversed $66 $-1 #
face $-1 $171 $172 $36 $-1 $173 reversed single #
loop $-1 $-1 $174 $68 #
plane-surface $-1 -55.012069636870308 2.589343524174673 84.656926467879543 0.51503808176128008 0 0.85716729658548041 0.85716729658548041 0 -0.51503808176128008 forward_v I I I I #
coedge $-1 $175 $176 $177 $178 reversed $69 $-1 #
face $-1 $-1 $179 $37 $-1 $180 forward single #
loop $-1 $181 $182 $71 #
cone-surface $-1 71.11676655574243 -0.77855918419034253 6.7465623385347691 -0.51503808176128008 0 -0.85716729658548041 0.2142918241463701 0 -0.12875952044032002 1 I I -0.70710678118654746 0.70710678118654746 0.25 forward I I I I #
loop $-1 $-1 $183 $47 #
coedge $-1 $115 $115 $184 $185 reversed $72 $-1 #
face $-1 $-1 $186 $38 $-1 $187 forward single #
loop $-1 $188 $189 $74 #
cone-surface $-1 71.11676655574243 2.589343524174673 6.7465623385347691 -0.51503808176128008 0 -0.85716729658548041 0.2142918241463701 0 -0.12875952044032002 1 I I -0.70710678118654746 0.70710678118654746 0.25 forward I I I I #
loop $-1 $-1 $190 $48 #
coedge $-1 $120 $120 $191 $192 reversed $75 $-1 #
face $-1 $-1 $193 $39 $-1 $194 forward single #
loop $-1 $195 $196 $77 #
cone-surface $-1 71.11676655574243 5.9572462325396884 6.7465623385347691 -0.51503808176128008 0 -0.85716729658548041 0.2142918241463701 0 -0.12875952044032002 1 I I -0.70710678118654746 0.70710678118654746 0.25 forward I I I I #
loop $-1 $-1 $197 $49 #
coedge $-1 $125 $125 $198 $199 reversed $78 $-1 #
face $-1 $200 $201 $30 $-1 $202 reversed single #
loop $-1 $-1 $203 $80 #
plane-surface $-1 0 -34.527494675818438 0 0 1 0 0 0 1 forward_v I I I I #
coedge $-1 $204 $205 $206 $207 forward $81 $-1 #
coedge $-1 $208 $83 $209 $210 forward $51 $-1 #
coedge $-1 $83 $208 $211 $212 forward $51 $-1 #
coedge $-1 $213 $214 $83 $133 reversed $215 $-1 #
edge $-1 $216 -34.527494675818438 $217 34.527494675818438 $132 $218 forward 7 unknown #
face $-1 $219 $220 $31 $-1 $221 forward single #
loop $-1 $-1 $222 $84 #
plane-surface $-1 77.011627552110355 0 0 -1 0 0 0 0 1 forward_v I I I I #
coedge $-1 $223 $224 $225 $226 forward $85 $-1 #
coedge $-1 $225 $87 $222 $227 reversed $54 $-1 #
coedge $-1 $87 $225 $228 $229 reversed $54 $-1 #
coedge $-1 $230 $231 $87 $141 reversed $220 $-1 #
edge $-1 $232 -77.011627552110355 $233 77.011627552110355 $140 $234 forward 7 unknown #
face $-1 $235 $236 $32 $-1 $237 reversed single #
loop $-1 $-1 $238 $88 #
plane-surface $-1 0 34.527494675818438 0 0 -1 0 0 0 -1 forward_v I I I I #
coedge $-1 $239 $240 $241 $242 reversed $89 $-1 #
coedge $-1 $147 $91 $243 $244 reversed $57 $-1 #
coedge $-1 $91 $146 $239 $245 reversed $57 $-1 #
coedge $-1 $241 $246 $91 $149 forward $247 $-1 #
edge $-1 $248 19.615599964387314 $249 25.294575792660467 $148 $250 forward 7 unknown #
loop $-1 $-1 $155 $92 #
plane-surface $-1 -77.011627552110355 28.872238384381617 4.7530357015360494 -0.75470958851134928 0 0.65605901945558964 0.65605901945558964 0 0.75470958851134928 forward_v I I I I #
loop $-1 $-1 $251 $59 #
coedge $-1 $153 $153 $154 $252 reversed $93 $-1 #
coedge $-1 $154 $154 $153 $252 forward $95 $-1 #
coedge $-1 $155 $155 $96 $156 forward $150 $-1 #
edge $-1 $253 0 $253 6.2831853071796004 $155 $254 forward 7 unknown #
loop $-1 $-1 $162 $97 #
plane-surface $-1 -77.011627552110355 28.872238384381617 4.7530357015360494 -0.75470958851134928 0 0.65605901945558964 0.65605901945558964 0 0.75470958851134928 forward_v I I I I #
loop $-1 $-1 $255 $62 #
coedge $-1 $160 $160 $161 $256 reversed $98 $-1 #
coedge $-1 $161 $161 $160 $256 forward $100 $-1 #
coedge $-1 $162 $162 $101 $163 forward $157 $-1 #
edge $-1 $257 0 $257 6.2831853071796004 $162 $258 forward 7 unknown #
loop $-1 $-1 $169 $102 #
plane-surface $-1 -77.011627552110355 28.872238384381617 4.7530357015360494 -0.75470958851134928 0 0.65605901945558964 0.65605901945558964 0 0.75470958851134928 forward_v I I I I #
loop $-1 $-1 $259 $65 #
coedge $-1 $167 $167 $168 $260 reversed $103 $-1 #
coedge $-1 $168 $168 $167 $260 forward $105 $-1 #
coedge $-1 $169 $169 $106 $170 forward $164 $-1 #
edge $-1 $261 0 $261 6.2831853071796004 $169 $262 forward 7 unknown #
face $-1 $263 $264 $36 $-1 $265 forward single #
loop $-1 $-1 $266 $107 #
plane-surface $-1 24.315772218635814 -3.0238276564336815 216.68062365686021 0 1 0 0.51503808176128008 0 0.85716729658548041 forward_v I I I I #
coedge $-1 $267 $268 $269 $270 reversed $108 $-1 #
coedge $-1 $176 $110 $271 $272 reversed $69 $-1 #
coedge $-1 $110 $175 $267 $273 reversed $69 $-1 #
coedge $-1 $269 $274 $110 $178 forward $264 $-1 #
edge $-1 $275 -64.853741442792455 $276 -54.939852368374268 $177 $277 forward 7 unknown #
loop $-1 $-1 $184 $111 #
plane-surface $-1 -55.012069636870308 2.589343524174673 84.656926467879543 0.51503808176128008 0 0.85716729658548041 0.85716729658548041 0 -0.51503808176128008 forward_v I I I I #
loop $-1 $-1 $278 $71 #
coedge $-1 $182 $182 $183 $279 reversed $112 $-1 #
coedge $-1 $183 $183 $182 $279 forward $114 $-1 #
coedge $-1 $184 $184 $115 $185 forward $179 $-1 #
edge $-1 $280 0 $280 6.2831853071796004 $184 $281 forward 7 unknown #
loop $-1 $-1 $191 $116 #
plane-surface $-1 -55.012069636870308 2.589343524174673 84.656926467879543 0.51503808176128008 0 0.85716729658548041 0.85716729658548041 0 -0.51503808176128008 forward_v I I I I #
loop $-1 $-1 $282 $74 #
coedge $-1 $189 $189 $190 $283 reversed $117 $-1 #
coedge $-1 $190 $190 $189 $283 forward $119 $-1 #
coedge $-1 $191 $191 $120 $192 forward $186 $-1 #
edge $-1 $284 0 $284 6.2831853071796004 $191 $285 forward 7 unknown #
loop $-1 $-1 $198 $121 #
plane-surface $-1 -55.012069636870308 2.589343524174673 84.656926467879543 0.51503808176128008 0 0.85716729658548041 0.85716729658548041 0 -0.51503808176128008 forward_v I I I I #
loop $-1 $-1 $286 $77 #
coedge $-1 $196 $196 $197 $287 reversed $122 $-1 #
coedge $-1 $197 $197 $196 $287 forward $124 $-1 #
coedge $-1 $198 $198 $125 $199 forward $193 $-1 #
edge $-1 $288 0 $288 6.2831853071796004 $198 $289 forward 7 unknown #
face $-1 $290 $291 $30 $-1 $292 reversed single #
loop $-1 $-1 $293 $126 #
plane-surface $-1 -77.011627552110355 0 0 1 0 0 0 0 -1 forward_v I I I I #
coedge $-1 $211 $294 $213 $295 reversed $127 $-1 #
coedge $-1 $296 $129 $294 $297 forward $81 $-1 #
coedge $-1 $129 $296 $298 $299 forward $81 $-1 #
coedge $-1 $214 $213 $129 $207 reversed $215 $-1 #
edge $-1 $300 -34.527494675818438 $301 34.527494675818438 $206 $302 forward 7 unknown #
coedge $-1 $131 $130 $303 $304 forward $51 $-1 #
coedge $-1 $305 $306 $130 $210 reversed $291 $-1 #
edge $-1 $217 -77.011627552110355 $307 77.011627552110355 $209 $308 forward 7 unknown #
coedge $-1 $309 $203 $131 $212 reversed $127 $-1 #
edge $-1 $310 -77.011627552110355 $216 77.011627552110355 $211 $311 forward 7 unknown #
coedge $-1 $206 $132 $203 $295 forward $215 $-1 #
coedge $-1 $132 $206 $305 $312 reversed $215 $-1 #
loop $-1 $-1 $213 $290 #
vertex $-1 $133 $313 #
vertex $-1 $133 $314 #
straight-curve $-1 77.011627552110355 0 11.285950246447751 0 1 0 I I #
face $-1 $315 $316 $31 $-1 $317 reversed single #
loop $-1 $-1 $231 $134 #
plane-surface $-1 0 -38.680477754359458 -5.6428717941100146 0 0 1 1 0 0 forward_v I I I I #
coedge $-1 $318 $319 $138 $227 forward $135 $-1 #
coedge $-1 $320 $137 $319 $321 forward $85 $-1 #
coedge $-1 $137 $320 $322 $323 forward $85 $-1 #
coedge $-1 $139 $138 $137 $226 reversed $54 $-1 #
edge $-1 $324 -77.011627552110355 $325 77.011627552110355 $137 $326 forward 7 unknown #
edge $-1 $325 -11.285950246447751 $233 -5.6428717941100146 $222 $327 forward 7 unknown #
coedge $-1 $322 $328 $139 $229 forward $329 $-1 #
edge $-1 $232 5.6428717941100146 $324 11.285950246447751 $228 $330 forward 7 unknown #
coedge $-1 $331 $140 $328 $332 forward $220 $-1 #
coedge $-1 $140 $331 $318 $333 forward $220 $-1 #
vertex $-1 $229 $334 #
vertex $-1 $333 $335 #
straight-curve $-1 0 -34.527494675818438 -5.6428717941100146 1 0 0 I I #
face $-1 $-1 $247 $32 $-1 $336 forward single #
loop $-1 $-1 $337 $142 #
plane-surface $-1 -77.011627552110355 0 0 1 0 0 0 0 -1 forward_v I I I I #
coedge $-1 $338 $339 $240 $340 forward $143 $-1 #
coedge $-1 $341 $145 $147 $245 forward $89 $-1 #
coedge $-1 $145 $341 $238 $340 reversed $89 $-1 #
coedge $-1 $342 $148 $145 $242 forward $247 $-1 #
edge $-1 $249 8.7808629007539878 $343 20.09137548362763 $241 $344 forward 7 unknown #
coedge $-1 $345 $337 $146 $244 forward $236 $-1 #
edge $-1 $346 -48.147655007748568 $248 -41.614740462836863 $243 $347 forward 7 unknown #
edge $-1 $249 -8.6561965613790015 $346 0 $147 $348 forward 7 unknown #
coedge $-1 $148 $342 $345 $349 forward $247 $-1 #
loop $-1 $-1 $241 $235 #
vertex $-1 $244 $350 #
vertex $-1 $149 $351 #
straight-curve $-1 -96.627227516497669 23.216982092944797 11.285950246447754 1 0 0 I I #
coedge $-1 $251 $251 $-1 $352 reversed $152 $-1 #
edge $-1 $353 0 $353 6.2831853071796004 $153 $354 forward 7 unknown #
vertex $-1 $156 $355 #
ellipse-curve $-1 -74.172139637973771 25.479084609519525 8.0194929739919019 -0.75470958851134928 0 0.65605901945558964 0.32802950972779482 0 0.37735479425567464 1 I I #
coedge $-1 $255 $255 $-1 $356 reversed $159 $-1 #
edge $-1 $357 0 $357 6.2831853071796004 $160 $358 forward 7 unknown #
vertex $-1 $163 $359 #
ellipse-curve $-1 -74.172139637973771 28.872238384381617 8.0194929739919019 -0.75470958851134928 0 0.65605901945558964 0.32802950972779482 0 0.37735479425567464 1 I I #
coedge $-1 $259 $259 $-1 $360 reversed $166 $-1 #
edge $-1 $361 0 $361 6.2831853071796004 $167 $362 forward 7 unknown #
vertex $-1 $170 $363 #
ellipse-curve $-1 -74.172139637973771 32.26539215924371 8.0194929739919019 -0.75470958851134928 0 0.65605901945558964 0.32802950972779482 0 0.37735479425567464 1 I I #
face $-1 $-1 $364 $36 $-1 $365 reversed single #
loop $-1 $-1 $177 $171 #
plane-surface $-1 0 0 11.285950246447751 0 0 1 1 0 0 forward_v I I I I #
coedge $-1 $366 $367 $368 $369 reversed $172 $-1 #
coedge $-1 $370 $174 $176 $273 forward $108 $-1 #
coedge $-1 $174 $370 $366 $371 forward $108 $-1 #
coedge $-1 $368 $177 $174 $270 forward $264 $-1 #
edge $-1 $276 -6.9078429426956909 $372 4.3184994185210179 $269 $373 forward 7 unknown #
coedge $-1 $374 $375 $175 $272 forward $364 $-1 #
edge $-1 $376 -103.01122721605668 $275 -97.054361581982349 $271 $377 forward 7 unknown #
edge $-1 $276 142.45738095817001 $376 154.02325510422071 $176 $378 forward 7 unknown #
coedge $-1 $177 $368 $374 $379 forward $264 $-1 #
vertex $-1 $272 $380 #
vertex $-1 $178 $381 #
straight-curve $-1 12.157886109317907 8.2025147047830274 11.285950246447754 -1 0 0 I I #
coedge $-1 $278 $278 $-1 $382 reversed $181 $-1 #
edge $-1 $383 0 $383 6.2831853071796004 $182 $384 forward 7 unknown #
vertex $-1 $185 $385 #
ellipse-curve $-1 72.054683014901244 -0.77855918419034253 8.3075174294105967 0.51503808176128008 0 0.85716729658548041 0.4285836482927402 0 -0.25751904088064004 1 I I #
coedge $-1 $282 $282 $-1 $386 reversed $188 $-1 #
edge $-1 $387 0 $387 6.2831853071796004 $189 $388 forward 7 unknown #
vertex $-1 $192 $389 #
ellipse-curve $-1 72.054683014901244 2.589343524174673 8.3075174294105967 0.51503808176128008 0 0.85716729658548041 0.4285836482927402 0 -0.25751904088064004 1 I I #
coedge $-1 $286 $286 $-1 $390 reversed $195 $-1 #
edge $-1 $391 0 $391 6.2831853071796004 $196 $392 forward 7 unknown #
vertex $-1 $199 $393 #
ellipse-curve $-1 72.054683014901244 5.9572462325396884 8.3075174294105967 0.51503808176128008 0 0.85716729658548041 0.4285836482927402 0 -0.25751904088064004 1 I I #
face $-1 $-1 $215 $30 $-1 $394 reversed single #
loop $-1 $-1 $305 $200 #
plane-surface $-1 0 34.527494675818438 0 0 -1 0 0 0 -1 forward_v I I I I #
coedge $-1 $395 $303 $306 $396 forward $201 $-1 #
coedge $-1 $203 $309 $204 $297 reversed $127 $-1 #
edge $-1 $216 -11.285950246447751 $301 11.285950246447751 $213 $397 forward 7 unknown #
coedge $-1 $205 $204 $395 $398 forward $81 $-1 #
edge $-1 $301 -77.011627552110355 $399 77.011627552110355 $294 $400 forward 7 unknown #
coedge $-1 $306 $305 $205 $299 reversed $291 $-1 #
edge $-1 $401 -77.011627552110355 $300 77.011627552110355 $298 $402 forward 7 unknown #
vertex $-1 $207 $403 #
vertex $-1 $295 $404 #
straight-curve $-1 77.011627552110355 0 -11.285950246447751 0 -1 0 I I #
coedge $-1 $293 $405 $208 $304 reversed $201 $-1 #
edge $-1 $307 -34.527494675818438 $310 34.527494675818438 $303 $406 forward 7 unknown #
coedge $-1 $298 $209 $214 $312 forward $291 $-1 #
coedge $-1 $209 $298 $293 $396 reversed $291 $-1 #
vertex $-1 $210 $407 #
straight-curve $-1 0 34.527494675818438 11.285950246447751 -1 0 0 I I #
coedge $-1 $294 $211 $405 $408 forward $127 $-1 #
vertex $-1 $304 $409 #
straight-curve $-1 0 -34.527494675818438 11.285950246447751 1 0 0 I I #
edge $-1 $217 -11.285950246447751 $300 11.285950246447751 $214 $410 forward 7 unknown #
point $-1 77.011627552110355 -34.527494675818438 11.285950246447751 #
point $-1 77.011627552110355 34.527494675818438 11.285950246447751 #
face $-1 $-1 $329 $31 $-1 $411 reversed single #
loop $-1 $-1 $412 $219 #
plane-surface $-1 0 -42.833460832900478 -8.4644110202788827 0 1 0 0 0 1 forward_v I I I I #
coedge $-1 $413 $222 $231 $333 reversed $135 $-1 #
coedge $-1 $222 $413 $223 $321 reversed $135 $-1 #
coedge $-1 $224 $223 $414 $415 forward $85 $-1 #
edge $-1 $325 34.527494675818438 $416 42.833460832900478 $319 $417 forward 7 unknown #
coedge $-1 $418 $228 $224 $323 reversed $329 $-1 #
edge $-1 $419 -42.833460832900478 $324 -34.527494675818438 $322 $420 forward 7 unknown #
vertex $-1 $229 $421 #
vertex $-1 $321 $422 #
straight-curve $-1 0 -34.527494675818438 -11.285950246447751 1 0 0 I I #
straight-curve $-1 77.011627552110355 -34.527494675818438 0 0 0 1 I I #
coedge $-1 $228 $418 $230 $332 reversed $329 $-1 #
loop $-1 $-1 $228 $315 #
straight-curve $-1 -77.011627552110355 -34.527494675818438 0 0 0 -1 I I #
coedge $-1 $231 $230 $423 $424 forward $220 $-1 #
edge $-1 $232 -4.1529830785410198 $425 4.1529830785410198 $328 $426 forward 7 unknown #
edge $-1 $427 -4.1529830785410198 $233 4.1529830785410198 $318 $428 forward 7 unknown #
point $-1 -77.011627552110355 -34.527494675818438 -5.6428717941100146 #
point $-1 77.011627552110355 -34.527494675818438 -5.6428717941100146 #
plane-surface $-1 0 0 11.285950246447751 0 0 1 1 0 0 forward_v I I I I #
coedge $-1 $243 $429 $341 $430 forward $236 $-1 #
coedge $-1 $339 $238 $429 $431 reversed $143 $-1 #
coedge $-1 $238 $338 $342 $432 reversed $143 $-1 #
edge $-1 $343 14.812309058636288 $433 23.468505620015289 $238 $434 forward 7 unknown #
coedge $-1 $240 $239 $337 $430 reversed $89 $-1 #
coedge $-1 $246 $241 $339 $432 forward $247 $-1 #
vertex $-1 $432 $435 #
straight-curve $-1 -71.332651723837188 14.436119192190809 11.285950246447747 0 1 0 I I #
coedge $-1 $429 $243 $246 $349 reversed $236 $-1 #
vertex $-1 $244 $436 #
straight-curve $-1 -77.011627552110355 23.216982092944797 52.900690709284618 0 0 1 I I #
straight-curve $-1 -77.011627552110355 23.216982092944797 4.7530357015360494 -0.65605901945558964 0 -0.75470958851134928 I I #
edge $-1 $437 -34.527494675818438 $248 -23.216982092944797 $345 $438 forward 7 unknown #
point $-1 -77.011627552110355 23.216982092944797 11.285950246447751 #
point $-1 -71.332651723837202 23.216982092944797 11.285950246447751 #
edge $-1 $439 1 $439 0 $251 $-1 forward 7 unknown #
vertex $-1 $252 $440 #
ellipse-curve $-1 -73.417430049462425 25.479084609519525 7.3634339545363137 -0.75470958851134928 0 0.65605901945558964 0.32802950972779482 0 0.37735479425567464 1 I I #
point $-1 -73.844110128245987 25.479084609519525 8.3968477682475786 #
edge $-1 $441 1 $441 0 $255 $-1 forward 7 unknown #
vertex $-1 $256 $442 #
ellipse-curve $-1 -73.417430049462425 28.872238384381617 7.3634339545363137 -0.75470958851134928 0 0.65605901945558964 0.32802950972779482 0 0.37735479425567464 1 I I #
point $-1 -73.844110128245987 28.872238384381617 8.3968477682475786 #
edge $-1 $443 1 $443 0 $259 $-1 forward 7 unknown #
vertex $-1 $260 $444 #
ellipse-curve $-1 -73.417430049462425 32.26539215924371 7.3634339545363137 -0.75470958851134928 0 0.65605901945558964 0.32802950972779482 0 0.37735479425567464 1 I I #
point $-1 -73.844110128245987 32.26539215924371 8.3968477682475786 #
loop $-1 $-1 $271 $263 #
plane-surface $-1 77.011627552110355 0 0 -1 0 0 0 0 1 forward_v I I I I #
coedge $-1 $367 $266 $268 $371 reversed $172 $-1 #
coedge $-1 $266 $366 $445 $446 reversed $172 $-1 #
coedge $-1 $274 $269 $266 $369 forward $264 $-1 #
edge $-1 $372 54.939852368374268 $447 64.853741442792455 $368 $448 forward 7 unknown #
coedge $-1 $268 $267 $375 $449 reversed $108 $-1 #
edge $-1 $450 -154.02325510422071 $372 -142.45738095817001 $366 $451 forward 7 unknown #
vertex $-1 $270 $452 #
straight-curve $-1 67.097738477692161 1.2946717620873365 11.285950246447754 0 -1 0 I I #
coedge $-1 $445 $271 $274 $379 reversed $364 $-1 #
coedge $-1 $271 $445 $370 $449 forward $364 $-1 #
vertex $-1 $272 $453 #
straight-curve $-1 77.011627552110355 8.2025147047830274 108.3403118284301 0 0 1 I I #
straight-curve $-1 -55.012069636870308 8.2025147047830274 84.656926467879543 0.85716729658548041 0 -0.51503808176128008 I I #
edge $-1 $447 -3.0238276564336815 $275 8.2025147047830274 $374 $454 forward 7 unknown #
point $-1 77.011627552110355 8.2025147047830274 11.285950246447751 #
point $-1 67.097738477692175 8.2025147047830274 11.285950246447754 #
edge $-1 $455 1 $455 0 $278 $-1 forward 7 unknown #
vertex $-1 $279 $456 #
ellipse-curve $-1 71.245526076182756 -0.77855918419034253 6.9608541626811391 0.51503808176128008 0 0.85716729658548041 0.4285836482927402 0 -0.25751904088064004 1 I I #
point $-1 72.483266663193987 -0.77855918419034253 8.0499983885299518 #
edge $-1 $457 1 $457 0 $282 $-1 forward 7 unknown #
vertex $-1 $283 $458 #
ellipse-curve $-1 71.245526076182756 2.589343524174673 6.9608541626811391 0.51503808176128008 0 0.85716729658548041 0.4285836482927402 0 -0.25751904088064004 1 I I #
point $-1 72.483266663193987 2.589343524174673 8.0499983885299518 #
edge $-1 $459 1 $459 0 $286 $-1 forward 7 unknown #
vertex $-1 $287 $460 #
ellipse-curve $-1 71.245526076182756 5.9572462325396884 6.9608541626811391 0.51503808176128008 0 0.85716729658548041 0.4285836482927402 0 -0.25751904088064004 1 I I #
point $-1 72.483266663193987 5.9572462325396884 8.0499983885299518 #
plane-surface $-1 77.011627552110355 0 0 -1 0 0 0 0 1 forward_v I I I I #
coedge $-1 $405 $293 $296 $398 reversed $201 $-1 #
edge $-1 $307 -11.285950246447751 $401 11.285950246447751 $306 $461 forward 7 unknown #
straight-curve $-1 77.011627552110355 -34.527494675818438 0 0 0 -1 I I #
edge $-1 $399 -34.527494675818438 $401 34.527494675818438 $395 $462 forward 7 unknown #
vertex $-1 $398 $463 #
straight-curve $-1 0 -34.527494675818438 -11.285950246447751 -1 0 0 I I #
vertex $-1 $299 $464 #
straight-curve $-1 0 34.527494675818438 -11.285950246447751 1 0 0 I I #
point $-1 77.011627552110355 34.527494675818438 -11.285950246447751 #
point $-1 77.011627552110355 -34.527494675818438 -11.285950246447751 #
coedge $-1 $303 $395 $309 $408 reversed $201 $-1 #
straight-curve $-1 -77.011627552110355 0 11.285950246447751 0 -1 0 I I #
point $-1 -77.011627552110355 34.527494675818438 11.285950246447751 #
edge $-1 $310 -11.285950246447751 $399 11.285950246447751 $405 $465 forward 7 unknown #
point $-1 -77.011627552110355 -34.527494675818438 11.285950246447751 #
straight-curve $-1 77.011627552110355 34.527494675818438 0 0 0 -1 I I #
plane-surface $-1 -77.011627552110355 0 0 1 0 0 0 0 -1 forward_v I I I I #
coedge $-1 $414 $423 $418 $466 forward $316 $-1 #
coedge $-1 $319 $318 $467 $468 forward $135 $-1 #
coedge $-1 $467 $412 $320 $415 reversed $316 $-1 #
edge $-1 $416 -77.011627552110355 $419 77.011627552110355 $414 $469 forward 7 unknown #
vertex $-1 $468 $470 #
straight-curve $-1 77.011627552110355 0 -11.285950246447751 0 -1 0 I I #
coedge $-1 $328 $322 $412 $466 reversed $329 $-1 #
vertex $-1 $323 $471 #
straight-curve $-1 -77.011627552110355 0 -11.285950246447751 0 1 0 I I #
point $-1 -77.011627552110355 -34.527494675818438 -11.285950246447751 #
point $-1 77.011627552110355 -34.527494675818438 -11.285950246447751 #
coedge $-1 $412 $467 $331 $424 reversed $316 $-1 #
edge $-1 $425 -77.011627552110355 $427 77.011627552110355 $423 $472 forward 7 unknown #
vertex $-1 $332 $473 #
straight-curve $-1 -77.011627552110355 -38.680477754359458 -5.6428717941100146 0 -1 0 I I #
vertex $-1 $333 $474 #
straight-curve $-1 77.011627552110355 -38.680477754359458 -5.6428717941100146 0 1 0 I I #
coedge $-1 $337 $345 $338 $431 forward $236 $-1 #
edge $-1 $433 -20.09137548362763 $346 -8.7808629007539878 $337 $475 forward 7 unknown #
edge $-1 $437 -11.285950246447751 $433 -4.7530357015360494 $338 $476 forward 7 unknown #
edge $-1 $343 71.332651723837202 $437 77.011627552110355 $339 $477 forward 7 unknown #
vertex $-1 $340 $478 #
straight-curve $-1 -61.614902766955126 34.527494675818438 22.464941920994072 -0.65605901945558975 0 -0.75470958851134939 I I #
point $-1 -71.332651723837202 34.527494675818438 11.285950246447751 #
point $-1 -77.011627552110355 23.216982092944797 4.7530357015360494 #
vertex $-1 $432 $479 #
straight-curve $-1 -77.011627552110355 0 11.285950246447751 0 -1 0 I I #
vertex $-1 $352 $480 #
point $-1 -73.08940053973464 25.479084609519525 7.7407887487919886 #
vertex $-1 $356 $481 #
point $-1 -73.08940053973464 28.872238384381617 7.7407887487919886 #
vertex $-1 $360 $482 #
point $-1 -73.08940053973464 32.26539215924371 7.7407887487919886 #
coedge $-1 $375 $374 $367 $446 forward $364 $-1 #
edge $-1 $447 97.054361581982349 $450 103.01122721605668 $445 $483 forward 7 unknown #
vertex $-1 $379 $484 #
straight-curve $-1 12.157886109317907 -3.0238276564336815 11.285950246447754 1 0 0 I I #
edge $-1 $450 -4.3184994185210179 $376 6.9078429426956909 $375 $485 forward 7 unknown #
vertex $-1 $449 $486 #
straight-curve $-1 -55.012069636870308 -3.0238276564336815 84.656926467879543 -0.85716729658548041 0 0.51503808176128008 I I #
point $-1 67.097738477692175 -3.0238276564336815 11.285950246447754 #
point $-1 77.011627552110355 8.2025147047830274 5.3290846123734212 #
straight-curve $-1 77.011627552110355 0 11.285950246447751 0 1 0 I I #
vertex $-1 $382 $487 #
point $-1 71.674109724475485 -0.77855918419034253 6.7033351218004995 #
vertex $-1 $386 $488 #
point $-1 71.674109724475485 2.589343524174673 6.7033351218004995 #
vertex $-1 $390 $489 #
point $-1 71.674109724475485 5.9572462325396884 6.7033351218004995 #
straight-curve $-1 -77.011627552110355 34.527494675818438 0 0 0 -1 I I #
straight-curve $-1 -77.011627552110355 0 -11.285950246447751 0 1 0 I I #
point $-1 -77.011627552110355 -34.527494675818438 -11.285950246447751 #
point $-1 -77.011627552110355 34.527494675818438 -11.285950246447751 #
straight-curve $-1 -77.011627552110355 -34.527494675818438 0 0 0 -1 I I #
edge $-1 $425 -2.8215392261688681 $419 2.8215392261688681 $418 $490 forward 7 unknown #
coedge $-1 $423 $414 $413 $468 reversed $316 $-1 #
edge $-1 $427 -2.8215392261688681 $416 2.8215392261688681 $413 $491 forward 7 unknown #
straight-curve $-1 0 -42.833460832900478 -11.285950246447751 -1 0 0 I I #
point $-1 77.011627552110355 -42.833460832900478 -11.285950246447751 #
point $-1 -77.011627552110355 -42.833460832900478 -11.285950246447751 #
straight-curve $-1 0 -42.833460832900478 -5.6428717941100146 1 0 0 I I #
point $-1 -77.011627552110355 -42.833460832900478 -5.6428717941100146 #
point $-1 77.011627552110355 -42.833460832900478 -5.6428717941100146 #
straight-curve $-1 -77.011627552110355 14.436119192190809 4.7530357015360423 0 -1 0 I I #
straight-curve $-1 -77.011627552110355 34.527494675818438 0 0 0 -1 I I #
straight-curve $-1 0 34.527494675818438 11.285950246447751 -1 0 0 I I #
point $-1 -77.011627552110355 34.527494675818438 4.7530357015360494 #
point $-1 -77.011627552110355 34.527494675818438 11.285950246447751 #
point $-1 -73.040075255206759 25.479084609519525 7.0354044448085187 #
point $-1 -73.040075255206759 28.872238384381617 7.0354044448085187 #
point $-1 -73.040075255206759 32.26539215924371 7.0354044448085187 #
straight-curve $-1 77.011627552110355 -3.0238276564336815 108.3403118284301 0 0 -1 I I #
point $-1 77.011627552110355 -3.0238276564336815 11.285950246447751 #
straight-curve $-1 77.011627552110355 1.2946717620873365 5.3290846123734141 0 1 0 I I #
point $-1 77.011627552110355 -3.0238276564336815 5.3290846123734212 #
point $-1 70.988007035302104 -0.77855918419034253 6.532270514388399 #
point $-1 70.988007035302104 2.589343524174673 6.532270514388399 #
point $-1 70.988007035302104 5.9572462325396884 6.532270514388399 #
straight-curve $-1 -77.011627552110355 -42.833460832900478 -8.4644110202788827 0 0 -1 I I #
straight-curve $-1 77.011627552110355 -42.833460832900478 -8.4644110202788827 0 0 -1 I I #
End-of-ACIS-data 