500 0 8 0           
7 Unknown 11 ACIS 5.0 NT 24 Fri Mar 26 16:18:22 1999 
-1 9.9999999999999995e-007 1e-010 
body $-1 $8 $-1 $9 #
body $-1 $10 $-1 $11 #
body $-1 $12 $-1 $13 #
body $-1 $14 $-1 $15 #
body $-1 $16 $-1 $17 #
body $-1 $18 $-1 $19 #
body $-1 $20 $-1 $21 #
body $-1 $22 $-1 $23 #
lump $-1 $-1 $24 $0 #
transform $-1 1 0 0 0 1 0 0 0 1 58.988616595965453 27.133467457992825 11.335408267028351 1 rotate no_reflect no_shear #
lump $-1 $-1 $25 $1 #
transform $-1 1 0 0 0 1 0 0 0 1 58.988616595965453 27.133467457992825 11.335408267028351 1 rotate no_reflect no_shear #
lump $-1 $-1 $26 $2 #
transform $-1 1 0 0 0 1 0 0 0 1 58.988616595965453 27.133467457992825 11.335408267028351 1 rotate no_reflect no_shear #
lump $-1 $-1 $27 $3 #
transform $-1 1 0 0 0 1 0 0 0 1 58.988616595965453 27.133467457992825 11.335408267028351 1 rotate no_reflect no_shear #
lump $-1 $-1 $28 $4 #
transform $-1 1 0 0 0 1 0 0 0 1 58.988616595965453 27.133467457992825 11.335408267028351 1 rotate no_reflect no_shear #
lump $-1 $-1 $29 $5 #
transform $-1 1 0 0 0 1 0 0 0 1 58.988616595965453 27.133467457992825 11.335408267028351 1 rotate no_reflect no_shear #
lump $-1 $-1 $30 $6 #
transform $-1 1 0 0 0 1 0 0 0 1 58.988616595965453 27.133467457992825 11.335408267028351 1 rotate no_reflect no_shear #
lump $-1 $-1 $31 $7 #
transform $-1 1 0 0 0 1 0 0 0 1 58.988616595965453 27.133467457992825 11.335408267028351 1 rotate no_reflect no_shear #
shell $-1 $-1 $-1 $32 $-1 $8 #
shell $-1 $-1 $-1 $33 $-1 $10 #
shell $-1 $-1 $-1 $34 $-1 $12 #
shell $-1 $-1 $-1 $35 $-1 $14 #
shell $-1 $-1 $-1 $36 $-1 $16 #
shell $-1 $-1 $-1 $37 $-1 $18 #
shell $-1 $-1 $-1 $38 $-1 $20 #
shell $-1 $-1 $-1 $39 $-1 $22 #
face $-1 $40 $41 $24 $-1 $42 forward single #
face $-1 $43 $44 $25 $-1 $45 reversed single #
face $-1 $46 $47 $26 $-1 $48 reversed single #
face $-1 $49 $50 $27 $-1 $51 forward single #
face $-1 $52 $53 $28 $-1 $54 forward single #
face $-1 $55 $56 $29 $-1 $57 reversed single #
face $-1 $58 $59 $30 $-1 $60 forward single #
face $-1 $61 $62 $31 $-1 $63 forward single #
face $-1 $64 $65 $24 $-1 $66 reversed single #
loop $-1 $-1 $67 $32 #
plane-surface $-1 0 0 11.335408267028351 0 0 1 1 0 0 forward_v I I I I #
face $-1 $68 $69 $25 $-1 $70 reversed single #
loop $-1 $-1 $71 $33 #
plane-surface $-1 -52.53183423756515 -24.128565474623532 0 0 -1 0 0 0 -1 forward_v I I I I #
face $-1 $72 $73 $26 $-1 $74 reversed single #
loop $-1 $-1 $75 $34 #
plane-surface $-1 6.4567823584003001 -114.8076388057089 79.92130142226749 -1 0 0 0 -0.74314483375859142 0.66913059716165679 forward_v I I I I #
face $-1 $76 $77 $27 $-1 $78 forward single #
loop $-1 $79 $80 $35 #
cone-surface $-1 -6.4609475030206767 -20.794952023602495 4.6481031534994681 0 0.74314483375859142 -0.66913059716165679 2 0 0 1 I I 0 1 2 forward I I I I #
face $-1 $81 $82 $28 $-1 $83 forward single #
loop $-1 $84 $85 $36 #
cone-surface $-1 1.2896904138319059 -20.794952023602495 4.6481031534994681 0 0.74314483375859142 -0.66913059716165679 2 0 0 1 I I 0 1 2 forward I I I I #
face $-1 $86 $87 $29 $-1 $88 reversed single #
loop $-1 $-1 $89 $37 #
plane-surface $-1 24.541604164389664 -114.8076388057089 79.92130142226749 -1 0 0 0 -0.74314483375859142 0.66913059716165679 forward_v I I I I #
face $-1 $90 $91 $30 $-1 $92 forward single #
loop $-1 $93 $94 $38 #
cone-surface $-1 11.623874302968687 -20.794952023602495 4.6481031534994681 0 0.74314483375859142 -0.66913059716165679 2 0 0 1 I I 0 1 2 forward I I I I #
face $-1 $95 $96 $31 $-1 $97 forward single #
loop $-1 $98 $99 $39 #
cone-surface $-1 19.37451221982127 -20.794952023602495 4.6481031534994681 0 0.74314483375859142 -0.66913059716165679 2 0 0 1 I I 0 1 2 forward I I I I #
face $-1 $100 $101 $24 $-1 $102 reversed single #
loop $-1 $-1 $103 $40 #
plane-surface $-1 0 0 -11.335408267028351 0 0 1 1 0 0 forward_v I I I I #
coedge $-1 $104 $105 $106 $107 forward $41 $-1 #
face $-1 $108 $109 $25 $-1 $110 forward single #
loop $-1 $-1 $111 $43 #
plane-surface $-1 -46.075051879164846 -25.631016466308179 0 -1 0 0 0 0 1 forward_v I I I I #
coedge $-1 $112 $113 $114 $115 forward $44 $-1 #
face $-1 $116 $117 $26 $-1 $118 reversed single #
loop $-1 $-1 $119 $46 #
plane-surface $-1 -2.5856285445943854 -27.133467457992836 0.97912492507072102 0 -0.74314483375859142 0.66913059716165679 1 0 0 forward_v I I I I #
coedge $-1 $120 $121 $122 $123 reversed $47 $-1 #
face $-1 $-1 $124 $27 $-1 $125 forward single #
loop $-1 $126 $127 $49 #
cone-surface $-1 -6.4609475030206767 -18.375711341909664 2.4698091137877487 0 0.74314483375859142 -0.66913059716165679 1 0 0 1 I I -0.70710678118654746 0.70710678118654746 1 forward I I I I #
loop $-1 $-1 $128 $35 #
coedge $-1 $80 $80 $129 $130 reversed $50 $-1 #
face $-1 $-1 $131 $28 $-1 $132 forward single #
loop $-1 $133 $134 $52 #
cone-surface $-1 1.2896904138319059 -18.375711341909664 2.4698091137877487 0 0.74314483375859142 -0.66913059716165679 1 0 0 1 I I -0.70710678118654746 0.70710678118654746 1 forward I I I I #
loop $-1 $-1 $135 $36 #
coedge $-1 $85 $85 $136 $137 reversed $53 $-1 #
face $-1 $138 $139 $29 $-1 $140 reversed single #
loop $-1 $-1 $141 $55 #
plane-surface $-1 -2.5856285445943854 -27.133467457992836 0.97912492507072102 0 -0.74314483375859142 0.66913059716165679 1 0 0 forward_v I I I I #
coedge $-1 $142 $143 $144 $145 reversed $56 $-1 #
face $-1 $-1 $146 $30 $-1 $147 forward single #
loop $-1 $148 $149 $58 #
cone-surface $-1 11.623874302968687 -18.375711341909664 2.4698091137877487 0 0.74314483375859142 -0.66913059716165679 1 0 0 1 I I -0.70710678118654746 0.70710678118654746 1 forward I I I I #
loop $-1 $-1 $150 $38 #
coedge $-1 $94 $94 $151 $152 reversed $59 $-1 #
face $-1 $-1 $153 $31 $-1 $154 forward single #
loop $-1 $155 $156 $61 #
cone-surface $-1 19.37451221982127 -18.375711341909664 2.4698091137877487 0 0.74314483375859142 -0.66913059716165679 1 0 0 1 I I -0.70710678118654746 0.70710678118654746 1 forward I I I I #
loop $-1 $-1 $157 $39 #
coedge $-1 $99 $99 $158 $159 reversed $62 $-1 #
face $-1 $160 $161 $24 $-1 $162 reversed single #
loop $-1 $-1 $163 $64 #
plane-surface $-1 0 -27.133467457992825 0 0 1 0 0 0 1 forward_v I I I I #
coedge $-1 $164 $165 $166 $167 forward $65 $-1 #
coedge $-1 $168 $67 $169 $170 forward $41 $-1 #
coedge $-1 $67 $168 $171 $172 forward $41 $-1 #
coedge $-1 $173 $174 $67 $107 reversed $175 $-1 #
edge $-1 $176 -27.133467457992825 $177 27.133467457992825 $106 $178 forward 7 unknown #
face $-1 $179 $180 $25 $-1 $181 reversed single #
loop $-1 $-1 $182 $68 #
plane-surface $-1 0 0 11.335408267028351 0 0 1 1 0 0 forward_v I I I I #
coedge $-1 $183 $184 $185 $186 reversed $69 $-1 #
coedge $-1 $187 $71 $188 $189 reversed $44 $-1 #
coedge $-1 $71 $187 $190 $191 reversed $44 $-1 #
coedge $-1 $184 $183 $71 $115 reversed $69 $-1 #
edge $-1 $192 -11.335408267028351 $193 11.335408267028351 $114 $194 forward 7 unknown #
face $-1 $195 $196 $26 $-1 $197 forward single #
loop $-1 $-1 $198 $72 #
plane-surface $-1 -11.628039447589071 -114.8076388057089 79.92130142226749 1 0 0 0 0.74314483375859142 -0.66913059716165679 forward_v I I I I #
coedge $-1 $199 $200 $201 $202 reversed $73 $-1 #
coedge $-1 $121 $75 $203 $204 reversed $47 $-1 #
coedge $-1 $75 $120 $199 $205 reversed $47 $-1 #
coedge $-1 $201 $206 $75 $123 forward $196 $-1 #
edge $-1 $207 30.270351944861627 $208 39.595191117773801 $122 $209 forward 7 unknown #
loop $-1 $-1 $129 $76 #
plane-surface $-1 -2.5856285445943854 -27.133467457992836 0.97912492507072102 0 -0.74314483375859142 0.66913059716165679 1 0 0 forward_v I I I I #
loop $-1 $-1 $210 $49 #
coedge $-1 $127 $127 $128 $211 reversed $77 $-1 #
coedge $-1 $128 $128 $127 $211 forward $79 $-1 #
coedge $-1 $129 $129 $80 $130 forward $124 $-1 #
edge $-1 $212 -2.6295139078390618e-016 $212 6.2831853071796004 $129 $213 forward 7 unknown #
loop $-1 $-1 $136 $81 #
plane-surface $-1 -2.5856285445943854 -27.133467457992836 0.97912492507072102 0 -0.74314483375859142 0.66913059716165679 1 0 0 forward_v I I I I #
loop $-1 $-1 $214 $52 #
coedge $-1 $134 $134 $135 $215 reversed $82 $-1 #
coedge $-1 $135 $135 $134 $215 forward $84 $-1 #
coedge $-1 $136 $136 $85 $137 forward $131 $-1 #
edge $-1 $216 -2.6295139078390618e-016 $216 6.2831853071796004 $136 $217 forward 7 unknown #
face $-1 $218 $219 $29 $-1 $220 forward single #
loop $-1 $-1 $221 $86 #
plane-surface $-1 0 -27.133467457992825 0 0 1 0 0 0 1 forward_v I I I I #
coedge $-1 $222 $223 $224 $225 reversed $87 $-1 #
coedge $-1 $143 $89 $226 $227 reversed $56 $-1 #
coedge $-1 $89 $142 $228 $229 reversed $56 $-1 #
coedge $-1 $230 $221 $89 $145 forward $139 $-1 #
edge $-1 $231 -38.98152578606301 $232 -28.625242444105396 $144 $233 forward 7 unknown #
loop $-1 $-1 $151 $90 #
plane-surface $-1 -2.5856285445943854 -27.133467457992836 0.97912492507072102 0 -0.74314483375859142 0.66913059716165679 1 0 0 forward_v I I I I #
loop $-1 $-1 $234 $58 #
coedge $-1 $149 $149 $150 $235 reversed $91 $-1 #
coedge $-1 $150 $150 $149 $235 forward $93 $-1 #
coedge $-1 $151 $151 $94 $152 forward $146 $-1 #
edge $-1 $236 -2.6295139078390618e-016 $236 6.2831853071796004 $151 $237 forward 7 unknown #
loop $-1 $-1 $158 $95 #
plane-surface $-1 -2.5856285445943854 -27.133467457992836 0.97912492507072102 0 -0.74314483375859142 0.66913059716165679 1 0 0 forward_v I I I I #
loop $-1 $-1 $238 $61 #
coedge $-1 $156 $156 $157 $239 reversed $96 $-1 #
coedge $-1 $157 $157 $156 $239 forward $98 $-1 #
coedge $-1 $158 $158 $99 $159 forward $153 $-1 #
edge $-1 $240 -2.6295139078390618e-016 $240 6.2831853071796004 $158 $241 forward 7 unknown #
face $-1 $242 $243 $24 $-1 $244 reversed single #
loop $-1 $-1 $245 $100 #
plane-surface $-1 -58.988616595965453 0 0 1 0 0 0 0 -1 forward_v I I I I #
coedge $-1 $246 $171 $247 $248 forward $101 $-1 #
coedge $-1 $249 $103 $246 $250 forward $65 $-1 #
coedge $-1 $103 $249 $251 $252 forward $65 $-1 #
coedge $-1 $174 $173 $103 $167 reversed $175 $-1 #
edge $-1 $253 -27.133467457992825 $254 27.133467457992825 $166 $255 forward 7 unknown #
coedge $-1 $105 $104 $256 $257 forward $41 $-1 #
coedge $-1 $258 $259 $104 $170 reversed $243 $-1 #
edge $-1 $177 -58.988616595965453 $260 58.988616595965453 $169 $261 forward 7 unknown #
coedge $-1 $163 $262 $105 $172 reversed $101 $-1 #
edge $-1 $263 -58.988616595965453 $176 58.988616595965453 $171 $264 forward 7 unknown #
coedge $-1 $166 $106 $262 $265 forward $175 $-1 #
coedge $-1 $106 $166 $258 $266 reversed $175 $-1 #
loop $-1 $-1 $173 $242 #
vertex $-1 $107 $267 #
vertex $-1 $107 $268 #
straight-curve $-1 58.988616595965453 0 11.335408267028351 0 1 0 I I #
face $-1 $269 $270 $25 $-1 $271 reversed single #
loop $-1 $-1 $272 $108 #
plane-surface $-1 -58.988616595965453 0 0 1 0 0 0 0 -1 forward_v I I I I #
coedge $-1 $190 $273 $184 $274 forward $109 $-1 #
coedge $-1 $114 $111 $275 $276 reversed $69 $-1 #
coedge $-1 $111 $114 $182 $274 reversed $69 $-1 #
coedge $-1 $277 $278 $111 $186 forward $279 $-1 #
edge $-1 $280 -11.335408267028351 $281 11.335408267028351 $185 $282 forward 7 unknown #
coedge $-1 $113 $112 $272 $283 reversed $44 $-1 #
coedge $-1 $275 $284 $112 $189 forward $270 $-1 #
edge $-1 $285 -32.722699477182879 $193 -19.809134760382271 $188 $286 forward 7 unknown #
coedge $-1 $287 $182 $113 $191 forward $109 $-1 #
edge $-1 $192 19.809134760382271 $288 32.722699477182879 $190 $289 forward 7 unknown #
vertex $-1 $191 $290 #
vertex $-1 $189 $291 #
straight-curve $-1 -46.075051879164846 -24.128565474623532 0 0 0 -1 I I #
face $-1 $-1 $292 $26 $-1 $293 reversed single #
loop $-1 $-1 $122 $116 #
plane-surface $-1 0 0 11.335408267028351 0 0 1 1 0 0 forward_v I I I I #
coedge $-1 $294 $295 $296 $297 reversed $117 $-1 #
coedge $-1 $298 $119 $121 $205 forward $73 $-1 #
coedge $-1 $119 $298 $294 $299 forward $73 $-1 #
coedge $-1 $296 $122 $119 $202 forward $196 $-1 #
edge $-1 $208 -7.7495966306974928 $300 10.335225175291878 $201 $301 forward 7 unknown #
coedge $-1 $302 $303 $120 $204 forward $292 $-1 #
edge $-1 $304 -38.98152578606301 $207 -28.625242444105396 $203 $305 forward 7 unknown #
edge $-1 $208 -13.935753666723112 $304 -1.5959792880569736e-014 $121 $306 forward 7 unknown #
coedge $-1 $122 $296 $302 $307 forward $196 $-1 #
vertex $-1 $204 $308 #
vertex $-1 $123 $309 #
straight-curve $-1 6.4567823584003001 -57.403819402854452 11.335408267028349 0 1 0 I I #
coedge $-1 $210 $210 $-1 $310 reversed $126 $-1 #
edge $-1 $311 0 $311 6.2831853071796004 $127 $312 forward 7 unknown #
vertex $-1 $130 $313 #
ellipse-curve $-1 -6.4609475030206767 -22.47104787153674 6.1572665960495385 0 -0.74314483375859142 0.66913059716165679 2 0 0 1 I I #
coedge $-1 $214 $214 $-1 $314 reversed $133 $-1 #
edge $-1 $315 0 $315 6.2831853071796004 $134 $316 forward 7 unknown #
vertex $-1 $137 $317 #
ellipse-curve $-1 1.2896904138319059 -22.47104787153674 6.1572665960495385 0 -0.74314483375859142 0.66913059716165679 2 0 0 1 I I #
face $-1 $-1 $318 $29 $-1 $319 forward single #
loop $-1 $-1 $320 $138 #
plane-surface $-1 6.4567823584003001 -114.8076388057089 79.92130142226749 -1 0 0 0 -0.74314483375859142 0.66913059716165679 forward_v I I I I #
coedge $-1 $144 $321 $223 $322 forward $139 $-1 #
coedge $-1 $226 $141 $323 $324 reversed $87 $-1 #
coedge $-1 $141 $226 $221 $322 reversed $87 $-1 #
coedge $-1 $325 $320 $141 $225 forward $219 $-1 #
edge $-1 $326 -13.935753666723112 $327 -1.5959792880569736e-014 $224 $328 forward 7 unknown #
coedge $-1 $223 $222 $142 $227 forward $87 $-1 #
edge $-1 $329 -13.935753666723112 $231 -1.5959792880569736e-014 $142 $330 forward 7 unknown #
coedge $-1 $323 $331 $143 $229 forward $318 $-1 #
edge $-1 $232 30.270351944861627 $329 39.595191117773801 $228 $332 forward 7 unknown #
coedge $-1 $321 $144 $331 $333 reversed $139 $-1 #
vertex $-1 $145 $334 #
vertex $-1 $145 $335 #
straight-curve $-1 24.541604164389664 -27.133467457992822 39.960650711133745 0 0 1 I I #
coedge $-1 $234 $234 $-1 $336 reversed $148 $-1 #
edge $-1 $337 0 $337 6.2831853071796004 $149 $338 forward 7 unknown #
vertex $-1 $152 $339 #
ellipse-curve $-1 11.623874302968687 -22.47104787153674 6.1572665960495385 0 -0.74314483375859142 0.66913059716165679 2 0 0 1 I I #
coedge $-1 $238 $238 $-1 $340 reversed $155 $-1 #
edge $-1 $341 0 $341 6.2831853071796004 $156 $342 forward 7 unknown #
vertex $-1 $159 $343 #
ellipse-curve $-1 19.37451221982127 -22.47104787153674 6.1572665960495385 0 -0.74314483375859142 0.66913059716165679 2 0 0 1 I I #
face $-1 $-1 $175 $24 $-1 $344 reversed single #
loop $-1 $-1 $258 $160 #
plane-surface $-1 0 27.133467457992825 0 0 -1 0 0 0 -1 forward_v I I I I #
coedge $-1 $345 $256 $259 $346 forward $161 $-1 #
coedge $-1 $262 $163 $164 $250 reversed $101 $-1 #
coedge $-1 $256 $345 $163 $248 reversed $161 $-1 #
edge $-1 $263 -11.335408267028351 $347 11.335408267028351 $247 $348 forward 7 unknown #
coedge $-1 $165 $164 $345 $349 forward $65 $-1 #
edge $-1 $254 -58.988616595965453 $347 58.988616595965453 $246 $350 forward 7 unknown #
coedge $-1 $259 $258 $165 $252 reversed $243 $-1 #
edge $-1 $351 -58.988616595965453 $253 58.988616595965453 $251 $352 forward 7 unknown #
vertex $-1 $167 $353 #
vertex $-1 $265 $354 #
straight-curve $-1 58.988616595965453 0 -11.335408267028351 0 -1 0 I I #
coedge $-1 $245 $247 $168 $257 reversed $161 $-1 #
edge $-1 $260 -27.133467457992825 $263 27.133467457992825 $256 $355 forward 7 unknown #
coedge $-1 $251 $169 $174 $266 forward $243 $-1 #
coedge $-1 $169 $251 $245 $346 reversed $243 $-1 #
vertex $-1 $170 $356 #
straight-curve $-1 0 27.133467457992825 11.335408267028351 -1 0 0 I I #
coedge $-1 $171 $246 $173 $265 reversed $101 $-1 #
vertex $-1 $257 $357 #
straight-curve $-1 0 -27.133467457992825 11.335408267028351 1 0 0 I I #
edge $-1 $176 -11.335408267028351 $254 11.335408267028351 $173 $358 forward 7 unknown #
edge $-1 $177 -11.335408267028351 $253 11.335408267028351 $174 $359 forward 7 unknown #
point $-1 58.988616595965453 -27.133467457992825 11.335408267028351 #
point $-1 58.988616595965453 27.133467457992825 11.335408267028351 #
face $-1 $-1 $279 $25 $-1 $360 reversed single #
loop $-1 $-1 $275 $179 #
plane-surface $-1 0 0 -11.335408267028351 0 0 1 1 0 0 forward_v I I I I #
coedge $-1 $361 $362 $187 $283 forward $180 $-1 #
coedge $-1 $182 $287 $277 $363 forward $109 $-1 #
edge $-1 $281 -14.317959224838736 $192 -11.313057241469442 $182 $364 forward 7 unknown #
coedge $-1 $365 $188 $183 $276 forward $270 $-1 #
edge $-1 $193 11.313057241469442 $280 14.317959224838736 $275 $366 forward 7 unknown #
coedge $-1 $367 $185 $273 $363 reversed $279 $-1 #
coedge $-1 $185 $367 $365 $368 reversed $279 $-1 #
loop $-1 $-1 $185 $269 #
vertex $-1 $368 $369 #
vertex $-1 $186 $370 #
straight-curve $-1 -46.075051879164846 -27.133467457992825 0 0 0 1 I I #
edge $-1 $288 -11.335408267028351 $285 11.335408267028351 $272 $371 forward 7 unknown #
coedge $-1 $188 $365 $361 $372 forward $270 $-1 #
vertex $-1 $189 $373 #
straight-curve $-1 -26.265917118782575 -24.128565474623532 -11.335408267028351 1 0 0 I I #
coedge $-1 $273 $190 $362 $374 forward $109 $-1 #
vertex $-1 $374 $375 #
straight-curve $-1 -26.265917118782575 -24.128565474623532 11.335408267028351 -1 0 0 I I #
point $-1 -46.075051879164846 -24.128565474623532 11.335408267028351 #
point $-1 -46.075051879164846 -24.128565474623532 -11.335408267028351 #
loop $-1 $-1 $203 $195 #
plane-surface $-1 0 -27.133467457992825 0 0 1 0 0 0 1 forward_v I I I I #
coedge $-1 $295 $198 $200 $299 reversed $117 $-1 #
coedge $-1 $198 $294 $376 $377 reversed $117 $-1 #
coedge $-1 $206 $201 $198 $297 forward $196 $-1 #
edge $-1 $300 -39.595191117773801 $378 -30.270351944861627 $296 $379 forward 7 unknown #
coedge $-1 $200 $199 $303 $380 reversed $73 $-1 #
edge $-1 $381 1.5959792880569736e-014 $300 13.935753666723112 $294 $382 forward 7 unknown #
vertex $-1 $202 $383 #
straight-curve $-1 -1.2928142722971927 -17.808628285080648 11.335408267028351 -1 0 0 I I #
coedge $-1 $376 $203 $206 $307 reversed $292 $-1 #
coedge $-1 $203 $376 $298 $380 forward $292 $-1 #
vertex $-1 $204 $384 #
straight-curve $-1 6.4567823584003001 -27.133467457992822 39.960650711133745 0 0 1 I I #
straight-curve $-1 6.4567823584003001 -27.133467457992836 0.97912492507072102 0 -0.66913059716165679 -0.74314483375859142 I I #
edge $-1 $378 -11.628039447589071 $207 6.4567823584003001 $302 $385 forward 7 unknown #
point $-1 6.4567823584003001 -27.133467457992825 11.335408267028351 #
point $-1 6.4567823584003001 -17.808628285080651 11.335408267028351 #
edge $-1 $386 1 $386 0 $210 $-1 forward 7 unknown #
vertex $-1 $211 $387 #
ellipse-curve $-1 -6.4609475030206767 -19.118856175668256 3.1389397109494057 0 -0.74314483375859142 0.66913059716165679 2 0 0 1 I I #
point $-1 -4.4609475030206767 -22.471047871536733 6.1572665960495314 #
edge $-1 $388 1 $388 0 $214 $-1 forward 7 unknown #
vertex $-1 $215 $389 #
ellipse-curve $-1 1.2896904138319059 -19.118856175668256 3.1389397109494057 0 -0.74314483375859142 0.66913059716165679 2 0 0 1 I I #
point $-1 3.2896904138319059 -22.471047871536733 6.1572665960495314 #
loop $-1 $-1 $323 $218 #
plane-surface $-1 0 0 11.335408267028351 0 0 1 1 0 0 forward_v I I I I #
coedge $-1 $224 $325 $390 $391 reversed $219 $-1 #
coedge $-1 $221 $230 $325 $392 forward $139 $-1 #
edge $-1 $327 7.7495966306974928 $231 25.834418436686857 $221 $393 forward 7 unknown #
coedge $-1 $390 $228 $222 $324 forward $318 $-1 #
edge $-1 $329 -25.834418436686857 $326 -7.7495966306974928 $323 $394 forward 7 unknown #
coedge $-1 $320 $224 $321 $392 reversed $219 $-1 #
vertex $-1 $324 $395 #
vertex $-1 $322 $396 #
straight-curve $-1 6.4567823584003001 -27.133467457992836 0.97912492507072102 0 -0.66913059716165679 -0.74314483375859142 I I #
vertex $-1 $229 $397 #
straight-curve $-1 24.541604164389664 -27.133467457992836 0.97912492507072102 0 -0.66913059716165679 -0.74314483375859142 I I #
coedge $-1 $228 $390 $230 $333 forward $318 $-1 #
straight-curve $-1 24.541604164389664 -57.403819402854452 11.335408267028349 0 1 0 I I #
edge $-1 $398 6.4567823584003001 $232 24.541604164389664 $230 $399 forward 7 unknown #
point $-1 24.541604164389664 -27.133467457992825 0.9791249250707329 #
point $-1 24.541604164389664 -27.133467457992825 11.335408267028351 #
edge $-1 $400 1 $400 0 $234 $-1 forward 7 unknown #
vertex $-1 $235 $401 #
ellipse-curve $-1 11.623874302968687 -19.118856175668256 3.1389397109494057 0 -0.74314483375859142 0.66913059716165679 2 0 0 1 I I #
point $-1 13.623874302968687 -22.471047871536733 6.1572665960495314 #
edge $-1 $402 1 $402 0 $238 $-1 forward 7 unknown #
vertex $-1 $239 $403 #
ellipse-curve $-1 19.37451221982127 -19.118856175668256 3.1389397109494057 0 -0.74314483375859142 0.66913059716165679 2 0 0 1 I I #
point $-1 21.37451221982127 -22.471047871536733 6.1572665960495314 #
plane-surface $-1 58.988616595965453 0 0 -1 0 0 0 0 1 forward_v I I I I #
coedge $-1 $247 $245 $249 $349 reversed $161 $-1 #
edge $-1 $260 -11.335408267028351 $351 11.335408267028351 $259 $404 forward 7 unknown #
vertex $-1 $349 $405 #
straight-curve $-1 -58.988616595965453 -27.133467457992825 0 0 0 -1 I I #
edge $-1 $347 -27.133467457992825 $351 27.133467457992825 $345 $406 forward 7 unknown #
straight-curve $-1 0 -27.133467457992825 -11.335408267028351 -1 0 0 I I #
vertex $-1 $252 $407 #
straight-curve $-1 0 27.133467457992825 -11.335408267028351 1 0 0 I I #
point $-1 58.988616595965453 27.133467457992825 -11.335408267028351 #
point $-1 58.988616595965453 -27.133467457992825 -11.335408267028351 #
straight-curve $-1 -58.988616595965453 0 11.335408267028351 0 -1 0 I I #
point $-1 -58.988616595965453 27.133467457992825 11.335408267028351 #
point $-1 -58.988616595965453 -27.133467457992825 11.335408267028351 #
straight-curve $-1 58.988616595965453 -27.133467457992825 0 0 0 -1 I I #
straight-curve $-1 58.988616595965453 27.133467457992825 0 0 0 -1 I I #
plane-surface $-1 0 -27.133467457992825 0 0 1 0 0 0 1 forward_v I I I I #
coedge $-1 $408 $272 $284 $372 reversed $180 $-1 #
coedge $-1 $272 $408 $287 $374 reversed $180 $-1 #
edge $-1 $409 -58.988616595965453 $281 -46.075051879164846 $277 $410 forward 7 unknown #
straight-curve $-1 -46.075051879164846 -12.815508233154089 11.335408267028351 0 1 0 I I #
coedge $-1 $284 $275 $278 $368 forward $270 $-1 #
straight-curve $-1 -46.075051879164846 -12.815508233154089 -11.335408267028351 0 -1 0 I I #
coedge $-1 $278 $277 $408 $411 forward $279 $-1 #
edge $-1 $280 46.075051879164846 $412 58.988616595965453 $278 $413 forward 7 unknown #
point $-1 -46.075051879164846 -27.133467457992825 -11.335408267028351 #
point $-1 -46.075051879164846 -27.133467457992825 11.335408267028351 #
straight-curve $-1 -58.988616595965453 -24.128565474623532 0 0 0 -1 I I #
edge $-1 $412 -27.133467457992825 $285 -24.128565474623532 $361 $414 forward 7 unknown #
point $-1 -58.988616595965453 -24.128565474623532 -11.335408267028351 #
edge $-1 $288 24.128565474623532 $409 27.133467457992825 $362 $415 forward 7 unknown #
point $-1 -58.988616595965453 -24.128565474623532 11.335408267028351 #
coedge $-1 $303 $302 $295 $377 forward $292 $-1 #
edge $-1 $378 28.625242444105396 $381 38.98152578606301 $376 $416 forward 7 unknown #
vertex $-1 $307 $417 #
straight-curve $-1 -11.628039447589071 -57.403819402854452 11.335408267028349 0 -1 0 I I #
edge $-1 $381 -10.335225175291878 $304 7.7495966306974928 $303 $418 forward 7 unknown #
vertex $-1 $380 $419 #
straight-curve $-1 -11.628039447589071 -27.133467457992836 0.97912492507072102 0 0.66913059716165679 0.74314483375859142 I I #
point $-1 -11.628039447589071 -17.808628285080651 11.335408267028351 #
point $-1 6.4567823584003001 -27.133467457992825 0.9791249250707329 #
straight-curve $-1 0 -27.133467457992825 11.335408267028351 1 0 0 I I #
vertex $-1 $310 $420 #
point $-1 -4.4609475030206767 -19.118856175668256 3.1389397109494057 #
vertex $-1 $314 $421 #
point $-1 3.2896904138319059 -19.118856175668256 3.1389397109494057 #
coedge $-1 $331 $323 $320 $391 forward $318 $-1 #
edge $-1 $326 -39.595191117773801 $398 -30.270351944861627 $390 $422 forward 7 unknown #
edge $-1 $398 28.625242444105396 $327 38.98152578606301 $321 $423 forward 7 unknown #
straight-curve $-1 -1.2928142722971927 -27.133467457992825 0.97912492507073134 1 0 0 I I #
straight-curve $-1 -1.2928142722971927 -17.808628285080648 11.335408267028351 -1 0 0 I I #
point $-1 6.4567823584003001 -17.808628285080651 11.335408267028351 #
point $-1 6.4567823584003001 -27.133467457992825 0.9791249250707329 #
point $-1 24.541604164389664 -17.808628285080651 11.335408267028351 #
vertex $-1 $333 $424 #
straight-curve $-1 0 -27.133467457992825 11.335408267028351 1 0 0 I I #
vertex $-1 $336 $425 #
point $-1 13.623874302968687 -19.118856175668256 3.1389397109494057 #
vertex $-1 $340 $426 #
point $-1 21.37451221982127 -19.118856175668256 3.1389397109494057 #
straight-curve $-1 -58.988616595965453 27.133467457992825 0 0 0 -1 I I #
point $-1 -58.988616595965453 -27.133467457992825 -11.335408267028351 #
straight-curve $-1 -58.988616595965453 0 -11.335408267028351 0 1 0 I I #
point $-1 -58.988616595965453 27.133467457992825 -11.335408267028351 #
coedge $-1 $362 $361 $367 $411 reversed $180 $-1 #
vertex $-1 $374 $427 #
straight-curve $-1 0 -27.133467457992825 11.335408267028351 1 0 0 I I #
edge $-1 $409 -11.335408267028351 $412 11.335408267028351 $408 $428 forward 7 unknown #
vertex $-1 $372 $429 #
straight-curve $-1 0 -27.133467457992825 -11.335408267028351 -1 0 0 I I #
straight-curve $-1 -58.988616595965453 0 -11.335408267028351 0 1 0 I I #
straight-curve $-1 -58.988616595965453 0 11.335408267028351 0 -1 0 I I #
straight-curve $-1 -11.628039447589071 -27.133467457992822 39.960650711133745 0 0 -1 I I #
point $-1 -11.628039447589071 -27.133467457992825 11.335408267028351 #
straight-curve $-1 -1.2928142722971927 -27.133467457992825 0.97912492507073134 1 0 0 I I #
point $-1 -11.628039447589071 -27.133467457992825 0.9791249250707329 #
point $-1 -6.4609475030206767 -17.632566508151072 1.8006785166260919 #
point $-1 1.2896904138319059 -17.632566508151072 1.8006785166260919 #
straight-curve $-1 6.4567823584003001 -57.403819402854452 11.335408267028349 0 -1 0 I I #
straight-curve $-1 6.4567823584003001 -27.133467457992822 39.960650711133745 0 0 -1 I I #
point $-1 6.4567823584003001 -27.133467457992825 11.335408267028351 #
point $-1 11.623874302968687 -17.632566508151072 1.8006785166260919 #
point $-1 19.37451221982127 -17.632566508151072 1.8006785166260919 #
point $-1 -58.988616595965453 -27.133467457992825 11.335408267028351 #
straight-curve $-1 -58.988616595965453 -27.133467457992825 0 0 0 -1 I I #
point $-1 -58.988616595965453 -27.133467457992825 -11.335408267028351 #
End-of-ACIS-data 