500 0 3 0           
7 Unknown 11 ACIS 5.0 NT 24 Thu Mar 25 23:28:05 1999 
-1 9.9999999999999995e-007 1e-010 
body $-1 $3 $-1 $4 #
body $-1 $5 $-1 $6 #
body $-1 $7 $-1 $8 #
lump $-1 $-1 $9 $0 #
transform $-1 1 0 0 0 1 0 0 0 1 76.009399700918607 33.371807822422724 10.400084010115419 1 rotate no_reflect no_shear #
lump $-1 $-1 $10 $1 #
transform $-1 1 0 0 0 1 0 0 0 1 76.009399700918607 33.371807822422724 10.400084010115419 1 rotate no_reflect no_shear #
lump $-1 $-1 $11 $2 #
transform $-1 1 0 0 0 1 0 0 0 1 76.009399700918607 33.371807822422724 10.400084010115419 1 rotate no_reflect no_shear #
shell $-1 $-1 $-1 $12 $-1 $3 #
shell $-1 $-1 $-1 $13 $-1 $5 #
shell $-1 $-1 $-1 $14 $-1 $7 #
face $-1 $15 $16 $9 $-1 $17 forward single #
face $-1 $18 $19 $10 $-1 $20 forward single #
face $-1 $21 $22 $11 $-1 $23 reversed single #
face $-1 $24 $25 $9 $-1 $26 reversed single #
loop $-1 $-1 $27 $12 #
plane-surface $-1 0 0 10.400084010115419 0 0 1 1 0 0 forward_v I I I I #
face $-1 $28 $29 $10 $-1 $30 reversed single #
loop $-1 $-1 $31 $13 #
plane-surface $-1 0 -39.072721453623899 3.7030868284543135 0 0 1 1 0 0 forward_v I I I I #
face $-1 $32 $33 $11 $-1 $34 forward single #
loop $-1 $-1 $35 $14 #
plane-surface $-1 0 28.567890725010649 1.6523409571465972 0 0 1 1 0 0 forward_v I I I I #
face $-1 $36 $37 $9 $-1 $38 reversed single #
loop $-1 $-1 $39 $15 #
plane-surface $-1 0 0 -10.400084010115419 0 0 1 1 0 0 forward_v I I I I #
coedge $-1 $40 $41 $42 $43 forward $16 $-1 #
face $-1 $44 $45 $10 $-1 $46 reversed single #
loop $-1 $-1 $47 $18 #
plane-surface $-1 0 -39.072721453623899 -2.4472042539642938 0 0 1 1 0 0 forward_v I I I I #
coedge $-1 $48 $49 $50 $51 forward $19 $-1 #
face $-1 $52 $53 $11 $-1 $54 forward single #
loop $-1 $-1 $55 $21 #
plane-surface $-1 0 28.567890725010649 -2.1739834782776217 0 0 1 1 0 0 forward_v I I I I #
coedge $-1 $56 $57 $58 $59 reversed $22 $-1 #
face $-1 $60 $61 $9 $-1 $62 reversed single #
loop $-1 $-1 $63 $24 #
plane-surface $-1 0 -33.371807822422724 0 0 1 0 0 0 1 forward_v I I I I #
coedge $-1 $64 $65 $66 $67 forward $25 $-1 #
coedge $-1 $68 $27 $69 $70 forward $16 $-1 #
coedge $-1 $27 $68 $71 $72 forward $16 $-1 #
coedge $-1 $73 $74 $27 $43 reversed $75 $-1 #
edge $-1 $76 -33.371807822422724 $77 33.371807822422724 $42 $78 forward 7 unknown #
face $-1 $79 $80 $10 $-1 $81 reversed single #
loop $-1 $-1 $82 $28 #
plane-surface $-1 0 -44.773635084825074 0.62794128724500986 0 1 0 0 0 1 forward_v I I I I #
coedge $-1 $83 $84 $85 $86 forward $29 $-1 #
coedge $-1 $87 $31 $88 $89 reversed $19 $-1 #
coedge $-1 $31 $87 $90 $91 forward $19 $-1 #
coedge $-1 $92 $93 $31 $51 reversed $94 $-1 #
edge $-1 $95 -5.7009136312011748 $96 5.7009136312011748 $50 $97 forward 7 unknown #
face $-1 $98 $99 $11 $-1 $100 reversed single #
loop $-1 $-1 $101 $32 #
plane-surface $-1 0 23.763973627598574 -0.26082126056551225 0 1 0 0 0 1 forward_v I I I I #
coedge $-1 $102 $103 $104 $105 reversed $33 $-1 #
coedge $-1 $106 $35 $107 $108 reversed $22 $-1 #
coedge $-1 $35 $106 $109 $110 reversed $22 $-1 #
coedge $-1 $111 $112 $35 $59 forward $113 $-1 #
edge $-1 $114 9.4800282650932495 $115 19.0878624599174 $58 $116 forward 7 unknown #
face $-1 $117 $118 $9 $-1 $119 reversed single #
loop $-1 $-1 $120 $36 #
plane-surface $-1 -76.009399700918607 0 0 1 0 0 0 0 -1 forward_v I I I I #
coedge $-1 $121 $71 $122 $123 forward $37 $-1 #
coedge $-1 $124 $39 $121 $125 forward $25 $-1 #
coedge $-1 $39 $124 $126 $127 forward $25 $-1 #
coedge $-1 $74 $73 $39 $67 reversed $75 $-1 #
edge $-1 $128 -33.371807822422724 $129 33.371807822422724 $66 $130 forward 7 unknown #
coedge $-1 $41 $40 $131 $132 forward $16 $-1 #
coedge $-1 $133 $134 $40 $70 reversed $118 $-1 #
edge $-1 $77 -76.009399700918607 $135 76.009399700918607 $69 $136 forward 7 unknown #
coedge $-1 $63 $137 $41 $72 reversed $37 $-1 #
edge $-1 $138 -76.009399700918607 $76 76.009399700918607 $71 $139 forward 7 unknown #
coedge $-1 $66 $42 $137 $140 forward $75 $-1 #
coedge $-1 $42 $66 $133 $141 reversed $75 $-1 #
loop $-1 $-1 $73 $117 #
vertex $-1 $43 $142 #
vertex $-1 $43 $143 #
straight-curve $-1 76.009399700918607 0 10.400084010115419 0 1 0 I I #
face $-1 $144 $145 $10 $-1 $81 reversed single #
loop $-1 $-1 $146 $44 #
plane-surface $-1 0 -33.371807822422724 0 0 1 0 0 0 1 forward_v I I I I #
coedge $-1 $147 $90 $148 $149 forward $45 $-1 #
coedge $-1 $150 $47 $147 $151 forward $29 $-1 #
coedge $-1 $47 $150 $146 $152 reversed $29 $-1 #
coedge $-1 $153 $92 $47 $86 reversed $94 $-1 #
edge $-1 $154 -5.7009136312011748 $155 5.7009136312011748 $85 $156 forward 7 unknown #
coedge $-1 $49 $48 $157 $158 forward $19 $-1 #
coedge $-1 $159 $160 $48 $89 forward $145 $-1 #
edge $-1 $161 -76.009399700918607 $96 76.009399700918607 $88 $162 forward 7 unknown #
coedge $-1 $82 $163 $49 $91 reversed $45 $-1 #
edge $-1 $164 -76.009399700918607 $95 76.009399700918607 $90 $165 forward 7 unknown #
coedge $-1 $85 $50 $163 $166 forward $94 $-1 #
coedge $-1 $50 $167 $159 $168 forward $94 $-1 #
loop $-1 $-1 $93 $169 #
vertex $-1 $51 $170 #
vertex $-1 $51 $171 #
straight-curve $-1 76.009399700918607 -39.072721453623899 3.7030868284543135 0 1 0 I I #
face $-1 $172 $173 $11 $-1 $100 reversed single #
loop $-1 $-1 $174 $52 #
plane-surface $-1 0 33.371807822422724 0 0 -1 0 0 0 -1 forward_v I I I I #
coedge $-1 $107 $175 $176 $177 reversed $53 $-1 #
coedge $-1 $178 $55 $174 $179 reversed $33 $-1 #
coedge $-1 $55 $178 $175 $180 reversed $33 $-1 #
coedge $-1 $112 $181 $55 $105 forward $113 $-1 #
edge $-1 $182 -19.0878624599174 $183 -9.4800282650932495 $104 $184 forward 7 unknown #
coedge $-1 $57 $56 $185 $186 reversed $22 $-1 #
coedge $-1 $187 $101 $56 $108 forward $53 $-1 #
edge $-1 $188 -76.009399700918607 $114 76.009399700918607 $107 $189 forward 7 unknown #
coedge $-1 $190 $191 $57 $110 forward $173 $-1 #
edge $-1 $115 -76.009399700918607 $192 76.009399700918607 $109 $193 forward 7 unknown #
coedge $-1 $194 $58 $191 $195 reversed $113 $-1 #
coedge $-1 $58 $104 $187 $196 forward $113 $-1 #
loop $-1 $-1 $58 $197 #
vertex $-1 $59 $198 #
vertex $-1 $110 $199 #
straight-curve $-1 76.009399700918607 14.283945362505325 1.6523409571465972 0 1 0 I I #
face $-1 $-1 $75 $9 $-1 $200 reversed single #
loop $-1 $-1 $133 $60 #
plane-surface $-1 0 33.371807822422724 0 0 -1 0 0 0 -1 forward_v I I I I #
coedge $-1 $201 $131 $134 $202 forward $61 $-1 #
coedge $-1 $137 $63 $64 $125 reversed $37 $-1 #
coedge $-1 $131 $201 $63 $123 reversed $61 $-1 #
edge $-1 $138 -10.400084010115419 $203 10.400084010115419 $122 $204 forward 7 unknown #
coedge $-1 $65 $64 $201 $205 forward $25 $-1 #
edge $-1 $129 -76.009399700918607 $203 76.009399700918607 $121 $206 forward 7 unknown #
coedge $-1 $134 $133 $65 $127 reversed $118 $-1 #
edge $-1 $207 -76.009399700918607 $128 76.009399700918607 $126 $208 forward 7 unknown #
vertex $-1 $67 $209 #
vertex $-1 $140 $210 #
straight-curve $-1 76.009399700918607 0 -10.400084010115419 0 -1 0 I I #
coedge $-1 $120 $122 $68 $132 reversed $61 $-1 #
edge $-1 $135 -33.371807822422724 $138 33.371807822422724 $131 $211 forward 7 unknown #
coedge $-1 $126 $69 $74 $141 forward $118 $-1 #
coedge $-1 $69 $126 $120 $202 reversed $118 $-1 #
vertex $-1 $70 $212 #
straight-curve $-1 0 33.371807822422724 10.400084010115419 -1 0 0 I I #
coedge $-1 $71 $121 $73 $140 reversed $37 $-1 #
vertex $-1 $132 $213 #
straight-curve $-1 0 -33.371807822422724 10.400084010115419 1 0 0 I I #
edge $-1 $76 -10.400084010115419 $129 10.400084010115419 $73 $214 forward 7 unknown #
edge $-1 $77 -10.400084010115419 $128 10.400084010115419 $74 $215 forward 7 unknown #
point $-1 76.009399700918607 -33.371807822422724 10.400084010115419 #
point $-1 76.009399700918607 33.371807822422724 10.400084010115419 #
face $-1 $216 $217 $10 $-1 $218 forward single #
loop $-1 $-1 $88 $79 #
coedge $-1 $219 $220 $84 $152 forward $80 $-1 #
coedge $-1 $163 $82 $83 $151 reversed $45 $-1 #
coedge $-1 $157 $221 $82 $149 reversed $222 $-1 #
edge $-1 $164 -3.0751455412093036 $223 3.0751455412093036 $148 $224 forward 7 unknown #
coedge $-1 $84 $83 $221 $225 forward $29 $-1 #
edge $-1 $155 -76.009399700918607 $223 76.009399700918607 $147 $226 forward 7 unknown #
edge $-1 $154 -76.009399700918607 $227 76.009399700918607 $146 $228 forward 7 unknown #
coedge $-1 $229 $85 $220 $230 forward $94 $-1 #
vertex $-1 $230 $231 #
vertex $-1 $166 $232 #
straight-curve $-1 76.009399700918607 -39.072721453623899 -2.4472042539642938 0 -1 0 I I #
coedge $-1 $233 $148 $87 $158 reversed $222 $-1 #
edge $-1 $161 -5.7009136312011748 $164 5.7009136312011748 $157 $234 forward 7 unknown #
coedge $-1 $235 $88 $93 $168 reversed $145 $-1 #
coedge $-1 $88 $235 $233 $236 forward $145 $-1 #
vertex $-1 $236 $237 #
straight-curve $-1 0 -33.371807822422724 3.7030868284543135 1 0 0 I I #
coedge $-1 $90 $147 $92 $166 reversed $45 $-1 #
vertex $-1 $158 $238 #
straight-curve $-1 0 -44.773635084825074 3.7030868284543135 1 0 0 I I #
edge $-1 $95 -3.0751455412093036 $155 3.0751455412093036 $92 $239 forward 7 unknown #
coedge $-1 $93 $240 $241 $242 reversed $94 $-1 #
edge $-1 $243 -10.400084010115419 $96 -3.7030868284543135 $93 $244 forward 7 unknown #
face $-1 $-1 $94 $10 $-1 $245 reversed single #
point $-1 76.009399700918607 -44.773635084825074 3.7030868284543135 #
point $-1 76.009399700918607 -33.371807822422724 3.7030868284543135 #
face $-1 $246 $247 $11 $-1 $248 reversed single #
loop $-1 $-1 $109 $98 #
coedge $-1 $249 $250 $102 $179 forward $99 $-1 #
coedge $-1 $101 $187 $103 $180 forward $53 $-1 #
coedge $-1 $251 $185 $101 $177 forward $247 $-1 #
edge $-1 $188 -1.7827515874293534 $252 2.0435728479948656 $176 $253 forward 7 unknown #
coedge $-1 $103 $102 $251 $254 reversed $33 $-1 #
edge $-1 $255 -76.009399700918607 $182 76.009399700918607 $174 $256 forward 7 unknown #
edge $-1 $183 -76.009399700918607 $252 76.009399700918607 $175 $257 forward 7 unknown #
coedge $-1 $104 $258 $249 $259 reversed $113 $-1 #
vertex $-1 $259 $260 #
vertex $-1 $105 $261 #
straight-curve $-1 76.009399700918607 14.283945362505325 -2.1739834782776217 0 -1 0 I I #
coedge $-1 $176 $262 $106 $186 forward $247 $-1 #
edge $-1 $192 -19.0878624599174 $188 -9.4800282650932495 $185 $263 forward 7 unknown #
coedge $-1 $175 $107 $112 $196 reversed $53 $-1 #
vertex $-1 $186 $264 #
straight-curve $-1 0 23.763973627598574 1.6523409571465972 1 0 0 I I #
coedge $-1 $265 $109 $262 $266 reversed $173 $-1 #
coedge $-1 $109 $265 $111 $195 forward $173 $-1 #
vertex $-1 $186 $267 #
straight-curve $-1 0 33.371807822422724 1.6523409571465972 -1 0 0 I I #
coedge $-1 $268 $111 $269 $270 reversed $113 $-1 #
edge $-1 $271 -10.400084010115419 $115 -1.6523409571465972 $111 $272 forward 7 unknown #
edge $-1 $183 -2.0435728479948656 $114 1.7827515874293534 $112 $273 forward 7 unknown #
face $-1 $-1 $113 $11 $-1 $274 reversed single #
point $-1 76.009399700918607 23.763973627598574 1.6523409571465972 #
point $-1 76.009399700918607 33.371807822422724 1.6523409571465972 #
plane-surface $-1 76.009399700918607 0 0 -1 0 0 0 0 1 forward_v I I I I #
coedge $-1 $122 $120 $124 $205 reversed $61 $-1 #
edge $-1 $135 -10.400084010115419 $207 10.400084010115419 $134 $275 forward 7 unknown #
vertex $-1 $205 $276 #
straight-curve $-1 -76.009399700918607 -33.371807822422724 0 0 0 -1 I I #
edge $-1 $203 -33.371807822422724 $207 33.371807822422724 $201 $277 forward 7 unknown #
straight-curve $-1 0 -33.371807822422724 -10.400084010115419 -1 0 0 I I #
vertex $-1 $127 $278 #
straight-curve $-1 0 33.371807822422724 -10.400084010115419 1 0 0 I I #
point $-1 76.009399700918607 33.371807822422724 -10.400084010115419 #
point $-1 76.009399700918607 -33.371807822422724 -10.400084010115419 #
straight-curve $-1 -76.009399700918607 0 10.400084010115419 0 -1 0 I I #
point $-1 -76.009399700918607 33.371807822422724 10.400084010115419 #
point $-1 -76.009399700918607 -33.371807822422724 10.400084010115419 #
straight-curve $-1 76.009399700918607 -33.371807822422724 0 0 0 -1 I I #
straight-curve $-1 76.009399700918607 33.371807822422724 0 0 0 -1 I I #
face $-1 $279 $280 $10 $-1 $281 reversed single #
loop $-1 $-1 $241 $144 #
plane-surface $-1 0 0 10.400084010115419 0 0 1 1 0 0 forward_v I I I I #
coedge $-1 $282 $146 $283 $284 forward $80 $-1 #
coedge $-1 $146 $282 $153 $230 reversed $80 $-1 #
coedge $-1 $148 $283 $150 $225 reversed $222 $-1 #
loop $-1 $-1 $285 $279 #
vertex $-1 $225 $286 #
straight-curve $-1 -76.009399700918607 -44.773635084825074 0.62794128724500986 0 0 -1 I I #
edge $-1 $223 -5.7009136312011748 $227 5.7009136312011748 $221 $287 forward 7 unknown #
straight-curve $-1 0 -44.773635084825074 -2.4472042539642938 -1 0 0 I I #
vertex $-1 $284 $288 #
straight-curve $-1 0 -33.371807822422724 -2.4472042539642938 -1 0 0 I I #
coedge $-1 $240 $153 $289 $290 reversed $94 $-1 #
edge $-1 $154 2.4472042539642938 $291 10.400084010115419 $153 $244 forward 7 unknown #
point $-1 76.009399700918607 -33.371807822422724 -2.4472042539642938 #
point $-1 76.009399700918607 -44.773635084825074 -2.4472042539642938 #
coedge $-1 $292 $157 $160 $236 reversed $222 $-1 #
straight-curve $-1 -76.009399700918607 -39.072721453623899 3.7030868284543135 0 -1 0 I I #
coedge $-1 $160 $159 $293 $294 reversed $145 $-1 #
edge $-1 $295 -10.400084010115419 $161 -3.7030868284543135 $233 $296 forward 7 unknown #
point $-1 -76.009399700918607 -33.371807822422724 3.7030868284543135 #
point $-1 -76.009399700918607 -44.773635084825074 3.7030868284543135 #
straight-curve $-1 76.009399700918607 -44.773635084825074 0.62794128724500986 0 0 -1 I I #
coedge $-1 $167 $229 $297 $298 reversed $94 $-1 #
coedge $-1 $299 $293 $167 $242 forward $217 $-1 #
edge $-1 $243 -33.371807822422724 $300 33.371807822422724 $167 $301 forward 7 unknown #
vertex $-1 $242 $302 #
straight-curve $-1 76.009399700918607 -33.371807822422724 0 0 0 -1 I I #
plane-surface $-1 76.009399700918607 0 0 -1 0 0 0 0 1 forward_v I I I I #
face $-1 $303 $304 $11 $-1 $305 forward single #
loop $-1 $-1 $185 $172 #
plane-surface $-1 -76.009399700918607 0 0 1 0 0 0 0 -1 forward_v I I I I #
coedge $-1 $306 $174 $181 $259 forward $99 $-1 #
coedge $-1 $174 $306 $307 $308 reversed $99 $-1 #
coedge $-1 $307 $176 $178 $254 forward $247 $-1 #
vertex $-1 $254 $309 #
straight-curve $-1 -76.009399700918607 23.763973627598574 -0.13041063028275612 0 0 -1 I I #
edge $-1 $252 9.4800282650932495 $255 19.0878624599174 $251 $310 forward 7 unknown #
vertex $-1 $308 $311 #
straight-curve $-1 0 33.371807822422724 -2.1739834782776217 1 0 0 I I #
straight-curve $-1 0 23.763973627598574 -2.1739834782776217 -1 0 0 I I #
coedge $-1 $181 $312 $313 $314 reversed $113 $-1 #
edge $-1 $182 2.1739834782776217 $315 10.400084010115419 $181 $272 forward 7 unknown #
point $-1 76.009399700918607 33.371807822422724 -2.1739834782776217 #
point $-1 76.009399700918607 23.763973627598574 -2.1739834782776217 #
coedge $-1 $185 $316 $190 $266 forward $247 $-1 #
straight-curve $-1 -76.009399700918607 14.283945362505325 1.6523409571465972 0 -1 0 I I #
point $-1 -76.009399700918607 23.763973627598574 1.6523409571465972 #
coedge $-1 $191 $190 $317 $318 reversed $173 $-1 #
edge $-1 $319 -10.400084010115419 $192 -1.6523409571465972 $190 $320 forward 7 unknown #
point $-1 -76.009399700918607 33.371807822422724 1.6523409571465972 #
coedge $-1 $321 $194 $322 $323 forward $113 $-1 #
coedge $-1 $317 $324 $194 $270 forward $325 $-1 #
edge $-1 $326 -33.371807822422724 $271 33.371807822422724 $194 $327 forward 7 unknown #
vertex $-1 $270 $328 #
straight-curve $-1 76.009399700918607 33.371807822422724 0 0 0 -1 I I #
straight-curve $-1 76.009399700918607 23.763973627598574 -0.13041063028275612 0 0 1 I I #
plane-surface $-1 76.009399700918607 0 0 -1 0 0 0 0 1 forward_v I I I I #
straight-curve $-1 -76.009399700918607 33.371807822422724 0 0 0 -1 I I #
point $-1 -76.009399700918607 -33.371807822422724 -10.400084010115419 #
straight-curve $-1 -76.009399700918607 0 -10.400084010115419 0 1 0 I I #
point $-1 -76.009399700918607 33.371807822422724 -10.400084010115419 #
face $-1 $329 $222 $10 $-1 $330 reversed single #
loop $-1 $-1 $289 $216 #
plane-surface $-1 0 0 -10.400084010115419 0 0 1 1 0 0 forward_v I I I I #
coedge $-1 $220 $219 $331 $332 reversed $80 $-1 #
coedge $-1 $221 $333 $219 $284 reversed $222 $-1 #
edge $-1 $227 2.4472042539642938 $334 10.400084010115419 $283 $296 forward 7 unknown #
coedge $-1 $333 $292 $335 $336 forward $222 $-1 #
point $-1 -76.009399700918607 -44.773635084825074 -2.4472042539642938 #
straight-curve $-1 -76.009399700918607 -39.072721453623899 -2.4472042539642938 0 1 0 I I #
point $-1 -76.009399700918607 -33.371807822422724 -2.4472042539642938 #
coedge $-1 $331 $337 $229 $290 forward $280 $-1 #
edge $-1 $338 -33.371807822422724 $291 33.371807822422724 $229 $339 forward 7 unknown #
vertex $-1 $230 $340 #
coedge $-1 $285 $233 $341 $342 reversed $222 $-1 #
coedge $-1 $241 $341 $235 $294 forward $217 $-1 #
edge $-1 $295 -76.009399700918607 $243 76.009399700918607 $235 $343 forward 7 unknown #
vertex $-1 $342 $344 #
straight-curve $-1 -76.009399700918607 -33.371807822422724 0 0 0 -1 I I #
coedge $-1 $345 $346 $240 $298 forward $347 $-1 #
edge $-1 $300 -10.400084010115419 $338 10.400084010115419 $240 $348 forward 7 unknown #
coedge $-1 $341 $241 $346 $349 forward $217 $-1 #
vertex $-1 $242 $350 #
straight-curve $-1 76.009399700918607 0 10.400084010115419 0 1 0 I I #
point $-1 76.009399700918607 -33.371807822422724 10.400084010115419 #
face $-1 $351 $352 $11 $-1 $353 reversed single #
loop $-1 $-1 $354 $246 #
plane-surface $-1 0 -39.072721453623899 3.7030868284543135 0 0 1 1 0 0 forward_v I I I I #
coedge $-1 $250 $249 $355 $356 reversed $99 $-1 #
coedge $-1 $357 $251 $250 $308 forward $247 $-1 #
edge $-1 $255 2.1739834782776217 $358 10.400084010115419 $250 $320 forward 7 unknown #
point $-1 -76.009399700918607 23.763973627598574 -2.1739834782776217 #
straight-curve $-1 -76.009399700918607 14.283945362505325 -2.1739834782776217 0 1 0 I I #
point $-1 -76.009399700918607 33.371807822422724 -2.1739834782776217 #
coedge $-1 $258 $359 $360 $361 forward $113 $-1 #
coedge $-1 $362 $355 $258 $314 forward $363 $-1 #
edge $-1 $315 -33.371807822422724 $364 33.371807822422724 $258 $365 forward 7 unknown #
vertex $-1 $314 $366 #
coedge $-1 $262 $367 $368 $369 reversed $247 $-1 #
coedge $-1 $368 $269 $265 $318 forward $325 $-1 #
edge $-1 $271 -76.009399700918607 $319 76.009399700918607 $265 $370 forward 7 unknown #
vertex $-1 $318 $371 #
straight-curve $-1 -76.009399700918607 33.371807822422724 0 0 0 -1 I I #
coedge $-1 $372 $268 $354 $373 reversed $113 $-1 #
coedge $-1 $374 $375 $268 $323 reversed $376 $-1 #
edge $-1 $326 -10.400084010115419 $377 -3.7030868284543135 $268 $378 forward 7 unknown #
coedge $-1 $269 $368 $374 $379 forward $325 $-1 #
loop $-1 $-1 $269 $380 #
vertex $-1 $270 $381 #
straight-curve $-1 76.009399700918607 0 10.400084010115419 0 1 0 I I #
point $-1 76.009399700918607 33.371807822422724 10.400084010115419 #
face $-1 $169 $347 $10 $-1 $382 reversed single #
plane-surface $-1 -76.009399700918607 0 0 1 0 0 0 0 -1 forward_v I I I I #
coedge $-1 $383 $289 $282 $332 forward $280 $-1 #
edge $-1 $291 -76.009399700918607 $334 76.009399700918607 $282 $384 forward 7 unknown #
coedge $-1 $283 $285 $383 $385 reversed $222 $-1 #
vertex $-1 $385 $386 #
coedge $-1 $346 $345 $285 $336 reversed $347 $-1 #
edge $-1 $387 -10.400084010115419 $388 10.400084010115419 $335 $389 forward 7 unknown #
coedge $-1 $289 $383 $345 $390 forward $280 $-1 #
vertex $-1 $290 $391 #
straight-curve $-1 76.009399700918607 0 -10.400084010115419 0 -1 0 I I #
point $-1 76.009399700918607 -33.371807822422724 -10.400084010115419 #
coedge $-1 $293 $299 $292 $342 forward $217 $-1 #
edge $-1 $387 -33.371807822422724 $295 33.371807822422724 $292 $392 forward 7 unknown #
straight-curve $-1 0 -33.371807822422724 10.400084010115419 1 0 0 I I #
point $-1 -76.009399700918607 -33.371807822422724 10.400084010115419 #
coedge $-1 $335 $297 $337 $390 reversed $347 $-1 #
coedge $-1 $297 $335 $299 $349 reversed $347 $-1 #
loop $-1 $-1 $297 $329 #
straight-curve $-1 76.009399700918607 33.371807822422724 0 0 0 -1 I I #
edge $-1 $300 -76.009399700918607 $387 76.009399700918607 $346 $393 forward 7 unknown #
point $-1 76.009399700918607 33.371807822422724 10.400084010115419 #
face $-1 $394 $395 $11 $-1 $396 reversed single #
loop $-1 $-1 $397 $303 #
plane-surface $-1 0 -39.072721453623899 -2.4472042539642938 0 0 1 1 0 0 forward_v I I I I #
coedge $-1 $398 $399 $321 $373 forward $304 $-1 #
coedge $-1 $313 $400 $306 $356 forward $363 $-1 #
edge $-1 $358 -76.009399700918607 $315 76.009399700918607 $306 $401 forward 7 unknown #
coedge $-1 $402 $307 $400 $403 reversed $247 $-1 #
vertex $-1 $356 $404 #
coedge $-1 $312 $372 $397 $405 reversed $113 $-1 #
coedge $-1 $406 $407 $312 $361 reversed $408 $-1 #
edge $-1 $409 2.4472042539642938 $364 10.400084010115419 $312 $378 forward 7 unknown #
coedge $-1 $400 $313 $407 $410 forward $363 $-1 #
loop $-1 $-1 $313 $411 #
vertex $-1 $361 $412 #
straight-curve $-1 76.009399700918607 0 -10.400084010115419 0 -1 0 I I #
point $-1 76.009399700918607 33.371807822422724 -10.400084010115419 #
coedge $-1 $316 $413 $414 $415 reversed $247 $-1 #
coedge $-1 $324 $317 $316 $369 forward $325 $-1 #
edge $-1 $319 -33.371807822422724 $416 33.371807822422724 $316 $417 forward 7 unknown #
straight-curve $-1 0 33.371807822422724 10.400084010115419 -1 0 0 I I #
point $-1 -76.009399700918607 33.371807822422724 10.400084010115419 #
coedge $-1 $359 $321 $418 $419 forward $113 $-1 #
edge $-1 $420 -5.7009136312011748 $377 5.7009136312011748 $321 $421 forward 7 unknown #
coedge $-1 $414 $322 $324 $379 reversed $376 $-1 #
coedge $-1 $322 $414 $398 $422 forward $376 $-1 #
loop $-1 $-1 $375 $423 #
vertex $-1 $373 $424 #
straight-curve $-1 76.009399700918607 -33.371807822422724 0 0 0 -1 I I #
edge $-1 $416 -76.009399700918607 $326 76.009399700918607 $374 $425 forward 7 unknown #
face $-1 $411 $325 $11 $-1 $426 forward single #
point $-1 76.009399700918607 -33.371807822422724 10.400084010115419 #
plane-surface $-1 0 33.371807822422724 0 0 -1 0 0 0 -1 forward_v I I I I #
coedge $-1 $337 $331 $333 $385 forward $280 $-1 #
straight-curve $-1 0 -33.371807822422724 -10.400084010115419 -1 0 0 I I #
edge $-1 $334 -33.371807822422724 $388 33.371807822422724 $333 $427 forward 7 unknown #
point $-1 -76.009399700918607 -33.371807822422724 -10.400084010115419 #
vertex $-1 $349 $428 #
vertex $-1 $390 $429 #
straight-curve $-1 -76.009399700918607 33.371807822422724 0 0 0 -1 I I #
edge $-1 $388 -76.009399700918607 $338 76.009399700918607 $345 $430 forward 7 unknown #
point $-1 76.009399700918607 33.371807822422724 -10.400084010115419 #
straight-curve $-1 -76.009399700918607 0 10.400084010115419 0 -1 0 I I #
straight-curve $-1 0 33.371807822422724 10.400084010115419 -1 0 0 I I #
face $-1 $423 $408 $11 $-1 $431 reversed single #
loop $-1 $-1 $432 $351 #
plane-surface $-1 0 -44.773635084825074 0.62794128724500986 0 1 0 0 0 1 forward_v I I I I #
coedge $-1 $433 $434 $359 $405 forward $352 $-1 #
coedge $-1 $435 $354 $375 $422 reversed $304 $-1 #
coedge $-1 $354 $435 $436 $437 forward $304 $-1 #
coedge $-1 $355 $362 $357 $403 forward $363 $-1 #
straight-curve $-1 0 33.371807822422724 -10.400084010115419 1 0 0 I I #
coedge $-1 $438 $357 $439 $440 reversed $247 $-1 #
edge $-1 $441 -33.371807822422724 $358 33.371807822422724 $357 $442 forward 7 unknown #
point $-1 -76.009399700918607 33.371807822422724 -10.400084010115419 #
edge $-1 $409 -5.7009136312011748 $443 5.7009136312011748 $359 $444 forward 7 unknown #
coedge $-1 $439 $360 $434 $445 forward $408 $-1 #
coedge $-1 $360 $439 $362 $410 reversed $408 $-1 #
loop $-1 $-1 $406 $394 #
vertex $-1 $361 $446 #
edge $-1 $364 -76.009399700918607 $441 76.009399700918607 $407 $447 forward 7 unknown #
face $-1 $197 $363 $11 $-1 $448 reversed single #
point $-1 76.009399700918607 -33.371807822422724 -10.400084010115419 #
coedge $-1 $367 $449 $435 $450 reversed $247 $-1 #
coedge $-1 $375 $374 $367 $415 forward $376 $-1 #
edge $-1 $416 -10.400084010115419 $451 -3.7030868284543135 $367 $452 forward 7 unknown #
vertex $-1 $369 $453 #
straight-curve $-1 -76.009399700918607 0 10.400084010115419 0 -1 0 I I #
coedge $-1 $436 $454 $372 $419 reversed $395 $-1 #
edge $-1 $420 -3.0751455412093036 $443 3.0751455412093036 $372 $455 forward 7 unknown #
vertex $-1 $373 $456 #
straight-curve $-1 76.009399700918607 -39.072721453623899 3.7030868284543135 0 1 0 I I #
edge $-1 $451 -76.009399700918607 $377 76.009399700918607 $375 $457 forward 7 unknown #
face $-1 $380 $376 $11 $-1 $431 reversed single #
point $-1 76.009399700918607 -33.371807822422724 3.7030868284543135 #
straight-curve $-1 0 -33.371807822422724 10.400084010115419 1 0 0 I I #
plane-surface $-1 0 0 10.400084010115419 0 0 1 1 0 0 forward_v I I I I #
straight-curve $-1 -76.009399700918607 0 -10.400084010115419 0 1 0 I I #
point $-1 -76.009399700918607 33.371807822422724 10.400084010115419 #
point $-1 -76.009399700918607 33.371807822422724 -10.400084010115419 #
straight-curve $-1 0 33.371807822422724 -10.400084010115419 1 0 0 I I #
plane-surface $-1 0 -33.371807822422724 0 0 1 0 0 0 1 forward_v I I I I #
coedge $-1 $454 $436 $449 $458 forward $395 $-1 #
coedge $-1 $459 $397 $454 $460 forward $352 $-1 #
coedge $-1 $397 $459 $406 $445 reversed $352 $-1 #
coedge $-1 $399 $398 $413 $450 forward $304 $-1 #
coedge $-1 $432 $418 $399 $437 reversed $395 $-1 #
edge $-1 $461 -76.009399700918607 $420 76.009399700918607 $436 $462 forward 7 unknown #
coedge $-1 $449 $402 $459 $463 reversed $247 $-1 #
coedge $-1 $407 $406 $402 $440 forward $408 $-1 #
edge $-1 $464 2.4472042539642938 $441 10.400084010115419 $402 $452 forward 7 unknown #
vertex $-1 $403 $465 #
straight-curve $-1 -76.009399700918607 0 -10.400084010115419 0 1 0 I I #
vertex $-1 $419 $466 #
straight-curve $-1 76.009399700918607 -39.072721453623899 -2.4472042539642938 0 -1 0 I I #
edge $-1 $409 -76.009399700918607 $464 76.009399700918607 $406 $467 forward 7 unknown #
point $-1 76.009399700918607 -33.371807822422724 -2.4472042539642938 #
straight-curve $-1 0 -33.371807822422724 -10.400084010115419 -1 0 0 I I #
plane-surface $-1 0 0 -10.400084010115419 0 0 1 1 0 0 forward_v I I I I #
coedge $-1 $413 $438 $432 $458 reversed $247 $-1 #
edge $-1 $451 -5.7009136312011748 $461 5.7009136312011748 $413 $468 forward 7 unknown #
vertex $-1 $415 $469 #
straight-curve $-1 -76.009399700918607 -33.371807822422724 0 0 0 -1 I I #
point $-1 -76.009399700918607 -33.371807822422724 10.400084010115419 #
coedge $-1 $418 $432 $433 $460 reversed $395 $-1 #
straight-curve $-1 76.009399700918607 -44.773635084825074 0.62794128724500986 0 0 -1 I I #
point $-1 76.009399700918607 -44.773635084825074 3.7030868284543135 #
straight-curve $-1 0 -33.371807822422724 3.7030868284543135 1 0 0 I I #
edge $-1 $461 -3.0751455412093036 $470 3.0751455412093036 $449 $471 forward 7 unknown #
coedge $-1 $434 $433 $438 $463 forward $352 $-1 #
edge $-1 $443 -76.009399700918607 $470 76.009399700918607 $454 $472 forward 7 unknown #
vertex $-1 $450 $473 #
straight-curve $-1 0 -44.773635084825074 3.7030868284543135 1 0 0 I I #
edge $-1 $470 -5.7009136312011748 $464 5.7009136312011748 $438 $474 forward 7 unknown #
vertex $-1 $440 $475 #
point $-1 -76.009399700918607 -33.371807822422724 -10.400084010115419 #
point $-1 76.009399700918607 -44.773635084825074 -2.4472042539642938 #
straight-curve $-1 0 -33.371807822422724 -2.4472042539642938 -1 0 0 I I #
straight-curve $-1 -76.009399700918607 -39.072721453623899 3.7030868284543135 0 -1 0 I I #
point $-1 -76.009399700918607 -33.371807822422724 3.7030868284543135 #
vertex $-1 $463 $476 #
straight-curve $-1 -76.009399700918607 -44.773635084825074 0.62794128724500986 0 0 -1 I I #
straight-curve $-1 0 -44.773635084825074 -2.4472042539642938 -1 0 0 I I #
point $-1 -76.009399700918607 -44.773635084825074 3.7030868284543135 #
straight-curve $-1 -76.009399700918607 -39.072721453623899 -2.4472042539642938 0 1 0 I I #
point $-1 -76.009399700918607 -33.371807822422724 -2.4472042539642938 #
point $-1 -76.009399700918607 -44.773635084825074 -2.4472042539642938 #
End-of-ACIS-data 