500 0 10 0           
7 Unknown 11 ACIS 5.0 NT 24 Thu Mar 25 15:41:43 1999 
-1 9.9999999999999995e-007 1e-010 
body $-1 $10 $-1 $11 #
body $-1 $12 $-1 $13 #
body $-1 $14 $-1 $15 #
body $-1 $16 $-1 $17 #
body $-1 $18 $-1 $19 #
body $-1 $20 $-1 $21 #
body $-1 $22 $-1 $23 #
body $-1 $24 $-1 $25 #
body $-1 $26 $-1 $27 #
body $-1 $28 $-1 $29 #
lump $-1 $-1 $30 $0 #
transform $-1 1 0 0 0 1 0 0 0 1 52.214728232673117 21.298930556898981 8.2195268617236543 1 rotate no_reflect no_shear #
lump $-1 $-1 $31 $1 #
transform $-1 1 0 0 0 1 0 0 0 1 52.214728232673117 21.298930556898981 8.2195268617236543 1 rotate no_reflect no_shear #
lump $-1 $-1 $32 $2 #
transform $-1 1 0 0 0 1 0 0 0 1 52.214728232673117 21.298930556898981 8.2195268617236543 1 rotate no_reflect no_shear #
lump $-1 $-1 $33 $3 #
transform $-1 1 0 0 0 1 0 0 0 1 52.214728232673117 21.298930556898981 8.2195268617236543 1 rotate no_reflect no_shear #
lump $-1 $-1 $34 $4 #
transform $-1 1 0 0 0 1 0 0 0 1 52.214728232673117 21.298930556898981 8.2195268617236543 1 rotate no_reflect no_shear #
lump $-1 $-1 $35 $5 #
transform $-1 1 0 0 0 1 0 0 0 1 52.214728232673117 21.298930556898981 8.2195268617236543 1 rotate no_reflect no_shear #
lump $-1 $-1 $36 $6 #
transform $-1 1 0 0 0 1 0 0 0 1 52.214728232673117 21.298930556898981 8.2195268617236543 1 rotate no_reflect no_shear #
lump $-1 $-1 $37 $7 #
transform $-1 1 0 0 0 1 0 0 0 1 52.214728232673117 21.298930556898981 8.2195268617236543 1 rotate no_reflect no_shear #
lump $-1 $-1 $38 $8 #
transform $-1 1 0 0 0 1 0 0 0 1 52.214728232673117 21.298930556898981 8.2195268617236543 1 rotate no_reflect no_shear #
lump $-1 $-1 $39 $9 #
transform $-1 1 0 0 0 1 0 0 0 1 52.214728232673117 21.298930556898981 8.2195268617236543 1 rotate no_reflect no_shear #
shell $-1 $-1 $-1 $40 $-1 $10 #
shell $-1 $-1 $-1 $41 $-1 $12 #
shell $-1 $-1 $-1 $42 $-1 $14 #
shell $-1 $-1 $-1 $43 $-1 $16 #
shell $-1 $-1 $-1 $44 $-1 $18 #
shell $-1 $-1 $-1 $45 $-1 $20 #
shell $-1 $-1 $-1 $46 $-1 $22 #
shell $-1 $-1 $-1 $47 $-1 $24 #
shell $-1 $-1 $-1 $48 $-1 $26 #
shell $-1 $-1 $-1 $49 $-1 $28 #
face $-1 $50 $51 $30 $-1 $52 forward single #
face $-1 $53 $54 $31 $-1 $55 forward single #
face $-1 $56 $57 $32 $-1 $58 forward single #
face $-1 $59 $60 $33 $-1 $61 reversed single #
face $-1 $62 $63 $34 $-1 $64 forward single #
face $-1 $65 $66 $35 $-1 $67 forward single #
face $-1 $68 $69 $36 $-1 $70 forward single #
face $-1 $71 $72 $37 $-1 $73 reversed single #
face $-1 $74 $75 $38 $-1 $76 forward single #
face $-1 $77 $78 $39 $-1 $79 forward single #
face $-1 $80 $81 $30 $-1 $82 reversed single #
loop $-1 $-1 $83 $40 #
plane-surface $-1 0 0 8.2195268617236543 0 0 1 1 0 0 forward_v I I I I #
face $-1 $84 $85 $31 $-1 $86 reversed single #
loop $-1 $-1 $87 $41 #
plane-surface $-1 0 -16.558962428179299 7.5054733160062614 0 0 1 1 0 0 forward_v I I I I #
face $-1 $88 $89 $32 $-1 $90 reversed single #
loop $-1 $-1 $91 $42 #
plane-surface $-1 0 16.558962428179299 7.5054733160062614 0 0 1 1 0 0 forward_v I I I I #
face $-1 $92 $93 $33 $-1 $94 reversed single #
loop $-1 $-1 $95 $43 #
plane-surface $-1 67.652074133331183 5.7087121840597774 151.5608216630479 0 1 0 0.77714596973225614 0 0.62932038083071107 forward_v I I I I #
face $-1 $96 $97 $34 $-1 $98 forward single #
loop $-1 $99 $100 $44 #
cone-surface $-1 50.394772233032477 6.930768607139747 6.1372558089255387 -0.77714596973225614 0 -0.62932038083071107 0.31466019041535553 0 -0.38857298486612807 1 I I 0 1 0.5 forward I I I I #
face $-1 $101 $102 $35 $-1 $103 forward single #
loop $-1 $104 $105 $45 #
cone-surface $-1 50.394772233032477 8.7638532417596977 6.1372558089255387 -0.77714596973225614 0 -0.62932038083071107 0.31466019041535553 0 -0.38857298486612807 1 I I 0 1 0.5 forward I I I I #
face $-1 $106 $107 $36 $-1 $108 forward single #
loop $-1 $109 $110 $46 #
cone-surface $-1 50.394772233032477 10.596937876379648 6.1372558089255387 -0.77714596973225614 0 -0.62932038083071107 0.31466019041535553 0 -0.38857298486612807 1 I I 0 1 0.5 forward I I I I #
face $-1 $111 $112 $37 $-1 $113 reversed single #
loop $-1 $-1 $114 $47 #
plane-surface $-1 -119.34068975994319 8.5454144955335423 83.898191742326873 0 -1 0 0.64278761758704617 0 -0.76604443648966558 forward_v I I I I #
face $-1 $115 $116 $38 $-1 $117 forward single #
loop $-1 $118 $119 $48 #
cone-surface $-1 -49.319778793903083 3.810092534790968 5.677035018321317 0.64278761758704617 0 -0.76604443648966558 0.38302221824483279 0 0.32139380879352308 1 I I 0 1 0.5 forward I I I I #
face $-1 $120 $121 $39 $-1 $122 forward single #
loop $-1 $123 $124 $49 #
cone-surface $-1 -49.319778793903083 6.6512857112365111 5.677035018321317 0.64278761758704617 0 -0.76604443648966558 0.38302221824483279 0 0.32139380879352308 1 I I 0 1 0.5 forward I I I I #
face $-1 $125 $126 $30 $-1 $127 reversed single #
loop $-1 $-1 $128 $50 #
plane-surface $-1 0 0 -8.2195268617236543 0 0 1 1 0 0 forward_v I I I I #
coedge $-1 $129 $130 $131 $132 forward $51 $-1 #
face $-1 $133 $134 $31 $-1 $135 reversed single #
loop $-1 $-1 $136 $53 #
plane-surface $-1 0 -16.558962428179299 4.5054733160062614 0 0 1 1 0 0 forward_v I I I I #
coedge $-1 $137 $138 $139 $140 reversed $54 $-1 #
face $-1 $141 $142 $32 $-1 $143 reversed single #
loop $-1 $-1 $144 $56 #
plane-surface $-1 0 16.558962428179299 4.5054733160062614 0 0 1 1 0 0 forward_v I I I I #
coedge $-1 $145 $146 $147 $148 reversed $57 $-1 #
face $-1 $149 $150 $33 $-1 $151 forward single #
loop $-1 $-1 $152 $59 #
plane-surface $-1 -13.50485708004274 8.7638532417596977 85.841236350332053 0.77714596973225614 0 0.62932038083071107 0.62932038083071107 0 -0.77714596973225614 forward_v I I I I #
coedge $-1 $153 $154 $155 $156 reversed $60 $-1 #
face $-1 $-1 $157 $34 $-1 $158 forward single #
loop $-1 $159 $160 $62 #
cone-surface $-1 49.811912755733282 6.930768607139747 5.6652655233025051 -0.77714596973225614 0 -0.62932038083071107 0.15733009520767777 0 -0.19428649243306403 1 I I -0.70710678118654746 0.70710678118654746 0.25 forward I I I I #
loop $-1 $-1 $161 $44 #
coedge $-1 $100 $100 $162 $163 reversed $63 $-1 #
face $-1 $-1 $164 $35 $-1 $165 forward single #
loop $-1 $166 $167 $65 #
cone-surface $-1 49.811912755733282 8.7638532417596977 5.6652655233025051 -0.77714596973225614 0 -0.62932038083071107 0.15733009520767777 0 -0.19428649243306403 1 I I -0.70710678118654746 0.70710678118654746 0.25 forward I I I I #
loop $-1 $-1 $168 $45 #
coedge $-1 $105 $105 $169 $170 reversed $66 $-1 #
face $-1 $-1 $171 $36 $-1 $172 forward single #
loop $-1 $173 $174 $68 #
cone-surface $-1 49.811912755733282 10.596937876379648 5.6652655233025051 -0.77714596973225614 0 -0.62932038083071107 0.15733009520767777 0 -0.19428649243306403 1 I I -0.70710678118654746 0.70710678118654746 0.25 forward I I I I #
loop $-1 $-1 $175 $46 #
coedge $-1 $110 $110 $176 $177 reversed $69 $-1 #
face $-1 $178 $179 $37 $-1 $180 reversed single #
loop $-1 $-1 $181 $71 #
plane-surface $-1 -52.214728232673124 5.2306891230137396 3.9005876114086533 -0.64278761758704617 0 0.76604443648966558 0.76604443648966558 0 0.64278761758704617 forward_v I I I I #
coedge $-1 $182 $183 $184 $185 reversed $72 $-1 #
face $-1 $-1 $186 $38 $-1 $187 forward single #
loop $-1 $188 $189 $74 #
cone-surface $-1 -48.837688080712802 3.810092534790968 5.1025016909540675 0.64278761758704617 0 -0.76604443648966558 0.1915111091224164 0 0.16069690439676154 1 I I -0.70710678118654746 0.70710678118654746 0.25 forward I I I I #
loop $-1 $-1 $190 $48 #
coedge $-1 $119 $119 $191 $192 reversed $75 $-1 #
face $-1 $-1 $193 $39 $-1 $194 forward single #
loop $-1 $195 $196 $77 #
cone-surface $-1 -48.837688080712802 6.6512857112365111 5.1025016909540675 0.64278761758704617 0 -0.76604443648966558 0.1915111091224164 0 0.16069690439676154 1 I I -0.70710678118654746 0.70710678118654746 0.25 forward I I I I #
loop $-1 $-1 $197 $49 #
coedge $-1 $124 $124 $198 $199 reversed $78 $-1 #
face $-1 $200 $201 $30 $-1 $202 reversed single #
loop $-1 $-1 $203 $80 #
plane-surface $-1 0 -21.298930556898981 0 0 1 0 0 0 1 forward_v I I I I #
coedge $-1 $204 $205 $206 $207 forward $81 $-1 #
coedge $-1 $208 $83 $209 $210 forward $51 $-1 #
coedge $-1 $83 $208 $211 $212 forward $51 $-1 #
coedge $-1 $213 $214 $83 $132 reversed $215 $-1 #
edge $-1 $216 -21.298930556898981 $217 21.298930556898981 $131 $218 forward 7 unknown #
face $-1 $219 $220 $31 $-1 $221 reversed single #
loop $-1 $-1 $222 $84 #
plane-surface $-1 0 -11.818994299459618 6.0054733160062614 0 -1 0 0 0 -1 forward_v I I I I #
coedge $-1 $223 $224 $225 $226 reversed $85 $-1 #
coedge $-1 $227 $87 $228 $229 forward $54 $-1 #
coedge $-1 $87 $227 $230 $231 reversed $54 $-1 #
coedge $-1 $232 $233 $87 $140 forward $234 $-1 #
edge $-1 $235 3.5395130853699683 $236 13.019449342809331 $139 $237 forward 7 unknown #
face $-1 $238 $239 $32 $-1 $240 reversed single #
loop $-1 $-1 $241 $88 #
plane-surface $-1 0 11.818994299459618 6.0054733160062614 0 1 0 0 0 1 forward_v I I I I #
coedge $-1 $242 $243 $244 $245 reversed $89 $-1 #
coedge $-1 $246 $91 $247 $248 reversed $57 $-1 #
coedge $-1 $91 $246 $241 $249 forward $57 $-1 #
coedge $-1 $250 $251 $91 $148 forward $239 $-1 #
edge $-1 $252 -13.019449342809331 $253 -3.5395130853699683 $147 $254 forward 7 unknown #
face $-1 $255 $256 $33 $-1 $257 reversed single #
loop $-1 $-1 $258 $92 #
plane-surface $-1 0 0 8.2195268617236543 0 0 1 1 0 0 forward_v I I I I #
coedge $-1 $259 $260 $261 $262 reversed $93 $-1 #
coedge $-1 $154 $95 $263 $264 reversed $60 $-1 #
coedge $-1 $95 $153 $259 $265 reversed $60 $-1 #
coedge $-1 $261 $266 $95 $156 forward $256 $-1 #
edge $-1 $267 67.560883969800301 $268 71.096105694565821 $155 $269 forward 7 unknown #
loop $-1 $-1 $162 $96 #
plane-surface $-1 -13.50485708004274 8.7638532417596977 85.841236350332053 0.77714596973225614 0 0.62932038083071107 0.62932038083071107 0 -0.77714596973225614 forward_v I I I I #
loop $-1 $-1 $270 $62 #
coedge $-1 $160 $160 $161 $271 reversed $97 $-1 #
coedge $-1 $161 $161 $160 $271 forward $99 $-1 #
coedge $-1 $162 $162 $100 $163 forward $157 $-1 #
edge $-1 $272 0 $272 6.2831853071796004 $162 $273 forward 7 unknown #
loop $-1 $-1 $169 $101 #
plane-surface $-1 -13.50485708004274 8.7638532417596977 85.841236350332053 0.77714596973225614 0 0.62932038083071107 0.62932038083071107 0 -0.77714596973225614 forward_v I I I I #
loop $-1 $-1 $274 $65 #
coedge $-1 $167 $167 $168 $275 reversed $102 $-1 #
coedge $-1 $168 $168 $167 $275 forward $104 $-1 #
coedge $-1 $169 $169 $105 $170 forward $164 $-1 #
edge $-1 $276 0 $276 6.2831853071796004 $169 $277 forward 7 unknown #
loop $-1 $-1 $176 $106 #
plane-surface $-1 -13.50485708004274 8.7638532417596977 85.841236350332053 0.77714596973225614 0 0.62932038083071107 0.62932038083071107 0 -0.77714596973225614 forward_v I I I I #
loop $-1 $-1 $278 $68 #
coedge $-1 $174 $174 $175 $279 reversed $107 $-1 #
coedge $-1 $175 $175 $174 $279 forward $109 $-1 #
coedge $-1 $176 $176 $110 $177 forward $171 $-1 #
edge $-1 $280 0 $280 6.2831853071796004 $176 $281 forward 7 unknown #
face $-1 $282 $283 $37 $-1 $284 reversed single #
loop $-1 $-1 $285 $111 #
plane-surface $-1 -119.34068975994319 1.9159637504939369 83.898191742326873 0 1 0 -0.64278761758704617 0 0.76604443648966558 forward_v I I I I #
coedge $-1 $286 $287 $288 $289 reversed $112 $-1 #
coedge $-1 $183 $114 $290 $291 reversed $72 $-1 #
coedge $-1 $114 $182 $286 $292 reversed $72 $-1 #
coedge $-1 $288 $293 $114 $185 forward $283 $-1 #
edge $-1 $294 33.729569009439786 $295 38.048508259754776 $184 $296 forward 7 unknown #
loop $-1 $-1 $191 $115 #
plane-surface $-1 -52.214728232673124 5.2306891230137396 3.9005876114086533 -0.64278761758704617 0 0.76604443648966558 0.76604443648966558 0 0.64278761758704617 forward_v I I I I #
loop $-1 $-1 $297 $74 #
coedge $-1 $189 $189 $190 $298 reversed $116 $-1 #
coedge $-1 $190 $190 $189 $298 forward $118 $-1 #
coedge $-1 $191 $191 $119 $192 forward $186 $-1 #
edge $-1 $299 0 $299 6.2831853071796004 $191 $300 forward 7 unknown #
loop $-1 $-1 $198 $120 #
plane-surface $-1 -52.214728232673124 5.2306891230137396 3.9005876114086533 -0.64278761758704617 0 0.76604443648966558 0.76604443648966558 0 0.64278761758704617 forward_v I I I I #
loop $-1 $-1 $301 $77 #
coedge $-1 $196 $196 $197 $302 reversed $121 $-1 #
coedge $-1 $197 $197 $196 $302 forward $123 $-1 #
coedge $-1 $198 $198 $124 $199 forward $193 $-1 #
edge $-1 $303 0 $303 6.2831853071796004 $198 $304 forward 7 unknown #
face $-1 $305 $306 $30 $-1 $307 reversed single #
loop $-1 $-1 $308 $125 #
plane-surface $-1 -52.214728232673117 0 0 1 0 0 0 0 -1 forward_v I I I I #
coedge $-1 $309 $211 $310 $311 forward $126 $-1 #
coedge $-1 $312 $128 $309 $313 forward $81 $-1 #
coedge $-1 $128 $312 $314 $315 forward $81 $-1 #
coedge $-1 $214 $213 $128 $207 reversed $215 $-1 #
edge $-1 $316 -21.298930556898981 $317 21.298930556898981 $206 $318 forward 7 unknown #
coedge $-1 $130 $129 $319 $320 forward $51 $-1 #
coedge $-1 $321 $322 $129 $210 reversed $306 $-1 #
edge $-1 $217 -52.214728232673117 $323 52.214728232673117 $209 $324 forward 7 unknown #
coedge $-1 $203 $325 $130 $212 reversed $126 $-1 #
edge $-1 $326 -52.214728232673117 $216 52.214728232673117 $211 $327 forward 7 unknown #
coedge $-1 $206 $131 $325 $328 forward $215 $-1 #
coedge $-1 $131 $206 $321 $329 reversed $215 $-1 #
loop $-1 $-1 $213 $305 #
vertex $-1 $132 $330 #
vertex $-1 $132 $331 #
straight-curve $-1 52.214728232673117 0 8.2195268617236543 0 1 0 I I #
face $-1 $332 $333 $31 $-1 $334 reversed single #
loop $-1 $-1 $335 $133 #
plane-surface $-1 -52.214728232673117 0 0 1 0 0 0 0 -1 forward_v I I I I #
coedge $-1 $336 $228 $233 $337 reversed $134 $-1 #
coedge $-1 $338 $136 $339 $340 reversed $85 $-1 #
coedge $-1 $136 $338 $336 $341 forward $85 $-1 #
coedge $-1 $233 $232 $136 $226 forward $234 $-1 #
edge $-1 $342 -13.019449342809331 $343 -3.5395130853699683 $225 $344 forward 7 unknown #
coedge $-1 $138 $137 $335 $345 reversed $54 $-1 #
coedge $-1 $222 $346 $137 $229 reversed $134 $-1 #
edge $-1 $235 -52.214728232673117 $347 52.214728232673117 $228 $348 forward 7 unknown #
coedge $-1 $349 $350 $138 $231 forward $333 $-1 #
edge $-1 $236 -52.214728232673117 $351 52.214728232673117 $230 $352 forward 7 unknown #
coedge $-1 $225 $139 $350 $353 forward $234 $-1 #
coedge $-1 $139 $225 $222 $337 forward $234 $-1 #
loop $-1 $-1 $139 $332 #
vertex $-1 $140 $354 #
vertex $-1 $353 $355 #
straight-curve $-1 52.214728232673117 -8.2794812140896497 7.5054733160062614 0 -1 0 I I #
face $-1 $356 $357 $32 $-1 $358 reversed single #
loop $-1 $-1 $147 $141 #
plane-surface $-1 52.214728232673117 0 0 -1 0 0 0 0 1 forward_v I I I I #
coedge $-1 $359 $360 $146 $249 reversed $142 $-1 #
coedge $-1 $361 $144 $362 $363 forward $89 $-1 #
coedge $-1 $144 $361 $364 $365 reversed $89 $-1 #
coedge $-1 $251 $250 $144 $245 forward $239 $-1 #
edge $-1 $366 3.5395130853699683 $367 13.019449342809331 $244 $368 forward 7 unknown #
coedge $-1 $146 $145 $369 $370 reversed $57 $-1 #
coedge $-1 $371 $372 $145 $248 forward $373 $-1 #
edge $-1 $374 -52.214728232673117 $252 52.214728232673117 $247 $375 forward 7 unknown #
edge $-1 $376 -52.214728232673117 $253 52.214728232673117 $241 $377 forward 7 unknown #
coedge $-1 $244 $147 $360 $378 forward $239 $-1 #
coedge $-1 $147 $244 $371 $379 reversed $239 $-1 #
vertex $-1 $379 $380 #
vertex $-1 $148 $381 #
straight-curve $-1 52.214728232673117 8.2794812140896497 7.5054733160062614 0 -1 0 I I #
face $-1 $-1 $382 $33 $-1 $383 forward single #
loop $-1 $-1 $384 $149 #
plane-surface $-1 52.214728232673117 0 0 -1 0 0 0 0 1 forward_v I I I I #
coedge $-1 $385 $386 $387 $388 forward $150 $-1 #
coedge $-1 $389 $152 $154 $265 forward $93 $-1 #
coedge $-1 $152 $389 $390 $391 forward $93 $-1 #
coedge $-1 $384 $155 $152 $262 forward $256 $-1 #
edge $-1 $268 1.3267855631799286 $392 7.4370676785797691 $261 $393 forward 7 unknown #
coedge $-1 $386 $385 $153 $264 forward $150 $-1 #
edge $-1 $394 15.52592513645849 $267 18.388691166007526 $263 $395 forward 7 unknown #
edge $-1 $268 -104.42945646534622 $394 -99.880476141889773 $154 $396 forward 7 unknown #
coedge $-1 $155 $384 $386 $397 reversed $256 $-1 #
vertex $-1 $397 $398 #
vertex $-1 $156 $399 #
straight-curve $-1 52.214728232673117 5.7087121840597774 75.780410831523952 0 0 -1 I I #
coedge $-1 $270 $270 $-1 $400 reversed $159 $-1 #
edge $-1 $401 0 $401 6.2831853071796004 $160 $402 forward 7 unknown #
vertex $-1 $163 $403 #
ellipse-curve $-1 50.783345217898599 6.930768607139747 6.4519159993408897 0.77714596973225614 0 0.62932038083071107 0.31466019041535553 0 -0.38857298486612807 1 I I #
coedge $-1 $274 $274 $-1 $404 reversed $166 $-1 #
edge $-1 $405 0 $405 6.2831853071796004 $167 $406 forward 7 unknown #
vertex $-1 $170 $407 #
ellipse-curve $-1 50.783345217898599 8.7638532417596977 6.4519159993408897 0.77714596973225614 0 0.62932038083071107 0.31466019041535553 0 -0.38857298486612807 1 I I #
coedge $-1 $278 $278 $-1 $408 reversed $173 $-1 #
edge $-1 $409 0 $409 6.2831853071796004 $174 $410 forward 7 unknown #
vertex $-1 $177 $411 #
ellipse-curve $-1 50.783345217898599 10.596937876379648 6.4519159993408897 0.77714596973225614 0 0.62932038083071107 0.31466019041535553 0 -0.38857298486612807 1 I I #
face $-1 $-1 $412 $37 $-1 $413 forward single #
loop $-1 $-1 $184 $178 #
plane-surface $-1 -52.214728232673117 0 0 1 0 0 0 0 -1 forward_v I I I I #
coedge $-1 $414 $415 $416 $417 reversed $179 $-1 #
coedge $-1 $418 $181 $183 $292 forward $112 $-1 #
coedge $-1 $181 $418 $414 $419 forward $112 $-1 #
coedge $-1 $416 $184 $181 $289 forward $283 $-1 #
edge $-1 $295 -5.9300699340266725 $420 0.69938081101293292 $288 $421 forward 7 unknown #
coedge $-1 $422 $423 $182 $291 forward $412 $-1 #
edge $-1 $424 -12.602727907251477 $294 -7.4556166472984771 $290 $425 forward 7 unknown #
edge $-1 $295 9.1539886837149753e-015 $424 6.7190766158934769 $183 $426 forward 7 unknown #
coedge $-1 $184 $416 $422 $427 reversed $283 $-1 #
vertex $-1 $427 $428 #
vertex $-1 $185 $429 #
straight-curve $-1 -52.214728232673117 8.5454144955335423 41.949095871163436 0 0 -1 I I #
coedge $-1 $297 $297 $-1 $430 reversed $188 $-1 #
edge $-1 $431 0 $431 6.2831853071796004 $189 $432 forward 7 unknown #
vertex $-1 $192 $433 #
ellipse-curve $-1 -49.641172602696614 3.810092534790968 6.0600572365661591 -0.64278761758704617 0 0.76604443648966558 0.38302221824483279 0 0.32139380879352308 1 I I #
coedge $-1 $301 $301 $-1 $434 reversed $195 $-1 #
edge $-1 $435 0 $435 6.2831853071796004 $196 $436 forward 7 unknown #
vertex $-1 $199 $437 #
ellipse-curve $-1 -49.641172602696614 6.6512857112365111 6.0600572365661591 -0.64278761758704617 0 0.76604443648966558 0.38302221824483279 0 0.32139380879352308 1 I I #
face $-1 $-1 $215 $30 $-1 $438 reversed single #
loop $-1 $-1 $321 $200 #
plane-surface $-1 0 21.298930556898981 0 0 -1 0 0 0 -1 forward_v I I I I #
coedge $-1 $439 $319 $322 $440 forward $201 $-1 #
coedge $-1 $325 $203 $204 $313 reversed $126 $-1 #
coedge $-1 $319 $439 $203 $311 reversed $201 $-1 #
edge $-1 $326 -8.2195268617236543 $441 8.2195268617236543 $310 $442 forward 7 unknown #
coedge $-1 $205 $204 $439 $443 forward $81 $-1 #
edge $-1 $317 -52.214728232673117 $441 52.214728232673117 $309 $444 forward 7 unknown #
coedge $-1 $322 $321 $205 $315 reversed $306 $-1 #
edge $-1 $445 -52.214728232673117 $316 52.214728232673117 $314 $446 forward 7 unknown #
vertex $-1 $207 $447 #
vertex $-1 $328 $448 #
straight-curve $-1 52.214728232673117 0 -8.2195268617236543 0 -1 0 I I #
coedge $-1 $308 $310 $208 $320 reversed $201 $-1 #
edge $-1 $323 -21.298930556898981 $326 21.298930556898981 $319 $449 forward 7 unknown #
coedge $-1 $314 $209 $214 $329 forward $306 $-1 #
coedge $-1 $209 $314 $308 $440 reversed $306 $-1 #
vertex $-1 $210 $450 #
straight-curve $-1 0 21.298930556898981 8.2195268617236543 -1 0 0 I I #
coedge $-1 $211 $309 $213 $328 reversed $126 $-1 #
vertex $-1 $320 $451 #
straight-curve $-1 0 -21.298930556898981 8.2195268617236543 1 0 0 I I #
edge $-1 $216 -8.2195268617236543 $317 8.2195268617236543 $213 $452 forward 7 unknown #
edge $-1 $217 -8.2195268617236543 $316 8.2195268617236543 $214 $453 forward 7 unknown #
point $-1 52.214728232673117 -21.298930556898981 8.2195268617236543 #
point $-1 52.214728232673117 21.298930556898981 8.2195268617236543 #
face $-1 $-1 $234 $31 $-1 $454 reversed single #
loop $-1 $-1 $230 $219 #
plane-surface $-1 0 -21.298930556898981 0 0 1 0 0 0 1 forward_v I I I I #
coedge $-1 $455 $456 $227 $345 forward $220 $-1 #
coedge $-1 $346 $222 $224 $341 reversed $134 $-1 #
edge $-1 $343 1.5027366580031307 $235 4.5027366580031307 $233 $457 forward 7 unknown #
coedge $-1 $224 $223 $458 $459 reversed $85 $-1 #
coedge $-1 $350 $349 $223 $340 forward $333 $-1 #
edge $-1 $460 -52.214728232673117 $342 52.214728232673117 $339 $461 forward 7 unknown #
edge $-1 $462 -52.214728232673117 $343 52.214728232673117 $336 $463 forward 7 unknown #
vertex $-1 $340 $464 #
vertex $-1 $226 $465 #
straight-curve $-1 52.214728232673117 -8.2794812140896497 4.5054733160062614 0 1 0 I I #
edge $-1 $351 -13.019449342809331 $347 -3.5395130853699683 $335 $466 forward 7 unknown #
coedge $-1 $228 $336 $455 $467 reversed $134 $-1 #
vertex $-1 $345 $468 #
straight-curve $-1 0 -11.818994299459618 7.5054733160062614 -1 0 0 I I #
coedge $-1 $339 $230 $456 $469 forward $333 $-1 #
coedge $-1 $230 $339 $232 $353 reversed $333 $-1 #
vertex $-1 $469 $470 #
straight-curve $-1 0 -21.298930556898981 7.5054733160062614 -1 0 0 I I #
edge $-1 $236 -7.5054733160062614 $342 -4.5054733160062614 $232 $471 forward 7 unknown #
point $-1 52.214728232673117 -11.818994299459618 7.5054733160062614 #
point $-1 52.214728232673117 -21.298930556898981 7.5054733160062614 #
face $-1 $-1 $373 $32 $-1 $472 reversed single #
loop $-1 $-1 $369 $238 #
plane-surface $-1 -52.214728232673117 0 0 1 0 0 0 0 -1 forward_v I I I I #
coedge $-1 $362 $241 $473 $474 reversed $142 $-1 #
coedge $-1 $241 $362 $250 $378 reversed $142 $-1 #
coedge $-1 $243 $242 $475 $476 reversed $89 $-1 #
coedge $-1 $360 $359 $242 $363 reversed $142 $-1 #
edge $-1 $366 -52.214728232673117 $477 52.214728232673117 $362 $478 forward 7 unknown #
coedge $-1 $372 $371 $243 $365 forward $373 $-1 #
edge $-1 $367 -52.214728232673117 $479 52.214728232673117 $364 $480 forward 7 unknown #
vertex $-1 $245 $481 #
vertex $-1 $365 $482 #
straight-curve $-1 52.214728232673117 8.2794812140896497 4.5054733160062614 0 1 0 I I #
coedge $-1 $483 $473 $246 $370 forward $357 $-1 #
edge $-1 $376 3.5395130853699683 $374 13.019449342809331 $369 $484 forward 7 unknown #
coedge $-1 $364 $247 $251 $379 forward $373 $-1 #
coedge $-1 $247 $364 $483 $485 reversed $373 $-1 #
loop $-1 $-1 $247 $356 #
vertex $-1 $485 $486 #
straight-curve $-1 0 21.298930556898981 7.5054733160062614 1 0 0 I I #
vertex $-1 $370 $487 #
straight-curve $-1 0 11.818994299459618 7.5054733160062614 1 0 0 I I #
edge $-1 $253 -4.5027366580031307 $366 -1.5027366580031307 $250 $488 forward 7 unknown #
edge $-1 $252 -7.5054733160062614 $367 -4.5054733160062614 $251 $489 forward 7 unknown #
point $-1 52.214728232673117 21.298930556898981 7.5054733160062614 #
point $-1 52.214728232673117 11.818994299459618 7.5054733160062614 #
loop $-1 $-1 $390 $255 #
plane-surface $-1 0 11.818994299459618 6.0054733160062614 0 1 0 0 0 1 forward_v I I I I #
coedge $-1 $266 $261 $490 $491 forward $256 $-1 #
coedge $-1 $263 $258 $389 $492 forward $150 $-1 #
coedge $-1 $258 $263 $266 $397 forward $150 $-1 #
coedge $-1 $490 $390 $258 $388 reversed $382 $-1 #
edge $-1 $493 -18.388691166007526 $494 -15.52592513645849 $258 $495 forward 7 unknown #
coedge $-1 $260 $259 $385 $492 reversed $93 $-1 #
coedge $-1 $387 $490 $260 $391 reversed $382 $-1 #
edge $-1 $494 99.880476141889773 $392 104.42945646534622 $390 $496 forward 7 unknown #
vertex $-1 $491 $497 #
straight-curve $-1 52.21472823267311 4.3819266208798489 4.6843051369581303 0 1 0 I I #
vertex $-1 $264 $498 #
straight-curve $-1 33.826037066665592 5.7087121840597774 8.2195268617236508 1 0 0 I I #
straight-curve $-1 -13.50485708004274 5.7087121840597774 85.841236350332053 -0.62932038083071107 0 0.77714596973225614 I I #
edge $-1 $267 5.7087121840597774 $493 11.818994299459618 $266 $499 forward 7 unknown #
point $-1 52.214728232673117 5.7087121840597774 8.2195268617236543 #
point $-1 52.21472823267311 5.7087121840597774 4.6843051369581303 #
edge $-1 $500 1 $500 0 $270 $-1 forward 7 unknown #
vertex $-1 $271 $501 #
ellipse-curve $-1 50.006199248166347 6.930768607139747 5.8225956185101833 0.77714596973225614 0 0.62932038083071107 0.31466019041535553 0 -0.38857298486612807 1 I I #
point $-1 51.098005408313959 6.930768607139747 6.063343014474766 #
edge $-1 $502 1 $502 0 $274 $-1 forward 7 unknown #
vertex $-1 $275 $503 #
ellipse-curve $-1 50.006199248166347 8.7638532417596977 5.8225956185101833 0.77714596973225614 0 0.62932038083071107 0.31466019041535553 0 -0.38857298486612807 1 I I #
point $-1 51.098005408313959 8.7638532417596977 6.063343014474766 #
edge $-1 $504 1 $504 0 $278 $-1 forward 7 unknown #
vertex $-1 $279 $505 #
ellipse-curve $-1 50.006199248166347 10.596937876379648 5.8225956185101833 0.77714596973225614 0 0.62932038083071107 0.31466019041535553 0 -0.38857298486612807 1 I I #
point $-1 51.098005408313959 10.596937876379648 6.063343014474766 #
loop $-1 $-1 $290 $282 #
plane-surface $-1 0 0 8.2195268617236543 0 0 1 1 0 0 forward_v I I I I #
coedge $-1 $415 $285 $287 $419 reversed $179 $-1 #
coedge $-1 $285 $414 $506 $507 reversed $179 $-1 #
coedge $-1 $293 $288 $285 $417 forward $283 $-1 #
edge $-1 $420 -38.048508259754776 $508 -33.729569009439786 $416 $509 forward 7 unknown #
coedge $-1 $287 $286 $423 $510 reversed $112 $-1 #
edge $-1 $511 -6.7190766158934769 $420 -9.1539886837149753e-015 $414 $512 forward 7 unknown #
vertex $-1 $289 $513 #
straight-curve $-1 -52.214728232673117 2.6153445615068698 3.9005876114086639 0 -1 0 I I #
coedge $-1 $506 $290 $293 $427 forward $412 $-1 #
coedge $-1 $290 $506 $418 $510 forward $412 $-1 #
vertex $-1 $291 $514 #
straight-curve $-1 -59.670344879971594 8.5454144955335423 8.2195268617236579 -1 0 0 I I #
straight-curve $-1 -52.214728232673124 8.5454144955335423 3.9005876114086533 0.76604443648966558 0 0.64278761758704617 I I #
edge $-1 $294 -8.5454144955335423 $508 -1.9159637504939369 $293 $515 forward 7 unknown #
point $-1 -52.214728232673117 8.5454144955335423 8.2195268617236543 #
point $-1 -52.214728232673117 8.5454144955335423 3.9005876114086591 #
edge $-1 $516 1 $516 0 $297 $-1 forward 7 unknown #
vertex $-1 $298 $517 #
ellipse-curve $-1 -48.99838498510956 3.810092534790968 5.2940128000764837 -0.64278761758704617 0 0.76604443648966558 0.38302221824483279 0 0.32139380879352308 1 I I #
point $-1 -49.258150384451774 3.810092534790968 6.3814510453596727 #
edge $-1 $518 1 $518 0 $301 $-1 forward 7 unknown #
vertex $-1 $302 $519 #
ellipse-curve $-1 -48.99838498510956 6.6512857112365111 5.2940128000764837 -0.64278761758704617 0 0.76604443648966558 0.38302221824483279 0 0.32139380879352308 1 I I #
point $-1 -49.258150384451774 6.6512857112365111 6.3814510453596727 #
plane-surface $-1 52.214728232673117 0 0 -1 0 0 0 0 1 forward_v I I I I #
coedge $-1 $310 $308 $312 $443 reversed $201 $-1 #
edge $-1 $323 -8.2195268617236543 $445 8.2195268617236543 $322 $520 forward 7 unknown #
vertex $-1 $443 $521 #
straight-curve $-1 -52.214728232673117 -21.298930556898981 0 0 0 -1 I I #
edge $-1 $441 -21.298930556898981 $445 21.298930556898981 $439 $522 forward 7 unknown #
straight-curve $-1 0 -21.298930556898981 -8.2195268617236543 -1 0 0 I I #
vertex $-1 $315 $523 #
straight-curve $-1 0 21.298930556898981 -8.2195268617236543 1 0 0 I I #
point $-1 52.214728232673117 21.298930556898981 -8.2195268617236543 #
point $-1 52.214728232673117 -21.298930556898981 -8.2195268617236543 #
straight-curve $-1 -52.214728232673117 0 8.2195268617236543 0 -1 0 I I #
point $-1 -52.214728232673117 21.298930556898981 8.2195268617236543 #
point $-1 -52.214728232673117 -21.298930556898981 8.2195268617236543 #
straight-curve $-1 52.214728232673117 -21.298930556898981 0 0 0 -1 I I #
straight-curve $-1 52.214728232673117 21.298930556898981 0 0 0 -1 I I #
plane-surface $-1 52.214728232673117 0 0 -1 0 0 0 0 1 forward_v I I I I #
coedge $-1 $458 $335 $346 $467 forward $220 $-1 #
coedge $-1 $335 $458 $349 $469 reversed $220 $-1 #
straight-curve $-1 52.214728232673117 -11.818994299459618 3.0027366580031307 0 0 1 I I #
coedge $-1 $456 $455 $338 $459 forward $220 $-1 #
edge $-1 $462 3.5395130853699683 $460 13.019449342809331 $458 $524 forward 7 unknown #
vertex $-1 $340 $525 #
straight-curve $-1 0 -21.298930556898981 4.5054733160062614 1 0 0 I I #
vertex $-1 $459 $526 #
straight-curve $-1 0 -11.818994299459618 4.5054733160062614 1 0 0 I I #
point $-1 52.214728232673117 -21.298930556898981 4.5054733160062614 #
point $-1 52.214728232673117 -11.818994299459618 4.5054733160062614 #
straight-curve $-1 -52.214728232673117 -8.2794812140896497 7.5054733160062614 0 1 0 I I #
edge $-1 $347 -4.5027366580031307 $462 -1.5027366580031307 $455 $527 forward 7 unknown #
point $-1 -52.214728232673117 -11.818994299459618 7.5054733160062614 #
edge $-1 $351 -7.5054733160062614 $460 -4.5054733160062614 $456 $528 forward 7 unknown #
point $-1 -52.214728232673117 -21.298930556898981 7.5054733160062614 #
straight-curve $-1 52.214728232673117 -21.298930556898981 0 0 0 -1 I I #
plane-surface $-1 0 21.298930556898981 0 0 -1 0 0 0 -1 forward_v I I I I #
coedge $-1 $369 $475 $359 $474 forward $357 $-1 #
edge $-1 $477 1.5027366580031307 $376 4.5027366580031307 $473 $529 forward 7 unknown #
coedge $-1 $473 $483 $361 $476 forward $357 $-1 #
edge $-1 $479 -13.019449342809331 $477 -3.5395130853699683 $475 $530 forward 7 unknown #
vertex $-1 $476 $531 #
straight-curve $-1 0 11.818994299459618 4.5054733160062614 -1 0 0 I I #
vertex $-1 $365 $532 #
straight-curve $-1 0 21.298930556898981 4.5054733160062614 -1 0 0 I I #
point $-1 52.214728232673117 11.818994299459618 4.5054733160062614 #
point $-1 52.214728232673117 21.298930556898981 4.5054733160062614 #
coedge $-1 $475 $369 $372 $485 forward $357 $-1 #
straight-curve $-1 -52.214728232673117 8.2794812140896497 7.5054733160062614 0 1 0 I I #
edge $-1 $374 -7.5054733160062614 $479 -4.5054733160062614 $372 $533 forward 7 unknown #
point $-1 -52.214728232673117 21.298930556898981 7.5054733160062614 #
point $-1 -52.214728232673117 11.818994299459618 7.5054733160062614 #
straight-curve $-1 52.214728232673117 11.818994299459618 3.0027366580031307 0 0 -1 I I #
straight-curve $-1 52.214728232673117 21.298930556898981 0 0 0 -1 I I #
coedge $-1 $390 $387 $384 $491 reversed $382 $-1 #
edge $-1 $392 -71.096105694565821 $493 -67.560883969800301 $384 $534 forward 7 unknown #
edge $-1 $494 -7.4370676785797691 $394 -1.3267855631799286 $385 $535 forward 7 unknown #
vertex $-1 $388 $536 #
vertex $-1 $492 $537 #
straight-curve $-1 33.826037066665592 11.818994299459618 8.2195268617236508 -1 0 0 I I #
straight-curve $-1 -13.50485708004274 11.818994299459618 85.841236350332053 0.62932038083071107 0 -0.77714596973225614 I I #
point $-1 52.214728232673117 11.818994299459618 4.6843051369581339 #
point $-1 49.351962203124081 5.7087121840597774 8.2195268617236508 #
straight-curve $-1 52.214728232673117 0 8.2195268617236543 0 1 0 I I #
vertex $-1 $400 $538 #
point $-1 50.320859438581699 6.930768607139747 5.4340226336440551 #
vertex $-1 $404 $539 #
point $-1 50.320859438581699 8.7638532417596977 5.4340226336440551 #
vertex $-1 $408 $540 #
point $-1 50.320859438581699 10.596937876379648 5.4340226336440551 #
coedge $-1 $423 $422 $415 $507 forward $412 $-1 #
edge $-1 $508 7.4556166472984771 $511 12.602727907251477 $506 $541 forward 7 unknown #
vertex $-1 $507 $542 #
straight-curve $-1 -52.214728232673117 1.9159637504939369 41.949095871163436 0 0 1 I I #
edge $-1 $511 -0.69938081101293292 $424 5.9300699340266725 $423 $543 forward 7 unknown #
vertex $-1 $510 $544 #
straight-curve $-1 -52.214728232673124 1.9159637504939369 3.9005876114086533 -0.76604443648966558 0 -0.64278761758704617 I I #
point $-1 -52.214728232673117 1.9159637504939369 3.9005876114086591 #
point $-1 -47.067616972720117 8.5454144955335423 8.2195268617236543 #
straight-curve $-1 -52.214728232673117 0 8.2195268617236543 0 -1 0 I I #
vertex $-1 $430 $545 #
point $-1 -48.615362766864727 3.810092534790968 5.615406608870007 #
vertex $-1 $434 $546 #
point $-1 -48.615362766864727 6.6512857112365111 5.615406608870007 #
straight-curve $-1 -52.214728232673117 21.298930556898981 0 0 0 -1 I I #
point $-1 -52.214728232673117 -21.298930556898981 -8.2195268617236543 #
straight-curve $-1 -52.214728232673117 0 -8.2195268617236543 0 1 0 I I #
point $-1 -52.214728232673117 21.298930556898981 -8.2195268617236543 #
straight-curve $-1 -52.214728232673117 -8.2794812140896497 4.5054733160062614 0 -1 0 I I #
point $-1 -52.214728232673117 -21.298930556898981 4.5054733160062614 #
point $-1 -52.214728232673117 -11.818994299459618 4.5054733160062614 #
straight-curve $-1 -52.214728232673117 -11.818994299459618 3.0027366580031307 0 0 -1 I I #
straight-curve $-1 -52.214728232673117 -21.298930556898981 0 0 0 -1 I I #
straight-curve $-1 -52.214728232673117 11.818994299459618 3.0027366580031307 0 0 1 I I #
straight-curve $-1 -52.214728232673117 8.2794812140896497 4.5054733160062614 0 -1 0 I I #
point $-1 -52.214728232673117 11.818994299459618 4.5054733160062614 #
point $-1 -52.214728232673117 21.298930556898981 4.5054733160062614 #
straight-curve $-1 -52.214728232673117 21.298930556898981 0 0 0 -1 I I #
straight-curve $-1 52.214728232673117 11.818994299459618 75.780410831523952 0 0 1 I I #
straight-curve $-1 49.351962203124089 4.3819266208798489 8.2195268617236508 0 -1 0 I I #
point $-1 52.214728232673117 11.818994299459618 8.2195268617236543 #
point $-1 49.351962203124081 11.818994299459618 8.2195268617236508 #
point $-1 49.617626263300217 6.930768607139747 5.5079354280948269 #
point $-1 49.617626263300217 8.7638532417596977 5.5079354280948269 #
point $-1 49.617626263300217 10.596937876379648 5.5079354280948269 #
straight-curve $-1 -59.670344879971594 1.9159637504939369 8.2195268617236579 1 0 0 I I #
point $-1 -52.214728232673117 1.9159637504939369 8.2195268617236543 #
straight-curve $-1 -47.06761697272011 2.6153445615068698 8.2195268617236543 0 1 0 I I #
point $-1 -47.067616972720117 1.9159637504939369 8.2195268617236543 #
point $-1 -48.676991176316044 3.810092534790968 4.9109905818316513 #
point $-1 -48.676991176316044 6.6512857112365111 4.9109905818316513 #
End-of-ACIS-data 