500 0 8 0           
7 Unknown 11 ACIS 5.0 NT 24 Thu Mar 25 18:44:15 1999 
-1 9.9999999999999995e-007 1e-010 
body $-1 $8 $-1 $9 #
body $-1 $10 $-1 $11 #
body $-1 $12 $-1 $13 #
body $-1 $14 $-1 $15 #
body $-1 $16 $-1 $17 #
body $-1 $18 $-1 $19 #
body $-1 $20 $-1 $21 #
body $-1 $22 $-1 $23 #
lump $-1 $-1 $24 $0 #
transform $-1 1 0 0 0 1 0 0 0 1 69.571214941862237 39.388726279304095 16.328284117242081 1 rotate no_reflect no_shear #
lump $-1 $-1 $25 $1 #
transform $-1 1 0 0 0 1 0 0 0 1 69.571214941862237 39.388726279304095 16.328284117242081 1 rotate no_reflect no_shear #
lump $-1 $-1 $26 $2 #
transform $-1 1 0 0 0 1 0 0 0 1 69.571214941862237 39.388726279304095 16.328284117242081 1 rotate no_reflect no_shear #
lump $-1 $-1 $27 $3 #
transform $-1 1 0 0 0 1 0 0 0 1 69.571214941862237 39.388726279304095 16.328284117242081 1 rotate no_reflect no_shear #
lump $-1 $-1 $28 $4 #
transform $-1 1 0 0 0 1 0 0 0 1 69.571214941862237 39.388726279304095 16.328284117242081 1 rotate no_reflect no_shear #
lump $-1 $-1 $29 $5 #
transform $-1 1 0 0 0 1 0 0 0 1 69.571214941862237 39.388726279304095 16.328284117242081 1 rotate no_reflect no_shear #
lump $-1 $-1 $30 $6 #
transform $-1 1 0 0 0 1 0 0 0 1 69.571214941862237 39.388726279304095 16.328284117242081 1 rotate no_reflect no_shear #
lump $-1 $-1 $31 $7 #
transform $-1 1 0 0 0 1 0 0 0 1 69.571214941862237 39.388726279304095 16.328284117242081 1 rotate no_reflect no_shear #
shell $-1 $-1 $-1 $32 $-1 $8 #
shell $-1 $-1 $-1 $33 $-1 $10 #
shell $-1 $-1 $-1 $34 $-1 $12 #
shell $-1 $-1 $-1 $35 $-1 $14 #
shell $-1 $-1 $-1 $36 $-1 $16 #
shell $-1 $-1 $-1 $37 $-1 $18 #
shell $-1 $-1 $-1 $38 $-1 $20 #
shell $-1 $-1 $-1 $39 $-1 $22 #
face $-1 $40 $41 $24 $-1 $42 forward single #
face $-1 $43 $44 $25 $-1 $45 forward single #
face $-1 $46 $47 $26 $-1 $48 reversed single #
face $-1 $49 $50 $27 $-1 $51 forward single #
face $-1 $52 $53 $28 $-1 $54 forward single #
face $-1 $55 $56 $29 $-1 $57 reversed single #
face $-1 $58 $59 $30 $-1 $60 forward single #
face $-1 $61 $62 $31 $-1 $63 forward single #
face $-1 $64 $65 $24 $-1 $66 reversed single #
loop $-1 $-1 $67 $32 #
plane-surface $-1 0 0 16.328284117242081 0 0 1 1 0 0 forward_v I I I I #
face $-1 $68 $69 $25 $-1 $70 reversed single #
loop $-1 $-1 $71 $33 #
plane-surface $-1 -63.823900117001507 0 2.2160626675334116 0 0 1 1 0 0 forward_v I I I I #
face $-1 $72 $73 $26 $-1 $74 reversed single #
loop $-1 $-1 $75 $34 #
plane-surface $-1 10.567052541925378 -158.65706840603335 76.923046002424385 1 0 0 0 0.85716730853699208 -0.51503806187062418 forward_v I I I I #
face $-1 $76 $77 $27 $-1 $78 forward single #
loop $-1 $79 $80 $35 #
cone-surface $-1 21.138319908330516 -33.667875147037023 9.3545263322035179 0 0.85716730853699208 -0.51503806187062418 2 0 0 1 I I 0 1 2 forward I I I I #
face $-1 $81 $82 $28 $-1 $83 forward single #
loop $-1 $84 $85 $36 #
cone-surface $-1 36.99522095793823 -33.667875147037023 9.3545263322035179 0 0.85716730853699208 -0.51503806187062418 2 0 0 1 I I 0 1 2 forward I I I I #
face $-1 $86 $87 $29 $-1 $88 reversed single #
loop $-1 $-1 $89 $37 #
plane-surface $-1 10.567052541925378 118.08368192114274 144.44850298548715 1 0 0 0 -0.85716730853699208 -0.51503806187062418 forward_v I I I I #
face $-1 $90 $91 $30 $-1 $92 forward single #
loop $-1 $93 $94 $38 #
cone-surface $-1 21.138319908330516 33.66787514703703 9.354526332203525 0 -0.85716730853699208 -0.51503806187062418 2 0 0 1 I I 0 1 2 forward I I I I #
face $-1 $95 $96 $31 $-1 $97 forward single #
loop $-1 $98 $99 $39 #
cone-surface $-1 36.99522095793823 33.66787514703703 9.354526332203525 0 -0.85716730853699208 -0.51503806187062418 2 0 0 1 I I 0 1 2 forward I I I I #
face $-1 $100 $101 $24 $-1 $102 reversed single #
loop $-1 $-1 $103 $40 #
plane-surface $-1 0 0 -16.328284117242081 0 0 1 1 0 0 forward_v I I I I #
coedge $-1 $104 $105 $106 $107 forward $41 $-1 #
face $-1 $108 $109 $25 $-1 $110 reversed single #
loop $-1 $-1 $111 $43 #
plane-surface $-1 -63.823900117001507 0 -6.202369481270698 0 0 1 1 0 0 forward_v I I I I #
coedge $-1 $112 $113 $114 $115 forward $44 $-1 #
face $-1 $116 $117 $26 $-1 $118 reversed single #
loop $-1 $-1 $119 $46 #
plane-surface $-1 29.06677043313438 -39.388726279304109 5.2593985911417178 0 -0.85716730853699208 0.51503806187062418 1 0 0 forward_v I I I I #
coedge $-1 $120 $121 $122 $123 reversed $47 $-1 #
face $-1 $-1 $124 $27 $-1 $125 forward single #
loop $-1 $126 $127 $49 #
cone-surface $-1 21.138319908330516 -30.415285296224802 7.4001732483445188 0 0.85716730853699208 -0.51503806187062418 1 0 0 1 I I -0.70710678118654746 0.70710678118654746 1 forward I I I I #
loop $-1 $-1 $128 $35 #
coedge $-1 $80 $80 $129 $130 reversed $50 $-1 #
face $-1 $-1 $131 $28 $-1 $132 forward single #
loop $-1 $133 $134 $52 #
cone-surface $-1 36.99522095793823 -30.415285296224802 7.4001732483445188 0 0.85716730853699208 -0.51503806187062418 1 0 0 1 I I -0.70710678118654746 0.70710678118654746 1 forward I I I I #
loop $-1 $-1 $135 $36 #
coedge $-1 $85 $85 $136 $137 reversed $53 $-1 #
face $-1 $138 $139 $29 $-1 $140 reversed single #
loop $-1 $-1 $141 $55 #
plane-surface $-1 29.06677043313438 -1.1846602055864963 72.784855574204485 0 0.85716730853699208 0.51503806187062418 1 0 0 forward_v I I I I #
coedge $-1 $142 $143 $144 $145 reversed $56 $-1 #
face $-1 $-1 $146 $30 $-1 $147 forward single #
loop $-1 $148 $149 $58 #
cone-surface $-1 21.138319908330516 30.415285296224809 7.4001732483445259 0 -0.85716730853699208 -0.51503806187062418 1 0 0 1 I I -0.70710678118654746 0.70710678118654746 1 forward I I I I #
loop $-1 $-1 $150 $38 #
coedge $-1 $94 $94 $151 $152 reversed $59 $-1 #
face $-1 $-1 $153 $31 $-1 $154 forward single #
loop $-1 $155 $156 $61 #
cone-surface $-1 36.99522095793823 30.415285296224809 7.4001732483445259 0 -0.85716730853699208 -0.51503806187062418 1 0 0 1 I I -0.70710678118654746 0.70710678118654746 1 forward I I I I #
loop $-1 $-1 $157 $39 #
coedge $-1 $99 $99 $158 $159 reversed $62 $-1 #
face $-1 $160 $161 $24 $-1 $162 reversed single #
loop $-1 $-1 $163 $64 #
plane-surface $-1 0 -39.388726279304095 0 0 1 0 0 0 1 forward_v I I I I #
coedge $-1 $164 $165 $166 $167 forward $65 $-1 #
coedge $-1 $168 $67 $169 $170 forward $41 $-1 #
coedge $-1 $67 $168 $171 $172 forward $41 $-1 #
coedge $-1 $173 $174 $67 $107 reversed $175 $-1 #
edge $-1 $176 -39.388726279304095 $177 39.388726279304095 $106 $178 forward 7 unknown #
face $-1 $179 $180 $25 $-1 $181 reversed single #
loop $-1 $-1 $182 $68 #
plane-surface $-1 -58.076585292140777 0 -1.9931534068686432 -1 0 0 0 0 1 forward_v I I I I #
coedge $-1 $183 $184 $185 $186 forward $69 $-1 #
coedge $-1 $187 $71 $188 $189 reversed $44 $-1 #
coedge $-1 $71 $187 $190 $191 reversed $44 $-1 #
coedge $-1 $182 $192 $71 $115 reversed $109 $-1 #
edge $-1 $193 -39.388726279304095 $194 39.388726279304095 $114 $195 forward 7 unknown #
face $-1 $196 $197 $26 $-1 $198 forward single #
loop $-1 $-1 $199 $72 #
plane-surface $-1 47.566488324343382 -158.65706840603335 76.923046002424385 -1 0 0 0 -0.85716730853699208 0.51503806187062418 forward_v I I I I #
coedge $-1 $200 $201 $202 $203 reversed $73 $-1 #
coedge $-1 $121 $75 $204 $205 reversed $47 $-1 #
coedge $-1 $75 $120 $200 $206 reversed $47 $-1 #
coedge $-1 $202 $207 $75 $123 forward $208 $-1 #
edge $-1 $209 22.133238883970112 $210 33.202124410070454 $122 $211 forward 7 unknown #
loop $-1 $-1 $129 $76 #
plane-surface $-1 29.06677043313438 -39.388726279304109 5.2593985911417178 0 -0.85716730853699208 0.51503806187062418 1 0 0 forward_v I I I I #
loop $-1 $-1 $212 $49 #
coedge $-1 $127 $127 $128 $213 reversed $77 $-1 #
coedge $-1 $128 $128 $127 $213 forward $79 $-1 #
coedge $-1 $129 $129 $80 $130 forward $124 $-1 #
edge $-1 $214 9.2144326944202374e-016 $214 6.2831853071796013 $129 $215 forward 7 unknown #
loop $-1 $-1 $136 $81 #
plane-surface $-1 29.06677043313438 -39.388726279304109 5.2593985911417178 0 -0.85716730853699208 0.51503806187062418 1 0 0 forward_v I I I I #
loop $-1 $-1 $216 $52 #
coedge $-1 $134 $134 $135 $217 reversed $82 $-1 #
coedge $-1 $135 $135 $134 $217 forward $84 $-1 #
coedge $-1 $136 $136 $85 $137 forward $131 $-1 #
edge $-1 $218 9.2144326944202374e-016 $218 6.2831853071796013 $136 $219 forward 7 unknown #
face $-1 $220 $221 $29 $-1 $222 reversed single #
loop $-1 $-1 $223 $86 #
plane-surface $-1 47.566488324343382 118.08368192114274 144.44850298548715 -1 0 0 0 0.85716730853699208 0.51503806187062418 forward_v I I I I #
coedge $-1 $224 $225 $226 $227 reversed $87 $-1 #
coedge $-1 $143 $89 $228 $229 reversed $56 $-1 #
coedge $-1 $89 $142 $224 $230 reversed $56 $-1 #
coedge $-1 $226 $231 $89 $145 forward $232 $-1 #
edge $-1 $233 19.653114681267276 $234 26.303971861250929 $144 $235 forward 7 unknown #
loop $-1 $-1 $151 $90 #
plane-surface $-1 29.06677043313438 -1.1846602055864963 72.784855574204485 0 0.85716730853699208 0.51503806187062418 1 0 0 forward_v I I I I #
loop $-1 $-1 $236 $58 #
coedge $-1 $149 $149 $150 $237 reversed $91 $-1 #
coedge $-1 $150 $150 $149 $237 forward $93 $-1 #
coedge $-1 $151 $151 $94 $152 forward $146 $-1 #
edge $-1 $238 1.4702199255364637e-016 $238 6.2831853071796004 $151 $239 forward 7 unknown #
loop $-1 $-1 $158 $95 #
plane-surface $-1 29.06677043313438 -1.1846602055864963 72.784855574204485 0 0.85716730853699208 0.51503806187062418 1 0 0 forward_v I I I I #
loop $-1 $-1 $240 $61 #
coedge $-1 $156 $156 $157 $241 reversed $96 $-1 #
coedge $-1 $157 $157 $156 $241 forward $98 $-1 #
coedge $-1 $158 $158 $99 $159 forward $153 $-1 #
edge $-1 $242 1.4702199255364637e-016 $242 6.2831853071796004 $158 $243 forward 7 unknown #
face $-1 $244 $245 $24 $-1 $246 reversed single #
loop $-1 $-1 $247 $100 #
plane-surface $-1 -69.571214941862237 0 0 1 0 0 0 0 -1 forward_v I I I I #
coedge $-1 $248 $171 $249 $250 forward $101 $-1 #
coedge $-1 $251 $103 $248 $252 forward $65 $-1 #
coedge $-1 $103 $251 $253 $254 forward $65 $-1 #
coedge $-1 $174 $173 $103 $167 reversed $175 $-1 #
edge $-1 $255 -39.388726279304095 $256 39.388726279304095 $166 $257 forward 7 unknown #
coedge $-1 $105 $104 $258 $259 forward $41 $-1 #
coedge $-1 $260 $261 $104 $170 reversed $245 $-1 #
edge $-1 $177 -69.571214941862237 $262 69.571214941862237 $169 $263 forward 7 unknown #
coedge $-1 $163 $264 $105 $172 reversed $101 $-1 #
edge $-1 $265 -69.571214941862237 $176 69.571214941862237 $171 $266 forward 7 unknown #
coedge $-1 $166 $106 $264 $267 forward $175 $-1 #
coedge $-1 $106 $166 $260 $268 reversed $175 $-1 #
loop $-1 $-1 $173 $244 #
vertex $-1 $107 $269 #
vertex $-1 $107 $270 #
straight-curve $-1 69.571214941862237 0 16.328284117242081 0 1 0 I I #
face $-1 $271 $272 $25 $-1 $273 reversed single #
loop $-1 $-1 $274 $108 #
plane-surface $-1 0 -39.388726279304095 0 0 1 0 0 0 1 forward_v I I I I #
coedge $-1 $185 $114 $275 $276 reversed $109 $-1 #
coedge $-1 $277 $111 $274 $278 reversed $69 $-1 #
coedge $-1 $111 $277 $279 $280 reversed $69 $-1 #
coedge $-1 $192 $182 $111 $186 reversed $109 $-1 #
edge $-1 $281 -39.388726279304095 $282 39.388726279304095 $185 $283 forward 7 unknown #
coedge $-1 $113 $112 $284 $285 reversed $44 $-1 #
coedge $-1 $286 $287 $112 $189 forward $288 $-1 #
edge $-1 $289 -37.659264883361487 $194 -26.164635233640023 $188 $290 forward 7 unknown #
coedge $-1 $291 $275 $113 $191 forward $180 $-1 #
edge $-1 $193 26.164635233640023 $292 37.659264883361487 $190 $293 forward 7 unknown #
coedge $-1 $114 $185 $286 $294 reversed $109 $-1 #
vertex $-1 $191 $295 #
vertex $-1 $189 $296 #
straight-curve $-1 -58.076585292140777 0 2.2160626675334116 0 1 0 I I #
face $-1 $-1 $208 $26 $-1 $297 reversed single #
loop $-1 $-1 $298 $116 #
plane-surface $-1 0 0 16.328284117242081 0 0 1 1 0 0 forward_v I I I I #
coedge $-1 $299 $300 $301 $302 reversed $117 $-1 #
coedge $-1 $303 $119 $121 $206 forward $73 $-1 #
coedge $-1 $119 $303 $299 $304 forward $73 $-1 #
coedge $-1 $301 $122 $119 $203 forward $208 $-1 #
edge $-1 $210 -3.9663326746418122 $305 33.033103107776192 $202 $306 forward 7 unknown #
coedge $-1 $307 $308 $120 $205 forward $197 $-1 #
edge $-1 $309 -46.590665103696239 $209 -39.939807923712578 $204 $310 forward 7 unknown #
edge $-1 $210 2.787470371894754e-014 $309 12.913331406668638 $121 $311 forward 7 unknown #
coedge $-1 $122 $301 $307 $312 reversed $208 $-1 #
loop $-1 $-1 $301 $196 #
vertex $-1 $312 $313 #
vertex $-1 $123 $314 #
straight-curve $-1 10.567052541925378 -39.388726279304095 38.461523001212193 0 0 -1 I I #
coedge $-1 $212 $212 $-1 $315 reversed $126 $-1 #
edge $-1 $316 0 $316 6.2831853071796004 $127 $317 forward 7 unknown #
vertex $-1 $130 $318 #
ellipse-curve $-1 21.138319908330516 -36.063297689312272 10.793841354191903 0 -0.85716730853699208 0.51503806187062418 2 0 0 1 I I #
coedge $-1 $216 $216 $-1 $319 reversed $133 $-1 #
edge $-1 $320 0 $320 6.2831853071796004 $134 $321 forward 7 unknown #
vertex $-1 $137 $322 #
ellipse-curve $-1 36.99522095793823 -36.063297689312272 10.793841354191903 0 -0.85716730853699208 0.51503806187062418 2 0 0 1 I I #
face $-1 $-1 $232 $29 $-1 $323 forward single #
loop $-1 $-1 $324 $138 #
plane-surface $-1 0 39.388726279304095 0 0 -1 0 0 0 -1 forward_v I I I I #
coedge $-1 $325 $326 $327 $328 reversed $139 $-1 #
coedge $-1 $329 $141 $143 $230 forward $87 $-1 #
coedge $-1 $141 $329 $325 $330 forward $87 $-1 #
coedge $-1 $327 $144 $141 $227 forward $232 $-1 #
edge $-1 $234 -3.9663326746418122 $331 33.033103107776192 $226 $332 forward 7 unknown #
coedge $-1 $333 $334 $142 $229 forward $221 $-1 #
edge $-1 $335 -66.96485290160183 $233 -55.895967375501499 $228 $336 forward 7 unknown #
edge $-1 $234 65.864121151939585 $335 78.777452558608175 $143 $337 forward 7 unknown #
coedge $-1 $144 $327 $333 $338 forward $232 $-1 #
loop $-1 $-1 $327 $220 #
vertex $-1 $229 $339 #
vertex $-1 $145 $340 #
straight-curve $-1 10.567052541925378 59.041840960571371 16.328284117242077 0 -1 0 I I #
coedge $-1 $236 $236 $-1 $341 reversed $148 $-1 #
edge $-1 $342 0 $342 6.2831853071796004 $149 $343 forward 7 unknown #
vertex $-1 $152 $344 #
ellipse-curve $-1 21.138319908330516 36.063297689312272 10.793841354191908 0 0.85716730853699208 0.51503806187062418 2 0 0 1 I I #
coedge $-1 $240 $240 $-1 $345 reversed $155 $-1 #
edge $-1 $346 0 $346 6.2831853071796004 $156 $347 forward 7 unknown #
vertex $-1 $159 $348 #
ellipse-curve $-1 36.99522095793823 36.063297689312272 10.793841354191908 0 0.85716730853699208 0.51503806187062418 2 0 0 1 I I #
face $-1 $-1 $175 $24 $-1 $349 reversed single #
loop $-1 $-1 $260 $160 #
plane-surface $-1 0 39.388726279304095 0 0 -1 0 0 0 -1 forward_v I I I I #
coedge $-1 $350 $258 $261 $351 forward $161 $-1 #
coedge $-1 $264 $163 $164 $252 reversed $101 $-1 #
coedge $-1 $258 $350 $163 $250 reversed $161 $-1 #
edge $-1 $265 -16.328284117242081 $352 16.328284117242081 $249 $353 forward 7 unknown #
coedge $-1 $165 $164 $350 $354 forward $65 $-1 #
edge $-1 $256 -69.571214941862237 $352 69.571214941862237 $248 $355 forward 7 unknown #
coedge $-1 $261 $260 $165 $254 reversed $245 $-1 #
edge $-1 $356 -69.571214941862237 $255 69.571214941862237 $253 $357 forward 7 unknown #
vertex $-1 $167 $358 #
vertex $-1 $267 $359 #
straight-curve $-1 69.571214941862237 0 -16.328284117242081 0 -1 0 I I #
coedge $-1 $247 $249 $168 $259 reversed $161 $-1 #
edge $-1 $262 -39.388726279304095 $265 39.388726279304095 $258 $360 forward 7 unknown #
coedge $-1 $253 $169 $174 $268 forward $245 $-1 #
coedge $-1 $169 $253 $247 $351 reversed $245 $-1 #
vertex $-1 $170 $361 #
straight-curve $-1 0 39.388726279304095 16.328284117242081 -1 0 0 I I #
coedge $-1 $171 $248 $173 $267 reversed $101 $-1 #
vertex $-1 $259 $362 #
straight-curve $-1 0 -39.388726279304095 16.328284117242081 1 0 0 I I #
edge $-1 $176 -16.328284117242081 $256 16.328284117242081 $173 $363 forward 7 unknown #
edge $-1 $177 -16.328284117242081 $255 16.328284117242081 $174 $364 forward 7 unknown #
point $-1 69.571214941862237 -39.388726279304095 16.328284117242081 #
point $-1 69.571214941862237 39.388726279304095 16.328284117242081 #
face $-1 $-1 $288 $25 $-1 $365 reversed single #
loop $-1 $-1 $366 $179 #
plane-surface $-1 -69.571214941862237 0 0 1 0 0 0 0 -1 forward_v I I I I #
coedge $-1 $275 $291 $183 $278 forward $180 $-1 #
coedge $-1 $190 $274 $182 $276 forward $180 $-1 #
edge $-1 $282 -5.2057927778363764 $193 3.2126393709677332 $275 $367 forward 7 unknown #
coedge $-1 $184 $183 $366 $368 reversed $69 $-1 #
edge $-1 $369 -37.659264883361487 $282 -26.164635233640023 $274 $370 forward 7 unknown #
coedge $-1 $287 $286 $184 $280 forward $288 $-1 #
edge $-1 $281 26.164635233640023 $371 37.659264883361487 $279 $372 forward 7 unknown #
vertex $-1 $280 $373 #
vertex $-1 $278 $374 #
straight-curve $-1 -58.076585292140777 0 -6.202369481270698 0 -1 0 I I #
coedge $-1 $375 $376 $187 $285 forward $272 $-1 #
edge $-1 $292 -39.388726279304095 $289 39.388726279304095 $284 $377 forward 7 unknown #
coedge $-1 $279 $188 $192 $294 forward $288 $-1 #
coedge $-1 $188 $279 $375 $378 reversed $288 $-1 #
loop $-1 $-1 $279 $271 #
vertex $-1 $378 $379 #
straight-curve $-1 -31.911950058500754 39.388726279304095 2.2160626675334116 1 0 0 I I #
coedge $-1 $274 $190 $376 $380 forward $180 $-1 #
vertex $-1 $380 $381 #
straight-curve $-1 -31.911950058500754 -39.388726279304095 2.2160626675334116 -1 0 0 I I #
edge $-1 $194 -3.2126393709677332 $281 5.2057927778363764 $286 $382 forward 7 unknown #
point $-1 -58.076585292140777 -39.388726279304095 2.2160626675334116 #
point $-1 -58.076585292140777 39.388726279304095 2.2160626675334116 #
plane-surface $-1 0 -39.388726279304095 0 0 1 0 0 0 1 forward_v I I I I #
coedge $-1 $308 $307 $300 $383 forward $197 $-1 #
coedge $-1 $300 $199 $201 $304 reversed $117 $-1 #
coedge $-1 $199 $299 $298 $383 reversed $117 $-1 #
coedge $-1 $207 $202 $199 $302 forward $208 $-1 #
edge $-1 $305 -33.202124410070454 $384 -22.133238883970112 $301 $385 forward 7 unknown #
coedge $-1 $201 $200 $308 $386 reversed $73 $-1 #
edge $-1 $387 -12.913331406668638 $305 -2.787470371894754e-014 $299 $388 forward 7 unknown #
vertex $-1 $203 $389 #
straight-curve $-1 14.53338521656719 -39.388726279304095 5.2593985911417427 1 0 0 I I #
coedge $-1 $298 $204 $207 $312 forward $197 $-1 #
coedge $-1 $204 $298 $303 $386 forward $197 $-1 #
vertex $-1 $205 $390 #
straight-curve $-1 10.567052541925378 -79.328534203016673 16.328284117242081 0 -1 0 I I #
straight-curve $-1 10.567052541925378 -39.388726279304109 5.2593985911417178 0 0.51503806187062418 0.85716730853699208 I I #
edge $-1 $209 10.567052541925378 $384 47.566488324343382 $207 $391 forward 7 unknown #
point $-1 10.567052541925378 -39.388726279304095 16.328284117242081 #
point $-1 10.567052541925378 -39.388726279304095 5.2593985911417418 #
edge $-1 $392 1 $392 0 $212 $-1 forward 7 unknown #
vertex $-1 $213 $393 #
ellipse-curve $-1 21.138319908330516 -31.272452604761796 7.9152113102151427 0 -0.85716730853699208 0.51503806187062418 2 0 0 1 I I #
point $-1 23.138319908330516 -36.06329768931225 10.793841354191892 #
edge $-1 $394 1 $394 0 $216 $-1 forward 7 unknown #
vertex $-1 $217 $395 #
ellipse-curve $-1 36.99522095793823 -31.272452604761796 7.9152113102151427 0 -0.85716730853699208 0.51503806187062418 2 0 0 1 I I #
point $-1 38.99522095793823 -36.06329768931225 10.793841354191892 #
plane-surface $-1 0 0 16.328284117242081 0 0 1 1 0 0 forward_v I I I I #
coedge $-1 $334 $333 $326 $396 forward $221 $-1 #
coedge $-1 $326 $223 $225 $330 reversed $139 $-1 #
coedge $-1 $223 $325 $324 $396 reversed $139 $-1 #
coedge $-1 $231 $226 $223 $328 forward $232 $-1 #
edge $-1 $331 -26.303971861250929 $397 -19.653114681267276 $327 $398 forward 7 unknown #
coedge $-1 $225 $224 $334 $399 reversed $87 $-1 #
edge $-1 $400 -78.777452558608175 $331 -65.864121151939585 $325 $401 forward 7 unknown #
vertex $-1 $227 $402 #
straight-curve $-1 14.53338521656719 32.737869099320434 16.328284117242085 1 0 0 I I #
coedge $-1 $324 $228 $231 $338 reversed $221 $-1 #
coedge $-1 $228 $324 $329 $399 forward $221 $-1 #
vertex $-1 $229 $403 #
straight-curve $-1 10.567052541925378 39.388726279304095 72.224251492743576 0 0 1 I I #
straight-curve $-1 10.567052541925378 -1.1846602055864963 72.784855574204485 0 0.51503806187062418 -0.85716730853699208 I I #
edge $-1 $397 -47.566488324343382 $233 -10.567052541925378 $333 $404 forward 7 unknown #
point $-1 10.567052541925378 39.388726279304095 16.328284117242081 #
point $-1 10.567052541925378 32.737869099320442 16.328284117242077 #
edge $-1 $405 1 $405 0 $236 $-1 forward 7 unknown #
vertex $-1 $237 $406 #
ellipse-curve $-1 21.138319908330516 31.272452604761803 7.9152113102151498 0 0.85716730853699208 0.51503806187062418 2 0 0 1 I I #
point $-1 23.138319908330516 36.063297689312257 10.793841354191899 #
edge $-1 $407 1 $407 0 $240 $-1 forward 7 unknown #
vertex $-1 $241 $408 #
ellipse-curve $-1 36.99522095793823 31.272452604761803 7.9152113102151498 0 0.85716730853699208 0.51503806187062418 2 0 0 1 I I #
point $-1 38.99522095793823 36.063297689312257 10.793841354191899 #
plane-surface $-1 69.571214941862237 0 0 -1 0 0 0 0 1 forward_v I I I I #
coedge $-1 $249 $247 $251 $354 reversed $161 $-1 #
edge $-1 $262 -16.328284117242081 $356 16.328284117242081 $261 $409 forward 7 unknown #
vertex $-1 $354 $410 #
straight-curve $-1 -69.571214941862237 -39.388726279304095 0 0 0 -1 I I #
edge $-1 $352 -39.388726279304095 $356 39.388726279304095 $350 $411 forward 7 unknown #
straight-curve $-1 0 -39.388726279304095 -16.328284117242081 -1 0 0 I I #
vertex $-1 $254 $412 #
straight-curve $-1 0 39.388726279304095 -16.328284117242081 1 0 0 I I #
point $-1 69.571214941862237 39.388726279304095 -16.328284117242081 #
point $-1 69.571214941862237 -39.388726279304095 -16.328284117242081 #
straight-curve $-1 -69.571214941862237 0 16.328284117242081 0 -1 0 I I #
point $-1 -69.571214941862237 39.388726279304095 16.328284117242081 #
point $-1 -69.571214941862237 -39.388726279304095 16.328284117242081 #
straight-curve $-1 69.571214941862237 -39.388726279304095 0 0 0 -1 I I #
straight-curve $-1 69.571214941862237 39.388726279304095 0 0 0 -1 I I #
plane-surface $-1 0 39.388726279304095 0 0 -1 0 0 0 -1 forward_v I I I I #
coedge $-1 $376 $375 $277 $368 forward $272 $-1 #
straight-curve $-1 -58.076585292140777 -39.388726279304095 -0.99657670343432159 0 0 1 I I #
edge $-1 $371 -39.388726279304095 $369 39.388726279304095 $366 $413 forward 7 unknown #
vertex $-1 $278 $414 #
straight-curve $-1 -31.911950058500754 -39.388726279304095 -6.202369481270698 1 0 0 I I #
vertex $-1 $280 $415 #
straight-curve $-1 -31.911950058500754 39.388726279304095 -6.202369481270698 -1 0 0 I I #
point $-1 -58.076585292140777 39.388726279304095 -6.202369481270698 #
point $-1 -58.076585292140777 -39.388726279304095 -6.202369481270698 #
coedge $-1 $366 $284 $287 $378 forward $272 $-1 #
coedge $-1 $284 $366 $291 $380 reversed $272 $-1 #
straight-curve $-1 -69.571214941862237 0 2.2160626675334116 0 1 0 I I #
edge $-1 $289 -2.2160626675334116 $371 6.202369481270698 $287 $416 forward 7 unknown #
point $-1 -69.571214941862237 39.388726279304095 2.2160626675334116 #
edge $-1 $292 -2.2160626675334116 $369 6.202369481270698 $376 $417 forward 7 unknown #
point $-1 -69.571214941862237 -39.388726279304095 2.2160626675334116 #
straight-curve $-1 -58.076585292140777 39.388726279304095 -0.99657670343432159 0 0 -1 I I #
edge $-1 $384 39.939807923712578 $387 46.590665103696239 $298 $418 forward 7 unknown #
vertex $-1 $383 $419 #
straight-curve $-1 47.566488324343382 -39.388726279304095 38.461523001212193 0 0 1 I I #
edge $-1 $387 -33.033103107776192 $309 3.9663326746418122 $308 $420 forward 7 unknown #
vertex $-1 $386 $421 #
straight-curve $-1 47.566488324343382 -39.388726279304109 5.2593985911417178 0 -0.51503806187062418 -0.85716730853699208 I I #
point $-1 47.566488324343382 -39.388726279304095 5.2593985911417418 #
point $-1 10.567052541925378 -32.737869099320434 16.328284117242081 #
straight-curve $-1 0 -39.388726279304095 16.328284117242081 1 0 0 I I #
vertex $-1 $315 $422 #
point $-1 23.138319908330516 -31.272452604761796 7.9152113102151427 #
vertex $-1 $319 $423 #
point $-1 38.99522095793823 -31.272452604761796 7.9152113102151427 #
edge $-1 $397 55.895967375501499 $400 66.96485290160183 $324 $424 forward 7 unknown #
vertex $-1 $338 $425 #
straight-curve $-1 47.566488324343382 59.041840960571371 16.328284117242077 0 1 0 I I #
edge $-1 $400 -33.033103107776192 $335 3.9663326746418122 $334 $426 forward 7 unknown #
vertex $-1 $399 $427 #
straight-curve $-1 47.566488324343382 -1.1846602055864963 72.784855574204485 0 -0.51503806187062418 0.85716730853699208 I I #
point $-1 47.566488324343382 32.737869099320442 16.328284117242077 #
point $-1 10.567052541925378 39.388726279304095 5.2593985911417462 #
straight-curve $-1 0 39.388726279304095 16.328284117242081 -1 0 0 I I #
vertex $-1 $341 $428 #
point $-1 23.138319908330516 31.272452604761803 7.9152113102151498 #
vertex $-1 $345 $429 #
point $-1 38.99522095793823 31.272452604761803 7.9152113102151498 #
straight-curve $-1 -69.571214941862237 39.388726279304095 0 0 0 -1 I I #
point $-1 -69.571214941862237 -39.388726279304095 -16.328284117242081 #
straight-curve $-1 -69.571214941862237 0 -16.328284117242081 0 1 0 I I #
point $-1 -69.571214941862237 39.388726279304095 -16.328284117242081 #
straight-curve $-1 -69.571214941862237 0 -6.202369481270698 0 -1 0 I I #
point $-1 -69.571214941862237 -39.388726279304095 -6.202369481270698 #
point $-1 -69.571214941862237 39.388726279304095 -6.202369481270698 #
straight-curve $-1 -69.571214941862237 39.388726279304095 0 0 0 -1 I I #
straight-curve $-1 -69.571214941862237 -39.388726279304095 0 0 0 -1 I I #
straight-curve $-1 47.566488324343382 -79.328534203016673 16.328284117242081 0 1 0 I I #
point $-1 47.566488324343382 -39.388726279304095 16.328284117242081 #
straight-curve $-1 14.53338521656719 -32.737869099320427 16.328284117242081 -1 0 0 I I #
point $-1 47.566488324343382 -32.737869099320434 16.328284117242081 #
point $-1 21.138319908330516 -29.558117987687808 6.885135186473895 #
point $-1 36.99522095793823 -29.558117987687808 6.885135186473895 #
straight-curve $-1 47.566488324343382 39.388726279304095 72.224251492743576 0 0 -1 I I #
point $-1 47.566488324343382 39.388726279304095 16.328284117242081 #
straight-curve $-1 14.53338521656719 39.388726279304095 5.2593985911417391 -1 0 0 I I #
point $-1 47.566488324343382 39.388726279304095 5.2593985911417462 #
point $-1 21.138319908330516 29.558117987687815 6.8851351864739021 #
point $-1 36.99522095793823 29.558117987687815 6.8851351864739021 #
End-of-ACIS-data 