500 0 11 0           
7 Unknown 11 ACIS 5.0 NT 24 Thu Mar 25 15:12:12 1999 
-1 9.9999999999999995e-007 1e-010 
body $-1 $11 $-1 $12 #
body $-1 $13 $-1 $14 #
body $-1 $15 $-1 $16 #
body $-1 $17 $-1 $18 #
body $-1 $19 $-1 $20 #
body $-1 $21 $-1 $22 #
body $-1 $23 $-1 $24 #
body $-1 $25 $-1 $26 #
body $-1 $27 $-1 $28 #
body $-1 $29 $-1 $30 #
body $-1 $31 $-1 $32 #
lump $-1 $-1 $33 $0 #
transform $-1 1 0 0 0 1 0 0 0 1 45.101474044007688 20.739493096880711 4.7669123908153743 1 rotate no_reflect no_shear #
lump $-1 $-1 $34 $1 #
transform $-1 1 0 0 0 1 0 0 0 1 45.101474044007688 20.739493096880711 4.7669123908153743 1 rotate no_reflect no_shear #
lump $-1 $-1 $35 $2 #
transform $-1 1 0 0 0 1 0 0 0 1 45.101474044007688 20.739493096880711 4.7669123908153743 1 rotate no_reflect no_shear #
lump $-1 $-1 $36 $3 #
transform $-1 1 0 0 0 1 0 0 0 1 45.101474044007688 20.739493096880711 4.7669123908153743 1 rotate no_reflect no_shear #
lump $-1 $-1 $37 $4 #
transform $-1 1 0 0 0 1 0 0 0 1 45.101474044007688 20.739493096880711 4.7669123908153743 1 rotate no_reflect no_shear #
lump $-1 $-1 $38 $5 #
transform $-1 1 0 0 0 1 0 0 0 1 45.101474044007688 20.739493096880711 4.7669123908153743 1 rotate no_reflect no_shear #
lump $-1 $-1 $39 $6 #
transform $-1 1 0 0 0 1 0 0 0 1 45.101474044007688 20.739493096880711 4.7669123908153743 1 rotate no_reflect no_shear #
lump $-1 $-1 $40 $7 #
transform $-1 1 0 0 0 1 0 0 0 1 45.101474044007688 20.739493096880711 4.7669123908153743 1 rotate no_reflect no_shear #
lump $-1 $-1 $41 $8 #
transform $-1 1 0 0 0 1 0 0 0 1 45.101474044007688 20.739493096880711 4.7669123908153743 1 rotate no_reflect no_shear #
lump $-1 $-1 $42 $9 #
transform $-1 1 0 0 0 1 0 0 0 1 45.101474044007688 20.739493096880711 4.7669123908153743 1 rotate no_reflect no_shear #
lump $-1 $-1 $43 $10 #
transform $-1 1 0 0 0 1 0 0 0 1 45.101474044007688 20.739493096880711 4.7669123908153743 1 rotate no_reflect no_shear #
shell $-1 $-1 $-1 $44 $-1 $11 #
shell $-1 $-1 $-1 $45 $-1 $13 #
shell $-1 $-1 $-1 $46 $-1 $15 #
shell $-1 $-1 $-1 $47 $-1 $17 #
shell $-1 $-1 $-1 $48 $-1 $19 #
shell $-1 $-1 $-1 $49 $-1 $21 #
shell $-1 $-1 $-1 $50 $-1 $23 #
shell $-1 $-1 $-1 $51 $-1 $25 #
shell $-1 $-1 $-1 $52 $-1 $27 #
shell $-1 $-1 $-1 $53 $-1 $29 #
shell $-1 $-1 $-1 $54 $-1 $31 #
face $-1 $55 $56 $33 $-1 $57 forward single #
face $-1 $58 $59 $34 $-1 $60 forward single #
face $-1 $61 $62 $35 $-1 $63 reversed single #
face $-1 $64 $65 $36 $-1 $66 forward single #
face $-1 $67 $68 $37 $-1 $69 forward single #
face $-1 $70 $71 $38 $-1 $72 reversed single #
face $-1 $73 $74 $39 $-1 $75 forward single #
face $-1 $76 $77 $40 $-1 $78 forward single #
face $-1 $79 $80 $41 $-1 $81 reversed single #
face $-1 $82 $83 $42 $-1 $84 forward single #
face $-1 $85 $86 $43 $-1 $87 forward single #
face $-1 $88 $89 $33 $-1 $90 reversed single #
loop $-1 $-1 $91 $44 #
plane-surface $-1 0 0 4.7669123908153743 0 0 1 1 0 0 forward_v I I I I #
face $-1 $92 $93 $34 $-1 $94 reversed single #
loop $-1 $-1 $95 $45 #
plane-surface $-1 0 -20.739493096880711 0 0 1 0 0 0 1 forward_v I I I I #
face $-1 $96 $97 $35 $-1 $98 reversed single #
loop $-1 $-1 $99 $46 #
plane-surface $-1 38.42517465861107 -2.2832746670063528 128.50530594793037 0 -1 0 -0.66913061440640931 0 -0.74314481823134659 forward_v I I I I #
face $-1 $100 $101 $36 $-1 $102 forward single #
loop $-1 $103 $104 $47 #
cone-surface $-1 42.670906919240572 -6.8255879667564212 2.493910695118247 -0.66913061440640931 0 -0.74314481823134659 0.3715724091156733 0 -0.33456530720320465 1 I I 0 1 0.5 forward I I I I #
face $-1 $105 $106 $37 $-1 $107 forward single #
loop $-1 $108 $109 $48 #
cone-surface $-1 42.670906919240572 -4.1001999869063788 2.493910695118247 -0.66913061440640931 0 -0.74314481823134659 0.3715724091156733 0 -0.33456530720320465 1 I I 0 1 0.5 forward I I I I #
face $-1 $110 $111 $38 $-1 $112 reversed single #
loop $-1 $-1 $113 $49 #
plane-surface $-1 -114.2009419272609 -14.033574286003944 59.53034389317483 0 1 0 -0.7660444514056185 0 0.64278759981090561 forward_v I I I I #
face $-1 $114 $115 $39 $-1 $116 forward single #
loop $-1 $117 $118 $50 #
cone-surface $-1 -43.368380406415817 -11.574765501066086 2.8365660934080918 0.7660444514056185 0 -0.64278759981090561 0.3213937999054528 0 0.38302222570280925 1 I I 0 1 0.5 forward I I I I #
face $-1 $119 $120 $40 $-1 $121 forward single #
loop $-1 $122 $123 $51 #
cone-surface $-1 -43.368380406415817 -7.886552323659302 2.8365660934080918 0.7660444514056185 0 -0.64278759981090561 0.3213937999054528 0 0.38302222570280925 1 I I 0 1 0.5 forward I I I I #
face $-1 $124 $125 $41 $-1 $126 reversed single #
loop $-1 $-1 $127 $52 #
plane-surface $-1 -114.2009419272609 4.701341007907204 59.53034389317483 0 1 0 -0.7660444514056185 0 0.64278759981090561 forward_v I I I I #
face $-1 $128 $129 $42 $-1 $130 forward single #
loop $-1 $131 $132 $53 #
cone-surface $-1 -43.368380406415817 7.1601497928450613 2.8365660934080918 0.7660444514056185 0 -0.64278759981090561 0.3213937999054528 0 0.38302222570280925 1 I I 0 1 0.5 forward I I I I #
face $-1 $133 $134 $43 $-1 $135 forward single #
loop $-1 $136 $137 $54 #
cone-surface $-1 -43.368380406415817 10.848362970251845 2.8365660934080918 0.7660444514056185 0 -0.64278759981090561 0.3213937999054528 0 0.38302222570280925 1 I I 0 1 0.5 forward I I I I #
face $-1 $138 $139 $33 $-1 $140 reversed single #
loop $-1 $-1 $141 $55 #
plane-surface $-1 0 0 -4.7669123908153743 0 0 1 1 0 0 forward_v I I I I #
coedge $-1 $142 $143 $144 $145 forward $56 $-1 #
face $-1 $146 $147 $34 $-1 $148 forward single #
loop $-1 $-1 $149 $58 #
plane-surface $-1 -45.101474044007688 0 0 1 0 0 0 0 -1 forward_v I I I I #
coedge $-1 $150 $151 $152 $153 forward $59 $-1 #
face $-1 $154 $155 $35 $-1 $156 reversed single #
loop $-1 $-1 $157 $61 #
plane-surface $-1 -21.932379416792102 -5.4628939768314009 61.471452487130591 0.66913061440640931 0 0.74314481823134659 0.74314481823134659 0 -0.66913061440640931 forward_v I I I I #
coedge $-1 $158 $159 $160 $161 reversed $62 $-1 #
face $-1 $-1 $162 $36 $-1 $163 forward single #
loop $-1 $164 $165 $64 #
cone-surface $-1 42.101598617706017 -6.8255879667564212 1.8616297844072527 -0.66913061440640931 0 -0.74314481823134659 0.18578620455783665 0 -0.16728265360160233 1 I I -0.70710678118654746 0.70710678118654746 0.25 forward I I I I #
loop $-1 $-1 $166 $47 #
coedge $-1 $104 $104 $167 $168 reversed $65 $-1 #
face $-1 $-1 $169 $37 $-1 $170 forward single #
loop $-1 $171 $172 $67 #
cone-surface $-1 42.101598617706017 -4.1001999869063788 1.8616297844072527 -0.66913061440640931 0 -0.74314481823134659 0.18578620455783665 0 -0.16728265360160233 1 I I -0.70710678118654746 0.70710678118654746 0.25 forward I I I I #
loop $-1 $-1 $173 $48 #
coedge $-1 $109 $109 $174 $175 reversed $68 $-1 #
face $-1 $176 $177 $38 $-1 $178 reversed single #
loop $-1 $-1 $179 $70 #
plane-surface $-1 -45.101474044007674 -9.7306589123626956 1.5490073958117065 -0.7660444514056185 0 0.64278759981090561 0.64278759981090561 0 0.7660444514056185 forward_v I I I I #
coedge $-1 $180 $181 $182 $183 reversed $71 $-1 #
face $-1 $-1 $184 $39 $-1 $185 forward single #
loop $-1 $186 $187 $73 #
cone-surface $-1 -42.793847067861606 -11.574765501066086 2.3544753935499125 0.7660444514056185 0 -0.64278759981090561 0.1606968999527264 0 0.19151111285140462 1 I I -0.70710678118654746 0.70710678118654746 0.25 forward I I I I #
loop $-1 $-1 $188 $50 #
coedge $-1 $118 $118 $189 $190 reversed $74 $-1 #
face $-1 $-1 $191 $40 $-1 $192 forward single #
loop $-1 $193 $194 $76 #
cone-surface $-1 -42.793847067861606 -7.886552323659302 2.3544753935499125 0.7660444514056185 0 -0.64278759981090561 0.1606968999527264 0 0.19151111285140462 1 I I -0.70710678118654746 0.70710678118654746 0.25 forward I I I I #
loop $-1 $-1 $195 $51 #
coedge $-1 $123 $123 $196 $197 reversed $77 $-1 #
face $-1 $198 $199 $41 $-1 $200 reversed single #
loop $-1 $-1 $201 $79 #
plane-surface $-1 -45.101474044007674 9.0042563815484513 1.5490073958117065 -0.7660444514056185 0 0.64278759981090561 0.64278759981090561 0 0.7660444514056185 forward_v I I I I #
coedge $-1 $202 $203 $204 $205 reversed $80 $-1 #
face $-1 $-1 $206 $42 $-1 $207 forward single #
loop $-1 $208 $209 $82 #
cone-surface $-1 -42.793847067861606 7.1601497928450613 2.3544753935499125 0.7660444514056185 0 -0.64278759981090561 0.1606968999527264 0 0.19151111285140462 1 I I -0.70710678118654746 0.70710678118654746 0.25 forward I I I I #
loop $-1 $-1 $210 $53 #
coedge $-1 $132 $132 $211 $212 reversed $83 $-1 #
face $-1 $-1 $213 $43 $-1 $214 forward single #
loop $-1 $215 $216 $85 #
cone-surface $-1 -42.793847067861606 10.848362970251845 2.3544753935499125 0.7660444514056185 0 -0.64278759981090561 0.1606968999527264 0 0.19151111285140462 1 I I -0.70710678118654746 0.70710678118654746 0.25 forward I I I I #
loop $-1 $-1 $217 $54 #
coedge $-1 $137 $137 $218 $219 reversed $86 $-1 #
face $-1 $220 $221 $33 $-1 $222 reversed single #
loop $-1 $-1 $223 $88 #
plane-surface $-1 0 -20.739493096880711 0 0 1 0 0 0 1 forward_v I I I I #
coedge $-1 $224 $225 $226 $227 forward $89 $-1 #
coedge $-1 $228 $91 $229 $230 forward $56 $-1 #
coedge $-1 $91 $228 $231 $232 forward $56 $-1 #
coedge $-1 $233 $234 $91 $145 reversed $235 $-1 #
edge $-1 $236 -20.739493096880711 $237 20.739493096880711 $144 $238 forward 7 unknown #
face $-1 $239 $240 $34 $-1 $241 reversed single #
loop $-1 $-1 $242 $92 #
plane-surface $-1 0 -22.744070899850275 0.06140998910260187 0 0 1 1 0 0 forward_v I I I I #
coedge $-1 $243 $244 $151 $245 forward $93 $-1 #
coedge $-1 $246 $95 $247 $248 reversed $59 $-1 #
coedge $-1 $95 $246 $149 $245 reversed $59 $-1 #
coedge $-1 $249 $242 $95 $153 reversed $147 $-1 #
edge $-1 $250 -45.101474044007688 $251 45.101474044007688 $152 $252 forward 7 unknown #
face $-1 $253 $254 $35 $-1 $255 reversed single #
loop $-1 $-1 $256 $96 #
plane-surface $-1 38.42517465861107 -8.6425132866564489 128.50530594793037 0 1 0 0.66913061440640931 0 0.74314481823134659 forward_v I I I I #
coedge $-1 $257 $258 $259 $260 reversed $97 $-1 #
coedge $-1 $159 $99 $261 $262 reversed $62 $-1 #
coedge $-1 $99 $158 $257 $263 reversed $62 $-1 #
coedge $-1 $259 $264 $99 $161 forward $265 $-1 #
edge $-1 $266 -25.888886714702153 $267 -21.831803761033768 $160 $268 forward 7 unknown #
loop $-1 $-1 $167 $100 #
plane-surface $-1 -21.932379416792102 -5.4628939768314009 61.471452487130591 0.66913061440640931 0 0.74314481823134659 0.74314481823134659 0 -0.66913061440640931 forward_v I I I I #
loop $-1 $-1 $269 $64 #
coedge $-1 $165 $165 $166 $270 reversed $101 $-1 #
coedge $-1 $166 $166 $165 $270 forward $103 $-1 #
coedge $-1 $167 $167 $104 $168 forward $162 $-1 #
edge $-1 $271 0 $271 6.2831853071796004 $167 $272 forward 7 unknown #
loop $-1 $-1 $174 $105 #
plane-surface $-1 -21.932379416792102 -5.4628939768314009 61.471452487130591 0.66913061440640931 0 0.74314481823134659 0.74314481823134659 0 -0.66913061440640931 forward_v I I I I #
loop $-1 $-1 $273 $67 #
coedge $-1 $172 $172 $173 $274 reversed $106 $-1 #
coedge $-1 $173 $173 $172 $274 forward $108 $-1 #
coedge $-1 $174 $174 $109 $175 forward $169 $-1 #
edge $-1 $275 0 $275 6.2831853071796004 $174 $276 forward 7 unknown #
face $-1 $277 $278 $38 $-1 $279 forward single #
loop $-1 $-1 $280 $110 #
plane-surface $-1 -114.2009419272609 -5.4277435387214483 59.53034389317483 0 -1 0 0.7660444514056185 0 -0.64278759981090561 forward_v I I I I #
coedge $-1 $281 $282 $283 $284 reversed $111 $-1 #
coedge $-1 $181 $113 $285 $286 reversed $71 $-1 #
coedge $-1 $113 $180 $281 $287 reversed $71 $-1 #
coedge $-1 $283 $288 $113 $183 forward $278 $-1 #
edge $-1 $289 11.998996919622762 $290 14.699139743400899 $182 $291 forward 7 unknown #
loop $-1 $-1 $189 $114 #
plane-surface $-1 -45.101474044007674 -9.7306589123626956 1.5490073958117065 -0.7660444514056185 0 0.64278759981090561 0.64278759981090561 0 0.7660444514056185 forward_v I I I I #
loop $-1 $-1 $292 $73 #
coedge $-1 $187 $187 $188 $293 reversed $115 $-1 #
coedge $-1 $188 $188 $187 $293 forward $117 $-1 #
coedge $-1 $189 $189 $118 $190 forward $184 $-1 #
edge $-1 $294 0 $294 6.2831853071796004 $189 $295 forward 7 unknown #
loop $-1 $-1 $196 $119 #
plane-surface $-1 -45.101474044007674 -9.7306589123626956 1.5490073958117065 -0.7660444514056185 0 0.64278759981090561 0.64278759981090561 0 0.7660444514056185 forward_v I I I I #
loop $-1 $-1 $296 $76 #
coedge $-1 $194 $194 $195 $297 reversed $120 $-1 #
coedge $-1 $195 $195 $194 $297 forward $122 $-1 #
coedge $-1 $196 $196 $123 $197 forward $191 $-1 #
edge $-1 $298 0 $298 6.2831853071796004 $196 $299 forward 7 unknown #
face $-1 $300 $301 $41 $-1 $302 forward single #
loop $-1 $-1 $303 $124 #
plane-surface $-1 -114.2009419272609 13.3071717551897 59.53034389317483 0 -1 0 0.7660444514056185 0 -0.64278759981090561 forward_v I I I I #
coedge $-1 $304 $305 $306 $307 reversed $125 $-1 #
coedge $-1 $203 $127 $308 $309 reversed $80 $-1 #
coedge $-1 $127 $202 $304 $310 reversed $80 $-1 #
coedge $-1 $306 $311 $127 $205 forward $301 $-1 #
edge $-1 $312 11.998996919622762 $313 14.699139743400899 $204 $314 forward 7 unknown #
loop $-1 $-1 $211 $128 #
plane-surface $-1 -45.101474044007674 9.0042563815484513 1.5490073958117065 -0.7660444514056185 0 0.64278759981090561 0.64278759981090561 0 0.7660444514056185 forward_v I I I I #
loop $-1 $-1 $315 $82 #
coedge $-1 $209 $209 $210 $316 reversed $129 $-1 #
coedge $-1 $210 $210 $209 $316 forward $131 $-1 #
coedge $-1 $211 $211 $132 $212 forward $206 $-1 #
edge $-1 $317 0 $317 6.2831853071796004 $211 $318 forward 7 unknown #
loop $-1 $-1 $218 $133 #
plane-surface $-1 -45.101474044007674 9.0042563815484513 1.5490073958117065 -0.7660444514056185 0 0.64278759981090561 0.64278759981090561 0 0.7660444514056185 forward_v I I I I #
loop $-1 $-1 $319 $85 #
coedge $-1 $216 $216 $217 $320 reversed $134 $-1 #
coedge $-1 $217 $217 $216 $320 forward $136 $-1 #
coedge $-1 $218 $218 $137 $219 forward $213 $-1 #
edge $-1 $321 0 $321 6.2831853071796004 $218 $322 forward 7 unknown #
face $-1 $323 $324 $33 $-1 $325 reversed single #
loop $-1 $-1 $326 $138 #
plane-surface $-1 -45.101474044007688 0 0 1 0 0 0 0 -1 forward_v I I I I #
coedge $-1 $327 $231 $328 $329 forward $139 $-1 #
coedge $-1 $330 $141 $327 $331 forward $89 $-1 #
coedge $-1 $141 $330 $332 $333 forward $89 $-1 #
coedge $-1 $234 $233 $141 $227 reversed $235 $-1 #
edge $-1 $334 -20.739493096880711 $335 20.739493096880711 $226 $336 forward 7 unknown #
coedge $-1 $143 $142 $337 $338 forward $56 $-1 #
coedge $-1 $339 $340 $142 $230 reversed $324 $-1 #
edge $-1 $237 -45.101474044007688 $341 45.101474044007688 $229 $342 forward 7 unknown #
coedge $-1 $223 $343 $143 $232 reversed $139 $-1 #
edge $-1 $344 -45.101474044007688 $236 45.101474044007688 $231 $345 forward 7 unknown #
coedge $-1 $226 $144 $343 $346 forward $235 $-1 #
coedge $-1 $144 $226 $339 $347 reversed $235 $-1 #
loop $-1 $-1 $233 $323 #
vertex $-1 $145 $348 #
vertex $-1 $145 $349 #
straight-curve $-1 45.101474044007688 0 4.7669123908153743 0 1 0 I I #
face $-1 $350 $351 $34 $-1 $352 reversed single #
loop $-1 $-1 $353 $146 #
plane-surface $-1 0 -22.744070899850275 -2.9385900108973981 0 0 1 1 0 0 forward_v I I I I #
coedge $-1 $152 $354 $355 $356 forward $147 $-1 #
coedge $-1 $357 $149 $358 $359 reversed $93 $-1 #
coedge $-1 $149 $357 $249 $360 reversed $93 $-1 #
edge $-1 $250 -0.06140998910260187 $361 2.9385900108973981 $149 $362 forward 7 unknown #
coedge $-1 $151 $150 $363 $364 forward $59 $-1 #
coedge $-1 $355 $365 $150 $248 forward $366 $-1 #
edge $-1 $367 -2.9385900108973981 $251 0.06140998910260187 $247 $368 forward 7 unknown #
coedge $-1 $354 $152 $244 $360 forward $147 $-1 #
vertex $-1 $245 $369 #
vertex $-1 $356 $370 #
straight-curve $-1 0 -20.739493096880711 0.06140998910260187 1 0 0 I I #
face $-1 $-1 $265 $35 $-1 $371 forward single #
loop $-1 $-1 $372 $154 #
plane-surface $-1 45.101474044007688 0 0 -1 0 0 0 0 1 forward_v I I I I #
coedge $-1 $373 $374 $375 $376 reversed $155 $-1 #
coedge $-1 $377 $157 $159 $263 forward $97 $-1 #
coedge $-1 $157 $377 $373 $378 forward $97 $-1 #
coedge $-1 $375 $160 $157 $260 forward $265 $-1 #
edge $-1 $267 -0.4481723214093476 $379 5.9110662982407485 $259 $380 forward 7 unknown #
coedge $-1 $381 $382 $158 $262 forward $254 $-1 #
edge $-1 $383 -63.138754562237771 $266 -59.485740583149806 $261 $384 forward 7 unknown #
edge $-1 $267 84.743604425599671 $383 90.20294808801539 $159 $385 forward 7 unknown #
coedge $-1 $160 $375 $381 $386 forward $265 $-1 #
loop $-1 $-1 $375 $253 #
vertex $-1 $262 $387 #
vertex $-1 $161 $388 #
straight-curve $-1 19.212587329305535 -2.2832746670063528 4.7669123908153779 -1 0 0 I I #
coedge $-1 $269 $269 $-1 $389 reversed $164 $-1 #
edge $-1 $390 0 $390 6.2831853071796004 $165 $391 forward 7 unknown #
vertex $-1 $168 $392 #
ellipse-curve $-1 43.072932567173503 -6.8255879667564212 2.9404054012713816 0.66913061440640931 0 0.74314481823134659 0.3715724091156733 0 -0.33456530720320465 1 I I #
coedge $-1 $273 $273 $-1 $393 reversed $171 $-1 #
edge $-1 $394 0 $394 6.2831853071796004 $172 $395 forward 7 unknown #
vertex $-1 $175 $396 #
ellipse-curve $-1 43.072932567173503 -4.1001999869063788 2.9404054012713816 0.66913061440640931 0 0.74314481823134659 0.3715724091156733 0 -0.33456530720320465 1 I I #
face $-1 $-1 $397 $38 $-1 $398 reversed single #
loop $-1 $-1 $182 $176 #
plane-surface $-1 0 0 4.7669123908153743 0 0 1 1 0 0 forward_v I I I I #
coedge $-1 $399 $400 $401 $402 reversed $177 $-1 #
coedge $-1 $403 $179 $181 $287 forward $111 $-1 #
coedge $-1 $179 $403 $399 $404 forward $111 $-1 #
coedge $-1 $401 $182 $179 $284 forward $278 $-1 #
edge $-1 $290 -9.168244829822596 $405 -0.5624140825401005 $283 $406 forward 7 unknown #
coedge $-1 $407 $408 $180 $286 forward $397 $-1 #
edge $-1 $409 -28.216164550775726 $289 -24.998259555772041 $285 $410 forward 7 unknown #
edge $-1 $290 -4.2006765914159665 $409 2.2061860048766535e-014 $181 $411 forward 7 unknown #
coedge $-1 $182 $401 $407 $412 forward $278 $-1 #
vertex $-1 $183 $413 #
vertex $-1 $183 $414 #
straight-curve $-1 -57.10047096363045 -14.033574286003944 4.7669123908153743 1 0 0 I I #
coedge $-1 $292 $292 $-1 $415 reversed $186 $-1 #
edge $-1 $416 0 $416 6.2831853071796004 $187 $417 forward 7 unknown #
vertex $-1 $190 $418 #
ellipse-curve $-1 -43.751402632118612 -11.574765501066086 3.1579598933135355 -0.7660444514056185 0 0.64278759981090561 0.3213937999054528 0 0.38302222570280925 1 I I #
coedge $-1 $296 $296 $-1 $419 reversed $193 $-1 #
edge $-1 $420 0 $420 6.2831853071796004 $194 $421 forward 7 unknown #
vertex $-1 $197 $422 #
ellipse-curve $-1 -43.751402632118612 -7.886552323659302 3.1579598933135355 -0.7660444514056185 0 0.64278759981090561 0.3213937999054528 0 0.38302222570280925 1 I I #
face $-1 $-1 $423 $41 $-1 $424 reversed single #
loop $-1 $-1 $204 $198 #
plane-surface $-1 0 0 4.7669123908153743 0 0 1 1 0 0 forward_v I I I I #
coedge $-1 $425 $426 $427 $428 reversed $199 $-1 #
coedge $-1 $429 $201 $203 $310 forward $125 $-1 #
coedge $-1 $201 $429 $425 $430 forward $125 $-1 #
coedge $-1 $427 $204 $201 $307 forward $301 $-1 #
edge $-1 $313 0.19921281713297834 $431 8.8050435644154739 $306 $432 forward 7 unknown #
coedge $-1 $433 $434 $202 $309 forward $423 $-1 #
edge $-1 $435 -28.216164550775726 $312 -24.998259555772041 $308 $436 forward 7 unknown #
edge $-1 $313 -4.2006765914159665 $435 2.2061860048766535e-014 $203 $437 forward 7 unknown #
coedge $-1 $204 $427 $433 $438 forward $301 $-1 #
vertex $-1 $205 $439 #
vertex $-1 $205 $440 #
straight-curve $-1 -57.10047096363045 4.701341007907204 4.7669123908153743 1 0 0 I I #
coedge $-1 $315 $315 $-1 $441 reversed $208 $-1 #
edge $-1 $442 0 $442 6.2831853071796004 $209 $443 forward 7 unknown #
vertex $-1 $212 $444 #
ellipse-curve $-1 -43.751402632118612 7.1601497928450613 3.1579598933135355 -0.7660444514056185 0 0.64278759981090561 0.3213937999054528 0 0.38302222570280925 1 I I #
coedge $-1 $319 $319 $-1 $445 reversed $215 $-1 #
edge $-1 $446 0 $446 6.2831853071796004 $216 $447 forward 7 unknown #
vertex $-1 $219 $448 #
ellipse-curve $-1 -43.751402632118612 10.848362970251845 3.1579598933135355 -0.7660444514056185 0 0.64278759981090561 0.3213937999054528 0 0.38302222570280925 1 I I #
face $-1 $-1 $235 $33 $-1 $449 reversed single #
loop $-1 $-1 $339 $220 #
plane-surface $-1 0 20.739493096880711 0 0 -1 0 0 0 -1 forward_v I I I I #
coedge $-1 $450 $337 $340 $451 forward $221 $-1 #
coedge $-1 $343 $223 $224 $331 reversed $139 $-1 #
coedge $-1 $337 $450 $223 $329 reversed $221 $-1 #
edge $-1 $344 -4.7669123908153743 $452 4.7669123908153743 $328 $453 forward 7 unknown #
coedge $-1 $225 $224 $450 $454 forward $89 $-1 #
edge $-1 $335 -45.101474044007688 $452 45.101474044007688 $327 $455 forward 7 unknown #
coedge $-1 $340 $339 $225 $333 reversed $324 $-1 #
edge $-1 $456 -45.101474044007688 $334 45.101474044007688 $332 $457 forward 7 unknown #
vertex $-1 $227 $458 #
vertex $-1 $346 $459 #
straight-curve $-1 45.101474044007688 0 -4.7669123908153743 0 -1 0 I I #
coedge $-1 $326 $328 $228 $338 reversed $221 $-1 #
edge $-1 $341 -20.739493096880711 $344 20.739493096880711 $337 $460 forward 7 unknown #
coedge $-1 $332 $229 $234 $347 forward $324 $-1 #
coedge $-1 $229 $332 $326 $451 reversed $324 $-1 #
vertex $-1 $230 $461 #
straight-curve $-1 0 20.739493096880711 4.7669123908153743 -1 0 0 I I #
coedge $-1 $231 $327 $233 $346 reversed $139 $-1 #
vertex $-1 $338 $462 #
straight-curve $-1 0 -20.739493096880711 4.7669123908153743 1 0 0 I I #
edge $-1 $236 -4.7669123908153743 $335 4.7669123908153743 $233 $463 forward 7 unknown #
edge $-1 $237 -4.7669123908153743 $334 4.7669123908153743 $234 $464 forward 7 unknown #
point $-1 45.101474044007688 -20.739493096880711 4.7669123908153743 #
point $-1 45.101474044007688 20.739493096880711 4.7669123908153743 #
face $-1 $-1 $366 $34 $-1 $465 reversed single #
loop $-1 $-1 $466 $239 #
plane-surface $-1 0 -24.748648702819839 -1.4385900108973981 0 1 0 0 0 1 forward_v I I I I #
coedge $-1 $467 $363 $365 $468 forward $240 $-1 #
coedge $-1 $242 $249 $469 $470 forward $147 $-1 #
coedge $-1 $471 $247 $242 $356 reversed $366 $-1 #
edge $-1 $472 -2.004577802969564 $251 2.004577802969564 $355 $473 forward 7 unknown #
coedge $-1 $244 $243 $466 $474 reversed $93 $-1 #
coedge $-1 $363 $467 $243 $359 forward $240 $-1 #
edge $-1 $475 -2.004577802969564 $361 2.004577802969564 $243 $476 forward 7 unknown #
edge $-1 $250 -2.004577802969564 $477 2.004577802969564 $244 $478 forward 7 unknown #
vertex $-1 $245 $479 #
straight-curve $-1 -45.101474044007688 -20.739493096880711 0 0 0 -1 I I #
coedge $-1 $353 $358 $246 $364 reversed $240 $-1 #
edge $-1 $367 -45.101474044007688 $361 45.101474044007688 $363 $480 forward 7 unknown #
coedge $-1 $247 $471 $353 $468 reversed $366 $-1 #
loop $-1 $-1 $247 $350 #
vertex $-1 $248 $481 #
straight-curve $-1 45.101474044007688 -20.739493096880711 0 0 0 1 I I #
point $-1 -45.101474044007688 -20.739493096880711 0.06140998910260187 #
point $-1 45.101474044007688 -20.739493096880711 0.06140998910260187 #
plane-surface $-1 0 0 4.7669123908153743 0 0 1 1 0 0 forward_v I I I I #
coedge $-1 $382 $381 $374 $482 forward $254 $-1 #
coedge $-1 $374 $256 $258 $378 reversed $155 $-1 #
coedge $-1 $256 $373 $372 $482 reversed $155 $-1 #
coedge $-1 $264 $259 $256 $376 forward $265 $-1 #
edge $-1 $379 21.831803761033768 $483 25.888886714702153 $375 $484 forward 7 unknown #
coedge $-1 $258 $257 $382 $485 reversed $97 $-1 #
edge $-1 $486 -90.20294808801539 $379 -84.743604425599671 $373 $487 forward 7 unknown #
vertex $-1 $260 $488 #
straight-curve $-1 41.044391090339303 -2.7314469884157004 4.7669123908153708 0 -1 0 I I #
coedge $-1 $372 $261 $264 $386 reversed $254 $-1 #
coedge $-1 $261 $372 $377 $485 forward $254 $-1 #
vertex $-1 $262 $489 #
straight-curve $-1 45.101474044007688 -2.2832746670063528 64.252652973965183 0 0 1 I I #
straight-curve $-1 -21.932379416792102 -2.2832746670063528 61.471452487130591 0.74314481823134659 0 -0.66913061440640931 I I #
edge $-1 $483 -8.6425132866564489 $266 -2.2832746670063528 $381 $490 forward 7 unknown #
point $-1 45.101474044007688 -2.2832746670063528 4.7669123908153743 #
point $-1 41.044391090339303 -2.2832746670063528 4.7669123908153779 #
edge $-1 $491 1 $491 0 $269 $-1 forward 7 unknown #
vertex $-1 $270 $492 #
ellipse-curve $-1 42.26888127130762 -6.8255879667564212 2.0474159889650894 0.66913061440640931 0 0.74314481823134659 0.3715724091156733 0 -0.33456530720320465 1 I I #
point $-1 43.444504976289195 -6.8255879667564212 2.6058400940682001 #
edge $-1 $493 1 $493 0 $273 $-1 forward 7 unknown #
vertex $-1 $274 $494 #
ellipse-curve $-1 42.26888127130762 -4.1001999869063788 2.0474159889650894 0.66913061440640931 0 0.74314481823134659 0.3715724091156733 0 -0.33456530720320465 1 I I #
point $-1 43.444504976289195 -4.1001999869063788 2.6058400940682001 #
loop $-1 $-1 $285 $277 #
plane-surface $-1 -45.101474044007688 0 0 1 0 0 0 0 -1 forward_v I I I I #
coedge $-1 $400 $280 $282 $404 reversed $177 $-1 #
coedge $-1 $280 $399 $495 $496 reversed $177 $-1 #
coedge $-1 $288 $283 $280 $402 forward $278 $-1 #
edge $-1 $405 -14.699139743400899 $497 -11.998996919622762 $401 $498 forward 7 unknown #
coedge $-1 $282 $281 $408 $499 reversed $111 $-1 #
edge $-1 $500 -2.2061860048766535e-014 $405 4.2006765914159665 $399 $501 forward 7 unknown #
vertex $-1 $284 $502 #
straight-curve $-1 -42.401331220229551 -4.8653294561813478 4.7669123908153725 0 1 0 I I #
coedge $-1 $495 $285 $288 $412 reversed $397 $-1 #
coedge $-1 $285 $495 $403 $499 forward $397 $-1 #
vertex $-1 $286 $503 #
straight-curve $-1 -45.101474044007688 -14.033574286003944 29.765171946587415 0 0 1 I I #
straight-curve $-1 -45.101474044007674 -14.033574286003944 1.5490073958117065 -0.64278759981090561 0 -0.7660444514056185 I I #
edge $-1 $497 5.4277435387214483 $289 14.033574286003944 $407 $504 forward 7 unknown #
point $-1 -45.101474044007688 -14.033574286003944 4.7669123908153743 #
point $-1 -42.401331220229551 -14.033574286003944 4.7669123908153743 #
edge $-1 $505 1 $505 0 $292 $-1 forward 7 unknown #
vertex $-1 $293 $506 #
ellipse-curve $-1 -42.985358180713007 -11.574765501066086 2.5151722935026388 -0.7660444514056185 0 0.64278759981090561 0.3213937999054528 0 0.38302222570280925 1 I I #
point $-1 -43.430008832213176 -11.574765501066086 3.5409821190163537 #
edge $-1 $507 1 $507 0 $296 $-1 forward 7 unknown #
vertex $-1 $297 $508 #
ellipse-curve $-1 -42.985358180713007 -7.886552323659302 2.5151722935026388 -0.7660444514056185 0 0.64278759981090561 0.3213937999054528 0 0.38302222570280925 1 I I #
point $-1 -43.430008832213176 -7.886552323659302 3.5409821190163537 #
loop $-1 $-1 $308 $300 #
plane-surface $-1 -45.101474044007688 0 0 1 0 0 0 0 -1 forward_v I I I I #
coedge $-1 $426 $303 $305 $430 reversed $199 $-1 #
coedge $-1 $303 $425 $509 $510 reversed $199 $-1 #
coedge $-1 $311 $306 $303 $428 forward $301 $-1 #
edge $-1 $431 -14.699139743400899 $511 -11.998996919622762 $427 $512 forward 7 unknown #
coedge $-1 $305 $304 $434 $513 reversed $125 $-1 #
edge $-1 $514 -2.2061860048766535e-014 $431 4.2006765914159665 $425 $515 forward 7 unknown #
vertex $-1 $307 $516 #
straight-curve $-1 -42.401331220229551 4.5021281907742257 4.7669123908153725 0 1 0 I I #
coedge $-1 $509 $308 $311 $438 reversed $423 $-1 #
coedge $-1 $308 $509 $429 $513 forward $423 $-1 #
vertex $-1 $309 $517 #
straight-curve $-1 -45.101474044007688 4.701341007907204 29.765171946587415 0 0 1 I I #
straight-curve $-1 -45.101474044007674 4.701341007907204 1.5490073958117065 -0.64278759981090561 0 -0.7660444514056185 I I #
edge $-1 $511 -13.3071717551897 $312 -4.701341007907204 $433 $518 forward 7 unknown #
point $-1 -45.101474044007688 4.701341007907204 4.7669123908153743 #
point $-1 -42.401331220229551 4.701341007907204 4.7669123908153743 #
edge $-1 $519 1 $519 0 $315 $-1 forward 7 unknown #
vertex $-1 $316 $520 #
ellipse-curve $-1 -42.985358180713007 7.1601497928450613 2.5151722935026388 -0.7660444514056185 0 0.64278759981090561 0.3213937999054528 0 0.38302222570280925 1 I I #
point $-1 -43.430008832213176 7.1601497928450613 3.5409821190163537 #
edge $-1 $521 1 $521 0 $319 $-1 forward 7 unknown #
vertex $-1 $320 $522 #
ellipse-curve $-1 -42.985358180713007 10.848362970251845 2.5151722935026388 -0.7660444514056185 0 0.64278759981090561 0.3213937999054528 0 0.38302222570280925 1 I I #
point $-1 -43.430008832213176 10.848362970251845 3.5409821190163537 #
plane-surface $-1 45.101474044007688 0 0 -1 0 0 0 0 1 forward_v I I I I #
coedge $-1 $328 $326 $330 $454 reversed $221 $-1 #
edge $-1 $341 -4.7669123908153743 $456 4.7669123908153743 $340 $523 forward 7 unknown #
vertex $-1 $454 $524 #
straight-curve $-1 -45.101474044007688 -20.739493096880711 0 0 0 -1 I I #
edge $-1 $452 -20.739493096880711 $456 20.739493096880711 $450 $525 forward 7 unknown #
straight-curve $-1 0 -20.739493096880711 -4.7669123908153743 -1 0 0 I I #
vertex $-1 $333 $526 #
straight-curve $-1 0 20.739493096880711 -4.7669123908153743 1 0 0 I I #
point $-1 45.101474044007688 20.739493096880711 -4.7669123908153743 #
point $-1 45.101474044007688 -20.739493096880711 -4.7669123908153743 #
straight-curve $-1 -45.101474044007688 0 4.7669123908153743 0 -1 0 I I #
point $-1 -45.101474044007688 20.739493096880711 4.7669123908153743 #
point $-1 -45.101474044007688 -20.739493096880711 4.7669123908153743 #
straight-curve $-1 45.101474044007688 -20.739493096880711 0 0 0 -1 I I #
straight-curve $-1 45.101474044007688 20.739493096880711 0 0 0 -1 I I #
plane-surface $-1 45.101474044007688 0 0 -1 0 0 0 0 1 forward_v I I I I #
coedge $-1 $527 $469 $357 $474 forward $351 $-1 #
coedge $-1 $358 $353 $527 $528 forward $240 $-1 #
edge $-1 $367 -2.004577802969564 $529 2.004577802969564 $365 $530 forward 7 unknown #
coedge $-1 $466 $531 $354 $470 reversed $351 $-1 #
edge $-1 $477 -45.101474044007688 $472 45.101474044007688 $469 $532 forward 7 unknown #
coedge $-1 $365 $355 $531 $533 forward $366 $-1 #
vertex $-1 $356 $534 #
straight-curve $-1 45.101474044007688 -22.744070899850275 0.06140998910260187 0 1 0 I I #
edge $-1 $477 -1.5 $475 1.5 $357 $535 forward 7 unknown #
vertex $-1 $359 $536 #
straight-curve $-1 -45.101474044007688 -22.744070899850275 -2.9385900108973981 0 1 0 I I #
vertex $-1 $360 $537 #
straight-curve $-1 -45.101474044007688 -22.744070899850275 0.06140998910260187 0 -1 0 I I #
point $-1 -45.101474044007688 -20.739493096880711 -2.9385900108973981 #
straight-curve $-1 0 -20.739493096880711 -2.9385900108973981 -1 0 0 I I #
point $-1 45.101474044007688 -20.739493096880711 -2.9385900108973981 #
edge $-1 $483 59.485740583149806 $486 63.138754562237771 $372 $538 forward 7 unknown #
vertex $-1 $386 $539 #
straight-curve $-1 19.212587329305535 -8.6425132866564489 4.7669123908153779 1 0 0 I I #
edge $-1 $486 -5.9110662982407485 $383 0.4481723214093476 $382 $540 forward 7 unknown #
vertex $-1 $485 $541 #
straight-curve $-1 -21.932379416792102 -8.6425132866564489 61.471452487130591 -0.74314481823134659 0 0.66913061440640931 I I #
point $-1 41.044391090339303 -8.6425132866564489 4.7669123908153779 #
point $-1 45.101474044007688 -2.2832746670063528 1.113898411727412 #
straight-curve $-1 45.101474044007688 0 4.7669123908153743 0 1 0 I I #
vertex $-1 $389 $542 #
point $-1 42.640453680423292 -6.8255879667564212 1.7128506817618847 #
vertex $-1 $393 $543 #
point $-1 42.640453680423292 -4.1001999869063788 1.7128506817618847 #
coedge $-1 $408 $407 $400 $496 forward $397 $-1 #
edge $-1 $497 24.998259555772041 $500 28.216164550775726 $495 $544 forward 7 unknown #
vertex $-1 $412 $545 #
straight-curve $-1 -57.10047096363045 -5.4277435387214483 4.7669123908153743 -1 0 0 I I #
edge $-1 $500 0.5624140825401005 $409 9.168244829822596 $408 $546 forward 7 unknown #
vertex $-1 $499 $547 #
straight-curve $-1 -45.101474044007674 -5.4277435387214483 1.5490073958117065 0.64278759981090561 0 0.7660444514056185 I I #
point $-1 -42.401331220229551 -5.4277435387214483 4.7669123908153743 #
point $-1 -45.101474044007688 -14.033574286003944 1.5490073958116897 #
straight-curve $-1 -45.101474044007688 0 4.7669123908153743 0 -1 0 I I #
vertex $-1 $415 $548 #
point $-1 -42.663964380807556 -11.574765501066086 2.8981945192054481 #
vertex $-1 $419 $549 #
point $-1 -42.663964380807556 -7.886552323659302 2.8981945192054481 #
coedge $-1 $434 $433 $426 $510 forward $423 $-1 #
edge $-1 $511 24.998259555772041 $514 28.216164550775726 $509 $550 forward 7 unknown #
vertex $-1 $438 $551 #
straight-curve $-1 -57.10047096363045 13.3071717551897 4.7669123908153743 -1 0 0 I I #
edge $-1 $514 -8.8050435644154739 $435 -0.19921281713297834 $434 $552 forward 7 unknown #
vertex $-1 $513 $553 #
straight-curve $-1 -45.101474044007674 13.3071717551897 1.5490073958117065 0.64278759981090561 0 0.7660444514056185 I I #
point $-1 -42.401331220229551 13.3071717551897 4.7669123908153743 #
point $-1 -45.101474044007688 4.701341007907204 1.5490073958116897 #
straight-curve $-1 -45.101474044007688 0 4.7669123908153743 0 -1 0 I I #
vertex $-1 $441 $554 #
point $-1 -42.663964380807556 7.1601497928450613 2.8981945192054481 #
vertex $-1 $445 $555 #
point $-1 -42.663964380807556 10.848362970251845 2.8981945192054481 #
straight-curve $-1 -45.101474044007688 20.739493096880711 0 0 0 -1 I I #
point $-1 -45.101474044007688 -20.739493096880711 -4.7669123908153743 #
straight-curve $-1 -45.101474044007688 0 -4.7669123908153743 0 1 0 I I #
point $-1 -45.101474044007688 20.739493096880711 -4.7669123908153743 #
coedge $-1 $531 $466 $467 $528 reversed $351 $-1 #
edge $-1 $529 -45.101474044007688 $475 45.101474044007688 $527 $556 forward 7 unknown #
vertex $-1 $533 $557 #
straight-curve $-1 45.101474044007688 -22.744070899850275 -2.9385900108973981 0 -1 0 I I #
coedge $-1 $469 $527 $471 $533 reversed $351 $-1 #
straight-curve $-1 0 -24.748648702819839 0.06140998910260187 1 0 0 I I #
edge $-1 $472 -1.5 $529 1.5 $471 $558 forward 7 unknown #
point $-1 45.101474044007688 -24.748648702819839 0.06140998910260187 #
straight-curve $-1 -45.101474044007688 -24.748648702819839 -1.4385900108973981 0 0 -1 I I #
point $-1 -45.101474044007688 -24.748648702819839 -2.9385900108973981 #
point $-1 -45.101474044007688 -24.748648702819839 0.06140998910260187 #
straight-curve $-1 45.101474044007688 -8.6425132866564489 64.252652973965183 0 0 -1 I I #
point $-1 45.101474044007688 -8.6425132866564489 4.7669123908153743 #
straight-curve $-1 45.101474044007688 -2.7314469884157004 1.1138984117274084 0 1 0 I I #
point $-1 45.101474044007688 -8.6425132866564489 1.113898411727412 #
point $-1 41.934315964104414 -6.8255879667564212 1.675843579849416 #
point $-1 41.934315964104414 -4.1001999869063788 1.675843579849416 #
straight-curve $-1 -45.101474044007688 -5.4277435387214483 29.765171946587415 0 0 -1 I I #
point $-1 -45.101474044007688 -5.4277435387214483 4.7669123908153743 #
straight-curve $-1 -45.101474044007688 -4.8653294561813478 1.549007395811687 0 -1 0 I I #
point $-1 -45.101474044007688 -5.4277435387214483 1.5490073958116897 #
point $-1 -42.602335955010204 -11.574765501066086 2.1937784935971862 #
point $-1 -42.602335955010204 -7.886552323659302 2.1937784935971862 #
straight-curve $-1 -45.101474044007688 13.3071717551897 29.765171946587415 0 0 -1 I I #
point $-1 -45.101474044007688 13.3071717551897 4.7669123908153743 #
straight-curve $-1 -45.101474044007688 4.5021281907742257 1.549007395811687 0 -1 0 I I #
point $-1 -45.101474044007688 13.3071717551897 1.5490073958116897 #
point $-1 -42.602335955010204 7.1601497928450613 2.1937784935971862 #
point $-1 -42.602335955010204 10.848362970251845 2.1937784935971862 #
straight-curve $-1 0 -24.748648702819839 -2.9385900108973981 -1 0 0 I I #
point $-1 45.101474044007688 -24.748648702819839 -2.9385900108973981 #
straight-curve $-1 45.101474044007688 -24.748648702819839 -1.4385900108973981 0 0 -1 I I #
End-of-ACIS-data 