500 0 10 0           
7 Unknown 11 ACIS 5.0 NT 24 Thu Mar 25 16:09:51 1999 
-1 9.9999999999999995e-007 1e-010 
body $-1 $10 $-1 $11 #
body $-1 $12 $-1 $13 #
body $-1 $14 $-1 $15 #
body $-1 $16 $-1 $17 #
body $-1 $18 $-1 $19 #
body $-1 $20 $-1 $21 #
body $-1 $22 $-1 $23 #
body $-1 $24 $-1 $25 #
body $-1 $26 $-1 $27 #
body $-1 $28 $-1 $29 #
lump $-1 $-1 $30 $0 #
transform $-1 1 0 0 0 1 0 0 0 1 74.496902371288186 38.473204178210182 13.109679452222364 1 rotate no_reflect no_shear #
lump $-1 $-1 $31 $1 #
transform $-1 1 0 0 0 1 0 0 0 1 74.496902371288186 38.473204178210182 13.109679452222364 1 rotate no_reflect no_shear #
lump $-1 $-1 $32 $2 #
transform $-1 1 0 0 0 1 0 0 0 1 74.496902371288186 38.473204178210182 13.109679452222364 1 rotate no_reflect no_shear #
lump $-1 $-1 $33 $3 #
transform $-1 1 0 0 0 1 0 0 0 1 74.496902371288186 38.473204178210182 13.109679452222364 1 rotate no_reflect no_shear #
lump $-1 $-1 $34 $4 #
transform $-1 1 0 0 0 1 0 0 0 1 74.496902371288186 38.473204178210182 13.109679452222364 1 rotate no_reflect no_shear #
lump $-1 $-1 $35 $5 #
transform $-1 1 0 0 0 1 0 0 0 1 74.496902371288186 38.473204178210182 13.109679452222364 1 rotate no_reflect no_shear #
lump $-1 $-1 $36 $6 #
transform $-1 1 0 0 0 1 0 0 0 1 74.496902371288186 38.473204178210182 13.109679452222364 1 rotate no_reflect no_shear #
lump $-1 $-1 $37 $7 #
transform $-1 1 0 0 0 1 0 0 0 1 74.496902371288186 38.473204178210182 13.109679452222364 1 rotate no_reflect no_shear #
lump $-1 $-1 $38 $8 #
transform $-1 1 0 0 0 1 0 0 0 1 74.496902371288186 38.473204178210182 13.109679452222364 1 rotate no_reflect no_shear #
lump $-1 $-1 $39 $9 #
transform $-1 1 0 0 0 1 0 0 0 1 74.496902371288186 38.473204178210182 13.109679452222364 1 rotate no_reflect no_shear #
shell $-1 $-1 $-1 $40 $-1 $10 #
shell $-1 $-1 $-1 $41 $-1 $12 #
shell $-1 $-1 $-1 $42 $-1 $14 #
shell $-1 $-1 $-1 $43 $-1 $16 #
shell $-1 $-1 $-1 $44 $-1 $18 #
shell $-1 $-1 $-1 $45 $-1 $20 #
shell $-1 $-1 $-1 $46 $-1 $22 #
shell $-1 $-1 $-1 $47 $-1 $24 #
shell $-1 $-1 $-1 $48 $-1 $26 #
shell $-1 $-1 $-1 $49 $-1 $28 #
face $-1 $50 $51 $30 $-1 $52 forward single #
face $-1 $53 $54 $31 $-1 $55 reversed single #
face $-1 $56 $57 $32 $-1 $58 reversed single #
face $-1 $59 $60 $33 $-1 $61 forward single #
face $-1 $62 $63 $34 $-1 $64 reversed single #
face $-1 $65 $66 $35 $-1 $67 forward single #
face $-1 $68 $69 $36 $-1 $70 reversed single #
face $-1 $71 $72 $37 $-1 $73 forward single #
face $-1 $74 $75 $38 $-1 $76 reversed single #
face $-1 $77 $78 $39 $-1 $79 forward single #
face $-1 $80 $81 $30 $-1 $82 reversed single #
loop $-1 $-1 $83 $40 #
plane-surface $-1 0 0 13.109679452222364 0 0 1 1 0 0 forward_v I I I I #
face $-1 $84 $85 $31 $-1 $86 reversed single #
loop $-1 $-1 $87 $41 #
plane-surface $-1 -67.329708145662281 -19.76133424282493 0 0 1 0 0 0 1 forward_v I I I I #
face $-1 $88 $89 $32 $-1 $90 reversed single #
loop $-1 $-1 $91 $42 #
plane-surface $-1 -60.162513920036375 124.05173468419051 144.52703806840847 1 0 0 0 -0.84804810408105047 -0.52991925155115449 forward_v I I I I #
face $-1 $92 $93 $33 $-1 $94 forward single #
loop $-1 $95 $96 $43 #
cone-surface $-1 -52.842845668466751 31.939636883820377 5.1285737489162608 0 -0.84804810408105047 -0.52991925155115449 2.5 0 0 1 I I 0 1 2.5 forward I I I I #
face $-1 $97 $98 $34 $-1 $99 reversed single #
loop $-1 $-1 $100 $44 #
plane-surface $-1 -26.497659847205238 124.05173468419051 144.52703806840847 1 0 0 0 -0.84804810408105047 -0.52991925155115449 forward_v I I I I #
face $-1 $101 $102 $35 $-1 $103 forward single #
loop $-1 $104 $105 $45 #
cone-surface $-1 -19.177991595635618 31.939636883820377 5.1285737489162608 0 -0.84804810408105047 -0.52991925155115449 2.5 0 0 1 I I 0 1 2.5 forward I I I I #
face $-1 $106 $107 $36 $-1 $108 reversed single #
loop $-1 $-1 $109 $46 #
plane-surface $-1 7.1671942256258943 124.05173468419051 144.52703806840847 1 0 0 0 -0.84804810408105047 -0.52991925155115449 forward_v I I I I #
face $-1 $110 $111 $37 $-1 $112 forward single #
loop $-1 $113 $114 $47 #
cone-surface $-1 14.486862477195515 31.939636883820377 5.1285737489162608 0 -0.84804810408105047 -0.52991925155115449 2.5 0 0 1 I I 0 1 2.5 forward I I I I #
face $-1 $115 $116 $38 $-1 $117 reversed single #
loop $-1 $-1 $118 $48 #
plane-surface $-1 40.832048298457025 124.05173468419051 144.52703806840847 1 0 0 0 -0.84804810408105047 -0.52991925155115449 forward_v I I I I #
face $-1 $119 $120 $39 $-1 $121 forward single #
loop $-1 $122 $123 $49 #
cone-surface $-1 48.151716550026649 31.939636883820377 5.1285737489162608 0 -0.84804810408105047 -0.52991925155115449 2.5 0 0 1 I I 0 1 2.5 forward I I I I #
face $-1 $124 $125 $30 $-1 $126 reversed single #
loop $-1 $-1 $127 $50 #
plane-surface $-1 0 0 -13.109679452222364 0 0 1 1 0 0 forward_v I I I I #
coedge $-1 $128 $129 $130 $131 forward $51 $-1 #
face $-1 $132 $133 $31 $-1 $134 reversed single #
loop $-1 $-1 $135 $53 #
plane-surface $-1 -67.329708145662281 -12.253845273765457 0 0 -1 0 0 0 -1 forward_v I I I I #
coedge $-1 $136 $137 $138 $139 reversed $54 $-1 #
face $-1 $140 $141 $32 $-1 $142 reversed single #
loop $-1 $-1 $143 $56 #
plane-surface $-1 -52.842845668466751 -2.3021789475736085 65.572352573463547 0 0.84804810408105047 0.52991925155115449 1 0 0 forward_v I I I I #
coedge $-1 $144 $145 $146 $147 reversed $57 $-1 #
face $-1 $-1 $148 $33 $-1 $149 forward single #
loop $-1 $150 $151 $59 #
cone-surface $-1 -52.842845668466751 28.342543291312523 2.8808602818049227 0 -0.84804810408105047 -0.52991925155115449 1.25 0 0 1 I I -0.70710678118654746 0.70710678118654768 1.25 forward I I I I #
loop $-1 $-1 $152 $43 #
coedge $-1 $96 $96 $153 $154 reversed $60 $-1 #
face $-1 $155 $156 $34 $-1 $157 reversed single #
loop $-1 $-1 $158 $62 #
plane-surface $-1 -19.177991595635618 -2.3021789475736085 65.572352573463547 0 0.84804810408105047 0.52991925155115449 1 0 0 forward_v I I I I #
coedge $-1 $159 $160 $161 $162 reversed $63 $-1 #
face $-1 $-1 $163 $35 $-1 $164 forward single #
loop $-1 $165 $166 $65 #
cone-surface $-1 -19.177991595635618 28.342543291312523 2.8808602818049227 0 -0.84804810408105047 -0.52991925155115449 1.25 0 0 1 I I -0.70710678118654746 0.70710678118654768 1.25 forward I I I I #
loop $-1 $-1 $167 $45 #
coedge $-1 $105 $105 $168 $169 reversed $66 $-1 #
face $-1 $170 $171 $36 $-1 $172 reversed single #
loop $-1 $-1 $173 $68 #
plane-surface $-1 14.486862477195515 -2.3021789475736085 65.572352573463547 0 0.84804810408105047 0.52991925155115449 1 0 0 forward_v I I I I #
coedge $-1 $174 $175 $176 $177 reversed $69 $-1 #
face $-1 $-1 $178 $37 $-1 $179 forward single #
loop $-1 $180 $181 $71 #
cone-surface $-1 14.486862477195515 28.342543291312523 2.8808602818049227 0 -0.84804810408105047 -0.52991925155115449 1.25 0 0 1 I I -0.70710678118654746 0.70710678118654768 1.25 forward I I I I #
loop $-1 $-1 $182 $47 #
coedge $-1 $114 $114 $183 $184 reversed $72 $-1 #
face $-1 $185 $186 $38 $-1 $187 reversed single #
loop $-1 $-1 $188 $74 #
plane-surface $-1 48.151716550026649 -2.3021789475736085 65.572352573463547 0 0.84804810408105047 0.52991925155115449 1 0 0 forward_v I I I I #
coedge $-1 $189 $190 $191 $192 reversed $75 $-1 #
face $-1 $-1 $193 $39 $-1 $194 forward single #
loop $-1 $195 $196 $77 #
cone-surface $-1 48.151716550026649 28.342543291312523 2.8808602818049227 0 -0.84804810408105047 -0.52991925155115449 1.25 0 0 1 I I -0.70710678118654746 0.70710678118654768 1.25 forward I I I I #
loop $-1 $-1 $197 $49 #
coedge $-1 $123 $123 $198 $199 reversed $78 $-1 #
face $-1 $200 $201 $30 $-1 $202 reversed single #
loop $-1 $-1 $203 $80 #
plane-surface $-1 0 -38.473204178210182 0 0 1 0 0 0 1 forward_v I I I I #
coedge $-1 $204 $205 $206 $207 forward $81 $-1 #
coedge $-1 $208 $83 $209 $210 forward $51 $-1 #
coedge $-1 $83 $208 $211 $212 forward $51 $-1 #
coedge $-1 $213 $214 $83 $131 reversed $215 $-1 #
edge $-1 $216 -38.473204178210182 $217 38.473204178210182 $130 $218 forward 7 unknown #
face $-1 $219 $220 $31 $-1 $221 reversed single #
loop $-1 $-1 $222 $84 #
plane-surface $-1 -60.162513920036375 -16.007589758295193 0 -1 0 0 0 0 1 forward_v I I I I #
coedge $-1 $223 $224 $225 $226 forward $85 $-1 #
coedge $-1 $227 $87 $228 $229 reversed $54 $-1 #
coedge $-1 $87 $227 $230 $231 reversed $54 $-1 #
coedge $-1 $232 $233 $87 $139 forward $234 $-1 #
edge $-1 $235 -13.109679452222364 $236 13.109679452222364 $138 $237 forward 7 unknown #
face $-1 $238 $239 $32 $-1 $240 reversed single #
loop $-1 $-1 $241 $88 #
plane-surface $-1 -45.523177416897127 124.05173468419051 144.52703806840847 -1 0 0 0 0.84804810408105047 0.52991925155115449 forward_v I I I I #
coedge $-1 $242 $243 $244 $245 reversed $89 $-1 #
coedge $-1 $145 $91 $246 $247 reversed $57 $-1 #
coedge $-1 $91 $144 $242 $248 reversed $57 $-1 #
coedge $-1 $244 $249 $91 $147 forward $250 $-1 #
edge $-1 $251 23.552663163885072 $252 31.545730827851649 $146 $253 forward 7 unknown #
loop $-1 $-1 $153 $92 #
plane-surface $-1 -52.842845668466751 -2.3021789475736085 65.572352573463547 0 0.84804810408105047 0.52991925155115449 1 0 0 forward_v I I I I #
loop $-1 $-1 $254 $59 #
coedge $-1 $151 $151 $152 $255 reversed $93 $-1 #
coedge $-1 $152 $152 $151 $255 forward $95 $-1 #
coedge $-1 $153 $153 $96 $154 forward $148 $-1 #
edge $-1 $256 -6.2990181676286817e-019 $256 6.2831853071796004 $153 $257 forward 7 unknown #
face $-1 $258 $259 $34 $-1 $260 forward single #
loop $-1 $-1 $261 $97 #
plane-surface $-1 -11.858323344065997 124.05173468419051 144.52703806840847 -1 0 0 0 0.84804810408105047 0.52991925155115449 forward_v I I I I #
coedge $-1 $262 $263 $264 $265 reversed $98 $-1 #
coedge $-1 $160 $100 $266 $267 reversed $63 $-1 #
coedge $-1 $100 $159 $262 $268 reversed $63 $-1 #
coedge $-1 $264 $269 $100 $162 forward $259 $-1 #
edge $-1 $270 23.552663163885072 $271 31.545730827851649 $161 $272 forward 7 unknown #
loop $-1 $-1 $168 $101 #
plane-surface $-1 -19.177991595635618 -2.3021789475736085 65.572352573463547 0 0.84804810408105047 0.52991925155115449 1 0 0 forward_v I I I I #
loop $-1 $-1 $273 $65 #
coedge $-1 $166 $166 $167 $274 reversed $102 $-1 #
coedge $-1 $167 $167 $166 $274 forward $104 $-1 #
coedge $-1 $168 $168 $105 $169 forward $163 $-1 #
edge $-1 $275 -6.2990181676286817e-019 $275 6.2831853071796004 $168 $276 forward 7 unknown #
face $-1 $277 $278 $36 $-1 $279 forward single #
loop $-1 $-1 $280 $106 #
plane-surface $-1 21.806530728765136 124.05173468419051 144.52703806840847 -1 0 0 0 0.84804810408105047 0.52991925155115449 forward_v I I I I #
coedge $-1 $281 $282 $283 $284 reversed $107 $-1 #
coedge $-1 $175 $109 $285 $286 reversed $69 $-1 #
coedge $-1 $109 $174 $281 $287 reversed $69 $-1 #
coedge $-1 $283 $288 $109 $177 forward $278 $-1 #
edge $-1 $289 23.552663163885072 $290 31.545730827851649 $176 $291 forward 7 unknown #
loop $-1 $-1 $183 $110 #
plane-surface $-1 14.486862477195515 -2.3021789475736085 65.572352573463547 0 0.84804810408105047 0.52991925155115449 1 0 0 forward_v I I I I #
loop $-1 $-1 $292 $71 #
coedge $-1 $181 $181 $182 $293 reversed $111 $-1 #
coedge $-1 $182 $182 $181 $293 forward $113 $-1 #
coedge $-1 $183 $183 $114 $184 forward $178 $-1 #
edge $-1 $294 -6.2990181676286817e-019 $294 6.2831853071796004 $183 $295 forward 7 unknown #
face $-1 $296 $297 $38 $-1 $298 forward single #
loop $-1 $-1 $299 $115 #
plane-surface $-1 55.471384801596272 124.05173468419051 144.52703806840847 -1 0 0 0 0.84804810408105047 0.52991925155115449 forward_v I I I I #
coedge $-1 $300 $301 $302 $303 reversed $116 $-1 #
coedge $-1 $190 $118 $304 $305 reversed $75 $-1 #
coedge $-1 $118 $189 $300 $306 reversed $75 $-1 #
coedge $-1 $302 $307 $118 $192 forward $297 $-1 #
edge $-1 $308 23.552663163885072 $309 31.545730827851649 $191 $310 forward 7 unknown #
loop $-1 $-1 $198 $119 #
plane-surface $-1 48.151716550026649 -2.3021789475736085 65.572352573463547 0 0.84804810408105047 0.52991925155115449 1 0 0 forward_v I I I I #
loop $-1 $-1 $311 $77 #
coedge $-1 $196 $196 $197 $312 reversed $120 $-1 #
coedge $-1 $197 $197 $196 $312 forward $122 $-1 #
coedge $-1 $198 $198 $123 $199 forward $193 $-1 #
edge $-1 $313 -6.2990181676286817e-019 $313 6.2831853071796004 $198 $314 forward 7 unknown #
face $-1 $315 $316 $30 $-1 $317 reversed single #
loop $-1 $-1 $318 $124 #
plane-surface $-1 -74.496902371288186 0 0 1 0 0 0 0 -1 forward_v I I I I #
coedge $-1 $319 $211 $320 $321 forward $125 $-1 #
coedge $-1 $322 $127 $319 $323 forward $81 $-1 #
coedge $-1 $127 $322 $324 $325 forward $81 $-1 #
coedge $-1 $214 $213 $127 $207 reversed $215 $-1 #
edge $-1 $326 -38.473204178210182 $327 38.473204178210182 $206 $328 forward 7 unknown #
coedge $-1 $129 $128 $329 $330 forward $51 $-1 #
coedge $-1 $331 $332 $128 $210 reversed $316 $-1 #
edge $-1 $217 -74.496902371288186 $333 74.496902371288186 $209 $334 forward 7 unknown #
coedge $-1 $203 $335 $129 $212 reversed $125 $-1 #
edge $-1 $336 -74.496902371288186 $216 74.496902371288186 $211 $337 forward 7 unknown #
coedge $-1 $206 $130 $335 $338 forward $215 $-1 #
coedge $-1 $130 $206 $331 $339 reversed $215 $-1 #
loop $-1 $-1 $213 $315 #
vertex $-1 $131 $340 #
vertex $-1 $131 $341 #
straight-curve $-1 74.496902371288186 0 13.109679452222364 0 1 0 I I #
face $-1 $342 $343 $31 $-1 $344 forward single #
loop $-1 $-1 $345 $132 #
plane-surface $-1 0 0 -13.109679452222364 0 0 1 1 0 0 forward_v I I I I #
coedge $-1 $346 $347 $227 $348 forward $133 $-1 #
coedge $-1 $349 $135 $345 $350 reversed $85 $-1 #
coedge $-1 $135 $349 $351 $352 reversed $85 $-1 #
coedge $-1 $347 $346 $135 $226 reversed $133 $-1 #
edge $-1 $353 -13.109679452222364 $354 13.109679452222364 $225 $355 forward 7 unknown #
coedge $-1 $137 $136 $222 $348 reversed $54 $-1 #
coedge $-1 $356 $357 $136 $229 forward $220 $-1 #
edge $-1 $358 26.497659847205234 $235 40.832048298457046 $228 $359 forward 7 unknown #
coedge $-1 $360 $361 $137 $231 forward $343 $-1 #
edge $-1 $236 -40.832048298457046 $362 -26.497659847205234 $230 $363 forward 7 unknown #
coedge $-1 $364 $138 $361 $365 reversed $234 $-1 #
coedge $-1 $138 $364 $356 $366 reversed $234 $-1 #
loop $-1 $-1 $364 $342 #
vertex $-1 $366 $367 #
vertex $-1 $139 $368 #
straight-curve $-1 -74.496902371288186 -19.76133424282493 0 0 0 1 I I #
face $-1 $-1 $250 $32 $-1 $369 forward single #
loop $-1 $-1 $370 $140 #
plane-surface $-1 0 38.473204178210182 0 0 -1 0 0 0 -1 forward_v I I I I #
coedge $-1 $371 $372 $373 $374 reversed $141 $-1 #
coedge $-1 $375 $143 $145 $248 forward $89 $-1 #
coedge $-1 $143 $375 $371 $376 forward $89 $-1 #
coedge $-1 $373 $146 $143 $245 forward $250 $-1 #
edge $-1 $252 -33.741091085802999 $377 -19.101754582663752 $244 $378 forward 7 unknown #
coedge $-1 $379 $380 $144 $247 forward $239 $-1 #
edge $-1 $381 -71.945422183249306 $251 -59.15383958198187 $246 $382 forward 7 unknown #
edge $-1 $252 61.862850549132489 $381 76.946408356420392 $145 $383 forward 7 unknown #
coedge $-1 $146 $373 $379 $384 forward $250 $-1 #
loop $-1 $-1 $373 $238 #
vertex $-1 $247 $385 #
vertex $-1 $147 $386 #
straight-curve $-1 -60.162513920036375 62.025867342095253 13.109679452222366 0 -1 0 I I #
coedge $-1 $254 $254 $-1 $387 reversed $150 $-1 #
edge $-1 $388 0 $388 6.2831853071796004 $151 $389 forward 7 unknown #
vertex $-1 $154 $390 #
ellipse-curve $-1 -52.842845668466751 34.476670346226904 6.7138881515886464 0 0.84804810408105047 0.52991925155115449 2.5 0 0 1 I I #
face $-1 $-1 $391 $34 $-1 $392 reversed single #
loop $-1 $-1 $161 $155 #
plane-surface $-1 0 0 13.109679452222364 0 0 1 1 0 0 forward_v I I I I #
coedge $-1 $393 $394 $395 $396 reversed $156 $-1 #
coedge $-1 $397 $158 $160 $268 forward $98 $-1 #
coedge $-1 $158 $397 $393 $398 forward $98 $-1 #
coedge $-1 $395 $161 $158 $265 forward $259 $-1 #
edge $-1 $271 -16.908664049387429 $399 -2.2693275462481886 $264 $400 forward 7 unknown #
coedge $-1 $401 $402 $159 $267 forward $391 $-1 #
edge $-1 $403 -71.945422183249306 $270 -59.15383958198187 $266 $404 forward 7 unknown #
edge $-1 $271 61.862850549132489 $403 76.946408356420392 $160 $405 forward 7 unknown #
coedge $-1 $161 $395 $401 $406 forward $259 $-1 #
vertex $-1 $267 $407 #
vertex $-1 $162 $408 #
straight-curve $-1 -26.497659847205238 62.025867342095253 13.109679452222366 0 -1 0 I I #
coedge $-1 $273 $273 $-1 $409 reversed $165 $-1 #
edge $-1 $410 0 $410 6.2831853071796004 $166 $411 forward 7 unknown #
vertex $-1 $169 $412 #
ellipse-curve $-1 -19.177991595635618 34.476670346226904 6.7138881515886464 0 0.84804810408105047 0.52991925155115449 2.5 0 0 1 I I #
face $-1 $-1 $413 $36 $-1 $414 reversed single #
loop $-1 $-1 $176 $170 #
plane-surface $-1 0 0 13.109679452222364 0 0 1 1 0 0 forward_v I I I I #
coedge $-1 $415 $416 $417 $418 reversed $171 $-1 #
coedge $-1 $419 $173 $175 $287 forward $107 $-1 #
coedge $-1 $173 $419 $415 $420 forward $107 $-1 #
coedge $-1 $417 $176 $173 $284 forward $278 $-1 #
edge $-1 $290 -0.076237012971863471 $421 14.563099490167378 $283 $422 forward 7 unknown #
coedge $-1 $423 $424 $174 $286 forward $413 $-1 #
edge $-1 $425 -71.945422183249306 $289 -59.15383958198187 $285 $426 forward 7 unknown #
edge $-1 $290 61.862850549132489 $425 76.946408356420392 $175 $427 forward 7 unknown #
coedge $-1 $176 $417 $423 $428 forward $278 $-1 #
vertex $-1 $177 $429 #
vertex $-1 $177 $430 #
straight-curve $-1 7.1671942256258943 62.025867342095253 13.109679452222366 0 -1 0 I I #
coedge $-1 $292 $292 $-1 $431 reversed $180 $-1 #
edge $-1 $432 0 $432 6.2831853071796004 $181 $433 forward 7 unknown #
vertex $-1 $184 $434 #
ellipse-curve $-1 14.486862477195515 34.476670346226904 6.7138881515886464 0 0.84804810408105047 0.52991925155115449 2.5 0 0 1 I I #
face $-1 $-1 $435 $38 $-1 $436 reversed single #
loop $-1 $-1 $191 $185 #
plane-surface $-1 0 0 13.109679452222364 0 0 1 1 0 0 forward_v I I I I #
coedge $-1 $437 $438 $439 $440 reversed $186 $-1 #
coedge $-1 $441 $188 $190 $306 forward $116 $-1 #
coedge $-1 $188 $441 $437 $442 forward $116 $-1 #
coedge $-1 $439 $191 $188 $303 forward $297 $-1 #
edge $-1 $309 16.7561900234437 $443 31.395526526582948 $302 $444 forward 7 unknown #
coedge $-1 $445 $446 $189 $305 forward $435 $-1 #
edge $-1 $447 -71.945422183249306 $308 -59.15383958198187 $304 $448 forward 7 unknown #
edge $-1 $309 61.862850549132489 $447 76.946408356420392 $190 $449 forward 7 unknown #
coedge $-1 $191 $439 $445 $450 forward $297 $-1 #
vertex $-1 $192 $451 #
vertex $-1 $192 $452 #
straight-curve $-1 40.832048298457025 62.025867342095253 13.109679452222366 0 -1 0 I I #
coedge $-1 $311 $311 $-1 $453 reversed $195 $-1 #
edge $-1 $454 0 $454 6.2831853071796004 $196 $455 forward 7 unknown #
vertex $-1 $199 $456 #
ellipse-curve $-1 48.151716550026649 34.476670346226904 6.7138881515886464 0 0.84804810408105047 0.52991925155115449 2.5 0 0 1 I I #
face $-1 $-1 $215 $30 $-1 $457 reversed single #
loop $-1 $-1 $331 $200 #
plane-surface $-1 0 38.473204178210182 0 0 -1 0 0 0 -1 forward_v I I I I #
coedge $-1 $458 $329 $332 $459 forward $201 $-1 #
coedge $-1 $335 $203 $204 $323 reversed $125 $-1 #
coedge $-1 $329 $458 $203 $321 reversed $201 $-1 #
edge $-1 $336 -13.109679452222364 $460 13.109679452222364 $320 $461 forward 7 unknown #
coedge $-1 $205 $204 $458 $462 forward $81 $-1 #
edge $-1 $327 -74.496902371288186 $460 74.496902371288186 $319 $463 forward 7 unknown #
coedge $-1 $332 $331 $205 $325 reversed $316 $-1 #
edge $-1 $464 -74.496902371288186 $326 74.496902371288186 $324 $465 forward 7 unknown #
vertex $-1 $207 $466 #
vertex $-1 $338 $467 #
straight-curve $-1 74.496902371288186 0 -13.109679452222364 0 -1 0 I I #
coedge $-1 $318 $320 $208 $330 reversed $201 $-1 #
edge $-1 $333 -38.473204178210182 $336 38.473204178210182 $329 $468 forward 7 unknown #
coedge $-1 $324 $209 $214 $339 forward $316 $-1 #
coedge $-1 $209 $324 $318 $459 reversed $316 $-1 #
vertex $-1 $210 $469 #
straight-curve $-1 0 38.473204178210182 13.109679452222364 -1 0 0 I I #
coedge $-1 $211 $319 $213 $338 reversed $125 $-1 #
vertex $-1 $330 $470 #
straight-curve $-1 0 -38.473204178210182 13.109679452222364 1 0 0 I I #
edge $-1 $216 -13.109679452222364 $327 13.109679452222364 $213 $471 forward 7 unknown #
edge $-1 $217 -13.109679452222364 $326 13.109679452222364 $214 $472 forward 7 unknown #
point $-1 74.496902371288186 -38.473204178210182 13.109679452222364 #
point $-1 74.496902371288186 38.473204178210182 13.109679452222364 #
face $-1 $-1 $234 $31 $-1 $473 reversed single #
loop $-1 $-1 $351 $219 #
plane-surface $-1 0 0 13.109679452222364 0 0 1 1 0 0 forward_v I I I I #
coedge $-1 $357 $356 $223 $350 forward $220 $-1 #
coedge $-1 $225 $222 $357 $474 reversed $133 $-1 #
coedge $-1 $222 $225 $360 $475 reversed $133 $-1 #
edge $-1 $362 -13.109679452222364 $358 13.109679452222364 $222 $476 forward 7 unknown #
coedge $-1 $224 $223 $364 $477 reversed $85 $-1 #
edge $-1 $478 -40.832048298457046 $354 -26.497659847205234 $345 $479 forward 7 unknown #
coedge $-1 $361 $360 $224 $352 forward $343 $-1 #
edge $-1 $353 26.497659847205234 $480 40.832048298457046 $351 $481 forward 7 unknown #
vertex $-1 $352 $482 #
vertex $-1 $350 $483 #
straight-curve $-1 -60.162513920036375 -12.253845273765457 0 0 0 -1 I I #
coedge $-1 $345 $228 $233 $366 forward $220 $-1 #
coedge $-1 $228 $345 $346 $474 forward $220 $-1 #
vertex $-1 $229 $484 #
straight-curve $-1 -33.66485407283114 -19.76133424282493 -13.109679452222364 -1 0 0 I I #
coedge $-1 $351 $230 $347 $475 forward $343 $-1 #
coedge $-1 $230 $351 $232 $365 forward $343 $-1 #
vertex $-1 $231 $485 #
straight-curve $-1 -33.66485407283114 -19.76133424282493 13.109679452222364 1 0 0 I I #
coedge $-1 $233 $232 $349 $477 forward $234 $-1 #
edge $-1 $480 12.253845273765457 $236 19.76133424282493 $232 $486 forward 7 unknown #
edge $-1 $235 -19.76133424282493 $478 -12.253845273765457 $233 $487 forward 7 unknown #
point $-1 -74.496902371288186 -19.76133424282493 -13.109679452222364 #
point $-1 -74.496902371288186 -19.76133424282493 13.109679452222364 #
plane-surface $-1 0 0 13.109679452222364 0 0 1 1 0 0 forward_v I I I I #
coedge $-1 $380 $379 $372 $488 forward $239 $-1 #
coedge $-1 $372 $241 $243 $376 reversed $141 $-1 #
coedge $-1 $241 $371 $370 $488 reversed $141 $-1 #
coedge $-1 $249 $244 $241 $374 forward $250 $-1 #
edge $-1 $377 -31.545730827851649 $489 -23.552663163885072 $373 $490 forward 7 unknown #
coedge $-1 $243 $242 $380 $491 reversed $89 $-1 #
edge $-1 $492 -76.946408356420392 $377 -61.862850549132489 $371 $493 forward 7 unknown #
vertex $-1 $245 $494 #
straight-curve $-1 -26.421422834233375 30.480136514243604 13.109679452222366 1 0 0 I I #
coedge $-1 $370 $246 $249 $384 reversed $239 $-1 #
coedge $-1 $246 $370 $375 $491 forward $239 $-1 #
vertex $-1 $247 $495 #
straight-curve $-1 -60.162513920036375 38.473204178210182 72.263519034204236 0 0 1 I I #
straight-curve $-1 -60.162513920036375 -2.3021789475736085 65.572352573463547 0 0.52991925155115449 -0.84804810408105047 I I #
edge $-1 $489 45.523177416897127 $251 60.162513920036375 $379 $496 forward 7 unknown #
point $-1 -60.162513920036375 38.473204178210182 13.109679452222364 #
point $-1 -60.162513920036375 30.480136514243604 13.109679452222366 #
edge $-1 $497 1 $497 0 $254 $-1 forward 7 unknown #
vertex $-1 $255 $498 #
ellipse-curve $-1 -52.842845668466751 29.402603421413836 3.543259346243866 0 0.84804810408105047 0.52991925155115449 2.5 0 0 1 I I #
point $-1 -50.342845668466751 34.476670346226918 6.7138881515886553 #
loop $-1 $-1 $266 $258 #
plane-surface $-1 0 38.473204178210182 0 0 -1 0 0 0 -1 forward_v I I I I #
coedge $-1 $394 $261 $263 $398 reversed $156 $-1 #
coedge $-1 $261 $393 $499 $500 reversed $156 $-1 #
coedge $-1 $269 $264 $261 $396 forward $259 $-1 #
edge $-1 $399 -31.545730827851649 $501 -23.552663163885072 $395 $502 forward 7 unknown #
coedge $-1 $263 $262 $402 $503 reversed $98 $-1 #
edge $-1 $504 -76.946408356420392 $399 -61.862850549132489 $393 $505 forward 7 unknown #
vertex $-1 $265 $506 #
straight-curve $-1 -9.5889957978178089 30.480136514243604 13.109679452222366 1 0 0 I I #
coedge $-1 $499 $266 $269 $406 reversed $391 $-1 #
coedge $-1 $266 $499 $397 $503 forward $391 $-1 #
vertex $-1 $267 $507 #
straight-curve $-1 -26.497659847205238 38.473204178210182 72.263519034204236 0 0 1 I I #
straight-curve $-1 -26.497659847205238 -2.3021789475736085 65.572352573463547 0 0.52991925155115449 -0.84804810408105047 I I #
edge $-1 $501 11.858323344065997 $270 26.497659847205238 $401 $508 forward 7 unknown #
point $-1 -26.497659847205238 38.473204178210182 13.109679452222364 #
point $-1 -26.497659847205238 30.480136514243604 13.109679452222366 #
edge $-1 $509 1 $509 0 $273 $-1 forward 7 unknown #
vertex $-1 $274 $510 #
ellipse-curve $-1 -19.177991595635618 29.402603421413836 3.543259346243866 0 0.84804810408105047 0.52991925155115449 2.5 0 0 1 I I #
point $-1 -16.677991595635618 34.476670346226918 6.7138881515886553 #
loop $-1 $-1 $285 $277 #
plane-surface $-1 0 38.473204178210182 0 0 -1 0 0 0 -1 forward_v I I I I #
coedge $-1 $416 $280 $282 $420 reversed $171 $-1 #
coedge $-1 $280 $415 $511 $512 reversed $171 $-1 #
coedge $-1 $288 $283 $280 $418 forward $278 $-1 #
edge $-1 $421 -31.545730827851649 $513 -23.552663163885072 $417 $514 forward 7 unknown #
coedge $-1 $282 $281 $424 $515 reversed $107 $-1 #
edge $-1 $516 -76.946408356420392 $421 -61.862850549132489 $415 $517 forward 7 unknown #
vertex $-1 $284 $518 #
straight-curve $-1 7.2434312385977577 30.480136514243604 13.109679452222366 1 0 0 I I #
coedge $-1 $511 $285 $288 $428 reversed $413 $-1 #
coedge $-1 $285 $511 $419 $515 forward $413 $-1 #
vertex $-1 $286 $519 #
straight-curve $-1 7.1671942256258943 38.473204178210182 72.263519034204236 0 0 1 I I #
straight-curve $-1 7.1671942256258943 -2.3021789475736085 65.572352573463547 0 0.52991925155115449 -0.84804810408105047 I I #
edge $-1 $513 -21.806530728765136 $289 -7.1671942256258943 $423 $520 forward 7 unknown #
point $-1 7.1671942256258943 38.473204178210182 13.109679452222364 #
point $-1 7.1671942256258943 30.480136514243604 13.109679452222366 #
edge $-1 $521 1 $521 0 $292 $-1 forward 7 unknown #
vertex $-1 $293 $522 #
ellipse-curve $-1 14.486862477195515 29.402603421413836 3.543259346243866 0 0.84804810408105047 0.52991925155115449 2.5 0 0 1 I I #
point $-1 16.986862477195515 34.476670346226918 6.7138881515886553 #
loop $-1 $-1 $304 $296 #
plane-surface $-1 0 38.473204178210182 0 0 -1 0 0 0 -1 forward_v I I I I #
coedge $-1 $438 $299 $301 $442 reversed $186 $-1 #
coedge $-1 $299 $437 $523 $524 reversed $186 $-1 #
coedge $-1 $307 $302 $299 $440 forward $297 $-1 #
edge $-1 $443 -31.545730827851649 $525 -23.552663163885072 $439 $526 forward 7 unknown #
coedge $-1 $301 $300 $446 $527 reversed $116 $-1 #
edge $-1 $528 -76.946408356420392 $443 -61.862850549132489 $437 $529 forward 7 unknown #
vertex $-1 $303 $530 #
straight-curve $-1 24.075858275013324 30.480136514243604 13.109679452222366 1 0 0 I I #
coedge $-1 $523 $304 $307 $450 reversed $435 $-1 #
coedge $-1 $304 $523 $441 $527 forward $435 $-1 #
vertex $-1 $305 $531 #
straight-curve $-1 40.832048298457025 38.473204178210182 72.263519034204236 0 0 1 I I #
straight-curve $-1 40.832048298457025 -2.3021789475736085 65.572352573463547 0 0.52991925155115449 -0.84804810408105047 I I #
edge $-1 $525 -55.471384801596272 $308 -40.832048298457025 $445 $532 forward 7 unknown #
point $-1 40.832048298457025 38.473204178210182 13.109679452222364 #
point $-1 40.832048298457025 30.480136514243604 13.109679452222366 #
edge $-1 $533 1 $533 0 $311 $-1 forward 7 unknown #
vertex $-1 $312 $534 #
ellipse-curve $-1 48.151716550026649 29.402603421413836 3.543259346243866 0 0.84804810408105047 0.52991925155115449 2.5 0 0 1 I I #
point $-1 50.651716550026649 34.476670346226918 6.7138881515886553 #
plane-surface $-1 74.496902371288186 0 0 -1 0 0 0 0 1 forward_v I I I I #
coedge $-1 $320 $318 $322 $462 reversed $201 $-1 #
edge $-1 $333 -13.109679452222364 $464 13.109679452222364 $332 $535 forward 7 unknown #
vertex $-1 $462 $536 #
straight-curve $-1 -74.496902371288186 -38.473204178210182 0 0 0 -1 I I #
edge $-1 $460 -38.473204178210182 $464 38.473204178210182 $458 $537 forward 7 unknown #
straight-curve $-1 0 -38.473204178210182 -13.109679452222364 -1 0 0 I I #
vertex $-1 $325 $538 #
straight-curve $-1 0 38.473204178210182 -13.109679452222364 1 0 0 I I #
point $-1 74.496902371288186 38.473204178210182 -13.109679452222364 #
point $-1 74.496902371288186 -38.473204178210182 -13.109679452222364 #
straight-curve $-1 -74.496902371288186 0 13.109679452222364 0 -1 0 I I #
point $-1 -74.496902371288186 38.473204178210182 13.109679452222364 #
point $-1 -74.496902371288186 -38.473204178210182 13.109679452222364 #
straight-curve $-1 74.496902371288186 -38.473204178210182 0 0 0 -1 I I #
straight-curve $-1 74.496902371288186 38.473204178210182 0 0 0 -1 I I #
plane-surface $-1 -74.496902371288186 0 0 1 0 0 0 0 -1 forward_v I I I I #
edge $-1 $354 4.2500503946178601 $358 11.757539363677333 $357 $539 forward 7 unknown #
edge $-1 $362 -11.757539363677333 $353 -4.2500503946178601 $360 $540 forward 7 unknown #
straight-curve $-1 -60.162513920036375 -19.76133424282493 0 0 0 -1 I I #
edge $-1 $480 -13.109679452222364 $478 13.109679452222364 $364 $541 forward 7 unknown #
vertex $-1 $477 $542 #
straight-curve $-1 -33.66485407283114 -12.253845273765457 -13.109679452222364 1 0 0 I I #
vertex $-1 $365 $543 #
straight-curve $-1 -33.66485407283114 -12.253845273765457 13.109679452222364 -1 0 0 I I #
point $-1 -60.162513920036375 -12.253845273765457 13.109679452222364 #
point $-1 -60.162513920036375 -12.253845273765457 -13.109679452222364 #
point $-1 -60.162513920036375 -19.76133424282493 -13.109679452222364 #
point $-1 -60.162513920036375 -19.76133424282493 13.109679452222364 #
straight-curve $-1 -74.496902371288186 0 13.109679452222364 0 -1 0 I I #
straight-curve $-1 -74.496902371288186 0 -13.109679452222364 0 1 0 I I #
edge $-1 $489 59.15383958198187 $492 71.945422183249306 $370 $544 forward 7 unknown #
vertex $-1 $384 $545 #
straight-curve $-1 -45.523177416897127 62.025867342095253 13.109679452222366 0 1 0 I I #
edge $-1 $492 19.101754582663752 $381 33.741091085802999 $380 $546 forward 7 unknown #
vertex $-1 $491 $547 #
straight-curve $-1 -45.523177416897127 -2.3021789475736085 65.572352573463547 0 -0.52991925155115449 0.84804810408105047 I I #
point $-1 -45.523177416897127 30.480136514243604 13.109679452222366 #
point $-1 -60.162513920036375 38.473204178210182 0.31809685095493023 #
straight-curve $-1 0 38.473204178210182 13.109679452222364 -1 0 0 I I #
vertex $-1 $387 $548 #
point $-1 -50.342845668466751 29.402603421413836 3.543259346243866 #
coedge $-1 $402 $401 $394 $500 forward $391 $-1 #
edge $-1 $501 59.15383958198187 $504 71.945422183249306 $499 $549 forward 7 unknown #
vertex $-1 $406 $550 #
straight-curve $-1 -11.858323344065997 62.025867342095253 13.109679452222366 0 1 0 I I #
edge $-1 $504 2.2693275462481886 $403 16.908664049387429 $402 $551 forward 7 unknown #
vertex $-1 $503 $552 #
straight-curve $-1 -11.858323344065997 -2.3021789475736085 65.572352573463547 0 -0.52991925155115449 0.84804810408105047 I I #
point $-1 -11.858323344065997 30.480136514243604 13.109679452222366 #
point $-1 -26.497659847205238 38.473204178210182 0.31809685095493023 #
straight-curve $-1 0 38.473204178210182 13.109679452222364 -1 0 0 I I #
vertex $-1 $409 $553 #
point $-1 -16.677991595635618 29.402603421413836 3.543259346243866 #
coedge $-1 $424 $423 $416 $512 forward $413 $-1 #
edge $-1 $513 59.15383958198187 $516 71.945422183249306 $511 $554 forward 7 unknown #
vertex $-1 $428 $555 #
straight-curve $-1 21.806530728765136 62.025867342095253 13.109679452222366 0 1 0 I I #
edge $-1 $516 -14.563099490167378 $425 0.076237012971863471 $424 $556 forward 7 unknown #
vertex $-1 $515 $557 #
straight-curve $-1 21.806530728765136 -2.3021789475736085 65.572352573463547 0 -0.52991925155115449 0.84804810408105047 I I #
point $-1 21.806530728765136 30.480136514243604 13.109679452222366 #
point $-1 7.1671942256258943 38.473204178210182 0.31809685095493023 #
straight-curve $-1 0 38.473204178210182 13.109679452222364 -1 0 0 I I #
vertex $-1 $431 $558 #
point $-1 16.986862477195515 29.402603421413836 3.543259346243866 #
coedge $-1 $446 $445 $438 $524 forward $435 $-1 #
edge $-1 $525 59.15383958198187 $528 71.945422183249306 $523 $559 forward 7 unknown #
vertex $-1 $450 $560 #
straight-curve $-1 55.471384801596272 62.025867342095253 13.109679452222366 0 1 0 I I #
edge $-1 $528 -31.395526526582948 $447 -16.7561900234437 $446 $561 forward 7 unknown #
vertex $-1 $527 $562 #
straight-curve $-1 55.471384801596272 -2.3021789475736085 65.572352573463547 0 -0.52991925155115449 0.84804810408105047 I I #
point $-1 55.471384801596272 30.480136514243604 13.109679452222366 #
point $-1 40.832048298457025 38.473204178210182 0.31809685095493023 #
straight-curve $-1 0 38.473204178210182 13.109679452222364 -1 0 0 I I #
vertex $-1 $453 $563 #
point $-1 50.651716550026649 29.402603421413836 3.543259346243866 #
straight-curve $-1 -74.496902371288186 38.473204178210182 0 0 0 -1 I I #
point $-1 -74.496902371288186 -38.473204178210182 -13.109679452222364 #
straight-curve $-1 -74.496902371288186 0 -13.109679452222364 0 1 0 I I #
point $-1 -74.496902371288186 38.473204178210182 -13.109679452222364 #
straight-curve $-1 -60.162513920036375 -8.0037948791475966 -13.109679452222364 0 -1 0 I I #
straight-curve $-1 -60.162513920036375 -8.0037948791475966 13.109679452222364 0 1 0 I I #
straight-curve $-1 -74.496902371288186 -12.253845273765457 0 0 0 -1 I I #
point $-1 -74.496902371288186 -12.253845273765457 -13.109679452222364 #
point $-1 -74.496902371288186 -12.253845273765457 13.109679452222364 #
straight-curve $-1 -45.523177416897127 38.473204178210182 72.263519034204236 0 0 -1 I I #
point $-1 -45.523177416897127 38.473204178210182 13.109679452222364 #
straight-curve $-1 -26.421422834233375 38.473204178210182 0.31809685095493734 -1 0 0 I I #
point $-1 -45.523177416897127 38.473204178210182 0.31809685095493023 #
point $-1 -52.842845668466751 27.282483161211211 2.2184612173659795 #
straight-curve $-1 -11.858323344065997 38.473204178210182 72.263519034204236 0 0 -1 I I #
point $-1 -11.858323344065997 38.473204178210182 13.109679452222364 #
straight-curve $-1 -9.5889957978178089 38.473204178210182 0.31809685095493734 -1 0 0 I I #
point $-1 -11.858323344065997 38.473204178210182 0.31809685095493023 #
point $-1 -19.177991595635618 27.282483161211211 2.2184612173659795 #
straight-curve $-1 21.806530728765136 38.473204178210182 72.263519034204236 0 0 -1 I I #
point $-1 21.806530728765136 38.473204178210182 13.109679452222364 #
straight-curve $-1 7.2434312385977577 38.473204178210182 0.31809685095493734 -1 0 0 I I #
point $-1 21.806530728765136 38.473204178210182 0.31809685095493023 #
point $-1 14.486862477195515 27.282483161211211 2.2184612173659795 #
straight-curve $-1 55.471384801596272 38.473204178210182 72.263519034204236 0 0 -1 I I #
point $-1 55.471384801596272 38.473204178210182 13.109679452222364 #
straight-curve $-1 24.075858275013324 38.473204178210182 0.31809685095493734 -1 0 0 I I #
point $-1 55.471384801596272 38.473204178210182 0.31809685095493023 #
point $-1 48.151716550026649 27.282483161211211 2.2184612173659795 #
End-of-ACIS-data 