500 0 8 0           
7 Unknown 11 ACIS 5.0 NT 24 Thu Mar 25 16:48:36 1999 
-1 9.9999999999999995e-007 1e-010 
body $-1 $8 $-1 $9 #
body $-1 $10 $-1 $11 #
body $-1 $12 $-1 $13 #
body $-1 $14 $-1 $15 #
body $-1 $16 $-1 $17 #
body $-1 $18 $-1 $19 #
body $-1 $20 $-1 $21 #
body $-1 $22 $-1 $23 #
lump $-1 $-1 $24 $0 #
transform $-1 1 0 0 0 1 0 0 0 1 65.470748008667258 40.6523253527861 18.736147717070239 1 rotate no_reflect no_shear #
lump $-1 $-1 $25 $1 #
transform $-1 1 0 0 0 1 0 0 0 1 65.470748008667258 40.6523253527861 18.736147717070239 1 rotate no_reflect no_shear #
lump $-1 $-1 $26 $2 #
transform $-1 1 0 0 0 1 0 0 0 1 65.470748008667258 40.6523253527861 18.736147717070239 1 rotate no_reflect no_shear #
lump $-1 $-1 $27 $3 #
transform $-1 1 0 0 0 1 0 0 0 1 65.470748008667258 40.6523253527861 18.736147717070239 1 rotate no_reflect no_shear #
lump $-1 $-1 $28 $4 #
transform $-1 1 0 0 0 1 0 0 0 1 65.470748008667258 40.6523253527861 18.736147717070239 1 rotate no_reflect no_shear #
lump $-1 $-1 $29 $5 #
transform $-1 1 0 0 0 1 0 0 0 1 65.470748008667258 40.6523253527861 18.736147717070239 1 rotate no_reflect no_shear #
lump $-1 $-1 $30 $6 #
transform $-1 1 0 0 0 1 0 0 0 1 65.470748008667258 40.6523253527861 18.736147717070239 1 rotate no_reflect no_shear #
lump $-1 $-1 $31 $7 #
transform $-1 1 0 0 0 1 0 0 0 1 65.470748008667258 40.6523253527861 18.736147717070239 1 rotate no_reflect no_shear #
shell $-1 $-1 $-1 $32 $-1 $8 #
shell $-1 $-1 $-1 $33 $-1 $10 #
shell $-1 $-1 $-1 $34 $-1 $12 #
shell $-1 $-1 $-1 $35 $-1 $14 #
shell $-1 $-1 $-1 $36 $-1 $16 #
shell $-1 $-1 $-1 $37 $-1 $18 #
shell $-1 $-1 $-1 $38 $-1 $20 #
shell $-1 $-1 $-1 $39 $-1 $22 #
face $-1 $40 $41 $24 $-1 $42 forward single #
face $-1 $43 $44 $25 $-1 $45 reversed single #
face $-1 $46 $47 $26 $-1 $48 reversed single #
face $-1 $49 $50 $27 $-1 $51 forward single #
face $-1 $52 $53 $28 $-1 $54 forward single #
face $-1 $55 $56 $29 $-1 $57 reversed single #
face $-1 $58 $59 $30 $-1 $60 forward single #
face $-1 $61 $62 $31 $-1 $63 forward single #
face $-1 $64 $65 $24 $-1 $66 reversed single #
loop $-1 $-1 $67 $32 #
plane-surface $-1 0 0 18.736147717070239 0 0 1 1 0 0 forward_v I I I I #
face $-1 $68 $69 $25 $-1 $70 forward single #
loop $-1 $-1 $71 $33 #
plane-surface $-1 -52.285582168042851 0 12.134278447332576 -1 0 0 0 0 1 forward_v I I I I #
face $-1 $72 $73 $26 $-1 $74 reversed single #
loop $-1 $-1 $75 $34 #
plane-surface $-1 -37.131646645332737 -1.2226643676799256 69.81511126655289 0 0.85716730853699208 0.51503806187062418 1 0 0 forward_v I I I I #
face $-1 $76 $77 $27 $-1 $78 forward single #
loop $-1 $79 $80 $35 #
cone-surface $-1 -43.626190440779922 34.17883314168143 8.9000270328686621 0 -0.85716730853699208 -0.51503806187062418 1.5 0 0 1 I I 0 1 1.5 forward I I I I #
face $-1 $81 $82 $28 $-1 $83 forward single #
loop $-1 $84 $85 $36 #
cone-surface $-1 -30.637102849885537 34.17883314168143 8.9000270328686621 0 -0.85716730853699208 -0.51503806187062418 1.5 0 0 1 I I 0 1 1.5 forward I I I I #
face $-1 $86 $87 $29 $-1 $88 reversed single #
loop $-1 $-1 $89 $37 #
plane-surface $-1 -37.131646645332737 -40.65232535278605 0.12342264971728412 0 -0.85716730853699208 0.51503806187062418 1 0 0 forward_v I I I I #
face $-1 $90 $91 $30 $-1 $92 forward single #
loop $-1 $93 $94 $38 #
cone-surface $-1 -43.626190440779922 -34.17883314168143 8.900027032868655 0 0.85716730853699208 -0.51503806187062418 1.5 0 0 1 I I 0 1 1.5 forward I I I I #
face $-1 $95 $96 $31 $-1 $97 forward single #
loop $-1 $98 $99 $39 #
cone-surface $-1 -30.637102849885537 -34.17883314168143 8.900027032868655 0 0.85716730853699208 -0.51503806187062418 1.5 0 0 1 I I 0 1 1.5 forward I I I I #
face $-1 $100 $101 $24 $-1 $102 reversed single #
loop $-1 $-1 $103 $40 #
plane-surface $-1 0 0 -18.736147717070239 0 0 1 1 0 0 forward_v I I I I #
coedge $-1 $104 $105 $106 $107 forward $41 $-1 #
face $-1 $108 $109 $25 $-1 $110 reversed single #
loop $-1 $-1 $111 $43 #
plane-surface $-1 -58.878165088355054 0 16.027259632736467 0 0 1 1 0 0 forward_v I I I I #
coedge $-1 $112 $113 $114 $115 reversed $44 $-1 #
face $-1 $116 $117 $26 $-1 $118 forward single #
loop $-1 $-1 $119 $46 #
plane-surface $-1 -21.977711122622619 111.01610534930597 137.25496559376091 -1 0 0 0 0.85716730853699208 0.51503806187062418 forward_v I I I I #
coedge $-1 $120 $121 $122 $123 reversed $47 $-1 #
face $-1 $-1 $124 $27 $-1 $125 forward single #
loop $-1 $126 $127 $49 #
cone-surface $-1 -43.626190440779922 32.654292009371481 7.9839903359405753 0 -0.85716730853699208 -0.51503806187062418 0.75 0 0 1 I I -0.70710678118654791 0.70710678118654702 0.75 forward I I I I #
loop $-1 $-1 $128 $35 #
coedge $-1 $80 $80 $129 $130 reversed $50 $-1 #
face $-1 $-1 $131 $28 $-1 $132 forward single #
loop $-1 $133 $134 $52 #
cone-surface $-1 -30.637102849885537 32.654292009371481 7.9839903359405753 0 -0.85716730853699208 -0.51503806187062418 0.75 0 0 1 I I -0.70710678118654791 0.70710678118654702 0.75 forward I I I I #
loop $-1 $-1 $135 $36 #
coedge $-1 $85 $85 $136 $137 reversed $53 $-1 #
face $-1 $138 $139 $29 $-1 $140 reversed single #
loop $-1 $-1 $141 $55 #
plane-surface $-1 -21.977711122622619 -152.89109506977195 67.563276976925309 -1 0 0 0 -0.85716730853699208 0.51503806187062418 forward_v I I I I #
coedge $-1 $142 $143 $144 $145 reversed $56 $-1 #
face $-1 $-1 $146 $30 $-1 $147 forward single #
loop $-1 $148 $149 $58 #
cone-surface $-1 -43.626190440779922 -32.654292009371481 7.9839903359405682 0 0.85716730853699208 -0.51503806187062418 0.75 0 0 1 I I -0.70710678118654791 0.70710678118654702 0.75 forward I I I I #
loop $-1 $-1 $150 $38 #
coedge $-1 $94 $94 $151 $152 reversed $59 $-1 #
face $-1 $-1 $153 $31 $-1 $154 forward single #
loop $-1 $155 $156 $61 #
cone-surface $-1 -30.637102849885537 -32.654292009371481 7.9839903359405682 0 0.85716730853699208 -0.51503806187062418 0.75 0 0 1 I I -0.70710678118654791 0.70710678118654702 0.75 forward I I I I #
loop $-1 $-1 $157 $39 #
coedge $-1 $99 $99 $158 $159 reversed $62 $-1 #
face $-1 $160 $161 $24 $-1 $162 reversed single #
loop $-1 $-1 $163 $64 #
plane-surface $-1 0 -40.6523253527861 0 0 1 0 0 0 1 forward_v I I I I #
coedge $-1 $164 $165 $166 $167 forward $65 $-1 #
coedge $-1 $168 $67 $169 $170 forward $41 $-1 #
coedge $-1 $67 $168 $171 $172 forward $41 $-1 #
coedge $-1 $173 $174 $67 $107 reversed $175 $-1 #
edge $-1 $176 -40.6523253527861 $177 40.6523253527861 $106 $178 forward 7 unknown #
face $-1 $179 $180 $25 $-1 $181 reversed single #
loop $-1 $-1 $114 $68 #
plane-surface $-1 -58.878165088355054 0 8.2412972619286862 0 0 1 1 0 0 forward_v I I I I #
coedge $-1 $182 $183 $184 $185 forward $69 $-1 #
coedge $-1 $184 $71 $186 $187 reversed $44 $-1 #
coedge $-1 $71 $184 $188 $189 reversed $44 $-1 #
coedge $-1 $190 $191 $71 $115 forward $109 $-1 #
edge $-1 $192 -40.6523253527861 $193 40.6523253527861 $71 $194 forward 7 unknown #
face $-1 $195 $196 $26 $-1 $197 forward single #
loop $-1 $-1 $198 $72 #
plane-surface $-1 -52.285582168042851 0 12.134278447332576 -1 0 0 0 0 1 forward_v I I I I #
coedge $-1 $199 $200 $201 $202 reversed $73 $-1 #
coedge $-1 $203 $75 $198 $204 forward $47 $-1 #
coedge $-1 $75 $203 $199 $205 forward $47 $-1 #
coedge $-1 $201 $206 $75 $123 forward $196 $-1 #
edge $-1 $207 -33.719758845376482 $208 -3.4118877999562507 $122 $209 forward 7 unknown #
loop $-1 $-1 $129 $76 #
plane-surface $-1 -37.131646645332737 -1.2226643676799256 69.81511126655289 0 0.85716730853699208 0.51503806187062418 1 0 0 forward_v I I I I #
loop $-1 $-1 $210 $49 #
coedge $-1 $127 $127 $128 $211 reversed $77 $-1 #
coedge $-1 $128 $128 $127 $211 forward $79 $-1 #
coedge $-1 $129 $129 $80 $130 forward $124 $-1 #
edge $-1 $212 1.0325617025178386e-015 $212 6.2831853071796013 $129 $213 forward 7 unknown #
loop $-1 $-1 $136 $81 #
plane-surface $-1 -37.131646645332737 -1.2226643676799256 69.81511126655289 0 0.85716730853699208 0.51503806187062418 1 0 0 forward_v I I I I #
loop $-1 $-1 $214 $52 #
coedge $-1 $134 $134 $135 $215 reversed $82 $-1 #
coedge $-1 $135 $135 $134 $215 forward $84 $-1 #
coedge $-1 $136 $136 $85 $137 forward $131 $-1 #
edge $-1 $216 1.0325617025178386e-015 $216 6.2831853071796013 $136 $217 forward 7 unknown #
face $-1 $218 $219 $29 $-1 $220 forward single #
loop $-1 $-1 $221 $86 #
plane-surface $-1 0 -40.6523253527861 0 0 1 0 0 0 1 forward_v I I I I #
coedge $-1 $222 $223 $224 $225 reversed $87 $-1 #
coedge $-1 $226 $89 $227 $228 forward $56 $-1 #
coedge $-1 $89 $226 $222 $229 forward $56 $-1 #
coedge $-1 $224 $221 $89 $145 forward $139 $-1 #
edge $-1 $230 -33.719758845376482 $231 -3.4118877999562507 $144 $232 forward 7 unknown #
loop $-1 $-1 $151 $90 #
plane-surface $-1 -37.131646645332737 -40.65232535278605 0.12342264971728412 0 -0.85716730853699208 0.51503806187062418 1 0 0 forward_v I I I I #
loop $-1 $-1 $233 $58 #
coedge $-1 $149 $149 $150 $234 reversed $91 $-1 #
coedge $-1 $150 $150 $149 $234 forward $93 $-1 #
coedge $-1 $151 $151 $94 $152 forward $146 $-1 #
edge $-1 $235 -1.8516223864663018e-015 $235 6.2831853071795987 $151 $236 forward 7 unknown #
loop $-1 $-1 $158 $95 #
plane-surface $-1 -37.131646645332737 -40.65232535278605 0.12342264971728412 0 -0.85716730853699208 0.51503806187062418 1 0 0 forward_v I I I I #
loop $-1 $-1 $237 $61 #
coedge $-1 $156 $156 $157 $238 reversed $96 $-1 #
coedge $-1 $157 $157 $156 $238 forward $98 $-1 #
coedge $-1 $158 $158 $99 $159 forward $153 $-1 #
edge $-1 $239 -1.8516223864663018e-015 $239 6.2831853071795987 $158 $240 forward 7 unknown #
face $-1 $241 $242 $24 $-1 $243 reversed single #
loop $-1 $-1 $244 $100 #
plane-surface $-1 -65.470748008667258 0 0 1 0 0 0 0 -1 forward_v I I I I #
coedge $-1 $245 $171 $246 $247 forward $101 $-1 #
coedge $-1 $248 $103 $245 $249 forward $65 $-1 #
coedge $-1 $103 $248 $250 $251 forward $65 $-1 #
coedge $-1 $174 $173 $103 $167 reversed $175 $-1 #
edge $-1 $252 -40.6523253527861 $253 40.6523253527861 $166 $254 forward 7 unknown #
coedge $-1 $105 $104 $255 $256 forward $41 $-1 #
coedge $-1 $257 $258 $104 $170 reversed $242 $-1 #
edge $-1 $177 -65.470748008667258 $259 65.470748008667258 $169 $260 forward 7 unknown #
coedge $-1 $163 $261 $105 $172 reversed $101 $-1 #
edge $-1 $262 -65.470748008667258 $176 65.470748008667258 $171 $263 forward 7 unknown #
coedge $-1 $166 $106 $261 $264 forward $175 $-1 #
coedge $-1 $106 $166 $257 $265 reversed $175 $-1 #
loop $-1 $-1 $173 $241 #
vertex $-1 $107 $266 #
vertex $-1 $107 $267 #
straight-curve $-1 65.470748008667258 0 18.736147717070239 0 1 0 I I #
face $-1 $268 $269 $25 $-1 $270 reversed single #
loop $-1 $-1 $271 $108 #
plane-surface $-1 0 -40.6523253527861 0 0 1 0 0 0 1 forward_v I I I I #
coedge $-1 $272 $111 $273 $274 reversed $69 $-1 #
coedge $-1 $111 $272 $275 $276 reversed $69 $-1 #
coedge $-1 $113 $112 $111 $185 reversed $44 $-1 #
edge $-1 $277 -40.6523253527861 $278 40.6523253527861 $184 $279 forward 7 unknown #
coedge $-1 $280 $273 $112 $187 forward $281 $-1 #
edge $-1 $278 -9.9601204090701785 $192 -2.174158038262398 $186 $282 forward 7 unknown #
coedge $-1 $275 $271 $113 $189 forward $180 $-1 #
edge $-1 $193 2.174158038262398 $277 9.9601204090701785 $188 $283 forward 7 unknown #
coedge $-1 $284 $114 $271 $285 reversed $109 $-1 #
coedge $-1 $114 $284 $280 $286 reversed $109 $-1 #
vertex $-1 $286 $287 #
vertex $-1 $285 $288 #
straight-curve $-1 -52.285582168042851 0 8.2412972619286862 0 -1 0 I I #
face $-1 $-1 $289 $26 $-1 $290 reversed single #
loop $-1 $-1 $201 $116 #
plane-surface $-1 0 0 18.736147717070239 0 0 1 1 0 0 forward_v I I I I #
coedge $-1 $291 $292 $120 $204 reversed $117 $-1 #
coedge $-1 $200 $119 $121 $205 reversed $73 $-1 #
coedge $-1 $119 $199 $293 $294 reversed $73 $-1 #
coedge $-1 $295 $122 $119 $202 forward $196 $-1 #
edge $-1 $208 -26.03938044226183 $296 -14.855727321866887 $201 $297 forward 7 unknown #
coedge $-1 $121 $120 $298 $299 reversed $47 $-1 #
edge $-1 $207 59.59042422728875 $300 81.3046507055723 $198 $301 forward 7 unknown #
edge $-1 $302 -81.3046507055723 $208 -59.59042422728875 $199 $303 forward 7 unknown #
coedge $-1 $122 $295 $291 $304 forward $196 $-1 #
vertex $-1 $304 $305 #
vertex $-1 $123 $306 #
straight-curve $-1 -18.565823322666368 29.46867223239115 18.736147717070239 1 0 0 I I #
coedge $-1 $210 $210 $-1 $307 reversed $126 $-1 #
edge $-1 $308 0 $308 6.2831853071796004 $127 $309 forward 7 unknown #
vertex $-1 $130 $310 #
ellipse-curve $-1 -43.626190440779922 35.060498792588611 9.4297851833937631 0 0.85716730853699208 0.51503806187062418 1.5 0 0 1 I I #
coedge $-1 $214 $214 $-1 $311 reversed $133 $-1 #
edge $-1 $312 0 $312 6.2831853071796004 $134 $313 forward 7 unknown #
vertex $-1 $137 $314 #
ellipse-curve $-1 -30.637102849885537 35.060498792588611 9.4297851833937631 0 0.85716730853699208 0.51503806187062418 1.5 0 0 1 I I #
face $-1 $-1 $315 $29 $-1 $316 forward single #
loop $-1 $-1 $227 $138 #
plane-surface $-1 -52.285582168042851 0 12.134278447332576 -1 0 0 0 0 1 forward_v I I I I #
coedge $-1 $144 $317 $318 $319 forward $139 $-1 #
coedge $-1 $223 $141 $143 $229 reversed $87 $-1 #
coedge $-1 $141 $222 $320 $321 reversed $87 $-1 #
coedge $-1 $317 $144 $141 $225 forward $139 $-1 #
edge $-1 $231 -33.658215838745456 $322 -15.045490771392416 $224 $323 forward 7 unknown #
coedge $-1 $143 $142 $324 $325 reversed $56 $-1 #
coedge $-1 $318 $326 $142 $228 reversed $219 $-1 #
edge $-1 $230 -9.6574129376351635e-014 $327 21.714226478283503 $227 $328 forward 7 unknown #
edge $-1 $329 -21.714226478283503 $231 9.6574129376351635e-014 $222 $330 forward 7 unknown #
vertex $-1 $145 $331 #
vertex $-1 $145 $332 #
straight-curve $-1 -18.565823322666368 -40.6523253527861 0.12342264971721181 1 0 0 I I #
coedge $-1 $233 $233 $-1 $333 reversed $148 $-1 #
edge $-1 $334 0 $334 6.2831853071796004 $149 $335 forward 7 unknown #
vertex $-1 $152 $336 #
ellipse-curve $-1 -43.626190440779922 -35.060498792588596 9.4297851833937489 0 -0.85716730853699208 0.51503806187062418 1.5 0 0 1 I I #
coedge $-1 $237 $237 $-1 $337 reversed $155 $-1 #
edge $-1 $338 0 $338 6.2831853071796004 $156 $339 forward 7 unknown #
vertex $-1 $159 $340 #
ellipse-curve $-1 -30.637102849885537 -35.060498792588596 9.4297851833937489 0 -0.85716730853699208 0.51503806187062418 1.5 0 0 1 I I #
face $-1 $-1 $175 $24 $-1 $341 reversed single #
loop $-1 $-1 $257 $160 #
plane-surface $-1 0 40.6523253527861 0 0 -1 0 0 0 -1 forward_v I I I I #
coedge $-1 $342 $255 $258 $343 forward $161 $-1 #
coedge $-1 $261 $163 $164 $249 reversed $101 $-1 #
coedge $-1 $255 $342 $163 $247 reversed $161 $-1 #
edge $-1 $262 -18.736147717070239 $344 18.736147717070239 $246 $345 forward 7 unknown #
coedge $-1 $165 $164 $342 $346 forward $65 $-1 #
edge $-1 $253 -65.470748008667258 $344 65.470748008667258 $245 $347 forward 7 unknown #
coedge $-1 $258 $257 $165 $251 reversed $242 $-1 #
edge $-1 $348 -65.470748008667258 $252 65.470748008667258 $250 $349 forward 7 unknown #
vertex $-1 $167 $350 #
vertex $-1 $264 $351 #
straight-curve $-1 65.470748008667258 0 -18.736147717070239 0 -1 0 I I #
coedge $-1 $244 $246 $168 $256 reversed $161 $-1 #
edge $-1 $259 -40.6523253527861 $262 40.6523253527861 $255 $352 forward 7 unknown #
coedge $-1 $250 $169 $174 $265 forward $242 $-1 #
coedge $-1 $169 $250 $244 $343 reversed $242 $-1 #
vertex $-1 $170 $353 #
straight-curve $-1 0 40.6523253527861 18.736147717070239 -1 0 0 I I #
coedge $-1 $171 $245 $173 $264 reversed $101 $-1 #
vertex $-1 $256 $354 #
straight-curve $-1 0 -40.6523253527861 18.736147717070239 1 0 0 I I #
edge $-1 $176 -18.736147717070239 $253 18.736147717070239 $173 $355 forward 7 unknown #
edge $-1 $177 -18.736147717070239 $252 18.736147717070239 $174 $356 forward 7 unknown #
point $-1 65.470748008667258 -40.6523253527861 18.736147717070239 #
point $-1 65.470748008667258 40.6523253527861 18.736147717070239 #
face $-1 $-1 $281 $25 $-1 $357 reversed single #
loop $-1 $-1 $358 $179 #
plane-surface $-1 -65.470748008667258 0 0 1 0 0 0 0 -1 forward_v I I I I #
coedge $-1 $188 $359 $190 $285 forward $180 $-1 #
coedge $-1 $183 $182 $360 $361 reversed $69 $-1 #
coedge $-1 $186 $362 $182 $274 forward $281 $-1 #
edge $-1 $363 -36.031665464489734 $278 -22.846499623865324 $273 $364 forward 7 unknown #
coedge $-1 $359 $188 $183 $276 forward $180 $-1 #
edge $-1 $277 22.846499623865324 $365 36.031665464489734 $275 $366 forward 7 unknown #
vertex $-1 $276 $367 #
vertex $-1 $274 $368 #
straight-curve $-1 -52.285582168042851 0 16.027259632736467 0 1 0 I I #
coedge $-1 $362 $186 $191 $286 forward $281 $-1 #
loop $-1 $-1 $280 $268 #
straight-curve $-1 -52.285582168042851 40.6523253527861 6.0671392236662882 0 0 -1 I I #
straight-curve $-1 -52.285582168042851 -40.6523253527861 6.0671392236662882 0 0 1 I I #
coedge $-1 $191 $190 $358 $369 reversed $109 $-1 #
edge $-1 $370 -36.031665464489734 $193 -22.846499623865324 $271 $371 forward 7 unknown #
edge $-1 $192 22.846499623865324 $372 36.031665464489734 $280 $373 forward 7 unknown #
point $-1 -52.285582168042851 40.6523253527861 8.2412972619286862 #
point $-1 -52.285582168042851 -40.6523253527861 8.2412972619286862 #
loop $-1 $-1 $374 $195 #
plane-surface $-1 0 40.6523253527861 0 0 -1 0 0 0 -1 forward_v I I I I #
coedge $-1 $292 $198 $206 $304 reversed $117 $-1 #
coedge $-1 $198 $291 $374 $375 reversed $117 $-1 #
coedge $-1 $298 $376 $200 $294 forward $289 $-1 #
edge $-1 $296 49.891335079810219 $302 68.504060147163216 $293 $377 forward 7 unknown #
coedge $-1 $206 $201 $376 $378 forward $196 $-1 #
vertex $-1 $378 $379 #
straight-curve $-1 -21.977711122622619 55.508052674652987 18.736147717070239 0 1 0 I I #
coedge $-1 $374 $293 $203 $299 forward $289 $-1 #
edge $-1 $302 3.4118877999562507 $300 33.719758845376482 $298 $380 forward 7 unknown #
vertex $-1 $375 $381 #
straight-curve $-1 -52.285582168042851 -1.2226643676799256 69.81511126655289 0 0.51503806187062418 -0.85716730853699208 I I #
vertex $-1 $299 $382 #
straight-curve $-1 -21.977711122622619 -1.2226643676799256 69.81511126655289 0 -0.51503806187062418 0.85716730853699208 I I #
edge $-1 $383 14.855727321866887 $207 26.03938044226183 $206 $384 forward 7 unknown #
point $-1 -52.285582168042851 29.468672232391157 18.736147717070239 #
point $-1 -21.977711122622619 29.468672232391157 18.736147717070239 #
edge $-1 $385 1 $385 0 $210 $-1 forward 7 unknown #
vertex $-1 $211 $386 #
ellipse-curve $-1 -43.626190440779922 33.297167490774221 8.3702688823435434 0 0.85716730853699208 0.51503806187062418 1.5 0 0 1 I I #
point $-1 -42.126190440779922 35.060498792588646 9.4297851833937827 #
edge $-1 $387 1 $387 0 $214 $-1 forward 7 unknown #
vertex $-1 $215 $388 #
ellipse-curve $-1 -30.637102849885537 33.297167490774221 8.3702688823435434 0 0.85716730853699208 0.51503806187062418 1.5 0 0 1 I I #
point $-1 -29.137102849885537 35.060498792588646 9.4297851833937827 #
loop $-1 $-1 $389 $218 #
plane-surface $-1 0 0 18.736147717070239 0 0 1 1 0 0 forward_v I I I I #
coedge $-1 $221 $224 $390 $391 reversed $139 $-1 #
coedge $-1 $326 $227 $221 $319 reversed $219 $-1 #
edge $-1 $392 15.045490771392416 $230 33.658215838745456 $221 $393 forward 7 unknown #
coedge $-1 $324 $390 $223 $321 forward $315 $-1 #
edge $-1 $322 35.793222182099875 $329 46.976875302494847 $320 $394 forward 7 unknown #
vertex $-1 $321 $395 #
straight-curve $-1 -21.977711122622619 -40.6523253527861 33.781638488462654 0 0 1 I I #
coedge $-1 $389 $320 $226 $325 forward $315 $-1 #
edge $-1 $329 3.4118877999562507 $327 33.719758845376482 $324 $396 forward 7 unknown #
coedge $-1 $227 $318 $389 $397 reversed $219 $-1 #
vertex $-1 $397 $398 #
straight-curve $-1 -52.285582168042851 -40.65232535278605 0.12342264971728412 0 0.51503806187062418 0.85716730853699208 I I #
vertex $-1 $325 $399 #
straight-curve $-1 -21.977711122622619 -40.65232535278605 0.12342264971728412 0 -0.51503806187062418 -0.85716730853699208 I I #
point $-1 -52.285582168042851 -40.6523253527861 0.12342264971720134 #
point $-1 -21.977711122622619 -40.6523253527861 0.12342264971720134 #
edge $-1 $400 1 $400 0 $233 $-1 forward 7 unknown #
vertex $-1 $234 $401 #
ellipse-curve $-1 -43.626190440779922 -33.297167490774221 8.3702688823435363 0 -0.85716730853699208 0.51503806187062418 1.5 0 0 1 I I #
point $-1 -42.126190440779922 -35.060498792588646 9.4297851833937756 #
edge $-1 $402 1 $402 0 $237 $-1 forward 7 unknown #
vertex $-1 $238 $403 #
ellipse-curve $-1 -30.637102849885537 -33.297167490774221 8.3702688823435363 0 -0.85716730853699208 0.51503806187062418 1.5 0 0 1 I I #
point $-1 -29.137102849885537 -35.060498792588646 9.4297851833937756 #
plane-surface $-1 65.470748008667258 0 0 -1 0 0 0 0 1 forward_v I I I I #
coedge $-1 $246 $244 $248 $346 reversed $161 $-1 #
edge $-1 $259 -18.736147717070239 $348 18.736147717070239 $258 $404 forward 7 unknown #
vertex $-1 $346 $405 #
straight-curve $-1 -65.470748008667258 -40.6523253527861 0 0 0 -1 I I #
edge $-1 $344 -40.6523253527861 $348 40.6523253527861 $342 $406 forward 7 unknown #
straight-curve $-1 0 -40.6523253527861 -18.736147717070239 -1 0 0 I I #
vertex $-1 $251 $407 #
straight-curve $-1 0 40.6523253527861 -18.736147717070239 1 0 0 I I #
point $-1 65.470748008667258 40.6523253527861 -18.736147717070239 #
point $-1 65.470748008667258 -40.6523253527861 -18.736147717070239 #
straight-curve $-1 -65.470748008667258 0 18.736147717070239 0 -1 0 I I #
point $-1 -65.470748008667258 40.6523253527861 18.736147717070239 #
point $-1 -65.470748008667258 -40.6523253527861 18.736147717070239 #
straight-curve $-1 65.470748008667258 -40.6523253527861 0 0 0 -1 I I #
straight-curve $-1 65.470748008667258 40.6523253527861 0 0 0 -1 I I #
plane-surface $-1 0 40.6523253527861 0 0 -1 0 0 0 -1 forward_v I I I I #
coedge $-1 $408 $409 $284 $369 forward $269 $-1 #
coedge $-1 $271 $275 $408 $410 forward $180 $-1 #
coedge $-1 $409 $408 $272 $361 forward $269 $-1 #
edge $-1 $365 -40.6523253527861 $363 40.6523253527861 $360 $411 forward 7 unknown #
coedge $-1 $273 $280 $409 $412 reversed $281 $-1 #
vertex $-1 $412 $413 #
straight-curve $-1 -29.439082544177527 40.6523253527861 16.027259632736467 1 0 0 I I #
vertex $-1 $410 $414 #
straight-curve $-1 -29.439082544177527 -40.6523253527861 16.027259632736467 -1 0 0 I I #
point $-1 -52.285582168042851 -40.6523253527861 16.027259632736467 #
point $-1 -52.285582168042851 40.6523253527861 16.027259632736467 #
edge $-1 $372 -40.6523253527861 $370 40.6523253527861 $358 $415 forward 7 unknown #
vertex $-1 $285 $416 #
straight-curve $-1 -29.439082544177527 -40.6523253527861 8.2412972619286862 1 0 0 I I #
vertex $-1 $286 $417 #
straight-curve $-1 -29.439082544177527 40.6523253527861 8.2412972619286862 -1 0 0 I I #
coedge $-1 $376 $298 $292 $375 forward $289 $-1 #
edge $-1 $300 -68.504060147163216 $383 -49.891335079810219 $374 $418 forward 7 unknown #
coedge $-1 $293 $374 $295 $378 reversed $289 $-1 #
straight-curve $-1 -21.977711122622619 40.6523253527861 68.627482796880457 0 0 -1 I I #
edge $-1 $296 21.977711122622619 $383 52.285582168042851 $376 $419 forward 7 unknown #
point $-1 -21.977711122622619 40.6523253527861 18.736147717070239 #
straight-curve $-1 -18.565823322666368 40.6523253527861 0.12342264971723438 -1 0 0 I I #
point $-1 -52.285582168042851 40.6523253527861 0.12342264971724148 #
point $-1 -21.977711122622619 40.6523253527861 0.12342264971724148 #
vertex $-1 $304 $420 #
straight-curve $-1 -52.285582168042851 55.508052674652987 18.736147717070239 0 -1 0 I I #
vertex $-1 $307 $421 #
point $-1 -42.126190440779922 33.297167490774221 8.3702688823435434 #
vertex $-1 $311 $422 #
point $-1 -29.137102849885537 33.297167490774221 8.3702688823435434 #
coedge $-1 $390 $324 $326 $397 forward $315 $-1 #
coedge $-1 $320 $389 $317 $391 forward $315 $-1 #
edge $-1 $392 -52.285582168042851 $322 -21.977711122622619 $317 $423 forward 7 unknown #
vertex $-1 $391 $424 #
straight-curve $-1 -52.285582168042851 -40.6523253527861 33.781638488462654 0 0 -1 I I #
straight-curve $-1 -21.977711122622619 -76.445547534885975 18.736147717070239 0 1 0 I I #
point $-1 -21.977711122622619 -40.6523253527861 18.736147717070239 #
straight-curve $-1 -18.565823322666368 -29.468672232391125 18.736147717070239 -1 0 0 I I #
edge $-1 $327 -46.976875302494847 $392 -35.793222182099875 $389 $425 forward 7 unknown #
point $-1 -52.285582168042851 -29.468672232391128 18.736147717070239 #
point $-1 -21.977711122622619 -29.468672232391128 18.736147717070239 #
vertex $-1 $333 $426 #
point $-1 -42.126190440779922 -33.297167490774221 8.3702688823435363 #
vertex $-1 $337 $427 #
point $-1 -29.137102849885537 -33.297167490774221 8.3702688823435363 #
straight-curve $-1 -65.470748008667258 40.6523253527861 0 0 0 -1 I I #
point $-1 -65.470748008667258 -40.6523253527861 -18.736147717070239 #
straight-curve $-1 -65.470748008667258 0 -18.736147717070239 0 1 0 I I #
point $-1 -65.470748008667258 40.6523253527861 -18.736147717070239 #
coedge $-1 $360 $358 $359 $410 reversed $269 $-1 #
coedge $-1 $358 $360 $362 $412 forward $269 $-1 #
edge $-1 $365 -16.027259632736467 $370 -8.2412972619286862 $408 $428 forward 7 unknown #
straight-curve $-1 -65.470748008667258 0 16.027259632736467 0 1 0 I I #
edge $-1 $363 -16.027259632736467 $372 -8.2412972619286862 $362 $429 forward 7 unknown #
point $-1 -65.470748008667258 40.6523253527861 16.027259632736467 #
point $-1 -65.470748008667258 -40.6523253527861 16.027259632736467 #
straight-curve $-1 -65.470748008667258 0 8.2412972619286862 0 -1 0 I I #
point $-1 -65.470748008667258 -40.6523253527861 8.2412972619286862 #
point $-1 -65.470748008667258 40.6523253527861 8.2412972619286862 #
straight-curve $-1 -52.285582168042851 40.6523253527861 68.627482796880457 0 0 1 I I #
straight-curve $-1 0 40.6523253527861 18.736147717070239 -1 0 0 I I #
point $-1 -52.285582168042851 40.6523253527861 18.736147717070239 #
point $-1 -43.626190440779922 32.011416527968741 7.5977117895376072 #
point $-1 -30.637102849885537 32.011416527968741 7.5977117895376072 #
straight-curve $-1 0 -40.6523253527861 18.736147717070239 1 0 0 I I #
point $-1 -52.285582168042851 -40.6523253527861 18.736147717070239 #
straight-curve $-1 -52.285582168042851 -76.445547534885975 18.736147717070239 0 -1 0 I I #
point $-1 -43.626190440779922 -32.011416527968741 7.5977117895376001 #
point $-1 -30.637102849885537 -32.011416527968741 7.5977117895376001 #
straight-curve $-1 -65.470748008667258 -40.6523253527861 0 0 0 -1 I I #
straight-curve $-1 -65.470748008667258 40.6523253527861 0 0 0 -1 I I #
End-of-ACIS-data 