500 0 11 0           
7 Unknown 11 ACIS 5.0 NT 24 Thu Mar 25 15:25:50 1999 
-1 9.9999999999999995e-007 1e-010 
body $-1 $11 $-1 $12 #
body $-1 $13 $-1 $14 #
body $-1 $15 $-1 $16 #
body $-1 $17 $-1 $18 #
body $-1 $19 $-1 $20 #
body $-1 $21 $-1 $22 #
body $-1 $23 $-1 $24 #
body $-1 $25 $-1 $26 #
body $-1 $27 $-1 $28 #
body $-1 $29 $-1 $30 #
body $-1 $31 $-1 $32 #
lump $-1 $-1 $33 $0 #
transform $-1 1 0 0 0 1 0 0 0 1 68.809472945341355 38.038301676605251 14.694437283017578 1 rotate no_reflect no_shear #
lump $-1 $-1 $34 $1 #
transform $-1 1 0 0 0 1 0 0 0 1 68.809472945341355 38.038301676605251 14.694437283017578 1 rotate no_reflect no_shear #
lump $-1 $-1 $35 $2 #
transform $-1 1 0 0 0 1 0 0 0 1 68.809472945341355 38.038301676605251 14.694437283017578 1 rotate no_reflect no_shear #
lump $-1 $-1 $36 $3 #
transform $-1 1 0 0 0 1 0 0 0 1 68.809472945341355 38.038301676605251 14.694437283017578 1 rotate no_reflect no_shear #
lump $-1 $-1 $37 $4 #
transform $-1 1 0 0 0 1 0 0 0 1 68.809472945341355 38.038301676605251 14.694437283017578 1 rotate no_reflect no_shear #
lump $-1 $-1 $38 $5 #
transform $-1 1 0 0 0 1 0 0 0 1 68.809472945341355 38.038301676605251 14.694437283017578 1 rotate no_reflect no_shear #
lump $-1 $-1 $39 $6 #
transform $-1 1 0 0 0 1 0 0 0 1 68.809472945341355 38.038301676605251 14.694437283017578 1 rotate no_reflect no_shear #
lump $-1 $-1 $40 $7 #
transform $-1 1 0 0 0 1 0 0 0 1 68.809472945341355 38.038301676605251 14.694437283017578 1 rotate no_reflect no_shear #
lump $-1 $-1 $41 $8 #
transform $-1 1 0 0 0 1 0 0 0 1 68.809472945341355 38.038301676605251 14.694437283017578 1 rotate no_reflect no_shear #
lump $-1 $-1 $42 $9 #
transform $-1 1 0 0 0 1 0 0 0 1 68.809472945341355 38.038301676605251 14.694437283017578 1 rotate no_reflect no_shear #
lump $-1 $-1 $43 $10 #
transform $-1 1 0 0 0 1 0 0 0 1 68.809472945341355 38.038301676605251 14.694437283017578 1 rotate no_reflect no_shear #
shell $-1 $-1 $-1 $44 $-1 $11 #
shell $-1 $-1 $-1 $45 $-1 $13 #
shell $-1 $-1 $-1 $46 $-1 $15 #
shell $-1 $-1 $-1 $47 $-1 $17 #
shell $-1 $-1 $-1 $48 $-1 $19 #
shell $-1 $-1 $-1 $49 $-1 $21 #
shell $-1 $-1 $-1 $50 $-1 $23 #
shell $-1 $-1 $-1 $51 $-1 $25 #
shell $-1 $-1 $-1 $52 $-1 $27 #
shell $-1 $-1 $-1 $53 $-1 $29 #
shell $-1 $-1 $-1 $54 $-1 $31 #
face $-1 $55 $56 $33 $-1 $57 forward single #
face $-1 $58 $59 $34 $-1 $60 reversed single #
face $-1 $61 $62 $35 $-1 $63 reversed single #
face $-1 $64 $65 $36 $-1 $66 reversed single #
face $-1 $67 $68 $37 $-1 $69 forward single #
face $-1 $70 $71 $38 $-1 $72 forward single #
face $-1 $73 $74 $39 $-1 $75 forward single #
face $-1 $76 $77 $40 $-1 $78 reversed single #
face $-1 $79 $80 $41 $-1 $81 forward single #
face $-1 $82 $83 $42 $-1 $84 forward single #
face $-1 $85 $86 $43 $-1 $87 forward single #
face $-1 $88 $89 $33 $-1 $90 reversed single #
loop $-1 $-1 $91 $44 #
plane-surface $-1 0 0 14.694437283017578 0 0 1 1 0 0 forward_v I I I I #
face $-1 $92 $93 $34 $-1 $94 reversed single #
loop $-1 $-1 $95 $45 #
plane-surface $-1 -59.758301402020621 -30.499010904955878 0 0 -1 0 0 0 -1 forward_v I I I I #
face $-1 $96 $97 $35 $-1 $98 reversed single #
loop $-1 $-1 $99 $46 #
plane-surface $-1 50.707129858699901 -34.268656290780562 0 1 0 0 0 0 -1 forward_v I I I I #
face $-1 $100 $101 $36 $-1 $102 reversed single #
loop $-1 $-1 $103 $47 #
plane-surface $-1 -50.707129858699886 65.522087019950192 156.40012348385437 1 0 0 0 -0.62932039886446345 -0.77714595512881146 forward_v I I I I #
face $-1 $104 $105 $37 $-1 $106 forward single #
loop $-1 $107 $108 $48 #
cone-surface $-1 -45.582842214310404 28.646512601628011 6.5405839698579218 0 -0.62932039886446345 -0.77714595512881146 1.5 0 0 1 I I 0 1 1.5 forward I I I I #
face $-1 $109 $110 $38 $-1 $111 forward single #
loop $-1 $112 $113 $49 #
cone-surface $-1 -37.896410747726179 28.646512601628011 6.5405839698579218 0 -0.62932039886446345 -0.77714595512881146 1.5 0 0 1 I I 0 1 1.5 forward I I I I #
face $-1 $114 $115 $39 $-1 $116 forward single #
loop $-1 $117 $118 $50 #
cone-surface $-1 -30.209979281141962 28.646512601628011 6.5405839698579218 0 -0.62932039886446345 -0.77714595512881146 1.5 0 0 1 I I 0 1 1.5 forward I I I I #
face $-1 $119 $120 $40 $-1 $121 reversed single #
loop $-1 $-1 $122 $51 #
plane-surface $-1 -37.896410747726186 -38.038301676605244 1.5735579693235309 0 -0.62932039886446345 0.77714595512881146 1 0 0 forward_v I I I I #
face $-1 $123 $124 $41 $-1 $125 forward single #
loop $-1 $126 $127 $52 #
cone-surface $-1 -45.582842214310404 -28.646512601628018 6.5405839698579147 0 0.62932039886446345 -0.77714595512881146 1.5 0 0 1 I I 0 1 1.5 forward I I I I #
face $-1 $128 $129 $42 $-1 $130 forward single #
loop $-1 $131 $132 $53 #
cone-surface $-1 -37.896410747726179 -28.646512601628018 6.5405839698579147 0 0.62932039886446345 -0.77714595512881146 1.5 0 0 1 I I 0 1 1.5 forward I I I I #
face $-1 $133 $134 $43 $-1 $135 forward single #
loop $-1 $136 $137 $54 #
cone-surface $-1 -30.209979281141962 -28.646512601628018 6.5405839698579147 0 0.62932039886446345 -0.77714595512881146 1.5 0 0 1 I I 0 1 1.5 forward I I I I #
face $-1 $138 $139 $33 $-1 $140 reversed single #
loop $-1 $-1 $141 $55 #
plane-surface $-1 0 0 -14.694437283017578 0 0 1 1 0 0 forward_v I I I I #
coedge $-1 $142 $143 $144 $145 forward $56 $-1 #
face $-1 $146 $147 $34 $-1 $148 forward single #
loop $-1 $-1 $149 $58 #
plane-surface $-1 -50.707129858699886 -34.268656290780562 0 -1 0 0 0 0 1 forward_v I I I I #
coedge $-1 $150 $151 $152 $153 forward $59 $-1 #
face $-1 $154 $155 $35 $-1 $156 forward single #
loop $-1 $-1 $157 $61 #
plane-surface $-1 59.758301402020635 -30.499010904955878 0 0 -1 0 0 0 -1 forward_v I I I I #
coedge $-1 $158 $159 $160 $161 forward $62 $-1 #
face $-1 $162 $163 $36 $-1 $164 reversed single #
loop $-1 $-1 $165 $64 #
plane-surface $-1 -37.896410747726186 -21.084322899281261 49.45011633581953 0 0.62932039886446345 0.77714595512881146 1 0 0 forward_v I I I I #
coedge $-1 $166 $167 $168 $169 reversed $65 $-1 #
face $-1 $-1 $170 $37 $-1 $171 forward single #
loop $-1 $172 $173 $67 #
cone-surface $-1 -45.582842214310404 26.884201338793311 4.3643108471986665 0 -0.62932039886446345 -0.77714595512881146 0.75 0 0 1 I I -0.70710678118654757 0.70710678118654757 0.75 forward I I I I #
loop $-1 $-1 $174 $48 #
coedge $-1 $108 $108 $175 $176 reversed $68 $-1 #
face $-1 $-1 $177 $38 $-1 $178 forward single #
loop $-1 $179 $180 $70 #
cone-surface $-1 -37.896410747726179 26.884201338793311 4.3643108471986665 0 -0.62932039886446345 -0.77714595512881146 0.75 0 0 1 I I -0.70710678118654757 0.70710678118654757 0.75 forward I I I I #
loop $-1 $-1 $181 $49 #
coedge $-1 $113 $113 $182 $183 reversed $71 $-1 #
face $-1 $-1 $184 $39 $-1 $185 forward single #
loop $-1 $186 $187 $73 #
cone-surface $-1 -30.209979281141962 26.884201338793311 4.3643108471986665 0 -0.62932039886446345 -0.77714595512881146 0.75 0 0 1 I I -0.70710678118654757 0.70710678118654757 0.75 forward I I I I #
loop $-1 $-1 $188 $50 #
coedge $-1 $118 $118 $189 $190 reversed $74 $-1 #
face $-1 $191 $192 $40 $-1 $193 forward single #
loop $-1 $-1 $194 $76 #
plane-surface $-1 -25.085691636752486 -124.6447115958367 108.52356511735837 -1 0 0 0 -0.62932039886446345 0.77714595512881146 forward_v I I I I #
coedge $-1 $195 $196 $197 $198 reversed $77 $-1 #
face $-1 $-1 $199 $41 $-1 $200 forward single #
loop $-1 $201 $202 $79 #
cone-surface $-1 -45.582842214310404 -26.884201338793318 4.3643108471986594 0 0.62932039886446345 -0.77714595512881146 0.75 0 0 1 I I -0.70710678118654757 0.70710678118654757 0.75 forward I I I I #
loop $-1 $-1 $203 $52 #
coedge $-1 $127 $127 $204 $205 reversed $80 $-1 #
face $-1 $-1 $206 $42 $-1 $207 forward single #
loop $-1 $208 $209 $82 #
cone-surface $-1 -37.896410747726179 -26.884201338793318 4.3643108471986594 0 0.62932039886446345 -0.77714595512881146 0.75 0 0 1 I I -0.70710678118654757 0.70710678118654757 0.75 forward I I I I #
loop $-1 $-1 $210 $53 #
coedge $-1 $132 $132 $211 $212 reversed $83 $-1 #
face $-1 $-1 $213 $43 $-1 $214 forward single #
loop $-1 $215 $216 $85 #
cone-surface $-1 -30.209979281141962 -26.884201338793318 4.3643108471986594 0 0.62932039886446345 -0.77714595512881146 0.75 0 0 1 I I -0.70710678118654757 0.70710678118654757 0.75 forward I I I I #
loop $-1 $-1 $217 $54 #
coedge $-1 $137 $137 $218 $219 reversed $86 $-1 #
face $-1 $220 $221 $33 $-1 $222 reversed single #
loop $-1 $-1 $223 $88 #
plane-surface $-1 0 -38.038301676605251 0 0 1 0 0 0 1 forward_v I I I I #
coedge $-1 $224 $225 $226 $227 forward $89 $-1 #
coedge $-1 $228 $91 $229 $230 forward $56 $-1 #
coedge $-1 $91 $228 $231 $232 forward $56 $-1 #
coedge $-1 $233 $234 $91 $145 reversed $235 $-1 #
edge $-1 $236 -38.038301676605251 $237 38.038301676605251 $144 $238 forward 7 unknown #
face $-1 $239 $240 $34 $-1 $241 reversed single #
loop $-1 $-1 $242 $92 #
plane-surface $-1 0 0 14.694437283017578 0 0 1 1 0 0 forward_v I I I I #
coedge $-1 $243 $244 $245 $246 reversed $93 $-1 #
coedge $-1 $247 $95 $248 $249 reversed $59 $-1 #
coedge $-1 $95 $247 $250 $251 reversed $59 $-1 #
coedge $-1 $244 $243 $95 $153 reversed $93 $-1 #
edge $-1 $252 -14.694437283017578 $253 14.694437283017578 $152 $254 forward 7 unknown #
face $-1 $255 $256 $35 $-1 $257 reversed single #
loop $-1 $-1 $258 $96 #
plane-surface $-1 0 0 14.694437283017578 0 0 1 1 0 0 forward_v I I I I #
coedge $-1 $259 $260 $261 $262 reversed $97 $-1 #
coedge $-1 $263 $99 $264 $265 reversed $62 $-1 #
coedge $-1 $99 $263 $266 $267 reversed $62 $-1 #
coedge $-1 $260 $259 $99 $161 reversed $97 $-1 #
edge $-1 $268 -14.694437283017578 $269 14.694437283017578 $160 $270 forward 7 unknown #
face $-1 $271 $272 $36 $-1 $273 reversed single #
loop $-1 $-1 $274 $100 #
plane-surface $-1 -25.085691636752486 65.522087019950192 156.40012348385437 -1 0 0 0 0.62932039886446345 0.77714595512881146 forward_v I I I I #
coedge $-1 $275 $276 $277 $278 reversed $101 $-1 #
coedge $-1 $167 $103 $279 $280 reversed $65 $-1 #
coedge $-1 $103 $166 $275 $281 reversed $65 $-1 #
coedge $-1 $277 $282 $103 $169 forward $283 $-1 #
edge $-1 $284 -5.2772581666301548 $285 10.925678055951629 $168 $286 forward 7 unknown #
loop $-1 $-1 $175 $104 #
plane-surface $-1 -37.896410747726186 -21.084322899281261 49.45011633581953 0 0.62932039886446345 0.77714595512881146 1 0 0 forward_v I I I I #
loop $-1 $-1 $287 $67 #
coedge $-1 $173 $173 $174 $288 reversed $105 $-1 #
coedge $-1 $174 $174 $173 $288 forward $107 $-1 #
coedge $-1 $175 $175 $108 $176 forward $170 $-1 #
edge $-1 $289 3.0509868850196291e-016 $289 6.2831853071796004 $175 $290 forward 7 unknown #
loop $-1 $-1 $182 $109 #
plane-surface $-1 -37.896410747726186 -21.084322899281261 49.45011633581953 0 0.62932039886446345 0.77714595512881146 1 0 0 forward_v I I I I #
loop $-1 $-1 $291 $70 #
coedge $-1 $180 $180 $181 $292 reversed $110 $-1 #
coedge $-1 $181 $181 $180 $292 forward $112 $-1 #
coedge $-1 $182 $182 $113 $183 forward $177 $-1 #
edge $-1 $293 3.0509868850196291e-016 $293 6.2831853071796004 $182 $294 forward 7 unknown #
loop $-1 $-1 $189 $114 #
plane-surface $-1 -37.896410747726186 -21.084322899281261 49.45011633581953 0 0.62932039886446345 0.77714595512881146 1 0 0 forward_v I I I I #
loop $-1 $-1 $295 $73 #
coedge $-1 $187 $187 $188 $296 reversed $115 $-1 #
coedge $-1 $188 $188 $187 $296 forward $117 $-1 #
coedge $-1 $189 $189 $118 $190 forward $184 $-1 #
edge $-1 $297 3.0509868850196291e-016 $297 6.2831853071796004 $189 $298 forward 7 unknown #
face $-1 $299 $300 $40 $-1 $301 forward single #
loop $-1 $-1 $302 $119 #
plane-surface $-1 0 0 14.694437283017578 0 0 1 1 0 0 forward_v I I I I #
coedge $-1 $303 $304 $305 $306 reversed $120 $-1 #
coedge $-1 $307 $122 $308 $309 reversed $77 $-1 #
coedge $-1 $122 $307 $303 $310 forward $77 $-1 #
coedge $-1 $305 $311 $122 $198 forward $312 $-1 #
edge $-1 $313 -31.758924484836793 $314 -6.1374862628893929 $197 $315 forward 7 unknown #
loop $-1 $-1 $204 $123 #
plane-surface $-1 -37.896410747726186 -38.038301676605244 1.5735579693235309 0 -0.62932039886446345 0.77714595512881146 1 0 0 forward_v I I I I #
loop $-1 $-1 $316 $79 #
coedge $-1 $202 $202 $203 $317 reversed $124 $-1 #
coedge $-1 $203 $203 $202 $317 forward $126 $-1 #
coedge $-1 $204 $204 $127 $205 forward $199 $-1 #
edge $-1 $318 7.9028762517378823e-016 $318 6.2831853071796013 $204 $319 forward 7 unknown #
loop $-1 $-1 $211 $128 #
plane-surface $-1 -37.896410747726186 -38.038301676605244 1.5735579693235309 0 -0.62932039886446345 0.77714595512881146 1 0 0 forward_v I I I I #
loop $-1 $-1 $320 $82 #
coedge $-1 $209 $209 $210 $321 reversed $129 $-1 #
coedge $-1 $210 $210 $209 $321 forward $131 $-1 #
coedge $-1 $211 $211 $132 $212 forward $206 $-1 #
edge $-1 $322 7.9028762517378823e-016 $322 6.2831853071796013 $211 $323 forward 7 unknown #
loop $-1 $-1 $218 $133 #
plane-surface $-1 -37.896410747726186 -38.038301676605244 1.5735579693235309 0 -0.62932039886446345 0.77714595512881146 1 0 0 forward_v I I I I #
loop $-1 $-1 $324 $85 #
coedge $-1 $216 $216 $217 $325 reversed $134 $-1 #
coedge $-1 $217 $217 $216 $325 forward $136 $-1 #
coedge $-1 $218 $218 $137 $219 forward $213 $-1 #
edge $-1 $326 7.9028762517378823e-016 $326 6.2831853071796013 $218 $327 forward 7 unknown #
face $-1 $328 $329 $33 $-1 $330 reversed single #
loop $-1 $-1 $331 $138 #
plane-surface $-1 -68.809472945341355 0 0 1 0 0 0 0 -1 forward_v I I I I #
coedge $-1 $332 $231 $333 $334 forward $139 $-1 #
coedge $-1 $335 $141 $332 $336 forward $89 $-1 #
coedge $-1 $141 $335 $337 $338 forward $89 $-1 #
coedge $-1 $234 $233 $141 $227 reversed $235 $-1 #
edge $-1 $339 -38.038301676605251 $340 38.038301676605251 $226 $341 forward 7 unknown #
coedge $-1 $143 $142 $342 $343 forward $56 $-1 #
coedge $-1 $344 $345 $142 $230 reversed $329 $-1 #
edge $-1 $237 -68.809472945341355 $346 68.809472945341355 $229 $347 forward 7 unknown #
coedge $-1 $223 $348 $143 $232 reversed $139 $-1 #
edge $-1 $349 -68.809472945341355 $236 68.809472945341355 $231 $350 forward 7 unknown #
coedge $-1 $226 $144 $348 $351 forward $235 $-1 #
coedge $-1 $144 $226 $344 $352 reversed $235 $-1 #
loop $-1 $-1 $233 $328 #
vertex $-1 $145 $353 #
vertex $-1 $145 $354 #
straight-curve $-1 68.809472945341355 0 14.694437283017578 0 1 0 I I #
face $-1 $355 $356 $34 $-1 $357 reversed single #
loop $-1 $-1 $358 $146 #
plane-surface $-1 -68.809472945341355 0 0 1 0 0 0 0 -1 forward_v I I I I #
coedge $-1 $250 $359 $244 $360 forward $147 $-1 #
coedge $-1 $152 $149 $361 $362 reversed $93 $-1 #
coedge $-1 $149 $152 $242 $360 reversed $93 $-1 #
coedge $-1 $363 $364 $149 $246 forward $365 $-1 #
edge $-1 $366 -14.694437283017578 $367 14.694437283017578 $245 $368 forward 7 unknown #
coedge $-1 $151 $150 $358 $369 reversed $59 $-1 #
coedge $-1 $361 $370 $150 $249 forward $356 $-1 #
edge $-1 $371 -38.930322244331045 $253 -20.827979157689576 $248 $372 forward 7 unknown #
coedge $-1 $373 $242 $151 $251 forward $147 $-1 #
edge $-1 $252 20.827979157689576 $374 38.930322244331045 $250 $375 forward 7 unknown #
vertex $-1 $251 $376 #
vertex $-1 $249 $377 #
straight-curve $-1 -50.707129858699886 -30.499010904955878 0 0 0 -1 I I #
face $-1 $378 $379 $35 $-1 $380 reversed single #
loop $-1 $-1 $381 $154 #
plane-surface $-1 0 -38.038301676605251 0 0 1 0 0 0 1 forward_v I I I I #
coedge $-1 $266 $382 $260 $383 forward $155 $-1 #
coedge $-1 $160 $157 $384 $385 reversed $97 $-1 #
coedge $-1 $157 $160 $258 $383 reversed $97 $-1 #
coedge $-1 $386 $387 $157 $262 forward $388 $-1 #
edge $-1 $389 -14.694437283017578 $390 14.694437283017578 $261 $391 forward 7 unknown #
coedge $-1 $159 $158 $381 $392 reversed $62 $-1 #
coedge $-1 $384 $393 $158 $265 forward $379 $-1 #
edge $-1 $394 -20.903973531214969 $269 -13.364682759565596 $264 $395 forward 7 unknown #
coedge $-1 $396 $258 $159 $267 forward $155 $-1 #
edge $-1 $268 13.364682759565596 $397 20.903973531214969 $266 $398 forward 7 unknown #
vertex $-1 $267 $399 #
vertex $-1 $265 $400 #
straight-curve $-1 50.707129858699901 -30.499010904955878 0 0 0 -1 I I #
face $-1 $-1 $283 $36 $-1 $401 forward single #
loop $-1 $-1 $402 $162 #
plane-surface $-1 0 38.038301676605251 0 0 -1 0 0 0 -1 forward_v I I I I #
coedge $-1 $403 $404 $405 $406 reversed $163 $-1 #
coedge $-1 $407 $165 $167 $281 forward $101 $-1 #
coedge $-1 $165 $407 $403 $408 forward $101 $-1 #
coedge $-1 $405 $168 $165 $278 forward $283 $-1 #
edge $-1 $285 -31.758924484836793 $409 -6.1374862628893929 $277 $410 forward 7 unknown #
coedge $-1 $411 $412 $166 $280 forward $272 $-1 #
edge $-1 $413 -76.62650377260367 $284 -63.505624458909608 $279 $414 forward 7 unknown #
edge $-1 $285 55.227320003474532 $413 76.076603353210515 $167 $415 forward 7 unknown #
coedge $-1 $168 $405 $411 $416 forward $283 $-1 #
loop $-1 $-1 $405 $271 #
vertex $-1 $280 $417 #
vertex $-1 $169 $418 #
straight-curve $-1 -50.707129858699886 32.761043509975096 14.694437283017578 0 -1 0 I I #
coedge $-1 $287 $287 $-1 $419 reversed $172 $-1 #
edge $-1 $420 0 $420 6.2831853071796004 $173 $421 forward 7 unknown #
vertex $-1 $176 $422 #
ellipse-curve $-1 -45.582842214310404 29.936833565314352 8.1339976261705562 0 0.62932039886446345 0.77714595512881146 1.5 0 0 1 I I #
coedge $-1 $291 $291 $-1 $423 reversed $179 $-1 #
edge $-1 $424 0 $424 6.2831853071796004 $180 $425 forward 7 unknown #
vertex $-1 $183 $426 #
ellipse-curve $-1 -37.896410747726179 29.936833565314352 8.1339976261705562 0 0.62932039886446345 0.77714595512881146 1.5 0 0 1 I I #
coedge $-1 $295 $295 $-1 $427 reversed $186 $-1 #
edge $-1 $428 0 $428 6.2831853071796004 $187 $429 forward 7 unknown #
vertex $-1 $190 $430 #
ellipse-curve $-1 -30.209979281141962 29.936833565314352 8.1339976261705562 0 0.62932039886446345 0.77714595512881146 1.5 0 0 1 I I #
face $-1 $-1 $312 $40 $-1 $431 reversed single #
loop $-1 $-1 $308 $191 #
plane-surface $-1 -50.707129858699886 -34.268656290780562 0 -1 0 0 0 0 1 forward_v I I I I #
coedge $-1 $432 $433 $304 $434 forward $192 $-1 #
coedge $-1 $304 $194 $196 $310 reversed $120 $-1 #
coedge $-1 $194 $303 $302 $434 reversed $120 $-1 #
coedge $-1 $435 $197 $194 $306 forward $312 $-1 #
edge $-1 $314 -52.688224589355663 $436 -39.567345275661609 $305 $437 forward 7 unknown #
coedge $-1 $196 $195 $432 $438 reversed $77 $-1 #
coedge $-1 $439 $440 $195 $309 forward $300 $-1 #
edge $-1 $441 -19.879637082249658 $313 0.96964626748630844 $308 $442 forward 7 unknown #
edge $-1 $443 -20.849283349735956 $314 9.1551213131864128e-015 $303 $444 forward 7 unknown #
coedge $-1 $197 $435 $439 $445 forward $312 $-1 #
loop $-1 $-1 $305 $299 #
vertex $-1 $309 $446 #
vertex $-1 $198 $447 #
straight-curve $-1 -18.948205373863093 -38.038301676605251 1.5735579693235247 1 0 0 I I #
coedge $-1 $316 $316 $-1 $448 reversed $201 $-1 #
edge $-1 $449 0 $449 6.2831853071796004 $202 $450 forward 7 unknown #
vertex $-1 $205 $451 #
ellipse-curve $-1 -45.582842214310404 -29.936833565314362 8.1339976261705509 0 -0.62932039886446345 0.77714595512881146 1.5 0 0 1 I I #
coedge $-1 $320 $320 $-1 $452 reversed $208 $-1 #
edge $-1 $453 0 $453 6.2831853071796004 $209 $454 forward 7 unknown #
vertex $-1 $212 $455 #
ellipse-curve $-1 -37.896410747726179 -29.936833565314362 8.1339976261705509 0 -0.62932039886446345 0.77714595512881146 1.5 0 0 1 I I #
coedge $-1 $324 $324 $-1 $456 reversed $215 $-1 #
edge $-1 $457 0 $457 6.2831853071796004 $216 $458 forward 7 unknown #
vertex $-1 $219 $459 #
ellipse-curve $-1 -30.209979281141962 -29.936833565314362 8.1339976261705509 0 -0.62932039886446345 0.77714595512881146 1.5 0 0 1 I I #
face $-1 $-1 $235 $33 $-1 $460 reversed single #
loop $-1 $-1 $344 $220 #
plane-surface $-1 0 38.038301676605251 0 0 -1 0 0 0 -1 forward_v I I I I #
coedge $-1 $461 $342 $345 $462 forward $221 $-1 #
coedge $-1 $348 $223 $224 $336 reversed $139 $-1 #
coedge $-1 $342 $461 $223 $334 reversed $221 $-1 #
edge $-1 $349 -14.694437283017578 $463 14.694437283017578 $333 $464 forward 7 unknown #
coedge $-1 $225 $224 $461 $465 forward $89 $-1 #
edge $-1 $340 -68.809472945341355 $463 68.809472945341355 $332 $466 forward 7 unknown #
coedge $-1 $345 $344 $225 $338 reversed $329 $-1 #
edge $-1 $467 -68.809472945341355 $339 68.809472945341355 $337 $468 forward 7 unknown #
vertex $-1 $227 $469 #
vertex $-1 $351 $470 #
straight-curve $-1 68.809472945341355 0 -14.694437283017578 0 -1 0 I I #
coedge $-1 $331 $333 $228 $343 reversed $221 $-1 #
edge $-1 $346 -38.038301676605251 $349 38.038301676605251 $342 $471 forward 7 unknown #
coedge $-1 $337 $229 $234 $352 forward $329 $-1 #
coedge $-1 $229 $337 $331 $462 reversed $329 $-1 #
vertex $-1 $230 $472 #
straight-curve $-1 0 38.038301676605251 14.694437283017578 -1 0 0 I I #
coedge $-1 $231 $332 $233 $351 reversed $139 $-1 #
vertex $-1 $343 $473 #
straight-curve $-1 0 -38.038301676605251 14.694437283017578 1 0 0 I I #
edge $-1 $236 -14.694437283017578 $340 14.694437283017578 $233 $474 forward 7 unknown #
edge $-1 $237 -14.694437283017578 $339 14.694437283017578 $234 $475 forward 7 unknown #
point $-1 68.809472945341355 -38.038301676605251 14.694437283017578 #
point $-1 68.809472945341355 38.038301676605251 14.694437283017578 #
face $-1 $-1 $365 $34 $-1 $476 reversed single #
loop $-1 $-1 $361 $239 #
plane-surface $-1 0 0 -14.694437283017578 0 0 1 1 0 0 forward_v I I I I #
coedge $-1 $477 $478 $247 $369 forward $240 $-1 #
coedge $-1 $242 $373 $363 $479 forward $147 $-1 #
edge $-1 $367 -20.903973531214969 $252 -13.364682759565596 $242 $480 forward 7 unknown #
coedge $-1 $481 $248 $243 $362 forward $356 $-1 #
edge $-1 $253 13.364682759565596 $366 20.903973531214969 $361 $482 forward 7 unknown #
coedge $-1 $483 $245 $359 $479 reversed $365 $-1 #
coedge $-1 $245 $483 $481 $484 reversed $365 $-1 #
loop $-1 $-1 $245 $355 #
vertex $-1 $484 $485 #
vertex $-1 $246 $486 #
straight-curve $-1 -50.707129858699886 -38.038301676605251 0 0 0 1 I I #
edge $-1 $374 -14.694437283017578 $371 14.694437283017578 $358 $487 forward 7 unknown #
coedge $-1 $248 $481 $477 $488 forward $356 $-1 #
vertex $-1 $249 $489 #
straight-curve $-1 -29.87915070101031 -30.499010904955878 -14.694437283017578 1 0 0 I I #
coedge $-1 $359 $250 $478 $490 forward $147 $-1 #
vertex $-1 $490 $491 #
straight-curve $-1 -29.87915070101031 -30.499010904955878 14.694437283017578 -1 0 0 I I #
point $-1 -50.707129858699886 -30.499010904955878 14.694437283017578 #
point $-1 -50.707129858699886 -30.499010904955878 -14.694437283017578 #
face $-1 $-1 $388 $35 $-1 $492 reversed single #
loop $-1 $-1 $384 $255 #
plane-surface $-1 0 0 -14.694437283017578 0 0 1 1 0 0 forward_v I I I I #
coedge $-1 $493 $494 $263 $392 forward $256 $-1 #
coedge $-1 $258 $396 $386 $495 forward $155 $-1 #
edge $-1 $390 -38.930322244331052 $268 -20.827979157689583 $258 $496 forward 7 unknown #
coedge $-1 $497 $264 $259 $385 forward $379 $-1 #
edge $-1 $269 20.827979157689583 $389 38.930322244331052 $384 $498 forward 7 unknown #
coedge $-1 $499 $261 $382 $495 reversed $388 $-1 #
coedge $-1 $261 $499 $497 $500 reversed $388 $-1 #
loop $-1 $-1 $261 $378 #
vertex $-1 $500 $501 #
vertex $-1 $262 $502 #
straight-curve $-1 68.809472945341355 -30.499010904955878 0 0 0 1 I I #
edge $-1 $397 -14.694437283017578 $394 14.694437283017578 $381 $503 forward 7 unknown #
coedge $-1 $264 $497 $493 $504 forward $379 $-1 #
vertex $-1 $265 $505 #
straight-curve $-1 50.707129858699901 -17.134328145390281 -14.694437283017578 0 1 0 I I #
coedge $-1 $382 $266 $494 $506 forward $155 $-1 #
vertex $-1 $506 $507 #
straight-curve $-1 50.707129858699901 -17.134328145390281 14.694437283017578 0 -1 0 I I #
point $-1 50.707129858699901 -30.499010904955878 14.694437283017578 #
point $-1 50.707129858699901 -30.499010904955878 -14.694437283017578 #
plane-surface $-1 0 0 14.694437283017578 0 0 1 1 0 0 forward_v I I I I #
coedge $-1 $412 $411 $404 $508 forward $272 $-1 #
coedge $-1 $404 $274 $276 $408 reversed $163 $-1 #
coedge $-1 $274 $403 $402 $508 reversed $163 $-1 #
coedge $-1 $282 $277 $274 $406 forward $283 $-1 #
edge $-1 $409 -10.925678055951629 $509 5.2772581666301548 $405 $510 forward 7 unknown #
coedge $-1 $276 $275 $412 $511 reversed $101 $-1 #
edge $-1 $512 -76.076603353210515 $409 -55.227320003474532 $403 $513 forward 7 unknown #
vertex $-1 $278 $514 #
straight-curve $-1 -18.948205373863093 21.835365454023467 14.694437283017578 1 0 0 I I #
coedge $-1 $402 $279 $282 $416 reversed $272 $-1 #
coedge $-1 $279 $402 $407 $511 forward $272 $-1 #
vertex $-1 $280 $515 #
straight-curve $-1 -50.707129858699886 38.038301676605251 78.200061741927186 0 0 1 I I #
straight-curve $-1 -50.707129858699886 -21.084322899281261 49.45011633581953 0 0.77714595512881146 -0.62932039886446345 I I #
edge $-1 $509 25.085691636752486 $284 50.707129858699886 $411 $516 forward 7 unknown #
point $-1 -50.707129858699886 38.038301676605251 14.694437283017578 #
point $-1 -50.707129858699886 21.835365454023467 14.694437283017578 #
edge $-1 $517 1 $517 0 $287 $-1 forward 7 unknown #
vertex $-1 $288 $518 #
ellipse-curve $-1 -45.582842214310404 27.356191637941659 4.9471703135452749 0 0.62932039886446345 0.77714595512881146 1.5 0 0 1 I I #
point $-1 -44.082842214310404 29.936833565314362 8.1339976261705687 #
edge $-1 $519 1 $519 0 $291 $-1 forward 7 unknown #
vertex $-1 $292 $520 #
ellipse-curve $-1 -37.896410747726179 27.356191637941659 4.9471703135452749 0 0.62932039886446345 0.77714595512881146 1.5 0 0 1 I I #
point $-1 -36.396410747726179 29.936833565314362 8.1339976261705687 #
edge $-1 $521 1 $521 0 $295 $-1 forward 7 unknown #
vertex $-1 $296 $522 #
ellipse-curve $-1 -30.209979281141962 27.356191637941659 4.9471703135452749 0 0.62932039886446345 0.77714595512881146 1.5 0 0 1 I I #
point $-1 -28.709979281141962 29.936833565314362 8.1339976261705687 #
plane-surface $-1 0 -38.038301676605251 0 0 1 0 0 0 1 forward_v I I I I #
coedge $-1 $523 $302 $307 $438 forward $192 $-1 #
coedge $-1 $302 $523 $435 $524 forward $192 $-1 #
edge $-1 $436 24.284054121313098 $443 40.486990343894881 $302 $525 forward 7 unknown #
coedge $-1 $311 $305 $433 $524 reversed $312 $-1 #
vertex $-1 $306 $526 #
straight-curve $-1 -25.085691636752486 -38.038301676605251 54.261782558679187 0 0 1 I I #
edge $-1 $443 6.1374862628893929 $441 31.758924484836793 $432 $527 forward 7 unknown #
coedge $-1 $440 $308 $311 $445 reversed $300 $-1 #
coedge $-1 $308 $439 $523 $528 reversed $300 $-1 #
vertex $-1 $438 $529 #
straight-curve $-1 -50.707129858699886 -37.284745001922516 2.1837761451354472 0 -0.77714595512881146 -0.62932039886446345 I I #
vertex $-1 $438 $530 #
straight-curve $-1 -25.085691636752486 -38.038301676605244 1.5735579693235309 0 -0.77714595512881146 -0.62932039886446345 I I #
edge $-1 $531 -14.694437283017578 $313 -1.5735579693235253 $311 $532 forward 7 unknown #
point $-1 -50.707129858699886 -38.038301676605251 1.5735579693235253 #
point $-1 -25.085691636752486 -38.038301676605251 1.5735579693235251 #
edge $-1 $533 1 $533 0 $316 $-1 forward 7 unknown #
vertex $-1 $317 $534 #
ellipse-curve $-1 -45.582842214310404 -27.356191637941667 4.9471703135452678 0 -0.62932039886446345 0.77714595512881146 1.5 0 0 1 I I #
point $-1 -44.082842214310404 -29.93683356531437 8.1339976261705615 #
edge $-1 $535 1 $535 0 $320 $-1 forward 7 unknown #
vertex $-1 $321 $536 #
ellipse-curve $-1 -37.896410747726179 -27.356191637941667 4.9471703135452678 0 -0.62932039886446345 0.77714595512881146 1.5 0 0 1 I I #
point $-1 -36.396410747726179 -29.93683356531437 8.1339976261705615 #
edge $-1 $537 1 $537 0 $324 $-1 forward 7 unknown #
vertex $-1 $325 $538 #
ellipse-curve $-1 -30.209979281141962 -27.356191637941667 4.9471703135452678 0 -0.62932039886446345 0.77714595512881146 1.5 0 0 1 I I #
point $-1 -28.709979281141962 -29.93683356531437 8.1339976261705615 #
plane-surface $-1 68.809472945341355 0 0 -1 0 0 0 0 1 forward_v I I I I #
coedge $-1 $333 $331 $335 $465 reversed $221 $-1 #
edge $-1 $346 -14.694437283017578 $467 14.694437283017578 $345 $539 forward 7 unknown #
vertex $-1 $465 $540 #
straight-curve $-1 -68.809472945341355 -38.038301676605251 0 0 0 -1 I I #
edge $-1 $463 -38.038301676605251 $467 38.038301676605251 $461 $541 forward 7 unknown #
straight-curve $-1 0 -38.038301676605251 -14.694437283017578 -1 0 0 I I #
vertex $-1 $338 $542 #
straight-curve $-1 0 38.038301676605251 -14.694437283017578 1 0 0 I I #
point $-1 68.809472945341355 38.038301676605251 -14.694437283017578 #
point $-1 68.809472945341355 -38.038301676605251 -14.694437283017578 #
straight-curve $-1 -68.809472945341355 0 14.694437283017578 0 -1 0 I I #
point $-1 -68.809472945341355 38.038301676605251 14.694437283017578 #
point $-1 -68.809472945341355 -38.038301676605251 14.694437283017578 #
straight-curve $-1 68.809472945341355 -38.038301676605251 0 0 0 -1 I I #
straight-curve $-1 68.809472945341355 38.038301676605251 0 0 0 -1 I I #
plane-surface $-1 0 -38.038301676605251 0 0 1 0 0 0 1 forward_v I I I I #
coedge $-1 $543 $358 $370 $488 reversed $240 $-1 #
coedge $-1 $358 $543 $373 $490 reversed $240 $-1 #
edge $-1 $544 -68.809472945341355 $367 -50.707129858699886 $363 $545 forward 7 unknown #
straight-curve $-1 -50.707129858699886 -17.134328145390281 14.694437283017578 0 1 0 I I #
coedge $-1 $370 $361 $364 $484 forward $356 $-1 #
straight-curve $-1 -50.707129858699886 -17.134328145390281 -14.694437283017578 0 -1 0 I I #
coedge $-1 $364 $363 $543 $546 forward $365 $-1 #
edge $-1 $366 50.707129858699886 $547 68.809472945341355 $364 $548 forward 7 unknown #
point $-1 -50.707129858699886 -38.038301676605251 -14.694437283017578 #
point $-1 -50.707129858699886 -38.038301676605251 14.694437283017578 #
straight-curve $-1 -68.809472945341355 -30.499010904955878 0 0 0 -1 I I #
edge $-1 $547 -38.038301676605251 $371 -30.499010904955878 $477 $549 forward 7 unknown #
point $-1 -68.809472945341355 -30.499010904955878 -14.694437283017578 #
edge $-1 $374 30.499010904955878 $544 38.038301676605251 $478 $550 forward 7 unknown #
point $-1 -68.809472945341355 -30.499010904955878 14.694437283017578 #
plane-surface $-1 68.809472945341355 0 0 -1 0 0 0 0 1 forward_v I I I I #
coedge $-1 $551 $381 $393 $504 reversed $256 $-1 #
coedge $-1 $381 $551 $396 $506 reversed $256 $-1 #
edge $-1 $552 -38.038301676605251 $390 -30.499010904955878 $386 $553 forward 7 unknown #
straight-curve $-1 29.879150701010317 -30.499010904955878 14.694437283017578 -1 0 0 I I #
coedge $-1 $393 $384 $387 $500 forward $379 $-1 #
straight-curve $-1 29.879150701010317 -30.499010904955878 -14.694437283017578 1 0 0 I I #
coedge $-1 $387 $386 $551 $554 forward $388 $-1 #
edge $-1 $389 30.499010904955878 $555 38.038301676605251 $387 $556 forward 7 unknown #
point $-1 68.809472945341369 -30.499010904955878 -14.694437283017578 #
point $-1 68.809472945341369 -30.499010904955878 14.694437283017578 #
straight-curve $-1 50.707129858699901 -38.038301676605251 0 0 0 -1 I I #
edge $-1 $555 -68.809472945341355 $394 -50.707129858699901 $493 $557 forward 7 unknown #
point $-1 50.707129858699901 -38.038301676605251 -14.694437283017578 #
edge $-1 $397 50.707129858699901 $552 68.809472945341355 $494 $558 forward 7 unknown #
point $-1 50.707129858699901 -38.038301676605251 14.694437283017578 #
edge $-1 $509 63.505624458909608 $512 76.62650377260367 $402 $559 forward 7 unknown #
vertex $-1 $416 $560 #
straight-curve $-1 -25.085691636752486 32.761043509975096 14.694437283017578 0 1 0 I I #
edge $-1 $512 6.1374862628893929 $413 31.758924484836793 $412 $561 forward 7 unknown #
vertex $-1 $511 $562 #
straight-curve $-1 -25.085691636752486 -21.084322899281261 49.45011633581953 0 -0.77714595512881146 0.62932039886446345 I I #
point $-1 -25.085691636752486 21.835365454023467 14.694437283017578 #
point $-1 -50.707129858699886 38.038301676605258 1.5735579693235167 #
straight-curve $-1 0 38.038301676605251 14.694437283017578 -1 0 0 I I #
vertex $-1 $419 $563 #
point $-1 -44.082842214310404 27.356191637941659 4.9471703135452749 #
vertex $-1 $423 $564 #
point $-1 -36.396410747726179 27.356191637941659 4.9471703135452749 #
vertex $-1 $427 $565 #
point $-1 -28.709979281141962 27.356191637941659 4.9471703135452749 #
coedge $-1 $433 $432 $440 $528 forward $192 $-1 #
edge $-1 $531 -50.707129858699886 $436 -25.085691636752486 $435 $566 forward 7 unknown #
straight-curve $-1 -25.085691636752486 -62.322355797918348 14.694437283017578 0 1 0 I I #
point $-1 -25.085691636752486 -38.038301676605251 14.694437283017578 #
straight-curve $-1 -18.948205373863093 -21.835365454023471 14.694437283017578 -1 0 0 I I #
edge $-1 $441 -40.486990343894881 $531 -24.284054121313098 $523 $567 forward 7 unknown #
point $-1 -50.707129858699886 -21.835365454023467 14.69443728301758 #
point $-1 -25.085691636752486 -21.835365454023467 14.69443728301758 #
vertex $-1 $524 $568 #
straight-curve $-1 -50.707129858699886 -38.038301676605251 0 0 0 -1 I I #
vertex $-1 $448 $569 #
point $-1 -44.082842214310404 -27.356191637941667 4.9471703135452678 #
vertex $-1 $452 $570 #
point $-1 -36.396410747726179 -27.356191637941667 4.9471703135452678 #
vertex $-1 $456 $571 #
point $-1 -28.709979281141962 -27.356191637941667 4.9471703135452678 #
straight-curve $-1 -68.809472945341355 38.038301676605251 0 0 0 -1 I I #
point $-1 -68.809472945341355 -38.038301676605251 -14.694437283017578 #
straight-curve $-1 -68.809472945341355 0 -14.694437283017578 0 1 0 I I #
point $-1 -68.809472945341355 38.038301676605251 -14.694437283017578 #
coedge $-1 $478 $477 $483 $546 reversed $240 $-1 #
vertex $-1 $490 $572 #
straight-curve $-1 0 -38.038301676605251 14.694437283017578 1 0 0 I I #
edge $-1 $544 -14.694437283017578 $547 14.694437283017578 $543 $573 forward 7 unknown #
vertex $-1 $488 $574 #
straight-curve $-1 0 -38.038301676605251 -14.694437283017578 -1 0 0 I I #
straight-curve $-1 -68.809472945341355 0 -14.694437283017578 0 1 0 I I #
straight-curve $-1 -68.809472945341355 0 14.694437283017578 0 -1 0 I I #
coedge $-1 $494 $493 $499 $554 reversed $256 $-1 #
vertex $-1 $495 $575 #
straight-curve $-1 68.809472945341355 0 14.694437283017578 0 1 0 I I #
edge $-1 $552 -14.694437283017578 $555 14.694437283017578 $499 $576 forward 7 unknown #
vertex $-1 $554 $577 #
straight-curve $-1 68.809472945341355 0 -14.694437283017578 0 -1 0 I I #
straight-curve $-1 0 -38.038301676605251 -14.694437283017578 -1 0 0 I I #
straight-curve $-1 0 -38.038301676605251 14.694437283017578 1 0 0 I I #
straight-curve $-1 -25.085691636752486 38.038301676605251 78.200061741927186 0 0 -1 I I #
point $-1 -25.085691636752486 38.038301676605251 14.694437283017578 #
straight-curve $-1 -18.948205373863093 38.038301676605251 1.5735579693235238 -1 0 0 I I #
point $-1 -25.085691636752486 38.038301676605258 1.5735579693235167 #
point $-1 -45.582842214310404 26.412211039644962 3.781451380852058 #
point $-1 -37.896410747726179 26.412211039644962 3.781451380852058 #
point $-1 -30.209979281141962 26.412211039644962 3.781451380852058 #
straight-curve $-1 0 -38.038301676605251 14.694437283017578 1 0 0 I I #
straight-curve $-1 -50.707129858699886 -62.322355797918348 14.694437283017578 0 -1 0 I I #
point $-1 -50.707129858699886 -38.038301676605251 14.694437283017578 #
point $-1 -45.582842214310404 -26.412211039644969 3.7814513808520509 #
point $-1 -37.896410747726179 -26.412211039644969 3.7814513808520509 #
point $-1 -30.209979281141962 -26.412211039644969 3.7814513808520509 #
point $-1 -68.809472945341355 -38.038301676605251 14.694437283017578 #
straight-curve $-1 -68.809472945341355 -38.038301676605251 0 0 0 -1 I I #
point $-1 -68.809472945341355 -38.038301676605251 -14.694437283017578 #
point $-1 68.809472945341355 -38.038301676605251 14.694437283017578 #
straight-curve $-1 68.809472945341355 -38.038301676605251 0 0 0 -1 I I #
point $-1 68.809472945341355 -38.038301676605251 -14.694437283017578 #
End-of-ACIS-data 