500 0 5 0           
7 Unknown 11 ACIS 5.0 NT 24 Fri Mar 26 19:35:23 1999 
-1 9.9999999999999995e-007 1e-010 
body $-1 $5 $-1 $6 #
body $-1 $7 $-1 $8 #
body $-1 $9 $-1 $10 #
body $-1 $11 $-1 $12 #
body $-1 $13 $-1 $14 #
lump $-1 $-1 $15 $0 #
transform $-1 1 0 0 0 1 0 0 0 1 75.848261970885346 48.859132345056373 14.180286956030507 1 rotate no_reflect no_shear #
lump $-1 $-1 $16 $1 #
transform $-1 1 0 0 0 1 0 0 0 1 75.848261970885346 48.859132345056373 14.180286956030507 1 rotate no_reflect no_shear #
lump $-1 $-1 $17 $2 #
transform $-1 1 0 0 0 1 0 0 0 1 75.848261970885346 48.859132345056373 14.180286956030507 1 rotate no_reflect no_shear #
lump $-1 $-1 $18 $3 #
transform $-1 1 0 0 0 1 0 0 0 1 75.848261970885346 48.859132345056373 14.180286956030507 1 rotate no_reflect no_shear #
lump $-1 $-1 $19 $4 #
transform $-1 1 0 0 0 1 0 0 0 1 75.848261970885346 48.859132345056373 14.180286956030507 1 rotate no_reflect no_shear #
shell $-1 $-1 $-1 $20 $-1 $5 #
shell $-1 $-1 $-1 $21 $-1 $7 #
shell $-1 $-1 $-1 $22 $-1 $9 #
shell $-1 $-1 $-1 $23 $-1 $11 #
shell $-1 $-1 $-1 $24 $-1 $13 #
face $-1 $25 $26 $15 $-1 $27 forward single #
face $-1 $28 $29 $16 $-1 $30 reversed single #
face $-1 $31 $32 $17 $-1 $33 reversed single #
face $-1 $34 $35 $18 $-1 $36 forward single #
face $-1 $37 $38 $19 $-1 $39 forward single #
face $-1 $40 $41 $15 $-1 $42 reversed single #
loop $-1 $-1 $43 $20 #
plane-surface $-1 0 0 14.180286956030507 0 0 1 1 0 0 forward_v I I I I #
face $-1 $44 $45 $16 $-1 $46 reversed single #
loop $-1 $-1 $47 $21 #
plane-surface $-1 -68.086901510184077 0 9.9337741906035522 0 0 1 1 0 0 forward_v I I I I #
face $-1 $48 $49 $17 $-1 $50 reversed single #
loop $-1 $-1 $51 $22 #
plane-surface $-1 -39.979054578111587 -142.25283924802446 122.76015539302634 -1 0 0 0 -0.61566148304635926 0.78801074757464917 forward_v I I I I #
face $-1 $52 $53 $18 $-1 $54 forward single #
loop $-1 $55 $56 $23 #
cone-surface $-1 -54.512259200519594 -41.176328805500127 7.8439203784746994 0 0.61566148304635926 -0.78801074757464917 2 0 0 1 I I 0 1 2 forward I I I I #
face $-1 $57 $58 $19 $-1 $59 forward single #
loop $-1 $60 $61 $24 #
cone-surface $-1 -45.792336427074787 -41.176328805500127 7.8439203784746994 0 0.61566148304635926 -0.78801074757464917 2 0 0 1 I I 0 1 2 forward I I I I #
face $-1 $62 $63 $15 $-1 $64 reversed single #
loop $-1 $-1 $65 $25 #
plane-surface $-1 0 0 -14.180286956030507 0 0 1 1 0 0 forward_v I I I I #
coedge $-1 $66 $67 $68 $69 forward $26 $-1 #
face $-1 $70 $71 $16 $-1 $72 reversed single #
loop $-1 $-1 $73 $28 #
plane-surface $-1 -60.325541049482801 0 12.057030573317029 -1 0 0 0 0 1 forward_v I I I I #
coedge $-1 $74 $75 $73 $76 forward $29 $-1 #
face $-1 $77 $78 $17 $-1 $79 forward single #
loop $-1 $-1 $80 $31 #
plane-surface $-1 -50.15229781379719 -48.859132345056366 3.2216641571959457 0 -0.61566148304635926 0.78801074757464917 1 0 0 forward_v I I I I #
coedge $-1 $81 $82 $83 $84 reversed $32 $-1 #
face $-1 $-1 $85 $18 $-1 $86 forward single #
loop $-1 $87 $88 $34 #
cone-surface $-1 -54.512259200519594 -39.891062417128097 6.1988544527615161 0 0.61566148304635926 -0.78801074757464917 1 0 0 1 I I -0.70710678118654746 0.70710678118654746 1 forward I I I I #
loop $-1 $-1 $89 $23 #
coedge $-1 $56 $56 $90 $91 reversed $35 $-1 #
face $-1 $-1 $92 $19 $-1 $93 forward single #
loop $-1 $94 $95 $37 #
cone-surface $-1 -45.792336427074787 -39.891062417128097 6.1988544527615161 0 0.61566148304635926 -0.78801074757464917 1 0 0 1 I I -0.70710678118654746 0.70710678118654746 1 forward I I I I #
loop $-1 $-1 $96 $24 #
coedge $-1 $61 $61 $97 $98 reversed $38 $-1 #
face $-1 $99 $100 $15 $-1 $101 reversed single #
loop $-1 $-1 $102 $40 #
plane-surface $-1 0 -48.859132345056373 0 0 1 0 0 0 1 forward_v I I I I #
coedge $-1 $103 $104 $105 $106 forward $41 $-1 #
coedge $-1 $107 $43 $108 $109 forward $26 $-1 #
coedge $-1 $43 $107 $110 $111 forward $26 $-1 #
coedge $-1 $112 $113 $43 $69 reversed $114 $-1 #
edge $-1 $115 -48.859132345056373 $116 48.859132345056373 $68 $117 forward 7 unknown #
face $-1 $118 $119 $16 $-1 $120 reversed single #
loop $-1 $-1 $121 $44 #
plane-surface $-1 0 48.859132345056373 0 0 -1 0 0 0 -1 forward_v I I I I #
coedge $-1 $122 $123 $47 $76 reversed $45 $-1 #
coedge $-1 $124 $47 $125 $126 reversed $29 $-1 #
coedge $-1 $47 $124 $127 $128 reversed $29 $-1 #
edge $-1 $129 -48.859132345056373 $130 48.859132345056373 $73 $131 forward 7 unknown #
face $-1 $132 $133 $17 $-1 $134 forward single #
loop $-1 $-1 $135 $48 #
plane-surface $-1 -60.325541049482801 0 12.057030573317029 -1 0 0 0 0 1 forward_v I I I I #
coedge $-1 $136 $137 $138 $139 reversed $49 $-1 #
coedge $-1 $82 $51 $140 $141 reversed $32 $-1 #
coedge $-1 $51 $81 $136 $142 reversed $32 $-1 #
coedge $-1 $138 $143 $51 $84 forward $133 $-1 #
edge $-1 $144 22.267287278955855 $145 36.293684547417044 $83 $146 forward 7 unknown #
loop $-1 $-1 $90 $52 #
plane-surface $-1 -50.15229781379719 -48.859132345056366 3.2216641571959457 0 -0.61566148304635926 0.78801074757464917 1 0 0 forward_v I I I I #
loop $-1 $-1 $147 $34 #
coedge $-1 $88 $88 $89 $148 reversed $53 $-1 #
coedge $-1 $89 $89 $88 $148 forward $55 $-1 #
coedge $-1 $90 $90 $56 $91 forward $85 $-1 #
edge $-1 $149 1.5749613827085417e-015 $149 6.2831853071796022 $90 $150 forward 7 unknown #
loop $-1 $-1 $97 $57 #
plane-surface $-1 -50.15229781379719 -48.859132345056366 3.2216641571959457 0 -0.61566148304635926 0.78801074757464917 1 0 0 forward_v I I I I #
loop $-1 $-1 $151 $37 #
coedge $-1 $95 $95 $96 $152 reversed $58 $-1 #
coedge $-1 $96 $96 $95 $152 forward $60 $-1 #
coedge $-1 $97 $97 $61 $98 forward $92 $-1 #
edge $-1 $153 1.5749613827085417e-015 $153 6.2831853071796022 $97 $154 forward 7 unknown #
face $-1 $155 $156 $15 $-1 $157 reversed single #
loop $-1 $-1 $158 $62 #
plane-surface $-1 -75.848261970885346 0 0 1 0 0 0 0 -1 forward_v I I I I #
coedge $-1 $159 $110 $160 $161 forward $63 $-1 #
coedge $-1 $162 $65 $159 $163 forward $41 $-1 #
coedge $-1 $65 $162 $164 $165 forward $41 $-1 #
coedge $-1 $113 $112 $65 $106 reversed $114 $-1 #
edge $-1 $166 -48.859132345056373 $167 48.859132345056373 $105 $168 forward 7 unknown #
coedge $-1 $67 $66 $169 $170 forward $26 $-1 #
coedge $-1 $171 $172 $66 $109 reversed $156 $-1 #
edge $-1 $116 -75.848261970885346 $173 75.848261970885346 $108 $174 forward 7 unknown #
coedge $-1 $102 $175 $67 $111 reversed $63 $-1 #
edge $-1 $176 -75.848261970885346 $115 75.848261970885346 $110 $177 forward 7 unknown #
coedge $-1 $105 $68 $175 $178 forward $114 $-1 #
coedge $-1 $68 $105 $171 $179 reversed $114 $-1 #
loop $-1 $-1 $112 $155 #
vertex $-1 $69 $180 #
vertex $-1 $69 $181 #
straight-curve $-1 75.848261970885346 0 14.180286956030507 0 1 0 I I #
face $-1 $182 $183 $16 $-1 $184 forward single #
loop $-1 $-1 $185 $70 #
plane-surface $-1 -75.848261970885346 0 0 1 0 0 0 0 -1 forward_v I I I I #
coedge $-1 $127 $186 $122 $187 forward $71 $-1 #
coedge $-1 $188 $73 $121 $187 reversed $45 $-1 #
coedge $-1 $73 $188 $189 $190 reversed $45 $-1 #
coedge $-1 $75 $74 $185 $191 reversed $29 $-1 #
coedge $-1 $189 $192 $74 $126 forward $193 $-1 #
edge $-1 $194 -41.804811215793308 $130 -26.282090294390763 $125 $195 forward 7 unknown #
coedge $-1 $196 $121 $75 $128 forward $71 $-1 #
edge $-1 $129 26.282090294390763 $197 41.804811215793308 $127 $198 forward 7 unknown #
vertex $-1 $128 $199 #
vertex $-1 $126 $200 #
straight-curve $-1 -60.325541049482801 0 9.9337741906035522 0 -1 0 I I #
face $-1 $-1 $201 $17 $-1 $202 reversed single #
loop $-1 $-1 $138 $77 #
plane-surface $-1 0 0 14.180286956030507 0 0 1 1 0 0 forward_v I I I I #
coedge $-1 $203 $204 $137 $205 reversed $78 $-1 #
coedge $-1 $206 $80 $82 $142 forward $49 $-1 #
coedge $-1 $80 $206 $135 $205 forward $49 $-1 #
coedge $-1 $207 $83 $80 $139 forward $133 $-1 #
edge $-1 $145 14.902905671212991 $208 35.249392142584206 $138 $209 forward 7 unknown #
coedge $-1 $210 $211 $81 $141 forward $201 $-1 #
edge $-1 $212 -58.15841353931723 $144 -47.199790740482662 $140 $213 forward 7 unknown #
edge $-1 $145 -17.799753761775243 $212 9.1534652039358102e-015 $82 $214 forward 7 unknown #
coedge $-1 $83 $207 $210 $215 forward $133 $-1 #
vertex $-1 $141 $216 #
vertex $-1 $84 $217 #
straight-curve $-1 -39.979054578111587 -71.126419624012229 14.180286956030507 0 1 0 I I #
coedge $-1 $147 $147 $-1 $218 reversed $87 $-1 #
edge $-1 $219 0 $219 6.2831853071796004 $88 $220 forward 7 unknown #
vertex $-1 $91 $221 #
ellipse-curve $-1 -54.512259200519594 -41.845933710825783 8.7009755566132192 0 -0.61566148304635926 0.78801074757464917 2 0 0 1 I I #
coedge $-1 $151 $151 $-1 $222 reversed $94 $-1 #
edge $-1 $223 0 $223 6.2831853071796004 $95 $224 forward 7 unknown #
vertex $-1 $98 $225 #
ellipse-curve $-1 -45.792336427074787 -41.845933710825783 8.7009755566132192 0 -0.61566148304635926 0.78801074757464917 2 0 0 1 I I #
face $-1 $-1 $114 $15 $-1 $226 reversed single #
loop $-1 $-1 $171 $99 #
plane-surface $-1 0 48.859132345056373 0 0 -1 0 0 0 -1 forward_v I I I I #
coedge $-1 $227 $169 $172 $228 forward $100 $-1 #
coedge $-1 $175 $102 $103 $163 reversed $63 $-1 #
coedge $-1 $169 $227 $102 $161 reversed $100 $-1 #
edge $-1 $176 -14.180286956030507 $229 14.180286956030507 $160 $230 forward 7 unknown #
coedge $-1 $104 $103 $227 $231 forward $41 $-1 #
edge $-1 $167 -75.848261970885346 $229 75.848261970885346 $159 $232 forward 7 unknown #
coedge $-1 $172 $171 $104 $165 reversed $156 $-1 #
edge $-1 $233 -75.848261970885346 $166 75.848261970885346 $164 $234 forward 7 unknown #
vertex $-1 $106 $235 #
vertex $-1 $178 $236 #
straight-curve $-1 75.848261970885346 0 -14.180286956030507 0 -1 0 I I #
coedge $-1 $158 $160 $107 $170 reversed $100 $-1 #
edge $-1 $173 -48.859132345056373 $176 48.859132345056373 $169 $237 forward 7 unknown #
coedge $-1 $164 $108 $113 $179 forward $156 $-1 #
coedge $-1 $108 $164 $158 $228 reversed $156 $-1 #
vertex $-1 $109 $238 #
straight-curve $-1 0 48.859132345056373 14.180286956030507 -1 0 0 I I #
coedge $-1 $110 $159 $112 $178 reversed $63 $-1 #
vertex $-1 $170 $239 #
straight-curve $-1 0 -48.859132345056373 14.180286956030507 1 0 0 I I #
edge $-1 $115 -14.180286956030507 $167 14.180286956030507 $112 $240 forward 7 unknown #
edge $-1 $116 -14.180286956030507 $166 14.180286956030507 $113 $241 forward 7 unknown #
point $-1 75.848261970885346 -48.859132345056373 14.180286956030507 #
point $-1 75.848261970885346 48.859132345056373 14.180286956030507 #
face $-1 $-1 $193 $16 $-1 $242 reversed single #
loop $-1 $-1 $243 $118 #
plane-surface $-1 0 0 14.180286956030507 0 0 1 1 0 0 forward_v I I I I #
coedge $-1 $244 $245 $124 $191 forward $119 $-1 #
coedge $-1 $121 $196 $246 $247 reversed $71 $-1 #
edge $-1 $248 -8.1517716693719908 $129 -3.9052589039450378 $121 $249 forward 7 unknown #
coedge $-1 $123 $122 $243 $250 reversed $45 $-1 #
coedge $-1 $251 $125 $123 $190 forward $193 $-1 #
edge $-1 $130 3.9052589039450378 $252 8.1517716693719908 $189 $253 forward 7 unknown #
edge $-1 $197 -48.859132345056373 $194 48.859132345056373 $185 $254 forward 7 unknown #
coedge $-1 $125 $251 $244 $255 forward $193 $-1 #
loop $-1 $-1 $189 $182 #
vertex $-1 $191 $256 #
straight-curve $-1 -34.043450755092039 -48.859132345056373 9.9337741906035522 1 0 0 I I #
coedge $-1 $186 $127 $245 $257 reversed $71 $-1 #
vertex $-1 $191 $258 #
straight-curve $-1 -34.043450755092039 48.859132345056373 9.9337741906035522 -1 0 0 I I #
point $-1 -60.325541049482801 48.859132345056373 9.9337741906035522 #
point $-1 -60.325541049482801 -48.859132345056373 9.9337741906035522 #
loop $-1 $-1 $140 $132 #
plane-surface $-1 0 -48.859132345056373 0 0 1 0 0 0 1 forward_v I I I I #
coedge $-1 $204 $135 $259 $260 reversed $78 $-1 #
coedge $-1 $135 $203 $207 $261 reversed $78 $-1 #
edge $-1 $262 -9.1534652039358102e-015 $208 17.799753761775243 $135 $263 forward 7 unknown #
coedge $-1 $137 $136 $211 $264 reversed $49 $-1 #
coedge $-1 $143 $138 $204 $261 forward $133 $-1 #
vertex $-1 $261 $265 #
straight-curve $-1 -25.076148906898595 -34.832735076595178 14.180286956030507 -1 0 0 I I #
coedge $-1 $259 $140 $143 $215 reversed $201 $-1 #
coedge $-1 $140 $259 $206 $264 forward $201 $-1 #
vertex $-1 $141 $266 #
straight-curve $-1 -39.979054578111587 -48.859132345056373 61.380077696513169 0 0 1 I I #
straight-curve $-1 -39.979054578111587 -48.859132345056366 3.2216641571959457 0 -0.78801074757464917 -0.61566148304635926 I I #
edge $-1 $267 -60.325541049482801 $144 -39.979054578111587 $210 $268 forward 7 unknown #
point $-1 -39.979054578111587 -48.859132345056373 14.180286956030507 #
point $-1 -39.979054578111587 -34.832735076595185 14.180286956030505 #
edge $-1 $269 1 $269 0 $147 $-1 forward 7 unknown #
vertex $-1 $148 $270 #
ellipse-curve $-1 -54.512259200519594 -40.506723900174457 6.9868652003361653 0 -0.61566148304635926 0.78801074757464917 2 0 0 1 I I #
point $-1 -52.512259200519594 -41.84593371082579 8.7009755566132334 #
edge $-1 $271 1 $271 0 $151 $-1 forward 7 unknown #
vertex $-1 $152 $272 #
ellipse-curve $-1 -45.792336427074787 -40.506723900174457 6.9868652003361653 0 -0.61566148304635926 0.78801074757464917 2 0 0 1 I I #
point $-1 -43.792336427074787 -41.84593371082579 8.7009755566132334 #
plane-surface $-1 75.848261970885346 0 0 -1 0 0 0 0 1 forward_v I I I I #
coedge $-1 $160 $158 $162 $231 reversed $100 $-1 #
edge $-1 $173 -14.180286956030507 $233 14.180286956030507 $172 $273 forward 7 unknown #
vertex $-1 $231 $274 #
straight-curve $-1 -75.848261970885346 -48.859132345056373 0 0 0 -1 I I #
edge $-1 $229 -48.859132345056373 $233 48.859132345056373 $227 $275 forward 7 unknown #
straight-curve $-1 0 -48.859132345056373 -14.180286956030507 -1 0 0 I I #
vertex $-1 $165 $276 #
straight-curve $-1 0 48.859132345056373 -14.180286956030507 1 0 0 I I #
point $-1 75.848261970885346 48.859132345056373 -14.180286956030507 #
point $-1 75.848261970885346 -48.859132345056373 -14.180286956030507 #
straight-curve $-1 -75.848261970885346 0 14.180286956030507 0 -1 0 I I #
point $-1 -75.848261970885346 48.859132345056373 14.180286956030507 #
point $-1 -75.848261970885346 -48.859132345056373 14.180286956030507 #
straight-curve $-1 75.848261970885346 -48.859132345056373 0 0 0 -1 I I #
straight-curve $-1 75.848261970885346 48.859132345056373 0 0 0 -1 I I #
plane-surface $-1 0 -48.859132345056373 0 0 1 0 0 0 1 forward_v I I I I #
coedge $-1 $246 $277 $188 $250 forward $183 $-1 #
coedge $-1 $278 $185 $192 $255 reversed $119 $-1 #
coedge $-1 $185 $278 $196 $257 forward $119 $-1 #
coedge $-1 $279 $243 $186 $247 forward $183 $-1 #
edge $-1 $248 60.325541049482801 $280 75.848261970885346 $186 $281 forward 7 unknown #
vertex $-1 $247 $282 #
straight-curve $-1 -60.325541049482801 48.859132345056373 6.0285152866585143 0 0 -1 I I #
edge $-1 $252 -48.859132345056373 $248 48.859132345056373 $243 $283 forward 7 unknown #
coedge $-1 $192 $189 $277 $284 reversed $193 $-1 #
vertex $-1 $190 $285 #
straight-curve $-1 -60.325541049482801 -48.859132345056373 6.0285152866585143 0 0 1 I I #
straight-curve $-1 -75.848261970885346 0 9.9337741906035522 0 -1 0 I I #
edge $-1 $286 -14.180286956030507 $194 -9.9337741906035522 $244 $287 forward 7 unknown #
point $-1 -75.848261970885346 -48.859132345056373 9.9337741906035522 #
edge $-1 $280 -14.180286956030507 $197 -9.9337741906035522 $196 $288 forward 7 unknown #
point $-1 -75.848261970885346 48.859132345056373 9.9337741906035522 #
coedge $-1 $211 $210 $203 $260 forward $201 $-1 #
edge $-1 $267 47.199790740482662 $262 58.15841353931723 $259 $289 forward 7 unknown #
edge $-1 $208 34.832735076595185 $267 48.859132345056373 $207 $290 forward 7 unknown #
vertex $-1 $260 $291 #
straight-curve $-1 -60.325541049482794 -48.859132345056366 3.2216641571959457 0 0.78801074757464917 0.61566148304635926 I I #
edge $-1 $262 -35.249392142584199 $212 -14.902905671212991 $211 $292 forward 7 unknown #
point $-1 -60.325541049482801 -34.832735076595185 14.180286956030507 #
point $-1 -39.979054578111587 -48.859132345056373 3.2216641571959399 #
vertex $-1 $215 $293 #
straight-curve $-1 0 -48.859132345056373 14.180286956030507 1 0 0 I I #
vertex $-1 $218 $294 #
point $-1 -52.512259200519594 -40.506723900174457 6.9868652003361653 #
vertex $-1 $222 $295 #
point $-1 -43.792336427074787 -40.506723900174457 6.9868652003361653 #
straight-curve $-1 -75.848261970885346 48.859132345056373 0 0 0 -1 I I #
point $-1 -75.848261970885346 -48.859132345056373 -14.180286956030507 #
straight-curve $-1 -75.848261970885346 0 -14.180286956030507 0 1 0 I I #
point $-1 -75.848261970885346 48.859132345056373 -14.180286956030507 #
coedge $-1 $243 $279 $251 $284 forward $183 $-1 #
coedge $-1 $245 $244 $279 $296 reversed $119 $-1 #
coedge $-1 $277 $246 $278 $296 forward $183 $-1 #
vertex $-1 $247 $297 #
straight-curve $-1 0 48.859132345056373 14.180286956030507 -1 0 0 I I #
point $-1 -60.325541049482801 48.859132345056373 14.180286956030505 #
straight-curve $-1 -60.325541049482801 0 14.180286956030507 0 1 0 I I #
edge $-1 $286 -75.848261970885346 $252 -60.325541049482801 $251 $298 forward 7 unknown #
point $-1 -60.325541049482801 -48.859132345056373 14.180286956030505 #
vertex $-1 $296 $299 #
straight-curve $-1 -75.848261970885346 -48.859132345056373 0 0 0 -1 I I #
straight-curve $-1 -75.848261970885346 48.859132345056373 0 0 0 -1 I I #
straight-curve $-1 -60.325541049482794 -48.859132345056373 61.380077696513169 0 0 -1 I I #
straight-curve $-1 -60.325541049482801 0 14.180286956030507 0 -1 0 I I #
point $-1 -60.325541049482794 -48.859132345056373 3.2216641571959399 #
straight-curve $-1 -25.076148906898595 -48.859132345056373 3.2216641571959381 1 0 0 I I #
point $-1 -60.325541049482801 -48.859132345056373 14.180286956030505 #
point $-1 -54.512259200519594 -39.275400934081738 5.410843705186867 #
point $-1 -45.792336427074787 -39.275400934081738 5.410843705186867 #
edge $-1 $280 -48.859132345056373 $286 48.859132345056373 $278 $300 forward 7 unknown #
point $-1 -75.848261970885346 48.859132345056373 14.180286956030507 #
straight-curve $-1 0 -48.859132345056373 14.180286956030507 1 0 0 I I #
point $-1 -75.848261970885346 -48.859132345056373 14.180286956030507 #
straight-curve $-1 -75.848261970885346 0 14.180286956030507 0 -1 0 I I #
End-of-ACIS-data 