500 0 4 0           
7 Unknown 11 ACIS 5.0 NT 24 Fri Mar 26 19:11:09 1999 
-1 9.9999999999999995e-007 1e-010 
body $-1 $4 $-1 $5 #
body $-1 $6 $-1 $7 #
body $-1 $8 $-1 $9 #
body $-1 $10 $-1 $11 #
lump $-1 $-1 $12 $0 #
transform $-1 1 0 0 0 1 0 0 0 1 69.556566057313759 29.206455440313814 8.7343051699935632 1 rotate no_reflect no_shear #
lump $-1 $-1 $13 $1 #
transform $-1 1 0 0 0 1 0 0 0 1 69.556566057313759 29.206455440313814 8.7343051699935632 1 rotate no_reflect no_shear #
lump $-1 $-1 $14 $2 #
transform $-1 1 0 0 0 1 0 0 0 1 69.556566057313759 29.206455440313814 8.7343051699935632 1 rotate no_reflect no_shear #
lump $-1 $-1 $15 $3 #
transform $-1 1 0 0 0 1 0 0 0 1 69.556566057313759 29.206455440313814 8.7343051699935632 1 rotate no_reflect no_shear #
shell $-1 $-1 $-1 $16 $-1 $4 #
shell $-1 $-1 $-1 $17 $-1 $6 #
shell $-1 $-1 $-1 $18 $-1 $8 #
shell $-1 $-1 $-1 $19 $-1 $10 #
face $-1 $20 $21 $12 $-1 $22 forward single #
face $-1 $23 $24 $13 $-1 $25 reversed single #
face $-1 $26 $27 $14 $-1 $28 forward single #
face $-1 $29 $30 $15 $-1 $31 reversed single #
face $-1 $32 $33 $12 $-1 $34 reversed single #
loop $-1 $-1 $35 $16 #
plane-surface $-1 0 0 8.7343051699935632 0 0 1 1 0 0 forward_v I I I I #
face $-1 $36 $37 $13 $-1 $38 reversed single #
loop $-1 $-1 $39 $17 #
plane-surface $-1 -75.519302694282388 -26.838540980137299 0 1 0 0 0 0 -1 forward_v I I I I #
face $-1 $40 $41 $14 $-1 $42 forward single #
loop $-1 $-1 $43 $18 #
plane-surface $-1 35.393775814523735 0.76063444599419583 198.4610373437358 0 -1 0 -0.57357644374324357 0 -0.81915203911291934 forward_v I I I I #
face $-1 $44 $45 $15 $-1 $46 reversed single #
loop $-1 $47 $48 $19 #
cone-surface $-1 65.615547598014288 -3.067247192968761 5.1956033875410048 -0.57357644374324357 0 -0.81915203911291934 0.81915203911291934 0 -0.57357644374324357 1 I I 0 1 1 forward I I I I #
face $-1 $49 $50 $12 $-1 $51 reversed single #
loop $-1 $-1 $52 $20 #
plane-surface $-1 0 0 -8.7343051699935632 0 0 1 1 0 0 forward_v I I I I #
coedge $-1 $53 $54 $55 $56 forward $21 $-1 #
face $-1 $57 $58 $13 $-1 $59 forward single #
loop $-1 $-1 $60 $23 #
plane-surface $-1 -72.537934375798073 -24.470626519960785 0 0 -1 0 0 0 -1 forward_v I I I I #
coedge $-1 $61 $62 $63 $64 forward $24 $-1 #
face $-1 $65 $66 $14 $-1 $67 forward single #
loop $-1 $-1 $68 $26 #
plane-surface $-1 -44.398239781768325 -3.067247192968761 84.506231504653726 0.57357644374324357 0 0.81915203911291934 0.81915203911291934 0 -0.57357644374324357 forward_v I I I I #
coedge $-1 $69 $70 $71 $72 reversed $27 $-1 #
face $-1 $73 $74 $15 $-1 $75 forward single #
loop $-1 $76 $77 $29 #
cone-surface $-1 64.258382094670097 -3.067247192968761 3.257370216347935 -0.57357644374324357 0 -0.81915203911291934 0.40957601955645967 0 -0.28678822187162178 1 I I -0.70710678118654746 0.70710678118654746 0.5 forward I I I I #
loop $-1 $-1 $78 $19 #
coedge $-1 $48 $48 $79 $80 reversed $30 $-1 #
face $-1 $81 $82 $12 $-1 $83 reversed single #
loop $-1 $-1 $84 $32 #
plane-surface $-1 0 -29.206455440313814 0 0 1 0 0 0 1 forward_v I I I I #
coedge $-1 $85 $86 $87 $88 forward $33 $-1 #
coedge $-1 $89 $35 $90 $91 forward $21 $-1 #
coedge $-1 $35 $89 $92 $93 forward $21 $-1 #
coedge $-1 $94 $95 $35 $56 reversed $96 $-1 #
edge $-1 $97 -29.206455440313814 $98 29.206455440313814 $55 $99 forward 7 unknown #
face $-1 $100 $101 $13 $-1 $102 reversed single #
loop $-1 $-1 $103 $36 #
plane-surface $-1 0 0 8.7343051699935632 0 0 1 1 0 0 forward_v I I I I #
coedge $-1 $104 $105 $106 $107 reversed $37 $-1 #
coedge $-1 $108 $39 $109 $110 reversed $24 $-1 #
coedge $-1 $39 $108 $111 $112 reversed $24 $-1 #
coedge $-1 $105 $104 $39 $64 reversed $37 $-1 #
edge $-1 $113 -8.7343051699935632 $114 8.7343051699935632 $63 $115 forward 7 unknown #
face $-1 $116 $117 $14 $-1 $118 forward single #
loop $-1 $-1 $119 $40 #
plane-surface $-1 35.393775814523735 -6.8951288319317179 198.4610373437358 0 1 0 0.57357644374324357 0 0.81915203911291934 forward_v I I I I #
coedge $-1 $120 $121 $122 $123 reversed $41 $-1 #
coedge $-1 $70 $43 $121 $124 forward $27 $-1 #
coedge $-1 $43 $69 $125 $126 reversed $27 $-1 #
coedge $-1 $127 $122 $43 $72 forward $117 $-1 #
edge $-1 $128 46.118395794398126 $129 51.859678150051892 $71 $130 forward 7 unknown #
face $-1 $131 $132 $15 $-1 $133 forward single #
loop $-1 $-1 $134 $44 #
plane-surface $-1 35.393775814523735 0.76063444599419583 198.4610373437358 0 -1 0 -0.57357644374324357 0 -0.81915203911291934 forward_v I I I I #
loop $-1 $-1 $135 $29 #
coedge $-1 $77 $77 $78 $136 forward $45 $-1 #
coedge $-1 $78 $78 $77 $136 reversed $47 $-1 #
coedge $-1 $79 $79 $48 $80 forward $132 $-1 #
edge $-1 $137 0 $137 6.2831853071796004 $79 $138 forward 7 unknown #
face $-1 $139 $140 $12 $-1 $141 reversed single #
loop $-1 $-1 $142 $49 #
plane-surface $-1 -69.556566057313759 0 0 1 0 0 0 0 -1 forward_v I I I I #
coedge $-1 $143 $92 $144 $145 forward $50 $-1 #
coedge $-1 $146 $52 $143 $147 forward $33 $-1 #
coedge $-1 $52 $146 $148 $149 forward $33 $-1 #
coedge $-1 $95 $94 $52 $88 reversed $96 $-1 #
edge $-1 $150 -29.206455440313814 $151 29.206455440313814 $87 $152 forward 7 unknown #
coedge $-1 $54 $53 $153 $154 forward $21 $-1 #
coedge $-1 $155 $156 $53 $91 reversed $140 $-1 #
edge $-1 $98 -69.556566057313759 $157 69.556566057313759 $90 $158 forward 7 unknown #
coedge $-1 $84 $159 $54 $93 reversed $50 $-1 #
edge $-1 $160 -69.556566057313759 $97 69.556566057313759 $92 $161 forward 7 unknown #
coedge $-1 $87 $55 $159 $162 forward $96 $-1 #
coedge $-1 $55 $87 $155 $163 reversed $96 $-1 #
loop $-1 $-1 $94 $139 #
vertex $-1 $56 $164 #
vertex $-1 $56 $165 #
straight-curve $-1 69.556566057313759 0 8.7343051699935632 0 1 0 I I #
face $-1 $166 $167 $13 $-1 $168 reversed single #
loop $-1 $-1 $169 $57 #
plane-surface $-1 0 0 -8.7343051699935632 0 0 1 1 0 0 forward_v I I I I #
coedge $-1 $170 $171 $172 $173 forward $58 $-1 #
coedge $-1 $63 $60 $174 $175 reversed $37 $-1 #
coedge $-1 $60 $63 $176 $177 reversed $37 $-1 #
coedge $-1 $178 $179 $60 $107 forward $180 $-1 #
edge $-1 $181 -8.7343051699935632 $182 8.7343051699935632 $106 $183 forward 7 unknown #
coedge $-1 $62 $61 $184 $185 reversed $24 $-1 #
coedge $-1 $174 $186 $61 $110 forward $101 $-1 #
edge $-1 $187 -2.3679144601765145 $114 2.3679144601765145 $61 $188 forward 7 unknown #
coedge $-1 $171 $176 $62 $112 forward $58 $-1 #
edge $-1 $113 -2.3679144601765145 $189 2.3679144601765145 $62 $190 forward 7 unknown #
vertex $-1 $177 $191 #
vertex $-1 $175 $192 #
straight-curve $-1 -75.519302694282388 -24.470626519960785 0 0 0 -1 I I #
face $-1 $193 $194 $14 $-1 $195 reversed single #
loop $-1 $-1 $196 $65 #
plane-surface $-1 0 0 8.7343051699935632 0 0 1 1 0 0 forward_v I I I I #
coedge $-1 $197 $198 $196 $199 reversed $66 $-1 #
coedge $-1 $200 $68 $198 $201 reversed $41 $-1 #
coedge $-1 $68 $200 $69 $124 reversed $41 $-1 #
coedge $-1 $71 $196 $68 $123 forward $117 $-1 #
edge $-1 $202 -5.3615052354473374 $128 2.2942580424785763 $122 $203 forward 7 unknown #
edge $-1 $128 132.10432046365349 $204 139.11313211462752 $69 $205 forward 7 unknown #
coedge $-1 $206 $207 $70 $126 forward $208 $-1 #
edge $-1 $129 90.496213501874337 $204 94.516302763506232 $125 $209 forward 7 unknown #
coedge $-1 $210 $71 $207 $211 forward $117 $-1 #
vertex $-1 $123 $212 #
vertex $-1 $211 $213 #
straight-curve $-1 17.696887907261868 0.76063444599419583 8.7343051699935614 1 0 0 I I #
face $-1 $214 $215 $15 $-1 $216 forward single #
loop $-1 $217 $79 $73 #
plane-surface $-1 -44.398239781768325 -3.067247192968761 84.506231504653726 0.57357644374324357 0 0.81915203911291934 0.81915203911291934 0 -0.57357644374324357 forward_v I I I I #
coedge $-1 $218 $219 $220 $221 reversed $74 $-1 #
coedge $-1 $135 $135 $-1 $222 forward $76 $-1 #
edge $-1 $223 0 $223 6.2831853071796004 $77 $224 forward 7 unknown #
vertex $-1 $80 $225 #
ellipse-curve $-1 66.685924879486862 -3.067247192968761 6.7242605391776236 -0.57357644374324357 0 -0.81915203911291934 0.81915203911291934 0 -0.57357644374324357 1 I I #
face $-1 $-1 $96 $12 $-1 $226 reversed single #
loop $-1 $-1 $155 $81 #
plane-surface $-1 0 29.206455440313814 0 0 -1 0 0 0 -1 forward_v I I I I #
coedge $-1 $227 $153 $156 $228 forward $82 $-1 #
coedge $-1 $159 $84 $85 $147 reversed $50 $-1 #
coedge $-1 $153 $227 $84 $145 reversed $82 $-1 #
edge $-1 $160 -8.7343051699935632 $229 8.7343051699935632 $144 $230 forward 7 unknown #
coedge $-1 $86 $85 $227 $231 forward $33 $-1 #
edge $-1 $151 -69.556566057313759 $229 69.556566057313759 $143 $232 forward 7 unknown #
coedge $-1 $156 $155 $86 $149 reversed $140 $-1 #
edge $-1 $233 -69.556566057313759 $150 69.556566057313759 $148 $234 forward 7 unknown #
vertex $-1 $88 $235 #
vertex $-1 $162 $236 #
straight-curve $-1 69.556566057313759 0 -8.7343051699935632 0 -1 0 I I #
coedge $-1 $142 $144 $89 $154 reversed $82 $-1 #
edge $-1 $157 -29.206455440313814 $160 29.206455440313814 $153 $237 forward 7 unknown #
coedge $-1 $148 $90 $95 $163 forward $140 $-1 #
coedge $-1 $90 $148 $142 $228 reversed $140 $-1 #
vertex $-1 $91 $238 #
straight-curve $-1 0 29.206455440313814 8.7343051699935632 -1 0 0 I I #
coedge $-1 $92 $143 $94 $162 reversed $50 $-1 #
vertex $-1 $154 $239 #
straight-curve $-1 0 -29.206455440313814 8.7343051699935632 1 0 0 I I #
edge $-1 $97 -8.7343051699935632 $151 8.7343051699935632 $94 $240 forward 7 unknown #
edge $-1 $98 -8.7343051699935632 $150 8.7343051699935632 $95 $241 forward 7 unknown #
point $-1 69.556566057313759 -29.206455440313814 8.7343051699935632 #
point $-1 69.556566057313759 29.206455440313814 8.7343051699935632 #
face $-1 $242 $180 $13 $-1 $243 reversed single #
loop $-1 $-1 $244 $100 #
plane-surface $-1 0 -29.206455440313814 0 0 1 0 0 0 1 forward_v I I I I #
coedge $-1 $186 $245 $246 $247 forward $101 $-1 #
coedge $-1 $248 $103 $249 $250 forward $58 $-1 #
coedge $-1 $103 $111 $251 $252 forward $58 $-1 #
coedge $-1 $253 $254 $103 $173 reversed $255 $-1 #
edge $-1 $256 -29.206455440313814 $257 29.206455440313814 $172 $258 forward 7 unknown #
coedge $-1 $259 $109 $104 $175 forward $101 $-1 #
edge $-1 $114 -2.9813683184843143 $181 2.9813683184843143 $104 $260 forward 7 unknown #
coedge $-1 $111 $248 $105 $177 forward $58 $-1 #
edge $-1 $182 -2.9813683184843143 $113 2.9813683184843143 $105 $261 forward 7 unknown #
coedge $-1 $262 $106 $248 $263 reversed $180 $-1 #
coedge $-1 $106 $262 $259 $264 reversed $180 $-1 #
loop $-1 $-1 $106 $166 #
vertex $-1 $264 $265 #
vertex $-1 $177 $266 #
straight-curve $-1 -69.556566057313759 -24.470626519960785 0 0 0 1 I I #
coedge $-1 $244 $251 $108 $185 forward $167 $-1 #
edge $-1 $189 -8.7343051699935632 $187 8.7343051699935632 $108 $267 forward 7 unknown #
coedge $-1 $109 $169 $244 $268 forward $101 $-1 #
vertex $-1 $110 $269 #
straight-curve $-1 -75.519302694282388 -26.838540980137299 -8.7343051699935632 0 1 0 I I #
vertex $-1 $112 $270 #
straight-curve $-1 -75.519302694282388 -26.838540980137299 8.7343051699935632 0 -1 0 I I #
point $-1 -75.519302694282388 -24.470626519960785 8.7343051699935632 #
point $-1 -75.519302694282388 -24.470626519960785 -8.7343051699935632 #
face $-1 $271 $272 $14 $-1 $273 reversed single #
loop $-1 $-1 $274 $116 #
plane-surface $-1 -75.519302694282388 -26.838540980137299 0 1 0 0 0 0 -1 forward_v I I I I #
coedge $-1 $122 $275 $119 $199 forward $117 $-1 #
coedge $-1 $198 $119 $276 $277 reversed $66 $-1 #
coedge $-1 $119 $197 $120 $201 forward $66 $-1 #
edge $-1 $278 -51.859678150051892 $202 -46.118395794398126 $196 $279 forward 7 unknown #
coedge $-1 $121 $120 $206 $280 reversed $41 $-1 #
edge $-1 $281 -139.11313211462752 $202 -132.10432046365349 $198 $282 forward 7 unknown #
vertex $-1 $123 $283 #
straight-curve $-1 63.815283701659979 -1.5336235964843805 8.7343051699935685 0 1 0 I I #
vertex $-1 $280 $284 #
straight-curve $-1 -44.398239781768325 0.76063444599419583 84.506231504653726 0.81915203911291934 0 -0.57357644374324357 I I #
coedge $-1 $276 $125 $200 $280 forward $208 $-1 #
coedge $-1 $125 $285 $127 $211 reversed $208 $-1 #
loop $-1 $-1 $276 $286 #
straight-curve $-1 69.556566057313759 0.76063444599419583 99.230518671867898 0 0 -1 I I #
coedge $-1 $287 $127 $288 $289 forward $117 $-1 #
edge $-1 $129 0.76063444599419583 $290 29.206455440313814 $207 $291 forward 7 unknown #
point $-1 63.815283701659993 0.76063444599419583 8.7343051699935614 #
point $-1 69.556566057313759 0.76063444599419583 8.7343051699935632 #
face $-1 $292 $293 $15 $-1 $294 forward single #
loop $-1 $-1 $295 $131 #
plane-surface $-1 35.393775814523735 -6.8951288319317179 198.4610373437358 0 1 0 0.57357644374324357 0 0.81915203911291934 forward_v I I I I #
loop $-1 $-1 $296 $73 #
coedge $-1 $219 $134 $297 $298 forward $74 $-1 #
coedge $-1 $134 $218 $299 $300 reversed $74 $-1 #
coedge $-1 $301 $302 $134 $221 forward $293 $-1 #
edge $-1 $303 46.118395794398126 $304 51.859678150051892 $220 $305 forward 7 unknown #
edge $-1 $306 1 $306 0 $135 $-1 forward 7 unknown #
vertex $-1 $136 $307 #
ellipse-curve $-1 64.545170316541714 -3.067247192968761 3.6669462359043945 0.57357644374324357 0 0.81915203911291934 0.81915203911291934 0 -0.57357644374324357 1 I I #
point $-1 67.505076918599784 -3.067247192968761 6.1506840954343716 #
plane-surface $-1 69.556566057313759 0 0 -1 0 0 0 0 1 forward_v I I I I #
coedge $-1 $144 $142 $146 $231 reversed $82 $-1 #
edge $-1 $157 -8.7343051699935632 $233 8.7343051699935632 $156 $308 forward 7 unknown #
vertex $-1 $231 $309 #
straight-curve $-1 -69.556566057313759 -29.206455440313814 0 0 0 -1 I I #
edge $-1 $229 -29.206455440313814 $233 29.206455440313814 $227 $310 forward 7 unknown #
straight-curve $-1 0 -29.206455440313814 -8.7343051699935632 -1 0 0 I I #
vertex $-1 $149 $311 #
straight-curve $-1 0 29.206455440313814 -8.7343051699935632 1 0 0 I I #
point $-1 69.556566057313759 29.206455440313814 -8.7343051699935632 #
point $-1 69.556566057313759 -29.206455440313814 -8.7343051699935632 #
straight-curve $-1 -69.556566057313759 0 8.7343051699935632 0 -1 0 I I #
point $-1 -69.556566057313759 29.206455440313814 8.7343051699935632 #
point $-1 -69.556566057313759 -29.206455440313814 8.7343051699935632 #
straight-curve $-1 69.556566057313759 -29.206455440313814 0 0 0 -1 I I #
straight-curve $-1 69.556566057313759 29.206455440313814 0 0 0 -1 I I #
face $-1 $312 $313 $13 $-1 $314 reversed single #
plane-surface $-1 -69.556566057313759 0 0 1 0 0 0 0 -1 forward_v I I I I #
coedge $-1 $315 $184 $186 $268 reversed $167 $-1 #
coedge $-1 $169 $259 $316 $317 forward $101 $-1 #
coedge $-1 $254 $253 $169 $247 reversed $255 $-1 #
edge $-1 $318 -29.206455440313814 $319 29.206455440313814 $246 $320 forward 7 unknown #
coedge $-1 $176 $170 $178 $263 forward $58 $-1 #
coedge $-1 $321 $322 $170 $250 reversed $313 $-1 #
edge $-1 $257 -69.556566057313759 $323 69.556566057313759 $249 $324 forward 7 unknown #
coedge $-1 $184 $315 $171 $252 reversed $167 $-1 #
edge $-1 $189 -75.519302694282388 $256 69.556566057313759 $251 $325 forward 7 unknown #
coedge $-1 $246 $172 $315 $326 forward $255 $-1 #
coedge $-1 $172 $246 $321 $327 reversed $255 $-1 #
loop $-1 $-1 $253 $312 #
vertex $-1 $173 $328 #
vertex $-1 $173 $329 #
straight-curve $-1 69.556566057313759 0 8.7343051699935632 0 1 0 I I #
coedge $-1 $245 $174 $179 $264 forward $101 $-1 #
straight-curve $-1 -72.537934375798073 -24.470626519960785 -8.7343051699935632 1 0 0 I I #
straight-curve $-1 -72.537934375798073 -24.470626519960785 8.7343051699935632 -1 0 0 I I #
coedge $-1 $179 $178 $322 $330 forward $180 $-1 #
edge $-1 $323 -29.206455440313814 $182 24.470626519960785 $178 $331 forward 7 unknown #
edge $-1 $181 -24.470626519960785 $332 29.206455440313814 $179 $333 forward 7 unknown #
point $-1 -69.556566057313759 -24.470626519960785 -8.7343051699935632 #
point $-1 -69.556566057313759 -24.470626519960785 8.7343051699935632 #
straight-curve $-1 -75.519302694282388 -29.206455440313814 0 0 0 -1 I I #
edge $-1 $319 -142.09450043311182 $187 2.9813683184843143 $244 $334 forward 7 unknown #
point $-1 -75.519302694282388 -29.206455440313814 -8.7343051699935632 #
point $-1 -75.519302694282388 -29.206455440313814 8.7343051699935632 #
face $-1 $335 $336 $14 $-1 $337 reversed single #
loop $-1 $-1 $338 $193 #
plane-surface $-1 -72.537934375798073 -24.470626519960785 0 0 -1 0 0 0 -1 forward_v I I I I #
coedge $-1 $339 $340 $341 $342 forward $194 $-1 #
coedge $-1 $196 $343 $344 $345 forward $117 $-1 #
coedge $-1 $344 $206 $197 $277 forward $208 $-1 #
edge $-1 $281 -94.516302763506232 $278 -90.496213501874337 $276 $346 forward 7 unknown #
vertex $-1 $277 $347 #
straight-curve $-1 17.696887907261868 -6.8951288319317179 8.7343051699935614 -1 0 0 I I #
edge $-1 $204 -2.2942580424785763 $281 5.3615052354473374 $206 $348 forward 7 unknown #
vertex $-1 $280 $349 #
straight-curve $-1 -44.398239781768325 -6.8951288319317179 84.506231504653726 -0.81915203911291934 0 0.57357644374324357 I I #
point $-1 63.815283701659993 -6.8951288319317179 8.7343051699935614 #
point $-1 69.556566057313745 0.76063444599419583 4.7142159083616662 #
coedge $-1 $207 $350 $351 $352 reversed $208 $-1 #
face $-1 $-1 $208 $14 $-1 $353 reversed single #
coedge $-1 $354 $210 $355 $356 forward $117 $-1 #
coedge $-1 $351 $357 $210 $289 reversed $358 $-1 #
edge $-1 $290 -69.556566057313759 $359 69.556566057313759 $288 $360 forward 7 unknown #
vertex $-1 $211 $361 #
straight-curve $-1 69.556566057313759 0 8.7343051699935632 0 1 0 I I #
face $-1 $362 $363 $15 $-1 $364 reversed single #
loop $-1 $-1 $365 $214 #
plane-surface $-1 0 0 8.7343051699935632 0 0 1 1 0 0 forward_v I I I I #
coedge $-1 $366 $367 $365 $368 reversed $215 $-1 #
coedge $-1 $369 $297 $302 $370 reversed $217 $-1 #
coedge $-1 $296 $371 $218 $298 reversed $217 $-1 #
edge $-1 $303 132.10432046365349 $372 139.11313211462752 $218 $373 forward 7 unknown #
coedge $-1 $374 $375 $219 $300 forward $376 $-1 #
edge $-1 $304 90.496213501874337 $372 94.516302763506232 $299 $377 forward 7 unknown #
coedge $-1 $378 $220 $375 $379 forward $293 $-1 #
coedge $-1 $220 $365 $296 $370 forward $293 $-1 #
vertex $-1 $370 $380 #
vertex $-1 $379 $381 #
straight-curve $-1 17.696887907261868 0.76063444599419583 8.7343051699935614 1 0 0 I I #
vertex $-1 $222 $382 #
point $-1 65.364322355654636 -3.067247192968761 3.0933697921611509 #
straight-curve $-1 -69.556566057313759 29.206455440313814 0 0 0 -1 I I #
point $-1 -69.556566057313759 -29.206455440313814 -8.7343051699935632 #
straight-curve $-1 -69.556566057313759 0 -8.7343051699935632 0 1 0 I I #
point $-1 -69.556566057313759 29.206455440313814 -8.7343051699935632 #
face $-1 $-1 $255 $13 $-1 $383 reversed single #
loop $-1 $-1 $321 $242 #
plane-surface $-1 0 29.206455440313814 0 0 -1 0 0 0 -1 forward_v I I I I #
coedge $-1 $251 $244 $253 $326 reversed $167 $-1 #
coedge $-1 $322 $321 $245 $317 reversed $313 $-1 #
edge $-1 $332 -69.556566057313759 $318 69.556566057313759 $316 $384 forward 7 unknown #
vertex $-1 $247 $385 #
vertex $-1 $326 $386 #
straight-curve $-1 69.556566057313759 0 -8.7343051699935632 0 -1 0 I I #
coedge $-1 $316 $249 $254 $327 forward $313 $-1 #
coedge $-1 $249 $316 $262 $330 reversed $313 $-1 #
vertex $-1 $250 $387 #
straight-curve $-1 0 29.206455440313814 8.7343051699935632 -1 0 0 I I #
straight-curve $-1 0 -29.206455440313814 8.7343051699935632 1 0 0 I I #
edge $-1 $256 -8.7343051699935632 $319 8.7343051699935632 $253 $388 forward 7 unknown #
edge $-1 $257 -8.7343051699935632 $318 8.7343051699935632 $254 $389 forward 7 unknown #
point $-1 69.556566057313759 -29.206455440313814 8.7343051699935632 #
point $-1 69.556566057313759 29.206455440313814 8.7343051699935632 #
edge $-1 $323 -8.7343051699935632 $332 8.7343051699935632 $322 $390 forward 7 unknown #
straight-curve $-1 -69.556566057313759 0 8.7343051699935632 0 -1 0 I I #
vertex $-1 $317 $391 #
straight-curve $-1 -69.556566057313759 0 -8.7343051699935632 0 1 0 I I #
straight-curve $-1 -72.537934375798073 -29.206455440313814 -8.7343051699935632 -1 0 0 I I #
face $-1 $392 $393 $14 $-1 $394 reversed single #
loop $-1 $-1 $395 $271 #
plane-surface $-1 0 0 -8.7343051699935632 0 0 1 1 0 0 forward_v I I I I #
coedge $-1 $396 $397 $398 $399 reversed $272 $-1 #
coedge $-1 $400 $274 $401 $402 reversed $194 $-1 #
coedge $-1 $274 $400 $403 $404 reversed $194 $-1 #
coedge $-1 $397 $396 $274 $342 reversed $272 $-1 #
edge $-1 $405 -8.7343051699935632 $406 8.7343051699935632 $341 $407 forward 7 unknown #
coedge $-1 $275 $403 $408 $409 forward $117 $-1 #
coedge $-1 $410 $276 $275 $345 reversed $208 $-1 #
edge $-1 $411 -29.206455440313814 $278 -6.8951288319317179 $344 $291 forward 7 unknown #
straight-curve $-1 69.556566057313759 -6.8951288319317179 99.230518671867898 0 0 1 I I #
point $-1 69.556566057313759 -6.8951288319317179 8.7343051699935632 #
straight-curve $-1 69.556566057313759 -1.5336235964843805 4.714215908361659 0 -1 0 I I #
point $-1 69.556566057313745 -6.8951288319317179 4.7142159083616662 #
coedge $-1 $285 $410 $395 $412 reversed $208 $-1 #
coedge $-1 $413 $288 $285 $352 forward $358 $-1 #
edge $-1 $290 -8.7343051699935632 $414 8.7343051699935632 $285 $415 forward 7 unknown #
plane-surface $-1 69.556566057313759 0 0 -1 0 0 0 0 1 forward_v I I I I #
coedge $-1 $403 $287 $397 $416 forward $117 $-1 #
coedge $-1 $417 $398 $287 $356 reversed $418 $-1 #
edge $-1 $359 -29.206455440313814 $419 24.470626519960785 $355 $420 forward 7 unknown #
coedge $-1 $288 $413 $417 $421 reversed $358 $-1 #
loop $-1 $-1 $351 $422 #
vertex $-1 $289 $423 #
straight-curve $-1 0 29.206455440313814 8.7343051699935632 -1 0 0 I I #
point $-1 69.556566057313759 29.206455440313814 8.7343051699935632 #
face $-1 $424 $425 $15 $-1 $426 reversed single #
loop $-1 $-1 $427 $292 #
plane-surface $-1 -75.519302694282388 -26.838540980137299 0 1 0 0 0 0 -1 forward_v I I I I #
coedge $-1 $302 $428 $295 $368 forward $293 $-1 #
coedge $-1 $367 $295 $429 $430 reversed $215 $-1 #
coedge $-1 $295 $366 $369 $431 forward $215 $-1 #
edge $-1 $432 -51.859678150051892 $433 -46.118395794398126 $365 $434 forward 7 unknown #
coedge $-1 $371 $296 $367 $431 reversed $217 $-1 #
edge $-1 $433 -5.3615052354473374 $303 2.2942580424785763 $302 $435 forward 7 unknown #
coedge $-1 $297 $369 $374 $436 reversed $217 $-1 #
vertex $-1 $436 $437 #
straight-curve $-1 -44.398239781768325 0.76063444599419583 84.506231504653726 0.81915203911291934 0 -0.57357644374324357 I I #
coedge $-1 $429 $299 $371 $436 forward $376 $-1 #
coedge $-1 $299 $438 $301 $379 reversed $376 $-1 #
loop $-1 $-1 $429 $439 #
straight-curve $-1 69.556566057313759 0.76063444599419583 99.230518671867898 0 0 -1 I I #
coedge $-1 $440 $301 $441 $442 forward $293 $-1 #
edge $-1 $304 0.76063444599419583 $443 29.206455440313814 $375 $444 forward 7 unknown #
point $-1 63.815283701659993 0.76063444599419583 8.7343051699935614 #
point $-1 69.556566057313759 0.76063444599419583 8.7343051699935632 #
point $-1 63.971593872798472 -3.067247192968761 2.8477941967914755 #
plane-surface $-1 69.556566057313759 0 0 -1 0 0 0 0 1 forward_v I I I I #
straight-curve $-1 0 29.206455440313814 -8.7343051699935632 1 0 0 I I #
point $-1 69.556566057313759 29.206455440313814 -8.7343051699935632 #
point $-1 69.556566057313759 -29.206455440313814 -8.7343051699935632 #
point $-1 -69.556566057313759 29.206455440313814 8.7343051699935632 #
straight-curve $-1 69.556566057313759 -29.206455440313814 0 0 0 -1 I I #
straight-curve $-1 69.556566057313759 29.206455440313814 0 0 0 -1 I I #
straight-curve $-1 -69.556566057313759 29.206455440313814 0 0 0 -1 I I #
point $-1 -69.556566057313759 29.206455440313814 -8.7343051699935632 #
face $-1 $422 $418 $14 $-1 $445 reversed single #
loop $-1 $-1 $446 $335 #
plane-surface $-1 0 -29.206455440313814 0 0 1 0 0 0 1 forward_v I I I I #
coedge $-1 $447 $448 $350 $412 forward $336 $-1 #
coedge $-1 $341 $338 $449 $450 reversed $272 $-1 #
coedge $-1 $338 $341 $354 $416 reversed $272 $-1 #
coedge $-1 $355 $451 $338 $399 forward $418 $-1 #
edge $-1 $452 -8.7343051699935632 $419 8.7343051699935632 $398 $453 forward 7 unknown #
coedge $-1 $340 $339 $454 $455 reversed $194 $-1 #
coedge $-1 $449 $447 $339 $402 forward $336 $-1 #
edge $-1 $456 -2.3679144601765145 $406 2.3679144601765145 $339 $457 forward 7 unknown #
coedge $-1 $343 $354 $340 $404 forward $117 $-1 #
edge $-1 $405 -2.3679144601765145 $458 2.3679144601765145 $340 $459 forward 7 unknown #
vertex $-1 $416 $460 #
vertex $-1 $450 $461 #
straight-curve $-1 -75.519302694282388 -24.470626519960785 0 0 0 -1 I I #
coedge $-1 $454 $462 $343 $409 reversed $393 $-1 #
edge $-1 $458 -75.519302694282388 $411 69.556566057313759 $408 $463 forward 7 unknown #
coedge $-1 $350 $344 $462 $464 forward $208 $-1 #
vertex $-1 $345 $465 #
edge $-1 $414 -29.206455440313814 $466 29.206455440313814 $350 $467 forward 7 unknown #
coedge $-1 $357 $351 $448 $468 reversed $358 $-1 #
vertex $-1 $412 $469 #
straight-curve $-1 69.556566057313759 29.206455440313814 0 0 0 -1 I I #
edge $-1 $419 -2.9813683184843143 $405 2.9813683184843143 $397 $470 forward 7 unknown #
coedge $-1 $451 $355 $357 $421 forward $418 $-1 #
loop $-1 $-1 $398 $392 #
vertex $-1 $416 $471 #
straight-curve $-1 -69.556566057313759 0 8.7343051699935632 0 -1 0 I I #
edge $-1 $359 -8.7343051699935632 $472 8.7343051699935632 $357 $473 forward 7 unknown #
face $-1 $286 $358 $14 $-1 $474 reversed single #
point $-1 -69.556566057313759 29.206455440313814 8.7343051699935632 #
face $-1 $475 $476 $15 $-1 $477 reversed single #
loop $-1 $-1 $478 $362 #
plane-surface $-1 -72.537934375798073 -24.470626519960785 0 0 -1 0 0 0 -1 forward_v I I I I #
coedge $-1 $479 $480 $481 $482 forward $363 $-1 #
coedge $-1 $365 $483 $484 $485 forward $293 $-1 #
coedge $-1 $484 $374 $366 $430 forward $376 $-1 #
edge $-1 $486 -94.516302763506232 $432 -90.496213501874337 $429 $487 forward 7 unknown #
edge $-1 $486 -139.11313211462752 $433 -132.10432046365349 $367 $488 forward 7 unknown #
vertex $-1 $430 $489 #
vertex $-1 $370 $490 #
straight-curve $-1 17.696887907261868 -6.8951288319317179 8.7343051699935614 -1 0 0 I I #
straight-curve $-1 63.815283701659979 -1.5336235964843805 8.7343051699935685 0 1 0 I I #
edge $-1 $372 -2.2942580424785763 $486 5.3615052354473374 $374 $491 forward 7 unknown #
point $-1 69.556566057313745 0.76063444599419583 4.7142159083616662 #
coedge $-1 $375 $492 $493 $494 reversed $376 $-1 #
face $-1 $-1 $376 $15 $-1 $495 reversed single #
coedge $-1 $496 $378 $497 $498 forward $293 $-1 #
coedge $-1 $493 $499 $378 $442 reversed $500 $-1 #
edge $-1 $443 -69.556566057313759 $501 69.556566057313759 $441 $502 forward 7 unknown #
vertex $-1 $379 $503 #
straight-curve $-1 69.556566057313759 0 8.7343051699935632 0 1 0 I I #
plane-surface $-1 -69.556566057313759 0 0 1 0 0 0 0 -1 forward_v I I I I #
coedge $-1 $462 $454 $447 $504 reversed $393 $-1 #
coedge $-1 $401 $395 $446 $504 forward $336 $-1 #
coedge $-1 $395 $505 $413 $468 forward $336 $-1 #
coedge $-1 $505 $401 $396 $450 forward $336 $-1 #
edge $-1 $406 -2.9813683184843143 $452 2.9813683184843143 $396 $506 forward 7 unknown #
coedge $-1 $398 $417 $505 $507 reversed $418 $-1 #
vertex $-1 $507 $508 #
straight-curve $-1 -69.556566057313759 -24.470626519960785 0 0 0 1 I I #
coedge $-1 $446 $408 $400 $455 forward $393 $-1 #
edge $-1 $458 -8.7343051699935632 $456 8.7343051699935632 $400 $509 forward 7 unknown #
vertex $-1 $402 $510 #
straight-curve $-1 -75.519302694282388 -26.838540980137299 -8.7343051699935632 0 1 0 I I #
vertex $-1 $404 $511 #
straight-curve $-1 -75.519302694282388 -26.838540980137299 8.7343051699935632 0 -1 0 I I #
point $-1 -75.519302694282388 -24.470626519960785 8.7343051699935632 #
point $-1 -75.519302694282388 -24.470626519960785 -8.7343051699935632 #
coedge $-1 $408 $446 $410 $464 reversed $393 $-1 #
straight-curve $-1 0 -29.206455440313814 8.7343051699935632 1 0 0 I I #
edge $-1 $411 -8.7343051699935632 $466 8.7343051699935632 $410 $512 forward 7 unknown #
point $-1 69.556566057313759 -29.206455440313814 8.7343051699935632 #
vertex $-1 $464 $513 #
straight-curve $-1 69.556566057313759 0 -8.7343051699935632 0 -1 0 I I #
edge $-1 $472 -69.556566057313759 $414 69.556566057313759 $413 $514 forward 7 unknown #
point $-1 69.556566057313759 29.206455440313814 -8.7343051699935632 #
straight-curve $-1 -72.537934375798073 -24.470626519960785 8.7343051699935632 -1 0 0 I I #
point $-1 -69.556566057313759 -24.470626519960785 8.7343051699935632 #
vertex $-1 $468 $515 #
straight-curve $-1 -69.556566057313759 29.206455440313814 0 0 0 -1 I I #
plane-surface $-1 0 29.206455440313814 0 0 -1 0 0 0 -1 forward_v I I I I #
face $-1 $516 $517 $15 $-1 $518 reversed single #
loop $-1 $-1 $519 $424 #
plane-surface $-1 0 0 -8.7343051699935632 0 0 1 1 0 0 forward_v I I I I #
coedge $-1 $520 $521 $522 $523 reversed $425 $-1 #
coedge $-1 $524 $427 $525 $526 reversed $363 $-1 #
coedge $-1 $427 $524 $527 $528 reversed $363 $-1 #
coedge $-1 $521 $520 $427 $482 reversed $425 $-1 #
edge $-1 $529 -8.7343051699935632 $530 8.7343051699935632 $481 $531 forward 7 unknown #
coedge $-1 $428 $527 $532 $533 forward $293 $-1 #
coedge $-1 $534 $429 $428 $485 reversed $376 $-1 #
edge $-1 $535 -29.206455440313814 $432 -6.8951288319317179 $484 $444 forward 7 unknown #
vertex $-1 $436 $536 #
straight-curve $-1 69.556566057313759 -6.8951288319317179 99.230518671867898 0 0 1 I I #
straight-curve $-1 -44.398239781768325 -6.8951288319317179 84.506231504653726 -0.81915203911291934 0 0.57357644374324357 I I #
point $-1 69.556566057313759 -6.8951288319317179 8.7343051699935632 #
point $-1 63.815283701659993 -6.8951288319317179 8.7343051699935614 #
straight-curve $-1 69.556566057313759 -1.5336235964843805 4.714215908361659 0 -1 0 I I #
coedge $-1 $438 $534 $519 $537 reversed $376 $-1 #
coedge $-1 $538 $441 $438 $494 forward $500 $-1 #
edge $-1 $443 -8.7343051699935632 $539 8.7343051699935632 $438 $540 forward 7 unknown #
plane-surface $-1 69.556566057313759 0 0 -1 0 0 0 0 1 forward_v I I I I #
coedge $-1 $527 $440 $521 $541 forward $293 $-1 #
coedge $-1 $542 $522 $440 $498 reversed $543 $-1 #
edge $-1 $501 -29.206455440313814 $544 24.470626519960785 $497 $545 forward 7 unknown #
coedge $-1 $441 $538 $542 $546 reversed $500 $-1 #
loop $-1 $-1 $493 $547 #
vertex $-1 $442 $548 #
straight-curve $-1 0 29.206455440313814 8.7343051699935632 -1 0 0 I I #
point $-1 69.556566057313759 29.206455440313814 8.7343051699935632 #
edge $-1 $466 -142.09450043311182 $456 2.9813683184843143 $446 $549 forward 7 unknown #
coedge $-1 $448 $449 $451 $507 forward $336 $-1 #
straight-curve $-1 -72.537934375798073 -24.470626519960785 -8.7343051699935632 1 0 0 I I #
edge $-1 $452 -24.470626519960785 $472 29.206455440313814 $451 $550 forward 7 unknown #
point $-1 -69.556566057313759 -24.470626519960785 -8.7343051699935632 #
straight-curve $-1 -75.519302694282388 -29.206455440313814 0 0 0 -1 I I #
point $-1 -75.519302694282388 -29.206455440313814 -8.7343051699935632 #
point $-1 -75.519302694282388 -29.206455440313814 8.7343051699935632 #
straight-curve $-1 69.556566057313759 -29.206455440313814 0 0 0 -1 I I #
point $-1 69.556566057313759 -29.206455440313814 -8.7343051699935632 #
straight-curve $-1 0 29.206455440313814 -8.7343051699935632 1 0 0 I I #
point $-1 -69.556566057313759 29.206455440313814 -8.7343051699935632 #
face $-1 $547 $543 $15 $-1 $551 reversed single #
loop $-1 $-1 $552 $475 #
plane-surface $-1 0 -29.206455440313814 0 0 1 0 0 0 1 forward_v I I I I #
coedge $-1 $553 $554 $492 $537 forward $476 $-1 #
coedge $-1 $481 $478 $555 $556 reversed $425 $-1 #
coedge $-1 $478 $481 $496 $541 reversed $425 $-1 #
coedge $-1 $497 $557 $478 $523 forward $543 $-1 #
edge $-1 $558 -8.7343051699935632 $544 8.7343051699935632 $522 $559 forward 7 unknown #
coedge $-1 $480 $479 $560 $561 reversed $363 $-1 #
coedge $-1 $555 $553 $479 $526 forward $476 $-1 #
edge $-1 $562 -2.3679144601765145 $530 2.3679144601765145 $479 $563 forward 7 unknown #
coedge $-1 $483 $496 $480 $528 forward $293 $-1 #
edge $-1 $529 -2.3679144601765145 $564 2.3679144601765145 $480 $565 forward 7 unknown #
vertex $-1 $541 $566 #
vertex $-1 $556 $567 #
straight-curve $-1 -75.519302694282388 -24.470626519960785 0 0 0 -1 I I #
coedge $-1 $560 $568 $483 $533 reversed $517 $-1 #
edge $-1 $564 -75.519302694282388 $535 69.556566057313759 $532 $569 forward 7 unknown #
coedge $-1 $492 $484 $568 $570 forward $376 $-1 #
vertex $-1 $485 $571 #
point $-1 69.556566057313745 -6.8951288319317179 4.7142159083616662 #
edge $-1 $539 -29.206455440313814 $572 29.206455440313814 $492 $573 forward 7 unknown #
coedge $-1 $499 $493 $554 $574 reversed $500 $-1 #
vertex $-1 $537 $575 #
straight-curve $-1 69.556566057313759 29.206455440313814 0 0 0 -1 I I #
edge $-1 $544 -2.9813683184843143 $529 2.9813683184843143 $521 $576 forward 7 unknown #
coedge $-1 $557 $497 $499 $546 forward $543 $-1 #
loop $-1 $-1 $522 $516 #
vertex $-1 $541 $577 #
straight-curve $-1 -69.556566057313759 0 8.7343051699935632 0 -1 0 I I #
edge $-1 $501 -8.7343051699935632 $578 8.7343051699935632 $499 $579 forward 7 unknown #
face $-1 $439 $500 $15 $-1 $580 reversed single #
point $-1 -69.556566057313759 29.206455440313814 8.7343051699935632 #
straight-curve $-1 -72.537934375798073 -29.206455440313814 -8.7343051699935632 -1 0 0 I I #
straight-curve $-1 -69.556566057313759 0 -8.7343051699935632 0 1 0 I I #
plane-surface $-1 -69.556566057313759 0 0 1 0 0 0 0 -1 forward_v I I I I #
coedge $-1 $568 $560 $553 $581 reversed $517 $-1 #
coedge $-1 $525 $519 $552 $581 forward $476 $-1 #
coedge $-1 $519 $582 $538 $574 forward $476 $-1 #
coedge $-1 $582 $525 $520 $556 forward $476 $-1 #
edge $-1 $530 -2.9813683184843143 $558 2.9813683184843143 $520 $583 forward 7 unknown #
coedge $-1 $522 $542 $582 $584 reversed $543 $-1 #
vertex $-1 $584 $585 #
straight-curve $-1 -69.556566057313759 -24.470626519960785 0 0 0 1 I I #
coedge $-1 $552 $532 $524 $561 forward $517 $-1 #
edge $-1 $564 -8.7343051699935632 $562 8.7343051699935632 $524 $586 forward 7 unknown #
vertex $-1 $526 $587 #
straight-curve $-1 -75.519302694282388 -26.838540980137299 -8.7343051699935632 0 1 0 I I #
vertex $-1 $528 $588 #
straight-curve $-1 -75.519302694282388 -26.838540980137299 8.7343051699935632 0 -1 0 I I #
point $-1 -75.519302694282388 -24.470626519960785 8.7343051699935632 #
point $-1 -75.519302694282388 -24.470626519960785 -8.7343051699935632 #
coedge $-1 $532 $552 $534 $570 reversed $517 $-1 #
straight-curve $-1 0 -29.206455440313814 8.7343051699935632 1 0 0 I I #
edge $-1 $535 -8.7343051699935632 $572 8.7343051699935632 $534 $589 forward 7 unknown #
point $-1 69.556566057313759 -29.206455440313814 8.7343051699935632 #
vertex $-1 $570 $590 #
straight-curve $-1 69.556566057313759 0 -8.7343051699935632 0 -1 0 I I #
edge $-1 $578 -69.556566057313759 $539 69.556566057313759 $538 $591 forward 7 unknown #
point $-1 69.556566057313759 29.206455440313814 -8.7343051699935632 #
straight-curve $-1 -72.537934375798073 -24.470626519960785 8.7343051699935632 -1 0 0 I I #
point $-1 -69.556566057313759 -24.470626519960785 8.7343051699935632 #
vertex $-1 $574 $592 #
straight-curve $-1 -69.556566057313759 29.206455440313814 0 0 0 -1 I I #
plane-surface $-1 0 29.206455440313814 0 0 -1 0 0 0 -1 forward_v I I I I #
edge $-1 $572 -142.09450043311182 $562 2.9813683184843143 $552 $593 forward 7 unknown #
coedge $-1 $554 $555 $557 $584 forward $476 $-1 #
straight-curve $-1 -72.537934375798073 -24.470626519960785 -8.7343051699935632 1 0 0 I I #
edge $-1 $558 -24.470626519960785 $578 29.206455440313814 $557 $594 forward 7 unknown #
point $-1 -69.556566057313759 -24.470626519960785 -8.7343051699935632 #
straight-curve $-1 -75.519302694282388 -29.206455440313814 0 0 0 -1 I I #
point $-1 -75.519302694282388 -29.206455440313814 -8.7343051699935632 #
point $-1 -75.519302694282388 -29.206455440313814 8.7343051699935632 #
straight-curve $-1 69.556566057313759 -29.206455440313814 0 0 0 -1 I I #
point $-1 69.556566057313759 -29.206455440313814 -8.7343051699935632 #
straight-curve $-1 0 29.206455440313814 -8.7343051699935632 1 0 0 I I #
point $-1 -69.556566057313759 29.206455440313814 -8.7343051699935632 #
straight-curve $-1 -72.537934375798073 -29.206455440313814 -8.7343051699935632 -1 0 0 I I #
straight-curve $-1 -69.556566057313759 0 -8.7343051699935632 0 1 0 I I #
End-of-ACIS-data 