500 0 7 0           
7 Unknown 11 ACIS 5.0 NT 24 Fri Mar 26 20:13:36 1999 
-1 9.9999999999999995e-007 1e-010 
body $-1 $7 $-1 $8 #
body $-1 $9 $-1 $10 #
body $-1 $11 $-1 $12 #
body $-1 $13 $-1 $14 #
body $-1 $15 $-1 $16 #
body $-1 $17 $-1 $18 #
body $-1 $19 $-1 $20 #
lump $-1 $-1 $21 $0 #
transform $-1 1 0 0 0 1 0 0 0 1 70.135196996978664 42.126281095511828 13.344724422232831 1 rotate no_reflect no_shear #
lump $-1 $-1 $22 $1 #
transform $-1 1 0 0 0 1 0 0 0 1 70.135196996978664 42.126281095511828 13.344724422232831 1 rotate no_reflect no_shear #
lump $-1 $-1 $23 $2 #
transform $-1 1 0 0 0 1 0 0 0 1 70.135196996978664 42.126281095511828 13.344724422232831 1 rotate no_reflect no_shear #
lump $-1 $-1 $24 $3 #
transform $-1 1 0 0 0 1 0 0 0 1 70.135196996978664 42.126281095511828 13.344724422232831 1 rotate no_reflect no_shear #
lump $-1 $-1 $25 $4 #
transform $-1 1 0 0 0 1 0 0 0 1 70.135196996978664 42.126281095511828 13.344724422232831 1 rotate no_reflect no_shear #
lump $-1 $-1 $26 $5 #
transform $-1 1 0 0 0 1 0 0 0 1 70.135196996978664 42.126281095511828 13.344724422232831 1 rotate no_reflect no_shear #
lump $-1 $-1 $27 $6 #
transform $-1 1 0 0 0 1 0 0 0 1 70.135196996978664 42.126281095511828 13.344724422232831 1 rotate no_reflect no_shear #
shell $-1 $-1 $-1 $28 $-1 $7 #
shell $-1 $-1 $-1 $29 $-1 $9 #
shell $-1 $-1 $-1 $30 $-1 $11 #
shell $-1 $-1 $-1 $31 $-1 $13 #
shell $-1 $-1 $-1 $32 $-1 $15 #
shell $-1 $-1 $-1 $33 $-1 $17 #
shell $-1 $-1 $-1 $34 $-1 $19 #
face $-1 $35 $36 $21 $-1 $37 forward single #
face $-1 $38 $39 $22 $-1 $40 forward single #
face $-1 $41 $42 $23 $-1 $43 reversed single #
face $-1 $44 $45 $24 $-1 $46 forward single #
face $-1 $47 $48 $25 $-1 $49 reversed single #
face $-1 $50 $51 $26 $-1 $52 forward single #
face $-1 $53 $54 $27 $-1 $55 forward single #
face $-1 $56 $57 $21 $-1 $58 reversed single #
loop $-1 $-1 $59 $28 #
plane-surface $-1 0 0 13.344724422232831 0 0 1 1 0 0 forward_v I I I I #
face $-1 $60 $61 $22 $-1 $62 forward single #
loop $-1 $-1 $63 $29 #
plane-surface $-1 -70.135196996978664 0 0 1 0 0 0 0 -1 forward_v I I I I #
face $-1 $64 $65 $23 $-1 $66 reversed single #
loop $-1 $-1 $67 $30 #
plane-surface $-1 32.645442257515917 84.501612620426442 162.09072813860331 1 0 0 0 -0.71933980857756763 -0.69465836192734942 forward_v I I I I #
face $-1 $68 $69 $24 $-1 $70 forward single #
loop $-1 $71 $72 $31 #
cone-surface $-1 51.390319627247294 36.178365715164716 7.2872616707756954 0 -0.71933980857756763 -0.69465836192734942 1.5 0 0 1 I I 0 1 1.5 forward I I I I #
face $-1 $73 $74 $25 $-1 $75 reversed single #
loop $-1 $-1 $76 $32 #
plane-surface $-1 -34.899509296894266 -120.56449100341486 122.52808402529776 -1 0 0 0 -0.55919291073839883 0.82903756765294845 forward_v I I I I #
face $-1 $77 $78 $26 $-1 $79 forward single #
loop $-1 $80 $81 $33 #
cone-surface $-1 -44.310275268179325 -35.308978950441187 7.4941460696221931 0 0.55919291073839883 -0.82903756765294845 1.5 0 0 1 I I 0 1 1.5 forward I I I I #
face $-1 $82 $83 $27 $-1 $84 forward single #
loop $-1 $85 $86 $34 #
cone-surface $-1 -38.663815685408288 -35.308978950441187 7.4941460696221931 0 0.55919291073839883 -0.82903756765294845 1.5 0 0 1 I I 0 1 1.5 forward I I I I #
face $-1 $87 $88 $21 $-1 $89 reversed single #
loop $-1 $-1 $90 $35 #
plane-surface $-1 0 0 -13.344724422232831 0 0 1 1 0 0 forward_v I I I I #
coedge $-1 $91 $92 $93 $94 forward $36 $-1 #
face $-1 $95 $96 $22 $-1 $97 reversed single #
loop $-1 $-1 $98 $38 #
plane-surface $-1 0 0 13.344724422232831 0 0 1 1 0 0 forward_v I I I I #
coedge $-1 $99 $100 $101 $102 forward $39 $-1 #
face $-1 $103 $104 $23 $-1 $105 forward single #
loop $-1 $-1 $106 $41 #
plane-surface $-1 51.390319627247294 -16.400465744286819 64.650726019857004 0 0.71933980857756763 0.69465836192734942 1 0 0 forward_v I I I I #
coedge $-1 $107 $108 $109 $110 reversed $42 $-1 #
face $-1 $-1 $111 $24 $-1 $112 forward single #
loop $-1 $113 $114 $44 #
cone-surface $-1 51.390319627247294 34.181504574742476 5.3589153283912321 0 -0.71933980857756763 -0.69465836192734942 0.75 0 0 1 I I -0.70710678118654757 0.70710678118654757 0.75 forward I I I I #
loop $-1 $-1 $115 $31 #
coedge $-1 $72 $72 $116 $117 reversed $45 $-1 #
face $-1 $118 $119 $25 $-1 $120 reversed single #
loop $-1 $-1 $121 $47 #
plane-surface $-1 -41.487045476793803 -42.126281095511843 6.2386577748266205 0 -0.55919291073839883 0.82903756765294845 1 0 0 forward_v I I I I #
coedge $-1 $122 $123 $124 $125 reversed $48 $-1 #
face $-1 $-1 $126 $26 $-1 $127 forward single #
loop $-1 $128 $129 $50 #
cone-surface $-1 -44.310275268179325 -33.339870548255703 4.5748228649749603 0 0.55919291073839883 -0.82903756765294845 0.75 0 0 1 I I -0.70710678118654757 0.70710678118654757 0.75 forward I I I I #
loop $-1 $-1 $130 $33 #
coedge $-1 $81 $81 $131 $132 reversed $51 $-1 #
face $-1 $-1 $133 $27 $-1 $134 forward single #
loop $-1 $135 $136 $53 #
cone-surface $-1 -38.663815685408288 -33.339870548255703 4.5748228649749603 0 0.55919291073839883 -0.82903756765294845 0.75 0 0 1 I I -0.70710678118654757 0.70710678118654757 0.75 forward I I I I #
loop $-1 $-1 $137 $34 #
coedge $-1 $86 $86 $138 $139 reversed $54 $-1 #
face $-1 $140 $141 $21 $-1 $142 reversed single #
loop $-1 $-1 $143 $56 #
plane-surface $-1 0 -42.126281095511828 0 0 1 0 0 0 1 forward_v I I I I #
coedge $-1 $144 $145 $146 $147 forward $57 $-1 #
coedge $-1 $148 $59 $149 $150 forward $36 $-1 #
coedge $-1 $59 $148 $151 $152 forward $36 $-1 #
coedge $-1 $153 $154 $59 $94 reversed $155 $-1 #
edge $-1 $156 -42.126281095511828 $157 42.126281095511828 $93 $158 forward 7 unknown #
face $-1 $159 $160 $22 $-1 $161 reversed single #
loop $-1 $-1 $162 $60 #
plane-surface $-1 -79.731620590010891 -39.653921143424398 0 1 0 0 0 0 -1 forward_v I I I I #
coedge $-1 $163 $164 $99 $165 forward $61 $-1 #
coedge $-1 $166 $63 $98 $165 reversed $39 $-1 #
coedge $-1 $63 $166 $167 $168 reversed $39 $-1 #
coedge $-1 $169 $170 $63 $102 reversed $160 $-1 #
edge $-1 $171 -13.344724422232831 $172 13.344724422232831 $101 $173 forward 7 unknown #
face $-1 $174 $175 $23 $-1 $176 reversed single #
loop $-1 $-1 $109 $64 #
plane-surface $-1 0 0 13.344724422232831 0 0 1 1 0 0 forward_v I I I I #
coedge $-1 $177 $178 $179 $180 reversed $65 $-1 #
coedge $-1 $108 $67 $181 $182 reversed $42 $-1 #
coedge $-1 $67 $107 $177 $183 reversed $42 $-1 #
coedge $-1 $179 $184 $67 $110 forward $104 $-1 #
edge $-1 $185 0.12452521470139288 $186 9.1056434074175314 $109 $187 forward 7 unknown #
loop $-1 $-1 $116 $68 #
plane-surface $-1 51.390319627247294 -16.400465744286819 64.650726019857004 0 0.71933980857756763 0.69465836192734942 1 0 0 forward_v I I I I #
loop $-1 $-1 $188 $44 #
coedge $-1 $114 $114 $115 $189 reversed $69 $-1 #
coedge $-1 $115 $115 $114 $189 forward $71 $-1 #
coedge $-1 $116 $116 $72 $117 forward $111 $-1 #
edge $-1 $190 5.0112500670582684e-016 $190 6.2831853071796013 $116 $191 forward 7 unknown #
face $-1 $192 $193 $25 $-1 $194 reversed single #
loop $-1 $-1 $195 $73 #
plane-surface $-1 -48.07458165669334 -120.56449100341486 122.52808402529776 1 0 0 0 0.55919291073839883 -0.82903756765294845 forward_v I I I I #
coedge $-1 $196 $197 $198 $199 reversed $74 $-1 #
coedge $-1 $123 $76 $200 $201 reversed $48 $-1 #
coedge $-1 $76 $122 $196 $202 reversed $48 $-1 #
coedge $-1 $198 $203 $76 $125 forward $204 $-1 #
edge $-1 $205 18.155964406195601 $206 28.691141258073458 $124 $207 forward 7 unknown #
loop $-1 $-1 $131 $77 #
plane-surface $-1 -41.487045476793803 -42.126281095511843 6.2386577748266205 0 -0.55919291073839883 0.82903756765294845 1 0 0 forward_v I I I I #
loop $-1 $-1 $208 $50 #
coedge $-1 $129 $129 $130 $209 reversed $78 $-1 #
coedge $-1 $130 $130 $129 $209 forward $80 $-1 #
coedge $-1 $131 $131 $81 $132 forward $126 $-1 #
edge $-1 $210 2.5102883463738103e-015 $210 6.2831853071796031 $131 $211 forward 7 unknown #
loop $-1 $-1 $138 $82 #
plane-surface $-1 -41.487045476793803 -42.126281095511843 6.2386577748266205 0 -0.55919291073839883 0.82903756765294845 1 0 0 forward_v I I I I #
loop $-1 $-1 $212 $53 #
coedge $-1 $136 $136 $137 $213 reversed $83 $-1 #
coedge $-1 $137 $137 $136 $213 forward $85 $-1 #
coedge $-1 $138 $138 $86 $139 forward $133 $-1 #
edge $-1 $214 2.5102883463738103e-015 $214 6.2831853071796031 $138 $215 forward 7 unknown #
face $-1 $216 $217 $21 $-1 $218 reversed single #
loop $-1 $-1 $219 $87 #
plane-surface $-1 -70.135196996978664 0 0 1 0 0 0 0 -1 forward_v I I I I #
coedge $-1 $220 $151 $221 $222 forward $88 $-1 #
coedge $-1 $223 $90 $220 $224 forward $57 $-1 #
coedge $-1 $90 $223 $225 $226 forward $57 $-1 #
coedge $-1 $154 $153 $90 $147 reversed $155 $-1 #
edge $-1 $227 -42.126281095511828 $228 42.126281095511828 $146 $229 forward 7 unknown #
coedge $-1 $92 $91 $219 $230 forward $36 $-1 #
coedge $-1 $231 $232 $91 $150 reversed $217 $-1 #
edge $-1 $157 -70.135196996978664 $233 70.135196996978664 $149 $234 forward 7 unknown #
coedge $-1 $143 $235 $92 $152 reversed $88 $-1 #
edge $-1 $236 -70.135196996978664 $156 70.135196996978664 $151 $237 forward 7 unknown #
coedge $-1 $146 $93 $235 $238 forward $155 $-1 #
coedge $-1 $93 $146 $231 $239 reversed $155 $-1 #
loop $-1 $-1 $153 $216 #
vertex $-1 $94 $240 #
vertex $-1 $94 $241 #
straight-curve $-1 70.135196996978664 0 13.344724422232831 0 1 0 I I #
face $-1 $242 $243 $22 $-1 $244 reversed single #
loop $-1 $-1 $101 $95 #
plane-surface $-1 -74.933408793494777 -37.181561191336968 0 0 -1 0 0 0 -1 forward_v I I I I #
coedge $-1 $245 $246 $247 $248 forward $96 $-1 #
coedge $-1 $249 $98 $170 $250 forward $61 $-1 #
coedge $-1 $98 $249 $251 $252 forward $61 $-1 #
edge $-1 $253 -42.126281095511828 $172 -37.181561191336968 $98 $254 forward 7 unknown #
coedge $-1 $100 $99 $255 $256 reversed $39 $-1 #
coedge $-1 $257 $258 $100 $168 forward $243 $-1 #
edge $-1 $171 37.181561191336968 $259 42.126281095511828 $167 $260 forward 7 unknown #
coedge $-1 $247 $101 $258 $261 reversed $160 $-1 #
coedge $-1 $101 $247 $163 $250 reversed $160 $-1 #
vertex $-1 $168 $262 #
vertex $-1 $250 $263 #
straight-curve $-1 -70.135196996978664 -37.181561191336968 0 0 0 1 I I #
face $-1 $-1 $264 $23 $-1 $265 reversed single #
loop $-1 $-1 $266 $103 #
plane-surface $-1 70.135196996978664 0 0 -1 0 0 0 0 1 forward_v I I I I #
coedge $-1 $267 $106 $108 $183 forward $65 $-1 #
coedge $-1 $106 $267 $266 $268 reversed $65 $-1 #
coedge $-1 $269 $109 $106 $180 forward $104 $-1 #
edge $-1 $186 6.9502824438922701 $270 44.440037183355017 $179 $271 forward 7 unknown #
coedge $-1 $272 $273 $107 $182 forward $264 $-1 #
edge $-1 $274 -77.000860008105235 $185 -67.700639647068826 $181 $275 forward 7 unknown #
edge $-1 $186 71.323734604758442 $274 84.252562191023685 $108 $276 forward 7 unknown #
coedge $-1 $109 $269 $272 $277 forward $104 $-1 #
vertex $-1 $182 $278 #
vertex $-1 $110 $279 #
straight-curve $-1 32.645442257515917 42.250806310213221 13.344724422232829 0 -1 0 I I #
coedge $-1 $188 $188 $-1 $280 reversed $113 $-1 #
edge $-1 $281 0 $281 6.2831853071796004 $114 $282 forward 7 unknown #
vertex $-1 $117 $283 #
ellipse-curve $-1 51.390319627247294 37.635721999153759 8.6946142417146266 0 0.71933980857756763 0.69465836192734942 1.5 0 0 1 I I #
face $-1 $-1 $204 $25 $-1 $284 forward single #
loop $-1 $-1 $285 $118 #
plane-surface $-1 0 -42.126281095511828 0 0 1 0 0 0 1 forward_v I I I I #
coedge $-1 $286 $287 $288 $289 reversed $119 $-1 #
coedge $-1 $290 $121 $123 $202 forward $74 $-1 #
coedge $-1 $121 $290 $286 $291 forward $74 $-1 #
coedge $-1 $288 $124 $121 $199 forward $204 $-1 #
edge $-1 $206 14.155986558497364 $292 27.331058918296439 $198 $293 forward 7 unknown #
coedge $-1 $294 $295 $122 $201 forward $193 $-1 #
edge $-1 $296 -55.025384237822252 $205 -47.91931759041605 $200 $297 forward 7 unknown #
edge $-1 $206 -12.707719484538613 $296 -1.7244626260799089e-014 $123 $298 forward 7 unknown #
coedge $-1 $124 $288 $294 $299 forward $204 $-1 #
loop $-1 $-1 $288 $192 #
vertex $-1 $201 $300 #
vertex $-1 $125 $301 #
straight-curve $-1 -34.899509296894266 -60.282245501707429 13.344724422232829 0 1 0 I I #
coedge $-1 $208 $208 $-1 $302 reversed $128 $-1 #
edge $-1 $303 0 $303 6.2831853071796004 $129 $304 forward 7 unknown #
vertex $-1 $132 $305 #
ellipse-curve $-1 -44.310275268179325 -36.858692669572889 9.7916910985297392 0 -0.55919291073839883 0.82903756765294845 1.5 0 0 1 I I #
coedge $-1 $212 $212 $-1 $306 reversed $135 $-1 #
edge $-1 $307 0 $307 6.2831853071796004 $136 $308 forward 7 unknown #
vertex $-1 $139 $309 #
ellipse-curve $-1 -38.663815685408288 -36.858692669572889 9.7916910985297392 0 -0.55919291073839883 0.82903756765294845 1.5 0 0 1 I I #
face $-1 $-1 $155 $21 $-1 $310 reversed single #
loop $-1 $-1 $231 $140 #
plane-surface $-1 0 42.126281095511828 0 0 -1 0 0 0 -1 forward_v I I I I #
coedge $-1 $311 $221 $148 $230 reversed $141 $-1 #
coedge $-1 $235 $143 $144 $224 reversed $88 $-1 #
coedge $-1 $219 $312 $143 $222 reversed $141 $-1 #
edge $-1 $236 -13.344724422232831 $313 13.344724422232831 $221 $314 forward 7 unknown #
coedge $-1 $145 $144 $312 $315 forward $57 $-1 #
edge $-1 $228 -70.135196996978664 $313 70.135196996978664 $220 $316 forward 7 unknown #
coedge $-1 $232 $231 $145 $226 reversed $217 $-1 #
edge $-1 $317 -70.135196996978664 $227 70.135196996978664 $225 $318 forward 7 unknown #
vertex $-1 $147 $319 #
vertex $-1 $238 $320 #
straight-curve $-1 70.135196996978664 0 -13.344724422232831 0 -1 0 I I #
edge $-1 $233 -42.126281095511828 $236 42.126281095511828 $219 $321 forward 7 unknown #
coedge $-1 $225 $149 $154 $239 forward $217 $-1 #
coedge $-1 $149 $225 $311 $322 reversed $217 $-1 #
vertex $-1 $150 $323 #
straight-curve $-1 0 42.126281095511828 13.344724422232831 -1 0 0 I I #
coedge $-1 $151 $220 $153 $238 reversed $88 $-1 #
vertex $-1 $230 $324 #
straight-curve $-1 0 -42.126281095511828 13.344724422232831 1 0 0 I I #
edge $-1 $156 -13.344724422232831 $228 13.344724422232831 $153 $325 forward 7 unknown #
edge $-1 $157 -13.344724422232831 $227 13.344724422232831 $154 $326 forward 7 unknown #
point $-1 70.135196996978664 -42.126281095511828 13.344724422232831 #
point $-1 70.135196996978664 42.126281095511828 13.344724422232831 #
face $-1 $-1 $327 $22 $-1 $328 reversed single #
loop $-1 $-1 $167 $159 #
plane-surface $-1 0 0 -13.344724422232831 0 0 1 1 0 0 forward_v I I I I #
coedge $-1 $329 $162 $330 $331 reversed $96 $-1 #
coedge $-1 $162 $329 $249 $332 reversed $96 $-1 #
coedge $-1 $170 $169 $162 $248 reversed $160 $-1 #
edge $-1 $333 -13.344724422232831 $334 13.344724422232831 $247 $335 forward 7 unknown #
coedge $-1 $164 $163 $246 $332 forward $61 $-1 #
edge $-1 $172 -4.7982117965161137 $333 4.7982117965161137 $170 $336 forward 7 unknown #
coedge $-1 $337 $255 $164 $252 reversed $327 $-1 #
edge $-1 $338 -79.731620590010891 $253 -70.135196996978664 $251 $339 forward 7 unknown #
vertex $-1 $256 $340 #
straight-curve $-1 -70.135196996978664 0 13.344724422232831 0 1 0 I I #
coedge $-1 $251 $341 $166 $256 forward $327 $-1 #
edge $-1 $259 -13.344724422232831 $253 13.344724422232831 $255 $342 forward 7 unknown #
coedge $-1 $330 $167 $341 $343 forward $243 $-1 #
coedge $-1 $167 $330 $169 $261 forward $243 $-1 #
vertex $-1 $343 $344 #
straight-curve $-1 -70.135196996978664 0 -13.344724422232831 0 -1 0 I I #
edge $-1 $334 -4.7982117965161137 $171 4.7982117965161137 $169 $345 forward 7 unknown #
point $-1 -70.135196996978664 -37.181561191336968 -13.344724422232831 #
point $-1 -70.135196996978664 -37.181561191336968 13.344724422232831 #
loop $-1 $-1 $181 $174 #
plane-surface $-1 0 42.126281095511828 0 0 -1 0 0 0 -1 forward_v I I I I #
coedge $-1 $346 $347 $178 $268 forward $175 $-1 #
coedge $-1 $178 $177 $273 $348 reversed $65 $-1 #
edge $-1 $270 42.37445383061015 $349 55.303281416875386 $266 $350 forward 7 unknown #
coedge $-1 $184 $179 $347 $351 forward $104 $-1 #
vertex $-1 $351 $352 #
straight-curve $-1 25.695159813623647 33.145162902795683 13.344724422232837 1 0 0 I I #
coedge $-1 $353 $181 $184 $277 reversed $264 $-1 #
coedge $-1 $181 $353 $267 $348 forward $264 $-1 #
vertex $-1 $182 $354 #
straight-curve $-1 32.645442257515917 42.126281095511828 81.045364069301655 0 0 1 I I #
straight-curve $-1 32.645442257515917 -16.400465744286819 64.650726019857004 0 0.69465836192734942 -0.71933980857756763 I I #
edge $-1 $355 -70.135196996978664 $185 -32.645442257515917 $272 $356 forward 7 unknown #
point $-1 32.645442257515917 42.126281095511828 13.344724422232831 #
point $-1 32.645442257515917 33.14516290279569 13.344724422232829 #
edge $-1 $357 1 $357 0 $188 $-1 forward 7 unknown #
vertex $-1 $189 $358 #
ellipse-curve $-1 51.390319627247294 34.721009431175652 5.8799090998367438 0 0.71933980857756763 0.69465836192734942 1.5 0 0 1 I I #
point $-1 52.890319627247294 37.63572199915378 8.6946142417146461 #
plane-surface $-1 0 0 13.344724422232831 0 0 1 1 0 0 forward_v I I I I #
coedge $-1 $295 $294 $287 $359 forward $193 $-1 #
coedge $-1 $287 $195 $197 $291 reversed $119 $-1 #
coedge $-1 $195 $286 $285 $359 reversed $119 $-1 #
coedge $-1 $203 $198 $195 $289 forward $204 $-1 #
edge $-1 $292 -28.691141258073458 $360 -18.155964406195601 $288 $361 forward 7 unknown #
coedge $-1 $197 $196 $295 $362 reversed $74 $-1 #
edge $-1 $363 1.7244626260799089e-014 $292 12.707719484538613 $286 $364 forward 7 unknown #
vertex $-1 $199 $365 #
straight-curve $-1 -20.743522738396901 -31.591104243633971 13.344724422232831 -1 0 0 I I #
coedge $-1 $285 $200 $203 $299 reversed $193 $-1 #
coedge $-1 $200 $285 $290 $362 forward $193 $-1 #
vertex $-1 $201 $366 #
straight-curve $-1 -34.899509296894266 -42.126281095511828 61.264042012648879 0 0 1 I I #
straight-curve $-1 -34.899509296894266 -42.126281095511843 6.2386577748266205 0 -0.82903756765294845 -0.55919291073839883 I I #
edge $-1 $360 -48.07458165669334 $205 -34.899509296894266 $294 $367 forward 7 unknown #
point $-1 -34.899509296894266 -42.126281095511828 13.344724422232831 #
point $-1 -34.899509296894266 -31.591104243633971 13.344724422232833 #
edge $-1 $368 1 $368 0 $208 $-1 forward 7 unknown #
vertex $-1 $209 $369 #
ellipse-curve $-1 -44.310275268179325 -33.759265231309506 5.1966010407146719 0 -0.55919291073839883 0.82903756765294845 1.5 0 0 1 I I #
point $-1 -42.810275268179325 -36.858692669572868 9.7916910985297143 #
edge $-1 $370 1 $370 0 $212 $-1 forward 7 unknown #
vertex $-1 $213 $371 #
ellipse-curve $-1 -38.663815685408288 -33.759265231309506 5.1966010407146719 0 -0.55919291073839883 0.82903756765294845 1.5 0 0 1 I I #
point $-1 -37.163815685408288 -36.858692669572868 9.7916910985297143 #
plane-surface $-1 70.135196996978664 0 0 -1 0 0 0 0 1 forward_v I I I I #
coedge $-1 $312 $219 $232 $322 forward $141 $-1 #
coedge $-1 $221 $311 $223 $315 reversed $141 $-1 #
vertex $-1 $315 $372 #
straight-curve $-1 -70.135196996978664 -42.126281095511828 0 0 0 -1 I I #
edge $-1 $313 -42.126281095511828 $317 42.126281095511828 $312 $373 forward 7 unknown #
straight-curve $-1 0 -42.126281095511828 -13.344724422232831 -1 0 0 I I #
vertex $-1 $226 $374 #
straight-curve $-1 0 42.126281095511828 -13.344724422232831 1 0 0 I I #
point $-1 70.135196996978664 42.126281095511828 -13.344724422232831 #
point $-1 70.135196996978664 -42.126281095511828 -13.344724422232831 #
straight-curve $-1 -70.135196996978664 0 13.344724422232831 0 -1 0 I I #
edge $-1 $233 -13.344724422232831 $317 13.344724422232831 $232 $375 forward 7 unknown #
point $-1 -70.135196996978664 42.126281095511828 13.344724422232831 #
point $-1 -70.135196996978664 -42.126281095511828 13.344724422232831 #
straight-curve $-1 70.135196996978664 -42.126281095511828 0 0 0 -1 I I #
straight-curve $-1 70.135196996978664 42.126281095511828 0 0 0 -1 I I #
loop $-1 $-1 $255 $242 #
plane-surface $-1 0 -42.126281095511828 0 0 1 0 0 0 1 forward_v I I I I #
coedge $-1 $246 $245 $337 $376 reversed $96 $-1 #
coedge $-1 $258 $257 $245 $331 forward $243 $-1 #
edge $-1 $377 -2.4723599520874302 $334 2.4723599520874302 $245 $378 forward 7 unknown #
edge $-1 $333 -2.4723599520874302 $338 2.4723599520874302 $246 $379 forward 7 unknown #
vertex $-1 $250 $380 #
vertex $-1 $261 $381 #
straight-curve $-1 -79.731620590010891 -37.181561191336968 0 0 0 -1 I I #
straight-curve $-1 -74.933408793494777 -37.181561191336968 13.344724422232831 -1 0 0 I I #
coedge $-1 $341 $251 $329 $376 forward $327 $-1 #
vertex $-1 $332 $382 #
straight-curve $-1 0 -42.126281095511828 13.344724422232831 1 0 0 I I #
point $-1 -70.135196996978664 -42.126281095511828 13.344724422232831 #
coedge $-1 $255 $337 $257 $343 reversed $327 $-1 #
straight-curve $-1 -70.135196996978664 -42.126281095511828 0 0 0 1 I I #
edge $-1 $259 -4.7982117965161137 $377 4.7982117965161137 $341 $383 forward 7 unknown #
point $-1 -70.135196996978664 -42.126281095511828 -13.344724422232831 #
straight-curve $-1 -74.933408793494777 -37.181561191336968 -13.344724422232831 1 0 0 I I #
coedge $-1 $347 $266 $353 $384 reversed $175 $-1 #
coedge $-1 $266 $346 $269 $351 reversed $175 $-1 #
edge $-1 $349 -44.440037183355017 $274 -6.9502824438922701 $273 $385 forward 7 unknown #
vertex $-1 $268 $386 #
straight-curve $-1 70.135196996978664 3.7093942172579499 43.826355929322908 0 0.69465836192734942 -0.71933980857756763 I I #
edge $-1 $270 33.14516290279569 $355 42.126281095511828 $347 $387 forward 7 unknown #
point $-1 70.135196996978664 33.14516290279569 13.344724422232829 #
coedge $-1 $273 $272 $346 $384 forward $264 $-1 #
point $-1 32.645442257515917 42.126281095511828 4.0445040611964131 #
vertex $-1 $351 $388 #
straight-curve $-1 0 42.126281095511828 13.344724422232831 -1 0 0 I I #
vertex $-1 $280 $389 #
point $-1 52.890319627247294 34.721009431175652 5.8799090998367438 #
edge $-1 $360 47.91931759041605 $363 55.025384237822252 $285 $390 forward 7 unknown #
vertex $-1 $299 $391 #
straight-curve $-1 -48.07458165669334 -60.282245501707429 13.344724422232829 0 -1 0 I I #
edge $-1 $363 -27.331058918296439 $296 -14.155986558497364 $295 $392 forward 7 unknown #
vertex $-1 $362 $393 #
straight-curve $-1 -48.07458165669334 -42.126281095511843 6.2386577748266205 0 0.82903756765294845 0.55919291073839883 I I #
point $-1 -48.07458165669334 -31.591104243633971 13.344724422232833 #
point $-1 -34.899509296894266 -42.126281095511828 6.2386577748266303 #
straight-curve $-1 0 -42.126281095511828 13.344724422232831 1 0 0 I I #
vertex $-1 $302 $394 #
point $-1 -42.810275268179325 -33.759265231309506 5.1966010407146719 #
vertex $-1 $306 $395 #
point $-1 -37.163815685408288 -33.759265231309506 5.1966010407146719 #
point $-1 -70.135196996978664 -42.126281095511828 -13.344724422232831 #
straight-curve $-1 -70.135196996978664 0 -13.344724422232831 0 1 0 I I #
point $-1 -70.135196996978664 42.126281095511828 -13.344724422232831 #
straight-curve $-1 -70.135196996978664 42.126281095511828 0 0 0 -1 I I #
edge $-1 $338 -13.344724422232831 $377 13.344724422232831 $329 $396 forward 7 unknown #
vertex $-1 $331 $397 #
straight-curve $-1 -79.731620590010891 -39.653921143424398 -13.344724422232831 0 1 0 I I #
straight-curve $-1 -79.731620590010891 -39.653921143424398 13.344724422232831 0 -1 0 I I #
point $-1 -79.731620590010891 -37.181561191336968 13.344724422232831 #
point $-1 -79.731620590010891 -37.181561191336968 -13.344724422232831 #
point $-1 -79.731620590010891 -42.126281095511828 13.344724422232831 #
straight-curve $-1 -74.933408793494777 -42.126281095511828 -13.344724422232831 -1 0 0 I I #
edge $-1 $355 -13.344724422232831 $349 -4.0445040611964131 $346 $398 forward 7 unknown #
straight-curve $-1 25.695159813623647 42.126281095511828 4.0445040611964167 -1 0 0 I I #
point $-1 70.135196996978664 42.126281095511828 4.0445040611964131 #
straight-curve $-1 70.135196996978664 0 13.344724422232831 0 1 0 I I #
point $-1 70.135196996978664 42.126281095511828 13.344724422232831 #
point $-1 51.390319627247294 33.6419997183093 4.8379215569457203 #
straight-curve $-1 -48.07458165669334 -42.126281095511828 61.264042012648879 0 0 -1 I I #
point $-1 -48.07458165669334 -42.126281095511828 13.344724422232831 #
straight-curve $-1 -20.743522738396901 -42.126281095511828 6.2386577748266285 1 0 0 I I #
point $-1 -48.07458165669334 -42.126281095511828 6.2386577748266303 #
point $-1 -44.310275268179325 -32.920475865201901 3.9530446892352487 #
point $-1 -38.663815685408288 -32.920475865201901 3.9530446892352487 #
straight-curve $-1 -79.731620590010891 -42.126281095511828 0 0 0 -1 I I #
point $-1 -79.731620590010891 -42.126281095511828 -13.344724422232831 #
straight-curve $-1 70.135196996978664 42.126281095511828 0 0 0 -1 I I #
End-of-ACIS-data 