500 0 9 0           
7 Unknown 11 ACIS 5.0 NT 24 Fri Mar 26 14:46:39 1999 
-1 9.9999999999999995e-007 1e-010 
body $-1 $9 $-1 $10 #
body $-1 $11 $-1 $12 #
body $-1 $13 $-1 $14 #
body $-1 $15 $-1 $16 #
body $-1 $17 $-1 $18 #
body $-1 $19 $-1 $20 #
body $-1 $21 $-1 $22 #
body $-1 $23 $-1 $24 #
body $-1 $25 $-1 $26 #
lump $-1 $-1 $27 $0 #
transform $-1 1 0 0 0 1 0 0 0 1 68.730124820703764 29.686916794713724 8.4990996355946518 1 rotate no_reflect no_shear #
lump $-1 $-1 $28 $1 #
transform $-1 1 0 0 0 1 0 0 0 1 68.730124820703764 29.686916794713724 8.4990996355946518 1 rotate no_reflect no_shear #
lump $-1 $-1 $29 $2 #
transform $-1 1 0 0 0 1 0 0 0 1 68.730124820703764 29.686916794713724 8.4990996355946518 1 rotate no_reflect no_shear #
lump $-1 $-1 $30 $3 #
transform $-1 1 0 0 0 1 0 0 0 1 68.730124820703764 29.686916794713724 8.4990996355946518 1 rotate no_reflect no_shear #
lump $-1 $-1 $31 $4 #
transform $-1 1 0 0 0 1 0 0 0 1 68.730124820703764 29.686916794713724 8.4990996355946518 1 rotate no_reflect no_shear #
lump $-1 $-1 $32 $5 #
transform $-1 1 0 0 0 1 0 0 0 1 68.730124820703764 29.686916794713724 8.4990996355946518 1 rotate no_reflect no_shear #
lump $-1 $-1 $33 $6 #
transform $-1 1 0 0 0 1 0 0 0 1 68.730124820703764 29.686916794713724 8.4990996355946518 1 rotate no_reflect no_shear #
lump $-1 $-1 $34 $7 #
transform $-1 1 0 0 0 1 0 0 0 1 68.730124820703764 29.686916794713724 8.4990996355946518 1 rotate no_reflect no_shear #
lump $-1 $-1 $35 $8 #
transform $-1 1 0 0 0 1 0 0 0 1 68.730124820703764 29.686916794713724 8.4990996355946518 1 rotate no_reflect no_shear #
shell $-1 $-1 $-1 $36 $-1 $9 #
shell $-1 $-1 $-1 $37 $-1 $11 #
shell $-1 $-1 $-1 $38 $-1 $13 #
shell $-1 $-1 $-1 $39 $-1 $15 #
shell $-1 $-1 $-1 $40 $-1 $17 #
shell $-1 $-1 $-1 $41 $-1 $19 #
shell $-1 $-1 $-1 $42 $-1 $21 #
shell $-1 $-1 $-1 $43 $-1 $23 #
shell $-1 $-1 $-1 $44 $-1 $25 #
face $-1 $45 $46 $27 $-1 $47 forward single #
face $-1 $48 $49 $28 $-1 $50 forward single #
face $-1 $51 $52 $29 $-1 $53 reversed single #
face $-1 $54 $55 $30 $-1 $56 reversed single #
face $-1 $57 $58 $31 $-1 $59 forward single #
face $-1 $60 $61 $32 $-1 $62 forward single #
face $-1 $63 $64 $33 $-1 $65 reversed single #
face $-1 $66 $67 $34 $-1 $68 forward single #
face $-1 $69 $70 $35 $-1 $71 forward single #
face $-1 $72 $73 $27 $-1 $74 reversed single #
loop $-1 $-1 $75 $36 #
plane-surface $-1 0 0 8.4990996355946518 0 0 1 1 0 0 forward_v I I I I #
face $-1 $76 $77 $28 $-1 $78 reversed single #
loop $-1 $-1 $79 $37 #
plane-surface $-1 0 -29.686916794713724 0 0 1 0 0 0 1 forward_v I I I I #
face $-1 $80 $81 $29 $-1 $82 reversed single #
loop $-1 $-1 $83 $38 #
plane-surface $-1 -66.389766347178352 22.485095117535806 0 0 1 0 0 0 1 forward_v I I I I #
face $-1 $84 $85 $30 $-1 $86 reversed single #
loop $-1 $-1 $87 $39 #
plane-surface $-1 -177.0502808662514 -19.574339597389002 87.453126370537049 0 1 0 -0.78801076186113728 0 0.61566146476048833 forward_v I I I I #
face $-1 $88 $89 $31 $-1 $90 forward single #
loop $-1 $91 $92 $40 #
cone-surface $-1 -65.62457821347401 -16.08476992841544 4.9673205645038125 0.78801076186113728 0 -0.61566146476048833 0.9234921971407325 0 1.182016142791706 1 I I 0 1 1.5 forward I I I I #
face $-1 $93 $94 $32 $-1 $95 forward single #
loop $-1 $96 $97 $41 #
cone-surface $-1 -65.62457821347401 -10.850415424955095 4.9673205645038125 0.78801076186113728 0 -0.61566146476048833 0.9234921971407325 0 1.182016142791706 1 I I 0 1 1.5 forward I I I I #
face $-1 $98 $99 $33 $-1 $100 reversed single #
loop $-1 $-1 $101 $42 #
plane-surface $-1 68.730127076218338 14.208813442105527 196.58775328971231 0 -1 0 -0.70710678939079041 0 -0.70710677298230451 forward_v I I I I #
face $-1 $102 $103 $34 $-1 $104 forward single #
loop $-1 $105 $106 $43 #
cone-surface $-1 64.163396991135969 9.1298043029190765 3.9323717655857426 -0.70710678939079041 0 -0.70710677298230451 0.70710677298230451 0 -0.70710678939079041 1 I I 0 1 1 forward I I I I #
face $-1 $107 $108 $35 $-1 $109 forward single #
loop $-1 $110 $111 $44 #
cone-surface $-1 64.163396991135969 12.17720978643095 3.9323717655857426 -0.70710678939079041 0 -0.70710677298230451 0.70710677298230451 0 -0.70710678939079041 1 I I 0 1 1 forward I I I I #
face $-1 $112 $113 $27 $-1 $114 reversed single #
loop $-1 $-1 $115 $45 #
plane-surface $-1 0 0 -8.4990996355946518 0 0 1 1 0 0 forward_v I I I I #
coedge $-1 $116 $117 $118 $119 forward $46 $-1 #
face $-1 $120 $121 $28 $-1 $122 reversed single #
loop $-1 $-1 $123 $48 #
plane-surface $-1 0 0 -8.4990996355946518 0 0 1 1 0 0 forward_v I I I I #
coedge $-1 $124 $125 $126 $127 forward $49 $-1 #
face $-1 $128 $129 $29 $-1 $130 reversed single #
loop $-1 $-1 $131 $51 #
plane-surface $-1 -64.049407873652939 26.086005956124765 0 -1 0 0 0 0 1 forward_v I I I I #
coedge $-1 $132 $133 $134 $135 reversed $52 $-1 #
face $-1 $136 $137 $30 $-1 $138 reversed single #
loop $-1 $-1 $139 $54 #
plane-surface $-1 -68.730124820703736 -13.467592676685268 2.8241477299657021 -0.78801076186113728 0 0.61566146476048833 0.61566146476048833 0 0.78801076186113728 forward_v I I I I #
coedge $-1 $140 $141 $142 $143 reversed $55 $-1 #
face $-1 $-1 $144 $31 $-1 $145 forward single #
loop $-1 $146 $147 $57 #
cone-surface $-1 -64.14490265107581 -16.08476992841544 3.8112713476570725 0.78801076186113728 0 -0.61566146476048833 0.46174609857036625 0 0.59100807139585299 1 I I -0.70710678118654757 0.70710678118654757 0.75 forward I I I I #
loop $-1 $-1 $148 $40 #
coedge $-1 $92 $92 $149 $150 reversed $58 $-1 #
face $-1 $-1 $151 $32 $-1 $152 forward single #
loop $-1 $153 $154 $60 #
cone-surface $-1 -64.14490265107581 -10.850415424955095 3.8112713476570725 0.78801076186113728 0 -0.61566146476048833 0.46174609857036625 0 0.59100807139585299 1 I I -0.70710678118654757 0.70710678118654757 0.75 forward I I I I #
loop $-1 $-1 $155 $41 #
coedge $-1 $97 $97 $156 $157 reversed $61 $-1 #
face $-1 $158 $159 $33 $-1 $160 reversed single #
loop $-1 $-1 $161 $63 #
plane-surface $-1 -28.468948716573891 10.65350704467501 99.388679752434655 0.70710678939079041 0 0.70710677298230451 0.70710677298230451 0 -0.70710678939079041 forward_v I I I I #
coedge $-1 $162 $163 $164 $165 reversed $64 $-1 #
face $-1 $-1 $166 $34 $-1 $167 forward single #
loop $-1 $168 $169 $66 #
cone-surface $-1 62.397863531642628 9.1298043029190765 2.1668383470617929 -0.70710678939079041 0 -0.70710677298230451 0.35355338649115226 0 -0.35355339469539521 1 I I -0.70710678118654746 0.70710678118654746 0.5 forward I I I I #
loop $-1 $-1 $170 $43 #
coedge $-1 $106 $106 $171 $172 reversed $67 $-1 #
face $-1 $-1 $173 $35 $-1 $174 forward single #
loop $-1 $175 $176 $69 #
cone-surface $-1 62.397863531642628 12.17720978643095 2.1668383470617929 -0.70710678939079041 0 -0.70710677298230451 0.35355338649115226 0 -0.35355339469539521 1 I I -0.70710678118654746 0.70710678118654746 0.5 forward I I I I #
loop $-1 $-1 $177 $44 #
coedge $-1 $111 $111 $178 $179 reversed $70 $-1 #
face $-1 $180 $181 $27 $-1 $182 reversed single #
loop $-1 $-1 $183 $72 #
plane-surface $-1 0 -29.686916794713724 0 0 1 0 0 0 1 forward_v I I I I #
coedge $-1 $184 $185 $186 $187 forward $73 $-1 #
coedge $-1 $188 $75 $189 $190 forward $46 $-1 #
coedge $-1 $75 $188 $191 $192 forward $46 $-1 #
coedge $-1 $193 $194 $75 $119 reversed $195 $-1 #
edge $-1 $196 -29.686916794713724 $197 29.686916794713724 $118 $198 forward 7 unknown #
face $-1 $199 $200 $28 $-1 $201 forward single #
loop $-1 $-1 $202 $76 #
plane-surface $-1 68.730124820703764 0 0 -1 0 0 0 0 1 forward_v I I I I #
coedge $-1 $203 $204 $205 $206 forward $77 $-1 #
coedge $-1 $205 $79 $202 $207 reversed $49 $-1 #
coedge $-1 $79 $205 $208 $209 reversed $49 $-1 #
coedge $-1 $210 $211 $79 $127 reversed $200 $-1 #
edge $-1 $212 -68.730124820703764 $213 68.730124820703764 $126 $214 forward 7 unknown #
face $-1 $215 $216 $29 $-1 $217 reversed single #
loop $-1 $-1 $218 $80 #
plane-surface $-1 0 29.686916794713724 0 0 -1 0 0 0 -1 forward_v I I I I #
coedge $-1 $219 $220 $221 $222 forward $81 $-1 #
coedge $-1 $221 $83 $223 $224 reversed $52 $-1 #
coedge $-1 $83 $221 $225 $226 reversed $52 $-1 #
coedge $-1 $227 $228 $83 $135 forward $229 $-1 #
edge $-1 $230 -8.4990996355946518 $231 8.4990996355946518 $134 $232 forward 7 unknown #
face $-1 $233 $234 $30 $-1 $235 reversed single #
loop $-1 $-1 $236 $84 #
plane-surface $-1 -177.0502808662514 -7.3608457559815337 87.453126370537049 0 -1 0 0.78801076186113728 0 -0.61566146476048833 forward_v I I I I #
coedge $-1 $237 $238 $239 $240 reversed $85 $-1 #
coedge $-1 $141 $87 $241 $242 reversed $55 $-1 #
coedge $-1 $87 $140 $237 $243 reversed $55 $-1 #
coedge $-1 $239 $244 $87 $143 forward $245 $-1 #
edge $-1 $246 19.795015612421935 $247 24.228773844876827 $142 $248 forward 7 unknown #
loop $-1 $-1 $149 $88 #
plane-surface $-1 -68.730124820703736 -13.467592676685268 2.8241477299657021 -0.78801076186113728 0 0.61566146476048833 0.61566146476048833 0 0.78801076186113728 forward_v I I I I #
loop $-1 $-1 $249 $57 #
coedge $-1 $147 $147 $148 $250 reversed $89 $-1 #
coedge $-1 $148 $148 $147 $250 forward $91 $-1 #
coedge $-1 $149 $149 $92 $150 forward $144 $-1 #
edge $-1 $251 0 $251 6.2831853071796004 $149 $252 forward 7 unknown #
loop $-1 $-1 $156 $93 #
plane-surface $-1 -68.730124820703736 -13.467592676685268 2.8241477299657021 -0.78801076186113728 0 0.61566146476048833 0.61566146476048833 0 0.78801076186113728 forward_v I I I I #
loop $-1 $-1 $253 $60 #
coedge $-1 $154 $154 $155 $254 reversed $94 $-1 #
coedge $-1 $155 $155 $154 $254 forward $96 $-1 #
coedge $-1 $156 $156 $97 $157 forward $151 $-1 #
edge $-1 $255 0 $255 6.2831853071796004 $156 $256 forward 7 unknown #
face $-1 $257 $258 $33 $-1 $259 forward single #
loop $-1 $-1 $260 $98 #
plane-surface $-1 68.730127076218338 7.098200647244493 196.58775328971231 0 1 0 0.70710678939079041 0 0.70710677298230451 forward_v I I I I #
coedge $-1 $261 $262 $263 $264 reversed $99 $-1 #
coedge $-1 $163 $101 $265 $266 reversed $64 $-1 #
coedge $-1 $101 $162 $261 $267 reversed $64 $-1 #
coedge $-1 $263 $268 $101 $165 forward $258 $-1 #
edge $-1 $269 -34.365061282594596 $270 -28.055565753054879 $164 $271 forward 7 unknown #
loop $-1 $-1 $171 $102 #
plane-surface $-1 -28.468948716573891 10.65350704467501 99.388679752434655 0.70710678939079041 0 0.70710677298230451 0.70710677298230451 0 -0.70710678939079041 forward_v I I I I #
loop $-1 $-1 $272 $66 #
coedge $-1 $169 $169 $170 $273 reversed $103 $-1 #
coedge $-1 $170 $170 $169 $273 forward $105 $-1 #
coedge $-1 $171 $171 $106 $172 forward $166 $-1 #
edge $-1 $274 0 $274 6.2831853071796004 $171 $275 forward 7 unknown #
loop $-1 $-1 $178 $107 #
plane-surface $-1 -28.468948716573891 10.65350704467501 99.388679752434655 0.70710678939079041 0 0.70710677298230451 0.70710677298230451 0 -0.70710678939079041 forward_v I I I I #
loop $-1 $-1 $276 $69 #
coedge $-1 $176 $176 $177 $277 reversed $108 $-1 #
coedge $-1 $177 $177 $176 $277 forward $110 $-1 #
coedge $-1 $178 $178 $111 $179 forward $173 $-1 #
edge $-1 $278 0 $278 6.2831853071796004 $178 $279 forward 7 unknown #
face $-1 $280 $281 $27 $-1 $282 reversed single #
loop $-1 $-1 $283 $112 #
plane-surface $-1 -68.730124820703764 0 0 1 0 0 0 0 -1 forward_v I I I I #
coedge $-1 $284 $191 $285 $286 forward $113 $-1 #
coedge $-1 $287 $115 $284 $288 forward $73 $-1 #
coedge $-1 $115 $287 $289 $290 forward $73 $-1 #
coedge $-1 $194 $193 $115 $187 reversed $195 $-1 #
edge $-1 $291 -29.686916794713724 $292 29.686916794713724 $186 $293 forward 7 unknown #
coedge $-1 $117 $116 $294 $295 forward $46 $-1 #
coedge $-1 $296 $297 $116 $190 reversed $281 $-1 #
edge $-1 $197 -68.730124820703764 $298 68.730124820703764 $189 $299 forward 7 unknown #
coedge $-1 $183 $300 $117 $192 reversed $113 $-1 #
edge $-1 $301 -68.730124820703764 $196 68.730124820703764 $191 $302 forward 7 unknown #
coedge $-1 $186 $118 $300 $303 forward $195 $-1 #
coedge $-1 $118 $186 $296 $304 reversed $195 $-1 #
loop $-1 $-1 $193 $280 #
vertex $-1 $119 $305 #
vertex $-1 $119 $306 #
straight-curve $-1 68.730124820703764 0 8.4990996355946518 0 1 0 I I #
face $-1 $307 $308 $28 $-1 $309 reversed single #
loop $-1 $-1 $211 $120 #
plane-surface $-1 0 -34.743205393376087 -5.4990996355946518 0 0 1 1 0 0 forward_v I I I I #
coedge $-1 $310 $311 $124 $207 forward $121 $-1 #
coedge $-1 $312 $123 $311 $313 forward $77 $-1 #
coedge $-1 $123 $312 $314 $315 forward $77 $-1 #
coedge $-1 $125 $124 $123 $206 reversed $49 $-1 #
edge $-1 $316 -68.730124820703764 $317 68.730124820703764 $123 $318 forward 7 unknown #
edge $-1 $317 -8.4990996355946518 $213 -5.4990996355946518 $202 $319 forward 7 unknown #
coedge $-1 $314 $320 $125 $209 forward $321 $-1 #
edge $-1 $212 5.4990996355946518 $316 8.4990996355946518 $208 $322 forward 7 unknown #
coedge $-1 $323 $126 $320 $324 forward $200 $-1 #
coedge $-1 $126 $323 $310 $325 forward $200 $-1 #
vertex $-1 $209 $326 #
vertex $-1 $325 $327 #
straight-curve $-1 0 -29.686916794713724 -5.4990996355946518 1 0 0 I I #
face $-1 $328 $329 $29 $-1 $330 forward single #
loop $-1 $-1 $331 $128 #
plane-surface $-1 0 0 -8.4990996355946518 0 0 1 1 0 0 forward_v I I I I #
coedge $-1 $332 $333 $334 $335 forward $129 $-1 #
coedge $-1 $334 $131 $331 $336 reversed $81 $-1 #
coedge $-1 $131 $334 $337 $338 reversed $81 $-1 #
coedge $-1 $133 $132 $131 $222 reversed $52 $-1 #
edge $-1 $339 -8.4990996355946518 $340 8.4990996355946518 $131 $341 forward 7 unknown #
coedge $-1 $342 $331 $132 $224 forward $216 $-1 #
edge $-1 $340 30.854524700063763 $230 35.535241647114589 $223 $343 forward 7 unknown #
coedge $-1 $337 $344 $133 $226 forward $329 $-1 #
edge $-1 $231 -35.535241647114589 $339 -30.854524700063763 $225 $345 forward 7 unknown #
coedge $-1 $346 $134 $344 $347 reversed $229 $-1 #
coedge $-1 $134 $346 $342 $348 reversed $229 $-1 #
loop $-1 $-1 $134 $328 #
vertex $-1 $348 $349 #
vertex $-1 $135 $350 #
straight-curve $-1 -68.730124820703764 22.485095117535806 0 0 0 1 I I #
face $-1 $-1 $245 $30 $-1 $351 forward single #
loop $-1 $-1 $352 $136 #
plane-surface $-1 -68.730124820703764 0 0 1 0 0 0 0 -1 forward_v I I I I #
coedge $-1 $353 $354 $355 $356 reversed $137 $-1 #
coedge $-1 $357 $139 $141 $243 forward $85 $-1 #
coedge $-1 $139 $357 $353 $358 forward $85 $-1 #
coedge $-1 $355 $142 $139 $240 forward $245 $-1 #
edge $-1 $247 -12.840543259046369 $359 -0.62704941763889988 $239 $360 forward 7 unknown #
coedge $-1 $361 $362 $140 $242 forward $234 $-1 #
edge $-1 $363 -40.902415455302858 $246 -35.227463549673871 $241 $364 forward 7 unknown #
edge $-1 $247 -7.2016172624670158 $363 4.6193811539156697e-014 $141 $365 forward 7 unknown #
coedge $-1 $142 $355 $361 $366 forward $245 $-1 #
loop $-1 $-1 $355 $233 #
vertex $-1 $242 $367 #
vertex $-1 $143 $368 #
straight-curve $-1 -88.525140433125699 -19.574339597389002 8.4990996355946535 1 0 0 I I #
coedge $-1 $249 $249 $-1 $369 reversed $146 $-1 #
edge $-1 $370 0 $370 6.2831853071796004 $147 $371 forward 7 unknown #
vertex $-1 $150 $372 #
ellipse-curve $-1 -66.513245704476319 -16.08476992841544 5.6616236827801618 -0.78801076186113728 0 0.61566146476048833 0.9234921971407325 0 1.182016142791706 1 I I #
coedge $-1 $253 $253 $-1 $373 reversed $153 $-1 #
edge $-1 $374 0 $374 6.2831853071796004 $154 $375 forward 7 unknown #
vertex $-1 $157 $376 #
ellipse-curve $-1 -66.513245704476319 -10.850415424955095 5.6616236827801618 -0.78801076186113728 0 0.61566146476048833 0.9234921971407325 0 1.182016142791706 1 I I #
face $-1 $-1 $377 $33 $-1 $378 reversed single #
loop $-1 $-1 $164 $158 #
plane-surface $-1 0 0 8.4990996355946518 0 0 1 1 0 0 forward_v I I I I #
coedge $-1 $379 $380 $381 $382 reversed $159 $-1 #
coedge $-1 $383 $161 $163 $267 forward $99 $-1 #
coedge $-1 $161 $383 $379 $384 forward $99 $-1 #
coedge $-1 $381 $164 $161 $264 forward $258 $-1 #
edge $-1 $270 -8.8820599197680217 $385 -1.7714471249069881 $263 $386 forward 7 unknown #
coedge $-1 $387 $388 $162 $266 forward $377 $-1 #
edge $-1 $389 -96.104272685213729 $269 -89.794777009261509 $265 $390 forward 7 unknown #
edge $-1 $270 128.53727538827081 $389 137.46024964140756 $163 $391 forward 7 unknown #
coedge $-1 $164 $381 $387 $392 forward $258 $-1 #
vertex $-1 $266 $393 #
vertex $-1 $165 $394 #
straight-curve $-1 34.365063538109169 14.208813442105527 8.4990996355946464 -1 0 0 I I #
coedge $-1 $272 $272 $-1 $395 reversed $168 $-1 #
edge $-1 $396 0 $396 6.2831853071796004 $169 $397 forward 7 unknown #
vertex $-1 $172 $398 #
ellipse-curve $-1 65.575377055933913 9.1298043029190765 5.3443517976185397 0.70710678939079041 0 0.70710677298230451 0.70710677298230451 0 -0.70710678939079041 1 I I #
coedge $-1 $276 $276 $-1 $399 reversed $175 $-1 #
edge $-1 $400 0 $400 6.2831853071796004 $176 $401 forward 7 unknown #
vertex $-1 $179 $402 #
ellipse-curve $-1 65.575377055933913 12.17720978643095 5.3443517976185397 0.70710678939079041 0 0.70710677298230451 0.70710677298230451 0 -0.70710678939079041 1 I I #
face $-1 $-1 $195 $27 $-1 $403 reversed single #
loop $-1 $-1 $296 $180 #
plane-surface $-1 0 29.686916794713724 0 0 -1 0 0 0 -1 forward_v I I I I #
coedge $-1 $404 $294 $297 $405 forward $181 $-1 #
coedge $-1 $300 $183 $184 $288 reversed $113 $-1 #
coedge $-1 $294 $404 $183 $286 reversed $181 $-1 #
edge $-1 $301 -8.4990996355946518 $406 8.4990996355946518 $285 $407 forward 7 unknown #
coedge $-1 $185 $184 $404 $408 forward $73 $-1 #
edge $-1 $292 -68.730124820703764 $406 68.730124820703764 $284 $409 forward 7 unknown #
coedge $-1 $297 $296 $185 $290 reversed $281 $-1 #
edge $-1 $410 -68.730124820703764 $291 68.730124820703764 $289 $411 forward 7 unknown #
vertex $-1 $187 $412 #
vertex $-1 $303 $413 #
straight-curve $-1 68.730124820703764 0 -8.4990996355946518 0 -1 0 I I #
coedge $-1 $283 $285 $188 $295 reversed $181 $-1 #
edge $-1 $298 -29.686916794713724 $301 29.686916794713724 $294 $414 forward 7 unknown #
coedge $-1 $289 $189 $194 $304 forward $281 $-1 #
coedge $-1 $189 $289 $283 $405 reversed $281 $-1 #
vertex $-1 $190 $415 #
straight-curve $-1 0 29.686916794713724 8.4990996355946518 -1 0 0 I I #
coedge $-1 $191 $284 $193 $303 reversed $113 $-1 #
vertex $-1 $295 $416 #
straight-curve $-1 0 -29.686916794713724 8.4990996355946518 1 0 0 I I #
edge $-1 $196 -8.4990996355946518 $292 8.4990996355946518 $193 $417 forward 7 unknown #
edge $-1 $197 -8.4990996355946518 $291 8.4990996355946518 $194 $418 forward 7 unknown #
point $-1 68.730124820703764 -29.686916794713724 8.4990996355946518 #
point $-1 68.730124820703764 29.686916794713724 8.4990996355946518 #
face $-1 $-1 $321 $28 $-1 $419 reversed single #
loop $-1 $-1 $420 $199 #
plane-surface $-1 0 -39.79949399203845 -6.9990996355946518 0 1 0 0 0 1 forward_v I I I I #
coedge $-1 $421 $202 $211 $325 reversed $121 $-1 #
coedge $-1 $202 $421 $203 $313 reversed $121 $-1 #
coedge $-1 $204 $203 $422 $423 forward $77 $-1 #
edge $-1 $317 29.686916794713724 $424 39.79949399203845 $311 $425 forward 7 unknown #
coedge $-1 $426 $208 $204 $315 reversed $321 $-1 #
edge $-1 $427 -39.79949399203845 $316 -29.686916794713724 $314 $428 forward 7 unknown #
vertex $-1 $209 $429 #
vertex $-1 $313 $430 #
straight-curve $-1 0 -29.686916794713724 -8.4990996355946518 1 0 0 I I #
straight-curve $-1 68.730124820703764 -29.686916794713724 0 0 0 1 I I #
coedge $-1 $208 $426 $210 $324 reversed $321 $-1 #
loop $-1 $-1 $208 $307 #
straight-curve $-1 -68.730124820703764 -29.686916794713724 0 0 0 -1 I I #
coedge $-1 $211 $210 $431 $432 forward $200 $-1 #
edge $-1 $212 -5.0562885986623627 $433 5.0562885986623627 $320 $434 forward 7 unknown #
edge $-1 $435 -5.0562885986623627 $213 5.0562885986623627 $310 $436 forward 7 unknown #
point $-1 -68.730124820703764 -29.686916794713724 -5.4990996355946518 #
point $-1 68.730124820703764 -29.686916794713724 -5.4990996355946518 #
face $-1 $-1 $229 $29 $-1 $437 reversed single #
loop $-1 $-1 $337 $215 #
plane-surface $-1 0 0 8.4990996355946518 0 0 1 1 0 0 forward_v I I I I #
coedge $-1 $223 $438 $219 $336 forward $216 $-1 #
coedge $-1 $439 $218 $438 $440 reversed $129 $-1 #
coedge $-1 $218 $439 $441 $442 reversed $129 $-1 #
coedge $-1 $220 $219 $218 $335 reversed $81 $-1 #
edge $-1 $443 -8.4990996355946518 $444 8.4990996355946518 $218 $445 forward 7 unknown #
edge $-1 $444 -16.643913816651342 $340 -9.4420921394734236 $331 $446 forward 7 unknown #
coedge $-1 $441 $225 $220 $338 forward $329 $-1 #
edge $-1 $339 9.4420921394734236 $443 16.643913816651342 $337 $447 forward 7 unknown #
vertex $-1 $226 $448 #
vertex $-1 $224 $449 #
straight-curve $-1 -64.049407873652939 22.485095117535806 0 0 0 -1 I I #
coedge $-1 $438 $223 $228 $348 forward $216 $-1 #
straight-curve $-1 -33.194883173589176 22.485095117535806 -8.4990996355946518 -1 0 0 I I #
coedge $-1 $225 $441 $227 $347 forward $329 $-1 #
straight-curve $-1 -33.194883173589176 22.485095117535806 8.4990996355946518 1 0 0 I I #
coedge $-1 $228 $227 $439 $450 forward $229 $-1 #
edge $-1 $451 -29.686916794713724 $231 -22.485095117535806 $227 $452 forward 7 unknown #
edge $-1 $230 22.485095117535806 $453 29.686916794713724 $228 $454 forward 7 unknown #
point $-1 -68.730124820703764 22.485095117535806 -8.4990996355946518 #
point $-1 -68.730124820703764 22.485095117535806 8.4990996355946518 #
plane-surface $-1 0 0 8.4990996355946518 0 0 1 1 0 0 forward_v I I I I #
coedge $-1 $362 $361 $354 $455 forward $234 $-1 #
coedge $-1 $354 $236 $238 $358 reversed $137 $-1 #
coedge $-1 $236 $353 $352 $455 reversed $137 $-1 #
coedge $-1 $244 $239 $236 $356 forward $245 $-1 #
edge $-1 $359 -24.228773844876827 $456 -19.795015612421935 $355 $457 forward 7 unknown #
coedge $-1 $238 $237 $362 $458 reversed $85 $-1 #
edge $-1 $459 -4.6193811539156697e-014 $359 7.2016172624670158 $353 $460 forward 7 unknown #
vertex $-1 $240 $461 #
straight-curve $-1 -64.296366588248887 -6.7337963383426338 8.49909963559465 0 1 0 I I #
coedge $-1 $352 $241 $244 $366 reversed $234 $-1 #
coedge $-1 $241 $352 $357 $458 forward $234 $-1 #
vertex $-1 $242 $462 #
straight-curve $-1 -68.730124820703764 -19.574339597389002 43.726563185268525 0 0 1 I I #
straight-curve $-1 -68.730124820703736 -19.574339597389002 2.8241477299657021 -0.61566146476048833 0 -0.78801076186113728 I I #
edge $-1 $456 7.3608457559815337 $246 19.574339597389002 $361 $463 forward 7 unknown #
point $-1 -68.730124820703764 -19.574339597389002 8.4990996355946518 #
point $-1 -64.296366588248873 -19.574339597389002 8.4990996355946518 #
edge $-1 $464 1 $464 0 $249 $-1 forward 7 unknown #
vertex $-1 $250 $465 #
ellipse-curve $-1 -64.735910722471658 -16.08476992841544 4.2730174462274384 -0.78801076186113728 0 0.61566146476048833 0.9234921971407325 0 1.182016142791706 1 I I #
point $-1 -65.589753507335615 -16.08476992841544 6.8436398255718931 #
edge $-1 $466 1 $466 0 $253 $-1 forward 7 unknown #
vertex $-1 $254 $467 #
ellipse-curve $-1 -64.735910722471658 -10.850415424955095 4.2730174462274384 -0.78801076186113728 0 0.61566146476048833 0.9234921971407325 0 1.182016142791706 1 I I #
point $-1 -65.589753507335615 -10.850415424955095 6.8436398255718931 #
loop $-1 $-1 $265 $257 #
plane-surface $-1 68.730124820703764 0 0 -1 0 0 0 0 1 forward_v I I I I #
coedge $-1 $380 $260 $262 $384 reversed $159 $-1 #
coedge $-1 $260 $379 $468 $469 reversed $159 $-1 #
coedge $-1 $268 $263 $260 $382 forward $258 $-1 #
edge $-1 $385 28.055565753054879 $470 34.365061282594596 $381 $471 forward 7 unknown #
coedge $-1 $262 $261 $388 $472 reversed $99 $-1 #
edge $-1 $473 -137.46024964140756 $385 -128.53727538827081 $379 $474 forward 7 unknown #
vertex $-1 $264 $475 #
straight-curve $-1 62.42062929116404 5.3267535223375049 8.4990996355946464 0 -1 0 I I #
coedge $-1 $468 $265 $268 $392 reversed $377 $-1 #
coedge $-1 $265 $468 $383 $472 forward $377 $-1 #
vertex $-1 $266 $476 #
straight-curve $-1 68.730124820703764 14.208813442105527 98.293876644856155 0 0 1 I I #
straight-curve $-1 -28.468948716573891 14.208813442105527 99.388679752434655 0.70710677298230451 0 -0.70710678939079041 I I #
edge $-1 $470 7.098200647244493 $269 14.208813442105527 $387 $477 forward 7 unknown #
point $-1 68.730124820703764 14.208813442105527 8.4990996355946518 #
point $-1 62.420629291164047 14.208813442105527 8.4990996355946464 #
edge $-1 $478 1 $478 0 $272 $-1 forward 7 unknown #
vertex $-1 $273 $479 #
ellipse-curve $-1 62.751416926338024 9.1298043029190765 2.5203917335529451 0.70710678939079041 0 0.70710677298230451 0.70710677298230451 0 -0.70710678939079041 1 I I #
point $-1 66.282483828916213 9.1298043029190765 4.6372450082277492 #
edge $-1 $480 1 $480 0 $276 $-1 forward 7 unknown #
vertex $-1 $277 $481 #
ellipse-curve $-1 62.751416926338024 12.17720978643095 2.5203917335529451 0.70710678939079041 0 0.70710677298230451 0.70710677298230451 0 -0.70710678939079041 1 I I #
point $-1 66.282483828916213 12.17720978643095 4.6372450082277492 #
plane-surface $-1 68.730124820703764 0 0 -1 0 0 0 0 1 forward_v I I I I #
coedge $-1 $285 $283 $287 $408 reversed $181 $-1 #
edge $-1 $298 -8.4990996355946518 $410 8.4990996355946518 $297 $482 forward 7 unknown #
vertex $-1 $408 $483 #
straight-curve $-1 -68.730124820703764 -29.686916794713724 0 0 0 -1 I I #
edge $-1 $406 -29.686916794713724 $410 29.686916794713724 $404 $484 forward 7 unknown #
straight-curve $-1 0 -29.686916794713724 -8.4990996355946518 -1 0 0 I I #
vertex $-1 $290 $485 #
straight-curve $-1 0 29.686916794713724 -8.4990996355946518 1 0 0 I I #
point $-1 68.730124820703764 29.686916794713724 -8.4990996355946518 #
point $-1 68.730124820703764 -29.686916794713724 -8.4990996355946518 #
straight-curve $-1 -68.730124820703764 0 8.4990996355946518 0 -1 0 I I #
point $-1 -68.730124820703764 29.686916794713724 8.4990996355946518 #
point $-1 -68.730124820703764 -29.686916794713724 8.4990996355946518 #
straight-curve $-1 68.730124820703764 -29.686916794713724 0 0 0 -1 I I #
straight-curve $-1 68.730124820703764 29.686916794713724 0 0 0 -1 I I #
plane-surface $-1 -68.730124820703764 0 0 1 0 0 0 0 -1 forward_v I I I I #
coedge $-1 $422 $431 $426 $486 forward $308 $-1 #
coedge $-1 $311 $310 $487 $488 forward $121 $-1 #
coedge $-1 $487 $420 $312 $423 reversed $308 $-1 #
edge $-1 $424 -68.730124820703764 $427 68.730124820703764 $422 $489 forward 7 unknown #
vertex $-1 $488 $490 #
straight-curve $-1 68.730124820703764 0 -8.4990996355946518 0 -1 0 I I #
coedge $-1 $320 $314 $420 $486 reversed $321 $-1 #
vertex $-1 $315 $491 #
straight-curve $-1 -68.730124820703764 0 -8.4990996355946518 0 1 0 I I #
point $-1 -68.730124820703764 -29.686916794713724 -8.4990996355946518 #
point $-1 68.730124820703764 -29.686916794713724 -8.4990996355946518 #
coedge $-1 $420 $487 $323 $432 reversed $308 $-1 #
edge $-1 $433 -68.730124820703764 $435 68.730124820703764 $431 $492 forward 7 unknown #
vertex $-1 $324 $493 #
straight-curve $-1 -68.730124820703764 -34.743205393376087 -5.4990996355946518 0 -1 0 I I #
vertex $-1 $325 $494 #
straight-curve $-1 68.730124820703764 -34.743205393376087 -5.4990996355946518 0 1 0 I I #
plane-surface $-1 -68.730124820703764 0 0 1 0 0 0 0 -1 forward_v I I I I #
coedge $-1 $331 $342 $332 $440 forward $216 $-1 #
coedge $-1 $333 $332 $346 $450 reversed $129 $-1 #
edge $-1 $453 -68.730124820703764 $444 -64.049407873652939 $332 $495 forward 7 unknown #
coedge $-1 $344 $337 $333 $442 forward $329 $-1 #
edge $-1 $443 64.049407873652939 $451 68.730124820703764 $333 $496 forward 7 unknown #
vertex $-1 $442 $497 #
vertex $-1 $336 $498 #
straight-curve $-1 -64.049407873652939 29.686916794713724 0 0 0 -1 I I #
straight-curve $-1 -64.049407873652939 13.043002978062383 -8.4990996355946518 0 -1 0 I I #
straight-curve $-1 -64.049407873652939 13.043002978062383 8.4990996355946518 0 1 0 I I #
point $-1 -64.049407873652939 22.485095117535806 8.4990996355946518 #
point $-1 -64.049407873652939 22.485095117535806 -8.4990996355946518 #
edge $-1 $451 -8.4990996355946518 $453 8.4990996355946518 $439 $499 forward 7 unknown #
vertex $-1 $442 $500 #
straight-curve $-1 -68.730124820703764 0 8.4990996355946518 0 -1 0 I I #
vertex $-1 $440 $501 #
straight-curve $-1 -68.730124820703764 0 -8.4990996355946518 0 1 0 I I #
edge $-1 $456 35.227463549673871 $459 40.902415455302858 $352 $502 forward 7 unknown #
vertex $-1 $366 $503 #
straight-curve $-1 -88.525140433125699 -7.3608457559815337 8.4990996355946535 -1 0 0 I I #
edge $-1 $459 0.62704941763889988 $363 12.840543259046369 $362 $504 forward 7 unknown #
vertex $-1 $458 $505 #
straight-curve $-1 -68.730124820703736 -7.3608457559815337 2.8241477299657021 0.61566146476048833 0 0.78801076186113728 I I #
point $-1 -64.296366588248873 -7.3608457559815337 8.4990996355946518 #
point $-1 -68.730124820703764 -19.574339597389002 2.8241477299656657 #
straight-curve $-1 -68.730124820703764 0 8.4990996355946518 0 -1 0 I I #
vertex $-1 $369 $506 #
point $-1 -63.812418525330934 -16.08476992841544 5.4550335890191448 #
vertex $-1 $373 $507 #
point $-1 -63.812418525330934 -10.850415424955095 5.4550335890191448 #
coedge $-1 $388 $387 $380 $469 forward $377 $-1 #
edge $-1 $470 89.794777009261509 $473 96.104272685213729 $468 $508 forward 7 unknown #
vertex $-1 $392 $509 #
straight-curve $-1 34.365063538109169 7.098200647244493 8.4990996355946464 1 0 0 I I #
edge $-1 $473 1.7714471249069881 $389 8.8820599197680217 $388 $510 forward 7 unknown #
vertex $-1 $472 $511 #
straight-curve $-1 -28.468948716573891 7.098200647244493 99.388679752434655 -0.70710677298230451 0 0.70710678939079041 I I #
point $-1 62.420629291164047 7.098200647244493 8.4990996355946464 #
point $-1 68.730124820703764 14.208813442105527 2.1896039596424259 #
straight-curve $-1 68.730124820703764 0 8.4990996355946518 0 1 0 I I #
vertex $-1 $395 $512 #
point $-1 63.458523699320324 9.1298043029190765 1.8132849441621548 #
vertex $-1 $399 $513 #
point $-1 63.458523699320324 12.17720978643095 1.8132849441621548 #
straight-curve $-1 -68.730124820703764 29.686916794713724 0 0 0 -1 I I #
point $-1 -68.730124820703764 -29.686916794713724 -8.4990996355946518 #
straight-curve $-1 -68.730124820703764 0 -8.4990996355946518 0 1 0 I I #
point $-1 -68.730124820703764 29.686916794713724 -8.4990996355946518 #
edge $-1 $433 -1.5 $427 1.5 $426 $514 forward 7 unknown #
coedge $-1 $431 $422 $421 $488 reversed $308 $-1 #
edge $-1 $435 -1.5 $424 1.5 $421 $515 forward 7 unknown #
straight-curve $-1 0 -39.79949399203845 -8.4990996355946518 -1 0 0 I I #
point $-1 68.730124820703764 -39.79949399203845 -8.4990996355946518 #
point $-1 -68.730124820703764 -39.79949399203845 -8.4990996355946518 #
straight-curve $-1 0 -39.79949399203845 -5.4990996355946518 1 0 0 I I #
point $-1 -68.730124820703764 -39.79949399203845 -5.4990996355946518 #
point $-1 68.730124820703764 -39.79949399203845 -5.4990996355946518 #
straight-curve $-1 0 29.686916794713724 -8.4990996355946518 1 0 0 I I #
straight-curve $-1 0 29.686916794713724 8.4990996355946518 -1 0 0 I I #
point $-1 -64.049407873652939 29.686916794713724 8.4990996355946518 #
point $-1 -64.049407873652939 29.686916794713724 -8.4990996355946518 #
straight-curve $-1 -68.730124820703764 29.686916794713724 0 0 0 -1 I I #
point $-1 -68.730124820703764 29.686916794713724 8.4990996355946518 #
point $-1 -68.730124820703764 29.686916794713724 -8.4990996355946518 #
straight-curve $-1 -68.730124820703764 -7.3608457559815337 43.726563185268525 0 0 -1 I I #
point $-1 -68.730124820703764 -7.3608457559815337 8.4990996355946518 #
straight-curve $-1 -68.730124820703764 -6.7337963383426338 2.8241477299656639 0 -1 0 I I #
point $-1 -68.730124820703764 -7.3608457559815337 2.8241477299656657 #
point $-1 -63.553894579679955 -16.08476992841544 3.3495252490867062 #
point $-1 -63.553894579679955 -10.850415424955095 3.3495252490867062 #
straight-curve $-1 68.730124820703764 7.098200647244493 98.293876644856155 0 0 -1 I I #
point $-1 68.730124820703764 7.098200647244493 8.4990996355946518 #
straight-curve $-1 68.730124820703764 5.3267535223375049 2.189603959642433 0 1 0 I I #
point $-1 68.730124820703764 7.098200647244493 2.1896039596424259 #
point $-1 62.044310136947232 9.1298043029190765 1.8132849605706407 #
point $-1 62.044310136947232 12.17720978643095 1.8132849605706407 #
straight-curve $-1 -68.730124820703764 -39.79949399203845 -6.9990996355946518 0 0 -1 I I #
straight-curve $-1 68.730124820703764 -39.79949399203845 -6.9990996355946518 0 0 -1 I I #
End-of-ACIS-data 