500 0 4 0           
7 Unknown 11 ACIS 5.0 NT 24 Thu Mar 25 17:38:31 1999 
-1 9.9999999999999995e-007 1e-010 
body $-1 $4 $-1 $5 #
body $-1 $6 $-1 $7 #
body $-1 $8 $-1 $9 #
body $-1 $10 $-1 $11 #
lump $-1 $-1 $12 $0 #
transform $-1 1 0 0 0 1 0 0 0 1 46.168401135288555 25.823560456777493 12.138184630855472 1 rotate no_reflect no_shear #
lump $-1 $-1 $13 $1 #
transform $-1 1 0 0 0 1 0 0 0 1 46.168401135288555 25.823560456777493 12.138184630855472 1 rotate no_reflect no_shear #
lump $-1 $-1 $14 $2 #
transform $-1 1 0 0 0 1 0 0 0 1 46.168401135288555 25.823560456777493 12.138184630855472 1 rotate no_reflect no_shear #
lump $-1 $-1 $15 $3 #
transform $-1 1 0 0 0 1 0 0 0 1 46.168401135288555 25.823560456777493 12.138184630855472 1 rotate no_reflect no_shear #
shell $-1 $-1 $-1 $16 $-1 $4 #
shell $-1 $-1 $-1 $17 $-1 $6 #
shell $-1 $-1 $-1 $18 $-1 $8 #
shell $-1 $-1 $-1 $19 $-1 $10 #
face $-1 $20 $21 $12 $-1 $22 forward single #
face $-1 $23 $24 $13 $-1 $25 forward single #
face $-1 $26 $27 $14 $-1 $28 reversed single #
face $-1 $29 $30 $15 $-1 $31 forward single #
face $-1 $32 $33 $12 $-1 $34 reversed single #
loop $-1 $-1 $35 $16 #
plane-surface $-1 0 0 12.138184630855472 0 0 1 1 0 0 forward_v I I I I #
face $-1 $36 $37 $13 $-1 $38 reversed single #
loop $-1 $-1 $39 $17 #
plane-surface $-1 -46.168401135288555 0 0 1 0 0 0 0 -1 forward_v I I I I #
face $-1 $40 $41 $14 $-1 $42 reversed single #
loop $-1 $-1 $43 $18 #
plane-surface $-1 -15.669061826116575 -103.26371959840031 55.67853914920375 -1 0 0 0 -0.83867057594974714 0.54463902268945019 forward_v I I I I #
face $-1 $44 $45 $15 $-1 $46 forward single #
loop $-1 $47 $48 $19 #
cone-surface $-1 -23.325607421340532 -22.206672263684638 7.8377266904082168 0 0.83867057594974714 -0.54463902268945019 1 0 0 1 I I 0 1 1 forward I I I I #
face $-1 $49 $50 $12 $-1 $51 reversed single #
loop $-1 $-1 $52 $20 #
plane-surface $-1 0 0 -12.138184630855472 0 0 1 1 0 0 forward_v I I I I #
coedge $-1 $53 $54 $55 $56 forward $21 $-1 #
face $-1 $57 $58 $13 $-1 $59 forward single #
loop $-1 $-1 $60 $23 #
plane-surface $-1 0 25.823560456777493 0 0 -1 0 0 0 -1 forward_v I I I I #
coedge $-1 $61 $62 $63 $64 forward $24 $-1 #
face $-1 $65 $66 $14 $-1 $67 reversed single #
loop $-1 $-1 $68 $26 #
plane-surface $-1 -23.325607421340532 -25.823560456777486 5.3883134022876291 0 -0.83867057594974714 0.54463902268945019 1 0 0 forward_v I I I I #
coedge $-1 $69 $70 $71 $72 reversed $27 $-1 #
face $-1 $-1 $73 $15 $-1 $74 forward single #
loop $-1 $75 $76 $29 #
cone-surface $-1 -23.325607421340532 -20.362157526567827 6.639884852900158 0 0.83867057594974714 -0.54463902268945019 0.5 0 0 1 I I -0.70710678118654746 0.70710678118654746 0.5 forward I I I I #
loop $-1 $-1 $77 $19 #
coedge $-1 $48 $48 $78 $79 reversed $30 $-1 #
face $-1 $80 $81 $12 $-1 $82 reversed single #
loop $-1 $-1 $83 $32 #
plane-surface $-1 0 -25.823560456777493 0 0 1 0 0 0 1 forward_v I I I I #
coedge $-1 $84 $85 $86 $87 forward $33 $-1 #
coedge $-1 $88 $35 $89 $90 forward $21 $-1 #
coedge $-1 $35 $88 $91 $92 forward $21 $-1 #
coedge $-1 $93 $94 $35 $56 reversed $95 $-1 #
edge $-1 $96 -25.823560456777493 $97 25.823560456777493 $55 $98 forward 7 unknown #
face $-1 $99 $100 $13 $-1 $101 reversed single #
loop $-1 $-1 $63 $36 #
plane-surface $-1 -53.761525194650588 0 -7.6307532837280814 0 0 1 1 0 0 forward_v I I I I #
coedge $-1 $102 $103 $62 $104 forward $37 $-1 #
coedge $-1 $105 $39 $106 $107 reversed $24 $-1 #
coedge $-1 $39 $105 $60 $104 reversed $24 $-1 #
coedge $-1 $108 $109 $39 $64 reversed $58 $-1 #
edge $-1 $110 -25.823560456777493 $111 25.823560456777493 $63 $112 forward 7 unknown #
face $-1 $113 $114 $14 $-1 $115 reversed single #
loop $-1 $-1 $116 $40 #
plane-surface $-1 -30.982153016564489 -103.26371959840031 55.67853914920375 1 0 0 0 0.83867057594974714 -0.54463902268945019 forward_v I I I I #
coedge $-1 $117 $118 $119 $120 reversed $41 $-1 #
coedge $-1 $70 $43 $121 $122 reversed $27 $-1 #
coedge $-1 $43 $69 $117 $123 reversed $27 $-1 #
coedge $-1 $119 $124 $43 $72 forward $125 $-1 #
edge $-1 $126 25.808299342422664 $127 30.191716830324509 $71 $128 forward 7 unknown #
loop $-1 $-1 $78 $44 #
plane-surface $-1 -23.325607421340532 -25.823560456777486 5.3883134022876291 0 -0.83867057594974714 0.54463902268945019 1 0 0 forward_v I I I I #
loop $-1 $-1 $129 $29 #
coedge $-1 $76 $76 $77 $130 reversed $45 $-1 #
coedge $-1 $77 $77 $76 $130 forward $47 $-1 #
coedge $-1 $78 $78 $48 $79 forward $73 $-1 #
edge $-1 $131 1.0446099212668148e-015 $131 6.2831853071796013 $78 $132 forward 7 unknown #
face $-1 $133 $134 $12 $-1 $135 reversed single #
loop $-1 $-1 $136 $49 #
plane-surface $-1 -46.168401135288555 0 0 1 0 0 0 0 -1 forward_v I I I I #
coedge $-1 $137 $91 $136 $138 forward $50 $-1 #
coedge $-1 $139 $52 $137 $140 forward $33 $-1 #
coedge $-1 $52 $139 $141 $142 forward $33 $-1 #
coedge $-1 $94 $93 $52 $87 reversed $95 $-1 #
edge $-1 $143 -25.823560456777493 $144 25.823560456777493 $86 $145 forward 7 unknown #
coedge $-1 $54 $53 $146 $147 forward $21 $-1 #
coedge $-1 $148 $149 $53 $90 reversed $134 $-1 #
edge $-1 $97 -46.168401135288555 $150 46.168401135288555 $89 $151 forward 7 unknown #
coedge $-1 $83 $152 $54 $92 reversed $50 $-1 #
edge $-1 $153 -46.168401135288555 $96 46.168401135288555 $91 $154 forward 7 unknown #
coedge $-1 $86 $55 $152 $155 forward $95 $-1 #
coedge $-1 $55 $86 $148 $156 reversed $95 $-1 #
loop $-1 $-1 $93 $133 #
vertex $-1 $56 $157 #
vertex $-1 $56 $158 #
straight-curve $-1 46.168401135288555 0 12.138184630855472 0 1 0 I I #
face $-1 $159 $160 $13 $-1 $161 reversed single #
loop $-1 $-1 $162 $57 #
plane-surface $-1 -61.354649254012621 0 -9.8844689572917765 1 0 0 0 0 -1 forward_v I I I I #
coedge $-1 $163 $60 $164 $165 reversed $37 $-1 #
coedge $-1 $60 $163 $108 $166 reversed $37 $-1 #
edge $-1 $110 7.6307532837280814 $167 12.138184630855472 $60 $168 forward 7 unknown #
coedge $-1 $62 $61 $169 $170 reversed $24 $-1 #
coedge $-1 $171 $172 $61 $107 forward $173 $-1 #
edge $-1 $174 -12.138184630855472 $111 -7.6307532837280814 $106 $175 forward 7 unknown #
coedge $-1 $176 $63 $103 $166 forward $58 $-1 #
coedge $-1 $63 $176 $171 $177 forward $58 $-1 #
vertex $-1 $104 $178 #
vertex $-1 $177 $179 #
straight-curve $-1 -46.168401135288555 0 -7.6307532837280814 0 -1 0 I I #
face $-1 $-1 $125 $14 $-1 $180 forward single #
loop $-1 $-1 $181 $65 #
plane-surface $-1 0 -25.823560456777493 0 0 1 0 0 0 1 forward_v I I I I #
coedge $-1 $182 $183 $184 $185 reversed $66 $-1 #
coedge $-1 $186 $68 $70 $123 forward $41 $-1 #
coedge $-1 $68 $186 $182 $187 forward $41 $-1 #
coedge $-1 $184 $71 $68 $120 forward $125 $-1 #
edge $-1 $127 4.0062581154463093 $188 19.319349305894221 $119 $189 forward 7 unknown #
coedge $-1 $190 $191 $69 $122 forward $114 $-1 #
edge $-1 $192 -22.450956172314257 $126 -15.701084943746404 $121 $193 forward 7 unknown #
edge $-1 $127 -8.0482986075003211 $192 1.2808562293387176e-014 $70 $194 forward 7 unknown #
coedge $-1 $71 $184 $190 $195 forward $125 $-1 #
loop $-1 $-1 $184 $113 #
vertex $-1 $122 $196 #
vertex $-1 $72 $197 #
straight-curve $-1 -15.669061826116575 -51.631859799200157 12.13818463085547 0 1 0 I I #
coedge $-1 $129 $129 $-1 $198 reversed $75 $-1 #
edge $-1 $199 0 $199 6.2831853071796004 $76 $200 forward 7 unknown #
vertex $-1 $79 $201 #
ellipse-curve $-1 -23.325607421340532 -23.63185171282657 8.7632490165715478 0 -0.83867057594974714 0.54463902268945019 1 0 0 1 I I #
face $-1 $-1 $95 $12 $-1 $202 reversed single #
loop $-1 $-1 $148 $80 #
plane-surface $-1 0 25.823560456777493 0 0 -1 0 0 0 -1 forward_v I I I I #
coedge $-1 $146 $203 $83 $138 reversed $81 $-1 #
coedge $-1 $152 $83 $84 $140 reversed $50 $-1 #
edge $-1 $153 -12.138184630855472 $204 12.138184630855472 $136 $205 forward 7 unknown #
coedge $-1 $85 $84 $203 $206 forward $33 $-1 #
edge $-1 $144 -46.168401135288555 $204 46.168401135288555 $137 $207 forward 7 unknown #
coedge $-1 $149 $148 $85 $142 reversed $134 $-1 #
edge $-1 $208 -46.168401135288555 $143 46.168401135288555 $141 $209 forward 7 unknown #
vertex $-1 $87 $210 #
vertex $-1 $155 $211 #
straight-curve $-1 46.168401135288555 0 -12.138184630855472 0 -1 0 I I #
coedge $-1 $212 $136 $88 $147 reversed $81 $-1 #
edge $-1 $150 -25.823560456777493 $153 25.823560456777493 $146 $213 forward 7 unknown #
coedge $-1 $141 $89 $94 $156 forward $134 $-1 #
coedge $-1 $89 $141 $212 $214 reversed $134 $-1 #
vertex $-1 $90 $215 #
straight-curve $-1 0 25.823560456777493 12.138184630855472 -1 0 0 I I #
coedge $-1 $91 $137 $93 $155 reversed $50 $-1 #
vertex $-1 $147 $216 #
straight-curve $-1 0 -25.823560456777493 12.138184630855472 1 0 0 I I #
edge $-1 $96 -12.138184630855472 $144 12.138184630855472 $93 $217 forward 7 unknown #
edge $-1 $97 -12.138184630855472 $143 12.138184630855472 $94 $218 forward 7 unknown #
point $-1 46.168401135288555 -25.823560456777493 12.138184630855472 #
point $-1 46.168401135288555 25.823560456777493 12.138184630855472 #
face $-1 $-1 $173 $13 $-1 $219 reversed single #
loop $-1 $-1 $169 $99 #
plane-surface $-1 0 0 -12.138184630855472 0 0 1 1 0 0 forward_v I I I I #
coedge $-1 $220 $221 $163 $222 forward $100 $-1 #
coedge $-1 $103 $102 $162 $222 reversed $37 $-1 #
coedge $-1 $169 $223 $102 $165 forward $160 $-1 #
edge $-1 $224 -61.354649254012621 $167 -46.168401135288555 $102 $225 forward 7 unknown #
edge $-1 $110 -7.5931240593620331 $226 7.5931240593620331 $103 $227 forward 7 unknown #
vertex $-1 $104 $228 #
straight-curve $-1 -46.168401135288555 25.823560456777493 0 0 0 -1 I I #
coedge $-1 $229 $164 $105 $170 forward $160 $-1 #
edge $-1 $167 -25.823560456777493 $174 25.823560456777493 $169 $230 forward 7 unknown #
coedge $-1 $231 $106 $109 $177 reversed $173 $-1 #
coedge $-1 $106 $231 $229 $232 reversed $173 $-1 #
loop $-1 $-1 $106 $159 #
vertex $-1 $232 $233 #
straight-curve $-1 -46.168401135288555 -25.823560456777493 0 0 0 1 I I #
coedge $-1 $109 $108 $221 $234 forward $58 $-1 #
edge $-1 $235 -7.5931240593620331 $111 7.5931240593620331 $171 $236 forward 7 unknown #
point $-1 -46.168401135288555 25.823560456777493 -7.6307532837280814 #
point $-1 -46.168401135288555 -25.823560456777493 -7.6307532837280814 #
plane-surface $-1 0 0 12.138184630855472 0 0 1 1 0 0 forward_v I I I I #
coedge $-1 $191 $190 $183 $237 forward $114 $-1 #
coedge $-1 $183 $116 $118 $187 reversed $66 $-1 #
coedge $-1 $116 $182 $181 $237 reversed $66 $-1 #
coedge $-1 $124 $119 $116 $185 forward $125 $-1 #
edge $-1 $188 -30.191716830324509 $238 -25.808299342422664 $184 $239 forward 7 unknown #
coedge $-1 $118 $117 $191 $240 reversed $41 $-1 #
edge $-1 $241 -1.2808562293387176e-014 $188 8.0482986075003211 $182 $242 forward 7 unknown #
vertex $-1 $120 $243 #
straight-curve $-1 -11.662803710670266 -21.440142968875648 12.138184630855472 -1 0 0 I I #
coedge $-1 $181 $121 $124 $195 reversed $114 $-1 #
coedge $-1 $121 $181 $186 $240 forward $114 $-1 #
vertex $-1 $122 $244 #
straight-curve $-1 -15.669061826116575 -25.823560456777493 27.839269574601875 0 0 1 I I #
straight-curve $-1 -15.669061826116575 -25.823560456777486 5.3883134022876291 0 -0.54463902268945019 -0.83867057594974714 I I #
edge $-1 $238 -30.982153016564489 $126 -15.669061826116575 $190 $245 forward 7 unknown #
point $-1 -15.669061826116575 -25.823560456777493 12.138184630855472 #
point $-1 -15.669061826116575 -21.440142968875648 12.138184630855472 #
edge $-1 $246 1 $246 0 $129 $-1 forward 7 unknown #
vertex $-1 $130 $247 #
ellipse-curve $-1 -23.325607421340532 -20.781492814542702 6.9122043642448832 0 -0.83867057594974714 0.54463902268945019 1 0 0 1 I I #
point $-1 -22.325607421340532 -23.631851712826574 8.7632490165715513 #
plane-surface $-1 46.168401135288555 0 0 -1 0 0 0 0 1 forward_v I I I I #
coedge $-1 $136 $212 $139 $206 reversed $81 $-1 #
vertex $-1 $206 $248 #
straight-curve $-1 -46.168401135288555 -25.823560456777493 0 0 0 -1 I I #
edge $-1 $204 -25.823560456777493 $208 25.823560456777493 $203 $249 forward 7 unknown #
straight-curve $-1 0 -25.823560456777493 -12.138184630855472 -1 0 0 I I #
vertex $-1 $142 $250 #
straight-curve $-1 0 25.823560456777493 -12.138184630855472 1 0 0 I I #
point $-1 46.168401135288555 25.823560456777493 -12.138184630855472 #
point $-1 46.168401135288555 -25.823560456777493 -12.138184630855472 #
coedge $-1 $203 $146 $149 $214 forward $81 $-1 #
straight-curve $-1 -46.168401135288555 0 12.138184630855472 0 -1 0 I I #
edge $-1 $150 -12.138184630855472 $208 12.138184630855472 $149 $251 forward 7 unknown #
point $-1 -46.168401135288555 25.823560456777493 12.138184630855472 #
point $-1 -46.168401135288555 -25.823560456777493 12.138184630855472 #
straight-curve $-1 46.168401135288555 -25.823560456777493 0 0 0 -1 I I #
straight-curve $-1 46.168401135288555 25.823560456777493 0 0 0 -1 I I #
plane-surface $-1 0 -25.823560456777493 0 0 1 0 0 0 1 forward_v I I I I #
coedge $-1 $252 $162 $223 $253 reversed $100 $-1 #
coedge $-1 $162 $252 $176 $234 reversed $100 $-1 #
edge $-1 $226 -2.2537156735636952 $224 2.2537156735636952 $163 $254 forward 7 unknown #
coedge $-1 $164 $229 $220 $253 forward $160 $-1 #
vertex $-1 $165 $255 #
straight-curve $-1 0 25.823560456777493 -12.138184630855472 1 0 0 I I #
vertex $-1 $166 $256 #
straight-curve $-1 -53.761525194650588 25.823560456777493 -7.6307532837280814 -1 0 0 I I #
point $-1 -46.168401135288555 25.823560456777493 -12.138184630855472 #
coedge $-1 $223 $169 $172 $232 forward $160 $-1 #
straight-curve $-1 -46.168401135288555 0 -12.138184630855472 0 -1 0 I I #
coedge $-1 $172 $171 $252 $257 forward $173 $-1 #
edge $-1 $174 -7.5931240593620331 $258 7.5931240593620331 $172 $259 forward 7 unknown #
point $-1 -46.168401135288555 -25.823560456777493 -12.138184630855472 #
edge $-1 $226 -25.823560456777493 $235 25.823560456777493 $221 $260 forward 7 unknown #
vertex $-1 $234 $261 #
straight-curve $-1 -53.761525194650588 -25.823560456777493 -7.6307532837280814 1 0 0 I I #
edge $-1 $238 15.701084943746404 $241 22.450956172314257 $181 $262 forward 7 unknown #
vertex $-1 $195 $263 #
straight-curve $-1 -30.982153016564489 -51.631859799200157 12.13818463085547 0 -1 0 I I #
edge $-1 $241 -19.319349305894221 $192 -4.0062581154463093 $191 $264 forward 7 unknown #
vertex $-1 $240 $265 #
straight-curve $-1 -30.982153016564489 -25.823560456777486 5.3883134022876291 0 0.54463902268945019 0.83867057594974714 I I #
point $-1 -30.982153016564489 -21.440142968875648 12.138184630855472 #
point $-1 -15.669061826116575 -25.823560456777493 5.3883134022876185 #
straight-curve $-1 0 -25.823560456777493 12.138184630855472 1 0 0 I I #
vertex $-1 $198 $266 #
point $-1 -22.325607421340532 -20.781492814542702 6.9122043642448832 #
point $-1 -46.168401135288555 -25.823560456777493 -12.138184630855472 #
straight-curve $-1 -46.168401135288555 0 -12.138184630855472 0 1 0 I I #
point $-1 -46.168401135288555 25.823560456777493 -12.138184630855472 #
straight-curve $-1 -46.168401135288555 25.823560456777493 0 0 0 -1 I I #
coedge $-1 $221 $220 $231 $257 reversed $100 $-1 #
edge $-1 $258 -25.823560456777493 $224 25.823560456777493 $220 $267 forward 7 unknown #
straight-curve $-1 -61.354649254012621 25.823560456777493 -9.8844689572917765 0 0 -1 I I #
point $-1 -61.354649254012621 25.823560456777493 -12.138184630855472 #
point $-1 -61.354649254012621 25.823560456777493 -7.6307532837280814 #
edge $-1 $235 -2.2537156735636952 $258 2.2537156735636952 $252 $268 forward 7 unknown #
vertex $-1 $253 $269 #
straight-curve $-1 -53.761525194650588 -25.823560456777493 -12.138184630855472 -1 0 0 I I #
straight-curve $-1 -61.354649254012621 0 -7.6307532837280814 0 -1 0 I I #
point $-1 -61.354649254012621 -25.823560456777493 -7.6307532837280814 #
straight-curve $-1 -30.982153016564489 -25.823560456777493 27.839269574601875 0 0 -1 I I #
point $-1 -30.982153016564489 -25.823560456777493 12.138184630855472 #
straight-curve $-1 -11.662803710670266 -25.823560456777493 5.3883134022876185 1 0 0 I I #
point $-1 -30.982153016564489 -25.823560456777493 5.3883134022876185 #
point $-1 -23.325607421340532 -19.942822238592953 6.3675653415554327 #
straight-curve $-1 -61.354649254012621 0 -12.138184630855472 0 1 0 I I #
straight-curve $-1 -61.354649254012621 -25.823560456777493 -9.8844689572917765 0 0 -1 I I #
point $-1 -61.354649254012621 -25.823560456777493 -12.138184630855472 #
End-of-ACIS-data 