500 0 5 0           
7 Unknown 11 ACIS 5.0 NT 24 Thu Mar 25 18:18:27 1999 
-1 9.9999999999999995e-007 1e-010 
body $-1 $5 $-1 $6 #
body $-1 $7 $-1 $8 #
body $-1 $9 $-1 $10 #
body $-1 $11 $-1 $12 #
body $-1 $13 $-1 $14 #
lump $-1 $-1 $15 $0 #
transform $-1 1 0 0 0 1 0 0 0 1 67.139500106814779 30.965064469259225 15.242122297773031 1 rotate no_reflect no_shear #
lump $-1 $-1 $16 $1 #
transform $-1 1 0 0 0 1 0 0 0 1 67.139500106814779 30.965064469259225 15.242122297773031 1 rotate no_reflect no_shear #
lump $-1 $-1 $17 $2 #
transform $-1 1 0 0 0 1 0 0 0 1 67.139500106814779 30.965064469259225 15.242122297773031 1 rotate no_reflect no_shear #
lump $-1 $-1 $18 $3 #
transform $-1 1 0 0 0 1 0 0 0 1 67.139500106814779 30.965064469259225 15.242122297773031 1 rotate no_reflect no_shear #
lump $-1 $-1 $19 $4 #
transform $-1 1 0 0 0 1 0 0 0 1 67.139500106814779 30.965064469259225 15.242122297773031 1 rotate no_reflect no_shear #
shell $-1 $-1 $-1 $20 $-1 $5 #
shell $-1 $-1 $-1 $21 $-1 $7 #
shell $-1 $-1 $-1 $22 $-1 $9 #
shell $-1 $-1 $-1 $23 $-1 $11 #
shell $-1 $-1 $-1 $24 $-1 $13 #
face $-1 $25 $26 $15 $-1 $27 forward single #
face $-1 $28 $29 $16 $-1 $30 forward single #
face $-1 $31 $32 $17 $-1 $33 reversed single #
face $-1 $34 $35 $18 $-1 $36 forward single #
face $-1 $37 $38 $19 $-1 $39 forward single #
face $-1 $40 $41 $15 $-1 $42 reversed single #
loop $-1 $-1 $43 $20 #
plane-surface $-1 0 0 15.242122297773031 0 0 1 1 0 0 forward_v I I I I #
face $-1 $44 $45 $16 $-1 $46 reversed single #
loop $-1 $-1 $47 $21 #
plane-surface $-1 -67.139500106814779 0 0 1 0 0 0 0 -1 forward_v I I I I #
face $-1 $48 $49 $17 $-1 $50 reversed single #
loop $-1 $-1 $51 $22 #
plane-surface $-1 100.11514986960526 4.9539280135037433 194.65603353049474 0 -1 0 -0.81915205242281985 0 -0.57357642473473569 forward_v I I I I #
face $-1 $52 $53 $18 $-1 $54 forward single #
loop $-1 $55 $56 $23 #
cone-surface $-1 62.54010663111395 -4.4849430305222491 10.084626163209812 -0.81915205242281985 0 -0.57357642473473569 0.86036463710210354 0 -1.2287280786342298 1 I I 0 1 1.5 forward I I I I #
face $-1 $57 $58 $19 $-1 $59 forward single #
loop $-1 $60 $61 $24 #
cone-surface $-1 62.54010663111395 1.1783795958933467 10.084626163209812 -0.81915205242281985 0 -0.57357642473473569 0.86036463710210354 0 -1.2287280786342298 1 I I 0 1 1.5 forward I I I I #
face $-1 $62 $63 $15 $-1 $64 reversed single #
loop $-1 $-1 $65 $25 #
plane-surface $-1 0 0 -15.242122297773031 0 0 1 1 0 0 forward_v I I I I #
coedge $-1 $66 $67 $68 $69 forward $26 $-1 #
face $-1 $70 $71 $16 $-1 $72 reversed single #
loop $-1 $-1 $73 $28 #
plane-surface $-1 0 0 -15.242122297773031 0 0 1 1 0 0 forward_v I I I I #
coedge $-1 $74 $75 $76 $77 forward $29 $-1 #
face $-1 $78 $79 $17 $-1 $80 reversed single #
loop $-1 $-1 $81 $31 #
plane-surface $-1 -9.8797687526736553 -1.6532817173144494 117.63676467100629 0.81915205242281985 0 0.57357642473473569 0.57357642473473569 0 -0.81915205242281985 forward_v I I I I #
coedge $-1 $82 $83 $84 $85 reversed $32 $-1 #
face $-1 $-1 $86 $18 $-1 $87 forward single #
loop $-1 $88 $89 $34 #
cone-surface $-1 59.987234396814188 -4.4849430305222491 8.2970858346183771 -0.81915205242281985 0 -0.57357642473473569 0.43018231855105177 0 -0.61436403931711492 1 I I -0.70710678118654757 0.70710678118654757 0.75 forward I I I I #
loop $-1 $-1 $90 $23 #
coedge $-1 $56 $56 $91 $92 reversed $35 $-1 #
face $-1 $-1 $93 $19 $-1 $94 forward single #
loop $-1 $95 $96 $37 #
cone-surface $-1 59.987234396814188 1.1783795958933467 8.2970858346183771 -0.81915205242281985 0 -0.57357642473473569 0.43018231855105177 0 -0.61436403931711492 1 I I -0.70710678118654757 0.70710678118654757 0.75 forward I I I I #
loop $-1 $-1 $97 $24 #
coedge $-1 $61 $61 $98 $99 reversed $38 $-1 #
face $-1 $100 $101 $15 $-1 $102 reversed single #
loop $-1 $-1 $103 $40 #
plane-surface $-1 0 -30.965064469259225 0 0 1 0 0 0 1 forward_v I I I I #
coedge $-1 $104 $105 $106 $107 forward $41 $-1 #
coedge $-1 $108 $43 $109 $110 forward $26 $-1 #
coedge $-1 $43 $108 $111 $112 forward $26 $-1 #
coedge $-1 $113 $114 $43 $69 reversed $115 $-1 #
edge $-1 $116 -30.965064469259225 $117 30.965064469259225 $68 $118 forward 7 unknown #
face $-1 $119 $120 $16 $-1 $121 reversed single #
loop $-1 $-1 $122 $44 #
plane-surface $-1 -75.126828984698264 -17.833440279497466 0 0 1 0 0 0 1 forward_v I I I I #
coedge $-1 $123 $124 $75 $125 forward $45 $-1 #
coedge $-1 $126 $47 $127 $128 reversed $29 $-1 #
coedge $-1 $47 $126 $73 $125 reversed $29 $-1 #
coedge $-1 $129 $130 $47 $77 reversed $131 $-1 #
edge $-1 $132 -15.242122297773031 $133 15.242122297773031 $76 $134 forward 7 unknown #
face $-1 $135 $136 $17 $-1 $137 forward single #
loop $-1 $-1 $138 $48 #
plane-surface $-1 100.11514986960526 -8.2604914481326421 194.65603353049474 0 1 0 0.81915205242281985 0 0.57357642473473569 forward_v I I I I #
coedge $-1 $139 $140 $141 $142 reversed $49 $-1 #
coedge $-1 $83 $51 $143 $144 reversed $32 $-1 #
coedge $-1 $51 $82 $139 $145 reversed $32 $-1 #
coedge $-1 $141 $146 $51 $85 forward $136 $-1 #
edge $-1 $147 -17.081925172012149 $148 -11.76015461057581 $84 $149 forward 7 unknown #
loop $-1 $-1 $91 $52 #
plane-surface $-1 -9.8797687526736553 -1.6532817173144494 117.63676467100629 0.81915205242281985 0 0.57357642473473569 0.57357642473473569 0 -0.81915205242281985 forward_v I I I I #
loop $-1 $-1 $150 $34 #
coedge $-1 $89 $89 $90 $151 reversed $53 $-1 #
coedge $-1 $90 $90 $89 $151 forward $55 $-1 #
coedge $-1 $91 $91 $56 $92 forward $86 $-1 #
edge $-1 $152 0 $152 6.2831853071796004 $91 $153 forward 7 unknown #
loop $-1 $-1 $98 $57 #
plane-surface $-1 -9.8797687526736553 -1.6532817173144494 117.63676467100629 0.81915205242281985 0 0.57357642473473569 0.57357642473473569 0 -0.81915205242281985 forward_v I I I I #
loop $-1 $-1 $154 $37 #
coedge $-1 $96 $96 $97 $155 reversed $58 $-1 #
coedge $-1 $97 $97 $96 $155 forward $60 $-1 #
coedge $-1 $98 $98 $61 $99 forward $93 $-1 #
edge $-1 $156 0 $156 6.2831853071796004 $98 $157 forward 7 unknown #
face $-1 $158 $159 $15 $-1 $160 reversed single #
loop $-1 $-1 $161 $62 #
plane-surface $-1 -67.139500106814779 0 0 1 0 0 0 0 -1 forward_v I I I I #
coedge $-1 $162 $111 $163 $164 forward $63 $-1 #
coedge $-1 $165 $65 $162 $166 forward $41 $-1 #
coedge $-1 $65 $165 $167 $168 forward $41 $-1 #
coedge $-1 $114 $113 $65 $107 reversed $115 $-1 #
edge $-1 $169 -30.965064469259225 $170 30.965064469259225 $106 $171 forward 7 unknown #
coedge $-1 $67 $66 $172 $173 forward $26 $-1 #
coedge $-1 $174 $175 $66 $110 reversed $159 $-1 #
edge $-1 $117 -67.139500106814779 $176 67.139500106814779 $109 $177 forward 7 unknown #
coedge $-1 $103 $178 $67 $112 reversed $63 $-1 #
edge $-1 $179 -67.139500106814779 $116 67.139500106814779 $111 $180 forward 7 unknown #
coedge $-1 $106 $68 $178 $181 forward $115 $-1 #
coedge $-1 $68 $106 $174 $182 reversed $115 $-1 #
loop $-1 $-1 $113 $158 #
vertex $-1 $69 $183 #
vertex $-1 $69 $184 #
straight-curve $-1 67.139500106814779 0 15.242122297773031 0 1 0 I I #
face $-1 $185 $131 $16 $-1 $186 reversed single #
loop $-1 $-1 $187 $70 #
plane-surface $-1 -83.114157862581749 -14.085172288432513 0 1 0 0 0 0 -1 forward_v I I I I #
coedge $-1 $188 $189 $190 $191 forward $71 $-1 #
coedge $-1 $192 $73 $188 $193 forward $45 $-1 #
coedge $-1 $73 $192 $129 $194 forward $45 $-1 #
edge $-1 $132 10.33690429736756 $195 17.833440279497466 $73 $196 forward 7 unknown #
coedge $-1 $75 $74 $197 $198 forward $29 $-1 #
coedge $-1 $199 $200 $74 $128 forward $201 $-1 #
edge $-1 $202 -17.833440279497466 $133 -10.33690429736756 $127 $203 forward 7 unknown #
coedge $-1 $204 $76 $124 $194 reversed $131 $-1 #
coedge $-1 $76 $204 $199 $205 reversed $131 $-1 #
loop $-1 $-1 $76 $119 #
vertex $-1 $125 $206 #
vertex $-1 $205 $207 #
straight-curve $-1 -67.139500106814779 -10.33690429736756 0 0 0 1 I I #
face $-1 $-1 $208 $17 $-1 $209 reversed single #
loop $-1 $-1 $84 $78 #
plane-surface $-1 0 0 15.242122297773031 0 0 1 1 0 0 forward_v I I I I #
coedge $-1 $210 $211 $212 $213 reversed $79 $-1 #
coedge $-1 $214 $81 $83 $145 forward $49 $-1 #
coedge $-1 $81 $214 $210 $215 forward $49 $-1 #
coedge $-1 $212 $84 $81 $142 forward $136 $-1 #
edge $-1 $148 -5.780568872160968 $216 7.4338505894754174 $141 $217 forward 7 unknown #
coedge $-1 $218 $219 $82 $144 forward $208 $-1 #
edge $-1 $220 -89.686170716519968 $147 -82.085894467474333 $143 $221 forward 7 unknown #
edge $-1 $148 125.00077619335617 $220 134.27900021362956 $83 $222 forward 7 unknown #
coedge $-1 $84 $212 $218 $223 forward $136 $-1 #
vertex $-1 $85 $224 #
vertex $-1 $85 $225 #
straight-curve $-1 50.057574934802631 4.9539280135037433 15.242122297773037 -1 0 0 I I #
coedge $-1 $150 $150 $-1 $226 reversed $88 $-1 #
edge $-1 $227 0 $227 6.2831853071796004 $89 $228 forward 7 unknown #
vertex $-1 $92 $229 #
ellipse-curve $-1 64.478614826096617 -4.4849430305222491 11.44198417325021 0.81915205242281985 0 0.57357642473473569 0.86036463710210354 0 -1.2287280786342298 1 I I #
coedge $-1 $154 $154 $-1 $230 reversed $95 $-1 #
edge $-1 $231 0 $231 6.2831853071796004 $96 $232 forward 7 unknown #
vertex $-1 $99 $233 #
ellipse-curve $-1 64.478614826096617 1.1783795958933467 11.44198417325021 0.81915205242281985 0 0.57357642473473569 0.86036463710210354 0 -1.2287280786342298 1 I I #
face $-1 $-1 $115 $15 $-1 $234 reversed single #
loop $-1 $-1 $174 $100 #
plane-surface $-1 0 30.965064469259225 0 0 -1 0 0 0 -1 forward_v I I I I #
coedge $-1 $235 $172 $175 $236 forward $101 $-1 #
coedge $-1 $178 $103 $104 $166 reversed $63 $-1 #
coedge $-1 $172 $235 $103 $164 reversed $101 $-1 #
edge $-1 $179 -15.242122297773031 $237 15.242122297773031 $163 $238 forward 7 unknown #
coedge $-1 $105 $104 $235 $239 forward $41 $-1 #
edge $-1 $170 -67.139500106814779 $237 67.139500106814779 $162 $240 forward 7 unknown #
coedge $-1 $175 $174 $105 $168 reversed $159 $-1 #
edge $-1 $241 -67.139500106814779 $169 67.139500106814779 $167 $242 forward 7 unknown #
vertex $-1 $107 $243 #
vertex $-1 $181 $244 #
straight-curve $-1 67.139500106814779 0 -15.242122297773031 0 -1 0 I I #
coedge $-1 $161 $163 $108 $173 reversed $101 $-1 #
edge $-1 $176 -30.965064469259225 $179 30.965064469259225 $172 $245 forward 7 unknown #
coedge $-1 $167 $109 $114 $182 forward $159 $-1 #
coedge $-1 $109 $167 $161 $236 reversed $159 $-1 #
vertex $-1 $110 $246 #
straight-curve $-1 0 30.965064469259225 15.242122297773031 -1 0 0 I I #
coedge $-1 $111 $162 $113 $181 reversed $63 $-1 #
vertex $-1 $173 $247 #
straight-curve $-1 0 -30.965064469259225 15.242122297773031 1 0 0 I I #
edge $-1 $116 -15.242122297773031 $170 15.242122297773031 $113 $248 forward 7 unknown #
edge $-1 $117 -15.242122297773031 $169 15.242122297773031 $114 $249 forward 7 unknown #
point $-1 67.139500106814779 -30.965064469259225 15.242122297773031 #
point $-1 67.139500106814779 30.965064469259225 15.242122297773031 #
face $-1 $-1 $201 $16 $-1 $250 forward single #
plane-surface $-1 -75.126828984698264 -10.33690429736756 0 0 -1 0 0 0 -1 forward_v I I I I #
coedge $-1 $251 $252 $204 $253 forward $120 $-1 #
coedge $-1 $197 $122 $123 $193 reversed $71 $-1 #
coedge $-1 $122 $197 $200 $254 reversed $71 $-1 #
coedge $-1 $252 $251 $122 $191 reversed $120 $-1 #
edge $-1 $255 -15.242122297773031 $256 15.242122297773031 $190 $257 forward 7 unknown #
coedge $-1 $124 $123 $251 $258 forward $45 $-1 #
edge $-1 $195 -7.9873288778834848 $256 7.9873288778834848 $188 $259 forward 7 unknown #
edge $-1 $260 -7.9873288778834848 $132 7.9873288778834848 $129 $261 forward 7 unknown #
vertex $-1 $193 $262 #
straight-curve $-1 -67.139500106814779 0 -15.242122297773031 0 -1 0 I I #
coedge $-1 $189 $188 $126 $198 reversed $71 $-1 #
edge $-1 $202 -15.242122297773031 $195 15.242122297773031 $197 $263 forward 7 unknown #
coedge $-1 $264 $127 $130 $205 forward $201 $-1 #
coedge $-1 $127 $264 $189 $254 forward $201 $-1 #
loop $-1 $-1 $127 $185 #
vertex $-1 $128 $265 #
straight-curve $-1 -67.139500106814779 0 15.242122297773031 0 1 0 I I #
coedge $-1 $130 $129 $187 $253 reversed $131 $-1 #
edge $-1 $133 -7.9873288778834848 $266 7.9873288778834848 $130 $267 forward 7 unknown #
point $-1 -67.139500106814779 -10.33690429736756 -15.242122297773031 #
point $-1 -67.139500106814779 -10.33690429736756 15.242122297773031 #
loop $-1 $-1 $143 $135 #
plane-surface $-1 67.139500106814779 0 0 -1 0 0 0 0 1 forward_v I I I I #
coedge $-1 $211 $138 $140 $215 reversed $79 $-1 #
coedge $-1 $138 $210 $268 $269 reversed $79 $-1 #
coedge $-1 $146 $141 $138 $213 forward $136 $-1 #
edge $-1 $216 11.76015461057581 $270 17.081925172012149 $212 $271 forward 7 unknown #
coedge $-1 $140 $139 $219 $272 reversed $49 $-1 #
edge $-1 $273 -134.27900021362956 $216 -125.00077619335617 $210 $274 forward 7 unknown #
vertex $-1 $142 $275 #
straight-curve $-1 61.817729545378427 -0.8266408586572247 15.242122297773037 0 -1 0 I I #
coedge $-1 $268 $143 $146 $223 reversed $208 $-1 #
coedge $-1 $143 $268 $214 $272 forward $208 $-1 #
vertex $-1 $144 $276 #
straight-curve $-1 67.139500106814779 4.9539280135037433 97.328016765247369 0 0 1 I I #
straight-curve $-1 -9.8797687526736553 4.9539280135037433 117.63676467100629 0.57357642473473569 0 -0.81915205242281985 I I #
edge $-1 $270 -8.2604914481326421 $147 4.9539280135037433 $218 $277 forward 7 unknown #
point $-1 67.139500106814779 4.9539280135037433 15.242122297773031 #
point $-1 61.817729545378441 4.9539280135037433 15.242122297773037 #
edge $-1 $278 1 $278 0 $150 $-1 forward 7 unknown #
vertex $-1 $151 $279 #
ellipse-curve $-1 60.601598436131304 -4.4849430305222491 8.7272681531694296 0.81915205242281985 0 0.57357642473473569 0.86036463710210354 0 -1.2287280786342298 1 I I #
point $-1 65.338979463198712 -4.4849430305222491 10.213256094615966 #
edge $-1 $280 1 $280 0 $154 $-1 forward 7 unknown #
vertex $-1 $155 $281 #
ellipse-curve $-1 60.601598436131304 1.1783795958933467 8.7272681531694296 0.81915205242281985 0 0.57357642473473569 0.86036463710210354 0 -1.2287280786342298 1 I I #
point $-1 65.338979463198712 1.1783795958933467 10.213256094615966 #
plane-surface $-1 67.139500106814779 0 0 -1 0 0 0 0 1 forward_v I I I I #
coedge $-1 $163 $161 $165 $239 reversed $101 $-1 #
edge $-1 $176 -15.242122297773031 $241 15.242122297773031 $175 $282 forward 7 unknown #
vertex $-1 $239 $283 #
straight-curve $-1 -67.139500106814779 -30.965064469259225 0 0 0 -1 I I #
edge $-1 $237 -30.965064469259225 $241 30.965064469259225 $235 $284 forward 7 unknown #
straight-curve $-1 0 -30.965064469259225 -15.242122297773031 -1 0 0 I I #
vertex $-1 $168 $285 #
straight-curve $-1 0 30.965064469259225 -15.242122297773031 1 0 0 I I #
point $-1 67.139500106814779 30.965064469259225 -15.242122297773031 #
point $-1 67.139500106814779 -30.965064469259225 -15.242122297773031 #
straight-curve $-1 -67.139500106814779 0 15.242122297773031 0 -1 0 I I #
point $-1 -67.139500106814779 30.965064469259225 15.242122297773031 #
point $-1 -67.139500106814779 -30.965064469259225 15.242122297773031 #
straight-curve $-1 67.139500106814779 -30.965064469259225 0 0 0 -1 I I #
straight-curve $-1 67.139500106814779 30.965064469259225 0 0 0 -1 I I #
plane-surface $-1 0 0 15.242122297773031 0 0 1 1 0 0 forward_v I I I I #
coedge $-1 $190 $187 $192 $258 reversed $120 $-1 #
coedge $-1 $187 $190 $264 $286 reversed $120 $-1 #
edge $-1 $266 -15.242122297773031 $260 15.242122297773031 $204 $287 forward 7 unknown #
edge $-1 $255 -7.9873288778834848 $202 7.9873288778834848 $189 $288 forward 7 unknown #
vertex $-1 $286 $289 #
vertex $-1 $258 $290 #
straight-curve $-1 -83.114157862581749 -17.833440279497466 0 0 0 -1 I I #
edge $-1 $256 -3.748267991064953 $260 3.748267991064953 $251 $291 forward 7 unknown #
straight-curve $-1 -75.126828984698264 -17.833440279497466 -15.242122297773031 -1 0 0 I I #
vertex $-1 $194 $292 #
straight-curve $-1 -75.126828984698264 -10.33690429736756 -15.242122297773031 1 0 0 I I #
point $-1 -67.139500106814779 -17.833440279497466 -15.242122297773031 #
straight-curve $-1 -67.139500106814779 -17.833440279497466 0 0 0 -1 I I #
coedge $-1 $200 $199 $252 $286 forward $201 $-1 #
point $-1 -67.139500106814779 -17.833440279497466 15.242122297773031 #
vertex $-1 $205 $293 #
straight-curve $-1 -75.126828984698264 -10.33690429736756 15.242122297773031 -1 0 0 I I #
coedge $-1 $219 $218 $211 $269 forward $208 $-1 #
edge $-1 $270 82.085894467474333 $273 89.686170716519968 $268 $294 forward 7 unknown #
vertex $-1 $223 $295 #
straight-curve $-1 50.057574934802631 -8.2604914481326421 15.242122297773037 1 0 0 I I #
edge $-1 $273 -7.4338505894754174 $220 5.780568872160968 $219 $296 forward 7 unknown #
vertex $-1 $272 $297 #
straight-curve $-1 -9.8797687526736553 -8.2604914481326421 117.63676467100629 -0.57357642473473569 0 0.81915205242281985 I I #
point $-1 61.817729545378441 -8.2604914481326421 15.242122297773037 #
point $-1 67.139500106814779 4.9539280135037433 7.6418460487274018 #
straight-curve $-1 67.139500106814779 0 15.242122297773031 0 1 0 I I #
vertex $-1 $226 $298 #
point $-1 61.461963073233406 -4.4849430305222491 7.4985400745351996 #
vertex $-1 $230 $299 #
point $-1 61.461963073233406 1.1783795958933467 7.4985400745351996 #
straight-curve $-1 -67.139500106814779 30.965064469259225 0 0 0 -1 I I #
point $-1 -67.139500106814779 -30.965064469259225 -15.242122297773031 #
straight-curve $-1 -67.139500106814779 0 -15.242122297773031 0 1 0 I I #
point $-1 -67.139500106814779 30.965064469259225 -15.242122297773031 #
edge $-1 $266 -3.748267991064953 $255 3.748267991064953 $252 $300 forward 7 unknown #
straight-curve $-1 -83.114157862581749 -10.33690429736756 0 0 0 -1 I I #
straight-curve $-1 -75.126828984698264 -17.833440279497466 15.242122297773031 1 0 0 I I #
point $-1 -83.114157862581749 -17.833440279497466 15.242122297773031 #
point $-1 -83.114157862581749 -17.833440279497466 -15.242122297773031 #
straight-curve $-1 -83.114157862581749 -14.085172288432513 -15.242122297773031 0 1 0 I I #
point $-1 -83.114157862581749 -10.33690429736756 -15.242122297773031 #
point $-1 -83.114157862581749 -10.33690429736756 15.242122297773031 #
straight-curve $-1 67.139500106814779 -8.2604914481326421 97.328016765247369 0 0 -1 I I #
point $-1 67.139500106814779 -8.2604914481326421 15.242122297773031 #
straight-curve $-1 67.139500106814779 -0.8266408586572247 7.6418460487273947 0 1 0 I I #
point $-1 67.139500106814779 -8.2604914481326421 7.6418460487274018 #
point $-1 59.372870357497071 -4.4849430305222491 7.8669035160673255 #
point $-1 59.372870357497071 1.1783795958933467 7.8669035160673255 #
straight-curve $-1 -83.114157862581749 -14.085172288432513 15.242122297773031 0 -1 0 I I #
End-of-ACIS-data 