500 0 9 0           
7 Unknown 11 ACIS 5.0 NT 24 Fri Mar 26 16:36:32 1999 
-1 9.9999999999999995e-007 1e-010 
body $-1 $9 $-1 $10 #
body $-1 $11 $-1 $12 #
body $-1 $13 $-1 $14 #
body $-1 $15 $-1 $16 #
body $-1 $17 $-1 $18 #
body $-1 $19 $-1 $20 #
body $-1 $21 $-1 $22 #
body $-1 $23 $-1 $24 #
body $-1 $25 $-1 $26 #
lump $-1 $-1 $27 $0 #
transform $-1 1 0 0 0 1 0 0 0 1 45.284585100863673 22.060048350383195 9.188444040982235 1 rotate no_reflect no_shear #
lump $-1 $-1 $28 $1 #
transform $-1 1 0 0 0 1 0 0 0 1 45.284585100863673 22.060048350383195 9.188444040982235 1 rotate no_reflect no_shear #
lump $-1 $-1 $29 $2 #
transform $-1 1 0 0 0 1 0 0 0 1 45.284585100863673 22.060048350383195 9.188444040982235 1 rotate no_reflect no_shear #
lump $-1 $-1 $30 $3 #
transform $-1 1 0 0 0 1 0 0 0 1 45.284585100863673 22.060048350383195 9.188444040982235 1 rotate no_reflect no_shear #
lump $-1 $-1 $31 $4 #
transform $-1 1 0 0 0 1 0 0 0 1 45.284585100863673 22.060048350383195 9.188444040982235 1 rotate no_reflect no_shear #
lump $-1 $-1 $32 $5 #
transform $-1 1 0 0 0 1 0 0 0 1 45.284585100863673 22.060048350383195 9.188444040982235 1 rotate no_reflect no_shear #
lump $-1 $-1 $33 $6 #
transform $-1 1 0 0 0 1 0 0 0 1 45.284585100863673 22.060048350383195 9.188444040982235 1 rotate no_reflect no_shear #
lump $-1 $-1 $34 $7 #
transform $-1 1 0 0 0 1 0 0 0 1 45.284585100863673 22.060048350383195 9.188444040982235 1 rotate no_reflect no_shear #
lump $-1 $-1 $35 $8 #
transform $-1 1 0 0 0 1 0 0 0 1 45.284585100863673 22.060048350383195 9.188444040982235 1 rotate no_reflect no_shear #
shell $-1 $-1 $-1 $36 $-1 $9 #
shell $-1 $-1 $-1 $37 $-1 $11 #
shell $-1 $-1 $-1 $38 $-1 $13 #
shell $-1 $-1 $-1 $39 $-1 $15 #
shell $-1 $-1 $-1 $40 $-1 $17 #
shell $-1 $-1 $-1 $41 $-1 $19 #
shell $-1 $-1 $-1 $42 $-1 $21 #
shell $-1 $-1 $-1 $43 $-1 $23 #
shell $-1 $-1 $-1 $44 $-1 $25 #
face $-1 $45 $46 $27 $-1 $47 forward single #
face $-1 $48 $49 $28 $-1 $50 reversed single #
face $-1 $51 $52 $29 $-1 $53 reversed single #
face $-1 $54 $55 $30 $-1 $56 forward single #
face $-1 $57 $58 $31 $-1 $59 forward single #
face $-1 $60 $61 $32 $-1 $62 forward single #
face $-1 $63 $64 $33 $-1 $65 reversed single #
face $-1 $66 $67 $34 $-1 $68 forward single #
face $-1 $69 $70 $35 $-1 $71 forward single #
face $-1 $72 $73 $27 $-1 $74 reversed single #
loop $-1 $-1 $75 $36 #
plane-surface $-1 0 0 9.188444040982235 0 0 1 1 0 0 forward_v I I I I #
face $-1 $76 $77 $28 $-1 $78 reversed single #
loop $-1 $-1 $79 $37 #
plane-surface $-1 -41.192285376383616 0 6.188444040982235 0 0 1 1 0 0 forward_v I I I I #
face $-1 $80 $81 $29 $-1 $82 reversed single #
loop $-1 $-1 $83 $38 #
plane-surface $-1 -27.476300168281949 -11.237811004052432 34.144950300128045 0 0.6560590369687036 0.75470957328743171 1 0 0 forward_v I I I I #
face $-1 $84 $85 $30 $-1 $86 forward single #
loop $-1 $87 $88 $39 #
cone-surface $-1 -33.250511458454916 18.155581856770407 5.3417665616914789 0 -0.6560590369687036 -0.75470957328743171 1.5 0 0 1 I I 0 1 1.5 forward I I I I #
face $-1 $89 $90 $31 $-1 $91 forward single #
loop $-1 $92 $93 $40 #
cone-surface $-1 -27.476300168281949 18.155581856770407 5.3417665616914789 0 -0.6560590369687036 -0.75470957328743171 1.5 0 0 1 I I 0 1 1.5 forward I I I I #
face $-1 $94 $95 $32 $-1 $96 forward single #
loop $-1 $97 $98 $41 #
cone-surface $-1 -21.702088878108981 18.155581856770407 5.3417665616914789 0 -0.6560590369687036 -0.75470957328743171 1.5 0 0 1 I I 0 1 1.5 forward I I I I #
face $-1 $99 $100 $33 $-1 $101 reversed single #
loop $-1 $-1 $102 $42 #
plane-surface $-1 35.255601823567126 -22.060048350383184 1.9720979240069667 0 -0.86602541151947299 0.49999998660252726 1 0 0 forward_v I I I I #
face $-1 $103 $104 $34 $-1 $105 forward single #
loop $-1 $106 $107 $43 #
cone-surface $-1 30.957466133297181 -19.16072958311198 5.109072838438304 0 0.86602541151947299 -0.49999998660252726 1 0 0 1 I I 0 1 1 forward I I I I #
face $-1 $108 $109 $35 $-1 $110 forward single #
loop $-1 $111 $112 $44 #
cone-surface $-1 39.553737513837071 -19.16072958311198 5.109072838438304 0 0.86602541151947299 -0.49999998660252726 1 0 0 1 I I 0 1 1 forward I I I I #
face $-1 $113 $114 $27 $-1 $115 reversed single #
loop $-1 $-1 $116 $45 #
plane-surface $-1 0 0 -9.188444040982235 0 0 1 1 0 0 forward_v I I I I #
coedge $-1 $117 $118 $119 $120 forward $46 $-1 #
face $-1 $121 $122 $28 $-1 $123 reversed single #
loop $-1 $-1 $124 $48 #
plane-surface $-1 -37.099985651903559 0 7.688444040982235 -1 0 0 0 0 1 forward_v I I I I #
coedge $-1 $125 $126 $127 $128 forward $49 $-1 #
face $-1 $129 $130 $29 $-1 $131 forward single #
loop $-1 $-1 $132 $51 #
plane-surface $-1 -17.852614684660331 48.18091157754742 102.49837009607046 -1 0 0 0 0.6560590369687036 0.75470957328743171 forward_v I I I I #
coedge $-1 $133 $134 $135 $136 reversed $52 $-1 #
face $-1 $-1 $137 $30 $-1 $138 forward single #
loop $-1 $139 $140 $54 #
cone-surface $-1 -33.250511458454916 16.053412891554967 2.9234978490976911 0 -0.6560590369687036 -0.75470957328743171 0.75 0 0 1 I I -0.70710678118654757 0.70710678118654757 0.75 forward I I I I #
loop $-1 $-1 $141 $39 #
coedge $-1 $88 $88 $142 $143 reversed $55 $-1 #
face $-1 $-1 $144 $31 $-1 $145 forward single #
loop $-1 $146 $147 $57 #
cone-surface $-1 -27.476300168281949 16.053412891554967 2.9234978490976911 0 -0.6560590369687036 -0.75470957328743171 0.75 0 0 1 I I -0.70710678118654757 0.70710678118654757 0.75 forward I I I I #
loop $-1 $-1 $148 $40 #
coedge $-1 $93 $93 $149 $150 reversed $58 $-1 #
face $-1 $-1 $151 $32 $-1 $152 forward single #
loop $-1 $153 $154 $60 #
cone-surface $-1 -21.702088878108981 16.053412891554967 2.9234978490976911 0 -0.6560590369687036 -0.75470957328743171 0.75 0 0 1 I I -0.70710678118654757 0.70710678118654757 0.75 forward I I I I #
loop $-1 $-1 $155 $41 #
coedge $-1 $98 $98 $156 $157 reversed $61 $-1 #
face $-1 $158 $159 $33 $-1 $160 reversed single #
loop $-1 $-1 $161 $63 #
plane-surface $-1 25.226618546270593 -100.49525124531131 47.25668181147266 1 0 0 0 0.86602541151947299 -0.49999998660252726 forward_v I I I I #
coedge $-1 $162 $163 $164 $165 reversed $64 $-1 #
face $-1 $-1 $166 $34 $-1 $167 forward single #
loop $-1 $168 $169 $66 #
cone-surface $-1 30.957466133297181 -17.911577722256702 4.387874701080742 0 0.86602541151947299 -0.49999998660252726 0.5 0 0 1 I I -0.70710678118654746 0.70710678118654746 0.5 forward I I I I #
loop $-1 $-1 $170 $43 #
coedge $-1 $107 $107 $171 $172 reversed $67 $-1 #
face $-1 $-1 $173 $35 $-1 $174 forward single #
loop $-1 $175 $176 $69 #
cone-surface $-1 39.553737513837071 -17.911577722256702 4.387874701080742 0 0.86602541151947299 -0.49999998660252726 0.5 0 0 1 I I -0.70710678118654746 0.70710678118654746 0.5 forward I I I I #
loop $-1 $-1 $177 $44 #
coedge $-1 $112 $112 $178 $179 reversed $70 $-1 #
face $-1 $180 $181 $27 $-1 $182 reversed single #
loop $-1 $-1 $183 $72 #
plane-surface $-1 0 -22.060048350383195 0 0 1 0 0 0 1 forward_v I I I I #
coedge $-1 $184 $185 $186 $187 forward $73 $-1 #
coedge $-1 $188 $75 $189 $190 forward $46 $-1 #
coedge $-1 $75 $188 $191 $192 forward $46 $-1 #
coedge $-1 $193 $194 $75 $120 reversed $195 $-1 #
edge $-1 $196 -22.060048350383195 $197 22.060048350383195 $119 $198 forward 7 unknown #
face $-1 $199 $200 $28 $-1 $201 reversed single #
loop $-1 $-1 $202 $76 #
plane-surface $-1 0 22.060048350383195 0 0 -1 0 0 0 -1 forward_v I I I I #
coedge $-1 $203 $204 $205 $206 reversed $77 $-1 #
coedge $-1 $207 $79 $208 $209 reversed $49 $-1 #
coedge $-1 $79 $207 $210 $211 reversed $49 $-1 #
coedge $-1 $204 $203 $79 $128 reversed $77 $-1 #
edge $-1 $212 -22.060048350383195 $213 22.060048350383195 $127 $214 forward 7 unknown #
face $-1 $215 $216 $29 $-1 $217 reversed single #
loop $-1 $-1 $135 $80 #
plane-surface $-1 0 0 9.188444040982235 0 0 1 1 0 0 forward_v I I I I #
coedge $-1 $218 $219 $220 $221 reversed $81 $-1 #
coedge $-1 $222 $83 $223 $224 reversed $52 $-1 #
coedge $-1 $83 $222 $218 $225 forward $52 $-1 #
coedge $-1 $220 $226 $83 $136 forward $130 $-1 #
edge $-1 $227 -23.361835567762583 $228 -4.1144646005193568 $135 $229 forward 7 unknown #
loop $-1 $-1 $142 $84 #
plane-surface $-1 -27.476300168281949 -11.237811004052432 34.144950300128045 0 0.6560590369687036 0.75470957328743171 1 0 0 forward_v I I I I #
loop $-1 $-1 $230 $54 #
coedge $-1 $140 $140 $141 $231 reversed $85 $-1 #
coedge $-1 $141 $141 $140 $231 forward $87 $-1 #
coedge $-1 $142 $142 $88 $143 forward $137 $-1 #
edge $-1 $232 3.0962715851239789e-016 $232 6.2831853071796004 $142 $233 forward 7 unknown #
loop $-1 $-1 $149 $89 #
plane-surface $-1 -27.476300168281949 -11.237811004052432 34.144950300128045 0 0.6560590369687036 0.75470957328743171 1 0 0 forward_v I I I I #
loop $-1 $-1 $234 $57 #
coedge $-1 $147 $147 $148 $235 reversed $90 $-1 #
coedge $-1 $148 $148 $147 $235 forward $92 $-1 #
coedge $-1 $149 $149 $93 $150 forward $144 $-1 #
edge $-1 $236 3.0962715851239789e-016 $236 6.2831853071796004 $149 $237 forward 7 unknown #
loop $-1 $-1 $156 $94 #
plane-surface $-1 -27.476300168281949 -11.237811004052432 34.144950300128045 0 0.6560590369687036 0.75470957328743171 1 0 0 forward_v I I I I #
loop $-1 $-1 $238 $60 #
coedge $-1 $154 $154 $155 $239 reversed $95 $-1 #
coedge $-1 $155 $155 $154 $239 forward $97 $-1 #
coedge $-1 $156 $156 $98 $157 forward $151 $-1 #
edge $-1 $240 3.0962715851239789e-016 $240 6.2831853071796004 $156 $241 forward 7 unknown #
face $-1 $242 $243 $33 $-1 $244 forward single #
loop $-1 $-1 $245 $99 #
plane-surface $-1 45.284585100863673 0 0 -1 0 0 0 0 1 forward_v I I I I #
coedge $-1 $246 $247 $248 $249 reversed $100 $-1 #
coedge $-1 $250 $102 $245 $251 reversed $64 $-1 #
coedge $-1 $102 $250 $246 $252 forward $64 $-1 #
coedge $-1 $248 $253 $102 $165 forward $243 $-1 #
edge $-1 $254 -27.656784189080096 $255 -7.5988176344870304 $164 $256 forward 7 unknown #
loop $-1 $-1 $171 $103 #
plane-surface $-1 35.255601823567126 -22.060048350383184 1.9720979240069667 0 -0.86602541151947299 0.49999998660252726 1 0 0 forward_v I I I I #
loop $-1 $-1 $257 $66 #
coedge $-1 $169 $169 $170 $258 reversed $104 $-1 #
coedge $-1 $170 $170 $169 $258 forward $106 $-1 #
coedge $-1 $171 $171 $107 $172 forward $166 $-1 #
edge $-1 $259 1.8315819863588817e-015 $259 6.2831853071796022 $171 $260 forward 7 unknown #
loop $-1 $-1 $178 $108 #
plane-surface $-1 35.255601823567126 -22.060048350383184 1.9720979240069667 0 -0.86602541151947299 0.49999998660252726 1 0 0 forward_v I I I I #
loop $-1 $-1 $261 $69 #
coedge $-1 $176 $176 $177 $262 reversed $109 $-1 #
coedge $-1 $177 $177 $176 $262 forward $111 $-1 #
coedge $-1 $178 $178 $112 $179 forward $173 $-1 #
edge $-1 $263 1.8315819863588817e-015 $263 6.2831853071796022 $178 $264 forward 7 unknown #
face $-1 $265 $266 $27 $-1 $267 reversed single #
loop $-1 $-1 $268 $113 #
plane-surface $-1 -45.284585100863673 0 0 1 0 0 0 0 -1 forward_v I I I I #
coedge $-1 $269 $191 $270 $271 forward $114 $-1 #
coedge $-1 $272 $116 $269 $273 forward $73 $-1 #
coedge $-1 $116 $272 $274 $275 forward $73 $-1 #
coedge $-1 $194 $193 $116 $187 reversed $195 $-1 #
edge $-1 $276 -22.060048350383195 $277 22.060048350383195 $186 $278 forward 7 unknown #
coedge $-1 $118 $117 $279 $280 forward $46 $-1 #
coedge $-1 $281 $282 $117 $190 reversed $266 $-1 #
edge $-1 $197 -45.284585100863673 $283 45.284585100863673 $189 $284 forward 7 unknown #
coedge $-1 $183 $285 $118 $192 reversed $114 $-1 #
edge $-1 $286 -45.284585100863673 $196 45.284585100863673 $191 $287 forward 7 unknown #
coedge $-1 $186 $119 $285 $288 forward $195 $-1 #
coedge $-1 $119 $186 $281 $289 reversed $195 $-1 #
loop $-1 $-1 $193 $265 #
vertex $-1 $120 $290 #
vertex $-1 $120 $291 #
straight-curve $-1 45.284585100863673 0 9.188444040982235 0 1 0 I I #
face $-1 $292 $293 $28 $-1 $294 forward single #
loop $-1 $-1 $295 $121 #
plane-surface $-1 -45.284585100863673 0 0 1 0 0 0 0 -1 forward_v I I I I #
coedge $-1 $210 $296 $204 $297 forward $122 $-1 #
coedge $-1 $127 $124 $298 $299 reversed $77 $-1 #
coedge $-1 $124 $127 $202 $297 reversed $77 $-1 #
coedge $-1 $300 $301 $124 $206 forward $293 $-1 #
edge $-1 $302 -22.060048350383195 $303 22.060048350383195 $205 $304 forward 7 unknown #
coedge $-1 $126 $125 $295 $305 reversed $49 $-1 #
coedge $-1 $298 $306 $125 $209 forward $307 $-1 #
edge $-1 $308 -24.688442412671865 $213 -16.503842963711751 $208 $309 forward 7 unknown #
coedge $-1 $310 $202 $126 $211 forward $122 $-1 #
edge $-1 $212 16.503842963711751 $311 24.688442412671865 $210 $312 forward 7 unknown #
vertex $-1 $211 $313 #
vertex $-1 $209 $314 #
straight-curve $-1 -37.099985651903559 0 6.188444040982235 0 -1 0 I I #
face $-1 $-1 $315 $29 $-1 $316 forward single #
loop $-1 $-1 $317 $129 #
plane-surface $-1 0 22.060048350383195 0 0 -1 0 0 0 -1 forward_v I I I I #
coedge $-1 $219 $132 $134 $225 reversed $81 $-1 #
coedge $-1 $132 $218 $317 $318 reversed $81 $-1 #
coedge $-1 $319 $135 $132 $221 forward $130 $-1 #
edge $-1 $228 -6.6190910506382536 $320 -2.0304074383905153 $220 $321 forward 7 unknown #
coedge $-1 $134 $133 $322 $323 reversed $52 $-1 #
coedge $-1 $324 $325 $133 $224 forward $315 $-1 #
edge $-1 $326 -31.200939918023952 $227 -25.120874453556681 $223 $327 forward 7 unknown #
edge $-1 $328 -44.120096700766396 $228 -38.040031236299129 $218 $329 forward 7 unknown #
coedge $-1 $135 $319 $324 $330 forward $130 $-1 #
vertex $-1 $224 $331 #
vertex $-1 $136 $332 #
straight-curve $-1 -13.738150084140974 17.471364738135453 9.1884440409822403 1 0 0 I I #
coedge $-1 $230 $230 $-1 $333 reversed $139 $-1 #
edge $-1 $334 0 $334 6.2831853071796004 $140 $335 forward 7 unknown #
vertex $-1 $143 $336 #
ellipse-curve $-1 -33.250511458454916 19.765706544259327 7.1940030943197018 0 0.6560590369687036 0.75470957328743171 1.5 0 0 1 I I #
coedge $-1 $234 $234 $-1 $337 reversed $146 $-1 #
edge $-1 $338 0 $338 6.2831853071796004 $147 $339 forward 7 unknown #
vertex $-1 $150 $340 #
ellipse-curve $-1 -27.476300168281949 19.765706544259327 7.1940030943197018 0 0.6560590369687036 0.75470957328743171 1.5 0 0 1 I I #
coedge $-1 $238 $238 $-1 $341 reversed $153 $-1 #
edge $-1 $342 0 $342 6.2831853071796004 $154 $343 forward 7 unknown #
vertex $-1 $157 $344 #
ellipse-curve $-1 -21.702088878108981 19.765706544259327 7.1940030943197018 0 0.6560590369687036 0.75470957328743171 1.5 0 0 1 I I #
face $-1 $-1 $345 $33 $-1 $346 reversed single #
loop $-1 $-1 $164 $158 #
plane-surface $-1 0 0 9.188444040982235 0 0 1 1 0 0 forward_v I I I I #
coedge $-1 $347 $348 $162 $251 forward $159 $-1 #
coedge $-1 $247 $161 $163 $252 reversed $100 $-1 #
coedge $-1 $161 $246 $349 $350 reversed $100 $-1 #
coedge $-1 $351 $164 $161 $249 forward $243 $-1 #
edge $-1 $255 -32.353936496623824 $352 -28.18757727227246 $248 $353 forward 7 unknown #
coedge $-1 $163 $162 $354 $355 reversed $64 $-1 #
edge $-1 $356 -4.6610684817239525 $254 3.6716501902535188 $245 $357 forward 7 unknown #
edge $-1 $358 -2.1289660814946558e-014 $255 8.3327186719774495 $246 $359 forward 7 unknown #
coedge $-1 $164 $351 $347 $360 forward $243 $-1 #
vertex $-1 $251 $361 #
vertex $-1 $165 $362 #
straight-curve $-1 17.627800911783563 -17.893689126031827 9.188444040982235 -1 0 0 I I #
coedge $-1 $257 $257 $-1 $363 reversed $168 $-1 #
edge $-1 $364 0 $364 6.2831853071796004 $169 $365 forward 7 unknown #
vertex $-1 $172 $366 #
ellipse-curve $-1 30.957466133297181 -19.976868738207511 5.5802709824945964 0 -0.86602541151947299 0.49999998660252726 1 0 0 1 I I #
coedge $-1 $261 $261 $-1 $367 reversed $175 $-1 #
edge $-1 $368 0 $368 6.2831853071796004 $176 $369 forward 7 unknown #
vertex $-1 $179 $370 #
ellipse-curve $-1 39.553737513837071 -19.976868738207511 5.5802709824945964 0 -0.86602541151947299 0.49999998660252726 1 0 0 1 I I #
face $-1 $-1 $195 $27 $-1 $371 reversed single #
loop $-1 $-1 $281 $180 #
plane-surface $-1 0 22.060048350383195 0 0 -1 0 0 0 -1 forward_v I I I I #
coedge $-1 $372 $279 $282 $373 forward $181 $-1 #
coedge $-1 $285 $183 $184 $273 reversed $114 $-1 #
coedge $-1 $279 $372 $183 $271 reversed $181 $-1 #
edge $-1 $286 -9.188444040982235 $374 9.188444040982235 $270 $375 forward 7 unknown #
coedge $-1 $185 $184 $372 $376 forward $73 $-1 #
edge $-1 $277 -45.284585100863673 $374 45.284585100863673 $269 $377 forward 7 unknown #
coedge $-1 $282 $281 $185 $275 reversed $266 $-1 #
edge $-1 $378 -45.284585100863673 $276 45.284585100863673 $274 $379 forward 7 unknown #
vertex $-1 $187 $380 #
vertex $-1 $288 $381 #
straight-curve $-1 45.284585100863673 0 -9.188444040982235 0 -1 0 I I #
coedge $-1 $268 $270 $188 $280 reversed $181 $-1 #
edge $-1 $283 -22.060048350383195 $286 22.060048350383195 $279 $382 forward 7 unknown #
coedge $-1 $274 $189 $194 $289 forward $266 $-1 #
coedge $-1 $189 $274 $268 $373 reversed $266 $-1 #
vertex $-1 $190 $383 #
straight-curve $-1 0 22.060048350383195 9.188444040982235 -1 0 0 I I #
coedge $-1 $191 $269 $193 $288 reversed $114 $-1 #
vertex $-1 $280 $384 #
straight-curve $-1 0 -22.060048350383195 9.188444040982235 1 0 0 I I #
edge $-1 $196 -9.188444040982235 $277 9.188444040982235 $193 $385 forward 7 unknown #
edge $-1 $197 -9.188444040982235 $276 9.188444040982235 $194 $386 forward 7 unknown #
point $-1 45.284585100863673 -22.060048350383195 9.188444040982235 #
point $-1 45.284585100863673 22.060048350383195 9.188444040982235 #
face $-1 $-1 $307 $28 $-1 $387 reversed single #
loop $-1 $-1 $205 $199 #
plane-surface $-1 0 0 9.188444040982235 0 0 1 1 0 0 forward_v I I I I #
coedge $-1 $388 $389 $207 $305 forward $200 $-1 #
coedge $-1 $202 $310 $300 $390 reversed $122 $-1 #
edge $-1 $303 -5.3442220204911175 $212 -2.3442220204911175 $202 $391 forward 7 unknown #
coedge $-1 $392 $208 $203 $299 forward $307 $-1 #
edge $-1 $213 2.3442220204911175 $302 5.3442220204911175 $298 $393 forward 7 unknown #
coedge $-1 $394 $205 $296 $390 forward $293 $-1 #
coedge $-1 $205 $394 $392 $395 forward $293 $-1 #
vertex $-1 $299 $396 #
vertex $-1 $390 $397 #
straight-curve $-1 -37.099985651903559 0 9.188444040982235 0 1 0 I I #
edge $-1 $311 -22.060048350383195 $308 22.060048350383195 $295 $398 forward 7 unknown #
coedge $-1 $208 $392 $388 $399 forward $307 $-1 #
loop $-1 $-1 $298 $292 #
vertex $-1 $305 $400 #
straight-curve $-1 -20.596142688191808 -22.060048350383195 6.188444040982235 1 0 0 I I #
coedge $-1 $296 $210 $389 $401 reversed $122 $-1 #
vertex $-1 $305 $402 #
straight-curve $-1 -20.596142688191808 22.060048350383195 6.188444040982235 -1 0 0 I I #
point $-1 -37.099985651903559 22.060048350383195 6.188444040982235 #
point $-1 -37.099985651903559 -22.060048350383195 6.188444040982235 #
loop $-1 $-1 $223 $215 #
plane-surface $-1 -37.099985651903559 0 7.688444040982235 -1 0 0 0 0 1 forward_v I I I I #
coedge $-1 $322 $403 $219 $318 forward $216 $-1 #
edge $-1 $320 42.060741007052997 $328 46.049622900378068 $317 $404 forward 7 unknown #
coedge $-1 $226 $220 $403 $405 forward $130 $-1 #
vertex $-1 $405 $406 #
straight-curve $-1 -17.852614684660331 24.09045578877371 9.1884440409822332 0 1 0 I I #
coedge $-1 $407 $317 $222 $323 forward $216 $-1 #
edge $-1 $328 4.1144646005193568 $326 23.36183556776259 $322 $408 forward 7 unknown #
coedge $-1 $325 $223 $226 $330 reversed $315 $-1 #
coedge $-1 $223 $324 $407 $409 reversed $315 $-1 #
vertex $-1 $409 $410 #
straight-curve $-1 -37.099985651903559 -1.4875997013154496 25.669220742794341 0 -0.75470957328743171 0.6560590369687036 I I #
vertex $-1 $323 $411 #
straight-curve $-1 -17.852614684660331 -11.237811004052432 34.144950300128045 0 -0.75470957328743171 0.6560590369687036 I I #
edge $-1 $412 -22.060048350383195 $227 -17.471364738135456 $226 $413 forward 7 unknown #
point $-1 -37.099985651903559 17.471364738135456 9.188444040982235 #
point $-1 -17.852614684660331 17.471364738135456 9.1884440409822332 #
edge $-1 $414 1 $414 0 $230 $-1 forward 7 unknown #
vertex $-1 $231 $415 #
ellipse-curve $-1 -33.250511458454916 16.545457169281494 3.4895300290632649 0 0.6560590369687036 0.75470957328743171 1.5 0 0 1 I I #
point $-1 -31.750511458454916 19.76570654425932 7.1940030943196929 #
edge $-1 $416 1 $416 0 $234 $-1 forward 7 unknown #
vertex $-1 $235 $417 #
ellipse-curve $-1 -27.476300168281949 16.545457169281494 3.4895300290632649 0 0.6560590369687036 0.75470957328743171 1.5 0 0 1 I I #
point $-1 -25.976300168281949 19.76570654425932 7.1940030943196929 #
edge $-1 $418 1 $418 0 $238 $-1 forward 7 unknown #
vertex $-1 $239 $419 #
ellipse-curve $-1 -21.702088878108981 16.545457169281494 3.4895300290632649 0 0.6560590369687036 0.75470957328743171 1.5 0 0 1 I I #
point $-1 -20.202088878108981 19.76570654425932 7.1940030943196929 #
loop $-1 $-1 $354 $242 #
plane-surface $-1 0 -22.060048350383195 0 0 1 0 0 0 1 forward_v I I I I #
coedge $-1 $348 $245 $253 $360 reversed $159 $-1 #
coedge $-1 $245 $347 $420 $421 forward $159 $-1 #
coedge $-1 $354 $422 $247 $350 forward $345 $-1 #
edge $-1 $352 14.439896864754095 $358 21.656242981729381 $349 $423 forward 7 unknown #
coedge $-1 $253 $248 $422 $424 forward $243 $-1 #
vertex $-1 $424 $425 #
straight-curve $-1 25.226618546270593 -50.247625622655654 9.1884440409822332 0 -1 0 I I #
coedge $-1 $420 $349 $250 $355 forward $345 $-1 #
edge $-1 $358 7.5988176344870304 $356 27.656784189080096 $354 $426 forward 7 unknown #
vertex $-1 $251 $427 #
straight-curve $-1 45.284585100863673 -19.729514171967757 6.0087016740123804 0 0.49999998660252726 0.86602541151947299 I I #
vertex $-1 $355 $428 #
straight-curve $-1 25.226618546270593 -22.060048350383184 1.9720979240069667 0 0.49999998660252726 0.86602541151947299 I I #
edge $-1 $429 -22.060048350383195 $254 -17.89368912603183 $347 $430 forward 7 unknown #
point $-1 45.284585100863659 -17.89368912603183 9.188444040982235 #
point $-1 25.226618546270593 -17.89368912603183 9.188444040982235 #
edge $-1 $431 1 $431 0 $257 $-1 forward 7 unknown #
vertex $-1 $258 $432 #
ellipse-curve $-1 30.957466133297181 -18.344590428016438 4.6378746943820053 0 -0.86602541151947299 0.49999998660252726 1 0 0 1 I I #
point $-1 31.957466133297181 -19.976868738207518 5.5802709824946026 #
edge $-1 $433 1 $433 0 $261 $-1 forward 7 unknown #
vertex $-1 $262 $434 #
ellipse-curve $-1 39.553737513837071 -18.344590428016438 4.6378746943820053 0 -0.86602541151947299 0.49999998660252726 1 0 0 1 I I #
point $-1 40.553737513837071 -19.976868738207518 5.5802709824946026 #
plane-surface $-1 45.284585100863673 0 0 -1 0 0 0 0 1 forward_v I I I I #
coedge $-1 $270 $268 $272 $376 reversed $181 $-1 #
edge $-1 $283 -9.188444040982235 $378 9.188444040982235 $282 $435 forward 7 unknown #
vertex $-1 $376 $436 #
straight-curve $-1 -45.284585100863673 -22.060048350383195 0 0 0 -1 I I #
edge $-1 $374 -22.060048350383195 $378 22.060048350383195 $372 $437 forward 7 unknown #
straight-curve $-1 0 -22.060048350383195 -9.188444040982235 -1 0 0 I I #
vertex $-1 $275 $438 #
straight-curve $-1 0 22.060048350383195 -9.188444040982235 1 0 0 I I #
point $-1 45.284585100863673 22.060048350383195 -9.188444040982235 #
point $-1 45.284585100863673 -22.060048350383195 -9.188444040982235 #
straight-curve $-1 -45.284585100863673 0 9.188444040982235 0 -1 0 I I #
point $-1 -45.284585100863673 22.060048350383195 9.188444040982235 #
point $-1 -45.284585100863673 -22.060048350383195 9.188444040982235 #
straight-curve $-1 45.284585100863673 -22.060048350383195 0 0 0 -1 I I #
straight-curve $-1 45.284585100863673 22.060048350383195 0 0 0 -1 I I #
plane-surface $-1 0 -22.060048350383195 0 0 1 0 0 0 1 forward_v I I I I #
coedge $-1 $439 $295 $306 $399 reversed $200 $-1 #
coedge $-1 $295 $439 $310 $401 forward $200 $-1 #
edge $-1 $303 37.099985651903559 $440 45.284585100863673 $296 $441 forward 7 unknown #
straight-curve $-1 -37.099985651903559 22.060048350383195 3.8442220204911175 0 0 -1 I I #
coedge $-1 $306 $298 $301 $395 reversed $307 $-1 #
straight-curve $-1 -37.099985651903559 -22.060048350383195 3.8442220204911175 0 0 1 I I #
coedge $-1 $301 $300 $439 $442 forward $293 $-1 #
edge $-1 $443 -45.284585100863673 $302 -37.099985651903559 $392 $444 forward 7 unknown #
point $-1 -37.099985651903559 -22.060048350383195 9.188444040982235 #
point $-1 -37.099985651903559 22.060048350383195 9.188444040982235 #
straight-curve $-1 -45.284585100863673 0 6.188444040982235 0 -1 0 I I #
edge $-1 $443 -9.188444040982235 $308 -6.188444040982235 $388 $445 forward 7 unknown #
point $-1 -45.284585100863673 -22.060048350383195 6.188444040982235 #
edge $-1 $440 -9.188444040982235 $311 -6.188444040982235 $310 $446 forward 7 unknown #
point $-1 -45.284585100863673 22.060048350383195 6.188444040982235 #
coedge $-1 $317 $407 $319 $405 reversed $216 $-1 #
straight-curve $-1 -17.852614684660331 22.060048350383195 51.24918504803523 0 0 -1 I I #
edge $-1 $320 17.852614684660331 $412 37.099985651903559 $403 $447 forward 7 unknown #
point $-1 -17.852614684660331 22.060048350383195 9.188444040982235 #
coedge $-1 $403 $322 $325 $409 forward $216 $-1 #
straight-curve $-1 -13.738150084140974 22.060048350383195 5.1995621476571667 -1 0 0 I I #
edge $-1 $326 -46.049622900378068 $412 -42.060741007052997 $407 $448 forward 7 unknown #
point $-1 -37.099985651903566 22.060048350383198 5.199562147657165 #
point $-1 -17.852614684660331 22.060048350383198 5.199562147657165 #
vertex $-1 $330 $449 #
straight-curve $-1 -37.099985651903559 0 9.188444040982235 0 -1 0 I I #
vertex $-1 $333 $450 #
point $-1 -31.750511458454916 16.545457169281494 3.4895300290632649 #
vertex $-1 $337 $451 #
point $-1 -25.976300168281949 16.545457169281494 3.4895300290632649 #
vertex $-1 $341 $452 #
point $-1 -20.202088878108981 16.545457169281494 3.4895300290632649 #
coedge $-1 $422 $354 $348 $421 reversed $345 $-1 #
edge $-1 $429 -9.188444040982235 $356 -1.9720979240069483 $348 $453 forward 7 unknown #
coedge $-1 $349 $420 $351 $424 reversed $345 $-1 #
straight-curve $-1 25.226618546270593 -22.060048350383191 23.62834090573633 0 0 -1 I I #
edge $-1 $352 25.226618546270593 $429 45.284585100863673 $422 $454 forward 7 unknown #
point $-1 25.226618546270593 -22.060048350383195 9.188444040982235 #
straight-curve $-1 17.627800911783563 -22.060048350383195 1.9720979240069505 1 0 0 I I #
point $-1 45.284585100863659 -22.060048350383195 1.9720979240069483 #
point $-1 25.226618546270593 -22.060048350383195 1.9720979240069483 #
vertex $-1 $360 $455 #
straight-curve $-1 45.284585100863673 0 9.188444040982235 0 1 0 I I #
vertex $-1 $363 $456 #
point $-1 31.957466133297181 -18.344590428016438 4.6378746943820053 #
vertex $-1 $367 $457 #
point $-1 40.553737513837071 -18.344590428016438 4.6378746943820053 #
straight-curve $-1 -45.284585100863673 22.060048350383195 0 0 0 -1 I I #
point $-1 -45.284585100863673 -22.060048350383195 -9.188444040982235 #
straight-curve $-1 -45.284585100863673 0 -9.188444040982235 0 1 0 I I #
point $-1 -45.284585100863673 22.060048350383195 -9.188444040982235 #
coedge $-1 $389 $388 $394 $442 reversed $200 $-1 #
vertex $-1 $390 $458 #
straight-curve $-1 0 22.060048350383195 9.188444040982235 -1 0 0 I I #
edge $-1 $440 -22.060048350383195 $443 22.060048350383195 $439 $459 forward 7 unknown #
vertex $-1 $442 $460 #
straight-curve $-1 0 -22.060048350383195 9.188444040982235 1 0 0 I I #
straight-curve $-1 -45.284585100863673 -22.060048350383195 0 0 0 -1 I I #
straight-curve $-1 -45.284585100863673 22.060048350383195 0 0 0 -1 I I #
straight-curve $-1 0 22.060048350383195 9.188444040982235 -1 0 0 I I #
straight-curve $-1 -37.099985651903566 22.060048350383195 51.24918504803523 0 0 1 I I #
point $-1 -37.099985651903559 22.060048350383195 9.188444040982235 #
point $-1 -33.250511458454916 15.561368613828439 2.3574656691321172 #
point $-1 -27.476300168281949 15.561368613828439 2.3574656691321172 #
point $-1 -21.702088878108981 15.561368613828439 2.3574656691321172 #
straight-curve $-1 45.284585100863673 -22.060048350383195 0 0 0 -1 I I #
straight-curve $-1 0 -22.060048350383195 9.188444040982235 1 0 0 I I #
point $-1 45.284585100863673 -22.060048350383195 9.188444040982235 #
point $-1 30.957466133297181 -17.478565016496965 4.1378747077794786 #
point $-1 39.553737513837071 -17.478565016496965 4.1378747077794786 #
point $-1 -45.284585100863673 22.060048350383195 9.188444040982235 #
straight-curve $-1 -45.284585100863673 0 9.188444040982235 0 -1 0 I I #
point $-1 -45.284585100863673 -22.060048350383195 9.188444040982235 #
End-of-ACIS-data 