500 0 6 0           
7 Unknown 11 ACIS 5.0 NT 24 Thu Mar 25 22:44:09 1999 
-1 9.9999999999999995e-007 1e-010 
body $-1 $6 $-1 $7 #
body $-1 $8 $-1 $9 #
body $-1 $10 $-1 $11 #
body $-1 $12 $-1 $13 #
body $-1 $14 $-1 $15 #
body $-1 $16 $-1 $17 #
lump $-1 $-1 $18 $0 #
transform $-1 1 0 0 0 1 0 0 0 1 72.822046571245465 32.668467469527961 16.298940184899138 1 rotate no_reflect no_shear #
lump $-1 $-1 $19 $1 #
transform $-1 1 0 0 0 1 0 0 0 1 72.822046571245465 32.668467469527961 16.298940184899138 1 rotate no_reflect no_shear #
lump $-1 $-1 $20 $2 #
transform $-1 1 0 0 0 1 0 0 0 1 72.822046571245465 32.668467469527961 16.298940184899138 1 rotate no_reflect no_shear #
lump $-1 $-1 $21 $3 #
transform $-1 1 0 0 0 1 0 0 0 1 72.822046571245465 32.668467469527961 16.298940184899138 1 rotate no_reflect no_shear #
lump $-1 $-1 $22 $4 #
transform $-1 1 0 0 0 1 0 0 0 1 72.822046571245465 32.668467469527961 16.298940184899138 1 rotate no_reflect no_shear #
lump $-1 $-1 $23 $5 #
transform $-1 1 0 0 0 1 0 0 0 1 72.822046571245465 32.668467469527961 16.298940184899138 1 rotate no_reflect no_shear #
shell $-1 $-1 $-1 $24 $-1 $6 #
shell $-1 $-1 $-1 $25 $-1 $8 #
shell $-1 $-1 $-1 $26 $-1 $10 #
shell $-1 $-1 $-1 $27 $-1 $12 #
shell $-1 $-1 $-1 $28 $-1 $14 #
shell $-1 $-1 $-1 $29 $-1 $16 #
face $-1 $30 $31 $18 $-1 $32 forward single #
face $-1 $33 $34 $19 $-1 $35 forward single #
face $-1 $36 $37 $20 $-1 $38 forward single #
face $-1 $39 $40 $21 $-1 $41 reversed single #
face $-1 $42 $43 $22 $-1 $44 forward single #
face $-1 $45 $46 $23 $-1 $47 forward single #
face $-1 $48 $49 $18 $-1 $50 reversed single #
loop $-1 $-1 $51 $24 #
plane-surface $-1 0 0 16.298940184899138 0 0 1 1 0 0 forward_v I I I I #
face $-1 $52 $53 $19 $-1 $54 forward single #
loop $-1 $-1 $55 $25 #
plane-surface $-1 0 -32.668467469527961 0 0 1 0 0 0 1 forward_v I I I I #
face $-1 $56 $57 $20 $-1 $58 reversed single #
loop $-1 $-1 $59 $26 #
plane-surface $-1 0 32.668467469527961 0 0 -1 0 0 0 -1 forward_v I I I I #
face $-1 $60 $61 $21 $-1 $62 reversed single #
loop $-1 $-1 $63 $27 #
plane-surface $-1 -170.27696810034473 10.645501873587992 111.84846468545068 0 1 0 -0.66913061440640931 0 0.74314481823134659 forward_v I I I I #
face $-1 $64 $65 $22 $-1 $66 forward single #
loop $-1 $67 $68 $28 #
cone-surface $-1 -65.180472269674326 13.303532426591936 9.2928480436988643 0.66913061440640931 0 -0.74314481823134659 0.74314481823134659 0 0.66913061440640931 1 I I 0 1 1 forward I I I I #
face $-1 $69 $70 $23 $-1 $71 forward single #
loop $-1 $72 $73 $29 #
cone-surface $-1 -65.180472269674326 17.290578256097838 9.2928480436988643 0.66913061440640931 0 -0.74314481823134659 0.74314481823134659 0 0.66913061440640931 1 I I 0 1 1 forward I I I I #
face $-1 $74 $75 $18 $-1 $76 reversed single #
loop $-1 $-1 $77 $30 #
plane-surface $-1 0 0 -16.298940184899138 0 0 1 1 0 0 forward_v I I I I #
coedge $-1 $78 $79 $80 $81 forward $31 $-1 #
face $-1 $82 $83 $19 $-1 $84 reversed single #
loop $-1 $-1 $85 $33 #
plane-surface $-1 0 0 16.298940184899138 0 0 1 1 0 0 forward_v I I I I #
coedge $-1 $86 $87 $88 $89 forward $34 $-1 #
face $-1 $90 $91 $20 $-1 $92 reversed single #
loop $-1 $-1 $93 $36 #
plane-surface $-1 72.822046571245465 0 0 -1 0 0 0 0 1 forward_v I I I I #
coedge $-1 $94 $95 $96 $97 forward $37 $-1 #
face $-1 $98 $99 $21 $-1 $100 reversed single #
loop $-1 $-1 $101 $39 #
plane-surface $-1 -72.822046571245465 15.29705534134488 3.6138115606049439 -0.66913061440640931 0 0.74314481823134659 0.74314481823134659 0 0.66913061440640931 forward_v I I I I #
coedge $-1 $102 $103 $104 $105 reversed $40 $-1 #
face $-1 $-1 $106 $22 $-1 $107 forward single #
loop $-1 $108 $109 $42 #
cone-surface $-1 -64.248463808676718 13.303532426591936 8.2577478055300162 0.66913061440640931 0 -0.74314481823134659 0.3715724091156733 0 0.33456530720320465 1 I I -0.70710678118654746 0.70710678118654746 0.5 forward I I I I #
loop $-1 $-1 $110 $28 #
coedge $-1 $68 $68 $111 $112 reversed $43 $-1 #
face $-1 $-1 $113 $23 $-1 $114 forward single #
loop $-1 $115 $116 $45 #
cone-surface $-1 -64.248463808676718 17.290578256097838 8.2577478055300162 0.66913061440640931 0 -0.74314481823134659 0.3715724091156733 0 0.33456530720320465 1 I I -0.70710678118654746 0.70710678118654746 0.5 forward I I I I #
loop $-1 $-1 $117 $29 #
coedge $-1 $73 $73 $118 $119 reversed $46 $-1 #
face $-1 $120 $121 $18 $-1 $122 reversed single #
loop $-1 $-1 $123 $48 #
plane-surface $-1 0 -32.668467469527961 0 0 1 0 0 0 1 forward_v I I I I #
coedge $-1 $124 $125 $126 $127 forward $49 $-1 #
coedge $-1 $128 $51 $129 $130 forward $31 $-1 #
coedge $-1 $51 $128 $131 $132 forward $31 $-1 #
coedge $-1 $133 $134 $51 $81 reversed $135 $-1 #
edge $-1 $136 -32.668467469527961 $137 32.668467469527961 $80 $138 forward 7 unknown #
face $-1 $139 $140 $19 $-1 $141 reversed single #
loop $-1 $-1 $142 $52 #
plane-surface $-1 -72.822046571245465 0 0 1 0 0 0 0 -1 forward_v I I I I #
coedge $-1 $143 $144 $145 $146 forward $53 $-1 #
coedge $-1 $145 $55 $142 $147 reversed $34 $-1 #
coedge $-1 $55 $145 $148 $149 reversed $34 $-1 #
coedge $-1 $150 $151 $55 $89 reversed $140 $-1 #
edge $-1 $152 -72.822046571245465 $153 72.822046571245465 $88 $154 forward 7 unknown #
face $-1 $155 $156 $20 $-1 $157 reversed single #
loop $-1 $-1 $158 $56 #
plane-surface $-1 0 39.028396799741053 6.9698400790675592 0 0 1 1 0 0 forward_v I I I I #
coedge $-1 $159 $160 $94 $161 forward $57 $-1 #
coedge $-1 $162 $59 $93 $161 reversed $37 $-1 #
coedge $-1 $59 $162 $163 $164 reversed $37 $-1 #
coedge $-1 $165 $158 $59 $97 reversed $91 $-1 #
edge $-1 $166 -72.822046571245465 $167 72.822046571245465 $96 $168 forward 7 unknown #
face $-1 $169 $170 $21 $-1 $171 reversed single #
loop $-1 $-1 $172 $60 #
plane-surface $-1 -170.27696810034473 19.948608809101767 111.84846468545068 0 -1 0 0.66913061440640931 0 -0.74314481823134659 forward_v I I I I #
coedge $-1 $173 $174 $175 $176 reversed $61 $-1 #
coedge $-1 $103 $63 $177 $178 reversed $40 $-1 #
coedge $-1 $63 $102 $173 $179 reversed $40 $-1 #
coedge $-1 $175 $180 $63 $105 forward $181 $-1 #
edge $-1 $182 12.3164374789269 $183 26.404699774480392 $104 $184 forward 7 unknown #
loop $-1 $-1 $111 $64 #
plane-surface $-1 -72.822046571245465 15.29705534134488 3.6138115606049439 -0.66913061440640931 0 0.74314481823134659 0.74314481823134659 0 0.66913061440640931 forward_v I I I I #
loop $-1 $-1 $185 $42 #
coedge $-1 $109 $109 $110 $186 reversed $65 $-1 #
coedge $-1 $110 $110 $109 $186 forward $67 $-1 #
coedge $-1 $111 $111 $68 $112 forward $106 $-1 #
edge $-1 $187 0 $187 6.2831853071796004 $111 $188 forward 7 unknown #
loop $-1 $-1 $118 $69 #
plane-surface $-1 -72.822046571245465 15.29705534134488 3.6138115606049439 -0.66913061440640931 0 0.74314481823134659 0.74314481823134659 0 0.66913061440640931 forward_v I I I I #
loop $-1 $-1 $189 $45 #
coedge $-1 $116 $116 $117 $190 reversed $70 $-1 #
coedge $-1 $117 $117 $116 $190 forward $72 $-1 #
coedge $-1 $118 $118 $73 $119 forward $113 $-1 #
edge $-1 $191 0 $191 6.2831853071796004 $118 $192 forward 7 unknown #
face $-1 $193 $194 $18 $-1 $195 reversed single #
loop $-1 $-1 $196 $74 #
plane-surface $-1 -72.822046571245465 0 0 1 0 0 0 0 -1 forward_v I I I I #
coedge $-1 $197 $131 $198 $199 forward $75 $-1 #
coedge $-1 $200 $77 $197 $201 forward $49 $-1 #
coedge $-1 $77 $200 $202 $203 forward $49 $-1 #
coedge $-1 $134 $133 $77 $127 reversed $135 $-1 #
edge $-1 $204 -32.668467469527961 $205 32.668467469527961 $126 $206 forward 7 unknown #
coedge $-1 $79 $78 $207 $208 forward $31 $-1 #
coedge $-1 $209 $210 $78 $130 reversed $194 $-1 #
edge $-1 $137 -72.822046571245465 $211 72.822046571245465 $129 $212 forward 7 unknown #
coedge $-1 $123 $213 $79 $132 reversed $75 $-1 #
edge $-1 $214 -72.822046571245465 $136 72.822046571245465 $131 $215 forward 7 unknown #
coedge $-1 $126 $80 $213 $216 forward $135 $-1 #
coedge $-1 $80 $126 $209 $217 reversed $135 $-1 #
loop $-1 $-1 $133 $193 #
vertex $-1 $81 $218 #
vertex $-1 $81 $219 #
straight-curve $-1 72.822046571245465 0 16.298940184899138 0 1 0 I I #
face $-1 $220 $221 $19 $-1 $222 reversed single #
loop $-1 $-1 $150 $82 #
plane-surface $-1 0 -39.02839679974106 6.9698400790675592 0 0 1 1 0 0 forward_v I I I I #
coedge $-1 $223 $224 $86 $147 forward $83 $-1 #
coedge $-1 $225 $85 $224 $226 forward $53 $-1 #
coedge $-1 $85 $225 $227 $228 forward $53 $-1 #
coedge $-1 $87 $86 $85 $146 reversed $34 $-1 #
edge $-1 $229 -72.822046571245465 $230 72.822046571245465 $85 $231 forward 7 unknown #
edge $-1 $230 -16.298940184899138 $153 -6.9698400790675592 $142 $232 forward 7 unknown #
coedge $-1 $227 $233 $87 $149 forward $234 $-1 #
edge $-1 $152 6.9698400790675592 $229 16.298940184899138 $148 $235 forward 7 unknown #
coedge $-1 $236 $88 $233 $237 forward $140 $-1 #
coedge $-1 $88 $236 $223 $238 forward $140 $-1 #
vertex $-1 $149 $239 #
vertex $-1 $147 $240 #
straight-curve $-1 0 -32.668467469527961 6.9698400790675592 -1 0 0 I I #
face $-1 $241 $242 $20 $-1 $243 forward single #
loop $-1 $-1 $244 $90 #
plane-surface $-1 0 45.388326129954152 11.634390131983348 0 -1 0 0 0 -1 forward_v I I I I #
coedge $-1 $96 $245 $159 $246 forward $91 $-1 #
coedge $-1 $247 $93 $158 $246 reversed $57 $-1 #
coedge $-1 $93 $247 $248 $249 reversed $57 $-1 #
edge $-1 $250 -16.298940184899138 $167 -6.9698400790675592 $93 $251 forward 7 unknown #
coedge $-1 $95 $94 $252 $253 reversed $37 $-1 #
coedge $-1 $254 $255 $95 $164 forward $256 $-1 #
edge $-1 $166 6.9698400790675592 $257 16.298940184899138 $163 $258 forward 7 unknown #
coedge $-1 $245 $96 $255 $259 forward $91 $-1 #
vertex $-1 $164 $260 #
vertex $-1 $161 $261 #
straight-curve $-1 0 32.668467469527961 6.9698400790675592 1 0 0 I I #
face $-1 $-1 $181 $21 $-1 $262 forward single #
loop $-1 $-1 $263 $98 #
plane-surface $-1 -72.822046571245465 0 0 1 0 0 0 0 -1 forward_v I I I I #
coedge $-1 $264 $265 $266 $267 reversed $99 $-1 #
coedge $-1 $268 $101 $103 $179 forward $61 $-1 #
coedge $-1 $101 $268 $264 $269 forward $61 $-1 #
coedge $-1 $266 $104 $101 $176 forward $181 $-1 #
edge $-1 $183 2.9969742029155526 $270 12.300081138429327 $175 $271 forward 7 unknown #
coedge $-1 $272 $273 $102 $178 forward $170 $-1 #
edge $-1 $274 -52.310420782120396 $182 -39.625292157826202 $177 $275 forward 7 unknown #
edge $-1 $183 -18.957627033022938 $274 0 $103 $276 forward 7 unknown #
coedge $-1 $104 $266 $272 $277 forward $181 $-1 #
loop $-1 $-1 $266 $169 #
vertex $-1 $178 $278 #
vertex $-1 $105 $279 #
straight-curve $-1 -85.138484050172366 10.645501873587992 16.298940184899138 1 0 0 I I #
coedge $-1 $185 $185 $-1 $280 reversed $108 $-1 #
edge $-1 $281 0 $281 6.2831853071796004 $109 $282 forward 7 unknown #
vertex $-1 $112 $283 #
ellipse-curve $-1 -65.777915423468727 13.303532426591936 9.9563758727520355 -0.66913061440640931 0 0.74314481823134659 0.74314481823134659 0 0.66913061440640931 1 I I #
coedge $-1 $189 $189 $-1 $284 reversed $115 $-1 #
edge $-1 $285 0 $285 6.2831853071796004 $116 $286 forward 7 unknown #
vertex $-1 $119 $287 #
ellipse-curve $-1 -65.777915423468727 17.290578256097838 9.9563758727520355 -0.66913061440640931 0 0.74314481823134659 0.74314481823134659 0 0.66913061440640931 1 I I #
face $-1 $-1 $135 $18 $-1 $288 reversed single #
loop $-1 $-1 $209 $120 #
plane-surface $-1 0 32.668467469527961 0 0 -1 0 0 0 -1 forward_v I I I I #
coedge $-1 $289 $207 $210 $290 forward $121 $-1 #
coedge $-1 $213 $123 $124 $201 reversed $75 $-1 #
coedge $-1 $207 $289 $123 $199 reversed $121 $-1 #
edge $-1 $214 -16.298940184899138 $291 16.298940184899138 $198 $292 forward 7 unknown #
coedge $-1 $125 $124 $289 $293 forward $49 $-1 #
edge $-1 $205 -72.822046571245465 $291 72.822046571245465 $197 $294 forward 7 unknown #
coedge $-1 $210 $209 $125 $203 reversed $194 $-1 #
edge $-1 $295 -72.822046571245465 $204 72.822046571245465 $202 $296 forward 7 unknown #
vertex $-1 $127 $297 #
vertex $-1 $216 $298 #
straight-curve $-1 72.822046571245465 0 -16.298940184899138 0 -1 0 I I #
coedge $-1 $196 $198 $128 $208 reversed $121 $-1 #
edge $-1 $211 -32.668467469527961 $214 32.668467469527961 $207 $299 forward 7 unknown #
coedge $-1 $202 $129 $134 $217 forward $194 $-1 #
coedge $-1 $129 $202 $196 $290 reversed $194 $-1 #
vertex $-1 $130 $300 #
straight-curve $-1 0 32.668467469527961 16.298940184899138 -1 0 0 I I #
coedge $-1 $131 $197 $133 $216 reversed $75 $-1 #
vertex $-1 $208 $301 #
straight-curve $-1 0 -32.668467469527961 16.298940184899138 1 0 0 I I #
edge $-1 $136 -16.298940184899138 $205 16.298940184899138 $133 $302 forward 7 unknown #
edge $-1 $137 -16.298940184899138 $204 16.298940184899138 $134 $303 forward 7 unknown #
point $-1 72.822046571245465 -32.668467469527961 16.298940184899138 #
point $-1 72.822046571245465 32.668467469527961 16.298940184899138 #
face $-1 $-1 $234 $19 $-1 $304 reversed single #
loop $-1 $-1 $305 $139 #
plane-surface $-1 0 -45.388326129954159 11.634390131983348 0 1 0 0 0 1 forward_v I I I I #
coedge $-1 $306 $142 $151 $238 reversed $83 $-1 #
coedge $-1 $142 $306 $143 $226 reversed $83 $-1 #
coedge $-1 $144 $143 $307 $308 forward $53 $-1 #
edge $-1 $230 32.668467469527961 $309 45.388326129954159 $224 $310 forward 7 unknown #
coedge $-1 $311 $148 $144 $228 reversed $234 $-1 #
edge $-1 $312 -45.388326129954159 $229 -32.668467469527961 $227 $313 forward 7 unknown #
vertex $-1 $149 $314 #
vertex $-1 $226 $315 #
straight-curve $-1 0 -32.668467469527961 16.298940184899138 -1 0 0 I I #
straight-curve $-1 -72.822046571245465 -32.668467469527961 0 0 0 -1 I I #
coedge $-1 $148 $311 $150 $237 reversed $234 $-1 #
loop $-1 $-1 $148 $220 #
straight-curve $-1 72.822046571245465 -32.668467469527961 0 0 0 1 I I #
coedge $-1 $151 $150 $316 $317 forward $140 $-1 #
edge $-1 $152 -6.3599293302130988 $318 6.3599293302130988 $233 $319 forward 7 unknown #
edge $-1 $320 -6.3599293302130988 $153 6.3599293302130988 $223 $321 forward 7 unknown #
point $-1 72.822046571245465 -32.668467469527961 6.9698400790675592 #
point $-1 -72.822046571245465 -32.668467469527961 6.9698400790675592 #
face $-1 $-1 $256 $20 $-1 $322 reversed single #
loop $-1 $-1 $252 $155 #
plane-surface $-1 0 0 16.298940184899138 0 0 1 1 0 0 forward_v I I I I #
coedge $-1 $323 $324 $247 $325 forward $156 $-1 #
coedge $-1 $158 $165 $323 $326 forward $91 $-1 #
edge $-1 $327 -6.3599293302130988 $167 6.3599293302130988 $159 $328 forward 7 unknown #
coedge $-1 $160 $159 $244 $325 reversed $57 $-1 #
coedge $-1 $329 $252 $160 $249 forward $242 $-1 #
edge $-1 $250 32.668467469527961 $330 45.388326129954152 $160 $331 forward 7 unknown #
vertex $-1 $249 $332 #
straight-curve $-1 72.822046571245465 32.668467469527961 0 0 0 -1 I I #
coedge $-1 $248 $333 $162 $253 forward $242 $-1 #
edge $-1 $257 -72.822046571245465 $250 72.822046571245465 $252 $334 forward 7 unknown #
coedge $-1 $335 $163 $333 $336 reversed $256 $-1 #
coedge $-1 $163 $335 $165 $259 reversed $256 $-1 #
loop $-1 $-1 $163 $241 #
vertex $-1 $164 $337 #
straight-curve $-1 -72.822046571245465 32.668467469527961 0 0 0 1 I I #
edge $-1 $166 -6.3599293302130988 $338 6.3599293302130988 $255 $339 forward 7 unknown #
point $-1 -72.822046571245465 32.668467469527954 6.9698400790675592 #
point $-1 72.822046571245465 32.668467469527954 6.9698400790675592 #
plane-surface $-1 0 0 16.298940184899138 0 0 1 1 0 0 forward_v I I I I #
coedge $-1 $273 $272 $265 $340 forward $170 $-1 #
coedge $-1 $265 $172 $174 $269 reversed $99 $-1 #
coedge $-1 $172 $264 $263 $340 reversed $99 $-1 #
coedge $-1 $180 $175 $172 $267 forward $181 $-1 #
edge $-1 $270 -26.404699774480392 $341 -12.3164374789269 $266 $342 forward 7 unknown #
coedge $-1 $174 $173 $273 $343 reversed $61 $-1 #
edge $-1 $344 0 $270 18.957627033022938 $264 $345 forward 7 unknown #
vertex $-1 $176 $346 #
straight-curve $-1 -58.733784275691974 7.6485276706724399 16.298940184899138 0 1 0 I I #
coedge $-1 $263 $177 $180 $277 reversed $170 $-1 #
coedge $-1 $177 $263 $268 $343 forward $170 $-1 #
vertex $-1 $178 $347 #
straight-curve $-1 -72.822046571245465 10.645501873587992 55.92423234272534 0 0 1 I I #
straight-curve $-1 -72.822046571245465 10.645501873587992 3.6138115606049439 -0.74314481823134659 0 -0.66913061440640931 I I #
edge $-1 $341 -19.948608809101767 $182 -10.645501873587992 $272 $348 forward 7 unknown #
point $-1 -72.822046571245465 10.645501873587992 16.298940184899138 #
point $-1 -58.733784275691974 10.645501873587992 16.298940184899138 #
edge $-1 $349 1 $349 0 $185 $-1 forward 7 unknown #
vertex $-1 $186 $350 #
ellipse-curve $-1 -64.583029115879924 13.303532426591936 8.6293202146456895 -0.66913061440640931 0 0.74314481823134659 0.74314481823134659 0 0.66913061440640931 1 I I #
point $-1 -65.03477060523737 13.303532426591936 10.625506487158448 #
edge $-1 $351 1 $351 0 $189 $-1 forward 7 unknown #
vertex $-1 $190 $352 #
ellipse-curve $-1 -64.583029115879924 17.290578256097838 8.6293202146456895 -0.66913061440640931 0 0.74314481823134659 0.74314481823134659 0 0.66913061440640931 1 I I #
point $-1 -65.03477060523737 17.290578256097838 10.625506487158448 #
plane-surface $-1 72.822046571245465 0 0 -1 0 0 0 0 1 forward_v I I I I #
coedge $-1 $198 $196 $200 $293 reversed $121 $-1 #
edge $-1 $211 -16.298940184899138 $295 16.298940184899138 $210 $353 forward 7 unknown #
vertex $-1 $293 $354 #
straight-curve $-1 -72.822046571245465 -32.668467469527961 0 0 0 -1 I I #
edge $-1 $291 -32.668467469527961 $295 32.668467469527961 $289 $355 forward 7 unknown #
straight-curve $-1 0 -32.668467469527961 -16.298940184899138 -1 0 0 I I #
vertex $-1 $203 $356 #
straight-curve $-1 0 32.668467469527961 -16.298940184899138 1 0 0 I I #
point $-1 72.822046571245465 32.668467469527961 -16.298940184899138 #
point $-1 72.822046571245465 -32.668467469527961 -16.298940184899138 #
straight-curve $-1 -72.822046571245465 0 16.298940184899138 0 -1 0 I I #
point $-1 -72.822046571245465 32.668467469527961 16.298940184899138 #
point $-1 -72.822046571245465 -32.668467469527961 16.298940184899138 #
straight-curve $-1 72.822046571245465 -32.668467469527961 0 0 0 -1 I I #
straight-curve $-1 72.822046571245465 32.668467469527961 0 0 0 -1 I I #
plane-surface $-1 72.822046571245465 0 0 -1 0 0 0 0 1 forward_v I I I I #
coedge $-1 $316 $307 $306 $357 forward $221 $-1 #
coedge $-1 $224 $223 $305 $357 reversed $83 $-1 #
coedge $-1 $305 $358 $225 $308 reversed $221 $-1 #
edge $-1 $309 -72.822046571245465 $312 72.822046571245465 $307 $359 forward 7 unknown #
vertex $-1 $226 $360 #
straight-curve $-1 -72.822046571245465 0 16.298940184899138 0 -1 0 I I #
coedge $-1 $233 $227 $358 $361 forward $234 $-1 #
vertex $-1 $228 $362 #
straight-curve $-1 72.822046571245465 0 16.298940184899138 0 1 0 I I #
point $-1 72.822046571245465 -32.668467469527961 16.298940184899138 #
point $-1 -72.822046571245465 -32.668467469527961 16.298940184899138 #
coedge $-1 $358 $305 $236 $317 reversed $221 $-1 #
edge $-1 $318 -72.822046571245465 $320 72.822046571245465 $316 $363 forward 7 unknown #
vertex $-1 $361 $364 #
straight-curve $-1 72.822046571245465 -39.02839679974106 6.9698400790675592 0 -1 0 I I #
vertex $-1 $238 $365 #
straight-curve $-1 -72.822046571245465 -39.02839679974106 6.9698400790675592 0 1 0 I I #
plane-surface $-1 -72.822046571245465 0 0 1 0 0 0 0 -1 forward_v I I I I #
coedge $-1 $366 $244 $245 $326 reversed $156 $-1 #
coedge $-1 $244 $366 $329 $367 reversed $156 $-1 #
edge $-1 $330 -4.6645500529157893 $327 4.6645500529157893 $247 $368 forward 7 unknown #
edge $-1 $338 -72.822046571245465 $327 72.822046571245465 $323 $369 forward 7 unknown #
vertex $-1 $246 $370 #
straight-curve $-1 72.822046571245465 39.028396799741053 6.9698400790675592 0 -1 0 I I #
coedge $-1 $333 $248 $324 $367 forward $242 $-1 #
vertex $-1 $249 $371 #
straight-curve $-1 72.822046571245465 0 16.298940184899138 0 1 0 I I #
point $-1 72.822046571245465 32.668467469527961 16.298940184899138 #
coedge $-1 $252 $329 $254 $336 forward $242 $-1 #
straight-curve $-1 0 32.668467469527961 16.298940184899138 1 0 0 I I #
coedge $-1 $255 $254 $366 $372 forward $256 $-1 #
edge $-1 $373 -45.388326129954152 $257 -32.668467469527961 $254 $374 forward 7 unknown #
point $-1 -72.822046571245465 32.668467469527961 16.298940184899138 #
vertex $-1 $326 $375 #
straight-curve $-1 -72.822046571245465 39.028396799741053 6.9698400790675592 0 1 0 I I #
edge $-1 $341 39.625292157826202 $344 52.310420782120396 $263 $376 forward 7 unknown #
vertex $-1 $277 $377 #
straight-curve $-1 -85.138484050172366 19.948608809101767 16.298940184899138 -1 0 0 I I #
edge $-1 $344 -12.300081138429327 $274 -2.9969742029155526 $273 $378 forward 7 unknown #
vertex $-1 $343 $379 #
straight-curve $-1 -72.822046571245465 19.948608809101767 3.6138115606049439 0.74314481823134659 0 0.66913061440640931 I I #
point $-1 -58.733784275691974 19.948608809101767 16.298940184899138 #
point $-1 -72.822046571245465 10.645501873587992 3.6138115606049439 #
straight-curve $-1 -72.822046571245465 0 16.298940184899138 0 -1 0 I I #
vertex $-1 $280 $380 #
point $-1 -63.839884297648574 13.303532426591936 9.2984508290520989 #
vertex $-1 $284 $381 #
point $-1 -63.839884297648574 17.290578256097838 9.2984508290520989 #
straight-curve $-1 -72.822046571245465 32.668467469527961 0 0 0 -1 I I #
point $-1 -72.822046571245465 -32.668467469527961 -16.298940184899138 #
straight-curve $-1 -72.822046571245465 0 -16.298940184899138 0 1 0 I I #
point $-1 -72.822046571245465 32.668467469527961 -16.298940184899138 #
edge $-1 $309 -4.6645500529157893 $320 4.6645500529157893 $306 $382 forward 7 unknown #
coedge $-1 $307 $316 $311 $361 reversed $221 $-1 #
straight-curve $-1 0 -45.388326129954159 16.298940184899138 1 0 0 I I #
point $-1 -72.822046571245465 -45.388326129954159 16.298940184899138 #
edge $-1 $312 -4.6645500529157893 $318 4.6645500529157893 $311 $383 forward 7 unknown #
point $-1 72.822046571245465 -45.388326129954159 16.298940184899138 #
straight-curve $-1 0 -45.388326129954159 6.9698400790675592 -1 0 0 I I #
point $-1 72.822046571245465 -45.388326129954159 6.9698400790675592 #
point $-1 -72.822046571245465 -45.388326129954159 6.9698400790675592 #
coedge $-1 $324 $323 $335 $372 reversed $156 $-1 #
edge $-1 $330 -72.822046571245465 $373 72.822046571245465 $324 $384 forward 7 unknown #
straight-curve $-1 72.822046571245465 45.388326129954152 11.634390131983348 0 0 -1 I I #
straight-curve $-1 0 45.388326129954152 6.9698400790675592 1 0 0 I I #
point $-1 72.822046571245465 45.388326129954152 6.9698400790675592 #
point $-1 72.822046571245465 45.388326129954152 16.298940184899138 #
edge $-1 $373 -4.6645500529157893 $338 4.6645500529157893 $366 $385 forward 7 unknown #
vertex $-1 $367 $386 #
straight-curve $-1 -72.822046571245465 0 16.298940184899138 0 -1 0 I I #
point $-1 -72.822046571245465 45.388326129954152 6.9698400790675592 #
straight-curve $-1 -72.822046571245465 19.948608809101767 55.92423234272534 0 0 -1 I I #
point $-1 -72.822046571245465 19.948608809101767 16.298940184899138 #
straight-curve $-1 -72.822046571245465 7.6485276706724399 3.6138115606049475 0 -1 0 I I #
point $-1 -72.822046571245465 19.948608809101767 3.6138115606049439 #
point $-1 -63.913898501473511 13.303532426591936 7.8861753964143428 #
point $-1 -63.913898501473511 17.290578256097838 7.8861753964143428 #
straight-curve $-1 -72.822046571245465 -45.388326129954159 11.634390131983348 0 0 -1 I I #
straight-curve $-1 72.822046571245465 -45.388326129954159 11.634390131983348 0 0 -1 I I #
straight-curve $-1 0 45.388326129954152 16.298940184899138 -1 0 0 I I #
straight-curve $-1 -72.822046571245465 45.388326129954152 11.634390131983348 0 0 -1 I I #
point $-1 -72.822046571245465 45.388326129954152 16.298940184899138 #
End-of-ACIS-data 