500 0 5 0           
7 Unknown 11 ACIS 5.0 NT 24 Thu Mar 25 23:31:39 1999 
-1 9.9999999999999995e-007 1e-010 
body $-1 $5 $-1 $6 #
body $-1 $7 $-1 $8 #
body $-1 $9 $-1 $10 #
body $-1 $11 $-1 $12 #
body $-1 $13 $-1 $14 #
lump $-1 $-1 $15 $0 #
transform $-1 1 0 0 0 1 0 0 0 1 49.228797265541552 23.414890843323821 7.945570628254095 1 rotate no_reflect no_shear #
lump $-1 $-1 $16 $1 #
transform $-1 1 0 0 0 1 0 0 0 1 49.228797265541552 23.414890843323821 7.945570628254095 1 rotate no_reflect no_shear #
lump $-1 $-1 $17 $2 #
transform $-1 1 0 0 0 1 0 0 0 1 49.228797265541552 23.414890843323821 7.945570628254095 1 rotate no_reflect no_shear #
lump $-1 $-1 $18 $3 #
transform $-1 1 0 0 0 1 0 0 0 1 49.228797265541552 23.414890843323821 7.945570628254095 1 rotate no_reflect no_shear #
lump $-1 $-1 $19 $4 #
transform $-1 1 0 0 0 1 0 0 0 1 49.228797265541552 23.414890843323821 7.945570628254095 1 rotate no_reflect no_shear #
shell $-1 $-1 $-1 $20 $-1 $5 #
shell $-1 $-1 $-1 $21 $-1 $7 #
shell $-1 $-1 $-1 $22 $-1 $9 #
shell $-1 $-1 $-1 $23 $-1 $11 #
shell $-1 $-1 $-1 $24 $-1 $13 #
face $-1 $25 $26 $15 $-1 $27 reversed single #
face $-1 $28 $29 $16 $-1 $30 forward single #
face $-1 $31 $32 $17 $-1 $33 forward single #
face $-1 $34 $35 $18 $-1 $36 reversed single #
face $-1 $37 $38 $19 $-1 $39 forward single #
face $-1 $40 $41 $15 $-1 $42 forward single #
loop $-1 $-1 $43 $20 #
plane-surface $-1 49.228797265541552 0 0 -1 0 0 0 0 1 forward_v I I I I #
face $-1 $44 $45 $16 $-1 $46 forward single #
loop $-1 $-1 $47 $21 #
plane-surface $-1 -49.228797265541552 0 0 1 0 0 0 0 -1 forward_v I I I I #
face $-1 $48 $49 $17 $-1 $50 reversed single #
loop $-1 $-1 $51 $22 #
plane-surface $-1 49.228797265541552 0 0 -1 0 0 0 0 1 forward_v I I I I #
face $-1 $52 $53 $18 $-1 $54 reversed single #
loop $-1 $-1 $55 $23 #
plane-surface $-1 28.377008269131657 75.54290433400503 98.806523850727871 1 0 0 0 -0.80901700255871778 -0.5877852410284794 forward_v I I I I #
face $-1 $56 $57 $19 $-1 $58 forward single #
loop $-1 $59 $60 $24 #
cone-surface $-1 35.847098116440016 20.912143546115797 4.9711798401437211 0 -0.80901700255871778 -0.5877852410284794 1 0 0 1 I I 0 1 1 forward I I I I #
face $-1 $61 $62 $15 $-1 $63 reversed single #
loop $-1 $-1 $64 $25 #
plane-surface $-1 0 0 7.945570628254095 0 0 1 1 0 0 forward_v I I I I #
coedge $-1 $65 $66 $67 $68 reversed $26 $-1 #
face $-1 $69 $70 $16 $-1 $71 reversed single #
loop $-1 $-1 $72 $28 #
plane-surface $-1 0 0 7.945570628254095 0 0 1 1 0 0 forward_v I I I I #
coedge $-1 $73 $74 $75 $76 forward $29 $-1 #
face $-1 $77 $78 $17 $-1 $79 reversed single #
loop $-1 $-1 $80 $31 #
plane-surface $-1 0 -23.414890843323821 0 0 1 0 0 0 1 forward_v I I I I #
coedge $-1 $81 $82 $83 $84 forward $32 $-1 #
face $-1 $85 $86 $18 $-1 $87 reversed single #
loop $-1 $-1 $88 $34 #
plane-surface $-1 35.847098116440016 -4.1109636726734209 40.93460291819089 0 0.80901700255871778 0.5877852410284794 1 0 0 forward_v I I I I #
coedge $-1 $89 $90 $91 $92 reversed $35 $-1 #
face $-1 $-1 $93 $19 $-1 $94 forward single #
loop $-1 $95 $96 $37 #
cone-surface $-1 35.847098116440016 19.783847898316804 4.1514250918561162 0 -0.80901700255871778 -0.5877852410284794 0.5 0 0 1 I I -0.70710678118654813 0.70710678118654691 0.5 forward I I I I #
loop $-1 $-1 $97 $24 #
coedge $-1 $60 $60 $98 $99 reversed $38 $-1 #
face $-1 $100 $101 $15 $-1 $102 reversed single #
loop $-1 $-1 $67 $40 #
plane-surface $-1 0 0 -7.945570628254095 0 0 1 1 0 0 forward_v I I I I #
coedge $-1 $103 $104 $105 $106 forward $41 $-1 #
coedge $-1 $105 $43 $107 $108 reversed $26 $-1 #
coedge $-1 $43 $105 $109 $110 forward $26 $-1 #
coedge $-1 $111 $112 $43 $68 forward $62 $-1 #
edge $-1 $113 -23.414890843323821 $114 23.414890843323821 $43 $115 forward 7 unknown #
face $-1 $116 $117 $16 $-1 $118 reversed single #
loop $-1 $-1 $119 $44 #
plane-surface $-1 -55.140406567334729 -21.914890843323821 0 1 0 0 0 0 -1 forward_v I I I I #
coedge $-1 $120 $121 $73 $122 forward $45 $-1 #
coedge $-1 $123 $47 $72 $122 reversed $29 $-1 #
coedge $-1 $47 $123 $124 $125 reversed $29 $-1 #
coedge $-1 $126 $127 $47 $76 reversed $117 $-1 #
edge $-1 $128 -7.945570628254095 $129 7.945570628254095 $75 $130 forward 7 unknown #
face $-1 $131 $132 $17 $-1 $133 reversed single #
loop $-1 $-1 $134 $48 #
plane-surface $-1 0 0 -7.945570628254095 0 0 1 1 0 0 forward_v I I I I #
coedge $-1 $135 $136 $137 $138 forward $49 $-1 #
coedge $-1 $137 $51 $134 $139 reversed $32 $-1 #
coedge $-1 $51 $137 $140 $141 reversed $32 $-1 #
coedge $-1 $142 $143 $51 $84 reversed $132 $-1 #
edge $-1 $144 -7.945570628254095 $145 7.945570628254095 $83 $146 forward 7 unknown #
face $-1 $147 $148 $18 $-1 $149 reversed single #
loop $-1 $-1 $150 $52 #
plane-surface $-1 43.317187963748374 75.54290433400503 98.806523850727871 -1 0 0 0 0.80901700255871778 0.5877852410284794 forward_v I I I I #
coedge $-1 $151 $152 $153 $154 reversed $53 $-1 #
coedge $-1 $90 $55 $155 $156 reversed $35 $-1 #
coedge $-1 $55 $89 $151 $157 reversed $35 $-1 #
coedge $-1 $153 $158 $55 $92 forward $159 $-1 #
edge $-1 $160 14.356561323678694 $161 17.914481625055465 $91 $162 forward 7 unknown #
loop $-1 $-1 $98 $56 #
plane-surface $-1 35.847098116440016 -4.1109636726734209 40.93460291819089 0 0.80901700255871778 0.5877852410284794 1 0 0 forward_v I I I I #
loop $-1 $-1 $163 $37 #
coedge $-1 $96 $96 $97 $164 reversed $57 $-1 #
coedge $-1 $97 $97 $96 $164 forward $59 $-1 #
coedge $-1 $98 $98 $60 $99 forward $93 $-1 #
edge $-1 $165 -1.9533893409379798e-015 $165 6.2831853071795987 $98 $166 forward 7 unknown #
face $-1 $167 $168 $15 $-1 $169 reversed single #
loop $-1 $-1 $170 $61 #
plane-surface $-1 0 -23.414890843323821 0 0 1 0 0 0 1 forward_v I I I I #
coedge $-1 $171 $64 $172 $173 forward $41 $-1 #
coedge $-1 $64 $171 $174 $175 forward $41 $-1 #
coedge $-1 $66 $65 $64 $106 reversed $26 $-1 #
edge $-1 $176 -23.414890843323821 $177 23.414890843323821 $105 $178 forward 7 unknown #
coedge $-1 $179 $172 $65 $108 forward $180 $-1 #
edge $-1 $177 -7.945570628254095 $113 7.945570628254095 $65 $181 forward 7 unknown #
coedge $-1 $174 $182 $66 $110 reversed $101 $-1 #
edge $-1 $176 -7.945570628254095 $114 7.945570628254095 $66 $183 forward 7 unknown #
coedge $-1 $184 $67 $182 $185 forward $62 $-1 #
coedge $-1 $67 $184 $179 $186 forward $62 $-1 #
vertex $-1 $68 $187 #
vertex $-1 $110 $188 #
straight-curve $-1 49.228797265541552 0 -7.945570628254095 0 -1 0 I I #
face $-1 $189 $190 $16 $-1 $191 reversed single #
loop $-1 $-1 $75 $69 #
plane-surface $-1 -52.18460191643814 -20.414890843323821 0 0 -1 0 0 0 -1 forward_v I I I I #
coedge $-1 $192 $193 $194 $195 forward $70 $-1 #
coedge $-1 $196 $72 $127 $197 forward $45 $-1 #
coedge $-1 $72 $196 $198 $199 forward $45 $-1 #
edge $-1 $200 -23.414890843323821 $129 -20.414890843323821 $72 $201 forward 7 unknown #
coedge $-1 $74 $73 $202 $203 reversed $29 $-1 #
coedge $-1 $204 $205 $74 $125 forward $190 $-1 #
edge $-1 $128 20.414890843323821 $206 23.414890843323821 $124 $207 forward 7 unknown #
coedge $-1 $194 $75 $205 $208 reversed $117 $-1 #
coedge $-1 $75 $194 $120 $197 reversed $117 $-1 #
vertex $-1 $125 $209 #
vertex $-1 $197 $210 #
straight-curve $-1 -49.228797265541552 -20.414890843323821 0 0 0 1 I I #
face $-1 $211 $212 $17 $-1 $213 reversed single #
loop $-1 $-1 $214 $77 #
plane-surface $-1 52.184601916438133 -20.414890843323821 0 0 -1 0 0 0 -1 forward_v I I I I #
coedge $-1 $215 $216 $81 $139 forward $78 $-1 #
coedge $-1 $217 $80 $216 $218 reversed $49 $-1 #
coedge $-1 $80 $217 $219 $220 reversed $49 $-1 #
coedge $-1 $82 $81 $80 $138 reversed $32 $-1 #
edge $-1 $221 -7.945570628254095 $222 7.945570628254095 $80 $223 forward 7 unknown #
edge $-1 $222 -23.414890843323821 $145 -20.414890843323821 $134 $224 forward 7 unknown #
coedge $-1 $219 $225 $82 $141 forward $226 $-1 #
edge $-1 $144 20.414890843323821 $221 23.414890843323821 $140 $227 forward 7 unknown #
coedge $-1 $214 $83 $225 $228 reversed $132 $-1 #
coedge $-1 $83 $214 $215 $229 reversed $132 $-1 #
vertex $-1 $141 $230 #
vertex $-1 $229 $231 #
straight-curve $-1 49.228797265541552 -20.414890843323821 0 0 0 -1 I I #
face $-1 $-1 $159 $18 $-1 $232 forward single #
loop $-1 $-1 $233 $85 #
plane-surface $-1 0 23.414890843323821 0 0 -1 0 0 0 -1 forward_v I I I I #
coedge $-1 $234 $235 $236 $237 reversed $86 $-1 #
coedge $-1 $238 $88 $90 $157 forward $53 $-1 #
coedge $-1 $88 $238 $234 $239 forward $53 $-1 #
coedge $-1 $236 $91 $88 $154 forward $159 $-1 #
edge $-1 $161 10.45345921091165 $240 25.393638905528366 $153 $241 forward 7 unknown #
coedge $-1 $242 $243 $89 $156 forward $148 $-1 #
edge $-1 $244 -46.354748617783841 $160 -41.457691297109839 $155 $245 forward 7 unknown #
edge $-1 $161 40.776686009812849 $244 46.829781686647621 $90 $246 forward 7 unknown #
coedge $-1 $91 $236 $242 $247 forward $159 $-1 #
loop $-1 $-1 $236 $147 #
vertex $-1 $156 $248 #
vertex $-1 $92 $249 #
straight-curve $-1 28.377008269131657 37.771452167002515 7.9455706282540959 0 -1 0 I I #
coedge $-1 $163 $163 $-1 $250 reversed $95 $-1 #
edge $-1 $251 0 $251 6.2831853071796004 $96 $252 forward 7 unknown #
vertex $-1 $99 $253 #
ellipse-curve $-1 35.847098116440016 21.635930692635437 5.4970419679170925 0 0.80901700255871778 0.5877852410284794 1 0 0 1 I I #
face $-1 $-1 $180 $15 $-1 $254 reversed single #
loop $-1 $-1 $255 $100 #
plane-surface $-1 -49.228797265541552 0 0 1 0 0 0 0 -1 forward_v I I I I #
coedge $-1 $182 $174 $256 $257 forward $101 $-1 #
coedge $-1 $104 $103 $255 $258 forward $41 $-1 #
coedge $-1 $107 $259 $103 $173 reversed $180 $-1 #
edge $-1 $177 -49.228797265541552 $260 49.228797265541552 $172 $261 forward 7 unknown #
coedge $-1 $170 $109 $104 $175 reversed $101 $-1 #
edge $-1 $262 -49.228797265541552 $176 49.228797265541552 $174 $263 forward 7 unknown #
vertex $-1 $106 $264 #
vertex $-1 $106 $265 #
straight-curve $-1 49.228797265541552 0 7.945570628254095 0 1 0 I I #
coedge $-1 $259 $107 $112 $186 reversed $180 $-1 #
loop $-1 $-1 $107 $167 #
straight-curve $-1 49.228797265541552 23.414890843323821 0 0 0 -1 I I #
coedge $-1 $109 $170 $111 $185 reversed $101 $-1 #
straight-curve $-1 49.228797265541552 -23.414890843323821 0 0 0 -1 I I #
coedge $-1 $112 $111 $266 $267 forward $62 $-1 #
edge $-1 $114 -49.228797265541552 $268 49.228797265541552 $182 $269 forward 7 unknown #
edge $-1 $270 -49.228797265541552 $113 49.228797265541552 $179 $271 forward 7 unknown #
point $-1 49.228797265541552 23.414890843323821 -7.945570628254095 #
point $-1 49.228797265541552 -23.414890843323821 -7.945570628254095 #
face $-1 $-1 $272 $16 $-1 $273 reversed single #
loop $-1 $-1 $124 $116 #
plane-surface $-1 0 0 -7.945570628254095 0 0 1 1 0 0 forward_v I I I I #
coedge $-1 $274 $119 $275 $276 reversed $70 $-1 #
coedge $-1 $119 $274 $196 $277 reversed $70 $-1 #
coedge $-1 $127 $126 $119 $195 reversed $117 $-1 #
edge $-1 $278 -7.945570628254095 $279 7.945570628254095 $194 $280 forward 7 unknown #
coedge $-1 $121 $120 $193 $277 forward $45 $-1 #
edge $-1 $129 -2.9558046508965887 $278 2.9558046508965887 $127 $281 forward 7 unknown #
coedge $-1 $282 $202 $121 $199 reversed $272 $-1 #
edge $-1 $283 -55.140406567334729 $200 -49.228797265541552 $198 $284 forward 7 unknown #
vertex $-1 $203 $285 #
straight-curve $-1 -49.228797265541552 0 7.945570628254095 0 1 0 I I #
coedge $-1 $198 $286 $123 $203 forward $272 $-1 #
edge $-1 $206 -7.945570628254095 $200 7.945570628254095 $202 $287 forward 7 unknown #
coedge $-1 $275 $124 $286 $288 forward $190 $-1 #
coedge $-1 $124 $275 $126 $208 forward $190 $-1 #
vertex $-1 $288 $289 #
straight-curve $-1 -49.228797265541552 0 -7.945570628254095 0 -1 0 I I #
edge $-1 $279 -2.9558046508965887 $128 2.9558046508965887 $126 $290 forward 7 unknown #
point $-1 -49.228797265541552 -20.414890843323821 -7.945570628254095 #
point $-1 -49.228797265541552 -20.414890843323821 7.945570628254095 #
face $-1 $-1 $226 $17 $-1 $291 forward single #
loop $-1 $-1 $292 $131 #
plane-surface $-1 55.140406567334722 -21.914890843323821 0 -1 0 0 0 0 1 forward_v I I I I #
coedge $-1 $143 $142 $293 $294 forward $132 $-1 #
coedge $-1 $295 $134 $143 $229 forward $78 $-1 #
coedge $-1 $134 $295 $135 $218 forward $78 $-1 #
coedge $-1 $136 $135 $292 $296 reversed $49 $-1 #
edge $-1 $297 -2.9558046508965887 $222 2.9558046508965816 $135 $298 forward 7 unknown #
coedge $-1 $299 $140 $136 $220 forward $226 $-1 #
edge $-1 $221 -2.9558046508965816 $300 2.9558046508965887 $136 $301 forward 7 unknown #
vertex $-1 $220 $302 #
vertex $-1 $139 $303 #
straight-curve $-1 49.228797265541552 -23.414890843323821 0 0 0 -1 I I #
straight-curve $-1 49.228797265541552 0 -7.945570628254095 0 1 0 I I #
coedge $-1 $140 $299 $142 $228 forward $226 $-1 #
loop $-1 $-1 $140 $211 #
straight-curve $-1 49.228797265541552 0 7.945570628254095 0 -1 0 I I #
edge $-1 $304 -2.9558046508965887 $144 2.9558046508965887 $142 $305 forward 7 unknown #
edge $-1 $145 -2.9558046508965887 $306 2.9558046508965887 $143 $307 forward 7 unknown #
point $-1 49.228797265541544 -20.414890843323821 7.945570628254095 #
point $-1 49.228797265541544 -20.414890843323821 -7.945570628254095 #
plane-surface $-1 0 0 7.945570628254095 0 0 1 1 0 0 forward_v I I I I #
coedge $-1 $243 $242 $235 $308 forward $148 $-1 #
coedge $-1 $235 $150 $152 $239 reversed $86 $-1 #
coedge $-1 $150 $234 $233 $308 reversed $86 $-1 #
coedge $-1 $158 $153 $150 $237 forward $159 $-1 #
edge $-1 $240 -17.914481625055465 $309 -14.356561323678694 $236 $310 forward 7 unknown #
coedge $-1 $152 $151 $243 $311 reversed $53 $-1 #
edge $-1 $312 -46.829781686647621 $240 -40.776686009812849 $234 $313 forward 7 unknown #
vertex $-1 $154 $314 #
straight-curve $-1 17.923549058220008 19.856970541947046 7.9455706282540959 1 0 0 I I #
coedge $-1 $233 $155 $158 $247 reversed $148 $-1 #
coedge $-1 $155 $233 $238 $311 forward $148 $-1 #
vertex $-1 $156 $315 #
straight-curve $-1 28.377008269131657 23.414890843323821 49.403261925363935 0 0 1 I I #
straight-curve $-1 28.377008269131657 -4.1109636726734209 40.93460291819089 0 0.5877852410284794 -0.80901700255871778 I I #
edge $-1 $309 -43.317187963748374 $160 -28.377008269131657 $242 $316 forward 7 unknown #
point $-1 28.377008269131657 23.414890843323821 7.945570628254095 #
point $-1 28.377008269131657 19.856970541947049 7.9455706282540959 #
edge $-1 $317 1 $317 0 $163 $-1 forward 7 unknown #
vertex $-1 $164 $318 #
ellipse-curve $-1 35.847098116440016 20.188356399596163 4.4453177123703558 0 0.80901700255871778 0.5877852410284794 1 0 0 1 I I #
point $-1 36.847098116440016 21.635930692635426 5.4970419679170872 #
plane-surface $-1 0 23.414890843323821 0 0 -1 0 0 0 -1 forward_v I I I I #
coedge $-1 $319 $256 $171 $258 reversed $168 $-1 #
coedge $-1 $255 $266 $170 $257 reversed $168 $-1 #
edge $-1 $262 -7.945570628254095 $268 7.945570628254095 $256 $320 forward 7 unknown #
edge $-1 $260 -23.414890843323821 $262 23.414890843323821 $255 $321 forward 7 unknown #
coedge $-1 $172 $179 $319 $322 reversed $180 $-1 #
vertex $-1 $173 $323 #
straight-curve $-1 0 23.414890843323821 7.945570628254095 -1 0 0 I I #
vertex $-1 $258 $324 #
straight-curve $-1 0 -23.414890843323821 7.945570628254095 1 0 0 I I #
point $-1 49.228797265541552 -23.414890843323821 7.945570628254095 #
point $-1 49.228797265541552 23.414890843323821 7.945570628254095 #
coedge $-1 $256 $319 $184 $267 reversed $168 $-1 #
edge $-1 $268 -23.414890843323821 $270 23.414890843323821 $266 $325 forward 7 unknown #
vertex $-1 $267 $326 #
straight-curve $-1 0 -23.414890843323821 -7.945570628254095 -1 0 0 I I #
vertex $-1 $186 $327 #
straight-curve $-1 0 23.414890843323821 -7.945570628254095 1 0 0 I I #
loop $-1 $-1 $202 $189 #
plane-surface $-1 0 -23.414890843323821 0 0 1 0 0 0 1 forward_v I I I I #
coedge $-1 $193 $192 $282 $328 reversed $70 $-1 #
coedge $-1 $205 $204 $192 $276 forward $190 $-1 #
edge $-1 $329 -1.5 $279 1.5 $192 $330 forward 7 unknown #
edge $-1 $278 -1.5 $283 1.5 $193 $331 forward 7 unknown #
vertex $-1 $197 $332 #
vertex $-1 $208 $333 #
straight-curve $-1 -55.140406567334729 -20.414890843323821 0 0 0 -1 I I #
straight-curve $-1 -52.18460191643814 -20.414890843323821 7.945570628254095 -1 0 0 I I #
coedge $-1 $286 $198 $274 $328 forward $272 $-1 #
vertex $-1 $277 $334 #
straight-curve $-1 0 -23.414890843323821 7.945570628254095 1 0 0 I I #
point $-1 -49.228797265541552 -23.414890843323821 7.945570628254095 #
coedge $-1 $202 $282 $204 $288 reversed $272 $-1 #
straight-curve $-1 -49.228797265541552 -23.414890843323821 0 0 0 1 I I #
edge $-1 $206 -2.9558046508965887 $329 2.9558046508965887 $286 $335 forward 7 unknown #
point $-1 -49.228797265541552 -23.414890843323821 -7.945570628254095 #
straight-curve $-1 -52.18460191643814 -20.414890843323821 -7.945570628254095 1 0 0 I I #
plane-surface $-1 0 0 7.945570628254095 0 0 1 1 0 0 forward_v I I I I #
coedge $-1 $336 $337 $217 $296 forward $212 $-1 #
coedge $-1 $337 $336 $214 $294 reversed $212 $-1 #
edge $-1 $304 -7.945570628254095 $306 7.945570628254095 $293 $338 forward 7 unknown #
coedge $-1 $216 $215 $336 $339 forward $78 $-1 #
edge $-1 $300 -7.945570628254095 $297 7.945570628254095 $292 $340 forward 7 unknown #
vertex $-1 $296 $341 #
straight-curve $-1 52.184601916438133 -23.414890843323821 -7.945570628254095 -1 0 0 I I #
coedge $-1 $225 $219 $337 $342 forward $226 $-1 #
vertex $-1 $342 $343 #
straight-curve $-1 52.184601916438133 -23.414890843323821 7.945570628254095 1 0 0 I I #
point $-1 49.228797265541552 -23.414890843323821 7.945570628254095 #
point $-1 49.228797265541552 -23.414890843323821 -7.945570628254095 #
vertex $-1 $342 $344 #
straight-curve $-1 52.184601916438133 -20.414890843323821 7.945570628254095 -1 0 0 I I #
vertex $-1 $339 $345 #
straight-curve $-1 52.184601916438133 -20.414890843323821 -7.945570628254095 1 0 0 I I #
edge $-1 $309 41.457691297109839 $312 46.354748617783841 $233 $346 forward 7 unknown #
vertex $-1 $247 $347 #
straight-curve $-1 43.317187963748374 37.771452167002515 7.9455706282540959 0 1 0 I I #
edge $-1 $312 -25.393638905528366 $244 -10.45345921091165 $243 $348 forward 7 unknown #
vertex $-1 $311 $349 #
straight-curve $-1 43.317187963748374 -4.1109636726734209 40.93460291819089 0 -0.5877852410284794 0.80901700255871778 I I #
point $-1 43.317187963748374 19.856970541947049 7.9455706282540959 #
point $-1 28.377008269131657 23.414890843323821 3.0485133075800945 #
straight-curve $-1 0 23.414890843323821 7.945570628254095 -1 0 0 I I #
vertex $-1 $250 $350 #
point $-1 36.847098116440016 20.188356399596163 4.4453177123703558 #
coedge $-1 $266 $255 $259 $322 forward $168 $-1 #
straight-curve $-1 -49.228797265541552 -23.414890843323821 0 0 0 -1 I I #
straight-curve $-1 -49.228797265541552 0 7.945570628254095 0 -1 0 I I #
edge $-1 $260 -7.945570628254095 $270 7.945570628254095 $259 $351 forward 7 unknown #
point $-1 -49.228797265541552 23.414890843323821 7.945570628254095 #
point $-1 -49.228797265541552 -23.414890843323821 7.945570628254095 #
straight-curve $-1 -49.228797265541552 0 -7.945570628254095 0 1 0 I I #
point $-1 -49.228797265541552 -23.414890843323821 -7.945570628254095 #
point $-1 -49.228797265541552 23.414890843323821 -7.945570628254095 #
edge $-1 $283 -7.945570628254095 $329 7.945570628254095 $274 $352 forward 7 unknown #
vertex $-1 $276 $353 #
straight-curve $-1 -55.140406567334729 -21.914890843323821 -7.945570628254095 0 1 0 I I #
straight-curve $-1 -55.140406567334729 -21.914890843323821 7.945570628254095 0 -1 0 I I #
point $-1 -55.140406567334729 -20.414890843323821 7.945570628254095 #
point $-1 -55.140406567334729 -20.414890843323821 -7.945570628254095 #
point $-1 -55.140406567334729 -23.414890843323821 7.945570628254095 #
straight-curve $-1 -52.18460191643814 -23.414890843323821 -7.945570628254095 -1 0 0 I I #
coedge $-1 $293 $292 $295 $339 reversed $212 $-1 #
coedge $-1 $292 $293 $299 $342 reversed $212 $-1 #
straight-curve $-1 55.140406567334722 -20.414890843323821 0 0 0 -1 I I #
edge $-1 $306 -1.5 $297 1.5 $336 $354 forward 7 unknown #
straight-curve $-1 55.140406567334722 -23.414890843323821 0 0 0 -1 I I #
point $-1 55.140406567334722 -23.414890843323821 -7.945570628254095 #
edge $-1 $300 -1.5 $304 1.5 $337 $355 forward 7 unknown #
point $-1 55.140406567334722 -23.414890843323821 7.945570628254095 #
point $-1 55.140406567334722 -20.414890843323821 7.945570628254095 #
point $-1 55.140406567334722 -20.414890843323821 -7.945570628254095 #
straight-curve $-1 43.317187963748374 23.414890843323821 49.403261925363935 0 0 -1 I I #
point $-1 43.317187963748374 23.414890843323821 7.945570628254095 #
straight-curve $-1 17.923549058220008 23.414890843323821 3.0485133075800981 -1 0 0 I I #
point $-1 43.317187963748374 23.414890843323821 3.0485133075800945 #
point $-1 35.847098116440016 19.379339397037445 3.857532471341877 #
straight-curve $-1 -49.228797265541552 23.414890843323821 0 0 0 -1 I I #
straight-curve $-1 -55.140406567334729 -23.414890843323821 0 0 0 -1 I I #
point $-1 -55.140406567334729 -23.414890843323821 -7.945570628254095 #
straight-curve $-1 55.140406567334722 -21.914890843323821 -7.945570628254095 0 -1 0 I I #
straight-curve $-1 55.140406567334722 -21.914890843323821 7.945570628254095 0 1 0 I I #
End-of-ACIS-data 