500 0 3 0           
7 Unknown 11 ACIS 5.0 NT 24 Thu Mar 25 17:33:07 1999 
-1 9.9999999999999995e-007 1e-010 
body $-1 $3 $-1 $4 #
body $-1 $5 $-1 $6 #
body $-1 $7 $-1 $8 #
lump $-1 $-1 $9 $0 #
transform $-1 1 0 0 0 1 0 0 0 1 42.984710226752526 29.399012588234587 6.0526059425712004 1 rotate no_reflect no_shear #
lump $-1 $-1 $10 $1 #
transform $-1 1 0 0 0 1 0 0 0 1 42.984710226752526 29.399012588234587 6.0526059425712004 1 rotate no_reflect no_shear #
lump $-1 $-1 $11 $2 #
transform $-1 1 0 0 0 1 0 0 0 1 42.984710226752526 29.399012588234587 6.0526059425712004 1 rotate no_reflect no_shear #
shell $-1 $-1 $-1 $12 $-1 $3 #
shell $-1 $-1 $-1 $13 $-1 $5 #
shell $-1 $-1 $-1 $14 $-1 $7 #
face $-1 $15 $16 $9 $-1 $17 reversed single #
face $-1 $18 $19 $10 $-1 $20 forward single #
face $-1 $21 $22 $11 $-1 $23 reversed single #
face $-1 $24 $25 $9 $-1 $26 forward single #
loop $-1 $-1 $27 $12 #
plane-surface $-1 -42.984710226752526 0 0 1 0 0 0 0 -1 forward_v I I I I #
face $-1 $28 $29 $10 $-1 $30 reversed single #
loop $-1 $-1 $31 $13 #
plane-surface $-1 -42.984710226752526 0 0 1 0 0 0 0 -1 forward_v I I I I #
face $-1 $32 $33 $11 $-1 $34 reversed single #
loop $-1 $-1 $35 $14 #
plane-surface $-1 39.419062748450216 0 3.0526059425712004 0 0 1 1 0 0 forward_v I I I I #
face $-1 $36 $37 $9 $-1 $38 reversed single #
loop $-1 $-1 $39 $15 #
plane-surface $-1 0 0 6.0526059425712004 0 0 1 1 0 0 forward_v I I I I #
coedge $-1 $40 $41 $42 $43 reversed $16 $-1 #
face $-1 $44 $45 $10 $-1 $46 reversed single #
loop $-1 $-1 $47 $18 #
plane-surface $-1 0 0 -6.0526059425712004 0 0 1 1 0 0 forward_v I I I I #
coedge $-1 $48 $49 $50 $51 forward $19 $-1 #
face $-1 $52 $53 $11 $-1 $54 reversed single #
loop $-1 $-1 $55 $21 #
plane-surface $-1 35.853415270147906 0 4.5526059425712004 1 0 0 0 0 -1 forward_v I I I I #
coedge $-1 $56 $57 $58 $59 reversed $22 $-1 #
face $-1 $60 $61 $9 $-1 $62 reversed single #
loop $-1 $-1 $63 $24 #
plane-surface $-1 0 0 -6.0526059425712004 0 0 1 1 0 0 forward_v I I I I #
coedge $-1 $64 $65 $66 $67 forward $25 $-1 #
coedge $-1 $68 $27 $69 $70 reversed $16 $-1 #
coedge $-1 $27 $68 $71 $72 forward $16 $-1 #
coedge $-1 $73 $74 $27 $43 forward $37 $-1 #
edge $-1 $75 -29.399012588234587 $76 29.399012588234587 $27 $77 forward 7 unknown #
face $-1 $78 $79 $10 $-1 $80 reversed single #
loop $-1 $-1 $81 $28 #
plane-surface $-1 -46.083431306494347 -23.216472366680694 0 0 1 0 0 0 1 forward_v I I I I #
coedge $-1 $82 $83 $49 $84 forward $29 $-1 #
coedge $-1 $85 $31 $86 $87 reversed $19 $-1 #
coedge $-1 $31 $85 $47 $84 reversed $19 $-1 #
coedge $-1 $88 $89 $31 $51 reversed $90 $-1 #
edge $-1 $91 -6.0526059425712004 $92 6.0526059425712004 $50 $93 forward 7 unknown #
face $-1 $94 $95 $11 $-1 $96 forward single #
loop $-1 $-1 $97 $32 #
plane-surface $-1 0 29.399012588234587 0 0 -1 0 0 0 -1 forward_v I I I I #
coedge $-1 $98 $99 $100 $101 reversed $33 $-1 #
coedge $-1 $102 $35 $103 $104 reversed $22 $-1 #
coedge $-1 $35 $102 $97 $105 reversed $22 $-1 #
coedge $-1 $106 $107 $35 $59 forward $108 $-1 #
edge $-1 $109 -29.399012588234587 $110 29.399012588234587 $58 $111 forward 7 unknown #
face $-1 $112 $113 $9 $-1 $114 reversed single #
loop $-1 $-1 $69 $36 #
plane-surface $-1 0 -29.399012588234587 0 0 1 0 0 0 1 forward_v I I I I #
coedge $-1 $74 $73 $115 $116 forward $37 $-1 #
coedge $-1 $117 $39 $118 $119 forward $25 $-1 #
coedge $-1 $39 $117 $120 $121 forward $25 $-1 #
coedge $-1 $122 $123 $39 $67 reversed $124 $-1 #
edge $-1 $125 -29.399012588234587 $126 29.399012588234587 $66 $127 forward 7 unknown #
coedge $-1 $41 $40 $117 $128 reversed $16 $-1 #
coedge $-1 $129 $120 $40 $70 forward $61 $-1 #
edge $-1 $130 -6.0526059425712004 $75 6.0526059425712004 $40 $131 forward 7 unknown #
coedge $-1 $118 $132 $41 $72 reversed $113 $-1 #
edge $-1 $133 -6.0526059425712004 $76 6.0526059425712004 $71 $134 forward 7 unknown #
coedge $-1 $63 $42 $132 $135 forward $37 $-1 #
coedge $-1 $42 $63 $129 $136 forward $37 $-1 #
vertex $-1 $43 $137 #
vertex $-1 $135 $138 #
straight-curve $-1 -42.984710226752526 0 -6.0526059425712004 0 1 0 I I #
face $-1 $139 $90 $10 $-1 $140 reversed single #
loop $-1 $-1 $141 $44 #
plane-surface $-1 -49.182152386236169 -21.492014427349602 0 1 0 0 0 0 -1 forward_v I I I I #
coedge $-1 $142 $143 $144 $145 forward $45 $-1 #
coedge $-1 $146 $47 $142 $147 forward $29 $-1 #
coedge $-1 $47 $146 $88 $148 forward $29 $-1 #
edge $-1 $91 19.76755648801851 $149 23.216472366680694 $47 $150 forward 7 unknown #
coedge $-1 $49 $48 $151 $152 forward $19 $-1 #
coedge $-1 $153 $154 $48 $87 forward $155 $-1 #
edge $-1 $156 -23.216472366680694 $92 -19.76755648801851 $86 $157 forward 7 unknown #
coedge $-1 $158 $50 $83 $148 reversed $90 $-1 #
coedge $-1 $50 $158 $153 $159 reversed $90 $-1 #
loop $-1 $-1 $50 $78 #
vertex $-1 $84 $160 #
vertex $-1 $159 $161 #
straight-curve $-1 -42.984710226752526 -19.76755648801851 0 0 0 1 I I #
face $-1 $162 $163 $11 $-1 $164 reversed single #
loop $-1 $-1 $165 $52 #
plane-surface $-1 0 0 6.0526059425712004 0 0 1 1 0 0 forward_v I I I I #
coedge $-1 $100 $166 $57 $105 forward $53 $-1 #
coedge $-1 $167 $55 $102 $168 reversed $33 $-1 #
coedge $-1 $55 $167 $165 $169 reversed $33 $-1 #
coedge $-1 $170 $97 $55 $101 forward $53 $-1 #
edge $-1 $171 0.77630297128560022 $172 3.7763029712856002 $100 $173 forward 7 unknown #
coedge $-1 $57 $56 $98 $168 forward $22 $-1 #
coedge $-1 $174 $175 $56 $104 forward $163 $-1 #
edge $-1 $176 16.143883895922798 $109 23.275178852527418 $103 $177 forward 7 unknown #
edge $-1 $110 -23.275178852527418 $171 -16.143883895922798 $97 $178 forward 7 unknown #
coedge $-1 $179 $58 $166 $180 reversed $108 $-1 #
coedge $-1 $58 $179 $174 $181 forward $108 $-1 #
loop $-1 $-1 $58 $162 #
vertex $-1 $104 $182 #
vertex $-1 $105 $183 #
straight-curve $-1 42.984710226752526 0 3.0526059425712004 0 1 0 I I #
face $-1 $-1 $124 $9 $-1 $184 reversed single #
loop $-1 $-1 $185 $60 #
plane-surface $-1 0 29.399012588234587 0 0 -1 0 0 0 -1 forward_v I I I I #
coedge $-1 $123 $122 $63 $116 reversed $124 $-1 #
edge $-1 $186 -29.399012588234587 $187 29.399012588234587 $115 $188 forward 7 unknown #
coedge $-1 $65 $64 $68 $128 forward $25 $-1 #
coedge $-1 $185 $71 $64 $119 reversed $113 $-1 #
edge $-1 $126 -42.984710226752526 $133 42.984710226752526 $118 $189 forward 7 unknown #
coedge $-1 $69 $190 $65 $121 reversed $61 $-1 #
edge $-1 $130 -42.984710226752526 $125 42.984710226752526 $120 $191 forward 7 unknown #
coedge $-1 $115 $66 $190 $192 forward $124 $-1 #
coedge $-1 $66 $115 $185 $193 reversed $124 $-1 #
loop $-1 $-1 $122 $112 #
vertex $-1 $67 $194 #
vertex $-1 $67 $195 #
straight-curve $-1 42.984710226752526 0 6.0526059425712004 0 1 0 I I #
edge $-1 $133 -29.399012588234587 $130 29.399012588234587 $68 $196 forward 7 unknown #
coedge $-1 $190 $69 $74 $136 reversed $61 $-1 #
vertex $-1 $128 $197 #
straight-curve $-1 -42.984710226752526 -29.399012588234587 0 0 0 -1 I I #
coedge $-1 $71 $185 $73 $135 reversed $113 $-1 #
vertex $-1 $119 $198 #
straight-curve $-1 -42.984710226752526 29.399012588234587 0 0 0 -1 I I #
edge $-1 $76 -42.984710226752526 $186 42.984710226752526 $132 $199 forward 7 unknown #
edge $-1 $187 -42.984710226752526 $75 42.984710226752526 $129 $200 forward 7 unknown #
point $-1 -42.984710226752526 -29.399012588234587 -6.0526059425712004 #
point $-1 -42.984710226752526 29.399012588234587 -6.0526059425712004 #
face $-1 $-1 $155 $10 $-1 $201 forward single #
plane-surface $-1 -46.083431306494347 -19.76755648801851 0 0 -1 0 0 0 -1 forward_v I I I I #
coedge $-1 $202 $203 $158 $204 forward $79 $-1 #
coedge $-1 $151 $81 $82 $147 reversed $45 $-1 #
coedge $-1 $81 $151 $154 $205 reversed $45 $-1 #
coedge $-1 $203 $202 $81 $145 reversed $79 $-1 #
edge $-1 $206 -6.0526059425712004 $207 6.0526059425712004 $144 $208 forward 7 unknown #
coedge $-1 $83 $82 $202 $209 forward $29 $-1 #
edge $-1 $149 -3.0987210797418214 $207 3.0987210797418214 $142 $210 forward 7 unknown #
edge $-1 $211 -3.0987210797418214 $91 3.0987210797418214 $88 $212 forward 7 unknown #
vertex $-1 $147 $213 #
straight-curve $-1 -42.984710226752526 0 -6.0526059425712004 0 -1 0 I I #
coedge $-1 $143 $142 $85 $152 reversed $45 $-1 #
edge $-1 $156 -6.0526059425712004 $149 6.0526059425712004 $151 $214 forward 7 unknown #
coedge $-1 $215 $86 $89 $159 forward $155 $-1 #
coedge $-1 $86 $215 $143 $205 forward $155 $-1 #
loop $-1 $-1 $86 $139 #
vertex $-1 $87 $216 #
straight-curve $-1 -42.984710226752526 0 6.0526059425712004 0 1 0 I I #
coedge $-1 $89 $88 $141 $204 reversed $90 $-1 #
edge $-1 $92 -3.0987210797418214 $217 3.0987210797418214 $89 $218 forward 7 unknown #
point $-1 -42.984710226752526 -19.76755648801851 -6.0526059425712004 #
point $-1 -42.984710226752526 -19.76755648801851 6.0526059425712004 #
face $-1 $-1 $108 $11 $-1 $219 reversed single #
loop $-1 $-1 $103 $94 #
plane-surface $-1 0 -29.399012588234587 0 0 1 0 0 0 1 forward_v I I I I #
coedge $-1 $220 $221 $99 $169 forward $95 $-1 #
coedge $-1 $97 $170 $106 $180 forward $53 $-1 #
coedge $-1 $99 $98 $175 $222 reversed $33 $-1 #
edge $-1 $176 -29.399012588234587 $171 29.399012588234587 $98 $223 forward 7 unknown #
edge $-1 $172 -29.399012588234587 $224 29.399012588234587 $165 $225 forward 7 unknown #
coedge $-1 $166 $100 $221 $226 reversed $53 $-1 #
vertex $-1 $105 $227 #
vertex $-1 $169 $228 #
straight-curve $-1 35.853415270147906 29.399012588234587 2.2763029712856002 0 0 1 I I #
coedge $-1 $229 $103 $107 $181 reversed $163 $-1 #
coedge $-1 $103 $229 $167 $222 forward $163 $-1 #
vertex $-1 $104 $230 #
straight-curve $-1 19.709531374225108 -29.399012588234587 3.0526059425712004 1 0 0 I I #
straight-curve $-1 19.709531374225108 29.399012588234587 3.0526059425712004 -1 0 0 I I #
coedge $-1 $107 $106 $231 $232 reversed $108 $-1 #
edge $-1 $233 -6.0526059425712004 $110 -3.0526059425712004 $106 $234 forward 7 unknown #
edge $-1 $235 -6.0526059425712004 $109 -3.0526059425712004 $107 $236 forward 7 unknown #
point $-1 42.984710226752526 -29.399012588234587 3.0526059425712004 #
point $-1 42.984710226752526 29.399012588234587 3.0526059425712004 #
plane-surface $-1 42.984710226752526 0 0 -1 0 0 0 0 1 forward_v I I I I #
coedge $-1 $132 $118 $123 $193 forward $113 $-1 #
vertex $-1 $116 $237 #
vertex $-1 $192 $238 #
straight-curve $-1 42.984710226752526 0 -6.0526059425712004 0 -1 0 I I #
straight-curve $-1 0 29.399012588234587 6.0526059425712004 -1 0 0 I I #
coedge $-1 $120 $129 $122 $192 reversed $61 $-1 #
straight-curve $-1 0 -29.399012588234587 6.0526059425712004 1 0 0 I I #
edge $-1 $125 -6.0526059425712004 $187 6.0526059425712004 $122 $239 forward 7 unknown #
edge $-1 $126 -6.0526059425712004 $186 6.0526059425712004 $123 $240 forward 7 unknown #
point $-1 42.984710226752526 -29.399012588234587 6.0526059425712004 #
point $-1 42.984710226752526 29.399012588234587 6.0526059425712004 #
straight-curve $-1 -42.984710226752526 0 6.0526059425712004 0 -1 0 I I #
point $-1 -42.984710226752526 -29.399012588234587 6.0526059425712004 #
point $-1 -42.984710226752526 29.399012588234587 6.0526059425712004 #
straight-curve $-1 0 29.399012588234587 -6.0526059425712004 1 0 0 I I #
straight-curve $-1 0 -29.399012588234587 -6.0526059425712004 -1 0 0 I I #
plane-surface $-1 0 0 6.0526059425712004 0 0 1 1 0 0 forward_v I I I I #
coedge $-1 $144 $141 $146 $209 reversed $79 $-1 #
coedge $-1 $141 $144 $215 $241 reversed $79 $-1 #
edge $-1 $217 -6.0526059425712004 $211 6.0526059425712004 $158 $242 forward 7 unknown #
edge $-1 $206 -3.0987210797418214 $156 3.0987210797418214 $143 $243 forward 7 unknown #
vertex $-1 $241 $244 #
vertex $-1 $209 $245 #
straight-curve $-1 -49.182152386236169 -23.216472366680694 0 0 0 -1 I I #
edge $-1 $207 -1.7244579393310921 $211 1.7244579393310921 $202 $246 forward 7 unknown #
straight-curve $-1 -46.083431306494347 -23.216472366680694 -6.0526059425712004 -1 0 0 I I #
vertex $-1 $148 $247 #
straight-curve $-1 -46.083431306494347 -19.76755648801851 -6.0526059425712004 1 0 0 I I #
point $-1 -42.984710226752526 -23.216472366680694 -6.0526059425712004 #
straight-curve $-1 -42.984710226752526 -23.216472366680694 0 0 0 -1 I I #
coedge $-1 $154 $153 $203 $241 forward $155 $-1 #
point $-1 -42.984710226752526 -23.216472366680694 6.0526059425712004 #
vertex $-1 $159 $248 #
straight-curve $-1 -46.083431306494347 -19.76755648801851 6.0526059425712004 -1 0 0 I I #
plane-surface $-1 42.984710226752526 0 0 -1 0 0 0 0 1 forward_v I I I I #
coedge $-1 $231 $165 $229 $249 forward $95 $-1 #
coedge $-1 $165 $231 $170 $226 forward $95 $-1 #
edge $-1 $224 -3.7763029712856002 $176 -0.77630297128560022 $175 $250 forward 7 unknown #
straight-curve $-1 35.853415270147906 0 3.0526059425712004 0 1 0 I I #
vertex $-1 $249 $251 #
straight-curve $-1 35.853415270147906 0 6.0526059425712004 0 -1 0 I I #
edge $-1 $233 -42.984710226752526 $172 -35.853415270147906 $170 $252 forward 7 unknown #
point $-1 35.853415270147906 29.399012588234587 3.0526059425712004 #
point $-1 35.853415270147906 29.399012588234587 6.0526059425712004 #
coedge $-1 $175 $174 $220 $249 reversed $163 $-1 #
point $-1 35.853415270147906 -29.399012588234587 3.0526059425712004 #
coedge $-1 $221 $220 $179 $232 forward $95 $-1 #
edge $-1 $235 -29.399012588234587 $233 29.399012588234587 $179 $253 forward 7 unknown #
vertex $-1 $232 $254 #
straight-curve $-1 42.984710226752526 29.399012588234587 0 0 0 -1 I I #
vertex $-1 $232 $255 #
straight-curve $-1 42.984710226752526 -29.399012588234587 0 0 0 -1 I I #
point $-1 42.984710226752526 29.399012588234587 -6.0526059425712004 #
point $-1 42.984710226752526 -29.399012588234587 -6.0526059425712004 #
straight-curve $-1 42.984710226752526 -29.399012588234587 0 0 0 -1 I I #
straight-curve $-1 42.984710226752526 29.399012588234587 0 0 0 -1 I I #
edge $-1 $217 -1.7244579393310921 $206 1.7244579393310921 $203 $256 forward 7 unknown #
straight-curve $-1 -49.182152386236169 -19.76755648801851 0 0 0 -1 I I #
straight-curve $-1 -46.083431306494347 -23.216472366680694 6.0526059425712004 1 0 0 I I #
point $-1 -49.182152386236169 -23.216472366680694 6.0526059425712004 #
point $-1 -49.182152386236169 -23.216472366680694 -6.0526059425712004 #
straight-curve $-1 -49.182152386236169 -21.492014427349602 -6.0526059425712004 0 1 0 I I #
point $-1 -49.182152386236169 -19.76755648801851 -6.0526059425712004 #
point $-1 -49.182152386236169 -19.76755648801851 6.0526059425712004 #
edge $-1 $224 35.853415270147906 $235 42.984710226752526 $229 $257 forward 7 unknown #
straight-curve $-1 35.853415270147906 -29.399012588234587 2.2763029712856002 0 0 -1 I I #
point $-1 35.853415270147906 -29.399012588234587 6.0526059425712004 #
straight-curve $-1 0 29.399012588234587 6.0526059425712004 -1 0 0 I I #
straight-curve $-1 42.984710226752526 0 6.0526059425712004 0 1 0 I I #
point $-1 42.984710226752526 29.399012588234587 6.0526059425712004 #
point $-1 42.984710226752526 -29.399012588234587 6.0526059425712004 #
straight-curve $-1 -49.182152386236169 -21.492014427349602 6.0526059425712004 0 -1 0 I I #
straight-curve $-1 0 -29.399012588234587 6.0526059425712004 1 0 0 I I #
End-of-ACIS-data 