500 0 12 0           
7 Unknown 11 ACIS 5.0 NT 24 Fri Mar 26 19:56:41 1999 
-1 9.9999999999999995e-007 1e-010 
body $-1 $12 $-1 $13 #
body $-1 $14 $-1 $15 #
body $-1 $16 $-1 $17 #
body $-1 $18 $-1 $19 #
body $-1 $20 $-1 $21 #
body $-1 $22 $-1 $23 #
body $-1 $24 $-1 $25 #
body $-1 $26 $-1 $27 #
body $-1 $28 $-1 $29 #
body $-1 $30 $-1 $31 #
body $-1 $32 $-1 $33 #
body $-1 $34 $-1 $35 #
lump $-1 $-1 $36 $0 #
transform $-1 1 0 0 0 1 0 0 0 1 58.579668568987088 32.097875466820518 9.5134784068931406 1 rotate no_reflect no_shear #
lump $-1 $-1 $37 $1 #
transform $-1 1 0 0 0 1 0 0 0 1 58.579668568987088 32.097875466820518 9.5134784068931406 1 rotate no_reflect no_shear #
lump $-1 $-1 $38 $2 #
transform $-1 1 0 0 0 1 0 0 0 1 58.579668568987088 32.097875466820518 9.5134784068931406 1 rotate no_reflect no_shear #
lump $-1 $-1 $39 $3 #
transform $-1 1 0 0 0 1 0 0 0 1 58.579668568987088 32.097875466820518 9.5134784068931406 1 rotate no_reflect no_shear #
lump $-1 $-1 $40 $4 #
transform $-1 1 0 0 0 1 0 0 0 1 58.579668568987088 32.097875466820518 9.5134784068931406 1 rotate no_reflect no_shear #
lump $-1 $-1 $41 $5 #
transform $-1 1 0 0 0 1 0 0 0 1 58.579668568987088 32.097875466820518 9.5134784068931406 1 rotate no_reflect no_shear #
lump $-1 $-1 $42 $6 #
transform $-1 1 0 0 0 1 0 0 0 1 58.579668568987088 32.097875466820518 9.5134784068931406 1 rotate no_reflect no_shear #
lump $-1 $-1 $43 $7 #
transform $-1 1 0 0 0 1 0 0 0 1 58.579668568987088 32.097875466820518 9.5134784068931406 1 rotate no_reflect no_shear #
lump $-1 $-1 $44 $8 #
transform $-1 1 0 0 0 1 0 0 0 1 58.579668568987088 32.097875466820518 9.5134784068931406 1 rotate no_reflect no_shear #
lump $-1 $-1 $45 $9 #
transform $-1 1 0 0 0 1 0 0 0 1 58.579668568987088 32.097875466820518 9.5134784068931406 1 rotate no_reflect no_shear #
lump $-1 $-1 $46 $10 #
transform $-1 1 0 0 0 1 0 0 0 1 58.579668568987088 32.097875466820518 9.5134784068931406 1 rotate no_reflect no_shear #
lump $-1 $-1 $47 $11 #
transform $-1 1 0 0 0 1 0 0 0 1 58.579668568987088 32.097875466820518 9.5134784068931406 1 rotate no_reflect no_shear #
shell $-1 $-1 $-1 $48 $-1 $12 #
shell $-1 $-1 $-1 $49 $-1 $14 #
shell $-1 $-1 $-1 $50 $-1 $16 #
shell $-1 $-1 $-1 $51 $-1 $18 #
shell $-1 $-1 $-1 $52 $-1 $20 #
shell $-1 $-1 $-1 $53 $-1 $22 #
shell $-1 $-1 $-1 $54 $-1 $24 #
shell $-1 $-1 $-1 $55 $-1 $26 #
shell $-1 $-1 $-1 $56 $-1 $28 #
shell $-1 $-1 $-1 $57 $-1 $30 #
shell $-1 $-1 $-1 $58 $-1 $32 #
shell $-1 $-1 $-1 $59 $-1 $34 #
face $-1 $60 $61 $36 $-1 $62 forward single #
face $-1 $63 $64 $37 $-1 $65 forward single #
face $-1 $66 $67 $38 $-1 $68 forward single #
face $-1 $69 $70 $39 $-1 $71 reversed single #
face $-1 $72 $73 $40 $-1 $74 forward single #
face $-1 $75 $76 $41 $-1 $77 forward single #
face $-1 $78 $79 $42 $-1 $80 reversed single #
face $-1 $81 $82 $43 $-1 $83 forward single #
face $-1 $84 $85 $44 $-1 $86 forward single #
face $-1 $87 $88 $45 $-1 $89 reversed single #
face $-1 $90 $91 $46 $-1 $92 forward single #
face $-1 $93 $94 $47 $-1 $95 forward single #
face $-1 $96 $97 $36 $-1 $98 reversed single #
loop $-1 $-1 $99 $48 #
plane-surface $-1 0 0 9.5134784068931406 0 0 1 1 0 0 forward_v I I I I #
face $-1 $100 $101 $37 $-1 $102 reversed single #
loop $-1 $-1 $103 $49 #
plane-surface $-1 -58.579668568987088 0 0 1 0 0 0 0 -1 forward_v I I I I #
face $-1 $104 $105 $38 $-1 $106 reversed single #
loop $-1 $-1 $107 $50 #
plane-surface $-1 58.579668568987088 0 0 -1 0 0 0 0 1 forward_v I I I I #
face $-1 $108 $109 $39 $-1 $110 reversed single #
loop $-1 $-1 $111 $51 #
plane-surface $-1 -49.764840134006029 69.548787915743958 133.10418334132487 1 0 0 0 -0.70710678939079041 -0.70710677298230451 forward_v I I I I #
face $-1 $112 $113 $40 $-1 $114 forward single #
loop $-1 $115 $116 $52 #
cone-surface $-1 -45.215666928273095 28.438319477958213 5.853922395123897 0 -0.70710678939079041 -0.70710677298230451 1 0 0 1 I I 0 1 1 forward I I I I #
face $-1 $117 $118 $41 $-1 $119 forward single #
loop $-1 $120 $121 $53 #
cone-surface $-1 -38.391907119673689 28.438319477958213 5.853922395123897 0 -0.70710678939079041 -0.70710677298230451 1 0 0 1 I I 0 1 1 forward I I I I #
face $-1 $122 $123 $42 $-1 $124 reversed single #
loop $-1 $-1 $125 $54 #
plane-surface $-1 33.842733913940769 69.548787915743958 133.10418334132487 1 0 0 0 -0.70710678939079041 -0.70710677298230451 forward_v I I I I #
face $-1 $126 $127 $43 $-1 $128 forward single #
loop $-1 $129 $130 $55 #
cone-surface $-1 38.391907119673704 28.438319477958213 5.853922395123897 0 -0.70710678939079041 -0.70710677298230451 1 0 0 1 I I 0 1 1 forward I I I I #
face $-1 $131 $132 $44 $-1 $133 forward single #
loop $-1 $134 $135 $56 #
cone-surface $-1 45.215666928273109 28.438319477958213 5.853922395123897 0 -0.70710678939079041 -0.70710677298230451 1 0 0 1 I I 0 1 1 forward I I I I #
face $-1 $136 $137 $45 $-1 $138 reversed single #
loop $-1 $-1 $139 $57 #
plane-surface $-1 10.153459194740535 -116.37525061672557 87.669002474077644 -1 0 0 0 -0.71933980857756763 0.69465836192734942 forward_v I I I I #
face $-1 $140 $141 $46 $-1 $142 forward single #
loop $-1 $143 $144 $58 #
cone-surface $-1 -1.3510625501581686 -30.041972636285635 7.419185736035069 0 0.71933980857756763 -0.69465836192734942 0.5 0 0 1 I I 0 1 0.5 forward I I I I #
face $-1 $145 $146 $47 $-1 $147 forward single #
loop $-1 $148 $149 $59 #
cone-surface $-1 5.5516504967810505 -30.041972636285635 7.419185736035069 0 0.71933980857756763 -0.69465836192734942 0.5 0 0 1 I I 0 1 0.5 forward I I I I #
face $-1 $150 $151 $36 $-1 $152 reversed single #
loop $-1 $-1 $153 $60 #
plane-surface $-1 0 0 -9.5134784068931406 0 0 1 1 0 0 forward_v I I I I #
coedge $-1 $154 $155 $156 $157 forward $61 $-1 #
face $-1 $158 $159 $37 $-1 $160 forward single #
loop $-1 $-1 $161 $63 #
plane-surface $-1 0 32.097875466820518 0 0 -1 0 0 0 -1 forward_v I I I I #
coedge $-1 $162 $163 $164 $165 forward $64 $-1 #
face $-1 $166 $167 $38 $-1 $168 forward single #
loop $-1 $-1 $169 $66 #
plane-surface $-1 0 32.097875466820518 0 0 -1 0 0 0 -1 forward_v I I I I #
coedge $-1 $170 $171 $172 $173 forward $67 $-1 #
face $-1 $174 $175 $39 $-1 $176 reversed single #
loop $-1 $-1 $177 $69 #
plane-surface $-1 -41.803787023973385 -13.295374815042152 50.260022532946081 0 0.70710678939079041 0.70710677298230451 1 0 0 forward_v I I I I #
coedge $-1 $178 $179 $180 $181 reversed $70 $-1 #
face $-1 $-1 $182 $40 $-1 $183 forward single #
loop $-1 $184 $185 $72 #
cone-surface $-1 -45.215666928273095 26.748563645069261 4.1641666014459009 0 -0.70710678939079041 -0.70710677298230451 0.5 0 0 1 I I -0.70710678118654746 0.70710678118654746 0.5 forward I I I I #
loop $-1 $-1 $186 $52 #
coedge $-1 $116 $116 $187 $188 reversed $73 $-1 #
face $-1 $-1 $189 $41 $-1 $190 forward single #
loop $-1 $191 $192 $75 #
cone-surface $-1 -38.391907119673689 26.748563645069261 4.1641666014459009 0 -0.70710678939079041 -0.70710677298230451 0.5 0 0 1 I I -0.70710678118654746 0.70710678118654746 0.5 forward I I I I #
loop $-1 $-1 $193 $53 #
coedge $-1 $121 $121 $194 $195 reversed $76 $-1 #
face $-1 $196 $197 $42 $-1 $198 reversed single #
loop $-1 $-1 $199 $78 #
plane-surface $-1 41.803787023973413 -13.295374815042152 50.260022532946081 0 0.70710678939079041 0.70710677298230451 1 0 0 forward_v I I I I #
coedge $-1 $200 $201 $202 $203 reversed $79 $-1 #
face $-1 $-1 $204 $43 $-1 $205 forward single #
loop $-1 $206 $207 $81 #
cone-surface $-1 38.391907119673704 26.748563645069261 4.1641666014459009 0 -0.70710678939079041 -0.70710677298230451 0.5 0 0 1 I I -0.70710678118654746 0.70710678118654746 0.5 forward I I I I #
loop $-1 $-1 $208 $55 #
coedge $-1 $130 $130 $209 $210 reversed $82 $-1 #
face $-1 $-1 $211 $44 $-1 $212 forward single #
loop $-1 $213 $214 $84 #
cone-surface $-1 45.215666928273109 26.748563645069261 4.1641666014459009 0 -0.70710678939079041 -0.70710677298230451 0.5 0 0 1 I I -0.70710678118654746 0.70710678118654746 0.5 forward I I I I #
loop $-1 $-1 $215 $56 #
coedge $-1 $135 $135 $216 $217 reversed $85 $-1 #
face $-1 $218 $219 $45 $-1 $220 reversed single #
loop $-1 $-1 $221 $87 #
plane-surface $-1 2.1002939733114445 -32.097875466820511 6.2832892533184292 0 -0.71933980857756763 0.69465836192734942 1 0 0 forward_v I I I I #
coedge $-1 $222 $223 $224 $225 reversed $88 $-1 #
face $-1 $-1 $226 $46 $-1 $227 forward single #
loop $-1 $228 $229 $90 #
cone-surface $-1 -1.3510625501581686 -29.365913519642351 6.7663230514825106 0 0.71933980857756763 -0.69465836192734942 0.25 0 0 1 I I -0.70710678118654746 0.70710678118654746 0.25 forward I I I I #
loop $-1 $-1 $230 $58 #
coedge $-1 $144 $144 $231 $232 reversed $91 $-1 #
face $-1 $-1 $233 $47 $-1 $234 forward single #
loop $-1 $235 $236 $93 #
cone-surface $-1 5.5516504967810505 -29.365913519642351 6.7663230514825106 0 0.71933980857756763 -0.69465836192734942 0.25 0 0 1 I I -0.70710678118654746 0.70710678118654746 0.25 forward I I I I #
loop $-1 $-1 $237 $59 #
coedge $-1 $149 $149 $238 $239 reversed $94 $-1 #
face $-1 $240 $241 $36 $-1 $242 reversed single #
loop $-1 $-1 $243 $96 #
plane-surface $-1 0 -32.097875466820518 0 0 1 0 0 0 1 forward_v I I I I #
coedge $-1 $244 $245 $246 $247 forward $97 $-1 #
coedge $-1 $248 $99 $249 $250 forward $61 $-1 #
coedge $-1 $99 $248 $251 $252 forward $61 $-1 #
coedge $-1 $253 $254 $99 $157 reversed $255 $-1 #
edge $-1 $256 -32.097875466820518 $257 32.097875466820518 $156 $258 forward 7 unknown #
face $-1 $259 $260 $37 $-1 $261 reversed single #
loop $-1 $-1 $164 $100 #
plane-surface $-1 -62.987082786477615 0 -6.0044051709731026 0 0 1 1 0 0 forward_v I I I I #
coedge $-1 $262 $263 $163 $264 forward $101 $-1 #
coedge $-1 $265 $103 $266 $267 reversed $64 $-1 #
coedge $-1 $103 $265 $161 $264 reversed $64 $-1 #
coedge $-1 $268 $269 $103 $165 reversed $159 $-1 #
edge $-1 $270 -32.097875466820518 $271 32.097875466820518 $164 $272 forward 7 unknown #
face $-1 $273 $274 $38 $-1 $275 reversed single #
loop $-1 $-1 $276 $104 #
plane-surface $-1 62.987082786477615 0 -6.0044051709731026 0 0 1 1 0 0 forward_v I I I I #
coedge $-1 $277 $278 $170 $279 forward $105 $-1 #
coedge $-1 $280 $107 $169 $279 reversed $67 $-1 #
coedge $-1 $107 $280 $281 $282 reversed $67 $-1 #
coedge $-1 $283 $284 $107 $173 reversed $167 $-1 #
edge $-1 $285 -32.097875466820518 $286 32.097875466820518 $172 $287 forward 7 unknown #
face $-1 $288 $289 $39 $-1 $290 reversed single #
loop $-1 $-1 $291 $108 #
plane-surface $-1 -33.842733913940741 69.548787915743958 133.10418334132487 -1 0 0 0 0.70710678939079041 0.70710677298230451 forward_v I I I I #
coedge $-1 $292 $293 $294 $295 reversed $109 $-1 #
coedge $-1 $179 $111 $296 $297 reversed $70 $-1 #
coedge $-1 $111 $178 $292 $298 reversed $70 $-1 #
coedge $-1 $294 $299 $111 $181 forward $300 $-1 #
edge $-1 $301 2.6765184910514606 $302 7.323225592388944 $180 $303 forward 7 unknown #
loop $-1 $-1 $187 $112 #
plane-surface $-1 -41.803787023973385 -13.295374815042152 50.260022532946081 0 0.70710678939079041 0.70710677298230451 1 0 0 forward_v I I I I #
loop $-1 $-1 $304 $72 #
coedge $-1 $185 $185 $186 $305 reversed $113 $-1 #
coedge $-1 $186 $186 $185 $305 forward $115 $-1 #
coedge $-1 $187 $187 $116 $188 forward $182 $-1 #
edge $-1 $306 -6.2803699076034151e-016 $306 6.2831853071795996 $187 $307 forward 7 unknown #
loop $-1 $-1 $194 $117 #
plane-surface $-1 -41.803787023973385 -13.295374815042152 50.260022532946081 0 0.70710678939079041 0.70710677298230451 1 0 0 forward_v I I I I #
loop $-1 $-1 $308 $75 #
coedge $-1 $192 $192 $193 $309 reversed $118 $-1 #
coedge $-1 $193 $193 $192 $309 forward $120 $-1 #
coedge $-1 $194 $194 $121 $195 forward $189 $-1 #
edge $-1 $310 -6.2803699076034151e-016 $310 6.2831853071795996 $194 $311 forward 7 unknown #
face $-1 $312 $313 $42 $-1 $314 forward single #
loop $-1 $-1 $315 $122 #
plane-surface $-1 49.764840134006057 69.548787915743958 133.10418334132487 -1 0 0 0 0.70710678939079041 0.70710677298230451 forward_v I I I I #
coedge $-1 $316 $317 $318 $319 reversed $123 $-1 #
coedge $-1 $201 $125 $320 $321 reversed $79 $-1 #
coedge $-1 $125 $200 $316 $322 reversed $79 $-1 #
coedge $-1 $318 $323 $125 $203 forward $313 $-1 #
edge $-1 $324 2.6765184910514606 $325 7.323225592388944 $202 $326 forward 7 unknown #
loop $-1 $-1 $209 $126 #
plane-surface $-1 41.803787023973413 -13.295374815042152 50.260022532946081 0 0.70710678939079041 0.70710677298230451 1 0 0 forward_v I I I I #
loop $-1 $-1 $327 $81 #
coedge $-1 $207 $207 $208 $328 reversed $127 $-1 #
coedge $-1 $208 $208 $207 $328 forward $129 $-1 #
coedge $-1 $209 $209 $130 $210 forward $204 $-1 #
edge $-1 $329 -6.2803699076034151e-016 $329 6.2831853071795996 $209 $330 forward 7 unknown #
loop $-1 $-1 $216 $131 #
plane-surface $-1 41.803787023973413 -13.295374815042152 50.260022532946081 0 0.70710678939079041 0.70710677298230451 1 0 0 forward_v I I I I #
loop $-1 $-1 $331 $84 #
coedge $-1 $214 $214 $215 $332 reversed $132 $-1 #
coedge $-1 $215 $215 $214 $332 forward $134 $-1 #
coedge $-1 $216 $216 $135 $217 forward $211 $-1 #
edge $-1 $333 -6.2803699076034151e-016 $333 6.2831853071795996 $216 $334 forward 7 unknown #
face $-1 $335 $336 $45 $-1 $337 forward single #
loop $-1 $-1 $338 $136 #
plane-surface $-1 -5.9528712481176456 -116.37525061672557 87.669002474077644 1 0 0 0 0.71933980857756763 -0.69465836192734942 forward_v I I I I #
coedge $-1 $339 $340 $341 $342 reversed $137 $-1 #
coedge $-1 $223 $139 $343 $344 reversed $88 $-1 #
coedge $-1 $139 $222 $339 $345 reversed $88 $-1 #
coedge $-1 $341 $346 $139 $225 forward $336 $-1 #
edge $-1 $347 26.089749841542265 $348 29.209107173614267 $224 $349 forward 7 unknown #
loop $-1 $-1 $231 $140 #
plane-surface $-1 2.1002939733114445 -32.097875466820511 6.2832892533184292 0 -0.71933980857756763 0.69465836192734942 1 0 0 forward_v I I I I #
loop $-1 $-1 $350 $90 #
coedge $-1 $229 $229 $230 $351 reversed $141 $-1 #
coedge $-1 $230 $230 $229 $351 forward $143 $-1 #
coedge $-1 $231 $231 $144 $232 forward $226 $-1 #
edge $-1 $352 2.9063528301465189e-015 $352 6.2831853071796031 $231 $353 forward 7 unknown #
loop $-1 $-1 $238 $145 #
plane-surface $-1 2.1002939733114445 -32.097875466820511 6.2832892533184292 0 -0.71933980857756763 0.69465836192734942 1 0 0 forward_v I I I I #
loop $-1 $-1 $354 $93 #
coedge $-1 $236 $236 $237 $355 reversed $146 $-1 #
coedge $-1 $237 $237 $236 $355 forward $148 $-1 #
coedge $-1 $238 $238 $149 $239 forward $233 $-1 #
edge $-1 $356 2.9063528301465189e-015 $356 6.2831853071796031 $238 $357 forward 7 unknown #
face $-1 $358 $359 $36 $-1 $360 reversed single #
loop $-1 $-1 $361 $150 #
plane-surface $-1 -58.579668568987088 0 0 1 0 0 0 0 -1 forward_v I I I I #
coedge $-1 $362 $251 $361 $363 forward $151 $-1 #
coedge $-1 $364 $153 $362 $365 forward $97 $-1 #
coedge $-1 $153 $364 $366 $367 forward $97 $-1 #
coedge $-1 $254 $253 $153 $247 reversed $255 $-1 #
edge $-1 $368 -32.097875466820518 $369 32.097875466820518 $246 $370 forward 7 unknown #
coedge $-1 $155 $154 $371 $372 forward $61 $-1 #
coedge $-1 $373 $374 $154 $250 reversed $359 $-1 #
edge $-1 $257 -58.579668568987088 $375 58.579668568987088 $249 $376 forward 7 unknown #
coedge $-1 $243 $377 $155 $252 reversed $151 $-1 #
edge $-1 $378 -58.579668568987088 $256 58.579668568987088 $251 $379 forward 7 unknown #
coedge $-1 $246 $156 $377 $380 forward $255 $-1 #
coedge $-1 $156 $246 $373 $381 reversed $255 $-1 #
loop $-1 $-1 $254 $358 #
vertex $-1 $157 $382 #
vertex $-1 $157 $383 #
straight-curve $-1 58.579668568987088 0 9.5134784068931406 0 1 0 I I #
face $-1 $384 $385 $37 $-1 $386 reversed single #
loop $-1 $-1 $387 $158 #
plane-surface $-1 -67.394497003968141 0 -7.7589417889331216 1 0 0 0 0 -1 forward_v I I I I #
coedge $-1 $388 $161 $389 $390 reversed $101 $-1 #
coedge $-1 $161 $388 $268 $391 reversed $101 $-1 #
edge $-1 $270 6.0044051709731026 $392 9.5134784068931406 $161 $393 forward 7 unknown #
coedge $-1 $163 $162 $394 $395 reversed $64 $-1 #
coedge $-1 $396 $397 $162 $267 forward $398 $-1 #
edge $-1 $399 -9.5134784068931406 $271 -6.0044051709731026 $266 $400 forward 7 unknown #
coedge $-1 $401 $164 $263 $391 forward $159 $-1 #
coedge $-1 $164 $401 $396 $402 forward $159 $-1 #
vertex $-1 $264 $403 #
vertex $-1 $402 $404 #
straight-curve $-1 -58.579668568987088 0 -6.0044051709731026 0 -1 0 I I #
face $-1 $405 $406 $38 $-1 $407 reversed single #
loop $-1 $-1 $408 $166 #
plane-surface $-1 67.394497003968141 0 -7.7589417889331216 -1 0 0 0 0 1 forward_v I I I I #
coedge $-1 $284 $283 $409 $410 forward $167 $-1 #
coedge $-1 $411 $169 $284 $412 reversed $105 $-1 #
coedge $-1 $169 $411 $413 $414 reversed $105 $-1 #
edge $-1 $415 -9.5134784068931406 $286 -6.0044051709731026 $169 $416 forward 7 unknown #
coedge $-1 $171 $170 $417 $418 reversed $67 $-1 #
coedge $-1 $419 $420 $171 $282 forward $421 $-1 #
edge $-1 $285 6.0044051709731026 $422 9.5134784068931406 $281 $423 forward 7 unknown #
coedge $-1 $276 $172 $420 $424 forward $167 $-1 #
coedge $-1 $172 $276 $277 $412 forward $167 $-1 #
vertex $-1 $282 $425 #
vertex $-1 $412 $426 #
straight-curve $-1 58.579668568987088 0 -6.0044051709731026 0 1 0 I I #
face $-1 $-1 $300 $39 $-1 $427 forward single #
loop $-1 $-1 $428 $174 #
plane-surface $-1 0 32.097875466820518 0 0 -1 0 0 0 -1 forward_v I I I I #
coedge $-1 $429 $430 $431 $432 reversed $175 $-1 #
coedge $-1 $433 $177 $179 $298 forward $109 $-1 #
coedge $-1 $177 $433 $429 $434 forward $109 $-1 #
coedge $-1 $431 $180 $177 $295 forward $300 $-1 #
edge $-1 $302 -28.862946622019336 $435 -12.940840401954048 $294 $436 forward 7 unknown #
coedge $-1 $437 $438 $178 $297 forward $289 $-1 #
edge $-1 $439 -61.685320472934102 $301 -57.038613263769292 $296 $440 forward 7 unknown #
edge $-1 $302 57.624314654308769 $439 64.195750933641051 $179 $441 forward 7 unknown #
coedge $-1 $180 $431 $437 $442 forward $300 $-1 #
loop $-1 $-1 $431 $288 #
vertex $-1 $297 $443 #
vertex $-1 $181 $444 #
straight-curve $-1 -49.764840134006029 34.774393957871979 9.5134784068931424 0 -1 0 I I #
coedge $-1 $304 $304 $-1 $445 reversed $184 $-1 #
edge $-1 $446 0 $446 6.2831853071796004 $185 $447 forward 7 unknown #
vertex $-1 $188 $448 #
ellipse-curve $-1 -45.215666928273095 29.774521916151773 7.1901248023107405 0 0.70710678939079041 0.70710677298230451 1 0 0 1 I I #
coedge $-1 $308 $308 $-1 $449 reversed $191 $-1 #
edge $-1 $450 0 $450 6.2831853071796004 $192 $451 forward 7 unknown #
vertex $-1 $195 $452 #
ellipse-curve $-1 -38.391907119673689 29.774521916151773 7.1901248023107405 0 0.70710678939079041 0.70710677298230451 1 0 0 1 I I #
face $-1 $-1 $453 $42 $-1 $454 reversed single #
loop $-1 $-1 $202 $196 #
plane-surface $-1 0 0 9.5134784068931406 0 0 1 1 0 0 forward_v I I I I #
coedge $-1 $455 $456 $457 $458 reversed $197 $-1 #
coedge $-1 $459 $199 $201 $322 forward $123 $-1 #
coedge $-1 $199 $459 $455 $460 forward $123 $-1 #
coedge $-1 $457 $202 $199 $319 forward $313 $-1 #
edge $-1 $325 12.940840401954063 $461 28.862946622019351 $318 $462 forward 7 unknown #
coedge $-1 $463 $464 $200 $321 forward $453 $-1 #
edge $-1 $465 -61.685320472934102 $324 -57.038613263769292 $320 $466 forward 7 unknown #
edge $-1 $325 57.624314654308769 $465 64.195750933641051 $201 $467 forward 7 unknown #
coedge $-1 $202 $457 $463 $468 forward $313 $-1 #
vertex $-1 $203 $469 #
vertex $-1 $203 $470 #
straight-curve $-1 33.842733913940769 34.774393957871979 9.5134784068931424 0 -1 0 I I #
coedge $-1 $327 $327 $-1 $471 reversed $206 $-1 #
edge $-1 $472 0 $472 6.2831853071796004 $207 $473 forward 7 unknown #
vertex $-1 $210 $474 #
ellipse-curve $-1 38.391907119673704 29.774521916151773 7.1901248023107405 0 0.70710678939079041 0.70710677298230451 1 0 0 1 I I #
coedge $-1 $331 $331 $-1 $475 reversed $213 $-1 #
edge $-1 $476 0 $476 6.2831853071796004 $214 $477 forward 7 unknown #
vertex $-1 $217 $478 #
ellipse-curve $-1 45.215666928273109 29.774521916151773 7.1901248023107405 0 0.70710678939079041 0.70710677298230451 1 0 0 1 I I #
face $-1 $-1 $479 $45 $-1 $480 reversed single #
loop $-1 $-1 $224 $218 #
plane-surface $-1 0 0 9.5134784068931406 0 0 1 1 0 0 forward_v I I I I #
coedge $-1 $481 $482 $483 $484 reversed $219 $-1 #
coedge $-1 $485 $221 $223 $345 forward $137 $-1 #
coedge $-1 $221 $485 $481 $486 forward $137 $-1 #
coedge $-1 $483 $224 $221 $342 forward $336 $-1 #
edge $-1 $348 -9.1033122080848123 $487 7.0030182347733678 $341 $488 forward 7 unknown #
coedge $-1 $489 $490 $222 $344 forward $479 $-1 #
edge $-1 $491 -37.5512119837204 $347 -34.321022830145679 $343 $492 forward 7 unknown #
edge $-1 $348 -4.4904913019649673 $491 1.0047061284303404e-014 $223 $493 forward 7 unknown #
coedge $-1 $224 $483 $489 $494 forward $336 $-1 #
vertex $-1 $344 $495 #
vertex $-1 $225 $496 #
straight-curve $-1 10.153459194740535 -58.187625308362783 9.5134784068931424 0 1 0 I I #
coedge $-1 $350 $350 $-1 $497 reversed $228 $-1 #
edge $-1 $498 0 $498 6.2831853071796004 $229 $499 forward 7 unknown #
vertex $-1 $232 $500 #
ellipse-curve $-1 -1.3510625501581686 -30.538196800784519 7.8983838301057814 0 -0.71933980857756763 0.69465836192734942 0.5 0 0 1 I I #
coedge $-1 $354 $354 $-1 $501 reversed $235 $-1 #
edge $-1 $502 0 $502 6.2831853071796004 $236 $503 forward 7 unknown #
vertex $-1 $239 $504 #
ellipse-curve $-1 5.5516504967810505 -30.538196800784519 7.8983838301057814 0 -0.71933980857756763 0.69465836192734942 0.5 0 0 1 I I #
face $-1 $-1 $255 $36 $-1 $505 reversed single #
loop $-1 $-1 $373 $240 #
plane-surface $-1 0 32.097875466820518 0 0 -1 0 0 0 -1 forward_v I I I I #
coedge $-1 $371 $506 $243 $363 reversed $241 $-1 #
coedge $-1 $377 $243 $244 $365 reversed $151 $-1 #
edge $-1 $378 -9.5134784068931406 $507 9.5134784068931406 $361 $508 forward 7 unknown #
coedge $-1 $245 $244 $506 $509 forward $97 $-1 #
edge $-1 $369 -58.579668568987088 $507 58.579668568987088 $362 $510 forward 7 unknown #
coedge $-1 $374 $373 $245 $367 reversed $359 $-1 #
edge $-1 $511 -58.579668568987088 $368 58.579668568987088 $366 $512 forward 7 unknown #
vertex $-1 $247 $513 #
vertex $-1 $380 $514 #
straight-curve $-1 58.579668568987088 0 -9.5134784068931406 0 -1 0 I I #
coedge $-1 $515 $361 $248 $372 reversed $241 $-1 #
edge $-1 $375 -32.097875466820518 $378 32.097875466820518 $371 $516 forward 7 unknown #
coedge $-1 $366 $249 $254 $381 forward $359 $-1 #
coedge $-1 $249 $366 $515 $517 reversed $359 $-1 #
vertex $-1 $250 $518 #
straight-curve $-1 0 32.097875466820518 9.5134784068931406 -1 0 0 I I #
coedge $-1 $251 $362 $253 $380 reversed $151 $-1 #
vertex $-1 $372 $519 #
straight-curve $-1 0 -32.097875466820518 9.5134784068931406 1 0 0 I I #
edge $-1 $256 -9.5134784068931406 $369 9.5134784068931406 $253 $520 forward 7 unknown #
edge $-1 $257 -9.5134784068931406 $368 9.5134784068931406 $254 $521 forward 7 unknown #
point $-1 58.579668568987088 -32.097875466820518 9.5134784068931406 #
point $-1 58.579668568987088 32.097875466820518 9.5134784068931406 #
face $-1 $-1 $398 $37 $-1 $522 reversed single #
loop $-1 $-1 $394 $259 #
plane-surface $-1 0 0 -9.5134784068931406 0 0 1 1 0 0 forward_v I I I I #
coedge $-1 $523 $524 $388 $525 forward $260 $-1 #
coedge $-1 $263 $262 $387 $525 reversed $101 $-1 #
coedge $-1 $394 $526 $262 $390 forward $385 $-1 #
edge $-1 $527 -67.394497003968141 $392 -58.579668568987088 $262 $528 forward 7 unknown #
edge $-1 $270 -4.4074142174905262 $529 4.4074142174905262 $263 $530 forward 7 unknown #
vertex $-1 $264 $531 #
straight-curve $-1 -58.579668568987088 32.097875466820518 0 0 0 -1 I I #
coedge $-1 $532 $389 $265 $395 forward $385 $-1 #
edge $-1 $392 -32.097875466820518 $399 32.097875466820518 $394 $533 forward 7 unknown #
coedge $-1 $534 $266 $269 $402 reversed $398 $-1 #
coedge $-1 $266 $534 $532 $535 reversed $398 $-1 #
loop $-1 $-1 $266 $384 #
vertex $-1 $535 $536 #
straight-curve $-1 -58.579668568987088 -32.097875466820518 0 0 0 1 I I #
coedge $-1 $269 $268 $524 $537 forward $159 $-1 #
edge $-1 $538 -4.4074142174905262 $271 4.4074142174905262 $396 $539 forward 7 unknown #
point $-1 -58.579668568987088 32.097875466820518 -6.0044051709731026 #
point $-1 -58.579668568987088 -32.097875466820518 -6.0044051709731026 #
face $-1 $-1 $421 $38 $-1 $540 reversed single #
loop $-1 $-1 $417 $273 #
plane-surface $-1 0 0 -9.5134784068931406 0 0 1 1 0 0 forward_v I I I I #
coedge $-1 $541 $409 $542 $543 forward $274 $-1 #
coedge $-1 $408 $544 $276 $410 reversed $274 $-1 #
edge $-1 $545 -32.097875466820518 $546 32.097875466820518 $409 $547 forward 7 unknown #
coedge $-1 $278 $277 $544 $548 forward $105 $-1 #
edge $-1 $546 -4.4074142174905262 $286 4.4074142174905262 $277 $549 forward 7 unknown #
coedge $-1 $550 $417 $278 $414 forward $406 $-1 #
edge $-1 $415 -4.4074142174905262 $551 4.4074142174905262 $278 $552 forward 7 unknown #
vertex $-1 $414 $553 #
straight-curve $-1 58.579668568987088 32.097875466820518 0 0 0 1 I I #
coedge $-1 $413 $554 $280 $418 forward $406 $-1 #
edge $-1 $422 -32.097875466820518 $415 32.097875466820518 $417 $555 forward 7 unknown #
coedge $-1 $542 $281 $554 $556 reversed $421 $-1 #
coedge $-1 $281 $542 $283 $424 reversed $421 $-1 #
loop $-1 $-1 $281 $405 #
vertex $-1 $282 $557 #
straight-curve $-1 58.579668568987088 -32.097875466820518 0 0 0 -1 I I #
edge $-1 $285 -4.4074142174905262 $545 4.4074142174905262 $420 $558 forward 7 unknown #
point $-1 58.579668568987088 -32.097875466820518 -6.0044051709731026 #
point $-1 58.579668568987088 32.097875466820518 -6.0044051709731026 #
plane-surface $-1 0 0 9.5134784068931406 0 0 1 1 0 0 forward_v I I I I #
coedge $-1 $438 $437 $430 $559 forward $289 $-1 #
coedge $-1 $430 $291 $293 $434 reversed $175 $-1 #
coedge $-1 $291 $429 $428 $559 reversed $175 $-1 #
coedge $-1 $299 $294 $291 $432 forward $300 $-1 #
edge $-1 $435 -7.323225592388944 $560 -2.6765184910514606 $431 $561 forward 7 unknown #
coedge $-1 $293 $292 $438 $562 reversed $109 $-1 #
edge $-1 $563 -64.195750933641051 $435 -57.624314654308769 $429 $564 forward 7 unknown #
vertex $-1 $295 $565 #
straight-curve $-1 -20.901893511986692 27.451168365483039 9.5134784068931388 1 0 0 I I #
coedge $-1 $428 $296 $299 $442 reversed $289 $-1 #
coedge $-1 $296 $428 $433 $562 forward $289 $-1 #
vertex $-1 $297 $566 #
straight-curve $-1 -49.764840134006029 32.097875466820518 66.552091670662435 0 0 1 I I #
straight-curve $-1 -49.764840134006029 -13.295374815042152 50.260022532946081 0 0.70710677298230451 -0.70710678939079041 I I #
edge $-1 $560 33.842733913940741 $301 49.764840134006029 $437 $567 forward 7 unknown #
point $-1 -49.764840134006029 32.097875466820518 9.5134784068931406 #
point $-1 -49.764840134006029 27.451168365483035 9.5134784068931424 #
edge $-1 $568 1 $568 0 $304 $-1 forward 7 unknown #
vertex $-1 $305 $569 #
ellipse-curve $-1 -45.215666928273095 27.102117039764657 4.5177199879370535 0 0.70710678939079041 0.70710677298230451 1 0 0 1 I I #
point $-1 -44.215666928273095 29.774521916151773 7.1901248023107414 #
edge $-1 $570 1 $570 0 $308 $-1 forward 7 unknown #
vertex $-1 $309 $571 #
ellipse-curve $-1 -38.391907119673689 27.102117039764657 4.5177199879370535 0 0.70710678939079041 0.70710677298230451 1 0 0 1 I I #
point $-1 -37.391907119673689 29.774521916151773 7.1901248023107414 #
loop $-1 $-1 $320 $312 #
plane-surface $-1 0 32.097875466820518 0 0 -1 0 0 0 -1 forward_v I I I I #
coedge $-1 $456 $315 $317 $460 reversed $197 $-1 #
coedge $-1 $315 $455 $572 $573 reversed $197 $-1 #
coedge $-1 $323 $318 $315 $458 forward $313 $-1 #
edge $-1 $461 -7.323225592388944 $574 -2.6765184910514606 $457 $575 forward 7 unknown #
coedge $-1 $317 $316 $464 $576 reversed $123 $-1 #
edge $-1 $577 -64.195750933641051 $461 -57.624314654308769 $455 $578 forward 7 unknown #
vertex $-1 $319 $579 #
straight-curve $-1 20.901893511986707 27.451168365483039 9.5134784068931388 1 0 0 I I #
coedge $-1 $572 $320 $323 $468 reversed $453 $-1 #
coedge $-1 $320 $572 $459 $576 forward $453 $-1 #
vertex $-1 $321 $580 #
straight-curve $-1 33.842733913940769 32.097875466820518 66.552091670662435 0 0 1 I I #
straight-curve $-1 33.842733913940769 -13.295374815042152 50.260022532946081 0 0.70710677298230451 -0.70710678939079041 I I #
edge $-1 $574 -49.764840134006057 $324 -33.842733913940769 $463 $581 forward 7 unknown #
point $-1 33.842733913940769 32.097875466820518 9.5134784068931406 #
point $-1 33.842733913940769 27.451168365483035 9.5134784068931424 #
edge $-1 $582 1 $582 0 $327 $-1 forward 7 unknown #
vertex $-1 $328 $583 #
ellipse-curve $-1 38.391907119673704 27.102117039764657 4.5177199879370535 0 0.70710678939079041 0.70710677298230451 1 0 0 1 I I #
point $-1 39.391907119673704 29.774521916151773 7.1901248023107414 #
edge $-1 $584 1 $584 0 $331 $-1 forward 7 unknown #
vertex $-1 $332 $585 #
ellipse-curve $-1 45.215666928273109 27.102117039764657 4.5177199879370535 0 0.70710678939079041 0.70710677298230451 1 0 0 1 I I #
point $-1 46.215666928273109 29.774521916151773 7.1901248023107414 #
loop $-1 $-1 $343 $335 #
plane-surface $-1 0 -32.097875466820518 0 0 1 0 0 0 1 forward_v I I I I #
coedge $-1 $482 $338 $340 $486 reversed $219 $-1 #
coedge $-1 $338 $481 $586 $587 reversed $219 $-1 #
coedge $-1 $346 $341 $338 $484 forward $336 $-1 #
edge $-1 $487 -29.209107173614267 $588 -26.089749841542265 $483 $589 forward 7 unknown #
coedge $-1 $340 $339 $490 $590 reversed $137 $-1 #
edge $-1 $591 -1.0047061284303404e-014 $487 4.4904913019649673 $481 $592 forward 7 unknown #
vertex $-1 $342 $593 #
straight-curve $-1 1.0501469866557223 -28.978518134748516 9.5134784068931406 -1 0 0 I I #
coedge $-1 $586 $343 $346 $494 reversed $479 $-1 #
coedge $-1 $343 $586 $485 $590 forward $479 $-1 #
vertex $-1 $344 $594 #
straight-curve $-1 10.153459194740535 -32.097875466820518 43.834501237038822 0 0 1 I I #
straight-curve $-1 10.153459194740535 -32.097875466820511 6.2832892533184292 0 -0.69465836192734942 -0.71933980857756763 I I #
edge $-1 $588 -5.9528712481176456 $347 10.153459194740535 $489 $595 forward 7 unknown #
point $-1 10.153459194740535 -32.097875466820518 9.5134784068931406 #
point $-1 10.153459194740535 -28.978518134748516 9.5134784068931406 #
edge $-1 $596 1 $596 0 $350 $-1 forward 7 unknown #
vertex $-1 $351 $597 #
ellipse-curve $-1 -1.3510625501581686 -29.545748471786744 6.9399876419643478 0 -0.71933980857756763 0.69465836192734942 0.5 0 0 1 I I #
point $-1 -0.85106255015816856 -30.538196800784526 7.8983838301057903 #
edge $-1 $598 1 $598 0 $354 $-1 forward 7 unknown #
vertex $-1 $355 $599 #
ellipse-curve $-1 5.5516504967810505 -29.545748471786744 6.9399876419643478 0 -0.71933980857756763 0.69465836192734942 0.5 0 0 1 I I #
point $-1 6.0516504967810505 -30.538196800784526 7.8983838301057903 #
plane-surface $-1 58.579668568987088 0 0 -1 0 0 0 0 1 forward_v I I I I #
coedge $-1 $361 $515 $364 $509 reversed $241 $-1 #
vertex $-1 $509 $600 #
straight-curve $-1 -58.579668568987088 -32.097875466820518 0 0 0 -1 I I #
edge $-1 $507 -32.097875466820518 $511 32.097875466820518 $506 $601 forward 7 unknown #
straight-curve $-1 0 -32.097875466820518 -9.5134784068931406 -1 0 0 I I #
vertex $-1 $367 $602 #
straight-curve $-1 0 32.097875466820518 -9.5134784068931406 1 0 0 I I #
point $-1 58.579668568987088 32.097875466820518 -9.5134784068931406 #
point $-1 58.579668568987088 -32.097875466820518 -9.5134784068931406 #
coedge $-1 $506 $371 $374 $517 forward $241 $-1 #
straight-curve $-1 -58.579668568987088 0 9.5134784068931406 0 -1 0 I I #
edge $-1 $375 -9.5134784068931406 $511 9.5134784068931406 $374 $603 forward 7 unknown #
point $-1 -58.579668568987088 32.097875466820518 9.5134784068931406 #
point $-1 -58.579668568987088 -32.097875466820518 9.5134784068931406 #
straight-curve $-1 58.579668568987088 -32.097875466820518 0 0 0 -1 I I #
straight-curve $-1 58.579668568987088 32.097875466820518 0 0 0 -1 I I #
plane-surface $-1 0 -32.097875466820518 0 0 1 0 0 0 1 forward_v I I I I #
coedge $-1 $604 $387 $526 $605 reversed $260 $-1 #
coedge $-1 $387 $604 $401 $537 reversed $260 $-1 #
edge $-1 $529 -1.754536617960019 $527 1.754536617960019 $388 $606 forward 7 unknown #
coedge $-1 $389 $532 $523 $605 forward $385 $-1 #
vertex $-1 $390 $607 #
straight-curve $-1 0 32.097875466820518 -9.5134784068931406 1 0 0 I I #
vertex $-1 $391 $608 #
straight-curve $-1 -62.987082786477615 32.097875466820518 -6.0044051709731026 -1 0 0 I I #
point $-1 -58.579668568987088 32.097875466820518 -9.5134784068931406 #
coedge $-1 $526 $394 $397 $535 forward $385 $-1 #
straight-curve $-1 -58.579668568987088 0 -9.5134784068931406 0 -1 0 I I #
coedge $-1 $397 $396 $604 $609 forward $398 $-1 #
edge $-1 $399 -4.4074142174905262 $610 4.4074142174905262 $397 $611 forward 7 unknown #
point $-1 -58.579668568987088 -32.097875466820518 -9.5134784068931406 #
edge $-1 $529 -32.097875466820518 $538 32.097875466820518 $524 $612 forward 7 unknown #
vertex $-1 $537 $613 #
straight-curve $-1 -62.987082786477615 -32.097875466820518 -6.0044051709731026 1 0 0 I I #
plane-surface $-1 0 -32.097875466820518 0 0 1 0 0 0 1 forward_v I I I I #
coedge $-1 $544 $408 $550 $614 reversed $274 $-1 #
coedge $-1 $420 $419 $408 $543 reversed $421 $-1 #
edge $-1 $545 -1.754536617960019 $615 1.754536617960019 $408 $616 forward 7 unknown #
coedge $-1 $409 $541 $411 $548 reversed $274 $-1 #
vertex $-1 $410 $617 #
vertex $-1 $410 $618 #
straight-curve $-1 67.394497003968141 0 -6.0044051709731026 0 1 0 I I #
edge $-1 $546 -1.754536617960019 $551 1.754536617960019 $544 $619 forward 7 unknown #
straight-curve $-1 62.987082786477615 32.097875466820518 -6.0044051709731026 -1 0 0 I I #
coedge $-1 $554 $413 $541 $614 forward $406 $-1 #
vertex $-1 $614 $620 #
straight-curve $-1 62.987082786477615 32.097875466820518 -9.5134784068931406 1 0 0 I I #
point $-1 58.579668568987088 32.097875466820518 -9.5134784068931406 #
coedge $-1 $417 $550 $419 $556 forward $406 $-1 #
straight-curve $-1 58.579668568987088 0 -9.5134784068931406 0 1 0 I I #
edge $-1 $615 -4.4074142174905262 $422 4.4074142174905262 $419 $621 forward 7 unknown #
point $-1 58.579668568987088 -32.097875466820518 -9.5134784068931406 #
straight-curve $-1 62.987082786477615 -32.097875466820518 -6.0044051709731026 1 0 0 I I #
edge $-1 $560 57.038613263769292 $563 61.685320472934102 $428 $622 forward 7 unknown #
vertex $-1 $442 $623 #
straight-curve $-1 -33.842733913940741 34.774393957871979 9.5134784068931424 0 1 0 I I #
edge $-1 $563 12.940840401954048 $439 28.862946622019336 $438 $624 forward 7 unknown #
vertex $-1 $562 $625 #
straight-curve $-1 -33.842733913940741 -13.295374815042152 50.260022532946081 0 -0.70710677298230451 0.70710678939079041 I I #
point $-1 -33.842733913940741 27.451168365483035 9.5134784068931424 #
point $-1 -49.764840134006029 32.097875466820518 4.8667711977283332 #
straight-curve $-1 0 32.097875466820518 9.5134784068931406 -1 0 0 I I #
vertex $-1 $445 $626 #
point $-1 -44.215666928273095 27.102117039764657 4.5177199879370535 #
vertex $-1 $449 $627 #
point $-1 -37.391907119673689 27.102117039764657 4.5177199879370535 #
coedge $-1 $464 $463 $456 $573 forward $453 $-1 #
edge $-1 $574 57.038613263769292 $577 61.685320472934102 $572 $628 forward 7 unknown #
vertex $-1 $468 $629 #
straight-curve $-1 49.764840134006057 34.774393957871979 9.5134784068931424 0 1 0 I I #
edge $-1 $577 -28.862946622019351 $465 -12.940840401954063 $464 $630 forward 7 unknown #
vertex $-1 $576 $631 #
straight-curve $-1 49.764840134006057 -13.295374815042152 50.260022532946081 0 -0.70710677298230451 0.70710678939079041 I I #
point $-1 49.764840134006057 27.451168365483035 9.5134784068931424 #
point $-1 33.842733913940769 32.097875466820518 4.8667711977283332 #
straight-curve $-1 0 32.097875466820518 9.5134784068931406 -1 0 0 I I #
vertex $-1 $471 $632 #
point $-1 39.391907119673704 27.102117039764657 4.5177199879370535 #
vertex $-1 $475 $633 #
point $-1 46.215666928273109 27.102117039764657 4.5177199879370535 #
coedge $-1 $490 $489 $482 $587 forward $479 $-1 #
edge $-1 $588 34.321022830145679 $591 37.5512119837204 $586 $634 forward 7 unknown #
vertex $-1 $494 $635 #
straight-curve $-1 -5.9528712481176456 -58.187625308362783 9.5134784068931424 0 -1 0 I I #
edge $-1 $591 -7.0030182347733678 $491 9.1033122080848123 $490 $636 forward 7 unknown #
vertex $-1 $590 $637 #
straight-curve $-1 -5.9528712481176456 -32.097875466820511 6.2832892533184292 0 0.69465836192734942 0.71933980857756763 I I #
point $-1 -5.9528712481176456 -28.978518134748516 9.5134784068931406 #
point $-1 10.153459194740535 -32.097875466820518 6.2832892533184221 #
straight-curve $-1 0 -32.097875466820518 9.5134784068931406 1 0 0 I I #
vertex $-1 $497 $638 #
point $-1 -0.85106255015816856 -29.545748471786744 6.9399876419643478 #
vertex $-1 $501 $639 #
point $-1 6.0516504967810505 -29.545748471786744 6.9399876419643478 #
point $-1 -58.579668568987088 -32.097875466820518 -9.5134784068931406 #
straight-curve $-1 -58.579668568987088 0 -9.5134784068931406 0 1 0 I I #
point $-1 -58.579668568987088 32.097875466820518 -9.5134784068931406 #
straight-curve $-1 -58.579668568987088 32.097875466820518 0 0 0 -1 I I #
coedge $-1 $524 $523 $534 $609 reversed $260 $-1 #
edge $-1 $610 -32.097875466820518 $527 32.097875466820518 $523 $640 forward 7 unknown #
straight-curve $-1 -67.394497003968141 32.097875466820518 -7.7589417889331216 0 0 -1 I I #
point $-1 -67.394497003968141 32.097875466820518 -9.5134784068931406 #
point $-1 -67.394497003968141 32.097875466820518 -6.0044051709731026 #
edge $-1 $538 -1.754536617960019 $610 1.754536617960019 $604 $641 forward 7 unknown #
vertex $-1 $605 $642 #
straight-curve $-1 -62.987082786477615 -32.097875466820518 -9.5134784068931406 -1 0 0 I I #
straight-curve $-1 -67.394497003968141 0 -6.0044051709731026 0 -1 0 I I #
point $-1 -67.394497003968141 -32.097875466820518 -6.0044051709731026 #
edge $-1 $551 -32.097875466820518 $615 32.097875466820518 $541 $643 forward 7 unknown #
vertex $-1 $543 $644 #
straight-curve $-1 67.394497003968141 -32.097875466820518 -7.7589417889331216 0 0 -1 I I #
point $-1 67.394497003968141 -32.097875466820518 -6.0044051709731026 #
point $-1 67.394497003968141 32.097875466820518 -6.0044051709731026 #
straight-curve $-1 67.394497003968141 32.097875466820518 -7.7589417889331216 0 0 -1 I I #
point $-1 67.394497003968141 32.097875466820518 -9.5134784068931406 #
straight-curve $-1 62.987082786477615 -32.097875466820518 -9.5134784068931406 -1 0 0 I I #
straight-curve $-1 -33.842733913940741 32.097875466820518 66.552091670662435 0 0 -1 I I #
point $-1 -33.842733913940741 32.097875466820518 9.5134784068931406 #
straight-curve $-1 -20.901893511986692 32.097875466820518 4.8667711977283403 -1 0 0 I I #
point $-1 -33.842733913940741 32.097875466820518 4.8667711977283332 #
point $-1 -45.215666928273095 26.395010250373865 3.8106132149547487 #
point $-1 -38.391907119673689 26.395010250373865 3.8106132149547487 #
straight-curve $-1 49.764840134006057 32.097875466820518 66.552091670662435 0 0 -1 I I #
point $-1 49.764840134006057 32.097875466820518 9.5134784068931406 #
straight-curve $-1 20.901893511986707 32.097875466820518 4.8667711977283403 -1 0 0 I I #
point $-1 49.764840134006057 32.097875466820518 4.8667711977283332 #
point $-1 38.391907119673704 26.395010250373865 3.8106132149547487 #
point $-1 45.215666928273109 26.395010250373865 3.8106132149547487 #
straight-curve $-1 -5.9528712481176456 -32.097875466820518 43.834501237038822 0 0 -1 I I #
point $-1 -5.9528712481176456 -32.097875466820518 9.5134784068931406 #
straight-curve $-1 1.0501469866557223 -32.097875466820518 6.2832892533184186 1 0 0 I I #
point $-1 -5.9528712481176456 -32.097875466820518 6.2832892533184221 #
point $-1 -1.3510625501581686 -29.186078567497958 6.5926584610006733 #
point $-1 5.5516504967810505 -29.186078567497958 6.5926584610006733 #
straight-curve $-1 -67.394497003968141 0 -9.5134784068931406 0 1 0 I I #
straight-curve $-1 -67.394497003968141 -32.097875466820518 -7.7589417889331216 0 0 -1 I I #
point $-1 -67.394497003968141 -32.097875466820518 -9.5134784068931406 #
straight-curve $-1 67.394497003968141 0 -9.5134784068931406 0 -1 0 I I #
point $-1 67.394497003968141 -32.097875466820518 -9.5134784068931406 #
End-of-ACIS-data 