500 0 5 0           
7 Unknown 11 ACIS 5.0 NT 24 Fri Mar 26 00:59:59 1999 
-1 9.9999999999999995e-007 1e-010 
body $-1 $5 $-1 $6 #
body $-1 $7 $-1 $8 #
body $-1 $9 $-1 $10 #
body $-1 $11 $-1 $12 #
body $-1 $13 $-1 $14 #
lump $-1 $-1 $15 $0 #
transform $-1 1 0 0 0 1 0 0 0 1 47.384258552812284 32.641444821922484 10.191896912063086 1 rotate no_reflect no_shear #
lump $-1 $-1 $16 $1 #
transform $-1 1 0 0 0 1 0 0 0 1 47.384258552812284 32.641444821922484 10.191896912063086 1 rotate no_reflect no_shear #
lump $-1 $-1 $17 $2 #
transform $-1 1 0 0 0 1 0 0 0 1 47.384258552812284 32.641444821922484 10.191896912063086 1 rotate no_reflect no_shear #
lump $-1 $-1 $18 $3 #
transform $-1 1 0 0 0 1 0 0 0 1 47.384258552812284 32.641444821922484 10.191896912063086 1 rotate no_reflect no_shear #
lump $-1 $-1 $19 $4 #
transform $-1 1 0 0 0 1 0 0 0 1 47.384258552812284 32.641444821922484 10.191896912063086 1 rotate no_reflect no_shear #
shell $-1 $-1 $-1 $20 $-1 $5 #
shell $-1 $-1 $-1 $21 $-1 $7 #
shell $-1 $-1 $-1 $22 $-1 $9 #
shell $-1 $-1 $-1 $23 $-1 $11 #
shell $-1 $-1 $-1 $24 $-1 $13 #
face $-1 $25 $26 $15 $-1 $27 forward single #
face $-1 $28 $29 $16 $-1 $30 forward single #
face $-1 $31 $32 $17 $-1 $33 forward single #
face $-1 $34 $35 $18 $-1 $36 reversed single #
face $-1 $37 $38 $19 $-1 $39 forward single #
face $-1 $40 $41 $15 $-1 $42 reversed single #
loop $-1 $-1 $43 $20 #
plane-surface $-1 0 0 10.191896912063086 0 0 1 1 0 0 forward_v I I I I #
face $-1 $44 $45 $16 $-1 $46 forward single #
loop $-1 $-1 $47 $21 #
plane-surface $-1 0 -32.641444821922484 0 0 1 0 0 0 1 forward_v I I I I #
face $-1 $48 $49 $17 $-1 $50 reversed single #
loop $-1 $-1 $51 $22 #
plane-surface $-1 0 32.641444821922484 0 0 -1 0 0 0 -1 forward_v I I I I #
face $-1 $52 $53 $18 $-1 $54 reversed single #
loop $-1 $-1 $55 $23 #
plane-surface $-1 26.418455647652721 7.2978373741010909 137.59642449776402 0 -1 0 -0.5877852598018023 0 -0.80901698891910034 forward_v I I I I #
face $-1 $56 $57 $19 $-1 $58 forward single #
loop $-1 $59 $60 $24 #
cone-surface $-1 42.939568525066022 1.9770745340998701 6.2962196149896066 -0.5877852598018023 0 -0.80901698891910034 1.6180339778382007 0 -1.1755705196036046 1 I I 0 1 2 forward I I I I #
face $-1 $61 $62 $15 $-1 $63 reversed single #
loop $-1 $-1 $64 $25 #
plane-surface $-1 0 0 -10.191896912063086 0 0 1 1 0 0 forward_v I I I I #
coedge $-1 $65 $66 $67 $68 forward $26 $-1 #
face $-1 $69 $70 $16 $-1 $71 reversed single #
loop $-1 $-1 $72 $28 #
plane-surface $-1 0 0 10.191896912063086 0 0 1 1 0 0 forward_v I I I I #
coedge $-1 $73 $74 $75 $76 forward $29 $-1 #
face $-1 $77 $78 $17 $-1 $79 reversed single #
loop $-1 $-1 $80 $31 #
plane-surface $-1 47.384258552812284 0 0 -1 0 0 0 0 1 forward_v I I I I #
coedge $-1 $81 $82 $83 $84 forward $32 $-1 #
face $-1 $85 $86 $18 $-1 $87 reversed single #
loop $-1 $-1 $88 $34 #
plane-surface $-1 -29.285081800308362 1.9770745340998701 60.927084144643374 0.5877852598018023 0 0.80901698891910034 0.80901698891910034 0 -0.5877852598018023 forward_v I I I I #
coedge $-1 $89 $90 $91 $92 reversed $35 $-1 #
face $-1 $-1 $93 $19 $-1 $94 forward single #
loop $-1 $95 $96 $37 #
cone-surface $-1 41.326266876287221 1.9770745340998701 4.0757004366874057 -0.5877852598018023 0 -0.80901698891910034 0.80901698891910034 0 -0.5877852598018023 1 I I -0.70710678118654746 0.70710678118654746 1 forward I I I I #
loop $-1 $-1 $97 $24 #
coedge $-1 $60 $60 $98 $99 reversed $38 $-1 #
face $-1 $100 $101 $15 $-1 $102 reversed single #
loop $-1 $-1 $103 $40 #
plane-surface $-1 0 -32.641444821922484 0 0 1 0 0 0 1 forward_v I I I I #
coedge $-1 $104 $105 $106 $107 forward $41 $-1 #
coedge $-1 $108 $43 $109 $110 forward $26 $-1 #
coedge $-1 $43 $108 $111 $112 forward $26 $-1 #
coedge $-1 $113 $114 $43 $68 reversed $115 $-1 #
edge $-1 $116 -32.641444821922484 $117 32.641444821922484 $67 $118 forward 7 unknown #
face $-1 $119 $120 $16 $-1 $121 reversed single #
loop $-1 $-1 $122 $44 #
plane-surface $-1 -47.384258552812284 0 0 1 0 0 0 0 -1 forward_v I I I I #
coedge $-1 $123 $124 $125 $126 forward $45 $-1 #
coedge $-1 $125 $47 $122 $127 reversed $29 $-1 #
coedge $-1 $47 $125 $128 $129 reversed $29 $-1 #
coedge $-1 $130 $131 $47 $76 reversed $120 $-1 #
edge $-1 $132 -47.384258552812284 $133 47.384258552812284 $75 $134 forward 7 unknown #
face $-1 $135 $136 $17 $-1 $137 reversed single #
loop $-1 $-1 $138 $48 #
plane-surface $-1 0 36.439569498402882 7.1918969120630862 0 0 1 1 0 0 forward_v I I I I #
coedge $-1 $139 $140 $81 $141 forward $49 $-1 #
coedge $-1 $142 $51 $80 $141 reversed $32 $-1 #
coedge $-1 $51 $142 $143 $144 reversed $32 $-1 #
coedge $-1 $145 $138 $51 $84 reversed $78 $-1 #
edge $-1 $146 -47.384258552812284 $147 47.384258552812284 $83 $148 forward 7 unknown #
face $-1 $149 $150 $18 $-1 $151 forward single #
loop $-1 $-1 $152 $52 #
plane-surface $-1 26.418455647652721 -3.3436883059013507 137.59642449776402 0 1 0 0.5877852598018023 0 0.80901698891910034 forward_v I I I I #
coedge $-1 $153 $154 $155 $156 reversed $53 $-1 #
coedge $-1 $90 $55 $157 $158 reversed $35 $-1 #
coedge $-1 $55 $89 $153 $159 reversed $35 $-1 #
coedge $-1 $155 $160 $55 $92 forward $150 $-1 #
edge $-1 $161 -34.175030728985924 $162 -27.336683451447392 $91 $163 forward 7 unknown #
loop $-1 $-1 $98 $56 #
plane-surface $-1 -29.285081800308362 1.9770745340998701 60.927084144643374 0.5877852598018023 0 0.80901698891910034 0.80901698891910034 0 -0.5877852598018023 forward_v I I I I #
loop $-1 $-1 $164 $37 #
coedge $-1 $96 $96 $97 $165 reversed $57 $-1 #
coedge $-1 $97 $97 $96 $165 forward $59 $-1 #
coedge $-1 $98 $98 $60 $99 forward $93 $-1 #
edge $-1 $166 0 $166 6.2831853071796004 $98 $167 forward 7 unknown #
face $-1 $168 $169 $15 $-1 $170 reversed single #
loop $-1 $-1 $171 $61 #
plane-surface $-1 -47.384258552812284 0 0 1 0 0 0 0 -1 forward_v I I I I #
coedge $-1 $172 $111 $173 $174 forward $62 $-1 #
coedge $-1 $175 $64 $172 $176 forward $41 $-1 #
coedge $-1 $64 $175 $177 $178 forward $41 $-1 #
coedge $-1 $114 $113 $64 $107 reversed $115 $-1 #
edge $-1 $179 -32.641444821922484 $180 32.641444821922484 $106 $181 forward 7 unknown #
coedge $-1 $66 $65 $182 $183 forward $26 $-1 #
coedge $-1 $184 $185 $65 $110 reversed $169 $-1 #
edge $-1 $117 -47.384258552812284 $186 47.384258552812284 $109 $187 forward 7 unknown #
coedge $-1 $103 $188 $66 $112 reversed $62 $-1 #
edge $-1 $189 -47.384258552812284 $116 47.384258552812284 $111 $190 forward 7 unknown #
coedge $-1 $106 $67 $188 $191 forward $115 $-1 #
coedge $-1 $67 $106 $184 $192 reversed $115 $-1 #
loop $-1 $-1 $113 $168 #
vertex $-1 $68 $193 #
vertex $-1 $68 $194 #
straight-curve $-1 47.384258552812284 0 10.191896912063086 0 1 0 I I #
face $-1 $195 $196 $16 $-1 $197 reversed single #
loop $-1 $-1 $130 $69 #
plane-surface $-1 0 -36.439569498402882 7.1918969120630862 0 0 1 1 0 0 forward_v I I I I #
coedge $-1 $198 $199 $73 $127 forward $70 $-1 #
coedge $-1 $200 $72 $199 $201 forward $45 $-1 #
coedge $-1 $72 $200 $202 $203 forward $45 $-1 #
coedge $-1 $74 $73 $72 $126 reversed $29 $-1 #
edge $-1 $204 -47.384258552812284 $205 47.384258552812284 $72 $206 forward 7 unknown #
edge $-1 $205 -10.191896912063086 $133 -7.1918969120630862 $122 $207 forward 7 unknown #
coedge $-1 $202 $208 $74 $129 forward $209 $-1 #
edge $-1 $132 7.1918969120630862 $204 10.191896912063086 $128 $210 forward 7 unknown #
coedge $-1 $211 $75 $208 $212 forward $120 $-1 #
coedge $-1 $75 $211 $198 $213 forward $120 $-1 #
vertex $-1 $129 $214 #
vertex $-1 $127 $215 #
straight-curve $-1 0 -32.641444821922484 7.1918969120630862 -1 0 0 I I #
face $-1 $216 $217 $17 $-1 $218 forward single #
loop $-1 $-1 $219 $77 #
plane-surface $-1 0 40.237694174883281 8.6918969120630862 0 -1 0 0 0 -1 forward_v I I I I #
coedge $-1 $83 $220 $139 $221 forward $78 $-1 #
coedge $-1 $222 $80 $138 $221 reversed $49 $-1 #
coedge $-1 $80 $222 $223 $224 reversed $49 $-1 #
edge $-1 $225 -10.191896912063086 $147 -7.1918969120630862 $80 $226 forward 7 unknown #
coedge $-1 $82 $81 $227 $228 reversed $32 $-1 #
coedge $-1 $229 $230 $82 $144 forward $231 $-1 #
edge $-1 $146 7.1918969120630862 $232 10.191896912063086 $143 $233 forward 7 unknown #
coedge $-1 $220 $83 $230 $234 forward $78 $-1 #
vertex $-1 $144 $235 #
vertex $-1 $141 $236 #
straight-curve $-1 0 32.641444821922484 7.1918969120630862 1 0 0 I I #
face $-1 $-1 $237 $18 $-1 $238 reversed single #
loop $-1 $-1 $91 $85 #
plane-surface $-1 0 0 10.191896912063086 0 0 1 1 0 0 forward_v I I I I #
coedge $-1 $239 $240 $241 $242 reversed $86 $-1 #
coedge $-1 $243 $88 $90 $159 forward $53 $-1 #
coedge $-1 $88 $243 $239 $244 forward $53 $-1 #
coedge $-1 $241 $91 $88 $156 forward $150 $-1 #
edge $-1 $162 -6.3093001070511558 $245 4.3322255729512857 $155 $246 forward 7 unknown #
coedge $-1 $247 $248 $89 $158 forward $237 $-1 #
edge $-1 $249 -63.574665552199718 $161 -58.606315336818923 $157 $250 forward 7 unknown #
edge $-1 $162 86.315854959833274 $249 94.768517105624568 $90 $251 forward 7 unknown #
coedge $-1 $91 $241 $247 $252 forward $150 $-1 #
vertex $-1 $158 $253 #
vertex $-1 $92 $254 #
straight-curve $-1 13.20922782382636 7.2978373741010909 10.191896912063086 -1 0 0 I I #
coedge $-1 $164 $164 $-1 $255 reversed $95 $-1 #
edge $-1 $256 0 $256 6.2831853071796004 $96 $257 forward 7 unknown #
vertex $-1 $99 $258 #
ellipse-curve $-1 43.965084914043004 1.9770745340998701 7.7077218043726896 0.5877852598018023 0 0.80901698891910034 1.6180339778382007 0 -1.1755705196036046 1 I I #
face $-1 $-1 $115 $15 $-1 $259 reversed single #
loop $-1 $-1 $184 $100 #
plane-surface $-1 0 32.641444821922484 0 0 -1 0 0 0 -1 forward_v I I I I #
coedge $-1 $260 $182 $185 $261 forward $101 $-1 #
coedge $-1 $188 $103 $104 $176 reversed $62 $-1 #
coedge $-1 $182 $260 $103 $174 reversed $101 $-1 #
edge $-1 $189 -10.191896912063086 $262 10.191896912063086 $173 $263 forward 7 unknown #
coedge $-1 $105 $104 $260 $264 forward $41 $-1 #
edge $-1 $180 -47.384258552812284 $262 47.384258552812284 $172 $265 forward 7 unknown #
coedge $-1 $185 $184 $105 $178 reversed $169 $-1 #
edge $-1 $266 -47.384258552812284 $179 47.384258552812284 $177 $267 forward 7 unknown #
vertex $-1 $107 $268 #
vertex $-1 $191 $269 #
straight-curve $-1 47.384258552812284 0 -10.191896912063086 0 -1 0 I I #
coedge $-1 $171 $173 $108 $183 reversed $101 $-1 #
edge $-1 $186 -32.641444821922484 $189 32.641444821922484 $182 $270 forward 7 unknown #
coedge $-1 $177 $109 $114 $192 forward $169 $-1 #
coedge $-1 $109 $177 $171 $261 reversed $169 $-1 #
vertex $-1 $110 $271 #
straight-curve $-1 0 32.641444821922484 10.191896912063086 -1 0 0 I I #
coedge $-1 $111 $172 $113 $191 reversed $62 $-1 #
vertex $-1 $183 $272 #
straight-curve $-1 0 -32.641444821922484 10.191896912063086 1 0 0 I I #
edge $-1 $116 -10.191896912063086 $180 10.191896912063086 $113 $273 forward 7 unknown #
edge $-1 $117 -10.191896912063086 $179 10.191896912063086 $114 $274 forward 7 unknown #
point $-1 47.384258552812284 -32.641444821922484 10.191896912063086 #
point $-1 47.384258552812284 32.641444821922484 10.191896912063086 #
face $-1 $-1 $209 $16 $-1 $275 reversed single #
loop $-1 $-1 $276 $119 #
plane-surface $-1 0 -40.237694174883281 8.6918969120630862 0 1 0 0 0 1 forward_v I I I I #
coedge $-1 $277 $122 $131 $213 reversed $70 $-1 #
coedge $-1 $122 $277 $123 $201 reversed $70 $-1 #
coedge $-1 $124 $123 $278 $279 forward $45 $-1 #
edge $-1 $205 32.641444821922484 $280 40.237694174883281 $199 $281 forward 7 unknown #
coedge $-1 $282 $128 $124 $203 reversed $209 $-1 #
edge $-1 $283 -40.237694174883281 $204 -32.641444821922484 $202 $284 forward 7 unknown #
vertex $-1 $129 $285 #
vertex $-1 $201 $286 #
straight-curve $-1 0 -32.641444821922484 10.191896912063086 -1 0 0 I I #
straight-curve $-1 -47.384258552812284 -32.641444821922484 0 0 0 -1 I I #
coedge $-1 $128 $282 $130 $212 reversed $209 $-1 #
loop $-1 $-1 $128 $195 #
straight-curve $-1 47.384258552812284 -32.641444821922484 0 0 0 1 I I #
coedge $-1 $131 $130 $287 $288 forward $120 $-1 #
edge $-1 $132 -3.7981246764803984 $289 3.7981246764803984 $208 $290 forward 7 unknown #
edge $-1 $291 -3.7981246764803984 $133 3.7981246764803984 $198 $292 forward 7 unknown #
point $-1 47.384258552812284 -32.641444821922484 7.1918969120630862 #
point $-1 -47.384258552812284 -32.641444821922484 7.1918969120630862 #
face $-1 $-1 $231 $17 $-1 $293 reversed single #
loop $-1 $-1 $227 $135 #
plane-surface $-1 0 0 10.191896912063086 0 0 1 1 0 0 forward_v I I I I #
coedge $-1 $294 $295 $222 $296 forward $136 $-1 #
coedge $-1 $138 $145 $294 $297 forward $78 $-1 #
edge $-1 $298 -3.7981246764803984 $147 3.7981246764803984 $139 $299 forward 7 unknown #
coedge $-1 $140 $139 $219 $296 reversed $49 $-1 #
coedge $-1 $300 $227 $140 $224 forward $217 $-1 #
edge $-1 $225 32.641444821922484 $301 40.237694174883281 $140 $302 forward 7 unknown #
vertex $-1 $224 $303 #
straight-curve $-1 47.384258552812284 32.641444821922484 0 0 0 -1 I I #
coedge $-1 $223 $304 $142 $228 forward $217 $-1 #
edge $-1 $232 -47.384258552812284 $225 47.384258552812284 $227 $305 forward 7 unknown #
coedge $-1 $306 $143 $304 $307 reversed $231 $-1 #
coedge $-1 $143 $306 $145 $234 reversed $231 $-1 #
loop $-1 $-1 $143 $216 #
vertex $-1 $144 $308 #
straight-curve $-1 -47.384258552812284 32.641444821922484 0 0 0 1 I I #
edge $-1 $146 -3.7981246764803984 $309 3.7981246764803984 $230 $310 forward 7 unknown #
point $-1 -47.384258552812284 32.641444821922484 7.1918969120630862 #
point $-1 47.384258552812284 32.641444821922484 7.1918969120630862 #
loop $-1 $-1 $157 $149 #
plane-surface $-1 47.384258552812284 0 0 -1 0 0 0 0 1 forward_v I I I I #
coedge $-1 $240 $152 $154 $244 reversed $86 $-1 #
coedge $-1 $152 $239 $311 $312 reversed $86 $-1 #
coedge $-1 $160 $155 $152 $242 forward $150 $-1 #
edge $-1 $245 27.336683451447392 $313 34.175030728985924 $241 $314 forward 7 unknown #
coedge $-1 $154 $153 $248 $315 reversed $53 $-1 #
edge $-1 $316 -94.768517105624568 $245 -86.315854959833274 $239 $317 forward 7 unknown #
vertex $-1 $156 $318 #
straight-curve $-1 40.545911275273745 0.98853726704993505 10.191896912063086 0 -1 0 I I #
coedge $-1 $311 $157 $160 $252 reversed $237 $-1 #
coedge $-1 $157 $311 $243 $315 forward $237 $-1 #
vertex $-1 $158 $319 #
straight-curve $-1 47.384258552812284 7.2978373741010909 68.79821224888201 0 0 1 I I #
straight-curve $-1 -29.285081800308362 7.2978373741010909 60.927084144643374 0.80901698891910034 0 -0.5877852598018023 I I #
edge $-1 $313 -3.3436883059013507 $161 7.2978373741010909 $247 $320 forward 7 unknown #
point $-1 47.384258552812284 7.2978373741010909 10.191896912063086 #
point $-1 40.545911275273752 7.2978373741010909 10.191896912063086 #
edge $-1 $321 1 $321 0 $164 $-1 forward 7 unknown #
vertex $-1 $165 $322 #
ellipse-curve $-1 41.914052136089026 1.9770745340998701 4.8847174256065058 0.5877852598018023 0 0.80901698891910034 1.6180339778382007 0 -1.1755705196036046 1 I I #
point $-1 45.583118891881213 1.9770745340998701 6.5321512847691023 #
plane-surface $-1 47.384258552812284 0 0 -1 0 0 0 0 1 forward_v I I I I #
coedge $-1 $173 $171 $175 $264 reversed $101 $-1 #
edge $-1 $186 -10.191896912063086 $266 10.191896912063086 $185 $323 forward 7 unknown #
vertex $-1 $264 $324 #
straight-curve $-1 -47.384258552812284 -32.641444821922484 0 0 0 -1 I I #
edge $-1 $262 -32.641444821922484 $266 32.641444821922484 $260 $325 forward 7 unknown #
straight-curve $-1 0 -32.641444821922484 -10.191896912063086 -1 0 0 I I #
vertex $-1 $178 $326 #
straight-curve $-1 0 32.641444821922484 -10.191896912063086 1 0 0 I I #
point $-1 47.384258552812284 32.641444821922484 -10.191896912063086 #
point $-1 47.384258552812284 -32.641444821922484 -10.191896912063086 #
straight-curve $-1 -47.384258552812284 0 10.191896912063086 0 -1 0 I I #
point $-1 -47.384258552812284 32.641444821922484 10.191896912063086 #
point $-1 -47.384258552812284 -32.641444821922484 10.191896912063086 #
straight-curve $-1 47.384258552812284 -32.641444821922484 0 0 0 -1 I I #
straight-curve $-1 47.384258552812284 32.641444821922484 0 0 0 -1 I I #
plane-surface $-1 47.384258552812284 0 0 -1 0 0 0 0 1 forward_v I I I I #
coedge $-1 $287 $278 $277 $327 forward $196 $-1 #
coedge $-1 $199 $198 $276 $327 reversed $70 $-1 #
coedge $-1 $276 $328 $200 $279 reversed $196 $-1 #
edge $-1 $280 -47.384258552812284 $283 47.384258552812284 $278 $329 forward 7 unknown #
vertex $-1 $201 $330 #
straight-curve $-1 -47.384258552812284 0 10.191896912063086 0 -1 0 I I #
coedge $-1 $208 $202 $328 $331 forward $209 $-1 #
vertex $-1 $203 $332 #
straight-curve $-1 47.384258552812284 0 10.191896912063086 0 1 0 I I #
point $-1 47.384258552812284 -32.641444821922484 10.191896912063086 #
point $-1 -47.384258552812284 -32.641444821922484 10.191896912063086 #
coedge $-1 $328 $276 $211 $288 reversed $196 $-1 #
edge $-1 $289 -47.384258552812284 $291 47.384258552812284 $287 $333 forward 7 unknown #
vertex $-1 $331 $334 #
straight-curve $-1 47.384258552812284 -36.439569498402882 7.1918969120630862 0 -1 0 I I #
vertex $-1 $213 $335 #
straight-curve $-1 -47.384258552812284 -36.439569498402882 7.1918969120630862 0 1 0 I I #
plane-surface $-1 -47.384258552812284 0 0 1 0 0 0 0 -1 forward_v I I I I #
coedge $-1 $336 $219 $220 $297 reversed $136 $-1 #
coedge $-1 $219 $336 $300 $337 reversed $136 $-1 #
edge $-1 $301 -1.5 $298 1.5 $222 $338 forward 7 unknown #
edge $-1 $309 -47.384258552812284 $298 47.384258552812284 $294 $339 forward 7 unknown #
vertex $-1 $221 $340 #
straight-curve $-1 47.384258552812284 36.439569498402882 7.1918969120630862 0 -1 0 I I #
coedge $-1 $304 $223 $295 $337 forward $217 $-1 #
vertex $-1 $224 $341 #
straight-curve $-1 47.384258552812284 0 10.191896912063086 0 1 0 I I #
point $-1 47.384258552812284 32.641444821922484 10.191896912063086 #
coedge $-1 $227 $300 $229 $307 forward $217 $-1 #
straight-curve $-1 0 32.641444821922484 10.191896912063086 1 0 0 I I #
coedge $-1 $230 $229 $336 $342 forward $231 $-1 #
edge $-1 $343 -40.237694174883281 $232 -32.641444821922484 $229 $344 forward 7 unknown #
point $-1 -47.384258552812284 32.641444821922484 10.191896912063086 #
vertex $-1 $297 $345 #
straight-curve $-1 -47.384258552812284 36.439569498402882 7.1918969120630862 0 1 0 I I #
coedge $-1 $248 $247 $240 $312 forward $237 $-1 #
edge $-1 $313 58.606315336818923 $316 63.574665552199718 $311 $346 forward 7 unknown #
vertex $-1 $252 $347 #
straight-curve $-1 13.20922782382636 -3.3436883059013507 10.191896912063086 1 0 0 I I #
edge $-1 $316 -4.3322255729512857 $249 6.3093001070511558 $248 $348 forward 7 unknown #
vertex $-1 $315 $349 #
straight-curve $-1 -29.285081800308362 -3.3436883059013507 60.927084144643374 -0.80901698891910034 0 0.5877852598018023 I I #
point $-1 40.545911275273752 -3.3436883059013507 10.191896912063086 #
point $-1 47.384258552812284 7.2978373741010909 5.2235466966822912 #
straight-curve $-1 47.384258552812284 0 10.191896912063086 0 1 0 I I #
vertex $-1 $255 $350 #
point $-1 43.532086113927221 1.9770745340998701 3.7091469060029016 #
straight-curve $-1 -47.384258552812284 32.641444821922484 0 0 0 -1 I I #
point $-1 -47.384258552812284 -32.641444821922484 -10.191896912063086 #
straight-curve $-1 -47.384258552812284 0 -10.191896912063086 0 1 0 I I #
point $-1 -47.384258552812284 32.641444821922484 -10.191896912063086 #
edge $-1 $280 -1.5 $291 1.5 $277 $351 forward 7 unknown #
coedge $-1 $278 $287 $282 $331 reversed $196 $-1 #
straight-curve $-1 0 -40.237694174883281 10.191896912063086 1 0 0 I I #
point $-1 -47.384258552812284 -40.237694174883281 10.191896912063086 #
edge $-1 $283 -1.5 $289 1.5 $282 $352 forward 7 unknown #
point $-1 47.384258552812284 -40.237694174883281 10.191896912063086 #
straight-curve $-1 0 -40.237694174883281 7.1918969120630862 -1 0 0 I I #
point $-1 47.384258552812284 -40.237694174883281 7.1918969120630862 #
point $-1 -47.384258552812284 -40.237694174883281 7.1918969120630862 #
coedge $-1 $295 $294 $306 $342 reversed $136 $-1 #
edge $-1 $301 -47.384258552812284 $343 47.384258552812284 $295 $353 forward 7 unknown #
straight-curve $-1 47.384258552812284 40.237694174883281 8.6918969120630862 0 0 -1 I I #
straight-curve $-1 0 40.237694174883281 7.1918969120630862 1 0 0 I I #
point $-1 47.384258552812284 40.237694174883281 7.1918969120630862 #
point $-1 47.384258552812284 40.237694174883281 10.191896912063086 #
edge $-1 $343 -1.5 $309 1.5 $336 $354 forward 7 unknown #
vertex $-1 $337 $355 #
straight-curve $-1 -47.384258552812284 0 10.191896912063086 0 -1 0 I I #
point $-1 -47.384258552812284 40.237694174883281 7.1918969120630862 #
straight-curve $-1 47.384258552812284 -3.3436883059013507 68.79821224888201 0 0 -1 I I #
point $-1 47.384258552812284 -3.3436883059013507 10.191896912063086 #
straight-curve $-1 47.384258552812284 0.98853726704993505 5.2235466966822841 0 1 0 I I #
point $-1 47.384258552812284 -3.3436883059013507 5.2235466966822912 #
point $-1 40.738481616485416 1.9770745340998701 3.2666834477683055 #
straight-curve $-1 -47.384258552812284 -40.237694174883281 8.6918969120630862 0 0 -1 I I #
straight-curve $-1 47.384258552812284 -40.237694174883281 8.6918969120630862 0 0 -1 I I #
straight-curve $-1 0 40.237694174883281 10.191896912063086 -1 0 0 I I #
straight-curve $-1 -47.384258552812284 40.237694174883281 8.6918969120630862 0 0 -1 I I #
point $-1 -47.384258552812284 40.237694174883281 10.191896912063086 #
End-of-ACIS-data 