500 0 11 0           
7 Unknown 11 ACIS 5.0 NT 24 Fri Mar 26 03:26:24 1999 
-1 9.9999999999999995e-007 1e-010 
body $-1 $11 $-1 $12 #
body $-1 $13 $-1 $14 #
body $-1 $15 $-1 $16 #
body $-1 $17 $-1 $18 #
body $-1 $19 $-1 $20 #
body $-1 $21 $-1 $22 #
body $-1 $23 $-1 $24 #
body $-1 $25 $-1 $26 #
body $-1 $27 $-1 $28 #
body $-1 $29 $-1 $30 #
body $-1 $31 $-1 $32 #
lump $-1 $-1 $33 $0 #
transform $-1 1 0 0 0 1 0 0 0 1 60.505996887112033 29.615199092843149 7.5894878939915911 1 rotate no_reflect no_shear #
lump $-1 $-1 $34 $1 #
transform $-1 1 0 0 0 1 0 0 0 1 60.505996887112033 29.615199092843149 7.5894878939915911 1 rotate no_reflect no_shear #
lump $-1 $-1 $35 $2 #
transform $-1 1 0 0 0 1 0 0 0 1 60.505996887112033 29.615199092843149 7.5894878939915911 1 rotate no_reflect no_shear #
lump $-1 $-1 $36 $3 #
transform $-1 1 0 0 0 1 0 0 0 1 60.505996887112033 29.615199092843149 7.5894878939915911 1 rotate no_reflect no_shear #
lump $-1 $-1 $37 $4 #
transform $-1 1 0 0 0 1 0 0 0 1 60.505996887112033 29.615199092843149 7.5894878939915911 1 rotate no_reflect no_shear #
lump $-1 $-1 $38 $5 #
transform $-1 1 0 0 0 1 0 0 0 1 60.505996887112033 29.615199092843149 7.5894878939915911 1 rotate no_reflect no_shear #
lump $-1 $-1 $39 $6 #
transform $-1 1 0 0 0 1 0 0 0 1 60.505996887112033 29.615199092843149 7.5894878939915911 1 rotate no_reflect no_shear #
lump $-1 $-1 $40 $7 #
transform $-1 1 0 0 0 1 0 0 0 1 60.505996887112033 29.615199092843149 7.5894878939915911 1 rotate no_reflect no_shear #
lump $-1 $-1 $41 $8 #
transform $-1 1 0 0 0 1 0 0 0 1 60.505996887112033 29.615199092843149 7.5894878939915911 1 rotate no_reflect no_shear #
lump $-1 $-1 $42 $9 #
transform $-1 1 0 0 0 1 0 0 0 1 60.505996887112033 29.615199092843149 7.5894878939915911 1 rotate no_reflect no_shear #
lump $-1 $-1 $43 $10 #
transform $-1 1 0 0 0 1 0 0 0 1 60.505996887112033 29.615199092843149 7.5894878939915911 1 rotate no_reflect no_shear #
shell $-1 $-1 $-1 $44 $-1 $11 #
shell $-1 $-1 $-1 $45 $-1 $13 #
shell $-1 $-1 $-1 $46 $-1 $15 #
shell $-1 $-1 $-1 $47 $-1 $17 #
shell $-1 $-1 $-1 $48 $-1 $19 #
shell $-1 $-1 $-1 $49 $-1 $21 #
shell $-1 $-1 $-1 $50 $-1 $23 #
shell $-1 $-1 $-1 $51 $-1 $25 #
shell $-1 $-1 $-1 $52 $-1 $27 #
shell $-1 $-1 $-1 $53 $-1 $29 #
shell $-1 $-1 $-1 $54 $-1 $31 #
face $-1 $55 $56 $33 $-1 $57 forward single #
face $-1 $58 $59 $34 $-1 $60 reversed single #
face $-1 $61 $62 $35 $-1 $63 reversed single #
face $-1 $64 $65 $36 $-1 $66 forward single #
face $-1 $67 $68 $37 $-1 $69 forward single #
face $-1 $70 $71 $38 $-1 $72 reversed single #
face $-1 $73 $74 $39 $-1 $75 forward single #
face $-1 $76 $77 $40 $-1 $78 forward single #
face $-1 $79 $80 $41 $-1 $81 reversed single #
face $-1 $82 $83 $42 $-1 $84 forward single #
face $-1 $85 $86 $43 $-1 $87 forward single #
face $-1 $88 $89 $33 $-1 $90 reversed single #
loop $-1 $-1 $91 $44 #
plane-surface $-1 0 0 7.5894878939915911 0 0 1 1 0 0 forward_v I I I I #
face $-1 $92 $93 $34 $-1 $94 reversed single #
loop $-1 $-1 $95 $45 #
plane-surface $-1 0 -26.904294794160148 4.5894878939915911 0 0 1 1 0 0 forward_v I I I I #
face $-1 $96 $97 $35 $-1 $98 reversed single #
loop $-1 $-1 $99 $46 #
plane-surface $-1 22.00859403482761 -10.816520714274876 170.69128787262252 0 -1 0 -0.52991927123019833 0 -0.84804809178421925 forward_v I I I I #
face $-1 $100 $101 $36 $-1 $102 forward single #
loop $-1 $103 $104 $47 #
cone-surface $-1 57.042552932471068 -20.371427700847924 4.8948188947905464 -0.52991927123019833 0 -0.84804809178421925 0.84804809178421925 0 -0.52991927123019833 1 I I 0 1 1 forward I I I I #
face $-1 $105 $106 $37 $-1 $107 forward single #
loop $-1 $108 $109 $48 #
cone-surface $-1 57.042552932471068 -14.638483508904095 4.8948188947905464 -0.52991927123019833 0 -0.84804809178421925 0.84804809178421925 0 -0.52991927123019833 1 I I 0 1 1 forward I I I I #
face $-1 $110 $111 $38 $-1 $112 reversed single #
loop $-1 $-1 $113 $49 #
plane-surface $-1 -154.54998013801514 -14.659483425601335 77.96620572683959 0 1 0 -0.77714596973225614 0 0.62932038083071107 forward_v I I I I #
face $-1 $114 $115 $39 $-1 $116 forward single #
loop $-1 $117 $118 $50 #
cone-surface $-1 -57.638531316985393 -12.350309915490829 4.2728196749069163 0.77714596973225614 0 -0.62932038083071107 0.31466019041535553 0 0.38857298486612807 1 I I 0 1 0.5 forward I I I I #
face $-1 $119 $120 $40 $-1 $121 forward single #
loop $-1 $122 $123 $51 #
cone-surface $-1 -57.638531316985393 -8.8865496503250725 4.2728196749069163 0.77714596973225614 0 -0.62932038083071107 0.31466019041535553 0 0.38857298486612807 1 I I 0 1 0.5 forward I I I I #
face $-1 $124 $125 $41 $-1 $126 reversed single #
loop $-1 $-1 $127 $52 #
plane-surface $-1 -154.54998013801514 12.244811368558809 77.96620572683959 0 1 0 -0.77714596973225614 0 0.62932038083071107 forward_v I I I I #
face $-1 $128 $129 $42 $-1 $130 forward single #
loop $-1 $131 $132 $53 #
cone-surface $-1 -57.638531316985393 14.553984878669318 4.2728196749069163 0.77714596973225614 0 -0.62932038083071107 0.31466019041535553 0 0.38857298486612807 1 I I 0 1 0.5 forward I I I I #
face $-1 $133 $134 $43 $-1 $135 forward single #
loop $-1 $136 $137 $54 #
cone-surface $-1 -57.638531316985393 18.017745143835079 4.2728196749069163 0.77714596973225614 0 -0.62932038083071107 0.31466019041535553 0 0.38857298486612807 1 I I 0 1 0.5 forward I I I I #
face $-1 $138 $139 $33 $-1 $140 reversed single #
loop $-1 $-1 $141 $55 #
plane-surface $-1 0 0 -7.5894878939915911 0 0 1 1 0 0 forward_v I I I I #
coedge $-1 $142 $143 $144 $145 forward $56 $-1 #
face $-1 $146 $147 $34 $-1 $148 reversed single #
loop $-1 $-1 $149 $58 #
plane-surface $-1 0 -24.193390495477146 6.0894878939915911 0 -1 0 0 0 -1 forward_v I I I I #
coedge $-1 $150 $151 $152 $153 reversed $59 $-1 #
face $-1 $154 $155 $35 $-1 $156 forward single #
loop $-1 $-1 $157 $61 #
plane-surface $-1 -42.11799351612251 -17.50495560487601 68.067297469387981 0.52991927123019833 0 0.84804809178421925 0.84804809178421925 0 -0.52991927123019833 forward_v I I I I #
coedge $-1 $158 $159 $160 $161 reversed $62 $-1 #
face $-1 $-1 $162 $36 $-1 $163 forward single #
loop $-1 $164 $165 $64 #
cone-surface $-1 56.233781980153594 -20.371427700847924 3.6005148374742548 -0.52991927123019833 0 -0.84804809178421925 0.42402404589210962 0 -0.26495963561509916 1 I I -0.70710678118654746 0.70710678118654746 0.5 forward I I I I #
loop $-1 $-1 $166 $47 #
coedge $-1 $104 $104 $167 $168 reversed $65 $-1 #
face $-1 $-1 $169 $37 $-1 $170 forward single #
loop $-1 $171 $172 $67 #
cone-surface $-1 56.233781980153594 -14.638483508904095 3.6005148374742548 -0.52991927123019833 0 -0.84804809178421925 0.42402404589210962 0 -0.26495963561509916 1 I I -0.70710678118654746 0.70710678118654746 0.5 forward I I I I #
loop $-1 $-1 $173 $48 #
coedge $-1 $109 $109 $174 $175 reversed $68 $-1 #
face $-1 $176 $177 $38 $-1 $178 reversed single #
loop $-1 $-1 $179 $70 #
plane-surface $-1 -60.505996887112033 -10.618429782907953 1.8108917197612584 -0.77714596973225614 0 0.62932038083071107 0.62932038083071107 0 0.77714596973225614 forward_v I I I I #
coedge $-1 $180 $181 $182 $183 reversed $71 $-1 #
face $-1 $-1 $184 $39 $-1 $185 forward single #
loop $-1 $186 $187 $73 #
cone-surface $-1 -56.916486649605517 -12.350309915490829 3.6881194477297266 0.77714596973225614 0 -0.62932038083071107 0.15733009520767777 0 0.19428649243306403 1 I I -0.70710678118654746 0.70710678118654746 0.25 forward I I I I #
loop $-1 $-1 $188 $50 #
coedge $-1 $118 $118 $189 $190 reversed $74 $-1 #
face $-1 $-1 $191 $40 $-1 $192 forward single #
loop $-1 $193 $194 $76 #
cone-surface $-1 -56.916486649605517 -8.8865496503250725 3.6881194477297266 0.77714596973225614 0 -0.62932038083071107 0.15733009520767777 0 0.19428649243306403 1 I I -0.70710678118654746 0.70710678118654746 0.25 forward I I I I #
loop $-1 $-1 $195 $51 #
coedge $-1 $123 $123 $196 $197 reversed $77 $-1 #
face $-1 $198 $199 $41 $-1 $200 reversed single #
loop $-1 $-1 $201 $79 #
plane-surface $-1 -60.505996887112033 16.285865011252191 1.8108917197612584 -0.77714596973225614 0 0.62932038083071107 0.62932038083071107 0 0.77714596973225614 forward_v I I I I #
coedge $-1 $202 $203 $204 $205 reversed $80 $-1 #
face $-1 $-1 $206 $42 $-1 $207 forward single #
loop $-1 $208 $209 $82 #
cone-surface $-1 -56.916486649605517 14.553984878669318 3.6881194477297266 0.77714596973225614 0 -0.62932038083071107 0.15733009520767777 0 0.19428649243306403 1 I I -0.70710678118654746 0.70710678118654746 0.25 forward I I I I #
loop $-1 $-1 $210 $53 #
coedge $-1 $132 $132 $211 $212 reversed $83 $-1 #
face $-1 $-1 $213 $43 $-1 $214 forward single #
loop $-1 $215 $216 $85 #
cone-surface $-1 -56.916486649605517 18.017745143835079 3.6881194477297266 0.77714596973225614 0 -0.62932038083071107 0.15733009520767777 0 0.19428649243306403 1 I I -0.70710678118654746 0.70710678118654746 0.25 forward I I I I #
loop $-1 $-1 $217 $54 #
coedge $-1 $137 $137 $218 $219 reversed $86 $-1 #
face $-1 $220 $221 $33 $-1 $222 reversed single #
loop $-1 $-1 $223 $88 #
plane-surface $-1 0 -29.615199092843149 0 0 1 0 0 0 1 forward_v I I I I #
coedge $-1 $224 $225 $226 $227 forward $89 $-1 #
coedge $-1 $228 $91 $229 $230 forward $56 $-1 #
coedge $-1 $91 $228 $231 $232 forward $56 $-1 #
coedge $-1 $233 $234 $91 $145 reversed $235 $-1 #
edge $-1 $236 -29.615199092843149 $237 29.615199092843149 $144 $238 forward 7 unknown #
face $-1 $239 $240 $34 $-1 $241 reversed single #
loop $-1 $-1 $242 $92 #
plane-surface $-1 -60.505996887112033 0 0 1 0 0 0 0 -1 forward_v I I I I #
coedge $-1 $243 $244 $245 $246 reversed $93 $-1 #
coedge $-1 $247 $95 $248 $249 reversed $59 $-1 #
coedge $-1 $95 $247 $243 $250 forward $59 $-1 #
coedge $-1 $245 $251 $95 $153 forward $252 $-1 #
edge $-1 $253 -16.163051695763073 $254 -10.741243098397073 $152 $255 forward 7 unknown #
face $-1 $256 $257 $35 $-1 $258 forward single #
loop $-1 $-1 $259 $96 #
plane-surface $-1 0 -24.193390495477146 6.0894878939915911 0 -1 0 0 0 -1 forward_v I I I I #
coedge $-1 $260 $261 $262 $263 reversed $97 $-1 #
coedge $-1 $159 $99 $264 $265 reversed $62 $-1 #
coedge $-1 $99 $158 $260 $266 reversed $62 $-1 #
coedge $-1 $262 $267 $99 $161 forward $257 $-1 #
edge $-1 $268 -49.501699869698228 $269 -43.662434593821075 $160 $270 forward 7 unknown #
loop $-1 $-1 $167 $100 #
plane-surface $-1 -42.11799351612251 -17.50495560487601 68.067297469387981 0.52991927123019833 0 0.84804809178421925 0.84804809178421925 0 -0.52991927123019833 forward_v I I I I #
loop $-1 $-1 $271 $64 #
coedge $-1 $165 $165 $166 $272 reversed $101 $-1 #
coedge $-1 $166 $166 $165 $272 forward $103 $-1 #
coedge $-1 $167 $167 $104 $168 forward $162 $-1 #
edge $-1 $273 0 $273 6.2831853071796004 $167 $274 forward 7 unknown #
loop $-1 $-1 $174 $105 #
plane-surface $-1 -42.11799351612251 -17.50495560487601 68.067297469387981 0.52991927123019833 0 0.84804809178421925 0.84804809178421925 0 -0.52991927123019833 forward_v I I I I #
loop $-1 $-1 $275 $67 #
coedge $-1 $172 $172 $173 $276 reversed $106 $-1 #
coedge $-1 $173 $173 $172 $276 forward $108 $-1 #
coedge $-1 $174 $174 $109 $175 forward $169 $-1 #
edge $-1 $277 0 $277 6.2831853071796004 $174 $278 forward 7 unknown #
face $-1 $279 $280 $38 $-1 $281 forward single #
loop $-1 $-1 $282 $110 #
plane-surface $-1 -154.54998013801514 -6.5773761402145698 77.96620572683959 0 -1 0 0.77714596973225614 0 -0.62932038083071107 forward_v I I I I #
coedge $-1 $283 $284 $285 $286 reversed $111 $-1 #
coedge $-1 $181 $113 $287 $288 reversed $71 $-1 #
coedge $-1 $113 $180 $283 $289 reversed $71 $-1 #
coedge $-1 $285 $290 $113 $183 forward $280 $-1 #
edge $-1 $291 16.768993181895539 $292 21.448407972255204 $182 $293 forward 7 unknown #
loop $-1 $-1 $189 $114 #
plane-surface $-1 -60.505996887112033 -10.618429782907953 1.8108917197612584 -0.77714596973225614 0 0.62932038083071107 0.62932038083071107 0 0.77714596973225614 forward_v I I I I #
loop $-1 $-1 $294 $73 #
coedge $-1 $187 $187 $188 $295 reversed $115 $-1 #
coedge $-1 $188 $188 $187 $295 forward $117 $-1 #
coedge $-1 $189 $189 $118 $190 forward $184 $-1 #
edge $-1 $296 0 $296 6.2831853071796004 $189 $297 forward 7 unknown #
loop $-1 $-1 $196 $119 #
plane-surface $-1 -60.505996887112033 -10.618429782907953 1.8108917197612584 -0.77714596973225614 0 0.62932038083071107 0.62932038083071107 0 0.77714596973225614 forward_v I I I I #
loop $-1 $-1 $298 $76 #
coedge $-1 $194 $194 $195 $299 reversed $120 $-1 #
coedge $-1 $195 $195 $194 $299 forward $122 $-1 #
coedge $-1 $196 $196 $123 $197 forward $191 $-1 #
edge $-1 $300 0 $300 6.2831853071796004 $196 $301 forward 7 unknown #
face $-1 $302 $303 $41 $-1 $304 forward single #
loop $-1 $-1 $305 $124 #
plane-surface $-1 -154.54998013801514 20.326918653945576 77.96620572683959 0 -1 0 0.77714596973225614 0 -0.62932038083071107 forward_v I I I I #
coedge $-1 $306 $307 $308 $309 reversed $125 $-1 #
coedge $-1 $203 $127 $310 $311 reversed $80 $-1 #
coedge $-1 $127 $202 $306 $312 reversed $80 $-1 #
coedge $-1 $308 $313 $127 $205 forward $303 $-1 #
edge $-1 $314 16.768993181895539 $315 21.448407972255204 $204 $316 forward 7 unknown #
loop $-1 $-1 $211 $128 #
plane-surface $-1 -60.505996887112033 16.285865011252191 1.8108917197612584 -0.77714596973225614 0 0.62932038083071107 0.62932038083071107 0 0.77714596973225614 forward_v I I I I #
loop $-1 $-1 $317 $82 #
coedge $-1 $209 $209 $210 $318 reversed $129 $-1 #
coedge $-1 $210 $210 $209 $318 forward $131 $-1 #
coedge $-1 $211 $211 $132 $212 forward $206 $-1 #
edge $-1 $319 0 $319 6.2831853071796004 $211 $320 forward 7 unknown #
loop $-1 $-1 $218 $133 #
plane-surface $-1 -60.505996887112033 16.285865011252191 1.8108917197612584 -0.77714596973225614 0 0.62932038083071107 0.62932038083071107 0 0.77714596973225614 forward_v I I I I #
loop $-1 $-1 $321 $85 #
coedge $-1 $216 $216 $217 $322 reversed $134 $-1 #
coedge $-1 $217 $217 $216 $322 forward $136 $-1 #
coedge $-1 $218 $218 $137 $219 forward $213 $-1 #
edge $-1 $323 0 $323 6.2831853071796004 $218 $324 forward 7 unknown #
face $-1 $325 $326 $33 $-1 $327 reversed single #
loop $-1 $-1 $328 $138 #
plane-surface $-1 -60.505996887112033 0 0 1 0 0 0 0 -1 forward_v I I I I #
coedge $-1 $329 $231 $330 $331 forward $139 $-1 #
coedge $-1 $332 $141 $329 $333 forward $89 $-1 #
coedge $-1 $141 $332 $334 $335 forward $89 $-1 #
coedge $-1 $234 $233 $141 $227 reversed $235 $-1 #
edge $-1 $336 -29.615199092843149 $337 29.615199092843149 $226 $338 forward 7 unknown #
coedge $-1 $143 $142 $339 $340 forward $56 $-1 #
coedge $-1 $341 $342 $142 $230 reversed $326 $-1 #
edge $-1 $237 -60.505996887112033 $343 60.505996887112033 $229 $344 forward 7 unknown #
coedge $-1 $223 $345 $143 $232 reversed $139 $-1 #
edge $-1 $346 -60.505996887112033 $236 60.505996887112033 $231 $347 forward 7 unknown #
coedge $-1 $226 $144 $345 $348 forward $235 $-1 #
coedge $-1 $144 $226 $341 $349 reversed $235 $-1 #
loop $-1 $-1 $233 $325 #
vertex $-1 $145 $350 #
vertex $-1 $145 $351 #
straight-curve $-1 60.505996887112033 0 7.5894878939915911 0 1 0 I I #
face $-1 $352 $353 $34 $-1 $354 forward single #
loop $-1 $-1 $248 $146 #
plane-surface $-1 0 -29.615199092843149 0 0 1 0 0 0 1 forward_v I I I I #
coedge $-1 $355 $356 $357 $358 forward $147 $-1 #
coedge $-1 $357 $149 $151 $250 reversed $93 $-1 #
coedge $-1 $149 $357 $359 $360 reversed $93 $-1 #
coedge $-1 $361 $152 $149 $246 forward $252 $-1 #
edge $-1 $254 1.5447439469957955 $362 4.544743946995796 $245 $363 forward 7 unknown #
coedge $-1 $151 $150 $355 $364 reversed $59 $-1 #
coedge $-1 $365 $366 $150 $249 forward $240 $-1 #
edge $-1 $367 -60.505996887112033 $253 60.505996887112033 $248 $368 forward 7 unknown #
edge $-1 $369 -60.505996887112033 $254 60.505996887112033 $243 $370 forward 7 unknown #
coedge $-1 $152 $361 $365 $371 forward $252 $-1 #
loop $-1 $-1 $245 $352 #
vertex $-1 $249 $372 #
vertex $-1 $153 $373 #
straight-curve $-1 60.505996887112033 -13.452147397080074 4.5894878939915911 0 1 0 I I #
face $-1 $-1 $374 $35 $-1 $375 reversed single #
loop $-1 $-1 $262 $154 #
plane-surface $-1 0 0 7.5894878939915911 0 0 1 1 0 0 forward_v I I I I #
coedge $-1 $376 $377 $261 $378 reversed $155 $-1 #
coedge $-1 $379 $157 $159 $266 forward $97 $-1 #
coedge $-1 $157 $379 $259 $378 forward $97 $-1 #
coedge $-1 $380 $160 $157 $263 forward $257 $-1 #
edge $-1 $269 2.0640429118368715 $381 15.440912693039142 $262 $382 forward 7 unknown #
coedge $-1 $383 $384 $158 $265 forward $374 $-1 #
edge $-1 $385 -81.404934017873401 $268 -77.756156042319674 $264 $386 forward 7 unknown #
edge $-1 $269 114.12645823390838 $385 121.01199377422407 $159 $387 forward 7 unknown #
coedge $-1 $160 $380 $383 $388 forward $257 $-1 #
vertex $-1 $265 $389 #
vertex $-1 $161 $390 #
straight-curve $-1 11.004297017413805 -10.816520714274876 7.5894878939915884 -1 0 0 I I #
coedge $-1 $271 $271 $-1 $391 reversed $164 $-1 #
edge $-1 $392 0 $392 6.2831853071796004 $165 $393 forward 7 unknown #
vertex $-1 $168 $394 #
ellipse-curve $-1 57.586364249173442 -20.371427700847924 5.7650989062147335 0.52991927123019833 0 0.84804809178421925 0.84804809178421925 0 -0.52991927123019833 1 I I #
coedge $-1 $275 $275 $-1 $395 reversed $171 $-1 #
edge $-1 $396 0 $396 6.2831853071796004 $172 $397 forward 7 unknown #
vertex $-1 $175 $398 #
ellipse-curve $-1 57.586364249173442 -14.638483508904095 5.7650989062147335 0.52991927123019833 0 0.84804809178421925 0.84804809178421925 0 -0.52991927123019833 1 I I #
face $-1 $-1 $399 $38 $-1 $400 reversed single #
loop $-1 $-1 $182 $176 #
plane-surface $-1 0 0 7.5894878939915911 0 0 1 1 0 0 forward_v I I I I #
coedge $-1 $401 $402 $403 $404 reversed $177 $-1 #
coedge $-1 $405 $179 $181 $289 forward $111 $-1 #
coedge $-1 $179 $405 $401 $406 forward $111 $-1 #
coedge $-1 $403 $182 $179 $286 forward $280 $-1 #
edge $-1 $292 -9.350268534147359 $407 -1.2681612487605936 $285 $408 forward 7 unknown #
coedge $-1 $409 $410 $180 $288 forward $399 $-1 #
edge $-1 $411 -37.172211143658537 $291 -31.393614969428203 $287 $412 forward 7 unknown #
edge $-1 $292 -7.4356638254473442 $411 0 $181 $413 forward 7 unknown #
coedge $-1 $182 $403 $409 $414 forward $280 $-1 #
vertex $-1 $288 $415 #
vertex $-1 $183 $416 #
straight-curve $-1 -77.274990069007572 -14.659483425601335 7.5894878939915884 1 0 0 I I #
coedge $-1 $294 $294 $-1 $417 reversed $186 $-1 #
edge $-1 $418 0 $418 6.2831853071796004 $187 $419 forward 7 unknown #
vertex $-1 $190 $420 #
ellipse-curve $-1 -58.166289491932204 -12.350309915490829 4.7001898068764252 -0.77714596973225614 0 0.62932038083071107 0.31466019041535553 0 0.38857298486612807 1 I I #
coedge $-1 $298 $298 $-1 $421 reversed $193 $-1 #
edge $-1 $422 0 $422 6.2831853071796004 $194 $423 forward 7 unknown #
vertex $-1 $197 $424 #
ellipse-curve $-1 -58.166289491932204 -8.8865496503250725 4.7001898068764252 -0.77714596973225614 0 0.62932038083071107 0.31466019041535553 0 0.38857298486612807 1 I I #
face $-1 $-1 $425 $41 $-1 $426 reversed single #
loop $-1 $-1 $204 $198 #
plane-surface $-1 0 0 7.5894878939915911 0 0 1 1 0 0 forward_v I I I I #
coedge $-1 $427 $428 $429 $430 reversed $199 $-1 #
coedge $-1 $431 $201 $203 $312 forward $125 $-1 #
coedge $-1 $201 $431 $427 $432 forward $125 $-1 #
coedge $-1 $429 $204 $201 $309 forward $303 $-1 #
edge $-1 $315 4.101878862932713 $433 12.18398614831948 $308 $434 forward 7 unknown #
coedge $-1 $435 $436 $202 $311 forward $425 $-1 #
edge $-1 $437 -37.172211143658537 $314 -31.393614969428203 $310 $438 forward 7 unknown #
edge $-1 $315 -7.4356638254473442 $437 0 $203 $439 forward 7 unknown #
coedge $-1 $204 $429 $435 $440 forward $303 $-1 #
vertex $-1 $205 $441 #
vertex $-1 $205 $442 #
straight-curve $-1 -77.274990069007572 12.244811368558809 7.5894878939915884 1 0 0 I I #
coedge $-1 $317 $317 $-1 $443 reversed $208 $-1 #
edge $-1 $444 0 $444 6.2831853071796004 $209 $445 forward 7 unknown #
vertex $-1 $212 $446 #
ellipse-curve $-1 -58.166289491932204 14.553984878669318 4.7001898068764252 -0.77714596973225614 0 0.62932038083071107 0.31466019041535553 0 0.38857298486612807 1 I I #
coedge $-1 $321 $321 $-1 $447 reversed $215 $-1 #
edge $-1 $448 0 $448 6.2831853071796004 $216 $449 forward 7 unknown #
vertex $-1 $219 $450 #
ellipse-curve $-1 -58.166289491932204 18.017745143835079 4.7001898068764252 -0.77714596973225614 0 0.62932038083071107 0.31466019041535553 0 0.38857298486612807 1 I I #
face $-1 $-1 $235 $33 $-1 $451 reversed single #
loop $-1 $-1 $341 $220 #
plane-surface $-1 0 29.615199092843149 0 0 -1 0 0 0 -1 forward_v I I I I #
coedge $-1 $452 $339 $342 $453 forward $221 $-1 #
coedge $-1 $345 $223 $224 $333 reversed $139 $-1 #
coedge $-1 $339 $452 $223 $331 reversed $221 $-1 #
edge $-1 $346 -7.5894878939915911 $454 7.5894878939915911 $330 $455 forward 7 unknown #
coedge $-1 $225 $224 $452 $456 forward $89 $-1 #
edge $-1 $337 -60.505996887112033 $454 60.505996887112033 $329 $457 forward 7 unknown #
coedge $-1 $342 $341 $225 $335 reversed $326 $-1 #
edge $-1 $458 -60.505996887112033 $336 60.505996887112033 $334 $459 forward 7 unknown #
vertex $-1 $227 $460 #
vertex $-1 $348 $461 #
straight-curve $-1 60.505996887112033 0 -7.5894878939915911 0 -1 0 I I #
coedge $-1 $328 $330 $228 $340 reversed $221 $-1 #
edge $-1 $343 -29.615199092843149 $346 29.615199092843149 $339 $462 forward 7 unknown #
coedge $-1 $334 $229 $234 $349 forward $326 $-1 #
coedge $-1 $229 $334 $328 $453 reversed $326 $-1 #
vertex $-1 $230 $463 #
straight-curve $-1 0 29.615199092843149 7.5894878939915911 -1 0 0 I I #
coedge $-1 $231 $329 $233 $348 reversed $139 $-1 #
vertex $-1 $340 $464 #
straight-curve $-1 0 -29.615199092843149 7.5894878939915911 1 0 0 I I #
edge $-1 $236 -7.5894878939915911 $337 7.5894878939915911 $233 $465 forward 7 unknown #
edge $-1 $237 -7.5894878939915911 $336 7.5894878939915911 $234 $466 forward 7 unknown #
point $-1 60.505996887112033 -29.615199092843149 7.5894878939915911 #
point $-1 60.505996887112033 29.615199092843149 7.5894878939915911 #
face $-1 $-1 $252 $34 $-1 $467 reversed single #
loop $-1 $-1 $359 $239 #
plane-surface $-1 0 0 7.5894878939915911 0 0 1 1 0 0 forward_v I I I I #
coedge $-1 $468 $242 $247 $364 forward $147 $-1 #
coedge $-1 $242 $468 $469 $470 reversed $147 $-1 #
coedge $-1 $244 $243 $242 $358 reversed $93 $-1 #
edge $-1 $471 -4.544743946995796 $369 -1.5447439469957955 $242 $472 forward 7 unknown #
coedge $-1 $469 $473 $244 $360 forward $353 $-1 #
edge $-1 $362 -60.505996887112033 $471 60.505996887112033 $359 $474 forward 7 unknown #
coedge $-1 $251 $245 $473 $475 reversed $252 $-1 #
vertex $-1 $246 $476 #
straight-curve $-1 60.505996887112033 -24.193390495477146 3.0447439469957955 0 0 1 I I #
edge $-1 $369 10.741243098397073 $367 16.163051695763073 $355 $477 forward 7 unknown #
coedge $-1 $478 $248 $251 $371 reversed $240 $-1 #
coedge $-1 $248 $478 $468 $479 forward $240 $-1 #
vertex $-1 $249 $480 #
straight-curve $-1 0 -29.615199092843149 4.5894878939915911 1 0 0 I I #
vertex $-1 $364 $481 #
straight-curve $-1 0 -24.193390495477146 4.5894878939915911 1 0 0 I I #
edge $-1 $482 -7.5894878939915911 $253 -4.5894878939915911 $251 $483 forward 7 unknown #
point $-1 60.505996887112033 -29.615199092843149 4.5894878939915911 #
point $-1 60.505996887112033 -24.193390495477146 4.5894878939915911 #
loop $-1 $-1 $264 $256 #
plane-surface $-1 60.505996887112033 0 0 -1 0 0 0 0 1 forward_v I I I I #
coedge $-1 $377 $259 $484 $485 reversed $155 $-1 #
coedge $-1 $259 $376 $380 $486 reversed $155 $-1 #
edge $-1 $487 -121.01199377422407 $381 -114.12645823390838 $259 $488 forward 7 unknown #
coedge $-1 $261 $260 $384 $489 reversed $97 $-1 #
coedge $-1 $267 $262 $377 $486 forward $257 $-1 #
vertex $-1 $486 $490 #
straight-curve $-1 54.666731611234901 -8.7524778024380048 7.5894878939915813 0 -1 0 I I #
coedge $-1 $484 $264 $267 $388 reversed $374 $-1 #
coedge $-1 $264 $484 $379 $489 forward $374 $-1 #
vertex $-1 $265 $491 #
straight-curve $-1 60.505996887112033 -10.816520714274876 85.345643936311262 0 0 1 I I #
straight-curve $-1 -42.11799351612251 -10.816520714274876 68.067297469387981 0.84804809178421925 0 -0.52991927123019833 I I #
edge $-1 $492 -24.193390495477146 $268 -10.816520714274876 $383 $493 forward 7 unknown #
point $-1 60.505996887112033 -10.816520714274876 7.5894878939915911 #
point $-1 54.66673161123488 -10.816520714274876 7.5894878939915955 #
edge $-1 $494 1 $494 0 $271 $-1 forward 7 unknown #
vertex $-1 $272 $495 #
ellipse-curve $-1 56.498741615768694 -20.371427700847924 4.0245388833663647 0.52991927123019833 0 0.84804809178421925 0.84804809178421925 0 -0.52991927123019833 1 I I #
point $-1 58.434412340957657 -20.371427700847924 5.2351796349845303 #
edge $-1 $496 1 $496 0 $275 $-1 forward 7 unknown #
vertex $-1 $276 $497 #
ellipse-curve $-1 56.498741615768694 -14.638483508904095 4.0245388833663647 0.52991927123019833 0 0.84804809178421925 0.84804809178421925 0 -0.52991927123019833 1 I I #
point $-1 58.434412340957657 -14.638483508904095 5.2351796349845303 #
loop $-1 $-1 $287 $279 #
plane-surface $-1 -60.505996887112033 0 0 1 0 0 0 0 -1 forward_v I I I I #
coedge $-1 $402 $282 $284 $406 reversed $177 $-1 #
coedge $-1 $282 $401 $498 $499 reversed $177 $-1 #
coedge $-1 $290 $285 $282 $404 forward $280 $-1 #
edge $-1 $407 -21.448407972255204 $500 -16.768993181895539 $403 $501 forward 7 unknown #
coedge $-1 $284 $283 $410 $502 reversed $111 $-1 #
edge $-1 $503 0 $407 7.4356638254473442 $401 $504 forward 7 unknown #
vertex $-1 $286 $505 #
straight-curve $-1 -55.826582096752361 -5.3092148914539763 7.589487893991592 0 1 0 I I #
coedge $-1 $498 $287 $290 $414 reversed $399 $-1 #
coedge $-1 $287 $498 $405 $502 forward $399 $-1 #
vertex $-1 $288 $506 #
straight-curve $-1 -60.505996887112033 -14.659483425601335 38.983102863419795 0 0 1 I I #
straight-curve $-1 -60.505996887112033 -14.659483425601335 1.8108917197612584 -0.62932038083071107 0 -0.77714596973225614 I I #
edge $-1 $500 6.5773761402145698 $291 14.659483425601335 $409 $507 forward 7 unknown #
point $-1 -60.505996887112033 -14.659483425601335 7.5894878939915911 #
point $-1 -55.826582096752368 -14.659483425601335 7.5894878939915911 #
edge $-1 $508 1 $508 0 $294 $-1 forward 7 unknown #
vertex $-1 $295 $509 #
ellipse-curve $-1 -57.110773142038582 -12.350309915490829 3.8454495429374043 -0.77714596973225614 0 0.62932038083071107 0.31466019041535553 0 0.38857298486612807 1 I I #
point $-1 -57.851629301516851 -12.350309915490829 5.088762791742556 #
edge $-1 $510 1 $510 0 $298 $-1 forward 7 unknown #
vertex $-1 $299 $511 #
ellipse-curve $-1 -57.110773142038582 -8.8865496503250725 3.8454495429374043 -0.77714596973225614 0 0.62932038083071107 0.31466019041535553 0 0.38857298486612807 1 I I #
point $-1 -57.851629301516851 -8.8865496503250725 5.088762791742556 #
loop $-1 $-1 $310 $302 #
plane-surface $-1 -60.505996887112033 0 0 1 0 0 0 0 -1 forward_v I I I I #
coedge $-1 $428 $305 $307 $432 reversed $199 $-1 #
coedge $-1 $305 $427 $512 $513 reversed $199 $-1 #
coedge $-1 $313 $308 $305 $430 forward $303 $-1 #
edge $-1 $433 -21.448407972255204 $514 -16.768993181895539 $429 $515 forward 7 unknown #
coedge $-1 $307 $306 $436 $516 reversed $125 $-1 #
edge $-1 $517 0 $433 7.4356638254473442 $427 $518 forward 7 unknown #
vertex $-1 $309 $519 #
straight-curve $-1 -55.826582096752361 8.1429325056260957 7.589487893991592 0 1 0 I I #
coedge $-1 $512 $310 $313 $440 reversed $425 $-1 #
coedge $-1 $310 $512 $431 $516 forward $425 $-1 #
vertex $-1 $311 $520 #
straight-curve $-1 -60.505996887112033 12.244811368558809 38.983102863419795 0 0 1 I I #
straight-curve $-1 -60.505996887112033 12.244811368558809 1.8108917197612584 -0.62932038083071107 0 -0.77714596973225614 I I #
edge $-1 $514 -20.326918653945576 $314 -12.244811368558809 $435 $521 forward 7 unknown #
point $-1 -60.505996887112033 12.244811368558809 7.5894878939915911 #
point $-1 -55.826582096752368 12.244811368558809 7.5894878939915911 #
edge $-1 $522 1 $522 0 $317 $-1 forward 7 unknown #
vertex $-1 $318 $523 #
ellipse-curve $-1 -57.110773142038582 14.553984878669318 3.8454495429374043 -0.77714596973225614 0 0.62932038083071107 0.31466019041535553 0 0.38857298486612807 1 I I #
point $-1 -57.851629301516851 14.553984878669318 5.088762791742556 #
edge $-1 $524 1 $524 0 $321 $-1 forward 7 unknown #
vertex $-1 $322 $525 #
ellipse-curve $-1 -57.110773142038582 18.017745143835079 3.8454495429374043 -0.77714596973225614 0 0.62932038083071107 0.31466019041535553 0 0.38857298486612807 1 I I #
point $-1 -57.851629301516851 18.017745143835079 5.088762791742556 #
plane-surface $-1 60.505996887112033 0 0 -1 0 0 0 0 1 forward_v I I I I #
coedge $-1 $330 $328 $332 $456 reversed $221 $-1 #
edge $-1 $343 -7.5894878939915911 $458 7.5894878939915911 $342 $526 forward 7 unknown #
vertex $-1 $456 $527 #
straight-curve $-1 -60.505996887112033 -29.615199092843149 0 0 0 -1 I I #
edge $-1 $454 -29.615199092843149 $458 29.615199092843149 $452 $528 forward 7 unknown #
straight-curve $-1 0 -29.615199092843149 -7.5894878939915911 -1 0 0 I I #
vertex $-1 $335 $529 #
straight-curve $-1 0 29.615199092843149 -7.5894878939915911 1 0 0 I I #
point $-1 60.505996887112033 29.615199092843149 -7.5894878939915911 #
point $-1 60.505996887112033 -29.615199092843149 -7.5894878939915911 #
straight-curve $-1 -60.505996887112033 0 7.5894878939915911 0 -1 0 I I #
point $-1 -60.505996887112033 29.615199092843149 7.5894878939915911 #
point $-1 -60.505996887112033 -29.615199092843149 7.5894878939915911 #
straight-curve $-1 60.505996887112033 -29.615199092843149 0 0 0 -1 I I #
straight-curve $-1 60.505996887112033 29.615199092843149 0 0 0 -1 I I #
plane-surface $-1 60.505996887112033 0 0 -1 0 0 0 0 1 forward_v I I I I #
coedge $-1 $356 $355 $366 $479 reversed $147 $-1 #
coedge $-1 $530 $359 $356 $470 forward $353 $-1 #
edge $-1 $471 24.193390495477146 $531 29.615199092843149 $356 $532 forward 7 unknown #
vertex $-1 $470 $533 #
straight-curve $-1 -60.505996887112033 -24.193390495477146 3.0447439469957955 0 0 -1 I I #
coedge $-1 $359 $530 $361 $475 forward $353 $-1 #
straight-curve $-1 0 -24.193390495477146 7.5894878939915911 -1 0 0 I I #
edge $-1 $482 -29.615199092843149 $362 -24.193390495477146 $361 $534 forward 7 unknown #
point $-1 60.505996887112033 -24.193390495477146 7.5894878939915911 #
straight-curve $-1 -60.505996887112033 -13.452147397080074 4.5894878939915911 0 -1 0 I I #
coedge $-1 $366 $365 $530 $535 reversed $240 $-1 #
edge $-1 $531 -7.5894878939915911 $367 -4.5894878939915911 $468 $536 forward 7 unknown #
point $-1 -60.505996887112033 -29.615199092843149 4.5894878939915911 #
point $-1 -60.505996887112033 -24.193390495477146 4.5894878939915911 #
vertex $-1 $475 $537 #
straight-curve $-1 60.505996887112033 -29.615199092843149 0 0 0 -1 I I #
coedge $-1 $384 $383 $376 $485 forward $374 $-1 #
edge $-1 $492 77.756156042319674 $487 81.404934017873401 $484 $538 forward 7 unknown #
edge $-1 $381 54.66673161123488 $492 60.505996887112033 $380 $539 forward 7 unknown #
vertex $-1 $485 $540 #
straight-curve $-1 -42.11799351612251 -24.193390495477143 68.067297469387981 -0.84804809178421925 0 0.52991927123019833 I I #
edge $-1 $487 -15.440912693039138 $385 -2.0640429118368715 $384 $541 forward 7 unknown #
point $-1 54.66673161123488 -24.193390495477146 7.5894878939915911 #
point $-1 60.505996887112033 -10.816520714274876 3.9407099184378609 #
vertex $-1 $388 $542 #
straight-curve $-1 60.505996887112033 0 7.5894878939915911 0 1 0 I I #
vertex $-1 $391 $543 #
point $-1 57.346789707552915 -20.371427700847924 3.4946196121361659 #
vertex $-1 $395 $544 #
point $-1 57.346789707552915 -14.638483508904095 3.4946196121361659 #
coedge $-1 $410 $409 $402 $499 forward $399 $-1 #
edge $-1 $500 31.393614969428203 $503 37.172211143658537 $498 $545 forward 7 unknown #
vertex $-1 $414 $546 #
straight-curve $-1 -77.274990069007572 -6.5773761402145698 7.5894878939915884 -1 0 0 I I #
edge $-1 $503 1.2681612487605936 $411 9.350268534147359 $410 $547 forward 7 unknown #
vertex $-1 $502 $548 #
straight-curve $-1 -60.505996887112033 -6.5773761402145698 1.8108917197612584 0.62932038083071107 0 0.77714596973225614 I I #
point $-1 -55.826582096752368 -6.5773761402145698 7.5894878939915911 #
point $-1 -60.505996887112033 -14.659483425601335 1.8108917197612584 #
straight-curve $-1 -60.505996887112033 0 7.5894878939915911 0 -1 0 I I #
vertex $-1 $417 $549 #
point $-1 -56.796112951623222 -12.350309915490829 4.2340225278035319 #
vertex $-1 $421 $550 #
point $-1 -56.796112951623222 -8.8865496503250725 4.2340225278035319 #
coedge $-1 $436 $435 $428 $513 forward $425 $-1 #
edge $-1 $514 31.393614969428203 $517 37.172211143658537 $512 $551 forward 7 unknown #
vertex $-1 $440 $552 #
straight-curve $-1 -77.274990069007572 20.326918653945576 7.5894878939915884 -1 0 0 I I #
edge $-1 $517 -12.18398614831948 $437 -4.101878862932713 $436 $553 forward 7 unknown #
vertex $-1 $516 $554 #
straight-curve $-1 -60.505996887112033 20.326918653945576 1.8108917197612584 0.62932038083071107 0 0.77714596973225614 I I #
point $-1 -55.826582096752368 20.326918653945576 7.5894878939915911 #
point $-1 -60.505996887112033 12.244811368558809 1.8108917197612584 #
straight-curve $-1 -60.505996887112033 0 7.5894878939915911 0 -1 0 I I #
vertex $-1 $443 $555 #
point $-1 -56.796112951623222 14.553984878669318 4.2340225278035319 #
vertex $-1 $447 $556 #
point $-1 -56.796112951623222 18.017745143835079 4.2340225278035319 #
straight-curve $-1 -60.505996887112033 29.615199092843149 0 0 0 -1 I I #
point $-1 -60.505996887112033 -29.615199092843149 -7.5894878939915911 #
straight-curve $-1 -60.505996887112033 0 -7.5894878939915911 0 1 0 I I #
point $-1 -60.505996887112033 29.615199092843149 -7.5894878939915911 #
coedge $-1 $473 $469 $478 $535 forward $353 $-1 #
vertex $-1 $470 $557 #
straight-curve $-1 -60.505996887112033 0 7.5894878939915911 0 -1 0 I I #
point $-1 -60.505996887112033 -24.193390495477146 7.5894878939915911 #
straight-curve $-1 60.505996887112033 0 7.5894878939915911 0 1 0 I I #
edge $-1 $531 -60.505996887112033 $482 60.505996887112033 $478 $558 forward 7 unknown #
straight-curve $-1 -60.505996887112033 -29.615199092843149 0 0 0 -1 I I #
point $-1 60.505996887112033 -29.615199092843149 7.5894878939915911 #
straight-curve $-1 60.505996887112033 -24.193390495477143 85.345643936311262 0 0 -1 I I #
straight-curve $-1 0 -24.193390495477146 7.5894878939915911 1 0 0 I I #
point $-1 60.505996887112033 -24.193390495477143 3.9407099184378609 #
straight-curve $-1 60.505996887112033 -8.7524778024380048 3.9407099184378644 0 1 0 I I #
point $-1 60.505996887112033 -24.193390495477146 7.5894878939915911 #
point $-1 55.968822344538495 -20.371427700847924 3.176490791582145 #
point $-1 55.968822344538495 -14.638483508904095 3.176490791582145 #
straight-curve $-1 -60.505996887112033 -6.5773761402145698 38.983102863419795 0 0 -1 I I #
point $-1 -60.505996887112033 -6.5773761402145698 7.5894878939915911 #
straight-curve $-1 -60.505996887112033 -5.3092148914539763 1.8108917197612566 0 -1 0 I I #
point $-1 -60.505996887112033 -6.5773761402145698 1.8108917197612584 #
point $-1 -56.722200157172452 -12.350309915490829 3.5307893525220488 #
point $-1 -56.722200157172452 -8.8865496503250725 3.5307893525220488 #
straight-curve $-1 -60.505996887112033 20.326918653945576 38.983102863419795 0 0 -1 I I #
point $-1 -60.505996887112033 20.326918653945576 7.5894878939915911 #
straight-curve $-1 -60.505996887112033 8.1429325056260957 1.8108917197612566 0 -1 0 I I #
point $-1 -60.505996887112033 20.326918653945576 1.8108917197612584 #
point $-1 -56.722200157172452 14.553984878669318 3.5307893525220488 #
point $-1 -56.722200157172452 18.017745143835079 3.5307893525220488 #
point $-1 -60.505996887112033 -29.615199092843149 7.5894878939915911 #
straight-curve $-1 0 -29.615199092843149 7.5894878939915911 1 0 0 I I #
End-of-ACIS-data 