500 0 10 0           
7 Unknown 11 ACIS 5.0 NT 24 Thu Mar 25 15:46:59 1999 
-1 9.9999999999999995e-007 1e-010 
body $-1 $10 $-1 $11 #
body $-1 $12 $-1 $13 #
body $-1 $14 $-1 $15 #
body $-1 $16 $-1 $17 #
body $-1 $18 $-1 $19 #
body $-1 $20 $-1 $21 #
body $-1 $22 $-1 $23 #
body $-1 $24 $-1 $25 #
body $-1 $26 $-1 $27 #
body $-1 $28 $-1 $29 #
lump $-1 $-1 $30 $0 #
transform $-1 1 0 0 0 1 0 0 0 1 71.650135807367178 42.617694078554813 14.640914905346106 1 rotate no_reflect no_shear #
lump $-1 $-1 $31 $1 #
transform $-1 1 0 0 0 1 0 0 0 1 71.650135807367178 42.617694078554813 14.640914905346106 1 rotate no_reflect no_shear #
lump $-1 $-1 $32 $2 #
transform $-1 1 0 0 0 1 0 0 0 1 71.650135807367178 42.617694078554813 14.640914905346106 1 rotate no_reflect no_shear #
lump $-1 $-1 $33 $3 #
transform $-1 1 0 0 0 1 0 0 0 1 71.650135807367178 42.617694078554813 14.640914905346106 1 rotate no_reflect no_shear #
lump $-1 $-1 $34 $4 #
transform $-1 1 0 0 0 1 0 0 0 1 71.650135807367178 42.617694078554813 14.640914905346106 1 rotate no_reflect no_shear #
lump $-1 $-1 $35 $5 #
transform $-1 1 0 0 0 1 0 0 0 1 71.650135807367178 42.617694078554813 14.640914905346106 1 rotate no_reflect no_shear #
lump $-1 $-1 $36 $6 #
transform $-1 1 0 0 0 1 0 0 0 1 71.650135807367178 42.617694078554813 14.640914905346106 1 rotate no_reflect no_shear #
lump $-1 $-1 $37 $7 #
transform $-1 1 0 0 0 1 0 0 0 1 71.650135807367178 42.617694078554813 14.640914905346106 1 rotate no_reflect no_shear #
lump $-1 $-1 $38 $8 #
transform $-1 1 0 0 0 1 0 0 0 1 71.650135807367178 42.617694078554813 14.640914905346106 1 rotate no_reflect no_shear #
lump $-1 $-1 $39 $9 #
transform $-1 1 0 0 0 1 0 0 0 1 71.650135807367178 42.617694078554813 14.640914905346106 1 rotate no_reflect no_shear #
shell $-1 $-1 $-1 $40 $-1 $10 #
shell $-1 $-1 $-1 $41 $-1 $12 #
shell $-1 $-1 $-1 $42 $-1 $14 #
shell $-1 $-1 $-1 $43 $-1 $16 #
shell $-1 $-1 $-1 $44 $-1 $18 #
shell $-1 $-1 $-1 $45 $-1 $20 #
shell $-1 $-1 $-1 $46 $-1 $22 #
shell $-1 $-1 $-1 $47 $-1 $24 #
shell $-1 $-1 $-1 $48 $-1 $26 #
shell $-1 $-1 $-1 $49 $-1 $28 #
face $-1 $50 $51 $30 $-1 $52 forward single #
face $-1 $53 $54 $31 $-1 $55 forward single #
face $-1 $56 $57 $32 $-1 $58 reversed single #
face $-1 $59 $60 $33 $-1 $61 forward single #
face $-1 $62 $63 $34 $-1 $64 reversed single #
face $-1 $65 $66 $35 $-1 $67 forward single #
face $-1 $68 $69 $36 $-1 $70 reversed single #
face $-1 $71 $72 $37 $-1 $73 forward single #
face $-1 $74 $75 $38 $-1 $76 reversed single #
face $-1 $77 $78 $39 $-1 $79 forward single #
face $-1 $80 $81 $30 $-1 $82 reversed single #
loop $-1 $-1 $83 $40 #
plane-surface $-1 0 0 14.640914905346106 0 0 1 1 0 0 forward_v I I I I #
face $-1 $84 $85 $31 $-1 $86 reversed single #
loop $-1 $-1 $87 $41 #
plane-surface $-1 0 -34.359596100030423 -8.8026897905588726 0 0 1 1 0 0 forward_v I I I I #
face $-1 $88 $89 $32 $-1 $90 reversed single #
loop $-1 $-1 $91 $42 #
plane-surface $-1 46.952439387863535 1.2520847915330577 206.57254938428633 0 -1 0 -0.61566148304635926 0 -0.78801074757464917 forward_v I I I I #
face $-1 $92 $93 $33 $-1 $94 forward single #
loop $-1 $95 $96 $43 #
cone-surface $-1 65.14441509767812 -2.7993527362199444 9.2547043370429094 -0.61566148304635926 0 -0.78801074757464917 0.39400537378732459 0 -0.30783074152317963 1 I I 0 1 0.5 forward I I I I #
face $-1 $97 $98 $34 $-1 $99 reversed single #
loop $-1 $-1 $100 $44 #
plane-surface $-1 46.952439387863535 35.611680891563481 206.57254938428633 0 -1 0 -0.61566148304635926 0 -0.78801074757464917 forward_v I I I I #
face $-1 $101 $102 $35 $-1 $103 forward single #
loop $-1 $104 $105 $45 #
cone-surface $-1 65.14441509767812 31.560243363810478 9.2547043370429094 -0.61566148304635926 0 -0.78801074757464917 0.39400537378732459 0 -0.30783074152317963 1 I I 0 1 0.5 forward I I I I #
face $-1 $106 $107 $36 $-1 $108 reversed single #
loop $-1 $-1 $109 $46 #
plane-surface $-1 -159.87459355064064 -6.8507902639729465 118.34809164101287 0 1 0 -0.61566148304635926 0 0.78801074757464917 forward_v I I I I #
face $-1 $110 $111 $37 $-1 $112 forward single #
loop $-1 $113 $114 $47 #
cone-surface $-1 -65.144415097678134 -2.7993527362199444 9.2547043370429272 0.61566148304635926 0 -0.78801074757464917 0.39400537378732459 0 0.30783074152317963 1 I I 0 1 0.5 forward I I I I #
face $-1 $115 $116 $38 $-1 $117 reversed single #
loop $-1 $-1 $118 $48 #
plane-surface $-1 -159.87459355064064 27.508805836057476 118.34809164101287 0 1 0 -0.61566148304635926 0 0.78801074757464917 forward_v I I I I #
face $-1 $119 $120 $39 $-1 $121 forward single #
loop $-1 $122 $123 $49 #
cone-surface $-1 -65.144415097678134 31.560243363810478 9.2547043370429272 0.61566148304635926 0 -0.78801074757464917 0.39400537378732459 0 0.30783074152317963 1 I I 0 1 0.5 forward I I I I #
face $-1 $124 $125 $30 $-1 $126 reversed single #
loop $-1 $-1 $127 $50 #
plane-surface $-1 0 0 -14.640914905346106 0 0 1 1 0 0 forward_v I I I I #
coedge $-1 $128 $129 $130 $131 forward $51 $-1 #
face $-1 $132 $133 $31 $-1 $134 reversed single #
loop $-1 $-1 $135 $53 #
plane-surface $-1 0 -26.101498121506033 -11.72180234795249 0 -1 0 0 0 -1 forward_v I I I I #
coedge $-1 $136 $137 $138 $139 reversed $54 $-1 #
face $-1 $140 $141 $32 $-1 $142 reversed single #
loop $-1 $-1 $143 $56 #
plane-surface $-1 -41.272018355409912 -2.7993527362199444 93.650395221509228 0.61566148304635926 0 0.78801074757464917 0.78801074757464917 0 -0.61566148304635926 forward_v I I I I #
coedge $-1 $144 $145 $146 $147 reversed $57 $-1 #
face $-1 $-1 $148 $33 $-1 $149 forward single #
loop $-1 $150 $151 $59 #
cone-surface $-1 64.382095522468347 -2.7993527362199444 8.2789797954012432 -0.61566148304635926 0 -0.78801074757464917 0.19700268689366229 0 -0.15391537076158981 1 I I -0.70710678118654746 0.70710678118654746 0.25 forward I I I I #
loop $-1 $-1 $152 $43 #
coedge $-1 $96 $96 $153 $154 reversed $60 $-1 #
face $-1 $155 $156 $34 $-1 $157 reversed single #
loop $-1 $-1 $158 $62 #
plane-surface $-1 -41.272018355409912 31.560243363810478 93.650395221509228 0.61566148304635926 0 0.78801074757464917 0.78801074757464917 0 -0.61566148304635926 forward_v I I I I #
coedge $-1 $159 $160 $161 $162 reversed $63 $-1 #
face $-1 $-1 $163 $35 $-1 $164 forward single #
loop $-1 $165 $166 $65 #
cone-surface $-1 64.382095522468347 31.560243363810478 8.2789797954012432 -0.61566148304635926 0 -0.78801074757464917 0.19700268689366229 0 -0.15391537076158981 1 I I -0.70710678118654746 0.70710678118654746 0.25 forward I I I I #
loop $-1 $-1 $167 $45 #
coedge $-1 $105 $105 $168 $169 reversed $66 $-1 #
face $-1 $170 $171 $36 $-1 $172 reversed single #
loop $-1 $-1 $173 $68 #
plane-surface $-1 -71.650135807367192 -2.7993527362199444 5.4259374782357668 -0.61566148304635926 0 0.78801074757464917 0.78801074757464917 0 0.61566148304635926 forward_v I I I I #
coedge $-1 $174 $175 $176 $177 reversed $69 $-1 #
face $-1 $-1 $178 $37 $-1 $179 forward single #
loop $-1 $180 $181 $71 #
cone-surface $-1 -64.382095522468362 -2.7993527362199444 8.2789797954012609 0.61566148304635926 0 -0.78801074757464917 0.19700268689366229 0 0.15391537076158981 1 I I -0.70710678118654746 0.70710678118654746 0.25 forward I I I I #
loop $-1 $-1 $182 $47 #
coedge $-1 $114 $114 $183 $184 reversed $72 $-1 #
face $-1 $185 $186 $38 $-1 $187 reversed single #
loop $-1 $-1 $188 $74 #
plane-surface $-1 -71.650135807367192 31.560243363810478 5.4259374782357668 -0.61566148304635926 0 0.78801074757464917 0.78801074757464917 0 0.61566148304635926 forward_v I I I I #
coedge $-1 $189 $190 $191 $192 reversed $75 $-1 #
face $-1 $-1 $193 $39 $-1 $194 forward single #
loop $-1 $195 $196 $77 #
cone-surface $-1 -64.382095522468362 31.560243363810478 8.2789797954012609 0.61566148304635926 0 -0.78801074757464917 0.19700268689366229 0 0.15391537076158981 1 I I -0.70710678118654746 0.70710678118654746 0.25 forward I I I I #
loop $-1 $-1 $197 $49 #
coedge $-1 $123 $123 $198 $199 reversed $78 $-1 #
face $-1 $200 $201 $30 $-1 $202 reversed single #
loop $-1 $-1 $203 $80 #
plane-surface $-1 0 -42.617694078554813 0 0 1 0 0 0 1 forward_v I I I I #
coedge $-1 $204 $205 $206 $207 forward $81 $-1 #
coedge $-1 $208 $83 $209 $210 forward $51 $-1 #
coedge $-1 $83 $208 $211 $212 forward $51 $-1 #
coedge $-1 $213 $214 $83 $131 reversed $215 $-1 #
edge $-1 $216 -42.617694078554813 $217 42.617694078554813 $130 $218 forward 7 unknown #
face $-1 $219 $220 $31 $-1 $221 reversed single #
loop $-1 $-1 $222 $84 #
plane-surface $-1 0 0 -14.640914905346106 0 0 1 1 0 0 forward_v I I I I #
coedge $-1 $223 $224 $225 $226 reversed $85 $-1 #
coedge $-1 $227 $87 $224 $228 forward $54 $-1 #
coedge $-1 $87 $227 $229 $230 reversed $54 $-1 #
coedge $-1 $231 $225 $87 $139 forward $220 $-1 #
edge $-1 $232 8.9217000714908217 $233 25.437896028539601 $138 $234 forward 7 unknown #
face $-1 $235 $236 $32 $-1 $237 reversed single #
loop $-1 $-1 $238 $88 #
plane-surface $-1 46.952439387863535 -6.8507902639729465 206.57254938428633 0 1 0 0.61566148304635926 0 0.78801074757464917 forward_v I I I I #
coedge $-1 $239 $240 $241 $242 reversed $89 $-1 #
coedge $-1 $145 $91 $243 $244 reversed $57 $-1 #
coedge $-1 $91 $144 $239 $245 reversed $57 $-1 #
coedge $-1 $241 $246 $91 $147 forward $247 $-1 #
edge $-1 $248 -48.173916113435411 $249 -36.379283102953679 $146 $250 forward 7 unknown #
loop $-1 $-1 $153 $92 #
plane-surface $-1 -41.272018355409912 -2.7993527362199444 93.650395221509228 0.61566148304635926 0 0.78801074757464917 0.78801074757464917 0 -0.61566148304635926 forward_v I I I I #
loop $-1 $-1 $251 $59 #
coedge $-1 $151 $151 $152 $252 reversed $93 $-1 #
coedge $-1 $152 $152 $151 $252 forward $95 $-1 #
coedge $-1 $153 $153 $96 $154 forward $148 $-1 #
edge $-1 $253 0 $253 6.2831853071796004 $153 $254 forward 7 unknown #
face $-1 $255 $256 $34 $-1 $257 reversed single #
loop $-1 $-1 $258 $97 #
plane-surface $-1 46.952439387863535 27.508805836057476 206.57254938428633 0 1 0 0.61566148304635926 0 0.78801074757464917 forward_v I I I I #
coedge $-1 $259 $260 $261 $262 reversed $98 $-1 #
coedge $-1 $160 $100 $263 $264 reversed $63 $-1 #
coedge $-1 $100 $159 $259 $265 reversed $63 $-1 #
coedge $-1 $261 $266 $100 $162 forward $267 $-1 #
edge $-1 $268 -48.173916113435411 $269 -36.379283102953679 $161 $270 forward 7 unknown #
loop $-1 $-1 $168 $101 #
plane-surface $-1 -41.272018355409912 31.560243363810478 93.650395221509228 0.61566148304635926 0 0.78801074757464917 0.78801074757464917 0 -0.61566148304635926 forward_v I I I I #
loop $-1 $-1 $271 $65 #
coedge $-1 $166 $166 $167 $272 reversed $102 $-1 #
coedge $-1 $167 $167 $166 $272 forward $104 $-1 #
coedge $-1 $168 $168 $105 $169 forward $163 $-1 #
edge $-1 $273 0 $273 6.2831853071796004 $168 $274 forward 7 unknown #
face $-1 $275 $276 $36 $-1 $277 forward single #
loop $-1 $-1 $278 $106 #
plane-surface $-1 -159.87459355064064 1.2520847915330577 118.34809164101287 0 -1 0 0.61566148304635926 0 -0.78801074757464917 forward_v I I I I #
coedge $-1 $279 $280 $281 $282 reversed $107 $-1 #
coedge $-1 $175 $109 $283 $284 reversed $69 $-1 #
coedge $-1 $109 $174 $279 $285 reversed $69 $-1 #
coedge $-1 $281 $286 $109 $177 forward $276 $-1 #
edge $-1 $287 8.2871609679531417 $288 20.081793978434874 $176 $289 forward 7 unknown #
loop $-1 $-1 $183 $110 #
plane-surface $-1 -71.650135807367192 -2.7993527362199444 5.4259374782357668 -0.61566148304635926 0 0.78801074757464917 0.78801074757464917 0 0.61566148304635926 forward_v I I I I #
loop $-1 $-1 $290 $71 #
coedge $-1 $181 $181 $182 $291 reversed $111 $-1 #
coedge $-1 $182 $182 $181 $291 forward $113 $-1 #
coedge $-1 $183 $183 $114 $184 forward $178 $-1 #
edge $-1 $292 0 $292 6.2831853071796004 $183 $293 forward 7 unknown #
face $-1 $294 $295 $38 $-1 $296 forward single #
loop $-1 $-1 $297 $115 #
plane-surface $-1 -159.87459355064064 35.611680891563481 118.34809164101287 0 -1 0 0.61566148304635926 0 -0.78801074757464917 forward_v I I I I #
coedge $-1 $298 $299 $300 $301 reversed $116 $-1 #
coedge $-1 $190 $118 $302 $303 reversed $75 $-1 #
coedge $-1 $118 $189 $298 $304 reversed $75 $-1 #
coedge $-1 $300 $305 $118 $192 forward $295 $-1 #
edge $-1 $306 8.2871609679531417 $307 20.081793978434874 $191 $308 forward 7 unknown #
loop $-1 $-1 $198 $119 #
plane-surface $-1 -71.650135807367192 31.560243363810478 5.4259374782357668 -0.61566148304635926 0 0.78801074757464917 0.78801074757464917 0 0.61566148304635926 forward_v I I I I #
loop $-1 $-1 $309 $77 #
coedge $-1 $196 $196 $197 $310 reversed $120 $-1 #
coedge $-1 $197 $197 $196 $310 forward $122 $-1 #
coedge $-1 $198 $198 $123 $199 forward $193 $-1 #
edge $-1 $311 0 $311 6.2831853071796004 $198 $312 forward 7 unknown #
face $-1 $313 $314 $30 $-1 $315 reversed single #
loop $-1 $-1 $316 $124 #
plane-surface $-1 -71.650135807367178 0 0 1 0 0 0 0 -1 forward_v I I I I #
coedge $-1 $317 $211 $318 $319 forward $125 $-1 #
coedge $-1 $320 $127 $317 $321 forward $81 $-1 #
coedge $-1 $127 $320 $322 $323 forward $81 $-1 #
coedge $-1 $214 $213 $127 $207 reversed $215 $-1 #
edge $-1 $324 -42.617694078554813 $325 42.617694078554813 $206 $326 forward 7 unknown #
coedge $-1 $129 $128 $327 $328 forward $51 $-1 #
coedge $-1 $329 $330 $128 $210 reversed $314 $-1 #
edge $-1 $217 -71.650135807367178 $331 71.650135807367178 $209 $332 forward 7 unknown #
coedge $-1 $203 $333 $129 $212 reversed $125 $-1 #
edge $-1 $334 -71.650135807367178 $216 71.650135807367178 $211 $335 forward 7 unknown #
coedge $-1 $206 $130 $333 $336 forward $215 $-1 #
coedge $-1 $130 $206 $329 $337 reversed $215 $-1 #
loop $-1 $-1 $213 $313 #
vertex $-1 $131 $338 #
vertex $-1 $131 $339 #
straight-curve $-1 71.650135807367178 0 14.640914905346106 0 1 0 I I #
face $-1 $340 $341 $31 $-1 $342 reversed single #
loop $-1 $-1 $225 $132 #
plane-surface $-1 71.650135807367178 0 0 -1 0 0 0 0 1 forward_v I I I I #
coedge $-1 $343 $344 $223 $345 forward $133 $-1 #
coedge $-1 $346 $135 $222 $345 reversed $85 $-1 #
coedge $-1 $135 $346 $136 $228 reversed $85 $-1 #
coedge $-1 $138 $347 $135 $226 forward $220 $-1 #
edge $-1 $348 -8.7800137313698627 $232 -2.9417886165826275 $225 $349 forward 7 unknown #
coedge $-1 $137 $136 $350 $351 reversed $54 $-1 #
edge $-1 $232 -71.650135807367178 $352 71.650135807367178 $224 $353 forward 7 unknown #
coedge $-1 $354 $355 $137 $230 forward $341 $-1 #
edge $-1 $233 -71.650135807367178 $356 71.650135807367178 $229 $357 forward 7 unknown #
coedge $-1 $347 $138 $355 $358 forward $220 $-1 #
vertex $-1 $139 $359 #
vertex $-1 $358 $360 #
straight-curve $-1 71.650135807367178 -17.179798050015211 -8.8026897905588726 0 -1 0 I I #
face $-1 $-1 $247 $32 $-1 $361 forward single #
loop $-1 $-1 $362 $140 #
plane-surface $-1 71.650135807367178 0 0 -1 0 0 0 0 1 forward_v I I I I #
coedge $-1 $363 $364 $365 $366 reversed $141 $-1 #
coedge $-1 $367 $143 $145 $245 forward $89 $-1 #
coedge $-1 $143 $367 $363 $368 forward $89 $-1 #
coedge $-1 $365 $146 $143 $242 forward $247 $-1 #
edge $-1 $249 -2.6517611596430299 $369 5.4511138958629743 $241 $370 forward 7 unknown #
coedge $-1 $371 $372 $144 $244 forward $236 $-1 #
edge $-1 $373 -97.860337213907385 $248 -88.645359786797059 $243 $374 forward 7 unknown #
edge $-1 $249 128.33266736976253 $373 143.30027161473436 $145 $375 forward 7 unknown #
coedge $-1 $146 $365 $371 $376 forward $247 $-1 #
loop $-1 $-1 $365 $235 #
vertex $-1 $244 $377 #
vertex $-1 $147 $378 #
straight-curve $-1 23.476219693931768 1.2520847915330577 14.640914905346108 -1 0 0 I I #
coedge $-1 $251 $251 $-1 $379 reversed $150 $-1 #
edge $-1 $380 0 $380 6.2831853071796004 $151 $381 forward 7 unknown #
vertex $-1 $154 $382 #
ellipse-curve $-1 65.752819302126312 -2.7993527362199444 10.033426191790941 0.61566148304635926 0 0.78801074757464917 0.39400537378732459 0 -0.30783074152317963 1 I I #
face $-1 $-1 $267 $34 $-1 $383 forward single #
loop $-1 $-1 $384 $155 #
plane-surface $-1 71.650135807367178 0 0 -1 0 0 0 0 1 forward_v I I I I #
coedge $-1 $385 $386 $387 $388 reversed $156 $-1 #
coedge $-1 $389 $158 $160 $265 forward $98 $-1 #
coedge $-1 $158 $389 $385 $390 forward $98 $-1 #
coedge $-1 $387 $161 $158 $262 forward $267 $-1 #
edge $-1 $269 -19.831559209658241 $391 -11.728684154152237 $261 $392 forward 7 unknown #
coedge $-1 $393 $394 $159 $264 forward $256 $-1 #
edge $-1 $395 -97.860337213907385 $268 -88.645359786797059 $263 $396 forward 7 unknown #
edge $-1 $269 128.33266736976253 $395 143.30027161473436 $160 $397 forward 7 unknown #
coedge $-1 $161 $387 $393 $398 forward $267 $-1 #
loop $-1 $-1 $387 $255 #
vertex $-1 $264 $399 #
vertex $-1 $162 $400 #
straight-curve $-1 23.476219693931768 35.611680891563481 14.640914905346108 -1 0 0 I I #
coedge $-1 $271 $271 $-1 $401 reversed $165 $-1 #
edge $-1 $402 0 $402 6.2831853071796004 $166 $403 forward 7 unknown #
vertex $-1 $169 $404 #
ellipse-curve $-1 65.752819302126312 31.560243363810478 10.033426191790941 0.61566148304635926 0 0.78801074757464917 0.39400537378732459 0 -0.30783074152317963 1 I I #
face $-1 $-1 $405 $36 $-1 $406 reversed single #
loop $-1 $-1 $176 $170 #
plane-surface $-1 0 0 14.640914905346106 0 0 1 1 0 0 forward_v I I I I #
coedge $-1 $407 $408 $409 $410 reversed $171 $-1 #
coedge $-1 $411 $173 $175 $285 forward $107 $-1 #
coedge $-1 $173 $411 $407 $412 forward $107 $-1 #
coedge $-1 $409 $176 $173 $282 forward $276 $-1 #
edge $-1 $288 -5.4511138958629743 $413 2.6517611596430299 $281 $414 forward 7 unknown #
coedge $-1 $415 $416 $174 $284 forward $405 $-1 #
edge $-1 $417 -53.748108342270655 $287 -44.533130915160328 $283 $418 forward 7 unknown #
edge $-1 $288 -14.967604244971831 $417 -1.830693040787162e-014 $175 $419 forward 7 unknown #
coedge $-1 $176 $409 $415 $420 forward $276 $-1 #
vertex $-1 $284 $421 #
vertex $-1 $177 $422 #
straight-curve $-1 -79.93729677532032 -6.8507902639729465 14.640914905346108 1 0 0 I I #
coedge $-1 $290 $290 $-1 $423 reversed $180 $-1 #
edge $-1 $424 0 $424 6.2831853071796004 $181 $425 forward 7 unknown #
vertex $-1 $184 $426 #
ellipse-curve $-1 -65.752819302126312 -2.7993527362199444 10.033426191790939 -0.61566148304635926 0 0.78801074757464917 0.39400537378732459 0 0.30783074152317963 1 I I #
face $-1 $-1 $427 $38 $-1 $428 reversed single #
loop $-1 $-1 $191 $185 #
plane-surface $-1 0 0 14.640914905346106 0 0 1 1 0 0 forward_v I I I I #
coedge $-1 $429 $430 $431 $432 reversed $186 $-1 #
coedge $-1 $433 $188 $190 $304 forward $116 $-1 #
coedge $-1 $188 $433 $429 $434 forward $116 $-1 #
coedge $-1 $431 $191 $188 $301 forward $295 $-1 #
edge $-1 $307 11.728684154152237 $435 19.831559209658241 $300 $436 forward 7 unknown #
coedge $-1 $437 $438 $189 $303 forward $427 $-1 #
edge $-1 $439 -53.748108342270655 $306 -44.533130915160328 $302 $440 forward 7 unknown #
edge $-1 $307 -14.967604244971831 $439 -1.830693040787162e-014 $190 $441 forward 7 unknown #
coedge $-1 $191 $431 $437 $442 forward $295 $-1 #
vertex $-1 $192 $443 #
vertex $-1 $192 $444 #
straight-curve $-1 -79.93729677532032 27.508805836057476 14.640914905346108 1 0 0 I I #
coedge $-1 $309 $309 $-1 $445 reversed $195 $-1 #
edge $-1 $446 0 $446 6.2831853071796004 $196 $447 forward 7 unknown #
vertex $-1 $199 $448 #
ellipse-curve $-1 -65.752819302126312 31.560243363810478 10.033426191790939 -0.61566148304635926 0 0.78801074757464917 0.39400537378732459 0 0.30783074152317963 1 I I #
face $-1 $-1 $215 $30 $-1 $449 reversed single #
loop $-1 $-1 $329 $200 #
plane-surface $-1 0 42.617694078554813 0 0 -1 0 0 0 -1 forward_v I I I I #
coedge $-1 $450 $327 $330 $451 forward $201 $-1 #
coedge $-1 $333 $203 $204 $321 reversed $125 $-1 #
coedge $-1 $327 $450 $203 $319 reversed $201 $-1 #
edge $-1 $334 -14.640914905346106 $452 14.640914905346106 $318 $453 forward 7 unknown #
coedge $-1 $205 $204 $450 $454 forward $81 $-1 #
edge $-1 $325 -71.650135807367178 $452 71.650135807367178 $317 $455 forward 7 unknown #
coedge $-1 $330 $329 $205 $323 reversed $314 $-1 #
edge $-1 $456 -71.650135807367178 $324 71.650135807367178 $322 $457 forward 7 unknown #
vertex $-1 $207 $458 #
vertex $-1 $336 $459 #
straight-curve $-1 71.650135807367178 0 -14.640914905346106 0 -1 0 I I #
coedge $-1 $316 $318 $208 $328 reversed $201 $-1 #
edge $-1 $331 -42.617694078554813 $334 42.617694078554813 $327 $460 forward 7 unknown #
coedge $-1 $322 $209 $214 $337 forward $314 $-1 #
coedge $-1 $209 $322 $316 $451 reversed $314 $-1 #
vertex $-1 $210 $461 #
straight-curve $-1 0 42.617694078554813 14.640914905346106 -1 0 0 I I #
coedge $-1 $211 $317 $213 $336 reversed $125 $-1 #
vertex $-1 $328 $462 #
straight-curve $-1 0 -42.617694078554813 14.640914905346106 1 0 0 I I #
edge $-1 $216 -14.640914905346106 $325 14.640914905346106 $213 $463 forward 7 unknown #
edge $-1 $217 -14.640914905346106 $324 14.640914905346106 $214 $464 forward 7 unknown #
point $-1 71.650135807367178 -42.617694078554813 14.640914905346106 #
point $-1 71.650135807367178 42.617694078554813 14.640914905346106 #
face $-1 $-1 $465 $31 $-1 $466 reversed single #
loop $-1 $-1 $229 $219 #
plane-surface $-1 0 -42.617694078554813 0 0 1 0 0 0 1 forward_v I I I I #
coedge $-1 $467 $222 $347 $468 forward $133 $-1 #
coedge $-1 $222 $467 $469 $470 forward $133 $-1 #
edge $-1 $471 -71.650135807367178 $348 71.650135807367178 $222 $472 forward 7 unknown #
coedge $-1 $224 $223 $473 $474 reversed $85 $-1 #
coedge $-1 $225 $231 $343 $468 reversed $220 $-1 #
vertex $-1 $468 $475 #
straight-curve $-1 71.650135807367178 -26.101498121506033 -5.8609011739762451 0 0 1 I I #
coedge $-1 $473 $476 $227 $351 forward $465 $-1 #
edge $-1 $356 -25.437896028539601 $352 -8.9217000714908217 $350 $477 forward 7 unknown #
vertex $-1 $351 $478 #
straight-curve $-1 0 -26.101498121506033 -8.8026897905588726 -1 0 0 I I #
coedge $-1 $479 $229 $476 $480 forward $341 $-1 #
coedge $-1 $229 $479 $231 $358 reversed $341 $-1 #
vertex $-1 $480 $481 #
straight-curve $-1 0 -42.617694078554813 -8.8026897905588726 -1 0 0 I I #
edge $-1 $233 8.8026897905588726 $482 14.640914905346106 $231 $483 forward 7 unknown #
point $-1 71.650135807367178 -26.101498121506033 -8.8026897905588726 #
point $-1 71.650135807367178 -42.617694078554813 -8.8026897905588726 #
plane-surface $-1 0 0 14.640914905346106 0 0 1 1 0 0 forward_v I I I I #
coedge $-1 $372 $371 $364 $484 forward $236 $-1 #
coedge $-1 $364 $238 $240 $368 reversed $141 $-1 #
coedge $-1 $238 $363 $362 $484 reversed $141 $-1 #
coedge $-1 $246 $241 $238 $366 forward $247 $-1 #
edge $-1 $369 36.379283102953679 $485 48.173916113435411 $365 $486 forward 7 unknown #
coedge $-1 $240 $239 $372 $487 reversed $89 $-1 #
edge $-1 $488 -143.30027161473436 $369 -128.33266736976253 $363 $489 forward 7 unknown #
vertex $-1 $242 $490 #
straight-curve $-1 59.855502796885474 -1.3996763681099722 14.640914905346101 0 -1 0 I I #
coedge $-1 $362 $243 $246 $376 reversed $236 $-1 #
coedge $-1 $243 $362 $367 $487 forward $236 $-1 #
vertex $-1 $244 $491 #
straight-curve $-1 71.650135807367178 1.2520847915330577 103.28627469214317 0 0 1 I I #
straight-curve $-1 -41.272018355409912 1.2520847915330577 93.650395221509228 0.78801074757464917 0 -0.61566148304635926 I I #
edge $-1 $485 -6.8507902639729465 $248 1.2520847915330577 $371 $492 forward 7 unknown #
point $-1 71.650135807367178 1.2520847915330577 14.640914905346106 #
point $-1 59.855502796885446 1.2520847915330577 14.640914905346108 #
edge $-1 $493 1 $493 0 $251 $-1 forward 7 unknown #
vertex $-1 $252 $494 #
ellipse-curve $-1 64.536010893229943 -2.7993527362199444 8.4759824822949064 0.61566148304635926 0 0.78801074757464917 0.39400537378732459 0 -0.30783074152317963 1 I I #
point $-1 66.146824675913621 -2.7993527362199444 9.7255954502677326 #
plane-surface $-1 0 0 14.640914905346106 0 0 1 1 0 0 forward_v I I I I #
coedge $-1 $394 $393 $386 $495 forward $256 $-1 #
coedge $-1 $386 $258 $260 $390 reversed $156 $-1 #
coedge $-1 $258 $385 $384 $495 reversed $156 $-1 #
coedge $-1 $266 $261 $258 $388 forward $267 $-1 #
edge $-1 $391 36.379283102953679 $496 48.173916113435411 $387 $497 forward 7 unknown #
coedge $-1 $260 $259 $394 $498 reversed $98 $-1 #
edge $-1 $499 -143.30027161473436 $391 -128.33266736976253 $385 $500 forward 7 unknown #
vertex $-1 $262 $501 #
straight-curve $-1 59.855502796885474 15.780121681905239 14.640914905346101 0 -1 0 I I #
coedge $-1 $384 $263 $266 $398 reversed $256 $-1 #
coedge $-1 $263 $384 $389 $498 forward $256 $-1 #
vertex $-1 $264 $502 #
straight-curve $-1 71.650135807367178 35.611680891563481 103.28627469214317 0 0 1 I I #
straight-curve $-1 -41.272018355409912 35.611680891563481 93.650395221509228 0.78801074757464917 0 -0.61566148304635926 I I #
edge $-1 $496 27.508805836057476 $268 35.611680891563481 $393 $503 forward 7 unknown #
point $-1 71.650135807367178 35.611680891563481 14.640914905346106 #
point $-1 59.855502796885446 35.611680891563481 14.640914905346108 #
edge $-1 $504 1 $504 0 $271 $-1 forward 7 unknown #
vertex $-1 $272 $505 #
ellipse-curve $-1 64.536010893229943 31.560243363810478 8.4759824822949064 0.61566148304635926 0 0.78801074757464917 0.39400537378732459 0 -0.30783074152317963 1 I I #
point $-1 66.146824675913621 31.560243363810478 9.7255954502677326 #
loop $-1 $-1 $283 $275 #
plane-surface $-1 -71.650135807367178 0 0 1 0 0 0 0 -1 forward_v I I I I #
coedge $-1 $408 $278 $280 $412 reversed $171 $-1 #
coedge $-1 $278 $407 $506 $507 reversed $171 $-1 #
coedge $-1 $286 $281 $278 $410 forward $276 $-1 #
edge $-1 $413 -20.081793978434874 $508 -8.2871609679531417 $409 $509 forward 7 unknown #
coedge $-1 $280 $279 $416 $510 reversed $107 $-1 #
edge $-1 $511 1.830693040787162e-014 $413 14.967604244971831 $407 $512 forward 7 unknown #
vertex $-1 $282 $513 #
straight-curve $-1 -59.85550279688546 -1.3996763681099722 14.640914905346104 0 1 0 I I #
coedge $-1 $506 $283 $286 $420 reversed $405 $-1 #
coedge $-1 $283 $506 $411 $510 forward $405 $-1 #
vertex $-1 $284 $514 #
straight-curve $-1 -71.650135807367178 -6.8507902639729465 59.174045820506436 0 0 1 I I #
straight-curve $-1 -71.650135807367192 -6.8507902639729465 5.4259374782357668 -0.78801074757464917 0 -0.61566148304635926 I I #
edge $-1 $508 -1.2520847915330577 $287 6.8507902639729465 $415 $515 forward 7 unknown #
point $-1 -71.650135807367178 -6.8507902639729465 14.640914905346106 #
point $-1 -59.855502796885446 -6.8507902639729465 14.640914905346106 #
edge $-1 $516 1 $516 0 $290 $-1 forward 7 unknown #
vertex $-1 $291 $517 #
ellipse-curve $-1 -64.536010893229957 -2.7993527362199444 8.4759824822949241 -0.61566148304635926 0 0.78801074757464917 0.39400537378732459 0 0.30783074152317963 1 I I #
point $-1 -65.358813928338975 -2.7993527362199444 10.34125693331411 #
loop $-1 $-1 $302 $294 #
plane-surface $-1 -71.650135807367178 0 0 1 0 0 0 0 -1 forward_v I I I I #
coedge $-1 $430 $297 $299 $434 reversed $186 $-1 #
coedge $-1 $297 $429 $518 $519 reversed $186 $-1 #
coedge $-1 $305 $300 $297 $432 forward $295 $-1 #
edge $-1 $435 -20.081793978434874 $520 -8.2871609679531417 $431 $521 forward 7 unknown #
coedge $-1 $299 $298 $438 $522 reversed $116 $-1 #
edge $-1 $523 1.830693040787162e-014 $435 14.967604244971831 $429 $524 forward 7 unknown #
vertex $-1 $301 $525 #
straight-curve $-1 -59.85550279688546 15.780121681905239 14.640914905346104 0 1 0 I I #
coedge $-1 $518 $302 $305 $442 reversed $427 $-1 #
coedge $-1 $302 $518 $433 $522 forward $427 $-1 #
vertex $-1 $303 $526 #
straight-curve $-1 -71.650135807367178 27.508805836057476 59.174045820506436 0 0 1 I I #
straight-curve $-1 -71.650135807367192 27.508805836057476 5.4259374782357668 -0.78801074757464917 0 -0.61566148304635926 I I #
edge $-1 $520 -35.611680891563481 $306 -27.508805836057476 $437 $527 forward 7 unknown #
point $-1 -71.650135807367178 27.508805836057476 14.640914905346106 #
point $-1 -59.855502796885446 27.508805836057476 14.640914905346106 #
edge $-1 $528 1 $528 0 $309 $-1 forward 7 unknown #
vertex $-1 $310 $529 #
ellipse-curve $-1 -64.536010893229957 31.560243363810478 8.4759824822949241 -0.61566148304635926 0 0.78801074757464917 0.39400537378732459 0 0.30783074152317963 1 I I #
point $-1 -65.358813928338975 31.560243363810478 10.34125693331411 #
plane-surface $-1 71.650135807367178 0 0 -1 0 0 0 0 1 forward_v I I I I #
coedge $-1 $318 $316 $320 $454 reversed $201 $-1 #
edge $-1 $331 -14.640914905346106 $456 14.640914905346106 $330 $530 forward 7 unknown #
vertex $-1 $454 $531 #
straight-curve $-1 -71.650135807367178 -42.617694078554813 0 0 0 -1 I I #
edge $-1 $452 -42.617694078554813 $456 42.617694078554813 $450 $532 forward 7 unknown #
straight-curve $-1 0 -42.617694078554813 -14.640914905346106 -1 0 0 I I #
vertex $-1 $323 $533 #
straight-curve $-1 0 42.617694078554813 -14.640914905346106 1 0 0 I I #
point $-1 71.650135807367178 42.617694078554813 -14.640914905346106 #
point $-1 71.650135807367178 -42.617694078554813 -14.640914905346106 #
straight-curve $-1 -71.650135807367178 0 14.640914905346106 0 -1 0 I I #
point $-1 -71.650135807367178 42.617694078554813 14.640914905346106 #
point $-1 -71.650135807367178 -42.617694078554813 14.640914905346106 #
straight-curve $-1 71.650135807367178 -42.617694078554813 0 0 0 -1 I I #
straight-curve $-1 71.650135807367178 42.617694078554813 0 0 0 -1 I I #
loop $-1 $-1 $473 $340 #
plane-surface $-1 -71.650135807367178 0 0 1 0 0 0 0 -1 forward_v I I I I #
coedge $-1 $344 $343 $479 $534 forward $133 $-1 #
edge $-1 $348 26.101498121506033 $482 42.617694078554813 $347 $535 forward 7 unknown #
coedge $-1 $476 $473 $344 $470 reversed $465 $-1 #
edge $-1 $536 -42.617694078554813 $471 -26.101498121506033 $469 $537 forward 7 unknown #
vertex $-1 $474 $538 #
straight-curve $-1 0 -26.101498121506033 -14.640914905346106 1 0 0 I I #
coedge $-1 $469 $350 $346 $474 forward $465 $-1 #
edge $-1 $352 2.9417886165826275 $471 8.7800137313698627 $473 $539 forward 7 unknown #
point $-1 71.650135807367178 -26.101498121506033 -14.640914905346108 #
coedge $-1 $350 $469 $354 $480 reversed $465 $-1 #
straight-curve $-1 -71.650135807367178 -17.179798050015211 -8.8026897905588726 0 1 0 I I #
point $-1 -71.650135807367178 -26.101498121506033 -8.8026897905588726 #
coedge $-1 $355 $354 $467 $534 reversed $341 $-1 #
edge $-1 $356 8.8026897905588726 $536 14.640914905346106 $476 $540 forward 7 unknown #
point $-1 -71.650135807367178 -42.617694078554813 -8.8026897905588726 #
vertex $-1 $358 $541 #
straight-curve $-1 71.650135807367178 -42.617694078554813 0 0 0 -1 I I #
edge $-1 $485 88.645359786797059 $488 97.860337213907385 $362 $542 forward 7 unknown #
vertex $-1 $376 $543 #
straight-curve $-1 23.476219693931768 -6.8507902639729465 14.640914905346108 1 0 0 I I #
edge $-1 $488 -5.4511138958629743 $373 2.6517611596430299 $372 $544 forward 7 unknown #
vertex $-1 $487 $545 #
straight-curve $-1 -41.272018355409912 -6.8507902639729465 93.650395221509228 -0.78801074757464917 0 0.61566148304635926 I I #
point $-1 59.855502796885446 -6.8507902639729465 14.640914905346108 #
point $-1 71.650135807367192 1.2520847915330577 5.425937478235781 #
straight-curve $-1 71.650135807367178 0 14.640914905346106 0 1 0 I I #
vertex $-1 $379 $546 #
point $-1 64.930016267017265 -2.7993527362199444 8.1681517407717266 #
edge $-1 $496 88.645359786797059 $499 97.860337213907385 $384 $547 forward 7 unknown #
vertex $-1 $398 $548 #
straight-curve $-1 23.476219693931768 27.508805836057476 14.640914905346108 1 0 0 I I #
edge $-1 $499 11.728684154152237 $395 19.831559209658241 $394 $549 forward 7 unknown #
vertex $-1 $498 $550 #
straight-curve $-1 -41.272018355409912 27.508805836057476 93.650395221509228 -0.78801074757464917 0 0.61566148304635926 I I #
point $-1 59.855502796885446 27.508805836057476 14.640914905346108 #
point $-1 71.650135807367192 35.611680891563481 5.425937478235781 #
straight-curve $-1 71.650135807367178 0 14.640914905346106 0 1 0 I I #
vertex $-1 $401 $551 #
point $-1 64.930016267017265 31.560243363810478 8.1681517407717266 #
coedge $-1 $416 $415 $408 $507 forward $405 $-1 #
edge $-1 $508 44.533130915160328 $511 53.748108342270655 $506 $552 forward 7 unknown #
vertex $-1 $420 $553 #
straight-curve $-1 -79.93729677532032 1.2520847915330577 14.640914905346108 -1 0 0 I I #
edge $-1 $511 -2.6517611596430299 $417 5.4511138958629743 $416 $554 forward 7 unknown #
vertex $-1 $510 $555 #
straight-curve $-1 -71.650135807367192 1.2520847915330577 5.4259374782357668 0.78801074757464917 0 0.61566148304635926 I I #
point $-1 -59.855502796885446 1.2520847915330577 14.640914905346106 #
point $-1 -71.650135807367178 -6.8507902639729465 5.4259374782357783 #
straight-curve $-1 -71.650135807367178 0 14.640914905346106 0 -1 0 I I #
vertex $-1 $423 $556 #
point $-1 -64.14200551944262 -2.7993527362199444 8.7838132238181021 #
coedge $-1 $438 $437 $430 $519 forward $427 $-1 #
edge $-1 $520 44.533130915160328 $523 53.748108342270655 $518 $557 forward 7 unknown #
vertex $-1 $442 $558 #
straight-curve $-1 -79.93729677532032 35.611680891563481 14.640914905346108 -1 0 0 I I #
edge $-1 $523 -19.831559209658241 $439 -11.728684154152237 $438 $559 forward 7 unknown #
vertex $-1 $522 $560 #
straight-curve $-1 -71.650135807367192 35.611680891563481 5.4259374782357668 0.78801074757464917 0 0.61566148304635926 I I #
point $-1 -59.855502796885446 35.611680891563481 14.640914905346106 #
point $-1 -71.650135807367178 27.508805836057476 5.4259374782357783 #
straight-curve $-1 -71.650135807367178 0 14.640914905346106 0 -1 0 I I #
vertex $-1 $445 $561 #
point $-1 -64.14200551944262 31.560243363810478 8.7838132238181021 #
straight-curve $-1 -71.650135807367178 42.617694078554813 0 0 0 -1 I I #
point $-1 -71.650135807367178 -42.617694078554813 -14.640914905346106 #
straight-curve $-1 -71.650135807367178 0 -14.640914905346106 0 1 0 I I #
point $-1 -71.650135807367178 42.617694078554813 -14.640914905346106 #
edge $-1 $482 -71.650135807367178 $536 71.650135807367178 $479 $562 forward 7 unknown #
straight-curve $-1 71.650135807367178 0 -14.640914905346106 0 -1 0 I I #
vertex $-1 $470 $563 #
straight-curve $-1 -71.650135807367178 0 -14.640914905346106 0 1 0 I I #
point $-1 -71.650135807367178 -26.101498121506033 -14.640914905346108 #
straight-curve $-1 -71.650135807367178 -26.101498121506033 -5.8609011739762451 0 0 -1 I I #
straight-curve $-1 -71.650135807367178 -42.617694078554813 0 0 0 -1 I I #
point $-1 71.650135807367178 -42.617694078554813 -14.640914905346106 #
straight-curve $-1 71.650135807367178 -6.8507902639729465 103.28627469214317 0 0 -1 I I #
point $-1 71.650135807367178 -6.8507902639729465 14.640914905346106 #
straight-curve $-1 71.650135807367178 -1.3996763681099722 5.4259374782357739 0 1 0 I I #
point $-1 71.650135807367192 -6.8507902639729465 5.425937478235781 #
point $-1 64.228180151706752 -2.7993527362199444 8.08197710850758 #
straight-curve $-1 71.650135807367178 27.508805836057476 103.28627469214317 0 0 -1 I I #
point $-1 71.650135807367178 27.508805836057476 14.640914905346106 #
straight-curve $-1 71.650135807367178 15.780121681905239 5.4259374782357739 0 1 0 I I #
point $-1 71.650135807367192 27.508805836057476 5.425937478235781 #
point $-1 64.228180151706752 31.560243363810478 8.08197710850758 #
straight-curve $-1 -71.650135807367178 1.2520847915330577 59.174045820506436 0 0 -1 I I #
point $-1 -71.650135807367178 1.2520847915330577 14.640914905346106 #
straight-curve $-1 -71.650135807367178 -1.3996763681099722 5.4259374782357721 0 -1 0 I I #
point $-1 -71.650135807367178 1.2520847915330577 5.4259374782357783 #
point $-1 -64.228180151706766 -2.7993527362199444 8.0819771085075978 #
straight-curve $-1 -71.650135807367178 35.611680891563481 59.174045820506436 0 0 -1 I I #
point $-1 -71.650135807367178 35.611680891563481 14.640914905346106 #
straight-curve $-1 -71.650135807367178 15.780121681905239 5.4259374782357721 0 -1 0 I I #
point $-1 -71.650135807367178 35.611680891563481 5.4259374782357783 #
point $-1 -64.228180151706766 31.560243363810478 8.0819771085075978 #
straight-curve $-1 0 -42.617694078554813 -14.640914905346106 -1 0 0 I I #
point $-1 -71.650135807367178 -42.617694078554813 -14.640914905346106 #
End-of-ACIS-data 