500 0 6 0           
7 Unknown 11 ACIS 5.0 NT 24 Fri Mar 26 15:32:22 1999 
-1 9.9999999999999995e-007 1e-010 
body $-1 $6 $-1 $7 #
body $-1 $8 $-1 $9 #
body $-1 $10 $-1 $11 #
body $-1 $12 $-1 $13 #
body $-1 $14 $-1 $15 #
body $-1 $16 $-1 $17 #
lump $-1 $-1 $18 $0 #
transform $-1 1 0 0 0 1 0 0 0 1 61.428876613666191 37.193837804869318 12.480316393956043 1 rotate no_reflect no_shear #
lump $-1 $-1 $19 $1 #
transform $-1 1 0 0 0 1 0 0 0 1 61.428876613666191 37.193837804869318 12.480316393956043 1 rotate no_reflect no_shear #
lump $-1 $-1 $20 $2 #
transform $-1 1 0 0 0 1 0 0 0 1 61.428876613666191 37.193837804869318 12.480316393956043 1 rotate no_reflect no_shear #
lump $-1 $-1 $21 $3 #
transform $-1 1 0 0 0 1 0 0 0 1 61.428876613666191 37.193837804869318 12.480316393956043 1 rotate no_reflect no_shear #
lump $-1 $-1 $22 $4 #
transform $-1 1 0 0 0 1 0 0 0 1 61.428876613666191 37.193837804869318 12.480316393956043 1 rotate no_reflect no_shear #
lump $-1 $-1 $23 $5 #
transform $-1 1 0 0 0 1 0 0 0 1 61.428876613666191 37.193837804869318 12.480316393956043 1 rotate no_reflect no_shear #
shell $-1 $-1 $-1 $24 $-1 $6 #
shell $-1 $-1 $-1 $25 $-1 $8 #
shell $-1 $-1 $-1 $26 $-1 $10 #
shell $-1 $-1 $-1 $27 $-1 $12 #
shell $-1 $-1 $-1 $28 $-1 $14 #
shell $-1 $-1 $-1 $29 $-1 $16 #
face $-1 $30 $31 $18 $-1 $32 forward single #
face $-1 $33 $34 $19 $-1 $35 forward single #
face $-1 $36 $37 $20 $-1 $38 reversed single #
face $-1 $39 $40 $21 $-1 $41 forward single #
face $-1 $42 $43 $22 $-1 $44 forward single #
face $-1 $45 $46 $23 $-1 $47 forward single #
face $-1 $48 $49 $18 $-1 $50 reversed single #
loop $-1 $-1 $51 $24 #
plane-surface $-1 0 0 12.480316393956043 0 0 1 1 0 0 forward_v I I I I #
face $-1 $52 $53 $19 $-1 $54 reversed single #
loop $-1 $-1 $55 $25 #
plane-surface $-1 -61.428876613666191 0 0 1 0 0 0 0 -1 forward_v I I I I #
face $-1 $56 $57 $20 $-1 $58 reversed single #
loop $-1 $-1 $59 $26 #
plane-surface $-1 100.51347267227858 21.850684461309683 171.40344282509199 0 1 0 0.84804810408105047 0 0.52991925155115449 forward_v I I I I #
face $-1 $60 $61 $21 $-1 $62 forward single #
loop $-1 $63 $64 $27 #
cone-surface $-1 55.666066287018992 24.919315130021609 5.7185986658751737 -0.84804810408105047 0 -0.52991925155115449 0.79487887732673168 0 -1.2720721561215758 1 I I 0 1 1.5 forward I I I I #
face $-1 $65 $66 $22 $-1 $67 forward single #
loop $-1 $68 $69 $28 #
cone-surface $-1 55.666066287018992 29.522261133089501 5.7185986658751737 -0.84804810408105047 0 -0.52991925155115449 0.79487887732673168 0 -1.2720721561215758 1 I I 0 1 1.5 forward I I I I #
face $-1 $70 $71 $23 $-1 $72 forward single #
loop $-1 $73 $74 $29 #
cone-surface $-1 55.666066287018992 34.125207136157385 5.7185986658751737 -0.84804810408105047 0 -0.52991925155115449 0.79487887732673168 0 -1.2720721561215758 1 I I 0 1 1.5 forward I I I I #
face $-1 $75 $76 $18 $-1 $77 reversed single #
loop $-1 $-1 $78 $30 #
plane-surface $-1 0 0 -12.480316393956043 0 0 1 1 0 0 forward_v I I I I #
coedge $-1 $79 $80 $81 $82 forward $31 $-1 #
face $-1 $83 $84 $19 $-1 $85 forward single #
loop $-1 $-1 $86 $33 #
plane-surface $-1 0 37.193837804869318 0 0 -1 0 0 0 -1 forward_v I I I I #
coedge $-1 $87 $88 $89 $90 forward $34 $-1 #
face $-1 $91 $92 $20 $-1 $93 forward single #
loop $-1 $-1 $94 $36 #
plane-surface $-1 -3.6758120238182102 29.522261133089501 106.29875418760757 0.84804810408105047 0 0.52991925155115449 0.52991925155115449 0 -0.84804810408105047 forward_v I I I I #
coedge $-1 $95 $96 $97 $98 reversed $37 $-1 #
face $-1 $-1 $99 $21 $-1 $100 forward single #
loop $-1 $101 $102 $39 #
cone-surface $-1 52.507431965828715 24.919315130021609 3.7448649503535751 -0.84804810408105047 0 -0.52991925155115449 0.39743943866336584 0 -0.63603607806078788 1 I I -0.70710678118654757 0.70710678118654757 0.75 forward I I I I #
loop $-1 $-1 $103 $27 #
coedge $-1 $64 $64 $104 $105 reversed $40 $-1 #
face $-1 $-1 $106 $22 $-1 $107 forward single #
loop $-1 $108 $109 $42 #
cone-surface $-1 52.507431965828715 29.522261133089501 3.7448649503535751 -0.84804810408105047 0 -0.52991925155115449 0.39743943866336584 0 -0.63603607806078788 1 I I -0.70710678118654757 0.70710678118654757 0.75 forward I I I I #
loop $-1 $-1 $110 $28 #
coedge $-1 $69 $69 $111 $112 reversed $43 $-1 #
face $-1 $-1 $113 $23 $-1 $114 forward single #
loop $-1 $115 $116 $45 #
cone-surface $-1 52.507431965828715 34.125207136157385 3.7448649503535751 -0.84804810408105047 0 -0.52991925155115449 0.39743943866336584 0 -0.63603607806078788 1 I I -0.70710678118654757 0.70710678118654757 0.75 forward I I I I #
loop $-1 $-1 $117 $29 #
coedge $-1 $74 $74 $118 $119 reversed $46 $-1 #
face $-1 $120 $121 $18 $-1 $122 reversed single #
loop $-1 $-1 $123 $48 #
plane-surface $-1 0 -37.193837804869318 0 0 1 0 0 0 1 forward_v I I I I #
coedge $-1 $124 $125 $126 $127 forward $49 $-1 #
coedge $-1 $128 $51 $129 $130 forward $31 $-1 #
coedge $-1 $51 $128 $131 $132 forward $31 $-1 #
coedge $-1 $133 $134 $51 $82 reversed $135 $-1 #
edge $-1 $136 -37.193837804869318 $137 37.193837804869318 $81 $138 forward 7 unknown #
face $-1 $139 $140 $19 $-1 $141 reversed single #
loop $-1 $-1 $89 $52 #
plane-surface $-1 -67.27851787596228 0 -5.2846428999560926 0 0 1 1 0 0 forward_v I I I I #
coedge $-1 $142 $143 $88 $144 forward $53 $-1 #
coedge $-1 $145 $55 $146 $147 reversed $34 $-1 #
coedge $-1 $55 $145 $86 $144 reversed $34 $-1 #
coedge $-1 $148 $149 $55 $90 reversed $84 $-1 #
edge $-1 $150 -37.193837804869318 $151 37.193837804869318 $89 $152 forward 7 unknown #
face $-1 $153 $154 $20 $-1 $155 reversed single #
loop $-1 $-1 $156 $56 #
plane-surface $-1 0 0 12.480316393956043 0 0 1 1 0 0 forward_v I I I I #
coedge $-1 $157 $158 $159 $160 reversed $57 $-1 #
coedge $-1 $96 $59 $161 $162 reversed $37 $-1 #
coedge $-1 $59 $95 $157 $163 reversed $37 $-1 #
coedge $-1 $159 $164 $59 $98 forward $154 $-1 #
edge $-1 $165 73.221405018589948 $166 83.592251921035199 $97 $167 forward 7 unknown #
loop $-1 $-1 $104 $60 #
plane-surface $-1 -3.6758120238182102 29.522261133089501 106.29875418760757 0.84804810408105047 0 0.52991925155115449 0.52991925155115449 0 -0.84804810408105047 forward_v I I I I #
loop $-1 $-1 $168 $39 #
coedge $-1 $102 $102 $103 $169 reversed $61 $-1 #
coedge $-1 $103 $103 $102 $169 forward $63 $-1 #
coedge $-1 $104 $104 $64 $105 forward $99 $-1 #
edge $-1 $170 0 $170 6.2831853071796004 $104 $171 forward 7 unknown #
loop $-1 $-1 $111 $65 #
plane-surface $-1 -3.6758120238182102 29.522261133089501 106.29875418760757 0.84804810408105047 0 0.52991925155115449 0.52991925155115449 0 -0.84804810408105047 forward_v I I I I #
loop $-1 $-1 $172 $42 #
coedge $-1 $109 $109 $110 $173 reversed $66 $-1 #
coedge $-1 $110 $110 $109 $173 forward $68 $-1 #
coedge $-1 $111 $111 $69 $112 forward $106 $-1 #
edge $-1 $174 0 $174 6.2831853071796004 $111 $175 forward 7 unknown #
loop $-1 $-1 $118 $70 #
plane-surface $-1 -3.6758120238182102 29.522261133089501 106.29875418760757 0.84804810408105047 0 0.52991925155115449 0.52991925155115449 0 -0.84804810408105047 forward_v I I I I #
loop $-1 $-1 $176 $45 #
coedge $-1 $116 $116 $117 $177 reversed $71 $-1 #
coedge $-1 $117 $117 $116 $177 forward $73 $-1 #
coedge $-1 $118 $118 $74 $119 forward $113 $-1 #
edge $-1 $178 0 $178 6.2831853071796004 $118 $179 forward 7 unknown #
face $-1 $180 $181 $18 $-1 $182 reversed single #
loop $-1 $-1 $183 $75 #
plane-surface $-1 -61.428876613666191 0 0 1 0 0 0 0 -1 forward_v I I I I #
coedge $-1 $184 $131 $183 $185 forward $76 $-1 #
coedge $-1 $186 $78 $184 $187 forward $49 $-1 #
coedge $-1 $78 $186 $188 $189 forward $49 $-1 #
coedge $-1 $134 $133 $78 $127 reversed $135 $-1 #
edge $-1 $190 -37.193837804869318 $191 37.193837804869318 $126 $192 forward 7 unknown #
coedge $-1 $80 $79 $193 $194 forward $31 $-1 #
coedge $-1 $195 $196 $79 $130 reversed $181 $-1 #
edge $-1 $137 -61.428876613666191 $197 61.428876613666191 $129 $198 forward 7 unknown #
coedge $-1 $123 $199 $80 $132 reversed $76 $-1 #
edge $-1 $200 -61.428876613666191 $136 61.428876613666191 $131 $201 forward 7 unknown #
coedge $-1 $126 $81 $199 $202 forward $135 $-1 #
coedge $-1 $81 $126 $195 $203 reversed $135 $-1 #
loop $-1 $-1 $133 $180 #
vertex $-1 $82 $204 #
vertex $-1 $82 $205 #
straight-curve $-1 61.428876613666191 0 12.480316393956043 0 1 0 I I #
face $-1 $206 $207 $19 $-1 $208 reversed single #
loop $-1 $-1 $209 $83 #
plane-surface $-1 -73.128159138258354 0 -8.8824796469560674 1 0 0 0 0 -1 forward_v I I I I #
coedge $-1 $210 $86 $211 $212 reversed $53 $-1 #
coedge $-1 $86 $210 $148 $213 reversed $53 $-1 #
edge $-1 $150 5.2846428999560926 $214 12.480316393956043 $86 $215 forward 7 unknown #
coedge $-1 $88 $87 $216 $217 reversed $34 $-1 #
coedge $-1 $218 $219 $87 $147 forward $220 $-1 #
edge $-1 $221 -12.480316393956043 $151 -5.2846428999560926 $146 $222 forward 7 unknown #
coedge $-1 $223 $89 $143 $213 forward $84 $-1 #
coedge $-1 $89 $223 $218 $224 forward $84 $-1 #
vertex $-1 $144 $225 #
vertex $-1 $224 $226 #
straight-curve $-1 -61.428876613666191 0 -5.2846428999560926 0 -1 0 I I #
face $-1 $-1 $227 $20 $-1 $228 reversed single #
loop $-1 $-1 $97 $91 #
plane-surface $-1 61.428876613666191 0 0 -1 0 0 0 0 1 forward_v I I I I #
coedge $-1 $161 $229 $230 $231 forward $92 $-1 #
coedge $-1 $230 $94 $96 $163 forward $57 $-1 #
coedge $-1 $94 $230 $232 $233 reversed $57 $-1 #
coedge $-1 $234 $97 $94 $160 forward $154 $-1 #
edge $-1 $166 7.0895538947649328 $235 22.432707238324568 $159 $236 forward 7 unknown #
coedge $-1 $237 $156 $95 $162 forward $92 $-1 #
edge $-1 $238 4.6917161104914982 $165 11.1721402775269 $161 $239 forward 7 unknown #
edge $-1 $166 -122.85775322733235 $238 -110.62867464966942 $96 $240 forward 7 unknown #
coedge $-1 $97 $234 $237 $241 reversed $154 $-1 #
vertex $-1 $241 $242 #
vertex $-1 $98 $243 #
straight-curve $-1 61.428876613666191 21.850684461309683 85.701721412545993 0 0 -1 I I #
coedge $-1 $168 $168 $-1 $244 reversed $101 $-1 #
edge $-1 $245 0 $245 6.2831853071796004 $102 $246 forward 7 unknown #
vertex $-1 $105 $247 #
ellipse-curve $-1 58.188664530148493 24.919315130021609 7.2948929427334139 0.84804810408105047 0 0.52991925155115449 0.79487887732673168 0 -1.2720721561215758 1 I I #
coedge $-1 $172 $172 $-1 $248 reversed $108 $-1 #
edge $-1 $249 0 $249 6.2831853071796004 $109 $250 forward 7 unknown #
vertex $-1 $112 $251 #
ellipse-curve $-1 58.188664530148493 29.522261133089501 7.2948929427334139 0.84804810408105047 0 0.52991925155115449 0.79487887732673168 0 -1.2720721561215758 1 I I #
coedge $-1 $176 $176 $-1 $252 reversed $115 $-1 #
edge $-1 $253 0 $253 6.2831853071796004 $116 $254 forward 7 unknown #
vertex $-1 $119 $255 #
ellipse-curve $-1 58.188664530148493 34.125207136157385 7.2948929427334139 0.84804810408105047 0 0.52991925155115449 0.79487887732673168 0 -1.2720721561215758 1 I I #
face $-1 $-1 $135 $18 $-1 $256 reversed single #
loop $-1 $-1 $195 $120 #
plane-surface $-1 0 37.193837804869318 0 0 -1 0 0 0 -1 forward_v I I I I #
coedge $-1 $193 $257 $123 $185 reversed $121 $-1 #
coedge $-1 $199 $123 $124 $187 reversed $76 $-1 #
edge $-1 $200 -12.480316393956043 $258 12.480316393956043 $183 $259 forward 7 unknown #
coedge $-1 $125 $124 $257 $260 forward $49 $-1 #
edge $-1 $191 -61.428876613666191 $258 61.428876613666191 $184 $261 forward 7 unknown #
coedge $-1 $196 $195 $125 $189 reversed $181 $-1 #
edge $-1 $262 -61.428876613666191 $190 61.428876613666191 $188 $263 forward 7 unknown #
vertex $-1 $127 $264 #
vertex $-1 $202 $265 #
straight-curve $-1 61.428876613666191 0 -12.480316393956043 0 -1 0 I I #
coedge $-1 $266 $183 $128 $194 reversed $121 $-1 #
edge $-1 $197 -37.193837804869318 $200 37.193837804869318 $193 $267 forward 7 unknown #
coedge $-1 $188 $129 $134 $203 forward $181 $-1 #
coedge $-1 $129 $188 $266 $268 reversed $181 $-1 #
vertex $-1 $130 $269 #
straight-curve $-1 0 37.193837804869318 12.480316393956043 -1 0 0 I I #
coedge $-1 $131 $184 $133 $202 reversed $76 $-1 #
vertex $-1 $194 $270 #
straight-curve $-1 0 -37.193837804869318 12.480316393956043 1 0 0 I I #
edge $-1 $136 -12.480316393956043 $191 12.480316393956043 $133 $271 forward 7 unknown #
edge $-1 $137 -12.480316393956043 $190 12.480316393956043 $134 $272 forward 7 unknown #
point $-1 61.428876613666191 -37.193837804869318 12.480316393956043 #
point $-1 61.428876613666191 37.193837804869318 12.480316393956043 #
face $-1 $-1 $220 $19 $-1 $273 reversed single #
loop $-1 $-1 $216 $139 #
plane-surface $-1 0 0 -12.480316393956043 0 0 1 1 0 0 forward_v I I I I #
coedge $-1 $274 $275 $210 $276 forward $140 $-1 #
coedge $-1 $143 $142 $209 $276 reversed $53 $-1 #
coedge $-1 $216 $277 $142 $212 forward $207 $-1 #
edge $-1 $278 -73.128159138258354 $214 -61.428876613666191 $142 $279 forward 7 unknown #
edge $-1 $150 -5.8496412622960818 $280 5.8496412622960747 $143 $281 forward 7 unknown #
vertex $-1 $144 $282 #
straight-curve $-1 -61.428876613666191 37.193837804869318 0 0 0 -1 I I #
coedge $-1 $283 $211 $145 $217 forward $207 $-1 #
edge $-1 $214 -37.193837804869318 $221 37.193837804869318 $216 $284 forward 7 unknown #
coedge $-1 $285 $146 $149 $224 reversed $220 $-1 #
coedge $-1 $146 $285 $283 $286 reversed $220 $-1 #
loop $-1 $-1 $146 $206 #
vertex $-1 $286 $287 #
straight-curve $-1 -61.428876613666191 -37.193837804869318 0 0 0 1 I I #
coedge $-1 $149 $148 $275 $288 forward $84 $-1 #
edge $-1 $289 -5.8496412622960747 $151 5.8496412622960818 $218 $290 forward 7 unknown #
point $-1 -61.428876613666198 37.193837804869318 -5.2846428999560926 #
point $-1 -61.428876613666198 -37.193837804869318 -5.2846428999560926 #
loop $-1 $-1 $232 $153 #
plane-surface $-1 0 37.193837804869318 0 0 -1 0 0 0 -1 forward_v I I I I #
coedge $-1 $156 $237 $291 $292 forward $92 $-1 #
coedge $-1 $158 $157 $156 $231 reversed $57 $-1 #
edge $-1 $293 -22.432707238324568 $238 -7.0895538947649328 $156 $294 forward 7 unknown #
coedge $-1 $291 $295 $158 $233 forward $227 $-1 #
edge $-1 $235 -76.810582971591003 $293 -64.581504393928071 $232 $296 forward 7 unknown #
coedge $-1 $164 $159 $295 $297 reversed $154 $-1 #
vertex $-1 $160 $298 #
straight-curve $-1 61.428876613666191 14.76113056654475 2.1094694915108079 0 1 0 I I #
coedge $-1 $229 $161 $164 $241 forward $92 $-1 #
vertex $-1 $162 $299 #
straight-curve $-1 50.256736336139291 21.850684461309683 12.480316393956045 1 0 0 I I #
straight-curve $-1 -3.6758120238182102 21.850684461309683 106.29875418760757 -0.52991925155115449 0 0.84804810408105047 I I #
edge $-1 $165 21.850684461309683 $300 37.193837804869318 $164 $301 forward 7 unknown #
point $-1 61.428876613666191 21.850684461309683 12.480316393956043 #
point $-1 61.428876613666191 21.850684461309683 2.1094694915107937 #
edge $-1 $302 1 $302 0 $168 $-1 forward 7 unknown #
vertex $-1 $169 $303 #
ellipse-curve $-1 53.143468043889506 24.919315130021609 4.1423043890169406 0.84804810408105047 0 0.52991925155115449 0.79487887732673168 0 -1.2720721561215758 1 I I #
point $-1 58.98354340747521 24.919315130021609 6.0228207866118302 #
edge $-1 $304 1 $304 0 $172 $-1 forward 7 unknown #
vertex $-1 $173 $305 #
ellipse-curve $-1 53.143468043889506 29.522261133089501 4.1423043890169406 0.84804810408105047 0 0.52991925155115449 0.79487887732673168 0 -1.2720721561215758 1 I I #
point $-1 58.98354340747521 29.522261133089501 6.0228207866118302 #
edge $-1 $306 1 $306 0 $176 $-1 forward 7 unknown #
vertex $-1 $177 $307 #
ellipse-curve $-1 53.143468043889506 34.125207136157385 4.1423043890169406 0.84804810408105047 0 0.52991925155115449 0.79487887732673168 0 -1.2720721561215758 1 I I #
point $-1 58.98354340747521 34.125207136157385 6.0228207866118302 #
plane-surface $-1 61.428876613666191 0 0 -1 0 0 0 0 1 forward_v I I I I #
coedge $-1 $183 $266 $186 $260 reversed $121 $-1 #
vertex $-1 $260 $308 #
straight-curve $-1 -61.428876613666191 -37.193837804869318 0 0 0 -1 I I #
edge $-1 $258 -37.193837804869318 $262 37.193837804869318 $257 $309 forward 7 unknown #
straight-curve $-1 0 -37.193837804869318 -12.480316393956043 -1 0 0 I I #
vertex $-1 $189 $310 #
straight-curve $-1 0 37.193837804869318 -12.480316393956043 1 0 0 I I #
point $-1 61.428876613666191 37.193837804869318 -12.480316393956043 #
point $-1 61.428876613666191 -37.193837804869318 -12.480316393956043 #
coedge $-1 $257 $193 $196 $268 forward $121 $-1 #
straight-curve $-1 -61.428876613666191 0 12.480316393956043 0 -1 0 I I #
edge $-1 $197 -12.480316393956043 $262 12.480316393956043 $196 $311 forward 7 unknown #
point $-1 -61.428876613666191 37.193837804869318 12.480316393956043 #
point $-1 -61.428876613666191 -37.193837804869318 12.480316393956043 #
straight-curve $-1 61.428876613666191 -37.193837804869318 0 0 0 -1 I I #
straight-curve $-1 61.428876613666191 37.193837804869318 0 0 0 -1 I I #
plane-surface $-1 0 -37.193837804869318 0 0 1 0 0 0 1 forward_v I I I I #
coedge $-1 $312 $209 $277 $313 reversed $140 $-1 #
coedge $-1 $209 $312 $223 $288 reversed $140 $-1 #
edge $-1 $280 -3.5978367469999748 $278 3.5978367469999739 $210 $314 forward 7 unknown #
coedge $-1 $211 $283 $274 $313 forward $207 $-1 #
vertex $-1 $212 $315 #
straight-curve $-1 0 37.193837804869318 -12.480316393956043 1 0 0 I I #
vertex $-1 $213 $316 #
straight-curve $-1 -67.27851787596228 37.193837804869318 -5.2846428999560926 -1 0 0 I I #
point $-1 -61.428876613666191 37.193837804869318 -12.480316393956043 #
coedge $-1 $277 $216 $219 $286 forward $207 $-1 #
straight-curve $-1 -61.428876613666191 0 -12.480316393956043 0 -1 0 I I #
coedge $-1 $219 $218 $312 $317 forward $220 $-1 #
edge $-1 $221 -5.8496412622960889 $318 5.8496412622960747 $219 $319 forward 7 unknown #
point $-1 -61.428876613666191 -37.193837804869318 -12.480316393956043 #
edge $-1 $280 -37.193837804869318 $289 37.193837804869318 $275 $320 forward 7 unknown #
vertex $-1 $288 $321 #
straight-curve $-1 -67.27851787596228 -37.193837804869318 -5.2846428999560926 1 0 0 I I #
coedge $-1 $295 $232 $229 $292 reversed $227 $-1 #
edge $-1 $300 -61.428876613666191 $293 -54.948452446630789 $291 $322 forward 7 unknown #
vertex $-1 $233 $323 #
straight-curve $-1 54.948452446630796 14.76113056654475 12.480316393956045 0 -1 0 I I #
coedge $-1 $232 $291 $234 $297 forward $227 $-1 #
straight-curve $-1 20.725469974152833 37.193837804869318 67.24853875392877 -0.52991925155115449 0 0.84804810408105047 I I #
edge $-1 $300 -12.480316393956043 $235 -2.1094694915108034 $234 $324 forward 7 unknown #
point $-1 61.428876613666191 37.193837804869318 2.1094694915108034 #
point $-1 54.948452446630789 21.850684461309683 12.480316393956045 #
vertex $-1 $241 $325 #
straight-curve $-1 61.428876613666191 0 12.480316393956043 0 1 0 I I #
vertex $-1 $244 $326 #
point $-1 53.938346921216237 24.919315130021609 2.8702322328953653 #
vertex $-1 $248 $327 #
point $-1 53.938346921216237 29.522261133089501 2.8702322328953653 #
vertex $-1 $252 $328 #
point $-1 53.938346921216237 34.125207136157385 2.8702322328953653 #
point $-1 -61.428876613666191 -37.193837804869318 -12.480316393956043 #
straight-curve $-1 -61.428876613666191 0 -12.480316393956043 0 1 0 I I #
point $-1 -61.428876613666191 37.193837804869318 -12.480316393956043 #
straight-curve $-1 -61.428876613666191 37.193837804869318 0 0 0 -1 I I #
coedge $-1 $275 $274 $285 $317 reversed $140 $-1 #
edge $-1 $318 -37.193837804869318 $278 37.193837804869318 $274 $329 forward 7 unknown #
straight-curve $-1 -73.128159138258354 37.193837804869318 -8.8824796469560674 0 0 -1 I I #
point $-1 -73.128159138258354 37.193837804869318 -12.480316393956041 #
point $-1 -73.128159138258354 37.193837804869318 -5.2846428999560926 #
edge $-1 $289 -3.5978367469999748 $318 3.5978367469999739 $312 $330 forward 7 unknown #
vertex $-1 $313 $331 #
straight-curve $-1 -67.27851787596228 -37.193837804869318 -12.480316393956041 -1 0 0 I I #
straight-curve $-1 -73.128159138258354 0 -5.2846428999560926 0 -1 0 I I #
point $-1 -73.128159138258354 -37.193837804869318 -5.2846428999560926 #
straight-curve $-1 0 37.193837804869318 12.480316393956043 -1 0 0 I I #
point $-1 54.948452446630789 37.193837804869318 12.480316393956045 #
straight-curve $-1 61.428876613666191 37.193837804869318 0 0 0 -1 I I #
point $-1 61.428876613666191 37.193837804869318 12.480316393956043 #
point $-1 51.871395887767925 24.919315130021609 3.3474255116902092 #
point $-1 51.871395887767925 29.522261133089501 3.3474255116902092 #
point $-1 51.871395887767925 34.125207136157385 3.3474255116902092 #
straight-curve $-1 -73.128159138258354 0 -12.480316393956041 0 1 0 I I #
straight-curve $-1 -73.128159138258354 -37.193837804869318 -8.8824796469560674 0 0 -1 I I #
point $-1 -73.128159138258354 -37.193837804869318 -12.480316393956041 #
End-of-ACIS-data 