500 0 4 0           
7 Unknown 11 ACIS 5.0 NT 24 Fri Mar 26 02:17:15 1999 
-1 9.9999999999999995e-007 1e-010 
body $-1 $4 $-1 $5 #
body $-1 $6 $-1 $7 #
body $-1 $8 $-1 $9 #
body $-1 $10 $-1 $11 #
lump $-1 $-1 $12 $0 #
transform $-1 1 0 0 0 1 0 0 0 1 60.733054597613453 27.233030118633831 12.313747802291294 1 rotate no_reflect no_shear #
lump $-1 $-1 $13 $1 #
transform $-1 1 0 0 0 1 0 0 0 1 60.733054597613453 27.233030118633831 12.313747802291294 1 rotate no_reflect no_shear #
lump $-1 $-1 $14 $2 #
transform $-1 1 0 0 0 1 0 0 0 1 60.733054597613453 27.233030118633831 12.313747802291294 1 rotate no_reflect no_shear #
lump $-1 $-1 $15 $3 #
transform $-1 1 0 0 0 1 0 0 0 1 60.733054597613453 27.233030118633831 12.313747802291294 1 rotate no_reflect no_shear #
shell $-1 $-1 $-1 $16 $-1 $4 #
shell $-1 $-1 $-1 $17 $-1 $6 #
shell $-1 $-1 $-1 $18 $-1 $8 #
shell $-1 $-1 $-1 $19 $-1 $10 #
face $-1 $20 $21 $12 $-1 $22 forward single #
face $-1 $23 $24 $13 $-1 $25 forward single #
face $-1 $26 $27 $14 $-1 $28 forward single #
face $-1 $29 $30 $15 $-1 $31 reversed single #
face $-1 $32 $33 $12 $-1 $34 reversed single #
loop $-1 $-1 $35 $16 #
plane-surface $-1 0 0 12.313747802291294 0 0 1 1 0 0 forward_v I I I I #
face $-1 $36 $37 $13 $-1 $38 forward single #
loop $-1 $-1 $39 $17 #
plane-surface $-1 0 -23.03555921146593 6.4724308343279322 0 0 1 1 0 0 forward_v I I I I #
face $-1 $40 $41 $14 $-1 $42 forward single #
loop $-1 $-1 $43 $18 #
plane-surface $-1 1.4266381742421856 87.353325567896817 125.35363629085373 1 0 0 0 -0.77714596973225614 -0.62932038083071107 forward_v I I I I #
face $-1 $44 $45 $15 $-1 $46 reversed single #
loop $-1 $47 $48 $19 #
cone-surface $-1 19.296246398402197 24.062688320232734 8.7603022828078831 0 -0.77714596973225614 -0.62932038083071107 1 0 0 1 I I 0 1 1 forward I I I I #
face $-1 $49 $50 $12 $-1 $51 reversed single #
loop $-1 $-1 $52 $20 #
plane-surface $-1 0 0 -12.313747802291294 0 0 1 1 0 0 forward_v I I I I #
coedge $-1 $53 $54 $55 $56 forward $21 $-1 #
face $-1 $57 $58 $13 $-1 $59 forward single #
loop $-1 $-1 $60 $23 #
plane-surface $-1 0 -18.838088304298029 9.3930893183096114 0 -1 0 0 0 -1 forward_v I I I I #
coedge $-1 $61 $62 $63 $64 reversed $24 $-1 #
face $-1 $65 $66 $14 $-1 $67 forward single #
loop $-1 $-1 $68 $26 #
plane-surface $-1 19.296246398402197 -7.0435716522319183 48.912538194088782 0 0.77714596973225614 0.62932038083071107 1 0 0 forward_v I I I I #
coedge $-1 $69 $70 $71 $72 reversed $27 $-1 #
face $-1 $73 $74 $15 $-1 $75 forward single #
loop $-1 $76 $77 $29 #
cone-surface $-1 19.296246398402197 22.823516774055602 7.7568409773037903 0 -0.77714596973225614 -0.62932038083071107 0.5 0 0 1 I I -0.70710678118654813 0.70710678118654691 0.5 forward I I I I #
loop $-1 $-1 $78 $19 #
coedge $-1 $48 $48 $79 $80 reversed $30 $-1 #
face $-1 $81 $82 $12 $-1 $83 reversed single #
loop $-1 $-1 $84 $32 #
plane-surface $-1 0 -27.233030118633831 0 0 1 0 0 0 1 forward_v I I I I #
coedge $-1 $85 $86 $87 $88 forward $33 $-1 #
coedge $-1 $89 $35 $90 $91 forward $21 $-1 #
coedge $-1 $35 $89 $92 $93 forward $21 $-1 #
coedge $-1 $94 $95 $35 $56 reversed $96 $-1 #
edge $-1 $97 -27.233030118633831 $98 27.233030118633831 $55 $99 forward 7 unknown #
face $-1 $100 $101 $13 $-1 $102 reversed single #
loop $-1 $-1 $103 $36 #
plane-surface $-1 0 0 12.313747802291294 0 0 1 1 0 0 forward_v I I I I #
coedge $-1 $104 $105 $106 $107 reversed $37 $-1 #
coedge $-1 $108 $39 $105 $109 reversed $24 $-1 #
coedge $-1 $39 $108 $110 $111 reversed $24 $-1 #
coedge $-1 $112 $106 $39 $64 forward $101 $-1 #
edge $-1 $113 7.3203086985650643 $114 15.715250512900866 $63 $115 forward 7 unknown #
face $-1 $116 $117 $14 $-1 $118 forward single #
loop $-1 $-1 $119 $40 #
plane-surface $-1 37.165854622562208 87.353325567896817 125.35363629085373 -1 0 0 0 0.77714596973225614 0.62932038083071107 forward_v I I I I #
coedge $-1 $120 $121 $122 $123 reversed $41 $-1 #
coedge $-1 $70 $43 $121 $124 forward $27 $-1 #
coedge $-1 $43 $69 $125 $126 reversed $27 $-1 #
coedge $-1 $127 $122 $43 $72 forward $117 $-1 #
edge $-1 $128 -21.083119139494791 $129 -16.443632665314578 $71 $130 forward 7 unknown #
face $-1 $131 $132 $15 $-1 $133 forward single #
loop $-1 $-1 $134 $44 #
plane-surface $-1 1.4266381742421856 87.353325567896817 125.35363629085373 1 0 0 0 -0.77714596973225614 -0.62932038083071107 forward_v I I I I #
loop $-1 $-1 $135 $29 #
coedge $-1 $77 $77 $78 $136 forward $45 $-1 #
coedge $-1 $78 $78 $77 $136 reversed $47 $-1 #
coedge $-1 $79 $79 $48 $80 forward $132 $-1 #
edge $-1 $137 7.2023940852280121e-016 $137 6.2831853071796013 $79 $138 forward 7 unknown #
face $-1 $139 $140 $12 $-1 $141 reversed single #
loop $-1 $-1 $142 $49 #
plane-surface $-1 -60.733054597613453 0 0 1 0 0 0 0 -1 forward_v I I I I #
coedge $-1 $143 $92 $144 $145 forward $50 $-1 #
coedge $-1 $146 $52 $143 $147 forward $33 $-1 #
coedge $-1 $52 $146 $148 $149 forward $33 $-1 #
coedge $-1 $95 $94 $52 $88 reversed $96 $-1 #
edge $-1 $150 -27.233030118633831 $151 27.233030118633831 $87 $152 forward 7 unknown #
coedge $-1 $54 $53 $153 $154 forward $21 $-1 #
coedge $-1 $155 $156 $53 $91 reversed $140 $-1 #
edge $-1 $98 -60.733054597613453 $157 60.733054597613453 $90 $158 forward 7 unknown #
coedge $-1 $84 $159 $54 $93 reversed $50 $-1 #
edge $-1 $160 -60.733054597613453 $97 60.733054597613453 $92 $161 forward 7 unknown #
coedge $-1 $87 $55 $159 $162 forward $96 $-1 #
coedge $-1 $55 $87 $155 $163 reversed $96 $-1 #
loop $-1 $-1 $94 $139 #
vertex $-1 $56 $164 #
vertex $-1 $56 $165 #
straight-curve $-1 60.733054597613453 0 12.313747802291294 0 1 0 I I #
face $-1 $166 $167 $13 $-1 $168 reversed single #
loop $-1 $-1 $106 $57 #
plane-surface $-1 60.733054597613453 0 0 -1 0 0 0 0 1 forward_v I I I I #
coedge $-1 $169 $170 $104 $171 forward $58 $-1 #
coedge $-1 $172 $60 $103 $171 reversed $37 $-1 #
coedge $-1 $60 $172 $61 $109 forward $37 $-1 #
coedge $-1 $63 $173 $60 $107 forward $101 $-1 #
edge $-1 $174 -7.6172031431364848 $113 -1.7758861751731265 $106 $175 forward 7 unknown #
coedge $-1 $62 $61 $176 $177 reversed $24 $-1 #
edge $-1 $178 -60.733054597613453 $113 60.733054597613453 $105 $179 forward 7 unknown #
coedge $-1 $180 $181 $62 $111 forward $182 $-1 #
edge $-1 $114 -60.733054597613453 $183 60.733054597613453 $110 $184 forward 7 unknown #
coedge $-1 $185 $63 $181 $186 forward $101 $-1 #
vertex $-1 $64 $187 #
vertex $-1 $186 $188 #
straight-curve $-1 60.733054597613453 -11.517779605732965 6.4724308343279322 0 -1 0 I I #
face $-1 $189 $190 $14 $-1 $191 forward single #
loop $-1 $-1 $192 $65 #
plane-surface $-1 0 0 12.313747802291294 0 0 1 1 0 0 forward_v I I I I #
coedge $-1 $193 $194 $192 $195 reversed $66 $-1 #
coedge $-1 $196 $68 $194 $197 reversed $41 $-1 #
coedge $-1 $68 $196 $69 $124 reversed $41 $-1 #
coedge $-1 $71 $192 $68 $123 forward $117 $-1 #
edge $-1 $198 -27.517731423361109 $128 8.2214850249589126 $122 $199 forward 7 unknown #
edge $-1 $128 47.093843135294868 $200 54.466060237267683 $69 $201 forward 7 unknown #
coedge $-1 $202 $203 $70 $126 forward $204 $-1 #
edge $-1 $129 50.363070343135568 $200 56.09235915192496 $125 $205 forward 7 unknown #
coedge $-1 $206 $71 $203 $207 forward $117 $-1 #
vertex $-1 $123 $208 #
vertex $-1 $207 $209 #
straight-curve $-1 1.4266381742421856 43.676662783948409 12.313747802291296 0 1 0 I I #
face $-1 $210 $211 $15 $-1 $212 forward single #
loop $-1 $213 $79 $73 #
plane-surface $-1 19.296246398402197 -7.0435716522319183 48.912538194088782 0 0.77714596973225614 0.62932038083071107 1 0 0 forward_v I I I I #
coedge $-1 $214 $215 $216 $217 reversed $74 $-1 #
coedge $-1 $135 $135 $-1 $218 forward $76 $-1 #
edge $-1 $219 0 $219 6.2831853071796004 $77 $220 forward 7 unknown #
vertex $-1 $80 $221 #
ellipse-curve $-1 19.296246398402197 24.913286881543723 9.4491033978966072 0 -0.77714596973225614 -0.62932038083071107 1 0 0 1 I I #
face $-1 $-1 $96 $12 $-1 $222 reversed single #
loop $-1 $-1 $155 $81 #
plane-surface $-1 0 27.233030118633831 0 0 -1 0 0 0 -1 forward_v I I I I #
coedge $-1 $223 $153 $156 $224 forward $82 $-1 #
coedge $-1 $159 $84 $85 $147 reversed $50 $-1 #
coedge $-1 $153 $223 $84 $145 reversed $82 $-1 #
edge $-1 $160 -12.313747802291294 $225 12.313747802291294 $144 $226 forward 7 unknown #
coedge $-1 $86 $85 $223 $227 forward $33 $-1 #
edge $-1 $151 -60.733054597613453 $225 60.733054597613453 $143 $228 forward 7 unknown #
coedge $-1 $156 $155 $86 $149 reversed $140 $-1 #
edge $-1 $229 -60.733054597613453 $150 60.733054597613453 $148 $230 forward 7 unknown #
vertex $-1 $88 $231 #
vertex $-1 $162 $232 #
straight-curve $-1 60.733054597613453 0 -12.313747802291294 0 -1 0 I I #
coedge $-1 $142 $144 $89 $154 reversed $82 $-1 #
edge $-1 $157 -27.233030118633831 $160 27.233030118633831 $153 $233 forward 7 unknown #
coedge $-1 $148 $90 $95 $163 forward $140 $-1 #
coedge $-1 $90 $148 $142 $224 reversed $140 $-1 #
vertex $-1 $91 $234 #
straight-curve $-1 0 27.233030118633831 12.313747802291294 -1 0 0 I I #
coedge $-1 $92 $143 $94 $162 reversed $50 $-1 #
vertex $-1 $154 $235 #
straight-curve $-1 0 -27.233030118633831 12.313747802291294 1 0 0 I I #
edge $-1 $97 -12.313747802291294 $151 12.313747802291294 $94 $236 forward 7 unknown #
edge $-1 $98 -12.313747802291294 $150 12.313747802291294 $95 $237 forward 7 unknown #
point $-1 60.733054597613453 -27.233030118633831 12.313747802291294 #
point $-1 60.733054597613453 27.233030118633831 12.313747802291294 #
face $-1 $238 $182 $13 $-1 $239 reversed single #
loop $-1 $-1 $240 $100 #
plane-surface $-1 0 0 -12.313747802291294 0 0 1 1 0 0 forward_v I I I I #
coedge $-1 $241 $103 $173 $242 forward $58 $-1 #
coedge $-1 $103 $241 $243 $244 forward $58 $-1 #
edge $-1 $245 -60.733054597613453 $174 60.733054597613453 $103 $246 forward 7 unknown #
coedge $-1 $105 $104 $247 $248 reversed $37 $-1 #
coedge $-1 $106 $249 $169 $242 reversed $101 $-1 #
vertex $-1 $242 $250 #
straight-curve $-1 60.733054597613453 -18.838088304298029 4.6965446591548057 0 0 -1 I I #
coedge $-1 $247 $251 $108 $177 forward $252 $-1 #
edge $-1 $183 -15.715250512900866 $178 -7.3203086985650643 $176 $253 forward 7 unknown #
vertex $-1 $177 $254 #
straight-curve $-1 0 -18.838088304298029 6.4724308343279322 1 0 0 I I #
coedge $-1 $255 $110 $251 $256 forward $182 $-1 #
coedge $-1 $110 $255 $112 $186 reversed $182 $-1 #
loop $-1 $-1 $110 $166 #
vertex $-1 $256 $257 #
straight-curve $-1 0 -27.233030118633831 6.4724308343279322 -1 0 0 I I #
coedge $-1 $249 $112 $240 $258 reversed $101 $-1 #
edge $-1 $114 -6.4724308343279322 $259 12.313747802291294 $112 $260 forward 7 unknown #
point $-1 60.733054597613453 -18.838088304298029 6.4724308343279322 #
point $-1 60.733054597613453 -27.233030118633831 6.4724308343279322 #
face $-1 $261 $262 $14 $-1 $263 forward single #
loop $-1 $-1 $264 $116 #
plane-surface $-1 0 -23.03555921146593 6.4724308343279322 0 0 1 1 0 0 forward_v I I I I #
coedge $-1 $122 $265 $119 $195 forward $117 $-1 #
coedge $-1 $194 $119 $266 $267 reversed $66 $-1 #
coedge $-1 $119 $193 $120 $197 forward $66 $-1 #
edge $-1 $268 16.443632665314578 $198 21.083119139494791 $192 $269 forward 7 unknown #
coedge $-1 $121 $120 $202 $270 reversed $41 $-1 #
edge $-1 $271 -54.466060237267683 $198 -47.093843135294868 $194 $272 forward 7 unknown #
vertex $-1 $123 $273 #
straight-curve $-1 9.6481231992010983 22.593543644453618 12.313747802291296 -1 0 0 I I #
vertex $-1 $270 $274 #
straight-curve $-1 1.4266381742421856 -7.0435716522319183 48.912538194088782 0 0.62932038083071107 -0.77714596973225614 I I #
coedge $-1 $266 $125 $196 $270 forward $204 $-1 #
coedge $-1 $125 $275 $127 $207 reversed $204 $-1 #
loop $-1 $-1 $266 $276 #
straight-curve $-1 1.4266381742421856 27.233030118633831 62.676818145426864 0 0 -1 I I #
coedge $-1 $277 $127 $278 $279 forward $117 $-1 #
edge $-1 $129 -1.4266381742421856 $280 60.733054597613453 $203 $281 forward 7 unknown #
point $-1 1.4266381742421856 22.593543644453618 12.313747802291296 #
point $-1 1.4266381742421856 27.233030118633831 12.313747802291294 #
face $-1 $282 $283 $15 $-1 $284 forward single #
loop $-1 $-1 $285 $131 #
plane-surface $-1 37.165854622562208 87.353325567896817 125.35363629085373 -1 0 0 0 0.77714596973225614 0.62932038083071107 forward_v I I I I #
loop $-1 $-1 $286 $73 #
coedge $-1 $215 $134 $287 $288 forward $74 $-1 #
coedge $-1 $134 $214 $289 $290 reversed $74 $-1 #
coedge $-1 $291 $292 $134 $217 forward $283 $-1 #
edge $-1 $293 -21.083119139494791 $294 -16.443632665314578 $216 $295 forward 7 unknown #
edge $-1 $296 1 $296 0 $135 $-1 forward 7 unknown #
vertex $-1 $136 $297 #
ellipse-curve $-1 19.296246398402197 23.212089758921728 8.0715011677191448 0 0.77714596973225614 0.62932038083071107 1 0 0 1 I I #
point $-1 20.296246398402197 24.913286881543737 9.4491033978966197 #
plane-surface $-1 60.733054597613453 0 0 -1 0 0 0 0 1 forward_v I I I I #
coedge $-1 $144 $142 $146 $227 reversed $82 $-1 #
edge $-1 $157 -12.313747802291294 $229 12.313747802291294 $156 $298 forward 7 unknown #
vertex $-1 $227 $299 #
straight-curve $-1 -60.733054597613453 -27.233030118633831 0 0 0 -1 I I #
edge $-1 $225 -27.233030118633831 $229 27.233030118633831 $223 $300 forward 7 unknown #
straight-curve $-1 0 -27.233030118633831 -12.313747802291294 -1 0 0 I I #
vertex $-1 $149 $301 #
straight-curve $-1 0 27.233030118633831 -12.313747802291294 1 0 0 I I #
point $-1 60.733054597613453 27.233030118633831 -12.313747802291294 #
point $-1 60.733054597613453 -27.233030118633831 -12.313747802291294 #
straight-curve $-1 -60.733054597613453 0 12.313747802291294 0 -1 0 I I #
point $-1 -60.733054597613453 27.233030118633831 12.313747802291294 #
point $-1 -60.733054597613453 -27.233030118633831 12.313747802291294 #
straight-curve $-1 60.733054597613453 -27.233030118633831 0 0 0 -1 I I #
straight-curve $-1 60.733054597613453 27.233030118633831 0 0 0 -1 I I #
face $-1 $302 $252 $13 $-1 $303 reversed single #
plane-surface $-1 0 -27.233030118633831 0 0 1 0 0 0 1 forward_v I I I I #
coedge $-1 $304 $305 $185 $258 forward $167 $-1 #
coedge $-1 $170 $169 $306 $307 forward $58 $-1 #
edge $-1 $174 -18.838088304298029 $308 27.233030118633831 $173 $309 forward 7 unknown #
coedge $-1 $310 $247 $170 $244 reversed $252 $-1 #
edge $-1 $311 -27.233030118633831 $245 18.838088304298029 $243 $312 forward 7 unknown #
vertex $-1 $248 $313 #
straight-curve $-1 0 -18.838088304298029 12.313747802291294 1 0 0 I I #
coedge $-1 $243 $176 $172 $248 forward $252 $-1 #
edge $-1 $178 1.7758861751731265 $245 7.6172031431364848 $247 $314 forward 7 unknown #
coedge $-1 $173 $185 $315 $316 reversed $101 $-1 #
point $-1 60.733054597613453 -18.838088304298029 12.313747802291291 #
coedge $-1 $176 $317 $180 $256 reversed $252 $-1 #
loop $-1 $-1 $247 $238 #
straight-curve $-1 -60.733054597613453 -11.517779605732965 6.4724308343279322 0 1 0 I I #
point $-1 -60.733054597613453 -18.838088304298029 6.4724308343279322 #
coedge $-1 $181 $180 $304 $318 reversed $182 $-1 #
edge $-1 $183 -6.4724308343279322 $319 12.313747802291294 $251 $320 forward 7 unknown #
point $-1 -60.733054597613453 -27.233030118633831 6.4724308343279322 #
edge $-1 $321 -27.233030118633831 $259 27.233030118633831 $185 $322 forward 7 unknown #
vertex $-1 $186 $323 #
straight-curve $-1 60.733054597613453 -27.233030118633831 0 0 0 -1 I I #
face $-1 $324 $325 $14 $-1 $326 reversed single #
loop $-1 $-1 $327 $189 #
plane-surface $-1 0 -18.838088304298029 9.3930893183096114 0 -1 0 0 0 -1 forward_v I I I I #
coedge $-1 $328 $329 $330 $331 reversed $190 $-1 #
coedge $-1 $192 $332 $333 $334 forward $117 $-1 #
coedge $-1 $333 $202 $193 $267 forward $204 $-1 #
edge $-1 $271 -56.09235915192496 $268 -50.363070343135568 $266 $335 forward 7 unknown #
vertex $-1 $267 $336 #
straight-curve $-1 37.165854622562208 43.676662783948409 12.313747802291296 0 -1 0 I I #
edge $-1 $200 -8.2214850249589126 $271 27.517731423361109 $202 $337 forward 7 unknown #
vertex $-1 $270 $338 #
straight-curve $-1 37.165854622562208 -7.0435716522319183 48.912538194088782 0 -0.62932038083071107 0.77714596973225614 I I #
point $-1 37.165854622562208 22.593543644453618 12.313747802291296 #
point $-1 1.4266381742421856 27.233030118633835 6.5844589935019044 #
coedge $-1 $203 $339 $340 $341 reversed $204 $-1 #
face $-1 $-1 $204 $14 $-1 $342 reversed single #
coedge $-1 $332 $206 $343 $344 forward $117 $-1 #
coedge $-1 $340 $345 $206 $279 reversed $346 $-1 #
edge $-1 $280 -27.233030118633831 $347 18.838088304298029 $278 $348 forward 7 unknown #
vertex $-1 $207 $349 #
straight-curve $-1 0 27.233030118633831 12.313747802291294 -1 0 0 I I #
face $-1 $350 $351 $15 $-1 $352 forward single #
loop $-1 $-1 $353 $210 #
plane-surface $-1 0 0 12.313747802291294 0 0 1 1 0 0 forward_v I I I I #
coedge $-1 $354 $355 $353 $356 reversed $211 $-1 #
coedge $-1 $357 $287 $292 $358 reversed $213 $-1 #
coedge $-1 $286 $359 $214 $288 reversed $213 $-1 #
edge $-1 $293 47.093843135294868 $360 54.466060237267683 $214 $361 forward 7 unknown #
coedge $-1 $362 $363 $215 $290 forward $364 $-1 #
edge $-1 $294 50.363070343135568 $360 56.09235915192496 $289 $365 forward 7 unknown #
coedge $-1 $366 $216 $363 $367 forward $283 $-1 #
coedge $-1 $216 $353 $286 $358 forward $283 $-1 #
vertex $-1 $358 $368 #
vertex $-1 $367 $369 #
straight-curve $-1 1.4266381742421856 43.676662783948409 12.313747802291296 0 1 0 I I #
vertex $-1 $218 $370 #
point $-1 20.296246398402197 23.212089758921728 8.0715011677191448 #
straight-curve $-1 -60.733054597613453 27.233030118633831 0 0 0 -1 I I #
point $-1 -60.733054597613453 -27.233030118633831 -12.313747802291294 #
straight-curve $-1 -60.733054597613453 0 -12.313747802291294 0 1 0 I I #
point $-1 -60.733054597613453 27.233030118633831 -12.313747802291294 #
face $-1 $-1 $371 $13 $-1 $372 reversed single #
plane-surface $-1 -60.733054597613453 0 0 1 0 0 0 0 -1 forward_v I I I I #
coedge $-1 $373 $240 $255 $318 forward $167 $-1 #
coedge $-1 $240 $373 $374 $375 forward $167 $-1 #
coedge $-1 $315 $376 $241 $307 reversed $371 $-1 #
edge $-1 $308 -60.733054597613453 $311 60.733054597613453 $306 $377 forward 7 unknown #
vertex $-1 $242 $378 #
straight-curve $-1 60.733054597613453 0 12.313747802291294 0 1 0 I I #
coedge $-1 $317 $243 $376 $379 forward $252 $-1 #
vertex $-1 $307 $380 #
straight-curve $-1 -60.733054597613453 0 12.313747802291294 0 -1 0 I I #
point $-1 -60.733054597613453 -18.838088304298029 12.313747802291291 #
straight-curve $-1 -60.733054597613453 -18.838088304298029 4.6965446591548057 0 0 1 I I #
coedge $-1 $374 $306 $249 $316 forward $371 $-1 #
edge $-1 $308 -12.313747802291294 $321 12.313747802291294 $249 $381 forward 7 unknown #
coedge $-1 $251 $310 $373 $382 reversed $252 $-1 #
edge $-1 $259 -60.733054597613453 $319 60.733054597613453 $255 $383 forward 7 unknown #
vertex $-1 $382 $384 #
straight-curve $-1 -60.733054597613453 -27.233030118633831 0 0 0 -1 I I #
vertex $-1 $258 $385 #
straight-curve $-1 60.733054597613453 0 -12.313747802291294 0 -1 0 I I #
point $-1 60.733054597613453 -27.233030118633831 -12.313747802291294 #
face $-1 $386 $387 $14 $-1 $388 reversed single #
loop $-1 $-1 $389 $261 #
plane-surface $-1 60.733054597613453 0 0 -1 0 0 0 0 1 forward_v I I I I #
coedge $-1 $343 $390 $389 $391 reversed $262 $-1 #
coedge $-1 $392 $264 $390 $393 reversed $190 $-1 #
coedge $-1 $264 $392 $394 $395 reversed $190 $-1 #
coedge $-1 $396 $389 $264 $331 forward $325 $-1 #
edge $-1 $397 7.3203086985650643 $398 15.715250512900866 $330 $399 forward 7 unknown #
coedge $-1 $265 $277 $400 $401 forward $117 $-1 #
coedge $-1 $402 $266 $265 $334 reversed $204 $-1 #
edge $-1 $403 -60.733054597613453 $268 -37.165854622562208 $333 $281 forward 7 unknown #
straight-curve $-1 37.165854622562208 27.233030118633831 62.676818145426864 0 0 1 I I #
point $-1 37.165854622562208 27.233030118633831 12.313747802291294 #
straight-curve $-1 9.6481231992010983 27.233030118633831 6.5844589935019116 1 0 0 I I #
point $-1 37.165854622562208 27.233030118633835 6.5844589935019044 #
coedge $-1 $275 $402 $404 $405 reversed $204 $-1 #
coedge $-1 $406 $278 $275 $341 forward $346 $-1 #
edge $-1 $280 -12.313747802291294 $407 12.313747802291294 $275 $408 forward 7 unknown #
plane-surface $-1 0 27.233030118633831 0 0 -1 0 0 0 -1 forward_v I I I I #
coedge $-1 $409 $327 $277 $344 reversed $262 $-1 #
edge $-1 $347 -60.733054597613453 $410 60.733054597613453 $277 $411 forward 7 unknown #
coedge $-1 $278 $412 $409 $413 forward $346 $-1 #
loop $-1 $-1 $345 $414 #
vertex $-1 $413 $415 #
straight-curve $-1 -60.733054597613453 0 12.313747802291294 0 -1 0 I I #
point $-1 -60.733054597613453 27.233030118633831 12.313747802291294 #
face $-1 $416 $417 $15 $-1 $418 forward single #
loop $-1 $-1 $419 $282 #
plane-surface $-1 0 -23.03555921146593 6.4724308343279322 0 0 1 1 0 0 forward_v I I I I #
coedge $-1 $292 $420 $285 $356 forward $283 $-1 #
coedge $-1 $355 $285 $421 $422 reversed $211 $-1 #
coedge $-1 $285 $354 $357 $423 forward $211 $-1 #
edge $-1 $424 16.443632665314578 $425 21.083119139494791 $353 $426 forward 7 unknown #
coedge $-1 $359 $286 $355 $423 reversed $213 $-1 #
edge $-1 $425 -27.517731423361109 $293 8.2214850249589126 $292 $427 forward 7 unknown #
coedge $-1 $287 $357 $362 $428 reversed $213 $-1 #
vertex $-1 $428 $429 #
straight-curve $-1 1.4266381742421856 -7.0435716522319183 48.912538194088782 0 0.62932038083071107 -0.77714596973225614 I I #
coedge $-1 $421 $289 $359 $428 forward $364 $-1 #
coedge $-1 $289 $430 $291 $367 reversed $364 $-1 #
loop $-1 $-1 $421 $431 #
straight-curve $-1 1.4266381742421856 27.233030118633831 62.676818145426864 0 0 -1 I I #
coedge $-1 $432 $291 $433 $434 forward $283 $-1 #
edge $-1 $294 -1.4266381742421856 $435 60.733054597613453 $363 $436 forward 7 unknown #
point $-1 1.4266381742421856 22.593543644453618 12.313747802291296 #
point $-1 1.4266381742421856 27.233030118633831 12.313747802291294 #
point $-1 19.296246398402197 22.434943789189475 7.4421807868884358 #
loop $-1 $-1 $315 $302 #
plane-surface $-1 0 27.233030118633831 0 0 -1 0 0 0 -1 forward_v I I I I #
coedge $-1 $305 $304 $317 $382 forward $167 $-1 #
coedge $-1 $376 $315 $305 $375 reversed $371 $-1 #
edge $-1 $437 -60.733054597613453 $321 60.733054597613453 $374 $438 forward 7 unknown #
coedge $-1 $306 $374 $310 $379 reversed $371 $-1 #
straight-curve $-1 0 27.233030118633831 12.313747802291294 -1 0 0 I I #
point $-1 60.733054597613453 27.233030118633831 12.313747802291294 #
edge $-1 $311 -12.313747802291294 $437 12.313747802291294 $376 $439 forward 7 unknown #
point $-1 -60.733054597613453 27.233030118633831 12.313747802291294 #
straight-curve $-1 60.733054597613453 27.233030118633831 0 0 0 -1 I I #
edge $-1 $319 -27.233030118633831 $437 27.233030118633831 $317 $440 forward 7 unknown #
straight-curve $-1 0 -27.233030118633831 -12.313747802291294 -1 0 0 I I #
point $-1 -60.733054597613453 -27.233030118633831 -12.313747802291294 #
point $-1 60.733054597613453 27.233030118633831 -12.313747802291294 #
face $-1 $414 $441 $14 $-1 $442 reversed single #
loop $-1 $-1 $443 $324 #
plane-surface $-1 0 0 -12.313747802291294 0 0 1 1 0 0 forward_v I I I I #
coedge $-1 $330 $400 $327 $391 forward $325 $-1 #
coedge $-1 $327 $409 $328 $393 forward $262 $-1 #
edge $-1 $410 -7.6172031431364848 $397 -1.7758861751731265 $389 $444 forward 7 unknown #
coedge $-1 $329 $328 $412 $445 reversed $190 $-1 #
edge $-1 $446 -60.733054597613453 $397 60.733054597613453 $390 $447 forward 7 unknown #
coedge $-1 $448 $449 $329 $395 forward $441 $-1 #
edge $-1 $398 -60.733054597613453 $450 60.733054597613453 $394 $451 forward 7 unknown #
coedge $-1 $452 $330 $449 $453 forward $325 $-1 #
vertex $-1 $331 $454 #
vertex $-1 $453 $455 #
straight-curve $-1 60.733054597613453 -11.517779605732965 6.4724308343279322 0 -1 0 I I #
coedge $-1 $389 $456 $332 $401 reversed $325 $-1 #
edge $-1 $410 -18.838088304298029 $403 27.233030118633831 $400 $457 forward 7 unknown #
coedge $-1 $339 $333 $456 $458 forward $204 $-1 #
vertex $-1 $401 $459 #
coedge $-1 $443 $460 $339 $405 forward $387 $-1 #
edge $-1 $407 -60.733054597613453 $461 60.733054597613453 $339 $462 forward 7 unknown #
coedge $-1 $463 $340 $460 $464 reversed $346 $-1 #
vertex $-1 $405 $465 #
straight-curve $-1 -60.733054597613453 27.233030118633831 0 0 0 -1 I I #
coedge $-1 $390 $343 $345 $413 reversed $262 $-1 #
vertex $-1 $401 $466 #
straight-curve $-1 0 -18.838088304298029 12.313747802291294 1 0 0 I I #
coedge $-1 $345 $463 $392 $445 forward $346 $-1 #
edge $-1 $446 1.7758861751731265 $347 7.6172031431364848 $345 $467 forward 7 unknown #
face $-1 $276 $346 $14 $-1 $468 reversed single #
point $-1 -60.733054597613453 -18.838088304298029 12.313747802291291 #
face $-1 $469 $470 $15 $-1 $471 reversed single #
loop $-1 $-1 $472 $350 #
plane-surface $-1 0 -18.838088304298029 9.3930893183096114 0 -1 0 0 0 -1 forward_v I I I I #
coedge $-1 $473 $474 $475 $476 reversed $351 $-1 #
coedge $-1 $353 $477 $478 $479 forward $283 $-1 #
coedge $-1 $478 $362 $354 $422 forward $364 $-1 #
edge $-1 $480 -56.09235915192496 $424 -50.363070343135568 $421 $481 forward 7 unknown #
edge $-1 $480 -54.466060237267683 $425 -47.093843135294868 $355 $482 forward 7 unknown #
vertex $-1 $422 $483 #
vertex $-1 $358 $484 #
straight-curve $-1 37.165854622562208 43.676662783948409 12.313747802291296 0 -1 0 I I #
straight-curve $-1 9.6481231992010983 22.593543644453618 12.313747802291296 -1 0 0 I I #
edge $-1 $360 -8.2214850249589126 $480 27.517731423361109 $362 $485 forward 7 unknown #
point $-1 1.4266381742421856 27.233030118633835 6.5844589935019044 #
coedge $-1 $363 $486 $487 $488 reversed $364 $-1 #
face $-1 $-1 $364 $15 $-1 $489 reversed single #
coedge $-1 $477 $366 $490 $491 forward $283 $-1 #
coedge $-1 $487 $492 $366 $434 reversed $493 $-1 #
edge $-1 $435 -27.233030118633831 $494 18.838088304298029 $433 $495 forward 7 unknown #
vertex $-1 $367 $496 #
straight-curve $-1 0 27.233030118633831 12.313747802291294 -1 0 0 I I #
vertex $-1 $375 $497 #
straight-curve $-1 0 27.233030118633831 -12.313747802291294 1 0 0 I I #
straight-curve $-1 -60.733054597613453 27.233030118633831 0 0 0 -1 I I #
straight-curve $-1 -60.733054597613453 0 -12.313747802291294 0 1 0 I I #
loop $-1 $-1 $394 $386 #
plane-surface $-1 0 -27.233030118633831 0 0 1 0 0 0 1 forward_v I I I I #
coedge $-1 $498 $404 $452 $499 forward $387 $-1 #
straight-curve $-1 60.733054597613453 -18.838088304298029 4.6965446591548057 0 0 -1 I I #
edge $-1 $450 -15.715250512900866 $446 -7.3203086985650643 $412 $500 forward 7 unknown #
vertex $-1 $445 $501 #
straight-curve $-1 0 -18.838088304298029 6.4724308343279322 1 0 0 I I #
coedge $-1 $502 $394 $463 $503 forward $441 $-1 #
coedge $-1 $394 $502 $396 $453 reversed $441 $-1 #
vertex $-1 $503 $504 #
straight-curve $-1 0 -27.233030118633831 6.4724308343279322 -1 0 0 I I #
coedge $-1 $456 $396 $443 $499 reversed $325 $-1 #
edge $-1 $398 -6.4724308343279322 $505 12.313747802291294 $396 $506 forward 7 unknown #
point $-1 60.733054597613453 -18.838088304298029 6.4724308343279322 #
point $-1 60.733054597613453 -27.233030118633831 6.4724308343279322 #
coedge $-1 $400 $452 $402 $458 reversed $325 $-1 #
straight-curve $-1 60.733054597613453 0 12.313747802291294 0 1 0 I I #
edge $-1 $403 -12.313747802291294 $461 12.313747802291294 $456 $507 forward 7 unknown #
point $-1 60.733054597613453 27.233030118633831 12.313747802291294 #
coedge $-1 $404 $498 $406 $464 forward $387 $-1 #
vertex $-1 $499 $508 #
straight-curve $-1 0 27.233030118633831 -12.313747802291294 1 0 0 I I #
coedge $-1 $412 $406 $448 $503 reversed $346 $-1 #
edge $-1 $509 -27.233030118633831 $407 27.233030118633831 $406 $510 forward 7 unknown #
point $-1 -60.733054597613453 27.233030118633831 -12.313747802291294 #
point $-1 60.733054597613453 -18.838088304298029 12.313747802291291 #
straight-curve $-1 -60.733054597613453 -18.838088304298029 4.6965446591548057 0 0 1 I I #
plane-surface $-1 -60.733054597613453 0 0 1 0 0 0 0 -1 forward_v I I I I #
face $-1 $511 $512 $15 $-1 $513 reversed single #
loop $-1 $-1 $514 $416 #
plane-surface $-1 60.733054597613453 0 0 -1 0 0 0 0 1 forward_v I I I I #
coedge $-1 $490 $515 $514 $516 reversed $417 $-1 #
coedge $-1 $517 $419 $515 $518 reversed $351 $-1 #
coedge $-1 $419 $517 $519 $520 reversed $351 $-1 #
coedge $-1 $521 $514 $419 $476 forward $470 $-1 #
edge $-1 $522 7.3203086985650643 $523 15.715250512900866 $475 $524 forward 7 unknown #
coedge $-1 $420 $432 $525 $526 forward $283 $-1 #
coedge $-1 $527 $421 $420 $479 reversed $364 $-1 #
edge $-1 $528 -60.733054597613453 $424 -37.165854622562208 $478 $436 forward 7 unknown #
vertex $-1 $428 $529 #
straight-curve $-1 37.165854622562208 27.233030118633831 62.676818145426864 0 0 1 I I #
straight-curve $-1 37.165854622562208 -7.0435716522319183 48.912538194088782 0 -0.62932038083071107 0.77714596973225614 I I #
point $-1 37.165854622562208 27.233030118633831 12.313747802291294 #
point $-1 37.165854622562208 22.593543644453618 12.313747802291296 #
straight-curve $-1 9.6481231992010983 27.233030118633831 6.5844589935019116 1 0 0 I I #
coedge $-1 $430 $527 $530 $531 reversed $364 $-1 #
coedge $-1 $532 $433 $430 $488 forward $493 $-1 #
edge $-1 $435 -12.313747802291294 $533 12.313747802291294 $430 $534 forward 7 unknown #
plane-surface $-1 0 27.233030118633831 0 0 -1 0 0 0 -1 forward_v I I I I #
coedge $-1 $535 $472 $432 $491 reversed $417 $-1 #
edge $-1 $494 -60.733054597613453 $536 60.733054597613453 $432 $537 forward 7 unknown #
coedge $-1 $433 $538 $535 $539 forward $493 $-1 #
loop $-1 $-1 $492 $540 #
vertex $-1 $539 $541 #
straight-curve $-1 -60.733054597613453 0 12.313747802291294 0 -1 0 I I #
point $-1 -60.733054597613453 27.233030118633831 12.313747802291294 #
point $-1 -60.733054597613453 27.233030118633831 -12.313747802291294 #
coedge $-1 $460 $443 $502 $542 forward $387 $-1 #
edge $-1 $461 -27.233030118633831 $505 27.233030118633831 $452 $543 forward 7 unknown #
straight-curve $-1 -60.733054597613453 -11.517779605732965 6.4724308343279322 0 1 0 I I #
point $-1 -60.733054597613453 -18.838088304298029 6.4724308343279322 #
coedge $-1 $449 $448 $498 $542 reversed $441 $-1 #
edge $-1 $450 -6.4724308343279322 $509 12.313747802291294 $463 $544 forward 7 unknown #
point $-1 -60.733054597613453 -27.233030118633831 6.4724308343279322 #
vertex $-1 $453 $545 #
straight-curve $-1 60.733054597613453 -27.233030118633831 0 0 0 -1 I I #
straight-curve $-1 60.733054597613453 27.233030118633831 0 0 0 -1 I I #
point $-1 60.733054597613453 27.233030118633831 -12.313747802291294 #
vertex $-1 $464 $546 #
straight-curve $-1 -60.733054597613453 0 -12.313747802291294 0 1 0 I I #
face $-1 $540 $547 $15 $-1 $548 reversed single #
loop $-1 $-1 $549 $469 #
plane-surface $-1 0 0 -12.313747802291294 0 0 1 1 0 0 forward_v I I I I #
coedge $-1 $475 $525 $472 $516 forward $470 $-1 #
coedge $-1 $472 $535 $473 $518 forward $417 $-1 #
edge $-1 $536 -7.6172031431364848 $522 -1.7758861751731265 $514 $550 forward 7 unknown #
coedge $-1 $474 $473 $538 $551 reversed $351 $-1 #
edge $-1 $552 -60.733054597613453 $522 60.733054597613453 $515 $553 forward 7 unknown #
coedge $-1 $554 $555 $474 $520 forward $547 $-1 #
edge $-1 $523 -60.733054597613453 $556 60.733054597613453 $519 $557 forward 7 unknown #
coedge $-1 $558 $475 $555 $559 forward $470 $-1 #
vertex $-1 $476 $560 #
vertex $-1 $559 $561 #
straight-curve $-1 60.733054597613453 -11.517779605732965 6.4724308343279322 0 -1 0 I I #
coedge $-1 $514 $562 $477 $526 reversed $470 $-1 #
edge $-1 $536 -18.838088304298029 $528 27.233030118633831 $525 $563 forward 7 unknown #
coedge $-1 $486 $478 $562 $564 forward $364 $-1 #
vertex $-1 $526 $565 #
point $-1 37.165854622562208 27.233030118633835 6.5844589935019044 #
coedge $-1 $549 $566 $486 $531 forward $512 $-1 #
edge $-1 $533 -60.733054597613453 $567 60.733054597613453 $486 $568 forward 7 unknown #
coedge $-1 $569 $487 $566 $570 reversed $493 $-1 #
vertex $-1 $531 $571 #
straight-curve $-1 -60.733054597613453 27.233030118633831 0 0 0 -1 I I #
coedge $-1 $515 $490 $492 $539 reversed $417 $-1 #
vertex $-1 $526 $572 #
straight-curve $-1 0 -18.838088304298029 12.313747802291294 1 0 0 I I #
coedge $-1 $492 $569 $517 $551 forward $493 $-1 #
edge $-1 $552 1.7758861751731265 $494 7.6172031431364848 $492 $573 forward 7 unknown #
face $-1 $431 $493 $15 $-1 $574 reversed single #
point $-1 -60.733054597613453 -18.838088304298029 12.313747802291291 #
edge $-1 $505 -60.733054597613453 $509 60.733054597613453 $502 $575 forward 7 unknown #
straight-curve $-1 60.733054597613453 0 -12.313747802291294 0 -1 0 I I #
straight-curve $-1 -60.733054597613453 -27.233030118633831 0 0 0 -1 I I #
point $-1 60.733054597613453 -27.233030118633831 -12.313747802291294 #
point $-1 -60.733054597613453 -27.233030118633831 -12.313747802291294 #
loop $-1 $-1 $519 $511 #
plane-surface $-1 0 -27.233030118633831 0 0 1 0 0 0 1 forward_v I I I I #
coedge $-1 $576 $530 $558 $577 forward $512 $-1 #
straight-curve $-1 60.733054597613453 -18.838088304298029 4.6965446591548057 0 0 -1 I I #
edge $-1 $556 -15.715250512900866 $552 -7.3203086985650643 $538 $578 forward 7 unknown #
vertex $-1 $551 $579 #
straight-curve $-1 0 -18.838088304298029 6.4724308343279322 1 0 0 I I #
coedge $-1 $580 $519 $569 $581 forward $547 $-1 #
coedge $-1 $519 $580 $521 $559 reversed $547 $-1 #
vertex $-1 $581 $582 #
straight-curve $-1 0 -27.233030118633831 6.4724308343279322 -1 0 0 I I #
coedge $-1 $562 $521 $549 $577 reversed $470 $-1 #
edge $-1 $523 -6.4724308343279322 $583 12.313747802291294 $521 $584 forward 7 unknown #
point $-1 60.733054597613453 -18.838088304298029 6.4724308343279322 #
point $-1 60.733054597613453 -27.233030118633831 6.4724308343279322 #
coedge $-1 $525 $558 $527 $564 reversed $470 $-1 #
straight-curve $-1 60.733054597613453 0 12.313747802291294 0 1 0 I I #
edge $-1 $528 -12.313747802291294 $567 12.313747802291294 $562 $585 forward 7 unknown #
point $-1 60.733054597613453 27.233030118633831 12.313747802291294 #
coedge $-1 $530 $576 $532 $570 forward $512 $-1 #
vertex $-1 $577 $586 #
straight-curve $-1 0 27.233030118633831 -12.313747802291294 1 0 0 I I #
coedge $-1 $538 $532 $554 $581 reversed $493 $-1 #
edge $-1 $587 -27.233030118633831 $533 27.233030118633831 $532 $588 forward 7 unknown #
point $-1 -60.733054597613453 27.233030118633831 -12.313747802291294 #
point $-1 60.733054597613453 -18.838088304298029 12.313747802291291 #
straight-curve $-1 -60.733054597613453 -18.838088304298029 4.6965446591548057 0 0 1 I I #
plane-surface $-1 -60.733054597613453 0 0 1 0 0 0 0 -1 forward_v I I I I #
straight-curve $-1 0 -27.233030118633831 -12.313747802291294 -1 0 0 I I #
coedge $-1 $566 $549 $580 $589 forward $512 $-1 #
edge $-1 $567 -27.233030118633831 $583 27.233030118633831 $558 $590 forward 7 unknown #
straight-curve $-1 -60.733054597613453 -11.517779605732965 6.4724308343279322 0 1 0 I I #
point $-1 -60.733054597613453 -18.838088304298029 6.4724308343279322 #
coedge $-1 $555 $554 $576 $589 reversed $547 $-1 #
edge $-1 $556 -6.4724308343279322 $587 12.313747802291294 $569 $591 forward 7 unknown #
point $-1 -60.733054597613453 -27.233030118633831 6.4724308343279322 #
vertex $-1 $559 $592 #
straight-curve $-1 60.733054597613453 -27.233030118633831 0 0 0 -1 I I #
straight-curve $-1 60.733054597613453 27.233030118633831 0 0 0 -1 I I #
point $-1 60.733054597613453 27.233030118633831 -12.313747802291294 #
vertex $-1 $570 $593 #
straight-curve $-1 -60.733054597613453 0 -12.313747802291294 0 1 0 I I #
edge $-1 $583 -60.733054597613453 $587 60.733054597613453 $580 $594 forward 7 unknown #
straight-curve $-1 60.733054597613453 0 -12.313747802291294 0 -1 0 I I #
straight-curve $-1 -60.733054597613453 -27.233030118633831 0 0 0 -1 I I #
point $-1 60.733054597613453 -27.233030118633831 -12.313747802291294 #
point $-1 -60.733054597613453 -27.233030118633831 -12.313747802291294 #
straight-curve $-1 0 -27.233030118633831 -12.313747802291294 -1 0 0 I I #
End-of-ACIS-data 