500 0 9 0           
7 Unknown 11 ACIS 5.0 NT 24 Fri Mar 26 02:13:54 1999 
-1 9.9999999999999995e-007 1e-010 
body $-1 $9 $-1 $10 #
body $-1 $11 $-1 $12 #
body $-1 $13 $-1 $14 #
body $-1 $15 $-1 $16 #
body $-1 $17 $-1 $18 #
body $-1 $19 $-1 $20 #
body $-1 $21 $-1 $22 #
body $-1 $23 $-1 $24 #
body $-1 $25 $-1 $26 #
lump $-1 $-1 $27 $0 #
transform $-1 1 0 0 0 1 0 0 0 1 69.454023865474412 33.508434756912102 10.526416002999198 1 rotate no_reflect no_shear #
lump $-1 $-1 $28 $1 #
transform $-1 1 0 0 0 1 0 0 0 1 69.454023865474412 33.508434756912102 10.526416002999198 1 rotate no_reflect no_shear #
lump $-1 $-1 $29 $2 #
transform $-1 1 0 0 0 1 0 0 0 1 69.454023865474412 33.508434756912102 10.526416002999198 1 rotate no_reflect no_shear #
lump $-1 $-1 $30 $3 #
transform $-1 1 0 0 0 1 0 0 0 1 69.454023865474412 33.508434756912102 10.526416002999198 1 rotate no_reflect no_shear #
lump $-1 $-1 $31 $4 #
transform $-1 1 0 0 0 1 0 0 0 1 69.454023865474412 33.508434756912102 10.526416002999198 1 rotate no_reflect no_shear #
lump $-1 $-1 $32 $5 #
transform $-1 1 0 0 0 1 0 0 0 1 69.454023865474412 33.508434756912102 10.526416002999198 1 rotate no_reflect no_shear #
lump $-1 $-1 $33 $6 #
transform $-1 1 0 0 0 1 0 0 0 1 69.454023865474412 33.508434756912102 10.526416002999198 1 rotate no_reflect no_shear #
lump $-1 $-1 $34 $7 #
transform $-1 1 0 0 0 1 0 0 0 1 69.454023865474412 33.508434756912102 10.526416002999198 1 rotate no_reflect no_shear #
lump $-1 $-1 $35 $8 #
transform $-1 1 0 0 0 1 0 0 0 1 69.454023865474412 33.508434756912102 10.526416002999198 1 rotate no_reflect no_shear #
shell $-1 $-1 $-1 $36 $-1 $9 #
shell $-1 $-1 $-1 $37 $-1 $11 #
shell $-1 $-1 $-1 $38 $-1 $13 #
shell $-1 $-1 $-1 $39 $-1 $15 #
shell $-1 $-1 $-1 $40 $-1 $17 #
shell $-1 $-1 $-1 $41 $-1 $19 #
shell $-1 $-1 $-1 $42 $-1 $21 #
shell $-1 $-1 $-1 $43 $-1 $23 #
shell $-1 $-1 $-1 $44 $-1 $25 #
face $-1 $45 $46 $27 $-1 $47 forward single #
face $-1 $48 $49 $28 $-1 $50 forward single #
face $-1 $51 $52 $29 $-1 $53 forward single #
face $-1 $54 $55 $30 $-1 $56 reversed single #
face $-1 $57 $58 $31 $-1 $59 forward single #
face $-1 $60 $61 $32 $-1 $62 forward single #
face $-1 $63 $64 $33 $-1 $65 forward single #
face $-1 $66 $67 $34 $-1 $68 reversed single #
face $-1 $69 $70 $35 $-1 $71 forward single #
face $-1 $72 $73 $27 $-1 $74 reversed single #
loop $-1 $-1 $75 $36 #
plane-surface $-1 0 0 10.526416002999198 0 0 1 1 0 0 forward_v I I I I #
face $-1 $76 $77 $28 $-1 $78 reversed single #
loop $-1 $-1 $79 $37 #
plane-surface $-1 -69.454023865474412 0 0 1 0 0 0 0 -1 forward_v I I I I #
face $-1 $80 $81 $29 $-1 $82 reversed single #
loop $-1 $-1 $83 $38 #
plane-surface $-1 69.454023865474412 0 0 -1 0 0 0 0 1 forward_v I I I I #
face $-1 $84 $85 $30 $-1 $86 reversed single #
loop $-1 $-1 $87 $39 #
plane-surface $-1 61.403845471076487 -102.9624595528949 123.92684886297936 -1 0 0 0 -0.50000000669873634 0.8660253999169214 forward_v I I I I #
face $-1 $88 $89 $31 $-1 $90 forward single #
loop $-1 $91 $92 $40 #
cone-surface $-1 38.354812905883136 -26.667337655251846 5.5747528133351789 0 0.50000000669873634 -0.8660253999169214 1.5 0 0 1 I I 0 1 1.5 forward I I I I #
face $-1 $93 $94 $32 $-1 $95 forward single #
loop $-1 $96 $97 $41 #
cone-surface $-1 46.998200117830635 -26.667337655251846 5.5747528133351789 0 0.50000000669873634 -0.8660253999169214 1.5 0 0 1 I I 0 1 1.5 forward I I I I #
face $-1 $98 $99 $33 $-1 $100 forward single #
loop $-1 $101 $102 $42 #
cone-surface $-1 55.641587329778133 -26.667337655251846 5.5747528133351789 0 0.50000000669873634 -0.8660253999169214 1.5 0 0 1 I I 0 1 1.5 forward I I I I #
face $-1 $103 $104 $34 $-1 $105 reversed single #
loop $-1 $-1 $106 $43 #
plane-surface $-1 13.561059314703108 86.87669442360442 147.81574376719504 1 0 0 0 -0.71933980857756763 -0.69465836192734942 forward_v I I I I #
face $-1 $107 $108 $35 $-1 $109 forward single #
loop $-1 $110 $111 $44 #
cone-surface $-1 24.022406625786957 28.2301221299936 5.1792497084147238 0 -0.71933980857756763 -0.69465836192734942 2.5 0 0 1 I I 0 1 2.5 forward I I I I #
face $-1 $112 $113 $27 $-1 $114 reversed single #
loop $-1 $-1 $115 $45 #
plane-surface $-1 0 0 -10.526416002999198 0 0 1 1 0 0 forward_v I I I I #
coedge $-1 $116 $117 $118 $119 forward $46 $-1 #
face $-1 $120 $121 $28 $-1 $122 forward single #
loop $-1 $-1 $123 $48 #
plane-surface $-1 0 33.508434756912102 0 0 -1 0 0 0 -1 forward_v I I I I #
coedge $-1 $124 $125 $126 $127 forward $49 $-1 #
face $-1 $128 $129 $29 $-1 $130 forward single #
loop $-1 $-1 $131 $51 #
plane-surface $-1 0 33.508434756912102 0 0 -1 0 0 0 -1 forward_v I I I I #
coedge $-1 $132 $133 $134 $135 forward $52 $-1 #
face $-1 $136 $137 $30 $-1 $138 reversed single #
loop $-1 $-1 $139 $54 #
plane-surface $-1 46.998200117830649 -33.508434756912095 3.6289512751055923 0 -0.50000000669873634 0.8660253999169214 1 0 0 forward_v I I I I #
coedge $-1 $140 $141 $142 $143 reversed $55 $-1 #
face $-1 $-1 $144 $31 $-1 $145 forward single #
loop $-1 $146 $147 $57 #
cone-surface $-1 38.354812905883136 -25.424620117926281 3.4223029376802803 0 0.50000000669873634 -0.8660253999169214 0.75 0 0 1 I I -0.70710678118654757 0.70710678118654757 0.75 forward I I I I #
loop $-1 $-1 $148 $40 #
coedge $-1 $92 $92 $149 $150 reversed $58 $-1 #
face $-1 $-1 $151 $32 $-1 $152 forward single #
loop $-1 $153 $154 $60 #
cone-surface $-1 46.998200117830635 -25.424620117926281 3.4223029376802803 0 0.50000000669873634 -0.8660253999169214 0.75 0 0 1 I I -0.70710678118654757 0.70710678118654757 0.75 forward I I I I #
loop $-1 $-1 $155 $41 #
coedge $-1 $97 $97 $156 $157 reversed $61 $-1 #
face $-1 $-1 $158 $33 $-1 $159 forward single #
loop $-1 $160 $161 $63 #
cone-surface $-1 55.641587329778133 -25.424620117926281 3.4223029376802803 0 0.50000000669873634 -0.8660253999169214 0.75 0 0 1 I I -0.70710678118654757 0.70710678118654757 0.75 forward I I I I #
loop $-1 $-1 $162 $42 #
coedge $-1 $102 $102 $163 $164 reversed $64 $-1 #
face $-1 $165 $166 $34 $-1 $167 reversed single #
loop $-1 $-1 $168 $66 #
plane-surface $-1 24.022406625786957 -13.045394041059936 51.322106871888067 0 0.71933980857756763 0.69465836192734942 1 0 0 forward_v I I I I #
coedge $-1 $169 $170 $171 $172 reversed $67 $-1 #
face $-1 $-1 $173 $35 $-1 $174 forward single #
loop $-1 $175 $176 $69 #
cone-surface $-1 24.022406625786957 25.631579242582326 2.6698660707476947 0 -0.71933980857756763 -0.69465836192734942 1.25 0 0 1 I I -0.70710678118654746 0.70710678118654768 1.25 forward I I I I #
loop $-1 $-1 $177 $44 #
coedge $-1 $111 $111 $178 $179 reversed $70 $-1 #
face $-1 $180 $181 $27 $-1 $182 reversed single #
loop $-1 $-1 $183 $72 #
plane-surface $-1 0 -33.508434756912102 0 0 1 0 0 0 1 forward_v I I I I #
coedge $-1 $184 $185 $186 $187 forward $73 $-1 #
coedge $-1 $188 $75 $189 $190 forward $46 $-1 #
coedge $-1 $75 $188 $191 $192 forward $46 $-1 #
coedge $-1 $193 $194 $75 $119 reversed $195 $-1 #
edge $-1 $196 -33.508434756912102 $197 33.508434756912102 $118 $198 forward 7 unknown #
face $-1 $199 $200 $28 $-1 $201 reversed single #
loop $-1 $-1 $126 $76 #
plane-surface $-1 -73.479113062673377 0 -6.0550584243577399 0 0 1 1 0 0 forward_v I I I I #
coedge $-1 $202 $203 $125 $204 forward $77 $-1 #
coedge $-1 $205 $79 $206 $207 reversed $49 $-1 #
coedge $-1 $79 $205 $123 $204 reversed $49 $-1 #
coedge $-1 $208 $209 $79 $127 reversed $121 $-1 #
edge $-1 $210 -33.508434756912102 $211 33.508434756912102 $126 $212 forward 7 unknown #
face $-1 $213 $214 $29 $-1 $215 reversed single #
loop $-1 $-1 $216 $80 #
plane-surface $-1 73.479113062673392 0 -6.0550584243577399 0 0 1 1 0 0 forward_v I I I I #
coedge $-1 $217 $218 $132 $219 forward $81 $-1 #
coedge $-1 $220 $83 $131 $219 reversed $52 $-1 #
coedge $-1 $83 $220 $221 $222 reversed $52 $-1 #
coedge $-1 $223 $224 $83 $135 reversed $129 $-1 #
edge $-1 $225 -33.508434756912102 $226 33.508434756912102 $134 $227 forward 7 unknown #
face $-1 $228 $229 $30 $-1 $230 forward single #
loop $-1 $-1 $231 $84 #
plane-surface $-1 32.592554764584811 -102.9624595528949 123.92684886297936 1 0 0 0 0.50000000669873634 -0.8660253999169214 forward_v I I I I #
coedge $-1 $232 $233 $234 $235 reversed $85 $-1 #
coedge $-1 $141 $87 $236 $237 reversed $55 $-1 #
coedge $-1 $87 $140 $232 $238 reversed $55 $-1 #
coedge $-1 $234 $239 $87 $143 forward $229 $-1 #
edge $-1 $240 17.972795019535347 $241 29.919554158252815 $142 $242 forward 7 unknown #
loop $-1 $-1 $149 $88 #
plane-surface $-1 46.998200117830649 -33.508434756912095 3.6289512751055923 0 -0.50000000669873634 0.8660253999169214 1 0 0 forward_v I I I I #
loop $-1 $-1 $243 $57 #
coedge $-1 $147 $147 $148 $244 reversed $89 $-1 #
coedge $-1 $148 $148 $147 $244 forward $91 $-1 #
coedge $-1 $149 $149 $92 $150 forward $144 $-1 #
edge $-1 $245 5.4960665290014218e-016 $245 6.2831853071796013 $149 $246 forward 7 unknown #
loop $-1 $-1 $156 $93 #
plane-surface $-1 46.998200117830649 -33.508434756912095 3.6289512751055923 0 -0.50000000669873634 0.8660253999169214 1 0 0 forward_v I I I I #
loop $-1 $-1 $247 $60 #
coedge $-1 $154 $154 $155 $248 reversed $94 $-1 #
coedge $-1 $155 $155 $154 $248 forward $96 $-1 #
coedge $-1 $156 $156 $97 $157 forward $151 $-1 #
edge $-1 $249 5.4960665290014218e-016 $249 6.2831853071796013 $156 $250 forward 7 unknown #
loop $-1 $-1 $163 $98 #
plane-surface $-1 46.998200117830649 -33.508434756912095 3.6289512751055923 0 -0.50000000669873634 0.8660253999169214 1 0 0 forward_v I I I I #
loop $-1 $-1 $251 $63 #
coedge $-1 $161 $161 $162 $252 reversed $99 $-1 #
coedge $-1 $162 $162 $161 $252 forward $101 $-1 #
coedge $-1 $163 $163 $102 $164 forward $158 $-1 #
edge $-1 $253 5.4960665290014218e-016 $253 6.2831853071796013 $163 $254 forward 7 unknown #
face $-1 $255 $256 $34 $-1 $257 reversed single #
loop $-1 $-1 $258 $103 #
plane-surface $-1 34.483753936870805 86.87669442360442 147.81574376719504 -1 0 0 0 0.71933980857756763 0.69465836192734942 forward_v I I I I #
coedge $-1 $259 $260 $261 $262 reversed $104 $-1 #
coedge $-1 $170 $106 $263 $264 reversed $67 $-1 #
coedge $-1 $106 $169 $259 $265 reversed $67 $-1 #
coedge $-1 $261 $266 $106 $172 forward $267 $-1 #
edge $-1 $268 9.9299124548901077 $269 17.087801455348469 $171 $270 forward 7 unknown #
loop $-1 $-1 $178 $107 #
plane-surface $-1 24.022406625786957 -13.045394041059936 51.322106871888067 0 0.71933980857756763 0.69465836192734942 1 0 0 forward_v I I I I #
loop $-1 $-1 $271 $69 #
coedge $-1 $176 $176 $177 $272 reversed $108 $-1 #
coedge $-1 $177 $177 $176 $272 forward $110 $-1 #
coedge $-1 $178 $178 $111 $179 forward $173 $-1 #
edge $-1 $273 7.6668251329177753e-016 $273 6.2831853071796013 $178 $274 forward 7 unknown #
face $-1 $275 $276 $27 $-1 $277 reversed single #
loop $-1 $-1 $278 $112 #
plane-surface $-1 -69.454023865474412 0 0 1 0 0 0 0 -1 forward_v I I I I #
coedge $-1 $279 $191 $278 $280 forward $113 $-1 #
coedge $-1 $281 $115 $279 $282 forward $73 $-1 #
coedge $-1 $115 $281 $283 $284 forward $73 $-1 #
coedge $-1 $194 $193 $115 $187 reversed $195 $-1 #
edge $-1 $285 -33.508434756912102 $286 33.508434756912102 $186 $287 forward 7 unknown #
coedge $-1 $117 $116 $288 $289 forward $46 $-1 #
coedge $-1 $290 $291 $116 $190 reversed $276 $-1 #
edge $-1 $197 -69.454023865474412 $292 69.454023865474412 $189 $293 forward 7 unknown #
coedge $-1 $183 $294 $117 $192 reversed $113 $-1 #
edge $-1 $295 -69.454023865474412 $196 69.454023865474412 $191 $296 forward 7 unknown #
coedge $-1 $186 $118 $294 $297 forward $195 $-1 #
coedge $-1 $118 $186 $290 $298 reversed $195 $-1 #
loop $-1 $-1 $194 $275 #
vertex $-1 $119 $299 #
vertex $-1 $119 $300 #
straight-curve $-1 69.454023865474412 0 10.526416002999198 0 1 0 I I #
face $-1 $301 $302 $28 $-1 $303 reversed single #
loop $-1 $-1 $304 $120 #
plane-surface $-1 -77.504202259872329 0 -8.2907372136784687 1 0 0 0 0 -1 forward_v I I I I #
coedge $-1 $305 $123 $306 $307 reversed $77 $-1 #
coedge $-1 $123 $305 $208 $308 reversed $77 $-1 #
edge $-1 $210 6.0550584243577399 $309 10.526416002999198 $123 $310 forward 7 unknown #
coedge $-1 $125 $124 $311 $312 reversed $49 $-1 #
coedge $-1 $313 $314 $124 $207 forward $315 $-1 #
edge $-1 $316 -10.526416002999198 $211 -6.0550584243577399 $206 $317 forward 7 unknown #
coedge $-1 $318 $126 $203 $308 forward $121 $-1 #
coedge $-1 $126 $318 $313 $319 forward $121 $-1 #
vertex $-1 $204 $320 #
vertex $-1 $319 $321 #
straight-curve $-1 -69.454023865474412 0 -6.0550584243577399 0 -1 0 I I #
face $-1 $322 $323 $29 $-1 $324 reversed single #
loop $-1 $-1 $325 $128 #
plane-surface $-1 77.504202259872358 0 -8.2907372136784687 -1 0 0 0 0 1 forward_v I I I I #
coedge $-1 $224 $223 $326 $327 forward $129 $-1 #
coedge $-1 $328 $131 $224 $329 reversed $81 $-1 #
coedge $-1 $131 $328 $330 $331 reversed $81 $-1 #
edge $-1 $332 -10.526416002999198 $226 -6.0550584243577399 $131 $333 forward 7 unknown #
coedge $-1 $133 $132 $334 $335 reversed $52 $-1 #
coedge $-1 $336 $337 $133 $222 forward $338 $-1 #
edge $-1 $225 6.0550584243577399 $339 10.526416002999198 $221 $340 forward 7 unknown #
coedge $-1 $216 $134 $337 $341 forward $129 $-1 #
coedge $-1 $134 $216 $217 $329 forward $129 $-1 #
vertex $-1 $222 $342 #
vertex $-1 $329 $343 #
straight-curve $-1 69.454023865474412 0 -6.0550584243577399 0 1 0 I I #
face $-1 $-1 $344 $30 $-1 $345 reversed single #
loop $-1 $-1 $142 $136 #
plane-surface $-1 0 0 10.526416002999198 0 0 1 1 0 0 forward_v I I I I #
coedge $-1 $346 $347 $348 $349 reversed $137 $-1 #
coedge $-1 $350 $139 $141 $238 forward $85 $-1 #
coedge $-1 $139 $350 $346 $351 forward $85 $-1 #
coedge $-1 $348 $142 $139 $235 forward $229 $-1 #
edge $-1 $241 -37.904745412161162 $352 -9.0934547056694868 $234 $353 forward 7 unknown #
coedge $-1 $354 $355 $140 $237 forward $344 $-1 #
edge $-1 $356 -58.334473156384092 $240 -51.437008428490479 $236 $357 forward 7 unknown #
edge $-1 $241 -13.794929270970025 $356 8.1518820400458524e-015 $141 $358 forward 7 unknown #
coedge $-1 $142 $348 $354 $359 forward $229 $-1 #
vertex $-1 $237 $360 #
vertex $-1 $143 $361 #
straight-curve $-1 61.403845471076487 -51.481229776447449 10.526416002999198 0 1 0 I I #
coedge $-1 $243 $243 $-1 $362 reversed $146 $-1 #
edge $-1 $363 0 $363 6.2831853071796004 $147 $364 forward 7 unknown #
vertex $-1 $150 $365 #
ellipse-curve $-1 38.354812905883136 -27.535055187553365 7.0776836390523972 0 -0.50000000669873634 0.8660253999169214 1.5 0 0 1 I I #
coedge $-1 $247 $247 $-1 $366 reversed $153 $-1 #
edge $-1 $367 0 $367 6.2831853071796004 $154 $368 forward 7 unknown #
vertex $-1 $157 $369 #
ellipse-curve $-1 46.998200117830635 -27.535055187553365 7.0776836390523972 0 -0.50000000669873634 0.8660253999169214 1.5 0 0 1 I I #
coedge $-1 $251 $251 $-1 $370 reversed $160 $-1 #
edge $-1 $371 0 $371 6.2831853071796004 $161 $372 forward 7 unknown #
vertex $-1 $164 $373 #
ellipse-curve $-1 55.641587329778133 -27.535055187553365 7.0776836390523972 0 -0.50000000669873634 0.8660253999169214 1.5 0 0 1 I I #
face $-1 $-1 $267 $34 $-1 $374 forward single #
loop $-1 $-1 $375 $165 #
plane-surface $-1 0 33.508434756912102 0 0 -1 0 0 0 -1 forward_v I I I I #
coedge $-1 $376 $377 $378 $379 reversed $166 $-1 #
coedge $-1 $380 $168 $170 $265 forward $104 $-1 #
coedge $-1 $168 $380 $376 $381 forward $104 $-1 #
coedge $-1 $378 $171 $168 $262 forward $267 $-1 #
edge $-1 $269 1.5498560018096299 $382 22.472550623977327 $261 $383 forward 7 unknown #
coedge $-1 $384 $385 $169 $264 forward $256 $-1 #
edge $-1 $386 -70.793667099251579 $268 -63.381455880598324 $263 $387 forward 7 unknown #
edge $-1 $269 56.712683466745467 $386 67.01686951382419 $170 $388 forward 7 unknown #
coedge $-1 $171 $378 $384 $389 forward $267 $-1 #
loop $-1 $-1 $378 $255 #
vertex $-1 $264 $390 #
vertex $-1 $172 $391 #
straight-curve $-1 13.561059314703108 43.43834721180221 10.526416002999198 0 -1 0 I I #
coedge $-1 $271 $271 $-1 $392 reversed $175 $-1 #
edge $-1 $393 0 $393 6.2831853071796004 $176 $394 forward 7 unknown #
vertex $-1 $179 $395 #
ellipse-curve $-1 24.022406625786957 29.929490256682918 6.8203103936725684 0 0.71933980857756763 0.69465836192734942 2.5 0 0 1 I I #
face $-1 $-1 $195 $27 $-1 $396 reversed single #
loop $-1 $-1 $290 $180 #
plane-surface $-1 0 33.508434756912102 0 0 -1 0 0 0 -1 forward_v I I I I #
coedge $-1 $288 $397 $183 $280 reversed $181 $-1 #
coedge $-1 $294 $183 $184 $282 reversed $113 $-1 #
edge $-1 $295 -10.526416002999198 $398 10.526416002999198 $278 $399 forward 7 unknown #
coedge $-1 $185 $184 $397 $400 forward $73 $-1 #
edge $-1 $286 -69.454023865474412 $398 69.454023865474412 $279 $401 forward 7 unknown #
coedge $-1 $291 $290 $185 $284 reversed $276 $-1 #
edge $-1 $402 -69.454023865474412 $285 69.454023865474412 $283 $403 forward 7 unknown #
vertex $-1 $187 $404 #
vertex $-1 $297 $405 #
straight-curve $-1 69.454023865474412 0 -10.526416002999198 0 -1 0 I I #
coedge $-1 $406 $278 $188 $289 reversed $181 $-1 #
edge $-1 $292 -33.508434756912102 $295 33.508434756912102 $288 $407 forward 7 unknown #
coedge $-1 $283 $189 $194 $298 forward $276 $-1 #
coedge $-1 $189 $283 $406 $408 reversed $276 $-1 #
vertex $-1 $190 $409 #
straight-curve $-1 0 33.508434756912102 10.526416002999198 -1 0 0 I I #
coedge $-1 $191 $279 $193 $297 reversed $113 $-1 #
vertex $-1 $289 $410 #
straight-curve $-1 0 -33.508434756912102 10.526416002999198 1 0 0 I I #
edge $-1 $196 -10.526416002999198 $286 10.526416002999198 $193 $411 forward 7 unknown #
edge $-1 $197 -10.526416002999198 $285 10.526416002999198 $194 $412 forward 7 unknown #
point $-1 69.454023865474412 -33.508434756912102 10.526416002999198 #
point $-1 69.454023865474412 33.508434756912102 10.526416002999198 #
face $-1 $-1 $315 $28 $-1 $413 reversed single #
loop $-1 $-1 $311 $199 #
plane-surface $-1 0 0 -10.526416002999198 0 0 1 1 0 0 forward_v I I I I #
coedge $-1 $414 $415 $305 $416 forward $200 $-1 #
coedge $-1 $203 $202 $304 $416 reversed $77 $-1 #
coedge $-1 $311 $417 $202 $307 forward $302 $-1 #
edge $-1 $418 -77.504202259872329 $309 -69.454023865474412 $202 $419 forward 7 unknown #
edge $-1 $210 -4.0250891971989518 $420 4.0250891971989518 $203 $421 forward 7 unknown #
vertex $-1 $204 $422 #
straight-curve $-1 -69.454023865474412 33.508434756912102 0 0 0 -1 I I #
coedge $-1 $423 $306 $205 $312 forward $302 $-1 #
edge $-1 $309 -33.508434756912102 $316 33.508434756912102 $311 $424 forward 7 unknown #
coedge $-1 $425 $206 $209 $319 reversed $315 $-1 #
coedge $-1 $206 $425 $423 $426 reversed $315 $-1 #
loop $-1 $-1 $206 $301 #
vertex $-1 $426 $427 #
straight-curve $-1 -69.454023865474412 -33.508434756912102 0 0 0 1 I I #
coedge $-1 $209 $208 $415 $428 forward $121 $-1 #
edge $-1 $429 -4.0250891971989518 $211 4.0250891971989518 $313 $430 forward 7 unknown #
point $-1 -69.454023865474426 33.508434756912102 -6.0550584243577399 #
point $-1 -69.454023865474426 -33.508434756912102 -6.0550584243577399 #
face $-1 $-1 $338 $29 $-1 $431 reversed single #
loop $-1 $-1 $334 $213 #
plane-surface $-1 0 0 -10.526416002999198 0 0 1 1 0 0 forward_v I I I I #
coedge $-1 $432 $326 $433 $434 forward $214 $-1 #
coedge $-1 $325 $435 $216 $327 reversed $214 $-1 #
edge $-1 $436 -33.508434756912102 $437 33.508434756912102 $326 $438 forward 7 unknown #
coedge $-1 $218 $217 $435 $439 forward $81 $-1 #
edge $-1 $437 -4.025089197198966 $226 4.025089197198966 $217 $440 forward 7 unknown #
coedge $-1 $441 $334 $218 $331 forward $323 $-1 #
edge $-1 $332 -4.0250891971989802 $442 4.025089197198966 $218 $443 forward 7 unknown #
vertex $-1 $331 $444 #
straight-curve $-1 69.454023865474412 33.508434756912102 0 0 0 1 I I #
coedge $-1 $330 $445 $220 $335 forward $323 $-1 #
edge $-1 $339 -33.508434756912102 $332 33.508434756912102 $334 $446 forward 7 unknown #
coedge $-1 $433 $221 $445 $447 reversed $338 $-1 #
coedge $-1 $221 $433 $223 $341 reversed $338 $-1 #
loop $-1 $-1 $221 $322 #
vertex $-1 $222 $448 #
straight-curve $-1 69.454023865474412 -33.508434756912102 0 0 0 -1 I I #
edge $-1 $225 -4.025089197198966 $436 4.025089197198966 $337 $449 forward 7 unknown #
point $-1 69.454023865474426 -33.508434756912102 -6.0550584243577399 #
point $-1 69.454023865474426 33.508434756912102 -6.0550584243577399 #
loop $-1 $-1 $236 $228 #
plane-surface $-1 0 -33.508434756912102 0 0 1 0 0 0 1 forward_v I I I I #
coedge $-1 $347 $231 $233 $351 reversed $137 $-1 #
coedge $-1 $231 $346 $450 $451 reversed $137 $-1 #
coedge $-1 $239 $234 $231 $349 forward $229 $-1 #
edge $-1 $352 -29.919554158252815 $452 -17.972795019535347 $348 $453 forward 7 unknown #
coedge $-1 $233 $232 $355 $454 reversed $85 $-1 #
edge $-1 $455 -8.1518820400458524e-015 $352 13.794929270970025 $346 $456 forward 7 unknown #
vertex $-1 $235 $457 #
straight-curve $-1 23.499100058915324 -21.561675618194634 10.526416002999198 -1 0 0 I I #
coedge $-1 $450 $236 $239 $359 reversed $344 $-1 #
coedge $-1 $236 $450 $350 $454 forward $344 $-1 #
vertex $-1 $237 $458 #
straight-curve $-1 61.403845471076487 -33.508434756912102 61.963424431489678 0 0 1 I I #
straight-curve $-1 61.403845471076487 -33.508434756912095 3.6289512751055923 0 -0.8660253999169214 -0.50000000669873634 I I #
edge $-1 $452 32.592554764584811 $240 61.403845471076487 $354 $459 forward 7 unknown #
point $-1 61.403845471076487 -33.508434756912102 10.526416002999198 #
point $-1 61.403845471076487 -21.561675618194634 10.526416002999198 #
edge $-1 $460 1 $460 0 $243 $-1 forward 7 unknown #
vertex $-1 $244 $461 #
ellipse-curve $-1 38.354812905883136 -25.799620122950333 4.0718219876179713 0 -0.50000000669873634 0.8660253999169214 1.5 0 0 1 I I #
point $-1 39.854812905883136 -27.535055187553358 7.0776836390523865 #
edge $-1 $462 1 $462 0 $247 $-1 forward 7 unknown #
vertex $-1 $248 $463 #
ellipse-curve $-1 46.998200117830635 -25.799620122950333 4.0718219876179713 0 -0.50000000669873634 0.8660253999169214 1.5 0 0 1 I I #
point $-1 48.498200117830635 -27.535055187553358 7.0776836390523865 #
edge $-1 $464 1 $464 0 $251 $-1 forward 7 unknown #
vertex $-1 $252 $465 #
ellipse-curve $-1 55.641587329778133 -25.799620122950333 4.0718219876179713 0 -0.50000000669873634 0.8660253999169214 1.5 0 0 1 I I #
point $-1 57.141587329778133 -27.535055187553358 7.0776836390523865 #
plane-surface $-1 0 0 10.526416002999198 0 0 1 1 0 0 forward_v I I I I #
coedge $-1 $385 $384 $377 $466 forward $256 $-1 #
coedge $-1 $377 $258 $260 $381 reversed $166 $-1 #
coedge $-1 $258 $376 $375 $466 reversed $166 $-1 #
coedge $-1 $266 $261 $258 $379 forward $267 $-1 #
edge $-1 $382 -17.087801455348469 $467 -9.9299124548901077 $378 $468 forward 7 unknown #
coedge $-1 $260 $259 $385 $469 reversed $104 $-1 #
edge $-1 $470 -67.01686951382419 $382 -56.712683466745467 $376 $471 forward 7 unknown #
vertex $-1 $262 $472 #
straight-curve $-1 12.011203312893478 26.350545756453741 10.526416002999202 1 0 0 I I #
coedge $-1 $375 $263 $266 $389 reversed $256 $-1 #
coedge $-1 $263 $375 $380 $469 forward $256 $-1 #
vertex $-1 $264 $473 #
straight-curve $-1 13.561059314703108 33.508434756912102 73.907871883597522 0 0 1 I I #
straight-curve $-1 13.561059314703108 -13.045394041059936 51.322106871888067 0 0.69465836192734942 -0.71933980857756763 I I #
edge $-1 $467 -34.483753936870805 $268 -13.561059314703108 $384 $474 forward 7 unknown #
point $-1 13.561059314703108 33.508434756912102 10.526416002999198 #
point $-1 13.561059314703108 26.350545756453741 10.526416002999198 #
edge $-1 $475 1 $475 0 $271 $-1 forward 7 unknown #
vertex $-1 $272 $476 #
ellipse-curve $-1 24.022406625786957 26.530754003304285 3.5381890231568818 0 0.71933980857756763 0.69465836192734942 2.5 0 0 1 I I #
point $-1 26.522406625786957 29.929490256682918 6.8203103936725658 #
plane-surface $-1 69.454023865474412 0 0 -1 0 0 0 0 1 forward_v I I I I #
coedge $-1 $278 $406 $281 $400 reversed $181 $-1 #
vertex $-1 $400 $477 #
straight-curve $-1 -69.454023865474412 -33.508434756912102 0 0 0 -1 I I #
edge $-1 $398 -33.508434756912102 $402 33.508434756912102 $397 $478 forward 7 unknown #
straight-curve $-1 0 -33.508434756912102 -10.526416002999198 -1 0 0 I I #
vertex $-1 $284 $479 #
straight-curve $-1 0 33.508434756912102 -10.526416002999198 1 0 0 I I #
point $-1 69.454023865474412 33.508434756912102 -10.526416002999198 #
point $-1 69.454023865474412 -33.508434756912102 -10.526416002999198 #
coedge $-1 $397 $288 $291 $408 forward $181 $-1 #
straight-curve $-1 -69.454023865474412 0 10.526416002999198 0 -1 0 I I #
edge $-1 $292 -10.526416002999198 $402 10.526416002999198 $291 $480 forward 7 unknown #
point $-1 -69.454023865474412 33.508434756912102 10.526416002999198 #
point $-1 -69.454023865474412 -33.508434756912102 10.526416002999198 #
straight-curve $-1 69.454023865474412 -33.508434756912102 0 0 0 -1 I I #
straight-curve $-1 69.454023865474412 33.508434756912102 0 0 0 -1 I I #
plane-surface $-1 0 -33.508434756912102 0 0 1 0 0 0 1 forward_v I I I I #
coedge $-1 $481 $304 $417 $482 reversed $200 $-1 #
coedge $-1 $304 $481 $318 $428 reversed $200 $-1 #
edge $-1 $420 -2.2356787893207288 $418 2.2356787893207297 $305 $483 forward 7 unknown #
coedge $-1 $306 $423 $414 $482 forward $302 $-1 #
vertex $-1 $307 $484 #
straight-curve $-1 0 33.508434756912102 -10.526416002999198 1 0 0 I I #
vertex $-1 $308 $485 #
straight-curve $-1 -73.479113062673377 33.508434756912102 -6.0550584243577399 -1 0 0 I I #
point $-1 -69.454023865474412 33.508434756912102 -10.526416002999198 #
coedge $-1 $417 $311 $314 $426 forward $302 $-1 #
straight-curve $-1 -69.454023865474412 0 -10.526416002999198 0 -1 0 I I #
coedge $-1 $314 $313 $481 $486 forward $315 $-1 #
edge $-1 $316 -4.025089197198966 $487 4.0250891971989518 $314 $488 forward 7 unknown #
point $-1 -69.454023865474412 -33.508434756912102 -10.526416002999198 #
edge $-1 $420 -33.508434756912102 $429 33.508434756912102 $415 $489 forward 7 unknown #
vertex $-1 $428 $490 #
straight-curve $-1 -73.479113062673377 -33.508434756912102 -6.0550584243577399 1 0 0 I I #
plane-surface $-1 0 -33.508434756912102 0 0 1 0 0 0 1 forward_v I I I I #
coedge $-1 $435 $325 $441 $491 reversed $214 $-1 #
coedge $-1 $337 $336 $325 $434 reversed $338 $-1 #
edge $-1 $436 -2.2356787893207288 $492 2.2356787893207297 $325 $493 forward 7 unknown #
coedge $-1 $326 $432 $328 $439 reversed $214 $-1 #
vertex $-1 $327 $494 #
vertex $-1 $327 $495 #
straight-curve $-1 77.504202259872358 0 -6.0550584243577399 0 1 0 I I #
edge $-1 $437 -2.2356787893207288 $442 2.2356787893207297 $435 $496 forward 7 unknown #
straight-curve $-1 73.479113062673392 33.508434756912102 -6.0550584243577399 -1 0 0 I I #
coedge $-1 $445 $330 $432 $491 forward $323 $-1 #
vertex $-1 $491 $497 #
straight-curve $-1 73.479113062673392 33.508434756912102 -10.526416002999198 1 0 0 I I #
point $-1 69.454023865474412 33.508434756912102 -10.526416002999198 #
coedge $-1 $334 $441 $336 $447 forward $323 $-1 #
straight-curve $-1 69.454023865474412 0 -10.526416002999198 0 1 0 I I #
edge $-1 $492 -4.025089197198966 $339 4.0250891971989802 $336 $498 forward 7 unknown #
point $-1 69.454023865474412 -33.508434756912102 -10.526416002999198 #
straight-curve $-1 73.479113062673392 -33.508434756912102 -6.0550584243577399 1 0 0 I I #
coedge $-1 $355 $354 $347 $451 forward $344 $-1 #
edge $-1 $452 51.437008428490479 $455 58.334473156384092 $450 $499 forward 7 unknown #
vertex $-1 $359 $500 #
straight-curve $-1 32.592554764584811 -51.481229776447449 10.526416002999198 0 -1 0 I I #
edge $-1 $455 9.0934547056694868 $356 37.904745412161162 $355 $501 forward 7 unknown #
vertex $-1 $454 $502 #
straight-curve $-1 32.592554764584811 -33.508434756912095 3.6289512751055923 0 0.8660253999169214 0.50000000669873634 I I #
point $-1 32.592554764584811 -21.561675618194634 10.526416002999198 #
point $-1 61.403845471076487 -33.508434756912102 3.6289512751055883 #
straight-curve $-1 0 -33.508434756912102 10.526416002999198 1 0 0 I I #
vertex $-1 $362 $503 #
point $-1 39.854812905883136 -25.799620122950333 4.0718219876179713 #
vertex $-1 $366 $504 #
point $-1 48.498200117830635 -25.799620122950333 4.0718219876179713 #
vertex $-1 $370 $505 #
point $-1 57.141587329778133 -25.799620122950333 4.0718219876179713 #
edge $-1 $467 63.381455880598324 $470 70.793667099251579 $375 $506 forward 7 unknown #
vertex $-1 $389 $507 #
straight-curve $-1 34.483753936870805 43.43834721180221 10.526416002999198 0 1 0 I I #
edge $-1 $470 -22.472550623977327 $386 -1.5498560018096299 $385 $508 forward 7 unknown #
vertex $-1 $469 $509 #
straight-curve $-1 34.483753936870805 -13.045394041059936 51.322106871888067 0 -0.69465836192734942 0.71933980857756763 I I #
point $-1 34.483753936870805 26.350545756453741 10.526416002999198 #
point $-1 13.561059314703108 33.508434756912095 3.1142047843459437 #
straight-curve $-1 0 33.508434756912102 10.526416002999198 -1 0 0 I I #
vertex $-1 $392 $510 #
point $-1 26.522406625786957 26.530754003304285 3.5381890231568818 #
point $-1 -69.454023865474412 -33.508434756912102 -10.526416002999198 #
straight-curve $-1 -69.454023865474412 0 -10.526416002999198 0 1 0 I I #
point $-1 -69.454023865474412 33.508434756912102 -10.526416002999198 #
straight-curve $-1 -69.454023865474412 33.508434756912102 0 0 0 -1 I I #
coedge $-1 $415 $414 $425 $486 reversed $200 $-1 #
edge $-1 $487 -33.508434756912102 $418 33.508434756912102 $414 $511 forward 7 unknown #
straight-curve $-1 -77.504202259872329 33.508434756912102 -8.2907372136784687 0 0 -1 I I #
point $-1 -77.504202259872329 33.508434756912102 -10.526416002999198 #
point $-1 -77.504202259872329 33.508434756912102 -6.0550584243577399 #
edge $-1 $429 -2.2356787893207288 $487 2.2356787893207297 $481 $512 forward 7 unknown #
vertex $-1 $482 $513 #
straight-curve $-1 -73.479113062673377 -33.508434756912102 -10.526416002999198 -1 0 0 I I #
straight-curve $-1 -77.504202259872329 0 -6.0550584243577399 0 -1 0 I I #
point $-1 -77.504202259872329 -33.508434756912102 -6.0550584243577399 #
edge $-1 $442 -33.508434756912102 $492 33.508434756912102 $432 $514 forward 7 unknown #
vertex $-1 $434 $515 #
straight-curve $-1 77.504202259872358 -33.508434756912102 -8.2907372136784687 0 0 -1 I I #
point $-1 77.504202259872358 -33.508434756912102 -6.0550584243577399 #
point $-1 77.504202259872358 33.508434756912102 -6.0550584243577399 #
straight-curve $-1 77.504202259872358 33.508434756912102 -8.2907372136784687 0 0 -1 I I #
point $-1 77.504202259872358 33.508434756912102 -10.526416002999198 #
straight-curve $-1 73.479113062673392 -33.508434756912102 -10.526416002999198 -1 0 0 I I #
straight-curve $-1 32.592554764584811 -33.508434756912102 61.963424431489678 0 0 -1 I I #
point $-1 32.592554764584811 -33.508434756912102 10.526416002999198 #
straight-curve $-1 23.499100058915324 -33.508434756912102 3.6289512751055857 1 0 0 I I #
point $-1 32.592554764584811 -33.508434756912102 3.6289512751055883 #
point $-1 38.354812905883136 -25.049620112902229 2.7727838877425892 #
point $-1 46.998200117830635 -25.049620112902229 2.7727838877425892 #
point $-1 55.641587329778133 -25.049620112902229 2.7727838877425892 #
straight-curve $-1 34.483753936870805 33.508434756912102 73.907871883597522 0 0 -1 I I #
point $-1 34.483753936870805 33.508434756912102 10.526416002999198 #
straight-curve $-1 12.011203312893478 33.508434756912102 3.1142047843459473 -1 0 0 I I #
point $-1 34.483753936870805 33.508434756912095 3.1142047843459437 #
point $-1 24.022406625786957 24.732404481860367 1.8015431183385076 #
straight-curve $-1 -77.504202259872329 0 -10.526416002999198 0 1 0 I I #
straight-curve $-1 -77.504202259872329 -33.508434756912102 -8.2907372136784687 0 0 -1 I I #
point $-1 -77.504202259872329 -33.508434756912102 -10.526416002999198 #
straight-curve $-1 77.504202259872358 0 -10.526416002999198 0 -1 0 I I #
point $-1 77.504202259872358 -33.508434756912102 -10.526416002999198 #
End-of-ACIS-data 