500 0 10 0           
7 Unknown 11 ACIS 5.0 NT 24 Thu Mar 25 16:35:23 1999 
-1 9.9999999999999995e-007 1e-010 
body $-1 $10 $-1 $11 #
body $-1 $12 $-1 $13 #
body $-1 $14 $-1 $15 #
body $-1 $16 $-1 $17 #
body $-1 $18 $-1 $19 #
body $-1 $20 $-1 $21 #
body $-1 $22 $-1 $23 #
body $-1 $24 $-1 $25 #
body $-1 $26 $-1 $27 #
body $-1 $28 $-1 $29 #
lump $-1 $-1 $30 $0 #
transform $-1 1 0 0 0 1 0 0 0 1 73.444624164555805 43.779200253904463 18.311455157929082 1 rotate no_reflect no_shear #
lump $-1 $-1 $31 $1 #
transform $-1 1 0 0 0 1 0 0 0 1 73.444624164555805 43.779200253904463 18.311455157929082 1 rotate no_reflect no_shear #
lump $-1 $-1 $32 $2 #
transform $-1 1 0 0 0 1 0 0 0 1 73.444624164555805 43.779200253904463 18.311455157929082 1 rotate no_reflect no_shear #
lump $-1 $-1 $33 $3 #
transform $-1 1 0 0 0 1 0 0 0 1 73.444624164555805 43.779200253904463 18.311455157929082 1 rotate no_reflect no_shear #
lump $-1 $-1 $34 $4 #
transform $-1 1 0 0 0 1 0 0 0 1 73.444624164555805 43.779200253904463 18.311455157929082 1 rotate no_reflect no_shear #
lump $-1 $-1 $35 $5 #
transform $-1 1 0 0 0 1 0 0 0 1 73.444624164555805 43.779200253904463 18.311455157929082 1 rotate no_reflect no_shear #
lump $-1 $-1 $36 $6 #
transform $-1 1 0 0 0 1 0 0 0 1 73.444624164555805 43.779200253904463 18.311455157929082 1 rotate no_reflect no_shear #
lump $-1 $-1 $37 $7 #
transform $-1 1 0 0 0 1 0 0 0 1 73.444624164555805 43.779200253904463 18.311455157929082 1 rotate no_reflect no_shear #
lump $-1 $-1 $38 $8 #
transform $-1 1 0 0 0 1 0 0 0 1 73.444624164555805 43.779200253904463 18.311455157929082 1 rotate no_reflect no_shear #
lump $-1 $-1 $39 $9 #
transform $-1 1 0 0 0 1 0 0 0 1 73.444624164555805 43.779200253904463 18.311455157929082 1 rotate no_reflect no_shear #
shell $-1 $-1 $-1 $40 $-1 $10 #
shell $-1 $-1 $-1 $41 $-1 $12 #
shell $-1 $-1 $-1 $42 $-1 $14 #
shell $-1 $-1 $-1 $43 $-1 $16 #
shell $-1 $-1 $-1 $44 $-1 $18 #
shell $-1 $-1 $-1 $45 $-1 $20 #
shell $-1 $-1 $-1 $46 $-1 $22 #
shell $-1 $-1 $-1 $47 $-1 $24 #
shell $-1 $-1 $-1 $48 $-1 $26 #
shell $-1 $-1 $-1 $49 $-1 $28 #
face $-1 $50 $51 $30 $-1 $52 forward single #
face $-1 $53 $54 $31 $-1 $55 forward single #
face $-1 $56 $57 $32 $-1 $58 reversed single #
face $-1 $59 $60 $33 $-1 $61 forward single #
face $-1 $62 $63 $34 $-1 $64 forward single #
face $-1 $65 $66 $35 $-1 $67 forward single #
face $-1 $68 $69 $36 $-1 $70 reversed single #
face $-1 $71 $72 $37 $-1 $73 forward single #
face $-1 $74 $75 $38 $-1 $76 forward single #
face $-1 $77 $78 $39 $-1 $79 forward single #
face $-1 $80 $81 $30 $-1 $82 reversed single #
loop $-1 $-1 $83 $40 #
plane-surface $-1 0 0 18.311455157929082 0 0 1 1 0 0 forward_v I I I I #
face $-1 $84 $85 $31 $-1 $86 reversed single #
loop $-1 $-1 $87 $41 #
plane-surface $-1 -67.304103140663585 0 8.2064396458984898 0 0 1 1 0 0 forward_v I I I I #
face $-1 $88 $89 $32 $-1 $90 reversed single #
loop $-1 $-1 $91 $42 #
plane-surface $-1 37.208819692199398 -161.09017122169621 94.106144921381258 1 0 0 0 0.79863551827123203 -0.60181501223851219 forward_v I I I I #
face $-1 $92 $93 $33 $-1 $94 forward single #
loop $-1 $95 $96 $43 #
cone-surface $-1 44.455980586670663 -37.134097356776785 10.580245374951984 0 0.79863551827123203 -0.60181501223851219 2.5 0 0 1 I I 0 1 2.5 forward I I I I #
face $-1 $97 $98 $34 $-1 $99 forward single #
loop $-1 $100 $101 $44 #
cone-surface $-1 55.32672192837758 -37.134097356776785 10.580245374951984 0 0.79863551827123203 -0.60181501223851219 2.5 0 0 1 I I 0 1 2.5 forward I I I I #
face $-1 $102 $103 $35 $-1 $104 forward single #
loop $-1 $105 $106 $45 #
cone-surface $-1 66.197463270084498 -37.134097356776785 10.580245374951984 0 0.79863551827123203 -0.60181501223851219 2.5 0 0 1 I I 0 1 2.5 forward I I I I #
face $-1 $107 $108 $36 $-1 $109 reversed single #
loop $-1 $-1 $110 $46 #
plane-surface $-1 37.208819692199398 108.39621134850461 164.03339348993532 1 0 0 0 -0.79863551827123203 -0.60181501223851219 forward_v I I I I #
face $-1 $111 $112 $37 $-1 $113 forward single #
loop $-1 $114 $115 $47 #
cone-surface $-1 44.455980586670663 37.13409735677677 10.580245374951991 0 -0.79863551827123203 -0.60181501223851219 2.5 0 0 1 I I 0 1 2.5 forward I I I I #
face $-1 $116 $117 $38 $-1 $118 forward single #
loop $-1 $119 $120 $48 #
cone-surface $-1 55.32672192837758 37.13409735677677 10.580245374951991 0 -0.79863551827123203 -0.60181501223851219 2.5 0 0 1 I I 0 1 2.5 forward I I I I #
face $-1 $121 $122 $39 $-1 $123 forward single #
loop $-1 $124 $125 $49 #
cone-surface $-1 66.197463270084498 37.13409735677677 10.580245374951991 0 -0.79863551827123203 -0.60181501223851219 2.5 0 0 1 I I 0 1 2.5 forward I I I I #
face $-1 $126 $127 $30 $-1 $128 reversed single #
loop $-1 $-1 $129 $50 #
plane-surface $-1 0 0 -18.311455157929082 0 0 1 1 0 0 forward_v I I I I #
coedge $-1 $130 $131 $132 $133 forward $51 $-1 #
face $-1 $134 $135 $31 $-1 $136 reversed single #
loop $-1 $-1 $137 $53 #
plane-surface $-1 -67.304103140663585 0 2.9773895066503915 0 0 1 1 0 0 forward_v I I I I #
coedge $-1 $138 $139 $140 $141 forward $54 $-1 #
face $-1 $142 $143 $32 $-1 $144 forward single #
loop $-1 $-1 $145 $56 #
plane-surface $-1 55.326721928377609 -43.779200253904463 5.705990140491096 0 -0.79863551827123203 0.60181501223851219 1 0 0 forward_v I I I I #
coedge $-1 $146 $147 $148 $149 reversed $57 $-1 #
face $-1 $-1 $150 $33 $-1 $151 forward single #
loop $-1 $152 $153 $59 #
cone-surface $-1 44.455980586670663 -34.240149535434128 8.3994993353957312 0 0.79863551827123203 -0.60181501223851219 1.25 0 0 1 I I -0.70710678118654746 0.70710678118654746 1.25 forward I I I I #
loop $-1 $-1 $154 $43 #
coedge $-1 $96 $96 $155 $156 reversed $60 $-1 #
face $-1 $-1 $157 $34 $-1 $158 forward single #
loop $-1 $159 $160 $62 #
cone-surface $-1 55.32672192837758 -34.240149535434128 8.3994993353957312 0 0.79863551827123203 -0.60181501223851219 1.25 0 0 1 I I -0.70710678118654746 0.70710678118654746 1.25 forward I I I I #
loop $-1 $-1 $161 $44 #
coedge $-1 $101 $101 $162 $163 reversed $63 $-1 #
face $-1 $-1 $164 $35 $-1 $165 forward single #
loop $-1 $166 $167 $65 #
cone-surface $-1 66.197463270084498 -34.240149535434128 8.3994993353957312 0 0.79863551827123203 -0.60181501223851219 1.25 0 0 1 I I -0.70710678118654746 0.70710678118654746 1.25 forward I I I I #
loop $-1 $-1 $168 $45 #
coedge $-1 $106 $106 $169 $170 reversed $66 $-1 #
face $-1 $171 $172 $36 $-1 $173 reversed single #
loop $-1 $-1 $174 $68 #
plane-surface $-1 55.326721928377609 -8.914759619287139 75.633238709045159 0 0.79863551827123203 0.60181501223851219 1 0 0 forward_v I I I I #
coedge $-1 $175 $176 $177 $178 reversed $69 $-1 #
face $-1 $-1 $179 $37 $-1 $180 forward single #
loop $-1 $181 $182 $71 #
cone-surface $-1 44.455980586670663 34.240149535434114 8.3994993353957383 0 -0.79863551827123203 -0.60181501223851219 1.25 0 0 1 I I -0.70710678118654746 0.70710678118654746 1.25 forward I I I I #
loop $-1 $-1 $183 $47 #
coedge $-1 $115 $115 $184 $185 reversed $72 $-1 #
face $-1 $-1 $186 $38 $-1 $187 forward single #
loop $-1 $188 $189 $74 #
cone-surface $-1 55.32672192837758 34.240149535434114 8.3994993353957383 0 -0.79863551827123203 -0.60181501223851219 1.25 0 0 1 I I -0.70710678118654746 0.70710678118654746 1.25 forward I I I I #
loop $-1 $-1 $190 $48 #
coedge $-1 $120 $120 $191 $192 reversed $75 $-1 #
face $-1 $-1 $193 $39 $-1 $194 forward single #
loop $-1 $195 $196 $77 #
cone-surface $-1 66.197463270084498 34.240149535434114 8.3994993353957383 0 -0.79863551827123203 -0.60181501223851219 1.25 0 0 1 I I -0.70710678118654746 0.70710678118654746 1.25 forward I I I I #
loop $-1 $-1 $197 $49 #
coedge $-1 $125 $125 $198 $199 reversed $78 $-1 #
face $-1 $200 $201 $30 $-1 $202 reversed single #
loop $-1 $-1 $203 $80 #
plane-surface $-1 0 -43.779200253904463 0 0 1 0 0 0 1 forward_v I I I I #
coedge $-1 $204 $205 $206 $207 forward $81 $-1 #
coedge $-1 $208 $83 $209 $210 forward $51 $-1 #
coedge $-1 $83 $208 $211 $212 forward $51 $-1 #
coedge $-1 $213 $214 $83 $133 reversed $215 $-1 #
edge $-1 $216 -43.779200253904463 $217 43.779200253904463 $132 $218 forward 7 unknown #
face $-1 $219 $220 $31 $-1 $221 reversed single #
loop $-1 $-1 $222 $84 #
plane-surface $-1 -61.163582116771366 0 5.5919145762744407 -1 0 0 0 0 1 forward_v I I I I #
coedge $-1 $223 $224 $225 $226 forward $85 $-1 #
coedge $-1 $227 $87 $228 $229 reversed $54 $-1 #
coedge $-1 $87 $227 $230 $231 reversed $54 $-1 #
coedge $-1 $222 $232 $87 $141 reversed $135 $-1 #
edge $-1 $233 -43.779200253904463 $234 43.779200253904463 $140 $235 forward 7 unknown #
face $-1 $236 $237 $32 $-1 $238 reversed single #
loop $-1 $-1 $239 $88 #
plane-surface $-1 0 0 18.311455157929082 0 0 1 1 0 0 forward_v I I I I #
coedge $-1 $240 $241 $242 $243 reversed $89 $-1 #
coedge $-1 $147 $91 $244 $245 reversed $57 $-1 #
coedge $-1 $91 $146 $240 $246 reversed $57 $-1 #
coedge $-1 $242 $247 $91 $149 forward $237 $-1 #
edge $-1 $248 28.741617302761547 $249 41.347082320199533 $148 $250 forward 7 unknown #
loop $-1 $-1 $155 $92 #
plane-surface $-1 55.326721928377609 -43.779200253904463 5.705990140491096 0 -0.79863551827123203 0.60181501223851219 1 0 0 forward_v I I I I #
loop $-1 $-1 $251 $59 #
coedge $-1 $153 $153 $154 $252 reversed $93 $-1 #
coedge $-1 $154 $154 $153 $252 forward $95 $-1 #
coedge $-1 $155 $155 $96 $156 forward $150 $-1 #
edge $-1 $253 5.5939752324070413e-016 $253 6.2831853071796013 $155 $254 forward 7 unknown #
loop $-1 $-1 $162 $97 #
plane-surface $-1 55.326721928377609 -43.779200253904463 5.705990140491096 0 -0.79863551827123203 0.60181501223851219 1 0 0 forward_v I I I I #
loop $-1 $-1 $255 $62 #
coedge $-1 $160 $160 $161 $256 reversed $98 $-1 #
coedge $-1 $161 $161 $160 $256 forward $100 $-1 #
coedge $-1 $162 $162 $101 $163 forward $157 $-1 #
edge $-1 $257 5.5939752324070413e-016 $257 6.2831853071796013 $162 $258 forward 7 unknown #
loop $-1 $-1 $169 $102 #
plane-surface $-1 55.326721928377609 -43.779200253904463 5.705990140491096 0 -0.79863551827123203 0.60181501223851219 1 0 0 forward_v I I I I #
loop $-1 $-1 $259 $65 #
coedge $-1 $167 $167 $168 $260 reversed $103 $-1 #
coedge $-1 $168 $168 $167 $260 forward $105 $-1 #
coedge $-1 $169 $169 $106 $170 forward $164 $-1 #
edge $-1 $261 5.5939752324070413e-016 $261 6.2831853071796013 $169 $262 forward 7 unknown #
face $-1 $263 $264 $36 $-1 $265 forward single #
loop $-1 $-1 $266 $107 #
plane-surface $-1 73.444624164555805 0 0 -1 0 0 0 0 1 forward_v I I I I #
coedge $-1 $267 $268 $269 $270 reversed $108 $-1 #
coedge $-1 $176 $110 $271 $272 reversed $69 $-1 #
coedge $-1 $110 $175 $267 $273 reversed $69 $-1 #
coedge $-1 $269 $274 $110 $178 forward $264 $-1 #
edge $-1 $275 10.418905420347841 $276 19.91780436759602 $177 $277 forward 7 unknown #
loop $-1 $-1 $184 $111 #
plane-surface $-1 55.326721928377609 -8.914759619287139 75.633238709045159 0 0.79863551827123203 0.60181501223851219 1 0 0 forward_v I I I I #
loop $-1 $-1 $278 $71 #
coedge $-1 $182 $182 $183 $279 reversed $112 $-1 #
coedge $-1 $183 $183 $182 $279 forward $114 $-1 #
coedge $-1 $184 $184 $115 $185 forward $179 $-1 #
edge $-1 $280 -1.1107279036944859e-015 $280 6.2831853071795996 $184 $281 forward 7 unknown #
loop $-1 $-1 $191 $116 #
plane-surface $-1 55.326721928377609 -8.914759619287139 75.633238709045159 0 0.79863551827123203 0.60181501223851219 1 0 0 forward_v I I I I #
loop $-1 $-1 $282 $74 #
coedge $-1 $189 $189 $190 $283 reversed $117 $-1 #
coedge $-1 $190 $190 $189 $283 forward $119 $-1 #
coedge $-1 $191 $191 $120 $192 forward $186 $-1 #
edge $-1 $284 -1.1107279036944859e-015 $284 6.2831853071795996 $191 $285 forward 7 unknown #
loop $-1 $-1 $198 $121 #
plane-surface $-1 55.326721928377609 -8.914759619287139 75.633238709045159 0 0.79863551827123203 0.60181501223851219 1 0 0 forward_v I I I I #
loop $-1 $-1 $286 $77 #
coedge $-1 $196 $196 $197 $287 reversed $122 $-1 #
coedge $-1 $197 $197 $196 $287 forward $124 $-1 #
coedge $-1 $198 $198 $125 $199 forward $193 $-1 #
edge $-1 $288 -1.1107279036944859e-015 $288 6.2831853071795996 $198 $289 forward 7 unknown #
face $-1 $290 $291 $30 $-1 $292 reversed single #
loop $-1 $-1 $293 $126 #
plane-surface $-1 -73.444624164555805 0 0 1 0 0 0 0 -1 forward_v I I I I #
coedge $-1 $294 $211 $295 $296 forward $127 $-1 #
coedge $-1 $297 $129 $294 $298 forward $81 $-1 #
coedge $-1 $129 $297 $299 $300 forward $81 $-1 #
coedge $-1 $214 $213 $129 $207 reversed $215 $-1 #
edge $-1 $301 -43.779200253904463 $302 43.779200253904463 $206 $303 forward 7 unknown #
coedge $-1 $131 $130 $304 $305 forward $51 $-1 #
coedge $-1 $306 $307 $130 $210 reversed $291 $-1 #
edge $-1 $217 -73.444624164555805 $308 73.444624164555805 $209 $309 forward 7 unknown #
coedge $-1 $203 $310 $131 $212 reversed $127 $-1 #
edge $-1 $311 -73.444624164555805 $216 73.444624164555805 $211 $312 forward 7 unknown #
coedge $-1 $206 $132 $310 $313 forward $215 $-1 #
coedge $-1 $132 $206 $306 $314 reversed $215 $-1 #
loop $-1 $-1 $213 $290 #
vertex $-1 $133 $315 #
vertex $-1 $133 $316 #
straight-curve $-1 73.444624164555805 0 18.311455157929082 0 1 0 I I #
face $-1 $317 $318 $31 $-1 $319 reversed single #
loop $-1 $-1 $320 $134 #
plane-surface $-1 0 -43.779200253904463 0 0 1 0 0 0 1 forward_v I I I I #
coedge $-1 $225 $140 $321 $322 reversed $135 $-1 #
coedge $-1 $323 $137 $320 $324 reversed $85 $-1 #
coedge $-1 $137 $323 $325 $326 reversed $85 $-1 #
coedge $-1 $232 $222 $137 $226 reversed $135 $-1 #
edge $-1 $327 -43.779200253904463 $328 43.779200253904463 $225 $329 forward 7 unknown #
coedge $-1 $139 $138 $330 $331 reversed $54 $-1 #
coedge $-1 $332 $333 $138 $229 forward $334 $-1 #
edge $-1 $335 -39.792572594224012 $234 -27.511530546439573 $228 $336 forward 7 unknown #
coedge $-1 $337 $321 $139 $231 forward $220 $-1 #
edge $-1 $233 27.511530546439573 $338 39.792572594224012 $230 $339 forward 7 unknown #
coedge $-1 $140 $225 $332 $340 reversed $135 $-1 #
vertex $-1 $231 $341 #
vertex $-1 $229 $342 #
straight-curve $-1 -61.163582116771366 0 8.2064396458984898 0 1 0 I I #
face $-1 $-1 $343 $32 $-1 $344 reversed single #
loop $-1 $-1 $148 $142 #
plane-surface $-1 0 -43.779200253904463 0 0 1 0 0 0 1 forward_v I I I I #
coedge $-1 $244 $345 $346 $347 forward $143 $-1 #
coedge $-1 $346 $145 $147 $246 forward $89 $-1 #
coedge $-1 $145 $346 $348 $349 reversed $89 $-1 #
coedge $-1 $350 $148 $145 $243 forward $237 $-1 #
edge $-1 $249 9.545458728010594 $351 45.781263200367015 $242 $352 forward 7 unknown #
coedge $-1 $353 $239 $146 $245 forward $143 $-1 #
edge $-1 $354 -46.264784304191778 $248 -36.765885356943642 $244 $355 forward 7 unknown #
edge $-1 $249 0 $354 15.783752073441999 $147 $356 forward 7 unknown #
coedge $-1 $148 $350 $353 $357 reversed $237 $-1 #
vertex $-1 $357 $358 #
vertex $-1 $149 $359 #
straight-curve $-1 37.208819692199398 -43.779200253904463 47.053072460690629 0 0 -1 I I #
coedge $-1 $251 $251 $-1 $360 reversed $152 $-1 #
edge $-1 $361 0 $361 6.2831853071796004 $153 $362 forward 7 unknown #
vertex $-1 $156 $363 #
ellipse-curve $-1 44.455980586670663 -39.029750780280388 12.008722649210091 0 -0.79863551827123203 0.60181501223851219 2.5 0 0 1 I I #
coedge $-1 $255 $255 $-1 $364 reversed $159 $-1 #
edge $-1 $365 0 $365 6.2831853071796004 $160 $366 forward 7 unknown #
vertex $-1 $163 $367 #
ellipse-curve $-1 55.32672192837758 -39.029750780280388 12.008722649210091 0 -0.79863551827123203 0.60181501223851219 2.5 0 0 1 I I #
coedge $-1 $259 $259 $-1 $368 reversed $166 $-1 #
edge $-1 $369 0 $369 6.2831853071796004 $167 $370 forward 7 unknown #
vertex $-1 $170 $371 #
ellipse-curve $-1 66.197463270084498 -39.029750780280388 12.008722649210091 0 -0.79863551827123203 0.60181501223851219 2.5 0 0 1 I I #
face $-1 $-1 $372 $36 $-1 $373 reversed single #
loop $-1 $-1 $269 $171 #
plane-surface $-1 0 0 18.311455157929082 0 0 1 1 0 0 forward_v I I I I #
coedge $-1 $374 $375 $268 $376 forward $172 $-1 #
coedge $-1 $377 $174 $176 $273 forward $108 $-1 #
coedge $-1 $174 $377 $266 $376 reversed $108 $-1 #
coedge $-1 $378 $177 $174 $270 forward $264 $-1 #
edge $-1 $276 9.545458728010594 $379 45.781263200367015 $269 $380 forward 7 unknown #
coedge $-1 $381 $382 $175 $272 forward $372 $-1 #
edge $-1 $383 -76.310706604476607 $275 -63.705241587038579 $271 $384 forward 7 unknown #
edge $-1 $276 71.774648434366895 $383 87.55840050780894 $176 $385 forward 7 unknown #
coedge $-1 $177 $378 $381 $386 forward $264 $-1 #
vertex $-1 $272 $387 #
vertex $-1 $178 $388 #
straight-curve $-1 37.208819692199398 54.198105674252304 18.311455157929089 0 -1 0 I I #
coedge $-1 $278 $278 $-1 $389 reversed $181 $-1 #
edge $-1 $390 0 $390 6.2831853071796004 $182 $391 forward 7 unknown #
vertex $-1 $185 $392 #
ellipse-curve $-1 44.455980586670663 39.029750780280359 12.008722649210085 0 0.79863551827123203 0.60181501223851219 2.5 0 0 1 I I #
coedge $-1 $282 $282 $-1 $393 reversed $188 $-1 #
edge $-1 $394 0 $394 6.2831853071796004 $189 $395 forward 7 unknown #
vertex $-1 $192 $396 #
ellipse-curve $-1 55.32672192837758 39.029750780280359 12.008722649210085 0 0.79863551827123203 0.60181501223851219 2.5 0 0 1 I I #
coedge $-1 $286 $286 $-1 $397 reversed $195 $-1 #
edge $-1 $398 0 $398 6.2831853071796004 $196 $399 forward 7 unknown #
vertex $-1 $199 $400 #
ellipse-curve $-1 66.197463270084498 39.029750780280359 12.008722649210085 0 0.79863551827123203 0.60181501223851219 2.5 0 0 1 I I #
face $-1 $-1 $215 $30 $-1 $401 reversed single #
loop $-1 $-1 $306 $200 #
plane-surface $-1 0 43.779200253904463 0 0 -1 0 0 0 -1 forward_v I I I I #
coedge $-1 $402 $304 $307 $403 forward $201 $-1 #
coedge $-1 $310 $203 $204 $298 reversed $127 $-1 #
coedge $-1 $304 $402 $203 $296 reversed $201 $-1 #
edge $-1 $311 -18.311455157929082 $404 18.311455157929082 $295 $405 forward 7 unknown #
coedge $-1 $205 $204 $402 $406 forward $81 $-1 #
edge $-1 $302 -73.444624164555805 $404 73.444624164555805 $294 $407 forward 7 unknown #
coedge $-1 $307 $306 $205 $300 reversed $291 $-1 #
edge $-1 $408 -73.444624164555805 $301 73.444624164555805 $299 $409 forward 7 unknown #
vertex $-1 $207 $410 #
vertex $-1 $313 $411 #
straight-curve $-1 73.444624164555805 0 -18.311455157929082 0 -1 0 I I #
coedge $-1 $293 $295 $208 $305 reversed $201 $-1 #
edge $-1 $308 -43.779200253904463 $311 43.779200253904463 $304 $412 forward 7 unknown #
coedge $-1 $299 $209 $214 $314 forward $291 $-1 #
coedge $-1 $209 $299 $293 $403 reversed $291 $-1 #
vertex $-1 $210 $413 #
straight-curve $-1 0 43.779200253904463 18.311455157929082 -1 0 0 I I #
coedge $-1 $211 $294 $213 $313 reversed $127 $-1 #
vertex $-1 $305 $414 #
straight-curve $-1 0 -43.779200253904463 18.311455157929082 1 0 0 I I #
edge $-1 $216 -18.311455157929082 $302 18.311455157929082 $213 $415 forward 7 unknown #
edge $-1 $217 -18.311455157929082 $301 18.311455157929082 $214 $416 forward 7 unknown #
point $-1 73.444624164555805 -43.779200253904463 18.311455157929082 #
point $-1 73.444624164555805 43.779200253904463 18.311455157929082 #
face $-1 $-1 $334 $31 $-1 $417 reversed single #
loop $-1 $-1 $418 $219 #
plane-surface $-1 -73.444624164555805 0 0 1 0 0 0 0 -1 forward_v I I I I #
coedge $-1 $321 $337 $223 $324 forward $220 $-1 #
coedge $-1 $230 $320 $222 $322 forward $220 $-1 #
edge $-1 $328 0.18143221851317115 $233 5.4104823577612695 $321 $419 forward 7 unknown #
coedge $-1 $224 $223 $418 $420 reversed $85 $-1 #
edge $-1 $421 -39.792572594224012 $328 -27.511530546439573 $320 $422 forward 7 unknown #
coedge $-1 $333 $332 $224 $326 forward $334 $-1 #
edge $-1 $327 27.511530546439573 $423 39.792572594224012 $325 $424 forward 7 unknown #
vertex $-1 $326 $425 #
vertex $-1 $324 $426 #
straight-curve $-1 -61.163582116771366 0 2.9773895066503915 0 -1 0 I I #
coedge $-1 $427 $428 $227 $331 forward $318 $-1 #
edge $-1 $338 -43.779200253904463 $335 43.779200253904463 $330 $429 forward 7 unknown #
coedge $-1 $325 $228 $232 $340 forward $334 $-1 #
coedge $-1 $228 $325 $427 $430 reversed $334 $-1 #
loop $-1 $-1 $325 $317 #
vertex $-1 $430 $431 #
straight-curve $-1 -33.652051570331793 43.779200253904463 8.2064396458984898 1 0 0 I I #
coedge $-1 $320 $230 $428 $432 forward $220 $-1 #
vertex $-1 $432 $433 #
straight-curve $-1 -33.652051570331793 -43.779200253904463 8.2064396458984898 -1 0 0 I I #
edge $-1 $234 -5.4104823577612695 $327 -0.18143221851317115 $332 $434 forward 7 unknown #
point $-1 -61.163582116771366 -43.779200253904463 8.2064396458984898 #
point $-1 -61.163582116771366 43.779200253904463 8.2064396458984898 #
loop $-1 $-1 $348 $236 #
plane-surface $-1 73.444624164555805 0 0 -1 0 0 0 0 1 forward_v I I I I #
coedge $-1 $239 $353 $435 $436 forward $143 $-1 #
coedge $-1 $241 $240 $239 $347 reversed $89 $-1 #
edge $-1 $437 -45.781263200367015 $354 -9.545458728010594 $239 $438 forward 7 unknown #
coedge $-1 $435 $439 $241 $349 forward $343 $-1 #
edge $-1 $351 -10.894986771747071 $437 4.888765301694928 $348 $440 forward 7 unknown #
coedge $-1 $247 $242 $439 $441 reversed $237 $-1 #
vertex $-1 $243 $442 #
straight-curve $-1 27.663360964188804 -43.779200253904463 5.7059901404910915 1 0 0 I I #
coedge $-1 $345 $244 $247 $357 forward $143 $-1 #
vertex $-1 $245 $443 #
straight-curve $-1 37.208819692199398 -80.545085610848105 18.311455157929082 0 -1 0 I I #
straight-curve $-1 37.208819692199398 -43.779200253904463 5.705990140491096 0 0.60181501223851219 0.79863551827123203 I I #
edge $-1 $248 37.208819692199398 $444 73.444624164555805 $247 $445 forward 7 unknown #
point $-1 37.208819692199398 -43.779200253904463 18.311455157929082 #
point $-1 37.208819692199398 -43.779200253904463 5.705990140491096 #
edge $-1 $446 1 $446 0 $251 $-1 forward 7 unknown #
vertex $-1 $252 $447 #
ellipse-curve $-1 44.455980586670663 -35.238443933273167 9.1517681006938716 0 -0.79863551827123203 0.60181501223851219 2.5 0 0 1 I I #
point $-1 46.955980586670663 -39.029750780280395 12.008722649210098 #
edge $-1 $448 1 $448 0 $255 $-1 forward 7 unknown #
vertex $-1 $256 $449 #
ellipse-curve $-1 55.32672192837758 -35.238443933273167 9.1517681006938716 0 -0.79863551827123203 0.60181501223851219 2.5 0 0 1 I I #
point $-1 57.82672192837758 -39.029750780280395 12.008722649210098 #
edge $-1 $450 1 $450 0 $259 $-1 forward 7 unknown #
vertex $-1 $260 $451 #
ellipse-curve $-1 66.197463270084498 -35.238443933273167 9.1517681006938716 0 -0.79863551827123203 0.60181501223851219 2.5 0 0 1 I I #
point $-1 68.697463270084498 -39.029750780280395 12.008722649210098 #
loop $-1 $-1 $271 $263 #
plane-surface $-1 0 43.779200253904463 0 0 -1 0 0 0 -1 forward_v I I I I #
coedge $-1 $375 $266 $452 $453 reversed $172 $-1 #
coedge $-1 $266 $374 $378 $454 reversed $172 $-1 #
edge $-1 $379 38.890434952209503 $455 54.674187025651555 $266 $456 forward 7 unknown #
coedge $-1 $268 $267 $382 $457 reversed $108 $-1 #
coedge $-1 $274 $269 $375 $454 forward $264 $-1 #
vertex $-1 $454 $458 #
straight-curve $-1 27.663360964188804 34.280301306656277 18.311455157929082 1 0 0 I I #
coedge $-1 $452 $271 $274 $386 reversed $372 $-1 #
coedge $-1 $271 $452 $377 $457 forward $372 $-1 #
vertex $-1 $272 $459 #
straight-curve $-1 37.208819692199398 43.779200253904463 82.01669674496766 0 0 1 I I #
straight-curve $-1 37.208819692199398 -8.914759619287139 75.633238709045159 0 0.60181501223851219 -0.79863551827123203 I I #
edge $-1 $460 -73.444624164555805 $275 -37.208819692199398 $381 $461 forward 7 unknown #
point $-1 37.208819692199398 43.779200253904463 18.311455157929082 #
point $-1 37.208819692199398 34.280301306656284 18.311455157929082 #
edge $-1 $462 1 $462 0 $278 $-1 forward 7 unknown #
vertex $-1 $279 $463 #
ellipse-curve $-1 44.455980586670663 35.238443933273153 9.1517681006938787 0 0.79863551827123203 0.60181501223851219 2.5 0 0 1 I I #
point $-1 46.955980586670663 39.029750780280381 12.008722649210105 #
edge $-1 $464 1 $464 0 $282 $-1 forward 7 unknown #
vertex $-1 $283 $465 #
ellipse-curve $-1 55.32672192837758 35.238443933273153 9.1517681006938787 0 0.79863551827123203 0.60181501223851219 2.5 0 0 1 I I #
point $-1 57.82672192837758 39.029750780280381 12.008722649210105 #
edge $-1 $466 1 $466 0 $286 $-1 forward 7 unknown #
vertex $-1 $287 $467 #
ellipse-curve $-1 66.197463270084498 35.238443933273153 9.1517681006938787 0 0.79863551827123203 0.60181501223851219 2.5 0 0 1 I I #
point $-1 68.697463270084498 39.029750780280381 12.008722649210105 #
plane-surface $-1 73.444624164555805 0 0 -1 0 0 0 0 1 forward_v I I I I #
coedge $-1 $295 $293 $297 $406 reversed $201 $-1 #
edge $-1 $308 -18.311455157929082 $408 18.311455157929082 $307 $468 forward 7 unknown #
vertex $-1 $406 $469 #
straight-curve $-1 -73.444624164555805 -43.779200253904463 0 0 0 -1 I I #
edge $-1 $404 -43.779200253904463 $408 43.779200253904463 $402 $470 forward 7 unknown #
straight-curve $-1 0 -43.779200253904463 -18.311455157929082 -1 0 0 I I #
vertex $-1 $300 $471 #
straight-curve $-1 0 43.779200253904463 -18.311455157929082 1 0 0 I I #
point $-1 73.444624164555805 43.779200253904463 -18.311455157929082 #
point $-1 73.444624164555805 -43.779200253904463 -18.311455157929082 #
straight-curve $-1 -73.444624164555805 0 18.311455157929082 0 -1 0 I I #
point $-1 -73.444624164555805 43.779200253904463 18.311455157929082 #
point $-1 -73.444624164555805 -43.779200253904463 18.311455157929082 #
straight-curve $-1 73.444624164555805 -43.779200253904463 0 0 0 -1 I I #
straight-curve $-1 73.444624164555805 43.779200253904463 0 0 0 -1 I I #
plane-surface $-1 0 43.779200253904463 0 0 -1 0 0 0 -1 forward_v I I I I #
coedge $-1 $428 $427 $323 $420 forward $318 $-1 #
straight-curve $-1 -61.163582116771366 -43.779200253904463 2.7959572881372203 0 0 1 I I #
edge $-1 $423 -43.779200253904463 $421 43.779200253904463 $418 $472 forward 7 unknown #
vertex $-1 $324 $473 #
straight-curve $-1 -33.652051570331793 -43.779200253904463 2.9773895066503915 1 0 0 I I #
vertex $-1 $326 $474 #
straight-curve $-1 -33.652051570331793 43.779200253904463 2.9773895066503915 -1 0 0 I I #
point $-1 -61.163582116771366 43.779200253904463 2.9773895066503915 #
point $-1 -61.163582116771366 -43.779200253904463 2.9773895066503915 #
coedge $-1 $418 $330 $333 $430 forward $318 $-1 #
coedge $-1 $330 $418 $337 $432 reversed $318 $-1 #
straight-curve $-1 -73.444624164555805 0 8.2064396458984898 0 1 0 I I #
edge $-1 $335 -8.2064396458984898 $423 -2.9773895066503915 $333 $475 forward 7 unknown #
point $-1 -73.444624164555805 43.779200253904463 8.2064396458984898 #
edge $-1 $338 -8.2064396458984898 $421 -2.9773895066503915 $428 $476 forward 7 unknown #
point $-1 -73.444624164555805 -43.779200253904463 8.2064396458984898 #
straight-curve $-1 -61.163582116771366 43.779200253904463 2.7959572881372203 0 0 -1 I I #
coedge $-1 $439 $348 $345 $436 reversed $343 $-1 #
edge $-1 $444 -43.779200253904463 $437 -34.280301306656327 $435 $477 forward 7 unknown #
vertex $-1 $349 $478 #
straight-curve $-1 27.663360964188804 -34.280301306656327 18.311455157929082 -1 0 0 I I #
coedge $-1 $348 $435 $350 $441 forward $343 $-1 #
straight-curve $-1 73.444624164555805 -37.222433656527073 14.407113547503537 0 0.60181501223851219 0.79863551827123203 I I #
edge $-1 $444 -18.311455157929082 $351 -5.705990140491096 $439 $479 forward 7 unknown #
point $-1 73.444624164555819 -43.779200253904463 5.705990140491096 #
point $-1 37.208819692199398 -34.280301306656327 18.311455157929082 #
vertex $-1 $436 $480 #
straight-curve $-1 0 -43.779200253904463 18.311455157929082 1 0 0 I I #
vertex $-1 $360 $481 #
point $-1 46.955980586670663 -35.238443933273167 9.1517681006938716 #
vertex $-1 $364 $482 #
point $-1 57.82672192837758 -35.238443933273167 9.1517681006938716 #
vertex $-1 $368 $483 #
point $-1 68.697463270084498 -35.238443933273167 9.1517681006938716 #
coedge $-1 $382 $381 $374 $453 forward $372 $-1 #
edge $-1 $460 -18.311455157929082 $455 -5.7059901404910534 $374 $484 forward 7 unknown #
edge $-1 $379 34.280301306656284 $460 43.779200253904463 $375 $485 forward 7 unknown #
vertex $-1 $376 $486 #
straight-curve $-1 73.444624164555805 10.875453719931256 49.370737831780559 0 0.60181501223851219 -0.79863551827123203 I I #
edge $-1 $455 -45.781263200367015 $383 -9.545458728010594 $382 $487 forward 7 unknown #
point $-1 73.444624164555819 34.280301306656284 18.311455157929082 #
point $-1 37.208819692199398 43.779200253904456 5.7059901404910534 #
vertex $-1 $454 $488 #
straight-curve $-1 0 43.779200253904463 18.311455157929082 -1 0 0 I I #
vertex $-1 $389 $489 #
point $-1 46.955980586670663 35.238443933273153 9.1517681006938787 #
vertex $-1 $393 $490 #
point $-1 57.82672192837758 35.238443933273153 9.1517681006938787 #
vertex $-1 $397 $491 #
point $-1 68.697463270084498 35.238443933273153 9.1517681006938787 #
straight-curve $-1 -73.444624164555805 43.779200253904463 0 0 0 -1 I I #
point $-1 -73.444624164555805 -43.779200253904463 -18.311455157929082 #
straight-curve $-1 -73.444624164555805 0 -18.311455157929082 0 1 0 I I #
point $-1 -73.444624164555805 43.779200253904463 -18.311455157929082 #
straight-curve $-1 -73.444624164555805 0 2.9773895066503915 0 -1 0 I I #
point $-1 -73.444624164555805 -43.779200253904463 2.9773895066503915 #
point $-1 -73.444624164555805 43.779200253904463 2.9773895066503915 #
straight-curve $-1 -73.444624164555805 43.779200253904463 0 0 0 -1 I I #
straight-curve $-1 -73.444624164555805 -43.779200253904463 0 0 0 -1 I I #
straight-curve $-1 73.444624164555805 0 18.311455157929082 0 1 0 I I #
point $-1 73.444624164555819 -34.280301306656327 18.311455157929082 #
straight-curve $-1 73.444624164555805 -43.779200253904463 0 0 0 -1 I I #
point $-1 73.444624164555805 -43.779200253904463 18.311455157929082 #
point $-1 44.455980586670663 -33.241855137595088 7.6472305700975909 #
point $-1 55.32672192837758 -33.241855137595088 7.6472305700975909 #
point $-1 66.197463270084498 -33.241855137595088 7.6472305700975909 #
straight-curve $-1 73.444624164555805 43.779200253904463 0 0 0 -1 I I #
straight-curve $-1 73.444624164555805 0 18.311455157929082 0 1 0 I I #
point $-1 73.444624164555819 43.779200253904456 5.7059901404910534 #
straight-curve $-1 27.663360964188804 43.779200253904463 5.7059901404910462 -1 0 0 I I #
point $-1 73.444624164555805 43.779200253904463 18.311455157929082 #
point $-1 44.455980586670663 33.241855137595074 7.647230570097598 #
point $-1 55.32672192837758 33.241855137595074 7.647230570097598 #
point $-1 66.197463270084498 33.241855137595074 7.647230570097598 #
End-of-ACIS-data 