500 0 9 0           
7 Unknown 11 ACIS 5.0 NT 24 Thu Mar 25 15:34:47 1999 
-1 9.9999999999999995e-007 1e-010 
body $-1 $9 $-1 $10 #
body $-1 $11 $-1 $12 #
body $-1 $13 $-1 $14 #
body $-1 $15 $-1 $16 #
body $-1 $17 $-1 $18 #
body $-1 $19 $-1 $20 #
body $-1 $21 $-1 $22 #
body $-1 $23 $-1 $24 #
body $-1 $25 $-1 $26 #
lump $-1 $-1 $27 $0 #
transform $-1 1 0 0 0 1 0 0 0 1 68.277230140079951 37.338999535268677 9.0646241524461111 1 rotate no_reflect no_shear #
lump $-1 $-1 $28 $1 #
transform $-1 1 0 0 0 1 0 0 0 1 68.277230140079951 37.338999535268677 9.0646241524461111 1 rotate no_reflect no_shear #
lump $-1 $-1 $29 $2 #
transform $-1 1 0 0 0 1 0 0 0 1 68.277230140079951 37.338999535268677 9.0646241524461111 1 rotate no_reflect no_shear #
lump $-1 $-1 $30 $3 #
transform $-1 1 0 0 0 1 0 0 0 1 68.277230140079951 37.338999535268677 9.0646241524461111 1 rotate no_reflect no_shear #
lump $-1 $-1 $31 $4 #
transform $-1 1 0 0 0 1 0 0 0 1 68.277230140079951 37.338999535268677 9.0646241524461111 1 rotate no_reflect no_shear #
lump $-1 $-1 $32 $5 #
transform $-1 1 0 0 0 1 0 0 0 1 68.277230140079951 37.338999535268677 9.0646241524461111 1 rotate no_reflect no_shear #
lump $-1 $-1 $33 $6 #
transform $-1 1 0 0 0 1 0 0 0 1 68.277230140079951 37.338999535268677 9.0646241524461111 1 rotate no_reflect no_shear #
lump $-1 $-1 $34 $7 #
transform $-1 1 0 0 0 1 0 0 0 1 68.277230140079951 37.338999535268677 9.0646241524461111 1 rotate no_reflect no_shear #
lump $-1 $-1 $35 $8 #
transform $-1 1 0 0 0 1 0 0 0 1 68.277230140079951 37.338999535268677 9.0646241524461111 1 rotate no_reflect no_shear #
shell $-1 $-1 $-1 $36 $-1 $9 #
shell $-1 $-1 $-1 $37 $-1 $11 #
shell $-1 $-1 $-1 $38 $-1 $13 #
shell $-1 $-1 $-1 $39 $-1 $15 #
shell $-1 $-1 $-1 $40 $-1 $17 #
shell $-1 $-1 $-1 $41 $-1 $19 #
shell $-1 $-1 $-1 $42 $-1 $21 #
shell $-1 $-1 $-1 $43 $-1 $23 #
shell $-1 $-1 $-1 $44 $-1 $25 #
face $-1 $45 $46 $27 $-1 $47 forward single #
face $-1 $48 $49 $28 $-1 $50 forward single #
face $-1 $51 $52 $29 $-1 $53 forward single #
face $-1 $54 $55 $30 $-1 $56 reversed single #
face $-1 $57 $58 $31 $-1 $59 forward single #
face $-1 $60 $61 $32 $-1 $62 forward single #
face $-1 $63 $64 $33 $-1 $65 reversed single #
face $-1 $66 $67 $34 $-1 $68 forward single #
face $-1 $69 $70 $35 $-1 $71 forward single #
face $-1 $72 $73 $27 $-1 $74 reversed single #
loop $-1 $-1 $75 $36 #
plane-surface $-1 0 0 9.0646241524461111 0 0 1 1 0 0 forward_v I I I I #
face $-1 $76 $77 $28 $-1 $78 forward single #
loop $-1 $-1 $79 $37 #
plane-surface $-1 0 -37.338999535268677 0 0 1 0 0 0 1 forward_v I I I I #
face $-1 $80 $81 $29 $-1 $82 reversed single #
loop $-1 $-1 $83 $38 #
plane-surface $-1 0 37.338999535268677 0 0 -1 0 0 0 -1 forward_v I I I I #
face $-1 $84 $85 $30 $-1 $86 reversed single #
loop $-1 $-1 $87 $39 #
plane-surface $-1 85.10850298542772 -9.0012284855617377 195.29014394318651 0 -1 0 -0.7660444514056185 0 -0.64278759981090561 forward_v I I I I #
face $-1 $88 $89 $31 $-1 $90 forward single #
loop $-1 $91 $92 $40 #
cone-surface $-1 65.208453296412856 -20.102048609264166 5.5786825480290911 -0.7660444514056185 0 -0.64278759981090561 0.64278759981090561 0 -0.7660444514056185 1 I I 0 1 1 forward I I I I #
face $-1 $93 $94 $32 $-1 $95 forward single #
loop $-1 $96 $97 $41 #
cone-surface $-1 65.208453296412856 -13.441556535042707 5.5786825480290911 -0.7660444514056185 0 -0.64278759981090561 0.64278759981090561 0 -0.7660444514056185 1 I I 0 1 1 forward I I I I #
face $-1 $98 $99 $33 $-1 $100 reversed single #
loop $-1 $-1 $101 $42 #
plane-surface $-1 -172.88401675238535 -24.542376658745141 90.683357330881094 0 1 0 -0.7660444514056185 0 0.64278759981090561 forward_v I I I I #
face $-1 $102 $103 $34 $-1 $104 forward single #
loop $-1 $105 $106 $43 #
cone-surface $-1 -65.208453296412856 -20.102048609264166 5.5786825480291089 0.7660444514056185 0 -0.64278759981090561 0.64278759981090561 0 0.7660444514056185 1 I I 0 1 1 forward I I I I #
face $-1 $107 $108 $35 $-1 $109 forward single #
loop $-1 $110 $111 $44 #
cone-surface $-1 -65.208453296412856 -13.441556535042707 5.5786825480291089 0.7660444514056185 0 -0.64278759981090561 0.64278759981090561 0 0.7660444514056185 1 I I 0 1 1 forward I I I I #
face $-1 $112 $113 $27 $-1 $114 reversed single #
loop $-1 $-1 $115 $45 #
plane-surface $-1 0 0 -9.0646241524461111 0 0 1 1 0 0 forward_v I I I I #
coedge $-1 $116 $117 $118 $119 forward $46 $-1 #
face $-1 $120 $121 $28 $-1 $122 reversed single #
loop $-1 $-1 $123 $48 #
plane-surface $-1 0 0 9.0646241524461111 0 0 1 1 0 0 forward_v I I I I #
coedge $-1 $124 $125 $126 $127 forward $49 $-1 #
face $-1 $128 $129 $29 $-1 $130 reversed single #
loop $-1 $-1 $131 $51 #
plane-surface $-1 68.277230140079951 0 0 -1 0 0 0 0 1 forward_v I I I I #
coedge $-1 $132 $133 $134 $135 forward $52 $-1 #
face $-1 $136 $137 $30 $-1 $138 reversed single #
loop $-1 $-1 $139 $54 #
plane-surface $-1 -19.498283626877694 -16.77180257215344 107.51463017622888 0.7660444514056185 0 0.64278759981090561 0.64278759981090561 0 -0.7660444514056185 forward_v I I I I #
coedge $-1 $140 $141 $142 $143 reversed $55 $-1 #
face $-1 $-1 $144 $31 $-1 $145 forward single #
loop $-1 $146 $147 $57 #
cone-surface $-1 64.339730319949297 -20.102048609264166 4.8497374379679492 -0.7660444514056185 0 -0.64278759981090561 0.3213937999054528 0 -0.38302222570280925 1 I I -0.70710678118654746 0.70710678118654746 0.5 forward I I I I #
loop $-1 $-1 $148 $40 #
coedge $-1 $92 $92 $149 $150 reversed $58 $-1 #
face $-1 $-1 $151 $32 $-1 $152 forward single #
loop $-1 $153 $154 $60 #
cone-surface $-1 64.339730319949297 -13.441556535042707 4.8497374379679492 -0.7660444514056185 0 -0.64278759981090561 0.3213937999054528 0 -0.38302222570280925 1 I I -0.70710678118654746 0.70710678118654746 0.5 forward I I I I #
loop $-1 $-1 $155 $41 #
coedge $-1 $97 $97 $156 $157 reversed $61 $-1 #
face $-1 $158 $159 $33 $-1 $160 reversed single #
loop $-1 $-1 $161 $63 #
plane-surface $-1 -68.277230140079936 -16.77180257215344 2.9078435639234641 -0.7660444514056185 0 0.64278759981090561 0.64278759981090561 0 0.7660444514056185 forward_v I I I I #
coedge $-1 $162 $163 $164 $165 reversed $64 $-1 #
face $-1 $-1 $166 $34 $-1 $167 forward single #
loop $-1 $168 $169 $66 #
cone-surface $-1 -64.339730319949297 -20.102048609264166 4.849737437967967 0.7660444514056185 0 -0.64278759981090561 0.3213937999054528 0 0.38302222570280925 1 I I -0.70710678118654746 0.70710678118654746 0.5 forward I I I I #
loop $-1 $-1 $170 $43 #
coedge $-1 $106 $106 $171 $172 reversed $67 $-1 #
face $-1 $-1 $173 $35 $-1 $174 forward single #
loop $-1 $175 $176 $69 #
cone-surface $-1 -64.339730319949297 -13.441556535042707 4.849737437967967 0.7660444514056185 0 -0.64278759981090561 0.3213937999054528 0 0.38302222570280925 1 I I -0.70710678118654746 0.70710678118654746 0.5 forward I I I I #
loop $-1 $-1 $177 $44 #
coedge $-1 $111 $111 $178 $179 reversed $70 $-1 #
face $-1 $180 $181 $27 $-1 $182 reversed single #
loop $-1 $-1 $183 $72 #
plane-surface $-1 0 -37.338999535268677 0 0 1 0 0 0 1 forward_v I I I I #
coedge $-1 $184 $185 $186 $187 forward $73 $-1 #
coedge $-1 $188 $75 $189 $190 forward $46 $-1 #
coedge $-1 $75 $188 $191 $192 forward $46 $-1 #
coedge $-1 $193 $194 $75 $119 reversed $195 $-1 #
edge $-1 $196 -37.338999535268677 $197 37.338999535268677 $118 $198 forward 7 unknown #
face $-1 $199 $200 $28 $-1 $201 reversed single #
loop $-1 $-1 $202 $76 #
plane-surface $-1 -68.277230140079951 0 0 1 0 0 0 0 -1 forward_v I I I I #
coedge $-1 $203 $204 $205 $206 forward $77 $-1 #
coedge $-1 $205 $79 $202 $207 reversed $49 $-1 #
coedge $-1 $79 $205 $208 $209 reversed $49 $-1 #
coedge $-1 $210 $211 $79 $127 reversed $200 $-1 #
edge $-1 $212 -68.277230140079951 $213 68.277230140079951 $126 $214 forward 7 unknown #
face $-1 $215 $216 $29 $-1 $217 reversed single #
loop $-1 $-1 $218 $80 #
plane-surface $-1 0 40.91248700075851 5.3410103331536787 0 0 1 1 0 0 forward_v I I I I #
coedge $-1 $219 $220 $132 $221 forward $81 $-1 #
coedge $-1 $222 $83 $131 $221 reversed $52 $-1 #
coedge $-1 $83 $222 $223 $224 reversed $52 $-1 #
coedge $-1 $225 $218 $83 $135 reversed $129 $-1 #
edge $-1 $226 -68.277230140079951 $227 68.277230140079951 $134 $228 forward 7 unknown #
face $-1 $229 $230 $30 $-1 $231 forward single #
loop $-1 $-1 $232 $84 #
plane-surface $-1 85.10850298542772 -24.542376658745141 195.29014394318651 0 1 0 0.7660444514056185 0 0.64278759981090561 forward_v I I I I #
coedge $-1 $233 $234 $235 $236 reversed $85 $-1 #
coedge $-1 $141 $87 $237 $238 reversed $55 $-1 #
coedge $-1 $87 $140 $233 $239 reversed $55 $-1 #
coedge $-1 $235 $240 $87 $143 forward $230 $-1 #
edge $-1 $241 -25.722978647366091 $242 -20.556826461553342 $142 $243 forward 7 unknown #
loop $-1 $-1 $149 $88 #
plane-surface $-1 -19.498283626877694 -16.77180257215344 107.51463017622888 0.7660444514056185 0 0.64278759981090561 0.64278759981090561 0 -0.7660444514056185 forward_v I I I I #
loop $-1 $-1 $244 $57 #
coedge $-1 $147 $147 $148 $245 reversed $89 $-1 #
coedge $-1 $148 $148 $147 $245 forward $91 $-1 #
coedge $-1 $149 $149 $92 $150 forward $144 $-1 #
edge $-1 $246 0 $246 6.2831853071796004 $149 $247 forward 7 unknown #
loop $-1 $-1 $156 $93 #
plane-surface $-1 -19.498283626877694 -16.77180257215344 107.51463017622888 0.7660444514056185 0 0.64278759981090561 0.64278759981090561 0 -0.7660444514056185 forward_v I I I I #
loop $-1 $-1 $248 $60 #
coedge $-1 $154 $154 $155 $249 reversed $94 $-1 #
coedge $-1 $155 $155 $154 $249 forward $96 $-1 #
coedge $-1 $156 $156 $97 $157 forward $151 $-1 #
edge $-1 $250 0 $250 6.2831853071796004 $156 $251 forward 7 unknown #
face $-1 $252 $253 $33 $-1 $254 reversed single #
loop $-1 $-1 $255 $98 #
plane-surface $-1 -172.88401675238535 -9.0012284855617377 90.683357330881094 0 -1 0 0.7660444514056185 0 -0.64278759981090561 forward_v I I I I #
coedge $-1 $256 $257 $258 $259 reversed $99 $-1 #
coedge $-1 $163 $101 $260 $261 reversed $64 $-1 #
coedge $-1 $101 $162 $256 $262 reversed $64 $-1 #
coedge $-1 $258 $263 $101 $165 forward $264 $-1 #
edge $-1 $265 18.164778236112724 $266 23.330930421925466 $164 $267 forward 7 unknown #
loop $-1 $-1 $171 $102 #
plane-surface $-1 -68.277230140079936 -16.77180257215344 2.9078435639234641 -0.7660444514056185 0 0.64278759981090561 0.64278759981090561 0 0.7660444514056185 forward_v I I I I #
loop $-1 $-1 $268 $66 #
coedge $-1 $169 $169 $170 $269 reversed $103 $-1 #
coedge $-1 $170 $170 $169 $269 forward $105 $-1 #
coedge $-1 $171 $171 $106 $172 forward $166 $-1 #
edge $-1 $270 0 $270 6.2831853071796004 $171 $271 forward 7 unknown #
loop $-1 $-1 $178 $107 #
plane-surface $-1 -68.277230140079936 -16.77180257215344 2.9078435639234641 -0.7660444514056185 0 0.64278759981090561 0.64278759981090561 0 0.7660444514056185 forward_v I I I I #
loop $-1 $-1 $272 $69 #
coedge $-1 $176 $176 $177 $273 reversed $108 $-1 #
coedge $-1 $177 $177 $176 $273 forward $110 $-1 #
coedge $-1 $178 $178 $111 $179 forward $173 $-1 #
edge $-1 $274 0 $274 6.2831853071796004 $178 $275 forward 7 unknown #
face $-1 $276 $277 $27 $-1 $278 reversed single #
loop $-1 $-1 $279 $112 #
plane-surface $-1 -68.277230140079951 0 0 1 0 0 0 0 -1 forward_v I I I I #
coedge $-1 $280 $191 $281 $282 forward $113 $-1 #
coedge $-1 $283 $115 $280 $284 forward $73 $-1 #
coedge $-1 $115 $283 $285 $286 forward $73 $-1 #
coedge $-1 $194 $193 $115 $187 reversed $195 $-1 #
edge $-1 $287 -37.338999535268677 $288 37.338999535268677 $186 $289 forward 7 unknown #
coedge $-1 $117 $116 $290 $291 forward $46 $-1 #
coedge $-1 $292 $293 $116 $190 reversed $277 $-1 #
edge $-1 $197 -68.277230140079951 $294 68.277230140079951 $189 $295 forward 7 unknown #
coedge $-1 $183 $296 $117 $192 reversed $113 $-1 #
edge $-1 $297 -68.277230140079951 $196 68.277230140079951 $191 $298 forward 7 unknown #
coedge $-1 $186 $118 $296 $299 forward $195 $-1 #
coedge $-1 $118 $186 $292 $300 reversed $195 $-1 #
loop $-1 $-1 $193 $276 #
vertex $-1 $119 $301 #
vertex $-1 $119 $302 #
straight-curve $-1 68.277230140079951 0 9.0646241524461111 0 1 0 I I #
face $-1 $303 $304 $28 $-1 $305 reversed single #
loop $-1 $-1 $210 $120 #
plane-surface $-1 0 -40.912487000758517 5.3410103331536787 0 0 1 1 0 0 forward_v I I I I #
coedge $-1 $306 $307 $124 $207 forward $121 $-1 #
coedge $-1 $308 $123 $307 $309 forward $77 $-1 #
coedge $-1 $123 $308 $310 $311 forward $77 $-1 #
coedge $-1 $125 $124 $123 $206 reversed $49 $-1 #
edge $-1 $312 -68.277230140079951 $313 68.277230140079951 $123 $314 forward 7 unknown #
edge $-1 $313 -9.0646241524461111 $213 -5.3410103331536787 $202 $315 forward 7 unknown #
coedge $-1 $310 $316 $125 $209 forward $317 $-1 #
edge $-1 $212 5.3410103331536787 $312 9.0646241524461111 $208 $318 forward 7 unknown #
coedge $-1 $319 $126 $316 $320 forward $200 $-1 #
coedge $-1 $126 $319 $306 $321 forward $200 $-1 #
vertex $-1 $209 $322 #
vertex $-1 $207 $323 #
straight-curve $-1 0 -37.338999535268677 5.3410103331536787 -1 0 0 I I #
face $-1 $324 $325 $29 $-1 $326 forward single #
loop $-1 $-1 $327 $128 #
plane-surface $-1 0 44.485974466248351 7.2028172427998953 0 -1 0 0 0 -1 forward_v I I I I #
coedge $-1 $134 $328 $219 $329 forward $129 $-1 #
coedge $-1 $330 $131 $218 $329 reversed $81 $-1 #
coedge $-1 $131 $330 $331 $332 reversed $81 $-1 #
edge $-1 $333 -9.0646241524461111 $227 -5.3410103331536787 $131 $334 forward 7 unknown #
coedge $-1 $133 $132 $335 $336 reversed $52 $-1 #
coedge $-1 $337 $338 $133 $224 forward $339 $-1 #
edge $-1 $226 5.3410103331536787 $340 9.0646241524461111 $223 $341 forward 7 unknown #
coedge $-1 $328 $134 $338 $342 forward $129 $-1 #
vertex $-1 $224 $343 #
vertex $-1 $221 $344 #
straight-curve $-1 0 37.338999535268677 5.3410103331536787 1 0 0 I I #
face $-1 $-1 $345 $30 $-1 $346 reversed single #
loop $-1 $-1 $142 $136 #
plane-surface $-1 0 0 9.0646241524461111 0 0 1 1 0 0 forward_v I I I I #
coedge $-1 $347 $348 $349 $350 reversed $137 $-1 #
coedge $-1 $351 $139 $141 $239 forward $85 $-1 #
coedge $-1 $139 $351 $347 $352 forward $85 $-1 #
coedge $-1 $349 $142 $139 $236 forward $230 $-1 #
edge $-1 $242 0.61532719948501757 $353 16.156475372668421 $235 $354 forward 7 unknown #
coedge $-1 $355 $356 $140 $238 forward $345 $-1 #
edge $-1 $357 -94.737228407669804 $241 -88.580447819147139 $237 $358 forward 7 unknown #
edge $-1 $242 128.51735410802391 $357 136.55446028015996 $141 $359 forward 7 unknown #
coedge $-1 $142 $349 $355 $360 forward $230 $-1 #
vertex $-1 $238 $361 #
vertex $-1 $143 $362 #
straight-curve $-1 42.55425149271386 -9.0012284855617377 9.0646241524461146 -1 0 0 I I #
coedge $-1 $244 $244 $-1 $363 reversed $146 $-1 #
edge $-1 $364 0 $364 6.2831853071796004 $147 $365 forward 7 unknown #
vertex $-1 $150 $366 #
ellipse-curve $-1 65.694154047173583 -20.102048609264166 5.9862338581847689 0.7660444514056185 0 0.64278759981090561 0.64278759981090561 0 -0.7660444514056185 1 I I #
coedge $-1 $248 $248 $-1 $367 reversed $153 $-1 #
edge $-1 $368 0 $368 6.2831853071796004 $154 $369 forward 7 unknown #
vertex $-1 $157 $370 #
ellipse-curve $-1 65.694154047173583 -13.441556535042707 5.9862338581847689 0.7660444514056185 0 0.64278759981090561 0.64278759981090561 0 -0.7660444514056185 1 I I #
face $-1 $-1 $264 $33 $-1 $371 forward single #
loop $-1 $-1 $372 $158 #
plane-surface $-1 -68.277230140079951 0 0 1 0 0 0 0 -1 forward_v I I I I #
coedge $-1 $373 $374 $375 $376 reversed $159 $-1 #
coedge $-1 $377 $161 $163 $262 forward $99 $-1 #
coedge $-1 $161 $377 $373 $378 forward $99 $-1 #
coedge $-1 $375 $164 $161 $259 forward $264 $-1 #
edge $-1 $266 -16.156475372668421 $379 -0.61532719948501757 $258 $380 forward 7 unknown #
coedge $-1 $381 $382 $162 $261 forward $253 $-1 #
edge $-1 $383 -42.433835101517097 $265 -36.27705451299444 $260 $384 forward 7 unknown #
edge $-1 $266 -8.0371061721360224 $383 2.2061860048766535e-014 $163 $385 forward 7 unknown #
coedge $-1 $164 $375 $381 $386 forward $264 $-1 #
loop $-1 $-1 $375 $252 #
vertex $-1 $261 $387 #
vertex $-1 $165 $388 #
straight-curve $-1 -86.442008376192675 -24.542376658745141 9.0646241524461146 1 0 0 I I #
coedge $-1 $268 $268 $-1 $389 reversed $168 $-1 #
edge $-1 $390 0 $390 6.2831853071796004 $169 $391 forward 7 unknown #
vertex $-1 $172 $392 #
ellipse-curve $-1 -65.694154047173583 -20.102048609264166 5.9862338581847787 -0.7660444514056185 0 0.64278759981090561 0.64278759981090561 0 0.7660444514056185 1 I I #
coedge $-1 $272 $272 $-1 $393 reversed $175 $-1 #
edge $-1 $394 0 $394 6.2831853071796004 $176 $395 forward 7 unknown #
vertex $-1 $179 $396 #
ellipse-curve $-1 -65.694154047173583 -13.441556535042707 5.9862338581847787 -0.7660444514056185 0 0.64278759981090561 0.64278759981090561 0 0.7660444514056185 1 I I #
face $-1 $-1 $195 $27 $-1 $397 reversed single #
loop $-1 $-1 $292 $180 #
plane-surface $-1 0 37.338999535268677 0 0 -1 0 0 0 -1 forward_v I I I I #
coedge $-1 $398 $290 $293 $399 forward $181 $-1 #
coedge $-1 $296 $183 $184 $284 reversed $113 $-1 #
coedge $-1 $290 $398 $183 $282 reversed $181 $-1 #
edge $-1 $297 -9.0646241524461111 $400 9.0646241524461111 $281 $401 forward 7 unknown #
coedge $-1 $185 $184 $398 $402 forward $73 $-1 #
edge $-1 $288 -68.277230140079951 $400 68.277230140079951 $280 $403 forward 7 unknown #
coedge $-1 $293 $292 $185 $286 reversed $277 $-1 #
edge $-1 $404 -68.277230140079951 $287 68.277230140079951 $285 $405 forward 7 unknown #
vertex $-1 $187 $406 #
vertex $-1 $299 $407 #
straight-curve $-1 68.277230140079951 0 -9.0646241524461111 0 -1 0 I I #
coedge $-1 $279 $281 $188 $291 reversed $181 $-1 #
edge $-1 $294 -37.338999535268677 $297 37.338999535268677 $290 $408 forward 7 unknown #
coedge $-1 $285 $189 $194 $300 forward $277 $-1 #
coedge $-1 $189 $285 $279 $399 reversed $277 $-1 #
vertex $-1 $190 $409 #
straight-curve $-1 0 37.338999535268677 9.0646241524461111 -1 0 0 I I #
coedge $-1 $191 $280 $193 $299 reversed $113 $-1 #
vertex $-1 $291 $410 #
straight-curve $-1 0 -37.338999535268677 9.0646241524461111 1 0 0 I I #
edge $-1 $196 -9.0646241524461111 $288 9.0646241524461111 $193 $411 forward 7 unknown #
edge $-1 $197 -9.0646241524461111 $287 9.0646241524461111 $194 $412 forward 7 unknown #
point $-1 68.277230140079951 -37.338999535268677 9.0646241524461111 #
point $-1 68.277230140079951 37.338999535268677 9.0646241524461111 #
face $-1 $-1 $317 $28 $-1 $413 reversed single #
loop $-1 $-1 $414 $199 #
plane-surface $-1 0 -44.485974466248358 7.2028172427998953 0 1 0 0 0 1 forward_v I I I I #
coedge $-1 $415 $202 $211 $321 reversed $121 $-1 #
coedge $-1 $202 $415 $203 $309 reversed $121 $-1 #
coedge $-1 $204 $203 $416 $417 forward $77 $-1 #
edge $-1 $313 37.338999535268677 $418 44.485974466248358 $307 $419 forward 7 unknown #
coedge $-1 $420 $208 $204 $311 reversed $317 $-1 #
edge $-1 $421 -44.485974466248358 $312 -37.338999535268677 $310 $422 forward 7 unknown #
vertex $-1 $209 $423 #
vertex $-1 $309 $424 #
straight-curve $-1 0 -37.338999535268677 9.0646241524461111 -1 0 0 I I #
straight-curve $-1 -68.277230140079951 -37.338999535268677 0 0 0 -1 I I #
coedge $-1 $208 $420 $210 $320 reversed $317 $-1 #
loop $-1 $-1 $208 $303 #
straight-curve $-1 68.277230140079951 -37.338999535268677 0 0 0 1 I I #
coedge $-1 $211 $210 $425 $426 forward $200 $-1 #
edge $-1 $212 -3.5734874654898405 $427 3.5734874654898405 $316 $428 forward 7 unknown #
edge $-1 $429 -3.5734874654898405 $213 3.5734874654898405 $306 $430 forward 7 unknown #
point $-1 68.277230140079951 -37.338999535268677 5.3410103331536787 #
point $-1 -68.277230140079951 -37.338999535268677 5.3410103331536787 #
face $-1 $-1 $339 $29 $-1 $431 reversed single #
loop $-1 $-1 $335 $215 #
plane-surface $-1 0 0 9.0646241524461111 0 0 1 1 0 0 forward_v I I I I #
coedge $-1 $432 $433 $330 $434 forward $216 $-1 #
coedge $-1 $218 $225 $432 $435 forward $129 $-1 #
edge $-1 $436 -3.5734874654898405 $227 3.5734874654898405 $219 $437 forward 7 unknown #
coedge $-1 $220 $219 $327 $434 reversed $81 $-1 #
coedge $-1 $438 $335 $220 $332 forward $325 $-1 #
edge $-1 $333 37.338999535268677 $439 44.485974466248351 $220 $440 forward 7 unknown #
vertex $-1 $332 $441 #
straight-curve $-1 68.277230140079951 37.338999535268677 0 0 0 -1 I I #
coedge $-1 $331 $442 $222 $336 forward $325 $-1 #
edge $-1 $340 -68.277230140079951 $333 68.277230140079951 $335 $443 forward 7 unknown #
coedge $-1 $444 $223 $442 $445 reversed $339 $-1 #
coedge $-1 $223 $444 $225 $342 reversed $339 $-1 #
loop $-1 $-1 $223 $324 #
vertex $-1 $224 $446 #
straight-curve $-1 -68.277230140079951 37.338999535268677 0 0 0 1 I I #
edge $-1 $226 -3.5734874654898405 $447 3.5734874654898405 $338 $448 forward 7 unknown #
point $-1 -68.277230140079951 37.33899953526867 5.3410103331536787 #
point $-1 68.277230140079951 37.33899953526867 5.3410103331536787 #
loop $-1 $-1 $237 $229 #
plane-surface $-1 68.277230140079951 0 0 -1 0 0 0 0 1 forward_v I I I I #
coedge $-1 $348 $232 $234 $352 reversed $137 $-1 #
coedge $-1 $232 $347 $449 $450 reversed $137 $-1 #
coedge $-1 $240 $235 $232 $350 forward $230 $-1 #
edge $-1 $353 20.556826461553342 $451 25.722978647366091 $349 $452 forward 7 unknown #
coedge $-1 $234 $233 $356 $453 reversed $85 $-1 #
edge $-1 $454 -136.55446028015996 $353 -128.51735410802391 $347 $455 forward 7 unknown #
vertex $-1 $236 $456 #
straight-curve $-1 63.111077954267209 -8.3859012860767201 9.0646241524461004 0 -1 0 I I #
coedge $-1 $449 $237 $240 $360 reversed $345 $-1 #
coedge $-1 $237 $449 $351 $453 forward $345 $-1 #
vertex $-1 $238 $457 #
straight-curve $-1 68.277230140079951 -9.0012284855617377 97.645071971593254 0 0 1 I I #
straight-curve $-1 -19.498283626877694 -9.0012284855617377 107.51463017622888 0.64278759981090561 0 -0.7660444514056185 I I #
edge $-1 $451 -24.542376658745141 $241 -9.0012284855617377 $355 $458 forward 7 unknown #
point $-1 68.277230140079951 -9.0012284855617377 9.0646241524461111 #
point $-1 63.111077954267202 -9.0012284855617377 9.0646241524461146 #
edge $-1 $459 1 $459 0 $244 $-1 forward 7 unknown #
vertex $-1 $245 $460 #
ellipse-curve $-1 64.722752545652099 -20.102048609264166 5.1711312378734018 0.7660444514056185 0 0.64278759981090561 0.64278759981090561 0 -0.7660444514056185 1 I I #
point $-1 66.336941646984513 -20.102048609264166 5.2201894067791619 #
edge $-1 $461 1 $461 0 $248 $-1 forward 7 unknown #
vertex $-1 $249 $462 #
ellipse-curve $-1 64.722752545652099 -13.441556535042707 5.1711312378734018 0.7660444514056185 0 0.64278759981090561 0.64278759981090561 0 -0.7660444514056185 1 I I #
point $-1 66.336941646984513 -13.441556535042707 5.2201894067791619 #
plane-surface $-1 0 0 9.0646241524461111 0 0 1 1 0 0 forward_v I I I I #
coedge $-1 $382 $381 $374 $463 forward $253 $-1 #
coedge $-1 $374 $255 $257 $378 reversed $159 $-1 #
coedge $-1 $255 $373 $372 $463 reversed $159 $-1 #
coedge $-1 $263 $258 $255 $376 forward $264 $-1 #
edge $-1 $379 -23.330930421925466 $464 -18.164778236112724 $375 $465 forward 7 unknown #
coedge $-1 $257 $256 $382 $466 reversed $99 $-1 #
edge $-1 $467 -2.2061860048766535e-014 $379 8.0371061721360224 $373 $468 forward 7 unknown #
vertex $-1 $259 $469 #
straight-curve $-1 -63.111077954267209 -8.3859012860767201 9.0646241524461111 0 1 0 I I #
coedge $-1 $372 $260 $263 $386 reversed $253 $-1 #
coedge $-1 $260 $372 $377 $466 forward $253 $-1 #
vertex $-1 $261 $470 #
straight-curve $-1 -68.277230140079951 -24.542376658745141 45.341678665440547 0 0 1 I I #
straight-curve $-1 -68.277230140079936 -24.542376658745141 2.9078435639234641 -0.64278759981090561 0 -0.7660444514056185 I I #
edge $-1 $464 9.0012284855617377 $265 24.542376658745141 $381 $471 forward 7 unknown #
point $-1 -68.277230140079951 -24.542376658745141 9.0646241524461111 #
point $-1 -63.111077954267209 -24.542376658745141 9.0646241524461111 #
edge $-1 $472 1 $472 0 $268 $-1 forward 7 unknown #
vertex $-1 $269 $473 #
ellipse-curve $-1 -64.722752545652099 -20.102048609264166 5.1711312378734196 -0.7660444514056185 0 0.64278759981090561 0.64278759981090561 0 0.7660444514056185 1 I I #
point $-1 -65.051366447362696 -20.102048609264166 6.752278309590416 #
edge $-1 $474 1 $474 0 $272 $-1 forward 7 unknown #
vertex $-1 $273 $475 #
ellipse-curve $-1 -64.722752545652099 -13.441556535042707 5.1711312378734196 -0.7660444514056185 0 0.64278759981090561 0.64278759981090561 0 0.7660444514056185 1 I I #
point $-1 -65.051366447362696 -13.441556535042707 6.752278309590416 #
plane-surface $-1 68.277230140079951 0 0 -1 0 0 0 0 1 forward_v I I I I #
coedge $-1 $281 $279 $283 $402 reversed $181 $-1 #
edge $-1 $294 -9.0646241524461111 $404 9.0646241524461111 $293 $476 forward 7 unknown #
vertex $-1 $402 $477 #
straight-curve $-1 -68.277230140079951 -37.338999535268677 0 0 0 -1 I I #
edge $-1 $400 -37.338999535268677 $404 37.338999535268677 $398 $478 forward 7 unknown #
straight-curve $-1 0 -37.338999535268677 -9.0646241524461111 -1 0 0 I I #
vertex $-1 $286 $479 #
straight-curve $-1 0 37.338999535268677 -9.0646241524461111 1 0 0 I I #
point $-1 68.277230140079951 37.338999535268677 -9.0646241524461111 #
point $-1 68.277230140079951 -37.338999535268677 -9.0646241524461111 #
straight-curve $-1 -68.277230140079951 0 9.0646241524461111 0 -1 0 I I #
point $-1 -68.277230140079951 37.338999535268677 9.0646241524461111 #
point $-1 -68.277230140079951 -37.338999535268677 9.0646241524461111 #
straight-curve $-1 68.277230140079951 -37.338999535268677 0 0 0 -1 I I #
straight-curve $-1 68.277230140079951 37.338999535268677 0 0 0 -1 I I #
plane-surface $-1 68.277230140079951 0 0 -1 0 0 0 0 1 forward_v I I I I #
coedge $-1 $425 $416 $415 $480 forward $304 $-1 #
coedge $-1 $307 $306 $414 $480 reversed $121 $-1 #
coedge $-1 $414 $481 $308 $417 reversed $304 $-1 #
edge $-1 $418 -68.277230140079951 $421 68.277230140079951 $416 $482 forward 7 unknown #
vertex $-1 $309 $483 #
straight-curve $-1 -68.277230140079951 0 9.0646241524461111 0 -1 0 I I #
coedge $-1 $316 $310 $481 $484 forward $317 $-1 #
vertex $-1 $311 $485 #
straight-curve $-1 68.277230140079951 0 9.0646241524461111 0 1 0 I I #
point $-1 68.277230140079951 -37.338999535268677 9.0646241524461111 #
point $-1 -68.277230140079951 -37.338999535268677 9.0646241524461111 #
coedge $-1 $481 $414 $319 $426 reversed $304 $-1 #
edge $-1 $427 -68.277230140079951 $429 68.277230140079951 $425 $486 forward 7 unknown #
vertex $-1 $484 $487 #
straight-curve $-1 68.277230140079951 -40.912487000758517 5.3410103331536787 0 -1 0 I I #
vertex $-1 $321 $488 #
straight-curve $-1 -68.277230140079951 -40.912487000758517 5.3410103331536787 0 1 0 I I #
plane-surface $-1 -68.277230140079951 0 0 1 0 0 0 0 -1 forward_v I I I I #
coedge $-1 $489 $327 $328 $435 reversed $216 $-1 #
coedge $-1 $327 $489 $438 $490 reversed $216 $-1 #
edge $-1 $439 -1.8618069096462158 $436 1.8618069096462166 $330 $491 forward 7 unknown #
edge $-1 $447 -68.277230140079951 $436 68.277230140079951 $432 $492 forward 7 unknown #
vertex $-1 $329 $493 #
straight-curve $-1 68.277230140079951 40.91248700075851 5.3410103331536787 0 -1 0 I I #
coedge $-1 $442 $331 $433 $490 forward $325 $-1 #
vertex $-1 $332 $494 #
straight-curve $-1 68.277230140079951 0 9.0646241524461111 0 1 0 I I #
point $-1 68.277230140079951 37.338999535268677 9.0646241524461111 #
coedge $-1 $335 $438 $337 $445 forward $325 $-1 #
straight-curve $-1 0 37.338999535268677 9.0646241524461111 1 0 0 I I #
coedge $-1 $338 $337 $489 $495 forward $339 $-1 #
edge $-1 $496 -44.485974466248351 $340 -37.338999535268677 $337 $497 forward 7 unknown #
point $-1 -68.277230140079951 37.338999535268677 9.0646241524461111 #
vertex $-1 $435 $498 #
straight-curve $-1 -68.277230140079951 40.91248700075851 5.3410103331536787 0 1 0 I I #
coedge $-1 $356 $355 $348 $450 forward $345 $-1 #
edge $-1 $451 88.580447819147139 $454 94.737228407669804 $449 $499 forward 7 unknown #
vertex $-1 $360 $500 #
straight-curve $-1 42.55425149271386 -24.542376658745141 9.0646241524461146 1 0 0 I I #
edge $-1 $454 -16.156475372668421 $357 -0.61532719948501757 $356 $501 forward 7 unknown #
vertex $-1 $453 $502 #
straight-curve $-1 -19.498283626877694 -24.542376658745141 107.51463017622888 -0.64278759981090561 0 0.7660444514056185 I I #
point $-1 63.111077954267202 -24.542376658745141 9.0646241524461146 #
point $-1 68.277230140079951 -9.0012284855617377 2.9078435639234499 #
straight-curve $-1 68.277230140079951 0 9.0646241524461111 0 1 0 I I #
vertex $-1 $363 $503 #
point $-1 65.365540145463015 -20.102048609264166 4.4050867864677832 #
vertex $-1 $367 $504 #
point $-1 65.365540145463015 -13.441556535042707 4.4050867864677832 #
edge $-1 $464 36.27705451299444 $467 42.433835101517097 $372 $505 forward 7 unknown #
vertex $-1 $386 $506 #
straight-curve $-1 -86.442008376192675 -9.0012284855617377 9.0646241524461146 -1 0 0 I I #
edge $-1 $467 0.61532719948501757 $383 16.156475372668421 $382 $507 forward 7 unknown #
vertex $-1 $466 $508 #
straight-curve $-1 -68.277230140079936 -9.0012284855617377 2.9078435639234641 0.64278759981090561 0 0.7660444514056185 I I #
point $-1 -63.111077954267209 -9.0012284855617377 9.0646241524461111 #
point $-1 -68.277230140079951 -24.542376658745141 2.9078435639234472 #
straight-curve $-1 -68.277230140079951 0 9.0646241524461111 0 -1 0 I I #
vertex $-1 $389 $509 #
point $-1 -64.079964945841198 -20.102048609264166 5.9371756892790382 #
vertex $-1 $393 $510 #
point $-1 -64.079964945841198 -13.441556535042707 5.9371756892790382 #
straight-curve $-1 -68.277230140079951 37.338999535268677 0 0 0 -1 I I #
point $-1 -68.277230140079951 -37.338999535268677 -9.0646241524461111 #
straight-curve $-1 -68.277230140079951 0 -9.0646241524461111 0 1 0 I I #
point $-1 -68.277230140079951 37.338999535268677 -9.0646241524461111 #
edge $-1 $418 -1.8618069096462158 $429 1.8618069096462166 $415 $511 forward 7 unknown #
coedge $-1 $416 $425 $420 $484 reversed $304 $-1 #
straight-curve $-1 0 -44.485974466248358 9.0646241524461111 1 0 0 I I #
point $-1 -68.277230140079951 -44.485974466248358 9.0646241524461111 #
edge $-1 $421 -1.8618069096462158 $427 1.8618069096462166 $420 $512 forward 7 unknown #
point $-1 68.277230140079951 -44.485974466248358 9.0646241524461111 #
straight-curve $-1 0 -44.485974466248358 5.3410103331536787 -1 0 0 I I #
point $-1 68.277230140079951 -44.485974466248358 5.3410103331536787 #
point $-1 -68.277230140079951 -44.485974466248358 5.3410103331536787 #
coedge $-1 $433 $432 $444 $495 reversed $216 $-1 #
edge $-1 $439 -68.277230140079951 $496 68.277230140079951 $433 $513 forward 7 unknown #
straight-curve $-1 68.277230140079951 44.485974466248351 7.2028172427998953 0 0 -1 I I #
straight-curve $-1 0 44.485974466248351 5.3410103331536787 1 0 0 I I #
point $-1 68.277230140079951 44.485974466248351 5.3410103331536787 #
point $-1 68.277230140079951 44.485974466248351 9.0646241524461111 #
edge $-1 $496 -1.8618069096462158 $447 1.8618069096462166 $489 $514 forward 7 unknown #
vertex $-1 $490 $515 #
straight-curve $-1 -68.277230140079951 0 9.0646241524461111 0 -1 0 I I #
point $-1 -68.277230140079951 44.485974466248351 5.3410103331536787 #
straight-curve $-1 68.277230140079951 -24.542376658745141 97.645071971593254 0 0 -1 I I #
point $-1 68.277230140079951 -24.542376658745141 9.0646241524461111 #
straight-curve $-1 68.277230140079951 -8.3859012860767201 2.9078435639234499 0 1 0 I I #
point $-1 68.277230140079951 -24.542376658745141 2.9078435639234499 #
point $-1 63.956708094246487 -20.102048609264166 4.5283436380624966 #
point $-1 63.956708094246487 -13.441556535042707 4.5283436380624966 #
straight-curve $-1 -68.277230140079951 -9.0012284855617377 45.341678665440547 0 0 -1 I I #
point $-1 -68.277230140079951 -9.0012284855617377 9.0646241524461111 #
straight-curve $-1 -68.277230140079951 -8.3859012860767201 2.9078435639234574 0 -1 0 I I #
point $-1 -68.277230140079951 -9.0012284855617377 2.9078435639234472 #
point $-1 -63.956708094246487 -20.102048609264166 4.5283436380625144 #
point $-1 -63.956708094246487 -13.441556535042707 4.5283436380625144 #
straight-curve $-1 -68.277230140079951 -44.485974466248358 7.2028172427998953 0 0 -1 I I #
straight-curve $-1 68.277230140079951 -44.485974466248358 7.2028172427998953 0 0 -1 I I #
straight-curve $-1 0 44.485974466248351 9.0646241524461111 -1 0 0 I I #
straight-curve $-1 -68.277230140079951 44.485974466248351 7.2028172427998953 0 0 -1 I I #
point $-1 -68.277230140079951 44.485974466248351 9.0646241524461111 #
End-of-ACIS-data 