500 0 3 0           
7 Unknown 11 ACIS 5.0 NT 24 Fri Mar 26 18:16:14 1999 
-1 9.9999999999999995e-007 1e-010 
body $-1 $3 $-1 $4 #
body $-1 $5 $-1 $6 #
body $-1 $7 $-1 $8 #
lump $-1 $-1 $9 $0 #
transform $-1 1 0 0 0 1 0 0 0 1 62.971892452772607 41.759741198867061 17.290141205993521 1 rotate no_reflect no_shear #
lump $-1 $-1 $10 $1 #
transform $-1 1 0 0 0 1 0 0 0 1 62.971892452772607 41.759741198867061 17.290141205993521 1 rotate no_reflect no_shear #
lump $-1 $-1 $11 $2 #
transform $-1 1 0 0 0 1 0 0 0 1 62.971892452772607 41.759741198867061 17.290141205993521 1 rotate no_reflect no_shear #
shell $-1 $-1 $-1 $12 $-1 $3 #
shell $-1 $-1 $-1 $13 $-1 $5 #
shell $-1 $-1 $-1 $14 $-1 $7 #
face $-1 $15 $16 $9 $-1 $17 forward single #
face $-1 $18 $19 $10 $-1 $20 reversed single #
face $-1 $21 $22 $11 $-1 $23 forward single #
face $-1 $24 $25 $9 $-1 $26 reversed single #
loop $-1 $-1 $27 $12 #
plane-surface $-1 0 0 17.290141205993521 0 0 1 1 0 0 forward_v I I I I #
face $-1 $28 $29 $10 $-1 $30 reversed single #
loop $-1 $-1 $31 $13 #
plane-surface $-1 -54.279452973282361 0 12.641268802262815 0 0 1 1 0 0 forward_v I I I I #
face $-1 $32 $33 $11 $-1 $34 reversed single #
loop $-1 $-1 $35 $14 #
plane-surface $-1 62.971892452772607 0 0 -1 0 0 0 0 1 forward_v I I I I #
face $-1 $36 $37 $9 $-1 $38 reversed single #
loop $-1 $-1 $39 $15 #
plane-surface $-1 0 0 -17.290141205993521 0 0 1 1 0 0 forward_v I I I I #
coedge $-1 $40 $41 $42 $43 forward $16 $-1 #
face $-1 $44 $45 $10 $-1 $46 reversed single #
loop $-1 $-1 $47 $18 #
plane-surface $-1 -45.587013493792114 0 14.965705004128168 -1 0 0 0 0 1 forward_v I I I I #
coedge $-1 $48 $49 $50 $51 forward $19 $-1 #
face $-1 $52 $53 $11 $-1 $54 reversed single #
loop $-1 $-1 $55 $21 #
plane-surface $-1 0 -41.759741198867061 0 0 1 0 0 0 1 forward_v I I I I #
coedge $-1 $56 $57 $58 $59 forward $22 $-1 #
face $-1 $60 $61 $9 $-1 $62 reversed single #
loop $-1 $-1 $63 $24 #
plane-surface $-1 0 -41.759741198867061 0 0 1 0 0 0 1 forward_v I I I I #
coedge $-1 $64 $65 $66 $67 forward $25 $-1 #
coedge $-1 $68 $27 $69 $70 forward $16 $-1 #
coedge $-1 $27 $68 $71 $72 forward $16 $-1 #
coedge $-1 $73 $74 $27 $43 reversed $75 $-1 #
edge $-1 $76 -41.759741198867061 $77 41.759741198867061 $42 $78 forward 7 unknown #
face $-1 $79 $80 $10 $-1 $81 reversed single #
loop $-1 $-1 $82 $28 #
plane-surface $-1 0 41.759741198867061 0 0 -1 0 0 0 -1 forward_v I I I I #
coedge $-1 $50 $83 $84 $85 reversed $29 $-1 #
coedge $-1 $86 $31 $87 $88 reversed $19 $-1 #
coedge $-1 $31 $86 $89 $90 reversed $19 $-1 #
coedge $-1 $91 $47 $31 $51 reversed $29 $-1 #
edge $-1 $92 -41.759741198867061 $93 41.759741198867061 $50 $94 forward 7 unknown #
face $-1 $95 $96 $11 $-1 $97 reversed single #
loop $-1 $-1 $98 $32 #
plane-surface $-1 0 0 -17.290141205993521 0 0 1 1 0 0 forward_v I I I I #
coedge $-1 $99 $100 $101 $102 forward $33 $-1 #
coedge $-1 $101 $35 $98 $103 reversed $22 $-1 #
coedge $-1 $35 $101 $104 $105 reversed $22 $-1 #
coedge $-1 $106 $107 $35 $59 reversed $96 $-1 #
edge $-1 $108 -17.290141205993521 $109 17.290141205993521 $58 $110 forward 7 unknown #
face $-1 $111 $112 $9 $-1 $113 reversed single #
loop $-1 $-1 $114 $36 #
plane-surface $-1 -62.971892452772607 0 0 1 0 0 0 0 -1 forward_v I I I I #
coedge $-1 $115 $71 $116 $117 forward $37 $-1 #
coedge $-1 $118 $39 $115 $119 forward $25 $-1 #
coedge $-1 $39 $118 $120 $121 forward $25 $-1 #
coedge $-1 $74 $73 $39 $67 reversed $75 $-1 #
edge $-1 $122 -41.759741198867061 $123 41.759741198867061 $66 $124 forward 7 unknown #
coedge $-1 $41 $40 $125 $126 forward $16 $-1 #
coedge $-1 $127 $128 $40 $70 reversed $112 $-1 #
edge $-1 $77 -62.971892452772607 $129 62.971892452772607 $69 $130 forward 7 unknown #
coedge $-1 $63 $131 $41 $72 reversed $37 $-1 #
edge $-1 $132 -62.971892452772607 $76 62.971892452772607 $71 $133 forward 7 unknown #
coedge $-1 $66 $42 $131 $134 forward $75 $-1 #
coedge $-1 $42 $66 $127 $135 reversed $75 $-1 #
loop $-1 $-1 $73 $111 #
vertex $-1 $43 $136 #
vertex $-1 $43 $137 #
straight-curve $-1 62.971892452772607 0 17.290141205993521 0 1 0 I I #
face $-1 $138 $139 $10 $-1 $140 forward single #
loop $-1 $-1 $141 $44 #
plane-surface $-1 -62.971892452772607 0 0 1 0 0 0 0 -1 forward_v I I I I #
coedge $-1 $89 $142 $91 $143 forward $45 $-1 #
coedge $-1 $47 $91 $144 $145 reversed $29 $-1 #
coedge $-1 $146 $87 $47 $85 forward $147 $-1 #
edge $-1 $93 5.1584163001987307 $148 9.8072887039294372 $84 $149 forward 7 unknown #
coedge $-1 $49 $48 $141 $150 reversed $19 $-1 #
coedge $-1 $84 $151 $48 $88 forward $147 $-1 #
edge $-1 $152 -35.832165966131427 $93 -18.447287007150933 $87 $153 forward 7 unknown #
coedge $-1 $154 $82 $49 $90 forward $45 $-1 #
edge $-1 $92 18.447287007150933 $155 35.832165966131427 $89 $156 forward 7 unknown #
coedge $-1 $83 $50 $82 $143 reversed $29 $-1 #
vertex $-1 $90 $157 #
vertex $-1 $88 $158 #
straight-curve $-1 -45.587013493792114 0 12.641268802262815 0 -1 0 I I #
face $-1 $159 $160 $11 $-1 $161 reversed single #
loop $-1 $-1 $162 $52 #
plane-surface $-1 69.5965277130488 -35.969203414927989 0 0 -1 0 0 0 -1 forward_v I I I I #
coedge $-1 $163 $164 $56 $103 forward $53 $-1 #
coedge $-1 $165 $55 $164 $166 reversed $33 $-1 #
coedge $-1 $55 $165 $167 $168 reversed $33 $-1 #
coedge $-1 $57 $56 $55 $102 reversed $22 $-1 #
edge $-1 $169 -17.290141205993521 $170 17.290141205993521 $55 $171 forward 7 unknown #
edge $-1 $170 -41.759741198867061 $109 -35.969203414927989 $98 $172 forward 7 unknown #
coedge $-1 $167 $173 $57 $105 forward $174 $-1 #
edge $-1 $108 35.969203414927989 $169 41.759741198867061 $104 $175 forward 7 unknown #
coedge $-1 $162 $58 $173 $176 reversed $96 $-1 #
coedge $-1 $58 $162 $163 $177 reversed $96 $-1 #
vertex $-1 $105 $178 #
vertex $-1 $177 $179 #
straight-curve $-1 62.971892452772607 -35.969203414927989 0 0 0 -1 I I #
face $-1 $-1 $75 $9 $-1 $180 reversed single #
loop $-1 $-1 $127 $60 #
plane-surface $-1 0 41.759741198867061 0 0 -1 0 0 0 -1 forward_v I I I I #
coedge $-1 $181 $125 $128 $182 forward $61 $-1 #
coedge $-1 $131 $63 $64 $119 reversed $37 $-1 #
coedge $-1 $125 $181 $63 $117 reversed $61 $-1 #
edge $-1 $132 -17.290141205993521 $183 17.290141205993521 $116 $184 forward 7 unknown #
coedge $-1 $65 $64 $181 $185 forward $25 $-1 #
edge $-1 $123 -62.971892452772607 $183 62.971892452772607 $115 $186 forward 7 unknown #
coedge $-1 $128 $127 $65 $121 reversed $112 $-1 #
edge $-1 $187 -62.971892452772607 $122 62.971892452772607 $120 $188 forward 7 unknown #
vertex $-1 $67 $189 #
vertex $-1 $134 $190 #
straight-curve $-1 62.971892452772607 0 -17.290141205993521 0 -1 0 I I #
coedge $-1 $114 $116 $68 $126 reversed $61 $-1 #
edge $-1 $129 -41.759741198867061 $132 41.759741198867061 $125 $191 forward 7 unknown #
coedge $-1 $120 $69 $74 $135 forward $112 $-1 #
coedge $-1 $69 $120 $114 $182 reversed $112 $-1 #
vertex $-1 $70 $192 #
straight-curve $-1 0 41.759741198867061 17.290141205993521 -1 0 0 I I #
coedge $-1 $71 $115 $73 $134 reversed $37 $-1 #
vertex $-1 $126 $193 #
straight-curve $-1 0 -41.759741198867061 17.290141205993521 1 0 0 I I #
edge $-1 $76 -17.290141205993521 $123 17.290141205993521 $73 $194 forward 7 unknown #
edge $-1 $77 -17.290141205993521 $122 17.290141205993521 $74 $195 forward 7 unknown #
point $-1 62.971892452772607 -41.759741198867061 17.290141205993521 #
point $-1 62.971892452772607 41.759741198867061 17.290141205993521 #
face $-1 $-1 $147 $10 $-1 $196 reversed single #
loop $-1 $-1 $144 $79 #
plane-surface $-1 0 0 17.290141205993521 0 0 1 1 0 0 forward_v I I I I #
coedge $-1 $197 $198 $86 $150 forward $80 $-1 #
coedge $-1 $82 $154 $199 $200 reversed $45 $-1 #
edge $-1 $201 -9.8072887039294372 $92 -5.1584163001987307 $82 $202 forward 7 unknown #
coedge $-1 $199 $203 $83 $145 forward $139 $-1 #
edge $-1 $148 -41.759741198867061 $201 41.759741198867061 $144 $204 forward 7 unknown #
coedge $-1 $151 $84 $203 $205 reversed $147 $-1 #
loop $-1 $-1 $84 $138 #
vertex $-1 $85 $206 #
straight-curve $-1 -45.587013493792114 -41.759741198867061 7.4828525020640839 0 0 1 I I #
edge $-1 $155 -41.759741198867061 $152 41.759741198867061 $141 $207 forward 7 unknown #
coedge $-1 $87 $146 $197 $208 forward $147 $-1 #
vertex $-1 $150 $209 #
straight-curve $-1 -27.13972648664118 -41.759741198867061 12.641268802262815 1 0 0 I I #
coedge $-1 $142 $89 $198 $210 reversed $45 $-1 #
vertex $-1 $150 $211 #
straight-curve $-1 -27.13972648664118 41.759741198867061 12.641268802262815 -1 0 0 I I #
point $-1 -45.587013493792114 41.759741198867061 12.641268802262815 #
point $-1 -45.587013493792114 -41.759741198867061 12.641268802262815 #
face $-1 $-1 $174 $11 $-1 $212 forward single #
loop $-1 $-1 $213 $95 #
plane-surface $-1 76.221162973324994 -38.864472306897525 0 -1 0 0 0 0 1 forward_v I I I I #
coedge $-1 $107 $106 $214 $215 forward $96 $-1 #
coedge $-1 $216 $98 $107 $177 forward $53 $-1 #
coedge $-1 $98 $216 $99 $166 forward $53 $-1 #
coedge $-1 $100 $99 $213 $217 reversed $33 $-1 #
edge $-1 $218 -6.6246352602761931 $170 6.6246352602761931 $99 $219 forward 7 unknown #
coedge $-1 $220 $104 $100 $168 forward $174 $-1 #
edge $-1 $169 -6.6246352602761931 $221 6.6246352602761931 $100 $222 forward 7 unknown #
vertex $-1 $168 $223 #
vertex $-1 $103 $224 #
straight-curve $-1 62.971892452772607 -41.759741198867061 0 0 0 -1 I I #
straight-curve $-1 62.971892452772607 0 -17.290141205993521 0 1 0 I I #
coedge $-1 $104 $220 $106 $176 forward $174 $-1 #
loop $-1 $-1 $104 $159 #
straight-curve $-1 62.971892452772607 0 17.290141205993521 0 -1 0 I I #
edge $-1 $225 -6.6246352602761931 $108 6.6246352602761931 $106 $226 forward 7 unknown #
edge $-1 $109 -6.6246352602761931 $227 6.6246352602761931 $107 $228 forward 7 unknown #
point $-1 62.971892452772607 -35.969203414927989 17.290141205993521 #
point $-1 62.971892452772607 -35.969203414927989 -17.290141205993521 #
plane-surface $-1 62.971892452772607 0 0 -1 0 0 0 0 1 forward_v I I I I #
coedge $-1 $116 $114 $118 $185 reversed $61 $-1 #
edge $-1 $129 -17.290141205993521 $187 17.290141205993521 $128 $229 forward 7 unknown #
vertex $-1 $185 $230 #
straight-curve $-1 -62.971892452772607 -41.759741198867061 0 0 0 -1 I I #
edge $-1 $183 -41.759741198867061 $187 41.759741198867061 $181 $231 forward 7 unknown #
straight-curve $-1 0 -41.759741198867061 -17.290141205993521 -1 0 0 I I #
vertex $-1 $121 $232 #
straight-curve $-1 0 41.759741198867061 -17.290141205993521 1 0 0 I I #
point $-1 62.971892452772607 41.759741198867061 -17.290141205993521 #
point $-1 62.971892452772607 -41.759741198867061 -17.290141205993521 #
straight-curve $-1 -62.971892452772607 0 17.290141205993521 0 -1 0 I I #
point $-1 -62.971892452772607 41.759741198867061 17.290141205993521 #
point $-1 -62.971892452772607 -41.759741198867061 17.290141205993521 #
straight-curve $-1 62.971892452772607 -41.759741198867061 0 0 0 -1 I I #
straight-curve $-1 62.971892452772607 41.759741198867061 0 0 0 -1 I I #
plane-surface $-1 0 -41.759741198867061 0 0 1 0 0 0 1 forward_v I I I I #
coedge $-1 $233 $141 $151 $208 reversed $80 $-1 #
coedge $-1 $141 $233 $154 $210 forward $80 $-1 #
coedge $-1 $234 $144 $142 $200 forward $139 $-1 #
edge $-1 $201 45.587013493792114 $235 62.971892452772607 $142 $236 forward 7 unknown #
vertex $-1 $200 $237 #
straight-curve $-1 -45.587013493792114 41.759741198867061 7.4828525020640839 0 0 -1 I I #
coedge $-1 $144 $234 $146 $205 forward $139 $-1 #
straight-curve $-1 -45.587013493792114 0 17.290141205993521 0 1 0 I I #
edge $-1 $238 -62.971892452772607 $148 -45.587013493792114 $146 $239 forward 7 unknown #
point $-1 -45.587013493792114 -41.759741198867061 17.290141205993521 #
straight-curve $-1 -62.971892452772607 0 12.641268802262815 0 -1 0 I I #
edge $-1 $238 -17.290141205993521 $152 -12.641268802262815 $197 $240 forward 7 unknown #
point $-1 -62.971892452772607 -41.759741198867061 12.641268802262815 #
edge $-1 $235 -17.290141205993521 $155 -12.641268802262815 $154 $241 forward 7 unknown #
point $-1 -62.971892452772607 41.759741198867061 12.641268802262815 #
plane-surface $-1 0 0 17.290141205993521 0 0 1 1 0 0 forward_v I I I I #
coedge $-1 $242 $243 $165 $217 forward $160 $-1 #
coedge $-1 $243 $242 $162 $215 reversed $160 $-1 #
edge $-1 $225 -17.290141205993521 $227 17.290141205993521 $214 $244 forward 7 unknown #
coedge $-1 $164 $163 $242 $245 forward $53 $-1 #
edge $-1 $221 -17.290141205993521 $218 17.290141205993521 $213 $246 forward 7 unknown #
vertex $-1 $217 $247 #
straight-curve $-1 69.5965277130488 -41.759741198867061 -17.290141205993521 -1 0 0 I I #
coedge $-1 $173 $167 $243 $248 forward $174 $-1 #
vertex $-1 $248 $249 #
straight-curve $-1 69.5965277130488 -41.759741198867061 17.290141205993521 1 0 0 I I #
point $-1 62.971892452772607 -41.759741198867061 17.290141205993521 #
point $-1 62.971892452772607 -41.759741198867061 -17.290141205993521 #
vertex $-1 $248 $250 #
straight-curve $-1 69.5965277130488 -35.969203414927989 17.290141205993521 -1 0 0 I I #
vertex $-1 $245 $251 #
straight-curve $-1 69.5965277130488 -35.969203414927989 -17.290141205993521 1 0 0 I I #
straight-curve $-1 -62.971892452772607 41.759741198867061 0 0 0 -1 I I #
point $-1 -62.971892452772607 -41.759741198867061 -17.290141205993521 #
straight-curve $-1 -62.971892452772607 0 -17.290141205993521 0 1 0 I I #
point $-1 -62.971892452772607 41.759741198867061 -17.290141205993521 #
coedge $-1 $198 $197 $234 $252 reversed $80 $-1 #
coedge $-1 $203 $199 $233 $252 forward $139 $-1 #
vertex $-1 $200 $253 #
straight-curve $-1 0 41.759741198867061 17.290141205993521 -1 0 0 I I #
point $-1 -45.587013493792114 41.759741198867061 17.290141205993521 #
vertex $-1 $252 $254 #
straight-curve $-1 0 -41.759741198867061 17.290141205993521 1 0 0 I I #
straight-curve $-1 -62.971892452772607 -41.759741198867061 0 0 0 -1 I I #
straight-curve $-1 -62.971892452772607 41.759741198867061 0 0 0 -1 I I #
coedge $-1 $214 $213 $216 $245 reversed $160 $-1 #
coedge $-1 $213 $214 $220 $248 reversed $160 $-1 #
straight-curve $-1 76.221162973324994 -35.969203414927989 0 0 0 -1 I I #
edge $-1 $227 -2.8952688919695362 $218 2.8952688919695362 $242 $255 forward 7 unknown #
straight-curve $-1 76.221162973324994 -41.759741198867061 0 0 0 -1 I I #
point $-1 76.221162973324994 -41.759741198867061 -17.290141205993521 #
edge $-1 $221 -2.8952688919695362 $225 2.8952688919695362 $243 $256 forward 7 unknown #
point $-1 76.221162973324994 -41.759741198867061 17.290141205993521 #
point $-1 76.221162973324994 -35.969203414927989 17.290141205993521 #
point $-1 76.221162973324994 -35.969203414927989 -17.290141205993521 #
edge $-1 $235 -41.759741198867061 $238 41.759741198867061 $233 $257 forward 7 unknown #
point $-1 -62.971892452772607 41.759741198867061 17.290141205993521 #
point $-1 -62.971892452772607 -41.759741198867061 17.290141205993521 #
straight-curve $-1 76.221162973324994 -38.864472306897525 -17.290141205993521 0 -1 0 I I #
straight-curve $-1 76.221162973324994 -38.864472306897525 17.290141205993521 0 1 0 I I #
straight-curve $-1 -62.971892452772607 0 17.290141205993521 0 -1 0 I I #
End-of-ACIS-data 