500 0 5 0           
7 Unknown 11 ACIS 5.0 NT 24 Thu Mar 25 21:41:51 1999 
-1 9.9999999999999995e-007 1e-010 
body $-1 $5 $-1 $6 #
body $-1 $7 $-1 $8 #
body $-1 $9 $-1 $10 #
body $-1 $11 $-1 $12 #
body $-1 $13 $-1 $14 #
lump $-1 $-1 $15 $0 #
transform $-1 1 0 0 0 1 0 0 0 1 53.805352946562088 30.055758498733127 12.760970421772674 1 rotate no_reflect no_shear #
lump $-1 $-1 $16 $1 #
transform $-1 1 0 0 0 1 0 0 0 1 53.805352946562088 30.055758498733127 12.760970421772674 1 rotate no_reflect no_shear #
lump $-1 $-1 $17 $2 #
transform $-1 1 0 0 0 1 0 0 0 1 53.805352946562088 30.055758498733127 12.760970421772674 1 rotate no_reflect no_shear #
lump $-1 $-1 $18 $3 #
transform $-1 1 0 0 0 1 0 0 0 1 53.805352946562088 30.055758498733127 12.760970421772674 1 rotate no_reflect no_shear #
lump $-1 $-1 $19 $4 #
transform $-1 1 0 0 0 1 0 0 0 1 53.805352946562088 30.055758498733127 12.760970421772674 1 rotate no_reflect no_shear #
shell $-1 $-1 $-1 $20 $-1 $5 #
shell $-1 $-1 $-1 $21 $-1 $7 #
shell $-1 $-1 $-1 $22 $-1 $9 #
shell $-1 $-1 $-1 $23 $-1 $11 #
shell $-1 $-1 $-1 $24 $-1 $13 #
face $-1 $25 $26 $15 $-1 $27 forward single #
face $-1 $28 $29 $16 $-1 $30 forward single #
face $-1 $31 $32 $17 $-1 $33 forward single #
face $-1 $34 $35 $18 $-1 $36 forward single #
face $-1 $37 $38 $19 $-1 $39 reversed single #
face $-1 $40 $41 $15 $-1 $42 reversed single #
loop $-1 $-1 $43 $20 #
plane-surface $-1 0 0 12.760970421772674 0 0 1 1 0 0 forward_v I I I I #
face $-1 $44 $45 $16 $-1 $46 forward single #
loop $-1 $-1 $47 $21 #
plane-surface $-1 0 -24.545073213659336 8.1693265890512095 0 0 1 1 0 0 forward_v I I I I #
face $-1 $48 $49 $17 $-1 $50 forward single #
loop $-1 $-1 $51 $22 #
plane-surface $-1 0 24.545073213659336 8.1693265890512095 0 0 1 1 0 0 forward_v I I I I #
face $-1 $52 $53 $18 $-1 $54 forward single #
loop $-1 $-1 $55 $23 #
plane-surface $-1 -127.1956787633948 3.4442301237404571 81.66102709079604 0 1 0 -0.68199836817093118 0 0.7313536940579346 forward_v I I I I #
face $-1 $56 $57 $19 $-1 $58 reversed single #
loop $-1 $59 $60 $24 #
cone-surface $-1 -47.01106530625654 6.7820374326214292 6.2099719243144857 0.68199836817093118 0 -0.7313536940579346 1.0970305410869019 0 1.0229975522563968 1 I I 0 1 1.5 forward I I I I #
face $-1 $61 $62 $15 $-1 $63 reversed single #
loop $-1 $-1 $64 $25 #
plane-surface $-1 0 0 -12.760970421772674 0 0 1 1 0 0 forward_v I I I I #
coedge $-1 $65 $66 $67 $68 forward $26 $-1 #
face $-1 $69 $70 $16 $-1 $71 forward single #
loop $-1 $-1 $72 $28 #
plane-surface $-1 0 -19.034387928585545 10.465148505411941 0 -1 0 0 0 -1 forward_v I I I I #
coedge $-1 $73 $74 $75 $76 reversed $29 $-1 #
face $-1 $77 $78 $17 $-1 $79 forward single #
loop $-1 $-1 $80 $31 #
plane-surface $-1 0 19.034387928585545 10.465148505411941 0 1 0 0 0 1 forward_v I I I I #
coedge $-1 $81 $82 $83 $84 reversed $32 $-1 #
face $-1 $85 $86 $18 $-1 $87 forward single #
loop $-1 $-1 $88 $34 #
plane-surface $-1 -53.805352946562095 6.7820374326214363 2.9595398156777151 -0.68199836817093118 0 0.7313536940579346 0.7313536940579346 0 0.68199836817093118 forward_v I I I I #
coedge $-1 $89 $90 $91 $92 reversed $35 $-1 #
face $-1 $93 $94 $19 $-1 $95 forward single #
loop $-1 $96 $97 $37 #
cone-surface $-1 -44.960652520734065 6.7820374326214292 4.0111734593603305 0.68199836817093118 0 -0.7313536940579346 0.54851527054345095 0 0.51149877612819838 1 I I -0.70710678118654757 0.70710678118654757 0.75 forward I I I I #
loop $-1 $-1 $98 $24 #
coedge $-1 $60 $60 $99 $100 reversed $38 $-1 #
face $-1 $101 $102 $15 $-1 $103 reversed single #
loop $-1 $-1 $104 $40 #
plane-surface $-1 0 -30.055758498733127 0 0 1 0 0 0 1 forward_v I I I I #
coedge $-1 $105 $106 $107 $108 forward $41 $-1 #
coedge $-1 $109 $43 $110 $111 forward $26 $-1 #
coedge $-1 $43 $109 $112 $113 forward $26 $-1 #
coedge $-1 $114 $115 $43 $68 reversed $116 $-1 #
edge $-1 $117 -30.055758498733127 $118 30.055758498733127 $67 $119 forward 7 unknown #
face $-1 $120 $121 $16 $-1 $122 reversed single #
loop $-1 $-1 $123 $44 #
plane-surface $-1 0 0 12.760970421772674 0 0 1 1 0 0 forward_v I I I I #
coedge $-1 $124 $125 $126 $127 reversed $45 $-1 #
coedge $-1 $128 $47 $125 $129 reversed $29 $-1 #
coedge $-1 $47 $128 $130 $131 reversed $29 $-1 #
coedge $-1 $132 $126 $47 $76 forward $121 $-1 #
edge $-1 $133 6.7618513217558771 $134 17.783221891903459 $75 $135 forward 7 unknown #
face $-1 $136 $137 $17 $-1 $138 reversed single #
loop $-1 $-1 $139 $48 #
plane-surface $-1 0 0 12.760970421772674 0 0 1 1 0 0 forward_v I I I I #
coedge $-1 $140 $141 $142 $143 reversed $49 $-1 #
coedge $-1 $144 $51 $145 $146 reversed $32 $-1 #
coedge $-1 $51 $144 $141 $147 reversed $32 $-1 #
coedge $-1 $148 $149 $51 $84 forward $150 $-1 #
edge $-1 $151 -17.783221891903459 $152 -6.7618513217558771 $83 $153 forward 7 unknown #
face $-1 $154 $155 $18 $-1 $156 forward single #
loop $-1 $-1 $157 $52 #
plane-surface $-1 -127.1956787633948 10.119844741502416 81.66102709079604 0 -1 0 0.68199836817093118 0 -0.7313536940579346 forward_v I I I I #
coedge $-1 $158 $159 $160 $161 reversed $53 $-1 #
coedge $-1 $90 $55 $159 $162 forward $35 $-1 #
coedge $-1 $55 $89 $163 $164 reversed $35 $-1 #
coedge $-1 $165 $160 $55 $92 forward $155 $-1 #
edge $-1 $166 -20.303233696957832 $167 -9.7924864351353094 $91 $168 forward 7 unknown #
face $-1 $169 $170 $19 $-1 $171 forward single #
loop $-1 $-1 $172 $56 #
plane-surface $-1 -127.1956787633948 3.4442301237404571 81.66102709079604 0 1 0 -0.68199836817093118 0 0.7313536940579346 forward_v I I I I #
loop $-1 $-1 $173 $37 #
coedge $-1 $97 $97 $98 $174 forward $57 $-1 #
coedge $-1 $98 $98 $97 $174 reversed $59 $-1 #
coedge $-1 $99 $99 $60 $100 forward $170 $-1 #
edge $-1 $175 0 $175 6.2831853071796004 $99 $176 forward 7 unknown #
face $-1 $177 $178 $15 $-1 $179 reversed single #
loop $-1 $-1 $180 $61 #
plane-surface $-1 -53.805352946562088 0 0 1 0 0 0 0 -1 forward_v I I I I #
coedge $-1 $181 $112 $182 $183 forward $62 $-1 #
coedge $-1 $184 $64 $181 $185 forward $41 $-1 #
coedge $-1 $64 $184 $186 $187 forward $41 $-1 #
coedge $-1 $115 $114 $64 $108 reversed $116 $-1 #
edge $-1 $188 -30.055758498733127 $189 30.055758498733127 $107 $190 forward 7 unknown #
coedge $-1 $66 $65 $191 $192 forward $26 $-1 #
coedge $-1 $193 $194 $65 $111 reversed $178 $-1 #
edge $-1 $118 -53.805352946562088 $195 53.805352946562088 $110 $196 forward 7 unknown #
coedge $-1 $104 $197 $66 $113 reversed $62 $-1 #
edge $-1 $198 -53.805352946562088 $117 53.805352946562088 $112 $199 forward 7 unknown #
coedge $-1 $107 $67 $197 $200 forward $116 $-1 #
coedge $-1 $67 $107 $193 $201 reversed $116 $-1 #
loop $-1 $-1 $114 $177 #
vertex $-1 $68 $202 #
vertex $-1 $68 $203 #
straight-curve $-1 53.805352946562088 0 12.760970421772674 0 1 0 I I #
face $-1 $204 $205 $16 $-1 $206 reversed single #
loop $-1 $-1 $126 $69 #
plane-surface $-1 53.805352946562088 0 0 -1 0 0 0 0 1 forward_v I I I I #
coedge $-1 $207 $208 $124 $209 forward $70 $-1 #
coedge $-1 $210 $72 $123 $209 reversed $45 $-1 #
coedge $-1 $72 $210 $73 $129 forward $45 $-1 #
coedge $-1 $75 $211 $72 $127 forward $121 $-1 #
edge $-1 $212 -7.5283961690667018 $133 -2.936752336345239 $126 $213 forward 7 unknown #
coedge $-1 $74 $73 $214 $215 reversed $29 $-1 #
edge $-1 $216 -53.805352946562088 $133 53.805352946562088 $125 $217 forward 7 unknown #
coedge $-1 $218 $219 $74 $131 forward $220 $-1 #
edge $-1 $134 -53.805352946562088 $221 53.805352946562088 $130 $222 forward 7 unknown #
coedge $-1 $223 $75 $219 $224 forward $121 $-1 #
vertex $-1 $76 $225 #
vertex $-1 $224 $226 #
straight-curve $-1 53.805352946562088 -12.272536606829668 8.1693265890512095 0 -1 0 I I #
face $-1 $227 $228 $17 $-1 $229 forward single #
loop $-1 $-1 $142 $77 #
plane-surface $-1 -53.805352946562088 0 0 1 0 0 0 0 -1 forward_v I I I I #
coedge $-1 $230 $231 $140 $232 forward $78 $-1 #
coedge $-1 $233 $80 $139 $232 reversed $49 $-1 #
coedge $-1 $80 $233 $82 $147 forward $49 $-1 #
coedge $-1 $234 $235 $80 $143 forward $137 $-1 #
edge $-1 $236 -7.5283961690667018 $237 -2.936752336345239 $142 $238 forward 7 unknown #
coedge $-1 $82 $81 $234 $239 reversed $32 $-1 #
coedge $-1 $240 $241 $81 $146 forward $242 $-1 #
edge $-1 $243 -53.805352946562088 $151 53.805352946562088 $145 $244 forward 7 unknown #
edge $-1 $152 -53.805352946562088 $237 53.805352946562088 $141 $245 forward 7 unknown #
coedge $-1 $246 $83 $233 $247 forward $150 $-1 #
coedge $-1 $83 $248 $240 $249 reversed $150 $-1 #
loop $-1 $-1 $148 $250 #
vertex $-1 $249 $251 #
vertex $-1 $84 $252 #
straight-curve $-1 53.805352946562088 12.272536606829668 8.1693265890512095 0 -1 0 I I #
face $-1 $253 $254 $18 $-1 $255 forward single #
loop $-1 $-1 $256 $85 #
plane-surface $-1 0 0 12.760970421772674 0 0 1 1 0 0 forward_v I I I I #
coedge $-1 $257 $258 $256 $259 reversed $86 $-1 #
coedge $-1 $260 $88 $258 $261 reversed $53 $-1 #
coedge $-1 $88 $260 $89 $162 reversed $53 $-1 #
coedge $-1 $91 $256 $88 $161 forward $155 $-1 #
edge $-1 $262 -6.7288260251916974 $166 -0.053211407429738955 $160 $263 forward 7 unknown #
edge $-1 $166 -14.371633516340612 $264 -9.739602292442716e-015 $89 $265 forward 7 unknown #
coedge $-1 $266 $267 $90 $164 forward $268 $-1 #
edge $-1 $167 28.069543123625344 $264 37.870973729720298 $163 $269 forward 7 unknown #
coedge $-1 $270 $91 $267 $271 forward $155 $-1 #
vertex $-1 $161 $272 #
vertex $-1 $271 $273 #
straight-curve $-1 -63.597839381697398 3.4442301237404571 12.760970421772676 -1 0 0 I I #
face $-1 $274 $275 $19 $-1 $276 forward single #
loop $-1 $277 $99 $93 #
plane-surface $-1 -53.805352946562095 6.7820374326214363 2.9595398156777151 -0.68199836817093118 0 0.7313536940579346 0.7313536940579346 0 0.68199836817093118 forward_v I I I I #
coedge $-1 $278 $279 $280 $281 reversed $94 $-1 #
coedge $-1 $173 $173 $-1 $282 forward $96 $-1 #
edge $-1 $283 0 $283 6.2831853071796004 $97 $284 forward 7 unknown #
vertex $-1 $100 $285 #
ellipse-curve $-1 -48.549979315650823 6.7820374326214292 7.860255118725199 0.68199836817093118 0 -0.7313536940579346 1.0970305410869019 0 1.0229975522563968 1 I I #
face $-1 $-1 $116 $15 $-1 $286 reversed single #
loop $-1 $-1 $193 $101 #
plane-surface $-1 0 30.055758498733127 0 0 -1 0 0 0 -1 forward_v I I I I #
coedge $-1 $287 $191 $194 $288 forward $102 $-1 #
coedge $-1 $197 $104 $105 $185 reversed $62 $-1 #
coedge $-1 $191 $287 $104 $183 reversed $102 $-1 #
edge $-1 $198 -12.760970421772674 $289 12.760970421772674 $182 $290 forward 7 unknown #
coedge $-1 $106 $105 $287 $291 forward $41 $-1 #
edge $-1 $189 -53.805352946562088 $289 53.805352946562088 $181 $292 forward 7 unknown #
coedge $-1 $194 $193 $106 $187 reversed $178 $-1 #
edge $-1 $293 -53.805352946562088 $188 53.805352946562088 $186 $294 forward 7 unknown #
vertex $-1 $108 $295 #
vertex $-1 $200 $296 #
straight-curve $-1 53.805352946562088 0 -12.760970421772674 0 -1 0 I I #
coedge $-1 $180 $182 $109 $192 reversed $102 $-1 #
edge $-1 $195 -30.055758498733127 $198 30.055758498733127 $191 $297 forward 7 unknown #
coedge $-1 $186 $110 $115 $201 forward $178 $-1 #
coedge $-1 $110 $186 $180 $288 reversed $178 $-1 #
vertex $-1 $111 $298 #
straight-curve $-1 0 30.055758498733127 12.760970421772674 -1 0 0 I I #
coedge $-1 $112 $181 $114 $200 reversed $62 $-1 #
vertex $-1 $192 $299 #
straight-curve $-1 0 -30.055758498733127 12.760970421772674 1 0 0 I I #
edge $-1 $117 -12.760970421772674 $189 12.760970421772674 $114 $300 forward 7 unknown #
edge $-1 $118 -12.760970421772674 $188 12.760970421772674 $115 $301 forward 7 unknown #
point $-1 53.805352946562088 -30.055758498733127 12.760970421772674 #
point $-1 53.805352946562088 30.055758498733127 12.760970421772674 #
face $-1 $302 $220 $16 $-1 $303 reversed single #
loop $-1 $-1 $304 $120 #
plane-surface $-1 0 0 -12.760970421772674 0 0 1 1 0 0 forward_v I I I I #
coedge $-1 $305 $123 $211 $306 forward $70 $-1 #
coedge $-1 $123 $305 $307 $308 forward $70 $-1 #
edge $-1 $309 -53.805352946562088 $212 53.805352946562088 $123 $310 forward 7 unknown #
coedge $-1 $125 $124 $311 $312 reversed $45 $-1 #
coedge $-1 $126 $313 $207 $306 reversed $121 $-1 #
vertex $-1 $306 $314 #
straight-curve $-1 53.805352946562088 -19.034387928585545 5.2325742527059704 0 0 -1 I I #
coedge $-1 $311 $315 $128 $215 forward $316 $-1 #
edge $-1 $221 -17.783221891903459 $216 -6.7618513217558771 $214 $317 forward 7 unknown #
vertex $-1 $215 $318 #
straight-curve $-1 0 -19.034387928585545 8.1693265890512095 1 0 0 I I #
coedge $-1 $319 $130 $315 $320 forward $220 $-1 #
coedge $-1 $130 $319 $132 $224 reversed $220 $-1 #
loop $-1 $-1 $130 $204 #
vertex $-1 $320 $321 #
straight-curve $-1 0 -30.055758498733127 8.1693265890512095 -1 0 0 I I #
coedge $-1 $313 $132 $304 $322 reversed $121 $-1 #
edge $-1 $134 -8.1693265890512095 $323 12.760970421772674 $132 $324 forward 7 unknown #
point $-1 53.805352946562088 -19.034387928585545 8.1693265890512095 #
point $-1 53.805352946562088 -30.055758498733127 8.1693265890512095 #
face $-1 $250 $325 $17 $-1 $326 forward single #
loop $-1 $-1 $327 $136 #
plane-surface $-1 0 -24.545073213659336 8.1693265890512095 0 0 1 1 0 0 forward_v I I I I #
coedge $-1 $328 $139 $235 $329 forward $78 $-1 #
coedge $-1 $139 $328 $246 $330 forward $78 $-1 #
edge $-1 $331 -53.805352946562088 $236 53.805352946562088 $139 $332 forward 7 unknown #
coedge $-1 $141 $140 $148 $247 reversed $49 $-1 #
coedge $-1 $333 $142 $144 $239 forward $137 $-1 #
coedge $-1 $142 $334 $230 $329 reversed $137 $-1 #
vertex $-1 $329 $335 #
vertex $-1 $239 $336 #
straight-curve $-1 -53.805352946562088 19.034387928585545 5.2325742527059704 0 0 -1 I I #
edge $-1 $237 6.7618513217558771 $243 17.783221891903459 $234 $337 forward 7 unknown #
coedge $-1 $338 $145 $149 $249 forward $242 $-1 #
coedge $-1 $145 $338 $333 $339 reversed $242 $-1 #
loop $-1 $-1 $145 $340 #
vertex $-1 $339 $341 #
straight-curve $-1 0 30.055758498733127 8.1693265890512095 1 0 0 I I #
straight-curve $-1 0 19.034387928585545 8.1693265890512095 -1 0 0 I I #
coedge $-1 $342 $148 $231 $330 reversed $150 $-1 #
edge $-1 $152 2.936752336345239 $331 7.5283961690667018 $148 $343 forward 7 unknown #
coedge $-1 $149 $344 $345 $346 reversed $150 $-1 #
edge $-1 $151 -8.1693265890512095 $347 12.760970421772674 $149 $348 forward 7 unknown #
face $-1 $349 $150 $17 $-1 $350 reversed single #
point $-1 53.805352946562088 30.055758498733127 8.1693265890512095 #
point $-1 53.805352946562088 19.034387928585545 8.1693265890512095 #
face $-1 $351 $352 $18 $-1 $353 forward single #
loop $-1 $-1 $354 $154 #
plane-surface $-1 0 24.545073213659336 8.1693265890512095 0 0 1 1 0 0 forward_v I I I I #
coedge $-1 $160 $355 $157 $259 forward $155 $-1 #
coedge $-1 $258 $157 $356 $357 reversed $86 $-1 #
coedge $-1 $157 $257 $158 $261 forward $86 $-1 #
edge $-1 $358 9.7924864351353094 $262 20.303233696957832 $256 $359 forward 7 unknown #
coedge $-1 $159 $158 $266 $360 reversed $53 $-1 #
edge $-1 $361 9.739602292442716e-015 $262 14.371633516340612 $258 $362 forward 7 unknown #
vertex $-1 $161 $363 #
straight-curve $-1 -43.294605684739558 3.3910187163107182 12.760970421772672 0 -1 0 I I #
vertex $-1 $360 $364 #
straight-curve $-1 -53.805352946562095 3.4442301237404571 2.9595398156777151 -0.7313536940579346 0 -0.68199836817093118 I I #
coedge $-1 $356 $163 $260 $360 forward $268 $-1 #
coedge $-1 $163 $365 $165 $271 reversed $268 $-1 #
loop $-1 $-1 $356 $351 #
straight-curve $-1 -53.805352946562088 3.4442301237404571 40.83051354539802 0 0 -1 I I #
coedge $-1 $366 $165 $367 $368 forward $155 $-1 #
edge $-1 $167 -3.4442301237404571 $369 19.034387928585545 $267 $370 forward 7 unknown #
point $-1 -43.294605684739565 3.4442301237404571 12.760970421772674 #
point $-1 -53.805352946562088 3.4442301237404571 12.760970421772674 #
face $-1 $371 $372 $19 $-1 $373 forward single #
loop $-1 $-1 $374 $169 #
plane-surface $-1 -127.1956787633948 10.119844741502416 81.66102709079604 0 -1 0 0.68199836817093118 0 -0.7313536940579346 forward_v I I I I #
loop $-1 $-1 $375 $93 #
coedge $-1 $279 $172 $376 $377 forward $94 $-1 #
coedge $-1 $172 $278 $378 $379 reversed $94 $-1 #
coedge $-1 $380 $381 $172 $281 forward $372 $-1 #
edge $-1 $382 -20.303233696957832 $383 -9.7924864351353094 $280 $384 forward 7 unknown #
edge $-1 $385 1 $385 0 $173 $-1 forward 7 unknown #
vertex $-1 $174 $386 #
ellipse-curve $-1 -45.472151296862265 6.7820374326214292 4.5596887299037814 -0.68199836817093118 0 0.7313536940579346 1.0970305410869019 0 1.0229975522563968 1 I I #
point $-1 -47.452948774563922 6.7820374326214292 8.8832526709815873 #
plane-surface $-1 53.805352946562088 0 0 -1 0 0 0 0 1 forward_v I I I I #
coedge $-1 $182 $180 $184 $291 reversed $102 $-1 #
edge $-1 $195 -12.760970421772674 $293 12.760970421772674 $194 $387 forward 7 unknown #
vertex $-1 $291 $388 #
straight-curve $-1 -53.805352946562088 -30.055758498733127 0 0 0 -1 I I #
edge $-1 $289 -30.055758498733127 $293 30.055758498733127 $287 $389 forward 7 unknown #
straight-curve $-1 0 -30.055758498733127 -12.760970421772674 -1 0 0 I I #
vertex $-1 $187 $390 #
straight-curve $-1 0 30.055758498733127 -12.760970421772674 1 0 0 I I #
point $-1 53.805352946562088 30.055758498733127 -12.760970421772674 #
point $-1 53.805352946562088 -30.055758498733127 -12.760970421772674 #
straight-curve $-1 -53.805352946562088 0 12.760970421772674 0 -1 0 I I #
point $-1 -53.805352946562088 30.055758498733127 12.760970421772674 #
point $-1 -53.805352946562088 -30.055758498733127 12.760970421772674 #
straight-curve $-1 53.805352946562088 -30.055758498733127 0 0 0 -1 I I #
straight-curve $-1 53.805352946562088 30.055758498733127 0 0 0 -1 I I #
face $-1 $391 $316 $16 $-1 $392 reversed single #
plane-surface $-1 0 -30.055758498733127 0 0 1 0 0 0 1 forward_v I I I I #
coedge $-1 $393 $394 $223 $322 forward $205 $-1 #
coedge $-1 $208 $207 $395 $396 forward $70 $-1 #
edge $-1 $212 -19.034387928585545 $397 30.055758498733127 $211 $398 forward 7 unknown #
coedge $-1 $399 $311 $208 $308 reversed $316 $-1 #
edge $-1 $400 -30.055758498733127 $309 19.034387928585545 $307 $401 forward 7 unknown #
vertex $-1 $312 $402 #
straight-curve $-1 0 -19.034387928585545 12.760970421772674 1 0 0 I I #
coedge $-1 $307 $214 $210 $312 forward $316 $-1 #
edge $-1 $216 2.936752336345239 $309 7.5283961690667018 $311 $403 forward 7 unknown #
coedge $-1 $211 $223 $404 $405 reversed $121 $-1 #
point $-1 53.805352946562088 -19.034387928585545 12.760970421772672 #
coedge $-1 $214 $406 $218 $320 reversed $316 $-1 #
loop $-1 $-1 $311 $302 #
straight-curve $-1 -53.805352946562088 -12.272536606829668 8.1693265890512095 0 1 0 I I #
point $-1 -53.805352946562088 -19.034387928585545 8.1693265890512095 #
coedge $-1 $219 $218 $393 $407 reversed $220 $-1 #
edge $-1 $221 -8.1693265890512095 $408 12.760970421772674 $315 $409 forward 7 unknown #
point $-1 -53.805352946562088 -30.055758498733127 8.1693265890512095 #
edge $-1 $410 -30.055758498733127 $323 30.055758498733127 $223 $411 forward 7 unknown #
vertex $-1 $224 $412 #
straight-curve $-1 53.805352946562088 -30.055758498733127 0 0 0 -1 I I #
loop $-1 $-1 $413 $227 #
plane-surface $-1 0 -19.034387928585545 10.465148505411941 0 -1 0 0 0 -1 forward_v I I I I #
coedge $-1 $414 $415 $416 $417 reversed $228 $-1 #
coedge $-1 $231 $230 $418 $419 forward $78 $-1 #
edge $-1 $236 -19.034387928585545 $420 19.034387928585545 $235 $421 forward 7 unknown #
edge $-1 $422 -19.034387928585545 $331 19.034387928585545 $246 $423 forward 7 unknown #
vertex $-1 $232 $424 #
straight-curve $-1 0 19.034387928585545 12.760970421772674 -1 0 0 I I #
coedge $-1 $425 $234 $241 $339 forward $137 $-1 #
coedge $-1 $235 $426 $427 $428 forward $137 $-1 #
point $-1 -53.805352946562088 19.034387928585545 12.760970421772672 #
point $-1 -53.805352946562088 19.034387928585545 8.1693265890512095 #
straight-curve $-1 -53.805352946562088 12.272536606829668 8.1693265890512095 0 1 0 I I #
coedge $-1 $241 $240 $429 $430 reversed $242 $-1 #
edge $-1 $243 -8.1693265890512095 $431 12.760970421772674 $241 $432 forward 7 unknown #
face $-1 $-1 $242 $17 $-1 $433 reversed single #
point $-1 -53.805352946562088 30.055758498733127 8.1693265890512095 #
coedge $-1 $416 $246 $413 $434 forward $150 $-1 #
straight-curve $-1 53.805352946562088 19.034387928585545 5.2325742527059704 0 0 1 I I #
coedge $-1 $248 $416 $435 $436 forward $150 $-1 #
coedge $-1 $437 $429 $248 $346 forward $438 $-1 #
edge $-1 $347 -30.055758498733127 $439 30.055758498733127 $248 $440 forward 7 unknown #
vertex $-1 $346 $441 #
straight-curve $-1 53.805352946562088 30.055758498733127 0 0 0 -1 I I #
face $-1 $442 $438 $17 $-1 $443 reversed single #
plane-surface $-1 53.805352946562088 0 0 -1 0 0 0 0 1 forward_v I I I I #
face $-1 $444 $268 $18 $-1 $445 reversed single #
loop $-1 $-1 $446 $253 #
plane-surface $-1 0 19.034387928585545 10.465148505411941 0 1 0 0 0 1 forward_v I I I I #
coedge $-1 $447 $448 $449 $450 reversed $254 $-1 #
coedge $-1 $256 $451 $452 $453 forward $155 $-1 #
coedge $-1 $452 $266 $257 $357 forward $268 $-1 #
edge $-1 $361 -37.870973729720298 $358 -28.069543123625344 $356 $454 forward 7 unknown #
vertex $-1 $357 $455 #
straight-curve $-1 -63.597839381697398 10.119844741502416 12.760970421772676 1 0 0 I I #
edge $-1 $264 0.053211407429738955 $361 6.7288260251916974 $266 $456 forward 7 unknown #
vertex $-1 $360 $457 #
straight-curve $-1 -53.805352946562095 10.119844741502416 2.9595398156777151 0.7313536940579346 0 0.68199836817093118 I I #
point $-1 -43.294605684739565 10.119844741502416 12.760970421772674 #
point $-1 -53.805352946562088 3.4442301237404571 2.9595398156777217 #
coedge $-1 $267 $458 $459 $460 forward $268 $-1 #
coedge $-1 $451 $270 $461 $462 forward $155 $-1 #
coedge $-1 $459 $463 $270 $368 reversed $464 $-1 #
edge $-1 $369 -53.805352946562088 $465 53.805352946562088 $270 $466 forward 7 unknown #
vertex $-1 $460 $467 #
straight-curve $-1 -53.805352946562088 0 12.760970421772674 0 -1 0 I I #
face $-1 $468 $469 $19 $-1 $470 forward single #
loop $-1 $-1 $471 $274 #
plane-surface $-1 0 0 12.760970421772674 0 0 1 1 0 0 forward_v I I I I #
coedge $-1 $472 $473 $471 $474 reversed $275 $-1 #
coedge $-1 $475 $376 $381 $476 reversed $277 $-1 #
coedge $-1 $375 $477 $278 $377 reversed $277 $-1 #
edge $-1 $382 -14.371633516340612 $478 -9.739602292442716e-015 $278 $479 forward 7 unknown #
coedge $-1 $480 $481 $279 $379 forward $482 $-1 #
edge $-1 $383 28.069543123625344 $478 37.870973729720298 $378 $483 forward 7 unknown #
coedge $-1 $484 $280 $481 $485 forward $372 $-1 #
coedge $-1 $280 $471 $375 $476 forward $372 $-1 #
vertex $-1 $476 $486 #
vertex $-1 $485 $487 #
straight-curve $-1 -63.597839381697398 3.4442301237404571 12.760970421772676 -1 0 0 I I #
vertex $-1 $282 $488 #
point $-1 -44.375120755775363 6.7820374326214292 5.5826862821601786 #
straight-curve $-1 -53.805352946562088 30.055758498733127 0 0 0 -1 I I #
point $-1 -53.805352946562088 -30.055758498733127 -12.760970421772674 #
straight-curve $-1 -53.805352946562088 0 -12.760970421772674 0 1 0 I I #
point $-1 -53.805352946562088 30.055758498733127 -12.760970421772674 #
face $-1 $-1 $489 $16 $-1 $490 reversed single #
plane-surface $-1 -53.805352946562088 0 0 1 0 0 0 0 -1 forward_v I I I I #
coedge $-1 $491 $304 $319 $407 forward $205 $-1 #
coedge $-1 $304 $491 $492 $493 forward $205 $-1 #
coedge $-1 $404 $494 $305 $396 reversed $489 $-1 #
edge $-1 $397 -53.805352946562088 $400 53.805352946562088 $395 $495 forward 7 unknown #
vertex $-1 $306 $496 #
straight-curve $-1 53.805352946562088 0 12.760970421772674 0 1 0 I I #
coedge $-1 $406 $307 $494 $497 forward $316 $-1 #
vertex $-1 $396 $498 #
straight-curve $-1 -53.805352946562088 0 12.760970421772674 0 -1 0 I I #
point $-1 -53.805352946562088 -19.034387928585545 12.760970421772672 #
straight-curve $-1 -53.805352946562088 -19.034387928585545 5.2325742527059704 0 0 1 I I #
coedge $-1 $492 $395 $313 $405 forward $489 $-1 #
edge $-1 $397 -12.760970421772674 $410 12.760970421772674 $313 $499 forward 7 unknown #
coedge $-1 $315 $399 $491 $500 reversed $316 $-1 #
edge $-1 $323 -53.805352946562088 $408 53.805352946562088 $319 $501 forward 7 unknown #
vertex $-1 $500 $502 #
straight-curve $-1 -53.805352946562088 -30.055758498733127 0 0 0 -1 I I #
vertex $-1 $322 $503 #
straight-curve $-1 53.805352946562088 0 -12.760970421772674 0 -1 0 I I #
point $-1 53.805352946562088 -30.055758498733127 -12.760970421772674 #
coedge $-1 $418 $504 $342 $434 reversed $325 $-1 #
coedge $-1 $505 $327 $504 $506 reversed $228 $-1 #
coedge $-1 $327 $505 $507 $508 reversed $228 $-1 #
coedge $-1 $344 $342 $327 $417 forward $150 $-1 #
edge $-1 $509 6.7618513217558771 $510 17.783221891903459 $416 $511 forward 7 unknown #
coedge $-1 $427 $413 $328 $419 reversed $325 $-1 #
edge $-1 $420 -53.805352946562088 $422 53.805352946562088 $328 $512 forward 7 unknown #
vertex $-1 $428 $513 #
straight-curve $-1 -53.805352946562088 0 12.760970421772674 0 -1 0 I I #
vertex $-1 $330 $514 #
straight-curve $-1 53.805352946562088 0 12.760970421772674 0 1 0 I I #
point $-1 53.805352946562088 19.034387928585545 12.760970421772672 #
coedge $-1 $515 $333 $516 $517 reversed $137 $-1 #
coedge $-1 $334 $515 $505 $518 forward $137 $-1 #
coedge $-1 $504 $418 $334 $428 reversed $325 $-1 #
edge $-1 $519 2.936752336345239 $420 7.5283961690667018 $334 $520 forward 7 unknown #
coedge $-1 $345 $516 $338 $430 forward $438 $-1 #
edge $-1 $431 -53.805352946562088 $347 53.805352946562088 $338 $521 forward 7 unknown #
vertex $-1 $430 $522 #
straight-curve $-1 -53.805352946562088 30.055758498733127 0 0 0 -1 I I #
plane-surface $-1 0 30.055758498733127 0 0 -1 0 0 0 -1 forward_v I I I I #
edge $-1 $422 -7.5283961690667018 $509 -2.936752336345239 $342 $523 forward 7 unknown #
coedge $-1 $507 $524 $344 $436 reversed $525 $-1 #
edge $-1 $510 -8.1693265890512095 $439 12.760970421772674 $344 $526 forward 7 unknown #
coedge $-1 $516 $345 $524 $527 forward $438 $-1 #
loop $-1 $-1 $345 $349 #
vertex $-1 $436 $528 #
straight-curve $-1 53.805352946562088 0 -12.760970421772674 0 -1 0 I I #
point $-1 53.805352946562088 30.055758498733127 -12.760970421772674 #
face $-1 $340 $525 $17 $-1 $529 reversed single #
plane-surface $-1 0 0 -12.760970421772674 0 0 1 1 0 0 forward_v I I I I #
face $-1 $530 $531 $18 $-1 $532 forward single #
plane-surface $-1 -53.805352946562088 0 0 1 0 0 0 0 -1 forward_v I I I I #
coedge $-1 $533 $534 $535 $536 reversed $352 $-1 #
coedge $-1 $537 $354 $538 $539 reversed $254 $-1 #
coedge $-1 $354 $537 $534 $540 reversed $254 $-1 #
coedge $-1 $541 $542 $354 $450 forward $543 $-1 #
edge $-1 $544 -17.783221891903459 $545 -6.7618513217558771 $449 $546 forward 7 unknown #
coedge $-1 $355 $366 $533 $547 forward $155 $-1 #
coedge $-1 $535 $356 $355 $453 reversed $268 $-1 #
edge $-1 $548 -19.034387928585545 $358 -10.119844741502416 $452 $370 forward 7 unknown #
straight-curve $-1 -53.805352946562088 10.119844741502416 40.83051354539802 0 0 1 I I #
point $-1 -53.805352946562088 10.119844741502416 12.760970421772674 #
straight-curve $-1 -53.805352946562088 3.3910187163107182 2.959539815677724 0 1 0 I I #
point $-1 -53.805352946562088 10.119844741502416 2.9595398156777217 #
coedge $-1 $365 $549 $550 $551 forward $268 $-1 #
coedge $-1 $552 $367 $365 $460 reversed $464 $-1 #
edge $-1 $553 2.936752336345239 $369 7.5283961690667018 $365 $554 forward 7 unknown #
coedge $-1 $555 $541 $366 $462 reversed $543 $-1 #
edge $-1 $465 -19.034387928585545 $556 19.034387928585545 $461 $557 forward 7 unknown #
coedge $-1 $367 $552 $555 $558 reversed $464 $-1 #
loop $-1 $-1 $463 $530 #
vertex $-1 $462 $559 #
straight-curve $-1 0 -19.034387928585545 12.760970421772674 1 0 0 I I #
point $-1 -53.805352946562088 -19.034387928585545 12.760970421772672 #
face $-1 $560 $561 $19 $-1 $562 forward single #
loop $-1 $-1 $563 $371 #
plane-surface $-1 0 24.545073213659336 8.1693265890512095 0 0 1 1 0 0 forward_v I I I I #
coedge $-1 $381 $564 $374 $474 forward $372 $-1 #
coedge $-1 $473 $374 $565 $566 reversed $275 $-1 #
coedge $-1 $374 $472 $475 $567 forward $275 $-1 #
edge $-1 $568 9.7924864351353094 $569 20.303233696957832 $471 $570 forward 7 unknown #
coedge $-1 $477 $375 $473 $567 reversed $277 $-1 #
edge $-1 $569 -6.7288260251916974 $382 -0.053211407429738955 $381 $571 forward 7 unknown #
coedge $-1 $376 $475 $480 $572 reversed $277 $-1 #
vertex $-1 $572 $573 #
straight-curve $-1 -53.805352946562095 3.4442301237404571 2.9595398156777151 -0.7313536940579346 0 -0.68199836817093118 I I #
coedge $-1 $565 $378 $477 $572 forward $482 $-1 #
coedge $-1 $378 $574 $380 $485 reversed $482 $-1 #
loop $-1 $-1 $565 $560 #
straight-curve $-1 -53.805352946562088 3.4442301237404571 40.83051354539802 0 0 -1 I I #
coedge $-1 $575 $380 $576 $577 forward $372 $-1 #
edge $-1 $383 -3.4442301237404571 $578 19.034387928585545 $481 $579 forward 7 unknown #
point $-1 -43.294605684739565 3.4442301237404571 12.760970421772674 #
point $-1 -53.805352946562088 3.4442301237404571 12.760970421772674 #
point $-1 -44.449153744605866 6.7820374326214292 3.4626581888168797 #
loop $-1 $-1 $404 $391 #
plane-surface $-1 0 30.055758498733127 0 0 -1 0 0 0 -1 forward_v I I I I #
coedge $-1 $394 $393 $406 $500 forward $205 $-1 #
coedge $-1 $494 $404 $394 $493 reversed $489 $-1 #
edge $-1 $580 -53.805352946562088 $410 53.805352946562088 $492 $581 forward 7 unknown #
coedge $-1 $395 $492 $399 $497 reversed $489 $-1 #
straight-curve $-1 0 30.055758498733127 12.760970421772674 -1 0 0 I I #
point $-1 53.805352946562088 30.055758498733127 12.760970421772674 #
edge $-1 $400 -12.760970421772674 $580 12.760970421772674 $494 $582 forward 7 unknown #
point $-1 -53.805352946562088 30.055758498733127 12.760970421772674 #
straight-curve $-1 53.805352946562088 30.055758498733127 0 0 0 -1 I I #
edge $-1 $408 -30.055758498733127 $580 30.055758498733127 $406 $583 forward 7 unknown #
straight-curve $-1 0 -30.055758498733127 -12.760970421772674 -1 0 0 I I #
point $-1 -53.805352946562088 -30.055758498733127 -12.760970421772674 #
point $-1 53.805352946562088 30.055758498733127 -12.760970421772674 #
coedge $-1 $413 $427 $414 $506 forward $325 $-1 #
coedge $-1 $415 $414 $426 $518 reversed $228 $-1 #
edge $-1 $519 -53.805352946562088 $509 53.805352946562088 $504 $584 forward 7 unknown #
coedge $-1 $585 $435 $415 $508 forward $525 $-1 #
edge $-1 $510 -53.805352946562088 $586 53.805352946562088 $507 $587 forward 7 unknown #
vertex $-1 $417 $588 #
vertex $-1 $436 $589 #
straight-curve $-1 53.805352946562088 -12.272536606829668 8.1693265890512095 0 -1 0 I I #
straight-curve $-1 0 -19.034387928585545 12.760970421772674 1 0 0 I I #
point $-1 -53.805352946562088 -19.034387928585545 12.760970421772672 #
point $-1 53.805352946562088 -19.034387928585545 12.760970421772672 #
coedge $-1 $426 $425 $585 $590 reversed $137 $-1 #
coedge $-1 $429 $437 $425 $517 forward $438 $-1 #
edge $-1 $591 -30.055758498733127 $431 30.055758498733127 $425 $592 forward 7 unknown #
edge $-1 $586 -17.783221891903459 $519 -6.7618513217558771 $426 $593 forward 7 unknown #
vertex $-1 $518 $594 #
straight-curve $-1 -53.805352946562088 -19.034387928585545 5.2325742527059704 0 0 1 I I #
straight-curve $-1 0 30.055758498733127 -12.760970421772674 1 0 0 I I #
point $-1 -53.805352946562088 30.055758498733127 -12.760970421772674 #
straight-curve $-1 53.805352946562088 -19.034387928585545 5.2325742527059704 0 0 -1 I I #
coedge $-1 $435 $585 $437 $527 reversed $525 $-1 #
loop $-1 $-1 $507 $442 #
straight-curve $-1 53.805352946562088 -30.055758498733127 0 0 0 -1 I I #
edge $-1 $439 -53.805352946562088 $591 53.805352946562088 $524 $595 forward 7 unknown #
point $-1 53.805352946562088 -30.055758498733127 -12.760970421772674 #
plane-surface $-1 0 -30.055758498733127 0 0 1 0 0 0 1 forward_v I I I I #
face $-1 $596 $464 $18 $-1 $597 forward single #
loop $-1 $-1 $598 $444 #
plane-surface $-1 0 -24.545073213659336 8.1693265890512095 0 0 1 1 0 0 forward_v I I I I #
coedge $-1 $599 $446 $451 $547 reversed $352 $-1 #
coedge $-1 $446 $599 $448 $540 forward $352 $-1 #
coedge $-1 $600 $452 $446 $536 forward $268 $-1 #
edge $-1 $548 -7.5283961690667018 $601 -2.936752336345239 $535 $602 forward 7 unknown #
coedge $-1 $448 $447 $600 $603 reversed $254 $-1 #
coedge $-1 $604 $605 $447 $539 forward $606 $-1 #
edge $-1 $607 -53.805352946562088 $544 53.805352946562088 $538 $608 forward 7 unknown #
edge $-1 $545 -53.805352946562088 $601 53.805352946562088 $534 $609 forward 7 unknown #
coedge $-1 $461 $449 $599 $610 forward $543 $-1 #
coedge $-1 $449 $611 $604 $612 reversed $543 $-1 #
loop $-1 $-1 $541 $596 #
vertex $-1 $612 $613 #
vertex $-1 $450 $614 #
straight-curve $-1 53.805352946562088 12.272536606829668 8.1693265890512095 0 -1 0 I I #
edge $-1 $556 -53.805352946562088 $548 53.805352946562088 $451 $615 forward 7 unknown #
vertex $-1 $453 $616 #
coedge $-1 $458 $617 $618 $619 reversed $268 $-1 #
coedge $-1 $620 $621 $458 $551 reversed $531 $-1 #
edge $-1 $622 -17.783221891903459 $553 -6.7618513217558771 $458 $623 forward 7 unknown #
coedge $-1 $463 $459 $621 $624 forward $464 $-1 #
vertex $-1 $551 $625 #
straight-curve $-1 -53.805352946562088 -19.034387928585545 5.2325742527059704 0 0 1 I I #
coedge $-1 $626 $461 $463 $558 forward $543 $-1 #
vertex $-1 $547 $627 #
straight-curve $-1 53.805352946562088 0 12.760970421772674 0 1 0 I I #
edge $-1 $465 -7.5283961690667018 $628 -2.936752336345239 $555 $629 forward 7 unknown #
point $-1 53.805352946562088 -19.034387928585545 12.760970421772672 #
face $-1 $630 $482 $19 $-1 $631 reversed single #
loop $-1 $-1 $632 $468 #
plane-surface $-1 0 19.034387928585545 10.465148505411941 0 1 0 0 0 1 forward_v I I I I #
coedge $-1 $633 $634 $635 $636 reversed $469 $-1 #
coedge $-1 $471 $637 $638 $639 forward $372 $-1 #
coedge $-1 $638 $480 $472 $566 forward $482 $-1 #
edge $-1 $640 -37.870973729720298 $568 -28.069543123625344 $565 $641 forward 7 unknown #
edge $-1 $640 9.739602292442716e-015 $569 14.371633516340612 $473 $642 forward 7 unknown #
vertex $-1 $566 $643 #
vertex $-1 $476 $644 #
straight-curve $-1 -63.597839381697398 10.119844741502416 12.760970421772676 1 0 0 I I #
straight-curve $-1 -43.294605684739558 3.3910187163107182 12.760970421772672 0 -1 0 I I #
edge $-1 $478 0.053211407429738955 $640 6.7288260251916974 $480 $645 forward 7 unknown #
point $-1 -53.805352946562088 3.4442301237404571 2.9595398156777217 #
coedge $-1 $481 $646 $647 $648 forward $482 $-1 #
coedge $-1 $637 $484 $649 $650 forward $372 $-1 #
coedge $-1 $647 $651 $484 $577 reversed $652 $-1 #
edge $-1 $578 -53.805352946562088 $653 53.805352946562088 $484 $654 forward 7 unknown #
vertex $-1 $648 $655 #
straight-curve $-1 -53.805352946562088 0 12.760970421772674 0 -1 0 I I #
vertex $-1 $493 $656 #
straight-curve $-1 0 30.055758498733127 -12.760970421772674 1 0 0 I I #
straight-curve $-1 -53.805352946562088 30.055758498733127 0 0 0 -1 I I #
straight-curve $-1 -53.805352946562088 0 -12.760970421772674 0 1 0 I I #
straight-curve $-1 0 -19.034387928585545 8.1693265890512095 1 0 0 I I #
coedge $-1 $524 $507 $515 $590 forward $525 $-1 #
vertex $-1 $590 $657 #
straight-curve $-1 0 -30.055758498733127 8.1693265890512095 -1 0 0 I I #
point $-1 53.805352946562088 -19.034387928585545 8.1693265890512095 #
point $-1 53.805352946562088 -30.055758498733127 8.1693265890512095 #
edge $-1 $586 -8.1693265890512095 $591 12.760970421772674 $515 $658 forward 7 unknown #
vertex $-1 $517 $659 #
straight-curve $-1 -53.805352946562088 0 -12.760970421772674 0 1 0 I I #
straight-curve $-1 -53.805352946562088 -12.272536606829668 8.1693265890512095 0 1 0 I I #
point $-1 -53.805352946562088 -19.034387928585545 8.1693265890512095 #
straight-curve $-1 0 -30.055758498733127 -12.760970421772674 -1 0 0 I I #
face $-1 $660 $543 $18 $-1 $661 reversed single #
plane-surface $-1 0 -19.034387928585545 10.465148505411941 0 -1 0 0 0 -1 forward_v I I I I #
coedge $-1 $621 $620 $626 $662 reversed $531 $-1 #
coedge $-1 $534 $533 $541 $610 reversed $352 $-1 #
coedge $-1 $663 $535 $537 $603 forward $268 $-1 #
vertex $-1 $603 $664 #
straight-curve $-1 -53.805352946562088 19.034387928585545 5.2325742527059704 0 0 -1 I I #
edge $-1 $601 6.7618513217558771 $607 17.783221891903459 $600 $665 forward 7 unknown #
coedge $-1 $666 $538 $542 $612 forward $606 $-1 #
coedge $-1 $538 $666 $663 $667 reversed $606 $-1 #
loop $-1 $-1 $538 $668 #
vertex $-1 $667 $669 #
straight-curve $-1 0 30.055758498733127 8.1693265890512095 1 0 0 I I #
straight-curve $-1 0 19.034387928585545 8.1693265890512095 -1 0 0 I I #
edge $-1 $545 2.936752336345239 $556 7.5283961690667018 $541 $670 forward 7 unknown #
coedge $-1 $542 $671 $672 $673 reversed $543 $-1 #
edge $-1 $544 -8.1693265890512095 $674 12.760970421772674 $542 $675 forward 7 unknown #
point $-1 53.805352946562088 30.055758498733127 8.1693265890512095 #
point $-1 53.805352946562088 19.034387928585545 8.1693265890512095 #
straight-curve $-1 0 19.034387928585545 12.760970421772674 -1 0 0 I I #
point $-1 -53.805352946562088 19.034387928585545 12.760970421772672 #
coedge $-1 $549 $663 $676 $677 reversed $268 $-1 #
coedge $-1 $678 $679 $549 $619 forward $680 $-1 #
edge $-1 $622 -8.1693265890512095 $681 12.760970421772674 $549 $682 forward 7 unknown #
coedge $-1 $598 $550 $679 $683 reversed $531 $-1 #
coedge $-1 $550 $598 $552 $624 reversed $531 $-1 #
vertex $-1 $619 $684 #
straight-curve $-1 -53.805352946562088 -12.272536606829668 8.1693265890512095 0 1 0 I I #
edge $-1 $553 -53.805352946562088 $628 53.805352946562088 $552 $685 forward 7 unknown #
point $-1 -53.805352946562088 -19.034387928585545 8.1693265890512095 #
coedge $-1 $671 $555 $598 $662 forward $543 $-1 #
point $-1 53.805352946562088 19.034387928585545 12.760970421772672 #
vertex $-1 $662 $686 #
straight-curve $-1 53.805352946562088 -19.034387928585545 5.2325742527059704 0 0 -1 I I #
face $-1 $687 $688 $19 $-1 $689 forward single #
plane-surface $-1 -53.805352946562088 0 0 1 0 0 0 0 -1 forward_v I I I I #
coedge $-1 $690 $691 $692 $693 reversed $561 $-1 #
coedge $-1 $694 $563 $695 $696 reversed $469 $-1 #
coedge $-1 $563 $694 $691 $697 reversed $469 $-1 #
coedge $-1 $698 $699 $563 $636 forward $700 $-1 #
edge $-1 $701 -17.783221891903459 $702 -6.7618513217558771 $635 $703 forward 7 unknown #
coedge $-1 $564 $575 $690 $704 forward $372 $-1 #
coedge $-1 $692 $565 $564 $639 reversed $482 $-1 #
edge $-1 $705 -19.034387928585545 $568 -10.119844741502416 $638 $579 forward 7 unknown #
vertex $-1 $572 $706 #
straight-curve $-1 -53.805352946562088 10.119844741502416 40.83051354539802 0 0 1 I I #
straight-curve $-1 -53.805352946562095 10.119844741502416 2.9595398156777151 0.7313536940579346 0 0.68199836817093118 I I #
point $-1 -53.805352946562088 10.119844741502416 12.760970421772674 #
point $-1 -43.294605684739565 10.119844741502416 12.760970421772674 #
straight-curve $-1 -53.805352946562088 3.3910187163107182 2.959539815677724 0 1 0 I I #
coedge $-1 $574 $707 $708 $709 forward $482 $-1 #
coedge $-1 $710 $576 $574 $648 reversed $652 $-1 #
edge $-1 $711 2.936752336345239 $578 7.5283961690667018 $574 $712 forward 7 unknown #
coedge $-1 $713 $698 $575 $650 reversed $700 $-1 #
edge $-1 $653 -19.034387928585545 $714 19.034387928585545 $649 $715 forward 7 unknown #
coedge $-1 $576 $710 $713 $716 reversed $652 $-1 #
loop $-1 $-1 $651 $687 #
vertex $-1 $650 $717 #
straight-curve $-1 0 -19.034387928585545 12.760970421772674 1 0 0 I I #
point $-1 -53.805352946562088 -19.034387928585545 12.760970421772672 #
point $-1 -53.805352946562088 30.055758498733127 -12.760970421772674 #
point $-1 -53.805352946562088 -30.055758498733127 8.1693265890512095 #
straight-curve $-1 -53.805352946562088 -30.055758498733127 0 0 0 -1 I I #
point $-1 -53.805352946562088 -30.055758498733127 -12.760970421772674 #
face $-1 $718 $719 $18 $-1 $720 reversed single #
plane-surface $-1 53.805352946562088 0 0 -1 0 0 0 0 1 forward_v I I I I #
edge $-1 $628 6.7618513217558771 $721 17.783221891903459 $626 $722 forward 7 unknown #
coedge $-1 $617 $600 $605 $667 forward $268 $-1 #
point $-1 -53.805352946562088 19.034387928585545 8.1693265890512095 #
straight-curve $-1 -53.805352946562088 12.272536606829668 8.1693265890512095 0 1 0 I I #
coedge $-1 $605 $604 $723 $724 reversed $606 $-1 #
edge $-1 $607 -8.1693265890512095 $725 12.760970421772674 $605 $726 forward 7 unknown #
face $-1 $-1 $606 $18 $-1 $727 reversed single #
point $-1 -53.805352946562088 30.055758498733127 8.1693265890512095 #
straight-curve $-1 53.805352946562088 19.034387928585545 5.2325742527059704 0 0 1 I I #
coedge $-1 $611 $626 $728 $729 forward $543 $-1 #
coedge $-1 $730 $723 $611 $673 forward $719 $-1 #
edge $-1 $674 -30.055758498733127 $731 30.055758498733127 $611 $732 forward 7 unknown #
vertex $-1 $673 $733 #
straight-curve $-1 53.805352946562088 30.055758498733127 0 0 0 -1 I I #
coedge $-1 $723 $730 $617 $677 forward $719 $-1 #
edge $-1 $681 -30.055758498733127 $725 30.055758498733127 $617 $734 forward 7 unknown #
coedge $-1 $728 $618 $730 $735 reversed $680 $-1 #
coedge $-1 $618 $728 $620 $683 forward $680 $-1 #
loop $-1 $-1 $679 $718 #
vertex $-1 $677 $736 #
straight-curve $-1 -53.805352946562088 -30.055758498733127 0 0 0 -1 I I #
edge $-1 $721 -53.805352946562088 $622 53.805352946562088 $679 $737 forward 7 unknown #
point $-1 -53.805352946562088 -30.055758498733127 8.1693265890512095 #
straight-curve $-1 0 -19.034387928585545 8.1693265890512095 1 0 0 I I #
point $-1 53.805352946562088 -19.034387928585545 8.1693265890512095 #
face $-1 $738 $652 $19 $-1 $739 forward single #
loop $-1 $-1 $740 $630 #
plane-surface $-1 0 -24.545073213659336 8.1693265890512095 0 0 1 1 0 0 forward_v I I I I #
coedge $-1 $741 $632 $637 $704 reversed $561 $-1 #
coedge $-1 $632 $741 $634 $697 forward $561 $-1 #
coedge $-1 $742 $638 $632 $693 forward $482 $-1 #
edge $-1 $705 -7.5283961690667018 $743 -2.936752336345239 $692 $744 forward 7 unknown #
coedge $-1 $634 $633 $742 $745 reversed $469 $-1 #
coedge $-1 $746 $747 $633 $696 forward $748 $-1 #
edge $-1 $749 -53.805352946562088 $701 53.805352946562088 $695 $750 forward 7 unknown #
edge $-1 $702 -53.805352946562088 $743 53.805352946562088 $691 $751 forward 7 unknown #
coedge $-1 $649 $635 $741 $752 forward $700 $-1 #
coedge $-1 $635 $753 $746 $754 reversed $700 $-1 #
loop $-1 $-1 $698 $738 #
vertex $-1 $754 $755 #
vertex $-1 $636 $756 #
straight-curve $-1 53.805352946562088 12.272536606829668 8.1693265890512095 0 -1 0 I I #
edge $-1 $714 -53.805352946562088 $705 53.805352946562088 $637 $757 forward 7 unknown #
vertex $-1 $639 $758 #
point $-1 -53.805352946562088 10.119844741502416 2.9595398156777217 #
coedge $-1 $646 $759 $760 $761 reversed $482 $-1 #
coedge $-1 $762 $763 $646 $709 reversed $688 $-1 #
edge $-1 $764 -17.783221891903459 $711 -6.7618513217558771 $646 $765 forward 7 unknown #
coedge $-1 $651 $647 $763 $766 forward $652 $-1 #
vertex $-1 $709 $767 #
straight-curve $-1 -53.805352946562088 -19.034387928585545 5.2325742527059704 0 0 1 I I #
coedge $-1 $768 $649 $651 $716 forward $700 $-1 #
vertex $-1 $704 $769 #
straight-curve $-1 53.805352946562088 0 12.760970421772674 0 1 0 I I #
edge $-1 $653 -7.5283961690667018 $770 -2.936752336345239 $713 $771 forward 7 unknown #
point $-1 53.805352946562088 -19.034387928585545 12.760970421772672 #
face $-1 $668 $680 $18 $-1 $772 reversed single #
loop $-1 $-1 $672 $660 #
plane-surface $-1 0 0 -12.760970421772674 0 0 1 1 0 0 forward_v I I I I #
vertex $-1 $729 $773 #
straight-curve $-1 53.805352946562088 -12.272536606829668 8.1693265890512095 0 -1 0 I I #
coedge $-1 $672 $676 $666 $724 forward $719 $-1 #
edge $-1 $725 -53.805352946562088 $674 53.805352946562088 $666 $774 forward 7 unknown #
vertex $-1 $724 $775 #
straight-curve $-1 -53.805352946562088 30.055758498733127 0 0 0 -1 I I #
plane-surface $-1 0 30.055758498733127 0 0 -1 0 0 0 -1 forward_v I I I I #
coedge $-1 $679 $678 $671 $729 reversed $680 $-1 #
edge $-1 $721 -8.1693265890512095 $731 12.760970421772674 $671 $776 forward 7 unknown #
coedge $-1 $676 $672 $678 $735 forward $719 $-1 #
vertex $-1 $729 $777 #
straight-curve $-1 53.805352946562088 0 -12.760970421772674 0 -1 0 I I #
point $-1 53.805352946562088 30.055758498733127 -12.760970421772674 #
straight-curve $-1 -53.805352946562088 0 -12.760970421772674 0 1 0 I I #
edge $-1 $731 -53.805352946562088 $681 53.805352946562088 $678 $778 forward 7 unknown #
point $-1 -53.805352946562088 -30.055758498733127 -12.760970421772674 #
straight-curve $-1 0 -30.055758498733127 8.1693265890512095 -1 0 0 I I #
face $-1 $779 $700 $19 $-1 $780 reversed single #
plane-surface $-1 0 -19.034387928585545 10.465148505411941 0 -1 0 0 0 -1 forward_v I I I I #
coedge $-1 $763 $762 $768 $781 reversed $688 $-1 #
coedge $-1 $691 $690 $698 $752 reversed $561 $-1 #
coedge $-1 $782 $692 $694 $745 forward $482 $-1 #
vertex $-1 $745 $783 #
straight-curve $-1 -53.805352946562088 19.034387928585545 5.2325742527059704 0 0 -1 I I #
edge $-1 $743 6.7618513217558771 $749 17.783221891903459 $742 $784 forward 7 unknown #
coedge $-1 $785 $695 $699 $754 forward $748 $-1 #
coedge $-1 $695 $785 $782 $786 reversed $748 $-1 #
loop $-1 $-1 $695 $787 #
vertex $-1 $786 $788 #
straight-curve $-1 0 30.055758498733127 8.1693265890512095 1 0 0 I I #
straight-curve $-1 0 19.034387928585545 8.1693265890512095 -1 0 0 I I #
edge $-1 $702 2.936752336345239 $714 7.5283961690667018 $698 $789 forward 7 unknown #
coedge $-1 $699 $790 $791 $792 reversed $700 $-1 #
edge $-1 $701 -8.1693265890512095 $793 12.760970421772674 $699 $794 forward 7 unknown #
point $-1 53.805352946562088 30.055758498733127 8.1693265890512095 #
point $-1 53.805352946562088 19.034387928585545 8.1693265890512095 #
straight-curve $-1 0 19.034387928585545 12.760970421772674 -1 0 0 I I #
point $-1 -53.805352946562088 19.034387928585545 12.760970421772672 #
coedge $-1 $707 $782 $795 $796 reversed $482 $-1 #
coedge $-1 $797 $798 $707 $761 forward $799 $-1 #
edge $-1 $764 -8.1693265890512095 $800 12.760970421772674 $707 $801 forward 7 unknown #
coedge $-1 $740 $708 $798 $802 reversed $688 $-1 #
coedge $-1 $708 $740 $710 $766 reversed $688 $-1 #
vertex $-1 $761 $803 #
straight-curve $-1 -53.805352946562088 -12.272536606829668 8.1693265890512095 0 1 0 I I #
edge $-1 $711 -53.805352946562088 $770 53.805352946562088 $710 $804 forward 7 unknown #
point $-1 -53.805352946562088 -19.034387928585545 8.1693265890512095 #
coedge $-1 $790 $713 $740 $781 forward $700 $-1 #
point $-1 53.805352946562088 19.034387928585545 12.760970421772672 #
vertex $-1 $781 $805 #
straight-curve $-1 53.805352946562088 -19.034387928585545 5.2325742527059704 0 0 -1 I I #
plane-surface $-1 0 -30.055758498733127 0 0 1 0 0 0 1 forward_v I I I I #
point $-1 53.805352946562088 -30.055758498733127 8.1693265890512095 #
straight-curve $-1 0 30.055758498733127 -12.760970421772674 1 0 0 I I #
point $-1 -53.805352946562088 30.055758498733127 -12.760970421772674 #
straight-curve $-1 53.805352946562088 -30.055758498733127 0 0 0 -1 I I #
point $-1 53.805352946562088 -30.055758498733127 -12.760970421772674 #
straight-curve $-1 0 -30.055758498733127 -12.760970421772674 -1 0 0 I I #
face $-1 $806 $807 $19 $-1 $808 reversed single #
plane-surface $-1 53.805352946562088 0 0 -1 0 0 0 0 1 forward_v I I I I #
edge $-1 $770 6.7618513217558771 $809 17.783221891903459 $768 $810 forward 7 unknown #
coedge $-1 $759 $742 $747 $786 forward $482 $-1 #
point $-1 -53.805352946562088 19.034387928585545 8.1693265890512095 #
straight-curve $-1 -53.805352946562088 12.272536606829668 8.1693265890512095 0 1 0 I I #
coedge $-1 $747 $746 $811 $812 reversed $748 $-1 #
edge $-1 $749 -8.1693265890512095 $813 12.760970421772674 $747 $814 forward 7 unknown #
face $-1 $-1 $748 $19 $-1 $815 reversed single #
point $-1 -53.805352946562088 30.055758498733127 8.1693265890512095 #
straight-curve $-1 53.805352946562088 19.034387928585545 5.2325742527059704 0 0 1 I I #
coedge $-1 $753 $768 $816 $817 forward $700 $-1 #
coedge $-1 $818 $811 $753 $792 forward $807 $-1 #
edge $-1 $793 -30.055758498733127 $819 30.055758498733127 $753 $820 forward 7 unknown #
vertex $-1 $792 $821 #
straight-curve $-1 53.805352946562088 30.055758498733127 0 0 0 -1 I I #
coedge $-1 $811 $818 $759 $796 forward $807 $-1 #
edge $-1 $800 -30.055758498733127 $813 30.055758498733127 $759 $822 forward 7 unknown #
coedge $-1 $816 $760 $818 $823 reversed $799 $-1 #
coedge $-1 $760 $816 $762 $802 forward $799 $-1 #
loop $-1 $-1 $798 $806 #
vertex $-1 $796 $824 #
straight-curve $-1 -53.805352946562088 -30.055758498733127 0 0 0 -1 I I #
edge $-1 $809 -53.805352946562088 $764 53.805352946562088 $798 $825 forward 7 unknown #
point $-1 -53.805352946562088 -30.055758498733127 8.1693265890512095 #
straight-curve $-1 0 -19.034387928585545 8.1693265890512095 1 0 0 I I #
point $-1 53.805352946562088 -19.034387928585545 8.1693265890512095 #
face $-1 $787 $799 $19 $-1 $826 reversed single #
loop $-1 $-1 $791 $779 #
plane-surface $-1 0 0 -12.760970421772674 0 0 1 1 0 0 forward_v I I I I #
vertex $-1 $817 $827 #
straight-curve $-1 53.805352946562088 -12.272536606829668 8.1693265890512095 0 -1 0 I I #
coedge $-1 $791 $795 $785 $812 forward $807 $-1 #
edge $-1 $813 -53.805352946562088 $793 53.805352946562088 $785 $828 forward 7 unknown #
vertex $-1 $812 $829 #
straight-curve $-1 -53.805352946562088 30.055758498733127 0 0 0 -1 I I #
plane-surface $-1 0 30.055758498733127 0 0 -1 0 0 0 -1 forward_v I I I I #
coedge $-1 $798 $797 $790 $817 reversed $799 $-1 #
edge $-1 $809 -8.1693265890512095 $819 12.760970421772674 $790 $830 forward 7 unknown #
coedge $-1 $795 $791 $797 $823 forward $807 $-1 #
vertex $-1 $817 $831 #
straight-curve $-1 53.805352946562088 0 -12.760970421772674 0 -1 0 I I #
point $-1 53.805352946562088 30.055758498733127 -12.760970421772674 #
straight-curve $-1 -53.805352946562088 0 -12.760970421772674 0 1 0 I I #
edge $-1 $819 -53.805352946562088 $800 53.805352946562088 $797 $832 forward 7 unknown #
point $-1 -53.805352946562088 -30.055758498733127 -12.760970421772674 #
straight-curve $-1 0 -30.055758498733127 8.1693265890512095 -1 0 0 I I #
plane-surface $-1 0 -30.055758498733127 0 0 1 0 0 0 1 forward_v I I I I #
point $-1 53.805352946562088 -30.055758498733127 8.1693265890512095 #
straight-curve $-1 0 30.055758498733127 -12.760970421772674 1 0 0 I I #
point $-1 -53.805352946562088 30.055758498733127 -12.760970421772674 #
straight-curve $-1 53.805352946562088 -30.055758498733127 0 0 0 -1 I I #
point $-1 53.805352946562088 -30.055758498733127 -12.760970421772674 #
straight-curve $-1 0 -30.055758498733127 -12.760970421772674 -1 0 0 I I #
End-of-ACIS-data 