500 0 6 0           
7 Unknown 11 ACIS 5.0 NT 24 Fri Mar 26 16:38:50 1999 
-1 9.9999999999999995e-007 1e-010 
body $-1 $6 $-1 $7 #
body $-1 $8 $-1 $9 #
body $-1 $10 $-1 $11 #
body $-1 $12 $-1 $13 #
body $-1 $14 $-1 $15 #
body $-1 $16 $-1 $17 #
lump $-1 $-1 $18 $0 #
transform $-1 1 0 0 0 1 0 0 0 1 57.307657094027533 23.45194358669497 5.7798552088599475 1 rotate no_reflect no_shear #
lump $-1 $-1 $19 $1 #
transform $-1 1 0 0 0 1 0 0 0 1 57.307657094027533 23.45194358669497 5.7798552088599475 1 rotate no_reflect no_shear #
lump $-1 $-1 $20 $2 #
transform $-1 1 0 0 0 1 0 0 0 1 57.307657094027533 23.45194358669497 5.7798552088599475 1 rotate no_reflect no_shear #
lump $-1 $-1 $21 $3 #
transform $-1 1 0 0 0 1 0 0 0 1 57.307657094027533 23.45194358669497 5.7798552088599475 1 rotate no_reflect no_shear #
lump $-1 $-1 $22 $4 #
transform $-1 1 0 0 0 1 0 0 0 1 57.307657094027533 23.45194358669497 5.7798552088599475 1 rotate no_reflect no_shear #
lump $-1 $-1 $23 $5 #
transform $-1 1 0 0 0 1 0 0 0 1 57.307657094027533 23.45194358669497 5.7798552088599475 1 rotate no_reflect no_shear #
shell $-1 $-1 $-1 $24 $-1 $6 #
shell $-1 $-1 $-1 $25 $-1 $8 #
shell $-1 $-1 $-1 $26 $-1 $10 #
shell $-1 $-1 $-1 $27 $-1 $12 #
shell $-1 $-1 $-1 $28 $-1 $14 #
shell $-1 $-1 $-1 $29 $-1 $16 #
face $-1 $30 $31 $18 $-1 $32 forward single #
face $-1 $33 $34 $19 $-1 $35 forward single #
face $-1 $36 $37 $20 $-1 $38 reversed single #
face $-1 $39 $40 $21 $-1 $41 forward single #
face $-1 $42 $43 $22 $-1 $44 reversed single #
face $-1 $45 $46 $23 $-1 $47 forward single #
face $-1 $48 $49 $18 $-1 $50 reversed single #
loop $-1 $-1 $51 $24 #
plane-surface $-1 0 0 5.7798552088599475 0 0 1 1 0 0 forward_v I I I I #
face $-1 $52 $53 $19 $-1 $54 reversed single #
loop $-1 $-1 $55 $25 #
plane-surface $-1 0 -23.45194358669497 0 0 1 0 0 0 1 forward_v I I I I #
face $-1 $56 $57 $20 $-1 $58 reversed single #
loop $-1 $-1 $59 $26 #
plane-surface $-1 48.824495868253592 17.886775896021074 162.08464204052069 0 -1 0 -0.66913061440640931 0 -0.74314481823134659 forward_v I I I I #
face $-1 $60 $61 $21 $-1 $62 forward single #
loop $-1 $63 $64 $27 #
cone-surface $-1 53.406351142088084 13.691936188811898 2.0964560608688361 -0.66913061440640931 0 -0.74314481823134659 0.74314481823134659 0 -0.66913061440640931 1 I I 0 1 1 forward I I I I #
face $-1 $65 $66 $22 $-1 $67 reversed single #
loop $-1 $-1 $68 $28 #
plane-surface $-1 -134.00027269706447 9.4970964816027212 85.39202643748375 0 1 0 -0.66913061440640931 0 0.74314481823134659 forward_v I I I I #
face $-1 $69 $70 $23 $-1 $71 forward single #
loop $-1 $72 $73 $29 #
cone-surface $-1 -53.406351142088077 13.691936188811898 2.0964560608688352 0.66913061440640931 0 -0.74314481823134659 0.74314481823134659 0 0.66913061440640931 1 I I 0 1 1 forward I I I I #
face $-1 $74 $75 $18 $-1 $76 reversed single #
loop $-1 $-1 $77 $30 #
plane-surface $-1 0 0 -5.7798552088599475 0 0 1 1 0 0 forward_v I I I I #
coedge $-1 $78 $79 $80 $81 forward $31 $-1 #
face $-1 $82 $83 $19 $-1 $84 reversed single #
loop $-1 $-1 $85 $33 #
plane-surface $-1 0 0 -5.7798552088599475 0 0 1 1 0 0 forward_v I I I I #
coedge $-1 $86 $87 $88 $89 forward $34 $-1 #
face $-1 $90 $91 $20 $-1 $92 reversed single #
loop $-1 $-1 $93 $36 #
plane-surface $-1 -27.868119734783335 13.691936188811898 76.908865211709823 0.66913061440640931 0 0.74314481823134659 0.74314481823134659 0 -0.66913061440640931 forward_v I I I I #
coedge $-1 $94 $95 $96 $97 reversed $37 $-1 #
face $-1 $-1 $98 $21 $-1 $99 forward single #
loop $-1 $100 $101 $39 #
cone-surface $-1 52.25998481923483 13.691936188811898 0.82328730385558835 -0.66913061440640931 0 -0.74314481823134659 0.3715724091156733 0 -0.33456530720320465 1 I I -0.70710678118654746 0.70710678118654746 0.5 forward I I I I #
loop $-1 $-1 $102 $27 #
coedge $-1 $64 $64 $103 $104 reversed $40 $-1 #
face $-1 $105 $106 $22 $-1 $107 reversed single #
loop $-1 $-1 $108 $42 #
plane-surface $-1 -57.307657094027547 13.691936188811898 0.21624960867288223 -0.66913061440640931 0 0.74314481823134659 0.74314481823134659 0 0.66913061440640931 forward_v I I I I #
coedge $-1 $109 $110 $111 $112 reversed $43 $-1 #
face $-1 $-1 $113 $23 $-1 $114 forward single #
loop $-1 $115 $116 $45 #
cone-surface $-1 -52.259984819234823 13.691936188811898 0.82328730385558746 0.66913061440640931 0 -0.74314481823134659 0.3715724091156733 0 0.33456530720320465 1 I I -0.70710678118654746 0.70710678118654746 0.5 forward I I I I #
loop $-1 $-1 $117 $29 #
coedge $-1 $73 $73 $118 $119 reversed $46 $-1 #
face $-1 $120 $121 $18 $-1 $122 reversed single #
loop $-1 $-1 $123 $48 #
plane-surface $-1 0 -23.45194358669497 0 0 1 0 0 0 1 forward_v I I I I #
coedge $-1 $124 $125 $126 $127 forward $49 $-1 #
coedge $-1 $128 $51 $129 $130 forward $31 $-1 #
coedge $-1 $51 $128 $131 $132 forward $31 $-1 #
coedge $-1 $133 $134 $51 $81 reversed $135 $-1 #
edge $-1 $136 -23.45194358669497 $137 23.45194358669497 $80 $138 forward 7 unknown #
face $-1 $139 $140 $19 $-1 $141 forward single #
loop $-1 $-1 $142 $52 #
plane-surface $-1 57.307657094027533 0 0 -1 0 0 0 0 1 forward_v I I I I #
coedge $-1 $143 $144 $145 $146 forward $53 $-1 #
coedge $-1 $145 $55 $142 $147 reversed $34 $-1 #
coedge $-1 $55 $145 $148 $149 reversed $34 $-1 #
coedge $-1 $150 $151 $55 $89 reversed $140 $-1 #
edge $-1 $152 -57.307657094027533 $153 57.307657094027533 $88 $154 forward 7 unknown #
face $-1 $155 $156 $20 $-1 $157 reversed single #
loop $-1 $-1 $158 $56 #
plane-surface $-1 48.824495868253592 9.4970964816027212 162.08464204052069 0 1 0 0.66913061440640931 0 0.74314481823134659 forward_v I I I I #
coedge $-1 $159 $160 $161 $162 reversed $57 $-1 #
coedge $-1 $95 $59 $163 $164 reversed $37 $-1 #
coedge $-1 $59 $94 $159 $165 reversed $37 $-1 #
coedge $-1 $161 $166 $59 $97 forward $167 $-1 #
edge $-1 $168 -32.895409159900737 $169 -26.716399287321948 $96 $170 forward 7 unknown #
loop $-1 $-1 $103 $60 #
plane-surface $-1 -27.868119734783335 13.691936188811898 76.908865211709823 0.66913061440640931 0 0.74314481823134659 0.74314481823134659 0 -0.66913061440640931 forward_v I I I I #
loop $-1 $-1 $171 $39 #
coedge $-1 $101 $101 $102 $172 reversed $61 $-1 #
coedge $-1 $102 $102 $101 $172 forward $63 $-1 #
coedge $-1 $103 $103 $64 $104 forward $98 $-1 #
edge $-1 $173 0 $173 6.2831853071796004 $103 $174 forward 7 unknown #
face $-1 $175 $176 $22 $-1 $177 forward single #
loop $-1 $-1 $178 $65 #
plane-surface $-1 -134.00027269706447 17.886775896021074 85.39202643748375 0 -1 0 0.66913061440640931 0 -0.74314481823134659 forward_v I I I I #
coedge $-1 $179 $180 $181 $182 reversed $66 $-1 #
coedge $-1 $110 $68 $183 $184 reversed $43 $-1 #
coedge $-1 $68 $109 $179 $185 reversed $43 $-1 #
coedge $-1 $181 $186 $68 $112 forward $176 $-1 #
edge $-1 $187 9.692479254504704 $188 15.871489127083485 $111 $189 forward 7 unknown #
loop $-1 $-1 $118 $69 #
plane-surface $-1 -57.307657094027547 13.691936188811898 0.21624960867288223 -0.66913061440640931 0 0.74314481823134659 0.74314481823134659 0 0.66913061440640931 forward_v I I I I #
loop $-1 $-1 $190 $45 #
coedge $-1 $116 $116 $117 $191 reversed $70 $-1 #
coedge $-1 $117 $117 $116 $191 forward $72 $-1 #
coedge $-1 $118 $118 $73 $119 forward $113 $-1 #
edge $-1 $192 0 $192 6.2831853071796004 $118 $193 forward 7 unknown #
face $-1 $194 $195 $18 $-1 $196 reversed single #
loop $-1 $-1 $197 $74 #
plane-surface $-1 -57.307657094027533 0 0 1 0 0 0 0 -1 forward_v I I I I #
coedge $-1 $131 $198 $133 $199 reversed $75 $-1 #
coedge $-1 $200 $77 $198 $201 forward $49 $-1 #
coedge $-1 $77 $200 $202 $203 forward $49 $-1 #
coedge $-1 $134 $133 $77 $127 reversed $135 $-1 #
edge $-1 $204 -23.45194358669497 $205 23.45194358669497 $126 $206 forward 7 unknown #
coedge $-1 $79 $78 $207 $208 forward $31 $-1 #
coedge $-1 $209 $210 $78 $130 reversed $195 $-1 #
edge $-1 $137 -57.307657094027533 $211 57.307657094027533 $129 $212 forward 7 unknown #
coedge $-1 $213 $123 $79 $132 reversed $75 $-1 #
edge $-1 $214 -57.307657094027533 $136 57.307657094027533 $131 $215 forward 7 unknown #
coedge $-1 $126 $80 $123 $199 forward $135 $-1 #
coedge $-1 $80 $126 $209 $216 reversed $135 $-1 #
loop $-1 $-1 $133 $194 #
vertex $-1 $81 $217 #
vertex $-1 $81 $218 #
straight-curve $-1 57.307657094027533 0 5.7798552088599475 0 1 0 I I #
face $-1 $219 $220 $19 $-1 $221 reversed single #
loop $-1 $-1 $151 $82 #
plane-surface $-1 0 -25.494167325478564 -2.3146232505465938 0 0 1 1 0 0 forward_v I I I I #
coedge $-1 $222 $223 $86 $147 forward $83 $-1 #
coedge $-1 $224 $85 $223 $225 forward $53 $-1 #
coedge $-1 $85 $224 $226 $227 forward $53 $-1 #
coedge $-1 $87 $86 $85 $146 reversed $34 $-1 #
edge $-1 $228 -57.307657094027533 $229 57.307657094027533 $85 $230 forward 7 unknown #
edge $-1 $229 -5.7798552088599475 $153 -2.3146232505465938 $142 $231 forward 7 unknown #
coedge $-1 $226 $232 $87 $149 forward $233 $-1 #
edge $-1 $152 2.3146232505465938 $228 5.7798552088599475 $148 $234 forward 7 unknown #
coedge $-1 $235 $88 $232 $236 forward $140 $-1 #
coedge $-1 $88 $235 $222 $237 forward $140 $-1 #
vertex $-1 $149 $238 #
vertex $-1 $237 $239 #
straight-curve $-1 0 -23.45194358669497 -2.3146232505465938 1 0 0 I I #
face $-1 $-1 $167 $20 $-1 $240 forward single #
loop $-1 $-1 $241 $90 #
plane-surface $-1 57.307657094027533 0 0 -1 0 0 0 0 1 forward_v I I I I #
coedge $-1 $242 $243 $244 $245 reversed $91 $-1 #
coedge $-1 $246 $93 $95 $165 forward $57 $-1 #
coedge $-1 $93 $246 $242 $247 forward $57 $-1 #
coedge $-1 $244 $96 $93 $162 forward $167 $-1 #
edge $-1 $169 -11.040807801615125 $248 -2.6511283871967724 $161 $249 forward 7 unknown #
coedge $-1 $250 $251 $94 $164 forward $156 $-1 #
edge $-1 $252 -80.826071411587463 $168 -75.262465811400403 $163 $253 forward 7 unknown #
edge $-1 $169 106.30063618587971 $252 114.61531418805507 $95 $254 forward 7 unknown #
coedge $-1 $96 $244 $250 $255 forward $167 $-1 #
loop $-1 $-1 $244 $155 #
vertex $-1 $164 $256 #
vertex $-1 $97 $257 #
straight-curve $-1 24.412247934126796 17.886775896021074 5.7798552088599422 -1 0 0 I I #
coedge $-1 $171 $171 $-1 $258 reversed $100 $-1 #
edge $-1 $259 0 $259 6.2831853071796004 $101 $260 forward 7 unknown #
vertex $-1 $104 $261 #
ellipse-curve $-1 54.218152157738146 13.691936188811898 2.9980524087664224 0.66913061440640931 0 0.74314481823134659 0.74314481823134659 0 -0.66913061440640931 1 I I #
face $-1 $-1 $262 $22 $-1 $263 reversed single #
loop $-1 $-1 $111 $105 #
plane-surface $-1 0 0 5.7798552088599475 0 0 1 1 0 0 forward_v I I I I #
coedge $-1 $264 $265 $266 $267 reversed $106 $-1 #
coedge $-1 $268 $108 $110 $185 forward $66 $-1 #
coedge $-1 $108 $268 $264 $269 forward $66 $-1 #
coedge $-1 $266 $111 $108 $182 forward $176 $-1 #
edge $-1 $188 2.6511283871967724 $270 11.040807801615125 $181 $271 forward 7 unknown #
coedge $-1 $272 $273 $109 $184 forward $262 $-1 #
edge $-1 $274 -42.479763610068979 $187 -36.916158009881926 $183 $275 forward 7 unknown #
edge $-1 $188 -8.314678002175377 $274 -1.9122463617454847e-014 $110 $276 forward 7 unknown #
coedge $-1 $111 $266 $272 $277 forward $176 $-1 #
vertex $-1 $184 $278 #
vertex $-1 $112 $279 #
straight-curve $-1 -67.000136348532237 9.4970964816027212 5.7798552088599493 1 0 0 I I #
coedge $-1 $190 $190 $-1 $280 reversed $115 $-1 #
edge $-1 $281 0 $281 6.2831853071796004 $116 $282 forward 7 unknown #
vertex $-1 $119 $283 #
ellipse-curve $-1 -54.218152157738139 13.691936188811898 2.9980524087664238 -0.66913061440640931 0 0.74314481823134659 0.74314481823134659 0 0.66913061440640931 1 I I #
face $-1 $-1 $135 $18 $-1 $284 reversed single #
loop $-1 $-1 $209 $120 #
plane-surface $-1 0 23.45194358669497 0 0 -1 0 0 0 -1 forward_v I I I I #
coedge $-1 $285 $207 $210 $286 forward $121 $-1 #
coedge $-1 $123 $213 $124 $201 reversed $75 $-1 #
edge $-1 $136 -5.7798552088599475 $205 5.7798552088599475 $133 $287 forward 7 unknown #
coedge $-1 $125 $124 $285 $288 forward $49 $-1 #
edge $-1 $205 -57.307657094027533 $289 57.307657094027533 $198 $290 forward 7 unknown #
coedge $-1 $210 $209 $125 $203 reversed $195 $-1 #
edge $-1 $291 -57.307657094027533 $204 57.307657094027533 $202 $292 forward 7 unknown #
vertex $-1 $127 $293 #
vertex $-1 $199 $294 #
straight-curve $-1 57.307657094027533 0 -5.7798552088599475 0 -1 0 I I #
coedge $-1 $197 $295 $128 $208 reversed $121 $-1 #
edge $-1 $211 -23.45194358669497 $214 23.45194358669497 $207 $296 forward 7 unknown #
coedge $-1 $202 $129 $134 $216 forward $195 $-1 #
coedge $-1 $129 $202 $197 $286 reversed $195 $-1 #
vertex $-1 $130 $297 #
straight-curve $-1 0 23.45194358669497 5.7798552088599475 -1 0 0 I I #
coedge $-1 $198 $131 $295 $298 forward $75 $-1 #
vertex $-1 $208 $299 #
straight-curve $-1 0 -23.45194358669497 5.7798552088599475 1 0 0 I I #
edge $-1 $137 -5.7798552088599475 $204 5.7798552088599475 $134 $300 forward 7 unknown #
point $-1 57.307657094027533 -23.45194358669497 5.7798552088599475 #
point $-1 57.307657094027533 23.45194358669497 5.7798552088599475 #
face $-1 $-1 $233 $19 $-1 $301 reversed single #
loop $-1 $-1 $302 $139 #
plane-surface $-1 0 -27.536391064262158 -4.0472392297032709 0 1 0 0 0 1 forward_v I I I I #
coedge $-1 $303 $142 $151 $237 reversed $83 $-1 #
coedge $-1 $142 $303 $143 $225 reversed $83 $-1 #
coedge $-1 $144 $143 $304 $305 forward $53 $-1 #
edge $-1 $229 23.45194358669497 $306 27.536391064262158 $223 $307 forward 7 unknown #
coedge $-1 $308 $148 $144 $227 reversed $233 $-1 #
edge $-1 $309 -27.536391064262158 $228 -23.45194358669497 $226 $310 forward 7 unknown #
vertex $-1 $149 $311 #
vertex $-1 $225 $312 #
straight-curve $-1 0 -23.45194358669497 -5.7798552088599475 1 0 0 I I #
straight-curve $-1 57.307657094027533 -23.45194358669497 0 0 0 1 I I #
coedge $-1 $148 $308 $150 $236 reversed $233 $-1 #
loop $-1 $-1 $148 $219 #
straight-curve $-1 -57.307657094027533 -23.45194358669497 0 0 0 -1 I I #
coedge $-1 $151 $150 $313 $314 forward $140 $-1 #
edge $-1 $152 -2.0422237387835942 $315 2.0422237387835942 $232 $316 forward 7 unknown #
edge $-1 $317 -2.0422237387835942 $153 2.0422237387835942 $222 $318 forward 7 unknown #
point $-1 -57.307657094027533 -23.45194358669497 -2.3146232505465938 #
point $-1 57.307657094027533 -23.45194358669497 -2.3146232505465938 #
plane-surface $-1 0 0 5.7798552088599475 0 0 1 1 0 0 forward_v I I I I #
coedge $-1 $251 $250 $243 $319 forward $156 $-1 #
coedge $-1 $243 $158 $160 $247 reversed $91 $-1 #
coedge $-1 $158 $242 $241 $319 reversed $91 $-1 #
coedge $-1 $166 $161 $158 $245 forward $167 $-1 #
edge $-1 $248 26.716399287321948 $320 32.895409159900737 $244 $321 forward 7 unknown #
coedge $-1 $160 $159 $251 $322 reversed $57 $-1 #
edge $-1 $323 -114.61531418805507 $248 -106.30063618587971 $242 $324 forward 7 unknown #
vertex $-1 $162 $325 #
straight-curve $-1 51.128647221448752 6.8459680944059489 5.7798552088599493 0 -1 0 I I #
coedge $-1 $241 $163 $166 $255 reversed $156 $-1 #
coedge $-1 $163 $241 $246 $322 forward $156 $-1 #
vertex $-1 $164 $326 #
straight-curve $-1 57.307657094027533 17.886775896021074 81.042321020260346 0 0 1 I I #
straight-curve $-1 -27.868119734783335 17.886775896021074 76.908865211709823 0.74314481823134659 0 -0.66913061440640931 I I #
edge $-1 $320 9.4970964816027212 $168 17.886775896021074 $250 $327 forward 7 unknown #
point $-1 57.307657094027533 17.886775896021074 5.7798552088599475 #
point $-1 51.128647221448745 17.886775896021074 5.7798552088599422 #
edge $-1 $328 1 $328 0 $171 $-1 forward 7 unknown #
vertex $-1 $172 $329 #
ellipse-curve $-1 52.594550126438037 13.691936188811898 1.1948597129712617 0.66913061440640931 0 0.74314481823134659 0.74314481823134659 0 -0.66913061440640931 1 I I #
point $-1 54.961296975969482 13.691936188811898 2.3289217943600016 #
loop $-1 $-1 $183 $175 #
plane-surface $-1 -57.307657094027533 0 0 1 0 0 0 0 -1 forward_v I I I I #
coedge $-1 $265 $178 $180 $269 reversed $106 $-1 #
coedge $-1 $178 $264 $330 $331 reversed $106 $-1 #
coedge $-1 $186 $181 $178 $267 forward $176 $-1 #
edge $-1 $270 -15.871489127083485 $332 -9.692479254504704 $266 $333 forward 7 unknown #
coedge $-1 $180 $179 $273 $334 reversed $66 $-1 #
edge $-1 $335 1.9122463617454847e-014 $270 8.314678002175377 $264 $336 forward 7 unknown #
vertex $-1 $182 $337 #
straight-curve $-1 -51.128647221448752 6.8459680944059489 5.7798552088599457 0 1 0 I I #
coedge $-1 $330 $183 $186 $277 reversed $262 $-1 #
coedge $-1 $183 $330 $268 $334 forward $262 $-1 #
vertex $-1 $184 $338 #
straight-curve $-1 -57.307657094027533 9.4970964816027212 42.696013218741875 0 0 1 I I #
straight-curve $-1 -57.307657094027547 9.4970964816027212 0.21624960867288223 -0.74314481823134659 0 -0.66913061440640931 I I #
edge $-1 $332 -17.886775896021074 $187 -9.4970964816027212 $272 $339 forward 7 unknown #
point $-1 -57.307657094027533 9.4970964816027212 5.7798552088599475 #
point $-1 -51.128647221448752 9.4970964816027212 5.7798552088599484 #
edge $-1 $340 1 $340 0 $190 $-1 forward 7 unknown #
vertex $-1 $191 $341 #
ellipse-curve $-1 -52.59455012643803 13.691936188811898 1.1948597129712608 -0.66913061440640931 0 0.74314481823134659 0.74314481823134659 0 0.66913061440640931 1 I I #
point $-1 -53.475007339506782 13.691936188811898 3.6671830231728193 #
plane-surface $-1 57.307657094027533 0 0 -1 0 0 0 0 1 forward_v I I I I #
coedge $-1 $295 $197 $200 $288 reversed $121 $-1 #
edge $-1 $211 -5.7798552088599475 $291 5.7798552088599475 $210 $342 forward 7 unknown #
straight-curve $-1 57.307657094027533 -23.45194358669497 0 0 0 -1 I I #
edge $-1 $289 -23.45194358669497 $291 23.45194358669497 $285 $343 forward 7 unknown #
vertex $-1 $288 $344 #
straight-curve $-1 0 -23.45194358669497 -5.7798552088599475 -1 0 0 I I #
vertex $-1 $203 $345 #
straight-curve $-1 0 23.45194358669497 -5.7798552088599475 1 0 0 I I #
point $-1 57.307657094027533 23.45194358669497 -5.7798552088599475 #
point $-1 57.307657094027533 -23.45194358669497 -5.7798552088599475 #
coedge $-1 $207 $285 $213 $298 reversed $121 $-1 #
straight-curve $-1 -57.307657094027533 0 5.7798552088599475 0 -1 0 I I #
point $-1 -57.307657094027533 23.45194358669497 5.7798552088599475 #
edge $-1 $214 -5.7798552088599475 $289 5.7798552088599475 $295 $346 forward 7 unknown #
point $-1 -57.307657094027533 -23.45194358669497 5.7798552088599475 #
straight-curve $-1 57.307657094027533 23.45194358669497 0 0 0 -1 I I #
plane-surface $-1 -57.307657094027533 0 0 1 0 0 0 0 -1 forward_v I I I I #
coedge $-1 $304 $313 $308 $347 forward $220 $-1 #
coedge $-1 $223 $222 $348 $349 forward $83 $-1 #
coedge $-1 $348 $302 $224 $305 reversed $220 $-1 #
edge $-1 $306 -57.307657094027533 $309 57.307657094027533 $304 $350 forward 7 unknown #
vertex $-1 $349 $351 #
straight-curve $-1 57.307657094027533 0 -5.7798552088599475 0 -1 0 I I #
coedge $-1 $232 $226 $302 $347 reversed $233 $-1 #
vertex $-1 $227 $352 #
straight-curve $-1 -57.307657094027533 0 -5.7798552088599475 0 1 0 I I #
point $-1 -57.307657094027533 -23.45194358669497 -5.7798552088599475 #
point $-1 57.307657094027533 -23.45194358669497 -5.7798552088599475 #
coedge $-1 $302 $348 $235 $314 reversed $220 $-1 #
edge $-1 $315 -57.307657094027533 $317 57.307657094027533 $313 $353 forward 7 unknown #
vertex $-1 $236 $354 #
straight-curve $-1 -57.307657094027533 -25.494167325478564 -2.3146232505465938 0 -1 0 I I #
vertex $-1 $237 $355 #
straight-curve $-1 57.307657094027533 -25.494167325478564 -2.3146232505465938 0 1 0 I I #
edge $-1 $320 75.262465811400403 $323 80.826071411587463 $241 $356 forward 7 unknown #
vertex $-1 $255 $357 #
straight-curve $-1 24.412247934126796 9.4970964816027212 5.7798552088599422 1 0 0 I I #
edge $-1 $323 2.6511283871967724 $252 11.040807801615125 $251 $358 forward 7 unknown #
vertex $-1 $322 $359 #
straight-curve $-1 -27.868119734783335 9.4970964816027212 76.908865211709823 -0.74314481823134659 0 0.66913061440640931 I I #
point $-1 51.128647221448745 9.4970964816027212 5.7798552088599422 #
point $-1 57.307657094027533 17.886775896021074 0.21624960867288223 #
straight-curve $-1 57.307657094027533 0 5.7798552088599475 0 1 0 I I #
vertex $-1 $258 $360 #
point $-1 53.33769494466938 13.691936188811898 0.52572909856485239 #
coedge $-1 $273 $272 $265 $331 forward $262 $-1 #
edge $-1 $332 36.916158009881926 $335 42.479763610068979 $330 $361 forward 7 unknown #
vertex $-1 $277 $362 #
straight-curve $-1 -67.000136348532237 17.886775896021074 5.7798552088599493 -1 0 0 I I #
edge $-1 $335 -11.040807801615125 $274 -2.6511283871967724 $273 $363 forward 7 unknown #
vertex $-1 $334 $364 #
straight-curve $-1 -57.307657094027547 17.886775896021074 0.21624960867288223 0.74314481823134659 0 0.66913061440640931 I I #
point $-1 -51.128647221448752 17.886775896021074 5.7798552088599484 #
point $-1 -57.307657094027533 9.4970964816027212 0.21624960867289503 #
straight-curve $-1 -57.307657094027533 0 5.7798552088599475 0 -1 0 I I #
vertex $-1 $280 $365 #
point $-1 -51.851405308206679 13.691936188811898 1.8639903273776701 #
straight-curve $-1 -57.307657094027533 23.45194358669497 0 0 0 -1 I I #
straight-curve $-1 -57.307657094027533 0 -5.7798552088599475 0 1 0 I I #
point $-1 -57.307657094027533 -23.45194358669497 -5.7798552088599475 #
point $-1 -57.307657094027533 23.45194358669497 -5.7798552088599475 #
straight-curve $-1 -57.307657094027533 -23.45194358669497 0 0 0 -1 I I #
edge $-1 $315 -1.7326159791566771 $309 1.7326159791566766 $308 $366 forward 7 unknown #
coedge $-1 $313 $304 $303 $349 reversed $220 $-1 #
edge $-1 $317 -1.7326159791566771 $306 1.7326159791566766 $303 $367 forward 7 unknown #
straight-curve $-1 0 -27.536391064262158 -5.7798552088599475 -1 0 0 I I #
point $-1 57.307657094027533 -27.536391064262158 -5.7798552088599475 #
point $-1 -57.307657094027533 -27.536391064262158 -5.7798552088599475 #
straight-curve $-1 0 -27.536391064262158 -2.3146232505465938 1 0 0 I I #
point $-1 -57.307657094027533 -27.536391064262158 -2.3146232505465938 #
point $-1 57.307657094027533 -27.536391064262158 -2.3146232505465938 #
straight-curve $-1 57.307657094027533 9.4970964816027212 81.042321020260346 0 0 -1 I I #
point $-1 57.307657094027533 9.4970964816027212 5.7798552088599475 #
straight-curve $-1 57.307657094027526 6.8459680944059489 0.21624960867289644 0 1 0 I I #
point $-1 57.307657094027533 9.4970964816027212 0.21624960867288223 #
point $-1 51.925419512031624 13.691936188811898 0.45171489473991505 #
straight-curve $-1 -57.307657094027533 17.886775896021074 42.696013218741875 0 0 -1 I I #
point $-1 -57.307657094027533 17.886775896021074 5.7798552088599475 #
straight-curve $-1 -57.307657094027533 6.8459680944059489 0.21624960867289336 0 -1 0 I I #
point $-1 -57.307657094027533 17.886775896021074 0.21624960867289503 #
point $-1 -51.925419512031617 13.691936188811898 0.45171489473991416 #
straight-curve $-1 -57.307657094027533 -27.536391064262158 -4.0472392297032709 0 0 -1 I I #
straight-curve $-1 57.307657094027533 -27.536391064262158 -4.0472392297032709 0 0 -1 I I #
End-of-ACIS-data 