500 0 5 0           
7 Unknown 11 ACIS 5.0 NT 24 Fri Mar 26 16:55:47 1999 
-1 9.9999999999999995e-007 1e-010 
body $-1 $5 $-1 $6 #
body $-1 $7 $-1 $8 #
body $-1 $9 $-1 $10 #
body $-1 $11 $-1 $12 #
body $-1 $13 $-1 $14 #
lump $-1 $-1 $15 $0 #
transform $-1 1 0 0 0 1 0 0 0 1 69.206213568529307 37.908497092646513 12.515345643438238 1 rotate no_reflect no_shear #
lump $-1 $-1 $16 $1 #
transform $-1 1 0 0 0 1 0 0 0 1 69.206213568529307 37.908497092646513 12.515345643438238 1 rotate no_reflect no_shear #
lump $-1 $-1 $17 $2 #
transform $-1 1 0 0 0 1 0 0 0 1 69.206213568529307 37.908497092646513 12.515345643438238 1 rotate no_reflect no_shear #
lump $-1 $-1 $18 $3 #
transform $-1 1 0 0 0 1 0 0 0 1 69.206213568529307 37.908497092646513 12.515345643438238 1 rotate no_reflect no_shear #
lump $-1 $-1 $19 $4 #
transform $-1 1 0 0 0 1 0 0 0 1 69.206213568529307 37.908497092646513 12.515345643438238 1 rotate no_reflect no_shear #
shell $-1 $-1 $-1 $20 $-1 $5 #
shell $-1 $-1 $-1 $21 $-1 $7 #
shell $-1 $-1 $-1 $22 $-1 $9 #
shell $-1 $-1 $-1 $23 $-1 $11 #
shell $-1 $-1 $-1 $24 $-1 $13 #
face $-1 $25 $26 $15 $-1 $27 forward single #
face $-1 $28 $29 $16 $-1 $30 forward single #
face $-1 $31 $32 $17 $-1 $33 forward single #
face $-1 $34 $35 $18 $-1 $36 reversed single #
face $-1 $37 $38 $19 $-1 $39 forward single #
face $-1 $40 $41 $15 $-1 $42 reversed single #
loop $-1 $-1 $43 $20 #
plane-surface $-1 0 0 12.515345643438238 0 0 1 1 0 0 forward_v I I I I #
face $-1 $44 $45 $16 $-1 $46 reversed single #
loop $-1 $-1 $47 $21 #
plane-surface $-1 0 -37.908497092646513 0 0 1 0 0 0 1 forward_v I I I I #
face $-1 $48 $49 $17 $-1 $50 reversed single #
loop $-1 $-1 $51 $22 #
plane-surface $-1 0 37.908497092646513 0 0 -1 0 0 0 -1 forward_v I I I I #
face $-1 $52 $53 $18 $-1 $54 reversed single #
loop $-1 $-1 $55 $23 #
plane-surface $-1 -181.18422048782941 6.2745954945344735 83.361953563611721 0 1 0 -0.80901700255871778 0 0.5877852410284794 forward_v I I I I #
face $-1 $56 $57 $19 $-1 $58 forward single #
loop $-1 $59 $60 $24 #
cone-surface $-1 -64.671270874905431 10.700523759473064 6.7394013466212348 0.80901700255871778 0 -0.5877852410284794 0.5877852410284794 0 0.80901700255871778 1 I I 0 1 1 forward I I I I #
face $-1 $61 $62 $15 $-1 $63 reversed single #
loop $-1 $-1 $64 $25 #
plane-surface $-1 0 0 -12.515345643438238 0 0 1 1 0 0 forward_v I I I I #
coedge $-1 $65 $66 $67 $68 forward $26 $-1 #
face $-1 $69 $70 $16 $-1 $71 reversed single #
loop $-1 $-1 $72 $28 #
plane-surface $-1 0 0 -12.515345643438238 0 0 1 1 0 0 forward_v I I I I #
coedge $-1 $73 $74 $75 $76 forward $29 $-1 #
face $-1 $77 $78 $17 $-1 $79 forward single #
loop $-1 $-1 $80 $31 #
plane-surface $-1 -69.206213568529307 0 0 1 0 0 0 0 -1 forward_v I I I I #
coedge $-1 $81 $82 $83 $84 forward $32 $-1 #
face $-1 $85 $86 $18 $-1 $87 reversed single #
loop $-1 $-1 $88 $34 #
plane-surface $-1 -69.206213568529321 10.700523759473064 2.005171717518877 -0.80901700255871778 0 0.5877852410284794 0.5877852410284794 0 0.80901700255871778 forward_v I I I I #
coedge $-1 $89 $90 $91 $92 reversed $35 $-1 #
face $-1 $-1 $93 $19 $-1 $94 forward single #
loop $-1 $95 $96 $37 #
cone-surface $-1 -63.549863735169851 10.700523759473064 5.9246513922496717 0.80901700255871778 0 -0.5877852410284794 0.2938926205142397 0 0.40450850127935889 1 I I -0.70710678118654746 0.70710678118654746 0.5 forward I I I I #
loop $-1 $-1 $97 $24 #
coedge $-1 $60 $60 $98 $99 reversed $38 $-1 #
face $-1 $100 $101 $15 $-1 $102 reversed single #
loop $-1 $-1 $103 $40 #
plane-surface $-1 0 -37.908497092646513 0 0 1 0 0 0 1 forward_v I I I I #
coedge $-1 $104 $105 $106 $107 forward $41 $-1 #
coedge $-1 $108 $43 $109 $110 forward $26 $-1 #
coedge $-1 $43 $108 $111 $112 forward $26 $-1 #
coedge $-1 $113 $114 $43 $68 reversed $115 $-1 #
edge $-1 $116 -37.908497092646513 $117 37.908497092646513 $67 $118 forward 7 unknown #
face $-1 $119 $120 $16 $-1 $121 forward single #
loop $-1 $-1 $122 $44 #
plane-surface $-1 69.206213568529307 0 0 -1 0 0 0 0 1 forward_v I I I I #
coedge $-1 $123 $124 $125 $126 forward $45 $-1 #
coedge $-1 $125 $47 $122 $127 reversed $29 $-1 #
coedge $-1 $47 $125 $128 $129 reversed $29 $-1 #
coedge $-1 $130 $131 $47 $76 reversed $120 $-1 #
edge $-1 $132 -69.206213568529307 $133 69.206213568529307 $75 $134 forward 7 unknown #
face $-1 $135 $136 $17 $-1 $137 reversed single #
loop $-1 $-1 $138 $48 #
plane-surface $-1 0 45.732515056004743 -6.243808047804607 0 0 1 1 0 0 forward_v I I I I #
coedge $-1 $139 $140 $81 $141 forward $49 $-1 #
coedge $-1 $142 $51 $80 $141 reversed $32 $-1 #
coedge $-1 $51 $142 $143 $144 reversed $32 $-1 #
coedge $-1 $138 $145 $51 $84 reversed $78 $-1 #
edge $-1 $146 -69.206213568529307 $147 69.206213568529307 $83 $148 forward 7 unknown #
face $-1 $149 $150 $18 $-1 $151 reversed single #
loop $-1 $-1 $152 $52 #
plane-surface $-1 -181.18422048782941 15.126452024411655 83.361953563611721 0 -1 0 0.80901700255871778 0 -0.5877852410284794 forward_v I I I I #
coedge $-1 $153 $154 $155 $156 reversed $53 $-1 #
coedge $-1 $90 $55 $157 $158 reversed $35 $-1 #
coedge $-1 $55 $89 $153 $159 reversed $35 $-1 #
coedge $-1 $155 $160 $55 $92 forward $161 $-1 #
edge $-1 $162 21.385896675385396 $163 29.021984785720711 $91 $164 forward 7 unknown #
loop $-1 $-1 $98 $56 #
plane-surface $-1 -69.206213568529321 10.700523759473064 2.005171717518877 -0.80901700255871778 0 0.5877852410284794 0.5877852410284794 0 0.80901700255871778 forward_v I I I I #
loop $-1 $-1 $165 $37 #
coedge $-1 $96 $96 $97 $166 reversed $57 $-1 #
coedge $-1 $97 $97 $96 $166 forward $59 $-1 #
coedge $-1 $98 $98 $60 $99 forward $93 $-1 #
edge $-1 $167 0 $167 6.2831853071796004 $98 $168 forward 7 unknown #
face $-1 $169 $170 $15 $-1 $171 reversed single #
loop $-1 $-1 $172 $61 #
plane-surface $-1 -69.206213568529307 0 0 1 0 0 0 0 -1 forward_v I I I I #
coedge $-1 $173 $111 $174 $175 forward $62 $-1 #
coedge $-1 $176 $64 $173 $177 forward $41 $-1 #
coedge $-1 $64 $176 $178 $179 forward $41 $-1 #
coedge $-1 $114 $113 $64 $107 reversed $115 $-1 #
edge $-1 $180 -37.908497092646513 $181 37.908497092646513 $106 $182 forward 7 unknown #
coedge $-1 $66 $65 $183 $184 forward $26 $-1 #
coedge $-1 $185 $186 $65 $110 reversed $170 $-1 #
edge $-1 $117 -69.206213568529307 $187 69.206213568529307 $109 $188 forward 7 unknown #
coedge $-1 $103 $189 $66 $112 reversed $62 $-1 #
edge $-1 $190 -69.206213568529307 $116 69.206213568529307 $111 $191 forward 7 unknown #
coedge $-1 $106 $67 $189 $192 forward $115 $-1 #
coedge $-1 $67 $106 $185 $193 reversed $115 $-1 #
loop $-1 $-1 $113 $169 #
vertex $-1 $68 $194 #
vertex $-1 $68 $195 #
straight-curve $-1 69.206213568529307 0 12.515345643438238 0 1 0 I I #
face $-1 $196 $197 $16 $-1 $198 reversed single #
loop $-1 $-1 $131 $69 #
plane-surface $-1 0 -45.732515056004743 -6.243808047804607 0 0 1 1 0 0 forward_v I I I I #
coedge $-1 $199 $200 $73 $127 forward $70 $-1 #
coedge $-1 $201 $72 $200 $202 forward $45 $-1 #
coedge $-1 $72 $201 $203 $204 forward $45 $-1 #
coedge $-1 $74 $73 $72 $126 reversed $29 $-1 #
edge $-1 $205 -69.206213568529307 $206 69.206213568529307 $72 $207 forward 7 unknown #
edge $-1 $206 -12.515345643438238 $133 -6.243808047804607 $122 $208 forward 7 unknown #
coedge $-1 $203 $209 $74 $129 forward $210 $-1 #
edge $-1 $132 6.243808047804607 $205 12.515345643438238 $128 $211 forward 7 unknown #
coedge $-1 $212 $75 $209 $213 forward $120 $-1 #
coedge $-1 $75 $212 $199 $214 forward $120 $-1 #
vertex $-1 $129 $215 #
vertex $-1 $214 $216 #
straight-curve $-1 0 -37.908497092646513 -6.243808047804607 1 0 0 I I #
face $-1 $217 $218 $17 $-1 $219 reversed single #
loop $-1 $-1 $220 $77 #
plane-surface $-1 0 53.556533019362973 -9.3795768456214219 0 -1 0 0 0 -1 forward_v I I I I #
coedge $-1 $221 $83 $222 $223 forward $78 $-1 #
coedge $-1 $224 $80 $145 $225 reversed $49 $-1 #
coedge $-1 $80 $224 $226 $227 reversed $49 $-1 #
edge $-1 $228 -12.515345643438238 $147 -6.243808047804607 $80 $229 forward 7 unknown #
coedge $-1 $82 $81 $230 $231 reversed $32 $-1 #
coedge $-1 $232 $222 $82 $144 forward $233 $-1 #
edge $-1 $146 6.243808047804607 $234 12.515345643438238 $143 $235 forward 7 unknown #
coedge $-1 $83 $221 $139 $225 forward $78 $-1 #
vertex $-1 $144 $236 #
vertex $-1 $225 $237 #
straight-curve $-1 0 37.908497092646513 -6.243808047804607 -1 0 0 I I #
face $-1 $-1 $161 $18 $-1 $238 forward single #
loop $-1 $-1 $239 $85 #
plane-surface $-1 -69.206213568529307 0 0 1 0 0 0 0 -1 forward_v I I I I #
coedge $-1 $240 $241 $242 $243 reversed $86 $-1 #
coedge $-1 $244 $88 $90 $159 forward $53 $-1 #
coedge $-1 $88 $244 $240 $245 forward $53 $-1 #
coedge $-1 $242 $91 $88 $156 forward $161 $-1 #
edge $-1 $163 0.92433361479794129 $246 9.7761901446751232 $155 $247 forward 7 unknown #
coedge $-1 $248 $249 $89 $158 forward $150 $-1 #
edge $-1 $250 -39.675805064286962 $162 -29.165631138367623 $157 $251 forward 7 unknown #
edge $-1 $163 -12.991289296366229 $250 -2.4161062406544664e-014 $90 $252 forward 7 unknown #
coedge $-1 $91 $242 $248 $253 forward $161 $-1 #
loop $-1 $-1 $242 $149 #
vertex $-1 $158 $254 #
vertex $-1 $92 $255 #
straight-curve $-1 -90.592110243914703 6.2745954945344735 12.515345643438238 1 0 0 I I #
coedge $-1 $165 $165 $-1 $256 reversed $95 $-1 #
edge $-1 $257 0 $257 6.2831853071796004 $96 $258 forward 7 unknown #
vertex $-1 $99 $259 #
ellipse-curve $-1 -65.38816951336166 10.700523759473064 7.2602586804785609 -0.80901700255871778 0 0.5877852410284794 0.5877852410284794 0 0.80901700255871778 1 I I #
face $-1 $-1 $115 $15 $-1 $260 reversed single #
loop $-1 $-1 $185 $100 #
plane-surface $-1 0 37.908497092646513 0 0 -1 0 0 0 -1 forward_v I I I I #
coedge $-1 $261 $183 $186 $262 forward $101 $-1 #
coedge $-1 $189 $103 $104 $177 reversed $62 $-1 #
coedge $-1 $183 $261 $103 $175 reversed $101 $-1 #
edge $-1 $190 -12.515345643438238 $263 12.515345643438238 $174 $264 forward 7 unknown #
coedge $-1 $105 $104 $261 $265 forward $41 $-1 #
edge $-1 $181 -69.206213568529307 $263 69.206213568529307 $173 $266 forward 7 unknown #
coedge $-1 $186 $185 $105 $179 reversed $170 $-1 #
edge $-1 $267 -69.206213568529307 $180 69.206213568529307 $178 $268 forward 7 unknown #
vertex $-1 $107 $269 #
vertex $-1 $192 $270 #
straight-curve $-1 69.206213568529307 0 -12.515345643438238 0 -1 0 I I #
coedge $-1 $172 $174 $108 $184 reversed $101 $-1 #
edge $-1 $187 -37.908497092646513 $190 37.908497092646513 $183 $271 forward 7 unknown #
coedge $-1 $178 $109 $114 $193 forward $170 $-1 #
coedge $-1 $109 $178 $172 $262 reversed $170 $-1 #
vertex $-1 $110 $272 #
straight-curve $-1 0 37.908497092646513 12.515345643438238 -1 0 0 I I #
coedge $-1 $111 $173 $113 $192 reversed $62 $-1 #
vertex $-1 $184 $273 #
straight-curve $-1 0 -37.908497092646513 12.515345643438238 1 0 0 I I #
edge $-1 $116 -12.515345643438238 $181 12.515345643438238 $113 $274 forward 7 unknown #
edge $-1 $117 -12.515345643438238 $180 12.515345643438238 $114 $275 forward 7 unknown #
point $-1 69.206213568529307 -37.908497092646513 12.515345643438238 #
point $-1 69.206213568529307 37.908497092646513 12.515345643438238 #
face $-1 $-1 $210 $16 $-1 $276 reversed single #
loop $-1 $-1 $277 $119 #
plane-surface $-1 0 -53.556533019362973 -9.3795768456214219 0 1 0 0 0 1 forward_v I I I I #
coedge $-1 $278 $122 $131 $214 reversed $70 $-1 #
coedge $-1 $122 $278 $123 $202 reversed $70 $-1 #
coedge $-1 $124 $123 $279 $280 forward $45 $-1 #
edge $-1 $206 37.908497092646513 $281 53.556533019362973 $200 $282 forward 7 unknown #
coedge $-1 $283 $128 $124 $204 reversed $210 $-1 #
edge $-1 $284 -53.556533019362973 $205 -37.908497092646513 $203 $285 forward 7 unknown #
vertex $-1 $129 $286 #
vertex $-1 $202 $287 #
straight-curve $-1 0 -37.908497092646513 -12.515345643438238 1 0 0 I I #
straight-curve $-1 69.206213568529307 -37.908497092646513 0 0 0 1 I I #
coedge $-1 $128 $283 $130 $213 reversed $210 $-1 #
loop $-1 $-1 $128 $196 #
straight-curve $-1 -69.206213568529307 -37.908497092646513 0 0 0 -1 I I #
coedge $-1 $131 $130 $288 $289 forward $120 $-1 #
edge $-1 $132 -7.8240179633582301 $290 7.8240179633582301 $209 $291 forward 7 unknown #
edge $-1 $292 -7.8240179633582301 $133 7.8240179633582301 $199 $293 forward 7 unknown #
point $-1 -69.206213568529307 -37.908497092646513 -6.243808047804607 #
point $-1 69.206213568529307 -37.908497092646513 -6.243808047804607 #
face $-1 $-1 $233 $17 $-1 $294 reversed single #
loop $-1 $-1 $230 $135 #
plane-surface $-1 0 0 -12.515345643438238 0 0 1 1 0 0 forward_v I I I I #
coedge $-1 $295 $296 $297 $298 forward $136 $-1 #
coedge $-1 $145 $138 $296 $299 forward $78 $-1 #
coedge $-1 $143 $297 $138 $223 reversed $233 $-1 #
edge $-1 $146 -7.8240179633582301 $300 7.8240179633582301 $222 $301 forward 7 unknown #
coedge $-1 $140 $139 $302 $303 forward $49 $-1 #
edge $-1 $304 -7.8240179633582301 $147 7.8240179633582301 $139 $305 forward 7 unknown #
coedge $-1 $306 $230 $140 $227 forward $218 $-1 #
edge $-1 $228 -7.8240179633582301 $307 7.8240179633582301 $140 $308 forward 7 unknown #
vertex $-1 $227 $309 #
straight-curve $-1 -69.206213568529307 37.908497092646513 0 0 0 1 I I #
coedge $-1 $226 $310 $142 $231 forward $218 $-1 #
edge $-1 $234 -69.206213568529307 $228 69.206213568529307 $230 $311 forward 7 unknown #
coedge $-1 $297 $143 $310 $312 reversed $233 $-1 #
loop $-1 $-1 $143 $217 #
vertex $-1 $144 $313 #
straight-curve $-1 69.206213568529307 37.908497092646513 0 0 0 -1 I I #
point $-1 69.206213568529307 37.908497092646513 -6.243808047804607 #
point $-1 -69.206213568529307 37.908497092646513 -6.243808047804607 #
plane-surface $-1 0 0 12.515345643438238 0 0 1 1 0 0 forward_v I I I I #
coedge $-1 $249 $248 $241 $314 forward $150 $-1 #
coedge $-1 $241 $152 $154 $245 reversed $86 $-1 #
coedge $-1 $152 $240 $239 $314 reversed $86 $-1 #
coedge $-1 $160 $155 $152 $243 forward $161 $-1 #
edge $-1 $246 -29.021984785720711 $315 -21.385896675385396 $242 $316 forward 7 unknown #
coedge $-1 $154 $153 $249 $317 reversed $53 $-1 #
edge $-1 $318 2.4161062406544664e-014 $246 12.991289296366229 $240 $319 forward 7 unknown #
vertex $-1 $156 $320 #
straight-curve $-1 -61.570125458193992 5.3502618797365322 12.515345643438238 0 1 0 I I #
coedge $-1 $239 $157 $160 $253 reversed $150 $-1 #
coedge $-1 $157 $239 $244 $317 forward $150 $-1 #
vertex $-1 $158 $321 #
straight-curve $-1 -69.206213568529307 6.2745954945344735 41.68097678180586 0 0 1 I I #
straight-curve $-1 -69.206213568529321 6.2745954945344735 2.005171717518877 -0.5877852410284794 0 -0.80901700255871778 I I #
edge $-1 $315 -15.126452024411655 $162 -6.2745954945344735 $248 $322 forward 7 unknown #
point $-1 -69.206213568529307 6.2745954945344735 12.515345643438238 #
point $-1 -61.570125458193992 6.2745954945344735 12.515345643438238 #
edge $-1 $323 1 $323 0 $165 $-1 forward 7 unknown #
vertex $-1 $166 $324 #
ellipse-curve $-1 -63.95437223644921 10.700523759473064 6.2185440127639113 -0.80901700255871778 0 0.5877852410284794 0.5877852410284794 0 0.80901700255871778 1 I I #
point $-1 -64.800384272333162 10.700523759473064 8.0692756830372758 #
plane-surface $-1 69.206213568529307 0 0 -1 0 0 0 0 1 forward_v I I I I #
coedge $-1 $174 $172 $176 $265 reversed $101 $-1 #
edge $-1 $187 -12.515345643438238 $267 12.515345643438238 $186 $325 forward 7 unknown #
vertex $-1 $265 $326 #
straight-curve $-1 -69.206213568529307 -37.908497092646513 0 0 0 -1 I I #
edge $-1 $263 -37.908497092646513 $267 37.908497092646513 $261 $327 forward 7 unknown #
straight-curve $-1 0 -37.908497092646513 -12.515345643438238 -1 0 0 I I #
vertex $-1 $179 $328 #
straight-curve $-1 0 37.908497092646513 -12.515345643438238 1 0 0 I I #
point $-1 69.206213568529307 37.908497092646513 -12.515345643438238 #
point $-1 69.206213568529307 -37.908497092646513 -12.515345643438238 #
straight-curve $-1 -69.206213568529307 0 12.515345643438238 0 -1 0 I I #
point $-1 -69.206213568529307 37.908497092646513 12.515345643438238 #
point $-1 -69.206213568529307 -37.908497092646513 12.515345643438238 #
straight-curve $-1 69.206213568529307 -37.908497092646513 0 0 0 -1 I I #
straight-curve $-1 69.206213568529307 37.908497092646513 0 0 0 -1 I I #
plane-surface $-1 -69.206213568529307 0 0 1 0 0 0 0 -1 forward_v I I I I #
coedge $-1 $279 $288 $283 $329 forward $197 $-1 #
coedge $-1 $200 $199 $330 $331 forward $70 $-1 #
coedge $-1 $330 $277 $201 $280 reversed $197 $-1 #
edge $-1 $281 -69.206213568529307 $284 69.206213568529307 $279 $332 forward 7 unknown #
vertex $-1 $331 $333 #
straight-curve $-1 69.206213568529307 0 -12.515345643438238 0 -1 0 I I #
coedge $-1 $209 $203 $277 $329 reversed $210 $-1 #
vertex $-1 $204 $334 #
straight-curve $-1 -69.206213568529307 0 -12.515345643438238 0 1 0 I I #
point $-1 -69.206213568529307 -37.908497092646513 -12.515345643438238 #
point $-1 69.206213568529307 -37.908497092646513 -12.515345643438238 #
coedge $-1 $277 $330 $212 $289 reversed $197 $-1 #
edge $-1 $290 -69.206213568529307 $292 69.206213568529307 $288 $335 forward 7 unknown #
vertex $-1 $213 $336 #
straight-curve $-1 -69.206213568529307 -45.732515056004743 -6.243808047804607 0 -1 0 I I #
vertex $-1 $214 $337 #
straight-curve $-1 69.206213568529307 -45.732515056004743 -6.243808047804607 0 1 0 I I #
plane-surface $-1 69.206213568529307 0 0 -1 0 0 0 0 1 forward_v I I I I #
coedge $-1 $302 $220 $306 $338 reversed $136 $-1 #
coedge $-1 $220 $302 $221 $299 reversed $136 $-1 #
coedge $-1 $222 $232 $220 $298 reversed $233 $-1 #
edge $-1 $300 -3.1357687978168149 $339 3.1357687978168158 $297 $340 forward 7 unknown #
edge $-1 $300 -69.206213568529307 $304 69.206213568529307 $296 $341 forward 7 unknown #
vertex $-1 $223 $342 #
straight-curve $-1 69.206213568529307 45.732515056004743 -6.243808047804607 0 1 0 I I #
coedge $-1 $296 $295 $224 $303 reversed $136 $-1 #
edge $-1 $304 -3.1357687978168149 $307 3.1357687978168158 $302 $343 forward 7 unknown #
vertex $-1 $299 $344 #
straight-curve $-1 -69.206213568529307 45.732515056004743 -6.243808047804607 0 -1 0 I I #
coedge $-1 $310 $226 $295 $338 forward $218 $-1 #
vertex $-1 $338 $345 #
straight-curve $-1 -69.206213568529307 45.732515056004743 -12.515345643438238 0 1 0 I I #
point $-1 -69.206213568529307 37.908497092646513 -12.515345643438238 #
coedge $-1 $230 $306 $232 $312 forward $218 $-1 #
straight-curve $-1 0 37.908497092646513 -12.515345643438238 -1 0 0 I I #
edge $-1 $339 -53.556533019362973 $234 -37.908497092646513 $232 $346 forward 7 unknown #
point $-1 69.206213568529307 37.908497092646513 -12.515345643438238 #
edge $-1 $315 29.165631138367623 $318 39.675805064286962 $239 $347 forward 7 unknown #
vertex $-1 $253 $348 #
straight-curve $-1 -90.592110243914703 15.126452024411655 12.515345643438238 -1 0 0 I I #
edge $-1 $318 -9.7761901446751232 $250 -0.92433361479794129 $249 $349 forward 7 unknown #
vertex $-1 $317 $350 #
straight-curve $-1 -69.206213568529321 15.126452024411655 2.005171717518877 0.5877852410284794 0 0.80901700255871778 I I #
point $-1 -61.570125458193992 15.126452024411655 12.515345643438238 #
point $-1 -69.206213568529307 6.2745954945344735 2.0051717175188966 #
straight-curve $-1 -69.206213568529307 0 12.515345643438238 0 -1 0 I I #
vertex $-1 $256 $351 #
point $-1 -63.366586995420732 10.700523759473064 7.0275610153226289 #
straight-curve $-1 -69.206213568529307 37.908497092646513 0 0 0 -1 I I #
point $-1 -69.206213568529307 -37.908497092646513 -12.515345643438238 #
straight-curve $-1 -69.206213568529307 0 -12.515345643438238 0 1 0 I I #
point $-1 -69.206213568529307 37.908497092646513 -12.515345643438238 #
edge $-1 $290 -3.1357687978168149 $284 3.1357687978168158 $283 $352 forward 7 unknown #
coedge $-1 $288 $279 $278 $331 reversed $197 $-1 #
edge $-1 $292 -3.1357687978168149 $281 3.1357687978168158 $278 $353 forward 7 unknown #
straight-curve $-1 0 -53.556533019362973 -12.515345643438238 -1 0 0 I I #
point $-1 69.206213568529307 -53.556533019362973 -12.515345643438238 #
point $-1 -69.206213568529307 -53.556533019362973 -12.515345643438238 #
straight-curve $-1 0 -53.556533019362973 -6.243808047804607 1 0 0 I I #
point $-1 -69.206213568529307 -53.556533019362973 -6.243808047804607 #
point $-1 69.206213568529307 -53.556533019362973 -6.243808047804607 #
edge $-1 $307 -69.206213568529307 $339 69.206213568529307 $295 $354 forward 7 unknown #
vertex $-1 $312 $355 #
straight-curve $-1 69.206213568529307 53.556533019362973 -9.3795768456214219 0 0 -1 I I #
straight-curve $-1 0 53.556533019362973 -6.243808047804607 -1 0 0 I I #
point $-1 69.206213568529307 53.556533019362973 -6.243808047804607 #
straight-curve $-1 -69.206213568529307 53.556533019362973 -9.3795768456214219 0 0 -1 I I #
point $-1 -69.206213568529307 53.556533019362973 -6.243808047804607 #
point $-1 -69.206213568529307 53.556533019362973 -12.515345643438238 #
straight-curve $-1 69.206213568529307 0 -12.515345643438238 0 -1 0 I I #
straight-curve $-1 -69.206213568529307 15.126452024411655 41.68097678180586 0 0 -1 I I #
point $-1 -69.206213568529307 15.126452024411655 12.515345643438238 #
straight-curve $-1 -69.206213568529307 5.3502618797365322 2.005171717518893 0 -1 0 I I #
point $-1 -69.206213568529307 15.126452024411655 2.0051717175188966 #
point $-1 -63.145355233890491 10.700523759473064 5.6307587717354322 #
straight-curve $-1 -69.206213568529307 -53.556533019362973 -9.3795768456214219 0 0 -1 I I #
straight-curve $-1 69.206213568529307 -53.556533019362973 -9.3795768456214219 0 0 -1 I I #
straight-curve $-1 0 53.556533019362973 -12.515345643438238 1 0 0 I I #
point $-1 69.206213568529307 53.556533019362973 -12.515345643438238 #
End-of-ACIS-data 