600 0 6 0           
107 GICL ACIS Healer - Source: /gicl/data5/repository/Drexel/CICIRELLO-THESISDATA/Part10013.smdg.feat.sat - 6 0 18 ACIS 6.0.3 Solaris 24 Fri Apr 12 10:27:53 2002 
1 9.999999999999999547e-07 1.000000000000000036e-10 
body $-1 $6 $-1 $-1 #
body $-1 $7 $-1 $-1 #
body $-1 $8 $-1 $-1 #
body $-1 $9 $-1 $-1 #
body $-1 $10 $-1 $-1 #
body $-1 $11 $-1 $-1 #
lump $-1 $-1 $12 $0 #
lump $-1 $-1 $13 $1 #
lump $-1 $-1 $14 $2 #
lump $-1 $-1 $15 $3 #
lump $-1 $-1 $16 $4 #
lump $-1 $-1 $17 $5 #
shell $-1 $-1 $-1 $18 $-1 $6 #
shell $-1 $-1 $-1 $19 $-1 $7 #
shell $-1 $-1 $-1 $20 $-1 $8 #
shell $-1 $-1 $-1 $21 $-1 $9 #
shell $-1 $-1 $-1 $22 $-1 $10 #
shell $-1 $-1 $-1 $23 $-1 $11 #
face $-1 $24 $25 $12 $-1 $26 forward single #
face $-1 $27 $28 $13 $-1 $29 forward single #
face $-1 $30 $31 $14 $-1 $32 forward single #
face $-1 $33 $34 $15 $-1 $35 forward single #
face $-1 $36 $37 $16 $-1 $38 forward single #
face $-1 $39 $40 $17 $-1 $41 forward single #
face $-1 $42 $43 $12 $-1 $44 reversed single #
loop $-1 $-1 $45 $18 #
plane-surface $-1 46.67012543107394862 25.01844603555364444 14.16111083167252005 0 0 1 1 0 0 forward_v I I I I #
face $-1 $46 $47 $13 $-1 $48 reversed single #
loop $-1 $-1 $49 $19 #
plane-surface $-1 46.67012543107394862 3.48480143630621475 12.16950296300009882 0 0 1 1 0 0 forward_v I I I I #
face $-1 $50 $51 $14 $-1 $52 reversed single #
loop $-1 $-1 $53 $20 #
plane-surface $-1 40.51093918092441015 152.4412916784786773 172.353650717386131 0 0.7313537098837770145 0.6819983511997929071 1 0 0 forward_v I I I I #
face $-1 $54 $55 $15 $-1 $56 forward single #
loop $-1 $57 $58 $21 #
cone-surface $-1 33.90750170629838323 46.68869629908488861 10.66601461956253516 0 -0.7313537098837770145 -0.6819983511997929071 0.5 0 0 1 I I 0 1 0.5 forward I I I I #
face $-1 $59 $60 $16 $-1 $61 forward single #
loop $-1 $62 $63 $22 #
cone-surface $-1 40.51093918092440305 46.68869629908488861 10.66601461956253516 0 -0.7313537098837770145 -0.6819983511997929071 0.5 0 0 1 I I 0 1 0.5 forward I I I I #
face $-1 $64 $65 $17 $-1 $66 forward single #
loop $-1 $67 $68 $23 #
cone-surface $-1 47.11437665555042287 46.68869629908488861 10.66601461956253516 0 -0.7313537098837770145 -0.6819983511997929071 0.5 0 0 1 I I 0 1 0.5 forward I I I I #
face $-1 $69 $70 $12 $-1 $71 reversed single #
loop $-1 $-1 $72 $24 #
plane-surface $-1 46.67012543107394862 25.01844603555364444 0 0 0 1 1 0 0 forward_v I I I I #
coedge $-1 $73 $74 $75 $76 forward $25 $-1 #
face $-1 $77 $78 $13 $-1 $79 reversed single #
loop $-1 $-1 $80 $27 #
plane-surface $-1 46.67012543107394862 3.48480143630621475 9.169502963000098816 0 0 1 1 0 0 forward_v I I I I #
coedge $-1 $81 $82 $83 $84 forward $28 $-1 #
face $-1 $85 $86 $14 $-1 $87 reversed single #
loop $-1 $-1 $88 $30 #
plane-surface $-1 40.51093918092441015 15.91181417945011844 45.0378563402662877 0 0.7313537098837770145 0.6819983511997929071 1 0 0 forward_v I I I I #
coedge $-1 $89 $90 $91 $92 forward $31 $-1 #
face $-1 $-1 $93 $15 $-1 $94 forward single #
loop $-1 $-1 $95 $33 #
plane-surface $-1 33.90750170629838323 47.37086827430486125 11.30215026234017195 0 0.7313537098837770145 0.6819983511997929071 -1 -0 0 forward_v I I I I #
loop $-1 $-1 $96 $21 #
coedge $-1 $58 $58 $95 $97 reversed $34 $-1 #
face $-1 $-1 $98 $16 $-1 $99 forward single #
loop $-1 $-1 $100 $36 #
plane-surface $-1 40.51093918092440305 47.37086827430486125 11.30215026234017195 0 0.7313537098837770145 0.6819983511997929071 -1 -0 0 forward_v I I I I #
loop $-1 $-1 $101 $22 #
coedge $-1 $63 $63 $100 $102 reversed $37 $-1 #
face $-1 $-1 $103 $17 $-1 $104 forward single #
loop $-1 $-1 $105 $39 #
plane-surface $-1 47.11437665555042287 47.37086827430486125 11.30215026234017195 0 0.7313537098837770145 0.6819983511997929071 -1 -0 0 forward_v I I I I #
loop $-1 $-1 $106 $23 #
coedge $-1 $68 $68 $105 $107 reversed $40 $-1 #
face $-1 $108 $109 $12 $-1 $110 reversed single #
loop $-1 $-1 $111 $42 #
plane-surface $-1 46.67012543107394862 0 7.080555415836260025 0 1 0 0 0 1 forward_v I I I I #
coedge $-1 $112 $113 $114 $115 forward $43 $-1 #
coedge $-1 $116 $45 $117 $118 forward $25 $-1 #
coedge $-1 $45 $116 $119 $120 forward $25 $-1 #
coedge $-1 $121 $122 $45 $76 reversed $123 $-1 #
edge $-1 $124 -25.01844603555364444 $125 25.01844603555364444 $75 $126 forward 7 unknown #
face $-1 $127 $128 $13 $-1 $129 reversed single #
loop $-1 $-1 $130 $46 #
plane-surface $-1 46.67012543107394862 0 10.66950296300009882 0 1 0 0 0 1 forward_v I I I I #
coedge $-1 $131 $132 $133 $134 forward $47 $-1 #
coedge $-1 $135 $49 $136 $137 forward $28 $-1 #
coedge $-1 $49 $135 $138 $139 forward $28 $-1 #
coedge $-1 $140 $141 $49 $84 reversed $142 $-1 #
edge $-1 $143 -3.48480143630621475 $144 3.48480143630621475 $83 $145 forward 7 unknown #
face $-1 $146 $147 $14 $-1 $148 reversed single #
loop $-1 $-1 $149 $50 #
plane-surface $-1 40.51093918092441015 -43.13924144815543116 245.2252310278547611 0 0.6819983511997929071 -0.7313537098837770145 0 0.7313537098837770145 0.6819983511997929071 forward_v I I I I #
coedge $-1 $150 $151 $152 $153 forward $51 $-1 #
coedge $-1 $154 $53 $155 $156 forward $31 $-1 #
coedge $-1 $53 $154 $157 $158 forward $31 $-1 #
coedge $-1 $159 $160 $53 $92 reversed $161 $-1 #
edge $-1 $162 -186.6805017242957661 $163 186.6805017242958229 $91 $164 forward 7 unknown #
loop $-1 $165 $166 $54 #
cone-surface $-1 33.90750170629838323 45.82368589639397527 9.859379388984947923 0 -0.7313537098837770145 -0.6819983511997929071 0.25 0 0 1 I I -0.7071067811865474617 0.7071067811865474617 0.25 forward I I I I #
coedge $-1 $95 $95 $58 $97 forward $55 $-1 #
coedge $-1 $96 $96 $166 $167 forward $57 $-1 #
edge $-1 $168 0 $168 6.283185307179586232 $95 $169 forward 7 unknown #
loop $-1 $170 $171 $59 #
cone-surface $-1 40.51093918092440305 45.82368589639397527 9.859379388984947923 0 -0.7313537098837770145 -0.6819983511997929071 0.25 0 0 1 I I -0.7071067811865474617 0.7071067811865474617 0.25 forward I I I I #
coedge $-1 $100 $100 $63 $102 forward $60 $-1 #
coedge $-1 $101 $101 $171 $172 forward $62 $-1 #
edge $-1 $173 0 $173 6.283185307179586232 $100 $174 forward 7 unknown #
loop $-1 $175 $176 $64 #
cone-surface $-1 47.11437665555042287 45.82368589639397527 9.859379388984947923 0 -0.7313537098837770145 -0.6819983511997929071 0.25 0 0 1 I I -0.7071067811865474617 0.7071067811865474617 0.25 forward I I I I #
coedge $-1 $105 $105 $68 $107 forward $65 $-1 #
coedge $-1 $106 $106 $176 $177 forward $67 $-1 #
edge $-1 $178 0 $178 6.283185307179586232 $105 $179 forward 7 unknown #
face $-1 $180 $181 $12 $-1 $182 reversed single #
loop $-1 $-1 $183 $69 #
plane-surface $-1 0 25.01844603555364444 7.080555415836260025 1 0 0 0 0 -1 forward_v I I I I #
coedge $-1 $184 $119 $185 $186 forward $70 $-1 #
coedge $-1 $187 $72 $184 $188 forward $43 $-1 #
coedge $-1 $72 $187 $189 $190 forward $43 $-1 #
coedge $-1 $122 $121 $72 $115 reversed $123 $-1 #
edge $-1 $191 -25.01844603555364444 $192 25.01844603555364444 $114 $193 forward 7 unknown #
coedge $-1 $74 $73 $194 $195 forward $25 $-1 #
coedge $-1 $196 $197 $73 $118 reversed $181 $-1 #
edge $-1 $125 -46.67012543107394862 $198 46.67012543107394862 $117 $199 forward 7 unknown #
coedge $-1 $111 $200 $74 $120 reversed $70 $-1 #
edge $-1 $201 -46.67012543107394862 $124 46.67012543107394862 $119 $202 forward 7 unknown #
coedge $-1 $114 $75 $200 $203 forward $123 $-1 #
coedge $-1 $75 $114 $196 $204 reversed $123 $-1 #
loop $-1 $-1 $121 $180 #
vertex $-1 $76 $205 #
vertex $-1 $76 $206 #
straight-curve $-1 93.34025086214789724 25.01844603555364444 14.16111083167252005 0 1 0 I I #
face $-1 $207 $208 $13 $-1 $209 reversed single #
loop $-1 $-1 $210 $77 #
plane-surface $-1 0 3.48480143630621475 10.66950296300009882 1 0 0 0 0 -1 forward_v I I I I #
coedge $-1 $211 $138 $212 $213 forward $78 $-1 #
coedge $-1 $214 $80 $211 $215 forward $47 $-1 #
coedge $-1 $80 $214 $216 $217 forward $47 $-1 #
coedge $-1 $141 $140 $80 $134 reversed $142 $-1 #
edge $-1 $218 -3.48480143630621475 $219 3.48480143630621475 $133 $220 forward 7 unknown #
coedge $-1 $82 $81 $221 $222 forward $28 $-1 #
coedge $-1 $223 $224 $81 $137 reversed $208 $-1 #
edge $-1 $144 -46.67012543107394862 $225 46.67012543107394862 $136 $226 forward 7 unknown #
coedge $-1 $130 $227 $82 $139 reversed $78 $-1 #
edge $-1 $228 -46.67012543107394862 $143 46.67012543107394862 $138 $229 forward 7 unknown #
coedge $-1 $133 $83 $227 $230 forward $142 $-1 #
coedge $-1 $83 $133 $223 $231 reversed $142 $-1 #
loop $-1 $-1 $140 $207 #
vertex $-1 $84 $232 #
vertex $-1 $84 $233 #
straight-curve $-1 93.34025086214789724 3.48480143630621475 12.16950296300009882 0 1 0 I I #
face $-1 $234 $235 $14 $-1 $236 reversed single #
loop $-1 $-1 $237 $85 #
plane-surface $-1 29.5052100565477069 84.17655292896439789 108.6957535288262022 1 0 0 0 -0.7313537098837770145 -0.6819983511997929071 forward_v I I I I #
coedge $-1 $238 $157 $239 $240 forward $86 $-1 #
coedge $-1 $241 $88 $238 $242 forward $51 $-1 #
coedge $-1 $88 $241 $243 $244 forward $51 $-1 #
coedge $-1 $160 $159 $88 $153 reversed $161 $-1 #
edge $-1 $245 -186.6805017242958229 $246 186.6805017242958229 $152 $247 forward 7 unknown #
coedge $-1 $90 $89 $248 $249 forward $31 $-1 #
coedge $-1 $250 $251 $89 $156 reversed $235 $-1 #
edge $-1 $163 -11.0057291243766997 $252 11.00572912437670325 $155 $253 forward 7 unknown #
coedge $-1 $149 $254 $90 $158 reversed $86 $-1 #
edge $-1 $255 -11.00572912437670325 $162 11.0057291243766997 $157 $256 forward 7 unknown #
coedge $-1 $152 $91 $254 $257 forward $161 $-1 #
coedge $-1 $91 $152 $250 $258 reversed $161 $-1 #
loop $-1 $-1 $159 $234 #
vertex $-1 $92 $259 #
vertex $-1 $92 $260 #
straight-curve $-1 51.51666830530110985 152.4412916784786773 172.353650717386131 0 0.6819983511997929071 -0.7313537098837770145 I I #
loop $-1 $-1 $261 $54 #
coedge $-1 $166 $166 $96 $167 reversed $93 $-1 #
edge $-1 $262 0 $262 6.283185307179586232 $166 $263 forward 7 unknown #
vertex $-1 $97 $264 #
ellipse-curve $-1 33.90750170629838323 47.37086827430486125 11.30215026234017195 0 0.7313537098837770145 0.6819983511997929071 0.5 0 0 1 I I #
loop $-1 $-1 $265 $59 #
coedge $-1 $171 $171 $101 $172 reversed $98 $-1 #
edge $-1 $266 0 $266 6.283185307179586232 $171 $267 forward 7 unknown #
vertex $-1 $102 $268 #
ellipse-curve $-1 40.51093918092440305 47.37086827430486125 11.30215026234017195 0 0.7313537098837770145 0.6819983511997929071 0.5 0 0 1 I I #
loop $-1 $-1 $269 $64 #
coedge $-1 $176 $176 $106 $177 reversed $103 $-1 #
edge $-1 $270 0 $270 6.283185307179586232 $176 $271 forward 7 unknown #
vertex $-1 $107 $272 #
ellipse-curve $-1 47.11437665555042287 47.37086827430486125 11.30215026234017195 0 0.7313537098837770145 0.6819983511997929071 0.5 0 0 1 I I #
face $-1 $-1 $123 $12 $-1 $273 reversed single #
loop $-1 $-1 $196 $108 #
plane-surface $-1 46.67012543107394862 50.03689207110728887 7.080555415836260025 0 -1 0 0 0 -1 forward_v I I I I #
coedge $-1 $274 $194 $197 $275 forward $109 $-1 #
coedge $-1 $200 $111 $112 $188 reversed $70 $-1 #
coedge $-1 $194 $274 $111 $186 reversed $109 $-1 #
edge $-1 $201 -7.080555415836260025 $276 7.080555415836260025 $185 $277 forward 7 unknown #
coedge $-1 $113 $112 $274 $278 forward $43 $-1 #
edge $-1 $192 -46.67012543107394862 $276 46.67012543107394862 $184 $279 forward 7 unknown #
coedge $-1 $197 $196 $113 $190 reversed $181 $-1 #
edge $-1 $280 -46.67012543107394862 $191 46.67012543107394862 $189 $281 forward 7 unknown #
vertex $-1 $115 $282 #
vertex $-1 $203 $283 #
straight-curve $-1 93.34025086214789724 25.01844603555364444 0 0 -1 0 I I #
coedge $-1 $183 $185 $116 $195 reversed $109 $-1 #
edge $-1 $198 -25.01844603555364444 $201 25.01844603555364444 $194 $284 forward 7 unknown #
coedge $-1 $189 $117 $122 $204 forward $181 $-1 #
coedge $-1 $117 $189 $183 $275 reversed $181 $-1 #
vertex $-1 $118 $285 #
straight-curve $-1 46.67012543107394862 50.03689207110728887 14.16111083167252005 -1 0 0 I I #
coedge $-1 $119 $184 $121 $203 reversed $70 $-1 #
vertex $-1 $195 $286 #
straight-curve $-1 46.67012543107394862 0 14.16111083167252005 1 0 0 I I #
edge $-1 $124 -7.080555415836260025 $192 7.080555415836260025 $121 $287 forward 7 unknown #
edge $-1 $125 -7.080555415836260025 $191 7.080555415836260025 $122 $288 forward 7 unknown #
point $-1 93.34025086214789724 0 14.16111083167252005 #
point $-1 93.34025086214789724 50.03689207110728887 14.16111083167252005 #
face $-1 $-1 $142 $13 $-1 $289 reversed single #
loop $-1 $-1 $223 $127 #
plane-surface $-1 46.67012543107394862 6.969602872612429501 10.66950296300009882 0 -1 0 0 0 -1 forward_v I I I I #
coedge $-1 $290 $221 $224 $291 forward $128 $-1 #
coedge $-1 $227 $130 $131 $215 reversed $78 $-1 #
coedge $-1 $221 $290 $130 $213 reversed $128 $-1 #
edge $-1 $228 -1.5 $292 1.5 $212 $293 forward 7 unknown #
coedge $-1 $132 $131 $290 $294 forward $47 $-1 #
edge $-1 $219 -46.67012543107394862 $292 46.67012543107394862 $211 $295 forward 7 unknown #
coedge $-1 $224 $223 $132 $217 reversed $208 $-1 #
edge $-1 $296 -46.67012543107394862 $218 46.67012543107394862 $216 $297 forward 7 unknown #
vertex $-1 $134 $298 #
vertex $-1 $230 $299 #
straight-curve $-1 93.34025086214789724 3.48480143630621475 9.169502963000098816 0 -1 0 I I #
coedge $-1 $210 $212 $135 $222 reversed $128 $-1 #
edge $-1 $225 -3.48480143630621475 $228 3.48480143630621475 $221 $300 forward 7 unknown #
coedge $-1 $216 $136 $141 $231 forward $208 $-1 #
coedge $-1 $136 $216 $210 $291 reversed $208 $-1 #
vertex $-1 $137 $301 #
straight-curve $-1 46.67012543107394862 6.969602872612429501 12.16950296300009882 -1 0 0 I I #
coedge $-1 $138 $211 $140 $230 reversed $78 $-1 #
vertex $-1 $222 $302 #
straight-curve $-1 46.67012543107394862 0 12.16950296300009882 1 0 0 I I #
edge $-1 $143 -1.5 $219 1.5 $140 $303 forward 7 unknown #
edge $-1 $144 -1.5 $218 1.5 $141 $304 forward 7 unknown #
point $-1 93.34025086214789724 0 12.16950296300009882 #
point $-1 93.34025086214789724 6.969602872612429501 12.16950296300009882 #
face $-1 $-1 $161 $14 $-1 $305 reversed single #
loop $-1 $-1 $250 $146 #
plane-surface $-1 40.51093918092441015 211.4923473060842412 -27.83372397020235667 0 -0.6819983511997929071 0.7313537098837770145 0 -0.7313537098837770145 -0.6819983511997929071 forward_v I I I I #
coedge $-1 $306 $248 $251 $307 forward $147 $-1 #
coedge $-1 $254 $149 $150 $242 reversed $86 $-1 #
coedge $-1 $248 $306 $149 $240 reversed $147 $-1 #
edge $-1 $255 -93.34025086214788303 $308 93.34025086214789724 $239 $309 forward 7 unknown #
coedge $-1 $151 $150 $306 $310 forward $51 $-1 #
edge $-1 $246 -11.0057291243766997 $308 11.00572912437670325 $238 $311 forward 7 unknown #
coedge $-1 $251 $250 $151 $244 reversed $235 $-1 #
edge $-1 $312 -11.00572912437670325 $245 11.0057291243766997 $243 $313 forward 7 unknown #
vertex $-1 $153 $314 #
vertex $-1 $257 $315 #
straight-curve $-1 51.51666830530110985 15.91181417945011844 45.0378563402662877 0 -0.6819983511997929071 0.7313537098837770145 I I #
coedge $-1 $237 $239 $154 $249 reversed $147 $-1 #
edge $-1 $252 -186.6805017242958229 $255 186.6805017242957661 $248 $316 forward 7 unknown #
coedge $-1 $243 $155 $160 $258 forward $235 $-1 #
coedge $-1 $155 $243 $237 $307 reversed $235 $-1 #
vertex $-1 $156 $317 #
straight-curve $-1 40.51093918092441015 279.7570860555985064 35.82417321835755786 -1 0 0 I I #
coedge $-1 $157 $238 $159 $257 reversed $86 $-1 #
vertex $-1 $249 $318 #
straight-curve $-1 40.51093918092441015 25.12549730135884829 308.8831282164146614 1 0 0 I I #
edge $-1 $162 -93.34025086214788303 $246 93.34025086214789724 $159 $319 forward 7 unknown #
edge $-1 $163 -93.34025086214788303 $245 93.34025086214791145 $160 $320 forward 7 unknown #
point $-1 51.51666830530110985 25.12549730135884829 308.8831282164146614 #
point $-1 51.51666830530110985 279.7570860555985064 35.82417321835755786 #
coedge $-1 $261 $261 $-1 $321 reversed $165 $-1 #
vertex $-1 $167 $322 #
ellipse-curve $-1 33.90750170629838323 46.00652432386492308 10.02987897678489659 0 0.7313537098837770145 0.6819983511997929071 0.5 0 0 1 I I #
point $-1 34.40750170629838323 47.37086827430486125 11.30215026234017195 #
coedge $-1 $265 $265 $-1 $323 reversed $170 $-1 #
vertex $-1 $172 $324 #
ellipse-curve $-1 40.51093918092440305 46.00652432386492308 10.02987897678489659 0 0.7313537098837770145 0.6819983511997929071 0.5 0 0 1 I I #
point $-1 41.01093918092440305 47.37086827430486125 11.30215026234017195 #
coedge $-1 $269 $269 $-1 $325 reversed $175 $-1 #
vertex $-1 $177 $326 #
ellipse-curve $-1 47.11437665555042287 46.00652432386492308 10.02987897678489659 0 0.7313537098837770145 0.6819983511997929071 0.5 0 0 1 I I #
point $-1 47.61437665555042287 47.37086827430486125 11.30215026234017195 #
plane-surface $-1 93.34025086214789724 25.01844603555364444 7.080555415836260025 -1 0 0 0 0 1 forward_v I I I I #
coedge $-1 $185 $183 $187 $278 reversed $109 $-1 #
edge $-1 $198 -7.080555415836260025 $280 7.080555415836260025 $197 $327 forward 7 unknown #
vertex $-1 $278 $328 #
straight-curve $-1 0 0 7.080555415836260025 0 0 -1 I I #
edge $-1 $276 -25.01844603555364444 $280 25.01844603555364444 $274 $329 forward 7 unknown #
straight-curve $-1 46.67012543107394862 0 0 -1 0 0 I I #
vertex $-1 $190 $330 #
straight-curve $-1 46.67012543107394862 50.03689207110728887 0 1 0 0 I I #
point $-1 93.34025086214789724 50.03689207110728887 0 #
point $-1 93.34025086214789724 0 0 #
straight-curve $-1 0 25.01844603555364444 14.16111083167252005 0 -1 0 I I #
point $-1 0 50.03689207110728887 14.16111083167252005 #
point $-1 0 0 14.16111083167252005 #
straight-curve $-1 93.34025086214789724 0 7.080555415836260025 0 0 -1 I I #
straight-curve $-1 93.34025086214789724 50.03689207110728887 7.080555415836260025 0 0 -1 I I #
plane-surface $-1 93.34025086214789724 3.48480143630621475 10.66950296300009882 -1 0 0 0 0 1 forward_v I I I I #
coedge $-1 $212 $210 $214 $294 reversed $128 $-1 #
edge $-1 $225 -1.5 $296 1.5 $224 $331 forward 7 unknown #
vertex $-1 $294 $332 #
straight-curve $-1 0 0 10.66950296300009882 0 0 -1 I I #
edge $-1 $292 -3.48480143630621475 $296 3.48480143630621475 $290 $333 forward 7 unknown #
straight-curve $-1 46.67012543107394862 0 9.169502963000098816 -1 0 0 I I #
vertex $-1 $217 $334 #
straight-curve $-1 46.67012543107394862 6.969602872612429501 9.169502963000098816 1 0 0 I I #
point $-1 93.34025086214789724 6.969602872612429501 9.169502963000098816 #
point $-1 93.34025086214789724 0 9.169502963000098816 #
straight-curve $-1 0 3.48480143630621475 12.16950296300009882 0 -1 0 I I #
point $-1 0 6.969602872612429501 12.16950296300009882 #
point $-1 0 0 12.16950296300009882 #
straight-curve $-1 93.34025086214789724 0 10.66950296300009882 0 0 -1 I I #
straight-curve $-1 93.34025086214789724 6.969602872612429501 10.66950296300009882 0 0 -1 I I #
plane-surface $-1 51.51666830530110985 84.17655292896439789 108.6957535288262022 -1 0 0 0 0.7313537098837770145 0.6819983511997929071 forward_v I I I I #
coedge $-1 $239 $237 $241 $310 reversed $147 $-1 #
edge $-1 $252 -93.34025086214788303 $312 93.34025086214791145 $251 $335 forward 7 unknown #
vertex $-1 $310 $336 #
straight-curve $-1 29.5052100565477069 -43.13924144815543116 245.2252310278547611 0 -0.7313537098837770145 -0.6819983511997929071 I I #
edge $-1 $308 -186.6805017242958229 $312 186.6805017242958229 $306 $337 forward 7 unknown #
straight-curve $-1 40.51093918092441015 -111.4039801976697248 181.5673338392948608 -1 0 0 I I #
vertex $-1 $244 $338 #
straight-curve $-1 40.51093918092441015 143.2276085565699475 -91.4916211587622854 1 0 0 I I #
point $-1 51.51666830530110985 143.2276085565699475 -91.4916211587622854 #
point $-1 51.51666830530110985 -111.4039801976697248 181.5673338392948608 #
straight-curve $-1 29.5052100565477069 152.4412916784786773 172.353650717386131 0 -0.6819983511997929071 0.7313537098837770145 I I #
point $-1 29.5052100565477069 279.7570860555985064 35.82417321835755786 #
point $-1 29.5052100565477069 25.12549730135884829 308.8831282164146614 #
straight-curve $-1 51.51666830530110985 -43.13924144815543116 245.2252310278547611 0 -0.7313537098837770145 -0.6819983511997929071 I I #
straight-curve $-1 51.51666830530110985 211.4923473060842412 -27.83372397020235667 0 -0.7313537098837770145 -0.6819983511997929071 I I #
edge $-1 $339 1 $339 0 $261 $-1 forward 7 unknown #
point $-1 34.40750170629838323 46.00652432386492308 10.02987897678489659 #
edge $-1 $340 1 $340 0 $265 $-1 forward 7 unknown #
point $-1 41.01093918092440305 46.00652432386492308 10.02987897678489659 #
edge $-1 $341 1 $341 0 $269 $-1 forward 7 unknown #
point $-1 47.61437665555042287 46.00652432386492308 10.02987897678489659 #
straight-curve $-1 0 50.03689207110728887 7.080555415836260025 0 0 -1 I I #
point $-1 0 0 0 #
straight-curve $-1 0 25.01844603555364444 0 0 1 0 I I #
point $-1 0 50.03689207110728887 0 #
straight-curve $-1 0 6.969602872612429501 10.66950296300009882 0 0 -1 I I #
point $-1 0 0 9.169502963000098816 #
straight-curve $-1 0 3.48480143630621475 9.169502963000098816 0 1 0 I I #
point $-1 0 6.969602872612429501 9.169502963000098816 #
straight-curve $-1 29.5052100565477069 211.4923473060842412 -27.83372397020235667 0 -0.7313537098837770145 -0.6819983511997929071 I I #
point $-1 29.5052100565477069 -111.4039801976697248 181.5673338392948608 #
straight-curve $-1 29.5052100565477069 15.91181417945011844 45.0378563402662877 0 0.6819983511997929071 -0.7313537098837770145 I I #
point $-1 29.5052100565477069 143.2276085565699475 -91.4916211587622854 #
vertex $-1 $321 $342 #
vertex $-1 $323 $343 #
vertex $-1 $325 $344 #
point $-1 33.90750170629838323 45.64084746892302746 9.688879801184999252 #
point $-1 40.51093918092440305 45.64084746892302746 9.688879801184999252 #
point $-1 47.11437665555042287 45.64084746892302746 9.688879801184999252 #
End-of-ACIS-data 