500 0 9 0           
7 Unknown 11 ACIS 5.0 NT 24 Thu Mar 25 15:51:40 1999 
-1 9.9999999999999995e-007 1e-010 
body $-1 $9 $-1 $10 #
body $-1 $11 $-1 $12 #
body $-1 $13 $-1 $14 #
body $-1 $15 $-1 $16 #
body $-1 $17 $-1 $18 #
body $-1 $19 $-1 $20 #
body $-1 $21 $-1 $22 #
body $-1 $23 $-1 $24 #
body $-1 $25 $-1 $26 #
lump $-1 $-1 $27 $0 #
transform $-1 1 0 0 0 1 0 0 0 1 42.397534104434342 18.966643693851754 5.0276337106252509 1 rotate no_reflect no_shear #
lump $-1 $-1 $28 $1 #
transform $-1 1 0 0 0 1 0 0 0 1 42.397534104434342 18.966643693851754 5.0276337106252509 1 rotate no_reflect no_shear #
lump $-1 $-1 $29 $2 #
transform $-1 1 0 0 0 1 0 0 0 1 42.397534104434342 18.966643693851754 5.0276337106252509 1 rotate no_reflect no_shear #
lump $-1 $-1 $30 $3 #
transform $-1 1 0 0 0 1 0 0 0 1 42.397534104434342 18.966643693851754 5.0276337106252509 1 rotate no_reflect no_shear #
lump $-1 $-1 $31 $4 #
transform $-1 1 0 0 0 1 0 0 0 1 42.397534104434342 18.966643693851754 5.0276337106252509 1 rotate no_reflect no_shear #
lump $-1 $-1 $32 $5 #
transform $-1 1 0 0 0 1 0 0 0 1 42.397534104434342 18.966643693851754 5.0276337106252509 1 rotate no_reflect no_shear #
lump $-1 $-1 $33 $6 #
transform $-1 1 0 0 0 1 0 0 0 1 42.397534104434342 18.966643693851754 5.0276337106252509 1 rotate no_reflect no_shear #
lump $-1 $-1 $34 $7 #
transform $-1 1 0 0 0 1 0 0 0 1 42.397534104434342 18.966643693851754 5.0276337106252509 1 rotate no_reflect no_shear #
lump $-1 $-1 $35 $8 #
transform $-1 1 0 0 0 1 0 0 0 1 42.397534104434342 18.966643693851754 5.0276337106252509 1 rotate no_reflect no_shear #
shell $-1 $-1 $-1 $36 $-1 $9 #
shell $-1 $-1 $-1 $37 $-1 $11 #
shell $-1 $-1 $-1 $38 $-1 $13 #
shell $-1 $-1 $-1 $39 $-1 $15 #
shell $-1 $-1 $-1 $40 $-1 $17 #
shell $-1 $-1 $-1 $41 $-1 $19 #
shell $-1 $-1 $-1 $42 $-1 $21 #
shell $-1 $-1 $-1 $43 $-1 $23 #
shell $-1 $-1 $-1 $44 $-1 $25 #
face $-1 $45 $46 $27 $-1 $47 forward single #
face $-1 $48 $49 $28 $-1 $50 reversed single #
face $-1 $51 $52 $29 $-1 $53 forward single #
face $-1 $54 $55 $30 $-1 $56 reversed single #
face $-1 $57 $58 $31 $-1 $59 forward single #
face $-1 $60 $61 $32 $-1 $62 forward single #
face $-1 $63 $64 $33 $-1 $65 reversed single #
face $-1 $66 $67 $34 $-1 $68 forward single #
face $-1 $69 $70 $35 $-1 $71 forward single #
face $-1 $72 $73 $27 $-1 $74 reversed single #
loop $-1 $-1 $75 $36 #
plane-surface $-1 0 0 5.0276337106252509 0 0 1 1 0 0 forward_v I I I I #
face $-1 $76 $77 $28 $-1 $78 reversed single #
loop $-1 $-1 $79 $37 #
plane-surface $-1 -29.466391838807297 38.119260948710405 92.234017446573517 1 0 0 0 -0.5877852598018023 -0.80901698891910034 forward_v I I I I #
face $-1 $80 $81 $29 $-1 $82 forward single #
loop $-1 $83 $84 $38 #
cone-surface $-1 -19.474692931130292 15.615683570188827 2.0660508012761452 0 -0.5877852598018023 -0.80901698891910034 1 0 0 1 I I 0 1 1 forward I I I I #
face $-1 $85 $86 $30 $-1 $87 reversed single #
loop $-1 $-1 $88 $39 #
plane-surface $-1 -1.7763568394002505e-015 -75.705619783085439 63.608695711513718 -1 0 0 0 -0.66913061440640931 0.74314481823134659 forward_v I I I I #
face $-1 $89 $90 $31 $-1 $91 forward single #
loop $-1 $92 $93 $40 #
cone-surface $-1 -14.325427120027822 -16.075194929707443 2.3339302264069102 0 0.66913061440640931 -0.74314481823134659 1 0 0 1 I I 0 1 1 forward I I I I #
face $-1 $94 $95 $32 $-1 $96 forward single #
loop $-1 $97 $98 $41 #
cone-surface $-1 -5.7301708480111273 -16.075194929707443 2.3339302264069102 0 0.66913061440640931 -0.74314481823134659 1 0 0 1 I I 0 1 1 forward I I I I #
face $-1 $99 $100 $33 $-1 $101 reversed single #
loop $-1 $-1 $102 $42 #
plane-surface $-1 32.369735120414859 -18.966643693851751 0.59368016051936223 0 -0.66913061440640931 0.74314481823134659 1 0 0 forward_v I I I I #
face $-1 $103 $104 $34 $-1 $105 forward single #
loop $-1 $106 $107 $43 #
cone-surface $-1 28.072106984406517 -16.075194929707443 2.3339302264069102 0 0.66913061440640931 -0.74314481823134659 1 0 0 1 I I 0 1 1 forward I I I I #
face $-1 $108 $109 $35 $-1 $110 forward single #
loop $-1 $111 $112 $44 #
cone-surface $-1 36.667363256423215 -16.075194929707443 2.3339302264069102 0 0.66913061440640931 -0.74314481823134659 1 0 0 1 I I 0 1 1 forward I I I I #
face $-1 $113 $114 $27 $-1 $115 reversed single #
loop $-1 $-1 $116 $45 #
plane-surface $-1 0 0 -5.0276337106252509 0 0 1 1 0 0 forward_v I I I I #
coedge $-1 $117 $118 $119 $120 forward $46 $-1 #
face $-1 $121 $122 $28 $-1 $123 reversed single #
loop $-1 $-1 $124 $48 #
plane-surface $-1 -19.474692931130292 -11.722030248351018 23.633366689044848 0 0.5877852598018023 0.80901698891910034 1 0 0 forward_v I I I I #
coedge $-1 $125 $126 $127 $128 reversed $49 $-1 #
face $-1 $-1 $129 $29 $-1 $130 forward single #
loop $-1 $131 $132 $51 #
cone-surface $-1 -19.474692931130292 14.510870793353501 0.54540649941656305 0 -0.5877852598018023 -0.80901698891910034 0.5 0 0 1 I I -0.70710678118654746 0.70710678118654746 0.5 forward I I I I #
loop $-1 $-1 $133 $38 #
coedge $-1 $84 $84 $134 $135 reversed $52 $-1 #
face $-1 $136 $137 $30 $-1 $138 reversed single #
loop $-1 $-1 $139 $54 #
plane-surface $-1 -10.027798984019476 -18.966643693851751 0.59368016051936223 0 -0.66913061440640931 0.74314481823134659 1 0 0 forward_v I I I I #
coedge $-1 $140 $141 $142 $143 reversed $55 $-1 #
face $-1 $-1 $144 $31 $-1 $145 forward single #
loop $-1 $146 $147 $57 #
cone-surface $-1 -14.325427120027822 -15.311382956199031 1.4856311081258298 0 0.66913061440640931 -0.74314481823134659 0.5 0 0 1 I I -0.70710678118654746 0.70710678118654746 0.5 forward I I I I #
loop $-1 $-1 $148 $40 #
coedge $-1 $93 $93 $149 $150 reversed $58 $-1 #
face $-1 $-1 $151 $32 $-1 $152 forward single #
loop $-1 $153 $154 $60 #
cone-surface $-1 -5.7301708480111273 -15.311382956199031 1.4856311081258298 0 0.66913061440640931 -0.74314481823134659 0.5 0 0 1 I I -0.70710678118654746 0.70710678118654746 0.5 forward I I I I #
loop $-1 $-1 $155 $41 #
coedge $-1 $98 $98 $156 $157 reversed $61 $-1 #
face $-1 $158 $159 $33 $-1 $160 reversed single #
loop $-1 $-1 $161 $63 #
plane-surface $-1 22.341936136395383 -75.705619783085439 63.608695711513718 1 0 0 0 0.66913061440640931 -0.74314481823134659 forward_v I I I I #
coedge $-1 $162 $163 $164 $165 reversed $64 $-1 #
face $-1 $-1 $166 $34 $-1 $167 forward single #
loop $-1 $168 $169 $66 #
cone-surface $-1 28.072106984406517 -15.311382956199031 1.4856311081258298 0 0.66913061440640931 -0.74314481823134659 0.5 0 0 1 I I -0.70710678118654746 0.70710678118654746 0.5 forward I I I I #
loop $-1 $-1 $170 $43 #
coedge $-1 $107 $107 $171 $172 reversed $67 $-1 #
face $-1 $-1 $173 $35 $-1 $174 forward single #
loop $-1 $175 $176 $69 #
cone-surface $-1 36.667363256423215 -15.311382956199031 1.4856311081258298 0 0.66913061440640931 -0.74314481823134659 0.5 0 0 1 I I -0.70710678118654746 0.70710678118654746 0.5 forward I I I I #
loop $-1 $-1 $177 $44 #
coedge $-1 $112 $112 $178 $179 reversed $70 $-1 #
face $-1 $180 $181 $27 $-1 $182 reversed single #
loop $-1 $-1 $183 $72 #
plane-surface $-1 0 -18.966643693851754 0 0 1 0 0 0 1 forward_v I I I I #
coedge $-1 $184 $185 $186 $187 forward $73 $-1 #
coedge $-1 $188 $75 $189 $190 forward $46 $-1 #
coedge $-1 $75 $188 $191 $192 forward $46 $-1 #
coedge $-1 $193 $194 $75 $120 reversed $195 $-1 #
edge $-1 $196 -18.966643693851754 $197 18.966643693851754 $119 $198 forward 7 unknown #
face $-1 $199 $200 $28 $-1 $201 reversed single #
loop $-1 $-1 $202 $76 #
plane-surface $-1 -9.482994023453287 38.119260948710405 92.234017446573517 -1 0 0 0 0.5877852598018023 0.80901698891910034 forward_v I I I I #
coedge $-1 $203 $204 $205 $206 reversed $77 $-1 #
coedge $-1 $126 $79 $207 $208 reversed $49 $-1 #
coedge $-1 $79 $125 $203 $209 reversed $49 $-1 #
coedge $-1 $205 $210 $79 $128 forward $211 $-1 #
edge $-1 $212 0.09298678050344833 $213 5.1730667339604146 $127 $214 forward 7 unknown #
loop $-1 $-1 $134 $80 #
plane-surface $-1 -19.474692931130292 -11.722030248351018 23.633366689044848 0 0.5877852598018023 0.80901698891910034 1 0 0 forward_v I I I I #
loop $-1 $-1 $215 $51 #
coedge $-1 $132 $132 $133 $216 reversed $81 $-1 #
coedge $-1 $133 $133 $132 $216 forward $83 $-1 #
coedge $-1 $134 $134 $84 $135 forward $129 $-1 #
edge $-1 $217 -2.0968898790722401e-015 $217 6.2831853071795987 $134 $218 forward 7 unknown #
face $-1 $219 $220 $30 $-1 $221 reversed single #
loop $-1 $-1 $222 $85 #
plane-surface $-1 -20.055597968038953 -75.705619783085439 63.608695711513718 1 0 0 0 0.66913061440640931 -0.74314481823134659 forward_v I I I I #
coedge $-1 $223 $224 $225 $226 reversed $86 $-1 #
coedge $-1 $141 $88 $227 $228 reversed $55 $-1 #
coedge $-1 $88 $140 $223 $229 reversed $55 $-1 #
coedge $-1 $225 $230 $88 $143 forward $231 $-1 #
edge $-1 $232 18.886166197690965 $233 23.810570393369201 $142 $234 forward 7 unknown #
loop $-1 $-1 $149 $89 #
plane-surface $-1 -10.027798984019476 -18.966643693851751 0.59368016051936223 0 -0.66913061440640931 0.74314481823134659 1 0 0 forward_v I I I I #
loop $-1 $-1 $235 $57 #
coedge $-1 $147 $147 $148 $236 reversed $90 $-1 #
coedge $-1 $148 $148 $147 $236 forward $92 $-1 #
coedge $-1 $149 $149 $93 $150 forward $144 $-1 #
edge $-1 $237 -1.3489587832557616e-015 $237 6.2831853071795987 $149 $238 forward 7 unknown #
loop $-1 $-1 $156 $94 #
plane-surface $-1 -10.027798984019476 -18.966643693851751 0.59368016051936223 0 -0.66913061440640931 0.74314481823134659 1 0 0 forward_v I I I I #
loop $-1 $-1 $239 $60 #
coedge $-1 $154 $154 $155 $240 reversed $95 $-1 #
coedge $-1 $155 $155 $154 $240 forward $97 $-1 #
coedge $-1 $156 $156 $98 $157 forward $151 $-1 #
edge $-1 $241 -1.3489587832557616e-015 $241 6.2831853071795987 $156 $242 forward 7 unknown #
face $-1 $243 $244 $33 $-1 $245 forward single #
loop $-1 $-1 $246 $99 #
plane-surface $-1 0 -18.966643693851754 0 0 1 0 0 0 1 forward_v I I I I #
coedge $-1 $247 $248 $249 $250 reversed $100 $-1 #
coedge $-1 $251 $102 $252 $253 reversed $64 $-1 #
coedge $-1 $102 $251 $247 $254 forward $64 $-1 #
coedge $-1 $249 $255 $102 $165 forward $244 $-1 #
edge $-1 $256 -26.212666544226906 $257 -6.1570685761879531 $164 $258 forward 7 unknown #
loop $-1 $-1 $171 $103 #
plane-surface $-1 32.369735120414859 -18.966643693851751 0.59368016051936223 0 -0.66913061440640931 0.74314481823134659 1 0 0 forward_v I I I I #
loop $-1 $-1 $259 $66 #
coedge $-1 $169 $169 $170 $260 reversed $104 $-1 #
coedge $-1 $170 $170 $169 $260 forward $106 $-1 #
coedge $-1 $171 $171 $107 $172 forward $166 $-1 #
edge $-1 $261 -1.3489587832557616e-015 $261 6.2831853071795987 $171 $262 forward 7 unknown #
loop $-1 $-1 $178 $108 #
plane-surface $-1 32.369735120414859 -18.966643693851751 0.59368016051936223 0 -0.66913061440640931 0.74314481823134659 1 0 0 forward_v I I I I #
loop $-1 $-1 $263 $69 #
coedge $-1 $176 $176 $177 $264 reversed $109 $-1 #
coedge $-1 $177 $177 $176 $264 forward $111 $-1 #
coedge $-1 $178 $178 $112 $179 forward $173 $-1 #
edge $-1 $265 -1.3489587832557616e-015 $265 6.2831853071795987 $178 $266 forward 7 unknown #
face $-1 $267 $268 $27 $-1 $269 reversed single #
loop $-1 $-1 $270 $113 #
plane-surface $-1 -42.397534104434342 0 0 1 0 0 0 0 -1 forward_v I I I I #
coedge $-1 $271 $191 $272 $273 forward $114 $-1 #
coedge $-1 $274 $116 $271 $275 forward $73 $-1 #
coedge $-1 $116 $274 $276 $277 forward $73 $-1 #
coedge $-1 $194 $193 $116 $187 reversed $195 $-1 #
edge $-1 $278 -18.966643693851754 $279 18.966643693851754 $186 $280 forward 7 unknown #
coedge $-1 $118 $117 $281 $282 forward $46 $-1 #
coedge $-1 $283 $284 $117 $190 reversed $268 $-1 #
edge $-1 $197 -42.397534104434342 $285 42.397534104434342 $189 $286 forward 7 unknown #
coedge $-1 $183 $287 $118 $192 reversed $114 $-1 #
edge $-1 $288 -42.397534104434342 $196 42.397534104434342 $191 $289 forward 7 unknown #
coedge $-1 $186 $119 $287 $290 forward $195 $-1 #
coedge $-1 $119 $186 $283 $291 reversed $195 $-1 #
loop $-1 $-1 $193 $267 #
vertex $-1 $120 $292 #
vertex $-1 $120 $293 #
straight-curve $-1 42.397534104434342 0 5.0276337106252509 0 1 0 I I #
face $-1 $-1 $211 $28 $-1 $294 forward single #
loop $-1 $-1 $295 $121 #
plane-surface $-1 0 18.966643693851754 0 0 -1 0 0 0 -1 forward_v I I I I #
coedge $-1 $296 $297 $298 $299 reversed $122 $-1 #
coedge $-1 $300 $124 $126 $209 forward $77 $-1 #
coedge $-1 $124 $300 $296 $301 forward $77 $-1 #
coedge $-1 $298 $127 $124 $206 forward $211 $-1 #
edge $-1 $213 -19.729045373242151 $302 0.25435244211185903 $205 $303 forward 7 unknown #
coedge $-1 $304 $305 $125 $208 forward $200 $-1 #
edge $-1 $306 -44.780269216559645 $212 -41.089375012661506 $207 $307 forward 7 unknown #
edge $-1 $213 31.653963191750229 $306 37.933287387703501 $126 $308 forward 7 unknown #
coedge $-1 $127 $298 $304 $309 forward $211 $-1 #
loop $-1 $-1 $298 $199 #
vertex $-1 $208 $310 #
vertex $-1 $128 $311 #
straight-curve $-1 -29.466391838807297 19.059630474355203 5.0276337106252527 0 -1 0 I I #
coedge $-1 $215 $215 $-1 $312 reversed $131 $-1 #
edge $-1 $313 0 $313 6.2831853071796004 $132 $314 forward 7 unknown #
vertex $-1 $135 $315 #
ellipse-curve $-1 -19.474692931130292 16.42660371712326 3.1821866086761883 0 0.5877852598018023 0.80901698891910034 1 0 0 1 I I #
face $-1 $-1 $231 $30 $-1 $316 forward single #
loop $-1 $-1 $317 $136 #
plane-surface $-1 0 -18.966643693851754 0 0 1 0 0 0 1 forward_v I I I I #
coedge $-1 $318 $319 $320 $321 reversed $137 $-1 #
coedge $-1 $322 $139 $141 $229 forward $86 $-1 #
coedge $-1 $139 $322 $318 $323 forward $86 $-1 #
coedge $-1 $320 $142 $139 $226 forward $231 $-1 #
edge $-1 $233 -5.0138994920097364 $324 15.041698476029215 $225 $325 forward 7 unknown #
coedge $-1 $326 $327 $140 $228 forward $220 $-1 #
edge $-1 $328 -31.2106676952375 $232 -26.776714145131606 $227 $329 forward 7 unknown #
edge $-1 $233 -6.6264395241268126 $328 4.7945449833873789e-015 $141 $330 forward 7 unknown #
coedge $-1 $142 $320 $326 $331 forward $231 $-1 #
loop $-1 $-1 $320 $219 #
vertex $-1 $228 $332 #
vertex $-1 $143 $333 #
straight-curve $-1 -1.7763568394002505e-015 -37.852809891542719 5.0276337106252527 0 1 0 I I #
coedge $-1 $235 $235 $-1 $334 reversed $146 $-1 #
edge $-1 $335 0 $335 6.2831853071796004 $147 $336 forward 7 unknown #
vertex $-1 $150 $337 #
ellipse-curve $-1 -14.325427120027822 -16.504441596012636 2.8106569355723039 0 -0.66913061440640931 0.74314481823134659 1 0 0 1 I I #
coedge $-1 $239 $239 $-1 $338 reversed $153 $-1 #
edge $-1 $339 0 $339 6.2831853071796004 $154 $340 forward 7 unknown #
vertex $-1 $157 $341 #
ellipse-curve $-1 -5.7301708480111273 -16.504441596012636 2.8106569355723039 0 -0.66913061440640931 0.74314481823134659 1 0 0 1 I I #
face $-1 $-1 $342 $33 $-1 $343 reversed single #
loop $-1 $-1 $249 $158 #
plane-surface $-1 0 0 5.0276337106252509 0 0 1 1 0 0 forward_v I I I I #
coedge $-1 $344 $345 $248 $346 forward $159 $-1 #
coedge $-1 $248 $161 $163 $254 reversed $100 $-1 #
coedge $-1 $161 $247 $246 $346 reversed $100 $-1 #
coedge $-1 $347 $164 $161 $250 forward $244 $-1 #
edge $-1 $257 -23.810570393369201 $348 -18.886166197690965 $249 $349 forward 7 unknown #
coedge $-1 $163 $162 $344 $350 reversed $64 $-1 #
coedge $-1 $351 $352 $162 $253 forward $342 $-1 #
edge $-1 $353 -6.848856704878485 $256 -0.22241718075166711 $252 $354 forward 7 unknown #
edge $-1 $355 -4.7945449833873789e-015 $257 6.6264395241268126 $247 $356 forward 7 unknown #
coedge $-1 $164 $347 $351 $357 forward $244 $-1 #
vertex $-1 $253 $358 #
vertex $-1 $165 $359 #
straight-curve $-1 16.184867560207429 -14.042239498173517 5.0276337106252509 -1 0 0 I I #
coedge $-1 $259 $259 $-1 $360 reversed $168 $-1 #
edge $-1 $361 0 $361 6.2831853071796004 $169 $362 forward 7 unknown #
vertex $-1 $172 $363 #
ellipse-curve $-1 28.072106984406517 -16.504441596012636 2.8106569355723039 0 -0.66913061440640931 0.74314481823134659 1 0 0 1 I I #
coedge $-1 $263 $263 $-1 $364 reversed $175 $-1 #
edge $-1 $365 0 $365 6.2831853071796004 $176 $366 forward 7 unknown #
vertex $-1 $179 $367 #
ellipse-curve $-1 36.667363256423215 -16.504441596012636 2.8106569355723039 0 -0.66913061440640931 0.74314481823134659 1 0 0 1 I I #
face $-1 $-1 $195 $27 $-1 $368 reversed single #
loop $-1 $-1 $283 $180 #
plane-surface $-1 0 18.966643693851754 0 0 -1 0 0 0 -1 forward_v I I I I #
coedge $-1 $369 $281 $284 $370 forward $181 $-1 #
coedge $-1 $287 $183 $184 $275 reversed $114 $-1 #
coedge $-1 $281 $369 $183 $273 reversed $181 $-1 #
edge $-1 $288 -5.0276337106252509 $371 5.0276337106252509 $272 $372 forward 7 unknown #
coedge $-1 $185 $184 $369 $373 forward $73 $-1 #
edge $-1 $279 -42.397534104434342 $371 42.397534104434342 $271 $374 forward 7 unknown #
coedge $-1 $284 $283 $185 $277 reversed $268 $-1 #
edge $-1 $375 -42.397534104434342 $278 42.397534104434342 $276 $376 forward 7 unknown #
vertex $-1 $187 $377 #
vertex $-1 $290 $378 #
straight-curve $-1 42.397534104434342 0 -5.0276337106252509 0 -1 0 I I #
coedge $-1 $270 $272 $188 $282 reversed $181 $-1 #
edge $-1 $285 -18.966643693851754 $288 18.966643693851754 $281 $379 forward 7 unknown #
coedge $-1 $276 $189 $194 $291 forward $268 $-1 #
coedge $-1 $189 $276 $270 $370 reversed $268 $-1 #
vertex $-1 $190 $380 #
straight-curve $-1 0 18.966643693851754 5.0276337106252509 -1 0 0 I I #
coedge $-1 $191 $271 $193 $290 reversed $114 $-1 #
vertex $-1 $282 $381 #
straight-curve $-1 0 -18.966643693851754 5.0276337106252509 1 0 0 I I #
edge $-1 $196 -5.0276337106252509 $279 5.0276337106252509 $193 $382 forward 7 unknown #
edge $-1 $197 -5.0276337106252509 $278 5.0276337106252509 $194 $383 forward 7 unknown #
point $-1 42.397534104434342 -18.966643693851754 5.0276337106252509 #
point $-1 42.397534104434342 18.966643693851754 5.0276337106252509 #
plane-surface $-1 0 0 5.0276337106252509 0 0 1 1 0 0 forward_v I I I I #
coedge $-1 $305 $304 $297 $384 forward $200 $-1 #
coedge $-1 $297 $202 $204 $301 reversed $122 $-1 #
coedge $-1 $202 $296 $295 $384 reversed $122 $-1 #
coedge $-1 $210 $205 $202 $299 forward $211 $-1 #
edge $-1 $302 -5.1730667339604146 $385 -0.09298678050344833 $298 $386 forward 7 unknown #
coedge $-1 $204 $203 $305 $387 reversed $77 $-1 #
edge $-1 $388 -37.933287387703501 $302 -31.653963191750229 $296 $389 forward 7 unknown #
vertex $-1 $206 $390 #
straight-curve $-1 -9.737346465565146 13.88656374039479 5.0276337106252509 1 0 0 I I #
coedge $-1 $295 $207 $210 $309 reversed $200 $-1 #
coedge $-1 $207 $295 $300 $387 forward $200 $-1 #
vertex $-1 $208 $391 #
straight-curve $-1 -29.466391838807297 18.966643693851754 46.117008723286759 0 0 1 I I #
straight-curve $-1 -29.466391838807297 -11.722030248351018 23.633366689044848 0 0.80901698891910034 -0.5877852598018023 I I #
edge $-1 $385 9.482994023453287 $212 29.466391838807297 $304 $392 forward 7 unknown #
point $-1 -29.466391838807297 18.966643693851754 5.0276337106252509 #
point $-1 -29.466391838807297 13.886563740394788 5.0276337106252527 #
edge $-1 $393 1 $393 0 $215 $-1 forward 7 unknown #
vertex $-1 $216 $394 #
ellipse-curve $-1 -19.474692931130292 14.804763423254402 0.94991499387611322 0 0.5877852598018023 0.80901698891910034 1 0 0 1 I I #
point $-1 -18.474692931130292 16.42660371712325 3.1821866086761772 #
plane-surface $-1 0 0 5.0276337106252509 0 0 1 1 0 0 forward_v I I I I #
coedge $-1 $327 $326 $319 $395 forward $220 $-1 #
coedge $-1 $319 $222 $224 $323 reversed $137 $-1 #
coedge $-1 $222 $318 $317 $395 reversed $137 $-1 #
coedge $-1 $230 $225 $222 $321 forward $231 $-1 #
edge $-1 $324 -23.810570393369201 $396 -18.886166197690965 $320 $397 forward 7 unknown #
coedge $-1 $224 $223 $327 $398 reversed $86 $-1 #
edge $-1 $399 -4.7945449833873789e-015 $324 6.6264395241268126 $318 $400 forward 7 unknown #
vertex $-1 $226 $401 #
straight-curve $-1 -5.0138994920097382 -14.042239498173517 5.0276337106252509 -1 0 0 I I #
coedge $-1 $317 $227 $230 $331 reversed $220 $-1 #
coedge $-1 $227 $317 $322 $398 forward $220 $-1 #
vertex $-1 $228 $402 #
straight-curve $-1 -1.7763568394002505e-015 -18.966643693851754 31.804347855756859 0 0 1 I I #
straight-curve $-1 -1.7763568394002505e-015 -18.966643693851751 0.59368016051936223 0 -0.74314481823134659 -0.66913061440640931 I I #
edge $-1 $396 -20.055597968038953 $232 -1.7763568394002505e-015 $326 $403 forward 7 unknown #
point $-1 -1.7763568394002505e-015 -18.966643693851754 5.0276337106252509 #
point $-1 -1.7763568394002505e-015 -14.042239498173519 5.0276337106252509 #
edge $-1 $404 1 $404 0 $235 $-1 forward 7 unknown #
vertex $-1 $236 $405 #
ellipse-curve $-1 -14.325427120027822 -15.645948263402236 1.8572035172415031 0 -0.66913061440640931 0.74314481823134659 1 0 0 1 I I #
point $-1 -13.325427120027822 -16.504441596012651 2.8106569355723177 #
edge $-1 $406 1 $406 0 $239 $-1 forward 7 unknown #
vertex $-1 $240 $407 #
ellipse-curve $-1 -5.7301708480111273 -15.645948263402236 1.8572035172415031 0 -0.66913061440640931 0.74314481823134659 1 0 0 1 I I #
point $-1 -4.7301708480111273 -16.504441596012651 2.8106569355723177 #
loop $-1 $-1 $252 $243 #
plane-surface $-1 42.397534104434342 0 0 -1 0 0 0 0 1 forward_v I I I I #
coedge $-1 $408 $246 $251 $350 forward $159 $-1 #
coedge $-1 $246 $408 $347 $409 reversed $159 $-1 #
edge $-1 $348 26.776714145131606 $355 31.2106676952375 $246 $410 forward 7 unknown #
coedge $-1 $255 $249 $345 $409 forward $244 $-1 #
vertex $-1 $409 $411 #
straight-curve $-1 22.341936136395383 -37.852809891542719 5.0276337106252527 0 -1 0 I I #
edge $-1 $355 6.1570685761879531 $353 26.212666544226906 $344 $412 forward 7 unknown #
coedge $-1 $352 $252 $255 $357 reversed $342 $-1 #
coedge $-1 $252 $351 $408 $413 forward $342 $-1 #
vertex $-1 $350 $414 #
straight-curve $-1 42.397534104434342 -13.876951322812292 5.1764598554361552 0 0.74314481823134659 0.66913061440640931 I I #
vertex $-1 $350 $415 #
straight-curve $-1 22.341936136395383 -18.966643693851751 0.59368016051936223 0 0.74314481823134659 0.66913061440640931 I I #
edge $-1 $416 -18.966643693851754 $256 -14.042239498173519 $351 $417 forward 7 unknown #
point $-1 42.397534104434335 -14.042239498173519 5.0276337106252509 #
point $-1 22.341936136395383 -14.042239498173519 5.0276337106252509 #
edge $-1 $418 1 $418 0 $259 $-1 forward 7 unknown #
vertex $-1 $260 $419 #
ellipse-curve $-1 28.072106984406517 -15.645948263402236 1.8572035172415031 0 -0.66913061440640931 0.74314481823134659 1 0 0 1 I I #
point $-1 29.072106984406517 -16.504441596012651 2.8106569355723177 #
edge $-1 $420 1 $420 0 $263 $-1 forward 7 unknown #
vertex $-1 $264 $421 #
ellipse-curve $-1 36.667363256423215 -15.645948263402236 1.8572035172415031 0 -0.66913061440640931 0.74314481823134659 1 0 0 1 I I #
point $-1 37.667363256423215 -16.504441596012651 2.8106569355723177 #
plane-surface $-1 42.397534104434342 0 0 -1 0 0 0 0 1 forward_v I I I I #
coedge $-1 $272 $270 $274 $373 reversed $181 $-1 #
edge $-1 $285 -5.0276337106252509 $375 5.0276337106252509 $284 $422 forward 7 unknown #
vertex $-1 $373 $423 #
straight-curve $-1 -42.397534104434342 -18.966643693851754 0 0 0 -1 I I #
edge $-1 $371 -18.966643693851754 $375 18.966643693851754 $369 $424 forward 7 unknown #
straight-curve $-1 0 -18.966643693851754 -5.0276337106252509 -1 0 0 I I #
vertex $-1 $277 $425 #
straight-curve $-1 0 18.966643693851754 -5.0276337106252509 1 0 0 I I #
point $-1 42.397534104434342 18.966643693851754 -5.0276337106252509 #
point $-1 42.397534104434342 -18.966643693851754 -5.0276337106252509 #
straight-curve $-1 -42.397534104434342 0 5.0276337106252509 0 -1 0 I I #
point $-1 -42.397534104434342 18.966643693851754 5.0276337106252509 #
point $-1 -42.397534104434342 -18.966643693851754 5.0276337106252509 #
straight-curve $-1 42.397534104434342 -18.966643693851754 0 0 0 -1 I I #
straight-curve $-1 42.397534104434342 18.966643693851754 0 0 0 -1 I I #
edge $-1 $385 41.089375012661506 $388 44.780269216559645 $295 $426 forward 7 unknown #
vertex $-1 $309 $427 #
straight-curve $-1 -9.482994023453287 19.059630474355203 5.0276337106252527 0 1 0 I I #
edge $-1 $388 -0.25435244211185903 $306 19.729045373242151 $305 $428 forward 7 unknown #
vertex $-1 $387 $429 #
straight-curve $-1 -9.482994023453287 -11.722030248351018 23.633366689044848 0 -0.80901698891910034 0.5877852598018023 I I #
point $-1 -9.482994023453287 13.886563740394788 5.0276337106252527 #
point $-1 -29.466391838807297 18.966643693851754 1.3367395067271168 #
straight-curve $-1 0 18.966643693851754 5.0276337106252509 -1 0 0 I I #
vertex $-1 $312 $430 #
point $-1 -18.474692931130292 14.804763423254402 0.94991499387611322 #
edge $-1 $396 26.776714145131606 $399 31.2106676952375 $317 $431 forward 7 unknown #
vertex $-1 $331 $432 #
straight-curve $-1 -20.055597968038953 -37.852809891542719 5.0276337106252527 0 -1 0 I I #
edge $-1 $399 -15.041698476029215 $328 5.0138994920097364 $327 $433 forward 7 unknown #
vertex $-1 $398 $434 #
straight-curve $-1 -20.055597968038953 -18.966643693851751 0.59368016051936223 0 0.74314481823134659 0.66913061440640931 I I #
point $-1 -20.055597968038953 -14.042239498173519 5.0276337106252509 #
point $-1 -1.7763568394002505e-015 -18.966643693851754 0.59368016051935901 #
straight-curve $-1 0 -18.966643693851754 5.0276337106252509 1 0 0 I I #
vertex $-1 $334 $435 #
point $-1 -13.325427120027822 -15.645948263402236 1.8572035172415031 #
vertex $-1 $338 $436 #
point $-1 -4.7301708480111273 -15.645948263402236 1.8572035172415031 #
coedge $-1 $345 $344 $352 $413 reversed $159 $-1 #
edge $-1 $348 22.341936136395383 $416 42.397534104434342 $345 $437 forward 7 unknown #
straight-curve $-1 22.341936136395383 -18.966643693851754 31.804347855756859 0 0 -1 I I #
point $-1 22.341936136395383 -18.966643693851754 5.0276337106252509 #
straight-curve $-1 16.184867560207429 -18.966643693851754 0.59368016051935824 1 0 0 I I #
edge $-1 $416 -5.0276337106252509 $353 -0.59368016051935901 $352 $438 forward 7 unknown #
point $-1 42.397534104434335 -18.966643693851754 0.59368016051935901 #
point $-1 22.341936136395383 -18.966643693851754 0.59368016051935901 #
vertex $-1 $357 $439 #
straight-curve $-1 42.397534104434342 0 5.0276337106252509 0 1 0 I I #
vertex $-1 $360 $440 #
point $-1 29.072106984406517 -15.645948263402236 1.8572035172415031 #
vertex $-1 $364 $441 #
point $-1 37.667363256423215 -15.645948263402236 1.8572035172415031 #
straight-curve $-1 -42.397534104434342 18.966643693851754 0 0 0 -1 I I #
point $-1 -42.397534104434342 -18.966643693851754 -5.0276337106252509 #
straight-curve $-1 -42.397534104434342 0 -5.0276337106252509 0 1 0 I I #
point $-1 -42.397534104434342 18.966643693851754 -5.0276337106252509 #
straight-curve $-1 -9.482994023453287 18.966643693851754 46.117008723286759 0 0 -1 I I #
point $-1 -9.482994023453287 18.966643693851754 5.0276337106252509 #
straight-curve $-1 -9.737346465565146 18.966643693851754 1.3367395067271133 -1 0 0 I I #
point $-1 -9.482994023453287 18.966643693851754 1.3367395067271168 #
point $-1 -19.474692931130292 14.2169781634526 0.14089800495701288 #
straight-curve $-1 -20.055597968038953 -18.966643693851754 31.804347855756859 0 0 -1 I I #
point $-1 -20.055597968038953 -18.966643693851754 5.0276337106252509 #
straight-curve $-1 -5.0138994920097382 -18.966643693851754 0.59368016051935824 1 0 0 I I #
point $-1 -20.055597968038953 -18.966643693851754 0.59368016051935901 #
point $-1 -14.325427120027822 -14.976817648995826 1.1140586990101564 #
point $-1 -5.7301708480111273 -14.976817648995826 1.1140586990101564 #
straight-curve $-1 0 -18.966643693851754 5.0276337106252509 1 0 0 I I #
straight-curve $-1 42.397534104434342 -18.966643693851754 0 0 0 -1 I I #
point $-1 42.397534104434342 -18.966643693851754 5.0276337106252509 #
point $-1 28.072106984406517 -14.976817648995826 1.1140586990101564 #
point $-1 36.667363256423215 -14.976817648995826 1.1140586990101564 #
End-of-ACIS-data 