500 0 7 0           
7 Unknown 11 ACIS 5.0 NT 24 Thu Mar 25 23:52:56 1999 
-1 9.9999999999999995e-007 1e-010 
body $-1 $7 $-1 $8 #
body $-1 $9 $-1 $10 #
body $-1 $11 $-1 $12 #
body $-1 $13 $-1 $14 #
body $-1 $15 $-1 $16 #
body $-1 $17 $-1 $18 #
body $-1 $19 $-1 $20 #
lump $-1 $-1 $21 $0 #
transform $-1 1 0 0 0 1 0 0 0 1 48.271736808374278 21.66873141779887 4.5720117314138022 1 rotate no_reflect no_shear #
lump $-1 $-1 $22 $1 #
transform $-1 1 0 0 0 1 0 0 0 1 48.271736808374278 21.66873141779887 4.5720117314138022 1 rotate no_reflect no_shear #
lump $-1 $-1 $23 $2 #
transform $-1 1 0 0 0 1 0 0 0 1 48.271736808374278 21.66873141779887 4.5720117314138022 1 rotate no_reflect no_shear #
lump $-1 $-1 $24 $3 #
transform $-1 1 0 0 0 1 0 0 0 1 48.271736808374278 21.66873141779887 4.5720117314138022 1 rotate no_reflect no_shear #
lump $-1 $-1 $25 $4 #
transform $-1 1 0 0 0 1 0 0 0 1 48.271736808374278 21.66873141779887 4.5720117314138022 1 rotate no_reflect no_shear #
lump $-1 $-1 $26 $5 #
transform $-1 1 0 0 0 1 0 0 0 1 48.271736808374278 21.66873141779887 4.5720117314138022 1 rotate no_reflect no_shear #
lump $-1 $-1 $27 $6 #
transform $-1 1 0 0 0 1 0 0 0 1 48.271736808374278 21.66873141779887 4.5720117314138022 1 rotate no_reflect no_shear #
shell $-1 $-1 $-1 $28 $-1 $7 #
shell $-1 $-1 $-1 $29 $-1 $9 #
shell $-1 $-1 $-1 $30 $-1 $11 #
shell $-1 $-1 $-1 $31 $-1 $13 #
shell $-1 $-1 $-1 $32 $-1 $15 #
shell $-1 $-1 $-1 $33 $-1 $17 #
shell $-1 $-1 $-1 $34 $-1 $19 #
face $-1 $35 $36 $21 $-1 $37 forward single #
face $-1 $38 $39 $22 $-1 $40 reversed single #
face $-1 $41 $42 $23 $-1 $43 forward single #
face $-1 $44 $45 $24 $-1 $46 forward single #
face $-1 $47 $48 $25 $-1 $49 reversed single #
face $-1 $50 $51 $26 $-1 $52 forward single #
face $-1 $53 $54 $27 $-1 $55 forward single #
face $-1 $56 $57 $21 $-1 $58 reversed single #
loop $-1 $-1 $59 $28 #
plane-surface $-1 0 0 4.5720117314138022 0 0 1 1 0 0 forward_v I I I I #
face $-1 $60 $61 $22 $-1 $62 reversed single #
loop $-1 $-1 $63 $29 #
plane-surface $-1 55.417328306534223 13.5346216842076 137.19835571222202 0 1 0 0.74314483375859142 0 0.66913059716165679 forward_v I I I I #
face $-1 $64 $65 $23 $-1 $66 forward single #
loop $-1 $67 $68 $30 #
cone-surface $-1 46.225578664438238 15.85865303666225 2.3776305209214943 -0.74314483375859142 0 -0.66913059716165679 0.3345652985808284 0 -0.37157241687929571 1 I I 0 1 0.5 forward I I I I #
face $-1 $69 $70 $24 $-1 $71 forward single #
loop $-1 $72 $73 $31 #
cone-surface $-1 46.225578664438238 19.344700065344224 2.3776305209214943 -0.74314483375859142 0 -0.66913059716165679 0.3345652985808284 0 -0.37157241687929571 1 I I 0 1 0.5 forward I I I I #
face $-1 $74 $75 $25 $-1 $76 reversed single #
loop $-1 $-1 $77 $32 #
plane-surface $-1 -112.87193062647819 -3.4602865284121016 71.832953553933834 0 1 0 -0.66913061440640931 0 0.74314481823134659 forward_v I I I I #
face $-1 $78 $79 $26 $-1 $80 forward single #
loop $-1 $81 $82 $33 #
cone-surface $-1 -45.200670816648014 -1.3380182250311741 1.6847631271600632 0.66913061440640931 0 -0.74314481823134659 0.3715724091156733 0 0.33456530720320465 1 I I 0 1 0.5 forward I I I I #
face $-1 $83 $84 $27 $-1 $85 forward single #
loop $-1 $86 $87 $34 #
cone-surface $-1 -45.200670816648014 1.8453842300402172 1.6847631271600632 0.66913061440640931 0 -0.74314481823134659 0.3715724091156733 0 0.33456530720320465 1 I I 0 1 0.5 forward I I I I #
face $-1 $88 $89 $21 $-1 $90 reversed single #
loop $-1 $-1 $91 $35 #
plane-surface $-1 0 0 -4.5720117314138022 0 0 1 1 0 0 forward_v I I I I #
coedge $-1 $92 $93 $94 $95 forward $36 $-1 #
face $-1 $96 $97 $22 $-1 $98 forward single #
loop $-1 $-1 $99 $38 #
plane-surface $-1 -16.328455344861332 17.601676551003234 72.5981635589864 0.74314483375859142 0 0.66913059716165679 0.66913059716165679 0 -0.74314483375859142 forward_v I I I I #
coedge $-1 $100 $101 $102 $103 reversed $39 $-1 #
face $-1 $-1 $104 $23 $-1 $105 forward single #
loop $-1 $106 $107 $41 #
cone-surface $-1 45.668220039119298 15.85865303666225 1.8757825730502518 -0.74314483375859142 0 -0.66913059716165679 0.1672826492904142 0 -0.18578620843964785 1 I I -0.70710678118654746 0.70710678118654746 0.25 forward I I I I #
loop $-1 $-1 $108 $30 #
coedge $-1 $68 $68 $109 $110 reversed $42 $-1 #
face $-1 $-1 $111 $24 $-1 $112 forward single #
loop $-1 $113 $114 $44 #
cone-surface $-1 45.668220039119298 19.344700065344224 1.8757825730502518 -0.74314483375859142 0 -0.66913059716165679 0.1672826492904142 0 -0.18578620843964785 1 I I -0.70710678118654746 0.70710678118654746 0.25 forward I I I I #
loop $-1 $-1 $115 $31 #
coedge $-1 $73 $73 $116 $117 reversed $45 $-1 #
face $-1 $118 $119 $25 $-1 $120 reversed single #
loop $-1 $-1 $121 $47 #
plane-surface $-1 -48.271736808374257 0.25368300250451981 0.08717140159242831 -0.66913061440640931 0 0.74314481823134659 0.74314481823134659 0 0.66913061440640931 forward_v I I I I #
coedge $-1 $122 $123 $124 $125 reversed $48 $-1 #
face $-1 $-1 $126 $26 $-1 $127 forward single #
loop $-1 $128 $129 $50 #
cone-surface $-1 -44.452782015739579 -1.3380182250311741 0.8541484832591788 0.66913061440640931 0 -0.74314481823134659 0.18578620455783665 0 0.16728265360160233 1 I I -0.70710678118654746 0.70710678118654746 0.25 forward I I I I #
loop $-1 $-1 $130 $33 #
coedge $-1 $82 $82 $131 $132 reversed $51 $-1 #
face $-1 $-1 $133 $27 $-1 $134 forward single #
loop $-1 $135 $136 $53 #
cone-surface $-1 -44.452782015739579 1.8453842300402172 0.8541484832591788 0.66913061440640931 0 -0.74314481823134659 0.18578620455783665 0 0.16728265360160233 1 I I -0.70710678118654746 0.70710678118654746 0.25 forward I I I I #
loop $-1 $-1 $137 $34 #
coedge $-1 $87 $87 $138 $139 reversed $54 $-1 #
face $-1 $140 $141 $21 $-1 $142 reversed single #
loop $-1 $-1 $143 $56 #
plane-surface $-1 0 -21.66873141779887 0 0 1 0 0 0 1 forward_v I I I I #
coedge $-1 $144 $145 $146 $147 forward $57 $-1 #
coedge $-1 $148 $59 $149 $150 forward $36 $-1 #
coedge $-1 $59 $148 $151 $152 forward $36 $-1 #
coedge $-1 $153 $154 $59 $95 reversed $155 $-1 #
edge $-1 $156 -21.66873141779887 $157 21.66873141779887 $94 $158 forward 7 unknown #
face $-1 $159 $160 $22 $-1 $161 reversed single #
loop $-1 $-1 $162 $60 #
plane-surface $-1 0 0 4.5720117314138022 0 0 1 1 0 0 forward_v I I I I #
coedge $-1 $163 $164 $165 $166 reversed $61 $-1 #
coedge $-1 $101 $63 $167 $168 reversed $39 $-1 #
coedge $-1 $63 $100 $163 $169 reversed $39 $-1 #
coedge $-1 $165 $170 $63 $103 forward $160 $-1 #
edge $-1 $171 64.027166124697203 $172 67.746797948520168 $102 $173 forward 7 unknown #
loop $-1 $-1 $109 $64 #
plane-surface $-1 -16.328455344861332 17.601676551003234 72.5981635589864 0.74314483375859142 0 0.66913059716165679 0.66913059716165679 0 -0.74314483375859142 forward_v I I I I #
loop $-1 $-1 $174 $41 #
coedge $-1 $107 $107 $108 $175 reversed $65 $-1 #
coedge $-1 $108 $108 $107 $175 forward $67 $-1 #
coedge $-1 $109 $109 $68 $110 forward $104 $-1 #
edge $-1 $176 0 $176 6.2831853071796004 $109 $177 forward 7 unknown #
loop $-1 $-1 $116 $69 #
plane-surface $-1 -16.328455344861332 17.601676551003234 72.5981635589864 0.74314483375859142 0 0.66913059716165679 0.66913059716165679 0 -0.74314483375859142 forward_v I I I I #
loop $-1 $-1 $178 $44 #
coedge $-1 $114 $114 $115 $179 reversed $70 $-1 #
coedge $-1 $115 $115 $114 $179 forward $72 $-1 #
coedge $-1 $116 $116 $73 $117 forward $111 $-1 #
edge $-1 $180 0 $180 6.2831853071796004 $116 $181 forward 7 unknown #
face $-1 $182 $183 $25 $-1 $184 reversed single #
loop $-1 $-1 $185 $74 #
plane-surface $-1 -112.87193062647819 3.9676525334211412 71.832953553933834 0 -1 0 0.66913061440640931 0 -0.74314481823134659 forward_v I I I I #
coedge $-1 $186 $187 $188 $189 reversed $75 $-1 #
coedge $-1 $123 $77 $190 $191 reversed $48 $-1 #
coedge $-1 $77 $122 $186 $192 reversed $48 $-1 #
coedge $-1 $188 $193 $77 $125 forward $194 $-1 #
edge $-1 $195 8.1642285048648162 $196 13.145148193703683 $124 $197 forward 7 unknown #
loop $-1 $-1 $131 $78 #
plane-surface $-1 -48.271736808374257 0.25368300250451981 0.08717140159242831 -0.66913061440640931 0 0.74314481823134659 0.74314481823134659 0 0.66913061440640931 forward_v I I I I #
loop $-1 $-1 $198 $50 #
coedge $-1 $129 $129 $130 $199 reversed $79 $-1 #
coedge $-1 $130 $130 $129 $199 forward $81 $-1 #
coedge $-1 $131 $131 $82 $132 forward $126 $-1 #
edge $-1 $200 0 $200 6.2831853071796004 $131 $201 forward 7 unknown #
loop $-1 $-1 $138 $83 #
plane-surface $-1 -48.271736808374257 0.25368300250451981 0.08717140159242831 -0.66913061440640931 0 0.74314481823134659 0.74314481823134659 0 0.66913061440640931 forward_v I I I I #
loop $-1 $-1 $202 $53 #
coedge $-1 $136 $136 $137 $203 reversed $84 $-1 #
coedge $-1 $137 $137 $136 $203 forward $86 $-1 #
coedge $-1 $138 $138 $87 $139 forward $133 $-1 #
edge $-1 $204 0 $204 6.2831853071796004 $138 $205 forward 7 unknown #
face $-1 $206 $207 $21 $-1 $208 reversed single #
loop $-1 $-1 $209 $88 #
plane-surface $-1 -48.271736808374278 0 0 1 0 0 0 0 -1 forward_v I I I I #
coedge $-1 $210 $151 $211 $212 forward $89 $-1 #
coedge $-1 $213 $91 $210 $214 forward $57 $-1 #
coedge $-1 $91 $213 $215 $216 forward $57 $-1 #
coedge $-1 $154 $153 $91 $147 reversed $155 $-1 #
edge $-1 $217 -21.66873141779887 $218 21.66873141779887 $146 $219 forward 7 unknown #
coedge $-1 $93 $92 $220 $221 forward $36 $-1 #
coedge $-1 $222 $223 $92 $150 reversed $207 $-1 #
edge $-1 $157 -48.271736808374278 $224 48.271736808374278 $149 $225 forward 7 unknown #
coedge $-1 $143 $226 $93 $152 reversed $89 $-1 #
edge $-1 $227 -48.271736808374278 $156 48.271736808374278 $151 $228 forward 7 unknown #
coedge $-1 $146 $94 $226 $229 forward $155 $-1 #
coedge $-1 $94 $146 $222 $230 reversed $155 $-1 #
loop $-1 $-1 $153 $206 #
vertex $-1 $95 $231 #
vertex $-1 $95 $232 #
straight-curve $-1 48.271736808374278 0 4.5720117314138022 0 1 0 I I #
face $-1 $-1 $233 $22 $-1 $234 reversed single #
loop $-1 $-1 $102 $96 #
plane-surface $-1 48.271736808374278 0 0 -1 0 0 0 0 1 forward_v I I I I #
coedge $-1 $167 $235 $236 $237 forward $97 $-1 #
coedge $-1 $236 $99 $101 $169 forward $61 $-1 #
coedge $-1 $99 $236 $238 $239 reversed $61 $-1 #
coedge $-1 $240 $102 $99 $166 forward $160 $-1 #
edge $-1 $172 4.7337834087059836 $241 12.867893142297254 $165 $242 forward 7 unknown #
coedge $-1 $243 $162 $100 $168 forward $97 $-1 #
edge $-1 $244 17.213901200993714 $171 20.563072655107167 $167 $245 forward 7 unknown #
edge $-1 $172 -96.543473616748543 $244 -91.538215348302742 $101 $246 forward 7 unknown #
coedge $-1 $102 $240 $243 $247 reversed $160 $-1 #
vertex $-1 $247 $248 #
vertex $-1 $103 $249 #
straight-curve $-1 48.271736808374278 13.5346216842076 68.599177856111012 0 0 -1 I I #
coedge $-1 $174 $174 $-1 $250 reversed $106 $-1 #
edge $-1 $251 0 $251 6.2831853071796004 $107 $252 forward 7 unknown #
vertex $-1 $110 $253 #
ellipse-curve $-1 46.597151081317541 15.85865303666225 2.7121958195023321 0.74314483375859142 0 0.66913059716165679 0.3345652985808284 0 -0.37157241687929571 1 I I #
coedge $-1 $178 $178 $-1 $254 reversed $113 $-1 #
edge $-1 $255 0 $255 6.2831853071796004 $114 $256 forward 7 unknown #
vertex $-1 $117 $257 #
ellipse-curve $-1 46.597151081317541 19.344700065344224 2.7121958195023321 0.74314483375859142 0 0.66913059716165679 0.3345652985808284 0 -0.37157241687929571 1 I I #
face $-1 $-1 $194 $25 $-1 $258 forward single #
loop $-1 $-1 $259 $118 #
plane-surface $-1 -48.271736808374278 0 0 1 0 0 0 0 -1 forward_v I I I I #
coedge $-1 $260 $261 $262 $263 reversed $119 $-1 #
coedge $-1 $264 $121 $123 $192 forward $75 $-1 #
coedge $-1 $121 $264 $260 $265 forward $75 $-1 #
coedge $-1 $262 $124 $121 $189 forward $194 $-1 #
edge $-1 $196 -3.5871280296643615 $266 3.8408110321688813 $188 $267 forward 7 unknown #
coedge $-1 $268 $269 $122 $191 forward $183 $-1 #
edge $-1 $270 -35.82930537537451 $195 -31.344465045553115 $190 $271 forward 7 unknown #
edge $-1 $196 -6.7024886221950988 $270 2.8683695426182269e-014 $123 $272 forward 7 unknown #
coedge $-1 $124 $262 $268 $273 forward $194 $-1 #
loop $-1 $-1 $262 $182 #
vertex $-1 $191 $274 #
vertex $-1 $125 $275 #
straight-curve $-1 -56.435965313239095 -3.4602865284121016 4.5720117314138022 1 0 0 I I #
coedge $-1 $198 $198 $-1 $276 reversed $128 $-1 #
edge $-1 $277 0 $277 6.2831853071796004 $129 $278 forward 7 unknown #
vertex $-1 $132 $279 #
ellipse-curve $-1 -45.781276963954845 -1.3380182250311741 2.3295915665031068 -0.66913061440640931 0 0.74314481823134659 0.3715724091156733 0 0.33456530720320465 1 I I #
coedge $-1 $202 $202 $-1 $280 reversed $135 $-1 #
edge $-1 $281 0 $281 6.2831853071796004 $136 $282 forward 7 unknown #
vertex $-1 $139 $283 #
ellipse-curve $-1 -45.781276963954845 1.8453842300402172 2.3295915665031068 -0.66913061440640931 0 0.74314481823134659 0.3715724091156733 0 0.33456530720320465 1 I I #
face $-1 $-1 $155 $21 $-1 $284 reversed single #
loop $-1 $-1 $222 $140 #
plane-surface $-1 0 21.66873141779887 0 0 -1 0 0 0 -1 forward_v I I I I #
coedge $-1 $285 $220 $223 $286 forward $141 $-1 #
coedge $-1 $226 $143 $144 $214 reversed $89 $-1 #
coedge $-1 $220 $285 $143 $212 reversed $141 $-1 #
edge $-1 $227 -4.5720117314138022 $287 4.5720117314138022 $211 $288 forward 7 unknown #
coedge $-1 $145 $144 $285 $289 forward $57 $-1 #
edge $-1 $218 -48.271736808374278 $287 48.271736808374278 $210 $290 forward 7 unknown #
coedge $-1 $223 $222 $145 $216 reversed $207 $-1 #
edge $-1 $291 -48.271736808374278 $217 48.271736808374278 $215 $292 forward 7 unknown #
vertex $-1 $147 $293 #
vertex $-1 $229 $294 #
straight-curve $-1 48.271736808374278 0 -4.5720117314138022 0 -1 0 I I #
coedge $-1 $209 $211 $148 $221 reversed $141 $-1 #
edge $-1 $224 -21.66873141779887 $227 21.66873141779887 $220 $295 forward 7 unknown #
coedge $-1 $215 $149 $154 $230 forward $207 $-1 #
coedge $-1 $149 $215 $209 $286 reversed $207 $-1 #
vertex $-1 $150 $296 #
straight-curve $-1 0 21.66873141779887 4.5720117314138022 -1 0 0 I I #
coedge $-1 $151 $210 $153 $229 reversed $89 $-1 #
vertex $-1 $221 $297 #
straight-curve $-1 0 -21.66873141779887 4.5720117314138022 1 0 0 I I #
edge $-1 $156 -4.5720117314138022 $218 4.5720117314138022 $153 $298 forward 7 unknown #
edge $-1 $157 -4.5720117314138022 $217 4.5720117314138022 $154 $299 forward 7 unknown #
point $-1 48.271736808374278 -21.66873141779887 4.5720117314138022 #
point $-1 48.271736808374278 21.66873141779887 4.5720117314138022 #
loop $-1 $-1 $238 $159 #
plane-surface $-1 0 21.66873141779887 0 0 -1 0 0 0 -1 forward_v I I I I #
coedge $-1 $162 $243 $300 $301 forward $97 $-1 #
coedge $-1 $164 $163 $162 $237 reversed $61 $-1 #
edge $-1 $302 -12.86789314229725 $244 -4.7337834087059836 $162 $303 forward 7 unknown #
coedge $-1 $300 $304 $164 $239 forward $233 $-1 #
edge $-1 $241 -64.105063984320282 $302 -59.099805715874496 $238 $305 forward 7 unknown #
coedge $-1 $170 $165 $304 $306 reversed $160 $-1 #
vertex $-1 $166 $307 #
straight-curve $-1 48.271736808374285 8.8008382755016168 0.85237990759084425 0 1 0 I I #
coedge $-1 $235 $167 $170 $247 forward $97 $-1 #
vertex $-1 $168 $308 #
straight-curve $-1 27.708664153267112 13.5346216842076 4.5720117314138093 1 0 0 I I #
straight-curve $-1 -16.328455344861332 13.5346216842076 72.5981635589864 -0.66913059716165679 0 0.74314483375859142 I I #
edge $-1 $171 13.5346216842076 $309 21.66873141779887 $170 $310 forward 7 unknown #
point $-1 48.271736808374278 13.5346216842076 4.5720117314138022 #
point $-1 48.271736808374278 13.5346216842076 0.85237990759084425 #
edge $-1 $311 1 $311 0 $174 $-1 forward 7 unknown #
vertex $-1 $175 $312 #
ellipse-curve $-1 45.854006247558942 15.85865303666225 2.0430652223406658 0.74314483375859142 0 0.66913059716165679 0.3345652985808284 0 -0.37157241687929571 1 I I #
point $-1 46.931716379898369 15.85865303666225 2.3406234026230273 #
edge $-1 $313 1 $313 0 $178 $-1 forward 7 unknown #
vertex $-1 $179 $314 #
ellipse-curve $-1 45.854006247558942 19.344700065344224 2.0430652223406658 0.74314483375859142 0 0.66913059716165679 0.3345652985808284 0 -0.37157241687929571 1 I I #
point $-1 46.931716379898369 19.344700065344224 2.3406234026230273 #
plane-surface $-1 0 0 4.5720117314138022 0 0 1 1 0 0 forward_v I I I I #
coedge $-1 $269 $268 $261 $315 forward $183 $-1 #
coedge $-1 $261 $185 $187 $265 reversed $119 $-1 #
coedge $-1 $185 $260 $259 $315 reversed $119 $-1 #
coedge $-1 $193 $188 $185 $263 forward $194 $-1 #
edge $-1 $266 -13.145148193703683 $316 -8.1642285048648162 $262 $317 forward 7 unknown #
coedge $-1 $187 $186 $269 $318 reversed $75 $-1 #
edge $-1 $319 -2.8683695426182269e-014 $266 6.7024886221950988 $260 $320 forward 7 unknown #
vertex $-1 $189 $321 #
straight-curve $-1 -43.290817119535411 0.1268415012522599 4.5720117314138005 0 1 0 I I #
coedge $-1 $259 $190 $193 $273 reversed $183 $-1 #
coedge $-1 $190 $259 $264 $318 forward $183 $-1 #
vertex $-1 $191 $322 #
straight-curve $-1 -48.271736808374278 -3.4602865284121016 35.916476776966917 0 0 1 I I #
straight-curve $-1 -48.271736808374257 -3.4602865284121016 0.08717140159242831 -0.74314481823134659 0 -0.66913061440640931 I I #
edge $-1 $316 -3.9676525334211412 $195 3.4602865284121016 $268 $323 forward 7 unknown #
point $-1 -48.271736808374278 -3.4602865284121016 4.5720117314138022 #
point $-1 -43.290817119535411 -3.4602865284121016 4.5720117314138022 #
edge $-1 $324 1 $324 0 $198 $-1 forward 7 unknown #
vertex $-1 $199 $325 #
ellipse-curve $-1 -44.620064669341183 -1.3380182250311741 1.0399346878170155 -0.66913061440640931 0 0.74314481823134659 0.3715724091156733 0 0.33456530720320465 1 I I #
point $-1 -45.409704554839173 -1.3380182250311741 2.6641568737063155 #
edge $-1 $326 1 $326 0 $202 $-1 forward 7 unknown #
vertex $-1 $203 $327 #
ellipse-curve $-1 -44.620064669341183 1.8453842300402172 1.0399346878170155 -0.66913061440640931 0 0.74314481823134659 0.3715724091156733 0 0.33456530720320465 1 I I #
point $-1 -45.409704554839173 1.8453842300402172 2.6641568737063155 #
plane-surface $-1 48.271736808374278 0 0 -1 0 0 0 0 1 forward_v I I I I #
coedge $-1 $211 $209 $213 $289 reversed $141 $-1 #
edge $-1 $224 -4.5720117314138022 $291 4.5720117314138022 $223 $328 forward 7 unknown #
vertex $-1 $289 $329 #
straight-curve $-1 -48.271736808374278 -21.66873141779887 0 0 0 -1 I I #
edge $-1 $287 -21.66873141779887 $291 21.66873141779887 $285 $330 forward 7 unknown #
straight-curve $-1 0 -21.66873141779887 -4.5720117314138022 -1 0 0 I I #
vertex $-1 $216 $331 #
straight-curve $-1 0 21.66873141779887 -4.5720117314138022 1 0 0 I I #
point $-1 48.271736808374278 21.66873141779887 -4.5720117314138022 #
point $-1 48.271736808374278 -21.66873141779887 -4.5720117314138022 #
straight-curve $-1 -48.271736808374278 0 4.5720117314138022 0 -1 0 I I #
point $-1 -48.271736808374278 21.66873141779887 4.5720117314138022 #
point $-1 -48.271736808374278 -21.66873141779887 4.5720117314138022 #
straight-curve $-1 48.271736808374278 -21.66873141779887 0 0 0 -1 I I #
straight-curve $-1 48.271736808374278 21.66873141779887 0 0 0 -1 I I #
coedge $-1 $304 $238 $235 $301 reversed $233 $-1 #
edge $-1 $309 -48.271736808374278 $302 -44.922565354260826 $300 $332 forward 7 unknown #
vertex $-1 $239 $333 #
straight-curve $-1 44.922565354260826 8.8008382755016168 4.5720117314138022 0 -1 0 I I #
coedge $-1 $238 $300 $240 $306 forward $233 $-1 #
straight-curve $-1 5.3770770634598186 21.66873141779887 48.491727025302417 -0.66913059716165679 0 0.74314483375859142 I I #
edge $-1 $309 -4.5720117314138022 $241 -0.85237990759085358 $240 $334 forward 7 unknown #
point $-1 48.271736808374278 21.66873141779887 0.85237990759085358 #
point $-1 44.922565354260826 13.5346216842076 4.5720117314138093 #
vertex $-1 $247 $335 #
straight-curve $-1 48.271736808374278 0 4.5720117314138022 0 1 0 I I #
vertex $-1 $250 $336 #
point $-1 46.188571546139777 15.85865303666225 1.6714928054613702 #
vertex $-1 $254 $337 #
point $-1 46.188571546139777 19.344700065344224 1.6714928054613702 #
edge $-1 $316 31.344465045553115 $319 35.82930537537451 $259 $338 forward 7 unknown #
vertex $-1 $273 $339 #
straight-curve $-1 -56.435965313239095 3.9676525334211412 4.5720117314138022 -1 0 0 I I #
edge $-1 $319 -3.8408110321688813 $270 3.5871280296643615 $269 $340 forward 7 unknown #
vertex $-1 $318 $341 #
straight-curve $-1 -48.271736808374257 3.9676525334211412 0.08717140159242831 0.74314481823134659 0 0.66913061440640931 I I #
point $-1 -43.290817119535411 3.9676525334211412 4.5720117314138022 #
point $-1 -48.271736808374278 -3.4602865284121016 0.087171401592409117 #
straight-curve $-1 -48.271736808374278 0 4.5720117314138022 0 -1 0 I I #
vertex $-1 $276 $342 #
point $-1 -44.248492260225511 -1.3380182250311741 1.3744999950202201 #
vertex $-1 $280 $343 #
point $-1 -44.248492260225511 1.8453842300402172 1.3744999950202201 #
straight-curve $-1 -48.271736808374278 21.66873141779887 0 0 0 -1 I I #
point $-1 -48.271736808374278 -21.66873141779887 -4.5720117314138022 #
straight-curve $-1 -48.271736808374278 0 -4.5720117314138022 0 1 0 I I #
point $-1 -48.271736808374278 21.66873141779887 -4.5720117314138022 #
straight-curve $-1 0 21.66873141779887 4.5720117314138022 -1 0 0 I I #
point $-1 44.922565354260826 21.668731417798867 4.5720117314138093 #
straight-curve $-1 48.271736808374278 21.66873141779887 0 0 0 -1 I I #
point $-1 48.271736808374278 21.66873141779887 4.5720117314138022 #
point $-1 45.482433830679653 15.85865303666225 1.7084999237598375 #
point $-1 45.482433830679653 19.344700065344224 1.7084999237598375 #
straight-curve $-1 -48.271736808374278 3.9676525334211412 35.916476776966917 0 0 -1 I I #
point $-1 -48.271736808374278 3.9676525334211412 4.5720117314138022 #
straight-curve $-1 -48.271736808374278 0.1268415012522599 0.08717140159241038 0 -1 0 I I #
point $-1 -48.271736808374278 3.9676525334211412 0.087171401592409117 #
point $-1 -44.285499362137976 -1.3380182250311741 0.66836227870134213 #
point $-1 -44.285499362137976 1.8453842300402172 0.66836227870134213 #
End-of-ACIS-data 