500 0 7 0           
7 Unknown 11 ACIS 5.0 NT 24 Fri Mar 26 02:14:58 1999 
-1 9.9999999999999995e-007 1e-010 
body $-1 $7 $-1 $8 #
body $-1 $9 $-1 $10 #
body $-1 $11 $-1 $12 #
body $-1 $13 $-1 $14 #
body $-1 $15 $-1 $16 #
body $-1 $17 $-1 $18 #
body $-1 $19 $-1 $20 #
lump $-1 $-1 $21 $0 #
transform $-1 1 0 0 0 1 0 0 0 1 50.914639728995638 29.837125614310743 10.039377340705553 1 rotate no_reflect no_shear #
lump $-1 $-1 $22 $1 #
transform $-1 1 0 0 0 1 0 0 0 1 50.914639728995638 29.837125614310743 10.039377340705553 1 rotate no_reflect no_shear #
lump $-1 $-1 $23 $2 #
transform $-1 1 0 0 0 1 0 0 0 1 50.914639728995638 29.837125614310743 10.039377340705553 1 rotate no_reflect no_shear #
lump $-1 $-1 $24 $3 #
transform $-1 1 0 0 0 1 0 0 0 1 50.914639728995638 29.837125614310743 10.039377340705553 1 rotate no_reflect no_shear #
lump $-1 $-1 $25 $4 #
transform $-1 1 0 0 0 1 0 0 0 1 50.914639728995638 29.837125614310743 10.039377340705553 1 rotate no_reflect no_shear #
lump $-1 $-1 $26 $5 #
transform $-1 1 0 0 0 1 0 0 0 1 50.914639728995638 29.837125614310743 10.039377340705553 1 rotate no_reflect no_shear #
lump $-1 $-1 $27 $6 #
transform $-1 1 0 0 0 1 0 0 0 1 50.914639728995638 29.837125614310743 10.039377340705553 1 rotate no_reflect no_shear #
shell $-1 $-1 $-1 $28 $-1 $7 #
shell $-1 $-1 $-1 $29 $-1 $9 #
shell $-1 $-1 $-1 $30 $-1 $11 #
shell $-1 $-1 $-1 $31 $-1 $13 #
shell $-1 $-1 $-1 $32 $-1 $15 #
shell $-1 $-1 $-1 $33 $-1 $17 #
shell $-1 $-1 $-1 $34 $-1 $19 #
face $-1 $35 $36 $21 $-1 $37 forward single #
face $-1 $38 $39 $22 $-1 $40 forward single #
face $-1 $41 $42 $23 $-1 $43 reversed single #
face $-1 $44 $45 $24 $-1 $46 forward single #
face $-1 $47 $48 $25 $-1 $49 reversed single #
face $-1 $50 $51 $26 $-1 $52 forward single #
face $-1 $53 $54 $27 $-1 $55 forward single #
face $-1 $56 $57 $21 $-1 $58 reversed single #
loop $-1 $-1 $59 $28 #
plane-surface $-1 0 0 10.039377340705553 0 0 1 1 0 0 forward_v I I I I #
face $-1 $60 $61 $22 $-1 $62 reversed single #
loop $-1 $-1 $63 $29 #
plane-surface $-1 -50.914639728995638 0 0 1 0 0 0 0 -1 forward_v I I I I #
face $-1 $64 $65 $23 $-1 $66 reversed single #
loop $-1 $-1 $67 $30 #
plane-surface $-1 19.871120543312554 -117.12185501757833 56.336119987960316 -1 0 0 0 -0.85716730853699208 0.51503806187062418 forward_v I I I I #
face $-1 $68 $69 $24 $-1 $70 forward single #
loop $-1 $71 $72 $31 #
cone-surface $-1 14.109797448130195 -26.669611102582724 6.1715722864306688 0 0.85716730853699208 -0.51503806187062418 1.5 0 0 1 I I 0 1 1.5 forward I I I I #
face $-1 $73 $74 $25 $-1 $75 reversed single #
loop $-1 $-1 $76 $32 #
plane-surface $-1 21.701028743251015 86.387344321208417 109.94460742120404 1 0 0 0 -0.85716730853699208 -0.51503806187062418 forward_v I I I I #
face $-1 $77 $78 $26 $-1 $79 forward single #
loop $-1 $80 $81 $33 #
cone-surface $-1 26.764265596615019 27.946926663845662 7.7242453666040429 0 -0.85716730853699208 -0.51503806187062418 1 0 0 1 I I 0 1 1 forward I I I I #
face $-1 $82 $83 $27 $-1 $84 forward single #
loop $-1 $85 $86 $34 #
cone-surface $-1 34.359120876661038 27.946926663845662 7.7242453666040429 0 -0.85716730853699208 -0.51503806187062418 1 0 0 1 I I 0 1 1 forward I I I I #
face $-1 $87 $88 $21 $-1 $89 reversed single #
loop $-1 $-1 $90 $35 #
plane-surface $-1 0 0 -10.039377340705553 0 0 1 1 0 0 forward_v I I I I #
coedge $-1 $91 $92 $93 $94 forward $36 $-1 #
face $-1 $95 $96 $22 $-1 $97 forward single #
loop $-1 $-1 $98 $38 #
plane-surface $-1 0 29.837125614310743 0 0 -1 0 0 0 -1 forward_v I I I I #
coedge $-1 $99 $100 $101 $102 forward $39 $-1 #
face $-1 $103 $104 $23 $-1 $105 reversed single #
loop $-1 $-1 $106 $41 #
plane-surface $-1 14.109797448130195 -29.837125614310722 3.8901652542343257 0 -0.85716730853699208 0.51503806187062418 1 0 0 forward_v I I I I #
coedge $-1 $107 $108 $109 $110 reversed $42 $-1 #
face $-1 $-1 $111 $24 $-1 $112 forward single #
loop $-1 $113 $114 $44 #
cone-surface $-1 14.109797448130195 -24.706630736198637 4.9920947289884321 0 0.85716730853699208 -0.51503806187062418 0.75 0 0 1 I I -0.70710678118654757 0.70710678118654757 0.75 forward I I I I #
loop $-1 $-1 $115 $31 #
coedge $-1 $72 $72 $116 $117 reversed $45 $-1 #
face $-1 $118 $119 $25 $-1 $120 reversed single #
loop $-1 $-1 $121 $47 #
plane-surface $-1 30.561693236638035 -0.89738508205918777 57.498652687478049 0 0.85716730853699208 0.51503806187062418 1 0 0 forward_v I I I I #
coedge $-1 $122 $123 $124 $125 reversed $48 $-1 #
face $-1 $-1 $126 $26 $-1 $127 forward single #
loop $-1 $128 $129 $50 #
cone-surface $-1 26.764265596615019 26.737195116873437 6.9973653454798601 0 -0.85716730853699208 -0.51503806187062418 0.5 0 0 1 I I -0.70710678118654746 0.70710678118654746 0.5 forward I I I I #
loop $-1 $-1 $130 $33 #
coedge $-1 $81 $81 $131 $132 reversed $51 $-1 #
face $-1 $-1 $133 $27 $-1 $134 forward single #
loop $-1 $135 $136 $53 #
cone-surface $-1 34.359120876661038 26.737195116873437 6.9973653454798601 0 -0.85716730853699208 -0.51503806187062418 0.5 0 0 1 I I -0.70710678118654746 0.70710678118654746 0.5 forward I I I I #
loop $-1 $-1 $137 $34 #
coedge $-1 $86 $86 $138 $139 reversed $54 $-1 #
face $-1 $140 $141 $21 $-1 $142 reversed single #
loop $-1 $-1 $143 $56 #
plane-surface $-1 0 -29.837125614310743 0 0 1 0 0 0 1 forward_v I I I I #
coedge $-1 $144 $145 $146 $147 forward $57 $-1 #
coedge $-1 $148 $59 $149 $150 forward $36 $-1 #
coedge $-1 $59 $148 $151 $152 forward $36 $-1 #
coedge $-1 $153 $154 $59 $94 reversed $155 $-1 #
edge $-1 $156 -29.837125614310743 $157 29.837125614310743 $93 $158 forward 7 unknown #
face $-1 $159 $160 $22 $-1 $161 reversed single #
loop $-1 $-1 $101 $60 #
plane-surface $-1 -57.086958727102186 0 7.3273788168217147 0 0 1 1 0 0 forward_v I I I I #
coedge $-1 $162 $163 $100 $164 forward $61 $-1 #
coedge $-1 $165 $63 $166 $167 reversed $39 $-1 #
coedge $-1 $63 $165 $98 $164 reversed $39 $-1 #
coedge $-1 $168 $169 $63 $102 reversed $96 $-1 #
edge $-1 $170 -29.837125614310743 $171 29.837125614310743 $101 $172 forward 7 unknown #
face $-1 $173 $174 $23 $-1 $175 reversed single #
loop $-1 $-1 $176 $64 #
plane-surface $-1 8.3484743529478358 -117.12185501757833 56.336119987960316 1 0 0 0 0.85716730853699208 -0.51503806187062418 forward_v I I I I #
coedge $-1 $177 $178 $179 $180 reversed $65 $-1 #
coedge $-1 $108 $67 $181 $182 reversed $42 $-1 #
coedge $-1 $67 $107 $177 $183 reversed $42 $-1 #
coedge $-1 $179 $184 $67 $110 forward $185 $-1 #
edge $-1 $186 28.72380189447842 $187 32.418621147971798 $109 $188 forward 7 unknown #
loop $-1 $-1 $116 $68 #
plane-surface $-1 14.109797448130195 -29.837125614310722 3.8901652542343257 0 -0.85716730853699208 0.51503806187062418 1 0 0 forward_v I I I I #
loop $-1 $-1 $189 $44 #
coedge $-1 $114 $114 $115 $190 reversed $69 $-1 #
coedge $-1 $115 $115 $114 $190 forward $71 $-1 #
coedge $-1 $116 $116 $72 $117 forward $111 $-1 #
edge $-1 $191 7.035743270815246e-016 $191 6.2831853071796013 $116 $192 forward 7 unknown #
face $-1 $193 $194 $25 $-1 $195 forward single #
loop $-1 $-1 $196 $73 #
plane-surface $-1 39.422357730025055 86.387344321208417 109.94460742120404 -1 0 0 0 0.85716730853699208 0.51503806187062418 forward_v I I I I #
coedge $-1 $197 $198 $199 $200 reversed $74 $-1 #
coedge $-1 $123 $76 $201 $202 reversed $48 $-1 #
coedge $-1 $76 $122 $197 $203 reversed $48 $-1 #
coedge $-1 $199 $204 $76 $125 forward $194 $-1 #
edge $-1 $205 13.356546546293465 $206 15.574648661816166 $124 $207 forward 7 unknown #
loop $-1 $-1 $131 $77 #
plane-surface $-1 30.561693236638035 -0.89738508205918777 57.498652687478049 0 0.85716730853699208 0.51503806187062418 1 0 0 forward_v I I I I #
loop $-1 $-1 $208 $50 #
coedge $-1 $129 $129 $130 $209 reversed $78 $-1 #
coedge $-1 $130 $130 $129 $209 forward $80 $-1 #
coedge $-1 $131 $131 $81 $132 forward $126 $-1 #
edge $-1 $210 2.1369305239913397e-015 $210 6.2831853071796022 $131 $211 forward 7 unknown #
loop $-1 $-1 $138 $82 #
plane-surface $-1 30.561693236638035 -0.89738508205918777 57.498652687478049 0 0.85716730853699208 0.51503806187062418 1 0 0 forward_v I I I I #
loop $-1 $-1 $212 $53 #
coedge $-1 $136 $136 $137 $213 reversed $83 $-1 #
coedge $-1 $137 $137 $136 $213 forward $85 $-1 #
coedge $-1 $138 $138 $86 $139 forward $133 $-1 #
edge $-1 $214 2.1369305239913397e-015 $214 6.2831853071796022 $138 $215 forward 7 unknown #
face $-1 $216 $217 $21 $-1 $218 reversed single #
loop $-1 $-1 $219 $87 #
plane-surface $-1 -50.914639728995638 0 0 1 0 0 0 0 -1 forward_v I I I I #
coedge $-1 $220 $151 $219 $221 forward $88 $-1 #
coedge $-1 $222 $90 $220 $223 forward $57 $-1 #
coedge $-1 $90 $222 $224 $225 forward $57 $-1 #
coedge $-1 $154 $153 $90 $147 reversed $155 $-1 #
edge $-1 $226 -29.837125614310743 $227 29.837125614310743 $146 $228 forward 7 unknown #
coedge $-1 $92 $91 $229 $230 forward $36 $-1 #
coedge $-1 $231 $232 $91 $150 reversed $217 $-1 #
edge $-1 $157 -50.914639728995638 $233 50.914639728995638 $149 $234 forward 7 unknown #
coedge $-1 $143 $235 $92 $152 reversed $88 $-1 #
edge $-1 $236 -50.914639728995638 $156 50.914639728995638 $151 $237 forward 7 unknown #
coedge $-1 $146 $93 $235 $238 forward $155 $-1 #
coedge $-1 $93 $146 $231 $239 reversed $155 $-1 #
loop $-1 $-1 $153 $216 #
vertex $-1 $94 $240 #
vertex $-1 $94 $241 #
straight-curve $-1 50.914639728995638 0 10.039377340705553 0 1 0 I I #
face $-1 $242 $243 $22 $-1 $244 reversed single #
loop $-1 $-1 $245 $95 #
plane-surface $-1 -57.086958727102186 0 2.7247745415585873 0 0 1 1 0 0 forward_v I I I I #
coedge $-1 $246 $98 $247 $248 reversed $61 $-1 #
coedge $-1 $98 $246 $168 $249 reversed $61 $-1 #
edge $-1 $170 -7.3273788168217147 $250 -2.7247745415585873 $98 $251 forward 7 unknown #
coedge $-1 $100 $99 $245 $252 forward $39 $-1 #
coedge $-1 $253 $254 $99 $167 forward $255 $-1 #
edge $-1 $256 2.7247745415585873 $171 7.3273788168217147 $166 $257 forward 7 unknown #
coedge $-1 $258 $101 $163 $249 forward $96 $-1 #
coedge $-1 $101 $258 $253 $259 forward $96 $-1 #
vertex $-1 $164 $260 #
vertex $-1 $259 $261 #
straight-curve $-1 -50.914639728995638 0 7.3273788168217147 0 -1 0 I I #
face $-1 $-1 $185 $23 $-1 $262 forward single #
loop $-1 $-1 $263 $103 #
plane-surface $-1 0 -29.837125614310743 0 0 1 0 0 0 1 forward_v I I I I #
coedge $-1 $264 $265 $266 $267 reversed $104 $-1 #
coedge $-1 $268 $106 $108 $183 forward $65 $-1 #
coedge $-1 $106 $268 $264 $269 forward $65 $-1 #
coedge $-1 $266 $109 $106 $180 forward $185 $-1 #
edge $-1 $187 -12.816221819247456 $270 -1.2935756288827385 $179 $271 forward 7 unknown #
coedge $-1 $272 $273 $107 $182 forward $174 $-1 #
edge $-1 $274 -24.277894739745868 $186 -18.128682653274605 $181 $275 forward 7 unknown #
edge $-1 $187 -7.1738761210651694 $274 4.1431396825663817e-014 $108 $276 forward 7 unknown #
coedge $-1 $109 $266 $272 $277 forward $185 $-1 #
loop $-1 $-1 $266 $173 #
vertex $-1 $182 $278 #
vertex $-1 $110 $279 #
straight-curve $-1 19.871120543312554 -58.560927508789163 10.039377340705553 0 1 0 I I #
coedge $-1 $189 $189 $-1 $280 reversed $113 $-1 #
edge $-1 $281 0 $281 6.2831853071796004 $114 $282 forward 7 unknown #
vertex $-1 $117 $283 #
ellipse-curve $-1 14.109797448130195 -27.98971598756405 6.9647712974699276 0 -0.85716730853699208 0.51503806187062418 1.5 0 0 1 I I #
face $-1 $-1 $284 $25 $-1 $285 reversed single #
loop $-1 $-1 $124 $118 #
plane-surface $-1 0 0 10.039377340705553 0 0 1 1 0 0 forward_v I I I I #
coedge $-1 $286 $287 $288 $289 reversed $119 $-1 #
coedge $-1 $290 $121 $123 $203 forward $74 $-1 #
coedge $-1 $121 $290 $286 $291 forward $74 $-1 #
coedge $-1 $288 $124 $121 $200 forward $194 $-1 #
edge $-1 $206 6.4201821249319977 $292 24.141511111706038 $199 $293 forward 7 unknown #
coedge $-1 $294 $295 $122 $202 forward $284 $-1 #
edge $-1 $296 -48.624468337721751 $205 -44.932926369896464 $201 $297 forward 7 unknown #
edge $-1 $206 55.367575121099414 $296 59.6742512286215 $123 $298 forward 7 unknown #
coedge $-1 $124 $288 $294 $299 forward $194 $-1 #
vertex $-1 $125 $300 #
vertex $-1 $125 $301 #
straight-curve $-1 21.701028743251015 43.193672160604208 10.039377340705556 0 -1 0 I I #
coedge $-1 $208 $208 $-1 $302 reversed $128 $-1 #
edge $-1 $303 0 $303 6.2831853071796004 $129 $304 forward 7 unknown #
vertex $-1 $132 $305 #
ellipse-curve $-1 26.764265596615019 28.728074556549387 8.1936063567929107 0 0.85716730853699208 0.51503806187062418 1 0 0 1 I I #
coedge $-1 $212 $212 $-1 $306 reversed $135 $-1 #
edge $-1 $307 0 $307 6.2831853071796004 $136 $308 forward 7 unknown #
vertex $-1 $139 $309 #
ellipse-curve $-1 34.359120876661038 28.728074556549387 8.1936063567929107 0 0.85716730853699208 0.51503806187062418 1 0 0 1 I I #
face $-1 $-1 $155 $21 $-1 $310 reversed single #
loop $-1 $-1 $231 $140 #
plane-surface $-1 0 29.837125614310743 0 0 -1 0 0 0 -1 forward_v I I I I #
coedge $-1 $229 $311 $143 $221 reversed $141 $-1 #
coedge $-1 $235 $143 $144 $223 reversed $88 $-1 #
edge $-1 $236 -10.039377340705553 $312 10.039377340705553 $219 $313 forward 7 unknown #
coedge $-1 $145 $144 $311 $314 forward $57 $-1 #
edge $-1 $227 -50.914639728995638 $312 50.914639728995638 $220 $315 forward 7 unknown #
coedge $-1 $232 $231 $145 $225 reversed $217 $-1 #
edge $-1 $316 -50.914639728995638 $226 50.914639728995638 $224 $317 forward 7 unknown #
vertex $-1 $147 $318 #
vertex $-1 $238 $319 #
straight-curve $-1 50.914639728995638 0 -10.039377340705553 0 -1 0 I I #
coedge $-1 $320 $219 $148 $230 reversed $141 $-1 #
edge $-1 $233 -29.837125614310743 $236 29.837125614310743 $229 $321 forward 7 unknown #
coedge $-1 $224 $149 $154 $239 forward $217 $-1 #
coedge $-1 $149 $224 $320 $322 reversed $217 $-1 #
vertex $-1 $150 $323 #
straight-curve $-1 0 29.837125614310743 10.039377340705553 -1 0 0 I I #
coedge $-1 $151 $220 $153 $238 reversed $88 $-1 #
vertex $-1 $230 $324 #
straight-curve $-1 0 -29.837125614310743 10.039377340705553 1 0 0 I I #
edge $-1 $156 -10.039377340705553 $227 10.039377340705553 $153 $325 forward 7 unknown #
edge $-1 $157 -10.039377340705553 $226 10.039377340705553 $154 $326 forward 7 unknown #
point $-1 50.914639728995638 -29.837125614310743 10.039377340705553 #
point $-1 50.914639728995638 29.837125614310743 10.039377340705553 #
face $-1 $-1 $255 $22 $-1 $327 reversed single #
loop $-1 $-1 $328 $159 #
plane-surface $-1 -63.259277725208733 0 5.026076679190151 1 0 0 0 0 -1 forward_v I I I I #
coedge $-1 $329 $247 $165 $252 reversed $160 $-1 #
coedge $-1 $163 $162 $328 $330 reversed $61 $-1 #
coedge $-1 $245 $331 $162 $248 forward $160 $-1 #
edge $-1 $332 -6.1723189981065474 $250 6.1723189981065474 $162 $333 forward 7 unknown #
edge $-1 $170 -6.1723189981065474 $334 6.1723189981065474 $163 $335 forward 7 unknown #
vertex $-1 $164 $336 #
straight-curve $-1 -50.914639728995638 29.837125614310743 0 0 0 -1 I I #
edge $-1 $256 -29.837125614310743 $250 29.837125614310743 $245 $337 forward 7 unknown #
coedge $-1 $338 $166 $169 $259 reversed $255 $-1 #
coedge $-1 $166 $338 $329 $339 reversed $255 $-1 #
loop $-1 $-1 $166 $242 #
vertex $-1 $167 $340 #
straight-curve $-1 -50.914639728995638 -29.837125614310743 0 0 0 1 I I #
coedge $-1 $169 $168 $341 $342 forward $96 $-1 #
edge $-1 $343 -6.1723189981065474 $171 6.1723189981065474 $253 $344 forward 7 unknown #
point $-1 -50.914639728995638 29.837125614310743 7.3273788168217147 #
point $-1 -50.914639728995638 -29.837125614310743 7.3273788168217147 #
plane-surface $-1 0 0 10.039377340705553 0 0 1 1 0 0 forward_v I I I I #
coedge $-1 $273 $272 $265 $345 forward $174 $-1 #
coedge $-1 $265 $176 $178 $269 reversed $104 $-1 #
coedge $-1 $176 $264 $263 $345 reversed $104 $-1 #
coedge $-1 $184 $179 $176 $267 forward $185 $-1 #
edge $-1 $270 -32.418621147971798 $346 -28.72380189447842 $266 $347 forward 7 unknown #
coedge $-1 $178 $177 $273 $348 reversed $65 $-1 #
edge $-1 $349 -4.1431396825663817e-014 $270 7.1738761210651694 $264 $350 forward 7 unknown #
vertex $-1 $180 $351 #
straight-curve $-1 7.0548987240650973 -26.142306360817365 10.039377340705553 -1 0 0 I I #
coedge $-1 $263 $181 $184 $277 reversed $174 $-1 #
coedge $-1 $181 $263 $268 $348 forward $174 $-1 #
vertex $-1 $182 $352 #
straight-curve $-1 19.871120543312554 -29.837125614310743 28.168059993980158 0 0 1 I I #
straight-curve $-1 19.871120543312554 -29.837125614310722 3.8901652542343257 0 -0.51503806187062418 -0.85716730853699208 I I #
edge $-1 $346 8.3484743529478358 $186 19.871120543312554 $272 $353 forward 7 unknown #
point $-1 19.871120543312554 -29.837125614310743 10.039377340705553 #
point $-1 19.871120543312554 -26.142306360817365 10.039377340705553 #
edge $-1 $354 1 $354 0 $189 $-1 forward 7 unknown #
vertex $-1 $190 $355 #
ellipse-curve $-1 14.109797448130195 -25.34950621760138 5.3783732753914002 0 -0.85716730853699208 0.51503806187062418 1.5 0 0 1 I I #
point $-1 15.609797448130195 -27.989715987564065 6.9647712974699374 #
loop $-1 $-1 $201 $193 #
plane-surface $-1 0 29.837125614310743 0 0 -1 0 0 0 -1 forward_v I I I I #
coedge $-1 $287 $196 $198 $291 reversed $119 $-1 #
coedge $-1 $196 $286 $356 $357 reversed $119 $-1 #
coedge $-1 $204 $199 $196 $289 forward $194 $-1 #
edge $-1 $292 -15.574648661816166 $358 -13.356546546293465 $288 $359 forward 7 unknown #
coedge $-1 $198 $197 $295 $360 reversed $74 $-1 #
edge $-1 $361 -59.6742512286215 $292 -55.367575121099414 $286 $362 forward 7 unknown #
vertex $-1 $200 $363 #
straight-curve $-1 15.280846618319018 27.619023498788035 10.039377340705549 1 0 0 I I #
coedge $-1 $356 $201 $204 $299 reversed $284 $-1 #
coedge $-1 $201 $356 $290 $360 forward $284 $-1 #
vertex $-1 $202 $364 #
straight-curve $-1 21.701028743251015 29.837125614310743 54.97230371060202 0 0 1 I I #
straight-curve $-1 21.701028743251015 -0.89738508205918777 57.498652687478049 0 0.51503806187062418 -0.85716730853699208 I I #
edge $-1 $358 -39.422357730025055 $205 -21.701028743251015 $294 $365 forward 7 unknown #
point $-1 21.701028743251015 29.837125614310743 10.039377340705553 #
point $-1 21.701028743251015 27.619023498788042 10.039377340705549 #
edge $-1 $366 1 $366 0 $208 $-1 forward 7 unknown #
vertex $-1 $209 $367 #
ellipse-curve $-1 26.764265596615019 27.165778771141934 7.2548843764151725 0 0.85716730853699208 0.51503806187062418 1 0 0 1 I I #
point $-1 27.764265596615019 28.728074556549394 8.1936063567929125 #
edge $-1 $368 1 $368 0 $212 $-1 forward 7 unknown #
vertex $-1 $213 $369 #
ellipse-curve $-1 34.359120876661038 27.165778771141934 7.2548843764151725 0 0.85716730853699208 0.51503806187062418 1 0 0 1 I I #
point $-1 35.359120876661038 28.728074556549394 8.1936063567929125 #
plane-surface $-1 50.914639728995638 0 0 -1 0 0 0 0 1 forward_v I I I I #
coedge $-1 $219 $320 $222 $314 reversed $141 $-1 #
vertex $-1 $314 $370 #
straight-curve $-1 -50.914639728995638 -29.837125614310743 0 0 0 -1 I I #
edge $-1 $312 -29.837125614310743 $316 29.837125614310743 $311 $371 forward 7 unknown #
straight-curve $-1 0 -29.837125614310743 -10.039377340705553 -1 0 0 I I #
vertex $-1 $225 $372 #
straight-curve $-1 0 29.837125614310743 -10.039377340705553 1 0 0 I I #
point $-1 50.914639728995638 29.837125614310743 -10.039377340705553 #
point $-1 50.914639728995638 -29.837125614310743 -10.039377340705553 #
coedge $-1 $311 $229 $232 $322 forward $141 $-1 #
straight-curve $-1 -50.914639728995638 0 10.039377340705553 0 -1 0 I I #
edge $-1 $233 -10.039377340705553 $316 10.039377340705553 $232 $373 forward 7 unknown #
point $-1 -50.914639728995638 29.837125614310743 10.039377340705553 #
point $-1 -50.914639728995638 -29.837125614310743 10.039377340705553 #
straight-curve $-1 50.914639728995638 -29.837125614310743 0 0 0 -1 I I #
straight-curve $-1 50.914639728995638 29.837125614310743 0 0 0 -1 I I #
plane-surface $-1 0 -29.837125614310743 0 0 1 0 0 0 1 forward_v I I I I #
coedge $-1 $374 $341 $246 $330 forward $243 $-1 #
coedge $-1 $331 $245 $254 $339 forward $160 $-1 #
edge $-1 $334 -2.3013021376315637 $332 2.3013021376315637 $246 $375 forward 7 unknown #
coedge $-1 $247 $329 $374 $376 forward $160 $-1 #
vertex $-1 $248 $377 #
straight-curve $-1 -57.086958727102186 29.837125614310743 2.7247745415585873 1 0 0 I I #
vertex $-1 $249 $378 #
straight-curve $-1 -57.086958727102186 29.837125614310743 7.3273788168217147 -1 0 0 I I #
point $-1 -50.914639728995638 29.837125614310743 2.7247745415585873 #
straight-curve $-1 -50.914639728995638 0 2.7247745415585873 0 1 0 I I #
coedge $-1 $254 $253 $379 $380 forward $255 $-1 #
edge $-1 $256 -6.1723189981065474 $381 6.1723189981065474 $254 $382 forward 7 unknown #
point $-1 -50.914639728995638 -29.837125614310743 2.7247745415585873 #
coedge $-1 $328 $379 $258 $342 reversed $243 $-1 #
edge $-1 $334 -29.837125614310743 $343 29.837125614310743 $341 $383 forward 7 unknown #
vertex $-1 $342 $384 #
straight-curve $-1 -57.086958727102186 -29.837125614310743 7.3273788168217147 1 0 0 I I #
edge $-1 $346 18.128682653274605 $349 24.277894739745868 $263 $385 forward 7 unknown #
vertex $-1 $277 $386 #
straight-curve $-1 8.3484743529478358 -58.560927508789163 10.039377340705553 0 -1 0 I I #
edge $-1 $349 1.2935756288827385 $274 12.816221819247456 $273 $387 forward 7 unknown #
vertex $-1 $348 $388 #
straight-curve $-1 8.3484743529478358 -29.837125614310722 3.8901652542343257 0 0.51503806187062418 0.85716730853699208 I I #
point $-1 8.3484743529478358 -26.142306360817365 10.039377340705553 #
point $-1 19.871120543312554 -29.837125614310743 3.8901652542342902 #
straight-curve $-1 0 -29.837125614310743 10.039377340705553 1 0 0 I I #
vertex $-1 $280 $389 #
point $-1 15.609797448130195 -25.34950621760138 5.3783732753914002 #
coedge $-1 $295 $294 $287 $357 forward $284 $-1 #
edge $-1 $358 44.932926369896464 $361 48.624468337721751 $356 $390 forward 7 unknown #
vertex $-1 $299 $391 #
straight-curve $-1 39.422357730025055 43.193672160604208 10.039377340705556 0 1 0 I I #
edge $-1 $361 -24.141511111706038 $296 -6.4201821249319977 $295 $392 forward 7 unknown #
vertex $-1 $360 $393 #
straight-curve $-1 39.422357730025055 -0.89738508205918777 57.498652687478049 0 -0.51503806187062418 0.85716730853699208 I I #
point $-1 39.422357730025055 27.619023498788042 10.039377340705549 #
point $-1 21.701028743251015 29.837125614310743 6.3478353728802688 #
straight-curve $-1 0 29.837125614310743 10.039377340705553 -1 0 0 I I #
vertex $-1 $302 $394 #
point $-1 27.764265596615019 27.165778771141934 7.2548843764151725 #
vertex $-1 $306 $395 #
point $-1 35.359120876661038 27.165778771141934 7.2548843764151725 #
point $-1 -50.914639728995638 -29.837125614310743 -10.039377340705553 #
straight-curve $-1 -50.914639728995638 0 -10.039377340705553 0 1 0 I I #
point $-1 -50.914639728995638 29.837125614310743 -10.039377340705553 #
straight-curve $-1 -50.914639728995638 29.837125614310743 0 0 0 -1 I I #
coedge $-1 $379 $328 $331 $376 reversed $243 $-1 #
straight-curve $-1 -63.259277725208733 29.837125614310743 5.026076679190151 0 0 -1 I I #
edge $-1 $381 -29.837125614310743 $332 29.837125614310743 $374 $396 forward 7 unknown #
point $-1 -63.259277725208733 29.837125614310743 2.7247745415585873 #
point $-1 -63.259277725208733 29.837125614310743 7.3273788168217147 #
coedge $-1 $341 $374 $338 $380 reversed $243 $-1 #
edge $-1 $343 -2.3013021376315637 $381 2.3013021376315637 $379 $397 forward 7 unknown #
vertex $-1 $376 $398 #
straight-curve $-1 -57.086958727102186 -29.837125614310743 2.7247745415585873 -1 0 0 I I #
straight-curve $-1 -63.259277725208733 0 7.3273788168217147 0 -1 0 I I #
point $-1 -63.259277725208733 -29.837125614310743 7.3273788168217147 #
straight-curve $-1 8.3484743529478358 -29.837125614310743 28.168059993980158 0 0 -1 I I #
point $-1 8.3484743529478358 -29.837125614310743 10.039377340705553 #
straight-curve $-1 7.0548987240650973 -29.837125614310743 3.8901652542342888 1 0 0 I I #
point $-1 8.3484743529478358 -29.837125614310743 3.8901652542342902 #
point $-1 14.109797448130195 -24.063755254795893 4.605816182585464 #
straight-curve $-1 39.422357730025055 29.837125614310743 54.97230371060202 0 0 -1 I I #
point $-1 39.422357730025055 29.837125614310743 10.039377340705553 #
straight-curve $-1 15.280846618319018 29.837125614310743 6.3478353728802652 -1 0 0 I I #
point $-1 39.422357730025055 29.837125614310743 6.3478353728802688 #
point $-1 26.764265596615019 26.30861146260494 6.7398463145445477 #
point $-1 34.359120876661038 26.30861146260494 6.7398463145445477 #
straight-curve $-1 -63.259277725208733 0 2.7247745415585873 0 1 0 I I #
straight-curve $-1 -63.259277725208733 -29.837125614310743 5.026076679190151 0 0 -1 I I #
point $-1 -63.259277725208733 -29.837125614310743 2.7247745415585873 #
End-of-ACIS-data 