500 0 5 0           
7 Unknown 11 ACIS 5.0 NT 24 Fri Mar 26 18:04:46 1999 
-1 9.9999999999999995e-007 1e-010 
body $-1 $5 $-1 $6 #
body $-1 $7 $-1 $8 #
body $-1 $9 $-1 $10 #
body $-1 $11 $-1 $12 #
body $-1 $13 $-1 $14 #
lump $-1 $-1 $15 $0 #
transform $-1 1 0 0 0 1 0 0 0 1 66.171452986236147 29.465653046567372 7.394964379663894 1 rotate no_reflect no_shear #
lump $-1 $-1 $16 $1 #
transform $-1 1 0 0 0 1 0 0 0 1 66.171452986236147 29.465653046567372 7.394964379663894 1 rotate no_reflect no_shear #
lump $-1 $-1 $17 $2 #
transform $-1 1 0 0 0 1 0 0 0 1 66.171452986236147 29.465653046567372 7.394964379663894 1 rotate no_reflect no_shear #
lump $-1 $-1 $18 $3 #
transform $-1 1 0 0 0 1 0 0 0 1 66.171452986236147 29.465653046567372 7.394964379663894 1 rotate no_reflect no_shear #
lump $-1 $-1 $19 $4 #
transform $-1 1 0 0 0 1 0 0 0 1 66.171452986236147 29.465653046567372 7.394964379663894 1 rotate no_reflect no_shear #
shell $-1 $-1 $-1 $20 $-1 $5 #
shell $-1 $-1 $-1 $21 $-1 $7 #
shell $-1 $-1 $-1 $22 $-1 $9 #
shell $-1 $-1 $-1 $23 $-1 $11 #
shell $-1 $-1 $-1 $24 $-1 $13 #
face $-1 $25 $26 $15 $-1 $27 forward single #
face $-1 $28 $29 $16 $-1 $30 forward single #
face $-1 $31 $32 $17 $-1 $33 reversed single #
face $-1 $34 $35 $18 $-1 $36 forward single #
face $-1 $37 $38 $19 $-1 $39 forward single #
face $-1 $40 $41 $15 $-1 $42 reversed single #
loop $-1 $-1 $43 $20 #
plane-surface $-1 0 0 7.394964379663894 0 0 1 1 0 0 forward_v I I I I #
face $-1 $44 $45 $16 $-1 $46 forward single #
loop $-1 $-1 $47 $21 #
plane-surface $-1 -66.171452986236147 0 0 1 0 0 0 0 -1 forward_v I I I I #
face $-1 $48 $49 $17 $-1 $50 reversed single #
loop $-1 $-1 $51 $22 #
plane-surface $-1 30.070206484498222 108.36146526498622 122.22118342943838 1 0 0 0 -0.83867057594974714 -0.54463902268945019 forward_v I I I I #
face $-1 $52 $53 $18 $-1 $54 forward single #
loop $-1 $55 $56 $23 #
cone-surface $-1 40.38484834213763 25.710115230434031 3.0255809459748821 0 -0.83867057594974714 -0.54463902268945019 1 0 0 1 I I 0 1 1 forward I I I I #
face $-1 $57 $58 $19 $-1 $59 forward single #
loop $-1 $60 $61 $24 #
cone-surface $-1 55.856811128596732 25.710115230434031 3.0255809459748821 0 -0.83867057594974714 -0.54463902268945019 1 0 0 1 I I 0 1 1 forward I I I I #
face $-1 $62 $63 $15 $-1 $64 reversed single #
loop $-1 $-1 $65 $25 #
plane-surface $-1 0 0 -7.394964379663894 0 0 1 1 0 0 forward_v I I I I #
coedge $-1 $66 $67 $68 $69 forward $26 $-1 #
face $-1 $70 $71 $16 $-1 $72 reversed single #
loop $-1 $-1 $73 $28 #
plane-surface $-1 0 0 7.394964379663894 0 0 1 1 0 0 forward_v I I I I #
coedge $-1 $74 $75 $76 $77 forward $29 $-1 #
face $-1 $78 $79 $17 $-1 $80 forward single #
loop $-1 $-1 $81 $31 #
plane-surface $-1 48.120829735367181 -2.6306359098103513 50.142072460709272 0 0.83867057594974714 0.54463902268945019 1 0 0 forward_v I I I I #
coedge $-1 $82 $83 $84 $85 reversed $32 $-1 #
face $-1 $-1 $86 $18 $-1 $87 forward single #
loop $-1 $88 $89 $34 #
cone-surface $-1 40.38484834213763 23.703238763572745 1.7223001717185538 0 -0.83867057594974714 -0.54463902268945019 0.5 0 0 1 I I -0.70710678118654746 0.70710678118654746 0.5 forward I I I I #
loop $-1 $-1 $90 $23 #
coedge $-1 $56 $56 $91 $92 reversed $35 $-1 #
face $-1 $-1 $93 $19 $-1 $94 forward single #
loop $-1 $95 $96 $37 #
cone-surface $-1 55.856811128596732 23.703238763572745 1.7223001717185538 0 -0.83867057594974714 -0.54463902268945019 0.5 0 0 1 I I -0.70710678118654746 0.70710678118654746 0.5 forward I I I I #
loop $-1 $-1 $97 $24 #
coedge $-1 $61 $61 $98 $99 reversed $38 $-1 #
face $-1 $100 $101 $15 $-1 $102 reversed single #
loop $-1 $-1 $103 $40 #
plane-surface $-1 0 -29.465653046567372 0 0 1 0 0 0 1 forward_v I I I I #
coedge $-1 $104 $105 $106 $107 forward $41 $-1 #
coedge $-1 $108 $43 $109 $110 forward $26 $-1 #
coedge $-1 $43 $108 $111 $112 forward $26 $-1 #
coedge $-1 $113 $114 $43 $69 reversed $115 $-1 #
edge $-1 $116 -29.465653046567372 $117 29.465653046567372 $68 $118 forward 7 unknown #
face $-1 $119 $120 $16 $-1 $121 reversed single #
loop $-1 $-1 $122 $44 #
plane-surface $-1 -73.454410748827172 -27.806406926515891 0 1 0 0 0 0 -1 forward_v I I I I #
coedge $-1 $123 $124 $74 $125 forward $45 $-1 #
coedge $-1 $126 $47 $73 $125 reversed $29 $-1 #
coedge $-1 $47 $126 $127 $128 reversed $29 $-1 #
coedge $-1 $129 $130 $47 $77 reversed $120 $-1 #
edge $-1 $131 -7.394964379663894 $132 7.394964379663894 $76 $133 forward 7 unknown #
face $-1 $134 $135 $17 $-1 $136 reversed single #
loop $-1 $-1 $84 $48 #
plane-surface $-1 0 0 7.394964379663894 0 0 1 1 0 0 forward_v I I I I #
coedge $-1 $137 $138 $139 $140 reversed $49 $-1 #
coedge $-1 $83 $51 $141 $142 reversed $32 $-1 #
coedge $-1 $51 $82 $137 $143 reversed $32 $-1 #
coedge $-1 $139 $144 $51 $85 forward $79 $-1 #
edge $-1 $145 24.715079585925739 $146 29.051072860419559 $84 $147 forward 7 unknown #
loop $-1 $-1 $91 $52 #
plane-surface $-1 48.120829735367181 -2.6306359098103513 50.142072460709272 0 0.83867057594974714 0.54463902268945019 1 0 0 forward_v I I I I #
loop $-1 $-1 $148 $34 #
coedge $-1 $89 $89 $90 $149 reversed $53 $-1 #
coedge $-1 $90 $90 $89 $149 forward $55 $-1 #
coedge $-1 $91 $91 $56 $92 forward $86 $-1 #
edge $-1 $150 -2.8206909694719076e-016 $150 6.2831853071796004 $91 $151 forward 7 unknown #
loop $-1 $-1 $98 $57 #
plane-surface $-1 48.120829735367181 -2.6306359098103513 50.142072460709272 0 0.83867057594974714 0.54463902268945019 1 0 0 forward_v I I I I #
loop $-1 $-1 $152 $37 #
coedge $-1 $96 $96 $97 $153 reversed $58 $-1 #
coedge $-1 $97 $97 $96 $153 forward $60 $-1 #
coedge $-1 $98 $98 $61 $99 forward $93 $-1 #
edge $-1 $154 -2.8206909694719076e-016 $154 6.2831853071796004 $98 $155 forward 7 unknown #
face $-1 $156 $157 $15 $-1 $158 reversed single #
loop $-1 $-1 $159 $62 #
plane-surface $-1 -66.171452986236147 0 0 1 0 0 0 0 -1 forward_v I I I I #
coedge $-1 $160 $111 $161 $162 forward $63 $-1 #
coedge $-1 $163 $65 $160 $164 forward $41 $-1 #
coedge $-1 $65 $163 $165 $166 forward $41 $-1 #
coedge $-1 $114 $113 $65 $107 reversed $115 $-1 #
edge $-1 $167 -29.465653046567372 $168 29.465653046567372 $106 $169 forward 7 unknown #
coedge $-1 $67 $66 $170 $171 forward $26 $-1 #
coedge $-1 $172 $173 $66 $110 reversed $157 $-1 #
edge $-1 $117 -66.171452986236147 $174 66.171452986236147 $109 $175 forward 7 unknown #
coedge $-1 $103 $176 $67 $112 reversed $63 $-1 #
edge $-1 $177 -66.171452986236147 $116 66.171452986236147 $111 $178 forward 7 unknown #
coedge $-1 $106 $68 $176 $179 forward $115 $-1 #
coedge $-1 $68 $106 $172 $180 reversed $115 $-1 #
loop $-1 $-1 $113 $156 #
vertex $-1 $69 $181 #
vertex $-1 $69 $182 #
straight-curve $-1 66.171452986236147 0 7.394964379663894 0 1 0 I I #
face $-1 $183 $184 $16 $-1 $185 reversed single #
loop $-1 $-1 $76 $70 #
plane-surface $-1 -69.81293186753166 -26.147160806464409 0 0 -1 0 0 0 -1 forward_v I I I I #
coedge $-1 $186 $187 $188 $189 forward $71 $-1 #
coedge $-1 $190 $73 $130 $191 forward $45 $-1 #
coedge $-1 $73 $190 $192 $193 forward $45 $-1 #
edge $-1 $194 -29.465653046567372 $132 -26.147160806464409 $73 $195 forward 7 unknown #
coedge $-1 $75 $74 $196 $197 reversed $29 $-1 #
coedge $-1 $198 $199 $75 $128 forward $184 $-1 #
edge $-1 $131 26.147160806464409 $200 29.465653046567372 $127 $201 forward 7 unknown #
coedge $-1 $188 $76 $199 $202 reversed $120 $-1 #
coedge $-1 $76 $188 $123 $191 reversed $120 $-1 #
vertex $-1 $128 $203 #
vertex $-1 $191 $204 #
straight-curve $-1 -66.171452986236147 -26.147160806464409 0 0 0 1 I I #
face $-1 $-1 $205 $17 $-1 $206 reversed single #
loop $-1 $-1 $207 $78 #
plane-surface $-1 66.171452986236147 0 0 -1 0 0 0 0 1 forward_v I I I I #
coedge $-1 $208 $81 $83 $143 forward $49 $-1 #
coedge $-1 $81 $208 $207 $209 reversed $49 $-1 #
coedge $-1 $210 $84 $81 $140 forward $79 $-1 #
edge $-1 $146 6.0097916168146313 $211 42.111038118552557 $139 $212 forward 7 unknown #
coedge $-1 $213 $214 $82 $142 forward $205 $-1 #
edge $-1 $215 -60.392471676610036 $145 -53.715627335055295 $141 $216 forward 7 unknown #
edge $-1 $146 50.970082064267828 $215 58.931306093134694 $83 $217 forward 7 unknown #
coedge $-1 $84 $210 $213 $218 forward $79 $-1 #
vertex $-1 $142 $219 #
vertex $-1 $85 $220 #
straight-curve $-1 30.070206484498222 54.180732632493111 7.3949643796638966 0 -1 0 I I #
coedge $-1 $148 $148 $-1 $221 reversed $88 $-1 #
edge $-1 $222 0 $222 6.2831853071796004 $89 $223 forward 7 unknown #
vertex $-1 $92 $224 #
ellipse-curve $-1 40.38484834213763 27.297656409320474 4.0565422088865057 0 0.83867057594974714 0.54463902268945019 1 0 0 1 I I #
coedge $-1 $152 $152 $-1 $225 reversed $95 $-1 #
edge $-1 $226 0 $226 6.2831853071796004 $96 $227 forward 7 unknown #
vertex $-1 $99 $228 #
ellipse-curve $-1 55.856811128596732 27.297656409320474 4.0565422088865057 0 0.83867057594974714 0.54463902268945019 1 0 0 1 I I #
face $-1 $-1 $115 $15 $-1 $229 reversed single #
loop $-1 $-1 $172 $100 #
plane-surface $-1 0 29.465653046567372 0 0 -1 0 0 0 -1 forward_v I I I I #
coedge $-1 $230 $170 $173 $231 forward $101 $-1 #
coedge $-1 $176 $103 $104 $164 reversed $63 $-1 #
coedge $-1 $170 $230 $103 $162 reversed $101 $-1 #
edge $-1 $177 -7.394964379663894 $232 7.394964379663894 $161 $233 forward 7 unknown #
coedge $-1 $105 $104 $230 $234 forward $41 $-1 #
edge $-1 $168 -66.171452986236147 $232 66.171452986236147 $160 $235 forward 7 unknown #
coedge $-1 $173 $172 $105 $166 reversed $157 $-1 #
edge $-1 $236 -66.171452986236147 $167 66.171452986236147 $165 $237 forward 7 unknown #
vertex $-1 $107 $238 #
vertex $-1 $179 $239 #
straight-curve $-1 66.171452986236147 0 -7.394964379663894 0 -1 0 I I #
coedge $-1 $159 $161 $108 $171 reversed $101 $-1 #
edge $-1 $174 -29.465653046567372 $177 29.465653046567372 $170 $240 forward 7 unknown #
coedge $-1 $165 $109 $114 $180 forward $157 $-1 #
coedge $-1 $109 $165 $159 $231 reversed $157 $-1 #
vertex $-1 $110 $241 #
straight-curve $-1 0 29.465653046567372 7.394964379663894 -1 0 0 I I #
coedge $-1 $111 $160 $113 $179 reversed $63 $-1 #
vertex $-1 $171 $242 #
straight-curve $-1 0 -29.465653046567372 7.394964379663894 1 0 0 I I #
edge $-1 $116 -7.394964379663894 $168 7.394964379663894 $113 $243 forward 7 unknown #
edge $-1 $117 -7.394964379663894 $167 7.394964379663894 $114 $244 forward 7 unknown #
point $-1 66.171452986236147 -29.465653046567372 7.394964379663894 #
point $-1 66.171452986236147 29.465653046567372 7.394964379663894 #
face $-1 $-1 $245 $16 $-1 $246 reversed single #
loop $-1 $-1 $127 $119 #
plane-surface $-1 0 0 -7.394964379663894 0 0 1 1 0 0 forward_v I I I I #
coedge $-1 $247 $122 $248 $249 reversed $71 $-1 #
coedge $-1 $122 $247 $190 $250 reversed $71 $-1 #
coedge $-1 $130 $129 $122 $189 reversed $120 $-1 #
edge $-1 $251 -7.394964379663894 $252 7.394964379663894 $188 $253 forward 7 unknown #
coedge $-1 $124 $123 $187 $250 forward $45 $-1 #
edge $-1 $132 -3.6414788812955123 $251 3.6414788812955123 $130 $254 forward 7 unknown #
coedge $-1 $255 $196 $124 $193 reversed $245 $-1 #
edge $-1 $256 -73.454410748827172 $194 -66.171452986236147 $192 $257 forward 7 unknown #
vertex $-1 $197 $258 #
straight-curve $-1 -66.171452986236147 0 7.394964379663894 0 1 0 I I #
coedge $-1 $192 $259 $126 $197 forward $245 $-1 #
edge $-1 $200 -7.394964379663894 $194 7.394964379663894 $196 $260 forward 7 unknown #
coedge $-1 $248 $127 $259 $261 forward $184 $-1 #
coedge $-1 $127 $248 $129 $202 forward $184 $-1 #
vertex $-1 $261 $262 #
straight-curve $-1 -66.171452986236147 0 -7.394964379663894 0 -1 0 I I #
edge $-1 $252 -3.6414788812955123 $131 3.6414788812955123 $129 $263 forward 7 unknown #
point $-1 -66.171452986236147 -26.147160806464409 -7.394964379663894 #
point $-1 -66.171452986236147 -26.147160806464409 7.394964379663894 #
loop $-1 $-1 $141 $134 #
plane-surface $-1 0 29.465653046567372 0 0 -1 0 0 0 -1 forward_v I I I I #
coedge $-1 $264 $265 $138 $209 forward $135 $-1 #
coedge $-1 $138 $137 $214 $266 reversed $49 $-1 #
edge $-1 $211 29.227368183813887 $267 37.188592212680753 $207 $268 forward 7 unknown #
coedge $-1 $144 $139 $265 $269 forward $79 $-1 #
vertex $-1 $269 $270 #
straight-curve $-1 24.060414867683591 25.129659772073559 7.3949643796638931 1 0 0 I I #
coedge $-1 $271 $141 $144 $218 reversed $205 $-1 #
coedge $-1 $141 $271 $208 $266 forward $205 $-1 #
vertex $-1 $142 $272 #
straight-curve $-1 30.070206484498222 29.465653046567368 61.110591714719192 0 0 1 I I #
straight-curve $-1 30.070206484498222 -2.6306359098103513 50.142072460709272 0 0.54463902268945019 -0.83867057594974714 I I #
edge $-1 $273 -66.171452986236147 $145 -30.070206484498222 $213 $274 forward 7 unknown #
point $-1 30.070206484498222 29.465653046567372 7.394964379663894 #
point $-1 30.070206484498222 25.129659772073552 7.3949643796638966 #
edge $-1 $275 1 $275 0 $148 $-1 forward 7 unknown #
vertex $-1 $149 $276 #
ellipse-curve $-1 40.38484834213763 24.12257405154762 1.994619683063279 0 0.83867057594974714 0.54463902268945019 1 0 0 1 I I #
point $-1 41.38484834213763 27.297656409320442 4.0565422088864853 #
edge $-1 $277 1 $277 0 $152 $-1 forward 7 unknown #
vertex $-1 $153 $278 #
ellipse-curve $-1 55.856811128596732 24.12257405154762 1.994619683063279 0 0.83867057594974714 0.54463902268945019 1 0 0 1 I I #
point $-1 56.856811128596732 27.297656409320442 4.0565422088864853 #
plane-surface $-1 66.171452986236147 0 0 -1 0 0 0 0 1 forward_v I I I I #
coedge $-1 $161 $159 $163 $234 reversed $101 $-1 #
edge $-1 $174 -7.394964379663894 $236 7.394964379663894 $173 $279 forward 7 unknown #
vertex $-1 $234 $280 #
straight-curve $-1 -66.171452986236147 -29.465653046567372 0 0 0 -1 I I #
edge $-1 $232 -29.465653046567372 $236 29.465653046567372 $230 $281 forward 7 unknown #
straight-curve $-1 0 -29.465653046567372 -7.394964379663894 -1 0 0 I I #
vertex $-1 $166 $282 #
straight-curve $-1 0 29.465653046567372 -7.394964379663894 1 0 0 I I #
point $-1 66.171452986236147 29.465653046567372 -7.394964379663894 #
point $-1 66.171452986236147 -29.465653046567372 -7.394964379663894 #
straight-curve $-1 -66.171452986236147 0 7.394964379663894 0 -1 0 I I #
point $-1 -66.171452986236147 29.465653046567372 7.394964379663894 #
point $-1 -66.171452986236147 -29.465653046567372 7.394964379663894 #
straight-curve $-1 66.171452986236147 -29.465653046567372 0 0 0 -1 I I #
straight-curve $-1 66.171452986236147 29.465653046567372 0 0 0 -1 I I #
loop $-1 $-1 $196 $183 #
plane-surface $-1 0 -29.465653046567372 0 0 1 0 0 0 1 forward_v I I I I #
coedge $-1 $187 $186 $255 $283 reversed $71 $-1 #
coedge $-1 $199 $198 $186 $249 forward $184 $-1 #
edge $-1 $284 -1.6592461200514812 $252 1.6592461200514812 $186 $285 forward 7 unknown #
edge $-1 $251 -1.6592461200514812 $256 1.6592461200514812 $187 $286 forward 7 unknown #
vertex $-1 $191 $287 #
vertex $-1 $202 $288 #
straight-curve $-1 -73.454410748827172 -26.147160806464409 0 0 0 -1 I I #
straight-curve $-1 -69.81293186753166 -26.147160806464409 7.394964379663894 -1 0 0 I I #
coedge $-1 $259 $192 $247 $283 forward $245 $-1 #
vertex $-1 $250 $289 #
straight-curve $-1 0 -29.465653046567372 7.394964379663894 1 0 0 I I #
point $-1 -66.171452986236147 -29.465653046567372 7.394964379663894 #
coedge $-1 $196 $255 $198 $261 reversed $245 $-1 #
straight-curve $-1 -66.171452986236147 -29.465653046567372 0 0 0 1 I I #
edge $-1 $200 -3.6414788812955123 $284 3.6414788812955123 $259 $290 forward 7 unknown #
point $-1 -66.171452986236147 -29.465653046567372 -7.394964379663894 #
straight-curve $-1 -69.81293186753166 -26.147160806464409 -7.394964379663894 1 0 0 I I #
coedge $-1 $265 $207 $271 $291 reversed $135 $-1 #
coedge $-1 $207 $264 $210 $269 reversed $135 $-1 #
edge $-1 $267 -42.111038118552557 $215 -6.0097916168146313 $214 $292 forward 7 unknown #
vertex $-1 $209 $293 #
straight-curve $-1 66.171452986236147 9.2112945286564258 31.907098087878403 0 0.54463902268945019 -0.83867057594974714 I I #
edge $-1 $211 25.129659772073552 $273 29.465653046567372 $265 $294 forward 7 unknown #
point $-1 66.171452986236147 25.129659772073552 7.3949643796638966 #
coedge $-1 $214 $213 $264 $291 forward $205 $-1 #
point $-1 30.070206484498222 29.465653046567368 0.7181200381091557 #
vertex $-1 $269 $295 #
straight-curve $-1 0 29.465653046567372 7.394964379663894 -1 0 0 I I #
vertex $-1 $221 $296 #
point $-1 41.38484834213763 24.12257405154762 1.994619683063279 #
vertex $-1 $225 $297 #
point $-1 56.856811128596732 24.12257405154762 1.994619683063279 #
straight-curve $-1 -66.171452986236147 29.465653046567372 0 0 0 -1 I I #
point $-1 -66.171452986236147 -29.465653046567372 -7.394964379663894 #
straight-curve $-1 -66.171452986236147 0 -7.394964379663894 0 1 0 I I #
point $-1 -66.171452986236147 29.465653046567372 -7.394964379663894 #
edge $-1 $256 -7.394964379663894 $284 7.394964379663894 $247 $298 forward 7 unknown #
vertex $-1 $249 $299 #
straight-curve $-1 -73.454410748827172 -27.806406926515891 -7.394964379663894 0 1 0 I I #
straight-curve $-1 -73.454410748827172 -27.806406926515891 7.394964379663894 0 -1 0 I I #
point $-1 -73.454410748827172 -26.147160806464409 7.394964379663894 #
point $-1 -73.454410748827172 -26.147160806464409 -7.394964379663894 #
point $-1 -73.454410748827172 -29.465653046567372 7.394964379663894 #
straight-curve $-1 -69.81293186753166 -29.465653046567372 -7.394964379663894 -1 0 0 I I #
edge $-1 $273 -7.394964379663894 $267 -0.7181200381091557 $264 $300 forward 7 unknown #
straight-curve $-1 24.060414867683591 29.465653046567375 0.71812003810915215 -1 0 0 I I #
point $-1 66.171452986236147 29.465653046567368 0.7181200381091557 #
straight-curve $-1 66.171452986236147 0 7.394964379663894 0 1 0 I I #
point $-1 66.171452986236147 29.465653046567372 7.394964379663894 #
point $-1 40.38484834213763 23.283903475597871 1.4499806603738286 #
point $-1 55.856811128596732 23.283903475597871 1.4499806603738286 #
straight-curve $-1 -73.454410748827172 -29.465653046567372 0 0 0 -1 I I #
point $-1 -73.454410748827172 -29.465653046567372 -7.394964379663894 #
straight-curve $-1 66.171452986236147 29.465653046567372 0 0 0 -1 I I #
End-of-ACIS-data 