500 0 5 0           
7 Unknown 11 ACIS 5.0 NT 24 Fri Mar 26 00:40:12 1999 
-1 9.9999999999999995e-007 1e-010 
body $-1 $5 $-1 $6 #
body $-1 $7 $-1 $8 #
body $-1 $9 $-1 $10 #
body $-1 $11 $-1 $12 #
body $-1 $13 $-1 $14 #
lump $-1 $-1 $15 $0 #
transform $-1 1 0 0 0 1 0 0 0 1 49.538865321817681 24.269463095128479 5.1396422714839796 1 rotate no_reflect no_shear #
lump $-1 $-1 $16 $1 #
transform $-1 1 0 0 0 1 0 0 0 1 49.538865321817681 24.269463095128479 5.1396422714839796 1 rotate no_reflect no_shear #
lump $-1 $-1 $17 $2 #
transform $-1 1 0 0 0 1 0 0 0 1 49.538865321817681 24.269463095128479 5.1396422714839796 1 rotate no_reflect no_shear #
lump $-1 $-1 $18 $3 #
transform $-1 1 0 0 0 1 0 0 0 1 49.538865321817681 24.269463095128479 5.1396422714839796 1 rotate no_reflect no_shear #
lump $-1 $-1 $19 $4 #
transform $-1 1 0 0 0 1 0 0 0 1 49.538865321817681 24.269463095128479 5.1396422714839796 1 rotate no_reflect no_shear #
shell $-1 $-1 $-1 $20 $-1 $5 #
shell $-1 $-1 $-1 $21 $-1 $7 #
shell $-1 $-1 $-1 $22 $-1 $9 #
shell $-1 $-1 $-1 $23 $-1 $11 #
shell $-1 $-1 $-1 $24 $-1 $13 #
face $-1 $25 $26 $15 $-1 $27 forward single #
face $-1 $28 $29 $16 $-1 $30 reversed single #
face $-1 $31 $32 $17 $-1 $33 forward single #
face $-1 $34 $35 $18 $-1 $36 forward single #
face $-1 $37 $38 $19 $-1 $39 forward single #
face $-1 $40 $41 $15 $-1 $42 reversed single #
loop $-1 $-1 $43 $20 #
plane-surface $-1 0 0 5.1396422714839796 0 0 1 1 0 0 forward_v I I I I #
face $-1 $44 $45 $16 $-1 $46 reversed single #
loop $-1 $-1 $47 $21 #
plane-surface $-1 61.750874464101173 18.920801811447955 140.36217761367348 0 -1 0 -0.7660444514056185 0 -0.64278759981090561 forward_v I I I I #
face $-1 $48 $49 $17 $-1 $50 forward single #
loop $-1 $51 $52 $22 #
cone-surface $-1 46.56093144135739 8.9564642001452057 1.9955719733650839 -0.7660444514056185 0 -0.64278759981090561 0.64278759981090561 0 -0.7660444514056185 1 I I 0 1 1 forward I I I I #
face $-1 $53 $54 $18 $-1 $55 forward single #
loop $-1 $56 $57 $23 #
cone-surface $-1 46.56093144135739 12.693090804383736 1.9955719733650839 -0.7660444514056185 0 -0.64278759981090561 0.64278759981090561 0 -0.7660444514056185 1 I I 0 1 1 forward I I I I #
face $-1 $58 $59 $19 $-1 $60 forward single #
loop $-1 $61 $62 $24 #
cone-surface $-1 46.56093144135739 16.429717408622267 1.9955719733650839 -0.7660444514056185 0 -0.64278759981090561 0.64278759981090561 0 -0.7660444514056185 1 I I 0 1 1 forward I I I I #
face $-1 $63 $64 $15 $-1 $65 reversed single #
loop $-1 $-1 $66 $25 #
plane-surface $-1 0 0 -5.1396422714839796 0 0 1 1 0 0 forward_v I I I I #
coedge $-1 $67 $68 $69 $70 forward $26 $-1 #
face $-1 $71 $72 $16 $-1 $73 reversed single #
loop $-1 $-1 $74 $28 #
plane-surface $-1 -14.147071353316122 12.693090804383736 76.676240938539692 0.7660444514056185 0 0.64278759981090561 0.64278759981090561 0 -0.7660444514056185 forward_v I I I I #
coedge $-1 $75 $76 $77 $78 reversed $29 $-1 #
face $-1 $-1 $79 $17 $-1 $80 forward single #
loop $-1 $81 $82 $31 #
cone-surface $-1 45.029777679940125 8.9564642001452057 0.71078145052150798 -0.7660444514056185 0 -0.64278759981090561 0.3213937999054528 0 -0.38302222570280925 1 I I -0.70710678118654746 0.70710678118654746 0.5 forward I I I I #
loop $-1 $-1 $83 $22 #
coedge $-1 $52 $52 $84 $85 reversed $32 $-1 #
face $-1 $-1 $86 $18 $-1 $87 forward single #
loop $-1 $88 $89 $34 #
cone-surface $-1 45.029777679940125 12.693090804383736 0.71078145052150798 -0.7660444514056185 0 -0.64278759981090561 0.3213937999054528 0 -0.38302222570280925 1 I I -0.70710678118654746 0.70710678118654746 0.5 forward I I I I #
loop $-1 $-1 $90 $23 #
coedge $-1 $57 $57 $91 $92 reversed $35 $-1 #
face $-1 $-1 $93 $19 $-1 $94 forward single #
loop $-1 $95 $96 $37 #
cone-surface $-1 45.029777679940125 16.429717408622267 0.71078145052150798 -0.7660444514056185 0 -0.64278759981090561 0.3213937999054528 0 -0.38302222570280925 1 I I -0.70710678118654746 0.70710678118654746 0.5 forward I I I I #
loop $-1 $-1 $97 $24 #
coedge $-1 $62 $62 $98 $99 reversed $38 $-1 #
face $-1 $100 $101 $15 $-1 $102 reversed single #
loop $-1 $-1 $103 $40 #
plane-surface $-1 0 -24.269463095128479 0 0 1 0 0 0 1 forward_v I I I I #
coedge $-1 $104 $105 $106 $107 forward $41 $-1 #
coedge $-1 $108 $43 $109 $110 forward $26 $-1 #
coedge $-1 $43 $108 $111 $112 forward $26 $-1 #
coedge $-1 $113 $114 $43 $70 reversed $115 $-1 #
edge $-1 $116 -24.269463095128479 $117 24.269463095128479 $69 $118 forward 7 unknown #
face $-1 $119 $120 $16 $-1 $121 forward single #
loop $-1 $-1 $122 $44 #
plane-surface $-1 61.750874464101173 6.4653797973195175 140.36217761367348 0 1 0 0.7660444514056185 0 0.64278759981090561 forward_v I I I I #
coedge $-1 $123 $124 $125 $126 reversed $45 $-1 #
coedge $-1 $76 $47 $127 $128 reversed $29 $-1 #
coedge $-1 $47 $75 $123 $129 reversed $29 $-1 #
coedge $-1 $125 $130 $47 $78 forward $120 $-1 #
edge $-1 $131 -18.663428089767095 $132 -15.003823400275444 $77 $133 forward 7 unknown #
loop $-1 $-1 $84 $48 #
plane-surface $-1 -14.147071353316122 12.693090804383736 76.676240938539692 0.7660444514056185 0 0.64278759981090561 0.64278759981090561 0 -0.7660444514056185 forward_v I I I I #
loop $-1 $-1 $134 $31 #
coedge $-1 $82 $82 $83 $135 reversed $49 $-1 #
coedge $-1 $83 $83 $82 $135 forward $51 $-1 #
coedge $-1 $84 $84 $52 $85 forward $79 $-1 #
edge $-1 $136 0 $136 6.2831853071796004 $84 $137 forward 7 unknown #
loop $-1 $-1 $91 $53 #
plane-surface $-1 -14.147071353316122 12.693090804383736 76.676240938539692 0.7660444514056185 0 0.64278759981090561 0.64278759981090561 0 -0.7660444514056185 forward_v I I I I #
loop $-1 $-1 $138 $34 #
coedge $-1 $89 $89 $90 $139 reversed $54 $-1 #
coedge $-1 $90 $90 $89 $139 forward $56 $-1 #
coedge $-1 $91 $91 $57 $92 forward $86 $-1 #
edge $-1 $140 0 $140 6.2831853071796004 $91 $141 forward 7 unknown #
loop $-1 $-1 $98 $58 #
plane-surface $-1 -14.147071353316122 12.693090804383736 76.676240938539692 0.7660444514056185 0 0.64278759981090561 0.64278759981090561 0 -0.7660444514056185 forward_v I I I I #
loop $-1 $-1 $142 $37 #
coedge $-1 $96 $96 $97 $143 reversed $59 $-1 #
coedge $-1 $97 $97 $96 $143 forward $61 $-1 #
coedge $-1 $98 $98 $62 $99 forward $93 $-1 #
edge $-1 $144 0 $144 6.2831853071796004 $98 $145 forward 7 unknown #
face $-1 $146 $147 $15 $-1 $148 reversed single #
loop $-1 $-1 $149 $63 #
plane-surface $-1 -49.538865321817681 0 0 1 0 0 0 0 -1 forward_v I I I I #
coedge $-1 $150 $111 $151 $152 forward $64 $-1 #
coedge $-1 $153 $66 $150 $154 forward $41 $-1 #
coedge $-1 $66 $153 $155 $156 forward $41 $-1 #
coedge $-1 $114 $113 $66 $107 reversed $115 $-1 #
edge $-1 $157 -24.269463095128479 $158 24.269463095128479 $106 $159 forward 7 unknown #
coedge $-1 $68 $67 $160 $161 forward $26 $-1 #
coedge $-1 $162 $163 $67 $110 reversed $147 $-1 #
edge $-1 $117 -49.538865321817681 $164 49.538865321817681 $109 $165 forward 7 unknown #
coedge $-1 $103 $166 $68 $112 reversed $64 $-1 #
edge $-1 $167 -49.538865321817681 $116 49.538865321817681 $111 $168 forward 7 unknown #
coedge $-1 $106 $69 $166 $169 forward $115 $-1 #
coedge $-1 $69 $106 $162 $170 reversed $115 $-1 #
loop $-1 $-1 $113 $146 #
vertex $-1 $70 $171 #
vertex $-1 $70 $172 #
straight-curve $-1 49.538865321817681 0 5.1396422714839796 0 1 0 I I #
face $-1 $-1 $173 $16 $-1 $174 reversed single #
loop $-1 $-1 $77 $71 #
plane-surface $-1 0 0 5.1396422714839796 0 0 1 1 0 0 forward_v I I I I #
coedge $-1 $175 $176 $177 $178 reversed $72 $-1 #
coedge $-1 $179 $74 $76 $129 forward $45 $-1 #
coedge $-1 $74 $179 $175 $180 forward $45 $-1 #
coedge $-1 $177 $77 $74 $126 forward $120 $-1 #
edge $-1 $132 -12.574256409256087 $181 -0.11883439512764937 $125 $182 forward 7 unknown #
coedge $-1 $183 $184 $75 $128 forward $173 $-1 #
edge $-1 $185 -69.402793685714357 $131 -65.041446535352762 $127 $186 forward 7 unknown #
edge $-1 $132 93.384396343832137 $185 99.077730643635405 $76 $187 forward 7 unknown #
coedge $-1 $77 $177 $183 $188 forward $120 $-1 #
vertex $-1 $128 $189 #
vertex $-1 $78 $190 #
straight-curve $-1 30.875437232050587 18.920801811447955 5.1396422714839787 -1 0 0 I I #
coedge $-1 $134 $134 $-1 $191 reversed $81 $-1 #
edge $-1 $192 0 $192 6.2831853071796004 $82 $193 forward 7 unknown #
vertex $-1 $85 $194 #
ellipse-curve $-1 47.709062977071838 8.9564642001452057 2.9589686963031978 0.7660444514056185 0 0.64278759981090561 0.64278759981090561 0 -0.7660444514056185 1 I I #
coedge $-1 $138 $138 $-1 $195 reversed $88 $-1 #
edge $-1 $196 0 $196 6.2831853071796004 $89 $197 forward 7 unknown #
vertex $-1 $92 $198 #
ellipse-curve $-1 47.709062977071838 12.693090804383736 2.9589686963031978 0.7660444514056185 0 0.64278759981090561 0.64278759981090561 0 -0.7660444514056185 1 I I #
coedge $-1 $142 $142 $-1 $199 reversed $95 $-1 #
edge $-1 $200 0 $200 6.2831853071796004 $96 $201 forward 7 unknown #
vertex $-1 $99 $202 #
ellipse-curve $-1 47.709062977071838 16.429717408622267 2.9589686963031978 0.7660444514056185 0 0.64278759981090561 0.64278759981090561 0 -0.7660444514056185 1 I I #
face $-1 $-1 $115 $15 $-1 $203 reversed single #
loop $-1 $-1 $162 $100 #
plane-surface $-1 0 24.269463095128479 0 0 -1 0 0 0 -1 forward_v I I I I #
coedge $-1 $204 $160 $163 $205 forward $101 $-1 #
coedge $-1 $166 $103 $104 $154 reversed $64 $-1 #
coedge $-1 $160 $204 $103 $152 reversed $101 $-1 #
edge $-1 $167 -5.1396422714839796 $206 5.1396422714839796 $151 $207 forward 7 unknown #
coedge $-1 $105 $104 $204 $208 forward $41 $-1 #
edge $-1 $158 -49.538865321817681 $206 49.538865321817681 $150 $209 forward 7 unknown #
coedge $-1 $163 $162 $105 $156 reversed $147 $-1 #
edge $-1 $210 -49.538865321817681 $157 49.538865321817681 $155 $211 forward 7 unknown #
vertex $-1 $107 $212 #
vertex $-1 $169 $213 #
straight-curve $-1 49.538865321817681 0 -5.1396422714839796 0 -1 0 I I #
coedge $-1 $149 $151 $108 $161 reversed $101 $-1 #
edge $-1 $164 -24.269463095128479 $167 24.269463095128479 $160 $214 forward 7 unknown #
coedge $-1 $155 $109 $114 $170 forward $147 $-1 #
coedge $-1 $109 $155 $149 $205 reversed $147 $-1 #
vertex $-1 $110 $215 #
straight-curve $-1 0 24.269463095128479 5.1396422714839796 -1 0 0 I I #
coedge $-1 $111 $150 $113 $169 reversed $64 $-1 #
vertex $-1 $161 $216 #
straight-curve $-1 0 -24.269463095128479 5.1396422714839796 1 0 0 I I #
edge $-1 $116 -5.1396422714839796 $158 5.1396422714839796 $113 $217 forward 7 unknown #
edge $-1 $117 -5.1396422714839796 $157 5.1396422714839796 $114 $218 forward 7 unknown #
point $-1 49.538865321817681 -24.269463095128479 5.1396422714839796 #
point $-1 49.538865321817681 24.269463095128479 5.1396422714839796 #
loop $-1 $-1 $127 $119 #
plane-surface $-1 49.538865321817681 0 0 -1 0 0 0 0 1 forward_v I I I I #
coedge $-1 $176 $122 $124 $180 reversed $72 $-1 #
coedge $-1 $122 $175 $219 $220 reversed $72 $-1 #
coedge $-1 $130 $125 $122 $178 forward $120 $-1 #
edge $-1 $181 15.003823400275444 $221 18.663428089767095 $177 $222 forward 7 unknown #
coedge $-1 $124 $123 $184 $223 reversed $45 $-1 #
edge $-1 $224 -99.077730643635405 $181 -93.384396343832137 $175 $225 forward 7 unknown #
vertex $-1 $126 $226 #
straight-curve $-1 45.87926063232603 6.3465454021918681 5.1396422714839716 0 -1 0 I I #
coedge $-1 $219 $127 $130 $188 reversed $173 $-1 #
coedge $-1 $127 $219 $179 $223 forward $173 $-1 #
vertex $-1 $128 $227 #
straight-curve $-1 49.538865321817681 18.920801811447955 70.18108880683674 0 0 1 I I #
straight-curve $-1 -14.147071353316122 18.920801811447955 76.676240938539692 0.64278759981090561 0 -0.7660444514056185 I I #
edge $-1 $221 6.4653797973195175 $131 18.920801811447955 $183 $228 forward 7 unknown #
point $-1 49.538865321817681 18.920801811447955 5.1396422714839796 #
point $-1 45.87926063232603 18.920801811447955 5.1396422714839787 #
edge $-1 $229 1 $229 0 $134 $-1 forward 7 unknown #
vertex $-1 $135 $230 #
ellipse-curve $-1 45.412799905642935 8.9564642001452057 1.0321752504269608 0.7660444514056185 0 0.64278759981090561 0.64278759981090561 0 -0.7660444514056185 1 I I #
point $-1 48.351850576882754 8.9564642001452057 2.1929242448975885 #
edge $-1 $231 1 $231 0 $138 $-1 forward 7 unknown #
vertex $-1 $139 $232 #
ellipse-curve $-1 45.412799905642935 12.693090804383736 1.0321752504269608 0.7660444514056185 0 0.64278759981090561 0.64278759981090561 0 -0.7660444514056185 1 I I #
point $-1 48.351850576882754 12.693090804383736 2.1929242448975885 #
edge $-1 $233 1 $233 0 $142 $-1 forward 7 unknown #
vertex $-1 $143 $234 #
ellipse-curve $-1 45.412799905642935 16.429717408622267 1.0321752504269608 0.7660444514056185 0 0.64278759981090561 0.64278759981090561 0 -0.7660444514056185 1 I I #
point $-1 48.351850576882754 16.429717408622267 2.1929242448975885 #
plane-surface $-1 49.538865321817681 0 0 -1 0 0 0 0 1 forward_v I I I I #
coedge $-1 $151 $149 $153 $208 reversed $101 $-1 #
edge $-1 $164 -5.1396422714839796 $210 5.1396422714839796 $163 $235 forward 7 unknown #
vertex $-1 $208 $236 #
straight-curve $-1 -49.538865321817681 -24.269463095128479 0 0 0 -1 I I #
edge $-1 $206 -24.269463095128479 $210 24.269463095128479 $204 $237 forward 7 unknown #
straight-curve $-1 0 -24.269463095128479 -5.1396422714839796 -1 0 0 I I #
vertex $-1 $156 $238 #
straight-curve $-1 0 24.269463095128479 -5.1396422714839796 1 0 0 I I #
point $-1 49.538865321817681 24.269463095128479 -5.1396422714839796 #
point $-1 49.538865321817681 -24.269463095128479 -5.1396422714839796 #
straight-curve $-1 -49.538865321817681 0 5.1396422714839796 0 -1 0 I I #
point $-1 -49.538865321817681 24.269463095128479 5.1396422714839796 #
point $-1 -49.538865321817681 -24.269463095128479 5.1396422714839796 #
straight-curve $-1 49.538865321817681 -24.269463095128479 0 0 0 -1 I I #
straight-curve $-1 49.538865321817681 24.269463095128479 0 0 0 -1 I I #
coedge $-1 $184 $183 $176 $220 forward $173 $-1 #
edge $-1 $221 65.041446535352762 $224 69.402793685714357 $219 $239 forward 7 unknown #
vertex $-1 $188 $240 #
straight-curve $-1 30.875437232050587 6.4653797973195175 5.1396422714839787 1 0 0 I I #
edge $-1 $224 0.11883439512764937 $185 12.574256409256087 $184 $241 forward 7 unknown #
vertex $-1 $223 $242 #
straight-curve $-1 -14.147071353316122 6.4653797973195175 76.676240938539692 -0.64278759981090561 0 0.7660444514056185 I I #
point $-1 45.87926063232603 6.4653797973195175 5.1396422714839787 #
point $-1 49.538865321817688 18.920801811447955 0.77829512112238319 #
straight-curve $-1 49.538865321817681 0 5.1396422714839796 0 1 0 I I #
vertex $-1 $191 $243 #
point $-1 46.055587505453843 8.9564642001452057 0.26613079902134229 #
vertex $-1 $195 $244 #
point $-1 46.055587505453843 12.693090804383736 0.26613079902134229 #
vertex $-1 $199 $245 #
point $-1 46.055587505453843 16.429717408622267 0.26613079902134229 #
straight-curve $-1 -49.538865321817681 24.269463095128479 0 0 0 -1 I I #
point $-1 -49.538865321817681 -24.269463095128479 -5.1396422714839796 #
straight-curve $-1 -49.538865321817681 0 -5.1396422714839796 0 1 0 I I #
point $-1 -49.538865321817681 24.269463095128479 -5.1396422714839796 #
straight-curve $-1 49.538865321817681 6.4653797973195175 70.18108880683674 0 0 -1 I I #
point $-1 49.538865321817681 6.4653797973195175 5.1396422714839796 #
straight-curve $-1 49.538865321817681 6.3465454021918681 0.7782951211223903 0 1 0 I I #
point $-1 49.538865321817688 6.4653797973195175 0.77829512112238319 #
point $-1 44.646755454237315 8.9564642001452057 0.38938765061605518 #
point $-1 44.646755454237315 12.693090804383736 0.38938765061605518 #
point $-1 44.646755454237315 16.429717408622267 0.38938765061605518 #
End-of-ACIS-data 