500 0 8 0           
7 Unknown 11 ACIS 5.0 NT 24 Fri Mar 26 01:47:59 1999 
-1 9.9999999999999995e-007 1e-010 
body $-1 $8 $-1 $9 #
body $-1 $10 $-1 $11 #
body $-1 $12 $-1 $13 #
body $-1 $14 $-1 $15 #
body $-1 $16 $-1 $17 #
body $-1 $18 $-1 $19 #
body $-1 $20 $-1 $21 #
body $-1 $22 $-1 $23 #
lump $-1 $-1 $24 $0 #
transform $-1 1 0 0 0 1 0 0 0 1 78.737754448072764 45.819860701049727 14.856670675747939 1 rotate no_reflect no_shear #
lump $-1 $-1 $25 $1 #
transform $-1 1 0 0 0 1 0 0 0 1 78.737754448072764 45.819860701049727 14.856670675747939 1 rotate no_reflect no_shear #
lump $-1 $-1 $26 $2 #
transform $-1 1 0 0 0 1 0 0 0 1 78.737754448072764 45.819860701049727 14.856670675747939 1 rotate no_reflect no_shear #
lump $-1 $-1 $27 $3 #
transform $-1 1 0 0 0 1 0 0 0 1 78.737754448072764 45.819860701049727 14.856670675747939 1 rotate no_reflect no_shear #
lump $-1 $-1 $28 $4 #
transform $-1 1 0 0 0 1 0 0 0 1 78.737754448072764 45.819860701049727 14.856670675747939 1 rotate no_reflect no_shear #
lump $-1 $-1 $29 $5 #
transform $-1 1 0 0 0 1 0 0 0 1 78.737754448072764 45.819860701049727 14.856670675747939 1 rotate no_reflect no_shear #
lump $-1 $-1 $30 $6 #
transform $-1 1 0 0 0 1 0 0 0 1 78.737754448072764 45.819860701049727 14.856670675747939 1 rotate no_reflect no_shear #
lump $-1 $-1 $31 $7 #
transform $-1 1 0 0 0 1 0 0 0 1 78.737754448072764 45.819860701049727 14.856670675747939 1 rotate no_reflect no_shear #
shell $-1 $-1 $-1 $32 $-1 $8 #
shell $-1 $-1 $-1 $33 $-1 $10 #
shell $-1 $-1 $-1 $34 $-1 $12 #
shell $-1 $-1 $-1 $35 $-1 $14 #
shell $-1 $-1 $-1 $36 $-1 $16 #
shell $-1 $-1 $-1 $37 $-1 $18 #
shell $-1 $-1 $-1 $38 $-1 $20 #
shell $-1 $-1 $-1 $39 $-1 $22 #
face $-1 $40 $41 $24 $-1 $42 forward single #
face $-1 $43 $44 $25 $-1 $45 reversed single #
face $-1 $46 $47 $26 $-1 $48 reversed single #
face $-1 $49 $50 $27 $-1 $51 forward single #
face $-1 $52 $53 $28 $-1 $54 forward single #
face $-1 $55 $56 $29 $-1 $57 reversed single #
face $-1 $58 $59 $30 $-1 $60 forward single #
face $-1 $61 $62 $31 $-1 $63 forward single #
face $-1 $64 $65 $24 $-1 $66 reversed single #
loop $-1 $-1 $67 $32 #
plane-surface $-1 0 0 14.856670675747939 0 0 1 1 0 0 forward_v I I I I #
face $-1 $68 $69 $25 $-1 $70 reversed single #
loop $-1 $-1 $71 $33 #
plane-surface $-1 -71.7716004456897 -32.10470669385834 0 0 1 0 0 0 1 forward_v I I I I #
face $-1 $72 $73 $26 $-1 $74 reversed single #
loop $-1 $-1 $75 $34 #
plane-surface $-1 27.053925970654575 -177.88993644495963 90.965614429314812 -1 0 0 0 -0.83867057594974714 0.54463902268945019 forward_v I I I I #
face $-1 $76 $77 $27 $-1 $78 forward single #
loop $-1 $79 $80 $35 #
cone-surface $-1 16.181280579662854 -41.41608553426606 9.2042557440183934 0 0.83867057594974714 -0.54463902268945019 2 0 0 1 I I 0 1 2 forward I I I I #
face $-1 $81 $82 $28 $-1 $83 forward single #
loop $-1 $84 $85 $36 #
cone-surface $-1 22.704867814257881 -41.41608553426606 9.2042557440183934 0 0.83867057594974714 -0.54463902268945019 2 0 0 1 I I 0 1 2 forward I I I I #
face $-1 $86 $87 $29 $-1 $88 reversed single #
loop $-1 $-1 $89 $37 #
plane-surface $-1 40.595223980188877 110.53057339923581 177.46539818965053 1 0 0 0 -0.77714596973225614 -0.62932038083071107 forward_v I I I I #
face $-1 $90 $91 $30 $-1 $92 forward single #
loop $-1 $93 $94 $38 #
cone-surface $-1 51.493089828155689 42.199094809050891 10.597332301646535 0 -0.77714596973225614 -0.62932038083071107 1 0 0 1 I I 0 1 1 forward I I I I #
face $-1 $95 $96 $31 $-1 $97 forward single #
loop $-1 $98 $99 $39 #
cone-surface $-1 67.839888600105922 42.199094809050891 10.597332301646535 0 -0.77714596973225614 -0.62932038083071107 1 0 0 1 I I 0 1 1 forward I I I I #
face $-1 $100 $101 $24 $-1 $102 reversed single #
loop $-1 $-1 $103 $40 #
plane-surface $-1 0 0 -14.856670675747939 0 0 1 1 0 0 forward_v I I I I #
coedge $-1 $104 $105 $106 $107 forward $41 $-1 #
face $-1 $108 $109 $25 $-1 $110 reversed single #
loop $-1 $-1 $111 $43 #
plane-surface $-1 -71.7716004456897 -28.831587225850146 0 0 -1 0 0 0 -1 forward_v I I I I #
coedge $-1 $112 $113 $114 $115 reversed $44 $-1 #
face $-1 $116 $117 $26 $-1 $118 reversed single #
loop $-1 $-1 $119 $46 #
plane-surface $-1 19.443074196960367 -45.81986070104972 5.1983071665942902 0 -0.83867057594974714 0.54463902268945019 1 0 0 forward_v I I I I #
coedge $-1 $120 $121 $122 $123 reversed $47 $-1 #
face $-1 $-1 $124 $27 $-1 $125 forward single #
loop $-1 $126 $127 $49 #
cone-surface $-1 16.181280579662854 -39.309746990982134 7.8363835441762255 0 0.83867057594974714 -0.54463902268945019 1 0 0 1 I I -0.70710678118654746 0.70710678118654746 1 forward I I I I #
loop $-1 $-1 $128 $35 #
coedge $-1 $80 $80 $129 $130 reversed $50 $-1 #
face $-1 $-1 $131 $28 $-1 $132 forward single #
loop $-1 $133 $134 $52 #
cone-surface $-1 22.704867814257881 -39.309746990982134 7.8363835441762255 0 0.83867057594974714 -0.54463902268945019 1 0 0 1 I I -0.70710678118654746 0.70710678118654746 1 forward I I I I #
loop $-1 $-1 $135 $36 #
coedge $-1 $85 $85 $136 $137 reversed $53 $-1 #
face $-1 $138 $139 $29 $-1 $140 forward single #
loop $-1 $-1 $141 $55 #
plane-surface $-1 59.66648921413082 -11.850883670939737 78.3628509596182 0 0.77714596973225614 0.62932038083071107 1 0 0 forward_v I I I I #
coedge $-1 $142 $143 $144 $145 reversed $56 $-1 #
face $-1 $-1 $146 $30 $-1 $147 forward single #
loop $-1 $148 $149 $58 #
cone-surface $-1 51.493089828155689 41.311983407980286 9.8789636727088386 0 -0.77714596973225614 -0.62932038083071107 0.5 0 0 1 I I -0.70710678118654746 0.70710678118654746 0.5 forward I I I I #
loop $-1 $-1 $150 $38 #
coedge $-1 $94 $94 $151 $152 reversed $59 $-1 #
face $-1 $-1 $153 $31 $-1 $154 forward single #
loop $-1 $155 $156 $61 #
cone-surface $-1 67.839888600105922 41.311983407980286 9.8789636727088386 0 -0.77714596973225614 -0.62932038083071107 0.5 0 0 1 I I -0.70710678118654746 0.70710678118654746 0.5 forward I I I I #
loop $-1 $-1 $157 $39 #
coedge $-1 $99 $99 $158 $159 reversed $62 $-1 #
face $-1 $160 $161 $24 $-1 $162 reversed single #
loop $-1 $-1 $163 $64 #
plane-surface $-1 0 -45.819860701049727 0 0 1 0 0 0 1 forward_v I I I I #
coedge $-1 $164 $165 $166 $167 forward $65 $-1 #
coedge $-1 $168 $67 $169 $170 forward $41 $-1 #
coedge $-1 $67 $168 $171 $172 forward $41 $-1 #
coedge $-1 $173 $174 $67 $107 reversed $175 $-1 #
edge $-1 $176 -45.819860701049727 $177 45.819860701049727 $106 $178 forward 7 unknown #
face $-1 $179 $180 $25 $-1 $181 reversed single #
loop $-1 $-1 $182 $68 #
plane-surface $-1 -64.805446443306636 -30.468146959854241 0 -1 0 0 0 0 1 forward_v I I I I #
coedge $-1 $183 $184 $185 $186 forward $69 $-1 #
coedge $-1 $187 $71 $188 $189 reversed $44 $-1 #
coedge $-1 $71 $187 $190 $191 reversed $44 $-1 #
coedge $-1 $192 $193 $71 $115 forward $194 $-1 #
edge $-1 $195 -14.856670675747939 $196 14.856670675747939 $114 $197 forward 7 unknown #
face $-1 $198 $199 $26 $-1 $200 reversed single #
loop $-1 $-1 $201 $72 #
plane-surface $-1 11.83222242326616 -177.88993644495963 90.965614429314812 1 0 0 0 0.83867057594974714 -0.54463902268945019 forward_v I I I I #
coedge $-1 $202 $203 $204 $205 reversed $73 $-1 #
coedge $-1 $121 $75 $206 $207 reversed $47 $-1 #
coedge $-1 $75 $120 $202 $208 reversed $47 $-1 #
coedge $-1 $204 $209 $75 $123 forward $210 $-1 #
edge $-1 $211 43.125107521430088 $212 49.397321920329063 $122 $213 forward 7 unknown #
loop $-1 $-1 $129 $76 #
plane-surface $-1 19.443074196960367 -45.81986070104972 5.1983071665942902 0 -0.83867057594974714 0.54463902268945019 1 0 0 forward_v I I I I #
loop $-1 $-1 $214 $49 #
coedge $-1 $127 $127 $128 $215 reversed $77 $-1 #
coedge $-1 $128 $128 $127 $215 forward $79 $-1 #
coedge $-1 $129 $129 $80 $130 forward $124 $-1 #
edge $-1 $216 -2.6798356127133863e-015 $216 6.2831853071795978 $129 $217 forward 7 unknown #
loop $-1 $-1 $136 $81 #
plane-surface $-1 19.443074196960367 -45.81986070104972 5.1983071665942902 0 -0.83867057594974714 0.54463902268945019 1 0 0 forward_v I I I I #
loop $-1 $-1 $218 $52 #
coedge $-1 $134 $134 $135 $219 reversed $82 $-1 #
coedge $-1 $135 $135 $134 $219 forward $84 $-1 #
coedge $-1 $136 $136 $85 $137 forward $131 $-1 #
edge $-1 $220 -2.6798356127133863e-015 $220 6.2831853071795978 $136 $221 forward 7 unknown #
face $-1 $222 $223 $29 $-1 $224 reversed single #
loop $-1 $-1 $144 $86 #
plane-surface $-1 0 0 14.856670675747939 0 0 1 1 0 0 forward_v I I I I #
coedge $-1 $225 $226 $227 $228 reversed $87 $-1 #
coedge $-1 $143 $89 $229 $230 reversed $56 $-1 #
coedge $-1 $89 $142 $225 $231 reversed $56 $-1 #
coedge $-1 $227 $232 $89 $145 forward $139 $-1 #
edge $-1 $233 9.4454259985681759 $234 15.689880950156862 $144 $235 forward 7 unknown #
loop $-1 $-1 $151 $90 #
plane-surface $-1 59.66648921413082 -11.850883670939737 78.3628509596182 0 0.77714596973225614 0.62932038083071107 1 0 0 forward_v I I I I #
loop $-1 $-1 $236 $58 #
coedge $-1 $149 $149 $150 $237 reversed $91 $-1 #
coedge $-1 $150 $150 $149 $237 forward $93 $-1 #
coedge $-1 $151 $151 $94 $152 forward $146 $-1 #
edge $-1 $238 -1.3204983000468654e-015 $238 6.2831853071795996 $151 $239 forward 7 unknown #
loop $-1 $-1 $158 $95 #
plane-surface $-1 59.66648921413082 -11.850883670939737 78.3628509596182 0 0.77714596973225614 0.62932038083071107 1 0 0 forward_v I I I I #
loop $-1 $-1 $240 $61 #
coedge $-1 $156 $156 $157 $241 reversed $96 $-1 #
coedge $-1 $157 $157 $156 $241 forward $98 $-1 #
coedge $-1 $158 $158 $99 $159 forward $153 $-1 #
edge $-1 $242 -1.3204983000468654e-015 $242 6.2831853071795996 $158 $243 forward 7 unknown #
face $-1 $244 $245 $24 $-1 $246 reversed single #
loop $-1 $-1 $247 $100 #
plane-surface $-1 -78.737754448072764 0 0 1 0 0 0 0 -1 forward_v I I I I #
coedge $-1 $248 $171 $249 $250 forward $101 $-1 #
coedge $-1 $251 $103 $248 $252 forward $65 $-1 #
coedge $-1 $103 $251 $253 $254 forward $65 $-1 #
coedge $-1 $174 $173 $103 $167 reversed $175 $-1 #
edge $-1 $255 -45.819860701049727 $256 45.819860701049727 $166 $257 forward 7 unknown #
coedge $-1 $105 $104 $258 $259 forward $41 $-1 #
coedge $-1 $260 $261 $104 $170 reversed $245 $-1 #
edge $-1 $177 -78.737754448072764 $262 78.737754448072764 $169 $263 forward 7 unknown #
coedge $-1 $163 $264 $105 $172 reversed $101 $-1 #
edge $-1 $265 -78.737754448072764 $176 78.737754448072764 $171 $266 forward 7 unknown #
coedge $-1 $166 $106 $264 $267 forward $175 $-1 #
coedge $-1 $106 $166 $260 $268 reversed $175 $-1 #
loop $-1 $-1 $173 $244 #
vertex $-1 $107 $269 #
vertex $-1 $107 $270 #
straight-curve $-1 78.737754448072764 0 14.856670675747939 0 1 0 I I #
face $-1 $271 $272 $25 $-1 $273 forward single #
loop $-1 $-1 $274 $108 #
plane-surface $-1 0 0 -14.856670675747939 0 0 1 1 0 0 forward_v I I I I #
coedge $-1 $275 $276 $187 $277 forward $109 $-1 #
coedge $-1 $278 $111 $274 $279 reversed $69 $-1 #
coedge $-1 $111 $278 $280 $281 reversed $69 $-1 #
coedge $-1 $276 $275 $111 $186 reversed $109 $-1 #
edge $-1 $282 -14.856670675747939 $283 14.856670675747939 $185 $284 forward 7 unknown #
coedge $-1 $113 $112 $182 $277 reversed $44 $-1 #
coedge $-1 $285 $286 $112 $189 forward $180 $-1 #
edge $-1 $287 28.919646220461786 $195 42.851954225227914 $188 $288 forward 7 unknown #
coedge $-1 $289 $290 $113 $191 forward $272 $-1 #
edge $-1 $196 -42.851954225227914 $291 -28.919646220461786 $190 $292 forward 7 unknown #
coedge $-1 $293 $114 $290 $294 reversed $194 $-1 #
coedge $-1 $114 $293 $285 $295 reversed $194 $-1 #
loop $-1 $-1 $293 $271 #
vertex $-1 $295 $296 #
vertex $-1 $115 $297 #
straight-curve $-1 -78.737754448072764 -32.10470669385834 0 0 0 1 I I #
face $-1 $-1 $210 $26 $-1 $298 forward single #
loop $-1 $-1 $299 $116 #
plane-surface $-1 0 -45.819860701049727 0 0 1 0 0 0 1 forward_v I I I I #
coedge $-1 $300 $301 $302 $303 reversed $117 $-1 #
coedge $-1 $304 $119 $121 $208 forward $73 $-1 #
coedge $-1 $119 $304 $300 $305 forward $73 $-1 #
coedge $-1 $302 $122 $119 $205 forward $210 $-1 #
edge $-1 $212 -17.332388872174391 $306 -2.110685324785976 $204 $307 forward 7 unknown #
coedge $-1 $308 $309 $120 $207 forward $199 $-1 #
edge $-1 $310 -40.284500048063123 $211 -30.626136538909467 $206 $311 forward 7 unknown #
edge $-1 $212 -11.516278007268941 $310 1.2808562293387176e-014 $121 $312 forward 7 unknown #
coedge $-1 $122 $302 $308 $313 forward $210 $-1 #
loop $-1 $-1 $302 $198 #
vertex $-1 $207 $314 #
vertex $-1 $123 $315 #
straight-curve $-1 27.053925970654575 -88.944968222479815 14.856670675747935 0 1 0 I I #
coedge $-1 $214 $214 $-1 $316 reversed $126 $-1 #
edge $-1 $317 0 $317 6.2831853071796004 $127 $318 forward 7 unknown #
vertex $-1 $130 $319 #
ellipse-curve $-1 16.181280579662854 -42.683753501600236 10.027488921171111 0 -0.83867057594974714 0.54463902268945019 2 0 0 1 I I #
coedge $-1 $218 $218 $-1 $320 reversed $133 $-1 #
edge $-1 $321 0 $321 6.2831853071796004 $134 $322 forward 7 unknown #
vertex $-1 $137 $323 #
ellipse-curve $-1 22.704867814257881 -42.683753501600236 10.027488921171111 0 -0.83867057594974714 0.54463902268945019 2 0 0 1 I I #
face $-1 $-1 $324 $29 $-1 $325 reversed single #
loop $-1 $-1 $326 $138 #
plane-surface $-1 78.737754448072764 0 0 -1 0 0 0 0 1 forward_v I I I I #
coedge $-1 $327 $141 $143 $231 forward $87 $-1 #
coedge $-1 $141 $327 $326 $328 reversed $87 $-1 #
coedge $-1 $329 $144 $141 $228 forward $139 $-1 #
edge $-1 $234 10.761979373123467 $330 48.904509841007354 $227 $331 forward 7 unknown #
coedge $-1 $332 $333 $142 $230 forward $324 $-1 #
edge $-1 $334 -81.587288290235392 $233 -73.876028419077329 $229 $335 forward 7 unknown #
edge $-1 $234 81.717184103456816 $334 91.639721402099411 $143 $336 forward 7 unknown #
coedge $-1 $144 $329 $332 $337 forward $139 $-1 #
vertex $-1 $230 $338 #
vertex $-1 $145 $339 #
straight-curve $-1 40.595223980188877 55.265286699617903 14.856670675747935 0 -1 0 I I #
coedge $-1 $236 $236 $-1 $340 reversed $148 $-1 #
edge $-1 $341 0 $341 6.2831853071796004 $149 $342 forward 7 unknown #
vertex $-1 $152 $343 #
ellipse-curve $-1 51.493089828155689 42.697633225255387 11.001040740168897 0 0.77714596973225614 0.62932038083071107 1 0 0 1 I I #
coedge $-1 $240 $240 $-1 $344 reversed $155 $-1 #
edge $-1 $345 0 $345 6.2831853071796004 $156 $346 forward 7 unknown #
vertex $-1 $159 $347 #
ellipse-curve $-1 67.839888600105922 42.697633225255387 11.001040740168897 0 0.77714596973225614 0.62932038083071107 1 0 0 1 I I #
face $-1 $-1 $175 $24 $-1 $348 reversed single #
loop $-1 $-1 $260 $160 #
plane-surface $-1 0 45.819860701049727 0 0 -1 0 0 0 -1 forward_v I I I I #
coedge $-1 $349 $258 $261 $350 forward $161 $-1 #
coedge $-1 $264 $163 $164 $252 reversed $101 $-1 #
coedge $-1 $258 $349 $163 $250 reversed $161 $-1 #
edge $-1 $265 -14.856670675747939 $351 14.856670675747939 $249 $352 forward 7 unknown #
coedge $-1 $165 $164 $349 $353 forward $65 $-1 #
edge $-1 $256 -78.737754448072764 $351 78.737754448072764 $248 $354 forward 7 unknown #
coedge $-1 $261 $260 $165 $254 reversed $245 $-1 #
edge $-1 $355 -78.737754448072764 $255 78.737754448072764 $253 $356 forward 7 unknown #
vertex $-1 $167 $357 #
vertex $-1 $267 $358 #
straight-curve $-1 78.737754448072764 0 -14.856670675747939 0 -1 0 I I #
coedge $-1 $247 $249 $168 $259 reversed $161 $-1 #
edge $-1 $262 -45.819860701049727 $265 45.819860701049727 $258 $359 forward 7 unknown #
coedge $-1 $253 $169 $174 $268 forward $245 $-1 #
coedge $-1 $169 $253 $247 $350 reversed $245 $-1 #
vertex $-1 $170 $360 #
straight-curve $-1 0 45.819860701049727 14.856670675747939 -1 0 0 I I #
coedge $-1 $171 $248 $173 $267 reversed $101 $-1 #
vertex $-1 $259 $361 #
straight-curve $-1 0 -45.819860701049727 14.856670675747939 1 0 0 I I #
edge $-1 $176 -14.856670675747939 $256 14.856670675747939 $173 $362 forward 7 unknown #
edge $-1 $177 -14.856670675747939 $255 14.856670675747939 $174 $363 forward 7 unknown #
point $-1 78.737754448072764 -45.819860701049727 14.856670675747939 #
point $-1 78.737754448072764 45.819860701049727 14.856670675747939 #
face $-1 $-1 $194 $25 $-1 $364 reversed single #
loop $-1 $-1 $280 $179 #
plane-surface $-1 0 0 14.856670675747939 0 0 1 1 0 0 forward_v I I I I #
coedge $-1 $286 $285 $183 $279 forward $180 $-1 #
coedge $-1 $185 $182 $286 $365 reversed $109 $-1 #
coedge $-1 $182 $185 $289 $366 reversed $109 $-1 #
edge $-1 $291 -14.856670675747939 $287 14.856670675747939 $182 $367 forward 7 unknown #
coedge $-1 $184 $183 $293 $368 reversed $69 $-1 #
edge $-1 $369 -42.851954225227914 $283 -28.919646220461786 $274 $370 forward 7 unknown #
coedge $-1 $290 $289 $184 $281 forward $272 $-1 #
edge $-1 $282 28.919646220461786 $371 42.851954225227914 $280 $372 forward 7 unknown #
vertex $-1 $281 $373 #
vertex $-1 $279 $374 #
straight-curve $-1 -64.805446443306636 -28.831587225850146 0 0 0 -1 I I #
coedge $-1 $274 $188 $193 $295 forward $180 $-1 #
coedge $-1 $188 $274 $275 $365 forward $180 $-1 #
vertex $-1 $189 $375 #
straight-curve $-1 -35.88580022284485 -32.10470669385834 -14.856670675747939 -1 0 0 I I #
coedge $-1 $280 $190 $276 $366 forward $272 $-1 #
coedge $-1 $190 $280 $192 $294 forward $272 $-1 #
vertex $-1 $191 $376 #
straight-curve $-1 -35.88580022284485 -32.10470669385834 14.856670675747939 1 0 0 I I #
coedge $-1 $193 $192 $278 $368 forward $194 $-1 #
edge $-1 $371 28.831587225850146 $196 32.10470669385834 $192 $377 forward 7 unknown #
edge $-1 $195 -32.10470669385834 $369 -28.831587225850146 $193 $378 forward 7 unknown #
point $-1 -78.737754448072764 -32.10470669385834 -14.856670675747939 #
point $-1 -78.737754448072764 -32.10470669385834 14.856670675747939 #
plane-surface $-1 0 0 14.856670675747939 0 0 1 1 0 0 forward_v I I I I #
coedge $-1 $309 $308 $301 $379 forward $199 $-1 #
coedge $-1 $301 $201 $203 $305 reversed $117 $-1 #
coedge $-1 $201 $300 $299 $379 reversed $117 $-1 #
coedge $-1 $209 $204 $201 $303 forward $210 $-1 #
edge $-1 $306 -49.397321920329063 $380 -43.125107521430088 $302 $381 forward 7 unknown #
coedge $-1 $203 $202 $309 $382 reversed $73 $-1 #
edge $-1 $383 -1.2808562293387176e-014 $306 11.516278007268941 $300 $384 forward 7 unknown #
vertex $-1 $205 $385 #
straight-curve $-1 9.7215370984801837 -39.547646302150753 14.856670675747939 -1 0 0 I I #
coedge $-1 $299 $206 $209 $313 reversed $199 $-1 #
coedge $-1 $206 $299 $304 $382 forward $199 $-1 #
vertex $-1 $207 $386 #
straight-curve $-1 27.053925970654575 -45.81986070104972 45.482807214657406 0 0 1 I I #
straight-curve $-1 27.053925970654575 -45.81986070104972 5.1983071665942902 0 -0.54463902268945019 -0.83867057594974714 I I #
edge $-1 $380 11.83222242326616 $211 27.053925970654575 $308 $387 forward 7 unknown #
point $-1 27.053925970654575 -45.819860701049727 14.856670675747939 #
point $-1 27.053925970654575 -39.547646302150753 14.856670675747939 #
edge $-1 $388 1 $388 0 $214 $-1 forward 7 unknown #
vertex $-1 $215 $389 #
ellipse-curve $-1 16.181280579662854 -40.148417566931883 8.3810225668656759 0 -0.83867057594974714 0.54463902268945019 2 0 0 1 I I #
point $-1 18.181280579662854 -42.683753501600243 10.027488921171109 #
edge $-1 $390 1 $390 0 $218 $-1 forward 7 unknown #
vertex $-1 $219 $391 #
ellipse-curve $-1 22.704867814257881 -40.148417566931883 8.3810225668656759 0 -0.83867057594974714 0.54463902268945019 2 0 0 1 I I #
point $-1 24.704867814257881 -42.683753501600243 10.027488921171109 #
loop $-1 $-1 $229 $222 #
plane-surface $-1 0 45.819860701049727 0 0 -1 0 0 0 -1 forward_v I I I I #
coedge $-1 $392 $393 $226 $328 forward $223 $-1 #
coedge $-1 $226 $225 $333 $394 reversed $87 $-1 #
edge $-1 $330 47.538495890970324 $395 57.461033189612905 $326 $396 forward 7 unknown #
coedge $-1 $232 $227 $393 $397 forward $139 $-1 #
vertex $-1 $397 $398 #
straight-curve $-1 29.83324460706541 39.575405749461041 14.856670675747942 1 0 0 I I #
coedge $-1 $399 $229 $232 $337 reversed $324 $-1 #
coedge $-1 $229 $399 $327 $394 forward $324 $-1 #
vertex $-1 $230 $400 #
straight-curve $-1 40.595223980188877 45.819860701049727 88.732699094825264 0 0 1 I I #
straight-curve $-1 40.595223980188877 -11.850883670939737 78.3628509596182 0 0.62932038083071107 -0.77714596973225614 I I #
edge $-1 $401 -78.737754448072764 $233 -40.595223980188877 $332 $402 forward 7 unknown #
point $-1 40.595223980188877 45.819860701049727 14.856670675747939 #
point $-1 40.595223980188877 39.575405749461041 14.856670675747935 #
edge $-1 $403 1 $403 0 $236 $-1 forward 7 unknown #
vertex $-1 $237 $404 #
ellipse-curve $-1 51.493089828155689 41.700556392846416 10.193623863124195 0 0.77714596973225614 0.62932038083071107 1 0 0 1 I I #
point $-1 52.493089828155689 42.697633225255359 11.001040740168875 #
edge $-1 $405 1 $405 0 $240 $-1 forward 7 unknown #
vertex $-1 $241 $406 #
ellipse-curve $-1 67.839888600105922 41.700556392846416 10.193623863124195 0 0.77714596973225614 0.62932038083071107 1 0 0 1 I I #
point $-1 68.839888600105922 42.697633225255359 11.001040740168875 #
plane-surface $-1 78.737754448072764 0 0 -1 0 0 0 0 1 forward_v I I I I #
coedge $-1 $249 $247 $251 $353 reversed $161 $-1 #
edge $-1 $262 -14.856670675747939 $355 14.856670675747939 $261 $407 forward 7 unknown #
vertex $-1 $353 $408 #
straight-curve $-1 -78.737754448072764 -45.819860701049727 0 0 0 -1 I I #
edge $-1 $351 -45.819860701049727 $355 45.819860701049727 $349 $409 forward 7 unknown #
straight-curve $-1 0 -45.819860701049727 -14.856670675747939 -1 0 0 I I #
vertex $-1 $254 $410 #
straight-curve $-1 0 45.819860701049727 -14.856670675747939 1 0 0 I I #
point $-1 78.737754448072764 45.819860701049727 -14.856670675747939 #
point $-1 78.737754448072764 -45.819860701049727 -14.856670675747939 #
straight-curve $-1 -78.737754448072764 0 14.856670675747939 0 -1 0 I I #
point $-1 -78.737754448072764 45.819860701049727 14.856670675747939 #
point $-1 -78.737754448072764 -45.819860701049727 14.856670675747939 #
straight-curve $-1 78.737754448072764 -45.819860701049727 0 0 0 -1 I I #
straight-curve $-1 78.737754448072764 45.819860701049727 0 0 0 -1 I I #
plane-surface $-1 -78.737754448072764 0 0 1 0 0 0 0 -1 forward_v I I I I #
edge $-1 $283 13.597513745923026 $287 16.870633213931221 $286 $411 forward 7 unknown #
edge $-1 $291 -16.870633213931221 $282 -13.597513745923026 $289 $412 forward 7 unknown #
straight-curve $-1 -64.805446443306636 -32.10470669385834 0 0 0 -1 I I #
edge $-1 $371 -14.856670675747939 $369 14.856670675747939 $293 $413 forward 7 unknown #
vertex $-1 $368 $414 #
straight-curve $-1 -35.88580022284485 -28.831587225850146 -14.856670675747939 1 0 0 I I #
vertex $-1 $294 $415 #
straight-curve $-1 -35.88580022284485 -28.831587225850146 14.856670675747939 -1 0 0 I I #
point $-1 -64.805446443306636 -28.831587225850146 14.856670675747939 #
point $-1 -64.805446443306636 -28.831587225850146 -14.856670675747939 #
point $-1 -64.805446443306636 -32.10470669385834 -14.856670675747939 #
point $-1 -64.805446443306636 -32.10470669385834 14.856670675747939 #
straight-curve $-1 -78.737754448072764 0 14.856670675747939 0 -1 0 I I #
straight-curve $-1 -78.737754448072764 0 -14.856670675747939 0 1 0 I I #
edge $-1 $380 30.626136538909467 $383 40.284500048063123 $299 $416 forward 7 unknown #
vertex $-1 $313 $417 #
straight-curve $-1 11.83222242326616 -88.944968222479815 14.856670675747935 0 -1 0 I I #
edge $-1 $383 2.110685324785976 $310 17.332388872174391 $309 $418 forward 7 unknown #
vertex $-1 $382 $419 #
straight-curve $-1 11.83222242326616 -45.81986070104972 5.1983071665942902 0 0.54463902268945019 0.83867057594974714 I I #
point $-1 11.83222242326616 -39.547646302150753 14.856670675747939 #
point $-1 27.053925970654575 -45.819860701049727 5.1983071665942795 #
straight-curve $-1 0 -45.819860701049727 14.856670675747939 1 0 0 I I #
vertex $-1 $316 $420 #
point $-1 18.181280579662854 -40.148417566931883 8.3810225668656759 #
vertex $-1 $320 $421 #
point $-1 24.704867814257881 -40.148417566931883 8.3810225668656759 #
coedge $-1 $393 $326 $399 $422 reversed $223 $-1 #
coedge $-1 $326 $392 $329 $397 reversed $223 $-1 #
edge $-1 $395 -48.904509841007354 $334 -10.761979373123467 $333 $423 forward 7 unknown #
vertex $-1 $328 $424 #
straight-curve $-1 78.737754448072764 9.6584614112364022 51.801021164548949 0 0.62932038083071107 -0.77714596973225614 I I #
edge $-1 $330 39.575405749461041 $401 45.819860701049727 $393 $425 forward 7 unknown #
point $-1 78.737754448072764 39.575405749461041 14.856670675747935 #
coedge $-1 $333 $332 $392 $422 forward $324 $-1 #
point $-1 40.595223980188877 45.819860701049727 7.1454108045898721 #
vertex $-1 $397 $426 #
straight-curve $-1 0 45.819860701049727 14.856670675747939 -1 0 0 I I #
vertex $-1 $340 $427 #
point $-1 52.493089828155689 41.700556392846416 10.193623863124195 #
vertex $-1 $344 $428 #
point $-1 68.839888600105922 41.700556392846416 10.193623863124195 #
straight-curve $-1 -78.737754448072764 45.819860701049727 0 0 0 -1 I I #
point $-1 -78.737754448072764 -45.819860701049727 -14.856670675747939 #
straight-curve $-1 -78.737754448072764 0 -14.856670675747939 0 1 0 I I #
point $-1 -78.737754448072764 45.819860701049727 -14.856670675747939 #
straight-curve $-1 -64.805446443306636 -15.234073479927121 -14.856670675747939 0 -1 0 I I #
straight-curve $-1 -64.805446443306636 -15.234073479927121 14.856670675747939 0 1 0 I I #
straight-curve $-1 -78.737754448072764 -28.831587225850146 0 0 0 -1 I I #
point $-1 -78.737754448072764 -28.831587225850146 -14.856670675747939 #
point $-1 -78.737754448072764 -28.831587225850146 14.856670675747939 #
straight-curve $-1 11.83222242326616 -45.81986070104972 45.482807214657406 0 0 -1 I I #
point $-1 11.83222242326616 -45.819860701049727 14.856670675747939 #
straight-curve $-1 9.7215370984801837 -45.819860701049727 5.1983071665942777 1 0 0 I I #
point $-1 11.83222242326616 -45.819860701049727 5.1983071665942795 #
point $-1 16.181280579662854 -38.471076415032385 7.2917445214867751 #
point $-1 22.704867814257881 -38.471076415032385 7.2917445214867751 #
edge $-1 $401 -14.856670675747939 $395 -7.1454108045898721 $392 $429 forward 7 unknown #
straight-curve $-1 29.83324460706541 45.819860701049727 7.1454108045898721 -1 0 0 I I #
point $-1 78.737754448072764 45.819860701049727 7.1454108045898721 #
straight-curve $-1 78.737754448072764 0 14.856670675747939 0 1 0 I I #
point $-1 78.737754448072764 45.819860701049727 14.856670675747939 #
point $-1 51.493089828155689 40.923410423114156 9.5643034822934823 #
point $-1 67.839888600105922 40.923410423114156 9.5643034822934823 #
straight-curve $-1 78.737754448072764 45.819860701049727 0 0 0 -1 I I #
End-of-ACIS-data 