500 0 10 0           
7 Unknown 11 ACIS 5.0 NT 24 Fri Mar 26 02:30:09 1999 
-1 9.9999999999999995e-007 1e-010 
body $-1 $10 $-1 $11 #
body $-1 $12 $-1 $13 #
body $-1 $14 $-1 $15 #
body $-1 $16 $-1 $17 #
body $-1 $18 $-1 $19 #
body $-1 $20 $-1 $21 #
body $-1 $22 $-1 $23 #
body $-1 $24 $-1 $25 #
body $-1 $26 $-1 $27 #
body $-1 $28 $-1 $29 #
lump $-1 $-1 $30 $0 #
transform $-1 1 0 0 0 1 0 0 0 1 59.524521622363963 33.05266780646955 11.006628155470214 1 rotate no_reflect no_shear #
lump $-1 $-1 $31 $1 #
transform $-1 1 0 0 0 1 0 0 0 1 59.524521622363963 33.05266780646955 11.006628155470214 1 rotate no_reflect no_shear #
lump $-1 $-1 $32 $2 #
transform $-1 1 0 0 0 1 0 0 0 1 59.524521622363963 33.05266780646955 11.006628155470214 1 rotate no_reflect no_shear #
lump $-1 $-1 $33 $3 #
transform $-1 1 0 0 0 1 0 0 0 1 59.524521622363963 33.05266780646955 11.006628155470214 1 rotate no_reflect no_shear #
lump $-1 $-1 $34 $4 #
transform $-1 1 0 0 0 1 0 0 0 1 59.524521622363963 33.05266780646955 11.006628155470214 1 rotate no_reflect no_shear #
lump $-1 $-1 $35 $5 #
transform $-1 1 0 0 0 1 0 0 0 1 59.524521622363963 33.05266780646955 11.006628155470214 1 rotate no_reflect no_shear #
lump $-1 $-1 $36 $6 #
transform $-1 1 0 0 0 1 0 0 0 1 59.524521622363963 33.05266780646955 11.006628155470214 1 rotate no_reflect no_shear #
lump $-1 $-1 $37 $7 #
transform $-1 1 0 0 0 1 0 0 0 1 59.524521622363963 33.05266780646955 11.006628155470214 1 rotate no_reflect no_shear #
lump $-1 $-1 $38 $8 #
transform $-1 1 0 0 0 1 0 0 0 1 59.524521622363963 33.05266780646955 11.006628155470214 1 rotate no_reflect no_shear #
lump $-1 $-1 $39 $9 #
transform $-1 1 0 0 0 1 0 0 0 1 59.524521622363963 33.05266780646955 11.006628155470214 1 rotate no_reflect no_shear #
shell $-1 $-1 $-1 $40 $-1 $10 #
shell $-1 $-1 $-1 $41 $-1 $12 #
shell $-1 $-1 $-1 $42 $-1 $14 #
shell $-1 $-1 $-1 $43 $-1 $16 #
shell $-1 $-1 $-1 $44 $-1 $18 #
shell $-1 $-1 $-1 $45 $-1 $20 #
shell $-1 $-1 $-1 $46 $-1 $22 #
shell $-1 $-1 $-1 $47 $-1 $24 #
shell $-1 $-1 $-1 $48 $-1 $26 #
shell $-1 $-1 $-1 $49 $-1 $28 #
face $-1 $50 $51 $30 $-1 $52 forward single #
face $-1 $53 $54 $31 $-1 $55 forward single #
face $-1 $56 $57 $32 $-1 $58 reversed single #
face $-1 $59 $60 $33 $-1 $61 forward single #
face $-1 $62 $63 $34 $-1 $64 reversed single #
face $-1 $65 $66 $35 $-1 $67 forward single #
face $-1 $68 $69 $36 $-1 $70 reversed single #
face $-1 $71 $72 $37 $-1 $73 forward single #
face $-1 $74 $75 $38 $-1 $76 reversed single #
face $-1 $77 $78 $39 $-1 $79 forward single #
face $-1 $80 $81 $30 $-1 $82 reversed single #
loop $-1 $-1 $83 $40 #
plane-surface $-1 0 0 11.006628155470214 0 0 1 1 0 0 forward_v I I I I #
face $-1 $84 $85 $31 $-1 $86 reversed single #
loop $-1 $-1 $87 $41 #
plane-surface $-1 0 -33.05266780646955 0 0 1 0 0 0 1 forward_v I I I I #
face $-1 $88 $89 $32 $-1 $90 reversed single #
loop $-1 $-1 $91 $42 #
plane-surface $-1 -150.72138064513533 -12.510165873782803 82.265237811693467 0 1 0 -0.7660444514056185 0 0.64278759981090561 forward_v I I I I #
face $-1 $92 $93 $33 $-1 $94 forward single #
loop $-1 $95 $96 $43 #
cone-surface $-1 -56.260646655816885 -5.7899591072793868 7.4889774080867202 0.7660444514056185 0 -0.64278759981090561 0.64278759981090561 0 0.7660444514056185 1 I I 0 1 1 forward I I I I #
face $-1 $97 $98 $34 $-1 $99 reversed single #
loop $-1 $-1 $100 $44 #
plane-surface $-1 -150.72138064513533 8.5564265179810519 82.265237811693467 0 1 0 -0.7660444514056185 0 0.64278759981090561 forward_v I I I I #
face $-1 $101 $102 $35 $-1 $103 forward single #
loop $-1 $104 $105 $45 #
cone-surface $-1 -56.260646655816885 15.276633284484468 7.4889774080867202 0.7660444514056185 0 -0.64278759981090561 0.64278759981090561 0 0.7660444514056185 1 I I 0 1 1 forward I I I I #
face $-1 $106 $107 $36 $-1 $108 reversed single #
loop $-1 $-1 $109 $46 #
plane-surface $-1 74.198131878071948 0.93024765922402963 173.4620968344648 0 -1 0 -0.7660444514056185 0 -0.64278759981090561 forward_v I I I I #
face $-1 $110 $111 $37 $-1 $112 forward single #
loop $-1 $113 $114 $47 #
cone-surface $-1 56.260646655816899 -5.7899591072793868 7.4889774080867166 -0.7660444514056185 0 -0.64278759981090561 0.64278759981090561 0 -0.7660444514056185 1 I I 0 1 1 forward I I I I #
face $-1 $115 $116 $38 $-1 $117 reversed single #
loop $-1 $-1 $118 $48 #
plane-surface $-1 74.198131878071948 21.996840050987885 173.4620968344648 0 -1 0 -0.7660444514056185 0 -0.64278759981090561 forward_v I I I I #
face $-1 $119 $120 $39 $-1 $121 forward single #
loop $-1 $122 $123 $49 #
cone-surface $-1 56.260646655816899 15.276633284484468 7.4889774080867166 -0.7660444514056185 0 -0.64278759981090561 0.64278759981090561 0 -0.7660444514056185 1 I I 0 1 1 forward I I I I #
face $-1 $124 $125 $30 $-1 $126 reversed single #
loop $-1 $-1 $127 $50 #
plane-surface $-1 0 0 -11.006628155470214 0 0 1 1 0 0 forward_v I I I I #
coedge $-1 $128 $129 $130 $131 forward $51 $-1 #
face $-1 $132 $133 $31 $-1 $134 reversed single #
loop $-1 $-1 $135 $53 #
plane-surface $-1 0 0 -11.006628155470214 0 0 1 1 0 0 forward_v I I I I #
coedge $-1 $136 $137 $138 $139 forward $54 $-1 #
face $-1 $140 $141 $32 $-1 $142 reversed single #
loop $-1 $-1 $143 $56 #
plane-surface $-1 -59.524521622363963 -5.7899591072793868 5.7419890446301025 -0.7660444514056185 0 0.64278759981090561 0.64278759981090561 0 0.7660444514056185 forward_v I I I I #
coedge $-1 $144 $145 $146 $147 reversed $57 $-1 #
face $-1 $-1 $148 $33 $-1 $149 forward single #
loop $-1 $150 $151 $59 #
cone-surface $-1 -54.822527773832235 -5.7899591072793868 6.2822524162178297 0.7660444514056185 0 -0.64278759981090561 0.3213937999054528 0 0.38302222570280925 1 I I -0.70710678118654746 0.70710678118654746 0.5 forward I I I I #
loop $-1 $-1 $152 $43 #
coedge $-1 $96 $96 $153 $154 reversed $60 $-1 #
face $-1 $155 $156 $34 $-1 $157 reversed single #
loop $-1 $-1 $158 $62 #
plane-surface $-1 -59.524521622363963 15.276633284484468 5.7419890446301025 -0.7660444514056185 0 0.64278759981090561 0.64278759981090561 0 0.7660444514056185 forward_v I I I I #
coedge $-1 $159 $160 $161 $162 reversed $63 $-1 #
face $-1 $-1 $163 $35 $-1 $164 forward single #
loop $-1 $165 $166 $65 #
cone-surface $-1 -54.822527773832235 15.276633284484468 6.2822524162178297 0.7660444514056185 0 -0.64278759981090561 0.3213937999054528 0 0.38302222570280925 1 I I -0.70710678118654746 0.70710678118654746 0.5 forward I I I I #
loop $-1 $-1 $167 $45 #
coedge $-1 $105 $105 $168 $169 reversed $66 $-1 #
face $-1 $170 $171 $36 $-1 $172 reversed single #
loop $-1 $-1 $173 $68 #
plane-surface $-1 -16.998727144699416 -5.7899591072793868 96.938848067401437 0.7660444514056185 0 0.64278759981090561 0.64278759981090561 0 -0.7660444514056185 forward_v I I I I #
coedge $-1 $174 $175 $176 $177 reversed $69 $-1 #
face $-1 $-1 $178 $37 $-1 $179 forward single #
loop $-1 $180 $181 $71 #
cone-surface $-1 54.822527773832249 -5.7899591072793868 6.2822524162178262 -0.7660444514056185 0 -0.64278759981090561 0.3213937999054528 0 -0.38302222570280925 1 I I -0.70710678118654746 0.70710678118654746 0.5 forward I I I I #
loop $-1 $-1 $182 $47 #
coedge $-1 $114 $114 $183 $184 reversed $72 $-1 #
face $-1 $185 $186 $38 $-1 $187 reversed single #
loop $-1 $-1 $188 $74 #
plane-surface $-1 -16.998727144699416 15.276633284484468 96.938848067401437 0.7660444514056185 0 0.64278759981090561 0.64278759981090561 0 -0.7660444514056185 forward_v I I I I #
coedge $-1 $189 $190 $191 $192 reversed $75 $-1 #
face $-1 $-1 $193 $39 $-1 $194 forward single #
loop $-1 $195 $196 $77 #
cone-surface $-1 54.822527773832249 15.276633284484468 6.2822524162178262 -0.7660444514056185 0 -0.64278759981090561 0.3213937999054528 0 -0.38302222570280925 1 I I -0.70710678118654746 0.70710678118654746 0.5 forward I I I I #
loop $-1 $-1 $197 $49 #
coedge $-1 $123 $123 $198 $199 reversed $78 $-1 #
face $-1 $200 $201 $30 $-1 $202 reversed single #
loop $-1 $-1 $203 $80 #
plane-surface $-1 0 -33.05266780646955 0 0 1 0 0 0 1 forward_v I I I I #
coedge $-1 $204 $205 $206 $207 forward $81 $-1 #
coedge $-1 $208 $83 $209 $210 forward $51 $-1 #
coedge $-1 $83 $208 $211 $212 forward $51 $-1 #
coedge $-1 $213 $214 $83 $131 reversed $215 $-1 #
edge $-1 $216 -33.05266780646955 $217 33.05266780646955 $130 $218 forward 7 unknown #
face $-1 $219 $220 $31 $-1 $221 reversed single #
loop $-1 $-1 $222 $84 #
plane-surface $-1 -47.43368467704444 -42.539341983674639 0 0 1 0 0 0 1 forward_v I I I I #
coedge $-1 $223 $224 $137 $225 forward $85 $-1 #
coedge $-1 $226 $87 $227 $228 reversed $54 $-1 #
coedge $-1 $87 $226 $135 $225 reversed $54 $-1 #
coedge $-1 $229 $230 $87 $139 reversed $220 $-1 #
edge $-1 $231 -11.006628155470214 $232 11.006628155470214 $138 $233 forward 7 unknown #
face $-1 $234 $235 $32 $-1 $236 reversed single #
loop $-1 $-1 $237 $88 #
plane-surface $-1 -150.72138064513533 0.93024765922402963 82.265237811693467 0 -1 0 0.7660444514056185 0 -0.64278759981090561 forward_v I I I I #
coedge $-1 $238 $239 $240 $241 reversed $89 $-1 #
coedge $-1 $145 $91 $242 $243 reversed $57 $-1 #
coedge $-1 $91 $144 $238 $244 reversed $57 $-1 #
coedge $-1 $240 $245 $91 $147 forward $246 $-1 #
edge $-1 $247 15.8361687002037 $248 20.253725320734191 $146 $249 forward 7 unknown #
loop $-1 $-1 $153 $92 #
plane-surface $-1 -59.524521622363963 -5.7899591072793868 5.7419890446301025 -0.7660444514056185 0 0.64278759981090561 0.64278759981090561 0 0.7660444514056185 forward_v I I I I #
loop $-1 $-1 $250 $59 #
coedge $-1 $151 $151 $152 $251 reversed $93 $-1 #
coedge $-1 $152 $152 $151 $251 forward $95 $-1 #
coedge $-1 $153 $153 $96 $154 forward $148 $-1 #
edge $-1 $252 0 $252 6.2831853071796004 $153 $253 forward 7 unknown #
face $-1 $254 $255 $34 $-1 $256 forward single #
loop $-1 $-1 $257 $97 #
plane-surface $-1 -150.72138064513533 21.996840050987885 82.265237811693467 0 -1 0 0.7660444514056185 0 -0.64278759981090561 forward_v I I I I #
coedge $-1 $258 $259 $260 $261 reversed $98 $-1 #
coedge $-1 $160 $100 $262 $263 reversed $63 $-1 #
coedge $-1 $100 $159 $258 $264 reversed $63 $-1 #
coedge $-1 $260 $265 $100 $162 forward $255 $-1 #
edge $-1 $266 15.8361687002037 $267 20.253725320734191 $161 $268 forward 7 unknown #
loop $-1 $-1 $168 $101 #
plane-surface $-1 -59.524521622363963 15.276633284484468 5.7419890446301025 -0.7660444514056185 0 0.64278759981090561 0.64278759981090561 0 0.7660444514056185 forward_v I I I I #
loop $-1 $-1 $269 $65 #
coedge $-1 $166 $166 $167 $270 reversed $102 $-1 #
coedge $-1 $167 $167 $166 $270 forward $104 $-1 #
coedge $-1 $168 $168 $105 $169 forward $163 $-1 #
edge $-1 $271 0 $271 6.2831853071796004 $168 $272 forward 7 unknown #
face $-1 $273 $274 $36 $-1 $275 forward single #
loop $-1 $-1 $276 $106 #
plane-surface $-1 74.198131878071948 -12.510165873782803 173.4620968344648 0 1 0 0.7660444514056185 0 0.64278759981090561 forward_v I I I I #
coedge $-1 $277 $278 $279 $280 reversed $107 $-1 #
coedge $-1 $175 $109 $281 $282 reversed $69 $-1 #
coedge $-1 $109 $174 $277 $283 reversed $69 $-1 #
coedge $-1 $279 $284 $109 $177 forward $274 $-1 #
edge $-1 $285 -22.425455683327989 $286 -18.00789906279747 $176 $287 forward 7 unknown #
loop $-1 $-1 $183 $110 #
plane-surface $-1 -16.998727144699416 -5.7899591072793868 96.938848067401437 0.7660444514056185 0 0.64278759981090561 0.64278759981090561 0 -0.7660444514056185 forward_v I I I I #
loop $-1 $-1 $288 $71 #
coedge $-1 $181 $181 $182 $289 reversed $111 $-1 #
coedge $-1 $182 $182 $181 $289 forward $113 $-1 #
coedge $-1 $183 $183 $114 $184 forward $178 $-1 #
edge $-1 $290 0 $290 6.2831853071796004 $183 $291 forward 7 unknown #
face $-1 $292 $293 $38 $-1 $294 reversed single #
loop $-1 $-1 $295 $115 #
plane-surface $-1 74.198131878071948 8.5564265179810519 173.4620968344648 0 1 0 0.7660444514056185 0 0.64278759981090561 forward_v I I I I #
coedge $-1 $296 $297 $298 $299 reversed $116 $-1 #
coedge $-1 $190 $118 $300 $301 reversed $75 $-1 #
coedge $-1 $118 $189 $296 $302 reversed $75 $-1 #
coedge $-1 $298 $303 $118 $192 forward $304 $-1 #
edge $-1 $305 -22.425455683327989 $306 -18.00789906279747 $191 $307 forward 7 unknown #
loop $-1 $-1 $198 $119 #
plane-surface $-1 -16.998727144699416 15.276633284484468 96.938848067401437 0.7660444514056185 0 0.64278759981090561 0.64278759981090561 0 -0.7660444514056185 forward_v I I I I #
loop $-1 $-1 $308 $77 #
coedge $-1 $196 $196 $197 $309 reversed $120 $-1 #
coedge $-1 $197 $197 $196 $309 forward $122 $-1 #
coedge $-1 $198 $198 $123 $199 forward $193 $-1 #
edge $-1 $310 0 $310 6.2831853071796004 $198 $311 forward 7 unknown #
face $-1 $312 $313 $30 $-1 $314 reversed single #
loop $-1 $-1 $315 $124 #
plane-surface $-1 -59.524521622363963 0 0 1 0 0 0 0 -1 forward_v I I I I #
coedge $-1 $316 $211 $317 $318 forward $125 $-1 #
coedge $-1 $319 $127 $316 $320 forward $81 $-1 #
coedge $-1 $127 $319 $321 $322 forward $81 $-1 #
coedge $-1 $214 $213 $127 $207 reversed $215 $-1 #
edge $-1 $323 -33.05266780646955 $324 33.05266780646955 $206 $325 forward 7 unknown #
coedge $-1 $129 $128 $326 $327 forward $51 $-1 #
coedge $-1 $328 $329 $128 $210 reversed $313 $-1 #
edge $-1 $217 -59.524521622363963 $330 59.524521622363963 $209 $331 forward 7 unknown #
coedge $-1 $203 $332 $129 $212 reversed $125 $-1 #
edge $-1 $333 -59.524521622363963 $216 59.524521622363963 $211 $334 forward 7 unknown #
coedge $-1 $206 $130 $332 $335 forward $215 $-1 #
coedge $-1 $130 $206 $328 $336 reversed $215 $-1 #
loop $-1 $-1 $213 $312 #
vertex $-1 $131 $337 #
vertex $-1 $131 $338 #
straight-curve $-1 59.524521622363963 0 11.006628155470214 0 1 0 I I #
face $-1 $339 $340 $31 $-1 $341 reversed single #
loop $-1 $-1 $138 $132 #
plane-surface $-1 -48.93368467704444 -37.796004895072095 0 1 0 0 0 0 -1 forward_v I I I I #
coedge $-1 $342 $343 $344 $345 forward $133 $-1 #
coedge $-1 $346 $135 $347 $348 forward $85 $-1 #
coedge $-1 $135 $346 $229 $349 forward $85 $-1 #
edge $-1 $231 -48.93368467704444 $350 -45.93368467704444 $135 $351 forward 7 unknown #
coedge $-1 $137 $136 $352 $353 forward $54 $-1 #
coedge $-1 $354 $355 $136 $228 forward $356 $-1 #
edge $-1 $357 45.93368467704444 $232 48.93368467704444 $227 $358 forward 7 unknown #
coedge $-1 $344 $138 $224 $349 reversed $220 $-1 #
coedge $-1 $138 $344 $354 $359 reversed $220 $-1 #
vertex $-1 $225 $360 #
vertex $-1 $359 $361 #
straight-curve $-1 -48.93368467704444 -33.05266780646955 0 0 0 1 I I #
face $-1 $-1 $246 $32 $-1 $362 forward single #
loop $-1 $-1 $363 $140 #
plane-surface $-1 -59.524521622363963 0 0 1 0 0 0 0 -1 forward_v I I I I #
coedge $-1 $364 $365 $366 $367 reversed $141 $-1 #
coedge $-1 $368 $143 $145 $244 forward $89 $-1 #
coedge $-1 $143 $368 $364 $369 forward $89 $-1 #
coedge $-1 $366 $146 $143 $241 forward $246 $-1 #
edge $-1 $248 -9.6151863201431098 $370 3.825227212863723 $240 $371 forward 7 unknown #
coedge $-1 $372 $373 $144 $243 forward $235 $-1 #
edge $-1 $374 -35.390629861216631 $247 -30.12599075037652 $242 $375 forward 7 unknown #
edge $-1 $248 -6.8724981966516472 $374 0 $145 $376 forward 7 unknown #
coedge $-1 $146 $366 $372 $377 forward $246 $-1 #
loop $-1 $-1 $366 $234 #
vertex $-1 $243 $378 #
vertex $-1 $147 $379 #
straight-curve $-1 -75.360690322567663 -12.510165873782803 11.00662815547021 1 0 0 I I #
coedge $-1 $250 $250 $-1 $380 reversed $150 $-1 #
edge $-1 $381 0 $381 6.2831853071796004 $151 $382 forward 7 unknown #
vertex $-1 $154 $383 #
ellipse-curve $-1 -57.315743312098718 -5.7899591072793868 8.3743086000501563 -0.7660444514056185 0 0.64278759981090561 0.64278759981090561 0 0.7660444514056185 1 I I #
face $-1 $-1 $384 $34 $-1 $385 reversed single #
loop $-1 $-1 $161 $155 #
plane-surface $-1 0 0 11.006628155470214 0 0 1 1 0 0 forward_v I I I I #
coedge $-1 $386 $387 $388 $389 reversed $156 $-1 #
coedge $-1 $390 $158 $160 $264 forward $98 $-1 #
coedge $-1 $158 $390 $386 $391 forward $98 $-1 #
coedge $-1 $388 $161 $158 $261 forward $255 $-1 #
edge $-1 $267 0.91810987573881775 $392 14.358523408745651 $260 $393 forward 7 unknown #
coedge $-1 $394 $395 $159 $263 forward $384 $-1 #
edge $-1 $396 -35.390629861216631 $266 -30.12599075037652 $262 $397 forward 7 unknown #
edge $-1 $267 -6.8724981966516472 $396 0 $160 $398 forward 7 unknown #
coedge $-1 $161 $388 $394 $399 forward $255 $-1 #
vertex $-1 $162 $400 #
vertex $-1 $162 $401 #
straight-curve $-1 -75.360690322567663 8.5564265179810519 11.00662815547021 1 0 0 I I #
coedge $-1 $269 $269 $-1 $402 reversed $165 $-1 #
edge $-1 $403 0 $403 6.2831853071796004 $166 $404 forward 7 unknown #
vertex $-1 $169 $405 #
ellipse-curve $-1 -57.315743312098718 15.276633284484468 8.3743086000501563 -0.7660444514056185 0 0.64278759981090561 0.64278759981090561 0 0.7660444514056185 1 I I #
face $-1 $-1 $406 $36 $-1 $407 reversed single #
loop $-1 $-1 $176 $170 #
plane-surface $-1 0 0 11.006628155470214 0 0 1 1 0 0 forward_v I I I I #
coedge $-1 $408 $409 $410 $411 reversed $171 $-1 #
coedge $-1 $412 $173 $175 $283 forward $107 $-1 #
coedge $-1 $173 $412 $408 $413 forward $107 $-1 #
coedge $-1 $410 $176 $173 $280 forward $274 $-1 #
edge $-1 $286 -3.825227212863723 $414 9.6151863201431098 $279 $415 forward 7 unknown #
coedge $-1 $416 $417 $174 $282 forward $406 $-1 #
edge $-1 $418 -80.989059372602327 $285 -75.724420261762191 $281 $419 forward 7 unknown #
edge $-1 $286 112.17654504807628 $418 119.04904324472797 $175 $420 forward 7 unknown #
coedge $-1 $176 $410 $416 $421 forward $274 $-1 #
vertex $-1 $177 $422 #
vertex $-1 $177 $423 #
straight-curve $-1 37.099065939035974 0.93024765922402963 11.00662815547021 -1 0 0 I I #
coedge $-1 $288 $288 $-1 $424 reversed $180 $-1 #
edge $-1 $425 0 $425 6.2831853071796004 $181 $426 forward 7 unknown #
vertex $-1 $184 $427 #
ellipse-curve $-1 57.315743312098711 -5.7899591072793868 8.374308600050135 0.7660444514056185 0 0.64278759981090561 0.64278759981090561 0 -0.7660444514056185 1 I I #
face $-1 $-1 $304 $38 $-1 $428 forward single #
loop $-1 $-1 $429 $185 #
plane-surface $-1 59.524521622363963 0 0 -1 0 0 0 0 1 forward_v I I I I #
coedge $-1 $430 $431 $432 $433 reversed $186 $-1 #
coedge $-1 $434 $188 $190 $302 forward $116 $-1 #
coedge $-1 $188 $434 $430 $435 forward $116 $-1 #
coedge $-1 $432 $191 $188 $299 forward $304 $-1 #
edge $-1 $306 -14.358523408745651 $436 -0.91810987573881775 $298 $437 forward 7 unknown #
coedge $-1 $438 $439 $189 $301 forward $293 $-1 #
edge $-1 $440 -80.989059372602327 $305 -75.724420261762191 $300 $441 forward 7 unknown #
edge $-1 $306 112.17654504807628 $440 119.04904324472797 $190 $442 forward 7 unknown #
coedge $-1 $191 $432 $438 $443 forward $304 $-1 #
loop $-1 $-1 $432 $292 #
vertex $-1 $301 $444 #
vertex $-1 $192 $445 #
straight-curve $-1 37.099065939035974 21.996840050987885 11.00662815547021 -1 0 0 I I #
coedge $-1 $308 $308 $-1 $446 reversed $195 $-1 #
edge $-1 $447 0 $447 6.2831853071796004 $196 $448 forward 7 unknown #
vertex $-1 $199 $449 #
ellipse-curve $-1 57.315743312098711 15.276633284484468 8.374308600050135 0.7660444514056185 0 0.64278759981090561 0.64278759981090561 0 -0.7660444514056185 1 I I #
face $-1 $-1 $215 $30 $-1 $450 reversed single #
loop $-1 $-1 $328 $200 #
plane-surface $-1 0 33.05266780646955 0 0 -1 0 0 0 -1 forward_v I I I I #
coedge $-1 $451 $326 $329 $452 forward $201 $-1 #
coedge $-1 $332 $203 $204 $320 reversed $125 $-1 #
coedge $-1 $326 $451 $203 $318 reversed $201 $-1 #
edge $-1 $333 -11.006628155470214 $453 11.006628155470214 $317 $454 forward 7 unknown #
coedge $-1 $205 $204 $451 $455 forward $81 $-1 #
edge $-1 $324 -59.524521622363963 $453 59.524521622363963 $316 $456 forward 7 unknown #
coedge $-1 $329 $328 $205 $322 reversed $313 $-1 #
edge $-1 $457 -59.524521622363963 $323 59.524521622363963 $321 $458 forward 7 unknown #
vertex $-1 $207 $459 #
vertex $-1 $335 $460 #
straight-curve $-1 59.524521622363963 0 -11.006628155470214 0 -1 0 I I #
coedge $-1 $315 $317 $208 $327 reversed $201 $-1 #
edge $-1 $330 -33.05266780646955 $333 33.05266780646955 $326 $461 forward 7 unknown #
coedge $-1 $321 $209 $214 $336 forward $313 $-1 #
coedge $-1 $209 $321 $315 $452 reversed $313 $-1 #
vertex $-1 $210 $462 #
straight-curve $-1 0 33.05266780646955 11.006628155470214 -1 0 0 I I #
coedge $-1 $211 $316 $213 $335 reversed $125 $-1 #
vertex $-1 $327 $463 #
straight-curve $-1 0 -33.05266780646955 11.006628155470214 1 0 0 I I #
edge $-1 $216 -11.006628155470214 $324 11.006628155470214 $213 $464 forward 7 unknown #
edge $-1 $217 -11.006628155470214 $323 11.006628155470214 $214 $465 forward 7 unknown #
point $-1 59.524521622363963 -33.05266780646955 11.006628155470214 #
point $-1 59.524521622363963 33.05266780646955 11.006628155470214 #
face $-1 $-1 $356 $31 $-1 $466 forward single #
loop $-1 $-1 $467 $219 #
plane-surface $-1 -45.93368467704444 -37.796004895072095 0 -1 0 0 0 0 1 forward_v I I I I #
coedge $-1 $468 $222 $346 $469 reversed $133 $-1 #
coedge $-1 $222 $468 $470 $471 reversed $133 $-1 #
coedge $-1 $230 $229 $222 $345 reversed $220 $-1 #
edge $-1 $472 -11.006628155470214 $473 11.006628155470214 $344 $474 forward 7 unknown #
coedge $-1 $224 $223 $342 $469 forward $85 $-1 #
coedge $-1 $352 $467 $223 $348 reversed $340 $-1 #
edge $-1 $350 -4.7433370886025443 $475 4.7433370886025443 $347 $476 forward 7 unknown #
edge $-1 $473 -4.7433370886025443 $231 4.7433370886025443 $229 $477 forward 7 unknown #
vertex $-1 $348 $478 #
straight-curve $-1 0 -33.05266780646955 -11.006628155470214 1 0 0 I I #
coedge $-1 $479 $347 $226 $353 reversed $340 $-1 #
edge $-1 $357 -11.006628155470214 $350 11.006628155470214 $352 $480 forward 7 unknown #
coedge $-1 $470 $227 $230 $359 forward $356 $-1 #
coedge $-1 $227 $470 $479 $481 forward $356 $-1 #
loop $-1 $-1 $227 $339 #
vertex $-1 $228 $482 #
straight-curve $-1 0 -33.05266780646955 11.006628155470214 -1 0 0 I I #
edge $-1 $232 -4.7433370886025443 $472 4.7433370886025443 $230 $483 forward 7 unknown #
point $-1 -48.93368467704444 -33.05266780646955 -11.006628155470214 #
point $-1 -48.93368467704444 -33.05266780646955 11.006628155470214 #
plane-surface $-1 0 0 11.006628155470214 0 0 1 1 0 0 forward_v I I I I #
coedge $-1 $373 $372 $365 $484 forward $235 $-1 #
coedge $-1 $365 $237 $239 $369 reversed $141 $-1 #
coedge $-1 $237 $364 $363 $484 reversed $141 $-1 #
coedge $-1 $245 $240 $237 $367 forward $246 $-1 #
edge $-1 $370 -20.253725320734191 $485 -15.8361687002037 $366 $486 forward 7 unknown #
coedge $-1 $239 $238 $373 $487 reversed $89 $-1 #
edge $-1 $488 0 $370 6.8724981966516472 $364 $489 forward 7 unknown #
vertex $-1 $241 $490 #
straight-curve $-1 -55.10696500183348 -2.8949795536396934 11.006628155470214 0 1 0 I I #
coedge $-1 $363 $242 $245 $377 reversed $235 $-1 #
coedge $-1 $242 $363 $368 $487 forward $235 $-1 #
vertex $-1 $243 $491 #
straight-curve $-1 -59.524521622363963 -12.510165873782803 41.132618905846734 0 0 1 I I #
straight-curve $-1 -59.524521622363963 -12.510165873782803 5.7419890446301025 -0.64278759981090561 0 -0.7660444514056185 I I #
edge $-1 $485 -0.93024765922402963 $247 12.510165873782803 $372 $492 forward 7 unknown #
point $-1 -59.524521622363963 -12.510165873782803 11.006628155470214 #
point $-1 -55.106965001833473 -12.510165873782803 11.006628155470214 #
edge $-1 $493 1 $493 0 $250 $-1 forward 7 unknown #
vertex $-1 $251 $494 #
ellipse-curve $-1 -55.205549999535044 -5.7899591072793868 6.6036462161232823 -0.7660444514056185 0 0.64278759981090561 0.64278759981090561 0 0.7660444514056185 1 I I #
point $-1 -56.672955712287816 -5.7899591072793868 9.1403530514557776 #
loop $-1 $-1 $262 $254 #
plane-surface $-1 -59.524521622363963 0 0 1 0 0 0 0 -1 forward_v I I I I #
coedge $-1 $387 $257 $259 $391 reversed $156 $-1 #
coedge $-1 $257 $386 $495 $496 reversed $156 $-1 #
coedge $-1 $265 $260 $257 $389 forward $255 $-1 #
edge $-1 $392 -20.253725320734191 $497 -15.8361687002037 $388 $498 forward 7 unknown #
coedge $-1 $259 $258 $395 $499 reversed $98 $-1 #
edge $-1 $500 0 $392 6.8724981966516472 $386 $501 forward 7 unknown #
vertex $-1 $261 $502 #
straight-curve $-1 -55.10696500183348 7.6383166422422342 11.006628155470214 0 1 0 I I #
coedge $-1 $495 $262 $265 $399 reversed $384 $-1 #
coedge $-1 $262 $495 $390 $499 forward $384 $-1 #
vertex $-1 $263 $503 #
straight-curve $-1 -59.524521622363963 8.5564265179810519 41.132618905846734 0 0 1 I I #
straight-curve $-1 -59.524521622363963 8.5564265179810519 5.7419890446301025 -0.64278759981090561 0 -0.7660444514056185 I I #
edge $-1 $497 -21.996840050987885 $266 -8.5564265179810519 $394 $504 forward 7 unknown #
point $-1 -59.524521622363963 8.5564265179810519 11.006628155470214 #
point $-1 -55.106965001833473 8.5564265179810519 11.006628155470214 #
edge $-1 $505 1 $505 0 $269 $-1 forward 7 unknown #
vertex $-1 $270 $506 #
ellipse-curve $-1 -55.205549999535044 15.276633284484468 6.6036462161232823 -0.7660444514056185 0 0.64278759981090561 0.64278759981090561 0 0.7660444514056185 1 I I #
point $-1 -56.672955712287816 15.276633284484468 9.1403530514557776 #
loop $-1 $-1 $281 $273 #
plane-surface $-1 59.524521622363963 0 0 -1 0 0 0 0 1 forward_v I I I I #
coedge $-1 $409 $276 $278 $413 reversed $171 $-1 #
coedge $-1 $276 $408 $507 $508 reversed $171 $-1 #
coedge $-1 $284 $279 $276 $411 forward $274 $-1 #
edge $-1 $414 18.00789906279747 $509 22.425455683327989 $410 $510 forward 7 unknown #
coedge $-1 $278 $277 $417 $511 reversed $107 $-1 #
edge $-1 $512 -119.04904324472797 $414 -112.17654504807628 $408 $513 forward 7 unknown #
vertex $-1 $280 $514 #
straight-curve $-1 55.106965001833444 -2.8949795536396934 11.00662815547021 0 -1 0 I I #
coedge $-1 $507 $281 $284 $421 reversed $406 $-1 #
coedge $-1 $281 $507 $412 $511 forward $406 $-1 #
vertex $-1 $282 $515 #
straight-curve $-1 59.524521622363963 0.93024765922402963 86.731048417232401 0 0 1 I I #
straight-curve $-1 -16.998727144699416 0.93024765922402963 96.938848067401437 0.64278759981090561 0 -0.7660444514056185 I I #
edge $-1 $509 -12.510165873782803 $285 0.93024765922402963 $416 $516 forward 7 unknown #
point $-1 59.524521622363963 0.93024765922402963 11.006628155470214 #
point $-1 55.106965001833444 0.93024765922402963 11.00662815547021 #
edge $-1 $517 1 $517 0 $288 $-1 forward 7 unknown #
vertex $-1 $289 $518 #
ellipse-curve $-1 55.205549999535059 -5.7899591072793868 6.6036462161232787 0.7660444514056185 0 0.64278759981090561 0.64278759981090561 0 -0.7660444514056185 1 I I #
point $-1 57.958530911909641 -5.7899591072793868 7.6082641486445368 #
plane-surface $-1 0 0 11.006628155470214 0 0 1 1 0 0 forward_v I I I I #
coedge $-1 $439 $438 $431 $519 forward $293 $-1 #
coedge $-1 $431 $295 $297 $435 reversed $186 $-1 #
coedge $-1 $295 $430 $429 $519 reversed $186 $-1 #
coedge $-1 $303 $298 $295 $433 forward $304 $-1 #
edge $-1 $436 18.00789906279747 $520 22.425455683327989 $432 $521 forward 7 unknown #
coedge $-1 $297 $296 $439 $522 reversed $116 $-1 #
edge $-1 $523 -119.04904324472797 $436 -112.17654504807628 $430 $524 forward 7 unknown #
vertex $-1 $299 $525 #
straight-curve $-1 55.106965001833444 7.6383166422422342 11.00662815547021 0 -1 0 I I #
coedge $-1 $429 $300 $303 $443 reversed $293 $-1 #
coedge $-1 $300 $429 $434 $522 forward $293 $-1 #
vertex $-1 $301 $526 #
straight-curve $-1 59.524521622363963 21.996840050987885 86.731048417232401 0 0 1 I I #
straight-curve $-1 -16.998727144699416 21.996840050987885 96.938848067401437 0.64278759981090561 0 -0.7660444514056185 I I #
edge $-1 $520 8.5564265179810519 $305 21.996840050987885 $438 $527 forward 7 unknown #
point $-1 59.524521622363963 21.996840050987885 11.006628155470214 #
point $-1 55.106965001833444 21.996840050987885 11.00662815547021 #
edge $-1 $528 1 $528 0 $308 $-1 forward 7 unknown #
vertex $-1 $309 $529 #
ellipse-curve $-1 55.205549999535059 15.276633284484468 6.6036462161232787 0.7660444514056185 0 0.64278759981090561 0.64278759981090561 0 -0.7660444514056185 1 I I #
point $-1 57.958530911909641 15.276633284484468 7.6082641486445368 #
plane-surface $-1 59.524521622363963 0 0 -1 0 0 0 0 1 forward_v I I I I #
coedge $-1 $317 $315 $319 $455 reversed $201 $-1 #
edge $-1 $330 -11.006628155470214 $457 11.006628155470214 $329 $530 forward 7 unknown #
vertex $-1 $455 $531 #
straight-curve $-1 -59.524521622363963 -33.05266780646955 0 0 0 -1 I I #
edge $-1 $453 -33.05266780646955 $457 33.05266780646955 $451 $532 forward 7 unknown #
straight-curve $-1 0 -33.05266780646955 -11.006628155470214 -1 0 0 I I #
vertex $-1 $322 $533 #
straight-curve $-1 0 33.05266780646955 -11.006628155470214 1 0 0 I I #
point $-1 59.524521622363963 33.05266780646955 -11.006628155470214 #
point $-1 59.524521622363963 -33.05266780646955 -11.006628155470214 #
straight-curve $-1 -59.524521622363963 0 11.006628155470214 0 -1 0 I I #
point $-1 -59.524521622363963 33.05266780646955 11.006628155470214 #
point $-1 -59.524521622363963 -33.05266780646955 11.006628155470214 #
straight-curve $-1 59.524521622363963 -33.05266780646955 0 0 0 -1 I I #
straight-curve $-1 59.524521622363963 33.05266780646955 0 0 0 -1 I I #
plane-surface $-1 0 0 11.006628155470214 0 0 1 1 0 0 forward_v I I I I #
coedge $-1 $347 $479 $468 $534 forward $340 $-1 #
coedge $-1 $343 $342 $467 $534 reversed $133 $-1 #
edge $-1 $475 -1.5 $473 1.5 $342 $535 forward 7 unknown #
coedge $-1 $355 $354 $343 $471 forward $356 $-1 #
edge $-1 $472 -1.5 $536 1.5 $343 $537 forward 7 unknown #
vertex $-1 $359 $538 #
vertex $-1 $349 $539 #
straight-curve $-1 -48.93368467704444 -42.539341983674639 0 0 0 -1 I I #
vertex $-1 $534 $540 #
straight-curve $-1 -45.93368467704444 -37.796004895072095 -11.006628155470214 0 -1 0 I I #
straight-curve $-1 -48.93368467704444 -37.796004895072095 -11.006628155470214 0 1 0 I I #
point $-1 -45.93368467704444 -33.05266780646955 -11.006628155470214 #
coedge $-1 $467 $352 $355 $481 reversed $340 $-1 #
straight-curve $-1 -45.93368467704444 -33.05266780646955 0 0 0 -1 I I #
edge $-1 $536 -4.7433370886025443 $357 4.7433370886025443 $479 $541 forward 7 unknown #
point $-1 -45.93368467704444 -33.05266780646955 11.006628155470214 #
straight-curve $-1 -48.93368467704444 -37.796004895072095 11.006628155470214 0 -1 0 I I #
edge $-1 $485 30.12599075037652 $488 35.390629861216631 $363 $542 forward 7 unknown #
vertex $-1 $377 $543 #
straight-curve $-1 -75.360690322567663 0.93024765922402963 11.00662815547021 -1 0 0 I I #
edge $-1 $488 -3.825227212863723 $374 9.6151863201431098 $373 $544 forward 7 unknown #
vertex $-1 $487 $545 #
straight-curve $-1 -59.524521622363963 0.93024765922402963 5.7419890446301025 0.64278759981090561 0 0.7660444514056185 I I #
point $-1 -55.106965001833473 0.93024765922402963 11.006628155470214 #
point $-1 -59.524521622363963 -12.510165873782803 5.7419890446301025 #
straight-curve $-1 -59.524521622363963 0 11.006628155470214 0 -1 0 I I #
vertex $-1 $380 $546 #
point $-1 -54.562762399724136 -5.7899591072793868 7.3696906675289009 #
coedge $-1 $395 $394 $387 $496 forward $384 $-1 #
edge $-1 $497 30.12599075037652 $500 35.390629861216631 $495 $547 forward 7 unknown #
vertex $-1 $399 $548 #
straight-curve $-1 -75.360690322567663 21.996840050987885 11.00662815547021 -1 0 0 I I #
edge $-1 $500 -14.358523408745651 $396 -0.91810987573881775 $395 $549 forward 7 unknown #
vertex $-1 $499 $550 #
straight-curve $-1 -59.524521622363963 21.996840050987885 5.7419890446301025 0.64278759981090561 0 0.7660444514056185 I I #
point $-1 -55.106965001833473 21.996840050987885 11.006628155470214 #
point $-1 -59.524521622363963 8.5564265179810519 5.7419890446301025 #
straight-curve $-1 -59.524521622363963 0 11.006628155470214 0 -1 0 I I #
vertex $-1 $402 $551 #
point $-1 -54.562762399724136 15.276633284484468 7.3696906675289009 #
coedge $-1 $417 $416 $409 $508 forward $406 $-1 #
edge $-1 $509 75.724420261762191 $512 80.989059372602327 $507 $552 forward 7 unknown #
vertex $-1 $421 $553 #
straight-curve $-1 37.099065939035974 -12.510165873782803 11.00662815547021 1 0 0 I I #
edge $-1 $512 -9.6151863201431098 $418 3.825227212863723 $417 $554 forward 7 unknown #
vertex $-1 $511 $555 #
straight-curve $-1 -16.998727144699416 -12.510165873782803 96.938848067401437 -0.64278759981090561 0 0.7660444514056185 I I #
point $-1 55.106965001833444 -12.510165873782803 11.00662815547021 #
point $-1 59.524521622363963 0.93024765922402963 5.7419890446300741 #
straight-curve $-1 59.524521622363963 0 11.006628155470214 0 1 0 I I #
vertex $-1 $424 $556 #
point $-1 55.848337599345967 -5.7899591072793868 5.8376017647176601 #
edge $-1 $520 75.724420261762191 $523 80.989059372602327 $429 $557 forward 7 unknown #
vertex $-1 $443 $558 #
straight-curve $-1 37.099065939035974 8.5564265179810519 11.00662815547021 1 0 0 I I #
edge $-1 $523 0.91810987573881775 $440 14.358523408745651 $439 $559 forward 7 unknown #
vertex $-1 $522 $560 #
straight-curve $-1 -16.998727144699416 8.5564265179810519 96.938848067401437 -0.64278759981090561 0 0.7660444514056185 I I #
point $-1 55.106965001833444 8.5564265179810519 11.00662815547021 #
point $-1 59.524521622363963 21.996840050987885 5.7419890446300741 #
straight-curve $-1 59.524521622363963 0 11.006628155470214 0 1 0 I I #
vertex $-1 $446 $561 #
point $-1 55.848337599345967 15.276633284484468 5.8376017647176601 #
straight-curve $-1 -59.524521622363963 33.05266780646955 0 0 0 -1 I I #
point $-1 -59.524521622363963 -33.05266780646955 -11.006628155470214 #
straight-curve $-1 -59.524521622363963 0 -11.006628155470214 0 1 0 I I #
point $-1 -59.524521622363963 33.05266780646955 -11.006628155470214 #
edge $-1 $536 -11.006628155470214 $475 11.006628155470214 $467 $562 forward 7 unknown #
straight-curve $-1 -47.43368467704444 -42.539341983674639 -11.006628155470214 -1 0 0 I I #
vertex $-1 $481 $563 #
straight-curve $-1 -47.43368467704444 -42.539341983674639 11.006628155470214 1 0 0 I I #
point $-1 -48.93368467704444 -42.539341983674639 11.006628155470214 #
point $-1 -48.93368467704444 -42.539341983674639 -11.006628155470214 #
point $-1 -45.93368467704444 -42.539341983674639 -11.006628155470214 #
straight-curve $-1 -45.93368467704444 -37.796004895072095 11.006628155470214 0 1 0 I I #
straight-curve $-1 -59.524521622363963 0.93024765922402963 41.132618905846734 0 0 -1 I I #
point $-1 -59.524521622363963 0.93024765922402963 11.006628155470214 #
straight-curve $-1 -59.524521622363963 -2.8949795536396934 5.741989044630099 0 -1 0 I I #
point $-1 -59.524521622363963 0.93024765922402963 5.7419890446301025 #
point $-1 -54.439505548129425 -5.7899591072793868 5.9608586163123771 #
straight-curve $-1 -59.524521622363963 21.996840050987885 41.132618905846734 0 0 -1 I I #
point $-1 -59.524521622363963 21.996840050987885 11.006628155470214 #
straight-curve $-1 -59.524521622363963 7.6383166422422342 5.741989044630099 0 -1 0 I I #
point $-1 -59.524521622363963 21.996840050987885 5.7419890446301025 #
point $-1 -54.439505548129425 15.276633284484468 5.9608586163123771 #
straight-curve $-1 59.524521622363963 -12.510165873782803 86.731048417232401 0 0 -1 I I #
point $-1 59.524521622363963 -12.510165873782803 11.006628155470214 #
straight-curve $-1 59.524521622363963 -2.8949795536396934 5.741989044630067 0 1 0 I I #
point $-1 59.524521622363963 -12.510165873782803 5.7419890446300741 #
point $-1 54.439505548129439 -5.7899591072793868 5.9608586163123736 #
straight-curve $-1 59.524521622363963 8.5564265179810519 86.731048417232401 0 0 -1 I I #
point $-1 59.524521622363963 8.5564265179810519 11.006628155470214 #
straight-curve $-1 59.524521622363963 7.6383166422422342 5.741989044630067 0 1 0 I I #
point $-1 59.524521622363963 8.5564265179810519 5.7419890446300741 #
point $-1 54.439505548129439 15.276633284484468 5.9608586163123736 #
straight-curve $-1 -45.93368467704444 -42.539341983674639 0 0 0 -1 I I #
point $-1 -45.93368467704444 -42.539341983674639 11.006628155470214 #
End-of-ACIS-data 