500 0 14 0           
7 Unknown 11 ACIS 5.0 NT 24 Thu Mar 25 15:07:40 1999 
-1 9.9999999999999995e-007 1e-010 
body $-1 $14 $-1 $15 #
body $-1 $16 $-1 $17 #
body $-1 $18 $-1 $19 #
body $-1 $20 $-1 $21 #
body $-1 $22 $-1 $23 #
body $-1 $24 $-1 $25 #
body $-1 $26 $-1 $27 #
body $-1 $28 $-1 $29 #
body $-1 $30 $-1 $31 #
body $-1 $32 $-1 $33 #
body $-1 $34 $-1 $35 #
body $-1 $36 $-1 $37 #
body $-1 $38 $-1 $39 #
body $-1 $40 $-1 $41 #
lump $-1 $-1 $42 $0 #
transform $-1 1 0 0 0 1 0 0 0 1 47.696768089846493 30.978517384395733 8.295949955636285 1 rotate no_reflect no_shear #
lump $-1 $-1 $43 $1 #
transform $-1 1 0 0 0 1 0 0 0 1 47.696768089846493 30.978517384395733 8.295949955636285 1 rotate no_reflect no_shear #
lump $-1 $-1 $44 $2 #
transform $-1 1 0 0 0 1 0 0 0 1 47.696768089846493 30.978517384395733 8.295949955636285 1 rotate no_reflect no_shear #
lump $-1 $-1 $45 $3 #
transform $-1 1 0 0 0 1 0 0 0 1 47.696768089846493 30.978517384395733 8.295949955636285 1 rotate no_reflect no_shear #
lump $-1 $-1 $46 $4 #
transform $-1 1 0 0 0 1 0 0 0 1 47.696768089846493 30.978517384395733 8.295949955636285 1 rotate no_reflect no_shear #
lump $-1 $-1 $47 $5 #
transform $-1 1 0 0 0 1 0 0 0 1 47.696768089846493 30.978517384395733 8.295949955636285 1 rotate no_reflect no_shear #
lump $-1 $-1 $48 $6 #
transform $-1 1 0 0 0 1 0 0 0 1 47.696768089846493 30.978517384395733 8.295949955636285 1 rotate no_reflect no_shear #
lump $-1 $-1 $49 $7 #
transform $-1 1 0 0 0 1 0 0 0 1 47.696768089846493 30.978517384395733 8.295949955636285 1 rotate no_reflect no_shear #
lump $-1 $-1 $50 $8 #
transform $-1 1 0 0 0 1 0 0 0 1 47.696768089846493 30.978517384395733 8.295949955636285 1 rotate no_reflect no_shear #
lump $-1 $-1 $51 $9 #
transform $-1 1 0 0 0 1 0 0 0 1 47.696768089846493 30.978517384395733 8.295949955636285 1 rotate no_reflect no_shear #
lump $-1 $-1 $52 $10 #
transform $-1 1 0 0 0 1 0 0 0 1 47.696768089846493 30.978517384395733 8.295949955636285 1 rotate no_reflect no_shear #
lump $-1 $-1 $53 $11 #
transform $-1 1 0 0 0 1 0 0 0 1 47.696768089846493 30.978517384395733 8.295949955636285 1 rotate no_reflect no_shear #
lump $-1 $-1 $54 $12 #
transform $-1 1 0 0 0 1 0 0 0 1 47.696768089846493 30.978517384395733 8.295949955636285 1 rotate no_reflect no_shear #
lump $-1 $-1 $55 $13 #
transform $-1 1 0 0 0 1 0 0 0 1 47.696768089846493 30.978517384395733 8.295949955636285 1 rotate no_reflect no_shear #
shell $-1 $-1 $-1 $56 $-1 $14 #
shell $-1 $-1 $-1 $57 $-1 $16 #
shell $-1 $-1 $-1 $58 $-1 $18 #
shell $-1 $-1 $-1 $59 $-1 $20 #
shell $-1 $-1 $-1 $60 $-1 $22 #
shell $-1 $-1 $-1 $61 $-1 $24 #
shell $-1 $-1 $-1 $62 $-1 $26 #
shell $-1 $-1 $-1 $63 $-1 $28 #
shell $-1 $-1 $-1 $64 $-1 $30 #
shell $-1 $-1 $-1 $65 $-1 $32 #
shell $-1 $-1 $-1 $66 $-1 $34 #
shell $-1 $-1 $-1 $67 $-1 $36 #
shell $-1 $-1 $-1 $68 $-1 $38 #
shell $-1 $-1 $-1 $69 $-1 $40 #
face $-1 $70 $71 $42 $-1 $72 reversed single #
face $-1 $73 $74 $43 $-1 $75 forward single #
face $-1 $76 $77 $44 $-1 $78 reversed single #
face $-1 $79 $80 $45 $-1 $81 forward single #
face $-1 $82 $83 $46 $-1 $84 forward single #
face $-1 $85 $86 $47 $-1 $87 reversed single #
face $-1 $88 $89 $48 $-1 $90 forward single #
face $-1 $91 $92 $49 $-1 $93 forward single #
face $-1 $94 $95 $50 $-1 $96 reversed single #
face $-1 $97 $98 $51 $-1 $99 forward single #
face $-1 $100 $101 $52 $-1 $102 forward single #
face $-1 $103 $104 $53 $-1 $105 reversed single #
face $-1 $106 $107 $54 $-1 $108 forward single #
face $-1 $109 $110 $55 $-1 $111 forward single #
face $-1 $112 $113 $42 $-1 $114 forward single #
loop $-1 $-1 $115 $56 #
plane-surface $-1 -47.696768089846493 0 0 1 0 0 0 0 -1 forward_v I I I I #
face $-1 $116 $117 $43 $-1 $118 reversed single #
loop $-1 $-1 $119 $57 #
plane-surface $-1 -47.696768089846493 0 0 1 0 0 0 0 -1 forward_v I I I I #
face $-1 $120 $121 $44 $-1 $122 reversed single #
loop $-1 $-1 $123 $58 #
plane-surface $-1 -21.749660841265804 30.972020306046975 118.43459638983039 1 0 0 0 -0.54463904215088732 -0.83867056331134215 forward_v I I I I #
face $-1 $124 $125 $45 $-1 $126 forward single #
loop $-1 $127 $128 $59 #
cone-surface $-1 -17.567070881707515 27.822346490903826 5.9103970079753125 0 -0.54463904215088732 -0.83867056331134215 1 0 0 1 I I 0 1 1 forward I I I I #
face $-1 $129 $130 $46 $-1 $131 forward single #
loop $-1 $132 $133 $60 #
cone-surface $-1 -11.293185942370087 27.822346490903826 5.9103970079753125 0 -0.54463904215088732 -0.83867056331134215 1 0 0 1 I I 0 1 1 forward I I I I #
face $-1 $134 $135 $47 $-1 $136 reversed single #
loop $-1 $-1 $137 $61 #
plane-surface $-1 13.659198661803291 30.972020306046975 118.43459638983039 1 0 0 0 -0.54463904215088732 -0.83867056331134215 forward_v I I I I #
face $-1 $138 $139 $48 $-1 $140 forward single #
loop $-1 $141 $142 $62 #
cone-surface $-1 17.841788621361594 27.822346490903826 5.9103970079753125 0 -0.54463904215088732 -0.83867056331134215 1 0 0 1 I I 0 1 1 forward I I I I #
face $-1 $143 $144 $49 $-1 $145 forward single #
loop $-1 $146 $147 $63 #
cone-surface $-1 24.115673560699015 27.822346490903826 5.9103970079753125 0 -0.54463904215088732 -0.83867056331134215 1 0 0 1 I I 0 1 1 forward I I I I #
face $-1 $148 $149 $50 $-1 $150 reversed single #
loop $-1 $-1 $151 $64 #
plane-surface $-1 -7.1105959828118053 -82.933561556689725 84.690376318846589 -1 0 0 0 -0.54463904215088732 0.83867056331134215 forward_v I I I I #
face $-1 $152 $153 $51 $-1 $154 forward single #
loop $-1 $155 $156 $65 #
cone-surface $-1 -17.567070881707515 -27.822346490903829 5.9103970079753143 0 0.54463904215088732 -0.83867056331134215 1 0 0 1 I I 0 1 1 forward I I I I #
face $-1 $157 $158 $52 $-1 $159 forward single #
loop $-1 $160 $161 $66 #
cone-surface $-1 -11.293185942370087 -27.822346490903829 5.9103970079753143 0 0.54463904215088732 -0.83867056331134215 1 0 0 1 I I 0 1 1 forward I I I I #
face $-1 $162 $163 $53 $-1 $164 reversed single #
loop $-1 $-1 $165 $67 #
plane-surface $-1 28.29826352025729 -82.933561556689725 84.690376318846589 -1 0 0 0 -0.54463904215088732 0.83867056331134215 forward_v I I I I #
face $-1 $166 $167 $54 $-1 $168 forward single #
loop $-1 $169 $170 $68 #
cone-surface $-1 17.841788621361594 -27.822346490903829 5.9103970079753143 0 0.54463904215088732 -0.83867056331134215 1 0 0 1 I I 0 1 1 forward I I I I #
face $-1 $171 $172 $55 $-1 $173 forward single #
loop $-1 $174 $175 $69 #
cone-surface $-1 24.115673560699015 -27.822346490903829 5.9103970079753143 0 0.54463904215088732 -0.83867056331134215 1 0 0 1 I I 0 1 1 forward I I I I #
face $-1 $176 $177 $42 $-1 $178 reversed single #
loop $-1 $-1 $179 $70 #
plane-surface $-1 0 0 8.295949955636285 0 0 1 1 0 0 forward_v I I I I #
coedge $-1 $180 $181 $182 $183 reversed $71 $-1 #
face $-1 $184 $185 $43 $-1 $186 reversed single #
loop $-1 $-1 $187 $73 #
plane-surface $-1 0 0 -8.295949955636285 0 0 1 1 0 0 forward_v I I I I #
coedge $-1 $188 $189 $190 $191 forward $74 $-1 #
face $-1 $192 $193 $44 $-1 $194 reversed single #
loop $-1 $-1 $195 $76 #
plane-surface $-1 -14.430128412038805 -20.983023866247027 38.430845665746375 0 0.54463904215088732 0.83867056331134215 1 0 0 forward_v I I I I #
coedge $-1 $196 $197 $198 $199 reversed $77 $-1 #
face $-1 $-1 $200 $45 $-1 $201 forward single #
loop $-1 $202 $203 $79 #
cone-surface $-1 -17.567070881707515 27.172792087747769 4.9101709590955274 0 -0.54463904215088732 -0.83867056331134215 0.5 0 0 1 I I -0.70710678118654746 0.70710678118654746 0.5 forward I I I I #
loop $-1 $-1 $204 $59 #
coedge $-1 $128 $128 $205 $206 reversed $80 $-1 #
face $-1 $-1 $207 $46 $-1 $208 forward single #
loop $-1 $209 $210 $82 #
cone-surface $-1 -11.293185942370087 27.172792087747769 4.9101709590955274 0 -0.54463904215088732 -0.83867056331134215 0.5 0 0 1 I I -0.70710678118654746 0.70710678118654746 0.5 forward I I I I #
loop $-1 $-1 $211 $60 #
coedge $-1 $133 $133 $212 $213 reversed $83 $-1 #
face $-1 $214 $215 $47 $-1 $216 reversed single #
loop $-1 $-1 $217 $85 #
plane-surface $-1 20.978731091030291 -20.983023866247027 38.430845665746375 0 0.54463904215088732 0.83867056331134215 1 0 0 forward_v I I I I #
coedge $-1 $218 $219 $220 $221 reversed $86 $-1 #
face $-1 $-1 $222 $48 $-1 $223 forward single #
loop $-1 $224 $225 $88 #
cone-surface $-1 17.841788621361594 27.172792087747769 4.9101709590955274 0 -0.54463904215088732 -0.83867056331134215 0.5 0 0 1 I I -0.70710678118654746 0.70710678118654746 0.5 forward I I I I #
loop $-1 $-1 $226 $62 #
coedge $-1 $142 $142 $227 $228 reversed $89 $-1 #
face $-1 $-1 $229 $49 $-1 $230 forward single #
loop $-1 $231 $232 $91 #
cone-surface $-1 24.115673560699015 27.172792087747769 4.9101709590955274 0 -0.54463904215088732 -0.83867056331134215 0.5 0 0 1 I I -0.70710678118654746 0.70710678118654746 0.5 forward I I I I #
loop $-1 $-1 $233 $63 #
coedge $-1 $147 $147 $234 $235 reversed $92 $-1 #
face $-1 $236 $237 $50 $-1 $238 reversed single #
loop $-1 $-1 $239 $94 #
plane-surface $-1 -14.430128412038805 -30.978517384395722 4.6866255947625746 0 -0.54463904215088732 0.83867056331134215 1 0 0 forward_v I I I I #
coedge $-1 $240 $241 $242 $243 reversed $95 $-1 #
face $-1 $-1 $244 $51 $-1 $245 forward single #
loop $-1 $246 $247 $97 #
cone-surface $-1 -17.567070881707515 -27.172792087747773 4.9101709590955291 0 0.54463904215088732 -0.83867056331134215 0.5 0 0 1 I I -0.70710678118654746 0.70710678118654746 0.5 forward I I I I #
loop $-1 $-1 $248 $65 #
coedge $-1 $156 $156 $249 $250 reversed $98 $-1 #
face $-1 $-1 $251 $52 $-1 $252 forward single #
loop $-1 $253 $254 $100 #
cone-surface $-1 -11.293185942370087 -27.172792087747773 4.9101709590955291 0 0.54463904215088732 -0.83867056331134215 0.5 0 0 1 I I -0.70710678118654746 0.70710678118654746 0.5 forward I I I I #
loop $-1 $-1 $255 $66 #
coedge $-1 $161 $161 $256 $257 reversed $101 $-1 #
face $-1 $258 $259 $53 $-1 $260 reversed single #
loop $-1 $-1 $261 $103 #
plane-surface $-1 20.978731091030291 -30.978517384395722 4.6866255947625746 0 -0.54463904215088732 0.83867056331134215 1 0 0 forward_v I I I I #
coedge $-1 $262 $263 $264 $265 reversed $104 $-1 #
face $-1 $-1 $266 $54 $-1 $267 forward single #
loop $-1 $268 $269 $106 #
cone-surface $-1 17.841788621361594 -27.172792087747773 4.9101709590955291 0 0.54463904215088732 -0.83867056331134215 0.5 0 0 1 I I -0.70710678118654746 0.70710678118654746 0.5 forward I I I I #
loop $-1 $-1 $270 $68 #
coedge $-1 $170 $170 $271 $272 reversed $107 $-1 #
face $-1 $-1 $273 $55 $-1 $274 forward single #
loop $-1 $275 $276 $109 #
cone-surface $-1 24.115673560699015 -27.172792087747773 4.9101709590955291 0 0.54463904215088732 -0.83867056331134215 0.5 0 0 1 I I -0.70710678118654746 0.70710678118654746 0.5 forward I I I I #
loop $-1 $-1 $277 $69 #
coedge $-1 $175 $175 $278 $279 reversed $110 $-1 #
face $-1 $280 $281 $42 $-1 $282 reversed single #
loop $-1 $-1 $283 $112 #
plane-surface $-1 0 0 -8.295949955636285 0 0 1 1 0 0 forward_v I I I I #
coedge $-1 $284 $285 $286 $287 forward $113 $-1 #
coedge $-1 $288 $115 $289 $290 reversed $71 $-1 #
coedge $-1 $115 $288 $291 $292 forward $71 $-1 #
coedge $-1 $293 $294 $115 $183 forward $177 $-1 #
edge $-1 $295 -30.978517384395733 $296 30.978517384395733 $115 $297 forward 7 unknown #
face $-1 $298 $299 $43 $-1 $300 reversed single #
loop $-1 $-1 $301 $116 #
plane-surface $-1 -50.971069429342251 -17.386617473123163 0 0 1 0 0 0 1 forward_v I I I I #
coedge $-1 $302 $303 $189 $304 forward $117 $-1 #
coedge $-1 $305 $119 $306 $307 reversed $74 $-1 #
coedge $-1 $119 $305 $187 $304 reversed $74 $-1 #
coedge $-1 $308 $309 $119 $191 reversed $310 $-1 #
edge $-1 $311 -8.295949955636285 $312 8.295949955636285 $190 $313 forward 7 unknown #
face $-1 $314 $315 $44 $-1 $316 forward single #
loop $-1 $-1 $317 $120 #
plane-surface $-1 -7.1105959828118053 30.972020306046975 118.43459638983039 -1 0 0 0 0.54463904215088732 0.83867056331134215 forward_v I I I I #
coedge $-1 $318 $319 $320 $321 reversed $121 $-1 #
coedge $-1 $197 $123 $322 $323 reversed $77 $-1 #
coedge $-1 $123 $196 $318 $324 reversed $77 $-1 #
coedge $-1 $320 $325 $123 $199 forward $315 $-1 #
edge $-1 $326 -15.492507231372246 $327 -9.9346352085496452 $198 $328 forward 7 unknown #
loop $-1 $-1 $205 $124 #
plane-surface $-1 -14.430128412038805 -20.983023866247027 38.430845665746375 0 0.54463904215088732 0.83867056331134215 1 0 0 forward_v I I I I #
loop $-1 $-1 $329 $79 #
coedge $-1 $203 $203 $204 $330 reversed $125 $-1 #
coedge $-1 $204 $204 $203 $330 forward $127 $-1 #
coedge $-1 $205 $205 $128 $206 forward $200 $-1 #
edge $-1 $331 7.7136519696136923e-017 $331 6.2831853071796004 $205 $332 forward 7 unknown #
loop $-1 $-1 $212 $129 #
plane-surface $-1 -14.430128412038805 -20.983023866247027 38.430845665746375 0 0.54463904215088732 0.83867056331134215 1 0 0 forward_v I I I I #
loop $-1 $-1 $333 $82 #
coedge $-1 $210 $210 $211 $334 reversed $130 $-1 #
coedge $-1 $211 $211 $210 $334 forward $132 $-1 #
coedge $-1 $212 $212 $133 $213 forward $207 $-1 #
edge $-1 $335 7.7136519696136923e-017 $335 6.2831853071796004 $212 $336 forward 7 unknown #
face $-1 $337 $338 $47 $-1 $339 forward single #
loop $-1 $-1 $340 $134 #
plane-surface $-1 28.29826352025729 30.972020306046975 118.43459638983039 -1 0 0 0 0.54463904215088732 0.83867056331134215 forward_v I I I I #
coedge $-1 $341 $342 $343 $344 reversed $135 $-1 #
coedge $-1 $219 $137 $345 $346 reversed $86 $-1 #
coedge $-1 $137 $218 $341 $347 reversed $86 $-1 #
coedge $-1 $343 $348 $137 $221 forward $338 $-1 #
edge $-1 $349 -15.492507231372246 $350 -9.9346352085496452 $220 $351 forward 7 unknown #
loop $-1 $-1 $227 $138 #
plane-surface $-1 20.978731091030291 -20.983023866247027 38.430845665746375 0 0.54463904215088732 0.83867056331134215 1 0 0 forward_v I I I I #
loop $-1 $-1 $352 $88 #
coedge $-1 $225 $225 $226 $353 reversed $139 $-1 #
coedge $-1 $226 $226 $225 $353 forward $141 $-1 #
coedge $-1 $227 $227 $142 $228 forward $222 $-1 #
edge $-1 $354 7.7136519696136923e-017 $354 6.2831853071796004 $227 $355 forward 7 unknown #
loop $-1 $-1 $234 $143 #
plane-surface $-1 20.978731091030291 -20.983023866247027 38.430845665746375 0 0.54463904215088732 0.83867056331134215 1 0 0 forward_v I I I I #
loop $-1 $-1 $356 $91 #
coedge $-1 $232 $232 $233 $357 reversed $144 $-1 #
coedge $-1 $233 $233 $232 $357 forward $146 $-1 #
coedge $-1 $234 $234 $147 $235 forward $229 $-1 #
edge $-1 $358 7.7136519696136923e-017 $358 6.2831853071796004 $234 $359 forward 7 unknown #
face $-1 $360 $361 $50 $-1 $362 forward single #
loop $-1 $-1 $363 $148 #
plane-surface $-1 -21.749660841265804 -82.933561556689725 84.690376318846589 1 0 0 0 0.54463904215088732 -0.83867056331134215 forward_v I I I I #
coedge $-1 $364 $365 $366 $367 reversed $149 $-1 #
coedge $-1 $241 $151 $368 $369 reversed $95 $-1 #
coedge $-1 $151 $240 $364 $370 reversed $95 $-1 #
coedge $-1 $366 $371 $151 $243 forward $361 $-1 #
edge $-1 $372 10.488263393949129 $373 16.046135416771719 $242 $374 forward 7 unknown #
loop $-1 $-1 $249 $152 #
plane-surface $-1 -14.430128412038805 -30.978517384395722 4.6866255947625746 0 -0.54463904215088732 0.83867056331134215 1 0 0 forward_v I I I I #
loop $-1 $-1 $375 $97 #
coedge $-1 $247 $247 $248 $376 reversed $153 $-1 #
coedge $-1 $248 $248 $247 $376 forward $155 $-1 #
coedge $-1 $249 $249 $156 $250 forward $244 $-1 #
edge $-1 $377 -7.7136519696136923e-017 $377 6.2831853071796004 $249 $378 forward 7 unknown #
loop $-1 $-1 $256 $157 #
plane-surface $-1 -14.430128412038805 -30.978517384395722 4.6866255947625746 0 -0.54463904215088732 0.83867056331134215 1 0 0 forward_v I I I I #
loop $-1 $-1 $379 $100 #
coedge $-1 $254 $254 $255 $380 reversed $158 $-1 #
coedge $-1 $255 $255 $254 $380 forward $160 $-1 #
coedge $-1 $256 $256 $161 $257 forward $251 $-1 #
edge $-1 $381 -7.7136519696136923e-017 $381 6.2831853071796004 $256 $382 forward 7 unknown #
face $-1 $383 $384 $53 $-1 $385 reversed single #
loop $-1 $-1 $386 $162 #
plane-surface $-1 13.659198661803291 -82.933561556689725 84.690376318846589 1 0 0 0 0.54463904215088732 -0.83867056331134215 forward_v I I I I #
coedge $-1 $387 $388 $389 $390 reversed $163 $-1 #
coedge $-1 $263 $165 $391 $392 reversed $104 $-1 #
coedge $-1 $165 $262 $387 $393 reversed $104 $-1 #
coedge $-1 $389 $394 $165 $265 forward $395 $-1 #
edge $-1 $396 10.488263393949129 $397 16.046135416771719 $264 $398 forward 7 unknown #
loop $-1 $-1 $271 $166 #
plane-surface $-1 20.978731091030291 -30.978517384395722 4.6866255947625746 0 -0.54463904215088732 0.83867056331134215 1 0 0 forward_v I I I I #
loop $-1 $-1 $399 $106 #
coedge $-1 $269 $269 $270 $400 reversed $167 $-1 #
coedge $-1 $270 $270 $269 $400 forward $169 $-1 #
coedge $-1 $271 $271 $170 $272 forward $266 $-1 #
edge $-1 $401 -7.7136519696136923e-017 $401 6.2831853071796004 $271 $402 forward 7 unknown #
loop $-1 $-1 $278 $171 #
plane-surface $-1 20.978731091030291 -30.978517384395722 4.6866255947625746 0 -0.54463904215088732 0.83867056331134215 1 0 0 forward_v I I I I #
loop $-1 $-1 $403 $109 #
coedge $-1 $276 $276 $277 $404 reversed $172 $-1 #
coedge $-1 $277 $277 $276 $404 forward $174 $-1 #
coedge $-1 $278 $278 $175 $279 forward $273 $-1 #
edge $-1 $405 -7.7136519696136923e-017 $405 6.2831853071796004 $278 $406 forward 7 unknown #
face $-1 $407 $408 $42 $-1 $409 reversed single #
loop $-1 $-1 $289 $176 #
plane-surface $-1 0 -30.978517384395733 0 0 1 0 0 0 1 forward_v I I I I #
coedge $-1 $294 $293 $410 $411 forward $177 $-1 #
coedge $-1 $412 $179 $413 $414 forward $113 $-1 #
coedge $-1 $179 $412 $415 $416 forward $113 $-1 #
coedge $-1 $417 $418 $179 $287 reversed $419 $-1 #
edge $-1 $420 -30.978517384395733 $421 30.978517384395733 $286 $422 forward 7 unknown #
coedge $-1 $181 $180 $412 $423 reversed $71 $-1 #
coedge $-1 $424 $415 $180 $290 forward $281 $-1 #
edge $-1 $425 -8.295949955636285 $295 8.295949955636285 $180 $426 forward 7 unknown #
coedge $-1 $413 $427 $181 $292 reversed $408 $-1 #
edge $-1 $428 -8.295949955636285 $296 8.295949955636285 $291 $429 forward 7 unknown #
coedge $-1 $283 $182 $427 $430 forward $177 $-1 #
coedge $-1 $182 $283 $424 $431 forward $177 $-1 #
vertex $-1 $183 $432 #
vertex $-1 $430 $433 #
straight-curve $-1 -47.696768089846493 0 -8.295949955636285 0 1 0 I I #
face $-1 $434 $310 $43 $-1 $435 reversed single #
loop $-1 $-1 $436 $184 #
plane-surface $-1 -54.245370768838008 -15.886617473123163 0 1 0 0 0 0 -1 forward_v I I I I #
coedge $-1 $437 $438 $439 $440 forward $185 $-1 #
coedge $-1 $441 $187 $437 $442 forward $117 $-1 #
coedge $-1 $187 $441 $308 $443 forward $117 $-1 #
edge $-1 $311 14.386617473123163 $444 17.386617473123163 $187 $445 forward 7 unknown #
coedge $-1 $189 $188 $446 $447 forward $74 $-1 #
coedge $-1 $448 $449 $188 $307 forward $450 $-1 #
edge $-1 $451 -17.386617473123163 $312 -14.386617473123163 $306 $452 forward 7 unknown #
coedge $-1 $453 $190 $303 $443 reversed $310 $-1 #
coedge $-1 $190 $453 $448 $454 reversed $310 $-1 #
loop $-1 $-1 $190 $298 #
vertex $-1 $304 $455 #
vertex $-1 $454 $456 #
straight-curve $-1 -47.696768089846493 -14.386617473123163 0 0 0 1 I I #
face $-1 $-1 $457 $44 $-1 $458 reversed single #
loop $-1 $-1 $198 $192 #
plane-surface $-1 0 0 8.295949955636285 0 0 1 1 0 0 forward_v I I I I #
coedge $-1 $459 $460 $461 $462 reversed $193 $-1 #
coedge $-1 $463 $195 $197 $324 forward $121 $-1 #
coedge $-1 $195 $463 $459 $464 forward $121 $-1 #
coedge $-1 $461 $198 $195 $321 forward $315 $-1 #
edge $-1 $327 -14.534596635246402 $465 0.10446822320759708 $320 $466 forward 7 unknown #
coedge $-1 $467 $468 $196 $323 forward $457 $-1 #
edge $-1 $469 -54.530672600152634 $326 -50.921348239278913 $322 $470 forward 7 unknown #
edge $-1 $327 55.330032145880367 $469 61.95703476879148 $197 $471 forward 7 unknown #
coedge $-1 $198 $461 $467 $472 forward $315 $-1 #
vertex $-1 $323 $473 #
vertex $-1 $199 $474 #
straight-curve $-1 -21.749660841265804 15.486010153023487 8.2959499556362886 0 -1 0 I I #
coedge $-1 $329 $329 $-1 $475 reversed $202 $-1 #
edge $-1 $476 0 $476 6.2831853071796004 $203 $477 forward 7 unknown #
vertex $-1 $206 $478 #
ellipse-curve $-1 -17.567070881707515 28.199581372984436 6.4912877751994227 0 0.54463904215088732 0.83867056331134215 1 0 0 1 I I #
coedge $-1 $333 $333 $-1 $479 reversed $209 $-1 #
edge $-1 $480 0 $480 6.2831853071796004 $210 $481 forward 7 unknown #
vertex $-1 $213 $482 #
ellipse-curve $-1 -11.293185942370087 28.199581372984436 6.4912877751994227 0 0.54463904215088732 0.83867056331134215 1 0 0 1 I I #
face $-1 $-1 $483 $47 $-1 $484 reversed single #
loop $-1 $-1 $220 $214 #
plane-surface $-1 0 0 8.295949955636285 0 0 1 1 0 0 forward_v I I I I #
coedge $-1 $485 $486 $487 $488 reversed $215 $-1 #
coedge $-1 $489 $217 $219 $347 forward $135 $-1 #
coedge $-1 $217 $489 $485 $490 forward $135 $-1 #
coedge $-1 $487 $220 $217 $344 forward $338 $-1 #
edge $-1 $350 3.1698331162881459 $491 17.808897974742145 $343 $492 forward 7 unknown #
coedge $-1 $493 $494 $218 $346 forward $483 $-1 #
edge $-1 $495 -54.530672600152634 $349 -50.921348239278913 $345 $496 forward 7 unknown #
edge $-1 $350 55.330032145880367 $495 61.95703476879148 $219 $497 forward 7 unknown #
coedge $-1 $220 $487 $493 $498 forward $338 $-1 #
vertex $-1 $221 $499 #
vertex $-1 $221 $500 #
straight-curve $-1 13.659198661803291 15.486010153023487 8.2959499556362886 0 -1 0 I I #
coedge $-1 $352 $352 $-1 $501 reversed $224 $-1 #
edge $-1 $502 0 $502 6.2831853071796004 $225 $503 forward 7 unknown #
vertex $-1 $228 $504 #
ellipse-curve $-1 17.841788621361594 28.199581372984436 6.4912877751994227 0 0.54463904215088732 0.83867056331134215 1 0 0 1 I I #
coedge $-1 $356 $356 $-1 $505 reversed $231 $-1 #
edge $-1 $506 0 $506 6.2831853071796004 $232 $507 forward 7 unknown #
vertex $-1 $235 $508 #
ellipse-curve $-1 24.115673560699015 28.199581372984436 6.4912877751994227 0 0.54463904215088732 0.83867056331134215 1 0 0 1 I I #
face $-1 $-1 $509 $50 $-1 $510 reversed single #
loop $-1 $-1 $242 $236 #
plane-surface $-1 0 0 8.295949955636285 0 0 1 1 0 0 forward_v I I I I #
coedge $-1 $511 $512 $513 $514 reversed $237 $-1 #
coedge $-1 $515 $239 $241 $370 forward $149 $-1 #
coedge $-1 $239 $515 $511 $516 forward $149 $-1 #
coedge $-1 $513 $242 $239 $367 forward $361 $-1 #
edge $-1 $373 -0.10446822320759708 $517 14.534596635246402 $366 $518 forward 7 unknown #
coedge $-1 $519 $520 $240 $369 forward $509 $-1 #
edge $-1 $521 -37.658562564660727 $372 -34.049238203787013 $368 $522 forward 7 unknown #
edge $-1 $373 -6.6270026229110828 $521 1.2808562296967101e-014 $241 $523 forward 7 unknown #
coedge $-1 $242 $513 $519 $524 forward $361 $-1 #
vertex $-1 $243 $525 #
vertex $-1 $243 $526 #
straight-curve $-1 -7.1105959828118053 -41.466780778344862 8.2959499556362886 0 1 0 I I #
coedge $-1 $375 $375 $-1 $527 reversed $246 $-1 #
edge $-1 $528 0 $528 6.2831853071796004 $247 $529 forward 7 unknown #
vertex $-1 $250 $530 #
ellipse-curve $-1 -17.567070881707515 -28.19958137298444 6.4912877751994245 0 -0.54463904215088732 0.83867056331134215 1 0 0 1 I I #
coedge $-1 $379 $379 $-1 $531 reversed $253 $-1 #
edge $-1 $532 0 $532 6.2831853071796004 $254 $533 forward 7 unknown #
vertex $-1 $257 $534 #
ellipse-curve $-1 -11.293185942370087 -28.19958137298444 6.4912877751994245 0 -0.54463904215088732 0.83867056331134215 1 0 0 1 I I #
face $-1 $-1 $395 $53 $-1 $535 forward single #
loop $-1 $-1 $536 $258 #
plane-surface $-1 0 -30.978517384395733 0 0 1 0 0 0 1 forward_v I I I I #
coedge $-1 $537 $538 $539 $540 reversed $259 $-1 #
coedge $-1 $541 $261 $263 $393 forward $163 $-1 #
coedge $-1 $261 $541 $537 $542 forward $163 $-1 #
coedge $-1 $539 $264 $261 $390 forward $395 $-1 #
edge $-1 $397 -17.808897974742145 $543 -3.1698331162881459 $389 $544 forward 7 unknown #
coedge $-1 $545 $546 $262 $392 forward $384 $-1 #
edge $-1 $547 -37.658562564660727 $396 -34.049238203787013 $391 $548 forward 7 unknown #
edge $-1 $397 -6.6270026229110828 $547 1.2808562296967101e-014 $263 $549 forward 7 unknown #
coedge $-1 $264 $539 $545 $550 forward $395 $-1 #
loop $-1 $-1 $539 $383 #
vertex $-1 $392 $551 #
vertex $-1 $265 $552 #
straight-curve $-1 28.29826352025729 -41.466780778344862 8.2959499556362886 0 1 0 I I #
coedge $-1 $399 $399 $-1 $553 reversed $268 $-1 #
edge $-1 $554 0 $554 6.2831853071796004 $269 $555 forward 7 unknown #
vertex $-1 $272 $556 #
ellipse-curve $-1 17.841788621361594 -28.19958137298444 6.4912877751994245 0 -0.54463904215088732 0.83867056331134215 1 0 0 1 I I #
coedge $-1 $403 $403 $-1 $557 reversed $275 $-1 #
edge $-1 $558 0 $558 6.2831853071796004 $276 $559 forward 7 unknown #
vertex $-1 $279 $560 #
ellipse-curve $-1 24.115673560699015 -28.19958137298444 6.4912877751994245 0 -0.54463904215088732 0.83867056331134215 1 0 0 1 I I #
face $-1 $-1 $419 $42 $-1 $561 reversed single #
loop $-1 $-1 $562 $280 #
plane-surface $-1 0 30.978517384395733 0 0 -1 0 0 0 -1 forward_v I I I I #
coedge $-1 $418 $417 $283 $411 reversed $419 $-1 #
edge $-1 $563 -30.978517384395733 $564 30.978517384395733 $410 $565 forward 7 unknown #
coedge $-1 $285 $284 $288 $423 forward $113 $-1 #
coedge $-1 $562 $291 $284 $414 reversed $408 $-1 #
edge $-1 $421 -47.696768089846493 $428 47.696768089846493 $413 $566 forward 7 unknown #
coedge $-1 $289 $567 $285 $416 reversed $281 $-1 #
edge $-1 $425 -47.696768089846493 $420 47.696768089846493 $415 $568 forward 7 unknown #
coedge $-1 $410 $286 $567 $569 forward $419 $-1 #
coedge $-1 $286 $410 $562 $570 reversed $419 $-1 #
loop $-1 $-1 $417 $407 #
vertex $-1 $287 $571 #
vertex $-1 $287 $572 #
straight-curve $-1 47.696768089846493 0 8.295949955636285 0 1 0 I I #
edge $-1 $428 -30.978517384395733 $425 30.978517384395733 $288 $573 forward 7 unknown #
coedge $-1 $567 $289 $294 $431 reversed $281 $-1 #
vertex $-1 $423 $574 #
straight-curve $-1 -47.696768089846493 -30.978517384395733 0 0 0 -1 I I #
coedge $-1 $291 $562 $293 $430 reversed $408 $-1 #
vertex $-1 $414 $575 #
straight-curve $-1 -47.696768089846493 30.978517384395733 0 0 0 -1 I I #
edge $-1 $296 -47.696768089846493 $563 47.696768089846493 $427 $576 forward 7 unknown #
edge $-1 $564 -47.696768089846493 $295 47.696768089846493 $424 $577 forward 7 unknown #
point $-1 -47.696768089846493 -30.978517384395733 -8.295949955636285 #
point $-1 -47.696768089846493 30.978517384395733 -8.295949955636285 #
face $-1 $-1 $450 $43 $-1 $578 forward single #
plane-surface $-1 -50.971069429342251 -14.386617473123163 0 0 -1 0 0 0 -1 forward_v I I I I #
coedge $-1 $579 $580 $453 $581 forward $299 $-1 #
coedge $-1 $446 $301 $302 $442 reversed $185 $-1 #
coedge $-1 $301 $446 $449 $582 reversed $185 $-1 #
coedge $-1 $580 $579 $301 $440 reversed $299 $-1 #
edge $-1 $583 -8.295949955636285 $584 8.295949955636285 $439 $585 forward 7 unknown #
coedge $-1 $303 $302 $579 $586 forward $117 $-1 #
edge $-1 $444 -3.2743013394957572 $584 3.2743013394957572 $437 $587 forward 7 unknown #
edge $-1 $588 -3.2743013394957572 $311 3.2743013394957572 $308 $589 forward 7 unknown #
vertex $-1 $442 $590 #
straight-curve $-1 -47.696768089846493 0 -8.295949955636285 0 -1 0 I I #
coedge $-1 $438 $437 $305 $447 reversed $185 $-1 #
edge $-1 $451 -8.295949955636285 $444 8.295949955636285 $446 $591 forward 7 unknown #
coedge $-1 $592 $306 $309 $454 forward $450 $-1 #
coedge $-1 $306 $592 $438 $582 forward $450 $-1 #
loop $-1 $-1 $306 $434 #
vertex $-1 $307 $593 #
straight-curve $-1 -47.696768089846493 0 8.295949955636285 0 1 0 I I #
coedge $-1 $309 $308 $436 $581 reversed $310 $-1 #
edge $-1 $312 -3.2743013394957572 $594 3.2743013394957572 $309 $595 forward 7 unknown #
point $-1 -47.696768089846493 -14.386617473123163 -8.295949955636285 #
point $-1 -47.696768089846493 -14.386617473123163 8.295949955636285 #
loop $-1 $-1 $322 $314 #
plane-surface $-1 0 30.978517384395733 0 0 -1 0 0 0 -1 forward_v I I I I #
coedge $-1 $460 $317 $319 $464 reversed $193 $-1 #
coedge $-1 $317 $459 $596 $597 reversed $193 $-1 #
coedge $-1 $325 $320 $317 $462 forward $315 $-1 #
edge $-1 $465 9.9346352085496452 $598 15.492507231372246 $461 $599 forward 7 unknown #
coedge $-1 $319 $318 $468 $600 reversed $121 $-1 #
edge $-1 $601 -61.95703476879148 $465 -55.330032145880367 $459 $602 forward 7 unknown #
vertex $-1 $321 $603 #
straight-curve $-1 -7.2150642060194023 25.42064536157314 8.295949955636285 1 0 0 I I #
coedge $-1 $596 $322 $325 $472 reversed $457 $-1 #
coedge $-1 $322 $596 $463 $600 forward $457 $-1 #
vertex $-1 $323 $604 #
straight-curve $-1 -21.749660841265804 30.978517384395733 59.217298194915195 0 0 1 I I #
straight-curve $-1 -21.749660841265804 -20.983023866247027 38.430845665746375 0 0.83867056331134215 -0.54463904215088732 I I #
edge $-1 $598 7.1105959828118053 $326 21.749660841265804 $467 $605 forward 7 unknown #
point $-1 -21.749660841265804 30.978517384395733 8.295949955636285 #
point $-1 -21.749660841265804 25.420645361573133 8.295949955636285 #
edge $-1 $606 1 $606 0 $329 $-1 forward 7 unknown #
vertex $-1 $330 $607 #
ellipse-curve $-1 -17.567070881707515 27.445111608823211 5.3295062407511988 0 0.54463904215088732 0.83867056331134215 1 0 0 1 I I #
point $-1 -16.567070881707515 28.19958137298444 6.491287775199428 #
edge $-1 $608 1 $608 0 $333 $-1 forward 7 unknown #
vertex $-1 $334 $609 #
ellipse-curve $-1 -11.293185942370087 27.445111608823211 5.3295062407511988 0 0.54463904215088732 0.83867056331134215 1 0 0 1 I I #
point $-1 -10.293185942370087 28.19958137298444 6.491287775199428 #
loop $-1 $-1 $345 $337 #
plane-surface $-1 0 30.978517384395733 0 0 -1 0 0 0 -1 forward_v I I I I #
coedge $-1 $486 $340 $342 $490 reversed $215 $-1 #
coedge $-1 $340 $485 $610 $611 reversed $215 $-1 #
coedge $-1 $348 $343 $340 $488 forward $338 $-1 #
edge $-1 $491 9.9346352085496452 $612 15.492507231372246 $487 $613 forward 7 unknown #
coedge $-1 $342 $341 $494 $614 reversed $135 $-1 #
edge $-1 $615 -61.95703476879148 $491 -55.330032145880367 $485 $616 forward 7 unknown #
vertex $-1 $344 $617 #
straight-curve $-1 10.489365545515145 25.42064536157314 8.295949955636285 1 0 0 I I #
coedge $-1 $610 $345 $348 $498 reversed $483 $-1 #
coedge $-1 $345 $610 $489 $614 forward $483 $-1 #
vertex $-1 $346 $618 #
straight-curve $-1 13.659198661803291 30.978517384395733 59.217298194915195 0 0 1 I I #
straight-curve $-1 13.659198661803291 -20.983023866247027 38.430845665746375 0 0.83867056331134215 -0.54463904215088732 I I #
edge $-1 $612 -28.29826352025729 $349 -13.659198661803291 $493 $619 forward 7 unknown #
point $-1 13.659198661803291 30.978517384395733 8.295949955636285 #
point $-1 13.659198661803291 25.420645361573133 8.295949955636285 #
edge $-1 $620 1 $620 0 $352 $-1 forward 7 unknown #
vertex $-1 $353 $621 #
ellipse-curve $-1 17.841788621361594 27.445111608823211 5.3295062407511988 0 0.54463904215088732 0.83867056331134215 1 0 0 1 I I #
point $-1 18.841788621361594 28.19958137298444 6.491287775199428 #
edge $-1 $622 1 $622 0 $356 $-1 forward 7 unknown #
vertex $-1 $357 $623 #
ellipse-curve $-1 24.115673560699015 27.445111608823211 5.3295062407511988 0 0.54463904215088732 0.83867056331134215 1 0 0 1 I I #
point $-1 25.115673560699015 28.19958137298444 6.491287775199428 #
loop $-1 $-1 $368 $360 #
plane-surface $-1 0 -30.978517384395733 0 0 1 0 0 0 1 forward_v I I I I #
coedge $-1 $512 $363 $365 $516 reversed $237 $-1 #
coedge $-1 $363 $511 $624 $625 reversed $237 $-1 #
coedge $-1 $371 $366 $363 $514 forward $361 $-1 #
edge $-1 $517 -16.046135416771719 $626 -10.488263393949129 $513 $627 forward 7 unknown #
coedge $-1 $365 $364 $520 $628 reversed $149 $-1 #
edge $-1 $629 -1.2808562296967101e-014 $517 6.6270026229110828 $511 $630 forward 7 unknown #
vertex $-1 $367 $631 #
straight-curve $-1 -7.2150642060194023 -25.420645361573143 8.295949955636285 -1 0 0 I I #
coedge $-1 $624 $368 $371 $524 reversed $509 $-1 #
coedge $-1 $368 $624 $515 $628 forward $509 $-1 #
vertex $-1 $369 $632 #
straight-curve $-1 -7.1105959828118053 -30.978517384395733 42.345188159423294 0 0 1 I I #
straight-curve $-1 -7.1105959828118053 -30.978517384395722 4.6866255947625746 0 -0.83867056331134215 -0.54463904215088732 I I #
edge $-1 $626 -21.749660841265804 $372 -7.1105959828118053 $519 $633 forward 7 unknown #
point $-1 -7.1105959828118053 -30.978517384395733 8.295949955636285 #
point $-1 -7.1105959828118053 -25.420645361573143 8.295949955636285 #
edge $-1 $634 1 $634 0 $375 $-1 forward 7 unknown #
vertex $-1 $376 $635 #
ellipse-curve $-1 -17.567070881707515 -27.445111608823218 5.3295062407512006 0 -0.54463904215088732 0.83867056331134215 1 0 0 1 I I #
point $-1 -16.567070881707515 -28.199581372984444 6.4912877751994298 #
edge $-1 $636 1 $636 0 $379 $-1 forward 7 unknown #
vertex $-1 $380 $637 #
ellipse-curve $-1 -11.293185942370087 -27.445111608823218 5.3295062407512006 0 -0.54463904215088732 0.83867056331134215 1 0 0 1 I I #
point $-1 -10.293185942370087 -28.199581372984444 6.4912877751994298 #
plane-surface $-1 0 0 8.295949955636285 0 0 1 1 0 0 forward_v I I I I #
coedge $-1 $546 $545 $538 $638 forward $384 $-1 #
coedge $-1 $538 $386 $388 $542 reversed $259 $-1 #
coedge $-1 $386 $537 $536 $638 reversed $259 $-1 #
coedge $-1 $394 $389 $386 $540 forward $395 $-1 #
edge $-1 $543 -16.046135416771719 $639 -10.488263393949129 $539 $640 forward 7 unknown #
coedge $-1 $388 $387 $546 $641 reversed $163 $-1 #
edge $-1 $642 -1.2808562296967101e-014 $543 6.6270026229110828 $537 $643 forward 7 unknown #
vertex $-1 $390 $644 #
straight-curve $-1 10.489365545515145 -25.420645361573143 8.295949955636285 -1 0 0 I I #
coedge $-1 $536 $391 $394 $550 reversed $384 $-1 #
coedge $-1 $391 $536 $541 $641 forward $384 $-1 #
vertex $-1 $392 $645 #
straight-curve $-1 28.29826352025729 -30.978517384395733 42.345188159423294 0 0 1 I I #
straight-curve $-1 28.29826352025729 -30.978517384395722 4.6866255947625746 0 -0.83867056331134215 -0.54463904215088732 I I #
edge $-1 $639 13.659198661803291 $396 28.29826352025729 $545 $646 forward 7 unknown #
point $-1 28.29826352025729 -30.978517384395733 8.295949955636285 #
point $-1 28.29826352025729 -25.420645361573143 8.295949955636285 #
edge $-1 $647 1 $647 0 $399 $-1 forward 7 unknown #
vertex $-1 $400 $648 #
ellipse-curve $-1 17.841788621361594 -27.445111608823218 5.3295062407512006 0 -0.54463904215088732 0.83867056331134215 1 0 0 1 I I #
point $-1 18.841788621361594 -28.199581372984444 6.4912877751994298 #
edge $-1 $649 1 $649 0 $403 $-1 forward 7 unknown #
vertex $-1 $404 $650 #
ellipse-curve $-1 24.115673560699015 -27.445111608823218 5.3295062407512006 0 -0.54463904215088732 0.83867056331134215 1 0 0 1 I I #
point $-1 25.115673560699015 -28.199581372984444 6.4912877751994298 #
plane-surface $-1 47.696768089846493 0 0 -1 0 0 0 0 1 forward_v I I I I #
coedge $-1 $427 $413 $418 $570 forward $408 $-1 #
vertex $-1 $411 $651 #
vertex $-1 $569 $652 #
straight-curve $-1 47.696768089846493 0 -8.295949955636285 0 -1 0 I I #
straight-curve $-1 0 30.978517384395733 8.295949955636285 -1 0 0 I I #
coedge $-1 $415 $424 $417 $569 reversed $281 $-1 #
straight-curve $-1 0 -30.978517384395733 8.295949955636285 1 0 0 I I #
edge $-1 $420 -8.295949955636285 $564 8.295949955636285 $417 $653 forward 7 unknown #
edge $-1 $421 -8.295949955636285 $563 8.295949955636285 $418 $654 forward 7 unknown #
point $-1 47.696768089846493 -30.978517384395733 8.295949955636285 #
point $-1 47.696768089846493 30.978517384395733 8.295949955636285 #
straight-curve $-1 -47.696768089846493 0 8.295949955636285 0 -1 0 I I #
point $-1 -47.696768089846493 -30.978517384395733 8.295949955636285 #
point $-1 -47.696768089846493 30.978517384395733 8.295949955636285 #
straight-curve $-1 0 30.978517384395733 -8.295949955636285 1 0 0 I I #
straight-curve $-1 0 -30.978517384395733 -8.295949955636285 -1 0 0 I I #
plane-surface $-1 0 0 8.295949955636285 0 0 1 1 0 0 forward_v I I I I #
coedge $-1 $439 $436 $441 $586 reversed $299 $-1 #
coedge $-1 $436 $439 $592 $655 reversed $299 $-1 #
edge $-1 $594 -8.295949955636285 $588 8.295949955636285 $453 $656 forward 7 unknown #
edge $-1 $583 -3.2743013394957572 $451 3.2743013394957572 $438 $657 forward 7 unknown #
vertex $-1 $655 $658 #
vertex $-1 $586 $659 #
straight-curve $-1 -54.245370768838008 -17.386617473123163 0 0 0 -1 I I #
edge $-1 $584 -1.5 $588 1.5 $579 $660 forward 7 unknown #
straight-curve $-1 -50.971069429342251 -17.386617473123163 -8.295949955636285 -1 0 0 I I #
vertex $-1 $443 $661 #
straight-curve $-1 -50.971069429342251 -14.386617473123163 -8.295949955636285 1 0 0 I I #
point $-1 -47.696768089846493 -17.386617473123163 -8.295949955636285 #
straight-curve $-1 -47.696768089846493 -17.386617473123163 0 0 0 -1 I I #
coedge $-1 $449 $448 $580 $655 forward $450 $-1 #
point $-1 -47.696768089846493 -17.386617473123163 8.295949955636285 #
vertex $-1 $454 $662 #
straight-curve $-1 -50.971069429342251 -14.386617473123163 8.295949955636285 -1 0 0 I I #
coedge $-1 $468 $467 $460 $597 forward $457 $-1 #
edge $-1 $598 50.921348239278913 $601 54.530672600152634 $596 $663 forward 7 unknown #
vertex $-1 $472 $664 #
straight-curve $-1 -7.1105959828118053 15.486010153023487 8.2959499556362886 0 1 0 I I #
edge $-1 $601 -0.10446822320759708 $469 14.534596635246402 $468 $665 forward 7 unknown #
vertex $-1 $600 $666 #
straight-curve $-1 -7.1105959828118053 -20.983023866247027 38.430845665746375 0 -0.83867056331134215 0.54463904215088732 I I #
point $-1 -7.1105959828118053 25.420645361573133 8.295949955636285 #
point $-1 -21.749660841265804 30.978517384395733 4.6866255947625604 #
straight-curve $-1 0 30.978517384395733 8.295949955636285 -1 0 0 I I #
vertex $-1 $475 $667 #
point $-1 -16.567070881707515 27.445111608823211 5.3295062407511988 #
vertex $-1 $479 $668 #
point $-1 -10.293185942370087 27.445111608823211 5.3295062407511988 #
coedge $-1 $494 $493 $486 $611 forward $483 $-1 #
edge $-1 $612 50.921348239278913 $615 54.530672600152634 $610 $669 forward 7 unknown #
vertex $-1 $498 $670 #
straight-curve $-1 28.29826352025729 15.486010153023487 8.2959499556362886 0 1 0 I I #
edge $-1 $615 -17.808897974742145 $495 -3.1698331162881459 $494 $671 forward 7 unknown #
vertex $-1 $614 $672 #
straight-curve $-1 28.29826352025729 -20.983023866247027 38.430845665746375 0 -0.83867056331134215 0.54463904215088732 I I #
point $-1 28.29826352025729 25.420645361573133 8.295949955636285 #
point $-1 13.659198661803291 30.978517384395733 4.6866255947625604 #
straight-curve $-1 0 30.978517384395733 8.295949955636285 -1 0 0 I I #
vertex $-1 $501 $673 #
point $-1 18.841788621361594 27.445111608823211 5.3295062407511988 #
vertex $-1 $505 $674 #
point $-1 25.115673560699015 27.445111608823211 5.3295062407511988 #
coedge $-1 $520 $519 $512 $625 forward $509 $-1 #
edge $-1 $626 34.049238203787013 $629 37.658562564660727 $624 $675 forward 7 unknown #
vertex $-1 $524 $676 #
straight-curve $-1 -21.749660841265804 -41.466780778344862 8.2959499556362886 0 -1 0 I I #
edge $-1 $629 -14.534596635246402 $521 0.10446822320759708 $520 $677 forward 7 unknown #
vertex $-1 $628 $678 #
straight-curve $-1 -21.749660841265804 -30.978517384395722 4.6866255947625746 0 0.83867056331134215 0.54463904215088732 I I #
point $-1 -21.749660841265804 -25.420645361573143 8.295949955636285 #
point $-1 -7.1105959828118053 -30.978517384395733 4.6866255947625675 #
straight-curve $-1 0 -30.978517384395733 8.295949955636285 1 0 0 I I #
vertex $-1 $527 $679 #
point $-1 -16.567070881707515 -27.445111608823218 5.3295062407512006 #
vertex $-1 $531 $680 #
point $-1 -10.293185942370087 -27.445111608823218 5.3295062407512006 #
edge $-1 $639 34.049238203787013 $642 37.658562564660727 $536 $681 forward 7 unknown #
vertex $-1 $550 $682 #
straight-curve $-1 13.659198661803291 -41.466780778344862 8.2959499556362886 0 -1 0 I I #
edge $-1 $642 3.1698331162881459 $547 17.808897974742145 $546 $683 forward 7 unknown #
vertex $-1 $641 $684 #
straight-curve $-1 13.659198661803291 -30.978517384395722 4.6866255947625746 0 0.83867056331134215 0.54463904215088732 I I #
point $-1 13.659198661803291 -25.420645361573143 8.295949955636285 #
point $-1 28.29826352025729 -30.978517384395733 4.6866255947625675 #
straight-curve $-1 0 -30.978517384395733 8.295949955636285 1 0 0 I I #
vertex $-1 $553 $685 #
point $-1 18.841788621361594 -27.445111608823218 5.3295062407512006 #
vertex $-1 $557 $686 #
point $-1 25.115673560699015 -27.445111608823218 5.3295062407512006 #
point $-1 47.696768089846493 30.978517384395733 -8.295949955636285 #
point $-1 47.696768089846493 -30.978517384395733 -8.295949955636285 #
straight-curve $-1 47.696768089846493 -30.978517384395733 0 0 0 -1 I I #
straight-curve $-1 47.696768089846493 30.978517384395733 0 0 0 -1 I I #
edge $-1 $594 -1.5 $583 1.5 $580 $687 forward 7 unknown #
straight-curve $-1 -54.245370768838008 -14.386617473123163 0 0 0 -1 I I #
straight-curve $-1 -50.971069429342251 -17.386617473123163 8.295949955636285 1 0 0 I I #
point $-1 -54.245370768838008 -17.386617473123163 8.295949955636285 #
point $-1 -54.245370768838008 -17.386617473123163 -8.295949955636285 #
straight-curve $-1 -54.245370768838008 -15.886617473123163 -8.295949955636285 0 1 0 I I #
point $-1 -54.245370768838008 -14.386617473123163 -8.295949955636285 #
point $-1 -54.245370768838008 -14.386617473123163 8.295949955636285 #
straight-curve $-1 -7.1105959828118053 30.978517384395733 59.217298194915195 0 0 -1 I I #
point $-1 -7.1105959828118053 30.978517384395733 8.295949955636285 #
straight-curve $-1 -7.2150642060194023 30.978517384395737 4.6866255947625639 -1 0 0 I I #
point $-1 -7.1105959828118053 30.978517384395733 4.6866255947625604 #
point $-1 -17.567070881707515 26.900472566672327 4.4908356774398559 #
point $-1 -11.293185942370087 26.900472566672327 4.4908356774398559 #
straight-curve $-1 28.29826352025729 30.978517384395733 59.217298194915195 0 0 -1 I I #
point $-1 28.29826352025729 30.978517384395733 8.295949955636285 #
straight-curve $-1 10.489365545515145 30.978517384395737 4.6866255947625639 -1 0 0 I I #
point $-1 28.29826352025729 30.978517384395733 4.6866255947625604 #
point $-1 17.841788621361594 26.900472566672327 4.4908356774398559 #
point $-1 24.115673560699015 26.900472566672327 4.4908356774398559 #
straight-curve $-1 -21.749660841265804 -30.978517384395733 42.345188159423294 0 0 -1 I I #
point $-1 -21.749660841265804 -30.978517384395733 8.295949955636285 #
straight-curve $-1 -7.2150642060194023 -30.978517384395733 4.6866255947625692 1 0 0 I I #
point $-1 -21.749660841265804 -30.978517384395733 4.6866255947625675 #
point $-1 -17.567070881707515 -26.900472566672327 4.4908356774398577 #
point $-1 -11.293185942370087 -26.900472566672327 4.4908356774398577 #
straight-curve $-1 13.659198661803291 -30.978517384395733 42.345188159423294 0 0 -1 I I #
point $-1 13.659198661803291 -30.978517384395733 8.295949955636285 #
straight-curve $-1 10.489365545515145 -30.978517384395733 4.6866255947625692 1 0 0 I I #
point $-1 13.659198661803291 -30.978517384395733 4.6866255947625675 #
point $-1 17.841788621361594 -26.900472566672327 4.4908356774398577 #
point $-1 24.115673560699015 -26.900472566672327 4.4908356774398577 #
straight-curve $-1 -54.245370768838008 -15.886617473123163 8.295949955636285 0 -1 0 I I #
End-of-ACIS-data 