500 0 4 0           
7 Unknown 11 ACIS 5.0 NT 24 Fri Mar 26 18:23:01 1999 
-1 9.9999999999999995e-007 1e-010 
body $-1 $4 $-1 $5 #
body $-1 $6 $-1 $7 #
body $-1 $8 $-1 $9 #
body $-1 $10 $-1 $11 #
lump $-1 $-1 $12 $0 #
transform $-1 1 0 0 0 1 0 0 0 1 78.924527726065861 36.323781254705537 7.3645255405594279 1 rotate no_reflect no_shear #
lump $-1 $-1 $13 $1 #
transform $-1 1 0 0 0 1 0 0 0 1 78.924527726065861 36.323781254705537 7.3645255405594279 1 rotate no_reflect no_shear #
lump $-1 $-1 $14 $2 #
transform $-1 1 0 0 0 1 0 0 0 1 78.924527726065861 36.323781254705537 7.3645255405594279 1 rotate no_reflect no_shear #
lump $-1 $-1 $15 $3 #
transform $-1 1 0 0 0 1 0 0 0 1 78.924527726065861 36.323781254705537 7.3645255405594279 1 rotate no_reflect no_shear #
shell $-1 $-1 $-1 $16 $-1 $4 #
shell $-1 $-1 $-1 $17 $-1 $6 #
shell $-1 $-1 $-1 $18 $-1 $8 #
shell $-1 $-1 $-1 $19 $-1 $10 #
face $-1 $20 $21 $12 $-1 $22 forward single #
face $-1 $23 $24 $13 $-1 $25 forward single #
face $-1 $26 $27 $14 $-1 $28 reversed single #
face $-1 $29 $30 $15 $-1 $31 forward single #
face $-1 $32 $33 $12 $-1 $34 reversed single #
loop $-1 $-1 $35 $16 #
plane-surface $-1 0 0 7.3645255405594279 0 0 1 1 0 0 forward_v I I I I #
face $-1 $36 $37 $13 $-1 $38 reversed single #
loop $-1 $-1 $39 $17 #
plane-surface $-1 0 -36.323781254705537 0 0 1 0 0 0 1 forward_v I I I I #
face $-1 $40 $41 $14 $-1 $42 reversed single #
loop $-1 $-1 $43 $18 #
plane-surface $-1 -171.70587579446621 -8.4168006736841718 130.03314719535192 0 1 0 -0.5877852598018023 0 0.80901698891910034 forward_v I I I I #
face $-1 $44 $45 $15 $-1 $46 forward single #
loop $-1 $47 $48 $19 #
cone-surface $-1 -74.348811108777639 1.3552701758814294 3.3178408934942492 0.5877852598018023 0 -0.80901698891910034 1.2135254833786506 0 0.88167788970270344 1 I I 0 1 1.5 forward I I I I #
face $-1 $49 $50 $12 $-1 $51 reversed single #
loop $-1 $-1 $52 $20 #
plane-surface $-1 0 0 -7.3645255405594279 0 0 1 1 0 0 forward_v I I I I #
coedge $-1 $53 $54 $55 $56 forward $21 $-1 #
face $-1 $57 $58 $13 $-1 $59 reversed single #
loop $-1 $-1 $60 $23 #
plane-surface $-1 0 0 -7.3645255405594279 0 0 1 1 0 0 forward_v I I I I #
coedge $-1 $61 $62 $63 $64 forward $24 $-1 #
face $-1 $65 $66 $14 $-1 $67 reversed single #
loop $-1 $-1 $68 $26 #
plane-surface $-1 -78.924527726065861 1.3552701758814294 2.3305796497442088 -0.5877852598018023 0 0.80901698891910034 0.80901698891910034 0 0.5877852598018023 forward_v I I I I #
coedge $-1 $69 $70 $71 $72 reversed $27 $-1 #
face $-1 $-1 $73 $15 $-1 $74 forward single #
loop $-1 $75 $76 $29 #
cone-surface $-1 -72.796571535390711 1.3552701758814294 1.1813664501473573 0.5877852598018023 0 -0.80901698891910034 0.60676274168932531 0 0.44083894485135172 1 I I -0.70710678118654757 0.70710678118654757 0.75 forward I I I I #
loop $-1 $-1 $77 $19 #
coedge $-1 $48 $48 $78 $79 reversed $30 $-1 #
face $-1 $80 $81 $12 $-1 $82 reversed single #
loop $-1 $-1 $83 $32 #
plane-surface $-1 0 -36.323781254705537 0 0 1 0 0 0 1 forward_v I I I I #
coedge $-1 $84 $85 $86 $87 forward $33 $-1 #
coedge $-1 $88 $35 $89 $90 forward $21 $-1 #
coedge $-1 $35 $88 $91 $92 forward $21 $-1 #
coedge $-1 $93 $94 $35 $56 reversed $95 $-1 #
edge $-1 $96 -36.323781254705537 $97 36.323781254705537 $55 $98 forward 7 unknown #
face $-1 $99 $100 $13 $-1 $101 forward single #
loop $-1 $-1 $102 $36 #
plane-surface $-1 78.924527726065861 0 0 -1 0 0 0 0 1 forward_v I I I I #
coedge $-1 $103 $104 $105 $106 forward $37 $-1 #
coedge $-1 $105 $39 $102 $107 reversed $24 $-1 #
coedge $-1 $39 $105 $108 $109 reversed $24 $-1 #
coedge $-1 $110 $111 $39 $64 reversed $100 $-1 #
edge $-1 $112 -78.924527726065861 $113 78.924527726065861 $63 $114 forward 7 unknown #
face $-1 $115 $116 $14 $-1 $117 forward single #
loop $-1 $-1 $118 $40 #
plane-surface $-1 -171.70587579446621 11.127341025447031 130.03314719535192 0 -1 0 0.5877852598018023 0 -0.80901698891910034 forward_v I I I I #
coedge $-1 $119 $120 $121 $122 reversed $41 $-1 #
coedge $-1 $70 $43 $123 $124 reversed $27 $-1 #
coedge $-1 $43 $69 $119 $125 reversed $27 $-1 #
coedge $-1 $121 $126 $43 $72 forward $116 $-1 #
edge $-1 $127 6.9284101711672434 $128 13.857042148672505 $71 $129 forward 7 unknown #
loop $-1 $-1 $78 $44 #
plane-surface $-1 -78.924527726065861 1.3552701758814294 2.3305796497442088 -0.5877852598018023 0 0.80901698891910034 0.80901698891910034 0 0.5877852598018023 forward_v I I I I #
loop $-1 $-1 $130 $29 #
coedge $-1 $76 $76 $77 $131 reversed $45 $-1 #
coedge $-1 $77 $77 $76 $131 forward $47 $-1 #
coedge $-1 $78 $78 $48 $79 forward $73 $-1 #
edge $-1 $132 0 $132 6.2831853071796004 $78 $133 forward 7 unknown #
face $-1 $134 $135 $12 $-1 $136 reversed single #
loop $-1 $-1 $137 $49 #
plane-surface $-1 -78.924527726065861 0 0 1 0 0 0 0 -1 forward_v I I I I #
coedge $-1 $138 $91 $139 $140 forward $50 $-1 #
coedge $-1 $141 $52 $138 $142 forward $33 $-1 #
coedge $-1 $52 $141 $143 $144 forward $33 $-1 #
coedge $-1 $94 $93 $52 $87 reversed $95 $-1 #
edge $-1 $145 -36.323781254705537 $146 36.323781254705537 $86 $147 forward 7 unknown #
coedge $-1 $54 $53 $148 $149 forward $21 $-1 #
coedge $-1 $150 $151 $53 $90 reversed $135 $-1 #
edge $-1 $97 -78.924527726065861 $152 78.924527726065861 $89 $153 forward 7 unknown #
coedge $-1 $83 $154 $54 $92 reversed $50 $-1 #
edge $-1 $155 -78.924527726065861 $96 78.924527726065861 $91 $156 forward 7 unknown #
coedge $-1 $86 $55 $154 $157 forward $95 $-1 #
coedge $-1 $55 $86 $150 $158 reversed $95 $-1 #
loop $-1 $-1 $93 $134 #
vertex $-1 $56 $159 #
vertex $-1 $56 $160 #
straight-curve $-1 78.924527726065861 0 7.3645255405594279 0 1 0 I I #
face $-1 $161 $162 $13 $-1 $163 reversed single #
loop $-1 $-1 $111 $57 #
plane-surface $-1 0 -38.980067422013086 -4.3645255405594279 0 0 1 1 0 0 forward_v I I I I #
coedge $-1 $164 $165 $61 $107 forward $58 $-1 #
coedge $-1 $166 $60 $165 $167 forward $37 $-1 #
coedge $-1 $60 $166 $168 $169 forward $37 $-1 #
coedge $-1 $62 $61 $60 $106 reversed $24 $-1 #
edge $-1 $170 -78.924527726065861 $171 78.924527726065861 $60 $172 forward 7 unknown #
edge $-1 $171 -7.3645255405594279 $113 -4.3645255405594279 $102 $173 forward 7 unknown #
coedge $-1 $168 $174 $62 $109 forward $175 $-1 #
edge $-1 $112 4.3645255405594279 $170 7.3645255405594279 $108 $176 forward 7 unknown #
coedge $-1 $177 $63 $174 $178 forward $100 $-1 #
coedge $-1 $63 $177 $164 $179 forward $100 $-1 #
vertex $-1 $109 $180 #
vertex $-1 $179 $181 #
straight-curve $-1 0 -36.323781254705537 -4.3645255405594279 1 0 0 I I #
face $-1 $-1 $182 $14 $-1 $183 reversed single #
loop $-1 $-1 $71 $65 #
plane-surface $-1 0 0 7.3645255405594279 0 0 1 1 0 0 forward_v I I I I #
coedge $-1 $184 $185 $186 $187 reversed $66 $-1 #
coedge $-1 $188 $68 $70 $125 forward $41 $-1 #
coedge $-1 $68 $188 $184 $189 forward $41 $-1 #
coedge $-1 $186 $71 $68 $122 forward $116 $-1 #
edge $-1 $128 -9.0944357616248865 $190 10.449705937506316 $121 $191 forward 7 unknown #
coedge $-1 $192 $193 $69 $124 forward $182 $-1 #
edge $-1 $194 -62.685993947931749 $127 -57.652048057116531 $123 $195 forward 7 unknown #
edge $-1 $128 -8.564260173030938 $194 0 $70 $196 forward 7 unknown #
coedge $-1 $71 $186 $192 $197 forward $116 $-1 #
vertex $-1 $124 $198 #
vertex $-1 $72 $199 #
straight-curve $-1 -85.852937897233105 -8.4168006736841718 7.364525540559427 1 0 0 I I #
coedge $-1 $130 $130 $-1 $200 reversed $75 $-1 #
edge $-1 $201 0 $201 6.2831853071796004 $76 $202 forward 7 unknown #
vertex $-1 $79 $203 #
ellipse-curve $-1 -75.460211737313216 1.3552701758814294 4.8475525951518224 -0.5877852598018023 0 0.80901698891910034 1.2135254833786506 0 0.88167788970270344 1 I I #
face $-1 $-1 $95 $12 $-1 $204 reversed single #
loop $-1 $-1 $150 $80 #
plane-surface $-1 0 36.323781254705537 0 0 -1 0 0 0 -1 forward_v I I I I #
coedge $-1 $205 $148 $151 $206 forward $81 $-1 #
coedge $-1 $154 $83 $84 $142 reversed $50 $-1 #
coedge $-1 $148 $205 $83 $140 reversed $81 $-1 #
edge $-1 $155 -7.3645255405594279 $207 7.3645255405594279 $139 $208 forward 7 unknown #
coedge $-1 $85 $84 $205 $209 forward $33 $-1 #
edge $-1 $146 -78.924527726065861 $207 78.924527726065861 $138 $210 forward 7 unknown #
coedge $-1 $151 $150 $85 $144 reversed $135 $-1 #
edge $-1 $211 -78.924527726065861 $145 78.924527726065861 $143 $212 forward 7 unknown #
vertex $-1 $87 $213 #
vertex $-1 $157 $214 #
straight-curve $-1 78.924527726065861 0 -7.3645255405594279 0 -1 0 I I #
coedge $-1 $137 $139 $88 $149 reversed $81 $-1 #
edge $-1 $152 -36.323781254705537 $155 36.323781254705537 $148 $215 forward 7 unknown #
coedge $-1 $143 $89 $94 $158 forward $135 $-1 #
coedge $-1 $89 $143 $137 $206 reversed $135 $-1 #
vertex $-1 $90 $216 #
straight-curve $-1 0 36.323781254705537 7.3645255405594279 -1 0 0 I I #
coedge $-1 $91 $138 $93 $157 reversed $50 $-1 #
vertex $-1 $149 $217 #
straight-curve $-1 0 -36.323781254705537 7.3645255405594279 1 0 0 I I #
edge $-1 $96 -7.3645255405594279 $146 7.3645255405594279 $93 $218 forward 7 unknown #
edge $-1 $97 -7.3645255405594279 $145 7.3645255405594279 $94 $219 forward 7 unknown #
point $-1 78.924527726065861 -36.323781254705537 7.3645255405594279 #
point $-1 78.924527726065861 36.323781254705537 7.3645255405594279 #
face $-1 $-1 $175 $13 $-1 $220 reversed single #
loop $-1 $-1 $221 $99 #
plane-surface $-1 0 -41.636353589320635 -5.8645255405594279 0 1 0 0 0 1 forward_v I I I I #
coedge $-1 $222 $102 $111 $179 reversed $58 $-1 #
coedge $-1 $102 $222 $103 $167 reversed $58 $-1 #
coedge $-1 $104 $103 $223 $224 forward $37 $-1 #
edge $-1 $171 36.323781254705537 $225 41.636353589320635 $165 $226 forward 7 unknown #
coedge $-1 $227 $108 $104 $169 reversed $175 $-1 #
edge $-1 $228 -41.636353589320635 $170 -36.323781254705537 $168 $229 forward 7 unknown #
vertex $-1 $109 $230 #
vertex $-1 $167 $231 #
straight-curve $-1 0 -36.323781254705537 -7.3645255405594279 1 0 0 I I #
straight-curve $-1 78.924527726065861 -36.323781254705537 0 0 0 1 I I #
coedge $-1 $108 $227 $110 $178 reversed $175 $-1 #
loop $-1 $-1 $108 $161 #
straight-curve $-1 -78.924527726065861 -36.323781254705537 0 0 0 -1 I I #
coedge $-1 $111 $110 $232 $233 forward $100 $-1 #
edge $-1 $112 -2.6562861673075489 $234 2.6562861673075489 $174 $235 forward 7 unknown #
edge $-1 $236 -2.6562861673075489 $113 2.6562861673075489 $164 $237 forward 7 unknown #
point $-1 -78.924527726065861 -36.323781254705537 -4.3645255405594279 #
point $-1 78.924527726065861 -36.323781254705537 -4.3645255405594279 #
loop $-1 $-1 $123 $115 #
plane-surface $-1 -78.924527726065861 0 0 1 0 0 0 0 -1 forward_v I I I I #
coedge $-1 $185 $118 $120 $189 reversed $66 $-1 #
coedge $-1 $118 $184 $238 $239 reversed $66 $-1 #
coedge $-1 $126 $121 $118 $187 forward $116 $-1 #
edge $-1 $190 -13.857042148672505 $240 -6.9284101711672434 $186 $241 forward 7 unknown #
coedge $-1 $120 $119 $193 $242 reversed $41 $-1 #
edge $-1 $243 0 $190 8.564260173030938 $184 $244 forward 7 unknown #
vertex $-1 $122 $245 #
straight-curve $-1 -71.995895748560599 0.6776350879407147 7.364525540559427 0 1 0 I I #
coedge $-1 $238 $123 $126 $197 reversed $182 $-1 #
coedge $-1 $123 $238 $188 $242 forward $182 $-1 #
vertex $-1 $124 $246 #
straight-curve $-1 -78.924527726065861 -8.4168006736841718 65.016573597675958 0 0 1 I I #
straight-curve $-1 -78.924527726065861 -8.4168006736841718 2.3305796497442088 -0.80901698891910034 0 -0.5877852598018023 I I #
edge $-1 $240 -11.127341025447031 $127 8.4168006736841718 $192 $247 forward 7 unknown #
point $-1 -78.924527726065861 -8.4168006736841718 7.3645255405594279 #
point $-1 -71.995895748560599 -8.4168006736841718 7.3645255405594279 #
edge $-1 $248 1 $248 0 $130 $-1 forward 7 unknown #
vertex $-1 $131 $249 #
ellipse-curve $-1 -73.237410480242062 1.3552701758814294 1.7881291918366826 -0.5877852598018023 0 0.80901698891910034 1.2135254833786506 0 0.88167788970270344 1 I I #
point $-1 -74.24668625393457 1.3552701758814294 5.7292304848545195 #
plane-surface $-1 78.924527726065861 0 0 -1 0 0 0 0 1 forward_v I I I I #
coedge $-1 $139 $137 $141 $209 reversed $81 $-1 #
edge $-1 $152 -7.3645255405594279 $211 7.3645255405594279 $151 $250 forward 7 unknown #
vertex $-1 $209 $251 #
straight-curve $-1 -78.924527726065861 -36.323781254705537 0 0 0 -1 I I #
edge $-1 $207 -36.323781254705537 $211 36.323781254705537 $205 $252 forward 7 unknown #
straight-curve $-1 0 -36.323781254705537 -7.3645255405594279 -1 0 0 I I #
vertex $-1 $144 $253 #
straight-curve $-1 0 36.323781254705537 -7.3645255405594279 1 0 0 I I #
point $-1 78.924527726065861 36.323781254705537 -7.3645255405594279 #
point $-1 78.924527726065861 -36.323781254705537 -7.3645255405594279 #
straight-curve $-1 -78.924527726065861 0 7.3645255405594279 0 -1 0 I I #
point $-1 -78.924527726065861 36.323781254705537 7.3645255405594279 #
point $-1 -78.924527726065861 -36.323781254705537 7.3645255405594279 #
straight-curve $-1 78.924527726065861 -36.323781254705537 0 0 0 -1 I I #
straight-curve $-1 78.924527726065861 36.323781254705537 0 0 0 -1 I I #
plane-surface $-1 -78.924527726065861 0 0 1 0 0 0 0 -1 forward_v I I I I #
coedge $-1 $223 $232 $227 $254 forward $162 $-1 #
coedge $-1 $165 $164 $255 $256 forward $58 $-1 #
coedge $-1 $255 $221 $166 $224 reversed $162 $-1 #
edge $-1 $225 -78.924527726065861 $228 78.924527726065861 $223 $257 forward 7 unknown #
vertex $-1 $256 $258 #
straight-curve $-1 78.924527726065861 0 -7.3645255405594279 0 -1 0 I I #
coedge $-1 $174 $168 $221 $254 reversed $175 $-1 #
vertex $-1 $169 $259 #
straight-curve $-1 -78.924527726065861 0 -7.3645255405594279 0 1 0 I I #
point $-1 -78.924527726065861 -36.323781254705537 -7.3645255405594279 #
point $-1 78.924527726065861 -36.323781254705537 -7.3645255405594279 #
coedge $-1 $221 $255 $177 $233 reversed $162 $-1 #
edge $-1 $234 -78.924527726065861 $236 78.924527726065861 $232 $260 forward 7 unknown #
vertex $-1 $178 $261 #
straight-curve $-1 -78.924527726065861 -38.980067422013086 -4.3645255405594279 0 -1 0 I I #
vertex $-1 $179 $262 #
straight-curve $-1 78.924527726065861 -38.980067422013086 -4.3645255405594279 0 1 0 I I #
coedge $-1 $193 $192 $185 $239 forward $182 $-1 #
edge $-1 $240 57.652048057116531 $243 62.685993947931749 $238 $263 forward 7 unknown #
vertex $-1 $197 $264 #
straight-curve $-1 -85.852937897233105 11.127341025447031 7.364525540559427 -1 0 0 I I #
edge $-1 $243 -10.449705937506316 $194 9.0944357616248865 $193 $265 forward 7 unknown #
vertex $-1 $242 $266 #
straight-curve $-1 -78.924527726065861 11.127341025447031 2.3305796497442088 0.80901698891910034 0 0.5877852598018023 I I #
point $-1 -71.995895748560599 11.127341025447031 7.3645255405594279 #
point $-1 -78.924527726065861 -8.4168006736841718 2.3305796497442088 #
straight-curve $-1 -78.924527726065861 0 7.3645255405594279 0 -1 0 I I #
vertex $-1 $200 $267 #
point $-1 -72.023884996863416 1.3552701758814294 2.669807081539386 #
straight-curve $-1 -78.924527726065861 36.323781254705537 0 0 0 -1 I I #
point $-1 -78.924527726065861 -36.323781254705537 -7.3645255405594279 #
straight-curve $-1 -78.924527726065861 0 -7.3645255405594279 0 1 0 I I #
point $-1 -78.924527726065861 36.323781254705537 -7.3645255405594279 #
edge $-1 $234 -1.5 $228 1.5 $227 $268 forward 7 unknown #
coedge $-1 $232 $223 $222 $256 reversed $162 $-1 #
edge $-1 $236 -1.5 $225 1.5 $222 $269 forward 7 unknown #
straight-curve $-1 0 -41.636353589320635 -7.3645255405594279 -1 0 0 I I #
point $-1 78.924527726065861 -41.636353589320635 -7.3645255405594279 #
point $-1 -78.924527726065861 -41.636353589320635 -7.3645255405594279 #
straight-curve $-1 0 -41.636353589320635 -4.3645255405594279 1 0 0 I I #
point $-1 -78.924527726065861 -41.636353589320635 -4.3645255405594279 #
point $-1 78.924527726065861 -41.636353589320635 -4.3645255405594279 #
straight-curve $-1 -78.924527726065861 11.127341025447031 65.016573597675958 0 0 -1 I I #
point $-1 -78.924527726065861 11.127341025447031 7.3645255405594279 #
straight-curve $-1 -78.924527726065861 0.6776350879407147 2.3305796497442075 0 -1 0 I I #
point $-1 -78.924527726065861 11.127341025447031 2.3305796497442088 #
point $-1 -72.355732590539361 1.3552701758814294 0.57460370845803199 #
straight-curve $-1 -78.924527726065861 -41.636353589320635 -5.8645255405594279 0 0 -1 I I #
straight-curve $-1 78.924527726065861 -41.636353589320635 -5.8645255405594279 0 0 -1 I I #
End-of-ACIS-data 