500 0 10 0           
7 Unknown 11 ACIS 5.0 NT 24 Fri Mar 26 17:48:05 1999 
-1 9.9999999999999995e-007 1e-010 
body $-1 $10 $-1 $11 #
body $-1 $12 $-1 $13 #
body $-1 $14 $-1 $15 #
body $-1 $16 $-1 $17 #
body $-1 $18 $-1 $19 #
body $-1 $20 $-1 $21 #
body $-1 $22 $-1 $23 #
body $-1 $24 $-1 $25 #
body $-1 $26 $-1 $27 #
body $-1 $28 $-1 $29 #
lump $-1 $-1 $30 $0 #
transform $-1 1 0 0 0 1 0 0 0 1 62.540971098971525 41.3892317966612 9.3710920064775465 1 rotate no_reflect no_shear #
lump $-1 $-1 $31 $1 #
transform $-1 1 0 0 0 1 0 0 0 1 62.540971098971525 41.3892317966612 9.3710920064775465 1 rotate no_reflect no_shear #
lump $-1 $-1 $32 $2 #
transform $-1 1 0 0 0 1 0 0 0 1 62.540971098971525 41.3892317966612 9.3710920064775465 1 rotate no_reflect no_shear #
lump $-1 $-1 $33 $3 #
transform $-1 1 0 0 0 1 0 0 0 1 62.540971098971525 41.3892317966612 9.3710920064775465 1 rotate no_reflect no_shear #
lump $-1 $-1 $34 $4 #
transform $-1 1 0 0 0 1 0 0 0 1 62.540971098971525 41.3892317966612 9.3710920064775465 1 rotate no_reflect no_shear #
lump $-1 $-1 $35 $5 #
transform $-1 1 0 0 0 1 0 0 0 1 62.540971098971525 41.3892317966612 9.3710920064775465 1 rotate no_reflect no_shear #
lump $-1 $-1 $36 $6 #
transform $-1 1 0 0 0 1 0 0 0 1 62.540971098971525 41.3892317966612 9.3710920064775465 1 rotate no_reflect no_shear #
lump $-1 $-1 $37 $7 #
transform $-1 1 0 0 0 1 0 0 0 1 62.540971098971525 41.3892317966612 9.3710920064775465 1 rotate no_reflect no_shear #
lump $-1 $-1 $38 $8 #
transform $-1 1 0 0 0 1 0 0 0 1 62.540971098971525 41.3892317966612 9.3710920064775465 1 rotate no_reflect no_shear #
lump $-1 $-1 $39 $9 #
transform $-1 1 0 0 0 1 0 0 0 1 62.540971098971525 41.3892317966612 9.3710920064775465 1 rotate no_reflect no_shear #
shell $-1 $-1 $-1 $40 $-1 $10 #
shell $-1 $-1 $-1 $41 $-1 $12 #
shell $-1 $-1 $-1 $42 $-1 $14 #
shell $-1 $-1 $-1 $43 $-1 $16 #
shell $-1 $-1 $-1 $44 $-1 $18 #
shell $-1 $-1 $-1 $45 $-1 $20 #
shell $-1 $-1 $-1 $46 $-1 $22 #
shell $-1 $-1 $-1 $47 $-1 $24 #
shell $-1 $-1 $-1 $48 $-1 $26 #
shell $-1 $-1 $-1 $49 $-1 $28 #
face $-1 $50 $51 $30 $-1 $52 forward single #
face $-1 $53 $54 $31 $-1 $55 reversed single #
face $-1 $56 $57 $32 $-1 $58 reversed single #
face $-1 $59 $60 $33 $-1 $61 forward single #
face $-1 $62 $63 $34 $-1 $64 reversed single #
face $-1 $65 $66 $35 $-1 $67 forward single #
face $-1 $68 $69 $36 $-1 $70 reversed single #
face $-1 $71 $72 $37 $-1 $73 forward single #
face $-1 $74 $75 $38 $-1 $76 reversed single #
face $-1 $77 $78 $39 $-1 $79 forward single #
face $-1 $80 $81 $30 $-1 $82 reversed single #
loop $-1 $-1 $83 $40 #
plane-surface $-1 0 0 9.3710920064775465 0 0 1 1 0 0 forward_v I I I I #
face $-1 $84 $85 $31 $-1 $86 reversed single #
loop $-1 $-1 $87 $41 #
plane-surface $-1 0 -37.268436582207215 6.3710920064775465 0 0 1 1 0 0 forward_v I I I I #
face $-1 $88 $89 $32 $-1 $90 reversed single #
loop $-1 $-1 $91 $42 #
plane-surface $-1 -126.96293467157543 -19.130313693510494 110.37437795814697 0 1 0 -0.51503808176128008 0 0.85716729658548041 forward_v I I I I #
face $-1 $92 $93 $33 $-1 $94 forward single #
loop $-1 $95 $96 $43 #
cone-surface $-1 -56.448530503735086 -14.958016280371062 4.729412986136162 0.51503808176128008 0 -0.85716729658548041 0.85716729658548041 0 0.51503808176128008 1 I I 0 1 1 forward I I I I #
face $-1 $97 $98 $34 $-1 $99 reversed single #
loop $-1 $-1 $100 $44 #
plane-surface $-1 -126.96293467157543 18.138122888696721 110.37437795814697 0 1 0 -0.51503808176128008 0 0.85716729658548041 forward_v I I I I #
face $-1 $101 $102 $35 $-1 $103 forward single #
loop $-1 $104 $105 $45 #
cone-surface $-1 -56.448530503735086 22.310420301836153 4.729412986136162 0.51503808176128008 0 -0.85716729658548041 0.85716729658548041 0 0.51503808176128008 1 I I 0 1 1 forward I I I I #
face $-1 $106 $107 $36 $-1 $108 reversed single #
loop $-1 $-1 $109 $46 #
plane-surface $-1 19.746784426103261 -10.785718867231628 174.79634153075088 0 -1 0 -0.51503808176128008 0 -0.85716729658548041 forward_v I I I I #
face $-1 $110 $111 $37 $-1 $112 forward single #
loop $-1 $113 $114 $47 #
cone-surface $-1 56.448530503735078 -14.958016280371062 4.729412986136162 -0.51503808176128008 0 -0.85716729658548041 0.85716729658548041 0 -0.51503808176128008 1 I I 0 1 1 forward I I I I #
face $-1 $115 $116 $38 $-1 $117 reversed single #
loop $-1 $-1 $118 $48 #
plane-surface $-1 19.746784426103261 26.482717714975585 174.79634153075088 0 -1 0 -0.51503808176128008 0 -0.85716729658548041 forward_v I I I I #
face $-1 $119 $120 $39 $-1 $121 forward single #
loop $-1 $122 $123 $49 #
cone-surface $-1 56.448530503735078 22.310420301836153 4.729412986136162 -0.51503808176128008 0 -0.85716729658548041 0.85716729658548041 0 -0.51503808176128008 1 I I 0 1 1 forward I I I I #
face $-1 $124 $125 $30 $-1 $126 reversed single #
loop $-1 $-1 $127 $50 #
plane-surface $-1 0 0 -9.3710920064775465 0 0 1 1 0 0 forward_v I I I I #
coedge $-1 $128 $129 $130 $131 forward $51 $-1 #
face $-1 $132 $133 $31 $-1 $134 reversed single #
loop $-1 $-1 $135 $53 #
plane-surface $-1 0 -33.147641367753231 7.8710920064775465 0 -1 0 0 0 -1 forward_v I I I I #
coedge $-1 $136 $137 $138 $139 reversed $54 $-1 #
face $-1 $140 $141 $32 $-1 $142 reversed single #
loop $-1 $-1 $143 $56 #
plane-surface $-1 -62.540971098971525 -14.958016280371062 3.1582277126748011 -0.51503808176128008 0 0.85716729658548041 0.85716729658548041 0 0.51503808176128008 forward_v I I I I #
coedge $-1 $144 $145 $146 $147 reversed $57 $-1 #
face $-1 $-1 $148 $33 $-1 $149 forward single #
loop $-1 $150 $151 $59 #
cone-surface $-1 -55.268542059417875 -14.958016280371062 2.7655824644034155 0.51503808176128008 0 -0.85716729658548041 0.4285836482927402 0 0.25751904088064004 1 I I -0.70710678118654746 0.70710678118654746 0.5 forward I I I I #
loop $-1 $-1 $152 $43 #
coedge $-1 $96 $96 $153 $154 reversed $60 $-1 #
face $-1 $155 $156 $34 $-1 $157 reversed single #
loop $-1 $-1 $158 $62 #
plane-surface $-1 -62.540971098971525 22.310420301836153 3.1582277126748011 -0.51503808176128008 0 0.85716729658548041 0.85716729658548041 0 0.51503808176128008 forward_v I I I I #
coedge $-1 $159 $160 $161 $162 reversed $63 $-1 #
face $-1 $-1 $163 $35 $-1 $164 forward single #
loop $-1 $165 $166 $65 #
cone-surface $-1 -55.268542059417875 22.310420301836153 2.7655824644034155 0.51503808176128008 0 -0.85716729658548041 0.4285836482927402 0 0.25751904088064004 1 I I -0.70710678118654746 0.70710678118654746 0.5 forward I I I I #
loop $-1 $-1 $167 $45 #
coedge $-1 $105 $105 $168 $169 reversed $66 $-1 #
face $-1 $170 $171 $36 $-1 $172 reversed single #
loop $-1 $-1 $173 $68 #
plane-surface $-1 -44.675179146500639 -14.958016280371062 67.580191285278715 0.51503808176128008 0 0.85716729658548041 0.85716729658548041 0 -0.51503808176128008 forward_v I I I I #
coedge $-1 $174 $175 $176 $177 reversed $69 $-1 #
face $-1 $-1 $178 $37 $-1 $179 forward single #
loop $-1 $180 $181 $71 #
cone-surface $-1 55.268542059417868 -14.958016280371062 2.7655824644034155 -0.51503808176128008 0 -0.85716729658548041 0.4285836482927402 0 -0.25751904088064004 1 I I -0.70710678118654746 0.70710678118654746 0.5 forward I I I I #
loop $-1 $-1 $182 $47 #
coedge $-1 $114 $114 $183 $184 reversed $72 $-1 #
face $-1 $185 $186 $38 $-1 $187 reversed single #
loop $-1 $-1 $188 $74 #
plane-surface $-1 -44.675179146500639 22.310420301836153 67.580191285278715 0.51503808176128008 0 0.85716729658548041 0.85716729658548041 0 -0.51503808176128008 forward_v I I I I #
coedge $-1 $189 $190 $191 $192 reversed $75 $-1 #
face $-1 $-1 $193 $39 $-1 $194 forward single #
loop $-1 $195 $196 $77 #
cone-surface $-1 55.268542059417868 22.310420301836153 2.7655824644034155 -0.51503808176128008 0 -0.85716729658548041 0.4285836482927402 0 -0.25751904088064004 1 I I -0.70710678118654746 0.70710678118654746 0.5 forward I I I I #
loop $-1 $-1 $197 $49 #
coedge $-1 $123 $123 $198 $199 reversed $78 $-1 #
face $-1 $200 $201 $30 $-1 $202 reversed single #
loop $-1 $-1 $203 $80 #
plane-surface $-1 0 -41.3892317966612 0 0 1 0 0 0 1 forward_v I I I I #
coedge $-1 $204 $205 $206 $207 forward $81 $-1 #
coedge $-1 $208 $83 $209 $210 forward $51 $-1 #
coedge $-1 $83 $208 $211 $212 forward $51 $-1 #
coedge $-1 $213 $214 $83 $131 reversed $215 $-1 #
edge $-1 $216 -41.3892317966612 $217 41.3892317966612 $130 $218 forward 7 unknown #
face $-1 $219 $220 $31 $-1 $221 reversed single #
loop $-1 $-1 $222 $84 #
plane-surface $-1 -62.540971098971525 0 0 1 0 0 0 0 -1 forward_v I I I I #
coedge $-1 $223 $224 $225 $226 reversed $85 $-1 #
coedge $-1 $227 $87 $228 $229 reversed $54 $-1 #
coedge $-1 $87 $227 $223 $230 forward $54 $-1 #
coedge $-1 $225 $231 $87 $139 forward $232 $-1 #
edge $-1 $233 -22.755013505557592 $234 -14.513423076649623 $138 $235 forward 7 unknown #
face $-1 $236 $237 $32 $-1 $238 forward single #
loop $-1 $-1 $239 $88 #
plane-surface $-1 -126.96293467157543 -10.785718867231628 110.37437795814697 0 -1 0 0.51503808176128008 0 -0.85716729658548041 forward_v I I I I #
coedge $-1 $240 $241 $242 $243 reversed $89 $-1 #
coedge $-1 $145 $91 $244 $245 reversed $57 $-1 #
coedge $-1 $91 $144 $240 $246 reversed $57 $-1 #
coedge $-1 $242 $247 $91 $147 forward $237 $-1 #
edge $-1 $248 0.94049623681618755 $249 11.280438620415907 $146 $250 forward 7 unknown #
loop $-1 $-1 $153 $92 #
plane-surface $-1 -62.540971098971525 -14.958016280371062 3.1582277126748011 -0.51503808176128008 0 0.85716729658548041 0.85716729658548041 0 0.51503808176128008 forward_v I I I I #
loop $-1 $-1 $251 $59 #
coedge $-1 $151 $151 $152 $252 reversed $93 $-1 #
coedge $-1 $152 $152 $151 $252 forward $95 $-1 #
coedge $-1 $153 $153 $96 $154 forward $148 $-1 #
edge $-1 $253 0 $253 6.2831853071796004 $153 $254 forward 7 unknown #
face $-1 $255 $256 $34 $-1 $257 forward single #
loop $-1 $-1 $258 $97 #
plane-surface $-1 -126.96293467157543 26.482717714975585 110.37437795814697 0 -1 0 0.51503808176128008 0 -0.85716729658548041 forward_v I I I I #
coedge $-1 $259 $260 $261 $262 reversed $98 $-1 #
coedge $-1 $160 $100 $263 $264 reversed $63 $-1 #
coedge $-1 $100 $159 $259 $265 reversed $63 $-1 #
coedge $-1 $261 $266 $100 $162 forward $256 $-1 #
edge $-1 $267 0.94049623681618755 $268 11.280438620415907 $161 $269 forward 7 unknown #
loop $-1 $-1 $168 $101 #
plane-surface $-1 -62.540971098971525 22.310420301836153 3.1582277126748011 -0.51503808176128008 0 0.85716729658548041 0.85716729658548041 0 0.51503808176128008 forward_v I I I I #
loop $-1 $-1 $270 $65 #
coedge $-1 $166 $166 $167 $271 reversed $102 $-1 #
coedge $-1 $167 $167 $166 $271 forward $104 $-1 #
coedge $-1 $168 $168 $105 $169 forward $163 $-1 #
edge $-1 $272 0 $272 6.2831853071796004 $168 $273 forward 7 unknown #
face $-1 $274 $275 $36 $-1 $276 reversed single #
loop $-1 $-1 $277 $106 #
plane-surface $-1 19.746784426103261 -19.130313693510494 174.79634153075088 0 1 0 0.51503808176128008 0 0.85716729658548041 forward_v I I I I #
coedge $-1 $278 $279 $280 $281 reversed $107 $-1 #
coedge $-1 $175 $109 $282 $283 reversed $69 $-1 #
coedge $-1 $109 $174 $278 $284 reversed $69 $-1 #
coedge $-1 $280 $285 $109 $177 forward $286 $-1 #
edge $-1 $287 -52.667578885919895 $288 -42.327636502320203 $176 $289 forward 7 unknown #
loop $-1 $-1 $183 $110 #
plane-surface $-1 -44.675179146500639 -14.958016280371062 67.580191285278715 0.51503808176128008 0 0.85716729658548041 0.85716729658548041 0 -0.51503808176128008 forward_v I I I I #
loop $-1 $-1 $290 $71 #
coedge $-1 $181 $181 $182 $291 reversed $111 $-1 #
coedge $-1 $182 $182 $181 $291 forward $113 $-1 #
coedge $-1 $183 $183 $114 $184 forward $178 $-1 #
edge $-1 $292 0 $292 6.2831853071796004 $183 $293 forward 7 unknown #
face $-1 $294 $295 $38 $-1 $296 reversed single #
loop $-1 $-1 $297 $115 #
plane-surface $-1 19.746784426103261 18.138122888696721 174.79634153075088 0 1 0 0.51503808176128008 0 0.85716729658548041 forward_v I I I I #
coedge $-1 $298 $299 $300 $301 reversed $116 $-1 #
coedge $-1 $190 $118 $302 $303 reversed $75 $-1 #
coedge $-1 $118 $189 $298 $304 reversed $75 $-1 #
coedge $-1 $300 $305 $118 $192 forward $306 $-1 #
edge $-1 $307 -52.667578885919895 $308 -42.327636502320203 $191 $309 forward 7 unknown #
loop $-1 $-1 $198 $119 #
plane-surface $-1 -44.675179146500639 22.310420301836153 67.580191285278715 0.51503808176128008 0 0.85716729658548041 0.85716729658548041 0 -0.51503808176128008 forward_v I I I I #
loop $-1 $-1 $310 $77 #
coedge $-1 $196 $196 $197 $311 reversed $120 $-1 #
coedge $-1 $197 $197 $196 $311 forward $122 $-1 #
coedge $-1 $198 $198 $123 $199 forward $193 $-1 #
edge $-1 $312 0 $312 6.2831853071796004 $198 $313 forward 7 unknown #
face $-1 $314 $315 $30 $-1 $316 reversed single #
loop $-1 $-1 $317 $124 #
plane-surface $-1 -62.540971098971525 0 0 1 0 0 0 0 -1 forward_v I I I I #
coedge $-1 $318 $211 $319 $320 forward $125 $-1 #
coedge $-1 $321 $127 $318 $322 forward $81 $-1 #
coedge $-1 $127 $321 $323 $324 forward $81 $-1 #
coedge $-1 $214 $213 $127 $207 reversed $215 $-1 #
edge $-1 $325 -41.3892317966612 $326 41.3892317966612 $206 $327 forward 7 unknown #
coedge $-1 $129 $128 $328 $329 forward $51 $-1 #
coedge $-1 $330 $331 $128 $210 reversed $315 $-1 #
edge $-1 $217 -62.540971098971525 $332 62.540971098971525 $209 $333 forward 7 unknown #
coedge $-1 $203 $334 $129 $212 reversed $125 $-1 #
edge $-1 $335 -62.540971098971525 $216 62.540971098971525 $211 $336 forward 7 unknown #
coedge $-1 $206 $130 $334 $337 forward $215 $-1 #
coedge $-1 $130 $206 $330 $338 reversed $215 $-1 #
loop $-1 $-1 $213 $314 #
vertex $-1 $131 $339 #
vertex $-1 $131 $340 #
straight-curve $-1 62.540971098971525 0 9.3710920064775465 0 1 0 I I #
face $-1 $341 $342 $31 $-1 $343 forward single #
loop $-1 $-1 $228 $132 #
plane-surface $-1 0 -41.3892317966612 0 0 1 0 0 0 1 forward_v I I I I #
coedge $-1 $344 $345 $346 $347 forward $133 $-1 #
coedge $-1 $346 $135 $137 $230 reversed $85 $-1 #
coedge $-1 $135 $346 $348 $349 reversed $85 $-1 #
coedge $-1 $350 $138 $135 $226 forward $232 $-1 #
edge $-1 $234 2.4355460032387732 $351 5.4355460032387732 $225 $352 forward 7 unknown #
coedge $-1 $137 $136 $344 $353 reversed $54 $-1 #
coedge $-1 $354 $355 $136 $229 forward $220 $-1 #
edge $-1 $356 -62.540971098971525 $233 62.540971098971525 $228 $357 forward 7 unknown #
edge $-1 $358 -62.540971098971525 $234 62.540971098971525 $223 $359 forward 7 unknown #
coedge $-1 $138 $350 $354 $360 forward $232 $-1 #
loop $-1 $-1 $225 $341 #
vertex $-1 $229 $361 #
vertex $-1 $139 $362 #
straight-curve $-1 62.540971098971525 -18.634218291103608 6.3710920064775465 0 1 0 I I #
face $-1 $-1 $363 $32 $-1 $364 reversed single #
loop $-1 $-1 $146 $140 #
plane-surface $-1 0 0 9.3710920064775465 0 0 1 1 0 0 forward_v I I I I #
coedge $-1 $365 $366 $367 $368 reversed $141 $-1 #
coedge $-1 $369 $143 $145 $246 forward $89 $-1 #
coedge $-1 $143 $369 $365 $370 forward $89 $-1 #
coedge $-1 $367 $146 $143 $243 forward $237 $-1 #
edge $-1 $249 -11.651305553324963 $371 -3.3067107270460969 $242 $372 forward 7 unknown #
coedge $-1 $373 $374 $144 $245 forward $363 $-1 #
edge $-1 $375 -52.028961266398682 $248 -45.816096972595936 $244 $376 forward 7 unknown #
edge $-1 $249 -12.062922167923116 $375 0 $145 $377 forward 7 unknown #
coedge $-1 $146 $367 $373 $378 forward $237 $-1 #
vertex $-1 $245 $379 #
vertex $-1 $147 $380 #
straight-curve $-1 -63.481467335787713 -19.130313693510494 9.3710920064775465 1 0 0 I I #
coedge $-1 $251 $251 $-1 $381 reversed $150 $-1 #
edge $-1 $382 0 $382 6.2831853071796004 $151 $383 forward 7 unknown #
vertex $-1 $154 $384 #
ellipse-curve $-1 -57.370999907171658 -14.958016280371062 6.2646598595761773 -0.51503808176128008 0 0.85716729658548041 0.85716729658548041 0 0.51503808176128008 1 I I #
face $-1 $-1 $385 $34 $-1 $386 reversed single #
loop $-1 $-1 $161 $155 #
plane-surface $-1 0 0 9.3710920064775465 0 0 1 1 0 0 forward_v I I I I #
coedge $-1 $387 $388 $389 $390 reversed $156 $-1 #
coedge $-1 $391 $158 $160 $265 forward $98 $-1 #
coedge $-1 $158 $391 $387 $392 forward $98 $-1 #
coedge $-1 $389 $161 $158 $262 forward $256 $-1 #
edge $-1 $268 6.9829127377786442 $393 15.327507564057509 $261 $394 forward 7 unknown #
coedge $-1 $395 $396 $159 $264 forward $385 $-1 #
edge $-1 $397 -52.028961266398682 $267 -45.816096972595936 $263 $398 forward 7 unknown #
edge $-1 $268 -12.062922167923116 $397 0 $160 $399 forward 7 unknown #
coedge $-1 $161 $389 $395 $400 forward $256 $-1 #
vertex $-1 $162 $401 #
vertex $-1 $162 $402 #
straight-curve $-1 -63.481467335787713 18.138122888696721 9.3710920064775465 1 0 0 I I #
coedge $-1 $270 $270 $-1 $403 reversed $165 $-1 #
edge $-1 $404 0 $404 6.2831853071796004 $166 $405 forward 7 unknown #
vertex $-1 $169 $406 #
ellipse-curve $-1 -57.370999907171658 22.310420301836153 6.2646598595761773 -0.51503808176128008 0 0.85716729658548041 0.85716729658548041 0 0.51503808176128008 1 I I #
face $-1 $-1 $286 $36 $-1 $407 forward single #
loop $-1 $-1 $408 $170 #
plane-surface $-1 62.540971098971525 0 0 -1 0 0 0 0 1 forward_v I I I I #
coedge $-1 $409 $410 $411 $412 reversed $171 $-1 #
coedge $-1 $413 $173 $175 $284 forward $107 $-1 #
coedge $-1 $173 $413 $409 $414 forward $107 $-1 #
coedge $-1 $411 $176 $173 $281 forward $286 $-1 #
edge $-1 $288 3.3067107270460969 $415 11.651305553324963 $280 $416 forward 7 unknown #
coedge $-1 $417 $418 $174 $283 forward $275 $-1 #
edge $-1 $419 -84.239943052700625 $287 -78.027078758897886 $282 $420 forward 7 unknown #
edge $-1 $288 113.01902003001996 $419 125.08194219794304 $175 $421 forward 7 unknown #
coedge $-1 $176 $411 $417 $422 forward $286 $-1 #
loop $-1 $-1 $411 $274 #
vertex $-1 $283 $423 #
vertex $-1 $177 $424 #
straight-curve $-1 9.8733922130516305 -10.785718867231628 9.3710920064775394 -1 0 0 I I #
coedge $-1 $290 $290 $-1 $425 reversed $180 $-1 #
edge $-1 $426 0 $426 6.2831853071796004 $181 $427 forward 7 unknown #
vertex $-1 $184 $428 #
ellipse-curve $-1 57.370999907171658 -14.958016280371062 6.2646598595761853 0.51503808176128008 0 0.85716729658548041 0.85716729658548041 0 -0.51503808176128008 1 I I #
face $-1 $-1 $306 $38 $-1 $429 forward single #
loop $-1 $-1 $430 $185 #
plane-surface $-1 62.540971098971525 0 0 -1 0 0 0 0 1 forward_v I I I I #
coedge $-1 $431 $432 $433 $434 reversed $186 $-1 #
coedge $-1 $435 $188 $190 $304 forward $116 $-1 #
coedge $-1 $188 $435 $431 $436 forward $116 $-1 #
coedge $-1 $433 $191 $188 $301 forward $306 $-1 #
edge $-1 $308 -15.327507564057509 $437 -6.9829127377786442 $300 $438 forward 7 unknown #
coedge $-1 $439 $440 $189 $303 forward $295 $-1 #
edge $-1 $441 -84.239943052700625 $307 -78.027078758897886 $302 $442 forward 7 unknown #
edge $-1 $308 113.01902003001996 $441 125.08194219794304 $190 $443 forward 7 unknown #
coedge $-1 $191 $433 $439 $444 forward $306 $-1 #
loop $-1 $-1 $433 $294 #
vertex $-1 $303 $445 #
vertex $-1 $192 $446 #
straight-curve $-1 9.8733922130516305 26.482717714975585 9.3710920064775394 -1 0 0 I I #
coedge $-1 $310 $310 $-1 $447 reversed $195 $-1 #
edge $-1 $448 0 $448 6.2831853071796004 $196 $449 forward 7 unknown #
vertex $-1 $199 $450 #
ellipse-curve $-1 57.370999907171658 22.310420301836153 6.2646598595761853 0.51503808176128008 0 0.85716729658548041 0.85716729658548041 0 -0.51503808176128008 1 I I #
face $-1 $-1 $215 $30 $-1 $451 reversed single #
loop $-1 $-1 $330 $200 #
plane-surface $-1 0 41.3892317966612 0 0 -1 0 0 0 -1 forward_v I I I I #
coedge $-1 $452 $328 $331 $453 forward $201 $-1 #
coedge $-1 $334 $203 $204 $322 reversed $125 $-1 #
coedge $-1 $328 $452 $203 $320 reversed $201 $-1 #
edge $-1 $335 -9.3710920064775465 $454 9.3710920064775465 $319 $455 forward 7 unknown #
coedge $-1 $205 $204 $452 $456 forward $81 $-1 #
edge $-1 $326 -62.540971098971525 $454 62.540971098971525 $318 $457 forward 7 unknown #
coedge $-1 $331 $330 $205 $324 reversed $315 $-1 #
edge $-1 $458 -62.540971098971525 $325 62.540971098971525 $323 $459 forward 7 unknown #
vertex $-1 $207 $460 #
vertex $-1 $337 $461 #
straight-curve $-1 62.540971098971525 0 -9.3710920064775465 0 -1 0 I I #
coedge $-1 $317 $319 $208 $329 reversed $201 $-1 #
edge $-1 $332 -41.3892317966612 $335 41.3892317966612 $328 $462 forward 7 unknown #
coedge $-1 $323 $209 $214 $338 forward $315 $-1 #
coedge $-1 $209 $323 $317 $453 reversed $315 $-1 #
vertex $-1 $210 $463 #
straight-curve $-1 0 41.3892317966612 9.3710920064775465 -1 0 0 I I #
coedge $-1 $211 $318 $213 $337 reversed $125 $-1 #
vertex $-1 $329 $464 #
straight-curve $-1 0 -41.3892317966612 9.3710920064775465 1 0 0 I I #
edge $-1 $216 -9.3710920064775465 $326 9.3710920064775465 $213 $465 forward 7 unknown #
edge $-1 $217 -9.3710920064775465 $325 9.3710920064775465 $214 $466 forward 7 unknown #
point $-1 62.540971098971525 -41.3892317966612 9.3710920064775465 #
point $-1 62.540971098971525 41.3892317966612 9.3710920064775465 #
face $-1 $-1 $232 $31 $-1 $467 reversed single #
loop $-1 $-1 $348 $219 #
plane-surface $-1 0 0 9.3710920064775465 0 0 1 1 0 0 forward_v I I I I #
coedge $-1 $468 $222 $227 $353 forward $133 $-1 #
coedge $-1 $222 $468 $469 $470 reversed $133 $-1 #
coedge $-1 $224 $223 $222 $347 reversed $85 $-1 #
edge $-1 $471 -5.4355460032387732 $358 -2.4355460032387732 $222 $472 forward 7 unknown #
coedge $-1 $469 $473 $224 $349 forward $342 $-1 #
edge $-1 $351 -62.540971098971525 $471 62.540971098971525 $348 $474 forward 7 unknown #
coedge $-1 $231 $225 $473 $475 reversed $232 $-1 #
vertex $-1 $226 $476 #
straight-curve $-1 62.540971098971525 -33.147641367753231 3.9355460032387732 0 0 1 I I #
edge $-1 $358 14.513423076649623 $356 22.755013505557592 $344 $477 forward 7 unknown #
coedge $-1 $478 $228 $231 $360 reversed $220 $-1 #
coedge $-1 $228 $478 $468 $479 forward $220 $-1 #
vertex $-1 $229 $480 #
straight-curve $-1 0 -41.3892317966612 6.3710920064775465 1 0 0 I I #
vertex $-1 $353 $481 #
straight-curve $-1 0 -33.147641367753231 6.3710920064775465 1 0 0 I I #
edge $-1 $482 -9.3710920064775465 $233 -6.3710920064775465 $231 $483 forward 7 unknown #
point $-1 62.540971098971525 -41.3892317966612 6.3710920064775465 #
point $-1 62.540971098971525 -33.147641367753231 6.3710920064775465 #
loop $-1 $-1 $244 $236 #
plane-surface $-1 -62.540971098971525 0 0 1 0 0 0 0 -1 forward_v I I I I #
coedge $-1 $366 $239 $241 $370 reversed $141 $-1 #
coedge $-1 $239 $365 $484 $485 reversed $141 $-1 #
coedge $-1 $247 $242 $239 $368 forward $237 $-1 #
edge $-1 $371 -11.280438620415907 $486 -0.94049623681618755 $367 $487 forward 7 unknown #
coedge $-1 $241 $240 $374 $488 reversed $89 $-1 #
edge $-1 $489 0 $371 12.062922167923116 $365 $490 forward 7 unknown #
vertex $-1 $243 $491 #
straight-curve $-1 -52.201028715371798 -7.4790081401855311 9.3710920064775447 0 1 0 I I #
coedge $-1 $484 $244 $247 $378 reversed $363 $-1 #
coedge $-1 $244 $484 $369 $488 forward $363 $-1 #
vertex $-1 $245 $492 #
straight-curve $-1 -62.540971098971525 -19.130313693510494 55.187188979073483 0 0 1 I I #
straight-curve $-1 -62.540971098971525 -19.130313693510494 3.1582277126748011 -0.85716729658548041 0 -0.51503808176128008 I I #
edge $-1 $486 10.785718867231628 $248 19.130313693510494 $373 $493 forward 7 unknown #
point $-1 -62.540971098971525 -19.130313693510494 9.3710920064775465 #
point $-1 -52.201028715371805 -19.130313693510494 9.3710920064775465 #
edge $-1 $494 1 $494 0 $251 $-1 forward 7 unknown #
vertex $-1 $252 $495 #
ellipse-curve $-1 -55.526061100298513 -14.958016280371062 3.1941661126961556 -0.51503808176128008 0 0.85716729658548041 0.85716729658548041 0 0.51503808176128008 1 I I #
point $-1 -56.513832610586171 -14.958016280371062 6.7796979413374476 #
loop $-1 $-1 $263 $255 #
plane-surface $-1 -62.540971098971525 0 0 1 0 0 0 0 -1 forward_v I I I I #
coedge $-1 $388 $258 $260 $392 reversed $156 $-1 #
coedge $-1 $258 $387 $496 $497 reversed $156 $-1 #
coedge $-1 $266 $261 $258 $390 forward $256 $-1 #
edge $-1 $393 -11.280438620415907 $498 -0.94049623681618755 $389 $499 forward 7 unknown #
coedge $-1 $260 $259 $396 $500 reversed $98 $-1 #
edge $-1 $501 0 $393 12.062922167923116 $387 $502 forward 7 unknown #
vertex $-1 $262 $503 #
straight-curve $-1 -52.201028715371798 11.155210150918077 9.3710920064775447 0 1 0 I I #
coedge $-1 $496 $263 $266 $400 reversed $385 $-1 #
coedge $-1 $263 $496 $391 $500 forward $385 $-1 #
vertex $-1 $264 $504 #
straight-curve $-1 -62.540971098971525 18.138122888696721 55.187188979073483 0 0 1 I I #
straight-curve $-1 -62.540971098971525 18.138122888696721 3.1582277126748011 -0.85716729658548041 0 -0.51503808176128008 I I #
edge $-1 $498 -26.482717714975585 $267 -18.138122888696721 $395 $505 forward 7 unknown #
point $-1 -62.540971098971525 18.138122888696721 9.3710920064775465 #
point $-1 -52.201028715371805 18.138122888696721 9.3710920064775465 #
edge $-1 $506 1 $506 0 $270 $-1 forward 7 unknown #
vertex $-1 $271 $507 #
ellipse-curve $-1 -55.526061100298513 22.310420301836153 3.1941661126961556 -0.51503808176128008 0 0.85716729658548041 0.85716729658548041 0 0.51503808176128008 1 I I #
point $-1 -56.513832610586171 22.310420301836153 6.7796979413374476 #
plane-surface $-1 0 0 9.3710920064775465 0 0 1 1 0 0 forward_v I I I I #
coedge $-1 $418 $417 $410 $508 forward $275 $-1 #
coedge $-1 $410 $277 $279 $414 reversed $171 $-1 #
coedge $-1 $277 $409 $408 $508 reversed $171 $-1 #
coedge $-1 $285 $280 $277 $412 forward $286 $-1 #
edge $-1 $415 42.327636502320203 $509 52.667578885919895 $411 $510 forward 7 unknown #
coedge $-1 $279 $278 $418 $511 reversed $107 $-1 #
edge $-1 $512 -125.08194219794304 $415 -113.01902003001996 $409 $513 forward 7 unknown #
vertex $-1 $281 $514 #
straight-curve $-1 52.201028715371812 -7.4790081401855311 9.3710920064775394 0 -1 0 I I #
coedge $-1 $408 $282 $285 $422 reversed $275 $-1 #
coedge $-1 $282 $408 $413 $511 forward $275 $-1 #
vertex $-1 $283 $515 #
straight-curve $-1 62.540971098971525 -10.785718867231628 87.39817076537544 0 0 1 I I #
straight-curve $-1 -44.675179146500639 -10.785718867231628 67.580191285278715 0.85716729658548041 0 -0.51503808176128008 I I #
edge $-1 $509 -19.130313693510494 $287 -10.785718867231628 $417 $516 forward 7 unknown #
point $-1 62.540971098971525 -10.785718867231628 9.3710920064775465 #
point $-1 52.201028715371834 -10.785718867231628 9.3710920064775465 #
edge $-1 $517 1 $517 0 $290 $-1 forward 7 unknown #
vertex $-1 $291 $518 #
ellipse-curve $-1 55.526061100298506 -14.958016280371062 3.1941661126961556 0.51503808176128008 0 0.85716729658548041 0.85716729658548041 0 -0.51503808176128008 1 I I #
point $-1 58.228167203757124 -14.958016280371062 5.7496217778148875 #
plane-surface $-1 0 0 9.3710920064775465 0 0 1 1 0 0 forward_v I I I I #
coedge $-1 $440 $439 $432 $519 forward $295 $-1 #
coedge $-1 $432 $297 $299 $436 reversed $186 $-1 #
coedge $-1 $297 $431 $430 $519 reversed $186 $-1 #
coedge $-1 $305 $300 $297 $434 forward $306 $-1 #
edge $-1 $437 42.327636502320203 $520 52.667578885919895 $433 $521 forward 7 unknown #
coedge $-1 $299 $298 $440 $522 reversed $116 $-1 #
edge $-1 $523 -125.08194219794304 $437 -113.01902003001996 $431 $524 forward 7 unknown #
vertex $-1 $301 $525 #
straight-curve $-1 52.201028715371812 11.155210150918077 9.3710920064775394 0 -1 0 I I #
coedge $-1 $430 $302 $305 $444 reversed $295 $-1 #
coedge $-1 $302 $430 $435 $522 forward $295 $-1 #
vertex $-1 $303 $526 #
straight-curve $-1 62.540971098971525 26.482717714975585 87.39817076537544 0 0 1 I I #
straight-curve $-1 -44.675179146500639 26.482717714975585 67.580191285278715 0.85716729658548041 0 -0.51503808176128008 I I #
edge $-1 $520 18.138122888696721 $307 26.482717714975585 $439 $527 forward 7 unknown #
point $-1 62.540971098971525 26.482717714975585 9.3710920064775465 #
point $-1 52.201028715371834 26.482717714975585 9.3710920064775465 #
edge $-1 $528 1 $528 0 $310 $-1 forward 7 unknown #
vertex $-1 $311 $529 #
ellipse-curve $-1 55.526061100298506 22.310420301836153 3.1941661126961556 0.51503808176128008 0 0.85716729658548041 0.85716729658548041 0 -0.51503808176128008 1 I I #
point $-1 58.228167203757124 22.310420301836153 5.7496217778148875 #
plane-surface $-1 62.540971098971525 0 0 -1 0 0 0 0 1 forward_v I I I I #
coedge $-1 $319 $317 $321 $456 reversed $201 $-1 #
edge $-1 $332 -9.3710920064775465 $458 9.3710920064775465 $331 $530 forward 7 unknown #
vertex $-1 $456 $531 #
straight-curve $-1 -62.540971098971525 -41.3892317966612 0 0 0 -1 I I #
edge $-1 $454 -41.3892317966612 $458 41.3892317966612 $452 $532 forward 7 unknown #
straight-curve $-1 0 -41.3892317966612 -9.3710920064775465 -1 0 0 I I #
vertex $-1 $324 $533 #
straight-curve $-1 0 41.3892317966612 -9.3710920064775465 1 0 0 I I #
point $-1 62.540971098971525 41.3892317966612 -9.3710920064775465 #
point $-1 62.540971098971525 -41.3892317966612 -9.3710920064775465 #
straight-curve $-1 -62.540971098971525 0 9.3710920064775465 0 -1 0 I I #
point $-1 -62.540971098971525 41.3892317966612 9.3710920064775465 #
point $-1 -62.540971098971525 -41.3892317966612 9.3710920064775465 #
straight-curve $-1 62.540971098971525 -41.3892317966612 0 0 0 -1 I I #
straight-curve $-1 62.540971098971525 41.3892317966612 0 0 0 -1 I I #
plane-surface $-1 62.540971098971525 0 0 -1 0 0 0 0 1 forward_v I I I I #
coedge $-1 $345 $344 $355 $479 reversed $133 $-1 #
coedge $-1 $534 $348 $345 $470 forward $342 $-1 #
edge $-1 $471 33.147641367753231 $535 41.3892317966612 $345 $536 forward 7 unknown #
vertex $-1 $470 $537 #
straight-curve $-1 -62.540971098971525 -33.147641367753231 3.9355460032387732 0 0 -1 I I #
coedge $-1 $348 $534 $350 $475 forward $342 $-1 #
straight-curve $-1 0 -33.147641367753231 9.3710920064775465 -1 0 0 I I #
edge $-1 $482 -41.3892317966612 $351 -33.147641367753231 $350 $538 forward 7 unknown #
point $-1 62.540971098971525 -33.147641367753231 9.3710920064775465 #
straight-curve $-1 -62.540971098971525 -18.634218291103608 6.3710920064775465 0 -1 0 I I #
coedge $-1 $355 $354 $534 $539 reversed $220 $-1 #
edge $-1 $535 -9.3710920064775465 $356 -6.3710920064775465 $468 $540 forward 7 unknown #
point $-1 -62.540971098971525 -41.3892317966612 6.3710920064775465 #
point $-1 -62.540971098971525 -33.147641367753231 6.3710920064775465 #
vertex $-1 $475 $541 #
straight-curve $-1 62.540971098971525 -41.3892317966612 0 0 0 -1 I I #
coedge $-1 $374 $373 $366 $485 forward $363 $-1 #
edge $-1 $486 45.816096972595936 $489 52.028961266398682 $484 $542 forward 7 unknown #
vertex $-1 $378 $543 #
straight-curve $-1 -63.481467335787713 -10.785718867231628 9.3710920064775465 -1 0 0 I I #
edge $-1 $489 3.3067107270460969 $375 11.651305553324963 $374 $544 forward 7 unknown #
vertex $-1 $488 $545 #
straight-curve $-1 -62.540971098971525 -10.785718867231628 3.1582277126748011 0.85716729658548041 0 0.51503808176128008 I I #
point $-1 -52.201028715371805 -10.785718867231628 9.3710920064775465 #
point $-1 -62.540971098971525 -19.130313693510494 3.1582277126748011 #
straight-curve $-1 -62.540971098971525 0 9.3710920064775465 0 -1 0 I I #
vertex $-1 $381 $546 #
point $-1 -54.668893803713033 -14.958016280371062 3.7092041944574357 #
coedge $-1 $396 $395 $388 $497 forward $385 $-1 #
edge $-1 $498 45.816096972595936 $501 52.028961266398682 $496 $547 forward 7 unknown #
vertex $-1 $400 $548 #
straight-curve $-1 -63.481467335787713 26.482717714975585 9.3710920064775465 -1 0 0 I I #
edge $-1 $501 -15.327507564057509 $397 -6.9829127377786442 $396 $549 forward 7 unknown #
vertex $-1 $500 $550 #
straight-curve $-1 -62.540971098971525 26.482717714975585 3.1582277126748011 0.85716729658548041 0 0.51503808176128008 I I #
point $-1 -52.201028715371805 26.482717714975585 9.3710920064775465 #
point $-1 -62.540971098971525 18.138122888696721 3.1582277126748011 #
straight-curve $-1 -62.540971098971525 0 9.3710920064775465 0 -1 0 I I #
vertex $-1 $403 $551 #
point $-1 -54.668893803713033 22.310420301836153 3.7092041944574357 #
edge $-1 $509 78.027078758897886 $512 84.239943052700625 $408 $552 forward 7 unknown #
vertex $-1 $422 $553 #
straight-curve $-1 9.8733922130516305 -19.130313693510494 9.3710920064775394 1 0 0 I I #
edge $-1 $512 -11.651305553324963 $419 -3.3067107270460969 $418 $554 forward 7 unknown #
vertex $-1 $511 $555 #
straight-curve $-1 -44.675179146500639 -19.130313693510494 67.580191285278715 -0.85716729658548041 0 0.51503808176128008 I I #
point $-1 52.201028715371834 -19.130313693510494 9.3710920064775465 #
point $-1 62.540971098971525 -10.785718867231628 3.1582277126748153 #
straight-curve $-1 62.540971098971525 0 9.3710920064775465 0 1 0 I I #
vertex $-1 $425 $556 #
point $-1 56.383228396883986 -14.958016280371062 2.6791280309348755 #
edge $-1 $520 78.027078758897886 $523 84.239943052700625 $430 $557 forward 7 unknown #
vertex $-1 $444 $558 #
straight-curve $-1 9.8733922130516305 18.138122888696721 9.3710920064775394 1 0 0 I I #
edge $-1 $523 6.9829127377786442 $441 15.327507564057509 $440 $559 forward 7 unknown #
vertex $-1 $522 $560 #
straight-curve $-1 -44.675179146500639 18.138122888696721 67.580191285278715 -0.85716729658548041 0 0.51503808176128008 I I #
point $-1 52.201028715371834 18.138122888696721 9.3710920064775465 #
point $-1 62.540971098971525 26.482717714975585 3.1582277126748153 #
straight-curve $-1 62.540971098971525 0 9.3710920064775465 0 1 0 I I #
vertex $-1 $447 $561 #
point $-1 56.383228396883986 22.310420301836153 2.6791280309348755 #
straight-curve $-1 -62.540971098971525 41.3892317966612 0 0 0 -1 I I #
point $-1 -62.540971098971525 -41.3892317966612 -9.3710920064775465 #
straight-curve $-1 -62.540971098971525 0 -9.3710920064775465 0 1 0 I I #
point $-1 -62.540971098971525 41.3892317966612 -9.3710920064775465 #
coedge $-1 $473 $469 $478 $539 forward $342 $-1 #
vertex $-1 $470 $562 #
straight-curve $-1 -62.540971098971525 0 9.3710920064775465 0 -1 0 I I #
point $-1 -62.540971098971525 -33.147641367753231 9.3710920064775465 #
straight-curve $-1 62.540971098971525 0 9.3710920064775465 0 1 0 I I #
edge $-1 $535 -62.540971098971525 $482 62.540971098971525 $478 $563 forward 7 unknown #
straight-curve $-1 -62.540971098971525 -41.3892317966612 0 0 0 -1 I I #
point $-1 62.540971098971525 -41.3892317966612 9.3710920064775465 #
straight-curve $-1 -62.540971098971525 -10.785718867231628 55.187188979073483 0 0 -1 I I #
point $-1 -62.540971098971525 -10.785718867231628 9.3710920064775465 #
straight-curve $-1 -62.540971098971525 -7.4790081401855311 3.1582277126748015 0 -1 0 I I #
point $-1 -62.540971098971525 -10.785718867231628 3.1582277126748011 #
point $-1 -55.011023018537237 -14.958016280371062 2.3369988161106754 #
straight-curve $-1 -62.540971098971525 26.482717714975585 55.187188979073483 0 0 -1 I I #
point $-1 -62.540971098971525 26.482717714975585 9.3710920064775465 #
straight-curve $-1 -62.540971098971525 11.155210150918077 3.1582277126748015 0 -1 0 I I #
point $-1 -62.540971098971525 26.482717714975585 3.1582277126748011 #
point $-1 -55.011023018537237 22.310420301836153 2.3369988161106754 #
straight-curve $-1 62.540971098971525 -19.130313693510494 87.39817076537544 0 0 -1 I I #
point $-1 62.540971098971525 -19.130313693510494 9.3710920064775465 #
straight-curve $-1 62.540971098971525 -7.4790081401855311 3.1582277126748153 0 1 0 I I #
point $-1 62.540971098971525 -19.130313693510494 3.1582277126748153 #
point $-1 55.01102301853723 -14.958016280371062 2.3369988161106754 #
straight-curve $-1 62.540971098971525 18.138122888696721 87.39817076537544 0 0 -1 I I #
point $-1 62.540971098971525 18.138122888696721 9.3710920064775465 #
straight-curve $-1 62.540971098971525 11.155210150918077 3.1582277126748153 0 1 0 I I #
point $-1 62.540971098971525 18.138122888696721 3.1582277126748153 #
point $-1 55.01102301853723 22.310420301836153 2.3369988161106754 #
point $-1 -62.540971098971525 -41.3892317966612 9.3710920064775465 #
straight-curve $-1 0 -41.3892317966612 9.3710920064775465 1 0 0 I I #
End-of-ACIS-data 