500 0 7 0           
7 Unknown 11 ACIS 5.0 NT 24 Fri Mar 26 17:46:32 1999 
-1 9.9999999999999995e-007 1e-010 
body $-1 $7 $-1 $8 #
body $-1 $9 $-1 $10 #
body $-1 $11 $-1 $12 #
body $-1 $13 $-1 $14 #
body $-1 $15 $-1 $16 #
body $-1 $17 $-1 $18 #
body $-1 $19 $-1 $20 #
lump $-1 $-1 $21 $0 #
transform $-1 1 0 0 0 1 0 0 0 1 67.072359385967587 29.389676247195208 11.685999720971759 1 rotate no_reflect no_shear #
lump $-1 $-1 $22 $1 #
transform $-1 1 0 0 0 1 0 0 0 1 67.072359385967587 29.389676247195208 11.685999720971759 1 rotate no_reflect no_shear #
lump $-1 $-1 $23 $2 #
transform $-1 1 0 0 0 1 0 0 0 1 67.072359385967587 29.389676247195208 11.685999720971759 1 rotate no_reflect no_shear #
lump $-1 $-1 $24 $3 #
transform $-1 1 0 0 0 1 0 0 0 1 67.072359385967587 29.389676247195208 11.685999720971759 1 rotate no_reflect no_shear #
lump $-1 $-1 $25 $4 #
transform $-1 1 0 0 0 1 0 0 0 1 67.072359385967587 29.389676247195208 11.685999720971759 1 rotate no_reflect no_shear #
lump $-1 $-1 $26 $5 #
transform $-1 1 0 0 0 1 0 0 0 1 67.072359385967587 29.389676247195208 11.685999720971759 1 rotate no_reflect no_shear #
lump $-1 $-1 $27 $6 #
transform $-1 1 0 0 0 1 0 0 0 1 67.072359385967587 29.389676247195208 11.685999720971759 1 rotate no_reflect no_shear #
shell $-1 $-1 $-1 $28 $-1 $7 #
shell $-1 $-1 $-1 $29 $-1 $9 #
shell $-1 $-1 $-1 $30 $-1 $11 #
shell $-1 $-1 $-1 $31 $-1 $13 #
shell $-1 $-1 $-1 $32 $-1 $15 #
shell $-1 $-1 $-1 $33 $-1 $17 #
shell $-1 $-1 $-1 $34 $-1 $19 #
face $-1 $35 $36 $21 $-1 $37 forward single #
face $-1 $38 $39 $22 $-1 $40 forward single #
face $-1 $41 $42 $23 $-1 $43 reversed single #
face $-1 $44 $45 $24 $-1 $46 forward single #
face $-1 $47 $48 $25 $-1 $49 forward single #
face $-1 $50 $51 $26 $-1 $52 reversed single #
face $-1 $53 $54 $27 $-1 $55 forward single #
face $-1 $56 $57 $21 $-1 $58 reversed single #
loop $-1 $-1 $59 $28 #
plane-surface $-1 0 0 11.685999720971759 0 0 1 1 0 0 forward_v I I I I #
face $-1 $60 $61 $22 $-1 $62 forward single #
loop $-1 $-1 $63 $29 #
plane-surface $-1 -67.072359385967587 0 0 1 0 0 0 0 -1 forward_v I I I I #
face $-1 $64 $65 $23 $-1 $66 reversed single #
loop $-1 $-1 $67 $30 #
plane-surface $-1 20.802743099003592 96.648659304919164 132.62639067694718 1 0 0 0 -0.77714596973225614 -0.62932038083071107 forward_v I I I I #
face $-1 $68 $69 $24 $-1 $70 forward single #
loop $-1 $71 $72 $31 #
cone-surface $-1 25.976772055219087 22.885095318515738 4.8420725316783511 0 -0.77714596973225614 -0.62932038083071107 2 0 0 1 I I 0 1 2 forward I I I I #
face $-1 $73 $74 $25 $-1 $75 forward single #
loop $-1 $76 $77 $32 #
cone-surface $-1 33.737815489542328 22.885095318515738 4.8420725316783511 0 -0.77714596973225614 -0.62932038083071107 2 0 0 1 I I 0 1 2 forward I I I I #
face $-1 $78 $79 $26 $-1 $80 reversed single #
loop $-1 $-1 $81 $33 #
plane-surface $-1 52.214906806261894 -29.389676247195212 7.3340725205275135 0 -0.7660444514056185 0.64278759981090561 1 0 0 forward_v I I I I #
face $-1 $82 $83 $27 $-1 $84 forward single #
loop $-1 $85 $86 $34 #
cone-surface $-1 52.214906806261894 -26.312910776417379 8.4603936114237381 0 0.7660444514056185 -0.64278759981090561 1 0 0 1 I I 0 1 1 forward I I I I #
face $-1 $87 $88 $21 $-1 $89 reversed single #
loop $-1 $-1 $90 $35 #
plane-surface $-1 0 0 -11.685999720971759 0 0 1 1 0 0 forward_v I I I I #
coedge $-1 $91 $92 $93 $94 forward $36 $-1 #
face $-1 $95 $96 $22 $-1 $97 reversed single #
loop $-1 $-1 $98 $38 #
plane-surface $-1 0 0 11.685999720971759 0 0 1 1 0 0 forward_v I I I I #
coedge $-1 $99 $100 $101 $102 forward $39 $-1 #
face $-1 $103 $104 $23 $-1 $105 reversed single #
loop $-1 $-1 $106 $41 #
plane-surface $-1 29.8572937723807 -7.6013682495571828 48.206385172964303 0 0.77714596973225614 0.62932038083071107 1 0 0 forward_v I I I I #
coedge $-1 $107 $108 $109 $110 reversed $42 $-1 #
face $-1 $-1 $111 $24 $-1 $112 forward single #
loop $-1 $113 $114 $44 #
cone-surface $-1 25.976772055219087 19.312078553472727 1.948700682801535 0 -0.77714596973225614 -0.62932038083071107 1 0 0 1 I I -0.70710678118654746 0.70710678118654746 1 forward I I I I #
loop $-1 $-1 $115 $31 #
coedge $-1 $72 $72 $116 $117 reversed $45 $-1 #
face $-1 $-1 $118 $25 $-1 $119 forward single #
loop $-1 $120 $121 $47 #
cone-surface $-1 33.737815489542328 19.312078553472727 1.948700682801535 0 -0.77714596973225614 -0.62932038083071107 1 0 0 1 I I -0.70710678118654746 0.70710678118654746 1 forward I I I I #
loop $-1 $-1 $122 $32 #
coedge $-1 $77 $77 $123 $124 reversed $48 $-1 #
face $-1 $125 $126 $26 $-1 $127 reversed single #
loop $-1 $-1 $128 $50 #
plane-surface $-1 37.3574542265562 -132.15049374780327 93.560634327248664 1 0 0 0 0.7660444514056185 -0.64278759981090561 forward_v I I I I #
coedge $-1 $129 $130 $131 $132 reversed $51 $-1 #
face $-1 $-1 $133 $27 $-1 $134 forward single #
loop $-1 $135 $136 $53 #
cone-surface $-1 52.214906806261894 -24.678973286535353 7.0893573021923739 0 0.7660444514056185 -0.64278759981090561 0.5 0 0 1 I I -0.70710678118654746 0.70710678118654746 0.5 forward I I I I #
loop $-1 $-1 $137 $34 #
coedge $-1 $86 $86 $138 $139 reversed $54 $-1 #
face $-1 $140 $141 $21 $-1 $142 reversed single #
loop $-1 $-1 $143 $56 #
plane-surface $-1 0 -29.389676247195208 0 0 1 0 0 0 1 forward_v I I I I #
coedge $-1 $144 $145 $146 $147 forward $57 $-1 #
coedge $-1 $148 $59 $149 $150 forward $36 $-1 #
coedge $-1 $59 $148 $151 $152 forward $36 $-1 #
coedge $-1 $153 $154 $59 $94 reversed $155 $-1 #
edge $-1 $156 -29.389676247195208 $157 29.389676247195208 $93 $158 forward 7 unknown #
face $-1 $159 $160 $22 $-1 $161 reversed single #
loop $-1 $-1 $162 $60 #
plane-surface $-1 -77.963246068274913 -26.833107473740633 0 1 0 0 0 0 -1 forward_v I I I I #
coedge $-1 $163 $164 $99 $165 forward $61 $-1 #
coedge $-1 $166 $63 $98 $165 reversed $39 $-1 #
coedge $-1 $63 $166 $167 $168 reversed $39 $-1 #
coedge $-1 $169 $170 $63 $102 reversed $160 $-1 #
edge $-1 $171 -11.685999720971759 $172 11.685999720971759 $101 $173 forward 7 unknown #
face $-1 $174 $175 $23 $-1 $176 forward single #
loop $-1 $-1 $177 $64 #
plane-surface $-1 38.911844445757808 96.648659304919164 132.62639067694718 -1 0 0 0 0.77714596973225614 0.62932038083071107 forward_v I I I I #
coedge $-1 $178 $179 $180 $181 reversed $65 $-1 #
coedge $-1 $108 $67 $182 $183 reversed $42 $-1 #
coedge $-1 $67 $107 $178 $184 reversed $42 $-1 #
coedge $-1 $180 $185 $67 $110 forward $175 $-1 #
edge $-1 $186 18.934653405264374 $187 26.352073672001822 $109 $188 forward 7 unknown #
loop $-1 $-1 $116 $68 #
plane-surface $-1 29.8572937723807 -7.6013682495571828 48.206385172964303 0 0.77714596973225614 0.62932038083071107 1 0 0 forward_v I I I I #
loop $-1 $-1 $189 $44 #
coedge $-1 $114 $114 $115 $190 reversed $69 $-1 #
coedge $-1 $115 $115 $114 $190 forward $71 $-1 #
coedge $-1 $116 $116 $72 $117 forward $111 $-1 #
edge $-1 $191 -9.7528708377771695e-017 $191 6.2831853071796004 $116 $192 forward 7 unknown #
loop $-1 $-1 $123 $73 #
plane-surface $-1 29.8572937723807 -7.6013682495571828 48.206385172964303 0 0.77714596973225614 0.62932038083071107 1 0 0 forward_v I I I I #
loop $-1 $-1 $193 $47 #
coedge $-1 $121 $121 $122 $194 reversed $74 $-1 #
coedge $-1 $122 $122 $121 $194 forward $76 $-1 #
coedge $-1 $123 $123 $77 $124 forward $118 $-1 #
edge $-1 $195 -9.7528708377771695e-017 $195 6.2831853071796004 $123 $196 forward 7 unknown #
face $-1 $197 $198 $26 $-1 $199 forward single #
loop $-1 $-1 $200 $78 #
plane-surface $-1 0 -29.389676247195208 0 0 1 0 0 0 1 forward_v I I I I #
coedge $-1 $201 $202 $203 $204 reversed $79 $-1 #
coedge $-1 $205 $81 $206 $207 reversed $51 $-1 #
coedge $-1 $81 $205 $201 $208 forward $51 $-1 #
coedge $-1 $203 $209 $81 $132 forward $198 $-1 #
edge $-1 $210 -40.96490598283664 $211 -11.250000823425253 $131 $212 forward 7 unknown #
loop $-1 $-1 $138 $82 #
plane-surface $-1 52.214906806261894 -29.389676247195212 7.3340725205275135 0 -0.7660444514056185 0.64278759981090561 1 0 0 forward_v I I I I #
loop $-1 $-1 $213 $53 #
coedge $-1 $136 $136 $137 $214 reversed $83 $-1 #
coedge $-1 $137 $137 $136 $214 forward $85 $-1 #
coedge $-1 $138 $138 $86 $139 forward $133 $-1 #
edge $-1 $215 -1.407847693078707e-015 $215 6.2831853071795987 $138 $216 forward 7 unknown #
face $-1 $217 $218 $21 $-1 $219 reversed single #
loop $-1 $-1 $220 $87 #
plane-surface $-1 -67.072359385967587 0 0 1 0 0 0 0 -1 forward_v I I I I #
coedge $-1 $221 $151 $222 $223 forward $88 $-1 #
coedge $-1 $224 $90 $221 $225 forward $57 $-1 #
coedge $-1 $90 $224 $226 $227 forward $57 $-1 #
coedge $-1 $154 $153 $90 $147 reversed $155 $-1 #
edge $-1 $228 -29.389676247195208 $229 29.389676247195208 $146 $230 forward 7 unknown #
coedge $-1 $92 $91 $231 $232 forward $36 $-1 #
coedge $-1 $233 $234 $91 $150 reversed $218 $-1 #
edge $-1 $157 -67.072359385967587 $235 67.072359385967587 $149 $236 forward 7 unknown #
coedge $-1 $143 $237 $92 $152 reversed $88 $-1 #
edge $-1 $238 -67.072359385967587 $156 67.072359385967587 $151 $239 forward 7 unknown #
coedge $-1 $146 $93 $237 $240 forward $155 $-1 #
coedge $-1 $93 $146 $233 $241 reversed $155 $-1 #
loop $-1 $-1 $153 $217 #
vertex $-1 $94 $242 #
vertex $-1 $94 $243 #
straight-curve $-1 67.072359385967587 0 11.685999720971759 0 1 0 I I #
face $-1 $244 $245 $22 $-1 $246 reversed single #
loop $-1 $-1 $101 $95 #
plane-surface $-1 -72.51780272712125 -24.276538700286057 0 0 -1 0 0 0 -1 forward_v I I I I #
coedge $-1 $247 $248 $249 $250 forward $96 $-1 #
coedge $-1 $251 $98 $170 $252 forward $61 $-1 #
coedge $-1 $98 $251 $253 $254 forward $61 $-1 #
edge $-1 $255 -29.389676247195208 $172 -24.276538700286057 $98 $256 forward 7 unknown #
coedge $-1 $100 $99 $257 $258 reversed $39 $-1 #
coedge $-1 $259 $260 $100 $168 forward $245 $-1 #
edge $-1 $171 24.276538700286057 $261 29.389676247195208 $167 $262 forward 7 unknown #
coedge $-1 $249 $101 $260 $263 reversed $160 $-1 #
coedge $-1 $101 $249 $163 $252 reversed $160 $-1 #
vertex $-1 $168 $264 #
vertex $-1 $252 $265 #
straight-curve $-1 -67.072359385967587 -24.276538700286057 0 0 0 1 I I #
face $-1 $-1 $266 $23 $-1 $267 reversed single #
loop $-1 $-1 $109 $103 #
plane-surface $-1 0 0 11.685999720971759 0 0 1 1 0 0 forward_v I I I I #
coedge $-1 $268 $269 $270 $271 reversed $104 $-1 #
coedge $-1 $272 $106 $108 $184 forward $65 $-1 #
coedge $-1 $106 $272 $268 $273 forward $65 $-1 #
coedge $-1 $270 $109 $106 $181 forward $175 $-1 #
edge $-1 $187 5.8740962128132423 $274 23.983197559567458 $180 $275 forward 7 unknown #
coedge $-1 $276 $277 $107 $183 forward $266 $-1 #
edge $-1 $278 -63.78694705999645 $186 -54.627195617501833 $182 $279 forward 7 unknown #
edge $-1 $187 46.992954830061876 $278 58.77935249439043 $108 $280 forward 7 unknown #
coedge $-1 $109 $270 $276 $281 forward $175 $-1 #
vertex $-1 $183 $282 #
vertex $-1 $110 $283 #
straight-curve $-1 20.802743099003592 48.324329652459582 11.685999720971758 0 -1 0 I I #
coedge $-1 $189 $189 $-1 $284 reversed $113 $-1 #
edge $-1 $285 0 $285 6.2831853071796004 $114 $286 forward 7 unknown #
vertex $-1 $117 $287 #
ellipse-curve $-1 25.976772055219087 25.680966113826486 7.1061239997244474 0 0.77714596973225614 0.62932038083071107 2 0 0 1 I I #
coedge $-1 $193 $193 $-1 $288 reversed $120 $-1 #
edge $-1 $289 0 $289 6.2831853071796004 $121 $290 forward 7 unknown #
vertex $-1 $124 $291 #
ellipse-curve $-1 33.737815489542328 25.680966113826486 7.1061239997244474 0 0.77714596973225614 0.62932038083071107 2 0 0 1 I I #
face $-1 $-1 $292 $26 $-1 $293 reversed single #
loop $-1 $-1 $203 $125 #
plane-surface $-1 0 0 11.685999720971759 0 0 1 1 0 0 forward_v I I I I #
coedge $-1 $294 $295 $202 $296 forward $126 $-1 #
coedge $-1 $202 $128 $130 $208 reversed $79 $-1 #
coedge $-1 $128 $201 $200 $296 reversed $79 $-1 #
coedge $-1 $297 $131 $128 $204 forward $198 $-1 #
edge $-1 $211 -40.337271039903662 $298 -36.685570626706422 $203 $299 forward 7 unknown #
coedge $-1 $130 $129 $294 $300 reversed $51 $-1 #
coedge $-1 $301 $302 $129 $207 forward $292 $-1 #
edge $-1 $303 -6.6365469467988341 $210 -0.95550951814979079 $206 $304 forward 7 unknown #
edge $-1 $305 5.6855610497590068e-015 $211 5.6810374286490495 $201 $306 forward 7 unknown #
coedge $-1 $131 $297 $301 $307 forward $198 $-1 #
vertex $-1 $207 $308 #
vertex $-1 $132 $309 #
straight-curve $-1 26.107453403130947 -25.737975833997972 11.685999720971759 -1 0 0 I I #
coedge $-1 $213 $213 $-1 $310 reversed $135 $-1 #
edge $-1 $311 0 $311 6.2831853071796004 $136 $312 forward 7 unknown #
vertex $-1 $139 $313 #
ellipse-curve $-1 52.214906806261894 -27.563826040596588 9.5100361207496409 0 -0.7660444514056185 0.64278759981090561 1 0 0 1 I I #
face $-1 $-1 $155 $21 $-1 $314 reversed single #
loop $-1 $-1 $233 $140 #
plane-surface $-1 0 29.389676247195208 0 0 -1 0 0 0 -1 forward_v I I I I #
coedge $-1 $315 $231 $234 $316 forward $141 $-1 #
coedge $-1 $237 $143 $144 $225 reversed $88 $-1 #
coedge $-1 $231 $315 $143 $223 reversed $141 $-1 #
edge $-1 $238 -11.685999720971759 $317 11.685999720971759 $222 $318 forward 7 unknown #
coedge $-1 $145 $144 $315 $319 forward $57 $-1 #
edge $-1 $229 -67.072359385967587 $317 67.072359385967587 $221 $320 forward 7 unknown #
coedge $-1 $234 $233 $145 $227 reversed $218 $-1 #
edge $-1 $321 -67.072359385967587 $228 67.072359385967587 $226 $322 forward 7 unknown #
vertex $-1 $147 $323 #
vertex $-1 $240 $324 #
straight-curve $-1 67.072359385967587 0 -11.685999720971759 0 -1 0 I I #
coedge $-1 $220 $222 $148 $232 reversed $141 $-1 #
edge $-1 $235 -29.389676247195208 $238 29.389676247195208 $231 $325 forward 7 unknown #
coedge $-1 $226 $149 $154 $241 forward $218 $-1 #
coedge $-1 $149 $226 $220 $316 reversed $218 $-1 #
vertex $-1 $150 $326 #
straight-curve $-1 0 29.389676247195208 11.685999720971759 -1 0 0 I I #
coedge $-1 $151 $221 $153 $240 reversed $88 $-1 #
vertex $-1 $232 $327 #
straight-curve $-1 0 -29.389676247195208 11.685999720971759 1 0 0 I I #
edge $-1 $156 -11.685999720971759 $229 11.685999720971759 $153 $328 forward 7 unknown #
edge $-1 $157 -11.685999720971759 $228 11.685999720971759 $154 $329 forward 7 unknown #
point $-1 67.072359385967587 -29.389676247195208 11.685999720971759 #
point $-1 67.072359385967587 29.389676247195208 11.685999720971759 #
face $-1 $-1 $330 $22 $-1 $331 reversed single #
loop $-1 $-1 $167 $159 #
plane-surface $-1 0 0 -11.685999720971759 0 0 1 1 0 0 forward_v I I I I #
coedge $-1 $332 $162 $333 $334 reversed $96 $-1 #
coedge $-1 $162 $332 $251 $335 reversed $96 $-1 #
coedge $-1 $170 $169 $162 $250 reversed $160 $-1 #
edge $-1 $336 -11.685999720971759 $337 11.685999720971759 $249 $338 forward 7 unknown #
coedge $-1 $164 $163 $248 $335 forward $61 $-1 #
edge $-1 $172 -5.4454433411536627 $336 5.4454433411536627 $170 $339 forward 7 unknown #
coedge $-1 $340 $257 $164 $254 reversed $330 $-1 #
edge $-1 $341 -77.963246068274913 $255 -67.072359385967587 $253 $342 forward 7 unknown #
vertex $-1 $258 $343 #
straight-curve $-1 -67.072359385967587 0 11.685999720971759 0 1 0 I I #
coedge $-1 $253 $344 $166 $258 forward $330 $-1 #
edge $-1 $261 -11.685999720971759 $255 11.685999720971759 $257 $345 forward 7 unknown #
coedge $-1 $333 $167 $344 $346 forward $245 $-1 #
coedge $-1 $167 $333 $169 $263 forward $245 $-1 #
vertex $-1 $346 $347 #
straight-curve $-1 -67.072359385967587 0 -11.685999720971759 0 -1 0 I I #
edge $-1 $337 -5.4454433411536627 $171 5.4454433411536627 $169 $348 forward 7 unknown #
point $-1 -67.072359385967587 -24.276538700286057 -11.685999720971759 #
point $-1 -67.072359385967587 -24.276538700286057 11.685999720971759 #
loop $-1 $-1 $182 $174 #
plane-surface $-1 0 29.389676247195208 0 0 -1 0 0 0 -1 forward_v I I I I #
coedge $-1 $269 $177 $179 $273 reversed $104 $-1 #
coedge $-1 $177 $268 $349 $350 reversed $104 $-1 #
coedge $-1 $185 $180 $177 $271 forward $175 $-1 #
edge $-1 $274 -26.352073672001822 $351 -18.934653405264374 $270 $352 forward 7 unknown #
coedge $-1 $179 $178 $277 $353 reversed $65 $-1 #
edge $-1 $354 -58.77935249439043 $274 -46.992954830061876 $268 $355 forward 7 unknown #
vertex $-1 $181 $356 #
straight-curve $-1 14.92864688619035 21.972255980457756 11.685999720971758 1 0 0 I I #
coedge $-1 $349 $182 $185 $281 reversed $266 $-1 #
coedge $-1 $182 $349 $272 $353 forward $266 $-1 #
vertex $-1 $183 $357 #
straight-curve $-1 20.802743099003592 29.389676247195212 66.313195338473591 0 0 1 I I #
straight-curve $-1 20.802743099003592 -7.6013682495571828 48.206385172964303 0 0.62932038083071107 -0.77714596973225614 I I #
edge $-1 $351 -38.911844445757808 $186 -20.802743099003592 $276 $358 forward 7 unknown #
point $-1 20.802743099003592 29.389676247195208 11.685999720971759 #
point $-1 20.802743099003592 21.97225598045776 11.685999720971758 #
edge $-1 $359 1 $359 0 $189 $-1 forward 7 unknown #
vertex $-1 $190 $360 #
ellipse-curve $-1 25.976772055219087 20.089224523204983 2.5780210636322458 0 0.77714596973225614 0.62932038083071107 2 0 0 1 I I #
point $-1 27.976772055219087 25.680966113826496 7.1061239997244563 #
edge $-1 $361 1 $361 0 $193 $-1 forward 7 unknown #
vertex $-1 $194 $362 #
ellipse-curve $-1 33.737815489542328 20.089224523204983 2.5780210636322458 0 0.77714596973225614 0.62932038083071107 2 0 0 1 I I #
point $-1 35.737815489542328 25.680966113826496 7.1061239997244563 #
loop $-1 $-1 $206 $197 #
plane-surface $-1 67.072359385967587 0 0 -1 0 0 0 0 1 forward_v I I I I #
coedge $-1 $363 $200 $205 $300 forward $126 $-1 #
coedge $-1 $200 $363 $297 $364 reversed $126 $-1 #
edge $-1 $298 35.094317442652574 $305 39.446244643096811 $200 $365 forward 7 unknown #
coedge $-1 $209 $203 $295 $364 forward $198 $-1 #
vertex $-1 $364 $366 #
straight-curve $-1 37.3574542265562 -66.075246873901634 11.685999720971758 0 -1 0 I I #
edge $-1 $305 11.250000823425253 $303 40.96490598283664 $294 $367 forward 7 unknown #
coedge $-1 $302 $206 $209 $307 reversed $292 $-1 #
coedge $-1 $206 $301 $363 $368 forward $292 $-1 #
vertex $-1 $300 $369 #
straight-curve $-1 67.072359385967587 -25.12378616422999 12.417962485615661 0 0.64278759981090572 0.76604445140561861 I I #
vertex $-1 $300 $370 #
straight-curve $-1 37.3574542265562 -29.389676247195212 7.3340725205275135 0 0.64278759981090561 0.7660444514056185 I I #
edge $-1 $371 -29.389676247195208 $210 -25.737975833997972 $301 $372 forward 7 unknown #
point $-1 67.072359385967587 -25.737975833997972 11.685999720971759 #
point $-1 37.3574542265562 -25.737975833997972 11.685999720971759 #
edge $-1 $373 1 $373 0 $213 $-1 forward 7 unknown #
vertex $-1 $214 $374 #
ellipse-curve $-1 52.214906806261894 -25.061995512238163 7.4107511020978265 0 -0.7660444514056185 0.64278759981090561 1 0 0 1 I I #
point $-1 53.214906806261894 -27.563826040596599 9.510036120749648 #
plane-surface $-1 67.072359385967587 0 0 -1 0 0 0 0 1 forward_v I I I I #
coedge $-1 $222 $220 $224 $319 reversed $141 $-1 #
edge $-1 $235 -11.685999720971759 $321 11.685999720971759 $234 $375 forward 7 unknown #
vertex $-1 $319 $376 #
straight-curve $-1 -67.072359385967587 -29.389676247195208 0 0 0 -1 I I #
edge $-1 $317 -29.389676247195208 $321 29.389676247195208 $315 $377 forward 7 unknown #
straight-curve $-1 0 -29.389676247195208 -11.685999720971759 -1 0 0 I I #
vertex $-1 $227 $378 #
straight-curve $-1 0 29.389676247195208 -11.685999720971759 1 0 0 I I #
point $-1 67.072359385967587 29.389676247195208 -11.685999720971759 #
point $-1 67.072359385967587 -29.389676247195208 -11.685999720971759 #
straight-curve $-1 -67.072359385967587 0 11.685999720971759 0 -1 0 I I #
point $-1 -67.072359385967587 29.389676247195208 11.685999720971759 #
point $-1 -67.072359385967587 -29.389676247195208 11.685999720971759 #
straight-curve $-1 67.072359385967587 -29.389676247195208 0 0 0 -1 I I #
straight-curve $-1 67.072359385967587 29.389676247195208 0 0 0 -1 I I #
loop $-1 $-1 $257 $244 #
plane-surface $-1 0 -29.389676247195208 0 0 1 0 0 0 1 forward_v I I I I #
coedge $-1 $248 $247 $340 $379 reversed $96 $-1 #
coedge $-1 $260 $259 $247 $334 forward $245 $-1 #
edge $-1 $380 -2.5565687734545754 $337 2.5565687734545754 $247 $381 forward 7 unknown #
edge $-1 $336 -2.5565687734545754 $341 2.5565687734545754 $248 $382 forward 7 unknown #
vertex $-1 $252 $383 #
vertex $-1 $263 $384 #
straight-curve $-1 -77.963246068274913 -24.276538700286057 0 0 0 -1 I I #
straight-curve $-1 -72.51780272712125 -24.276538700286057 11.685999720971759 -1 0 0 I I #
coedge $-1 $344 $253 $332 $379 forward $330 $-1 #
vertex $-1 $335 $385 #
straight-curve $-1 0 -29.389676247195208 11.685999720971759 1 0 0 I I #
point $-1 -67.072359385967587 -29.389676247195208 11.685999720971759 #
coedge $-1 $257 $340 $259 $346 reversed $330 $-1 #
straight-curve $-1 -67.072359385967587 -29.389676247195208 0 0 0 1 I I #
edge $-1 $261 -5.4454433411536627 $380 5.4454433411536627 $344 $386 forward 7 unknown #
point $-1 -67.072359385967587 -29.389676247195208 -11.685999720971759 #
straight-curve $-1 -72.51780272712125 -24.276538700286057 -11.685999720971759 1 0 0 I I #
coedge $-1 $277 $276 $269 $350 forward $266 $-1 #
edge $-1 $351 54.627195617501833 $354 63.78694705999645 $349 $387 forward 7 unknown #
vertex $-1 $281 $388 #
straight-curve $-1 38.911844445757808 48.324329652459582 11.685999720971758 0 1 0 I I #
edge $-1 $354 -23.983197559567458 $278 -5.8740962128132423 $277 $389 forward 7 unknown #
vertex $-1 $353 $390 #
straight-curve $-1 38.911844445757808 -7.6013682495571828 48.206385172964303 0 -0.62932038083071107 0.77714596973225614 I I #
point $-1 38.911844445757808 21.97225598045776 11.685999720971758 #
point $-1 20.802743099003592 29.389676247195212 2.5262482784771407 #
straight-curve $-1 0 29.389676247195208 11.685999720971759 -1 0 0 I I #
vertex $-1 $284 $391 #
point $-1 27.976772055219087 20.089224523204983 2.5780210636322458 #
vertex $-1 $288 $392 #
point $-1 35.737815489542328 20.089224523204983 2.5780210636322458 #
coedge $-1 $295 $294 $302 $368 reversed $126 $-1 #
edge $-1 $298 37.3574542265562 $371 67.072359385967587 $295 $393 forward 7 unknown #
straight-curve $-1 37.3574542265562 -29.389676247195212 46.780317163624332 0 0 -1 I I #
point $-1 37.3574542265562 -29.389676247195208 11.685999720971759 #
straight-curve $-1 26.107453403130947 -29.389676247195208 7.3340725205275179 1 0 0 I I #
edge $-1 $371 -11.685999720971759 $303 -7.3340725205275179 $302 $394 forward 7 unknown #
point $-1 67.072359385967587 -29.389676247195208 7.3340725205275179 #
point $-1 37.3574542265562 -29.389676247195208 7.3340725205275179 #
vertex $-1 $307 $395 #
straight-curve $-1 67.072359385967587 0 11.685999720971759 0 1 0 I I #
vertex $-1 $310 $396 #
point $-1 53.214906806261894 -25.061995512238163 7.4107511020978265 #
straight-curve $-1 -67.072359385967587 29.389676247195208 0 0 0 -1 I I #
point $-1 -67.072359385967587 -29.389676247195208 -11.685999720971759 #
straight-curve $-1 -67.072359385967587 0 -11.685999720971759 0 1 0 I I #
point $-1 -67.072359385967587 29.389676247195208 -11.685999720971759 #
edge $-1 $341 -11.685999720971759 $380 11.685999720971759 $332 $397 forward 7 unknown #
vertex $-1 $334 $398 #
straight-curve $-1 -77.963246068274913 -26.833107473740633 -11.685999720971759 0 1 0 I I #
straight-curve $-1 -77.963246068274913 -26.833107473740633 11.685999720971759 0 -1 0 I I #
point $-1 -77.963246068274913 -24.276538700286057 11.685999720971759 #
point $-1 -77.963246068274913 -24.276538700286057 -11.685999720971759 #
point $-1 -77.963246068274913 -29.389676247195208 11.685999720971759 #
straight-curve $-1 -72.51780272712125 -29.389676247195208 -11.685999720971759 -1 0 0 I I #
straight-curve $-1 38.911844445757808 29.389676247195212 66.313195338473591 0 0 -1 I I #
point $-1 38.911844445757808 29.389676247195208 11.685999720971759 #
straight-curve $-1 14.92864688619035 29.389676247195208 2.5262482784771478 -1 0 0 I I #
point $-1 38.911844445757808 29.389676247195212 2.5262482784771407 #
point $-1 25.976772055219087 18.534932583740471 1.3193803019708239 #
point $-1 33.737815489542328 18.534932583740471 1.3193803019708239 #
straight-curve $-1 0 -29.389676247195208 11.685999720971759 1 0 0 I I #
straight-curve $-1 67.072359385967587 -29.389676247195208 0 0 0 -1 I I #
point $-1 67.072359385967587 -29.389676247195208 11.685999720971759 #
point $-1 52.214906806261894 -24.295951060832543 6.7679635022869213 #
straight-curve $-1 -77.963246068274913 -29.389676247195208 0 0 0 -1 I I #
point $-1 -77.963246068274913 -29.389676247195208 -11.685999720971759 #
End-of-ACIS-data 