500 0 12 0           
7 Unknown 11 ACIS 5.0 NT 24 Fri Mar 26 17:52:43 1999 
-1 9.9999999999999995e-007 1e-010 
body $-1 $12 $-1 $13 #
body $-1 $14 $-1 $15 #
body $-1 $16 $-1 $17 #
body $-1 $18 $-1 $19 #
body $-1 $20 $-1 $21 #
body $-1 $22 $-1 $23 #
body $-1 $24 $-1 $25 #
body $-1 $26 $-1 $27 #
body $-1 $28 $-1 $29 #
body $-1 $30 $-1 $31 #
body $-1 $32 $-1 $33 #
body $-1 $34 $-1 $35 #
lump $-1 $-1 $36 $0 #
transform $-1 1 0 0 0 1 0 0 0 1 54.564653462324898 28.895769913011463 10.543556464032603 1 rotate no_reflect no_shear #
lump $-1 $-1 $37 $1 #
transform $-1 1 0 0 0 1 0 0 0 1 54.564653462324898 28.895769913011463 10.543556464032603 1 rotate no_reflect no_shear #
lump $-1 $-1 $38 $2 #
transform $-1 1 0 0 0 1 0 0 0 1 54.564653462324898 28.895769913011463 10.543556464032603 1 rotate no_reflect no_shear #
lump $-1 $-1 $39 $3 #
transform $-1 1 0 0 0 1 0 0 0 1 54.564653462324898 28.895769913011463 10.543556464032603 1 rotate no_reflect no_shear #
lump $-1 $-1 $40 $4 #
transform $-1 1 0 0 0 1 0 0 0 1 54.564653462324898 28.895769913011463 10.543556464032603 1 rotate no_reflect no_shear #
lump $-1 $-1 $41 $5 #
transform $-1 1 0 0 0 1 0 0 0 1 54.564653462324898 28.895769913011463 10.543556464032603 1 rotate no_reflect no_shear #
lump $-1 $-1 $42 $6 #
transform $-1 1 0 0 0 1 0 0 0 1 54.564653462324898 28.895769913011463 10.543556464032603 1 rotate no_reflect no_shear #
lump $-1 $-1 $43 $7 #
transform $-1 1 0 0 0 1 0 0 0 1 54.564653462324898 28.895769913011463 10.543556464032603 1 rotate no_reflect no_shear #
lump $-1 $-1 $44 $8 #
transform $-1 1 0 0 0 1 0 0 0 1 54.564653462324898 28.895769913011463 10.543556464032603 1 rotate no_reflect no_shear #
lump $-1 $-1 $45 $9 #
transform $-1 1 0 0 0 1 0 0 0 1 54.564653462324898 28.895769913011463 10.543556464032603 1 rotate no_reflect no_shear #
lump $-1 $-1 $46 $10 #
transform $-1 1 0 0 0 1 0 0 0 1 54.564653462324898 28.895769913011463 10.543556464032603 1 rotate no_reflect no_shear #
lump $-1 $-1 $47 $11 #
transform $-1 1 0 0 0 1 0 0 0 1 54.564653462324898 28.895769913011463 10.543556464032603 1 rotate no_reflect no_shear #
shell $-1 $-1 $-1 $48 $-1 $12 #
shell $-1 $-1 $-1 $49 $-1 $14 #
shell $-1 $-1 $-1 $50 $-1 $16 #
shell $-1 $-1 $-1 $51 $-1 $18 #
shell $-1 $-1 $-1 $52 $-1 $20 #
shell $-1 $-1 $-1 $53 $-1 $22 #
shell $-1 $-1 $-1 $54 $-1 $24 #
shell $-1 $-1 $-1 $55 $-1 $26 #
shell $-1 $-1 $-1 $56 $-1 $28 #
shell $-1 $-1 $-1 $57 $-1 $30 #
shell $-1 $-1 $-1 $58 $-1 $32 #
shell $-1 $-1 $-1 $59 $-1 $34 #
face $-1 $60 $61 $36 $-1 $62 forward single #
face $-1 $63 $64 $37 $-1 $65 forward single #
face $-1 $66 $67 $38 $-1 $68 forward single #
face $-1 $69 $70 $39 $-1 $71 reversed single #
face $-1 $72 $73 $40 $-1 $74 forward single #
face $-1 $75 $76 $41 $-1 $77 forward single #
face $-1 $78 $79 $42 $-1 $80 reversed single #
face $-1 $81 $82 $43 $-1 $83 forward single #
face $-1 $84 $85 $44 $-1 $86 forward single #
face $-1 $87 $88 $45 $-1 $89 reversed single #
face $-1 $90 $91 $46 $-1 $92 forward single #
face $-1 $93 $94 $47 $-1 $95 forward single #
face $-1 $96 $97 $36 $-1 $98 reversed single #
loop $-1 $-1 $99 $48 #
plane-surface $-1 0 0 10.543556464032603 0 0 1 1 0 0 forward_v I I I I #
face $-1 $100 $101 $37 $-1 $102 reversed single #
loop $-1 $-1 $103 $49 #
plane-surface $-1 0 -28.895769913011463 0 0 1 0 0 0 1 forward_v I I I I #
face $-1 $104 $105 $38 $-1 $106 reversed single #
loop $-1 $-1 $107 $50 #
plane-surface $-1 0 21.989159627671825 1.4295175682749726 0 0 1 1 0 0 forward_v I I I I #
face $-1 $108 $109 $39 $-1 $110 reversed single #
loop $-1 $-1 $111 $51 #
plane-surface $-1 65.330321691102242 -7.0037748276773861 156.80952354282414 0 -1 0 -0.75470958851134928 0 -0.65605901945558964 forward_v I I I I #
face $-1 $112 $113 $40 $-1 $114 forward single #
loop $-1 $115 $116 $52 #
cone-surface $-1 50.750580686780197 -11.316300110574144 6.28851553045775 -0.75470958851134928 0 -0.65605901945558964 0.32802950972779482 0 -0.37735479425567464 1 I I 0 1 0.5 forward I I I I #
face $-1 $117 $118 $41 $-1 $119 forward single #
loop $-1 $120 $121 $53 #
cone-surface $-1 50.750580686780197 -8.7287849408360891 6.28851553045775 -0.75470958851134928 0 -0.65605901945558964 0.32802950972779482 0 -0.37735479425567464 1 I I 0 1 0.5 forward I I I I #
face $-1 $122 $123 $42 $-1 $124 reversed single #
loop $-1 $-1 $125 $54 #
plane-surface $-1 65.330321691102242 3.0385866217456794 156.80952354282414 0 -1 0 -0.75470958851134928 0 -0.65605901945558964 forward_v I I I I #
face $-1 $126 $127 $43 $-1 $128 forward single #
loop $-1 $129 $130 $55 #
cone-surface $-1 50.750580686780197 -1.2739386611510781 6.28851553045775 -0.75470958851134928 0 -0.65605901945558964 0.32802950972779482 0 -0.37735479425567464 1 I I 0 1 0.5 forward I I I I #
face $-1 $131 $132 $44 $-1 $133 forward single #
loop $-1 $134 $135 $56 #
cone-surface $-1 50.750580686780197 1.3135765085869764 6.28851553045775 -0.75470958851134928 0 -0.65605901945558964 0.32802950972779482 0 -0.37735479425567464 1 I I 0 1 0.5 forward I I I I #
face $-1 $136 $137 $45 $-1 $138 reversed single #
loop $-1 $-1 $139 $57 #
plane-surface $-1 65.330321691102242 13.080948071168741 156.80952354282414 0 -1 0 -0.75470958851134928 0 -0.65605901945558964 forward_v I I I I #
face $-1 $140 $141 $46 $-1 $142 forward single #
loop $-1 $143 $144 $58 #
cone-surface $-1 50.750580686780197 8.7684227882719838 6.28851553045775 -0.75470958851134928 0 -0.65605901945558964 0.32802950972779482 0 -0.37735479425567464 1 I I 0 1 0.5 forward I I I I #
face $-1 $145 $146 $47 $-1 $147 forward single #
loop $-1 $148 $149 $59 #
cone-surface $-1 50.750580686780197 11.355937958010038 6.28851553045775 -0.75470958851134928 0 -0.65605901945558964 0.32802950972779482 0 -0.37735479425567464 1 I I 0 1 0.5 forward I I I I #
face $-1 $150 $151 $36 $-1 $152 reversed single #
loop $-1 $-1 $153 $60 #
plane-surface $-1 0 0 -10.543556464032603 0 0 1 1 0 0 forward_v I I I I #
coedge $-1 $154 $155 $156 $157 forward $61 $-1 #
face $-1 $158 $159 $37 $-1 $160 reversed single #
loop $-1 $-1 $161 $63 #
plane-surface $-1 0 0 -10.543556464032603 0 0 1 1 0 0 forward_v I I I I #
coedge $-1 $162 $163 $164 $165 forward $64 $-1 #
face $-1 $166 $167 $38 $-1 $168 reversed single #
loop $-1 $-1 $169 $66 #
plane-surface $-1 0 21.989159627671825 -4.4812709113051081 0 0 1 1 0 0 forward_v I I I I #
coedge $-1 $170 $171 $172 $173 reversed $67 $-1 #
face $-1 $174 $175 $39 $-1 $176 reversed single #
loop $-1 $-1 $177 $69 #
plane-surface $-1 -17.030612632528943 -10.022542525705116 85.214257447970297 0.75470958851134928 0 0.65605901945558964 0.65605901945558964 0 -0.75470958851134928 forward_v I I I I #
coedge $-1 $178 $179 $180 $181 reversed $70 $-1 #
face $-1 $-1 $182 $40 $-1 $183 forward single #
loop $-1 $184 $185 $72 #
cone-surface $-1 50.090339355273741 -11.316300110574144 5.7145765118657454 -0.75470958851134928 0 -0.65605901945558964 0.16401475486389741 0 -0.18867739712783732 1 I I -0.70710678118654746 0.70710678118654746 0.25 forward I I I I #
loop $-1 $-1 $186 $52 #
coedge $-1 $116 $116 $187 $188 reversed $73 $-1 #
face $-1 $-1 $189 $41 $-1 $190 forward single #
loop $-1 $191 $192 $75 #
cone-surface $-1 50.090339355273741 -8.7287849408360891 5.7145765118657454 -0.75470958851134928 0 -0.65605901945558964 0.16401475486389741 0 -0.18867739712783732 1 I I -0.70710678118654746 0.70710678118654746 0.25 forward I I I I #
loop $-1 $-1 $193 $53 #
coedge $-1 $121 $121 $194 $195 reversed $76 $-1 #
face $-1 $196 $197 $42 $-1 $198 reversed single #
loop $-1 $-1 $199 $78 #
plane-surface $-1 -17.030612632528943 0.019818923717949133 85.214257447970297 0.75470958851134928 0 0.65605901945558964 0.65605901945558964 0 -0.75470958851134928 forward_v I I I I #
coedge $-1 $200 $201 $202 $203 reversed $79 $-1 #
face $-1 $-1 $204 $43 $-1 $205 forward single #
loop $-1 $206 $207 $81 #
cone-surface $-1 50.090339355273741 -1.2739386611510781 5.7145765118657454 -0.75470958851134928 0 -0.65605901945558964 0.16401475486389741 0 -0.18867739712783732 1 I I -0.70710678118654746 0.70710678118654746 0.25 forward I I I I #
loop $-1 $-1 $208 $55 #
coedge $-1 $130 $130 $209 $210 reversed $82 $-1 #
face $-1 $-1 $211 $44 $-1 $212 forward single #
loop $-1 $213 $214 $84 #
cone-surface $-1 50.090339355273741 1.3135765085869764 5.7145765118657454 -0.75470958851134928 0 -0.65605901945558964 0.16401475486389741 0 -0.18867739712783732 1 I I -0.70710678118654746 0.70710678118654746 0.25 forward I I I I #
loop $-1 $-1 $215 $56 #
coedge $-1 $135 $135 $216 $217 reversed $85 $-1 #
face $-1 $218 $219 $45 $-1 $220 reversed single #
loop $-1 $-1 $221 $87 #
plane-surface $-1 -17.030612632528943 10.062180373141011 85.214257447970297 0.75470958851134928 0 0.65605901945558964 0.65605901945558964 0 -0.75470958851134928 forward_v I I I I #
coedge $-1 $222 $223 $224 $225 reversed $88 $-1 #
face $-1 $-1 $226 $46 $-1 $227 forward single #
loop $-1 $228 $229 $90 #
cone-surface $-1 50.090339355273741 8.7684227882719838 5.7145765118657454 -0.75470958851134928 0 -0.65605901945558964 0.16401475486389741 0 -0.18867739712783732 1 I I -0.70710678118654746 0.70710678118654746 0.25 forward I I I I #
loop $-1 $-1 $230 $58 #
coedge $-1 $144 $144 $231 $232 reversed $91 $-1 #
face $-1 $-1 $233 $47 $-1 $234 forward single #
loop $-1 $235 $236 $93 #
cone-surface $-1 50.090339355273741 11.355937958010038 5.7145765118657454 -0.75470958851134928 0 -0.65605901945558964 0.16401475486389741 0 -0.18867739712783732 1 I I -0.70710678118654746 0.70710678118654746 0.25 forward I I I I #
loop $-1 $-1 $237 $59 #
coedge $-1 $149 $149 $238 $239 reversed $94 $-1 #
face $-1 $240 $241 $36 $-1 $242 reversed single #
loop $-1 $-1 $243 $96 #
plane-surface $-1 0 -28.895769913011463 0 0 1 0 0 0 1 forward_v I I I I #
coedge $-1 $244 $245 $246 $247 forward $97 $-1 #
coedge $-1 $248 $99 $249 $250 forward $61 $-1 #
coedge $-1 $99 $248 $251 $252 forward $61 $-1 #
coedge $-1 $253 $254 $99 $157 reversed $255 $-1 #
edge $-1 $256 -28.895769913011463 $257 28.895769913011463 $156 $258 forward 7 unknown #
face $-1 $259 $260 $37 $-1 $261 forward single #
loop $-1 $-1 $262 $100 #
plane-surface $-1 54.564653462324898 0 0 -1 0 0 0 0 1 forward_v I I I I #
coedge $-1 $263 $264 $265 $266 forward $101 $-1 #
coedge $-1 $265 $103 $262 $267 reversed $64 $-1 #
coedge $-1 $103 $265 $268 $269 reversed $64 $-1 #
coedge $-1 $270 $271 $103 $165 reversed $260 $-1 #
edge $-1 $272 -54.564653462324898 $273 54.564653462324898 $164 $274 forward 7 unknown #
face $-1 $275 $276 $38 $-1 $277 reversed single #
loop $-1 $-1 $278 $104 #
plane-surface $-1 0 15.082549342332186 -1.5258766715150678 0 1 0 0 0 1 forward_v I I I I #
coedge $-1 $279 $280 $281 $282 reversed $105 $-1 #
coedge $-1 $283 $107 $284 $285 reversed $67 $-1 #
coedge $-1 $107 $283 $286 $287 forward $67 $-1 #
coedge $-1 $288 $289 $107 $173 forward $276 $-1 #
edge $-1 $290 -17.901190099175551 $291 -4.0879695284962736 $172 $292 forward 7 unknown #
face $-1 $293 $294 $39 $-1 $295 forward single #
loop $-1 $-1 $296 $108 #
plane-surface $-1 65.330321691102242 -13.041310223732847 156.80952354282414 0 1 0 0.75470958851134928 0 0.65605901945558964 forward_v I I I I #
coedge $-1 $297 $298 $299 $300 reversed $109 $-1 #
coedge $-1 $179 $111 $301 $302 reversed $70 $-1 #
coedge $-1 $111 $178 $297 $303 reversed $70 $-1 #
coedge $-1 $299 $304 $111 $181 forward $294 $-1 #
edge $-1 $305 -21.899492616773777 $306 -15.214474934441618 $180 $307 forward 7 unknown #
loop $-1 $-1 $187 $112 #
plane-surface $-1 -17.030612632528943 -10.022542525705116 85.214257447970297 0.75470958851134928 0 0.65605901945558964 0.65605901945558964 0 -0.75470958851134928 forward_v I I I I #
loop $-1 $-1 $308 $72 #
coedge $-1 $185 $185 $186 $309 reversed $113 $-1 #
coedge $-1 $186 $186 $185 $309 forward $115 $-1 #
coedge $-1 $187 $187 $116 $188 forward $182 $-1 #
edge $-1 $310 0 $310 6.2831853071796004 $187 $311 forward 7 unknown #
loop $-1 $-1 $194 $117 #
plane-surface $-1 -17.030612632528943 -10.022542525705116 85.214257447970297 0.75470958851134928 0 0.65605901945558964 0.65605901945558964 0 -0.75470958851134928 forward_v I I I I #
loop $-1 $-1 $312 $75 #
coedge $-1 $192 $192 $193 $313 reversed $118 $-1 #
coedge $-1 $193 $193 $192 $313 forward $120 $-1 #
coedge $-1 $194 $194 $121 $195 forward $189 $-1 #
edge $-1 $314 0 $314 6.2831853071796004 $194 $315 forward 7 unknown #
face $-1 $316 $317 $42 $-1 $318 reversed single #
loop $-1 $-1 $319 $122 #
plane-surface $-1 65.330321691102242 -2.9989487743097811 156.80952354282414 0 1 0 0.75470958851134928 0 0.65605901945558964 forward_v I I I I #
coedge $-1 $320 $321 $322 $323 reversed $123 $-1 #
coedge $-1 $201 $125 $324 $325 reversed $79 $-1 #
coedge $-1 $125 $200 $320 $326 reversed $79 $-1 #
coedge $-1 $322 $327 $125 $203 forward $328 $-1 #
edge $-1 $329 -21.899492616773777 $330 -15.214474934441618 $202 $331 forward 7 unknown #
loop $-1 $-1 $209 $126 #
plane-surface $-1 -17.030612632528943 0.019818923717949133 85.214257447970297 0.75470958851134928 0 0.65605901945558964 0.65605901945558964 0 -0.75470958851134928 forward_v I I I I #
loop $-1 $-1 $332 $81 #
coedge $-1 $207 $207 $208 $333 reversed $127 $-1 #
coedge $-1 $208 $208 $207 $333 forward $129 $-1 #
coedge $-1 $209 $209 $130 $210 forward $204 $-1 #
edge $-1 $334 0 $334 6.2831853071796004 $209 $335 forward 7 unknown #
loop $-1 $-1 $216 $131 #
plane-surface $-1 -17.030612632528943 0.019818923717949133 85.214257447970297 0.75470958851134928 0 0.65605901945558964 0.65605901945558964 0 -0.75470958851134928 forward_v I I I I #
loop $-1 $-1 $336 $84 #
coedge $-1 $214 $214 $215 $337 reversed $132 $-1 #
coedge $-1 $215 $215 $214 $337 forward $134 $-1 #
coedge $-1 $216 $216 $135 $217 forward $211 $-1 #
edge $-1 $338 0 $338 6.2831853071796004 $216 $339 forward 7 unknown #
face $-1 $340 $341 $45 $-1 $342 reversed single #
loop $-1 $-1 $343 $136 #
plane-surface $-1 65.330321691102242 7.0434126751132808 156.80952354282414 0 1 0 0.75470958851134928 0 0.65605901945558964 forward_v I I I I #
coedge $-1 $344 $345 $346 $347 reversed $137 $-1 #
coedge $-1 $223 $139 $348 $349 reversed $88 $-1 #
coedge $-1 $139 $222 $344 $350 reversed $88 $-1 #
coedge $-1 $346 $351 $139 $225 forward $352 $-1 #
edge $-1 $353 -21.899492616773777 $354 -15.214474934441618 $224 $355 forward 7 unknown #
loop $-1 $-1 $231 $140 #
plane-surface $-1 -17.030612632528943 10.062180373141011 85.214257447970297 0.75470958851134928 0 0.65605901945558964 0.65605901945558964 0 -0.75470958851134928 forward_v I I I I #
loop $-1 $-1 $356 $90 #
coedge $-1 $229 $229 $230 $357 reversed $141 $-1 #
coedge $-1 $230 $230 $229 $357 forward $143 $-1 #
coedge $-1 $231 $231 $144 $232 forward $226 $-1 #
edge $-1 $358 0 $358 6.2831853071796004 $231 $359 forward 7 unknown #
loop $-1 $-1 $238 $145 #
plane-surface $-1 -17.030612632528943 10.062180373141011 85.214257447970297 0.75470958851134928 0 0.65605901945558964 0.65605901945558964 0 -0.75470958851134928 forward_v I I I I #
loop $-1 $-1 $360 $93 #
coedge $-1 $236 $236 $237 $361 reversed $146 $-1 #
coedge $-1 $237 $237 $236 $361 forward $148 $-1 #
coedge $-1 $238 $238 $149 $239 forward $233 $-1 #
edge $-1 $362 0 $362 6.2831853071796004 $238 $363 forward 7 unknown #
face $-1 $364 $365 $36 $-1 $366 reversed single #
loop $-1 $-1 $367 $150 #
plane-surface $-1 -54.564653462324898 0 0 1 0 0 0 0 -1 forward_v I I I I #
coedge $-1 $368 $251 $369 $370 forward $151 $-1 #
coedge $-1 $371 $153 $368 $372 forward $97 $-1 #
coedge $-1 $153 $371 $373 $374 forward $97 $-1 #
coedge $-1 $254 $253 $153 $247 reversed $255 $-1 #
edge $-1 $375 -28.895769913011463 $376 28.895769913011463 $246 $377 forward 7 unknown #
coedge $-1 $155 $154 $378 $379 forward $61 $-1 #
coedge $-1 $380 $381 $154 $250 reversed $365 $-1 #
edge $-1 $257 -54.564653462324898 $382 54.564653462324898 $249 $383 forward 7 unknown #
coedge $-1 $243 $384 $155 $252 reversed $151 $-1 #
edge $-1 $385 -54.564653462324898 $256 54.564653462324898 $251 $386 forward 7 unknown #
coedge $-1 $246 $156 $384 $387 forward $255 $-1 #
coedge $-1 $156 $246 $380 $388 reversed $255 $-1 #
loop $-1 $-1 $253 $364 #
vertex $-1 $157 $389 #
vertex $-1 $157 $390 #
straight-curve $-1 54.564653462324898 0 10.543556464032603 0 1 0 I I #
face $-1 $391 $392 $37 $-1 $393 reversed single #
loop $-1 $-1 $271 $158 #
plane-surface $-1 0 -35.821387366548691 -4.5590174689474026 0 0 1 1 0 0 forward_v I I I I #
coedge $-1 $394 $395 $162 $267 forward $159 $-1 #
coedge $-1 $396 $161 $395 $397 forward $101 $-1 #
coedge $-1 $161 $396 $398 $399 forward $101 $-1 #
coedge $-1 $163 $162 $161 $266 reversed $64 $-1 #
edge $-1 $400 -54.564653462324898 $401 54.564653462324898 $161 $402 forward 7 unknown #
edge $-1 $401 -10.543556464032603 $273 -4.5590174689474026 $262 $403 forward 7 unknown #
coedge $-1 $398 $404 $163 $269 forward $405 $-1 #
edge $-1 $272 4.5590174689474026 $400 10.543556464032603 $268 $406 forward 7 unknown #
coedge $-1 $407 $164 $404 $408 forward $260 $-1 #
coedge $-1 $164 $407 $394 $409 forward $260 $-1 #
vertex $-1 $269 $410 #
vertex $-1 $409 $411 #
straight-curve $-1 0 -28.895769913011463 -4.5590174689474026 1 0 0 I I #
face $-1 $412 $413 $38 $-1 $414 reversed single #
loop $-1 $-1 $172 $166 #
plane-surface $-1 54.564653462324898 0 0 -1 0 0 0 0 1 forward_v I I I I #
coedge $-1 $415 $286 $416 $417 reversed $167 $-1 #
coedge $-1 $418 $169 $415 $419 forward $105 $-1 #
coedge $-1 $169 $418 $420 $421 reversed $105 $-1 #
coedge $-1 $289 $288 $169 $282 forward $276 $-1 #
edge $-1 $422 4.0879695284962736 $423 17.901190099175551 $281 $424 forward 7 unknown #
coedge $-1 $171 $170 $425 $426 reversed $67 $-1 #
coedge $-1 $427 $428 $170 $285 forward $429 $-1 #
edge $-1 $430 -54.564653462324898 $290 54.564653462324898 $284 $431 forward 7 unknown #
coedge $-1 $278 $432 $171 $287 reversed $167 $-1 #
edge $-1 $433 -54.564653462324898 $291 54.564653462324898 $286 $434 forward 7 unknown #
coedge $-1 $281 $172 $432 $435 forward $276 $-1 #
coedge $-1 $172 $281 $427 $436 reversed $276 $-1 #
vertex $-1 $436 $437 #
vertex $-1 $173 $438 #
straight-curve $-1 54.564653462324898 10.994579813835912 1.4295175682749726 0 -1 0 I I #
face $-1 $-1 $439 $39 $-1 $440 reversed single #
loop $-1 $-1 $180 $174 #
plane-surface $-1 0 0 10.543556464032603 0 0 1 1 0 0 forward_v I I I I #
coedge $-1 $441 $442 $443 $444 reversed $175 $-1 #
coedge $-1 $445 $177 $179 $303 forward $109 $-1 #
coedge $-1 $177 $445 $441 $446 forward $109 $-1 #
coedge $-1 $443 $180 $177 $300 forward $294 $-1 #
edge $-1 $306 1.9925035648248279 $447 8.0300389608802885 $299 $448 forward 7 unknown #
coedge $-1 $449 $450 $178 $302 forward $439 $-1 #
edge $-1 $451 -75.551438647072956 $305 -67.861205307379464 $301 $452 forward 7 unknown #
edge $-1 $306 98.939647939579373 $451 109.12930692464982 $179 $453 forward 7 unknown #
coedge $-1 $180 $443 $449 $454 forward $294 $-1 #
vertex $-1 $302 $455 #
vertex $-1 $181 $456 #
straight-curve $-1 32.665160845551121 -7.0037748276773861 10.543556464032605 -1 0 0 I I #
coedge $-1 $308 $308 $-1 $457 reversed $184 $-1 #
edge $-1 $458 0 $458 6.2831853071796004 $185 $459 forward 7 unknown #
vertex $-1 $188 $460 #
ellipse-curve $-1 51.222144621158819 -11.316300110574144 6.6984397941858589 0.75470958851134928 0 0.65605901945558964 0.32802950972779482 0 -0.37735479425567464 1 I I #
coedge $-1 $312 $312 $-1 $461 reversed $191 $-1 #
edge $-1 $462 0 $462 6.2831853071796004 $192 $463 forward 7 unknown #
vertex $-1 $195 $464 #
ellipse-curve $-1 51.222144621158819 -8.7287849408360891 6.6984397941858589 0.75470958851134928 0 0.65605901945558964 0.32802950972779482 0 -0.37735479425567464 1 I I #
face $-1 $-1 $328 $42 $-1 $465 forward single #
loop $-1 $-1 $466 $196 #
plane-surface $-1 54.564653462324898 0 0 -1 0 0 0 0 1 forward_v I I I I #
coedge $-1 $467 $468 $469 $470 reversed $197 $-1 #
coedge $-1 $471 $199 $201 $326 forward $123 $-1 #
coedge $-1 $199 $471 $467 $472 forward $123 $-1 #
coedge $-1 $469 $202 $199 $323 forward $328 $-1 #
edge $-1 $330 -3.0286771598867048 $473 3.0088582361687557 $322 $474 forward 7 unknown #
coedge $-1 $475 $476 $200 $325 forward $317 $-1 #
edge $-1 $477 -75.551438647072956 $329 -67.861205307379464 $324 $478 forward 7 unknown #
edge $-1 $330 98.939647939579373 $477 109.12930692464982 $201 $479 forward 7 unknown #
coedge $-1 $202 $469 $475 $480 forward $328 $-1 #
loop $-1 $-1 $469 $316 #
vertex $-1 $325 $481 #
vertex $-1 $203 $482 #
straight-curve $-1 32.665160845551121 3.0385866217456794 10.543556464032605 -1 0 0 I I #
coedge $-1 $332 $332 $-1 $483 reversed $206 $-1 #
edge $-1 $484 0 $484 6.2831853071796004 $207 $485 forward 7 unknown #
vertex $-1 $210 $486 #
ellipse-curve $-1 51.222144621158819 -1.2739386611510781 6.6984397941858589 0.75470958851134928 0 0.65605901945558964 0.32802950972779482 0 -0.37735479425567464 1 I I #
coedge $-1 $336 $336 $-1 $487 reversed $213 $-1 #
edge $-1 $488 0 $488 6.2831853071796004 $214 $489 forward 7 unknown #
vertex $-1 $217 $490 #
ellipse-curve $-1 51.222144621158819 1.3135765085869764 6.6984397941858589 0.75470958851134928 0 0.65605901945558964 0.32802950972779482 0 -0.37735479425567464 1 I I #
face $-1 $-1 $352 $45 $-1 $491 forward single #
loop $-1 $-1 $492 $218 #
plane-surface $-1 54.564653462324898 0 0 -1 0 0 0 0 1 forward_v I I I I #
coedge $-1 $493 $494 $495 $496 reversed $219 $-1 #
coedge $-1 $497 $221 $223 $350 forward $137 $-1 #
coedge $-1 $221 $497 $493 $498 forward $137 $-1 #
coedge $-1 $495 $224 $221 $347 forward $352 $-1 #
edge $-1 $354 -8.0498578845982358 $499 -2.0123224885427753 $346 $500 forward 7 unknown #
coedge $-1 $501 $502 $222 $349 forward $341 $-1 #
edge $-1 $503 -75.551438647072956 $353 -67.861205307379464 $348 $504 forward 7 unknown #
edge $-1 $354 98.939647939579373 $503 109.12930692464982 $223 $505 forward 7 unknown #
coedge $-1 $224 $495 $501 $506 forward $352 $-1 #
loop $-1 $-1 $495 $340 #
vertex $-1 $349 $507 #
vertex $-1 $225 $508 #
straight-curve $-1 32.665160845551121 13.080948071168741 10.543556464032605 -1 0 0 I I #
coedge $-1 $356 $356 $-1 $509 reversed $228 $-1 #
edge $-1 $510 0 $510 6.2831853071796004 $229 $511 forward 7 unknown #
vertex $-1 $232 $512 #
ellipse-curve $-1 51.222144621158819 8.7684227882719838 6.6984397941858589 0.75470958851134928 0 0.65605901945558964 0.32802950972779482 0 -0.37735479425567464 1 I I #
coedge $-1 $360 $360 $-1 $513 reversed $235 $-1 #
edge $-1 $514 0 $514 6.2831853071796004 $236 $515 forward 7 unknown #
vertex $-1 $239 $516 #
ellipse-curve $-1 51.222144621158819 11.355937958010038 6.6984397941858589 0.75470958851134928 0 0.65605901945558964 0.32802950972779482 0 -0.37735479425567464 1 I I #
face $-1 $-1 $255 $36 $-1 $517 reversed single #
loop $-1 $-1 $380 $240 #
plane-surface $-1 0 28.895769913011463 0 0 -1 0 0 0 -1 forward_v I I I I #
coedge $-1 $518 $378 $381 $519 forward $241 $-1 #
coedge $-1 $384 $243 $244 $372 reversed $151 $-1 #
coedge $-1 $378 $518 $243 $370 reversed $241 $-1 #
edge $-1 $385 -10.543556464032603 $520 10.543556464032603 $369 $521 forward 7 unknown #
coedge $-1 $245 $244 $518 $522 forward $97 $-1 #
edge $-1 $376 -54.564653462324898 $520 54.564653462324898 $368 $523 forward 7 unknown #
coedge $-1 $381 $380 $245 $374 reversed $365 $-1 #
edge $-1 $524 -54.564653462324898 $375 54.564653462324898 $373 $525 forward 7 unknown #
vertex $-1 $247 $526 #
vertex $-1 $387 $527 #
straight-curve $-1 54.564653462324898 0 -10.543556464032603 0 -1 0 I I #
coedge $-1 $367 $369 $248 $379 reversed $241 $-1 #
edge $-1 $382 -28.895769913011463 $385 28.895769913011463 $378 $528 forward 7 unknown #
coedge $-1 $373 $249 $254 $388 forward $365 $-1 #
coedge $-1 $249 $373 $367 $519 reversed $365 $-1 #
vertex $-1 $250 $529 #
straight-curve $-1 0 28.895769913011463 10.543556464032603 -1 0 0 I I #
coedge $-1 $251 $368 $253 $387 reversed $151 $-1 #
vertex $-1 $379 $530 #
straight-curve $-1 0 -28.895769913011463 10.543556464032603 1 0 0 I I #
edge $-1 $256 -10.543556464032603 $376 10.543556464032603 $253 $531 forward 7 unknown #
edge $-1 $257 -10.543556464032603 $375 10.543556464032603 $254 $532 forward 7 unknown #
point $-1 54.564653462324898 -28.895769913011463 10.543556464032603 #
point $-1 54.564653462324898 28.895769913011463 10.543556464032603 #
face $-1 $-1 $405 $37 $-1 $533 reversed single #
loop $-1 $-1 $534 $259 #
plane-surface $-1 0 -42.74700482008592 -7.5512869664900029 0 1 0 0 0 1 forward_v I I I I #
coedge $-1 $535 $262 $271 $409 reversed $159 $-1 #
coedge $-1 $262 $535 $263 $397 reversed $159 $-1 #
coedge $-1 $264 $263 $536 $537 forward $101 $-1 #
edge $-1 $401 28.895769913011463 $538 42.74700482008592 $395 $539 forward 7 unknown #
coedge $-1 $540 $268 $264 $399 reversed $405 $-1 #
edge $-1 $541 -42.74700482008592 $400 -28.895769913011463 $398 $542 forward 7 unknown #
vertex $-1 $269 $543 #
vertex $-1 $397 $544 #
straight-curve $-1 0 -28.895769913011463 -10.543556464032603 1 0 0 I I #
straight-curve $-1 54.564653462324898 -28.895769913011463 0 0 0 1 I I #
coedge $-1 $268 $540 $270 $408 reversed $405 $-1 #
loop $-1 $-1 $268 $391 #
straight-curve $-1 -54.564653462324898 -28.895769913011463 0 0 0 -1 I I #
coedge $-1 $271 $270 $545 $546 forward $260 $-1 #
edge $-1 $272 -6.9256174535372281 $547 6.9256174535372281 $404 $548 forward 7 unknown #
edge $-1 $549 -6.9256174535372281 $273 6.9256174535372281 $394 $550 forward 7 unknown #
point $-1 -54.564653462324898 -28.895769913011463 -4.5590174689474026 #
point $-1 54.564653462324898 -28.895769913011463 -4.5590174689474026 #
face $-1 $-1 $429 $38 $-1 $551 reversed single #
loop $-1 $-1 $425 $275 #
plane-surface $-1 -54.564653462324898 0 0 1 0 0 0 0 -1 forward_v I I I I #
coedge $-1 $432 $278 $279 $419 reversed $167 $-1 #
coedge $-1 $425 $552 $278 $417 forward $413 $-1 #
edge $-1 $553 -3.7183325755475742 $433 2.1924559040325065 $416 $554 forward 7 unknown #
coedge $-1 $280 $279 $552 $555 reversed $105 $-1 #
edge $-1 $422 -54.564653462324898 $553 54.564653462324898 $415 $556 forward 7 unknown #
coedge $-1 $428 $427 $280 $421 forward $429 $-1 #
edge $-1 $423 -54.564653462324898 $557 54.564653462324898 $420 $558 forward 7 unknown #
vertex $-1 $282 $559 #
vertex $-1 $421 $560 #
straight-curve $-1 54.564653462324898 10.994579813835912 -4.4812709113051081 0 1 0 I I #
coedge $-1 $561 $416 $283 $426 forward $413 $-1 #
edge $-1 $433 4.0879695284962736 $430 17.901190099175551 $425 $562 forward 7 unknown #
coedge $-1 $420 $284 $289 $436 forward $429 $-1 #
coedge $-1 $284 $420 $561 $563 reversed $429 $-1 #
loop $-1 $-1 $284 $412 #
vertex $-1 $563 $564 #
straight-curve $-1 0 28.895769913011463 1.4295175682749726 1 0 0 I I #
coedge $-1 $286 $415 $288 $435 reversed $167 $-1 #
vertex $-1 $426 $565 #
straight-curve $-1 0 15.082549342332186 1.4295175682749726 1 0 0 I I #
edge $-1 $291 -2.1924559040325065 $422 3.7183325755475742 $288 $566 forward 7 unknown #
edge $-1 $290 -1.4295175682749726 $423 4.4812709113051081 $289 $567 forward 7 unknown #
point $-1 54.564653462324898 28.895769913011463 1.4295175682749726 #
point $-1 54.564653462324898 15.082549342332186 1.4295175682749726 #
loop $-1 $-1 $301 $293 #
plane-surface $-1 54.564653462324898 0 0 -1 0 0 0 0 1 forward_v I I I I #
coedge $-1 $442 $296 $298 $446 reversed $175 $-1 #
coedge $-1 $296 $441 $568 $569 reversed $175 $-1 #
coedge $-1 $304 $299 $296 $444 forward $294 $-1 #
edge $-1 $447 15.214474934441618 $570 21.899492616773777 $443 $571 forward 7 unknown #
coedge $-1 $298 $297 $450 $572 reversed $109 $-1 #
edge $-1 $573 -109.12930692464982 $447 -98.939647939579373 $441 $574 forward 7 unknown #
vertex $-1 $300 $575 #
straight-curve $-1 47.879635779992725 -5.0112712628525582 10.543556464032598 0 -1 0 I I #
coedge $-1 $568 $301 $304 $454 reversed $439 $-1 #
coedge $-1 $301 $568 $445 $572 forward $439 $-1 #
vertex $-1 $302 $576 #
straight-curve $-1 54.564653462324898 -7.0037748276773861 78.404761771412069 0 0 1 I I #
straight-curve $-1 -17.030612632528943 -7.0037748276773861 85.214257447970297 0.65605901945558964 0 -0.75470958851134928 I I #
edge $-1 $570 -13.041310223732847 $305 -7.0037748276773861 $449 $577 forward 7 unknown #
point $-1 54.564653462324898 -7.0037748276773861 10.543556464032603 #
point $-1 47.879635779992739 -7.0037748276773861 10.543556464032605 #
edge $-1 $578 1 $578 0 $308 $-1 forward 7 unknown #
vertex $-1 $309 $579 #
ellipse-curve $-1 50.279016752401581 -11.316300110574144 5.8785912667296429 0.75470958851134928 0 0.65605901945558964 0.32802950972779482 0 -0.37735479425567464 1 I I #
point $-1 51.55017413088661 -11.316300110574144 6.3210849999301821 #
edge $-1 $580 1 $580 0 $312 $-1 forward 7 unknown #
vertex $-1 $313 $581 #
ellipse-curve $-1 50.279016752401581 -8.7287849408360891 5.8785912667296429 0.75470958851134928 0 0.65605901945558964 0.32802950972779482 0 -0.37735479425567464 1 I I #
point $-1 51.55017413088661 -8.7287849408360891 6.3210849999301821 #
plane-surface $-1 0 0 10.543556464032603 0 0 1 1 0 0 forward_v I I I I #
coedge $-1 $476 $475 $468 $582 forward $317 $-1 #
coedge $-1 $468 $319 $321 $472 reversed $197 $-1 #
coedge $-1 $319 $467 $466 $582 reversed $197 $-1 #
coedge $-1 $327 $322 $319 $470 forward $328 $-1 #
edge $-1 $473 15.214474934441618 $583 21.899492616773777 $469 $584 forward 7 unknown #
coedge $-1 $321 $320 $476 $585 reversed $123 $-1 #
edge $-1 $586 -109.12930692464982 $473 -98.939647939579373 $467 $587 forward 7 unknown #
vertex $-1 $323 $588 #
straight-curve $-1 47.879635779992725 0.0099094618589745664 10.543556464032598 0 -1 0 I I #
coedge $-1 $466 $324 $327 $480 reversed $317 $-1 #
coedge $-1 $324 $466 $471 $585 forward $317 $-1 #
vertex $-1 $325 $589 #
straight-curve $-1 54.564653462324898 3.0385866217456794 78.404761771412069 0 0 1 I I #
straight-curve $-1 -17.030612632528943 3.0385866217456794 85.214257447970297 0.65605901945558964 0 -0.75470958851134928 I I #
edge $-1 $583 -2.9989487743097811 $329 3.0385866217456794 $475 $590 forward 7 unknown #
point $-1 54.564653462324898 3.0385866217456794 10.543556464032603 #
point $-1 47.879635779992739 3.0385866217456794 10.543556464032605 #
edge $-1 $591 1 $591 0 $332 $-1 forward 7 unknown #
vertex $-1 $333 $592 #
ellipse-curve $-1 50.279016752401581 -1.2739386611510781 5.8785912667296429 0.75470958851134928 0 0.65605901945558964 0.32802950972779482 0 -0.37735479425567464 1 I I #
point $-1 51.55017413088661 -1.2739386611510781 6.3210849999301821 #
edge $-1 $593 1 $593 0 $336 $-1 forward 7 unknown #
vertex $-1 $337 $594 #
ellipse-curve $-1 50.279016752401581 1.3135765085869764 5.8785912667296429 0.75470958851134928 0 0.65605901945558964 0.32802950972779482 0 -0.37735479425567464 1 I I #
point $-1 51.55017413088661 1.3135765085869764 6.3210849999301821 #
plane-surface $-1 0 0 10.543556464032603 0 0 1 1 0 0 forward_v I I I I #
coedge $-1 $502 $501 $494 $595 forward $341 $-1 #
coedge $-1 $494 $343 $345 $498 reversed $219 $-1 #
coedge $-1 $343 $493 $492 $595 reversed $219 $-1 #
coedge $-1 $351 $346 $343 $496 forward $352 $-1 #
edge $-1 $499 15.214474934441618 $596 21.899492616773777 $495 $597 forward 7 unknown #
coedge $-1 $345 $344 $502 $598 reversed $137 $-1 #
edge $-1 $599 -109.12930692464982 $499 -98.939647939579373 $493 $600 forward 7 unknown #
vertex $-1 $347 $601 #
straight-curve $-1 47.879635779992725 5.0310901865705056 10.543556464032598 0 -1 0 I I #
coedge $-1 $492 $348 $351 $506 reversed $341 $-1 #
coedge $-1 $348 $492 $497 $598 forward $341 $-1 #
vertex $-1 $349 $602 #
straight-curve $-1 54.564653462324898 13.080948071168741 78.404761771412069 0 0 1 I I #
straight-curve $-1 -17.030612632528943 13.080948071168741 85.214257447970297 0.65605901945558964 0 -0.75470958851134928 I I #
edge $-1 $596 7.0434126751132808 $353 13.080948071168741 $501 $603 forward 7 unknown #
point $-1 54.564653462324898 13.080948071168741 10.543556464032603 #
point $-1 47.879635779992739 13.080948071168741 10.543556464032605 #
edge $-1 $604 1 $604 0 $356 $-1 forward 7 unknown #
vertex $-1 $357 $605 #
ellipse-curve $-1 50.279016752401581 8.7684227882719838 5.8785912667296429 0.75470958851134928 0 0.65605901945558964 0.32802950972779482 0 -0.37735479425567464 1 I I #
point $-1 51.55017413088661 8.7684227882719838 6.3210849999301821 #
edge $-1 $606 1 $606 0 $360 $-1 forward 7 unknown #
vertex $-1 $361 $607 #
ellipse-curve $-1 50.279016752401581 11.355937958010038 5.8785912667296429 0.75470958851134928 0 0.65605901945558964 0.32802950972779482 0 -0.37735479425567464 1 I I #
point $-1 51.55017413088661 11.355937958010038 6.3210849999301821 #
plane-surface $-1 54.564653462324898 0 0 -1 0 0 0 0 1 forward_v I I I I #
coedge $-1 $369 $367 $371 $522 reversed $241 $-1 #
edge $-1 $382 -10.543556464032603 $524 10.543556464032603 $381 $608 forward 7 unknown #
vertex $-1 $522 $609 #
straight-curve $-1 -54.564653462324898 -28.895769913011463 0 0 0 -1 I I #
edge $-1 $520 -28.895769913011463 $524 28.895769913011463 $518 $610 forward 7 unknown #
straight-curve $-1 0 -28.895769913011463 -10.543556464032603 -1 0 0 I I #
vertex $-1 $374 $611 #
straight-curve $-1 0 28.895769913011463 -10.543556464032603 1 0 0 I I #
point $-1 54.564653462324898 28.895769913011463 -10.543556464032603 #
point $-1 54.564653462324898 -28.895769913011463 -10.543556464032603 #
straight-curve $-1 -54.564653462324898 0 10.543556464032603 0 -1 0 I I #
point $-1 -54.564653462324898 28.895769913011463 10.543556464032603 #
point $-1 -54.564653462324898 -28.895769913011463 10.543556464032603 #
straight-curve $-1 54.564653462324898 -28.895769913011463 0 0 0 -1 I I #
straight-curve $-1 54.564653462324898 28.895769913011463 0 0 0 -1 I I #
plane-surface $-1 -54.564653462324898 0 0 1 0 0 0 0 -1 forward_v I I I I #
coedge $-1 $536 $545 $540 $612 forward $392 $-1 #
coedge $-1 $395 $394 $613 $614 forward $159 $-1 #
coedge $-1 $613 $534 $396 $537 reversed $392 $-1 #
edge $-1 $538 -54.564653462324898 $541 54.564653462324898 $536 $615 forward 7 unknown #
vertex $-1 $614 $616 #
straight-curve $-1 54.564653462324898 0 -10.543556464032603 0 -1 0 I I #
coedge $-1 $404 $398 $534 $612 reversed $405 $-1 #
vertex $-1 $399 $617 #
straight-curve $-1 -54.564653462324898 0 -10.543556464032603 0 1 0 I I #
point $-1 -54.564653462324898 -28.895769913011463 -10.543556464032603 #
point $-1 54.564653462324898 -28.895769913011463 -10.543556464032603 #
coedge $-1 $534 $613 $407 $546 reversed $392 $-1 #
edge $-1 $547 -54.564653462324898 $549 54.564653462324898 $545 $618 forward 7 unknown #
vertex $-1 $408 $619 #
straight-curve $-1 -54.564653462324898 -35.821387366548691 -4.5590174689474026 0 -1 0 I I #
vertex $-1 $409 $620 #
straight-curve $-1 54.564653462324898 -35.821387366548691 -4.5590174689474026 0 1 0 I I #
plane-surface $-1 0 28.895769913011463 0 0 -1 0 0 0 -1 forward_v I I I I #
coedge $-1 $416 $561 $418 $555 forward $413 $-1 #
vertex $-1 $555 $621 #
straight-curve $-1 -54.564653462324898 15.082549342332186 -0.76293833575753389 0 0 1 I I #
edge $-1 $557 -17.901190099175551 $553 -4.0879695284962736 $552 $622 forward 7 unknown #
straight-curve $-1 0 15.082549342332186 -4.4812709113051081 -1 0 0 I I #
vertex $-1 $421 $623 #
straight-curve $-1 0 28.895769913011463 -4.4812709113051081 -1 0 0 I I #
point $-1 54.564653462324898 15.082549342332186 -4.4812709113051081 #
point $-1 54.564653462324898 28.895769913011463 -4.4812709113051081 #
coedge $-1 $552 $425 $428 $563 forward $413 $-1 #
straight-curve $-1 -54.564653462324898 10.994579813835912 1.4295175682749726 0 1 0 I I #
edge $-1 $430 -1.4295175682749726 $557 4.4812709113051081 $428 $624 forward 7 unknown #
point $-1 -54.564653462324898 28.895769913011463 1.4295175682749726 #
point $-1 -54.564653462324898 15.082549342332186 1.4295175682749726 #
straight-curve $-1 54.564653462324898 15.082549342332186 -0.76293833575753389 0 0 -1 I I #
straight-curve $-1 54.564653462324898 28.895769913011463 0 0 0 -1 I I #
coedge $-1 $450 $449 $442 $569 forward $439 $-1 #
edge $-1 $570 67.861205307379464 $573 75.551438647072956 $568 $625 forward 7 unknown #
vertex $-1 $454 $626 #
straight-curve $-1 32.665160845551121 -13.041310223732847 10.543556464032605 1 0 0 I I #
edge $-1 $573 -8.0300389608802885 $451 -1.9925035648248279 $450 $627 forward 7 unknown #
vertex $-1 $572 $628 #
straight-curve $-1 -17.030612632528943 -13.041310223732847 85.214257447970297 -0.65605901945558964 0 0.75470958851134928 I I #
point $-1 47.879635779992739 -13.041310223732847 10.543556464032605 #
point $-1 54.564653462324898 -7.0037748276773861 2.8533231243391128 #
straight-curve $-1 54.564653462324898 0 10.543556464032603 0 1 0 I I #
vertex $-1 $457 $629 #
point $-1 50.607046262129373 -11.316300110574144 5.501236472473968 #
vertex $-1 $461 $630 #
point $-1 50.607046262129373 -8.7287849408360891 5.501236472473968 #
edge $-1 $583 67.861205307379464 $586 75.551438647072956 $466 $631 forward 7 unknown #
vertex $-1 $480 $632 #
straight-curve $-1 32.665160845551121 -2.9989487743097811 10.543556464032605 1 0 0 I I #
edge $-1 $586 -3.0088582361687557 $477 3.0286771598867048 $476 $633 forward 7 unknown #
vertex $-1 $585 $634 #
straight-curve $-1 -17.030612632528943 -2.9989487743097811 85.214257447970297 -0.65605901945558964 0 0.75470958851134928 I I #
point $-1 47.879635779992739 -2.9989487743097811 10.543556464032605 #
point $-1 54.564653462324898 3.0385866217456794 2.8533231243391128 #
straight-curve $-1 54.564653462324898 0 10.543556464032603 0 1 0 I I #
vertex $-1 $483 $635 #
point $-1 50.607046262129373 -1.2739386611510781 5.501236472473968 #
vertex $-1 $487 $636 #
point $-1 50.607046262129373 1.3135765085869764 5.501236472473968 #
edge $-1 $596 67.861205307379464 $599 75.551438647072956 $492 $637 forward 7 unknown #
vertex $-1 $506 $638 #
straight-curve $-1 32.665160845551121 7.0434126751132808 10.543556464032605 1 0 0 I I #
edge $-1 $599 2.0123224885427753 $503 8.0498578845982358 $502 $639 forward 7 unknown #
vertex $-1 $598 $640 #
straight-curve $-1 -17.030612632528943 7.0434126751132808 85.214257447970297 -0.65605901945558964 0 0.75470958851134928 I I #
point $-1 47.879635779992739 7.0434126751132808 10.543556464032605 #
point $-1 54.564653462324898 13.080948071168741 2.8533231243391128 #
straight-curve $-1 54.564653462324898 0 10.543556464032603 0 1 0 I I #
vertex $-1 $509 $641 #
point $-1 50.607046262129373 8.7684227882719838 5.501236472473968 #
vertex $-1 $513 $642 #
point $-1 50.607046262129373 11.355937958010038 5.501236472473968 #
straight-curve $-1 -54.564653462324898 28.895769913011463 0 0 0 -1 I I #
point $-1 -54.564653462324898 -28.895769913011463 -10.543556464032603 #
straight-curve $-1 -54.564653462324898 0 -10.543556464032603 0 1 0 I I #
point $-1 -54.564653462324898 28.895769913011463 -10.543556464032603 #
edge $-1 $547 -2.9922694975426003 $541 2.9922694975426003 $540 $643 forward 7 unknown #
coedge $-1 $545 $536 $535 $614 reversed $392 $-1 #
edge $-1 $549 -2.9922694975426003 $538 2.9922694975426003 $535 $644 forward 7 unknown #
straight-curve $-1 0 -42.74700482008592 -10.543556464032603 -1 0 0 I I #
point $-1 54.564653462324898 -42.74700482008592 -10.543556464032603 #
point $-1 -54.564653462324898 -42.74700482008592 -10.543556464032603 #
straight-curve $-1 0 -42.74700482008592 -4.5590174689474026 1 0 0 I I #
point $-1 -54.564653462324898 -42.74700482008592 -4.5590174689474026 #
point $-1 54.564653462324898 -42.74700482008592 -4.5590174689474026 #
point $-1 -54.564653462324898 15.082549342332186 -4.4812709113051081 #
straight-curve $-1 -54.564653462324898 10.994579813835912 -4.4812709113051081 0 -1 0 I I #
point $-1 -54.564653462324898 28.895769913011463 -4.4812709113051081 #
straight-curve $-1 -54.564653462324898 28.895769913011463 0 0 0 -1 I I #
straight-curve $-1 54.564653462324898 -13.041310223732847 78.404761771412069 0 0 -1 I I #
point $-1 54.564653462324898 -13.041310223732847 10.543556464032603 #
straight-curve $-1 54.564653462324898 -5.0112712628525582 2.8533231243390986 0 1 0 I I #
point $-1 54.564653462324898 -13.041310223732847 2.8533231243391128 #
point $-1 49.901661958145901 -11.316300110574144 5.550561757001848 #
point $-1 49.901661958145901 -8.7287849408360891 5.550561757001848 #
straight-curve $-1 54.564653462324898 -2.9989487743097811 78.404761771412069 0 0 -1 I I #
point $-1 54.564653462324898 -2.9989487743097811 10.543556464032603 #
straight-curve $-1 54.564653462324898 0.0099094618589745664 2.8533231243390986 0 1 0 I I #
point $-1 54.564653462324898 -2.9989487743097811 2.8533231243391128 #
point $-1 49.901661958145901 -1.2739386611510781 5.550561757001848 #
point $-1 49.901661958145901 1.3135765085869764 5.550561757001848 #
straight-curve $-1 54.564653462324898 7.0434126751132808 78.404761771412069 0 0 -1 I I #
point $-1 54.564653462324898 7.0434126751132808 10.543556464032603 #
straight-curve $-1 54.564653462324898 5.0310901865705056 2.8533231243390986 0 1 0 I I #
point $-1 54.564653462324898 7.0434126751132808 2.8533231243391128 #
point $-1 49.901661958145901 8.7684227882719838 5.550561757001848 #
point $-1 49.901661958145901 11.355937958010038 5.550561757001848 #
straight-curve $-1 -54.564653462324898 -42.74700482008592 -7.5512869664900029 0 0 -1 I I #
straight-curve $-1 54.564653462324898 -42.74700482008592 -7.5512869664900029 0 0 -1 I I #
End-of-ACIS-data 