500 0 7 0           
7 Unknown 11 ACIS 5.0 NT 24 Thu Mar 25 17:00:37 1999 
-1 9.9999999999999995e-007 1e-010 
body $-1 $7 $-1 $8 #
body $-1 $9 $-1 $10 #
body $-1 $11 $-1 $12 #
body $-1 $13 $-1 $14 #
body $-1 $15 $-1 $16 #
body $-1 $17 $-1 $18 #
body $-1 $19 $-1 $20 #
lump $-1 $-1 $21 $0 #
transform $-1 1 0 0 0 1 0 0 0 1 62.741172521134068 40.676737165050682 19.030436508270835 1 rotate no_reflect no_shear #
lump $-1 $-1 $22 $1 #
transform $-1 1 0 0 0 1 0 0 0 1 62.741172521134068 40.676737165050682 19.030436508270835 1 rotate no_reflect no_shear #
lump $-1 $-1 $23 $2 #
transform $-1 1 0 0 0 1 0 0 0 1 62.741172521134068 40.676737165050682 19.030436508270835 1 rotate no_reflect no_shear #
lump $-1 $-1 $24 $3 #
transform $-1 1 0 0 0 1 0 0 0 1 62.741172521134068 40.676737165050682 19.030436508270835 1 rotate no_reflect no_shear #
lump $-1 $-1 $25 $4 #
transform $-1 1 0 0 0 1 0 0 0 1 62.741172521134068 40.676737165050682 19.030436508270835 1 rotate no_reflect no_shear #
lump $-1 $-1 $26 $5 #
transform $-1 1 0 0 0 1 0 0 0 1 62.741172521134068 40.676737165050682 19.030436508270835 1 rotate no_reflect no_shear #
lump $-1 $-1 $27 $6 #
transform $-1 1 0 0 0 1 0 0 0 1 62.741172521134068 40.676737165050682 19.030436508270835 1 rotate no_reflect no_shear #
shell $-1 $-1 $-1 $28 $-1 $7 #
shell $-1 $-1 $-1 $29 $-1 $9 #
shell $-1 $-1 $-1 $30 $-1 $11 #
shell $-1 $-1 $-1 $31 $-1 $13 #
shell $-1 $-1 $-1 $32 $-1 $15 #
shell $-1 $-1 $-1 $33 $-1 $17 #
shell $-1 $-1 $-1 $34 $-1 $19 #
face $-1 $35 $36 $21 $-1 $37 forward single #
face $-1 $38 $39 $22 $-1 $40 forward single #
face $-1 $41 $42 $23 $-1 $43 forward single #
face $-1 $44 $45 $24 $-1 $46 reversed single #
face $-1 $47 $48 $25 $-1 $49 forward single #
face $-1 $50 $51 $26 $-1 $52 reversed single #
face $-1 $53 $54 $27 $-1 $55 forward single #
face $-1 $56 $57 $21 $-1 $58 reversed single #
loop $-1 $-1 $59 $28 #
plane-surface $-1 0 0 19.030436508270835 0 0 1 1 0 0 forward_v I I I I #
face $-1 $60 $61 $22 $-1 $62 reversed single #
loop $-1 $-1 $63 $29 #
plane-surface $-1 0 -28.283582825064578 7.2451463715892501 0 0 1 1 0 0 forward_v I I I I #
face $-1 $64 $65 $23 $-1 $66 reversed single #
loop $-1 $-1 $67 $30 #
plane-surface $-1 0 28.283582825064585 7.2451463715892501 0 0 1 1 0 0 forward_v I I I I #
face $-1 $68 $69 $24 $-1 $70 reversed single #
loop $-1 $-1 $71 $31 #
plane-surface $-1 -146.705251156424 -2.7998191989438492 94.841535840246081 0 -1 0 0.66913061440640931 0 -0.74314481823134659 forward_v I I I I #
face $-1 $72 $73 $25 $-1 $74 forward single #
loop $-1 $75 $76 $32 #
cone-surface $-1 -52.314274256604179 -6.5452956798754727 9.4860182986620405 0.66913061440640931 0 -0.74314481823134659 1.1147172273470198 0 1.003695921609614 1 I I 0 1 1.5 forward I I I I #
face $-1 $77 $78 $26 $-1 $79 reversed single #
loop $-1 $-1 $80 $33 #
plane-surface $-1 -146.705251156424 10.290772160807096 94.841535840246081 0 -1 0 0.66913061440640931 0 -0.74314481823134659 forward_v I I I I #
face $-1 $81 $82 $27 $-1 $83 forward single #
loop $-1 $84 $85 $34 #
cone-surface $-1 -52.314274256604179 6.5452956798754727 9.4860182986620405 0.66913061440640931 0 -0.74314481823134659 1.1147172273470198 0 1.003695921609614 1 I I 0 1 1.5 forward I I I I #
face $-1 $86 $87 $21 $-1 $88 reversed single #
loop $-1 $-1 $89 $35 #
plane-surface $-1 0 0 -19.030436508270835 0 0 1 1 0 0 forward_v I I I I #
coedge $-1 $90 $91 $92 $93 forward $36 $-1 #
face $-1 $94 $95 $22 $-1 $96 reversed single #
loop $-1 $-1 $97 $38 #
plane-surface $-1 0 -28.283582825064578 -0.51373340039455684 0 0 1 1 0 0 forward_v I I I I #
coedge $-1 $98 $99 $100 $101 reversed $39 $-1 #
face $-1 $102 $103 $23 $-1 $104 reversed single #
loop $-1 $-1 $105 $41 #
plane-surface $-1 0 28.283582825064585 -0.51373340039455684 0 0 1 1 0 0 forward_v I I I I #
coedge $-1 $106 $107 $108 $109 reversed $42 $-1 #
face $-1 $110 $111 $24 $-1 $112 reversed single #
loop $-1 $-1 $113 $44 #
plane-surface $-1 -62.741172521134061 -6.5452956798754727 1.5899813425666025 -0.66913061440640931 0 0.74314481823134659 0.74314481823134659 0 0.66913061440640931 forward_v I I I I #
coedge $-1 $114 $115 $116 $117 reversed $45 $-1 #
face $-1 $-1 $118 $25 $-1 $119 forward single #
loop $-1 $120 $121 $47 #
cone-surface $-1 -51.070321706034179 -6.5452956798754727 8.1044690582318459 0.66913061440640931 0 -0.74314481823134659 0.55735861367350992 0 0.50184796080480698 1 I I -0.70710678118654757 0.70710678118654757 0.75 forward I I I I #
loop $-1 $-1 $122 $32 #
coedge $-1 $76 $76 $123 $124 reversed $48 $-1 #
face $-1 $125 $126 $26 $-1 $127 reversed single #
loop $-1 $-1 $128 $50 #
plane-surface $-1 -62.741172521134061 6.5452956798754727 1.5899813425666025 -0.66913061440640931 0 0.74314481823134659 0.74314481823134659 0 0.66913061440640931 forward_v I I I I #
coedge $-1 $129 $130 $131 $132 reversed $51 $-1 #
face $-1 $-1 $133 $27 $-1 $134 forward single #
loop $-1 $135 $136 $53 #
cone-surface $-1 -51.070321706034179 6.5452956798754727 8.1044690582318459 0.66913061440640931 0 -0.74314481823134659 0.55735861367350992 0 0.50184796080480698 1 I I -0.70710678118654757 0.70710678118654757 0.75 forward I I I I #
loop $-1 $-1 $137 $34 #
coedge $-1 $85 $85 $138 $139 reversed $54 $-1 #
face $-1 $140 $141 $21 $-1 $142 reversed single #
loop $-1 $-1 $143 $56 #
plane-surface $-1 0 -40.676737165050682 0 0 1 0 0 0 1 forward_v I I I I #
coedge $-1 $144 $145 $146 $147 forward $57 $-1 #
coedge $-1 $148 $59 $149 $150 forward $36 $-1 #
coedge $-1 $59 $148 $151 $152 forward $36 $-1 #
coedge $-1 $153 $154 $59 $93 reversed $155 $-1 #
edge $-1 $156 -40.676737165050682 $157 40.676737165050682 $92 $158 forward 7 unknown #
face $-1 $159 $160 $22 $-1 $161 reversed single #
loop $-1 $-1 $162 $60 #
plane-surface $-1 0 -15.890428485078475 3.3657064855973466 0 -1 0 0 0 -1 forward_v I I I I #
coedge $-1 $163 $164 $165 $166 reversed $61 $-1 #
coedge $-1 $167 $63 $168 $169 forward $39 $-1 #
coedge $-1 $63 $167 $170 $171 reversed $39 $-1 #
coedge $-1 $172 $173 $63 $101 forward $174 $-1 #
edge $-1 $175 1.7486370725461864 $176 26.534945752518393 $100 $177 forward 7 unknown #
face $-1 $178 $179 $23 $-1 $180 reversed single #
loop $-1 $-1 $181 $64 #
plane-surface $-1 0 15.89042848507848 3.3657064855973466 0 1 0 0 0 1 forward_v I I I I #
coedge $-1 $182 $183 $184 $185 reversed $65 $-1 #
coedge $-1 $186 $67 $187 $188 reversed $42 $-1 #
coedge $-1 $67 $186 $189 $190 forward $42 $-1 #
coedge $-1 $191 $192 $67 $109 forward $179 $-1 #
edge $-1 $193 -26.534945752518396 $194 -1.7486370725461882 $108 $195 forward 7 unknown #
face $-1 $196 $197 $24 $-1 $198 reversed single #
loop $-1 $-1 $199 $68 #
plane-surface $-1 -146.705251156424 -10.290772160807096 94.841535840246081 0 1 0 -0.66913061440640931 0 0.74314481823134659 forward_v I I I I #
coedge $-1 $200 $201 $202 $203 reversed $69 $-1 #
coedge $-1 $115 $71 $204 $205 reversed $45 $-1 #
coedge $-1 $71 $114 $200 $206 reversed $45 $-1 #
coedge $-1 $202 $207 $71 $117 forward $197 $-1 #
edge $-1 $208 28.390331411852205 $209 45.830786577556445 $116 $210 forward 7 unknown #
loop $-1 $-1 $123 $72 #
plane-surface $-1 -62.741172521134061 -6.5452956798754727 1.5899813425666025 -0.66913061440640931 0 0.74314481823134659 0.74314481823134659 0 0.66913061440640931 forward_v I I I I #
loop $-1 $-1 $211 $47 #
coedge $-1 $121 $121 $122 $212 reversed $73 $-1 #
coedge $-1 $122 $122 $121 $212 forward $75 $-1 #
coedge $-1 $123 $123 $76 $124 forward $118 $-1 #
edge $-1 $213 0 $213 6.2831853071796004 $123 $214 forward 7 unknown #
face $-1 $215 $216 $26 $-1 $217 forward single #
loop $-1 $-1 $218 $77 #
plane-surface $-1 -146.705251156424 2.7998191989438492 94.841535840246081 0 1 0 -0.66913061440640931 0 0.74314481823134659 forward_v I I I I #
coedge $-1 $219 $220 $221 $222 reversed $78 $-1 #
coedge $-1 $130 $80 $223 $224 reversed $51 $-1 #
coedge $-1 $80 $129 $219 $225 reversed $51 $-1 #
coedge $-1 $221 $226 $80 $132 forward $227 $-1 #
edge $-1 $228 28.390331411852205 $229 45.830786577556445 $131 $230 forward 7 unknown #
loop $-1 $-1 $138 $81 #
plane-surface $-1 -62.741172521134061 6.5452956798754727 1.5899813425666025 -0.66913061440640931 0 0.74314481823134659 0.74314481823134659 0 0.66913061440640931 forward_v I I I I #
loop $-1 $-1 $231 $53 #
coedge $-1 $136 $136 $137 $232 reversed $82 $-1 #
coedge $-1 $137 $137 $136 $232 forward $84 $-1 #
coedge $-1 $138 $138 $85 $139 forward $133 $-1 #
edge $-1 $233 0 $233 6.2831853071796004 $138 $234 forward 7 unknown #
face $-1 $235 $236 $21 $-1 $237 reversed single #
loop $-1 $-1 $238 $86 #
plane-surface $-1 -62.741172521134068 0 0 1 0 0 0 0 -1 forward_v I I I I #
coedge $-1 $239 $151 $240 $241 forward $87 $-1 #
coedge $-1 $242 $89 $239 $243 forward $57 $-1 #
coedge $-1 $89 $242 $244 $245 forward $57 $-1 #
coedge $-1 $154 $153 $89 $147 reversed $155 $-1 #
edge $-1 $246 -40.676737165050682 $247 40.676737165050682 $146 $248 forward 7 unknown #
coedge $-1 $91 $90 $249 $250 forward $36 $-1 #
coedge $-1 $251 $252 $90 $150 reversed $236 $-1 #
edge $-1 $157 -62.741172521134068 $253 62.741172521134068 $149 $254 forward 7 unknown #
coedge $-1 $143 $255 $91 $152 reversed $87 $-1 #
edge $-1 $256 -62.741172521134068 $156 62.741172521134068 $151 $257 forward 7 unknown #
coedge $-1 $146 $92 $255 $258 forward $155 $-1 #
coedge $-1 $92 $146 $251 $259 reversed $155 $-1 #
loop $-1 $-1 $153 $235 #
vertex $-1 $93 $260 #
vertex $-1 $93 $261 #
straight-curve $-1 62.741172521134068 0 19.030436508270835 0 1 0 I I #
face $-1 $262 $263 $22 $-1 $264 reversed single #
loop $-1 $-1 $265 $94 #
plane-surface $-1 -62.741172521134068 0 0 1 0 0 0 0 -1 forward_v I I I I #
coedge $-1 $266 $168 $173 $267 reversed $95 $-1 #
coedge $-1 $268 $97 $269 $270 reversed $61 $-1 #
coedge $-1 $97 $268 $266 $271 forward $61 $-1 #
coedge $-1 $173 $172 $97 $166 forward $174 $-1 #
edge $-1 $272 -26.534945752518393 $273 -1.7486370725461864 $165 $274 forward 7 unknown #
coedge $-1 $99 $98 $265 $275 reversed $39 $-1 #
coedge $-1 $162 $276 $98 $169 reversed $95 $-1 #
edge $-1 $175 -62.741172521134068 $277 62.741172521134068 $168 $278 forward 7 unknown #
coedge $-1 $279 $280 $99 $171 forward $263 $-1 #
edge $-1 $176 -62.741172521134068 $281 62.741172521134068 $170 $282 forward 7 unknown #
coedge $-1 $165 $100 $280 $283 forward $174 $-1 #
coedge $-1 $100 $165 $162 $267 forward $174 $-1 #
loop $-1 $-1 $100 $262 #
vertex $-1 $101 $284 #
vertex $-1 $283 $285 #
straight-curve $-1 62.741172521134068 -14.141791412532289 7.2451463715892501 0 -1 0 I I #
face $-1 $286 $287 $23 $-1 $288 reversed single #
loop $-1 $-1 $108 $102 #
plane-surface $-1 62.741172521134068 0 0 -1 0 0 0 0 1 forward_v I I I I #
coedge $-1 $289 $189 $290 $291 reversed $103 $-1 #
coedge $-1 $292 $105 $289 $293 forward $65 $-1 #
coedge $-1 $105 $292 $294 $295 reversed $65 $-1 #
coedge $-1 $192 $191 $105 $185 forward $179 $-1 #
edge $-1 $296 1.7486370725461882 $297 26.534945752518396 $184 $298 forward 7 unknown #
coedge $-1 $107 $106 $299 $300 reversed $42 $-1 #
coedge $-1 $301 $302 $106 $188 forward $303 $-1 #
edge $-1 $304 -62.741172521134068 $193 62.741172521134068 $187 $305 forward 7 unknown #
coedge $-1 $181 $306 $107 $190 reversed $103 $-1 #
edge $-1 $307 -62.741172521134068 $194 62.741172521134068 $189 $308 forward 7 unknown #
coedge $-1 $184 $108 $306 $309 forward $179 $-1 #
coedge $-1 $108 $184 $301 $310 reversed $179 $-1 #
vertex $-1 $310 $311 #
vertex $-1 $109 $312 #
straight-curve $-1 62.741172521134068 14.141791412532292 7.2451463715892501 0 -1 0 I I #
face $-1 $-1 $313 $24 $-1 $314 forward single #
loop $-1 $-1 $116 $110 #
plane-surface $-1 -62.741172521134068 0 0 1 0 0 0 0 -1 forward_v I I I I #
coedge $-1 $315 $316 $317 $318 reversed $111 $-1 #
coedge $-1 $319 $113 $115 $206 forward $69 $-1 #
coedge $-1 $113 $319 $315 $320 forward $69 $-1 #
coedge $-1 $317 $116 $113 $203 forward $197 $-1 #
edge $-1 $209 -0.47282864099388711 $321 7.0181243208693598 $202 $322 forward 7 unknown #
coedge $-1 $323 $324 $114 $205 forward $313 $-1 #
edge $-1 $325 -29.981040406607335 $208 -10.611453057077931 $204 $326 forward 7 unknown #
edge $-1 $209 -9.5890899667747578e-015 $325 26.064350950637319 $115 $327 forward 7 unknown #
coedge $-1 $116 $317 $323 $328 reversed $197 $-1 #
vertex $-1 $328 $329 #
vertex $-1 $117 $330 #
straight-curve $-1 -62.741172521134068 -2.7998191989438492 47.420767920123041 0 0 -1 I I #
coedge $-1 $211 $211 $-1 $331 reversed $120 $-1 #
edge $-1 $332 0 $332 6.2831853071796004 $121 $333 forward 7 unknown #
vertex $-1 $124 $334 #
ellipse-curve $-1 -53.056378846369363 -6.5452956798754727 10.310208925418715 -0.66913061440640931 0 0.74314481823134659 1.1147172273470198 0 1.003695921609614 1 I I #
face $-1 $-1 $227 $26 $-1 $335 reversed single #
loop $-1 $-1 $336 $125 #
plane-surface $-1 0 0 19.030436508270835 0 0 1 1 0 0 forward_v I I I I #
coedge $-1 $337 $338 $339 $340 reversed $126 $-1 #
coedge $-1 $341 $128 $130 $225 forward $78 $-1 #
coedge $-1 $128 $341 $337 $342 forward $78 $-1 #
coedge $-1 $339 $131 $128 $222 forward $227 $-1 #
edge $-1 $229 -7.0181243208693598 $343 0.47282864099388711 $221 $344 forward 7 unknown #
coedge $-1 $345 $346 $129 $224 forward $216 $-1 #
edge $-1 $347 -29.981040406607335 $228 -10.611453057077931 $223 $348 forward 7 unknown #
edge $-1 $229 -9.5890899667747578e-015 $347 26.064350950637319 $130 $349 forward 7 unknown #
coedge $-1 $131 $339 $345 $350 reversed $227 $-1 #
loop $-1 $-1 $339 $215 #
vertex $-1 $350 $351 #
vertex $-1 $132 $352 #
straight-curve $-1 -62.741172521134068 10.290772160807096 47.420767920123041 0 0 -1 I I #
coedge $-1 $231 $231 $-1 $353 reversed $135 $-1 #
edge $-1 $354 0 $354 6.2831853071796004 $136 $355 forward 7 unknown #
vertex $-1 $139 $356 #
ellipse-curve $-1 -53.056378846369363 6.5452956798754727 10.310208925418715 -0.66913061440640931 0 0.74314481823134659 1.1147172273470198 0 1.003695921609614 1 I I #
face $-1 $-1 $155 $21 $-1 $357 reversed single #
loop $-1 $-1 $251 $140 #
plane-surface $-1 0 40.676737165050682 0 0 -1 0 0 0 -1 forward_v I I I I #
coedge $-1 $358 $249 $252 $359 forward $141 $-1 #
coedge $-1 $255 $143 $144 $243 reversed $87 $-1 #
coedge $-1 $249 $358 $143 $241 reversed $141 $-1 #
edge $-1 $256 -19.030436508270835 $360 19.030436508270835 $240 $361 forward 7 unknown #
coedge $-1 $145 $144 $358 $362 forward $57 $-1 #
edge $-1 $247 -62.741172521134068 $360 62.741172521134068 $239 $363 forward 7 unknown #
coedge $-1 $252 $251 $145 $245 reversed $236 $-1 #
edge $-1 $364 -62.741172521134068 $246 62.741172521134068 $244 $365 forward 7 unknown #
vertex $-1 $147 $366 #
vertex $-1 $258 $367 #
straight-curve $-1 62.741172521134068 0 -19.030436508270835 0 -1 0 I I #
coedge $-1 $238 $240 $148 $250 reversed $141 $-1 #
edge $-1 $253 -40.676737165050682 $256 40.676737165050682 $249 $368 forward 7 unknown #
coedge $-1 $244 $149 $154 $259 forward $236 $-1 #
coedge $-1 $149 $244 $238 $359 reversed $236 $-1 #
vertex $-1 $150 $369 #
straight-curve $-1 0 40.676737165050682 19.030436508270835 -1 0 0 I I #
coedge $-1 $151 $239 $153 $258 reversed $87 $-1 #
vertex $-1 $250 $370 #
straight-curve $-1 0 -40.676737165050682 19.030436508270835 1 0 0 I I #
edge $-1 $156 -19.030436508270835 $247 19.030436508270835 $153 $371 forward 7 unknown #
edge $-1 $157 -19.030436508270835 $246 19.030436508270835 $154 $372 forward 7 unknown #
point $-1 62.741172521134068 -40.676737165050682 19.030436508270835 #
point $-1 62.741172521134068 40.676737165050682 19.030436508270835 #
face $-1 $-1 $174 $22 $-1 $373 reversed single #
loop $-1 $-1 $170 $159 #
plane-surface $-1 0 -40.676737165050682 0 0 1 0 0 0 1 forward_v I I I I #
coedge $-1 $374 $375 $167 $275 forward $160 $-1 #
coedge $-1 $276 $162 $164 $271 reversed $95 $-1 #
edge $-1 $273 -2.1965866431932302 $175 5.5622931287905768 $173 $376 forward 7 unknown #
coedge $-1 $164 $163 $377 $378 reversed $61 $-1 #
coedge $-1 $280 $279 $163 $270 forward $263 $-1 #
edge $-1 $379 -62.741172521134068 $272 62.741172521134068 $269 $380 forward 7 unknown #
edge $-1 $381 -62.741172521134068 $273 62.741172521134068 $266 $382 forward 7 unknown #
vertex $-1 $270 $383 #
vertex $-1 $166 $384 #
straight-curve $-1 62.741172521134068 -14.141791412532289 -0.51373340039455684 0 1 0 I I #
edge $-1 $281 -26.534945752518393 $277 -1.7486370725461864 $265 $385 forward 7 unknown #
coedge $-1 $168 $266 $374 $386 reversed $95 $-1 #
vertex $-1 $275 $387 #
straight-curve $-1 0 -15.890428485078475 7.2451463715892501 -1 0 0 I I #
coedge $-1 $269 $170 $375 $388 forward $263 $-1 #
coedge $-1 $170 $269 $172 $283 reversed $263 $-1 #
vertex $-1 $388 $389 #
straight-curve $-1 0 -40.676737165050682 7.2451463715892501 -1 0 0 I I #
edge $-1 $176 -7.2451463715892501 $272 0.51373340039455684 $172 $390 forward 7 unknown #
point $-1 62.741172521134068 -15.890428485078475 7.2451463715892501 #
point $-1 62.741172521134068 -40.676737165050682 7.2451463715892501 #
face $-1 $-1 $303 $23 $-1 $391 reversed single #
loop $-1 $-1 $299 $178 #
plane-surface $-1 -62.741172521134068 0 0 1 0 0 0 0 -1 forward_v I I I I #
coedge $-1 $306 $181 $182 $293 reversed $103 $-1 #
coedge $-1 $299 $392 $181 $291 forward $287 $-1 #
edge $-1 $393 -2.1965866431932302 $307 5.5622931287905768 $290 $394 forward 7 unknown #
coedge $-1 $183 $182 $392 $395 reversed $65 $-1 #
edge $-1 $296 -62.741172521134068 $393 62.741172521134068 $289 $396 forward 7 unknown #
coedge $-1 $302 $301 $183 $295 forward $303 $-1 #
edge $-1 $297 -62.741172521134068 $397 62.741172521134068 $294 $398 forward 7 unknown #
vertex $-1 $185 $399 #
vertex $-1 $295 $400 #
straight-curve $-1 62.741172521134068 14.141791412532292 -0.51373340039455684 0 1 0 I I #
coedge $-1 $401 $290 $186 $300 forward $287 $-1 #
edge $-1 $307 1.7486370725461882 $304 26.534945752518396 $299 $402 forward 7 unknown #
coedge $-1 $294 $187 $192 $310 forward $303 $-1 #
coedge $-1 $187 $294 $401 $403 reversed $303 $-1 #
loop $-1 $-1 $187 $286 #
vertex $-1 $403 $404 #
straight-curve $-1 0 40.676737165050682 7.2451463715892501 1 0 0 I I #
coedge $-1 $189 $289 $191 $309 reversed $103 $-1 #
vertex $-1 $300 $405 #
straight-curve $-1 0 15.89042848507848 7.2451463715892501 1 0 0 I I #
edge $-1 $194 -5.5622931287905768 $296 2.1965866431932302 $191 $406 forward 7 unknown #
edge $-1 $193 -7.2451463715892501 $297 0.51373340039455684 $192 $407 forward 7 unknown #
point $-1 62.741172521134068 40.676737165050689 7.2451463715892501 #
point $-1 62.741172521134068 15.89042848507848 7.2451463715892501 #
loop $-1 $-1 $204 $196 #
plane-surface $-1 0 0 19.030436508270835 0 0 1 1 0 0 forward_v I I I I #
coedge $-1 $316 $199 $201 $320 reversed $111 $-1 #
coedge $-1 $199 $315 $408 $409 reversed $111 $-1 #
coedge $-1 $207 $202 $199 $318 forward $197 $-1 #
edge $-1 $321 -45.830786577556445 $410 -28.390331411852205 $317 $411 forward 7 unknown #
coedge $-1 $201 $200 $324 $412 reversed $69 $-1 #
edge $-1 $413 -26.064350950637319 $321 9.5890899667747578e-015 $315 $414 forward 7 unknown #
vertex $-1 $203 $415 #
straight-curve $-1 -62.741172521134068 -3.2726478399377363 1.5899813425665943 0 -1 0 I I #
coedge $-1 $408 $204 $207 $328 forward $313 $-1 #
coedge $-1 $204 $408 $319 $412 forward $313 $-1 #
vertex $-1 $205 $416 #
straight-curve $-1 -73.352625578211999 -2.7998191989438492 19.030436508270839 -1 0 0 I I #
straight-curve $-1 -62.741172521134061 -2.7998191989438492 1.5899813425666025 0.74314481823134659 0 0.66913061440640931 I I #
edge $-1 $208 2.7998191989438492 $410 10.290772160807096 $207 $417 forward 7 unknown #
point $-1 -62.741172521134068 -2.7998191989438492 19.030436508270835 #
point $-1 -62.741172521134068 -2.7998191989438492 1.5899813425665961 #
edge $-1 $418 1 $418 0 $211 $-1 forward 7 unknown #
vertex $-1 $212 $419 #
ellipse-curve $-1 -51.572169666838988 -6.5452956798754727 8.6618276719053551 -0.66913061440640931 0 0.74314481823134659 1.1147172273470198 0 1.003695921609614 1 I I #
point $-1 -51.941661619022355 -6.5452956798754727 11.313904847028338 #
plane-surface $-1 -62.741172521134068 0 0 1 0 0 0 0 -1 forward_v I I I I #
coedge $-1 $346 $345 $338 $420 forward $216 $-1 #
coedge $-1 $338 $218 $220 $342 reversed $126 $-1 #
coedge $-1 $218 $337 $336 $420 reversed $126 $-1 #
coedge $-1 $226 $221 $218 $340 forward $227 $-1 #
edge $-1 $343 -45.830786577556445 $421 -28.390331411852205 $339 $422 forward 7 unknown #
coedge $-1 $220 $219 $346 $423 reversed $78 $-1 #
edge $-1 $424 -26.064350950637319 $343 9.5890899667747578e-015 $337 $425 forward 7 unknown #
vertex $-1 $222 $426 #
straight-curve $-1 -62.741172521134068 3.2726478399377363 1.5899813425665943 0 -1 0 I I #
coedge $-1 $336 $223 $226 $350 forward $216 $-1 #
coedge $-1 $223 $336 $341 $423 forward $216 $-1 #
vertex $-1 $224 $427 #
straight-curve $-1 -73.352625578211999 10.290772160807096 19.030436508270839 -1 0 0 I I #
straight-curve $-1 -62.741172521134061 10.290772160807096 1.5899813425666025 0.74314481823134659 0 0.66913061440640931 I I #
edge $-1 $228 -10.290772160807096 $421 -2.7998191989438492 $226 $428 forward 7 unknown #
point $-1 -62.741172521134068 10.290772160807096 19.030436508270835 #
point $-1 -62.741172521134068 10.290772160807096 1.5899813425665961 #
edge $-1 $429 1 $429 0 $231 $-1 forward 7 unknown #
vertex $-1 $232 $430 #
ellipse-curve $-1 -51.572169666838988 6.5452956798754727 8.6618276719053551 -0.66913061440640931 0 0.74314481823134659 1.1147172273470198 0 1.003695921609614 1 I I #
point $-1 -51.941661619022355 6.5452956798754727 11.313904847028338 #
plane-surface $-1 62.741172521134068 0 0 -1 0 0 0 0 1 forward_v I I I I #
coedge $-1 $240 $238 $242 $362 reversed $141 $-1 #
edge $-1 $253 -19.030436508270835 $364 19.030436508270835 $252 $431 forward 7 unknown #
vertex $-1 $362 $432 #
straight-curve $-1 -62.741172521134068 -40.676737165050682 0 0 0 -1 I I #
edge $-1 $360 -40.676737165050682 $364 40.676737165050682 $358 $433 forward 7 unknown #
straight-curve $-1 0 -40.676737165050682 -19.030436508270835 -1 0 0 I I #
vertex $-1 $245 $434 #
straight-curve $-1 0 40.676737165050682 -19.030436508270835 1 0 0 I I #
point $-1 62.741172521134068 40.676737165050682 -19.030436508270835 #
point $-1 62.741172521134068 -40.676737165050682 -19.030436508270835 #
straight-curve $-1 -62.741172521134068 0 19.030436508270835 0 -1 0 I I #
point $-1 -62.741172521134068 40.676737165050682 19.030436508270835 #
point $-1 -62.741172521134068 -40.676737165050682 19.030436508270835 #
straight-curve $-1 62.741172521134068 -40.676737165050682 0 0 0 -1 I I #
straight-curve $-1 62.741172521134068 40.676737165050682 0 0 0 -1 I I #
plane-surface $-1 62.741172521134068 0 0 -1 0 0 0 0 1 forward_v I I I I #
coedge $-1 $377 $265 $276 $386 forward $160 $-1 #
coedge $-1 $265 $377 $279 $388 reversed $160 $-1 #
straight-curve $-1 62.741172521134068 -15.890428485078475 1.6828532427986733 0 0 1 I I #
coedge $-1 $375 $374 $268 $378 forward $160 $-1 #
edge $-1 $381 1.7486370725461864 $379 26.534945752518393 $377 $435 forward 7 unknown #
vertex $-1 $270 $436 #
straight-curve $-1 0 -40.676737165050682 -0.51373340039455684 1 0 0 I I #
vertex $-1 $378 $437 #
straight-curve $-1 0 -15.890428485078475 -0.51373340039455684 1 0 0 I I #
point $-1 62.741172521134068 -40.676737165050682 -0.51373340039455684 #
point $-1 62.741172521134068 -15.890428485078475 -0.51373340039455684 #
straight-curve $-1 -62.741172521134068 -14.141791412532289 7.2451463715892501 0 1 0 I I #
edge $-1 $277 -5.5622931287905768 $381 2.1965866431932302 $374 $438 forward 7 unknown #
point $-1 -62.741172521134068 -15.890428485078475 7.2451463715892501 #
edge $-1 $281 -7.2451463715892501 $379 0.51373340039455684 $375 $439 forward 7 unknown #
point $-1 -62.741172521134068 -40.676737165050682 7.2451463715892501 #
straight-curve $-1 62.741172521134068 -40.676737165050682 0 0 0 -1 I I #
plane-surface $-1 0 40.676737165050682 0 0 -1 0 0 0 -1 forward_v I I I I #
coedge $-1 $290 $401 $292 $395 forward $287 $-1 #
vertex $-1 $395 $440 #
straight-curve $-1 -62.741172521134068 15.89042848507848 1.6828532427986733 0 0 1 I I #
edge $-1 $397 -26.534945752518396 $393 -1.7486370725461882 $392 $441 forward 7 unknown #
straight-curve $-1 0 15.89042848507848 -0.51373340039455684 -1 0 0 I I #
vertex $-1 $295 $442 #
straight-curve $-1 0 40.676737165050682 -0.51373340039455684 -1 0 0 I I #
point $-1 62.741172521134068 15.89042848507848 -0.51373340039455684 #
point $-1 62.741172521134068 40.676737165050689 -0.51373340039455684 #
coedge $-1 $392 $299 $302 $403 forward $287 $-1 #
straight-curve $-1 -62.741172521134068 14.141791412532292 7.2451463715892501 0 1 0 I I #
edge $-1 $304 -7.2451463715892501 $397 0.51373340039455684 $302 $443 forward 7 unknown #
point $-1 -62.741172521134068 40.676737165050689 7.2451463715892501 #
point $-1 -62.741172521134068 15.89042848507848 7.2451463715892501 #
straight-curve $-1 62.741172521134068 15.89042848507848 1.6828532427986733 0 0 -1 I I #
straight-curve $-1 62.741172521134068 40.676737165050682 0 0 0 -1 I I #
coedge $-1 $324 $323 $316 $409 forward $313 $-1 #
edge $-1 $410 10.611453057077931 $413 29.981040406607335 $408 $444 forward 7 unknown #
vertex $-1 $409 $445 #
straight-curve $-1 -62.741172521134068 -10.290772160807096 47.420767920123041 0 0 1 I I #
edge $-1 $413 -7.0181243208693598 $325 0.47282864099388711 $324 $446 forward 7 unknown #
vertex $-1 $412 $447 #
straight-curve $-1 -62.741172521134061 -10.290772160807096 1.5899813425666025 -0.74314481823134659 0 -0.66913061440640931 I I #
point $-1 -62.741172521134068 -10.290772160807096 1.5899813425665961 #
point $-1 -43.371585171604664 -2.7998191989438492 19.030436508270835 #
straight-curve $-1 -62.741172521134068 0 19.030436508270835 0 -1 0 I I #
vertex $-1 $331 $448 #
point $-1 -50.457452439491966 -6.5452956798754727 9.665523593514969 #
edge $-1 $421 10.611453057077931 $424 29.981040406607335 $336 $449 forward 7 unknown #
vertex $-1 $420 $450 #
straight-curve $-1 -62.741172521134068 2.7998191989438492 47.420767920123041 0 0 1 I I #
edge $-1 $424 -0.47282864099388711 $347 7.0181243208693598 $346 $451 forward 7 unknown #
vertex $-1 $423 $452 #
straight-curve $-1 -62.741172521134061 2.7998191989438492 1.5899813425666025 -0.74314481823134659 0 -0.66913061440640931 I I #
point $-1 -62.741172521134068 2.7998191989438492 1.5899813425665961 #
point $-1 -43.371585171604664 10.290772160807096 19.030436508270835 #
straight-curve $-1 -62.741172521134068 0 19.030436508270835 0 -1 0 I I #
vertex $-1 $353 $453 #
point $-1 -50.457452439491966 6.5452956798754727 9.665523593514969 #
straight-curve $-1 -62.741172521134068 40.676737165050682 0 0 0 -1 I I #
point $-1 -62.741172521134068 -40.676737165050682 -19.030436508270835 #
straight-curve $-1 -62.741172521134068 0 -19.030436508270835 0 1 0 I I #
point $-1 -62.741172521134068 40.676737165050682 -19.030436508270835 #
straight-curve $-1 -62.741172521134068 -14.141791412532289 -0.51373340039455684 0 -1 0 I I #
point $-1 -62.741172521134068 -40.676737165050682 -0.51373340039455684 #
point $-1 -62.741172521134068 -15.890428485078475 -0.51373340039455684 #
straight-curve $-1 -62.741172521134068 -15.890428485078475 1.6828532427986733 0 0 -1 I I #
straight-curve $-1 -62.741172521134068 -40.676737165050682 0 0 0 -1 I I #
point $-1 -62.741172521134068 15.89042848507848 -0.51373340039455684 #
straight-curve $-1 -62.741172521134068 14.141791412532292 -0.51373340039455684 0 -1 0 I I #
point $-1 -62.741172521134068 40.676737165050689 -0.51373340039455684 #
straight-curve $-1 -62.741172521134068 40.676737165050682 0 0 0 -1 I I #
straight-curve $-1 -73.352625578211999 -10.290772160807096 19.030436508270839 1 0 0 I I #
point $-1 -62.741172521134068 -10.290772160807096 19.030436508270835 #
straight-curve $-1 -43.371585171604664 -3.2726478399377363 19.030436508270835 0 1 0 I I #
point $-1 -43.371585171604664 -10.290772160807096 19.030436508270835 #
point $-1 -50.568473745229369 -6.5452956798754727 7.5471104445583359 #
straight-curve $-1 -73.352625578211999 2.7998191989438492 19.030436508270839 1 0 0 I I #
point $-1 -62.741172521134068 2.7998191989438492 19.030436508270835 #
straight-curve $-1 -43.371585171604664 3.2726478399377363 19.030436508270835 0 1 0 I I #
point $-1 -43.371585171604664 2.7998191989438492 19.030436508270835 #
point $-1 -50.568473745229369 6.5452956798754727 7.5471104445583359 #
End-of-ACIS-data 