500 0 11 0           
7 Unknown 11 ACIS 5.0 NT 24 Fri Mar 26 02:10:45 1999 
-1 9.9999999999999995e-007 1e-010 
body $-1 $11 $-1 $12 #
body $-1 $13 $-1 $14 #
body $-1 $15 $-1 $16 #
body $-1 $17 $-1 $18 #
body $-1 $19 $-1 $20 #
body $-1 $21 $-1 $22 #
body $-1 $23 $-1 $24 #
body $-1 $25 $-1 $26 #
body $-1 $27 $-1 $28 #
body $-1 $29 $-1 $30 #
body $-1 $31 $-1 $32 #
lump $-1 $-1 $33 $0 #
transform $-1 1 0 0 0 1 0 0 0 1 61.550950651570176 41.503264844847472 11.767639160360726 1 rotate no_reflect no_shear #
lump $-1 $-1 $34 $1 #
transform $-1 1 0 0 0 1 0 0 0 1 61.550950651570176 41.503264844847472 11.767639160360726 1 rotate no_reflect no_shear #
lump $-1 $-1 $35 $2 #
transform $-1 1 0 0 0 1 0 0 0 1 61.550950651570176 41.503264844847472 11.767639160360726 1 rotate no_reflect no_shear #
lump $-1 $-1 $36 $3 #
transform $-1 1 0 0 0 1 0 0 0 1 61.550950651570176 41.503264844847472 11.767639160360726 1 rotate no_reflect no_shear #
lump $-1 $-1 $37 $4 #
transform $-1 1 0 0 0 1 0 0 0 1 61.550950651570176 41.503264844847472 11.767639160360726 1 rotate no_reflect no_shear #
lump $-1 $-1 $38 $5 #
transform $-1 1 0 0 0 1 0 0 0 1 61.550950651570176 41.503264844847472 11.767639160360726 1 rotate no_reflect no_shear #
lump $-1 $-1 $39 $6 #
transform $-1 1 0 0 0 1 0 0 0 1 61.550950651570176 41.503264844847472 11.767639160360726 1 rotate no_reflect no_shear #
lump $-1 $-1 $40 $7 #
transform $-1 1 0 0 0 1 0 0 0 1 61.550950651570176 41.503264844847472 11.767639160360726 1 rotate no_reflect no_shear #
lump $-1 $-1 $41 $8 #
transform $-1 1 0 0 0 1 0 0 0 1 61.550950651570176 41.503264844847472 11.767639160360726 1 rotate no_reflect no_shear #
lump $-1 $-1 $42 $9 #
transform $-1 1 0 0 0 1 0 0 0 1 61.550950651570176 41.503264844847472 11.767639160360726 1 rotate no_reflect no_shear #
lump $-1 $-1 $43 $10 #
transform $-1 1 0 0 0 1 0 0 0 1 61.550950651570176 41.503264844847472 11.767639160360726 1 rotate no_reflect no_shear #
shell $-1 $-1 $-1 $44 $-1 $11 #
shell $-1 $-1 $-1 $45 $-1 $13 #
shell $-1 $-1 $-1 $46 $-1 $15 #
shell $-1 $-1 $-1 $47 $-1 $17 #
shell $-1 $-1 $-1 $48 $-1 $19 #
shell $-1 $-1 $-1 $49 $-1 $21 #
shell $-1 $-1 $-1 $50 $-1 $23 #
shell $-1 $-1 $-1 $51 $-1 $25 #
shell $-1 $-1 $-1 $52 $-1 $27 #
shell $-1 $-1 $-1 $53 $-1 $29 #
shell $-1 $-1 $-1 $54 $-1 $31 #
face $-1 $55 $56 $33 $-1 $57 forward single #
face $-1 $58 $59 $34 $-1 $60 forward single #
face $-1 $61 $62 $35 $-1 $63 reversed single #
face $-1 $64 $65 $36 $-1 $66 forward single #
face $-1 $67 $68 $37 $-1 $69 forward single #
face $-1 $70 $71 $38 $-1 $72 reversed single #
face $-1 $73 $74 $39 $-1 $75 forward single #
face $-1 $76 $77 $40 $-1 $78 forward single #
face $-1 $79 $80 $41 $-1 $81 reversed single #
face $-1 $82 $83 $42 $-1 $84 forward single #
face $-1 $85 $86 $43 $-1 $87 forward single #
face $-1 $88 $89 $33 $-1 $90 reversed single #
loop $-1 $-1 $91 $44 #
plane-surface $-1 0 0 11.767639160360726 0 0 1 1 0 0 forward_v I I I I #
face $-1 $92 $93 $34 $-1 $94 reversed single #
loop $-1 $-1 $95 $45 #
plane-surface $-1 0 -37.419182618073187 -1.9478331504697128 0 0 1 1 0 0 forward_v I I I I #
face $-1 $96 $97 $35 $-1 $98 reversed single #
loop $-1 $-1 $99 $46 #
plane-surface $-1 -145.50624645905094 -33.335100391298901 92.836289486520926 0 1 0 -0.68199836817093118 0 0.7313536940579346 forward_v I I I I #
face $-1 $100 $101 $36 $-1 $102 forward single #
loop $-1 $103 $104 $47 #
cone-surface $-1 -55.632290492105248 -29.132296252087404 6.0927180102871903 0.68199836817093118 0 -0.7313536940579346 0.7313536940579346 0 0.68199836817093118 1 I I 0 1 1 forward I I I I #
face $-1 $105 $106 $37 $-1 $107 forward single #
loop $-1 $108 $109 $48 #
cone-surface $-1 -55.632290492105248 -22.828090043270159 6.0927180102871903 0.68199836817093118 0 -0.7313536940579346 0.7313536940579346 0 0.68199836817093118 1 I I 0 1 1 forward I I I I #
face $-1 $110 $111 $38 $-1 $112 reversed single #
loop $-1 $-1 $113 $49 #
plane-surface $-1 -145.50624645905094 26.793450357607234 92.836289486520926 0 1 0 -0.68199836817093118 0 0.7313536940579346 forward_v I I I I #
face $-1 $114 $115 $39 $-1 $116 forward single #
loop $-1 $117 $118 $50 #
cone-surface $-1 -55.632290492105248 30.996254496818729 6.0927180102871903 0.68199836817093118 0 -0.7313536940579346 0.7313536940579346 0 0.68199836817093118 1 I I 0 1 1 forward I I I I #
face $-1 $119 $120 $40 $-1 $121 forward single #
loop $-1 $122 $123 $51 #
cone-surface $-1 -55.632290492105248 37.300460705635977 6.0927180102871903 0.68199836817093118 0 -0.7313536940579346 0.7313536940579346 0 0.68199836817093118 1 I I 0 1 1 forward I I I I #
face $-1 $124 $125 $41 $-1 $126 reversed single #
loop $-1 $-1 $127 $52 #
plane-surface $-1 40.334428499939804 -24.487742518583662 180.15357571335767 0 -1 0 -0.61566148304635926 0 -0.78801074757464917 forward_v I I I I #
face $-1 $128 $129 $42 $-1 $130 forward single #
loop $-1 $131 $132 $53 #
cone-surface $-1 58.078857954429715 -30.807283856237405 8.7305175367594448 -0.61566148304635926 0 -0.78801074757464917 0.78801074757464917 0 -0.61566148304635926 1 I I 0 1 1 forward I I I I #
face $-1 $133 $134 $43 $-1 $135 forward single #
loop $-1 $136 $137 $54 #
cone-surface $-1 58.078857954429715 -27.015559053645159 8.7305175367594448 -0.61566148304635926 0 -0.78801074757464917 0.78801074757464917 0 -0.61566148304635926 1 I I 0 1 1 forward I I I I #
face $-1 $138 $139 $33 $-1 $140 reversed single #
loop $-1 $-1 $141 $55 #
plane-surface $-1 0 0 -11.767639160360726 0 0 1 1 0 0 forward_v I I I I #
coedge $-1 $142 $143 $144 $145 forward $56 $-1 #
face $-1 $146 $147 $34 $-1 $148 reversed single #
loop $-1 $-1 $149 $58 #
plane-surface $-1 0 -37.419182618073187 -6.1017555453251582 0 0 1 1 0 0 forward_v I I I I #
coedge $-1 $150 $151 $152 $153 reversed $59 $-1 #
face $-1 $154 $155 $35 $-1 $156 reversed single #
loop $-1 $-1 $157 $61 #
plane-surface $-1 -61.550950651570204 -25.980193147678783 2.8052592229139606 -0.68199836817093118 0 0.7313536940579346 0.7313536940579346 0 0.68199836817093118 forward_v I I I I #
coedge $-1 $158 $159 $160 $161 reversed $62 $-1 #
face $-1 $-1 $162 $36 $-1 $163 forward single #
loop $-1 $164 $165 $64 #
cone-surface $-1 -54.178118947874331 -29.132296252087404 4.5333099819080687 0.68199836817093118 0 -0.7313536940579346 0.3656768470289673 0 0.34099918408546559 1 I I -0.70710678118654746 0.70710678118654746 0.5 forward I I I I #
loop $-1 $-1 $166 $47 #
coedge $-1 $104 $104 $167 $168 reversed $65 $-1 #
face $-1 $-1 $169 $37 $-1 $170 forward single #
loop $-1 $171 $172 $67 #
cone-surface $-1 -54.178118947874331 -22.828090043270159 4.5333099819080687 0.68199836817093118 0 -0.7313536940579346 0.3656768470289673 0 0.34099918408546559 1 I I -0.70710678118654746 0.70710678118654746 0.5 forward I I I I #
loop $-1 $-1 $173 $48 #
coedge $-1 $109 $109 $174 $175 reversed $68 $-1 #
face $-1 $176 $177 $38 $-1 $178 forward single #
loop $-1 $-1 $179 $70 #
plane-surface $-1 -61.550950651570204 34.148357601227353 2.8052592229139606 -0.68199836817093118 0 0.7313536940579346 0.7313536940579346 0 0.68199836817093118 forward_v I I I I #
coedge $-1 $180 $181 $182 $183 reversed $71 $-1 #
face $-1 $-1 $184 $39 $-1 $185 forward single #
loop $-1 $186 $187 $73 #
cone-surface $-1 -54.178118947874331 30.996254496818729 4.5333099819080687 0.68199836817093118 0 -0.7313536940579346 0.3656768470289673 0 0.34099918408546559 1 I I -0.70710678118654746 0.70710678118654746 0.5 forward I I I I #
loop $-1 $-1 $188 $50 #
coedge $-1 $118 $118 $189 $190 reversed $74 $-1 #
face $-1 $-1 $191 $40 $-1 $192 forward single #
loop $-1 $193 $194 $76 #
cone-surface $-1 -54.178118947874331 37.300460705635977 4.5333099819080687 0.68199836817093118 0 -0.7313536940579346 0.3656768470289673 0 0.34099918408546559 1 I I -0.70710678118654746 0.70710678118654746 0.5 forward I I I I #
loop $-1 $-1 $195 $51 #
coedge $-1 $123 $123 $196 $197 reversed $77 $-1 #
face $-1 $198 $199 $41 $-1 $200 reversed single #
loop $-1 $-1 $201 $79 #
plane-surface $-1 -35.454670622178128 -28.91142145494128 83.147954439609364 0.61566148304635926 0 0.78801074757464917 0.78801074757464917 0 -0.61566148304635926 forward_v I I I I #
coedge $-1 $202 $203 $204 $205 reversed $80 $-1 #
face $-1 $-1 $206 $42 $-1 $207 forward single #
loop $-1 $208 $209 $82 #
cone-surface $-1 57.120427452699474 -30.807283856237405 7.5037824608054997 -0.61566148304635926 0 -0.78801074757464917 0.39400537378732459 0 -0.30783074152317963 1 I I -0.70710678118654746 0.70710678118654746 0.5 forward I I I I #
loop $-1 $-1 $210 $53 #
coedge $-1 $132 $132 $211 $212 reversed $83 $-1 #
face $-1 $-1 $213 $43 $-1 $214 forward single #
loop $-1 $215 $216 $85 #
cone-surface $-1 57.120427452699474 -27.015559053645159 7.5037824608054997 -0.61566148304635926 0 -0.78801074757464917 0.39400537378732459 0 -0.30783074152317963 1 I I -0.70710678118654746 0.70710678118654746 0.5 forward I I I I #
loop $-1 $-1 $217 $54 #
coedge $-1 $137 $137 $218 $219 reversed $86 $-1 #
face $-1 $220 $221 $33 $-1 $222 reversed single #
loop $-1 $-1 $223 $88 #
plane-surface $-1 0 -41.503264844847472 0 0 1 0 0 0 1 forward_v I I I I #
coedge $-1 $224 $225 $226 $227 forward $89 $-1 #
coedge $-1 $228 $91 $229 $230 forward $56 $-1 #
coedge $-1 $91 $228 $231 $232 forward $56 $-1 #
coedge $-1 $233 $234 $91 $145 reversed $235 $-1 #
edge $-1 $236 -41.503264844847472 $237 41.503264844847472 $144 $238 forward 7 unknown #
face $-1 $239 $240 $34 $-1 $241 reversed single #
loop $-1 $-1 $242 $92 #
plane-surface $-1 0 -33.335100391298901 -4.0247943478974353 0 -1 0 0 0 -1 forward_v I I I I #
coedge $-1 $243 $244 $245 $246 reversed $93 $-1 #
coedge $-1 $247 $95 $248 $249 forward $59 $-1 #
coedge $-1 $95 $247 $250 $251 reversed $59 $-1 #
coedge $-1 $252 $253 $95 $153 forward $254 $-1 #
edge $-1 $255 14.625509082262308 $256 22.793673535810878 $152 $257 forward 7 unknown #
face $-1 $258 $259 $35 $-1 $260 reversed single #
loop $-1 $-1 $261 $96 #
plane-surface $-1 -145.50624645905094 -18.625285904058664 92.836289486520926 0 -1 0 0.68199836817093118 0 -0.7313536940579346 forward_v I I I I #
coedge $-1 $262 $263 $264 $265 reversed $97 $-1 #
coedge $-1 $159 $99 $266 $267 reversed $62 $-1 #
coedge $-1 $99 $158 $262 $268 reversed $62 $-1 #
coedge $-1 $264 $269 $99 $161 forward $270 $-1 #
edge $-1 $271 11.202172577955295 $272 20.813148176594233 $160 $273 forward 7 unknown #
loop $-1 $-1 $167 $100 #
plane-surface $-1 -61.550950651570204 -25.980193147678783 2.8052592229139606 -0.68199836817093118 0 0.7313536940579346 0.7313536940579346 0 0.68199836817093118 forward_v I I I I #
loop $-1 $-1 $274 $64 #
coedge $-1 $165 $165 $166 $275 reversed $101 $-1 #
coedge $-1 $166 $166 $165 $275 forward $103 $-1 #
coedge $-1 $167 $167 $104 $168 forward $162 $-1 #
edge $-1 $276 0 $276 6.2831853071796004 $167 $277 forward 7 unknown #
loop $-1 $-1 $174 $105 #
plane-surface $-1 -61.550950651570204 -25.980193147678783 2.8052592229139606 -0.68199836817093118 0 0.7313536940579346 0.7313536940579346 0 0.68199836817093118 forward_v I I I I #
loop $-1 $-1 $278 $67 #
coedge $-1 $172 $172 $173 $279 reversed $106 $-1 #
coedge $-1 $173 $173 $172 $279 forward $108 $-1 #
coedge $-1 $174 $174 $109 $175 forward $169 $-1 #
edge $-1 $280 0 $280 6.2831853071796004 $174 $281 forward 7 unknown #
face $-1 $282 $283 $38 $-1 $284 reversed single #
loop $-1 $-1 $182 $110 #
plane-surface $-1 0 0 11.767639160360726 0 0 1 1 0 0 forward_v I I I I #
coedge $-1 $285 $286 $287 $288 reversed $111 $-1 #
coedge $-1 $181 $113 $289 $290 reversed $71 $-1 #
coedge $-1 $113 $180 $285 $291 reversed $71 $-1 #
coedge $-1 $287 $292 $113 $183 forward $177 $-1 #
edge $-1 $293 11.202172577955295 $294 20.813148176594233 $182 $295 forward 7 unknown #
loop $-1 $-1 $189 $114 #
plane-surface $-1 -61.550950651570204 34.148357601227353 2.8052592229139606 -0.68199836817093118 0 0.7313536940579346 0.7313536940579346 0 0.68199836817093118 forward_v I I I I #
loop $-1 $-1 $296 $73 #
coedge $-1 $187 $187 $188 $297 reversed $115 $-1 #
coedge $-1 $188 $188 $187 $297 forward $117 $-1 #
coedge $-1 $189 $189 $118 $190 forward $184 $-1 #
edge $-1 $298 0 $298 6.2831853071796004 $189 $299 forward 7 unknown #
loop $-1 $-1 $196 $119 #
plane-surface $-1 -61.550950651570204 34.148357601227353 2.8052592229139606 -0.68199836817093118 0 0.7313536940579346 0.7313536940579346 0 0.68199836817093118 forward_v I I I I #
loop $-1 $-1 $300 $76 #
coedge $-1 $194 $194 $195 $301 reversed $120 $-1 #
coedge $-1 $195 $195 $194 $301 forward $122 $-1 #
coedge $-1 $196 $196 $123 $197 forward $191 $-1 #
edge $-1 $302 0 $302 6.2831853071796004 $196 $303 forward 7 unknown #
face $-1 $304 $305 $41 $-1 $306 reversed single #
loop $-1 $-1 $307 $124 #
plane-surface $-1 40.334428499939804 -33.335100391298901 180.15357571335767 0 1 0 0.61566148304635926 0 0.78801074757464917 forward_v I I I I #
coedge $-1 $308 $309 $310 $311 reversed $125 $-1 #
coedge $-1 $203 $127 $312 $313 reversed $80 $-1 #
coedge $-1 $127 $202 $308 $314 reversed $80 $-1 #
coedge $-1 $310 $315 $127 $205 forward $316 $-1 #
edge $-1 $317 -41.383736401600274 $318 -35.74075052773351 $204 $319 forward 7 unknown #
loop $-1 $-1 $211 $128 #
plane-surface $-1 -35.454670622178128 -28.91142145494128 83.147954439609364 0.61566148304635926 0 0.78801074757464917 0.78801074757464917 0 -0.61566148304635926 forward_v I I I I #
loop $-1 $-1 $320 $82 #
coedge $-1 $209 $209 $210 $321 reversed $129 $-1 #
coedge $-1 $210 $210 $209 $321 forward $131 $-1 #
coedge $-1 $211 $211 $132 $212 forward $206 $-1 #
edge $-1 $322 0 $322 6.2831853071796004 $211 $323 forward 7 unknown #
loop $-1 $-1 $218 $133 #
plane-surface $-1 -35.454670622178128 -28.91142145494128 83.147954439609364 0.61566148304635926 0 0.78801074757464917 0.78801074757464917 0 -0.61566148304635926 forward_v I I I I #
loop $-1 $-1 $324 $85 #
coedge $-1 $216 $216 $217 $325 reversed $134 $-1 #
coedge $-1 $217 $217 $216 $325 forward $136 $-1 #
coedge $-1 $218 $218 $137 $219 forward $213 $-1 #
edge $-1 $326 0 $326 6.2831853071796004 $218 $327 forward 7 unknown #
face $-1 $328 $329 $33 $-1 $330 reversed single #
loop $-1 $-1 $331 $138 #
plane-surface $-1 -61.550950651570176 0 0 1 0 0 0 0 -1 forward_v I I I I #
coedge $-1 $332 $231 $333 $334 forward $139 $-1 #
coedge $-1 $335 $141 $332 $336 forward $89 $-1 #
coedge $-1 $141 $335 $337 $338 forward $89 $-1 #
coedge $-1 $234 $233 $141 $227 reversed $235 $-1 #
edge $-1 $339 -41.503264844847472 $340 41.503264844847472 $226 $341 forward 7 unknown #
coedge $-1 $143 $142 $342 $343 forward $56 $-1 #
coedge $-1 $344 $345 $142 $230 reversed $329 $-1 #
edge $-1 $237 -61.550950651570176 $346 61.550950651570176 $229 $347 forward 7 unknown #
coedge $-1 $223 $348 $143 $232 reversed $139 $-1 #
edge $-1 $349 -61.550950651570176 $236 61.550950651570176 $231 $350 forward 7 unknown #
coedge $-1 $226 $144 $348 $351 forward $235 $-1 #
coedge $-1 $144 $226 $344 $352 reversed $235 $-1 #
loop $-1 $-1 $233 $328 #
vertex $-1 $145 $353 #
vertex $-1 $145 $354 #
straight-curve $-1 61.550950651570176 0 11.767639160360726 0 1 0 I I #
face $-1 $355 $356 $34 $-1 $357 reversed single #
loop $-1 $-1 $358 $146 #
plane-surface $-1 -61.550950651570176 0 0 1 0 0 0 0 -1 forward_v I I I I #
coedge $-1 $359 $248 $253 $360 reversed $147 $-1 #
coedge $-1 $361 $149 $362 $363 reversed $93 $-1 #
coedge $-1 $149 $361 $359 $364 forward $93 $-1 #
coedge $-1 $253 $252 $149 $246 forward $254 $-1 #
edge $-1 $365 -22.793673535810878 $366 -14.625509082262308 $245 $367 forward 7 unknown #
coedge $-1 $151 $150 $358 $368 reversed $59 $-1 #
coedge $-1 $242 $369 $150 $249 reversed $147 $-1 #
edge $-1 $255 -61.550950651570176 $370 61.550950651570176 $248 $371 forward 7 unknown #
coedge $-1 $372 $373 $151 $251 forward $356 $-1 #
edge $-1 $256 -61.550950651570176 $374 61.550950651570176 $250 $375 forward 7 unknown #
coedge $-1 $245 $152 $373 $376 forward $254 $-1 #
coedge $-1 $152 $245 $242 $360 forward $254 $-1 #
loop $-1 $-1 $152 $355 #
vertex $-1 $153 $377 #
vertex $-1 $376 $378 #
straight-curve $-1 61.550950651570176 -18.709591309036593 -1.9478331504697128 0 -1 0 I I #
face $-1 $-1 $270 $35 $-1 $379 forward single #
loop $-1 $-1 $380 $154 #
plane-surface $-1 -61.550950651570176 0 0 1 0 0 0 0 -1 forward_v I I I I #
coedge $-1 $381 $382 $383 $384 reversed $155 $-1 #
coedge $-1 $385 $157 $159 $268 forward $97 $-1 #
coedge $-1 $157 $385 $381 $386 forward $97 $-1 #
coedge $-1 $383 $160 $157 $265 forward $270 $-1 #
edge $-1 $272 -20.34500381745951 $387 -5.6351893302192728 $264 $388 forward 7 unknown #
coedge $-1 $389 $390 $158 $267 forward $259 $-1 #
edge $-1 $391 -43.612885520346474 $271 -34.65050558289974 $266 $392 forward 7 unknown #
edge $-1 $272 -13.141350999831864 $391 -3.8958409169770864e-014 $159 $393 forward 7 unknown #
coedge $-1 $160 $383 $389 $394 forward $270 $-1 #
loop $-1 $-1 $383 $258 #
vertex $-1 $267 $395 #
vertex $-1 $161 $396 #
straight-curve $-1 -72.753123229525471 -33.335100391298901 11.76763916036073 1 0 0 I I #
coedge $-1 $274 $274 $-1 $397 reversed $164 $-1 #
edge $-1 $398 0 $398 6.2831853071796004 $165 $399 forward 7 unknown #
vertex $-1 $168 $400 #
ellipse-curve $-1 -56.745462852250711 -29.132296252087404 7.2864491916373559 -0.68199836817093118 0 0.7313536940579346 0.7313536940579346 0 0.68199836817093118 1 I I #
coedge $-1 $278 $278 $-1 $401 reversed $171 $-1 #
edge $-1 $402 0 $402 6.2831853071796004 $172 $403 forward 7 unknown #
vertex $-1 $175 $404 #
ellipse-curve $-1 -56.745462852250711 -22.828090043270159 7.2864491916373559 -0.68199836817093118 0 0.7313536940579346 0.7313536940579346 0 0.68199836817093118 1 I I #
face $-1 $-1 $405 $38 $-1 $406 reversed single #
loop $-1 $-1 $407 $176 #
plane-surface $-1 0 41.503264844847472 0 0 -1 0 0 0 -1 forward_v I I I I #
coedge $-1 $408 $179 $181 $291 forward $111 $-1 #
coedge $-1 $179 $408 $407 $409 reversed $111 $-1 #
coedge $-1 $410 $182 $179 $288 forward $177 $-1 #
edge $-1 $294 9.7192715569935579 $411 24.429086044233795 $287 $412 forward 7 unknown #
coedge $-1 $413 $414 $180 $290 forward $405 $-1 #
edge $-1 $415 -43.612885520346474 $293 -34.65050558289974 $289 $416 forward 7 unknown #
edge $-1 $294 -13.141350999831864 $415 -3.8958409169770864e-014 $181 $417 forward 7 unknown #
coedge $-1 $182 $410 $413 $418 forward $177 $-1 #
vertex $-1 $290 $419 #
vertex $-1 $183 $420 #
straight-curve $-1 -72.753123229525471 26.793450357607234 11.76763916036073 1 0 0 I I #
coedge $-1 $296 $296 $-1 $421 reversed $186 $-1 #
edge $-1 $422 0 $422 6.2831853071796004 $187 $423 forward 7 unknown #
vertex $-1 $190 $424 #
ellipse-curve $-1 -56.745462852250711 30.996254496818729 7.2864491916373559 -0.68199836817093118 0 0.7313536940579346 0.7313536940579346 0 0.68199836817093118 1 I I #
coedge $-1 $300 $300 $-1 $425 reversed $193 $-1 #
edge $-1 $426 0 $426 6.2831853071796004 $194 $427 forward 7 unknown #
vertex $-1 $197 $428 #
ellipse-curve $-1 -56.745462852250711 37.300460705635977 7.2864491916373559 -0.68199836817093118 0 0.7313536940579346 0.7313536940579346 0 0.68199836817093118 1 I I #
face $-1 $-1 $316 $41 $-1 $429 forward single #
loop $-1 $-1 $430 $198 #
plane-surface $-1 61.550950651570176 0 0 -1 0 0 0 0 1 forward_v I I I I #
coedge $-1 $431 $432 $433 $434 reversed $199 $-1 #
coedge $-1 $435 $201 $203 $314 forward $125 $-1 #
coedge $-1 $201 $435 $431 $436 forward $125 $-1 #
coedge $-1 $433 $204 $201 $311 forward $316 $-1 #
edge $-1 $318 10.032031791113022 $437 18.879389663828263 $310 $438 forward 7 unknown #
coedge $-1 $439 $440 $202 $313 forward $305 $-1 #
edge $-1 $441 -82.717932539187402 $317 -78.309148696318104 $312 $442 forward 7 unknown #
edge $-1 $318 115.94084938698967 $441 123.10190130314035 $203 $443 forward 7 unknown #
coedge $-1 $204 $433 $439 $444 forward $316 $-1 #
loop $-1 $-1 $433 $304 #
vertex $-1 $313 $445 #
vertex $-1 $205 $446 #
straight-curve $-1 20.167214249969902 -24.487742518583662 11.76763916036073 -1 0 0 I I #
coedge $-1 $320 $320 $-1 $447 reversed $208 $-1 #
edge $-1 $448 0 $448 6.2831853071796004 $209 $449 forward 7 unknown #
vertex $-1 $212 $450 #
ellipse-curve $-1 58.729457714636794 -30.807283856237405 9.5632472389260847 0.61566148304635926 0 0.78801074757464917 0.78801074757464917 0 -0.61566148304635926 1 I I #
coedge $-1 $324 $324 $-1 $451 reversed $215 $-1 #
edge $-1 $452 0 $452 6.2831853071796004 $216 $453 forward 7 unknown #
vertex $-1 $219 $454 #
ellipse-curve $-1 58.729457714636794 -27.015559053645159 9.5632472389260847 0.61566148304635926 0 0.78801074757464917 0.78801074757464917 0 -0.61566148304635926 1 I I #
face $-1 $-1 $235 $33 $-1 $455 reversed single #
loop $-1 $-1 $344 $220 #
plane-surface $-1 0 41.503264844847472 0 0 -1 0 0 0 -1 forward_v I I I I #
coedge $-1 $456 $342 $345 $457 forward $221 $-1 #
coedge $-1 $348 $223 $224 $336 reversed $139 $-1 #
coedge $-1 $342 $456 $223 $334 reversed $221 $-1 #
edge $-1 $349 -11.767639160360726 $458 11.767639160360726 $333 $459 forward 7 unknown #
coedge $-1 $225 $224 $456 $460 forward $89 $-1 #
edge $-1 $340 -61.550950651570176 $458 61.550950651570176 $332 $461 forward 7 unknown #
coedge $-1 $345 $344 $225 $338 reversed $329 $-1 #
edge $-1 $462 -61.550950651570176 $339 61.550950651570176 $337 $463 forward 7 unknown #
vertex $-1 $227 $464 #
vertex $-1 $351 $465 #
straight-curve $-1 61.550950651570176 0 -11.767639160360726 0 -1 0 I I #
coedge $-1 $331 $333 $228 $343 reversed $221 $-1 #
edge $-1 $346 -41.503264844847472 $349 41.503264844847472 $342 $466 forward 7 unknown #
coedge $-1 $337 $229 $234 $352 forward $329 $-1 #
coedge $-1 $229 $337 $331 $457 reversed $329 $-1 #
vertex $-1 $230 $467 #
straight-curve $-1 0 41.503264844847472 11.767639160360726 -1 0 0 I I #
coedge $-1 $231 $332 $233 $351 reversed $139 $-1 #
vertex $-1 $343 $468 #
straight-curve $-1 0 -41.503264844847472 11.767639160360726 1 0 0 I I #
edge $-1 $236 -11.767639160360726 $340 11.767639160360726 $233 $469 forward 7 unknown #
edge $-1 $237 -11.767639160360726 $339 11.767639160360726 $234 $470 forward 7 unknown #
point $-1 61.550950651570176 -41.503264844847472 11.767639160360726 #
point $-1 61.550950651570176 41.503264844847472 11.767639160360726 #
face $-1 $-1 $254 $34 $-1 $471 reversed single #
loop $-1 $-1 $250 $239 #
plane-surface $-1 0 -41.503264844847472 0 0 1 0 0 0 1 forward_v I I I I #
coedge $-1 $472 $473 $247 $368 forward $240 $-1 #
coedge $-1 $369 $242 $244 $364 reversed $147 $-1 #
edge $-1 $366 -4.0893583713764405 $255 0.064564023479004806 $253 $474 forward 7 unknown #
coedge $-1 $244 $243 $475 $476 reversed $93 $-1 #
coedge $-1 $373 $372 $243 $363 forward $356 $-1 #
edge $-1 $477 -61.550950651570176 $365 61.550950651570176 $362 $478 forward 7 unknown #
edge $-1 $479 -61.550950651570176 $366 61.550950651570176 $359 $480 forward 7 unknown #
vertex $-1 $363 $481 #
vertex $-1 $246 $482 #
straight-curve $-1 61.550950651570176 -18.709591309036593 -6.1017555453251582 0 1 0 I I #
edge $-1 $374 -22.793673535810878 $370 -14.625509082262308 $358 $483 forward 7 unknown #
coedge $-1 $248 $359 $472 $484 reversed $147 $-1 #
vertex $-1 $368 $485 #
straight-curve $-1 0 -33.335100391298901 -1.9478331504697128 -1 0 0 I I #
coedge $-1 $362 $250 $473 $486 forward $356 $-1 #
coedge $-1 $250 $362 $252 $376 reversed $356 $-1 #
vertex $-1 $486 $487 #
straight-curve $-1 0 -41.503264844847472 -1.9478331504697128 -1 0 0 I I #
edge $-1 $256 1.9478331504697128 $365 6.1017555453251582 $252 $488 forward 7 unknown #
point $-1 61.550950651570176 -33.335100391298901 -1.9478331504697128 #
point $-1 61.550950651570176 -41.503264844847472 -1.9478331504697128 #
plane-surface $-1 0 0 11.767639160360726 0 0 1 1 0 0 forward_v I I I I #
coedge $-1 $390 $389 $382 $489 forward $259 $-1 #
coedge $-1 $382 $261 $263 $386 reversed $155 $-1 #
coedge $-1 $261 $381 $380 $489 reversed $155 $-1 #
coedge $-1 $269 $264 $261 $384 forward $270 $-1 #
edge $-1 $387 -20.813148176594233 $490 -11.202172577955295 $383 $491 forward 7 unknown #
coedge $-1 $263 $262 $390 $492 reversed $97 $-1 #
edge $-1 $493 3.8958409169770864e-014 $387 13.141350999831864 $381 $494 forward 7 unknown #
vertex $-1 $265 $495 #
straight-curve $-1 -51.939975052931231 -12.990096573839391 11.767639160360726 0 1 0 I I #
coedge $-1 $380 $266 $269 $394 reversed $259 $-1 #
coedge $-1 $266 $380 $385 $492 forward $259 $-1 #
vertex $-1 $267 $496 #
straight-curve $-1 -61.550950651570176 -33.335100391298901 46.418144743260463 0 0 1 I I #
straight-curve $-1 -61.550950651570204 -33.335100391298901 2.8052592229139606 -0.7313536940579346 0 -0.68199836817093118 I I #
edge $-1 $490 18.625285904058664 $271 33.335100391298901 $389 $497 forward 7 unknown #
point $-1 -61.550950651570176 -33.335100391298901 11.767639160360726 #
point $-1 -51.939975052931239 -33.335100391298901 11.767639160360726 #
edge $-1 $498 1 $498 0 $274 $-1 forward 7 unknown #
vertex $-1 $275 $499 #
ellipse-curve $-1 -54.5191181319598 -29.132296252087404 4.8989868289370362 -0.68199836817093118 0 0.7313536940579346 0.7313536940579346 0 0.68199836817093118 1 I I #
point $-1 -56.01410915819276 -29.132296252087404 7.9684475598082756 #
edge $-1 $500 1 $500 0 $278 $-1 forward 7 unknown #
vertex $-1 $279 $501 #
ellipse-curve $-1 -54.5191181319598 -22.828090043270159 4.8989868289370362 -0.68199836817093118 0 0.7313536940579346 0.7313536940579346 0 0.68199836817093118 1 I I #
point $-1 -56.01410915819276 -22.828090043270159 7.9684475598082756 #
loop $-1 $-1 $289 $282 #
plane-surface $-1 -61.550950651570176 0 0 1 0 0 0 0 -1 forward_v I I I I #
coedge $-1 $502 $503 $286 $409 forward $283 $-1 #
coedge $-1 $286 $285 $414 $504 reversed $111 $-1 #
edge $-1 $411 8.4098154599080033 $505 21.551166459739829 $407 $506 forward 7 unknown #
coedge $-1 $292 $287 $503 $507 forward $177 $-1 #
vertex $-1 $507 $508 #
straight-curve $-1 -51.939975052931231 17.074178800613677 11.767639160360726 0 1 0 I I #
coedge $-1 $509 $289 $292 $418 reversed $405 $-1 #
coedge $-1 $289 $509 $408 $504 forward $405 $-1 #
vertex $-1 $290 $510 #
straight-curve $-1 -61.550950651570176 26.793450357607234 46.418144743260463 0 0 1 I I #
straight-curve $-1 -61.550950651570204 26.793450357607234 2.8052592229139606 -0.7313536940579346 0 -0.68199836817093118 I I #
edge $-1 $511 -41.503264844847472 $293 -26.793450357607234 $413 $512 forward 7 unknown #
point $-1 -61.550950651570176 26.793450357607234 11.767639160360726 #
point $-1 -51.939975052931239 26.793450357607234 11.767639160360726 #
edge $-1 $513 1 $513 0 $296 $-1 forward 7 unknown #
vertex $-1 $297 $514 #
ellipse-curve $-1 -54.5191181319598 30.996254496818729 4.8989868289370362 -0.68199836817093118 0 0.7313536940579346 0.7313536940579346 0 0.68199836817093118 1 I I #
point $-1 -56.01410915819276 30.996254496818729 7.9684475598082756 #
edge $-1 $515 1 $515 0 $300 $-1 forward 7 unknown #
vertex $-1 $301 $516 #
ellipse-curve $-1 -54.5191181319598 37.300460705635977 4.8989868289370362 -0.68199836817093118 0 0.7313536940579346 0.7313536940579346 0 0.68199836817093118 1 I I #
point $-1 -56.01410915819276 37.300460705635977 7.9684475598082756 #
plane-surface $-1 0 0 11.767639160360726 0 0 1 1 0 0 forward_v I I I I #
coedge $-1 $440 $439 $432 $517 forward $305 $-1 #
coedge $-1 $432 $307 $309 $436 reversed $199 $-1 #
coedge $-1 $307 $431 $430 $517 reversed $199 $-1 #
coedge $-1 $315 $310 $307 $434 forward $316 $-1 #
edge $-1 $437 35.74075052773351 $518 41.383736401600274 $433 $519 forward 7 unknown #
coedge $-1 $309 $308 $440 $520 reversed $125 $-1 #
edge $-1 $521 -123.10190130314035 $437 -115.94084938698967 $431 $522 forward 7 unknown #
vertex $-1 $311 $523 #
straight-curve $-1 55.907964777703427 -14.45571072747064 11.767639160360723 0 -1 0 I I #
coedge $-1 $430 $312 $315 $444 reversed $305 $-1 #
coedge $-1 $312 $430 $435 $520 forward $305 $-1 #
vertex $-1 $313 $524 #
straight-curve $-1 61.550950651570176 -24.487742518583662 90.076787856678834 0 0 1 I I #
straight-curve $-1 -35.454670622178128 -24.487742518583662 83.147954439609364 0.78801074757464917 0 -0.61566148304635926 I I #
edge $-1 $518 -33.335100391298901 $317 -24.487742518583662 $439 $525 forward 7 unknown #
point $-1 61.550950651570176 -24.487742518583662 11.767639160360726 #
point $-1 55.907964777703413 -24.487742518583662 11.76763916036073 #
edge $-1 $526 1 $526 0 $320 $-1 forward 7 unknown #
vertex $-1 $321 $527 #
ellipse-curve $-1 57.42825819422265 -30.807283856237405 7.8977878345928243 0.61566148304635926 0 0.78801074757464917 0.78801074757464917 0 -0.61566148304635926 1 I I #
point $-1 59.517468462211426 -30.807283856237405 8.9475857558797038 #
edge $-1 $528 1 $528 0 $324 $-1 forward 7 unknown #
vertex $-1 $325 $529 #
ellipse-curve $-1 57.42825819422265 -27.015559053645159 7.8977878345928243 0.61566148304635926 0 0.78801074757464917 0.78801074757464917 0 -0.61566148304635926 1 I I #
point $-1 59.517468462211426 -27.015559053645159 8.9475857558797038 #
plane-surface $-1 61.550950651570176 0 0 -1 0 0 0 0 1 forward_v I I I I #
coedge $-1 $333 $331 $335 $460 reversed $221 $-1 #
edge $-1 $346 -11.767639160360726 $462 11.767639160360726 $345 $530 forward 7 unknown #
vertex $-1 $460 $531 #
straight-curve $-1 -61.550950651570176 -41.503264844847472 0 0 0 -1 I I #
edge $-1 $458 -41.503264844847472 $462 41.503264844847472 $456 $532 forward 7 unknown #
straight-curve $-1 0 -41.503264844847472 -11.767639160360726 -1 0 0 I I #
vertex $-1 $338 $533 #
straight-curve $-1 0 41.503264844847472 -11.767639160360726 1 0 0 I I #
point $-1 61.550950651570176 41.503264844847472 -11.767639160360726 #
point $-1 61.550950651570176 -41.503264844847472 -11.767639160360726 #
straight-curve $-1 -61.550950651570176 0 11.767639160360726 0 -1 0 I I #
point $-1 -61.550950651570176 41.503264844847472 11.767639160360726 #
point $-1 -61.550950651570176 -41.503264844847472 11.767639160360726 #
straight-curve $-1 61.550950651570176 -41.503264844847472 0 0 0 -1 I I #
straight-curve $-1 61.550950651570176 41.503264844847472 0 0 0 -1 I I #
plane-surface $-1 61.550950651570176 0 0 -1 0 0 0 0 1 forward_v I I I I #
coedge $-1 $475 $358 $369 $484 forward $240 $-1 #
coedge $-1 $358 $475 $372 $486 reversed $240 $-1 #
straight-curve $-1 61.550950651570176 -33.335100391298901 -2.0123971739487176 0 0 1 I I #
coedge $-1 $473 $472 $361 $476 forward $240 $-1 #
edge $-1 $479 14.625509082262308 $477 22.793673535810878 $475 $534 forward 7 unknown #
vertex $-1 $363 $535 #
straight-curve $-1 0 -41.503264844847472 -6.1017555453251582 1 0 0 I I #
vertex $-1 $476 $536 #
straight-curve $-1 0 -33.335100391298901 -6.1017555453251582 1 0 0 I I #
point $-1 61.550950651570176 -41.503264844847472 -6.1017555453251582 #
point $-1 61.550950651570176 -33.335100391298901 -6.1017555453251582 #
straight-curve $-1 -61.550950651570176 -18.709591309036593 -1.9478331504697128 0 1 0 I I #
edge $-1 $370 -0.064564023479004806 $479 4.0893583713764405 $472 $537 forward 7 unknown #
point $-1 -61.550950651570176 -33.335100391298901 -1.9478331504697128 #
edge $-1 $374 1.9478331504697128 $477 6.1017555453251582 $473 $538 forward 7 unknown #
point $-1 -61.550950651570176 -41.503264844847472 -1.9478331504697128 #
straight-curve $-1 61.550950651570176 -41.503264844847472 0 0 0 -1 I I #
edge $-1 $490 34.65050558289974 $493 43.612885520346474 $380 $539 forward 7 unknown #
vertex $-1 $394 $540 #
straight-curve $-1 -72.753123229525471 -18.625285904058664 11.76763916036073 -1 0 0 I I #
edge $-1 $493 5.6351893302192728 $391 20.34500381745951 $390 $541 forward 7 unknown #
vertex $-1 $492 $542 #
straight-curve $-1 -61.550950651570204 -18.625285904058664 2.8052592229139606 0.7313536940579346 0 0.68199836817093118 I I #
point $-1 -51.939975052931239 -18.625285904058664 11.767639160360726 #
point $-1 -61.550950651570176 -33.335100391298901 2.8052592229139872 #
straight-curve $-1 -61.550950651570176 0 11.767639160360726 0 -1 0 I I #
vertex $-1 $397 $543 #
point $-1 -53.787764437901863 -29.132296252087404 5.5809851971079674 #
vertex $-1 $401 $544 #
point $-1 -53.787764437901863 -22.828090043270159 5.5809851971079674 #
coedge $-1 $503 $407 $509 $545 reversed $283 $-1 #
coedge $-1 $407 $502 $410 $507 reversed $283 $-1 #
edge $-1 $505 -24.429086044233795 $415 -9.7192715569935579 $414 $546 forward 7 unknown #
vertex $-1 $409 $547 #
straight-curve $-1 -45.789425449981991 41.503264844847472 17.503119580636653 -0.7313536940579346 0 -0.68199836817093118 I I #
edge $-1 $411 51.939975052931239 $511 61.550950651570176 $503 $548 forward 7 unknown #
point $-1 -51.939975052931239 41.503264844847472 11.767639160360726 #
coedge $-1 $414 $413 $502 $545 forward $405 $-1 #
point $-1 -61.550950651570176 26.793450357607234 2.8052592229139872 #
vertex $-1 $507 $549 #
straight-curve $-1 -61.550950651570176 0 11.767639160360726 0 -1 0 I I #
vertex $-1 $421 $550 #
point $-1 -53.787764437901863 30.996254496818729 5.5809851971079674 #
vertex $-1 $425 $551 #
point $-1 -53.787764437901863 37.300460705635977 5.5809851971079674 #
edge $-1 $518 78.309148696318104 $521 82.717932539187402 $430 $552 forward 7 unknown #
vertex $-1 $444 $553 #
straight-curve $-1 20.167214249969902 -33.335100391298901 11.76763916036073 1 0 0 I I #
edge $-1 $521 -18.879389663828263 $441 -10.032031791113022 $440 $554 forward 7 unknown #
vertex $-1 $520 $555 #
straight-curve $-1 -35.454670622178128 -33.335100391298901 83.147954439609364 -0.78801074757464917 0 0.61566148304635926 I I #
point $-1 55.907964777703413 -33.335100391298901 11.76763916036073 #
point $-1 61.550950651570176 -24.487742518583662 7.3588553174914324 #
straight-curve $-1 61.550950651570176 0 11.767639160360726 0 1 0 I I #
vertex $-1 $447 $556 #
point $-1 58.216268941797303 -30.807283856237405 7.2821263515464647 #
vertex $-1 $451 $557 #
point $-1 58.216268941797303 -27.015559053645159 7.2821263515464647 #
straight-curve $-1 -61.550950651570176 41.503264844847472 0 0 0 -1 I I #
point $-1 -61.550950651570176 -41.503264844847472 -11.767639160360726 #
straight-curve $-1 -61.550950651570176 0 -11.767639160360726 0 1 0 I I #
point $-1 -61.550950651570176 41.503264844847472 -11.767639160360726 #
straight-curve $-1 -61.550950651570176 -18.709591309036593 -6.1017555453251582 0 -1 0 I I #
point $-1 -61.550950651570176 -41.503264844847472 -6.1017555453251582 #
point $-1 -61.550950651570176 -33.335100391298901 -6.1017555453251582 #
straight-curve $-1 -61.550950651570176 -33.335100391298901 -2.0123971739487176 0 0 -1 I I #
straight-curve $-1 -61.550950651570176 -41.503264844847472 0 0 0 -1 I I #
straight-curve $-1 -61.550950651570176 -18.625285904058664 46.418144743260463 0 0 -1 I I #
point $-1 -61.550950651570176 -18.625285904058664 11.767639160360726 #
straight-curve $-1 -61.550950651570176 -12.990096573839391 2.8052592229139863 0 -1 0 I I #
point $-1 -61.550950651570176 -18.625285904058664 2.8052592229139872 #
point $-1 -53.837119763788863 -29.132296252087404 4.1676331348791011 #
point $-1 -53.837119763788863 -22.828090043270159 4.1676331348791011 #
edge $-1 $511 -11.767639160360726 $505 -2.8052592229139872 $502 $558 forward 7 unknown #
straight-curve $-1 -61.550950651570176 17.074178800613677 2.8052592229139863 0 -1 0 I I #
point $-1 -61.550950651570176 41.503264844847472 2.8052592229139872 #
straight-curve $-1 0 41.503264844847472 11.767639160360726 -1 0 0 I I #
point $-1 -61.550950651570176 41.503264844847472 11.767639160360726 #
point $-1 -53.837119763788863 30.996254496818729 4.1676331348791011 #
point $-1 -53.837119763788863 37.300460705635977 4.1676331348791011 #
straight-curve $-1 61.550950651570176 -33.335100391298901 90.076787856678834 0 0 -1 I I #
point $-1 61.550950651570176 -33.335100391298901 11.767639160360726 #
straight-curve $-1 61.550950651570176 -14.45571072747064 7.3588553174914395 0 1 0 I I #
point $-1 61.550950651570176 -33.335100391298901 7.3588553174914324 #
point $-1 56.812596711176298 -30.807283856237405 7.1097770870181751 #
point $-1 56.812596711176298 -27.015559053645159 7.1097770870181751 #
straight-curve $-1 -61.550950651570176 41.503264844847472 0 0 0 -1 I I #
End-of-ACIS-data 