500 0 12 0           
7 Unknown 11 ACIS 5.0 NT 24 Fri Mar 26 18:19:10 1999 
-1 9.9999999999999995e-007 1e-010 
body $-1 $12 $-1 $13 #
body $-1 $14 $-1 $15 #
body $-1 $16 $-1 $17 #
body $-1 $18 $-1 $19 #
body $-1 $20 $-1 $21 #
body $-1 $22 $-1 $23 #
body $-1 $24 $-1 $25 #
body $-1 $26 $-1 $27 #
body $-1 $28 $-1 $29 #
body $-1 $30 $-1 $31 #
body $-1 $32 $-1 $33 #
body $-1 $34 $-1 $35 #
lump $-1 $-1 $36 $0 #
transform $-1 1 0 0 0 1 0 0 0 1 53.579515976439708 21.538746310155311 8.0959445495283937 1 rotate no_reflect no_shear #
lump $-1 $-1 $37 $1 #
transform $-1 1 0 0 0 1 0 0 0 1 53.579515976439708 21.538746310155311 8.0959445495283937 1 rotate no_reflect no_shear #
lump $-1 $-1 $38 $2 #
transform $-1 1 0 0 0 1 0 0 0 1 53.579515976439708 21.538746310155311 8.0959445495283937 1 rotate no_reflect no_shear #
lump $-1 $-1 $39 $3 #
transform $-1 1 0 0 0 1 0 0 0 1 53.579515976439708 21.538746310155311 8.0959445495283937 1 rotate no_reflect no_shear #
lump $-1 $-1 $40 $4 #
transform $-1 1 0 0 0 1 0 0 0 1 53.579515976439708 21.538746310155311 8.0959445495283937 1 rotate no_reflect no_shear #
lump $-1 $-1 $41 $5 #
transform $-1 1 0 0 0 1 0 0 0 1 53.579515976439708 21.538746310155311 8.0959445495283937 1 rotate no_reflect no_shear #
lump $-1 $-1 $42 $6 #
transform $-1 1 0 0 0 1 0 0 0 1 53.579515976439708 21.538746310155311 8.0959445495283937 1 rotate no_reflect no_shear #
lump $-1 $-1 $43 $7 #
transform $-1 1 0 0 0 1 0 0 0 1 53.579515976439708 21.538746310155311 8.0959445495283937 1 rotate no_reflect no_shear #
lump $-1 $-1 $44 $8 #
transform $-1 1 0 0 0 1 0 0 0 1 53.579515976439708 21.538746310155311 8.0959445495283937 1 rotate no_reflect no_shear #
lump $-1 $-1 $45 $9 #
transform $-1 1 0 0 0 1 0 0 0 1 53.579515976439708 21.538746310155311 8.0959445495283937 1 rotate no_reflect no_shear #
lump $-1 $-1 $46 $10 #
transform $-1 1 0 0 0 1 0 0 0 1 53.579515976439708 21.538746310155311 8.0959445495283937 1 rotate no_reflect no_shear #
lump $-1 $-1 $47 $11 #
transform $-1 1 0 0 0 1 0 0 0 1 53.579515976439708 21.538746310155311 8.0959445495283937 1 rotate no_reflect no_shear #
shell $-1 $-1 $-1 $48 $-1 $12 #
shell $-1 $-1 $-1 $49 $-1 $14 #
shell $-1 $-1 $-1 $50 $-1 $16 #
shell $-1 $-1 $-1 $51 $-1 $18 #
shell $-1 $-1 $-1 $52 $-1 $20 #
shell $-1 $-1 $-1 $53 $-1 $22 #
shell $-1 $-1 $-1 $54 $-1 $24 #
shell $-1 $-1 $-1 $55 $-1 $26 #
shell $-1 $-1 $-1 $56 $-1 $28 #
shell $-1 $-1 $-1 $57 $-1 $30 #
shell $-1 $-1 $-1 $58 $-1 $32 #
shell $-1 $-1 $-1 $59 $-1 $34 #
face $-1 $60 $61 $36 $-1 $62 forward single #
face $-1 $63 $64 $37 $-1 $65 forward single #
face $-1 $66 $67 $38 $-1 $68 reversed single #
face $-1 $69 $70 $39 $-1 $71 forward single #
face $-1 $72 $73 $40 $-1 $74 reversed single #
face $-1 $75 $76 $41 $-1 $77 forward single #
face $-1 $78 $79 $42 $-1 $80 reversed single #
face $-1 $81 $82 $43 $-1 $83 forward single #
face $-1 $84 $85 $44 $-1 $86 reversed single #
face $-1 $87 $88 $45 $-1 $89 forward single #
face $-1 $90 $91 $46 $-1 $92 reversed single #
face $-1 $93 $94 $47 $-1 $95 forward single #
face $-1 $96 $97 $36 $-1 $98 reversed single #
loop $-1 $-1 $99 $48 #
plane-surface $-1 0 0 8.0959445495283937 0 0 1 1 0 0 forward_v I I I I #
face $-1 $100 $101 $37 $-1 $102 reversed single #
loop $-1 $-1 $103 $49 #
plane-surface $-1 -49.797182694062194 0 -4.2226304125876659 0 0 1 1 0 0 forward_v I I I I #
face $-1 $104 $105 $38 $-1 $106 reversed single #
loop $-1 $-1 $107 $50 #
plane-surface $-1 -20.650619913537327 86.288983245981683 97.499655005704923 1 0 0 0 -0.82903758062907751 -0.55919289150049634 forward_v I I I I #
face $-1 $108 $109 $39 $-1 $110 forward single #
loop $-1 $111 $112 $51 #
cone-surface $-1 -11.197407367015671 18.944683779304693 4.6479646755907753 0 -0.82903758062907751 -0.55919289150049634 0.5 0 0 1 I I 0 1 0.5 forward I I I I #
face $-1 $113 $114 $40 $-1 $115 reversed single #
loop $-1 $-1 $116 $52 #
plane-surface $-1 -24.634038789675376 -95.977665700999552 80.792145275589746 -1 0 0 0 -0.69465837861970381 0.71933979245794832 forward_v I I I I #
face $-1 $117 $118 $41 $-1 $119 forward single #
loop $-1 $120 $121 $53 #
cone-surface $-1 -33.334754158824524 -17.914763952835703 4.5018615807741948 0 0.69465837861970381 -0.71933979245794832 1.5 0 0 1 I I 0 1 1.5 forward I I I I #
face $-1 $122 $123 $42 $-1 $124 reversed single #
loop $-1 $-1 $125 $54 #
plane-surface $-1 0.11068617112598034 -95.977665700999552 80.792145275589746 -1 0 0 0 -0.69465837861970381 0.71933979245794832 forward_v I I I I #
face $-1 $126 $127 $43 $-1 $128 forward single #
loop $-1 $129 $130 $55 #
cone-surface $-1 -8.5900291980231671 -17.914763952835703 4.5018615807741948 0 0.69465837861970381 -0.71933979245794832 1.5 0 0 1 I I 0 1 1.5 forward I I I I #
face $-1 $131 $132 $44 $-1 $133 reversed single #
loop $-1 $-1 $134 $56 #
plane-surface $-1 24.855411131927337 -95.977665700999552 80.792145275589746 -1 0 0 0 -0.69465837861970381 0.71933979245794832 forward_v I I I I #
face $-1 $135 $136 $45 $-1 $137 forward single #
loop $-1 $138 $139 $57 #
cone-surface $-1 16.154695762778189 -17.914763952835703 4.5018615807741948 0 0.69465837861970381 -0.71933979245794832 1.5 0 0 1 I I 0 1 1.5 forward I I I I #
face $-1 $140 $141 $46 $-1 $142 reversed single #
loop $-1 $-1 $143 $58 #
plane-surface $-1 49.600136092728704 -95.977665700999552 80.792145275589746 -1 0 0 0 -0.69465837861970381 0.71933979245794832 forward_v I I I I #
face $-1 $144 $145 $47 $-1 $146 forward single #
loop $-1 $147 $148 $59 #
cone-surface $-1 40.899420723579553 -17.914763952835703 4.5018615807741948 0 0.69465837861970381 -0.71933979245794832 1.5 0 0 1 I I 0 1 1.5 forward I I I I #
face $-1 $149 $150 $36 $-1 $151 reversed single #
loop $-1 $-1 $152 $60 #
plane-surface $-1 0 0 -8.0959445495283937 0 0 1 1 0 0 forward_v I I I I #
coedge $-1 $153 $154 $155 $156 forward $61 $-1 #
face $-1 $157 $158 $37 $-1 $159 reversed single #
loop $-1 $-1 $160 $63 #
plane-surface $-1 -46.014849411684679 0 -6.1592874810580298 -1 0 0 0 0 1 forward_v I I I I #
coedge $-1 $161 $162 $163 $164 forward $64 $-1 #
face $-1 $165 $166 $38 $-1 $167 reversed single #
loop $-1 $-1 $168 $66 #
plane-surface $-1 -11.197407367015671 -2.5498813467874726 37.577086077580205 0 0.82903758062907751 0.55919289150049634 1 0 0 forward_v I I I I #
coedge $-1 $169 $170 $171 $172 reversed $67 $-1 #
face $-1 $-1 $173 $39 $-1 $174 forward single #
loop $-1 $175 $176 $69 #
cone-surface $-1 -11.197407367015671 18.245035467981232 4.1760459455067505 0 -0.82903758062907751 -0.55919289150049634 0.25 0 0 1 I I -0.70710678118654746 0.70710678118654746 0.25 forward I I I I #
loop $-1 $-1 $177 $51 #
coedge $-1 $112 $112 $178 $179 reversed $70 $-1 #
face $-1 $180 $181 $40 $-1 $182 reversed single #
loop $-1 $-1 $183 $72 #
plane-surface $-1 -33.334754158824524 -21.538746310155304 3.7083894706108111 0 -0.69465837861970381 0.71933979245794832 1 0 0 forward_v I I I I #
coedge $-1 $184 $185 $186 $187 reversed $73 $-1 #
face $-1 $-1 $188 $41 $-1 $189 forward single #
loop $-1 $190 $191 $75 #
cone-surface $-1 -33.334754158824524 -16.041510903798248 2.5620513071353237 0 0.69465837861970381 -0.71933979245794832 0.75 0 0 1 I I -0.70710678118654757 0.70710678118654757 0.75 forward I I I I #
loop $-1 $-1 $192 $53 #
coedge $-1 $121 $121 $193 $194 reversed $76 $-1 #
face $-1 $195 $196 $42 $-1 $197 reversed single #
loop $-1 $-1 $198 $78 #
plane-surface $-1 -8.5900291980231671 -21.538746310155304 3.7083894706108111 0 -0.69465837861970381 0.71933979245794832 1 0 0 forward_v I I I I #
coedge $-1 $199 $200 $201 $202 reversed $79 $-1 #
face $-1 $-1 $203 $43 $-1 $204 forward single #
loop $-1 $205 $206 $81 #
cone-surface $-1 -8.5900291980231671 -16.041510903798248 2.5620513071353237 0 0.69465837861970381 -0.71933979245794832 0.75 0 0 1 I I -0.70710678118654757 0.70710678118654757 0.75 forward I I I I #
loop $-1 $-1 $207 $55 #
coedge $-1 $130 $130 $208 $209 reversed $82 $-1 #
face $-1 $210 $211 $44 $-1 $212 reversed single #
loop $-1 $-1 $213 $84 #
plane-surface $-1 16.154695762778189 -21.538746310155304 3.7083894706108111 0 -0.69465837861970381 0.71933979245794832 1 0 0 forward_v I I I I #
coedge $-1 $214 $215 $216 $217 reversed $85 $-1 #
face $-1 $-1 $218 $45 $-1 $219 forward single #
loop $-1 $220 $221 $87 #
cone-surface $-1 16.154695762778189 -16.041510903798248 2.5620513071353237 0 0.69465837861970381 -0.71933979245794832 0.75 0 0 1 I I -0.70710678118654757 0.70710678118654757 0.75 forward I I I I #
loop $-1 $-1 $222 $57 #
coedge $-1 $139 $139 $223 $224 reversed $88 $-1 #
face $-1 $225 $226 $46 $-1 $227 reversed single #
loop $-1 $-1 $228 $90 #
plane-surface $-1 40.899420723579553 -21.538746310155304 3.7083894706108111 0 -0.69465837861970381 0.71933979245794832 1 0 0 forward_v I I I I #
coedge $-1 $229 $230 $231 $232 reversed $91 $-1 #
face $-1 $-1 $233 $47 $-1 $234 forward single #
loop $-1 $235 $236 $93 #
cone-surface $-1 40.899420723579553 -16.041510903798248 2.5620513071353237 0 0.69465837861970381 -0.71933979245794832 0.75 0 0 1 I I -0.70710678118654757 0.70710678118654757 0.75 forward I I I I #
loop $-1 $-1 $237 $59 #
coedge $-1 $148 $148 $238 $239 reversed $94 $-1 #
face $-1 $240 $241 $36 $-1 $242 reversed single #
loop $-1 $-1 $243 $96 #
plane-surface $-1 0 -21.538746310155311 0 0 1 0 0 0 1 forward_v I I I I #
coedge $-1 $244 $245 $246 $247 forward $97 $-1 #
coedge $-1 $248 $99 $249 $250 forward $61 $-1 #
coedge $-1 $99 $248 $251 $252 forward $61 $-1 #
coedge $-1 $253 $254 $99 $156 reversed $255 $-1 #
edge $-1 $256 -21.538746310155311 $257 21.538746310155311 $155 $258 forward 7 unknown #
face $-1 $259 $260 $37 $-1 $261 reversed single #
loop $-1 $-1 $262 $100 #
plane-surface $-1 0 0 -8.0959445495283937 0 0 1 1 0 0 forward_v I I I I #
coedge $-1 $263 $163 $264 $265 reversed $101 $-1 #
coedge $-1 $266 $103 $267 $268 reversed $64 $-1 #
coedge $-1 $103 $266 $269 $270 reversed $64 $-1 #
coedge $-1 $160 $271 $103 $164 reversed $101 $-1 #
edge $-1 $272 -21.538746310155311 $273 21.538746310155311 $163 $274 forward 7 unknown #
face $-1 $275 $276 $38 $-1 $277 reversed single #
loop $-1 $-1 $278 $104 #
plane-surface $-1 -1.7441948204940161 86.288983245981683 97.499655005704923 -1 0 0 0 0.82903758062907751 0.55919289150049634 forward_v I I I I #
coedge $-1 $279 $280 $281 $282 reversed $105 $-1 #
coedge $-1 $170 $107 $283 $284 reversed $67 $-1 #
coedge $-1 $107 $169 $279 $285 reversed $67 $-1 #
coedge $-1 $281 $286 $107 $172 forward $287 $-1 #
edge $-1 $288 21.605745312835531 $289 25.809092542204365 $171 $290 forward 7 unknown #
loop $-1 $-1 $178 $108 #
plane-surface $-1 -11.197407367015671 -2.5498813467874726 37.577086077580205 0 0.82903758062907751 0.55919289150049634 1 0 0 forward_v I I I I #
loop $-1 $-1 $291 $69 #
coedge $-1 $176 $176 $177 $292 reversed $109 $-1 #
coedge $-1 $177 $177 $176 $292 forward $111 $-1 #
coedge $-1 $178 $178 $112 $179 forward $173 $-1 #
edge $-1 $293 3.9733044694436354e-015 $293 6.283185307179604 $178 $294 forward 7 unknown #
face $-1 $295 $296 $40 $-1 $297 forward single #
loop $-1 $-1 $298 $113 #
plane-surface $-1 -42.035469527973675 -95.977665700999552 80.792145275589746 1 0 0 0 0.69465837861970381 -0.71933979245794832 forward_v I I I I #
coedge $-1 $299 $300 $301 $302 reversed $114 $-1 #
coedge $-1 $185 $116 $303 $304 reversed $73 $-1 #
coedge $-1 $116 $184 $299 $305 reversed $73 $-1 #
coedge $-1 $301 $306 $116 $187 forward $296 $-1 #
edge $-1 $307 26.450086540344465 $308 30.993532724838342 $186 $309 forward 7 unknown #
loop $-1 $-1 $193 $117 #
plane-surface $-1 -33.334754158824524 -21.538746310155304 3.7083894706108111 0 -0.69465837861970381 0.71933979245794832 1 0 0 forward_v I I I I #
loop $-1 $-1 $310 $75 #
coedge $-1 $191 $191 $192 $311 reversed $118 $-1 #
coedge $-1 $192 $192 $191 $311 forward $120 $-1 #
coedge $-1 $193 $193 $121 $194 forward $188 $-1 #
edge $-1 $312 -5.2823504937628928e-016 $312 6.2831853071795996 $193 $313 forward 7 unknown #
face $-1 $314 $315 $42 $-1 $316 reversed single #
loop $-1 $-1 $317 $122 #
plane-surface $-1 -17.290744567172315 -95.977665700999552 80.792145275589746 1 0 0 0 0.69465837861970381 -0.71933979245794832 forward_v I I I I #
coedge $-1 $318 $319 $320 $321 reversed $123 $-1 #
coedge $-1 $200 $125 $322 $323 reversed $79 $-1 #
coedge $-1 $125 $199 $318 $324 reversed $79 $-1 #
coedge $-1 $320 $325 $125 $202 forward $326 $-1 #
edge $-1 $327 26.450086540344465 $328 30.993532724838342 $201 $329 forward 7 unknown #
loop $-1 $-1 $208 $126 #
plane-surface $-1 -8.5900291980231671 -21.538746310155304 3.7083894706108111 0 -0.69465837861970381 0.71933979245794832 1 0 0 forward_v I I I I #
loop $-1 $-1 $330 $81 #
coedge $-1 $206 $206 $207 $331 reversed $127 $-1 #
coedge $-1 $207 $207 $206 $331 forward $129 $-1 #
coedge $-1 $208 $208 $130 $209 forward $203 $-1 #
edge $-1 $332 -5.2823504937628928e-016 $332 6.2831853071795996 $208 $333 forward 7 unknown #
face $-1 $334 $335 $44 $-1 $336 reversed single #
loop $-1 $-1 $337 $131 #
plane-surface $-1 7.4539803936290419 -95.977665700999552 80.792145275589746 1 0 0 0 0.69465837861970381 -0.71933979245794832 forward_v I I I I #
coedge $-1 $338 $339 $340 $341 reversed $132 $-1 #
coedge $-1 $215 $134 $342 $343 reversed $85 $-1 #
coedge $-1 $134 $214 $338 $344 reversed $85 $-1 #
coedge $-1 $340 $345 $134 $217 forward $346 $-1 #
edge $-1 $347 26.450086540344465 $348 30.993532724838342 $216 $349 forward 7 unknown #
loop $-1 $-1 $223 $135 #
plane-surface $-1 16.154695762778189 -21.538746310155304 3.7083894706108111 0 -0.69465837861970381 0.71933979245794832 1 0 0 forward_v I I I I #
loop $-1 $-1 $350 $87 #
coedge $-1 $221 $221 $222 $351 reversed $136 $-1 #
coedge $-1 $222 $222 $221 $351 forward $138 $-1 #
coedge $-1 $223 $223 $139 $224 forward $218 $-1 #
edge $-1 $352 -5.2823504937628928e-016 $352 6.2831853071795996 $223 $353 forward 7 unknown #
face $-1 $354 $355 $46 $-1 $356 reversed single #
loop $-1 $-1 $357 $140 #
plane-surface $-1 32.198705354430402 -95.977665700999552 80.792145275589746 1 0 0 0 0.69465837861970381 -0.71933979245794832 forward_v I I I I #
coedge $-1 $358 $359 $360 $361 reversed $141 $-1 #
coedge $-1 $230 $143 $362 $363 reversed $91 $-1 #
coedge $-1 $143 $229 $358 $364 reversed $91 $-1 #
coedge $-1 $360 $365 $143 $232 forward $366 $-1 #
edge $-1 $367 26.450086540344465 $368 30.993532724838342 $231 $369 forward 7 unknown #
loop $-1 $-1 $238 $144 #
plane-surface $-1 40.899420723579553 -21.538746310155304 3.7083894706108111 0 -0.69465837861970381 0.71933979245794832 1 0 0 forward_v I I I I #
loop $-1 $-1 $370 $93 #
coedge $-1 $236 $236 $237 $371 reversed $145 $-1 #
coedge $-1 $237 $237 $236 $371 forward $147 $-1 #
coedge $-1 $238 $238 $148 $239 forward $233 $-1 #
edge $-1 $372 -5.2823504937628928e-016 $372 6.2831853071795996 $238 $373 forward 7 unknown #
face $-1 $374 $375 $36 $-1 $376 reversed single #
loop $-1 $-1 $377 $149 #
plane-surface $-1 -53.579515976439708 0 0 1 0 0 0 0 -1 forward_v I I I I #
coedge $-1 $378 $251 $379 $380 forward $150 $-1 #
coedge $-1 $381 $152 $378 $382 forward $97 $-1 #
coedge $-1 $152 $381 $383 $384 forward $97 $-1 #
coedge $-1 $254 $253 $152 $247 reversed $255 $-1 #
edge $-1 $385 -21.538746310155311 $386 21.538746310155311 $246 $387 forward 7 unknown #
coedge $-1 $154 $153 $388 $389 forward $61 $-1 #
coedge $-1 $390 $391 $153 $250 reversed $375 $-1 #
edge $-1 $257 -53.579515976439708 $392 53.579515976439708 $249 $393 forward 7 unknown #
coedge $-1 $243 $394 $154 $252 reversed $150 $-1 #
edge $-1 $395 -53.579515976439708 $256 53.579515976439708 $251 $396 forward 7 unknown #
coedge $-1 $246 $155 $394 $397 forward $255 $-1 #
coedge $-1 $155 $246 $390 $398 reversed $255 $-1 #
loop $-1 $-1 $253 $374 #
vertex $-1 $156 $399 #
vertex $-1 $156 $400 #
straight-curve $-1 53.579515976439708 0 8.0959445495283937 0 1 0 I I #
face $-1 $401 $402 $37 $-1 $403 reversed single #
loop $-1 $-1 $264 $157 #
plane-surface $-1 0 -21.538746310155311 0 0 1 0 0 0 1 forward_v I I I I #
coedge $-1 $404 $405 $263 $406 forward $158 $-1 #
coedge $-1 $271 $160 $262 $406 reversed $101 $-1 #
coedge $-1 $269 $407 $160 $265 forward $260 $-1 #
edge $-1 $408 -5.0163008089993788 $272 -1.142986672058651 $264 $409 forward 7 unknown #
coedge $-1 $162 $161 $410 $411 reversed $64 $-1 #
coedge $-1 $412 $413 $161 $268 forward $414 $-1 #
edge $-1 $415 -28.680924629408612 $273 -21.116258064653582 $267 $416 forward 7 unknown #
coedge $-1 $417 $264 $162 $270 forward $260 $-1 #
edge $-1 $272 21.116258064653582 $418 28.680924629408612 $269 $419 forward 7 unknown #
coedge $-1 $163 $263 $412 $420 reversed $101 $-1 #
vertex $-1 $270 $421 #
vertex $-1 $268 $422 #
straight-curve $-1 -46.014849411684679 0 -4.2226304125876659 0 1 0 I I #
face $-1 $-1 $287 $38 $-1 $423 forward single #
loop $-1 $-1 $424 $165 #
plane-surface $-1 0 21.538746310155311 0 0 -1 0 0 0 -1 forward_v I I I I #
coedge $-1 $425 $426 $427 $428 reversed $166 $-1 #
coedge $-1 $429 $168 $170 $285 forward $105 $-1 #
coedge $-1 $168 $429 $425 $430 forward $105 $-1 #
coedge $-1 $427 $171 $168 $282 forward $287 $-1 #
edge $-1 $289 -15.051916230029491 $431 3.8545088630138196 $281 $432 forward 7 unknown #
coedge $-1 $433 $434 $169 $284 forward $276 $-1 #
edge $-1 $435 -46.885601686781513 $288 -40.653882953324072 $283 $436 forward 7 unknown #
edge $-1 $289 35.560681707192799 $435 43.077492620310622 $170 $437 forward 7 unknown #
coedge $-1 $171 $427 $433 $438 forward $287 $-1 #
loop $-1 $-1 $427 $275 #
vertex $-1 $284 $439 #
vertex $-1 $172 $440 #
straight-curve $-1 -20.650619913537327 43.144491622990842 8.0959445495283973 0 -1 0 I I #
coedge $-1 $291 $291 $-1 $441 reversed $175 $-1 #
edge $-1 $442 0 $442 6.2831853071796004 $176 $443 forward 7 unknown #
vertex $-1 $179 $444 #
ellipse-curve $-1 -11.197407367015671 19.437072695470885 4.9800851827996757 0 0.82903758062907751 0.55919289150049634 0.5 0 0 1 I I #
face $-1 $-1 $445 $40 $-1 $446 reversed single #
loop $-1 $-1 $186 $180 #
plane-surface $-1 0 0 8.0959445495283937 0 0 1 1 0 0 forward_v I I I I #
coedge $-1 $447 $448 $449 $450 reversed $181 $-1 #
coedge $-1 $451 $183 $185 $305 forward $114 $-1 #
coedge $-1 $183 $451 $447 $452 forward $114 $-1 #
coedge $-1 $449 $186 $183 $302 forward $296 $-1 #
edge $-1 $308 7.9666617102631143 $453 25.368092448561413 $301 $454 forward 7 unknown #
coedge $-1 $455 $456 $184 $304 forward $445 $-1 #
edge $-1 $457 -36.687683167184069 $307 -32.300128088266476 $303 $458 forward 7 unknown #
edge $-1 $308 -6.316133532623212 $457 9.7385709978959816e-015 $185 $459 forward 7 unknown #
coedge $-1 $186 $449 $455 $460 forward $296 $-1 #
vertex $-1 $187 $461 #
vertex $-1 $187 $462 #
straight-curve $-1 -24.634038789675376 -47.988832850499776 8.0959445495283902 0 1 0 I I #
coedge $-1 $310 $310 $-1 $463 reversed $190 $-1 #
edge $-1 $464 0 $464 6.2831853071796004 $191 $465 forward 7 unknown #
vertex $-1 $194 $466 #
ellipse-curve $-1 -33.334754158824524 -19.267023217908374 5.902167010069598 0 -0.69465837861970381 0.71933979245794832 1.5 0 0 1 I I #
face $-1 $-1 $326 $42 $-1 $467 forward single #
loop $-1 $-1 $468 $195 #
plane-surface $-1 0 -21.538746310155311 0 0 1 0 0 0 1 forward_v I I I I #
coedge $-1 $469 $470 $471 $472 reversed $196 $-1 #
coedge $-1 $473 $198 $200 $324 forward $123 $-1 #
coedge $-1 $198 $473 $469 $474 forward $123 $-1 #
coedge $-1 $471 $201 $198 $321 forward $326 $-1 #
edge $-1 $328 -4.4057007701375639 $475 12.995729968160731 $320 $476 forward 7 unknown #
coedge $-1 $477 $478 $199 $323 forward $315 $-1 #
edge $-1 $479 -36.687683167184069 $327 -32.300128088266476 $322 $480 forward 7 unknown #
edge $-1 $328 -6.316133532623212 $479 9.7385709978959816e-015 $200 $481 forward 7 unknown #
coedge $-1 $201 $471 $477 $482 forward $326 $-1 #
loop $-1 $-1 $471 $314 #
vertex $-1 $323 $483 #
vertex $-1 $202 $484 #
straight-curve $-1 0.11068617112598034 -47.988832850499776 8.0959445495283902 0 1 0 I I #
coedge $-1 $330 $330 $-1 $485 reversed $205 $-1 #
edge $-1 $486 0 $486 6.2831853071796004 $206 $487 forward 7 unknown #
vertex $-1 $209 $488 #
ellipse-curve $-1 -8.5900291980231671 -19.267023217908374 5.902167010069598 0 -0.69465837861970381 0.71933979245794832 1.5 0 0 1 I I #
face $-1 $-1 $346 $44 $-1 $489 forward single #
loop $-1 $-1 $490 $210 #
plane-surface $-1 0 -21.538746310155311 0 0 1 0 0 0 1 forward_v I I I I #
coedge $-1 $491 $492 $493 $494 reversed $211 $-1 #
coedge $-1 $495 $213 $215 $344 forward $132 $-1 #
coedge $-1 $213 $495 $491 $496 forward $132 $-1 #
coedge $-1 $493 $216 $213 $341 forward $346 $-1 #
edge $-1 $348 -16.778063250538242 $497 0.6233674877600528 $340 $498 forward 7 unknown #
coedge $-1 $499 $500 $214 $343 forward $335 $-1 #
edge $-1 $501 -36.687683167184069 $347 -32.300128088266476 $342 $502 forward 7 unknown #
edge $-1 $348 -6.316133532623212 $501 9.7385709978959816e-015 $215 $503 forward 7 unknown #
coedge $-1 $216 $493 $499 $504 forward $346 $-1 #
loop $-1 $-1 $493 $334 #
vertex $-1 $343 $505 #
vertex $-1 $217 $506 #
straight-curve $-1 24.855411131927337 -47.988832850499776 8.0959445495283902 0 1 0 I I #
coedge $-1 $350 $350 $-1 $507 reversed $220 $-1 #
edge $-1 $508 0 $508 6.2831853071796004 $221 $509 forward 7 unknown #
vertex $-1 $224 $510 #
ellipse-curve $-1 16.154695762778189 -19.267023217908374 5.902167010069598 0 -0.69465837861970381 0.71933979245794832 1.5 0 0 1 I I #
face $-1 $-1 $366 $46 $-1 $511 forward single #
loop $-1 $-1 $512 $225 #
plane-surface $-1 0 -21.538746310155311 0 0 1 0 0 0 1 forward_v I I I I #
coedge $-1 $513 $514 $515 $516 reversed $226 $-1 #
coedge $-1 $517 $228 $230 $364 forward $141 $-1 #
coedge $-1 $228 $517 $513 $518 forward $141 $-1 #
coedge $-1 $515 $231 $228 $361 forward $366 $-1 #
edge $-1 $368 -29.150425730938927 $519 -11.748994992640625 $360 $520 forward 7 unknown #
coedge $-1 $521 $522 $229 $363 forward $355 $-1 #
edge $-1 $523 -36.687683167184069 $367 -32.300128088266476 $362 $524 forward 7 unknown #
edge $-1 $368 -6.316133532623212 $523 9.7385709978959816e-015 $230 $525 forward 7 unknown #
coedge $-1 $231 $515 $521 $526 forward $366 $-1 #
loop $-1 $-1 $515 $354 #
vertex $-1 $363 $527 #
vertex $-1 $232 $528 #
straight-curve $-1 49.600136092728704 -47.988832850499776 8.0959445495283902 0 1 0 I I #
coedge $-1 $370 $370 $-1 $529 reversed $235 $-1 #
edge $-1 $530 0 $530 6.2831853071796004 $236 $531 forward 7 unknown #
vertex $-1 $239 $532 #
ellipse-curve $-1 40.899420723579553 -19.267023217908374 5.902167010069598 0 -0.69465837861970381 0.71933979245794832 1.5 0 0 1 I I #
face $-1 $-1 $255 $36 $-1 $533 reversed single #
loop $-1 $-1 $390 $240 #
plane-surface $-1 0 21.538746310155311 0 0 -1 0 0 0 -1 forward_v I I I I #
coedge $-1 $534 $388 $391 $535 forward $241 $-1 #
coedge $-1 $394 $243 $244 $382 reversed $150 $-1 #
coedge $-1 $388 $534 $243 $380 reversed $241 $-1 #
edge $-1 $395 -8.0959445495283937 $536 8.0959445495283937 $379 $537 forward 7 unknown #
coedge $-1 $245 $244 $534 $538 forward $97 $-1 #
edge $-1 $386 -53.579515976439708 $536 53.579515976439708 $378 $539 forward 7 unknown #
coedge $-1 $391 $390 $245 $384 reversed $375 $-1 #
edge $-1 $540 -53.579515976439708 $385 53.579515976439708 $383 $541 forward 7 unknown #
vertex $-1 $247 $542 #
vertex $-1 $397 $543 #
straight-curve $-1 53.579515976439708 0 -8.0959445495283937 0 -1 0 I I #
coedge $-1 $377 $379 $248 $389 reversed $241 $-1 #
edge $-1 $392 -21.538746310155311 $395 21.538746310155311 $388 $544 forward 7 unknown #
coedge $-1 $383 $249 $254 $398 forward $375 $-1 #
coedge $-1 $249 $383 $377 $535 reversed $375 $-1 #
vertex $-1 $250 $545 #
straight-curve $-1 0 21.538746310155311 8.0959445495283937 -1 0 0 I I #
coedge $-1 $251 $378 $253 $397 reversed $150 $-1 #
vertex $-1 $389 $546 #
straight-curve $-1 0 -21.538746310155311 8.0959445495283937 1 0 0 I I #
edge $-1 $256 -8.0959445495283937 $386 8.0959445495283937 $253 $547 forward 7 unknown #
edge $-1 $257 -8.0959445495283937 $385 8.0959445495283937 $254 $548 forward 7 unknown #
point $-1 53.579515976439708 -21.538746310155311 8.0959445495283937 #
point $-1 53.579515976439708 21.538746310155311 8.0959445495283937 #
face $-1 $-1 $414 $37 $-1 $549 reversed single #
loop $-1 $-1 $410 $259 #
plane-surface $-1 -53.579515976439708 0 0 1 0 0 0 0 -1 forward_v I I I I #
coedge $-1 $550 $262 $407 $551 forward $158 $-1 #
coedge $-1 $262 $550 $552 $553 forward $158 $-1 #
edge $-1 $554 -21.538746310155311 $408 21.538746310155311 $262 $555 forward 7 unknown #
coedge $-1 $264 $417 $404 $551 reversed $260 $-1 #
vertex $-1 $551 $556 #
straight-curve $-1 -46.014849411684679 -21.538746310155311 -3.0796437405290149 0 0 1 I I #
coedge $-1 $557 $558 $266 $411 forward $402 $-1 #
edge $-1 $418 -21.538746310155311 $415 21.538746310155311 $410 $559 forward 7 unknown #
coedge $-1 $552 $267 $271 $420 forward $414 $-1 #
coedge $-1 $267 $552 $557 $560 reversed $414 $-1 #
loop $-1 $-1 $412 $401 #
vertex $-1 $560 $561 #
straight-curve $-1 -24.898591347031097 21.538746310155311 -4.2226304125876659 1 0 0 I I #
coedge $-1 $407 $269 $558 $562 forward $260 $-1 #
vertex $-1 $562 $563 #
straight-curve $-1 -24.898591347031097 -21.538746310155311 -4.2226304125876659 -1 0 0 I I #
edge $-1 $273 1.142986672058651 $554 5.0163008089993788 $412 $564 forward 7 unknown #
point $-1 -46.014849411684679 -21.538746310155311 -4.2226304125876659 #
point $-1 -46.014849411684679 21.538746310155311 -4.2226304125876659 #
plane-surface $-1 0 0 8.0959445495283937 0 0 1 1 0 0 forward_v I I I I #
coedge $-1 $434 $433 $426 $565 forward $276 $-1 #
coedge $-1 $426 $278 $280 $430 reversed $166 $-1 #
coedge $-1 $278 $425 $424 $565 reversed $166 $-1 #
coedge $-1 $286 $281 $278 $428 forward $287 $-1 #
edge $-1 $431 -25.809092542204365 $566 -21.605745312835531 $427 $567 forward 7 unknown #
coedge $-1 $280 $279 $434 $568 reversed $105 $-1 #
edge $-1 $569 -43.077492620310622 $431 -35.560681707192799 $425 $570 forward 7 unknown #
vertex $-1 $282 $571 #
straight-curve $-1 -5.5987036835078356 17.335399080786477 8.0959445495283937 1 0 0 I I #
coedge $-1 $424 $283 $286 $438 reversed $276 $-1 #
coedge $-1 $283 $424 $429 $568 forward $276 $-1 #
vertex $-1 $284 $572 #
straight-curve $-1 -20.650619913537327 21.538746310155311 48.749827502852462 0 0 1 I I #
straight-curve $-1 -20.650619913537327 -2.5498813467874726 37.577086077580205 0 0.55919289150049634 -0.82903758062907751 I I #
edge $-1 $566 1.7441948204940161 $288 20.650619913537327 $433 $573 forward 7 unknown #
point $-1 -20.650619913537327 21.538746310155311 8.0959445495283937 #
point $-1 -20.650619913537327 17.335399080786477 8.0959445495283937 #
edge $-1 $574 1 $574 0 $291 $-1 forward 7 unknown #
vertex $-1 $292 $575 #
ellipse-curve $-1 -11.197407367015671 18.452294863138501 4.3158441683818749 0 0.82903758062907751 0.55919289150049634 0.5 0 0 1 I I #
point $-1 -10.697407367015671 19.437072695470889 4.9800851827996757 #
loop $-1 $-1 $303 $295 #
plane-surface $-1 0 -21.538746310155311 0 0 1 0 0 0 1 forward_v I I I I #
coedge $-1 $448 $298 $300 $452 reversed $181 $-1 #
coedge $-1 $298 $447 $576 $577 reversed $181 $-1 #
coedge $-1 $306 $301 $298 $450 forward $296 $-1 #
edge $-1 $453 -30.993532724838342 $578 -26.450086540344465 $449 $579 forward 7 unknown #
coedge $-1 $300 $299 $456 $580 reversed $114 $-1 #
edge $-1 $581 -9.7385709978959816e-015 $453 6.316133532623212 $447 $582 forward 7 unknown #
vertex $-1 $302 $583 #
straight-curve $-1 -16.667377079412262 -16.995300125661437 8.0959445495283937 -1 0 0 I I #
coedge $-1 $576 $303 $306 $460 reversed $445 $-1 #
coedge $-1 $303 $576 $451 $580 forward $445 $-1 #
vertex $-1 $304 $584 #
straight-curve $-1 -24.634038789675376 -21.538746310155311 40.396072637794873 0 0 1 I I #
straight-curve $-1 -24.634038789675376 -21.538746310155304 3.7083894706108111 0 -0.71933979245794832 -0.69465837861970381 I I #
edge $-1 $578 -42.035469527973675 $307 -24.634038789675376 $455 $585 forward 7 unknown #
point $-1 -24.634038789675376 -21.538746310155311 8.0959445495283937 #
point $-1 -24.634038789675376 -16.995300125661434 8.0959445495283937 #
edge $-1 $586 1 $586 0 $310 $-1 forward 7 unknown #
vertex $-1 $311 $587 #
ellipse-curve $-1 -33.334754158824524 -16.562504687763024 3.1015561514787851 0 -0.69465837861970381 0.71933979245794832 1.5 0 0 1 I I #
point $-1 -31.834754158824524 -19.267023217908381 5.9021670100696042 #
plane-surface $-1 0 0 8.0959445495283937 0 0 1 1 0 0 forward_v I I I I #
coedge $-1 $478 $477 $470 $588 forward $315 $-1 #
coedge $-1 $470 $317 $319 $474 reversed $196 $-1 #
coedge $-1 $317 $469 $468 $588 reversed $196 $-1 #
coedge $-1 $325 $320 $317 $472 forward $326 $-1 #
edge $-1 $475 -30.993532724838342 $589 -26.450086540344465 $471 $590 forward 7 unknown #
coedge $-1 $319 $318 $478 $591 reversed $123 $-1 #
edge $-1 $592 -9.7385709978959816e-015 $475 6.316133532623212 $469 $593 forward 7 unknown #
vertex $-1 $321 $594 #
straight-curve $-1 -4.2950145990115836 -16.995300125661437 8.0959445495283937 -1 0 0 I I #
coedge $-1 $468 $322 $325 $482 reversed $315 $-1 #
coedge $-1 $322 $468 $473 $591 forward $315 $-1 #
vertex $-1 $323 $595 #
straight-curve $-1 0.11068617112598034 -21.538746310155311 40.396072637794873 0 0 1 I I #
straight-curve $-1 0.11068617112598034 -21.538746310155304 3.7083894706108111 0 -0.71933979245794832 -0.69465837861970381 I I #
edge $-1 $589 -17.290744567172315 $327 0.11068617112598034 $477 $596 forward 7 unknown #
point $-1 0.11068617112598034 -21.538746310155311 8.0959445495283937 #
point $-1 0.11068617112598034 -16.995300125661434 8.0959445495283937 #
edge $-1 $597 1 $597 0 $330 $-1 forward 7 unknown #
vertex $-1 $331 $598 #
ellipse-curve $-1 -8.5900291980231671 -16.562504687763024 3.1015561514787851 0 -0.69465837861970381 0.71933979245794832 1.5 0 0 1 I I #
point $-1 -7.0900291980231671 -19.267023217908381 5.9021670100696042 #
plane-surface $-1 0 0 8.0959445495283937 0 0 1 1 0 0 forward_v I I I I #
coedge $-1 $500 $499 $492 $599 forward $335 $-1 #
coedge $-1 $492 $337 $339 $496 reversed $211 $-1 #
coedge $-1 $337 $491 $490 $599 reversed $211 $-1 #
coedge $-1 $345 $340 $337 $494 forward $346 $-1 #
edge $-1 $497 -30.993532724838342 $600 -26.450086540344465 $493 $601 forward 7 unknown #
coedge $-1 $339 $338 $500 $602 reversed $132 $-1 #
edge $-1 $603 -9.7385709978959816e-015 $497 6.316133532623212 $491 $604 forward 7 unknown #
vertex $-1 $341 $605 #
straight-curve $-1 8.0773478813890947 -16.995300125661437 8.0959445495283937 -1 0 0 I I #
coedge $-1 $490 $342 $345 $504 reversed $335 $-1 #
coedge $-1 $342 $490 $495 $602 forward $335 $-1 #
vertex $-1 $343 $606 #
straight-curve $-1 24.855411131927337 -21.538746310155311 40.396072637794873 0 0 1 I I #
straight-curve $-1 24.855411131927337 -21.538746310155304 3.7083894706108111 0 -0.71933979245794832 -0.69465837861970381 I I #
edge $-1 $600 7.4539803936290419 $347 24.855411131927337 $499 $607 forward 7 unknown #
point $-1 24.855411131927337 -21.538746310155311 8.0959445495283937 #
point $-1 24.855411131927337 -16.995300125661434 8.0959445495283937 #
edge $-1 $608 1 $608 0 $350 $-1 forward 7 unknown #
vertex $-1 $351 $609 #
ellipse-curve $-1 16.154695762778189 -16.562504687763024 3.1015561514787851 0 -0.69465837861970381 0.71933979245794832 1.5 0 0 1 I I #
point $-1 17.654695762778189 -19.267023217908381 5.9021670100696042 #
plane-surface $-1 0 0 8.0959445495283937 0 0 1 1 0 0 forward_v I I I I #
coedge $-1 $522 $521 $514 $610 forward $355 $-1 #
coedge $-1 $514 $357 $359 $518 reversed $226 $-1 #
coedge $-1 $357 $513 $512 $610 reversed $226 $-1 #
coedge $-1 $365 $360 $357 $516 forward $366 $-1 #
edge $-1 $519 -30.993532724838342 $611 -26.450086540344465 $515 $612 forward 7 unknown #
coedge $-1 $359 $358 $522 $613 reversed $141 $-1 #
edge $-1 $614 -9.7385709978959816e-015 $519 6.316133532623212 $513 $615 forward 7 unknown #
vertex $-1 $361 $616 #
straight-curve $-1 20.449710361789776 -16.995300125661437 8.0959445495283937 -1 0 0 I I #
coedge $-1 $512 $362 $365 $526 reversed $355 $-1 #
coedge $-1 $362 $512 $517 $613 forward $355 $-1 #
vertex $-1 $363 $617 #
straight-curve $-1 49.600136092728704 -21.538746310155311 40.396072637794873 0 0 1 I I #
straight-curve $-1 49.600136092728704 -21.538746310155304 3.7083894706108111 0 -0.71933979245794832 -0.69465837861970381 I I #
edge $-1 $611 32.198705354430402 $367 49.600136092728704 $521 $618 forward 7 unknown #
point $-1 49.600136092728704 -21.538746310155311 8.0959445495283937 #
point $-1 49.600136092728704 -16.995300125661434 8.0959445495283937 #
edge $-1 $619 1 $619 0 $370 $-1 forward 7 unknown #
vertex $-1 $371 $620 #
ellipse-curve $-1 40.899420723579553 -16.562504687763024 3.1015561514787851 0 -0.69465837861970381 0.71933979245794832 1.5 0 0 1 I I #
point $-1 42.399420723579553 -19.267023217908381 5.9021670100696042 #
plane-surface $-1 53.579515976439708 0 0 -1 0 0 0 0 1 forward_v I I I I #
coedge $-1 $379 $377 $381 $538 reversed $241 $-1 #
edge $-1 $392 -8.0959445495283937 $540 8.0959445495283937 $391 $621 forward 7 unknown #
vertex $-1 $538 $622 #
straight-curve $-1 -53.579515976439708 -21.538746310155311 0 0 0 -1 I I #
edge $-1 $536 -21.538746310155311 $540 21.538746310155311 $534 $623 forward 7 unknown #
straight-curve $-1 0 -21.538746310155311 -8.0959445495283937 -1 0 0 I I #
vertex $-1 $384 $624 #
straight-curve $-1 0 21.538746310155311 -8.0959445495283937 1 0 0 I I #
point $-1 53.579515976439708 21.538746310155311 -8.0959445495283937 #
point $-1 53.579515976439708 -21.538746310155311 -8.0959445495283937 #
straight-curve $-1 -53.579515976439708 0 8.0959445495283937 0 -1 0 I I #
point $-1 -53.579515976439708 21.538746310155311 8.0959445495283937 #
point $-1 -53.579515976439708 -21.538746310155311 8.0959445495283937 #
straight-curve $-1 53.579515976439708 -21.538746310155311 0 0 0 -1 I I #
straight-curve $-1 53.579515976439708 21.538746310155311 0 0 0 -1 I I #
plane-surface $-1 0 21.538746310155311 0 0 -1 0 0 0 -1 forward_v I I I I #
coedge $-1 $405 $404 $625 $626 forward $158 $-1 #
edge $-1 $408 46.014849411684679 $627 53.579515976439708 $407 $628 forward 7 unknown #
coedge $-1 $413 $412 $405 $553 reversed $414 $-1 #
edge $-1 $629 -53.579515976439708 $554 -46.014849411684679 $552 $630 forward 7 unknown #
vertex $-1 $420 $631 #
straight-curve $-1 -46.014849411684679 0 -8.0959445495283937 0 -1 0 I I #
point $-1 -46.014849411684679 -21.538746310155311 -8.0959445495283937 #
coedge $-1 $625 $410 $413 $560 forward $402 $-1 #
coedge $-1 $410 $625 $417 $562 reversed $402 $-1 #
straight-curve $-1 -53.579515976439708 0 -4.2226304125876659 0 1 0 I I #
edge $-1 $415 4.2226304125876659 $629 8.0959445495283937 $413 $632 forward 7 unknown #
point $-1 -53.579515976439708 21.538746310155311 -4.2226304125876659 #
edge $-1 $418 4.2226304125876659 $627 8.0959445495283937 $558 $633 forward 7 unknown #
point $-1 -53.579515976439708 -21.538746310155311 -4.2226304125876659 #
straight-curve $-1 -46.014849411684679 21.538746310155311 -3.0796437405290149 0 0 -1 I I #
edge $-1 $566 40.653882953324072 $569 46.885601686781513 $424 $634 forward 7 unknown #
vertex $-1 $438 $635 #
straight-curve $-1 -1.7441948204940161 43.144491622990842 8.0959445495283973 0 1 0 I I #
edge $-1 $569 -3.8545088630138196 $435 15.051916230029491 $434 $636 forward 7 unknown #
vertex $-1 $568 $637 #
straight-curve $-1 -1.7441948204940161 -2.5498813467874726 37.577086077580205 0 -0.55919289150049634 0.82903758062907751 I I #
point $-1 -1.7441948204940161 17.335399080786477 8.0959445495283937 #
point $-1 -20.650619913537327 21.538746310155311 1.8642258160709488 #
straight-curve $-1 0 21.538746310155311 8.0959445495283937 -1 0 0 I I #
vertex $-1 $441 $638 #
point $-1 -10.697407367015671 18.452294863138501 4.3158441683818749 #
coedge $-1 $456 $455 $448 $577 forward $445 $-1 #
edge $-1 $578 32.300128088266476 $581 36.687683167184069 $576 $639 forward 7 unknown #
vertex $-1 $460 $640 #
straight-curve $-1 -42.035469527973675 -47.988832850499776 8.0959445495283902 0 -1 0 I I #
edge $-1 $581 -25.368092448561413 $457 -7.9666617102631143 $456 $641 forward 7 unknown #
vertex $-1 $580 $642 #
straight-curve $-1 -42.035469527973675 -21.538746310155304 3.7083894706108111 0 0.71933979245794832 0.69465837861970381 I I #
point $-1 -42.035469527973675 -16.995300125661434 8.0959445495283937 #
point $-1 -24.634038789675376 -21.538746310155311 3.7083894706108045 #
straight-curve $-1 0 -21.538746310155311 8.0959445495283937 1 0 0 I I #
vertex $-1 $463 $643 #
point $-1 -31.834754158824524 -16.562504687763024 3.1015561514787851 #
edge $-1 $589 32.300128088266476 $592 36.687683167184069 $468 $644 forward 7 unknown #
vertex $-1 $482 $645 #
straight-curve $-1 -17.290744567172315 -47.988832850499776 8.0959445495283902 0 -1 0 I I #
edge $-1 $592 -12.995729968160731 $479 4.4057007701375639 $478 $646 forward 7 unknown #
vertex $-1 $591 $647 #
straight-curve $-1 -17.290744567172315 -21.538746310155304 3.7083894706108111 0 0.71933979245794832 0.69465837861970381 I I #
point $-1 -17.290744567172315 -16.995300125661434 8.0959445495283937 #
point $-1 0.11068617112598034 -21.538746310155311 3.7083894706108045 #
straight-curve $-1 0 -21.538746310155311 8.0959445495283937 1 0 0 I I #
vertex $-1 $485 $648 #
point $-1 -7.0900291980231671 -16.562504687763024 3.1015561514787851 #
edge $-1 $600 32.300128088266476 $603 36.687683167184069 $490 $649 forward 7 unknown #
vertex $-1 $504 $650 #
straight-curve $-1 7.4539803936290419 -47.988832850499776 8.0959445495283902 0 -1 0 I I #
edge $-1 $603 -0.6233674877600528 $501 16.778063250538242 $500 $651 forward 7 unknown #
vertex $-1 $602 $652 #
straight-curve $-1 7.4539803936290419 -21.538746310155304 3.7083894706108111 0 0.71933979245794832 0.69465837861970381 I I #
point $-1 7.4539803936290419 -16.995300125661434 8.0959445495283937 #
point $-1 24.855411131927337 -21.538746310155311 3.7083894706108045 #
straight-curve $-1 0 -21.538746310155311 8.0959445495283937 1 0 0 I I #
vertex $-1 $507 $653 #
point $-1 17.654695762778189 -16.562504687763024 3.1015561514787851 #
edge $-1 $611 32.300128088266476 $614 36.687683167184069 $512 $654 forward 7 unknown #
vertex $-1 $526 $655 #
straight-curve $-1 32.198705354430402 -47.988832850499776 8.0959445495283902 0 -1 0 I I #
edge $-1 $614 11.748994992640625 $523 29.150425730938927 $522 $656 forward 7 unknown #
vertex $-1 $613 $657 #
straight-curve $-1 32.198705354430402 -21.538746310155304 3.7083894706108111 0 0.71933979245794832 0.69465837861970381 I I #
point $-1 32.198705354430402 -16.995300125661434 8.0959445495283937 #
point $-1 49.600136092728704 -21.538746310155311 3.7083894706108045 #
straight-curve $-1 0 -21.538746310155311 8.0959445495283937 1 0 0 I I #
vertex $-1 $529 $658 #
point $-1 42.399420723579553 -16.562504687763024 3.1015561514787851 #
straight-curve $-1 -53.579515976439708 21.538746310155311 0 0 0 -1 I I #
point $-1 -53.579515976439708 -21.538746310155311 -8.0959445495283937 #
straight-curve $-1 -53.579515976439708 0 -8.0959445495283937 0 1 0 I I #
point $-1 -53.579515976439708 21.538746310155311 -8.0959445495283937 #
coedge $-1 $558 $557 $550 $626 reversed $402 $-1 #
edge $-1 $627 -21.538746310155311 $629 21.538746310155311 $625 $659 forward 7 unknown #
vertex $-1 $626 $660 #
straight-curve $-1 0 -21.538746310155311 -8.0959445495283937 -1 0 0 I I #
vertex $-1 $553 $661 #
straight-curve $-1 0 21.538746310155311 -8.0959445495283937 1 0 0 I I #
point $-1 -46.014849411684679 21.538746310155311 -8.0959445495283937 #
straight-curve $-1 -53.579515976439708 21.538746310155311 0 0 0 -1 I I #
straight-curve $-1 -53.579515976439708 -21.538746310155311 0 0 0 -1 I I #
straight-curve $-1 -1.7441948204940161 21.538746310155311 48.749827502852462 0 0 -1 I I #
point $-1 -1.7441948204940161 21.538746310155311 8.0959445495283937 #
straight-curve $-1 -5.5987036835078356 21.538746310155311 1.8642258160709524 -1 0 0 I I #
point $-1 -1.7441948204940161 21.538746310155311 1.8642258160709488 #
point $-1 -11.197407367015671 18.037776072823963 4.036247722631626 #
straight-curve $-1 -42.035469527973675 -21.538746310155311 40.396072637794873 0 0 -1 I I #
point $-1 -42.035469527973675 -21.538746310155311 8.0959445495283937 #
straight-curve $-1 -16.667377079412262 -21.538746310155311 3.7083894706108049 1 0 0 I I #
point $-1 -42.035469527973675 -21.538746310155311 3.7083894706108045 #
point $-1 -33.334754158824524 -15.520517119833469 2.0225464627918623 #
straight-curve $-1 -17.290744567172315 -21.538746310155311 40.396072637794873 0 0 -1 I I #
point $-1 -17.290744567172315 -21.538746310155311 8.0959445495283937 #
straight-curve $-1 -4.2950145990115836 -21.538746310155311 3.7083894706108049 1 0 0 I I #
point $-1 -17.290744567172315 -21.538746310155311 3.7083894706108045 #
point $-1 -8.5900291980231671 -15.520517119833469 2.0225464627918623 #
straight-curve $-1 7.4539803936290419 -21.538746310155311 40.396072637794873 0 0 -1 I I #
point $-1 7.4539803936290419 -21.538746310155311 8.0959445495283937 #
straight-curve $-1 8.0773478813890947 -21.538746310155311 3.7083894706108049 1 0 0 I I #
point $-1 7.4539803936290419 -21.538746310155311 3.7083894706108045 #
point $-1 16.154695762778189 -15.520517119833469 2.0225464627918623 #
straight-curve $-1 32.198705354430402 -21.538746310155311 40.396072637794873 0 0 -1 I I #
point $-1 32.198705354430402 -21.538746310155311 8.0959445495283937 #
straight-curve $-1 20.449710361789776 -21.538746310155311 3.7083894706108049 1 0 0 I I #
point $-1 32.198705354430402 -21.538746310155311 3.7083894706108045 #
point $-1 40.899420723579553 -15.520517119833469 2.0225464627918623 #
straight-curve $-1 -53.579515976439708 0 -8.0959445495283937 0 1 0 I I #
point $-1 -53.579515976439708 -21.538746310155311 -8.0959445495283937 #
point $-1 -53.579515976439708 21.538746310155311 -8.0959445495283937 #
End-of-ACIS-data 