500 0 18 0           
7 Unknown 11 ACIS 5.0 NT 24 Fri Mar 26 01:11:27 1999 
-1 9.9999999999999995e-007 1e-010 
body $-1 $18 $-1 $19 #
body $-1 $20 $-1 $21 #
body $-1 $22 $-1 $23 #
body $-1 $24 $-1 $25 #
body $-1 $26 $-1 $27 #
body $-1 $28 $-1 $29 #
body $-1 $30 $-1 $31 #
body $-1 $32 $-1 $33 #
body $-1 $34 $-1 $35 #
body $-1 $36 $-1 $37 #
body $-1 $38 $-1 $39 #
body $-1 $40 $-1 $41 #
body $-1 $42 $-1 $43 #
body $-1 $44 $-1 $45 #
body $-1 $46 $-1 $47 #
body $-1 $48 $-1 $49 #
body $-1 $50 $-1 $51 #
body $-1 $52 $-1 $53 #
lump $-1 $-1 $54 $0 #
transform $-1 1 0 0 0 1 0 0 0 1 72.670674764244524 35.826130346816299 9.3340151607034763 1 rotate no_reflect no_shear #
lump $-1 $-1 $55 $1 #
transform $-1 1 0 0 0 1 0 0 0 1 72.670674764244524 35.826130346816299 9.3340151607034763 1 rotate no_reflect no_shear #
lump $-1 $-1 $56 $2 #
transform $-1 1 0 0 0 1 0 0 0 1 72.670674764244524 35.826130346816299 9.3340151607034763 1 rotate no_reflect no_shear #
lump $-1 $-1 $57 $3 #
transform $-1 1 0 0 0 1 0 0 0 1 72.670674764244524 35.826130346816299 9.3340151607034763 1 rotate no_reflect no_shear #
lump $-1 $-1 $58 $4 #
transform $-1 1 0 0 0 1 0 0 0 1 72.670674764244524 35.826130346816299 9.3340151607034763 1 rotate no_reflect no_shear #
lump $-1 $-1 $59 $5 #
transform $-1 1 0 0 0 1 0 0 0 1 72.670674764244524 35.826130346816299 9.3340151607034763 1 rotate no_reflect no_shear #
lump $-1 $-1 $60 $6 #
transform $-1 1 0 0 0 1 0 0 0 1 72.670674764244524 35.826130346816299 9.3340151607034763 1 rotate no_reflect no_shear #
lump $-1 $-1 $61 $7 #
transform $-1 1 0 0 0 1 0 0 0 1 72.670674764244524 35.826130346816299 9.3340151607034763 1 rotate no_reflect no_shear #
lump $-1 $-1 $62 $8 #
transform $-1 1 0 0 0 1 0 0 0 1 72.670674764244524 35.826130346816299 9.3340151607034763 1 rotate no_reflect no_shear #
lump $-1 $-1 $63 $9 #
transform $-1 1 0 0 0 1 0 0 0 1 72.670674764244524 35.826130346816299 9.3340151607034763 1 rotate no_reflect no_shear #
lump $-1 $-1 $64 $10 #
transform $-1 1 0 0 0 1 0 0 0 1 72.670674764244524 35.826130346816299 9.3340151607034763 1 rotate no_reflect no_shear #
lump $-1 $-1 $65 $11 #
transform $-1 1 0 0 0 1 0 0 0 1 72.670674764244524 35.826130346816299 9.3340151607034763 1 rotate no_reflect no_shear #
lump $-1 $-1 $66 $12 #
transform $-1 1 0 0 0 1 0 0 0 1 72.670674764244524 35.826130346816299 9.3340151607034763 1 rotate no_reflect no_shear #
lump $-1 $-1 $67 $13 #
transform $-1 1 0 0 0 1 0 0 0 1 72.670674764244524 35.826130346816299 9.3340151607034763 1 rotate no_reflect no_shear #
lump $-1 $-1 $68 $14 #
transform $-1 1 0 0 0 1 0 0 0 1 72.670674764244524 35.826130346816299 9.3340151607034763 1 rotate no_reflect no_shear #
lump $-1 $-1 $69 $15 #
transform $-1 1 0 0 0 1 0 0 0 1 72.670674764244524 35.826130346816299 9.3340151607034763 1 rotate no_reflect no_shear #
lump $-1 $-1 $70 $16 #
transform $-1 1 0 0 0 1 0 0 0 1 72.670674764244524 35.826130346816299 9.3340151607034763 1 rotate no_reflect no_shear #
lump $-1 $-1 $71 $17 #
transform $-1 1 0 0 0 1 0 0 0 1 72.670674764244524 35.826130346816299 9.3340151607034763 1 rotate no_reflect no_shear #
shell $-1 $-1 $-1 $72 $-1 $18 #
shell $-1 $-1 $-1 $73 $-1 $20 #
shell $-1 $-1 $-1 $74 $-1 $22 #
shell $-1 $-1 $-1 $75 $-1 $24 #
shell $-1 $-1 $-1 $76 $-1 $26 #
shell $-1 $-1 $-1 $77 $-1 $28 #
shell $-1 $-1 $-1 $78 $-1 $30 #
shell $-1 $-1 $-1 $79 $-1 $32 #
shell $-1 $-1 $-1 $80 $-1 $34 #
shell $-1 $-1 $-1 $81 $-1 $36 #
shell $-1 $-1 $-1 $82 $-1 $38 #
shell $-1 $-1 $-1 $83 $-1 $40 #
shell $-1 $-1 $-1 $84 $-1 $42 #
shell $-1 $-1 $-1 $85 $-1 $44 #
shell $-1 $-1 $-1 $86 $-1 $46 #
shell $-1 $-1 $-1 $87 $-1 $48 #
shell $-1 $-1 $-1 $88 $-1 $50 #
shell $-1 $-1 $-1 $89 $-1 $52 #
face $-1 $90 $91 $54 $-1 $92 forward single #
face $-1 $93 $94 $55 $-1 $95 forward single #
face $-1 $96 $97 $56 $-1 $98 reversed single #
face $-1 $99 $100 $57 $-1 $101 forward single #
face $-1 $102 $103 $58 $-1 $104 forward single #
face $-1 $105 $106 $59 $-1 $107 forward single #
face $-1 $108 $109 $60 $-1 $110 reversed single #
face $-1 $111 $112 $61 $-1 $113 forward single #
face $-1 $114 $115 $62 $-1 $116 forward single #
face $-1 $117 $118 $63 $-1 $119 reversed single #
face $-1 $120 $121 $64 $-1 $122 forward single #
face $-1 $123 $124 $65 $-1 $125 forward single #
face $-1 $126 $127 $66 $-1 $128 reversed single #
face $-1 $129 $130 $67 $-1 $131 forward single #
face $-1 $132 $133 $68 $-1 $134 forward single #
face $-1 $135 $136 $69 $-1 $137 reversed single #
face $-1 $138 $139 $70 $-1 $140 forward single #
face $-1 $141 $142 $71 $-1 $143 forward single #
face $-1 $144 $145 $54 $-1 $146 reversed single #
loop $-1 $-1 $147 $72 #
plane-surface $-1 0 0 9.3340151607034763 0 0 1 1 0 0 forward_v I I I I #
face $-1 $148 $149 $55 $-1 $150 reversed single #
loop $-1 $-1 $151 $73 #
plane-surface $-1 0 -30.913393786146628 -4.0716781854008968 0 0 1 1 0 0 forward_v I I I I #
face $-1 $152 $153 $56 $-1 $154 reversed single #
loop $-1 $-1 $155 $74 #
plane-surface $-1 65.497305093409068 -5.0206268585232934 211.72196910105077 0 -1 0 -0.68199836817093118 0 -0.7313536940579346 forward_v I I I I #
face $-1 $156 $157 $57 $-1 $158 forward single #
loop $-1 $159 $160 $75 #
cone-surface $-1 70.704746332065881 -17.802527896174777 7.4530672422399533 -0.68199836817093118 0 -0.7313536940579346 0.3656768470289673 0 -0.34099918408546559 1 I I 0 1 0.5 forward I I I I #
face $-1 $161 $162 $58 $-1 $163 forward single #
loop $-1 $164 $165 $76 #
cone-surface $-1 70.704746332065881 -13.00931500705547 7.4530672422399533 -0.68199836817093118 0 -0.7313536940579346 0.3656768470289673 0 -0.34099918408546559 1 I I 0 1 0.5 forward I I I I #
face $-1 $166 $167 $59 $-1 $168 forward single #
loop $-1 $169 $170 $77 #
cone-surface $-1 70.704746332065881 -8.2161021179361633 7.4530672422399533 -0.68199836817093118 0 -0.7313536940579346 0.3656768470289673 0 -0.34099918408546559 1 I I 0 1 0.5 forward I I I I #
face $-1 $171 $172 $60 $-1 $173 reversed single #
loop $-1 $-1 $174 $78 #
plane-surface $-1 -166.09429456454816 -26.000657225476957 113.86713091528148 0 1 0 -0.64278761758704617 0 0.76604443648966558 forward_v I I I I #
face $-1 $175 $176 $61 $-1 $177 forward single #
loop $-1 $178 $179 $79 #
cone-surface $-1 -67.813902937824196 -23.269128838717673 4.9758924528644677 0.64278761758704617 0 -0.76604443648966558 0.76604443648966558 0 0.64278761758704617 1 I I 0 1 1 forward I I I I #
face $-1 $180 $181 $62 $-1 $182 forward single #
loop $-1 $183 $184 $80 #
cone-surface $-1 -67.813902937824196 -19.171836258578743 4.9758924528644677 0.64278761758704617 0 -0.76604443648966558 0.76604443648966558 0 0.64278761758704617 1 I I 0 1 1 forward I I I I #
face $-1 $185 $186 $63 $-1 $187 reversed single #
loop $-1 $-1 $188 $81 #
plane-surface $-1 -166.09429456454816 -10.543960332403644 113.86713091528148 0 1 0 -0.64278761758704617 0 0.76604443648966558 forward_v I I I I #
face $-1 $189 $190 $64 $-1 $191 forward single #
loop $-1 $192 $193 $82 #
cone-surface $-1 -67.813902937824196 -7.8124319456443594 4.9758924528644677 0.64278761758704617 0 -0.76604443648966558 0.76604443648966558 0 0.64278761758704617 1 I I 0 1 1 forward I I I I #
face $-1 $194 $195 $65 $-1 $196 forward single #
loop $-1 $197 $198 $83 #
cone-surface $-1 -67.813902937824196 -3.7151393655054292 4.9758924528644677 0.64278761758704617 0 -0.76604443648966558 0.76604443648966558 0 0.64278761758704617 1 I I 0 1 1 forward I I I I #
face $-1 $199 $200 $66 $-1 $201 reversed single #
loop $-1 $-1 $202 $84 #
plane-surface $-1 -166.09429456454816 4.9127365606696696 113.86713091528148 0 1 0 -0.64278761758704617 0 0.76604443648966558 forward_v I I I I #
face $-1 $203 $204 $67 $-1 $205 forward single #
loop $-1 $206 $207 $85 #
cone-surface $-1 -67.813902937824196 7.644264947428951 4.9758924528644677 0.64278761758704617 0 -0.76604443648966558 0.76604443648966558 0 0.64278761758704617 1 I I 0 1 1 forward I I I I #
face $-1 $208 $209 $68 $-1 $210 forward single #
loop $-1 $211 $212 $86 #
cone-surface $-1 -67.813902937824196 11.741557527567885 4.9758924528644677 0.64278761758704617 0 -0.76604443648966558 0.76604443648966558 0 0.64278761758704617 1 I I 0 1 1 forward I I I I #
face $-1 $213 $214 $69 $-1 $215 reversed single #
loop $-1 $-1 $216 $87 #
plane-surface $-1 -166.09429456454816 20.369433453742985 113.86713091528148 0 1 0 -0.64278761758704617 0 0.76604443648966558 forward_v I I I I #
face $-1 $217 $218 $70 $-1 $219 forward single #
loop $-1 $220 $221 $88 #
cone-surface $-1 -67.813902937824196 23.100961840502265 4.9758924528644677 0.64278761758704617 0 -0.76604443648966558 0.76604443648966558 0 0.64278761758704617 1 I I 0 1 1 forward I I I I #
face $-1 $222 $223 $71 $-1 $224 forward single #
loop $-1 $225 $226 $89 #
cone-surface $-1 -67.813902937824196 27.198254420641199 4.9758924528644677 0.64278761758704617 0 -0.76604443648966558 0.76604443648966558 0 0.64278761758704617 1 I I 0 1 1 forward I I I I #
face $-1 $227 $228 $54 $-1 $229 reversed single #
loop $-1 $-1 $230 $90 #
plane-surface $-1 0 0 -9.3340151607034763 0 0 1 1 0 0 forward_v I I I I #
coedge $-1 $231 $232 $233 $234 forward $91 $-1 #
face $-1 $235 $236 $55 $-1 $237 reversed single #
loop $-1 $-1 $238 $93 #
plane-surface $-1 0 -26.000657225476957 -6.7028466730521865 0 -1 0 0 0 -1 forward_v I I I I #
coedge $-1 $239 $240 $241 $242 reversed $94 $-1 #
face $-1 $243 $244 $56 $-1 $245 reversed single #
loop $-1 $-1 $246 $96 #
plane-surface $-1 -33.625258112781395 -13.00931500705547 105.42603622402486 0.68199836817093118 0 0.7313536940579346 0.7313536940579346 0 -0.68199836817093118 forward_v I I I I #
coedge $-1 $247 $248 $249 $250 reversed $97 $-1 #
face $-1 $-1 $251 $57 $-1 $252 forward single #
loop $-1 $253 $254 $99 #
cone-surface $-1 70.193247555937688 -17.802527896174777 6.9045519716965025 -0.68199836817093118 0 -0.7313536940579346 0.18283842351448365 0 -0.17049959204273279 1 I I -0.70710678118654746 0.70710678118654746 0.25 forward I I I I #
loop $-1 $-1 $255 $75 #
coedge $-1 $160 $160 $256 $257 reversed $100 $-1 #
face $-1 $-1 $258 $58 $-1 $259 forward single #
loop $-1 $260 $261 $102 #
cone-surface $-1 70.193247555937688 -13.00931500705547 6.9045519716965025 -0.68199836817093118 0 -0.7313536940579346 0.18283842351448365 0 -0.17049959204273279 1 I I -0.70710678118654746 0.70710678118654746 0.25 forward I I I I #
loop $-1 $-1 $262 $76 #
coedge $-1 $165 $165 $263 $264 reversed $103 $-1 #
face $-1 $-1 $265 $59 $-1 $266 forward single #
loop $-1 $267 $268 $105 #
cone-surface $-1 70.193247555937688 -8.2161021179361633 6.9045519716965025 -0.68199836817093118 0 -0.7313536940579346 0.18283842351448365 0 -0.17049959204273279 1 I I -0.70710678118654746 0.70710678118654746 0.25 forward I I I I #
loop $-1 $-1 $269 $77 #
coedge $-1 $170 $170 $270 $271 reversed $106 $-1 #
face $-1 $272 $273 $60 $-1 $274 reversed single #
loop $-1 $-1 $275 $108 #
plane-surface $-1 -72.670674764244538 -21.220482548648206 2.5291987170825649 -0.64278761758704617 0 0.76604443648966558 0.76604443648966558 0 0.64278761758704617 forward_v I I I I #
coedge $-1 $276 $277 $278 $279 reversed $109 $-1 #
face $-1 $-1 $280 $61 $-1 $281 forward single #
loop $-1 $282 $283 $111 #
cone-surface $-1 -66.690569439496741 -23.269128838717673 3.6371557485910841 0.64278761758704617 0 -0.76604443648966558 0.38302221824483279 0 0.32139380879352308 1 I I -0.70710678118654746 0.70710678118654746 0.5 forward I I I I #
loop $-1 $-1 $284 $79 #
coedge $-1 $179 $179 $285 $286 reversed $112 $-1 #
face $-1 $-1 $287 $62 $-1 $288 forward single #
loop $-1 $289 $290 $114 #
cone-surface $-1 -66.690569439496741 -19.171836258578743 3.6371557485910841 0.64278761758704617 0 -0.76604443648966558 0.38302221824483279 0 0.32139380879352308 1 I I -0.70710678118654746 0.70710678118654746 0.5 forward I I I I #
loop $-1 $-1 $291 $80 #
coedge $-1 $184 $184 $292 $293 reversed $115 $-1 #
face $-1 $294 $295 $63 $-1 $296 reversed single #
loop $-1 $-1 $297 $117 #
plane-surface $-1 -72.670674764244538 -5.7637856555748925 2.5291987170825649 -0.64278761758704617 0 0.76604443648966558 0.76604443648966558 0 0.64278761758704617 forward_v I I I I #
coedge $-1 $298 $299 $300 $301 reversed $118 $-1 #
face $-1 $-1 $302 $64 $-1 $303 forward single #
loop $-1 $304 $305 $120 #
cone-surface $-1 -66.690569439496741 -7.8124319456443594 3.6371557485910841 0.64278761758704617 0 -0.76604443648966558 0.38302221824483279 0 0.32139380879352308 1 I I -0.70710678118654746 0.70710678118654746 0.5 forward I I I I #
loop $-1 $-1 $306 $82 #
coedge $-1 $193 $193 $307 $308 reversed $121 $-1 #
face $-1 $-1 $309 $65 $-1 $310 forward single #
loop $-1 $311 $312 $123 #
cone-surface $-1 -66.690569439496741 -3.7151393655054292 3.6371557485910841 0.64278761758704617 0 -0.76604443648966558 0.38302221824483279 0 0.32139380879352308 1 I I -0.70710678118654746 0.70710678118654746 0.5 forward I I I I #
loop $-1 $-1 $313 $83 #
coedge $-1 $198 $198 $314 $315 reversed $124 $-1 #
face $-1 $316 $317 $66 $-1 $318 reversed single #
loop $-1 $-1 $319 $126 #
plane-surface $-1 -72.670674764244538 9.6929112374984214 2.5291987170825649 -0.64278761758704617 0 0.76604443648966558 0.76604443648966558 0 0.64278761758704617 forward_v I I I I #
coedge $-1 $320 $321 $322 $323 reversed $127 $-1 #
face $-1 $-1 $324 $67 $-1 $325 forward single #
loop $-1 $326 $327 $129 #
cone-surface $-1 -66.690569439496741 7.644264947428951 3.6371557485910841 0.64278761758704617 0 -0.76604443648966558 0.38302221824483279 0 0.32139380879352308 1 I I -0.70710678118654746 0.70710678118654746 0.5 forward I I I I #
loop $-1 $-1 $328 $85 #
coedge $-1 $207 $207 $329 $330 reversed $130 $-1 #
face $-1 $-1 $331 $68 $-1 $332 forward single #
loop $-1 $333 $334 $132 #
cone-surface $-1 -66.690569439496741 11.741557527567885 3.6371557485910841 0.64278761758704617 0 -0.76604443648966558 0.38302221824483279 0 0.32139380879352308 1 I I -0.70710678118654746 0.70710678118654746 0.5 forward I I I I #
loop $-1 $-1 $335 $86 #
coedge $-1 $212 $212 $336 $337 reversed $133 $-1 #
face $-1 $338 $339 $69 $-1 $340 reversed single #
loop $-1 $-1 $341 $135 #
plane-surface $-1 -72.670674764244538 25.149608130571735 2.5291987170825649 -0.64278761758704617 0 0.76604443648966558 0.76604443648966558 0 0.64278761758704617 forward_v I I I I #
coedge $-1 $342 $343 $344 $345 reversed $136 $-1 #
face $-1 $-1 $346 $70 $-1 $347 forward single #
loop $-1 $348 $349 $138 #
cone-surface $-1 -66.690569439496741 23.100961840502265 3.6371557485910841 0.64278761758704617 0 -0.76604443648966558 0.38302221824483279 0 0.32139380879352308 1 I I -0.70710678118654746 0.70710678118654746 0.5 forward I I I I #
loop $-1 $-1 $350 $88 #
coedge $-1 $221 $221 $351 $352 reversed $139 $-1 #
face $-1 $-1 $353 $71 $-1 $354 forward single #
loop $-1 $355 $356 $141 #
cone-surface $-1 -66.690569439496741 27.198254420641199 3.6371557485910841 0.64278761758704617 0 -0.76604443648966558 0.38302221824483279 0 0.32139380879352308 1 I I -0.70710678118654746 0.70710678118654746 0.5 forward I I I I #
loop $-1 $-1 $357 $89 #
coedge $-1 $226 $226 $358 $359 reversed $142 $-1 #
face $-1 $360 $361 $54 $-1 $362 reversed single #
loop $-1 $-1 $363 $144 #
plane-surface $-1 0 -35.826130346816299 0 0 1 0 0 0 1 forward_v I I I I #
coedge $-1 $364 $365 $366 $367 forward $145 $-1 #
coedge $-1 $368 $147 $369 $370 forward $91 $-1 #
coedge $-1 $147 $368 $371 $372 forward $91 $-1 #
coedge $-1 $373 $374 $147 $234 reversed $375 $-1 #
edge $-1 $376 -35.826130346816299 $377 35.826130346816299 $233 $378 forward 7 unknown #
face $-1 $379 $380 $55 $-1 $381 reversed single #
loop $-1 $-1 $382 $148 #
plane-surface $-1 0 0 -9.3340151607034763 0 0 1 1 0 0 forward_v I I I I #
coedge $-1 $383 $384 $385 $386 reversed $149 $-1 #
coedge $-1 $387 $151 $384 $388 forward $94 $-1 #
coedge $-1 $151 $387 $389 $390 reversed $94 $-1 #
coedge $-1 $391 $385 $151 $242 forward $380 $-1 #
edge $-1 $392 10.543960332403643 $393 20.369433453742985 $241 $394 forward 7 unknown #
face $-1 $395 $396 $56 $-1 $397 reversed single #
loop $-1 $-1 $398 $152 #
plane-surface $-1 65.497305093409068 -20.998003155587647 211.72196910105077 0 1 0 0.68199836817093118 0 0.7313536940579346 forward_v I I I I #
coedge $-1 $399 $400 $401 $402 reversed $153 $-1 #
coedge $-1 $248 $155 $403 $404 reversed $97 $-1 #
coedge $-1 $155 $247 $399 $405 reversed $97 $-1 #
coedge $-1 $401 $406 $155 $250 forward $407 $-1 #
edge $-1 $408 -39.92202221753999 $409 -36.672163721353598 $249 $410 forward 7 unknown #
loop $-1 $-1 $256 $156 #
plane-surface $-1 -33.625258112781395 -13.00931500705547 105.42603622402486 0.68199836817093118 0 0.7313536940579346 0.7313536940579346 0 -0.68199836817093118 forward_v I I I I #
loop $-1 $-1 $411 $99 #
coedge $-1 $254 $254 $255 $412 reversed $157 $-1 #
coedge $-1 $255 $255 $254 $412 forward $159 $-1 #
coedge $-1 $256 $256 $160 $257 forward $251 $-1 #
edge $-1 $413 0 $413 6.2831853071796004 $256 $414 forward 7 unknown #
loop $-1 $-1 $263 $161 #
plane-surface $-1 -33.625258112781395 -13.00931500705547 105.42603622402486 0.68199836817093118 0 0.7313536940579346 0.7313536940579346 0 -0.68199836817093118 forward_v I I I I #
loop $-1 $-1 $415 $102 #
coedge $-1 $261 $261 $262 $416 reversed $162 $-1 #
coedge $-1 $262 $262 $261 $416 forward $164 $-1 #
coedge $-1 $263 $263 $165 $264 forward $258 $-1 #
edge $-1 $417 0 $417 6.2831853071796004 $263 $418 forward 7 unknown #
loop $-1 $-1 $270 $166 #
plane-surface $-1 -33.625258112781395 -13.00931500705547 105.42603622402486 0.68199836817093118 0 0.7313536940579346 0.7313536940579346 0 -0.68199836817093118 forward_v I I I I #
loop $-1 $-1 $419 $105 #
coedge $-1 $268 $268 $269 $420 reversed $167 $-1 #
coedge $-1 $269 $269 $268 $420 forward $169 $-1 #
coedge $-1 $270 $270 $170 $271 forward $265 $-1 #
edge $-1 $421 0 $421 6.2831853071796004 $270 $422 forward 7 unknown #
face $-1 $423 $424 $60 $-1 $425 forward single #
loop $-1 $-1 $426 $171 #
plane-surface $-1 -166.09429456454816 -16.440307871819456 113.86713091528148 0 -1 0 0.64278761758704617 0 -0.76604443648966558 forward_v I I I I #
coedge $-1 $427 $428 $429 $430 reversed $172 $-1 #
coedge $-1 $277 $174 $431 $432 reversed $109 $-1 #
coedge $-1 $174 $276 $427 $433 reversed $109 $-1 #
coedge $-1 $429 $434 $174 $279 forward $424 $-1 #
edge $-1 $435 10.376472518029559 $436 18.486136791802323 $278 $437 forward 7 unknown #
loop $-1 $-1 $285 $175 #
plane-surface $-1 -72.670674764244538 -21.220482548648206 2.5291987170825649 -0.64278761758704617 0 0.76604443648966558 0.76604443648966558 0 0.64278761758704617 forward_v I I I I #
loop $-1 $-1 $438 $111 #
coedge $-1 $283 $283 $284 $439 reversed $176 $-1 #
coedge $-1 $284 $284 $283 $439 forward $178 $-1 #
coedge $-1 $285 $285 $179 $286 forward $280 $-1 #
edge $-1 $440 0 $440 6.2831853071796004 $285 $441 forward 7 unknown #
loop $-1 $-1 $292 $180 #
plane-surface $-1 -72.670674764244538 -21.220482548648206 2.5291987170825649 -0.64278761758704617 0 0.76604443648966558 0.76604443648966558 0 0.64278761758704617 forward_v I I I I #
loop $-1 $-1 $442 $114 #
coedge $-1 $290 $290 $291 $443 reversed $181 $-1 #
coedge $-1 $291 $291 $290 $443 forward $183 $-1 #
coedge $-1 $292 $292 $184 $293 forward $287 $-1 #
edge $-1 $444 0 $444 6.2831853071796004 $292 $445 forward 7 unknown #
face $-1 $446 $447 $63 $-1 $448 forward single #
loop $-1 $-1 $449 $185 #
plane-surface $-1 -166.09429456454816 -0.98361097874614067 113.86713091528148 0 -1 0 0.64278761758704617 0 -0.76604443648966558 forward_v I I I I #
coedge $-1 $450 $451 $452 $453 reversed $186 $-1 #
coedge $-1 $299 $188 $454 $455 reversed $118 $-1 #
coedge $-1 $188 $298 $450 $456 reversed $118 $-1 #
coedge $-1 $452 $457 $188 $301 forward $447 $-1 #
edge $-1 $458 10.376472518029559 $459 18.486136791802323 $300 $460 forward 7 unknown #
loop $-1 $-1 $307 $189 #
plane-surface $-1 -72.670674764244538 -5.7637856555748925 2.5291987170825649 -0.64278761758704617 0 0.76604443648966558 0.76604443648966558 0 0.64278761758704617 forward_v I I I I #
loop $-1 $-1 $461 $120 #
coedge $-1 $305 $305 $306 $462 reversed $190 $-1 #
coedge $-1 $306 $306 $305 $462 forward $192 $-1 #
coedge $-1 $307 $307 $193 $308 forward $302 $-1 #
edge $-1 $463 0 $463 6.2831853071796004 $307 $464 forward 7 unknown #
loop $-1 $-1 $314 $194 #
plane-surface $-1 -72.670674764244538 -5.7637856555748925 2.5291987170825649 -0.64278761758704617 0 0.76604443648966558 0.76604443648966558 0 0.64278761758704617 forward_v I I I I #
loop $-1 $-1 $465 $123 #
coedge $-1 $312 $312 $313 $466 reversed $195 $-1 #
coedge $-1 $313 $313 $312 $466 forward $197 $-1 #
coedge $-1 $314 $314 $198 $315 forward $309 $-1 #
edge $-1 $467 0 $467 6.2831853071796004 $314 $468 forward 7 unknown #
face $-1 $469 $470 $66 $-1 $471 forward single #
loop $-1 $-1 $472 $199 #
plane-surface $-1 -166.09429456454816 14.473085914327173 113.86713091528148 0 -1 0 0.64278761758704617 0 -0.76604443648966558 forward_v I I I I #
coedge $-1 $473 $474 $475 $476 reversed $200 $-1 #
coedge $-1 $321 $202 $477 $478 reversed $127 $-1 #
coedge $-1 $202 $320 $473 $479 reversed $127 $-1 #
coedge $-1 $475 $480 $202 $323 forward $470 $-1 #
edge $-1 $481 10.376472518029559 $482 18.486136791802323 $322 $483 forward 7 unknown #
loop $-1 $-1 $329 $203 #
plane-surface $-1 -72.670674764244538 9.6929112374984214 2.5291987170825649 -0.64278761758704617 0 0.76604443648966558 0.76604443648966558 0 0.64278761758704617 forward_v I I I I #
loop $-1 $-1 $484 $129 #
coedge $-1 $327 $327 $328 $485 reversed $204 $-1 #
coedge $-1 $328 $328 $327 $485 forward $206 $-1 #
coedge $-1 $329 $329 $207 $330 forward $324 $-1 #
edge $-1 $486 0 $486 6.2831853071796004 $329 $487 forward 7 unknown #
loop $-1 $-1 $336 $208 #
plane-surface $-1 -72.670674764244538 9.6929112374984214 2.5291987170825649 -0.64278761758704617 0 0.76604443648966558 0.76604443648966558 0 0.64278761758704617 forward_v I I I I #
loop $-1 $-1 $488 $132 #
coedge $-1 $334 $334 $335 $489 reversed $209 $-1 #
coedge $-1 $335 $335 $334 $489 forward $211 $-1 #
coedge $-1 $336 $336 $212 $337 forward $331 $-1 #
edge $-1 $490 0 $490 6.2831853071796004 $336 $491 forward 7 unknown #
face $-1 $492 $493 $69 $-1 $494 forward single #
loop $-1 $-1 $495 $213 #
plane-surface $-1 -166.09429456454816 29.929782807400485 113.86713091528148 0 -1 0 0.64278761758704617 0 -0.76604443648966558 forward_v I I I I #
coedge $-1 $496 $497 $498 $499 reversed $214 $-1 #
coedge $-1 $343 $216 $500 $501 reversed $136 $-1 #
coedge $-1 $216 $342 $496 $502 reversed $136 $-1 #
coedge $-1 $498 $503 $216 $345 forward $493 $-1 #
edge $-1 $504 10.376472518029559 $505 18.486136791802323 $344 $506 forward 7 unknown #
loop $-1 $-1 $351 $217 #
plane-surface $-1 -72.670674764244538 25.149608130571735 2.5291987170825649 -0.64278761758704617 0 0.76604443648966558 0.76604443648966558 0 0.64278761758704617 forward_v I I I I #
loop $-1 $-1 $507 $138 #
coedge $-1 $349 $349 $350 $508 reversed $218 $-1 #
coedge $-1 $350 $350 $349 $508 forward $220 $-1 #
coedge $-1 $351 $351 $221 $352 forward $346 $-1 #
edge $-1 $509 0 $509 6.2831853071796004 $351 $510 forward 7 unknown #
loop $-1 $-1 $358 $222 #
plane-surface $-1 -72.670674764244538 25.149608130571735 2.5291987170825649 -0.64278761758704617 0 0.76604443648966558 0.76604443648966558 0 0.64278761758704617 forward_v I I I I #
loop $-1 $-1 $511 $141 #
coedge $-1 $356 $356 $357 $512 reversed $223 $-1 #
coedge $-1 $357 $357 $356 $512 forward $225 $-1 #
coedge $-1 $358 $358 $226 $359 forward $353 $-1 #
edge $-1 $513 0 $513 6.2831853071796004 $358 $514 forward 7 unknown #
face $-1 $515 $516 $54 $-1 $517 reversed single #
loop $-1 $-1 $518 $227 #
plane-surface $-1 -72.670674764244524 0 0 1 0 0 0 0 -1 forward_v I I I I #
coedge $-1 $519 $371 $520 $521 forward $228 $-1 #
coedge $-1 $522 $230 $519 $523 forward $145 $-1 #
coedge $-1 $230 $522 $524 $525 forward $145 $-1 #
coedge $-1 $374 $373 $230 $367 reversed $375 $-1 #
edge $-1 $526 -35.826130346816299 $527 35.826130346816299 $366 $528 forward 7 unknown #
coedge $-1 $232 $231 $529 $530 forward $91 $-1 #
coedge $-1 $531 $532 $231 $370 reversed $516 $-1 #
edge $-1 $377 -72.670674764244524 $533 72.670674764244524 $369 $534 forward 7 unknown #
coedge $-1 $363 $535 $232 $372 reversed $228 $-1 #
edge $-1 $536 -72.670674764244524 $376 72.670674764244524 $371 $537 forward 7 unknown #
coedge $-1 $366 $233 $535 $538 forward $375 $-1 #
coedge $-1 $233 $366 $531 $539 reversed $375 $-1 #
loop $-1 $-1 $373 $515 #
vertex $-1 $234 $540 #
vertex $-1 $234 $541 #
straight-curve $-1 72.670674764244524 0 9.3340151607034763 0 1 0 I I #
face $-1 $542 $543 $55 $-1 $544 reversed single #
loop $-1 $-1 $385 $235 #
plane-surface $-1 72.670674764244524 0 0 -1 0 0 0 0 1 forward_v I I I I #
coedge $-1 $545 $546 $383 $547 forward $236 $-1 #
coedge $-1 $548 $238 $382 $547 reversed $149 $-1 #
coedge $-1 $238 $548 $239 $388 reversed $149 $-1 #
coedge $-1 $241 $549 $238 $386 forward $380 $-1 #
edge $-1 $550 -5.9825918241773834 $392 -0.72025484887480351 $385 $551 forward 7 unknown #
coedge $-1 $240 $239 $552 $553 reversed $94 $-1 #
edge $-1 $392 -72.670674764244524 $554 72.670674764244524 $384 $555 forward 7 unknown #
coedge $-1 $556 $557 $240 $390 forward $543 $-1 #
edge $-1 $393 -72.670674764244524 $558 72.670674764244524 $389 $559 forward 7 unknown #
coedge $-1 $549 $241 $557 $560 forward $380 $-1 #
vertex $-1 $242 $561 #
vertex $-1 $560 $562 #
straight-curve $-1 72.670674764244524 -15.456696893073314 -4.0716781854008968 0 -1 0 I I #
face $-1 $-1 $407 $56 $-1 $563 forward single #
loop $-1 $-1 $564 $243 #
plane-surface $-1 72.670674764244524 0 0 -1 0 0 0 0 1 forward_v I I I I #
coedge $-1 $565 $566 $567 $568 reversed $244 $-1 #
coedge $-1 $569 $246 $248 $405 forward $153 $-1 #
coedge $-1 $246 $569 $565 $570 forward $153 $-1 #
coedge $-1 $567 $249 $246 $402 forward $407 $-1 #
edge $-1 $409 -1.4840306450044416 $571 14.493345652059912 $401 $572 forward 7 unknown #
coedge $-1 $573 $574 $247 $404 forward $396 $-1 #
edge $-1 $575 -99.557511532690995 $408 -96.526969389821915 $403 $576 forward 7 unknown #
edge $-1 $409 140.89772871602761 $575 145.34134952848905 $248 $577 forward 7 unknown #
coedge $-1 $249 $567 $573 $578 forward $407 $-1 #
loop $-1 $-1 $567 $395 #
vertex $-1 $404 $579 #
vertex $-1 $250 $580 #
straight-curve $-1 32.748652546704534 -5.0206268585232934 9.3340151607034727 -1 0 0 I I #
coedge $-1 $411 $411 $-1 $581 reversed $253 $-1 #
edge $-1 $582 0 $582 6.2831853071796004 $254 $583 forward 7 unknown #
vertex $-1 $257 $584 #
ellipse-curve $-1 71.045745516151342 -17.802527896174777 7.8187440892689208 0.68199836817093118 0 0.7313536940579346 0.3656768470289673 0 -0.34099918408546559 1 I I #
coedge $-1 $415 $415 $-1 $585 reversed $260 $-1 #
edge $-1 $586 0 $586 6.2831853071796004 $261 $587 forward 7 unknown #
vertex $-1 $264 $588 #
ellipse-curve $-1 71.045745516151342 -13.00931500705547 7.8187440892689208 0.68199836817093118 0 0.7313536940579346 0.3656768470289673 0 -0.34099918408546559 1 I I #
coedge $-1 $419 $419 $-1 $589 reversed $267 $-1 #
edge $-1 $590 0 $590 6.2831853071796004 $268 $591 forward 7 unknown #
vertex $-1 $271 $592 #
ellipse-curve $-1 71.045745516151342 -8.2161021179361633 7.8187440892689208 0.68199836817093118 0 0.7313536940579346 0.3656768470289673 0 -0.34099918408546559 1 I I #
face $-1 $-1 $593 $60 $-1 $594 reversed single #
loop $-1 $-1 $278 $272 #
plane-surface $-1 0 0 9.3340151607034763 0 0 1 1 0 0 forward_v I I I I #
coedge $-1 $595 $596 $597 $598 reversed $273 $-1 #
coedge $-1 $599 $275 $277 $433 forward $172 $-1 #
coedge $-1 $275 $599 $595 $600 forward $172 $-1 #
coedge $-1 $597 $278 $275 $430 forward $424 $-1 #
edge $-1 $436 -15.390415951152853 $601 -5.8300665974953532 $429 $602 forward 7 unknown #
coedge $-1 $603 $604 $276 $432 forward $593 $-1 #
edge $-1 $605 -54.40436674055816 $435 -47.599550296937267 $431 $606 forward 7 unknown #
edge $-1 $436 -10.586414948634884 $605 -1.8593432412625586e-014 $277 $607 forward 7 unknown #
coedge $-1 $278 $597 $603 $608 forward $424 $-1 #
vertex $-1 $432 $609 #
vertex $-1 $279 $610 #
straight-curve $-1 -83.047147282274082 -26.000657225476957 9.3340151607034727 1 0 0 I I #
coedge $-1 $438 $438 $-1 $611 reversed $282 $-1 #
edge $-1 $612 0 $612 6.2831853071796004 $283 $613 forward 7 unknown #
vertex $-1 $286 $614 #
ellipse-curve $-1 -68.615842627358134 -23.269128838717673 5.9316069388930268 -0.64278761758704617 0 0.76604443648966558 0.76604443648966558 0 0.64278761758704617 1 I I #
coedge $-1 $442 $442 $-1 $615 reversed $289 $-1 #
edge $-1 $616 0 $616 6.2831853071796004 $290 $617 forward 7 unknown #
vertex $-1 $293 $618 #
ellipse-curve $-1 -68.615842627358134 -19.171836258578743 5.9316069388930268 -0.64278761758704617 0 0.76604443648966558 0.76604443648966558 0 0.64278761758704617 1 I I #
face $-1 $-1 $619 $63 $-1 $620 reversed single #
loop $-1 $-1 $300 $294 #
plane-surface $-1 0 0 9.3340151607034763 0 0 1 1 0 0 forward_v I I I I #
coedge $-1 $621 $622 $623 $624 reversed $295 $-1 #
coedge $-1 $625 $297 $299 $456 forward $186 $-1 #
coedge $-1 $297 $625 $621 $626 forward $186 $-1 #
coedge $-1 $623 $300 $297 $453 forward $447 $-1 #
edge $-1 $459 -7.6620675046161981 $627 1.8982818490413056 $452 $628 forward 7 unknown #
coedge $-1 $629 $630 $298 $455 forward $619 $-1 #
edge $-1 $631 -54.40436674055816 $458 -47.599550296937267 $454 $632 forward 7 unknown #
edge $-1 $459 -10.586414948634884 $631 -1.8593432412625586e-014 $299 $633 forward 7 unknown #
coedge $-1 $300 $623 $629 $634 forward $447 $-1 #
vertex $-1 $301 $635 #
vertex $-1 $301 $636 #
straight-curve $-1 -83.047147282274082 -10.543960332403644 9.3340151607034727 1 0 0 I I #
coedge $-1 $461 $461 $-1 $637 reversed $304 $-1 #
edge $-1 $638 0 $638 6.2831853071796004 $305 $639 forward 7 unknown #
vertex $-1 $308 $640 #
ellipse-curve $-1 -68.615842627358134 -7.8124319456443594 5.9316069388930268 -0.64278761758704617 0 0.76604443648966558 0.76604443648966558 0 0.64278761758704617 1 I I #
coedge $-1 $465 $465 $-1 $641 reversed $311 $-1 #
edge $-1 $642 0 $642 6.2831853071796004 $312 $643 forward 7 unknown #
vertex $-1 $315 $644 #
ellipse-curve $-1 -68.615842627358134 -3.7151393655054292 5.9316069388930268 -0.64278761758704617 0 0.76604443648966558 0.76604443648966558 0 0.64278761758704617 1 I I #
face $-1 $-1 $645 $66 $-1 $646 reversed single #
loop $-1 $-1 $322 $316 #
plane-surface $-1 0 0 9.3340151607034763 0 0 1 1 0 0 forward_v I I I I #
coedge $-1 $647 $648 $649 $650 reversed $317 $-1 #
coedge $-1 $651 $319 $321 $479 forward $200 $-1 #
coedge $-1 $319 $651 $647 $652 forward $200 $-1 #
coedge $-1 $649 $322 $319 $476 forward $470 $-1 #
edge $-1 $482 0.066280941920458858 $653 9.6266302955779626 $475 $654 forward 7 unknown #
coedge $-1 $655 $656 $320 $478 forward $645 $-1 #
edge $-1 $657 -54.40436674055816 $481 -47.599550296937267 $477 $658 forward 7 unknown #
edge $-1 $482 -10.586414948634884 $657 -1.8593432412625586e-014 $321 $659 forward 7 unknown #
coedge $-1 $322 $649 $655 $660 forward $470 $-1 #
vertex $-1 $323 $661 #
vertex $-1 $323 $662 #
straight-curve $-1 -83.047147282274082 4.9127365606696696 9.3340151607034727 1 0 0 I I #
coedge $-1 $484 $484 $-1 $663 reversed $326 $-1 #
edge $-1 $664 0 $664 6.2831853071796004 $327 $665 forward 7 unknown #
vertex $-1 $330 $666 #
ellipse-curve $-1 -68.615842627358134 7.644264947428951 5.9316069388930268 -0.64278761758704617 0 0.76604443648966558 0.76604443648966558 0 0.64278761758704617 1 I I #
coedge $-1 $488 $488 $-1 $667 reversed $333 $-1 #
edge $-1 $668 0 $668 6.2831853071796004 $334 $669 forward 7 unknown #
vertex $-1 $337 $670 #
ellipse-curve $-1 -68.615842627358134 11.741557527567885 5.9316069388930268 -0.64278761758704617 0 0.76604443648966558 0.76604443648966558 0 0.64278761758704617 1 I I #
face $-1 $-1 $671 $69 $-1 $672 reversed single #
loop $-1 $-1 $344 $338 #
plane-surface $-1 0 0 9.3340151607034763 0 0 1 1 0 0 forward_v I I I I #
coedge $-1 $673 $674 $675 $676 reversed $339 $-1 #
coedge $-1 $677 $341 $343 $502 forward $214 $-1 #
coedge $-1 $341 $677 $673 $678 forward $214 $-1 #
coedge $-1 $675 $344 $341 $499 forward $493 $-1 #
edge $-1 $505 7.7946293884571176 $679 17.354978742114618 $498 $680 forward 7 unknown #
coedge $-1 $681 $682 $342 $501 forward $671 $-1 #
edge $-1 $683 -54.40436674055816 $504 -47.599550296937267 $500 $684 forward 7 unknown #
edge $-1 $505 -10.586414948634884 $683 -1.8593432412625586e-014 $343 $685 forward 7 unknown #
coedge $-1 $344 $675 $681 $686 forward $493 $-1 #
vertex $-1 $345 $687 #
vertex $-1 $345 $688 #
straight-curve $-1 -83.047147282274082 20.369433453742985 9.3340151607034727 1 0 0 I I #
coedge $-1 $507 $507 $-1 $689 reversed $348 $-1 #
edge $-1 $690 0 $690 6.2831853071796004 $349 $691 forward 7 unknown #
vertex $-1 $352 $692 #
ellipse-curve $-1 -68.615842627358134 23.100961840502265 5.9316069388930268 -0.64278761758704617 0 0.76604443648966558 0.76604443648966558 0 0.64278761758704617 1 I I #
coedge $-1 $511 $511 $-1 $693 reversed $355 $-1 #
edge $-1 $694 0 $694 6.2831853071796004 $356 $695 forward 7 unknown #
vertex $-1 $359 $696 #
ellipse-curve $-1 -68.615842627358134 27.198254420641199 5.9316069388930268 -0.64278761758704617 0 0.76604443648966558 0.76604443648966558 0 0.64278761758704617 1 I I #
face $-1 $-1 $375 $54 $-1 $697 reversed single #
loop $-1 $-1 $531 $360 #
plane-surface $-1 0 35.826130346816299 0 0 -1 0 0 0 -1 forward_v I I I I #
coedge $-1 $698 $529 $532 $699 forward $361 $-1 #
coedge $-1 $535 $363 $364 $523 reversed $228 $-1 #
coedge $-1 $529 $698 $363 $521 reversed $361 $-1 #
edge $-1 $536 -9.3340151607034763 $700 9.3340151607034763 $520 $701 forward 7 unknown #
coedge $-1 $365 $364 $698 $702 forward $145 $-1 #
edge $-1 $527 -72.670674764244524 $700 72.670674764244524 $519 $703 forward 7 unknown #
coedge $-1 $532 $531 $365 $525 reversed $516 $-1 #
edge $-1 $704 -72.670674764244524 $526 72.670674764244524 $524 $705 forward 7 unknown #
vertex $-1 $367 $706 #
vertex $-1 $538 $707 #
straight-curve $-1 72.670674764244524 0 -9.3340151607034763 0 -1 0 I I #
coedge $-1 $518 $520 $368 $530 reversed $361 $-1 #
edge $-1 $533 -35.826130346816299 $536 35.826130346816299 $529 $708 forward 7 unknown #
coedge $-1 $524 $369 $374 $539 forward $516 $-1 #
coedge $-1 $369 $524 $518 $699 reversed $516 $-1 #
vertex $-1 $370 $709 #
straight-curve $-1 0 35.826130346816299 9.3340151607034763 -1 0 0 I I #
coedge $-1 $371 $519 $373 $538 reversed $228 $-1 #
vertex $-1 $530 $710 #
straight-curve $-1 0 -35.826130346816299 9.3340151607034763 1 0 0 I I #
edge $-1 $376 -9.3340151607034763 $527 9.3340151607034763 $373 $711 forward 7 unknown #
edge $-1 $377 -9.3340151607034763 $526 9.3340151607034763 $374 $712 forward 7 unknown #
point $-1 72.670674764244524 -35.826130346816299 9.3340151607034763 #
point $-1 72.670674764244524 35.826130346816299 9.3340151607034763 #
face $-1 $-1 $713 $55 $-1 $714 reversed single #
loop $-1 $-1 $389 $379 #
plane-surface $-1 0 -35.826130346816299 0 0 1 0 0 0 1 forward_v I I I I #
coedge $-1 $715 $382 $549 $716 forward $236 $-1 #
coedge $-1 $382 $715 $717 $718 forward $236 $-1 #
edge $-1 $719 -72.670674764244524 $550 72.670674764244524 $382 $720 forward 7 unknown #
coedge $-1 $384 $383 $721 $722 reversed $149 $-1 #
coedge $-1 $385 $391 $545 $716 reversed $380 $-1 #
vertex $-1 $716 $723 #
straight-curve $-1 72.670674764244524 -26.000657225476957 -3.3514233365260933 0 0 1 I I #
coedge $-1 $721 $724 $387 $553 forward $713 $-1 #
edge $-1 $558 -20.369433453742985 $554 -10.543960332403643 $552 $725 forward 7 unknown #
vertex $-1 $553 $726 #
straight-curve $-1 0 -26.000657225476957 -4.0716781854008968 -1 0 0 I I #
coedge $-1 $727 $389 $724 $728 forward $543 $-1 #
coedge $-1 $389 $727 $391 $560 reversed $543 $-1 #
vertex $-1 $728 $729 #
straight-curve $-1 0 -35.826130346816299 -4.0716781854008968 -1 0 0 I I #
edge $-1 $393 4.0716781854008968 $730 9.3340151607034763 $391 $731 forward 7 unknown #
point $-1 72.670674764244524 -26.000657225476957 -4.0716781854008968 #
point $-1 72.670674764244524 -35.826130346816299 -4.0716781854008968 #
plane-surface $-1 0 0 9.3340151607034763 0 0 1 1 0 0 forward_v I I I I #
coedge $-1 $574 $573 $566 $732 forward $396 $-1 #
coedge $-1 $566 $398 $400 $570 reversed $244 $-1 #
coedge $-1 $398 $565 $564 $732 reversed $244 $-1 #
coedge $-1 $406 $401 $398 $568 forward $407 $-1 #
edge $-1 $571 36.672163721353598 $733 39.92202221753999 $567 $734 forward 7 unknown #
coedge $-1 $400 $399 $574 $735 reversed $153 $-1 #
edge $-1 $736 -145.34134952848905 $571 -140.89772871602761 $565 $737 forward 7 unknown #
vertex $-1 $402 $738 #
straight-curve $-1 69.420816268058132 -6.504657503527735 9.3340151607034727 0 -1 0 I I #
coedge $-1 $564 $403 $406 $578 reversed $396 $-1 #
coedge $-1 $403 $564 $569 $735 forward $396 $-1 #
vertex $-1 $404 $739 #
straight-curve $-1 72.670674764244524 -5.0206268585232934 105.86098455052539 0 0 1 I I #
straight-curve $-1 -33.625258112781395 -5.0206268585232934 105.42603622402486 0.7313536940579346 0 -0.68199836817093118 I I #
edge $-1 $733 -20.998003155587647 $408 -5.0206268585232934 $573 $740 forward 7 unknown #
point $-1 72.670674764244524 -5.0206268585232934 9.3340151607034763 #
point $-1 69.420816268058132 -5.0206268585232934 9.3340151607034727 #
edge $-1 $741 1 $741 0 $411 $-1 forward 7 unknown #
vertex $-1 $412 $742 #
ellipse-curve $-1 70.363747147980419 -17.802527896174777 7.0873903952109858 0.68199836817093118 0 0.7313536940579346 0.3656768470289673 0 -0.34099918408546559 1 I I #
point $-1 71.411422363180321 -17.802527896174777 7.4777449051834548 #
edge $-1 $743 1 $743 0 $415 $-1 forward 7 unknown #
vertex $-1 $416 $744 #
ellipse-curve $-1 70.363747147980419 -13.00931500705547 7.0873903952109858 0.68199836817093118 0 0.7313536940579346 0.3656768470289673 0 -0.34099918408546559 1 I I #
point $-1 71.411422363180321 -13.00931500705547 7.4777449051834548 #
edge $-1 $745 1 $745 0 $419 $-1 forward 7 unknown #
vertex $-1 $420 $746 #
ellipse-curve $-1 70.363747147980419 -8.2161021179361633 7.0873903952109858 0.68199836817093118 0 0.7313536940579346 0.3656768470289673 0 -0.34099918408546559 1 I I #
point $-1 71.411422363180321 -8.2161021179361633 7.4777449051834548 #
loop $-1 $-1 $431 $423 #
plane-surface $-1 -72.670674764244524 0 0 1 0 0 0 0 -1 forward_v I I I I #
coedge $-1 $596 $426 $428 $600 reversed $273 $-1 #
coedge $-1 $426 $595 $747 $748 reversed $273 $-1 #
coedge $-1 $434 $429 $426 $598 forward $424 $-1 #
edge $-1 $601 -18.486136791802323 $749 -10.376472518029559 $597 $750 forward 7 unknown #
coedge $-1 $428 $427 $604 $751 reversed $172 $-1 #
edge $-1 $752 1.8593432412625586e-014 $601 10.586414948634884 $595 $753 forward 7 unknown #
vertex $-1 $430 $754 #
straight-curve $-1 -64.561010490471745 -10.610241274324103 9.334015160703478 0 1 0 I I #
coedge $-1 $747 $431 $434 $608 reversed $593 $-1 #
coedge $-1 $431 $747 $599 $751 forward $593 $-1 #
vertex $-1 $432 $755 #
straight-curve $-1 -72.670674764244524 -26.000657225476957 56.933565457640739 0 0 1 I I #
straight-curve $-1 -72.670674764244538 -26.000657225476957 2.5291987170825649 -0.76604443648966558 0 -0.64278761758704617 I I #
edge $-1 $749 16.440307871819456 $435 26.000657225476957 $603 $756 forward 7 unknown #
point $-1 -72.670674764244524 -26.000657225476957 9.3340151607034763 #
point $-1 -64.561010490471759 -26.000657225476957 9.3340151607034763 #
edge $-1 $757 1 $757 0 $438 $-1 forward 7 unknown #
vertex $-1 $439 $758 #
ellipse-curve $-1 -67.011963248290257 -23.269128838717673 4.0201779668359165 -0.64278761758704617 0 0.76604443648966558 0.76604443648966558 0 0.64278761758704617 1 I I #
point $-1 -67.849798190868469 -23.269128838717673 6.5743945564800654 #
edge $-1 $759 1 $759 0 $442 $-1 forward 7 unknown #
vertex $-1 $443 $760 #
ellipse-curve $-1 -67.011963248290257 -19.171836258578743 4.0201779668359165 -0.64278761758704617 0 0.76604443648966558 0.76604443648966558 0 0.64278761758704617 1 I I #
point $-1 -67.849798190868469 -19.171836258578743 6.5743945564800654 #
loop $-1 $-1 $454 $446 #
plane-surface $-1 -72.670674764244524 0 0 1 0 0 0 0 -1 forward_v I I I I #
coedge $-1 $622 $449 $451 $626 reversed $295 $-1 #
coedge $-1 $449 $621 $761 $762 reversed $295 $-1 #
coedge $-1 $457 $452 $449 $624 forward $447 $-1 #
edge $-1 $627 -18.486136791802323 $763 -10.376472518029559 $623 $764 forward 7 unknown #
coedge $-1 $451 $450 $630 $765 reversed $186 $-1 #
edge $-1 $766 1.8593432412625586e-014 $627 10.586414948634884 $621 $767 forward 7 unknown #
vertex $-1 $453 $768 #
straight-curve $-1 -64.561010490471745 -2.8818928277874463 9.334015160703478 0 1 0 I I #
coedge $-1 $761 $454 $457 $634 reversed $619 $-1 #
coedge $-1 $454 $761 $625 $765 forward $619 $-1 #
vertex $-1 $455 $769 #
straight-curve $-1 -72.670674764244524 -10.543960332403644 56.933565457640739 0 0 1 I I #
straight-curve $-1 -72.670674764244538 -10.543960332403644 2.5291987170825649 -0.76604443648966558 0 -0.64278761758704617 I I #
edge $-1 $763 0.98361097874614067 $458 10.543960332403644 $629 $770 forward 7 unknown #
point $-1 -72.670674764244524 -10.543960332403644 9.3340151607034763 #
point $-1 -64.561010490471759 -10.543960332403644 9.3340151607034763 #
edge $-1 $771 1 $771 0 $461 $-1 forward 7 unknown #
vertex $-1 $462 $772 #
ellipse-curve $-1 -67.011963248290257 -7.8124319456443594 4.0201779668359165 -0.64278761758704617 0 0.76604443648966558 0.76604443648966558 0 0.64278761758704617 1 I I #
point $-1 -67.849798190868469 -7.8124319456443594 6.5743945564800654 #
edge $-1 $773 1 $773 0 $465 $-1 forward 7 unknown #
vertex $-1 $466 $774 #
ellipse-curve $-1 -67.011963248290257 -3.7151393655054292 4.0201779668359165 -0.64278761758704617 0 0.76604443648966558 0.76604443648966558 0 0.64278761758704617 1 I I #
point $-1 -67.849798190868469 -3.7151393655054292 6.5743945564800654 #
loop $-1 $-1 $477 $469 #
plane-surface $-1 -72.670674764244524 0 0 1 0 0 0 0 -1 forward_v I I I I #
coedge $-1 $648 $472 $474 $652 reversed $317 $-1 #
coedge $-1 $472 $647 $775 $776 reversed $317 $-1 #
coedge $-1 $480 $475 $472 $650 forward $470 $-1 #
edge $-1 $653 -18.486136791802323 $777 -10.376472518029559 $649 $778 forward 7 unknown #
coedge $-1 $474 $473 $656 $779 reversed $200 $-1 #
edge $-1 $780 1.8593432412625586e-014 $653 10.586414948634884 $647 $781 forward 7 unknown #
vertex $-1 $476 $782 #
straight-curve $-1 -64.561010490471745 4.8464556187492107 9.334015160703478 0 1 0 I I #
coedge $-1 $775 $477 $480 $660 reversed $645 $-1 #
coedge $-1 $477 $775 $651 $779 forward $645 $-1 #
vertex $-1 $478 $783 #
straight-curve $-1 -72.670674764244524 4.9127365606696696 56.933565457640739 0 0 1 I I #
straight-curve $-1 -72.670674764244538 4.9127365606696696 2.5291987170825649 -0.76604443648966558 0 -0.64278761758704617 I I #
edge $-1 $777 -14.473085914327173 $481 -4.9127365606696696 $655 $784 forward 7 unknown #
point $-1 -72.670674764244524 4.9127365606696696 9.3340151607034763 #
point $-1 -64.561010490471759 4.9127365606696696 9.3340151607034763 #
edge $-1 $785 1 $785 0 $484 $-1 forward 7 unknown #
vertex $-1 $485 $786 #
ellipse-curve $-1 -67.011963248290257 7.644264947428951 4.0201779668359165 -0.64278761758704617 0 0.76604443648966558 0.76604443648966558 0 0.64278761758704617 1 I I #
point $-1 -67.849798190868469 7.644264947428951 6.5743945564800654 #
edge $-1 $787 1 $787 0 $488 $-1 forward 7 unknown #
vertex $-1 $489 $788 #
ellipse-curve $-1 -67.011963248290257 11.741557527567885 4.0201779668359165 -0.64278761758704617 0 0.76604443648966558 0.76604443648966558 0 0.64278761758704617 1 I I #
point $-1 -67.849798190868469 11.741557527567885 6.5743945564800654 #
loop $-1 $-1 $500 $492 #
plane-surface $-1 -72.670674764244524 0 0 1 0 0 0 0 -1 forward_v I I I I #
coedge $-1 $674 $495 $497 $678 reversed $339 $-1 #
coedge $-1 $495 $673 $789 $790 reversed $339 $-1 #
coedge $-1 $503 $498 $495 $676 forward $493 $-1 #
edge $-1 $679 -18.486136791802323 $791 -10.376472518029559 $675 $792 forward 7 unknown #
coedge $-1 $497 $496 $682 $793 reversed $214 $-1 #
edge $-1 $794 1.8593432412625586e-014 $679 10.586414948634884 $673 $795 forward 7 unknown #
vertex $-1 $499 $796 #
straight-curve $-1 -64.561010490471745 12.574804065285868 9.334015160703478 0 1 0 I I #
coedge $-1 $789 $500 $503 $686 reversed $671 $-1 #
coedge $-1 $500 $789 $677 $793 forward $671 $-1 #
vertex $-1 $501 $797 #
straight-curve $-1 -72.670674764244524 20.369433453742985 56.933565457640739 0 0 1 I I #
straight-curve $-1 -72.670674764244538 20.369433453742985 2.5291987170825649 -0.76604443648966558 0 -0.64278761758704617 I I #
edge $-1 $791 -29.929782807400485 $504 -20.369433453742985 $681 $798 forward 7 unknown #
point $-1 -72.670674764244524 20.369433453742985 9.3340151607034763 #
point $-1 -64.561010490471759 20.369433453742985 9.3340151607034763 #
edge $-1 $799 1 $799 0 $507 $-1 forward 7 unknown #
vertex $-1 $508 $800 #
ellipse-curve $-1 -67.011963248290257 23.100961840502265 4.0201779668359165 -0.64278761758704617 0 0.76604443648966558 0.76604443648966558 0 0.64278761758704617 1 I I #
point $-1 -67.849798190868469 23.100961840502265 6.5743945564800654 #
edge $-1 $801 1 $801 0 $511 $-1 forward 7 unknown #
vertex $-1 $512 $802 #
ellipse-curve $-1 -67.011963248290257 27.198254420641199 4.0201779668359165 -0.64278761758704617 0 0.76604443648966558 0.76604443648966558 0 0.64278761758704617 1 I I #
point $-1 -67.849798190868469 27.198254420641199 6.5743945564800654 #
plane-surface $-1 72.670674764244524 0 0 -1 0 0 0 0 1 forward_v I I I I #
coedge $-1 $520 $518 $522 $702 reversed $361 $-1 #
edge $-1 $533 -9.3340151607034763 $704 9.3340151607034763 $532 $803 forward 7 unknown #
vertex $-1 $702 $804 #
straight-curve $-1 -72.670674764244524 -35.826130346816299 0 0 0 -1 I I #
edge $-1 $700 -35.826130346816299 $704 35.826130346816299 $698 $805 forward 7 unknown #
straight-curve $-1 0 -35.826130346816299 -9.3340151607034763 -1 0 0 I I #
vertex $-1 $525 $806 #
straight-curve $-1 0 35.826130346816299 -9.3340151607034763 1 0 0 I I #
point $-1 72.670674764244524 35.826130346816299 -9.3340151607034763 #
point $-1 72.670674764244524 -35.826130346816299 -9.3340151607034763 #
straight-curve $-1 -72.670674764244524 0 9.3340151607034763 0 -1 0 I I #
point $-1 -72.670674764244524 35.826130346816299 9.3340151607034763 #
point $-1 -72.670674764244524 -35.826130346816299 9.3340151607034763 #
straight-curve $-1 72.670674764244524 -35.826130346816299 0 0 0 -1 I I #
straight-curve $-1 72.670674764244524 35.826130346816299 0 0 0 -1 I I #
loop $-1 $-1 $721 $542 #
plane-surface $-1 -72.670674764244524 0 0 1 0 0 0 0 -1 forward_v I I I I #
coedge $-1 $546 $545 $727 $807 forward $236 $-1 #
edge $-1 $550 26.000657225476957 $730 35.826130346816299 $549 $808 forward 7 unknown #
coedge $-1 $724 $721 $546 $718 reversed $713 $-1 #
edge $-1 $809 -35.826130346816299 $719 -26.000657225476957 $717 $810 forward 7 unknown #
vertex $-1 $722 $811 #
straight-curve $-1 0 -26.000657225476957 -9.3340151607034763 1 0 0 I I #
coedge $-1 $717 $552 $548 $722 forward $713 $-1 #
edge $-1 $554 0.72025484887480351 $719 5.9825918241773834 $721 $812 forward 7 unknown #
point $-1 72.670674764244524 -26.000657225476957 -9.3340151607034763 #
coedge $-1 $552 $717 $556 $728 reversed $713 $-1 #
straight-curve $-1 -72.670674764244524 -15.456696893073314 -4.0716781854008968 0 1 0 I I #
point $-1 -72.670674764244524 -26.000657225476957 -4.0716781854008968 #
coedge $-1 $557 $556 $715 $807 reversed $543 $-1 #
edge $-1 $558 4.0716781854008968 $809 9.3340151607034763 $724 $813 forward 7 unknown #
point $-1 -72.670674764244524 -35.826130346816299 -4.0716781854008968 #
vertex $-1 $560 $814 #
straight-curve $-1 72.670674764244524 -35.826130346816299 0 0 0 -1 I I #
edge $-1 $733 96.526969389821915 $736 99.557511532690995 $564 $815 forward 7 unknown #
vertex $-1 $578 $816 #
straight-curve $-1 32.748652546704534 -20.998003155587647 9.3340151607034727 1 0 0 I I #
edge $-1 $736 -14.493345652059912 $575 1.4840306450044416 $574 $817 forward 7 unknown #
vertex $-1 $735 $818 #
straight-curve $-1 -33.625258112781395 -20.998003155587647 105.42603622402486 -0.7313536940579346 0 0.68199836817093118 I I #
point $-1 69.420816268058132 -20.998003155587647 9.3340151607034727 #
point $-1 72.670674764244524 -5.0206268585232934 6.3034730178343921 #
straight-curve $-1 72.670674764244524 0 9.3340151607034763 0 1 0 I I #
vertex $-1 $581 $819 #
point $-1 70.729423995009384 -17.802527896174777 6.7463912111255206 #
vertex $-1 $585 $820 #
point $-1 70.729423995009384 -13.00931500705547 6.7463912111255206 #
vertex $-1 $589 $821 #
point $-1 70.729423995009384 -8.2161021179361633 6.7463912111255206 #
coedge $-1 $604 $603 $596 $748 forward $593 $-1 #
edge $-1 $749 47.599550296937267 $752 54.40436674055816 $747 $822 forward 7 unknown #
vertex $-1 $608 $823 #
straight-curve $-1 -83.047147282274082 -16.440307871819456 9.3340151607034727 -1 0 0 I I #
edge $-1 $752 5.8300665974953532 $605 15.390415951152853 $604 $824 forward 7 unknown #
vertex $-1 $751 $825 #
straight-curve $-1 -72.670674764244538 -16.440307871819456 2.5291987170825649 0.76604443648966558 0 0.64278761758704617 I I #
point $-1 -64.561010490471759 -16.440307871819456 9.3340151607034763 #
point $-1 -72.670674764244524 -26.000657225476957 2.5291987170825769 #
straight-curve $-1 -72.670674764244524 0 9.3340151607034763 0 -1 0 I I #
vertex $-1 $611 $826 #
point $-1 -66.245918811800593 -23.269128838717673 4.6629655844229632 #
vertex $-1 $615 $827 #
point $-1 -66.245918811800593 -19.171836258578743 4.6629655844229632 #
coedge $-1 $630 $629 $622 $762 forward $619 $-1 #
edge $-1 $763 47.599550296937267 $766 54.40436674055816 $761 $828 forward 7 unknown #
vertex $-1 $634 $829 #
straight-curve $-1 -83.047147282274082 -0.98361097874614067 9.3340151607034727 -1 0 0 I I #
edge $-1 $766 -1.8982818490413056 $631 7.6620675046161981 $630 $830 forward 7 unknown #
vertex $-1 $765 $831 #
straight-curve $-1 -72.670674764244538 -0.98361097874614067 2.5291987170825649 0.76604443648966558 0 0.64278761758704617 I I #
point $-1 -64.561010490471759 -0.98361097874614067 9.3340151607034763 #
point $-1 -72.670674764244524 -10.543960332403644 2.5291987170825769 #
straight-curve $-1 -72.670674764244524 0 9.3340151607034763 0 -1 0 I I #
vertex $-1 $637 $832 #
point $-1 -66.245918811800593 -7.8124319456443594 4.6629655844229632 #
vertex $-1 $641 $833 #
point $-1 -66.245918811800593 -3.7151393655054292 4.6629655844229632 #
coedge $-1 $656 $655 $648 $776 forward $645 $-1 #
edge $-1 $777 47.599550296937267 $780 54.40436674055816 $775 $834 forward 7 unknown #
vertex $-1 $660 $835 #
straight-curve $-1 -83.047147282274082 14.473085914327173 9.3340151607034727 -1 0 0 I I #
edge $-1 $780 -9.6266302955779626 $657 -0.066280941920458858 $656 $836 forward 7 unknown #
vertex $-1 $779 $837 #
straight-curve $-1 -72.670674764244538 14.473085914327173 2.5291987170825649 0.76604443648966558 0 0.64278761758704617 I I #
point $-1 -64.561010490471759 14.473085914327173 9.3340151607034763 #
point $-1 -72.670674764244524 4.9127365606696696 2.5291987170825769 #
straight-curve $-1 -72.670674764244524 0 9.3340151607034763 0 -1 0 I I #
vertex $-1 $663 $838 #
point $-1 -66.245918811800593 7.644264947428951 4.6629655844229632 #
vertex $-1 $667 $839 #
point $-1 -66.245918811800593 11.741557527567885 4.6629655844229632 #
coedge $-1 $682 $681 $674 $790 forward $671 $-1 #
edge $-1 $791 47.599550296937267 $794 54.40436674055816 $789 $840 forward 7 unknown #
vertex $-1 $686 $841 #
straight-curve $-1 -83.047147282274082 29.929782807400485 9.3340151607034727 -1 0 0 I I #
edge $-1 $794 -17.354978742114618 $683 -7.7946293884571176 $682 $842 forward 7 unknown #
vertex $-1 $793 $843 #
straight-curve $-1 -72.670674764244538 29.929782807400485 2.5291987170825649 0.76604443648966558 0 0.64278761758704617 I I #
point $-1 -64.561010490471759 29.929782807400485 9.3340151607034763 #
point $-1 -72.670674764244524 20.369433453742985 2.5291987170825769 #
straight-curve $-1 -72.670674764244524 0 9.3340151607034763 0 -1 0 I I #
vertex $-1 $689 $844 #
point $-1 -66.245918811800593 23.100961840502265 4.6629655844229632 #
vertex $-1 $693 $845 #
point $-1 -66.245918811800593 27.198254420641199 4.6629655844229632 #
straight-curve $-1 -72.670674764244524 35.826130346816299 0 0 0 -1 I I #
point $-1 -72.670674764244524 -35.826130346816299 -9.3340151607034763 #
straight-curve $-1 -72.670674764244524 0 -9.3340151607034763 0 1 0 I I #
point $-1 -72.670674764244524 35.826130346816299 -9.3340151607034763 #
edge $-1 $730 -72.670674764244524 $809 72.670674764244524 $727 $846 forward 7 unknown #
straight-curve $-1 72.670674764244524 0 -9.3340151607034763 0 -1 0 I I #
vertex $-1 $718 $847 #
straight-curve $-1 -72.670674764244524 0 -9.3340151607034763 0 1 0 I I #
point $-1 -72.670674764244524 -26.000657225476957 -9.3340151607034763 #
straight-curve $-1 -72.670674764244524 -26.000657225476957 -3.3514233365260933 0 0 -1 I I #
straight-curve $-1 -72.670674764244524 -35.826130346816299 0 0 0 -1 I I #
point $-1 72.670674764244524 -35.826130346816299 -9.3340151607034763 #
straight-curve $-1 72.670674764244524 -20.998003155587647 105.86098455052539 0 0 -1 I I #
point $-1 72.670674764244524 -20.998003155587647 9.3340151607034763 #
straight-curve $-1 72.670674764244524 -6.504657503527735 6.3034730178343921 0 1 0 I I #
point $-1 72.670674764244524 -20.998003155587647 6.3034730178343921 #
point $-1 70.022747963894957 -17.802527896174777 6.7217135481820192 #
point $-1 70.022747963894957 -13.00931500705547 6.7217135481820192 #
point $-1 70.022747963894957 -8.2161021179361633 6.7217135481820192 #
straight-curve $-1 -72.670674764244524 -16.440307871819456 56.933565457640739 0 0 -1 I I #
point $-1 -72.670674764244524 -16.440307871819456 9.3340151607034763 #
straight-curve $-1 -72.670674764244524 -10.610241274324103 2.5291987170825716 0 -1 0 I I #
point $-1 -72.670674764244524 -16.440307871819456 2.5291987170825769 #
point $-1 -66.369175630703225 -23.269128838717673 3.2541335303462513 #
point $-1 -66.369175630703225 -19.171836258578743 3.2541335303462513 #
straight-curve $-1 -72.670674764244524 -0.98361097874614067 56.933565457640739 0 0 -1 I I #
point $-1 -72.670674764244524 -0.98361097874614067 9.3340151607034763 #
straight-curve $-1 -72.670674764244524 -2.8818928277874463 2.5291987170825716 0 -1 0 I I #
point $-1 -72.670674764244524 -0.98361097874614067 2.5291987170825769 #
point $-1 -66.369175630703225 -7.8124319456443594 3.2541335303462513 #
point $-1 -66.369175630703225 -3.7151393655054292 3.2541335303462513 #
straight-curve $-1 -72.670674764244524 14.473085914327173 56.933565457640739 0 0 -1 I I #
point $-1 -72.670674764244524 14.473085914327173 9.3340151607034763 #
straight-curve $-1 -72.670674764244524 4.8464556187492107 2.5291987170825716 0 -1 0 I I #
point $-1 -72.670674764244524 14.473085914327173 2.5291987170825769 #
point $-1 -66.369175630703225 7.644264947428951 3.2541335303462513 #
point $-1 -66.369175630703225 11.741557527567885 3.2541335303462513 #
straight-curve $-1 -72.670674764244524 29.929782807400485 56.933565457640739 0 0 -1 I I #
point $-1 -72.670674764244524 29.929782807400485 9.3340151607034763 #
straight-curve $-1 -72.670674764244524 12.574804065285868 2.5291987170825716 0 -1 0 I I #
point $-1 -72.670674764244524 29.929782807400485 2.5291987170825769 #
point $-1 -66.369175630703225 23.100961840502265 3.2541335303462513 #
point $-1 -66.369175630703225 27.198254420641199 3.2541335303462513 #
straight-curve $-1 0 -35.826130346816299 -9.3340151607034763 -1 0 0 I I #
point $-1 -72.670674764244524 -35.826130346816299 -9.3340151607034763 #
End-of-ACIS-data 