500 0 18 0           
7 Unknown 11 ACIS 5.0 NT 24 Thu Mar 25 22:17:48 1999 
-1 9.9999999999999995e-007 1e-010 
body $-1 $18 $-1 $19 #
body $-1 $20 $-1 $21 #
body $-1 $22 $-1 $23 #
body $-1 $24 $-1 $25 #
body $-1 $26 $-1 $27 #
body $-1 $28 $-1 $29 #
body $-1 $30 $-1 $31 #
body $-1 $32 $-1 $33 #
body $-1 $34 $-1 $35 #
body $-1 $36 $-1 $37 #
body $-1 $38 $-1 $39 #
body $-1 $40 $-1 $41 #
body $-1 $42 $-1 $43 #
body $-1 $44 $-1 $45 #
body $-1 $46 $-1 $47 #
body $-1 $48 $-1 $49 #
body $-1 $50 $-1 $51 #
body $-1 $52 $-1 $53 #
lump $-1 $-1 $54 $0 #
transform $-1 1 0 0 0 1 0 0 0 1 79.245582445753342 38.321661325241394 11.040619507696045 1 rotate no_reflect no_shear #
lump $-1 $-1 $55 $1 #
transform $-1 1 0 0 0 1 0 0 0 1 79.245582445753342 38.321661325241394 11.040619507696045 1 rotate no_reflect no_shear #
lump $-1 $-1 $56 $2 #
transform $-1 1 0 0 0 1 0 0 0 1 79.245582445753342 38.321661325241394 11.040619507696045 1 rotate no_reflect no_shear #
lump $-1 $-1 $57 $3 #
transform $-1 1 0 0 0 1 0 0 0 1 79.245582445753342 38.321661325241394 11.040619507696045 1 rotate no_reflect no_shear #
lump $-1 $-1 $58 $4 #
transform $-1 1 0 0 0 1 0 0 0 1 79.245582445753342 38.321661325241394 11.040619507696045 1 rotate no_reflect no_shear #
lump $-1 $-1 $59 $5 #
transform $-1 1 0 0 0 1 0 0 0 1 79.245582445753342 38.321661325241394 11.040619507696045 1 rotate no_reflect no_shear #
lump $-1 $-1 $60 $6 #
transform $-1 1 0 0 0 1 0 0 0 1 79.245582445753342 38.321661325241394 11.040619507696045 1 rotate no_reflect no_shear #
lump $-1 $-1 $61 $7 #
transform $-1 1 0 0 0 1 0 0 0 1 79.245582445753342 38.321661325241394 11.040619507696045 1 rotate no_reflect no_shear #
lump $-1 $-1 $62 $8 #
transform $-1 1 0 0 0 1 0 0 0 1 79.245582445753342 38.321661325241394 11.040619507696045 1 rotate no_reflect no_shear #
lump $-1 $-1 $63 $9 #
transform $-1 1 0 0 0 1 0 0 0 1 79.245582445753342 38.321661325241394 11.040619507696045 1 rotate no_reflect no_shear #
lump $-1 $-1 $64 $10 #
transform $-1 1 0 0 0 1 0 0 0 1 79.245582445753342 38.321661325241394 11.040619507696045 1 rotate no_reflect no_shear #
lump $-1 $-1 $65 $11 #
transform $-1 1 0 0 0 1 0 0 0 1 79.245582445753342 38.321661325241394 11.040619507696045 1 rotate no_reflect no_shear #
lump $-1 $-1 $66 $12 #
transform $-1 1 0 0 0 1 0 0 0 1 79.245582445753342 38.321661325241394 11.040619507696045 1 rotate no_reflect no_shear #
lump $-1 $-1 $67 $13 #
transform $-1 1 0 0 0 1 0 0 0 1 79.245582445753342 38.321661325241394 11.040619507696045 1 rotate no_reflect no_shear #
lump $-1 $-1 $68 $14 #
transform $-1 1 0 0 0 1 0 0 0 1 79.245582445753342 38.321661325241394 11.040619507696045 1 rotate no_reflect no_shear #
lump $-1 $-1 $69 $15 #
transform $-1 1 0 0 0 1 0 0 0 1 79.245582445753342 38.321661325241394 11.040619507696045 1 rotate no_reflect no_shear #
lump $-1 $-1 $70 $16 #
transform $-1 1 0 0 0 1 0 0 0 1 79.245582445753342 38.321661325241394 11.040619507696045 1 rotate no_reflect no_shear #
lump $-1 $-1 $71 $17 #
transform $-1 1 0 0 0 1 0 0 0 1 79.245582445753342 38.321661325241394 11.040619507696045 1 rotate no_reflect no_shear #
shell $-1 $-1 $-1 $72 $-1 $18 #
shell $-1 $-1 $-1 $73 $-1 $20 #
shell $-1 $-1 $-1 $74 $-1 $22 #
shell $-1 $-1 $-1 $75 $-1 $24 #
shell $-1 $-1 $-1 $76 $-1 $26 #
shell $-1 $-1 $-1 $77 $-1 $28 #
shell $-1 $-1 $-1 $78 $-1 $30 #
shell $-1 $-1 $-1 $79 $-1 $32 #
shell $-1 $-1 $-1 $80 $-1 $34 #
shell $-1 $-1 $-1 $81 $-1 $36 #
shell $-1 $-1 $-1 $82 $-1 $38 #
shell $-1 $-1 $-1 $83 $-1 $40 #
shell $-1 $-1 $-1 $84 $-1 $42 #
shell $-1 $-1 $-1 $85 $-1 $44 #
shell $-1 $-1 $-1 $86 $-1 $46 #
shell $-1 $-1 $-1 $87 $-1 $48 #
shell $-1 $-1 $-1 $88 $-1 $50 #
shell $-1 $-1 $-1 $89 $-1 $52 #
face $-1 $90 $91 $54 $-1 $92 forward single #
face $-1 $93 $94 $55 $-1 $95 forward single #
face $-1 $96 $97 $56 $-1 $98 reversed single #
face $-1 $99 $100 $57 $-1 $101 forward single #
face $-1 $102 $103 $58 $-1 $104 forward single #
face $-1 $105 $106 $59 $-1 $107 forward single #
face $-1 $108 $109 $60 $-1 $110 reversed single #
face $-1 $111 $112 $61 $-1 $113 forward single #
face $-1 $114 $115 $62 $-1 $116 forward single #
face $-1 $117 $118 $63 $-1 $119 forward single #
face $-1 $120 $121 $64 $-1 $122 reversed single #
face $-1 $123 $124 $65 $-1 $125 forward single #
face $-1 $126 $127 $66 $-1 $128 forward single #
face $-1 $129 $130 $67 $-1 $131 forward single #
face $-1 $132 $133 $68 $-1 $134 reversed single #
face $-1 $135 $136 $69 $-1 $137 forward single #
face $-1 $138 $139 $70 $-1 $140 forward single #
face $-1 $141 $142 $71 $-1 $143 forward single #
face $-1 $144 $145 $54 $-1 $146 reversed single #
loop $-1 $-1 $147 $72 #
plane-surface $-1 0 0 11.040619507696045 0 0 1 1 0 0 forward_v I I I I #
face $-1 $148 $149 $55 $-1 $150 reversed single #
loop $-1 $-1 $151 $73 #
plane-surface $-1 0 -38.321661325241394 0 0 1 0 0 0 1 forward_v I I I I #
face $-1 $152 $153 $56 $-1 $154 reversed single #
loop $-1 $-1 $155 $74 #
plane-surface $-1 137.25737842074878 -18.290230509455185 220.75307197583899 0 -1 0 -0.86602541151947299 0 -0.49999998660252726 forward_v I I I I #
face $-1 $156 $157 $57 $-1 $158 forward single #
loop $-1 $159 $160 $75 #
cone-surface $-1 76.852320110097722 -24.926917800575573 7.3953674385962511 -0.86602541151947299 0 -0.49999998660252726 0.24999999330126363 0 -0.43301270575973649 1 I I 0 1 0.5 forward I I I I #
face $-1 $161 $162 $58 $-1 $163 forward single #
loop $-1 $164 $165 $76 #
cone-surface $-1 76.852320110097722 -22.438160066405427 7.3953674385962511 -0.86602541151947299 0 -0.49999998660252726 0.24999999330126363 0 -0.43301270575973649 1 I I 0 1 0.5 forward I I I I #
face $-1 $166 $167 $59 $-1 $168 forward single #
loop $-1 $169 $170 $77 #
cone-surface $-1 76.852320110097722 -19.94940233223528 7.3953674385962511 -0.86602541151947299 0 -0.49999998660252726 0.24999999330126363 0 -0.43301270575973649 1 I I 0 1 0.5 forward I I I I #
face $-1 $171 $172 $60 $-1 $173 reversed single #
loop $-1 $-1 $174 $78 #
plane-surface $-1 137.25737842074878 30.025802211340906 220.75307197583899 0 1 0 0.86602541151947299 0 0.49999998660252726 forward_v I I I I #
face $-1 $175 $176 $61 $-1 $177 forward single #
loop $-1 $178 $179 $79 #
cone-surface $-1 76.852320110097722 31.684974034120998 7.3953674385962511 -0.86602541151947299 0 -0.49999998660252726 0.24999999330126363 0 -0.43301270575973649 1 I I 0 1 0.5 forward I I I I #
face $-1 $180 $181 $62 $-1 $182 forward single #
loop $-1 $183 $184 $80 #
cone-surface $-1 76.852320110097722 34.173731768291148 7.3953674385962511 -0.86602541151947299 0 -0.49999998660252726 0.24999999330126363 0 -0.43301270575973649 1 I I 0 1 0.5 forward I I I I #
face $-1 $185 $186 $63 $-1 $187 forward single #
loop $-1 $188 $189 $81 #
cone-surface $-1 76.852320110097722 36.662489502461284 7.3953674385962511 -0.86602541151947299 0 -0.49999998660252726 0.24999999330126363 0 -0.43301270575973649 1 I I 0 1 0.5 forward I I I I #
face $-1 $190 $191 $64 $-1 $192 reversed single #
loop $-1 $-1 $193 $82 #
plane-surface $-1 -216.50295874312107 -26.586089623355669 83.49569567847125 0 1 0 -0.86602541151947299 0 0.49999998660252726 forward_v I I I I #
face $-1 $194 $195 $65 $-1 $196 forward single #
loop $-1 $197 $198 $83 #
cone-surface $-1 -76.852320110097722 -24.926917800575573 7.3953674385962511 0.86602541151947299 0 -0.49999998660252726 0.24999999330126363 0 0.43301270575973649 1 I I 0 1 0.5 forward I I I I #
face $-1 $199 $200 $66 $-1 $201 forward single #
loop $-1 $202 $203 $84 #
cone-surface $-1 -76.852320110097722 -22.438160066405427 7.3953674385962511 0.86602541151947299 0 -0.49999998660252726 0.24999999330126363 0 0.43301270575973649 1 I I 0 1 0.5 forward I I I I #
face $-1 $204 $205 $67 $-1 $206 forward single #
loop $-1 $207 $208 $85 #
cone-surface $-1 -76.852320110097722 -19.94940233223528 7.3953674385962511 0.86602541151947299 0 -0.49999998660252726 0.24999999330126363 0 0.43301270575973649 1 I I 0 1 0.5 forward I I I I #
face $-1 $209 $210 $68 $-1 $211 reversed single #
loop $-1 $-1 $212 $86 #
plane-surface $-1 -216.50295874312107 30.025802211340906 83.49569567847125 0 1 0 -0.86602541151947299 0 0.49999998660252726 forward_v I I I I #
face $-1 $213 $214 $69 $-1 $215 forward single #
loop $-1 $216 $217 $87 #
cone-surface $-1 -76.852320110097722 31.684974034120998 7.3953674385962511 0.86602541151947299 0 -0.49999998660252726 0.24999999330126363 0 0.43301270575973649 1 I I 0 1 0.5 forward I I I I #
face $-1 $218 $219 $70 $-1 $220 forward single #
loop $-1 $221 $222 $88 #
cone-surface $-1 -76.852320110097722 34.173731768291148 7.3953674385962511 0.86602541151947299 0 -0.49999998660252726 0.24999999330126363 0 0.43301270575973649 1 I I 0 1 0.5 forward I I I I #
face $-1 $223 $224 $71 $-1 $225 forward single #
loop $-1 $226 $227 $89 #
cone-surface $-1 -76.852320110097722 36.662489502461284 7.3953674385962511 0.86602541151947299 0 -0.49999998660252726 0.24999999330126363 0 0.43301270575973649 1 I I 0 1 0.5 forward I I I I #
face $-1 $228 $229 $54 $-1 $230 reversed single #
loop $-1 $-1 $231 $90 #
plane-surface $-1 0 0 -11.040619507696045 0 0 1 1 0 0 forward_v I I I I #
coedge $-1 $232 $233 $234 $235 forward $91 $-1 #
face $-1 $236 $237 $55 $-1 $238 reversed single #
loop $-1 $-1 $239 $93 #
plane-surface $-1 0 0 -11.040619507696045 0 0 1 1 0 0 forward_v I I I I #
coedge $-1 $240 $241 $242 $243 forward $94 $-1 #
face $-1 $244 $245 $56 $-1 $246 reversed single #
loop $-1 $-1 $247 $96 #
plane-surface $-1 2.1233810514331708e-006 -22.438160066405427 141.50749165346673 0.86602541151947299 0 0.49999998660252726 0.49999998660252726 0 -0.86602541151947299 forward_v I I I I #
coedge $-1 $248 $249 $250 $251 reversed $97 $-1 #
face $-1 $-1 $252 $57 $-1 $253 forward single #
loop $-1 $254 $255 $99 #
cone-surface $-1 76.202801051458124 -24.926917800575573 7.0203674486443557 -0.86602541151947299 0 -0.49999998660252726 0.12499999665063181 0 -0.21650635287986825 1 I I -0.70710678118654746 0.70710678118654746 0.25 forward I I I I #
loop $-1 $-1 $256 $75 #
coedge $-1 $160 $160 $257 $258 reversed $100 $-1 #
face $-1 $-1 $259 $58 $-1 $260 forward single #
loop $-1 $261 $262 $102 #
cone-surface $-1 76.202801051458124 -22.438160066405427 7.0203674486443557 -0.86602541151947299 0 -0.49999998660252726 0.12499999665063181 0 -0.21650635287986825 1 I I -0.70710678118654746 0.70710678118654746 0.25 forward I I I I #
loop $-1 $-1 $263 $76 #
coedge $-1 $165 $165 $264 $265 reversed $103 $-1 #
face $-1 $-1 $266 $59 $-1 $267 forward single #
loop $-1 $268 $269 $105 #
cone-surface $-1 76.202801051458124 -19.94940233223528 7.0203674486443557 -0.86602541151947299 0 -0.49999998660252726 0.12499999665063181 0 -0.21650635287986825 1 I I -0.70710678118654746 0.70710678118654746 0.25 forward I I I I #
loop $-1 $-1 $270 $77 #
coedge $-1 $170 $170 $271 $272 reversed $106 $-1 #
face $-1 $273 $274 $60 $-1 $275 reversed single #
loop $-1 $-1 $276 $108 #
plane-surface $-1 2.1233810514331708e-006 34.173731768291148 141.50749165346673 0.86602541151947299 0 0.49999998660252726 0.49999998660252726 0 -0.86602541151947299 forward_v I I I I #
coedge $-1 $277 $278 $279 $280 reversed $109 $-1 #
face $-1 $-1 $281 $61 $-1 $282 forward single #
loop $-1 $283 $284 $111 #
cone-surface $-1 76.202801051458124 31.684974034120998 7.0203674486443557 -0.86602541151947299 0 -0.49999998660252726 0.12499999665063181 0 -0.21650635287986825 1 I I -0.70710678118654746 0.70710678118654746 0.25 forward I I I I #
loop $-1 $-1 $285 $79 #
coedge $-1 $179 $179 $286 $287 reversed $112 $-1 #
face $-1 $-1 $288 $62 $-1 $289 forward single #
loop $-1 $290 $291 $114 #
cone-surface $-1 76.202801051458124 34.173731768291148 7.0203674486443557 -0.86602541151947299 0 -0.49999998660252726 0.12499999665063181 0 -0.21650635287986825 1 I I -0.70710678118654746 0.70710678118654746 0.25 forward I I I I #
loop $-1 $-1 $292 $80 #
coedge $-1 $184 $184 $293 $294 reversed $115 $-1 #
face $-1 $-1 $295 $63 $-1 $296 forward single #
loop $-1 $297 $298 $117 #
cone-surface $-1 76.202801051458124 36.662489502461284 7.0203674486443557 -0.86602541151947299 0 -0.49999998660252726 0.12499999665063181 0 -0.21650635287986825 1 I I -0.70710678118654746 0.70710678118654746 0.25 forward I I I I #
loop $-1 $-1 $299 $81 #
coedge $-1 $189 $189 $300 $301 reversed $118 $-1 #
face $-1 $302 $303 $64 $-1 $304 reversed single #
loop $-1 $-1 $305 $120 #
plane-surface $-1 -79.245582445753342 -22.438160066405427 4.2501153560989735 -0.86602541151947299 0 0.49999998660252726 0.49999998660252726 0 0.86602541151947299 forward_v I I I I #
coedge $-1 $306 $307 $308 $309 reversed $121 $-1 #
face $-1 $-1 $310 $65 $-1 $311 forward single #
loop $-1 $312 $313 $123 #
cone-surface $-1 -76.202801051458124 -24.926917800575573 7.0203674486443557 0.86602541151947299 0 -0.49999998660252726 0.12499999665063181 0 0.21650635287986825 1 I I -0.70710678118654746 0.70710678118654746 0.25 forward I I I I #
loop $-1 $-1 $314 $83 #
coedge $-1 $198 $198 $315 $316 reversed $124 $-1 #
face $-1 $-1 $317 $66 $-1 $318 forward single #
loop $-1 $319 $320 $126 #
cone-surface $-1 -76.202801051458124 -22.438160066405427 7.0203674486443557 0.86602541151947299 0 -0.49999998660252726 0.12499999665063181 0 0.21650635287986825 1 I I -0.70710678118654746 0.70710678118654746 0.25 forward I I I I #
loop $-1 $-1 $321 $84 #
coedge $-1 $203 $203 $322 $323 reversed $127 $-1 #
face $-1 $-1 $324 $67 $-1 $325 forward single #
loop $-1 $326 $327 $129 #
cone-surface $-1 -76.202801051458124 -19.94940233223528 7.0203674486443557 0.86602541151947299 0 -0.49999998660252726 0.12499999665063181 0 0.21650635287986825 1 I I -0.70710678118654746 0.70710678118654746 0.25 forward I I I I #
loop $-1 $-1 $328 $85 #
coedge $-1 $208 $208 $329 $330 reversed $130 $-1 #
face $-1 $331 $332 $68 $-1 $333 forward single #
loop $-1 $-1 $334 $132 #
plane-surface $-1 -79.245582445753342 34.173731768291148 4.2501153560989735 -0.86602541151947299 0 0.49999998660252726 0.49999998660252726 0 0.86602541151947299 forward_v I I I I #
coedge $-1 $335 $336 $337 $338 reversed $133 $-1 #
face $-1 $-1 $339 $69 $-1 $340 forward single #
loop $-1 $341 $342 $135 #
cone-surface $-1 -76.202801051458124 31.684974034120998 7.0203674486443557 0.86602541151947299 0 -0.49999998660252726 0.12499999665063181 0 0.21650635287986825 1 I I -0.70710678118654746 0.70710678118654746 0.25 forward I I I I #
loop $-1 $-1 $343 $87 #
coedge $-1 $217 $217 $344 $345 reversed $136 $-1 #
face $-1 $-1 $346 $70 $-1 $347 forward single #
loop $-1 $348 $349 $138 #
cone-surface $-1 -76.202801051458124 34.173731768291148 7.0203674486443557 0.86602541151947299 0 -0.49999998660252726 0.12499999665063181 0 0.21650635287986825 1 I I -0.70710678118654746 0.70710678118654746 0.25 forward I I I I #
loop $-1 $-1 $350 $88 #
coedge $-1 $222 $222 $351 $352 reversed $139 $-1 #
face $-1 $-1 $353 $71 $-1 $354 forward single #
loop $-1 $355 $356 $141 #
cone-surface $-1 -76.202801051458124 36.662489502461284 7.0203674486443557 0.86602541151947299 0 -0.49999998660252726 0.12499999665063181 0 0.21650635287986825 1 I I -0.70710678118654746 0.70710678118654746 0.25 forward I I I I #
loop $-1 $-1 $357 $89 #
coedge $-1 $227 $227 $358 $359 reversed $142 $-1 #
face $-1 $360 $361 $54 $-1 $362 reversed single #
loop $-1 $-1 $363 $144 #
plane-surface $-1 0 -38.321661325241394 0 0 1 0 0 0 1 forward_v I I I I #
coedge $-1 $364 $365 $366 $367 forward $145 $-1 #
coedge $-1 $368 $147 $369 $370 forward $91 $-1 #
coedge $-1 $147 $368 $371 $372 forward $91 $-1 #
coedge $-1 $373 $374 $147 $235 reversed $375 $-1 #
edge $-1 $376 -38.321661325241394 $377 38.321661325241394 $234 $378 forward 7 unknown #
face $-1 $379 $380 $55 $-1 $381 forward single #
loop $-1 $-1 $382 $148 #
plane-surface $-1 79.245582445753342 0 0 -1 0 0 0 0 1 forward_v I I I I #
coedge $-1 $383 $384 $385 $386 forward $149 $-1 #
coedge $-1 $385 $151 $382 $387 reversed $94 $-1 #
coedge $-1 $151 $385 $388 $389 reversed $94 $-1 #
coedge $-1 $390 $391 $151 $243 reversed $380 $-1 #
edge $-1 $392 -79.245582445753342 $393 79.245582445753342 $242 $394 forward 7 unknown #
face $-1 $395 $396 $56 $-1 $397 reversed single #
loop $-1 $-1 $398 $152 #
plane-surface $-1 137.25737842074878 -26.586089623355669 220.75307197583899 0 1 0 0.86602541151947299 0 0.49999998660252726 forward_v I I I I #
coedge $-1 $399 $400 $401 $402 reversed $153 $-1 #
coedge $-1 $249 $155 $403 $404 reversed $97 $-1 #
coedge $-1 $155 $248 $399 $405 reversed $97 $-1 #
coedge $-1 $401 $406 $155 $251 forward $407 $-1 #
edge $-1 $408 -10.616893235378953 $409 -6.6963939755871991 $250 $410 forward 7 unknown #
loop $-1 $-1 $257 $156 #
plane-surface $-1 2.1233810514331708e-006 -22.438160066405427 141.50749165346673 0.86602541151947299 0 0.49999998660252726 0.49999998660252726 0 -0.86602541151947299 forward_v I I I I #
loop $-1 $-1 $411 $99 #
coedge $-1 $255 $255 $256 $412 reversed $157 $-1 #
coedge $-1 $256 $256 $255 $412 forward $159 $-1 #
coedge $-1 $257 $257 $160 $258 forward $252 $-1 #
edge $-1 $413 0 $413 6.2831853071796004 $257 $414 forward 7 unknown #
loop $-1 $-1 $264 $161 #
plane-surface $-1 2.1233810514331708e-006 -22.438160066405427 141.50749165346673 0.86602541151947299 0 0.49999998660252726 0.49999998660252726 0 -0.86602541151947299 forward_v I I I I #
loop $-1 $-1 $415 $102 #
coedge $-1 $262 $262 $263 $416 reversed $162 $-1 #
coedge $-1 $263 $263 $262 $416 forward $164 $-1 #
coedge $-1 $264 $264 $165 $265 forward $259 $-1 #
edge $-1 $417 0 $417 6.2831853071796004 $264 $418 forward 7 unknown #
loop $-1 $-1 $271 $166 #
plane-surface $-1 2.1233810514331708e-006 -22.438160066405427 141.50749165346673 0.86602541151947299 0 0.49999998660252726 0.49999998660252726 0 -0.86602541151947299 forward_v I I I I #
loop $-1 $-1 $419 $105 #
coedge $-1 $269 $269 $270 $420 reversed $167 $-1 #
coedge $-1 $270 $270 $269 $420 forward $169 $-1 #
coedge $-1 $271 $271 $170 $272 forward $266 $-1 #
edge $-1 $421 0 $421 6.2831853071796004 $271 $422 forward 7 unknown #
face $-1 $423 $424 $60 $-1 $425 forward single #
loop $-1 $-1 $279 $171 #
plane-surface $-1 79.245582445753342 0 0 -1 0 0 0 0 1 forward_v I I I I #
coedge $-1 $426 $427 $428 $429 reversed $172 $-1 #
coedge $-1 $278 $174 $430 $431 reversed $109 $-1 #
coedge $-1 $174 $277 $426 $432 reversed $109 $-1 #
coedge $-1 $428 $433 $174 $280 forward $274 $-1 #
edge $-1 $434 99.335916480223446 $435 106.12642063182052 $279 $436 forward 7 unknown #
loop $-1 $-1 $286 $175 #
plane-surface $-1 2.1233810514331708e-006 34.173731768291148 141.50749165346673 0.86602541151947299 0 0.49999998660252726 0.49999998660252726 0 -0.86602541151947299 forward_v I I I I #
loop $-1 $-1 $437 $111 #
coedge $-1 $284 $284 $285 $438 reversed $176 $-1 #
coedge $-1 $285 $285 $284 $438 forward $178 $-1 #
coedge $-1 $286 $286 $179 $287 forward $281 $-1 #
edge $-1 $439 0 $439 6.2831853071796004 $286 $440 forward 7 unknown #
loop $-1 $-1 $293 $180 #
plane-surface $-1 2.1233810514331708e-006 34.173731768291148 141.50749165346673 0.86602541151947299 0 0.49999998660252726 0.49999998660252726 0 -0.86602541151947299 forward_v I I I I #
loop $-1 $-1 $441 $114 #
coedge $-1 $291 $291 $292 $442 reversed $181 $-1 #
coedge $-1 $292 $292 $291 $442 forward $183 $-1 #
coedge $-1 $293 $293 $184 $294 forward $288 $-1 #
edge $-1 $443 0 $443 6.2831853071796004 $293 $444 forward 7 unknown #
loop $-1 $-1 $300 $185 #
plane-surface $-1 2.1233810514331708e-006 34.173731768291148 141.50749165346673 0.86602541151947299 0 0.49999998660252726 0.49999998660252726 0 -0.86602541151947299 forward_v I I I I #
loop $-1 $-1 $445 $117 #
coedge $-1 $298 $298 $299 $446 reversed $186 $-1 #
coedge $-1 $299 $299 $298 $446 forward $188 $-1 #
coedge $-1 $300 $300 $189 $301 forward $295 $-1 #
edge $-1 $447 0 $447 6.2831853071796004 $300 $448 forward 7 unknown #
face $-1 $449 $450 $64 $-1 $451 reversed single #
loop $-1 $-1 $452 $190 #
plane-surface $-1 -216.50295874312107 -18.290230509455185 83.49569567847125 0 -1 0 0.86602541151947299 0 -0.49999998660252726 forward_v I I I I #
coedge $-1 $453 $454 $455 $456 reversed $191 $-1 #
coedge $-1 $307 $193 $457 $458 reversed $121 $-1 #
coedge $-1 $193 $306 $453 $459 reversed $121 $-1 #
coedge $-1 $455 $460 $193 $309 forward $461 $-1 #
edge $-1 $462 29.005896925807193 $463 32.926396185598946 $308 $464 forward 7 unknown #
loop $-1 $-1 $315 $194 #
plane-surface $-1 -79.245582445753342 -22.438160066405427 4.2501153560989735 -0.86602541151947299 0 0.49999998660252726 0.49999998660252726 0 0.86602541151947299 forward_v I I I I #
loop $-1 $-1 $465 $123 #
coedge $-1 $313 $313 $314 $466 reversed $195 $-1 #
coedge $-1 $314 $314 $313 $466 forward $197 $-1 #
coedge $-1 $315 $315 $198 $316 forward $310 $-1 #
edge $-1 $467 0 $467 6.2831853071796004 $315 $468 forward 7 unknown #
loop $-1 $-1 $322 $199 #
plane-surface $-1 -79.245582445753342 -22.438160066405427 4.2501153560989735 -0.86602541151947299 0 0.49999998660252726 0.49999998660252726 0 0.86602541151947299 forward_v I I I I #
loop $-1 $-1 $469 $126 #
coedge $-1 $320 $320 $321 $470 reversed $200 $-1 #
coedge $-1 $321 $321 $320 $470 forward $202 $-1 #
coedge $-1 $322 $322 $203 $323 forward $317 $-1 #
edge $-1 $471 0 $471 6.2831853071796004 $322 $472 forward 7 unknown #
loop $-1 $-1 $329 $204 #
plane-surface $-1 -79.245582445753342 -22.438160066405427 4.2501153560989735 -0.86602541151947299 0 0.49999998660252726 0.49999998660252726 0 0.86602541151947299 forward_v I I I I #
loop $-1 $-1 $473 $129 #
coedge $-1 $327 $327 $328 $474 reversed $205 $-1 #
coedge $-1 $328 $328 $327 $474 forward $207 $-1 #
coedge $-1 $329 $329 $208 $330 forward $324 $-1 #
edge $-1 $475 0 $475 6.2831853071796004 $329 $476 forward 7 unknown #
face $-1 $477 $478 $68 $-1 $479 reversed single #
loop $-1 $-1 $337 $209 #
plane-surface $-1 0 0 11.040619507696045 0 0 1 1 0 0 forward_v I I I I #
coedge $-1 $480 $481 $482 $483 reversed $210 $-1 #
coedge $-1 $336 $212 $484 $485 reversed $133 $-1 #
coedge $-1 $212 $335 $480 $486 reversed $133 $-1 #
coedge $-1 $482 $487 $212 $338 forward $332 $-1 #
edge $-1 $488 29.005896925807193 $489 32.926396185598946 $337 $490 forward 7 unknown #
loop $-1 $-1 $344 $213 #
plane-surface $-1 -79.245582445753342 34.173731768291148 4.2501153560989735 -0.86602541151947299 0 0.49999998660252726 0.49999998660252726 0 0.86602541151947299 forward_v I I I I #
loop $-1 $-1 $491 $135 #
coedge $-1 $342 $342 $343 $492 reversed $214 $-1 #
coedge $-1 $343 $343 $342 $492 forward $216 $-1 #
coedge $-1 $344 $344 $217 $345 forward $339 $-1 #
edge $-1 $493 0 $493 6.2831853071796004 $344 $494 forward 7 unknown #
loop $-1 $-1 $351 $218 #
plane-surface $-1 -79.245582445753342 34.173731768291148 4.2501153560989735 -0.86602541151947299 0 0.49999998660252726 0.49999998660252726 0 0.86602541151947299 forward_v I I I I #
loop $-1 $-1 $495 $138 #
coedge $-1 $349 $349 $350 $496 reversed $219 $-1 #
coedge $-1 $350 $350 $349 $496 forward $221 $-1 #
coedge $-1 $351 $351 $222 $352 forward $346 $-1 #
edge $-1 $497 0 $497 6.2831853071796004 $351 $498 forward 7 unknown #
loop $-1 $-1 $358 $223 #
plane-surface $-1 -79.245582445753342 34.173731768291148 4.2501153560989735 -0.86602541151947299 0 0.49999998660252726 0.49999998660252726 0 0.86602541151947299 forward_v I I I I #
loop $-1 $-1 $499 $141 #
coedge $-1 $356 $356 $357 $500 reversed $224 $-1 #
coedge $-1 $357 $357 $356 $500 forward $226 $-1 #
coedge $-1 $358 $358 $227 $359 forward $353 $-1 #
edge $-1 $501 0 $501 6.2831853071796004 $358 $502 forward 7 unknown #
face $-1 $503 $504 $54 $-1 $505 reversed single #
loop $-1 $-1 $506 $228 #
plane-surface $-1 -79.245582445753342 0 0 1 0 0 0 0 -1 forward_v I I I I #
coedge $-1 $507 $371 $508 $509 forward $229 $-1 #
coedge $-1 $510 $231 $507 $511 forward $145 $-1 #
coedge $-1 $231 $510 $512 $513 forward $145 $-1 #
coedge $-1 $374 $373 $231 $367 reversed $375 $-1 #
edge $-1 $514 -38.321661325241394 $515 38.321661325241394 $366 $516 forward 7 unknown #
coedge $-1 $233 $232 $517 $518 forward $91 $-1 #
coedge $-1 $519 $520 $232 $370 reversed $504 $-1 #
edge $-1 $377 -79.245582445753342 $521 79.245582445753342 $369 $522 forward 7 unknown #
coedge $-1 $363 $523 $233 $372 reversed $229 $-1 #
edge $-1 $524 -79.245582445753342 $376 79.245582445753342 $371 $525 forward 7 unknown #
coedge $-1 $366 $234 $523 $526 forward $375 $-1 #
coedge $-1 $234 $366 $519 $527 reversed $375 $-1 #
loop $-1 $-1 $373 $503 #
vertex $-1 $235 $528 #
vertex $-1 $235 $529 #
straight-curve $-1 79.245582445753342 0 11.040619507696045 0 1 0 I I #
face $-1 $530 $531 $55 $-1 $532 reversed single #
loop $-1 $-1 $391 $236 #
plane-surface $-1 0 -44.18944717618426 -5.8911158016467073 0 0 1 1 0 0 forward_v I I I I #
coedge $-1 $533 $534 $240 $387 forward $237 $-1 #
coedge $-1 $535 $239 $534 $536 forward $149 $-1 #
coedge $-1 $239 $535 $537 $538 forward $149 $-1 #
coedge $-1 $241 $240 $239 $386 reversed $94 $-1 #
edge $-1 $539 -79.245582445753342 $540 79.245582445753342 $239 $541 forward 7 unknown #
edge $-1 $540 -11.040619507696045 $393 -5.8911158016467073 $382 $542 forward 7 unknown #
coedge $-1 $537 $543 $241 $389 forward $544 $-1 #
edge $-1 $392 5.8911158016467073 $539 11.040619507696045 $388 $545 forward 7 unknown #
coedge $-1 $546 $242 $543 $547 forward $380 $-1 #
coedge $-1 $242 $546 $533 $548 forward $380 $-1 #
vertex $-1 $389 $549 #
vertex $-1 $548 $550 #
straight-curve $-1 0 -38.321661325241394 -5.8911158016467073 1 0 0 I I #
face $-1 $-1 $407 $56 $-1 $551 forward single #
loop $-1 $-1 $552 $244 #
plane-surface $-1 79.245582445753342 0 0 -1 0 0 0 0 1 forward_v I I I I #
coedge $-1 $553 $554 $555 $556 reversed $245 $-1 #
coedge $-1 $557 $247 $249 $405 forward $153 $-1 #
coedge $-1 $247 $557 $553 $558 forward $153 $-1 #
coedge $-1 $555 $250 $247 $402 forward $407 $-1 #
edge $-1 $409 7.0711504762524715 $559 15.367009590152955 $401 $560 forward 7 unknown #
coedge $-1 $561 $562 $248 $404 forward $396 $-1 #
edge $-1 $563 -106.12642063182052 $408 -99.335916480223446 $403 $564 forward 7 unknown #
edge $-1 $409 150.65016616182407 $563 158.49116489150671 $249 $565 forward 7 unknown #
coedge $-1 $250 $555 $561 $566 forward $407 $-1 #
loop $-1 $-1 $555 $395 #
vertex $-1 $404 $567 #
vertex $-1 $251 $568 #
straight-curve $-1 68.62868921037439 -18.290230509455185 11.04061950769605 -1 0 0 I I #
coedge $-1 $411 $411 $-1 $569 reversed $254 $-1 #
edge $-1 $570 0 $570 6.2831853071796004 $255 $571 forward 7 unknown #
vertex $-1 $258 $572 #
ellipse-curve $-1 77.285332815857473 -24.926917800575573 7.6453674318975215 0.86602541151947299 0 0.49999998660252726 0.24999999330126363 0 -0.43301270575973649 1 I I #
coedge $-1 $415 $415 $-1 $573 reversed $261 $-1 #
edge $-1 $574 0 $574 6.2831853071796004 $262 $575 forward 7 unknown #
vertex $-1 $265 $576 #
ellipse-curve $-1 77.285332815857473 -22.438160066405427 7.6453674318975215 0.86602541151947299 0 0.49999998660252726 0.24999999330126363 0 -0.43301270575973649 1 I I #
coedge $-1 $419 $419 $-1 $577 reversed $268 $-1 #
edge $-1 $578 0 $578 6.2831853071796004 $269 $579 forward 7 unknown #
vertex $-1 $272 $580 #
ellipse-curve $-1 77.285332815857473 -19.94940233223528 7.6453674318975215 0.86602541151947299 0 0.49999998660252726 0.24999999330126363 0 -0.43301270575973649 1 I I #
face $-1 $-1 $581 $60 $-1 $582 reversed single #
loop $-1 $-1 $430 $273 #
plane-surface $-1 0 0 11.040619507696045 0 0 1 1 0 0 forward_v I I I I #
coedge $-1 $583 $276 $278 $432 forward $172 $-1 #
coedge $-1 $276 $583 $584 $585 reversed $172 $-1 #
coedge $-1 $586 $279 $276 $429 forward $274 $-1 #
edge $-1 $435 12.938936327195332 $587 21.23479544109582 $428 $588 forward 7 unknown #
coedge $-1 $589 $590 $277 $431 forward $424 $-1 #
edge $-1 $591 6.6963939755871991 $434 10.616893235378953 $430 $592 forward 7 unknown #
edge $-1 $435 -158.49116489150671 $591 -150.65016616182407 $278 $593 forward 7 unknown #
coedge $-1 $279 $586 $589 $594 reversed $274 $-1 #
vertex $-1 $594 $595 #
vertex $-1 $280 $596 #
straight-curve $-1 79.245582445753342 30.025802211340906 110.3765359879195 0 0 -1 I I #
coedge $-1 $437 $437 $-1 $597 reversed $283 $-1 #
edge $-1 $598 0 $598 6.2831853071796004 $284 $599 forward 7 unknown #
vertex $-1 $287 $600 #
ellipse-curve $-1 77.285332815857473 31.684974034120998 7.6453674318975215 0.86602541151947299 0 0.49999998660252726 0.24999999330126363 0 -0.43301270575973649 1 I I #
coedge $-1 $441 $441 $-1 $601 reversed $290 $-1 #
edge $-1 $602 0 $602 6.2831853071796004 $291 $603 forward 7 unknown #
vertex $-1 $294 $604 #
ellipse-curve $-1 77.285332815857473 34.173731768291148 7.6453674318975215 0.86602541151947299 0 0.49999998660252726 0.24999999330126363 0 -0.43301270575973649 1 I I #
coedge $-1 $445 $445 $-1 $605 reversed $297 $-1 #
edge $-1 $606 0 $606 6.2831853071796004 $298 $607 forward 7 unknown #
vertex $-1 $301 $608 #
ellipse-curve $-1 77.285332815857473 36.662489502461284 7.6453674318975215 0.86602541151947299 0 0.49999998660252726 0.24999999330126363 0 -0.43301270575973649 1 I I #
face $-1 $-1 $461 $64 $-1 $609 forward single #
loop $-1 $-1 $610 $302 #
plane-surface $-1 -79.245582445753342 0 0 1 0 0 0 0 -1 forward_v I I I I #
coedge $-1 $611 $612 $613 $614 reversed $303 $-1 #
coedge $-1 $615 $305 $307 $459 forward $191 $-1 #
coedge $-1 $305 $615 $611 $616 forward $191 $-1 #
coedge $-1 $613 $308 $305 $456 forward $461 $-1 #
edge $-1 $463 -15.367009590152955 $617 -7.0711504762524715 $455 $618 forward 7 unknown #
coedge $-1 $619 $620 $306 $458 forward $450 $-1 #
edge $-1 $621 -37.497732483136652 $462 -30.707228331539582 $457 $622 forward 7 unknown #
edge $-1 $463 -7.8409987296826387 $621 0 $307 $623 forward 7 unknown #
coedge $-1 $308 $613 $619 $624 forward $461 $-1 #
loop $-1 $-1 $613 $449 #
vertex $-1 $458 $625 #
vertex $-1 $309 $626 #
straight-curve $-1 -108.25147937156054 -26.586089623355669 11.040619507696043 1 0 0 I I #
coedge $-1 $465 $465 $-1 $627 reversed $312 $-1 #
edge $-1 $628 0 $628 6.2831853071796004 $313 $629 forward 7 unknown #
vertex $-1 $316 $630 #
ellipse-curve $-1 -77.285332815857458 -24.926917800575573 7.6453674318975171 -0.86602541151947299 0 0.49999998660252726 0.24999999330126363 0 0.43301270575973649 1 I I #
coedge $-1 $469 $469 $-1 $631 reversed $319 $-1 #
edge $-1 $632 0 $632 6.2831853071796004 $320 $633 forward 7 unknown #
vertex $-1 $323 $634 #
ellipse-curve $-1 -77.285332815857458 -22.438160066405427 7.6453674318975171 -0.86602541151947299 0 0.49999998660252726 0.24999999330126363 0 0.43301270575973649 1 I I #
coedge $-1 $473 $473 $-1 $635 reversed $326 $-1 #
edge $-1 $636 0 $636 6.2831853071796004 $327 $637 forward 7 unknown #
vertex $-1 $330 $638 #
ellipse-curve $-1 -77.285332815857458 -19.94940233223528 7.6453674318975171 -0.86602541151947299 0 0.49999998660252726 0.24999999330126363 0 0.43301270575973649 1 I I #
face $-1 $-1 $639 $68 $-1 $640 reversed single #
loop $-1 $-1 $641 $331 #
plane-surface $-1 0 38.321661325241394 0 0 -1 0 0 0 -1 forward_v I I I I #
coedge $-1 $642 $334 $336 $486 forward $210 $-1 #
coedge $-1 $334 $642 $641 $643 reversed $210 $-1 #
coedge $-1 $644 $337 $334 $483 forward $332 $-1 #
edge $-1 $489 12.938936327195332 $645 21.23479544109582 $482 $646 forward 7 unknown #
coedge $-1 $647 $648 $335 $485 forward $639 $-1 #
edge $-1 $649 -37.497732483136652 $488 -30.707228331539582 $484 $650 forward 7 unknown #
edge $-1 $489 -7.8409987296826387 $649 0 $336 $651 forward 7 unknown #
coedge $-1 $337 $644 $647 $652 forward $332 $-1 #
vertex $-1 $485 $653 #
vertex $-1 $338 $654 #
straight-curve $-1 -108.25147937156054 30.025802211340906 11.040619507696043 1 0 0 I I #
coedge $-1 $491 $491 $-1 $655 reversed $341 $-1 #
edge $-1 $656 0 $656 6.2831853071796004 $342 $657 forward 7 unknown #
vertex $-1 $345 $658 #
ellipse-curve $-1 -77.285332815857458 31.684974034120998 7.6453674318975171 -0.86602541151947299 0 0.49999998660252726 0.24999999330126363 0 0.43301270575973649 1 I I #
coedge $-1 $495 $495 $-1 $659 reversed $348 $-1 #
edge $-1 $660 0 $660 6.2831853071796004 $349 $661 forward 7 unknown #
vertex $-1 $352 $662 #
ellipse-curve $-1 -77.285332815857458 34.173731768291148 7.6453674318975171 -0.86602541151947299 0 0.49999998660252726 0.24999999330126363 0 0.43301270575973649 1 I I #
coedge $-1 $499 $499 $-1 $663 reversed $355 $-1 #
edge $-1 $664 0 $664 6.2831853071796004 $356 $665 forward 7 unknown #
vertex $-1 $359 $666 #
ellipse-curve $-1 -77.285332815857458 36.662489502461284 7.6453674318975171 -0.86602541151947299 0 0.49999998660252726 0.24999999330126363 0 0.43301270575973649 1 I I #
face $-1 $-1 $375 $54 $-1 $667 reversed single #
loop $-1 $-1 $519 $360 #
plane-surface $-1 0 38.321661325241394 0 0 -1 0 0 0 -1 forward_v I I I I #
coedge $-1 $668 $517 $520 $669 forward $361 $-1 #
coedge $-1 $523 $363 $364 $511 reversed $229 $-1 #
coedge $-1 $517 $668 $363 $509 reversed $361 $-1 #
edge $-1 $524 -11.040619507696045 $670 11.040619507696045 $508 $671 forward 7 unknown #
coedge $-1 $365 $364 $668 $672 forward $145 $-1 #
edge $-1 $515 -79.245582445753342 $670 79.245582445753342 $507 $673 forward 7 unknown #
coedge $-1 $520 $519 $365 $513 reversed $504 $-1 #
edge $-1 $674 -79.245582445753342 $514 79.245582445753342 $512 $675 forward 7 unknown #
vertex $-1 $367 $676 #
vertex $-1 $526 $677 #
straight-curve $-1 79.245582445753342 0 -11.040619507696045 0 -1 0 I I #
coedge $-1 $506 $508 $368 $518 reversed $361 $-1 #
edge $-1 $521 -38.321661325241394 $524 38.321661325241394 $517 $678 forward 7 unknown #
coedge $-1 $512 $369 $374 $527 forward $504 $-1 #
coedge $-1 $369 $512 $506 $669 reversed $504 $-1 #
vertex $-1 $370 $679 #
straight-curve $-1 0 38.321661325241394 11.040619507696045 -1 0 0 I I #
coedge $-1 $371 $507 $373 $526 reversed $229 $-1 #
vertex $-1 $518 $680 #
straight-curve $-1 0 -38.321661325241394 11.040619507696045 1 0 0 I I #
edge $-1 $376 -11.040619507696045 $515 11.040619507696045 $373 $681 forward 7 unknown #
edge $-1 $377 -11.040619507696045 $514 11.040619507696045 $374 $682 forward 7 unknown #
point $-1 79.245582445753342 -38.321661325241394 11.040619507696045 #
point $-1 79.245582445753342 38.321661325241394 11.040619507696045 #
face $-1 $-1 $544 $55 $-1 $683 reversed single #
loop $-1 $-1 $684 $379 #
plane-surface $-1 0 -50.057233027127126 -8.465867654671376 0 1 0 0 0 1 forward_v I I I I #
coedge $-1 $685 $382 $391 $548 reversed $237 $-1 #
coedge $-1 $382 $685 $383 $536 reversed $237 $-1 #
coedge $-1 $384 $383 $686 $687 forward $149 $-1 #
edge $-1 $540 38.321661325241394 $688 50.057233027127126 $534 $689 forward 7 unknown #
coedge $-1 $690 $388 $384 $538 reversed $544 $-1 #
edge $-1 $691 -50.057233027127126 $539 -38.321661325241394 $537 $692 forward 7 unknown #
vertex $-1 $389 $693 #
vertex $-1 $536 $694 #
straight-curve $-1 0 -38.321661325241394 -11.040619507696045 1 0 0 I I #
straight-curve $-1 79.245582445753342 -38.321661325241394 0 0 0 1 I I #
coedge $-1 $388 $690 $390 $547 reversed $544 $-1 #
loop $-1 $-1 $388 $530 #
straight-curve $-1 -79.245582445753342 -38.321661325241394 0 0 0 -1 I I #
coedge $-1 $391 $390 $695 $696 forward $380 $-1 #
edge $-1 $392 -5.867785850942866 $697 5.867785850942866 $543 $698 forward 7 unknown #
edge $-1 $699 -5.867785850942866 $393 5.867785850942866 $533 $700 forward 7 unknown #
point $-1 -79.245582445753342 -38.321661325241394 -5.8911158016467073 #
point $-1 79.245582445753342 -38.321661325241394 -5.8911158016467073 #
plane-surface $-1 0 0 11.040619507696045 0 0 1 1 0 0 forward_v I I I I #
coedge $-1 $562 $561 $554 $701 forward $396 $-1 #
coedge $-1 $554 $398 $400 $558 reversed $245 $-1 #
coedge $-1 $398 $553 $552 $701 reversed $245 $-1 #
coedge $-1 $406 $401 $398 $556 forward $407 $-1 #
edge $-1 $559 6.6963939755871991 $702 10.616893235378953 $555 $703 forward 7 unknown #
coedge $-1 $400 $399 $562 $704 reversed $153 $-1 #
edge $-1 $705 -158.49116489150671 $559 -150.65016616182407 $553 $706 forward 7 unknown #
vertex $-1 $402 $707 #
straight-curve $-1 75.325083185961603 -11.219080033202713 11.04061950769605 0 -1 0 I I #
coedge $-1 $552 $403 $406 $566 reversed $396 $-1 #
coedge $-1 $403 $552 $557 $704 forward $396 $-1 #
vertex $-1 $404 $708 #
straight-curve $-1 79.245582445753342 -18.290230509455185 110.3765359879195 0 0 1 I I #
straight-curve $-1 2.1233810514331708e-006 -18.290230509455185 141.50749165346673 0.49999998660252726 0 -0.86602541151947299 I I #
edge $-1 $702 -26.586089623355669 $408 -18.290230509455185 $561 $709 forward 7 unknown #
point $-1 79.245582445753342 -18.290230509455185 11.040619507696045 #
point $-1 75.325083185961589 -18.290230509455185 11.04061950769605 #
edge $-1 $710 1 $710 0 $411 $-1 forward 7 unknown #
vertex $-1 $412 $711 #
ellipse-curve $-1 76.419307404337985 -24.926917800575573 7.1453674452949878 0.86602541151947299 0 0.49999998660252726 0.24999999330126363 0 -0.43301270575973649 1 I I #
point $-1 77.535332809158731 -24.926917800575573 7.2123547261377787 #
edge $-1 $712 1 $712 0 $415 $-1 forward 7 unknown #
vertex $-1 $416 $713 #
ellipse-curve $-1 76.419307404337985 -22.438160066405427 7.1453674452949878 0.86602541151947299 0 0.49999998660252726 0.24999999330126363 0 -0.43301270575973649 1 I I #
point $-1 77.535332809158731 -22.438160066405427 7.2123547261377787 #
edge $-1 $714 1 $714 0 $419 $-1 forward 7 unknown #
vertex $-1 $420 $715 #
ellipse-curve $-1 76.419307404337985 -19.94940233223528 7.1453674452949878 0.86602541151947299 0 0.49999998660252726 0.24999999330126363 0 -0.43301270575973649 1 I I #
point $-1 77.535332809158731 -19.94940233223528 7.2123547261377787 #
loop $-1 $-1 $584 $423 #
plane-surface $-1 0 38.321661325241394 0 0 -1 0 0 0 -1 forward_v I I I I #
coedge $-1 $427 $426 $590 $716 reversed $172 $-1 #
coedge $-1 $717 $718 $427 $585 forward $581 $-1 #
edge $-1 $587 -97.216623576210992 $719 -89.375624846528368 $584 $720 forward 7 unknown #
coedge $-1 $433 $428 $718 $721 reversed $274 $-1 #
vertex $-1 $429 $722 #
straight-curve $-1 79.245582445753342 17.086865884145574 4.2501153560989877 0 1 0 I I #
coedge $-1 $723 $430 $433 $594 forward $424 $-1 #
coedge $-1 $430 $723 $583 $716 forward $424 $-1 #
vertex $-1 $431 $724 #
straight-curve $-1 68.62868921037439 30.025802211340906 11.04061950769605 1 0 0 I I #
straight-curve $-1 2.1233810514331708e-006 30.025802211340906 141.50749165346673 -0.49999998660252726 0 0.86602541151947299 I I #
edge $-1 $434 30.025802211340906 $725 38.321661325241394 $433 $726 forward 7 unknown #
point $-1 79.245582445753342 30.025802211340906 11.040619507696045 #
point $-1 79.245582445753342 30.025802211340906 4.2501153560989735 #
edge $-1 $727 1 $727 0 $437 $-1 forward 7 unknown #
vertex $-1 $438 $728 #
ellipse-curve $-1 76.419307404337985 31.684974034120998 7.1453674452949878 0.86602541151947299 0 0.49999998660252726 0.24999999330126363 0 -0.43301270575973649 1 I I #
point $-1 77.535332809158731 31.684974034120998 7.2123547261377787 #
edge $-1 $729 1 $729 0 $441 $-1 forward 7 unknown #
vertex $-1 $442 $730 #
ellipse-curve $-1 76.419307404337985 34.173731768291148 7.1453674452949878 0.86602541151947299 0 0.49999998660252726 0.24999999330126363 0 -0.43301270575973649 1 I I #
point $-1 77.535332809158731 34.173731768291148 7.2123547261377787 #
edge $-1 $731 1 $731 0 $445 $-1 forward 7 unknown #
vertex $-1 $446 $732 #
ellipse-curve $-1 76.419307404337985 36.662489502461284 7.1453674452949878 0.86602541151947299 0 0.49999998660252726 0.24999999330126363 0 -0.43301270575973649 1 I I #
point $-1 77.535332809158731 36.662489502461284 7.2123547261377787 #
plane-surface $-1 0 0 11.040619507696045 0 0 1 1 0 0 forward_v I I I I #
coedge $-1 $620 $619 $612 $733 forward $450 $-1 #
coedge $-1 $612 $452 $454 $616 reversed $303 $-1 #
coedge $-1 $452 $611 $610 $733 reversed $303 $-1 #
coedge $-1 $460 $455 $452 $614 forward $461 $-1 #
edge $-1 $617 -32.926396185598946 $734 -29.005896925807193 $613 $735 forward 7 unknown #
coedge $-1 $454 $453 $620 $736 reversed $191 $-1 #
edge $-1 $737 0 $617 7.8409987296826387 $611 $738 forward 7 unknown #
vertex $-1 $456 $739 #
straight-curve $-1 -75.325083185961589 -11.219080033202713 11.040619507696043 0 1 0 I I #
coedge $-1 $610 $457 $460 $624 reversed $450 $-1 #
coedge $-1 $457 $610 $615 $736 forward $450 $-1 #
vertex $-1 $458 $740 #
straight-curve $-1 -79.245582445753342 -26.586089623355669 41.747847839235625 0 0 1 I I #
straight-curve $-1 -79.245582445753342 -26.586089623355669 4.2501153560989735 -0.49999998660252726 0 -0.86602541151947299 I I #
edge $-1 $734 18.290230509455185 $462 26.586089623355669 $619 $741 forward 7 unknown #
point $-1 -79.245582445753342 -26.586089623355669 11.040619507696045 #
point $-1 -75.325083185961589 -26.586089623355669 11.040619507696045 #
edge $-1 $742 1 $742 0 $465 $-1 forward 7 unknown #
vertex $-1 $466 $743 #
ellipse-curve $-1 -76.419307404337985 -24.926917800575573 7.1453674452949878 -0.86602541151947299 0 0.49999998660252726 0.24999999330126363 0 0.43301270575973649 1 I I #
point $-1 -77.0353328225562 -24.926917800575573 8.0783801376572519 #
edge $-1 $744 1 $744 0 $469 $-1 forward 7 unknown #
vertex $-1 $470 $745 #
ellipse-curve $-1 -76.419307404337985 -22.438160066405427 7.1453674452949878 -0.86602541151947299 0 0.49999998660252726 0.24999999330126363 0 0.43301270575973649 1 I I #
point $-1 -77.0353328225562 -22.438160066405427 8.0783801376572519 #
edge $-1 $746 1 $746 0 $473 $-1 forward 7 unknown #
vertex $-1 $474 $747 #
ellipse-curve $-1 -76.419307404337985 -19.94940233223528 7.1453674452949878 -0.86602541151947299 0 0.49999998660252726 0.24999999330126363 0 0.43301270575973649 1 I I #
point $-1 -77.0353328225562 -19.94940233223528 8.0783801376572519 #
loop $-1 $-1 $484 $477 #
plane-surface $-1 -79.245582445753342 0 0 1 0 0 0 0 -1 forward_v I I I I #
coedge $-1 $748 $749 $481 $643 forward $478 $-1 #
coedge $-1 $481 $480 $648 $750 reversed $210 $-1 #
edge $-1 $645 10.130042400775014 $751 17.971041130457653 $641 $752 forward 7 unknown #
coedge $-1 $487 $482 $749 $753 forward $332 $-1 #
vertex $-1 $753 $754 #
straight-curve $-1 -75.325083185961589 17.086865884145574 11.040619507696043 0 1 0 I I #
coedge $-1 $755 $484 $487 $652 reversed $639 $-1 #
coedge $-1 $484 $755 $642 $750 forward $639 $-1 #
vertex $-1 $485 $756 #
straight-curve $-1 -79.245582445753342 30.025802211340906 41.747847839235625 0 0 1 I I #
straight-curve $-1 -79.245582445753342 30.025802211340906 4.2501153560989735 -0.49999998660252726 0 -0.86602541151947299 I I #
edge $-1 $757 -38.321661325241394 $488 -30.025802211340906 $647 $758 forward 7 unknown #
point $-1 -79.245582445753342 30.025802211340906 11.040619507696045 #
point $-1 -75.325083185961589 30.025802211340906 11.040619507696045 #
edge $-1 $759 1 $759 0 $491 $-1 forward 7 unknown #
vertex $-1 $492 $760 #
ellipse-curve $-1 -76.419307404337985 31.684974034120998 7.1453674452949878 -0.86602541151947299 0 0.49999998660252726 0.24999999330126363 0 0.43301270575973649 1 I I #
point $-1 -77.0353328225562 31.684974034120998 8.0783801376572519 #
edge $-1 $761 1 $761 0 $495 $-1 forward 7 unknown #
vertex $-1 $496 $762 #
ellipse-curve $-1 -76.419307404337985 34.173731768291148 7.1453674452949878 -0.86602541151947299 0 0.49999998660252726 0.24999999330126363 0 0.43301270575973649 1 I I #
point $-1 -77.0353328225562 34.173731768291148 8.0783801376572519 #
edge $-1 $763 1 $763 0 $499 $-1 forward 7 unknown #
vertex $-1 $500 $764 #
ellipse-curve $-1 -76.419307404337985 36.662489502461284 7.1453674452949878 -0.86602541151947299 0 0.49999998660252726 0.24999999330126363 0 0.43301270575973649 1 I I #
point $-1 -77.0353328225562 36.662489502461284 8.0783801376572519 #
plane-surface $-1 79.245582445753342 0 0 -1 0 0 0 0 1 forward_v I I I I #
coedge $-1 $508 $506 $510 $672 reversed $361 $-1 #
edge $-1 $521 -11.040619507696045 $674 11.040619507696045 $520 $765 forward 7 unknown #
vertex $-1 $672 $766 #
straight-curve $-1 -79.245582445753342 -38.321661325241394 0 0 0 -1 I I #
edge $-1 $670 -38.321661325241394 $674 38.321661325241394 $668 $767 forward 7 unknown #
straight-curve $-1 0 -38.321661325241394 -11.040619507696045 -1 0 0 I I #
vertex $-1 $513 $768 #
straight-curve $-1 0 38.321661325241394 -11.040619507696045 1 0 0 I I #
point $-1 79.245582445753342 38.321661325241394 -11.040619507696045 #
point $-1 79.245582445753342 -38.321661325241394 -11.040619507696045 #
straight-curve $-1 -79.245582445753342 0 11.040619507696045 0 -1 0 I I #
point $-1 -79.245582445753342 38.321661325241394 11.040619507696045 #
point $-1 -79.245582445753342 -38.321661325241394 11.040619507696045 #
straight-curve $-1 79.245582445753342 -38.321661325241394 0 0 0 -1 I I #
straight-curve $-1 79.245582445753342 38.321661325241394 0 0 0 -1 I I #
plane-surface $-1 -79.245582445753342 0 0 1 0 0 0 0 -1 forward_v I I I I #
coedge $-1 $686 $695 $690 $769 forward $531 $-1 #
coedge $-1 $534 $533 $770 $771 forward $237 $-1 #
coedge $-1 $770 $684 $535 $687 reversed $531 $-1 #
edge $-1 $688 -79.245582445753342 $691 79.245582445753342 $686 $772 forward 7 unknown #
vertex $-1 $771 $773 #
straight-curve $-1 79.245582445753342 0 -11.040619507696045 0 -1 0 I I #
coedge $-1 $543 $537 $684 $769 reversed $544 $-1 #
vertex $-1 $538 $774 #
straight-curve $-1 -79.245582445753342 0 -11.040619507696045 0 1 0 I I #
point $-1 -79.245582445753342 -38.321661325241394 -11.040619507696045 #
point $-1 79.245582445753342 -38.321661325241394 -11.040619507696045 #
coedge $-1 $684 $770 $546 $696 reversed $531 $-1 #
edge $-1 $697 -79.245582445753342 $699 79.245582445753342 $695 $775 forward 7 unknown #
vertex $-1 $547 $776 #
straight-curve $-1 -79.245582445753342 -44.18944717618426 -5.8911158016467073 0 -1 0 I I #
vertex $-1 $548 $777 #
straight-curve $-1 79.245582445753342 -44.18944717618426 -5.8911158016467073 0 1 0 I I #
edge $-1 $702 99.335916480223446 $705 106.12642063182052 $552 $778 forward 7 unknown #
vertex $-1 $566 $779 #
straight-curve $-1 68.62868921037439 -26.586089623355669 11.04061950769605 1 0 0 I I #
edge $-1 $705 -15.367009590152955 $563 -7.0711504762524715 $562 $780 forward 7 unknown #
vertex $-1 $704 $781 #
straight-curve $-1 2.1233810514331708e-006 -26.586089623355669 141.50749165346673 -0.49999998660252726 0 0.86602541151947299 I I #
point $-1 75.325083185961589 -26.586089623355669 11.04061950769605 #
point $-1 79.245582445753342 -18.290230509455185 4.2501153560989735 #
straight-curve $-1 79.245582445753342 0 11.040619507696045 0 1 0 I I #
vertex $-1 $569 $782 #
point $-1 76.669307397639258 -24.926917800575573 6.7123547395352512 #
vertex $-1 $573 $783 #
point $-1 76.669307397639258 -22.438160066405427 6.7123547395352512 #
vertex $-1 $577 $784 #
point $-1 76.669307397639258 -19.94940233223528 6.7123547395352512 #
edge $-1 $719 -21.23479544109582 $591 -12.938936327195332 $590 $785 forward 7 unknown #
coedge $-1 $718 $584 $723 $786 reversed $581 $-1 #
coedge $-1 $584 $717 $586 $721 forward $581 $-1 #
vertex $-1 $585 $787 #
straight-curve $-1 30.637271960104911 38.321661325241394 88.442181795220819 -0.49999998660252726 0 0.86602541151947299 I I #
edge $-1 $725 -11.040619507696045 $587 -4.2501153560989993 $586 $788 forward 7 unknown #
point $-1 79.245582445753342 38.321661325241394 4.2501153560989993 #
coedge $-1 $590 $589 $717 $786 forward $424 $-1 #
point $-1 75.325083185961589 30.025802211340906 11.04061950769605 #
vertex $-1 $594 $789 #
straight-curve $-1 79.245582445753342 0 11.040619507696045 0 1 0 I I #
vertex $-1 $597 $790 #
point $-1 76.669307397639258 31.684974034120998 6.7123547395352512 #
vertex $-1 $601 $791 #
point $-1 76.669307397639258 34.173731768291148 6.7123547395352512 #
vertex $-1 $605 $792 #
point $-1 76.669307397639258 36.662489502461284 6.7123547395352512 #
edge $-1 $734 30.707228331539582 $737 37.497732483136652 $610 $793 forward 7 unknown #
vertex $-1 $624 $794 #
straight-curve $-1 -108.25147937156054 -18.290230509455185 11.040619507696043 -1 0 0 I I #
edge $-1 $737 7.0711504762524715 $621 15.367009590152955 $620 $795 forward 7 unknown #
vertex $-1 $736 $796 #
straight-curve $-1 -79.245582445753342 -18.290230509455185 4.2501153560989735 0.49999998660252726 0 0.86602541151947299 I I #
point $-1 -75.325083185961589 -18.290230509455185 11.040619507696045 #
point $-1 -79.245582445753342 -26.586089623355669 4.2501153560989735 #
straight-curve $-1 -79.245582445753342 0 11.040619507696045 0 -1 0 I I #
vertex $-1 $627 $797 #
point $-1 -76.169307411036726 -24.926917800575573 7.5783801510547235 #
vertex $-1 $631 $798 #
point $-1 -76.169307411036726 -22.438160066405427 7.5783801510547235 #
vertex $-1 $635 $799 #
point $-1 -76.169307411036726 -19.94940233223528 7.5783801510547235 #
coedge $-1 $749 $641 $755 $800 reversed $478 $-1 #
coedge $-1 $641 $748 $644 $753 reversed $478 $-1 #
edge $-1 $751 -21.23479544109582 $649 -12.938936327195332 $648 $801 forward 7 unknown #
vertex $-1 $643 $802 #
straight-curve $-1 -70.260062121291043 38.321661325241394 19.813493646536934 -0.49999998660252726 0 -0.86602541151947299 I I #
edge $-1 $645 75.325083185961589 $757 79.245582445753342 $749 $803 forward 7 unknown #
point $-1 -75.325083185961589 38.321661325241394 11.040619507696045 #
coedge $-1 $648 $647 $748 $800 forward $639 $-1 #
point $-1 -79.245582445753342 30.025802211340906 4.2501153560989735 #
vertex $-1 $753 $804 #
straight-curve $-1 -79.245582445753342 0 11.040619507696045 0 -1 0 I I #
vertex $-1 $655 $805 #
point $-1 -76.169307411036726 31.684974034120998 7.5783801510547235 #
vertex $-1 $659 $806 #
point $-1 -76.169307411036726 34.173731768291148 7.5783801510547235 #
vertex $-1 $663 $807 #
point $-1 -76.169307411036726 36.662489502461284 7.5783801510547235 #
straight-curve $-1 -79.245582445753342 38.321661325241394 0 0 0 -1 I I #
point $-1 -79.245582445753342 -38.321661325241394 -11.040619507696045 #
straight-curve $-1 -79.245582445753342 0 -11.040619507696045 0 1 0 I I #
point $-1 -79.245582445753342 38.321661325241394 -11.040619507696045 #
edge $-1 $697 -2.5747518530246687 $691 2.5747518530246687 $690 $808 forward 7 unknown #
coedge $-1 $695 $686 $685 $771 reversed $531 $-1 #
edge $-1 $699 -2.5747518530246687 $688 2.5747518530246687 $685 $809 forward 7 unknown #
straight-curve $-1 0 -50.057233027127126 -11.040619507696045 -1 0 0 I I #
point $-1 79.245582445753342 -50.057233027127126 -11.040619507696045 #
point $-1 -79.245582445753342 -50.057233027127126 -11.040619507696045 #
straight-curve $-1 0 -50.057233027127126 -5.8911158016467073 1 0 0 I I #
point $-1 -79.245582445753342 -50.057233027127126 -5.8911158016467073 #
point $-1 79.245582445753342 -50.057233027127126 -5.8911158016467073 #
straight-curve $-1 79.245582445753342 -26.586089623355669 110.3765359879195 0 0 -1 I I #
point $-1 79.245582445753342 -26.586089623355669 11.040619507696045 #
straight-curve $-1 79.245582445753342 -11.219080033202713 4.2501153560989877 0 1 0 I I #
point $-1 79.245582445753342 -26.586089623355669 4.2501153560989735 #
point $-1 75.986294698578263 -24.926917800575573 6.8953674519937236 #
point $-1 75.986294698578263 -22.438160066405427 6.8953674519937236 #
point $-1 75.986294698578263 -19.94940233223528 6.8953674519937236 #
straight-curve $-1 75.325083185961603 17.086865884145574 11.04061950769605 0 -1 0 I I #
edge $-1 $725 -79.245582445753342 $719 -75.325083185961589 $717 $810 forward 7 unknown #
point $-1 75.325083185961589 38.321661325241394 11.04061950769605 #
straight-curve $-1 79.245582445753342 38.321661325241394 0 0 0 -1 I I #
point $-1 79.245582445753342 38.321661325241394 11.040619507696045 #
point $-1 75.986294698578263 31.684974034120998 6.8953674519937236 #
point $-1 75.986294698578263 34.173731768291148 6.8953674519937236 #
point $-1 75.986294698578263 36.662489502461284 6.8953674519937236 #
straight-curve $-1 -79.245582445753342 -18.290230509455185 41.747847839235625 0 0 -1 I I #
point $-1 -79.245582445753342 -18.290230509455185 11.040619507696045 #
straight-curve $-1 -79.245582445753342 -11.219080033202713 4.2501153560989673 0 -1 0 I I #
point $-1 -79.245582445753342 -18.290230509455185 4.2501153560989735 #
point $-1 -75.986294698578263 -24.926917800575573 6.8953674519937236 #
point $-1 -75.986294698578263 -22.438160066405427 6.8953674519937236 #
point $-1 -75.986294698578263 -19.94940233223528 6.8953674519937236 #
edge $-1 $757 -11.040619507696045 $751 -4.2501153560989735 $748 $811 forward 7 unknown #
straight-curve $-1 -79.245582445753342 17.086865884145574 4.2501153560989673 0 -1 0 I I #
point $-1 -79.245582445753342 38.321661325241394 4.2501153560989735 #
straight-curve $-1 0 38.321661325241394 11.040619507696045 -1 0 0 I I #
point $-1 -79.245582445753342 38.321661325241394 11.040619507696045 #
point $-1 -75.986294698578263 31.684974034120998 6.8953674519937236 #
point $-1 -75.986294698578263 34.173731768291148 6.8953674519937236 #
point $-1 -75.986294698578263 36.662489502461284 6.8953674519937236 #
straight-curve $-1 -79.245582445753342 -50.057233027127126 -8.465867654671376 0 0 -1 I I #
straight-curve $-1 79.245582445753342 -50.057233027127126 -8.465867654671376 0 0 -1 I I #
straight-curve $-1 0 38.321661325241394 11.040619507696045 -1 0 0 I I #
straight-curve $-1 -79.245582445753342 38.321661325241394 0 0 0 -1 I I #
End-of-ACIS-data 