500 0 5 0           
7 Unknown 11 ACIS 5.0 NT 24 Fri Mar 26 20:39:50 1999 
-1 9.9999999999999995e-007 1e-010 
body $-1 $5 $-1 $6 #
body $-1 $7 $-1 $8 #
body $-1 $9 $-1 $10 #
body $-1 $11 $-1 $12 #
body $-1 $13 $-1 $14 #
lump $-1 $-1 $15 $0 #
transform $-1 1 0 0 0 1 0 0 0 1 45.971861934263131 20.266790807373415 6.5299430509001377 1 rotate no_reflect no_shear #
lump $-1 $-1 $16 $1 #
transform $-1 1 0 0 0 1 0 0 0 1 45.971861934263131 20.266790807373415 6.5299430509001377 1 rotate no_reflect no_shear #
lump $-1 $-1 $17 $2 #
transform $-1 1 0 0 0 1 0 0 0 1 45.971861934263131 20.266790807373415 6.5299430509001377 1 rotate no_reflect no_shear #
lump $-1 $-1 $18 $3 #
transform $-1 1 0 0 0 1 0 0 0 1 45.971861934263131 20.266790807373415 6.5299430509001377 1 rotate no_reflect no_shear #
lump $-1 $-1 $19 $4 #
transform $-1 1 0 0 0 1 0 0 0 1 45.971861934263131 20.266790807373415 6.5299430509001377 1 rotate no_reflect no_shear #
shell $-1 $-1 $-1 $20 $-1 $5 #
shell $-1 $-1 $-1 $21 $-1 $7 #
shell $-1 $-1 $-1 $22 $-1 $9 #
shell $-1 $-1 $-1 $23 $-1 $11 #
shell $-1 $-1 $-1 $24 $-1 $13 #
face $-1 $25 $26 $15 $-1 $27 forward single #
face $-1 $28 $29 $16 $-1 $30 reversed single #
face $-1 $31 $32 $17 $-1 $33 forward single #
face $-1 $34 $35 $18 $-1 $36 reversed single #
face $-1 $37 $38 $19 $-1 $39 forward single #
face $-1 $40 $41 $15 $-1 $42 reversed single #
loop $-1 $-1 $43 $20 #
plane-surface $-1 0 0 6.5299430509001377 0 0 1 1 0 0 forward_v I I I I #
face $-1 $44 $45 $16 $-1 $46 reversed single #
loop $-1 $-1 $47 $21 #
plane-surface $-1 0 -99.077945132626482 50.199737408862291 -1 0 0 0 -0.85716730853699208 0.51503806187062418 forward_v I I I I #
face $-1 $48 $49 $17 $-1 $50 forward single #
loop $-1 $51 $52 $22 #
cone-surface $-1 -9.0845882077591469 -18.692246735904142 4.4066542073667394 0 0.85716730853699208 -0.51503806187062418 0.5 0 0 1 I I 0 1 0.5 forward I I I I #
face $-1 $53 $54 $18 $-1 $55 reversed single #
loop $-1 $-1 $56 $23 #
plane-surface $-1 18.169176415518294 -99.077945132626482 50.199737408862291 -1 0 0 0 -0.85716730853699208 0.51503806187062418 forward_v I I I I #
face $-1 $57 $58 $19 $-1 $59 forward single #
loop $-1 $60 $61 $24 #
cone-surface $-1 9.0845882077591469 -18.692246735904142 4.4066542073667394 0 0.85716730853699208 -0.51503806187062418 0.5 0 0 1 I I 0 1 0.5 forward I I I I #
face $-1 $62 $63 $15 $-1 $64 reversed single #
loop $-1 $-1 $65 $25 #
plane-surface $-1 0 0 -6.5299430509001377 0 0 1 1 0 0 forward_v I I I I #
coedge $-1 $66 $67 $68 $69 forward $26 $-1 #
face $-1 $70 $71 $16 $-1 $72 reversed single #
loop $-1 $-1 $73 $28 #
plane-surface $-1 -9.0845882077591469 -20.266790807373425 2.8452200664486753 0 -0.85716730853699208 0.51503806187062418 1 0 0 forward_v I I I I #
coedge $-1 $74 $75 $76 $77 reversed $29 $-1 #
face $-1 $-1 $78 $17 $-1 $79 forward single #
loop $-1 $80 $81 $31 #
cone-surface $-1 -9.0845882077591469 -18.010413265846999 3.9969673405914206 0 0.85716730853699208 -0.51503806187062418 0.25 0 0 1 I I -0.70710678118654691 0.70710678118654813 0.25 forward I I I I #
loop $-1 $-1 $82 $22 #
coedge $-1 $52 $52 $83 $84 reversed $32 $-1 #
face $-1 $85 $86 $18 $-1 $87 reversed single #
loop $-1 $-1 $88 $34 #
plane-surface $-1 -9.0845882077591469 -20.266790807373425 2.8452200664486753 0 -0.85716730853699208 0.51503806187062418 1 0 0 forward_v I I I I #
coedge $-1 $89 $90 $91 $92 reversed $35 $-1 #
face $-1 $-1 $93 $19 $-1 $94 forward single #
loop $-1 $95 $96 $37 #
cone-surface $-1 9.0845882077591469 -18.010413265846999 3.9969673405914206 0 0.85716730853699208 -0.51503806187062418 0.25 0 0 1 I I -0.70710678118654691 0.70710678118654813 0.25 forward I I I I #
loop $-1 $-1 $97 $24 #
coedge $-1 $61 $61 $98 $99 reversed $38 $-1 #
face $-1 $100 $101 $15 $-1 $102 reversed single #
loop $-1 $-1 $103 $40 #
plane-surface $-1 0 -20.266790807373415 0 0 1 0 0 0 1 forward_v I I I I #
coedge $-1 $104 $105 $106 $107 forward $41 $-1 #
coedge $-1 $108 $43 $109 $110 forward $26 $-1 #
coedge $-1 $43 $108 $111 $112 forward $26 $-1 #
coedge $-1 $113 $114 $43 $69 reversed $115 $-1 #
edge $-1 $116 -20.266790807373415 $117 20.266790807373415 $68 $118 forward 7 unknown #
face $-1 $119 $120 $16 $-1 $121 reversed single #
loop $-1 $-1 $122 $44 #
plane-surface $-1 -18.169176415518294 -99.077945132626482 50.199737408862291 1 0 0 0 0.85716730853699208 -0.51503806187062418 forward_v I I I I #
coedge $-1 $123 $124 $125 $126 reversed $45 $-1 #
coedge $-1 $75 $47 $127 $128 reversed $29 $-1 #
coedge $-1 $47 $74 $123 $129 reversed $29 $-1 #
coedge $-1 $125 $130 $47 $77 forward $131 $-1 #
edge $-1 $132 29.272181758939826 $133 31.486186616032569 $76 $134 forward 7 unknown #
loop $-1 $-1 $83 $48 #
plane-surface $-1 -9.0845882077591469 -20.266790807373425 2.8452200664486753 0 -0.85716730853699208 0.51503806187062418 1 0 0 forward_v I I I I #
loop $-1 $-1 $135 $31 #
coedge $-1 $81 $81 $82 $136 reversed $49 $-1 #
coedge $-1 $82 $82 $81 $136 forward $51 $-1 #
coedge $-1 $83 $83 $52 $84 forward $78 $-1 #
edge $-1 $137 3.2025152785405749e-016 $137 6.2831853071796004 $83 $138 forward 7 unknown #
face $-1 $139 $140 $18 $-1 $141 forward single #
loop $-1 $-1 $142 $53 #
plane-surface $-1 0 -20.266790807373415 0 0 1 0 0 0 1 forward_v I I I I #
coedge $-1 $143 $144 $145 $146 reversed $54 $-1 #
coedge $-1 $90 $56 $147 $148 reversed $35 $-1 #
coedge $-1 $56 $89 $149 $150 reversed $35 $-1 #
coedge $-1 $151 $142 $56 $92 forward $86 $-1 #
edge $-1 $152 -22.254648637982452 $153 -18.569925653531008 $91 $154 forward 7 unknown #
loop $-1 $-1 $98 $57 #
plane-surface $-1 -9.0845882077591469 -20.266790807373425 2.8452200664486753 0 -0.85716730853699208 0.51503806187062418 1 0 0 forward_v I I I I #
loop $-1 $-1 $155 $37 #
coedge $-1 $96 $96 $97 $156 reversed $58 $-1 #
coedge $-1 $97 $97 $96 $156 forward $60 $-1 #
coedge $-1 $98 $98 $61 $99 forward $93 $-1 #
edge $-1 $157 3.2025152785405749e-016 $157 6.2831853071796004 $98 $158 forward 7 unknown #
face $-1 $159 $160 $15 $-1 $161 reversed single #
loop $-1 $-1 $162 $62 #
plane-surface $-1 -45.971861934263131 0 0 1 0 0 0 0 -1 forward_v I I I I #
coedge $-1 $163 $111 $164 $165 forward $63 $-1 #
coedge $-1 $166 $65 $163 $167 forward $41 $-1 #
coedge $-1 $65 $166 $168 $169 forward $41 $-1 #
coedge $-1 $114 $113 $65 $107 reversed $115 $-1 #
edge $-1 $170 -20.266790807373415 $171 20.266790807373415 $106 $172 forward 7 unknown #
coedge $-1 $67 $66 $173 $174 forward $26 $-1 #
coedge $-1 $175 $176 $66 $110 reversed $160 $-1 #
edge $-1 $117 -45.971861934263131 $177 45.971861934263131 $109 $178 forward 7 unknown #
coedge $-1 $103 $179 $67 $112 reversed $63 $-1 #
edge $-1 $180 -45.971861934263131 $116 45.971861934263131 $111 $181 forward 7 unknown #
coedge $-1 $106 $68 $179 $182 forward $115 $-1 #
coedge $-1 $68 $106 $175 $183 reversed $115 $-1 #
loop $-1 $-1 $113 $159 #
vertex $-1 $69 $184 #
vertex $-1 $69 $185 #
straight-curve $-1 45.971861934263131 0 6.5299430509001377 0 1 0 I I #
face $-1 $-1 $131 $16 $-1 $186 forward single #
loop $-1 $-1 $187 $70 #
plane-surface $-1 0 -20.266790807373415 0 0 1 0 0 0 1 forward_v I I I I #
coedge $-1 $188 $189 $190 $191 reversed $71 $-1 #
coedge $-1 $192 $73 $75 $129 forward $45 $-1 #
coedge $-1 $73 $192 $188 $193 forward $45 $-1 #
coedge $-1 $190 $76 $73 $126 forward $131 $-1 #
edge $-1 $133 -4.5422941038795734 $194 13.62688231163872 $125 $195 forward 7 unknown #
coedge $-1 $196 $197 $74 $128 forward $120 $-1 #
edge $-1 $198 -22.254648637982452 $132 -18.569925653531008 $127 $199 forward 7 unknown #
edge $-1 $133 -4.2987208538558539 $198 -2.0715698412831909e-014 $75 $200 forward 7 unknown #
coedge $-1 $76 $190 $196 $201 forward $131 $-1 #
loop $-1 $-1 $190 $119 #
vertex $-1 $128 $202 #
vertex $-1 $77 $203 #
straight-curve $-1 0 -49.538972566313241 6.5299430509001368 0 1 0 I I #
coedge $-1 $135 $135 $-1 $204 reversed $80 $-1 #
edge $-1 $205 0 $205 6.2831853071796004 $81 $206 forward 7 unknown #
vertex $-1 $84 $207 #
ellipse-curve $-1 -9.0845882077591469 -19.159788378827049 4.6875815586744087 0 -0.85716730853699208 0.51503806187062418 0.5 0 0 1 I I #
face $-1 $-1 $208 $18 $-1 $209 forward single #
loop $-1 $-1 $210 $85 #
plane-surface $-1 0 -99.077945132626482 50.199737408862291 -1 0 0 0 -0.85716730853699208 0.51503806187062418 forward_v I I I I #
coedge $-1 $91 $211 $144 $212 forward $86 $-1 #
coedge $-1 $147 $88 $213 $214 reversed $54 $-1 #
coedge $-1 $88 $147 $142 $212 reversed $54 $-1 #
coedge $-1 $215 $210 $88 $146 forward $140 $-1 #
edge $-1 $216 -4.2987208538558539 $217 -2.0715698412831909e-014 $145 $218 forward 7 unknown #
coedge $-1 $144 $143 $89 $148 forward $54 $-1 #
edge $-1 $219 -4.2987208538558539 $152 -2.0715698412831909e-014 $89 $220 forward 7 unknown #
coedge $-1 $213 $221 $90 $150 forward $208 $-1 #
edge $-1 $153 29.272181758939826 $219 31.486186616032569 $149 $222 forward 7 unknown #
coedge $-1 $211 $91 $221 $223 reversed $86 $-1 #
vertex $-1 $92 $224 #
vertex $-1 $92 $225 #
straight-curve $-1 18.169176415518294 -20.266790807373418 25.099868704431145 0 0 1 I I #
coedge $-1 $155 $155 $-1 $226 reversed $95 $-1 #
edge $-1 $227 0 $227 6.2831853071796004 $96 $228 forward 7 unknown #
vertex $-1 $99 $229 #
ellipse-curve $-1 9.0845882077591469 -19.159788378827049 4.6875815586744087 0 -0.85716730853699208 0.51503806187062418 0.5 0 0 1 I I #
face $-1 $-1 $115 $15 $-1 $230 reversed single #
loop $-1 $-1 $175 $100 #
plane-surface $-1 0 20.266790807373415 0 0 -1 0 0 0 -1 forward_v I I I I #
coedge $-1 $231 $173 $176 $232 forward $101 $-1 #
coedge $-1 $179 $103 $104 $167 reversed $63 $-1 #
coedge $-1 $173 $231 $103 $165 reversed $101 $-1 #
edge $-1 $180 -6.5299430509001377 $233 6.5299430509001377 $164 $234 forward 7 unknown #
coedge $-1 $105 $104 $231 $235 forward $41 $-1 #
edge $-1 $171 -45.971861934263131 $233 45.971861934263131 $163 $236 forward 7 unknown #
coedge $-1 $176 $175 $105 $169 reversed $160 $-1 #
edge $-1 $237 -45.971861934263131 $170 45.971861934263131 $168 $238 forward 7 unknown #
vertex $-1 $107 $239 #
vertex $-1 $182 $240 #
straight-curve $-1 45.971861934263131 0 -6.5299430509001377 0 -1 0 I I #
coedge $-1 $162 $164 $108 $174 reversed $101 $-1 #
edge $-1 $177 -20.266790807373415 $180 20.266790807373415 $173 $241 forward 7 unknown #
coedge $-1 $168 $109 $114 $183 forward $160 $-1 #
coedge $-1 $109 $168 $162 $232 reversed $160 $-1 #
vertex $-1 $110 $242 #
straight-curve $-1 0 20.266790807373415 6.5299430509001377 -1 0 0 I I #
coedge $-1 $111 $163 $113 $182 reversed $63 $-1 #
vertex $-1 $174 $243 #
straight-curve $-1 0 -20.266790807373415 6.5299430509001377 1 0 0 I I #
edge $-1 $116 -6.5299430509001377 $171 6.5299430509001377 $113 $244 forward 7 unknown #
edge $-1 $117 -6.5299430509001377 $170 6.5299430509001377 $114 $245 forward 7 unknown #
point $-1 45.971861934263131 -20.266790807373415 6.5299430509001377 #
point $-1 45.971861934263131 20.266790807373415 6.5299430509001377 #
plane-surface $-1 0 0 6.5299430509001377 0 0 1 1 0 0 forward_v I I I I #
coedge $-1 $197 $196 $189 $246 forward $120 $-1 #
coedge $-1 $189 $122 $124 $193 reversed $71 $-1 #
coedge $-1 $122 $188 $187 $246 reversed $71 $-1 #
coedge $-1 $130 $125 $122 $191 forward $131 $-1 #
edge $-1 $194 -31.486186616032569 $247 -29.272181758939826 $190 $248 forward 7 unknown #
coedge $-1 $124 $123 $197 $249 reversed $45 $-1 #
edge $-1 $250 2.0715698412831909e-014 $194 4.2987208538558539 $188 $251 forward 7 unknown #
vertex $-1 $126 $252 #
straight-curve $-1 -4.5422941038795734 -18.052785950280672 6.5299430509001377 -1 0 0 I I #
coedge $-1 $187 $127 $130 $201 reversed $120 $-1 #
coedge $-1 $127 $187 $192 $249 forward $120 $-1 #
vertex $-1 $128 $253 #
straight-curve $-1 0 -20.266790807373418 25.099868704431145 0 0 1 I I #
straight-curve $-1 0 -20.266790807373425 2.8452200664486753 0 -0.51503806187062418 -0.85716730853699208 I I #
edge $-1 $247 -18.169176415518294 $132 0 $196 $254 forward 7 unknown #
point $-1 0 -20.266790807373415 6.5299430509001377 #
point $-1 0 -18.052785950280672 6.5299430509001377 #
edge $-1 $255 1 $255 0 $135 $-1 forward 7 unknown #
vertex $-1 $136 $256 #
ellipse-curve $-1 -9.0845882077591469 -18.224705092981246 4.1257268560590772 0 -0.85716730853699208 0.51503806187062418 0.5 0 0 1 I I #
point $-1 -8.5845882077591469 -19.159788378827038 4.6875815586744025 #
loop $-1 $-1 $213 $139 #
plane-surface $-1 0 0 6.5299430509001377 0 0 1 1 0 0 forward_v I I I I #
coedge $-1 $145 $215 $257 $258 reversed $140 $-1 #
coedge $-1 $142 $151 $215 $259 forward $86 $-1 #
edge $-1 $217 4.5422941038795734 $152 22.711470519397867 $142 $260 forward 7 unknown #
coedge $-1 $257 $149 $143 $214 forward $208 $-1 #
edge $-1 $219 -22.711470519397867 $216 -4.5422941038795734 $213 $261 forward 7 unknown #
coedge $-1 $210 $145 $211 $259 reversed $140 $-1 #
vertex $-1 $214 $262 #
vertex $-1 $212 $263 #
straight-curve $-1 0 -20.266790807373425 2.8452200664486753 0 -0.51503806187062418 -0.85716730853699208 I I #
vertex $-1 $150 $264 #
straight-curve $-1 18.169176415518294 -20.266790807373425 2.8452200664486753 0 -0.51503806187062418 -0.85716730853699208 I I #
coedge $-1 $149 $257 $151 $223 forward $208 $-1 #
straight-curve $-1 18.169176415518294 -49.538972566313241 6.5299430509001368 0 1 0 I I #
edge $-1 $265 0 $153 18.169176415518294 $151 $266 forward 7 unknown #
point $-1 18.169176415518294 -20.266790807373415 2.8452200664486931 #
point $-1 18.169176415518294 -20.266790807373415 6.5299430509001377 #
edge $-1 $267 1 $267 0 $155 $-1 forward 7 unknown #
vertex $-1 $156 $268 #
ellipse-curve $-1 9.0845882077591469 -18.224705092981246 4.1257268560590772 0 -0.85716730853699208 0.51503806187062418 0.5 0 0 1 I I #
point $-1 9.5845882077591469 -19.159788378827038 4.6875815586744025 #
plane-surface $-1 45.971861934263131 0 0 -1 0 0 0 0 1 forward_v I I I I #
coedge $-1 $164 $162 $166 $235 reversed $101 $-1 #
edge $-1 $177 -6.5299430509001377 $237 6.5299430509001377 $176 $269 forward 7 unknown #
vertex $-1 $235 $270 #
straight-curve $-1 -45.971861934263131 -20.266790807373415 0 0 0 -1 I I #
edge $-1 $233 -20.266790807373415 $237 20.266790807373415 $231 $271 forward 7 unknown #
straight-curve $-1 0 -20.266790807373415 -6.5299430509001377 -1 0 0 I I #
vertex $-1 $169 $272 #
straight-curve $-1 0 20.266790807373415 -6.5299430509001377 1 0 0 I I #
point $-1 45.971861934263131 20.266790807373415 -6.5299430509001377 #
point $-1 45.971861934263131 -20.266790807373415 -6.5299430509001377 #
straight-curve $-1 -45.971861934263131 0 6.5299430509001377 0 -1 0 I I #
point $-1 -45.971861934263131 20.266790807373415 6.5299430509001377 #
point $-1 -45.971861934263131 -20.266790807373415 6.5299430509001377 #
straight-curve $-1 45.971861934263131 -20.266790807373415 0 0 0 -1 I I #
straight-curve $-1 45.971861934263131 20.266790807373415 0 0 0 -1 I I #
edge $-1 $247 18.569925653531008 $250 22.254648637982452 $187 $273 forward 7 unknown #
vertex $-1 $201 $274 #
straight-curve $-1 -18.169176415518294 -49.538972566313241 6.5299430509001368 0 -1 0 I I #
edge $-1 $250 -13.62688231163872 $198 4.5422941038795734 $197 $275 forward 7 unknown #
vertex $-1 $249 $276 #
straight-curve $-1 -18.169176415518294 -20.266790807373425 2.8452200664486753 0 0.51503806187062418 0.85716730853699208 I I #
point $-1 -18.169176415518294 -18.052785950280672 6.5299430509001377 #
point $-1 0 -20.266790807373415 2.8452200664486931 #
straight-curve $-1 0 -20.266790807373415 6.5299430509001377 1 0 0 I I #
vertex $-1 $204 $277 #
point $-1 -8.5845882077591469 -18.224705092981246 4.1257268560590772 #
coedge $-1 $221 $213 $210 $258 forward $208 $-1 #
edge $-1 $216 -31.486186616032569 $265 -29.272181758939826 $257 $278 forward 7 unknown #
edge $-1 $265 18.569925653531008 $217 22.254648637982452 $211 $279 forward 7 unknown #
straight-curve $-1 -4.5422941038795734 -20.266790807373415 2.8452200664486913 1 0 0 I I #
straight-curve $-1 -4.5422941038795734 -18.052785950280672 6.5299430509001377 -1 0 0 I I #
point $-1 0 -18.052785950280672 6.5299430509001377 #
point $-1 0 -20.266790807373415 2.8452200664486931 #
point $-1 18.169176415518294 -18.052785950280672 6.5299430509001377 #
vertex $-1 $223 $280 #
straight-curve $-1 0 -20.266790807373415 6.5299430509001377 1 0 0 I I #
vertex $-1 $226 $281 #
point $-1 9.5845882077591469 -18.224705092981246 4.1257268560590772 #
straight-curve $-1 -45.971861934263131 20.266790807373415 0 0 0 -1 I I #
point $-1 -45.971861934263131 -20.266790807373415 -6.5299430509001377 #
straight-curve $-1 -45.971861934263131 0 -6.5299430509001377 0 1 0 I I #
point $-1 -45.971861934263131 20.266790807373415 -6.5299430509001377 #
straight-curve $-1 -18.169176415518294 -20.266790807373418 25.099868704431145 0 0 -1 I I #
point $-1 -18.169176415518294 -20.266790807373415 6.5299430509001377 #
straight-curve $-1 -4.5422941038795734 -20.266790807373415 2.8452200664486913 1 0 0 I I #
point $-1 -18.169176415518294 -20.266790807373415 2.8452200664486931 #
point $-1 -9.0845882077591469 -17.796121438712753 3.8682078251237644 #
straight-curve $-1 0 -49.538972566313241 6.5299430509001368 0 -1 0 I I #
straight-curve $-1 0 -20.266790807373418 25.099868704431145 0 0 -1 I I #
point $-1 0 -20.266790807373415 6.5299430509001377 #
point $-1 9.0845882077591469 -17.796121438712753 3.8682078251237644 #
End-of-ACIS-data 