500 0 6 0           
7 Unknown 11 ACIS 5.0 NT 24 Fri Mar 26 14:56:24 1999 
-1 9.9999999999999995e-007 1e-010 
body $-1 $6 $-1 $7 #
body $-1 $8 $-1 $9 #
body $-1 $10 $-1 $11 #
body $-1 $12 $-1 $13 #
body $-1 $14 $-1 $15 #
body $-1 $16 $-1 $17 #
lump $-1 $-1 $18 $0 #
transform $-1 1 0 0 0 1 0 0 0 1 70.052186651203954 28.198533180050511 11.947135123102122 1 rotate no_reflect no_shear #
lump $-1 $-1 $19 $1 #
transform $-1 1 0 0 0 1 0 0 0 1 70.052186651203954 28.198533180050511 11.947135123102122 1 rotate no_reflect no_shear #
lump $-1 $-1 $20 $2 #
transform $-1 1 0 0 0 1 0 0 0 1 70.052186651203954 28.198533180050511 11.947135123102122 1 rotate no_reflect no_shear #
lump $-1 $-1 $21 $3 #
transform $-1 1 0 0 0 1 0 0 0 1 70.052186651203954 28.198533180050511 11.947135123102122 1 rotate no_reflect no_shear #
lump $-1 $-1 $22 $4 #
transform $-1 1 0 0 0 1 0 0 0 1 70.052186651203954 28.198533180050511 11.947135123102122 1 rotate no_reflect no_shear #
lump $-1 $-1 $23 $5 #
transform $-1 1 0 0 0 1 0 0 0 1 70.052186651203954 28.198533180050511 11.947135123102122 1 rotate no_reflect no_shear #
shell $-1 $-1 $-1 $24 $-1 $6 #
shell $-1 $-1 $-1 $25 $-1 $8 #
shell $-1 $-1 $-1 $26 $-1 $10 #
shell $-1 $-1 $-1 $27 $-1 $12 #
shell $-1 $-1 $-1 $28 $-1 $14 #
shell $-1 $-1 $-1 $29 $-1 $16 #
face $-1 $30 $31 $18 $-1 $32 forward single #
face $-1 $33 $34 $19 $-1 $35 forward single #
face $-1 $36 $37 $20 $-1 $38 reversed single #
face $-1 $39 $40 $21 $-1 $41 forward single #
face $-1 $42 $43 $22 $-1 $44 forward single #
face $-1 $45 $46 $23 $-1 $47 forward single #
face $-1 $48 $49 $18 $-1 $50 reversed single #
loop $-1 $-1 $51 $24 #
plane-surface $-1 0 0 11.947135123102122 0 0 1 1 0 0 forward_v I I I I #
face $-1 $52 $53 $19 $-1 $54 reversed single #
loop $-1 $-1 $55 $25 #
plane-surface $-1 -64.673842884582683 0 10.923687637975078 0 0 1 1 0 0 forward_v I I I I #
face $-1 $56 $57 $20 $-1 $58 reversed single #
loop $-1 $-1 $59 $26 #
plane-surface $-1 25.480947618048674 22.55012737175467 197.33881706933707 0 -1 0 -0.52991927123019833 0 -0.84804809178421925 forward_v I I I I #
face $-1 $60 $61 $21 $-1 $62 forward single #
loop $-1 $63 $64 $27 #
cone-surface $-1 63.564997137852899 13.118157196834133 7.5502721147695029 -0.52991927123019833 0 -0.84804809178421925 0.42402404589210962 0 -0.26495963561509916 1 I I 0 1 0.5 forward I I I I #
face $-1 $65 $66 $22 $-1 $67 forward single #
loop $-1 $68 $69 $28 #
cone-surface $-1 63.564997137852899 16.655146012429334 7.5502721147695029 -0.52991927123019833 0 -0.84804809178421925 0.42402404589210962 0 -0.26495963561509916 1 I I 0 1 0.5 forward I I I I #
face $-1 $70 $71 $23 $-1 $72 forward single #
loop $-1 $73 $74 $29 #
cone-surface $-1 63.564997137852899 20.192134828024535 7.5502721147695029 -0.52991927123019833 0 -0.84804809178421925 0.42402404589210962 0 -0.26495963561509916 1 I I 0 1 0.5 forward I I I I #
face $-1 $75 $76 $18 $-1 $77 reversed single #
loop $-1 $-1 $78 $30 #
plane-surface $-1 0 0 -11.947135123102122 0 0 1 1 0 0 forward_v I I I I #
coedge $-1 $79 $80 $81 $82 forward $31 $-1 #
face $-1 $83 $84 $19 $-1 $85 reversed single #
loop $-1 $-1 $86 $33 #
plane-surface $-1 -64.673842884582683 0 7.9236876379750782 0 0 1 1 0 0 forward_v I I I I #
coedge $-1 $87 $88 $89 $90 forward $34 $-1 #
face $-1 $91 $92 $20 $-1 $93 reversed single #
loop $-1 $-1 $94 $36 #
plane-surface $-1 -48.76305977852698 16.655146012429334 78.523570639606135 0.52991927123019833 0 0.84804809178421925 0.84804809178421925 0 -0.52991927123019833 forward_v I I I I #
coedge $-1 $95 $96 $97 $98 reversed $37 $-1 #
face $-1 $-1 $99 $21 $-1 $100 forward single #
loop $-1 $101 $102 $39 #
cone-surface $-1 63.080667710843954 13.118157196834133 6.7751830235266723 -0.52991927123019833 0 -0.84804809178421925 0.21201202294605481 0 -0.13247981780754958 1 I I -0.70710678118654746 0.70710678118654746 0.25 forward I I I I #
loop $-1 $-1 $103 $27 #
coedge $-1 $64 $64 $104 $105 reversed $40 $-1 #
face $-1 $-1 $106 $22 $-1 $107 forward single #
loop $-1 $108 $109 $42 #
cone-surface $-1 63.080667710843954 16.655146012429334 6.7751830235266723 -0.52991927123019833 0 -0.84804809178421925 0.21201202294605481 0 -0.13247981780754958 1 I I -0.70710678118654746 0.70710678118654746 0.25 forward I I I I #
loop $-1 $-1 $110 $28 #
coedge $-1 $69 $69 $111 $112 reversed $43 $-1 #
face $-1 $-1 $113 $23 $-1 $114 forward single #
loop $-1 $115 $116 $45 #
cone-surface $-1 63.080667710843954 20.192134828024535 6.7751830235266723 -0.52991927123019833 0 -0.84804809178421925 0.21201202294605481 0 -0.13247981780754958 1 I I -0.70710678118654746 0.70710678118654746 0.25 forward I I I I #
loop $-1 $-1 $117 $29 #
coedge $-1 $74 $74 $118 $119 reversed $46 $-1 #
face $-1 $120 $121 $18 $-1 $122 reversed single #
loop $-1 $-1 $123 $48 #
plane-surface $-1 0 -28.198533180050511 0 0 1 0 0 0 1 forward_v I I I I #
coedge $-1 $124 $125 $126 $127 forward $49 $-1 #
coedge $-1 $128 $51 $129 $130 forward $31 $-1 #
coedge $-1 $51 $128 $131 $132 forward $31 $-1 #
coedge $-1 $133 $134 $51 $82 reversed $135 $-1 #
edge $-1 $136 -28.198533180050511 $137 28.198533180050511 $81 $138 forward 7 unknown #
face $-1 $139 $140 $19 $-1 $141 reversed single #
loop $-1 $-1 $142 $52 #
plane-surface $-1 -59.295499117961405 0 9.4236876379750782 -1 0 0 0 0 1 forward_v I I I I #
coedge $-1 $143 $144 $145 $146 forward $53 $-1 #
coedge $-1 $147 $55 $148 $149 reversed $34 $-1 #
coedge $-1 $55 $147 $150 $151 reversed $34 $-1 #
coedge $-1 $142 $152 $55 $90 reversed $84 $-1 #
edge $-1 $153 -28.198533180050511 $154 28.198533180050511 $89 $155 forward 7 unknown #
face $-1 $156 $157 $20 $-1 $158 reversed single #
loop $-1 $-1 $159 $56 #
plane-surface $-1 25.480947618048674 10.760164653103999 197.33881706933707 0 1 0 0.52991927123019833 0 0.84804809178421925 forward_v I I I I #
coedge $-1 $160 $161 $162 $163 reversed $57 $-1 #
coedge $-1 $96 $59 $164 $165 reversed $37 $-1 #
coedge $-1 $59 $95 $160 $166 reversed $37 $-1 #
coedge $-1 $162 $167 $59 $98 forward $168 $-1 #
edge $-1 $169 -57.311712842179617 $170 -45.041033033880268 $97 $171 forward 7 unknown #
loop $-1 $-1 $104 $60 #
plane-surface $-1 -48.76305977852698 16.655146012429334 78.523570639606135 0.52991927123019833 0 0.84804809178421925 0.84804809178421925 0 -0.52991927123019833 forward_v I I I I #
loop $-1 $-1 $172 $39 #
coedge $-1 $102 $102 $103 $173 reversed $61 $-1 #
coedge $-1 $103 $103 $102 $173 forward $63 $-1 #
coedge $-1 $104 $104 $64 $105 forward $99 $-1 #
edge $-1 $174 0 $174 6.2831853071796004 $104 $175 forward 7 unknown #
loop $-1 $-1 $111 $65 #
plane-surface $-1 -48.76305977852698 16.655146012429334 78.523570639606135 0.52991927123019833 0 0.84804809178421925 0.84804809178421925 0 -0.52991927123019833 forward_v I I I I #
loop $-1 $-1 $176 $42 #
coedge $-1 $109 $109 $110 $177 reversed $66 $-1 #
coedge $-1 $110 $110 $109 $177 forward $68 $-1 #
coedge $-1 $111 $111 $69 $112 forward $106 $-1 #
edge $-1 $178 0 $178 6.2831853071796004 $111 $179 forward 7 unknown #
loop $-1 $-1 $118 $70 #
plane-surface $-1 -48.76305977852698 16.655146012429334 78.523570639606135 0.52991927123019833 0 0.84804809178421925 0.84804809178421925 0 -0.52991927123019833 forward_v I I I I #
loop $-1 $-1 $180 $45 #
coedge $-1 $116 $116 $117 $181 reversed $71 $-1 #
coedge $-1 $117 $117 $116 $181 forward $73 $-1 #
coedge $-1 $118 $118 $74 $119 forward $113 $-1 #
edge $-1 $182 0 $182 6.2831853071796004 $118 $183 forward 7 unknown #
face $-1 $184 $185 $18 $-1 $186 reversed single #
loop $-1 $-1 $187 $75 #
plane-surface $-1 -70.052186651203954 0 0 1 0 0 0 0 -1 forward_v I I I I #
coedge $-1 $188 $131 $189 $190 forward $76 $-1 #
coedge $-1 $191 $78 $188 $192 forward $49 $-1 #
coedge $-1 $78 $191 $193 $194 forward $49 $-1 #
coedge $-1 $134 $133 $78 $127 reversed $135 $-1 #
edge $-1 $195 -28.198533180050511 $196 28.198533180050511 $126 $197 forward 7 unknown #
coedge $-1 $80 $79 $198 $199 forward $31 $-1 #
coedge $-1 $200 $201 $79 $130 reversed $185 $-1 #
edge $-1 $137 -70.052186651203954 $202 70.052186651203954 $129 $203 forward 7 unknown #
coedge $-1 $123 $204 $80 $132 reversed $76 $-1 #
edge $-1 $205 -70.052186651203954 $136 70.052186651203954 $131 $206 forward 7 unknown #
coedge $-1 $126 $81 $204 $207 forward $135 $-1 #
coedge $-1 $81 $126 $200 $208 reversed $135 $-1 #
loop $-1 $-1 $133 $184 #
vertex $-1 $82 $209 #
vertex $-1 $82 $210 #
straight-curve $-1 70.052186651203954 0 11.947135123102122 0 1 0 I I #
face $-1 $211 $212 $19 $-1 $213 reversed single #
loop $-1 $-1 $214 $83 #
plane-surface $-1 0 -28.198533180050511 0 0 1 0 0 0 1 forward_v I I I I #
coedge $-1 $145 $89 $215 $216 reversed $84 $-1 #
coedge $-1 $217 $86 $214 $218 reversed $53 $-1 #
coedge $-1 $86 $217 $219 $220 reversed $53 $-1 #
coedge $-1 $152 $142 $86 $146 reversed $84 $-1 #
edge $-1 $221 -28.198533180050511 $222 28.198533180050511 $145 $223 forward 7 unknown #
coedge $-1 $88 $87 $224 $225 reversed $34 $-1 #
coedge $-1 $226 $227 $87 $149 forward $228 $-1 #
edge $-1 $229 -37.715265208912612 $154 -26.958577675670064 $148 $230 forward 7 unknown #
coedge $-1 $231 $215 $88 $151 forward $140 $-1 #
edge $-1 $153 26.958577675670064 $232 37.715265208912612 $150 $233 forward 7 unknown #
coedge $-1 $89 $145 $226 $234 reversed $84 $-1 #
vertex $-1 $151 $235 #
vertex $-1 $149 $236 #
straight-curve $-1 -59.295499117961405 0 10.923687637975078 0 1 0 I I #
face $-1 $-1 $168 $20 $-1 $237 forward single #
loop $-1 $-1 $238 $91 #
plane-surface $-1 70.052186651203954 0 0 -1 0 0 0 0 1 forward_v I I I I #
coedge $-1 $239 $240 $241 $242 reversed $92 $-1 #
coedge $-1 $243 $94 $96 $166 forward $57 $-1 #
coedge $-1 $94 $243 $239 $244 forward $57 $-1 #
coedge $-1 $241 $97 $94 $163 forward $168 $-1 #
edge $-1 $170 -14.222554365540002 $245 -2.4325916468893318 $162 $246 forward 7 unknown #
coedge $-1 $247 $248 $95 $165 forward $157 $-1 #
edge $-1 $249 -94.389845291638053 $169 -86.72227341156642 $164 $250 forward 7 unknown #
edge $-1 $170 125.63505260329177 $249 140.10437330240791 $96 $251 forward 7 unknown #
coedge $-1 $97 $241 $247 $252 forward $168 $-1 #
loop $-1 $-1 $241 $156 #
vertex $-1 $165 $253 #
vertex $-1 $98 $254 #
straight-curve $-1 12.740473809024337 22.55012737175467 11.947135123102129 -1 0 0 I I #
coedge $-1 $172 $172 $-1 $255 reversed $101 $-1 #
edge $-1 $256 0 $256 6.2831853071796004 $102 $257 forward 7 unknown #
vertex $-1 $105 $258 #
ellipse-curve $-1 63.916846747054301 13.118157196834133 8.1133491830662976 0.52991927123019833 0 0.84804809178421925 0.42402404589210962 0 -0.26495963561509916 1 I I #
coedge $-1 $176 $176 $-1 $259 reversed $108 $-1 #
edge $-1 $260 0 $260 6.2831853071796004 $109 $261 forward 7 unknown #
vertex $-1 $112 $262 #
ellipse-curve $-1 63.916846747054301 16.655146012429334 8.1133491830662976 0.52991927123019833 0 0.84804809178421925 0.42402404589210962 0 -0.26495963561509916 1 I I #
coedge $-1 $180 $180 $-1 $263 reversed $115 $-1 #
edge $-1 $264 0 $264 6.2831853071796004 $116 $265 forward 7 unknown #
vertex $-1 $119 $266 #
ellipse-curve $-1 63.916846747054301 20.192134828024535 8.1133491830662976 0.52991927123019833 0 0.84804809178421925 0.42402404589210962 0 -0.26495963561509916 1 I I #
face $-1 $-1 $135 $18 $-1 $267 reversed single #
loop $-1 $-1 $200 $120 #
plane-surface $-1 0 28.198533180050511 0 0 -1 0 0 0 -1 forward_v I I I I #
coedge $-1 $268 $198 $201 $269 forward $121 $-1 #
coedge $-1 $204 $123 $124 $192 reversed $76 $-1 #
coedge $-1 $198 $268 $123 $190 reversed $121 $-1 #
edge $-1 $205 -11.947135123102122 $270 11.947135123102122 $189 $271 forward 7 unknown #
coedge $-1 $125 $124 $268 $272 forward $49 $-1 #
edge $-1 $196 -70.052186651203954 $270 70.052186651203954 $188 $273 forward 7 unknown #
coedge $-1 $201 $200 $125 $194 reversed $185 $-1 #
edge $-1 $274 -70.052186651203954 $195 70.052186651203954 $193 $275 forward 7 unknown #
vertex $-1 $127 $276 #
vertex $-1 $207 $277 #
straight-curve $-1 70.052186651203954 0 -11.947135123102122 0 -1 0 I I #
coedge $-1 $187 $189 $128 $199 reversed $121 $-1 #
edge $-1 $202 -28.198533180050511 $205 28.198533180050511 $198 $278 forward 7 unknown #
coedge $-1 $193 $129 $134 $208 forward $185 $-1 #
coedge $-1 $129 $193 $187 $269 reversed $185 $-1 #
vertex $-1 $130 $279 #
straight-curve $-1 0 28.198533180050511 11.947135123102122 -1 0 0 I I #
coedge $-1 $131 $188 $133 $207 reversed $76 $-1 #
vertex $-1 $199 $280 #
straight-curve $-1 0 -28.198533180050511 11.947135123102122 1 0 0 I I #
edge $-1 $136 -11.947135123102122 $196 11.947135123102122 $133 $281 forward 7 unknown #
edge $-1 $137 -11.947135123102122 $195 11.947135123102122 $134 $282 forward 7 unknown #
point $-1 70.052186651203954 -28.198533180050511 11.947135123102122 #
point $-1 70.052186651203954 28.198533180050511 11.947135123102122 #
face $-1 $-1 $228 $19 $-1 $283 reversed single #
loop $-1 $-1 $284 $139 #
plane-surface $-1 -70.052186651203954 0 0 1 0 0 0 0 -1 forward_v I I I I #
coedge $-1 $215 $231 $143 $218 forward $140 $-1 #
coedge $-1 $150 $214 $142 $216 forward $140 $-1 #
edge $-1 $222 3.2118438189875391 $153 6.2118438189875391 $215 $285 forward 7 unknown #
coedge $-1 $144 $143 $284 $286 reversed $53 $-1 #
edge $-1 $287 -37.715265208912612 $222 -26.958577675670064 $214 $288 forward 7 unknown #
coedge $-1 $227 $226 $144 $220 forward $228 $-1 #
edge $-1 $221 26.958577675670064 $289 37.715265208912612 $219 $290 forward 7 unknown #
vertex $-1 $220 $291 #
vertex $-1 $218 $292 #
straight-curve $-1 -59.295499117961405 0 7.9236876379750782 0 -1 0 I I #
coedge $-1 $293 $294 $147 $225 forward $212 $-1 #
edge $-1 $232 -28.198533180050511 $229 28.198533180050511 $224 $295 forward 7 unknown #
coedge $-1 $219 $148 $152 $234 forward $228 $-1 #
coedge $-1 $148 $219 $293 $296 reversed $228 $-1 #
loop $-1 $-1 $219 $211 #
vertex $-1 $296 $297 #
straight-curve $-1 -32.336921442291342 28.198533180050511 10.923687637975078 1 0 0 I I #
coedge $-1 $214 $150 $294 $298 forward $140 $-1 #
vertex $-1 $298 $299 #
straight-curve $-1 -32.336921442291342 -28.198533180050511 10.923687637975078 -1 0 0 I I #
edge $-1 $154 -6.2118438189875391 $221 -3.2118438189875391 $226 $300 forward 7 unknown #
point $-1 -59.295499117961405 -28.198533180050511 10.923687637975078 #
point $-1 -59.295499117961405 28.198533180050511 10.923687637975078 #
plane-surface $-1 0 0 11.947135123102122 0 0 1 1 0 0 forward_v I I I I #
coedge $-1 $248 $247 $240 $301 forward $157 $-1 #
coedge $-1 $240 $159 $161 $244 reversed $92 $-1 #
coedge $-1 $159 $239 $238 $301 reversed $92 $-1 #
coedge $-1 $167 $162 $159 $242 forward $168 $-1 #
edge $-1 $245 45.041033033880268 $302 57.311712842179617 $241 $303 forward 7 unknown #
coedge $-1 $161 $160 $248 $304 reversed $57 $-1 #
edge $-1 $305 -140.10437330240791 $245 -125.63505260329177 $239 $306 forward 7 unknown #
vertex $-1 $163 $307 #
straight-curve $-1 57.781506842904619 8.3275730062146671 11.947135123102115 0 -1 0 I I #
coedge $-1 $238 $164 $167 $252 reversed $157 $-1 #
coedge $-1 $164 $238 $243 $304 forward $157 $-1 #
vertex $-1 $165 $308 #
straight-curve $-1 70.052186651203954 22.55012737175467 98.669408534668534 0 0 1 I I #
straight-curve $-1 -48.76305977852698 22.55012737175467 78.523570639606135 0.84804809178421925 0 -0.52991927123019833 I I #
edge $-1 $302 10.760164653103999 $169 22.55012737175467 $247 $309 forward 7 unknown #
point $-1 70.052186651203954 22.55012737175467 11.947135123102122 #
point $-1 57.781506842904605 22.55012737175467 11.947135123102129 #
edge $-1 $310 1 $310 0 $172 $-1 forward 7 unknown #
vertex $-1 $173 $311 #
ellipse-curve $-1 63.213147528651504 13.118157196834133 6.9871950464727268 0.52991927123019833 0 0.84804809178421925 0.42402404589210962 0 -0.26495963561509916 1 I I #
point $-1 64.34087079294639 13.118157196834133 7.8483895474511778 #
edge $-1 $312 1 $312 0 $176 $-1 forward 7 unknown #
vertex $-1 $177 $313 #
ellipse-curve $-1 63.213147528651504 16.655146012429334 6.9871950464727268 0.52991927123019833 0 0.84804809178421925 0.42402404589210962 0 -0.26495963561509916 1 I I #
point $-1 64.34087079294639 16.655146012429334 7.8483895474511778 #
edge $-1 $314 1 $314 0 $180 $-1 forward 7 unknown #
vertex $-1 $181 $315 #
ellipse-curve $-1 63.213147528651504 20.192134828024535 6.9871950464727268 0.52991927123019833 0 0.84804809178421925 0.42402404589210962 0 -0.26495963561509916 1 I I #
point $-1 64.34087079294639 20.192134828024535 7.8483895474511778 #
plane-surface $-1 70.052186651203954 0 0 -1 0 0 0 0 1 forward_v I I I I #
coedge $-1 $189 $187 $191 $272 reversed $121 $-1 #
edge $-1 $202 -11.947135123102122 $274 11.947135123102122 $201 $316 forward 7 unknown #
vertex $-1 $272 $317 #
straight-curve $-1 -70.052186651203954 -28.198533180050511 0 0 0 -1 I I #
edge $-1 $270 -28.198533180050511 $274 28.198533180050511 $268 $318 forward 7 unknown #
straight-curve $-1 0 -28.198533180050511 -11.947135123102122 -1 0 0 I I #
vertex $-1 $194 $319 #
straight-curve $-1 0 28.198533180050511 -11.947135123102122 1 0 0 I I #
point $-1 70.052186651203954 28.198533180050511 -11.947135123102122 #
point $-1 70.052186651203954 -28.198533180050511 -11.947135123102122 #
straight-curve $-1 -70.052186651203954 0 11.947135123102122 0 -1 0 I I #
point $-1 -70.052186651203954 28.198533180050511 11.947135123102122 #
point $-1 -70.052186651203954 -28.198533180050511 11.947135123102122 #
straight-curve $-1 70.052186651203954 -28.198533180050511 0 0 0 -1 I I #
straight-curve $-1 70.052186651203954 28.198533180050511 0 0 0 -1 I I #
plane-surface $-1 0 28.198533180050511 0 0 -1 0 0 0 -1 forward_v I I I I #
coedge $-1 $294 $293 $217 $286 forward $212 $-1 #
straight-curve $-1 -59.295499117961405 -28.198533180050511 4.7118438189875391 0 0 1 I I #
edge $-1 $289 -28.198533180050511 $287 28.198533180050511 $284 $320 forward 7 unknown #
vertex $-1 $218 $321 #
straight-curve $-1 -32.336921442291342 -28.198533180050511 7.9236876379750782 1 0 0 I I #
vertex $-1 $220 $322 #
straight-curve $-1 -32.336921442291342 28.198533180050511 7.9236876379750782 -1 0 0 I I #
point $-1 -59.295499117961405 28.198533180050511 7.9236876379750782 #
point $-1 -59.295499117961405 -28.198533180050511 7.9236876379750782 #
coedge $-1 $284 $224 $227 $296 forward $212 $-1 #
coedge $-1 $224 $284 $231 $298 reversed $212 $-1 #
straight-curve $-1 -70.052186651203954 0 10.923687637975078 0 1 0 I I #
edge $-1 $229 -10.923687637975078 $289 -7.9236876379750782 $227 $323 forward 7 unknown #
point $-1 -70.052186651203954 28.198533180050511 10.923687637975078 #
edge $-1 $232 -10.923687637975078 $287 -7.9236876379750782 $294 $324 forward 7 unknown #
point $-1 -70.052186651203954 -28.198533180050511 10.923687637975078 #
straight-curve $-1 -59.295499117961405 28.198533180050511 4.7118438189875391 0 0 -1 I I #
edge $-1 $302 86.72227341156642 $305 94.389845291638053 $238 $325 forward 7 unknown #
vertex $-1 $252 $326 #
straight-curve $-1 12.740473809024337 10.760164653103999 11.947135123102129 1 0 0 I I #
edge $-1 $305 2.4325916468893318 $249 14.222554365540002 $248 $327 forward 7 unknown #
vertex $-1 $304 $328 #
straight-curve $-1 -48.76305977852698 10.760164653103999 78.523570639606135 -0.84804809178421925 0 0.52991927123019833 I I #
point $-1 57.781506842904605 10.760164653103999 11.947135123102129 #
point $-1 70.052186651203954 22.55012737175467 4.2795632430304806 #
straight-curve $-1 70.052186651203954 0 11.947135123102122 0 1 0 I I #
vertex $-1 $255 $329 #
point $-1 63.637171574543615 13.118157196834133 6.7222354108576283 #
vertex $-1 $259 $330 #
point $-1 63.637171574543615 16.655146012429334 6.7222354108576283 #
vertex $-1 $263 $331 #
point $-1 63.637171574543615 20.192134828024535 6.7222354108576283 #
straight-curve $-1 -70.052186651203954 28.198533180050511 0 0 0 -1 I I #
point $-1 -70.052186651203954 -28.198533180050511 -11.947135123102122 #
straight-curve $-1 -70.052186651203954 0 -11.947135123102122 0 1 0 I I #
point $-1 -70.052186651203954 28.198533180050511 -11.947135123102122 #
straight-curve $-1 -70.052186651203954 0 7.9236876379750782 0 -1 0 I I #
point $-1 -70.052186651203954 -28.198533180050511 7.9236876379750782 #
point $-1 -70.052186651203954 28.198533180050511 7.9236876379750782 #
straight-curve $-1 -70.052186651203954 28.198533180050511 0 0 0 -1 I I #
straight-curve $-1 -70.052186651203954 -28.198533180050511 0 0 0 -1 I I #
straight-curve $-1 70.052186651203954 10.760164653103999 98.669408534668534 0 0 -1 I I #
point $-1 70.052186651203954 10.760164653103999 11.947135123102122 #
straight-curve $-1 70.052186651203954 8.3275730062146671 4.2795632430304877 0 1 0 I I #
point $-1 70.052186651203954 10.760164653103999 4.2795632430304806 #
point $-1 62.948187893036405 13.118157196834133 6.5631710005806179 #
point $-1 62.948187893036405 16.655146012429334 6.5631710005806179 #
point $-1 62.948187893036405 20.192134828024535 6.5631710005806179 #
End-of-ACIS-data 