500 0 8 0           
7 Unknown 11 ACIS 5.0 NT 24 Thu Mar 25 21:49:23 1999 
-1 9.9999999999999995e-007 1e-010 
body $-1 $8 $-1 $9 #
body $-1 $10 $-1 $11 #
body $-1 $12 $-1 $13 #
body $-1 $14 $-1 $15 #
body $-1 $16 $-1 $17 #
body $-1 $18 $-1 $19 #
body $-1 $20 $-1 $21 #
body $-1 $22 $-1 $23 #
lump $-1 $-1 $24 $0 #
transform $-1 1 0 0 0 1 0 0 0 1 51.815546128727071 27.12824605554831 12.815275145537653 1 rotate no_reflect no_shear #
lump $-1 $-1 $25 $1 #
transform $-1 1 0 0 0 1 0 0 0 1 51.815546128727071 27.12824605554831 12.815275145537653 1 rotate no_reflect no_shear #
lump $-1 $-1 $26 $2 #
transform $-1 1 0 0 0 1 0 0 0 1 51.815546128727071 27.12824605554831 12.815275145537653 1 rotate no_reflect no_shear #
lump $-1 $-1 $27 $3 #
transform $-1 1 0 0 0 1 0 0 0 1 51.815546128727071 27.12824605554831 12.815275145537653 1 rotate no_reflect no_shear #
lump $-1 $-1 $28 $4 #
transform $-1 1 0 0 0 1 0 0 0 1 51.815546128727071 27.12824605554831 12.815275145537653 1 rotate no_reflect no_shear #
lump $-1 $-1 $29 $5 #
transform $-1 1 0 0 0 1 0 0 0 1 51.815546128727071 27.12824605554831 12.815275145537653 1 rotate no_reflect no_shear #
lump $-1 $-1 $30 $6 #
transform $-1 1 0 0 0 1 0 0 0 1 51.815546128727071 27.12824605554831 12.815275145537653 1 rotate no_reflect no_shear #
lump $-1 $-1 $31 $7 #
transform $-1 1 0 0 0 1 0 0 0 1 51.815546128727071 27.12824605554831 12.815275145537653 1 rotate no_reflect no_shear #
shell $-1 $-1 $-1 $32 $-1 $8 #
shell $-1 $-1 $-1 $33 $-1 $10 #
shell $-1 $-1 $-1 $34 $-1 $12 #
shell $-1 $-1 $-1 $35 $-1 $14 #
shell $-1 $-1 $-1 $36 $-1 $16 #
shell $-1 $-1 $-1 $37 $-1 $18 #
shell $-1 $-1 $-1 $38 $-1 $20 #
shell $-1 $-1 $-1 $39 $-1 $22 #
face $-1 $40 $41 $24 $-1 $42 forward single #
face $-1 $43 $44 $25 $-1 $45 forward single #
face $-1 $46 $47 $26 $-1 $48 reversed single #
face $-1 $49 $50 $27 $-1 $51 forward single #
face $-1 $52 $53 $28 $-1 $54 reversed single #
face $-1 $55 $56 $29 $-1 $57 forward single #
face $-1 $58 $59 $30 $-1 $60 reversed single #
face $-1 $61 $62 $31 $-1 $63 forward single #
face $-1 $64 $65 $24 $-1 $66 reversed single #
loop $-1 $-1 $67 $32 #
plane-surface $-1 0 0 12.815275145537653 0 0 1 1 0 0 forward_v I I I I #
face $-1 $68 $69 $25 $-1 $70 reversed single #
loop $-1 $-1 $71 $33 #
plane-surface $-1 -51.815546128727071 0 0 1 0 0 0 0 -1 forward_v I I I I #
face $-1 $72 $73 $26 $-1 $74 reversed single #
loop $-1 $-1 $75 $34 #
plane-surface $-1 -21.796220144138289 -99.116452577700329 77.171203278575945 -1 0 0 0 -0.69465837861970381 0.71933979245794832 forward_v I I I I #
face $-1 $76 $77 $27 $-1 $78 forward single #
loop $-1 $79 $80 $35 #
cone-surface $-1 -30.546278085487213 -18.441912703024784 4.1888008972594113 0 0.69465837861970381 -0.71933979245794832 3 0 0 1 I I 0 1 3 forward I I I I #
face $-1 $81 $82 $28 $-1 $83 reversed single #
loop $-1 $-1 $84 $36 #
plane-surface $-1 23.759720933643312 -99.116452577700329 77.171203278575945 -1 0 0 0 -0.69465837861970381 0.71933979245794832 forward_v I I I I #
face $-1 $85 $86 $29 $-1 $87 forward single #
loop $-1 $88 $89 $37 #
cone-surface $-1 15.009662992294388 -18.441912703024784 4.1888008972594113 0 0.69465837861970381 -0.71933979245794832 3 0 0 1 I I 0 1 3 forward I I I I #
face $-1 $90 $91 $30 $-1 $92 reversed single #
loop $-1 $-1 $93 $38 #
plane-surface $-1 -39.296336026836137 58.123795934827562 115.14197460612978 1 0 0 0 -0.68199836817093118 -0.7313536940579346 forward_v I I I I #
face $-1 $94 $95 $31 $-1 $96 forward single #
loop $-1 $97 $98 $39 #
cone-surface $-1 -30.478640018729983 19.108630912153309 5.0001921856826517 0 -0.68199836817093118 -0.7313536940579346 3 0 0 1 I I 0 1 3 forward I I I I #
face $-1 $99 $100 $24 $-1 $101 reversed single #
loop $-1 $-1 $102 $40 #
plane-surface $-1 0 0 -12.815275145537653 0 0 1 1 0 0 forward_v I I I I #
coedge $-1 $103 $104 $105 $106 forward $41 $-1 #
face $-1 $107 $108 $25 $-1 $109 reversed single #
loop $-1 $-1 $110 $43 #
plane-surface $-1 0 0 -12.815275145537653 0 0 1 1 0 0 forward_v I I I I #
coedge $-1 $111 $112 $113 $114 forward $44 $-1 #
face $-1 $115 $116 $26 $-1 $117 reversed single #
loop $-1 $-1 $118 $46 #
plane-surface $-1 -30.546278085487213 -27.128246055548288 2.6252348819083835 0 -0.69465837861970381 0.71933979245794832 1 0 0 forward_v I I I I #
coedge $-1 $119 $120 $121 $122 reversed $47 $-1 #
face $-1 $-1 $123 $27 $-1 $124 forward single #
loop $-1 $125 $126 $49 #
cone-surface $-1 -30.546278085487213 -13.989639458655475 -0.42166290789111649 0 0.69465837861970381 -0.71933979245794832 1.5 0 0 1 I I -0.70710678118654757 0.70710678118654757 1.5 forward I I I I #
loop $-1 $-1 $127 $35 #
coedge $-1 $80 $80 $128 $129 reversed $50 $-1 #
face $-1 $130 $131 $28 $-1 $132 reversed single #
loop $-1 $-1 $133 $52 #
plane-surface $-1 15.009662992294388 -27.128246055548288 2.6252348819083835 0 -0.69465837861970381 0.71933979245794832 1 0 0 forward_v I I I I #
coedge $-1 $134 $135 $136 $137 reversed $53 $-1 #
face $-1 $-1 $138 $29 $-1 $139 forward single #
loop $-1 $140 $141 $55 #
cone-surface $-1 15.009662992294388 -13.989639458655475 -0.42166290789111649 0 0.69465837861970381 -0.71933979245794832 1.5 0 0 1 I I -0.70710678118654757 0.70710678118654757 1.5 forward I I I I #
loop $-1 $-1 $142 $37 #
coedge $-1 $89 $89 $143 $144 reversed $56 $-1 #
face $-1 $145 $146 $30 $-1 $147 reversed single #
loop $-1 $-1 $148 $58 #
plane-surface $-1 -30.478640018729983 -12.55243987652738 39.350992464382074 0 0.68199836817093118 0.7313536940579346 1 0 0 forward_v I I I I #
coedge $-1 $149 $150 $151 $152 reversed $59 $-1 #
face $-1 $-1 $153 $31 $-1 $154 forward single #
loop $-1 $155 $156 $61 #
cone-surface $-1 -30.478640018729983 15.678325023404895 1.3216395665419842 0 -0.68199836817093118 -0.7313536940579346 1.5 0 0 1 I I -0.70710678118654757 0.70710678118654757 1.5 forward I I I I #
loop $-1 $-1 $157 $39 #
coedge $-1 $98 $98 $158 $159 reversed $62 $-1 #
face $-1 $160 $161 $24 $-1 $162 reversed single #
loop $-1 $-1 $163 $64 #
plane-surface $-1 0 -27.12824605554831 0 0 1 0 0 0 1 forward_v I I I I #
coedge $-1 $164 $165 $166 $167 forward $65 $-1 #
coedge $-1 $168 $67 $169 $170 forward $41 $-1 #
coedge $-1 $67 $168 $171 $172 forward $41 $-1 #
coedge $-1 $173 $174 $67 $106 reversed $175 $-1 #
edge $-1 $176 -27.12824605554831 $177 27.12824605554831 $105 $178 forward 7 unknown #
face $-1 $179 $180 $25 $-1 $181 reversed single #
loop $-1 $-1 $182 $68 #
plane-surface $-1 -58.075151179672538 -25.437977332776029 0 0 1 0 0 0 1 forward_v I I I I #
coedge $-1 $183 $184 $112 $185 forward $69 $-1 #
coedge $-1 $186 $71 $187 $188 reversed $44 $-1 #
coedge $-1 $71 $186 $110 $185 reversed $44 $-1 #
coedge $-1 $189 $190 $71 $114 reversed $191 $-1 #
edge $-1 $192 -12.815275145537653 $193 12.815275145537653 $113 $194 forward 7 unknown #
face $-1 $195 $196 $26 $-1 $197 forward single #
loop $-1 $-1 $198 $72 #
plane-surface $-1 -39.296336026836137 -99.116452577700329 77.171203278575945 1 0 0 0 0.69465837861970381 -0.71933979245794832 forward_v I I I I #
coedge $-1 $199 $200 $201 $202 reversed $73 $-1 #
coedge $-1 $120 $75 $203 $204 reversed $47 $-1 #
coedge $-1 $75 $119 $199 $205 reversed $47 $-1 #
coedge $-1 $201 $206 $75 $122 forward $196 $-1 #
edge $-1 $207 22.429980233301855 $208 32.982075585469417 $121 $209 forward 7 unknown #
loop $-1 $-1 $128 $76 #
plane-surface $-1 -30.546278085487213 -27.128246055548288 2.6252348819083835 0 -0.69465837861970381 0.71933979245794832 1 0 0 forward_v I I I I #
loop $-1 $-1 $210 $49 #
coedge $-1 $126 $126 $127 $211 reversed $77 $-1 #
coedge $-1 $127 $127 $126 $211 forward $79 $-1 #
coedge $-1 $128 $128 $80 $129 forward $123 $-1 #
edge $-1 $212 -8.7685996555267126e-017 $212 6.2831853071796004 $128 $213 forward 7 unknown #
face $-1 $214 $215 $28 $-1 $216 reversed single #
loop $-1 $-1 $217 $81 #
plane-surface $-1 6.2596050509454635 -99.116452577700329 77.171203278575945 1 0 0 0 0.69465837861970381 -0.71933979245794832 forward_v I I I I #
coedge $-1 $218 $219 $220 $221 reversed $82 $-1 #
coedge $-1 $135 $84 $222 $223 reversed $53 $-1 #
coedge $-1 $84 $134 $218 $224 reversed $53 $-1 #
coedge $-1 $220 $225 $84 $137 forward $226 $-1 #
edge $-1 $227 22.429980233301855 $228 32.982075585469417 $136 $229 forward 7 unknown #
loop $-1 $-1 $143 $85 #
plane-surface $-1 15.009662992294388 -27.128246055548288 2.6252348819083835 0 -0.69465837861970381 0.71933979245794832 1 0 0 forward_v I I I I #
loop $-1 $-1 $230 $55 #
coedge $-1 $141 $141 $142 $231 reversed $86 $-1 #
coedge $-1 $142 $142 $141 $231 forward $88 $-1 #
coedge $-1 $143 $143 $89 $144 forward $138 $-1 #
edge $-1 $232 -8.7685996555267126e-017 $232 6.2831853071796004 $143 $233 forward 7 unknown #
face $-1 $234 $235 $30 $-1 $236 reversed single #
loop $-1 $-1 $237 $90 #
plane-surface $-1 -21.66094401062383 58.123795934827562 115.14197460612978 -1 0 0 0 0.68199836817093118 0.7313536940579346 forward_v I I I I #
coedge $-1 $238 $239 $240 $241 reversed $91 $-1 #
coedge $-1 $150 $93 $242 $243 reversed $59 $-1 #
coedge $-1 $93 $149 $238 $244 reversed $59 $-1 #
coedge $-1 $240 $245 $93 $152 forward $246 $-1 #
edge $-1 $247 1.9336519118654714 $248 13.158265525671411 $151 $249 forward 7 unknown #
loop $-1 $-1 $158 $94 #
plane-surface $-1 -30.478640018729983 -12.55243987652738 39.350992464382074 0 0.68199836817093118 0.7313536940579346 1 0 0 forward_v I I I I #
loop $-1 $-1 $250 $61 #
coedge $-1 $156 $156 $157 $251 reversed $95 $-1 #
coedge $-1 $157 $157 $156 $251 forward $97 $-1 #
coedge $-1 $158 $158 $98 $159 forward $153 $-1 #
edge $-1 $252 -1.7534534140041379e-016 $252 6.2831853071796004 $158 $253 forward 7 unknown #
face $-1 $254 $255 $24 $-1 $256 reversed single #
loop $-1 $-1 $257 $99 #
plane-surface $-1 -51.815546128727071 0 0 1 0 0 0 0 -1 forward_v I I I I #
coedge $-1 $258 $171 $259 $260 forward $100 $-1 #
coedge $-1 $261 $102 $258 $262 forward $65 $-1 #
coedge $-1 $102 $261 $263 $264 forward $65 $-1 #
coedge $-1 $174 $173 $102 $167 reversed $175 $-1 #
edge $-1 $265 -27.12824605554831 $266 27.12824605554831 $166 $267 forward 7 unknown #
coedge $-1 $104 $103 $268 $269 forward $41 $-1 #
coedge $-1 $270 $271 $103 $170 reversed $255 $-1 #
edge $-1 $177 -51.815546128727071 $272 51.815546128727071 $169 $273 forward 7 unknown #
coedge $-1 $163 $274 $104 $172 reversed $100 $-1 #
edge $-1 $275 -51.815546128727071 $176 51.815546128727071 $171 $276 forward 7 unknown #
coedge $-1 $166 $105 $274 $277 forward $175 $-1 #
coedge $-1 $105 $166 $270 $278 reversed $175 $-1 #
loop $-1 $-1 $173 $254 #
vertex $-1 $106 $279 #
vertex $-1 $106 $280 #
straight-curve $-1 51.815546128727071 0 12.815275145537653 0 1 0 I I #
face $-1 $281 $191 $25 $-1 $282 reversed single #
loop $-1 $-1 $283 $107 #
plane-surface $-1 -64.334756230618012 -22.527036099806207 0 1 0 0 0 0 -1 forward_v I I I I #
coedge $-1 $284 $285 $286 $287 forward $108 $-1 #
coedge $-1 $288 $110 $284 $289 forward $69 $-1 #
coedge $-1 $110 $288 $189 $290 forward $69 $-1 #
edge $-1 $192 19.616094866836384 $291 25.437977332776029 $110 $292 forward 7 unknown #
coedge $-1 $112 $111 $293 $294 forward $44 $-1 #
coedge $-1 $295 $296 $111 $188 forward $297 $-1 #
edge $-1 $298 -25.437977332776029 $193 -19.616094866836384 $187 $299 forward 7 unknown #
coedge $-1 $300 $113 $184 $290 reversed $191 $-1 #
coedge $-1 $113 $300 $295 $301 reversed $191 $-1 #
loop $-1 $-1 $113 $179 #
vertex $-1 $185 $302 #
vertex $-1 $301 $303 #
straight-curve $-1 -51.815546128727071 -19.616094866836384 0 0 0 1 I I #
face $-1 $-1 $304 $26 $-1 $305 reversed single #
loop $-1 $-1 $121 $115 #
plane-surface $-1 0 0 12.815275145537653 0 0 1 1 0 0 forward_v I I I I #
coedge $-1 $306 $307 $308 $309 reversed $116 $-1 #
coedge $-1 $310 $118 $120 $205 forward $73 $-1 #
coedge $-1 $118 $310 $306 $311 forward $73 $-1 #
coedge $-1 $308 $121 $118 $202 forward $196 $-1 #
edge $-1 $208 6.5230811013946823 $312 24.023196984092529 $201 $313 forward 7 unknown #
coedge $-1 $314 $315 $119 $204 forward $304 $-1 #
edge $-1 $316 -35.96036675737961 $207 -25.770326493750318 $203 $317 forward 7 unknown #
edge $-1 $208 -14.669138928226888 $316 2.9524203284164893e-014 $120 $318 forward 7 unknown #
coedge $-1 $121 $308 $314 $319 forward $196 $-1 #
vertex $-1 $122 $320 #
vertex $-1 $122 $321 #
straight-curve $-1 -21.796220144138289 -49.558226288850165 12.815275145537655 0 1 0 I I #
coedge $-1 $210 $210 $-1 $322 reversed $125 $-1 #
edge $-1 $323 0 $323 6.2831853071796004 $126 $324 forward 7 unknown #
vertex $-1 $129 $325 #
ellipse-curve $-1 -30.546278085487213 -21.852198379464529 7.7202550137230066 0 -0.69465837861970381 0.71933979245794832 3 0 0 1 I I #
face $-1 $-1 $226 $28 $-1 $326 forward single #
loop $-1 $-1 $327 $130 #
plane-surface $-1 0 -27.12824605554831 0 0 1 0 0 0 1 forward_v I I I I #
coedge $-1 $328 $329 $330 $331 reversed $131 $-1 #
coedge $-1 $332 $133 $135 $224 forward $82 $-1 #
coedge $-1 $133 $332 $328 $333 forward $82 $-1 #
coedge $-1 $330 $136 $133 $221 forward $226 $-1 #
edge $-1 $228 -16.254889437496118 $334 1.2452264452017303 $220 $335 forward 7 unknown #
coedge $-1 $336 $337 $134 $223 forward $215 $-1 #
edge $-1 $338 -35.96036675737961 $227 -25.770326493750318 $222 $339 forward 7 unknown #
edge $-1 $228 -14.669138928226888 $338 2.9524203284164893e-014 $135 $340 forward 7 unknown #
coedge $-1 $136 $330 $336 $341 forward $226 $-1 #
loop $-1 $-1 $330 $214 #
vertex $-1 $223 $342 #
vertex $-1 $137 $343 #
straight-curve $-1 23.759720933643312 -49.558226288850165 12.815275145537655 0 1 0 I I #
coedge $-1 $230 $230 $-1 $344 reversed $140 $-1 #
edge $-1 $345 0 $345 6.2831853071796004 $141 $346 forward 7 unknown #
vertex $-1 $144 $347 #
ellipse-curve $-1 15.009662992294388 -21.852198379464529 7.7202550137230066 0 -0.69465837861970381 0.71933979245794832 3 0 0 1 I I #
face $-1 $-1 $246 $30 $-1 $348 forward single #
loop $-1 $-1 $349 $145 #
plane-surface $-1 0 27.12824605554831 0 0 -1 0 0 0 -1 forward_v I I I I #
coedge $-1 $350 $351 $352 $353 reversed $146 $-1 #
coedge $-1 $354 $148 $150 $244 forward $91 $-1 #
coedge $-1 $148 $354 $350 $355 forward $91 $-1 #
coedge $-1 $352 $151 $148 $241 forward $246 $-1 #
edge $-1 $248 -24.057016017471145 $356 -6.4216240012588379 $240 $357 forward 7 unknown #
coedge $-1 $358 $359 $149 $243 forward $235 $-1 #
edge $-1 $360 -55.222833921129698 $247 -44.755712157527235 $242 $361 forward 7 unknown #
edge $-1 $248 38.908769518043329 $360 54.256492111096605 $150 $362 forward 7 unknown #
coedge $-1 $151 $352 $358 $363 forward $246 $-1 #
loop $-1 $-1 $352 $234 #
vertex $-1 $243 $364 #
vertex $-1 $152 $365 #
straight-curve $-1 -39.296336026836137 29.061897967413781 12.815275145537655 0 -1 0 I I #
coedge $-1 $250 $250 $-1 $366 reversed $155 $-1 #
edge $-1 $367 0 $367 6.2831853071796004 $156 $368 forward 7 unknown #
vertex $-1 $159 $369 #
ellipse-curve $-1 -30.478640018729983 21.515939248645338 7.5817142637364272 0 0.68199836817093118 0.7313536940579346 3 0 0 1 I I #
face $-1 $-1 $175 $24 $-1 $370 reversed single #
loop $-1 $-1 $270 $160 #
plane-surface $-1 0 27.12824605554831 0 0 -1 0 0 0 -1 forward_v I I I I #
coedge $-1 $371 $268 $271 $372 forward $161 $-1 #
coedge $-1 $274 $163 $164 $262 reversed $100 $-1 #
coedge $-1 $268 $371 $163 $260 reversed $161 $-1 #
edge $-1 $275 -12.815275145537653 $373 12.815275145537653 $259 $374 forward 7 unknown #
coedge $-1 $165 $164 $371 $375 forward $65 $-1 #
edge $-1 $266 -51.815546128727071 $373 51.815546128727071 $258 $376 forward 7 unknown #
coedge $-1 $271 $270 $165 $264 reversed $255 $-1 #
edge $-1 $377 -51.815546128727071 $265 51.815546128727071 $263 $378 forward 7 unknown #
vertex $-1 $167 $379 #
vertex $-1 $277 $380 #
straight-curve $-1 51.815546128727071 0 -12.815275145537653 0 -1 0 I I #
coedge $-1 $257 $259 $168 $269 reversed $161 $-1 #
edge $-1 $272 -27.12824605554831 $275 27.12824605554831 $268 $381 forward 7 unknown #
coedge $-1 $263 $169 $174 $278 forward $255 $-1 #
coedge $-1 $169 $263 $257 $372 reversed $255 $-1 #
vertex $-1 $170 $382 #
straight-curve $-1 0 27.12824605554831 12.815275145537653 -1 0 0 I I #
coedge $-1 $171 $258 $173 $277 reversed $100 $-1 #
vertex $-1 $269 $383 #
straight-curve $-1 0 -27.12824605554831 12.815275145537653 1 0 0 I I #
edge $-1 $176 -12.815275145537653 $266 12.815275145537653 $173 $384 forward 7 unknown #
edge $-1 $177 -12.815275145537653 $265 12.815275145537653 $174 $385 forward 7 unknown #
point $-1 51.815546128727071 -27.12824605554831 12.815275145537653 #
point $-1 51.815546128727071 27.12824605554831 12.815275145537653 #
face $-1 $-1 $297 $25 $-1 $386 forward single #
plane-surface $-1 -58.075151179672538 -19.616094866836384 0 0 -1 0 0 0 -1 forward_v I I I I #
coedge $-1 $387 $388 $300 $389 forward $180 $-1 #
coedge $-1 $293 $182 $183 $289 reversed $108 $-1 #
coedge $-1 $182 $293 $296 $390 reversed $108 $-1 #
coedge $-1 $388 $387 $182 $287 reversed $180 $-1 #
edge $-1 $391 -12.815275145537653 $392 12.815275145537653 $286 $393 forward 7 unknown #
coedge $-1 $184 $183 $387 $394 forward $69 $-1 #
edge $-1 $291 -6.259605050945467 $392 6.2596050509454741 $284 $395 forward 7 unknown #
edge $-1 $396 -6.2596050509454741 $192 6.259605050945467 $189 $397 forward 7 unknown #
vertex $-1 $289 $398 #
straight-curve $-1 -51.815546128727071 0 -12.815275145537653 0 -1 0 I I #
coedge $-1 $285 $284 $186 $294 reversed $108 $-1 #
edge $-1 $298 -12.815275145537653 $291 12.815275145537653 $293 $399 forward 7 unknown #
coedge $-1 $400 $187 $190 $301 forward $297 $-1 #
coedge $-1 $187 $400 $285 $390 forward $297 $-1 #
loop $-1 $-1 $187 $281 #
vertex $-1 $188 $401 #
straight-curve $-1 -51.815546128727071 0 12.815275145537653 0 1 0 I I #
coedge $-1 $190 $189 $283 $389 reversed $191 $-1 #
edge $-1 $193 -6.259605050945467 $402 6.2596050509454741 $190 $403 forward 7 unknown #
point $-1 -51.815546128727071 -19.616094866836384 -12.815275145537653 #
point $-1 -51.815546128727071 -19.616094866836384 12.815275145537653 #
loop $-1 $-1 $203 $195 #
plane-surface $-1 0 -27.12824605554831 0 0 1 0 0 0 1 forward_v I I I I #
coedge $-1 $307 $198 $200 $311 reversed $116 $-1 #
coedge $-1 $198 $306 $404 $405 reversed $116 $-1 #
coedge $-1 $206 $201 $198 $309 forward $196 $-1 #
edge $-1 $312 -32.982075585469417 $406 -22.429980233301855 $308 $407 forward 7 unknown #
coedge $-1 $200 $199 $315 $408 reversed $73 $-1 #
edge $-1 $409 -2.9524203284164893e-014 $312 14.669138928226888 $306 $410 forward 7 unknown #
vertex $-1 $202 $411 #
straight-curve $-1 -15.273139042743606 -16.576150703380751 12.815275145537653 -1 0 0 I I #
coedge $-1 $404 $203 $206 $319 reversed $304 $-1 #
coedge $-1 $203 $404 $310 $408 forward $304 $-1 #
vertex $-1 $204 $412 #
straight-curve $-1 -21.796220144138289 -27.12824605554831 38.585601639287972 0 0 1 I I #
straight-curve $-1 -21.796220144138289 -27.128246055548288 2.6252348819083835 0 -0.71933979245794832 -0.69465837861970381 I I #
edge $-1 $406 -39.296336026836137 $207 -21.796220144138289 $314 $413 forward 7 unknown #
point $-1 -21.796220144138289 -27.12824605554831 12.815275145537653 #
point $-1 -21.796220144138289 -16.576150703380748 12.815275145537653 #
edge $-1 $414 1 $414 0 $210 $-1 forward 7 unknown #
vertex $-1 $211 $415 #
ellipse-curve $-1 -30.546278085487213 -15.031627026585031 0.657346780795806 0 -0.69465837861970381 0.71933979245794832 3 0 0 1 I I #
point $-1 -27.546278085487213 -21.852198379464539 7.7202550137230173 #
plane-surface $-1 0 0 12.815275145537653 0 0 1 1 0 0 forward_v I I I I #
coedge $-1 $337 $336 $329 $416 forward $215 $-1 #
coedge $-1 $329 $217 $219 $333 reversed $131 $-1 #
coedge $-1 $217 $328 $327 $416 reversed $131 $-1 #
coedge $-1 $225 $220 $217 $331 forward $226 $-1 #
edge $-1 $334 -32.982075585469417 $417 -22.429980233301855 $330 $418 forward 7 unknown #
coedge $-1 $219 $218 $337 $419 reversed $82 $-1 #
edge $-1 $420 -2.9524203284164893e-014 $334 14.669138928226888 $328 $421 forward 7 unknown #
vertex $-1 $221 $422 #
straight-curve $-1 7.5048314961471938 -16.576150703380751 12.815275145537653 -1 0 0 I I #
coedge $-1 $327 $222 $225 $341 reversed $215 $-1 #
coedge $-1 $222 $327 $332 $419 forward $215 $-1 #
vertex $-1 $223 $423 #
straight-curve $-1 23.759720933643312 -27.12824605554831 38.585601639287972 0 0 1 I I #
straight-curve $-1 23.759720933643312 -27.128246055548288 2.6252348819083835 0 -0.71933979245794832 -0.69465837861970381 I I #
edge $-1 $417 6.2596050509454635 $227 23.759720933643312 $336 $424 forward 7 unknown #
point $-1 23.759720933643312 -27.12824605554831 12.815275145537653 #
point $-1 23.759720933643312 -16.576150703380748 12.815275145537653 #
edge $-1 $425 1 $425 0 $230 $-1 forward 7 unknown #
vertex $-1 $231 $426 #
ellipse-curve $-1 15.009662992294388 -15.031627026585031 0.657346780795806 0 -0.69465837861970381 0.71933979245794832 3 0 0 1 I I #
point $-1 18.009662992294388 -21.852198379464539 7.7202550137230173 #
plane-surface $-1 0 0 12.815275145537653 0 0 1 1 0 0 forward_v I I I I #
coedge $-1 $359 $358 $351 $427 forward $235 $-1 #
coedge $-1 $351 $237 $239 $355 reversed $146 $-1 #
coedge $-1 $237 $350 $349 $427 reversed $146 $-1 #
coedge $-1 $245 $240 $237 $353 forward $246 $-1 #
edge $-1 $356 -13.158265525671411 $428 -1.9336519118654714 $352 $429 forward 7 unknown #
coedge $-1 $239 $238 $359 $430 reversed $91 $-1 #
edge $-1 $431 -54.256492111096605 $356 -38.908769518043329 $350 $432 forward 7 unknown #
vertex $-1 $241 $433 #
straight-curve $-1 -15.239320009364992 15.903632441742376 12.815275145537655 1 0 0 I I #
coedge $-1 $349 $242 $245 $363 reversed $235 $-1 #
coedge $-1 $242 $349 $354 $430 forward $235 $-1 #
vertex $-1 $243 $434 #
straight-curve $-1 -39.296336026836137 27.12824605554831 57.570987303064889 0 0 1 I I #
straight-curve $-1 -39.296336026836137 -12.55243987652738 39.350992464382074 0 0.7313536940579346 -0.68199836817093118 I I #
edge $-1 $428 21.66094401062383 $247 39.296336026836137 $358 $435 forward 7 unknown #
point $-1 -39.296336026836137 27.12824605554831 12.815275145537653 #
point $-1 -39.296336026836137 15.903632441742371 12.815275145537655 #
edge $-1 $436 1 $436 0 $250 $-1 forward 7 unknown #
vertex $-1 $251 $437 #
ellipse-curve $-1 -30.478640018729983 16.70132257566129 2.4186701076288859 0 0.68199836817093118 0.7313536940579346 3 0 0 1 I I #
point $-1 -27.478640018729983 21.515939248645328 7.5817142637364165 #
plane-surface $-1 51.815546128727071 0 0 -1 0 0 0 0 1 forward_v I I I I #
coedge $-1 $259 $257 $261 $375 reversed $161 $-1 #
edge $-1 $272 -12.815275145537653 $377 12.815275145537653 $271 $438 forward 7 unknown #
vertex $-1 $375 $439 #
straight-curve $-1 -51.815546128727071 -27.12824605554831 0 0 0 -1 I I #
edge $-1 $373 -27.12824605554831 $377 27.12824605554831 $371 $440 forward 7 unknown #
straight-curve $-1 0 -27.12824605554831 -12.815275145537653 -1 0 0 I I #
vertex $-1 $264 $441 #
straight-curve $-1 0 27.12824605554831 -12.815275145537653 1 0 0 I I #
point $-1 51.815546128727071 27.12824605554831 -12.815275145537653 #
point $-1 51.815546128727071 -27.12824605554831 -12.815275145537653 #
straight-curve $-1 -51.815546128727071 0 12.815275145537653 0 -1 0 I I #
point $-1 -51.815546128727071 27.12824605554831 12.815275145537653 #
point $-1 -51.815546128727071 -27.12824605554831 12.815275145537653 #
straight-curve $-1 51.815546128727071 -27.12824605554831 0 0 0 -1 I I #
straight-curve $-1 51.815546128727071 27.12824605554831 0 0 0 -1 I I #
plane-surface $-1 0 0 12.815275145537653 0 0 1 1 0 0 forward_v I I I I #
coedge $-1 $286 $283 $288 $394 reversed $180 $-1 #
coedge $-1 $283 $286 $400 $442 reversed $180 $-1 #
edge $-1 $402 -12.815275145537653 $396 12.815275145537653 $300 $443 forward 7 unknown #
edge $-1 $391 -6.2596050509454741 $298 6.259605050945467 $285 $444 forward 7 unknown #
vertex $-1 $442 $445 #
vertex $-1 $394 $446 #
straight-curve $-1 -64.334756230618012 -25.437977332776029 0 0 0 -1 I I #
edge $-1 $392 -2.9109412329698223 $396 2.9109412329698223 $387 $447 forward 7 unknown #
straight-curve $-1 -58.075151179672538 -25.437977332776029 -12.815275145537653 -1 0 0 I I #
vertex $-1 $290 $448 #
straight-curve $-1 -58.075151179672538 -19.616094866836384 -12.815275145537653 1 0 0 I I #
point $-1 -51.815546128727071 -25.437977332776029 -12.815275145537653 #
straight-curve $-1 -51.815546128727071 -25.437977332776029 0 0 0 -1 I I #
coedge $-1 $296 $295 $388 $442 forward $297 $-1 #
point $-1 -51.815546128727071 -25.437977332776029 12.815275145537653 #
vertex $-1 $301 $449 #
straight-curve $-1 -58.075151179672538 -19.616094866836384 12.815275145537653 -1 0 0 I I #
coedge $-1 $315 $314 $307 $405 forward $304 $-1 #
edge $-1 $406 25.770326493750318 $409 35.96036675737961 $404 $450 forward 7 unknown #
vertex $-1 $319 $451 #
straight-curve $-1 -39.296336026836137 -49.558226288850165 12.815275145537655 0 -1 0 I I #
edge $-1 $409 -24.023196984092529 $316 -6.5230811013946823 $315 $452 forward 7 unknown #
vertex $-1 $408 $453 #
straight-curve $-1 -39.296336026836137 -27.128246055548288 2.6252348819083835 0 0.71933979245794832 0.69465837861970381 I I #
point $-1 -39.296336026836137 -16.576150703380748 12.815275145537653 #
point $-1 -21.796220144138289 -27.12824605554831 2.6252348819083631 #
straight-curve $-1 0 -27.12824605554831 12.815275145537653 1 0 0 I I #
vertex $-1 $322 $454 #
point $-1 -27.546278085487213 -15.031627026585031 0.657346780795806 #
edge $-1 $417 25.770326493750318 $420 35.96036675737961 $327 $455 forward 7 unknown #
vertex $-1 $341 $456 #
straight-curve $-1 6.2596050509454635 -49.558226288850165 12.815275145537655 0 -1 0 I I #
edge $-1 $420 -1.2452264452017303 $338 16.254889437496118 $337 $457 forward 7 unknown #
vertex $-1 $419 $458 #
straight-curve $-1 6.2596050509454635 -27.128246055548288 2.6252348819083835 0 0.71933979245794832 0.69465837861970381 I I #
point $-1 6.2596050509454635 -16.576150703380748 12.815275145537653 #
point $-1 23.759720933643312 -27.12824605554831 2.6252348819083631 #
straight-curve $-1 0 -27.12824605554831 12.815275145537653 1 0 0 I I #
vertex $-1 $344 $459 #
point $-1 18.009662992294388 -15.031627026585031 0.657346780795806 #
edge $-1 $428 44.755712157527235 $431 55.222833921129698 $349 $460 forward 7 unknown #
vertex $-1 $363 $461 #
straight-curve $-1 -21.66094401062383 29.061897967413781 12.815275145537655 0 1 0 I I #
edge $-1 $431 6.4216240012588379 $360 24.057016017471145 $359 $462 forward 7 unknown #
vertex $-1 $430 $463 #
straight-curve $-1 -21.66094401062383 -12.55243987652738 39.350992464382074 0 -0.7313536940579346 0.68199836817093118 I I #
point $-1 -21.66094401062383 15.903632441742371 12.815275145537655 #
point $-1 -39.296336026836137 27.12824605554831 2.348153381935191 #
straight-curve $-1 0 27.12824605554831 12.815275145537653 -1 0 0 I I #
vertex $-1 $366 $464 #
point $-1 -27.478640018729983 16.70132257566129 2.4186701076288859 #
straight-curve $-1 -51.815546128727071 27.12824605554831 0 0 0 -1 I I #
point $-1 -51.815546128727071 -27.12824605554831 -12.815275145537653 #
straight-curve $-1 -51.815546128727071 0 -12.815275145537653 0 1 0 I I #
point $-1 -51.815546128727071 27.12824605554831 -12.815275145537653 #
edge $-1 $402 -2.9109412329698223 $391 2.9109412329698223 $388 $465 forward 7 unknown #
straight-curve $-1 -64.334756230618012 -19.616094866836384 0 0 0 -1 I I #
straight-curve $-1 -58.075151179672538 -25.437977332776029 12.815275145537653 1 0 0 I I #
point $-1 -64.334756230618012 -25.437977332776029 12.815275145537653 #
point $-1 -64.334756230618012 -25.437977332776029 -12.815275145537653 #
straight-curve $-1 -64.334756230618012 -22.527036099806207 -12.815275145537653 0 1 0 I I #
point $-1 -64.334756230618012 -19.616094866836384 -12.815275145537653 #
point $-1 -64.334756230618012 -19.616094866836384 12.815275145537653 #
straight-curve $-1 -39.296336026836137 -27.12824605554831 38.585601639287972 0 0 -1 I I #
point $-1 -39.296336026836137 -27.12824605554831 12.815275145537653 #
straight-curve $-1 -15.273139042743606 -27.12824605554831 2.625234881908364 1 0 0 I I #
point $-1 -39.296336026836137 -27.12824605554831 2.6252348819083631 #
point $-1 -30.546278085487213 -12.947651890725918 -1.500672596578039 #
straight-curve $-1 6.2596050509454635 -27.12824605554831 38.585601639287972 0 0 -1 I I #
point $-1 6.2596050509454635 -27.12824605554831 12.815275145537653 #
straight-curve $-1 7.5048314961471938 -27.12824605554831 2.625234881908364 1 0 0 I I #
point $-1 6.2596050509454635 -27.12824605554831 2.6252348819083631 #
point $-1 15.009662992294388 -12.947651890725918 -1.500672596578039 #
straight-curve $-1 -21.66094401062383 27.12824605554831 57.570987303064889 0 0 -1 I I #
point $-1 -21.66094401062383 27.12824605554831 12.815275145537653 #
straight-curve $-1 -15.239320009364992 27.128246055548306 2.348153381935191 -1 0 0 I I #
point $-1 -21.66094401062383 27.12824605554831 2.348153381935191 #
point $-1 -30.478640018729983 14.655327471148498 0.22460902545508232 #
straight-curve $-1 -64.334756230618012 -22.527036099806207 12.815275145537653 0 -1 0 I I #
End-of-ACIS-data 