500 0 10 0           
7 Unknown 11 ACIS 5.0 NT 24 Fri Mar 26 15:52:03 1999 
-1 9.9999999999999995e-007 1e-010 
body $-1 $10 $-1 $11 #
body $-1 $12 $-1 $13 #
body $-1 $14 $-1 $15 #
body $-1 $16 $-1 $17 #
body $-1 $18 $-1 $19 #
body $-1 $20 $-1 $21 #
body $-1 $22 $-1 $23 #
body $-1 $24 $-1 $25 #
body $-1 $26 $-1 $27 #
body $-1 $28 $-1 $29 #
lump $-1 $-1 $30 $0 #
transform $-1 1 0 0 0 1 0 0 0 1 48.918729209265422 29.163278053912581 7.7278637252880085 1 rotate no_reflect no_shear #
lump $-1 $-1 $31 $1 #
transform $-1 1 0 0 0 1 0 0 0 1 48.918729209265422 29.163278053912581 7.7278637252880085 1 rotate no_reflect no_shear #
lump $-1 $-1 $32 $2 #
transform $-1 1 0 0 0 1 0 0 0 1 48.918729209265422 29.163278053912581 7.7278637252880085 1 rotate no_reflect no_shear #
lump $-1 $-1 $33 $3 #
transform $-1 1 0 0 0 1 0 0 0 1 48.918729209265422 29.163278053912581 7.7278637252880085 1 rotate no_reflect no_shear #
lump $-1 $-1 $34 $4 #
transform $-1 1 0 0 0 1 0 0 0 1 48.918729209265422 29.163278053912581 7.7278637252880085 1 rotate no_reflect no_shear #
lump $-1 $-1 $35 $5 #
transform $-1 1 0 0 0 1 0 0 0 1 48.918729209265422 29.163278053912581 7.7278637252880085 1 rotate no_reflect no_shear #
lump $-1 $-1 $36 $6 #
transform $-1 1 0 0 0 1 0 0 0 1 48.918729209265422 29.163278053912581 7.7278637252880085 1 rotate no_reflect no_shear #
lump $-1 $-1 $37 $7 #
transform $-1 1 0 0 0 1 0 0 0 1 48.918729209265422 29.163278053912581 7.7278637252880085 1 rotate no_reflect no_shear #
lump $-1 $-1 $38 $8 #
transform $-1 1 0 0 0 1 0 0 0 1 48.918729209265422 29.163278053912581 7.7278637252880085 1 rotate no_reflect no_shear #
lump $-1 $-1 $39 $9 #
transform $-1 1 0 0 0 1 0 0 0 1 48.918729209265422 29.163278053912581 7.7278637252880085 1 rotate no_reflect no_shear #
shell $-1 $-1 $-1 $40 $-1 $10 #
shell $-1 $-1 $-1 $41 $-1 $12 #
shell $-1 $-1 $-1 $42 $-1 $14 #
shell $-1 $-1 $-1 $43 $-1 $16 #
shell $-1 $-1 $-1 $44 $-1 $18 #
shell $-1 $-1 $-1 $45 $-1 $20 #
shell $-1 $-1 $-1 $46 $-1 $22 #
shell $-1 $-1 $-1 $47 $-1 $24 #
shell $-1 $-1 $-1 $48 $-1 $26 #
shell $-1 $-1 $-1 $49 $-1 $28 #
face $-1 $50 $51 $30 $-1 $52 forward single #
face $-1 $53 $54 $31 $-1 $55 forward single #
face $-1 $56 $57 $32 $-1 $58 forward single #
face $-1 $59 $60 $33 $-1 $61 reversed single #
face $-1 $62 $63 $34 $-1 $64 forward single #
face $-1 $65 $66 $35 $-1 $67 forward single #
face $-1 $68 $69 $36 $-1 $70 forward single #
face $-1 $71 $72 $37 $-1 $73 reversed single #
face $-1 $74 $75 $38 $-1 $76 forward single #
face $-1 $77 $78 $39 $-1 $79 forward single #
face $-1 $80 $81 $30 $-1 $82 reversed single #
loop $-1 $-1 $83 $40 #
plane-surface $-1 0 0 7.7278637252880085 0 0 1 1 0 0 forward_v I I I I #
face $-1 $84 $85 $31 $-1 $86 forward single #
loop $-1 $-1 $87 $41 #
plane-surface $-1 0 -29.163278053912581 0 0 1 0 0 0 1 forward_v I I I I #
face $-1 $88 $89 $32 $-1 $90 reversed single #
loop $-1 $-1 $91 $42 #
plane-surface $-1 0 29.163278053912581 0 0 -1 0 0 0 -1 forward_v I I I I #
face $-1 $92 $93 $33 $-1 $94 reversed single #
loop $-1 $-1 $95 $43 #
plane-surface $-1 44.08992956506269 8.9686469694935127 139.7870093293931 0 -1 0 -0.68199836817093118 0 -0.7313536940579346 forward_v I I I I #
face $-1 $96 $97 $34 $-1 $98 forward single #
loop $-1 $99 $100 $44 #
cone-surface $-1 45.112445011127164 3.3214040755211336 4.1125168495714792 -0.68199836817093118 0 -0.7313536940579346 0.3656768470289673 0 -0.34099918408546559 1 I I 0 1 0.5 forward I I I I #
face $-1 $101 $102 $35 $-1 $103 forward single #
loop $-1 $104 $105 $45 #
cone-surface $-1 45.112445011127164 5.4391201607607762 4.1125168495714792 -0.68199836817093118 0 -0.7313536940579346 0.3656768470289673 0 -0.34099918408546559 1 I I 0 1 0.5 forward I I I I #
face $-1 $106 $107 $36 $-1 $108 forward single #
loop $-1 $109 $110 $46 #
cone-surface $-1 45.112445011127164 7.5568362460004188 4.1125168495714792 -0.68199836817093118 0 -0.7313536940579346 0.3656768470289673 0 -0.34099918408546559 1 I I 0 1 0.5 forward I I I I #
face $-1 $111 $112 $37 $-1 $113 reversed single #
loop $-1 $-1 $114 $47 #
plane-surface $-1 -109.15348395670463 -14.748968382882705 80.032062102252951 0 1 0 -0.61566148304635926 0 0.78801074757464917 forward_v I I I I #
face $-1 $115 $116 $38 $-1 $117 forward single #
loop $-1 $118 $119 $48 #
cone-surface $-1 -45.350945863969386 -12.144140870195898 4.6908034599566015 0.61566148304635926 0 -0.78801074757464917 0.78801074757464917 0 0.61566148304635926 1 I I 0 1 1 forward I I I I #
face $-1 $120 $121 $39 $-1 $122 forward single #
loop $-1 $123 $124 $49 #
cone-surface $-1 -45.350945863969386 -8.236899601165689 4.6908034599566015 0.61566148304635926 0 -0.78801074757464917 0.78801074757464917 0 0.61566148304635926 1 I I 0 1 1 forward I I I I #
face $-1 $125 $126 $30 $-1 $127 reversed single #
loop $-1 $-1 $128 $50 #
plane-surface $-1 0 0 -7.7278637252880085 0 0 1 1 0 0 forward_v I I I I #
coedge $-1 $129 $130 $131 $132 forward $51 $-1 #
face $-1 $133 $134 $31 $-1 $135 reversed single #
loop $-1 $-1 $136 $53 #
plane-surface $-1 0 0 7.7278637252880085 0 0 1 1 0 0 forward_v I I I I #
coedge $-1 $137 $138 $139 $140 forward $54 $-1 #
face $-1 $141 $142 $32 $-1 $143 reversed single #
loop $-1 $-1 $144 $56 #
plane-surface $-1 48.918729209265422 0 0 -1 0 0 0 0 1 forward_v I I I I #
coedge $-1 $145 $146 $147 $148 forward $57 $-1 #
face $-1 $149 $150 $33 $-1 $151 reversed single #
loop $-1 $-1 $152 $59 #
plane-surface $-1 -22.635057422366685 5.4391201607607762 68.233222697760993 0.68199836817093118 0 0.7313536940579346 0.7313536940579346 0 -0.68199836817093118 forward_v I I I I #
coedge $-1 $153 $154 $155 $156 reversed $60 $-1 #
face $-1 $-1 $157 $34 $-1 $158 forward single #
loop $-1 $159 $160 $62 #
cone-surface $-1 44.470528382435134 3.3214040755211336 3.4241455578186706 -0.68199836817093118 0 -0.7313536940579346 0.18283842351448365 0 -0.17049959204273279 1 I I -0.70710678118654746 0.70710678118654746 0.25 forward I I I I #
loop $-1 $-1 $161 $44 #
coedge $-1 $100 $100 $162 $163 reversed $63 $-1 #
face $-1 $-1 $164 $35 $-1 $165 forward single #
loop $-1 $166 $167 $65 #
cone-surface $-1 44.470528382435134 5.4391201607607762 3.4241455578186706 -0.68199836817093118 0 -0.7313536940579346 0.18283842351448365 0 -0.17049959204273279 1 I I -0.70710678118654746 0.70710678118654746 0.25 forward I I I I #
loop $-1 $-1 $168 $45 #
coedge $-1 $105 $105 $169 $170 reversed $66 $-1 #
face $-1 $-1 $171 $36 $-1 $172 forward single #
loop $-1 $173 $174 $68 #
cone-surface $-1 44.470528382435134 7.5568362460004188 3.4241455578186706 -0.68199836817093118 0 -0.7313536940579346 0.18283842351448365 0 -0.17049959204273279 1 I I -0.70710678118654746 0.70710678118654746 0.25 forward I I I I #
loop $-1 $-1 $175 $46 #
coedge $-1 $110 $110 $176 $177 reversed $69 $-1 #
face $-1 $178 $179 $37 $-1 $180 reversed single #
loop $-1 $-1 $181 $71 #
plane-surface $-1 -48.918729209265429 -10.190520235680793 2.9350933530628112 -0.61566148304635926 0 0.78801074757464917 0.78801074757464917 0 0.61566148304635926 forward_v I I I I #
coedge $-1 $182 $183 $184 $185 reversed $72 $-1 #
face $-1 $-1 $186 $38 $-1 $187 forward single #
loop $-1 $188 $189 $74 #
cone-surface $-1 -44.542564881682736 -12.144140870195898 3.6561230069504767 0.61566148304635926 0 -0.78801074757464917 0.39400537378732459 0 0.30783074152317963 1 I I -0.70710678118654746 0.70710678118654746 0.5 forward I I I I #
loop $-1 $-1 $190 $48 #
coedge $-1 $119 $119 $191 $192 reversed $75 $-1 #
face $-1 $-1 $193 $39 $-1 $194 forward single #
loop $-1 $195 $196 $77 #
cone-surface $-1 -44.542564881682736 -8.236899601165689 3.6561230069504767 0.61566148304635926 0 -0.78801074757464917 0.39400537378732459 0 0.30783074152317963 1 I I -0.70710678118654746 0.70710678118654746 0.5 forward I I I I #
loop $-1 $-1 $197 $49 #
coedge $-1 $124 $124 $198 $199 reversed $78 $-1 #
face $-1 $200 $201 $30 $-1 $202 reversed single #
loop $-1 $-1 $203 $80 #
plane-surface $-1 0 -29.163278053912581 0 0 1 0 0 0 1 forward_v I I I I #
coedge $-1 $204 $205 $206 $207 forward $81 $-1 #
coedge $-1 $208 $83 $209 $210 forward $51 $-1 #
coedge $-1 $83 $208 $211 $212 forward $51 $-1 #
coedge $-1 $213 $214 $83 $132 reversed $215 $-1 #
edge $-1 $216 -29.163278053912581 $217 29.163278053912581 $131 $218 forward 7 unknown #
face $-1 $219 $220 $31 $-1 $221 reversed single #
loop $-1 $-1 $222 $84 #
plane-surface $-1 -48.918729209265422 0 0 1 0 0 0 0 -1 forward_v I I I I #
coedge $-1 $223 $224 $225 $226 forward $85 $-1 #
coedge $-1 $225 $87 $222 $227 reversed $54 $-1 #
coedge $-1 $87 $225 $228 $229 reversed $54 $-1 #
coedge $-1 $230 $231 $87 $140 reversed $220 $-1 #
edge $-1 $232 -48.918729209265422 $233 48.918729209265422 $139 $234 forward 7 unknown #
face $-1 $235 $236 $32 $-1 $237 reversed single #
loop $-1 $-1 $238 $88 #
plane-surface $-1 0 34.186540414794479 4.7278637252880085 0 0 1 1 0 0 forward_v I I I I #
coedge $-1 $239 $240 $145 $241 forward $89 $-1 #
coedge $-1 $242 $91 $144 $241 reversed $57 $-1 #
coedge $-1 $91 $242 $243 $244 reversed $57 $-1 #
coedge $-1 $245 $238 $91 $148 reversed $142 $-1 #
edge $-1 $246 -48.918729209265422 $247 48.918729209265422 $147 $248 forward 7 unknown #
face $-1 $249 $250 $33 $-1 $251 forward single #
loop $-1 $-1 $252 $92 #
plane-surface $-1 44.08992956506269 1.9095933520280397 139.7870093293931 0 1 0 0.68199836817093118 0 0.7313536940579346 forward_v I I I I #
coedge $-1 $253 $254 $255 $256 reversed $93 $-1 #
coedge $-1 $154 $95 $257 $258 reversed $60 $-1 #
coedge $-1 $95 $153 $253 $259 reversed $60 $-1 #
coedge $-1 $255 $260 $95 $156 forward $250 $-1 #
edge $-1 $261 -26.873764426734077 $262 -20.204030103756189 $155 $263 forward 7 unknown #
loop $-1 $-1 $162 $96 #
plane-surface $-1 -22.635057422366685 5.4391201607607762 68.233222697760993 0.68199836817093118 0 0.7313536940579346 0.7313536940579346 0 -0.68199836817093118 forward_v I I I I #
loop $-1 $-1 $264 $62 #
coedge $-1 $160 $160 $161 $265 reversed $97 $-1 #
coedge $-1 $161 $161 $160 $265 forward $99 $-1 #
coedge $-1 $162 $162 $100 $163 forward $157 $-1 #
edge $-1 $266 0 $266 6.2831853071796004 $162 $267 forward 7 unknown #
loop $-1 $-1 $169 $101 #
plane-surface $-1 -22.635057422366685 5.4391201607607762 68.233222697760993 0.68199836817093118 0 0.7313536940579346 0.7313536940579346 0 -0.68199836817093118 forward_v I I I I #
loop $-1 $-1 $268 $65 #
coedge $-1 $167 $167 $168 $269 reversed $102 $-1 #
coedge $-1 $168 $168 $167 $269 forward $104 $-1 #
coedge $-1 $169 $169 $105 $170 forward $164 $-1 #
edge $-1 $270 0 $270 6.2831853071796004 $169 $271 forward 7 unknown #
loop $-1 $-1 $176 $106 #
plane-surface $-1 -22.635057422366685 5.4391201607607762 68.233222697760993 0.68199836817093118 0 0.7313536940579346 0.7313536940579346 0 -0.68199836817093118 forward_v I I I I #
loop $-1 $-1 $272 $68 #
coedge $-1 $174 $174 $175 $273 reversed $107 $-1 #
coedge $-1 $175 $175 $174 $273 forward $109 $-1 #
coedge $-1 $176 $176 $110 $177 forward $171 $-1 #
edge $-1 $274 0 $274 6.2831853071796004 $176 $275 forward 7 unknown #
face $-1 $276 $277 $37 $-1 $278 reversed single #
loop $-1 $-1 $279 $111 #
plane-surface $-1 -109.15348395670463 -5.6320720884788829 80.032062102252951 0 -1 0 0.61566148304635926 0 -0.78801074757464917 forward_v I I I I #
coedge $-1 $280 $281 $282 $283 reversed $112 $-1 #
coedge $-1 $183 $114 $284 $285 reversed $72 $-1 #
coedge $-1 $114 $182 $280 $286 reversed $72 $-1 #
coedge $-1 $282 $287 $114 $185 forward $288 $-1 #
edge $-1 $289 5.6580127690868949 $290 11.792478978152005 $184 $291 forward 7 unknown #
loop $-1 $-1 $191 $115 #
plane-surface $-1 -48.918729209265429 -10.190520235680793 2.9350933530628112 -0.61566148304635926 0 0.78801074757464917 0.78801074757464917 0 0.61566148304635926 forward_v I I I I #
loop $-1 $-1 $292 $74 #
coedge $-1 $189 $189 $190 $293 reversed $116 $-1 #
coedge $-1 $190 $190 $189 $293 forward $118 $-1 #
coedge $-1 $191 $191 $119 $192 forward $186 $-1 #
edge $-1 $294 0 $294 6.2831853071796004 $191 $295 forward 7 unknown #
loop $-1 $-1 $198 $120 #
plane-surface $-1 -48.918729209265429 -10.190520235680793 2.9350933530628112 -0.61566148304635926 0 0.78801074757464917 0.78801074757464917 0 0.61566148304635926 forward_v I I I I #
loop $-1 $-1 $296 $77 #
coedge $-1 $196 $196 $197 $297 reversed $121 $-1 #
coedge $-1 $197 $197 $196 $297 forward $123 $-1 #
coedge $-1 $198 $198 $124 $199 forward $193 $-1 #
edge $-1 $298 0 $298 6.2831853071796004 $198 $299 forward 7 unknown #
face $-1 $300 $301 $30 $-1 $302 reversed single #
loop $-1 $-1 $303 $125 #
plane-surface $-1 -48.918729209265422 0 0 1 0 0 0 0 -1 forward_v I I I I #
coedge $-1 $304 $211 $305 $306 forward $126 $-1 #
coedge $-1 $307 $128 $304 $308 forward $81 $-1 #
coedge $-1 $128 $307 $309 $310 forward $81 $-1 #
coedge $-1 $214 $213 $128 $207 reversed $215 $-1 #
edge $-1 $311 -29.163278053912581 $312 29.163278053912581 $206 $313 forward 7 unknown #
coedge $-1 $130 $129 $314 $315 forward $51 $-1 #
coedge $-1 $316 $317 $129 $210 reversed $301 $-1 #
edge $-1 $217 -48.918729209265422 $318 48.918729209265422 $209 $319 forward 7 unknown #
coedge $-1 $203 $320 $130 $212 reversed $126 $-1 #
edge $-1 $321 -48.918729209265422 $216 48.918729209265422 $211 $322 forward 7 unknown #
coedge $-1 $206 $131 $320 $323 forward $215 $-1 #
coedge $-1 $131 $206 $316 $324 reversed $215 $-1 #
loop $-1 $-1 $213 $300 #
vertex $-1 $132 $325 #
vertex $-1 $132 $326 #
straight-curve $-1 48.918729209265422 0 7.7278637252880085 0 1 0 I I #
face $-1 $327 $328 $31 $-1 $329 reversed single #
loop $-1 $-1 $230 $133 #
plane-surface $-1 0 -34.186540414794479 4.7278637252880085 0 0 1 1 0 0 forward_v I I I I #
coedge $-1 $330 $331 $137 $227 forward $134 $-1 #
coedge $-1 $332 $136 $331 $333 forward $85 $-1 #
coedge $-1 $136 $332 $334 $335 forward $85 $-1 #
coedge $-1 $138 $137 $136 $226 reversed $54 $-1 #
edge $-1 $336 -48.918729209265422 $337 48.918729209265422 $136 $338 forward 7 unknown #
edge $-1 $337 -7.7278637252880085 $233 -4.7278637252880085 $222 $339 forward 7 unknown #
coedge $-1 $334 $340 $138 $229 forward $341 $-1 #
edge $-1 $232 4.7278637252880085 $336 7.7278637252880085 $228 $342 forward 7 unknown #
coedge $-1 $343 $139 $340 $344 forward $220 $-1 #
coedge $-1 $139 $343 $330 $345 forward $220 $-1 #
vertex $-1 $229 $346 #
vertex $-1 $227 $347 #
straight-curve $-1 0 -29.163278053912581 4.7278637252880085 -1 0 0 I I #
face $-1 $348 $349 $32 $-1 $350 forward single #
loop $-1 $-1 $351 $141 #
plane-surface $-1 0 39.20980277567638 6.2278637252880085 0 -1 0 0 0 -1 forward_v I I I I #
coedge $-1 $147 $352 $239 $353 forward $142 $-1 #
coedge $-1 $354 $144 $238 $353 reversed $89 $-1 #
coedge $-1 $144 $354 $355 $356 reversed $89 $-1 #
edge $-1 $357 -7.7278637252880085 $247 -4.7278637252880085 $144 $358 forward 7 unknown #
coedge $-1 $146 $145 $359 $360 reversed $57 $-1 #
coedge $-1 $361 $362 $146 $244 forward $363 $-1 #
edge $-1 $246 4.7278637252880085 $364 7.7278637252880085 $243 $365 forward 7 unknown #
coedge $-1 $352 $147 $362 $366 forward $142 $-1 #
vertex $-1 $244 $367 #
vertex $-1 $241 $368 #
straight-curve $-1 0 29.163278053912581 4.7278637252880085 1 0 0 I I #
face $-1 $-1 $369 $33 $-1 $370 reversed single #
loop $-1 $-1 $155 $149 #
plane-surface $-1 0 0 7.7278637252880085 0 0 1 1 0 0 forward_v I I I I #
coedge $-1 $371 $372 $373 $374 reversed $150 $-1 #
coedge $-1 $375 $152 $154 $259 forward $93 $-1 #
coedge $-1 $152 $375 $371 $376 forward $93 $-1 #
coedge $-1 $373 $155 $152 $256 forward $250 $-1 #
edge $-1 $262 -6.2490868891131246 $377 0.8099667283523484 $255 $378 forward 7 unknown #
coedge $-1 $379 $380 $153 $258 forward $369 $-1 #
edge $-1 $381 -68.385268954364932 $261 -62.16564093940854 $257 $382 forward 7 unknown #
edge $-1 $262 88.717747426205506 $381 97.837458418530844 $154 $383 forward 7 unknown #
coedge $-1 $155 $373 $379 $384 forward $250 $-1 #
vertex $-1 $258 $385 #
vertex $-1 $156 $386 #
straight-curve $-1 22.044964782531345 8.9686469694935127 7.7278637252880031 -1 0 0 I I #
coedge $-1 $264 $264 $-1 $387 reversed $159 $-1 #
edge $-1 $388 0 $388 6.2831853071796004 $160 $389 forward 7 unknown #
vertex $-1 $163 $390 #
ellipse-curve $-1 45.583862047776478 3.3214040755211336 4.6180497178098205 0.68199836817093118 0 0.7313536940579346 0.3656768470289673 0 -0.34099918408546559 1 I I #
coedge $-1 $268 $268 $-1 $391 reversed $166 $-1 #
edge $-1 $392 0 $392 6.2831853071796004 $167 $393 forward 7 unknown #
vertex $-1 $170 $394 #
ellipse-curve $-1 45.583862047776478 5.4391201607607762 4.6180497178098205 0.68199836817093118 0 0.7313536940579346 0.3656768470289673 0 -0.34099918408546559 1 I I #
coedge $-1 $272 $272 $-1 $395 reversed $173 $-1 #
edge $-1 $396 0 $396 6.2831853071796004 $174 $397 forward 7 unknown #
vertex $-1 $177 $398 #
ellipse-curve $-1 45.583862047776478 7.5568362460004188 4.6180497178098205 0.68199836817093118 0 0.7313536940579346 0.3656768470289673 0 -0.34099918408546559 1 I I #
face $-1 $-1 $288 $37 $-1 $399 forward single #
loop $-1 $-1 $400 $178 #
plane-surface $-1 -48.918729209265422 0 0 1 0 0 0 0 -1 forward_v I I I I #
coedge $-1 $401 $402 $403 $404 reversed $179 $-1 #
coedge $-1 $405 $181 $183 $286 forward $112 $-1 #
coedge $-1 $181 $405 $401 $406 forward $112 $-1 #
coedge $-1 $403 $184 $181 $283 forward $288 $-1 #
edge $-1 $290 -9.6537082650423081 $407 -0.53681197063848618 $282 $408 forward 7 unknown #
coedge $-1 $409 $410 $182 $285 forward $277 $-1 #
edge $-1 $411 -37.080937698063657 $289 -32.288167325838465 $284 $412 forward 7 unknown #
edge $-1 $290 -7.7847494186416437 $411 -9.1534652039358102e-015 $183 $413 forward 7 unknown #
coedge $-1 $184 $403 $409 $414 forward $288 $-1 #
loop $-1 $-1 $403 $276 #
vertex $-1 $285 $415 #
vertex $-1 $185 $416 #
straight-curve $-1 -54.576741978352317 -14.748968382882705 7.7278637252880102 1 0 0 I I #
coedge $-1 $292 $292 $-1 $417 reversed $188 $-1 #
edge $-1 $418 0 $418 6.2831853071796004 $189 $419 forward 7 unknown #
vertex $-1 $192 $420 #
ellipse-curve $-1 -45.851496104732867 -12.144140870195898 5.3314785391754151 -0.61566148304635926 0 0.78801074757464917 0.78801074757464917 0 0.61566148304635926 1 I I #
coedge $-1 $296 $296 $-1 $421 reversed $195 $-1 #
edge $-1 $422 0 $422 6.2831853071796004 $196 $423 forward 7 unknown #
vertex $-1 $199 $424 #
ellipse-curve $-1 -45.851496104732867 -8.236899601165689 5.3314785391754151 -0.61566148304635926 0 0.78801074757464917 0.78801074757464917 0 0.61566148304635926 1 I I #
face $-1 $-1 $215 $30 $-1 $425 reversed single #
loop $-1 $-1 $316 $200 #
plane-surface $-1 0 29.163278053912581 0 0 -1 0 0 0 -1 forward_v I I I I #
coedge $-1 $426 $314 $317 $427 forward $201 $-1 #
coedge $-1 $320 $203 $204 $308 reversed $126 $-1 #
coedge $-1 $314 $426 $203 $306 reversed $201 $-1 #
edge $-1 $321 -7.7278637252880085 $428 7.7278637252880085 $305 $429 forward 7 unknown #
coedge $-1 $205 $204 $426 $430 forward $81 $-1 #
edge $-1 $312 -48.918729209265422 $428 48.918729209265422 $304 $431 forward 7 unknown #
coedge $-1 $317 $316 $205 $310 reversed $301 $-1 #
edge $-1 $432 -48.918729209265422 $311 48.918729209265422 $309 $433 forward 7 unknown #
vertex $-1 $207 $434 #
vertex $-1 $323 $435 #
straight-curve $-1 48.918729209265422 0 -7.7278637252880085 0 -1 0 I I #
coedge $-1 $303 $305 $208 $315 reversed $201 $-1 #
edge $-1 $318 -29.163278053912581 $321 29.163278053912581 $314 $436 forward 7 unknown #
coedge $-1 $309 $209 $214 $324 forward $301 $-1 #
coedge $-1 $209 $309 $303 $427 reversed $301 $-1 #
vertex $-1 $210 $437 #
straight-curve $-1 0 29.163278053912581 7.7278637252880085 -1 0 0 I I #
coedge $-1 $211 $304 $213 $323 reversed $126 $-1 #
vertex $-1 $315 $438 #
straight-curve $-1 0 -29.163278053912581 7.7278637252880085 1 0 0 I I #
edge $-1 $216 -7.7278637252880085 $312 7.7278637252880085 $213 $439 forward 7 unknown #
edge $-1 $217 -7.7278637252880085 $311 7.7278637252880085 $214 $440 forward 7 unknown #
point $-1 48.918729209265422 -29.163278053912581 7.7278637252880085 #
point $-1 48.918729209265422 29.163278053912581 7.7278637252880085 #
face $-1 $-1 $341 $31 $-1 $441 reversed single #
loop $-1 $-1 $442 $219 #
plane-surface $-1 0 -39.209802775676373 6.2278637252880085 0 1 0 0 0 1 forward_v I I I I #
coedge $-1 $443 $222 $231 $345 reversed $134 $-1 #
coedge $-1 $222 $443 $223 $333 reversed $134 $-1 #
coedge $-1 $224 $223 $444 $445 forward $85 $-1 #
edge $-1 $337 29.163278053912581 $446 39.209802775676373 $331 $447 forward 7 unknown #
coedge $-1 $448 $228 $224 $335 reversed $341 $-1 #
edge $-1 $449 -39.209802775676373 $336 -29.163278053912581 $334 $450 forward 7 unknown #
vertex $-1 $229 $451 #
vertex $-1 $333 $452 #
straight-curve $-1 0 -29.163278053912581 7.7278637252880085 -1 0 0 I I #
straight-curve $-1 -48.918729209265422 -29.163278053912581 0 0 0 -1 I I #
coedge $-1 $228 $448 $230 $344 reversed $341 $-1 #
loop $-1 $-1 $228 $327 #
straight-curve $-1 48.918729209265422 -29.163278053912581 0 0 0 1 I I #
coedge $-1 $231 $230 $453 $454 forward $220 $-1 #
edge $-1 $232 -5.0232623608818976 $455 5.023262360881894 $340 $456 forward 7 unknown #
edge $-1 $457 -5.023262360881894 $233 5.0232623608818976 $330 $458 forward 7 unknown #
point $-1 48.918729209265422 -29.163278053912581 4.7278637252880085 #
point $-1 -48.918729209265422 -29.163278053912581 4.7278637252880085 #
face $-1 $-1 $363 $32 $-1 $459 reversed single #
loop $-1 $-1 $359 $235 #
plane-surface $-1 0 0 7.7278637252880085 0 0 1 1 0 0 forward_v I I I I #
coedge $-1 $460 $461 $354 $462 forward $236 $-1 #
coedge $-1 $238 $245 $460 $463 forward $142 $-1 #
edge $-1 $464 -5.0232623608819011 $247 5.0232623608818976 $239 $465 forward 7 unknown #
coedge $-1 $240 $239 $351 $462 reversed $89 $-1 #
coedge $-1 $466 $359 $240 $356 forward $349 $-1 #
edge $-1 $357 29.163278053912581 $467 39.20980277567638 $240 $468 forward 7 unknown #
vertex $-1 $356 $469 #
straight-curve $-1 48.918729209265422 29.163278053912581 0 0 0 -1 I I #
coedge $-1 $355 $470 $242 $360 forward $349 $-1 #
edge $-1 $364 -48.918729209265422 $357 48.918729209265422 $359 $471 forward 7 unknown #
coedge $-1 $472 $243 $470 $473 reversed $363 $-1 #
coedge $-1 $243 $472 $245 $366 reversed $363 $-1 #
loop $-1 $-1 $243 $348 #
vertex $-1 $244 $474 #
straight-curve $-1 -48.918729209265422 29.163278053912581 0 0 0 1 I I #
edge $-1 $246 -5.0232623608818976 $475 5.0232623608819011 $362 $476 forward 7 unknown #
point $-1 -48.918729209265422 29.163278053912581 4.7278637252880085 #
point $-1 48.918729209265422 29.163278053912581 4.7278637252880085 #
loop $-1 $-1 $257 $249 #
plane-surface $-1 48.918729209265422 0 0 -1 0 0 0 0 1 forward_v I I I I #
coedge $-1 $372 $252 $254 $376 reversed $150 $-1 #
coedge $-1 $252 $371 $477 $478 reversed $150 $-1 #
coedge $-1 $260 $255 $252 $374 forward $250 $-1 #
edge $-1 $377 20.204030103756189 $479 26.873764426734077 $373 $480 forward 7 unknown #
coedge $-1 $254 $253 $380 $481 reversed $93 $-1 #
edge $-1 $482 -97.837458418530844 $377 -88.717747426205506 $371 $483 forward 7 unknown #
vertex $-1 $256 $484 #
straight-curve $-1 42.248994886287527 2.7195600803803881 7.7278637252880102 0 -1 0 I I #
coedge $-1 $477 $257 $260 $384 reversed $369 $-1 #
coedge $-1 $257 $477 $375 $481 forward $369 $-1 #
vertex $-1 $258 $485 #
straight-curve $-1 48.918729209265422 8.9686469694935127 69.89350466469655 0 0 1 I I #
straight-curve $-1 -22.635057422366685 8.9686469694935127 68.233222697760993 0.7313536940579346 0 -0.68199836817093118 I I #
edge $-1 $479 1.9095933520280397 $261 8.9686469694935127 $379 $486 forward 7 unknown #
point $-1 48.918729209265422 8.9686469694935127 7.7278637252880085 #
point $-1 42.248994886287534 8.9686469694935127 7.7278637252880102 #
edge $-1 $487 1 $487 0 $264 $-1 forward 7 unknown #
vertex $-1 $265 $488 #
ellipse-curve $-1 44.641027974477865 3.3214040755211336 3.6069839813331543 0.68199836817093118 0 0.7313536940579346 0.3656768470289673 0 -0.34099918408546559 1 I I #
point $-1 45.949538894805428 3.3214040755211336 4.2770505337243385 #
edge $-1 $489 1 $489 0 $268 $-1 forward 7 unknown #
vertex $-1 $269 $490 #
ellipse-curve $-1 44.641027974477865 5.4391201607607762 3.6069839813331543 0.68199836817093118 0 0.7313536940579346 0.3656768470289673 0 -0.34099918408546559 1 I I #
point $-1 45.949538894805428 5.4391201607607762 4.2770505337243385 #
edge $-1 $491 1 $491 0 $272 $-1 forward 7 unknown #
vertex $-1 $273 $492 #
ellipse-curve $-1 44.641027974477865 7.5568362460004188 3.6069839813331543 0.68199836817093118 0 0.7313536940579346 0.3656768470289673 0 -0.34099918408546559 1 I I #
point $-1 45.949538894805428 7.5568362460004188 4.2770505337243385 #
plane-surface $-1 0 0 7.7278637252880085 0 0 1 1 0 0 forward_v I I I I #
coedge $-1 $410 $409 $402 $493 forward $277 $-1 #
coedge $-1 $402 $279 $281 $406 reversed $179 $-1 #
coedge $-1 $279 $401 $400 $493 reversed $179 $-1 #
coedge $-1 $287 $282 $279 $404 forward $288 $-1 #
edge $-1 $407 -11.792478978152005 $494 -5.6580127690868949 $403 $495 forward 7 unknown #
coedge $-1 $281 $280 $410 $496 reversed $112 $-1 #
edge $-1 $497 9.1534652039358102e-015 $407 7.7847494186416437 $401 $498 forward 7 unknown #
vertex $-1 $283 $499 #
straight-curve $-1 -42.784263000200312 -5.0952601178403967 7.7278637252880076 0 1 0 I I #
coedge $-1 $400 $284 $287 $414 reversed $277 $-1 #
coedge $-1 $284 $400 $405 $496 forward $277 $-1 #
vertex $-1 $285 $500 #
straight-curve $-1 -48.918729209265422 -14.748968382882705 40.016031051126475 0 0 1 I I #
straight-curve $-1 -48.918729209265429 -14.748968382882705 2.9350933530628112 -0.78801074757464917 0 -0.61566148304635926 I I #
edge $-1 $494 5.6320720884788829 $289 14.748968382882705 $409 $501 forward 7 unknown #
point $-1 -48.918729209265422 -14.748968382882705 7.7278637252880085 #
point $-1 -42.784263000200312 -14.748968382882705 7.7278637252880085 #
edge $-1 $502 1 $502 0 $292 $-1 forward 7 unknown #
vertex $-1 $293 $503 #
ellipse-curve $-1 -44.850395623205912 -12.144140870195898 4.0501283807378012 -0.61566148304635926 0 0.78801074757464917 0.78801074757464917 0 0.61566148304635926 1 I I #
point $-1 -45.0634853571582 -12.144140870195898 5.9471400222217614 #
edge $-1 $504 1 $504 0 $296 $-1 forward 7 unknown #
vertex $-1 $297 $505 #
ellipse-curve $-1 -44.850395623205912 -8.236899601165689 4.0501283807378012 -0.61566148304635926 0 0.78801074757464917 0.78801074757464917 0 0.61566148304635926 1 I I #
point $-1 -45.0634853571582 -8.236899601165689 5.9471400222217614 #
plane-surface $-1 48.918729209265422 0 0 -1 0 0 0 0 1 forward_v I I I I #
coedge $-1 $305 $303 $307 $430 reversed $201 $-1 #
edge $-1 $318 -7.7278637252880085 $432 7.7278637252880085 $317 $506 forward 7 unknown #
vertex $-1 $430 $507 #
straight-curve $-1 -48.918729209265422 -29.163278053912581 0 0 0 -1 I I #
edge $-1 $428 -29.163278053912581 $432 29.163278053912581 $426 $508 forward 7 unknown #
straight-curve $-1 0 -29.163278053912581 -7.7278637252880085 -1 0 0 I I #
vertex $-1 $310 $509 #
straight-curve $-1 0 29.163278053912581 -7.7278637252880085 1 0 0 I I #
point $-1 48.918729209265422 29.163278053912581 -7.7278637252880085 #
point $-1 48.918729209265422 -29.163278053912581 -7.7278637252880085 #
straight-curve $-1 -48.918729209265422 0 7.7278637252880085 0 -1 0 I I #
point $-1 -48.918729209265422 29.163278053912581 7.7278637252880085 #
point $-1 -48.918729209265422 -29.163278053912581 7.7278637252880085 #
straight-curve $-1 48.918729209265422 -29.163278053912581 0 0 0 -1 I I #
straight-curve $-1 48.918729209265422 29.163278053912581 0 0 0 -1 I I #
plane-surface $-1 48.918729209265422 0 0 -1 0 0 0 0 1 forward_v I I I I #
coedge $-1 $453 $444 $443 $510 forward $328 $-1 #
coedge $-1 $331 $330 $442 $510 reversed $134 $-1 #
coedge $-1 $442 $511 $332 $445 reversed $328 $-1 #
edge $-1 $446 -48.918729209265422 $449 48.918729209265422 $444 $512 forward 7 unknown #
vertex $-1 $333 $513 #
straight-curve $-1 -48.918729209265422 0 7.7278637252880085 0 -1 0 I I #
coedge $-1 $340 $334 $511 $514 forward $341 $-1 #
vertex $-1 $335 $515 #
straight-curve $-1 48.918729209265422 0 7.7278637252880085 0 1 0 I I #
point $-1 48.918729209265422 -29.163278053912581 7.7278637252880085 #
point $-1 -48.918729209265422 -29.163278053912581 7.7278637252880085 #
coedge $-1 $511 $442 $343 $454 reversed $328 $-1 #
edge $-1 $455 -48.918729209265422 $457 48.918729209265422 $453 $516 forward 7 unknown #
vertex $-1 $514 $517 #
straight-curve $-1 48.918729209265422 -34.186540414794479 4.7278637252880085 0 -1 0 I I #
vertex $-1 $345 $518 #
straight-curve $-1 -48.918729209265422 -34.186540414794479 4.7278637252880085 0 1 0 I I #
plane-surface $-1 -48.918729209265422 0 0 1 0 0 0 0 -1 forward_v I I I I #
coedge $-1 $519 $351 $352 $463 reversed $236 $-1 #
coedge $-1 $351 $519 $466 $520 reversed $236 $-1 #
edge $-1 $467 -1.5 $464 1.5 $354 $521 forward 7 unknown #
edge $-1 $475 -48.918729209265422 $464 48.918729209265422 $460 $522 forward 7 unknown #
vertex $-1 $353 $523 #
straight-curve $-1 48.918729209265422 34.186540414794479 4.7278637252880085 0 -1 0 I I #
coedge $-1 $470 $355 $461 $520 forward $349 $-1 #
vertex $-1 $356 $524 #
straight-curve $-1 48.918729209265422 0 7.7278637252880085 0 1 0 I I #
point $-1 48.918729209265422 29.163278053912581 7.7278637252880085 #
coedge $-1 $359 $466 $361 $473 forward $349 $-1 #
straight-curve $-1 0 29.163278053912581 7.7278637252880085 1 0 0 I I #
coedge $-1 $362 $361 $519 $525 forward $363 $-1 #
edge $-1 $526 -39.20980277567638 $364 -29.163278053912581 $361 $527 forward 7 unknown #
point $-1 -48.918729209265422 29.163278053912581 7.7278637252880085 #
vertex $-1 $463 $528 #
straight-curve $-1 -48.918729209265422 34.186540414794479 4.7278637252880085 0 1 0 I I #
coedge $-1 $380 $379 $372 $478 forward $369 $-1 #
edge $-1 $479 62.16564093940854 $482 68.385268954364932 $477 $529 forward 7 unknown #
vertex $-1 $384 $530 #
straight-curve $-1 22.044964782531345 1.9095933520280397 7.7278637252880031 1 0 0 I I #
edge $-1 $482 -0.8099667283523484 $381 6.2490868891131246 $380 $531 forward 7 unknown #
vertex $-1 $481 $532 #
straight-curve $-1 -22.635057422366685 1.9095933520280397 68.233222697760993 -0.7313536940579346 0 0.68199836817093118 I I #
point $-1 42.248994886287534 1.9095933520280397 7.7278637252880102 #
point $-1 48.918729209265422 8.9686469694935127 1.5082357103316184 #
straight-curve $-1 48.918729209265422 0 7.7278637252880085 0 1 0 I I #
vertex $-1 $387 $533 #
point $-1 45.006704821506837 3.3214040755211336 3.2659847972476888 #
vertex $-1 $391 $534 #
point $-1 45.006704821506837 5.4391201607607762 3.2659847972476888 #
vertex $-1 $395 $535 #
point $-1 45.006704821506837 7.5568362460004188 3.2659847972476888 #
edge $-1 $494 32.288167325838465 $497 37.080937698063657 $400 $536 forward 7 unknown #
vertex $-1 $414 $537 #
straight-curve $-1 -54.576741978352317 -5.6320720884788829 7.7278637252880102 -1 0 0 I I #
edge $-1 $497 0.53681197063848618 $411 9.6537082650423081 $410 $538 forward 7 unknown #
vertex $-1 $496 $539 #
straight-curve $-1 -48.918729209265429 -5.6320720884788829 2.9350933530628112 0.78801074757464917 0 0.61566148304635926 I I #
point $-1 -42.784263000200312 -5.6320720884788829 7.7278637252880085 #
point $-1 -48.918729209265422 -14.748968382882705 2.9350933530628169 #
straight-curve $-1 -48.918729209265422 0 7.7278637252880085 0 -1 0 I I #
vertex $-1 $417 $540 #
point $-1 -44.062384875631267 -12.144140870195898 4.6657898637841608 #
vertex $-1 $421 $541 #
point $-1 -44.062384875631267 -8.236899601165689 4.6657898637841608 #
straight-curve $-1 -48.918729209265422 29.163278053912581 0 0 0 -1 I I #
point $-1 -48.918729209265422 -29.163278053912581 -7.7278637252880085 #
straight-curve $-1 -48.918729209265422 0 -7.7278637252880085 0 1 0 I I #
point $-1 -48.918729209265422 29.163278053912581 -7.7278637252880085 #
edge $-1 $446 -1.5 $457 1.5 $443 $542 forward 7 unknown #
coedge $-1 $444 $453 $448 $514 reversed $328 $-1 #
straight-curve $-1 0 -39.209802775676373 7.7278637252880085 1 0 0 I I #
point $-1 -48.918729209265422 -39.209802775676373 7.7278637252880085 #
edge $-1 $449 -1.5 $455 1.5 $448 $543 forward 7 unknown #
point $-1 48.918729209265422 -39.209802775676373 7.7278637252880085 #
straight-curve $-1 0 -39.209802775676373 4.7278637252880085 -1 0 0 I I #
point $-1 48.918729209265422 -39.209802775676373 4.7278637252880085 #
point $-1 -48.918729209265422 -39.209802775676373 4.7278637252880085 #
coedge $-1 $461 $460 $472 $525 reversed $236 $-1 #
edge $-1 $467 -48.918729209265422 $526 48.918729209265422 $461 $544 forward 7 unknown #
straight-curve $-1 48.918729209265422 39.20980277567638 6.2278637252880085 0 0 -1 I I #
straight-curve $-1 0 39.20980277567638 4.7278637252880085 1 0 0 I I #
point $-1 48.918729209265422 39.20980277567638 4.7278637252880085 #
point $-1 48.918729209265422 39.20980277567638 7.7278637252880085 #
edge $-1 $526 -1.5 $475 1.5 $519 $545 forward 7 unknown #
vertex $-1 $520 $546 #
straight-curve $-1 -48.918729209265422 0 7.7278637252880085 0 -1 0 I I #
point $-1 -48.918729209265422 39.20980277567638 4.7278637252880085 #
straight-curve $-1 48.918729209265422 1.9095933520280397 69.89350466469655 0 0 -1 I I #
point $-1 48.918729209265422 1.9095933520280397 7.7278637252880085 #
straight-curve $-1 48.918729209265408 2.7195600803803881 1.5082357103316255 0 1 0 I I #
point $-1 48.918729209265422 1.9095933520280397 1.5082357103316184 #
point $-1 44.300028790392403 3.3214040755211336 3.2413071343041868 #
point $-1 44.300028790392403 5.4391201607607762 3.2413071343041868 #
point $-1 44.300028790392403 7.5568362460004188 3.2413071343041868 #
straight-curve $-1 -48.918729209265422 -5.6320720884788829 40.016031051126475 0 0 -1 I I #
point $-1 -48.918729209265422 -5.6320720884788829 7.7278637252880085 #
straight-curve $-1 -48.918729209265422 -5.0952601178403967 2.9350933530628129 0 -1 0 I I #
point $-1 -48.918729209265422 -5.6320720884788829 2.9350933530628169 #
point $-1 -44.23473414015956 -12.144140870195898 3.2621176331631521 #
point $-1 -44.23473414015956 -8.236899601165689 3.2621176331631521 #
straight-curve $-1 -48.918729209265422 -39.209802775676373 6.2278637252880085 0 0 -1 I I #
straight-curve $-1 48.918729209265422 -39.209802775676373 6.2278637252880085 0 0 -1 I I #
straight-curve $-1 0 39.20980277567638 7.7278637252880085 -1 0 0 I I #
straight-curve $-1 -48.918729209265422 39.20980277567638 6.2278637252880085 0 0 -1 I I #
point $-1 -48.918729209265422 39.20980277567638 7.7278637252880085 #
End-of-ACIS-data 