500 0 12 0           
7 Unknown 11 ACIS 5.0 NT 24 Fri Mar 26 00:11:16 1999 
-1 9.9999999999999995e-007 1e-010 
body $-1 $12 $-1 $13 #
body $-1 $14 $-1 $15 #
body $-1 $16 $-1 $17 #
body $-1 $18 $-1 $19 #
body $-1 $20 $-1 $21 #
body $-1 $22 $-1 $23 #
body $-1 $24 $-1 $25 #
body $-1 $26 $-1 $27 #
body $-1 $28 $-1 $29 #
body $-1 $30 $-1 $31 #
body $-1 $32 $-1 $33 #
body $-1 $34 $-1 $35 #
lump $-1 $-1 $36 $0 #
transform $-1 1 0 0 0 1 0 0 0 1 51.82775353251747 24.092542552180735 9.32077804410625 1 rotate no_reflect no_shear #
lump $-1 $-1 $37 $1 #
transform $-1 1 0 0 0 1 0 0 0 1 51.82775353251747 24.092542552180735 9.32077804410625 1 rotate no_reflect no_shear #
lump $-1 $-1 $38 $2 #
transform $-1 1 0 0 0 1 0 0 0 1 51.82775353251747 24.092542552180735 9.32077804410625 1 rotate no_reflect no_shear #
lump $-1 $-1 $39 $3 #
transform $-1 1 0 0 0 1 0 0 0 1 51.82775353251747 24.092542552180735 9.32077804410625 1 rotate no_reflect no_shear #
lump $-1 $-1 $40 $4 #
transform $-1 1 0 0 0 1 0 0 0 1 51.82775353251747 24.092542552180735 9.32077804410625 1 rotate no_reflect no_shear #
lump $-1 $-1 $41 $5 #
transform $-1 1 0 0 0 1 0 0 0 1 51.82775353251747 24.092542552180735 9.32077804410625 1 rotate no_reflect no_shear #
lump $-1 $-1 $42 $6 #
transform $-1 1 0 0 0 1 0 0 0 1 51.82775353251747 24.092542552180735 9.32077804410625 1 rotate no_reflect no_shear #
lump $-1 $-1 $43 $7 #
transform $-1 1 0 0 0 1 0 0 0 1 51.82775353251747 24.092542552180735 9.32077804410625 1 rotate no_reflect no_shear #
lump $-1 $-1 $44 $8 #
transform $-1 1 0 0 0 1 0 0 0 1 51.82775353251747 24.092542552180735 9.32077804410625 1 rotate no_reflect no_shear #
lump $-1 $-1 $45 $9 #
transform $-1 1 0 0 0 1 0 0 0 1 51.82775353251747 24.092542552180735 9.32077804410625 1 rotate no_reflect no_shear #
lump $-1 $-1 $46 $10 #
transform $-1 1 0 0 0 1 0 0 0 1 51.82775353251747 24.092542552180735 9.32077804410625 1 rotate no_reflect no_shear #
lump $-1 $-1 $47 $11 #
transform $-1 1 0 0 0 1 0 0 0 1 51.82775353251747 24.092542552180735 9.32077804410625 1 rotate no_reflect no_shear #
shell $-1 $-1 $-1 $48 $-1 $12 #
shell $-1 $-1 $-1 $49 $-1 $14 #
shell $-1 $-1 $-1 $50 $-1 $16 #
shell $-1 $-1 $-1 $51 $-1 $18 #
shell $-1 $-1 $-1 $52 $-1 $20 #
shell $-1 $-1 $-1 $53 $-1 $22 #
shell $-1 $-1 $-1 $54 $-1 $24 #
shell $-1 $-1 $-1 $55 $-1 $26 #
shell $-1 $-1 $-1 $56 $-1 $28 #
shell $-1 $-1 $-1 $57 $-1 $30 #
shell $-1 $-1 $-1 $58 $-1 $32 #
shell $-1 $-1 $-1 $59 $-1 $34 #
face $-1 $60 $61 $36 $-1 $62 forward single #
face $-1 $63 $64 $37 $-1 $65 forward single #
face $-1 $66 $67 $38 $-1 $68 reversed single #
face $-1 $69 $70 $39 $-1 $71 reversed single #
face $-1 $72 $73 $40 $-1 $74 forward single #
face $-1 $75 $76 $41 $-1 $77 forward single #
face $-1 $78 $79 $42 $-1 $80 reversed single #
face $-1 $81 $82 $43 $-1 $83 forward single #
face $-1 $84 $85 $44 $-1 $86 forward single #
face $-1 $87 $88 $45 $-1 $89 reversed single #
face $-1 $90 $91 $46 $-1 $92 forward single #
face $-1 $93 $94 $47 $-1 $95 forward single #
face $-1 $96 $97 $36 $-1 $98 reversed single #
loop $-1 $-1 $99 $48 #
plane-surface $-1 0 0 9.32077804410625 0 0 1 1 0 0 forward_v I I I I #
face $-1 $100 $101 $37 $-1 $102 forward single #
loop $-1 $-1 $103 $49 #
plane-surface $-1 0 -24.092542552180735 0 0 1 0 0 0 1 forward_v I I I I #
face $-1 $104 $105 $38 $-1 $106 reversed single #
loop $-1 $-1 $107 $50 #
plane-surface $-1 -49.900306407389763 17.126220292924771 0 0 1 0 0 0 1 forward_v I I I I #
face $-1 $108 $109 $39 $-1 $110 reversed single #
loop $-1 $-1 $111 $51 #
plane-surface $-1 -128.85880809852534 -14.311605316619978 71.334953463954719 0 1 0 -0.74314483375859142 0 0.66913059716165679 forward_v I I I I #
face $-1 $112 $113 $40 $-1 $114 forward single #
loop $-1 $115 $116 $52 #
cone-surface $-1 -47.810121249893193 -12.510761359097176 5.0081920141187499 0.74314483375859142 0 -0.66913059716165679 0.3345652985808284 0 0.37157241687929571 1 I I 0 1 0.5 forward I I I I #
face $-1 $117 $118 $41 $-1 $119 forward single #
loop $-1 $120 $121 $53 #
cone-surface $-1 -47.810121249893193 -9.8094954228129723 5.0081920141187499 0.74314483375859142 0 -0.66913059716165679 0.3345652985808284 0 0.37157241687929571 1 I I 0 1 0.5 forward I I I I #
face $-1 $122 $123 $42 $-1 $124 reversed single #
loop $-1 $-1 $125 $54 #
plane-surface $-1 77.283019743340049 -7.9967683123034838 147.24572042899862 0 -1 0 -0.81915205242281985 0 -0.57357642473473569 forward_v I I I I #
face $-1 $126 $127 $43 $-1 $128 forward single #
loop $-1 $129 $130 $55 #
cone-surface $-1 49.16384745996379 -12.507366172529551 5.8144727723448995 -0.81915205242281985 0 -0.57357642473473569 0.14339410618368392 0 -0.20478801310570496 1 I I 0 1 0.25 forward I I I I #
face $-1 $131 $132 $44 $-1 $133 forward single #
loop $-1 $134 $135 $56 #
cone-surface $-1 49.16384745996379 -9.8010074563939114 5.8144727723448995 -0.81915205242281985 0 -0.57357642473473569 0.14339410618368392 0 -0.20478801310570496 1 I I 0 1 0.25 forward I I I I #
face $-1 $136 $137 $45 $-1 $138 reversed single #
loop $-1 $-1 $139 $57 #
plane-surface $-1 77.283019743340049 17.126220292924764 147.24572042899862 0 -1 0 -0.81915205242281985 0 -0.57357642473473569 forward_v I I I I #
face $-1 $140 $141 $46 $-1 $142 forward single #
loop $-1 $143 $144 $58 #
cone-surface $-1 49.16384745996379 12.615622432698697 5.8144727723448995 -0.81915205242281985 0 -0.57357642473473569 0.14339410618368392 0 -0.20478801310570496 1 I I 0 1 0.25 forward I I I I #
face $-1 $145 $146 $47 $-1 $147 forward single #
loop $-1 $148 $149 $59 #
cone-surface $-1 49.16384745996379 15.321981148834336 5.8144727723448995 -0.81915205242281985 0 -0.57357642473473569 0.14339410618368392 0 -0.20478801310570496 1 I I 0 1 0.25 forward I I I I #
face $-1 $150 $151 $36 $-1 $152 reversed single #
loop $-1 $-1 $153 $60 #
plane-surface $-1 0 0 -9.32077804410625 0 0 1 1 0 0 forward_v I I I I #
coedge $-1 $154 $155 $156 $157 forward $61 $-1 #
face $-1 $158 $159 $37 $-1 $160 reversed single #
loop $-1 $-1 $161 $63 #
plane-surface $-1 0 0 9.32077804410625 0 0 1 1 0 0 forward_v I I I I #
coedge $-1 $162 $163 $164 $165 forward $64 $-1 #
face $-1 $166 $167 $38 $-1 $168 reversed single #
loop $-1 $-1 $169 $66 #
plane-surface $-1 -47.972859282262057 20.609381422552755 0 -1 0 0 0 0 1 forward_v I I I I #
coedge $-1 $170 $171 $172 $173 reversed $67 $-1 #
face $-1 $174 $175 $39 $-1 $176 reversed single #
loop $-1 $-1 $177 $69 #
plane-surface $-1 -51.827753532517463 -11.160128390955073 1.9758821224335605 -0.74314483375859142 0 0.66913059716165679 0.66913059716165679 0 0.74314483375859142 forward_v I I I I #
coedge $-1 $178 $179 $180 $181 reversed $70 $-1 #
face $-1 $-1 $182 $40 $-1 $183 forward single #
loop $-1 $184 $185 $72 #
cone-surface $-1 -46.913389672941356 -12.510761359097176 4.2007712956771872 0.74314483375859142 0 -0.66913059716165679 0.1672826492904142 0 0.18578620843964785 1 I I -0.70710678118654879 0.70710678118654635 0.25 forward I I I I #
loop $-1 $-1 $186 $52 #
coedge $-1 $116 $116 $187 $188 reversed $73 $-1 #
face $-1 $-1 $189 $41 $-1 $190 forward single #
loop $-1 $191 $192 $75 #
cone-surface $-1 -46.913389672941356 -9.8094954228129723 4.2007712956771872 0.74314483375859142 0 -0.66913059716165679 0.1672826492904142 0 0.18578620843964785 1 I I -0.70710678118654879 0.70710678118654635 0.25 forward I I I I #
loop $-1 $-1 $193 $53 #
coedge $-1 $121 $121 $194 $195 reversed $76 $-1 #
face $-1 $196 $197 $42 $-1 $198 reversed single #
loop $-1 $-1 $199 $78 #
plane-surface $-1 -7.6266016139114328 -11.154186814461731 87.791365282569757 0.81915205242281985 0 0.57357642473473569 0.57357642473473569 0 -0.81915205242281985 forward_v I I I I #
coedge $-1 $200 $201 $202 $203 reversed $79 $-1 #
face $-1 $-1 $204 $43 $-1 $205 forward single #
loop $-1 $206 $207 $81 #
cone-surface $-1 48.65187742719953 -12.507366172529551 5.4559875068856893 -0.81915205242281985 0 -0.57357642473473569 0.071697053091841961 0 -0.10239400655285248 1 I I -0.70710678118654746 0.70710678118654746 0.125 forward I I I I #
loop $-1 $-1 $208 $55 #
coedge $-1 $130 $130 $209 $210 reversed $82 $-1 #
face $-1 $-1 $211 $44 $-1 $212 forward single #
loop $-1 $213 $214 $84 #
cone-surface $-1 48.65187742719953 -9.8010074563939114 5.4559875068856893 -0.81915205242281985 0 -0.57357642473473569 0.071697053091841961 0 -0.10239400655285248 1 I I -0.70710678118654746 0.70710678118654746 0.125 forward I I I I #
loop $-1 $-1 $215 $56 #
coedge $-1 $135 $135 $216 $217 reversed $85 $-1 #
face $-1 $218 $219 $45 $-1 $220 reversed single #
loop $-1 $-1 $221 $87 #
plane-surface $-1 -7.6266016139114328 13.968801790766516 87.791365282569757 0.81915205242281985 0 0.57357642473473569 0.57357642473473569 0 -0.81915205242281985 forward_v I I I I #
coedge $-1 $222 $223 $224 $225 reversed $88 $-1 #
face $-1 $-1 $226 $46 $-1 $227 forward single #
loop $-1 $228 $229 $90 #
cone-surface $-1 48.65187742719953 12.615622432698697 5.4559875068856893 -0.81915205242281985 0 -0.57357642473473569 0.071697053091841961 0 -0.10239400655285248 1 I I -0.70710678118654746 0.70710678118654746 0.125 forward I I I I #
loop $-1 $-1 $230 $58 #
coedge $-1 $144 $144 $231 $232 reversed $91 $-1 #
face $-1 $-1 $233 $47 $-1 $234 forward single #
loop $-1 $235 $236 $93 #
cone-surface $-1 48.65187742719953 15.321981148834336 5.4559875068856893 -0.81915205242281985 0 -0.57357642473473569 0.071697053091841961 0 -0.10239400655285248 1 I I -0.70710678118654746 0.70710678118654746 0.125 forward I I I I #
loop $-1 $-1 $237 $59 #
coedge $-1 $149 $149 $238 $239 reversed $94 $-1 #
face $-1 $240 $241 $36 $-1 $242 reversed single #
loop $-1 $-1 $243 $96 #
plane-surface $-1 0 -24.092542552180735 0 0 1 0 0 0 1 forward_v I I I I #
coedge $-1 $244 $245 $246 $247 forward $97 $-1 #
coedge $-1 $248 $99 $249 $250 forward $61 $-1 #
coedge $-1 $99 $248 $251 $252 forward $61 $-1 #
coedge $-1 $253 $254 $99 $157 reversed $255 $-1 #
edge $-1 $256 -24.092542552180735 $257 24.092542552180735 $156 $258 forward 7 unknown #
face $-1 $259 $260 $37 $-1 $261 reversed single #
loop $-1 $-1 $262 $100 #
plane-surface $-1 -51.82775353251747 0 0 1 0 0 0 0 -1 forward_v I I I I #
coedge $-1 $263 $264 $163 $265 forward $101 $-1 #
coedge $-1 $266 $103 $267 $268 reversed $64 $-1 #
coedge $-1 $103 $266 $161 $265 reversed $64 $-1 #
coedge $-1 $269 $270 $103 $165 reversed $271 $-1 #
edge $-1 $272 -9.32077804410625 $273 9.32077804410625 $164 $274 forward 7 unknown #
face $-1 $275 $276 $38 $-1 $277 reversed single #
loop $-1 $-1 $278 $104 #
plane-surface $-1 0 0 -9.32077804410625 0 0 1 1 0 0 forward_v I I I I #
coedge $-1 $279 $280 $281 $282 forward $105 $-1 #
coedge $-1 $281 $107 $283 $284 reversed $67 $-1 #
coedge $-1 $107 $281 $285 $286 reversed $67 $-1 #
coedge $-1 $287 $288 $107 $173 forward $276 $-1 #
edge $-1 $289 -9.32077804410625 $290 9.32077804410625 $172 $291 forward 7 unknown #
face $-1 $292 $293 $39 $-1 $294 forward single #
loop $-1 $-1 $295 $108 #
plane-surface $-1 -128.85880809852534 -8.0086514652901677 71.334953463954719 0 -1 0 0.74314483375859142 0 -0.66913059716165679 forward_v I I I I #
coedge $-1 $296 $297 $298 $299 reversed $109 $-1 #
coedge $-1 $179 $111 $300 $301 reversed $70 $-1 #
coedge $-1 $111 $178 $296 $302 reversed $70 $-1 #
coedge $-1 $298 $303 $111 $181 forward $293 $-1 #
edge $-1 $304 12.601650516745202 $305 19.215024344969372 $180 $306 forward 7 unknown #
loop $-1 $-1 $187 $112 #
plane-surface $-1 -51.827753532517463 -11.160128390955073 1.9758821224335605 -0.74314483375859142 0 0.66913059716165679 0.66913059716165679 0 0.74314483375859142 forward_v I I I I #
loop $-1 $-1 $307 $72 #
coedge $-1 $185 $185 $186 $308 reversed $113 $-1 #
coedge $-1 $186 $186 $185 $308 forward $115 $-1 #
coedge $-1 $187 $187 $116 $188 forward $182 $-1 #
edge $-1 $309 0 $309 6.2831853071796004 $187 $310 forward 7 unknown #
loop $-1 $-1 $194 $117 #
plane-surface $-1 -51.827753532517463 -11.160128390955073 1.9758821224335605 -0.74314483375859142 0 0.66913059716165679 0.66913059716165679 0 0.74314483375859142 forward_v I I I I #
loop $-1 $-1 $311 $75 #
coedge $-1 $192 $192 $193 $312 reversed $118 $-1 #
coedge $-1 $193 $193 $192 $312 forward $120 $-1 #
coedge $-1 $194 $194 $121 $195 forward $189 $-1 #
edge $-1 $313 0 $313 6.2831853071796004 $194 $314 forward 7 unknown #
face $-1 $315 $316 $42 $-1 $317 reversed single #
loop $-1 $-1 $318 $122 #
plane-surface $-1 77.283019743340049 -14.311605316619978 147.24572042899862 0 1 0 0.81915205242281985 0 0.57357642473473569 forward_v I I I I #
coedge $-1 $319 $320 $321 $322 reversed $123 $-1 #
coedge $-1 $201 $125 $323 $324 reversed $79 $-1 #
coedge $-1 $125 $200 $319 $325 reversed $79 $-1 #
coedge $-1 $321 $326 $125 $203 forward $327 $-1 #
edge $-1 $328 -13.186243660847445 $329 -8.6775835681629019 $202 $330 forward 7 unknown #
loop $-1 $-1 $209 $126 #
plane-surface $-1 -7.6266016139114328 -11.154186814461731 87.791365282569757 0.81915205242281985 0 0.57357642473473569 0.57357642473473569 0 -0.81915205242281985 forward_v I I I I #
loop $-1 $-1 $331 $81 #
coedge $-1 $207 $207 $208 $332 reversed $127 $-1 #
coedge $-1 $208 $208 $207 $332 forward $129 $-1 #
coedge $-1 $209 $209 $130 $210 forward $204 $-1 #
edge $-1 $333 0 $333 6.2831853071796004 $209 $334 forward 7 unknown #
loop $-1 $-1 $216 $131 #
plane-surface $-1 -7.6266016139114328 -11.154186814461731 87.791365282569757 0.81915205242281985 0 0.57357642473473569 0.57357642473473569 0 -0.81915205242281985 forward_v I I I I #
loop $-1 $-1 $335 $84 #
coedge $-1 $214 $214 $215 $336 reversed $132 $-1 #
coedge $-1 $215 $215 $214 $336 forward $134 $-1 #
coedge $-1 $216 $216 $135 $217 forward $211 $-1 #
edge $-1 $337 0 $337 6.2831853071796004 $216 $338 forward 7 unknown #
face $-1 $339 $340 $45 $-1 $341 reversed single #
loop $-1 $-1 $342 $136 #
plane-surface $-1 77.283019743340049 10.811383288608269 147.24572042899862 0 1 0 0.81915205242281985 0 0.57357642473473569 forward_v I I I I #
coedge $-1 $343 $344 $345 $346 reversed $137 $-1 #
coedge $-1 $223 $139 $347 $348 reversed $88 $-1 #
coedge $-1 $139 $222 $343 $349 reversed $88 $-1 #
coedge $-1 $345 $350 $139 $225 forward $351 $-1 #
edge $-1 $352 -13.186243660847445 $353 -8.6775835681629019 $224 $354 forward 7 unknown #
loop $-1 $-1 $231 $140 #
plane-surface $-1 -7.6266016139114328 13.968801790766516 87.791365282569757 0.81915205242281985 0 0.57357642473473569 0.57357642473473569 0 -0.81915205242281985 forward_v I I I I #
loop $-1 $-1 $355 $90 #
coedge $-1 $229 $229 $230 $356 reversed $141 $-1 #
coedge $-1 $230 $230 $229 $356 forward $143 $-1 #
coedge $-1 $231 $231 $144 $232 forward $226 $-1 #
edge $-1 $357 0 $357 6.2831853071796004 $231 $358 forward 7 unknown #
loop $-1 $-1 $238 $145 #
plane-surface $-1 -7.6266016139114328 13.968801790766516 87.791365282569757 0.81915205242281985 0 0.57357642473473569 0.57357642473473569 0 -0.81915205242281985 forward_v I I I I #
loop $-1 $-1 $359 $93 #
coedge $-1 $236 $236 $237 $360 reversed $146 $-1 #
coedge $-1 $237 $237 $236 $360 forward $148 $-1 #
coedge $-1 $238 $238 $149 $239 forward $233 $-1 #
edge $-1 $361 0 $361 6.2831853071796004 $238 $362 forward 7 unknown #
face $-1 $363 $364 $36 $-1 $365 reversed single #
loop $-1 $-1 $366 $150 #
plane-surface $-1 -51.82775353251747 0 0 1 0 0 0 0 -1 forward_v I I I I #
coedge $-1 $367 $251 $368 $369 forward $151 $-1 #
coedge $-1 $370 $153 $367 $371 forward $97 $-1 #
coedge $-1 $153 $370 $372 $373 forward $97 $-1 #
coedge $-1 $254 $253 $153 $247 reversed $255 $-1 #
edge $-1 $374 -24.092542552180735 $375 24.092542552180735 $246 $376 forward 7 unknown #
coedge $-1 $155 $154 $377 $378 forward $61 $-1 #
coedge $-1 $379 $380 $154 $250 reversed $364 $-1 #
edge $-1 $257 -51.82775353251747 $381 51.82775353251747 $249 $382 forward 7 unknown #
coedge $-1 $243 $383 $155 $252 reversed $151 $-1 #
edge $-1 $384 -51.82775353251747 $256 51.82775353251747 $251 $385 forward 7 unknown #
coedge $-1 $246 $156 $383 $386 forward $255 $-1 #
coedge $-1 $156 $246 $379 $387 reversed $255 $-1 #
loop $-1 $-1 $253 $363 #
vertex $-1 $157 $388 #
vertex $-1 $157 $389 #
straight-curve $-1 51.82775353251747 0 9.32077804410625 0 1 0 I I #
face $-1 $390 $271 $37 $-1 $391 reversed single #
loop $-1 $-1 $392 $158 #
plane-surface $-1 -49.381287528051516 -33.873479787741488 0 0 1 0 0 0 1 forward_v I I I I #
coedge $-1 $393 $394 $266 $395 forward $159 $-1 #
coedge $-1 $396 $161 $394 $397 forward $101 $-1 #
coedge $-1 $161 $396 $269 $398 forward $101 $-1 #
edge $-1 $272 46.934821523585569 $399 51.82775353251747 $161 $400 forward 7 unknown #
coedge $-1 $163 $162 $262 $395 reversed $64 $-1 #
coedge $-1 $401 $402 $162 $268 forward $403 $-1 #
edge $-1 $404 -51.82775353251747 $273 -46.934821523585569 $267 $405 forward 7 unknown #
coedge $-1 $406 $164 $264 $398 reversed $271 $-1 #
coedge $-1 $164 $406 $401 $407 reversed $271 $-1 #
loop $-1 $-1 $406 $259 #
vertex $-1 $265 $408 #
vertex $-1 $407 $409 #
straight-curve $-1 -46.934821523585569 -24.092542552180735 0 0 0 -1 I I #
face $-1 $410 $411 $38 $-1 $412 forward single #
loop $-1 $-1 $172 $166 #
plane-surface $-1 -51.82775353251747 0 0 1 0 0 0 0 -1 forward_v I I I I #
coedge $-1 $283 $413 $279 $414 forward $167 $-1 #
coedge $-1 $415 $169 $278 $414 reversed $105 $-1 #
coedge $-1 $169 $415 $416 $417 reversed $105 $-1 #
coedge $-1 $171 $170 $169 $282 reversed $67 $-1 #
edge $-1 $418 -9.32077804410625 $419 9.32077804410625 $169 $420 forward 7 unknown #
coedge $-1 $421 $278 $170 $284 forward $167 $-1 #
edge $-1 $419 23.022706078567175 $289 26.877600328822588 $283 $422 forward 7 unknown #
coedge $-1 $416 $423 $171 $286 forward $411 $-1 #
edge $-1 $290 -26.877600328822588 $418 -23.022706078567175 $285 $424 forward 7 unknown #
coedge $-1 $425 $172 $423 $426 reversed $276 $-1 #
coedge $-1 $172 $425 $421 $427 reversed $276 $-1 #
vertex $-1 $427 $428 #
vertex $-1 $173 $429 #
straight-curve $-1 -51.82775353251747 17.126220292924771 0 0 0 1 I I #
face $-1 $-1 $430 $39 $-1 $431 reversed single #
loop $-1 $-1 $180 $174 #
plane-surface $-1 0 0 9.32077804410625 0 0 1 1 0 0 forward_v I I I I #
coedge $-1 $432 $433 $434 $435 reversed $175 $-1 #
coedge $-1 $436 $177 $179 $302 forward $109 $-1 #
coedge $-1 $177 $436 $432 $437 forward $109 $-1 #
coedge $-1 $434 $180 $177 $299 forward $293 $-1 #
edge $-1 $305 -8.7315411211424419 $438 -2.4285872698126312 $298 $439 forward 7 unknown #
coedge $-1 $440 $441 $178 $301 forward $430 $-1 #
edge $-1 $442 -33.691594609543806 $304 -26.346698687871111 $300 $443 forward 7 unknown #
edge $-1 $305 -9.8835322376185122 $442 1.0694865687384493e-014 $179 $444 forward 7 unknown #
coedge $-1 $180 $434 $440 $445 forward $293 $-1 #
vertex $-1 $181 $446 #
vertex $-1 $181 $447 #
straight-curve $-1 -64.429404049262672 -14.311605316619978 9.3207780441062482 1 0 0 I I #
coedge $-1 $307 $307 $-1 $448 reversed $184 $-1 #
edge $-1 $449 0 $449 6.2831853071796004 $185 $450 forward 7 unknown #
vertex $-1 $188 $451 #
ellipse-curve $-1 -48.521066618405385 -12.510761359097176 5.6483300832699008 -0.74314483375859142 0 0.66913059716165679 0.3345652985808284 0 0.37157241687929571 1 I I #
coedge $-1 $311 $311 $-1 $452 reversed $191 $-1 #
edge $-1 $453 0 $453 6.2831853071796004 $192 $454 forward 7 unknown #
vertex $-1 $195 $455 #
ellipse-curve $-1 -48.521066618405385 -9.8094954228129723 5.6483300832699008 -0.74314483375859142 0 0.66913059716165679 0.3345652985808284 0 0.37157241687929571 1 I I #
face $-1 $-1 $327 $42 $-1 $456 forward single #
loop $-1 $-1 $457 $196 #
plane-surface $-1 51.82775353251747 0 0 -1 0 0 0 0 1 forward_v I I I I #
coedge $-1 $458 $459 $460 $461 reversed $197 $-1 #
coedge $-1 $462 $199 $201 $325 forward $123 $-1 #
coedge $-1 $199 $462 $458 $463 forward $123 $-1 #
coedge $-1 $460 $202 $199 $322 forward $327 $-1 #
edge $-1 $329 2.4196749050726183 $464 8.7345119093891128 $321 $465 forward 7 unknown #
coedge $-1 $466 $467 $200 $324 forward $316 $-1 #
edge $-1 $468 -70.741116289181065 $328 -64.302082170393064 $323 $469 forward 7 unknown #
edge $-1 $329 95.794897914703057 $468 103.655507065035 $201 $470 forward 7 unknown #
coedge $-1 $202 $460 $466 $471 forward $327 $-1 #
loop $-1 $-1 $460 $315 #
vertex $-1 $324 $472 #
vertex $-1 $203 $473 #
straight-curve $-1 38.641509871670024 -7.9967683123034838 9.3207780441062482 -1 0 0 I I #
coedge $-1 $331 $331 $-1 $474 reversed $206 $-1 #
edge $-1 $475 0 $475 6.2831853071796004 $207 $476 forward 7 unknown #
vertex $-1 $210 $477 #
ellipse-curve $-1 49.573423486175187 -12.507366172529551 6.1012609847122592 0.81915205242281985 0 0.57357642473473569 0.14339410618368392 0 -0.20478801310570496 1 I I #
coedge $-1 $335 $335 $-1 $478 reversed $213 $-1 #
edge $-1 $479 0 $479 6.2831853071796004 $214 $480 forward 7 unknown #
vertex $-1 $217 $481 #
ellipse-curve $-1 49.573423486175187 -9.8010074563939114 6.1012609847122592 0.81915205242281985 0 0.57357642473473569 0.14339410618368392 0 -0.20478801310570496 1 I I #
face $-1 $-1 $351 $45 $-1 $482 forward single #
loop $-1 $-1 $483 $218 #
plane-surface $-1 51.82775353251747 0 0 -1 0 0 0 0 1 forward_v I I I I #
coedge $-1 $484 $485 $486 $487 reversed $219 $-1 #
coedge $-1 $488 $221 $223 $349 forward $137 $-1 #
coedge $-1 $221 $488 $484 $489 forward $137 $-1 #
coedge $-1 $486 $224 $221 $346 forward $351 $-1 #
edge $-1 $353 -10.141819397541505 $490 -3.8269823932250109 $345 $491 forward 7 unknown #
coedge $-1 $492 $493 $222 $348 forward $340 $-1 #
edge $-1 $494 -70.741116289181065 $352 -64.302082170393064 $347 $495 forward 7 unknown #
edge $-1 $353 95.794897914703057 $494 103.655507065035 $223 $496 forward 7 unknown #
coedge $-1 $224 $486 $492 $497 forward $351 $-1 #
loop $-1 $-1 $486 $339 #
vertex $-1 $348 $498 #
vertex $-1 $225 $499 #
straight-curve $-1 38.641509871670024 17.126220292924764 9.3207780441062482 -1 0 0 I I #
coedge $-1 $355 $355 $-1 $500 reversed $228 $-1 #
edge $-1 $501 0 $501 6.2831853071796004 $229 $502 forward 7 unknown #
vertex $-1 $232 $503 #
ellipse-curve $-1 49.573423486175187 12.615622432698697 6.1012609847122592 0.81915205242281985 0 0.57357642473473569 0.14339410618368392 0 -0.20478801310570496 1 I I #
coedge $-1 $359 $359 $-1 $504 reversed $235 $-1 #
edge $-1 $505 0 $505 6.2831853071796004 $236 $506 forward 7 unknown #
vertex $-1 $239 $507 #
ellipse-curve $-1 49.573423486175187 15.321981148834336 6.1012609847122592 0.81915205242281985 0 0.57357642473473569 0.14339410618368392 0 -0.20478801310570496 1 I I #
face $-1 $-1 $255 $36 $-1 $508 reversed single #
loop $-1 $-1 $379 $240 #
plane-surface $-1 0 24.092542552180735 0 0 -1 0 0 0 -1 forward_v I I I I #
coedge $-1 $509 $377 $380 $510 forward $241 $-1 #
coedge $-1 $383 $243 $244 $371 reversed $151 $-1 #
coedge $-1 $377 $509 $243 $369 reversed $241 $-1 #
edge $-1 $384 -9.32077804410625 $511 9.32077804410625 $368 $512 forward 7 unknown #
coedge $-1 $245 $244 $509 $513 forward $97 $-1 #
edge $-1 $375 -51.82775353251747 $511 51.82775353251747 $367 $514 forward 7 unknown #
coedge $-1 $380 $379 $245 $373 reversed $364 $-1 #
edge $-1 $515 -51.82775353251747 $374 51.82775353251747 $372 $516 forward 7 unknown #
vertex $-1 $247 $517 #
vertex $-1 $386 $518 #
straight-curve $-1 51.82775353251747 0 -9.32077804410625 0 -1 0 I I #
coedge $-1 $366 $368 $248 $378 reversed $241 $-1 #
edge $-1 $381 -24.092542552180735 $384 24.092542552180735 $377 $519 forward 7 unknown #
coedge $-1 $372 $249 $254 $387 forward $364 $-1 #
coedge $-1 $249 $372 $366 $510 reversed $364 $-1 #
vertex $-1 $250 $520 #
straight-curve $-1 0 24.092542552180735 9.32077804410625 -1 0 0 I I #
coedge $-1 $251 $367 $253 $386 reversed $151 $-1 #
vertex $-1 $378 $521 #
straight-curve $-1 0 -24.092542552180735 9.32077804410625 1 0 0 I I #
edge $-1 $256 -9.32077804410625 $375 9.32077804410625 $253 $522 forward 7 unknown #
edge $-1 $257 -9.32077804410625 $374 9.32077804410625 $254 $523 forward 7 unknown #
point $-1 51.82775353251747 -24.092542552180735 9.32077804410625 #
point $-1 51.82775353251747 24.092542552180735 9.32077804410625 #
face $-1 $-1 $403 $37 $-1 $524 reversed single #
plane-surface $-1 -46.934821523585569 -28.983011169961113 0 -1 0 0 0 0 1 forward_v I I I I #
coedge $-1 $525 $526 $527 $528 forward $260 $-1 #
coedge $-1 $527 $262 $402 $529 reversed $159 $-1 #
coedge $-1 $262 $527 $263 $397 reversed $159 $-1 #
edge $-1 $399 -9.32077804410625 $404 9.32077804410625 $262 $530 forward 7 unknown #
coedge $-1 $264 $263 $526 $531 forward $101 $-1 #
edge $-1 $399 24.092542552180735 $532 33.873479787741488 $394 $533 forward 7 unknown #
edge $-1 $534 -4.8904686177803747 $272 4.8904686177803782 $269 $535 forward 7 unknown #
vertex $-1 $397 $536 #
straight-curve $-1 0 -24.092542552180735 9.32077804410625 -1 0 0 I I #
coedge $-1 $537 $267 $270 $407 forward $403 $-1 #
coedge $-1 $267 $537 $393 $529 forward $403 $-1 #
loop $-1 $-1 $267 $390 #
vertex $-1 $395 $538 #
straight-curve $-1 0 -24.092542552180735 -9.32077804410625 1 0 0 I I #
coedge $-1 $270 $269 $539 $540 forward $271 $-1 #
edge $-1 $273 -4.8904686177803782 $541 4.8904686177803747 $270 $542 forward 7 unknown #
point $-1 -46.934821523585569 -24.092542552180735 9.32077804410625 #
point $-1 -46.934821523585569 -24.092542552180735 -9.32077804410625 #
face $-1 $-1 $543 $38 $-1 $544 reversed single #
loop $-1 $-1 $416 $275 #
plane-surface $-1 0 0 9.32077804410625 0 0 1 1 0 0 forward_v I I I I #
coedge $-1 $278 $421 $545 $546 forward $167 $-1 #
edge $-1 $547 -13.787851840904361 $419 -6.8215295816483934 $278 $548 forward 7 unknown #
coedge $-1 $280 $279 $549 $550 reversed $105 $-1 #
coedge $-1 $551 $285 $280 $417 forward $411 $-1 #
edge $-1 $418 6.8215295816483934 $552 13.787851840904361 $416 $553 forward 7 unknown #
vertex $-1 $286 $554 #
vertex $-1 $284 $555 #
straight-curve $-1 -47.972859282262057 17.126220292924771 0 0 0 -1 I I #
coedge $-1 $413 $283 $288 $427 forward $167 $-1 #
straight-curve $-1 -24.950153203694882 17.126220292924771 -9.32077804410625 -1 0 0 I I #
coedge $-1 $285 $551 $287 $426 forward $411 $-1 #
straight-curve $-1 -24.950153203694882 17.126220292924771 9.32077804410625 1 0 0 I I #
coedge $-1 $288 $287 $556 $557 forward $276 $-1 #
edge $-1 $558 -24.092542552180735 $290 -17.126220292924771 $287 $559 forward 7 unknown #
edge $-1 $289 17.126220292924771 $560 24.092542552180735 $288 $561 forward 7 unknown #
point $-1 -51.82775353251747 17.126220292924771 -9.32077804410625 #
point $-1 -51.82775353251747 17.126220292924771 9.32077804410625 #
loop $-1 $-1 $300 $292 #
plane-surface $-1 -51.82775353251747 0 0 1 0 0 0 0 -1 forward_v I I I I #
coedge $-1 $433 $295 $297 $437 reversed $175 $-1 #
coedge $-1 $295 $432 $562 $563 reversed $175 $-1 #
coedge $-1 $303 $298 $295 $435 forward $293 $-1 #
edge $-1 $438 -19.215024344969372 $564 -12.601650516745202 $434 $565 forward 7 unknown #
coedge $-1 $297 $296 $441 $566 reversed $109 $-1 #
edge $-1 $567 -1.0694865687384493e-014 $438 9.8835322376185122 $432 $568 forward 7 unknown #
vertex $-1 $299 $569 #
straight-curve $-1 -45.214379704293293 -5.5800641954775365 9.3207780441062482 0 1 0 I I #
coedge $-1 $562 $300 $303 $445 reversed $430 $-1 #
coedge $-1 $300 $562 $436 $566 forward $430 $-1 #
vertex $-1 $301 $570 #
straight-curve $-1 -51.82775353251747 -14.311605316619978 35.667476731977359 0 0 1 I I #
straight-curve $-1 -51.827753532517463 -14.311605316619978 1.9758821224335605 -0.66913059716165679 0 -0.74314483375859142 I I #
edge $-1 $564 8.0086514652901677 $304 14.311605316619978 $440 $571 forward 7 unknown #
point $-1 -51.82775353251747 -14.311605316619978 9.32077804410625 #
point $-1 -45.2143797042933 -14.311605316619978 9.32077804410625 #
edge $-1 $572 1 $572 0 $307 $-1 forward 7 unknown #
vertex $-1 $308 $573 #
ellipse-curve $-1 -47.099175881381001 -12.510761359097176 4.3680539449676008 -0.74314483375859142 0 0.66913059716165679 0.3345652985808284 0 0.37157241687929571 1 I I #
point $-1 -48.186501319824558 -12.510761359097176 6.0199025001491968 #
edge $-1 $574 1 $574 0 $311 $-1 forward 7 unknown #
vertex $-1 $312 $575 #
ellipse-curve $-1 -47.099175881381001 -9.8094954228129723 4.3680539449676008 -0.74314483375859142 0 0.66913059716165679 0.3345652985808284 0 0.37157241687929571 1 I I #
point $-1 -48.186501319824558 -9.8094954228129723 6.0199025001491968 #
plane-surface $-1 0 0 9.32077804410625 0 0 1 1 0 0 forward_v I I I I #
coedge $-1 $467 $466 $459 $576 forward $316 $-1 #
coedge $-1 $459 $318 $320 $463 reversed $197 $-1 #
coedge $-1 $318 $458 $457 $576 reversed $197 $-1 #
coedge $-1 $326 $321 $318 $461 forward $327 $-1 #
edge $-1 $464 8.6775835681629019 $577 13.186243660847445 $460 $578 forward 7 unknown #
coedge $-1 $320 $319 $467 $579 reversed $123 $-1 #
edge $-1 $580 -103.655507065035 $464 -95.794897914703057 $458 $581 forward 7 unknown #
vertex $-1 $322 $582 #
straight-curve $-1 47.319093439832926 -5.5770934072308656 9.3207780441062482 0 -1 0 I I #
coedge $-1 $457 $323 $326 $471 reversed $316 $-1 #
coedge $-1 $323 $457 $462 $579 forward $316 $-1 #
vertex $-1 $324 $583 #
straight-curve $-1 51.82775353251747 -7.9967683123034838 73.622860214499312 0 0 1 I I #
straight-curve $-1 -7.6266016139114328 -7.9967683123034838 87.791365282569757 0.57357642473473569 0 -0.81915205242281985 I I #
edge $-1 $577 -14.311605316619978 $328 -7.9967683123034838 $466 $584 forward 7 unknown #
point $-1 51.82775353251747 -7.9967683123034838 9.32077804410625 #
point $-1 47.319093439832926 -7.9967683123034838 9.3207780441062482 #
edge $-1 $585 1 $585 0 $331 $-1 forward 7 unknown #
vertex $-1 $332 $586 #
ellipse-curve $-1 48.754271433752379 -12.507366172529551 5.5276845599775317 0.81915205242281985 0 0.57357642473473569 0.14339410618368392 0 -0.20478801310570496 1 I I #
point $-1 49.716817592358886 -12.507366172529551 5.8964729716065616 #
edge $-1 $587 1 $587 0 $335 $-1 forward 7 unknown #
vertex $-1 $336 $588 #
ellipse-curve $-1 48.754271433752379 -9.8010074563939114 5.5276845599775317 0.81915205242281985 0 0.57357642473473569 0.14339410618368392 0 -0.20478801310570496 1 I I #
point $-1 49.716817592358886 -9.8010074563939114 5.8964729716065616 #
plane-surface $-1 0 0 9.32077804410625 0 0 1 1 0 0 forward_v I I I I #
coedge $-1 $493 $492 $485 $589 forward $340 $-1 #
coedge $-1 $485 $342 $344 $489 reversed $219 $-1 #
coedge $-1 $342 $484 $483 $589 reversed $219 $-1 #
coedge $-1 $350 $345 $342 $487 forward $351 $-1 #
edge $-1 $490 8.6775835681629019 $590 13.186243660847445 $486 $591 forward 7 unknown #
coedge $-1 $344 $343 $493 $592 reversed $137 $-1 #
edge $-1 $593 -103.655507065035 $490 -95.794897914703057 $484 $594 forward 7 unknown #
vertex $-1 $346 $595 #
straight-curve $-1 47.319093439832926 6.9844008953832581 9.3207780441062482 0 -1 0 I I #
coedge $-1 $483 $347 $350 $497 reversed $340 $-1 #
coedge $-1 $347 $483 $488 $592 forward $340 $-1 #
vertex $-1 $348 $596 #
straight-curve $-1 51.82775353251747 17.126220292924764 73.622860214499312 0 0 1 I I #
straight-curve $-1 -7.6266016139114328 17.126220292924764 87.791365282569757 0.57357642473473569 0 -0.81915205242281985 I I #
edge $-1 $590 10.811383288608269 $352 17.126220292924764 $492 $597 forward 7 unknown #
point $-1 51.82775353251747 17.126220292924764 9.32077804410625 #
point $-1 47.319093439832926 17.126220292924764 9.3207780441062482 #
edge $-1 $598 1 $598 0 $355 $-1 forward 7 unknown #
vertex $-1 $356 $599 #
ellipse-curve $-1 48.754271433752379 12.615622432698697 5.5276845599775317 0.81915205242281985 0 0.57357642473473569 0.14339410618368392 0 -0.20478801310570496 1 I I #
point $-1 49.716817592358886 12.615622432698697 5.8964729716065616 #
edge $-1 $600 1 $600 0 $359 $-1 forward 7 unknown #
vertex $-1 $360 $601 #
ellipse-curve $-1 48.754271433752379 15.321981148834336 5.5276845599775317 0.81915205242281985 0 0.57357642473473569 0.14339410618368392 0 -0.20478801310570496 1 I I #
point $-1 49.716817592358886 15.321981148834336 5.8964729716065616 #
plane-surface $-1 51.82775353251747 0 0 -1 0 0 0 0 1 forward_v I I I I #
coedge $-1 $368 $366 $370 $513 reversed $241 $-1 #
edge $-1 $381 -9.32077804410625 $515 9.32077804410625 $380 $602 forward 7 unknown #
vertex $-1 $513 $603 #
straight-curve $-1 -51.82775353251747 -24.092542552180735 0 0 0 -1 I I #
edge $-1 $511 -24.092542552180735 $515 24.092542552180735 $509 $604 forward 7 unknown #
straight-curve $-1 0 -24.092542552180735 -9.32077804410625 -1 0 0 I I #
vertex $-1 $373 $605 #
straight-curve $-1 0 24.092542552180735 -9.32077804410625 1 0 0 I I #
point $-1 51.82775353251747 24.092542552180735 -9.32077804410625 #
point $-1 51.82775353251747 -24.092542552180735 -9.32077804410625 #
straight-curve $-1 -51.82775353251747 0 9.32077804410625 0 -1 0 I I #
point $-1 -51.82775353251747 24.092542552180735 9.32077804410625 #
point $-1 -51.82775353251747 -24.092542552180735 9.32077804410625 #
straight-curve $-1 51.82775353251747 -24.092542552180735 0 0 0 -1 I I #
straight-curve $-1 51.82775353251747 24.092542552180735 0 0 0 -1 I I #
plane-surface $-1 0 0 -9.32077804410625 0 0 1 1 0 0 forward_v I I I I #
coedge $-1 $539 $392 $537 $606 reversed $260 $-1 #
coedge $-1 $392 $539 $396 $531 reversed $260 $-1 #
coedge $-1 $394 $393 $392 $528 reversed $159 $-1 #
edge $-1 $532 -9.32077804410625 $607 9.32077804410625 $527 $608 forward 7 unknown #
edge $-1 $607 -33.873479787741488 $404 -24.092542552180735 $393 $609 forward 7 unknown #
straight-curve $-1 -51.82775353251747 -24.092542552180735 0 0 0 -1 I I #
edge $-1 $532 -2.4464660044659468 $534 2.4464660044659468 $526 $610 forward 7 unknown #
vertex $-1 $397 $611 #
straight-curve $-1 -51.82775353251747 0 9.32077804410625 0 -1 0 I I #
vertex $-1 $398 $612 #
straight-curve $-1 -46.934821523585569 -28.983011169961113 9.32077804410625 0 1 0 I I #
point $-1 -51.82775353251747 -24.092542552180735 9.32077804410625 #
coedge $-1 $402 $401 $525 $606 forward $403 $-1 #
point $-1 -51.82775353251747 -24.092542552180735 -9.32077804410625 #
coedge $-1 $526 $525 $406 $540 reversed $260 $-1 #
edge $-1 $534 -9.32077804410625 $541 9.32077804410625 $406 $613 forward 7 unknown #
vertex $-1 $540 $614 #
straight-curve $-1 -46.934821523585569 -28.983011169961113 -9.32077804410625 0 -1 0 I I #
loop $-1 $-1 $549 $410 #
plane-surface $-1 0 24.092542552180735 0 0 -1 0 0 0 -1 forward_v I I I I #
coedge $-1 $556 $549 $413 $546 reversed $543 $-1 #
edge $-1 $560 -51.82775353251747 $547 -47.972859282262057 $545 $615 forward 7 unknown #
vertex $-1 $414 $616 #
straight-curve $-1 -47.972859282262057 10.304690711276377 -9.32077804410625 0 -1 0 I I #
coedge $-1 $545 $617 $415 $550 forward $543 $-1 #
edge $-1 $552 -9.32077804410625 $547 9.32077804410625 $549 $618 forward 7 unknown #
coedge $-1 $423 $416 $617 $619 forward $411 $-1 #
vertex $-1 $619 $620 #
straight-curve $-1 -47.972859282262057 10.304690711276377 9.32077804410625 0 1 0 I I #
point $-1 -47.972859282262057 17.126220292924771 9.32077804410625 #
point $-1 -47.972859282262057 17.126220292924771 -9.32077804410625 #
coedge $-1 $617 $545 $425 $557 reversed $543 $-1 #
edge $-1 $558 -9.32077804410625 $560 9.32077804410625 $556 $621 forward 7 unknown #
vertex $-1 $619 $622 #
straight-curve $-1 -51.82775353251747 0 9.32077804410625 0 -1 0 I I #
vertex $-1 $546 $623 #
straight-curve $-1 -51.82775353251747 0 -9.32077804410625 0 1 0 I I #
coedge $-1 $441 $440 $433 $563 forward $430 $-1 #
edge $-1 $564 26.346698687871111 $567 33.691594609543806 $562 $624 forward 7 unknown #
vertex $-1 $445 $625 #
straight-curve $-1 -64.429404049262672 -8.0086514652901677 9.3207780441062482 -1 0 0 I I #
edge $-1 $567 2.4285872698126312 $442 8.7315411211424419 $441 $626 forward 7 unknown #
vertex $-1 $566 $627 #
straight-curve $-1 -51.827753532517463 -8.0086514652901677 1.9758821224335605 0.66913059716165679 0 0.74314483375859142 I I #
point $-1 -45.2143797042933 -8.0086514652901677 9.32077804410625 #
point $-1 -51.82775353251747 -14.311605316619978 1.9758821224335525 #
straight-curve $-1 -51.82775353251747 0 9.32077804410625 0 -1 0 I I #
vertex $-1 $448 $628 #
point $-1 -46.764610582800174 -12.510761359097176 4.7396263618468968 #
vertex $-1 $452 $629 #
point $-1 -46.764610582800174 -9.8094954228129723 4.7396263618468968 #
edge $-1 $577 64.302082170393064 $580 70.741116289181065 $457 $630 forward 7 unknown #
vertex $-1 $471 $631 #
straight-curve $-1 38.641509871670024 -14.311605316619978 9.3207780441062482 1 0 0 I I #
edge $-1 $580 -8.7345119093891128 $468 -2.4196749050726183 $467 $632 forward 7 unknown #
vertex $-1 $579 $633 #
straight-curve $-1 -7.6266016139114328 -14.311605316619978 87.791365282569757 -0.57357642473473569 0 0.81915205242281985 I I #
point $-1 47.319093439832926 -14.311605316619978 9.3207780441062482 #
point $-1 51.82775353251747 -7.9967683123034838 2.8817439253182471 #
straight-curve $-1 51.82775353251747 0 9.32077804410625 0 1 0 I I #
vertex $-1 $474 $634 #
point $-1 48.897665539936064 -12.507366172529551 5.3228965468718261 #
vertex $-1 $478 $635 #
point $-1 48.897665539936064 -9.8010074563939114 5.3228965468718261 #
edge $-1 $590 64.302082170393064 $593 70.741116289181065 $483 $636 forward 7 unknown #
vertex $-1 $497 $637 #
straight-curve $-1 38.641509871670024 10.811383288608269 9.3207780441062482 1 0 0 I I #
edge $-1 $593 3.8269823932250109 $494 10.141819397541505 $493 $638 forward 7 unknown #
vertex $-1 $592 $639 #
straight-curve $-1 -7.6266016139114328 10.811383288608269 87.791365282569757 -0.57357642473473569 0 0.81915205242281985 I I #
point $-1 47.319093439832926 10.811383288608269 9.3207780441062482 #
point $-1 51.82775353251747 17.126220292924764 2.8817439253182471 #
straight-curve $-1 51.82775353251747 0 9.32077804410625 0 1 0 I I #
vertex $-1 $500 $640 #
point $-1 48.897665539936064 12.615622432698697 5.3228965468718261 #
vertex $-1 $504 $641 #
point $-1 48.897665539936064 15.321981148834336 5.3228965468718261 #
straight-curve $-1 -51.82775353251747 24.092542552180735 0 0 0 -1 I I #
point $-1 -51.82775353251747 -24.092542552180735 -9.32077804410625 #
straight-curve $-1 -51.82775353251747 0 -9.32077804410625 0 1 0 I I #
point $-1 -51.82775353251747 24.092542552180735 -9.32077804410625 #
edge $-1 $541 -2.4464660044659468 $607 2.4464660044659468 $525 $642 forward 7 unknown #
vertex $-1 $529 $643 #
straight-curve $-1 -51.827753532517463 -33.873479787741488 0 0 0 -1 I I #
straight-curve $-1 -51.82775353251747 0 -9.32077804410625 0 1 0 I I #
straight-curve $-1 -49.381287528051516 -33.873479787741488 9.32077804410625 1 0 0 I I #
point $-1 -51.827753532517463 -33.873479787741488 9.32077804410625 #
point $-1 -46.934821523585569 -33.873479787741488 9.32077804410625 #
straight-curve $-1 -46.934821523585569 -33.873479787741488 0 0 0 -1 I I #
point $-1 -46.934821523585569 -33.873479787741488 -9.32077804410625 #
straight-curve $-1 0 24.092542552180735 -9.32077804410625 1 0 0 I I #
point $-1 -47.972859282262057 24.092542552180738 -9.32077804410625 #
coedge $-1 $549 $556 $551 $619 reversed $543 $-1 #
straight-curve $-1 -47.972859282262057 24.092542552180735 0 0 0 -1 I I #
edge $-1 $552 47.972859282262057 $558 51.82775353251747 $617 $644 forward 7 unknown #
point $-1 -47.972859282262057 24.092542552180738 9.32077804410625 #
straight-curve $-1 -51.82775353251747 24.092542552180735 0 0 0 -1 I I #
point $-1 -51.82775353251747 24.092542552180735 9.32077804410625 #
point $-1 -51.82775353251747 24.092542552180735 -9.32077804410625 #
straight-curve $-1 -51.82775353251747 -8.0086514652901677 35.667476731977359 0 0 -1 I I #
point $-1 -51.82775353251747 -8.0086514652901677 9.32077804410625 #
straight-curve $-1 -51.82775353251747 -5.5800641954775365 1.9758821224335481 0 -1 0 I I #
point $-1 -51.82775353251747 -8.0086514652901677 1.9758821224335525 #
point $-1 -46.727603464501712 -12.510761359097176 4.0334886463867736 #
point $-1 -46.727603464501712 -9.8094954228129723 4.0334886463867736 #
straight-curve $-1 51.82775353251747 -14.311605316619978 73.622860214499312 0 0 -1 I I #
point $-1 51.82775353251747 -14.311605316619978 9.32077804410625 #
straight-curve $-1 51.827753532517477 -5.5770934072308656 2.8817439253182329 0 1 0 I I #
point $-1 51.82775353251747 -14.311605316619978 2.8817439253182471 #
point $-1 48.549483420646681 -12.507366172529551 5.384290453793847 #
point $-1 48.549483420646681 -9.8010074563939114 5.384290453793847 #
straight-curve $-1 51.82775353251747 10.811383288608269 73.622860214499312 0 0 -1 I I #
point $-1 51.82775353251747 10.811383288608269 9.32077804410625 #
straight-curve $-1 51.827753532517477 6.9844008953832581 2.8817439253182329 0 1 0 I I #
point $-1 51.82775353251747 10.811383288608269 2.8817439253182471 #
point $-1 48.549483420646681 12.615622432698697 5.384290453793847 #
point $-1 48.549483420646681 15.321981148834336 5.384290453793847 #
straight-curve $-1 -49.381287528051516 -33.873479787741488 -9.32077804410625 -1 0 0 I I #
point $-1 -51.827753532517463 -33.873479787741488 -9.32077804410625 #
straight-curve $-1 0 24.092542552180735 9.32077804410625 -1 0 0 I I #
End-of-ACIS-data 