500 0 7 0           
7 Unknown 11 ACIS 5.0 NT 24 Thu Mar 25 17:52:40 1999 
-1 9.9999999999999995e-007 1e-010 
body $-1 $7 $-1 $8 #
body $-1 $9 $-1 $10 #
body $-1 $11 $-1 $12 #
body $-1 $13 $-1 $14 #
body $-1 $15 $-1 $16 #
body $-1 $17 $-1 $18 #
body $-1 $19 $-1 $20 #
lump $-1 $-1 $21 $0 #
transform $-1 1 0 0 0 1 0 0 0 1 76.520889919736319 50.594817477616843 11.78100950318067 1 rotate no_reflect no_shear #
lump $-1 $-1 $22 $1 #
transform $-1 1 0 0 0 1 0 0 0 1 76.520889919736319 50.594817477616843 11.78100950318067 1 rotate no_reflect no_shear #
lump $-1 $-1 $23 $2 #
transform $-1 1 0 0 0 1 0 0 0 1 76.520889919736319 50.594817477616843 11.78100950318067 1 rotate no_reflect no_shear #
lump $-1 $-1 $24 $3 #
transform $-1 1 0 0 0 1 0 0 0 1 76.520889919736319 50.594817477616843 11.78100950318067 1 rotate no_reflect no_shear #
lump $-1 $-1 $25 $4 #
transform $-1 1 0 0 0 1 0 0 0 1 76.520889919736319 50.594817477616843 11.78100950318067 1 rotate no_reflect no_shear #
lump $-1 $-1 $26 $5 #
transform $-1 1 0 0 0 1 0 0 0 1 76.520889919736319 50.594817477616843 11.78100950318067 1 rotate no_reflect no_shear #
lump $-1 $-1 $27 $6 #
transform $-1 1 0 0 0 1 0 0 0 1 76.520889919736319 50.594817477616843 11.78100950318067 1 rotate no_reflect no_shear #
shell $-1 $-1 $-1 $28 $-1 $7 #
shell $-1 $-1 $-1 $29 $-1 $9 #
shell $-1 $-1 $-1 $30 $-1 $11 #
shell $-1 $-1 $-1 $31 $-1 $13 #
shell $-1 $-1 $-1 $32 $-1 $15 #
shell $-1 $-1 $-1 $33 $-1 $17 #
shell $-1 $-1 $-1 $34 $-1 $19 #
face $-1 $35 $36 $21 $-1 $37 forward single #
face $-1 $38 $39 $22 $-1 $40 forward single #
face $-1 $41 $42 $23 $-1 $43 reversed single #
face $-1 $44 $45 $24 $-1 $46 forward single #
face $-1 $47 $48 $25 $-1 $49 forward single #
face $-1 $50 $51 $26 $-1 $52 reversed single #
face $-1 $53 $54 $27 $-1 $55 forward single #
face $-1 $56 $57 $21 $-1 $58 reversed single #
loop $-1 $-1 $59 $28 #
plane-surface $-1 0 0 11.78100950318067 0 0 1 1 0 0 forward_v I I I I #
face $-1 $60 $61 $22 $-1 $62 reversed single #
loop $-1 $-1 $63 $29 #
plane-surface $-1 -69.735421062328626 0 7.9353424824951251 0 0 1 1 0 0 forward_v I I I I #
face $-1 $64 $65 $23 $-1 $66 reversed single #
loop $-1 $-1 $67 $30 #
plane-surface $-1 -48.482730753536998 105.84992027436591 180.04632706848679 -1 0 0 0 0.77714596973225614 0.62932038083071107 forward_v I I I I #
face $-1 $68 $69 $24 $-1 $70 forward single #
loop $-1 $71 $72 $31 #
cone-surface $-1 -58.816460361668383 46.661205696517278 7.4447872755903308 0 -0.77714596973225614 -0.62932038083071107 1 0 0 1 I I 0 1 1 forward I I I I #
face $-1 $73 $74 $25 $-1 $75 forward single #
loop $-1 $76 $77 $32 #
cone-surface $-1 -52.616222596789555 46.661205696517278 7.4447872755903308 0 -0.77714596973225614 -0.62932038083071107 1 0 0 1 I I 0 1 1 forward I I I I #
face $-1 $78 $79 $26 $-1 $80 reversed single #
loop $-1 $-1 $81 $33 #
plane-surface $-1 -9.9781006132945578 -162.52249093043139 105.78168992093663 1 0 0 0 0.73135370988377701 -0.68199835119979291 forward_v I I I I #
face $-1 $82 $83 $27 $-1 $84 forward single #
loop $-1 $85 $86 $34 #
cone-surface $-1 10.012918725209772 -44.070319428364769 5.020379400836628 0 0.73135370988377701 -0.68199835119979291 1.5 0 0 1 I I 0 1 1.5 forward I I I I #
face $-1 $87 $88 $21 $-1 $89 reversed single #
loop $-1 $-1 $90 $35 #
plane-surface $-1 0 0 -11.78100950318067 0 0 1 1 0 0 forward_v I I I I #
coedge $-1 $91 $92 $93 $94 forward $36 $-1 #
face $-1 $95 $96 $22 $-1 $97 reversed single #
loop $-1 $-1 $98 $38 #
plane-surface $-1 -69.735421062328626 0 2.9316403048235227 0 0 1 1 0 0 forward_v I I I I #
coedge $-1 $99 $100 $101 $102 forward $39 $-1 #
face $-1 $103 $104 $23 $-1 $105 forward single #
loop $-1 $-1 $106 $41 #
plane-surface $-1 -55.716341479228966 -13.085882128531495 83.734015896900033 0 0.77714596973225614 0.62932038083071107 1 0 0 forward_v I I I I #
coedge $-1 $107 $108 $109 $110 reversed $42 $-1 #
face $-1 $-1 $111 $24 $-1 $112 forward single #
loop $-1 $113 $114 $44 #
cone-surface $-1 -58.816460361668383 45.046173657913869 6.1369601527940034 0 -0.77714596973225614 -0.62932038083071107 0.5 0 0 1 I I -0.70710678118654746 0.70710678118654746 0.5 forward I I I I #
loop $-1 $-1 $115 $31 #
coedge $-1 $72 $72 $116 $117 reversed $45 $-1 #
face $-1 $-1 $118 $25 $-1 $119 forward single #
loop $-1 $120 $121 $47 #
cone-surface $-1 -52.616222596789555 45.046173657913869 6.1369601527940034 0 -0.77714596973225614 -0.62932038083071107 0.5 0 0 1 I I -0.70710678118654746 0.70710678118654746 0.5 forward I I I I #
loop $-1 $-1 $122 $32 #
coedge $-1 $77 $77 $123 $124 reversed $48 $-1 #
face $-1 $125 $126 $26 $-1 $127 reversed single #
loop $-1 $-1 $128 $50 #
plane-surface $-1 10.012918725209772 -50.594817477616843 1.4074484057345842 0 -0.73135370988377701 0.68199835119979291 1 0 0 forward_v I I I I #
coedge $-1 $129 $130 $131 $132 reversed $51 $-1 #
face $-1 $-1 $133 $27 $-1 $134 forward single #
loop $-1 $135 $136 $53 #
cone-surface $-1 10.012918725209772 -41.8340570893576 2.9350310838157885 0 0.73135370988377701 -0.68199835119979291 0.75 0 0 1 I I -0.70710678118654757 0.70710678118654757 0.75 forward I I I I #
loop $-1 $-1 $137 $34 #
coedge $-1 $86 $86 $138 $139 reversed $54 $-1 #
face $-1 $140 $141 $21 $-1 $142 reversed single #
loop $-1 $-1 $143 $56 #
plane-surface $-1 0 -50.594817477616843 0 0 1 0 0 0 1 forward_v I I I I #
coedge $-1 $144 $145 $146 $147 forward $57 $-1 #
coedge $-1 $148 $59 $149 $150 forward $36 $-1 #
coedge $-1 $59 $148 $151 $152 forward $36 $-1 #
coedge $-1 $153 $154 $59 $94 reversed $155 $-1 #
edge $-1 $156 -50.594817477616843 $157 50.594817477616843 $93 $158 forward 7 unknown #
face $-1 $159 $160 $22 $-1 $161 reversed single #
loop $-1 $-1 $162 $60 #
plane-surface $-1 -62.949952204920933 0 5.4334913936593239 -1 0 0 0 0 1 forward_v I I I I #
coedge $-1 $163 $164 $165 $166 forward $61 $-1 #
coedge $-1 $167 $63 $168 $169 reversed $39 $-1 #
coedge $-1 $63 $167 $170 $171 reversed $39 $-1 #
coedge $-1 $162 $172 $63 $102 reversed $96 $-1 #
edge $-1 $173 -50.594817477616843 $174 50.594817477616843 $101 $175 forward 7 unknown #
face $-1 $176 $177 $23 $-1 $178 forward single #
loop $-1 $-1 $179 $64 #
plane-surface $-1 0 0 11.78100950318067 0 0 1 1 0 0 forward_v I I I I #
coedge $-1 $180 $181 $182 $183 reversed $65 $-1 #
coedge $-1 $108 $67 $184 $185 reversed $42 $-1 #
coedge $-1 $67 $107 $180 $186 reversed $42 $-1 #
coedge $-1 $182 $187 $67 $110 forward $188 $-1 #
edge $-1 $189 78.242154031062725 $190 84.928264621481503 $109 $191 forward 7 unknown #
loop $-1 $-1 $116 $68 #
plane-surface $-1 -55.716341479228966 -13.085882128531495 83.734015896900033 0 0.77714596973225614 0.62932038083071107 1 0 0 forward_v I I I I #
loop $-1 $-1 $192 $44 #
coedge $-1 $114 $114 $115 $193 reversed $69 $-1 #
coedge $-1 $115 $115 $114 $193 forward $71 $-1 #
coedge $-1 $116 $116 $72 $117 forward $111 $-1 #
edge $-1 $194 2.3708622835813796e-015 $194 6.2831853071796031 $116 $195 forward 7 unknown #
loop $-1 $-1 $123 $73 #
plane-surface $-1 -55.716341479228966 -13.085882128531495 83.734015896900033 0 0.77714596973225614 0.62932038083071107 1 0 0 forward_v I I I I #
loop $-1 $-1 $196 $47 #
coedge $-1 $121 $121 $122 $197 reversed $74 $-1 #
coedge $-1 $122 $122 $121 $197 forward $76 $-1 #
coedge $-1 $123 $123 $77 $124 forward $118 $-1 #
edge $-1 $198 2.3708622835813796e-015 $198 6.2831853071796031 $123 $199 forward 7 unknown #
face $-1 $200 $201 $26 $-1 $202 forward single #
loop $-1 $-1 $203 $78 #
plane-surface $-1 30.003938063714102 -162.52249093043139 105.78168992093663 -1 0 0 0 -0.73135370988377701 0.68199835119979291 forward_v I I I I #
coedge $-1 $204 $205 $206 $207 reversed $79 $-1 #
coedge $-1 $130 $81 $208 $209 reversed $51 $-1 #
coedge $-1 $81 $129 $204 $210 reversed $51 $-1 #
coedge $-1 $206 $211 $81 $132 forward $212 $-1 #
edge $-1 $213 41.109835457287645 $214 51.48339655473373 $131 $215 forward 7 unknown #
loop $-1 $-1 $138 $82 #
plane-surface $-1 10.012918725209772 -50.594817477616843 1.4074484057345842 0 -0.73135370988377701 0.68199835119979291 1 0 0 forward_v I I I I #
loop $-1 $-1 $216 $53 #
coedge $-1 $136 $136 $137 $217 reversed $83 $-1 #
coedge $-1 $137 $137 $136 $217 forward $85 $-1 #
coedge $-1 $138 $138 $86 $139 forward $133 $-1 #
edge $-1 $218 -2.5982903291455877e-015 $218 6.2831853071795978 $138 $219 forward 7 unknown #
face $-1 $220 $221 $21 $-1 $222 reversed single #
loop $-1 $-1 $223 $87 #
plane-surface $-1 -76.520889919736319 0 0 1 0 0 0 0 -1 forward_v I I I I #
coedge $-1 $224 $151 $225 $226 forward $88 $-1 #
coedge $-1 $227 $90 $224 $228 forward $57 $-1 #
coedge $-1 $90 $227 $229 $230 forward $57 $-1 #
coedge $-1 $154 $153 $90 $147 reversed $155 $-1 #
edge $-1 $231 -50.594817477616843 $232 50.594817477616843 $146 $233 forward 7 unknown #
coedge $-1 $92 $91 $234 $235 forward $36 $-1 #
coedge $-1 $236 $237 $91 $150 reversed $221 $-1 #
edge $-1 $157 -76.520889919736319 $238 76.520889919736319 $149 $239 forward 7 unknown #
coedge $-1 $143 $240 $92 $152 reversed $88 $-1 #
edge $-1 $241 -76.520889919736319 $156 76.520889919736319 $151 $242 forward 7 unknown #
coedge $-1 $146 $93 $240 $243 forward $155 $-1 #
coedge $-1 $93 $146 $236 $244 reversed $155 $-1 #
loop $-1 $-1 $153 $220 #
vertex $-1 $94 $245 #
vertex $-1 $94 $246 #
straight-curve $-1 76.520889919736319 0 11.78100950318067 0 1 0 I I #
face $-1 $247 $248 $22 $-1 $249 reversed single #
loop $-1 $-1 $250 $95 #
plane-surface $-1 0 -50.594817477616843 0 0 1 0 0 0 1 forward_v I I I I #
coedge $-1 $165 $101 $251 $252 reversed $96 $-1 #
coedge $-1 $253 $98 $250 $254 reversed $61 $-1 #
coedge $-1 $98 $253 $255 $256 reversed $61 $-1 #
coedge $-1 $172 $162 $98 $166 reversed $96 $-1 #
edge $-1 $257 -50.594817477616843 $258 50.594817477616843 $165 $259 forward 7 unknown #
coedge $-1 $100 $99 $260 $261 reversed $39 $-1 #
coedge $-1 $262 $263 $99 $169 forward $264 $-1 #
edge $-1 $265 -41.653179388572006 $174 -28.08224167375662 $168 $266 forward 7 unknown #
coedge $-1 $267 $251 $100 $171 forward $160 $-1 #
edge $-1 $173 28.08224167375662 $268 41.653179388572006 $170 $269 forward 7 unknown #
coedge $-1 $101 $165 $262 $270 reversed $96 $-1 #
vertex $-1 $171 $271 #
vertex $-1 $169 $272 #
straight-curve $-1 -62.949952204920933 0 7.9353424824951251 0 1 0 I I #
face $-1 $-1 $188 $23 $-1 $273 reversed single #
loop $-1 $-1 $274 $103 #
plane-surface $-1 -62.949952204920933 0 5.4334913936593239 -1 0 0 0 0 1 forward_v I I I I #
coedge $-1 $275 $276 $277 $278 forward $104 $-1 #
coedge $-1 $279 $106 $108 $186 forward $65 $-1 #
coedge $-1 $106 $279 $274 $280 forward $65 $-1 #
coedge $-1 $281 $109 $106 $183 forward $188 $-1 #
edge $-1 $190 20.624560013922515 $282 35.091781465306454 $182 $283 forward 7 unknown #
coedge $-1 $276 $275 $107 $185 forward $104 $-1 #
edge $-1 $284 -7.7444481142907122 $189 -2.3301426595661141 $184 $285 forward 7 unknown #
edge $-1 $190 -101.18963495523376 $284 -92.586218286004566 $108 $286 forward 7 unknown #
coedge $-1 $109 $281 $276 $287 reversed $188 $-1 #
loop $-1 $-1 $281 $176 #
vertex $-1 $287 $288 #
vertex $-1 $110 $289 #
straight-curve $-1 -48.482730753536998 50.594817477616843 90.023163534243395 0 0 -1 I I #
coedge $-1 $192 $192 $-1 $290 reversed $113 $-1 #
edge $-1 $291 0 $291 6.2831853071796004 $114 $292 forward 7 unknown #
vertex $-1 $117 $293 #
ellipse-curve $-1 -58.816460361668383 47.887664750254544 8.4379542079712877 0 0.77714596973225614 0.62932038083071107 1 0 0 1 I I #
coedge $-1 $196 $196 $-1 $294 reversed $120 $-1 #
edge $-1 $295 0 $295 6.2831853071796004 $121 $296 forward 7 unknown #
vertex $-1 $124 $297 #
ellipse-curve $-1 -52.616222596789555 47.887664750254544 8.4379542079712877 0 0.77714596973225614 0.62932038083071107 1 0 0 1 I I #
face $-1 $-1 $212 $26 $-1 $298 reversed single #
loop $-1 $-1 $299 $125 #
plane-surface $-1 0 0 11.78100950318067 0 0 1 1 0 0 forward_v I I I I #
coedge $-1 $300 $301 $302 $303 reversed $126 $-1 #
coedge $-1 $304 $128 $130 $210 forward $79 $-1 #
coedge $-1 $128 $304 $300 $305 forward $79 $-1 #
coedge $-1 $302 $131 $128 $207 forward $212 $-1 #
edge $-1 $214 -14.984559975899444 $306 24.997478701109216 $206 $307 forward 7 unknown #
coedge $-1 $308 $309 $129 $209 forward $201 $-1 #
edge $-1 $310 -40.339929972914312 $213 -30.666427987598851 $208 $311 forward 7 unknown #
edge $-1 $214 0 $310 14.184054797636289 $130 $312 forward 7 unknown #
coedge $-1 $131 $302 $308 $313 reversed $212 $-1 #
loop $-1 $-1 $302 $200 #
vertex $-1 $313 $314 #
vertex $-1 $132 $315 #
straight-curve $-1 -9.9781006132945578 -50.594817477616843 52.890844960468314 0 0 -1 I I #
coedge $-1 $216 $216 $-1 $316 reversed $135 $-1 #
edge $-1 $317 0 $317 6.2831853071796004 $136 $318 forward 7 unknown #
vertex $-1 $139 $319 #
ellipse-curve $-1 10.012918725209772 -45.758066484959109 6.5942289544576287 0 -0.73135370988377701 0.68199835119979291 1.5 0 0 1 I I #
face $-1 $-1 $155 $21 $-1 $320 reversed single #
loop $-1 $-1 $236 $140 #
plane-surface $-1 0 50.594817477616843 0 0 -1 0 0 0 -1 forward_v I I I I #
coedge $-1 $321 $234 $237 $322 forward $141 $-1 #
coedge $-1 $240 $143 $144 $228 reversed $88 $-1 #
coedge $-1 $234 $321 $143 $226 reversed $141 $-1 #
edge $-1 $241 -11.78100950318067 $323 11.78100950318067 $225 $324 forward 7 unknown #
coedge $-1 $145 $144 $321 $325 forward $57 $-1 #
edge $-1 $232 -76.520889919736319 $323 76.520889919736319 $224 $326 forward 7 unknown #
coedge $-1 $237 $236 $145 $230 reversed $221 $-1 #
edge $-1 $327 -76.520889919736319 $231 76.520889919736319 $229 $328 forward 7 unknown #
vertex $-1 $147 $329 #
vertex $-1 $243 $330 #
straight-curve $-1 76.520889919736319 0 -11.78100950318067 0 -1 0 I I #
coedge $-1 $223 $225 $148 $235 reversed $141 $-1 #
edge $-1 $238 -50.594817477616843 $241 50.594817477616843 $234 $331 forward 7 unknown #
coedge $-1 $229 $149 $154 $244 forward $221 $-1 #
coedge $-1 $149 $229 $223 $322 reversed $221 $-1 #
vertex $-1 $150 $332 #
straight-curve $-1 0 50.594817477616843 11.78100950318067 -1 0 0 I I #
coedge $-1 $151 $224 $153 $243 reversed $88 $-1 #
vertex $-1 $235 $333 #
straight-curve $-1 0 -50.594817477616843 11.78100950318067 1 0 0 I I #
edge $-1 $156 -11.78100950318067 $232 11.78100950318067 $153 $334 forward 7 unknown #
edge $-1 $157 -11.78100950318067 $231 11.78100950318067 $154 $335 forward 7 unknown #
point $-1 76.520889919736319 -50.594817477616843 11.78100950318067 #
point $-1 76.520889919736319 50.594817477616843 11.78100950318067 #
face $-1 $-1 $264 $22 $-1 $336 reversed single #
loop $-1 $-1 $337 $159 #
plane-surface $-1 -76.520889919736319 0 0 1 0 0 0 0 -1 forward_v I I I I #
coedge $-1 $251 $267 $163 $254 forward $160 $-1 #
coedge $-1 $170 $250 $162 $252 forward $160 $-1 #
edge $-1 $258 0.21489460799386073 $173 5.2185967856654631 $251 $338 forward 7 unknown #
coedge $-1 $164 $163 $337 $339 reversed $61 $-1 #
edge $-1 $340 -41.653179388572006 $258 -28.08224167375662 $250 $341 forward 7 unknown #
coedge $-1 $263 $262 $164 $256 forward $264 $-1 #
edge $-1 $257 28.08224167375662 $342 41.653179388572006 $255 $343 forward 7 unknown #
vertex $-1 $256 $344 #
vertex $-1 $254 $345 #
straight-curve $-1 -62.949952204920933 0 2.9316403048235227 0 -1 0 I I #
coedge $-1 $346 $347 $167 $261 forward $248 $-1 #
edge $-1 $268 -50.594817477616843 $265 50.594817477616843 $260 $348 forward 7 unknown #
coedge $-1 $255 $168 $172 $270 forward $264 $-1 #
coedge $-1 $168 $255 $346 $349 reversed $264 $-1 #
loop $-1 $-1 $255 $247 #
vertex $-1 $349 $350 #
straight-curve $-1 -34.867710531164313 50.594817477616843 7.9353424824951251 1 0 0 I I #
coedge $-1 $250 $170 $347 $351 forward $160 $-1 #
vertex $-1 $351 $352 #
straight-curve $-1 -34.867710531164313 -50.594817477616843 7.9353424824951251 -1 0 0 I I #
edge $-1 $174 -5.2185967856654631 $257 -0.21489460799386073 $262 $353 forward 7 unknown #
point $-1 -62.949952204920933 -50.594817477616843 7.9353424824951251 #
point $-1 -62.949952204920933 50.594817477616843 7.9353424824951251 #
plane-surface $-1 0 50.594817477616843 0 0 -1 0 0 0 -1 forward_v I I I I #
coedge $-1 $277 $354 $181 $280 reversed $177 $-1 #
coedge $-1 $184 $179 $279 $355 forward $104 $-1 #
coedge $-1 $179 $184 $187 $287 forward $104 $-1 #
coedge $-1 $354 $274 $179 $278 reversed $177 $-1 #
edge $-1 $356 2.3301426595661141 $357 7.7444481142907122 $179 $358 forward 7 unknown #
coedge $-1 $181 $180 $275 $355 reversed $65 $-1 #
edge $-1 $357 92.586218286004566 $282 101.18963495523376 $274 $359 forward 7 unknown #
coedge $-1 $187 $182 $354 $360 forward $188 $-1 #
vertex $-1 $360 $361 #
straight-curve $-1 -27.858170739614483 50.594817477616843 5.0948989127619058 -1 0 0 I I #
vertex $-1 $185 $362 #
straight-curve $-1 -48.482730753536998 52.924960137182957 11.78100950318067 0 1 0 I I #
straight-curve $-1 -48.482730753536998 -13.085882128531495 83.734015896900033 0 -0.62932038083071107 0.77714596973225614 I I #
edge $-1 $189 48.482730753536998 $356 62.949952204920933 $187 $363 forward 7 unknown #
point $-1 -48.482730753536998 50.594817477616843 11.78100950318067 #
point $-1 -48.482730753536998 50.594817477616843 5.0948989127618916 #
edge $-1 $364 1 $364 0 $192 $-1 forward 7 unknown #
vertex $-1 $193 $365 #
ellipse-curve $-1 -58.816460361668383 45.434746642779999 6.4516203432093588 0 0.77714596973225614 0.62932038083071107 1 0 0 1 I I #
point $-1 -57.816460361668383 47.887664750254565 8.4379542079713019 #
edge $-1 $366 1 $366 0 $196 $-1 forward 7 unknown #
vertex $-1 $197 $367 #
ellipse-curve $-1 -52.616222596789555 45.434746642779999 6.4516203432093588 0 0.77714596973225614 0.62932038083071107 1 0 0 1 I I #
point $-1 -51.616222596789555 47.887664750254565 8.4379542079713019 #
plane-surface $-1 0 -50.594817477616843 0 0 1 0 0 0 1 forward_v I I I I #
coedge $-1 $309 $308 $301 $368 forward $201 $-1 #
coedge $-1 $301 $203 $205 $305 reversed $126 $-1 #
coedge $-1 $203 $300 $299 $368 reversed $126 $-1 #
coedge $-1 $211 $206 $203 $303 forward $212 $-1 #
edge $-1 $306 -51.48339655473373 $369 -41.109835457287645 $302 $370 forward 7 unknown #
coedge $-1 $205 $204 $309 $371 reversed $79 $-1 #
edge $-1 $372 -14.184054797636289 $306 0 $300 $373 forward 7 unknown #
vertex $-1 $207 $374 #
straight-curve $-1 5.0064593626048861 -50.594817477616843 1.4074484057345877 1 0 0 I I #
coedge $-1 $299 $208 $211 $313 forward $201 $-1 #
coedge $-1 $208 $299 $304 $371 forward $201 $-1 #
vertex $-1 $209 $375 #
straight-curve $-1 -9.9781006132945578 -81.261245465215694 11.78100950318067 0 -1 0 I I #
straight-curve $-1 -9.9781006132945578 -50.594817477616843 1.4074484057345842 0 0.68199835119979291 0.73135370988377701 I I #
edge $-1 $213 -9.9781006132945578 $369 30.003938063714102 $211 $376 forward 7 unknown #
point $-1 -9.9781006132945578 -50.594817477616843 11.78100950318067 #
point $-1 -9.9781006132945578 -50.594817477616843 1.4074484057345842 #
edge $-1 $377 1 $377 0 $216 $-1 forward 7 unknown #
vertex $-1 $217 $378 #
ellipse-curve $-1 10.012918725209772 -42.382572371770436 3.4465298472156332 0 -0.73135370988377701 0.68199835119979291 1.5 0 0 1 I I #
point $-1 11.512918725209772 -45.758066484959109 6.5942289544576234 #
plane-surface $-1 76.520889919736319 0 0 -1 0 0 0 0 1 forward_v I I I I #
coedge $-1 $225 $223 $227 $325 reversed $141 $-1 #
edge $-1 $238 -11.78100950318067 $327 11.78100950318067 $237 $379 forward 7 unknown #
vertex $-1 $325 $380 #
straight-curve $-1 -76.520889919736319 -50.594817477616843 0 0 0 -1 I I #
edge $-1 $323 -50.594817477616843 $327 50.594817477616843 $321 $381 forward 7 unknown #
straight-curve $-1 0 -50.594817477616843 -11.78100950318067 -1 0 0 I I #
vertex $-1 $230 $382 #
straight-curve $-1 0 50.594817477616843 -11.78100950318067 1 0 0 I I #
point $-1 76.520889919736319 50.594817477616843 -11.78100950318067 #
point $-1 76.520889919736319 -50.594817477616843 -11.78100950318067 #
straight-curve $-1 -76.520889919736319 0 11.78100950318067 0 -1 0 I I #
point $-1 -76.520889919736319 50.594817477616843 11.78100950318067 #
point $-1 -76.520889919736319 -50.594817477616843 11.78100950318067 #
straight-curve $-1 76.520889919736319 -50.594817477616843 0 0 0 -1 I I #
straight-curve $-1 76.520889919736319 50.594817477616843 0 0 0 -1 I I #
plane-surface $-1 0 50.594817477616843 0 0 -1 0 0 0 -1 forward_v I I I I #
coedge $-1 $347 $346 $253 $339 forward $248 $-1 #
straight-curve $-1 -62.949952204920933 -50.594817477616843 2.7167456968296619 0 0 1 I I #
edge $-1 $342 -50.594817477616843 $340 50.594817477616843 $337 $383 forward 7 unknown #
vertex $-1 $254 $384 #
straight-curve $-1 -34.867710531164313 -50.594817477616843 2.9316403048235227 1 0 0 I I #
vertex $-1 $256 $385 #
straight-curve $-1 -34.867710531164313 50.594817477616843 2.9316403048235227 -1 0 0 I I #
point $-1 -62.949952204920933 50.594817477616843 2.9316403048235227 #
point $-1 -62.949952204920933 -50.594817477616843 2.9316403048235227 #
coedge $-1 $337 $260 $263 $349 forward $248 $-1 #
coedge $-1 $260 $337 $267 $351 reversed $248 $-1 #
straight-curve $-1 -76.520889919736319 0 7.9353424824951251 0 1 0 I I #
edge $-1 $265 -7.9353424824951251 $342 -2.9316403048235227 $263 $386 forward 7 unknown #
point $-1 -76.520889919736319 50.594817477616843 7.9353424824951251 #
edge $-1 $268 -7.9353424824951251 $340 -2.9316403048235227 $347 $387 forward 7 unknown #
point $-1 -76.520889919736319 -50.594817477616843 7.9353424824951251 #
straight-curve $-1 -62.949952204920933 50.594817477616843 2.7167456968296619 0 0 -1 I I #
coedge $-1 $274 $277 $281 $360 reversed $177 $-1 #
edge $-1 $357 -35.091781465306454 $284 -20.624560013922515 $275 $388 forward 7 unknown #
vertex $-1 $360 $389 #
vertex $-1 $355 $390 #
straight-curve $-1 -62.949952204920933 52.924960137182957 11.78100950318067 0 -1 0 I I #
straight-curve $-1 -62.949952204920933 -13.085882128531495 83.734015896900033 0 0.62932038083071107 -0.77714596973225614 I I #
edge $-1 $282 -84.928264621481503 $356 -78.242154031062725 $281 $391 forward 7 unknown #
point $-1 -62.949952204920933 50.594817477616843 5.0948989127618924 #
point $-1 -48.482730753536998 45.180512022892245 11.78100950318067 #
straight-curve $-1 0 50.594817477616843 11.78100950318067 -1 0 0 I I #
vertex $-1 $290 $392 #
point $-1 -57.816460361668383 45.434746642779999 6.4516203432093588 #
vertex $-1 $294 $393 #
point $-1 -51.616222596789555 45.434746642779999 6.4516203432093588 #
edge $-1 $369 30.666427987598851 $372 40.339929972914312 $299 $394 forward 7 unknown #
vertex $-1 $303 $395 #
straight-curve $-1 30.003938063714102 -50.594817477616843 52.890844960468314 0 0 1 I I #
edge $-1 $372 -24.997478701109216 $310 14.984559975899444 $309 $396 forward 7 unknown #
vertex $-1 $371 $397 #
straight-curve $-1 30.003938063714102 -50.594817477616843 1.4074484057345842 0 -0.68199835119979291 -0.73135370988377701 I I #
point $-1 30.003938063714102 -50.594817477616843 1.4074484057345842 #
point $-1 -9.9781006132945578 -40.921315492301382 11.78100950318067 #
straight-curve $-1 0 -50.594817477616843 11.78100950318067 1 0 0 I I #
vertex $-1 $316 $398 #
point $-1 11.512918725209772 -42.382572371770436 3.4465298472156332 #
straight-curve $-1 -76.520889919736319 50.594817477616843 0 0 0 -1 I I #
point $-1 -76.520889919736319 -50.594817477616843 -11.78100950318067 #
straight-curve $-1 -76.520889919736319 0 -11.78100950318067 0 1 0 I I #
point $-1 -76.520889919736319 50.594817477616843 -11.78100950318067 #
straight-curve $-1 -76.520889919736319 0 2.9316403048235227 0 -1 0 I I #
point $-1 -76.520889919736319 -50.594817477616843 2.9316403048235227 #
point $-1 -76.520889919736319 50.594817477616843 2.9316403048235227 #
straight-curve $-1 -76.520889919736319 50.594817477616843 0 0 0 -1 I I #
straight-curve $-1 -76.520889919736319 -50.594817477616843 0 0 0 -1 I I #
straight-curve $-1 -27.858170739614483 45.180512022892238 11.78100950318067 1 0 0 I I #
point $-1 -62.949952204920933 50.594817477616843 11.78100950318067 #
point $-1 -62.949952204920933 45.180512022892245 11.78100950318067 #
straight-curve $-1 -62.949952204920933 50.594817477616843 90.023163534243395 0 0 1 I I #
point $-1 -58.816460361668383 44.657600673047739 5.822299962378648 #
point $-1 -52.616222596789555 44.657600673047739 5.822299962378648 #
straight-curve $-1 30.003938063714102 -81.261245465215694 11.78100950318067 0 1 0 I I #
point $-1 30.003938063714102 -50.594817477616843 11.78100950318067 #
straight-curve $-1 5.0064593626048861 -40.921315492301382 11.78100950318067 -1 0 0 I I #
point $-1 30.003938063714102 -40.921315492301382 11.78100950318067 #
point $-1 10.012918725209772 -41.285541806944764 2.4235323204159438 #
End-of-ACIS-data 