500 0 11 0           
7 Unknown 11 ACIS 5.0 NT 24 Fri Mar 26 20:11:47 1999 
-1 9.9999999999999995e-007 1e-010 
body $-1 $11 $-1 $12 #
body $-1 $13 $-1 $14 #
body $-1 $15 $-1 $16 #
body $-1 $17 $-1 $18 #
body $-1 $19 $-1 $20 #
body $-1 $21 $-1 $22 #
body $-1 $23 $-1 $24 #
body $-1 $25 $-1 $26 #
body $-1 $27 $-1 $28 #
body $-1 $29 $-1 $30 #
body $-1 $31 $-1 $32 #
lump $-1 $-1 $33 $0 #
transform $-1 1 0 0 0 1 0 0 0 1 74.153874324777973 35.731770900642474 12.253728129231224 1 rotate no_reflect no_shear #
lump $-1 $-1 $34 $1 #
transform $-1 1 0 0 0 1 0 0 0 1 74.153874324777973 35.731770900642474 12.253728129231224 1 rotate no_reflect no_shear #
lump $-1 $-1 $35 $2 #
transform $-1 1 0 0 0 1 0 0 0 1 74.153874324777973 35.731770900642474 12.253728129231224 1 rotate no_reflect no_shear #
lump $-1 $-1 $36 $3 #
transform $-1 1 0 0 0 1 0 0 0 1 74.153874324777973 35.731770900642474 12.253728129231224 1 rotate no_reflect no_shear #
lump $-1 $-1 $37 $4 #
transform $-1 1 0 0 0 1 0 0 0 1 74.153874324777973 35.731770900642474 12.253728129231224 1 rotate no_reflect no_shear #
lump $-1 $-1 $38 $5 #
transform $-1 1 0 0 0 1 0 0 0 1 74.153874324777973 35.731770900642474 12.253728129231224 1 rotate no_reflect no_shear #
lump $-1 $-1 $39 $6 #
transform $-1 1 0 0 0 1 0 0 0 1 74.153874324777973 35.731770900642474 12.253728129231224 1 rotate no_reflect no_shear #
lump $-1 $-1 $40 $7 #
transform $-1 1 0 0 0 1 0 0 0 1 74.153874324777973 35.731770900642474 12.253728129231224 1 rotate no_reflect no_shear #
lump $-1 $-1 $41 $8 #
transform $-1 1 0 0 0 1 0 0 0 1 74.153874324777973 35.731770900642474 12.253728129231224 1 rotate no_reflect no_shear #
lump $-1 $-1 $42 $9 #
transform $-1 1 0 0 0 1 0 0 0 1 74.153874324777973 35.731770900642474 12.253728129231224 1 rotate no_reflect no_shear #
lump $-1 $-1 $43 $10 #
transform $-1 1 0 0 0 1 0 0 0 1 74.153874324777973 35.731770900642474 12.253728129231224 1 rotate no_reflect no_shear #
shell $-1 $-1 $-1 $44 $-1 $11 #
shell $-1 $-1 $-1 $45 $-1 $13 #
shell $-1 $-1 $-1 $46 $-1 $15 #
shell $-1 $-1 $-1 $47 $-1 $17 #
shell $-1 $-1 $-1 $48 $-1 $19 #
shell $-1 $-1 $-1 $49 $-1 $21 #
shell $-1 $-1 $-1 $50 $-1 $23 #
shell $-1 $-1 $-1 $51 $-1 $25 #
shell $-1 $-1 $-1 $52 $-1 $27 #
shell $-1 $-1 $-1 $53 $-1 $29 #
shell $-1 $-1 $-1 $54 $-1 $31 #
face $-1 $55 $56 $33 $-1 $57 forward single #
face $-1 $58 $59 $34 $-1 $60 forward single #
face $-1 $61 $62 $35 $-1 $63 reversed single #
face $-1 $64 $65 $36 $-1 $66 forward single #
face $-1 $67 $68 $37 $-1 $69 forward single #
face $-1 $70 $71 $38 $-1 $72 reversed single #
face $-1 $73 $74 $39 $-1 $75 forward single #
face $-1 $76 $77 $40 $-1 $78 forward single #
face $-1 $79 $80 $41 $-1 $81 reversed single #
face $-1 $82 $83 $42 $-1 $84 forward single #
face $-1 $85 $86 $43 $-1 $87 forward single #
face $-1 $88 $89 $33 $-1 $90 reversed single #
loop $-1 $-1 $91 $44 #
plane-surface $-1 0 0 12.253728129231224 0 0 1 1 0 0 forward_v I I I I #
face $-1 $92 $93 $34 $-1 $94 reversed single #
loop $-1 $-1 $95 $45 #
plane-surface $-1 0 -35.731770900642474 0 0 1 0 0 0 1 forward_v I I I I #
face $-1 $96 $97 $35 $-1 $98 reversed single #
loop $-1 $-1 $99 $46 #
plane-surface $-1 -150.53801269957935 -4.1666632948163524 136.27350599570835 0 1 0 -0.51503808176128008 0 0.85716729658548041 forward_v I I I I #
face $-1 $100 $101 $36 $-1 $102 forward single #
loop $-1 $103 $104 $47 #
cone-surface $-1 -70.62959737770295 -1.4487066768272783 9.1358015384714051 0.51503808176128008 0 -0.85716729658548041 0.85716729658548041 0 0.51503808176128008 1 I I 0 1 1 forward I I I I #
face $-1 $105 $106 $37 $-1 $107 forward single #
loop $-1 $108 $109 $48 #
cone-surface $-1 -70.62959737770295 2.628228250156333 9.1358015384714051 0.51503808176128008 0 -0.85716729658548041 0.85716729658548041 0 0.51503808176128008 1 I I 0 1 1 forward I I I I #
face $-1 $110 $111 $38 $-1 $112 reversed single #
loop $-1 $-1 $113 $49 #
plane-surface $-1 -150.53801269957935 26.218922737680721 136.27350599570835 0 1 0 -0.51503808176128008 0 0.85716729658548041 forward_v I I I I #
face $-1 $114 $115 $39 $-1 $116 forward single #
loop $-1 $117 $118 $50 #
cone-surface $-1 -70.62959737770295 28.936879355669788 9.1358015384714051 0.51503808176128008 0 -0.85716729658548041 0.85716729658548041 0 0.51503808176128008 1 I I 0 1 1 forward I I I I #
face $-1 $119 $120 $40 $-1 $121 forward single #
loop $-1 $122 $123 $51 #
cone-surface $-1 -70.62959737770295 33.013814282653399 9.1358015384714051 0.51503808176128008 0 -0.85716729658548041 0.85716729658548041 0 0.51503808176128008 1 I I 0 1 1 forward I I I I #
face $-1 $124 $125 $41 $-1 $126 reversed single #
loop $-1 $-1 $127 $52 #
plane-surface $-1 34.13382077266931 -13.275947104906642 206.13301041779616 0 -1 0 -0.55919291073839883 0 -0.82903756765294845 forward_v I I I I #
face $-1 $128 $129 $42 $-1 $130 forward single #
loop $-1 $131 $132 $53 #
cone-surface $-1 64.435829523640876 -19.558559042837107 5.0376827895492111 -0.55919291073839883 0 -0.82903756765294845 0.82903756765294845 0 -0.55919291073839883 1 I I 0 1 1 forward I I I I #
face $-1 $133 $134 $43 $-1 $135 forward single #
loop $-1 $136 $137 $54 #
cone-surface $-1 64.435829523640876 -15.788991880078825 5.0376827895492111 -0.55919291073839883 0 -0.82903756765294845 0.82903756765294845 0 -0.55919291073839883 1 I I 0 1 1 forward I I I I #
face $-1 $138 $139 $33 $-1 $140 reversed single #
loop $-1 $-1 $141 $55 #
plane-surface $-1 0 0 -12.253728129231224 0 0 1 1 0 0 forward_v I I I I #
coedge $-1 $142 $143 $144 $145 forward $56 $-1 #
face $-1 $146 $147 $34 $-1 $148 reversed single #
loop $-1 $-1 $149 $58 #
plane-surface $-1 0 0 -12.253728129231224 0 0 1 1 0 0 forward_v I I I I #
coedge $-1 $150 $151 $152 $153 forward $59 $-1 #
face $-1 $154 $155 $35 $-1 $156 reversed single #
loop $-1 $-1 $157 $61 #
plane-surface $-1 -74.153874324777988 0.58976078666452736 9.1489540230895443 -0.51503808176128008 0 0.85716729658548041 0.85716729658548041 0 0.51503808176128008 forward_v I I I I #
coedge $-1 $158 $159 $160 $161 reversed $62 $-1 #
face $-1 $-1 $162 $36 $-1 $163 forward single #
loop $-1 $164 $165 $64 #
cone-surface $-1 -69.431407264063566 -1.4487066768272783 7.1416783524896879 0.51503808176128008 0 -0.85716729658548041 0.4285836482927402 0 0.25751904088064004 1 I I -0.70710678118654746 0.70710678118654746 0.5 forward I I I I #
loop $-1 $-1 $166 $47 #
coedge $-1 $104 $104 $167 $168 reversed $65 $-1 #
face $-1 $-1 $169 $37 $-1 $170 forward single #
loop $-1 $171 $172 $67 #
cone-surface $-1 -69.431407264063566 2.628228250156333 7.1416783524896879 0.51503808176128008 0 -0.85716729658548041 0.4285836482927402 0 0.25751904088064004 1 I I -0.70710678118654746 0.70710678118654746 0.5 forward I I I I #
loop $-1 $-1 $173 $48 #
coedge $-1 $109 $109 $174 $175 reversed $68 $-1 #
face $-1 $176 $177 $38 $-1 $178 forward single #
loop $-1 $-1 $179 $70 #
plane-surface $-1 -74.153874324777988 30.975346819161601 9.1489540230895443 -0.51503808176128008 0 0.85716729658548041 0.85716729658548041 0 0.51503808176128008 forward_v I I I I #
coedge $-1 $180 $181 $182 $183 reversed $71 $-1 #
face $-1 $-1 $184 $39 $-1 $185 forward single #
loop $-1 $186 $187 $73 #
cone-surface $-1 -69.431407264063566 28.936879355669788 7.1416783524896879 0.51503808176128008 0 -0.85716729658548041 0.4285836482927402 0 0.25751904088064004 1 I I -0.70710678118654746 0.70710678118654746 0.5 forward I I I I #
loop $-1 $-1 $188 $50 #
coedge $-1 $118 $118 $189 $190 reversed $74 $-1 #
face $-1 $-1 $191 $40 $-1 $192 forward single #
loop $-1 $193 $194 $76 #
cone-surface $-1 -69.431407264063566 33.013814282653399 7.1416783524896879 0.51503808176128008 0 -0.85716729658548041 0.4285836482927402 0 0.25751904088064004 1 I I -0.70710678118654746 0.70710678118654746 0.5 forward I I I I #
loop $-1 $-1 $195 $51 #
coedge $-1 $123 $123 $196 $197 reversed $77 $-1 #
face $-1 $198 $199 $41 $-1 $200 reversed single #
loop $-1 $-1 $201 $79 #
plane-surface $-1 -48.79882087973472 -17.673775461457968 83.18031521328345 0.55919291073839883 0 0.82903756765294845 0.82903756765294845 0 -0.55919291073839883 forward_v I I I I #
coedge $-1 $202 $203 $204 $205 reversed $80 $-1 #
face $-1 $-1 $206 $42 $-1 $207 forward single #
loop $-1 $208 $209 $82 #
cone-surface $-1 63.338042043277426 -19.558559042837107 3.4101459502166129 -0.55919291073839883 0 -0.82903756765294845 0.41451878382647422 0 -0.27959645536919941 1 I I -0.70710678118654746 0.70710678118654746 0.5 forward I I I I #
loop $-1 $-1 $210 $53 #
coedge $-1 $132 $132 $211 $212 reversed $83 $-1 #
face $-1 $-1 $213 $43 $-1 $214 forward single #
loop $-1 $215 $216 $85 #
cone-surface $-1 63.338042043277426 -15.788991880078825 3.4101459502166129 -0.55919291073839883 0 -0.82903756765294845 0.41451878382647422 0 -0.27959645536919941 1 I I -0.70710678118654746 0.70710678118654746 0.5 forward I I I I #
loop $-1 $-1 $217 $54 #
coedge $-1 $137 $137 $218 $219 reversed $86 $-1 #
face $-1 $220 $221 $33 $-1 $222 reversed single #
loop $-1 $-1 $223 $88 #
plane-surface $-1 0 -35.731770900642474 0 0 1 0 0 0 1 forward_v I I I I #
coedge $-1 $224 $225 $226 $227 forward $89 $-1 #
coedge $-1 $228 $91 $229 $230 forward $56 $-1 #
coedge $-1 $91 $228 $231 $232 forward $56 $-1 #
coedge $-1 $233 $234 $91 $145 reversed $235 $-1 #
edge $-1 $236 -35.731770900642474 $237 35.731770900642474 $144 $238 forward 7 unknown #
face $-1 $239 $240 $34 $-1 $241 forward single #
loop $-1 $-1 $242 $92 #
plane-surface $-1 74.153874324777973 0 0 -1 0 0 0 0 1 forward_v I I I I #
coedge $-1 $243 $244 $245 $246 forward $93 $-1 #
coedge $-1 $245 $95 $242 $247 reversed $59 $-1 #
coedge $-1 $95 $245 $248 $249 reversed $59 $-1 #
coedge $-1 $250 $251 $95 $153 reversed $240 $-1 #
edge $-1 $252 -74.153874324777973 $253 74.153874324777973 $152 $254 forward 7 unknown #
face $-1 $255 $256 $35 $-1 $257 forward single #
loop $-1 $-1 $258 $96 #
plane-surface $-1 -150.53801269957935 5.3461848681454072 136.27350599570835 0 -1 0 0.51503808176128008 0 -0.85716729658548041 forward_v I I I I #
coedge $-1 $259 $260 $261 $262 reversed $97 $-1 #
coedge $-1 $159 $99 $263 $264 reversed $62 $-1 #
coedge $-1 $99 $158 $259 $265 reversed $62 $-1 #
coedge $-1 $261 $266 $99 $161 forward $256 $-1 #
edge $-1 $267 1.1151320250117038 $268 6.2823437736442571 $160 $269 forward 7 unknown #
loop $-1 $-1 $167 $100 #
plane-surface $-1 -74.153874324777988 0.58976078666452736 9.1489540230895443 -0.51503808176128008 0 0.85716729658548041 0.85716729658548041 0 0.51503808176128008 forward_v I I I I #
loop $-1 $-1 $270 $64 #
coedge $-1 $165 $165 $166 $271 reversed $101 $-1 #
coedge $-1 $166 $166 $165 $271 forward $103 $-1 #
coedge $-1 $167 $167 $104 $168 forward $162 $-1 #
edge $-1 $272 0 $272 6.2831853071796004 $167 $273 forward 7 unknown #
loop $-1 $-1 $174 $105 #
plane-surface $-1 -74.153874324777988 0.58976078666452736 9.1489540230895443 -0.51503808176128008 0 0.85716729658548041 0.85716729658548041 0 0.51503808176128008 forward_v I I I I #
loop $-1 $-1 $274 $67 #
coedge $-1 $172 $172 $173 $275 reversed $106 $-1 #
coedge $-1 $173 $173 $172 $275 forward $108 $-1 #
coedge $-1 $174 $174 $109 $175 forward $169 $-1 #
edge $-1 $276 0 $276 6.2831853071796004 $174 $277 forward 7 unknown #
face $-1 $278 $279 $38 $-1 $280 reversed single #
loop $-1 $-1 $182 $110 #
plane-surface $-1 0 0 12.253728129231224 0 0 1 1 0 0 forward_v I I I I #
coedge $-1 $281 $282 $283 $284 reversed $111 $-1 #
coedge $-1 $181 $113 $285 $286 reversed $71 $-1 #
coedge $-1 $113 $180 $281 $287 reversed $71 $-1 #
coedge $-1 $283 $288 $113 $183 forward $177 $-1 #
edge $-1 $289 1.1151320250117038 $290 6.2823437736442571 $182 $291 forward 7 unknown #
loop $-1 $-1 $189 $114 #
plane-surface $-1 -74.153874324777988 30.975346819161601 9.1489540230895443 -0.51503808176128008 0 0.85716729658548041 0.85716729658548041 0 0.51503808176128008 forward_v I I I I #
loop $-1 $-1 $292 $73 #
coedge $-1 $187 $187 $188 $293 reversed $115 $-1 #
coedge $-1 $188 $188 $187 $293 forward $117 $-1 #
coedge $-1 $189 $189 $118 $190 forward $184 $-1 #
edge $-1 $294 0 $294 6.2831853071796004 $189 $295 forward 7 unknown #
loop $-1 $-1 $196 $119 #
plane-surface $-1 -74.153874324777988 30.975346819161601 9.1489540230895443 -0.51503808176128008 0 0.85716729658548041 0.85716729658548041 0 0.51503808176128008 forward_v I I I I #
loop $-1 $-1 $296 $76 #
coedge $-1 $194 $194 $195 $297 reversed $120 $-1 #
coedge $-1 $195 $195 $194 $297 forward $122 $-1 #
coedge $-1 $196 $196 $123 $197 forward $191 $-1 #
edge $-1 $298 0 $298 6.2831853071796004 $196 $299 forward 7 unknown #
face $-1 $300 $301 $41 $-1 $302 forward single #
loop $-1 $-1 $303 $124 #
plane-surface $-1 34.13382077266931 -22.071603818009294 206.13301041779616 0 1 0 0.55919291073839883 0 0.82903756765294845 forward_v I I I I #
coedge $-1 $304 $305 $306 $307 reversed $125 $-1 #
coedge $-1 $203 $127 $308 $309 reversed $80 $-1 #
coedge $-1 $127 $202 $304 $310 reversed $80 $-1 #
coedge $-1 $306 $311 $127 $205 forward $301 $-1 #
edge $-1 $312 -57.086963938443319 $313 -39.287256386157551 $204 $314 forward 7 unknown #
loop $-1 $-1 $211 $128 #
plane-surface $-1 -48.79882087973472 -17.673775461457968 83.18031521328345 0.55919291073839883 0 0.82903756765294845 0.82903756765294845 0 -0.55919291073839883 forward_v I I I I #
loop $-1 $-1 $315 $82 #
coedge $-1 $209 $209 $210 $316 reversed $129 $-1 #
coedge $-1 $210 $210 $209 $316 forward $131 $-1 #
coedge $-1 $211 $211 $132 $212 forward $206 $-1 #
edge $-1 $317 0 $317 6.2831853071796004 $211 $318 forward 7 unknown #
loop $-1 $-1 $218 $133 #
plane-surface $-1 -48.79882087973472 -17.673775461457968 83.18031521328345 0.55919291073839883 0 0.82903756765294845 0.82903756765294845 0 -0.55919291073839883 forward_v I I I I #
loop $-1 $-1 $319 $85 #
coedge $-1 $216 $216 $217 $320 reversed $134 $-1 #
coedge $-1 $217 $217 $216 $320 forward $136 $-1 #
coedge $-1 $218 $218 $137 $219 forward $213 $-1 #
edge $-1 $321 0 $321 6.2831853071796004 $218 $322 forward 7 unknown #
face $-1 $323 $324 $33 $-1 $325 reversed single #
loop $-1 $-1 $326 $138 #
plane-surface $-1 -74.153874324777973 0 0 1 0 0 0 0 -1 forward_v I I I I #
coedge $-1 $327 $231 $328 $329 forward $139 $-1 #
coedge $-1 $330 $141 $327 $331 forward $89 $-1 #
coedge $-1 $141 $330 $332 $333 forward $89 $-1 #
coedge $-1 $234 $233 $141 $227 reversed $235 $-1 #
edge $-1 $334 -35.731770900642474 $335 35.731770900642474 $226 $336 forward 7 unknown #
coedge $-1 $143 $142 $337 $338 forward $56 $-1 #
coedge $-1 $339 $340 $142 $230 reversed $324 $-1 #
edge $-1 $237 -74.153874324777973 $341 74.153874324777973 $229 $342 forward 7 unknown #
coedge $-1 $223 $343 $143 $232 reversed $139 $-1 #
edge $-1 $344 -74.153874324777973 $236 74.153874324777973 $231 $345 forward 7 unknown #
coedge $-1 $226 $144 $343 $346 forward $235 $-1 #
coedge $-1 $144 $226 $339 $347 reversed $235 $-1 #
loop $-1 $-1 $233 $323 #
vertex $-1 $145 $348 #
vertex $-1 $145 $349 #
straight-curve $-1 74.153874324777973 0 12.253728129231224 0 1 0 I I #
face $-1 $350 $351 $34 $-1 $352 reversed single #
loop $-1 $-1 $251 $146 #
plane-surface $-1 0 -41.077955768787881 -9.2537281292312237 0 0 1 1 0 0 forward_v I I I I #
coedge $-1 $353 $354 $150 $247 forward $147 $-1 #
coedge $-1 $355 $149 $354 $356 forward $93 $-1 #
coedge $-1 $149 $355 $357 $358 forward $93 $-1 #
coedge $-1 $151 $150 $149 $246 reversed $59 $-1 #
edge $-1 $359 -74.153874324777973 $360 74.153874324777973 $149 $361 forward 7 unknown #
edge $-1 $360 -12.253728129231224 $253 -9.2537281292312237 $242 $362 forward 7 unknown #
coedge $-1 $357 $363 $151 $249 forward $364 $-1 #
edge $-1 $252 9.2537281292312237 $359 12.253728129231224 $248 $365 forward 7 unknown #
coedge $-1 $366 $152 $363 $367 forward $240 $-1 #
coedge $-1 $152 $366 $353 $368 forward $240 $-1 #
vertex $-1 $249 $369 #
vertex $-1 $368 $370 #
straight-curve $-1 0 -35.731770900642474 -9.2537281292312237 1 0 0 I I #
face $-1 $-1 $371 $35 $-1 $372 reversed single #
loop $-1 $-1 $160 $154 #
plane-surface $-1 0 0 12.253728129231224 0 0 1 1 0 0 forward_v I I I I #
coedge $-1 $373 $374 $375 $376 reversed $155 $-1 #
coedge $-1 $377 $157 $159 $265 forward $97 $-1 #
coedge $-1 $157 $377 $373 $378 forward $97 $-1 #
coedge $-1 $375 $160 $157 $262 forward $256 $-1 #
edge $-1 $268 -4.4615436881486161 $379 5.0513044748131435 $261 $380 forward 7 unknown #
coedge $-1 $381 $382 $158 $264 forward $371 $-1 #
edge $-1 $383 -58.987798974764623 $267 -55.883024868622954 $263 $384 forward 7 unknown #
edge $-1 $268 -6.0282418253894141 $383 -1.6755537013839907e-014 $159 $385 forward 7 unknown #
coedge $-1 $160 $375 $381 $386 forward $256 $-1 #
vertex $-1 $264 $387 #
vertex $-1 $161 $388 #
straight-curve $-1 -75.269006349789677 -4.1666632948163524 12.25372812923122 1 0 0 I I #
coedge $-1 $270 $270 $-1 $389 reversed $164 $-1 #
edge $-1 $390 0 $390 6.2831853071796004 $165 $391 forward 7 unknown #
vertex $-1 $168 $392 #
ellipse-curve $-1 -71.570268450461697 -1.4487066768272783 10.701341076160391 -0.51503808176128008 0 0.85716729658548041 0.85716729658548041 0 0.51503808176128008 1 I I #
coedge $-1 $274 $274 $-1 $393 reversed $171 $-1 #
edge $-1 $394 0 $394 6.2831853071796004 $172 $395 forward 7 unknown #
vertex $-1 $175 $396 #
ellipse-curve $-1 -71.570268450461697 2.628228250156333 10.701341076160391 -0.51503808176128008 0 0.85716729658548041 0.85716729658548041 0 0.51503808176128008 1 I I #
face $-1 $-1 $397 $38 $-1 $398 reversed single #
loop $-1 $-1 $399 $176 #
plane-surface $-1 0 35.731770900642474 0 0 -1 0 0 0 -1 forward_v I I I I #
coedge $-1 $400 $179 $181 $287 forward $111 $-1 #
coedge $-1 $179 $400 $399 $401 reversed $111 $-1 #
coedge $-1 $402 $182 $179 $284 forward $177 $-1 #
edge $-1 $290 10.731249328099921 $403 20.24409749106168 $283 $404 forward 7 unknown #
coedge $-1 $405 $406 $180 $286 forward $397 $-1 #
edge $-1 $407 -58.987798974764623 $289 -55.883024868622954 $285 $408 forward 7 unknown #
edge $-1 $290 -6.0282418253894141 $407 -1.6755537013839907e-014 $181 $409 forward 7 unknown #
coedge $-1 $182 $402 $405 $410 forward $177 $-1 #
vertex $-1 $286 $411 #
vertex $-1 $183 $412 #
straight-curve $-1 -75.269006349789677 26.218922737680721 12.25372812923122 1 0 0 I I #
coedge $-1 $292 $292 $-1 $413 reversed $186 $-1 #
edge $-1 $414 0 $414 6.2831853071796004 $187 $415 forward 7 unknown #
vertex $-1 $190 $416 #
ellipse-curve $-1 -71.570268450461697 28.936879355669788 10.701341076160391 -0.51503808176128008 0 0.85716729658548041 0.85716729658548041 0 0.51503808176128008 1 I I #
coedge $-1 $296 $296 $-1 $417 reversed $193 $-1 #
edge $-1 $418 0 $418 6.2831853071796004 $194 $419 forward 7 unknown #
vertex $-1 $197 $420 #
ellipse-curve $-1 -71.570268450461697 33.013814282653399 10.701341076160391 -0.51503808176128008 0 0.85716729658548041 0.85716729658548041 0 0.51503808176128008 1 I I #
face $-1 $-1 $421 $41 $-1 $422 reversed single #
loop $-1 $-1 $204 $198 #
plane-surface $-1 0 0 12.253728129231224 0 0 1 1 0 0 forward_v I I I I #
coedge $-1 $423 $424 $425 $426 reversed $199 $-1 #
coedge $-1 $427 $201 $203 $310 forward $125 $-1 #
coedge $-1 $201 $427 $423 $428 forward $125 $-1 #
coedge $-1 $425 $204 $201 $307 forward $301 $-1 #
edge $-1 $313 4.4390593741776581 $429 13.23471608728031 $306 $430 forward 7 unknown #
coedge $-1 $431 $432 $202 $309 forward $421 $-1 #
edge $-1 $433 -102.81883164801864 $312 -90.812777079666859 $308 $434 forward 7 unknown #
edge $-1 $313 126.83742179491442 $433 148.30774864955592 $203 $435 forward 7 unknown #
coedge $-1 $204 $425 $431 $436 forward $301 $-1 #
vertex $-1 $309 $437 #
vertex $-1 $205 $438 #
straight-curve $-1 17.066910386334655 -13.275947104906642 12.25372812923122 -1 0 0 I I #
coedge $-1 $315 $315 $-1 $439 reversed $208 $-1 #
edge $-1 $440 0 $440 6.2831853071796004 $209 $441 forward 7 unknown #
vertex $-1 $212 $442 #
ellipse-curve $-1 65.254020548635111 -19.558559042837107 6.2507008450553174 0.55919291073839883 0 0.82903756765294845 0.82903756765294845 0 -0.55919291073839883 1 I I #
coedge $-1 $319 $319 $-1 $443 reversed $215 $-1 #
edge $-1 $444 0 $444 6.2831853071796004 $216 $445 forward 7 unknown #
vertex $-1 $219 $446 #
ellipse-curve $-1 65.254020548635111 -15.788991880078825 6.2507008450553174 0.55919291073839883 0 0.82903756765294845 0.82903756765294845 0 -0.55919291073839883 1 I I #
face $-1 $-1 $235 $33 $-1 $447 reversed single #
loop $-1 $-1 $339 $220 #
plane-surface $-1 0 35.731770900642474 0 0 -1 0 0 0 -1 forward_v I I I I #
coedge $-1 $448 $337 $340 $449 forward $221 $-1 #
coedge $-1 $343 $223 $224 $331 reversed $139 $-1 #
coedge $-1 $337 $448 $223 $329 reversed $221 $-1 #
edge $-1 $344 -12.253728129231224 $450 12.253728129231224 $328 $451 forward 7 unknown #
coedge $-1 $225 $224 $448 $452 forward $89 $-1 #
edge $-1 $335 -74.153874324777973 $450 74.153874324777973 $327 $453 forward 7 unknown #
coedge $-1 $340 $339 $225 $333 reversed $324 $-1 #
edge $-1 $454 -74.153874324777973 $334 74.153874324777973 $332 $455 forward 7 unknown #
vertex $-1 $227 $456 #
vertex $-1 $346 $457 #
straight-curve $-1 74.153874324777973 0 -12.253728129231224 0 -1 0 I I #
coedge $-1 $326 $328 $228 $338 reversed $221 $-1 #
edge $-1 $341 -35.731770900642474 $344 35.731770900642474 $337 $458 forward 7 unknown #
coedge $-1 $332 $229 $234 $347 forward $324 $-1 #
coedge $-1 $229 $332 $326 $449 reversed $324 $-1 #
vertex $-1 $230 $459 #
straight-curve $-1 0 35.731770900642474 12.253728129231224 -1 0 0 I I #
coedge $-1 $231 $327 $233 $346 reversed $139 $-1 #
vertex $-1 $338 $460 #
straight-curve $-1 0 -35.731770900642474 12.253728129231224 1 0 0 I I #
edge $-1 $236 -12.253728129231224 $335 12.253728129231224 $233 $461 forward 7 unknown #
edge $-1 $237 -12.253728129231224 $334 12.253728129231224 $234 $462 forward 7 unknown #
point $-1 74.153874324777973 -35.731770900642474 12.253728129231224 #
point $-1 74.153874324777973 35.731770900642474 12.253728129231224 #
face $-1 $-1 $364 $34 $-1 $463 reversed single #
loop $-1 $-1 $464 $239 #
plane-surface $-1 0 -46.424140636933288 -10.753728129231224 0 1 0 0 0 1 forward_v I I I I #
coedge $-1 $465 $242 $251 $368 reversed $147 $-1 #
coedge $-1 $242 $465 $243 $356 reversed $147 $-1 #
coedge $-1 $244 $243 $466 $467 forward $93 $-1 #
edge $-1 $360 35.731770900642474 $468 46.424140636933288 $354 $469 forward 7 unknown #
coedge $-1 $470 $248 $244 $358 reversed $364 $-1 #
edge $-1 $471 -46.424140636933288 $359 -35.731770900642474 $357 $472 forward 7 unknown #
vertex $-1 $249 $473 #
vertex $-1 $356 $474 #
straight-curve $-1 0 -35.731770900642474 -12.253728129231224 1 0 0 I I #
straight-curve $-1 74.153874324777973 -35.731770900642474 0 0 0 1 I I #
coedge $-1 $248 $470 $250 $367 reversed $364 $-1 #
loop $-1 $-1 $248 $350 #
straight-curve $-1 -74.153874324777973 -35.731770900642474 0 0 0 -1 I I #
coedge $-1 $251 $250 $475 $476 forward $240 $-1 #
edge $-1 $252 -5.3461848681454072 $477 5.3461848681454072 $363 $478 forward 7 unknown #
edge $-1 $479 -5.3461848681454072 $253 5.3461848681454072 $353 $480 forward 7 unknown #
point $-1 -74.153874324777973 -35.731770900642474 -9.2537281292312237 #
point $-1 74.153874324777973 -35.731770900642474 -9.2537281292312237 #
loop $-1 $-1 $263 $255 #
plane-surface $-1 -74.153874324777973 0 0 1 0 0 0 0 -1 forward_v I I I I #
coedge $-1 $374 $258 $260 $378 reversed $155 $-1 #
coedge $-1 $258 $373 $481 $482 reversed $155 $-1 #
coedge $-1 $266 $261 $258 $376 forward $256 $-1 #
edge $-1 $379 -6.2823437736442571 $483 -1.1151320250117038 $375 $484 forward 7 unknown #
coedge $-1 $260 $259 $382 $485 reversed $97 $-1 #
edge $-1 $486 1.6755537013839907e-014 $379 6.0282418253894141 $373 $487 forward 7 unknown #
vertex $-1 $262 $488 #
straight-curve $-1 -68.98666257614542 0.29488039333226368 12.253728129231224 0 1 0 I I #
coedge $-1 $481 $263 $266 $386 reversed $371 $-1 #
coedge $-1 $263 $481 $377 $485 forward $371 $-1 #
vertex $-1 $264 $489 #
straight-curve $-1 -74.153874324777973 -4.1666632948163524 68.136752997854174 0 0 1 I I #
straight-curve $-1 -74.153874324777988 -4.1666632948163524 9.1489540230895443 -0.85716729658548041 0 -0.51503808176128008 I I #
edge $-1 $483 -5.3461848681454072 $267 4.1666632948163524 $381 $490 forward 7 unknown #
point $-1 -74.153874324777973 -4.1666632948163524 12.253728129231224 #
point $-1 -68.98666257614542 -4.1666632948163524 12.253728129231224 #
edge $-1 $491 1 $491 0 $270 $-1 forward 7 unknown #
vertex $-1 $271 $492 #
ellipse-curve $-1 -69.688926304944204 -1.4487066768272783 7.5702620007824279 -0.51503808176128008 0 0.85716729658548041 0.85716729658548041 0 0.51503808176128008 1 I I #
point $-1 -70.713101153876195 -1.4487066768272783 11.21637915792166 #
edge $-1 $493 1 $493 0 $274 $-1 forward 7 unknown #
vertex $-1 $275 $494 #
ellipse-curve $-1 -69.688926304944204 2.628228250156333 7.5702620007824279 -0.51503808176128008 0 0.85716729658548041 0.85716729658548041 0 0.51503808176128008 1 I I #
point $-1 -70.713101153876195 2.628228250156333 11.21637915792166 #
loop $-1 $-1 $285 $278 #
plane-surface $-1 -74.153874324777973 0 0 1 0 0 0 0 -1 forward_v I I I I #
coedge $-1 $495 $496 $282 $401 forward $279 $-1 #
coedge $-1 $282 $281 $406 $497 reversed $111 $-1 #
edge $-1 $403 23.396866302678205 $498 29.425108128067599 $399 $499 forward 7 unknown #
coedge $-1 $288 $283 $496 $500 forward $177 $-1 #
vertex $-1 $500 $501 #
straight-curve $-1 -68.98666257614542 15.4876734095808 12.253728129231224 0 1 0 I I #
coedge $-1 $502 $285 $288 $410 reversed $397 $-1 #
coedge $-1 $285 $502 $400 $497 forward $397 $-1 #
vertex $-1 $286 $503 #
straight-curve $-1 -74.153874324777973 26.218922737680721 68.136752997854174 0 0 1 I I #
straight-curve $-1 -74.153874324777988 26.218922737680721 9.1489540230895443 -0.85716729658548041 0 -0.51503808176128008 I I #
edge $-1 $504 -35.731770900642474 $289 -26.218922737680721 $405 $505 forward 7 unknown #
point $-1 -74.153874324777973 26.218922737680721 12.253728129231224 #
point $-1 -68.98666257614542 26.218922737680721 12.253728129231224 #
edge $-1 $506 1 $506 0 $292 $-1 forward 7 unknown #
vertex $-1 $293 $507 #
ellipse-curve $-1 -69.688926304944204 28.936879355669788 7.5702620007824279 -0.51503808176128008 0 0.85716729658548041 0.85716729658548041 0 0.51503808176128008 1 I I #
point $-1 -70.713101153876195 28.936879355669788 11.21637915792166 #
edge $-1 $508 1 $508 0 $296 $-1 forward 7 unknown #
vertex $-1 $297 $509 #
ellipse-curve $-1 -69.688926304944204 33.013814282653399 7.5702620007824279 -0.51503808176128008 0 0.85716729658548041 0.85716729658548041 0 0.51503808176128008 1 I I #
point $-1 -70.713101153876195 33.013814282653399 11.21637915792166 #
loop $-1 $-1 $308 $300 #
plane-surface $-1 74.153874324777973 0 0 -1 0 0 0 0 1 forward_v I I I I #
coedge $-1 $424 $303 $305 $428 reversed $199 $-1 #
coedge $-1 $303 $423 $510 $511 reversed $199 $-1 #
coedge $-1 $311 $306 $303 $426 forward $301 $-1 #
edge $-1 $429 39.287256386157551 $512 57.086963938443319 $425 $513 forward 7 unknown #
coedge $-1 $305 $304 $432 $514 reversed $125 $-1 #
edge $-1 $515 -148.30774864955592 $429 -126.83742179491442 $423 $516 forward 7 unknown #
vertex $-1 $307 $517 #
straight-curve $-1 56.354166772492192 -8.8368877307289839 12.253728129231227 0 -1 0 I I #
coedge $-1 $510 $308 $311 $436 reversed $421 $-1 #
coedge $-1 $308 $510 $427 $514 forward $421 $-1 #
vertex $-1 $309 $518 #
straight-curve $-1 74.153874324777973 -13.275947104906642 103.06650520889808 0 0 1 I I #
straight-curve $-1 -48.79882087973472 -13.275947104906642 83.18031521328345 0.82903756765294845 0 -0.55919291073839883 I I #
edge $-1 $512 -22.071603818009294 $312 -13.275947104906642 $431 $519 forward 7 unknown #
point $-1 74.153874324777973 -13.275947104906642 12.253728129231224 #
point $-1 56.354166772492206 -13.275947104906642 12.25372812923122 #
edge $-1 $520 1 $520 0 $315 $-1 forward 7 unknown #
vertex $-1 $316 $521 #
ellipse-curve $-1 63.617638498646627 -19.558559042837107 3.824664734043087 0.55919291073839883 0 0.82903756765294845 0.82903756765294845 0 -0.55919291073839883 1 I I #
point $-1 66.083058116288058 -19.558559042837107 5.6915079343169355 #
edge $-1 $522 1 $522 0 $319 $-1 forward 7 unknown #
vertex $-1 $320 $523 #
ellipse-curve $-1 63.617638498646627 -15.788991880078825 3.824664734043087 0.55919291073839883 0 0.82903756765294845 0.82903756765294845 0 -0.55919291073839883 1 I I #
point $-1 66.083058116288058 -15.788991880078825 5.6915079343169355 #
plane-surface $-1 74.153874324777973 0 0 -1 0 0 0 0 1 forward_v I I I I #
coedge $-1 $328 $326 $330 $452 reversed $221 $-1 #
edge $-1 $341 -12.253728129231224 $454 12.253728129231224 $340 $524 forward 7 unknown #
vertex $-1 $452 $525 #
straight-curve $-1 -74.153874324777973 -35.731770900642474 0 0 0 -1 I I #
edge $-1 $450 -35.731770900642474 $454 35.731770900642474 $448 $526 forward 7 unknown #
straight-curve $-1 0 -35.731770900642474 -12.253728129231224 -1 0 0 I I #
vertex $-1 $333 $527 #
straight-curve $-1 0 35.731770900642474 -12.253728129231224 1 0 0 I I #
point $-1 74.153874324777973 35.731770900642474 -12.253728129231224 #
point $-1 74.153874324777973 -35.731770900642474 -12.253728129231224 #
straight-curve $-1 -74.153874324777973 0 12.253728129231224 0 -1 0 I I #
point $-1 -74.153874324777973 35.731770900642474 12.253728129231224 #
point $-1 -74.153874324777973 -35.731770900642474 12.253728129231224 #
straight-curve $-1 74.153874324777973 -35.731770900642474 0 0 0 -1 I I #
straight-curve $-1 74.153874324777973 35.731770900642474 0 0 0 -1 I I #
plane-surface $-1 -74.153874324777973 0 0 1 0 0 0 0 -1 forward_v I I I I #
coedge $-1 $466 $475 $470 $528 forward $351 $-1 #
coedge $-1 $354 $353 $529 $530 forward $147 $-1 #
coedge $-1 $529 $464 $355 $467 reversed $351 $-1 #
edge $-1 $468 -74.153874324777973 $471 74.153874324777973 $466 $531 forward 7 unknown #
vertex $-1 $530 $532 #
straight-curve $-1 74.153874324777973 0 -12.253728129231224 0 -1 0 I I #
coedge $-1 $363 $357 $464 $528 reversed $364 $-1 #
vertex $-1 $358 $533 #
straight-curve $-1 -74.153874324777973 0 -12.253728129231224 0 1 0 I I #
point $-1 -74.153874324777973 -35.731770900642474 -12.253728129231224 #
point $-1 74.153874324777973 -35.731770900642474 -12.253728129231224 #
coedge $-1 $464 $529 $366 $476 reversed $351 $-1 #
edge $-1 $477 -74.153874324777973 $479 74.153874324777973 $475 $534 forward 7 unknown #
vertex $-1 $367 $535 #
straight-curve $-1 -74.153874324777973 -41.077955768787881 -9.2537281292312237 0 -1 0 I I #
vertex $-1 $368 $536 #
straight-curve $-1 74.153874324777973 -41.077955768787881 -9.2537281292312237 0 1 0 I I #
coedge $-1 $382 $381 $374 $482 forward $371 $-1 #
edge $-1 $483 55.883024868622954 $486 58.987798974764623 $481 $537 forward 7 unknown #
vertex $-1 $386 $538 #
straight-curve $-1 -75.269006349789677 5.3461848681454072 12.25372812923122 -1 0 0 I I #
edge $-1 $486 -5.0513044748131435 $383 4.4615436881486161 $382 $539 forward 7 unknown #
vertex $-1 $485 $540 #
straight-curve $-1 -74.153874324777988 5.3461848681454072 9.1489540230895443 0.85716729658548041 0 0.51503808176128008 I I #
point $-1 -68.98666257614542 5.3461848681454072 12.253728129231224 #
point $-1 -74.153874324777973 -4.1666632948163524 9.1489540230895532 #
straight-curve $-1 -74.153874324777973 0 12.253728129231224 0 -1 0 I I #
vertex $-1 $389 $541 #
point $-1 -68.831759008358731 -1.4487066768272783 8.0853000825437089 #
vertex $-1 $393 $542 #
point $-1 -68.831759008358731 2.628228250156333 8.0853000825437089 #
coedge $-1 $496 $399 $502 $543 reversed $279 $-1 #
coedge $-1 $399 $495 $402 $500 reversed $279 $-1 #
edge $-1 $498 -20.24409749106168 $407 -10.731249328099921 $406 $544 forward 7 unknown #
vertex $-1 $401 $545 #
straight-curve $-1 -48.93163393890682 35.731770900642474 24.304005268987741 -0.85716729658548041 0 -0.51503808176128008 I I #
edge $-1 $403 68.98666257614542 $504 74.153874324777973 $496 $546 forward 7 unknown #
point $-1 -68.98666257614542 35.731770900642481 12.253728129231224 #
coedge $-1 $406 $405 $495 $543 forward $397 $-1 #
point $-1 -74.153874324777973 26.218922737680721 9.1489540230895532 #
vertex $-1 $500 $547 #
straight-curve $-1 -74.153874324777973 0 12.253728129231224 0 -1 0 I I #
vertex $-1 $413 $548 #
point $-1 -68.831759008358731 28.936879355669788 8.0853000825437089 #
vertex $-1 $417 $549 #
point $-1 -68.831759008358731 33.013814282653399 8.0853000825437089 #
coedge $-1 $432 $431 $424 $511 forward $421 $-1 #
edge $-1 $512 90.812777079666859 $515 102.81883164801864 $510 $550 forward 7 unknown #
vertex $-1 $436 $551 #
straight-curve $-1 17.066910386334655 -22.071603818009294 12.25372812923122 1 0 0 I I #
edge $-1 $515 -13.23471608728031 $433 -4.4390593741776581 $432 $552 forward 7 unknown #
vertex $-1 $514 $553 #
straight-curve $-1 -48.79882087973472 -22.071603818009294 83.18031521328345 -0.82903756765294845 0 0.55919291073839883 I I #
point $-1 56.354166772492206 -22.071603818009294 12.25372812923122 #
point $-1 74.153874324777973 -13.275947104906642 0.24767356087943426 #
straight-curve $-1 74.153874324777973 0 12.253728129231224 0 1 0 I I #
vertex $-1 $439 $554 #
point $-1 64.446676066299574 -19.558559042837107 3.2654718233046882 #
vertex $-1 $443 $555 #
point $-1 64.446676066299574 -15.788991880078825 3.2654718233046882 #
straight-curve $-1 -74.153874324777973 35.731770900642474 0 0 0 -1 I I #
point $-1 -74.153874324777973 -35.731770900642474 -12.253728129231224 #
straight-curve $-1 -74.153874324777973 0 -12.253728129231224 0 1 0 I I #
point $-1 -74.153874324777973 35.731770900642474 -12.253728129231224 #
edge $-1 $477 -1.5 $471 1.5 $470 $556 forward 7 unknown #
coedge $-1 $475 $466 $465 $530 reversed $351 $-1 #
edge $-1 $479 -1.5 $468 1.5 $465 $557 forward 7 unknown #
straight-curve $-1 0 -46.424140636933288 -12.253728129231224 -1 0 0 I I #
point $-1 74.153874324777973 -46.424140636933288 -12.253728129231224 #
point $-1 -74.153874324777973 -46.424140636933288 -12.253728129231224 #
straight-curve $-1 0 -46.424140636933288 -9.2537281292312237 1 0 0 I I #
point $-1 -74.153874324777973 -46.424140636933288 -9.2537281292312237 #
point $-1 74.153874324777973 -46.424140636933288 -9.2537281292312237 #
straight-curve $-1 -74.153874324777973 5.3461848681454072 68.136752997854174 0 0 -1 I I #
point $-1 -74.153874324777973 5.3461848681454072 12.253728129231224 #
straight-curve $-1 -74.153874324777973 0.29488039333226368 9.1489540230895479 0 -1 0 I I #
point $-1 -74.153874324777973 5.3461848681454072 9.1489540230895532 #
point $-1 -69.173888223182928 -1.4487066768272783 6.7130947041969478 #
point $-1 -69.173888223182928 2.628228250156333 6.7130947041969478 #
edge $-1 $504 -12.253728129231224 $498 -9.1489540230895532 $495 $558 forward 7 unknown #
straight-curve $-1 -74.153874324777973 15.4876734095808 9.1489540230895479 0 -1 0 I I #
point $-1 -74.153874324777973 35.731770900642481 9.1489540230895532 #
straight-curve $-1 0 35.731770900642474 12.253728129231224 -1 0 0 I I #
point $-1 -74.153874324777973 35.731770900642474 12.253728129231224 #
point $-1 -69.173888223182928 28.936879355669788 6.7130947041969478 #
point $-1 -69.173888223182928 33.013814282653399 6.7130947041969478 #
straight-curve $-1 74.153874324777973 -22.071603818009294 103.06650520889808 0 0 -1 I I #
point $-1 74.153874324777973 -22.071603818009294 12.253728129231224 #
straight-curve $-1 74.153874324777973 -8.8368877307289839 0.24767356087942716 0 1 0 I I #
point $-1 74.153874324777973 -22.071603818009294 0.24767356087943426 #
point $-1 63.058445587908224 -19.558559042837107 2.9956271663901388 #
point $-1 63.058445587908224 -15.788991880078825 2.9956271663901388 #
straight-curve $-1 -74.153874324777973 -46.424140636933288 -10.753728129231224 0 0 -1 I I #
straight-curve $-1 74.153874324777973 -46.424140636933288 -10.753728129231224 0 0 -1 I I #
straight-curve $-1 -74.153874324777973 35.731770900642474 0 0 0 -1 I I #
End-of-ACIS-data 