500 0 10 0           
7 Unknown 11 ACIS 5.0 NT 24 Fri Mar 26 20:02:51 1999 
-1 9.9999999999999995e-007 1e-010 
body $-1 $10 $-1 $11 #
body $-1 $12 $-1 $13 #
body $-1 $14 $-1 $15 #
body $-1 $16 $-1 $17 #
body $-1 $18 $-1 $19 #
body $-1 $20 $-1 $21 #
body $-1 $22 $-1 $23 #
body $-1 $24 $-1 $25 #
body $-1 $26 $-1 $27 #
body $-1 $28 $-1 $29 #
lump $-1 $-1 $30 $0 #
transform $-1 1 0 0 0 1 0 0 0 1 49.565721610156558 34.34703170948017 8.2857614932937711 1 rotate no_reflect no_shear #
lump $-1 $-1 $31 $1 #
transform $-1 1 0 0 0 1 0 0 0 1 49.565721610156558 34.34703170948017 8.2857614932937711 1 rotate no_reflect no_shear #
lump $-1 $-1 $32 $2 #
transform $-1 1 0 0 0 1 0 0 0 1 49.565721610156558 34.34703170948017 8.2857614932937711 1 rotate no_reflect no_shear #
lump $-1 $-1 $33 $3 #
transform $-1 1 0 0 0 1 0 0 0 1 49.565721610156558 34.34703170948017 8.2857614932937711 1 rotate no_reflect no_shear #
lump $-1 $-1 $34 $4 #
transform $-1 1 0 0 0 1 0 0 0 1 49.565721610156558 34.34703170948017 8.2857614932937711 1 rotate no_reflect no_shear #
lump $-1 $-1 $35 $5 #
transform $-1 1 0 0 0 1 0 0 0 1 49.565721610156558 34.34703170948017 8.2857614932937711 1 rotate no_reflect no_shear #
lump $-1 $-1 $36 $6 #
transform $-1 1 0 0 0 1 0 0 0 1 49.565721610156558 34.34703170948017 8.2857614932937711 1 rotate no_reflect no_shear #
lump $-1 $-1 $37 $7 #
transform $-1 1 0 0 0 1 0 0 0 1 49.565721610156558 34.34703170948017 8.2857614932937711 1 rotate no_reflect no_shear #
lump $-1 $-1 $38 $8 #
transform $-1 1 0 0 0 1 0 0 0 1 49.565721610156558 34.34703170948017 8.2857614932937711 1 rotate no_reflect no_shear #
lump $-1 $-1 $39 $9 #
transform $-1 1 0 0 0 1 0 0 0 1 49.565721610156558 34.34703170948017 8.2857614932937711 1 rotate no_reflect no_shear #
shell $-1 $-1 $-1 $40 $-1 $10 #
shell $-1 $-1 $-1 $41 $-1 $12 #
shell $-1 $-1 $-1 $42 $-1 $14 #
shell $-1 $-1 $-1 $43 $-1 $16 #
shell $-1 $-1 $-1 $44 $-1 $18 #
shell $-1 $-1 $-1 $45 $-1 $20 #
shell $-1 $-1 $-1 $46 $-1 $22 #
shell $-1 $-1 $-1 $47 $-1 $24 #
shell $-1 $-1 $-1 $48 $-1 $26 #
shell $-1 $-1 $-1 $49 $-1 $28 #
face $-1 $50 $51 $30 $-1 $52 reversed single #
face $-1 $53 $54 $31 $-1 $55 forward single #
face $-1 $56 $57 $32 $-1 $58 forward single #
face $-1 $59 $60 $33 $-1 $61 reversed single #
face $-1 $62 $63 $34 $-1 $64 forward single #
face $-1 $65 $66 $35 $-1 $67 forward single #
face $-1 $68 $69 $36 $-1 $70 forward single #
face $-1 $71 $72 $37 $-1 $73 reversed single #
face $-1 $74 $75 $38 $-1 $76 forward single #
face $-1 $77 $78 $39 $-1 $79 forward single #
face $-1 $80 $81 $30 $-1 $82 reversed single #
loop $-1 $-1 $83 $40 #
plane-surface $-1 0 34.34703170948017 0 0 -1 0 0 0 -1 forward_v I I I I #
face $-1 $84 $85 $31 $-1 $86 reversed single #
loop $-1 $-1 $87 $41 #
plane-surface $-1 0 -34.34703170948017 0 0 1 0 0 0 1 forward_v I I I I #
face $-1 $88 $89 $32 $-1 $90 reversed single #
loop $-1 $-1 $91 $42 #
plane-surface $-1 0 34.34703170948017 0 0 -1 0 0 0 -1 forward_v I I I I #
face $-1 $92 $93 $33 $-1 $94 reversed single #
loop $-1 $-1 $95 $43 #
plane-surface $-1 -118.42820922781048 14.517370637181937 75.083767834564853 0 1 0 -0.69465837861970381 0 0.71933979245794832 forward_v I I I I #
face $-1 $96 $97 $34 $-1 $98 forward single #
loop $-1 $99 $100 $44 #
cone-surface $-1 -46.882657831113882 16.397466640987503 5.6704988716218816 0.69465837861970381 0 -0.71933979245794832 0.35966989622897416 0 0.3473291893098519 1 I I 0 1 0.5 forward I I I I #
face $-1 $101 $102 $35 $-1 $103 forward single #
loop $-1 $104 $105 $45 #
cone-surface $-1 -46.882657831113882 19.217610646695839 5.6704988716218816 0.69465837861970381 0 -0.71933979245794832 0.35966989622897416 0 0.3473291893098519 1 I I 0 1 0.5 forward I I I I #
face $-1 $106 $107 $36 $-1 $108 forward single #
loop $-1 $109 $110 $46 #
cone-surface $-1 -46.882657831113882 22.037754652404182 5.6704988716218816 0.69465837861970381 0 -0.71933979245794832 0.35966989622897416 0 0.3473291893098519 1 I I 0 1 0.5 forward I I I I #
face $-1 $111 $112 $37 $-1 $113 reversed single #
loop $-1 $-1 $114 $47 #
plane-surface $-1 78.713493837160158 -17.061805360255725 142.1142273198052 0 -1 0 -0.83867057594974714 0 -0.54463902268945019 forward_v I I I I #
face $-1 $115 $116 $38 $-1 $117 forward single #
loop $-1 $118 $119 $48 #
cone-surface $-1 48.074535517576841 -21.958980571651445 6.3629364283968854 -0.83867057594974714 0 -0.54463902268945019 0.2723195113447251 0 -0.41933528797487357 1 I I 0 1 0.5 forward I I I I #
face $-1 $120 $121 $39 $-1 $122 forward single #
loop $-1 $123 $124 $49 #
cone-surface $-1 48.074535517576841 -19.020675444814014 6.3629364283968854 -0.83867057594974714 0 -0.54463902268945019 0.2723195113447251 0 -0.41933528797487357 1 I I 0 1 0.5 forward I I I I #
face $-1 $125 $126 $30 $-1 $127 forward single #
loop $-1 $-1 $128 $50 #
plane-surface $-1 0 -34.34703170948017 0 0 1 0 0 0 1 forward_v I I I I #
coedge $-1 $129 $130 $131 $132 reversed $51 $-1 #
face $-1 $133 $134 $31 $-1 $135 reversed single #
loop $-1 $-1 $136 $53 #
plane-surface $-1 0 0 -8.2857614932937711 0 0 1 1 0 0 forward_v I I I I #
coedge $-1 $137 $138 $139 $140 forward $54 $-1 #
face $-1 $141 $142 $32 $-1 $143 reversed single #
loop $-1 $-1 $144 $56 #
plane-surface $-1 0 0 -8.2857614932937711 0 0 1 1 0 0 forward_v I I I I #
coedge $-1 $145 $146 $147 $148 forward $57 $-1 #
face $-1 $149 $150 $33 $-1 $151 reversed single #
loop $-1 $-1 $152 $59 #
plane-surface $-1 -49.565721610156544 19.217610646695839 3.7745760424079293 -0.69465837861970381 0 0.71933979245794832 0.71933979245794832 0 0.69465837861970381 forward_v I I I I #
coedge $-1 $153 $154 $155 $156 reversed $60 $-1 #
face $-1 $-1 $157 $34 $-1 $158 forward single #
loop $-1 $159 $160 $62 #
cone-surface $-1 -46.361664047149105 16.397466640987503 5.1309940272784207 0.69465837861970381 0 -0.71933979245794832 0.17983494811448708 0 0.17366459465492595 1 I I -0.70710678118654746 0.70710678118654746 0.25 forward I I I I #
loop $-1 $-1 $161 $44 #
coedge $-1 $100 $100 $162 $163 reversed $63 $-1 #
face $-1 $-1 $164 $35 $-1 $165 forward single #
loop $-1 $166 $167 $65 #
cone-surface $-1 -46.361664047149105 19.217610646695839 5.1309940272784207 0.69465837861970381 0 -0.71933979245794832 0.17983494811448708 0 0.17366459465492595 1 I I -0.70710678118654746 0.70710678118654746 0.25 forward I I I I #
loop $-1 $-1 $168 $45 #
coedge $-1 $105 $105 $169 $170 reversed $66 $-1 #
face $-1 $-1 $171 $36 $-1 $172 forward single #
loop $-1 $173 $174 $68 #
cone-surface $-1 -46.361664047149105 22.037754652404182 5.1309940272784207 0.69465837861970381 0 -0.71933979245794832 0.17983494811448708 0 0.17366459465492595 1 I I -0.70710678118654746 0.70710678118654746 0.25 forward I I I I #
loop $-1 $-1 $175 $46 #
coedge $-1 $110 $110 $176 $177 reversed $69 $-1 #
face $-1 $178 $179 $37 $-1 $180 reversed single #
loop $-1 $-1 $181 $71 #
plane-surface $-1 -4.4251307431494951 -20.489828008232731 88.123374966499142 0.83867057594974714 0 0.54463902268945019 0.54463902268945019 0 -0.83867057594974714 forward_v I I I I #
coedge $-1 $182 $183 $184 $185 reversed $72 $-1 #
face $-1 $-1 $186 $38 $-1 $187 forward single #
loop $-1 $188 $189 $74 #
cone-surface $-1 47.445532585614529 -21.958980571651445 5.9544571613797981 -0.83867057594974714 0 -0.54463902268945019 0.13615975567236255 0 -0.20966764398743679 1 I I -0.70710678118654746 0.70710678118654746 0.25 forward I I I I #
loop $-1 $-1 $190 $48 #
coedge $-1 $119 $119 $191 $192 reversed $75 $-1 #
face $-1 $-1 $193 $39 $-1 $194 forward single #
loop $-1 $195 $196 $77 #
cone-surface $-1 47.445532585614529 -19.020675444814014 5.9544571613797981 -0.83867057594974714 0 -0.54463902268945019 0.13615975567236255 0 -0.20966764398743679 1 I I -0.70710678118654746 0.70710678118654746 0.25 forward I I I I #
loop $-1 $-1 $197 $49 #
coedge $-1 $124 $124 $198 $199 reversed $78 $-1 #
face $-1 $200 $201 $30 $-1 $202 reversed single #
loop $-1 $-1 $203 $80 #
plane-surface $-1 0 0 8.2857614932937711 0 0 1 1 0 0 forward_v I I I I #
coedge $-1 $204 $205 $206 $207 reversed $81 $-1 #
coedge $-1 $208 $83 $209 $210 reversed $51 $-1 #
coedge $-1 $83 $208 $211 $212 forward $51 $-1 #
coedge $-1 $213 $214 $83 $132 forward $201 $-1 #
edge $-1 $215 -49.565721610156558 $216 49.565721610156558 $83 $217 forward 7 unknown #
face $-1 $218 $219 $31 $-1 $220 reversed single #
loop $-1 $-1 $221 $84 #
plane-surface $-1 -34.675803363293525 -44.77621276275061 0 0 1 0 0 0 1 forward_v I I I I #
coedge $-1 $222 $223 $138 $224 forward $85 $-1 #
coedge $-1 $225 $87 $226 $227 reversed $54 $-1 #
coedge $-1 $87 $225 $136 $224 reversed $54 $-1 #
coedge $-1 $228 $229 $87 $140 reversed $219 $-1 #
edge $-1 $230 -8.2857614932937711 $231 8.2857614932937711 $139 $232 forward 7 unknown #
face $-1 $233 $234 $32 $-1 $235 reversed single #
loop $-1 $-1 $236 $88 #
plane-surface $-1 -36.357408103018031 39.56162223611539 0 1 0 0 0 0 -1 forward_v I I I I #
coedge $-1 $237 $238 $146 $239 forward $89 $-1 #
coedge $-1 $240 $91 $241 $242 reversed $57 $-1 #
coedge $-1 $91 $240 $144 $239 reversed $57 $-1 #
coedge $-1 $243 $244 $91 $148 reversed $245 $-1 #
edge $-1 $246 -8.2857614932937711 $247 8.2857614932937711 $147 $248 forward 7 unknown #
face $-1 $249 $250 $33 $-1 $251 reversed single #
loop $-1 $-1 $252 $92 #
plane-surface $-1 -118.42820922781048 23.91785065620974 75.083767834564853 0 -1 0 0.69465837861970381 0 -0.71933979245794832 forward_v I I I I #
coedge $-1 $253 $254 $255 $256 reversed $93 $-1 #
coedge $-1 $154 $95 $257 $258 reversed $60 $-1 #
coedge $-1 $95 $153 $253 $259 reversed $60 $-1 #
coedge $-1 $255 $260 $95 $156 forward $261 $-1 #
edge $-1 $262 9.648383003748684 $263 14.319852183214365 $155 $264 forward 7 unknown #
loop $-1 $-1 $162 $96 #
plane-surface $-1 -49.565721610156544 19.217610646695839 3.7745760424079293 -0.69465837861970381 0 0.71933979245794832 0.71933979245794832 0 0.69465837861970381 forward_v I I I I #
loop $-1 $-1 $265 $62 #
coedge $-1 $160 $160 $161 $266 reversed $97 $-1 #
coedge $-1 $161 $161 $160 $266 forward $99 $-1 #
coedge $-1 $162 $162 $100 $163 forward $157 $-1 #
edge $-1 $267 0 $267 6.2831853071796004 $162 $268 forward 7 unknown #
loop $-1 $-1 $169 $101 #
plane-surface $-1 -49.565721610156544 19.217610646695839 3.7745760424079293 -0.69465837861970381 0 0.71933979245794832 0.71933979245794832 0 0.69465837861970381 forward_v I I I I #
loop $-1 $-1 $269 $65 #
coedge $-1 $167 $167 $168 $270 reversed $102 $-1 #
coedge $-1 $168 $168 $167 $270 forward $104 $-1 #
coedge $-1 $169 $169 $105 $170 forward $164 $-1 #
edge $-1 $271 0 $271 6.2831853071796004 $169 $272 forward 7 unknown #
loop $-1 $-1 $176 $106 #
plane-surface $-1 -49.565721610156544 19.217610646695839 3.7745760424079293 -0.69465837861970381 0 0.71933979245794832 0.71933979245794832 0 0.69465837861970381 forward_v I I I I #
loop $-1 $-1 $273 $68 #
coedge $-1 $174 $174 $175 $274 reversed $107 $-1 #
coedge $-1 $175 $175 $174 $274 forward $109 $-1 #
coedge $-1 $176 $176 $110 $177 forward $171 $-1 #
edge $-1 $275 0 $275 6.2831853071796004 $176 $276 forward 7 unknown #
face $-1 $277 $278 $37 $-1 $279 forward single #
loop $-1 $-1 $280 $111 #
plane-surface $-1 78.713493837160158 -23.917850656209737 142.1142273198052 0 1 0 0.83867057594974714 0 0.54463902268945019 forward_v I I I I #
coedge $-1 $281 $282 $283 $284 reversed $112 $-1 #
coedge $-1 $183 $114 $285 $286 reversed $72 $-1 #
coedge $-1 $114 $182 $281 $287 reversed $72 $-1 #
coedge $-1 $283 $288 $114 $185 forward $278 $-1 #
edge $-1 $289 -10.208974691576479 $290 -8.0652730823667795 $184 $291 forward 7 unknown #
loop $-1 $-1 $191 $115 #
plane-surface $-1 -4.4251307431494951 -20.489828008232731 88.123374966499142 0.83867057594974714 0 0.54463902268945019 0.54463902268945019 0 -0.83867057594974714 forward_v I I I I #
loop $-1 $-1 $292 $74 #
coedge $-1 $189 $189 $190 $293 reversed $116 $-1 #
coedge $-1 $190 $190 $189 $293 forward $118 $-1 #
coedge $-1 $191 $191 $119 $192 forward $186 $-1 #
edge $-1 $294 0 $294 6.2831853071796004 $191 $295 forward 7 unknown #
loop $-1 $-1 $198 $120 #
plane-surface $-1 -4.4251307431494951 -20.489828008232731 88.123374966499142 0.83867057594974714 0 0.54463902268945019 0.54463902268945019 0 -0.83867057594974714 forward_v I I I I #
loop $-1 $-1 $296 $77 #
coedge $-1 $196 $196 $197 $297 reversed $121 $-1 #
coedge $-1 $197 $197 $196 $297 forward $123 $-1 #
coedge $-1 $198 $198 $124 $199 forward $193 $-1 #
edge $-1 $298 0 $298 6.2831853071796004 $198 $299 forward 7 unknown #
face $-1 $300 $301 $30 $-1 $302 reversed single #
loop $-1 $-1 $213 $125 #
plane-surface $-1 0 0 -8.2857614932937711 0 0 1 1 0 0 forward_v I I I I #
coedge $-1 $303 $304 $305 $306 forward $126 $-1 #
coedge $-1 $307 $128 $308 $309 reversed $81 $-1 #
coedge $-1 $128 $307 $310 $311 forward $81 $-1 #
coedge $-1 $214 $213 $128 $207 forward $201 $-1 #
edge $-1 $312 -49.565721610156558 $313 49.565721610156558 $128 $314 forward 7 unknown #
coedge $-1 $130 $129 $303 $315 reversed $51 $-1 #
coedge $-1 $316 $317 $129 $210 forward $301 $-1 #
edge $-1 $318 -8.2857614932937711 $215 8.2857614932937711 $129 $319 forward 7 unknown #
coedge $-1 $305 $320 $130 $212 reversed $321 $-1 #
edge $-1 $322 -8.2857614932937711 $216 8.2857614932937711 $211 $323 forward 7 unknown #
coedge $-1 $206 $131 $320 $324 forward $201 $-1 #
coedge $-1 $131 $206 $316 $325 forward $201 $-1 #
vertex $-1 $132 $326 #
vertex $-1 $324 $327 #
straight-curve $-1 0 34.34703170948017 -8.2857614932937711 1 0 0 I I #
face $-1 $328 $329 $31 $-1 $330 reversed single #
loop $-1 $-1 $139 $133 #
plane-surface $-1 -36.357408103018031 -39.56162223611539 0 1 0 0 0 0 -1 forward_v I I I I #
coedge $-1 $331 $332 $333 $334 forward $134 $-1 #
coedge $-1 $335 $136 $336 $337 forward $85 $-1 #
coedge $-1 $136 $335 $228 $338 forward $85 $-1 #
edge $-1 $230 -36.357408103018031 $339 -32.994198623569019 $136 $340 forward 7 unknown #
coedge $-1 $138 $137 $341 $342 forward $54 $-1 #
coedge $-1 $343 $344 $137 $227 forward $345 $-1 #
edge $-1 $346 32.994198623569019 $231 36.357408103018031 $226 $347 forward 7 unknown #
coedge $-1 $333 $139 $223 $338 reversed $219 $-1 #
coedge $-1 $139 $333 $343 $348 reversed $219 $-1 #
vertex $-1 $224 $349 #
vertex $-1 $348 $350 #
straight-curve $-1 -36.357408103018031 -34.34703170948017 0 0 0 1 I I #
face $-1 $351 $245 $32 $-1 $352 reversed single #
loop $-1 $-1 $353 $141 #
plane-surface $-1 -34.675803363293525 44.77621276275061 0 0 -1 0 0 0 -1 forward_v I I I I #
coedge $-1 $354 $355 $356 $357 forward $142 $-1 #
coedge $-1 $358 $144 $354 $359 forward $89 $-1 #
coedge $-1 $144 $358 $243 $360 forward $89 $-1 #
edge $-1 $246 32.994198623569019 $361 36.357408103018031 $144 $362 forward 7 unknown #
coedge $-1 $146 $145 $363 $364 forward $57 $-1 #
coedge $-1 $365 $366 $145 $242 forward $367 $-1 #
edge $-1 $368 -36.357408103018031 $247 -32.994198623569019 $241 $369 forward 7 unknown #
coedge $-1 $370 $147 $238 $360 reversed $245 $-1 #
coedge $-1 $147 $370 $365 $371 reversed $245 $-1 #
loop $-1 $-1 $147 $233 #
vertex $-1 $239 $372 #
vertex $-1 $371 $373 #
straight-curve $-1 -32.994198623569019 34.34703170948017 0 0 0 1 I I #
face $-1 $-1 $261 $33 $-1 $374 forward single #
loop $-1 $-1 $375 $149 #
plane-surface $-1 -49.565721610156558 0 0 1 0 0 0 0 -1 forward_v I I I I #
coedge $-1 $376 $377 $378 $379 reversed $150 $-1 #
coedge $-1 $380 $152 $154 $259 forward $93 $-1 #
coedge $-1 $152 $380 $376 $381 forward $93 $-1 #
coedge $-1 $378 $155 $152 $256 forward $261 $-1 #
edge $-1 $263 4.9085653138340177 $382 14.309045332861821 $255 $383 forward 7 unknown #
coedge $-1 $384 $385 $153 $258 forward $250 $-1 #
edge $-1 $386 -33.767307874874511 $262 -29.256122423988657 $257 $387 forward 7 unknown #
edge $-1 $263 -6.4941064409956919 $386 1.9785632286268914e-014 $154 $388 forward 7 unknown #
coedge $-1 $155 $378 $384 $389 forward $261 $-1 #
loop $-1 $-1 $378 $249 #
vertex $-1 $258 $390 #
vertex $-1 $156 $391 #
straight-curve $-1 -59.214104613905242 14.517370637181937 8.2857614932937693 1 0 0 I I #
coedge $-1 $265 $265 $-1 $392 reversed $159 $-1 #
edge $-1 $393 0 $393 6.2831853071796004 $160 $394 forward 7 unknown #
vertex $-1 $163 $395 #
ellipse-curve $-1 -47.229987020423721 16.397466640987503 6.0301687678508413 -0.69465837861970381 0 0.71933979245794832 0.35966989622897416 0 0.3473291893098519 1 I I #
coedge $-1 $269 $269 $-1 $396 reversed $166 $-1 #
edge $-1 $397 0 $397 6.2831853071796004 $167 $398 forward 7 unknown #
vertex $-1 $170 $399 #
ellipse-curve $-1 -47.229987020423721 19.217610646695839 6.0301687678508413 -0.69465837861970381 0 0.71933979245794832 0.35966989622897416 0 0.3473291893098519 1 I I #
coedge $-1 $273 $273 $-1 $400 reversed $173 $-1 #
edge $-1 $401 0 $401 6.2831853071796004 $174 $402 forward 7 unknown #
vertex $-1 $177 $403 #
ellipse-curve $-1 -47.229987020423721 22.037754652404182 6.0301687678508413 -0.69465837861970381 0 0.71933979245794832 0.35966989622897416 0 0.3473291893098519 1 I I #
face $-1 $-1 $404 $37 $-1 $405 reversed single #
loop $-1 $-1 $184 $178 #
plane-surface $-1 0 0 8.2857614932937711 0 0 1 1 0 0 forward_v I I I I #
coedge $-1 $406 $407 $408 $409 reversed $179 $-1 #
coedge $-1 $410 $181 $183 $287 forward $112 $-1 #
coedge $-1 $181 $410 $406 $411 forward $112 $-1 #
coedge $-1 $408 $184 $181 $284 forward $278 $-1 #
edge $-1 $290 6.8168913561393598 $412 13.672936652093371 $283 $413 forward 7 unknown #
coedge $-1 $414 $415 $182 $286 forward $404 $-1 #
edge $-1 $416 -66.072363273713108 $289 -62.771352166608828 $285 $417 forward 7 unknown #
edge $-1 $290 95.195438784523674 $416 99.131443220313116 $183 $418 forward 7 unknown #
coedge $-1 $184 $408 $414 $419 forward $278 $-1 #
vertex $-1 $185 $420 #
vertex $-1 $185 $421 #
straight-curve $-1 39.356746918580079 -17.061805360255725 8.2857614932937764 -1 0 0 I I #
coedge $-1 $292 $292 $-1 $422 reversed $188 $-1 #
edge $-1 $423 0 $423 6.2831853071796004 $189 $424 forward 7 unknown #
vertex $-1 $192 $425 #
ellipse-curve $-1 48.493870805551722 -21.958980571651445 6.6352559397416142 0.83867057594974714 0 0.54463902268945019 0.2723195113447251 0 -0.41933528797487357 1 I I #
coedge $-1 $296 $296 $-1 $426 reversed $195 $-1 #
edge $-1 $427 0 $427 6.2831853071796004 $196 $428 forward 7 unknown #
vertex $-1 $199 $429 #
ellipse-curve $-1 48.493870805551722 -19.020675444814014 6.6352559397416142 0.83867057594974714 0 0.54463902268945019 0.2723195113447251 0 -0.41933528797487357 1 I I #
face $-1 $-1 $321 $30 $-1 $430 reversed single #
loop $-1 $-1 $209 $200 #
plane-surface $-1 -49.565721610156558 0 0 1 0 0 0 0 -1 forward_v I I I I #
coedge $-1 $431 $203 $208 $315 forward $126 $-1 #
coedge $-1 $203 $431 $307 $432 forward $126 $-1 #
coedge $-1 $308 $211 $203 $306 reversed $321 $-1 #
edge $-1 $433 -34.34703170948017 $322 34.34703170948017 $305 $434 forward 7 unknown #
coedge $-1 $205 $204 $304 $432 reversed $81 $-1 #
coedge $-1 $320 $305 $204 $309 forward $321 $-1 #
edge $-1 $433 -8.2857614932937711 $312 8.2857614932937711 $308 $435 forward 7 unknown #
coedge $-1 $317 $316 $205 $311 reversed $301 $-1 #
edge $-1 $436 -8.2857614932937711 $313 8.2857614932937711 $310 $437 forward 7 unknown #
vertex $-1 $309 $438 #
vertex $-1 $325 $439 #
straight-curve $-1 0 -34.34703170948017 -8.2857614932937711 -1 0 0 I I #
edge $-1 $322 -49.565721610156558 $318 49.565721610156558 $208 $440 forward 7 unknown #
coedge $-1 $310 $209 $214 $325 reversed $301 $-1 #
coedge $-1 $209 $310 $431 $441 reversed $301 $-1 #
vertex $-1 $315 $442 #
straight-curve $-1 -49.565721610156558 34.34703170948017 0 0 0 -1 I I #
coedge $-1 $211 $308 $213 $324 reversed $321 $-1 #
loop $-1 $-1 $308 $300 #
vertex $-1 $306 $443 #
straight-curve $-1 49.565721610156558 34.34703170948017 0 0 0 -1 I I #
edge $-1 $216 -34.34703170948017 $312 34.34703170948017 $320 $444 forward 7 unknown #
edge $-1 $313 -34.34703170948017 $215 34.34703170948017 $316 $445 forward 7 unknown #
point $-1 -49.565721610156558 34.34703170948017 -8.2857614932937711 #
point $-1 49.565721610156558 34.34703170948017 -8.2857614932937711 #
face $-1 $-1 $345 $31 $-1 $446 forward single #
loop $-1 $-1 $447 $218 #
plane-surface $-1 -32.994198623569019 -39.56162223611539 0 -1 0 0 0 0 1 forward_v I I I I #
coedge $-1 $448 $221 $335 $449 reversed $134 $-1 #
coedge $-1 $221 $448 $450 $451 reversed $134 $-1 #
coedge $-1 $229 $228 $221 $334 reversed $219 $-1 #
edge $-1 $452 -8.2857614932937711 $453 8.2857614932937711 $333 $454 forward 7 unknown #
coedge $-1 $223 $222 $331 $449 forward $85 $-1 #
coedge $-1 $341 $447 $222 $337 reversed $329 $-1 #
edge $-1 $339 -5.2145905266352202 $455 5.2145905266352202 $336 $456 forward 7 unknown #
edge $-1 $453 -5.2145905266352202 $230 5.2145905266352202 $228 $457 forward 7 unknown #
vertex $-1 $337 $458 #
straight-curve $-1 0 -34.34703170948017 -8.2857614932937711 1 0 0 I I #
coedge $-1 $459 $336 $225 $342 reversed $329 $-1 #
edge $-1 $346 -8.2857614932937711 $339 8.2857614932937711 $341 $460 forward 7 unknown #
coedge $-1 $450 $226 $229 $348 forward $345 $-1 #
coedge $-1 $226 $450 $459 $461 forward $345 $-1 #
loop $-1 $-1 $226 $328 #
vertex $-1 $227 $462 #
straight-curve $-1 0 -34.34703170948017 8.2857614932937711 -1 0 0 I I #
edge $-1 $231 -5.2145905266352202 $452 5.2145905266352202 $229 $463 forward 7 unknown #
point $-1 -36.357408103018031 -34.34703170948017 -8.2857614932937711 #
point $-1 -36.357408103018031 -34.34703170948017 8.2857614932937711 #
face $-1 $-1 $367 $32 $-1 $464 forward single #
plane-surface $-1 -32.994198623569019 39.56162223611539 0 -1 0 0 0 0 1 forward_v I I I I #
coedge $-1 $465 $466 $370 $467 forward $234 $-1 #
coedge $-1 $363 $236 $237 $359 reversed $142 $-1 #
coedge $-1 $236 $363 $366 $468 reversed $142 $-1 #
coedge $-1 $466 $465 $236 $357 reversed $234 $-1 #
edge $-1 $469 -8.2857614932937711 $470 8.2857614932937711 $356 $471 forward 7 unknown #
coedge $-1 $238 $237 $465 $472 forward $89 $-1 #
edge $-1 $361 -5.2145905266352202 $470 5.2145905266352202 $354 $473 forward 7 unknown #
edge $-1 $474 -5.2145905266352202 $246 5.2145905266352202 $243 $475 forward 7 unknown #
vertex $-1 $359 $476 #
straight-curve $-1 0 34.34703170948017 -8.2857614932937711 -1 0 0 I I #
coedge $-1 $355 $354 $240 $364 reversed $142 $-1 #
edge $-1 $368 -8.2857614932937711 $361 8.2857614932937711 $363 $477 forward 7 unknown #
coedge $-1 $478 $241 $244 $371 forward $367 $-1 #
coedge $-1 $241 $478 $355 $468 forward $367 $-1 #
loop $-1 $-1 $241 $351 #
vertex $-1 $242 $479 #
straight-curve $-1 0 34.34703170948017 8.2857614932937711 1 0 0 I I #
coedge $-1 $244 $243 $353 $467 reversed $245 $-1 #
edge $-1 $247 -5.2145905266352202 $480 5.2145905266352202 $244 $481 forward 7 unknown #
point $-1 -32.994198623569019 34.34703170948017 -8.2857614932937711 #
point $-1 -32.994198623569019 34.34703170948017 8.2857614932937711 #
plane-surface $-1 0 0 8.2857614932937711 0 0 1 1 0 0 forward_v I I I I #
coedge $-1 $385 $384 $377 $482 forward $250 $-1 #
coedge $-1 $377 $252 $254 $381 reversed $150 $-1 #
coedge $-1 $252 $376 $375 $482 reversed $150 $-1 #
coedge $-1 $260 $255 $252 $379 forward $261 $-1 #
edge $-1 $382 -14.319852183214365 $483 -9.648383003748684 $378 $484 forward 7 unknown #
coedge $-1 $254 $253 $385 $485 reversed $93 $-1 #
edge $-1 $486 -1.9785632286268914e-014 $382 6.4941064409956919 $376 $487 forward 7 unknown #
vertex $-1 $256 $488 #
straight-curve $-1 -44.894252430690877 9.6088053233479194 8.2857614932937711 0 1 0 I I #
coedge $-1 $375 $257 $260 $389 reversed $250 $-1 #
coedge $-1 $257 $375 $380 $485 forward $250 $-1 #
vertex $-1 $258 $489 #
straight-curve $-1 -49.565721610156558 14.517370637181937 37.541883917282426 0 0 1 I I #
straight-curve $-1 -49.565721610156544 14.517370637181937 3.7745760424079293 -0.71933979245794832 0 -0.69465837861970381 I I #
edge $-1 $483 -23.91785065620974 $262 -14.517370637181937 $384 $490 forward 7 unknown #
point $-1 -49.565721610156558 14.517370637181937 8.2857614932937711 #
point $-1 -44.894252430690877 14.517370637181937 8.2857614932937711 #
edge $-1 $491 1 $491 0 $265 $-1 forward 7 unknown #
vertex $-1 $266 $492 #
ellipse-curve $-1 -46.535328641804028 16.397466640987503 5.3108289753929077 -0.69465837861970381 0 0.71933979245794832 0.35966989622897416 0 0.3473291893098519 1 I I #
point $-1 -46.870317124194763 16.397466640987503 6.377497957160708 #
edge $-1 $493 1 $493 0 $269 $-1 forward 7 unknown #
vertex $-1 $270 $494 #
ellipse-curve $-1 -46.535328641804028 19.217610646695839 5.3108289753929077 -0.69465837861970381 0 0.71933979245794832 0.35966989622897416 0 0.3473291893098519 1 I I #
point $-1 -46.870317124194763 19.217610646695839 6.377497957160708 #
edge $-1 $495 1 $495 0 $273 $-1 forward 7 unknown #
vertex $-1 $274 $496 #
ellipse-curve $-1 -46.535328641804028 22.037754652404182 5.3108289753929077 -0.69465837861970381 0 0.71933979245794832 0.35966989622897416 0 0.3473291893098519 1 I I #
point $-1 -46.870317124194763 22.037754652404182 6.377497957160708 #
loop $-1 $-1 $285 $277 #
plane-surface $-1 49.565721610156558 0 0 -1 0 0 0 0 1 forward_v I I I I #
coedge $-1 $407 $280 $282 $411 reversed $179 $-1 #
coedge $-1 $280 $406 $497 $498 reversed $179 $-1 #
coedge $-1 $288 $283 $280 $409 forward $278 $-1 #
edge $-1 $412 8.0652730823667795 $499 10.208974691576479 $408 $500 forward 7 unknown #
coedge $-1 $282 $281 $415 $501 reversed $112 $-1 #
edge $-1 $502 -99.131443220313116 $412 -95.195438784523674 $406 $503 forward 7 unknown #
vertex $-1 $284 $504 #
straight-curve $-1 47.422020000946873 -10.244914004116366 8.2857614932937693 0 -1 0 I I #
coedge $-1 $497 $285 $288 $419 reversed $404 $-1 #
coedge $-1 $285 $497 $410 $501 forward $404 $-1 #
vertex $-1 $286 $505 #
straight-curve $-1 49.565721610156558 -17.061805360255725 71.057113659902598 0 0 1 I I #
straight-curve $-1 -4.4251307431494951 -17.061805360255725 88.123374966499142 0.54463902268945019 0 -0.83867057594974714 I I #
edge $-1 $499 -23.917850656209737 $289 -17.061805360255725 $414 $506 forward 7 unknown #
point $-1 49.565721610156558 -17.061805360255725 8.2857614932937711 #
point $-1 47.422020000946858 -17.061805360255725 8.2857614932937764 #
edge $-1 $507 1 $507 0 $292 $-1 forward 7 unknown #
vertex $-1 $293 $508 #
ellipse-curve $-1 47.655200229601967 -21.958980571651445 6.0906169170521602 0.83867057594974714 0 0.54463902268945019 0.2723195113447251 0 -0.41933528797487357 1 I I #
point $-1 48.766190316896441 -21.958980571651445 6.2159206517667371 #
edge $-1 $509 1 $509 0 $296 $-1 forward 7 unknown #
vertex $-1 $297 $510 #
ellipse-curve $-1 47.655200229601967 -19.020675444814014 6.0906169170521602 0.83867057594974714 0 0.54463902268945019 0.2723195113447251 0 -0.41933528797487357 1 I I #
point $-1 48.766190316896441 -19.020675444814014 6.2159206517667371 #
plane-surface $-1 49.565721610156558 0 0 -1 0 0 0 0 1 forward_v I I I I #
coedge $-1 $304 $303 $317 $441 forward $126 $-1 #
edge $-1 $436 -49.565721610156558 $433 49.565721610156558 $307 $511 forward 7 unknown #
vertex $-1 $306 $512 #
straight-curve $-1 49.565721610156558 0 8.2857614932937711 0 1 0 I I #
straight-curve $-1 49.565721610156558 -34.34703170948017 0 0 0 -1 I I #
vertex $-1 $441 $513 #
straight-curve $-1 -49.565721610156558 -34.34703170948017 0 0 0 -1 I I #
point $-1 49.565721610156558 -34.34703170948017 -8.2857614932937711 #
point $-1 -49.565721610156558 -34.34703170948017 -8.2857614932937711 #
straight-curve $-1 0 34.34703170948017 8.2857614932937711 -1 0 0 I I #
edge $-1 $318 -34.34703170948017 $436 34.34703170948017 $317 $514 forward 7 unknown #
point $-1 -49.565721610156558 34.34703170948017 8.2857614932937711 #
point $-1 49.565721610156558 34.34703170948017 8.2857614932937711 #
straight-curve $-1 49.565721610156558 0 -8.2857614932937711 0 -1 0 I I #
straight-curve $-1 -49.565721610156558 0 -8.2857614932937711 0 1 0 I I #
plane-surface $-1 0 0 8.2857614932937711 0 0 1 1 0 0 forward_v I I I I #
coedge $-1 $336 $459 $448 $515 forward $329 $-1 #
coedge $-1 $332 $331 $447 $515 reversed $134 $-1 #
edge $-1 $455 -1.6816047397245057 $453 1.6816047397245057 $331 $516 forward 7 unknown #
coedge $-1 $344 $343 $332 $451 forward $345 $-1 #
edge $-1 $452 -1.6816047397245057 $517 1.6816047397245057 $332 $518 forward 7 unknown #
vertex $-1 $348 $519 #
vertex $-1 $338 $520 #
straight-curve $-1 -36.357408103018031 -44.77621276275061 0 0 0 -1 I I #
vertex $-1 $515 $521 #
straight-curve $-1 -32.994198623569019 -39.56162223611539 -8.2857614932937711 0 -1 0 I I #
straight-curve $-1 -36.357408103018031 -39.56162223611539 -8.2857614932937711 0 1 0 I I #
point $-1 -32.994198623569019 -34.34703170948017 -8.2857614932937711 #
coedge $-1 $447 $341 $344 $461 reversed $329 $-1 #
straight-curve $-1 -32.994198623569019 -34.34703170948017 0 0 0 -1 I I #
edge $-1 $517 -5.2145905266352202 $346 5.2145905266352202 $459 $522 forward 7 unknown #
point $-1 -32.994198623569019 -34.34703170948017 8.2857614932937711 #
straight-curve $-1 -36.357408103018031 -39.56162223611539 8.2857614932937711 0 -1 0 I I #
plane-surface $-1 0 0 8.2857614932937711 0 0 1 1 0 0 forward_v I I I I #
coedge $-1 $356 $353 $358 $472 reversed $234 $-1 #
coedge $-1 $353 $356 $478 $523 reversed $234 $-1 #
edge $-1 $480 -8.2857614932937711 $474 8.2857614932937711 $370 $524 forward 7 unknown #
edge $-1 $469 -5.2145905266352202 $368 5.2145905266352202 $355 $525 forward 7 unknown #
vertex $-1 $523 $526 #
vertex $-1 $472 $527 #
straight-curve $-1 -36.357408103018031 44.77621276275061 0 0 0 -1 I I #
edge $-1 $470 -1.6816047397245057 $474 1.6816047397245057 $465 $528 forward 7 unknown #
straight-curve $-1 -36.357408103018031 39.56162223611539 -8.2857614932937711 0 1 0 I I #
vertex $-1 $360 $529 #
straight-curve $-1 -32.994198623569019 39.56162223611539 -8.2857614932937711 0 -1 0 I I #
point $-1 -36.357408103018031 34.34703170948017 -8.2857614932937711 #
straight-curve $-1 -36.357408103018031 34.34703170948017 0 0 0 -1 I I #
coedge $-1 $366 $365 $466 $523 forward $367 $-1 #
point $-1 -36.357408103018031 34.34703170948017 8.2857614932937711 #
vertex $-1 $371 $530 #
straight-curve $-1 -32.994198623569019 39.56162223611539 8.2857614932937711 0 1 0 I I #
edge $-1 $483 29.256122423988657 $486 33.767307874874511 $375 $531 forward 7 unknown #
vertex $-1 $389 $532 #
straight-curve $-1 -59.214104613905242 23.91785065620974 8.2857614932937693 -1 0 0 I I #
edge $-1 $486 -14.309045332861821 $386 -4.9085653138340177 $385 $533 forward 7 unknown #
vertex $-1 $485 $534 #
straight-curve $-1 -49.565721610156544 23.91785065620974 3.7745760424079293 0.71933979245794832 0 0.69465837861970381 I I #
point $-1 -44.894252430690877 23.91785065620974 8.2857614932937711 #
point $-1 -49.565721610156558 14.517370637181937 3.7745760424079156 #
straight-curve $-1 -49.565721610156558 0 8.2857614932937711 0 -1 0 I I #
vertex $-1 $392 $535 #
point $-1 -46.175658745575056 16.397466640987503 5.6581581647027601 #
vertex $-1 $396 $536 #
point $-1 -46.175658745575056 19.217610646695839 5.6581581647027601 #
vertex $-1 $400 $537 #
point $-1 -46.175658745575056 22.037754652404182 5.6581581647027601 #
coedge $-1 $415 $414 $407 $498 forward $404 $-1 #
edge $-1 $499 62.771352166608828 $502 66.072363273713108 $497 $538 forward 7 unknown #
vertex $-1 $419 $539 #
straight-curve $-1 39.356746918580079 -23.917850656209737 8.2857614932937764 1 0 0 I I #
edge $-1 $502 -13.672936652093371 $416 -6.8168913561393598 $415 $540 forward 7 unknown #
vertex $-1 $501 $541 #
straight-curve $-1 -4.4251307431494951 -23.917850656209737 88.123374966499142 -0.54463902268945019 0 0.83867057594974714 I I #
point $-1 47.422020000946858 -23.917850656209737 8.2857614932937764 #
point $-1 49.565721610156558 -17.061805360255725 4.9847503861894893 #
straight-curve $-1 49.565721610156558 0 8.2857614932937711 0 1 0 I I #
vertex $-1 $422 $542 #
point $-1 47.927519740946693 -21.958980571651445 5.6712816290772867 #
vertex $-1 $426 $543 #
point $-1 47.927519740946693 -19.020675444814014 5.6712816290772867 #
straight-curve $-1 0 -34.34703170948017 8.2857614932937711 1 0 0 I I #
point $-1 49.565721610156558 -34.34703170948017 8.2857614932937711 #
point $-1 -49.565721610156558 -34.34703170948017 8.2857614932937711 #
straight-curve $-1 -49.565721610156558 0 8.2857614932937711 0 -1 0 I I #
edge $-1 $517 -8.2857614932937711 $455 8.2857614932937711 $447 $544 forward 7 unknown #
straight-curve $-1 -34.675803363293525 -44.77621276275061 -8.2857614932937711 -1 0 0 I I #
vertex $-1 $461 $545 #
straight-curve $-1 -34.675803363293525 -44.77621276275061 8.2857614932937711 1 0 0 I I #
point $-1 -36.357408103018031 -44.77621276275061 8.2857614932937711 #
point $-1 -36.357408103018031 -44.77621276275061 -8.2857614932937711 #
point $-1 -32.994198623569019 -44.77621276275061 -8.2857614932937711 #
straight-curve $-1 -32.994198623569019 -39.56162223611539 8.2857614932937711 0 1 0 I I #
edge $-1 $480 -1.6816047397245057 $469 1.6816047397245057 $466 $546 forward 7 unknown #
straight-curve $-1 -32.994198623569019 44.77621276275061 0 0 0 -1 I I #
straight-curve $-1 -36.357408103018031 39.56162223611539 8.2857614932937711 0 -1 0 I I #
point $-1 -36.357408103018031 44.77621276275061 8.2857614932937711 #
point $-1 -36.357408103018031 44.77621276275061 -8.2857614932937711 #
straight-curve $-1 -34.675803363293525 44.77621276275061 -8.2857614932937711 1 0 0 I I #
point $-1 -32.994198623569019 44.77621276275061 -8.2857614932937711 #
point $-1 -32.994198623569019 44.77621276275061 8.2857614932937711 #
straight-curve $-1 -49.565721610156558 23.91785065620974 37.541883917282426 0 0 -1 I I #
point $-1 -49.565721610156558 23.91785065620974 8.2857614932937711 #
straight-curve $-1 -49.565721610156558 9.6088053233479194 3.7745760424079191 0 -1 0 I I #
point $-1 -49.565721610156558 23.91785065620974 3.7745760424079156 #
point $-1 -46.187999452494182 16.397466640987503 4.9511590791639337 #
point $-1 -46.187999452494182 19.217610646695839 4.9511590791639337 #
point $-1 -46.187999452494182 22.037754652404182 4.9511590791639337 #
straight-curve $-1 49.565721610156558 -23.917850656209737 71.057113659902598 0 0 -1 I I #
point $-1 49.565721610156558 -23.917850656209737 8.2857614932937711 #
straight-curve $-1 49.565721610156558 -10.244914004116366 4.9847503861894893 0 1 0 I I #
point $-1 49.565721610156558 -23.917850656209737 4.9847503861894893 #
point $-1 47.235864941627092 -21.958980571651445 5.8182974057074359 #
point $-1 47.235864941627092 -19.020675444814014 5.8182974057074359 #
straight-curve $-1 -32.994198623569019 -44.77621276275061 0 0 0 -1 I I #
point $-1 -32.994198623569019 -44.77621276275061 8.2857614932937711 #
straight-curve $-1 -34.675803363293525 44.77621276275061 8.2857614932937711 -1 0 0 I I #
End-of-ACIS-data 