500 0 12 0           
7 Unknown 11 ACIS 5.0 NT 24 Fri Mar 26 17:26:16 1999 
-1 9.9999999999999995e-007 1e-010 
body $-1 $12 $-1 $13 #
body $-1 $14 $-1 $15 #
body $-1 $16 $-1 $17 #
body $-1 $18 $-1 $19 #
body $-1 $20 $-1 $21 #
body $-1 $22 $-1 $23 #
body $-1 $24 $-1 $25 #
body $-1 $26 $-1 $27 #
body $-1 $28 $-1 $29 #
body $-1 $30 $-1 $31 #
body $-1 $32 $-1 $33 #
body $-1 $34 $-1 $35 #
lump $-1 $-1 $36 $0 #
transform $-1 1 0 0 0 1 0 0 0 1 41.334269234290595 17.317452970222014 6.6020047840423715 1 rotate no_reflect no_shear #
lump $-1 $-1 $37 $1 #
transform $-1 1 0 0 0 1 0 0 0 1 41.334269234290595 17.317452970222014 6.6020047840423715 1 rotate no_reflect no_shear #
lump $-1 $-1 $38 $2 #
transform $-1 1 0 0 0 1 0 0 0 1 41.334269234290595 17.317452970222014 6.6020047840423715 1 rotate no_reflect no_shear #
lump $-1 $-1 $39 $3 #
transform $-1 1 0 0 0 1 0 0 0 1 41.334269234290595 17.317452970222014 6.6020047840423715 1 rotate no_reflect no_shear #
lump $-1 $-1 $40 $4 #
transform $-1 1 0 0 0 1 0 0 0 1 41.334269234290595 17.317452970222014 6.6020047840423715 1 rotate no_reflect no_shear #
lump $-1 $-1 $41 $5 #
transform $-1 1 0 0 0 1 0 0 0 1 41.334269234290595 17.317452970222014 6.6020047840423715 1 rotate no_reflect no_shear #
lump $-1 $-1 $42 $6 #
transform $-1 1 0 0 0 1 0 0 0 1 41.334269234290595 17.317452970222014 6.6020047840423715 1 rotate no_reflect no_shear #
lump $-1 $-1 $43 $7 #
transform $-1 1 0 0 0 1 0 0 0 1 41.334269234290595 17.317452970222014 6.6020047840423715 1 rotate no_reflect no_shear #
lump $-1 $-1 $44 $8 #
transform $-1 1 0 0 0 1 0 0 0 1 41.334269234290595 17.317452970222014 6.6020047840423715 1 rotate no_reflect no_shear #
lump $-1 $-1 $45 $9 #
transform $-1 1 0 0 0 1 0 0 0 1 41.334269234290595 17.317452970222014 6.6020047840423715 1 rotate no_reflect no_shear #
lump $-1 $-1 $46 $10 #
transform $-1 1 0 0 0 1 0 0 0 1 41.334269234290595 17.317452970222014 6.6020047840423715 1 rotate no_reflect no_shear #
lump $-1 $-1 $47 $11 #
transform $-1 1 0 0 0 1 0 0 0 1 41.334269234290595 17.317452970222014 6.6020047840423715 1 rotate no_reflect no_shear #
shell $-1 $-1 $-1 $48 $-1 $12 #
shell $-1 $-1 $-1 $49 $-1 $14 #
shell $-1 $-1 $-1 $50 $-1 $16 #
shell $-1 $-1 $-1 $51 $-1 $18 #
shell $-1 $-1 $-1 $52 $-1 $20 #
shell $-1 $-1 $-1 $53 $-1 $22 #
shell $-1 $-1 $-1 $54 $-1 $24 #
shell $-1 $-1 $-1 $55 $-1 $26 #
shell $-1 $-1 $-1 $56 $-1 $28 #
shell $-1 $-1 $-1 $57 $-1 $30 #
shell $-1 $-1 $-1 $58 $-1 $32 #
shell $-1 $-1 $-1 $59 $-1 $34 #
face $-1 $60 $61 $36 $-1 $62 forward single #
face $-1 $63 $64 $37 $-1 $65 reversed single #
face $-1 $66 $67 $38 $-1 $68 reversed single #
face $-1 $69 $70 $39 $-1 $71 forward single #
face $-1 $72 $73 $40 $-1 $74 reversed single #
face $-1 $75 $76 $41 $-1 $77 forward single #
face $-1 $78 $79 $42 $-1 $80 forward single #
face $-1 $81 $82 $43 $-1 $83 forward single #
face $-1 $84 $85 $44 $-1 $86 reversed single #
face $-1 $87 $88 $45 $-1 $89 forward single #
face $-1 $90 $91 $46 $-1 $92 forward single #
face $-1 $93 $94 $47 $-1 $95 forward single #
face $-1 $96 $97 $36 $-1 $98 reversed single #
loop $-1 $-1 $99 $48 #
plane-surface $-1 0 0 6.6020047840423715 0 0 1 1 0 0 forward_v I I I I #
face $-1 $100 $101 $37 $-1 $102 reversed single #
loop $-1 $-1 $103 $49 #
plane-surface $-1 0 -14.504282054476453 3.6020047840423715 0 0 1 1 0 0 forward_v I I I I #
face $-1 $104 $105 $38 $-1 $106 reversed single #
loop $-1 $-1 $107 $50 #
plane-surface $-1 57.605132808662113 7.4689991727713405 116.01701845319377 0 -1 0 -0.79863551827123203 0 -0.60181501223851219 forward_v I I I I #
face $-1 $108 $109 $39 $-1 $110 forward single #
loop $-1 $111 $112 $51 #
cone-surface $-1 37.813732229875029 3.3230857344241862 2.5752250315867924 -0.79863551827123203 0 -0.60181501223851219 0.60181501223851219 0 -0.79863551827123203 1 I I 0 1 1 forward I I I I #
face $-1 $113 $114 $40 $-1 $115 reversed single #
loop $-1 $-1 $116 $52 #
plane-surface $-1 -41.334269234290588 -8.3630102182966919 1.8019367784668248 -0.57357644374324357 0 0.81915203911291934 0.81915203911291934 0 0.57357644374324357 forward_v I I I I #
face $-1 $117 $118 $41 $-1 $119 forward single #
loop $-1 $120 $121 $53 #
cone-surface $-1 -37.53727700673948 -10.359870770557212 3.6744293182775012 0.57357644374324357 0 -0.81915203911291934 0.40957601955645967 0 0.28678822187162178 1 I I 0 1 0.5 forward I I I I #
face $-1 $122 $123 $42 $-1 $124 forward single #
loop $-1 $125 $126 $54 #
cone-surface $-1 -37.53727700673948 -8.3630102182966919 3.6744293182775012 0.57357644374324357 0 -0.81915203911291934 0.40957601955645967 0 0.28678822187162178 1 I I 0 1 0.5 forward I I I I #
face $-1 $127 $128 $43 $-1 $129 forward single #
loop $-1 $130 $131 $55 #
cone-surface $-1 -37.53727700673948 -6.3661496660361721 3.6744293182775012 0.57357644374324357 0 -0.81915203911291934 0.40957601955645967 0 0.28678822187162178 1 I I 0 1 0.5 forward I I I I #
face $-1 $132 $133 $44 $-1 $134 reversed single #
loop $-1 $-1 $135 $56 #
plane-surface $-1 -88.75099553855091 2.813170915745562 69.520038635489925 0 1 0 -0.57357644374324357 0 0.81915203911291934 forward_v I I I I #
face $-1 $136 $137 $45 $-1 $138 forward single #
loop $-1 $139 $140 $57 #
cone-surface $-1 -37.53727700673948 4.14441128391924 3.6744293182775012 0.57357644374324357 0 -0.81915203911291934 0.40957601955645967 0 0.28678822187162178 1 I I 0 1 0.5 forward I I I I #
face $-1 $141 $142 $46 $-1 $143 forward single #
loop $-1 $144 $145 $58 #
cone-surface $-1 -37.53727700673948 6.1412718361797616 3.6744293182775012 0.57357644374324357 0 -0.81915203911291934 0.40957601955645967 0 0.28678822187162178 1 I I 0 1 0.5 forward I I I I #
face $-1 $146 $147 $47 $-1 $148 forward single #
loop $-1 $149 $150 $59 #
cone-surface $-1 -37.53727700673948 8.1381323884402832 3.6744293182775012 0.57357644374324357 0 -0.81915203911291934 0.40957601955645967 0 0.28678822187162178 1 I I 0 1 0.5 forward I I I I #
face $-1 $151 $152 $36 $-1 $153 reversed single #
loop $-1 $-1 $154 $60 #
plane-surface $-1 0 0 -6.6020047840423715 0 0 1 1 0 0 forward_v I I I I #
coedge $-1 $155 $156 $157 $158 forward $61 $-1 #
face $-1 $159 $160 $37 $-1 $161 reversed single #
loop $-1 $-1 $162 $63 #
plane-surface $-1 0 -11.691111138730893 5.1020047840423715 0 -1 0 0 0 -1 forward_v I I I I #
coedge $-1 $163 $164 $165 $166 reversed $64 $-1 #
face $-1 $167 $168 $38 $-1 $169 reversed single #
loop $-1 $-1 $170 $66 #
plane-surface $-1 -8.4168982559185039 3.3230857344241862 66.265850962984672 0.79863551827123203 0 0.60181501223851219 0.60181501223851219 0 -0.79863551827123203 forward_v I I I I #
coedge $-1 $171 $172 $173 $174 reversed $67 $-1 #
face $-1 $-1 $175 $39 $-1 $176 forward single #
loop $-1 $177 $178 $69 #
cone-surface $-1 36.289495384149539 3.3230857344241862 1.4266302158311248 -0.79863551827123203 0 -0.60181501223851219 0.3009075061192561 0 -0.39931775913561601 1 I I -0.70710678118654746 0.70710678118654746 0.5 forward I I I I #
loop $-1 $-1 $179 $51 #
coedge $-1 $112 $112 $180 $181 reversed $70 $-1 #
face $-1 $182 $183 $40 $-1 $184 forward single #
loop $-1 $-1 $185 $72 #
plane-surface $-1 -88.75099553855091 -5.0349092978624927 69.520038635489925 0 -1 0 0.57357644374324357 0 -0.81915203911291934 forward_v I I I I #
coedge $-1 $186 $187 $188 $189 reversed $73 $-1 #
face $-1 $-1 $190 $41 $-1 $191 forward single #
loop $-1 $192 $193 $75 #
cone-surface $-1 -37.024494379614183 -10.359870770557212 2.9420998455221721 0.57357644374324357 0 -0.81915203911291934 0.20478800977822983 0 0.14339411093581089 1 I I -0.70710678118654746 0.70710678118654746 0.25 forward I I I I #
loop $-1 $-1 $194 $53 #
coedge $-1 $121 $121 $195 $196 reversed $76 $-1 #
face $-1 $-1 $197 $42 $-1 $198 forward single #
loop $-1 $199 $200 $78 #
cone-surface $-1 -37.024494379614183 -8.3630102182966919 2.9420998455221721 0.57357644374324357 0 -0.81915203911291934 0.20478800977822983 0 0.14339411093581089 1 I I -0.70710678118654746 0.70710678118654746 0.25 forward I I I I #
loop $-1 $-1 $201 $54 #
coedge $-1 $126 $126 $202 $203 reversed $79 $-1 #
face $-1 $-1 $204 $43 $-1 $205 forward single #
loop $-1 $206 $207 $81 #
cone-surface $-1 -37.024494379614183 -6.3661496660361721 2.9420998455221721 0.57357644374324357 0 -0.81915203911291934 0.20478800977822983 0 0.14339411093581089 1 I I -0.70710678118654746 0.70710678118654746 0.25 forward I I I I #
loop $-1 $-1 $208 $55 #
coedge $-1 $131 $131 $209 $210 reversed $82 $-1 #
face $-1 $211 $212 $44 $-1 $213 reversed single #
loop $-1 $-1 $214 $84 #
plane-surface $-1 -41.334269234290588 6.1412718361797616 1.8019367784668248 -0.57357644374324357 0 0.81915203911291934 0.81915203911291934 0 0.57357644374324357 forward_v I I I I #
coedge $-1 $215 $216 $217 $218 reversed $85 $-1 #
face $-1 $-1 $219 $45 $-1 $220 forward single #
loop $-1 $221 $222 $87 #
cone-surface $-1 -37.024494379614183 4.14441128391924 2.9420998455221721 0.57357644374324357 0 -0.81915203911291934 0.20478800977822983 0 0.14339411093581089 1 I I -0.70710678118654746 0.70710678118654746 0.25 forward I I I I #
loop $-1 $-1 $223 $57 #
coedge $-1 $140 $140 $224 $225 reversed $88 $-1 #
face $-1 $-1 $226 $46 $-1 $227 forward single #
loop $-1 $228 $229 $90 #
cone-surface $-1 -37.024494379614183 6.1412718361797616 2.9420998455221721 0.57357644374324357 0 -0.81915203911291934 0.20478800977822983 0 0.14339411093581089 1 I I -0.70710678118654746 0.70710678118654746 0.25 forward I I I I #
loop $-1 $-1 $230 $58 #
coedge $-1 $145 $145 $231 $232 reversed $91 $-1 #
face $-1 $-1 $233 $47 $-1 $234 forward single #
loop $-1 $235 $236 $93 #
cone-surface $-1 -37.024494379614183 8.1381323884402832 2.9420998455221721 0.57357644374324357 0 -0.81915203911291934 0.20478800977822983 0 0.14339411093581089 1 I I -0.70710678118654746 0.70710678118654746 0.25 forward I I I I #
loop $-1 $-1 $237 $59 #
coedge $-1 $150 $150 $238 $239 reversed $94 $-1 #
face $-1 $240 $241 $36 $-1 $242 reversed single #
loop $-1 $-1 $243 $96 #
plane-surface $-1 0 -17.317452970222014 0 0 1 0 0 0 1 forward_v I I I I #
coedge $-1 $244 $245 $246 $247 forward $97 $-1 #
coedge $-1 $248 $99 $249 $250 forward $61 $-1 #
coedge $-1 $99 $248 $251 $252 forward $61 $-1 #
coedge $-1 $253 $254 $99 $158 reversed $255 $-1 #
edge $-1 $256 -17.317452970222014 $257 17.317452970222014 $157 $258 forward 7 unknown #
face $-1 $259 $260 $37 $-1 $261 reversed single #
loop $-1 $-1 $262 $100 #
plane-surface $-1 -41.334269234290595 0 0 1 0 0 0 0 -1 forward_v I I I I #
coedge $-1 $263 $264 $265 $266 reversed $101 $-1 #
coedge $-1 $267 $103 $268 $269 reversed $64 $-1 #
coedge $-1 $103 $267 $270 $271 forward $64 $-1 #
coedge $-1 $272 $273 $103 $166 forward $274 $-1 #
edge $-1 $275 -10.065311942983787 $276 -4.4389701114926661 $165 $277 forward 7 unknown #
face $-1 $278 $279 $38 $-1 $280 reversed single #
loop $-1 $-1 $281 $104 #
plane-surface $-1 57.605132808662113 -0.82282770392296811 116.01701845319377 0 1 0 0.79863551827123203 0 0.60181501223851219 forward_v I I I I #
coedge $-1 $282 $283 $284 $285 reversed $105 $-1 #
coedge $-1 $172 $107 $286 $287 reversed $67 $-1 #
coedge $-1 $107 $171 $282 $288 reversed $67 $-1 #
coedge $-1 $284 $289 $107 $174 forward $290 $-1 #
edge $-1 $291 -12.531702829959539 $292 -7.7404669943081466 $173 $293 forward 7 unknown #
loop $-1 $-1 $180 $108 #
plane-surface $-1 -8.4168982559185039 3.3230857344241862 66.265850962984672 0.79863551827123203 0 0.60181501223851219 0.60181501223851219 0 -0.79863551827123203 forward_v I I I I #
loop $-1 $-1 $294 $69 #
coedge $-1 $178 $178 $179 $295 reversed $109 $-1 #
coedge $-1 $179 $179 $178 $295 forward $111 $-1 #
coedge $-1 $180 $180 $112 $181 forward $175 $-1 #
edge $-1 $296 0 $296 6.2831853071796004 $180 $297 forward 7 unknown #
face $-1 $298 $299 $40 $-1 $300 reversed single #
loop $-1 $-1 $188 $113 #
plane-surface $-1 0 0 6.6020047840423715 0 0 1 1 0 0 forward_v I I I I #
coedge $-1 $301 $302 $303 $304 reversed $114 $-1 #
coedge $-1 $305 $116 $306 $307 reversed $73 $-1 #
coedge $-1 $116 $305 $301 $308 forward $73 $-1 #
coedge $-1 $303 $309 $116 $189 forward $183 $-1 #
edge $-1 $310 -7.5096060295825451 $311 -0.85340418871414681 $188 $312 forward 7 unknown #
loop $-1 $-1 $195 $117 #
plane-surface $-1 -41.334269234290588 -8.3630102182966919 1.8019367784668248 -0.57357644374324357 0 0.81915203911291934 0.81915203911291934 0 0.57357644374324357 forward_v I I I I #
loop $-1 $-1 $313 $75 #
coedge $-1 $193 $193 $194 $314 reversed $118 $-1 #
coedge $-1 $194 $194 $193 $314 forward $120 $-1 #
coedge $-1 $195 $195 $121 $196 forward $190 $-1 #
edge $-1 $315 0 $315 6.2831853071796004 $195 $316 forward 7 unknown #
loop $-1 $-1 $202 $122 #
plane-surface $-1 -41.334269234290588 -8.3630102182966919 1.8019367784668248 -0.57357644374324357 0 0.81915203911291934 0.81915203911291934 0 0.57357644374324357 forward_v I I I I #
loop $-1 $-1 $317 $78 #
coedge $-1 $200 $200 $201 $318 reversed $123 $-1 #
coedge $-1 $201 $201 $200 $318 forward $125 $-1 #
coedge $-1 $202 $202 $126 $203 forward $197 $-1 #
edge $-1 $319 0 $319 6.2831853071796004 $202 $320 forward 7 unknown #
loop $-1 $-1 $209 $127 #
plane-surface $-1 -41.334269234290588 -8.3630102182966919 1.8019367784668248 -0.57357644374324357 0 0.81915203911291934 0.81915203911291934 0 0.57357644374324357 forward_v I I I I #
loop $-1 $-1 $321 $81 #
coedge $-1 $207 $207 $208 $322 reversed $128 $-1 #
coedge $-1 $208 $208 $207 $322 forward $130 $-1 #
coedge $-1 $209 $209 $131 $210 forward $204 $-1 #
edge $-1 $323 0 $323 6.2831853071796004 $209 $324 forward 7 unknown #
face $-1 $325 $326 $44 $-1 $327 forward single #
loop $-1 $-1 $328 $132 #
plane-surface $-1 -88.75099553855091 9.4693727566139607 69.520038635489925 0 -1 0 0.57357644374324357 0 -0.81915203911291934 forward_v I I I I #
coedge $-1 $329 $330 $331 $332 reversed $133 $-1 #
coedge $-1 $216 $135 $333 $334 reversed $85 $-1 #
coedge $-1 $135 $215 $329 $335 reversed $85 $-1 #
coedge $-1 $331 $336 $135 $218 forward $326 $-1 #
edge $-1 $337 3.0412285349848602 $338 9.8964359577081282 $217 $339 forward 7 unknown #
loop $-1 $-1 $224 $136 #
plane-surface $-1 -41.334269234290588 6.1412718361797616 1.8019367784668248 -0.57357644374324357 0 0.81915203911291934 0.81915203911291934 0 0.57357644374324357 forward_v I I I I #
loop $-1 $-1 $340 $87 #
coedge $-1 $222 $222 $223 $341 reversed $137 $-1 #
coedge $-1 $223 $223 $222 $341 forward $139 $-1 #
coedge $-1 $224 $224 $140 $225 forward $219 $-1 #
edge $-1 $342 0 $342 6.2831853071796004 $224 $343 forward 7 unknown #
loop $-1 $-1 $231 $141 #
plane-surface $-1 -41.334269234290588 6.1412718361797616 1.8019367784668248 -0.57357644374324357 0 0.81915203911291934 0.81915203911291934 0 0.57357644374324357 forward_v I I I I #
loop $-1 $-1 $344 $90 #
coedge $-1 $229 $229 $230 $345 reversed $142 $-1 #
coedge $-1 $230 $230 $229 $345 forward $144 $-1 #
coedge $-1 $231 $231 $145 $232 forward $226 $-1 #
edge $-1 $346 0 $346 6.2831853071796004 $231 $347 forward 7 unknown #
loop $-1 $-1 $238 $146 #
plane-surface $-1 -41.334269234290588 6.1412718361797616 1.8019367784668248 -0.57357644374324357 0 0.81915203911291934 0.81915203911291934 0 0.57357644374324357 forward_v I I I I #
loop $-1 $-1 $348 $93 #
coedge $-1 $236 $236 $237 $349 reversed $147 $-1 #
coedge $-1 $237 $237 $236 $349 forward $149 $-1 #
coedge $-1 $238 $238 $150 $239 forward $233 $-1 #
edge $-1 $350 0 $350 6.2831853071796004 $238 $351 forward 7 unknown #
face $-1 $352 $353 $36 $-1 $354 reversed single #
loop $-1 $-1 $355 $151 #
plane-surface $-1 -41.334269234290595 0 0 1 0 0 0 0 -1 forward_v I I I I #
coedge $-1 $356 $251 $357 $358 forward $152 $-1 #
coedge $-1 $359 $154 $356 $360 forward $97 $-1 #
coedge $-1 $154 $359 $361 $362 forward $97 $-1 #
coedge $-1 $254 $253 $154 $247 reversed $255 $-1 #
edge $-1 $363 -17.317452970222014 $364 17.317452970222014 $246 $365 forward 7 unknown #
coedge $-1 $156 $155 $366 $367 forward $61 $-1 #
coedge $-1 $368 $369 $155 $250 reversed $353 $-1 #
edge $-1 $257 -41.334269234290595 $370 41.334269234290595 $249 $371 forward 7 unknown #
coedge $-1 $243 $372 $156 $252 reversed $152 $-1 #
edge $-1 $373 -41.334269234290595 $256 41.334269234290595 $251 $374 forward 7 unknown #
coedge $-1 $246 $157 $372 $375 forward $255 $-1 #
coedge $-1 $157 $246 $368 $376 reversed $255 $-1 #
loop $-1 $-1 $253 $352 #
vertex $-1 $158 $377 #
vertex $-1 $158 $378 #
straight-curve $-1 41.334269234290595 0 6.6020047840423715 0 1 0 I I #
face $-1 $379 $380 $37 $-1 $381 forward single #
loop $-1 $-1 $268 $159 #
plane-surface $-1 0 -17.317452970222014 0 0 1 0 0 0 1 forward_v I I I I #
coedge $-1 $382 $383 $264 $384 forward $160 $-1 #
coedge $-1 $270 $162 $272 $385 reversed $101 $-1 #
coedge $-1 $162 $270 $262 $384 reversed $101 $-1 #
coedge $-1 $386 $387 $162 $266 forward $380 $-1 #
edge $-1 $388 -41.334269234290595 $389 41.334269234290595 $265 $390 forward 7 unknown #
coedge $-1 $164 $163 $382 $391 reversed $64 $-1 #
coedge $-1 $392 $393 $163 $269 forward $260 $-1 #
edge $-1 $394 -41.334269234290595 $275 41.334269234290595 $268 $395 forward 7 unknown #
coedge $-1 $264 $263 $164 $271 reversed $101 $-1 #
edge $-1 $396 -41.334269234290595 $276 41.334269234290595 $270 $397 forward 7 unknown #
coedge $-1 $398 $165 $263 $385 forward $274 $-1 #
coedge $-1 $165 $398 $392 $399 forward $274 $-1 #
loop $-1 $-1 $272 $379 #
vertex $-1 $269 $400 #
vertex $-1 $166 $401 #
straight-curve $-1 41.334269234290595 -7.2521410272382267 3.6020047840423715 0 1 0 I I #
face $-1 $-1 $290 $38 $-1 $402 forward single #
loop $-1 $-1 $403 $167 #
plane-surface $-1 41.334269234290595 0 0 -1 0 0 0 0 1 forward_v I I I I #
coedge $-1 $404 $405 $406 $407 reversed $168 $-1 #
coedge $-1 $408 $170 $172 $288 forward $105 $-1 #
coedge $-1 $170 $408 $404 $409 forward $105 $-1 #
coedge $-1 $406 $173 $170 $285 forward $290 $-1 #
edge $-1 $292 -5.8074563055592474 $410 2.4843705711350612 $284 $411 forward 7 unknown #
coedge $-1 $412 $413 $171 $287 forward $279 $-1 #
edge $-1 $414 -57.764689328192816 $291 -51.406504442554514 $286 $415 forward 7 unknown #
edge $-1 $292 74.707228534104956 $414 82.668538468581175 $172 $416 forward 7 unknown #
coedge $-1 $173 $406 $412 $417 forward $290 $-1 #
loop $-1 $-1 $406 $278 #
vertex $-1 $287 $418 #
vertex $-1 $174 $419 #
straight-curve $-1 28.802566404331056 7.4689991727713405 6.6020047840423715 -1 0 0 I I #
coedge $-1 $294 $294 $-1 $420 reversed $177 $-1 #
edge $-1 $421 0 $421 6.2831853071796004 $178 $422 forward 7 unknown #
vertex $-1 $181 $423 #
ellipse-curve $-1 38.938651316464906 3.3230857344241862 3.4229123412232054 0.79863551827123203 0 0.60181501223851219 0.60181501223851219 0 -0.79863551827123203 1 I I #
face $-1 $-1 $424 $40 $-1 $425 forward single #
loop $-1 $-1 $426 $182 #
plane-surface $-1 -41.334269234290595 0 0 1 0 0 0 0 -1 forward_v I I I I #
coedge $-1 $302 $185 $187 $308 reversed $114 $-1 #
coedge $-1 $185 $301 $426 $427 reversed $114 $-1 #
coedge $-1 $428 $188 $185 $304 forward $183 $-1 #
edge $-1 $311 -9.8964359577081282 $429 -3.0412285349848602 $303 $430 forward 7 unknown #
coedge $-1 $187 $186 $431 $432 reversed $73 $-1 #
coedge $-1 $433 $434 $186 $307 forward $424 $-1 #
edge $-1 $435 -17.87594609963022 $310 -9.5072830244006852 $306 $436 forward 7 unknown #
edge $-1 $437 -8.6223355153435888e-015 $311 8.3686630752295255 $301 $438 forward 7 unknown #
coedge $-1 $188 $428 $433 $439 forward $183 $-1 #
vertex $-1 $307 $440 #
vertex $-1 $189 $441 #
straight-curve $-1 -34.479061811567327 -4.1815051091483459 6.6020047840423723 0 1 0 I I #
coedge $-1 $313 $313 $-1 $442 reversed $192 $-1 #
edge $-1 $443 0 $443 6.2831853071796004 $193 $444 forward 7 unknown #
vertex $-1 $196 $445 #
ellipse-curve $-1 -37.906665522928961 -10.359870770557212 4.2019707812545954 -0.57357644374324357 0 0.81915203911291934 0.40957601955645967 0 0.28678822187162178 1 I I #
coedge $-1 $317 $317 $-1 $446 reversed $199 $-1 #
edge $-1 $447 0 $447 6.2831853071796004 $200 $448 forward 7 unknown #
vertex $-1 $203 $449 #
ellipse-curve $-1 -37.906665522928961 -8.3630102182966919 4.2019707812545954 -0.57357644374324357 0 0.81915203911291934 0.40957601955645967 0 0.28678822187162178 1 I I #
coedge $-1 $321 $321 $-1 $450 reversed $206 $-1 #
edge $-1 $451 0 $451 6.2831853071796004 $207 $452 forward 7 unknown #
vertex $-1 $210 $453 #
ellipse-curve $-1 -37.906665522928961 -6.3661496660361721 4.2019707812545954 -0.57357644374324357 0 0.81915203911291934 0.40957601955645967 0 0.28678822187162178 1 I I #
face $-1 $-1 $454 $44 $-1 $455 reversed single #
loop $-1 $-1 $217 $211 #
plane-surface $-1 0 0 6.6020047840423715 0 0 1 1 0 0 forward_v I I I I #
coedge $-1 $456 $457 $458 $459 reversed $212 $-1 #
coedge $-1 $460 $214 $216 $335 forward $133 $-1 #
coedge $-1 $214 $460 $456 $461 forward $133 $-1 #
coedge $-1 $458 $217 $214 $332 forward $326 $-1 #
edge $-1 $338 -0.25746500234431879 $462 6.3987368385240799 $331 $463 forward 7 unknown #
coedge $-1 $464 $465 $215 $334 forward $454 $-1 #
edge $-1 $466 -32.958082539278145 $337 -28.158014533702591 $333 $467 forward 7 unknown #
edge $-1 $338 -8.3686630752295255 $466 8.6223355153435888e-015 $216 $468 forward 7 unknown #
coedge $-1 $217 $458 $464 $469 forward $326 $-1 #
vertex $-1 $218 $470 #
vertex $-1 $218 $471 #
straight-curve $-1 -44.375497769275455 2.813170915745562 6.6020047840423715 1 0 0 I I #
coedge $-1 $340 $340 $-1 $472 reversed $221 $-1 #
edge $-1 $473 0 $473 6.2831853071796004 $222 $474 forward 7 unknown #
vertex $-1 $225 $475 #
ellipse-curve $-1 -37.906665522928961 4.14441128391924 4.2019707812545954 -0.57357644374324357 0 0.81915203911291934 0.40957601955645967 0 0.28678822187162178 1 I I #
coedge $-1 $344 $344 $-1 $476 reversed $228 $-1 #
edge $-1 $477 0 $477 6.2831853071796004 $229 $478 forward 7 unknown #
vertex $-1 $232 $479 #
ellipse-curve $-1 -37.906665522928961 6.1412718361797616 4.2019707812545954 -0.57357644374324357 0 0.81915203911291934 0.40957601955645967 0 0.28678822187162178 1 I I #
coedge $-1 $348 $348 $-1 $480 reversed $235 $-1 #
edge $-1 $481 0 $481 6.2831853071796004 $236 $482 forward 7 unknown #
vertex $-1 $239 $483 #
ellipse-curve $-1 -37.906665522928961 8.1381323884402832 4.2019707812545954 -0.57357644374324357 0 0.81915203911291934 0.40957601955645967 0 0.28678822187162178 1 I I #
face $-1 $-1 $255 $36 $-1 $484 reversed single #
loop $-1 $-1 $368 $240 #
plane-surface $-1 0 17.317452970222014 0 0 -1 0 0 0 -1 forward_v I I I I #
coedge $-1 $485 $366 $369 $486 forward $241 $-1 #
coedge $-1 $372 $243 $244 $360 reversed $152 $-1 #
coedge $-1 $366 $485 $243 $358 reversed $241 $-1 #
edge $-1 $373 -6.6020047840423715 $487 6.6020047840423715 $357 $488 forward 7 unknown #
coedge $-1 $245 $244 $485 $489 forward $97 $-1 #
edge $-1 $364 -41.334269234290595 $487 41.334269234290595 $356 $490 forward 7 unknown #
coedge $-1 $369 $368 $245 $362 reversed $353 $-1 #
edge $-1 $491 -41.334269234290595 $363 41.334269234290595 $361 $492 forward 7 unknown #
vertex $-1 $247 $493 #
vertex $-1 $375 $494 #
straight-curve $-1 41.334269234290595 0 -6.6020047840423715 0 -1 0 I I #
coedge $-1 $355 $357 $248 $367 reversed $241 $-1 #
edge $-1 $370 -17.317452970222014 $373 17.317452970222014 $366 $495 forward 7 unknown #
coedge $-1 $361 $249 $254 $376 forward $353 $-1 #
coedge $-1 $249 $361 $355 $486 reversed $353 $-1 #
vertex $-1 $250 $496 #
straight-curve $-1 0 17.317452970222014 6.6020047840423715 -1 0 0 I I #
coedge $-1 $251 $356 $253 $375 reversed $152 $-1 #
vertex $-1 $367 $497 #
straight-curve $-1 0 -17.317452970222014 6.6020047840423715 1 0 0 I I #
edge $-1 $256 -6.6020047840423715 $364 6.6020047840423715 $253 $498 forward 7 unknown #
edge $-1 $257 -6.6020047840423715 $363 6.6020047840423715 $254 $499 forward 7 unknown #
point $-1 41.334269234290595 -17.317452970222014 6.6020047840423715 #
point $-1 41.334269234290595 17.317452970222014 6.6020047840423715 #
face $-1 $-1 $274 $37 $-1 $500 reversed single #
loop $-1 $-1 $265 $259 #
plane-surface $-1 0 0 6.6020047840423715 0 0 1 1 0 0 forward_v I I I I #
coedge $-1 $501 $262 $267 $391 forward $160 $-1 #
coedge $-1 $262 $501 $386 $502 reversed $160 $-1 #
edge $-1 $389 -4.0510023920211857 $396 -1.0510023920211857 $262 $503 forward 7 unknown #
edge $-1 $276 1.0510023920211857 $388 4.0510023920211857 $272 $504 forward 7 unknown #
coedge $-1 $505 $265 $383 $502 forward $380 $-1 #
coedge $-1 $265 $505 $398 $506 forward $380 $-1 #
vertex $-1 $385 $507 #
vertex $-1 $502 $508 #
straight-curve $-1 0 -11.691111138730893 6.6020047840423715 -1 0 0 I I #
edge $-1 $396 4.4389701114926661 $394 10.065311942983787 $382 $509 forward 7 unknown #
coedge $-1 $510 $268 $273 $399 reversed $260 $-1 #
coedge $-1 $268 $510 $501 $511 forward $260 $-1 #
vertex $-1 $269 $512 #
straight-curve $-1 0 -17.317452970222014 3.6020047840423715 1 0 0 I I #
vertex $-1 $391 $513 #
straight-curve $-1 0 -11.691111138730893 3.6020047840423715 1 0 0 I I #
coedge $-1 $273 $272 $387 $506 reversed $274 $-1 #
edge $-1 $514 -6.6020047840423715 $275 -3.6020047840423715 $273 $515 forward 7 unknown #
point $-1 41.334269234290595 -17.317452970222014 3.6020047840423715 #
point $-1 41.334269234290595 -11.691111138730893 3.6020047840423715 #
plane-surface $-1 0 0 6.6020047840423715 0 0 1 1 0 0 forward_v I I I I #
coedge $-1 $413 $412 $405 $516 forward $279 $-1 #
coedge $-1 $405 $281 $283 $409 reversed $168 $-1 #
coedge $-1 $281 $404 $403 $516 reversed $168 $-1 #
coedge $-1 $289 $284 $281 $407 forward $290 $-1 #
edge $-1 $410 7.7404669943081466 $517 12.531702829959539 $406 $518 forward 7 unknown #
coedge $-1 $283 $282 $413 $519 reversed $105 $-1 #
edge $-1 $520 -82.668538468581175 $410 -74.707228534104956 $404 $521 forward 7 unknown #
vertex $-1 $285 $522 #
straight-curve $-1 36.54303339863921 1.6615428672120931 6.6020047840423715 0 -1 0 I I #
coedge $-1 $403 $286 $289 $417 reversed $279 $-1 #
coedge $-1 $286 $403 $408 $519 forward $279 $-1 #
vertex $-1 $287 $523 #
straight-curve $-1 41.334269234290595 7.4689991727713405 58.008509226596885 0 0 1 I I #
straight-curve $-1 -8.4168982559185039 7.4689991727713405 66.265850962984672 0.60181501223851219 0 -0.79863551827123203 I I #
edge $-1 $517 -0.82282770392296811 $291 7.4689991727713405 $412 $524 forward 7 unknown #
point $-1 41.334269234290595 7.4689991727713405 6.6020047840423715 #
point $-1 36.543033398639203 7.4689991727713405 6.6020047840423786 #
edge $-1 $525 1 $525 0 $294 $-1 forward 7 unknown #
vertex $-1 $295 $526 #
ellipse-curve $-1 36.688813143285152 3.3230857344241862 1.7275377219503809 0.79863551827123203 0 0.60181501223851219 0.60181501223851219 0 -0.79863551827123203 1 I I #
point $-1 39.540466328703417 3.3230857344241862 2.6242768229519715 #
loop $-1 $-1 $306 $298 #
plane-surface $-1 0 -11.691111138730893 5.1020047840423715 0 -1 0 0 0 -1 forward_v I I I I #
coedge $-1 $431 $527 $302 $427 forward $299 $-1 #
edge $-1 $429 28.158014533702591 $437 32.958082539278145 $426 $528 forward 7 unknown #
coedge $-1 $309 $303 $527 $529 forward $183 $-1 #
vertex $-1 $529 $530 #
straight-curve $-1 -44.375497769275455 -5.0349092978624927 6.6020047840423715 -1 0 0 I I #
coedge $-1 $531 $426 $305 $432 forward $299 $-1 #
edge $-1 $437 0.85340418871414681 $435 7.5096060295825451 $431 $532 forward 7 unknown #
coedge $-1 $434 $306 $309 $439 reversed $424 $-1 #
coedge $-1 $306 $433 $531 $533 reversed $424 $-1 #
vertex $-1 $533 $534 #
straight-curve $-1 -26.691151535705863 -11.691111138730893 12.055158370838626 0.81915203911291934 0 0.57357644374324357 I I #
vertex $-1 $432 $535 #
straight-curve $-1 -41.334269234290588 -5.0349092978624927 1.8019367784668248 0.81915203911291934 0 0.57357644374324357 I I #
edge $-1 $536 -41.334269234290595 $310 -34.479061811567327 $309 $537 forward 7 unknown #
point $-1 -34.479061811567327 -11.691111138730891 6.6020047840423715 #
point $-1 -34.479061811567327 -5.0349092978624927 6.6020047840423715 #
edge $-1 $538 1 $538 0 $313 $-1 forward 7 unknown #
vertex $-1 $314 $539 #
ellipse-curve $-1 -37.167888490549991 -10.359870770557212 3.146887855300402 -0.57357644374324357 0 0.81915203911291934 0.40957601955645967 0 0.28678822187162178 1 I I #
point $-1 -37.497089503372507 -10.359870770557212 4.4887590031262219 #
edge $-1 $540 1 $540 0 $317 $-1 forward 7 unknown #
vertex $-1 $318 $541 #
ellipse-curve $-1 -37.167888490549991 -8.3630102182966919 3.146887855300402 -0.57357644374324357 0 0.81915203911291934 0.40957601955645967 0 0.28678822187162178 1 I I #
point $-1 -37.497089503372507 -8.3630102182966919 4.4887590031262219 #
edge $-1 $542 1 $542 0 $321 $-1 forward 7 unknown #
vertex $-1 $322 $543 #
ellipse-curve $-1 -37.167888490549991 -6.3661496660361721 3.146887855300402 -0.57357644374324357 0 0.81915203911291934 0.40957601955645967 0 0.28678822187162178 1 I I #
point $-1 -37.497089503372507 -6.3661496660361721 4.4887590031262219 #
loop $-1 $-1 $333 $325 #
plane-surface $-1 -41.334269234290595 0 0 1 0 0 0 0 -1 forward_v I I I I #
coedge $-1 $457 $328 $330 $461 reversed $212 $-1 #
coedge $-1 $328 $456 $544 $545 reversed $212 $-1 #
coedge $-1 $336 $331 $328 $459 forward $326 $-1 #
edge $-1 $462 -9.8964359577081282 $546 -3.0412285349848602 $458 $547 forward 7 unknown #
coedge $-1 $330 $329 $465 $548 reversed $133 $-1 #
edge $-1 $549 -8.6223355153435888e-015 $462 8.3686630752295255 $456 $550 forward 7 unknown #
vertex $-1 $332 $551 #
straight-curve $-1 -34.479061811567327 3.0706359180898808 6.6020047840423723 0 1 0 I I #
coedge $-1 $544 $333 $336 $469 reversed $454 $-1 #
coedge $-1 $333 $544 $460 $548 forward $454 $-1 #
vertex $-1 $334 $552 #
straight-curve $-1 -41.334269234290595 2.813170915745562 34.760019317744963 0 0 1 I I #
straight-curve $-1 -41.334269234290588 2.813170915745562 1.8019367784668248 -0.81915203911291934 0 -0.57357644374324357 I I #
edge $-1 $546 -9.4693727566139607 $337 -2.813170915745562 $464 $553 forward 7 unknown #
point $-1 -41.334269234290595 2.813170915745562 6.6020047840423715 #
point $-1 -34.479061811567327 2.813170915745562 6.6020047840423715 #
edge $-1 $554 1 $554 0 $340 $-1 forward 7 unknown #
vertex $-1 $341 $555 #
ellipse-curve $-1 -37.167888490549991 4.14441128391924 3.146887855300402 -0.57357644374324357 0 0.81915203911291934 0.40957601955645967 0 0.28678822187162178 1 I I #
point $-1 -37.497089503372507 4.14441128391924 4.4887590031262219 #
edge $-1 $556 1 $556 0 $344 $-1 forward 7 unknown #
vertex $-1 $345 $557 #
ellipse-curve $-1 -37.167888490549991 6.1412718361797616 3.146887855300402 -0.57357644374324357 0 0.81915203911291934 0.40957601955645967 0 0.28678822187162178 1 I I #
point $-1 -37.497089503372507 6.1412718361797616 4.4887590031262219 #
edge $-1 $558 1 $558 0 $348 $-1 forward 7 unknown #
vertex $-1 $349 $559 #
ellipse-curve $-1 -37.167888490549991 8.1381323884402832 3.146887855300402 -0.57357644374324357 0 0.81915203911291934 0.40957601955645967 0 0.28678822187162178 1 I I #
point $-1 -37.497089503372507 8.1381323884402832 4.4887590031262219 #
plane-surface $-1 41.334269234290595 0 0 -1 0 0 0 0 1 forward_v I I I I #
coedge $-1 $357 $355 $359 $489 reversed $241 $-1 #
edge $-1 $370 -6.6020047840423715 $491 6.6020047840423715 $369 $560 forward 7 unknown #
vertex $-1 $489 $561 #
straight-curve $-1 -41.334269234290595 -17.317452970222014 0 0 0 -1 I I #
edge $-1 $487 -17.317452970222014 $491 17.317452970222014 $485 $562 forward 7 unknown #
straight-curve $-1 0 -17.317452970222014 -6.6020047840423715 -1 0 0 I I #
vertex $-1 $362 $563 #
straight-curve $-1 0 17.317452970222014 -6.6020047840423715 1 0 0 I I #
point $-1 41.334269234290595 17.317452970222014 -6.6020047840423715 #
point $-1 41.334269234290595 -17.317452970222014 -6.6020047840423715 #
straight-curve $-1 -41.334269234290595 0 6.6020047840423715 0 -1 0 I I #
point $-1 -41.334269234290595 17.317452970222014 6.6020047840423715 #
point $-1 -41.334269234290595 -17.317452970222014 6.6020047840423715 #
straight-curve $-1 41.334269234290595 -17.317452970222014 0 0 0 -1 I I #
straight-curve $-1 41.334269234290595 17.317452970222014 0 0 0 -1 I I #
plane-surface $-1 41.334269234290595 0 0 -1 0 0 0 0 1 forward_v I I I I #
coedge $-1 $383 $382 $393 $511 reversed $160 $-1 #
edge $-1 $389 11.691111138730893 $564 17.317452970222014 $383 $565 forward 7 unknown #
straight-curve $-1 -41.334269234290595 -11.691111138730893 2.5510023920211857 0 0 -1 I I #
straight-curve $-1 41.334269234290595 -11.691111138730893 2.5510023920211857 0 0 1 I I #
coedge $-1 $387 $386 $510 $566 forward $380 $-1 #
edge $-1 $514 -17.317452970222014 $388 -11.691111138730893 $398 $567 forward 7 unknown #
point $-1 41.334269234290595 -11.691111138730893 6.6020047840423715 #
point $-1 -41.334269234290595 -11.691111138730893 6.6020047840423715 #
straight-curve $-1 -41.334269234290595 -7.2521410272382267 3.6020047840423715 0 -1 0 I I #
coedge $-1 $393 $392 $505 $566 reversed $260 $-1 #
edge $-1 $564 -6.6020047840423715 $394 -3.6020047840423715 $501 $568 forward 7 unknown #
point $-1 -41.334269234290595 -17.317452970222014 3.6020047840423715 #
point $-1 -41.334269234290595 -11.691111138730893 3.6020047840423715 #
vertex $-1 $506 $569 #
straight-curve $-1 41.334269234290595 -17.317452970222014 0 0 0 -1 I I #
edge $-1 $517 51.406504442554514 $520 57.764689328192816 $403 $570 forward 7 unknown #
vertex $-1 $417 $571 #
straight-curve $-1 28.802566404331056 -0.82282770392296811 6.6020047840423715 1 0 0 I I #
edge $-1 $520 -2.4843705711350612 $414 5.8074563055592474 $413 $572 forward 7 unknown #
vertex $-1 $519 $573 #
straight-curve $-1 -8.4168982559185039 -0.82282770392296811 66.265850962984672 -0.60181501223851219 0 0.79863551827123203 I I #
point $-1 36.543033398639203 -0.82282770392296811 6.6020047840423786 #
point $-1 41.334269234290595 7.4689991727713405 0.24381989840406959 #
straight-curve $-1 41.334269234290595 0 6.6020047840423715 0 1 0 I I #
vertex $-1 $420 $574 #
point $-1 37.29062815552367 3.3230857344241862 0.92890220367914889 #
coedge $-1 $426 $531 $428 $529 reversed $299 $-1 #
straight-curve $-1 -41.334269234290595 -5.0349092978624927 34.760019317744963 0 0 -1 I I #
edge $-1 $429 5.0349092978624927 $536 11.691111138730893 $527 $575 forward 7 unknown #
point $-1 -41.334269234290595 -5.0349092978624927 6.6020047840423715 #
coedge $-1 $527 $431 $434 $533 forward $299 $-1 #
straight-curve $-1 -41.334269234290595 -4.1815051091483459 1.8019367784668185 0 -1 0 I I #
edge $-1 $435 -32.958082539278145 $536 -28.158014533702591 $531 $576 forward 7 unknown #
point $-1 -41.334269234290595 -11.691111138730891 1.8019367784668199 #
point $-1 -41.334269234290595 -5.0349092978624927 1.8019367784668199 #
vertex $-1 $533 $577 #
straight-curve $-1 0 -11.691111138730893 6.6020047840423715 1 0 0 I I #
vertex $-1 $442 $578 #
point $-1 -36.75831247099353 -10.359870770557212 3.4336760771720236 #
vertex $-1 $446 $579 #
point $-1 -36.75831247099353 -8.3630102182966919 3.4336760771720236 #
vertex $-1 $450 $580 #
point $-1 -36.75831247099353 -6.3661496660361721 3.4336760771720236 #
coedge $-1 $465 $464 $457 $545 forward $454 $-1 #
edge $-1 $546 28.158014533702591 $549 32.958082539278145 $544 $581 forward 7 unknown #
vertex $-1 $469 $582 #
straight-curve $-1 -44.375497769275455 9.4693727566139607 6.6020047840423715 -1 0 0 I I #
edge $-1 $549 -6.3987368385240799 $466 0.25746500234431879 $465 $583 forward 7 unknown #
vertex $-1 $548 $584 #
straight-curve $-1 -41.334269234290588 9.4693727566139607 1.8019367784668248 0.81915203911291934 0 0.57357644374324357 I I #
point $-1 -34.479061811567327 9.4693727566139607 6.6020047840423715 #
point $-1 -41.334269234290595 2.813170915745562 1.8019367784668199 #
straight-curve $-1 -41.334269234290595 0 6.6020047840423715 0 -1 0 I I #
vertex $-1 $472 $585 #
point $-1 -36.75831247099353 4.14441128391924 3.4336760771720236 #
vertex $-1 $476 $586 #
point $-1 -36.75831247099353 6.1412718361797616 3.4336760771720236 #
vertex $-1 $480 $587 #
point $-1 -36.75831247099353 8.1381323884402832 3.4336760771720236 #
straight-curve $-1 -41.334269234290595 17.317452970222014 0 0 0 -1 I I #
point $-1 -41.334269234290595 -17.317452970222014 -6.6020047840423715 #
straight-curve $-1 -41.334269234290595 0 -6.6020047840423715 0 1 0 I I #
point $-1 -41.334269234290595 17.317452970222014 -6.6020047840423715 #
vertex $-1 $502 $588 #
straight-curve $-1 -41.334269234290595 0 6.6020047840423715 0 -1 0 I I #
edge $-1 $564 -41.334269234290595 $514 41.334269234290595 $510 $589 forward 7 unknown #
straight-curve $-1 41.334269234290595 0 6.6020047840423715 0 1 0 I I #
straight-curve $-1 -41.334269234290595 -17.317452970222014 0 0 0 -1 I I #
point $-1 41.334269234290595 -17.317452970222014 6.6020047840423715 #
straight-curve $-1 41.334269234290595 -0.82282770392296811 58.008509226596885 0 0 -1 I I #
point $-1 41.334269234290595 -0.82282770392296811 6.6020047840423715 #
straight-curve $-1 41.334269234290595 1.6615428672120931 0.24381989840405538 0 1 0 I I #
point $-1 41.334269234290595 -0.82282770392296811 0.24381989840406959 #
point $-1 35.890177625013926 3.3230857344241862 1.1257227097118687 #
straight-curve $-1 -41.334269234290595 0 6.6020047840423715 0 -1 0 I I #
straight-curve $-1 -41.334269234290595 -11.691111138730891 34.760019317744963 0 0 1 I I #
point $-1 -41.334269234290595 -11.691111138730893 6.6020047840423715 #
point $-1 -36.881100268678374 -10.359870770557212 2.7373118357439421 #
point $-1 -36.881100268678374 -8.3630102182966919 2.7373118357439421 #
point $-1 -36.881100268678374 -6.3661496660361721 2.7373118357439421 #
straight-curve $-1 -41.334269234290595 9.4693727566139607 34.760019317744963 0 0 -1 I I #
point $-1 -41.334269234290595 9.4693727566139607 6.6020047840423715 #
straight-curve $-1 -41.334269234290595 3.0706359180898808 1.8019367784668185 0 -1 0 I I #
point $-1 -41.334269234290595 9.4693727566139607 1.8019367784668199 #
point $-1 -36.881100268678374 4.14441128391924 2.7373118357439421 #
point $-1 -36.881100268678374 6.1412718361797616 2.7373118357439421 #
point $-1 -36.881100268678374 8.1381323884402832 2.7373118357439421 #
point $-1 -41.334269234290595 -17.317452970222014 6.6020047840423715 #
straight-curve $-1 0 -17.317452970222014 6.6020047840423715 1 0 0 I I #
End-of-ACIS-data 