500 0 10 0           
7 Unknown 11 ACIS 5.0 NT 24 Thu Mar 25 15:56:27 1999 
-1 9.9999999999999995e-007 1e-010 
body $-1 $10 $-1 $11 #
body $-1 $12 $-1 $13 #
body $-1 $14 $-1 $15 #
body $-1 $16 $-1 $17 #
body $-1 $18 $-1 $19 #
body $-1 $20 $-1 $21 #
body $-1 $22 $-1 $23 #
body $-1 $24 $-1 $25 #
body $-1 $26 $-1 $27 #
body $-1 $28 $-1 $29 #
lump $-1 $-1 $30 $0 #
transform $-1 1 0 0 0 1 0 0 0 1 61.901303140354628 35.931546246524213 8.8078180061252827 1 rotate no_reflect no_shear #
lump $-1 $-1 $31 $1 #
transform $-1 1 0 0 0 1 0 0 0 1 61.901303140354628 35.931546246524213 8.8078180061252827 1 rotate no_reflect no_shear #
lump $-1 $-1 $32 $2 #
transform $-1 1 0 0 0 1 0 0 0 1 61.901303140354628 35.931546246524213 8.8078180061252827 1 rotate no_reflect no_shear #
lump $-1 $-1 $33 $3 #
transform $-1 1 0 0 0 1 0 0 0 1 61.901303140354628 35.931546246524213 8.8078180061252827 1 rotate no_reflect no_shear #
lump $-1 $-1 $34 $4 #
transform $-1 1 0 0 0 1 0 0 0 1 61.901303140354628 35.931546246524213 8.8078180061252827 1 rotate no_reflect no_shear #
lump $-1 $-1 $35 $5 #
transform $-1 1 0 0 0 1 0 0 0 1 61.901303140354628 35.931546246524213 8.8078180061252827 1 rotate no_reflect no_shear #
lump $-1 $-1 $36 $6 #
transform $-1 1 0 0 0 1 0 0 0 1 61.901303140354628 35.931546246524213 8.8078180061252827 1 rotate no_reflect no_shear #
lump $-1 $-1 $37 $7 #
transform $-1 1 0 0 0 1 0 0 0 1 61.901303140354628 35.931546246524213 8.8078180061252827 1 rotate no_reflect no_shear #
lump $-1 $-1 $38 $8 #
transform $-1 1 0 0 0 1 0 0 0 1 61.901303140354628 35.931546246524213 8.8078180061252827 1 rotate no_reflect no_shear #
lump $-1 $-1 $39 $9 #
transform $-1 1 0 0 0 1 0 0 0 1 61.901303140354628 35.931546246524213 8.8078180061252827 1 rotate no_reflect no_shear #
shell $-1 $-1 $-1 $40 $-1 $10 #
shell $-1 $-1 $-1 $41 $-1 $12 #
shell $-1 $-1 $-1 $42 $-1 $14 #
shell $-1 $-1 $-1 $43 $-1 $16 #
shell $-1 $-1 $-1 $44 $-1 $18 #
shell $-1 $-1 $-1 $45 $-1 $20 #
shell $-1 $-1 $-1 $46 $-1 $22 #
shell $-1 $-1 $-1 $47 $-1 $24 #
shell $-1 $-1 $-1 $48 $-1 $26 #
shell $-1 $-1 $-1 $49 $-1 $28 #
face $-1 $50 $51 $30 $-1 $52 forward single #
face $-1 $53 $54 $31 $-1 $55 reversed single #
face $-1 $56 $57 $32 $-1 $58 forward single #
face $-1 $59 $60 $33 $-1 $61 forward single #
face $-1 $62 $63 $34 $-1 $64 reversed single #
face $-1 $65 $66 $35 $-1 $67 forward single #
face $-1 $68 $69 $36 $-1 $70 forward single #
face $-1 $71 $72 $37 $-1 $73 reversed single #
face $-1 $74 $75 $38 $-1 $76 forward single #
face $-1 $77 $78 $39 $-1 $79 forward single #
face $-1 $80 $81 $30 $-1 $82 reversed single #
loop $-1 $-1 $83 $40 #
plane-surface $-1 0 0 8.8078180061252827 0 0 1 1 0 0 forward_v I I I I #
face $-1 $84 $85 $31 $-1 $86 reversed single #
loop $-1 $-1 $87 $41 #
plane-surface $-1 -36.799215203060456 50.562430640230296 147.3863564914667 1 0 0 0 -0.5877852598018023 -0.80901698891910034 forward_v I I I I #
face $-1 $88 $89 $32 $-1 $90 forward single #
loop $-1 $91 $92 $42 #
cone-surface $-1 -29.235548437574124 32.42559467122534 5.690618591169339 0 -0.5877852598018023 -0.80901698891910034 1.5 0 0 1 I I 0 1 1.5 forward I I I I #
face $-1 $93 $94 $33 $-1 $95 forward single #
loop $-1 $96 $97 $43 #
cone-surface $-1 -17.89004828934462 32.42559467122534 5.690618591169339 0 -0.5877852598018023 -0.80901698891910034 1.5 0 0 1 I I 0 1 1.5 forward I I I I #
face $-1 $98 $99 $34 $-1 $100 reversed single #
loop $-1 $-1 $101 $44 #
plane-surface $-1 25.102087937294179 50.562430640230296 147.3863564914667 1 0 0 0 -0.5877852598018023 -0.80901698891910034 forward_v I I I I #
face $-1 $102 $103 $35 $-1 $104 forward single #
loop $-1 $105 $106 $45 #
cone-surface $-1 32.665754702780504 32.42559467122534 5.690618591169339 0 -0.5877852598018023 -0.80901698891910034 1.5 0 0 1 I I 0 1 1.5 forward I I I I #
face $-1 $107 $108 $36 $-1 $109 forward single #
loop $-1 $110 $111 $46 #
cone-surface $-1 44.011254851010008 32.42559467122534 5.690618591169339 0 -0.5877852598018023 -0.80901698891910034 1.5 0 0 1 I I 0 1 1.5 forward I I I I #
face $-1 $112 $113 $37 $-1 $114 reversed single #
loop $-1 $-1 $115 $47 #
plane-surface $-1 59.581289234046665 -133.48933234218035 79.628401782578763 -1 0 0 0 -0.78801076186113728 0.61566146476048833 forward_v I I I I #
face $-1 $116 $117 $38 $-1 $118 forward single #
loop $-1 $119 $120 $48 #
cone-surface $-1 46.725722112549022 -31.733714554603861 4.4762294667247717 0 0.78801076186113728 -0.61566146476048833 1.5 0 0 1 I I 0 1 1.5 forward I I I I #
face $-1 $121 $122 $39 $-1 $123 forward single #
loop $-1 $124 $125 $49 #
cone-surface $-1 54.439062385447613 -31.733714554603861 4.4762294667247717 0 0.78801076186113728 -0.61566146476048833 1.5 0 0 1 I I 0 1 1.5 forward I I I I #
face $-1 $126 $127 $30 $-1 $128 reversed single #
loop $-1 $-1 $129 $50 #
plane-surface $-1 0 0 -8.8078180061252827 0 0 1 1 0 0 forward_v I I I I #
coedge $-1 $130 $131 $132 $133 forward $51 $-1 #
face $-1 $134 $135 $31 $-1 $136 reversed single #
loop $-1 $-1 $137 $53 #
plane-surface $-1 -23.562798363459372 -22.206916456616632 47.227944737910391 0 0.5877852598018023 0.80901698891910034 1 0 0 forward_v I I I I #
coedge $-1 $138 $139 $140 $141 reversed $54 $-1 #
face $-1 $-1 $142 $32 $-1 $143 forward single #
loop $-1 $144 $145 $56 #
cone-surface $-1 -29.235548437574124 31.10765211082667 3.8766263142252182 0 -0.5877852598018023 -0.80901698891910034 0.75 0 0 1 I I -0.70710678118654757 0.70710678118654757 0.75 forward I I I I #
loop $-1 $-1 $146 $42 #
coedge $-1 $92 $92 $147 $148 reversed $57 $-1 #
face $-1 $-1 $149 $33 $-1 $150 forward single #
loop $-1 $151 $152 $59 #
cone-surface $-1 -17.89004828934462 31.10765211082667 3.8766263142252182 0 -0.5877852598018023 -0.80901698891910034 0.75 0 0 1 I I -0.70710678118654757 0.70710678118654757 0.75 forward I I I I #
loop $-1 $-1 $153 $43 #
coedge $-1 $97 $97 $154 $155 reversed $60 $-1 #
face $-1 $156 $157 $34 $-1 $158 reversed single #
loop $-1 $-1 $159 $62 #
plane-surface $-1 38.338504776895263 -22.206916456616632 47.227944737910391 0 0.5877852598018023 0.80901698891910034 1 0 0 forward_v I I I I #
coedge $-1 $160 $161 $162 $163 reversed $63 $-1 #
face $-1 $-1 $164 $35 $-1 $165 forward single #
loop $-1 $166 $167 $65 #
cone-surface $-1 32.665754702780504 31.10765211082667 3.8766263142252182 0 -0.5877852598018023 -0.80901698891910034 0.75 0 0 1 I I -0.70710678118654757 0.70710678118654757 0.75 forward I I I I #
loop $-1 $-1 $168 $45 #
coedge $-1 $106 $106 $169 $170 reversed $66 $-1 #
face $-1 $-1 $171 $36 $-1 $172 forward single #
loop $-1 $173 $174 $68 #
cone-surface $-1 44.011254851010008 31.10765211082667 3.8766263142252182 0 -0.5877852598018023 -0.80901698891910034 0.75 0 0 1 I I -0.70710678118654757 0.70710678118654757 0.75 forward I I I I #
loop $-1 $-1 $175 $46 #
coedge $-1 $111 $111 $176 $177 reversed $69 $-1 #
face $-1 $178 $179 $37 $-1 $180 reversed single #
loop $-1 $-1 $181 $71 #
plane-surface $-1 50.582392248998318 -35.931546246524235 3.4079078586312761 0 -0.78801076186113728 0.61566146476048833 1 0 0 forward_v I I I I #
coedge $-1 $182 $183 $184 $185 reversed $72 $-1 #
face $-1 $-1 $186 $38 $-1 $187 forward single #
loop $-1 $188 $189 $74 #
cone-surface $-1 46.725722112549022 -29.054310824324368 2.3828499025008991 0 0.78801076186113728 -0.61566146476048833 0.75 0 0 1 I I -0.70710678118654757 0.70710678118654757 0.75 forward I I I I #
loop $-1 $-1 $190 $48 #
coedge $-1 $120 $120 $191 $192 reversed $75 $-1 #
face $-1 $-1 $193 $39 $-1 $194 forward single #
loop $-1 $195 $196 $77 #
cone-surface $-1 54.439062385447613 -29.054310824324368 2.3828499025008991 0 0.78801076186113728 -0.61566146476048833 0.75 0 0 1 I I -0.70710678118654757 0.70710678118654757 0.75 forward I I I I #
loop $-1 $-1 $197 $49 #
coedge $-1 $125 $125 $198 $199 reversed $78 $-1 #
face $-1 $200 $201 $30 $-1 $202 reversed single #
loop $-1 $-1 $203 $80 #
plane-surface $-1 0 -35.931546246524213 0 0 1 0 0 0 1 forward_v I I I I #
coedge $-1 $204 $205 $206 $207 forward $81 $-1 #
coedge $-1 $208 $83 $209 $210 forward $51 $-1 #
coedge $-1 $83 $208 $211 $212 forward $51 $-1 #
coedge $-1 $213 $214 $83 $133 reversed $215 $-1 #
edge $-1 $216 -35.931546246524213 $217 35.931546246524213 $132 $218 forward 7 unknown #
face $-1 $219 $220 $31 $-1 $221 reversed single #
loop $-1 $-1 $222 $84 #
plane-surface $-1 -10.326381523858288 50.562430640230296 147.3863564914667 -1 0 0 0 0.5877852598018023 0.80901698891910034 forward_v I I I I #
coedge $-1 $223 $224 $225 $226 reversed $85 $-1 #
coedge $-1 $139 $87 $227 $228 reversed $54 $-1 #
coedge $-1 $87 $138 $223 $229 reversed $54 $-1 #
coedge $-1 $225 $230 $87 $141 forward $231 $-1 #
edge $-1 $232 -10.650330926409065 $233 -5.3926350069059588 $140 $234 forward 7 unknown #
loop $-1 $-1 $147 $88 #
plane-surface $-1 -23.562798363459372 -22.206916456616632 47.227944737910391 0 0.5877852598018023 0.80901698891910034 1 0 0 forward_v I I I I #
loop $-1 $-1 $235 $56 #
coedge $-1 $145 $145 $146 $236 reversed $89 $-1 #
coedge $-1 $146 $146 $145 $236 forward $91 $-1 #
coedge $-1 $147 $147 $92 $148 forward $142 $-1 #
edge $-1 $237 -6.9222995695302516e-016 $237 6.2831853071795996 $147 $238 forward 7 unknown #
loop $-1 $-1 $154 $93 #
plane-surface $-1 -23.562798363459372 -22.206916456616632 47.227944737910391 0 0.5877852598018023 0.80901698891910034 1 0 0 forward_v I I I I #
loop $-1 $-1 $239 $59 #
coedge $-1 $152 $152 $153 $240 reversed $94 $-1 #
coedge $-1 $153 $153 $152 $240 forward $96 $-1 #
coedge $-1 $154 $154 $97 $155 forward $149 $-1 #
edge $-1 $241 -6.9222995695302516e-016 $241 6.2831853071795996 $154 $242 forward 7 unknown #
face $-1 $243 $244 $34 $-1 $245 forward single #
loop $-1 $-1 $246 $98 #
plane-surface $-1 51.574921616496347 50.562430640230296 147.3863564914667 -1 0 0 0 0.5877852598018023 0.80901698891910034 forward_v I I I I #
coedge $-1 $247 $248 $249 $250 reversed $99 $-1 #
coedge $-1 $161 $101 $251 $252 reversed $63 $-1 #
coedge $-1 $101 $160 $247 $253 reversed $63 $-1 #
coedge $-1 $249 $254 $101 $163 forward $244 $-1 #
edge $-1 $255 -10.650330926409065 $256 -5.3926350069059588 $162 $257 forward 7 unknown #
loop $-1 $-1 $169 $102 #
plane-surface $-1 38.338504776895263 -22.206916456616632 47.227944737910391 0 0.5877852598018023 0.80901698891910034 1 0 0 forward_v I I I I #
loop $-1 $-1 $258 $65 #
coedge $-1 $167 $167 $168 $259 reversed $103 $-1 #
coedge $-1 $168 $168 $167 $259 forward $105 $-1 #
coedge $-1 $169 $169 $106 $170 forward $164 $-1 #
edge $-1 $260 -6.9222995695302516e-016 $260 6.2831853071795996 $169 $261 forward 7 unknown #
loop $-1 $-1 $176 $107 #
plane-surface $-1 38.338504776895263 -22.206916456616632 47.227944737910391 0 0.5877852598018023 0.80901698891910034 1 0 0 forward_v I I I I #
loop $-1 $-1 $262 $68 #
coedge $-1 $174 $174 $175 $263 reversed $108 $-1 #
coedge $-1 $175 $175 $174 $263 forward $110 $-1 #
coedge $-1 $176 $176 $111 $177 forward $171 $-1 #
edge $-1 $264 -6.9222995695302516e-016 $264 6.2831853071795996 $176 $265 forward 7 unknown #
face $-1 $266 $267 $37 $-1 $268 reversed single #
loop $-1 $-1 $269 $112 #
plane-surface $-1 41.58349526394997 -133.48933234218035 79.628401782578763 1 0 0 0 0.78801076186113728 -0.61566146476048833 forward_v I I I I #
coedge $-1 $270 $271 $272 $273 reversed $113 $-1 #
coedge $-1 $183 $115 $274 $275 reversed $72 $-1 #
coedge $-1 $115 $182 $270 $276 reversed $72 $-1 #
coedge $-1 $272 $277 $115 $185 forward $278 $-1 #
edge $-1 $279 30.81311992456596 $280 35.031991990639355 $184 $281 forward 7 unknown #
loop $-1 $-1 $191 $116 #
plane-surface $-1 50.582392248998318 -35.931546246524235 3.4079078586312761 0 -0.78801076186113728 0.61566146476048833 1 0 0 forward_v I I I I #
loop $-1 $-1 $282 $74 #
coedge $-1 $189 $189 $190 $283 reversed $117 $-1 #
coedge $-1 $190 $190 $189 $283 forward $119 $-1 #
coedge $-1 $191 $191 $120 $192 forward $186 $-1 #
edge $-1 $284 -2.3303224122330584e-016 $284 6.2831853071796004 $191 $285 forward 7 unknown #
loop $-1 $-1 $198 $121 #
plane-surface $-1 50.582392248998318 -35.931546246524235 3.4079078586312761 0 -0.78801076186113728 0.61566146476048833 1 0 0 forward_v I I I I #
loop $-1 $-1 $286 $77 #
coedge $-1 $196 $196 $197 $287 reversed $122 $-1 #
coedge $-1 $197 $197 $196 $287 forward $124 $-1 #
coedge $-1 $198 $198 $125 $199 forward $193 $-1 #
edge $-1 $288 -2.3303224122330584e-016 $288 6.2831853071796004 $198 $289 forward 7 unknown #
face $-1 $290 $291 $30 $-1 $292 reversed single #
loop $-1 $-1 $293 $126 #
plane-surface $-1 -61.901303140354628 0 0 1 0 0 0 0 -1 forward_v I I I I #
coedge $-1 $294 $211 $295 $296 forward $127 $-1 #
coedge $-1 $297 $129 $294 $298 forward $81 $-1 #
coedge $-1 $129 $297 $299 $300 forward $81 $-1 #
coedge $-1 $214 $213 $129 $207 reversed $215 $-1 #
edge $-1 $301 -35.931546246524213 $302 35.931546246524213 $206 $303 forward 7 unknown #
coedge $-1 $131 $130 $304 $305 forward $51 $-1 #
coedge $-1 $306 $307 $130 $210 reversed $291 $-1 #
edge $-1 $217 -61.901303140354628 $308 61.901303140354628 $209 $309 forward 7 unknown #
coedge $-1 $203 $310 $131 $212 reversed $127 $-1 #
edge $-1 $311 -61.901303140354628 $216 61.901303140354628 $211 $312 forward 7 unknown #
coedge $-1 $206 $132 $310 $313 forward $215 $-1 #
coedge $-1 $132 $206 $306 $314 reversed $215 $-1 #
loop $-1 $-1 $213 $290 #
vertex $-1 $133 $315 #
vertex $-1 $133 $316 #
straight-curve $-1 61.901303140354628 0 8.8078180061252827 0 1 0 I I #
face $-1 $-1 $231 $31 $-1 $317 forward single #
loop $-1 $-1 $318 $134 #
plane-surface $-1 0 35.931546246524213 0 0 -1 0 0 0 -1 forward_v I I I I #
coedge $-1 $319 $320 $321 $322 reversed $135 $-1 #
coedge $-1 $323 $137 $139 $229 forward $85 $-1 #
coedge $-1 $137 $323 $319 $324 forward $85 $-1 #
coedge $-1 $321 $140 $137 $226 forward $231 $-1 #
edge $-1 $233 -25.01781602133077 $325 1.455017657871398 $225 $326 forward 7 unknown #
coedge $-1 $327 $328 $138 $228 forward $220 $-1 #
edge $-1 $329 -68.705299999010379 $232 -64.885360239608062 $227 $330 forward 7 unknown #
edge $-1 $233 65.364222887692264 $329 71.863092493048427 $139 $331 forward 7 unknown #
coedge $-1 $140 $321 $327 $332 forward $231 $-1 #
loop $-1 $-1 $321 $219 #
vertex $-1 $228 $333 #
vertex $-1 $141 $334 #
straight-curve $-1 -36.799215203060456 25.281215320115148 8.807818006125288 0 -1 0 I I #
coedge $-1 $235 $235 $-1 $335 reversed $144 $-1 #
edge $-1 $336 0 $336 6.2831853071796004 $145 $337 forward 7 unknown #
vertex $-1 $148 $338 #
ellipse-curve $-1 -29.235548437574124 33.302698286772653 6.8978481264241225 0 0.5877852598018023 0.80901698891910034 1.5 0 0 1 I I #
coedge $-1 $239 $239 $-1 $339 reversed $151 $-1 #
edge $-1 $340 0 $340 6.2831853071796004 $152 $341 forward 7 unknown #
vertex $-1 $155 $342 #
ellipse-curve $-1 -17.89004828934462 33.302698286772653 6.8978481264241225 0 0.5877852598018023 0.80901698891910034 1.5 0 0 1 I I #
face $-1 $-1 $343 $34 $-1 $344 reversed single #
loop $-1 $-1 $162 $156 #
plane-surface $-1 0 0 8.8078180061252827 0 0 1 1 0 0 forward_v I I I I #
coedge $-1 $345 $346 $347 $348 reversed $157 $-1 #
coedge $-1 $349 $159 $161 $253 forward $99 $-1 #
coedge $-1 $159 $349 $345 $350 forward $99 $-1 #
coedge $-1 $347 $162 $159 $250 forward $244 $-1 #
edge $-1 $256 5.9328355488465476 $351 32.405669228048716 $249 $352 forward 7 unknown #
coedge $-1 $353 $354 $160 $252 forward $343 $-1 #
edge $-1 $355 -68.705299999010379 $255 -64.885360239608062 $251 $356 forward 7 unknown #
edge $-1 $256 65.364222887692264 $355 71.863092493048427 $161 $357 forward 7 unknown #
coedge $-1 $162 $347 $353 $358 forward $244 $-1 #
vertex $-1 $163 $359 #
vertex $-1 $163 $360 #
straight-curve $-1 25.102087937294179 25.281215320115148 8.807818006125288 0 -1 0 I I #
coedge $-1 $258 $258 $-1 $361 reversed $166 $-1 #
edge $-1 $362 0 $362 6.2831853071796004 $167 $363 forward 7 unknown #
vertex $-1 $170 $364 #
ellipse-curve $-1 32.665754702780504 33.302698286772653 6.8978481264241225 0 0.5877852598018023 0.80901698891910034 1.5 0 0 1 I I #
coedge $-1 $262 $262 $-1 $365 reversed $173 $-1 #
edge $-1 $366 0 $366 6.2831853071796004 $174 $367 forward 7 unknown #
vertex $-1 $177 $368 #
ellipse-curve $-1 44.011254851010008 33.302698286772653 6.8978481264241225 0 0.5877852598018023 0.80901698891910034 1.5 0 0 1 I I #
face $-1 $-1 $278 $37 $-1 $369 forward single #
loop $-1 $-1 $370 $178 #
plane-surface $-1 0 -35.931546246524213 0 0 1 0 0 0 1 forward_v I I I I #
coedge $-1 $371 $372 $373 $374 reversed $179 $-1 #
coedge $-1 $375 $181 $183 $276 forward $113 $-1 #
coedge $-1 $181 $375 $371 $376 forward $113 $-1 #
coedge $-1 $373 $184 $181 $273 forward $278 $-1 #
edge $-1 $280 -34.290093109547506 $377 -16.292299139450812 $272 $378 forward 7 unknown #
coedge $-1 $379 $380 $182 $275 forward $267 $-1 #
edge $-1 $381 -36.406293032658077 $279 -31.006382885164101 $274 $382 forward 7 unknown #
edge $-1 $280 -6.8525842651443059 $381 -3.4470385116073395e-014 $183 $383 forward 7 unknown #
coedge $-1 $184 $373 $379 $384 forward $278 $-1 #
loop $-1 $-1 $373 $266 #
vertex $-1 $275 $385 #
vertex $-1 $185 $386 #
straight-curve $-1 59.581289234046665 -66.744666171090174 8.8078180061252809 0 1 0 I I #
coedge $-1 $282 $282 $-1 $387 reversed $188 $-1 #
edge $-1 $388 0 $388 6.2831853071796004 $189 $389 forward 7 unknown #
vertex $-1 $192 $390 #
ellipse-curve $-1 46.725722112549022 -33.82211021348752 6.10786293237829 0 -0.78801076186113728 0.61566146476048833 1.5 0 0 1 I I #
coedge $-1 $286 $286 $-1 $391 reversed $195 $-1 #
edge $-1 $392 0 $392 6.2831853071796004 $196 $393 forward 7 unknown #
vertex $-1 $199 $394 #
ellipse-curve $-1 54.439062385447613 -33.82211021348752 6.10786293237829 0 -0.78801076186113728 0.61566146476048833 1.5 0 0 1 I I #
face $-1 $-1 $215 $30 $-1 $395 reversed single #
loop $-1 $-1 $306 $200 #
plane-surface $-1 0 35.931546246524213 0 0 -1 0 0 0 -1 forward_v I I I I #
coedge $-1 $396 $304 $307 $397 forward $201 $-1 #
coedge $-1 $310 $203 $204 $298 reversed $127 $-1 #
coedge $-1 $304 $396 $203 $296 reversed $201 $-1 #
edge $-1 $311 -8.8078180061252827 $398 8.8078180061252827 $295 $399 forward 7 unknown #
coedge $-1 $205 $204 $396 $400 forward $81 $-1 #
edge $-1 $302 -61.901303140354628 $398 61.901303140354628 $294 $401 forward 7 unknown #
coedge $-1 $307 $306 $205 $300 reversed $291 $-1 #
edge $-1 $402 -61.901303140354628 $301 61.901303140354628 $299 $403 forward 7 unknown #
vertex $-1 $207 $404 #
vertex $-1 $313 $405 #
straight-curve $-1 61.901303140354628 0 -8.8078180061252827 0 -1 0 I I #
coedge $-1 $293 $295 $208 $305 reversed $201 $-1 #
edge $-1 $308 -35.931546246524213 $311 35.931546246524213 $304 $406 forward 7 unknown #
coedge $-1 $299 $209 $214 $314 forward $291 $-1 #
coedge $-1 $209 $299 $293 $397 reversed $291 $-1 #
vertex $-1 $210 $407 #
straight-curve $-1 0 35.931546246524213 8.8078180061252827 -1 0 0 I I #
coedge $-1 $211 $294 $213 $313 reversed $127 $-1 #
vertex $-1 $305 $408 #
straight-curve $-1 0 -35.931546246524213 8.8078180061252827 1 0 0 I I #
edge $-1 $216 -8.8078180061252827 $302 8.8078180061252827 $213 $409 forward 7 unknown #
edge $-1 $217 -8.8078180061252827 $301 8.8078180061252827 $214 $410 forward 7 unknown #
point $-1 61.901303140354628 -35.931546246524213 8.8078180061252827 #
point $-1 61.901303140354628 35.931546246524213 8.8078180061252827 #
plane-surface $-1 0 0 8.8078180061252827 0 0 1 1 0 0 forward_v I I I I #
coedge $-1 $328 $327 $320 $411 forward $220 $-1 #
coedge $-1 $320 $222 $224 $324 reversed $135 $-1 #
coedge $-1 $222 $319 $318 $411 reversed $135 $-1 #
coedge $-1 $230 $225 $222 $322 forward $231 $-1 #
edge $-1 $325 5.3926350069059588 $412 10.650330926409065 $321 $413 forward 7 unknown #
coedge $-1 $224 $223 $328 $414 reversed $85 $-1 #
edge $-1 $415 -71.863092493048427 $325 -65.364222887692264 $319 $416 forward 7 unknown #
vertex $-1 $226 $417 #
straight-curve $-1 -11.781399181729686 30.673850327021103 8.8078180061252809 1 0 0 I I #
coedge $-1 $318 $227 $230 $332 reversed $220 $-1 #
coedge $-1 $227 $318 $323 $414 forward $220 $-1 #
vertex $-1 $228 $418 #
straight-curve $-1 -36.799215203060456 35.931546246524213 73.69317824573335 0 0 1 I I #
straight-curve $-1 -36.799215203060456 -22.206916456616632 47.227944737910391 0 0.80901698891910034 -0.5877852598018023 I I #
edge $-1 $412 10.326381523858288 $232 36.799215203060456 $327 $419 forward 7 unknown #
point $-1 -36.799215203060456 35.931546246524213 8.8078180061252827 #
point $-1 -36.799215203060456 30.673850327021107 8.8078180061252809 #
edge $-1 $420 1 $420 0 $235 $-1 forward 7 unknown #
vertex $-1 $236 $421 #
ellipse-curve $-1 -29.235548437574124 31.548491055678021 4.4833890559145431 0 0.5877852598018023 0.80901698891910034 1.5 0 0 1 I I #
point $-1 -27.735548437574124 33.30269828677266 6.897848126424134 #
edge $-1 $422 1 $422 0 $239 $-1 forward 7 unknown #
vertex $-1 $240 $423 #
ellipse-curve $-1 -17.89004828934462 31.548491055678021 4.4833890559145431 0 0.5877852598018023 0.80901698891910034 1.5 0 0 1 I I #
point $-1 -16.39004828934462 33.30269828677266 6.897848126424134 #
loop $-1 $-1 $251 $243 #
plane-surface $-1 0 35.931546246524213 0 0 -1 0 0 0 -1 forward_v I I I I #
coedge $-1 $346 $246 $248 $350 reversed $157 $-1 #
coedge $-1 $246 $345 $424 $425 reversed $157 $-1 #
coedge $-1 $254 $249 $246 $348 forward $244 $-1 #
edge $-1 $351 5.3926350069059588 $426 10.650330926409065 $347 $427 forward 7 unknown #
coedge $-1 $248 $247 $354 $428 reversed $99 $-1 #
edge $-1 $429 -71.863092493048427 $351 -65.364222887692264 $345 $430 forward 7 unknown #
vertex $-1 $250 $431 #
straight-curve $-1 19.169252388447632 30.673850327021103 8.8078180061252809 1 0 0 I I #
coedge $-1 $424 $251 $254 $358 reversed $343 $-1 #
coedge $-1 $251 $424 $349 $428 forward $343 $-1 #
vertex $-1 $252 $432 #
straight-curve $-1 25.102087937294179 35.931546246524213 73.69317824573335 0 0 1 I I #
straight-curve $-1 25.102087937294179 -22.206916456616632 47.227944737910391 0 0.80901698891910034 -0.5877852598018023 I I #
edge $-1 $426 -51.574921616496347 $255 -25.102087937294179 $353 $433 forward 7 unknown #
point $-1 25.102087937294179 35.931546246524213 8.8078180061252827 #
point $-1 25.102087937294179 30.673850327021107 8.8078180061252809 #
edge $-1 $434 1 $434 0 $258 $-1 forward 7 unknown #
vertex $-1 $259 $435 #
ellipse-curve $-1 32.665754702780504 31.548491055678021 4.4833890559145431 0 0.5877852598018023 0.80901698891910034 1.5 0 0 1 I I #
point $-1 34.165754702780504 33.30269828677266 6.897848126424134 #
edge $-1 $436 1 $436 0 $262 $-1 forward 7 unknown #
vertex $-1 $263 $437 #
ellipse-curve $-1 44.011254851010008 31.548491055678021 4.4833890559145431 0 0.5877852598018023 0.80901698891910034 1.5 0 0 1 I I #
point $-1 45.511254851010008 33.30269828677266 6.897848126424134 #
plane-surface $-1 0 0 8.8078180061252827 0 0 1 1 0 0 forward_v I I I I #
coedge $-1 $380 $379 $372 $438 forward $267 $-1 #
coedge $-1 $372 $269 $271 $376 reversed $179 $-1 #
coedge $-1 $269 $371 $370 $438 reversed $179 $-1 #
coedge $-1 $277 $272 $269 $374 forward $278 $-1 #
edge $-1 $377 -35.031991990639355 $439 -30.81311992456596 $373 $440 forward 7 unknown #
coedge $-1 $271 $270 $380 $441 reversed $113 $-1 #
edge $-1 $442 3.4470385116073395e-014 $377 6.8525842651443059 $371 $443 forward 7 unknown #
vertex $-1 $273 $444 #
straight-curve $-1 25.291196124499159 -31.712674180450819 8.8078180061252809 -1 0 0 I I #
coedge $-1 $370 $274 $277 $384 reversed $267 $-1 #
coedge $-1 $274 $370 $375 $441 forward $267 $-1 #
vertex $-1 $275 $445 #
straight-curve $-1 59.581289234046665 -35.931546246524213 39.814200891289381 0 0 1 I I #
straight-curve $-1 59.581289234046665 -35.931546246524235 3.4079078586312761 0 -0.61566146476048833 -0.78801076186113728 I I #
edge $-1 $439 41.58349526394997 $279 59.581289234046665 $379 $446 forward 7 unknown #
point $-1 59.581289234046665 -35.931546246524213 8.8078180061252827 #
point $-1 59.581289234046665 -31.712674180450819 8.8078180061252827 #
edge $-1 $447 1 $447 0 $282 $-1 forward 7 unknown #
vertex $-1 $283 $448 #
ellipse-curve $-1 46.725722112549022 -29.645318895720219 2.8445960010712654 0 -0.78801076186113728 0.61566146476048833 1.5 0 0 1 I I #
point $-1 48.225722112549022 -33.822110213487505 6.1078629323782785 #
edge $-1 $449 1 $449 0 $286 $-1 forward 7 unknown #
vertex $-1 $287 $450 #
ellipse-curve $-1 54.439062385447613 -29.645318895720219 2.8445960010712654 0 -0.78801076186113728 0.61566146476048833 1.5 0 0 1 I I #
point $-1 55.939062385447613 -33.822110213487505 6.1078629323782785 #
plane-surface $-1 61.901303140354628 0 0 -1 0 0 0 0 1 forward_v I I I I #
coedge $-1 $295 $293 $297 $400 reversed $201 $-1 #
edge $-1 $308 -8.8078180061252827 $402 8.8078180061252827 $307 $451 forward 7 unknown #
vertex $-1 $400 $452 #
straight-curve $-1 -61.901303140354628 -35.931546246524213 0 0 0 -1 I I #
edge $-1 $398 -35.931546246524213 $402 35.931546246524213 $396 $453 forward 7 unknown #
straight-curve $-1 0 -35.931546246524213 -8.8078180061252827 -1 0 0 I I #
vertex $-1 $300 $454 #
straight-curve $-1 0 35.931546246524213 -8.8078180061252827 1 0 0 I I #
point $-1 61.901303140354628 35.931546246524213 -8.8078180061252827 #
point $-1 61.901303140354628 -35.931546246524213 -8.8078180061252827 #
straight-curve $-1 -61.901303140354628 0 8.8078180061252827 0 -1 0 I I #
point $-1 -61.901303140354628 35.931546246524213 8.8078180061252827 #
point $-1 -61.901303140354628 -35.931546246524213 8.8078180061252827 #
straight-curve $-1 61.901303140354628 -35.931546246524213 0 0 0 -1 I I #
straight-curve $-1 61.901303140354628 35.931546246524213 0 0 0 -1 I I #
edge $-1 $412 64.885360239608062 $415 68.705299999010379 $318 $455 forward 7 unknown #
vertex $-1 $332 $456 #
straight-curve $-1 -10.326381523858288 25.281215320115148 8.807818006125288 0 1 0 I I #
edge $-1 $415 -1.455017657871398 $329 25.01781602133077 $328 $457 forward 7 unknown #
vertex $-1 $414 $458 #
straight-curve $-1 -10.326381523858288 -22.206916456616632 47.227944737910391 0 -0.80901698891910034 0.5877852598018023 I I #
point $-1 -10.326381523858288 30.673850327021107 8.8078180061252809 #
point $-1 -36.799215203060456 35.931546246524213 4.9878782467229712 #
straight-curve $-1 0 35.931546246524213 8.8078180061252827 -1 0 0 I I #
vertex $-1 $335 $459 #
point $-1 -27.735548437574124 31.548491055678021 4.4833890559145431 #
vertex $-1 $339 $460 #
point $-1 -16.39004828934462 31.548491055678021 4.4833890559145431 #
coedge $-1 $354 $353 $346 $425 forward $343 $-1 #
edge $-1 $426 64.885360239608062 $429 68.705299999010379 $424 $461 forward 7 unknown #
vertex $-1 $358 $462 #
straight-curve $-1 51.574921616496347 25.281215320115148 8.807818006125288 0 1 0 I I #
edge $-1 $429 -32.405669228048716 $355 -5.9328355488465476 $354 $463 forward 7 unknown #
vertex $-1 $428 $464 #
straight-curve $-1 51.574921616496347 -22.206916456616632 47.227944737910391 0 -0.80901698891910034 0.5877852598018023 I I #
point $-1 51.574921616496347 30.673850327021107 8.8078180061252809 #
point $-1 25.102087937294179 35.931546246524213 4.9878782467229712 #
straight-curve $-1 0 35.931546246524213 8.8078180061252827 -1 0 0 I I #
vertex $-1 $361 $465 #
point $-1 34.165754702780504 31.548491055678021 4.4833890559145431 #
vertex $-1 $365 $466 #
point $-1 45.511254851010008 31.548491055678021 4.4833890559145431 #
edge $-1 $439 31.006382885164101 $442 36.406293032658077 $370 $467 forward 7 unknown #
vertex $-1 $384 $468 #
straight-curve $-1 41.58349526394997 -66.744666171090174 8.8078180061252809 0 -1 0 I I #
edge $-1 $442 16.292299139450812 $381 34.290093109547506 $380 $469 forward 7 unknown #
vertex $-1 $441 $470 #
straight-curve $-1 41.58349526394997 -35.931546246524235 3.4079078586312761 0 0.61566146476048833 0.78801076186113728 I I #
point $-1 41.58349526394997 -31.712674180450819 8.8078180061252827 #
point $-1 59.581289234046665 -35.931546246524213 3.4079078586313032 #
straight-curve $-1 0 -35.931546246524213 8.8078180061252827 1 0 0 I I #
vertex $-1 $387 $471 #
point $-1 48.225722112549022 -29.645318895720219 2.8445960010712654 #
vertex $-1 $391 $472 #
point $-1 55.939062385447613 -29.645318895720219 2.8445960010712654 #
straight-curve $-1 -61.901303140354628 35.931546246524213 0 0 0 -1 I I #
point $-1 -61.901303140354628 -35.931546246524213 -8.8078180061252827 #
straight-curve $-1 -61.901303140354628 0 -8.8078180061252827 0 1 0 I I #
point $-1 -61.901303140354628 35.931546246524213 -8.8078180061252827 #
straight-curve $-1 -10.326381523858288 35.931546246524213 73.69317824573335 0 0 -1 I I #
point $-1 -10.326381523858288 35.931546246524213 8.8078180061252827 #
straight-curve $-1 -11.781399181729686 35.931546246524206 4.9878782467229676 -1 0 0 I I #
point $-1 -10.326381523858288 35.931546246524213 4.9878782467229712 #
point $-1 -29.235548437574124 30.66681316597532 3.2698635725358929 #
point $-1 -17.89004828934462 30.66681316597532 3.2698635725358929 #
straight-curve $-1 51.574921616496347 35.931546246524213 73.69317824573335 0 0 -1 I I #
point $-1 51.574921616496347 35.931546246524213 8.8078180061252827 #
straight-curve $-1 19.169252388447632 35.931546246524206 4.9878782467229676 -1 0 0 I I #
point $-1 51.574921616496347 35.931546246524213 4.9878782467229712 #
point $-1 32.665754702780504 30.66681316597532 3.2698635725358929 #
point $-1 44.011254851010008 30.66681316597532 3.2698635725358929 #
straight-curve $-1 41.58349526394997 -35.931546246524213 39.814200891289381 0 0 -1 I I #
point $-1 41.58349526394997 -35.931546246524213 8.8078180061252827 #
straight-curve $-1 25.291196124499159 -35.931546246524213 3.4079078586313036 1 0 0 I I #
point $-1 41.58349526394997 -35.931546246524213 3.4079078586313032 #
point $-1 46.725722112549022 -28.463302752928517 1.9211038039305328 #
point $-1 54.439062385447613 -28.463302752928517 1.9211038039305328 #
End-of-ACIS-data 