500 0 7 0           
7 Unknown 11 ACIS 5.0 NT 24 Fri Mar 26 15:19:04 1999 
-1 9.9999999999999995e-007 1e-010 
body $-1 $7 $-1 $8 #
body $-1 $9 $-1 $10 #
body $-1 $11 $-1 $12 #
body $-1 $13 $-1 $14 #
body $-1 $15 $-1 $16 #
body $-1 $17 $-1 $18 #
body $-1 $19 $-1 $20 #
lump $-1 $-1 $21 $0 #
transform $-1 1 0 0 0 1 0 0 0 1 62.213812677388837 37.665681768632219 9.7608682567877327 1 rotate no_reflect no_shear #
lump $-1 $-1 $22 $1 #
transform $-1 1 0 0 0 1 0 0 0 1 62.213812677388837 37.665681768632219 9.7608682567877327 1 rotate no_reflect no_shear #
lump $-1 $-1 $23 $2 #
transform $-1 1 0 0 0 1 0 0 0 1 62.213812677388837 37.665681768632219 9.7608682567877327 1 rotate no_reflect no_shear #
lump $-1 $-1 $24 $3 #
transform $-1 1 0 0 0 1 0 0 0 1 62.213812677388837 37.665681768632219 9.7608682567877327 1 rotate no_reflect no_shear #
lump $-1 $-1 $25 $4 #
transform $-1 1 0 0 0 1 0 0 0 1 62.213812677388837 37.665681768632219 9.7608682567877327 1 rotate no_reflect no_shear #
lump $-1 $-1 $26 $5 #
transform $-1 1 0 0 0 1 0 0 0 1 62.213812677388837 37.665681768632219 9.7608682567877327 1 rotate no_reflect no_shear #
lump $-1 $-1 $27 $6 #
transform $-1 1 0 0 0 1 0 0 0 1 62.213812677388837 37.665681768632219 9.7608682567877327 1 rotate no_reflect no_shear #
shell $-1 $-1 $-1 $28 $-1 $7 #
shell $-1 $-1 $-1 $29 $-1 $9 #
shell $-1 $-1 $-1 $30 $-1 $11 #
shell $-1 $-1 $-1 $31 $-1 $13 #
shell $-1 $-1 $-1 $32 $-1 $15 #
shell $-1 $-1 $-1 $33 $-1 $17 #
shell $-1 $-1 $-1 $34 $-1 $19 #
face $-1 $35 $36 $21 $-1 $37 forward single #
face $-1 $38 $39 $22 $-1 $40 reversed single #
face $-1 $41 $42 $23 $-1 $43 forward single #
face $-1 $44 $45 $24 $-1 $46 reversed single #
face $-1 $47 $48 $25 $-1 $49 forward single #
face $-1 $50 $51 $26 $-1 $52 reversed single #
face $-1 $53 $54 $27 $-1 $55 forward single #
face $-1 $56 $57 $21 $-1 $58 reversed single #
loop $-1 $-1 $59 $28 #
plane-surface $-1 0 0 9.7608682567877327 0 0 1 1 0 0 forward_v I I I I #
face $-1 $60 $61 $22 $-1 $62 reversed single #
loop $-1 $-1 $63 $29 #
plane-surface $-1 0 -32.005212263716423 4.4283903776789595 0 0 1 1 0 0 forward_v I I I I #
face $-1 $64 $65 $23 $-1 $66 reversed single #
loop $-1 $-1 $67 $30 #
plane-surface $-1 0 37.665681768632219 0 0 -1 0 0 0 -1 forward_v I I I I #
face $-1 $68 $69 $24 $-1 $70 reversed single #
loop $-1 $-1 $71 $31 #
plane-surface $-1 89.741155417650873 26.317807802662479 180.02684295244615 0 -1 0 -0.80901700255871778 0 -0.5877852410284794 forward_v I I I I #
face $-1 $72 $73 $25 $-1 $74 forward single #
loop $-1 $75 $76 $32 #
cone-surface $-1 59.882429469503116 22.564965268663485 7.2325633853584774 -0.80901700255871778 0 -0.5877852410284794 0.5877852410284794 0 -0.80901700255871778 1 I I 0 1 1 forward I I I I #
face $-1 $77 $78 $26 $-1 $79 reversed single #
loop $-1 $-1 $80 $33 #
plane-surface $-1 -162.8778771774102 18.812122734664491 79.362778452424806 0 1 0 -0.80901700255871778 0 0.5877852410284794 forward_v I I I I #
face $-1 $81 $82 $27 $-1 $83 forward single #
loop $-1 $84 $85 $34 #
cone-surface $-1 -59.882429469503109 22.564965268663485 7.2325633853584756 0.80901700255871778 0 -0.5877852410284794 0.5877852410284794 0 0.80901700255871778 1 I I 0 1 1 forward I I I I #
face $-1 $86 $87 $21 $-1 $88 reversed single #
loop $-1 $-1 $89 $35 #
plane-surface $-1 0 0 -9.7608682567877327 0 0 1 1 0 0 forward_v I I I I #
coedge $-1 $90 $91 $92 $93 forward $36 $-1 #
face $-1 $94 $95 $22 $-1 $96 reversed single #
loop $-1 $-1 $97 $38 #
plane-surface $-1 0 -26.344742758800628 7.0946293172333466 0 -1 0 0 0 -1 forward_v I I I I #
coedge $-1 $98 $99 $100 $101 reversed $39 $-1 #
face $-1 $102 $103 $23 $-1 $104 forward single #
loop $-1 $-1 $105 $41 #
plane-surface $-1 62.213812677388837 0 0 -1 0 0 0 0 1 forward_v I I I I #
coedge $-1 $106 $107 $108 $109 forward $42 $-1 #
face $-1 $110 $111 $24 $-1 $112 reversed single #
loop $-1 $-1 $113 $44 #
plane-surface $-1 -10.922909082370467 22.564965268663485 106.89012119268682 0.80901700255871778 0 0.5877852410284794 0.5877852410284794 0 -0.80901700255871778 forward_v I I I I #
coedge $-1 $114 $115 $116 $117 reversed $45 $-1 #
face $-1 $-1 $118 $25 $-1 $119 forward single #
loop $-1 $120 $121 $47 #
cone-surface $-1 58.430633187650791 22.564965268663485 6.1777716754761069 -0.80901700255871778 0 -0.5877852410284794 0.2938926205142397 0 -0.40450850127935889 1 I I -0.70710678118654746 0.70710678118654746 0.5 forward I I I I #
loop $-1 $-1 $122 $32 #
coedge $-1 $76 $76 $123 $124 reversed $48 $-1 #
face $-1 $125 $126 $26 $-1 $127 reversed single #
loop $-1 $-1 $128 $50 #
plane-surface $-1 -62.213812677388859 22.564965268663485 6.2260566926654803 -0.80901700255871778 0 0.5877852410284794 0.5877852410284794 0 0.80901700255871778 forward_v I I I I #
coedge $-1 $129 $130 $131 $132 reversed $51 $-1 #
face $-1 $-1 $133 $27 $-1 $134 forward single #
loop $-1 $135 $136 $53 #
cone-surface $-1 -58.430633187650784 22.564965268663485 6.1777716754761052 0.80901700255871778 0 -0.5877852410284794 0.2938926205142397 0 0.40450850127935889 1 I I -0.70710678118654746 0.70710678118654746 0.5 forward I I I I #
loop $-1 $-1 $137 $34 #
coedge $-1 $85 $85 $138 $139 reversed $54 $-1 #
face $-1 $140 $141 $21 $-1 $142 reversed single #
loop $-1 $-1 $143 $56 #
plane-surface $-1 0 -37.665681768632219 0 0 1 0 0 0 1 forward_v I I I I #
coedge $-1 $144 $145 $146 $147 forward $57 $-1 #
coedge $-1 $148 $59 $149 $150 forward $36 $-1 #
coedge $-1 $59 $148 $151 $152 forward $36 $-1 #
coedge $-1 $153 $154 $59 $93 reversed $155 $-1 #
edge $-1 $156 -37.665681768632219 $157 37.665681768632219 $92 $158 forward 7 unknown #
face $-1 $159 $160 $22 $-1 $161 reversed single #
loop $-1 $-1 $162 $60 #
plane-surface $-1 -62.213812677388837 0 0 1 0 0 0 0 -1 forward_v I I I I #
coedge $-1 $163 $164 $165 $166 reversed $61 $-1 #
coedge $-1 $167 $63 $168 $169 reversed $39 $-1 #
coedge $-1 $63 $167 $163 $170 forward $39 $-1 #
coedge $-1 $165 $171 $63 $101 forward $172 $-1 #
edge $-1 $173 -21.663075636774007 $174 -10.342136626942416 $100 $175 forward 7 unknown #
face $-1 $176 $177 $23 $-1 $178 reversed single #
loop $-1 $-1 $179 $64 #
plane-surface $-1 0 43.339618751617088 2.3243545443382652 0 0 1 1 0 0 forward_v I I I I #
coedge $-1 $180 $181 $107 $182 forward $65 $-1 #
coedge $-1 $183 $67 $184 $185 reversed $42 $-1 #
coedge $-1 $67 $183 $105 $182 reversed $42 $-1 #
coedge $-1 $179 $186 $67 $109 reversed $103 $-1 #
edge $-1 $187 -62.213812677388837 $188 62.213812677388837 $108 $189 forward 7 unknown #
face $-1 $190 $191 $24 $-1 $192 forward single #
loop $-1 $-1 $193 $68 #
plane-surface $-1 89.741155417650873 18.812122734664491 180.02684295244615 0 1 0 0.80901700255871778 0 0.5877852410284794 forward_v I I I I #
coedge $-1 $194 $195 $196 $197 reversed $69 $-1 #
coedge $-1 $115 $71 $198 $199 reversed $45 $-1 #
coedge $-1 $71 $114 $194 $200 reversed $45 $-1 #
coedge $-1 $196 $201 $71 $117 forward $191 $-1 #
edge $-1 $202 -17.343234968563401 $203 -14.775044113937895 $116 $204 forward 7 unknown #
loop $-1 $-1 $123 $72 #
plane-surface $-1 -10.922909082370467 22.564965268663485 106.89012119268682 0.80901700255871778 0 0.5877852410284794 0.5877852410284794 0 -0.80901700255871778 forward_v I I I I #
loop $-1 $-1 $205 $47 #
coedge $-1 $121 $121 $122 $206 reversed $73 $-1 #
coedge $-1 $122 $122 $121 $206 forward $75 $-1 #
coedge $-1 $123 $123 $76 $124 forward $118 $-1 #
edge $-1 $207 0 $207 6.2831853071796004 $123 $208 forward 7 unknown #
face $-1 $209 $210 $26 $-1 $211 reversed single #
loop $-1 $-1 $212 $77 #
plane-surface $-1 -162.8778771774102 26.317807802662479 79.362778452424806 0 -1 0 0.80901700255871778 0 -0.5877852410284794 forward_v I I I I #
coedge $-1 $213 $214 $215 $216 reversed $78 $-1 #
coedge $-1 $130 $80 $217 $218 reversed $51 $-1 #
coedge $-1 $80 $129 $213 $219 reversed $51 $-1 #
coedge $-1 $215 $220 $80 $132 forward $221 $-1 #
edge $-1 $222 19.225125911316262 $223 21.793316765941768 $131 $224 forward 7 unknown #
loop $-1 $-1 $138 $81 #
plane-surface $-1 -62.213812677388859 22.564965268663485 6.2260566926654803 -0.80901700255871778 0 0.5877852410284794 0.5877852410284794 0 0.80901700255871778 forward_v I I I I #
loop $-1 $-1 $225 $53 #
coedge $-1 $136 $136 $137 $226 reversed $82 $-1 #
coedge $-1 $137 $137 $136 $226 forward $84 $-1 #
coedge $-1 $138 $138 $85 $139 forward $133 $-1 #
edge $-1 $227 0 $227 6.2831853071796004 $138 $228 forward 7 unknown #
face $-1 $229 $230 $21 $-1 $231 reversed single #
loop $-1 $-1 $232 $86 #
plane-surface $-1 -62.213812677388837 0 0 1 0 0 0 0 -1 forward_v I I I I #
coedge $-1 $233 $151 $234 $235 forward $87 $-1 #
coedge $-1 $236 $89 $233 $237 forward $57 $-1 #
coedge $-1 $89 $236 $238 $239 forward $57 $-1 #
coedge $-1 $154 $153 $89 $147 reversed $155 $-1 #
edge $-1 $240 -37.665681768632219 $241 37.665681768632219 $146 $242 forward 7 unknown #
coedge $-1 $91 $90 $243 $244 forward $36 $-1 #
coedge $-1 $245 $246 $90 $150 reversed $230 $-1 #
edge $-1 $157 -62.213812677388837 $247 62.213812677388837 $149 $248 forward 7 unknown #
coedge $-1 $143 $249 $91 $152 reversed $87 $-1 #
edge $-1 $250 -62.213812677388837 $156 62.213812677388837 $151 $251 forward 7 unknown #
coedge $-1 $146 $92 $249 $252 forward $155 $-1 #
coedge $-1 $92 $146 $245 $253 reversed $155 $-1 #
loop $-1 $-1 $153 $229 #
vertex $-1 $93 $254 #
vertex $-1 $93 $255 #
straight-curve $-1 62.213812677388837 0 9.7608682567877327 0 1 0 I I #
face $-1 $256 $257 $22 $-1 $258 forward single #
loop $-1 $-1 $168 $94 #
plane-surface $-1 0 -37.665681768632219 0 0 1 0 0 0 1 forward_v I I I I #
coedge $-1 $259 $260 $261 $262 forward $95 $-1 #
coedge $-1 $261 $97 $99 $170 reversed $61 $-1 #
coedge $-1 $97 $261 $263 $264 reversed $61 $-1 #
coedge $-1 $265 $100 $97 $166 forward $172 $-1 #
edge $-1 $174 0.88107571906228621 $266 6.2135535981710612 $165 $267 forward 7 unknown #
coedge $-1 $99 $98 $259 $268 reversed $39 $-1 #
coedge $-1 $269 $270 $98 $169 forward $160 $-1 #
edge $-1 $271 -62.213812677388837 $173 62.213812677388837 $168 $272 forward 7 unknown #
edge $-1 $273 -62.213812677388837 $174 62.213812677388837 $163 $274 forward 7 unknown #
coedge $-1 $100 $265 $269 $275 forward $172 $-1 #
loop $-1 $-1 $165 $256 #
vertex $-1 $169 $276 #
vertex $-1 $101 $277 #
straight-curve $-1 62.213812677388837 -16.002606131858212 4.4283903776789595 0 1 0 I I #
face $-1 $278 $279 $23 $-1 $280 reversed single #
loop $-1 $-1 $281 $102 #
plane-surface $-1 0 43.339618751617088 -2.7111894232630172 0 0 1 1 0 0 forward_v I I I I #
coedge $-1 $282 $108 $181 $283 forward $103 $-1 #
coedge $-1 $284 $105 $281 $285 reversed $65 $-1 #
coedge $-1 $105 $284 $179 $283 reversed $65 $-1 #
edge $-1 $187 -2.3243545443382652 $286 2.7111894232630172 $105 $287 forward 7 unknown #
coedge $-1 $107 $106 $288 $289 forward $42 $-1 #
coedge $-1 $290 $291 $106 $185 forward $292 $-1 #
edge $-1 $293 -2.7111894232630172 $188 2.3243545443382652 $184 $294 forward 7 unknown #
coedge $-1 $108 $282 $290 $295 forward $103 $-1 #
vertex $-1 $182 $296 #
vertex $-1 $295 $297 #
straight-curve $-1 0 37.665681768632219 2.3243545443382652 -1 0 0 I I #
face $-1 $-1 $298 $24 $-1 $299 reversed single #
loop $-1 $-1 $116 $110 #
plane-surface $-1 0 0 9.7608682567877327 0 0 1 1 0 0 forward_v I I I I #
coedge $-1 $300 $301 $302 $303 reversed $111 $-1 #
coedge $-1 $304 $113 $115 $200 forward $69 $-1 #
coedge $-1 $113 $304 $300 $305 forward $69 $-1 #
coedge $-1 $302 $116 $113 $197 forward $191 $-1 #
edge $-1 $203 -15.035325168330736 $306 -7.5296401003327489 $196 $307 forward 7 unknown #
coedge $-1 $308 $309 $114 $199 forward $298 $-1 #
edge $-1 $310 -83.78736478355755 $202 -80.252553219435342 $198 $311 forward 7 unknown #
edge $-1 $203 120.05835801806839 $310 124.4276253547776 $115 $312 forward 7 unknown #
coedge $-1 $116 $302 $308 $313 forward $191 $-1 #
vertex $-1 $117 $314 #
vertex $-1 $117 $315 #
straight-curve $-1 44.870577708825437 26.317807802662479 9.760868256787731 -1 0 0 I I #
coedge $-1 $205 $205 $-1 $316 reversed $120 $-1 #
edge $-1 $317 0 $317 6.2831853071796004 $121 $318 forward 7 unknown #
vertex $-1 $124 $319 #
ellipse-curve $-1 60.929717250076095 22.564965268663485 7.9934624747266154 0.80901700255871778 0 0.5877852410284794 0.5877852410284794 0 -0.80901700255871778 1 I I #
face $-1 $-1 $221 $26 $-1 $320 forward single #
loop $-1 $-1 $321 $125 #
plane-surface $-1 -62.213812677388837 0 0 1 0 0 0 0 -1 forward_v I I I I #
coedge $-1 $322 $323 $324 $325 reversed $126 $-1 #
coedge $-1 $326 $128 $130 $219 forward $78 $-1 #
coedge $-1 $128 $326 $322 $327 forward $78 $-1 #
coedge $-1 $324 $131 $128 $216 forward $221 $-1 #
edge $-1 $223 7.5296401003327489 $328 15.035325168330736 $215 $329 forward 7 unknown #
coedge $-1 $330 $331 $129 $218 forward $210 $-1 #
edge $-1 $332 -33.455332533546894 $222 -29.920520969424672 $217 $333 forward 7 unknown #
edge $-1 $223 -4.3692673367092798 $332 -3.6241593609816998e-014 $130 $334 forward 7 unknown #
coedge $-1 $131 $324 $330 $335 forward $221 $-1 #
loop $-1 $-1 $324 $209 #
vertex $-1 $218 $336 #
vertex $-1 $132 $337 #
straight-curve $-1 -81.438938588705099 18.812122734664491 9.760868256787731 1 0 0 I I #
coedge $-1 $225 $225 $-1 $338 reversed $135 $-1 #
edge $-1 $339 0 $339 6.2831853071796004 $136 $340 forward 7 unknown #
vertex $-1 $139 $341 #
ellipse-curve $-1 -60.929717250076088 22.564965268663485 7.9934624747266154 -0.80901700255871778 0 0.5877852410284794 0.5877852410284794 0 0.80901700255871778 1 I I #
face $-1 $-1 $155 $21 $-1 $342 reversed single #
loop $-1 $-1 $245 $140 #
plane-surface $-1 0 37.665681768632219 0 0 -1 0 0 0 -1 forward_v I I I I #
coedge $-1 $343 $243 $246 $344 forward $141 $-1 #
coedge $-1 $249 $143 $144 $237 reversed $87 $-1 #
coedge $-1 $243 $343 $143 $235 reversed $141 $-1 #
edge $-1 $250 -9.7608682567877327 $345 9.7608682567877327 $234 $346 forward 7 unknown #
coedge $-1 $145 $144 $343 $347 forward $57 $-1 #
edge $-1 $241 -62.213812677388837 $345 62.213812677388837 $233 $348 forward 7 unknown #
coedge $-1 $246 $245 $145 $239 reversed $230 $-1 #
edge $-1 $349 -62.213812677388837 $240 62.213812677388837 $238 $350 forward 7 unknown #
vertex $-1 $147 $351 #
vertex $-1 $252 $352 #
straight-curve $-1 62.213812677388837 0 -9.7608682567877327 0 -1 0 I I #
coedge $-1 $232 $234 $148 $244 reversed $141 $-1 #
edge $-1 $247 -37.665681768632219 $250 37.665681768632219 $243 $353 forward 7 unknown #
coedge $-1 $238 $149 $154 $253 forward $230 $-1 #
coedge $-1 $149 $238 $232 $344 reversed $230 $-1 #
vertex $-1 $150 $354 #
straight-curve $-1 0 37.665681768632219 9.7608682567877327 -1 0 0 I I #
coedge $-1 $151 $233 $153 $252 reversed $87 $-1 #
vertex $-1 $244 $355 #
straight-curve $-1 0 -37.665681768632219 9.7608682567877327 1 0 0 I I #
edge $-1 $156 -9.7608682567877327 $241 9.7608682567877327 $153 $356 forward 7 unknown #
edge $-1 $157 -9.7608682567877327 $240 9.7608682567877327 $154 $357 forward 7 unknown #
point $-1 62.213812677388837 -37.665681768632219 9.7608682567877327 #
point $-1 62.213812677388837 37.665681768632219 9.7608682567877327 #
face $-1 $-1 $172 $22 $-1 $358 reversed single #
loop $-1 $-1 $263 $159 #
plane-surface $-1 0 0 9.7608682567877327 0 0 1 1 0 0 forward_v I I I I #
coedge $-1 $359 $162 $167 $268 forward $95 $-1 #
coedge $-1 $162 $359 $360 $361 reversed $95 $-1 #
coedge $-1 $164 $163 $162 $262 reversed $61 $-1 #
edge $-1 $362 -6.2135535981710612 $273 -0.88107571906228621 $162 $363 forward 7 unknown #
coedge $-1 $360 $364 $164 $264 forward $257 $-1 #
edge $-1 $266 -62.213812677388837 $362 62.213812677388837 $263 $365 forward 7 unknown #
coedge $-1 $171 $165 $364 $366 reversed $172 $-1 #
vertex $-1 $166 $367 #
straight-curve $-1 62.213812677388837 -26.344742758800628 3.5473146586166733 0 0 1 I I #
edge $-1 $273 10.342136626942416 $271 21.663075636774007 $259 $368 forward 7 unknown #
coedge $-1 $369 $168 $171 $275 reversed $160 $-1 #
coedge $-1 $168 $369 $359 $370 forward $160 $-1 #
vertex $-1 $169 $371 #
straight-curve $-1 0 -37.665681768632219 4.4283903776789595 1 0 0 I I #
vertex $-1 $268 $372 #
straight-curve $-1 0 -26.344742758800628 4.4283903776789595 1 0 0 I I #
edge $-1 $373 -9.7608682567877327 $173 -4.4283903776789595 $171 $374 forward 7 unknown #
point $-1 62.213812677388837 -37.665681768632219 4.4283903776789595 #
point $-1 62.213812677388837 -26.344742758800628 4.4283903776789595 #
face $-1 $-1 $292 $23 $-1 $375 reversed single #
loop $-1 $-1 $376 $176 #
plane-surface $-1 0 49.013555734601958 -0.193417439462376 0 -1 0 0 0 -1 forward_v I I I I #
coedge $-1 $288 $377 $180 $285 forward $177 $-1 #
coedge $-1 $186 $179 $378 $379 forward $103 $-1 #
edge $-1 $187 -5.6739369829848698 $380 5.6739369829848698 $181 $381 forward 7 unknown #
coedge $-1 $181 $180 $376 $382 reversed $65 $-1 #
edge $-1 $383 -5.6739369829848698 $286 5.6739369829848698 $180 $384 forward 7 unknown #
vertex $-1 $182 $385 #
straight-curve $-1 62.213812677388837 37.665681768632219 0 0 0 -1 I I #
coedge $-1 $386 $281 $183 $289 reversed $177 $-1 #
edge $-1 $293 -62.213812677388837 $286 62.213812677388837 $288 $387 forward 7 unknown #
coedge $-1 $388 $184 $186 $295 reversed $292 $-1 #
coedge $-1 $184 $388 $386 $389 reversed $292 $-1 #
loop $-1 $-1 $184 $278 #
vertex $-1 $185 $390 #
straight-curve $-1 -62.213812677388837 37.665681768632219 0 0 0 1 I I #
edge $-1 $391 -5.6739369829848698 $188 5.6739369829848698 $290 $392 forward 7 unknown #
point $-1 62.213812677388837 37.665681768632219 2.3243545443382652 #
point $-1 -62.213812677388837 37.665681768632219 2.3243545443382652 #
loop $-1 $-1 $198 $190 #
plane-surface $-1 62.213812677388837 0 0 -1 0 0 0 0 1 forward_v I I I I #
coedge $-1 $301 $193 $195 $305 reversed $111 $-1 #
coedge $-1 $193 $300 $393 $394 reversed $111 $-1 #
coedge $-1 $201 $196 $193 $303 forward $191 $-1 #
edge $-1 $306 14.775044113937895 $395 17.343234968563401 $302 $396 forward 7 unknown #
coedge $-1 $195 $194 $309 $397 reversed $69 $-1 #
edge $-1 $398 -124.4276253547776 $306 -120.05835801806839 $300 $399 forward 7 unknown #
vertex $-1 $197 $400 #
straight-curve $-1 59.645621822763331 11.282482634331743 9.7608682567877381 0 -1 0 I I #
coedge $-1 $393 $198 $201 $313 reversed $298 $-1 #
coedge $-1 $198 $393 $304 $397 forward $298 $-1 #
vertex $-1 $199 $401 #
straight-curve $-1 62.213812677388837 26.317807802662479 90.013421476223073 0 0 1 I I #
straight-curve $-1 -10.922909082370467 26.317807802662479 106.89012119268682 0.5877852410284794 0 -0.80901700255871778 I I #
edge $-1 $395 18.812122734664491 $202 26.317807802662479 $308 $402 forward 7 unknown #
point $-1 62.213812677388837 26.317807802662479 9.7608682567877327 #
point $-1 59.645621822763331 26.317807802662479 9.760868256787731 #
edge $-1 $403 1 $403 0 $205 $-1 forward 7 unknown #
vertex $-1 $206 $404 #
ellipse-curve $-1 58.83514168893015 22.564965268663485 6.4716642959903465 0.80901700255871778 0 0.5877852410284794 0.5877852410284794 0 -0.80901700255871778 1 I I #
point $-1 61.517502491104565 22.564965268663485 7.1844454721678899 #
plane-surface $-1 0 0 9.7608682567877327 0 0 1 1 0 0 forward_v I I I I #
coedge $-1 $331 $330 $323 $405 forward $210 $-1 #
coedge $-1 $323 $212 $214 $327 reversed $126 $-1 #
coedge $-1 $212 $322 $321 $405 reversed $126 $-1 #
coedge $-1 $220 $215 $212 $325 forward $221 $-1 #
edge $-1 $328 -21.793316765941768 $406 -19.225125911316262 $324 $407 forward 7 unknown #
coedge $-1 $214 $213 $331 $408 reversed $78 $-1 #
edge $-1 $409 3.6241593609816998e-014 $328 4.3692673367092798 $322 $410 forward 7 unknown #
vertex $-1 $216 $411 #
straight-curve $-1 -59.645621822763339 11.282482634331743 9.760868256787731 0 1 0 I I #
coedge $-1 $321 $217 $220 $335 reversed $210 $-1 #
coedge $-1 $217 $321 $326 $408 forward $210 $-1 #
vertex $-1 $218 $412 #
straight-curve $-1 -62.213812677388837 18.812122734664491 39.681389226212403 0 0 1 I I #
straight-curve $-1 -62.213812677388859 18.812122734664491 6.2260566926654803 -0.5877852410284794 0 -0.80901700255871778 I I #
edge $-1 $406 -26.317807802662479 $222 -18.812122734664491 $330 $413 forward 7 unknown #
point $-1 -62.213812677388837 18.812122734664491 9.7608682567877327 #
point $-1 -59.645621822763331 18.812122734664491 9.7608682567877327 #
edge $-1 $414 1 $414 0 $225 $-1 forward 7 unknown #
vertex $-1 $226 $415 #
ellipse-curve $-1 -58.835141688930143 22.564965268663485 6.4716642959903448 -0.80901700255871778 0 0.5877852410284794 0.5877852410284794 0 0.80901700255871778 1 I I #
point $-1 -60.341932009047596 22.564965268663485 8.8024794772853241 #
plane-surface $-1 62.213812677388837 0 0 -1 0 0 0 0 1 forward_v I I I I #
coedge $-1 $234 $232 $236 $347 reversed $141 $-1 #
edge $-1 $247 -9.7608682567877327 $349 9.7608682567877327 $246 $416 forward 7 unknown #
vertex $-1 $347 $417 #
straight-curve $-1 -62.213812677388837 -37.665681768632219 0 0 0 -1 I I #
edge $-1 $345 -37.665681768632219 $349 37.665681768632219 $343 $418 forward 7 unknown #
straight-curve $-1 0 -37.665681768632219 -9.7608682567877327 -1 0 0 I I #
vertex $-1 $239 $419 #
straight-curve $-1 0 37.665681768632219 -9.7608682567877327 1 0 0 I I #
point $-1 62.213812677388837 37.665681768632219 -9.7608682567877327 #
point $-1 62.213812677388837 -37.665681768632219 -9.7608682567877327 #
straight-curve $-1 -62.213812677388837 0 9.7608682567877327 0 -1 0 I I #
point $-1 -62.213812677388837 37.665681768632219 9.7608682567877327 #
point $-1 -62.213812677388837 -37.665681768632219 9.7608682567877327 #
straight-curve $-1 62.213812677388837 -37.665681768632219 0 0 0 -1 I I #
straight-curve $-1 62.213812677388837 37.665681768632219 0 0 0 -1 I I #
plane-surface $-1 62.213812677388837 0 0 -1 0 0 0 0 1 forward_v I I I I #
coedge $-1 $260 $259 $270 $370 reversed $95 $-1 #
coedge $-1 $420 $263 $260 $361 forward $257 $-1 #
edge $-1 $362 26.344742758800628 $421 37.665681768632219 $260 $422 forward 7 unknown #
vertex $-1 $361 $423 #
straight-curve $-1 -62.213812677388837 -26.344742758800628 3.5473146586166733 0 0 -1 I I #
coedge $-1 $263 $420 $265 $366 forward $257 $-1 #
straight-curve $-1 0 -26.344742758800628 9.7608682567877327 -1 0 0 I I #
edge $-1 $373 -37.665681768632219 $266 -26.344742758800628 $265 $424 forward 7 unknown #
point $-1 62.213812677388837 -26.344742758800628 9.7608682567877345 #
straight-curve $-1 -62.213812677388837 -16.002606131858212 4.4283903776789595 0 -1 0 I I #
coedge $-1 $270 $269 $420 $425 reversed $160 $-1 #
edge $-1 $421 -9.7608682567877327 $271 -4.4283903776789595 $359 $426 forward 7 unknown #
point $-1 -62.213812677388837 -37.665681768632219 4.4283903776789595 #
point $-1 -62.213812677388837 -26.344742758800628 4.4283903776789595 #
vertex $-1 $366 $427 #
straight-curve $-1 62.213812677388837 -37.665681768632219 0 0 0 -1 I I #
plane-surface $-1 -62.213812677388837 0 0 1 0 0 0 0 -1 forward_v I I I I #
coedge $-1 $428 $378 $284 $382 forward $279 $-1 #
coedge $-1 $281 $386 $428 $429 forward $177 $-1 #
coedge $-1 $376 $430 $282 $379 reversed $279 $-1 #
edge $-1 $380 -62.213812677388837 $391 62.213812677388837 $378 $431 forward 7 unknown #
vertex $-1 $283 $432 #
straight-curve $-1 62.213812677388837 43.339618751617088 2.3243545443382652 0 1 0 I I #
edge $-1 $380 -2.5177719838006412 $383 2.5177719838006412 $284 $433 forward 7 unknown #
vertex $-1 $285 $434 #
straight-curve $-1 62.213812677388837 43.339618751617088 -2.7111894232630172 0 -1 0 I I #
point $-1 62.213812677388837 37.665681768632219 -2.7111894232630172 #
coedge $-1 $377 $288 $291 $389 forward $177 $-1 #
straight-curve $-1 0 37.665681768632219 -2.7111894232630172 1 0 0 I I #
coedge $-1 $291 $290 $430 $435 forward $292 $-1 #
edge $-1 $293 -5.6739369829848698 $436 5.6739369829848698 $291 $437 forward 7 unknown #
point $-1 -62.213812677388837 37.665681768632219 -2.7111894232630172 #
vertex $-1 $379 $438 #
straight-curve $-1 -62.213812677388837 43.339618751617088 2.3243545443382652 0 -1 0 I I #
coedge $-1 $309 $308 $301 $394 forward $298 $-1 #
edge $-1 $395 80.252553219435342 $398 83.78736478355755 $393 $439 forward 7 unknown #
vertex $-1 $313 $440 #
straight-curve $-1 44.870577708825437 18.812122734664491 9.760868256787731 1 0 0 I I #
edge $-1 $398 7.5296401003327489 $310 15.035325168330736 $309 $441 forward 7 unknown #
vertex $-1 $397 $442 #
straight-curve $-1 -10.922909082370467 18.812122734664491 106.89012119268682 -0.5877852410284794 0 0.80901700255871778 I I #
point $-1 59.645621822763331 18.812122734664491 9.760868256787731 #
point $-1 62.21381267738883 26.317807802662479 6.226056692665523 #
straight-curve $-1 62.213812677388837 0 9.7608682567877327 0 1 0 I I #
vertex $-1 $316 $443 #
point $-1 59.422926929958628 22.564965268663485 5.662647293431629 #
edge $-1 $406 29.920520969424672 $409 33.455332533546894 $321 $444 forward 7 unknown #
vertex $-1 $335 $445 #
straight-curve $-1 -81.438938588705099 26.317807802662479 9.760868256787731 -1 0 0 I I #
edge $-1 $409 -15.035325168330736 $332 -7.5296401003327489 $331 $446 forward 7 unknown #
vertex $-1 $408 $447 #
straight-curve $-1 -62.213812677388859 26.317807802662479 6.2260566926654803 0.5877852410284794 0 0.80901700255871778 I I #
point $-1 -59.645621822763331 26.317807802662479 9.7608682567877327 #
point $-1 -62.213812677388837 18.812122734664491 6.2260566926655097 #
straight-curve $-1 -62.213812677388837 0 9.7608682567877327 0 -1 0 I I #
vertex $-1 $338 $448 #
point $-1 -58.247356447901666 22.564965268663485 7.2806812985490623 #
straight-curve $-1 -62.213812677388837 37.665681768632219 0 0 0 -1 I I #
point $-1 -62.213812677388837 -37.665681768632219 -9.7608682567877327 #
straight-curve $-1 -62.213812677388837 0 -9.7608682567877327 0 1 0 I I #
point $-1 -62.213812677388837 37.665681768632219 -9.7608682567877327 #
coedge $-1 $364 $360 $369 $425 forward $257 $-1 #
vertex $-1 $361 $449 #
straight-curve $-1 -62.213812677388837 0 9.7608682567877327 0 -1 0 I I #
point $-1 -62.213812677388837 -26.344742758800628 9.7608682567877345 #
straight-curve $-1 62.213812677388837 0 9.7608682567877327 0 1 0 I I #
edge $-1 $421 -62.213812677388837 $373 62.213812677388837 $369 $450 forward 7 unknown #
straight-curve $-1 -62.213812677388837 -37.665681768632219 0 0 0 -1 I I #
point $-1 62.213812677388837 -37.665681768632219 9.7608682567877327 #
coedge $-1 $430 $376 $377 $429 reversed $279 $-1 #
edge $-1 $436 -62.213812677388837 $383 62.213812677388837 $428 $451 forward 7 unknown #
coedge $-1 $378 $428 $388 $435 reversed $279 $-1 #
straight-curve $-1 0 49.013555734601958 2.3243545443382652 -1 0 0 I I #
point $-1 62.213812677388837 49.013555734601958 2.3243545443382652 #
straight-curve $-1 62.213812677388837 49.013555734601958 -0.193417439462376 0 0 -1 I I #
point $-1 62.213812677388837 49.013555734601958 -2.7111894232630172 #
edge $-1 $391 -2.5177719838006412 $436 2.5177719838006412 $430 $452 forward 7 unknown #
vertex $-1 $429 $453 #
straight-curve $-1 -62.213812677388837 43.339618751617088 -2.7111894232630172 0 1 0 I I #
point $-1 -62.213812677388837 49.013555734601958 2.3243545443382652 #
straight-curve $-1 62.213812677388837 18.812122734664491 90.013421476223073 0 0 -1 I I #
point $-1 62.213812677388837 18.812122734664491 9.7608682567877327 #
straight-curve $-1 62.21381267738883 11.282482634331743 6.226056692665523 0 1 0 I I #
point $-1 62.21381267738883 18.812122734664491 6.226056692665523 #
point $-1 58.026124686371432 22.564965268663485 5.8838790549618674 #
straight-curve $-1 -62.213812677388837 26.317807802662479 39.681389226212403 0 0 -1 I I #
point $-1 -62.213812677388837 26.317807802662479 9.7608682567877327 #
straight-curve $-1 -62.213812677388837 11.282482634331743 6.226056692665507 0 -1 0 I I #
point $-1 -62.213812677388837 26.317807802662479 6.2260566926655097 #
point $-1 -58.026124686371425 22.564965268663485 5.8838790549618656 #
point $-1 -62.213812677388837 -37.665681768632219 9.7608682567877327 #
straight-curve $-1 0 -37.665681768632219 9.7608682567877327 1 0 0 I I #
straight-curve $-1 0 49.013555734601958 -2.7111894232630172 1 0 0 I I #
straight-curve $-1 -62.213812677388837 49.013555734601958 -0.193417439462376 0 0 -1 I I #
point $-1 -62.213812677388837 49.013555734601958 -2.7111894232630172 #
End-of-ACIS-data 