500 0 7 0           
7 Unknown 11 ACIS 5.0 NT 24 Fri Mar 26 19:27:43 1999 
-1 9.9999999999999995e-007 1e-010 
body $-1 $7 $-1 $8 #
body $-1 $9 $-1 $10 #
body $-1 $11 $-1 $12 #
body $-1 $13 $-1 $14 #
body $-1 $15 $-1 $16 #
body $-1 $17 $-1 $18 #
body $-1 $19 $-1 $20 #
lump $-1 $-1 $21 $0 #
transform $-1 1 0 0 0 1 0 0 0 1 60.255745109408856 29.244457535002898 12.234173863896991 1 rotate no_reflect no_shear #
lump $-1 $-1 $22 $1 #
transform $-1 1 0 0 0 1 0 0 0 1 60.255745109408856 29.244457535002898 12.234173863896991 1 rotate no_reflect no_shear #
lump $-1 $-1 $23 $2 #
transform $-1 1 0 0 0 1 0 0 0 1 60.255745109408856 29.244457535002898 12.234173863896991 1 rotate no_reflect no_shear #
lump $-1 $-1 $24 $3 #
transform $-1 1 0 0 0 1 0 0 0 1 60.255745109408856 29.244457535002898 12.234173863896991 1 rotate no_reflect no_shear #
lump $-1 $-1 $25 $4 #
transform $-1 1 0 0 0 1 0 0 0 1 60.255745109408856 29.244457535002898 12.234173863896991 1 rotate no_reflect no_shear #
lump $-1 $-1 $26 $5 #
transform $-1 1 0 0 0 1 0 0 0 1 60.255745109408856 29.244457535002898 12.234173863896991 1 rotate no_reflect no_shear #
lump $-1 $-1 $27 $6 #
transform $-1 1 0 0 0 1 0 0 0 1 60.255745109408856 29.244457535002898 12.234173863896991 1 rotate no_reflect no_shear #
shell $-1 $-1 $-1 $28 $-1 $7 #
shell $-1 $-1 $-1 $29 $-1 $9 #
shell $-1 $-1 $-1 $30 $-1 $11 #
shell $-1 $-1 $-1 $31 $-1 $13 #
shell $-1 $-1 $-1 $32 $-1 $15 #
shell $-1 $-1 $-1 $33 $-1 $17 #
shell $-1 $-1 $-1 $34 $-1 $19 #
face $-1 $35 $36 $21 $-1 $37 forward single #
face $-1 $38 $39 $22 $-1 $40 reversed single #
face $-1 $41 $42 $23 $-1 $43 reversed single #
face $-1 $44 $45 $24 $-1 $46 forward single #
face $-1 $47 $48 $25 $-1 $49 forward single #
face $-1 $50 $51 $26 $-1 $52 reversed single #
face $-1 $53 $54 $27 $-1 $55 forward single #
face $-1 $56 $57 $21 $-1 $58 reversed single #
loop $-1 $-1 $59 $28 #
plane-surface $-1 0 0 12.234173863896991 0 0 1 1 0 0 forward_v I I I I #
face $-1 $60 $61 $22 $-1 $62 reversed single #
loop $-1 $-1 $63 $29 #
plane-surface $-1 -54.167362767036963 0 7.3880714972151296 0 0 1 1 0 0 forward_v I I I I #
face $-1 $64 $65 $23 $-1 $66 reversed single #
loop $-1 $-1 $67 $30 #
plane-surface $-1 -35.104403459628102 86.091210158754123 130.02984418637854 -1 0 0 0 0.77714596973225614 0.62932038083071107 forward_v I I I I #
face $-1 $68 $69 $24 $-1 $70 forward single #
loop $-1 $71 $72 $31 #
cone-surface $-1 -44.371958434654502 27.156876395014148 9.9414032123881064 0 -0.77714596973225614 -0.62932038083071107 0.5 0 0 1 I I 0 1 0.5 forward I I I I #
face $-1 $73 $74 $25 $-1 $75 forward single #
loop $-1 $76 $77 $32 #
cone-surface $-1 -38.811425449638655 27.156876395014148 9.9414032123881064 0 -0.77714596973225614 -0.62932038083071107 0.5 0 0 1 I I 0 1 0.5 forward I I I I #
face $-1 $78 $79 $26 $-1 $80 reversed single #
loop $-1 $-1 $81 $33 #
plane-surface $-1 52.825497141945384 -115.93316984040464 89.771044168266599 -1 0 0 0 -0.71933980857756763 0.69465836192734942 forward_v I I I I #
face $-1 $82 $83 $27 $-1 $84 forward single #
loop $-1 $85 $86 $34 #
cone-surface $-1 37.681217011170453 -25.642041024132673 8.5470411773574035 0 0.71933980857756763 -0.69465836192734942 1.5 0 0 1 I I 0 1 1.5 forward I I I I #
face $-1 $87 $88 $21 $-1 $89 reversed single #
loop $-1 $-1 $90 $35 #
plane-surface $-1 0 0 -12.234173863896991 0 0 1 1 0 0 forward_v I I I I #
coedge $-1 $91 $92 $93 $94 forward $36 $-1 #
face $-1 $95 $96 $22 $-1 $97 reversed single #
loop $-1 $-1 $98 $38 #
plane-surface $-1 -48.078980424665062 0 9.8111226805560605 -1 0 0 0 0 1 forward_v I I I I #
coedge $-1 $99 $100 $101 $102 forward $39 $-1 #
face $-1 $103 $104 $23 $-1 $105 forward single #
loop $-1 $-1 $106 $41 #
plane-surface $-1 -41.591691942146582 -7.5638087712282811 54.189507267395655 0 0.77714596973225614 0.62932038083071107 1 0 0 forward_v I I I I #
coedge $-1 $107 $108 $109 $110 reversed $42 $-1 #
face $-1 $-1 $111 $24 $-1 $112 forward single #
loop $-1 $113 $114 $44 #
cone-surface $-1 -44.371958434654502 26.291762823678543 9.2408480742558083 0 -0.77714596973225614 -0.62932038083071107 0.25 0 0 1 I I -0.70710678118654746 0.70710678118654746 0.25 forward I I I I #
loop $-1 $-1 $115 $31 #
coedge $-1 $72 $72 $116 $117 reversed $45 $-1 #
face $-1 $-1 $118 $25 $-1 $119 forward single #
loop $-1 $120 $121 $47 #
cone-surface $-1 -38.811425449638655 26.291762823678543 9.2408480742558083 0 -0.77714596973225614 -0.62932038083071107 0.25 0 0 1 I I -0.70710678118654746 0.70710678118654746 0.25 forward I I I I #
loop $-1 $-1 $122 $32 #
coedge $-1 $77 $77 $123 $124 reversed $48 $-1 #
face $-1 $125 $126 $26 $-1 $127 reversed single #
loop $-1 $-1 $128 $50 #
plane-surface $-1 37.681217011170453 -29.244457535002894 6.0567297794388821 0 -0.71933980857756763 0.69465836192734942 1 0 0 forward_v I I I I #
coedge $-1 $129 $130 $131 $132 reversed $51 $-1 #
face $-1 $-1 $133 $27 $-1 $134 forward single #
loop $-1 $135 $136 $53 #
cone-surface $-1 37.681217011170453 -24.482863790712926 7.4276367616013559 0 0.71933980857756763 -0.69465836192734942 0.75 0 0 1 I I -0.70710678118654757 0.70710678118654757 0.75 forward I I I I #
loop $-1 $-1 $137 $34 #
coedge $-1 $86 $86 $138 $139 reversed $54 $-1 #
face $-1 $140 $141 $21 $-1 $142 reversed single #
loop $-1 $-1 $143 $56 #
plane-surface $-1 0 -29.244457535002898 0 0 1 0 0 0 1 forward_v I I I I #
coedge $-1 $144 $145 $146 $147 forward $57 $-1 #
coedge $-1 $148 $59 $149 $150 forward $36 $-1 #
coedge $-1 $59 $148 $151 $152 forward $36 $-1 #
coedge $-1 $153 $154 $59 $94 reversed $155 $-1 #
edge $-1 $156 -29.244457535002898 $157 29.244457535002898 $93 $158 forward 7 unknown #
face $-1 $159 $160 $22 $-1 $161 reversed single #
loop $-1 $-1 $162 $60 #
plane-surface $-1 0 29.244457535002898 0 0 -1 0 0 0 -1 forward_v I I I I #
coedge $-1 $163 $164 $165 $166 reversed $61 $-1 #
coedge $-1 $167 $63 $168 $169 reversed $39 $-1 #
coedge $-1 $63 $167 $170 $171 reversed $39 $-1 #
coedge $-1 $164 $163 $63 $102 reversed $61 $-1 #
edge $-1 $172 -29.244457535002898 $173 29.244457535002898 $101 $174 forward 7 unknown #
face $-1 $175 $176 $23 $-1 $177 forward single #
loop $-1 $-1 $178 $64 #
plane-surface $-1 -48.078980424665062 0 9.8111226805560605 -1 0 0 0 0 1 forward_v I I I I #
coedge $-1 $179 $180 $181 $182 reversed $65 $-1 #
coedge $-1 $108 $67 $183 $184 reversed $42 $-1 #
coedge $-1 $67 $107 $179 $185 reversed $42 $-1 #
coedge $-1 $181 $186 $67 $110 forward $187 $-1 #
edge $-1 $188 52.780748229292278 $189 56.279839446460855 $109 $190 forward 7 unknown #
loop $-1 $-1 $116 $68 #
plane-surface $-1 -41.591691942146582 -7.5638087712282811 54.189507267395655 0 0.77714596973225614 0.62932038083071107 1 0 0 forward_v I I I I #
loop $-1 $-1 $191 $44 #
coedge $-1 $114 $114 $115 $192 reversed $69 $-1 #
coedge $-1 $115 $115 $114 $192 forward $71 $-1 #
coedge $-1 $116 $116 $72 $117 forward $111 $-1 #
edge $-1 $193 -3.5412067841146369e-015 $193 6.2831853071795969 $116 $194 forward 7 unknown #
loop $-1 $-1 $123 $73 #
plane-surface $-1 -41.591691942146582 -7.5638087712282811 54.189507267395655 0 0.77714596973225614 0.62932038083071107 1 0 0 forward_v I I I I #
loop $-1 $-1 $195 $47 #
coedge $-1 $121 $121 $122 $196 reversed $74 $-1 #
coedge $-1 $122 $122 $121 $196 forward $76 $-1 #
coedge $-1 $123 $123 $77 $124 forward $118 $-1 #
edge $-1 $197 -3.5412067841146369e-015 $197 6.2831853071795969 $123 $198 forward 7 unknown #
face $-1 $199 $200 $26 $-1 $201 reversed single #
loop $-1 $-1 $202 $78 #
plane-surface $-1 22.536936880395523 -115.93316984040464 89.771044168266599 1 0 0 0 0.71933980857756763 -0.69465836192734942 forward_v I I I I #
coedge $-1 $203 $204 $205 $206 reversed $79 $-1 #
coedge $-1 $130 $81 $207 $208 reversed $51 $-1 #
coedge $-1 $81 $129 $203 $209 reversed $51 $-1 #
coedge $-1 $205 $210 $81 $132 forward $211 $-1 #
edge $-1 $212 28.722127385199425 $213 34.687615652966741 $131 $214 forward 7 unknown #
loop $-1 $-1 $138 $82 #
plane-surface $-1 37.681217011170453 -29.244457535002894 6.0567297794388821 0 -0.71933980857756763 0.69465836192734942 1 0 0 forward_v I I I I #
loop $-1 $-1 $215 $53 #
coedge $-1 $136 $136 $137 $216 reversed $83 $-1 #
coedge $-1 $137 $137 $136 $216 forward $85 $-1 #
coedge $-1 $138 $138 $86 $139 forward $133 $-1 #
edge $-1 $217 9.1032686796429603e-016 $217 6.2831853071796013 $138 $218 forward 7 unknown #
face $-1 $219 $220 $21 $-1 $221 reversed single #
loop $-1 $-1 $222 $87 #
plane-surface $-1 -60.255745109408856 0 0 1 0 0 0 0 -1 forward_v I I I I #
coedge $-1 $223 $151 $224 $225 forward $88 $-1 #
coedge $-1 $226 $90 $223 $227 forward $57 $-1 #
coedge $-1 $90 $226 $228 $229 forward $57 $-1 #
coedge $-1 $154 $153 $90 $147 reversed $155 $-1 #
edge $-1 $230 -29.244457535002898 $231 29.244457535002898 $146 $232 forward 7 unknown #
coedge $-1 $92 $91 $233 $234 forward $36 $-1 #
coedge $-1 $235 $236 $91 $150 reversed $220 $-1 #
edge $-1 $157 -60.255745109408856 $237 60.255745109408856 $149 $238 forward 7 unknown #
coedge $-1 $143 $239 $92 $152 reversed $88 $-1 #
edge $-1 $240 -60.255745109408856 $156 60.255745109408856 $151 $241 forward 7 unknown #
coedge $-1 $146 $93 $239 $242 forward $155 $-1 #
coedge $-1 $93 $146 $235 $243 reversed $155 $-1 #
loop $-1 $-1 $153 $219 #
vertex $-1 $94 $244 #
vertex $-1 $94 $245 #
straight-curve $-1 60.255745109408856 0 12.234173863896991 0 1 0 I I #
face $-1 $246 $247 $22 $-1 $248 forward single #
loop $-1 $-1 $249 $95 #
plane-surface $-1 -60.255745109408856 0 0 1 0 0 0 0 -1 forward_v I I I I #
coedge $-1 $170 $250 $164 $251 forward $96 $-1 #
coedge $-1 $101 $98 $252 $253 reversed $61 $-1 #
coedge $-1 $98 $101 $162 $251 reversed $61 $-1 #
coedge $-1 $254 $255 $98 $166 forward $247 $-1 #
edge $-1 $256 -29.244457535002898 $257 29.244457535002898 $165 $258 forward 7 unknown #
coedge $-1 $100 $99 $249 $259 reversed $39 $-1 #
coedge $-1 $252 $260 $99 $169 forward $261 $-1 #
edge $-1 $262 -33.172063725890382 $173 -20.995299041146581 $168 $263 forward 7 unknown #
coedge $-1 $264 $162 $100 $171 forward $96 $-1 #
edge $-1 $172 20.995299041146581 $265 33.172063725890382 $170 $266 forward 7 unknown #
vertex $-1 $171 $267 #
vertex $-1 $169 $268 #
straight-curve $-1 -48.078980424665062 0 7.3880714972151296 0 -1 0 I I #
face $-1 $-1 $187 $23 $-1 $269 reversed single #
loop $-1 $-1 $270 $103 #
plane-surface $-1 0 0 12.234173863896991 0 0 1 1 0 0 forward_v I I I I #
coedge $-1 $271 $272 $180 $273 forward $104 $-1 #
coedge $-1 $274 $106 $108 $185 forward $65 $-1 #
coedge $-1 $106 $274 $178 $273 reversed $65 $-1 #
coedge $-1 $275 $109 $106 $182 forward $187 $-1 #
edge $-1 $189 14.308557488554811 $276 27.283134453591771 $181 $277 forward 7 unknown #
coedge $-1 $278 $270 $107 $184 forward $176 $-1 #
edge $-1 $279 -16.634655666546607 $188 -13.801147544374164 $183 $280 forward 7 unknown #
edge $-1 $189 -58.488915070005817 $279 -53.986426022325247 $108 $281 forward 7 unknown #
coedge $-1 $109 $275 $278 $282 reversed $187 $-1 #
loop $-1 $-1 $181 $175 #
vertex $-1 $282 $283 #
vertex $-1 $110 $284 #
straight-curve $-1 -35.104403459628102 29.244457535002898 65.01492209318927 0 0 -1 I I #
coedge $-1 $191 $191 $-1 $285 reversed $113 $-1 #
edge $-1 $286 0 $286 6.2831853071796004 $114 $287 forward 7 unknown #
vertex $-1 $117 $288 #
ellipse-curve $-1 -44.371958434654502 27.827703473916667 10.484628255312709 0 0.77714596973225614 0.62932038083071107 0.5 0 0 1 I I #
coedge $-1 $195 $195 $-1 $289 reversed $120 $-1 #
edge $-1 $290 0 $290 6.2831853071796004 $121 $291 forward 7 unknown #
vertex $-1 $124 $292 #
ellipse-curve $-1 -38.811425449638655 27.827703473916667 10.484628255312709 0 0.77714596973225614 0.62932038083071107 0.5 0 0 1 I I #
face $-1 $-1 $211 $26 $-1 $293 forward single #
loop $-1 $-1 $294 $125 #
plane-surface $-1 0 -29.244457535002898 0 0 1 0 0 0 1 forward_v I I I I #
coedge $-1 $295 $296 $297 $298 reversed $126 $-1 #
coedge $-1 $299 $128 $130 $209 forward $79 $-1 #
coedge $-1 $128 $299 $295 $300 forward $79 $-1 #
coedge $-1 $297 $131 $128 $206 forward $211 $-1 #
edge $-1 $213 -33.984888636360154 $301 -3.696328374810296 $205 $302 forward 7 unknown #
coedge $-1 $303 $304 $129 $208 forward $200 $-1 #
edge $-1 $305 -38.828792304694417 $212 -32.651348220236308 $207 $306 forward 7 unknown #
edge $-1 $213 -8.5876577533967868 $305 5.0235306421517022e-015 $130 $307 forward 7 unknown #
coedge $-1 $131 $297 $303 $308 forward $211 $-1 #
loop $-1 $-1 $297 $199 #
vertex $-1 $208 $309 #
vertex $-1 $132 $310 #
straight-curve $-1 52.825497141945384 -57.966584920202322 12.234173863896991 0 1 0 I I #
coedge $-1 $215 $215 $-1 $311 reversed $135 $-1 #
edge $-1 $312 0 $312 6.2831853071796004 $136 $313 forward 7 unknown #
vertex $-1 $139 $314 #
ellipse-curve $-1 37.681217011170453 -26.261713401119241 9.1454518216679332 0 -0.71933980857756763 0.69465836192734942 1.5 0 0 1 I I #
face $-1 $-1 $155 $21 $-1 $315 reversed single #
loop $-1 $-1 $235 $140 #
plane-surface $-1 0 29.244457535002898 0 0 -1 0 0 0 -1 forward_v I I I I #
coedge $-1 $316 $233 $236 $317 forward $141 $-1 #
coedge $-1 $239 $143 $144 $227 reversed $88 $-1 #
coedge $-1 $233 $316 $143 $225 reversed $141 $-1 #
edge $-1 $240 -12.234173863896991 $318 12.234173863896991 $224 $319 forward 7 unknown #
coedge $-1 $145 $144 $316 $320 forward $57 $-1 #
edge $-1 $231 -60.255745109408856 $318 60.255745109408856 $223 $321 forward 7 unknown #
coedge $-1 $236 $235 $145 $229 reversed $220 $-1 #
edge $-1 $322 -60.255745109408856 $230 60.255745109408856 $228 $323 forward 7 unknown #
vertex $-1 $147 $324 #
vertex $-1 $242 $325 #
straight-curve $-1 60.255745109408856 0 -12.234173863896991 0 -1 0 I I #
coedge $-1 $222 $224 $148 $234 reversed $141 $-1 #
edge $-1 $237 -29.244457535002898 $240 29.244457535002898 $233 $326 forward 7 unknown #
coedge $-1 $228 $149 $154 $243 forward $220 $-1 #
coedge $-1 $149 $228 $222 $317 reversed $220 $-1 #
vertex $-1 $150 $327 #
straight-curve $-1 0 29.244457535002898 12.234173863896991 -1 0 0 I I #
coedge $-1 $151 $223 $153 $242 reversed $88 $-1 #
vertex $-1 $234 $328 #
straight-curve $-1 0 -29.244457535002898 12.234173863896991 1 0 0 I I #
edge $-1 $156 -12.234173863896991 $231 12.234173863896991 $153 $329 forward 7 unknown #
edge $-1 $157 -12.234173863896991 $230 12.234173863896991 $154 $330 forward 7 unknown #
point $-1 60.255745109408856 -29.244457535002898 12.234173863896991 #
point $-1 60.255745109408856 29.244457535002898 12.234173863896991 #
face $-1 $-1 $261 $22 $-1 $331 reversed single #
loop $-1 $-1 $165 $159 #
plane-surface $-1 0 0 12.234173863896991 0 0 1 1 0 0 forward_v I I I I #
coedge $-1 $332 $333 $167 $259 forward $160 $-1 #
coedge $-1 $162 $264 $254 $334 reversed $96 $-1 #
edge $-1 $257 -7.3286125236189612 $172 -2.4825101569370993 $162 $335 forward 7 unknown #
coedge $-1 $336 $168 $163 $253 forward $261 $-1 #
edge $-1 $173 2.4825101569370993 $256 7.3286125236189612 $252 $337 forward 7 unknown #
coedge $-1 $338 $165 $250 $334 forward $247 $-1 #
coedge $-1 $165 $338 $336 $339 forward $247 $-1 #
vertex $-1 $253 $340 #
vertex $-1 $334 $341 #
straight-curve $-1 -48.078980424665062 0 12.234173863896991 0 1 0 I I #
edge $-1 $265 -29.244457535002898 $262 29.244457535002898 $249 $342 forward 7 unknown #
coedge $-1 $168 $336 $332 $343 forward $261 $-1 #
loop $-1 $-1 $252 $246 #
vertex $-1 $259 $344 #
straight-curve $-1 -27.083681383518481 -29.244457535002898 7.3880714972151296 1 0 0 I I #
coedge $-1 $250 $170 $333 $345 reversed $96 $-1 #
vertex $-1 $259 $346 #
straight-curve $-1 -27.083681383518481 29.244457535002898 7.3880714972151296 -1 0 0 I I #
point $-1 -48.078980424665062 29.244457535002898 7.3880714972151296 #
point $-1 -48.078980424665062 -29.244457535002898 7.3880714972151296 #
plane-surface $-1 0 29.244457535002898 0 0 -1 0 0 0 -1 forward_v I I I I #
coedge $-1 $183 $347 $274 $348 forward $176 $-1 #
coedge $-1 $272 $178 $347 $349 reversed $104 $-1 #
coedge $-1 $178 $271 $275 $350 reversed $104 $-1 #
edge $-1 $276 -38.86464419934056 $351 -34.362155151659991 $178 $352 forward 7 unknown #
coedge $-1 $180 $179 $270 $348 reversed $65 $-1 #
coedge $-1 $186 $181 $272 $350 forward $187 $-1 #
vertex $-1 $350 $353 #
straight-curve $-1 -20.795845971073291 29.244457535002898 8.7350826467284186 -1 0 0 I I #
coedge $-1 $347 $183 $186 $282 forward $176 $-1 #
vertex $-1 $184 $354 #
straight-curve $-1 -35.104403459628102 43.045605079377061 12.234173863896991 0 1 0 I I #
straight-curve $-1 -35.104403459628102 -7.5638087712282811 54.189507267395655 0 -0.62932038083071107 0.77714596973225614 I I #
edge $-1 $188 35.104403459628102 $355 48.078980424665062 $186 $356 forward 7 unknown #
point $-1 -35.104403459628102 29.244457535002898 12.234173863896991 #
point $-1 -35.104403459628102 29.244457535002894 8.7350826467284151 #
edge $-1 $357 1 $357 0 $191 $-1 forward 7 unknown #
vertex $-1 $192 $358 #
ellipse-curve $-1 -44.371958434654502 26.486049316111608 9.3981781694634865 0 0.77714596973225614 0.62932038083071107 0.5 0 0 1 I I #
point $-1 -43.871958434654502 27.827703473916689 10.484628255312728 #
edge $-1 $359 1 $359 0 $195 $-1 forward 7 unknown #
vertex $-1 $196 $360 #
ellipse-curve $-1 -38.811425449638655 26.486049316111608 9.3981781694634865 0 0.77714596973225614 0.62932038083071107 0.5 0 0 1 I I #
point $-1 -38.311425449638655 27.827703473916689 10.484628255312728 #
plane-surface $-1 0 0 12.234173863896991 0 0 1 1 0 0 forward_v I I I I #
coedge $-1 $304 $303 $296 $361 forward $200 $-1 #
coedge $-1 $296 $202 $204 $300 reversed $126 $-1 #
coedge $-1 $202 $295 $294 $361 reversed $126 $-1 #
coedge $-1 $210 $205 $202 $298 forward $211 $-1 #
edge $-1 $301 -34.687615652966741 $362 -28.722127385199425 $297 $363 forward 7 unknown #
coedge $-1 $204 $203 $304 $364 reversed $79 $-1 #
edge $-1 $365 -5.0235306421517022e-015 $301 8.5876577533967868 $295 $366 forward 7 unknown #
vertex $-1 $206 $367 #
straight-curve $-1 18.840608505585227 -23.278969267235581 12.234173863896991 -1 0 0 I I #
coedge $-1 $294 $207 $210 $308 reversed $200 $-1 #
coedge $-1 $207 $294 $299 $364 forward $200 $-1 #
vertex $-1 $208 $368 #
straight-curve $-1 52.825497141945384 -29.244457535002894 44.885522084133299 0 0 1 I I #
straight-curve $-1 52.825497141945384 -29.244457535002894 6.0567297794388821 0 -0.69465836192734942 -0.71933980857756763 I I #
edge $-1 $362 22.536936880395523 $212 52.825497141945384 $303 $369 forward 7 unknown #
point $-1 52.825497141945384 -29.244457535002898 12.234173863896991 #
point $-1 52.825497141945384 -23.278969267235581 12.234173863896991 #
edge $-1 $370 1 $370 0 $215 $-1 forward 7 unknown #
vertex $-1 $216 $371 #
ellipse-curve $-1 37.681217011170453 -25.022368647146102 7.9486305330468676 0 -0.71933980857756763 0.69465836192734942 1.5 0 0 1 I I #
point $-1 39.181217011170453 -26.261713401119245 9.1454518216679386 #
plane-surface $-1 60.255745109408856 0 0 -1 0 0 0 0 1 forward_v I I I I #
coedge $-1 $224 $222 $226 $320 reversed $141 $-1 #
edge $-1 $237 -12.234173863896991 $322 12.234173863896991 $236 $372 forward 7 unknown #
vertex $-1 $320 $373 #
straight-curve $-1 -60.255745109408856 -29.244457535002898 0 0 0 -1 I I #
edge $-1 $318 -29.244457535002898 $322 29.244457535002898 $316 $374 forward 7 unknown #
straight-curve $-1 0 -29.244457535002898 -12.234173863896991 -1 0 0 I I #
vertex $-1 $229 $375 #
straight-curve $-1 0 29.244457535002898 -12.234173863896991 1 0 0 I I #
point $-1 60.255745109408856 29.244457535002898 -12.234173863896991 #
point $-1 60.255745109408856 -29.244457535002898 -12.234173863896991 #
straight-curve $-1 -60.255745109408856 0 12.234173863896991 0 -1 0 I I #
point $-1 -60.255745109408856 29.244457535002898 12.234173863896991 #
point $-1 -60.255745109408856 -29.244457535002898 12.234173863896991 #
straight-curve $-1 60.255745109408856 -29.244457535002898 0 0 0 -1 I I #
straight-curve $-1 60.255745109408856 29.244457535002898 0 0 0 -1 I I #
plane-surface $-1 0 -29.244457535002898 0 0 1 0 0 0 1 forward_v I I I I #
coedge $-1 $376 $249 $260 $343 reversed $160 $-1 #
coedge $-1 $249 $376 $264 $345 forward $160 $-1 #
edge $-1 $257 48.078980424665062 $377 60.255745109408856 $250 $378 forward 7 unknown #
straight-curve $-1 -48.078980424665062 29.244457535002898 4.9055613402780303 0 0 -1 I I #
coedge $-1 $260 $252 $255 $339 reversed $261 $-1 #
straight-curve $-1 -48.078980424665062 -29.244457535002898 4.9055613402780303 0 0 1 I I #
coedge $-1 $255 $254 $376 $379 forward $247 $-1 #
edge $-1 $380 -60.255745109408856 $256 -48.078980424665062 $336 $381 forward 7 unknown #
point $-1 -48.078980424665062 -29.244457535002898 12.234173863896991 #
point $-1 -48.078980424665062 29.244457535002898 12.234173863896991 #
straight-curve $-1 -60.255745109408856 0 7.3880714972151296 0 -1 0 I I #
edge $-1 $380 -12.234173863896991 $262 -7.3880714972151296 $332 $382 forward 7 unknown #
point $-1 -60.255745109408863 -29.244457535002898 7.3880714972151296 #
edge $-1 $377 -12.234173863896991 $265 -7.3880714972151296 $264 $383 forward 7 unknown #
point $-1 -60.255745109408863 29.244457535002898 7.3880714972151296 #
coedge $-1 $270 $278 $271 $349 forward $176 $-1 #
edge $-1 $351 -27.283134453591771 $279 -14.308557488554811 $270 $384 forward 7 unknown #
edge $-1 $355 -29.244457535002898 $351 -26.410949412830458 $347 $385 forward 7 unknown #
edge $-1 $276 3.8295213064503884 $355 7.3286125236189612 $275 $386 forward 7 unknown #
vertex $-1 $273 $387 #
straight-curve $-1 -48.078980424665062 4.7861448466238112 38.938584251324038 0 -0.62932038083071107 0.77714596973225614 I I #
point $-1 -48.078980424665062 29.244457535002898 8.7350826467284186 #
point $-1 -35.104403459628102 26.410949412830455 12.234173863896991 #
vertex $-1 $349 $388 #
straight-curve $-1 0 29.244457535002898 12.234173863896991 -1 0 0 I I #
vertex $-1 $285 $389 #
point $-1 -43.871958434654502 26.486049316111608 9.3981781694634865 #
vertex $-1 $289 $390 #
point $-1 -38.311425449638655 26.486049316111608 9.3981781694634865 #
edge $-1 $362 32.651348220236308 $365 38.828792304694417 $294 $391 forward 7 unknown #
vertex $-1 $308 $392 #
straight-curve $-1 22.536936880395523 -57.966584920202322 12.234173863896991 0 -1 0 I I #
edge $-1 $365 3.696328374810296 $305 33.984888636360154 $304 $393 forward 7 unknown #
vertex $-1 $364 $394 #
straight-curve $-1 22.536936880395523 -29.244457535002894 6.0567297794388821 0 0.69465836192734942 0.71933980857756763 I I #
point $-1 22.536936880395523 -23.278969267235581 12.234173863896991 #
point $-1 52.825497141945384 -29.244457535002898 6.0567297794388786 #
straight-curve $-1 0 -29.244457535002898 12.234173863896991 1 0 0 I I #
vertex $-1 $311 $395 #
point $-1 39.181217011170453 -25.022368647146102 7.9486305330468676 #
straight-curve $-1 -60.255745109408856 29.244457535002898 0 0 0 -1 I I #
point $-1 -60.255745109408856 -29.244457535002898 -12.234173863896991 #
straight-curve $-1 -60.255745109408856 0 -12.234173863896991 0 1 0 I I #
point $-1 -60.255745109408856 29.244457535002898 -12.234173863896991 #
coedge $-1 $333 $332 $338 $379 reversed $160 $-1 #
vertex $-1 $334 $396 #
straight-curve $-1 0 29.244457535002898 12.234173863896991 -1 0 0 I I #
edge $-1 $377 -29.244457535002898 $380 29.244457535002898 $376 $397 forward 7 unknown #
vertex $-1 $379 $398 #
straight-curve $-1 0 -29.244457535002898 12.234173863896991 1 0 0 I I #
straight-curve $-1 -60.255745109408856 -29.244457535002898 0 0 0 -1 I I #
straight-curve $-1 -60.255745109408856 29.244457535002898 0 0 0 -1 I I #
straight-curve $-1 -20.795845971073291 26.410949412830458 12.234173863896991 1 0 0 I I #
straight-curve $-1 -48.078980424665062 0 12.234173863896991 0 -1 0 I I #
straight-curve $-1 -48.078980424665062 29.244457535002898 4.9055613402780303 0 0 1 I I #
point $-1 -48.078980424665062 26.410949412830458 12.234173863896991 #
point $-1 -48.078980424665062 29.244457535002898 12.234173863896991 #
point $-1 -44.371958434654502 26.097476331245478 9.0835179790481302 #
point $-1 -38.811425449638655 26.097476331245478 9.0835179790481302 #
straight-curve $-1 22.536936880395523 -29.244457535002894 44.885522084133299 0 0 -1 I I #
point $-1 22.536936880395523 -29.244457535002898 12.234173863896991 #
straight-curve $-1 18.840608505585227 -29.244457535002898 6.0567297794388777 1 0 0 I I #
point $-1 22.536936880395523 -29.244457535002898 6.0567297794388786 #
point $-1 37.681217011170453 -23.94335893427975 6.9066429901558442 #
point $-1 -60.255745109408856 29.244457535002898 12.234173863896991 #
straight-curve $-1 -60.255745109408856 0 12.234173863896991 0 -1 0 I I #
point $-1 -60.255745109408856 -29.244457535002898 12.234173863896991 #
End-of-ACIS-data 