500 0 4 0           
7 Unknown 11 ACIS 5.0 NT 24 Thu Mar 25 22:28:50 1999 
-1 9.9999999999999995e-007 1e-010 
body $-1 $4 $-1 $5 #
body $-1 $6 $-1 $7 #
body $-1 $8 $-1 $9 #
body $-1 $10 $-1 $11 #
lump $-1 $-1 $12 $0 #
transform $-1 1 0 0 0 1 0 0 0 1 46.51509140293588 28.890830323626528 7.7752280686626225 1 rotate no_reflect no_shear #
lump $-1 $-1 $13 $1 #
transform $-1 1 0 0 0 1 0 0 0 1 46.51509140293588 28.890830323626528 7.7752280686626225 1 rotate no_reflect no_shear #
lump $-1 $-1 $14 $2 #
transform $-1 1 0 0 0 1 0 0 0 1 46.51509140293588 28.890830323626528 7.7752280686626225 1 rotate no_reflect no_shear #
lump $-1 $-1 $15 $3 #
transform $-1 1 0 0 0 1 0 0 0 1 46.51509140293588 28.890830323626528 7.7752280686626225 1 rotate no_reflect no_shear #
shell $-1 $-1 $-1 $16 $-1 $4 #
shell $-1 $-1 $-1 $17 $-1 $6 #
shell $-1 $-1 $-1 $18 $-1 $8 #
shell $-1 $-1 $-1 $19 $-1 $10 #
face $-1 $20 $21 $12 $-1 $22 forward single #
face $-1 $23 $24 $13 $-1 $25 forward single #
face $-1 $26 $27 $14 $-1 $28 forward single #
face $-1 $29 $30 $15 $-1 $31 reversed single #
face $-1 $32 $33 $12 $-1 $34 reversed single #
loop $-1 $-1 $35 $16 #
plane-surface $-1 0 0 7.7752280686626225 0 0 1 1 0 0 forward_v I I I I #
face $-1 $36 $37 $13 $-1 $38 reversed single #
loop $-1 $-1 $39 $17 #
plane-surface $-1 0 -33.23175531708781 -3.9554073220664385 0 0 1 1 0 0 forward_v I I I I #
face $-1 $40 $41 $14 $-1 $42 forward single #
loop $-1 $-1 $43 $18 #
plane-surface $-1 -35.420006366555796 34.918786595674234 112.16945121381772 -1 0 0 0 0.57357644374324357 0.81915203911291934 forward_v I I I I #
face $-1 $44 $45 $15 $-1 $46 reversed single #
loop $-1 $47 $48 $19 #
cone-surface $-1 -40.967548884745838 25.040507884811827 4.8514204814723891 0 -0.57357644374324357 -0.81915203911291934 1 0 0 1 I I 0 1 1 forward I I I I #
face $-1 $49 $50 $12 $-1 $51 reversed single #
loop $-1 $-1 $52 $20 #
plane-surface $-1 0 0 -7.7752280686626225 0 0 1 1 0 0 forward_v I I I I #
coedge $-1 $53 $54 $55 $56 forward $21 $-1 #
face $-1 $57 $58 $13 $-1 $59 forward single #
loop $-1 $-1 $60 $23 #
plane-surface $-1 0 -37.572680310549089 -5.8653176953645305 0 1 0 0 0 1 forward_v I I I I #
coedge $-1 $61 $62 $63 $64 forward $24 $-1 #
face $-1 $65 $66 $14 $-1 $67 reversed single #
loop $-1 $-1 $68 $26 #
plane-surface $-1 -40.967548884745838 -18.441134818901531 35.963587269340223 0 0.57357644374324357 0.81915203911291934 1 0 0 forward_v I I I I #
coedge $-1 $69 $70 $71 $72 reversed $27 $-1 #
face $-1 $73 $74 $15 $-1 $75 forward single #
loop $-1 $76 $77 $29 #
cone-surface $-1 -40.967548884745838 24.440805679104205 3.9949569882020537 0 -0.57357644374324357 -0.81915203911291934 0.5 0 0 1 I I -0.70710678118654746 0.70710678118654746 0.5 forward I I I I #
loop $-1 $-1 $78 $19 #
coedge $-1 $48 $48 $79 $80 reversed $30 $-1 #
face $-1 $81 $82 $12 $-1 $83 reversed single #
loop $-1 $-1 $84 $32 #
plane-surface $-1 0 -28.890830323626528 0 0 1 0 0 0 1 forward_v I I I I #
coedge $-1 $85 $86 $87 $88 forward $33 $-1 #
coedge $-1 $89 $35 $90 $91 forward $21 $-1 #
coedge $-1 $35 $89 $92 $93 forward $21 $-1 #
coedge $-1 $94 $95 $35 $56 reversed $96 $-1 #
edge $-1 $97 -28.890830323626528 $98 28.890830323626528 $55 $99 forward 7 unknown #
face $-1 $100 $101 $13 $-1 $102 reversed single #
loop $-1 $-1 $103 $36 #
plane-surface $-1 0 0 7.7752280686626225 0 0 1 1 0 0 forward_v I I I I #
coedge $-1 $104 $105 $106 $107 forward $37 $-1 #
coedge $-1 $108 $39 $109 $110 reversed $24 $-1 #
coedge $-1 $39 $108 $105 $111 forward $24 $-1 #
coedge $-1 $112 $113 $39 $64 reversed $114 $-1 #
edge $-1 $115 -4.3409249934612788 $116 4.3409249934612788 $63 $117 forward 7 unknown #
face $-1 $118 $119 $14 $-1 $120 forward single #
loop $-1 $-1 $121 $40 #
plane-surface $-1 0 28.890830323626528 0 0 -1 0 0 0 -1 forward_v I I I I #
coedge $-1 $122 $123 $121 $124 reversed $41 $-1 #
coedge $-1 $70 $43 $123 $125 forward $27 $-1 #
coedge $-1 $43 $69 $126 $127 reversed $27 $-1 #
coedge $-1 $128 $121 $43 $72 forward $66 $-1 #
edge $-1 $129 -53.263337765198969 $130 -48.309497538246241 $71 $131 forward 7 unknown #
face $-1 $132 $133 $15 $-1 $134 forward single #
loop $-1 $-1 $135 $44 #
plane-surface $-1 -35.420006366555796 34.918786595674234 112.16945121381772 -1 0 0 0 0.57357644374324357 0.81915203911291934 forward_v I I I I #
loop $-1 $-1 $136 $29 #
coedge $-1 $77 $77 $78 $137 forward $45 $-1 #
coedge $-1 $78 $78 $77 $137 reversed $47 $-1 #
coedge $-1 $79 $79 $48 $80 forward $133 $-1 #
edge $-1 $138 -3.6302155746833221e-016 $138 6.2831853071796004 $79 $139 forward 7 unknown #
face $-1 $140 $141 $12 $-1 $142 reversed single #
loop $-1 $-1 $143 $49 #
plane-surface $-1 -46.51509140293588 0 0 1 0 0 0 0 -1 forward_v I I I I #
coedge $-1 $144 $92 $145 $146 forward $50 $-1 #
coedge $-1 $147 $52 $144 $148 forward $33 $-1 #
coedge $-1 $52 $147 $149 $150 forward $33 $-1 #
coedge $-1 $95 $94 $52 $88 reversed $96 $-1 #
edge $-1 $151 -28.890830323626528 $152 28.890830323626528 $87 $153 forward 7 unknown #
coedge $-1 $54 $53 $154 $155 forward $21 $-1 #
coedge $-1 $156 $157 $53 $91 reversed $141 $-1 #
edge $-1 $98 -46.51509140293588 $158 46.51509140293588 $90 $159 forward 7 unknown #
coedge $-1 $84 $160 $54 $93 reversed $50 $-1 #
edge $-1 $161 -46.51509140293588 $97 46.51509140293588 $92 $162 forward 7 unknown #
coedge $-1 $87 $55 $160 $163 forward $96 $-1 #
coedge $-1 $55 $87 $156 $164 reversed $96 $-1 #
loop $-1 $-1 $94 $140 #
vertex $-1 $56 $165 #
vertex $-1 $56 $166 #
straight-curve $-1 46.51509140293588 0 7.7752280686626225 0 1 0 I I #
face $-1 $167 $168 $13 $-1 $169 reversed single #
loop $-1 $-1 $170 $57 #
plane-surface $-1 0 0 -7.7752280686626225 0 0 1 1 0 0 forward_v I I I I #
coedge $-1 $171 $172 $173 $174 forward $58 $-1 #
coedge $-1 $175 $60 $176 $177 reversed $37 $-1 #
coedge $-1 $60 $175 $62 $111 reversed $37 $-1 #
coedge $-1 $178 $179 $60 $107 reversed $180 $-1 #
edge $-1 $181 -1.909910373298092 $182 1.909910373298092 $106 $183 forward 7 unknown #
coedge $-1 $62 $61 $178 $184 forward $24 $-1 #
coedge $-1 $185 $186 $61 $110 forward $168 $-1 #
edge $-1 $187 -46.51509140293588 $116 46.51509140293588 $109 $188 forward 7 unknown #
edge $-1 $181 -46.51509140293588 $115 46.51509140293588 $105 $189 forward 7 unknown #
coedge $-1 $190 $63 $175 $191 forward $114 $-1 #
coedge $-1 $63 $173 $185 $192 forward $114 $-1 #
loop $-1 $-1 $113 $193 #
vertex $-1 $64 $194 #
vertex $-1 $64 $195 #
straight-curve $-1 46.51509140293588 -33.23175531708781 -3.9554073220664385 0 1 0 I I #
face $-1 $196 $197 $14 $-1 $198 forward single #
loop $-1 $-1 $126 $65 #
plane-surface $-1 0 0 7.7752280686626225 0 0 1 1 0 0 forward_v I I I I #
coedge $-1 $71 $199 $68 $124 forward $66 $-1 #
coedge $-1 $200 $68 $201 $202 reversed $41 $-1 #
coedge $-1 $68 $200 $69 $125 reversed $41 $-1 #
edge $-1 $203 -26.031316960562961 $129 -14.936231924182877 $121 $204 forward 7 unknown #
edge $-1 $129 -57.781660647253048 $205 -49.144903888863098 $69 $206 forward 7 unknown #
coedge $-1 $207 $208 $70 $127 forward $119 $-1 #
edge $-1 $130 -11.43143702578941 $205 -4.3566201158320013 $126 $209 forward 7 unknown #
coedge $-1 $210 $71 $208 $211 reversed $66 $-1 #
vertex $-1 $124 $212 #
vertex $-1 $127 $213 #
straight-curve $-1 -35.420006366555796 28.890830323626528 56.084725606908862 0 0 1 I I #
face $-1 $214 $215 $15 $-1 $216 reversed single #
loop $-1 $217 $79 $73 #
plane-surface $-1 -40.967548884745838 -18.441134818901531 35.963587269340223 0 0.57357644374324357 0.81915203911291934 1 0 0 forward_v I I I I #
coedge $-1 $218 $219 $220 $221 reversed $74 $-1 #
coedge $-1 $136 $136 $-1 $222 forward $76 $-1 #
edge $-1 $223 0 $223 6.2831853071796004 $77 $224 forward 7 unknown #
vertex $-1 $80 $225 #
ellipse-curve $-1 -40.967548884745838 25.353421868647825 5.2983079551862602 0 -0.57357644374324357 -0.81915203911291934 1 0 0 1 I I #
face $-1 $-1 $96 $12 $-1 $226 reversed single #
loop $-1 $-1 $156 $81 #
plane-surface $-1 0 28.890830323626528 0 0 -1 0 0 0 -1 forward_v I I I I #
coedge $-1 $227 $154 $157 $228 forward $82 $-1 #
coedge $-1 $160 $84 $85 $148 reversed $50 $-1 #
coedge $-1 $154 $227 $84 $146 reversed $82 $-1 #
edge $-1 $161 -7.7752280686626225 $229 7.7752280686626225 $145 $230 forward 7 unknown #
coedge $-1 $86 $85 $227 $231 forward $33 $-1 #
edge $-1 $152 -46.51509140293588 $229 46.51509140293588 $144 $232 forward 7 unknown #
coedge $-1 $157 $156 $86 $150 reversed $141 $-1 #
edge $-1 $233 -46.51509140293588 $151 46.51509140293588 $149 $234 forward 7 unknown #
vertex $-1 $88 $235 #
vertex $-1 $163 $236 #
straight-curve $-1 46.51509140293588 0 -7.7752280686626225 0 -1 0 I I #
coedge $-1 $143 $145 $89 $155 reversed $82 $-1 #
edge $-1 $158 -28.890830323626528 $161 28.890830323626528 $154 $237 forward 7 unknown #
coedge $-1 $149 $90 $95 $164 forward $141 $-1 #
coedge $-1 $90 $149 $143 $228 reversed $141 $-1 #
vertex $-1 $91 $238 #
straight-curve $-1 0 28.890830323626528 7.7752280686626225 -1 0 0 I I #
coedge $-1 $92 $144 $94 $163 reversed $50 $-1 #
vertex $-1 $155 $239 #
straight-curve $-1 0 -28.890830323626528 7.7752280686626225 1 0 0 I I #
edge $-1 $97 -7.7752280686626225 $152 7.7752280686626225 $94 $240 forward 7 unknown #
edge $-1 $98 -7.7752280686626225 $151 7.7752280686626225 $95 $241 forward 7 unknown #
point $-1 46.51509140293588 -28.890830323626528 7.7752280686626225 #
point $-1 46.51509140293588 28.890830323626528 7.7752280686626225 #
face $-1 $242 $180 $13 $-1 $243 reversed single #
loop $-1 $-1 $109 $100 #
plane-surface $-1 0 -28.890830323626528 0 0 1 0 0 0 1 forward_v I I I I #
coedge $-1 $176 $244 $190 $245 forward $101 $-1 #
coedge $-1 $246 $103 $247 $248 forward $58 $-1 #
coedge $-1 $103 $246 $249 $250 forward $58 $-1 #
coedge $-1 $113 $251 $103 $174 reversed $114 $-1 #
edge $-1 $252 -28.890830323626528 $253 28.890830323626528 $173 $254 forward 7 unknown #
coedge $-1 $105 $104 $112 $191 reversed $37 $-1 #
coedge $-1 $255 $170 $104 $177 forward $101 $-1 #
edge $-1 $256 -46.51509140293588 $182 46.51509140293588 $104 $257 forward 7 unknown #
coedge $-1 $258 $106 $108 $184 reversed $180 $-1 #
coedge $-1 $106 $259 $255 $260 reversed $180 $-1 #
loop $-1 $-1 $259 $167 #
vertex $-1 $184 $261 #
vertex $-1 $260 $262 #
straight-curve $-1 -46.51509140293588 -37.572680310549089 -5.8653176953645305 0 0 -1 I I #
edge $-1 $187 -4.3409249934612788 $181 4.3409249934612788 $178 $263 forward 7 unknown #
coedge $-1 $249 $109 $113 $192 reversed $168 $-1 #
coedge $-1 $109 $249 $258 $264 forward $168 $-1 #
vertex $-1 $264 $265 #
straight-curve $-1 0 -28.890830323626528 -3.9554073220664385 1 0 0 I I #
straight-curve $-1 0 -37.572680310549089 -3.9554073220664385 1 0 0 I I #
coedge $-1 $251 $112 $170 $245 reversed $114 $-1 #
edge $-1 $115 -1.909910373298092 $256 1.909910373298092 $112 $266 forward 7 unknown #
edge $-1 $252 -7.7752280686626225 $116 3.9554073220664385 $113 $267 forward 7 unknown #
face $-1 $-1 $114 $13 $-1 $268 reversed single #
point $-1 46.51509140293588 -37.572680310549089 -3.9554073220664385 #
point $-1 46.51509140293588 -28.890830323626531 -3.9554073220664385 #
face $-1 $269 $270 $14 $-1 $271 reversed single #
loop $-1 $-1 $272 $118 #
plane-surface $-1 0 -33.23175531708781 -3.9554073220664385 0 0 1 1 0 0 forward_v I I I I #
coedge $-1 $121 $273 $274 $275 reversed $66 $-1 #
coedge $-1 $123 $122 $207 $276 reversed $41 $-1 #
coedge $-1 $274 $277 $122 $202 forward $278 $-1 #
edge $-1 $279 31.277924048534402 $203 39.914680806924352 $201 $280 forward 7 unknown #
vertex $-1 $275 $281 #
straight-curve $-1 -20.483774442372919 28.890830323626531 2.8213878417098925 1 0 0 I I #
vertex $-1 $276 $282 #
straight-curve $-1 -35.420006366555796 -18.441134818901531 35.963587269340223 0 -0.81915203911291934 0.57357644374324357 I I #
coedge $-1 $283 $126 $200 $276 forward $119 $-1 #
coedge $-1 $126 $284 $128 $211 forward $119 $-1 #
straight-curve $-1 -35.420006366555796 17.459393297837117 7.7752280686626207 0 -1 0 I I #
coedge $-1 $273 $128 $285 $286 forward $66 $-1 #
edge $-1 $287 -46.51509140293588 $130 35.420006366555796 $128 $288 forward 7 unknown #
point $-1 -35.420006366555796 28.890830323626531 2.8213878417098925 #
point $-1 -35.420006366555796 28.890830323626528 7.7752280686626225 #
face $-1 $289 $290 $15 $-1 $291 forward single #
loop $-1 $-1 $292 $132 #
plane-surface $-1 0 28.890830323626528 0 0 -1 0 0 0 -1 forward_v I I I I #
loop $-1 $-1 $293 $73 #
coedge $-1 $219 $135 $294 $295 forward $74 $-1 #
coedge $-1 $135 $218 $296 $297 reversed $74 $-1 #
coedge $-1 $298 $292 $135 $221 forward $215 $-1 #
edge $-1 $299 -53.263337765198969 $300 -48.309497538246241 $220 $301 forward 7 unknown #
edge $-1 $302 1 $302 0 $136 $-1 forward 7 unknown #
vertex $-1 $137 $303 #
ellipse-curve $-1 -40.967548884745838 24.727593900975826 4.4045330077585136 0 0.57357644374324357 0.81915203911291934 1 0 0 1 I I #
point $-1 -39.967548884745838 25.353421868647828 5.2983079551862646 #
plane-surface $-1 46.51509140293588 0 0 -1 0 0 0 0 1 forward_v I I I I #
coedge $-1 $145 $143 $147 $231 reversed $82 $-1 #
edge $-1 $158 -7.7752280686626225 $233 7.7752280686626225 $157 $304 forward 7 unknown #
vertex $-1 $231 $305 #
straight-curve $-1 -46.51509140293588 -28.890830323626528 0 0 0 -1 I I #
edge $-1 $229 -28.890830323626528 $233 28.890830323626528 $227 $306 forward 7 unknown #
straight-curve $-1 0 -28.890830323626528 -7.7752280686626225 -1 0 0 I I #
vertex $-1 $150 $307 #
straight-curve $-1 0 28.890830323626528 -7.7752280686626225 1 0 0 I I #
point $-1 46.51509140293588 28.890830323626528 -7.7752280686626225 #
point $-1 46.51509140293588 -28.890830323626528 -7.7752280686626225 #
straight-curve $-1 -46.51509140293588 0 7.7752280686626225 0 -1 0 I I #
point $-1 -46.51509140293588 28.890830323626528 7.7752280686626225 #
point $-1 -46.51509140293588 -28.890830323626528 7.7752280686626225 #
straight-curve $-1 46.51509140293588 -28.890830323626528 0 0 0 -1 I I #
straight-curve $-1 46.51509140293588 28.890830323626528 0 0 0 -1 I I #
face $-1 $193 $308 $13 $-1 $309 reversed single #
plane-surface $-1 -46.51509140293588 0 0 1 0 0 0 0 -1 forward_v I I I I #
coedge $-1 $170 $255 $310 $311 forward $101 $-1 #
edge $-1 $312 -28.890830323626528 $256 37.572680310549089 $190 $313 forward 7 unknown #
coedge $-1 $172 $171 $314 $315 forward $58 $-1 #
coedge $-1 $316 $317 $171 $248 reversed $308 $-1 #
edge $-1 $253 -46.51509140293588 $318 46.51509140293588 $247 $319 forward 7 unknown #
coedge $-1 $186 $185 $172 $250 reversed $168 $-1 #
edge $-1 $320 -46.51509140293588 $252 46.51509140293588 $249 $321 forward 7 unknown #
coedge $-1 $173 $190 $316 $322 reversed $114 $-1 #
vertex $-1 $174 $323 #
vertex $-1 $174 $324 #
straight-curve $-1 46.51509140293588 0 7.7752280686626225 0 1 0 I I #
coedge $-1 $244 $176 $179 $260 forward $101 $-1 #
vertex $-1 $191 $325 #
straight-curve $-1 0 -37.572680310549089 -7.7752280686626225 -1 0 0 I I #
coedge $-1 $314 $178 $186 $264 reversed $180 $-1 #
coedge $-1 $179 $314 $317 $326 forward $180 $-1 #
edge $-1 $182 -37.572680310549089 $327 28.890830323626528 $179 $328 forward 7 unknown #
point $-1 -46.51509140293588 -37.572680310549089 -3.9554073220664385 #
point $-1 -46.51509140293588 -37.572680310549089 -7.7752280686626225 #
straight-curve $-1 -46.51509140293588 -33.23175531708781 -3.9554073220664385 0 -1 0 I I #
edge $-1 $320 -7.7752280686626225 $187 3.9554073220664385 $258 $329 forward 7 unknown #
point $-1 -46.51509140293588 -28.890830323626531 -3.9554073220664385 #
straight-curve $-1 46.51509140293588 -37.572680310549089 -5.8653176953645305 0 0 -1 I I #
straight-curve $-1 46.51509140293588 -28.890830323626528 0 0 0 -1 I I #
plane-surface $-1 46.51509140293588 0 0 -1 0 0 0 0 1 forward_v I I I I #
face $-1 $330 $331 $14 $-1 $332 reversed single #
loop $-1 $-1 $333 $196 #
plane-surface $-1 0 -37.572680310549089 -5.8653176953645305 0 1 0 0 0 1 forward_v I I I I #
coedge $-1 $334 $335 $336 $337 forward $197 $-1 #
coedge $-1 $199 $210 $338 $339 reversed $66 $-1 #
coedge $-1 $340 $201 $199 $275 forward $278 $-1 #
edge $-1 $203 -2.821387841709893 $341 7.7752280686626225 $199 $342 forward 7 unknown #
edge $-1 $205 14.936231924182877 $279 26.031316960562961 $207 $343 forward 7 unknown #
coedge $-1 $201 $344 $283 $345 reversed $278 $-1 #
loop $-1 $-1 $201 $346 #
vertex $-1 $345 $347 #
straight-curve $-1 -46.51509140293588 -3.8053618499068547 25.715508512092264 0 0.81915203911291934 -0.57357644374324357 I I #
point $-1 -46.51509140293588 28.890830323626528 2.821387841709893 #
point $-1 -35.420006366555796 21.816013413669118 7.7752280686626243 #
coedge $-1 $348 $207 $277 $345 forward $119 $-1 #
coedge $-1 $208 $348 $349 $350 forward $119 $-1 #
coedge $-1 $349 $351 $210 $286 reversed $352 $-1 #
edge $-1 $287 -7.7752280686626225 $353 7.7752280686626225 $285 $354 forward 7 unknown #
vertex $-1 $350 $355 #
straight-curve $-1 0 28.890830323626528 7.7752280686626225 -1 0 0 I I #
face $-1 $356 $357 $15 $-1 $358 forward single #
loop $-1 $-1 $296 $214 #
plane-surface $-1 0 0 7.7752280686626225 0 0 1 1 0 0 forward_v I I I I #
coedge $-1 $220 $359 $293 $360 forward $215 $-1 #
coedge $-1 $361 $294 $292 $360 reversed $217 $-1 #
coedge $-1 $293 $362 $218 $295 reversed $217 $-1 #
edge $-1 $299 -57.781660647253048 $363 -49.144903888863098 $218 $364 forward 7 unknown #
coedge $-1 $365 $366 $219 $297 forward $290 $-1 #
edge $-1 $300 -11.43143702578941 $363 -4.3566201158320013 $296 $367 forward 7 unknown #
coedge $-1 $368 $220 $366 $369 reversed $215 $-1 #
vertex $-1 $360 $370 #
vertex $-1 $297 $371 #
straight-curve $-1 -35.420006366555796 28.890830323626528 56.084725606908862 0 0 1 I I #
vertex $-1 $222 $372 #
point $-1 -39.967548884745838 24.727593900975826 4.4045330077585136 #
straight-curve $-1 -46.51509140293588 28.890830323626528 0 0 0 -1 I I #
point $-1 -46.51509140293588 -28.890830323626528 -7.7752280686626225 #
straight-curve $-1 -46.51509140293588 0 -7.7752280686626225 0 1 0 I I #
point $-1 -46.51509140293588 28.890830323626528 -7.7752280686626225 #
loop $-1 $-1 $316 $242 #
plane-surface $-1 0 28.890830323626528 0 0 -1 0 0 0 -1 forward_v I I I I #
coedge $-1 $317 $316 $244 $311 reversed $308 $-1 #
edge $-1 $327 -46.51509140293588 $312 46.51509140293588 $310 $373 forward 7 unknown #
vertex $-1 $245 $374 #
straight-curve $-1 46.51509140293588 0 -7.7752280686626225 0 -1 0 I I #
coedge $-1 $259 $258 $246 $315 reversed $180 $-1 #
edge $-1 $318 -28.890830323626528 $320 28.890830323626528 $314 $375 forward 7 unknown #
coedge $-1 $310 $247 $251 $322 forward $308 $-1 #
coedge $-1 $247 $310 $259 $326 reversed $308 $-1 #
vertex $-1 $248 $376 #
straight-curve $-1 0 28.890830323626528 7.7752280686626225 -1 0 0 I I #
vertex $-1 $315 $377 #
straight-curve $-1 0 -28.890830323626528 7.7752280686626225 1 0 0 I I #
edge $-1 $253 -7.7752280686626225 $312 7.7752280686626225 $251 $378 forward 7 unknown #
point $-1 46.51509140293588 -28.890830323626528 7.7752280686626225 #
point $-1 46.51509140293588 28.890830323626528 7.7752280686626225 #
point $-1 46.51509140293588 -37.572680310549089 -7.7752280686626225 #
edge $-1 $318 -7.7752280686626225 $327 7.7752280686626225 $317 $379 forward 7 unknown #
vertex $-1 $311 $380 #
straight-curve $-1 -46.51509140293588 0 -7.7752280686626225 0 1 0 I I #
straight-curve $-1 -46.51509140293588 -28.890830323626528 0 0 0 -1 I I #
face $-1 $346 $381 $14 $-1 $382 reversed single #
loop $-1 $-1 $383 $269 #
plane-surface $-1 0 0 -7.7752280686626225 0 0 1 1 0 0 forward_v I I I I #
coedge $-1 $384 $385 $386 $387 forward $270 $-1 #
coedge $-1 $388 $272 $389 $390 reversed $197 $-1 #
coedge $-1 $272 $388 $385 $391 forward $197 $-1 #
coedge $-1 $392 $393 $272 $337 reversed $352 $-1 #
edge $-1 $394 -4.3409249934612788 $395 4.3409249934612788 $336 $396 forward 7 unknown #
coedge $-1 $383 $397 $273 $339 forward $331 $-1 #
edge $-1 $341 -46.51509140293588 $353 46.51509140293588 $273 $398 forward 7 unknown #
coedge $-1 $386 $274 $397 $399 reversed $278 $-1 #
vertex $-1 $339 $400 #
straight-curve $-1 -46.51509140293588 28.890830323626528 0 0 0 -1 I I #
straight-curve $-1 -20.483774442372919 21.816013413669125 7.7752280686626243 -1 0 0 I I #
coedge $-1 $277 $401 $402 $403 reversed $278 $-1 #
edge $-1 $279 -21.816013413669118 $404 28.890830323626528 $277 $405 forward 7 unknown #
face $-1 $406 $278 $14 $-1 $407 reversed single #
point $-1 -46.51509140293588 21.816013413669118 7.7752280686626243 #
coedge $-1 $284 $283 $408 $409 forward $119 $-1 #
coedge $-1 $393 $285 $284 $350 reversed $352 $-1 #
edge $-1 $410 -28.890830323626528 $287 28.890830323626528 $349 $411 forward 7 unknown #
coedge $-1 $285 $392 $383 $412 reversed $352 $-1 #
loop $-1 $-1 $393 $406 #
vertex $-1 $412 $413 #
straight-curve $-1 46.51509140293588 28.890830323626528 0 0 0 -1 I I #
point $-1 46.51509140293588 28.890830323626528 7.7752280686626225 #
face $-1 $414 $415 $15 $-1 $416 reversed single #
loop $-1 $-1 $417 $289 #
plane-surface $-1 0 -33.23175531708781 -3.9554073220664385 0 0 1 1 0 0 forward_v I I I I #
coedge $-1 $292 $418 $419 $420 reversed $215 $-1 #
edge $-1 $421 -26.031316960562961 $299 -14.936231924182877 $292 $422 forward 7 unknown #
coedge $-1 $362 $293 $423 $424 reversed $217 $-1 #
coedge $-1 $294 $361 $365 $425 reversed $217 $-1 #
vertex $-1 $425 $426 #
straight-curve $-1 -35.420006366555796 -18.441134818901531 35.963587269340223 0 -0.81915203911291934 0.57357644374324357 I I #
coedge $-1 $427 $296 $362 $425 forward $290 $-1 #
coedge $-1 $296 $428 $298 $369 forward $290 $-1 #
straight-curve $-1 -35.420006366555796 17.459393297837117 7.7752280686626207 0 -1 0 I I #
coedge $-1 $418 $298 $429 $430 forward $215 $-1 #
edge $-1 $431 -46.51509140293588 $300 35.420006366555796 $298 $432 forward 7 unknown #
point $-1 -35.420006366555796 28.890830323626531 2.8213878417098925 #
point $-1 -35.420006366555796 28.890830323626528 7.7752280686626225 #
point $-1 -40.967548884745838 24.154017457232584 3.5853809686455942 #
straight-curve $-1 0 28.890830323626528 -7.7752280686626225 1 0 0 I I #
point $-1 46.51509140293588 28.890830323626528 -7.7752280686626225 #
straight-curve $-1 -46.51509140293588 0 7.7752280686626225 0 -1 0 I I #
point $-1 -46.51509140293588 28.890830323626528 7.7752280686626225 #
point $-1 -46.51509140293588 -28.890830323626528 7.7752280686626225 #
straight-curve $-1 46.51509140293588 28.890830323626528 0 0 0 -1 I I #
straight-curve $-1 -46.51509140293588 28.890830323626528 0 0 0 -1 I I #
point $-1 -46.51509140293588 28.890830323626528 -7.7752280686626225 #
loop $-1 $-1 $389 $330 #
plane-surface $-1 0 -28.890830323626528 0 0 1 0 0 0 1 forward_v I I I I #
coedge $-1 $433 $338 $351 $412 forward $331 $-1 #
coedge $-1 $434 $333 $433 $435 reversed $270 $-1 #
coedge $-1 $333 $434 $335 $391 reversed $270 $-1 #
coedge $-1 $401 $340 $333 $387 reversed $278 $-1 #
edge $-1 $436 -1.909910373298092 $437 1.909910373298092 $386 $438 forward 7 unknown #
coedge $-1 $335 $334 $401 $439 forward $197 $-1 #
coedge $-1 $440 $402 $334 $390 forward $381 $-1 #
edge $-1 $441 -46.51509140293588 $395 46.51509140293588 $389 $442 forward 7 unknown #
edge $-1 $436 -46.51509140293588 $394 46.51509140293588 $385 $443 forward 7 unknown #
coedge $-1 $351 $336 $434 $444 forward $352 $-1 #
coedge $-1 $336 $349 $440 $445 forward $352 $-1 #
vertex $-1 $337 $446 #
vertex $-1 $337 $447 #
straight-curve $-1 46.51509140293588 -33.23175531708781 -3.9554073220664385 0 1 0 I I #
coedge $-1 $338 $433 $340 $399 forward $331 $-1 #
straight-curve $-1 0 28.890830323626528 -7.7752280686626225 1 0 0 I I #
edge $-1 $437 -37.572680310549089 $341 28.890830323626528 $340 $448 forward 7 unknown #
point $-1 -46.51509140293588 28.890830323626528 -7.7752280686626225 #
coedge $-1 $344 $386 $388 $439 reversed $278 $-1 #
coedge $-1 $389 $408 $344 $403 forward $381 $-1 #
edge $-1 $404 -7.7752280686626225 $441 3.9554073220664385 $344 $449 forward 7 unknown #
vertex $-1 $345 $450 #
straight-curve $-1 -46.51509140293588 0 7.7752280686626225 0 -1 0 I I #
face $-1 $-1 $352 $14 $-1 $451 reversed single #
plane-surface $-1 -46.51509140293588 0 0 1 0 0 0 0 -1 forward_v I I I I #
coedge $-1 $402 $440 $348 $409 reversed $381 $-1 #
edge $-1 $404 -46.51509140293588 $410 46.51509140293588 $408 $452 forward 7 unknown #
vertex $-1 $350 $453 #
straight-curve $-1 46.51509140293588 0 7.7752280686626225 0 1 0 I I #
edge $-1 $353 -28.890830323626528 $454 37.572680310549089 $351 $455 forward 7 unknown #
point $-1 46.51509140293588 28.890830323626528 -7.7752280686626225 #
face $-1 $456 $457 $15 $-1 $458 reversed single #
loop $-1 $-1 $459 $356 #
plane-surface $-1 0 -37.572680310549089 -5.8653176953645305 0 1 0 0 0 1 forward_v I I I I #
coedge $-1 $460 $461 $462 $463 forward $357 $-1 #
coedge $-1 $359 $368 $464 $465 reversed $215 $-1 #
coedge $-1 $466 $423 $359 $420 forward $467 $-1 #
edge $-1 $421 -2.821387841709893 $468 7.7752280686626225 $359 $469 forward 7 unknown #
vertex $-1 $420 $470 #
straight-curve $-1 -20.483774442372919 28.890830323626531 2.8213878417098925 1 0 0 I I #
coedge $-1 $419 $471 $361 $424 forward $467 $-1 #
edge $-1 $472 31.277924048534402 $421 39.914680806924352 $423 $473 forward 7 unknown #
edge $-1 $363 14.936231924182877 $472 26.031316960562961 $365 $474 forward 7 unknown #
point $-1 -35.420006366555796 21.816013413669118 7.7752280686626243 #
coedge $-1 $475 $365 $471 $476 forward $290 $-1 #
coedge $-1 $366 $475 $477 $478 forward $290 $-1 #
coedge $-1 $477 $479 $368 $430 reversed $480 $-1 #
edge $-1 $431 -7.7752280686626225 $481 7.7752280686626225 $429 $482 forward 7 unknown #
vertex $-1 $478 $483 #
straight-curve $-1 0 28.890830323626528 7.7752280686626225 -1 0 0 I I #
coedge $-1 $397 $383 $384 $435 forward $331 $-1 #
coedge $-1 $385 $384 $392 $444 reversed $270 $-1 #
edge $-1 $454 -46.51509140293588 $437 46.51509140293588 $384 $484 forward 7 unknown #
vertex $-1 $439 $485 #
vertex $-1 $399 $486 #
straight-curve $-1 -46.51509140293588 -37.572680310549089 -5.8653176953645305 0 0 -1 I I #
edge $-1 $441 -4.3409249934612788 $436 4.3409249934612788 $401 $487 forward 7 unknown #
coedge $-1 $408 $389 $393 $445 reversed $381 $-1 #
vertex $-1 $403 $488 #
straight-curve $-1 0 -28.890830323626528 -3.9554073220664385 1 0 0 I I #
straight-curve $-1 0 -37.572680310549089 -3.9554073220664385 1 0 0 I I #
edge $-1 $394 -1.909910373298092 $454 1.909910373298092 $392 $489 forward 7 unknown #
edge $-1 $410 -7.7752280686626225 $395 3.9554073220664385 $393 $490 forward 7 unknown #
point $-1 46.51509140293588 -37.572680310549089 -3.9554073220664385 #
point $-1 46.51509140293588 -28.890830323626531 -3.9554073220664385 #
straight-curve $-1 -46.51509140293588 0 -7.7752280686626225 0 1 0 I I #
straight-curve $-1 -46.51509140293588 -28.890830323626528 0 0 0 -1 I I #
point $-1 -46.51509140293588 -28.890830323626528 7.7752280686626225 #
plane-surface $-1 46.51509140293588 0 0 -1 0 0 0 0 1 forward_v I I I I #
straight-curve $-1 0 -28.890830323626528 7.7752280686626225 1 0 0 I I #
point $-1 46.51509140293588 -28.890830323626528 7.7752280686626225 #
vertex $-1 $444 $491 #
straight-curve $-1 46.51509140293588 0 -7.7752280686626225 0 -1 0 I I #
face $-1 $492 $493 $15 $-1 $494 reversed single #
loop $-1 $-1 $495 $414 #
plane-surface $-1 0 0 -7.7752280686626225 0 0 1 1 0 0 forward_v I I I I #
coedge $-1 $496 $497 $498 $499 forward $415 $-1 #
coedge $-1 $500 $417 $501 $502 reversed $357 $-1 #
coedge $-1 $417 $500 $497 $503 forward $357 $-1 #
coedge $-1 $504 $505 $417 $463 reversed $480 $-1 #
edge $-1 $506 -4.3409249934612788 $507 4.3409249934612788 $462 $508 forward 7 unknown #
coedge $-1 $495 $509 $418 $465 forward $457 $-1 #
edge $-1 $468 -46.51509140293588 $481 46.51509140293588 $418 $510 forward 7 unknown #
coedge $-1 $498 $419 $509 $511 reversed $467 $-1 #
loop $-1 $-1 $423 $492 #
vertex $-1 $465 $512 #
straight-curve $-1 -46.51509140293588 28.890830323626528 0 0 0 -1 I I #
point $-1 -46.51509140293588 28.890830323626528 2.821387841709893 #
coedge $-1 $423 $513 $427 $476 reversed $467 $-1 #
vertex $-1 $476 $514 #
straight-curve $-1 -46.51509140293588 -3.8053618499068547 25.715508512092264 0 0.81915203911291934 -0.57357644374324357 I I #
straight-curve $-1 -20.483774442372919 21.816013413669125 7.7752280686626243 -1 0 0 I I #
coedge $-1 $428 $427 $515 $516 forward $290 $-1 #
edge $-1 $472 -21.816013413669118 $517 28.890830323626528 $471 $518 forward 7 unknown #
coedge $-1 $505 $429 $428 $478 reversed $480 $-1 #
edge $-1 $519 -28.890830323626528 $431 28.890830323626528 $477 $520 forward 7 unknown #
coedge $-1 $429 $504 $495 $521 reversed $480 $-1 #
loop $-1 $-1 $505 $522 #
vertex $-1 $521 $523 #
straight-curve $-1 46.51509140293588 28.890830323626528 0 0 0 -1 I I #
point $-1 46.51509140293588 28.890830323626528 7.7752280686626225 #
straight-curve $-1 0 -37.572680310549089 -7.7752280686626225 -1 0 0 I I #
point $-1 -46.51509140293588 -37.572680310549089 -3.9554073220664385 #
point $-1 -46.51509140293588 -37.572680310549089 -7.7752280686626225 #
straight-curve $-1 -46.51509140293588 -33.23175531708781 -3.9554073220664385 0 -1 0 I I #
point $-1 -46.51509140293588 -28.890830323626531 -3.9554073220664385 #
straight-curve $-1 46.51509140293588 -37.572680310549089 -5.8653176953645305 0 0 -1 I I #
straight-curve $-1 46.51509140293588 -28.890830323626528 0 0 0 -1 I I #
point $-1 46.51509140293588 -37.572680310549089 -7.7752280686626225 #
face $-1 $522 $467 $15 $-1 $524 reversed single #
loop $-1 $-1 $501 $456 #
plane-surface $-1 0 -28.890830323626528 0 0 1 0 0 0 1 forward_v I I I I #
coedge $-1 $525 $464 $479 $521 forward $457 $-1 #
coedge $-1 $526 $459 $525 $527 reversed $415 $-1 #
coedge $-1 $459 $526 $461 $503 reversed $415 $-1 #
coedge $-1 $528 $466 $459 $499 reversed $467 $-1 #
edge $-1 $529 -1.909910373298092 $530 1.909910373298092 $498 $531 forward 7 unknown #
coedge $-1 $461 $460 $528 $532 forward $357 $-1 #
coedge $-1 $533 $534 $460 $502 forward $493 $-1 #
edge $-1 $535 -46.51509140293588 $507 46.51509140293588 $501 $536 forward 7 unknown #
edge $-1 $529 -46.51509140293588 $506 46.51509140293588 $497 $537 forward 7 unknown #
coedge $-1 $479 $462 $526 $538 forward $480 $-1 #
coedge $-1 $462 $477 $533 $539 forward $480 $-1 #
vertex $-1 $463 $540 #
vertex $-1 $463 $541 #
straight-curve $-1 46.51509140293588 -33.23175531708781 -3.9554073220664385 0 1 0 I I #
coedge $-1 $464 $525 $466 $511 forward $457 $-1 #
straight-curve $-1 0 28.890830323626528 -7.7752280686626225 1 0 0 I I #
edge $-1 $530 -37.572680310549089 $468 28.890830323626528 $466 $542 forward 7 unknown #
point $-1 -46.51509140293588 28.890830323626528 -7.7752280686626225 #
coedge $-1 $471 $528 $534 $543 reversed $467 $-1 #
point $-1 -46.51509140293588 21.816013413669118 7.7752280686626243 #
coedge $-1 $534 $533 $475 $516 reversed $493 $-1 #
edge $-1 $517 -46.51509140293588 $519 46.51509140293588 $515 $544 forward 7 unknown #
vertex $-1 $476 $545 #
straight-curve $-1 -46.51509140293588 0 7.7752280686626225 0 -1 0 I I #
vertex $-1 $478 $546 #
straight-curve $-1 46.51509140293588 0 7.7752280686626225 0 1 0 I I #
edge $-1 $481 -28.890830323626528 $547 37.572680310549089 $479 $548 forward 7 unknown #
face $-1 $-1 $480 $15 $-1 $549 reversed single #
point $-1 46.51509140293588 28.890830323626528 -7.7752280686626225 #
plane-surface $-1 -46.51509140293588 0 0 1 0 0 0 0 -1 forward_v I I I I #
coedge $-1 $509 $495 $496 $527 forward $457 $-1 #
coedge $-1 $497 $496 $504 $538 reversed $415 $-1 #
edge $-1 $547 -46.51509140293588 $530 46.51509140293588 $496 $550 forward 7 unknown #
coedge $-1 $513 $498 $500 $532 reversed $467 $-1 #
vertex $-1 $532 $551 #
vertex $-1 $511 $552 #
straight-curve $-1 -46.51509140293588 -37.572680310549089 -5.8653176953645305 0 0 -1 I I #
edge $-1 $535 -4.3409249934612788 $529 4.3409249934612788 $528 $553 forward 7 unknown #
coedge $-1 $515 $501 $505 $539 reversed $493 $-1 #
coedge $-1 $501 $515 $513 $543 forward $493 $-1 #
vertex $-1 $543 $554 #
straight-curve $-1 0 -28.890830323626528 -3.9554073220664385 1 0 0 I I #
straight-curve $-1 0 -37.572680310549089 -3.9554073220664385 1 0 0 I I #
edge $-1 $506 -1.909910373298092 $547 1.909910373298092 $504 $555 forward 7 unknown #
edge $-1 $519 -7.7752280686626225 $507 3.9554073220664385 $505 $556 forward 7 unknown #
point $-1 46.51509140293588 -37.572680310549089 -3.9554073220664385 #
point $-1 46.51509140293588 -28.890830323626531 -3.9554073220664385 #
straight-curve $-1 -46.51509140293588 0 -7.7752280686626225 0 1 0 I I #
edge $-1 $517 -7.7752280686626225 $535 3.9554073220664385 $513 $557 forward 7 unknown #
straight-curve $-1 0 -28.890830323626528 7.7752280686626225 1 0 0 I I #
point $-1 -46.51509140293588 -28.890830323626528 7.7752280686626225 #
point $-1 46.51509140293588 -28.890830323626528 7.7752280686626225 #
vertex $-1 $538 $558 #
straight-curve $-1 46.51509140293588 0 -7.7752280686626225 0 -1 0 I I #
plane-surface $-1 46.51509140293588 0 0 -1 0 0 0 0 1 forward_v I I I I #
straight-curve $-1 0 -37.572680310549089 -7.7752280686626225 -1 0 0 I I #
point $-1 -46.51509140293588 -37.572680310549089 -3.9554073220664385 #
point $-1 -46.51509140293588 -37.572680310549089 -7.7752280686626225 #
straight-curve $-1 -46.51509140293588 -33.23175531708781 -3.9554073220664385 0 -1 0 I I #
point $-1 -46.51509140293588 -28.890830323626531 -3.9554073220664385 #
straight-curve $-1 46.51509140293588 -37.572680310549089 -5.8653176953645305 0 0 -1 I I #
straight-curve $-1 46.51509140293588 -28.890830323626528 0 0 0 -1 I I #
straight-curve $-1 -46.51509140293588 -28.890830323626528 0 0 0 -1 I I #
point $-1 46.51509140293588 -37.572680310549089 -7.7752280686626225 #
End-of-ACIS-data 