500 0 7 0           
7 Unknown 11 ACIS 5.0 NT 24 Thu Mar 25 17:17:32 1999 
-1 9.9999999999999995e-007 1e-010 
body $-1 $7 $-1 $8 #
body $-1 $9 $-1 $10 #
body $-1 $11 $-1 $12 #
body $-1 $13 $-1 $14 #
body $-1 $15 $-1 $16 #
body $-1 $17 $-1 $18 #
body $-1 $19 $-1 $20 #
lump $-1 $-1 $21 $0 #
transform $-1 1 0 0 0 1 0 0 0 1 44.436170537430954 27.523113361777892 11.126504374384432 1 rotate no_reflect no_shear #
lump $-1 $-1 $22 $1 #
transform $-1 1 0 0 0 1 0 0 0 1 44.436170537430954 27.523113361777892 11.126504374384432 1 rotate no_reflect no_shear #
lump $-1 $-1 $23 $2 #
transform $-1 1 0 0 0 1 0 0 0 1 44.436170537430954 27.523113361777892 11.126504374384432 1 rotate no_reflect no_shear #
lump $-1 $-1 $24 $3 #
transform $-1 1 0 0 0 1 0 0 0 1 44.436170537430954 27.523113361777892 11.126504374384432 1 rotate no_reflect no_shear #
lump $-1 $-1 $25 $4 #
transform $-1 1 0 0 0 1 0 0 0 1 44.436170537430954 27.523113361777892 11.126504374384432 1 rotate no_reflect no_shear #
lump $-1 $-1 $26 $5 #
transform $-1 1 0 0 0 1 0 0 0 1 44.436170537430954 27.523113361777892 11.126504374384432 1 rotate no_reflect no_shear #
lump $-1 $-1 $27 $6 #
transform $-1 1 0 0 0 1 0 0 0 1 44.436170537430954 27.523113361777892 11.126504374384432 1 rotate no_reflect no_shear #
shell $-1 $-1 $-1 $28 $-1 $7 #
shell $-1 $-1 $-1 $29 $-1 $9 #
shell $-1 $-1 $-1 $30 $-1 $11 #
shell $-1 $-1 $-1 $31 $-1 $13 #
shell $-1 $-1 $-1 $32 $-1 $15 #
shell $-1 $-1 $-1 $33 $-1 $17 #
shell $-1 $-1 $-1 $34 $-1 $19 #
face $-1 $35 $36 $21 $-1 $37 forward single #
face $-1 $38 $39 $22 $-1 $40 reversed single #
face $-1 $41 $42 $23 $-1 $43 forward single #
face $-1 $44 $45 $24 $-1 $46 forward single #
face $-1 $47 $48 $25 $-1 $49 reversed single #
face $-1 $50 $51 $26 $-1 $52 forward single #
face $-1 $53 $54 $27 $-1 $55 forward single #
face $-1 $56 $57 $21 $-1 $58 reversed single #
loop $-1 $-1 $59 $28 #
plane-surface $-1 0 0 11.126504374384432 0 0 1 1 0 0 forward_v I I I I #
face $-1 $60 $61 $22 $-1 $62 reversed single #
loop $-1 $-1 $63 $29 #
plane-surface $-1 -22.405637451867022 -94.595921324427209 62.993859311795298 -1 0 0 0 -0.75470958851134928 0.65605901945558964 forward_v I I I I #
face $-1 $64 $65 $23 $-1 $66 forward single #
loop $-1 $67 $68 $30 #
cone-surface $-1 -38.141732512984113 -24.339998603637934 7.5729147525514939 0 0.75470958851134928 -0.65605901945558964 1 0 0 1 I I 0 1 1 forward I I I I #
face $-1 $69 $70 $24 $-1 $71 forward single #
loop $-1 $72 $73 $31 #
cone-surface $-1 -28.700075476313859 -24.339998603637934 7.5729147525514939 0 0.75470958851134928 -0.65605901945558964 1 0 0 1 I I 0 1 1 forward I I I I #
face $-1 $74 $75 $25 $-1 $76 reversed single #
loop $-1 $-1 $77 $32 #
plane-surface $-1 33.420903994648981 -27.523113361777888 4.6883583694986726 0 -0.75470958851134928 0.65605901945558964 1 0 0 forward_v I I I I #
face $-1 $78 $79 $26 $-1 $80 forward single #
loop $-1 $81 $82 $33 #
cone-surface $-1 28.700075476313856 -24.339998603637934 7.5729147525514939 0 0.75470958851134928 -0.65605901945558964 1 0 0 1 I I 0 1 1 forward I I I I #
face $-1 $83 $84 $27 $-1 $85 forward single #
loop $-1 $86 $87 $34 #
cone-surface $-1 38.14173251298412 -24.339998603637934 7.5729147525514939 0 0.75470958851134928 -0.65605901945558964 1 0 0 1 I I 0 1 1 forward I I I I #
face $-1 $88 $89 $21 $-1 $90 reversed single #
loop $-1 $-1 $91 $35 #
plane-surface $-1 0 0 -11.126504374384432 0 0 1 1 0 0 forward_v I I I I #
coedge $-1 $92 $93 $94 $95 forward $36 $-1 #
face $-1 $96 $97 $22 $-1 $98 forward single #
loop $-1 $-1 $99 $38 #
plane-surface $-1 -33.420903994648988 -27.523113361777888 4.6883583694986726 0 -0.75470958851134928 0.65605901945558964 1 0 0 forward_v I I I I #
coedge $-1 $100 $101 $102 $103 reversed $39 $-1 #
face $-1 $-1 $104 $23 $-1 $105 forward single #
loop $-1 $106 $107 $41 #
cone-surface $-1 -38.141732512984113 -23.577826448926515 6.9103686234336337 0 0.75470958851134928 -0.65605901945558964 0.5 0 0 1 I I -0.70710678118654746 0.70710678118654746 0.5 forward I I I I #
loop $-1 $-1 $108 $30 #
coedge $-1 $68 $68 $109 $110 reversed $42 $-1 #
face $-1 $-1 $111 $24 $-1 $112 forward single #
loop $-1 $113 $114 $44 #
cone-surface $-1 -28.700075476313859 -23.577826448926515 6.9103686234336337 0 0.75470958851134928 -0.65605901945558964 0.5 0 0 1 I I -0.70710678118654746 0.70710678118654746 0.5 forward I I I I #
loop $-1 $-1 $115 $31 #
coedge $-1 $73 $73 $116 $117 reversed $45 $-1 #
face $-1 $118 $119 $25 $-1 $120 reversed single #
loop $-1 $-1 $121 $47 #
plane-surface $-1 22.405637451867015 -94.595921324427209 62.993859311795298 1 0 0 0 0.75470958851134928 -0.65605901945558964 forward_v I I I I #
coedge $-1 $122 $123 $124 $125 reversed $48 $-1 #
face $-1 $-1 $126 $26 $-1 $127 forward single #
loop $-1 $128 $129 $50 #
cone-surface $-1 28.700075476313856 -23.577826448926515 6.9103686234336337 0 0.75470958851134928 -0.65605901945558964 0.5 0 0 1 I I -0.70710678118654746 0.70710678118654746 0.5 forward I I I I #
loop $-1 $-1 $130 $33 #
coedge $-1 $82 $82 $131 $132 reversed $51 $-1 #
face $-1 $-1 $133 $27 $-1 $134 forward single #
loop $-1 $135 $136 $53 #
cone-surface $-1 38.14173251298412 -23.577826448926515 6.9103686234336337 0 0.75470958851134928 -0.65605901945558964 0.5 0 0 1 I I -0.70710678118654746 0.70710678118654746 0.5 forward I I I I #
loop $-1 $-1 $137 $34 #
coedge $-1 $87 $87 $138 $139 reversed $54 $-1 #
face $-1 $140 $141 $21 $-1 $142 reversed single #
loop $-1 $-1 $143 $56 #
plane-surface $-1 0 -27.523113361777892 0 0 1 0 0 0 1 forward_v I I I I #
coedge $-1 $144 $145 $146 $147 forward $57 $-1 #
coedge $-1 $148 $59 $149 $150 forward $36 $-1 #
coedge $-1 $59 $148 $151 $152 forward $36 $-1 #
coedge $-1 $153 $154 $59 $95 reversed $155 $-1 #
edge $-1 $156 -27.523113361777892 $157 27.523113361777892 $94 $158 forward 7 unknown #
face $-1 $159 $160 $22 $-1 $161 reversed single #
loop $-1 $-1 $102 $60 #
plane-surface $-1 0 0 11.126504374384432 0 0 1 1 0 0 forward_v I I I I #
coedge $-1 $162 $163 $164 $165 reversed $61 $-1 #
coedge $-1 $101 $63 $166 $167 reversed $39 $-1 #
coedge $-1 $63 $100 $162 $168 reversed $39 $-1 #
coedge $-1 $164 $169 $63 $103 forward $97 $-1 #
edge $-1 $170 19.774847300435713 $171 25.371442095804156 $102 $172 forward 7 unknown #
loop $-1 $-1 $109 $64 #
plane-surface $-1 -33.420903994648988 -27.523113361777888 4.6883583694986726 0 -0.75470958851134928 0.65605901945558964 1 0 0 forward_v I I I I #
loop $-1 $-1 $173 $41 #
coedge $-1 $107 $107 $108 $174 reversed $65 $-1 #
coedge $-1 $108 $108 $107 $174 forward $67 $-1 #
coedge $-1 $109 $109 $68 $110 forward $104 $-1 #
edge $-1 $175 -1.6298354003086155e-015 $175 6.2831853071795987 $109 $176 forward 7 unknown #
loop $-1 $-1 $116 $69 #
plane-surface $-1 -33.420903994648988 -27.523113361777888 4.6883583694986726 0 -0.75470958851134928 0.65605901945558964 1 0 0 forward_v I I I I #
loop $-1 $-1 $177 $44 #
coedge $-1 $114 $114 $115 $178 reversed $70 $-1 #
coedge $-1 $115 $115 $114 $178 forward $72 $-1 #
coedge $-1 $116 $116 $73 $117 forward $111 $-1 #
edge $-1 $179 -1.6298354003086155e-015 $179 6.2831853071795987 $116 $180 forward 7 unknown #
face $-1 $181 $182 $25 $-1 $183 forward single #
loop $-1 $-1 $184 $74 #
plane-surface $-1 44.436170537430954 0 0 -1 0 0 0 0 1 forward_v I I I I #
coedge $-1 $185 $186 $187 $188 reversed $75 $-1 #
coedge $-1 $189 $77 $184 $190 reversed $48 $-1 #
coedge $-1 $77 $189 $185 $191 forward $48 $-1 #
coedge $-1 $187 $192 $77 $125 forward $182 $-1 #
edge $-1 $193 -27.725718540106456 $194 -5.6951854545425249 $124 $195 forward 7 unknown #
loop $-1 $-1 $131 $78 #
plane-surface $-1 33.420903994648981 -27.523113361777888 4.6883583694986726 0 -0.75470958851134928 0.65605901945558964 1 0 0 forward_v I I I I #
loop $-1 $-1 $196 $50 #
coedge $-1 $129 $129 $130 $197 reversed $79 $-1 #
coedge $-1 $130 $130 $129 $197 forward $81 $-1 #
coedge $-1 $131 $131 $82 $132 forward $126 $-1 #
edge $-1 $198 -1.6298354003086155e-015 $198 6.2831853071795987 $131 $199 forward 7 unknown #
loop $-1 $-1 $138 $83 #
plane-surface $-1 33.420903994648981 -27.523113361777888 4.6883583694986726 0 -0.75470958851134928 0.65605901945558964 1 0 0 forward_v I I I I #
loop $-1 $-1 $200 $53 #
coedge $-1 $136 $136 $137 $201 reversed $84 $-1 #
coedge $-1 $137 $137 $136 $201 forward $86 $-1 #
coedge $-1 $138 $138 $87 $139 forward $133 $-1 #
edge $-1 $202 -1.6298354003086155e-015 $202 6.2831853071795987 $138 $203 forward 7 unknown #
face $-1 $204 $205 $21 $-1 $206 reversed single #
loop $-1 $-1 $207 $88 #
plane-surface $-1 -44.436170537430954 0 0 1 0 0 0 0 -1 forward_v I I I I #
coedge $-1 $208 $151 $209 $210 forward $89 $-1 #
coedge $-1 $211 $91 $208 $212 forward $57 $-1 #
coedge $-1 $91 $211 $213 $214 forward $57 $-1 #
coedge $-1 $154 $153 $91 $147 reversed $155 $-1 #
edge $-1 $215 -27.523113361777892 $216 27.523113361777892 $146 $217 forward 7 unknown #
coedge $-1 $93 $92 $218 $219 forward $36 $-1 #
coedge $-1 $220 $221 $92 $150 reversed $205 $-1 #
edge $-1 $157 -44.436170537430954 $222 44.436170537430954 $149 $223 forward 7 unknown #
coedge $-1 $143 $224 $93 $152 reversed $89 $-1 #
edge $-1 $225 -44.436170537430954 $156 44.436170537430954 $151 $226 forward 7 unknown #
coedge $-1 $146 $94 $224 $227 forward $155 $-1 #
coedge $-1 $94 $146 $220 $228 reversed $155 $-1 #
loop $-1 $-1 $153 $204 #
vertex $-1 $95 $229 #
vertex $-1 $95 $230 #
straight-curve $-1 44.436170537430954 0 11.126504374384432 0 1 0 I I #
face $-1 $-1 $231 $22 $-1 $232 reversed single #
loop $-1 $-1 $233 $96 #
plane-surface $-1 -44.436170537430954 0 0 1 0 0 0 0 -1 forward_v I I I I #
coedge $-1 $234 $99 $101 $168 forward $61 $-1 #
coedge $-1 $99 $234 $233 $235 reversed $61 $-1 #
coedge $-1 $236 $102 $99 $165 forward $97 $-1 #
edge $-1 $171 5.6951854545425284 $237 27.72571854010646 $164 $238 forward 7 unknown #
coedge $-1 $239 $240 $100 $167 forward $231 $-1 #
edge $-1 $241 -26.80857128639898 $170 -20.370425281513217 $166 $242 forward 7 unknown #
edge $-1 $171 -8.5306270158629971 $241 5.682373700803029e-015 $101 $243 forward 7 unknown #
coedge $-1 $102 $236 $239 $244 forward $97 $-1 #
vertex $-1 $167 $245 #
vertex $-1 $103 $246 #
straight-curve $-1 -22.405637451867022 -47.297960662213605 11.126504374384432 0 1 0 I I #
coedge $-1 $173 $173 $-1 $247 reversed $106 $-1 #
edge $-1 $248 0 $248 6.2831853071796004 $107 $249 forward 7 unknown #
vertex $-1 $110 $250 #
ellipse-curve $-1 -38.141732512984113 -24.724815964093668 7.9074313719415512 0 -0.75470958851134928 0.65605901945558964 1 0 0 1 I I #
coedge $-1 $177 $177 $-1 $251 reversed $113 $-1 #
edge $-1 $252 0 $252 6.2831853071796004 $114 $253 forward 7 unknown #
vertex $-1 $117 $254 #
ellipse-curve $-1 -28.700075476313859 -24.724815964093668 7.9074313719415512 0 -0.75470958851134928 0.65605901945558964 1 0 0 1 I I #
face $-1 $-1 $255 $25 $-1 $256 reversed single #
loop $-1 $-1 $124 $118 #
plane-surface $-1 0 0 11.126504374384432 0 0 1 1 0 0 forward_v I I I I #
coedge $-1 $257 $258 $122 $190 forward $119 $-1 #
coedge $-1 $186 $121 $123 $191 reversed $75 $-1 #
coedge $-1 $121 $185 $259 $260 reversed $75 $-1 #
coedge $-1 $261 $124 $121 $188 forward $182 $-1 #
edge $-1 $194 -25.371442095804156 $262 -19.774847300435713 $187 $263 forward 7 unknown #
coedge $-1 $123 $122 $264 $265 reversed $48 $-1 #
edge $-1 $266 -7.2592188743274839 $193 1.2714081415355161 $184 $267 forward 7 unknown #
edge $-1 $268 -5.682373700803029e-015 $194 8.5306270158629971 $185 $269 forward 7 unknown #
coedge $-1 $124 $261 $257 $270 forward $182 $-1 #
vertex $-1 $125 $271 #
vertex $-1 $125 $272 #
straight-curve $-1 16.71045199732449 -21.926518566409449 11.126504374384432 -1 0 0 I I #
coedge $-1 $196 $196 $-1 $273 reversed $128 $-1 #
edge $-1 $274 0 $274 6.2831853071796004 $129 $275 forward 7 unknown #
vertex $-1 $132 $276 #
ellipse-curve $-1 28.700075476313856 -24.724815964093668 7.9074313719415512 0 -0.75470958851134928 0.65605901945558964 1 0 0 1 I I #
coedge $-1 $200 $200 $-1 $277 reversed $135 $-1 #
edge $-1 $278 0 $278 6.2831853071796004 $136 $279 forward 7 unknown #
vertex $-1 $139 $280 #
ellipse-curve $-1 38.14173251298412 -24.724815964093668 7.9074313719415512 0 -0.75470958851134928 0.65605901945558964 1 0 0 1 I I #
face $-1 $-1 $155 $21 $-1 $281 reversed single #
loop $-1 $-1 $220 $140 #
plane-surface $-1 0 27.523113361777892 0 0 -1 0 0 0 -1 forward_v I I I I #
coedge $-1 $282 $218 $221 $283 forward $141 $-1 #
coedge $-1 $224 $143 $144 $212 reversed $89 $-1 #
coedge $-1 $218 $282 $143 $210 reversed $141 $-1 #
edge $-1 $225 -11.126504374384432 $284 11.126504374384432 $209 $285 forward 7 unknown #
coedge $-1 $145 $144 $282 $286 forward $57 $-1 #
edge $-1 $216 -44.436170537430954 $284 44.436170537430954 $208 $287 forward 7 unknown #
coedge $-1 $221 $220 $145 $214 reversed $205 $-1 #
edge $-1 $288 -44.436170537430954 $215 44.436170537430954 $213 $289 forward 7 unknown #
vertex $-1 $147 $290 #
vertex $-1 $227 $291 #
straight-curve $-1 44.436170537430954 0 -11.126504374384432 0 -1 0 I I #
coedge $-1 $207 $209 $148 $219 reversed $141 $-1 #
edge $-1 $222 -27.523113361777892 $225 27.523113361777892 $218 $292 forward 7 unknown #
coedge $-1 $213 $149 $154 $228 forward $205 $-1 #
coedge $-1 $149 $213 $207 $283 reversed $205 $-1 #
vertex $-1 $150 $293 #
straight-curve $-1 0 27.523113361777892 11.126504374384432 -1 0 0 I I #
coedge $-1 $151 $208 $153 $227 reversed $89 $-1 #
vertex $-1 $219 $294 #
straight-curve $-1 0 -27.523113361777892 11.126504374384432 1 0 0 I I #
edge $-1 $156 -11.126504374384432 $216 11.126504374384432 $153 $295 forward 7 unknown #
edge $-1 $157 -11.126504374384432 $215 11.126504374384432 $154 $296 forward 7 unknown #
point $-1 44.436170537430954 -27.523113361777892 11.126504374384432 #
point $-1 44.436170537430954 27.523113361777892 11.126504374384432 #
loop $-1 $-1 $166 $159 #
plane-surface $-1 0 -27.523113361777892 0 0 1 0 0 0 1 forward_v I I I I #
coedge $-1 $297 $298 $163 $235 forward $160 $-1 #
coedge $-1 $163 $162 $240 $299 reversed $61 $-1 #
edge $-1 $237 -1.2714081415355161 $300 7.2592188743274839 $233 $301 forward 7 unknown #
coedge $-1 $169 $164 $298 $302 forward $97 $-1 #
vertex $-1 $302 $303 #
straight-curve $-1 -16.710451997324494 -21.926518566409449 11.126504374384432 -1 0 0 I I #
coedge $-1 $304 $166 $169 $244 reversed $231 $-1 #
coedge $-1 $166 $304 $234 $299 forward $231 $-1 #
vertex $-1 $167 $305 #
straight-curve $-1 -22.405637451867022 -27.523113361777895 31.496929655897649 0 0 1 I I #
straight-curve $-1 -22.405637451867022 -27.523113361777888 4.6883583694986726 0 -0.65605901945558964 -0.75470958851134928 I I #
edge $-1 $306 -44.436170537430954 $170 -22.405637451867022 $239 $307 forward 7 unknown #
point $-1 -22.405637451867022 -27.523113361777892 11.126504374384432 #
point $-1 -22.405637451867022 -21.926518566409449 11.126504374384432 #
edge $-1 $308 1 $308 0 $173 $-1 forward 7 unknown #
vertex $-1 $174 $309 #
ellipse-curve $-1 -38.141732512984113 -23.955181243182189 7.2383981331614287 0 -0.75470958851134928 0.65605901945558964 1 0 0 1 I I #
point $-1 -37.141732512984113 -24.724815964093679 7.9074313719415583 #
edge $-1 $310 1 $310 0 $177 $-1 forward 7 unknown #
vertex $-1 $178 $311 #
ellipse-curve $-1 -28.700075476313859 -23.955181243182189 7.2383981331614287 0 -0.75470958851134928 0.65605901945558964 1 0 0 1 I I #
point $-1 -27.700075476313859 -24.724815964093679 7.9074313719415583 #
loop $-1 $-1 $264 $181 #
plane-surface $-1 0 -27.523113361777892 0 0 1 0 0 0 1 forward_v I I I I #
coedge $-1 $258 $184 $192 $270 reversed $119 $-1 #
coedge $-1 $184 $257 $312 $313 forward $119 $-1 #
coedge $-1 $264 $314 $186 $260 forward $255 $-1 #
edge $-1 $262 20.370425281513217 $268 26.80857128639898 $259 $315 forward 7 unknown #
coedge $-1 $192 $187 $314 $316 forward $182 $-1 #
vertex $-1 $316 $317 #
straight-curve $-1 22.405637451867015 -47.297960662213605 11.126504374384432 0 -1 0 I I #
coedge $-1 $312 $259 $189 $265 forward $255 $-1 #
edge $-1 $268 5.6951854545425249 $266 27.725718540106456 $264 $318 forward 7 unknown #
vertex $-1 $265 $319 #
straight-curve $-1 44.436170537430954 -22.760637345073093 10.166960459056183 0 0.65605901945558975 0.75470958851134939 I I #
vertex $-1 $265 $320 #
straight-curve $-1 22.405637451867015 -27.523113361777888 4.6883583694986726 0 0.65605901945558964 0.75470958851134928 I I #
edge $-1 $321 -27.523113361777892 $193 -21.926518566409449 $257 $322 forward 7 unknown #
point $-1 44.436170537430947 -21.926518566409449 11.126504374384432 #
point $-1 22.405637451867015 -21.926518566409449 11.126504374384432 #
edge $-1 $323 1 $323 0 $196 $-1 forward 7 unknown #
vertex $-1 $197 $324 #
ellipse-curve $-1 28.700075476313856 -23.955181243182189 7.2383981331614287 0 -0.75470958851134928 0.65605901945558964 1 0 0 1 I I #
point $-1 29.700075476313856 -24.724815964093679 7.9074313719415583 #
edge $-1 $325 1 $325 0 $200 $-1 forward 7 unknown #
vertex $-1 $201 $326 #
ellipse-curve $-1 38.14173251298412 -23.955181243182189 7.2383981331614287 0 -0.75470958851134928 0.65605901945558964 1 0 0 1 I I #
point $-1 39.14173251298412 -24.724815964093679 7.9074313719415583 #
plane-surface $-1 44.436170537430954 0 0 -1 0 0 0 0 1 forward_v I I I I #
coedge $-1 $209 $207 $211 $286 reversed $141 $-1 #
edge $-1 $222 -11.126504374384432 $288 11.126504374384432 $221 $327 forward 7 unknown #
vertex $-1 $286 $328 #
straight-curve $-1 -44.436170537430954 -27.523113361777892 0 0 0 -1 I I #
edge $-1 $284 -27.523113361777892 $288 27.523113361777892 $282 $329 forward 7 unknown #
straight-curve $-1 0 -27.523113361777892 -11.126504374384432 -1 0 0 I I #
vertex $-1 $214 $330 #
straight-curve $-1 0 27.523113361777892 -11.126504374384432 1 0 0 I I #
point $-1 44.436170537430954 27.523113361777892 -11.126504374384432 #
point $-1 44.436170537430954 -27.523113361777892 -11.126504374384432 #
straight-curve $-1 -44.436170537430954 0 11.126504374384432 0 -1 0 I I #
point $-1 -44.436170537430954 27.523113361777892 11.126504374384432 #
point $-1 -44.436170537430954 -27.523113361777892 11.126504374384432 #
straight-curve $-1 44.436170537430954 -27.523113361777892 0 0 0 -1 I I #
straight-curve $-1 44.436170537430954 27.523113361777892 0 0 0 -1 I I #
coedge $-1 $298 $233 $304 $331 reversed $160 $-1 #
coedge $-1 $233 $297 $236 $302 reversed $160 $-1 #
edge $-1 $300 -27.72571854010646 $241 -5.6951854545425284 $240 $332 forward 7 unknown #
vertex $-1 $235 $333 #
straight-curve $-1 -44.436170537430954 -22.760637345073093 10.166960459056183 0 -0.65605901945558975 -0.75470958851134939 I I #
edge $-1 $237 21.926518566409449 $306 27.523113361777892 $298 $334 forward 7 unknown #
point $-1 -44.436170537430954 -21.926518566409449 11.126504374384432 #
coedge $-1 $240 $239 $297 $331 forward $231 $-1 #
point $-1 -22.405637451867022 -27.523113361777892 4.6883583694986681 #
vertex $-1 $302 $335 #
straight-curve $-1 0 -27.523113361777892 11.126504374384432 1 0 0 I I #
vertex $-1 $247 $336 #
point $-1 -37.141732512984113 -23.955181243182189 7.2383981331614287 #
vertex $-1 $251 $337 #
point $-1 -27.700075476313859 -23.955181243182189 7.2383981331614287 #
coedge $-1 $314 $264 $258 $313 reversed $255 $-1 #
edge $-1 $321 -11.126504374384432 $266 -4.6883583694986681 $258 $338 forward 7 unknown #
coedge $-1 $259 $312 $261 $316 reversed $255 $-1 #
straight-curve $-1 22.405637451867015 -27.523113361777895 31.496929655897649 0 0 -1 I I #
edge $-1 $262 22.405637451867015 $321 44.436170537430954 $314 $339 forward 7 unknown #
point $-1 22.405637451867015 -27.523113361777892 11.126504374384432 #
straight-curve $-1 16.71045199732449 -27.523113361777892 4.6883583694986655 1 0 0 I I #
point $-1 44.436170537430947 -27.523113361777892 4.6883583694986681 #
point $-1 22.405637451867015 -27.523113361777892 4.6883583694986681 #
vertex $-1 $270 $340 #
straight-curve $-1 44.436170537430954 0 11.126504374384432 0 1 0 I I #
vertex $-1 $273 $341 #
point $-1 29.700075476313856 -23.955181243182189 7.2383981331614287 #
vertex $-1 $277 $342 #
point $-1 39.14173251298412 -23.955181243182189 7.2383981331614287 #
straight-curve $-1 -44.436170537430954 27.523113361777892 0 0 0 -1 I I #
point $-1 -44.436170537430954 -27.523113361777892 -11.126504374384432 #
straight-curve $-1 -44.436170537430954 0 -11.126504374384432 0 1 0 I I #
point $-1 -44.436170537430954 27.523113361777892 -11.126504374384432 #
edge $-1 $306 -11.126504374384432 $300 -4.6883583694986681 $297 $343 forward 7 unknown #
straight-curve $-1 -16.710451997324494 -27.523113361777892 4.6883583694986655 1 0 0 I I #
point $-1 -44.436170537430954 -27.523113361777892 4.6883583694986681 #
straight-curve $-1 -44.436170537430954 0 11.126504374384432 0 -1 0 I I #
point $-1 -44.436170537430954 -27.523113361777892 11.126504374384432 #
point $-1 -38.141732512984113 -23.200471654670842 6.5823391137058387 #
point $-1 -28.700075476313859 -23.200471654670842 6.5823391137058387 #
straight-curve $-1 44.436170537430954 -27.523113361777892 0 0 0 -1 I I #
straight-curve $-1 0 -27.523113361777892 11.126504374384432 1 0 0 I I #
point $-1 44.436170537430954 -27.523113361777892 11.126504374384432 #
point $-1 28.700075476313856 -23.200471654670842 6.5823391137058387 #
point $-1 38.14173251298412 -23.200471654670842 6.5823391137058387 #
straight-curve $-1 -44.436170537430954 -27.523113361777892 0 0 0 -1 I I #
End-of-ACIS-data 