500 0 10 0           
7 Unknown 11 ACIS 5.0 NT 24 Thu Mar 25 20:16:19 1999 
-1 9.9999999999999995e-007 1e-010 
body $-1 $10 $-1 $11 #
body $-1 $12 $-1 $13 #
body $-1 $14 $-1 $15 #
body $-1 $16 $-1 $17 #
body $-1 $18 $-1 $19 #
body $-1 $20 $-1 $21 #
body $-1 $22 $-1 $23 #
body $-1 $24 $-1 $25 #
body $-1 $26 $-1 $27 #
body $-1 $28 $-1 $29 #
lump $-1 $-1 $30 $0 #
transform $-1 1 0 0 0 1 0 0 0 1 77.542649616992705 44.219212429678599 15.157499071898773 1 rotate no_reflect no_shear #
lump $-1 $-1 $31 $1 #
transform $-1 1 0 0 0 1 0 0 0 1 77.542649616992705 44.219212429678599 15.157499071898773 1 rotate no_reflect no_shear #
lump $-1 $-1 $32 $2 #
transform $-1 1 0 0 0 1 0 0 0 1 77.542649616992705 44.219212429678599 15.157499071898773 1 rotate no_reflect no_shear #
lump $-1 $-1 $33 $3 #
transform $-1 1 0 0 0 1 0 0 0 1 77.542649616992705 44.219212429678599 15.157499071898773 1 rotate no_reflect no_shear #
lump $-1 $-1 $34 $4 #
transform $-1 1 0 0 0 1 0 0 0 1 77.542649616992705 44.219212429678599 15.157499071898773 1 rotate no_reflect no_shear #
lump $-1 $-1 $35 $5 #
transform $-1 1 0 0 0 1 0 0 0 1 77.542649616992705 44.219212429678599 15.157499071898773 1 rotate no_reflect no_shear #
lump $-1 $-1 $36 $6 #
transform $-1 1 0 0 0 1 0 0 0 1 77.542649616992705 44.219212429678599 15.157499071898773 1 rotate no_reflect no_shear #
lump $-1 $-1 $37 $7 #
transform $-1 1 0 0 0 1 0 0 0 1 77.542649616992705 44.219212429678599 15.157499071898773 1 rotate no_reflect no_shear #
lump $-1 $-1 $38 $8 #
transform $-1 1 0 0 0 1 0 0 0 1 77.542649616992705 44.219212429678599 15.157499071898773 1 rotate no_reflect no_shear #
lump $-1 $-1 $39 $9 #
transform $-1 1 0 0 0 1 0 0 0 1 77.542649616992705 44.219212429678599 15.157499071898773 1 rotate no_reflect no_shear #
shell $-1 $-1 $-1 $40 $-1 $10 #
shell $-1 $-1 $-1 $41 $-1 $12 #
shell $-1 $-1 $-1 $42 $-1 $14 #
shell $-1 $-1 $-1 $43 $-1 $16 #
shell $-1 $-1 $-1 $44 $-1 $18 #
shell $-1 $-1 $-1 $45 $-1 $20 #
shell $-1 $-1 $-1 $46 $-1 $22 #
shell $-1 $-1 $-1 $47 $-1 $24 #
shell $-1 $-1 $-1 $48 $-1 $26 #
shell $-1 $-1 $-1 $49 $-1 $28 #
face $-1 $50 $51 $30 $-1 $52 forward single #
face $-1 $53 $54 $31 $-1 $55 forward single #
face $-1 $56 $57 $32 $-1 $58 reversed single #
face $-1 $59 $60 $33 $-1 $61 forward single #
face $-1 $62 $63 $34 $-1 $64 forward single #
face $-1 $65 $66 $35 $-1 $67 forward single #
face $-1 $68 $69 $36 $-1 $70 reversed single #
face $-1 $71 $72 $37 $-1 $73 forward single #
face $-1 $74 $75 $38 $-1 $76 forward single #
face $-1 $77 $78 $39 $-1 $79 forward single #
face $-1 $80 $81 $30 $-1 $82 reversed single #
loop $-1 $-1 $83 $40 #
plane-surface $-1 0 0 15.157499071898773 0 0 1 1 0 0 forward_v I I I I #
face $-1 $84 $85 $31 $-1 $86 reversed single #
loop $-1 $-1 $87 $41 #
plane-surface $-1 0 -36.602142412052032 4.1645994426491528 0 0 1 1 0 0 forward_v I I I I #
face $-1 $88 $89 $32 $-1 $90 reversed single #
loop $-1 $-1 $91 $42 #
plane-surface $-1 119.39159397720046 25.489755298330714 221.95929865227214 0 1 0 0.82903758062907751 0 0.55919289150049634 forward_v I I I I #
face $-1 $92 $93 $33 $-1 $94 forward single #
loop $-1 $95 $96 $43 #
cone-surface $-1 73.531248300196992 29.235646724600294 10.137449954447316 -0.82903758062907751 0 -0.55919289150049634 0.55919289150049634 0 -0.82903758062907751 1 I I 0 1 1 forward I I I I #
face $-1 $97 $98 $34 $-1 $99 forward single #
loop $-1 $100 $101 $44 #
cone-surface $-1 73.531248300196992 34.854483864004656 10.137449954447316 -0.82903758062907751 0 -0.55919289150049634 0.55919289150049634 0 -0.82903758062907751 1 I I 0 1 1 forward I I I I #
face $-1 $102 $103 $35 $-1 $104 forward single #
loop $-1 $105 $106 $45 #
cone-surface $-1 73.531248300196992 40.473321003409019 10.137449954447316 -0.82903758062907751 0 -0.55919289150049634 0.55919289150049634 0 -0.82903758062907751 1 I I 0 1 1 forward I I I I #
face $-1 $107 $108 $36 $-1 $109 reversed single #
loop $-1 $-1 $110 $46 #
plane-surface $-1 -206.1141908850725 25.489755298330714 93.387757384192383 0 1 0 -0.82903758062907751 0 0.55919289150049634 forward_v I I I I #
face $-1 $111 $112 $37 $-1 $113 forward single #
loop $-1 $114 $115 $47 #
cone-surface $-1 -73.531248300197007 29.235646724600294 10.13744995444732 0.82903758062907751 0 -0.55919289150049634 0.55919289150049634 0 0.82903758062907751 1 I I 0 1 1 forward I I I I #
face $-1 $116 $117 $38 $-1 $118 forward single #
loop $-1 $119 $120 $48 #
cone-surface $-1 -73.531248300197007 34.854483864004656 10.13744995444732 0.82903758062907751 0 -0.55919289150049634 0.55919289150049634 0 0.82903758062907751 1 I I 0 1 1 forward I I I I #
face $-1 $121 $122 $39 $-1 $123 forward single #
loop $-1 $124 $125 $49 #
cone-surface $-1 -73.531248300197007 40.473321003409019 10.13744995444732 0.82903758062907751 0 -0.55919289150049634 0.55919289150049634 0 0.82903758062907751 1 I I 0 1 1 forward I I I I #
face $-1 $126 $127 $30 $-1 $128 reversed single #
loop $-1 $-1 $129 $50 #
plane-surface $-1 0 0 -15.157499071898773 0 0 1 1 0 0 forward_v I I I I #
coedge $-1 $130 $131 $132 $133 forward $51 $-1 #
face $-1 $134 $135 $31 $-1 $136 reversed single #
loop $-1 $-1 $137 $53 #
plane-surface $-1 0 -36.602142412052032 -0.4160026054405721 0 0 1 1 0 0 forward_v I I I I #
coedge $-1 $138 $139 $140 $141 reversed $54 $-1 #
face $-1 $142 $143 $32 $-1 $144 forward single #
loop $-1 $-1 $145 $56 #
plane-surface $-1 -9.1799472908793263 34.854483864004656 135.23670174440014 0.82903758062907751 0 0.55919289150049634 0.55919289150049634 0 -0.82903758062907751 forward_v I I I I #
coedge $-1 $146 $147 $148 $149 reversed $57 $-1 #
face $-1 $-1 $150 $33 $-1 $151 forward single #
loop $-1 $152 $153 $59 #
cone-surface $-1 71.969405459197716 29.235646724600294 9.0839736890348171 -0.82903758062907751 0 -0.55919289150049634 0.27959644575024817 0 -0.41451879031453875 1 I I -0.70710678118654746 0.70710678118654746 0.5 forward I I I I #
loop $-1 $-1 $154 $43 #
coedge $-1 $96 $96 $155 $156 reversed $60 $-1 #
face $-1 $-1 $157 $34 $-1 $158 forward single #
loop $-1 $159 $160 $62 #
cone-surface $-1 71.969405459197716 34.854483864004656 9.0839736890348171 -0.82903758062907751 0 -0.55919289150049634 0.27959644575024817 0 -0.41451879031453875 1 I I -0.70710678118654746 0.70710678118654746 0.5 forward I I I I #
loop $-1 $-1 $161 $44 #
coedge $-1 $101 $101 $162 $163 reversed $63 $-1 #
face $-1 $-1 $164 $35 $-1 $165 forward single #
loop $-1 $166 $167 $65 #
cone-surface $-1 71.969405459197716 40.473321003409019 9.0839736890348171 -0.82903758062907751 0 -0.55919289150049634 0.27959644575024817 0 -0.41451879031453875 1 I I -0.70710678118654746 0.70710678118654746 0.5 forward I I I I #
loop $-1 $-1 $168 $45 #
coedge $-1 $106 $106 $169 $170 reversed $66 $-1 #
face $-1 $171 $172 $36 $-1 $173 reversed single #
loop $-1 $-1 $174 $68 #
plane-surface $-1 -77.542649616992719 34.854483864004656 6.6651604763203665 -0.82903758062907751 0 0.55919289150049634 0.55919289150049634 0 0.82903758062907751 forward_v I I I I #
coedge $-1 $175 $176 $177 $178 reversed $69 $-1 #
face $-1 $-1 $179 $37 $-1 $180 forward single #
loop $-1 $181 $182 $71 #
cone-surface $-1 -71.969405459197731 29.235646724600294 9.0839736890348206 0.82903758062907751 0 -0.55919289150049634 0.27959644575024817 0 0.41451879031453875 1 I I -0.70710678118654746 0.70710678118654746 0.5 forward I I I I #
loop $-1 $-1 $183 $47 #
coedge $-1 $115 $115 $184 $185 reversed $72 $-1 #
face $-1 $-1 $186 $38 $-1 $187 forward single #
loop $-1 $188 $189 $74 #
cone-surface $-1 -71.969405459197731 34.854483864004656 9.0839736890348206 0.82903758062907751 0 -0.55919289150049634 0.27959644575024817 0 0.41451879031453875 1 I I -0.70710678118654746 0.70710678118654746 0.5 forward I I I I #
loop $-1 $-1 $190 $48 #
coedge $-1 $120 $120 $191 $192 reversed $75 $-1 #
face $-1 $-1 $193 $39 $-1 $194 forward single #
loop $-1 $195 $196 $77 #
cone-surface $-1 -71.969405459197731 40.473321003409019 9.0839736890348206 0.82903758062907751 0 -0.55919289150049634 0.27959644575024817 0 0.41451879031453875 1 I I -0.70710678118654746 0.70710678118654746 0.5 forward I I I I #
loop $-1 $-1 $197 $49 #
coedge $-1 $125 $125 $198 $199 reversed $78 $-1 #
face $-1 $200 $201 $30 $-1 $202 reversed single #
loop $-1 $-1 $203 $80 #
plane-surface $-1 0 -44.219212429678599 0 0 1 0 0 0 1 forward_v I I I I #
coedge $-1 $204 $205 $206 $207 forward $81 $-1 #
coedge $-1 $208 $83 $209 $210 forward $51 $-1 #
coedge $-1 $83 $208 $211 $212 forward $51 $-1 #
coedge $-1 $213 $214 $83 $133 reversed $215 $-1 #
edge $-1 $216 -44.219212429678599 $217 44.219212429678599 $132 $218 forward 7 unknown #
face $-1 $219 $220 $31 $-1 $221 reversed single #
loop $-1 $-1 $222 $84 #
plane-surface $-1 0 -28.985072394425465 1.8742984186042904 0 -1 0 0 0 -1 forward_v I I I I #
coedge $-1 $223 $224 $225 $226 reversed $85 $-1 #
coedge $-1 $227 $87 $228 $229 forward $54 $-1 #
coedge $-1 $87 $227 $230 $231 reversed $54 $-1 #
coedge $-1 $232 $233 $87 $141 forward $234 $-1 #
edge $-1 $235 10.684001188399449 $236 25.918141223652583 $140 $237 forward 7 unknown #
face $-1 $238 $239 $32 $-1 $240 reversed single #
loop $-1 $-1 $241 $88 #
plane-surface $-1 0 0 15.157499071898773 0 0 1 1 0 0 forward_v I I I I #
coedge $-1 $242 $243 $244 $245 reversed $89 $-1 #
coedge $-1 $147 $91 $246 $247 reversed $57 $-1 #
coedge $-1 $91 $146 $242 $248 reversed $57 $-1 #
coedge $-1 $244 $249 $91 $149 forward $239 $-1 #
edge $-1 $250 95.8221502542373 $251 104.31448884981575 $148 $252 forward 7 unknown #
loop $-1 $-1 $155 $92 #
plane-surface $-1 -9.1799472908793263 34.854483864004656 135.23670174440014 0.82903758062907751 0 0.55919289150049634 0.55919289150049634 0 -0.82903758062907751 forward_v I I I I #
loop $-1 $-1 $253 $59 #
coedge $-1 $153 $153 $154 $254 reversed $93 $-1 #
coedge $-1 $154 $154 $153 $254 forward $95 $-1 #
coedge $-1 $155 $155 $96 $156 forward $150 $-1 #
edge $-1 $255 0 $255 6.2831853071796004 $155 $256 forward 7 unknown #
loop $-1 $-1 $162 $97 #
plane-surface $-1 -9.1799472908793263 34.854483864004656 135.23670174440014 0.82903758062907751 0 0.55919289150049634 0.55919289150049634 0 -0.82903758062907751 forward_v I I I I #
loop $-1 $-1 $257 $62 #
coedge $-1 $160 $160 $161 $258 reversed $98 $-1 #
coedge $-1 $161 $161 $160 $258 forward $100 $-1 #
coedge $-1 $162 $162 $101 $163 forward $157 $-1 #
edge $-1 $259 0 $259 6.2831853071796004 $162 $260 forward 7 unknown #
loop $-1 $-1 $169 $102 #
plane-surface $-1 -9.1799472908793263 34.854483864004656 135.23670174440014 0.82903758062907751 0 0.55919289150049634 0.55919289150049634 0 -0.82903758062907751 forward_v I I I I #
loop $-1 $-1 $261 $65 #
coedge $-1 $167 $167 $168 $262 reversed $103 $-1 #
coedge $-1 $168 $168 $167 $262 forward $105 $-1 #
coedge $-1 $169 $169 $106 $170 forward $164 $-1 #
edge $-1 $263 0 $263 6.2831853071796004 $169 $264 forward 7 unknown #
face $-1 $265 $266 $36 $-1 $267 forward single #
loop $-1 $-1 $268 $107 #
plane-surface $-1 0 44.219212429678599 0 0 -1 0 0 0 -1 forward_v I I I I #
coedge $-1 $269 $270 $271 $272 reversed $108 $-1 #
coedge $-1 $176 $110 $273 $274 reversed $69 $-1 #
coedge $-1 $110 $175 $269 $275 reversed $69 $-1 #
coedge $-1 $271 $276 $110 $178 forward $266 $-1 #
edge $-1 $277 25.514445825543547 $278 31.242600357765468 $177 $279 forward 7 unknown #
loop $-1 $-1 $184 $111 #
plane-surface $-1 -77.542649616992719 34.854483864004656 6.6651604763203665 -0.82903758062907751 0 0.55919289150049634 0.55919289150049634 0 0.82903758062907751 forward_v I I I I #
loop $-1 $-1 $280 $71 #
coedge $-1 $182 $182 $183 $281 reversed $112 $-1 #
coedge $-1 $183 $183 $182 $281 forward $114 $-1 #
coedge $-1 $184 $184 $115 $185 forward $179 $-1 #
edge $-1 $282 0 $282 6.2831853071796004 $184 $283 forward 7 unknown #
loop $-1 $-1 $191 $116 #
plane-surface $-1 -77.542649616992719 34.854483864004656 6.6651604763203665 -0.82903758062907751 0 0.55919289150049634 0.55919289150049634 0 0.82903758062907751 forward_v I I I I #
loop $-1 $-1 $284 $74 #
coedge $-1 $189 $189 $190 $285 reversed $117 $-1 #
coedge $-1 $190 $190 $189 $285 forward $119 $-1 #
coedge $-1 $191 $191 $120 $192 forward $186 $-1 #
edge $-1 $286 0 $286 6.2831853071796004 $191 $287 forward 7 unknown #
loop $-1 $-1 $198 $121 #
plane-surface $-1 -77.542649616992719 34.854483864004656 6.6651604763203665 -0.82903758062907751 0 0.55919289150049634 0.55919289150049634 0 0.82903758062907751 forward_v I I I I #
loop $-1 $-1 $288 $77 #
coedge $-1 $196 $196 $197 $289 reversed $122 $-1 #
coedge $-1 $197 $197 $196 $289 forward $124 $-1 #
coedge $-1 $198 $198 $125 $199 forward $193 $-1 #
edge $-1 $290 0 $290 6.2831853071796004 $198 $291 forward 7 unknown #
face $-1 $292 $293 $30 $-1 $294 reversed single #
loop $-1 $-1 $295 $126 #
plane-surface $-1 -77.542649616992705 0 0 1 0 0 0 0 -1 forward_v I I I I #
coedge $-1 $296 $211 $297 $298 forward $127 $-1 #
coedge $-1 $299 $129 $296 $300 forward $81 $-1 #
coedge $-1 $129 $299 $301 $302 forward $81 $-1 #
coedge $-1 $214 $213 $129 $207 reversed $215 $-1 #
edge $-1 $303 -44.219212429678599 $304 44.219212429678599 $206 $305 forward 7 unknown #
coedge $-1 $131 $130 $306 $307 forward $51 $-1 #
coedge $-1 $308 $309 $130 $210 reversed $293 $-1 #
edge $-1 $217 -77.542649616992705 $310 77.542649616992705 $209 $311 forward 7 unknown #
coedge $-1 $203 $312 $131 $212 reversed $127 $-1 #
edge $-1 $313 -77.542649616992705 $216 77.542649616992705 $211 $314 forward 7 unknown #
coedge $-1 $206 $132 $312 $315 forward $215 $-1 #
coedge $-1 $132 $206 $308 $316 reversed $215 $-1 #
loop $-1 $-1 $213 $292 #
vertex $-1 $133 $317 #
vertex $-1 $133 $318 #
straight-curve $-1 77.542649616992705 0 15.157499071898773 0 1 0 I I #
face $-1 $319 $320 $31 $-1 $321 reversed single #
loop $-1 $-1 $322 $134 #
plane-surface $-1 -77.542649616992705 0 0 1 0 0 0 0 -1 forward_v I I I I #
coedge $-1 $323 $228 $233 $324 reversed $135 $-1 #
coedge $-1 $325 $137 $326 $327 reversed $85 $-1 #
coedge $-1 $137 $325 $323 $328 forward $85 $-1 #
coedge $-1 $233 $232 $137 $226 forward $234 $-1 #
edge $-1 $329 -25.918141223652583 $330 -10.684001188399449 $225 $331 forward 7 unknown #
coedge $-1 $139 $138 $322 $332 reversed $54 $-1 #
coedge $-1 $222 $333 $138 $229 reversed $135 $-1 #
edge $-1 $235 -77.542649616992705 $334 77.542649616992705 $228 $335 forward 7 unknown #
coedge $-1 $336 $337 $139 $231 forward $320 $-1 #
edge $-1 $236 -77.542649616992705 $338 77.542649616992705 $230 $339 forward 7 unknown #
coedge $-1 $225 $140 $337 $340 forward $234 $-1 #
coedge $-1 $140 $225 $222 $324 forward $234 $-1 #
loop $-1 $-1 $140 $319 #
vertex $-1 $141 $341 #
vertex $-1 $340 $342 #
straight-curve $-1 77.542649616992705 -18.301071206026016 4.1645994426491528 0 -1 0 I I #
face $-1 $-1 $343 $32 $-1 $344 reversed single #
loop $-1 $-1 $148 $142 #
plane-surface $-1 77.542649616992705 0 0 -1 0 0 0 0 1 forward_v I I I I #
coedge $-1 $246 $345 $346 $347 forward $143 $-1 #
coedge $-1 $346 $145 $147 $248 forward $89 $-1 #
coedge $-1 $145 $346 $348 $349 reversed $89 $-1 #
coedge $-1 $350 $148 $145 $245 forward $239 $-1 #
edge $-1 $251 8.0625133663283854 $351 26.791970497676271 $244 $352 forward 7 unknown #
coedge $-1 $353 $241 $146 $247 forward $143 $-1 #
edge $-1 $354 12.118698096170512 $250 17.846852628392476 $246 $355 forward 7 unknown #
edge $-1 $251 -155.08529923398544 $354 -144.84168809498928 $147 $356 forward 7 unknown #
coedge $-1 $148 $350 $353 $357 reversed $239 $-1 #
vertex $-1 $357 $358 #
vertex $-1 $149 $359 #
straight-curve $-1 77.542649616992705 25.489755298330714 110.97964932613607 0 0 -1 I I #
coedge $-1 $253 $253 $-1 $360 reversed $152 $-1 #
edge $-1 $361 0 $361 6.2831853071796004 $153 $362 forward 7 unknown #
vertex $-1 $156 $363 #
ellipse-curve $-1 74.678572350881709 29.235646724600294 10.911329774109554 0.82903758062907751 0 0.55919289150049634 0.55919289150049634 0 -0.82903758062907751 1 I I #
coedge $-1 $257 $257 $-1 $364 reversed $159 $-1 #
edge $-1 $365 0 $365 6.2831853071796004 $160 $366 forward 7 unknown #
vertex $-1 $163 $367 #
ellipse-curve $-1 74.678572350881709 34.854483864004656 10.911329774109554 0.82903758062907751 0 0.55919289150049634 0.55919289150049634 0 -0.82903758062907751 1 I I #
coedge $-1 $261 $261 $-1 $368 reversed $166 $-1 #
edge $-1 $369 0 $369 6.2831853071796004 $167 $370 forward 7 unknown #
vertex $-1 $170 $371 #
ellipse-curve $-1 74.678572350881709 40.473321003409019 10.911329774109554 0.82903758062907751 0 0.55919289150049634 0.55919289150049634 0 -0.82903758062907751 1 I I #
face $-1 $-1 $372 $36 $-1 $373 reversed single #
loop $-1 $-1 $271 $171 #
plane-surface $-1 0 0 15.157499071898773 0 0 1 1 0 0 forward_v I I I I #
coedge $-1 $374 $375 $270 $376 forward $172 $-1 #
coedge $-1 $377 $174 $176 $275 forward $108 $-1 #
coedge $-1 $174 $377 $268 $376 reversed $108 $-1 #
coedge $-1 $378 $177 $174 $272 forward $266 $-1 #
edge $-1 $278 8.0625133663283854 $379 26.791970497676271 $271 $380 forward 7 unknown #
coedge $-1 $381 $382 $175 $274 forward $372 $-1 #
edge $-1 $383 -40.028718215775804 $277 -31.536379620197419 $273 $384 forward 7 unknown #
edge $-1 $278 -10.243611138996117 $383 -2.5618607856530852e-014 $176 $385 forward 7 unknown #
coedge $-1 $177 $378 $381 $386 forward $266 $-1 #
vertex $-1 $274 $387 #
vertex $-1 $178 $388 #
straight-curve $-1 -103.05709544253625 25.489755298330714 15.157499071898769 1 0 0 I I #
coedge $-1 $280 $280 $-1 $389 reversed $181 $-1 #
edge $-1 $390 0 $390 6.2831853071796004 $182 $391 forward 7 unknown #
vertex $-1 $185 $392 #
ellipse-curve $-1 -74.678572350881751 29.235646724600294 10.911329774109577 -0.82903758062907751 0 0.55919289150049634 0.55919289150049634 0 0.82903758062907751 1 I I #
coedge $-1 $284 $284 $-1 $393 reversed $188 $-1 #
edge $-1 $394 0 $394 6.2831853071796004 $189 $395 forward 7 unknown #
vertex $-1 $192 $396 #
ellipse-curve $-1 -74.678572350881751 34.854483864004656 10.911329774109577 -0.82903758062907751 0 0.55919289150049634 0.55919289150049634 0 0.82903758062907751 1 I I #
coedge $-1 $288 $288 $-1 $397 reversed $195 $-1 #
edge $-1 $398 0 $398 6.2831853071796004 $196 $399 forward 7 unknown #
vertex $-1 $199 $400 #
ellipse-curve $-1 -74.678572350881751 40.473321003409019 10.911329774109577 -0.82903758062907751 0 0.55919289150049634 0.55919289150049634 0 0.82903758062907751 1 I I #
face $-1 $-1 $215 $30 $-1 $401 reversed single #
loop $-1 $-1 $308 $200 #
plane-surface $-1 0 44.219212429678599 0 0 -1 0 0 0 -1 forward_v I I I I #
coedge $-1 $402 $306 $309 $403 forward $201 $-1 #
coedge $-1 $312 $203 $204 $300 reversed $127 $-1 #
coedge $-1 $306 $402 $203 $298 reversed $201 $-1 #
edge $-1 $313 -15.157499071898773 $404 15.157499071898773 $297 $405 forward 7 unknown #
coedge $-1 $205 $204 $402 $406 forward $81 $-1 #
edge $-1 $304 -77.542649616992705 $404 77.542649616992705 $296 $407 forward 7 unknown #
coedge $-1 $309 $308 $205 $302 reversed $293 $-1 #
edge $-1 $408 -77.542649616992705 $303 77.542649616992705 $301 $409 forward 7 unknown #
vertex $-1 $207 $410 #
vertex $-1 $315 $411 #
straight-curve $-1 77.542649616992705 0 -15.157499071898773 0 -1 0 I I #
coedge $-1 $295 $297 $208 $307 reversed $201 $-1 #
edge $-1 $310 -44.219212429678599 $313 44.219212429678599 $306 $412 forward 7 unknown #
coedge $-1 $301 $209 $214 $316 forward $293 $-1 #
coedge $-1 $209 $301 $295 $403 reversed $293 $-1 #
vertex $-1 $210 $413 #
straight-curve $-1 0 44.219212429678599 15.157499071898773 -1 0 0 I I #
coedge $-1 $211 $296 $213 $315 reversed $127 $-1 #
vertex $-1 $307 $414 #
straight-curve $-1 0 -44.219212429678599 15.157499071898773 1 0 0 I I #
edge $-1 $216 -15.157499071898773 $304 15.157499071898773 $213 $415 forward 7 unknown #
edge $-1 $217 -15.157499071898773 $303 15.157499071898773 $214 $416 forward 7 unknown #
point $-1 77.542649616992705 -44.219212429678599 15.157499071898773 #
point $-1 77.542649616992705 44.219212429678599 15.157499071898773 #
face $-1 $-1 $234 $31 $-1 $417 reversed single #
loop $-1 $-1 $230 $219 #
plane-surface $-1 0 -44.219212429678599 0 0 1 0 0 0 1 forward_v I I I I #
coedge $-1 $418 $419 $227 $332 forward $220 $-1 #
coedge $-1 $333 $222 $224 $328 reversed $135 $-1 #
edge $-1 $330 -1.3531518147427173 $235 3.2274502333470076 $233 $420 forward 7 unknown #
coedge $-1 $224 $223 $421 $422 reversed $85 $-1 #
coedge $-1 $337 $336 $223 $327 forward $320 $-1 #
edge $-1 $423 -77.542649616992705 $329 77.542649616992705 $326 $424 forward 7 unknown #
edge $-1 $425 -77.542649616992705 $330 77.542649616992705 $323 $426 forward 7 unknown #
vertex $-1 $327 $427 #
vertex $-1 $226 $428 #
straight-curve $-1 77.542649616992705 -18.301071206026016 -0.4160026054405721 0 1 0 I I #
edge $-1 $338 -25.918141223652583 $334 -10.684001188399449 $322 $429 forward 7 unknown #
coedge $-1 $228 $323 $418 $430 reversed $135 $-1 #
vertex $-1 $332 $431 #
straight-curve $-1 0 -28.985072394425465 4.1645994426491528 -1 0 0 I I #
coedge $-1 $326 $230 $419 $432 forward $320 $-1 #
coedge $-1 $230 $326 $232 $340 reversed $320 $-1 #
vertex $-1 $432 $433 #
straight-curve $-1 0 -44.219212429678599 4.1645994426491528 -1 0 0 I I #
edge $-1 $236 -4.1645994426491528 $329 0.4160026054405721 $232 $434 forward 7 unknown #
point $-1 77.542649616992705 -28.985072394425465 4.1645994426491528 #
point $-1 77.542649616992705 -44.219212429678599 4.1645994426491528 #
loop $-1 $-1 $348 $238 #
plane-surface $-1 0 44.219212429678599 0 0 -1 0 0 0 -1 forward_v I I I I #
coedge $-1 $241 $353 $435 $436 forward $143 $-1 #
coedge $-1 $243 $242 $241 $347 reversed $89 $-1 #
edge $-1 $437 -26.791970497676271 $354 -8.0625133663283854 $241 $438 forward 7 unknown #
coedge $-1 $435 $439 $243 $349 forward $343 $-1 #
edge $-1 $351 -96.460464586064163 $437 -86.21685344706799 $348 $440 forward 7 unknown #
coedge $-1 $249 $244 $439 $441 reversed $239 $-1 #
vertex $-1 $349 $442 #
straight-curve $-1 77.542649616992719 17.427241932002328 6.6651604763203096 0 1 0 I I #
coedge $-1 $345 $246 $249 $357 forward $143 $-1 #
vertex $-1 $247 $443 #
straight-curve $-1 59.695796988600229 25.489755298330714 15.157499071898769 1 0 0 I I #
straight-curve $-1 -9.1799472908793263 25.489755298330714 135.23670174440014 -0.55919289150049634 0 0.82903758062907751 I I #
edge $-1 $250 25.489755298330714 $444 44.219212429678599 $249 $445 forward 7 unknown #
point $-1 77.542649616992705 25.489755298330714 15.157499071898773 #
point $-1 77.542649616992705 25.489755298330714 6.6651604763203238 #
edge $-1 $446 1 $446 0 $253 $-1 forward 7 unknown #
vertex $-1 $254 $447 #
ellipse-curve $-1 72.383924249512262 29.235646724600294 9.3635701347850659 0.82903758062907751 0 0.55919289150049634 0.55919289150049634 0 -0.82903758062907751 1 I I #
point $-1 75.237765242382224 29.235646724600294 10.082292193480491 #
edge $-1 $448 1 $448 0 $257 $-1 forward 7 unknown #
vertex $-1 $258 $449 #
ellipse-curve $-1 72.383924249512262 34.854483864004656 9.3635701347850659 0.82903758062907751 0 0.55919289150049634 0.55919289150049634 0 -0.82903758062907751 1 I I #
point $-1 75.237765242382224 34.854483864004656 10.082292193480491 #
edge $-1 $450 1 $450 0 $261 $-1 forward 7 unknown #
vertex $-1 $262 $451 #
ellipse-curve $-1 72.383924249512262 40.473321003409019 9.3635701347850659 0.82903758062907751 0 0.55919289150049634 0.55919289150049634 0 -0.82903758062907751 1 I I #
point $-1 75.237765242382224 40.473321003409019 10.082292193480491 #
loop $-1 $-1 $273 $265 #
plane-surface $-1 -77.542649616992705 0 0 1 0 0 0 0 -1 forward_v I I I I #
coedge $-1 $375 $268 $452 $453 reversed $172 $-1 #
coedge $-1 $268 $374 $378 $454 reversed $172 $-1 #
edge $-1 $379 8.6742038300752995 $455 18.91781496907139 $268 $456 forward 7 unknown #
coedge $-1 $270 $269 $382 $457 reversed $108 $-1 #
coedge $-1 $276 $271 $375 $454 forward $266 $-1 #
vertex $-1 $454 $458 #
straight-curve $-1 -71.814495084770797 17.427241932002328 15.157499071898773 0 1 0 I I #
coedge $-1 $452 $273 $276 $386 reversed $372 $-1 #
coedge $-1 $273 $452 $377 $457 forward $372 $-1 #
vertex $-1 $274 $459 #
straight-curve $-1 -77.542649616992705 25.489755298330714 46.693878692096192 0 0 1 I I #
straight-curve $-1 -77.542649616992719 25.489755298330714 6.6651604763203665 -0.55919289150049634 0 -0.82903758062907751 I I #
edge $-1 $460 -44.219212429678599 $277 -25.489755298330714 $381 $461 forward 7 unknown #
point $-1 -77.542649616992705 25.489755298330714 15.157499071898773 #
point $-1 -71.814495084770783 25.489755298330714 15.157499071898773 #
edge $-1 $462 1 $462 0 $280 $-1 forward 7 unknown #
vertex $-1 $281 $463 #
ellipse-curve $-1 -72.383924249512276 29.235646724600294 9.3635701347850695 -0.82903758062907751 0 0.55919289150049634 0.55919289150049634 0 0.82903758062907751 1 I I #
point $-1 -74.11937945938125 29.235646724600294 11.74036735473865 #
edge $-1 $464 1 $464 0 $284 $-1 forward 7 unknown #
vertex $-1 $285 $465 #
ellipse-curve $-1 -72.383924249512276 34.854483864004656 9.3635701347850695 -0.82903758062907751 0 0.55919289150049634 0.55919289150049634 0 0.82903758062907751 1 I I #
point $-1 -74.11937945938125 34.854483864004656 11.74036735473865 #
edge $-1 $466 1 $466 0 $288 $-1 forward 7 unknown #
vertex $-1 $289 $467 #
ellipse-curve $-1 -72.383924249512276 40.473321003409019 9.3635701347850695 -0.82903758062907751 0 0.55919289150049634 0.55919289150049634 0 0.82903758062907751 1 I I #
point $-1 -74.11937945938125 40.473321003409019 11.74036735473865 #
plane-surface $-1 77.542649616992705 0 0 -1 0 0 0 0 1 forward_v I I I I #
coedge $-1 $297 $295 $299 $406 reversed $201 $-1 #
edge $-1 $310 -15.157499071898773 $408 15.157499071898773 $309 $468 forward 7 unknown #
vertex $-1 $406 $469 #
straight-curve $-1 -77.542649616992705 -44.219212429678599 0 0 0 -1 I I #
edge $-1 $404 -44.219212429678599 $408 44.219212429678599 $402 $470 forward 7 unknown #
straight-curve $-1 0 -44.219212429678599 -15.157499071898773 -1 0 0 I I #
vertex $-1 $302 $471 #
straight-curve $-1 0 44.219212429678599 -15.157499071898773 1 0 0 I I #
point $-1 77.542649616992705 44.219212429678599 -15.157499071898773 #
point $-1 77.542649616992705 -44.219212429678599 -15.157499071898773 #
straight-curve $-1 -77.542649616992705 0 15.157499071898773 0 -1 0 I I #
point $-1 -77.542649616992705 44.219212429678599 15.157499071898773 #
point $-1 -77.542649616992705 -44.219212429678599 15.157499071898773 #
straight-curve $-1 77.542649616992705 -44.219212429678599 0 0 0 -1 I I #
straight-curve $-1 77.542649616992705 44.219212429678599 0 0 0 -1 I I #
plane-surface $-1 77.542649616992705 0 0 -1 0 0 0 0 1 forward_v I I I I #
coedge $-1 $421 $322 $333 $430 forward $220 $-1 #
coedge $-1 $322 $421 $336 $432 reversed $220 $-1 #
straight-curve $-1 77.542649616992705 -28.985072394425465 0.93714920930214518 0 0 1 I I #
coedge $-1 $419 $418 $325 $422 forward $220 $-1 #
edge $-1 $425 10.684001188399449 $423 25.918141223652583 $421 $472 forward 7 unknown #
vertex $-1 $327 $473 #
straight-curve $-1 0 -44.219212429678599 -0.4160026054405721 1 0 0 I I #
vertex $-1 $422 $474 #
straight-curve $-1 0 -28.985072394425465 -0.4160026054405721 1 0 0 I I #
point $-1 77.542649616992705 -44.219212429678599 -0.4160026054405721 #
point $-1 77.542649616992705 -28.985072394425465 -0.4160026054405721 #
straight-curve $-1 -77.542649616992705 -18.301071206026016 4.1645994426491528 0 1 0 I I #
edge $-1 $334 -3.2274502333470076 $425 1.3531518147427173 $418 $475 forward 7 unknown #
point $-1 -77.542649616992705 -28.985072394425465 4.1645994426491528 #
edge $-1 $338 -4.1645994426491528 $423 0.4160026054405721 $419 $476 forward 7 unknown #
point $-1 -77.542649616992705 -44.219212429678599 4.1645994426491528 #
straight-curve $-1 77.542649616992705 -44.219212429678599 0 0 0 -1 I I #
coedge $-1 $439 $348 $345 $436 reversed $343 $-1 #
edge $-1 $444 -77.542649616992705 $437 -71.814495084770741 $435 $477 forward 7 unknown #
vertex $-1 $349 $478 #
straight-curve $-1 71.814495084770741 17.427241932002328 15.157499071898769 0 -1 0 I I #
coedge $-1 $348 $435 $350 $441 forward $343 $-1 #
straight-curve $-1 23.602643509630269 44.219212429678599 86.634510663107761 -0.55919289150049634 0 0.82903758062907751 I I #
edge $-1 $444 -15.157499071898773 $351 -6.6651604763203238 $350 $479 forward 7 unknown #
point $-1 77.542649616992705 44.219212429678599 6.6651604763203238 #
point $-1 71.814495084770741 25.489755298330714 15.157499071898769 #
vertex $-1 $357 $480 #
straight-curve $-1 77.542649616992705 0 15.157499071898773 0 1 0 I I #
vertex $-1 $360 $481 #
point $-1 72.943117141012749 29.235646724600294 8.5345325541559873 #
vertex $-1 $364 $482 #
point $-1 72.943117141012749 34.854483864004656 8.5345325541559873 #
vertex $-1 $368 $483 #
point $-1 72.943117141012749 40.473321003409019 8.5345325541559873 #
coedge $-1 $382 $381 $374 $453 forward $372 $-1 #
edge $-1 $460 -15.157499071898773 $455 -6.6651604763203878 $374 $484 forward 7 unknown #
edge $-1 $379 71.814495084770783 $460 77.542649616992705 $375 $485 forward 7 unknown #
vertex $-1 $376 $486 #
straight-curve $-1 -66.963941963566299 44.219212429678599 22.348740029067876 -0.55919289150049634 0 -0.82903758062907751 I I #
edge $-1 $455 -26.791970497676271 $383 -8.0625133663283854 $382 $487 forward 7 unknown #
point $-1 -71.814495084770783 44.219212429678599 15.157499071898773 #
point $-1 -77.542649616992705 25.489755298330714 6.6651604763203878 #
vertex $-1 $454 $488 #
straight-curve $-1 -77.542649616992705 0 15.157499071898773 0 -1 0 I I #
vertex $-1 $389 $489 #
point $-1 -71.824731358011775 29.235646724600294 10.192607715414146 #
vertex $-1 $393 $490 #
point $-1 -71.824731358011775 34.854483864004656 10.192607715414146 #
vertex $-1 $397 $491 #
point $-1 -71.824731358011775 40.473321003409019 10.192607715414146 #
straight-curve $-1 -77.542649616992705 44.219212429678599 0 0 0 -1 I I #
point $-1 -77.542649616992705 -44.219212429678599 -15.157499071898773 #
straight-curve $-1 -77.542649616992705 0 -15.157499071898773 0 1 0 I I #
point $-1 -77.542649616992705 44.219212429678599 -15.157499071898773 #
straight-curve $-1 -77.542649616992705 -18.301071206026016 -0.4160026054405721 0 -1 0 I I #
point $-1 -77.542649616992705 -44.219212429678599 -0.4160026054405721 #
point $-1 -77.542649616992705 -28.985072394425465 -0.4160026054405721 #
straight-curve $-1 -77.542649616992705 -28.985072394425465 0.93714920930214518 0 0 -1 I I #
straight-curve $-1 -77.542649616992705 -44.219212429678599 0 0 0 -1 I I #
straight-curve $-1 0 44.219212429678599 15.157499071898773 -1 0 0 I I #
point $-1 71.814495084770741 44.219212429678599 15.157499071898769 #
straight-curve $-1 77.542649616992705 44.219212429678599 0 0 0 -1 I I #
point $-1 77.542649616992705 44.219212429678599 15.157499071898773 #
point $-1 71.554886668883171 29.235646724600294 8.8043772432845682 #
point $-1 71.554886668883171 34.854483864004656 8.8043772432845682 #
point $-1 71.554886668883171 40.473321003409019 8.8043772432845682 #
straight-curve $-1 -77.542649616992705 44.219212429678599 0 0 0 -1 I I #
straight-curve $-1 0 44.219212429678599 15.157499071898773 -1 0 0 I I #
point $-1 -77.542649616992705 44.219212429678599 6.6651604763203878 #
straight-curve $-1 -77.542649616992705 17.427241932002328 6.6651604763204082 0 -1 0 I I #
point $-1 -77.542649616992705 44.219212429678599 15.157499071898773 #
point $-1 -71.554886668883185 29.235646724600294 8.8043772432845717 #
point $-1 -71.554886668883185 34.854483864004656 8.8043772432845717 #
point $-1 -71.554886668883185 40.473321003409019 8.8043772432845717 #
End-of-ACIS-data 