500 0 6 0           
7 Unknown 11 ACIS 5.0 NT 24 Thu Mar 25 16:00:55 1999 
-1 9.9999999999999995e-007 1e-010 
body $-1 $6 $-1 $7 #
body $-1 $8 $-1 $9 #
body $-1 $10 $-1 $11 #
body $-1 $12 $-1 $13 #
body $-1 $14 $-1 $15 #
body $-1 $16 $-1 $17 #
lump $-1 $-1 $18 $0 #
transform $-1 1 0 0 0 1 0 0 0 1 49.142124698629715 19.930403257699211 4.9115880704953501 1 rotate no_reflect no_shear #
lump $-1 $-1 $19 $1 #
transform $-1 1 0 0 0 1 0 0 0 1 49.142124698629715 19.930403257699211 4.9115880704953501 1 rotate no_reflect no_shear #
lump $-1 $-1 $20 $2 #
transform $-1 1 0 0 0 1 0 0 0 1 49.142124698629715 19.930403257699211 4.9115880704953501 1 rotate no_reflect no_shear #
lump $-1 $-1 $21 $3 #
transform $-1 1 0 0 0 1 0 0 0 1 49.142124698629715 19.930403257699211 4.9115880704953501 1 rotate no_reflect no_shear #
lump $-1 $-1 $22 $4 #
transform $-1 1 0 0 0 1 0 0 0 1 49.142124698629715 19.930403257699211 4.9115880704953501 1 rotate no_reflect no_shear #
lump $-1 $-1 $23 $5 #
transform $-1 1 0 0 0 1 0 0 0 1 49.142124698629715 19.930403257699211 4.9115880704953501 1 rotate no_reflect no_shear #
shell $-1 $-1 $-1 $24 $-1 $6 #
shell $-1 $-1 $-1 $25 $-1 $8 #
shell $-1 $-1 $-1 $26 $-1 $10 #
shell $-1 $-1 $-1 $27 $-1 $12 #
shell $-1 $-1 $-1 $28 $-1 $14 #
shell $-1 $-1 $-1 $29 $-1 $16 #
face $-1 $30 $31 $18 $-1 $32 forward single #
face $-1 $33 $34 $19 $-1 $35 reversed single #
face $-1 $36 $37 $20 $-1 $38 reversed single #
face $-1 $39 $40 $21 $-1 $41 reversed single #
face $-1 $42 $43 $22 $-1 $44 forward single #
face $-1 $45 $46 $23 $-1 $47 forward single #
face $-1 $48 $49 $18 $-1 $50 reversed single #
loop $-1 $-1 $51 $24 #
plane-surface $-1 0 0 4.9115880704953501 0 0 1 1 0 0 forward_v I I I I #
face $-1 $52 $53 $19 $-1 $54 reversed single #
loop $-1 $-1 $55 $25 #
plane-surface $-1 -47.642124698629715 -14.943427324287669 0 0 -1 0 0 0 -1 forward_v I I I I #
face $-1 $56 $57 $20 $-1 $58 reversed single #
loop $-1 $-1 $59 $26 #
plane-surface $-1 -47.642124698629715 14.943427324287669 0 0 1 0 0 0 1 forward_v I I I I #
face $-1 $60 $61 $21 $-1 $62 reversed single #
loop $-1 $-1 $63 $27 #
plane-surface $-1 63.671051745525915 -8.6863516029648054 138.4118313361775 0 -1 0 -0.77714596973225614 0 -0.62932038083071107 forward_v I I I I #
face $-1 $64 $65 $22 $-1 $66 forward single #
loop $-1 $67 $68 $28 #
cone-surface $-1 46.837098125060919 -13.155691403909707 2.2303047291290761 -0.77714596973225614 0 -0.62932038083071107 0.31466019041535553 0 -0.38857298486612807 1 I I 0 1 0.5 forward I I I I #
face $-1 $69 $70 $23 $-1 $71 forward single #
loop $-1 $72 $73 $29 #
cone-surface $-1 46.837098125060919 -10.474087523342765 2.2303047291290761 -0.77714596973225614 0 -0.62932038083071107 0.31466019041535553 0 -0.38857298486612807 1 I I 0 1 0.5 forward I I I I #
face $-1 $74 $75 $18 $-1 $76 reversed single #
loop $-1 $-1 $77 $30 #
plane-surface $-1 0 0 -4.9115880704953501 0 0 1 1 0 0 forward_v I I I I #
coedge $-1 $78 $79 $80 $81 forward $31 $-1 #
face $-1 $82 $83 $19 $-1 $84 forward single #
loop $-1 $-1 $85 $33 #
plane-surface $-1 -46.142124698629715 -17.43691529099344 0 -1 0 0 0 0 1 forward_v I I I I #
coedge $-1 $86 $87 $88 $89 forward $34 $-1 #
face $-1 $90 $91 $20 $-1 $92 reversed single #
loop $-1 $-1 $93 $36 #
plane-surface $-1 -46.142124698629715 17.43691529099344 0 -1 0 0 0 0 1 forward_v I I I I #
coedge $-1 $94 $95 $96 $97 reversed $37 $-1 #
face $-1 $98 $99 $21 $-1 $100 reversed single #
loop $-1 $-1 $101 $39 #
plane-surface $-1 -12.710156561714172 -11.814889463626237 76.559550075833613 0.77714596973225614 0 0.62932038083071107 0.62932038083071107 0 -0.77714596973225614 forward_v I I I I #
coedge $-1 $102 $103 $104 $105 reversed $40 $-1 #
face $-1 $-1 $106 $22 $-1 $107 forward single #
loop $-1 $108 $109 $42 #
cone-surface $-1 46.254238647761724 -13.155691403909707 1.7583144435060429 -0.77714596973225614 0 -0.62932038083071107 0.15733009520767777 0 -0.19428649243306403 1 I I -0.70710678118654746 0.70710678118654746 0.25 forward I I I I #
loop $-1 $-1 $110 $28 #
coedge $-1 $68 $68 $111 $112 reversed $43 $-1 #
face $-1 $-1 $113 $23 $-1 $114 forward single #
loop $-1 $115 $116 $45 #
cone-surface $-1 46.254238647761724 -10.474087523342765 1.7583144435060429 -0.77714596973225614 0 -0.62932038083071107 0.15733009520767777 0 -0.19428649243306403 1 I I -0.70710678118654746 0.70710678118654746 0.25 forward I I I I #
loop $-1 $-1 $117 $29 #
coedge $-1 $73 $73 $118 $119 reversed $46 $-1 #
face $-1 $120 $121 $18 $-1 $122 reversed single #
loop $-1 $-1 $123 $48 #
plane-surface $-1 0 -19.930403257699211 0 0 1 0 0 0 1 forward_v I I I I #
coedge $-1 $124 $125 $126 $127 forward $49 $-1 #
coedge $-1 $128 $51 $129 $130 forward $31 $-1 #
coedge $-1 $51 $128 $131 $132 forward $31 $-1 #
coedge $-1 $133 $134 $51 $81 reversed $135 $-1 #
edge $-1 $136 -19.930403257699211 $137 19.930403257699211 $80 $138 forward 7 unknown #
face $-1 $139 $140 $19 $-1 $141 reversed single #
loop $-1 $-1 $142 $52 #
plane-surface $-1 0 0 4.9115880704953501 0 0 1 1 0 0 forward_v I I I I #
coedge $-1 $143 $144 $145 $146 reversed $53 $-1 #
coedge $-1 $147 $55 $148 $149 reversed $34 $-1 #
coedge $-1 $55 $147 $150 $151 reversed $34 $-1 #
coedge $-1 $144 $143 $55 $89 reversed $53 $-1 #
edge $-1 $152 -4.9115880704953501 $153 4.9115880704953501 $88 $154 forward 7 unknown #
face $-1 $155 $156 $20 $-1 $157 reversed single #
loop $-1 $-1 $158 $56 #
plane-surface $-1 0 0 -4.9115880704953501 0 0 1 1 0 0 forward_v I I I I #
coedge $-1 $159 $160 $161 $162 forward $57 $-1 #
coedge $-1 $161 $59 $163 $164 reversed $37 $-1 #
coedge $-1 $59 $161 $165 $166 reversed $37 $-1 #
coedge $-1 $167 $168 $59 $97 forward $156 $-1 #
edge $-1 $169 -4.9115880704953501 $170 4.9115880704953501 $96 $171 forward 7 unknown #
face $-1 $172 $173 $21 $-1 $174 reversed single #
loop $-1 $-1 $175 $60 #
plane-surface $-1 63.671051745525915 -14.943427324287669 138.4118313361775 0 1 0 0.77714596973225614 0 0.62932038083071107 forward_v I I I I #
coedge $-1 $176 $177 $178 $179 reversed $61 $-1 #
coedge $-1 $103 $63 $180 $181 reversed $40 $-1 #
coedge $-1 $63 $102 $176 $182 reversed $40 $-1 #
coedge $-1 $178 $183 $63 $105 forward $184 $-1 #
edge $-1 $185 -17.306598825866757 $186 -13.473691648461397 $104 $187 forward 7 unknown #
loop $-1 $-1 $111 $64 #
plane-surface $-1 -12.710156561714172 -11.814889463626237 76.559550075833613 0.77714596973225614 0 0.62932038083071107 0.62932038083071107 0 -0.77714596973225614 forward_v I I I I #
loop $-1 $-1 $188 $42 #
coedge $-1 $109 $109 $110 $189 reversed $65 $-1 #
coedge $-1 $110 $110 $109 $189 forward $67 $-1 #
coedge $-1 $111 $111 $68 $112 forward $106 $-1 #
edge $-1 $190 0 $190 6.2831853071796004 $111 $191 forward 7 unknown #
loop $-1 $-1 $118 $69 #
plane-surface $-1 -12.710156561714172 -11.814889463626237 76.559550075833613 0.77714596973225614 0 0.62932038083071107 0.62932038083071107 0 -0.77714596973225614 forward_v I I I I #
loop $-1 $-1 $192 $45 #
coedge $-1 $116 $116 $117 $193 reversed $70 $-1 #
coedge $-1 $117 $117 $116 $193 forward $72 $-1 #
coedge $-1 $118 $118 $73 $119 forward $113 $-1 #
edge $-1 $194 0 $194 6.2831853071796004 $118 $195 forward 7 unknown #
face $-1 $196 $197 $18 $-1 $198 reversed single #
loop $-1 $-1 $199 $74 #
plane-surface $-1 -49.142124698629715 0 0 1 0 0 0 0 -1 forward_v I I I I #
coedge $-1 $200 $131 $201 $202 forward $75 $-1 #
coedge $-1 $203 $77 $200 $204 forward $49 $-1 #
coedge $-1 $77 $203 $205 $206 forward $49 $-1 #
coedge $-1 $134 $133 $77 $127 reversed $135 $-1 #
edge $-1 $207 -19.930403257699211 $208 19.930403257699211 $126 $209 forward 7 unknown #
coedge $-1 $79 $78 $210 $211 forward $31 $-1 #
coedge $-1 $212 $213 $78 $130 reversed $197 $-1 #
edge $-1 $137 -49.142124698629715 $214 49.142124698629715 $129 $215 forward 7 unknown #
coedge $-1 $123 $216 $79 $132 reversed $75 $-1 #
edge $-1 $217 -49.142124698629715 $136 49.142124698629715 $131 $218 forward 7 unknown #
coedge $-1 $126 $80 $216 $219 forward $135 $-1 #
coedge $-1 $80 $126 $212 $220 reversed $135 $-1 #
loop $-1 $-1 $133 $196 #
vertex $-1 $81 $221 #
vertex $-1 $81 $222 #
straight-curve $-1 49.142124698629715 0 4.9115880704953501 0 1 0 I I #
face $-1 $223 $224 $19 $-1 $225 reversed single #
loop $-1 $-1 $226 $82 #
plane-surface $-1 -49.142124698629715 0 0 1 0 0 0 0 -1 forward_v I I I I #
coedge $-1 $150 $227 $144 $228 forward $83 $-1 #
coedge $-1 $88 $85 $229 $230 reversed $53 $-1 #
coedge $-1 $85 $88 $142 $228 reversed $53 $-1 #
coedge $-1 $231 $232 $85 $146 forward $233 $-1 #
edge $-1 $234 -4.9115880704953501 $235 4.9115880704953501 $145 $236 forward 7 unknown #
coedge $-1 $87 $86 $226 $237 reversed $34 $-1 #
coedge $-1 $229 $238 $86 $149 forward $224 $-1 #
edge $-1 $239 -25.321062349314857 $153 -22.321062349314857 $148 $240 forward 7 unknown #
coedge $-1 $241 $142 $87 $151 forward $83 $-1 #
edge $-1 $152 22.321062349314857 $242 25.321062349314857 $150 $243 forward 7 unknown #
vertex $-1 $151 $244 #
vertex $-1 $149 $245 #
straight-curve $-1 -46.142124698629715 -14.943427324287669 0 0 0 -1 I I #
face $-1 $246 $247 $20 $-1 $248 forward single #
loop $-1 $-1 $96 $90 #
plane-surface $-1 -49.142124698629715 0 0 1 0 0 0 0 -1 forward_v I I I I #
coedge $-1 $163 $249 $159 $250 forward $91 $-1 #
coedge $-1 $251 $93 $158 $250 reversed $57 $-1 #
coedge $-1 $93 $251 $252 $253 reversed $57 $-1 #
coedge $-1 $95 $94 $93 $162 reversed $37 $-1 #
edge $-1 $254 -4.9115880704953501 $255 4.9115880704953501 $93 $256 forward 7 unknown #
coedge $-1 $257 $158 $94 $164 forward $91 $-1 #
edge $-1 $255 22.321062349314857 $169 25.321062349314857 $163 $258 forward 7 unknown #
coedge $-1 $252 $259 $95 $166 forward $247 $-1 #
edge $-1 $170 -25.321062349314857 $254 -22.321062349314857 $165 $260 forward 7 unknown #
coedge $-1 $261 $96 $259 $262 reversed $156 $-1 #
coedge $-1 $96 $261 $257 $263 reversed $156 $-1 #
vertex $-1 $263 $264 #
vertex $-1 $97 $265 #
straight-curve $-1 -49.142124698629715 14.943427324287669 0 0 0 1 I I #
face $-1 $-1 $184 $21 $-1 $266 forward single #
loop $-1 $-1 $267 $98 #
plane-surface $-1 49.142124698629715 0 0 -1 0 0 0 0 1 forward_v I I I I #
coedge $-1 $268 $269 $270 $271 reversed $99 $-1 #
coedge $-1 $272 $101 $103 $182 forward $61 $-1 #
coedge $-1 $101 $272 $268 $273 forward $61 $-1 #
coedge $-1 $270 $104 $101 $179 forward $184 $-1 #
edge $-1 $186 2.7789068711516869 $274 9.03598259247455 $178 $275 forward 7 unknown #
coedge $-1 $276 $277 $102 $181 forward $173 $-1 #
edge $-1 $278 -69.027573899495223 $185 -64.294327597593394 $180 $279 forward 7 unknown #
edge $-1 $186 92.193699505412809 $278 98.28424939725943 $103 $280 forward 7 unknown #
coedge $-1 $104 $270 $276 $281 forward $184 $-1 #
loop $-1 $-1 $270 $172 #
vertex $-1 $181 $282 #
vertex $-1 $105 $283 #
straight-curve $-1 31.835525872762958 -8.6863516029648054 4.9115880704953554 -1 0 0 I I #
coedge $-1 $188 $188 $-1 $284 reversed $108 $-1 #
edge $-1 $285 0 $285 6.2831853071796004 $109 $286 forward 7 unknown #
vertex $-1 $112 $287 #
ellipse-curve $-1 47.225671109927049 -13.155691403909707 2.5449649195444315 0.77714596973225614 0 0.62932038083071107 0.31466019041535553 0 -0.38857298486612807 1 I I #
coedge $-1 $192 $192 $-1 $288 reversed $115 $-1 #
edge $-1 $289 0 $289 6.2831853071796004 $116 $290 forward 7 unknown #
vertex $-1 $119 $291 #
ellipse-curve $-1 47.225671109927049 -10.474087523342765 2.5449649195444315 0.77714596973225614 0 0.62932038083071107 0.31466019041535553 0 -0.38857298486612807 1 I I #
face $-1 $-1 $135 $18 $-1 $292 reversed single #
loop $-1 $-1 $212 $120 #
plane-surface $-1 0 19.930403257699211 0 0 -1 0 0 0 -1 forward_v I I I I #
coedge $-1 $293 $210 $213 $294 forward $121 $-1 #
coedge $-1 $216 $123 $124 $204 reversed $75 $-1 #
coedge $-1 $210 $293 $123 $202 reversed $121 $-1 #
edge $-1 $217 -4.9115880704953501 $295 4.9115880704953501 $201 $296 forward 7 unknown #
coedge $-1 $125 $124 $293 $297 forward $49 $-1 #
edge $-1 $208 -49.142124698629715 $295 49.142124698629715 $200 $298 forward 7 unknown #
coedge $-1 $213 $212 $125 $206 reversed $197 $-1 #
edge $-1 $299 -49.142124698629715 $207 49.142124698629715 $205 $300 forward 7 unknown #
vertex $-1 $127 $301 #
vertex $-1 $219 $302 #
straight-curve $-1 49.142124698629715 0 -4.9115880704953501 0 -1 0 I I #
coedge $-1 $199 $201 $128 $211 reversed $121 $-1 #
edge $-1 $214 -19.930403257699211 $217 19.930403257699211 $210 $303 forward 7 unknown #
coedge $-1 $205 $129 $134 $220 forward $197 $-1 #
coedge $-1 $129 $205 $199 $294 reversed $197 $-1 #
vertex $-1 $130 $304 #
straight-curve $-1 0 19.930403257699211 4.9115880704953501 -1 0 0 I I #
coedge $-1 $131 $200 $133 $219 reversed $75 $-1 #
vertex $-1 $211 $305 #
straight-curve $-1 0 -19.930403257699211 4.9115880704953501 1 0 0 I I #
edge $-1 $136 -4.9115880704953501 $208 4.9115880704953501 $133 $306 forward 7 unknown #
edge $-1 $137 -4.9115880704953501 $207 4.9115880704953501 $134 $307 forward 7 unknown #
point $-1 49.142124698629715 -19.930403257699211 4.9115880704953501 #
point $-1 49.142124698629715 19.930403257699211 4.9115880704953501 #
face $-1 $-1 $233 $19 $-1 $308 reversed single #
loop $-1 $-1 $229 $139 #
plane-surface $-1 0 0 -4.9115880704953501 0 0 1 1 0 0 forward_v I I I I #
coedge $-1 $309 $310 $147 $237 forward $140 $-1 #
coedge $-1 $142 $241 $231 $311 forward $83 $-1 #
edge $-1 $235 -11.211945612202491 $152 -6.2249696787909485 $142 $312 forward 7 unknown #
coedge $-1 $313 $148 $143 $230 forward $224 $-1 #
edge $-1 $153 6.2249696787909485 $234 11.211945612202491 $229 $314 forward 7 unknown #
coedge $-1 $315 $145 $227 $311 reversed $233 $-1 #
coedge $-1 $145 $315 $313 $316 reversed $233 $-1 #
loop $-1 $-1 $145 $223 #
vertex $-1 $316 $317 #
vertex $-1 $146 $318 #
straight-curve $-1 -46.142124698629715 -19.930403257699211 0 0 0 1 I I #
edge $-1 $242 -4.9115880704953501 $239 4.9115880704953501 $226 $319 forward 7 unknown #
coedge $-1 $148 $313 $309 $320 forward $224 $-1 #
vertex $-1 $149 $321 #
straight-curve $-1 -23.821062349314857 -14.943427324287669 -4.9115880704953501 1 0 0 I I #
coedge $-1 $227 $150 $310 $322 forward $83 $-1 #
vertex $-1 $322 $323 #
straight-curve $-1 -23.821062349314857 -14.943427324287669 4.9115880704953501 -1 0 0 I I #
point $-1 -46.142124698629715 -14.943427324287669 4.9115880704953501 #
point $-1 -46.142124698629715 -14.943427324287669 -4.9115880704953501 #
face $-1 $-1 $324 $20 $-1 $325 reversed single #
loop $-1 $-1 $252 $155 #
plane-surface $-1 0 0 4.9115880704953501 0 0 1 1 0 0 forward_v I I I I #
coedge $-1 $158 $257 $326 $327 forward $91 $-1 #
edge $-1 $328 -11.211945612202491 $255 -6.2249696787909485 $158 $329 forward 7 unknown #
coedge $-1 $160 $159 $330 $331 reversed $57 $-1 #
coedge $-1 $332 $165 $160 $253 forward $247 $-1 #
edge $-1 $254 6.2249696787909485 $333 11.211945612202491 $252 $334 forward 7 unknown #
vertex $-1 $166 $335 #
vertex $-1 $164 $336 #
straight-curve $-1 -46.142124698629715 14.943427324287669 0 0 0 -1 I I #
coedge $-1 $249 $163 $168 $263 forward $91 $-1 #
straight-curve $-1 -23.821062349314857 14.943427324287669 -4.9115880704953501 -1 0 0 I I #
coedge $-1 $165 $332 $167 $262 forward $247 $-1 #
straight-curve $-1 -23.821062349314857 14.943427324287669 4.9115880704953501 1 0 0 I I #
coedge $-1 $168 $167 $337 $338 forward $156 $-1 #
edge $-1 $339 -19.930403257699211 $170 -14.943427324287669 $167 $340 forward 7 unknown #
edge $-1 $169 14.943427324287669 $341 19.930403257699211 $168 $342 forward 7 unknown #
point $-1 -49.142124698629715 14.943427324287669 -4.9115880704953501 #
point $-1 -49.142124698629715 14.943427324287669 4.9115880704953501 #
plane-surface $-1 0 0 4.9115880704953501 0 0 1 1 0 0 forward_v I I I I #
coedge $-1 $277 $276 $269 $343 forward $173 $-1 #
coedge $-1 $269 $175 $177 $273 reversed $99 $-1 #
coedge $-1 $175 $268 $267 $343 reversed $99 $-1 #
coedge $-1 $183 $178 $175 $271 forward $184 $-1 #
edge $-1 $274 13.473691648461397 $344 17.306598825866757 $270 $345 forward 7 unknown #
coedge $-1 $177 $176 $277 $346 reversed $61 $-1 #
edge $-1 $347 -98.28424939725943 $274 -92.193699505412809 $268 $348 forward 7 unknown #
vertex $-1 $179 $349 #
straight-curve $-1 45.309217521224355 -5.9074447318131185 4.9115880704953554 0 -1 0 I I #
coedge $-1 $267 $180 $183 $281 reversed $173 $-1 #
coedge $-1 $180 $267 $272 $346 forward $173 $-1 #
vertex $-1 $181 $350 #
straight-curve $-1 49.142124698629715 -8.6863516029648054 69.20591566808875 0 0 1 I I #
straight-curve $-1 -12.710156561714172 -8.6863516029648054 76.559550075833613 0.62932038083071107 0 -0.77714596973225614 I I #
edge $-1 $344 -14.943427324287669 $185 -8.6863516029648054 $276 $351 forward 7 unknown #
point $-1 49.142124698629715 -8.6863516029648054 4.9115880704953501 #
point $-1 45.309217521224355 -8.6863516029648054 4.9115880704953554 #
edge $-1 $352 1 $352 0 $188 $-1 forward 7 unknown #
vertex $-1 $189 $353 #
ellipse-curve $-1 46.448525140194789 -13.155691403909707 1.9156445387137206 0.77714596973225614 0 0.62932038083071107 0.31466019041535553 0 -0.38857298486612807 1 I I #
point $-1 47.540331300342402 -13.155691403909707 2.1563919346783038 #
edge $-1 $354 1 $354 0 $192 $-1 forward 7 unknown #
vertex $-1 $193 $355 #
ellipse-curve $-1 46.448525140194789 -10.474087523342765 1.9156445387137206 0.77714596973225614 0 0.62932038083071107 0.31466019041535553 0 -0.38857298486612807 1 I I #
point $-1 47.540331300342402 -10.474087523342765 2.1563919346783038 #
plane-surface $-1 49.142124698629715 0 0 -1 0 0 0 0 1 forward_v I I I I #
coedge $-1 $201 $199 $203 $297 reversed $121 $-1 #
edge $-1 $214 -4.9115880704953501 $299 4.9115880704953501 $213 $356 forward 7 unknown #
vertex $-1 $297 $357 #
straight-curve $-1 -49.142124698629715 -19.930403257699211 0 0 0 -1 I I #
edge $-1 $295 -19.930403257699211 $299 19.930403257699211 $293 $358 forward 7 unknown #
straight-curve $-1 0 -19.930403257699211 -4.9115880704953501 -1 0 0 I I #
vertex $-1 $206 $359 #
straight-curve $-1 0 19.930403257699211 -4.9115880704953501 1 0 0 I I #
point $-1 49.142124698629715 19.930403257699211 -4.9115880704953501 #
point $-1 49.142124698629715 -19.930403257699211 -4.9115880704953501 #
straight-curve $-1 -49.142124698629715 0 4.9115880704953501 0 -1 0 I I #
point $-1 -49.142124698629715 19.930403257699211 4.9115880704953501 #
point $-1 -49.142124698629715 -19.930403257699211 4.9115880704953501 #
straight-curve $-1 49.142124698629715 -19.930403257699211 0 0 0 -1 I I #
straight-curve $-1 49.142124698629715 19.930403257699211 0 0 0 -1 I I #
plane-surface $-1 0 -19.930403257699211 0 0 1 0 0 0 1 forward_v I I I I #
coedge $-1 $360 $226 $238 $320 reversed $140 $-1 #
coedge $-1 $226 $360 $241 $322 reversed $140 $-1 #
edge $-1 $361 -49.142124698629715 $235 -46.142124698629715 $231 $362 forward 7 unknown #
straight-curve $-1 -46.142124698629715 -8.71845764549672 4.9115880704953501 0 1 0 I I #
coedge $-1 $238 $229 $232 $316 forward $224 $-1 #
straight-curve $-1 -46.142124698629715 -8.71845764549672 -4.9115880704953501 0 -1 0 I I #
coedge $-1 $232 $231 $360 $363 forward $233 $-1 #
edge $-1 $234 46.142124698629715 $364 49.142124698629715 $232 $365 forward 7 unknown #
point $-1 -46.142124698629715 -19.930403257699211 -4.9115880704953501 #
point $-1 -46.142124698629715 -19.930403257699211 4.9115880704953501 #
straight-curve $-1 -49.142124698629715 -14.943427324287669 0 0 0 -1 I I #
edge $-1 $364 -19.930403257699211 $239 -14.943427324287669 $309 $366 forward 7 unknown #
point $-1 -49.142124698629715 -14.943427324287669 -4.9115880704953501 #
edge $-1 $242 14.943427324287669 $361 19.930403257699211 $310 $367 forward 7 unknown #
point $-1 -49.142124698629715 -14.943427324287669 4.9115880704953501 #
loop $-1 $-1 $330 $246 #
plane-surface $-1 0 19.930403257699211 0 0 -1 0 0 0 -1 forward_v I I I I #
coedge $-1 $337 $330 $249 $327 reversed $324 $-1 #
edge $-1 $341 -49.142124698629715 $328 -46.142124698629715 $326 $368 forward 7 unknown #
vertex $-1 $250 $369 #
straight-curve $-1 -46.142124698629715 8.71845764549672 -4.9115880704953501 0 -1 0 I I #
coedge $-1 $326 $370 $251 $331 forward $324 $-1 #
edge $-1 $333 -4.9115880704953501 $328 4.9115880704953501 $330 $371 forward 7 unknown #
coedge $-1 $259 $252 $370 $372 forward $247 $-1 #
vertex $-1 $372 $373 #
straight-curve $-1 -46.142124698629715 8.71845764549672 4.9115880704953501 0 1 0 I I #
point $-1 -46.142124698629715 14.943427324287669 4.9115880704953501 #
point $-1 -46.142124698629715 14.943427324287669 -4.9115880704953501 #
coedge $-1 $370 $326 $261 $338 reversed $324 $-1 #
edge $-1 $339 -4.9115880704953501 $341 4.9115880704953501 $337 $374 forward 7 unknown #
vertex $-1 $372 $375 #
straight-curve $-1 -49.142124698629715 0 4.9115880704953501 0 -1 0 I I #
vertex $-1 $327 $376 #
straight-curve $-1 -49.142124698629715 0 -4.9115880704953501 0 1 0 I I #
edge $-1 $344 64.294327597593394 $347 69.027573899495223 $267 $377 forward 7 unknown #
vertex $-1 $281 $378 #
straight-curve $-1 31.835525872762958 -14.943427324287669 4.9115880704953554 1 0 0 I I #
edge $-1 $347 -9.03598259247455 $278 -2.7789068711516869 $277 $379 forward 7 unknown #
vertex $-1 $346 $380 #
straight-curve $-1 -12.710156561714172 -14.943427324287669 76.559550075833613 -0.62932038083071107 0 0.77714596973225614 I I #
point $-1 45.309217521224355 -14.943427324287669 4.9115880704953554 #
point $-1 49.142124698629715 -8.6863516029648054 0.17834176859352624 #
straight-curve $-1 49.142124698629715 0 4.9115880704953501 0 1 0 I I #
vertex $-1 $284 $381 #
point $-1 46.763185330610142 -13.155691403909707 1.5270715538475925 #
vertex $-1 $288 $382 #
point $-1 46.763185330610142 -10.474087523342765 1.5270715538475925 #
straight-curve $-1 -49.142124698629715 19.930403257699211 0 0 0 -1 I I #
point $-1 -49.142124698629715 -19.930403257699211 -4.9115880704953501 #
straight-curve $-1 -49.142124698629715 0 -4.9115880704953501 0 1 0 I I #
point $-1 -49.142124698629715 19.930403257699211 -4.9115880704953501 #
coedge $-1 $310 $309 $315 $363 reversed $140 $-1 #
vertex $-1 $322 $383 #
straight-curve $-1 0 -19.930403257699211 4.9115880704953501 1 0 0 I I #
edge $-1 $361 -4.9115880704953501 $364 4.9115880704953501 $360 $384 forward 7 unknown #
vertex $-1 $320 $385 #
straight-curve $-1 0 -19.930403257699211 -4.9115880704953501 -1 0 0 I I #
straight-curve $-1 -49.142124698629715 0 -4.9115880704953501 0 1 0 I I #
straight-curve $-1 -49.142124698629715 0 4.9115880704953501 0 -1 0 I I #
straight-curve $-1 0 19.930403257699211 -4.9115880704953501 1 0 0 I I #
point $-1 -46.142124698629715 19.930403257699211 -4.9115880704953501 #
coedge $-1 $330 $337 $332 $372 reversed $324 $-1 #
straight-curve $-1 -46.142124698629715 19.930403257699211 0 0 0 -1 I I #
edge $-1 $333 46.142124698629715 $339 49.142124698629715 $370 $386 forward 7 unknown #
point $-1 -46.142124698629715 19.930403257699211 4.9115880704953501 #
straight-curve $-1 -49.142124698629715 19.930403257699211 0 0 0 -1 I I #
point $-1 -49.142124698629715 19.930403257699211 4.9115880704953501 #
point $-1 -49.142124698629715 19.930403257699211 -4.9115880704953501 #
straight-curve $-1 49.142124698629715 -14.943427324287669 69.20591566808875 0 0 -1 I I #
point $-1 49.142124698629715 -14.943427324287669 4.9115880704953501 #
straight-curve $-1 49.142124698629715 -5.9074447318131185 0.17834176859352624 0 1 0 I I #
point $-1 49.142124698629715 -14.943427324287669 0.17834176859352624 #
point $-1 46.059952155328659 -13.155691403909707 1.6009843482983652 #
point $-1 46.059952155328659 -10.474087523342765 1.6009843482983652 #
point $-1 -49.142124698629715 -19.930403257699211 4.9115880704953501 #
straight-curve $-1 -49.142124698629715 -19.930403257699211 0 0 0 -1 I I #
point $-1 -49.142124698629715 -19.930403257699211 -4.9115880704953501 #
straight-curve $-1 0 19.930403257699211 4.9115880704953501 -1 0 0 I I #
End-of-ACIS-data 