500 0 8 0           
7 Unknown 11 ACIS 5.0 NT 24 Fri Mar 26 14:58:11 1999 
-1 9.9999999999999995e-007 1e-010 
body $-1 $8 $-1 $9 #
body $-1 $10 $-1 $11 #
body $-1 $12 $-1 $13 #
body $-1 $14 $-1 $15 #
body $-1 $16 $-1 $17 #
body $-1 $18 $-1 $19 #
body $-1 $20 $-1 $21 #
body $-1 $22 $-1 $23 #
lump $-1 $-1 $24 $0 #
transform $-1 1 0 0 0 1 0 0 0 1 61.675466170232248 29.21523936159123 6.6799980108333896 1 rotate no_reflect no_shear #
lump $-1 $-1 $25 $1 #
transform $-1 1 0 0 0 1 0 0 0 1 61.675466170232248 29.21523936159123 6.6799980108333896 1 rotate no_reflect no_shear #
lump $-1 $-1 $26 $2 #
transform $-1 1 0 0 0 1 0 0 0 1 61.675466170232248 29.21523936159123 6.6799980108333896 1 rotate no_reflect no_shear #
lump $-1 $-1 $27 $3 #
transform $-1 1 0 0 0 1 0 0 0 1 61.675466170232248 29.21523936159123 6.6799980108333896 1 rotate no_reflect no_shear #
lump $-1 $-1 $28 $4 #
transform $-1 1 0 0 0 1 0 0 0 1 61.675466170232248 29.21523936159123 6.6799980108333896 1 rotate no_reflect no_shear #
lump $-1 $-1 $29 $5 #
transform $-1 1 0 0 0 1 0 0 0 1 61.675466170232248 29.21523936159123 6.6799980108333896 1 rotate no_reflect no_shear #
lump $-1 $-1 $30 $6 #
transform $-1 1 0 0 0 1 0 0 0 1 61.675466170232248 29.21523936159123 6.6799980108333896 1 rotate no_reflect no_shear #
lump $-1 $-1 $31 $7 #
transform $-1 1 0 0 0 1 0 0 0 1 61.675466170232248 29.21523936159123 6.6799980108333896 1 rotate no_reflect no_shear #
shell $-1 $-1 $-1 $32 $-1 $8 #
shell $-1 $-1 $-1 $33 $-1 $10 #
shell $-1 $-1 $-1 $34 $-1 $12 #
shell $-1 $-1 $-1 $35 $-1 $14 #
shell $-1 $-1 $-1 $36 $-1 $16 #
shell $-1 $-1 $-1 $37 $-1 $18 #
shell $-1 $-1 $-1 $38 $-1 $20 #
shell $-1 $-1 $-1 $39 $-1 $22 #
face $-1 $40 $41 $24 $-1 $42 forward single #
face $-1 $43 $44 $25 $-1 $45 forward single #
face $-1 $46 $47 $26 $-1 $48 forward single #
face $-1 $49 $50 $27 $-1 $51 reversed single #
face $-1 $52 $53 $28 $-1 $54 forward single #
face $-1 $55 $56 $29 $-1 $57 forward single #
face $-1 $58 $59 $30 $-1 $60 reversed single #
face $-1 $61 $62 $31 $-1 $63 forward single #
face $-1 $64 $65 $24 $-1 $66 reversed single #
loop $-1 $-1 $67 $32 #
plane-surface $-1 0 0 6.6799980108333896 0 0 1 1 0 0 forward_v I I I I #
face $-1 $68 $69 $25 $-1 $70 reversed single #
loop $-1 $-1 $71 $33 #
plane-surface $-1 -61.675466170232248 0 0 1 0 0 0 0 -1 forward_v I I I I #
face $-1 $72 $73 $26 $-1 $74 reversed single #
loop $-1 $-1 $75 $34 #
plane-surface $-1 61.675466170232248 0 0 -1 0 0 0 0 1 forward_v I I I I #
face $-1 $76 $77 $27 $-1 $78 reversed single #
loop $-1 $-1 $79 $35 #
plane-surface $-1 -33.652197210041535 54.44784921639507 136.09768644844218 1 0 0 0 -0.5877852598018023 -0.80901698891910034 forward_v I I I I #
face $-1 $80 $81 $28 $-1 $82 forward single #
loop $-1 $83 $84 $36 #
cone-surface $-1 -25.46730566148765 25.075625005344271 3.0931045732118689 0 -0.5877852598018023 -0.80901698891910034 1.5 0 0 1 I I 0 1 1.5 forward I I I I #
face $-1 $85 $86 $29 $-1 $87 forward single #
loop $-1 $88 $89 $37 #
cone-surface $-1 -13.189968338656826 25.075625005344271 3.0931045732118689 0 -0.5877852598018023 -0.80901698891910034 1.5 0 0 1 I I 0 1 1.5 forward I I I I #
face $-1 $90 $91 $30 $-1 $92 reversed single #
loop $-1 $-1 $93 $38 #
plane-surface $-1 -33.990971727330262 -137.10039662113536 60.393692721710025 -1 0 0 0 -0.87461971476443456 0.48480960649040278 forward_v I I I I #
face $-1 $94 $95 $31 $-1 $96 forward single #
loop $-1 $97 $98 $39 #
cone-surface $-1 -44.019063829790021 -26.374004103802648 2.9963628185264723 0 0.87461971476443456 -0.48480960649040278 1 0 0 1 I I 0 1 1 forward I I I I #
face $-1 $99 $100 $24 $-1 $101 reversed single #
loop $-1 $-1 $102 $40 #
plane-surface $-1 0 0 -6.6799980108333896 0 0 1 1 0 0 forward_v I I I I #
coedge $-1 $103 $104 $105 $106 forward $41 $-1 #
face $-1 $107 $108 $25 $-1 $109 forward single #
loop $-1 $-1 $110 $43 #
plane-surface $-1 0 29.21523936159123 0 0 -1 0 0 0 -1 forward_v I I I I #
coedge $-1 $111 $112 $113 $114 forward $44 $-1 #
face $-1 $115 $116 $26 $-1 $117 forward single #
loop $-1 $-1 $118 $46 #
plane-surface $-1 0 -29.21523936159123 0 0 1 0 0 0 1 forward_v I I I I #
coedge $-1 $119 $120 $121 $122 forward $47 $-1 #
face $-1 $123 $124 $27 $-1 $125 reversed single #
loop $-1 $-1 $126 $49 #
plane-surface $-1 -19.328637000072241 -18.056010596139387 36.30468658599591 0 0.5877852598018023 0.80901698891910034 1 0 0 forward_v I I I I #
coedge $-1 $127 $128 $129 $130 reversed $50 $-1 #
face $-1 $-1 $131 $28 $-1 $132 forward single #
loop $-1 $133 $134 $52 #
cone-surface $-1 -25.46730566148765 23.743354203841236 1.2593911646444953 0 -0.5877852598018023 -0.80901698891910034 0.75 0 0 1 I I -0.70710678118654757 0.70710678118654757 0.75 forward I I I I #
loop $-1 $-1 $135 $36 #
coedge $-1 $84 $84 $136 $137 reversed $53 $-1 #
face $-1 $-1 $138 $29 $-1 $139 forward single #
loop $-1 $140 $141 $55 #
cone-surface $-1 -13.189968338656826 23.743354203841236 1.2593911646444953 0 -0.5877852598018023 -0.80901698891910034 0.75 0 0 1 I I -0.70710678118654757 0.70710678118654757 0.75 forward I I I I #
loop $-1 $-1 $142 $37 #
coedge $-1 $89 $89 $143 $144 reversed $56 $-1 #
face $-1 $145 $146 $30 $-1 $147 reversed single #
loop $-1 $-1 $148 $58 #
plane-surface $-1 -44.019063829790028 -29.21523936159123 0.59197575350513176 0 -0.87461971476443456 0.48480960649040278 1 0 0 forward_v I I I I #
coedge $-1 $149 $150 $151 $152 reversed $59 $-1 #
face $-1 $-1 $153 $31 $-1 $154 forward single #
loop $-1 $155 $156 $61 #
cone-surface $-1 -44.019063829790021 -24.782781847387138 2.1143339516384794 0 0.87461971476443456 -0.48480960649040278 0.5 0 0 1 I I -0.70710678118654735 0.70710678118654768 0.5 forward I I I I #
loop $-1 $-1 $157 $39 #
coedge $-1 $98 $98 $158 $159 reversed $62 $-1 #
face $-1 $160 $161 $24 $-1 $162 reversed single #
loop $-1 $-1 $163 $64 #
plane-surface $-1 0 -29.21523936159123 0 0 1 0 0 0 1 forward_v I I I I #
coedge $-1 $164 $165 $166 $167 forward $65 $-1 #
coedge $-1 $168 $67 $169 $170 forward $41 $-1 #
coedge $-1 $67 $168 $171 $172 forward $41 $-1 #
coedge $-1 $173 $174 $67 $106 reversed $175 $-1 #
edge $-1 $176 -29.21523936159123 $177 29.21523936159123 $105 $178 forward 7 unknown #
face $-1 $179 $180 $25 $-1 $181 reversed single #
loop $-1 $-1 $113 $68 #
plane-surface $-1 -65.489621289223479 0 -2.1699622736746464 0 0 1 1 0 0 forward_v I I I I #
coedge $-1 $182 $183 $112 $184 forward $69 $-1 #
coedge $-1 $185 $71 $186 $187 reversed $44 $-1 #
coedge $-1 $71 $185 $110 $184 reversed $44 $-1 #
coedge $-1 $188 $189 $71 $114 reversed $108 $-1 #
edge $-1 $190 -29.21523936159123 $191 29.21523936159123 $113 $192 forward 7 unknown #
face $-1 $193 $194 $26 $-1 $195 reversed single #
loop $-1 $-1 $196 $72 #
plane-surface $-1 65.489621289223464 0 -2.1699622736746464 0 0 1 1 0 0 forward_v I I I I #
coedge $-1 $197 $198 $120 $199 forward $73 $-1 #
coedge $-1 $200 $75 $201 $202 reversed $47 $-1 #
coedge $-1 $75 $200 $118 $199 reversed $47 $-1 #
coedge $-1 $203 $204 $75 $122 reversed $116 $-1 #
edge $-1 $205 -29.21523936159123 $206 29.21523936159123 $121 $207 forward 7 unknown #
face $-1 $208 $209 $27 $-1 $210 reversed single #
loop $-1 $-1 $211 $76 #
plane-surface $-1 -5.0050767901029438 54.44784921639507 136.09768644844218 -1 0 0 0 0.5877852598018023 0.80901698891910034 forward_v I I I I #
coedge $-1 $212 $213 $214 $215 reversed $77 $-1 #
coedge $-1 $128 $79 $216 $217 reversed $50 $-1 #
coedge $-1 $79 $127 $212 $218 reversed $50 $-1 #
coedge $-1 $214 $219 $79 $130 forward $220 $-1 #
edge $-1 $221 -1.991314753393695 $222 4.5050502457968875 $129 $223 forward 7 unknown #
loop $-1 $-1 $136 $80 #
plane-surface $-1 -19.328637000072241 -18.056010596139387 36.30468658599591 0 0.5877852598018023 0.80901698891910034 1 0 0 forward_v I I I I #
loop $-1 $-1 $224 $52 #
coedge $-1 $134 $134 $135 $225 reversed $81 $-1 #
coedge $-1 $135 $135 $134 $225 forward $83 $-1 #
coedge $-1 $136 $136 $84 $137 forward $131 $-1 #
edge $-1 $226 -1.9122895279978898e-015 $226 6.2831853071795987 $136 $227 forward 7 unknown #
loop $-1 $-1 $143 $85 #
plane-surface $-1 -19.328637000072241 -18.056010596139387 36.30468658599591 0 0.5877852598018023 0.80901698891910034 1 0 0 forward_v I I I I #
loop $-1 $-1 $228 $55 #
coedge $-1 $141 $141 $142 $229 reversed $86 $-1 #
coedge $-1 $142 $142 $141 $229 forward $88 $-1 #
coedge $-1 $143 $143 $89 $144 forward $138 $-1 #
edge $-1 $230 -1.9122895279978898e-015 $230 6.2831853071795987 $143 $231 forward 7 unknown #
face $-1 $232 $233 $30 $-1 $234 forward single #
loop $-1 $-1 $235 $90 #
plane-surface $-1 -54.047155932249794 -137.10039662113536 60.393692721710025 1 0 0 0 0.87461971476443456 -0.48480960649040278 forward_v I I I I #
coedge $-1 $236 $237 $238 $239 reversed $91 $-1 #
coedge $-1 $150 $93 $240 $241 reversed $59 $-1 #
coedge $-1 $93 $149 $236 $242 reversed $59 $-1 #
coedge $-1 $238 $243 $93 $152 forward $233 $-1 #
edge $-1 $244 39.33495894897645 $245 42.709604666487031 $151 $246 forward 7 unknown #
loop $-1 $-1 $158 $94 #
plane-surface $-1 -44.019063829790028 -29.21523936159123 0.59197575350513176 0 -0.87461971476443456 0.48480960649040278 1 0 0 forward_v I I I I #
loop $-1 $-1 $247 $61 #
coedge $-1 $156 $156 $157 $248 reversed $95 $-1 #
coedge $-1 $157 $157 $156 $248 forward $97 $-1 #
coedge $-1 $158 $158 $98 $159 forward $153 $-1 #
edge $-1 $249 -9.4557136449429248e-016 $249 6.2831853071795996 $158 $250 forward 7 unknown #
face $-1 $251 $252 $24 $-1 $253 reversed single #
loop $-1 $-1 $254 $99 #
plane-surface $-1 -61.675466170232248 0 0 1 0 0 0 0 -1 forward_v I I I I #
coedge $-1 $255 $171 $256 $257 forward $100 $-1 #
coedge $-1 $258 $102 $255 $259 forward $65 $-1 #
coedge $-1 $102 $258 $260 $261 forward $65 $-1 #
coedge $-1 $174 $173 $102 $167 reversed $175 $-1 #
edge $-1 $262 -29.21523936159123 $263 29.21523936159123 $166 $264 forward 7 unknown #
coedge $-1 $104 $103 $265 $266 forward $41 $-1 #
coedge $-1 $267 $268 $103 $170 reversed $252 $-1 #
edge $-1 $177 -61.675466170232248 $269 61.675466170232248 $169 $270 forward 7 unknown #
coedge $-1 $163 $271 $104 $172 reversed $100 $-1 #
edge $-1 $272 -61.675466170232248 $176 61.675466170232248 $171 $273 forward 7 unknown #
coedge $-1 $166 $105 $271 $274 forward $175 $-1 #
coedge $-1 $105 $166 $267 $275 reversed $175 $-1 #
loop $-1 $-1 $173 $251 #
vertex $-1 $106 $276 #
vertex $-1 $106 $277 #
straight-curve $-1 61.675466170232248 0 6.6799980108333896 0 1 0 I I #
face $-1 $278 $279 $25 $-1 $280 reversed single #
loop $-1 $-1 $281 $107 #
plane-surface $-1 -65.489621289223479 0 -5.1699622736746464 0 0 1 1 0 0 forward_v I I I I #
coedge $-1 $282 $110 $283 $284 reversed $69 $-1 #
coedge $-1 $110 $282 $188 $285 reversed $69 $-1 #
edge $-1 $190 2.1699622736746464 $286 5.1699622736746464 $110 $287 forward 7 unknown #
coedge $-1 $112 $111 $281 $288 forward $44 $-1 #
coedge $-1 $289 $290 $111 $187 forward $291 $-1 #
edge $-1 $292 -5.1699622736746464 $191 -2.1699622736746464 $186 $293 forward 7 unknown #
coedge $-1 $294 $113 $183 $285 forward $108 $-1 #
coedge $-1 $113 $294 $289 $295 forward $108 $-1 #
vertex $-1 $184 $296 #
vertex $-1 $295 $297 #
straight-curve $-1 -61.675466170232248 0 -2.1699622736746464 0 -1 0 I I #
face $-1 $298 $299 $26 $-1 $300 reversed single #
loop $-1 $-1 $301 $115 #
plane-surface $-1 65.489621289223464 0 -5.1699622736746464 0 0 1 1 0 0 forward_v I I I I #
coedge $-1 $204 $203 $302 $303 forward $116 $-1 #
coedge $-1 $304 $118 $305 $306 reversed $73 $-1 #
coedge $-1 $118 $304 $203 $307 reversed $73 $-1 #
edge $-1 $205 2.1699622736746464 $308 5.1699622736746464 $118 $309 forward 7 unknown #
coedge $-1 $120 $119 $310 $311 forward $47 $-1 #
coedge $-1 $312 $313 $119 $202 forward $314 $-1 #
edge $-1 $315 -5.1699622736746464 $206 -2.1699622736746464 $201 $316 forward 7 unknown #
coedge $-1 $196 $121 $198 $307 forward $116 $-1 #
coedge $-1 $121 $196 $312 $317 forward $116 $-1 #
vertex $-1 $199 $318 #
vertex $-1 $317 $319 #
straight-curve $-1 61.675466170232248 0 -2.1699622736746464 0 1 0 I I #
face $-1 $-1 $220 $27 $-1 $320 forward single #
loop $-1 $-1 $321 $123 #
plane-surface $-1 0 29.21523936159123 0 0 -1 0 0 0 -1 forward_v I I I I #
coedge $-1 $322 $323 $324 $325 reversed $124 $-1 #
coedge $-1 $326 $126 $128 $218 forward $77 $-1 #
coedge $-1 $126 $326 $322 $327 forward $77 $-1 #
coedge $-1 $324 $129 $126 $215 forward $220 $-1 #
edge $-1 $222 -23.987878710005415 $328 4.6592417099331769 $214 $329 forward 7 unknown #
coedge $-1 $330 $331 $127 $217 forward $209 $-1 #
edge $-1 $332 -66.088730754874646 $221 -61.368845213387701 $216 $333 forward 7 unknown #
edge $-1 $222 50.400529923380162 $332 58.430478723182439 $128 $334 forward 7 unknown #
coedge $-1 $129 $324 $330 $335 forward $220 $-1 #
loop $-1 $-1 $324 $208 #
vertex $-1 $217 $336 #
vertex $-1 $130 $337 #
straight-curve $-1 -33.652197210041535 27.223924608197535 6.679998010833387 0 -1 0 I I #
coedge $-1 $224 $224 $-1 $338 reversed $133 $-1 #
edge $-1 $339 0 $339 6.2831853071796004 $134 $340 forward 7 unknown #
vertex $-1 $137 $341 #
ellipse-curve $-1 -25.46730566148765 25.96705686199595 4.3200552400899079 0 0.5877852598018023 0.80901698891910034 1.5 0 0 1 I I #
coedge $-1 $228 $228 $-1 $342 reversed $140 $-1 #
edge $-1 $343 0 $343 6.2831853071796004 $141 $344 forward 7 unknown #
vertex $-1 $144 $345 #
ellipse-curve $-1 -13.189968338656826 25.96705686199595 4.3200552400899079 0 0.5877852598018023 0.80901698891910034 1.5 0 0 1 I I #
face $-1 $-1 $346 $30 $-1 $347 reversed single #
loop $-1 $-1 $151 $145 #
plane-surface $-1 0 0 6.6799980108333896 0 0 1 1 0 0 forward_v I I I I #
coedge $-1 $348 $349 $350 $351 reversed $146 $-1 #
coedge $-1 $352 $148 $150 $242 forward $91 $-1 #
coedge $-1 $148 $352 $348 $353 forward $91 $-1 #
coedge $-1 $350 $151 $148 $239 forward $233 $-1 #
edge $-1 $245 11.981439812435248 $354 32.03762401735478 $238 $355 forward 7 unknown #
coedge $-1 $356 $357 $149 $241 forward $346 $-1 #
edge $-1 $358 -29.604870607349881 $244 -23.516848350021622 $240 $359 forward 7 unknown #
edge $-1 $245 -6.9607649525347979 $358 0 $150 $360 forward 7 unknown #
coedge $-1 $151 $350 $356 $361 forward $233 $-1 #
vertex $-1 $241 $362 #
vertex $-1 $152 $363 #
straight-curve $-1 -33.990971727330262 -68.55019831056768 6.6799980108333905 0 1 0 I I #
coedge $-1 $247 $247 $-1 $364 reversed $155 $-1 #
edge $-1 $365 0 $365 6.2831853071796004 $156 $366 forward 7 unknown #
vertex $-1 $159 $367 #
ellipse-curve $-1 -44.019063829790021 -27.527916502835936 3.6359868821692629 0 -0.87461971476443456 0.48480960649040278 1 0 0 1 I I #
face $-1 $-1 $175 $24 $-1 $368 reversed single #
loop $-1 $-1 $267 $160 #
plane-surface $-1 0 29.21523936159123 0 0 -1 0 0 0 -1 forward_v I I I I #
coedge $-1 $369 $265 $268 $370 forward $161 $-1 #
coedge $-1 $271 $163 $164 $259 reversed $100 $-1 #
coedge $-1 $265 $369 $163 $257 reversed $161 $-1 #
edge $-1 $272 -6.6799980108333896 $371 6.6799980108333896 $256 $372 forward 7 unknown #
coedge $-1 $165 $164 $369 $373 forward $65 $-1 #
edge $-1 $263 -61.675466170232248 $371 61.675466170232248 $255 $374 forward 7 unknown #
coedge $-1 $268 $267 $165 $261 reversed $252 $-1 #
edge $-1 $375 -61.675466170232248 $262 61.675466170232248 $260 $376 forward 7 unknown #
vertex $-1 $167 $377 #
vertex $-1 $274 $378 #
straight-curve $-1 61.675466170232248 0 -6.6799980108333896 0 -1 0 I I #
coedge $-1 $254 $256 $168 $266 reversed $161 $-1 #
edge $-1 $269 -29.21523936159123 $272 29.21523936159123 $265 $379 forward 7 unknown #
coedge $-1 $260 $169 $174 $275 forward $252 $-1 #
coedge $-1 $169 $260 $254 $370 reversed $252 $-1 #
vertex $-1 $170 $380 #
straight-curve $-1 0 29.21523936159123 6.6799980108333896 -1 0 0 I I #
coedge $-1 $171 $255 $173 $274 reversed $100 $-1 #
vertex $-1 $266 $381 #
straight-curve $-1 0 -29.21523936159123 6.6799980108333896 1 0 0 I I #
edge $-1 $176 -6.6799980108333896 $263 6.6799980108333896 $173 $382 forward 7 unknown #
edge $-1 $177 -6.6799980108333896 $262 6.6799980108333896 $174 $383 forward 7 unknown #
point $-1 61.675466170232248 -29.21523936159123 6.6799980108333896 #
point $-1 61.675466170232248 29.21523936159123 6.6799980108333896 #
face $-1 $-1 $291 $25 $-1 $384 reversed single #
loop $-1 $-1 $385 $179 #
plane-surface $-1 -69.303776408214716 0 -3.6699622736746464 1 0 0 0 0 -1 forward_v I I I I #
coedge $-1 $386 $283 $185 $288 reversed $180 $-1 #
coedge $-1 $183 $182 $385 $387 reversed $69 $-1 #
coedge $-1 $281 $388 $182 $284 forward $180 $-1 #
edge $-1 $389 -3.8141551189912377 $286 3.8141551189912306 $182 $390 forward 7 unknown #
edge $-1 $190 -3.8141551189912306 $391 3.8141551189912377 $183 $392 forward 7 unknown #
vertex $-1 $184 $393 #
straight-curve $-1 -61.675466170232248 29.21523936159123 0 0 0 -1 I I #
edge $-1 $292 -29.21523936159123 $286 29.21523936159123 $281 $394 forward 7 unknown #
coedge $-1 $395 $186 $189 $295 reversed $291 $-1 #
coedge $-1 $186 $395 $386 $396 reversed $291 $-1 #
loop $-1 $-1 $186 $278 #
vertex $-1 $187 $397 #
straight-curve $-1 -61.675466170232248 -29.21523936159123 0 0 0 1 I I #
coedge $-1 $189 $188 $398 $399 forward $108 $-1 #
edge $-1 $400 -3.8141551189912377 $191 3.8141551189912306 $289 $401 forward 7 unknown #
point $-1 -61.675466170232248 29.21523936159123 -2.1699622736746464 #
point $-1 -61.675466170232248 -29.21523936159123 -2.1699622736746464 #
face $-1 $-1 $314 $26 $-1 $402 reversed single #
loop $-1 $-1 $403 $193 #
plane-surface $-1 69.303776408214702 0 -3.6699622736746464 -1 0 0 0 0 1 forward_v I I I I #
coedge $-1 $305 $404 $405 $406 forward $194 $-1 #
coedge $-1 $403 $407 $196 $303 reversed $299 $-1 #
edge $-1 $408 -29.21523936159123 $409 29.21523936159123 $302 $410 forward 7 unknown #
coedge $-1 $198 $197 $403 $411 reversed $73 $-1 #
coedge $-1 $310 $301 $197 $306 forward $194 $-1 #
edge $-1 $412 -3.8141551189912377 $308 3.8141551189912306 $197 $413 forward 7 unknown #
edge $-1 $205 -3.8141551189912306 $408 3.8141551189912377 $198 $414 forward 7 unknown #
vertex $-1 $199 $415 #
straight-curve $-1 61.675466170232248 -29.21523936159123 0 0 0 -1 I I #
coedge $-1 $404 $305 $200 $311 reversed $194 $-1 #
edge $-1 $315 -29.21523936159123 $308 29.21523936159123 $310 $416 forward 7 unknown #
coedge $-1 $417 $201 $204 $317 reversed $314 $-1 #
coedge $-1 $201 $417 $404 $418 reversed $314 $-1 #
loop $-1 $-1 $201 $298 #
vertex $-1 $202 $419 #
straight-curve $-1 61.675466170232248 29.21523936159123 0 0 0 1 I I #
edge $-1 $409 -3.8141551189912377 $206 3.8141551189912306 $312 $420 forward 7 unknown #
point $-1 61.675466170232234 -29.21523936159123 -2.1699622736746464 #
point $-1 61.675466170232234 29.21523936159123 -2.1699622736746464 #
plane-surface $-1 0 0 6.6799980108333896 0 0 1 1 0 0 forward_v I I I I #
coedge $-1 $331 $330 $323 $421 forward $209 $-1 #
coedge $-1 $323 $211 $213 $327 reversed $124 $-1 #
coedge $-1 $211 $322 $321 $421 reversed $124 $-1 #
coedge $-1 $219 $214 $211 $325 forward $220 $-1 #
edge $-1 $328 -4.5050502457968875 $422 1.991314753393695 $324 $423 forward 7 unknown #
coedge $-1 $213 $212 $331 $424 reversed $77 $-1 #
edge $-1 $425 -58.430478723182439 $328 -50.400529923380162 $322 $426 forward 7 unknown #
vertex $-1 $215 $427 #
straight-curve $-1 -9.6643185000361207 22.718874362400644 6.6799980108333905 1 0 0 I I #
coedge $-1 $321 $216 $219 $335 reversed $209 $-1 #
coedge $-1 $216 $321 $326 $424 forward $209 $-1 #
vertex $-1 $217 $428 #
straight-curve $-1 -33.652197210041535 29.21523936159123 68.048843224221088 0 0 1 I I #
straight-curve $-1 -33.652197210041535 -18.056010596139387 36.30468658599591 0 0.80901698891910034 -0.5877852598018023 I I #
edge $-1 $422 5.0050767901029438 $221 33.652197210041535 $330 $429 forward 7 unknown #
point $-1 -33.652197210041535 29.21523936159123 6.6799980108333896 #
point $-1 -33.652197210041535 22.718874362400648 6.6799980108333905 #
edge $-1 $430 1 $430 0 $224 $-1 forward 7 unknown #
vertex $-1 $225 $431 #
ellipse-curve $-1 -25.46730566148765 24.184193148692586 1.8661539063338206 0 0.5877852598018023 0.80901698891910034 1.5 0 0 1 I I #
point $-1 -23.96730566148765 25.967056861995953 4.3200552400899177 #
edge $-1 $432 1 $432 0 $228 $-1 forward 7 unknown #
vertex $-1 $229 $433 #
ellipse-curve $-1 -13.189968338656826 24.184193148692586 1.8661539063338206 0 0.5877852598018023 0.80901698891910034 1.5 0 0 1 I I #
point $-1 -11.689968338656826 25.967056861995953 4.3200552400899177 #
loop $-1 $-1 $240 $232 #
plane-surface $-1 0 -29.21523936159123 0 0 1 0 0 0 1 forward_v I I I I #
coedge $-1 $349 $235 $237 $353 reversed $146 $-1 #
coedge $-1 $235 $348 $434 $435 reversed $146 $-1 #
coedge $-1 $243 $238 $235 $351 forward $233 $-1 #
edge $-1 $354 -42.709604666487031 $436 -39.33495894897645 $350 $437 forward 7 unknown #
coedge $-1 $237 $236 $357 $438 reversed $91 $-1 #
edge $-1 $439 0 $354 6.9607649525347979 $348 $440 forward 7 unknown #
vertex $-1 $239 $441 #
straight-curve $-1 -22.009531914895014 -25.840593644080649 6.6799980108333896 -1 0 0 I I #
coedge $-1 $434 $240 $243 $361 reversed $346 $-1 #
coedge $-1 $240 $434 $352 $438 forward $346 $-1 #
vertex $-1 $241 $442 #
straight-curve $-1 -33.990971727330262 -29.21523936159123 30.196846360855012 0 0 1 I I #
straight-curve $-1 -33.990971727330262 -29.21523936159123 0.59197575350513176 0 -0.48480960649040278 -0.87461971476443456 I I #
edge $-1 $436 -54.047155932249794 $244 -33.990971727330262 $356 $443 forward 7 unknown #
point $-1 -33.990971727330262 -29.21523936159123 6.6799980108333896 #
point $-1 -33.990971727330262 -25.840593644080649 6.6799980108333896 #
edge $-1 $444 1 $444 0 $247 $-1 forward 7 unknown #
vertex $-1 $248 $445 #
ellipse-curve $-1 -44.019063829790021 -25.220091704769356 2.3567387548836809 0 -0.87461971476443456 0.48480960649040278 1 0 0 1 I I #
point $-1 -43.019063829790021 -27.527916502835939 3.6359868821692638 #
plane-surface $-1 61.675466170232248 0 0 -1 0 0 0 0 1 forward_v I I I I #
coedge $-1 $256 $254 $258 $373 reversed $161 $-1 #
edge $-1 $269 -6.6799980108333896 $375 6.6799980108333896 $268 $446 forward 7 unknown #
vertex $-1 $373 $447 #
straight-curve $-1 -61.675466170232248 -29.21523936159123 0 0 0 -1 I I #
edge $-1 $371 -29.21523936159123 $375 29.21523936159123 $369 $448 forward 7 unknown #
straight-curve $-1 0 -29.21523936159123 -6.6799980108333896 -1 0 0 I I #
vertex $-1 $261 $449 #
straight-curve $-1 0 29.21523936159123 -6.6799980108333896 1 0 0 I I #
point $-1 61.675466170232248 29.21523936159123 -6.6799980108333896 #
point $-1 61.675466170232248 -29.21523936159123 -6.6799980108333896 #
straight-curve $-1 -61.675466170232248 0 6.6799980108333896 0 -1 0 I I #
point $-1 -61.675466170232248 29.21523936159123 6.6799980108333896 #
point $-1 -61.675466170232248 -29.21523936159123 6.6799980108333896 #
straight-curve $-1 61.675466170232248 -29.21523936159123 0 0 0 -1 I I #
straight-curve $-1 61.675466170232248 29.21523936159123 0 0 0 -1 I I #
plane-surface $-1 0 -29.21523936159123 0 0 1 0 0 0 1 forward_v I I I I #
coedge $-1 $450 $398 $282 $387 forward $279 $-1 #
coedge $-1 $388 $281 $290 $396 forward $180 $-1 #
edge $-1 $391 -1.5 $389 1.5 $282 $451 forward 7 unknown #
coedge $-1 $283 $386 $450 $452 forward $180 $-1 #
vertex $-1 $284 $453 #
straight-curve $-1 -65.489621289223479 29.21523936159123 -5.1699622736746464 1 0 0 I I #
vertex $-1 $285 $454 #
straight-curve $-1 -65.489621289223479 29.21523936159123 -2.1699622736746464 -1 0 0 I I #
point $-1 -61.675466170232248 29.21523936159123 -5.1699622736746464 #
straight-curve $-1 -61.675466170232248 0 -5.1699622736746464 0 1 0 I I #
coedge $-1 $290 $289 $455 $456 forward $291 $-1 #
edge $-1 $292 -3.8141551189912306 $457 3.8141551189912377 $290 $458 forward 7 unknown #
point $-1 -61.675466170232248 -29.21523936159123 -5.1699622736746464 #
coedge $-1 $385 $455 $294 $399 reversed $279 $-1 #
edge $-1 $391 -29.21523936159123 $400 29.21523936159123 $398 $459 forward 7 unknown #
vertex $-1 $399 $460 #
straight-curve $-1 -65.489621289223479 -29.21523936159123 -2.1699622736746464 1 0 0 I I #
plane-surface $-1 0 29.21523936159123 0 0 -1 0 0 0 -1 forward_v I I I I #
coedge $-1 $405 $302 $304 $411 forward $299 $-1 #
coedge $-1 $301 $310 $313 $418 forward $194 $-1 #
coedge $-1 $407 $403 $301 $406 reversed $299 $-1 #
edge $-1 $461 -29.21523936159123 $412 29.21523936159123 $405 $462 forward 7 unknown #
coedge $-1 $302 $405 $417 $463 reversed $299 $-1 #
vertex $-1 $303 $464 #
vertex $-1 $303 $465 #
straight-curve $-1 69.303776408214702 0 -2.1699622736746464 0 1 0 I I #
edge $-1 $408 -1.5 $412 1.5 $403 $466 forward 7 unknown #
vertex $-1 $411 $467 #
straight-curve $-1 65.489621289223464 -29.21523936159123 -5.1699622736746464 -1 0 0 I I #
straight-curve $-1 65.489621289223464 -29.21523936159123 -2.1699622736746464 1 0 0 I I #
point $-1 61.675466170232234 -29.21523936159123 -5.1699622736746464 #
straight-curve $-1 61.675466170232248 0 -5.1699622736746464 0 -1 0 I I #
coedge $-1 $313 $312 $407 $463 forward $314 $-1 #
edge $-1 $315 -3.8141551189912306 $461 3.8141551189912377 $313 $468 forward 7 unknown #
point $-1 61.675466170232234 29.21523936159123 -5.1699622736746464 #
straight-curve $-1 65.489621289223464 29.21523936159123 -2.1699622736746464 -1 0 0 I I #
edge $-1 $422 61.368845213387701 $425 66.088730754874646 $321 $469 forward 7 unknown #
vertex $-1 $335 $470 #
straight-curve $-1 -5.0050767901029438 27.223924608197535 6.679998010833387 0 1 0 I I #
edge $-1 $425 -4.6592417099331769 $332 23.987878710005415 $331 $471 forward 7 unknown #
vertex $-1 $424 $472 #
straight-curve $-1 -5.0050767901029438 -18.056010596139387 36.30468658599591 0 -0.80901698891910034 0.5877852598018023 I I #
point $-1 -5.0050767901029438 22.718874362400648 6.6799980108333905 #
point $-1 -33.652197210041535 29.21523936159123 1.9601124693464413 #
straight-curve $-1 0 29.21523936159123 6.6799980108333896 -1 0 0 I I #
vertex $-1 $338 $473 #
point $-1 -23.96730566148765 24.184193148692586 1.8661539063338206 #
vertex $-1 $342 $474 #
point $-1 -11.689968338656826 24.184193148692586 1.8661539063338206 #
coedge $-1 $357 $356 $349 $435 forward $346 $-1 #
edge $-1 $436 23.516848350021622 $439 29.604870607349881 $434 $475 forward 7 unknown #
vertex $-1 $361 $476 #
straight-curve $-1 -54.047155932249794 -68.55019831056768 6.6799980108333905 0 -1 0 I I #
edge $-1 $439 -32.03762401735478 $358 -11.981439812435248 $357 $477 forward 7 unknown #
vertex $-1 $438 $478 #
straight-curve $-1 -54.047155932249794 -29.21523936159123 0.59197575350513176 0 0.48480960649040278 0.87461971476443456 I I #
point $-1 -54.047155932249794 -25.840593644080649 6.6799980108333896 #
point $-1 -33.990971727330262 -29.21523936159123 0.59197575350513176 #
straight-curve $-1 0 -29.21523936159123 6.6799980108333896 1 0 0 I I #
vertex $-1 $364 $479 #
point $-1 -43.019063829790021 -25.220091704769356 2.3567387548836809 #
straight-curve $-1 -61.675466170232248 29.21523936159123 0 0 0 -1 I I #
point $-1 -61.675466170232248 -29.21523936159123 -6.6799980108333896 #
straight-curve $-1 -61.675466170232248 0 -6.6799980108333896 0 1 0 I I #
point $-1 -61.675466170232248 29.21523936159123 -6.6799980108333896 #
coedge $-1 $455 $385 $388 $452 reversed $279 $-1 #
straight-curve $-1 -69.303776408214716 29.21523936159123 -3.6699622736746464 0 0 -1 I I #
edge $-1 $457 -29.21523936159123 $389 29.21523936159123 $450 $480 forward 7 unknown #
point $-1 -69.303776408214716 29.21523936159123 -5.1699622736746464 #
point $-1 -69.303776408214716 29.21523936159123 -2.1699622736746464 #
coedge $-1 $398 $450 $395 $456 reversed $279 $-1 #
edge $-1 $400 -1.5 $457 1.5 $455 $481 forward 7 unknown #
vertex $-1 $452 $482 #
straight-curve $-1 -65.489621289223479 -29.21523936159123 -5.1699622736746464 -1 0 0 I I #
straight-curve $-1 -69.303776408214716 0 -2.1699622736746464 0 -1 0 I I #
point $-1 -69.303776408214716 -29.21523936159123 -2.1699622736746464 #
vertex $-1 $406 $483 #
straight-curve $-1 69.303776408214702 0 -5.1699622736746464 0 -1 0 I I #
edge $-1 $409 -1.5 $461 1.5 $407 $484 forward 7 unknown #
point $-1 69.303776408214702 -29.21523936159123 -2.1699622736746464 #
point $-1 69.303776408214702 29.21523936159123 -2.1699622736746464 #
straight-curve $-1 69.303776408214702 -29.21523936159123 -3.6699622736746464 0 0 -1 I I #
point $-1 69.303776408214702 -29.21523936159123 -5.1699622736746464 #
straight-curve $-1 65.489621289223464 29.21523936159123 -5.1699622736746464 1 0 0 I I #
straight-curve $-1 -5.0050767901029438 29.21523936159123 68.048843224221088 0 0 -1 I I #
point $-1 -5.0050767901029438 29.21523936159123 6.6799980108333896 #
straight-curve $-1 -9.6643185000361207 29.21523936159123 1.9601124693464342 -1 0 0 I I #
point $-1 -5.0050767901029438 29.21523936159123 1.9601124693464413 #
point $-1 -25.46730566148765 23.302515258989885 0.65262842295516998 #
point $-1 -13.189968338656826 23.302515258989885 0.65262842295516998 #
straight-curve $-1 -54.047155932249794 -29.21523936159123 30.196846360855012 0 0 -1 I I #
point $-1 -54.047155932249794 -29.21523936159123 6.6799980108333896 #
straight-curve $-1 -22.009531914895014 -29.21523936159123 0.59197575350512999 1 0 0 I I #
point $-1 -54.047155932249794 -29.21523936159123 0.59197575350513176 #
point $-1 -44.019063829790021 -24.345471990004921 1.8719291483932778 #
straight-curve $-1 -69.303776408214716 0 -5.1699622736746464 0 1 0 I I #
straight-curve $-1 -69.303776408214716 -29.21523936159123 -3.6699622736746464 0 0 -1 I I #
point $-1 -69.303776408214716 -29.21523936159123 -5.1699622736746464 #
point $-1 69.303776408214702 29.21523936159123 -5.1699622736746464 #
straight-curve $-1 69.303776408214702 29.21523936159123 -3.6699622736746464 0 0 -1 I I #
End-of-ACIS-data 