500 0 6 0           
7 Unknown 11 ACIS 5.0 NT 24 Fri Mar 26 15:39:54 1999 
-1 9.9999999999999995e-007 1e-010 
body $-1 $6 $-1 $7 #
body $-1 $8 $-1 $9 #
body $-1 $10 $-1 $11 #
body $-1 $12 $-1 $13 #
body $-1 $14 $-1 $15 #
body $-1 $16 $-1 $17 #
lump $-1 $-1 $18 $0 #
transform $-1 1 0 0 0 1 0 0 0 1 73.365276039918214 35.46798113188099 10.84843736985537 1 rotate no_reflect no_shear #
lump $-1 $-1 $19 $1 #
transform $-1 1 0 0 0 1 0 0 0 1 73.365276039918214 35.46798113188099 10.84843736985537 1 rotate no_reflect no_shear #
lump $-1 $-1 $20 $2 #
transform $-1 1 0 0 0 1 0 0 0 1 73.365276039918214 35.46798113188099 10.84843736985537 1 rotate no_reflect no_shear #
lump $-1 $-1 $21 $3 #
transform $-1 1 0 0 0 1 0 0 0 1 73.365276039918214 35.46798113188099 10.84843736985537 1 rotate no_reflect no_shear #
lump $-1 $-1 $22 $4 #
transform $-1 1 0 0 0 1 0 0 0 1 73.365276039918214 35.46798113188099 10.84843736985537 1 rotate no_reflect no_shear #
lump $-1 $-1 $23 $5 #
transform $-1 1 0 0 0 1 0 0 0 1 73.365276039918214 35.46798113188099 10.84843736985537 1 rotate no_reflect no_shear #
shell $-1 $-1 $-1 $24 $-1 $6 #
shell $-1 $-1 $-1 $25 $-1 $8 #
shell $-1 $-1 $-1 $26 $-1 $10 #
shell $-1 $-1 $-1 $27 $-1 $12 #
shell $-1 $-1 $-1 $28 $-1 $14 #
shell $-1 $-1 $-1 $29 $-1 $16 #
face $-1 $30 $31 $18 $-1 $32 forward single #
face $-1 $33 $34 $19 $-1 $35 reversed single #
face $-1 $36 $37 $20 $-1 $38 reversed single #
face $-1 $39 $40 $21 $-1 $41 reversed single #
face $-1 $42 $43 $22 $-1 $44 forward single #
face $-1 $45 $46 $23 $-1 $47 forward single #
face $-1 $48 $49 $18 $-1 $50 reversed single #
loop $-1 $-1 $51 $24 #
plane-surface $-1 0 0 10.84843736985537 0 0 1 1 0 0 forward_v I I I I #
face $-1 $52 $53 $19 $-1 $54 reversed single #
loop $-1 $-1 $55 $25 #
plane-surface $-1 -67.079572173478468 -17.040767874064159 0 0 1 0 0 0 1 forward_v I I I I #
face $-1 $56 $57 $20 $-1 $58 reversed single #
loop $-1 $-1 $59 $26 #
plane-surface $-1 66.317403812005139 0 6.0996511956318074 0 0 1 1 0 0 forward_v I I I I #
face $-1 $60 $61 $21 $-1 $62 reversed single #
loop $-1 $-1 $63 $27 #
plane-surface $-1 23.95476810496536 107.42069683311577 152.42822394108882 1 0 0 0 -0.78801076186113728 -0.61566146476048833 forward_v I I I I #
face $-1 $64 $65 $22 $-1 $66 forward single #
loop $-1 $67 $68 $28 #
cone-surface $-1 29.52794939206548 32.380555769053338 7.5295260649415319 0 -0.78801076186113728 -0.61566146476048833 1 0 0 1 I I 0 1 1 forward I I I I #
face $-1 $69 $70 $23 $-1 $71 forward single #
loop $-1 $72 $73 $29 #
cone-surface $-1 37.887721322715677 32.380555769053338 7.5295260649415319 0 -0.78801076186113728 -0.61566146476048833 1 0 0 1 I I 0 1 1 forward I I I I #
face $-1 $74 $75 $18 $-1 $76 reversed single #
loop $-1 $-1 $77 $30 #
plane-surface $-1 0 0 -10.84843736985537 0 0 1 1 0 0 forward_v I I I I #
coedge $-1 $78 $79 $80 $81 forward $31 $-1 #
face $-1 $82 $83 $19 $-1 $84 reversed single #
loop $-1 $-1 $85 $33 #
plane-surface $-1 -67.079572173478468 -13.771106392170253 0 0 -1 0 0 0 -1 forward_v I I I I #
coedge $-1 $86 $87 $88 $89 reversed $34 $-1 #
face $-1 $90 $91 $20 $-1 $92 reversed single #
loop $-1 $-1 $93 $36 #
plane-surface $-1 59.26953158409205 0 8.4740442827435896 1 0 0 0 0 -1 forward_v I I I I #
coedge $-1 $94 $95 $96 $97 reversed $37 $-1 #
face $-1 $98 $99 $21 $-1 $100 reversed single #
loop $-1 $-1 $101 $39 #
plane-surface $-1 33.707835357390579 -8.2045572996214133 62.091877322501603 0 0.78801076186113728 0.61566146476048833 1 0 0 forward_v I I I I #
coedge $-1 $102 $103 $104 $105 reversed $40 $-1 #
face $-1 $-1 $106 $22 $-1 $107 forward single #
loop $-1 $108 $109 $42 #
cone-surface $-1 29.52794939206548 30.717513250372889 6.2302148847343215 0 -0.78801076186113728 -0.61566146476048833 0.5 0 0 1 I I -0.70710678118654746 0.70710678118654746 0.5 forward I I I I #
loop $-1 $-1 $110 $28 #
coedge $-1 $68 $68 $111 $112 reversed $43 $-1 #
face $-1 $-1 $113 $23 $-1 $114 forward single #
loop $-1 $115 $116 $45 #
cone-surface $-1 37.887721322715677 30.717513250372889 6.2302148847343215 0 -0.78801076186113728 -0.61566146476048833 0.5 0 0 1 I I -0.70710678118654746 0.70710678118654746 0.5 forward I I I I #
loop $-1 $-1 $117 $29 #
coedge $-1 $73 $73 $118 $119 reversed $46 $-1 #
face $-1 $120 $121 $18 $-1 $122 reversed single #
loop $-1 $-1 $123 $48 #
plane-surface $-1 0 -35.46798113188099 0 0 1 0 0 0 1 forward_v I I I I #
coedge $-1 $124 $125 $126 $127 forward $49 $-1 #
coedge $-1 $128 $51 $129 $130 forward $31 $-1 #
coedge $-1 $51 $128 $131 $132 forward $31 $-1 #
coedge $-1 $133 $134 $51 $81 reversed $135 $-1 #
edge $-1 $136 -35.46798113188099 $137 35.46798113188099 $80 $138 forward 7 unknown #
face $-1 $139 $140 $19 $-1 $141 reversed single #
loop $-1 $-1 $142 $52 #
plane-surface $-1 -60.793868307038714 -15.405937133117206 0 -1 0 0 0 0 1 forward_v I I I I #
coedge $-1 $143 $144 $145 $146 forward $53 $-1 #
coedge $-1 $147 $55 $148 $149 reversed $34 $-1 #
coedge $-1 $55 $147 $150 $151 reversed $34 $-1 #
coedge $-1 $152 $153 $55 $89 forward $154 $-1 #
edge $-1 $155 -10.84843736985537 $156 10.84843736985537 $88 $157 forward 7 unknown #
face $-1 $158 $159 $20 $-1 $160 reversed single #
loop $-1 $-1 $161 $56 #
plane-surface $-1 0 -35.46798113188099 0 0 1 0 0 0 1 forward_v I I I I #
coedge $-1 $162 $163 $164 $165 reversed $57 $-1 #
coedge $-1 $166 $59 $167 $168 reversed $37 $-1 #
coedge $-1 $59 $166 $169 $170 reversed $37 $-1 #
coedge $-1 $171 $172 $59 $97 forward $159 $-1 #
edge $-1 $173 -35.46798113188099 $174 35.46798113188099 $96 $175 forward 7 unknown #
face $-1 $176 $177 $21 $-1 $178 reversed single #
loop $-1 $-1 $179 $60 #
plane-surface $-1 43.460902609815797 107.42069683311577 152.42822394108882 -1 0 0 0 0.78801076186113728 0.61566146476048833 forward_v I I I I #
coedge $-1 $180 $181 $182 $183 reversed $61 $-1 #
coedge $-1 $103 $63 $184 $185 reversed $40 $-1 #
coedge $-1 $63 $102 $180 $186 reversed $40 $-1 #
coedge $-1 $182 $187 $63 $105 forward $188 $-1 #
edge $-1 $189 18.242367284676895 $190 21.879143734832418 $104 $191 forward 7 unknown #
loop $-1 $-1 $111 $64 #
plane-surface $-1 33.707835357390579 -8.2045572996214133 62.091877322501603 0 0.78801076186113728 0.61566146476048833 1 0 0 forward_v I I I I #
loop $-1 $-1 $192 $42 #
coedge $-1 $109 $109 $110 $193 reversed $65 $-1 #
coedge $-1 $110 $110 $109 $193 forward $67 $-1 #
coedge $-1 $111 $111 $68 $112 forward $106 $-1 #
edge $-1 $194 1.2246154106822541e-015 $194 6.2831853071796013 $111 $195 forward 7 unknown #
loop $-1 $-1 $118 $69 #
plane-surface $-1 33.707835357390579 -8.2045572996214133 62.091877322501603 0 0.78801076186113728 0.61566146476048833 1 0 0 forward_v I I I I #
loop $-1 $-1 $196 $45 #
coedge $-1 $116 $116 $117 $197 reversed $70 $-1 #
coedge $-1 $117 $117 $116 $197 forward $72 $-1 #
coedge $-1 $118 $118 $73 $119 forward $113 $-1 #
edge $-1 $198 1.2246154106822541e-015 $198 6.2831853071796013 $118 $199 forward 7 unknown #
face $-1 $200 $201 $18 $-1 $202 reversed single #
loop $-1 $-1 $203 $74 #
plane-surface $-1 -73.365276039918214 0 0 1 0 0 0 0 -1 forward_v I I I I #
coedge $-1 $204 $131 $205 $206 forward $75 $-1 #
coedge $-1 $207 $77 $204 $208 forward $49 $-1 #
coedge $-1 $77 $207 $209 $210 forward $49 $-1 #
coedge $-1 $134 $133 $77 $127 reversed $135 $-1 #
edge $-1 $211 -35.46798113188099 $212 35.46798113188099 $126 $213 forward 7 unknown #
coedge $-1 $79 $78 $214 $215 forward $31 $-1 #
coedge $-1 $216 $217 $78 $130 reversed $201 $-1 #
edge $-1 $137 -73.365276039918214 $218 73.365276039918214 $129 $219 forward 7 unknown #
coedge $-1 $123 $220 $79 $132 reversed $75 $-1 #
edge $-1 $221 -73.365276039918214 $136 73.365276039918214 $131 $222 forward 7 unknown #
coedge $-1 $126 $80 $220 $223 forward $135 $-1 #
coedge $-1 $80 $126 $216 $224 reversed $135 $-1 #
loop $-1 $-1 $133 $200 #
vertex $-1 $81 $225 #
vertex $-1 $81 $226 #
straight-curve $-1 73.365276039918214 0 10.84843736985537 0 1 0 I I #
face $-1 $227 $228 $19 $-1 $229 forward single #
loop $-1 $-1 $230 $82 #
plane-surface $-1 0 0 -10.84843736985537 0 0 1 1 0 0 forward_v I I I I #
coedge $-1 $231 $232 $147 $233 forward $83 $-1 #
coedge $-1 $234 $85 $230 $235 reversed $53 $-1 #
coedge $-1 $85 $234 $236 $237 reversed $53 $-1 #
coedge $-1 $232 $231 $85 $146 reversed $83 $-1 #
edge $-1 $238 -10.84843736985537 $239 10.84843736985537 $145 $240 forward 7 unknown #
coedge $-1 $87 $86 $142 $233 reversed $34 $-1 #
coedge $-1 $241 $242 $86 $149 forward $140 $-1 #
edge $-1 $243 27.25408222029948 $155 39.82548995317898 $148 $244 forward 7 unknown #
coedge $-1 $245 $246 $87 $151 forward $228 $-1 #
edge $-1 $156 -39.82548995317898 $247 -27.25408222029948 $150 $248 forward 7 unknown #
coedge $-1 $249 $88 $246 $250 reversed $154 $-1 #
coedge $-1 $88 $249 $241 $251 reversed $154 $-1 #
loop $-1 $-1 $249 $227 #
vertex $-1 $251 $252 #
vertex $-1 $89 $253 #
straight-curve $-1 -73.365276039918214 -17.040767874064159 0 0 0 1 I I #
face $-1 $254 $255 $20 $-1 $256 forward single #
loop $-1 $-1 $96 $90 #
plane-surface $-1 73.365276039918214 0 0 -1 0 0 0 0 1 forward_v I I I I #
coedge $-1 $167 $257 $258 $259 forward $91 $-1 #
coedge $-1 $258 $93 $166 $260 reversed $57 $-1 #
coedge $-1 $93 $258 $261 $262 reversed $57 $-1 #
coedge $-1 $263 $169 $93 $165 forward $264 $-1 #
edge $-1 $265 1.8626290542600126 $266 6.611415228483577 $164 $267 forward 7 unknown #
coedge $-1 $95 $94 $162 $260 forward $37 $-1 #
coedge $-1 $268 $161 $94 $168 forward $91 $-1 #
edge $-1 $269 26.11082967808948 $173 40.206574133915659 $167 $270 forward 7 unknown #
coedge $-1 $164 $271 $95 $170 forward $264 $-1 #
edge $-1 $174 -40.206574133915659 $265 -26.11082967808948 $169 $272 forward 7 unknown #
coedge $-1 $273 $96 $271 $274 reversed $159 $-1 #
coedge $-1 $96 $273 $268 $275 forward $159 $-1 #
vertex $-1 $97 $276 #
vertex $-1 $97 $277 #
straight-curve $-1 73.365276039918214 0 6.0996511956318074 0 1 0 I I #
face $-1 $-1 $188 $21 $-1 $278 forward single #
loop $-1 $-1 $279 $98 #
plane-surface $-1 0 35.46798113188099 0 0 -1 0 0 0 -1 forward_v I I I I #
coedge $-1 $280 $281 $282 $283 reversed $99 $-1 #
coedge $-1 $284 $101 $103 $186 forward $61 $-1 #
coedge $-1 $101 $284 $280 $285 forward $61 $-1 #
coedge $-1 $282 $104 $101 $183 forward $188 $-1 #
edge $-1 $190 7.1008504262700711 $286 26.606984931120508 $182 $287 forward 7 unknown #
coedge $-1 $288 $289 $102 $185 forward $177 $-1 #
edge $-1 $290 -70.020536314862738 $189 -65.365674600689033 $184 $291 forward 7 unknown #
edge $-1 $190 65.028858021708487 $290 70.935962263761937 $103 $292 forward 7 unknown #
coedge $-1 $104 $282 $288 $293 forward $188 $-1 #
loop $-1 $-1 $282 $176 #
vertex $-1 $185 $294 #
vertex $-1 $105 $295 #
straight-curve $-1 23.95476810496536 53.710348416557885 10.848437369855375 0 -1 0 I I #
coedge $-1 $192 $192 $-1 $296 reversed $108 $-1 #
edge $-1 $297 0 $297 6.2831853071796004 $109 $298 forward 7 unknown #
vertex $-1 $112 $299 #
ellipse-curve $-1 29.52794939206548 33.649592906803228 8.5210065127685066 0 0.78801076186113728 0.61566146476048833 1 0 0 1 I I #
coedge $-1 $196 $196 $-1 $300 reversed $115 $-1 #
edge $-1 $301 0 $301 6.2831853071796004 $116 $302 forward 7 unknown #
vertex $-1 $119 $303 #
ellipse-curve $-1 37.887721322715677 33.649592906803228 8.5210065127685066 0 0.78801076186113728 0.61566146476048833 1 0 0 1 I I #
face $-1 $-1 $135 $18 $-1 $304 reversed single #
loop $-1 $-1 $216 $120 #
plane-surface $-1 0 35.46798113188099 0 0 -1 0 0 0 -1 forward_v I I I I #
coedge $-1 $305 $214 $217 $306 forward $121 $-1 #
coedge $-1 $220 $123 $124 $208 reversed $75 $-1 #
coedge $-1 $214 $305 $123 $206 reversed $121 $-1 #
edge $-1 $221 -10.84843736985537 $307 10.84843736985537 $205 $308 forward 7 unknown #
coedge $-1 $125 $124 $305 $309 forward $49 $-1 #
edge $-1 $212 -73.365276039918214 $307 73.365276039918214 $204 $310 forward 7 unknown #
coedge $-1 $217 $216 $125 $210 reversed $201 $-1 #
edge $-1 $311 -73.365276039918214 $211 73.365276039918214 $209 $312 forward 7 unknown #
vertex $-1 $127 $313 #
vertex $-1 $223 $314 #
straight-curve $-1 73.365276039918214 0 -10.84843736985537 0 -1 0 I I #
coedge $-1 $203 $205 $128 $215 reversed $121 $-1 #
edge $-1 $218 -35.46798113188099 $221 35.46798113188099 $214 $315 forward 7 unknown #
coedge $-1 $209 $129 $134 $224 forward $201 $-1 #
coedge $-1 $129 $209 $203 $306 reversed $201 $-1 #
vertex $-1 $130 $316 #
straight-curve $-1 0 35.46798113188099 10.84843736985537 -1 0 0 I I #
coedge $-1 $131 $204 $133 $223 reversed $75 $-1 #
vertex $-1 $215 $317 #
straight-curve $-1 0 -35.46798113188099 10.84843736985537 1 0 0 I I #
edge $-1 $136 -10.84843736985537 $212 10.84843736985537 $133 $318 forward 7 unknown #
edge $-1 $137 -10.84843736985537 $211 10.84843736985537 $134 $319 forward 7 unknown #
point $-1 73.365276039918214 -35.46798113188099 10.84843736985537 #
point $-1 73.365276039918214 35.46798113188099 10.84843736985537 #
face $-1 $-1 $154 $19 $-1 $320 reversed single #
loop $-1 $-1 $236 $139 #
plane-surface $-1 0 0 10.84843736985537 0 0 1 1 0 0 forward_v I I I I #
coedge $-1 $242 $241 $143 $235 forward $140 $-1 #
coedge $-1 $145 $142 $242 $321 reversed $83 $-1 #
coedge $-1 $142 $145 $245 $322 reversed $83 $-1 #
edge $-1 $247 -10.84843736985537 $243 10.84843736985537 $142 $323 forward 7 unknown #
coedge $-1 $144 $143 $249 $324 reversed $53 $-1 #
edge $-1 $325 -39.82548995317898 $239 -27.25408222029948 $230 $326 forward 7 unknown #
coedge $-1 $246 $245 $144 $237 forward $228 $-1 #
edge $-1 $238 27.25408222029948 $327 39.82548995317898 $236 $328 forward 7 unknown #
vertex $-1 $237 $329 #
vertex $-1 $235 $330 #
straight-curve $-1 -60.793868307038714 -13.771106392170253 0 0 0 -1 I I #
coedge $-1 $230 $148 $153 $251 forward $140 $-1 #
coedge $-1 $148 $230 $231 $321 forward $140 $-1 #
vertex $-1 $149 $331 #
straight-curve $-1 -33.539786086739234 -17.040767874064159 -10.84843736985537 -1 0 0 I I #
coedge $-1 $236 $150 $232 $322 forward $228 $-1 #
coedge $-1 $150 $236 $152 $250 forward $228 $-1 #
vertex $-1 $151 $332 #
straight-curve $-1 -33.539786086739234 -17.040767874064159 10.84843736985537 1 0 0 I I #
coedge $-1 $153 $152 $234 $324 forward $154 $-1 #
edge $-1 $327 13.771106392170253 $156 17.040767874064159 $152 $333 forward 7 unknown #
edge $-1 $155 -17.040767874064159 $325 -13.771106392170253 $153 $334 forward 7 unknown #
point $-1 -73.365276039918214 -17.040767874064159 -10.84843736985537 #
point $-1 -73.365276039918214 -17.040767874064159 10.84843736985537 #
face $-1 $-1 $264 $20 $-1 $335 reversed single #
loop $-1 $-1 $261 $158 #
plane-surface $-1 0 0 10.84843736985537 0 0 1 1 0 0 forward_v I I I I #
coedge $-1 $161 $268 $336 $337 reversed $91 $-1 #
coedge $-1 $163 $162 $161 $259 reversed $57 $-1 #
edge $-1 $338 -6.611415228483577 $269 -1.8626290542600126 $161 $339 forward 7 unknown #
edge $-1 $269 -35.46798113188099 $265 35.46798113188099 $162 $340 forward 7 unknown #
coedge $-1 $336 $341 $163 $262 forward $255 $-1 #
edge $-1 $266 -35.46798113188099 $338 35.46798113188099 $261 $342 forward 7 unknown #
coedge $-1 $271 $164 $341 $343 reversed $264 $-1 #
loop $-1 $-1 $164 $254 #
vertex $-1 $170 $344 #
vertex $-1 $165 $345 #
straight-curve $-1 59.26953158409205 35.46798113188099 4.2370221413717948 0 0 1 I I #
coedge $-1 $257 $167 $172 $275 reversed $91 $-1 #
vertex $-1 $168 $346 #
straight-curve $-1 33.15870190600257 -35.46798113188099 6.0996511956318074 1 0 0 I I #
coedge $-1 $169 $263 $171 $274 forward $264 $-1 #
straight-curve $-1 33.15870190600257 35.46798113188099 6.0996511956318074 -1 0 0 I I #
coedge $-1 $172 $171 $347 $348 reversed $159 $-1 #
edge $-1 $349 -10.84843736985537 $174 -6.0996511956318074 $171 $350 forward 7 unknown #
edge $-1 $351 -10.84843736985537 $173 -6.0996511956318074 $172 $352 forward 7 unknown #
point $-1 73.365276039918228 -35.46798113188099 6.0996511956318074 #
point $-1 73.365276039918228 35.46798113188099 6.0996511956318074 #
plane-surface $-1 0 0 10.84843736985537 0 0 1 1 0 0 forward_v I I I I #
coedge $-1 $289 $288 $281 $353 forward $177 $-1 #
coedge $-1 $281 $179 $181 $285 reversed $99 $-1 #
coedge $-1 $179 $280 $279 $353 reversed $99 $-1 #
coedge $-1 $187 $182 $179 $283 forward $188 $-1 #
edge $-1 $286 -21.879143734832418 $354 -18.242367284676895 $282 $355 forward 7 unknown #
coedge $-1 $181 $180 $289 $356 reversed $61 $-1 #
edge $-1 $357 -70.935962263761937 $286 -65.028858021708487 $280 $358 forward 7 unknown #
vertex $-1 $183 $359 #
straight-curve $-1 16.853917678695289 31.831204681725467 10.848437369855368 1 0 0 I I #
coedge $-1 $279 $184 $187 $293 reversed $177 $-1 #
coedge $-1 $184 $279 $284 $356 forward $177 $-1 #
vertex $-1 $185 $360 #
straight-curve $-1 23.95476810496536 35.46798113188099 76.214111970544408 0 0 1 I I #
straight-curve $-1 23.95476810496536 -8.2045572996214133 62.091877322501603 0 0.61566146476048833 -0.78801076186113728 I I #
edge $-1 $354 -43.460902609815797 $189 -23.95476810496536 $288 $361 forward 7 unknown #
point $-1 23.95476810496536 35.46798113188099 10.84843736985537 #
point $-1 23.95476810496536 31.831204681725467 10.848437369855368 #
edge $-1 $362 1 $362 0 $192 $-1 forward 7 unknown #
vertex $-1 $193 $363 #
ellipse-curve $-1 29.52794939206548 31.111518631303458 6.538045617114566 0 0.78801076186113728 0.61566146476048833 1 0 0 1 I I #
point $-1 30.52794939206548 33.649592906803221 8.5210065127684995 #
edge $-1 $364 1 $364 0 $196 $-1 forward 7 unknown #
vertex $-1 $197 $365 #
ellipse-curve $-1 37.887721322715677 31.111518631303458 6.538045617114566 0 0.78801076186113728 0.61566146476048833 1 0 0 1 I I #
point $-1 38.887721322715677 33.649592906803221 8.5210065127684995 #
plane-surface $-1 73.365276039918214 0 0 -1 0 0 0 0 1 forward_v I I I I #
coedge $-1 $205 $203 $207 $309 reversed $121 $-1 #
edge $-1 $218 -10.84843736985537 $311 10.84843736985537 $217 $366 forward 7 unknown #
vertex $-1 $309 $367 #
straight-curve $-1 -73.365276039918214 -35.46798113188099 0 0 0 -1 I I #
edge $-1 $307 -35.46798113188099 $311 35.46798113188099 $305 $368 forward 7 unknown #
straight-curve $-1 0 -35.46798113188099 -10.84843736985537 -1 0 0 I I #
vertex $-1 $210 $369 #
straight-curve $-1 0 35.46798113188099 -10.84843736985537 1 0 0 I I #
point $-1 73.365276039918214 35.46798113188099 -10.84843736985537 #
point $-1 73.365276039918214 -35.46798113188099 -10.84843736985537 #
straight-curve $-1 -73.365276039918214 0 10.84843736985537 0 -1 0 I I #
point $-1 -73.365276039918214 35.46798113188099 10.84843736985537 #
point $-1 -73.365276039918214 -35.46798113188099 10.84843736985537 #
straight-curve $-1 73.365276039918214 -35.46798113188099 0 0 0 -1 I I #
straight-curve $-1 73.365276039918214 35.46798113188099 0 0 0 -1 I I #
plane-surface $-1 -73.365276039918214 0 0 1 0 0 0 0 -1 forward_v I I I I #
edge $-1 $239 6.0681378256116503 $243 9.3377993075055556 $242 $370 forward 7 unknown #
edge $-1 $247 -9.3377993075055556 $238 -6.0681378256116503 $245 $371 forward 7 unknown #
straight-curve $-1 -60.793868307038714 -17.040767874064159 0 0 0 -1 I I #
edge $-1 $327 -10.84843736985537 $325 10.84843736985537 $249 $372 forward 7 unknown #
vertex $-1 $324 $373 #
straight-curve $-1 -33.539786086739234 -13.771106392170253 -10.84843736985537 1 0 0 I I #
vertex $-1 $250 $374 #
straight-curve $-1 -33.539786086739234 -13.771106392170253 10.84843736985537 -1 0 0 I I #
point $-1 -60.793868307038714 -13.771106392170253 10.84843736985537 #
point $-1 -60.793868307038714 -13.771106392170253 -10.84843736985537 #
point $-1 -60.793868307038714 -17.040767874064159 -10.84843736985537 #
point $-1 -60.793868307038714 -17.040767874064159 10.84843736985537 #
straight-curve $-1 -73.365276039918214 0 10.84843736985537 0 -1 0 I I #
straight-curve $-1 -73.365276039918214 0 -10.84843736985537 0 1 0 I I #
plane-surface $-1 0 35.46798113188099 0 0 -1 0 0 0 -1 forward_v I I I I #
coedge $-1 $347 $261 $257 $337 forward $255 $-1 #
edge $-1 $338 59.26953158409205 $351 73.365276039918214 $257 $375 forward 7 unknown #
vertex $-1 $337 $376 #
straight-curve $-1 59.26953158409205 -35.46798113188099 4.2370221413717948 0 0 -1 I I #
straight-curve $-1 59.26953158409205 0 6.0996511956318074 0 1 0 I I #
coedge $-1 $261 $347 $263 $343 forward $255 $-1 #
straight-curve $-1 59.26953158409205 0 10.84843736985537 0 -1 0 I I #
edge $-1 $349 -73.365276039918214 $266 -59.26953158409205 $263 $377 forward 7 unknown #
point $-1 59.26953158409205 35.46798113188099 6.0996511956318074 #
point $-1 59.26953158409205 35.46798113188099 10.848437369855372 #
point $-1 59.26953158409205 -35.46798113188099 6.0996511956318074 #
coedge $-1 $341 $336 $273 $348 forward $255 $-1 #
edge $-1 $351 -35.46798113188099 $349 35.46798113188099 $273 $378 forward 7 unknown #
vertex $-1 $348 $379 #
straight-curve $-1 73.365276039918214 35.46798113188099 0 0 0 -1 I I #
vertex $-1 $348 $380 #
straight-curve $-1 73.365276039918214 -35.46798113188099 0 0 0 -1 I I #
edge $-1 $354 65.365674600689033 $357 70.020536314862738 $279 $381 forward 7 unknown #
vertex $-1 $293 $382 #
straight-curve $-1 43.460902609815797 53.710348416557885 10.848437369855375 0 1 0 I I #
edge $-1 $357 -26.606984931120508 $290 -7.1008504262700711 $289 $383 forward 7 unknown #
vertex $-1 $356 $384 #
straight-curve $-1 43.460902609815797 -8.2045572996214133 62.091877322501603 0 -0.61566146476048833 0.78801076186113728 I I #
point $-1 43.460902609815797 31.831204681725467 10.848437369855368 #
point $-1 23.95476810496536 35.46798113188099 6.193575655681677 #
straight-curve $-1 0 35.46798113188099 10.84843736985537 -1 0 0 I I #
vertex $-1 $296 $385 #
point $-1 30.52794939206548 31.111518631303458 6.538045617114566 #
vertex $-1 $300 $386 #
point $-1 38.887721322715677 31.111518631303458 6.538045617114566 #
straight-curve $-1 -73.365276039918214 35.46798113188099 0 0 0 -1 I I #
point $-1 -73.365276039918214 -35.46798113188099 -10.84843736985537 #
straight-curve $-1 -73.365276039918214 0 -10.84843736985537 0 1 0 I I #
point $-1 -73.365276039918214 35.46798113188099 -10.84843736985537 #
straight-curve $-1 -60.793868307038714 -7.702968566558603 -10.84843736985537 0 -1 0 I I #
straight-curve $-1 -60.793868307038714 -7.702968566558603 10.84843736985537 0 1 0 I I #
straight-curve $-1 -73.365276039918214 -13.771106392170253 0 0 0 -1 I I #
point $-1 -73.365276039918214 -13.771106392170253 -10.84843736985537 #
point $-1 -73.365276039918214 -13.771106392170253 10.84843736985537 #
straight-curve $-1 0 -35.46798113188099 10.84843736985537 1 0 0 I I #
point $-1 59.26953158409205 -35.46798113188099 10.848437369855372 #
straight-curve $-1 0 35.46798113188099 10.84843736985537 -1 0 0 I I #
straight-curve $-1 73.365276039918214 0 10.84843736985537 0 1 0 I I #
point $-1 73.365276039918214 35.46798113188099 10.84843736985537 #
point $-1 73.365276039918214 -35.46798113188099 10.84843736985537 #
straight-curve $-1 43.460902609815797 35.46798113188099 76.214111970544408 0 0 -1 I I #
point $-1 43.460902609815797 35.46798113188099 10.84843736985537 #
straight-curve $-1 16.853917678695289 35.46798113188099 6.1935756556816699 -1 0 0 I I #
point $-1 43.460902609815797 35.46798113188099 6.193575655681677 #
point $-1 29.52794939206548 30.32350786944232 5.922384152354077 #
point $-1 37.887721322715677 30.32350786944232 5.922384152354077 #
End-of-ACIS-data 