500 0 9 0           
7 Unknown 11 ACIS 5.0 NT 24 Fri Mar 26 16:56:38 1999 
-1 9.9999999999999995e-007 1e-010 
body $-1 $9 $-1 $10 #
body $-1 $11 $-1 $12 #
body $-1 $13 $-1 $14 #
body $-1 $15 $-1 $16 #
body $-1 $17 $-1 $18 #
body $-1 $19 $-1 $20 #
body $-1 $21 $-1 $22 #
body $-1 $23 $-1 $24 #
body $-1 $25 $-1 $26 #
lump $-1 $-1 $27 $0 #
transform $-1 1 0 0 0 1 0 0 0 1 57.029328287606432 36.646221036180485 8.2499012450175169 1 rotate no_reflect no_shear #
lump $-1 $-1 $28 $1 #
transform $-1 1 0 0 0 1 0 0 0 1 57.029328287606432 36.646221036180485 8.2499012450175169 1 rotate no_reflect no_shear #
lump $-1 $-1 $29 $2 #
transform $-1 1 0 0 0 1 0 0 0 1 57.029328287606432 36.646221036180485 8.2499012450175169 1 rotate no_reflect no_shear #
lump $-1 $-1 $30 $3 #
transform $-1 1 0 0 0 1 0 0 0 1 57.029328287606432 36.646221036180485 8.2499012450175169 1 rotate no_reflect no_shear #
lump $-1 $-1 $31 $4 #
transform $-1 1 0 0 0 1 0 0 0 1 57.029328287606432 36.646221036180485 8.2499012450175169 1 rotate no_reflect no_shear #
lump $-1 $-1 $32 $5 #
transform $-1 1 0 0 0 1 0 0 0 1 57.029328287606432 36.646221036180485 8.2499012450175169 1 rotate no_reflect no_shear #
lump $-1 $-1 $33 $6 #
transform $-1 1 0 0 0 1 0 0 0 1 57.029328287606432 36.646221036180485 8.2499012450175169 1 rotate no_reflect no_shear #
lump $-1 $-1 $34 $7 #
transform $-1 1 0 0 0 1 0 0 0 1 57.029328287606432 36.646221036180485 8.2499012450175169 1 rotate no_reflect no_shear #
lump $-1 $-1 $35 $8 #
transform $-1 1 0 0 0 1 0 0 0 1 57.029328287606432 36.646221036180485 8.2499012450175169 1 rotate no_reflect no_shear #
shell $-1 $-1 $-1 $36 $-1 $9 #
shell $-1 $-1 $-1 $37 $-1 $11 #
shell $-1 $-1 $-1 $38 $-1 $13 #
shell $-1 $-1 $-1 $39 $-1 $15 #
shell $-1 $-1 $-1 $40 $-1 $17 #
shell $-1 $-1 $-1 $41 $-1 $19 #
shell $-1 $-1 $-1 $42 $-1 $21 #
shell $-1 $-1 $-1 $43 $-1 $23 #
shell $-1 $-1 $-1 $44 $-1 $25 #
face $-1 $45 $46 $27 $-1 $47 forward single #
face $-1 $48 $49 $28 $-1 $50 reversed single #
face $-1 $51 $52 $29 $-1 $53 reversed single #
face $-1 $54 $55 $30 $-1 $56 reversed single #
face $-1 $57 $58 $31 $-1 $59 forward single #
face $-1 $60 $61 $32 $-1 $62 reversed single #
face $-1 $63 $64 $33 $-1 $65 forward single #
face $-1 $66 $67 $34 $-1 $68 forward single #
face $-1 $69 $70 $35 $-1 $71 forward single #
face $-1 $72 $73 $27 $-1 $74 reversed single #
loop $-1 $-1 $75 $36 #
plane-surface $-1 0 0 8.2499012450175169 0 0 1 1 0 0 forward_v I I I I #
face $-1 $76 $77 $28 $-1 $78 reversed single #
loop $-1 $-1 $79 $37 #
plane-surface $-1 -54.035835494682978 0 5.2499012450175169 0 0 1 1 0 0 forward_v I I I I #
face $-1 $80 $81 $29 $-1 $82 reversed single #
loop $-1 $-1 $83 $38 #
plane-surface $-1 54.035835494682971 0 5.2499012450175169 0 0 1 1 0 0 forward_v I I I I #
face $-1 $84 $85 $30 $-1 $86 reversed single #
loop $-1 $-1 $87 $39 #
plane-surface $-1 -18.025322850203874 85.841397765464819 128.34357173223478 1 0 0 0 -0.80901700255871778 -0.5877852410284794 forward_v I I I I #
face $-1 $88 $89 $31 $-1 $90 forward single #
loop $-1 $91 $92 $40 #
cone-surface $-1 -12.227584415141806 32.345466812515681 3.6514111237336033 0 -0.80901700255871778 -0.5877852410284794 1.5 0 0 1 I I 0 1 1.5 forward I I I I #
face $-1 $93 $94 $32 $-1 $95 reversed single #
loop $-1 $-1 $96 $41 #
plane-surface $-1 -26.291679087866648 -93.675550087835802 98.961465052081081 -1 0 0 0 -0.50000000669873634 0.8660253999169214 forward_v I I I I #
face $-1 $97 $98 $33 $-1 $99 forward single #
loop $-1 $100 $101 $42 #
cone-surface $-1 -42.004377404817369 -28.895427483498633 2.89126268781484 0 0.50000000669873634 -0.8660253999169214 1 0 0 1 I I 0 1 1 forward I I I I #
face $-1 $102 $103 $34 $-1 $104 forward single #
loop $-1 $105 $106 $43 #
cone-surface $-1 -36.112115535960847 -28.895427483498633 2.89126268781484 0 0.50000000669873634 -0.8660253999169214 1 0 0 1 I I 0 1 1 forward I I I I #
face $-1 $107 $108 $35 $-1 $109 forward single #
loop $-1 $110 $111 $44 #
cone-surface $-1 -30.219853667104328 -28.895427483498633 2.89126268781484 0 0.50000000669873634 -0.8660253999169214 1 0 0 1 I I 0 1 1 forward I I I I #
face $-1 $112 $113 $27 $-1 $114 reversed single #
loop $-1 $-1 $115 $45 #
plane-surface $-1 0 0 -8.2499012450175169 0 0 1 1 0 0 forward_v I I I I #
coedge $-1 $116 $117 $118 $119 forward $46 $-1 #
face $-1 $120 $121 $28 $-1 $122 reversed single #
loop $-1 $-1 $123 $48 #
plane-surface $-1 -51.042342701759523 0 6.7499012450175169 -1 0 0 0 0 1 forward_v I I I I #
coedge $-1 $124 $125 $126 $127 forward $49 $-1 #
face $-1 $128 $129 $29 $-1 $130 forward single #
loop $-1 $-1 $131 $51 #
plane-surface $-1 51.042342701759516 0 6.7499012450175169 1 0 0 0 0 -1 forward_v I I I I #
coedge $-1 $132 $133 $134 $135 reversed $52 $-1 #
face $-1 $136 $137 $30 $-1 $138 reversed single #
loop $-1 $-1 $139 $54 #
plane-surface $-1 -12.227584415141806 -6.4339946928880778 61.301576785788725 0 0.80901700255871778 0.5877852410284794 1 0 0 forward_v I I I I #
coedge $-1 $140 $141 $142 $143 reversed $55 $-1 #
face $-1 $-1 $144 $31 $-1 $145 forward single #
loop $-1 $146 $147 $57 #
cone-surface $-1 -12.227584415141806 29.70590903458217 1.733660199087689 0 -0.80901700255871778 -0.5877852410284794 0.75 0 0 1 I I -0.70710678118654757 0.70710678118654757 0.75 forward I I I I #
loop $-1 $-1 $148 $40 #
coedge $-1 $92 $92 $149 $150 reversed $58 $-1 #
face $-1 $151 $152 $32 $-1 $153 reversed single #
loop $-1 $-1 $154 $60 #
plane-surface $-1 -36.112115535960847 -36.646221036180499 0.18377137754556827 0 -0.50000000669873634 0.8660253999169214 1 0 0 forward_v I I I I #
coedge $-1 $155 $156 $157 $158 reversed $61 $-1 #
face $-1 $-1 $159 $33 $-1 $160 forward single #
loop $-1 $161 $162 $63 #
cone-surface $-1 -42.004377404817369 -27.880107178138957 1.1326763643896829 0 0.50000000669873634 -0.8660253999169214 0.5 0 0 1 I I -0.70710678118654746 0.70710678118654746 0.5 forward I I I I #
loop $-1 $-1 $163 $42 #
coedge $-1 $101 $101 $164 $165 reversed $64 $-1 #
face $-1 $-1 $166 $34 $-1 $167 forward single #
loop $-1 $168 $169 $66 #
cone-surface $-1 -36.112115535960847 -27.880107178138957 1.1326763643896829 0 0.50000000669873634 -0.8660253999169214 0.5 0 0 1 I I -0.70710678118654746 0.70710678118654746 0.5 forward I I I I #
loop $-1 $-1 $170 $43 #
coedge $-1 $106 $106 $171 $172 reversed $67 $-1 #
face $-1 $-1 $173 $35 $-1 $174 forward single #
loop $-1 $175 $176 $69 #
cone-surface $-1 -30.219853667104328 -27.880107178138957 1.1326763643896829 0 0.50000000669873634 -0.8660253999169214 0.5 0 0 1 I I -0.70710678118654746 0.70710678118654746 0.5 forward I I I I #
loop $-1 $-1 $177 $44 #
coedge $-1 $111 $111 $178 $179 reversed $70 $-1 #
face $-1 $180 $181 $27 $-1 $182 reversed single #
loop $-1 $-1 $183 $72 #
plane-surface $-1 0 -36.646221036180485 0 0 1 0 0 0 1 forward_v I I I I #
coedge $-1 $184 $185 $186 $187 forward $73 $-1 #
coedge $-1 $188 $75 $189 $190 forward $46 $-1 #
coedge $-1 $75 $188 $191 $192 forward $46 $-1 #
coedge $-1 $193 $194 $75 $119 reversed $195 $-1 #
edge $-1 $196 -36.646221036180485 $197 36.646221036180485 $118 $198 forward 7 unknown #
face $-1 $199 $200 $28 $-1 $201 reversed single #
loop $-1 $-1 $202 $76 #
plane-surface $-1 0 36.646221036180485 0 0 -1 0 0 0 -1 forward_v I I I I #
coedge $-1 $126 $203 $204 $205 reversed $77 $-1 #
coedge $-1 $206 $79 $207 $208 reversed $49 $-1 #
coedge $-1 $79 $206 $209 $210 reversed $49 $-1 #
coedge $-1 $211 $123 $79 $127 reversed $77 $-1 #
edge $-1 $212 -36.646221036180485 $213 36.646221036180485 $126 $214 forward 7 unknown #
face $-1 $215 $216 $29 $-1 $217 reversed single #
loop $-1 $-1 $218 $80 #
plane-surface $-1 0 0 8.2499012450175169 0 0 1 1 0 0 forward_v I I I I #
coedge $-1 $219 $220 $221 $222 reversed $81 $-1 #
coedge $-1 $223 $83 $224 $225 reversed $52 $-1 #
coedge $-1 $83 $223 $226 $227 reversed $52 $-1 #
coedge $-1 $228 $229 $83 $135 forward $230 $-1 #
edge $-1 $231 -36.646221036180485 $232 36.646221036180485 $134 $233 forward 7 unknown #
face $-1 $234 $235 $30 $-1 $236 reversed single #
loop $-1 $-1 $237 $84 #
plane-surface $-1 -6.4298459800797367 85.841397765464819 128.34357173223478 -1 0 0 0 0.80901700255871778 0.5877852410284794 forward_v I I I I #
coedge $-1 $238 $239 $240 $241 reversed $85 $-1 #
coedge $-1 $141 $87 $242 $243 reversed $55 $-1 #
coedge $-1 $87 $140 $238 $244 reversed $55 $-1 #
coedge $-1 $240 $245 $87 $143 forward $246 $-1 #
edge $-1 $247 6.2744778465519246 $248 10.81039624185258 $142 $249 forward 7 unknown #
loop $-1 $-1 $149 $88 #
plane-surface $-1 -12.227584415141806 -6.4339946928880778 61.301576785788725 0 0.80901700255871778 0.5877852410284794 1 0 0 forward_v I I I I #
loop $-1 $-1 $250 $57 #
coedge $-1 $147 $147 $148 $251 reversed $89 $-1 #
coedge $-1 $148 $148 $147 $251 forward $91 $-1 #
coedge $-1 $149 $149 $92 $150 forward $144 $-1 #
edge $-1 $252 4.7903429522875609e-016 $252 6.2831853071796013 $149 $253 forward 7 unknown #
face $-1 $254 $255 $32 $-1 $256 forward single #
loop $-1 $-1 $257 $93 #
plane-surface $-1 -45.932551984055046 -93.675550087835802 98.961465052081081 1 0 0 0 0.50000000669873634 -0.8660253999169214 forward_v I I I I #
coedge $-1 $258 $259 $260 $261 reversed $94 $-1 #
coedge $-1 $156 $96 $262 $263 reversed $61 $-1 #
coedge $-1 $96 $155 $258 $264 reversed $61 $-1 #
coedge $-1 $260 $265 $96 $158 forward $255 $-1 #
edge $-1 $266 10.191554007737416 $267 24.162500509080466 $157 $268 forward 7 unknown #
loop $-1 $-1 $164 $97 #
plane-surface $-1 -36.112115535960847 -36.646221036180499 0.18377137754556827 0 -0.50000000669873634 0.8660253999169214 1 0 0 forward_v I I I I #
loop $-1 $-1 $269 $63 #
coedge $-1 $162 $162 $163 $270 reversed $98 $-1 #
coedge $-1 $163 $163 $162 $270 forward $100 $-1 #
coedge $-1 $164 $164 $101 $165 forward $159 $-1 #
edge $-1 $271 -1.8401253154482006e-015 $271 6.2831853071795987 $164 $272 forward 7 unknown #
loop $-1 $-1 $171 $102 #
plane-surface $-1 -36.112115535960847 -36.646221036180499 0.18377137754556827 0 -0.50000000669873634 0.8660253999169214 1 0 0 forward_v I I I I #
loop $-1 $-1 $273 $66 #
coedge $-1 $169 $169 $170 $274 reversed $103 $-1 #
coedge $-1 $170 $170 $169 $274 forward $105 $-1 #
coedge $-1 $171 $171 $106 $172 forward $166 $-1 #
edge $-1 $275 -1.8401253154482006e-015 $275 6.2831853071795987 $171 $276 forward 7 unknown #
loop $-1 $-1 $178 $107 #
plane-surface $-1 -36.112115535960847 -36.646221036180499 0.18377137754556827 0 -0.50000000669873634 0.8660253999169214 1 0 0 forward_v I I I I #
loop $-1 $-1 $277 $69 #
coedge $-1 $176 $176 $177 $278 reversed $108 $-1 #
coedge $-1 $177 $177 $176 $278 forward $110 $-1 #
coedge $-1 $178 $178 $111 $179 forward $173 $-1 #
edge $-1 $279 -1.8401253154482006e-015 $279 6.2831853071795987 $178 $280 forward 7 unknown #
face $-1 $281 $282 $27 $-1 $283 reversed single #
loop $-1 $-1 $284 $112 #
plane-surface $-1 -57.029328287606432 0 0 1 0 0 0 0 -1 forward_v I I I I #
coedge $-1 $285 $191 $286 $287 forward $113 $-1 #
coedge $-1 $288 $115 $285 $289 forward $73 $-1 #
coedge $-1 $115 $288 $290 $291 forward $73 $-1 #
coedge $-1 $194 $193 $115 $187 reversed $195 $-1 #
edge $-1 $292 -36.646221036180485 $293 36.646221036180485 $186 $294 forward 7 unknown #
coedge $-1 $117 $116 $295 $296 forward $46 $-1 #
coedge $-1 $297 $298 $116 $190 reversed $282 $-1 #
edge $-1 $197 -57.029328287606432 $299 57.029328287606432 $189 $300 forward 7 unknown #
coedge $-1 $183 $301 $117 $192 reversed $113 $-1 #
edge $-1 $302 -57.029328287606432 $196 57.029328287606432 $191 $303 forward 7 unknown #
coedge $-1 $186 $118 $301 $304 forward $195 $-1 #
coedge $-1 $118 $186 $297 $305 reversed $195 $-1 #
loop $-1 $-1 $193 $281 #
vertex $-1 $119 $306 #
vertex $-1 $119 $307 #
straight-curve $-1 57.029328287606432 0 8.2499012450175169 0 1 0 I I #
face $-1 $308 $309 $28 $-1 $310 forward single #
loop $-1 $-1 $311 $120 #
plane-surface $-1 -57.029328287606432 0 0 1 0 0 0 0 -1 forward_v I I I I #
coedge $-1 $209 $312 $211 $313 forward $121 $-1 #
coedge $-1 $123 $211 $314 $315 reversed $77 $-1 #
coedge $-1 $316 $207 $123 $205 forward $317 $-1 #
edge $-1 $213 1.8749506225087584 $318 4.8749506225087584 $204 $319 forward 7 unknown #
coedge $-1 $125 $124 $311 $320 reversed $49 $-1 #
coedge $-1 $204 $321 $124 $208 forward $317 $-1 #
edge $-1 $322 -30.011410540264944 $213 -24.024424954418034 $207 $323 forward 7 unknown #
coedge $-1 $324 $202 $125 $210 forward $121 $-1 #
edge $-1 $212 24.024424954418034 $325 30.011410540264944 $209 $326 forward 7 unknown #
coedge $-1 $203 $126 $202 $313 reversed $77 $-1 #
vertex $-1 $210 $327 #
vertex $-1 $208 $328 #
straight-curve $-1 -51.042342701759523 0 5.2499012450175169 0 -1 0 I I #
face $-1 $329 $330 $29 $-1 $331 reversed single #
loop $-1 $-1 $332 $128 #
plane-surface $-1 0 -36.646221036180485 0 0 1 0 0 0 1 forward_v I I I I #
coedge $-1 $333 $334 $220 $335 forward $129 $-1 #
coedge $-1 $336 $131 $223 $337 reversed $81 $-1 #
coedge $-1 $131 $336 $218 $335 reversed $81 $-1 #
coedge $-1 $338 $226 $131 $222 forward $330 $-1 #
edge $-1 $339 1.8749506225087584 $340 4.8749506225087584 $221 $341 forward 7 unknown #
coedge $-1 $133 $132 $219 $337 forward $52 $-1 #
coedge $-1 $342 $332 $132 $225 forward $216 $-1 #
edge $-1 $343 24.024424954418031 $231 30.01141054026494 $224 $344 forward 7 unknown #
coedge $-1 $221 $345 $133 $227 forward $330 $-1 #
edge $-1 $232 -30.01141054026494 $339 -24.024424954418031 $226 $346 forward 7 unknown #
coedge $-1 $347 $134 $345 $348 reversed $230 $-1 #
coedge $-1 $134 $347 $342 $349 forward $230 $-1 #
loop $-1 $-1 $134 $329 #
vertex $-1 $225 $350 #
vertex $-1 $135 $351 #
straight-curve $-1 57.029328287606432 0 5.2499012450175169 0 1 0 I I #
face $-1 $-1 $246 $30 $-1 $352 forward single #
loop $-1 $-1 $353 $136 #
plane-surface $-1 0 36.646221036180485 0 0 -1 0 0 0 -1 forward_v I I I I #
coedge $-1 $354 $355 $356 $357 reversed $137 $-1 #
coedge $-1 $358 $139 $141 $244 forward $85 $-1 #
coedge $-1 $139 $358 $354 $359 forward $85 $-1 #
coedge $-1 $356 $142 $139 $241 forward $246 $-1 #
edge $-1 $248 -11.911530642632972 $360 -0.31605377250883393 $240 $361 forward 7 unknown #
coedge $-1 $362 $363 $140 $243 forward $235 $-1 #
edge $-1 $364 -62.165040875918606 $247 -55.921884621099871 $242 $365 forward 7 unknown #
edge $-1 $248 65.575476625314508 $364 73.292442072360984 $141 $366 forward 7 unknown #
coedge $-1 $142 $356 $362 $367 forward $246 $-1 #
loop $-1 $-1 $356 $234 #
vertex $-1 $243 $368 #
vertex $-1 $143 $369 #
straight-curve $-1 -18.025322850203874 42.92069888273241 8.2499012450175186 0 -1 0 I I #
coedge $-1 $250 $250 $-1 $370 reversed $146 $-1 #
edge $-1 $371 0 $371 6.2831853071796004 $147 $372 forward 7 unknown #
vertex $-1 $150 $373 #
ellipse-curve $-1 -12.227584415141806 34.378261838530157 5.1283231176081596 0 0.80901700255871778 0.5877852410284794 1.5 0 0 1 I I #
face $-1 $-1 $374 $32 $-1 $375 reversed single #
loop $-1 $-1 $157 $151 #
plane-surface $-1 0 0 8.2499012450175169 0 0 1 1 0 0 forward_v I I I I #
coedge $-1 $376 $377 $378 $379 reversed $152 $-1 #
coedge $-1 $380 $154 $156 $264 forward $94 $-1 #
coedge $-1 $154 $380 $376 $381 forward $94 $-1 #
coedge $-1 $378 $157 $154 $261 forward $255 $-1 #
edge $-1 $267 8.2356213198862243 $382 27.876494216074622 $260 $383 forward 7 unknown #
coedge $-1 $384 $385 $155 $263 forward $374 $-1 #
edge $-1 $386 -49.296961148494965 $266 -41.230831281023022 $262 $387 forward 7 unknown #
edge $-1 $267 -16.132259518812393 $386 -1.641478638404164e-014 $156 $388 forward 7 unknown #
coedge $-1 $157 $378 $384 $389 forward $255 $-1 #
vertex $-1 $263 $390 #
vertex $-1 $158 $391 #
straight-curve $-1 -26.291679087866648 -46.837775043917901 8.2499012450175186 0 1 0 I I #
coedge $-1 $269 $269 $-1 $392 reversed $161 $-1 #
edge $-1 $393 0 $393 6.2831853071796004 $162 $394 forward 7 unknown #
vertex $-1 $165 $395 #
ellipse-curve $-1 -42.004377404817369 -29.660747785508949 4.2168363112815523 0 -0.50000000669873634 0.8660253999169214 1 0 0 1 I I #
coedge $-1 $273 $273 $-1 $396 reversed $168 $-1 #
edge $-1 $397 0 $397 6.2831853071796004 $169 $398 forward 7 unknown #
vertex $-1 $172 $399 #
ellipse-curve $-1 -36.112115535960847 -29.660747785508949 4.2168363112815523 0 -0.50000000669873634 0.8660253999169214 1 0 0 1 I I #
coedge $-1 $277 $277 $-1 $400 reversed $175 $-1 #
edge $-1 $401 0 $401 6.2831853071796004 $176 $402 forward 7 unknown #
vertex $-1 $179 $403 #
ellipse-curve $-1 -30.219853667104328 -29.660747785508949 4.2168363112815523 0 -0.50000000669873634 0.8660253999169214 1 0 0 1 I I #
face $-1 $-1 $195 $27 $-1 $404 reversed single #
loop $-1 $-1 $297 $180 #
plane-surface $-1 0 36.646221036180485 0 0 -1 0 0 0 -1 forward_v I I I I #
coedge $-1 $405 $295 $298 $406 forward $181 $-1 #
coedge $-1 $301 $183 $184 $289 reversed $113 $-1 #
coedge $-1 $295 $405 $183 $287 reversed $181 $-1 #
edge $-1 $302 -8.2499012450175169 $407 8.2499012450175169 $286 $408 forward 7 unknown #
coedge $-1 $185 $184 $405 $409 forward $73 $-1 #
edge $-1 $293 -57.029328287606432 $407 57.029328287606432 $285 $410 forward 7 unknown #
coedge $-1 $298 $297 $185 $291 reversed $282 $-1 #
edge $-1 $411 -57.029328287606432 $292 57.029328287606432 $290 $412 forward 7 unknown #
vertex $-1 $187 $413 #
vertex $-1 $304 $414 #
straight-curve $-1 57.029328287606432 0 -8.2499012450175169 0 -1 0 I I #
coedge $-1 $284 $286 $188 $296 reversed $181 $-1 #
edge $-1 $299 -36.646221036180485 $302 36.646221036180485 $295 $415 forward 7 unknown #
coedge $-1 $290 $189 $194 $305 forward $282 $-1 #
coedge $-1 $189 $290 $284 $406 reversed $282 $-1 #
vertex $-1 $190 $416 #
straight-curve $-1 0 36.646221036180485 8.2499012450175169 -1 0 0 I I #
coedge $-1 $191 $285 $193 $304 reversed $113 $-1 #
vertex $-1 $296 $417 #
straight-curve $-1 0 -36.646221036180485 8.2499012450175169 1 0 0 I I #
edge $-1 $196 -8.2499012450175169 $293 8.2499012450175169 $193 $418 forward 7 unknown #
edge $-1 $197 -8.2499012450175169 $292 8.2499012450175169 $194 $419 forward 7 unknown #
point $-1 57.029328287606432 -36.646221036180485 8.2499012450175169 #
point $-1 57.029328287606432 36.646221036180485 8.2499012450175169 #
face $-1 $-1 $317 $28 $-1 $420 reversed single #
loop $-1 $-1 $314 $199 #
plane-surface $-1 0 0 8.2499012450175169 0 0 1 1 0 0 forward_v I I I I #
coedge $-1 $421 $422 $206 $320 forward $200 $-1 #
coedge $-1 $202 $324 $423 $424 reversed $121 $-1 #
edge $-1 $425 -4.8749506225087584 $212 -1.8749506225087584 $202 $426 forward 7 unknown #
coedge $-1 $423 $427 $203 $315 forward $309 $-1 #
edge $-1 $318 -36.646221036180485 $425 36.646221036180485 $314 $428 forward 7 unknown #
coedge $-1 $321 $204 $427 $429 reversed $317 $-1 #
loop $-1 $-1 $204 $308 #
vertex $-1 $205 $430 #
straight-curve $-1 -51.042342701759523 -36.646221036180485 3.3749506225087584 0 0 1 I I #
edge $-1 $325 -36.646221036180485 $322 36.646221036180485 $311 $431 forward 7 unknown #
coedge $-1 $207 $316 $421 $432 forward $317 $-1 #
vertex $-1 $320 $433 #
straight-curve $-1 -27.017917747341489 -36.646221036180485 5.2499012450175169 1 0 0 I I #
coedge $-1 $312 $209 $422 $434 reversed $121 $-1 #
vertex $-1 $320 $435 #
straight-curve $-1 -27.017917747341489 36.646221036180485 5.2499012450175169 -1 0 0 I I #
point $-1 -51.042342701759523 36.646221036180485 5.2499012450175169 #
point $-1 -51.042342701759523 -36.646221036180485 5.2499012450175169 #
face $-1 $-1 $230 $29 $-1 $436 reversed single #
loop $-1 $-1 $221 $215 #
plane-surface $-1 0 36.646221036180485 0 0 -1 0 0 0 -1 forward_v I I I I #
coedge $-1 $224 $437 $336 $438 forward $216 $-1 #
coedge $-1 $439 $218 $437 $440 forward $129 $-1 #
coedge $-1 $218 $439 $338 $441 forward $129 $-1 #
edge $-1 $340 -36.646221036180485 $442 36.646221036180485 $218 $443 forward 7 unknown #
coedge $-1 $220 $219 $332 $438 reversed $81 $-1 #
edge $-1 $343 -36.646221036180485 $339 36.646221036180485 $219 $444 forward 7 unknown #
coedge $-1 $345 $221 $334 $441 reversed $330 $-1 #
vertex $-1 $227 $445 #
vertex $-1 $222 $446 #
straight-curve $-1 51.042342701759516 36.646221036180485 3.3749506225087584 0 0 1 I I #
coedge $-1 $437 $224 $229 $349 reversed $216 $-1 #
vertex $-1 $225 $447 #
straight-curve $-1 27.017917747341485 -36.646221036180485 5.2499012450175169 1 0 0 I I #
coedge $-1 $226 $338 $228 $348 forward $330 $-1 #
straight-curve $-1 27.017917747341485 36.646221036180485 5.2499012450175169 -1 0 0 I I #
coedge $-1 $229 $228 $439 $448 reversed $230 $-1 #
edge $-1 $449 -8.2499012450175169 $232 -5.2499012450175169 $228 $450 forward 7 unknown #
edge $-1 $451 -8.2499012450175169 $231 -5.2499012450175169 $229 $452 forward 7 unknown #
point $-1 57.029328287606425 -36.646221036180485 5.2499012450175169 #
point $-1 57.029328287606425 36.646221036180485 5.2499012450175169 #
plane-surface $-1 0 0 8.2499012450175169 0 0 1 1 0 0 forward_v I I I I #
coedge $-1 $363 $362 $355 $453 forward $235 $-1 #
coedge $-1 $355 $237 $239 $359 reversed $137 $-1 #
coedge $-1 $237 $354 $353 $453 reversed $137 $-1 #
coedge $-1 $245 $240 $237 $357 forward $246 $-1 #
edge $-1 $360 -10.81039624185258 $454 -6.2744778465519246 $356 $455 forward 7 unknown #
coedge $-1 $239 $238 $363 $456 reversed $85 $-1 #
edge $-1 $457 -73.292442072360984 $360 -65.575476625314508 $354 $458 forward 7 unknown #
vertex $-1 $241 $459 #
straight-curve $-1 -6.1137922075709028 32.110302640879823 8.2499012450175258 1 0 0 I I #
coedge $-1 $353 $242 $245 $367 reversed $235 $-1 #
coedge $-1 $242 $353 $358 $456 forward $235 $-1 #
vertex $-1 $243 $460 #
straight-curve $-1 -18.025322850203874 36.646221036180485 64.171785866117389 0 0 1 I I #
straight-curve $-1 -18.025322850203874 -6.4339946928880778 61.301576785788725 0 0.5877852410284794 -0.80901700255871778 I I #
edge $-1 $454 6.4298459800797367 $247 18.025322850203874 $362 $461 forward 7 unknown #
point $-1 -18.025322850203874 36.646221036180485 8.2499012450175169 #
point $-1 -18.025322850203874 32.11030264087983 8.2499012450175186 #
edge $-1 $462 1 $462 0 $250 $-1 forward 7 unknown #
vertex $-1 $251 $463 #
ellipse-curve $-1 -12.227584415141806 30.312671786501209 2.1744991298590484 0 0.80901700255871778 0.5877852410284794 1.5 0 0 1 I I #
point $-1 -10.727584415141806 34.378261838530157 5.1283231176081587 #
loop $-1 $-1 $262 $254 #
plane-surface $-1 0 -36.646221036180485 0 0 1 0 0 0 1 forward_v I I I I #
coedge $-1 $377 $257 $259 $381 reversed $152 $-1 #
coedge $-1 $257 $376 $464 $465 reversed $152 $-1 #
coedge $-1 $265 $260 $257 $379 forward $255 $-1 #
edge $-1 $382 -24.162500509080466 $466 -10.191554007737416 $378 $467 forward 7 unknown #
coedge $-1 $259 $258 $385 $468 reversed $94 $-1 #
edge $-1 $469 1.641478638404164e-014 $382 16.132259518812393 $376 $470 forward 7 unknown #
vertex $-1 $261 $471 #
straight-curve $-1 -18.056057767980423 -22.675274534837438 8.2499012450175169 -1 0 0 I I #
coedge $-1 $464 $262 $265 $389 reversed $374 $-1 #
coedge $-1 $262 $464 $380 $468 forward $374 $-1 #
vertex $-1 $263 $472 #
straight-curve $-1 -26.291679087866648 -36.646221036180485 49.480732526040541 0 0 1 I I #
straight-curve $-1 -26.291679087866648 -36.646221036180499 0.18377137754556827 0 -0.8660253999169214 -0.50000000669873634 I I #
edge $-1 $466 -45.932551984055046 $266 -26.291679087866648 $384 $473 forward 7 unknown #
point $-1 -26.291679087866648 -36.646221036180485 8.2499012450175169 #
point $-1 -26.291679087866648 -22.675274534837435 8.2499012450175169 #
edge $-1 $474 1 $474 0 $269 $-1 forward 7 unknown #
vertex $-1 $270 $475 #
ellipse-curve $-1 -42.004377404817369 -28.130107181488324 1.5656890643481436 0 -0.50000000669873634 0.8660253999169214 1 0 0 1 I I #
point $-1 -41.004377404817369 -29.660747785508942 4.2168363112815364 #
edge $-1 $476 1 $476 0 $273 $-1 forward 7 unknown #
vertex $-1 $274 $477 #
ellipse-curve $-1 -36.112115535960847 -28.130107181488324 1.5656890643481436 0 -0.50000000669873634 0.8660253999169214 1 0 0 1 I I #
point $-1 -35.112115535960847 -29.660747785508942 4.2168363112815364 #
edge $-1 $478 1 $478 0 $277 $-1 forward 7 unknown #
vertex $-1 $278 $479 #
ellipse-curve $-1 -30.219853667104328 -28.130107181488324 1.5656890643481436 0 -0.50000000669873634 0.8660253999169214 1 0 0 1 I I #
point $-1 -29.219853667104328 -29.660747785508942 4.2168363112815364 #
plane-surface $-1 57.029328287606432 0 0 -1 0 0 0 0 1 forward_v I I I I #
coedge $-1 $286 $284 $288 $409 reversed $181 $-1 #
edge $-1 $299 -8.2499012450175169 $411 8.2499012450175169 $298 $480 forward 7 unknown #
vertex $-1 $409 $481 #
straight-curve $-1 -57.029328287606432 -36.646221036180485 0 0 0 -1 I I #
edge $-1 $407 -36.646221036180485 $411 36.646221036180485 $405 $482 forward 7 unknown #
straight-curve $-1 0 -36.646221036180485 -8.2499012450175169 -1 0 0 I I #
vertex $-1 $291 $483 #
straight-curve $-1 0 36.646221036180485 -8.2499012450175169 1 0 0 I I #
point $-1 57.029328287606432 36.646221036180485 -8.2499012450175169 #
point $-1 57.029328287606432 -36.646221036180485 -8.2499012450175169 #
straight-curve $-1 -57.029328287606432 0 8.2499012450175169 0 -1 0 I I #
point $-1 -57.029328287606432 36.646221036180485 8.2499012450175169 #
point $-1 -57.029328287606432 -36.646221036180485 8.2499012450175169 #
straight-curve $-1 57.029328287606432 -36.646221036180485 0 0 0 -1 I I #
straight-curve $-1 57.029328287606432 36.646221036180485 0 0 0 -1 I I #
plane-surface $-1 0 -36.646221036180485 0 0 1 0 0 0 1 forward_v I I I I #
coedge $-1 $484 $311 $321 $432 reversed $200 $-1 #
coedge $-1 $311 $484 $324 $434 forward $200 $-1 #
coedge $-1 $485 $314 $312 $424 forward $309 $-1 #
edge $-1 $425 51.042342701759523 $486 57.029328287606432 $312 $487 forward 7 unknown #
vertex $-1 $424 $488 #
straight-curve $-1 -51.042342701759523 36.646221036180485 3.3749506225087584 0 0 -1 I I #
coedge $-1 $314 $485 $316 $429 forward $309 $-1 #
straight-curve $-1 -51.042342701759523 0 8.2499012450175169 0 1 0 I I #
edge $-1 $489 -57.029328287606432 $318 -51.042342701759523 $316 $490 forward 7 unknown #
point $-1 -51.042342701759523 -36.646221036180485 8.2499012450175169 #
straight-curve $-1 -57.029328287606432 0 5.2499012450175169 0 -1 0 I I #
edge $-1 $489 -8.2499012450175169 $322 -5.2499012450175169 $421 $491 forward 7 unknown #
point $-1 -57.029328287606432 -36.646221036180485 5.2499012450175169 #
edge $-1 $486 -8.2499012450175169 $325 -5.2499012450175169 $324 $492 forward 7 unknown #
point $-1 -57.029328287606432 36.646221036180485 5.2499012450175169 #
plane-surface $-1 57.029328287606432 0 0 -1 0 0 0 0 1 forward_v I I I I #
coedge $-1 $332 $342 $333 $440 reversed $216 $-1 #
edge $-1 $442 -4.8749506225087584 $343 -1.8749506225087584 $332 $493 forward 7 unknown #
coedge $-1 $334 $333 $347 $448 forward $129 $-1 #
edge $-1 $442 51.042342701759516 $451 57.029328287606432 $437 $494 forward 7 unknown #
edge $-1 $449 -57.029328287606432 $340 -51.042342701759516 $338 $495 forward 7 unknown #
vertex $-1 $440 $496 #
straight-curve $-1 51.042342701759516 0 8.2499012450175169 0 -1 0 I I #
straight-curve $-1 51.042342701759516 0 5.2499012450175169 0 1 0 I I #
point $-1 51.042342701759516 36.646221036180485 5.2499012450175169 #
point $-1 51.042342701759516 36.646221036180485 8.2499012450175169 #
point $-1 51.042342701759516 -36.646221036180485 5.2499012450175169 #
edge $-1 $451 -36.646221036180485 $449 36.646221036180485 $347 $497 forward 7 unknown #
vertex $-1 $448 $498 #
straight-curve $-1 57.029328287606432 36.646221036180485 0 0 0 -1 I I #
vertex $-1 $448 $499 #
straight-curve $-1 57.029328287606432 -36.646221036180485 0 0 0 -1 I I #
edge $-1 $454 55.921884621099871 $457 62.165040875918606 $353 $500 forward 7 unknown #
vertex $-1 $367 $501 #
straight-curve $-1 -6.4298459800797367 42.92069888273241 8.2499012450175186 0 1 0 I I #
edge $-1 $457 0.31605377250883393 $364 11.911530642632972 $363 $502 forward 7 unknown #
vertex $-1 $456 $503 #
straight-curve $-1 -6.4298459800797367 -6.4339946928880778 61.301576785788725 0 -0.5877852410284794 0.80901700255871778 I I #
point $-1 -6.4298459800797367 32.11030264087983 8.2499012450175186 #
point $-1 -18.025322850203874 36.646221036180485 2.0067449901987828 #
straight-curve $-1 0 36.646221036180485 8.2499012450175169 -1 0 0 I I #
vertex $-1 $370 $504 #
point $-1 -10.727584415141806 30.312671786501209 2.1744991298590484 #
coedge $-1 $385 $384 $377 $465 forward $374 $-1 #
edge $-1 $466 41.230831281023022 $469 49.296961148494965 $464 $505 forward 7 unknown #
vertex $-1 $389 $506 #
straight-curve $-1 -45.932551984055046 -46.837775043917901 8.2499012450175186 0 -1 0 I I #
edge $-1 $469 -27.876494216074622 $386 -8.2356213198862243 $385 $507 forward 7 unknown #
vertex $-1 $468 $508 #
straight-curve $-1 -45.932551984055046 -36.646221036180499 0.18377137754556827 0 0.8660253999169214 0.50000000669873634 I I #
point $-1 -45.932551984055046 -22.675274534837435 8.2499012450175169 #
point $-1 -26.291679087866648 -36.646221036180485 0.18377137754557649 #
straight-curve $-1 0 -36.646221036180485 8.2499012450175169 1 0 0 I I #
vertex $-1 $392 $509 #
point $-1 -41.004377404817369 -28.130107181488324 1.5656890643481436 #
vertex $-1 $396 $510 #
point $-1 -35.112115535960847 -28.130107181488324 1.5656890643481436 #
vertex $-1 $400 $511 #
point $-1 -29.219853667104328 -28.130107181488324 1.5656890643481436 #
straight-curve $-1 -57.029328287606432 36.646221036180485 0 0 0 -1 I I #
point $-1 -57.029328287606432 -36.646221036180485 -8.2499012450175169 #
straight-curve $-1 -57.029328287606432 0 -8.2499012450175169 0 1 0 I I #
point $-1 -57.029328287606432 36.646221036180485 -8.2499012450175169 #
coedge $-1 $422 $421 $485 $512 reversed $200 $-1 #
coedge $-1 $427 $423 $484 $512 forward $309 $-1 #
vertex $-1 $424 $513 #
straight-curve $-1 0 36.646221036180485 8.2499012450175169 -1 0 0 I I #
point $-1 -51.042342701759523 36.646221036180485 8.2499012450175169 #
vertex $-1 $512 $514 #
straight-curve $-1 0 -36.646221036180485 8.2499012450175169 1 0 0 I I #
straight-curve $-1 -57.029328287606432 -36.646221036180485 0 0 0 -1 I I #
straight-curve $-1 -57.029328287606432 36.646221036180485 0 0 0 -1 I I #
straight-curve $-1 51.042342701759516 -36.646221036180485 3.3749506225087584 0 0 -1 I I #
straight-curve $-1 0 -36.646221036180485 8.2499012450175169 1 0 0 I I #
straight-curve $-1 0 36.646221036180485 8.2499012450175169 -1 0 0 I I #
point $-1 51.042342701759516 -36.646221036180485 8.2499012450175169 #
straight-curve $-1 57.029328287606432 0 8.2499012450175169 0 1 0 I I #
point $-1 57.029328287606432 36.646221036180485 8.2499012450175169 #
point $-1 57.029328287606432 -36.646221036180485 8.2499012450175169 #
straight-curve $-1 -6.4298459800797367 36.646221036180485 64.171785866117389 0 0 -1 I I #
point $-1 -6.4298459800797367 36.646221036180485 8.2499012450175169 #
straight-curve $-1 -6.1137922075709028 36.646221036180485 2.0067449901987935 -1 0 0 I I #
point $-1 -6.4298459800797367 36.646221036180485 2.0067449901987828 #
point $-1 -12.227584415141806 29.099146282663131 1.2928212683163294 #
straight-curve $-1 -45.932551984055046 -36.646221036180485 49.480732526040541 0 0 -1 I I #
point $-1 -45.932551984055046 -36.646221036180485 8.2499012450175169 #
straight-curve $-1 -18.056057767980423 -36.646221036180485 0.18377137754557632 1 0 0 I I #
point $-1 -45.932551984055046 -36.646221036180485 0.18377137754557649 #
point $-1 -42.004377404817369 -27.63010717478959 0.69966366443122219 #
point $-1 -36.112115535960847 -27.63010717478959 0.69966366443122219 #
point $-1 -30.219853667104328 -27.63010717478959 0.69966366443122219 #
edge $-1 $486 -36.646221036180485 $489 36.646221036180485 $484 $515 forward 7 unknown #
point $-1 -57.029328287606432 36.646221036180485 8.2499012450175169 #
point $-1 -57.029328287606432 -36.646221036180485 8.2499012450175169 #
straight-curve $-1 -57.029328287606432 0 8.2499012450175169 0 -1 0 I I #
End-of-ACIS-data 