500 0 7 0           
7 Unknown 11 ACIS 5.0 NT 24 Thu Mar 25 21:26:47 1999 
-1 9.9999999999999995e-007 1e-010 
body $-1 $7 $-1 $8 #
body $-1 $9 $-1 $10 #
body $-1 $11 $-1 $12 #
body $-1 $13 $-1 $14 #
body $-1 $15 $-1 $16 #
body $-1 $17 $-1 $18 #
body $-1 $19 $-1 $20 #
lump $-1 $-1 $21 $0 #
transform $-1 1 0 0 0 1 0 0 0 1 67.819452497940006 43.5642755858605 19.970538259457747 1 rotate no_reflect no_shear #
lump $-1 $-1 $22 $1 #
transform $-1 1 0 0 0 1 0 0 0 1 67.819452497940006 43.5642755858605 19.970538259457747 1 rotate no_reflect no_shear #
lump $-1 $-1 $23 $2 #
transform $-1 1 0 0 0 1 0 0 0 1 67.819452497940006 43.5642755858605 19.970538259457747 1 rotate no_reflect no_shear #
lump $-1 $-1 $24 $3 #
transform $-1 1 0 0 0 1 0 0 0 1 67.819452497940006 43.5642755858605 19.970538259457747 1 rotate no_reflect no_shear #
lump $-1 $-1 $25 $4 #
transform $-1 1 0 0 0 1 0 0 0 1 67.819452497940006 43.5642755858605 19.970538259457747 1 rotate no_reflect no_shear #
lump $-1 $-1 $26 $5 #
transform $-1 1 0 0 0 1 0 0 0 1 67.819452497940006 43.5642755858605 19.970538259457747 1 rotate no_reflect no_shear #
lump $-1 $-1 $27 $6 #
transform $-1 1 0 0 0 1 0 0 0 1 67.819452497940006 43.5642755858605 19.970538259457747 1 rotate no_reflect no_shear #
shell $-1 $-1 $-1 $28 $-1 $7 #
shell $-1 $-1 $-1 $29 $-1 $9 #
shell $-1 $-1 $-1 $30 $-1 $11 #
shell $-1 $-1 $-1 $31 $-1 $13 #
shell $-1 $-1 $-1 $32 $-1 $15 #
shell $-1 $-1 $-1 $33 $-1 $17 #
shell $-1 $-1 $-1 $34 $-1 $19 #
face $-1 $35 $36 $21 $-1 $37 forward single #
face $-1 $38 $39 $22 $-1 $40 reversed single #
face $-1 $41 $42 $23 $-1 $43 forward single #
face $-1 $44 $45 $24 $-1 $46 forward single #
face $-1 $47 $48 $25 $-1 $49 reversed single #
face $-1 $50 $51 $26 $-1 $52 forward single #
face $-1 $53 $54 $27 $-1 $55 forward single #
face $-1 $56 $57 $21 $-1 $58 reversed single #
loop $-1 $-1 $59 $28 #
plane-surface $-1 0 0 19.970538259457747 0 0 1 1 0 0 forward_v I I I I #
face $-1 $60 $61 $22 $-1 $62 reversed single #
loop $-1 $-1 $63 $29 #
plane-surface $-1 -39.581044398010363 -113.42347702713904 131.62557237547634 -1 0 0 0 -0.51503808176128008 0.85716729658548041 forward_v I I I I #
face $-1 $64 $65 $23 $-1 $66 forward single #
loop $-1 $67 $68 $30 #
cone-surface $-1 -59.751335897960104 -39.0988483665068 16.618445085861868 0 0.51503808176128008 -0.85716729658548041 1 0 0 1 I I 0 1 1 forward I I I I #
face $-1 $69 $70 $24 $-1 $71 forward single #
loop $-1 $72 $73 $31 #
cone-surface $-1 -47.649160997990258 -39.0988483665068 16.618445085861868 0 0.51503808176128008 -0.85716729658548041 1 0 0 1 I I 0 1 1 forward I I I I #
face $-1 $74 $75 $25 $-1 $76 reversed single #
loop $-1 $-1 $77 $32 #
plane-surface $-1 4.3573708773803972 77.866277560320427 157.62914074766056 1 0 0 0 -0.70710678939079041 -0.70710677298230451 forward_v I I I I #
face $-1 $78 $79 $26 $-1 $80 forward single #
loop $-1 $81 $82 $33 #
cone-surface $-1 11.912426366336476 30.905166671377849 7.3114291778364695 0 -0.70710678939079041 -0.70710677298230451 3 0 0 1 I I 0 1 3 forward I I I I #
face $-1 $83 $84 $27 $-1 $85 forward single #
loop $-1 $86 $87 $34 #
cone-surface $-1 23.245009599770569 30.905166671377849 7.3114291778364695 0 -0.70710678939079041 -0.70710677298230451 3 0 0 1 I I 0 1 3 forward I I I I #
face $-1 $88 $89 $21 $-1 $90 reversed single #
loop $-1 $-1 $91 $35 #
plane-surface $-1 0 0 -19.970538259457747 0 0 1 1 0 0 forward_v I I I I #
coedge $-1 $92 $93 $94 $95 forward $36 $-1 #
face $-1 $96 $97 $22 $-1 $98 forward single #
loop $-1 $-1 $99 $38 #
plane-surface $-1 -53.700248447975184 -43.5642755858605 15.36033886834305 0 -0.51503808176128008 0.85716729658548041 1 0 0 forward_v I I I I #
coedge $-1 $100 $101 $102 $103 reversed $39 $-1 #
face $-1 $-1 $104 $23 $-1 $105 forward single #
loop $-1 $106 $107 $41 #
cone-surface $-1 -59.751335897960104 -38.212232164904322 15.142867959530584 0 0.51503808176128008 -0.85716729658548041 0.5 0 0 1 I I -0.70710678118654746 0.70710678118654746 0.5 forward I I I I #
loop $-1 $-1 $108 $30 #
coedge $-1 $68 $68 $109 $110 reversed $42 $-1 #
face $-1 $-1 $111 $24 $-1 $112 forward single #
loop $-1 $113 $114 $44 #
cone-surface $-1 -47.649160997990258 -38.212232164904322 15.142867959530584 0 0.51503808176128008 -0.85716729658548041 0.5 0 0 1 I I -0.70710678118654746 0.70710678118654746 0.5 forward I I I I #
loop $-1 $-1 $115 $31 #
coedge $-1 $73 $73 $116 $117 reversed $45 $-1 #
face $-1 $118 $119 $25 $-1 $120 reversed single #
loop $-1 $-1 $121 $47 #
plane-surface $-1 17.578717983053508 -18.044913067798731 61.71795234517046 0 0.70710678939079041 0.70710677298230451 1 0 0 forward_v I I I I #
coedge $-1 $122 $123 $124 $125 reversed $48 $-1 #
face $-1 $-1 $126 $26 $-1 $127 forward single #
loop $-1 $128 $129 $50 #
cone-surface $-1 11.912426366336476 27.116285341158786 3.522547935538789 0 -0.70710678939079041 -0.70710677298230451 1.5 0 0 1 I I -0.70710678118654757 0.70710678118654757 1.5 forward I I I I #
loop $-1 $-1 $130 $33 #
coedge $-1 $82 $82 $131 $132 reversed $51 $-1 #
face $-1 $-1 $133 $27 $-1 $134 forward single #
loop $-1 $135 $136 $53 #
cone-surface $-1 23.245009599770569 27.116285341158786 3.522547935538789 0 -0.70710678939079041 -0.70710677298230451 1.5 0 0 1 I I -0.70710678118654757 0.70710678118654757 1.5 forward I I I I #
loop $-1 $-1 $137 $34 #
coedge $-1 $87 $87 $138 $139 reversed $54 $-1 #
face $-1 $140 $141 $21 $-1 $142 reversed single #
loop $-1 $-1 $143 $56 #
plane-surface $-1 0 -43.5642755858605 0 0 1 0 0 0 1 forward_v I I I I #
coedge $-1 $144 $145 $146 $147 forward $57 $-1 #
coedge $-1 $148 $59 $149 $150 forward $36 $-1 #
coedge $-1 $59 $148 $151 $152 forward $36 $-1 #
coedge $-1 $153 $154 $59 $95 reversed $155 $-1 #
edge $-1 $156 -43.5642755858605 $157 43.5642755858605 $94 $158 forward 7 unknown #
face $-1 $159 $160 $22 $-1 $161 reversed single #
loop $-1 $-1 $102 $60 #
plane-surface $-1 0 0 19.970538259457747 0 0 1 1 0 0 forward_v I I I I #
coedge $-1 $162 $163 $164 $165 reversed $61 $-1 #
coedge $-1 $101 $63 $166 $167 reversed $39 $-1 #
coedge $-1 $63 $100 $162 $168 reversed $39 $-1 #
coedge $-1 $164 $169 $63 $103 forward $97 $-1 #
edge $-1 $170 13.147462927709022 $171 20.820123044972796 $102 $172 forward 7 unknown #
loop $-1 $-1 $109 $64 #
plane-surface $-1 -53.700248447975184 -43.5642755858605 15.36033886834305 0 -0.51503808176128008 0.85716729658548041 1 0 0 forward_v I I I I #
loop $-1 $-1 $173 $41 #
coedge $-1 $107 $107 $108 $174 reversed $65 $-1 #
coedge $-1 $108 $108 $107 $174 forward $67 $-1 #
coedge $-1 $109 $109 $68 $110 forward $104 $-1 #
edge $-1 $175 -5.4631400103627978e-015 $175 6.2831853071795951 $109 $176 forward 7 unknown #
loop $-1 $-1 $116 $69 #
plane-surface $-1 -53.700248447975184 -43.5642755858605 15.36033886834305 0 -0.51503808176128008 0.85716729658548041 1 0 0 forward_v I I I I #
loop $-1 $-1 $177 $44 #
coedge $-1 $114 $114 $115 $178 reversed $70 $-1 #
coedge $-1 $115 $115 $114 $178 forward $72 $-1 #
coedge $-1 $116 $116 $73 $117 forward $111 $-1 #
edge $-1 $179 -5.4631400103627978e-015 $179 6.2831853071795951 $116 $180 forward 7 unknown #
face $-1 $181 $182 $25 $-1 $183 forward single #
loop $-1 $-1 $184 $74 #
plane-surface $-1 30.800065088726619 77.866277560320427 157.62914074766056 -1 0 0 0 0.70710678939079041 0.70710677298230451 forward_v I I I I #
coedge $-1 $185 $186 $187 $188 reversed $75 $-1 #
coedge $-1 $123 $77 $189 $190 reversed $48 $-1 #
coedge $-1 $77 $122 $185 $191 reversed $48 $-1 #
coedge $-1 $187 $192 $77 $125 forward $182 $-1 #
edge $-1 $193 -4.6311368057002866 $194 15.230638730999281 $124 $195 forward 7 unknown #
loop $-1 $-1 $131 $78 #
plane-surface $-1 17.578717983053508 -18.044913067798731 61.71795234517046 0 0.70710678939079041 0.70710677298230451 1 0 0 forward_v I I I I #
loop $-1 $-1 $196 $50 #
coedge $-1 $129 $129 $130 $197 reversed $79 $-1 #
coedge $-1 $130 $130 $129 $197 forward $81 $-1 #
coedge $-1 $131 $131 $82 $132 forward $126 $-1 #
edge $-1 $198 -3.8863101326778165e-023 $198 6.2831853071796004 $131 $199 forward 7 unknown #
loop $-1 $-1 $138 $83 #
plane-surface $-1 17.578717983053508 -18.044913067798731 61.71795234517046 0 0.70710678939079041 0.70710677298230451 1 0 0 forward_v I I I I #
loop $-1 $-1 $200 $53 #
coedge $-1 $136 $136 $137 $201 reversed $84 $-1 #
coedge $-1 $137 $137 $136 $201 forward $86 $-1 #
coedge $-1 $138 $138 $87 $139 forward $133 $-1 #
edge $-1 $202 -3.8863101326778165e-023 $202 6.2831853071796004 $138 $203 forward 7 unknown #
face $-1 $204 $205 $21 $-1 $206 reversed single #
loop $-1 $-1 $207 $88 #
plane-surface $-1 -67.819452497940006 0 0 1 0 0 0 0 -1 forward_v I I I I #
coedge $-1 $208 $151 $209 $210 forward $89 $-1 #
coedge $-1 $211 $91 $208 $212 forward $57 $-1 #
coedge $-1 $91 $211 $213 $214 forward $57 $-1 #
coedge $-1 $154 $153 $91 $147 reversed $155 $-1 #
edge $-1 $215 -43.5642755858605 $216 43.5642755858605 $146 $217 forward 7 unknown #
coedge $-1 $93 $92 $218 $219 forward $36 $-1 #
coedge $-1 $220 $221 $92 $150 reversed $205 $-1 #
edge $-1 $157 -67.819452497940006 $222 67.819452497940006 $149 $223 forward 7 unknown #
coedge $-1 $143 $224 $93 $152 reversed $89 $-1 #
edge $-1 $225 -67.819452497940006 $156 67.819452497940006 $151 $226 forward 7 unknown #
coedge $-1 $146 $94 $224 $227 forward $155 $-1 #
coedge $-1 $94 $146 $220 $228 reversed $155 $-1 #
loop $-1 $-1 $153 $204 #
vertex $-1 $95 $229 #
vertex $-1 $95 $230 #
straight-curve $-1 67.819452497940006 0 19.970538259457747 0 1 0 I I #
face $-1 $-1 $231 $22 $-1 $232 reversed single #
loop $-1 $-1 $233 $96 #
plane-surface $-1 -67.819452497940006 0 0 1 0 0 0 0 -1 forward_v I I I I #
coedge $-1 $234 $99 $101 $168 forward $61 $-1 #
coedge $-1 $99 $234 $233 $235 reversed $61 $-1 #
coedge $-1 $236 $102 $99 $165 forward $97 $-1 #
edge $-1 $171 12.730920174022771 $237 40.969328273952414 $164 $238 forward 7 unknown #
coedge $-1 $239 $240 $100 $167 forward $231 $-1 #
edge $-1 $241 -50.45244731939512 $170 -45.842247928280422 $166 $242 forward 7 unknown #
edge $-1 $171 -8.9511815812709603 $241 0 $101 $243 forward 7 unknown #
coedge $-1 $102 $236 $239 $244 forward $97 $-1 #
vertex $-1 $167 $245 #
vertex $-1 $103 $246 #
straight-curve $-1 -39.581044398010363 -56.711738513569522 19.970538259457747 0 1 0 I I #
coedge $-1 $173 $173 $-1 $247 reversed $106 $-1 #
edge $-1 $248 0 $248 6.2831853071796004 $107 $249 forward 7 unknown #
vertex $-1 $110 $250 #
ellipse-curve $-1 -59.751335897960104 -39.727945527228627 17.665438563900388 0 -0.51503808176128008 0.85716729658548041 1 0 0 1 I I #
coedge $-1 $177 $177 $-1 $251 reversed $113 $-1 #
edge $-1 $252 0 $252 6.2831853071796004 $114 $253 forward 7 unknown #
vertex $-1 $117 $254 #
ellipse-curve $-1 -47.649160997990258 -39.727945527228627 17.665438563900388 0 -0.51503808176128008 0.85716729658548041 1 0 0 1 I I #
face $-1 $-1 $255 $25 $-1 $256 reversed single #
loop $-1 $-1 $124 $118 #
plane-surface $-1 0 0 19.970538259457747 0 0 1 1 0 0 forward_v I I I I #
coedge $-1 $257 $258 $259 $260 reversed $119 $-1 #
coedge $-1 $261 $121 $123 $191 forward $75 $-1 #
coedge $-1 $121 $261 $257 $262 forward $75 $-1 #
coedge $-1 $259 $124 $121 $188 forward $182 $-1 #
edge $-1 $194 -4.4319881141463568 $263 22.010706097199865 $187 $264 forward 7 unknown #
coedge $-1 $265 $266 $122 $190 forward $255 $-1 #
edge $-1 $267 -78.705808111966661 $193 -58.844032114372531 $189 $268 forward 7 unknown #
edge $-1 $194 59.039758509008671 $267 87.128551171721043 $123 $269 forward 7 unknown #
coedge $-1 $124 $259 $265 $270 forward $182 $-1 #
vertex $-1 $190 $271 #
vertex $-1 $125 $272 #
straight-curve $-1 4.3573708773803972 38.933138780160213 19.970538259457754 0 -1 0 I I #
coedge $-1 $196 $196 $-1 $273 reversed $128 $-1 #
edge $-1 $274 0 $274 6.2831853071796004 $129 $275 forward 7 unknown #
vertex $-1 $132 $276 #
ellipse-curve $-1 11.912426366336476 33.633387817510716 10.039650260660686 0 0.70710678939079041 0.70710677298230451 3 0 0 1 I I #
coedge $-1 $200 $200 $-1 $277 reversed $135 $-1 #
edge $-1 $278 0 $278 6.2831853071796004 $136 $279 forward 7 unknown #
vertex $-1 $139 $280 #
ellipse-curve $-1 23.245009599770569 33.633387817510716 10.039650260660686 0 0.70710678939079041 0.70710677298230451 3 0 0 1 I I #
face $-1 $-1 $155 $21 $-1 $281 reversed single #
loop $-1 $-1 $220 $140 #
plane-surface $-1 0 43.5642755858605 0 0 -1 0 0 0 -1 forward_v I I I I #
coedge $-1 $282 $218 $221 $283 forward $141 $-1 #
coedge $-1 $224 $143 $144 $212 reversed $89 $-1 #
coedge $-1 $218 $282 $143 $210 reversed $141 $-1 #
edge $-1 $225 -19.970538259457747 $284 19.970538259457747 $209 $285 forward 7 unknown #
coedge $-1 $145 $144 $282 $286 forward $57 $-1 #
edge $-1 $216 -67.819452497940006 $284 67.819452497940006 $208 $287 forward 7 unknown #
coedge $-1 $221 $220 $145 $214 reversed $205 $-1 #
edge $-1 $288 -67.819452497940006 $215 67.819452497940006 $213 $289 forward 7 unknown #
vertex $-1 $147 $290 #
vertex $-1 $227 $291 #
straight-curve $-1 67.819452497940006 0 -19.970538259457747 0 -1 0 I I #
coedge $-1 $207 $209 $148 $219 reversed $141 $-1 #
edge $-1 $222 -43.5642755858605 $225 43.5642755858605 $218 $292 forward 7 unknown #
coedge $-1 $213 $149 $154 $228 forward $205 $-1 #
coedge $-1 $149 $213 $207 $283 reversed $205 $-1 #
vertex $-1 $150 $293 #
straight-curve $-1 0 43.5642755858605 19.970538259457747 -1 0 0 I I #
coedge $-1 $151 $208 $153 $227 reversed $89 $-1 #
vertex $-1 $219 $294 #
straight-curve $-1 0 -43.5642755858605 19.970538259457747 1 0 0 I I #
edge $-1 $156 -19.970538259457747 $216 19.970538259457747 $153 $295 forward 7 unknown #
edge $-1 $157 -19.970538259457747 $215 19.970538259457747 $154 $296 forward 7 unknown #
point $-1 67.819452497940006 -43.5642755858605 19.970538259457747 #
point $-1 67.819452497940006 43.5642755858605 19.970538259457747 #
loop $-1 $-1 $166 $159 #
plane-surface $-1 0 -43.5642755858605 0 0 1 0 0 0 1 forward_v I I I I #
coedge $-1 $297 $298 $163 $235 forward $160 $-1 #
coedge $-1 $163 $162 $240 $299 reversed $61 $-1 #
edge $-1 $237 5.764174851570167 $300 14.715356432841126 $233 $301 forward 7 unknown #
coedge $-1 $169 $164 $298 $302 forward $97 $-1 #
vertex $-1 $302 $303 #
straight-curve $-1 -26.850124223987592 -35.891615468596719 19.970538259457747 -1 0 0 I I #
coedge $-1 $304 $166 $169 $244 reversed $231 $-1 #
coedge $-1 $166 $304 $234 $299 forward $231 $-1 #
vertex $-1 $167 $305 #
straight-curve $-1 -39.581044398010363 -43.5642755858605 65.812786187738169 0 0 1 I I #
straight-curve $-1 -39.581044398010363 -43.5642755858605 15.36033886834305 0 -0.85716729658548041 -0.51503808176128008 I I #
edge $-1 $306 -67.819452497940006 $170 -39.581044398010363 $239 $307 forward 7 unknown #
point $-1 -39.581044398010363 -43.5642755858605 19.970538259457747 #
point $-1 -39.581044398010363 -35.891615468596726 19.970538259457747 #
edge $-1 $308 1 $308 0 $173 $-1 forward 7 unknown #
vertex $-1 $174 $309 #
ellipse-curve $-1 -59.751335897960104 -38.469751205784959 15.571451607823324 0 -0.51503808176128008 0.85716729658548041 1 0 0 1 I I #
point $-1 -58.751335897960104 -39.727945527228648 17.665438563900413 #
edge $-1 $310 1 $310 0 $177 $-1 forward 7 unknown #
vertex $-1 $178 $311 #
ellipse-curve $-1 -47.649160997990258 -38.469751205784959 15.571451607823324 0 -0.51503808176128008 0.85716729658548041 1 0 0 1 I I #
point $-1 -46.649160997990258 -39.727945527228648 17.665438563900413 #
loop $-1 $-1 $189 $181 #
plane-surface $-1 0 43.5642755858605 0 0 -1 0 0 0 -1 forward_v I I I I #
coedge $-1 $258 $184 $186 $262 reversed $119 $-1 #
coedge $-1 $184 $257 $312 $313 reversed $119 $-1 #
coedge $-1 $192 $187 $184 $260 forward $182 $-1 #
edge $-1 $263 -15.230638730999281 $314 4.6311368057002866 $259 $315 forward 7 unknown #
coedge $-1 $186 $185 $266 $316 reversed $75 $-1 #
edge $-1 $317 -87.128551171721043 $263 -59.039758509008671 $257 $318 forward 7 unknown #
vertex $-1 $188 $319 #
straight-curve $-1 8.789358991526754 23.702500049160946 19.970538259457744 1 0 0 I I #
coedge $-1 $312 $189 $192 $270 reversed $255 $-1 #
coedge $-1 $189 $312 $261 $316 forward $255 $-1 #
vertex $-1 $190 $320 #
straight-curve $-1 4.3573708773803972 43.5642755858605 78.814570373830279 0 0 1 I I #
straight-curve $-1 4.3573708773803972 -18.044913067798731 61.71795234517046 0 0.70710677298230451 -0.70710678939079041 I I #
edge $-1 $314 -30.800065088726619 $193 -4.3573708773803972 $265 $321 forward 7 unknown #
point $-1 4.3573708773803972 43.5642755858605 19.970538259457747 #
point $-1 4.3573708773803972 23.702500049160932 19.970538259457747 #
edge $-1 $322 1 $322 0 $196 $-1 forward 7 unknown #
vertex $-1 $197 $323 #
ellipse-curve $-1 11.912426366336476 28.176945525244971 4.583208095012246 0 0.70710678939079041 0.70710677298230451 3 0 0 1 I I #
point $-1 14.912426366336476 33.633387817510723 10.039650260660693 #
edge $-1 $324 1 $324 0 $200 $-1 forward 7 unknown #
vertex $-1 $201 $325 #
ellipse-curve $-1 23.245009599770569 28.176945525244971 4.583208095012246 0 0.70710678939079041 0.70710677298230451 3 0 0 1 I I #
point $-1 26.245009599770569 33.633387817510723 10.039650260660693 #
plane-surface $-1 67.819452497940006 0 0 -1 0 0 0 0 1 forward_v I I I I #
coedge $-1 $209 $207 $211 $286 reversed $141 $-1 #
edge $-1 $222 -19.970538259457747 $288 19.970538259457747 $221 $326 forward 7 unknown #
vertex $-1 $286 $327 #
straight-curve $-1 -67.819452497940006 -43.5642755858605 0 0 0 -1 I I #
edge $-1 $284 -43.5642755858605 $288 43.5642755858605 $282 $328 forward 7 unknown #
straight-curve $-1 0 -43.5642755858605 -19.970538259457747 -1 0 0 I I #
vertex $-1 $214 $329 #
straight-curve $-1 0 43.5642755858605 -19.970538259457747 1 0 0 I I #
point $-1 67.819452497940006 43.5642755858605 -19.970538259457747 #
point $-1 67.819452497940006 -43.5642755858605 -19.970538259457747 #
straight-curve $-1 -67.819452497940006 0 19.970538259457747 0 -1 0 I I #
point $-1 -67.819452497940006 43.5642755858605 19.970538259457747 #
point $-1 -67.819452497940006 -43.5642755858605 19.970538259457747 #
straight-curve $-1 67.819452497940006 -43.5642755858605 0 0 0 -1 I I #
straight-curve $-1 67.819452497940006 43.5642755858605 0 0 0 -1 I I #
coedge $-1 $298 $233 $304 $330 reversed $160 $-1 #
coedge $-1 $233 $297 $236 $302 reversed $160 $-1 #
edge $-1 $300 -40.969328273952414 $241 -12.730920174022771 $240 $331 forward 7 unknown #
vertex $-1 $235 $332 #
straight-curve $-1 -67.819452497940006 -30.95075329403031 22.939307817947054 0 -0.85716729658548041 -0.51503808176128008 I I #
edge $-1 $237 35.891615468596726 $306 43.5642755858605 $298 $333 forward 7 unknown #
point $-1 -67.819452497940006 -35.891615468596726 19.970538259457747 #
coedge $-1 $240 $239 $297 $330 forward $231 $-1 #
point $-1 -39.581044398010363 -43.5642755858605 15.36033886834305 #
vertex $-1 $302 $334 #
straight-curve $-1 0 -43.5642755858605 19.970538259457747 1 0 0 I I #
vertex $-1 $247 $335 #
point $-1 -58.751335897960104 -38.469751205784959 15.571451607823324 #
vertex $-1 $251 $336 #
point $-1 -46.649160997990258 -38.469751205784959 15.571451607823324 #
coedge $-1 $266 $265 $258 $313 forward $255 $-1 #
edge $-1 $314 58.844032114372531 $317 78.705808111966661 $312 $337 forward 7 unknown #
vertex $-1 $270 $338 #
straight-curve $-1 30.800065088726619 38.933138780160213 19.970538259457754 0 1 0 I I #
edge $-1 $317 -22.010706097199865 $267 4.4319881141463568 $266 $339 forward 7 unknown #
vertex $-1 $316 $340 #
straight-curve $-1 30.800065088726619 -18.044913067798731 61.71795234517046 0 -0.70710677298230451 0.70710678939079041 I I #
point $-1 30.800065088726619 23.702500049160932 19.970538259457747 #
point $-1 4.3573708773803972 43.5642755858605 0.10876226186362459 #
straight-curve $-1 0 43.5642755858605 19.970538259457747 -1 0 0 I I #
vertex $-1 $273 $341 #
point $-1 14.912426366336476 28.176945525244971 4.583208095012246 #
vertex $-1 $277 $342 #
point $-1 26.245009599770569 28.176945525244971 4.583208095012246 #
straight-curve $-1 -67.819452497940006 43.5642755858605 0 0 0 -1 I I #
point $-1 -67.819452497940006 -43.5642755858605 -19.970538259457747 #
straight-curve $-1 -67.819452497940006 0 -19.970538259457747 0 1 0 I I #
point $-1 -67.819452497940006 43.5642755858605 -19.970538259457747 #
edge $-1 $306 -19.970538259457747 $300 -15.36033886834305 $297 $343 forward 7 unknown #
straight-curve $-1 -26.850124223987592 -43.5642755858605 15.36033886834305 1 0 0 I I #
point $-1 -67.819452497940006 -43.5642755858605 15.36033886834305 #
straight-curve $-1 -67.819452497940006 0 19.970538259457747 0 -1 0 I I #
point $-1 -67.819452497940006 -43.5642755858605 19.970538259457747 #
point $-1 -59.751335897960104 -37.954713124023684 14.714284311237844 #
point $-1 -47.649160997990258 -37.954713124023684 14.714284311237844 #
straight-curve $-1 30.800065088726619 43.5642755858605 78.814570373830279 0 0 -1 I I #
point $-1 30.800065088726619 43.5642755858605 19.970538259457747 #
straight-curve $-1 8.789358991526754 43.5642755858605 0.10876226186362459 -1 0 0 I I #
point $-1 30.800065088726619 43.5642755858605 0.10876226186362459 #
point $-1 11.912426366336476 26.055625157072601 2.4618877760653319 #
point $-1 23.245009599770569 26.055625157072601 2.4618877760653319 #
straight-curve $-1 -67.819452497940006 -43.5642755858605 0 0 0 -1 I I #
End-of-ACIS-data 