500 0 19 0           
7 Unknown 11 ACIS 5.0 NT 24 Thu Mar 25 18:18:02 1999 
-1 9.9999999999999995e-007 1e-010 
body $-1 $19 $-1 $20 #
body $-1 $21 $-1 $22 #
body $-1 $23 $-1 $24 #
body $-1 $25 $-1 $26 #
body $-1 $27 $-1 $28 #
body $-1 $29 $-1 $30 #
body $-1 $31 $-1 $32 #
body $-1 $33 $-1 $34 #
body $-1 $35 $-1 $36 #
body $-1 $37 $-1 $38 #
body $-1 $39 $-1 $40 #
body $-1 $41 $-1 $42 #
body $-1 $43 $-1 $44 #
body $-1 $45 $-1 $46 #
body $-1 $47 $-1 $48 #
body $-1 $49 $-1 $50 #
body $-1 $51 $-1 $52 #
body $-1 $53 $-1 $54 #
body $-1 $55 $-1 $56 #
lump $-1 $-1 $57 $0 #
transform $-1 1 0 0 0 1 0 0 0 1 72.150639362773518 36.825517222537819 11.644986701652513 1 rotate no_reflect no_shear #
lump $-1 $-1 $58 $1 #
transform $-1 1 0 0 0 1 0 0 0 1 72.150639362773518 36.825517222537819 11.644986701652513 1 rotate no_reflect no_shear #
lump $-1 $-1 $59 $2 #
transform $-1 1 0 0 0 1 0 0 0 1 72.150639362773518 36.825517222537819 11.644986701652513 1 rotate no_reflect no_shear #
lump $-1 $-1 $60 $3 #
transform $-1 1 0 0 0 1 0 0 0 1 72.150639362773518 36.825517222537819 11.644986701652513 1 rotate no_reflect no_shear #
lump $-1 $-1 $61 $4 #
transform $-1 1 0 0 0 1 0 0 0 1 72.150639362773518 36.825517222537819 11.644986701652513 1 rotate no_reflect no_shear #
lump $-1 $-1 $62 $5 #
transform $-1 1 0 0 0 1 0 0 0 1 72.150639362773518 36.825517222537819 11.644986701652513 1 rotate no_reflect no_shear #
lump $-1 $-1 $63 $6 #
transform $-1 1 0 0 0 1 0 0 0 1 72.150639362773518 36.825517222537819 11.644986701652513 1 rotate no_reflect no_shear #
lump $-1 $-1 $64 $7 #
transform $-1 1 0 0 0 1 0 0 0 1 72.150639362773518 36.825517222537819 11.644986701652513 1 rotate no_reflect no_shear #
lump $-1 $-1 $65 $8 #
transform $-1 1 0 0 0 1 0 0 0 1 72.150639362773518 36.825517222537819 11.644986701652513 1 rotate no_reflect no_shear #
lump $-1 $-1 $66 $9 #
transform $-1 1 0 0 0 1 0 0 0 1 72.150639362773518 36.825517222537819 11.644986701652513 1 rotate no_reflect no_shear #
lump $-1 $-1 $67 $10 #
transform $-1 1 0 0 0 1 0 0 0 1 72.150639362773518 36.825517222537819 11.644986701652513 1 rotate no_reflect no_shear #
lump $-1 $-1 $68 $11 #
transform $-1 1 0 0 0 1 0 0 0 1 72.150639362773518 36.825517222537819 11.644986701652513 1 rotate no_reflect no_shear #
lump $-1 $-1 $69 $12 #
transform $-1 1 0 0 0 1 0 0 0 1 72.150639362773518 36.825517222537819 11.644986701652513 1 rotate no_reflect no_shear #
lump $-1 $-1 $70 $13 #
transform $-1 1 0 0 0 1 0 0 0 1 72.150639362773518 36.825517222537819 11.644986701652513 1 rotate no_reflect no_shear #
lump $-1 $-1 $71 $14 #
transform $-1 1 0 0 0 1 0 0 0 1 72.150639362773518 36.825517222537819 11.644986701652513 1 rotate no_reflect no_shear #
lump $-1 $-1 $72 $15 #
transform $-1 1 0 0 0 1 0 0 0 1 72.150639362773518 36.825517222537819 11.644986701652513 1 rotate no_reflect no_shear #
lump $-1 $-1 $73 $16 #
transform $-1 1 0 0 0 1 0 0 0 1 72.150639362773518 36.825517222537819 11.644986701652513 1 rotate no_reflect no_shear #
lump $-1 $-1 $74 $17 #
transform $-1 1 0 0 0 1 0 0 0 1 72.150639362773518 36.825517222537819 11.644986701652513 1 rotate no_reflect no_shear #
lump $-1 $-1 $75 $18 #
transform $-1 1 0 0 0 1 0 0 0 1 72.150639362773518 36.825517222537819 11.644986701652513 1 rotate no_reflect no_shear #
shell $-1 $-1 $-1 $76 $-1 $19 #
shell $-1 $-1 $-1 $77 $-1 $21 #
shell $-1 $-1 $-1 $78 $-1 $23 #
shell $-1 $-1 $-1 $79 $-1 $25 #
shell $-1 $-1 $-1 $80 $-1 $27 #
shell $-1 $-1 $-1 $81 $-1 $29 #
shell $-1 $-1 $-1 $82 $-1 $31 #
shell $-1 $-1 $-1 $83 $-1 $33 #
shell $-1 $-1 $-1 $84 $-1 $35 #
shell $-1 $-1 $-1 $85 $-1 $37 #
shell $-1 $-1 $-1 $86 $-1 $39 #
shell $-1 $-1 $-1 $87 $-1 $41 #
shell $-1 $-1 $-1 $88 $-1 $43 #
shell $-1 $-1 $-1 $89 $-1 $45 #
shell $-1 $-1 $-1 $90 $-1 $47 #
shell $-1 $-1 $-1 $91 $-1 $49 #
shell $-1 $-1 $-1 $92 $-1 $51 #
shell $-1 $-1 $-1 $93 $-1 $53 #
shell $-1 $-1 $-1 $94 $-1 $55 #
face $-1 $95 $96 $57 $-1 $97 forward single #
face $-1 $98 $99 $58 $-1 $100 reversed single #
face $-1 $101 $102 $59 $-1 $103 reversed single #
face $-1 $104 $105 $60 $-1 $106 reversed single #
face $-1 $107 $108 $61 $-1 $109 forward single #
face $-1 $110 $111 $62 $-1 $112 forward single #
face $-1 $113 $114 $63 $-1 $115 forward single #
face $-1 $116 $117 $64 $-1 $118 reversed single #
face $-1 $119 $120 $65 $-1 $121 forward single #
face $-1 $122 $123 $66 $-1 $124 forward single #
face $-1 $125 $126 $67 $-1 $127 forward single #
face $-1 $128 $129 $68 $-1 $130 reversed single #
face $-1 $131 $132 $69 $-1 $133 forward single #
face $-1 $134 $135 $70 $-1 $136 forward single #
face $-1 $137 $138 $71 $-1 $139 forward single #
face $-1 $140 $141 $72 $-1 $142 reversed single #
face $-1 $143 $144 $73 $-1 $145 forward single #
face $-1 $146 $147 $74 $-1 $148 forward single #
face $-1 $149 $150 $75 $-1 $151 forward single #
face $-1 $152 $153 $57 $-1 $154 reversed single #
loop $-1 $-1 $155 $76 #
plane-surface $-1 0 0 11.644986701652513 0 0 1 1 0 0 forward_v I I I I #
face $-1 $156 $157 $58 $-1 $158 reversed single #
loop $-1 $-1 $159 $77 #
plane-surface $-1 -64.978742708126106 0 6.6943658406838598 0 0 1 1 0 0 forward_v I I I I #
face $-1 $160 $161 $59 $-1 $162 reversed single #
loop $-1 $-1 $163 $78 #
plane-surface $-1 64.978742708126106 0 6.6943658406838598 0 0 1 1 0 0 forward_v I I I I #
face $-1 $164 $165 $60 $-1 $166 reversed single #
loop $-1 $-1 $167 $79 #
plane-surface $-1 0 -113.29354568236542 130.23108042645555 -1 0 0 0 -0.52991927123019833 0.84804809178421925 forward_v I I I I #
face $-1 $168 $169 $61 $-1 $170 forward single #
loop $-1 $171 $172 $80 #
cone-surface $-1 -17.17011695223637 -33.435427763746148 9.176634973616757 0 0.52991927123019833 -0.84804809178421925 1 0 0 1 I I 0 1 1 forward I I I I #
face $-1 $173 $174 $62 $-1 $175 forward single #
loop $-1 $176 $177 $81 #
cone-surface $-1 -10.731323095147737 -33.435427763746148 9.176634973616757 0 0.52991927123019833 -0.84804809178421925 1 0 0 1 I I 0 1 1 forward I I I I #
face $-1 $178 $179 $63 $-1 $180 forward single #
loop $-1 $181 $182 $82 #
cone-surface $-1 -4.2925292380591031 -33.435427763746148 9.176634973616757 0 0.52991927123019833 -0.84804809178421925 1 0 0 1 I I 0 1 1 forward I I I I #
face $-1 $183 $184 $64 $-1 $185 reversed single #
loop $-1 $-1 $186 $83 #
plane-surface $-1 36.344199863183235 -113.29354568236542 130.23108042645555 1 0 0 0 0.52991927123019833 -0.84804809178421925 forward_v I I I I #
face $-1 $187 $188 $65 $-1 $189 forward single #
loop $-1 $190 $191 $84 #
cone-surface $-1 40.636729101242324 -33.435427763746148 9.176634973616757 0 0.52991927123019833 -0.84804809178421925 1 0 0 1 I I 0 1 1 forward I I I I #
face $-1 $192 $193 $66 $-1 $194 forward single #
loop $-1 $195 $196 $85 #
cone-surface $-1 47.075522958330964 -33.435427763746148 9.176634973616757 0 0.52991927123019833 -0.84804809178421925 1 0 0 1 I I 0 1 1 forward I I I I #
face $-1 $197 $198 $67 $-1 $199 forward single #
loop $-1 $200 $201 $86 #
cone-surface $-1 53.514316815419591 -33.435427763746148 9.176634973616757 0 0.52991927123019833 -0.84804809178421925 1 0 0 1 I I 0 1 1 forward I I I I #
face $-1 $202 $203 $68 $-1 $204 reversed single #
loop $-1 $-1 $205 $87 #
plane-surface $-1 -21.462646190295459 50.833926463285216 169.26018292494024 1 0 0 0 -0.52991927123019833 -0.84804809178421925 forward_v I I I I #
face $-1 $206 $207 $69 $-1 $208 forward single #
loop $-1 $209 $210 $88 #
cone-surface $-1 -17.17011695223637 33.435427763746155 9.176634973616757 0 -0.52991927123019833 -0.84804809178421925 1 0 0 1 I I 0 1 1 forward I I I I #
face $-1 $211 $212 $70 $-1 $213 forward single #
loop $-1 $214 $215 $89 #
cone-surface $-1 -10.731323095147737 33.435427763746155 9.176634973616757 0 -0.52991927123019833 -0.84804809178421925 1 0 0 1 I I 0 1 1 forward I I I I #
face $-1 $216 $217 $71 $-1 $218 forward single #
loop $-1 $219 $220 $90 #
cone-surface $-1 -4.2925292380591031 33.435427763746155 9.176634973616757 0 -0.52991927123019833 -0.84804809178421925 1 0 0 1 I I 0 1 1 forward I I I I #
face $-1 $221 $222 $72 $-1 $223 reversed single #
loop $-1 $-1 $224 $91 #
plane-surface $-1 47.075522958330964 -25.634101996542391 46.885758859717328 0 0.52991927123019833 0.84804809178421925 1 0 0 forward_v I I I I #
face $-1 $225 $226 $73 $-1 $227 forward single #
loop $-1 $228 $229 $92 #
cone-surface $-1 40.636729101242324 33.435427763746155 9.176634973616757 0 -0.52991927123019833 -0.84804809178421925 1 0 0 1 I I 0 1 1 forward I I I I #
face $-1 $230 $231 $74 $-1 $232 forward single #
loop $-1 $233 $234 $93 #
cone-surface $-1 47.075522958330964 33.435427763746155 9.176634973616757 0 -0.52991927123019833 -0.84804809178421925 1 0 0 1 I I 0 1 1 forward I I I I #
face $-1 $235 $236 $75 $-1 $237 forward single #
loop $-1 $238 $239 $94 #
cone-surface $-1 53.514316815419591 33.435427763746155 9.176634973616757 0 -0.52991927123019833 -0.84804809178421925 1 0 0 1 I I 0 1 1 forward I I I I #
face $-1 $240 $241 $57 $-1 $242 reversed single #
loop $-1 $-1 $243 $95 #
plane-surface $-1 0 0 -11.644986701652513 0 0 1 1 0 0 forward_v I I I I #
coedge $-1 $244 $245 $246 $247 forward $96 $-1 #
face $-1 $248 $249 $58 $-1 $250 reversed single #
loop $-1 $-1 $251 $98 #
plane-surface $-1 -57.806846053478701 0 9.1696762711681856 -1 0 0 0 0 1 forward_v I I I I #
coedge $-1 $252 $253 $254 $255 forward $99 $-1 #
face $-1 $256 $257 $59 $-1 $258 forward single #
loop $-1 $-1 $259 $101 #
plane-surface $-1 57.806846053478694 0 9.1696762711681856 1 0 0 0 0 -1 forward_v I I I I #
coedge $-1 $260 $261 $262 $263 reversed $102 $-1 #
face $-1 $264 $265 $60 $-1 $266 reversed single #
loop $-1 $-1 $267 $104 #
plane-surface $-1 -10.731323095147729 -36.825517222537812 7.8566563612326377 0 -0.52991927123019833 0.84804809178421925 1 0 0 forward_v I I I I #
coedge $-1 $268 $269 $270 $271 reversed $105 $-1 #
face $-1 $-1 $272 $61 $-1 $273 forward single #
loop $-1 $274 $275 $107 #
cone-surface $-1 -17.17011695223637 -32.811676539280143 8.1784243698988206 0 0.52991927123019833 -0.84804809178421925 0.5 0 0 1 I I -0.70710678118654746 0.70710678118654746 0.5 forward I I I I #
loop $-1 $-1 $276 $80 #
coedge $-1 $172 $172 $277 $278 reversed $108 $-1 #
face $-1 $-1 $279 $62 $-1 $280 forward single #
loop $-1 $281 $282 $110 #
cone-surface $-1 -10.731323095147737 -32.811676539280143 8.1784243698988206 0 0.52991927123019833 -0.84804809178421925 0.5 0 0 1 I I -0.70710678118654746 0.70710678118654746 0.5 forward I I I I #
loop $-1 $-1 $283 $81 #
coedge $-1 $177 $177 $284 $285 reversed $111 $-1 #
face $-1 $-1 $286 $63 $-1 $287 forward single #
loop $-1 $288 $289 $113 #
cone-surface $-1 -4.2925292380591031 -32.811676539280143 8.1784243698988206 0 0.52991927123019833 -0.84804809178421925 0.5 0 0 1 I I -0.70710678118654746 0.70710678118654746 0.5 forward I I I I #
loop $-1 $-1 $290 $82 #
coedge $-1 $182 $182 $291 $292 reversed $114 $-1 #
face $-1 $293 $294 $64 $-1 $295 reversed single #
loop $-1 $-1 $296 $116 #
plane-surface $-1 47.075522958330964 -36.825517222537812 7.8566563612326377 0 -0.52991927123019833 0.84804809178421925 1 0 0 forward_v I I I I #
coedge $-1 $297 $298 $299 $300 reversed $117 $-1 #
face $-1 $-1 $301 $65 $-1 $302 forward single #
loop $-1 $303 $304 $119 #
cone-surface $-1 40.636729101242324 -32.811676539280143 8.1784243698988206 0 0.52991927123019833 -0.84804809178421925 0.5 0 0 1 I I -0.70710678118654746 0.70710678118654746 0.5 forward I I I I #
loop $-1 $-1 $305 $84 #
coedge $-1 $191 $191 $306 $307 reversed $120 $-1 #
face $-1 $-1 $308 $66 $-1 $309 forward single #
loop $-1 $310 $311 $122 #
cone-surface $-1 47.075522958330964 -32.811676539280143 8.1784243698988206 0 0.52991927123019833 -0.84804809178421925 0.5 0 0 1 I I -0.70710678118654746 0.70710678118654746 0.5 forward I I I I #
loop $-1 $-1 $312 $85 #
coedge $-1 $196 $196 $313 $314 reversed $123 $-1 #
face $-1 $-1 $315 $67 $-1 $316 forward single #
loop $-1 $317 $318 $125 #
cone-surface $-1 53.514316815419591 -32.811676539280143 8.1784243698988206 0 0.52991927123019833 -0.84804809178421925 0.5 0 0 1 I I -0.70710678118654746 0.70710678118654746 0.5 forward I I I I #
loop $-1 $-1 $319 $86 #
coedge $-1 $201 $201 $320 $321 reversed $126 $-1 #
face $-1 $322 $323 $68 $-1 $324 reversed single #
loop $-1 $-1 $325 $128 #
plane-surface $-1 -10.731323095147729 -25.634101996542391 46.885758859717328 0 0.52991927123019833 0.84804809178421925 1 0 0 forward_v I I I I #
coedge $-1 $326 $327 $328 $329 reversed $129 $-1 #
face $-1 $-1 $330 $69 $-1 $331 forward single #
loop $-1 $332 $333 $131 #
cone-surface $-1 -17.17011695223637 32.81167653928015 8.1784243698988206 0 -0.52991927123019833 -0.84804809178421925 0.5 0 0 1 I I -0.70710678118654746 0.70710678118654746 0.5 forward I I I I #
loop $-1 $-1 $334 $88 #
coedge $-1 $210 $210 $335 $336 reversed $132 $-1 #
face $-1 $-1 $337 $70 $-1 $338 forward single #
loop $-1 $339 $340 $134 #
cone-surface $-1 -10.731323095147737 32.81167653928015 8.1784243698988206 0 -0.52991927123019833 -0.84804809178421925 0.5 0 0 1 I I -0.70710678118654746 0.70710678118654746 0.5 forward I I I I #
loop $-1 $-1 $341 $89 #
coedge $-1 $215 $215 $342 $343 reversed $135 $-1 #
face $-1 $-1 $344 $71 $-1 $345 forward single #
loop $-1 $346 $347 $137 #
cone-surface $-1 -4.2925292380591031 32.81167653928015 8.1784243698988206 0 -0.52991927123019833 -0.84804809178421925 0.5 0 0 1 I I -0.70710678118654746 0.70710678118654746 0.5 forward I I I I #
loop $-1 $-1 $348 $90 #
coedge $-1 $220 $220 $349 $350 reversed $138 $-1 #
face $-1 $351 $352 $72 $-1 $353 forward single #
loop $-1 $-1 $354 $140 #
plane-surface $-1 36.344199863183235 50.833926463285216 169.26018292494024 1 0 0 0 -0.52991927123019833 -0.84804809178421925 forward_v I I I I #
coedge $-1 $355 $356 $357 $358 reversed $141 $-1 #
face $-1 $-1 $359 $73 $-1 $360 forward single #
loop $-1 $361 $362 $143 #
cone-surface $-1 40.636729101242324 32.81167653928015 8.1784243698988206 0 -0.52991927123019833 -0.84804809178421925 0.5 0 0 1 I I -0.70710678118654746 0.70710678118654746 0.5 forward I I I I #
loop $-1 $-1 $363 $92 #
coedge $-1 $229 $229 $364 $365 reversed $144 $-1 #
face $-1 $-1 $366 $74 $-1 $367 forward single #
loop $-1 $368 $369 $146 #
cone-surface $-1 47.075522958330964 32.81167653928015 8.1784243698988206 0 -0.52991927123019833 -0.84804809178421925 0.5 0 0 1 I I -0.70710678118654746 0.70710678118654746 0.5 forward I I I I #
loop $-1 $-1 $370 $93 #
coedge $-1 $234 $234 $371 $372 reversed $147 $-1 #
face $-1 $-1 $373 $75 $-1 $374 forward single #
loop $-1 $375 $376 $149 #
cone-surface $-1 53.514316815419591 32.81167653928015 8.1784243698988206 0 -0.52991927123019833 -0.84804809178421925 0.5 0 0 1 I I -0.70710678118654746 0.70710678118654746 0.5 forward I I I I #
loop $-1 $-1 $377 $94 #
coedge $-1 $239 $239 $378 $379 reversed $150 $-1 #
face $-1 $380 $381 $57 $-1 $382 reversed single #
loop $-1 $-1 $383 $152 #
plane-surface $-1 0 -36.825517222537819 0 0 1 0 0 0 1 forward_v I I I I #
coedge $-1 $384 $385 $386 $387 forward $153 $-1 #
coedge $-1 $388 $155 $389 $390 forward $96 $-1 #
coedge $-1 $155 $388 $391 $392 forward $96 $-1 #
coedge $-1 $393 $394 $155 $247 reversed $395 $-1 #
edge $-1 $396 -36.825517222537819 $397 36.825517222537819 $246 $398 forward 7 unknown #
face $-1 $399 $400 $58 $-1 $401 reversed single #
loop $-1 $-1 $402 $156 #
plane-surface $-1 0 36.825517222537819 0 0 -1 0 0 0 -1 forward_v I I I I #
coedge $-1 $254 $403 $404 $405 reversed $157 $-1 #
coedge $-1 $406 $159 $407 $408 reversed $99 $-1 #
coedge $-1 $159 $406 $409 $410 reversed $99 $-1 #
coedge $-1 $411 $251 $159 $255 reversed $157 $-1 #
edge $-1 $412 -36.825517222537819 $413 36.825517222537819 $254 $414 forward 7 unknown #
face $-1 $415 $416 $59 $-1 $417 reversed single #
loop $-1 $-1 $418 $160 #
plane-surface $-1 0 0 11.644986701652513 0 0 1 1 0 0 forward_v I I I I #
coedge $-1 $419 $420 $421 $422 reversed $161 $-1 #
coedge $-1 $423 $163 $424 $425 reversed $102 $-1 #
coedge $-1 $163 $423 $426 $427 reversed $102 $-1 #
coedge $-1 $428 $429 $163 $263 forward $430 $-1 #
edge $-1 $431 -36.825517222537819 $432 36.825517222537819 $262 $433 forward 7 unknown #
face $-1 $434 $435 $60 $-1 $436 forward single #
loop $-1 $-1 $437 $164 #
plane-surface $-1 -21.462646190295459 -113.29354568236542 130.23108042645555 1 0 0 0 0.52991927123019833 -0.84804809178421925 forward_v I I I I #
coedge $-1 $438 $439 $440 $441 reversed $165 $-1 #
coedge $-1 $269 $167 $442 $443 reversed $105 $-1 #
coedge $-1 $167 $268 $438 $444 reversed $105 $-1 #
coedge $-1 $440 $445 $167 $271 forward $435 $-1 #
edge $-1 $446 19.821255618644891 $447 25.883851358526449 $270 $448 forward 7 unknown #
loop $-1 $-1 $277 $168 #
plane-surface $-1 -10.731323095147729 -36.825517222537812 7.8566563612326377 0 -0.52991927123019833 0.84804809178421925 1 0 0 forward_v I I I I #
loop $-1 $-1 $449 $107 #
coedge $-1 $275 $275 $276 $450 reversed $169 $-1 #
coedge $-1 $276 $276 $275 $450 forward $171 $-1 #
coedge $-1 $277 $277 $172 $278 forward $272 $-1 #
edge $-1 $451 -3.7778978124636169e-016 $451 6.2831853071796004 $277 $452 forward 7 unknown #
loop $-1 $-1 $284 $173 #
plane-surface $-1 -10.731323095147729 -36.825517222537812 7.8566563612326377 0 -0.52991927123019833 0.84804809178421925 1 0 0 forward_v I I I I #
loop $-1 $-1 $453 $110 #
coedge $-1 $282 $282 $283 $454 reversed $174 $-1 #
coedge $-1 $283 $283 $282 $454 forward $176 $-1 #
coedge $-1 $284 $284 $177 $285 forward $279 $-1 #
edge $-1 $455 -3.7778978124636169e-016 $455 6.2831853071796004 $284 $456 forward 7 unknown #
loop $-1 $-1 $291 $178 #
plane-surface $-1 -10.731323095147729 -36.825517222537812 7.8566563612326377 0 -0.52991927123019833 0.84804809178421925 1 0 0 forward_v I I I I #
loop $-1 $-1 $457 $113 #
coedge $-1 $289 $289 $290 $458 reversed $179 $-1 #
coedge $-1 $290 $290 $289 $458 forward $181 $-1 #
coedge $-1 $291 $291 $182 $292 forward $286 $-1 #
edge $-1 $459 -3.7778978124636169e-016 $459 6.2831853071796004 $291 $460 forward 7 unknown #
face $-1 $461 $462 $64 $-1 $463 forward single #
loop $-1 $-1 $299 $183 #
plane-surface $-1 0 -36.825517222537819 0 0 1 0 0 0 1 forward_v I I I I #
coedge $-1 $464 $465 $466 $467 reversed $184 $-1 #
coedge $-1 $298 $186 $468 $469 reversed $117 $-1 #
coedge $-1 $186 $297 $464 $470 reversed $117 $-1 #
coedge $-1 $466 $471 $186 $300 forward $294 $-1 #
edge $-1 $472 53.470553511575261 $473 57.258883851995144 $299 $474 forward 7 unknown #
loop $-1 $-1 $306 $187 #
plane-surface $-1 47.075522958330964 -36.825517222537812 7.8566563612326377 0 -0.52991927123019833 0.84804809178421925 1 0 0 forward_v I I I I #
loop $-1 $-1 $475 $119 #
coedge $-1 $304 $304 $305 $476 reversed $188 $-1 #
coedge $-1 $305 $305 $304 $476 forward $190 $-1 #
coedge $-1 $306 $306 $191 $307 forward $301 $-1 #
edge $-1 $477 -3.7778978124636169e-016 $477 6.2831853071796004 $306 $478 forward 7 unknown #
loop $-1 $-1 $313 $192 #
plane-surface $-1 47.075522958330964 -36.825517222537812 7.8566563612326377 0 -0.52991927123019833 0.84804809178421925 1 0 0 forward_v I I I I #
loop $-1 $-1 $479 $122 #
coedge $-1 $311 $311 $312 $480 reversed $193 $-1 #
coedge $-1 $312 $312 $311 $480 forward $195 $-1 #
coedge $-1 $313 $313 $196 $314 forward $308 $-1 #
edge $-1 $481 -3.7778978124636169e-016 $481 6.2831853071796004 $313 $482 forward 7 unknown #
loop $-1 $-1 $320 $197 #
plane-surface $-1 47.075522958330964 -36.825517222537812 7.8566563612326377 0 -0.52991927123019833 0.84804809178421925 1 0 0 forward_v I I I I #
loop $-1 $-1 $483 $125 #
coedge $-1 $318 $318 $319 $484 reversed $198 $-1 #
coedge $-1 $319 $319 $318 $484 forward $200 $-1 #
coedge $-1 $320 $320 $201 $321 forward $315 $-1 #
edge $-1 $485 -3.7778978124636169e-016 $485 6.2831853071796004 $320 $486 forward 7 unknown #
face $-1 $487 $488 $68 $-1 $489 forward single #
loop $-1 $-1 $490 $202 #
plane-surface $-1 0 50.833926463285216 169.26018292494024 -1 0 0 0 0.52991927123019833 0.84804809178421925 forward_v I I I I #
coedge $-1 $491 $492 $493 $494 reversed $203 $-1 #
coedge $-1 $327 $205 $495 $496 reversed $129 $-1 #
coedge $-1 $205 $326 $491 $497 reversed $129 $-1 #
coedge $-1 $493 $498 $205 $329 forward $488 $-1 #
edge $-1 $499 -11.408553990895211 $500 -5.3459582510136023 $328 $501 forward 7 unknown #
loop $-1 $-1 $335 $206 #
plane-surface $-1 -10.731323095147729 -25.634101996542391 46.885758859717328 0 0.52991927123019833 0.84804809178421925 1 0 0 forward_v I I I I #
loop $-1 $-1 $502 $131 #
coedge $-1 $333 $333 $334 $503 reversed $207 $-1 #
coedge $-1 $334 $334 $333 $503 forward $209 $-1 #
coedge $-1 $335 $335 $210 $336 forward $330 $-1 #
edge $-1 $504 4.3351362903247247e-015 $504 6.2831853071796049 $335 $505 forward 7 unknown #
loop $-1 $-1 $342 $211 #
plane-surface $-1 -10.731323095147729 -25.634101996542391 46.885758859717328 0 0.52991927123019833 0.84804809178421925 1 0 0 forward_v I I I I #
loop $-1 $-1 $506 $134 #
coedge $-1 $340 $340 $341 $507 reversed $212 $-1 #
coedge $-1 $341 $341 $340 $507 forward $214 $-1 #
coedge $-1 $342 $342 $215 $343 forward $337 $-1 #
edge $-1 $508 4.3351362903247247e-015 $508 6.2831853071796049 $342 $509 forward 7 unknown #
loop $-1 $-1 $349 $216 #
plane-surface $-1 -10.731323095147729 -25.634101996542391 46.885758859717328 0 0.52991927123019833 0.84804809178421925 1 0 0 forward_v I I I I #
loop $-1 $-1 $510 $137 #
coedge $-1 $347 $347 $348 $511 reversed $217 $-1 #
coedge $-1 $348 $348 $347 $511 forward $219 $-1 #
coedge $-1 $349 $349 $220 $350 forward $344 $-1 #
edge $-1 $512 4.3351362903247247e-015 $512 6.2831853071796049 $349 $513 forward 7 unknown #
face $-1 $514 $515 $72 $-1 $516 forward single #
loop $-1 $-1 $517 $221 #
plane-surface $-1 0 0 11.644986701652513 0 0 1 1 0 0 forward_v I I I I #
coedge $-1 $518 $519 $520 $521 reversed $222 $-1 #
coedge $-1 $522 $224 $523 $524 reversed $141 $-1 #
coedge $-1 $224 $522 $518 $525 forward $141 $-1 #
coedge $-1 $520 $526 $224 $358 forward $527 $-1 #
edge $-1 $528 -34.269084574313212 $529 -12.806438384017753 $357 $530 forward 7 unknown #
loop $-1 $-1 $364 $225 #
plane-surface $-1 47.075522958330964 -25.634101996542391 46.885758859717328 0 0.52991927123019833 0.84804809178421925 1 0 0 forward_v I I I I #
loop $-1 $-1 $531 $143 #
coedge $-1 $362 $362 $363 $532 reversed $226 $-1 #
coedge $-1 $363 $363 $362 $532 forward $228 $-1 #
coedge $-1 $364 $364 $229 $365 forward $359 $-1 #
edge $-1 $533 4.3351362903247247e-015 $533 6.2831853071796049 $364 $534 forward 7 unknown #
loop $-1 $-1 $371 $230 #
plane-surface $-1 47.075522958330964 -25.634101996542391 46.885758859717328 0 0.52991927123019833 0.84804809178421925 1 0 0 forward_v I I I I #
loop $-1 $-1 $535 $146 #
coedge $-1 $369 $369 $370 $536 reversed $231 $-1 #
coedge $-1 $370 $370 $369 $536 forward $233 $-1 #
coedge $-1 $371 $371 $234 $372 forward $366 $-1 #
edge $-1 $537 4.3351362903247247e-015 $537 6.2831853071796049 $371 $538 forward 7 unknown #
loop $-1 $-1 $378 $235 #
plane-surface $-1 47.075522958330964 -25.634101996542391 46.885758859717328 0 0.52991927123019833 0.84804809178421925 1 0 0 forward_v I I I I #
loop $-1 $-1 $539 $149 #
coedge $-1 $376 $376 $377 $540 reversed $236 $-1 #
coedge $-1 $377 $377 $376 $540 forward $238 $-1 #
coedge $-1 $378 $378 $239 $379 forward $373 $-1 #
edge $-1 $541 4.3351362903247247e-015 $541 6.2831853071796049 $378 $542 forward 7 unknown #
face $-1 $543 $544 $57 $-1 $545 reversed single #
loop $-1 $-1 $546 $240 #
plane-surface $-1 -72.150639362773518 0 0 1 0 0 0 0 -1 forward_v I I I I #
coedge $-1 $547 $391 $548 $549 forward $241 $-1 #
coedge $-1 $550 $243 $547 $551 forward $153 $-1 #
coedge $-1 $243 $550 $552 $553 forward $153 $-1 #
coedge $-1 $394 $393 $243 $387 reversed $395 $-1 #
edge $-1 $554 -36.825517222537819 $555 36.825517222537819 $386 $556 forward 7 unknown #
coedge $-1 $245 $244 $557 $558 forward $96 $-1 #
coedge $-1 $559 $560 $244 $390 reversed $544 $-1 #
edge $-1 $397 -72.150639362773518 $561 72.150639362773518 $389 $562 forward 7 unknown #
coedge $-1 $383 $563 $245 $392 reversed $241 $-1 #
edge $-1 $564 -72.150639362773518 $396 72.150639362773518 $391 $565 forward 7 unknown #
coedge $-1 $386 $246 $563 $566 forward $395 $-1 #
coedge $-1 $246 $386 $559 $567 reversed $395 $-1 #
loop $-1 $-1 $393 $543 #
vertex $-1 $247 $568 #
vertex $-1 $247 $569 #
straight-curve $-1 72.150639362773518 0 11.644986701652513 0 1 0 I I #
face $-1 $570 $571 $58 $-1 $572 forward single #
loop $-1 $-1 $573 $248 #
plane-surface $-1 -72.150639362773518 0 0 1 0 0 0 0 -1 forward_v I I I I #
coedge $-1 $409 $574 $411 $575 forward $249 $-1 #
coedge $-1 $251 $411 $576 $577 reversed $157 $-1 #
coedge $-1 $578 $407 $251 $405 forward $579 $-1 #
edge $-1 $413 2.1095277050997669 $580 7.0601485660684187 $404 $581 forward 7 unknown #
coedge $-1 $253 $252 $573 $582 reversed $99 $-1 #
coedge $-1 $404 $583 $252 $408 forward $579 $-1 #
edge $-1 $584 -39.661268008710465 $413 -25.317474699415648 $407 $585 forward 7 unknown #
coedge $-1 $586 $402 $253 $410 forward $249 $-1 #
edge $-1 $412 25.317474699415648 $587 39.661268008710465 $409 $588 forward 7 unknown #
coedge $-1 $403 $254 $402 $575 reversed $157 $-1 #
vertex $-1 $410 $589 #
vertex $-1 $408 $590 #
straight-curve $-1 -57.806846053478701 0 6.6943658406838598 0 -1 0 I I #
face $-1 $591 $592 $59 $-1 $593 reversed single #
loop $-1 $-1 $594 $256 #
plane-surface $-1 0 -36.825517222537819 0 0 1 0 0 0 1 forward_v I I I I #
coedge $-1 $595 $596 $420 $597 forward $257 $-1 #
coedge $-1 $598 $259 $423 $599 reversed $161 $-1 #
coedge $-1 $259 $598 $418 $597 reversed $161 $-1 #
coedge $-1 $600 $426 $259 $422 forward $592 $-1 #
edge $-1 $601 2.1095277050997669 $602 7.0601485660684187 $421 $603 forward 7 unknown #
coedge $-1 $261 $260 $419 $599 forward $102 $-1 #
coedge $-1 $604 $594 $260 $425 forward $416 $-1 #
edge $-1 $605 25.317474699415641 $431 39.661268008710465 $424 $606 forward 7 unknown #
coedge $-1 $421 $607 $261 $427 forward $592 $-1 #
edge $-1 $432 -39.661268008710465 $601 -25.317474699415641 $426 $608 forward 7 unknown #
coedge $-1 $609 $262 $607 $610 reversed $430 $-1 #
coedge $-1 $262 $609 $604 $611 forward $430 $-1 #
loop $-1 $-1 $262 $591 #
vertex $-1 $425 $612 #
vertex $-1 $263 $613 #
straight-curve $-1 72.150639362773518 0 6.6943658406838598 0 1 0 I I #
face $-1 $-1 $614 $60 $-1 $615 reversed single #
loop $-1 $-1 $270 $264 #
plane-surface $-1 0 0 11.644986701652513 0 0 1 1 0 0 forward_v I I I I #
coedge $-1 $616 $617 $618 $619 reversed $265 $-1 #
coedge $-1 $620 $267 $269 $444 forward $165 $-1 #
coedge $-1 $267 $620 $616 $621 forward $165 $-1 #
coedge $-1 $618 $270 $267 $441 forward $435 $-1 #
edge $-1 $447 -5.3656615475738647 $622 16.096984642721594 $440 $623 forward 7 unknown #
coedge $-1 $624 $625 $268 $443 forward $614 $-1 #
edge $-1 $626 -57.258883851995144 $446 -53.470553511575261 $442 $627 forward 7 unknown #
edge $-1 $447 -7.1488820016402359 $626 8.3790584163743152e-015 $269 $628 forward 7 unknown #
coedge $-1 $270 $618 $624 $629 forward $435 $-1 #
vertex $-1 $443 $630 #
vertex $-1 $271 $631 #
straight-curve $-1 0 -56.64677284118271 11.644986701652513 0 1 0 I I #
coedge $-1 $449 $449 $-1 $632 reversed $274 $-1 #
edge $-1 $633 0 $633 6.2831853071796004 $275 $634 forward 7 unknown #
vertex $-1 $278 $635 #
ellipse-curve $-1 -17.17011695223637 -33.794219352597047 9.7508215314425701 0 -0.52991927123019833 0.84804809178421925 1 0 0 1 I I #
coedge $-1 $453 $453 $-1 $636 reversed $281 $-1 #
edge $-1 $637 0 $637 6.2831853071796004 $282 $638 forward 7 unknown #
vertex $-1 $285 $639 #
ellipse-curve $-1 -10.731323095147737 -33.794219352597047 9.7508215314425701 0 -0.52991927123019833 0.84804809178421925 1 0 0 1 I I #
coedge $-1 $457 $457 $-1 $640 reversed $288 $-1 #
edge $-1 $641 0 $641 6.2831853071796004 $289 $642 forward 7 unknown #
vertex $-1 $292 $643 #
ellipse-curve $-1 -4.2925292380591031 -33.794219352597047 9.7508215314425701 0 -0.52991927123019833 0.84804809178421925 1 0 0 1 I I #
face $-1 $-1 $644 $64 $-1 $645 forward single #
loop $-1 $-1 $468 $293 #
plane-surface $-1 0 0 11.644986701652513 0 0 1 1 0 0 forward_v I I I I #
coedge $-1 $646 $296 $298 $470 forward $184 $-1 #
coedge $-1 $296 $646 $647 $648 reversed $184 $-1 #
coedge $-1 $649 $299 $296 $467 forward $294 $-1 #
edge $-1 $473 12.806438384017753 $650 34.269084574313212 $466 $651 forward 7 unknown #
coedge $-1 $652 $653 $297 $469 forward $462 $-1 #
edge $-1 $654 -25.883851358526449 $472 -19.821255618644891 $468 $655 forward 7 unknown #
edge $-1 $473 -8.3790584163743152e-015 $654 7.1488820016402359 $298 $656 forward 7 unknown #
coedge $-1 $299 $649 $652 $657 reversed $294 $-1 #
vertex $-1 $657 $658 #
vertex $-1 $300 $659 #
straight-curve $-1 36.344199863183235 -36.825517222537819 65.115540213227774 0 0 -1 I I #
coedge $-1 $475 $475 $-1 $660 reversed $303 $-1 #
edge $-1 $661 0 $661 6.2831853071796004 $304 $662 forward 7 unknown #
vertex $-1 $307 $663 #
ellipse-curve $-1 40.636729101242324 -33.794219352597047 9.7508215314425701 0 -0.52991927123019833 0.84804809178421925 1 0 0 1 I I #
coedge $-1 $479 $479 $-1 $664 reversed $310 $-1 #
edge $-1 $665 0 $665 6.2831853071796004 $311 $666 forward 7 unknown #
vertex $-1 $314 $667 #
ellipse-curve $-1 47.075522958330964 -33.794219352597047 9.7508215314425701 0 -0.52991927123019833 0.84804809178421925 1 0 0 1 I I #
coedge $-1 $483 $483 $-1 $668 reversed $317 $-1 #
edge $-1 $669 0 $669 6.2831853071796004 $318 $670 forward 7 unknown #
vertex $-1 $321 $671 #
ellipse-curve $-1 53.514316815419591 -33.794219352597047 9.7508215314425701 0 -0.52991927123019833 0.84804809178421925 1 0 0 1 I I #
face $-1 $-1 $672 $68 $-1 $673 reversed single #
loop $-1 $-1 $328 $322 #
plane-surface $-1 0 0 11.644986701652513 0 0 1 1 0 0 forward_v I I I I #
coedge $-1 $674 $675 $676 $677 reversed $323 $-1 #
coedge $-1 $678 $325 $327 $497 forward $203 $-1 #
coedge $-1 $325 $678 $674 $679 forward $203 $-1 #
coedge $-1 $676 $328 $325 $494 forward $488 $-1 #
edge $-1 $500 -16.096984642721594 $680 5.3656615475738647 $493 $681 forward 7 unknown #
coedge $-1 $682 $683 $326 $496 forward $672 $-1 #
edge $-1 $684 -76.77343510123751 $499 -72.985104760817606 $495 $685 forward 7 unknown #
edge $-1 $500 66.502152443435349 $684 73.651034445075652 $327 $686 forward 7 unknown #
coedge $-1 $328 $676 $682 $687 forward $488 $-1 #
vertex $-1 $496 $688 #
vertex $-1 $329 $689 #
straight-curve $-1 -21.462646190295459 25.416963231642608 11.644986701652513 0 -1 0 I I #
coedge $-1 $502 $502 $-1 $690 reversed $332 $-1 #
edge $-1 $691 0 $691 6.2831853071796004 $333 $692 forward 7 unknown #
vertex $-1 $336 $693 #
ellipse-curve $-1 -17.17011695223637 33.794219352597032 9.7508215314425435 0 0.52991927123019833 0.84804809178421925 1 0 0 1 I I #
coedge $-1 $506 $506 $-1 $694 reversed $339 $-1 #
edge $-1 $695 0 $695 6.2831853071796004 $340 $696 forward 7 unknown #
vertex $-1 $343 $697 #
ellipse-curve $-1 -10.731323095147737 33.794219352597032 9.7508215314425435 0 0.52991927123019833 0.84804809178421925 1 0 0 1 I I #
coedge $-1 $510 $510 $-1 $698 reversed $346 $-1 #
edge $-1 $699 0 $699 6.2831853071796004 $347 $700 forward 7 unknown #
vertex $-1 $350 $701 #
ellipse-curve $-1 -4.2925292380591031 33.794219352597032 9.7508215314425435 0 0.52991927123019833 0.84804809178421925 1 0 0 1 I I #
face $-1 $-1 $527 $72 $-1 $702 reversed single #
loop $-1 $-1 $523 $351 #
plane-surface $-1 57.806846053478694 0 9.1696762711681856 1 0 0 0 0 -1 forward_v I I I I #
coedge $-1 $703 $704 $519 $705 forward $352 $-1 #
coedge $-1 $519 $354 $356 $525 reversed $222 $-1 #
coedge $-1 $354 $518 $517 $705 reversed $222 $-1 #
coedge $-1 $706 $357 $354 $521 forward $527 $-1 #
edge $-1 $529 -76.77343510123751 $707 -72.985104760817606 $520 $708 forward 7 unknown #
coedge $-1 $356 $355 $703 $709 reversed $141 $-1 #
coedge $-1 $710 $711 $355 $524 forward $515 $-1 #
edge $-1 $712 45.639437302559479 $528 52.788319304199788 $523 $713 forward 7 unknown #
edge $-1 $714 66.502152443435349 $529 73.651034445075652 $518 $715 forward 7 unknown #
coedge $-1 $357 $706 $710 $716 forward $527 $-1 #
loop $-1 $-1 $520 $514 #
vertex $-1 $524 $717 #
vertex $-1 $358 $718 #
straight-curve $-1 23.537761479165482 36.825517222537826 7.8566563612325986 -1 0 0 I I #
coedge $-1 $531 $531 $-1 $719 reversed $361 $-1 #
edge $-1 $720 0 $720 6.2831853071796004 $362 $721 forward 7 unknown #
vertex $-1 $365 $722 #
ellipse-curve $-1 40.636729101242324 33.794219352597032 9.7508215314425435 0 0.52991927123019833 0.84804809178421925 1 0 0 1 I I #
coedge $-1 $535 $535 $-1 $723 reversed $368 $-1 #
edge $-1 $724 0 $724 6.2831853071796004 $369 $725 forward 7 unknown #
vertex $-1 $372 $726 #
ellipse-curve $-1 47.075522958330964 33.794219352597032 9.7508215314425435 0 0.52991927123019833 0.84804809178421925 1 0 0 1 I I #
coedge $-1 $539 $539 $-1 $727 reversed $375 $-1 #
edge $-1 $728 0 $728 6.2831853071796004 $376 $729 forward 7 unknown #
vertex $-1 $379 $730 #
ellipse-curve $-1 53.514316815419591 33.794219352597032 9.7508215314425435 0 0.52991927123019833 0.84804809178421925 1 0 0 1 I I #
face $-1 $-1 $395 $57 $-1 $731 reversed single #
loop $-1 $-1 $559 $380 #
plane-surface $-1 0 36.825517222537819 0 0 -1 0 0 0 -1 forward_v I I I I #
coedge $-1 $732 $557 $560 $733 forward $381 $-1 #
coedge $-1 $563 $383 $384 $551 reversed $241 $-1 #
coedge $-1 $557 $732 $383 $549 reversed $381 $-1 #
edge $-1 $564 -11.644986701652513 $734 11.644986701652513 $548 $735 forward 7 unknown #
coedge $-1 $385 $384 $732 $736 forward $153 $-1 #
edge $-1 $555 -72.150639362773518 $734 72.150639362773518 $547 $737 forward 7 unknown #
coedge $-1 $560 $559 $385 $553 reversed $544 $-1 #
edge $-1 $738 -72.150639362773518 $554 72.150639362773518 $552 $739 forward 7 unknown #
vertex $-1 $387 $740 #
vertex $-1 $566 $741 #
straight-curve $-1 72.150639362773518 0 -11.644986701652513 0 -1 0 I I #
coedge $-1 $546 $548 $388 $558 reversed $381 $-1 #
edge $-1 $561 -36.825517222537819 $564 36.825517222537819 $557 $742 forward 7 unknown #
coedge $-1 $552 $389 $394 $567 forward $544 $-1 #
coedge $-1 $389 $552 $546 $733 reversed $544 $-1 #
vertex $-1 $390 $743 #
straight-curve $-1 0 36.825517222537819 11.644986701652513 -1 0 0 I I #
coedge $-1 $391 $547 $393 $566 reversed $241 $-1 #
vertex $-1 $558 $744 #
straight-curve $-1 0 -36.825517222537819 11.644986701652513 1 0 0 I I #
edge $-1 $396 -11.644986701652513 $555 11.644986701652513 $393 $745 forward 7 unknown #
edge $-1 $397 -11.644986701652513 $554 11.644986701652513 $394 $746 forward 7 unknown #
point $-1 72.150639362773518 -36.825517222537819 11.644986701652513 #
point $-1 72.150639362773518 36.825517222537819 11.644986701652513 #
face $-1 $-1 $579 $58 $-1 $747 reversed single #
loop $-1 $-1 $576 $399 #
plane-surface $-1 0 0 11.644986701652513 0 0 1 1 0 0 forward_v I I I I #
coedge $-1 $748 $749 $406 $582 forward $400 $-1 #
coedge $-1 $402 $586 $750 $751 reversed $249 $-1 #
edge $-1 $752 -7.0601485660684187 $412 -2.1095277050997669 $402 $753 forward 7 unknown #
coedge $-1 $750 $754 $403 $577 forward $571 $-1 #
edge $-1 $580 -36.825517222537819 $752 36.825517222537819 $576 $755 forward 7 unknown #
coedge $-1 $583 $404 $754 $756 reversed $579 $-1 #
loop $-1 $-1 $404 $570 #
vertex $-1 $405 $757 #
straight-curve $-1 -57.806846053478701 -36.825517222537819 4.5848381355840928 0 0 1 I I #
edge $-1 $587 -36.825517222537819 $584 36.825517222537819 $573 $758 forward 7 unknown #
coedge $-1 $407 $578 $748 $759 forward $579 $-1 #
vertex $-1 $582 $760 #
straight-curve $-1 -32.489371354063053 -36.825517222537819 6.6943658406838598 1 0 0 I I #
coedge $-1 $574 $409 $749 $761 reversed $249 $-1 #
vertex $-1 $582 $762 #
straight-curve $-1 -32.489371354063053 36.825517222537819 6.6943658406838598 -1 0 0 I I #
point $-1 -57.806846053478701 36.825517222537819 6.6943658406838598 #
point $-1 -57.806846053478701 -36.825517222537819 6.6943658406838598 #
face $-1 $-1 $430 $59 $-1 $763 reversed single #
loop $-1 $-1 $421 $415 #
plane-surface $-1 0 36.825517222537819 0 0 -1 0 0 0 -1 forward_v I I I I #
coedge $-1 $424 $764 $598 $765 forward $416 $-1 #
coedge $-1 $766 $418 $764 $767 forward $257 $-1 #
coedge $-1 $418 $766 $600 $768 forward $257 $-1 #
edge $-1 $602 -36.825517222537819 $769 36.825517222537819 $418 $770 forward 7 unknown #
coedge $-1 $420 $419 $594 $765 reversed $161 $-1 #
edge $-1 $605 -36.825517222537819 $601 36.825517222537819 $419 $771 forward 7 unknown #
coedge $-1 $607 $421 $596 $768 reversed $592 $-1 #
vertex $-1 $427 $772 #
vertex $-1 $422 $773 #
straight-curve $-1 57.806846053478694 36.825517222537819 4.5848381355840928 0 0 1 I I #
coedge $-1 $764 $424 $429 $611 reversed $416 $-1 #
vertex $-1 $425 $774 #
straight-curve $-1 32.489371354063053 -36.825517222537819 6.6943658406838598 1 0 0 I I #
coedge $-1 $426 $600 $428 $610 forward $592 $-1 #
straight-curve $-1 32.489371354063053 36.825517222537819 6.6943658406838598 -1 0 0 I I #
coedge $-1 $429 $428 $766 $775 reversed $430 $-1 #
edge $-1 $776 -11.644986701652513 $432 -6.6943658406838598 $428 $777 forward 7 unknown #
edge $-1 $778 -11.644986701652513 $431 -6.6943658406838598 $429 $779 forward 7 unknown #
point $-1 72.150639362773518 -36.825517222537819 6.6943658406838598 #
point $-1 72.150639362773518 36.825517222537819 6.6943658406838598 #
loop $-1 $-1 $442 $434 #
plane-surface $-1 0 -36.825517222537819 0 0 1 0 0 0 1 forward_v I I I I #
coedge $-1 $617 $437 $439 $621 reversed $265 $-1 #
coedge $-1 $437 $616 $780 $781 reversed $265 $-1 #
coedge $-1 $445 $440 $437 $619 forward $435 $-1 #
edge $-1 $622 -25.883851358526449 $782 -19.821255618644891 $618 $783 forward 7 unknown #
coedge $-1 $439 $438 $625 $784 reversed $165 $-1 #
edge $-1 $785 -8.3790584163743152e-015 $622 7.1488820016402359 $616 $786 forward 7 unknown #
vertex $-1 $441 $787 #
straight-curve $-1 -5.3656615475738647 -30.762921482656257 11.644986701652513 -1 0 0 I I #
coedge $-1 $780 $442 $445 $629 reversed $614 $-1 #
coedge $-1 $442 $780 $620 $784 forward $614 $-1 #
vertex $-1 $443 $788 #
straight-curve $-1 0 -36.825517222537819 65.115540213227774 0 0 1 I I #
straight-curve $-1 0 -36.825517222537812 7.8566563612326377 0 -0.84804809178421925 -0.52991927123019833 I I #
edge $-1 $782 -21.462646190295459 $446 0 $624 $789 forward 7 unknown #
point $-1 0 -36.825517222537819 11.644986701652513 #
point $-1 0 -30.76292148265626 11.644986701652513 #
edge $-1 $790 1 $790 0 $449 $-1 forward 7 unknown #
vertex $-1 $450 $791 #
ellipse-curve $-1 -17.17011695223637 -33.076636174895242 8.6024484157909296 0 -0.52991927123019833 0.84804809178421925 1 0 0 1 I I #
point $-1 -16.17011695223637 -33.794219352597054 9.7508215314425808 #
edge $-1 $792 1 $792 0 $453 $-1 forward 7 unknown #
vertex $-1 $454 $793 #
ellipse-curve $-1 -10.731323095147737 -33.076636174895242 8.6024484157909296 0 -0.52991927123019833 0.84804809178421925 1 0 0 1 I I #
point $-1 -9.7313230951477365 -33.794219352597054 9.7508215314425808 #
edge $-1 $794 1 $794 0 $457 $-1 forward 7 unknown #
vertex $-1 $458 $795 #
ellipse-curve $-1 -4.2925292380591031 -33.076636174895242 8.6024484157909296 0 -0.52991927123019833 0.84804809178421925 1 0 0 1 I I #
point $-1 -3.2925292380591031 -33.794219352597054 9.7508215314425808 #
loop $-1 $-1 $647 $461 #
plane-surface $-1 57.806846053478694 0 9.1696762711681856 1 0 0 0 0 -1 forward_v I I I I #
coedge $-1 $465 $464 $653 $796 reversed $184 $-1 #
coedge $-1 $797 $798 $465 $648 forward $644 $-1 #
edge $-1 $650 -15.962802081661946 $799 -8.8139200800217026 $647 $800 forward 7 unknown #
coedge $-1 $471 $466 $798 $801 forward $294 $-1 #
vertex $-1 $801 $802 #
straight-curve $-1 23.537761479165482 -36.825517222537819 7.8566563612326306 1 0 0 I I #
coedge $-1 $803 $468 $471 $657 forward $462 $-1 #
coedge $-1 $468 $803 $646 $796 forward $462 $-1 #
vertex $-1 $469 $804 #
straight-curve $-1 36.344199863183235 -56.64677284118271 11.644986701652513 0 -1 0 I I #
straight-curve $-1 36.344199863183235 -36.825517222537812 7.8566563612326377 0 0.84804809178421925 0.52991927123019833 I I #
edge $-1 $472 36.344199863183235 $805 57.806846053478694 $471 $806 forward 7 unknown #
point $-1 36.344199863183235 -36.825517222537819 11.644986701652513 #
point $-1 36.344199863183235 -36.825517222537819 7.8566563612326332 #
edge $-1 $807 1 $807 0 $475 $-1 forward 7 unknown #
vertex $-1 $476 $808 #
ellipse-curve $-1 40.636729101242324 -33.076636174895242 8.6024484157909296 0 -0.52991927123019833 0.84804809178421925 1 0 0 1 I I #
point $-1 41.636729101242324 -33.794219352597054 9.7508215314425808 #
edge $-1 $809 1 $809 0 $479 $-1 forward 7 unknown #
vertex $-1 $480 $810 #
ellipse-curve $-1 47.075522958330964 -33.076636174895242 8.6024484157909296 0 -0.52991927123019833 0.84804809178421925 1 0 0 1 I I #
point $-1 48.075522958330964 -33.794219352597054 9.7508215314425808 #
edge $-1 $811 1 $811 0 $483 $-1 forward 7 unknown #
vertex $-1 $484 $812 #
ellipse-curve $-1 53.514316815419591 -33.076636174895242 8.6024484157909296 0 -0.52991927123019833 0.84804809178421925 1 0 0 1 I I #
point $-1 54.514316815419591 -33.794219352597054 9.7508215314425808 #
loop $-1 $-1 $495 $487 #
plane-surface $-1 0 36.825517222537819 0 0 -1 0 0 0 -1 forward_v I I I I #
coedge $-1 $675 $490 $492 $679 reversed $323 $-1 #
coedge $-1 $490 $674 $813 $814 reversed $323 $-1 #
coedge $-1 $498 $493 $490 $677 forward $488 $-1 #
edge $-1 $680 5.3459582510136023 $815 11.408553990895211 $676 $816 forward 7 unknown #
coedge $-1 $492 $491 $683 $817 reversed $203 $-1 #
edge $-1 $818 -73.651034445075652 $680 -66.502152443435349 $674 $819 forward 7 unknown #
vertex $-1 $494 $820 #
straight-curve $-1 -5.3656615475738647 30.762921482656225 11.64498670165251 1 0 0 I I #
coedge $-1 $813 $495 $498 $687 reversed $672 $-1 #
coedge $-1 $495 $813 $678 $817 forward $672 $-1 #
vertex $-1 $496 $821 #
straight-curve $-1 -21.462646190295459 36.825517222537819 84.630091462470119 0 0 1 I I #
straight-curve $-1 -21.462646190295459 -25.634101996542391 46.885758859717328 0 0.84804809178421925 -0.52991927123019833 I I #
edge $-1 $815 0 $499 21.462646190295459 $682 $822 forward 7 unknown #
point $-1 -21.462646190295459 36.825517222537819 11.644986701652513 #
point $-1 -21.462646190295459 30.762921482656211 11.644986701652513 #
edge $-1 $823 1 $823 0 $502 $-1 forward 7 unknown #
vertex $-1 $503 $824 #
ellipse-curve $-1 -17.17011695223637 33.076636174895249 8.6024484157909296 0 0.52991927123019833 0.84804809178421925 1 0 0 1 I I #
point $-1 -16.17011695223637 33.794219352597061 9.7508215314425808 #
edge $-1 $825 1 $825 0 $506 $-1 forward 7 unknown #
vertex $-1 $507 $826 #
ellipse-curve $-1 -10.731323095147737 33.076636174895249 8.6024484157909296 0 0.52991927123019833 0.84804809178421925 1 0 0 1 I I #
point $-1 -9.7313230951477365 33.794219352597061 9.7508215314425808 #
edge $-1 $827 1 $827 0 $510 $-1 forward 7 unknown #
vertex $-1 $511 $828 #
ellipse-curve $-1 -4.2925292380591031 33.076636174895249 8.6024484157909296 0 0.52991927123019833 0.84804809178421925 1 0 0 1 I I #
point $-1 -3.2925292380591031 33.794219352597061 9.7508215314425808 #
plane-surface $-1 0 36.825517222537819 0 0 -1 0 0 0 -1 forward_v I I I I #
coedge $-1 $829 $517 $522 $709 forward $352 $-1 #
coedge $-1 $517 $829 $706 $830 forward $352 $-1 #
edge $-1 $707 -11.408553990895211 $714 -5.3459582510136023 $517 $831 forward 7 unknown #
coedge $-1 $526 $520 $704 $830 reversed $527 $-1 #
vertex $-1 $521 $832 #
straight-curve $-1 36.344199863183235 36.825517222537819 84.630091462470119 0 0 1 I I #
edge $-1 $714 12.806438384017753 $712 34.269084574313212 $703 $833 forward 7 unknown #
coedge $-1 $711 $523 $526 $716 reversed $515 $-1 #
coedge $-1 $523 $710 $829 $834 reversed $515 $-1 #
vertex $-1 $834 $835 #
straight-curve $-1 57.806846053478694 -7.941516231884866 35.830204056381163 0 0.84804809178421925 -0.52991927123019833 I I #
vertex $-1 $709 $836 #
straight-curve $-1 36.344199863183235 -25.634101996542391 46.885758859717328 0 0.84804809178421925 -0.52991927123019833 I I #
edge $-1 $837 -7.0601485660684187 $528 -3.2718182256485058 $526 $838 forward 7 unknown #
point $-1 57.806846053478694 36.825517222537819 7.8566563612325986 #
point $-1 36.344199863183235 36.825517222537819 7.8566563612326021 #
edge $-1 $839 1 $839 0 $531 $-1 forward 7 unknown #
vertex $-1 $532 $840 #
ellipse-curve $-1 40.636729101242324 33.076636174895249 8.6024484157909296 0 0.52991927123019833 0.84804809178421925 1 0 0 1 I I #
point $-1 41.636729101242324 33.794219352597061 9.7508215314425808 #
edge $-1 $841 1 $841 0 $535 $-1 forward 7 unknown #
vertex $-1 $536 $842 #
ellipse-curve $-1 47.075522958330964 33.076636174895249 8.6024484157909296 0 0.52991927123019833 0.84804809178421925 1 0 0 1 I I #
point $-1 48.075522958330964 33.794219352597061 9.7508215314425808 #
edge $-1 $843 1 $843 0 $539 $-1 forward 7 unknown #
vertex $-1 $540 $844 #
ellipse-curve $-1 53.514316815419591 33.076636174895249 8.6024484157909296 0 0.52991927123019833 0.84804809178421925 1 0 0 1 I I #
point $-1 54.514316815419591 33.794219352597061 9.7508215314425808 #
plane-surface $-1 72.150639362773518 0 0 -1 0 0 0 0 1 forward_v I I I I #
coedge $-1 $548 $546 $550 $736 reversed $381 $-1 #
edge $-1 $561 -11.644986701652513 $738 11.644986701652513 $560 $845 forward 7 unknown #
vertex $-1 $736 $846 #
straight-curve $-1 -72.150639362773518 -36.825517222537819 0 0 0 -1 I I #
edge $-1 $734 -36.825517222537819 $738 36.825517222537819 $732 $847 forward 7 unknown #
straight-curve $-1 0 -36.825517222537819 -11.644986701652513 -1 0 0 I I #
vertex $-1 $553 $848 #
straight-curve $-1 0 36.825517222537819 -11.644986701652513 1 0 0 I I #
point $-1 72.150639362773518 36.825517222537819 -11.644986701652513 #
point $-1 72.150639362773518 -36.825517222537819 -11.644986701652513 #
straight-curve $-1 -72.150639362773518 0 11.644986701652513 0 -1 0 I I #
point $-1 -72.150639362773518 36.825517222537819 11.644986701652513 #
point $-1 -72.150639362773518 -36.825517222537819 11.644986701652513 #
straight-curve $-1 72.150639362773518 -36.825517222537819 0 0 0 -1 I I #
straight-curve $-1 72.150639362773518 36.825517222537819 0 0 0 -1 I I #
plane-surface $-1 0 -36.825517222537819 0 0 1 0 0 0 1 forward_v I I I I #
coedge $-1 $849 $573 $583 $759 reversed $400 $-1 #
coedge $-1 $573 $849 $586 $761 forward $400 $-1 #
coedge $-1 $850 $576 $574 $751 forward $571 $-1 #
edge $-1 $752 57.806846053478701 $851 72.150639362773518 $574 $852 forward 7 unknown #
vertex $-1 $751 $853 #
straight-curve $-1 -57.806846053478701 36.825517222537819 4.5848381355840928 0 0 -1 I I #
coedge $-1 $576 $850 $578 $756 forward $571 $-1 #
straight-curve $-1 -57.806846053478701 0 11.644986701652513 0 1 0 I I #
edge $-1 $854 -72.150639362773518 $580 -57.806846053478701 $578 $855 forward 7 unknown #
point $-1 -57.806846053478701 -36.825517222537819 11.644986701652511 #
straight-curve $-1 -72.150639362773518 0 6.6943658406838598 0 -1 0 I I #
edge $-1 $854 -11.644986701652513 $584 -6.6943658406838598 $748 $856 forward 7 unknown #
point $-1 -72.150639362773518 -36.825517222537819 6.6943658406838598 #
edge $-1 $851 -11.644986701652513 $587 -6.6943658406838598 $586 $857 forward 7 unknown #
point $-1 -72.150639362773518 36.825517222537819 6.6943658406838598 #
plane-surface $-1 72.150639362773518 0 0 -1 0 0 0 0 1 forward_v I I I I #
coedge $-1 $594 $604 $595 $767 reversed $416 $-1 #
edge $-1 $769 -7.0601485660684187 $605 -2.1095277050997669 $594 $858 forward 7 unknown #
coedge $-1 $596 $595 $609 $775 forward $257 $-1 #
edge $-1 $769 57.806846053478694 $778 72.150639362773518 $764 $859 forward 7 unknown #
edge $-1 $776 -72.150639362773518 $602 -57.806846053478694 $600 $860 forward 7 unknown #
vertex $-1 $767 $861 #
straight-curve $-1 57.806846053478694 0 11.644986701652513 0 -1 0 I I #
straight-curve $-1 57.806846053478694 0 6.6943658406838598 0 1 0 I I #
point $-1 57.806846053478694 36.825517222537819 6.6943658406838598 #
point $-1 57.806846053478694 36.825517222537819 11.644986701652511 #
point $-1 57.806846053478694 -36.825517222537819 6.6943658406838598 #
edge $-1 $778 -36.825517222537819 $776 36.825517222537819 $609 $862 forward 7 unknown #
vertex $-1 $775 $863 #
straight-curve $-1 72.150639362773518 36.825517222537819 0 0 0 -1 I I #
vertex $-1 $775 $864 #
straight-curve $-1 72.150639362773518 -36.825517222537819 0 0 0 -1 I I #
coedge $-1 $625 $624 $617 $781 forward $614 $-1 #
edge $-1 $782 53.470553511575261 $785 57.258883851995144 $780 $865 forward 7 unknown #
vertex $-1 $629 $866 #
straight-curve $-1 -21.462646190295459 -56.64677284118271 11.644986701652513 0 -1 0 I I #
edge $-1 $785 -16.096984642721594 $626 5.3656615475738647 $625 $867 forward 7 unknown #
vertex $-1 $784 $868 #
straight-curve $-1 -21.462646190295459 -36.825517222537812 7.8566563612326377 0 0.84804809178421925 0.52991927123019833 I I #
point $-1 -21.462646190295459 -30.76292148265626 11.644986701652513 #
point $-1 0 -36.825517222537819 7.8566563612326332 #
straight-curve $-1 0 -36.825517222537819 11.644986701652513 1 0 0 I I #
vertex $-1 $632 $869 #
point $-1 -16.17011695223637 -33.076636174895242 8.6024484157909296 #
vertex $-1 $636 $870 #
point $-1 -9.7313230951477365 -33.076636174895242 8.6024484157909296 #
vertex $-1 $640 $871 #
point $-1 -3.2925292380591031 -33.076636174895242 8.6024484157909296 #
edge $-1 $799 -34.269084574313212 $654 -12.806438384017753 $653 $872 forward 7 unknown #
coedge $-1 $798 $647 $803 $873 reversed $644 $-1 #
coedge $-1 $647 $797 $649 $801 reversed $644 $-1 #
vertex $-1 $648 $874 #
straight-curve $-1 57.806846053478694 -23.288293377655243 16.315652807138825 0 0.84804809178421925 0.52991927123019833 I I #
edge $-1 $650 3.2718182256485404 $805 7.0601485660684187 $649 $875 forward 7 unknown #
point $-1 57.806846053478694 -36.825517222537819 7.8566563612326332 #
coedge $-1 $653 $652 $797 $873 forward $462 $-1 #
point $-1 36.344199863183235 -30.76292148265626 11.644986701652513 #
vertex $-1 $873 $876 #
straight-curve $-1 0 -36.825517222537819 11.644986701652513 1 0 0 I I #
vertex $-1 $660 $877 #
point $-1 41.636729101242324 -33.076636174895242 8.6024484157909296 #
vertex $-1 $664 $878 #
point $-1 48.075522958330964 -33.076636174895242 8.6024484157909296 #
vertex $-1 $668 $879 #
point $-1 54.514316815419591 -33.076636174895242 8.6024484157909296 #
coedge $-1 $683 $682 $675 $814 forward $672 $-1 #
edge $-1 $815 72.985104760817606 $818 76.77343510123751 $813 $880 forward 7 unknown #
vertex $-1 $687 $881 #
straight-curve $-1 0 25.416963231642608 11.644986701652513 0 1 0 I I #
edge $-1 $818 -5.3656615475738647 $684 16.096984642721594 $683 $882 forward 7 unknown #
vertex $-1 $817 $883 #
straight-curve $-1 0 -25.634101996542391 46.885758859717328 0 -0.84804809178421925 0.52991927123019833 I I #
point $-1 0 30.762921482656211 11.644986701652513 #
point $-1 -21.462646190295459 36.825517222537819 7.8566563612326021 #
straight-curve $-1 0 36.825517222537819 11.644986701652513 -1 0 0 I I #
vertex $-1 $690 $884 #
point $-1 -16.17011695223637 33.076636174895249 8.6024484157909296 #
vertex $-1 $694 $885 #
point $-1 -9.7313230951477365 33.076636174895249 8.6024484157909296 #
vertex $-1 $698 $886 #
point $-1 -3.2925292380591031 33.076636174895249 8.6024484157909296 #
coedge $-1 $704 $703 $711 $834 forward $352 $-1 #
edge $-1 $837 -57.806846053478694 $707 -36.344199863183235 $706 $887 forward 7 unknown #
straight-curve $-1 36.344199863183235 25.416963231642608 11.644986701652513 0 -1 0 I I #
point $-1 36.344199863183235 36.825517222537819 11.644986701652513 #
straight-curve $-1 23.537761479165482 30.762921482656225 11.64498670165251 1 0 0 I I #
edge $-1 $712 30.762921482656211 $837 36.825517222537819 $829 $888 forward 7 unknown #
point $-1 57.806846053478694 30.762921482656211 11.644986701652513 #
point $-1 36.344199863183235 30.762921482656211 11.644986701652513 #
vertex $-1 $830 $889 #
straight-curve $-1 57.806846053478694 36.825517222537819 4.5848381355840928 0 0 -1 I I #
vertex $-1 $719 $890 #
point $-1 41.636729101242324 33.076636174895249 8.6024484157909296 #
vertex $-1 $723 $891 #
point $-1 48.075522958330964 33.076636174895249 8.6024484157909296 #
vertex $-1 $727 $892 #
point $-1 54.514316815419591 33.076636174895249 8.6024484157909296 #
straight-curve $-1 -72.150639362773518 36.825517222537819 0 0 0 -1 I I #
point $-1 -72.150639362773518 -36.825517222537819 -11.644986701652513 #
straight-curve $-1 -72.150639362773518 0 -11.644986701652513 0 1 0 I I #
point $-1 -72.150639362773518 36.825517222537819 -11.644986701652513 #
coedge $-1 $749 $748 $850 $893 reversed $400 $-1 #
coedge $-1 $754 $750 $849 $893 forward $571 $-1 #
vertex $-1 $751 $894 #
straight-curve $-1 0 36.825517222537819 11.644986701652513 -1 0 0 I I #
point $-1 -57.806846053478701 36.825517222537819 11.644986701652511 #
vertex $-1 $893 $895 #
straight-curve $-1 0 -36.825517222537819 11.644986701652513 1 0 0 I I #
straight-curve $-1 -72.150639362773518 -36.825517222537819 0 0 0 -1 I I #
straight-curve $-1 -72.150639362773518 36.825517222537819 0 0 0 -1 I I #
straight-curve $-1 57.806846053478694 -36.825517222537819 4.5848381355840928 0 0 -1 I I #
straight-curve $-1 0 -36.825517222537819 11.644986701652513 1 0 0 I I #
straight-curve $-1 0 36.825517222537819 11.644986701652513 -1 0 0 I I #
point $-1 57.806846053478694 -36.825517222537819 11.644986701652511 #
straight-curve $-1 72.150639362773518 0 11.644986701652513 0 1 0 I I #
point $-1 72.150639362773518 36.825517222537819 11.644986701652513 #
point $-1 72.150639362773518 -36.825517222537819 11.644986701652513 #
straight-curve $-1 -21.462646190295459 -36.825517222537819 65.115540213227774 0 0 -1 I I #
point $-1 -21.462646190295459 -36.825517222537819 11.644986701652513 #
straight-curve $-1 -5.3656615475738647 -36.825517222537819 7.8566563612326306 1 0 0 I I #
point $-1 -21.462646190295459 -36.825517222537819 7.8566563612326332 #
point $-1 -17.17011695223637 -32.546716903665043 7.7544003240067108 #
point $-1 -10.731323095147737 -32.546716903665043 7.7544003240067108 #
point $-1 -4.2925292380591031 -32.546716903665043 7.7544003240067108 #
straight-curve $-1 23.537761479165482 -30.762921482656257 11.644986701652513 -1 0 0 I I #
edge $-1 $805 -36.825517222537819 $799 -30.76292148265626 $803 $896 forward 7 unknown #
point $-1 57.806846053478694 -30.76292148265626 11.644986701652513 #
straight-curve $-1 57.806846053478694 -36.825517222537819 4.5848381355840928 0 0 1 I I #
point $-1 57.806846053478694 -36.825517222537819 11.644986701652511 #
point $-1 40.636729101242324 -32.546716903665043 7.7544003240067108 #
point $-1 47.075522958330964 -32.546716903665043 7.7544003240067108 #
point $-1 53.514316815419591 -32.546716903665043 7.7544003240067108 #
straight-curve $-1 0 36.825517222537819 84.630091462470119 0 0 -1 I I #
point $-1 0 36.825517222537819 11.644986701652513 #
straight-curve $-1 -5.3656615475738647 36.825517222537826 7.8566563612325986 -1 0 0 I I #
point $-1 0 36.825517222537819 7.8566563612326021 #
point $-1 -17.17011695223637 32.54671690366505 7.7544003240067108 #
point $-1 -10.731323095147737 32.54671690366505 7.7544003240067108 #
point $-1 -4.2925292380591031 32.54671690366505 7.7544003240067108 #
straight-curve $-1 0 36.825517222537819 11.644986701652513 -1 0 0 I I #
straight-curve $-1 57.806846053478694 0 11.644986701652513 0 1 0 I I #
point $-1 57.806846053478694 36.825517222537819 11.644986701652511 #
point $-1 40.636729101242324 32.54671690366505 7.7544003240067108 #
point $-1 47.075522958330964 32.54671690366505 7.7544003240067108 #
point $-1 53.514316815419591 32.54671690366505 7.7544003240067108 #
edge $-1 $851 -36.825517222537819 $854 36.825517222537819 $849 $897 forward 7 unknown #
point $-1 -72.150639362773518 36.825517222537819 11.644986701652513 #
point $-1 -72.150639362773518 -36.825517222537819 11.644986701652513 #
straight-curve $-1 57.806846053478694 0 11.644986701652513 0 1 0 I I #
straight-curve $-1 -72.150639362773518 0 11.644986701652513 0 -1 0 I I #
End-of-ACIS-data 