500 0 10 0           
7 Unknown 11 ACIS 5.0 NT 24 Thu Mar 25 17:20:10 1999 
-1 9.9999999999999995e-007 1e-010 
body $-1 $10 $-1 $11 #
body $-1 $12 $-1 $13 #
body $-1 $14 $-1 $15 #
body $-1 $16 $-1 $17 #
body $-1 $18 $-1 $19 #
body $-1 $20 $-1 $21 #
body $-1 $22 $-1 $23 #
body $-1 $24 $-1 $25 #
body $-1 $26 $-1 $27 #
body $-1 $28 $-1 $29 #
lump $-1 $-1 $30 $0 #
transform $-1 1 0 0 0 1 0 0 0 1 40.050050355540634 19.103801905790245 7.6065978907026812 1 rotate no_reflect no_shear #
lump $-1 $-1 $31 $1 #
transform $-1 1 0 0 0 1 0 0 0 1 40.050050355540634 19.103801905790245 7.6065978907026812 1 rotate no_reflect no_shear #
lump $-1 $-1 $32 $2 #
transform $-1 1 0 0 0 1 0 0 0 1 40.050050355540634 19.103801905790245 7.6065978907026812 1 rotate no_reflect no_shear #
lump $-1 $-1 $33 $3 #
transform $-1 1 0 0 0 1 0 0 0 1 40.050050355540634 19.103801905790245 7.6065978907026812 1 rotate no_reflect no_shear #
lump $-1 $-1 $34 $4 #
transform $-1 1 0 0 0 1 0 0 0 1 40.050050355540634 19.103801905790245 7.6065978907026812 1 rotate no_reflect no_shear #
lump $-1 $-1 $35 $5 #
transform $-1 1 0 0 0 1 0 0 0 1 40.050050355540634 19.103801905790245 7.6065978907026812 1 rotate no_reflect no_shear #
lump $-1 $-1 $36 $6 #
transform $-1 1 0 0 0 1 0 0 0 1 40.050050355540634 19.103801905790245 7.6065978907026812 1 rotate no_reflect no_shear #
lump $-1 $-1 $37 $7 #
transform $-1 1 0 0 0 1 0 0 0 1 40.050050355540634 19.103801905790245 7.6065978907026812 1 rotate no_reflect no_shear #
lump $-1 $-1 $38 $8 #
transform $-1 1 0 0 0 1 0 0 0 1 40.050050355540634 19.103801905790245 7.6065978907026812 1 rotate no_reflect no_shear #
lump $-1 $-1 $39 $9 #
transform $-1 1 0 0 0 1 0 0 0 1 40.050050355540634 19.103801905790245 7.6065978907026812 1 rotate no_reflect no_shear #
shell $-1 $-1 $-1 $40 $-1 $10 #
shell $-1 $-1 $-1 $41 $-1 $12 #
shell $-1 $-1 $-1 $42 $-1 $14 #
shell $-1 $-1 $-1 $43 $-1 $16 #
shell $-1 $-1 $-1 $44 $-1 $18 #
shell $-1 $-1 $-1 $45 $-1 $20 #
shell $-1 $-1 $-1 $46 $-1 $22 #
shell $-1 $-1 $-1 $47 $-1 $24 #
shell $-1 $-1 $-1 $48 $-1 $26 #
shell $-1 $-1 $-1 $49 $-1 $28 #
face $-1 $50 $51 $30 $-1 $52 reversed single #
face $-1 $53 $54 $31 $-1 $55 forward single #
face $-1 $56 $57 $32 $-1 $58 forward single #
face $-1 $59 $60 $33 $-1 $61 reversed single #
face $-1 $62 $63 $34 $-1 $64 forward single #
face $-1 $65 $66 $35 $-1 $67 forward single #
face $-1 $68 $69 $36 $-1 $70 reversed single #
face $-1 $71 $72 $37 $-1 $73 forward single #
face $-1 $74 $75 $38 $-1 $76 forward single #
face $-1 $77 $78 $39 $-1 $79 forward single #
face $-1 $80 $81 $30 $-1 $82 forward single #
loop $-1 $-1 $83 $40 #
plane-surface $-1 0 -19.103801905790245 0 0 1 0 0 0 1 forward_v I I I I #
face $-1 $84 $85 $31 $-1 $86 forward single #
loop $-1 $-1 $87 $41 #
plane-surface $-1 0 -19.103801905790245 0 0 1 0 0 0 1 forward_v I I I I #
face $-1 $88 $89 $32 $-1 $90 forward single #
loop $-1 $-1 $91 $42 #
plane-surface $-1 0 19.103801905790245 0 0 -1 0 0 0 -1 forward_v I I I I #
face $-1 $92 $93 $33 $-1 $94 reversed single #
loop $-1 $-1 $95 $43 #
plane-surface $-1 36.096683781363424 5.0247052107979364 114.16141313908588 0 -1 0 -0.68199836817093118 0 -0.7313536940579346 forward_v I I I I #
face $-1 $96 $97 $34 $-1 $98 forward single #
loop $-1 $99 $100 $44 #
cone-surface $-1 36.124342222746868 -0.49196664544519919 3.8958189444629299 -0.68199836817093118 0 -0.7313536940579346 0.3656768470289673 0 -0.34099918408546559 1 I I 0 1 0.5 forward I I I I #
face $-1 $101 $102 $35 $-1 $103 forward single #
loop $-1 $104 $105 $45 #
cone-surface $-1 36.124342222746868 2.8180364683006829 3.8958189444629299 -0.68199836817093118 0 -0.7313536940579346 0.3656768470289673 0 -0.34099918408546559 1 I I 0 1 0.5 forward I I I I #
face $-1 $106 $107 $36 $-1 $108 reversed single #
loop $-1 $-1 $109 $46 #
plane-surface $-1 -103.16979174203361 -13.951070626849042 53.207807313949928 0 1 0 -0.78801076186113728 0 0.61566146476048833 forward_v I I I I #
face $-1 $110 $111 $37 $-1 $112 forward single #
loop $-1 $113 $114 $47 #
cone-surface $-1 -38.20545702904235 -12.710425255380848 5.4420992043225977 0.78801076186113728 0 -0.61566146476048833 0.30783073238024417 0 0.39400538093056864 1 I I 0 1 0.5 forward I I I I #
face $-1 $115 $116 $38 $-1 $117 forward single #
loop $-1 $118 $119 $48 #
cone-surface $-1 -38.20545702904235 -10.849457198178559 5.4420992043225977 0.78801076186113728 0 -0.61566146476048833 0.30783073238024417 0 0.39400538093056864 1 I I 0 1 0.5 forward I I I I #
face $-1 $120 $121 $39 $-1 $122 forward single #
loop $-1 $123 $124 $49 #
cone-surface $-1 -38.20545702904235 -8.9884891409762702 5.4420992043225977 0.78801076186113728 0 -0.61566146476048833 0.30783073238024417 0 0.39400538093056864 1 I I 0 1 0.5 forward I I I I #
face $-1 $125 $126 $30 $-1 $127 reversed single #
loop $-1 $-1 $128 $50 #
plane-surface $-1 0 0 7.6065978907026812 0 0 1 1 0 0 forward_v I I I I #
coedge $-1 $129 $130 $131 $132 reversed $51 $-1 #
face $-1 $133 $134 $31 $-1 $135 reversed single #
loop $-1 $-1 $136 $53 #
plane-surface $-1 0 0 7.6065978907026812 0 0 1 1 0 0 forward_v I I I I #
coedge $-1 $137 $138 $139 $140 forward $54 $-1 #
face $-1 $141 $142 $32 $-1 $143 reversed single #
loop $-1 $-1 $144 $56 #
plane-surface $-1 0 0 7.6065978907026812 0 0 1 1 0 0 forward_v I I I I #
coedge $-1 $145 $146 $147 $148 forward $57 $-1 #
face $-1 $149 $150 $33 $-1 $151 reversed single #
loop $-1 $-1 $152 $59 #
plane-surface $-1 -18.531454193921242 1.1630349114277401 55.579908589623997 0.68199836817093118 0 0.7313536940579346 0.7313536940579346 0 -0.68199836817093118 forward_v I I I I #
coedge $-1 $153 $154 $155 $156 reversed $60 $-1 #
face $-1 $-1 $157 $34 $-1 $158 forward single #
loop $-1 $159 $160 $62 #
cone-surface $-1 35.596348689491819 -0.49196664544519919 3.3296152128903662 -0.68199836817093118 0 -0.7313536940579346 0.18283842351448365 0 -0.17049959204273279 1 I I -0.70710678118654746 0.70710678118654746 0.25 forward I I I I #
loop $-1 $-1 $161 $44 #
coedge $-1 $100 $100 $162 $163 reversed $63 $-1 #
face $-1 $-1 $164 $35 $-1 $165 forward single #
loop $-1 $166 $167 $65 #
cone-surface $-1 35.596348689491819 2.8180364683006829 3.3296152128903662 -0.68199836817093118 0 -0.7313536940579346 0.18283842351448365 0 -0.17049959204273279 1 I I -0.70710678118654746 0.70710678118654746 0.25 forward I I I I #
loop $-1 $-1 $168 $45 #
coedge $-1 $105 $105 $169 $170 reversed $66 $-1 #
face $-1 $171 $172 $36 $-1 $173 reversed single #
loop $-1 $-1 $174 $68 #
plane-surface $-1 -40.050050355540634 -10.849457198178559 3.8932619827030024 -0.78801076186113728 0 0.61566146476048833 0.61566146476048833 0 0.78801076186113728 forward_v I I I I #
coedge $-1 $175 $176 $177 $178 reversed $69 $-1 #
face $-1 $-1 $179 $37 $-1 $180 forward single #
loop $-1 $181 $182 $71 #
cone-surface $-1 -37.614448957646495 -12.710425255380848 4.9803531057522319 0.78801076186113728 0 -0.61566146476048833 0.15391536619012208 0 0.19700269046528432 1 I I -0.70710678118654746 0.70710678118654746 0.25 forward I I I I #
loop $-1 $-1 $183 $47 #
coedge $-1 $114 $114 $184 $185 reversed $72 $-1 #
face $-1 $-1 $186 $38 $-1 $187 forward single #
loop $-1 $188 $189 $74 #
cone-surface $-1 -37.614448957646495 -10.849457198178559 4.9803531057522319 0.78801076186113728 0 -0.61566146476048833 0.15391536619012208 0 0.19700269046528432 1 I I -0.70710678118654746 0.70710678118654746 0.25 forward I I I I #
loop $-1 $-1 $190 $48 #
coedge $-1 $119 $119 $191 $192 reversed $75 $-1 #
face $-1 $-1 $193 $39 $-1 $194 forward single #
loop $-1 $195 $196 $77 #
cone-surface $-1 -37.614448957646495 -8.9884891409762702 4.9803531057522319 0.78801076186113728 0 -0.61566146476048833 0.15391536619012208 0 0.19700269046528432 1 I I -0.70710678118654746 0.70710678118654746 0.25 forward I I I I #
loop $-1 $-1 $197 $49 #
coedge $-1 $124 $124 $198 $199 reversed $78 $-1 #
face $-1 $200 $201 $30 $-1 $202 reversed single #
loop $-1 $-1 $203 $80 #
plane-surface $-1 0 0 -7.6065978907026812 0 0 1 1 0 0 forward_v I I I I #
coedge $-1 $204 $205 $206 $207 forward $81 $-1 #
coedge $-1 $208 $83 $209 $210 reversed $51 $-1 #
coedge $-1 $83 $208 $211 $212 forward $51 $-1 #
coedge $-1 $213 $203 $83 $132 forward $126 $-1 #
edge $-1 $214 -40.050050355540634 $215 40.050050355540634 $83 $216 forward 7 unknown #
face $-1 $217 $218 $31 $-1 $219 reversed single #
loop $-1 $-1 $220 $84 #
plane-surface $-1 -40.050050355540634 0 0 1 0 0 0 0 -1 forward_v I I I I #
coedge $-1 $221 $222 $138 $223 forward $85 $-1 #
coedge $-1 $224 $87 $225 $226 reversed $54 $-1 #
coedge $-1 $87 $224 $136 $223 reversed $54 $-1 #
coedge $-1 $227 $228 $87 $140 reversed $229 $-1 #
edge $-1 $230 -7.6065978907026812 $231 7.6065978907026812 $139 $232 forward 7 unknown #
face $-1 $233 $234 $32 $-1 $235 reversed single #
loop $-1 $-1 $236 $88 #
plane-surface $-1 -38.550050355540634 24.256533184731449 0 0 -1 0 0 0 -1 forward_v I I I I #
coedge $-1 $237 $238 $145 $239 forward $89 $-1 #
coedge $-1 $240 $91 $144 $239 reversed $57 $-1 #
coedge $-1 $91 $240 $241 $242 reversed $57 $-1 #
coedge $-1 $243 $244 $91 $148 reversed $234 $-1 #
edge $-1 $245 -7.6065978907026812 $246 7.6065978907026812 $147 $247 forward 7 unknown #
face $-1 $248 $249 $33 $-1 $250 forward single #
loop $-1 $-1 $251 $92 #
plane-surface $-1 36.096683781363424 -2.6986353879424563 114.16141313908588 0 1 0 0.68199836817093118 0 0.7313536940579346 forward_v I I I I #
coedge $-1 $252 $253 $254 $255 reversed $93 $-1 #
coedge $-1 $154 $95 $256 $257 reversed $60 $-1 #
coedge $-1 $95 $153 $252 $258 reversed $60 $-1 #
coedge $-1 $254 $259 $95 $156 forward $249 $-1 #
edge $-1 $260 -22.001708464858922 $261 -14.865280081695985 $155 $262 forward 7 unknown #
loop $-1 $-1 $162 $96 #
plane-surface $-1 -18.531454193921242 1.1630349114277401 55.579908589623997 0.68199836817093118 0 0.7313536940579346 0.7313536940579346 0 -0.68199836817093118 forward_v I I I I #
loop $-1 $-1 $263 $62 #
coedge $-1 $160 $160 $161 $264 reversed $97 $-1 #
coedge $-1 $161 $161 $160 $264 forward $99 $-1 #
coedge $-1 $162 $162 $100 $163 forward $157 $-1 #
edge $-1 $265 0 $265 6.2831853071796004 $162 $266 forward 7 unknown #
loop $-1 $-1 $169 $101 #
plane-surface $-1 -18.531454193921242 1.1630349114277401 55.579908589623997 0.68199836817093118 0 0.7313536940579346 0.7313536940579346 0 -0.68199836817093118 forward_v I I I I #
loop $-1 $-1 $267 $65 #
coedge $-1 $167 $167 $168 $268 reversed $102 $-1 #
coedge $-1 $168 $168 $167 $268 forward $104 $-1 #
coedge $-1 $169 $169 $105 $170 forward $164 $-1 #
edge $-1 $269 0 $269 6.2831853071796004 $169 $270 forward 7 unknown #
face $-1 $271 $272 $36 $-1 $273 reversed single #
loop $-1 $-1 $274 $106 #
plane-surface $-1 -103.16979174203361 -7.7478437695080764 53.207807313949928 0 -1 0 0.78801076186113728 0 -0.61566146476048833 forward_v I I I I #
coedge $-1 $275 $276 $277 $278 reversed $107 $-1 #
coedge $-1 $176 $109 $279 $280 reversed $69 $-1 #
coedge $-1 $109 $175 $275 $281 reversed $69 $-1 #
coedge $-1 $277 $282 $109 $178 forward $283 $-1 #
edge $-1 $284 11.534845515476171 $285 14.436021406611609 $177 $286 forward 7 unknown #
loop $-1 $-1 $184 $110 #
plane-surface $-1 -40.050050355540634 -10.849457198178559 3.8932619827030024 -0.78801076186113728 0 0.61566146476048833 0.61566146476048833 0 0.78801076186113728 forward_v I I I I #
loop $-1 $-1 $287 $71 #
coedge $-1 $182 $182 $183 $288 reversed $111 $-1 #
coedge $-1 $183 $183 $182 $288 forward $113 $-1 #
coedge $-1 $184 $184 $114 $185 forward $179 $-1 #
edge $-1 $289 0 $289 6.2831853071796004 $184 $290 forward 7 unknown #
loop $-1 $-1 $191 $115 #
plane-surface $-1 -40.050050355540634 -10.849457198178559 3.8932619827030024 -0.78801076186113728 0 0.61566146476048833 0.61566146476048833 0 0.78801076186113728 forward_v I I I I #
loop $-1 $-1 $291 $74 #
coedge $-1 $189 $189 $190 $292 reversed $116 $-1 #
coedge $-1 $190 $190 $189 $292 forward $118 $-1 #
coedge $-1 $191 $191 $119 $192 forward $186 $-1 #
edge $-1 $293 0 $293 6.2831853071796004 $191 $294 forward 7 unknown #
loop $-1 $-1 $198 $120 #
plane-surface $-1 -40.050050355540634 -10.849457198178559 3.8932619827030024 -0.78801076186113728 0 0.61566146476048833 0.61566146476048833 0 0.78801076186113728 forward_v I I I I #
loop $-1 $-1 $295 $77 #
coedge $-1 $196 $196 $197 $296 reversed $121 $-1 #
coedge $-1 $197 $197 $196 $296 forward $123 $-1 #
coedge $-1 $198 $198 $124 $199 forward $193 $-1 #
edge $-1 $297 0 $297 6.2831853071796004 $198 $298 forward 7 unknown #
face $-1 $299 $300 $30 $-1 $301 reversed single #
loop $-1 $-1 $302 $125 #
plane-surface $-1 -40.050050355540634 0 0 1 0 0 0 0 -1 forward_v I I I I #
coedge $-1 $131 $303 $304 $305 forward $126 $-1 #
coedge $-1 $306 $128 $307 $308 forward $81 $-1 #
coedge $-1 $128 $306 $208 $309 forward $81 $-1 #
coedge $-1 $209 $310 $128 $207 reversed $311 $-1 #
edge $-1 $312 -19.103801905790245 $313 19.103801905790245 $206 $314 forward 7 unknown #
coedge $-1 $130 $129 $205 $309 reversed $51 $-1 #
coedge $-1 $304 $206 $129 $210 forward $311 $-1 #
edge $-1 $312 -7.6065978907026812 $214 7.6065978907026812 $209 $315 forward 7 unknown #
coedge $-1 $316 $317 $130 $212 reversed $201 $-1 #
edge $-1 $318 -7.6065978907026812 $215 7.6065978907026812 $211 $319 forward 7 unknown #
coedge $-1 $303 $131 $317 $320 forward $126 $-1 #
vertex $-1 $210 $321 #
vertex $-1 $320 $322 #
straight-curve $-1 0 -19.103801905790245 -7.6065978907026812 -1 0 0 I I #
face $-1 $323 $229 $31 $-1 $324 reversed single #
loop $-1 $-1 $325 $133 #
plane-surface $-1 -38.550050355540634 -24.256533184731449 0 0 1 0 0 0 1 forward_v I I I I #
coedge $-1 $326 $327 $224 $328 forward $134 $-1 #
coedge $-1 $329 $136 $327 $330 forward $85 $-1 #
coedge $-1 $136 $329 $227 $331 forward $85 $-1 #
edge $-1 $230 37.050050355540634 $332 40.050050355540634 $136 $333 forward 7 unknown #
coedge $-1 $138 $137 $220 $328 reversed $54 $-1 #
coedge $-1 $334 $335 $137 $226 forward $336 $-1 #
edge $-1 $337 -40.050050355540634 $231 -37.050050355540634 $225 $338 forward 7 unknown #
coedge $-1 $339 $139 $222 $331 reversed $229 $-1 #
coedge $-1 $139 $339 $334 $340 reversed $229 $-1 #
loop $-1 $-1 $339 $217 #
vertex $-1 $223 $341 #
vertex $-1 $340 $342 #
straight-curve $-1 -37.050050355540634 -19.103801905790245 0 0 0 -1 I I #
face $-1 $343 $344 $32 $-1 $345 reversed single #
loop $-1 $-1 $147 $141 #
plane-surface $-1 -37.050050355540634 21.680167545260847 0 -1 0 0 0 0 1 forward_v I I I I #
coedge $-1 $346 $347 $348 $349 forward $142 $-1 #
coedge $-1 $350 $144 $244 $351 forward $89 $-1 #
coedge $-1 $144 $350 $352 $353 forward $89 $-1 #
edge $-1 $354 -40.050050355540634 $246 -37.050050355540634 $144 $355 forward 7 unknown #
coedge $-1 $146 $145 $356 $357 reversed $57 $-1 #
coedge $-1 $358 $359 $146 $242 forward $344 $-1 #
edge $-1 $245 37.050050355540634 $360 40.050050355540634 $241 $361 forward 7 unknown #
coedge $-1 $348 $147 $359 $362 reversed $234 $-1 #
coedge $-1 $147 $348 $237 $351 reversed $234 $-1 #
vertex $-1 $242 $363 #
vertex $-1 $351 $364 #
straight-curve $-1 -37.050050355540634 19.103801905790245 0 0 0 1 I I #
face $-1 $-1 $365 $33 $-1 $366 reversed single #
loop $-1 $-1 $155 $149 #
plane-surface $-1 0 0 7.6065978907026812 0 0 1 1 0 0 forward_v I I I I #
coedge $-1 $367 $368 $369 $370 reversed $150 $-1 #
coedge $-1 $371 $152 $154 $258 forward $93 $-1 #
coedge $-1 $152 $371 $367 $372 forward $93 $-1 #
coedge $-1 $369 $155 $152 $255 forward $249 $-1 #
edge $-1 $261 -4.4431877550840664 $373 3.2801528436563263 $254 $374 forward 7 unknown #
coedge $-1 $375 $376 $153 $257 forward $365 $-1 #
edge $-1 $377 -56.128935955203609 $260 -49.47410867884026 $256 $378 forward 7 unknown #
edge $-1 $261 70.342266107735952 $377 80.100100711081268 $154 $379 forward 7 unknown #
coedge $-1 $155 $369 $375 $380 forward $249 $-1 #
vertex $-1 $156 $381 #
vertex $-1 $156 $382 #
straight-curve $-1 18.048341890681712 5.0247052107979364 7.6065978907026803 -1 0 0 I I #
coedge $-1 $263 $263 $-1 $383 reversed $159 $-1 #
edge $-1 $384 0 $384 6.2831853071796004 $160 $385 forward 7 unknown #
vertex $-1 $163 $386 #
ellipse-curve $-1 36.481836163959173 -0.49196664544519919 4.2791842525209987 0.68199836817093118 0 0.7313536940579346 0.3656768470289673 0 -0.34099918408546559 1 I I #
coedge $-1 $267 $267 $-1 $387 reversed $166 $-1 #
edge $-1 $388 0 $388 6.2831853071796004 $167 $389 forward 7 unknown #
vertex $-1 $170 $390 #
ellipse-curve $-1 36.481836163959173 2.8180364683006829 4.2791842525209987 0.68199836817093118 0 0.7313536940579346 0.3656768470289673 0 -0.34099918408546559 1 I I #
face $-1 $-1 $283 $36 $-1 $391 forward single #
loop $-1 $-1 $392 $171 #
plane-surface $-1 -40.050050355540634 0 0 1 0 0 0 0 -1 forward_v I I I I #
coedge $-1 $393 $394 $395 $396 reversed $172 $-1 #
coedge $-1 $397 $174 $176 $281 forward $107 $-1 #
coedge $-1 $174 $397 $393 $398 forward $107 $-1 #
coedge $-1 $395 $177 $174 $278 forward $283 $-1 #
edge $-1 $285 -8.5263420277597621 $399 -2.3231151704187969 $277 $400 forward 7 unknown #
coedge $-1 $401 $402 $175 $280 forward $272 $-1 #
edge $-1 $403 -22.710641674271962 $284 -18.997305766272284 $279 $404 forward 7 unknown #
edge $-1 $285 -4.7122908565734036 $403 0 $176 $405 forward 7 unknown #
coedge $-1 $177 $395 $401 $406 forward $283 $-1 #
loop $-1 $-1 $395 $271 #
vertex $-1 $280 $407 #
vertex $-1 $178 $408 #
straight-curve $-1 -51.584895871016805 -13.951070626849042 7.6065978907026803 1 0 0 I I #
coedge $-1 $287 $287 $-1 $409 reversed $181 $-1 #
edge $-1 $410 0 $410 6.2831853071796004 $182 $411 forward 7 unknown #
vertex $-1 $185 $412 #
ellipse-curve $-1 -38.599462409972915 -12.710425255380848 5.7499299367028405 -0.78801076186113728 0 0.61566146476048833 0.30783073238024417 0 0.39400538093056864 1 I I #
coedge $-1 $291 $291 $-1 $413 reversed $188 $-1 #
edge $-1 $414 0 $414 6.2831853071796004 $189 $415 forward 7 unknown #
vertex $-1 $192 $416 #
ellipse-curve $-1 -38.599462409972915 -10.849457198178559 5.7499299367028405 -0.78801076186113728 0 0.61566146476048833 0.30783073238024417 0 0.39400538093056864 1 I I #
coedge $-1 $295 $295 $-1 $417 reversed $195 $-1 #
edge $-1 $418 0 $418 6.2831853071796004 $196 $419 forward 7 unknown #
vertex $-1 $199 $420 #
ellipse-curve $-1 -38.599462409972915 -8.9884891409762702 5.7499299367028405 -0.78801076186113728 0 0.61566146476048833 0.30783073238024417 0 0.39400538093056864 1 I I #
face $-1 $-1 $311 $30 $-1 $421 reversed single #
loop $-1 $-1 $307 $200 #
plane-surface $-1 0 19.103801905790245 0 0 -1 0 0 0 -1 forward_v I I I I #
coedge $-1 $317 $316 $422 $423 forward $201 $-1 #
coedge $-1 $203 $213 $424 $425 forward $126 $-1 #
coedge $-1 $310 $209 $203 $305 reversed $311 $-1 #
edge $-1 $426 -19.103801905790245 $214 19.103801905790245 $304 $427 forward 7 unknown #
coedge $-1 $205 $204 $316 $428 forward $81 $-1 #
coedge $-1 $429 $422 $204 $308 reversed $300 $-1 #
edge $-1 $313 -40.050050355540634 $430 40.050050355540634 $307 $431 forward 7 unknown #
edge $-1 $318 -40.050050355540634 $312 40.050050355540634 $208 $432 forward 7 unknown #
coedge $-1 $206 $304 $429 $433 reversed $311 $-1 #
loop $-1 $-1 $209 $299 #
vertex $-1 $207 $434 #
vertex $-1 $207 $435 #
straight-curve $-1 40.050050355540634 0 7.6065978907026812 0 1 0 I I #
straight-curve $-1 40.050050355540634 -19.103801905790245 0 0 0 -1 I I #
coedge $-1 $302 $211 $306 $428 reversed $201 $-1 #
coedge $-1 $211 $302 $213 $320 reversed $201 $-1 #
vertex $-1 $428 $436 #
straight-curve $-1 -40.050050355540634 -19.103801905790245 0 0 0 -1 I I #
edge $-1 $215 -19.103801905790245 $437 19.103801905790245 $317 $438 forward 7 unknown #
point $-1 40.050050355540634 -19.103801905790245 -7.6065978907026812 #
point $-1 -40.050050355540634 -19.103801905790245 -7.6065978907026812 #
face $-1 $-1 $336 $31 $-1 $439 reversed single #
plane-surface $-1 -37.050050355540634 -21.680167545260847 0 -1 0 0 0 0 1 forward_v I I I I #
coedge $-1 $440 $441 $442 $443 forward $218 $-1 #
coedge $-1 $442 $220 $335 $444 reversed $134 $-1 #
coedge $-1 $220 $442 $221 $330 reversed $134 $-1 #
edge $-1 $332 -7.6065978907026812 $337 7.6065978907026812 $220 $445 forward 7 unknown #
coedge $-1 $222 $221 $441 $446 forward $85 $-1 #
edge $-1 $332 19.103801905790245 $447 24.256533184731449 $327 $448 forward 7 unknown #
edge $-1 $449 -2.5763656394706018 $230 2.5763656394706018 $227 $450 forward 7 unknown #
vertex $-1 $330 $451 #
straight-curve $-1 0 -19.103801905790245 7.6065978907026812 -1 0 0 I I #
coedge $-1 $452 $225 $228 $340 forward $336 $-1 #
coedge $-1 $225 $452 $326 $444 forward $336 $-1 #
loop $-1 $-1 $225 $323 #
vertex $-1 $328 $453 #
straight-curve $-1 0 -19.103801905790245 -7.6065978907026812 1 0 0 I I #
coedge $-1 $228 $227 $454 $455 forward $229 $-1 #
edge $-1 $231 -2.5763656394706018 $456 2.5763656394706018 $228 $457 forward 7 unknown #
point $-1 -37.050050355540634 -19.103801905790245 7.6065978907026812 #
point $-1 -37.050050355540634 -19.103801905790245 -7.6065978907026812 #
face $-1 $-1 $458 $32 $-1 $459 reversed single #
loop $-1 $-1 $241 $233 #
plane-surface $-1 0 0 -7.6065978907026812 0 0 1 1 0 0 forward_v I I I I #
coedge $-1 $460 $236 $461 $462 reversed $142 $-1 #
coedge $-1 $236 $460 $350 $463 reversed $142 $-1 #
coedge $-1 $244 $243 $236 $349 reversed $234 $-1 #
edge $-1 $464 -7.6065978907026812 $465 7.6065978907026812 $348 $466 forward 7 unknown #
coedge $-1 $238 $237 $347 $463 forward $89 $-1 #
edge $-1 $246 -2.5763656394706018 $464 2.5763656394706018 $244 $467 forward 7 unknown #
coedge $-1 $468 $356 $238 $353 reversed $458 $-1 #
edge $-1 $469 -24.256533184731449 $354 -19.103801905790245 $352 $470 forward 7 unknown #
vertex $-1 $357 $471 #
straight-curve $-1 0 19.103801905790245 7.6065978907026812 1 0 0 I I #
coedge $-1 $352 $472 $240 $357 forward $458 $-1 #
edge $-1 $360 -7.6065978907026812 $354 7.6065978907026812 $356 $473 forward 7 unknown #
coedge $-1 $461 $241 $472 $474 forward $344 $-1 #
coedge $-1 $241 $461 $243 $362 forward $344 $-1 #
vertex $-1 $474 $475 #
straight-curve $-1 0 19.103801905790245 -7.6065978907026812 -1 0 0 I I #
edge $-1 $465 -2.5763656394706018 $245 2.5763656394706018 $243 $476 forward 7 unknown #
point $-1 -37.050050355540634 19.103801905790245 -7.6065978907026812 #
point $-1 -37.050050355540634 19.103801905790245 7.6065978907026812 #
loop $-1 $-1 $256 $248 #
plane-surface $-1 40.050050355540634 0 0 -1 0 0 0 0 1 forward_v I I I I #
coedge $-1 $368 $251 $253 $372 reversed $150 $-1 #
coedge $-1 $251 $367 $477 $478 reversed $150 $-1 #
coedge $-1 $259 $254 $251 $370 forward $249 $-1 #
edge $-1 $373 14.865280081695985 $479 22.001708464858922 $369 $480 forward 7 unknown #
coedge $-1 $253 $252 $376 $481 reversed $93 $-1 #
edge $-1 $482 -80.100100711081268 $373 -70.342266107735952 $367 $483 forward 7 unknown #
vertex $-1 $255 $484 #
straight-curve $-1 32.913621972377697 0.58151745571387004 7.6065978907026803 0 -1 0 I I #
coedge $-1 $477 $256 $259 $380 reversed $365 $-1 #
coedge $-1 $256 $477 $371 $481 forward $365 $-1 #
vertex $-1 $257 $485 #
straight-curve $-1 40.050050355540634 5.0247052107979364 57.08070656954294 0 0 1 I I #
straight-curve $-1 -18.531454193921242 5.0247052107979364 55.579908589623997 0.7313536940579346 0 -0.68199836817093118 I I #
edge $-1 $479 -2.6986353879424563 $260 5.0247052107979364 $375 $486 forward 7 unknown #
point $-1 40.050050355540634 5.0247052107979364 7.6065978907026812 #
point $-1 32.913621972377697 5.0247052107979364 7.6065978907026803 #
edge $-1 $487 1 $487 0 $263 $-1 forward 7 unknown #
vertex $-1 $264 $488 #
ellipse-curve $-1 35.76684828153455 -0.49196664544519919 3.51245363640485 0.68199836817093118 0 0.7313536940579346 0.3656768470289673 0 -0.34099918408546559 1 I I #
point $-1 36.847513010988152 -0.49196664544519919 3.9381850684355437 #
edge $-1 $489 1 $489 0 $267 $-1 forward 7 unknown #
vertex $-1 $268 $490 #
ellipse-curve $-1 35.76684828153455 2.8180364683006829 3.51245363640485 0.68199836817093118 0 0.7313536940579346 0.3656768470289673 0 -0.34099918408546559 1 I I #
point $-1 36.847513010988152 2.8180364683006829 3.9381850684355437 #
plane-surface $-1 0 0 7.6065978907026812 0 0 1 1 0 0 forward_v I I I I #
coedge $-1 $402 $401 $394 $491 forward $272 $-1 #
coedge $-1 $394 $274 $276 $398 reversed $172 $-1 #
coedge $-1 $274 $393 $392 $491 reversed $172 $-1 #
coedge $-1 $282 $277 $274 $396 forward $283 $-1 #
edge $-1 $399 -14.436021406611609 $492 -11.534845515476171 $395 $493 forward 7 unknown #
coedge $-1 $276 $275 $402 $494 reversed $107 $-1 #
edge $-1 $495 0 $399 4.7122908565734036 $393 $496 forward 7 unknown #
vertex $-1 $278 $497 #
straight-curve $-1 -37.148874464405196 -5.4247285990892795 7.6065978907026812 0 1 0 I I #
coedge $-1 $392 $279 $282 $406 reversed $272 $-1 #
coedge $-1 $279 $392 $397 $494 forward $272 $-1 #
vertex $-1 $280 $498 #
straight-curve $-1 -40.050050355540634 -13.951070626849042 26.603903656974964 0 0 1 I I #
straight-curve $-1 -40.050050355540634 -13.951070626849042 3.8932619827030024 -0.61566146476048833 0 -0.78801076186113728 I I #
edge $-1 $492 7.7478437695080764 $284 13.951070626849042 $401 $499 forward 7 unknown #
point $-1 -40.050050355540634 -13.951070626849042 7.6065978907026812 #
point $-1 -37.148874464405196 -13.951070626849042 7.6065978907026812 #
edge $-1 $500 1 $500 0 $287 $-1 forward 7 unknown #
vertex $-1 $288 $501 #
ellipse-curve $-1 -37.811451648111778 -12.710425255380848 5.1342684719423541 -0.78801076186113728 0 0.61566146476048833 0.30783073238024417 0 0.39400538093056864 1 I I #
point $-1 -38.291631677592669 -12.710425255380848 6.1439353176334111 #
edge $-1 $502 1 $502 0 $291 $-1 forward 7 unknown #
vertex $-1 $292 $503 #
ellipse-curve $-1 -37.811451648111778 -10.849457198178559 5.1342684719423541 -0.78801076186113728 0 0.61566146476048833 0.30783073238024417 0 0.39400538093056864 1 I I #
point $-1 -38.291631677592669 -10.849457198178559 6.1439353176334111 #
edge $-1 $504 1 $504 0 $295 $-1 forward 7 unknown #
vertex $-1 $296 $505 #
ellipse-curve $-1 -37.811451648111778 -8.9884891409762702 5.1342684719423541 -0.78801076186113728 0 0.61566146476048833 0.30783073238024417 0 0.39400538093056864 1 I I #
point $-1 -38.291631677592669 -8.9884891409762702 6.1439353176334111 #
plane-surface $-1 40.050050355540634 0 0 -1 0 0 0 0 1 forward_v I I I I #
coedge $-1 $307 $424 $302 $423 reversed $300 $-1 #
edge $-1 $430 -7.6065978907026812 $437 7.6065978907026812 $422 $506 forward 7 unknown #
coedge $-1 $422 $429 $303 $425 reversed $300 $-1 #
edge $-1 $437 -40.050050355540634 $426 40.050050355540634 $424 $507 forward 7 unknown #
vertex $-1 $305 $508 #
straight-curve $-1 40.050050355540634 0 -7.6065978907026812 0 -1 0 I I #
edge $-1 $430 -19.103801905790245 $318 19.103801905790245 $316 $509 forward 7 unknown #
coedge $-1 $424 $307 $310 $433 forward $300 $-1 #
vertex $-1 $308 $510 #
straight-curve $-1 0 19.103801905790245 7.6065978907026812 -1 0 0 I I #
straight-curve $-1 0 -19.103801905790245 7.6065978907026812 1 0 0 I I #
edge $-1 $313 -7.6065978907026812 $426 7.6065978907026812 $310 $511 forward 7 unknown #
point $-1 40.050050355540634 -19.103801905790245 7.6065978907026812 #
point $-1 40.050050355540634 19.103801905790245 7.6065978907026812 #
point $-1 -40.050050355540634 -19.103801905790245 7.6065978907026812 #
vertex $-1 $425 $512 #
straight-curve $-1 -40.050050355540634 0 -7.6065978907026812 0 1 0 I I #
plane-surface $-1 0 0 -7.6065978907026812 0 0 1 1 0 0 forward_v I I I I #
coedge $-1 $454 $325 $452 $513 reversed $218 $-1 #
coedge $-1 $325 $454 $329 $446 reversed $218 $-1 #
coedge $-1 $327 $326 $325 $443 reversed $134 $-1 #
edge $-1 $447 -7.6065978907026812 $514 7.6065978907026812 $442 $515 forward 7 unknown #
edge $-1 $514 -24.256533184731449 $337 -19.103801905790245 $326 $516 forward 7 unknown #
straight-curve $-1 -40.050050355540634 -19.103801905790245 0 0 0 -1 I I #
edge $-1 $447 -1.5 $449 1.5 $441 $517 forward 7 unknown #
vertex $-1 $330 $518 #
straight-curve $-1 -40.050050355540634 0 7.6065978907026812 0 -1 0 I I #
vertex $-1 $331 $519 #
straight-curve $-1 -37.050050355540634 -21.680167545260847 7.6065978907026812 0 1 0 I I #
point $-1 -40.050050355540634 -19.103801905790245 7.6065978907026812 #
coedge $-1 $335 $334 $440 $513 forward $336 $-1 #
point $-1 -40.050050355540634 -19.103801905790245 -7.6065978907026812 #
coedge $-1 $441 $440 $339 $455 reversed $218 $-1 #
edge $-1 $449 -7.6065978907026812 $456 7.6065978907026812 $339 $520 forward 7 unknown #
vertex $-1 $455 $521 #
straight-curve $-1 -37.050050355540634 -21.680167545260847 -7.6065978907026812 0 -1 0 I I #
loop $-1 $-1 $356 $343 #
plane-surface $-1 -40.050050355540634 0 0 1 0 0 0 0 -1 forward_v I I I I #
coedge $-1 $347 $346 $468 $522 reversed $142 $-1 #
coedge $-1 $359 $358 $346 $462 forward $344 $-1 #
edge $-1 $523 -1.5 $465 1.5 $346 $524 forward 7 unknown #
edge $-1 $464 -1.5 $469 1.5 $347 $525 forward 7 unknown #
vertex $-1 $351 $526 #
vertex $-1 $362 $527 #
straight-curve $-1 -37.050050355540634 24.256533184731449 0 0 0 -1 I I #
straight-curve $-1 -37.050050355540634 21.680167545260847 7.6065978907026812 0 1 0 I I #
coedge $-1 $472 $352 $460 $522 forward $458 $-1 #
vertex $-1 $463 $528 #
straight-curve $-1 -40.050050355540634 0 7.6065978907026812 0 -1 0 I I #
point $-1 -40.050050355540634 19.103801905790245 7.6065978907026812 #
coedge $-1 $356 $468 $358 $474 reversed $458 $-1 #
straight-curve $-1 -40.050050355540634 19.103801905790245 0 0 0 1 I I #
edge $-1 $360 -2.5763656394706018 $523 2.5763656394706018 $472 $529 forward 7 unknown #
point $-1 -40.050050355540634 19.103801905790245 -7.6065978907026812 #
straight-curve $-1 -37.050050355540634 21.680167545260847 -7.6065978907026812 0 -1 0 I I #
coedge $-1 $376 $375 $368 $478 forward $365 $-1 #
edge $-1 $479 49.47410867884026 $482 56.128935955203609 $477 $530 forward 7 unknown #
vertex $-1 $380 $531 #
straight-curve $-1 18.048341890681712 -2.6986353879424563 7.6065978907026803 1 0 0 I I #
edge $-1 $482 -3.2801528436563263 $377 4.4431877550840664 $376 $532 forward 7 unknown #
vertex $-1 $481 $533 #
straight-curve $-1 -18.531454193921242 -2.6986353879424563 55.579908589623997 -0.7313536940579346 0 0.68199836817093118 I I #
point $-1 32.913621972377697 -2.6986353879424563 7.6065978907026803 #
point $-1 40.050050355540641 5.0247052107979364 0.95177061433933119 #
straight-curve $-1 40.050050355540634 0 7.6065978907026812 0 1 0 I I #
vertex $-1 $383 $534 #
point $-1 36.132525128563522 -0.49196664544519919 3.1714544523193844 #
vertex $-1 $387 $535 #
point $-1 36.132525128563522 2.8180364683006829 3.1714544523193844 #
edge $-1 $492 18.997305766272284 $495 22.710641674271962 $392 $536 forward 7 unknown #
vertex $-1 $406 $537 #
straight-curve $-1 -51.584895871016805 -7.7478437695080764 7.6065978907026803 -1 0 0 I I #
edge $-1 $495 2.3231151704187969 $403 8.5263420277597621 $402 $538 forward 7 unknown #
vertex $-1 $494 $539 #
straight-curve $-1 -40.050050355540634 -7.7478437695080764 3.8932619827030024 0.61566146476048833 0 0.78801076186113728 I I #
point $-1 -37.148874464405196 -7.7478437695080764 7.6065978907026812 #
point $-1 -40.050050355540634 -13.951070626849042 3.8932619827030024 #
straight-curve $-1 -40.050050355540634 0 7.6065978907026812 0 -1 0 I I #
vertex $-1 $409 $540 #
point $-1 -37.503620915731538 -12.710425255380848 5.5282738528729229 #
vertex $-1 $413 $541 #
point $-1 -37.503620915731538 -10.849457198178559 5.5282738528729229 #
vertex $-1 $417 $542 #
point $-1 -37.503620915731538 -8.9884891409762702 5.5282738528729229 #
straight-curve $-1 -40.050050355540634 19.103801905790245 0 0 0 -1 I I #
straight-curve $-1 0 19.103801905790245 -7.6065978907026812 1 0 0 I I #
point $-1 40.050050355540634 19.103801905790245 -7.6065978907026812 #
straight-curve $-1 -40.050050355540634 0 7.6065978907026812 0 -1 0 I I #
point $-1 -40.050050355540634 19.103801905790245 7.6065978907026812 #
straight-curve $-1 40.050050355540634 19.103801905790245 0 0 0 -1 I I #
point $-1 -40.050050355540634 19.103801905790245 -7.6065978907026812 #
edge $-1 $456 -1.5 $514 1.5 $440 $543 forward 7 unknown #
vertex $-1 $444 $544 #
straight-curve $-1 -40.050050355540634 -24.256533184731449 0 0 0 -1 I I #
straight-curve $-1 -40.050050355540634 0 -7.6065978907026812 0 1 0 I I #
straight-curve $-1 -38.550050355540634 -24.256533184731449 7.6065978907026812 1 0 0 I I #
point $-1 -40.050050355540634 -24.256533184731449 7.6065978907026812 #
point $-1 -37.050050355540634 -24.256533184731449 7.6065978907026812 #
straight-curve $-1 -37.050050355540634 -24.256533184731449 0 0 0 -1 I I #
point $-1 -37.050050355540634 -24.256533184731449 -7.6065978907026812 #
edge $-1 $469 -7.6065978907026812 $523 7.6065978907026812 $460 $545 forward 7 unknown #
vertex $-1 $462 $546 #
straight-curve $-1 -38.550050355540634 24.256533184731449 -7.6065978907026812 1 0 0 I I #
straight-curve $-1 -38.550050355540634 24.256533184731449 7.6065978907026812 -1 0 0 I I #
point $-1 -37.050050355540634 24.256533184731449 7.6065978907026812 #
point $-1 -37.050050355540634 24.256533184731449 -7.6065978907026812 #
point $-1 -40.050050355540634 24.256533184731449 7.6065978907026812 #
straight-curve $-1 -40.050050355540634 21.680167545260847 -7.6065978907026812 0 1 0 I I #
straight-curve $-1 40.050050355540634 -2.6986353879424563 57.08070656954294 0 0 -1 I I #
point $-1 40.050050355540634 -2.6986353879424563 7.6065978907026812 #
straight-curve $-1 40.050050355540634 0.58151745571387004 0.95177061433933474 0 1 0 I I #
point $-1 40.050050355540641 -2.6986353879424563 0.95177061433933119 #
point $-1 35.425849097449088 -0.49196664544519919 3.1467767893758825 #
point $-1 35.425849097449088 2.8180364683006829 3.1467767893758825 #
straight-curve $-1 -40.050050355540634 -7.7478437695080764 26.603903656974964 0 0 -1 I I #
point $-1 -40.050050355540634 -7.7478437695080764 7.6065978907026812 #
straight-curve $-1 -40.050050355540634 -5.4247285990892795 3.8932619827030024 0 -1 0 I I #
point $-1 -40.050050355540634 -7.7478437695080764 3.8932619827030024 #
point $-1 -37.417446267181212 -12.710425255380848 4.8264377395621096 #
point $-1 -37.417446267181212 -10.849457198178559 4.8264377395621096 #
point $-1 -37.417446267181212 -8.9884891409762702 4.8264377395621096 #
straight-curve $-1 -38.550050355540634 -24.256533184731449 -7.6065978907026812 -1 0 0 I I #
point $-1 -40.050050355540634 -24.256533184731449 -7.6065978907026812 #
straight-curve $-1 -40.050050355540634 24.256533184731449 0 0 0 -1 I I #
point $-1 -40.050050355540634 24.256533184731449 -7.6065978907026812 #
End-of-ACIS-data 