500 0 14 0           
7 Unknown 11 ACIS 5.0 NT 24 Fri Mar 26 16:27:32 1999 
-1 9.9999999999999995e-007 1e-010 
body $-1 $14 $-1 $15 #
body $-1 $16 $-1 $17 #
body $-1 $18 $-1 $19 #
body $-1 $20 $-1 $21 #
body $-1 $22 $-1 $23 #
body $-1 $24 $-1 $25 #
body $-1 $26 $-1 $27 #
body $-1 $28 $-1 $29 #
body $-1 $30 $-1 $31 #
body $-1 $32 $-1 $33 #
body $-1 $34 $-1 $35 #
body $-1 $36 $-1 $37 #
body $-1 $38 $-1 $39 #
body $-1 $40 $-1 $41 #
lump $-1 $-1 $42 $0 #
transform $-1 1 0 0 0 1 0 0 0 1 62.057557908871729 40.496595286179407 16.312587700499954 1 rotate no_reflect no_shear #
lump $-1 $-1 $43 $1 #
transform $-1 1 0 0 0 1 0 0 0 1 62.057557908871729 40.496595286179407 16.312587700499954 1 rotate no_reflect no_shear #
lump $-1 $-1 $44 $2 #
transform $-1 1 0 0 0 1 0 0 0 1 62.057557908871729 40.496595286179407 16.312587700499954 1 rotate no_reflect no_shear #
lump $-1 $-1 $45 $3 #
transform $-1 1 0 0 0 1 0 0 0 1 62.057557908871729 40.496595286179407 16.312587700499954 1 rotate no_reflect no_shear #
lump $-1 $-1 $46 $4 #
transform $-1 1 0 0 0 1 0 0 0 1 62.057557908871729 40.496595286179407 16.312587700499954 1 rotate no_reflect no_shear #
lump $-1 $-1 $47 $5 #
transform $-1 1 0 0 0 1 0 0 0 1 62.057557908871729 40.496595286179407 16.312587700499954 1 rotate no_reflect no_shear #
lump $-1 $-1 $48 $6 #
transform $-1 1 0 0 0 1 0 0 0 1 62.057557908871729 40.496595286179407 16.312587700499954 1 rotate no_reflect no_shear #
lump $-1 $-1 $49 $7 #
transform $-1 1 0 0 0 1 0 0 0 1 62.057557908871729 40.496595286179407 16.312587700499954 1 rotate no_reflect no_shear #
lump $-1 $-1 $50 $8 #
transform $-1 1 0 0 0 1 0 0 0 1 62.057557908871729 40.496595286179407 16.312587700499954 1 rotate no_reflect no_shear #
lump $-1 $-1 $51 $9 #
transform $-1 1 0 0 0 1 0 0 0 1 62.057557908871729 40.496595286179407 16.312587700499954 1 rotate no_reflect no_shear #
lump $-1 $-1 $52 $10 #
transform $-1 1 0 0 0 1 0 0 0 1 62.057557908871729 40.496595286179407 16.312587700499954 1 rotate no_reflect no_shear #
lump $-1 $-1 $53 $11 #
transform $-1 1 0 0 0 1 0 0 0 1 62.057557908871729 40.496595286179407 16.312587700499954 1 rotate no_reflect no_shear #
lump $-1 $-1 $54 $12 #
transform $-1 1 0 0 0 1 0 0 0 1 62.057557908871729 40.496595286179407 16.312587700499954 1 rotate no_reflect no_shear #
lump $-1 $-1 $55 $13 #
transform $-1 1 0 0 0 1 0 0 0 1 62.057557908871729 40.496595286179407 16.312587700499954 1 rotate no_reflect no_shear #
shell $-1 $-1 $-1 $56 $-1 $14 #
shell $-1 $-1 $-1 $57 $-1 $16 #
shell $-1 $-1 $-1 $58 $-1 $18 #
shell $-1 $-1 $-1 $59 $-1 $20 #
shell $-1 $-1 $-1 $60 $-1 $22 #
shell $-1 $-1 $-1 $61 $-1 $24 #
shell $-1 $-1 $-1 $62 $-1 $26 #
shell $-1 $-1 $-1 $63 $-1 $28 #
shell $-1 $-1 $-1 $64 $-1 $30 #
shell $-1 $-1 $-1 $65 $-1 $32 #
shell $-1 $-1 $-1 $66 $-1 $34 #
shell $-1 $-1 $-1 $67 $-1 $36 #
shell $-1 $-1 $-1 $68 $-1 $38 #
shell $-1 $-1 $-1 $69 $-1 $40 #
face $-1 $70 $71 $42 $-1 $72 forward single #
face $-1 $73 $74 $43 $-1 $75 forward single #
face $-1 $76 $77 $44 $-1 $78 reversed single #
face $-1 $79 $80 $45 $-1 $81 forward single #
face $-1 $82 $83 $46 $-1 $84 forward single #
face $-1 $85 $86 $47 $-1 $87 reversed single #
face $-1 $88 $89 $48 $-1 $90 forward single #
face $-1 $91 $92 $49 $-1 $93 forward single #
face $-1 $94 $95 $50 $-1 $96 reversed single #
face $-1 $97 $98 $51 $-1 $99 forward single #
face $-1 $100 $101 $52 $-1 $102 forward single #
face $-1 $103 $104 $53 $-1 $105 reversed single #
face $-1 $106 $107 $54 $-1 $108 forward single #
face $-1 $109 $110 $55 $-1 $111 forward single #
face $-1 $112 $113 $42 $-1 $114 reversed single #
loop $-1 $-1 $115 $56 #
plane-surface $-1 0 0 16.312587700499954 0 0 1 1 0 0 forward_v I I I I #
face $-1 $116 $117 $43 $-1 $118 reversed single #
loop $-1 $-1 $119 $57 #
plane-surface $-1 0 -34.435926563271678 -12.601818749970867 0 0 1 1 0 0 forward_v I I I I #
face $-1 $120 $121 $44 $-1 $122 reversed single #
loop $-1 $-1 $123 $58 #
plane-surface $-1 -44.063006227010007 37.581466296565175 154.04131511419899 1 0 0 0 -0.52991927123019833 -0.84804809178421925 forward_v I I I I #
face $-1 $124 $125 $45 $-1 $126 forward single #
loop $-1 $127 $128 $59 #
cone-surface $-1 -40.338941291988824 30.873791358979588 9.0669097985517748 0 -0.52991927123019833 -0.84804809178421925 1.5 0 0 1 I I 0 1 1.5 forward I I I I #
face $-1 $129 $130 $46 $-1 $131 forward single #
loop $-1 $132 $133 $60 #
cone-surface $-1 -34.752843889457047 30.873791358979588 9.0669097985517748 0 -0.52991927123019833 -0.84804809178421925 1.5 0 0 1 I I 0 1 1.5 forward I I I I #
face $-1 $134 $135 $47 $-1 $136 reversed single #
loop $-1 $-1 $137 $61 #
plane-surface $-1 -19.03241116652805 37.581466296565175 154.04131511419899 1 0 0 0 -0.52991927123019833 -0.84804809178421925 forward_v I I I I #
face $-1 $138 $139 $48 $-1 $140 forward single #
loop $-1 $141 $142 $62 #
cone-surface $-1 -15.308346231506867 30.873791358979588 9.0669097985517748 0 -0.52991927123019833 -0.84804809178421925 1.5 0 0 1 I I 0 1 1.5 forward I I I I #
face $-1 $143 $144 $49 $-1 $145 forward single #
loop $-1 $146 $147 $63 #
cone-surface $-1 -9.7222488289750899 30.873791358979588 9.0669097985517748 0 -0.52991927123019833 -0.84804809178421925 1.5 0 0 1 I I 0 1 1.5 forward I I I I #
face $-1 $148 $149 $50 $-1 $150 reversed single #
loop $-1 $-1 $151 $64 #
plane-surface $-1 5.9981838939539127 37.581466296565175 154.04131511419899 1 0 0 0 -0.52991927123019833 -0.84804809178421925 forward_v I I I I #
face $-1 $152 $153 $51 $-1 $154 forward single #
loop $-1 $155 $156 $65 #
cone-surface $-1 9.722248828975097 30.873791358979588 9.0669097985517748 0 -0.52991927123019833 -0.84804809178421925 1.5 0 0 1 I I 0 1 1.5 forward I I I I #
face $-1 $157 $158 $52 $-1 $159 forward single #
loop $-1 $160 $161 $66 #
cone-surface $-1 15.308346231506874 30.873791358979588 9.0669097985517748 0 -0.52991927123019833 -0.84804809178421925 1.5 0 0 1 I I 0 1 1.5 forward I I I I #
face $-1 $162 $163 $53 $-1 $164 reversed single #
loop $-1 $-1 $165 $67 #
plane-surface $-1 31.028778954435872 37.581466296565175 154.04131511419899 1 0 0 0 -0.52991927123019833 -0.84804809178421925 forward_v I I I I #
face $-1 $166 $167 $54 $-1 $168 forward single #
loop $-1 $169 $170 $68 #
cone-surface $-1 34.752843889457054 30.873791358979588 9.0669097985517748 0 -0.52991927123019833 -0.84804809178421925 1.5 0 0 1 I I 0 1 1.5 forward I I I I #
face $-1 $171 $172 $55 $-1 $173 forward single #
loop $-1 $174 $175 $69 #
cone-surface $-1 40.338941291988831 30.873791358979588 9.0669097985517748 0 -0.52991927123019833 -0.84804809178421925 1.5 0 0 1 I I 0 1 1.5 forward I I I I #
face $-1 $176 $177 $42 $-1 $178 reversed single #
loop $-1 $-1 $179 $70 #
plane-surface $-1 0 0 -16.312587700499954 0 0 1 1 0 0 forward_v I I I I #
coedge $-1 $180 $181 $182 $183 forward $71 $-1 #
face $-1 $184 $185 $43 $-1 $186 reversed single #
loop $-1 $-1 $187 $73 #
plane-surface $-1 0 -28.37525784036395 -14.457203225235411 0 -1 0 0 0 -1 forward_v I I I I #
coedge $-1 $188 $189 $190 $191 reversed $74 $-1 #
face $-1 $192 $193 $44 $-1 $194 reversed single #
loop $-1 $-1 $195 $76 #
plane-surface $-1 -37.545892590722936 -28.189525426225096 48.785727983384291 0 0.52991927123019833 0.84804809178421925 1 0 0 forward_v I I I I #
coedge $-1 $196 $197 $198 $199 reversed $77 $-1 #
face $-1 $-1 $200 $45 $-1 $201 forward single #
loop $-1 $202 $203 $79 #
cone-surface $-1 -40.338941291988824 29.212664981064655 6.4085519476797295 0 -0.52991927123019833 -0.84804809178421925 0.75 0 0 1 I I -0.70710678118654757 0.70710678118654757 0.75 forward I I I I #
loop $-1 $-1 $204 $59 #
coedge $-1 $128 $128 $205 $206 reversed $80 $-1 #
face $-1 $-1 $207 $46 $-1 $208 forward single #
loop $-1 $209 $210 $82 #
cone-surface $-1 -34.752843889457047 29.212664981064655 6.4085519476797295 0 -0.52991927123019833 -0.84804809178421925 0.75 0 0 1 I I -0.70710678118654757 0.70710678118654757 0.75 forward I I I I #
loop $-1 $-1 $211 $60 #
coedge $-1 $133 $133 $212 $213 reversed $83 $-1 #
face $-1 $214 $215 $47 $-1 $216 reversed single #
loop $-1 $-1 $217 $85 #
plane-surface $-1 -12.515297530240979 -28.189525426225096 48.785727983384291 0 0.52991927123019833 0.84804809178421925 1 0 0 forward_v I I I I #
coedge $-1 $218 $219 $220 $221 reversed $86 $-1 #
face $-1 $-1 $222 $48 $-1 $223 forward single #
loop $-1 $224 $225 $88 #
cone-surface $-1 -15.308346231506867 29.212664981064655 6.4085519476797295 0 -0.52991927123019833 -0.84804809178421925 0.75 0 0 1 I I -0.70710678118654757 0.70710678118654757 0.75 forward I I I I #
loop $-1 $-1 $226 $62 #
coedge $-1 $142 $142 $227 $228 reversed $89 $-1 #
face $-1 $-1 $229 $49 $-1 $230 forward single #
loop $-1 $231 $232 $91 #
cone-surface $-1 -9.7222488289750899 29.212664981064655 6.4085519476797295 0 -0.52991927123019833 -0.84804809178421925 0.75 0 0 1 I I -0.70710678118654757 0.70710678118654757 0.75 forward I I I I #
loop $-1 $-1 $233 $63 #
coedge $-1 $147 $147 $234 $235 reversed $92 $-1 #
face $-1 $236 $237 $50 $-1 $238 reversed single #
loop $-1 $-1 $239 $94 #
plane-surface $-1 12.515297530240986 -28.189525426225096 48.785727983384291 0 0.52991927123019833 0.84804809178421925 1 0 0 forward_v I I I I #
coedge $-1 $240 $241 $242 $243 reversed $95 $-1 #
face $-1 $-1 $244 $51 $-1 $245 forward single #
loop $-1 $246 $247 $97 #
cone-surface $-1 9.722248828975097 29.212664981064655 6.4085519476797295 0 -0.52991927123019833 -0.84804809178421925 0.75 0 0 1 I I -0.70710678118654757 0.70710678118654757 0.75 forward I I I I #
loop $-1 $-1 $248 $65 #
coedge $-1 $156 $156 $249 $250 reversed $98 $-1 #
face $-1 $-1 $251 $52 $-1 $252 forward single #
loop $-1 $253 $254 $100 #
cone-surface $-1 15.308346231506874 29.212664981064655 6.4085519476797295 0 -0.52991927123019833 -0.84804809178421925 0.75 0 0 1 I I -0.70710678118654757 0.70710678118654757 0.75 forward I I I I #
loop $-1 $-1 $255 $66 #
coedge $-1 $161 $161 $256 $257 reversed $101 $-1 #
face $-1 $258 $259 $53 $-1 $260 reversed single #
loop $-1 $-1 $261 $103 #
plane-surface $-1 37.545892590722943 -28.189525426225096 48.785727983384291 0 0.52991927123019833 0.84804809178421925 1 0 0 forward_v I I I I #
coedge $-1 $262 $263 $264 $265 reversed $104 $-1 #
face $-1 $-1 $266 $54 $-1 $267 forward single #
loop $-1 $268 $269 $106 #
cone-surface $-1 34.752843889457054 29.212664981064655 6.4085519476797295 0 -0.52991927123019833 -0.84804809178421925 0.75 0 0 1 I I -0.70710678118654757 0.70710678118654757 0.75 forward I I I I #
loop $-1 $-1 $270 $68 #
coedge $-1 $170 $170 $271 $272 reversed $107 $-1 #
face $-1 $-1 $273 $55 $-1 $274 forward single #
loop $-1 $275 $276 $109 #
cone-surface $-1 40.338941291988831 29.212664981064655 6.4085519476797295 0 -0.52991927123019833 -0.84804809178421925 0.75 0 0 1 I I -0.70710678118654757 0.70710678118654757 0.75 forward I I I I #
loop $-1 $-1 $277 $69 #
coedge $-1 $175 $175 $278 $279 reversed $110 $-1 #
face $-1 $280 $281 $42 $-1 $282 reversed single #
loop $-1 $-1 $283 $112 #
plane-surface $-1 0 -40.496595286179407 0 0 1 0 0 0 1 forward_v I I I I #
coedge $-1 $284 $285 $286 $287 forward $113 $-1 #
coedge $-1 $288 $115 $289 $290 forward $71 $-1 #
coedge $-1 $115 $288 $291 $292 forward $71 $-1 #
coedge $-1 $293 $294 $115 $183 reversed $295 $-1 #
edge $-1 $296 -40.496595286179407 $297 40.496595286179407 $182 $298 forward 7 unknown #
face $-1 $299 $300 $43 $-1 $301 reversed single #
loop $-1 $-1 $302 $116 #
plane-surface $-1 0 0 -16.312587700499954 0 0 1 1 0 0 forward_v I I I I #
coedge $-1 $303 $304 $305 $306 reversed $117 $-1 #
coedge $-1 $307 $119 $304 $308 forward $74 $-1 #
coedge $-1 $119 $307 $309 $310 reversed $74 $-1 #
coedge $-1 $311 $305 $119 $191 forward $300 $-1 #
edge $-1 $312 11.157294558728111 $313 23.278632004543567 $190 $314 forward 7 unknown #
face $-1 $315 $316 $44 $-1 $317 reversed single #
loop $-1 $-1 $318 $120 #
plane-surface $-1 -31.028778954435865 37.581466296565175 154.04131511419899 -1 0 0 0 0.52991927123019833 0.84804809178421925 forward_v I I I I #
coedge $-1 $319 $320 $321 $322 reversed $121 $-1 #
coedge $-1 $197 $123 $323 $324 reversed $77 $-1 #
coedge $-1 $123 $196 $319 $325 reversed $77 $-1 #
coedge $-1 $321 $326 $123 $199 forward $327 $-1 #
edge $-1 $328 -21.705862137896819 $329 -4.9876281324816922 $198 $330 forward 7 unknown #
loop $-1 $-1 $205 $124 #
plane-surface $-1 -37.545892590722936 -28.189525426225096 48.785727983384291 0 0.52991927123019833 0.84804809178421925 1 0 0 forward_v I I I I #
loop $-1 $-1 $331 $79 #
coedge $-1 $203 $203 $204 $332 reversed $125 $-1 #
coedge $-1 $204 $204 $203 $332 forward $127 $-1 #
coedge $-1 $205 $205 $128 $206 forward $200 $-1 #
edge $-1 $333 1.7588206707014949e-015 $333 6.2831853071796022 $205 $334 forward 7 unknown #
loop $-1 $-1 $212 $129 #
plane-surface $-1 -37.545892590722936 -28.189525426225096 48.785727983384291 0 0.52991927123019833 0.84804809178421925 1 0 0 forward_v I I I I #
loop $-1 $-1 $335 $82 #
coedge $-1 $210 $210 $211 $336 reversed $130 $-1 #
coedge $-1 $211 $211 $210 $336 forward $132 $-1 #
coedge $-1 $212 $212 $133 $213 forward $207 $-1 #
edge $-1 $337 1.7588206707014949e-015 $337 6.2831853071796022 $212 $338 forward 7 unknown #
face $-1 $339 $340 $47 $-1 $341 forward single #
loop $-1 $-1 $342 $134 #
plane-surface $-1 -5.9981838939539056 37.581466296565175 154.04131511419899 -1 0 0 0 0.52991927123019833 0.84804809178421925 forward_v I I I I #
coedge $-1 $343 $344 $345 $346 reversed $135 $-1 #
coedge $-1 $219 $137 $347 $348 reversed $86 $-1 #
coedge $-1 $137 $218 $343 $349 reversed $86 $-1 #
coedge $-1 $345 $350 $137 $221 forward $340 $-1 #
edge $-1 $351 -21.705862137896819 $352 -4.9876281324816922 $220 $353 forward 7 unknown #
loop $-1 $-1 $227 $138 #
plane-surface $-1 -12.515297530240979 -28.189525426225096 48.785727983384291 0 0.52991927123019833 0.84804809178421925 1 0 0 forward_v I I I I #
loop $-1 $-1 $354 $88 #
coedge $-1 $225 $225 $226 $355 reversed $139 $-1 #
coedge $-1 $226 $226 $225 $355 forward $141 $-1 #
coedge $-1 $227 $227 $142 $228 forward $222 $-1 #
edge $-1 $356 1.7588206707014949e-015 $356 6.2831853071796022 $227 $357 forward 7 unknown #
loop $-1 $-1 $234 $143 #
plane-surface $-1 -12.515297530240979 -28.189525426225096 48.785727983384291 0 0.52991927123019833 0.84804809178421925 1 0 0 forward_v I I I I #
loop $-1 $-1 $358 $91 #
coedge $-1 $232 $232 $233 $359 reversed $144 $-1 #
coedge $-1 $233 $233 $232 $359 forward $146 $-1 #
coedge $-1 $234 $234 $147 $235 forward $229 $-1 #
edge $-1 $360 1.7588206707014949e-015 $360 6.2831853071796022 $234 $361 forward 7 unknown #
face $-1 $362 $363 $50 $-1 $364 forward single #
loop $-1 $-1 $365 $148 #
plane-surface $-1 19.032411166528057 37.581466296565175 154.04131511419899 -1 0 0 0 0.52991927123019833 0.84804809178421925 forward_v I I I I #
coedge $-1 $366 $367 $368 $369 reversed $149 $-1 #
coedge $-1 $241 $151 $370 $371 reversed $95 $-1 #
coedge $-1 $151 $240 $366 $372 reversed $95 $-1 #
coedge $-1 $368 $373 $151 $243 forward $363 $-1 #
edge $-1 $374 -21.705862137896819 $375 -4.9876281324816922 $242 $376 forward 7 unknown #
loop $-1 $-1 $249 $152 #
plane-surface $-1 12.515297530240986 -28.189525426225096 48.785727983384291 0 0.52991927123019833 0.84804809178421925 1 0 0 forward_v I I I I #
loop $-1 $-1 $377 $97 #
coedge $-1 $247 $247 $248 $378 reversed $153 $-1 #
coedge $-1 $248 $248 $247 $378 forward $155 $-1 #
coedge $-1 $249 $249 $156 $250 forward $244 $-1 #
edge $-1 $379 1.7588206707014949e-015 $379 6.2831853071796022 $249 $380 forward 7 unknown #
loop $-1 $-1 $256 $157 #
plane-surface $-1 12.515297530240986 -28.189525426225096 48.785727983384291 0 0.52991927123019833 0.84804809178421925 1 0 0 forward_v I I I I #
loop $-1 $-1 $381 $100 #
coedge $-1 $254 $254 $255 $382 reversed $158 $-1 #
coedge $-1 $255 $255 $254 $382 forward $160 $-1 #
coedge $-1 $256 $256 $161 $257 forward $251 $-1 #
edge $-1 $383 1.7588206707014949e-015 $383 6.2831853071796022 $256 $384 forward 7 unknown #
face $-1 $385 $386 $53 $-1 $387 forward single #
loop $-1 $-1 $388 $162 #
plane-surface $-1 44.063006227010014 37.581466296565175 154.04131511419899 -1 0 0 0 0.52991927123019833 0.84804809178421925 forward_v I I I I #
coedge $-1 $389 $390 $391 $392 reversed $163 $-1 #
coedge $-1 $263 $165 $393 $394 reversed $104 $-1 #
coedge $-1 $165 $262 $389 $395 reversed $104 $-1 #
coedge $-1 $391 $396 $165 $265 forward $386 $-1 #
edge $-1 $397 -21.705862137896819 $398 -4.9876281324816922 $264 $399 forward 7 unknown #
loop $-1 $-1 $271 $166 #
plane-surface $-1 37.545892590722943 -28.189525426225096 48.785727983384291 0 0.52991927123019833 0.84804809178421925 1 0 0 forward_v I I I I #
loop $-1 $-1 $400 $106 #
coedge $-1 $269 $269 $270 $401 reversed $167 $-1 #
coedge $-1 $270 $270 $269 $401 forward $169 $-1 #
coedge $-1 $271 $271 $170 $272 forward $266 $-1 #
edge $-1 $402 1.7588206707014949e-015 $402 6.2831853071796022 $271 $403 forward 7 unknown #
loop $-1 $-1 $278 $171 #
plane-surface $-1 37.545892590722943 -28.189525426225096 48.785727983384291 0 0.52991927123019833 0.84804809178421925 1 0 0 forward_v I I I I #
loop $-1 $-1 $404 $109 #
coedge $-1 $276 $276 $277 $405 reversed $172 $-1 #
coedge $-1 $277 $277 $276 $405 forward $174 $-1 #
coedge $-1 $278 $278 $175 $279 forward $273 $-1 #
edge $-1 $406 1.7588206707014949e-015 $406 6.2831853071796022 $278 $407 forward 7 unknown #
face $-1 $408 $409 $42 $-1 $410 reversed single #
loop $-1 $-1 $411 $176 #
plane-surface $-1 -62.057557908871729 0 0 1 0 0 0 0 -1 forward_v I I I I #
coedge $-1 $412 $291 $413 $414 forward $177 $-1 #
coedge $-1 $415 $179 $412 $416 forward $113 $-1 #
coedge $-1 $179 $415 $417 $418 forward $113 $-1 #
coedge $-1 $294 $293 $179 $287 reversed $295 $-1 #
edge $-1 $419 -40.496595286179407 $420 40.496595286179407 $286 $421 forward 7 unknown #
coedge $-1 $181 $180 $422 $423 forward $71 $-1 #
coedge $-1 $424 $425 $180 $290 reversed $409 $-1 #
edge $-1 $297 -62.057557908871729 $426 62.057557908871729 $289 $427 forward 7 unknown #
coedge $-1 $283 $428 $181 $292 reversed $177 $-1 #
edge $-1 $429 -62.057557908871729 $296 62.057557908871729 $291 $430 forward 7 unknown #
coedge $-1 $286 $182 $428 $431 forward $295 $-1 #
coedge $-1 $182 $286 $424 $432 reversed $295 $-1 #
loop $-1 $-1 $293 $408 #
vertex $-1 $183 $433 #
vertex $-1 $183 $434 #
straight-curve $-1 62.057557908871729 0 16.312587700499954 0 1 0 I I #
face $-1 $435 $436 $43 $-1 $437 reversed single #
loop $-1 $-1 $305 $184 #
plane-surface $-1 62.057557908871729 0 0 -1 0 0 0 0 1 forward_v I I I I #
coedge $-1 $438 $439 $303 $440 forward $185 $-1 #
coedge $-1 $441 $187 $302 $440 reversed $117 $-1 #
coedge $-1 $187 $441 $188 $308 reversed $117 $-1 #
coedge $-1 $190 $442 $187 $306 forward $300 $-1 #
edge $-1 $443 -9.0839860878822485 $312 -5.3732171373531621 $305 $444 forward 7 unknown #
coedge $-1 $189 $188 $445 $446 reversed $74 $-1 #
edge $-1 $312 -62.057557908871729 $447 62.057557908871729 $304 $448 forward 7 unknown #
coedge $-1 $449 $450 $189 $310 forward $436 $-1 #
edge $-1 $313 -62.057557908871729 $451 62.057557908871729 $309 $452 forward 7 unknown #
coedge $-1 $442 $190 $450 $453 forward $300 $-1 #
vertex $-1 $191 $454 #
vertex $-1 $453 $455 #
straight-curve $-1 62.057557908871729 -17.217963281635839 -12.601818749970867 0 -1 0 I I #
face $-1 $-1 $327 $44 $-1 $456 forward single #
loop $-1 $-1 $457 $192 #
plane-surface $-1 0 40.496595286179407 0 0 -1 0 0 0 -1 forward_v I I I I #
coedge $-1 $458 $459 $460 $461 reversed $193 $-1 #
coedge $-1 $462 $195 $197 $325 forward $121 $-1 #
coedge $-1 $195 $462 $458 $463 forward $121 $-1 #
coedge $-1 $460 $198 $195 $322 forward $327 $-1 #
edge $-1 $329 -25.290059931648539 $464 -12.255832659074397 $321 $465 forward 7 unknown #
coedge $-1 $466 $467 $196 $324 forward $316 $-1 #
edge $-1 $468 -71.154782096428164 $328 -60.708069856599543 $323 $469 forward 7 unknown #
edge $-1 $329 61.279409989182902 $468 80.993190572358813 $197 $470 forward 7 unknown #
coedge $-1 $198 $460 $466 $471 forward $327 $-1 #
loop $-1 $-1 $460 $315 #
vertex $-1 $324 $472 #
vertex $-1 $199 $473 #
straight-curve $-1 -44.063006227010007 18.790733148282587 16.312587700499947 0 -1 0 I I #
coedge $-1 $331 $331 $-1 $474 reversed $202 $-1 #
edge $-1 $475 0 $475 6.2831853071796004 $203 $476 forward 7 unknown #
vertex $-1 $206 $477 #
ellipse-curve $-1 -40.338941291988824 32.137478283471857 11.089231580585636 0 0.52991927123019833 0.84804809178421925 1.5 0 0 1 I I #
coedge $-1 $335 $335 $-1 $478 reversed $209 $-1 #
edge $-1 $479 0 $479 6.2831853071796004 $210 $480 forward 7 unknown #
vertex $-1 $213 $481 #
ellipse-curve $-1 -34.752843889457047 32.137478283471857 11.089231580585636 0 0.52991927123019833 0.84804809178421925 1.5 0 0 1 I I #
face $-1 $-1 $482 $47 $-1 $483 reversed single #
loop $-1 $-1 $220 $214 #
plane-surface $-1 0 0 16.312587700499954 0 0 1 1 0 0 forward_v I I I I #
coedge $-1 $484 $485 $486 $487 reversed $215 $-1 #
coedge $-1 $488 $217 $219 $349 forward $135 $-1 #
coedge $-1 $217 $488 $484 $489 forward $135 $-1 #
coedge $-1 $486 $220 $217 $346 forward $340 $-1 #
edge $-1 $352 -12.77476240140756 $490 0.25946487116658368 $345 $491 forward 7 unknown #
coedge $-1 $492 $493 $218 $348 forward $482 $-1 #
edge $-1 $494 -71.154782096428164 $351 -60.708069856599543 $347 $495 forward 7 unknown #
edge $-1 $352 61.279409989182902 $494 80.993190572358813 $219 $496 forward 7 unknown #
coedge $-1 $220 $486 $492 $497 forward $340 $-1 #
vertex $-1 $221 $498 #
vertex $-1 $221 $499 #
straight-curve $-1 -19.03241116652805 18.790733148282587 16.312587700499947 0 -1 0 I I #
coedge $-1 $354 $354 $-1 $500 reversed $224 $-1 #
edge $-1 $501 0 $501 6.2831853071796004 $225 $502 forward 7 unknown #
vertex $-1 $228 $503 #
ellipse-curve $-1 -15.308346231506867 32.137478283471857 11.089231580585636 0 0.52991927123019833 0.84804809178421925 1.5 0 0 1 I I #
coedge $-1 $358 $358 $-1 $504 reversed $231 $-1 #
edge $-1 $505 0 $505 6.2831853071796004 $232 $506 forward 7 unknown #
vertex $-1 $235 $507 #
ellipse-curve $-1 -9.7222488289750899 32.137478283471857 11.089231580585636 0 0.52991927123019833 0.84804809178421925 1.5 0 0 1 I I #
face $-1 $-1 $508 $50 $-1 $509 reversed single #
loop $-1 $-1 $242 $236 #
plane-surface $-1 0 0 16.312587700499954 0 0 1 1 0 0 forward_v I I I I #
coedge $-1 $510 $511 $512 $513 reversed $237 $-1 #
coedge $-1 $514 $239 $241 $372 forward $149 $-1 #
coedge $-1 $239 $514 $510 $515 forward $149 $-1 #
coedge $-1 $512 $242 $239 $369 forward $363 $-1 #
edge $-1 $375 -0.25946487116658012 $516 12.774762401407564 $368 $517 forward 7 unknown #
coedge $-1 $518 $519 $240 $371 forward $508 $-1 #
edge $-1 $520 -71.154782096428164 $374 -60.708069856599543 $370 $521 forward 7 unknown #
edge $-1 $375 61.279409989182902 $520 80.993190572358813 $241 $522 forward 7 unknown #
coedge $-1 $242 $512 $518 $523 forward $363 $-1 #
vertex $-1 $243 $524 #
vertex $-1 $243 $525 #
straight-curve $-1 5.9981838939539127 18.790733148282587 16.312587700499947 0 -1 0 I I #
coedge $-1 $377 $377 $-1 $526 reversed $246 $-1 #
edge $-1 $527 0 $527 6.2831853071796004 $247 $528 forward 7 unknown #
vertex $-1 $250 $529 #
ellipse-curve $-1 9.722248828975097 32.137478283471857 11.089231580585636 0 0.52991927123019833 0.84804809178421925 1.5 0 0 1 I I #
coedge $-1 $381 $381 $-1 $530 reversed $253 $-1 #
edge $-1 $531 0 $531 6.2831853071796004 $254 $532 forward 7 unknown #
vertex $-1 $257 $533 #
ellipse-curve $-1 15.308346231506874 32.137478283471857 11.089231580585636 0 0.52991927123019833 0.84804809178421925 1.5 0 0 1 I I #
face $-1 $-1 $534 $53 $-1 $535 reversed single #
loop $-1 $-1 $264 $258 #
plane-surface $-1 0 0 16.312587700499954 0 0 1 1 0 0 forward_v I I I I #
coedge $-1 $536 $537 $538 $539 reversed $259 $-1 #
coedge $-1 $540 $261 $263 $395 forward $163 $-1 #
coedge $-1 $261 $540 $536 $541 forward $163 $-1 #
coedge $-1 $538 $264 $261 $392 forward $386 $-1 #
edge $-1 $398 12.2558326590744 $542 25.290059931648543 $391 $543 forward 7 unknown #
coedge $-1 $544 $545 $262 $394 forward $534 $-1 #
edge $-1 $546 -71.154782096428164 $397 -60.708069856599543 $393 $547 forward 7 unknown #
edge $-1 $398 61.279409989182902 $546 80.993190572358813 $263 $548 forward 7 unknown #
coedge $-1 $264 $538 $544 $549 forward $386 $-1 #
vertex $-1 $265 $550 #
vertex $-1 $265 $551 #
straight-curve $-1 31.028778954435872 18.790733148282587 16.312587700499947 0 -1 0 I I #
coedge $-1 $400 $400 $-1 $552 reversed $268 $-1 #
edge $-1 $553 0 $553 6.2831853071796004 $269 $554 forward 7 unknown #
vertex $-1 $272 $555 #
ellipse-curve $-1 34.752843889457054 32.137478283471857 11.089231580585636 0 0.52991927123019833 0.84804809178421925 1.5 0 0 1 I I #
coedge $-1 $404 $404 $-1 $556 reversed $275 $-1 #
edge $-1 $557 0 $557 6.2831853071796004 $276 $558 forward 7 unknown #
vertex $-1 $279 $559 #
ellipse-curve $-1 40.338941291988831 32.137478283471857 11.089231580585636 0 0.52991927123019833 0.84804809178421925 1.5 0 0 1 I I #
face $-1 $-1 $295 $42 $-1 $560 reversed single #
loop $-1 $-1 $424 $280 #
plane-surface $-1 0 40.496595286179407 0 0 -1 0 0 0 -1 forward_v I I I I #
coedge $-1 $561 $422 $425 $562 forward $281 $-1 #
coedge $-1 $428 $283 $284 $416 reversed $177 $-1 #
coedge $-1 $422 $561 $283 $414 reversed $281 $-1 #
edge $-1 $429 -16.312587700499954 $563 16.312587700499954 $413 $564 forward 7 unknown #
coedge $-1 $285 $284 $561 $565 forward $113 $-1 #
edge $-1 $420 -62.057557908871729 $563 62.057557908871729 $412 $566 forward 7 unknown #
coedge $-1 $425 $424 $285 $418 reversed $409 $-1 #
edge $-1 $567 -62.057557908871729 $419 62.057557908871729 $417 $568 forward 7 unknown #
vertex $-1 $287 $569 #
vertex $-1 $431 $570 #
straight-curve $-1 62.057557908871729 0 -16.312587700499954 0 -1 0 I I #
coedge $-1 $411 $413 $288 $423 reversed $281 $-1 #
edge $-1 $426 -40.496595286179407 $429 40.496595286179407 $422 $571 forward 7 unknown #
coedge $-1 $417 $289 $294 $432 forward $409 $-1 #
coedge $-1 $289 $417 $411 $562 reversed $409 $-1 #
vertex $-1 $290 $572 #
straight-curve $-1 0 40.496595286179407 16.312587700499954 -1 0 0 I I #
coedge $-1 $291 $412 $293 $431 reversed $177 $-1 #
vertex $-1 $423 $573 #
straight-curve $-1 0 -40.496595286179407 16.312587700499954 1 0 0 I I #
edge $-1 $296 -16.312587700499954 $420 16.312587700499954 $293 $574 forward 7 unknown #
edge $-1 $297 -16.312587700499954 $419 16.312587700499954 $294 $575 forward 7 unknown #
point $-1 62.057557908871729 -40.496595286179407 16.312587700499954 #
point $-1 62.057557908871729 40.496595286179407 16.312587700499954 #
face $-1 $-1 $576 $43 $-1 $577 reversed single #
loop $-1 $-1 $309 $299 #
plane-surface $-1 0 -40.496595286179407 0 0 1 0 0 0 1 forward_v I I I I #
coedge $-1 $578 $302 $442 $579 forward $185 $-1 #
coedge $-1 $302 $578 $580 $581 forward $185 $-1 #
edge $-1 $582 -62.057557908871729 $443 62.057557908871729 $302 $583 forward 7 unknown #
coedge $-1 $304 $303 $584 $585 reversed $117 $-1 #
coedge $-1 $305 $311 $438 $579 reversed $300 $-1 #
vertex $-1 $579 $586 #
straight-curve $-1 62.057557908871729 -28.37525784036395 -7.2286016126177053 0 0 1 I I #
coedge $-1 $584 $587 $307 $446 forward $576 $-1 #
edge $-1 $451 -23.278632004543567 $447 -11.157294558728111 $445 $588 forward 7 unknown #
vertex $-1 $446 $589 #
straight-curve $-1 0 -28.37525784036395 -12.601818749970867 -1 0 0 I I #
coedge $-1 $590 $309 $587 $591 forward $436 $-1 #
coedge $-1 $309 $590 $311 $453 reversed $436 $-1 #
vertex $-1 $591 $592 #
straight-curve $-1 0 -40.496595286179407 -12.601818749970867 -1 0 0 I I #
edge $-1 $313 12.601818749970867 $593 16.312587700499954 $311 $594 forward 7 unknown #
point $-1 62.057557908871729 -28.37525784036395 -12.601818749970867 #
point $-1 62.057557908871729 -40.496595286179407 -12.601818749970867 #
plane-surface $-1 0 0 16.312587700499954 0 0 1 1 0 0 forward_v I I I I #
coedge $-1 $467 $466 $459 $595 forward $316 $-1 #
coedge $-1 $459 $318 $320 $463 reversed $193 $-1 #
coedge $-1 $318 $458 $457 $595 reversed $193 $-1 #
coedge $-1 $326 $321 $318 $461 forward $327 $-1 #
edge $-1 $464 4.9876281324816922 $596 21.705862137896819 $460 $597 forward 7 unknown #
coedge $-1 $320 $319 $467 $598 reversed $121 $-1 #
edge $-1 $599 -80.993190572358813 $464 -61.279409989182902 $458 $600 forward 7 unknown #
vertex $-1 $322 $601 #
straight-curve $-1 -18.772946295361468 23.77836128076428 16.31258770049995 1 0 0 I I #
coedge $-1 $457 $323 $326 $471 reversed $316 $-1 #
coedge $-1 $323 $457 $462 $598 forward $316 $-1 #
vertex $-1 $324 $602 #
straight-curve $-1 -44.063006227010007 40.496595286179407 77.020657557099497 0 0 1 I I #
straight-curve $-1 -44.063006227010007 -28.189525426225096 48.785727983384291 0 0.84804809178421925 -0.52991927123019833 I I #
edge $-1 $596 31.028778954435865 $328 44.063006227010007 $466 $603 forward 7 unknown #
point $-1 -44.063006227010007 40.496595286179407 16.312587700499954 #
point $-1 -44.063006227010007 23.77836128076428 16.312587700499954 #
edge $-1 $604 1 $604 0 $331 $-1 forward 7 unknown #
vertex $-1 $332 $605 #
ellipse-curve $-1 -40.338941291988824 29.610104434487305 7.0445880165178938 0 0.52991927123019833 0.84804809178421925 1.5 0 0 1 I I #
point $-1 -38.838941291988824 32.137478283471872 11.089231580585654 #
edge $-1 $606 1 $606 0 $335 $-1 forward 7 unknown #
vertex $-1 $336 $607 #
ellipse-curve $-1 -34.752843889457047 29.610104434487305 7.0445880165178938 0 0.52991927123019833 0.84804809178421925 1.5 0 0 1 I I #
point $-1 -33.252843889457047 32.137478283471872 11.089231580585654 #
loop $-1 $-1 $347 $339 #
plane-surface $-1 0 40.496595286179407 0 0 -1 0 0 0 -1 forward_v I I I I #
coedge $-1 $485 $342 $344 $489 reversed $215 $-1 #
coedge $-1 $342 $484 $608 $609 reversed $215 $-1 #
coedge $-1 $350 $345 $342 $487 forward $340 $-1 #
edge $-1 $490 4.9876281324816922 $610 21.705862137896819 $486 $611 forward 7 unknown #
coedge $-1 $344 $343 $493 $612 reversed $135 $-1 #
edge $-1 $613 -80.993190572358813 $490 -61.279409989182902 $484 $614 forward 7 unknown #
vertex $-1 $346 $615 #
straight-curve $-1 -6.2576487651204893 23.77836128076428 16.31258770049995 1 0 0 I I #
coedge $-1 $608 $347 $350 $497 reversed $482 $-1 #
coedge $-1 $347 $608 $488 $612 forward $482 $-1 #
vertex $-1 $348 $616 #
straight-curve $-1 -19.03241116652805 40.496595286179407 77.020657557099497 0 0 1 I I #
straight-curve $-1 -19.03241116652805 -28.189525426225096 48.785727983384291 0 0.84804809178421925 -0.52991927123019833 I I #
edge $-1 $610 5.9981838939539056 $351 19.03241116652805 $492 $617 forward 7 unknown #
point $-1 -19.03241116652805 40.496595286179407 16.312587700499954 #
point $-1 -19.03241116652805 23.77836128076428 16.312587700499954 #
edge $-1 $618 1 $618 0 $354 $-1 forward 7 unknown #
vertex $-1 $355 $619 #
ellipse-curve $-1 -15.308346231506867 29.610104434487305 7.0445880165178938 0 0.52991927123019833 0.84804809178421925 1.5 0 0 1 I I #
point $-1 -13.808346231506867 32.137478283471872 11.089231580585654 #
edge $-1 $620 1 $620 0 $358 $-1 forward 7 unknown #
vertex $-1 $359 $621 #
ellipse-curve $-1 -9.7222488289750899 29.610104434487305 7.0445880165178938 0 0.52991927123019833 0.84804809178421925 1.5 0 0 1 I I #
point $-1 -8.2222488289750899 32.137478283471872 11.089231580585654 #
loop $-1 $-1 $370 $362 #
plane-surface $-1 0 40.496595286179407 0 0 -1 0 0 0 -1 forward_v I I I I #
coedge $-1 $511 $365 $367 $515 reversed $237 $-1 #
coedge $-1 $365 $510 $622 $623 reversed $237 $-1 #
coedge $-1 $373 $368 $365 $513 forward $363 $-1 #
edge $-1 $516 4.9876281324816922 $624 21.705862137896819 $512 $625 forward 7 unknown #
coedge $-1 $367 $366 $519 $626 reversed $149 $-1 #
edge $-1 $627 -80.993190572358813 $516 -61.279409989182902 $510 $628 forward 7 unknown #
vertex $-1 $369 $629 #
straight-curve $-1 6.2576487651204928 23.77836128076428 16.31258770049995 1 0 0 I I #
coedge $-1 $622 $370 $373 $523 reversed $508 $-1 #
coedge $-1 $370 $622 $514 $626 forward $508 $-1 #
vertex $-1 $371 $630 #
straight-curve $-1 5.9981838939539127 40.496595286179407 77.020657557099497 0 0 1 I I #
straight-curve $-1 5.9981838939539127 -28.189525426225096 48.785727983384291 0 0.84804809178421925 -0.52991927123019833 I I #
edge $-1 $624 -19.032411166528057 $374 -5.9981838939539127 $518 $631 forward 7 unknown #
point $-1 5.9981838939539127 40.496595286179407 16.312587700499954 #
point $-1 5.9981838939539127 23.77836128076428 16.312587700499954 #
edge $-1 $632 1 $632 0 $377 $-1 forward 7 unknown #
vertex $-1 $378 $633 #
ellipse-curve $-1 9.722248828975097 29.610104434487305 7.0445880165178938 0 0.52991927123019833 0.84804809178421925 1.5 0 0 1 I I #
point $-1 11.222248828975097 32.137478283471872 11.089231580585654 #
edge $-1 $634 1 $634 0 $381 $-1 forward 7 unknown #
vertex $-1 $382 $635 #
ellipse-curve $-1 15.308346231506874 29.610104434487305 7.0445880165178938 0 0.52991927123019833 0.84804809178421925 1.5 0 0 1 I I #
point $-1 16.808346231506874 32.137478283471872 11.089231580585654 #
loop $-1 $-1 $393 $385 #
plane-surface $-1 0 40.496595286179407 0 0 -1 0 0 0 -1 forward_v I I I I #
coedge $-1 $537 $388 $390 $541 reversed $259 $-1 #
coedge $-1 $388 $536 $636 $637 reversed $259 $-1 #
coedge $-1 $396 $391 $388 $539 forward $386 $-1 #
edge $-1 $542 4.9876281324816922 $638 21.705862137896819 $538 $639 forward 7 unknown #
coedge $-1 $390 $389 $545 $640 reversed $163 $-1 #
edge $-1 $641 -80.993190572358813 $542 -61.279409989182902 $536 $642 forward 7 unknown #
vertex $-1 $392 $643 #
straight-curve $-1 18.772946295361471 23.77836128076428 16.31258770049995 1 0 0 I I #
coedge $-1 $636 $393 $396 $549 reversed $534 $-1 #
coedge $-1 $393 $636 $540 $640 forward $534 $-1 #
vertex $-1 $394 $644 #
straight-curve $-1 31.028778954435872 40.496595286179407 77.020657557099497 0 0 1 I I #
straight-curve $-1 31.028778954435872 -28.189525426225096 48.785727983384291 0 0.84804809178421925 -0.52991927123019833 I I #
edge $-1 $638 -44.063006227010014 $397 -31.028778954435872 $544 $645 forward 7 unknown #
point $-1 31.028778954435872 40.496595286179407 16.312587700499954 #
point $-1 31.028778954435872 23.77836128076428 16.312587700499954 #
edge $-1 $646 1 $646 0 $400 $-1 forward 7 unknown #
vertex $-1 $401 $647 #
ellipse-curve $-1 34.752843889457054 29.610104434487305 7.0445880165178938 0 0.52991927123019833 0.84804809178421925 1.5 0 0 1 I I #
point $-1 36.252843889457054 32.137478283471872 11.089231580585654 #
edge $-1 $648 1 $648 0 $404 $-1 forward 7 unknown #
vertex $-1 $405 $649 #
ellipse-curve $-1 40.338941291988831 29.610104434487305 7.0445880165178938 0 0.52991927123019833 0.84804809178421925 1.5 0 0 1 I I #
point $-1 41.838941291988831 32.137478283471872 11.089231580585654 #
plane-surface $-1 62.057557908871729 0 0 -1 0 0 0 0 1 forward_v I I I I #
coedge $-1 $413 $411 $415 $565 reversed $281 $-1 #
edge $-1 $426 -16.312587700499954 $567 16.312587700499954 $425 $650 forward 7 unknown #
vertex $-1 $565 $651 #
straight-curve $-1 -62.057557908871729 -40.496595286179407 0 0 0 -1 I I #
edge $-1 $563 -40.496595286179407 $567 40.496595286179407 $561 $652 forward 7 unknown #
straight-curve $-1 0 -40.496595286179407 -16.312587700499954 -1 0 0 I I #
vertex $-1 $418 $653 #
straight-curve $-1 0 40.496595286179407 -16.312587700499954 1 0 0 I I #
point $-1 62.057557908871729 40.496595286179407 -16.312587700499954 #
point $-1 62.057557908871729 -40.496595286179407 -16.312587700499954 #
straight-curve $-1 -62.057557908871729 0 16.312587700499954 0 -1 0 I I #
point $-1 -62.057557908871729 40.496595286179407 16.312587700499954 #
point $-1 -62.057557908871729 -40.496595286179407 16.312587700499954 #
straight-curve $-1 62.057557908871729 -40.496595286179407 0 0 0 -1 I I #
straight-curve $-1 62.057557908871729 40.496595286179407 0 0 0 -1 I I #
loop $-1 $-1 $584 $435 #
plane-surface $-1 -62.057557908871729 0 0 1 0 0 0 0 -1 forward_v I I I I #
coedge $-1 $439 $438 $590 $654 forward $185 $-1 #
edge $-1 $443 28.37525784036395 $593 40.496595286179407 $442 $655 forward 7 unknown #
coedge $-1 $587 $584 $439 $581 reversed $576 $-1 #
edge $-1 $656 -40.496595286179407 $582 -28.37525784036395 $580 $657 forward 7 unknown #
vertex $-1 $585 $658 #
straight-curve $-1 0 -28.37525784036395 -16.312587700499954 1 0 0 I I #
coedge $-1 $580 $445 $441 $585 forward $576 $-1 #
edge $-1 $447 5.3732171373531621 $582 9.0839860878822485 $584 $659 forward 7 unknown #
point $-1 62.057557908871729 -28.37525784036395 -16.312587700499954 #
coedge $-1 $445 $580 $449 $591 reversed $576 $-1 #
straight-curve $-1 -62.057557908871729 -17.217963281635839 -12.601818749970867 0 1 0 I I #
point $-1 -62.057557908871729 -28.37525784036395 -12.601818749970867 #
coedge $-1 $450 $449 $578 $654 reversed $436 $-1 #
edge $-1 $451 12.601818749970867 $656 16.312587700499954 $587 $660 forward 7 unknown #
point $-1 -62.057557908871729 -40.496595286179407 -12.601818749970867 #
vertex $-1 $453 $661 #
straight-curve $-1 62.057557908871729 -40.496595286179407 0 0 0 -1 I I #
edge $-1 $596 60.708069856599543 $599 71.154782096428164 $457 $662 forward 7 unknown #
vertex $-1 $471 $663 #
straight-curve $-1 -31.028778954435865 18.790733148282587 16.312587700499947 0 1 0 I I #
edge $-1 $599 12.255832659074397 $468 25.290059931648539 $467 $664 forward 7 unknown #
vertex $-1 $598 $665 #
straight-curve $-1 -31.028778954435865 -28.189525426225096 48.785727983384291 0 -0.84804809178421925 0.52991927123019833 I I #
point $-1 -31.028778954435865 23.77836128076428 16.312587700499954 #
point $-1 -44.063006227010007 40.496595286179407 5.8658754606713401 #
straight-curve $-1 0 40.496595286179407 16.312587700499954 -1 0 0 I I #
vertex $-1 $474 $666 #
point $-1 -38.838941291988824 29.610104434487305 7.0445880165178938 #
vertex $-1 $478 $667 #
point $-1 -33.252843889457047 29.610104434487305 7.0445880165178938 #
coedge $-1 $493 $492 $485 $609 forward $482 $-1 #
edge $-1 $610 60.708069856599543 $613 71.154782096428164 $608 $668 forward 7 unknown #
vertex $-1 $497 $669 #
straight-curve $-1 -5.9981838939539056 18.790733148282587 16.312587700499947 0 1 0 I I #
edge $-1 $613 -0.25946487116658368 $494 12.77476240140756 $493 $670 forward 7 unknown #
vertex $-1 $612 $671 #
straight-curve $-1 -5.9981838939539056 -28.189525426225096 48.785727983384291 0 -0.84804809178421925 0.52991927123019833 I I #
point $-1 -5.9981838939539056 23.77836128076428 16.312587700499954 #
point $-1 -19.03241116652805 40.496595286179407 5.8658754606713401 #
straight-curve $-1 0 40.496595286179407 16.312587700499954 -1 0 0 I I #
vertex $-1 $500 $672 #
point $-1 -13.808346231506867 29.610104434487305 7.0445880165178938 #
vertex $-1 $504 $673 #
point $-1 -8.2222488289750899 29.610104434487305 7.0445880165178938 #
coedge $-1 $519 $518 $511 $623 forward $508 $-1 #
edge $-1 $624 60.708069856599543 $627 71.154782096428164 $622 $674 forward 7 unknown #
vertex $-1 $523 $675 #
straight-curve $-1 19.032411166528057 18.790733148282587 16.312587700499947 0 1 0 I I #
edge $-1 $627 -12.774762401407564 $520 0.25946487116658012 $519 $676 forward 7 unknown #
vertex $-1 $626 $677 #
straight-curve $-1 19.032411166528057 -28.189525426225096 48.785727983384291 0 -0.84804809178421925 0.52991927123019833 I I #
point $-1 19.032411166528057 23.77836128076428 16.312587700499954 #
point $-1 5.9981838939539127 40.496595286179407 5.8658754606713401 #
straight-curve $-1 0 40.496595286179407 16.312587700499954 -1 0 0 I I #
vertex $-1 $526 $678 #
point $-1 11.222248828975097 29.610104434487305 7.0445880165178938 #
vertex $-1 $530 $679 #
point $-1 16.808346231506874 29.610104434487305 7.0445880165178938 #
coedge $-1 $545 $544 $537 $637 forward $534 $-1 #
edge $-1 $638 60.708069856599543 $641 71.154782096428164 $636 $680 forward 7 unknown #
vertex $-1 $549 $681 #
straight-curve $-1 44.063006227010014 18.790733148282587 16.312587700499947 0 1 0 I I #
edge $-1 $641 -25.290059931648543 $546 -12.2558326590744 $545 $682 forward 7 unknown #
vertex $-1 $640 $683 #
straight-curve $-1 44.063006227010014 -28.189525426225096 48.785727983384291 0 -0.84804809178421925 0.52991927123019833 I I #
point $-1 44.063006227010014 23.77836128076428 16.312587700499954 #
point $-1 31.028778954435872 40.496595286179407 5.8658754606713401 #
straight-curve $-1 0 40.496595286179407 16.312587700499954 -1 0 0 I I #
vertex $-1 $552 $684 #
point $-1 36.252843889457054 29.610104434487305 7.0445880165178938 #
vertex $-1 $556 $685 #
point $-1 41.838941291988831 29.610104434487305 7.0445880165178938 #
straight-curve $-1 -62.057557908871729 40.496595286179407 0 0 0 -1 I I #
point $-1 -62.057557908871729 -40.496595286179407 -16.312587700499954 #
straight-curve $-1 -62.057557908871729 0 -16.312587700499954 0 1 0 I I #
point $-1 -62.057557908871729 40.496595286179407 -16.312587700499954 #
edge $-1 $593 -62.057557908871729 $656 62.057557908871729 $590 $686 forward 7 unknown #
straight-curve $-1 62.057557908871729 0 -16.312587700499954 0 -1 0 I I #
vertex $-1 $581 $687 #
straight-curve $-1 -62.057557908871729 0 -16.312587700499954 0 1 0 I I #
point $-1 -62.057557908871729 -28.37525784036395 -16.312587700499954 #
straight-curve $-1 -62.057557908871729 -28.37525784036395 -7.2286016126177053 0 0 -1 I I #
straight-curve $-1 -62.057557908871729 -40.496595286179407 0 0 0 -1 I I #
point $-1 62.057557908871729 -40.496595286179407 -16.312587700499954 #
straight-curve $-1 -31.028778954435865 40.496595286179407 77.020657557099497 0 0 -1 I I #
point $-1 -31.028778954435865 40.496595286179407 16.312587700499954 #
straight-curve $-1 -18.772946295361468 40.496595286179414 5.8658754606713366 -1 0 0 I I #
point $-1 -31.028778954435865 40.496595286179407 5.8658754606713401 #
point $-1 -40.338941291988824 28.815225527642006 5.7725158788415651 #
point $-1 -34.752843889457047 28.815225527642006 5.7725158788415651 #
straight-curve $-1 -5.9981838939539056 40.496595286179407 77.020657557099497 0 0 -1 I I #
point $-1 -5.9981838939539056 40.496595286179407 16.312587700499954 #
straight-curve $-1 -6.2576487651204893 40.496595286179414 5.8658754606713366 -1 0 0 I I #
point $-1 -5.9981838939539056 40.496595286179407 5.8658754606713401 #
point $-1 -15.308346231506867 28.815225527642006 5.7725158788415651 #
point $-1 -9.7222488289750899 28.815225527642006 5.7725158788415651 #
straight-curve $-1 19.032411166528057 40.496595286179407 77.020657557099497 0 0 -1 I I #
point $-1 19.032411166528057 40.496595286179407 16.312587700499954 #
straight-curve $-1 6.2576487651204928 40.496595286179414 5.8658754606713366 -1 0 0 I I #
point $-1 19.032411166528057 40.496595286179407 5.8658754606713401 #
point $-1 9.722248828975097 28.815225527642006 5.7725158788415651 #
point $-1 15.308346231506874 28.815225527642006 5.7725158788415651 #
straight-curve $-1 44.063006227010014 40.496595286179407 77.020657557099497 0 0 -1 I I #
point $-1 44.063006227010014 40.496595286179407 16.312587700499954 #
straight-curve $-1 18.772946295361471 40.496595286179414 5.8658754606713366 -1 0 0 I I #
point $-1 44.063006227010014 40.496595286179407 5.8658754606713401 #
point $-1 34.752843889457054 28.815225527642006 5.7725158788415651 #
point $-1 40.338941291988831 28.815225527642006 5.7725158788415651 #
straight-curve $-1 0 -40.496595286179407 -16.312587700499954 -1 0 0 I I #
point $-1 -62.057557908871729 -40.496595286179407 -16.312587700499954 #
End-of-ACIS-data 