500 0 10 0           
7 Unknown 11 ACIS 5.0 NT 24 Fri Mar 26 16:31:31 1999 
-1 9.9999999999999995e-007 1e-010 
body $-1 $10 $-1 $11 #
body $-1 $12 $-1 $13 #
body $-1 $14 $-1 $15 #
body $-1 $16 $-1 $17 #
body $-1 $18 $-1 $19 #
body $-1 $20 $-1 $21 #
body $-1 $22 $-1 $23 #
body $-1 $24 $-1 $25 #
body $-1 $26 $-1 $27 #
body $-1 $28 $-1 $29 #
lump $-1 $-1 $30 $0 #
transform $-1 1 0 0 0 1 0 0 0 1 52.182988982818081 27.181115178748257 5.8070216589040591 1 rotate no_reflect no_shear #
lump $-1 $-1 $31 $1 #
transform $-1 1 0 0 0 1 0 0 0 1 52.182988982818081 27.181115178748257 5.8070216589040591 1 rotate no_reflect no_shear #
lump $-1 $-1 $32 $2 #
transform $-1 1 0 0 0 1 0 0 0 1 52.182988982818081 27.181115178748257 5.8070216589040591 1 rotate no_reflect no_shear #
lump $-1 $-1 $33 $3 #
transform $-1 1 0 0 0 1 0 0 0 1 52.182988982818081 27.181115178748257 5.8070216589040591 1 rotate no_reflect no_shear #
lump $-1 $-1 $34 $4 #
transform $-1 1 0 0 0 1 0 0 0 1 52.182988982818081 27.181115178748257 5.8070216589040591 1 rotate no_reflect no_shear #
lump $-1 $-1 $35 $5 #
transform $-1 1 0 0 0 1 0 0 0 1 52.182988982818081 27.181115178748257 5.8070216589040591 1 rotate no_reflect no_shear #
lump $-1 $-1 $36 $6 #
transform $-1 1 0 0 0 1 0 0 0 1 52.182988982818081 27.181115178748257 5.8070216589040591 1 rotate no_reflect no_shear #
lump $-1 $-1 $37 $7 #
transform $-1 1 0 0 0 1 0 0 0 1 52.182988982818081 27.181115178748257 5.8070216589040591 1 rotate no_reflect no_shear #
lump $-1 $-1 $38 $8 #
transform $-1 1 0 0 0 1 0 0 0 1 52.182988982818081 27.181115178748257 5.8070216589040591 1 rotate no_reflect no_shear #
lump $-1 $-1 $39 $9 #
transform $-1 1 0 0 0 1 0 0 0 1 52.182988982818081 27.181115178748257 5.8070216589040591 1 rotate no_reflect no_shear #
shell $-1 $-1 $-1 $40 $-1 $10 #
shell $-1 $-1 $-1 $41 $-1 $12 #
shell $-1 $-1 $-1 $42 $-1 $14 #
shell $-1 $-1 $-1 $43 $-1 $16 #
shell $-1 $-1 $-1 $44 $-1 $18 #
shell $-1 $-1 $-1 $45 $-1 $20 #
shell $-1 $-1 $-1 $46 $-1 $22 #
shell $-1 $-1 $-1 $47 $-1 $24 #
shell $-1 $-1 $-1 $48 $-1 $26 #
shell $-1 $-1 $-1 $49 $-1 $28 #
face $-1 $50 $51 $30 $-1 $52 forward single #
face $-1 $53 $54 $31 $-1 $55 forward single #
face $-1 $56 $57 $32 $-1 $58 reversed single #
face $-1 $59 $60 $33 $-1 $61 forward single #
face $-1 $62 $63 $34 $-1 $64 reversed single #
face $-1 $65 $66 $35 $-1 $67 forward single #
face $-1 $68 $69 $36 $-1 $70 reversed single #
face $-1 $71 $72 $37 $-1 $73 forward single #
face $-1 $74 $75 $38 $-1 $76 forward single #
face $-1 $77 $78 $39 $-1 $79 forward single #
face $-1 $80 $81 $30 $-1 $82 reversed single #
loop $-1 $-1 $83 $40 #
plane-surface $-1 0 0 5.8070216589040591 0 0 1 1 0 0 forward_v I I I I #
face $-1 $84 $85 $31 $-1 $86 reversed single #
loop $-1 $-1 $87 $41 #
plane-surface $-1 -48.80669865295075 0 -2.363144310083019 0 0 1 1 0 0 forward_v I I I I #
face $-1 $88 $89 $32 $-1 $90 reversed single #
loop $-1 $-1 $91 $42 #
plane-surface $-1 -45.430408323083427 -98.358541843875486 77.024138056078442 1 0 0 0 0.68199836817093118 -0.7313536940579346 forward_v I I I I #
face $-1 $92 $93 $33 $-1 $94 forward single #
loop $-1 $95 $96 $43 #
cone-surface $-1 -39.540745944970304 -24.047707841377299 2.8301383672711338 0 0.68199836817093118 -0.7313536940579346 1 0 0 1 I I 0 1 1 forward I I I I #
face $-1 $97 $98 $34 $-1 $99 reversed single #
loop $-1 $-1 $100 $44 #
plane-surface $-1 40.403664226591829 -98.358541843875486 77.024138056078442 1 0 0 0 0.68199836817093118 -0.7313536940579346 forward_v I I I I #
face $-1 $101 $102 $35 $-1 $103 forward single #
loop $-1 $104 $105 $45 #
cone-surface $-1 46.293326604704951 -24.047707841377299 2.8301383672711338 0 0.68199836817093118 -0.7313536940579346 1 0 0 1 I I 0 1 1 forward I I I I #
face $-1 $106 $107 $36 $-1 $108 reversed single #
loop $-1 $-1 $109 $46 #
plane-surface $-1 -45.430408323083427 46.574522162814972 116.46592955049192 1 0 0 0 -0.6018150307709319 -0.79863550430605224 forward_v I I I I #
face $-1 $110 $111 $37 $-1 $112 forward single #
loop $-1 $113 $114 $47 #
cone-surface $-1 -42.628525187547893 22.507472428685197 1.6625620460275268 0 -0.6018150307709319 -0.79863550430605224 1 0 0 1 I I 0 1 1 forward I I I I #
face $-1 $115 $116 $38 $-1 $117 forward single #
loop $-1 $118 $119 $48 #
cone-surface $-1 -38.425700484244601 22.507472428685197 1.6625620460275268 0 -0.6018150307709319 -0.79863550430605224 1 0 0 1 I I 0 1 1 forward I I I I #
face $-1 $120 $121 $39 $-1 $122 forward single #
loop $-1 $123 $124 $49 #
cone-surface $-1 -34.222875780941315 22.507472428685197 1.6625620460275268 0 -0.6018150307709319 -0.79863550430605224 1 0 0 1 I I 0 1 1 forward I I I I #
face $-1 $125 $126 $30 $-1 $127 reversed single #
loop $-1 $-1 $128 $50 #
plane-surface $-1 0 0 -5.8070216589040591 0 0 1 1 0 0 forward_v I I I I #
coedge $-1 $129 $130 $131 $132 forward $51 $-1 #
face $-1 $133 $134 $31 $-1 $135 reversed single #
loop $-1 $-1 $136 $53 #
plane-surface $-1 -45.430408323083419 0 -4.085082984493539 -1 0 0 0 0 1 forward_v I I I I #
coedge $-1 $137 $138 $139 $140 forward $54 $-1 #
face $-1 $141 $142 $32 $-1 $143 reversed single #
loop $-1 $-1 $144 $56 #
plane-surface $-1 -39.540745944970304 -27.181115178748257 0.69569453694143135 0 -0.68199836817093118 0.7313536940579346 1 0 0 forward_v I I I I #
coedge $-1 $145 $146 $147 $148 reversed $57 $-1 #
face $-1 $-1 $149 $33 $-1 $150 forward single #
loop $-1 $151 $152 $59 #
cone-surface $-1 -39.540745944970304 -23.313914895149381 2.0432417895905557 0 0.68199836817093118 -0.7313536940579346 0.5 0 0 1 I I -0.70710678118654746 0.70710678118654746 0.5 forward I I I I #
loop $-1 $-1 $153 $43 #
coedge $-1 $96 $96 $154 $155 reversed $60 $-1 #
face $-1 $156 $157 $34 $-1 $158 reversed single #
loop $-1 $-1 $159 $62 #
plane-surface $-1 46.293326604704951 -27.181115178748257 0.69569453694143135 0 -0.68199836817093118 0.7313536940579346 1 0 0 forward_v I I I I #
coedge $-1 $160 $161 $162 $163 reversed $63 $-1 #
face $-1 $-1 $164 $35 $-1 $165 forward single #
loop $-1 $166 $167 $65 #
cone-surface $-1 46.293326604704951 -23.313914895149381 2.0432417895905557 0 0.68199836817093118 -0.7313536940579346 0.5 0 0 1 I I -0.70710678118654746 0.70710678118654746 0.5 forward I I I I #
loop $-1 $-1 $168 $45 #
coedge $-1 $105 $105 $169 $170 reversed $66 $-1 #
face $-1 $171 $172 $36 $-1 $173 reversed single #
loop $-1 $-1 $174 $68 #
plane-surface $-1 -38.425700484244608 -16.234492078012757 33.115554105511748 0 0.6018150307709319 0.79863550430605224 1 0 0 forward_v I I I I #
coedge $-1 $175 $176 $177 $178 reversed $69 $-1 #
face $-1 $-1 $179 $37 $-1 $180 forward single #
loop $-1 $181 $182 $71 #
cone-surface $-1 -42.628525187547893 21.120902866609448 -0.17747787461926023 0 -0.6018150307709319 -0.79863550430605224 0.5 0 0 1 I I -0.70710678118654735 0.70710678118654768 0.5 forward I I I I #
loop $-1 $-1 $183 $47 #
coedge $-1 $114 $114 $184 $185 reversed $72 $-1 #
face $-1 $-1 $186 $38 $-1 $187 forward single #
loop $-1 $188 $189 $74 #
cone-surface $-1 -38.425700484244601 21.120902866609448 -0.17747787461926023 0 -0.6018150307709319 -0.79863550430605224 0.5 0 0 1 I I -0.70710678118654735 0.70710678118654768 0.5 forward I I I I #
loop $-1 $-1 $190 $48 #
coedge $-1 $119 $119 $191 $192 reversed $75 $-1 #
face $-1 $-1 $193 $39 $-1 $194 forward single #
loop $-1 $195 $196 $77 #
cone-surface $-1 -34.222875780941315 21.120902866609448 -0.17747787461926023 0 -0.6018150307709319 -0.79863550430605224 0.5 0 0 1 I I -0.70710678118654735 0.70710678118654768 0.5 forward I I I I #
loop $-1 $-1 $197 $49 #
coedge $-1 $124 $124 $198 $199 reversed $78 $-1 #
face $-1 $200 $201 $30 $-1 $202 reversed single #
loop $-1 $-1 $203 $80 #
plane-surface $-1 0 -27.181115178748257 0 0 1 0 0 0 1 forward_v I I I I #
coedge $-1 $204 $205 $206 $207 forward $81 $-1 #
coedge $-1 $208 $83 $209 $210 forward $51 $-1 #
coedge $-1 $83 $208 $211 $212 forward $51 $-1 #
coedge $-1 $213 $214 $83 $132 reversed $215 $-1 #
edge $-1 $216 -27.181115178748257 $217 27.181115178748257 $131 $218 forward 7 unknown #
face $-1 $219 $220 $31 $-1 $221 reversed single #
loop $-1 $-1 $222 $84 #
plane-surface $-1 0 0 -5.8070216589040591 0 0 1 1 0 0 forward_v I I I I #
coedge $-1 $223 $139 $224 $225 reversed $85 $-1 #
coedge $-1 $226 $87 $227 $228 reversed $54 $-1 #
coedge $-1 $87 $226 $229 $230 reversed $54 $-1 #
coedge $-1 $136 $231 $87 $140 reversed $85 $-1 #
edge $-1 $232 -27.181115178748257 $233 27.181115178748257 $139 $234 forward 7 unknown #
face $-1 $235 $236 $32 $-1 $237 forward single #
loop $-1 $-1 $238 $88 #
plane-surface $-1 -33.651083566857181 -98.358541843875486 77.024138056078442 -1 0 0 0 -0.68199836817093118 0.7313536940579346 forward_v I I I I #
coedge $-1 $239 $240 $241 $242 reversed $89 $-1 #
coedge $-1 $146 $91 $243 $244 reversed $57 $-1 #
coedge $-1 $91 $145 $239 $245 reversed $57 $-1 #
coedge $-1 $241 $246 $91 $148 forward $247 $-1 #
edge $-1 $248 32.705047369135158 $249 37.81637449109779 $147 $250 forward 7 unknown #
loop $-1 $-1 $154 $92 #
plane-surface $-1 -39.540745944970304 -27.181115178748257 0.69569453694143135 0 -0.68199836817093118 0.7313536940579346 1 0 0 forward_v I I I I #
loop $-1 $-1 $251 $59 #
coedge $-1 $152 $152 $153 $252 reversed $93 $-1 #
coedge $-1 $153 $153 $152 $252 forward $95 $-1 #
coedge $-1 $154 $154 $96 $155 forward $149 $-1 #
edge $-1 $253 -6.0573623288012184e-016 $253 6.2831853071795996 $154 $254 forward 7 unknown #
face $-1 $255 $256 $34 $-1 $257 forward single #
loop $-1 $-1 $162 $97 #
plane-surface $-1 0 -27.181115178748257 0 0 1 0 0 0 1 forward_v I I I I #
coedge $-1 $258 $259 $260 $261 reversed $98 $-1 #
coedge $-1 $161 $100 $262 $263 reversed $63 $-1 #
coedge $-1 $100 $160 $258 $264 reversed $63 $-1 #
coedge $-1 $260 $265 $100 $163 forward $157 $-1 #
edge $-1 $266 32.705047369135158 $267 37.81637449109779 $162 $268 forward 7 unknown #
loop $-1 $-1 $169 $101 #
plane-surface $-1 46.293326604704951 -27.181115178748257 0.69569453694143135 0 -0.68199836817093118 0.7313536940579346 1 0 0 forward_v I I I I #
loop $-1 $-1 $269 $65 #
coedge $-1 $167 $167 $168 $270 reversed $102 $-1 #
coedge $-1 $168 $168 $167 $270 forward $104 $-1 #
coedge $-1 $169 $169 $105 $170 forward $164 $-1 #
edge $-1 $271 -6.0573623288012184e-016 $271 6.2831853071795996 $169 $272 forward 7 unknown #
face $-1 $273 $274 $36 $-1 $275 reversed single #
loop $-1 $-1 $276 $106 #
plane-surface $-1 -31.420992645405789 46.574522162814972 116.46592955049192 -1 0 0 0 0.6018150307709319 0.79863550430605224 forward_v I I I I #
coedge $-1 $277 $278 $279 $280 reversed $107 $-1 #
coedge $-1 $176 $109 $281 $282 reversed $69 $-1 #
coedge $-1 $109 $175 $277 $283 reversed $69 $-1 #
coedge $-1 $279 $284 $109 $178 forward $285 $-1 #
edge $-1 $286 -3.8938540973407711 $287 3.2821073094047932 $177 $288 forward 7 unknown #
loop $-1 $-1 $184 $110 #
plane-surface $-1 -38.425700484244608 -16.234492078012757 33.115554105511748 0 0.6018150307709319 0.79863550430605224 1 0 0 forward_v I I I I #
loop $-1 $-1 $289 $71 #
coedge $-1 $182 $182 $183 $290 reversed $111 $-1 #
coedge $-1 $183 $183 $182 $290 forward $113 $-1 #
coedge $-1 $184 $184 $114 $185 forward $179 $-1 #
edge $-1 $291 3.8660254003486713e-015 $291 6.283185307179604 $184 $292 forward 7 unknown #
loop $-1 $-1 $191 $115 #
plane-surface $-1 -38.425700484244608 -16.234492078012757 33.115554105511748 0 0.6018150307709319 0.79863550430605224 1 0 0 forward_v I I I I #
loop $-1 $-1 $293 $74 #
coedge $-1 $189 $189 $190 $294 reversed $116 $-1 #
coedge $-1 $190 $190 $189 $294 forward $118 $-1 #
coedge $-1 $191 $191 $119 $192 forward $186 $-1 #
edge $-1 $295 3.8660254003486713e-015 $295 6.283185307179604 $191 $296 forward 7 unknown #
loop $-1 $-1 $198 $120 #
plane-surface $-1 -38.425700484244608 -16.234492078012757 33.115554105511748 0 0.6018150307709319 0.79863550430605224 1 0 0 forward_v I I I I #
loop $-1 $-1 $297 $77 #
coedge $-1 $196 $196 $197 $298 reversed $121 $-1 #
coedge $-1 $197 $197 $196 $298 forward $123 $-1 #
coedge $-1 $198 $198 $124 $199 forward $193 $-1 #
edge $-1 $299 3.8660254003486713e-015 $299 6.283185307179604 $198 $300 forward 7 unknown #
face $-1 $301 $302 $30 $-1 $303 reversed single #
loop $-1 $-1 $304 $125 #
plane-surface $-1 -52.182988982818081 0 0 1 0 0 0 0 -1 forward_v I I I I #
coedge $-1 $305 $211 $306 $307 forward $126 $-1 #
coedge $-1 $308 $128 $305 $309 forward $81 $-1 #
coedge $-1 $128 $308 $310 $311 forward $81 $-1 #
coedge $-1 $214 $213 $128 $207 reversed $215 $-1 #
edge $-1 $312 -27.181115178748257 $313 27.181115178748257 $206 $314 forward 7 unknown #
coedge $-1 $130 $129 $315 $316 forward $51 $-1 #
coedge $-1 $317 $318 $129 $210 reversed $302 $-1 #
edge $-1 $217 -52.182988982818081 $319 52.182988982818081 $209 $320 forward 7 unknown #
coedge $-1 $203 $321 $130 $212 reversed $126 $-1 #
edge $-1 $322 -52.182988982818081 $216 52.182988982818081 $211 $323 forward 7 unknown #
coedge $-1 $206 $131 $321 $324 forward $215 $-1 #
coedge $-1 $131 $206 $317 $325 reversed $215 $-1 #
loop $-1 $-1 $213 $301 #
vertex $-1 $132 $326 #
vertex $-1 $132 $327 #
straight-curve $-1 52.182988982818081 0 5.8070216589040591 0 1 0 I I #
face $-1 $328 $329 $31 $-1 $330 reversed single #
loop $-1 $-1 $224 $133 #
plane-surface $-1 0 -27.181115178748257 0 0 1 0 0 0 1 forward_v I I I I #
coedge $-1 $331 $332 $223 $333 forward $134 $-1 #
coedge $-1 $231 $136 $222 $333 reversed $85 $-1 #
coedge $-1 $229 $334 $136 $225 forward $220 $-1 #
edge $-1 $335 -3.7644801666572896 $232 -0.32060281783624944 $224 $336 forward 7 unknown #
coedge $-1 $138 $137 $337 $338 reversed $54 $-1 #
coedge $-1 $339 $340 $137 $228 forward $341 $-1 #
edge $-1 $342 -27.779639656342706 $233 -21.027058996608044 $227 $343 forward 7 unknown #
coedge $-1 $344 $224 $138 $230 forward $220 $-1 #
edge $-1 $232 21.027058996608044 $345 27.779639656342706 $229 $346 forward 7 unknown #
coedge $-1 $139 $223 $339 $347 reversed $85 $-1 #
vertex $-1 $230 $348 #
vertex $-1 $228 $349 #
straight-curve $-1 -45.430408323083419 0 -2.363144310083019 0 1 0 I I #
face $-1 $-1 $247 $32 $-1 $350 reversed single #
loop $-1 $-1 $351 $141 #
plane-surface $-1 0 0 5.8070216589040591 0 0 1 1 0 0 forward_v I I I I #
coedge $-1 $352 $353 $354 $355 reversed $142 $-1 #
coedge $-1 $356 $144 $146 $245 forward $89 $-1 #
coedge $-1 $144 $356 $352 $357 forward $89 $-1 #
coedge $-1 $354 $147 $144 $242 forward $247 $-1 #
edge $-1 $249 -25.660035350598275 $358 -13.880710594372029 $241 $359 forward 7 unknown #
coedge $-1 $360 $361 $145 $244 forward $236 $-1 #
edge $-1 $362 -27.479382893646488 $248 -21.998155743189486 $243 $363 forward 7 unknown #
edge $-1 $249 0 $362 7.494632480823709 $146 $364 forward 7 unknown #
coedge $-1 $147 $354 $360 $365 reversed $247 $-1 #
loop $-1 $-1 $354 $235 #
vertex $-1 $365 $366 #
vertex $-1 $148 $367 #
straight-curve $-1 -45.430408323083427 -27.181115178748257 38.512069028039221 0 0 -1 I I #
coedge $-1 $251 $251 $-1 $368 reversed $151 $-1 #
edge $-1 $369 0 $369 6.2831853071796004 $152 $370 forward 7 unknown #
vertex $-1 $155 $371 #
ellipse-curve $-1 -39.540745944970304 -24.440501603519756 3.2513580979227461 0 -0.68199836817093118 0.7313536940579346 1 0 0 1 I I #
face $-1 $-1 $372 $34 $-1 $373 reversed single #
loop $-1 $-1 $262 $156 #
plane-surface $-1 0 0 5.8070216589040591 0 0 1 1 0 0 forward_v I I I I #
coedge $-1 $374 $159 $161 $264 forward $98 $-1 #
coedge $-1 $159 $374 $375 $376 reversed $98 $-1 #
coedge $-1 $377 $162 $159 $261 forward $157 $-1 #
edge $-1 $267 17.257000924239353 $378 29.036325680465598 $260 $379 forward 7 unknown #
coedge $-1 $380 $381 $160 $263 forward $256 $-1 #
edge $-1 $382 -27.479382893646488 $266 -21.998155743189486 $262 $383 forward 7 unknown #
edge $-1 $267 0 $382 7.494632480823709 $161 $384 forward 7 unknown #
coedge $-1 $162 $377 $380 $385 reversed $157 $-1 #
vertex $-1 $385 $386 #
vertex $-1 $163 $387 #
straight-curve $-1 40.403664226591829 -27.181115178748257 38.512069028039221 0 0 -1 I I #
coedge $-1 $269 $269 $-1 $388 reversed $166 $-1 #
edge $-1 $389 0 $389 6.2831853071796004 $167 $390 forward 7 unknown #
vertex $-1 $170 $391 #
ellipse-curve $-1 46.293326604704951 -24.440501603519756 3.2513580979227461 0 -0.68199836817093118 0.7313536940579346 1 0 0 1 I I #
face $-1 $-1 $285 $36 $-1 $392 forward single #
loop $-1 $-1 $393 $171 #
plane-surface $-1 0 27.181115178748257 0 0 -1 0 0 0 -1 forward_v I I I I #
coedge $-1 $394 $395 $396 $397 reversed $172 $-1 #
coedge $-1 $398 $174 $176 $283 forward $107 $-1 #
coedge $-1 $174 $398 $394 $399 forward $107 $-1 #
coedge $-1 $396 $177 $174 $280 forward $285 $-1 #
edge $-1 $287 -26.217558080961123 $400 -12.208142403283485 $279 $401 forward 7 unknown #
coedge $-1 $402 $403 $175 $282 forward $274 $-1 #
edge $-1 $404 -57.833418005107468 $286 -52.425943116341898 $281 $405 forward 7 unknown #
edge $-1 $287 45.376953133964022 $404 54.362230357496522 $176 $406 forward 7 unknown #
coedge $-1 $177 $396 $402 $407 forward $285 $-1 #
loop $-1 $-1 $396 $273 #
vertex $-1 $282 $408 #
vertex $-1 $178 $409 #
straight-curve $-1 -45.430408323083427 23.287261081407486 5.8070216589040626 0 -1 0 I I #
coedge $-1 $289 $289 $-1 $410 reversed $181 $-1 #
edge $-1 $411 0 $411 6.2831853071796004 $182 $412 forward 7 unknown #
vertex $-1 $185 $413 #
ellipse-curve $-1 -42.628525187547893 23.593134475375471 3.1032842145212749 0 0.6018150307709319 0.79863550430605224 1 0 0 1 I I #
coedge $-1 $293 $293 $-1 $414 reversed $188 $-1 #
edge $-1 $415 0 $415 6.2831853071796004 $189 $416 forward 7 unknown #
vertex $-1 $192 $417 #
ellipse-curve $-1 -38.425700484244601 23.593134475375471 3.1032842145212749 0 0.6018150307709319 0.79863550430605224 1 0 0 1 I I #
coedge $-1 $297 $297 $-1 $418 reversed $195 $-1 #
edge $-1 $419 0 $419 6.2831853071796004 $196 $420 forward 7 unknown #
vertex $-1 $199 $421 #
ellipse-curve $-1 -34.222875780941315 23.593134475375471 3.1032842145212749 0 0.6018150307709319 0.79863550430605224 1 0 0 1 I I #
face $-1 $-1 $215 $30 $-1 $422 reversed single #
loop $-1 $-1 $317 $200 #
plane-surface $-1 0 27.181115178748257 0 0 -1 0 0 0 -1 forward_v I I I I #
coedge $-1 $423 $315 $318 $424 forward $201 $-1 #
coedge $-1 $321 $203 $204 $309 reversed $126 $-1 #
coedge $-1 $315 $423 $203 $307 reversed $201 $-1 #
edge $-1 $322 -5.8070216589040591 $425 5.8070216589040591 $306 $426 forward 7 unknown #
coedge $-1 $205 $204 $423 $427 forward $81 $-1 #
edge $-1 $313 -52.182988982818081 $425 52.182988982818081 $305 $428 forward 7 unknown #
coedge $-1 $318 $317 $205 $311 reversed $302 $-1 #
edge $-1 $429 -52.182988982818081 $312 52.182988982818081 $310 $430 forward 7 unknown #
vertex $-1 $207 $431 #
vertex $-1 $324 $432 #
straight-curve $-1 52.182988982818081 0 -5.8070216589040591 0 -1 0 I I #
coedge $-1 $304 $306 $208 $316 reversed $201 $-1 #
edge $-1 $319 -27.181115178748257 $322 27.181115178748257 $315 $433 forward 7 unknown #
coedge $-1 $310 $209 $214 $325 forward $302 $-1 #
coedge $-1 $209 $310 $304 $424 reversed $302 $-1 #
vertex $-1 $210 $434 #
straight-curve $-1 0 27.181115178748257 5.8070216589040591 -1 0 0 I I #
coedge $-1 $211 $305 $213 $324 reversed $126 $-1 #
vertex $-1 $316 $435 #
straight-curve $-1 0 -27.181115178748257 5.8070216589040591 1 0 0 I I #
edge $-1 $216 -5.8070216589040591 $313 5.8070216589040591 $213 $436 forward 7 unknown #
edge $-1 $217 -5.8070216589040591 $312 5.8070216589040591 $214 $437 forward 7 unknown #
point $-1 52.182988982818081 -27.181115178748257 5.8070216589040591 #
point $-1 52.182988982818081 27.181115178748257 5.8070216589040591 #
face $-1 $-1 $341 $31 $-1 $438 reversed single #
loop $-1 $-1 $337 $219 #
plane-surface $-1 -52.182988982818081 0 0 1 0 0 0 0 -1 forward_v I I I I #
coedge $-1 $439 $222 $334 $440 forward $134 $-1 #
coedge $-1 $222 $439 $441 $442 forward $134 $-1 #
edge $-1 $443 -27.181115178748257 $335 27.181115178748257 $222 $444 forward 7 unknown #
coedge $-1 $224 $344 $331 $440 reversed $220 $-1 #
vertex $-1 $440 $445 #
straight-curve $-1 -45.430408323083419 -27.181115178748257 -2.0425414922467695 0 0 1 I I #
coedge $-1 $446 $447 $226 $338 forward $329 $-1 #
edge $-1 $345 -27.181115178748257 $342 27.181115178748257 $337 $448 forward 7 unknown #
coedge $-1 $441 $227 $231 $347 forward $341 $-1 #
coedge $-1 $227 $441 $446 $449 reversed $341 $-1 #
loop $-1 $-1 $339 $328 #
vertex $-1 $449 $450 #
straight-curve $-1 -24.403349326475375 27.181115178748257 -2.363144310083019 1 0 0 I I #
coedge $-1 $334 $229 $447 $451 forward $220 $-1 #
vertex $-1 $451 $452 #
straight-curve $-1 -24.403349326475375 -27.181115178748257 -2.363144310083019 -1 0 0 I I #
edge $-1 $233 0.32060281783624944 $443 3.7644801666572896 $339 $453 forward 7 unknown #
point $-1 -45.430408323083419 -27.181115178748257 -2.363144310083019 #
point $-1 -45.430408323083419 27.181115178748257 -2.363144310083019 #
plane-surface $-1 0 -27.181115178748257 0 0 1 0 0 0 1 forward_v I I I I #
coedge $-1 $361 $360 $353 $454 forward $236 $-1 #
coedge $-1 $353 $238 $240 $357 reversed $142 $-1 #
coedge $-1 $238 $352 $351 $454 reversed $142 $-1 #
coedge $-1 $246 $241 $238 $355 forward $247 $-1 #
edge $-1 $358 -37.81637449109779 $455 -32.705047369135158 $354 $456 forward 7 unknown #
coedge $-1 $240 $239 $361 $457 reversed $89 $-1 #
edge $-1 $458 -7.494632480823709 $358 0 $352 $459 forward 7 unknown #
vertex $-1 $242 $460 #
straight-curve $-1 -19.770372972485152 -27.181115178748257 0.69569453694143102 1 0 0 I I #
coedge $-1 $351 $243 $246 $365 forward $236 $-1 #
coedge $-1 $243 $351 $356 $457 forward $236 $-1 #
vertex $-1 $244 $461 #
straight-curve $-1 -45.430408323083427 -49.179270921937743 5.8070216589040626 0 -1 0 I I #
straight-curve $-1 -45.430408323083427 -27.181115178748257 0.69569453694143135 0 0.7313536940579346 0.68199836817093118 I I #
edge $-1 $248 -45.430408323083427 $455 -33.651083566857181 $246 $462 forward 7 unknown #
point $-1 -45.430408323083427 -27.181115178748257 5.8070216589040591 #
point $-1 -45.430408323083427 -27.181115178748257 0.69569453694143135 #
edge $-1 $463 1 $463 0 $251 $-1 forward 7 unknown #
vertex $-1 $252 $464 #
ellipse-curve $-1 -39.540745944970304 -23.654914079234846 2.4089186366195232 0 -0.68199836817093118 0.7313536940579346 1 0 0 1 I I #
point $-1 -38.540745944970304 -24.440501603519756 3.2513580979227452 #
loop $-1 $-1 $375 $255 #
plane-surface $-1 52.182988982818081 0 0 -1 0 0 0 0 1 forward_v I I I I #
coedge $-1 $259 $258 $381 $465 reversed $98 $-1 #
coedge $-1 $466 $467 $259 $376 forward $372 $-1 #
edge $-1 $378 -9.7022732278261241 $468 -2.2076407470024151 $375 $469 forward 7 unknown #
coedge $-1 $265 $260 $467 $470 reversed $157 $-1 #
vertex $-1 $261 $471 #
straight-curve $-1 23.146663302352476 -27.181115178748257 0.69569453694143102 1 0 0 I I #
coedge $-1 $472 $262 $265 $385 forward $256 $-1 #
coedge $-1 $262 $472 $374 $465 forward $256 $-1 #
vertex $-1 $263 $473 #
straight-curve $-1 40.403664226591829 -49.179270921937743 5.8070216589040626 0 -1 0 I I #
straight-curve $-1 40.403664226591829 -27.181115178748257 0.69569453694143135 0 0.7313536940579346 0.68199836817093118 I I #
edge $-1 $266 40.403664226591829 $474 52.182988982818081 $265 $475 forward 7 unknown #
point $-1 40.403664226591829 -27.181115178748257 5.8070216589040591 #
point $-1 40.403664226591829 -27.181115178748257 0.69569453694143135 #
edge $-1 $476 1 $476 0 $269 $-1 forward 7 unknown #
vertex $-1 $270 $477 #
ellipse-curve $-1 46.293326604704951 -23.654914079234846 2.4089186366195232 0 -0.68199836817093118 0.7313536940579346 1 0 0 1 I I #
point $-1 47.293326604704951 -24.440501603519756 3.2513580979227452 #
plane-surface $-1 0 0 5.8070216589040591 0 0 1 1 0 0 forward_v I I I I #
coedge $-1 $403 $402 $395 $478 forward $274 $-1 #
coedge $-1 $395 $276 $278 $399 reversed $172 $-1 #
coedge $-1 $276 $394 $393 $478 reversed $172 $-1 #
coedge $-1 $284 $279 $276 $397 forward $285 $-1 #
edge $-1 $400 -3.2821073094047932 $479 3.8938540973407711 $396 $480 forward 7 unknown #
coedge $-1 $278 $277 $403 $481 reversed $107 $-1 #
edge $-1 $482 -54.362230357496522 $400 -45.376953133964022 $394 $483 forward 7 unknown #
vertex $-1 $280 $484 #
straight-curve $-1 -19.212850242122304 20.005153772002696 5.8070216589040591 1 0 0 I I #
coedge $-1 $393 $281 $284 $407 reversed $274 $-1 #
coedge $-1 $281 $393 $398 $481 forward $274 $-1 #
vertex $-1 $282 $485 #
straight-curve $-1 -45.430408323083427 27.181115178748257 58.232964775245961 0 0 1 I I #
straight-curve $-1 -45.430408323083427 -16.234492078012757 33.115554105511748 0 0.79863550430605224 -0.6018150307709319 I I #
edge $-1 $479 31.420992645405789 $286 45.430408323083427 $402 $486 forward 7 unknown #
point $-1 -45.430408323083427 27.181115178748257 5.8070216589040591 #
point $-1 -45.430408323083427 20.005153772002693 5.8070216589040591 #
edge $-1 $487 1 $487 0 $289 $-1 forward 7 unknown #
vertex $-1 $290 $488 #
ellipse-curve $-1 -42.628525187547893 21.421810381994913 0.22183987753376605 0 0.6018150307709319 0.79863550430605224 1 0 0 1 I I #
point $-1 -41.628525187547893 23.593134475375486 3.1032842145212873 #
edge $-1 $489 1 $489 0 $293 $-1 forward 7 unknown #
vertex $-1 $294 $490 #
ellipse-curve $-1 -38.425700484244601 21.421810381994913 0.22183987753376605 0 0.6018150307709319 0.79863550430605224 1 0 0 1 I I #
point $-1 -37.425700484244601 23.593134475375486 3.1032842145212873 #
edge $-1 $491 1 $491 0 $297 $-1 forward 7 unknown #
vertex $-1 $298 $492 #
ellipse-curve $-1 -34.222875780941315 21.421810381994913 0.22183987753376605 0 0.6018150307709319 0.79863550430605224 1 0 0 1 I I #
point $-1 -33.222875780941315 23.593134475375486 3.1032842145212873 #
plane-surface $-1 52.182988982818081 0 0 -1 0 0 0 0 1 forward_v I I I I #
coedge $-1 $306 $304 $308 $427 reversed $201 $-1 #
edge $-1 $319 -5.8070216589040591 $429 5.8070216589040591 $318 $493 forward 7 unknown #
vertex $-1 $427 $494 #
straight-curve $-1 -52.182988982818081 -27.181115178748257 0 0 0 -1 I I #
edge $-1 $425 -27.181115178748257 $429 27.181115178748257 $423 $495 forward 7 unknown #
straight-curve $-1 0 -27.181115178748257 -5.8070216589040591 -1 0 0 I I #
vertex $-1 $311 $496 #
straight-curve $-1 0 27.181115178748257 -5.8070216589040591 1 0 0 I I #
point $-1 52.182988982818081 27.181115178748257 -5.8070216589040591 #
point $-1 52.182988982818081 -27.181115178748257 -5.8070216589040591 #
straight-curve $-1 -52.182988982818081 0 5.8070216589040591 0 -1 0 I I #
point $-1 -52.182988982818081 27.181115178748257 5.8070216589040591 #
point $-1 -52.182988982818081 -27.181115178748257 5.8070216589040591 #
straight-curve $-1 52.182988982818081 -27.181115178748257 0 0 0 -1 I I #
straight-curve $-1 52.182988982818081 27.181115178748257 0 0 0 -1 I I #
plane-surface $-1 0 27.181115178748257 0 0 -1 0 0 0 -1 forward_v I I I I #
coedge $-1 $332 $331 $497 $498 forward $134 $-1 #
edge $-1 $335 45.430408323083419 $499 52.182988982818081 $334 $500 forward 7 unknown #
coedge $-1 $340 $339 $332 $442 reversed $341 $-1 #
edge $-1 $501 -52.182988982818081 $443 -45.430408323083419 $441 $502 forward 7 unknown #
vertex $-1 $347 $503 #
straight-curve $-1 -45.430408323083419 0 -5.8070216589040591 0 -1 0 I I #
point $-1 -45.430408323083419 -27.181115178748257 -5.8070216589040591 #
coedge $-1 $497 $337 $340 $449 forward $329 $-1 #
coedge $-1 $337 $497 $344 $451 reversed $329 $-1 #
straight-curve $-1 -52.182988982818081 0 -2.363144310083019 0 1 0 I I #
edge $-1 $342 2.363144310083019 $501 5.8070216589040591 $340 $504 forward 7 unknown #
point $-1 -52.182988982818081 27.181115178748257 -2.363144310083019 #
edge $-1 $345 2.363144310083019 $499 5.8070216589040591 $447 $505 forward 7 unknown #
point $-1 -52.182988982818081 -27.181115178748257 -2.363144310083019 #
straight-curve $-1 -45.430408323083419 27.181115178748257 -2.0425414922467695 0 0 -1 I I #
edge $-1 $455 21.998155743189486 $458 27.479382893646488 $351 $506 forward 7 unknown #
vertex $-1 $355 $507 #
straight-curve $-1 -33.651083566857181 -27.181115178748257 38.512069028039221 0 0 1 I I #
edge $-1 $458 13.880710594372029 $362 25.660035350598275 $361 $508 forward 7 unknown #
vertex $-1 $457 $509 #
straight-curve $-1 -33.651083566857181 -27.181115178748257 0.69569453694143135 0 -0.7313536940579346 -0.68199836817093118 I I #
point $-1 -33.651083566857181 -27.181115178748257 0.69569453694143135 #
point $-1 -45.430408323083427 -21.699888028291255 5.8070216589040591 #
straight-curve $-1 0 -27.181115178748257 5.8070216589040591 1 0 0 I I #
vertex $-1 $368 $510 #
point $-1 -38.540745944970304 -23.654914079234846 2.4089186366195232 #
edge $-1 $468 -29.036325680465598 $382 -17.257000924239353 $381 $511 forward 7 unknown #
coedge $-1 $467 $375 $472 $512 reversed $372 $-1 #
coedge $-1 $375 $466 $377 $470 forward $372 $-1 #
vertex $-1 $376 $513 #
straight-curve $-1 52.182988982818081 -20.085321812818218 7.31262904586736 0 0.7313536940579346 0.68199836817093118 I I #
edge $-1 $474 -5.8070216589040591 $378 -0.69569453694143135 $467 $514 forward 7 unknown #
point $-1 52.182988982818074 -27.181115178748257 0.69569453694143135 #
coedge $-1 $381 $380 $466 $512 forward $256 $-1 #
point $-1 40.403664226591829 -21.699888028291255 5.8070216589040591 #
vertex $-1 $512 $515 #
straight-curve $-1 0 -27.181115178748257 5.8070216589040591 1 0 0 I I #
vertex $-1 $388 $516 #
point $-1 47.293326604704951 -23.654914079234846 2.4089186366195232 #
edge $-1 $479 52.425943116341898 $482 57.833418005107468 $393 $517 forward 7 unknown #
vertex $-1 $407 $518 #
straight-curve $-1 -31.420992645405789 23.287261081407486 5.8070216589040626 0 1 0 I I #
edge $-1 $482 12.208142403283485 $404 26.217558080961123 $403 $519 forward 7 unknown #
vertex $-1 $481 $520 #
straight-curve $-1 -31.420992645405789 -16.234492078012757 33.115554105511748 0 -0.79863550430605224 0.6018150307709319 I I #
point $-1 -31.420992645405789 20.005153772002693 5.8070216589040591 #
point $-1 -45.430408323083427 27.181115178748257 0.39954677013849249 #
straight-curve $-1 0 27.181115178748257 5.8070216589040591 -1 0 0 I I #
vertex $-1 $410 $521 #
point $-1 -41.628525187547893 21.421810381994913 0.22183987753376605 #
vertex $-1 $414 $522 #
point $-1 -37.425700484244601 21.421810381994913 0.22183987753376605 #
vertex $-1 $418 $523 #
point $-1 -33.222875780941315 21.421810381994913 0.22183987753376605 #
straight-curve $-1 -52.182988982818081 27.181115178748257 0 0 0 -1 I I #
point $-1 -52.182988982818081 -27.181115178748257 -5.8070216589040591 #
straight-curve $-1 -52.182988982818081 0 -5.8070216589040591 0 1 0 I I #
point $-1 -52.182988982818081 27.181115178748257 -5.8070216589040591 #
coedge $-1 $447 $446 $439 $498 reversed $329 $-1 #
edge $-1 $499 -27.181115178748257 $501 27.181115178748257 $497 $524 forward 7 unknown #
vertex $-1 $498 $525 #
straight-curve $-1 0 -27.181115178748257 -5.8070216589040591 -1 0 0 I I #
vertex $-1 $442 $526 #
straight-curve $-1 0 27.181115178748257 -5.8070216589040591 1 0 0 I I #
point $-1 -45.430408323083419 27.181115178748257 -5.8070216589040591 #
straight-curve $-1 -52.182988982818081 27.181115178748257 0 0 0 -1 I I #
straight-curve $-1 -52.182988982818081 -27.181115178748257 0 0 0 -1 I I #
straight-curve $-1 -33.651083566857181 -49.179270921937743 5.8070216589040626 0 1 0 I I #
point $-1 -33.651083566857181 -27.181115178748257 5.8070216589040591 #
straight-curve $-1 -19.770372972485152 -21.699888028291252 5.8070216589040591 -1 0 0 I I #
point $-1 -33.651083566857181 -21.699888028291255 5.8070216589040591 #
point $-1 -39.540745944970304 -22.972915711063916 1.6775649425615884 #
straight-curve $-1 23.146663302352476 -21.699888028291252 5.8070216589040591 -1 0 0 I I #
edge $-1 $474 -27.181115178748257 $468 -21.699888028291255 $466 $527 forward 7 unknown #
point $-1 52.182988982818074 -21.699888028291255 5.8070216589040591 #
straight-curve $-1 52.182988982818081 -27.181115178748257 0 0 0 -1 I I #
point $-1 52.182988982818081 -27.181115178748257 5.8070216589040591 #
point $-1 46.293326604704951 -22.972915711063916 1.6775649425615884 #
straight-curve $-1 -31.420992645405789 27.181115178748257 58.232964775245961 0 0 -1 I I #
point $-1 -31.420992645405789 27.181115178748257 5.8070216589040591 #
straight-curve $-1 -19.212850242122304 27.181115178748257 0.39954677013849249 -1 0 0 I I #
point $-1 -31.420992645405789 27.181115178748257 0.39954677013849249 #
point $-1 -42.628525187547893 20.819995351223984 -0.57679562677228646 #
point $-1 -38.425700484244601 20.819995351223984 -0.57679562677228646 #
point $-1 -34.222875780941315 20.819995351223984 -0.57679562677228646 #
straight-curve $-1 -52.182988982818081 0 -5.8070216589040591 0 1 0 I I #
point $-1 -52.182988982818081 -27.181115178748257 -5.8070216589040591 #
point $-1 -52.182988982818081 27.181115178748257 -5.8070216589040591 #
straight-curve $-1 52.182988982818081 0 5.8070216589040591 0 1 0 I I #
End-of-ACIS-data 