500 0 10 0           
7 Unknown 11 ACIS 5.0 NT 24 Thu Mar 25 18:23:47 1999 
-1 9.9999999999999995e-007 1e-010 
body $-1 $10 $-1 $11 #
body $-1 $12 $-1 $13 #
body $-1 $14 $-1 $15 #
body $-1 $16 $-1 $17 #
body $-1 $18 $-1 $19 #
body $-1 $20 $-1 $21 #
body $-1 $22 $-1 $23 #
body $-1 $24 $-1 $25 #
body $-1 $26 $-1 $27 #
body $-1 $28 $-1 $29 #
lump $-1 $-1 $30 $0 #
transform $-1 1 0 0 0 1 0 0 0 1 46.644489883114105 29.810792850618679 11.730624772990881 1 rotate no_reflect no_shear #
lump $-1 $-1 $31 $1 #
transform $-1 1 0 0 0 1 0 0 0 1 46.644489883114105 29.810792850618679 11.730624772990881 1 rotate no_reflect no_shear #
lump $-1 $-1 $32 $2 #
transform $-1 1 0 0 0 1 0 0 0 1 46.644489883114105 29.810792850618679 11.730624772990881 1 rotate no_reflect no_shear #
lump $-1 $-1 $33 $3 #
transform $-1 1 0 0 0 1 0 0 0 1 46.644489883114105 29.810792850618679 11.730624772990881 1 rotate no_reflect no_shear #
lump $-1 $-1 $34 $4 #
transform $-1 1 0 0 0 1 0 0 0 1 46.644489883114105 29.810792850618679 11.730624772990881 1 rotate no_reflect no_shear #
lump $-1 $-1 $35 $5 #
transform $-1 1 0 0 0 1 0 0 0 1 46.644489883114105 29.810792850618679 11.730624772990881 1 rotate no_reflect no_shear #
lump $-1 $-1 $36 $6 #
transform $-1 1 0 0 0 1 0 0 0 1 46.644489883114105 29.810792850618679 11.730624772990881 1 rotate no_reflect no_shear #
lump $-1 $-1 $37 $7 #
transform $-1 1 0 0 0 1 0 0 0 1 46.644489883114105 29.810792850618679 11.730624772990881 1 rotate no_reflect no_shear #
lump $-1 $-1 $38 $8 #
transform $-1 1 0 0 0 1 0 0 0 1 46.644489883114105 29.810792850618679 11.730624772990881 1 rotate no_reflect no_shear #
lump $-1 $-1 $39 $9 #
transform $-1 1 0 0 0 1 0 0 0 1 46.644489883114105 29.810792850618679 11.730624772990881 1 rotate no_reflect no_shear #
shell $-1 $-1 $-1 $40 $-1 $10 #
shell $-1 $-1 $-1 $41 $-1 $12 #
shell $-1 $-1 $-1 $42 $-1 $14 #
shell $-1 $-1 $-1 $43 $-1 $16 #
shell $-1 $-1 $-1 $44 $-1 $18 #
shell $-1 $-1 $-1 $45 $-1 $20 #
shell $-1 $-1 $-1 $46 $-1 $22 #
shell $-1 $-1 $-1 $47 $-1 $24 #
shell $-1 $-1 $-1 $48 $-1 $26 #
shell $-1 $-1 $-1 $49 $-1 $28 #
face $-1 $50 $51 $30 $-1 $52 forward single #
face $-1 $53 $54 $31 $-1 $55 reversed single #
face $-1 $56 $57 $32 $-1 $58 forward single #
face $-1 $59 $60 $33 $-1 $61 forward single #
face $-1 $62 $63 $34 $-1 $64 reversed single #
face $-1 $65 $66 $35 $-1 $67 forward single #
face $-1 $68 $69 $36 $-1 $70 forward single #
face $-1 $71 $72 $37 $-1 $73 reversed single #
face $-1 $74 $75 $38 $-1 $76 forward single #
face $-1 $77 $78 $39 $-1 $79 forward single #
face $-1 $80 $81 $30 $-1 $82 reversed single #
loop $-1 $-1 $83 $40 #
plane-surface $-1 0 0 11.730624772990881 0 0 1 1 0 0 forward_v I I I I #
face $-1 $84 $85 $31 $-1 $86 reversed single #
loop $-1 $-1 $87 $41 #
plane-surface $-1 1.0805133201583299 -111.4031737244223 47.86893579269676 -1 0 0 0 -0.87461971476443456 0.48480960649040278 forward_v I I I I #
face $-1 $88 $89 $32 $-1 $90 forward single #
loop $-1 $91 $92 $42 #
cone-surface $-1 -12.030718782846066 -24.028978260732728 5.3775203988479578 0 0.87461971476443456 -0.48480960649040278 2 0 0 1 I I 0 1 2 forward I I I I #
face $-1 $93 $94 $33 $-1 $95 forward single #
loop $-1 $96 $97 $43 #
cone-surface $-1 -4.1639795210434301 -24.028978260732728 5.3775203988479578 0 0.87461971476443456 -0.48480960649040278 2 0 0 1 I I 0 1 2 forward I I I I #
face $-1 $98 $99 $34 $-1 $100 reversed single #
loop $-1 $-1 $101 $44 #
plane-surface $-1 -35.417327577772369 73.810896031247907 102.27637104312358 -1 0 0 0 0.82903758062907751 0.55919289150049634 forward_v I I I I #
face $-1 $102 $103 $35 $-1 $104 forward single #
loop $-1 $105 $106 $45 #
cone-surface $-1 -43.436729224445038 24.498622026265046 5.1363683054833018 0 -0.82903758062907751 -0.55919289150049634 1 0 0 1 I I 0 1 1 forward I I I I #
face $-1 $107 $108 $36 $-1 $109 forward single #
loop $-1 $110 $111 $46 #
cone-surface $-1 -38.625088236441435 24.498622026265046 5.1363683054833018 0 -0.82903758062907751 -0.55919289150049634 1 0 0 1 I I 0 1 1 forward I I I I #
face $-1 $112 $113 $37 $-1 $114 reversed single #
loop $-1 $-1 $115 $47 #
plane-surface $-1 41.030908730443244 -3.5291740535008955 50.109836702515125 0 0.82903758062907751 0.55919289150049634 1 0 0 forward_v I I I I #
face $-1 $116 $117 $38 $-1 $118 forward single #
loop $-1 $119 $120 $48 #
cone-surface $-1 38.625088236441442 24.498622026265046 5.1363683054833018 0 -0.82903758062907751 -0.55919289150049634 1 0 0 1 I I 0 1 1 forward I I I I #
face $-1 $121 $122 $39 $-1 $123 forward single #
loop $-1 $124 $125 $49 #
cone-surface $-1 43.436729224445045 24.498622026265046 5.1363683054833018 0 -0.82903758062907751 -0.55919289150049634 1 0 0 1 I I 0 1 1 forward I I I I #
face $-1 $126 $127 $30 $-1 $128 reversed single #
loop $-1 $-1 $129 $50 #
plane-surface $-1 0 0 -11.730624772990881 0 0 1 1 0 0 forward_v I I I I #
coedge $-1 $130 $131 $132 $133 forward $51 $-1 #
face $-1 $134 $135 $31 $-1 $136 reversed single #
loop $-1 $-1 $137 $53 #
plane-surface $-1 -8.0973491519447478 -29.810792850618682 2.6415422223405187 0 -0.87461971476443456 0.48480960649040278 1 0 0 forward_v I I I I #
coedge $-1 $138 $139 $140 $141 reversed $54 $-1 #
face $-1 $-1 $142 $32 $-1 $143 forward single #
loop $-1 $144 $145 $56 #
cone-surface $-1 -12.030718782846066 -19.891624226258052 3.0841476935398155 0 0.87461971476443456 -0.48480960649040278 1 0 0 1 I I -0.70710678118654735 0.70710678118654768 1 forward I I I I #
loop $-1 $-1 $146 $42 #
coedge $-1 $92 $92 $147 $148 reversed $57 $-1 #
face $-1 $-1 $149 $33 $-1 $150 forward single #
loop $-1 $151 $152 $59 #
cone-surface $-1 -4.1639795210434301 -19.891624226258052 3.0841476935398155 0 0.87461971476443456 -0.48480960649040278 1 0 0 1 I I -0.70710678118654735 0.70710678118654768 1 forward I I I I #
loop $-1 $-1 $153 $43 #
coedge $-1 $97 $97 $154 $155 reversed $60 $-1 #
face $-1 $156 $157 $34 $-1 $158 reversed single #
loop $-1 $-1 $159 $62 #
plane-surface $-1 -41.030908730443237 -3.5291740535008955 50.109836702515125 0 0.82903758062907751 0.55919289150049634 1 0 0 forward_v I I I I #
coedge $-1 $160 $161 $162 $163 reversed $63 $-1 #
face $-1 $-1 $164 $35 $-1 $165 forward single #
loop $-1 $166 $167 $65 #
cone-surface $-1 -43.436729224445038 22.498363608705798 3.7871770089748633 0 -0.82903758062907751 -0.55919289150049634 0.5 0 0 1 I I -0.70710678118654746 0.70710678118654746 0.5 forward I I I I #
loop $-1 $-1 $168 $45 #
coedge $-1 $106 $106 $169 $170 reversed $66 $-1 #
face $-1 $-1 $171 $36 $-1 $172 forward single #
loop $-1 $173 $174 $68 #
cone-surface $-1 -38.625088236441435 22.498363608705798 3.7871770089748633 0 -0.82903758062907751 -0.55919289150049634 0.5 0 0 1 I I -0.70710678118654746 0.70710678118654746 0.5 forward I I I I #
loop $-1 $-1 $175 $46 #
coedge $-1 $111 $111 $176 $177 reversed $69 $-1 #
face $-1 $178 $179 $37 $-1 $180 forward single #
loop $-1 $-1 $181 $71 #
plane-surface $-1 35.417327577772376 73.810896031247907 102.27637104312358 1 0 0 0 -0.82903758062907751 -0.55919289150049634 forward_v I I I I #
coedge $-1 $182 $183 $184 $185 reversed $72 $-1 #
face $-1 $-1 $186 $38 $-1 $187 forward single #
loop $-1 $188 $189 $74 #
cone-surface $-1 38.625088236441442 22.498363608705798 3.7871770089748633 0 -0.82903758062907751 -0.55919289150049634 0.5 0 0 1 I I -0.70710678118654746 0.70710678118654746 0.5 forward I I I I #
loop $-1 $-1 $190 $48 #
coedge $-1 $120 $120 $191 $192 reversed $75 $-1 #
face $-1 $-1 $193 $39 $-1 $194 forward single #
loop $-1 $195 $196 $77 #
cone-surface $-1 43.436729224445045 22.498363608705798 3.7871770089748633 0 -0.82903758062907751 -0.55919289150049634 0.5 0 0 1 I I -0.70710678118654746 0.70710678118654746 0.5 forward I I I I #
loop $-1 $-1 $197 $49 #
coedge $-1 $125 $125 $198 $199 reversed $78 $-1 #
face $-1 $200 $201 $30 $-1 $202 reversed single #
loop $-1 $-1 $203 $80 #
plane-surface $-1 0 -29.810792850618679 0 0 1 0 0 0 1 forward_v I I I I #
coedge $-1 $204 $205 $206 $207 forward $81 $-1 #
coedge $-1 $208 $83 $209 $210 forward $51 $-1 #
coedge $-1 $83 $208 $211 $212 forward $51 $-1 #
coedge $-1 $213 $214 $83 $133 reversed $215 $-1 #
edge $-1 $216 -29.810792850618679 $217 29.810792850618679 $132 $218 forward 7 unknown #
face $-1 $219 $220 $31 $-1 $221 reversed single #
loop $-1 $-1 $222 $84 #
plane-surface $-1 -17.275211624047827 -111.4031737244223 47.86893579269676 1 0 0 0 0.87461971476443456 -0.48480960649040278 forward_v I I I I #
coedge $-1 $223 $224 $225 $226 reversed $85 $-1 #
coedge $-1 $139 $87 $227 $228 reversed $54 $-1 #
coedge $-1 $87 $138 $223 $229 reversed $54 $-1 #
coedge $-1 $225 $230 $87 $141 forward $231 $-1 #
edge $-1 $232 25.890794011592472 $233 30.928954551943889 $140 $234 forward 7 unknown #
loop $-1 $-1 $147 $88 #
plane-surface $-1 -8.0973491519447478 -29.810792850618682 2.6415422223405187 0 -0.87461971476443456 0.48480960649040278 1 0 0 forward_v I I I I #
loop $-1 $-1 $235 $56 #
coedge $-1 $145 $145 $146 $236 reversed $89 $-1 #
coedge $-1 $146 $146 $145 $236 forward $91 $-1 #
coedge $-1 $147 $147 $92 $148 forward $142 $-1 #
edge $-1 $237 8.4376504198121315e-017 $237 6.2831853071796004 $147 $238 forward 7 unknown #
loop $-1 $-1 $154 $93 #
plane-surface $-1 -8.0973491519447478 -29.810792850618682 2.6415422223405187 0 -0.87461971476443456 0.48480960649040278 1 0 0 forward_v I I I I #
loop $-1 $-1 $239 $59 #
coedge $-1 $152 $152 $153 $240 reversed $94 $-1 #
coedge $-1 $153 $153 $152 $240 forward $96 $-1 #
coedge $-1 $154 $154 $97 $155 forward $149 $-1 #
edge $-1 $241 8.4376504198121315e-017 $241 6.2831853071796004 $154 $242 forward 7 unknown #
face $-1 $243 $244 $34 $-1 $245 forward single #
loop $-1 $-1 $162 $98 #
plane-surface $-1 0 29.810792850618679 0 0 -1 0 0 0 -1 forward_v I I I I #
coedge $-1 $246 $247 $248 $249 reversed $99 $-1 #
coedge $-1 $161 $101 $250 $251 reversed $63 $-1 #
coedge $-1 $101 $160 $246 $252 reversed $63 $-1 #
coedge $-1 $248 $253 $101 $163 forward $157 $-1 #
edge $-1 $254 39.407560748570909 $255 50.456883982069698 $162 $256 forward 7 unknown #
loop $-1 $-1 $169 $102 #
plane-surface $-1 -41.030908730443237 -3.5291740535008955 50.109836702515125 0 0.82903758062907751 0.55919289150049634 1 0 0 forward_v I I I I #
loop $-1 $-1 $257 $65 #
coedge $-1 $167 $167 $168 $258 reversed $103 $-1 #
coedge $-1 $168 $168 $167 $258 forward $105 $-1 #
coedge $-1 $169 $169 $106 $170 forward $164 $-1 #
edge $-1 $259 2.500637892973337e-015 $259 6.2831853071796031 $169 $260 forward 7 unknown #
loop $-1 $-1 $176 $107 #
plane-surface $-1 -41.030908730443237 -3.5291740535008955 50.109836702515125 0 0.82903758062907751 0.55919289150049634 1 0 0 forward_v I I I I #
loop $-1 $-1 $261 $68 #
coedge $-1 $174 $174 $175 $262 reversed $108 $-1 #
coedge $-1 $175 $175 $174 $262 forward $110 $-1 #
coedge $-1 $176 $176 $111 $177 forward $171 $-1 #
edge $-1 $263 2.500637892973337e-015 $263 6.2831853071796031 $176 $264 forward 7 unknown #
face $-1 $265 $266 $37 $-1 $267 reversed single #
loop $-1 $-1 $268 $112 #
plane-surface $-1 0 0 11.730624772990881 0 0 1 1 0 0 forward_v I I I I #
coedge $-1 $269 $270 $271 $272 reversed $113 $-1 #
coedge $-1 $273 $115 $274 $275 reversed $72 $-1 #
coedge $-1 $115 $273 $269 $276 forward $72 $-1 #
coedge $-1 $271 $277 $115 $185 forward $266 $-1 #
edge $-1 $278 -26.12903551789249 $279 -14.901873212550754 $184 $280 forward 7 unknown #
loop $-1 $-1 $191 $116 #
plane-surface $-1 41.030908730443244 -3.5291740535008955 50.109836702515125 0 0.82903758062907751 0.55919289150049634 1 0 0 forward_v I I I I #
loop $-1 $-1 $281 $74 #
coedge $-1 $189 $189 $190 $282 reversed $117 $-1 #
coedge $-1 $190 $190 $189 $282 forward $119 $-1 #
coedge $-1 $191 $191 $120 $192 forward $186 $-1 #
edge $-1 $283 2.500637892973337e-015 $283 6.2831853071796031 $191 $284 forward 7 unknown #
loop $-1 $-1 $198 $121 #
plane-surface $-1 41.030908730443244 -3.5291740535008955 50.109836702515125 0 0.82903758062907751 0.55919289150049634 1 0 0 forward_v I I I I #
loop $-1 $-1 $285 $77 #
coedge $-1 $196 $196 $197 $286 reversed $122 $-1 #
coedge $-1 $197 $197 $196 $286 forward $124 $-1 #
coedge $-1 $198 $198 $125 $199 forward $193 $-1 #
edge $-1 $287 2.500637892973337e-015 $287 6.2831853071796031 $198 $288 forward 7 unknown #
face $-1 $289 $290 $30 $-1 $291 reversed single #
loop $-1 $-1 $292 $126 #
plane-surface $-1 -46.644489883114105 0 0 1 0 0 0 0 -1 forward_v I I I I #
coedge $-1 $293 $211 $294 $295 forward $127 $-1 #
coedge $-1 $296 $129 $293 $297 forward $81 $-1 #
coedge $-1 $129 $296 $298 $299 forward $81 $-1 #
coedge $-1 $214 $213 $129 $207 reversed $215 $-1 #
edge $-1 $300 -29.810792850618679 $301 29.810792850618679 $206 $302 forward 7 unknown #
coedge $-1 $131 $130 $303 $304 forward $51 $-1 #
coedge $-1 $305 $306 $130 $210 reversed $290 $-1 #
edge $-1 $217 -46.644489883114105 $307 46.644489883114105 $209 $308 forward 7 unknown #
coedge $-1 $203 $309 $131 $212 reversed $127 $-1 #
edge $-1 $310 -46.644489883114105 $216 46.644489883114105 $211 $311 forward 7 unknown #
coedge $-1 $206 $132 $309 $312 forward $215 $-1 #
coedge $-1 $132 $206 $305 $313 reversed $215 $-1 #
loop $-1 $-1 $213 $289 #
vertex $-1 $133 $314 #
vertex $-1 $133 $315 #
straight-curve $-1 46.644489883114105 0 11.730624772990881 0 1 0 I I #
face $-1 $-1 $231 $31 $-1 $316 forward single #
loop $-1 $-1 $317 $134 #
plane-surface $-1 0 -29.810792850618679 0 0 1 0 0 0 1 forward_v I I I I #
coedge $-1 $318 $319 $320 $321 reversed $135 $-1 #
coedge $-1 $322 $137 $139 $229 forward $85 $-1 #
coedge $-1 $137 $322 $318 $323 forward $85 $-1 #
coedge $-1 $320 $140 $137 $226 forward $231 $-1 #
edge $-1 $233 -5.1291878961307038 $324 13.226537048075453 $225 $325 forward 7 unknown #
coedge $-1 $326 $327 $138 $228 forward $220 $-1 #
edge $-1 $328 -21.292925674007854 $232 -12.203843123357499 $227 $329 forward 7 unknown #
edge $-1 $233 -10.392039416923465 $328 -7.1601182132786909e-015 $139 $330 forward 7 unknown #
coedge $-1 $140 $320 $326 $331 forward $231 $-1 #
loop $-1 $-1 $320 $219 #
vertex $-1 $228 $332 #
vertex $-1 $141 $333 #
straight-curve $-1 1.0805133201583299 -55.701586862211151 11.730624772990879 0 1 0 I I #
coedge $-1 $235 $235 $-1 $334 reversed $144 $-1 #
edge $-1 $335 0 $335 6.2831853071796004 $145 $336 forward 7 unknown #
vertex $-1 $148 $337 #
ellipse-curve $-1 -12.030718782846066 -27.291712580442972 7.1860834976656998 0 -0.87461971476443456 0.48480960649040278 2 0 0 1 I I #
coedge $-1 $239 $239 $-1 $338 reversed $151 $-1 #
edge $-1 $339 0 $339 6.2831853071796004 $152 $340 forward 7 unknown #
vertex $-1 $155 $341 #
ellipse-curve $-1 -4.1639795210434301 -27.291712580442972 7.1860834976656998 0 -0.87461971476443456 0.48480960649040278 2 0 0 1 I I #
face $-1 $-1 $342 $34 $-1 $343 reversed single #
loop $-1 $-1 $250 $156 #
plane-surface $-1 0 0 11.730624772990881 0 0 1 1 0 0 forward_v I I I I #
coedge $-1 $344 $159 $161 $252 forward $99 $-1 #
coedge $-1 $159 $344 $345 $346 reversed $99 $-1 #
coedge $-1 $347 $162 $159 $249 forward $157 $-1 #
edge $-1 $255 14.90187321255075 $348 26.129035517892486 $248 $349 forward 7 unknown #
coedge $-1 $350 $351 $160 $251 forward $244 $-1 #
edge $-1 $352 -14.547517559223124 $254 -7.0946551650052747 $250 $353 forward 7 unknown #
edge $-1 $255 -59.621585701237379 $352 -46.293693827970898 $161 $354 forward 7 unknown #
coedge $-1 $162 $347 $350 $355 reversed $157 $-1 #
vertex $-1 $355 $356 #
vertex $-1 $163 $357 #
straight-curve $-1 -35.417327577772369 29.810792850618679 51.138185521561788 0 0 -1 I I #
coedge $-1 $257 $257 $-1 $358 reversed $166 $-1 #
edge $-1 $359 0 $359 6.2831853071796004 $167 $360 forward 7 unknown #
vertex $-1 $170 $361 #
ellipse-curve $-1 -43.436729224445038 26.084361653509752 6.2059631562414896 0 0.82903758062907751 0.55919289150049634 1 0 0 1 I I #
coedge $-1 $261 $261 $-1 $362 reversed $173 $-1 #
edge $-1 $363 0 $363 6.2831853071796004 $174 $364 forward 7 unknown #
vertex $-1 $177 $365 #
ellipse-curve $-1 -38.625088236441435 26.084361653509752 6.2059631562414896 0 0.82903758062907751 0.55919289150049634 1 0 0 1 I I #
face $-1 $-1 $366 $37 $-1 $367 reversed single #
loop $-1 $-1 $271 $178 #
plane-surface $-1 0 29.810792850618679 0 0 -1 0 0 0 -1 forward_v I I I I #
coedge $-1 $368 $369 $270 $370 forward $179 $-1 #
coedge $-1 $270 $181 $183 $276 reversed $113 $-1 #
coedge $-1 $181 $269 $268 $370 reversed $113 $-1 #
coedge $-1 $371 $184 $181 $272 forward $266 $-1 #
edge $-1 $279 -50.456883982069698 $372 -39.407560748570909 $271 $373 forward 7 unknown #
coedge $-1 $183 $182 $368 $374 reversed $72 $-1 #
coedge $-1 $375 $376 $182 $275 forward $366 $-1 #
edge $-1 $377 24.535480413392403 $278 37.863372286658887 $274 $378 forward 7 unknown #
edge $-1 $379 46.293693827970898 $279 59.621585701237379 $269 $380 forward 7 unknown #
coedge $-1 $184 $371 $375 $381 forward $266 $-1 #
vertex $-1 $275 $382 #
vertex $-1 $185 $383 #
straight-curve $-1 20.515454365221622 29.810792850618682 0.68130153949208605 -1 0 0 I I #
coedge $-1 $281 $281 $-1 $384 reversed $188 $-1 #
edge $-1 $385 0 $385 6.2831853071796004 $189 $386 forward 7 unknown #
vertex $-1 $192 $387 #
ellipse-curve $-1 38.625088236441442 26.084361653509752 6.2059631562414896 0 0.82903758062907751 0.55919289150049634 1 0 0 1 I I #
coedge $-1 $285 $285 $-1 $388 reversed $195 $-1 #
edge $-1 $389 0 $389 6.2831853071796004 $196 $390 forward 7 unknown #
vertex $-1 $199 $391 #
ellipse-curve $-1 43.436729224445045 26.084361653509752 6.2059631562414896 0 0.82903758062907751 0.55919289150049634 1 0 0 1 I I #
face $-1 $-1 $215 $30 $-1 $392 reversed single #
loop $-1 $-1 $305 $200 #
plane-surface $-1 0 29.810792850618679 0 0 -1 0 0 0 -1 forward_v I I I I #
coedge $-1 $393 $303 $306 $394 forward $201 $-1 #
coedge $-1 $309 $203 $204 $297 reversed $127 $-1 #
coedge $-1 $303 $393 $203 $295 reversed $201 $-1 #
edge $-1 $310 -11.730624772990881 $395 11.730624772990881 $294 $396 forward 7 unknown #
coedge $-1 $205 $204 $393 $397 forward $81 $-1 #
edge $-1 $301 -46.644489883114105 $395 46.644489883114105 $293 $398 forward 7 unknown #
coedge $-1 $306 $305 $205 $299 reversed $290 $-1 #
edge $-1 $399 -46.644489883114105 $300 46.644489883114105 $298 $400 forward 7 unknown #
vertex $-1 $207 $401 #
vertex $-1 $312 $402 #
straight-curve $-1 46.644489883114105 0 -11.730624772990881 0 -1 0 I I #
coedge $-1 $292 $294 $208 $304 reversed $201 $-1 #
edge $-1 $307 -29.810792850618679 $310 29.810792850618679 $303 $403 forward 7 unknown #
coedge $-1 $298 $209 $214 $313 forward $290 $-1 #
coedge $-1 $209 $298 $292 $394 reversed $290 $-1 #
vertex $-1 $210 $404 #
straight-curve $-1 0 29.810792850618679 11.730624772990881 -1 0 0 I I #
coedge $-1 $211 $293 $213 $312 reversed $127 $-1 #
vertex $-1 $304 $405 #
straight-curve $-1 0 -29.810792850618679 11.730624772990881 1 0 0 I I #
edge $-1 $216 -11.730624772990881 $301 11.730624772990881 $213 $406 forward 7 unknown #
edge $-1 $217 -11.730624772990881 $300 11.730624772990881 $214 $407 forward 7 unknown #
point $-1 46.644489883114105 -29.810792850618679 11.730624772990881 #
point $-1 46.644489883114105 29.810792850618679 11.730624772990881 #
plane-surface $-1 0 0 11.730624772990881 0 0 1 1 0 0 forward_v I I I I #
coedge $-1 $327 $326 $319 $408 forward $220 $-1 #
coedge $-1 $319 $222 $224 $323 reversed $135 $-1 #
coedge $-1 $222 $318 $317 $408 reversed $135 $-1 #
coedge $-1 $230 $225 $222 $321 forward $231 $-1 #
edge $-1 $324 -30.928954551943889 $409 -25.890794011592472 $320 $410 forward 7 unknown #
coedge $-1 $224 $223 $327 $411 reversed $85 $-1 #
edge $-1 $412 7.1601182132786909e-015 $324 10.392039416923465 $318 $413 forward 7 unknown #
vertex $-1 $226 $414 #
straight-curve $-1 -4.0486745759723739 -24.772632310267266 11.730624772990881 -1 0 0 I I #
coedge $-1 $317 $227 $230 $331 reversed $220 $-1 #
coedge $-1 $227 $317 $322 $411 forward $220 $-1 #
vertex $-1 $228 $415 #
straight-curve $-1 1.0805133201583299 -29.810792850618682 23.93446789634838 0 0 1 I I #
straight-curve $-1 1.0805133201583299 -29.810792850618682 2.6415422223405187 0 -0.48480960649040278 -0.87461971476443456 I I #
edge $-1 $409 -17.275211624047827 $232 1.0805133201583299 $326 $416 forward 7 unknown #
point $-1 1.0805133201583299 -29.810792850618679 11.730624772990881 #
point $-1 1.0805133201583299 -24.772632310267262 11.730624772990881 #
edge $-1 $417 1 $417 0 $235 $-1 forward 7 unknown #
vertex $-1 $236 $418 #
ellipse-curve $-1 -12.030718782846066 -20.766243941022488 3.5689573000302186 0 -0.87461971476443456 0.48480960649040278 2 0 0 1 I I #
point $-1 -10.030718782846066 -27.291712580442969 7.186083497665698 #
edge $-1 $419 1 $419 0 $239 $-1 forward 7 unknown #
vertex $-1 $240 $420 #
ellipse-curve $-1 -4.1639795210434301 -20.766243941022488 3.5689573000302186 0 -0.87461971476443456 0.48480960649040278 2 0 0 1 I I #
point $-1 -2.1639795210434301 -27.291712580442969 7.186083497665698 #
loop $-1 $-1 $345 $243 #
plane-surface $-1 -46.644489883114105 0 0 1 0 0 0 0 -1 forward_v I I I I #
coedge $-1 $247 $246 $351 $421 reversed $99 $-1 #
coedge $-1 $422 $423 $247 $346 forward $342 $-1 #
edge $-1 $348 -37.863372286658894 $424 -24.535480413392403 $345 $425 forward 7 unknown #
coedge $-1 $253 $248 $423 $426 reversed $157 $-1 #
vertex $-1 $249 $427 #
straight-curve $-1 -20.515454365221618 29.810792850618682 0.68130153949208605 -1 0 0 I I #
coedge $-1 $428 $250 $253 $355 forward $244 $-1 #
coedge $-1 $250 $428 $344 $421 forward $244 $-1 #
vertex $-1 $251 $429 #
straight-curve $-1 -35.417327577772369 36.905448015623953 11.730624772990879 0 1 0 I I #
straight-curve $-1 -35.417327577772369 -3.5291740535008955 50.109836702515125 0 -0.55919289150049634 0.82903758062907751 I I #
edge $-1 $254 35.417327577772369 $430 46.644489883114105 $253 $431 forward 7 unknown #
point $-1 -35.417327577772369 29.810792850618679 11.730624772990881 #
point $-1 -35.417327577772369 29.810792850618682 0.6813015394920896 #
edge $-1 $432 1 $432 0 $257 $-1 forward 7 unknown #
vertex $-1 $258 $433 #
ellipse-curve $-1 -43.436729224445038 22.912882399020337 4.0667734547251113 0 0.82903758062907751 0.55919289150049634 1 0 0 1 I I #
point $-1 -42.436729224445038 26.08436165350976 6.2059631562414914 #
edge $-1 $434 1 $434 0 $261 $-1 forward 7 unknown #
vertex $-1 $262 $435 #
ellipse-curve $-1 -38.625088236441435 22.912882399020337 4.0667734547251113 0 0.82903758062907751 0.55919289150049634 1 0 0 1 I I #
point $-1 -37.625088236441435 26.08436165350976 6.2059631562414914 #
loop $-1 $-1 $274 $265 #
plane-surface $-1 46.644489883114105 0 0 -1 0 0 0 0 1 forward_v I I I I #
coedge $-1 $436 $268 $273 $374 forward $179 $-1 #
coedge $-1 $268 $436 $371 $437 forward $179 $-1 #
edge $-1 $372 7.0946551650052747 $379 14.547517559223124 $268 $438 forward 7 unknown #
coedge $-1 $277 $271 $369 $437 reversed $266 $-1 #
vertex $-1 $370 $439 #
straight-curve $-1 35.417327577772376 29.810792850618679 51.138185521561788 0 0 1 I I #
edge $-1 $379 14.901873212550754 $377 26.12903551789249 $368 $440 forward 7 unknown #
coedge $-1 $376 $274 $277 $381 reversed $366 $-1 #
coedge $-1 $274 $375 $436 $441 reversed $366 $-1 #
vertex $-1 $441 $442 #
straight-curve $-1 46.644489883114105 8.6378642196821396 32.071460094481836 0 0.55919289150049634 -0.82903758062907751 I I #
vertex $-1 $374 $443 #
straight-curve $-1 35.417327577772376 -3.5291740535008955 50.109836702515125 0 0.55919289150049634 -0.82903758062907751 I I #
edge $-1 $444 -11.730624772990881 $278 -0.6813015394920896 $375 $445 forward 7 unknown #
point $-1 46.644489883114112 29.810792850618682 0.6813015394920896 #
point $-1 35.417327577772376 29.810792850618682 0.6813015394920896 #
edge $-1 $446 1 $446 0 $281 $-1 forward 7 unknown #
vertex $-1 $282 $447 #
ellipse-curve $-1 38.625088236441442 22.912882399020337 4.0667734547251113 0 0.82903758062907751 0.55919289150049634 1 0 0 1 I I #
point $-1 39.625088236441442 26.08436165350976 6.2059631562414914 #
edge $-1 $448 1 $448 0 $285 $-1 forward 7 unknown #
vertex $-1 $286 $449 #
ellipse-curve $-1 43.436729224445045 22.912882399020337 4.0667734547251113 0 0.82903758062907751 0.55919289150049634 1 0 0 1 I I #
point $-1 44.436729224445045 26.08436165350976 6.2059631562414914 #
plane-surface $-1 46.644489883114105 0 0 -1 0 0 0 0 1 forward_v I I I I #
coedge $-1 $294 $292 $296 $397 reversed $201 $-1 #
edge $-1 $307 -11.730624772990881 $399 11.730624772990881 $306 $450 forward 7 unknown #
vertex $-1 $397 $451 #
straight-curve $-1 -46.644489883114105 -29.810792850618679 0 0 0 -1 I I #
edge $-1 $395 -29.810792850618679 $399 29.810792850618679 $393 $452 forward 7 unknown #
straight-curve $-1 0 -29.810792850618679 -11.730624772990881 -1 0 0 I I #
vertex $-1 $299 $453 #
straight-curve $-1 0 29.810792850618679 -11.730624772990881 1 0 0 I I #
point $-1 46.644489883114105 29.810792850618679 -11.730624772990881 #
point $-1 46.644489883114105 -29.810792850618679 -11.730624772990881 #
straight-curve $-1 -46.644489883114105 0 11.730624772990881 0 -1 0 I I #
point $-1 -46.644489883114105 29.810792850618679 11.730624772990881 #
point $-1 -46.644489883114105 -29.810792850618679 11.730624772990881 #
straight-curve $-1 46.644489883114105 -29.810792850618679 0 0 0 -1 I I #
straight-curve $-1 46.644489883114105 29.810792850618679 0 0 0 -1 I I #
edge $-1 $409 12.203843123357499 $412 21.292925674007854 $317 $454 forward 7 unknown #
vertex $-1 $331 $455 #
straight-curve $-1 -17.275211624047827 -55.701586862211151 11.730624772990879 0 -1 0 I I #
edge $-1 $412 -13.226537048075453 $328 5.1291878961307038 $327 $456 forward 7 unknown #
vertex $-1 $411 $457 #
straight-curve $-1 -17.275211624047827 -29.810792850618682 2.6415422223405187 0 0.48480960649040278 0.87461971476443456 I I #
point $-1 -17.275211624047827 -24.772632310267262 11.730624772990881 #
point $-1 1.0805133201583299 -29.810792850618679 2.6415422223405249 #
straight-curve $-1 0 -29.810792850618679 11.730624772990881 1 0 0 I I #
vertex $-1 $334 $458 #
point $-1 -10.030718782846066 -20.766243941022488 3.5689573000302186 #
vertex $-1 $338 $459 #
point $-1 -2.1639795210434301 -20.766243941022488 3.5689573000302186 #
edge $-1 $424 -26.129035517892486 $352 -14.90187321255075 $351 $460 forward 7 unknown #
coedge $-1 $423 $345 $428 $461 reversed $342 $-1 #
coedge $-1 $345 $422 $347 $426 forward $342 $-1 #
vertex $-1 $346 $462 #
straight-curve $-1 -46.644489883114105 8.6378642196821396 32.071460094481836 0 -0.55919289150049634 0.82903758062907751 I I #
edge $-1 $430 -11.730624772990881 $348 -0.68130153949208561 $347 $463 forward 7 unknown #
point $-1 -46.644489883114105 29.810792850618679 0.68130153949208561 #
coedge $-1 $351 $350 $422 $461 forward $244 $-1 #
point $-1 -35.417327577772369 22.35793045640083 11.730624772990879 #
vertex $-1 $355 $464 #
straight-curve $-1 0 29.810792850618679 11.730624772990881 -1 0 0 I I #
vertex $-1 $358 $465 #
point $-1 -42.436729224445038 22.912882399020337 4.0667734547251113 #
vertex $-1 $362 $466 #
point $-1 -37.625088236441435 22.912882399020337 4.0667734547251113 #
coedge $-1 $369 $368 $376 $441 forward $179 $-1 #
edge $-1 $444 -46.644489883114105 $372 -35.417327577772376 $371 $467 forward 7 unknown #
straight-curve $-1 35.417327577772376 36.905448015623953 11.730624772990879 0 -1 0 I I #
point $-1 35.417327577772376 29.810792850618679 11.730624772990881 #
straight-curve $-1 20.515454365221622 22.357930456400826 11.730624772990879 1 0 0 I I #
edge $-1 $377 22.35793045640083 $444 29.810792850618679 $376 $468 forward 7 unknown #
point $-1 46.644489883114112 22.35793045640083 11.730624772990879 #
point $-1 35.417327577772376 22.35793045640083 11.730624772990879 #
vertex $-1 $441 $469 #
straight-curve $-1 46.644489883114105 29.810792850618679 0 0 0 -1 I I #
vertex $-1 $384 $470 #
point $-1 39.625088236441442 22.912882399020337 4.0667734547251113 #
vertex $-1 $388 $471 #
point $-1 44.436729224445045 22.912882399020337 4.0667734547251113 #
straight-curve $-1 -46.644489883114105 29.810792850618679 0 0 0 -1 I I #
point $-1 -46.644489883114105 -29.810792850618679 -11.730624772990881 #
straight-curve $-1 -46.644489883114105 0 -11.730624772990881 0 1 0 I I #
point $-1 -46.644489883114105 29.810792850618679 -11.730624772990881 #
straight-curve $-1 -17.275211624047827 -29.810792850618682 23.93446789634838 0 0 -1 I I #
point $-1 -17.275211624047827 -29.810792850618679 11.730624772990881 #
straight-curve $-1 -4.0486745759723739 -29.810792850618679 2.6415422223405258 1 0 0 I I #
point $-1 -17.275211624047827 -29.810792850618679 2.6415422223405249 #
point $-1 -12.030718782846066 -19.017004511493617 2.5993380870494125 #
point $-1 -4.1639795210434301 -19.017004511493617 2.5993380870494125 #
straight-curve $-1 -20.515454365221618 22.357930456400826 11.730624772990879 1 0 0 I I #
edge $-1 $430 -29.810792850618679 $424 -22.35793045640083 $422 $472 forward 7 unknown #
point $-1 -46.644489883114105 22.35793045640083 11.730624772990879 #
straight-curve $-1 -46.644489883114105 29.810792850618679 0 0 0 -1 I I #
point $-1 -46.644489883114105 29.810792850618679 11.730624772990881 #
point $-1 -43.436729224445038 22.08384481839126 3.5075805632246153 #
point $-1 -38.625088236441435 22.08384481839126 3.5075805632246153 #
straight-curve $-1 0 29.810792850618679 11.730624772990881 -1 0 0 I I #
straight-curve $-1 46.644489883114105 0 11.730624772990881 0 1 0 I I #
point $-1 46.644489883114105 29.810792850618679 11.730624772990881 #
point $-1 38.625088236441442 22.08384481839126 3.5075805632246153 #
point $-1 43.436729224445045 22.08384481839126 3.5075805632246153 #
straight-curve $-1 -46.644489883114105 0 11.730624772990881 0 -1 0 I I #
End-of-ACIS-data 