500 0 8 0           
7 Unknown 11 ACIS 5.0 NT 24 Fri Mar 26 17:47:53 1999 
-1 9.9999999999999995e-007 1e-010 
body $-1 $8 $-1 $9 #
body $-1 $10 $-1 $11 #
body $-1 $12 $-1 $13 #
body $-1 $14 $-1 $15 #
body $-1 $16 $-1 $17 #
body $-1 $18 $-1 $19 #
body $-1 $20 $-1 $21 #
body $-1 $22 $-1 $23 #
lump $-1 $-1 $24 $0 #
transform $-1 1 0 0 0 1 0 0 0 1 52.300180059205907 35.187022292526379 11.237682756640218 1 rotate no_reflect no_shear #
lump $-1 $-1 $25 $1 #
transform $-1 1 0 0 0 1 0 0 0 1 52.300180059205907 35.187022292526379 11.237682756640218 1 rotate no_reflect no_shear #
lump $-1 $-1 $26 $2 #
transform $-1 1 0 0 0 1 0 0 0 1 52.300180059205907 35.187022292526379 11.237682756640218 1 rotate no_reflect no_shear #
lump $-1 $-1 $27 $3 #
transform $-1 1 0 0 0 1 0 0 0 1 52.300180059205907 35.187022292526379 11.237682756640218 1 rotate no_reflect no_shear #
lump $-1 $-1 $28 $4 #
transform $-1 1 0 0 0 1 0 0 0 1 52.300180059205907 35.187022292526379 11.237682756640218 1 rotate no_reflect no_shear #
lump $-1 $-1 $29 $5 #
transform $-1 1 0 0 0 1 0 0 0 1 52.300180059205907 35.187022292526379 11.237682756640218 1 rotate no_reflect no_shear #
lump $-1 $-1 $30 $6 #
transform $-1 1 0 0 0 1 0 0 0 1 52.300180059205907 35.187022292526379 11.237682756640218 1 rotate no_reflect no_shear #
lump $-1 $-1 $31 $7 #
transform $-1 1 0 0 0 1 0 0 0 1 52.300180059205907 35.187022292526379 11.237682756640218 1 rotate no_reflect no_shear #
shell $-1 $-1 $-1 $32 $-1 $8 #
shell $-1 $-1 $-1 $33 $-1 $10 #
shell $-1 $-1 $-1 $34 $-1 $12 #
shell $-1 $-1 $-1 $35 $-1 $14 #
shell $-1 $-1 $-1 $36 $-1 $16 #
shell $-1 $-1 $-1 $37 $-1 $18 #
shell $-1 $-1 $-1 $38 $-1 $20 #
shell $-1 $-1 $-1 $39 $-1 $22 #
face $-1 $40 $41 $24 $-1 $42 forward single #
face $-1 $43 $44 $25 $-1 $45 forward single #
face $-1 $46 $47 $26 $-1 $48 reversed single #
face $-1 $49 $50 $27 $-1 $51 forward single #
face $-1 $52 $53 $28 $-1 $54 reversed single #
face $-1 $55 $56 $29 $-1 $57 forward single #
face $-1 $58 $59 $30 $-1 $60 forward single #
face $-1 $61 $62 $31 $-1 $63 forward single #
face $-1 $64 $65 $24 $-1 $66 reversed single #
loop $-1 $-1 $67 $32 #
plane-surface $-1 0 0 11.237682756640218 0 0 1 1 0 0 forward_v I I I I #
face $-1 $68 $69 $25 $-1 $70 reversed single #
loop $-1 $-1 $71 $33 #
plane-surface $-1 -45.741182899324073 0 -2.9745497969583692 0 0 1 1 0 0 forward_v I I I I #
face $-1 $72 $73 $26 $-1 $74 reversed single #
loop $-1 $-1 $75 $34 #
plane-surface $-1 -30.342423485037934 -112.92023952381233 73.206981843804272 1 0 0 0 0.74314483375859142 -0.66913059716165679 forward_v I I I I #
face $-1 $76 $77 $27 $-1 $78 forward single #
loop $-1 $79 $80 $35 #
cone-surface $-1 -21.630701321891728 -30.452153840191169 6.2152155493482306 0 0.74314483375859142 -0.66913059716165679 2 0 0 1 I I 0 1 2 forward I I I I #
face $-1 $81 $82 $28 $-1 $83 reversed single #
loop $-1 $-1 $84 $36 #
plane-surface $-1 -39.182185739442239 41.933880648598716 131.89068010973679 1 0 0 0 -0.6018150307709319 -0.79863550430605224 forward_v I I I I #
face $-1 $85 $86 $29 $-1 $87 forward single #
loop $-1 $88 $89 $37 #
cone-surface $-1 -34.145867502674108 29.465254186171983 5.6373382091306405 0 -0.6018150307709319 -0.79863550430605224 2 0 0 1 I I 0 1 2 forward I I I I #
face $-1 $90 $91 $30 $-1 $92 forward single #
loop $-1 $93 $94 $38 #
cone-surface $-1 -26.591390147521913 29.465254186171983 5.6373382091306405 0 -0.6018150307709319 -0.79863550430605224 2 0 0 1 I I 0 1 2 forward I I I I #
face $-1 $95 $96 $31 $-1 $97 forward single #
loop $-1 $98 $99 $39 #
cone-surface $-1 -19.036912792369719 29.465254186171983 5.6373382091306405 0 -0.6018150307709319 -0.79863550430605224 2 0 0 1 I I 0 1 2 forward I I I I #
face $-1 $100 $101 $24 $-1 $102 reversed single #
loop $-1 $-1 $103 $40 #
plane-surface $-1 0 0 -11.237682756640218 0 0 1 1 0 0 forward_v I I I I #
coedge $-1 $104 $105 $106 $107 forward $41 $-1 #
face $-1 $108 $109 $25 $-1 $110 reversed single #
loop $-1 $-1 $111 $43 #
plane-surface $-1 -45.741182899324073 0 -7.3465012189713157 0 0 1 1 0 0 forward_v I I I I #
coedge $-1 $112 $113 $114 $115 forward $44 $-1 #
face $-1 $116 $117 $26 $-1 $118 reversed single #
loop $-1 $-1 $119 $46 #
plane-surface $-1 -21.630701321891728 -35.187022292526379 3.2156804144470215 0 -0.74314483375859142 0.66913059716165679 1 0 0 forward_v I I I I #
coedge $-1 $120 $121 $122 $123 reversed $47 $-1 #
face $-1 $-1 $124 $27 $-1 $125 forward single #
loop $-1 $126 $127 $49 #
cone-surface $-1 -21.630701321891728 -28.585662140350948 4.534618915991194 0 0.74314483375859142 -0.66913059716165679 1 0 0 1 I I -0.70710678118654746 0.70710678118654746 1 forward I I I I #
loop $-1 $-1 $128 $35 #
coedge $-1 $80 $80 $129 $130 reversed $50 $-1 #
face $-1 $131 $132 $28 $-1 $133 reversed single #
loop $-1 $-1 $134 $52 #
plane-surface $-1 -26.591390147521913 -21.016188294713849 48.353118755974293 0 0.6018150307709319 0.79863550430605224 1 0 0 forward_v I I I I #
coedge $-1 $135 $136 $137 $138 reversed $53 $-1 #
face $-1 $-1 $139 $29 $-1 $140 forward single #
loop $-1 $141 $142 $55 #
cone-surface $-1 -34.145867502674108 26.616353258928036 1.8567190613621847 0 -0.6018150307709319 -0.79863550430605224 1 0 0 1 I I -0.70710678118654746 0.70710678118654746 1 forward I I I I #
loop $-1 $-1 $143 $37 #
coedge $-1 $89 $89 $144 $145 reversed $56 $-1 #
face $-1 $-1 $146 $30 $-1 $147 forward single #
loop $-1 $148 $149 $58 #
cone-surface $-1 -26.591390147521913 26.616353258928036 1.8567190613621847 0 -0.6018150307709319 -0.79863550430605224 1 0 0 1 I I -0.70710678118654746 0.70710678118654746 1 forward I I I I #
loop $-1 $-1 $150 $38 #
coedge $-1 $94 $94 $151 $152 reversed $59 $-1 #
face $-1 $-1 $153 $31 $-1 $154 forward single #
loop $-1 $155 $156 $61 #
cone-surface $-1 -19.036912792369719 26.616353258928036 1.8567190613621847 0 -0.6018150307709319 -0.79863550430605224 1 0 0 1 I I -0.70710678118654746 0.70710678118654746 1 forward I I I I #
loop $-1 $-1 $157 $39 #
coedge $-1 $99 $99 $158 $159 reversed $62 $-1 #
face $-1 $160 $161 $24 $-1 $162 reversed single #
loop $-1 $-1 $163 $64 #
plane-surface $-1 0 -35.187022292526379 0 0 1 0 0 0 1 forward_v I I I I #
coedge $-1 $164 $165 $166 $167 forward $65 $-1 #
coedge $-1 $168 $67 $169 $170 forward $41 $-1 #
coedge $-1 $67 $168 $171 $172 forward $41 $-1 #
coedge $-1 $173 $174 $67 $107 reversed $175 $-1 #
edge $-1 $176 -35.187022292526379 $177 35.187022292526379 $106 $178 forward 7 unknown #
face $-1 $179 $180 $25 $-1 $181 reversed single #
loop $-1 $-1 $182 $68 #
plane-surface $-1 -39.182185739442239 0 -5.1605255079648424 -1 0 0 0 0 1 forward_v I I I I #
coedge $-1 $183 $184 $185 $186 forward $69 $-1 #
coedge $-1 $187 $71 $188 $189 reversed $44 $-1 #
coedge $-1 $71 $187 $190 $191 reversed $44 $-1 #
coedge $-1 $182 $192 $71 $115 reversed $109 $-1 #
edge $-1 $193 -35.187022292526379 $194 35.187022292526379 $114 $195 forward 7 unknown #
face $-1 $196 $197 $26 $-1 $198 forward single #
loop $-1 $-1 $199 $72 #
plane-surface $-1 -12.918979158745522 -112.92023952381233 73.206981843804272 -1 0 0 0 -0.74314483375859142 0.66913059716165679 forward_v I I I I #
coedge $-1 $200 $201 $202 $203 reversed $73 $-1 #
coedge $-1 $121 $75 $204 $205 reversed $47 $-1 #
coedge $-1 $75 $120 $200 $206 reversed $47 $-1 #
coedge $-1 $202 $207 $75 $123 forward $208 $-1 #
edge $-1 $209 25.365808165261917 $210 33.387810507455114 $122 $211 forward 7 unknown #
loop $-1 $-1 $129 $76 #
plane-surface $-1 -21.630701321891728 -35.187022292526379 3.2156804144470215 0 -0.74314483375859142 0.66913059716165679 1 0 0 forward_v I I I I #
loop $-1 $-1 $212 $49 #
coedge $-1 $127 $127 $128 $213 reversed $77 $-1 #
coedge $-1 $128 $128 $127 $213 forward $79 $-1 #
coedge $-1 $129 $129 $80 $130 forward $124 $-1 #
edge $-1 $214 -6.4404484147850266e-017 $214 6.2831853071796004 $129 $215 forward 7 unknown #
face $-1 $216 $217 $28 $-1 $218 reversed single #
loop $-1 $-1 $219 $81 #
plane-surface $-1 -14.000594555601586 41.933880648598716 131.89068010973679 -1 0 0 0 0.6018150307709319 0.79863550430605224 forward_v I I I I #
coedge $-1 $220 $221 $222 $223 reversed $82 $-1 #
coedge $-1 $136 $84 $224 $225 reversed $53 $-1 #
coedge $-1 $84 $135 $220 $226 reversed $53 $-1 #
coedge $-1 $222 $227 $84 $138 forward $228 $-1 #
edge $-1 $229 -14.220081968227021 $230 -7.2707175484642192 $137 $231 forward 7 unknown #
loop $-1 $-1 $144 $85 #
plane-surface $-1 -26.591390147521913 -21.016188294713849 48.353118755974293 0 0.6018150307709319 0.79863550430605224 1 0 0 forward_v I I I I #
loop $-1 $-1 $232 $55 #
coedge $-1 $142 $142 $143 $233 reversed $86 $-1 #
coedge $-1 $143 $143 $142 $233 forward $88 $-1 #
coedge $-1 $144 $144 $89 $145 forward $139 $-1 #
edge $-1 $234 -2.3431402836809323e-015 $234 6.2831853071795978 $144 $235 forward 7 unknown #
loop $-1 $-1 $151 $90 #
plane-surface $-1 -26.591390147521913 -21.016188294713849 48.353118755974293 0 0.6018150307709319 0.79863550430605224 1 0 0 forward_v I I I I #
loop $-1 $-1 $236 $58 #
coedge $-1 $149 $149 $150 $237 reversed $91 $-1 #
coedge $-1 $150 $150 $149 $237 forward $93 $-1 #
coedge $-1 $151 $151 $94 $152 forward $146 $-1 #
edge $-1 $238 -2.3431402836809323e-015 $238 6.2831853071795978 $151 $239 forward 7 unknown #
loop $-1 $-1 $158 $95 #
plane-surface $-1 -26.591390147521913 -21.016188294713849 48.353118755974293 0 0.6018150307709319 0.79863550430605224 1 0 0 forward_v I I I I #
loop $-1 $-1 $240 $61 #
coedge $-1 $156 $156 $157 $241 reversed $96 $-1 #
coedge $-1 $157 $157 $156 $241 forward $98 $-1 #
coedge $-1 $158 $158 $99 $159 forward $153 $-1 #
edge $-1 $242 -2.3431402836809323e-015 $242 6.2831853071795978 $158 $243 forward 7 unknown #
face $-1 $244 $245 $24 $-1 $246 reversed single #
loop $-1 $-1 $247 $100 #
plane-surface $-1 -52.300180059205907 0 0 1 0 0 0 0 -1 forward_v I I I I #
coedge $-1 $248 $171 $249 $250 forward $101 $-1 #
coedge $-1 $251 $103 $248 $252 forward $65 $-1 #
coedge $-1 $103 $251 $253 $254 forward $65 $-1 #
coedge $-1 $174 $173 $103 $167 reversed $175 $-1 #
edge $-1 $255 -35.187022292526379 $256 35.187022292526379 $166 $257 forward 7 unknown #
coedge $-1 $105 $104 $258 $259 forward $41 $-1 #
coedge $-1 $260 $261 $104 $170 reversed $245 $-1 #
edge $-1 $177 -52.300180059205907 $262 52.300180059205907 $169 $263 forward 7 unknown #
coedge $-1 $163 $264 $105 $172 reversed $101 $-1 #
edge $-1 $265 -52.300180059205907 $176 52.300180059205907 $171 $266 forward 7 unknown #
coedge $-1 $166 $106 $264 $267 forward $175 $-1 #
coedge $-1 $106 $166 $260 $268 reversed $175 $-1 #
loop $-1 $-1 $173 $244 #
vertex $-1 $107 $269 #
vertex $-1 $107 $270 #
straight-curve $-1 52.300180059205907 0 11.237682756640218 0 1 0 I I #
face $-1 $271 $272 $25 $-1 $273 reversed single #
loop $-1 $-1 $274 $108 #
plane-surface $-1 0 -35.187022292526379 0 0 1 0 0 0 1 forward_v I I I I #
coedge $-1 $185 $114 $275 $276 reversed $109 $-1 #
coedge $-1 $277 $111 $274 $278 reversed $69 $-1 #
coedge $-1 $111 $277 $279 $280 reversed $69 $-1 #
coedge $-1 $192 $182 $111 $186 reversed $109 $-1 #
edge $-1 $281 -35.187022292526379 $282 35.187022292526379 $185 $283 forward 7 unknown #
coedge $-1 $113 $112 $284 $285 reversed $44 $-1 #
coedge $-1 $286 $287 $112 $189 forward $288 $-1 #
edge $-1 $289 -29.42958860954387 $194 -16.311594289780203 $188 $290 forward 7 unknown #
coedge $-1 $291 $275 $113 $191 forward $180 $-1 #
edge $-1 $193 16.311594289780203 $292 29.42958860954387 $190 $293 forward 7 unknown #
coedge $-1 $114 $185 $286 $294 reversed $109 $-1 #
vertex $-1 $191 $295 #
vertex $-1 $189 $296 #
straight-curve $-1 -39.182185739442239 0 -2.9745497969583692 0 1 0 I I #
face $-1 $-1 $208 $26 $-1 $297 reversed single #
loop $-1 $-1 $298 $116 #
plane-surface $-1 0 0 11.237682756640218 0 0 1 1 0 0 forward_v I I I I #
coedge $-1 $299 $300 $301 $302 reversed $117 $-1 #
coedge $-1 $303 $119 $121 $206 forward $73 $-1 #
coedge $-1 $119 $303 $299 $304 forward $73 $-1 #
coedge $-1 $301 $122 $119 $203 forward $208 $-1 #
edge $-1 $210 -19.52707282409207 $305 -2.103628497799658 $202 $306 forward 7 unknown #
coedge $-1 $307 $308 $120 $205 forward $197 $-1 #
edge $-1 $309 -28.496140641886921 $209 -21.273097469379785 $204 $310 forward 7 unknown #
edge $-1 $210 0 $309 10.794668788344323 $121 $311 forward 7 unknown #
coedge $-1 $122 $301 $307 $312 reversed $208 $-1 #
loop $-1 $-1 $301 $196 #
vertex $-1 $312 $313 #
vertex $-1 $123 $314 #
straight-curve $-1 -30.342423485037934 -35.187022292526379 36.603490921902136 0 0 -1 I I #
coedge $-1 $212 $212 $-1 $315 reversed $126 $-1 #
edge $-1 $316 0 $316 6.2831853071796004 $127 $317 forward 7 unknown #
vertex $-1 $130 $318 #
ellipse-curve $-1 -21.630701321891728 -31.575500706272813 7.2266815855436208 0 -0.74314483375859142 0.66913059716165679 2 0 0 1 I I #
face $-1 $-1 $228 $28 $-1 $319 forward single #
loop $-1 $-1 $320 $131 #
plane-surface $-1 0 35.187022292526379 0 0 -1 0 0 0 -1 forward_v I I I I #
coedge $-1 $321 $322 $323 $324 reversed $132 $-1 #
coedge $-1 $325 $134 $136 $226 forward $82 $-1 #
coedge $-1 $134 $325 $321 $326 forward $82 $-1 #
coedge $-1 $323 $137 $134 $223 forward $228 $-1 #
edge $-1 $230 -25.886490665681283 $327 -0.70489948184062889 $222 $328 forward 7 unknown #
coedge $-1 $329 $330 $135 $225 forward $217 $-1 #
edge $-1 $331 -59.944379106322572 $229 -54.707657298228177 $224 $332 forward 7 unknown #
edge $-1 $230 61.672497530991841 $331 70.374044585052786 $136 $333 forward 7 unknown #
coedge $-1 $137 $323 $329 $334 forward $228 $-1 #
loop $-1 $-1 $323 $216 #
vertex $-1 $225 $335 #
vertex $-1 $138 $336 #
straight-curve $-1 -39.182185739442239 20.966940324299358 11.237682756640218 0 -1 0 I I #
coedge $-1 $232 $232 $-1 $337 reversed $141 $-1 #
edge $-1 $338 0 $338 6.2831853071796004 $142 $339 forward 7 unknown #
vertex $-1 $145 $340 #
ellipse-curve $-1 -34.145867502674108 31.712340082644978 8.6193218525930178 0 0.6018150307709319 0.79863550430605224 2 0 0 1 I I #
coedge $-1 $236 $236 $-1 $341 reversed $148 $-1 #
edge $-1 $342 0 $342 6.2831853071796004 $149 $343 forward 7 unknown #
vertex $-1 $152 $344 #
ellipse-curve $-1 -26.591390147521913 31.712340082644978 8.6193218525930178 0 0.6018150307709319 0.79863550430605224 2 0 0 1 I I #
coedge $-1 $240 $240 $-1 $345 reversed $155 $-1 #
edge $-1 $346 0 $346 6.2831853071796004 $156 $347 forward 7 unknown #
vertex $-1 $159 $348 #
ellipse-curve $-1 -19.036912792369719 31.712340082644978 8.6193218525930178 0 0.6018150307709319 0.79863550430605224 2 0 0 1 I I #
face $-1 $-1 $175 $24 $-1 $349 reversed single #
loop $-1 $-1 $260 $160 #
plane-surface $-1 0 35.187022292526379 0 0 -1 0 0 0 -1 forward_v I I I I #
coedge $-1 $350 $258 $261 $351 forward $161 $-1 #
coedge $-1 $264 $163 $164 $252 reversed $101 $-1 #
coedge $-1 $258 $350 $163 $250 reversed $161 $-1 #
edge $-1 $265 -11.237682756640218 $352 11.237682756640218 $249 $353 forward 7 unknown #
coedge $-1 $165 $164 $350 $354 forward $65 $-1 #
edge $-1 $256 -52.300180059205907 $352 52.300180059205907 $248 $355 forward 7 unknown #
coedge $-1 $261 $260 $165 $254 reversed $245 $-1 #
edge $-1 $356 -52.300180059205907 $255 52.300180059205907 $253 $357 forward 7 unknown #
vertex $-1 $167 $358 #
vertex $-1 $267 $359 #
straight-curve $-1 52.300180059205907 0 -11.237682756640218 0 -1 0 I I #
coedge $-1 $247 $249 $168 $259 reversed $161 $-1 #
edge $-1 $262 -35.187022292526379 $265 35.187022292526379 $258 $360 forward 7 unknown #
coedge $-1 $253 $169 $174 $268 forward $245 $-1 #
coedge $-1 $169 $253 $247 $351 reversed $245 $-1 #
vertex $-1 $170 $361 #
straight-curve $-1 0 35.187022292526379 11.237682756640218 -1 0 0 I I #
coedge $-1 $171 $248 $173 $267 reversed $101 $-1 #
vertex $-1 $259 $362 #
straight-curve $-1 0 -35.187022292526379 11.237682756640218 1 0 0 I I #
edge $-1 $176 -11.237682756640218 $256 11.237682756640218 $173 $363 forward 7 unknown #
edge $-1 $177 -11.237682756640218 $255 11.237682756640218 $174 $364 forward 7 unknown #
point $-1 52.300180059205907 -35.187022292526379 11.237682756640218 #
point $-1 52.300180059205907 35.187022292526379 11.237682756640218 #
face $-1 $-1 $288 $25 $-1 $365 reversed single #
loop $-1 $-1 $366 $179 #
plane-surface $-1 -52.300180059205907 0 0 1 0 0 0 0 -1 forward_v I I I I #
coedge $-1 $275 $291 $183 $278 forward $180 $-1 #
coedge $-1 $190 $274 $182 $276 forward $180 $-1 #
edge $-1 $282 -4.7662384649888949 $193 -0.39428704297594797 $275 $367 forward 7 unknown #
coedge $-1 $184 $183 $366 $368 reversed $69 $-1 #
edge $-1 $369 -29.42958860954387 $282 -16.311594289780203 $274 $370 forward 7 unknown #
coedge $-1 $287 $286 $184 $280 forward $288 $-1 #
edge $-1 $281 16.311594289780203 $371 29.42958860954387 $279 $372 forward 7 unknown #
vertex $-1 $280 $373 #
vertex $-1 $278 $374 #
straight-curve $-1 -39.182185739442239 0 -7.3465012189713157 0 -1 0 I I #
coedge $-1 $375 $376 $187 $285 forward $272 $-1 #
edge $-1 $292 -35.187022292526379 $289 35.187022292526379 $284 $377 forward 7 unknown #
coedge $-1 $279 $188 $192 $294 forward $288 $-1 #
coedge $-1 $188 $279 $375 $378 reversed $288 $-1 #
loop $-1 $-1 $279 $271 #
vertex $-1 $378 $379 #
straight-curve $-1 -22.870591449662037 35.187022292526379 -2.9745497969583692 1 0 0 I I #
coedge $-1 $274 $190 $376 $380 forward $180 $-1 #
vertex $-1 $380 $381 #
straight-curve $-1 -22.870591449662037 -35.187022292526379 -2.9745497969583692 -1 0 0 I I #
edge $-1 $194 0.39428704297594797 $281 4.7662384649888949 $286 $382 forward 7 unknown #
point $-1 -39.182185739442239 -35.187022292526379 -2.9745497969583692 #
point $-1 -39.182185739442239 35.187022292526379 -2.9745497969583692 #
plane-surface $-1 0 -35.187022292526379 0 0 1 0 0 0 1 forward_v I I I I #
coedge $-1 $308 $307 $300 $383 forward $197 $-1 #
coedge $-1 $300 $199 $201 $304 reversed $117 $-1 #
coedge $-1 $199 $299 $298 $383 reversed $117 $-1 #
coedge $-1 $207 $202 $199 $302 forward $208 $-1 #
edge $-1 $305 -33.387810507455114 $384 -25.365808165261917 $301 $385 forward 7 unknown #
coedge $-1 $201 $200 $308 $386 reversed $73 $-1 #
edge $-1 $387 -10.794668788344323 $305 0 $299 $388 forward 7 unknown #
vertex $-1 $203 $389 #
straight-curve $-1 -10.815350660945864 -35.187022292526379 3.215680414447021 1 0 0 I I #
coedge $-1 $298 $204 $207 $312 forward $197 $-1 #
coedge $-1 $204 $298 $303 $386 forward $197 $-1 #
vertex $-1 $205 $390 #
straight-curve $-1 -30.342423485037934 -56.460119761906164 11.237682756640218 0 -1 0 I I #
straight-curve $-1 -30.342423485037934 -35.187022292526379 3.2156804144470215 0 0.66913059716165679 0.74314483375859142 I I #
edge $-1 $209 -30.342423485037934 $384 -12.918979158745522 $207 $391 forward 7 unknown #
point $-1 -30.342423485037934 -35.187022292526379 11.237682756640218 #
point $-1 -30.342423485037934 -35.187022292526379 3.2156804144470215 #
edge $-1 $392 1 $392 0 $212 $-1 forward 7 unknown #
vertex $-1 $213 $393 #
ellipse-curve $-1 -21.630701321891728 -29.32880697410954 5.2037495131528511 0 -0.74314483375859142 0.66913059716165679 2 0 0 1 I I #
point $-1 -19.630701321891728 -31.575500706272802 7.2266815855436111 #
plane-surface $-1 0 0 11.237682756640218 0 0 1 1 0 0 forward_v I I I I #
coedge $-1 $330 $329 $322 $394 forward $217 $-1 #
coedge $-1 $322 $219 $221 $326 reversed $132 $-1 #
coedge $-1 $219 $321 $320 $394 reversed $132 $-1 #
coedge $-1 $227 $222 $219 $324 forward $228 $-1 #
edge $-1 $327 7.2707175484642192 $395 14.220081968227021 $323 $396 forward 7 unknown #
coedge $-1 $221 $220 $330 $397 reversed $82 $-1 #
edge $-1 $398 -70.374044585052786 $327 -61.672497530991841 $321 $399 forward 7 unknown #
vertex $-1 $223 $400 #
straight-curve $-1 -13.295695073760957 28.237657872763581 11.237682756640218 1 0 0 I I #
coedge $-1 $320 $224 $227 $334 reversed $217 $-1 #
coedge $-1 $224 $320 $325 $397 forward $217 $-1 #
vertex $-1 $225 $401 #
straight-curve $-1 -39.182185739442239 35.187022292526379 65.945340054868396 0 0 1 I I #
straight-curve $-1 -39.182185739442239 -21.016188294713849 48.353118755974293 0 0.79863550430605224 -0.6018150307709319 I I #
edge $-1 $395 14.000594555601586 $229 39.182185739442239 $329 $402 forward 7 unknown #
point $-1 -39.182185739442239 35.187022292526379 11.237682756640218 #
point $-1 -39.182185739442239 28.237657872763577 11.237682756640218 #
edge $-1 $403 1 $403 0 $232 $-1 forward 7 unknown #
vertex $-1 $233 $404 #
ellipse-curve $-1 -34.145867502674108 27.218168289698969 2.6553545656682367 0 0.6018150307709319 0.79863550430605224 2 0 0 1 I I #
point $-1 -32.145867502674108 31.712340082644992 8.6193218525930444 #
edge $-1 $405 1 $405 0 $236 $-1 forward 7 unknown #
vertex $-1 $237 $406 #
ellipse-curve $-1 -26.591390147521913 27.218168289698969 2.6553545656682367 0 0.6018150307709319 0.79863550430605224 2 0 0 1 I I #
point $-1 -24.591390147521913 31.712340082644992 8.6193218525930444 #
edge $-1 $407 1 $407 0 $240 $-1 forward 7 unknown #
vertex $-1 $241 $408 #
ellipse-curve $-1 -19.036912792369719 27.218168289698969 2.6553545656682367 0 0.6018150307709319 0.79863550430605224 2 0 0 1 I I #
point $-1 -17.036912792369719 31.712340082644992 8.6193218525930444 #
plane-surface $-1 52.300180059205907 0 0 -1 0 0 0 0 1 forward_v I I I I #
coedge $-1 $249 $247 $251 $354 reversed $161 $-1 #
edge $-1 $262 -11.237682756640218 $356 11.237682756640218 $261 $409 forward 7 unknown #
vertex $-1 $354 $410 #
straight-curve $-1 -52.300180059205907 -35.187022292526379 0 0 0 -1 I I #
edge $-1 $352 -35.187022292526379 $356 35.187022292526379 $350 $411 forward 7 unknown #
straight-curve $-1 0 -35.187022292526379 -11.237682756640218 -1 0 0 I I #
vertex $-1 $254 $412 #
straight-curve $-1 0 35.187022292526379 -11.237682756640218 1 0 0 I I #
point $-1 52.300180059205907 35.187022292526379 -11.237682756640218 #
point $-1 52.300180059205907 -35.187022292526379 -11.237682756640218 #
straight-curve $-1 -52.300180059205907 0 11.237682756640218 0 -1 0 I I #
point $-1 -52.300180059205907 35.187022292526379 11.237682756640218 #
point $-1 -52.300180059205907 -35.187022292526379 11.237682756640218 #
straight-curve $-1 52.300180059205907 -35.187022292526379 0 0 0 -1 I I #
straight-curve $-1 52.300180059205907 35.187022292526379 0 0 0 -1 I I #
plane-surface $-1 0 35.187022292526379 0 0 -1 0 0 0 -1 forward_v I I I I #
coedge $-1 $376 $375 $277 $368 forward $272 $-1 #
straight-curve $-1 -39.182185739442239 -35.187022292526379 -2.5802627539824212 0 0 1 I I #
edge $-1 $371 -35.187022292526379 $369 35.187022292526379 $366 $413 forward 7 unknown #
vertex $-1 $278 $414 #
straight-curve $-1 -22.870591449662037 -35.187022292526379 -7.3465012189713157 1 0 0 I I #
vertex $-1 $280 $415 #
straight-curve $-1 -22.870591449662037 35.187022292526379 -7.3465012189713157 -1 0 0 I I #
point $-1 -39.182185739442239 35.187022292526379 -7.3465012189713157 #
point $-1 -39.182185739442239 -35.187022292526379 -7.3465012189713157 #
coedge $-1 $366 $284 $287 $378 forward $272 $-1 #
coedge $-1 $284 $366 $291 $380 reversed $272 $-1 #
straight-curve $-1 -52.300180059205907 0 -2.9745497969583692 0 1 0 I I #
edge $-1 $289 2.9745497969583692 $371 7.3465012189713157 $287 $416 forward 7 unknown #
point $-1 -52.300180059205907 35.187022292526379 -2.9745497969583692 #
edge $-1 $292 2.9745497969583692 $369 7.3465012189713157 $376 $417 forward 7 unknown #
point $-1 -52.300180059205907 -35.187022292526379 -2.9745497969583692 #
straight-curve $-1 -39.182185739442239 35.187022292526379 -2.5802627539824212 0 0 -1 I I #
edge $-1 $384 21.273097469379785 $387 28.496140641886921 $298 $418 forward 7 unknown #
vertex $-1 $383 $419 #
straight-curve $-1 -12.918979158745522 -35.187022292526379 36.603490921902136 0 0 1 I I #
edge $-1 $387 2.103628497799658 $309 19.52707282409207 $308 $420 forward 7 unknown #
vertex $-1 $386 $421 #
straight-curve $-1 -12.918979158745522 -35.187022292526379 3.2156804144470215 0 -0.66913059716165679 -0.74314483375859142 I I #
point $-1 -12.918979158745522 -35.187022292526379 3.2156804144470215 #
point $-1 -30.342423485037934 -27.963979120019243 11.237682756640218 #
straight-curve $-1 0 -35.187022292526379 11.237682756640218 1 0 0 I I #
vertex $-1 $315 $422 #
point $-1 -19.630701321891728 -29.32880697410954 5.2037495131528511 #
edge $-1 $395 54.707657298228177 $398 59.944379106322572 $320 $423 forward 7 unknown #
vertex $-1 $334 $424 #
straight-curve $-1 -14.000594555601586 20.966940324299358 11.237682756640218 0 1 0 I I #
edge $-1 $398 0.70489948184062889 $331 25.886490665681283 $330 $425 forward 7 unknown #
vertex $-1 $397 $426 #
straight-curve $-1 -14.000594555601586 -21.016188294713849 48.353118755974293 0 -0.79863550430605224 0.6018150307709319 I I #
point $-1 -14.000594555601586 28.237657872763577 11.237682756640218 #
point $-1 -39.182185739442239 35.187022292526379 6.0009609485458242 #
straight-curve $-1 0 35.187022292526379 11.237682756640218 -1 0 0 I I #
vertex $-1 $337 $427 #
point $-1 -32.145867502674108 27.218168289698969 2.6553545656682367 #
vertex $-1 $341 $428 #
point $-1 -24.591390147521913 27.218168289698969 2.6553545656682367 #
vertex $-1 $345 $429 #
point $-1 -17.036912792369719 27.218168289698969 2.6553545656682367 #
straight-curve $-1 -52.300180059205907 35.187022292526379 0 0 0 -1 I I #
point $-1 -52.300180059205907 -35.187022292526379 -11.237682756640218 #
straight-curve $-1 -52.300180059205907 0 -11.237682756640218 0 1 0 I I #
point $-1 -52.300180059205907 35.187022292526379 -11.237682756640218 #
straight-curve $-1 -52.300180059205907 0 -7.3465012189713157 0 -1 0 I I #
point $-1 -52.300180059205907 -35.187022292526379 -7.3465012189713157 #
point $-1 -52.300180059205907 35.187022292526379 -7.3465012189713157 #
straight-curve $-1 -52.300180059205907 35.187022292526379 0 0 0 -1 I I #
straight-curve $-1 -52.300180059205907 -35.187022292526379 0 0 0 -1 I I #
straight-curve $-1 -12.918979158745522 -56.460119761906164 11.237682756640218 0 1 0 I I #
point $-1 -12.918979158745522 -35.187022292526379 11.237682756640218 #
straight-curve $-1 -10.815350660945864 -27.963979120019243 11.237682756640218 -1 0 0 I I #
point $-1 -12.918979158745522 -27.963979120019243 11.237682756640218 #
point $-1 -21.630701321891728 -27.842517306592356 3.865488318829537 #
straight-curve $-1 -14.000594555601586 35.187022292526379 65.945340054868396 0 0 -1 I I #
point $-1 -14.000594555601586 35.187022292526379 11.237682756640218 #
straight-curve $-1 -13.295695073760957 35.187022292526379 6.0009609485458206 -1 0 0 I I #
point $-1 -14.000594555601586 35.187022292526379 6.0009609485458242 #
point $-1 -34.145867502674108 26.014538228157104 1.0580835570561324 #
point $-1 -26.591390147521913 26.014538228157104 1.0580835570561324 #
point $-1 -19.036912792369719 26.014538228157104 1.0580835570561324 #
End-of-ACIS-data 