500 0 6 0           
7 Unknown 11 ACIS 5.0 NT 24 Fri Mar 26 15:22:03 1999 
-1 9.9999999999999995e-007 1e-010 
body $-1 $6 $-1 $7 #
body $-1 $8 $-1 $9 #
body $-1 $10 $-1 $11 #
body $-1 $12 $-1 $13 #
body $-1 $14 $-1 $15 #
body $-1 $16 $-1 $17 #
lump $-1 $-1 $18 $0 #
transform $-1 1 0 0 0 1 0 0 0 1 78.909878841517383 51.420140172248878 13.822409090402008 1 rotate no_reflect no_shear #
lump $-1 $-1 $19 $1 #
transform $-1 1 0 0 0 1 0 0 0 1 78.909878841517383 51.420140172248878 13.822409090402008 1 rotate no_reflect no_shear #
lump $-1 $-1 $20 $2 #
transform $-1 1 0 0 0 1 0 0 0 1 78.909878841517383 51.420140172248878 13.822409090402008 1 rotate no_reflect no_shear #
lump $-1 $-1 $21 $3 #
transform $-1 1 0 0 0 1 0 0 0 1 78.909878841517383 51.420140172248878 13.822409090402008 1 rotate no_reflect no_shear #
lump $-1 $-1 $22 $4 #
transform $-1 1 0 0 0 1 0 0 0 1 78.909878841517383 51.420140172248878 13.822409090402008 1 rotate no_reflect no_shear #
lump $-1 $-1 $23 $5 #
transform $-1 1 0 0 0 1 0 0 0 1 78.909878841517383 51.420140172248878 13.822409090402008 1 rotate no_reflect no_shear #
shell $-1 $-1 $-1 $24 $-1 $6 #
shell $-1 $-1 $-1 $25 $-1 $8 #
shell $-1 $-1 $-1 $26 $-1 $10 #
shell $-1 $-1 $-1 $27 $-1 $12 #
shell $-1 $-1 $-1 $28 $-1 $14 #
shell $-1 $-1 $-1 $29 $-1 $16 #
face $-1 $30 $31 $18 $-1 $32 reversed single #
face $-1 $33 $34 $19 $-1 $35 forward single #
face $-1 $36 $37 $20 $-1 $38 reversed single #
face $-1 $39 $40 $21 $-1 $41 forward single #
face $-1 $42 $43 $22 $-1 $44 forward single #
face $-1 $45 $46 $23 $-1 $47 forward single #
face $-1 $48 $49 $18 $-1 $50 forward single #
loop $-1 $-1 $51 $24 #
plane-surface $-1 0 -51.420140172248878 0 0 1 0 0 0 1 forward_v I I I I #
face $-1 $52 $53 $19 $-1 $54 reversed single #
loop $-1 $-1 $55 $25 #
plane-surface $-1 0 -51.420140172248878 0 0 1 0 0 0 1 forward_v I I I I #
face $-1 $56 $57 $20 $-1 $58 reversed single #
loop $-1 $-1 $59 $26 #
plane-surface $-1 -41.821007597942781 130.76184207241016 176.83625038692594 -1 0 0 0 0.84804810408105047 0.52991925155115449 forward_v I I I I #
face $-1 $60 $61 $21 $-1 $62 forward single #
loop $-1 $63 $64 $27 #
cone-surface $-1 -71.492104592802463 47.233092562662684 8.819284893450817 0 -0.84804810408105047 -0.52991925155115449 2 0 0 1 I I 0 1 2 forward I I I I #
face $-1 $65 $66 $22 $-1 $67 forward single #
loop $-1 $68 $69 $28 #
cone-surface $-1 -60.365443219730075 47.233092562662684 8.819284893450817 0 -0.84804810408105047 -0.52991925155115449 2 0 0 1 I I 0 1 2 forward I I I I #
face $-1 $70 $71 $23 $-1 $72 forward single #
loop $-1 $73 $74 $29 #
cone-surface $-1 -49.238781846657687 47.233092562662684 8.819284893450817 0 -0.84804810408105047 -0.52991925155115449 2 0 0 1 I I 0 1 2 forward I I I I #
face $-1 $75 $76 $18 $-1 $77 reversed single #
loop $-1 $-1 $78 $30 #
plane-surface $-1 0 0 13.822409090402008 0 0 1 1 0 0 forward_v I I I I #
coedge $-1 $79 $80 $81 $82 reversed $31 $-1 #
face $-1 $83 $84 $19 $-1 $85 reversed single #
loop $-1 $-1 $86 $33 #
plane-surface $-1 0 0 -13.822409090402008 0 0 1 1 0 0 forward_v I I I I #
coedge $-1 $87 $88 $89 $90 forward $34 $-1 #
face $-1 $91 $92 $20 $-1 $93 reversed single #
loop $-1 $-1 $94 $36 #
plane-surface $-1 -60.365443219730082 -3.0769042172182708 93.204522515547595 0 0.84804810408105047 0.52991925155115449 1 0 0 forward_v I I I I #
coedge $-1 $95 $96 $97 $98 reversed $37 $-1 #
face $-1 $-1 $99 $21 $-1 $100 forward single #
loop $-1 $101 $102 $39 #
cone-surface $-1 -71.492104592802463 44.644794984464085 7.2019371170331929 0 -0.84804810408105047 -0.52991925155115449 1 0 0 1 I I -0.70710678118654746 0.70710678118654746 1 forward I I I I #
loop $-1 $-1 $103 $27 #
coedge $-1 $64 $64 $104 $105 reversed $40 $-1 #
face $-1 $-1 $106 $22 $-1 $107 forward single #
loop $-1 $108 $109 $42 #
cone-surface $-1 -60.365443219730075 44.644794984464085 7.2019371170331929 0 -0.84804810408105047 -0.52991925155115449 1 0 0 1 I I -0.70710678118654746 0.70710678118654746 1 forward I I I I #
loop $-1 $-1 $110 $28 #
coedge $-1 $69 $69 $111 $112 reversed $43 $-1 #
face $-1 $-1 $113 $23 $-1 $114 forward single #
loop $-1 $115 $116 $45 #
cone-surface $-1 -49.238781846657687 44.644794984464085 7.2019371170331929 0 -0.84804810408105047 -0.52991925155115449 1 0 0 1 I I -0.70710678118654746 0.70710678118654746 1 forward I I I I #
loop $-1 $-1 $117 $29 #
coedge $-1 $74 $74 $118 $119 reversed $46 $-1 #
face $-1 $120 $121 $18 $-1 $122 reversed single #
loop $-1 $-1 $123 $48 #
plane-surface $-1 0 0 -13.822409090402008 0 0 1 1 0 0 forward_v I I I I #
coedge $-1 $124 $125 $126 $127 forward $49 $-1 #
coedge $-1 $128 $51 $129 $130 reversed $31 $-1 #
coedge $-1 $51 $128 $131 $132 forward $31 $-1 #
coedge $-1 $133 $123 $51 $82 forward $76 $-1 #
edge $-1 $134 -78.909878841517383 $135 78.909878841517383 $51 $136 forward 7 unknown #
face $-1 $137 $138 $19 $-1 $139 reversed single #
loop $-1 $-1 $140 $52 #
plane-surface $-1 -65.089979780697561 -67.980758927706901 0 0 1 0 0 0 1 forward_v I I I I #
coedge $-1 $141 $142 $88 $143 forward $53 $-1 #
coedge $-1 $144 $55 $145 $146 reversed $34 $-1 #
coedge $-1 $55 $144 $86 $143 reversed $34 $-1 #
coedge $-1 $147 $148 $55 $90 reversed $138 $-1 #
edge $-1 $149 -13.822409090402008 $150 13.822409090402008 $89 $151 forward 7 unknown #
face $-1 $152 $153 $20 $-1 $154 forward single #
loop $-1 $-1 $155 $56 #
plane-surface $-1 -78.909878841517383 0 0 1 0 0 0 0 -1 forward_v I I I I #
coedge $-1 $156 $157 $158 $159 reversed $57 $-1 #
coedge $-1 $96 $59 $160 $161 reversed $37 $-1 #
coedge $-1 $59 $95 $156 $162 reversed $37 $-1 #
coedge $-1 $158 $163 $59 $98 forward $164 $-1 #
edge $-1 $165 74.595716103060965 $166 82.427107447230412 $97 $167 forward 7 unknown #
loop $-1 $-1 $104 $60 #
plane-surface $-1 -60.365443219730082 -3.0769042172182708 93.204522515547595 0 0.84804810408105047 0.52991925155115449 1 0 0 forward_v I I I I #
loop $-1 $-1 $168 $39 #
coedge $-1 $102 $102 $103 $169 reversed $61 $-1 #
coedge $-1 $103 $103 $102 $169 forward $63 $-1 #
coedge $-1 $104 $104 $64 $105 forward $99 $-1 #
edge $-1 $170 7.5321802491239463e-016 $170 6.2831853071796013 $104 $171 forward 7 unknown #
loop $-1 $-1 $111 $65 #
plane-surface $-1 -60.365443219730082 -3.0769042172182708 93.204522515547595 0 0.84804810408105047 0.52991925155115449 1 0 0 forward_v I I I I #
loop $-1 $-1 $172 $42 #
coedge $-1 $109 $109 $110 $173 reversed $66 $-1 #
coedge $-1 $110 $110 $109 $173 forward $68 $-1 #
coedge $-1 $111 $111 $69 $112 forward $106 $-1 #
edge $-1 $174 7.5321802491239463e-016 $174 6.2831853071796013 $111 $175 forward 7 unknown #
loop $-1 $-1 $118 $70 #
plane-surface $-1 -60.365443219730082 -3.0769042172182708 93.204522515547595 0 0.84804810408105047 0.52991925155115449 1 0 0 forward_v I I I I #
loop $-1 $-1 $176 $45 #
coedge $-1 $116 $116 $117 $177 reversed $71 $-1 #
coedge $-1 $117 $117 $116 $177 forward $73 $-1 #
coedge $-1 $118 $118 $74 $119 forward $113 $-1 #
edge $-1 $178 7.5321802491239463e-016 $178 6.2831853071796013 $118 $179 forward 7 unknown #
face $-1 $180 $181 $18 $-1 $182 reversed single #
loop $-1 $-1 $183 $75 #
plane-surface $-1 -78.909878841517383 0 0 1 0 0 0 0 -1 forward_v I I I I #
coedge $-1 $81 $184 $185 $186 forward $76 $-1 #
coedge $-1 $187 $78 $188 $189 forward $49 $-1 #
coedge $-1 $78 $187 $128 $190 forward $49 $-1 #
coedge $-1 $129 $191 $78 $127 reversed $192 $-1 #
edge $-1 $193 -51.420140172248878 $194 51.420140172248878 $126 $195 forward 7 unknown #
coedge $-1 $80 $79 $125 $190 reversed $31 $-1 #
coedge $-1 $185 $126 $79 $130 forward $192 $-1 #
edge $-1 $193 -13.822409090402008 $134 13.822409090402008 $129 $196 forward 7 unknown #
coedge $-1 $197 $198 $80 $132 reversed $121 $-1 #
edge $-1 $199 -13.822409090402008 $135 13.822409090402008 $131 $200 forward 7 unknown #
coedge $-1 $184 $81 $198 $201 forward $76 $-1 #
vertex $-1 $130 $202 #
vertex $-1 $201 $203 #
straight-curve $-1 0 -51.420140172248878 -13.822409090402008 -1 0 0 I I #
face $-1 $204 $205 $19 $-1 $206 reversed single #
loop $-1 $-1 $89 $83 #
plane-surface $-1 -67.162940396901192 -59.70044954997789 0 1 0 0 0 0 -1 forward_v I I I I #
coedge $-1 $207 $208 $209 $210 forward $84 $-1 #
coedge $-1 $211 $86 $212 $213 forward $53 $-1 #
coedge $-1 $86 $211 $147 $214 forward $53 $-1 #
edge $-1 $149 -67.162940396901192 $215 -63.017019164493924 $86 $216 forward 7 unknown #
coedge $-1 $88 $87 $217 $218 forward $34 $-1 #
coedge $-1 $219 $220 $87 $146 forward $221 $-1 #
edge $-1 $222 63.017019164493924 $150 67.162940396901192 $145 $223 forward 7 unknown #
coedge $-1 $209 $89 $142 $214 reversed $138 $-1 #
coedge $-1 $89 $209 $219 $224 reversed $138 $-1 #
vertex $-1 $143 $225 #
vertex $-1 $224 $226 #
straight-curve $-1 -67.162940396901192 -51.420140172248878 0 0 0 1 I I #
face $-1 $-1 $164 $20 $-1 $227 reversed single #
loop $-1 $-1 $160 $91 #
plane-surface $-1 0 0 13.822409090402008 0 0 1 1 0 0 forward_v I I I I #
coedge $-1 $228 $229 $157 $230 forward $92 $-1 #
coedge $-1 $231 $94 $96 $162 forward $57 $-1 #
coedge $-1 $94 $231 $155 $230 reversed $57 $-1 #
coedge $-1 $232 $97 $94 $159 forward $164 $-1 #
edge $-1 $166 11.63828598807774 $233 48.727157231652342 $158 $234 forward 7 unknown #
coedge $-1 $235 $236 $95 $161 forward $153 $-1 #
edge $-1 $237 -18.85437713489349 $165 -13.960780863956202 $160 $238 forward 7 unknown #
edge $-1 $166 -102.84028034449774 $237 -93.605672889469488 $96 $239 forward 7 unknown #
coedge $-1 $97 $232 $235 $240 reversed $164 $-1 #
loop $-1 $-1 $158 $152 #
vertex $-1 $240 $241 #
vertex $-1 $98 $242 #
straight-curve $-1 -41.821007597942781 51.420140172248878 88.41812519346297 0 0 -1 I I #
coedge $-1 $168 $168 $-1 $243 reversed $101 $-1 #
edge $-1 $244 0 $244 6.2831853071796004 $102 $245 forward 7 unknown #
vertex $-1 $105 $246 #
ellipse-curve $-1 -71.492104592802463 48.973342036780238 9.90671341831729 0 0.84804810408105047 0.52991925155115449 2 0 0 1 I I #
coedge $-1 $172 $172 $-1 $247 reversed $108 $-1 #
edge $-1 $248 0 $248 6.2831853071796004 $109 $249 forward 7 unknown #
vertex $-1 $112 $250 #
ellipse-curve $-1 -60.365443219730075 48.973342036780238 9.90671341831729 0 0.84804810408105047 0.52991925155115449 2 0 0 1 I I #
coedge $-1 $176 $176 $-1 $251 reversed $115 $-1 #
edge $-1 $252 0 $252 6.2831853071796004 $116 $253 forward 7 unknown #
vertex $-1 $119 $254 #
ellipse-curve $-1 -49.238781846657687 48.973342036780238 9.90671341831729 0 0.84804810408105047 0.52991925155115449 2 0 0 1 I I #
face $-1 $-1 $192 $18 $-1 $255 reversed single #
loop $-1 $-1 $256 $120 #
plane-surface $-1 0 51.420140172248878 0 0 -1 0 0 0 -1 forward_v I I I I #
coedge $-1 $198 $197 $257 $258 forward $121 $-1 #
coedge $-1 $123 $133 $259 $260 forward $76 $-1 #
coedge $-1 $191 $129 $123 $186 reversed $192 $-1 #
edge $-1 $261 -51.420140172248878 $134 51.420140172248878 $185 $262 forward 7 unknown #
coedge $-1 $125 $124 $197 $263 forward $49 $-1 #
coedge $-1 $256 $257 $124 $189 reversed $181 $-1 #
edge $-1 $194 -78.909878841517383 $264 78.909878841517383 $188 $265 forward 7 unknown #
edge $-1 $199 -78.909878841517383 $193 78.909878841517383 $128 $266 forward 7 unknown #
coedge $-1 $126 $185 $256 $267 reversed $192 $-1 #
loop $-1 $-1 $129 $180 #
vertex $-1 $127 $268 #
vertex $-1 $127 $269 #
straight-curve $-1 78.909878841517383 0 13.822409090402008 0 1 0 I I #
straight-curve $-1 78.909878841517383 -51.420140172248878 0 0 0 -1 I I #
coedge $-1 $183 $131 $187 $263 reversed $121 $-1 #
coedge $-1 $131 $183 $133 $201 reversed $121 $-1 #
vertex $-1 $263 $270 #
straight-curve $-1 -78.909878841517383 -51.420140172248878 0 0 0 -1 I I #
edge $-1 $135 -51.420140172248878 $271 51.420140172248878 $198 $272 forward 7 unknown #
point $-1 78.909878841517383 -51.420140172248878 -13.822409090402008 #
point $-1 -78.909878841517383 -51.420140172248878 -13.822409090402008 #
face $-1 $-1 $221 $19 $-1 $273 forward single #
loop $-1 $-1 $274 $137 #
plane-surface $-1 -63.017019164493924 -59.70044954997789 0 -1 0 0 0 0 1 forward_v I I I I #
coedge $-1 $275 $140 $211 $276 reversed $84 $-1 #
coedge $-1 $140 $275 $277 $278 reversed $84 $-1 #
coedge $-1 $148 $147 $140 $210 reversed $138 $-1 #
edge $-1 $279 -13.822409090402008 $280 13.822409090402008 $209 $281 forward 7 unknown #
coedge $-1 $142 $141 $207 $276 forward $53 $-1 #
coedge $-1 $217 $274 $141 $213 reversed $205 $-1 #
edge $-1 $215 -8.2803093777290115 $282 8.2803093777290115 $212 $283 forward 7 unknown #
edge $-1 $280 -8.2803093777290115 $149 8.2803093777290115 $147 $284 forward 7 unknown #
vertex $-1 $213 $285 #
straight-curve $-1 0 -51.420140172248878 -13.822409090402008 1 0 0 I I #
coedge $-1 $286 $212 $144 $218 reversed $205 $-1 #
edge $-1 $222 -13.822409090402008 $215 13.822409090402008 $217 $287 forward 7 unknown #
coedge $-1 $277 $145 $148 $224 forward $221 $-1 #
coedge $-1 $145 $277 $286 $288 forward $221 $-1 #
loop $-1 $-1 $145 $204 #
vertex $-1 $146 $289 #
straight-curve $-1 0 -51.420140172248878 13.822409090402008 -1 0 0 I I #
edge $-1 $150 -8.2803093777290115 $279 8.2803093777290115 $148 $290 forward 7 unknown #
point $-1 -67.162940396901192 -51.420140172248878 -13.822409090402008 #
point $-1 -67.162940396901192 -51.420140172248878 13.822409090402008 #
plane-surface $-1 0 51.420140172248878 0 0 -1 0 0 0 -1 forward_v I I I I #
coedge $-1 $229 $155 $291 $292 reversed $92 $-1 #
coedge $-1 $155 $228 $232 $293 forward $92 $-1 #
edge $-1 $233 -62.504065649011437 $294 -53.269458193983183 $155 $295 forward 7 unknown #
coedge $-1 $157 $156 $236 $296 reversed $57 $-1 #
coedge $-1 $163 $158 $229 $293 reversed $164 $-1 #
vertex $-1 $230 $297 #
straight-curve $-1 -30.182721609865041 51.420140172248878 5.9910177462325649 -1 0 0 I I #
coedge $-1 $291 $160 $163 $240 forward $153 $-1 #
coedge $-1 $160 $291 $231 $296 forward $153 $-1 #
vertex $-1 $161 $298 #
straight-curve $-1 -41.821007597942781 65.380921036205081 13.822409090402004 0 1 0 I I #
straight-curve $-1 -41.821007597942781 -3.0769042172182708 93.204522515547595 0 -0.52991925155115449 0.84804810408105047 I I #
edge $-1 $165 41.821007597942781 $299 78.909878841517383 $163 $300 forward 7 unknown #
point $-1 -41.821007597942781 51.420140172248878 13.822409090402008 #
point $-1 -41.821007597942781 51.420140172248878 5.9910177462325578 #
edge $-1 $301 1 $301 0 $168 $-1 forward 7 unknown #
vertex $-1 $169 $302 #
ellipse-curve $-1 -71.492104592802463 45.492843088545136 7.7318563685843475 0 0.84804810408105047 0.52991925155115449 2 0 0 1 I I #
point $-1 -69.492104592802463 48.973342036780238 9.9067134183172882 #
edge $-1 $303 1 $303 0 $172 $-1 forward 7 unknown #
vertex $-1 $173 $304 #
ellipse-curve $-1 -60.365443219730075 45.492843088545136 7.7318563685843475 0 0.84804810408105047 0.52991925155115449 2 0 0 1 I I #
point $-1 -58.365443219730075 48.973342036780238 9.9067134183172882 #
edge $-1 $305 1 $305 0 $176 $-1 forward 7 unknown #
vertex $-1 $177 $306 #
ellipse-curve $-1 -49.238781846657687 45.492843088545136 7.7318563685843475 0 0.84804810408105047 0.52991925155115449 2 0 0 1 I I #
point $-1 -47.238781846657687 48.973342036780238 9.9067134183172882 #
plane-surface $-1 78.909878841517383 0 0 -1 0 0 0 0 1 forward_v I I I I #
coedge $-1 $259 $188 $191 $267 forward $181 $-1 #
coedge $-1 $188 $259 $183 $258 reversed $181 $-1 #
edge $-1 $264 -13.822409090402008 $271 13.822409090402008 $257 $307 forward 7 unknown #
coedge $-1 $257 $256 $184 $260 reversed $181 $-1 #
edge $-1 $271 -78.909878841517383 $261 78.909878841517383 $259 $308 forward 7 unknown #
vertex $-1 $186 $309 #
straight-curve $-1 78.909878841517383 0 -13.822409090402008 0 -1 0 I I #
edge $-1 $264 -51.420140172248878 $199 51.420140172248878 $197 $310 forward 7 unknown #
vertex $-1 $189 $311 #
straight-curve $-1 0 51.420140172248878 13.822409090402008 -1 0 0 I I #
straight-curve $-1 0 -51.420140172248878 13.822409090402008 1 0 0 I I #
edge $-1 $194 -13.822409090402008 $261 13.822409090402008 $191 $312 forward 7 unknown #
point $-1 78.909878841517383 -51.420140172248878 13.822409090402008 #
point $-1 78.909878841517383 51.420140172248878 13.822409090402008 #
point $-1 -78.909878841517383 -51.420140172248878 13.822409090402008 #
vertex $-1 $260 $313 #
straight-curve $-1 -78.909878841517383 0 -13.822409090402008 0 1 0 I I #
plane-surface $-1 0 0 13.822409090402008 0 0 1 1 0 0 forward_v I I I I #
coedge $-1 $212 $286 $275 $314 forward $205 $-1 #
coedge $-1 $208 $207 $274 $314 reversed $84 $-1 #
edge $-1 $282 -2.0729606162036376 $280 2.0729606162036305 $207 $315 forward 7 unknown #
coedge $-1 $220 $219 $208 $278 forward $221 $-1 #
edge $-1 $279 -2.0729606162036305 $316 2.0729606162036376 $208 $317 forward 7 unknown #
vertex $-1 $224 $318 #
vertex $-1 $214 $319 #
straight-curve $-1 -67.162940396901192 -67.980758927706901 0 0 0 -1 I I #
vertex $-1 $314 $320 #
straight-curve $-1 -63.017019164493924 -59.70044954997789 -13.822409090402008 0 -1 0 I I #
straight-curve $-1 -67.162940396901192 -59.70044954997789 -13.822409090402008 0 1 0 I I #
point $-1 -63.017019164493924 -51.420140172248878 -13.822409090402008 #
coedge $-1 $274 $217 $220 $288 reversed $205 $-1 #
straight-curve $-1 -63.017019164493924 -51.420140172248878 0 0 0 -1 I I #
edge $-1 $316 -8.2803093777290115 $222 8.2803093777290115 $286 $321 forward 7 unknown #
point $-1 -63.017019164493924 -51.420140172248878 13.822409090402008 #
straight-curve $-1 -67.162940396901192 -59.70044954997789 13.822409090402008 0 -1 0 I I #
coedge $-1 $236 $235 $228 $292 forward $153 $-1 #
edge $-1 $299 -51.420140172248878 $294 -46.526543901311591 $228 $322 forward 7 unknown #
edge $-1 $299 -13.822409090402008 $233 -5.9910177462325551 $232 $323 forward 7 unknown #
vertex $-1 $230 $324 #
straight-curve $-1 -78.909878841517383 18.298032484620514 58.997472117234224 0 -0.52991925155115449 0.84804810408105047 I I #
edge $-1 $294 -48.727157231652342 $237 -11.63828598807774 $236 $325 forward 7 unknown #
point $-1 -78.909878841517383 51.420140172248878 5.9910177462325551 #
point $-1 -41.821007597942781 46.526543901311591 13.822409090402004 #
vertex $-1 $240 $326 #
straight-curve $-1 0 51.420140172248878 13.822409090402008 -1 0 0 I I #
vertex $-1 $243 $327 #
point $-1 -69.492104592802463 45.492843088545136 7.7318563685843475 #
vertex $-1 $247 $328 #
point $-1 -58.365443219730075 45.492843088545136 7.7318563685843475 #
vertex $-1 $251 $329 #
point $-1 -47.238781846657687 45.492843088545136 7.7318563685843475 #
straight-curve $-1 -78.909878841517383 51.420140172248878 0 0 0 -1 I I #
straight-curve $-1 0 51.420140172248878 -13.822409090402008 1 0 0 I I #
point $-1 78.909878841517383 51.420140172248878 -13.822409090402008 #
straight-curve $-1 -78.909878841517383 0 13.822409090402008 0 -1 0 I I #
point $-1 -78.909878841517383 51.420140172248878 13.822409090402008 #
straight-curve $-1 78.909878841517383 51.420140172248878 0 0 0 -1 I I #
point $-1 -78.909878841517383 51.420140172248878 -13.822409090402008 #
edge $-1 $316 -13.822409090402008 $282 13.822409090402008 $274 $330 forward 7 unknown #
straight-curve $-1 -65.089979780697561 -67.980758927706901 -13.822409090402008 -1 0 0 I I #
vertex $-1 $288 $331 #
straight-curve $-1 -65.089979780697561 -67.980758927706901 13.822409090402008 1 0 0 I I #
point $-1 -67.162940396901192 -67.980758927706901 13.822409090402008 #
point $-1 -67.162940396901192 -67.980758927706901 -13.822409090402008 #
point $-1 -63.017019164493924 -67.980758927706901 -13.822409090402008 #
straight-curve $-1 -63.017019164493924 -59.70044954997789 13.822409090402008 0 1 0 I I #
straight-curve $-1 -78.909878841517383 0 13.822409090402008 0 -1 0 I I #
straight-curve $-1 -78.909878841517383 51.420140172248878 0 0 0 -1 I I #
point $-1 -78.909878841517383 46.526543901311591 13.822409090402004 #
straight-curve $-1 -30.182721609865041 46.526543901311591 13.822409090402012 1 0 0 I I #
point $-1 -78.909878841517383 51.420140172248878 13.822409090402008 #
point $-1 -71.492104592802463 43.796746880383033 6.6720178654820383 #
point $-1 -60.365443219730075 43.796746880383033 6.6720178654820383 #
point $-1 -49.238781846657687 43.796746880383033 6.6720178654820383 #
straight-curve $-1 -63.017019164493924 -67.980758927706901 0 0 0 -1 I I #
point $-1 -63.017019164493924 -67.980758927706901 13.822409090402008 #
End-of-ACIS-data 