500 0 13 0           
7 Unknown 11 ACIS 5.0 NT 24 Fri Mar 26 03:13:51 1999 
-1 9.9999999999999995e-007 1e-010 
body $-1 $13 $-1 $14 #
body $-1 $15 $-1 $16 #
body $-1 $17 $-1 $18 #
body $-1 $19 $-1 $20 #
body $-1 $21 $-1 $22 #
body $-1 $23 $-1 $24 #
body $-1 $25 $-1 $26 #
body $-1 $27 $-1 $28 #
body $-1 $29 $-1 $30 #
body $-1 $31 $-1 $32 #
body $-1 $33 $-1 $34 #
body $-1 $35 $-1 $36 #
body $-1 $37 $-1 $38 #
lump $-1 $-1 $39 $0 #
transform $-1 1 0 0 0 1 0 0 0 1 71.5134128849147 48.457228418872162 12.9380962551051 1 rotate no_reflect no_shear #
lump $-1 $-1 $40 $1 #
transform $-1 1 0 0 0 1 0 0 0 1 71.5134128849147 48.457228418872162 12.9380962551051 1 rotate no_reflect no_shear #
lump $-1 $-1 $41 $2 #
transform $-1 1 0 0 0 1 0 0 0 1 71.5134128849147 48.457228418872162 12.9380962551051 1 rotate no_reflect no_shear #
lump $-1 $-1 $42 $3 #
transform $-1 1 0 0 0 1 0 0 0 1 71.5134128849147 48.457228418872162 12.9380962551051 1 rotate no_reflect no_shear #
lump $-1 $-1 $43 $4 #
transform $-1 1 0 0 0 1 0 0 0 1 71.5134128849147 48.457228418872162 12.9380962551051 1 rotate no_reflect no_shear #
lump $-1 $-1 $44 $5 #
transform $-1 1 0 0 0 1 0 0 0 1 71.5134128849147 48.457228418872162 12.9380962551051 1 rotate no_reflect no_shear #
lump $-1 $-1 $45 $6 #
transform $-1 1 0 0 0 1 0 0 0 1 71.5134128849147 48.457228418872162 12.9380962551051 1 rotate no_reflect no_shear #
lump $-1 $-1 $46 $7 #
transform $-1 1 0 0 0 1 0 0 0 1 71.5134128849147 48.457228418872162 12.9380962551051 1 rotate no_reflect no_shear #
lump $-1 $-1 $47 $8 #
transform $-1 1 0 0 0 1 0 0 0 1 71.5134128849147 48.457228418872162 12.9380962551051 1 rotate no_reflect no_shear #
lump $-1 $-1 $48 $9 #
transform $-1 1 0 0 0 1 0 0 0 1 71.5134128849147 48.457228418872162 12.9380962551051 1 rotate no_reflect no_shear #
lump $-1 $-1 $49 $10 #
transform $-1 1 0 0 0 1 0 0 0 1 71.5134128849147 48.457228418872162 12.9380962551051 1 rotate no_reflect no_shear #
lump $-1 $-1 $50 $11 #
transform $-1 1 0 0 0 1 0 0 0 1 71.5134128849147 48.457228418872162 12.9380962551051 1 rotate no_reflect no_shear #
lump $-1 $-1 $51 $12 #
transform $-1 1 0 0 0 1 0 0 0 1 71.5134128849147 48.457228418872162 12.9380962551051 1 rotate no_reflect no_shear #
shell $-1 $-1 $-1 $52 $-1 $13 #
shell $-1 $-1 $-1 $53 $-1 $15 #
shell $-1 $-1 $-1 $54 $-1 $17 #
shell $-1 $-1 $-1 $55 $-1 $19 #
shell $-1 $-1 $-1 $56 $-1 $21 #
shell $-1 $-1 $-1 $57 $-1 $23 #
shell $-1 $-1 $-1 $58 $-1 $25 #
shell $-1 $-1 $-1 $59 $-1 $27 #
shell $-1 $-1 $-1 $60 $-1 $29 #
shell $-1 $-1 $-1 $61 $-1 $31 #
shell $-1 $-1 $-1 $62 $-1 $33 #
shell $-1 $-1 $-1 $63 $-1 $35 #
shell $-1 $-1 $-1 $64 $-1 $37 #
face $-1 $65 $66 $39 $-1 $67 forward single #
face $-1 $68 $69 $40 $-1 $70 forward single #
face $-1 $71 $72 $41 $-1 $73 forward single #
face $-1 $74 $75 $42 $-1 $76 reversed single #
face $-1 $77 $78 $43 $-1 $79 forward single #
face $-1 $80 $81 $44 $-1 $82 forward single #
face $-1 $83 $84 $45 $-1 $85 forward single #
face $-1 $86 $87 $46 $-1 $88 reversed single #
face $-1 $89 $90 $47 $-1 $91 forward single #
face $-1 $92 $93 $48 $-1 $94 forward single #
face $-1 $95 $96 $49 $-1 $97 reversed single #
face $-1 $98 $99 $50 $-1 $100 forward single #
face $-1 $101 $102 $51 $-1 $103 forward single #
face $-1 $104 $105 $39 $-1 $106 reversed single #
loop $-1 $-1 $107 $52 #
plane-surface $-1 0 0 12.9380962551051 0 0 1 1 0 0 forward_v I I I I #
face $-1 $108 $109 $40 $-1 $110 reversed single #
loop $-1 $-1 $111 $53 #
plane-surface $-1 0 -48.457228418872162 0 0 1 0 0 0 1 forward_v I I I I #
face $-1 $112 $113 $41 $-1 $114 reversed single #
loop $-1 $-1 $115 $54 #
plane-surface $-1 0 48.457228418872162 0 0 -1 0 0 0 -1 forward_v I I I I #
face $-1 $116 $117 $42 $-1 $118 reversed single #
loop $-1 $-1 $119 $55 #
plane-surface $-1 92.656437633058417 -3.2366638108211134 210.1408857489015 0 -1 0 -0.77714596973225614 0 -0.62932038083071107 forward_v I I I I #
face $-1 $120 $121 $43 $-1 $122 forward single #
loop $-1 $123 $124 $56 #
cone-surface $-1 69.364022332011771 -12.784802754149197 10.516003438080633 -0.77714596973225614 0 -0.62932038083071107 0.31466019041535553 0 -0.38857298486612807 1 I I 0 1 0.5 forward I I I I #
face $-1 $125 $126 $44 $-1 $127 forward single #
loop $-1 $128 $129 $57 #
cone-surface $-1 69.364022332011771 -9.2042506504011641 10.516003438080633 -0.77714596973225614 0 -0.62932038083071107 0.31466019041535553 0 -0.38857298486612807 1 I I 0 1 0.5 forward I I I I #
face $-1 $130 $131 $45 $-1 $132 forward single #
loop $-1 $133 $134 $58 #
cone-surface $-1 69.364022332011771 -5.6236985466531308 10.516003438080633 -0.77714596973225614 0 -0.62932038083071107 0.31466019041535553 0 -0.38857298486612807 1 I I 0 1 0.5 forward I I I I #
face $-1 $135 $136 $46 $-1 $137 reversed single #
loop $-1 $-1 $138 $59 #
plane-surface $-1 -190.08802648619064 -23.696034491594546 86.740049535107246 0 1 0 -0.82903758062907751 0 0.55919289150049634 forward_v I I I I #
face $-1 $139 $140 $47 $-1 $141 forward single #
loop $-1 $142 $143 $60 #
cone-surface $-1 -68.667706003430766 -19.415973182764958 9.3351200758479838 0.82903758062907751 0 -0.55919289150049634 0.83878933725074445 0 1.2435563709436162 1 I I 0 1 1.5 forward I I I I #
face $-1 $144 $145 $48 $-1 $146 forward single #
loop $-1 $147 $148 $61 #
cone-surface $-1 -68.667706003430766 -12.995881219520577 9.3351200758479838 0.82903758062907751 0 -0.55919289150049634 0.83878933725074445 0 1.2435563709436162 1 I I 0 1 1.5 forward I I I I #
face $-1 $149 $150 $49 $-1 $151 reversed single #
loop $-1 $-1 $152 $62 #
plane-surface $-1 -190.08802648619064 10.935479592410836 86.740049535107246 0 1 0 -0.82903758062907751 0 0.55919289150049634 forward_v I I I I #
face $-1 $153 $154 $50 $-1 $155 forward single #
loop $-1 $156 $157 $63 #
cone-surface $-1 -68.667706003430766 15.215540901240416 9.3351200758479838 0.82903758062907751 0 -0.55919289150049634 0.83878933725074445 0 1.2435563709436162 1 I I 0 1 1.5 forward I I I I #
face $-1 $158 $159 $51 $-1 $160 forward single #
loop $-1 $161 $162 $64 #
cone-surface $-1 -68.667706003430766 21.635632864484805 9.3351200758479838 0.82903758062907751 0 -0.55919289150049634 0.83878933725074445 0 1.2435563709436162 1 I I 0 1 1.5 forward I I I I #
face $-1 $163 $164 $39 $-1 $165 reversed single #
loop $-1 $-1 $166 $65 #
plane-surface $-1 0 0 -12.9380962551051 0 0 1 1 0 0 forward_v I I I I #
coedge $-1 $167 $168 $169 $170 forward $66 $-1 #
face $-1 $171 $172 $40 $-1 $173 forward single #
loop $-1 $-1 $174 $68 #
plane-surface $-1 -71.5134128849147 0 0 1 0 0 0 0 -1 forward_v I I I I #
coedge $-1 $175 $176 $177 $178 forward $69 $-1 #
face $-1 $179 $180 $41 $-1 $181 forward single #
loop $-1 $-1 $182 $71 #
plane-surface $-1 71.5134128849147 0 0 -1 0 0 0 0 1 forward_v I I I I #
coedge $-1 $183 $184 $185 $186 forward $72 $-1 #
face $-1 $187 $188 $42 $-1 $189 reversed single #
loop $-1 $-1 $190 $74 #
plane-surface $-1 -18.496283577562096 -9.2042506504011641 120.1311892864247 0.77714596973225614 0 0.62932038083071107 0.62932038083071107 0 -0.77714596973225614 forward_v I I I I #
coedge $-1 $191 $192 $193 $194 reversed $75 $-1 #
face $-1 $-1 $195 $43 $-1 $196 forward single #
loop $-1 $197 $198 $77 #
cone-surface $-1 68.623567082063929 -12.784802754149197 9.9163946154989251 -0.77714596973225614 0 -0.62932038083071107 0.15733009520767777 0 -0.19428649243306403 1 I I -0.70710678118654746 0.70710678118654746 0.25 forward I I I I #
loop $-1 $-1 $199 $56 #
coedge $-1 $124 $124 $200 $201 reversed $78 $-1 #
face $-1 $-1 $202 $44 $-1 $203 forward single #
loop $-1 $204 $205 $80 #
cone-surface $-1 68.623567082063929 -9.2042506504011641 9.9163946154989251 -0.77714596973225614 0 -0.62932038083071107 0.15733009520767777 0 -0.19428649243306403 1 I I -0.70710678118654746 0.70710678118654746 0.25 forward I I I I #
loop $-1 $-1 $206 $57 #
coedge $-1 $129 $129 $207 $208 reversed $81 $-1 #
face $-1 $-1 $209 $45 $-1 $210 forward single #
loop $-1 $211 $212 $83 #
cone-surface $-1 68.623567082063929 -5.6236985466531308 9.9163946154989251 -0.77714596973225614 0 -0.62932038083071107 0.15733009520767777 0 -0.19428649243306403 1 I I -0.70710678118654746 0.70710678118654746 0.25 forward I I I I #
loop $-1 $-1 $213 $58 #
coedge $-1 $134 $134 $214 $215 reversed $84 $-1 #
face $-1 $216 $217 $46 $-1 $218 reversed single #
loop $-1 $-1 $219 $86 #
plane-surface $-1 -71.513412884914686 -16.205927201142764 6.760465270738635 -0.82903758062907751 0 0.55919289150049634 0.55919289150049634 0 0.82903758062907751 forward_v I I I I #
coedge $-1 $220 $221 $222 $223 reversed $87 $-1 #
face $-1 $-1 $224 $47 $-1 $225 forward single #
loop $-1 $226 $227 $89 #
cone-surface $-1 -67.283653228018224 -19.415973182764958 8.4015647201487322 0.82903758062907751 0 -0.55919289150049634 0.41939466862537222 0 0.62177818547180808 1 I I -0.70710678118654757 0.70710678118654757 0.75 forward I I I I #
loop $-1 $-1 $228 $60 #
coedge $-1 $143 $143 $229 $230 reversed $90 $-1 #
face $-1 $-1 $231 $48 $-1 $232 forward single #
loop $-1 $233 $234 $92 #
cone-surface $-1 -67.283653228018224 -12.995881219520577 8.4015647201487322 0.82903758062907751 0 -0.55919289150049634 0.41939466862537222 0 0.62177818547180808 1 I I -0.70710678118654757 0.70710678118654757 0.75 forward I I I I #
loop $-1 $-1 $235 $61 #
coedge $-1 $148 $148 $236 $237 reversed $93 $-1 #
face $-1 $238 $239 $49 $-1 $240 reversed single #
loop $-1 $-1 $241 $95 #
plane-surface $-1 -71.513412884914686 18.425586882862618 6.760465270738635 -0.82903758062907751 0 0.55919289150049634 0.55919289150049634 0 0.82903758062907751 forward_v I I I I #
coedge $-1 $242 $243 $244 $245 reversed $96 $-1 #
face $-1 $-1 $246 $50 $-1 $247 forward single #
loop $-1 $248 $249 $98 #
cone-surface $-1 -67.283653228018224 15.215540901240416 8.4015647201487322 0.82903758062907751 0 -0.55919289150049634 0.41939466862537222 0 0.62177818547180808 1 I I -0.70710678118654757 0.70710678118654757 0.75 forward I I I I #
loop $-1 $-1 $250 $63 #
coedge $-1 $157 $157 $251 $252 reversed $99 $-1 #
face $-1 $-1 $253 $51 $-1 $254 forward single #
loop $-1 $255 $256 $101 #
cone-surface $-1 -67.283653228018224 21.635632864484805 8.4015647201487322 0.82903758062907751 0 -0.55919289150049634 0.41939466862537222 0 0.62177818547180808 1 I I -0.70710678118654757 0.70710678118654757 0.75 forward I I I I #
loop $-1 $-1 $257 $64 #
coedge $-1 $162 $162 $258 $259 reversed $102 $-1 #
face $-1 $260 $261 $39 $-1 $262 reversed single #
loop $-1 $-1 $263 $104 #
plane-surface $-1 0 -48.457228418872162 0 0 1 0 0 0 1 forward_v I I I I #
coedge $-1 $264 $265 $266 $267 forward $105 $-1 #
coedge $-1 $268 $107 $269 $270 forward $66 $-1 #
coedge $-1 $107 $268 $271 $272 forward $66 $-1 #
coedge $-1 $273 $274 $107 $170 reversed $275 $-1 #
edge $-1 $276 -48.457228418872162 $277 48.457228418872162 $169 $278 forward 7 unknown #
face $-1 $279 $280 $40 $-1 $281 reversed single #
loop $-1 $-1 $282 $108 #
plane-surface $-1 0 -55.370085586305557 2.4509702110177418 0 0 1 1 0 0 forward_v I I I I #
coedge $-1 $283 $284 $176 $285 forward $109 $-1 #
coedge $-1 $286 $111 $287 $288 reversed $69 $-1 #
coedge $-1 $111 $286 $174 $285 reversed $69 $-1 #
coedge $-1 $289 $282 $111 $178 reversed $172 $-1 #
edge $-1 $290 -71.5134128849147 $291 71.5134128849147 $177 $292 forward 7 unknown #
face $-1 $293 $294 $41 $-1 $295 reversed single #
loop $-1 $-1 $296 $112 #
plane-surface $-1 0 55.370085586305564 2.4509702110177418 0 0 1 1 0 0 forward_v I I I I #
coedge $-1 $297 $298 $184 $299 forward $113 $-1 #
coedge $-1 $300 $115 $301 $302 reversed $72 $-1 #
coedge $-1 $115 $300 $182 $299 reversed $72 $-1 #
coedge $-1 $296 $303 $115 $186 reversed $180 $-1 #
edge $-1 $304 -71.5134128849147 $305 71.5134128849147 $185 $306 forward 7 unknown #
face $-1 $307 $308 $42 $-1 $309 forward single #
loop $-1 $-1 $310 $116 #
plane-surface $-1 92.656437633058417 -15.171837489981215 210.1408857489015 0 1 0 0.77714596973225614 0 0.62932038083071107 forward_v I I I I #
coedge $-1 $311 $312 $313 $314 reversed $117 $-1 #
coedge $-1 $192 $119 $315 $316 reversed $75 $-1 #
coedge $-1 $119 $191 $311 $317 reversed $75 $-1 #
coedge $-1 $313 $318 $119 $194 forward $308 $-1 #
edge $-1 $319 -25.185194068385492 $320 -21.978750477609147 $193 $321 forward 7 unknown #
loop $-1 $-1 $200 $120 #
plane-surface $-1 -18.496283577562096 -9.2042506504011641 120.1311892864247 0.77714596973225614 0 0.62932038083071107 0.62932038083071107 0 -0.77714596973225614 forward_v I I I I #
loop $-1 $-1 $322 $77 #
coedge $-1 $198 $198 $199 $323 reversed $121 $-1 #
coedge $-1 $199 $199 $198 $323 forward $123 $-1 #
coedge $-1 $200 $200 $124 $201 forward $195 $-1 #
edge $-1 $324 0 $324 6.2831853071796004 $200 $325 forward 7 unknown #
loop $-1 $-1 $207 $125 #
plane-surface $-1 -18.496283577562096 -9.2042506504011641 120.1311892864247 0.77714596973225614 0 0.62932038083071107 0.62932038083071107 0 -0.77714596973225614 forward_v I I I I #
loop $-1 $-1 $326 $80 #
coedge $-1 $205 $205 $206 $327 reversed $126 $-1 #
coedge $-1 $206 $206 $205 $327 forward $128 $-1 #
coedge $-1 $207 $207 $129 $208 forward $202 $-1 #
edge $-1 $328 0 $328 6.2831853071796004 $207 $329 forward 7 unknown #
loop $-1 $-1 $214 $130 #
plane-surface $-1 -18.496283577562096 -9.2042506504011641 120.1311892864247 0.77714596973225614 0 0.62932038083071107 0.62932038083071107 0 -0.77714596973225614 forward_v I I I I #
loop $-1 $-1 $330 $83 #
coedge $-1 $212 $212 $213 $331 reversed $131 $-1 #
coedge $-1 $213 $213 $212 $331 forward $133 $-1 #
coedge $-1 $214 $214 $134 $215 forward $209 $-1 #
edge $-1 $332 0 $332 6.2831853071796004 $214 $333 forward 7 unknown #
face $-1 $334 $335 $46 $-1 $336 reversed single #
loop $-1 $-1 $337 $135 #
plane-surface $-1 -190.08802648619064 -8.7158199106909819 86.740049535107246 0 -1 0 0.82903758062907751 0 -0.55919289150049634 forward_v I I I I #
coedge $-1 $338 $339 $340 $341 reversed $136 $-1 #
coedge $-1 $221 $138 $342 $343 reversed $87 $-1 #
coedge $-1 $138 $220 $338 $344 reversed $87 $-1 #
coedge $-1 $340 $345 $138 $223 forward $346 $-1 #
edge $-1 $347 23.530600358180621 $348 27.697464941267043 $222 $349 forward 7 unknown #
loop $-1 $-1 $229 $139 #
plane-surface $-1 -71.513412884914686 -16.205927201142764 6.760465270738635 -0.82903758062907751 0 0.55919289150049634 0.55919289150049634 0 0.82903758062907751 forward_v I I I I #
loop $-1 $-1 $350 $89 #
coedge $-1 $227 $227 $228 $351 reversed $140 $-1 #
coedge $-1 $228 $228 $227 $351 forward $142 $-1 #
coedge $-1 $229 $229 $143 $230 forward $224 $-1 #
edge $-1 $352 0 $352 6.2831853071796004 $229 $353 forward 7 unknown #
loop $-1 $-1 $236 $144 #
plane-surface $-1 -71.513412884914686 -16.205927201142764 6.760465270738635 -0.82903758062907751 0 0.55919289150049634 0.55919289150049634 0 0.82903758062907751 forward_v I I I I #
loop $-1 $-1 $354 $92 #
coedge $-1 $234 $234 $235 $355 reversed $145 $-1 #
coedge $-1 $235 $235 $234 $355 forward $147 $-1 #
coedge $-1 $236 $236 $148 $237 forward $231 $-1 #
edge $-1 $356 0 $356 6.2831853071796004 $236 $357 forward 7 unknown #
face $-1 $358 $359 $49 $-1 $360 forward single #
loop $-1 $-1 $361 $149 #
plane-surface $-1 -190.08802648619064 25.9156941733144 86.740049535107246 0 -1 0 0.82903758062907751 0 -0.55919289150049634 forward_v I I I I #
coedge $-1 $362 $363 $364 $365 reversed $150 $-1 #
coedge $-1 $243 $152 $366 $367 reversed $96 $-1 #
coedge $-1 $152 $242 $362 $368 reversed $96 $-1 #
coedge $-1 $364 $369 $152 $245 forward $359 $-1 #
edge $-1 $370 23.530600358180621 $371 27.697464941267043 $244 $372 forward 7 unknown #
loop $-1 $-1 $251 $153 #
plane-surface $-1 -71.513412884914686 18.425586882862618 6.760465270738635 -0.82903758062907751 0 0.55919289150049634 0.55919289150049634 0 0.82903758062907751 forward_v I I I I #
loop $-1 $-1 $373 $98 #
coedge $-1 $249 $249 $250 $374 reversed $154 $-1 #
coedge $-1 $250 $250 $249 $374 forward $156 $-1 #
coedge $-1 $251 $251 $157 $252 forward $246 $-1 #
edge $-1 $375 0 $375 6.2831853071796004 $251 $376 forward 7 unknown #
loop $-1 $-1 $258 $158 #
plane-surface $-1 -71.513412884914686 18.425586882862618 6.760465270738635 -0.82903758062907751 0 0.55919289150049634 0.55919289150049634 0 0.82903758062907751 forward_v I I I I #
loop $-1 $-1 $377 $101 #
coedge $-1 $256 $256 $257 $378 reversed $159 $-1 #
coedge $-1 $257 $257 $256 $378 forward $161 $-1 #
coedge $-1 $258 $258 $162 $259 forward $253 $-1 #
edge $-1 $379 0 $379 6.2831853071796004 $258 $380 forward 7 unknown #
face $-1 $381 $382 $39 $-1 $383 reversed single #
loop $-1 $-1 $384 $163 #
plane-surface $-1 -71.5134128849147 0 0 1 0 0 0 0 -1 forward_v I I I I #
coedge $-1 $385 $271 $386 $387 forward $164 $-1 #
coedge $-1 $388 $166 $385 $389 forward $105 $-1 #
coedge $-1 $166 $388 $390 $391 forward $105 $-1 #
coedge $-1 $274 $273 $166 $267 reversed $275 $-1 #
edge $-1 $392 -48.457228418872162 $393 48.457228418872162 $266 $394 forward 7 unknown #
coedge $-1 $168 $167 $395 $396 forward $66 $-1 #
coedge $-1 $397 $398 $167 $270 reversed $382 $-1 #
edge $-1 $277 -71.5134128849147 $399 71.5134128849147 $269 $400 forward 7 unknown #
coedge $-1 $263 $401 $168 $272 reversed $164 $-1 #
edge $-1 $402 -71.5134128849147 $276 71.5134128849147 $271 $403 forward 7 unknown #
coedge $-1 $266 $169 $401 $404 forward $275 $-1 #
coedge $-1 $169 $266 $397 $405 reversed $275 $-1 #
loop $-1 $-1 $273 $381 #
vertex $-1 $170 $406 #
vertex $-1 $170 $407 #
straight-curve $-1 71.5134128849147 0 12.9380962551051 0 1 0 I I #
face $-1 $408 $409 $40 $-1 $410 reversed single #
loop $-1 $-1 $411 $171 #
plane-surface $-1 0 -55.370085586305557 -1.5001499399370193 0 0 1 1 0 0 forward_v I I I I #
coedge $-1 $177 $412 $413 $414 forward $172 $-1 #
coedge $-1 $415 $174 $416 $417 reversed $109 $-1 #
coedge $-1 $174 $415 $289 $418 reversed $109 $-1 #
edge $-1 $290 -2.4509702110177418 $419 1.5001499399370193 $174 $420 forward 7 unknown #
coedge $-1 $176 $175 $421 $422 forward $69 $-1 #
coedge $-1 $413 $423 $175 $288 forward $424 $-1 #
edge $-1 $425 -1.5001499399370193 $291 2.4509702110177418 $287 $426 forward 7 unknown #
coedge $-1 $412 $177 $284 $418 forward $172 $-1 #
vertex $-1 $285 $427 #
vertex $-1 $414 $428 #
straight-curve $-1 0 -48.457228418872162 2.4509702110177418 1 0 0 I I #
face $-1 $429 $430 $41 $-1 $431 reversed single #
loop $-1 $-1 $432 $179 #
plane-surface $-1 0 55.370085586305564 -1.5001499399370193 0 0 1 1 0 0 forward_v I I I I #
coedge $-1 $433 $185 $298 $434 forward $180 $-1 #
coedge $-1 $435 $182 $432 $436 reversed $113 $-1 #
coedge $-1 $182 $435 $296 $434 reversed $113 $-1 #
edge $-1 $304 -2.4509702110177418 $437 1.5001499399370193 $182 $438 forward 7 unknown #
coedge $-1 $184 $183 $439 $440 forward $72 $-1 #
coedge $-1 $441 $442 $183 $302 forward $443 $-1 #
edge $-1 $444 -1.5001499399370193 $305 2.4509702110177418 $301 $445 forward 7 unknown #
coedge $-1 $185 $433 $441 $446 forward $180 $-1 #
vertex $-1 $299 $447 #
vertex $-1 $446 $448 #
straight-curve $-1 0 48.457228418872162 2.4509702110177418 -1 0 0 I I #
face $-1 $-1 $449 $42 $-1 $450 reversed single #
loop $-1 $-1 $193 $187 #
plane-surface $-1 0 0 12.9380962551051 0 0 1 1 0 0 forward_v I I I I #
coedge $-1 $451 $452 $453 $454 reversed $188 $-1 #
coedge $-1 $455 $190 $192 $317 forward $117 $-1 #
coedge $-1 $190 $455 $451 $456 forward $117 $-1 #
coedge $-1 $453 $193 $190 $314 forward $308 $-1 #
edge $-1 $320 -1.3654615143794686 $457 10.569712164780633 $313 $458 forward 7 unknown #
coedge $-1 $459 $460 $191 $316 forward $449 $-1 #
edge $-1 $461 -96.091974798646561 $319 -92.132346619345654 $315 $462 forward 7 unknown #
edge $-1 $320 137.93173638698786 $461 143.0268257698294 $192 $463 forward 7 unknown #
coedge $-1 $193 $453 $459 $464 forward $308 $-1 #
vertex $-1 $316 $465 #
vertex $-1 $194 $466 #
straight-curve $-1 46.328218816529208 -3.2366638108211134 12.938096255105094 -1 0 0 I I #
coedge $-1 $322 $322 $-1 $467 reversed $197 $-1 #
edge $-1 $468 0 $468 6.2831853071796004 $198 $469 forward 7 unknown #
vertex $-1 $201 $470 #
ellipse-curve $-1 69.910191089526535 -12.784802754149197 10.958282165454644 0.77714596973225614 0 0.62932038083071107 0.31466019041535553 0 -0.38857298486612807 1 I I #
coedge $-1 $326 $326 $-1 $471 reversed $204 $-1 #
edge $-1 $472 0 $472 6.2831853071796004 $205 $473 forward 7 unknown #
vertex $-1 $208 $474 #
ellipse-curve $-1 69.910191089526535 -9.2042506504011641 10.958282165454644 0.77714596973225614 0 0.62932038083071107 0.31466019041535553 0 -0.38857298486612807 1 I I #
coedge $-1 $330 $330 $-1 $475 reversed $211 $-1 #
edge $-1 $476 0 $476 6.2831853071796004 $212 $477 forward 7 unknown #
vertex $-1 $215 $478 #
ellipse-curve $-1 69.910191089526535 -5.6236985466531308 10.958282165454644 0.77714596973225614 0 0.62932038083071107 0.31466019041535553 0 -0.38857298486612807 1 I I #
face $-1 $-1 $346 $46 $-1 $479 forward single #
loop $-1 $-1 $480 $216 #
plane-surface $-1 -71.5134128849147 0 0 1 0 0 0 0 -1 forward_v I I I I #
coedge $-1 $481 $482 $483 $484 reversed $217 $-1 #
coedge $-1 $485 $219 $221 $344 forward $136 $-1 #
coedge $-1 $219 $485 $481 $486 forward $136 $-1 #
coedge $-1 $483 $222 $219 $341 forward $346 $-1 #
edge $-1 $348 -15.593070891023164 $487 -0.61285631011960007 $340 $488 forward 7 unknown #
coedge $-1 $489 $490 $220 $343 forward $335 $-1 #
edge $-1 $491 -36.60955949681501 $347 -30.431928512448522 $342 $492 forward 7 unknown #
edge $-1 $348 -7.4515693000054988 $491 2.5618607856530852e-014 $221 $493 forward 7 unknown #
coedge $-1 $222 $483 $489 $494 forward $346 $-1 #
loop $-1 $-1 $483 $334 #
vertex $-1 $343 $495 #
vertex $-1 $223 $496 #
straight-curve $-1 -95.044013243095321 -23.696034491594546 12.938096255105101 1 0 0 I I #
coedge $-1 $350 $350 $-1 $497 reversed $226 $-1 #
edge $-1 $498 0 $498 6.2831853071796004 $227 $499 forward 7 unknown #
vertex $-1 $230 $500 #
ellipse-curve $-1 -69.429980593371496 -19.415973182764958 9.8492807629218593 -0.82903758062907751 0 0.55919289150049634 0.83878933725074445 0 1.2435563709436162 1 I I #
coedge $-1 $354 $354 $-1 $501 reversed $233 $-1 #
edge $-1 $502 0 $502 6.2831853071796004 $234 $503 forward 7 unknown #
vertex $-1 $237 $504 #
ellipse-curve $-1 -69.429980593371496 -12.995881219520577 9.8492807629218593 -0.82903758062907751 0 0.55919289150049634 0.83878933725074445 0 1.2435563709436162 1 I I #
face $-1 $-1 $505 $49 $-1 $506 reversed single #
loop $-1 $-1 $244 $238 #
plane-surface $-1 0 0 12.9380962551051 0 0 1 1 0 0 forward_v I I I I #
coedge $-1 $507 $508 $509 $510 reversed $239 $-1 #
coedge $-1 $511 $241 $243 $368 forward $150 $-1 #
coedge $-1 $241 $511 $507 $512 forward $150 $-1 #
coedge $-1 $509 $244 $241 $365 forward $359 $-1 #
edge $-1 $371 1.722686150979527 $513 16.702900731883091 $364 $514 forward 7 unknown #
coedge $-1 $515 $516 $242 $367 forward $505 $-1 #
edge $-1 $517 -36.60955949681501 $370 -30.431928512448522 $366 $518 forward 7 unknown #
edge $-1 $371 -7.4515693000054988 $517 2.5618607856530852e-014 $243 $519 forward 7 unknown #
coedge $-1 $244 $509 $515 $520 forward $359 $-1 #
vertex $-1 $245 $521 #
vertex $-1 $245 $522 #
straight-curve $-1 -95.044013243095321 10.935479592410836 12.938096255105101 1 0 0 I I #
coedge $-1 $373 $373 $-1 $523 reversed $248 $-1 #
edge $-1 $524 0 $524 6.2831853071796004 $249 $525 forward 7 unknown #
vertex $-1 $252 $526 #
ellipse-curve $-1 -69.429980593371496 15.215540901240416 9.8492807629218593 -0.82903758062907751 0 0.55919289150049634 0.83878933725074445 0 1.2435563709436162 1 I I #
coedge $-1 $377 $377 $-1 $527 reversed $255 $-1 #
edge $-1 $528 0 $528 6.2831853071796004 $256 $529 forward 7 unknown #
vertex $-1 $259 $530 #
ellipse-curve $-1 -69.429980593371496 21.635632864484805 9.8492807629218593 -0.82903758062907751 0 0.55919289150049634 0.83878933725074445 0 1.2435563709436162 1 I I #
face $-1 $-1 $275 $39 $-1 $531 reversed single #
loop $-1 $-1 $397 $260 #
plane-surface $-1 0 48.457228418872162 0 0 -1 0 0 0 -1 forward_v I I I I #
coedge $-1 $532 $395 $398 $533 forward $261 $-1 #
coedge $-1 $401 $263 $264 $389 reversed $164 $-1 #
coedge $-1 $395 $532 $263 $387 reversed $261 $-1 #
edge $-1 $402 -12.9380962551051 $534 12.9380962551051 $386 $535 forward 7 unknown #
coedge $-1 $265 $264 $532 $536 forward $105 $-1 #
edge $-1 $393 -71.5134128849147 $534 71.5134128849147 $385 $537 forward 7 unknown #
coedge $-1 $398 $397 $265 $391 reversed $382 $-1 #
edge $-1 $538 -71.5134128849147 $392 71.5134128849147 $390 $539 forward 7 unknown #
vertex $-1 $267 $540 #
vertex $-1 $404 $541 #
straight-curve $-1 71.5134128849147 0 -12.9380962551051 0 -1 0 I I #
coedge $-1 $384 $386 $268 $396 reversed $261 $-1 #
edge $-1 $399 -48.457228418872162 $402 48.457228418872162 $395 $542 forward 7 unknown #
coedge $-1 $390 $269 $274 $405 forward $382 $-1 #
coedge $-1 $269 $390 $384 $533 reversed $382 $-1 #
vertex $-1 $270 $543 #
straight-curve $-1 0 48.457228418872162 12.9380962551051 -1 0 0 I I #
coedge $-1 $271 $385 $273 $404 reversed $164 $-1 #
vertex $-1 $396 $544 #
straight-curve $-1 0 -48.457228418872162 12.9380962551051 1 0 0 I I #
edge $-1 $276 -12.9380962551051 $393 12.9380962551051 $273 $545 forward 7 unknown #
edge $-1 $277 -12.9380962551051 $392 12.9380962551051 $274 $546 forward 7 unknown #
point $-1 71.5134128849147 -48.457228418872162 12.9380962551051 #
point $-1 71.5134128849147 48.457228418872162 12.9380962551051 #
face $-1 $-1 $424 $40 $-1 $547 reversed single #
loop $-1 $-1 $548 $279 #
plane-surface $-1 0 -62.282942753738951 0.47541013554036127 0 1 0 0 0 1 forward_v I I I I #
coedge $-1 $549 $421 $423 $550 forward $280 $-1 #
coedge $-1 $282 $289 $551 $552 forward $172 $-1 #
coedge $-1 $553 $287 $282 $414 reversed $424 $-1 #
edge $-1 $554 -6.9128571674333941 $291 6.9128571674333941 $413 $555 forward 7 unknown #
coedge $-1 $284 $283 $548 $556 reversed $109 $-1 #
coedge $-1 $421 $549 $283 $417 forward $280 $-1 #
edge $-1 $557 -6.9128571674333941 $419 6.9128571674333941 $283 $558 forward 7 unknown #
edge $-1 $290 -6.9128571674333941 $559 6.9128571674333941 $284 $560 forward 7 unknown #
vertex $-1 $285 $561 #
straight-curve $-1 -71.5134128849147 -48.457228418872162 0 0 0 -1 I I #
coedge $-1 $411 $416 $286 $422 reversed $280 $-1 #
edge $-1 $425 -71.5134128849147 $419 71.5134128849147 $421 $562 forward 7 unknown #
coedge $-1 $287 $553 $411 $550 reversed $424 $-1 #
loop $-1 $-1 $287 $408 #
vertex $-1 $288 $563 #
straight-curve $-1 71.5134128849147 -48.457228418872162 0 0 0 1 I I #
point $-1 -71.5134128849147 -48.457228418872162 2.4509702110177418 #
point $-1 71.5134128849147 -48.457228418872162 2.4509702110177418 #
face $-1 $-1 $443 $41 $-1 $564 reversed single #
loop $-1 $-1 $565 $293 #
plane-surface $-1 0 62.282942753738958 0.47541013554036127 0 -1 0 0 0 -1 forward_v I I I I #
coedge $-1 $439 $566 $297 $436 forward $294 $-1 #
coedge $-1 $303 $296 $567 $568 forward $180 $-1 #
edge $-1 $304 -6.9128571674333941 $569 6.9128571674333941 $298 $570 forward 7 unknown #
coedge $-1 $298 $297 $565 $571 reversed $113 $-1 #
edge $-1 $572 -6.9128571674333941 $437 6.9128571674333941 $297 $573 forward 7 unknown #
vertex $-1 $299 $574 #
straight-curve $-1 71.5134128849147 48.457228418872162 0 0 0 -1 I I #
coedge $-1 $575 $432 $300 $440 reversed $294 $-1 #
edge $-1 $444 -71.5134128849147 $437 71.5134128849147 $439 $576 forward 7 unknown #
coedge $-1 $577 $301 $303 $446 reversed $443 $-1 #
coedge $-1 $301 $577 $575 $578 reversed $443 $-1 #
loop $-1 $-1 $301 $429 #
vertex $-1 $302 $579 #
straight-curve $-1 -71.5134128849147 48.457228418872162 0 0 0 1 I I #
edge $-1 $580 -6.9128571674333941 $305 6.9128571674333941 $441 $581 forward 7 unknown #
point $-1 71.5134128849147 48.45722841887217 2.4509702110177418 #
point $-1 -71.5134128849147 48.45722841887217 2.4509702110177418 #
loop $-1 $-1 $315 $307 #
plane-surface $-1 71.5134128849147 0 0 -1 0 0 0 0 1 forward_v I I I I #
coedge $-1 $452 $310 $312 $456 reversed $188 $-1 #
coedge $-1 $310 $451 $582 $583 reversed $188 $-1 #
coedge $-1 $318 $313 $310 $454 forward $308 $-1 #
edge $-1 $457 21.978750477609147 $584 25.185194068385492 $453 $585 forward 7 unknown #
coedge $-1 $312 $311 $460 $586 reversed $117 $-1 #
edge $-1 $587 -143.0268257698294 $457 -137.93173638698786 $451 $588 forward 7 unknown #
vertex $-1 $314 $589 #
straight-curve $-1 68.306969294138355 -4.602125325200582 12.938096255105094 0 -1 0 I I #
coedge $-1 $582 $315 $318 $464 reversed $449 $-1 #
coedge $-1 $315 $582 $455 $586 forward $449 $-1 #
vertex $-1 $316 $590 #
straight-curve $-1 71.5134128849147 -3.2366638108211134 105.07044287445075 0 0 1 I I #
straight-curve $-1 -18.496283577562096 -3.2366638108211134 120.1311892864247 0.62932038083071107 0 -0.77714596973225614 I I #
edge $-1 $584 -15.171837489981215 $319 -3.2366638108211134 $459 $591 forward 7 unknown #
point $-1 71.5134128849147 -3.2366638108211134 12.9380962551051 #
point $-1 68.306969294138355 -3.2366638108211134 12.938096255105094 #
edge $-1 $592 1 $592 0 $322 $-1 forward 7 unknown #
vertex $-1 $323 $593 #
ellipse-curve $-1 68.817853574496993 -12.784802754149197 10.073724710706603 0.77714596973225614 0 0.62932038083071107 0.31466019041535553 0 -0.38857298486612807 1 I I #
point $-1 70.224851279941916 -12.784802754149197 10.569709180588534 #
edge $-1 $594 1 $594 0 $326 $-1 forward 7 unknown #
vertex $-1 $327 $595 #
ellipse-curve $-1 68.817853574496993 -9.2042506504011641 10.073724710706603 0.77714596973225614 0 0.62932038083071107 0.31466019041535553 0 -0.38857298486612807 1 I I #
point $-1 70.224851279941916 -9.2042506504011641 10.569709180588534 #
edge $-1 $596 1 $596 0 $330 $-1 forward 7 unknown #
vertex $-1 $331 $597 #
ellipse-curve $-1 68.817853574496993 -5.6236985466531308 10.073724710706603 0.77714596973225614 0 0.62932038083071107 0.31466019041535553 0 -0.38857298486612807 1 I I #
point $-1 70.224851279941916 -5.6236985466531308 10.569709180588534 #
plane-surface $-1 0 0 12.9380962551051 0 0 1 1 0 0 forward_v I I I I #
coedge $-1 $490 $489 $482 $598 forward $335 $-1 #
coedge $-1 $482 $337 $339 $486 reversed $217 $-1 #
coedge $-1 $337 $481 $480 $598 reversed $217 $-1 #
coedge $-1 $345 $340 $337 $484 forward $346 $-1 #
edge $-1 $487 -27.697464941267043 $599 -23.530600358180621 $483 $600 forward 7 unknown #
coedge $-1 $339 $338 $490 $601 reversed $136 $-1 #
edge $-1 $602 -2.5618607856530852e-014 $487 7.4515693000054988 $481 $603 forward 7 unknown #
vertex $-1 $341 $604 #
straight-curve $-1 -67.346548301828292 -8.1029636005713819 12.938096255105101 0 1 0 I I #
coedge $-1 $480 $342 $345 $494 reversed $335 $-1 #
coedge $-1 $342 $480 $485 $601 forward $335 $-1 #
vertex $-1 $343 $605 #
straight-curve $-1 -71.5134128849147 -23.696034491594546 43.370024767553623 0 0 1 I I #
straight-curve $-1 -71.513412884914686 -23.696034491594546 6.760465270738635 -0.55919289150049634 0 -0.82903758062907751 I I #
edge $-1 $599 8.7158199106909819 $347 23.696034491594546 $489 $606 forward 7 unknown #
point $-1 -71.5134128849147 -23.696034491594546 12.9380962551051 #
point $-1 -67.346548301828278 -23.696034491594546 12.9380962551051 #
edge $-1 $607 1 $607 0 $350 $-1 forward 7 unknown #
vertex $-1 $351 $608 #
ellipse-curve $-1 -67.905431413490035 -19.415973182764958 8.8209593887741047 -0.82903758062907751 0 0.55919289150049634 0.83878933725074445 0 1.2435563709436162 1 I I #
point $-1 -68.591191256120752 -19.415973182764958 11.09283713386548 #
edge $-1 $609 1 $609 0 $354 $-1 forward 7 unknown #
vertex $-1 $355 $610 #
ellipse-curve $-1 -67.905431413490035 -12.995881219520577 8.8209593887741047 -0.82903758062907751 0 0.55919289150049634 0.83878933725074445 0 1.2435563709436162 1 I I #
point $-1 -68.591191256120752 -12.995881219520577 11.09283713386548 #
loop $-1 $-1 $366 $358 #
plane-surface $-1 -71.5134128849147 0 0 1 0 0 0 0 -1 forward_v I I I I #
coedge $-1 $508 $361 $363 $512 reversed $239 $-1 #
coedge $-1 $361 $507 $611 $612 reversed $239 $-1 #
coedge $-1 $369 $364 $361 $510 forward $359 $-1 #
edge $-1 $513 -27.697464941267043 $613 -23.530600358180621 $509 $614 forward 7 unknown #
coedge $-1 $363 $362 $516 $615 reversed $150 $-1 #
edge $-1 $616 -2.5618607856530852e-014 $513 7.4515693000054988 $507 $617 forward 7 unknown #
vertex $-1 $365 $618 #
straight-curve $-1 -67.346548301828292 9.2127934414313088 12.938096255105101 0 1 0 I I #
coedge $-1 $611 $366 $369 $520 reversed $505 $-1 #
coedge $-1 $366 $611 $511 $615 forward $505 $-1 #
vertex $-1 $367 $619 #
straight-curve $-1 -71.5134128849147 10.935479592410836 43.370024767553623 0 0 1 I I #
straight-curve $-1 -71.513412884914686 10.935479592410836 6.760465270738635 -0.55919289150049634 0 -0.82903758062907751 I I #
edge $-1 $613 -25.9156941733144 $370 -10.935479592410836 $515 $620 forward 7 unknown #
point $-1 -71.5134128849147 10.935479592410836 12.9380962551051 #
point $-1 -67.346548301828278 10.935479592410836 12.9380962551051 #
edge $-1 $621 1 $621 0 $373 $-1 forward 7 unknown #
vertex $-1 $374 $622 #
ellipse-curve $-1 -67.905431413490035 15.215540901240416 8.8209593887741047 -0.82903758062907751 0 0.55919289150049634 0.83878933725074445 0 1.2435563709436162 1 I I #
point $-1 -68.591191256120752 15.215540901240416 11.09283713386548 #
edge $-1 $623 1 $623 0 $377 $-1 forward 7 unknown #
vertex $-1 $378 $624 #
ellipse-curve $-1 -67.905431413490035 21.635632864484805 8.8209593887741047 -0.82903758062907751 0 0.55919289150049634 0.83878933725074445 0 1.2435563709436162 1 I I #
point $-1 -68.591191256120752 21.635632864484805 11.09283713386548 #
plane-surface $-1 71.5134128849147 0 0 -1 0 0 0 0 1 forward_v I I I I #
coedge $-1 $386 $384 $388 $536 reversed $261 $-1 #
edge $-1 $399 -12.9380962551051 $538 12.9380962551051 $398 $625 forward 7 unknown #
vertex $-1 $536 $626 #
straight-curve $-1 -71.5134128849147 -48.457228418872162 0 0 0 -1 I I #
edge $-1 $534 -48.457228418872162 $538 48.457228418872162 $532 $627 forward 7 unknown #
straight-curve $-1 0 -48.457228418872162 -12.9380962551051 -1 0 0 I I #
vertex $-1 $391 $628 #
straight-curve $-1 0 48.457228418872162 -12.9380962551051 1 0 0 I I #
point $-1 71.5134128849147 48.457228418872162 -12.9380962551051 #
point $-1 71.5134128849147 -48.457228418872162 -12.9380962551051 #
straight-curve $-1 -71.5134128849147 0 12.9380962551051 0 -1 0 I I #
point $-1 -71.5134128849147 48.457228418872162 12.9380962551051 #
point $-1 -71.5134128849147 -48.457228418872162 12.9380962551051 #
straight-curve $-1 71.5134128849147 -48.457228418872162 0 0 0 -1 I I #
straight-curve $-1 71.5134128849147 48.457228418872162 0 0 0 -1 I I #
plane-surface $-1 71.5134128849147 0 0 -1 0 0 0 0 1 forward_v I I I I #
coedge $-1 $629 $551 $415 $556 forward $409 $-1 #
coedge $-1 $416 $411 $629 $630 forward $280 $-1 #
edge $-1 $425 -6.9128571674333941 $631 6.9128571674333941 $423 $632 forward 7 unknown #
coedge $-1 $548 $633 $412 $552 reversed $409 $-1 #
edge $-1 $559 -71.5134128849147 $554 71.5134128849147 $551 $634 forward 7 unknown #
coedge $-1 $423 $413 $633 $635 forward $424 $-1 #
vertex $-1 $414 $636 #
straight-curve $-1 71.5134128849147 -55.370085586305557 2.4509702110177418 0 1 0 I I #
edge $-1 $559 -1.9755600754773806 $557 1.9755600754773806 $415 $637 forward 7 unknown #
vertex $-1 $417 $638 #
straight-curve $-1 -71.5134128849147 -55.370085586305557 -1.5001499399370193 0 1 0 I I #
vertex $-1 $418 $639 #
straight-curve $-1 -71.5134128849147 -55.370085586305557 2.4509702110177418 0 -1 0 I I #
point $-1 -71.5134128849147 -48.457228418872162 -1.5001499399370193 #
straight-curve $-1 0 -48.457228418872162 -1.5001499399370193 -1 0 0 I I #
point $-1 71.5134128849147 -48.457228418872162 -1.5001499399370193 #
plane-surface $-1 -71.5134128849147 0 0 1 0 0 0 0 -1 forward_v I I I I #
coedge $-1 $640 $567 $435 $571 forward $430 $-1 #
coedge $-1 $432 $575 $640 $641 forward $294 $-1 #
coedge $-1 $565 $642 $433 $568 reversed $430 $-1 #
edge $-1 $569 -71.5134128849147 $580 71.5134128849147 $567 $643 forward 7 unknown #
vertex $-1 $434 $644 #
straight-curve $-1 71.5134128849147 55.370085586305564 2.4509702110177418 0 1 0 I I #
edge $-1 $569 -1.9755600754773806 $572 1.9755600754773806 $435 $645 forward 7 unknown #
vertex $-1 $436 $646 #
straight-curve $-1 71.5134128849147 55.370085586305564 -1.5001499399370193 0 -1 0 I I #
point $-1 71.5134128849147 48.45722841887217 -1.5001499399370193 #
coedge $-1 $566 $439 $442 $578 forward $294 $-1 #
straight-curve $-1 0 48.457228418872162 -1.5001499399370193 1 0 0 I I #
coedge $-1 $442 $441 $642 $647 forward $443 $-1 #
edge $-1 $444 -6.9128571674333941 $648 6.9128571674333941 $442 $649 forward 7 unknown #
point $-1 -71.5134128849147 48.45722841887217 -1.5001499399370193 #
vertex $-1 $568 $650 #
straight-curve $-1 -71.5134128849147 55.370085586305564 2.4509702110177418 0 -1 0 I I #
coedge $-1 $460 $459 $452 $583 forward $449 $-1 #
edge $-1 $584 92.132346619345654 $587 96.091974798646561 $582 $651 forward 7 unknown #
vertex $-1 $464 $652 #
straight-curve $-1 46.328218816529208 -15.171837489981215 12.938096255105094 1 0 0 I I #
edge $-1 $587 -10.569712164780633 $461 1.3654615143794686 $460 $653 forward 7 unknown #
vertex $-1 $586 $654 #
straight-curve $-1 -18.496283577562096 -15.171837489981215 120.1311892864247 -0.62932038083071107 0 0.77714596973225614 I I #
point $-1 68.306969294138355 -15.171837489981215 12.938096255105094 #
point $-1 71.5134128849147 -3.2366638108211134 8.9784680758041873 #
straight-curve $-1 71.5134128849147 0 12.9380962551051 0 1 0 I I #
vertex $-1 $467 $655 #
point $-1 69.132513764912346 -12.784802754149197 9.6851517258404751 #
vertex $-1 $471 $656 #
point $-1 69.132513764912346 -9.2042506504011641 9.6851517258404751 #
vertex $-1 $475 $657 #
point $-1 69.132513764912346 -5.6236985466531308 9.6851517258404751 #
edge $-1 $599 30.431928512448522 $602 36.60955949681501 $480 $658 forward 7 unknown #
vertex $-1 $494 $659 #
straight-curve $-1 -95.044013243095321 -8.7158199106909819 12.938096255105101 -1 0 0 I I #
edge $-1 $602 0.61285631011960007 $491 15.593070891023164 $490 $660 forward 7 unknown #
vertex $-1 $601 $661 #
straight-curve $-1 -71.513412884914686 -8.7158199106909819 6.760465270738635 0.55919289150049634 0 0.82903758062907751 I I #
point $-1 -67.346548301828278 -8.7158199106909819 12.9380962551051 #
point $-1 -71.5134128849147 -23.696034491594546 6.7604652707386137 #
straight-curve $-1 -71.5134128849147 0 12.9380962551051 0 -1 0 I I #
vertex $-1 $497 $662 #
point $-1 -67.06664207623929 -19.415973182764958 10.06451575971772 #
vertex $-1 $501 $663 #
point $-1 -67.06664207623929 -12.995881219520577 10.06451575971772 #
coedge $-1 $516 $515 $508 $612 forward $505 $-1 #
edge $-1 $613 30.431928512448522 $616 36.60955949681501 $611 $664 forward 7 unknown #
vertex $-1 $520 $665 #
straight-curve $-1 -95.044013243095321 25.9156941733144 12.938096255105101 -1 0 0 I I #
edge $-1 $616 -16.702900731883091 $517 -1.722686150979527 $516 $666 forward 7 unknown #
vertex $-1 $615 $667 #
straight-curve $-1 -71.513412884914686 25.9156941733144 6.760465270738635 0.55919289150049634 0 0.82903758062907751 I I #
point $-1 -67.346548301828278 25.9156941733144 12.9380962551051 #
point $-1 -71.5134128849147 10.935479592410836 6.7604652707386137 #
straight-curve $-1 -71.5134128849147 0 12.9380962551051 0 -1 0 I I #
vertex $-1 $523 $668 #
point $-1 -67.06664207623929 15.215540901240416 10.06451575971772 #
vertex $-1 $527 $669 #
point $-1 -67.06664207623929 21.635632864484805 10.06451575971772 #
straight-curve $-1 -71.5134128849147 48.457228418872162 0 0 0 -1 I I #
point $-1 -71.5134128849147 -48.457228418872162 -12.9380962551051 #
straight-curve $-1 -71.5134128849147 0 -12.9380962551051 0 1 0 I I #
point $-1 -71.5134128849147 48.457228418872162 -12.9380962551051 #
coedge $-1 $633 $548 $549 $630 reversed $409 $-1 #
edge $-1 $631 -71.5134128849147 $557 71.5134128849147 $629 $670 forward 7 unknown #
vertex $-1 $635 $671 #
straight-curve $-1 71.5134128849147 -55.370085586305557 -1.5001499399370193 0 -1 0 I I #
coedge $-1 $551 $629 $553 $635 reversed $409 $-1 #
straight-curve $-1 0 -62.282942753738951 2.4509702110177418 1 0 0 I I #
edge $-1 $554 -1.9755600754773806 $631 1.9755600754773806 $553 $672 forward 7 unknown #
point $-1 71.5134128849147 -62.282942753738951 2.4509702110177418 #
straight-curve $-1 -71.5134128849147 -62.282942753738951 0.47541013554036127 0 0 -1 I I #
point $-1 -71.5134128849147 -62.282942753738951 -1.5001499399370193 #
point $-1 -71.5134128849147 -62.282942753738951 2.4509702110177418 #
coedge $-1 $642 $565 $566 $641 reversed $430 $-1 #
edge $-1 $648 -71.5134128849147 $572 71.5134128849147 $640 $673 forward 7 unknown #
coedge $-1 $567 $640 $577 $647 reversed $430 $-1 #
straight-curve $-1 0 62.282942753738958 2.4509702110177418 -1 0 0 I I #
point $-1 71.5134128849147 62.282942753738958 2.4509702110177418 #
straight-curve $-1 71.5134128849147 62.282942753738958 0.47541013554036127 0 0 -1 I I #
point $-1 71.5134128849147 62.282942753738958 -1.5001499399370193 #
edge $-1 $580 -1.9755600754773806 $648 1.9755600754773806 $642 $674 forward 7 unknown #
vertex $-1 $641 $675 #
straight-curve $-1 -71.5134128849147 55.370085586305564 -1.5001499399370193 0 1 0 I I #
point $-1 -71.5134128849147 62.282942753738958 2.4509702110177418 #
straight-curve $-1 71.5134128849147 -15.171837489981215 105.07044287445075 0 0 -1 I I #
point $-1 71.5134128849147 -15.171837489981215 12.9380962551051 #
straight-curve $-1 71.5134128849147 -4.602125325200582 8.9784680758041802 0 1 0 I I #
point $-1 71.5134128849147 -15.171837489981215 8.9784680758041873 #
point $-1 68.429280589630864 -12.784802754149197 9.7590645202912469 #
point $-1 68.429280589630864 -9.2042506504011641 9.7590645202912469 #
point $-1 68.429280589630864 -5.6236985466531308 9.7590645202912469 #
straight-curve $-1 -71.5134128849147 -8.7158199106909819 43.370024767553623 0 0 -1 I I #
point $-1 -71.5134128849147 -8.7158199106909819 12.9380962551051 #
straight-curve $-1 -71.5134128849147 -8.1029636005713819 6.760465270738595 0 -1 0 I I #
point $-1 -71.5134128849147 -8.7158199106909819 6.7604652707386137 #
point $-1 -66.661875042546413 -19.415973182764958 7.9821700515233598 #
point $-1 -66.661875042546413 -12.995881219520577 7.9821700515233598 #
straight-curve $-1 -71.5134128849147 25.9156941733144 43.370024767553623 0 0 -1 I I #
point $-1 -71.5134128849147 25.9156941733144 12.9380962551051 #
straight-curve $-1 -71.5134128849147 9.2127934414313088 6.760465270738595 0 -1 0 I I #
point $-1 -71.5134128849147 25.9156941733144 6.7604652707386137 #
point $-1 -66.661875042546413 15.215540901240416 7.9821700515233598 #
point $-1 -66.661875042546413 21.635632864484805 7.9821700515233598 #
straight-curve $-1 0 -62.282942753738951 -1.5001499399370193 -1 0 0 I I #
point $-1 71.5134128849147 -62.282942753738951 -1.5001499399370193 #
straight-curve $-1 71.5134128849147 -62.282942753738951 0.47541013554036127 0 0 -1 I I #
straight-curve $-1 0 62.282942753738958 -1.5001499399370193 1 0 0 I I #
straight-curve $-1 -71.5134128849147 62.282942753738958 0.47541013554036127 0 0 -1 I I #
point $-1 -71.5134128849147 62.282942753738958 -1.5001499399370193 #
End-of-ACIS-data 