500 0 8 0           
7 Unknown 11 ACIS 5.0 NT 24 Thu Mar 25 19:22:47 1999 
-1 9.9999999999999995e-007 1e-010 
body $-1 $8 $-1 $9 #
body $-1 $10 $-1 $11 #
body $-1 $12 $-1 $13 #
body $-1 $14 $-1 $15 #
body $-1 $16 $-1 $17 #
body $-1 $18 $-1 $19 #
body $-1 $20 $-1 $21 #
body $-1 $22 $-1 $23 #
lump $-1 $-1 $24 $0 #
transform $-1 1 0 0 0 1 0 0 0 1 42.508621478926969 22.373102058883223 8.1899741989163637 1 rotate no_reflect no_shear #
lump $-1 $-1 $25 $1 #
transform $-1 1 0 0 0 1 0 0 0 1 42.508621478926969 22.373102058883223 8.1899741989163637 1 rotate no_reflect no_shear #
lump $-1 $-1 $26 $2 #
transform $-1 1 0 0 0 1 0 0 0 1 42.508621478926969 22.373102058883223 8.1899741989163637 1 rotate no_reflect no_shear #
lump $-1 $-1 $27 $3 #
transform $-1 1 0 0 0 1 0 0 0 1 42.508621478926969 22.373102058883223 8.1899741989163637 1 rotate no_reflect no_shear #
lump $-1 $-1 $28 $4 #
transform $-1 1 0 0 0 1 0 0 0 1 42.508621478926969 22.373102058883223 8.1899741989163637 1 rotate no_reflect no_shear #
lump $-1 $-1 $29 $5 #
transform $-1 1 0 0 0 1 0 0 0 1 42.508621478926969 22.373102058883223 8.1899741989163637 1 rotate no_reflect no_shear #
lump $-1 $-1 $30 $6 #
transform $-1 1 0 0 0 1 0 0 0 1 42.508621478926969 22.373102058883223 8.1899741989163637 1 rotate no_reflect no_shear #
lump $-1 $-1 $31 $7 #
transform $-1 1 0 0 0 1 0 0 0 1 42.508621478926969 22.373102058883223 8.1899741989163637 1 rotate no_reflect no_shear #
shell $-1 $-1 $-1 $32 $-1 $8 #
shell $-1 $-1 $-1 $33 $-1 $10 #
shell $-1 $-1 $-1 $34 $-1 $12 #
shell $-1 $-1 $-1 $35 $-1 $14 #
shell $-1 $-1 $-1 $36 $-1 $16 #
shell $-1 $-1 $-1 $37 $-1 $18 #
shell $-1 $-1 $-1 $38 $-1 $20 #
shell $-1 $-1 $-1 $39 $-1 $22 #
face $-1 $40 $41 $24 $-1 $42 forward single #
face $-1 $43 $44 $25 $-1 $45 reversed single #
face $-1 $46 $47 $26 $-1 $48 reversed single #
face $-1 $49 $50 $27 $-1 $51 reversed single #
face $-1 $52 $53 $28 $-1 $54 forward single #
face $-1 $55 $56 $29 $-1 $57 reversed single #
face $-1 $58 $59 $30 $-1 $60 forward single #
face $-1 $61 $62 $31 $-1 $63 forward single #
face $-1 $64 $65 $24 $-1 $66 reversed single #
loop $-1 $-1 $67 $32 #
plane-surface $-1 0 0 8.1899741989163637 0 0 1 1 0 0 forward_v I I I I #
face $-1 $68 $69 $25 $-1 $70 reversed single #
loop $-1 $-1 $71 $33 #
plane-surface $-1 -30.465973749538172 -16.997660095603067 0 1 0 0 0 0 -1 forward_v I I I I #
face $-1 $72 $73 $26 $-1 $74 reversed single #
loop $-1 $-1 $75 $34 #
plane-surface $-1 -28.965973749538172 11.622218132322907 0 0 1 0 0 0 1 forward_v I I I I #
face $-1 $76 $77 $27 $-1 $78 reversed single #
loop $-1 $-1 $79 $35 #
plane-surface $-1 -98.284952019590932 -8.8404817999268204 64.3598894882672 0 1 0 -0.6560590369687036 0 0.75470957328743171 forward_v I I I I #
face $-1 $80 $81 $28 $-1 $82 forward single #
loop $-1 $83 $84 $36 #
cone-surface $-1 -36.605391468291479 -5.7361146608921239 2.6914095742663937 0.6560590369687036 0 -0.75470957328743171 1.1320643599311475 0 0.9840885554530554 1 I I 0 1 1.5 forward I I I I #
face $-1 $85 $86 $29 $-1 $87 reversed single #
loop $-1 $-1 $88 $37 #
plane-surface $-1 42.508622873931202 -5.0105408512634311 122.52381177031762 0 -1 0 -0.70710678939079041 0 -0.70710677298230451 forward_v I I I I #
face $-1 $89 $90 $30 $-1 $91 forward single #
loop $-1 $92 $93 $38 #
cone-surface $-1 39.205717925089409 -9.7331674805916322 4.8870705848430624 -0.70710678939079041 0 -0.70710677298230451 0.35355338649115226 0 -0.35355339469539521 1 I I 0 1 0.5 forward I I I I #
face $-1 $94 $95 $31 $-1 $96 forward single #
loop $-1 $97 $98 $39 #
cone-surface $-1 39.205717925089409 -6.8995915029947117 4.8870705848430624 -0.70710678939079041 0 -0.70710677298230451 0.35355338649115226 0 -0.35355339469539521 1 I I 0 1 0.5 forward I I I I #
face $-1 $99 $100 $24 $-1 $101 reversed single #
loop $-1 $-1 $102 $40 #
plane-surface $-1 0 0 -8.1899741989163637 0 0 1 1 0 0 forward_v I I I I #
coedge $-1 $103 $104 $105 $106 forward $41 $-1 #
face $-1 $107 $108 $25 $-1 $109 reversed single #
loop $-1 $-1 $110 $43 #
plane-surface $-1 -28.965973749538172 -11.62221813232291 0 0 -1 0 0 0 -1 forward_v I I I I #
coedge $-1 $111 $112 $113 $114 forward $44 $-1 #
face $-1 $115 $116 $26 $-1 $117 reversed single #
loop $-1 $-1 $118 $46 #
plane-surface $-1 -30.465973749538172 16.997660095603063 0 1 0 0 0 0 -1 forward_v I I I I #
coedge $-1 $119 $120 $121 $122 forward $47 $-1 #
face $-1 $123 $124 $27 $-1 $125 reversed single #
loop $-1 $-1 $126 $49 #
plane-surface $-1 -42.508621478926976 -5.7361146608921239 0.19656233347134844 -0.6560590369687036 0 0.75470957328743171 0.75470957328743171 0 0.6560590369687036 forward_v I I I I #
coedge $-1 $127 $128 $129 $130 reversed $50 $-1 #
face $-1 $-1 $131 $28 $-1 $132 forward single #
loop $-1 $133 $134 $52 #
cone-surface $-1 -34.807801319724717 -5.7361146608921239 0.62351870237336371 0.6560590369687036 0 -0.75470957328743171 0.56603217996557376 0 0.4920442777265277 1 I I -0.70710678118654757 0.70710678118654757 0.75 forward I I I I #
loop $-1 $-1 $135 $36 #
coedge $-1 $84 $84 $136 $137 reversed $53 $-1 #
face $-1 $138 $139 $29 $-1 $140 reversed single #
loop $-1 $-1 $141 $55 #
plane-surface $-1 -17.607646836853682 -8.316379491793171 62.40754345453697 0.70710678939079041 0 0.70710677298230451 0.70710677298230451 0 -0.70710678939079041 forward_v I I I I #
coedge $-1 $142 $143 $144 $145 reversed $56 $-1 #
face $-1 $-1 $146 $30 $-1 $147 forward single #
loop $-1 $148 $149 $58 #
cone-surface $-1 38.675387833046315 -9.7331674805916322 4.3567405051063339 -0.70710678939079041 0 -0.70710677298230451 0.17677669324557613 0 -0.1767766973476976 1 I I -0.70710678118654746 0.70710678118654746 0.25 forward I I I I #
loop $-1 $-1 $150 $38 #
coedge $-1 $93 $93 $151 $152 reversed $59 $-1 #
face $-1 $-1 $153 $31 $-1 $154 forward single #
loop $-1 $155 $156 $61 #
cone-surface $-1 38.675387833046315 -6.8995915029947117 4.3567405051063339 -0.70710678939079041 0 -0.70710677298230451 0.17677669324557613 0 -0.1767766973476976 1 I I -0.70710678118654746 0.70710678118654746 0.25 forward I I I I #
loop $-1 $-1 $157 $39 #
coedge $-1 $98 $98 $158 $159 reversed $62 $-1 #
face $-1 $160 $161 $24 $-1 $162 reversed single #
loop $-1 $-1 $163 $64 #
plane-surface $-1 0 -22.373102058883223 0 0 1 0 0 0 1 forward_v I I I I #
coedge $-1 $164 $165 $166 $167 forward $65 $-1 #
coedge $-1 $168 $67 $169 $170 forward $41 $-1 #
coedge $-1 $67 $168 $171 $172 forward $41 $-1 #
coedge $-1 $173 $174 $67 $106 reversed $175 $-1 #
edge $-1 $176 -22.373102058883223 $177 22.373102058883223 $105 $178 forward 7 unknown #
face $-1 $179 $180 $25 $-1 $181 forward single #
loop $-1 $-1 $182 $68 #
plane-surface $-1 -27.465973749538172 -16.997660095603067 0 -1 0 0 0 0 1 forward_v I I I I #
coedge $-1 $183 $184 $185 $186 forward $69 $-1 #
coedge $-1 $187 $71 $188 $189 reversed $44 $-1 #
coedge $-1 $71 $187 $190 $191 reversed $44 $-1 #
coedge $-1 $184 $183 $71 $114 reversed $69 $-1 #
edge $-1 $192 -8.1899741989163637 $193 8.1899741989163637 $113 $194 forward 7 unknown #
face $-1 $195 $196 $26 $-1 $197 reversed single #
loop $-1 $-1 $198 $72 #
plane-surface $-1 -27.465973749538172 16.997660095603063 0 -1 0 0 0 0 1 forward_v I I I I #
coedge $-1 $199 $200 $201 $202 reversed $73 $-1 #
coedge $-1 $203 $75 $204 $205 reversed $47 $-1 #
coedge $-1 $75 $203 $206 $207 reversed $47 $-1 #
coedge $-1 $200 $199 $75 $122 reversed $73 $-1 #
edge $-1 $208 -8.1899741989163637 $209 8.1899741989163637 $121 $210 forward 7 unknown #
face $-1 $211 $212 $27 $-1 $213 reversed single #
loop $-1 $-1 $214 $76 #
plane-surface $-1 -98.284952019590932 -2.6317475218574264 64.3598894882672 0 -1 0 0.6560590369687036 0 -0.75470957328743171 forward_v I I I I #
coedge $-1 $215 $216 $217 $218 reversed $77 $-1 #
coedge $-1 $128 $79 $219 $220 reversed $50 $-1 #
coedge $-1 $79 $127 $215 $221 reversed $50 $-1 #
coedge $-1 $217 $222 $79 $130 forward $223 $-1 #
edge $-1 $224 6.6338545308684971 $225 15.82922281045898 $129 $226 forward 7 unknown #
loop $-1 $-1 $136 $80 #
plane-surface $-1 -42.508621478926976 -5.7361146608921239 0.19656233347134844 -0.6560590369687036 0 0.75470957328743171 0.75470957328743171 0 0.6560590369687036 forward_v I I I I #
loop $-1 $-1 $227 $52 #
coedge $-1 $134 $134 $135 $228 reversed $81 $-1 #
coedge $-1 $135 $135 $134 $228 forward $83 $-1 #
coedge $-1 $136 $136 $84 $137 forward $131 $-1 #
edge $-1 $229 0 $229 6.2831853071796004 $136 $230 forward 7 unknown #
face $-1 $231 $232 $29 $-1 $233 forward single #
loop $-1 $-1 $234 $85 #
plane-surface $-1 42.508622873931202 -11.62221813232291 122.52381177031762 0 1 0 0.70710678939079041 0 0.70710677298230451 forward_v I I I I #
coedge $-1 $235 $236 $237 $238 reversed $86 $-1 #
coedge $-1 $143 $88 $239 $240 reversed $56 $-1 #
coedge $-1 $88 $142 $235 $241 reversed $56 $-1 #
coedge $-1 $237 $242 $88 $145 forward $232 $-1 #
edge $-1 $243 -21.254310041961368 $244 -15.355609723677034 $144 $245 forward 7 unknown #
loop $-1 $-1 $151 $89 #
plane-surface $-1 -17.607646836853682 -8.316379491793171 62.40754345453697 0.70710678939079041 0 0.70710677298230451 0.70710677298230451 0 -0.70710678939079041 forward_v I I I I #
loop $-1 $-1 $246 $58 #
coedge $-1 $149 $149 $150 $247 reversed $90 $-1 #
coedge $-1 $150 $150 $149 $247 forward $92 $-1 #
coedge $-1 $151 $151 $93 $152 forward $146 $-1 #
edge $-1 $248 0 $248 6.2831853071796004 $151 $249 forward 7 unknown #
loop $-1 $-1 $158 $94 #
plane-surface $-1 -17.607646836853682 -8.316379491793171 62.40754345453697 0.70710678939079041 0 0.70710677298230451 0.70710677298230451 0 -0.70710678939079041 forward_v I I I I #
loop $-1 $-1 $250 $61 #
coedge $-1 $156 $156 $157 $251 reversed $95 $-1 #
coedge $-1 $157 $157 $156 $251 forward $97 $-1 #
coedge $-1 $158 $158 $98 $159 forward $153 $-1 #
edge $-1 $252 0 $252 6.2831853071796004 $158 $253 forward 7 unknown #
face $-1 $254 $255 $24 $-1 $256 reversed single #
loop $-1 $-1 $257 $99 #
plane-surface $-1 -42.508621478926969 0 0 1 0 0 0 0 -1 forward_v I I I I #
coedge $-1 $258 $171 $259 $260 forward $100 $-1 #
coedge $-1 $261 $102 $258 $262 forward $65 $-1 #
coedge $-1 $102 $261 $263 $264 forward $65 $-1 #
coedge $-1 $174 $173 $102 $167 reversed $175 $-1 #
edge $-1 $265 -22.373102058883223 $266 22.373102058883223 $166 $267 forward 7 unknown #
coedge $-1 $104 $103 $268 $269 forward $41 $-1 #
coedge $-1 $270 $271 $103 $170 reversed $255 $-1 #
edge $-1 $177 -42.508621478926969 $272 42.508621478926969 $169 $273 forward 7 unknown #
coedge $-1 $163 $274 $104 $172 reversed $100 $-1 #
edge $-1 $275 -42.508621478926969 $176 42.508621478926969 $171 $276 forward 7 unknown #
coedge $-1 $166 $105 $274 $277 forward $175 $-1 #
coedge $-1 $105 $166 $270 $278 reversed $175 $-1 #
loop $-1 $-1 $173 $254 #
vertex $-1 $106 $279 #
vertex $-1 $106 $280 #
straight-curve $-1 42.508621478926969 0 8.1899741989163637 0 1 0 I I #
face $-1 $281 $282 $25 $-1 $283 reversed single #
loop $-1 $-1 $284 $107 #
plane-surface $-1 0 0 8.1899741989163637 0 0 1 1 0 0 forward_v I I I I #
coedge $-1 $285 $286 $287 $288 reversed $108 $-1 #
coedge $-1 $113 $110 $289 $290 reversed $69 $-1 #
coedge $-1 $110 $113 $291 $292 reversed $69 $-1 #
coedge $-1 $286 $285 $110 $186 reversed $108 $-1 #
edge $-1 $293 -8.1899741989163637 $294 8.1899741989163637 $185 $295 forward 7 unknown #
coedge $-1 $112 $111 $296 $297 reversed $44 $-1 #
coedge $-1 $289 $298 $111 $189 forward $282 $-1 #
edge $-1 $299 -13.87427201108169 $193 -3.1233880845213768 $188 $300 forward 7 unknown #
coedge $-1 $301 $291 $112 $191 forward $180 $-1 #
edge $-1 $192 3.1233880845213768 $302 13.87427201108169 $190 $303 forward 7 unknown #
vertex $-1 $191 $304 #
vertex $-1 $189 $305 #
straight-curve $-1 -30.465973749538172 -11.62221813232291 0 0 0 -1 I I #
face $-1 $306 $307 $26 $-1 $308 forward single #
loop $-1 $-1 $309 $115 #
plane-surface $-1 0 0 -8.1899741989163637 0 0 1 1 0 0 forward_v I I I I #
coedge $-1 $310 $311 $203 $312 forward $116 $-1 #
coedge $-1 $121 $118 $313 $314 reversed $73 $-1 #
coedge $-1 $118 $121 $315 $316 reversed $73 $-1 #
coedge $-1 $317 $318 $118 $202 forward $319 $-1 #
edge $-1 $320 -8.1899741989163637 $321 8.1899741989163637 $201 $322 forward 7 unknown #
coedge $-1 $120 $119 $198 $312 reversed $47 $-1 #
coedge $-1 $313 $309 $119 $205 forward $196 $-1 #
edge $-1 $323 12.982986874769086 $209 15.982986874769086 $204 $324 forward 7 unknown #
coedge $-1 $325 $315 $120 $207 forward $307 $-1 #
edge $-1 $208 -15.982986874769086 $326 -12.982986874769086 $206 $327 forward 7 unknown #
vertex $-1 $207 $328 #
vertex $-1 $205 $329 #
straight-curve $-1 -30.465973749538172 11.622218132322907 0 0 0 -1 I I #
face $-1 $-1 $223 $27 $-1 $330 forward single #
loop $-1 $-1 $331 $123 #
plane-surface $-1 -42.508621478926969 0 0 1 0 0 0 0 -1 forward_v I I I I #
coedge $-1 $332 $333 $334 $335 reversed $124 $-1 #
coedge $-1 $336 $126 $128 $221 forward $77 $-1 #
coedge $-1 $126 $336 $332 $337 forward $77 $-1 #
coedge $-1 $334 $129 $126 $218 forward $223 $-1 #
edge $-1 $225 -5.9724244694807584 $338 0.23630980858863548 $217 $339 forward 7 unknown #
coedge $-1 $340 $341 $127 $220 forward $212 $-1 #
edge $-1 $342 -31.983382410662244 $224 -23.989970545217236 $219 $343 forward 7 unknown #
edge $-1 $225 -12.183982561048589 $342 -9.4232071036649382e-015 $128 $344 forward 7 unknown #
coedge $-1 $129 $334 $340 $345 forward $223 $-1 #
loop $-1 $-1 $334 $211 #
vertex $-1 $220 $346 #
vertex $-1 $130 $347 #
straight-curve $-1 -49.142476009795466 -8.8404817999268204 8.1899741989163637 1 0 0 I I #
coedge $-1 $227 $227 $-1 $348 reversed $133 $-1 #
edge $-1 $349 0 $349 6.2831853071796004 $134 $350 forward 7 unknown #
vertex $-1 $137 $351 #
ellipse-curve $-1 -37.910937339131728 -5.7361146608921239 4.1932682661938614 -0.6560590369687036 0 0.75470957328743171 1.1320643599311475 0 0.9840885554530554 1 I I #
face $-1 $-1 $352 $29 $-1 $353 reversed single #
loop $-1 $-1 $144 $138 #
plane-surface $-1 0 0 8.1899741989163637 0 0 1 1 0 0 forward_v I I I I #
coedge $-1 $354 $355 $356 $357 reversed $139 $-1 #
coedge $-1 $358 $141 $143 $241 forward $86 $-1 #
coedge $-1 $141 $358 $354 $359 forward $86 $-1 #
coedge $-1 $356 $144 $141 $238 forward $232 $-1 #
edge $-1 $244 0.85235110536684555 $360 7.4640283864263246 $237 $361 forward 7 unknown #
coedge $-1 $362 $363 $142 $240 forward $352 $-1 #
edge $-1 $364 -58.970632141406725 $243 -53.071931686242451 $239 $365 forward 7 unknown #
edge $-1 $244 76.675220870573028 $364 85.017242957853952 $143 $366 forward 7 unknown #
coedge $-1 $144 $356 $362 $367 forward $232 $-1 #
vertex $-1 $145 $368 #
vertex $-1 $145 $369 #
straight-curve $-1 21.254311436965601 -5.0105408512634311 8.1899741989163601 -1 0 0 I I #
coedge $-1 $246 $246 $-1 $370 reversed $148 $-1 #
edge $-1 $371 0 $371 6.2831853071796004 $149 $372 forward 7 unknown #
vertex $-1 $152 $373 #
ellipse-curve $-1 39.559271319784813 -9.7331674805916322 5.2406239713342195 0.70710678939079041 0 0.70710677298230451 0.35355338649115226 0 -0.35355339469539521 1 I I #
coedge $-1 $250 $250 $-1 $374 reversed $155 $-1 #
edge $-1 $375 0 $375 6.2831853071796004 $156 $376 forward 7 unknown #
vertex $-1 $159 $377 #
ellipse-curve $-1 39.559271319784813 -6.8995915029947117 5.2406239713342195 0.70710678939079041 0 0.70710677298230451 0.35355338649115226 0 -0.35355339469539521 1 I I #
face $-1 $-1 $175 $24 $-1 $378 reversed single #
loop $-1 $-1 $270 $160 #
plane-surface $-1 0 22.373102058883223 0 0 -1 0 0 0 -1 forward_v I I I I #
coedge $-1 $379 $268 $271 $380 forward $161 $-1 #
coedge $-1 $274 $163 $164 $262 reversed $100 $-1 #
coedge $-1 $268 $379 $163 $260 reversed $161 $-1 #
edge $-1 $275 -8.1899741989163637 $381 8.1899741989163637 $259 $382 forward 7 unknown #
coedge $-1 $165 $164 $379 $383 forward $65 $-1 #
edge $-1 $266 -42.508621478926969 $381 42.508621478926969 $258 $384 forward 7 unknown #
coedge $-1 $271 $270 $165 $264 reversed $255 $-1 #
edge $-1 $385 -42.508621478926969 $265 42.508621478926969 $263 $386 forward 7 unknown #
vertex $-1 $167 $387 #
vertex $-1 $277 $388 #
straight-curve $-1 42.508621478926969 0 -8.1899741989163637 0 -1 0 I I #
coedge $-1 $257 $259 $168 $269 reversed $161 $-1 #
edge $-1 $272 -22.373102058883223 $275 22.373102058883223 $268 $389 forward 7 unknown #
coedge $-1 $263 $169 $174 $278 forward $255 $-1 #
coedge $-1 $169 $263 $257 $380 reversed $255 $-1 #
vertex $-1 $170 $390 #
straight-curve $-1 0 22.373102058883223 8.1899741989163637 -1 0 0 I I #
coedge $-1 $171 $258 $173 $277 reversed $100 $-1 #
vertex $-1 $269 $391 #
straight-curve $-1 0 -22.373102058883223 8.1899741989163637 1 0 0 I I #
edge $-1 $176 -8.1899741989163637 $266 8.1899741989163637 $173 $392 forward 7 unknown #
edge $-1 $177 -8.1899741989163637 $265 8.1899741989163637 $174 $393 forward 7 unknown #
point $-1 42.508621478926969 -22.373102058883223 8.1899741989163637 #
point $-1 42.508621478926969 22.373102058883223 8.1899741989163637 #
face $-1 $-1 $394 $25 $-1 $395 reversed single #
loop $-1 $-1 $396 $179 #
plane-surface $-1 0 0 -8.1899741989163637 0 0 1 1 0 0 forward_v I I I I #
coedge $-1 $291 $301 $286 $397 forward $180 $-1 #
coedge $-1 $185 $182 $396 $398 reversed $108 $-1 #
coedge $-1 $182 $185 $284 $397 reversed $108 $-1 #
coedge $-1 $399 $400 $182 $288 forward $394 $-1 #
edge $-1 $401 -8.1899741989163637 $402 8.1899741989163637 $287 $403 forward 7 unknown #
coedge $-1 $396 $188 $183 $290 forward $282 $-1 #
edge $-1 $193 -15.982986874769086 $294 -12.982986874769086 $289 $404 forward 7 unknown #
coedge $-1 $190 $284 $184 $292 forward $180 $-1 #
edge $-1 $293 12.982986874769086 $192 15.982986874769086 $291 $405 forward 7 unknown #
vertex $-1 $292 $406 #
vertex $-1 $290 $407 #
straight-curve $-1 -27.465973749538172 -11.62221813232291 0 0 0 -1 I I #
coedge $-1 $400 $399 $187 $297 forward $394 $-1 #
edge $-1 $302 -8.1899741989163637 $299 8.1899741989163637 $296 $408 forward 7 unknown #
coedge $-1 $188 $396 $400 $409 forward $282 $-1 #
vertex $-1 $189 $410 #
straight-curve $-1 -30.465973749538172 -8.4988300478015333 -8.1899741989163637 0 1 0 I I #
coedge $-1 $284 $190 $399 $411 forward $180 $-1 #
vertex $-1 $411 $412 #
straight-curve $-1 -30.465973749538172 -8.4988300478015333 8.1899741989163637 0 -1 0 I I #
point $-1 -30.465973749538172 -11.62221813232291 8.1899741989163637 #
point $-1 -30.465973749538172 -11.62221813232291 -8.1899741989163637 #
face $-1 $-1 $319 $26 $-1 $413 reversed single #
loop $-1 $-1 $325 $195 #
plane-surface $-1 0 0 8.1899741989163637 0 0 1 1 0 0 forward_v I I I I #
coedge $-1 $204 $414 $310 $415 forward $196 $-1 #
coedge $-1 $416 $198 $309 $415 reversed $116 $-1 #
coedge $-1 $198 $416 $325 $417 reversed $116 $-1 #
edge $-1 $326 -8.1899741989163637 $323 8.1899741989163637 $198 $418 forward 7 unknown #
coedge $-1 $414 $204 $199 $314 forward $196 $-1 #
edge $-1 $209 3.1233880845213751 $320 13.874272011081688 $313 $419 forward 7 unknown #
coedge $-1 $206 $420 $200 $316 forward $307 $-1 #
edge $-1 $321 -13.874272011081688 $208 -3.1233880845213751 $315 $421 forward 7 unknown #
coedge $-1 $422 $201 $420 $423 reversed $319 $-1 #
coedge $-1 $201 $422 $414 $424 reversed $319 $-1 #
loop $-1 $-1 $422 $306 #
vertex $-1 $424 $425 #
vertex $-1 $202 $426 #
straight-curve $-1 -30.465973749538172 22.373102058883223 0 0 0 1 I I #
vertex $-1 $205 $427 #
straight-curve $-1 -14.482986874769086 11.622218132322907 -8.1899741989163637 -1 0 0 I I #
coedge $-1 $420 $206 $311 $417 forward $307 $-1 #
vertex $-1 $207 $428 #
straight-curve $-1 -14.482986874769086 11.622218132322907 8.1899741989163637 1 0 0 I I #
point $-1 -30.465973749538172 11.622218132322907 8.1899741989163637 #
point $-1 -30.465973749538172 11.622218132322907 -8.1899741989163637 #
plane-surface $-1 0 0 8.1899741989163637 0 0 1 1 0 0 forward_v I I I I #
coedge $-1 $341 $340 $333 $429 forward $212 $-1 #
coedge $-1 $333 $214 $216 $337 reversed $124 $-1 #
coedge $-1 $214 $332 $331 $429 reversed $124 $-1 #
coedge $-1 $222 $217 $214 $335 forward $223 $-1 #
edge $-1 $338 -15.82922281045898 $430 -6.6338545308684971 $334 $431 forward 7 unknown #
coedge $-1 $216 $215 $341 $432 reversed $77 $-1 #
edge $-1 $433 9.4232071036649382e-015 $338 12.183982561048589 $332 $434 forward 7 unknown #
vertex $-1 $218 $435 #
straight-curve $-1 -33.313253199336486 -2.8680573304460619 8.1899741989163637 0 1 0 I I #
coedge $-1 $331 $219 $222 $345 reversed $212 $-1 #
coedge $-1 $219 $331 $336 $432 forward $212 $-1 #
vertex $-1 $220 $436 #
straight-curve $-1 -42.508621478926969 -8.8404817999268204 32.1799447441336 0 0 1 I I #
straight-curve $-1 -42.508621478926976 -8.8404817999268204 0.19656233347134844 -0.75470957328743171 0 -0.6560590369687036 I I #
edge $-1 $430 2.6317475218574264 $224 8.8404817999268204 $340 $437 forward 7 unknown #
point $-1 -42.508621478926969 -8.8404817999268204 8.1899741989163637 #
point $-1 -33.313253199336486 -8.8404817999268204 8.1899741989163637 #
edge $-1 $438 1 $438 0 $227 $-1 forward 7 unknown #
vertex $-1 $228 $439 #
ellipse-curve $-1 -35.299845597451245 -5.7361146608921239 1.1895508823389376 -0.6560590369687036 0 0.75470957328743171 1.1320643599311475 0 0.9840885554530554 1 I I #
point $-1 -36.778872979200571 -5.7361146608921239 5.1773568216469048 #
loop $-1 $-1 $239 $231 #
plane-surface $-1 42.508621478926969 0 0 -1 0 0 0 0 1 forward_v I I I I #
coedge $-1 $355 $234 $236 $359 reversed $139 $-1 #
coedge $-1 $234 $354 $440 $441 reversed $139 $-1 #
coedge $-1 $242 $237 $234 $357 forward $232 $-1 #
edge $-1 $360 15.355609723677034 $442 21.254310041961368 $356 $443 forward 7 unknown #
coedge $-1 $236 $235 $363 $444 reversed $86 $-1 #
edge $-1 $445 -85.017242957853952 $360 -76.675220870573028 $354 $446 forward 7 unknown #
vertex $-1 $238 $447 #
straight-curve $-1 36.609921160642642 -4.1581897458965855 8.1899741989163601 0 -1 0 I I #
coedge $-1 $440 $239 $242 $367 reversed $352 $-1 #
coedge $-1 $239 $440 $358 $444 forward $352 $-1 #
vertex $-1 $240 $448 #
straight-curve $-1 42.508621478926969 -5.0105408512634311 61.261905885158811 0 0 1 I I #
straight-curve $-1 -17.607646836853682 -5.0105408512634311 62.40754345453697 0.70710677298230451 0 -0.70710678939079041 I I #
edge $-1 $442 -11.62221813232291 $243 -5.0105408512634311 $362 $449 forward 7 unknown #
point $-1 42.508621478926969 -5.0105408512634311 8.1899741989163637 #
point $-1 36.609921160642635 -5.0105408512634311 8.1899741989163743 #
edge $-1 $450 1 $450 0 $246 $-1 forward 7 unknown #
vertex $-1 $247 $451 #
ellipse-curve $-1 38.852164530394013 -9.7331674805916322 4.5335171983519098 0.70710678939079041 0 0.70710677298230451 0.35355338649115226 0 -0.35355339469539521 1 I I #
point $-1 39.912824706275956 -9.7331674805916322 4.8870705766388198 #
edge $-1 $452 1 $452 0 $250 $-1 forward 7 unknown #
vertex $-1 $251 $453 #
ellipse-curve $-1 38.852164530394013 -6.8995915029947117 4.5335171983519098 0.70710678939079041 0 0.70710677298230451 0.35355338649115226 0 -0.35355339469539521 1 I I #
point $-1 39.912824706275956 -6.8995915029947117 4.8870705766388198 #
plane-surface $-1 42.508621478926969 0 0 -1 0 0 0 0 1 forward_v I I I I #
coedge $-1 $259 $257 $261 $383 reversed $161 $-1 #
edge $-1 $272 -8.1899741989163637 $385 8.1899741989163637 $271 $454 forward 7 unknown #
vertex $-1 $383 $455 #
straight-curve $-1 -42.508621478926969 -22.373102058883223 0 0 0 -1 I I #
edge $-1 $381 -22.373102058883223 $385 22.373102058883223 $379 $456 forward 7 unknown #
straight-curve $-1 0 -22.373102058883223 -8.1899741989163637 -1 0 0 I I #
vertex $-1 $264 $457 #
straight-curve $-1 0 22.373102058883223 -8.1899741989163637 1 0 0 I I #
point $-1 42.508621478926969 22.373102058883223 -8.1899741989163637 #
point $-1 42.508621478926969 -22.373102058883223 -8.1899741989163637 #
straight-curve $-1 -42.508621478926969 0 8.1899741989163637 0 -1 0 I I #
point $-1 -42.508621478926969 22.373102058883223 8.1899741989163637 #
point $-1 -42.508621478926969 -22.373102058883223 8.1899741989163637 #
straight-curve $-1 42.508621478926969 -22.373102058883223 0 0 0 -1 I I #
straight-curve $-1 42.508621478926969 22.373102058883223 0 0 0 -1 I I #
loop $-1 $-1 $287 $281 #
plane-surface $-1 0 -22.373102058883223 0 0 1 0 0 0 1 forward_v I I I I #
coedge $-1 $298 $289 $285 $398 forward $282 $-1 #
edge $-1 $402 -13.87427201108169 $293 -3.1233880845213768 $284 $458 forward 7 unknown #
edge $-1 $294 3.1233880845213768 $401 13.87427201108169 $396 $459 forward 7 unknown #
coedge $-1 $296 $287 $301 $411 reversed $394 $-1 #
coedge $-1 $287 $296 $298 $409 reversed $394 $-1 #
vertex $-1 $409 $460 #
vertex $-1 $288 $461 #
straight-curve $-1 -27.465973749538172 -22.373102058883223 0 0 0 1 I I #
straight-curve $-1 -14.482986874769086 -11.62221813232291 -8.1899741989163637 1 0 0 I I #
straight-curve $-1 -14.482986874769086 -11.62221813232291 8.1899741989163637 -1 0 0 I I #
point $-1 -27.465973749538172 -11.62221813232291 8.1899741989163637 #
point $-1 -27.465973749538172 -11.62221813232291 -8.1899741989163637 #
straight-curve $-1 -30.465973749538172 -22.373102058883223 0 0 0 -1 I I #
edge $-1 $401 27.465973749538172 $299 30.465973749538172 $400 $462 forward 7 unknown #
point $-1 -30.465973749538172 -22.373102058883223 -8.1899741989163637 #
edge $-1 $302 -30.465973749538172 $402 -27.465973749538172 $399 $463 forward 7 unknown #
point $-1 -30.465973749538172 -22.373102058883223 8.1899741989163637 #
plane-surface $-1 0 22.373102058883223 0 0 -1 0 0 0 -1 forward_v I I I I #
coedge $-1 $309 $313 $318 $424 forward $196 $-1 #
edge $-1 $464 -13.874272011081688 $323 -3.1233880845213751 $309 $465 forward 7 unknown #
coedge $-1 $311 $310 $422 $466 reversed $116 $-1 #
edge $-1 $326 3.1233880845213751 $467 13.874272011081688 $325 $468 forward 7 unknown #
straight-curve $-1 -27.465973749538172 11.622218132322907 0 0 0 -1 I I #
straight-curve $-1 -30.465973749538172 8.4988300478015315 -8.1899741989163637 0 1 0 I I #
coedge $-1 $315 $325 $317 $423 forward $307 $-1 #
straight-curve $-1 -30.465973749538172 8.4988300478015315 8.1899741989163637 0 -1 0 I I #
coedge $-1 $318 $317 $416 $466 forward $319 $-1 #
edge $-1 $467 27.465973749538172 $321 30.465973749538172 $317 $469 forward 7 unknown #
edge $-1 $320 -30.465973749538172 $464 -27.465973749538172 $318 $470 forward 7 unknown #
point $-1 -30.465973749538172 22.373102058883219 -8.1899741989163637 #
point $-1 -30.465973749538172 22.373102058883219 8.1899741989163637 #
point $-1 -27.465973749538172 11.622218132322907 -8.1899741989163637 #
point $-1 -27.465973749538172 11.622218132322907 8.1899741989163637 #
edge $-1 $430 23.989970545217236 $433 31.983382410662244 $331 $471 forward 7 unknown #
vertex $-1 $345 $472 #
straight-curve $-1 -49.142476009795466 -2.6317475218574264 8.1899741989163637 -1 0 0 I I #
edge $-1 $433 -0.23630980858863548 $342 5.9724244694807584 $341 $473 forward 7 unknown #
vertex $-1 $432 $474 #
straight-curve $-1 -42.508621478926976 -2.6317475218574264 0.19656233347134844 0.75470957328743171 0 0.6560590369687036 I I #
point $-1 -33.313253199336486 -2.6317475218574264 8.1899741989163637 #
point $-1 -42.508621478926969 -8.8404817999268204 0.19656233347135463 #
straight-curve $-1 -42.508621478926969 0 8.1899741989163637 0 -1 0 I I #
vertex $-1 $348 $475 #
point $-1 -34.167781237520096 -5.7361146608921239 2.173639437791993 #
coedge $-1 $363 $362 $355 $441 forward $352 $-1 #
edge $-1 $442 53.071931686242451 $445 58.970632141406725 $440 $476 forward 7 unknown #
vertex $-1 $367 $477 #
straight-curve $-1 21.254311436965601 -11.62221813232291 8.1899741989163601 1 0 0 I I #
edge $-1 $445 -7.4640283864263246 $364 -0.85235110536684555 $363 $478 forward 7 unknown #
vertex $-1 $444 $479 #
straight-curve $-1 -17.607646836853682 -11.62221813232291 62.40754345453697 -0.70710677298230451 0 0.70710678939079041 I I #
point $-1 36.609921160642635 -11.62221813232291 8.1899741989163743 #
point $-1 42.508621478926969 -5.0105408512634311 2.291273743752086 #
straight-curve $-1 42.508621478926969 0 8.1899741989163637 0 1 0 I I #
vertex $-1 $370 $480 #
point $-1 39.205717916885163 -9.7331674805916322 4.1799638036565145 #
vertex $-1 $374 $481 #
point $-1 39.205717916885163 -6.8995915029947117 4.1799638036565145 #
straight-curve $-1 -42.508621478926969 22.373102058883223 0 0 0 -1 I I #
point $-1 -42.508621478926969 -22.373102058883223 -8.1899741989163637 #
straight-curve $-1 -42.508621478926969 0 -8.1899741989163637 0 1 0 I I #
point $-1 -42.508621478926969 22.373102058883223 -8.1899741989163637 #
straight-curve $-1 -27.465973749538172 -8.4988300478015333 8.1899741989163637 0 1 0 I I #
straight-curve $-1 -27.465973749538172 -8.4988300478015333 -8.1899741989163637 0 -1 0 I I #
point $-1 -27.465973749538172 -22.373102058883223 -8.1899741989163637 #
point $-1 -27.465973749538172 -22.373102058883223 8.1899741989163637 #
straight-curve $-1 0 -22.373102058883223 -8.1899741989163637 -1 0 0 I I #
straight-curve $-1 0 -22.373102058883223 8.1899741989163637 1 0 0 I I #
vertex $-1 $466 $482 #
straight-curve $-1 -27.465973749538172 8.4988300478015315 -8.1899741989163637 0 -1 0 I I #
edge $-1 $467 -8.1899741989163637 $464 8.1899741989163637 $422 $483 forward 7 unknown #
vertex $-1 $423 $484 #
straight-curve $-1 -27.465973749538172 8.4988300478015315 8.1899741989163637 0 1 0 I I #
straight-curve $-1 0 22.373102058883223 8.1899741989163637 -1 0 0 I I #
straight-curve $-1 0 22.373102058883223 -8.1899741989163637 1 0 0 I I #
straight-curve $-1 -42.508621478926969 -2.6317475218574264 32.1799447441336 0 0 -1 I I #
point $-1 -42.508621478926969 -2.6317475218574264 8.1899741989163637 #
straight-curve $-1 -42.508621478926969 -2.8680573304460619 0.19656233347135008 0 -1 0 I I #
point $-1 -42.508621478926969 -2.6317475218574264 0.19656233347135463 #
point $-1 -34.315757041998189 -5.7361146608921239 0.057486522407789953 #
straight-curve $-1 42.508621478926969 -11.62221813232291 61.261905885158811 0 0 -1 I I #
point $-1 42.508621478926969 -11.62221813232291 8.1899741989163637 #
straight-curve $-1 42.508621478926969 -4.1581897458965855 2.2912737437520896 0 1 0 I I #
point $-1 42.508621478926969 -11.62221813232291 2.291273743752086 #
point $-1 38.498611135698617 -9.7331674805916322 4.179963811860758 #
point $-1 38.498611135698617 -6.8995915029947117 4.179963811860758 #
point $-1 -27.465973749538172 22.373102058883219 -8.1899741989163637 #
straight-curve $-1 -27.465973749538172 22.373102058883223 0 0 0 -1 I I #
point $-1 -27.465973749538172 22.373102058883219 8.1899741989163637 #
End-of-ACIS-data 