500 0 12 0           
7 Unknown 11 ACIS 5.0 NT 24 Fri Mar 26 17:10:45 1999 
-1 9.9999999999999995e-007 1e-010 
body $-1 $12 $-1 $13 #
body $-1 $14 $-1 $15 #
body $-1 $16 $-1 $17 #
body $-1 $18 $-1 $19 #
body $-1 $20 $-1 $21 #
body $-1 $22 $-1 $23 #
body $-1 $24 $-1 $25 #
body $-1 $26 $-1 $27 #
body $-1 $28 $-1 $29 #
body $-1 $30 $-1 $31 #
body $-1 $32 $-1 $33 #
body $-1 $34 $-1 $35 #
lump $-1 $-1 $36 $0 #
transform $-1 1 0 0 0 1 0 0 0 1 75.107272560808127 49.187733775128564 16.778650981925246 1 rotate no_reflect no_shear #
lump $-1 $-1 $37 $1 #
transform $-1 1 0 0 0 1 0 0 0 1 75.107272560808127 49.187733775128564 16.778650981925246 1 rotate no_reflect no_shear #
lump $-1 $-1 $38 $2 #
transform $-1 1 0 0 0 1 0 0 0 1 75.107272560808127 49.187733775128564 16.778650981925246 1 rotate no_reflect no_shear #
lump $-1 $-1 $39 $3 #
transform $-1 1 0 0 0 1 0 0 0 1 75.107272560808127 49.187733775128564 16.778650981925246 1 rotate no_reflect no_shear #
lump $-1 $-1 $40 $4 #
transform $-1 1 0 0 0 1 0 0 0 1 75.107272560808127 49.187733775128564 16.778650981925246 1 rotate no_reflect no_shear #
lump $-1 $-1 $41 $5 #
transform $-1 1 0 0 0 1 0 0 0 1 75.107272560808127 49.187733775128564 16.778650981925246 1 rotate no_reflect no_shear #
lump $-1 $-1 $42 $6 #
transform $-1 1 0 0 0 1 0 0 0 1 75.107272560808127 49.187733775128564 16.778650981925246 1 rotate no_reflect no_shear #
lump $-1 $-1 $43 $7 #
transform $-1 1 0 0 0 1 0 0 0 1 75.107272560808127 49.187733775128564 16.778650981925246 1 rotate no_reflect no_shear #
lump $-1 $-1 $44 $8 #
transform $-1 1 0 0 0 1 0 0 0 1 75.107272560808127 49.187733775128564 16.778650981925246 1 rotate no_reflect no_shear #
lump $-1 $-1 $45 $9 #
transform $-1 1 0 0 0 1 0 0 0 1 75.107272560808127 49.187733775128564 16.778650981925246 1 rotate no_reflect no_shear #
lump $-1 $-1 $46 $10 #
transform $-1 1 0 0 0 1 0 0 0 1 75.107272560808127 49.187733775128564 16.778650981925246 1 rotate no_reflect no_shear #
lump $-1 $-1 $47 $11 #
transform $-1 1 0 0 0 1 0 0 0 1 75.107272560808127 49.187733775128564 16.778650981925246 1 rotate no_reflect no_shear #
shell $-1 $-1 $-1 $48 $-1 $12 #
shell $-1 $-1 $-1 $49 $-1 $14 #
shell $-1 $-1 $-1 $50 $-1 $16 #
shell $-1 $-1 $-1 $51 $-1 $18 #
shell $-1 $-1 $-1 $52 $-1 $20 #
shell $-1 $-1 $-1 $53 $-1 $22 #
shell $-1 $-1 $-1 $54 $-1 $24 #
shell $-1 $-1 $-1 $55 $-1 $26 #
shell $-1 $-1 $-1 $56 $-1 $28 #
shell $-1 $-1 $-1 $57 $-1 $30 #
shell $-1 $-1 $-1 $58 $-1 $32 #
shell $-1 $-1 $-1 $59 $-1 $34 #
face $-1 $60 $61 $36 $-1 $62 forward single #
face $-1 $63 $64 $37 $-1 $65 reversed single #
face $-1 $66 $67 $38 $-1 $68 forward single #
face $-1 $69 $70 $39 $-1 $71 forward single #
face $-1 $72 $73 $40 $-1 $74 reversed single #
face $-1 $75 $76 $41 $-1 $77 forward single #
face $-1 $78 $79 $42 $-1 $80 reversed single #
face $-1 $81 $82 $43 $-1 $83 forward single #
face $-1 $84 $85 $44 $-1 $86 reversed single #
face $-1 $87 $88 $45 $-1 $89 forward single #
face $-1 $90 $91 $46 $-1 $92 reversed single #
face $-1 $93 $94 $47 $-1 $95 forward single #
face $-1 $96 $97 $36 $-1 $98 reversed single #
loop $-1 $-1 $99 $48 #
plane-surface $-1 0 0 16.778650981925246 0 0 1 1 0 0 forward_v I I I I #
face $-1 $100 $101 $37 $-1 $102 reversed single #
loop $-1 $-1 $103 $49 #
plane-surface $-1 70.892987652601633 -155.40545849587267 112.45589747238387 -1 0 0 0 -0.70710678939079041 0.70710677298230451 forward_v I I I I #
face $-1 $104 $105 $38 $-1 $106 forward single #
loop $-1 $107 $108 $50 #
cone-surface $-1 50.586069508220689 -41.238142428120426 8.8290595747953731 0 0.70710678939079041 -0.70710677298230451 2.5 0 0 1 I I 0 1 2.5 forward I I I I #
face $-1 $109 $110 $39 $-1 $111 forward single #
loop $-1 $112 $113 $51 #
cone-surface $-1 62.770220394849275 -41.238142428120426 8.8290595747953731 0 0.70710678939079041 -0.70710677298230451 2.5 0 0 1 I I 0 1 2.5 forward I I I I #
face $-1 $114 $115 $40 $-1 $116 reversed single #
loop $-1 $-1 $117 $52 #
plane-surface $-1 -51.204836343368299 73.492436449501852 188.76630071077531 -1 0 0 0 0.6560590369687036 0.75470957328743171 forward_v I I I I #
face $-1 $118 $119 $41 $-1 $120 forward single #
loop $-1 $121 $122 $53 #
cone-surface $-1 -63.156054452088213 44.186237562993092 11.982328800621264 0 -0.6560590369687036 -0.75470957328743171 1.5 0 0 1 I I 0 1 1.5 forward I I I I #
face $-1 $123 $124 $42 $-1 $125 reversed single #
loop $-1 $-1 $126 $54 #
plane-surface $-1 -13.651200062964232 73.492436449501852 188.76630071077531 -1 0 0 0 0.6560590369687036 0.75470957328743171 forward_v I I I I #
face $-1 $127 $128 $43 $-1 $129 forward single #
loop $-1 $130 $131 $55 #
cone-surface $-1 -25.60241817168415 44.186237562993092 11.982328800621264 0 -0.6560590369687036 -0.75470957328743171 1.5 0 0 1 I I 0 1 1.5 forward I I I I #
face $-1 $132 $133 $44 $-1 $134 reversed single #
loop $-1 $-1 $135 $56 #
plane-surface $-1 23.902436217439831 73.492436449501852 188.76630071077531 -1 0 0 0 0.6560590369687036 0.75470957328743171 forward_v I I I I #
face $-1 $136 $137 $45 $-1 $138 forward single #
loop $-1 $139 $140 $57 #
cone-surface $-1 11.951218108719914 44.186237562993092 11.982328800621264 0 -0.6560590369687036 -0.75470957328743171 1.5 0 0 1 I I 0 1 1.5 forward I I I I #
face $-1 $141 $142 $46 $-1 $143 reversed single #
loop $-1 $-1 $144 $58 #
plane-surface $-1 61.456072497843891 73.492436449501852 188.76630071077531 -1 0 0 0 0.6560590369687036 0.75470957328743171 forward_v I I I I #
face $-1 $145 $146 $47 $-1 $147 forward single #
loop $-1 $148 $149 $59 #
cone-surface $-1 49.504854389123977 44.186237562993092 11.982328800621264 0 -0.6560590369687036 -0.75470957328743171 1.5 0 0 1 I I 0 1 1.5 forward I I I I #
face $-1 $150 $151 $36 $-1 $152 reversed single #
loop $-1 $-1 $153 $60 #
plane-surface $-1 0 0 -16.778650981925246 0 0 1 1 0 0 forward_v I I I I #
coedge $-1 $154 $155 $156 $157 forward $61 $-1 #
face $-1 $158 $159 $37 $-1 $160 reversed single #
loop $-1 $-1 $161 $63 #
plane-surface $-1 56.678144951534961 -49.187733775128578 6.2381752164330209 0 -0.70710678939079041 0.70710677298230451 1 0 0 forward_v I I I I #
coedge $-1 $162 $163 $164 $165 reversed $64 $-1 #
face $-1 $-1 $166 $38 $-1 $167 forward single #
loop $-1 $168 $169 $66 #
cone-surface $-1 50.586069508220689 -37.674905354823494 5.2658225841837236 0 0.70710678939079041 -0.70710677298230451 1.25 0 0 1 I I -0.70710678118654746 0.70710678118654746 1.25 forward I I I I #
loop $-1 $-1 $170 $50 #
coedge $-1 $108 $108 $171 $172 reversed $67 $-1 #
face $-1 $-1 $173 $39 $-1 $174 forward single #
loop $-1 $175 $176 $69 #
cone-surface $-1 62.770220394849275 -37.674905354823494 5.2658225841837236 0 0.70710678939079041 -0.70710677298230451 1.25 0 0 1 I I -0.70710678118654746 0.70710678118654746 1.25 forward I I I I #
loop $-1 $-1 $177 $51 #
coedge $-1 $113 $113 $178 $179 reversed $70 $-1 #
face $-1 $180 $181 $40 $-1 $182 reversed single #
loop $-1 $-1 $183 $72 #
plane-surface $-1 -63.156054452088213 -25.057173361677584 75.397945460474645 0 0.6560590369687036 0.75470957328743171 1 0 0 forward_v I I I I #
coedge $-1 $184 $185 $186 $187 reversed $73 $-1 #
face $-1 $-1 $188 $41 $-1 $189 forward single #
loop $-1 $190 $191 $75 #
cone-surface $-1 -63.156054452088213 42.098259150542674 9.5803844512608336 0 -0.6560590369687036 -0.75470957328743171 0.75 0 0 1 I I -0.70710678118654757 0.70710678118654757 0.75 forward I I I I #
loop $-1 $-1 $192 $53 #
coedge $-1 $122 $122 $193 $194 reversed $76 $-1 #
face $-1 $195 $196 $42 $-1 $197 reversed single #
loop $-1 $-1 $198 $78 #
plane-surface $-1 -25.60241817168415 -25.057173361677584 75.397945460474645 0 0.6560590369687036 0.75470957328743171 1 0 0 forward_v I I I I #
coedge $-1 $199 $200 $201 $202 reversed $79 $-1 #
face $-1 $-1 $203 $43 $-1 $204 forward single #
loop $-1 $205 $206 $81 #
cone-surface $-1 -25.60241817168415 42.098259150542674 9.5803844512608336 0 -0.6560590369687036 -0.75470957328743171 0.75 0 0 1 I I -0.70710678118654757 0.70710678118654757 0.75 forward I I I I #
loop $-1 $-1 $207 $55 #
coedge $-1 $131 $131 $208 $209 reversed $82 $-1 #
face $-1 $210 $211 $44 $-1 $212 reversed single #
loop $-1 $-1 $213 $84 #
plane-surface $-1 11.951218108719914 -25.057173361677584 75.397945460474645 0 0.6560590369687036 0.75470957328743171 1 0 0 forward_v I I I I #
coedge $-1 $214 $215 $216 $217 reversed $85 $-1 #
face $-1 $-1 $218 $45 $-1 $219 forward single #
loop $-1 $220 $221 $87 #
cone-surface $-1 11.951218108719914 42.098259150542674 9.5803844512608336 0 -0.6560590369687036 -0.75470957328743171 0.75 0 0 1 I I -0.70710678118654757 0.70710678118654757 0.75 forward I I I I #
loop $-1 $-1 $222 $57 #
coedge $-1 $140 $140 $223 $224 reversed $88 $-1 #
face $-1 $225 $226 $46 $-1 $227 reversed single #
loop $-1 $-1 $228 $90 #
plane-surface $-1 49.504854389123977 -25.057173361677584 75.397945460474645 0 0.6560590369687036 0.75470957328743171 1 0 0 forward_v I I I I #
coedge $-1 $229 $230 $231 $232 reversed $91 $-1 #
face $-1 $-1 $233 $47 $-1 $234 forward single #
loop $-1 $235 $236 $93 #
cone-surface $-1 49.504854389123977 42.098259150542674 9.5803844512608336 0 -0.6560590369687036 -0.75470957328743171 0.75 0 0 1 I I -0.70710678118654757 0.70710678118654757 0.75 forward I I I I #
loop $-1 $-1 $237 $59 #
coedge $-1 $149 $149 $238 $239 reversed $94 $-1 #
face $-1 $240 $241 $36 $-1 $242 reversed single #
loop $-1 $-1 $243 $96 #
plane-surface $-1 0 -49.187733775128564 0 0 1 0 0 0 1 forward_v I I I I #
coedge $-1 $244 $245 $246 $247 forward $97 $-1 #
coedge $-1 $248 $99 $249 $250 forward $61 $-1 #
coedge $-1 $99 $248 $251 $252 forward $61 $-1 #
coedge $-1 $253 $254 $99 $157 reversed $255 $-1 #
edge $-1 $256 -49.187733775128564 $257 49.187733775128564 $156 $258 forward 7 unknown #
face $-1 $259 $260 $37 $-1 $261 reversed single #
loop $-1 $-1 $262 $100 #
plane-surface $-1 42.463302250468288 -155.40545849587267 112.45589747238387 1 0 0 0 0.70710678939079041 -0.70710677298230451 forward_v I I I I #
coedge $-1 $263 $264 $265 $266 reversed $101 $-1 #
coedge $-1 $163 $103 $267 $268 reversed $64 $-1 #
coedge $-1 $103 $162 $263 $269 reversed $64 $-1 #
coedge $-1 $265 $270 $103 $165 forward $271 $-1 #
edge $-1 $272 28.514995472807769 $273 39.055470993707154 $164 $274 forward 7 unknown #
loop $-1 $-1 $171 $104 #
plane-surface $-1 56.678144951534961 -49.187733775128578 6.2381752164330209 0 -0.70710678939079041 0.70710677298230451 1 0 0 forward_v I I I I #
loop $-1 $-1 $275 $66 #
coedge $-1 $169 $169 $170 $276 reversed $105 $-1 #
coedge $-1 $170 $170 $169 $276 forward $107 $-1 #
coedge $-1 $171 $171 $108 $172 forward $166 $-1 #
edge $-1 $277 -2.512147916405644e-015 $277 6.2831853071795978 $171 $278 forward 7 unknown #
loop $-1 $-1 $178 $109 #
plane-surface $-1 56.678144951534961 -49.187733775128578 6.2381752164330209 0 -0.70710678939079041 0.70710677298230451 1 0 0 forward_v I I I I #
loop $-1 $-1 $279 $69 #
coedge $-1 $176 $176 $177 $280 reversed $110 $-1 #
coedge $-1 $177 $177 $176 $280 forward $112 $-1 #
coedge $-1 $178 $178 $113 $179 forward $173 $-1 #
edge $-1 $281 -2.512147916405644e-015 $281 6.2831853071795978 $178 $282 forward 7 unknown #
face $-1 $283 $284 $40 $-1 $285 forward single #
loop $-1 $-1 $186 $114 #
plane-surface $-1 0 49.187733775128564 0 0 -1 0 0 0 -1 forward_v I I I I #
coedge $-1 $286 $287 $288 $289 reversed $115 $-1 #
coedge $-1 $185 $117 $290 $291 reversed $73 $-1 #
coedge $-1 $117 $184 $286 $292 reversed $73 $-1 #
coedge $-1 $288 $293 $117 $187 forward $181 $-1 #
edge $-1 $294 77.604499373462403 $295 83.525319397280668 $186 $296 forward 7 unknown #
loop $-1 $-1 $193 $118 #
plane-surface $-1 -63.156054452088213 -25.057173361677584 75.397945460474645 0 0.6560590369687036 0.75470957328743171 1 0 0 forward_v I I I I #
loop $-1 $-1 $297 $75 #
coedge $-1 $191 $191 $192 $298 reversed $119 $-1 #
coedge $-1 $192 $192 $191 $298 forward $121 $-1 #
coedge $-1 $193 $193 $122 $194 forward $188 $-1 #
edge $-1 $299 -4.819255484033797e-015 $299 6.283185307179596 $193 $300 forward 7 unknown #
face $-1 $301 $302 $42 $-1 $303 forward single #
loop $-1 $-1 $304 $123 #
plane-surface $-1 -37.553636280404064 73.492436449501852 188.76630071077531 1 0 0 0 -0.6560590369687036 -0.75470957328743171 forward_v I I I I #
coedge $-1 $305 $306 $307 $308 reversed $124 $-1 #
coedge $-1 $200 $126 $309 $310 reversed $79 $-1 #
coedge $-1 $126 $199 $305 $311 reversed $79 $-1 #
coedge $-1 $307 $312 $126 $202 forward $313 $-1 #
edge $-1 $314 77.604499373462403 $315 83.525319397280668 $201 $316 forward 7 unknown #
loop $-1 $-1 $208 $127 #
plane-surface $-1 -25.60241817168415 -25.057173361677584 75.397945460474645 0 0.6560590369687036 0.75470957328743171 1 0 0 forward_v I I I I #
loop $-1 $-1 $317 $81 #
coedge $-1 $206 $206 $207 $318 reversed $128 $-1 #
coedge $-1 $207 $207 $206 $318 forward $130 $-1 #
coedge $-1 $208 $208 $131 $209 forward $203 $-1 #
edge $-1 $319 -4.819255484033797e-015 $319 6.283185307179596 $208 $320 forward 7 unknown #
face $-1 $321 $322 $44 $-1 $323 forward single #
loop $-1 $-1 $324 $132 #
plane-surface $-1 -3.5527136788005009e-015 73.492436449501852 188.76630071077531 1 0 0 0 -0.6560590369687036 -0.75470957328743171 forward_v I I I I #
coedge $-1 $325 $326 $327 $328 reversed $133 $-1 #
coedge $-1 $215 $135 $329 $330 reversed $85 $-1 #
coedge $-1 $135 $214 $325 $331 reversed $85 $-1 #
coedge $-1 $327 $332 $135 $217 forward $333 $-1 #
edge $-1 $334 77.604499373462403 $335 83.525319397280668 $216 $336 forward 7 unknown #
loop $-1 $-1 $223 $136 #
plane-surface $-1 11.951218108719914 -25.057173361677584 75.397945460474645 0 0.6560590369687036 0.75470957328743171 1 0 0 forward_v I I I I #
loop $-1 $-1 $337 $87 #
coedge $-1 $221 $221 $222 $338 reversed $137 $-1 #
coedge $-1 $222 $222 $221 $338 forward $139 $-1 #
coedge $-1 $223 $223 $140 $224 forward $218 $-1 #
edge $-1 $339 -4.819255484033797e-015 $339 6.283185307179596 $223 $340 forward 7 unknown #
face $-1 $341 $342 $46 $-1 $343 forward single #
loop $-1 $-1 $344 $141 #
plane-surface $-1 37.553636280404064 73.492436449501852 188.76630071077531 1 0 0 0 -0.6560590369687036 -0.75470957328743171 forward_v I I I I #
coedge $-1 $345 $346 $347 $348 reversed $142 $-1 #
coedge $-1 $230 $144 $349 $350 reversed $91 $-1 #
coedge $-1 $144 $229 $345 $351 reversed $91 $-1 #
coedge $-1 $347 $352 $144 $232 forward $353 $-1 #
edge $-1 $354 77.604499373462403 $355 83.525319397280668 $231 $356 forward 7 unknown #
loop $-1 $-1 $238 $145 #
plane-surface $-1 49.504854389123977 -25.057173361677584 75.397945460474645 0 0.6560590369687036 0.75470957328743171 1 0 0 forward_v I I I I #
loop $-1 $-1 $357 $93 #
coedge $-1 $236 $236 $237 $358 reversed $146 $-1 #
coedge $-1 $237 $237 $236 $358 forward $148 $-1 #
coedge $-1 $238 $238 $149 $239 forward $233 $-1 #
edge $-1 $359 -4.819255484033797e-015 $359 6.283185307179596 $238 $360 forward 7 unknown #
face $-1 $361 $362 $36 $-1 $363 reversed single #
loop $-1 $-1 $364 $150 #
plane-surface $-1 -75.107272560808127 0 0 1 0 0 0 0 -1 forward_v I I I I #
coedge $-1 $365 $251 $366 $367 forward $151 $-1 #
coedge $-1 $368 $153 $365 $369 forward $97 $-1 #
coedge $-1 $153 $368 $370 $371 forward $97 $-1 #
coedge $-1 $254 $253 $153 $247 reversed $255 $-1 #
edge $-1 $372 -49.187733775128564 $373 49.187733775128564 $246 $374 forward 7 unknown #
coedge $-1 $155 $154 $375 $376 forward $61 $-1 #
coedge $-1 $377 $378 $154 $250 reversed $362 $-1 #
edge $-1 $257 -75.107272560808127 $379 75.107272560808127 $249 $380 forward 7 unknown #
coedge $-1 $243 $381 $155 $252 reversed $151 $-1 #
edge $-1 $382 -75.107272560808127 $256 75.107272560808127 $251 $383 forward 7 unknown #
coedge $-1 $246 $156 $381 $384 forward $255 $-1 #
coedge $-1 $156 $246 $377 $385 reversed $255 $-1 #
loop $-1 $-1 $253 $361 #
vertex $-1 $157 $386 #
vertex $-1 $157 $387 #
straight-curve $-1 75.107272560808127 0 16.778650981925246 0 1 0 I I #
face $-1 $-1 $271 $37 $-1 $388 forward single #
loop $-1 $-1 $389 $158 #
plane-surface $-1 0 -49.187733775128564 0 0 1 0 0 0 1 forward_v I I I I #
coedge $-1 $390 $391 $392 $393 reversed $159 $-1 #
coedge $-1 $394 $161 $163 $269 forward $101 $-1 #
coedge $-1 $161 $394 $390 $395 forward $101 $-1 #
coedge $-1 $392 $164 $161 $266 forward $271 $-1 #
edge $-1 $273 -42.553915176834153 $396 -14.124229774700808 $265 $397 forward 7 unknown #
coedge $-1 $398 $399 $162 $268 forward $260 $-1 #
edge $-1 $400 -49.989773519758899 $272 -39.449297754266688 $267 $401 forward 7 unknown #
edge $-1 $273 -14.906483608470795 $400 -2.0097183471152325e-014 $163 $402 forward 7 unknown #
coedge $-1 $164 $392 $398 $403 forward $271 $-1 #
loop $-1 $-1 $392 $259 #
vertex $-1 $268 $404 #
vertex $-1 $165 $405 #
straight-curve $-1 70.892987652601633 -77.702729247936333 16.778650981925246 0 1 0 I I #
coedge $-1 $275 $275 $-1 $406 reversed $168 $-1 #
edge $-1 $407 0 $407 6.2831853071796004 $169 $408 forward 7 unknown #
vertex $-1 $172 $409 #
ellipse-curve $-1 50.586069508220689 -43.917496014678868 11.508413099179142 0 -0.70710678939079041 0.70710677298230451 2.5 0 0 1 I I #
coedge $-1 $279 $279 $-1 $410 reversed $175 $-1 #
edge $-1 $411 0 $411 6.2831853071796004 $176 $412 forward 7 unknown #
vertex $-1 $179 $413 #
ellipse-curve $-1 62.770220394849275 -43.917496014678868 11.508413099179142 0 -0.70710678939079041 0.70710677298230451 2.5 0 0 1 I I #
face $-1 $-1 $414 $40 $-1 $415 reversed single #
loop $-1 $-1 $290 $180 #
plane-surface $-1 0 0 16.778650981925246 0 0 1 1 0 0 forward_v I I I I #
coedge $-1 $416 $183 $185 $292 forward $115 $-1 #
coedge $-1 $183 $416 $417 $418 reversed $115 $-1 #
coedge $-1 $419 $186 $183 $289 forward $181 $-1 #
edge $-1 $295 19.626809117324193 $420 43.52924533476402 $288 $421 forward 7 unknown #
coedge $-1 $422 $423 $184 $291 forward $284 $-1 #
edge $-1 $424 5.63039139555449 $294 12.441515550377638 $290 $425 forward 7 unknown #
edge $-1 $295 -98.375467550257156 $424 -89.350639462871641 $185 $426 forward 7 unknown #
coedge $-1 $186 $419 $422 $427 reversed $181 $-1 #
vertex $-1 $427 $428 #
vertex $-1 $187 $429 #
straight-curve $-1 -51.204836343368299 49.187733775128564 94.383150355387656 0 0 -1 I I #
coedge $-1 $297 $297 $-1 $430 reversed $190 $-1 #
edge $-1 $431 0 $431 6.2831853071796004 $191 $432 forward 7 unknown #
vertex $-1 $194 $433 #
ellipse-curve $-1 -63.156054452088213 45.78217169771699 13.818240970016126 0 0.6560590369687036 0.75470957328743171 1.5 0 0 1 I I #
face $-1 $-1 $313 $42 $-1 $434 reversed single #
loop $-1 $-1 $435 $195 #
plane-surface $-1 0 0 16.778650981925246 0 0 1 1 0 0 forward_v I I I I #
coedge $-1 $436 $437 $438 $439 reversed $196 $-1 #
coedge $-1 $440 $198 $200 $311 forward $124 $-1 #
coedge $-1 $198 $440 $436 $441 forward $124 $-1 #
coedge $-1 $438 $201 $198 $308 forward $313 $-1 #
edge $-1 $315 0.84999097712215743 $442 24.752427194561989 $307 $443 forward 7 unknown #
coedge $-1 $444 $445 $199 $310 forward $302 $-1 #
edge $-1 $446 5.63039139555449 $314 12.441515550377638 $309 $447 forward 7 unknown #
edge $-1 $315 -98.375467550257156 $446 -89.350639462871641 $200 $448 forward 7 unknown #
coedge $-1 $201 $438 $444 $449 reversed $313 $-1 #
loop $-1 $-1 $438 $301 #
vertex $-1 $449 $450 #
vertex $-1 $202 $451 #
straight-curve $-1 -13.651200062964232 49.187733775128564 94.383150355387656 0 0 -1 I I #
coedge $-1 $317 $317 $-1 $452 reversed $205 $-1 #
edge $-1 $453 0 $453 6.2831853071796004 $206 $454 forward 7 unknown #
vertex $-1 $209 $455 #
ellipse-curve $-1 -25.60241817168415 45.78217169771699 13.818240970016126 0 0.6560590369687036 0.75470957328743171 1.5 0 0 1 I I #
face $-1 $-1 $333 $44 $-1 $456 reversed single #
loop $-1 $-1 $457 $210 #
plane-surface $-1 0 0 16.778650981925246 0 0 1 1 0 0 forward_v I I I I #
coedge $-1 $458 $459 $460 $461 reversed $211 $-1 #
coedge $-1 $462 $213 $215 $331 forward $133 $-1 #
coedge $-1 $213 $462 $458 $463 forward $133 $-1 #
coedge $-1 $460 $216 $213 $328 forward $333 $-1 #
edge $-1 $335 -17.926827163079874 $464 5.9756090543599605 $327 $465 forward 7 unknown #
coedge $-1 $466 $467 $214 $330 forward $322 $-1 #
edge $-1 $468 5.63039139555449 $334 12.441515550377638 $329 $469 forward 7 unknown #
edge $-1 $335 -98.375467550257156 $468 -89.350639462871641 $215 $470 forward 7 unknown #
coedge $-1 $216 $460 $466 $471 reversed $333 $-1 #
loop $-1 $-1 $460 $321 #
vertex $-1 $471 $472 #
vertex $-1 $217 $473 #
straight-curve $-1 23.902436217439831 49.187733775128564 94.383150355387656 0 0 -1 I I #
coedge $-1 $337 $337 $-1 $474 reversed $220 $-1 #
edge $-1 $475 0 $475 6.2831853071796004 $221 $476 forward 7 unknown #
vertex $-1 $224 $477 #
ellipse-curve $-1 11.951218108719914 45.78217169771699 13.818240970016126 0 0.6560590369687036 0.75470957328743171 1.5 0 0 1 I I #
face $-1 $-1 $353 $46 $-1 $478 reversed single #
loop $-1 $-1 $479 $225 #
plane-surface $-1 0 0 16.778650981925246 0 0 1 1 0 0 forward_v I I I I #
coedge $-1 $480 $481 $482 $483 reversed $226 $-1 #
coedge $-1 $484 $228 $230 $351 forward $142 $-1 #
coedge $-1 $228 $484 $480 $485 forward $142 $-1 #
coedge $-1 $482 $231 $228 $348 forward $353 $-1 #
edge $-1 $355 -36.703645303281903 $486 -12.801209085842075 $347 $487 forward 7 unknown #
coedge $-1 $488 $489 $229 $350 forward $342 $-1 #
edge $-1 $490 5.63039139555449 $354 12.441515550377638 $349 $491 forward 7 unknown #
edge $-1 $355 -98.375467550257156 $490 -89.350639462871641 $230 $492 forward 7 unknown #
coedge $-1 $231 $482 $488 $493 reversed $353 $-1 #
loop $-1 $-1 $482 $341 #
vertex $-1 $493 $494 #
vertex $-1 $232 $495 #
straight-curve $-1 61.456072497843891 49.187733775128564 94.383150355387656 0 0 -1 I I #
coedge $-1 $357 $357 $-1 $496 reversed $235 $-1 #
edge $-1 $497 0 $497 6.2831853071796004 $236 $498 forward 7 unknown #
vertex $-1 $239 $499 #
ellipse-curve $-1 49.504854389123977 45.78217169771699 13.818240970016126 0 0.6560590369687036 0.75470957328743171 1.5 0 0 1 I I #
face $-1 $-1 $255 $36 $-1 $500 reversed single #
loop $-1 $-1 $377 $240 #
plane-surface $-1 0 49.187733775128564 0 0 -1 0 0 0 -1 forward_v I I I I #
coedge $-1 $501 $375 $378 $502 forward $241 $-1 #
coedge $-1 $381 $243 $244 $369 reversed $151 $-1 #
coedge $-1 $375 $501 $243 $367 reversed $241 $-1 #
edge $-1 $382 -16.778650981925246 $503 16.778650981925246 $366 $504 forward 7 unknown #
coedge $-1 $245 $244 $501 $505 forward $97 $-1 #
edge $-1 $373 -75.107272560808127 $503 75.107272560808127 $365 $506 forward 7 unknown #
coedge $-1 $378 $377 $245 $371 reversed $362 $-1 #
edge $-1 $507 -75.107272560808127 $372 75.107272560808127 $370 $508 forward 7 unknown #
vertex $-1 $247 $509 #
vertex $-1 $384 $510 #
straight-curve $-1 75.107272560808127 0 -16.778650981925246 0 -1 0 I I #
coedge $-1 $364 $366 $248 $376 reversed $241 $-1 #
edge $-1 $379 -49.187733775128564 $382 49.187733775128564 $375 $511 forward 7 unknown #
coedge $-1 $370 $249 $254 $385 forward $362 $-1 #
coedge $-1 $249 $370 $364 $502 reversed $362 $-1 #
vertex $-1 $250 $512 #
straight-curve $-1 0 49.187733775128564 16.778650981925246 -1 0 0 I I #
coedge $-1 $251 $365 $253 $384 reversed $151 $-1 #
vertex $-1 $376 $513 #
straight-curve $-1 0 -49.187733775128564 16.778650981925246 1 0 0 I I #
edge $-1 $256 -16.778650981925246 $373 16.778650981925246 $253 $514 forward 7 unknown #
edge $-1 $257 -16.778650981925246 $372 16.778650981925246 $254 $515 forward 7 unknown #
point $-1 75.107272560808127 -49.187733775128564 16.778650981925246 #
point $-1 75.107272560808127 49.187733775128564 16.778650981925246 #
plane-surface $-1 0 0 16.778650981925246 0 0 1 1 0 0 forward_v I I I I #
coedge $-1 $399 $398 $391 $516 forward $260 $-1 #
coedge $-1 $391 $262 $264 $395 reversed $159 $-1 #
coedge $-1 $262 $390 $389 $516 reversed $159 $-1 #
coedge $-1 $270 $265 $262 $393 forward $271 $-1 #
edge $-1 $396 -39.055470993707154 $517 -28.514995472807769 $392 $518 forward 7 unknown #
coedge $-1 $264 $263 $399 $519 reversed $101 $-1 #
edge $-1 $520 2.0097183471152325e-014 $396 14.906483608470795 $390 $521 forward 7 unknown #
vertex $-1 $266 $522 #
straight-curve $-1 28.33907247576748 -38.647258254229186 16.778650981925246 -1 0 0 I I #
coedge $-1 $389 $267 $270 $403 reversed $260 $-1 #
coedge $-1 $267 $389 $394 $519 forward $260 $-1 #
vertex $-1 $268 $523 #
straight-curve $-1 70.892987652601633 -49.187733775128564 56.227948736191934 0 0 1 I I #
straight-curve $-1 70.892987652601633 -49.187733775128578 6.2381752164330209 0 -0.70710677298230451 -0.70710678939079041 I I #
edge $-1 $517 42.463302250468288 $272 70.892987652601633 $398 $524 forward 7 unknown #
point $-1 70.892987652601633 -49.187733775128564 16.778650981925246 #
point $-1 70.892987652601633 -38.647258254229179 16.778650981925246 #
edge $-1 $525 1 $525 0 $275 $-1 forward 7 unknown #
vertex $-1 $276 $526 #
ellipse-curve $-1 50.586069508220689 -38.558788841561984 6.1497060504116039 0 -0.70710678939079041 0.70710677298230451 2.5 0 0 1 I I #
point $-1 53.086069508220689 -43.917496014678875 11.50841309917914 #
edge $-1 $527 1 $527 0 $279 $-1 forward 7 unknown #
vertex $-1 $280 $528 #
ellipse-curve $-1 62.770220394849275 -38.558788841561984 6.1497060504116039 0 -0.70710678939079041 0.70710677298230451 2.5 0 0 1 I I #
point $-1 65.270220394849275 -43.917496014678875 11.50841309917914 #
loop $-1 $-1 $417 $283 #
plane-surface $-1 -75.107272560808127 0 0 1 0 0 0 0 -1 forward_v I I I I #
coedge $-1 $287 $286 $423 $529 reversed $115 $-1 #
coedge $-1 $530 $531 $287 $418 forward $414 $-1 #
edge $-1 $420 -64.187271498357774 $532 -55.162443410972273 $417 $533 forward 7 unknown #
coedge $-1 $293 $288 $531 $534 reversed $181 $-1 #
vertex $-1 $289 $535 #
straight-curve $-1 -31.578027226044107 49.187733775128564 10.857830958106995 -1 0 0 I I #
coedge $-1 $536 $290 $293 $427 forward $284 $-1 #
coedge $-1 $290 $536 $416 $529 forward $284 $-1 #
vertex $-1 $291 $537 #
straight-curve $-1 -51.204836343368299 36.746218224750926 16.778650981925253 0 1 0 I I #
straight-curve $-1 -51.204836343368299 -25.057173361677584 75.397945460474645 0 -0.75470957328743171 0.6560590369687036 I I #
edge $-1 $294 51.204836343368299 $538 75.107272560808127 $293 $539 forward 7 unknown #
point $-1 -51.204836343368299 49.187733775128564 16.778650981925246 #
point $-1 -51.204836343368299 49.187733775128564 10.857830958106987 #
edge $-1 $540 1 $540 0 $297 $-1 forward 7 unknown #
vertex $-1 $298 $541 #
ellipse-curve $-1 -63.156054452088213 42.590303428269202 10.146416631226407 0 0.6560590369687036 0.75470957328743171 1.5 0 0 1 I I #
point $-1 -61.656054452088213 45.782171697716976 13.81824097001612 #
plane-surface $-1 0 49.187733775128564 0 0 -1 0 0 0 -1 forward_v I I I I #
coedge $-1 $445 $444 $437 $542 forward $302 $-1 #
coedge $-1 $437 $304 $306 $441 reversed $196 $-1 #
coedge $-1 $304 $436 $435 $542 reversed $196 $-1 #
coedge $-1 $312 $307 $304 $439 forward $313 $-1 #
edge $-1 $442 -83.525319397280668 $543 -77.604499373462403 $438 $544 forward 7 unknown #
coedge $-1 $306 $305 $445 $545 reversed $124 $-1 #
edge $-1 $546 89.350639462871641 $442 98.375467550257156 $436 $547 forward 7 unknown #
vertex $-1 $308 $548 #
straight-curve $-1 -12.801209085842075 49.187733775128564 10.857830958106995 -1 0 0 I I #
coedge $-1 $435 $309 $312 $449 forward $302 $-1 #
coedge $-1 $309 $435 $440 $545 forward $302 $-1 #
vertex $-1 $310 $549 #
straight-curve $-1 -13.651200062964232 36.746218224750926 16.778650981925253 0 1 0 I I #
straight-curve $-1 -13.651200062964232 -25.057173361677584 75.397945460474645 0 -0.75470957328743171 0.6560590369687036 I I #
edge $-1 $314 13.651200062964232 $543 37.553636280404064 $312 $550 forward 7 unknown #
point $-1 -13.651200062964232 49.187733775128564 16.778650981925246 #
point $-1 -13.651200062964232 49.187733775128564 10.857830958106987 #
edge $-1 $551 1 $551 0 $317 $-1 forward 7 unknown #
vertex $-1 $318 $552 #
ellipse-curve $-1 -25.60241817168415 42.590303428269202 10.146416631226407 0 0.6560590369687036 0.75470957328743171 1.5 0 0 1 I I #
point $-1 -24.10241817168415 45.782171697716976 13.81824097001612 #
plane-surface $-1 0 49.187733775128564 0 0 -1 0 0 0 -1 forward_v I I I I #
coedge $-1 $467 $466 $459 $553 forward $322 $-1 #
coedge $-1 $459 $324 $326 $463 reversed $211 $-1 #
coedge $-1 $324 $458 $457 $553 reversed $211 $-1 #
coedge $-1 $332 $327 $324 $461 forward $333 $-1 #
edge $-1 $464 -83.525319397280668 $554 -77.604499373462403 $460 $555 forward 7 unknown #
coedge $-1 $326 $325 $467 $556 reversed $133 $-1 #
edge $-1 $557 89.350639462871641 $464 98.375467550257156 $458 $558 forward 7 unknown #
vertex $-1 $328 $559 #
straight-curve $-1 5.9756090543599569 49.187733775128564 10.857830958106995 -1 0 0 I I #
coedge $-1 $457 $329 $332 $471 forward $322 $-1 #
coedge $-1 $329 $457 $462 $556 forward $322 $-1 #
vertex $-1 $330 $560 #
straight-curve $-1 23.902436217439831 36.746218224750926 16.778650981925253 0 1 0 I I #
straight-curve $-1 23.902436217439831 -25.057173361677584 75.397945460474645 0 -0.75470957328743171 0.6560590369687036 I I #
edge $-1 $334 -23.902436217439831 $554 3.5527136788005009e-015 $332 $561 forward 7 unknown #
point $-1 23.902436217439831 49.187733775128564 16.778650981925246 #
point $-1 23.902436217439831 49.187733775128564 10.857830958106987 #
edge $-1 $562 1 $562 0 $337 $-1 forward 7 unknown #
vertex $-1 $338 $563 #
ellipse-curve $-1 11.951218108719914 42.590303428269202 10.146416631226407 0 0.6560590369687036 0.75470957328743171 1.5 0 0 1 I I #
point $-1 13.451218108719914 45.782171697716976 13.81824097001612 #
plane-surface $-1 0 49.187733775128564 0 0 -1 0 0 0 -1 forward_v I I I I #
coedge $-1 $489 $488 $481 $564 forward $342 $-1 #
coedge $-1 $481 $344 $346 $485 reversed $226 $-1 #
coedge $-1 $344 $480 $479 $564 reversed $226 $-1 #
coedge $-1 $352 $347 $344 $483 forward $353 $-1 #
edge $-1 $486 -83.525319397280668 $565 -77.604499373462403 $482 $566 forward 7 unknown #
coedge $-1 $346 $345 $489 $567 reversed $142 $-1 #
edge $-1 $568 89.350639462871641 $486 98.375467550257156 $480 $569 forward 7 unknown #
vertex $-1 $348 $570 #
straight-curve $-1 24.752427194561989 49.187733775128564 10.857830958106995 -1 0 0 I I #
coedge $-1 $479 $349 $352 $493 forward $342 $-1 #
coedge $-1 $349 $479 $484 $567 forward $342 $-1 #
vertex $-1 $350 $571 #
straight-curve $-1 61.456072497843891 36.746218224750926 16.778650981925253 0 1 0 I I #
straight-curve $-1 61.456072497843891 -25.057173361677584 75.397945460474645 0 -0.75470957328743171 0.6560590369687036 I I #
edge $-1 $354 -61.456072497843891 $565 -37.553636280404064 $352 $572 forward 7 unknown #
point $-1 61.456072497843891 49.187733775128564 16.778650981925246 #
point $-1 61.456072497843891 49.187733775128564 10.857830958106987 #
edge $-1 $573 1 $573 0 $357 $-1 forward 7 unknown #
vertex $-1 $358 $574 #
ellipse-curve $-1 49.504854389123977 42.590303428269202 10.146416631226407 0 0.6560590369687036 0.75470957328743171 1.5 0 0 1 I I #
point $-1 51.004854389123977 45.782171697716976 13.81824097001612 #
plane-surface $-1 75.107272560808127 0 0 -1 0 0 0 0 1 forward_v I I I I #
coedge $-1 $366 $364 $368 $505 reversed $241 $-1 #
edge $-1 $379 -16.778650981925246 $507 16.778650981925246 $378 $575 forward 7 unknown #
vertex $-1 $505 $576 #
straight-curve $-1 -75.107272560808127 -49.187733775128564 0 0 0 -1 I I #
edge $-1 $503 -49.187733775128564 $507 49.187733775128564 $501 $577 forward 7 unknown #
straight-curve $-1 0 -49.187733775128564 -16.778650981925246 -1 0 0 I I #
vertex $-1 $371 $578 #
straight-curve $-1 0 49.187733775128564 -16.778650981925246 1 0 0 I I #
point $-1 75.107272560808127 49.187733775128564 -16.778650981925246 #
point $-1 75.107272560808127 -49.187733775128564 -16.778650981925246 #
straight-curve $-1 -75.107272560808127 0 16.778650981925246 0 -1 0 I I #
point $-1 -75.107272560808127 49.187733775128564 16.778650981925246 #
point $-1 -75.107272560808127 -49.187733775128564 16.778650981925246 #
straight-curve $-1 75.107272560808127 -49.187733775128564 0 0 0 -1 I I #
straight-curve $-1 75.107272560808127 49.187733775128564 0 0 0 -1 I I #
edge $-1 $517 39.449297754266688 $520 49.989773519758899 $389 $579 forward 7 unknown #
vertex $-1 $403 $580 #
straight-curve $-1 42.463302250468288 -77.702729247936333 16.778650981925246 0 -1 0 I I #
edge $-1 $520 14.124229774700808 $400 42.553915176834153 $399 $581 forward 7 unknown #
vertex $-1 $519 $582 #
straight-curve $-1 42.463302250468288 -49.187733775128578 6.2381752164330209 0 0.70710677298230451 0.70710678939079041 I I #
point $-1 42.463302250468288 -38.647258254229179 16.778650981925246 #
point $-1 70.892987652601633 -49.187733775128564 6.2381752164330351 #
straight-curve $-1 0 -49.187733775128564 16.778650981925246 1 0 0 I I #
vertex $-1 $406 $583 #
point $-1 53.086069508220689 -38.558788841561984 6.1497060504116039 #
vertex $-1 $410 $584 #
point $-1 65.270220394849275 -38.558788841561984 6.1497060504116039 #
edge $-1 $532 -43.52924533476402 $424 -19.626809117324193 $423 $585 forward 7 unknown #
coedge $-1 $531 $417 $536 $586 reversed $414 $-1 #
coedge $-1 $417 $530 $419 $534 forward $414 $-1 #
vertex $-1 $418 $587 #
straight-curve $-1 -75.107272560808127 0.74498549211844001 52.968470482968314 0 -0.75470957328743171 0.6560590369687036 I I #
edge $-1 $538 -16.778650981925246 $420 -10.857830958106995 $419 $588 forward 7 unknown #
point $-1 -75.107272560808127 49.187733775128564 10.857830958106995 #
coedge $-1 $423 $422 $530 $586 forward $284 $-1 #
point $-1 -51.204836343368299 42.376609620305416 16.778650981925239 #
vertex $-1 $427 $589 #
straight-curve $-1 0 49.187733775128564 16.778650981925246 -1 0 0 I I #
vertex $-1 $430 $590 #
point $-1 -61.656054452088213 42.590303428269202 10.146416631226407 #
edge $-1 $543 -12.441515550377638 $546 -5.63039139555449 $435 $591 forward 7 unknown #
vertex $-1 $542 $592 #
straight-curve $-1 -37.553636280404064 49.187733775128564 94.383150355387656 0 0 1 I I #
edge $-1 $546 -24.752427194561989 $446 -0.84999097712215743 $445 $593 forward 7 unknown #
vertex $-1 $545 $594 #
straight-curve $-1 -37.553636280404064 -25.057173361677584 75.397945460474645 0 0.75470957328743171 -0.6560590369687036 I I #
point $-1 -37.553636280404064 49.187733775128564 10.857830958106987 #
point $-1 -13.651200062964232 42.376609620305416 16.778650981925239 #
straight-curve $-1 0 49.187733775128564 16.778650981925246 -1 0 0 I I #
vertex $-1 $452 $595 #
point $-1 -24.10241817168415 42.590303428269202 10.146416631226407 #
edge $-1 $554 -12.441515550377638 $557 -5.63039139555449 $457 $596 forward 7 unknown #
vertex $-1 $461 $597 #
straight-curve $-1 -3.5527136788005009e-015 49.187733775128564 94.383150355387656 0 0 1 I I #
edge $-1 $557 -5.9756090543599605 $468 17.926827163079874 $467 $598 forward 7 unknown #
vertex $-1 $556 $599 #
straight-curve $-1 -3.5527136788005009e-015 -25.057173361677584 75.397945460474645 0 0.75470957328743171 -0.6560590369687036 I I #
point $-1 -3.5527136788005009e-015 49.187733775128564 10.857830958106987 #
point $-1 23.902436217439831 42.376609620305416 16.778650981925239 #
straight-curve $-1 0 49.187733775128564 16.778650981925246 -1 0 0 I I #
vertex $-1 $474 $600 #
point $-1 13.451218108719914 42.590303428269202 10.146416631226407 #
edge $-1 $565 -12.441515550377638 $568 -5.63039139555449 $479 $601 forward 7 unknown #
vertex $-1 $483 $602 #
straight-curve $-1 37.553636280404064 49.187733775128564 94.383150355387656 0 0 1 I I #
edge $-1 $568 12.801209085842075 $490 36.703645303281903 $489 $603 forward 7 unknown #
vertex $-1 $567 $604 #
straight-curve $-1 37.553636280404064 -25.057173361677584 75.397945460474645 0 0.75470957328743171 -0.6560590369687036 I I #
point $-1 37.553636280404064 49.187733775128564 10.857830958106987 #
point $-1 61.456072497843891 42.376609620305416 16.778650981925239 #
straight-curve $-1 0 49.187733775128564 16.778650981925246 -1 0 0 I I #
vertex $-1 $496 $605 #
point $-1 51.004854389123977 42.590303428269202 10.146416631226407 #
straight-curve $-1 -75.107272560808127 49.187733775128564 0 0 0 -1 I I #
point $-1 -75.107272560808127 -49.187733775128564 -16.778650981925246 #
straight-curve $-1 -75.107272560808127 0 -16.778650981925246 0 1 0 I I #
point $-1 -75.107272560808127 49.187733775128564 -16.778650981925246 #
straight-curve $-1 42.463302250468288 -49.187733775128564 56.227948736191934 0 0 -1 I I #
point $-1 42.463302250468288 -49.187733775128564 16.778650981925246 #
straight-curve $-1 28.33907247576748 -49.187733775128564 6.2381752164330351 1 0 0 I I #
point $-1 42.463302250468288 -49.187733775128564 6.2381752164330351 #
point $-1 50.586069508220689 -36.791021868085004 4.3819391179558433 #
point $-1 62.770220394849275 -36.791021868085004 4.3819391179558433 #
straight-curve $-1 -31.578027226044107 42.376609620305409 16.778650981925253 1 0 0 I I #
edge $-1 $538 -49.187733775128564 $532 -42.376609620305416 $530 $606 forward 7 unknown #
point $-1 -75.107272560808127 42.376609620305416 16.778650981925239 #
straight-curve $-1 -75.107272560808127 49.187733775128564 0 0 0 -1 I I #
point $-1 -75.107272560808127 49.187733775128564 16.778650981925246 #
point $-1 -63.156054452088213 41.606214872816146 9.0143522712952606 #
straight-curve $-1 -37.553636280404064 36.746218224750926 16.778650981925253 0 -1 0 I I #
point $-1 -37.553636280404064 49.187733775128564 16.778650981925246 #
straight-curve $-1 -12.801209085842075 42.376609620305409 16.778650981925253 1 0 0 I I #
point $-1 -37.553636280404064 42.376609620305416 16.778650981925239 #
point $-1 -25.60241817168415 41.606214872816146 9.0143522712952606 #
straight-curve $-1 -3.5527136788005009e-015 36.746218224750926 16.778650981925253 0 -1 0 I I #
point $-1 -3.5527136788005009e-015 49.187733775128564 16.778650981925246 #
straight-curve $-1 5.9756090543599569 42.376609620305409 16.778650981925253 1 0 0 I I #
point $-1 -3.5527136788005009e-015 42.376609620305416 16.778650981925239 #
point $-1 11.951218108719914 41.606214872816146 9.0143522712952606 #
straight-curve $-1 37.553636280404064 36.746218224750926 16.778650981925253 0 -1 0 I I #
point $-1 37.553636280404064 49.187733775128564 16.778650981925246 #
straight-curve $-1 24.752427194561989 42.376609620305409 16.778650981925253 1 0 0 I I #
point $-1 37.553636280404064 42.376609620305416 16.778650981925239 #
point $-1 49.504854389123977 41.606214872816146 9.0143522712952606 #
straight-curve $-1 -75.107272560808127 0 16.778650981925246 0 -1 0 I I #
End-of-ACIS-data 