500 0 5 0           
7 Unknown 11 ACIS 5.0 NT 24 Fri Mar 26 17:19:09 1999 
-1 9.9999999999999995e-007 1e-010 
body $-1 $5 $-1 $6 #
body $-1 $7 $-1 $8 #
body $-1 $9 $-1 $10 #
body $-1 $11 $-1 $12 #
body $-1 $13 $-1 $14 #
lump $-1 $-1 $15 $0 #
transform $-1 1 0 0 0 1 0 0 0 1 69.91912594988861 35.296067572933055 15.844182510559861 1 rotate no_reflect no_shear #
lump $-1 $-1 $16 $1 #
transform $-1 1 0 0 0 1 0 0 0 1 69.91912594988861 35.296067572933055 15.844182510559861 1 rotate no_reflect no_shear #
lump $-1 $-1 $17 $2 #
transform $-1 1 0 0 0 1 0 0 0 1 69.91912594988861 35.296067572933055 15.844182510559861 1 rotate no_reflect no_shear #
lump $-1 $-1 $18 $3 #
transform $-1 1 0 0 0 1 0 0 0 1 69.91912594988861 35.296067572933055 15.844182510559861 1 rotate no_reflect no_shear #
lump $-1 $-1 $19 $4 #
transform $-1 1 0 0 0 1 0 0 0 1 69.91912594988861 35.296067572933055 15.844182510559861 1 rotate no_reflect no_shear #
shell $-1 $-1 $-1 $20 $-1 $5 #
shell $-1 $-1 $-1 $21 $-1 $7 #
shell $-1 $-1 $-1 $22 $-1 $9 #
shell $-1 $-1 $-1 $23 $-1 $11 #
shell $-1 $-1 $-1 $24 $-1 $13 #
face $-1 $25 $26 $15 $-1 $27 forward single #
face $-1 $28 $29 $16 $-1 $30 forward single #
face $-1 $31 $32 $17 $-1 $33 forward single #
face $-1 $34 $35 $18 $-1 $36 reversed single #
face $-1 $37 $38 $19 $-1 $39 forward single #
face $-1 $40 $41 $15 $-1 $42 reversed single #
loop $-1 $-1 $43 $20 #
plane-surface $-1 0 0 15.844182510559861 0 0 1 1 0 0 forward_v I I I I #
face $-1 $44 $45 $16 $-1 $46 forward single #
loop $-1 $-1 $47 $21 #
plane-surface $-1 0 -35.296067572933055 0 0 1 0 0 0 1 forward_v I I I I #
face $-1 $48 $49 $17 $-1 $50 reversed single #
loop $-1 $-1 $51 $22 #
plane-surface $-1 0 35.296067572933055 0 0 -1 0 0 0 -1 forward_v I I I I #
face $-1 $52 $53 $18 $-1 $54 reversed single #
loop $-1 $-1 $55 $23 #
plane-surface $-1 -148.11568506229446 15.811662243256126 122.22723219934186 0 1 0 -0.55919291073839883 0 0.82903756765294845 forward_v I I I I #
face $-1 $56 $57 $19 $-1 $58 forward single #
loop $-1 $59 $60 $24 #
cone-surface $-1 -62.310166809479867 19.75897616095105 10.282695156858573 0.55919291073839883 0 -0.82903756765294845 0.82903756765294845 0 0.55919291073839883 1 I I 0 1 1 forward I I I I #
face $-1 $61 $62 $15 $-1 $63 reversed single #
loop $-1 $-1 $64 $25 #
plane-surface $-1 0 0 -15.844182510559861 0 0 1 1 0 0 forward_v I I I I #
coedge $-1 $65 $66 $67 $68 forward $26 $-1 #
face $-1 $69 $70 $16 $-1 $71 reversed single #
loop $-1 $-1 $72 $28 #
plane-surface $-1 0 0 15.844182510559861 0 0 1 1 0 0 forward_v I I I I #
coedge $-1 $73 $74 $75 $76 forward $29 $-1 #
face $-1 $77 $78 $17 $-1 $79 reversed single #
loop $-1 $-1 $80 $31 #
plane-surface $-1 69.91912594988861 0 0 -1 0 0 0 0 1 forward_v I I I I #
coedge $-1 $81 $82 $83 $84 forward $32 $-1 #
face $-1 $85 $86 $18 $-1 $87 reversed single #
loop $-1 $-1 $88 $34 #
plane-surface $-1 -69.91912594988861 19.75897616095105 6.296067979510255 -0.55919291073839883 0 0.82903756765294845 0.82903756765294845 0 0.55919291073839883 forward_v I I I I #
coedge $-1 $89 $90 $91 $92 reversed $35 $-1 #
face $-1 $-1 $93 $19 $-1 $94 forward single #
loop $-1 $95 $96 $37 #
cone-surface $-1 -61.499442043174184 19.75897616095105 9.0807462848556142 0.55919291073839883 0 -0.82903756765294845 0.41451878382647422 0 0.27959645536919941 1 I I -0.70710678118654746 0.70710678118654746 0.5 forward I I I I #
loop $-1 $-1 $97 $24 #
coedge $-1 $60 $60 $98 $99 reversed $38 $-1 #
face $-1 $100 $101 $15 $-1 $102 reversed single #
loop $-1 $-1 $103 $40 #
plane-surface $-1 0 -35.296067572933055 0 0 1 0 0 0 1 forward_v I I I I #
coedge $-1 $104 $105 $106 $107 forward $41 $-1 #
coedge $-1 $108 $43 $109 $110 forward $26 $-1 #
coedge $-1 $43 $108 $111 $112 forward $26 $-1 #
coedge $-1 $113 $114 $43 $68 reversed $115 $-1 #
edge $-1 $116 -35.296067572933055 $117 35.296067572933055 $67 $118 forward 7 unknown #
face $-1 $119 $120 $16 $-1 $121 reversed single #
loop $-1 $-1 $122 $44 #
plane-surface $-1 -69.91912594988861 0 0 1 0 0 0 0 -1 forward_v I I I I #
coedge $-1 $123 $124 $125 $126 forward $45 $-1 #
coedge $-1 $125 $47 $122 $127 reversed $29 $-1 #
coedge $-1 $47 $125 $128 $129 reversed $29 $-1 #
coedge $-1 $130 $131 $47 $76 reversed $120 $-1 #
edge $-1 $132 -69.91912594988861 $133 69.91912594988861 $75 $134 forward 7 unknown #
face $-1 $135 $136 $17 $-1 $137 reversed single #
loop $-1 $-1 $138 $48 #
plane-surface $-1 0 41.0909563200766 10.196135443912153 0 0 1 1 0 0 forward_v I I I I #
coedge $-1 $139 $140 $81 $141 forward $49 $-1 #
coedge $-1 $142 $51 $80 $141 reversed $32 $-1 #
coedge $-1 $51 $142 $143 $144 reversed $32 $-1 #
coedge $-1 $145 $138 $51 $84 reversed $78 $-1 #
edge $-1 $146 -69.91912594988861 $147 69.91912594988861 $83 $148 forward 7 unknown #
face $-1 $149 $150 $18 $-1 $151 reversed single #
loop $-1 $-1 $152 $52 #
plane-surface $-1 -148.11568506229446 23.706290078645974 122.22723219934186 0 -1 0 0.55919291073839883 0 -0.82903756765294845 forward_v I I I I #
coedge $-1 $153 $154 $155 $156 reversed $53 $-1 #
coedge $-1 $90 $55 $157 $158 reversed $35 $-1 #
coedge $-1 $55 $89 $153 $159 reversed $35 $-1 #
coedge $-1 $155 $160 $55 $92 forward $161 $-1 #
edge $-1 $162 4.1387165812586204 $163 18.294378240203137 $91 $164 forward 7 unknown #
loop $-1 $-1 $98 $56 #
plane-surface $-1 -69.91912594988861 19.75897616095105 6.296067979510255 -0.55919291073839883 0 0.82903756765294845 0.82903756765294845 0 0.55919291073839883 forward_v I I I I #
loop $-1 $-1 $165 $37 #
coedge $-1 $96 $96 $97 $166 reversed $57 $-1 #
coedge $-1 $97 $97 $96 $166 forward $59 $-1 #
coedge $-1 $98 $98 $60 $99 forward $93 $-1 #
edge $-1 $167 0 $167 6.2831853071796004 $98 $168 forward 7 unknown #
face $-1 $169 $170 $15 $-1 $171 reversed single #
loop $-1 $-1 $172 $61 #
plane-surface $-1 -69.91912594988861 0 0 1 0 0 0 0 -1 forward_v I I I I #
coedge $-1 $173 $111 $174 $175 forward $62 $-1 #
coedge $-1 $176 $64 $173 $177 forward $41 $-1 #
coedge $-1 $64 $176 $178 $179 forward $41 $-1 #
coedge $-1 $114 $113 $64 $107 reversed $115 $-1 #
edge $-1 $180 -35.296067572933055 $181 35.296067572933055 $106 $182 forward 7 unknown #
coedge $-1 $66 $65 $183 $184 forward $26 $-1 #
coedge $-1 $185 $186 $65 $110 reversed $170 $-1 #
edge $-1 $117 -69.91912594988861 $187 69.91912594988861 $109 $188 forward 7 unknown #
coedge $-1 $103 $189 $66 $112 reversed $62 $-1 #
edge $-1 $190 -69.91912594988861 $116 69.91912594988861 $111 $191 forward 7 unknown #
coedge $-1 $106 $67 $189 $192 forward $115 $-1 #
coedge $-1 $67 $106 $185 $193 reversed $115 $-1 #
loop $-1 $-1 $113 $169 #
vertex $-1 $68 $194 #
vertex $-1 $68 $195 #
straight-curve $-1 69.91912594988861 0 15.844182510559861 0 1 0 I I #
face $-1 $196 $197 $16 $-1 $198 reversed single #
loop $-1 $-1 $130 $69 #
plane-surface $-1 0 -41.090956320076593 10.196135443912153 0 0 1 1 0 0 forward_v I I I I #
coedge $-1 $199 $200 $73 $127 forward $70 $-1 #
coedge $-1 $201 $72 $200 $202 forward $45 $-1 #
coedge $-1 $72 $201 $203 $204 forward $45 $-1 #
coedge $-1 $74 $73 $72 $126 reversed $29 $-1 #
edge $-1 $205 -69.91912594988861 $206 69.91912594988861 $72 $207 forward 7 unknown #
edge $-1 $206 -15.844182510559861 $133 -10.196135443912153 $122 $208 forward 7 unknown #
coedge $-1 $203 $209 $74 $129 forward $210 $-1 #
edge $-1 $132 10.196135443912153 $205 15.844182510559861 $128 $211 forward 7 unknown #
coedge $-1 $212 $75 $209 $213 forward $120 $-1 #
coedge $-1 $75 $212 $199 $214 forward $120 $-1 #
vertex $-1 $129 $215 #
vertex $-1 $127 $216 #
straight-curve $-1 0 -35.296067572933055 10.196135443912153 -1 0 0 I I #
face $-1 $217 $218 $17 $-1 $219 forward single #
loop $-1 $-1 $220 $77 #
plane-surface $-1 0 46.885845067220139 13.020158977236008 0 -1 0 0 0 -1 forward_v I I I I #
coedge $-1 $83 $221 $139 $222 forward $78 $-1 #
coedge $-1 $223 $80 $138 $222 reversed $49 $-1 #
coedge $-1 $80 $223 $224 $225 reversed $49 $-1 #
edge $-1 $226 -15.844182510559861 $147 -10.196135443912153 $80 $227 forward 7 unknown #
coedge $-1 $82 $81 $228 $229 reversed $32 $-1 #
coedge $-1 $230 $231 $82 $144 forward $232 $-1 #
edge $-1 $146 10.196135443912153 $233 15.844182510559861 $143 $234 forward 7 unknown #
coedge $-1 $221 $83 $231 $235 forward $78 $-1 #
vertex $-1 $144 $236 #
vertex $-1 $141 $237 #
straight-curve $-1 0 35.296067572933055 10.196135443912153 1 0 0 I I #
face $-1 $-1 $161 $18 $-1 $238 forward single #
loop $-1 $-1 $239 $85 #
plane-surface $-1 -69.91912594988861 0 0 1 0 0 0 0 -1 forward_v I I I I #
coedge $-1 $240 $241 $242 $243 reversed $86 $-1 #
coedge $-1 $244 $88 $90 $159 forward $53 $-1 #
coedge $-1 $88 $244 $240 $245 forward $53 $-1 #
coedge $-1 $242 $91 $88 $156 forward $161 $-1 #
edge $-1 $163 5.9321741627806013 $246 13.826801998170449 $155 $247 forward 7 unknown #
coedge $-1 $248 $249 $89 $158 forward $150 $-1 #
edge $-1 $250 -54.817548120160673 $162 -45.269433589111067 $157 $251 forward 7 unknown #
edge $-1 $163 -17.074813266930697 $250 0 $90 $252 forward 7 unknown #
coedge $-1 $91 $242 $248 $253 forward $161 $-1 #
loop $-1 $-1 $242 $149 #
vertex $-1 $158 $254 #
vertex $-1 $92 $255 #
straight-curve $-1 -74.05784253114723 15.811662243256126 15.844182510559861 1 0 0 I I #
coedge $-1 $165 $165 $-1 $256 reversed $95 $-1 #
edge $-1 $257 0 $257 6.2831853071796004 $96 $258 forward 7 unknown #
vertex $-1 $99 $259 #
ellipse-curve $-1 -62.841295120416355 19.75897616095105 11.070125245035056 -0.55919291073839883 0 0.82903756765294845 0.82903756765294845 0 0.55919291073839883 1 I I #
face $-1 $-1 $115 $15 $-1 $260 reversed single #
loop $-1 $-1 $185 $100 #
plane-surface $-1 0 35.296067572933055 0 0 -1 0 0 0 -1 forward_v I I I I #
coedge $-1 $261 $183 $186 $262 forward $101 $-1 #
coedge $-1 $189 $103 $104 $177 reversed $62 $-1 #
coedge $-1 $183 $261 $103 $175 reversed $101 $-1 #
edge $-1 $190 -15.844182510559861 $263 15.844182510559861 $174 $264 forward 7 unknown #
coedge $-1 $105 $104 $261 $265 forward $41 $-1 #
edge $-1 $181 -69.91912594988861 $263 69.91912594988861 $173 $266 forward 7 unknown #
coedge $-1 $186 $185 $105 $179 reversed $170 $-1 #
edge $-1 $267 -69.91912594988861 $180 69.91912594988861 $178 $268 forward 7 unknown #
vertex $-1 $107 $269 #
vertex $-1 $192 $270 #
straight-curve $-1 69.91912594988861 0 -15.844182510559861 0 -1 0 I I #
coedge $-1 $172 $174 $108 $184 reversed $101 $-1 #
edge $-1 $187 -35.296067572933055 $190 35.296067572933055 $183 $271 forward 7 unknown #
coedge $-1 $178 $109 $114 $193 forward $170 $-1 #
coedge $-1 $109 $178 $172 $262 reversed $170 $-1 #
vertex $-1 $110 $272 #
straight-curve $-1 0 35.296067572933055 15.844182510559861 -1 0 0 I I #
coedge $-1 $111 $173 $113 $192 reversed $62 $-1 #
vertex $-1 $184 $273 #
straight-curve $-1 0 -35.296067572933055 15.844182510559861 1 0 0 I I #
edge $-1 $116 -15.844182510559861 $181 15.844182510559861 $113 $274 forward 7 unknown #
edge $-1 $117 -15.844182510559861 $180 15.844182510559861 $114 $275 forward 7 unknown #
point $-1 69.91912594988861 -35.296067572933055 15.844182510559861 #
point $-1 69.91912594988861 35.296067572933055 15.844182510559861 #
face $-1 $-1 $210 $16 $-1 $276 reversed single #
loop $-1 $-1 $277 $119 #
plane-surface $-1 0 -46.885845067220131 13.020158977236008 0 1 0 0 0 1 forward_v I I I I #
coedge $-1 $278 $122 $131 $214 reversed $70 $-1 #
coedge $-1 $122 $278 $123 $202 reversed $70 $-1 #
coedge $-1 $124 $123 $279 $280 forward $45 $-1 #
edge $-1 $206 35.296067572933055 $281 46.885845067220131 $200 $282 forward 7 unknown #
coedge $-1 $283 $128 $124 $204 reversed $210 $-1 #
edge $-1 $284 -46.885845067220131 $205 -35.296067572933055 $203 $285 forward 7 unknown #
vertex $-1 $129 $286 #
vertex $-1 $202 $287 #
straight-curve $-1 0 -35.296067572933055 15.844182510559861 -1 0 0 I I #
straight-curve $-1 -69.91912594988861 -35.296067572933055 0 0 0 -1 I I #
coedge $-1 $128 $283 $130 $213 reversed $210 $-1 #
loop $-1 $-1 $128 $196 #
straight-curve $-1 69.91912594988861 -35.296067572933055 0 0 0 1 I I #
coedge $-1 $131 $130 $288 $289 forward $120 $-1 #
edge $-1 $132 -5.7948887471435384 $290 5.7948887471435384 $209 $291 forward 7 unknown #
edge $-1 $292 -5.7948887471435384 $133 5.7948887471435384 $199 $293 forward 7 unknown #
point $-1 69.91912594988861 -35.296067572933055 10.196135443912153 #
point $-1 -69.91912594988861 -35.296067572933055 10.196135443912153 #
face $-1 $-1 $232 $17 $-1 $294 reversed single #
loop $-1 $-1 $228 $135 #
plane-surface $-1 0 0 15.844182510559861 0 0 1 1 0 0 forward_v I I I I #
coedge $-1 $295 $296 $223 $297 forward $136 $-1 #
coedge $-1 $138 $145 $295 $298 forward $78 $-1 #
edge $-1 $299 -5.7948887471435384 $147 5.7948887471435384 $139 $300 forward 7 unknown #
coedge $-1 $140 $139 $220 $297 reversed $49 $-1 #
coedge $-1 $301 $228 $140 $225 forward $218 $-1 #
edge $-1 $226 35.296067572933055 $302 46.885845067220139 $140 $303 forward 7 unknown #
vertex $-1 $225 $304 #
straight-curve $-1 69.91912594988861 35.296067572933055 0 0 0 -1 I I #
coedge $-1 $224 $305 $142 $229 forward $218 $-1 #
edge $-1 $233 -69.91912594988861 $226 69.91912594988861 $228 $306 forward 7 unknown #
coedge $-1 $307 $143 $305 $308 reversed $232 $-1 #
coedge $-1 $143 $307 $145 $235 reversed $232 $-1 #
loop $-1 $-1 $143 $217 #
vertex $-1 $144 $309 #
straight-curve $-1 -69.91912594988861 35.296067572933055 0 0 0 1 I I #
edge $-1 $146 -5.7948887471435384 $310 5.7948887471435384 $231 $311 forward 7 unknown #
point $-1 -69.91912594988861 35.296067572933062 10.196135443912153 #
point $-1 69.91912594988861 35.296067572933062 10.196135443912153 #
plane-surface $-1 0 0 15.844182510559861 0 0 1 1 0 0 forward_v I I I I #
coedge $-1 $249 $248 $241 $312 forward $150 $-1 #
coedge $-1 $241 $152 $154 $245 reversed $86 $-1 #
coedge $-1 $152 $240 $239 $312 reversed $86 $-1 #
coedge $-1 $160 $155 $152 $243 forward $161 $-1 #
edge $-1 $246 -18.294378240203137 $313 -4.1387165812586204 $242 $314 forward 7 unknown #
coedge $-1 $154 $153 $249 $315 reversed $53 $-1 #
edge $-1 $316 0 $246 17.074813266930697 $240 $317 forward 7 unknown #
vertex $-1 $156 $318 #
straight-curve $-1 -55.763464290944093 9.8794880804755252 15.844182510559861 0 1 0 I I #
coedge $-1 $239 $157 $160 $253 reversed $150 $-1 #
coedge $-1 $157 $239 $244 $315 forward $150 $-1 #
vertex $-1 $158 $319 #
straight-curve $-1 -69.91912594988861 15.811662243256126 61.113616099670928 0 0 1 I I #
straight-curve $-1 -69.91912594988861 15.811662243256126 6.296067979510255 -0.82903756765294845 0 -0.55919291073839883 I I #
edge $-1 $313 -23.706290078645974 $162 -15.811662243256126 $248 $320 forward 7 unknown #
point $-1 -69.91912594988861 15.811662243256126 15.844182510559861 #
point $-1 -55.763464290944093 15.811662243256126 15.844182510559861 #
edge $-1 $321 1 $321 0 $165 $-1 forward 7 unknown #
vertex $-1 $166 $322 #
ellipse-curve $-1 -61.779038498543386 19.75897616095105 9.4952650686820892 -0.55919291073839883 0 0.82903756765294845 0.82903756765294845 0 0.55919291073839883 1 I I #
point $-1 -62.012257552763401 19.75897616095105 11.629318155773456 #
plane-surface $-1 69.91912594988861 0 0 -1 0 0 0 0 1 forward_v I I I I #
coedge $-1 $174 $172 $176 $265 reversed $101 $-1 #
edge $-1 $187 -15.844182510559861 $267 15.844182510559861 $186 $323 forward 7 unknown #
vertex $-1 $265 $324 #
straight-curve $-1 -69.91912594988861 -35.296067572933055 0 0 0 -1 I I #
edge $-1 $263 -35.296067572933055 $267 35.296067572933055 $261 $325 forward 7 unknown #
straight-curve $-1 0 -35.296067572933055 -15.844182510559861 -1 0 0 I I #
vertex $-1 $179 $326 #
straight-curve $-1 0 35.296067572933055 -15.844182510559861 1 0 0 I I #
point $-1 69.91912594988861 35.296067572933055 -15.844182510559861 #
point $-1 69.91912594988861 -35.296067572933055 -15.844182510559861 #
straight-curve $-1 -69.91912594988861 0 15.844182510559861 0 -1 0 I I #
point $-1 -69.91912594988861 35.296067572933055 15.844182510559861 #
point $-1 -69.91912594988861 -35.296067572933055 15.844182510559861 #
straight-curve $-1 69.91912594988861 -35.296067572933055 0 0 0 -1 I I #
straight-curve $-1 69.91912594988861 35.296067572933055 0 0 0 -1 I I #
plane-surface $-1 69.91912594988861 0 0 -1 0 0 0 0 1 forward_v I I I I #
coedge $-1 $288 $279 $278 $327 forward $197 $-1 #
coedge $-1 $200 $199 $277 $327 reversed $70 $-1 #
coedge $-1 $277 $328 $201 $280 reversed $197 $-1 #
edge $-1 $281 -69.91912594988861 $284 69.91912594988861 $279 $329 forward 7 unknown #
vertex $-1 $202 $330 #
straight-curve $-1 -69.91912594988861 0 15.844182510559861 0 -1 0 I I #
coedge $-1 $209 $203 $328 $331 forward $210 $-1 #
vertex $-1 $204 $332 #
straight-curve $-1 69.91912594988861 0 15.844182510559861 0 1 0 I I #
point $-1 69.91912594988861 -35.296067572933055 15.844182510559861 #
point $-1 -69.91912594988861 -35.296067572933055 15.844182510559861 #
coedge $-1 $328 $277 $212 $289 reversed $197 $-1 #
edge $-1 $290 -69.91912594988861 $292 69.91912594988861 $288 $333 forward 7 unknown #
vertex $-1 $331 $334 #
straight-curve $-1 69.91912594988861 -41.090956320076593 10.196135443912153 0 -1 0 I I #
vertex $-1 $214 $335 #
straight-curve $-1 -69.91912594988861 -41.090956320076593 10.196135443912153 0 1 0 I I #
plane-surface $-1 -69.91912594988861 0 0 1 0 0 0 0 -1 forward_v I I I I #
coedge $-1 $336 $220 $221 $298 reversed $136 $-1 #
coedge $-1 $220 $336 $301 $337 reversed $136 $-1 #
edge $-1 $302 -2.8240235333238548 $299 2.8240235333238548 $223 $338 forward 7 unknown #
edge $-1 $310 -69.91912594988861 $299 69.91912594988861 $295 $339 forward 7 unknown #
vertex $-1 $222 $340 #
straight-curve $-1 69.91912594988861 41.0909563200766 10.196135443912153 0 -1 0 I I #
coedge $-1 $305 $224 $296 $337 forward $218 $-1 #
vertex $-1 $225 $341 #
straight-curve $-1 69.91912594988861 0 15.844182510559861 0 1 0 I I #
point $-1 69.91912594988861 35.296067572933055 15.844182510559861 #
coedge $-1 $228 $301 $230 $308 forward $218 $-1 #
straight-curve $-1 0 35.296067572933055 15.844182510559861 1 0 0 I I #
coedge $-1 $231 $230 $336 $342 forward $232 $-1 #
edge $-1 $343 -46.885845067220139 $233 -35.296067572933055 $230 $344 forward 7 unknown #
point $-1 -69.91912594988861 35.296067572933055 15.844182510559861 #
vertex $-1 $298 $345 #
straight-curve $-1 -69.91912594988861 41.0909563200766 10.196135443912153 0 1 0 I I #
edge $-1 $313 45.269433589111067 $316 54.817548120160673 $239 $346 forward 7 unknown #
vertex $-1 $253 $347 #
straight-curve $-1 -74.05784253114723 23.706290078645974 15.844182510559861 -1 0 0 I I #
edge $-1 $316 -13.826801998170449 $250 -5.9321741627806013 $249 $348 forward 7 unknown #
vertex $-1 $315 $349 #
straight-curve $-1 -69.91912594988861 23.706290078645974 6.296067979510255 0.82903756765294845 0 0.55919291073839883 I I #
point $-1 -55.763464290944093 23.706290078645974 15.844182510559861 #
point $-1 -69.91912594988861 15.811662243256126 6.296067979510255 #
straight-curve $-1 -69.91912594988861 0 15.844182510559861 0 -1 0 I I #
vertex $-1 $256 $350 #
point $-1 -60.950000930890432 19.75897616095105 10.054457979420487 #
straight-curve $-1 -69.91912594988861 35.296067572933055 0 0 0 -1 I I #
point $-1 -69.91912594988861 -35.296067572933055 -15.844182510559861 #
straight-curve $-1 -69.91912594988861 0 -15.844182510559861 0 1 0 I I #
point $-1 -69.91912594988861 35.296067572933055 -15.844182510559861 #
edge $-1 $281 -2.8240235333238548 $292 2.8240235333238548 $278 $351 forward 7 unknown #
coedge $-1 $279 $288 $283 $331 reversed $197 $-1 #
straight-curve $-1 0 -46.885845067220131 15.844182510559863 1 0 0 I I #
point $-1 -69.91912594988861 -46.885845067220131 15.844182510559863 #
edge $-1 $284 -2.8240235333238548 $290 2.8240235333238548 $283 $352 forward 7 unknown #
point $-1 69.91912594988861 -46.885845067220131 15.844182510559863 #
straight-curve $-1 0 -46.885845067220131 10.196135443912153 -1 0 0 I I #
point $-1 69.91912594988861 -46.885845067220131 10.196135443912153 #
point $-1 -69.91912594988861 -46.885845067220131 10.196135443912153 #
coedge $-1 $296 $295 $307 $342 reversed $136 $-1 #
edge $-1 $302 -69.91912594988861 $343 69.91912594988861 $296 $353 forward 7 unknown #
straight-curve $-1 69.91912594988861 46.885845067220139 13.020158977236008 0 0 -1 I I #
straight-curve $-1 0 46.885845067220139 10.196135443912153 1 0 0 I I #
point $-1 69.91912594988861 46.885845067220139 10.196135443912153 #
point $-1 69.91912594988861 46.885845067220139 15.844182510559863 #
edge $-1 $343 -2.8240235333238548 $310 2.8240235333238548 $336 $354 forward 7 unknown #
vertex $-1 $337 $355 #
straight-curve $-1 -69.91912594988861 0 15.844182510559861 0 -1 0 I I #
point $-1 -69.91912594988861 46.885845067220139 10.196135443912153 #
straight-curve $-1 -69.91912594988861 23.706290078645974 61.113616099670928 0 0 -1 I I #
point $-1 -69.91912594988861 23.706290078645974 15.844182510559861 #
straight-curve $-1 -69.91912594988861 9.8794880804755252 6.2960679795102603 0 -1 0 I I #
point $-1 -69.91912594988861 23.706290078645974 6.296067979510255 #
point $-1 -61.219845587804983 19.75897616095105 8.6662275010291392 #
straight-curve $-1 -69.91912594988861 -46.885845067220131 13.020158977236008 0 0 -1 I I #
straight-curve $-1 69.91912594988861 -46.885845067220131 13.020158977236008 0 0 -1 I I #
straight-curve $-1 0 46.885845067220139 15.844182510559863 -1 0 0 I I #
straight-curve $-1 -69.91912594988861 46.885845067220139 13.020158977236008 0 0 -1 I I #
point $-1 -69.91912594988861 46.885845067220139 15.844182510559863 #
End-of-ACIS-data 