500 0 15 0           
7 Unknown 11 ACIS 5.0 NT 24 Fri Mar 26 17:44:41 1999 
-1 9.9999999999999995e-007 1e-010 
body $-1 $15 $-1 $16 #
body $-1 $17 $-1 $18 #
body $-1 $19 $-1 $20 #
body $-1 $21 $-1 $22 #
body $-1 $23 $-1 $24 #
body $-1 $25 $-1 $26 #
body $-1 $27 $-1 $28 #
body $-1 $29 $-1 $30 #
body $-1 $31 $-1 $32 #
body $-1 $33 $-1 $34 #
body $-1 $35 $-1 $36 #
body $-1 $37 $-1 $38 #
body $-1 $39 $-1 $40 #
body $-1 $41 $-1 $42 #
body $-1 $43 $-1 $44 #
lump $-1 $-1 $45 $0 #
transform $-1 1 0 0 0 1 0 0 0 1 75.174413281655319 31.057423167142328 10.249224514773305 1 rotate no_reflect no_shear #
lump $-1 $-1 $46 $1 #
transform $-1 1 0 0 0 1 0 0 0 1 75.174413281655319 31.057423167142328 10.249224514773305 1 rotate no_reflect no_shear #
lump $-1 $-1 $47 $2 #
transform $-1 1 0 0 0 1 0 0 0 1 75.174413281655319 31.057423167142328 10.249224514773305 1 rotate no_reflect no_shear #
lump $-1 $-1 $48 $3 #
transform $-1 1 0 0 0 1 0 0 0 1 75.174413281655319 31.057423167142328 10.249224514773305 1 rotate no_reflect no_shear #
lump $-1 $-1 $49 $4 #
transform $-1 1 0 0 0 1 0 0 0 1 75.174413281655319 31.057423167142328 10.249224514773305 1 rotate no_reflect no_shear #
lump $-1 $-1 $50 $5 #
transform $-1 1 0 0 0 1 0 0 0 1 75.174413281655319 31.057423167142328 10.249224514773305 1 rotate no_reflect no_shear #
lump $-1 $-1 $51 $6 #
transform $-1 1 0 0 0 1 0 0 0 1 75.174413281655319 31.057423167142328 10.249224514773305 1 rotate no_reflect no_shear #
lump $-1 $-1 $52 $7 #
transform $-1 1 0 0 0 1 0 0 0 1 75.174413281655319 31.057423167142328 10.249224514773305 1 rotate no_reflect no_shear #
lump $-1 $-1 $53 $8 #
transform $-1 1 0 0 0 1 0 0 0 1 75.174413281655319 31.057423167142328 10.249224514773305 1 rotate no_reflect no_shear #
lump $-1 $-1 $54 $9 #
transform $-1 1 0 0 0 1 0 0 0 1 75.174413281655319 31.057423167142328 10.249224514773305 1 rotate no_reflect no_shear #
lump $-1 $-1 $55 $10 #
transform $-1 1 0 0 0 1 0 0 0 1 75.174413281655319 31.057423167142328 10.249224514773305 1 rotate no_reflect no_shear #
lump $-1 $-1 $56 $11 #
transform $-1 1 0 0 0 1 0 0 0 1 75.174413281655319 31.057423167142328 10.249224514773305 1 rotate no_reflect no_shear #
lump $-1 $-1 $57 $12 #
transform $-1 1 0 0 0 1 0 0 0 1 75.174413281655319 31.057423167142328 10.249224514773305 1 rotate no_reflect no_shear #
lump $-1 $-1 $58 $13 #
transform $-1 1 0 0 0 1 0 0 0 1 75.174413281655319 31.057423167142328 10.249224514773305 1 rotate no_reflect no_shear #
lump $-1 $-1 $59 $14 #
transform $-1 1 0 0 0 1 0 0 0 1 75.174413281655319 31.057423167142328 10.249224514773305 1 rotate no_reflect no_shear #
shell $-1 $-1 $-1 $60 $-1 $15 #
shell $-1 $-1 $-1 $61 $-1 $17 #
shell $-1 $-1 $-1 $62 $-1 $19 #
shell $-1 $-1 $-1 $63 $-1 $21 #
shell $-1 $-1 $-1 $64 $-1 $23 #
shell $-1 $-1 $-1 $65 $-1 $25 #
shell $-1 $-1 $-1 $66 $-1 $27 #
shell $-1 $-1 $-1 $67 $-1 $29 #
shell $-1 $-1 $-1 $68 $-1 $31 #
shell $-1 $-1 $-1 $69 $-1 $33 #
shell $-1 $-1 $-1 $70 $-1 $35 #
shell $-1 $-1 $-1 $71 $-1 $37 #
shell $-1 $-1 $-1 $72 $-1 $39 #
shell $-1 $-1 $-1 $73 $-1 $41 #
shell $-1 $-1 $-1 $74 $-1 $43 #
face $-1 $75 $76 $45 $-1 $77 forward single #
face $-1 $78 $79 $46 $-1 $80 reversed single #
face $-1 $81 $82 $47 $-1 $83 reversed single #
face $-1 $84 $85 $48 $-1 $86 reversed single #
face $-1 $87 $88 $49 $-1 $89 forward single #
face $-1 $90 $91 $50 $-1 $92 forward single #
face $-1 $93 $94 $51 $-1 $95 reversed single #
face $-1 $96 $97 $52 $-1 $98 forward single #
face $-1 $99 $100 $53 $-1 $101 forward single #
face $-1 $102 $103 $54 $-1 $104 reversed single #
face $-1 $105 $106 $55 $-1 $107 forward single #
face $-1 $108 $109 $56 $-1 $110 forward single #
face $-1 $111 $112 $57 $-1 $113 reversed single #
face $-1 $114 $115 $58 $-1 $116 forward single #
face $-1 $117 $118 $59 $-1 $119 forward single #
face $-1 $120 $121 $45 $-1 $122 reversed single #
loop $-1 $-1 $123 $60 #
plane-surface $-1 0 0 10.249224514773305 0 0 1 1 0 0 forward_v I I I I #
face $-1 $124 $125 $46 $-1 $126 reversed single #
loop $-1 $-1 $127 $61 #
plane-surface $-1 -68.852743399141929 -29.315143691984737 0 0 1 0 0 0 1 forward_v I I I I #
face $-1 $128 $129 $47 $-1 $130 reversed single #
loop $-1 $-1 $131 $62 #
plane-surface $-1 68.852743399141929 -29.315143691984737 0 0 1 0 0 0 1 forward_v I I I I #
face $-1 $132 $133 $48 $-1 $134 reversed single #
loop $-1 $-1 $135 $63 #
plane-surface $-1 -25.471930475876249 -129.69512953164252 116.58358878305918 -1 0 0 0 -0.6560590369687036 0.75470957328743171 forward_v I I I I #
face $-1 $136 $137 $49 $-1 $138 forward single #
loop $-1 $139 $140 $64 #
cone-surface $-1 -40.988357345835446 -24.996446888600126 4.4304650170982534 0 0.6560590369687036 -0.75470957328743171 2 0 0 1 I I 0 1 2 forward I I I I #
face $-1 $141 $142 $50 $-1 $143 forward single #
loop $-1 $144 $145 $65 #
cone-surface $-1 -31.678501223859925 -24.996446888600126 4.4304650170982534 0 0.6560590369687036 -0.75470957328743171 2 0 0 1 I I 0 1 2 forward I I I I #
face $-1 $146 $147 $51 $-1 $148 reversed single #
loop $-1 $-1 $149 $66 #
plane-surface $-1 47.194928093819122 -129.69512953164252 116.58358878305918 -1 0 0 0 -0.6560590369687036 0.75470957328743171 forward_v I I I I #
face $-1 $150 $151 $52 $-1 $152 forward single #
loop $-1 $153 $154 $67 #
cone-surface $-1 31.678501223859911 -24.996446888600126 4.4304650170982534 0 0.6560590369687036 -0.75470957328743171 2 0 0 1 I I 0 1 2 forward I I I I #
face $-1 $155 $156 $53 $-1 $157 forward single #
loop $-1 $158 $159 $68 #
cone-surface $-1 40.988357345835439 -24.996446888600126 4.4304650170982534 0 0.6560590369687036 -0.75470957328743171 2 0 0 1 I I 0 1 2 forward I I I I #
face $-1 $160 $161 $54 $-1 $162 reversed single #
loop $-1 $-1 $163 $69 #
plane-surface $-1 -47.194928093819129 82.816460359880153 157.33459505058897 1 0 0 0 -0.6560590369687036 -0.75470957328743171 forward_v I I I I #
face $-1 $164 $165 $55 $-1 $166 forward single #
loop $-1 $167 $168 $70 #
cone-surface $-1 -40.988357345835446 24.996446888600126 4.4304650170982551 0 -0.6560590369687036 -0.75470957328743171 2 0 0 1 I I 0 1 2 forward I I I I #
face $-1 $169 $170 $56 $-1 $171 forward single #
loop $-1 $172 $173 $71 #
cone-surface $-1 -31.678501223859925 24.996446888600126 4.4304650170982551 0 -0.6560590369687036 -0.75470957328743171 2 0 0 1 I I 0 1 2 forward I I I I #
face $-1 $174 $175 $57 $-1 $176 reversed single #
loop $-1 $-1 $177 $72 #
plane-surface $-1 25.471930475876242 82.816460359880153 157.33459505058897 1 0 0 0 -0.6560590369687036 -0.75470957328743171 forward_v I I I I #
face $-1 $178 $179 $58 $-1 $180 forward single #
loop $-1 $181 $182 $73 #
cone-surface $-1 31.678501223859911 24.996446888600126 4.4304650170982551 0 -0.6560590369687036 -0.75470957328743171 2 0 0 1 I I 0 1 2 forward I I I I #
face $-1 $183 $184 $59 $-1 $185 forward single #
loop $-1 $186 $187 $74 #
cone-surface $-1 40.988357345835439 24.996446888600126 4.4304650170982551 0 -0.6560590369687036 -0.75470957328743171 2 0 0 1 I I 0 1 2 forward I I I I #
face $-1 $188 $189 $45 $-1 $190 reversed single #
loop $-1 $-1 $191 $75 #
plane-surface $-1 0 0 -10.249224514773305 0 0 1 1 0 0 forward_v I I I I #
coedge $-1 $192 $193 $194 $195 forward $76 $-1 #
face $-1 $196 $197 $46 $-1 $198 reversed single #
loop $-1 $-1 $199 $78 #
plane-surface $-1 -68.852743399141929 -26.253857632043747 0 0 -1 0 0 0 -1 forward_v I I I I #
coedge $-1 $200 $201 $202 $203 reversed $79 $-1 #
face $-1 $204 $205 $47 $-1 $206 reversed single #
loop $-1 $-1 $207 $81 #
plane-surface $-1 62.531073516628538 -27.784500662014242 0 1 0 0 0 0 -1 forward_v I I I I #
coedge $-1 $208 $209 $210 $211 forward $82 $-1 #
face $-1 $212 $213 $48 $-1 $214 reversed single #
loop $-1 $-1 $215 $84 #
plane-surface $-1 -36.333429284847689 -31.057423167142304 3.1138900431969319 0 -0.6560590369687036 0.75470957328743171 1 0 0 forward_v I I I I #
coedge $-1 $216 $217 $218 $219 reversed $85 $-1 #
face $-1 $-1 $220 $49 $-1 $221 forward single #
loop $-1 $222 $223 $87 #
cone-surface $-1 -40.988357345835446 -22.383543160993394 1.4246631819239504 0 0.6560590369687036 -0.75470957328743171 1 0 0 1 I I -0.70710678118654746 0.70710678118654746 1 forward I I I I #
loop $-1 $-1 $224 $64 #
coedge $-1 $140 $140 $225 $226 reversed $88 $-1 #
face $-1 $-1 $227 $50 $-1 $228 forward single #
loop $-1 $229 $230 $90 #
cone-surface $-1 -31.678501223859925 -22.383543160993394 1.4246631819239504 0 0.6560590369687036 -0.75470957328743171 1 0 0 1 I I -0.70710678118654746 0.70710678118654746 1 forward I I I I #
loop $-1 $-1 $231 $65 #
coedge $-1 $145 $145 $232 $233 reversed $91 $-1 #
face $-1 $234 $235 $51 $-1 $236 reversed single #
loop $-1 $-1 $237 $93 #
plane-surface $-1 36.333429284847682 -31.057423167142304 3.1138900431969319 0 -0.6560590369687036 0.75470957328743171 1 0 0 forward_v I I I I #
coedge $-1 $238 $239 $240 $241 reversed $94 $-1 #
face $-1 $-1 $242 $52 $-1 $243 forward single #
loop $-1 $244 $245 $96 #
cone-surface $-1 31.678501223859911 -22.383543160993394 1.4246631819239504 0 0.6560590369687036 -0.75470957328743171 1 0 0 1 I I -0.70710678118654746 0.70710678118654746 1 forward I I I I #
loop $-1 $-1 $246 $67 #
coedge $-1 $154 $154 $247 $248 reversed $97 $-1 #
face $-1 $-1 $249 $53 $-1 $250 forward single #
loop $-1 $251 $252 $99 #
cone-surface $-1 40.988357345835439 -22.383543160993394 1.4246631819239504 0 0.6560590369687036 -0.75470957328743171 1 0 0 1 I I -0.70710678118654746 0.70710678118654746 1 forward I I I I #
loop $-1 $-1 $253 $68 #
coedge $-1 $159 $159 $254 $255 reversed $100 $-1 #
face $-1 $256 $257 $54 $-1 $258 reversed single #
loop $-1 $-1 $259 $102 #
plane-surface $-1 -36.333429284847689 -15.821246004620065 43.864896310726721 0 0.6560590369687036 0.75470957328743171 1 0 0 forward_v I I I I #
coedge $-1 $260 $261 $262 $263 reversed $103 $-1 #
face $-1 $-1 $264 $55 $-1 $265 forward single #
loop $-1 $266 $267 $105 #
cone-surface $-1 -40.988357345835446 22.383543160993394 1.4246631819239521 0 -0.6560590369687036 -0.75470957328743171 1 0 0 1 I I -0.70710678118654746 0.70710678118654746 1 forward I I I I #
loop $-1 $-1 $268 $70 #
coedge $-1 $168 $168 $269 $270 reversed $106 $-1 #
face $-1 $-1 $271 $56 $-1 $272 forward single #
loop $-1 $273 $274 $108 #
cone-surface $-1 -31.678501223859925 22.383543160993394 1.4246631819239521 0 -0.6560590369687036 -0.75470957328743171 1 0 0 1 I I -0.70710678118654746 0.70710678118654746 1 forward I I I I #
loop $-1 $-1 $275 $71 #
coedge $-1 $173 $173 $276 $277 reversed $109 $-1 #
face $-1 $278 $279 $57 $-1 $280 reversed single #
loop $-1 $-1 $281 $111 #
plane-surface $-1 36.333429284847682 -15.821246004620065 43.864896310726721 0 0.6560590369687036 0.75470957328743171 1 0 0 forward_v I I I I #
coedge $-1 $282 $283 $284 $285 reversed $112 $-1 #
face $-1 $-1 $286 $58 $-1 $287 forward single #
loop $-1 $288 $289 $114 #
cone-surface $-1 31.678501223859911 22.383543160993394 1.4246631819239521 0 -0.6560590369687036 -0.75470957328743171 1 0 0 1 I I -0.70710678118654746 0.70710678118654746 1 forward I I I I #
loop $-1 $-1 $290 $73 #
coedge $-1 $182 $182 $291 $292 reversed $115 $-1 #
face $-1 $-1 $293 $59 $-1 $294 forward single #
loop $-1 $295 $296 $117 #
cone-surface $-1 40.988357345835439 22.383543160993394 1.4246631819239521 0 -0.6560590369687036 -0.75470957328743171 1 0 0 1 I I -0.70710678118654746 0.70710678118654746 1 forward I I I I #
loop $-1 $-1 $297 $74 #
coedge $-1 $187 $187 $298 $299 reversed $118 $-1 #
face $-1 $300 $301 $45 $-1 $302 reversed single #
loop $-1 $-1 $303 $120 #
plane-surface $-1 0 -31.057423167142328 0 0 1 0 0 0 1 forward_v I I I I #
coedge $-1 $304 $305 $306 $307 forward $121 $-1 #
coedge $-1 $308 $123 $309 $310 forward $76 $-1 #
coedge $-1 $123 $308 $311 $312 forward $76 $-1 #
coedge $-1 $313 $314 $123 $195 reversed $315 $-1 #
edge $-1 $316 -31.057423167142328 $317 31.057423167142328 $194 $318 forward 7 unknown #
face $-1 $319 $320 $46 $-1 $321 reversed single #
loop $-1 $-1 $322 $124 #
plane-surface $-1 -62.531073516628538 -27.784500662014242 0 -1 0 0 0 0 1 forward_v I I I I #
coedge $-1 $323 $324 $325 $326 forward $125 $-1 #
coedge $-1 $327 $127 $328 $329 reversed $79 $-1 #
coedge $-1 $127 $327 $330 $331 reversed $79 $-1 #
coedge $-1 $332 $333 $127 $203 forward $334 $-1 #
edge $-1 $335 -10.249224514773305 $336 10.249224514773305 $202 $337 forward 7 unknown #
face $-1 $338 $339 $47 $-1 $340 reversed single #
loop $-1 $-1 $341 $128 #
plane-surface $-1 68.852743399141929 -26.253857632043747 0 0 -1 0 0 0 -1 forward_v I I I I #
coedge $-1 $342 $343 $344 $345 forward $129 $-1 #
coedge $-1 $346 $131 $347 $348 reversed $82 $-1 #
coedge $-1 $131 $346 $349 $350 reversed $82 $-1 #
coedge $-1 $343 $342 $131 $211 reversed $129 $-1 #
edge $-1 $351 -10.249224514773305 $352 10.249224514773305 $210 $353 forward 7 unknown #
face $-1 $354 $355 $48 $-1 $356 forward single #
loop $-1 $-1 $357 $132 #
plane-surface $-1 -47.194928093819129 -129.69512953164252 116.58358878305918 1 0 0 0 0.6560590369687036 -0.75470957328743171 forward_v I I I I #
coedge $-1 $358 $359 $360 $361 reversed $133 $-1 #
coedge $-1 $217 $135 $362 $363 reversed $85 $-1 #
coedge $-1 $135 $216 $358 $364 reversed $85 $-1 #
coedge $-1 $360 $365 $135 $219 forward $355 $-1 #
edge $-1 $366 33.790141598678929 $367 41.998404774487319 $218 $368 forward 7 unknown #
loop $-1 $-1 $225 $136 #
plane-surface $-1 -36.333429284847689 -31.057423167142304 3.1138900431969319 0 -0.6560590369687036 0.75470957328743171 1 0 0 forward_v I I I I #
loop $-1 $-1 $369 $87 #
coedge $-1 $223 $223 $224 $370 reversed $137 $-1 #
coedge $-1 $224 $224 $223 $370 forward $139 $-1 #
coedge $-1 $225 $225 $140 $226 forward $220 $-1 #
edge $-1 $371 7.5578947711102097e-016 $371 6.2831853071796013 $225 $372 forward 7 unknown #
loop $-1 $-1 $232 $141 #
plane-surface $-1 -36.333429284847689 -31.057423167142304 3.1138900431969319 0 -0.6560590369687036 0.75470957328743171 1 0 0 forward_v I I I I #
loop $-1 $-1 $373 $90 #
coedge $-1 $230 $230 $231 $374 reversed $142 $-1 #
coedge $-1 $231 $231 $230 $374 forward $144 $-1 #
coedge $-1 $232 $232 $145 $233 forward $227 $-1 #
edge $-1 $375 7.5578947711102097e-016 $375 6.2831853071796013 $232 $376 forward 7 unknown #
face $-1 $377 $378 $51 $-1 $379 reversed single #
loop $-1 $-1 $380 $146 #
plane-surface $-1 25.471930475876242 -129.69512953164252 116.58358878305918 1 0 0 0 0.6560590369687036 -0.75470957328743171 forward_v I I I I #
coedge $-1 $381 $382 $383 $384 reversed $147 $-1 #
coedge $-1 $239 $149 $385 $386 reversed $94 $-1 #
coedge $-1 $149 $238 $381 $387 reversed $94 $-1 #
coedge $-1 $383 $388 $149 $241 forward $389 $-1 #
edge $-1 $390 33.790141598678929 $391 41.998404774487319 $240 $392 forward 7 unknown #
loop $-1 $-1 $247 $150 #
plane-surface $-1 36.333429284847682 -31.057423167142304 3.1138900431969319 0 -0.6560590369687036 0.75470957328743171 1 0 0 forward_v I I I I #
loop $-1 $-1 $393 $96 #
coedge $-1 $245 $245 $246 $394 reversed $151 $-1 #
coedge $-1 $246 $246 $245 $394 forward $153 $-1 #
coedge $-1 $247 $247 $154 $248 forward $242 $-1 #
edge $-1 $395 7.5578947711102097e-016 $395 6.2831853071796013 $247 $396 forward 7 unknown #
loop $-1 $-1 $254 $155 #
plane-surface $-1 36.333429284847682 -31.057423167142304 3.1138900431969319 0 -0.6560590369687036 0.75470957328743171 1 0 0 forward_v I I I I #
loop $-1 $-1 $397 $99 #
coedge $-1 $252 $252 $253 $398 reversed $156 $-1 #
coedge $-1 $253 $253 $252 $398 forward $158 $-1 #
coedge $-1 $254 $254 $159 $255 forward $249 $-1 #
edge $-1 $399 7.5578947711102097e-016 $399 6.2831853071796013 $254 $400 forward 7 unknown #
face $-1 $401 $402 $54 $-1 $403 reversed single #
loop $-1 $-1 $404 $160 #
plane-surface $-1 -25.471930475876249 82.816460359880153 157.33459505058897 -1 0 0 0 0.6560590369687036 0.75470957328743171 forward_v I I I I #
coedge $-1 $405 $406 $407 $408 reversed $161 $-1 #
coedge $-1 $261 $163 $409 $410 reversed $103 $-1 #
coedge $-1 $163 $260 $405 $411 reversed $103 $-1 #
coedge $-1 $407 $412 $163 $263 forward $413 $-1 #
edge $-1 $414 10.350807012797748 $415 18.55907018860615 $262 $416 forward 7 unknown #
loop $-1 $-1 $269 $164 #
plane-surface $-1 -36.333429284847689 -15.821246004620065 43.864896310726721 0 0.6560590369687036 0.75470957328743171 1 0 0 forward_v I I I I #
loop $-1 $-1 $417 $105 #
coedge $-1 $267 $267 $268 $418 reversed $165 $-1 #
coedge $-1 $268 $268 $267 $418 forward $167 $-1 #
coedge $-1 $269 $269 $168 $270 forward $264 $-1 #
edge $-1 $419 -1.1041200304374682e-015 $419 6.2831853071795996 $269 $420 forward 7 unknown #
loop $-1 $-1 $276 $169 #
plane-surface $-1 -36.333429284847689 -15.821246004620065 43.864896310726721 0 0.6560590369687036 0.75470957328743171 1 0 0 forward_v I I I I #
loop $-1 $-1 $421 $108 #
coedge $-1 $274 $274 $275 $422 reversed $170 $-1 #
coedge $-1 $275 $275 $274 $422 forward $172 $-1 #
coedge $-1 $276 $276 $173 $277 forward $271 $-1 #
edge $-1 $423 -1.1041200304374682e-015 $423 6.2831853071795996 $276 $424 forward 7 unknown #
face $-1 $425 $426 $57 $-1 $427 forward single #
loop $-1 $-1 $428 $174 #
plane-surface $-1 47.194928093819122 82.816460359880153 157.33459505058897 -1 0 0 0 0.6560590369687036 0.75470957328743171 forward_v I I I I #
coedge $-1 $429 $430 $431 $432 reversed $175 $-1 #
coedge $-1 $283 $177 $433 $434 reversed $112 $-1 #
coedge $-1 $177 $282 $429 $435 reversed $112 $-1 #
coedge $-1 $431 $436 $177 $285 forward $426 $-1 #
edge $-1 $437 10.350807012797748 $438 18.55907018860615 $284 $439 forward 7 unknown #
loop $-1 $-1 $291 $178 #
plane-surface $-1 36.333429284847682 -15.821246004620065 43.864896310726721 0 0.6560590369687036 0.75470957328743171 1 0 0 forward_v I I I I #
loop $-1 $-1 $440 $114 #
coedge $-1 $289 $289 $290 $441 reversed $179 $-1 #
coedge $-1 $290 $290 $289 $441 forward $181 $-1 #
coedge $-1 $291 $291 $182 $292 forward $286 $-1 #
edge $-1 $442 -1.1041200304374682e-015 $442 6.2831853071795996 $291 $443 forward 7 unknown #
loop $-1 $-1 $298 $183 #
plane-surface $-1 36.333429284847682 -15.821246004620065 43.864896310726721 0 0.6560590369687036 0.75470957328743171 1 0 0 forward_v I I I I #
loop $-1 $-1 $444 $117 #
coedge $-1 $296 $296 $297 $445 reversed $184 $-1 #
coedge $-1 $297 $297 $296 $445 forward $186 $-1 #
coedge $-1 $298 $298 $187 $299 forward $293 $-1 #
edge $-1 $446 -1.1041200304374682e-015 $446 6.2831853071795996 $298 $447 forward 7 unknown #
face $-1 $448 $449 $45 $-1 $450 reversed single #
loop $-1 $-1 $451 $188 #
plane-surface $-1 -75.174413281655319 0 0 1 0 0 0 0 -1 forward_v I I I I #
coedge $-1 $452 $311 $453 $454 forward $189 $-1 #
coedge $-1 $455 $191 $452 $456 forward $121 $-1 #
coedge $-1 $191 $455 $457 $458 forward $121 $-1 #
coedge $-1 $314 $313 $191 $307 reversed $315 $-1 #
edge $-1 $459 -31.057423167142328 $460 31.057423167142328 $306 $461 forward 7 unknown #
coedge $-1 $193 $192 $462 $463 forward $76 $-1 #
coedge $-1 $464 $465 $192 $310 reversed $449 $-1 #
edge $-1 $317 -75.174413281655319 $466 75.174413281655319 $309 $467 forward 7 unknown #
coedge $-1 $303 $468 $193 $312 reversed $189 $-1 #
edge $-1 $469 -75.174413281655319 $316 75.174413281655319 $311 $470 forward 7 unknown #
coedge $-1 $306 $194 $468 $471 forward $315 $-1 #
coedge $-1 $194 $306 $464 $472 reversed $315 $-1 #
loop $-1 $-1 $313 $448 #
vertex $-1 $195 $473 #
vertex $-1 $195 $474 #
straight-curve $-1 75.174413281655319 0 10.249224514773305 0 1 0 I I #
face $-1 $475 $476 $46 $-1 $477 forward single #
loop $-1 $-1 $478 $196 #
plane-surface $-1 0 0 -10.249224514773305 0 0 1 1 0 0 forward_v I I I I #
coedge $-1 $479 $480 $327 $481 forward $197 $-1 #
coedge $-1 $482 $199 $478 $483 reversed $125 $-1 #
coedge $-1 $199 $482 $484 $485 reversed $125 $-1 #
coedge $-1 $480 $479 $199 $326 reversed $197 $-1 #
edge $-1 $486 -10.249224514773305 $487 10.249224514773305 $325 $488 forward 7 unknown #
coedge $-1 $201 $200 $322 $481 reversed $79 $-1 #
coedge $-1 $489 $490 $200 $329 forward $320 $-1 #
edge $-1 $491 28.104701817057574 $335 40.748041582084355 $328 $492 forward 7 unknown #
coedge $-1 $493 $494 $201 $331 forward $476 $-1 #
edge $-1 $336 -40.748041582084355 $495 -28.104701817057574 $330 $496 forward 7 unknown #
coedge $-1 $497 $202 $494 $498 reversed $334 $-1 #
coedge $-1 $202 $497 $489 $499 reversed $334 $-1 #
loop $-1 $-1 $497 $475 #
vertex $-1 $499 $500 #
vertex $-1 $203 $501 #
straight-curve $-1 -75.174413281655319 -29.315143691984737 0 0 0 1 I I #
face $-1 $502 $503 $47 $-1 $504 forward single #
loop $-1 $-1 $347 $204 #
plane-surface $-1 0 0 -10.249224514773305 0 0 1 1 0 0 forward_v I I I I #
coedge $-1 $505 $506 $507 $508 reversed $205 $-1 #
coedge $-1 $210 $207 $509 $510 reversed $129 $-1 #
coedge $-1 $207 $210 $511 $512 reversed $129 $-1 #
coedge $-1 $506 $505 $207 $345 reversed $205 $-1 #
edge $-1 $513 -10.249224514773305 $514 10.249224514773305 $344 $515 forward 7 unknown #
coedge $-1 $209 $208 $516 $517 reversed $82 $-1 #
coedge $-1 $509 $518 $208 $348 forward $339 $-1 #
edge $-1 $519 -40.748041582084355 $352 -28.104701817057574 $347 $520 forward 7 unknown #
coedge $-1 $521 $511 $209 $350 forward $503 $-1 #
edge $-1 $351 28.104701817057574 $522 40.748041582084355 $349 $523 forward 7 unknown #
vertex $-1 $350 $524 #
vertex $-1 $348 $525 #
straight-curve $-1 62.531073516628538 -29.315143691984737 0 0 0 -1 I I #
face $-1 $-1 $526 $48 $-1 $527 reversed single #
loop $-1 $-1 $218 $212 #
plane-surface $-1 0 0 10.249224514773305 0 0 1 1 0 0 forward_v I I I I #
coedge $-1 $528 $529 $530 $531 reversed $213 $-1 #
coedge $-1 $532 $215 $217 $364 forward $133 $-1 #
coedge $-1 $215 $532 $528 $533 forward $133 $-1 #
coedge $-1 $530 $218 $215 $361 forward $355 $-1 #
edge $-1 $367 7.3052158334524044 $534 29.028213451395285 $360 $535 forward 7 unknown #
coedge $-1 $536 $537 $216 $363 forward $526 $-1 #
edge $-1 $538 -55.177904348332682 $366 -48.042569876756289 $362 $539 forward 7 unknown #
edge $-1 $367 -10.876055460717257 $538 3.3044957399558441e-014 $217 $540 forward 7 unknown #
coedge $-1 $218 $530 $536 $541 forward $355 $-1 #
vertex $-1 $219 $542 #
vertex $-1 $219 $543 #
straight-curve $-1 -25.471930475876249 -64.847564765821261 10.249224514773303 0 1 0 I I #
coedge $-1 $369 $369 $-1 $544 reversed $222 $-1 #
edge $-1 $545 0 $545 6.2831853071796004 $223 $546 forward 7 unknown #
vertex $-1 $226 $547 #
ellipse-curve $-1 -40.988357345835446 -26.953291579238137 6.6815572789851068 0 -0.6560590369687036 0.75470957328743171 2 0 0 1 I I #
coedge $-1 $373 $373 $-1 $548 reversed $229 $-1 #
edge $-1 $549 0 $549 6.2831853071796004 $230 $550 forward 7 unknown #
vertex $-1 $233 $551 #
ellipse-curve $-1 -31.678501223859925 -26.953291579238137 6.6815572789851068 0 -0.6560590369687036 0.75470957328743171 2 0 0 1 I I #
face $-1 $-1 $389 $51 $-1 $552 forward single #
loop $-1 $-1 $553 $234 #
plane-surface $-1 0 -31.057423167142328 0 0 1 0 0 0 1 forward_v I I I I #
coedge $-1 $554 $555 $556 $557 reversed $235 $-1 #
coedge $-1 $558 $237 $239 $387 forward $147 $-1 #
coedge $-1 $237 $558 $554 $559 forward $147 $-1 #
coedge $-1 $556 $240 $237 $384 forward $389 $-1 #
edge $-1 $391 -29.028213451395281 $560 -7.3052158334524009 $383 $561 forward 7 unknown #
coedge $-1 $562 $563 $238 $386 forward $378 $-1 #
edge $-1 $564 -55.177904348332682 $390 -48.042569876756289 $385 $565 forward 7 unknown #
edge $-1 $391 -10.876055460717257 $564 3.3044957399558441e-014 $239 $566 forward 7 unknown #
coedge $-1 $240 $556 $562 $567 forward $389 $-1 #
loop $-1 $-1 $556 $377 #
vertex $-1 $386 $568 #
vertex $-1 $241 $569 #
straight-curve $-1 47.194928093819122 -64.847564765821261 10.249224514773303 0 1 0 I I #
coedge $-1 $393 $393 $-1 $570 reversed $244 $-1 #
edge $-1 $571 0 $571 6.2831853071796004 $245 $572 forward 7 unknown #
vertex $-1 $248 $573 #
ellipse-curve $-1 31.678501223859911 -26.953291579238137 6.6815572789851068 0 -0.6560590369687036 0.75470957328743171 2 0 0 1 I I #
coedge $-1 $397 $397 $-1 $574 reversed $251 $-1 #
edge $-1 $575 0 $575 6.2831853071796004 $252 $576 forward 7 unknown #
vertex $-1 $255 $577 #
ellipse-curve $-1 40.988357345835439 -26.953291579238137 6.6815572789851068 0 -0.6560590369687036 0.75470957328743171 2 0 0 1 I I #
face $-1 $-1 $413 $54 $-1 $578 forward single #
loop $-1 $-1 $579 $256 #
plane-surface $-1 0 31.057423167142328 0 0 -1 0 0 0 -1 forward_v I I I I #
coedge $-1 $580 $581 $582 $583 reversed $257 $-1 #
coedge $-1 $584 $259 $261 $411 forward $161 $-1 #
coedge $-1 $259 $584 $580 $585 forward $161 $-1 #
coedge $-1 $582 $262 $259 $408 forward $413 $-1 #
edge $-1 $415 -29.028213451395285 $586 -7.3052158334524044 $407 $587 forward 7 unknown #
coedge $-1 $588 $589 $260 $410 forward $402 $-1 #
edge $-1 $590 -75.553407482097597 $414 -68.418073010521184 $409 $591 forward 7 unknown #
edge $-1 $415 51.238790873567389 $590 62.114846334284707 $261 $592 forward 7 unknown #
coedge $-1 $262 $582 $588 $593 forward $413 $-1 #
loop $-1 $-1 $582 $401 #
vertex $-1 $410 $594 #
vertex $-1 $263 $595 #
straight-curve $-1 -47.194928093819129 41.408230179940077 10.249224514773303 0 -1 0 I I #
coedge $-1 $417 $417 $-1 $596 reversed $266 $-1 #
edge $-1 $597 0 $597 6.2831853071796004 $267 $598 forward 7 unknown #
vertex $-1 $270 $599 #
ellipse-curve $-1 -40.988357345835446 26.953291579238126 6.6815572789850952 0 0.6560590369687036 0.75470957328743171 2 0 0 1 I I #
coedge $-1 $421 $421 $-1 $600 reversed $273 $-1 #
edge $-1 $601 0 $601 6.2831853071796004 $274 $602 forward 7 unknown #
vertex $-1 $277 $603 #
ellipse-curve $-1 -31.678501223859925 26.953291579238126 6.6815572789850952 0 0.6560590369687036 0.75470957328743171 2 0 0 1 I I #
face $-1 $-1 $604 $57 $-1 $605 reversed single #
loop $-1 $-1 $284 $278 #
plane-surface $-1 0 0 10.249224514773305 0 0 1 1 0 0 forward_v I I I I #
coedge $-1 $606 $607 $608 $609 reversed $279 $-1 #
coedge $-1 $610 $281 $283 $435 forward $175 $-1 #
coedge $-1 $281 $610 $606 $611 forward $175 $-1 #
coedge $-1 $608 $284 $281 $432 forward $426 $-1 #
edge $-1 $438 7.3052158334524009 $612 29.028213451395281 $431 $613 forward 7 unknown #
coedge $-1 $614 $615 $282 $434 forward $604 $-1 #
edge $-1 $616 -75.553407482097597 $437 -68.418073010521184 $433 $617 forward 7 unknown #
edge $-1 $438 51.238790873567389 $616 62.114846334284707 $283 $618 forward 7 unknown #
coedge $-1 $284 $608 $614 $619 forward $426 $-1 #
vertex $-1 $434 $620 #
vertex $-1 $285 $621 #
straight-curve $-1 25.471930475876242 41.408230179940077 10.249224514773303 0 -1 0 I I #
coedge $-1 $440 $440 $-1 $622 reversed $288 $-1 #
edge $-1 $623 0 $623 6.2831853071796004 $289 $624 forward 7 unknown #
vertex $-1 $292 $625 #
ellipse-curve $-1 31.678501223859911 26.953291579238126 6.6815572789850952 0 0.6560590369687036 0.75470957328743171 2 0 0 1 I I #
coedge $-1 $444 $444 $-1 $626 reversed $295 $-1 #
edge $-1 $627 0 $627 6.2831853071796004 $296 $628 forward 7 unknown #
vertex $-1 $299 $629 #
ellipse-curve $-1 40.988357345835439 26.953291579238126 6.6815572789850952 0 0.6560590369687036 0.75470957328743171 2 0 0 1 I I #
face $-1 $-1 $315 $45 $-1 $630 reversed single #
loop $-1 $-1 $464 $300 #
plane-surface $-1 0 31.057423167142328 0 0 -1 0 0 0 -1 forward_v I I I I #
coedge $-1 $631 $462 $465 $632 forward $301 $-1 #
coedge $-1 $468 $303 $304 $456 reversed $189 $-1 #
coedge $-1 $462 $631 $303 $454 reversed $301 $-1 #
edge $-1 $469 -10.249224514773305 $633 10.249224514773305 $453 $634 forward 7 unknown #
coedge $-1 $305 $304 $631 $635 forward $121 $-1 #
edge $-1 $460 -75.174413281655319 $633 75.174413281655319 $452 $636 forward 7 unknown #
coedge $-1 $465 $464 $305 $458 reversed $449 $-1 #
edge $-1 $637 -75.174413281655319 $459 75.174413281655319 $457 $638 forward 7 unknown #
vertex $-1 $307 $639 #
vertex $-1 $471 $640 #
straight-curve $-1 75.174413281655319 0 -10.249224514773305 0 -1 0 I I #
coedge $-1 $451 $453 $308 $463 reversed $301 $-1 #
edge $-1 $466 -31.057423167142328 $469 31.057423167142328 $462 $641 forward 7 unknown #
coedge $-1 $457 $309 $314 $472 forward $449 $-1 #
coedge $-1 $309 $457 $451 $632 reversed $449 $-1 #
vertex $-1 $310 $642 #
straight-curve $-1 0 31.057423167142328 10.249224514773305 -1 0 0 I I #
coedge $-1 $311 $452 $313 $471 reversed $189 $-1 #
vertex $-1 $463 $643 #
straight-curve $-1 0 -31.057423167142328 10.249224514773305 1 0 0 I I #
edge $-1 $316 -10.249224514773305 $460 10.249224514773305 $313 $644 forward 7 unknown #
edge $-1 $317 -10.249224514773305 $459 10.249224514773305 $314 $645 forward 7 unknown #
point $-1 75.174413281655319 -31.057423167142328 10.249224514773305 #
point $-1 75.174413281655319 31.057423167142328 10.249224514773305 #
face $-1 $-1 $334 $46 $-1 $646 reversed single #
loop $-1 $-1 $484 $319 #
plane-surface $-1 0 0 10.249224514773305 0 0 1 1 0 0 forward_v I I I I #
coedge $-1 $490 $489 $323 $483 forward $320 $-1 #
coedge $-1 $325 $322 $490 $647 reversed $197 $-1 #
coedge $-1 $322 $325 $493 $648 reversed $197 $-1 #
edge $-1 $495 -10.249224514773305 $491 10.249224514773305 $322 $649 forward 7 unknown #
coedge $-1 $324 $323 $497 $650 reversed $125 $-1 #
edge $-1 $651 -40.748041582084355 $487 -28.104701817057574 $478 $652 forward 7 unknown #
coedge $-1 $494 $493 $324 $485 forward $476 $-1 #
edge $-1 $486 28.104701817057574 $653 40.748041582084355 $484 $654 forward 7 unknown #
vertex $-1 $485 $655 #
vertex $-1 $483 $656 #
straight-curve $-1 -62.531073516628538 -26.253857632043747 0 0 0 -1 I I #
coedge $-1 $478 $328 $333 $499 forward $320 $-1 #
coedge $-1 $328 $478 $479 $647 forward $320 $-1 #
vertex $-1 $329 $657 #
straight-curve $-1 -34.426371699570964 -29.315143691984737 -10.249224514773305 -1 0 0 I I #
coedge $-1 $484 $330 $480 $648 forward $476 $-1 #
coedge $-1 $330 $484 $332 $498 forward $476 $-1 #
vertex $-1 $331 $658 #
straight-curve $-1 -34.426371699570964 -29.315143691984737 10.249224514773305 1 0 0 I I #
coedge $-1 $333 $332 $482 $650 forward $334 $-1 #
edge $-1 $653 26.253857632043747 $336 29.315143691984737 $332 $659 forward 7 unknown #
edge $-1 $335 -29.315143691984737 $651 -26.253857632043747 $333 $660 forward 7 unknown #
point $-1 -75.174413281655319 -29.315143691984737 -10.249224514773305 #
point $-1 -75.174413281655319 -29.315143691984737 10.249224514773305 #
face $-1 $-1 $661 $47 $-1 $662 reversed single #
loop $-1 $-1 $349 $338 #
plane-surface $-1 0 0 10.249224514773305 0 0 1 1 0 0 forward_v I I I I #
coedge $-1 $344 $341 $663 $664 reversed $205 $-1 #
coedge $-1 $341 $344 $665 $666 reversed $205 $-1 #
coedge $-1 $667 $668 $341 $508 forward $661 $-1 #
edge $-1 $669 -10.249224514773305 $670 10.249224514773305 $507 $671 forward 7 unknown #
coedge $-1 $663 $347 $342 $510 forward $339 $-1 #
edge $-1 $352 -15.422893360977616 $514 -12.361607301036626 $509 $672 forward 7 unknown #
coedge $-1 $349 $665 $343 $512 forward $503 $-1 #
edge $-1 $513 12.361607301036626 $351 15.422893360977616 $511 $673 forward 7 unknown #
vertex $-1 $512 $674 #
vertex $-1 $510 $675 #
straight-curve $-1 62.531073516628538 -26.253857632043747 0 0 0 -1 I I #
coedge $-1 $668 $667 $346 $517 forward $661 $-1 #
edge $-1 $522 -10.249224514773305 $519 10.249224514773305 $516 $676 forward 7 unknown #
coedge $-1 $347 $663 $668 $677 forward $339 $-1 #
vertex $-1 $517 $678 #
straight-curve $-1 34.426371699570964 -29.315143691984737 -10.249224514773305 -1 0 0 I I #
coedge $-1 $665 $349 $667 $679 forward $503 $-1 #
vertex $-1 $679 $680 #
straight-curve $-1 34.426371699570964 -29.315143691984737 10.249224514773305 1 0 0 I I #
point $-1 62.531073516628538 -29.315143691984737 10.249224514773305 #
point $-1 62.531073516628538 -29.315143691984737 -10.249224514773305 #
loop $-1 $-1 $362 $354 #
plane-surface $-1 0 -31.057423167142328 0 0 1 0 0 0 1 forward_v I I I I #
coedge $-1 $529 $357 $359 $533 reversed $213 $-1 #
coedge $-1 $357 $528 $681 $682 reversed $213 $-1 #
coedge $-1 $365 $360 $357 $531 forward $355 $-1 #
edge $-1 $534 -41.998404774487319 $683 -33.790141598678929 $530 $684 forward 7 unknown #
coedge $-1 $359 $358 $537 $685 reversed $133 $-1 #
edge $-1 $686 -3.3044957399558441e-014 $534 10.876055460717257 $528 $687 forward 7 unknown #
vertex $-1 $361 $688 #
straight-curve $-1 -18.166714642423845 -22.849159991333941 10.249224514773305 -1 0 0 I I #
coedge $-1 $681 $362 $365 $541 reversed $526 $-1 #
coedge $-1 $362 $681 $532 $685 forward $526 $-1 #
vertex $-1 $363 $689 #
straight-curve $-1 -25.471930475876249 -31.057423167142332 58.291794391529592 0 0 1 I I #
straight-curve $-1 -25.471930475876249 -31.057423167142304 3.1138900431969319 0 -0.75470957328743171 -0.6560590369687036 I I #
edge $-1 $683 -47.194928093819129 $366 -25.471930475876249 $536 $690 forward 7 unknown #
point $-1 -25.471930475876249 -31.057423167142328 10.249224514773305 #
point $-1 -25.471930475876249 -22.849159991333941 10.249224514773305 #
edge $-1 $691 1 $691 0 $369 $-1 forward 7 unknown #
vertex $-1 $370 $692 #
ellipse-curve $-1 -40.988357345835446 -23.039602197962097 2.1793727552113822 0 -0.6560590369687036 0.75470957328743171 2 0 0 1 I I #
point $-1 -38.988357345835446 -26.953291579238151 6.6815572789851254 #
edge $-1 $693 1 $693 0 $373 $-1 forward 7 unknown #
vertex $-1 $374 $694 #
ellipse-curve $-1 -31.678501223859925 -23.039602197962097 2.1793727552113822 0 -0.6560590369687036 0.75470957328743171 2 0 0 1 I I #
point $-1 -29.678501223859925 -26.953291579238151 6.6815572789851254 #
plane-surface $-1 0 0 10.249224514773305 0 0 1 1 0 0 forward_v I I I I #
coedge $-1 $563 $562 $555 $695 forward $378 $-1 #
coedge $-1 $555 $380 $382 $559 reversed $235 $-1 #
coedge $-1 $380 $554 $553 $695 reversed $235 $-1 #
coedge $-1 $388 $383 $380 $557 forward $389 $-1 #
edge $-1 $560 -41.998404774487319 $696 -33.790141598678929 $556 $697 forward 7 unknown #
coedge $-1 $382 $381 $563 $698 reversed $147 $-1 #
edge $-1 $699 -3.3044957399558441e-014 $560 10.876055460717257 $554 $700 forward 7 unknown #
vertex $-1 $384 $701 #
straight-curve $-1 18.166714642423841 -22.849159991333941 10.249224514773305 -1 0 0 I I #
coedge $-1 $553 $385 $388 $567 reversed $378 $-1 #
coedge $-1 $385 $553 $558 $698 forward $378 $-1 #
vertex $-1 $386 $702 #
straight-curve $-1 47.194928093819122 -31.057423167142332 58.291794391529592 0 0 1 I I #
straight-curve $-1 47.194928093819122 -31.057423167142304 3.1138900431969319 0 -0.75470957328743171 -0.6560590369687036 I I #
edge $-1 $696 25.471930475876242 $390 47.194928093819122 $562 $703 forward 7 unknown #
point $-1 47.194928093819122 -31.057423167142328 10.249224514773305 #
point $-1 47.194928093819122 -22.849159991333941 10.249224514773305 #
edge $-1 $704 1 $704 0 $393 $-1 forward 7 unknown #
vertex $-1 $394 $705 #
ellipse-curve $-1 31.678501223859911 -23.039602197962097 2.1793727552113822 0 -0.6560590369687036 0.75470957328743171 2 0 0 1 I I #
point $-1 33.678501223859911 -26.953291579238151 6.6815572789851254 #
edge $-1 $706 1 $706 0 $397 $-1 forward 7 unknown #
vertex $-1 $398 $707 #
ellipse-curve $-1 40.988357345835439 -23.039602197962097 2.1793727552113822 0 -0.6560590369687036 0.75470957328743171 2 0 0 1 I I #
point $-1 42.988357345835439 -26.953291579238151 6.6815572789851254 #
plane-surface $-1 0 0 10.249224514773305 0 0 1 1 0 0 forward_v I I I I #
coedge $-1 $589 $588 $581 $708 forward $402 $-1 #
coedge $-1 $581 $404 $406 $585 reversed $257 $-1 #
coedge $-1 $404 $580 $579 $708 reversed $257 $-1 #
coedge $-1 $412 $407 $404 $583 forward $413 $-1 #
edge $-1 $586 -18.55907018860615 $709 -10.350807012797748 $582 $710 forward 7 unknown #
coedge $-1 $406 $405 $589 $711 reversed $161 $-1 #
edge $-1 $712 -62.114846334284707 $586 -51.238790873567389 $580 $713 forward 7 unknown #
vertex $-1 $408 $714 #
straight-curve $-1 -18.166714642423845 22.849159991333927 10.249224514773307 1 0 0 I I #
coedge $-1 $579 $409 $412 $593 reversed $402 $-1 #
coedge $-1 $409 $579 $584 $711 forward $402 $-1 #
vertex $-1 $410 $715 #
straight-curve $-1 -47.194928093819129 31.057423167142328 78.667297525294487 0 0 1 I I #
straight-curve $-1 -47.194928093819129 -15.821246004620065 43.864896310726721 0 0.75470957328743171 -0.6560590369687036 I I #
edge $-1 $709 25.471930475876249 $414 47.194928093819129 $588 $716 forward 7 unknown #
point $-1 -47.194928093819129 31.057423167142328 10.249224514773305 #
point $-1 -47.194928093819129 22.849159991333927 10.249224514773303 #
edge $-1 $717 1 $717 0 $417 $-1 forward 7 unknown #
vertex $-1 $418 $718 #
ellipse-curve $-1 -40.988357345835446 23.039602197962097 2.179372755211384 0 0.6560590369687036 0.75470957328743171 2 0 0 1 I I #
point $-1 -38.988357345835446 26.953291579238151 6.6815572789851272 #
edge $-1 $719 1 $719 0 $421 $-1 forward 7 unknown #
vertex $-1 $422 $720 #
ellipse-curve $-1 -31.678501223859925 23.039602197962097 2.179372755211384 0 0.6560590369687036 0.75470957328743171 2 0 0 1 I I #
point $-1 -29.678501223859925 26.953291579238151 6.6815572789851272 #
loop $-1 $-1 $433 $425 #
plane-surface $-1 0 31.057423167142328 0 0 -1 0 0 0 -1 forward_v I I I I #
coedge $-1 $607 $428 $430 $611 reversed $279 $-1 #
coedge $-1 $428 $606 $721 $722 reversed $279 $-1 #
coedge $-1 $436 $431 $428 $609 forward $426 $-1 #
edge $-1 $612 -18.55907018860615 $723 -10.350807012797748 $608 $724 forward 7 unknown #
coedge $-1 $430 $429 $615 $725 reversed $175 $-1 #
edge $-1 $726 -62.114846334284707 $612 -51.238790873567389 $606 $727 forward 7 unknown #
vertex $-1 $432 $728 #
straight-curve $-1 18.166714642423841 22.849159991333927 10.249224514773307 1 0 0 I I #
coedge $-1 $721 $433 $436 $619 reversed $604 $-1 #
coedge $-1 $433 $721 $610 $725 forward $604 $-1 #
vertex $-1 $434 $729 #
straight-curve $-1 25.471930475876242 31.057423167142328 78.667297525294487 0 0 1 I I #
straight-curve $-1 25.471930475876242 -15.821246004620065 43.864896310726721 0 0.75470957328743171 -0.6560590369687036 I I #
edge $-1 $723 -47.194928093819122 $437 -25.471930475876242 $614 $730 forward 7 unknown #
point $-1 25.471930475876242 31.057423167142328 10.249224514773305 #
point $-1 25.471930475876242 22.849159991333927 10.249224514773303 #
edge $-1 $731 1 $731 0 $440 $-1 forward 7 unknown #
vertex $-1 $441 $732 #
ellipse-curve $-1 31.678501223859911 23.039602197962097 2.179372755211384 0 0.6560590369687036 0.75470957328743171 2 0 0 1 I I #
point $-1 33.678501223859911 26.953291579238151 6.6815572789851272 #
edge $-1 $733 1 $733 0 $444 $-1 forward 7 unknown #
vertex $-1 $445 $734 #
ellipse-curve $-1 40.988357345835439 23.039602197962097 2.179372755211384 0 0.6560590369687036 0.75470957328743171 2 0 0 1 I I #
point $-1 42.988357345835439 26.953291579238151 6.6815572789851272 #
plane-surface $-1 75.174413281655319 0 0 -1 0 0 0 0 1 forward_v I I I I #
coedge $-1 $453 $451 $455 $635 reversed $301 $-1 #
edge $-1 $466 -10.249224514773305 $637 10.249224514773305 $465 $735 forward 7 unknown #
vertex $-1 $635 $736 #
straight-curve $-1 -75.174413281655319 -31.057423167142328 0 0 0 -1 I I #
edge $-1 $633 -31.057423167142328 $637 31.057423167142328 $631 $737 forward 7 unknown #
straight-curve $-1 0 -31.057423167142328 -10.249224514773305 -1 0 0 I I #
vertex $-1 $458 $738 #
straight-curve $-1 0 31.057423167142328 -10.249224514773305 1 0 0 I I #
point $-1 75.174413281655319 31.057423167142328 -10.249224514773305 #
point $-1 75.174413281655319 -31.057423167142328 -10.249224514773305 #
straight-curve $-1 -75.174413281655319 0 10.249224514773305 0 -1 0 I I #
point $-1 -75.174413281655319 31.057423167142328 10.249224514773305 #
point $-1 -75.174413281655319 -31.057423167142328 10.249224514773305 #
straight-curve $-1 75.174413281655319 -31.057423167142328 0 0 0 -1 I I #
straight-curve $-1 75.174413281655319 31.057423167142328 0 0 0 -1 I I #
plane-surface $-1 -75.174413281655319 0 0 1 0 0 0 0 -1 forward_v I I I I #
edge $-1 $487 12.361607301036626 $491 15.422893360977616 $490 $739 forward 7 unknown #
edge $-1 $495 -15.422893360977616 $486 -12.361607301036626 $493 $740 forward 7 unknown #
straight-curve $-1 -62.531073516628538 -29.315143691984737 0 0 0 -1 I I #
edge $-1 $653 -10.249224514773305 $651 10.249224514773305 $497 $741 forward 7 unknown #
vertex $-1 $650 $742 #
straight-curve $-1 -34.426371699570964 -26.253857632043747 -10.249224514773305 1 0 0 I I #
vertex $-1 $498 $743 #
straight-curve $-1 -34.426371699570964 -26.253857632043747 10.249224514773305 -1 0 0 I I #
point $-1 -62.531073516628538 -26.253857632043747 10.249224514773305 #
point $-1 -62.531073516628538 -26.253857632043747 -10.249224514773305 #
point $-1 -62.531073516628538 -29.315143691984737 -10.249224514773305 #
point $-1 -62.531073516628538 -29.315143691984737 10.249224514773305 #
straight-curve $-1 -75.174413281655319 0 10.249224514773305 0 -1 0 I I #
straight-curve $-1 -75.174413281655319 0 -10.249224514773305 0 1 0 I I #
loop $-1 $-1 $516 $502 #
plane-surface $-1 75.174413281655319 0 0 -1 0 0 0 0 1 forward_v I I I I #
coedge $-1 $518 $509 $505 $664 forward $339 $-1 #
edge $-1 $514 28.104701817057574 $669 40.748041582084355 $663 $744 forward 7 unknown #
coedge $-1 $511 $521 $506 $666 forward $503 $-1 #
edge $-1 $670 -40.748041582084355 $513 -28.104701817057574 $665 $745 forward 7 unknown #
coedge $-1 $516 $507 $521 $679 reversed $661 $-1 #
coedge $-1 $507 $516 $518 $677 reversed $661 $-1 #
vertex $-1 $677 $746 #
vertex $-1 $508 $747 #
straight-curve $-1 75.174413281655319 -26.253857632043747 0 0 0 1 I I #
straight-curve $-1 62.531073516628538 -13.892250331007121 -10.249224514773305 0 1 0 I I #
straight-curve $-1 62.531073516628538 -13.892250331007121 10.249224514773305 0 -1 0 I I #
point $-1 62.531073516628538 -26.253857632043747 10.249224514773305 #
point $-1 62.531073516628538 -26.253857632043747 -10.249224514773305 #
straight-curve $-1 75.174413281655319 -29.315143691984737 0 0 0 -1 I I #
edge $-1 $669 26.253857632043747 $519 29.315143691984737 $668 $748 forward 7 unknown #
point $-1 75.174413281655319 -29.315143691984737 -10.249224514773305 #
edge $-1 $522 -29.315143691984737 $670 -26.253857632043747 $667 $749 forward 7 unknown #
point $-1 75.174413281655319 -29.315143691984737 10.249224514773305 #
coedge $-1 $537 $536 $529 $682 forward $526 $-1 #
edge $-1 $683 48.042569876756289 $686 55.177904348332682 $681 $750 forward 7 unknown #
vertex $-1 $541 $751 #
straight-curve $-1 -47.194928093819129 -64.847564765821261 10.249224514773303 0 -1 0 I I #
edge $-1 $686 -29.028213451395285 $538 -7.3052158334524044 $537 $752 forward 7 unknown #
vertex $-1 $685 $753 #
straight-curve $-1 -47.194928093819129 -31.057423167142304 3.1138900431969319 0 0.75470957328743171 0.6560590369687036 I I #
point $-1 -47.194928093819129 -22.849159991333941 10.249224514773305 #
point $-1 -25.471930475876249 -31.057423167142328 3.1138900431969101 #
straight-curve $-1 0 -31.057423167142328 10.249224514773305 1 0 0 I I #
vertex $-1 $544 $754 #
point $-1 -38.988357345835446 -23.039602197962097 2.1793727552113822 #
vertex $-1 $548 $755 #
point $-1 -29.678501223859925 -23.039602197962097 2.1793727552113822 #
edge $-1 $696 48.042569876756289 $699 55.177904348332682 $553 $756 forward 7 unknown #
vertex $-1 $567 $757 #
straight-curve $-1 25.471930475876242 -64.847564765821261 10.249224514773303 0 -1 0 I I #
edge $-1 $699 7.3052158334524009 $564 29.028213451395281 $563 $758 forward 7 unknown #
vertex $-1 $698 $759 #
straight-curve $-1 25.471930475876242 -31.057423167142304 3.1138900431969319 0 0.75470957328743171 0.6560590369687036 I I #
point $-1 25.471930475876242 -22.849159991333941 10.249224514773305 #
point $-1 47.194928093819122 -31.057423167142328 3.1138900431969101 #
straight-curve $-1 0 -31.057423167142328 10.249224514773305 1 0 0 I I #
vertex $-1 $570 $760 #
point $-1 33.678501223859911 -23.039602197962097 2.1793727552113822 #
vertex $-1 $574 $761 #
point $-1 42.988357345835439 -23.039602197962097 2.1793727552113822 #
edge $-1 $709 68.418073010521184 $712 75.553407482097597 $579 $762 forward 7 unknown #
vertex $-1 $593 $763 #
straight-curve $-1 -25.471930475876249 41.408230179940077 10.249224514773303 0 1 0 I I #
edge $-1 $712 7.3052158334524044 $590 29.028213451395285 $589 $764 forward 7 unknown #
vertex $-1 $711 $765 #
straight-curve $-1 -25.471930475876249 -15.821246004620065 43.864896310726721 0 -0.75470957328743171 0.6560590369687036 I I #
point $-1 -25.471930475876249 22.849159991333927 10.249224514773303 #
point $-1 -47.194928093819129 31.057423167142332 3.1138900431968892 #
straight-curve $-1 0 31.057423167142328 10.249224514773305 -1 0 0 I I #
vertex $-1 $596 $766 #
point $-1 -38.988357345835446 23.039602197962097 2.179372755211384 #
vertex $-1 $600 $767 #
point $-1 -29.678501223859925 23.039602197962097 2.179372755211384 #
coedge $-1 $615 $614 $607 $722 forward $604 $-1 #
edge $-1 $723 68.418073010521184 $726 75.553407482097597 $721 $768 forward 7 unknown #
vertex $-1 $619 $769 #
straight-curve $-1 47.194928093819122 41.408230179940077 10.249224514773303 0 1 0 I I #
edge $-1 $726 -29.028213451395281 $616 -7.3052158334524009 $615 $770 forward 7 unknown #
vertex $-1 $725 $771 #
straight-curve $-1 47.194928093819122 -15.821246004620065 43.864896310726721 0 -0.75470957328743171 0.6560590369687036 I I #
point $-1 47.194928093819122 22.849159991333927 10.249224514773303 #
point $-1 25.471930475876242 31.057423167142332 3.1138900431968892 #
straight-curve $-1 0 31.057423167142328 10.249224514773305 -1 0 0 I I #
vertex $-1 $622 $772 #
point $-1 33.678501223859911 23.039602197962097 2.179372755211384 #
vertex $-1 $626 $773 #
point $-1 42.988357345835439 23.039602197962097 2.179372755211384 #
straight-curve $-1 -75.174413281655319 31.057423167142328 0 0 0 -1 I I #
point $-1 -75.174413281655319 -31.057423167142328 -10.249224514773305 #
straight-curve $-1 -75.174413281655319 0 -10.249224514773305 0 1 0 I I #
point $-1 -75.174413281655319 31.057423167142328 -10.249224514773305 #
straight-curve $-1 -62.531073516628538 -13.892250331007121 -10.249224514773305 0 -1 0 I I #
straight-curve $-1 -62.531073516628538 -13.892250331007121 10.249224514773305 0 1 0 I I #
straight-curve $-1 -75.174413281655319 -26.253857632043747 0 0 0 -1 I I #
point $-1 -75.174413281655319 -26.253857632043747 -10.249224514773305 #
point $-1 -75.174413281655319 -26.253857632043747 10.249224514773305 #
straight-curve $-1 34.426371699570964 -26.253857632043747 -10.249224514773305 1 0 0 I I #
straight-curve $-1 34.426371699570964 -26.253857632043747 10.249224514773305 -1 0 0 I I #
point $-1 75.174413281655319 -26.253857632043747 -10.249224514773305 #
point $-1 75.174413281655319 -26.253857632043747 10.249224514773305 #
straight-curve $-1 75.174413281655319 0 -10.249224514773305 0 -1 0 I I #
straight-curve $-1 75.174413281655319 0 10.249224514773305 0 1 0 I I #
straight-curve $-1 -47.194928093819129 -31.057423167142332 58.291794391529592 0 0 -1 I I #
point $-1 -47.194928093819129 -31.057423167142328 10.249224514773305 #
straight-curve $-1 -18.166714642423845 -31.057423167142328 3.1138900431969128 1 0 0 I I #
point $-1 -47.194928093819129 -31.057423167142328 3.1138900431969101 #
point $-1 -40.988357345835446 -21.727484124024691 0.66995360863651865 #
point $-1 -31.678501223859925 -21.727484124024691 0.66995360863651865 #
straight-curve $-1 25.471930475876242 -31.057423167142332 58.291794391529592 0 0 -1 I I #
point $-1 25.471930475876242 -31.057423167142328 10.249224514773305 #
straight-curve $-1 18.166714642423841 -31.057423167142328 3.1138900431969128 1 0 0 I I #
point $-1 25.471930475876242 -31.057423167142328 3.1138900431969101 #
point $-1 31.678501223859911 -21.727484124024691 0.66995360863651865 #
point $-1 40.988357345835439 -21.727484124024691 0.66995360863651865 #
straight-curve $-1 -25.471930475876249 31.057423167142328 78.667297525294487 0 0 -1 I I #
point $-1 -25.471930475876249 31.057423167142328 10.249224514773305 #
straight-curve $-1 -18.166714642423845 31.057423167142328 3.1138900431968963 -1 0 0 I I #
point $-1 -25.471930475876249 31.057423167142332 3.1138900431968892 #
point $-1 -40.988357345835446 21.727484124024691 0.66995360863652043 #
point $-1 -31.678501223859925 21.727484124024691 0.66995360863652043 #
straight-curve $-1 47.194928093819122 31.057423167142328 78.667297525294487 0 0 -1 I I #
point $-1 47.194928093819122 31.057423167142328 10.249224514773305 #
straight-curve $-1 18.166714642423841 31.057423167142328 3.1138900431968963 -1 0 0 I I #
point $-1 47.194928093819122 31.057423167142332 3.1138900431968892 #
point $-1 31.678501223859911 21.727484124024691 0.66995360863652043 #
point $-1 40.988357345835439 21.727484124024691 0.66995360863652043 #
End-of-ACIS-data 