500 0 5 0           
7 Unknown 11 ACIS 5.0 NT 24 Fri Mar 26 16:16:01 1999 
-1 9.9999999999999995e-007 1e-010 
body $-1 $5 $-1 $6 #
body $-1 $7 $-1 $8 #
body $-1 $9 $-1 $10 #
body $-1 $11 $-1 $12 #
body $-1 $13 $-1 $14 #
lump $-1 $-1 $15 $0 #
transform $-1 1 0 0 0 1 0 0 0 1 69.847102267525258 40.247082528242359 10.913644898470775 1 rotate no_reflect no_shear #
lump $-1 $-1 $16 $1 #
transform $-1 1 0 0 0 1 0 0 0 1 69.847102267525258 40.247082528242359 10.913644898470775 1 rotate no_reflect no_shear #
lump $-1 $-1 $17 $2 #
transform $-1 1 0 0 0 1 0 0 0 1 69.847102267525258 40.247082528242359 10.913644898470775 1 rotate no_reflect no_shear #
lump $-1 $-1 $18 $3 #
transform $-1 1 0 0 0 1 0 0 0 1 69.847102267525258 40.247082528242359 10.913644898470775 1 rotate no_reflect no_shear #
lump $-1 $-1 $19 $4 #
transform $-1 1 0 0 0 1 0 0 0 1 69.847102267525258 40.247082528242359 10.913644898470775 1 rotate no_reflect no_shear #
shell $-1 $-1 $-1 $20 $-1 $5 #
shell $-1 $-1 $-1 $21 $-1 $7 #
shell $-1 $-1 $-1 $22 $-1 $9 #
shell $-1 $-1 $-1 $23 $-1 $11 #
shell $-1 $-1 $-1 $24 $-1 $13 #
face $-1 $25 $26 $15 $-1 $27 forward single #
face $-1 $28 $29 $16 $-1 $30 reversed single #
face $-1 $31 $32 $17 $-1 $33 forward single #
face $-1 $34 $35 $18 $-1 $36 reversed single #
face $-1 $37 $38 $19 $-1 $39 reversed single #
face $-1 $40 $41 $15 $-1 $42 reversed single #
loop $-1 $-1 $43 $20 #
plane-surface $-1 0 0 10.913644898470775 0 0 1 1 0 0 forward_v I I I I #
face $-1 $44 $45 $16 $-1 $46 forward single #
loop $-1 $-1 $47 $21 #
plane-surface $-1 0 -33.787854768087854 -5.3020456681959471 0 0 1 1 0 0 forward_v I I I I #
face $-1 $48 $49 $17 $-1 $50 forward single #
loop $-1 $-1 $51 $22 #
plane-surface $-1 54.903953480153639 82.107833696526455 163.13189713600596 1 0 0 0 -0.70710678939079041 -0.70710677298230451 forward_v I I I I #
face $-1 $52 $53 $18 $-1 $54 reversed single #
loop $-1 $55 $56 $23 #
cone-surface $-1 59.173424562259811 37.164087328045078 7.8306496890972239 0 -0.70710678939079041 -0.70710677298230451 1 0 0 1 I I 0 1 1 forward I I I I #
face $-1 $57 $58 $19 $-1 $59 reversed single #
loop $-1 $60 $61 $24 #
cone-surface $-1 65.577631185419079 37.164087328045078 7.8306496890972239 0 -0.70710678939079041 -0.70710677298230451 1 0 0 1 I I 0 1 1 forward I I I I #
face $-1 $62 $63 $15 $-1 $64 reversed single #
loop $-1 $-1 $65 $25 #
plane-surface $-1 0 0 -10.913644898470775 0 0 1 1 0 0 forward_v I I I I #
coedge $-1 $66 $67 $68 $69 forward $26 $-1 #
face $-1 $70 $71 $16 $-1 $72 reversed single #
loop $-1 $-1 $73 $28 #
plane-surface $-1 0 -27.328627007933353 -8.1078452833333614 0 -1 0 0 0 -1 forward_v I I I I #
coedge $-1 $74 $75 $76 $77 reversed $29 $-1 #
face $-1 $78 $79 $17 $-1 $80 forward single #
loop $-1 $-1 $81 $31 #
plane-surface $-1 62.375527873839445 -16.670886768753505 64.353178962896379 0 0.70710678939079041 0.70710677298230451 1 0 0 forward_v I I I I #
coedge $-1 $82 $83 $84 $85 reversed $32 $-1 #
face $-1 $86 $87 $18 $-1 $88 forward single #
loop $-1 $89 $90 $34 #
cone-surface $-1 59.173424562259811 35.46675696947247 6.1333193699113444 0 -0.70710678939079041 -0.70710677298230451 0.5 0 0 1 I I -0.70710678118654746 0.70710678118654746 0.5 forward I I I I #
loop $-1 $-1 $91 $23 #
coedge $-1 $56 $56 $92 $93 reversed $35 $-1 #
face $-1 $94 $95 $19 $-1 $96 reversed single #
loop $-1 $97 $98 $37 #
cone-surface $-1 65.577631185419079 35.46675696947247 6.1333193699113444 0 -0.70710678939079041 -0.70710677298230451 0.5 0 0 1 I I -0.70710678118654746 0.70710678118654746 0.5 forward I I I I #
loop $-1 $-1 $99 $24 #
coedge $-1 $61 $61 $100 $101 reversed $38 $-1 #
face $-1 $102 $103 $15 $-1 $104 reversed single #
loop $-1 $-1 $105 $40 #
plane-surface $-1 0 -40.247082528242359 0 0 1 0 0 0 1 forward_v I I I I #
coedge $-1 $106 $107 $108 $109 forward $41 $-1 #
coedge $-1 $110 $43 $111 $112 forward $26 $-1 #
coedge $-1 $43 $110 $113 $114 forward $26 $-1 #
coedge $-1 $115 $116 $43 $69 reversed $117 $-1 #
edge $-1 $118 -40.247082528242359 $119 40.247082528242359 $68 $120 forward 7 unknown #
face $-1 $121 $122 $16 $-1 $123 reversed single #
loop $-1 $-1 $124 $44 #
plane-surface $-1 0 -40.247082528242359 0 0 1 0 0 0 1 forward_v I I I I #
coedge $-1 $125 $126 $127 $128 reversed $45 $-1 #
coedge $-1 $129 $47 $124 $130 reversed $29 $-1 #
coedge $-1 $47 $129 $125 $131 reversed $29 $-1 #
coedge $-1 $127 $132 $47 $77 forward $133 $-1 #
edge $-1 $134 -23.353155144198432 $135 -10.434699623889426 $76 $136 forward 7 unknown #
face $-1 $137 $138 $17 $-1 $139 reversed single #
loop $-1 $-1 $140 $48 #
plane-surface $-1 0 0 10.913644898470775 0 0 1 1 0 0 forward_v I I I I #
coedge $-1 $141 $142 $140 $143 reversed $49 $-1 #
coedge $-1 $83 $51 $142 $144 forward $32 $-1 #
coedge $-1 $51 $82 $145 $146 reversed $32 $-1 #
coedge $-1 $147 $140 $51 $85 forward $79 $-1 #
edge $-1 $148 -4.2852707926610307 $149 -0.80683432002086874 $84 $150 forward 7 unknown #
face $-1 $151 $152 $18 $-1 $153 forward single #
loop $-1 $-1 $154 $52 #
plane-surface $-1 54.903953480153639 82.107833696526455 163.13189713600596 1 0 0 0 -0.70710678939079041 -0.70710677298230451 forward_v I I I I #
loop $-1 $-1 $155 $34 #
coedge $-1 $90 $90 $91 $156 forward $53 $-1 #
coedge $-1 $91 $91 $90 $156 reversed $55 $-1 #
coedge $-1 $92 $92 $56 $93 forward $152 $-1 #
edge $-1 $157 -1.256073981520683e-015 $157 6.2831853071795996 $92 $158 forward 7 unknown #
face $-1 $159 $160 $19 $-1 $161 reversed single #
loop $-1 $162 $163 $57 #
cone-surface $-1 59.173424562259811 37.164087328045078 7.8306496890972239 0 -0.70710678939079041 -0.70710677298230451 1 0 0 1 I I 0 1 1 forward I I I I #
loop $-1 $-1 $164 $37 #
coedge $-1 $98 $98 $99 $165 forward $58 $-1 #
coedge $-1 $99 $99 $98 $165 reversed $60 $-1 #
coedge $-1 $100 $100 $61 $101 forward $166 $-1 #
edge $-1 $167 -1.256073981520683e-015 $167 6.2831853071795996 $100 $168 forward 7 unknown #
face $-1 $169 $170 $15 $-1 $171 reversed single #
loop $-1 $-1 $172 $62 #
plane-surface $-1 -69.847102267525258 0 0 1 0 0 0 0 -1 forward_v I I I I #
coedge $-1 $173 $113 $174 $175 forward $63 $-1 #
coedge $-1 $176 $65 $173 $177 forward $41 $-1 #
coedge $-1 $65 $176 $178 $179 forward $41 $-1 #
coedge $-1 $116 $115 $65 $109 reversed $117 $-1 #
edge $-1 $180 -40.247082528242359 $181 40.247082528242359 $108 $182 forward 7 unknown #
coedge $-1 $67 $66 $183 $184 forward $26 $-1 #
coedge $-1 $185 $186 $66 $112 reversed $170 $-1 #
edge $-1 $119 -69.847102267525258 $187 69.847102267525258 $111 $188 forward 7 unknown #
coedge $-1 $105 $189 $67 $114 reversed $63 $-1 #
edge $-1 $190 -69.847102267525258 $118 69.847102267525258 $113 $191 forward 7 unknown #
coedge $-1 $108 $68 $189 $192 forward $117 $-1 #
coedge $-1 $68 $108 $185 $193 reversed $117 $-1 #
loop $-1 $-1 $115 $169 #
vertex $-1 $69 $194 #
vertex $-1 $69 $195 #
straight-curve $-1 69.847102267525258 0 10.913644898470775 0 1 0 I I #
face $-1 $196 $197 $16 $-1 $198 forward single #
loop $-1 $-1 $199 $70 #
plane-surface $-1 0 0 -10.913644898470775 0 0 1 1 0 0 forward_v I I I I #
coedge $-1 $200 $201 $74 $130 forward $71 $-1 #
coedge $-1 $202 $73 $75 $131 forward $45 $-1 #
coedge $-1 $73 $202 $199 $203 reversed $45 $-1 #
coedge $-1 $204 $76 $73 $128 forward $133 $-1 #
edge $-1 $135 1.2481230265292664 $205 6.8597222568040941 $127 $206 forward 7 unknown #
coedge $-1 $75 $74 $207 $208 reversed $29 $-1 #
edge $-1 $209 -69.847102267525258 $134 69.847102267525258 $124 $210 forward 7 unknown #
edge $-1 $135 -69.847102267525258 $211 69.847102267525258 $125 $212 forward 7 unknown #
coedge $-1 $76 $213 $200 $214 forward $133 $-1 #
loop $-1 $-1 $127 $215 #
vertex $-1 $130 $216 #
vertex $-1 $77 $217 #
straight-curve $-1 69.847102267525258 -16.893927384043927 -5.3020456681959471 0 1 0 I I #
face $-1 $218 $219 $17 $-1 $220 reversed single #
loop $-1 $-1 $145 $78 #
plane-surface $-1 0 40.247082528242359 0 0 -1 0 0 0 -1 forward_v I I I I #
coedge $-1 $84 $221 $81 $143 forward $79 $-1 #
coedge $-1 $222 $81 $223 $224 reversed $49 $-1 #
coedge $-1 $81 $222 $82 $144 reversed $49 $-1 #
edge $-1 $225 -38.659338330605536 $148 -23.716189543233916 $140 $226 forward 7 unknown #
edge $-1 $148 75.574912963947881 $227 80.494165056484704 $82 $228 forward 7 unknown #
coedge $-1 $229 $230 $83 $146 forward $138 $-1 #
edge $-1 $149 70.652303669532202 $227 74.130740222889841 $145 $231 forward 7 unknown #
coedge $-1 $232 $84 $230 $233 forward $79 $-1 #
vertex $-1 $143 $234 #
vertex $-1 $233 $235 #
straight-curve $-1 54.903953480153639 41.053916848263228 10.913644898470778 0 1 0 I I #
face $-1 $236 $237 $18 $-1 $238 forward single #
loop $-1 $239 $92 $86 #
plane-surface $-1 62.375527873839445 -16.670886768753505 64.353178962896379 0 0.70710678939079041 0.70710677298230451 1 0 0 forward_v I I I I #
coedge $-1 $240 $241 $242 $243 reversed $87 $-1 #
coedge $-1 $155 $155 $-1 $244 forward $89 $-1 #
edge $-1 $245 0 $245 6.2831853071796004 $90 $246 forward 7 unknown #
vertex $-1 $93 $247 #
ellipse-curve $-1 59.173424562259811 38.507864291922289 9.1744266217919517 0 -0.70710678939079041 -0.70710677298230451 1 0 0 1 I I #
face $-1 $248 $249 $19 $-1 $250 forward single #
loop $-1 $251 $252 $94 #
cone-surface $-1 59.173424562259811 35.46675696947247 6.1333193699113444 0 -0.70710678939079041 -0.70710677298230451 0.5 0 0 1 I I -0.70710678118654746 0.70710678118654746 0.5 forward I I I I #
loop $-1 $-1 $253 $57 #
coedge $-1 $163 $163 $254 $255 reversed $95 $-1 #
coedge $-1 $164 $164 $-1 $256 forward $97 $-1 #
edge $-1 $257 0 $257 6.2831853071796004 $98 $258 forward 7 unknown #
loop $-1 $259 $100 $248 #
vertex $-1 $101 $260 #
ellipse-curve $-1 65.577631185419079 38.507864291922289 9.1744266217919517 0 -0.70710678939079041 -0.70710677298230451 1 0 0 1 I I #
face $-1 $-1 $117 $15 $-1 $261 reversed single #
loop $-1 $-1 $185 $102 #
plane-surface $-1 0 40.247082528242359 0 0 -1 0 0 0 -1 forward_v I I I I #
coedge $-1 $262 $183 $186 $263 forward $103 $-1 #
coedge $-1 $189 $105 $106 $177 reversed $63 $-1 #
coedge $-1 $183 $262 $105 $175 reversed $103 $-1 #
edge $-1 $190 -10.913644898470775 $264 10.913644898470775 $174 $265 forward 7 unknown #
coedge $-1 $107 $106 $262 $266 forward $41 $-1 #
edge $-1 $181 -69.847102267525258 $264 69.847102267525258 $173 $267 forward 7 unknown #
coedge $-1 $186 $185 $107 $179 reversed $170 $-1 #
edge $-1 $268 -69.847102267525258 $180 69.847102267525258 $178 $269 forward 7 unknown #
vertex $-1 $109 $270 #
vertex $-1 $192 $271 #
straight-curve $-1 69.847102267525258 0 -10.913644898470775 0 -1 0 I I #
coedge $-1 $172 $174 $110 $184 reversed $103 $-1 #
edge $-1 $187 -40.247082528242359 $190 40.247082528242359 $183 $272 forward 7 unknown #
coedge $-1 $178 $111 $116 $193 forward $170 $-1 #
coedge $-1 $111 $178 $172 $263 reversed $170 $-1 #
vertex $-1 $112 $273 #
straight-curve $-1 0 40.247082528242359 10.913644898470775 -1 0 0 I I #
coedge $-1 $113 $173 $115 $192 reversed $63 $-1 #
vertex $-1 $184 $274 #
straight-curve $-1 0 -40.247082528242359 10.913644898470775 1 0 0 I I #
edge $-1 $118 -10.913644898470775 $181 10.913644898470775 $115 $275 forward 7 unknown #
edge $-1 $119 -10.913644898470775 $180 10.913644898470775 $116 $276 forward 7 unknown #
point $-1 69.847102267525258 -40.247082528242359 10.913644898470775 #
point $-1 69.847102267525258 40.247082528242359 10.913644898470775 #
face $-1 $277 $278 $16 $-1 $279 reversed single #
loop $-1 $-1 $280 $121 #
plane-surface $-1 0 0 10.913644898470775 0 0 1 1 0 0 forward_v I I I I #
coedge $-1 $281 $282 $126 $203 forward $122 $-1 #
coedge $-1 $283 $124 $132 $214 reversed $71 $-1 #
coedge $-1 $124 $283 $284 $285 forward $71 $-1 #
coedge $-1 $126 $125 $286 $287 reversed $45 $-1 #
edge $-1 $205 -69.847102267525258 $288 69.847102267525258 $199 $289 forward 7 unknown #
coedge $-1 $290 $127 $282 $291 reversed $133 $-1 #
vertex $-1 $203 $292 #
straight-curve $-1 69.847102267525258 -27.328627007933353 -4.0539226416666807 0 0 -1 I I #
coedge $-1 $284 $286 $129 $208 forward $278 $-1 #
edge $-1 $211 10.434699623889426 $209 23.353155144198432 $207 $293 forward 7 unknown #
vertex $-1 $130 $294 #
straight-curve $-1 0 -40.247082528242359 -5.3020456681959471 1 0 0 I I #
vertex $-1 $208 $295 #
straight-curve $-1 0 -27.328627007933353 -5.3020456681959471 -1 0 0 I I #
coedge $-1 $132 $290 $280 $296 reversed $133 $-1 #
edge $-1 $297 -10.913644898470775 $134 5.3020456681959471 $132 $298 forward 7 unknown #
face $-1 $-1 $133 $16 $-1 $299 reversed single #
point $-1 69.847102267525258 -40.247082528242359 -5.3020456681959471 #
point $-1 69.847102267525258 -27.328627007933353 -5.3020456681959471 #
face $-1 $300 $301 $17 $-1 $302 forward single #
loop $-1 $-1 $303 $137 #
plane-surface $-1 0 -33.787854768087854 -5.3020456681959471 0 0 1 1 0 0 forward_v I I I I #
coedge $-1 $140 $304 $305 $306 forward $79 $-1 #
coedge $-1 $142 $141 $229 $307 reversed $49 $-1 #
coedge $-1 $305 $308 $141 $224 forward $309 $-1 #
edge $-1 $310 -51.847831701809042 $225 -46.928579609272219 $223 $311 forward 7 unknown #
vertex $-1 $224 $312 #
straight-curve $-1 31.187763936919723 36.768646055602204 10.913644898470771 -1 0 0 I I #
vertex $-1 $307 $313 #
straight-curve $-1 54.903953480153639 -16.670886768753505 64.353178962896379 0 0.70710677298230451 -0.70710678939079041 I I #
coedge $-1 $314 $145 $222 $307 forward $138 $-1 #
coedge $-1 $145 $315 $147 $233 reversed $138 $-1 #
straight-curve $-1 54.903953480153639 40.247082528242359 81.56594856800298 0 0 -1 I I #
coedge $-1 $304 $147 $316 $317 forward $79 $-1 #
edge $-1 $149 -54.903953480153639 $318 69.847102267525258 $230 $319 forward 7 unknown #
point $-1 54.903953480153639 36.768646055602197 10.913644898470778 #
point $-1 54.903953480153639 40.247082528242359 10.913644898470775 #
face $-1 $320 $321 $18 $-1 $322 reversed single #
loop $-1 $-1 $323 $151 #
plane-surface $-1 0 0 10.913644898470775 0 0 1 1 0 0 forward_v I I I I #
loop $-1 $-1 $324 $86 #
coedge $-1 $241 $154 $325 $326 forward $87 $-1 #
coedge $-1 $154 $240 $327 $328 reversed $87 $-1 #
coedge $-1 $329 $323 $154 $243 forward $237 $-1 #
edge $-1 $330 -4.2852707926610307 $331 -0.80683432002086874 $242 $332 forward 7 unknown #
edge $-1 $333 1 $333 0 $155 $-1 forward 7 unknown #
vertex $-1 $156 $334 #
ellipse-curve $-1 59.173424562259811 35.820310364167867 6.4868727564024971 0 0.70710678939079041 0.70710677298230451 1 0 0 1 I I #
point $-1 60.173424562259811 38.507864291922289 9.1744266217919499 #
face $-1 $335 $166 $19 $-1 $336 forward single #
loop $-1 $-1 $337 $159 #
plane-surface $-1 54.903953480153639 82.107833696526455 163.13189713600596 1 0 0 0 -0.70710678939079041 -0.70710677298230451 forward_v I I I I #
loop $-1 $-1 $338 $94 #
coedge $-1 $252 $252 $253 $339 forward $160 $-1 #
coedge $-1 $253 $253 $252 $339 reversed $162 $-1 #
coedge $-1 $254 $254 $163 $255 forward $259 $-1 #
edge $-1 $340 -1.256073981520683e-015 $340 6.2831853071795996 $254 $341 forward 7 unknown #
edge $-1 $342 1 $342 0 $164 $-1 forward 7 unknown #
vertex $-1 $165 $343 #
ellipse-curve $-1 65.577631185419079 35.820310364167867 6.4868727564024971 0 0.70710678939079041 0.70710677298230451 1 0 0 1 I I #
loop $-1 $344 $254 $248 #
point $-1 66.577631185419079 38.507864291922289 9.1744266217919499 #
plane-surface $-1 69.847102267525258 0 0 -1 0 0 0 0 1 forward_v I I I I #
coedge $-1 $174 $172 $176 $266 reversed $103 $-1 #
edge $-1 $187 -10.913644898470775 $268 10.913644898470775 $186 $345 forward 7 unknown #
vertex $-1 $266 $346 #
straight-curve $-1 -69.847102267525258 -40.247082528242359 0 0 0 -1 I I #
edge $-1 $264 -40.247082528242359 $268 40.247082528242359 $262 $347 forward 7 unknown #
straight-curve $-1 0 -40.247082528242359 -10.913644898470775 -1 0 0 I I #
vertex $-1 $179 $348 #
straight-curve $-1 0 40.247082528242359 -10.913644898470775 1 0 0 I I #
point $-1 69.847102267525258 40.247082528242359 -10.913644898470775 #
point $-1 69.847102267525258 -40.247082528242359 -10.913644898470775 #
straight-curve $-1 -69.847102267525258 0 10.913644898470775 0 -1 0 I I #
point $-1 -69.847102267525258 40.247082528242359 10.913644898470775 #
point $-1 -69.847102267525258 -40.247082528242359 10.913644898470775 #
straight-curve $-1 69.847102267525258 -40.247082528242359 0 0 0 -1 I I #
straight-curve $-1 69.847102267525258 40.247082528242359 0 0 0 -1 I I #
face $-1 $215 $349 $16 $-1 $350 reversed single #
loop $-1 $-1 $207 $196 #
plane-surface $-1 -69.847102267525258 0 0 1 0 0 0 0 -1 forward_v I I I I #
coedge $-1 $351 $352 $213 $296 forward $197 $-1 #
coedge $-1 $353 $199 $354 $355 forward $122 $-1 #
coedge $-1 $199 $353 $204 $291 forward $122 $-1 #
coedge $-1 $201 $200 $352 $356 reversed $71 $-1 #
coedge $-1 $357 $207 $201 $285 reversed $278 $-1 #
edge $-1 $358 -10.913644898470775 $209 5.3020456681959471 $284 $359 forward 7 unknown #
coedge $-1 $207 $354 $202 $287 forward $278 $-1 #
edge $-1 $288 -6.8597222568040941 $211 -1.2481230265292664 $286 $360 forward 7 unknown #
vertex $-1 $355 $361 #
straight-curve $-1 0 -27.328627007933353 -10.913644898470775 -1 0 0 I I #
coedge $-1 $213 $204 $362 $363 reversed $133 $-1 #
edge $-1 $364 -40.247082528242359 $205 27.328627007933353 $204 $365 forward 7 unknown #
point $-1 69.847102267525258 -27.328627007933353 -10.913644898470775 #
straight-curve $-1 -69.847102267525258 -16.893927384043927 -5.3020456681959471 0 -1 0 I I #
point $-1 -69.847102267525258 -40.247082528242359 -5.3020456681959471 #
point $-1 -69.847102267525258 -27.328627007933353 -5.3020456681959471 #
edge $-1 $297 -40.247082528242359 $366 40.247082528242359 $213 $367 forward 7 unknown #
vertex $-1 $296 $368 #
straight-curve $-1 69.847102267525258 -40.247082528242359 0 0 0 -1 I I #
plane-surface $-1 69.847102267525258 0 0 -1 0 0 0 0 1 forward_v I I I I #
face $-1 $369 $370 $17 $-1 $371 reversed single #
loop $-1 $-1 $372 $218 #
plane-surface $-1 0 -27.328627007933353 -8.1078452833333614 0 -1 0 0 0 -1 forward_v I I I I #
coedge $-1 $373 $374 $375 $376 reversed $219 $-1 #
coedge $-1 $221 $232 $377 $378 forward $79 $-1 #
coedge $-1 $379 $223 $221 $306 reversed $309 $-1 #
edge $-1 $380 -40.247082528242359 $225 36.768646055602197 $305 $381 forward 7 unknown #
edge $-1 $227 23.716189543233916 $310 38.659338330605536 $229 $382 forward 7 unknown #
coedge $-1 $223 $383 $314 $384 reversed $309 $-1 #
loop $-1 $-1 $223 $385 #
vertex $-1 $384 $386 #
straight-curve $-1 69.847102267525258 3.5851295674465469 44.097162156653368 0 -0.70710677298230462 0.70710678939079052 I I #
point $-1 69.847102267525258 36.768646055602197 10.913644898470778 #
point $-1 54.903953480153639 40.247082528242359 7.4352083451131392 #
coedge $-1 $387 $229 $308 $384 forward $138 $-1 #
coedge $-1 $230 $387 $388 $389 reversed $138 $-1 #
coedge $-1 $388 $390 $232 $317 reversed $391 $-1 #
edge $-1 $318 -40.247082528242359 $392 40.247082528242359 $316 $393 forward 7 unknown #
vertex $-1 $233 $394 #
straight-curve $-1 0 40.247082528242359 10.913644898470775 -1 0 0 I I #
face $-1 $395 $396 $18 $-1 $397 reversed single #
loop $-1 $-1 $327 $236 #
plane-surface $-1 0 40.247082528242359 0 0 -1 0 0 0 -1 forward_v I I I I #
coedge $-1 $242 $398 $324 $399 forward $237 $-1 #
coedge $-1 $400 $325 $323 $399 reversed $239 $-1 #
coedge $-1 $324 $401 $240 $326 reversed $239 $-1 #
edge $-1 $330 75.574912963947881 $402 80.494165056484704 $240 $403 forward 7 unknown #
coedge $-1 $404 $405 $241 $328 forward $321 $-1 #
edge $-1 $331 70.652303669532202 $402 74.130740222889841 $327 $406 forward 7 unknown #
coedge $-1 $407 $242 $405 $408 forward $237 $-1 #
vertex $-1 $399 $409 #
vertex $-1 $408 $410 #
straight-curve $-1 54.903953480153639 41.053916848263228 10.913644898470778 0 1 0 I I #
vertex $-1 $244 $411 #
point $-1 60.173424562259811 35.820310364167867 6.4868727564024971 #
face $-1 $412 $413 $19 $-1 $414 forward single #
plane-surface $-1 62.375527873839445 -16.670886768753505 64.353178962896379 0 0.70710678939079041 0.70710677298230451 1 0 0 forward_v I I I I #
coedge $-1 $415 $416 $417 $418 reversed $249 $-1 #
coedge $-1 $338 $338 $-1 $419 forward $251 $-1 #
edge $-1 $420 0 $420 6.2831853071796004 $252 $421 forward 7 unknown #
vertex $-1 $255 $422 #
ellipse-curve $-1 59.173424562259811 38.507864291922289 9.1744266217919517 0 -0.70710678939079041 -0.70710677298230451 1 0 0 1 I I #
vertex $-1 $256 $423 #
point $-1 66.577631185419079 35.820310364167867 6.4868727564024971 #
loop $-1 $-1 $424 $248 #
straight-curve $-1 -69.847102267525258 40.247082528242359 0 0 0 -1 I I #
point $-1 -69.847102267525258 -40.247082528242359 -10.913644898470775 #
straight-curve $-1 -69.847102267525258 0 -10.913644898470775 0 1 0 I I #
point $-1 -69.847102267525258 40.247082528242359 -10.913644898470775 #
loop $-1 $-1 $362 $277 #
plane-surface $-1 0 40.247082528242359 0 0 -1 0 0 0 -1 forward_v I I I I #
coedge $-1 $425 $280 $426 $427 forward $197 $-1 #
coedge $-1 $280 $425 $283 $356 forward $197 $-1 #
coedge $-1 $282 $281 $428 $429 forward $122 $-1 #
coedge $-1 $286 $430 $281 $355 reversed $278 $-1 #
edge $-1 $288 -27.328627007933353 $431 40.247082528242359 $354 $432 forward 7 unknown #
edge $-1 $358 -69.847102267525258 $297 69.847102267525258 $283 $433 forward 7 unknown #
coedge $-1 $430 $284 $425 $434 reversed $278 $-1 #
vertex $-1 $434 $435 #
straight-curve $-1 -69.847102267525258 -40.247082528242359 0 0 0 -1 I I #
straight-curve $-1 -69.847102267525258 -27.328627007933353 -4.0539226416666807 0 0 1 I I #
point $-1 -69.847102267525258 -27.328627007933353 -10.913644898470775 #
coedge $-1 $428 $426 $290 $363 forward $349 $-1 #
edge $-1 $366 -10.913644898470775 $364 10.913644898470775 $290 $436 forward 7 unknown #
vertex $-1 $291 $437 #
straight-curve $-1 69.847102267525258 0 -10.913644898470775 0 -1 0 I I #
vertex $-1 $296 $438 #
straight-curve $-1 69.847102267525258 0 10.913644898470775 0 1 0 I I #
point $-1 69.847102267525258 -40.247082528242359 10.913644898470775 #
face $-1 $439 $440 $17 $-1 $441 reversed single #
loop $-1 $-1 $442 $300 #
plane-surface $-1 0 -40.247082528242359 0 0 1 0 0 0 1 forward_v I I I I #
coedge $-1 $443 $444 $445 $446 reversed $301 $-1 #
coedge $-1 $447 $303 $442 $448 reversed $219 $-1 #
coedge $-1 $303 $447 $443 $449 reversed $219 $-1 #
coedge $-1 $445 $379 $303 $376 forward $309 $-1 #
edge $-1 $450 -23.353155144198432 $451 -10.434699623889426 $375 $452 forward 7 unknown #
coedge $-1 $453 $454 $304 $378 reversed $370 $-1 #
edge $-1 $392 -69.847102267525258 $380 69.847102267525258 $377 $455 forward 7 unknown #
coedge $-1 $375 $305 $454 $456 forward $309 $-1 #
vertex $-1 $306 $457 #
straight-curve $-1 69.847102267525258 0 10.913644898470775 0 1 0 I I #
straight-curve $-1 31.187763936919723 40.247082528242359 7.4352083451131392 1 0 0 I I #
coedge $-1 $308 $445 $458 $459 reversed $309 $-1 #
edge $-1 $310 -7.4352083451131392 $460 10.913644898470775 $308 $461 forward 7 unknown #
face $-1 $-1 $309 $17 $-1 $462 reversed single #
point $-1 69.847102267525258 40.247082528242359 7.4352083451131392 #
coedge $-1 $315 $314 $463 $464 reversed $138 $-1 #
coedge $-1 $465 $316 $315 $389 forward $391 $-1 #
edge $-1 $318 -10.913644898470775 $466 10.913644898470775 $315 $467 forward 7 unknown #
coedge $-1 $316 $468 $453 $469 reversed $391 $-1 #
loop $-1 $-1 $468 $439 #
vertex $-1 $317 $470 #
straight-curve $-1 -69.847102267525258 0 10.913644898470775 0 -1 0 I I #
point $-1 -69.847102267525258 40.247082528242359 10.913644898470775 #
face $-1 $471 $472 $18 $-1 $473 forward single #
loop $-1 $-1 $474 $320 #
plane-surface $-1 0 -33.787854768087854 -5.3020456681959471 0 0 1 1 0 0 forward_v I I I I #
coedge $-1 $323 $475 $476 $477 forward $237 $-1 #
edge $-1 $478 -38.659338330605536 $330 -23.716189543233916 $323 $479 forward 7 unknown #
coedge $-1 $401 $324 $480 $481 reversed $239 $-1 #
coedge $-1 $325 $400 $404 $482 reversed $239 $-1 #
vertex $-1 $482 $483 #
straight-curve $-1 54.903953480153639 -16.670886768753505 64.353178962896379 0 0.70710677298230451 -0.70710678939079041 I I #
coedge $-1 $484 $327 $401 $482 forward $321 $-1 #
coedge $-1 $327 $485 $329 $408 reversed $321 $-1 #
straight-curve $-1 54.903953480153639 40.247082528242359 81.56594856800298 0 0 -1 I I #
coedge $-1 $475 $329 $486 $487 forward $237 $-1 #
edge $-1 $331 -54.903953480153639 $488 69.847102267525258 $405 $489 forward 7 unknown #
point $-1 54.903953480153639 36.768646055602197 10.913644898470778 #
point $-1 54.903953480153639 40.247082528242359 10.913644898470775 #
point $-1 59.173424562259811 35.113203574777074 5.7797659834201918 #
face $-1 $490 $491 $19 $-1 $492 reversed single #
loop $-1 $-1 $493 $335 #
plane-surface $-1 0 0 10.913644898470775 0 0 1 1 0 0 forward_v I I I I #
coedge $-1 $416 $337 $494 $495 forward $249 $-1 #
coedge $-1 $337 $415 $496 $497 reversed $249 $-1 #
coedge $-1 $498 $493 $337 $418 forward $413 $-1 #
edge $-1 $499 -4.2852707926610307 $500 -0.80683432002086874 $417 $501 forward 7 unknown #
edge $-1 $502 1 $502 0 $338 $-1 forward 7 unknown #
vertex $-1 $339 $503 #
ellipse-curve $-1 59.173424562259811 35.820310364167867 6.4868727564024971 0 0.70710678939079041 0.70710677298230451 1 0 0 1 I I #
point $-1 60.173424562259811 38.507864291922289 9.1744266217919499 #
point $-1 65.577631185419079 35.113203574777074 5.7797659834201918 #
coedge $-1 $504 $494 $493 $505 reversed $344 $-1 #
coedge $-1 $352 $351 $357 $434 forward $197 $-1 #
coedge $-1 $362 $506 $351 $427 reversed $349 $-1 #
edge $-1 $366 -69.847102267525258 $507 69.847102267525258 $426 $508 forward 7 unknown #
coedge $-1 $506 $362 $353 $429 reversed $349 $-1 #
edge $-1 $431 -69.847102267525258 $364 69.847102267525258 $428 $509 forward 7 unknown #
coedge $-1 $354 $357 $506 $510 forward $278 $-1 #
vertex $-1 $429 $511 #
straight-curve $-1 -69.847102267525258 0 -10.913644898470775 0 1 0 I I #
straight-curve $-1 0 -40.247082528242359 10.913644898470775 1 0 0 I I #
edge $-1 $507 -40.247082528242359 $358 40.247082528242359 $357 $512 forward 7 unknown #
point $-1 -69.847102267525258 -40.247082528242359 10.913644898470775 #
straight-curve $-1 69.847102267525258 40.247082528242359 0 0 0 -1 I I #
point $-1 69.847102267525258 40.247082528242359 -10.913644898470775 #
point $-1 69.847102267525258 40.247082528242359 10.913644898470775 #
face $-1 $385 $391 $17 $-1 $513 reversed single #
loop $-1 $-1 $514 $369 #
plane-surface $-1 0 0 -10.913644898470775 0 0 1 1 0 0 forward_v I I I I #
coedge $-1 $454 $453 $373 $448 forward $370 $-1 #
coedge $-1 $515 $372 $374 $449 forward $301 $-1 #
coedge $-1 $372 $515 $514 $516 reversed $301 $-1 #
coedge $-1 $383 $375 $372 $446 forward $309 $-1 #
edge $-1 $451 1.2481230265292664 $517 6.8597222568040941 $445 $518 forward 7 unknown #
coedge $-1 $374 $373 $468 $519 reversed $219 $-1 #
edge $-1 $520 -69.847102267525258 $450 69.847102267525258 $442 $521 forward 7 unknown #
edge $-1 $451 -69.847102267525258 $522 69.847102267525258 $443 $523 forward 7 unknown #
vertex $-1 $448 $524 #
vertex $-1 $376 $525 #
straight-curve $-1 69.847102267525258 -16.893927384043927 -5.3020456681959471 0 1 0 I I #
coedge $-1 $442 $377 $390 $469 forward $370 $-1 #
coedge $-1 $377 $442 $379 $456 reversed $370 $-1 #
straight-curve $-1 0 -40.247082528242359 10.913644898470775 1 0 0 I I #
edge $-1 $380 -10.913644898470775 $450 5.3020456681959471 $379 $526 forward 7 unknown #
point $-1 69.847102267525258 -40.247082528242359 10.913644898470775 #
coedge $-1 $514 $463 $383 $459 forward $440 $-1 #
edge $-1 $460 -40.247082528242359 $517 27.328627007933353 $383 $527 forward 7 unknown #
vertex $-1 $459 $528 #
straight-curve $-1 69.847102267525258 40.247082528242359 0 0 0 -1 I I #
plane-surface $-1 69.847102267525258 0 0 -1 0 0 0 0 1 forward_v I I I I #
coedge $-1 $458 $529 $387 $464 forward $440 $-1 #
edge $-1 $466 -69.847102267525258 $460 69.847102267525258 $387 $530 forward 7 unknown #
coedge $-1 $531 $388 $529 $532 reversed $391 $-1 #
vertex $-1 $464 $533 #
straight-curve $-1 -69.847102267525258 40.247082528242359 0 0 0 -1 I I #
coedge $-1 $390 $531 $447 $519 forward $391 $-1 #
edge $-1 $392 -10.913644898470775 $520 5.3020456681959471 $390 $534 forward 7 unknown #
point $-1 -69.847102267525258 -40.247082528242359 10.913644898470775 #
face $-1 $535 $536 $18 $-1 $537 reversed single #
loop $-1 $-1 $538 $395 #
plane-surface $-1 0 -27.328627007933353 -8.1078452833333614 0 -1 0 0 0 -1 forward_v I I I I #
coedge $-1 $539 $540 $541 $542 reversed $396 $-1 #
coedge $-1 $398 $407 $543 $544 forward $237 $-1 #
coedge $-1 $545 $480 $398 $477 reversed $546 $-1 #
edge $-1 $547 -40.247082528242359 $478 36.768646055602197 $476 $548 forward 7 unknown #
vertex $-1 $481 $549 #
straight-curve $-1 31.187763936919723 36.768646055602204 10.913644898470771 -1 0 0 I I #
coedge $-1 $476 $550 $400 $481 forward $546 $-1 #
edge $-1 $551 -51.847831701809042 $478 -46.928579609272219 $480 $552 forward 7 unknown #
edge $-1 $402 23.716189543233916 $551 38.659338330605536 $404 $553 forward 7 unknown #
point $-1 54.903953480153639 40.247082528242359 7.4352083451131392 #
coedge $-1 $554 $404 $550 $555 forward $321 $-1 #
coedge $-1 $405 $554 $556 $557 reversed $321 $-1 #
coedge $-1 $556 $558 $407 $487 reversed $559 $-1 #
edge $-1 $488 -40.247082528242359 $560 40.247082528242359 $486 $561 forward 7 unknown #
vertex $-1 $408 $562 #
straight-curve $-1 0 40.247082528242359 10.913644898470775 -1 0 0 I I #
face $-1 $563 $564 $19 $-1 $565 reversed single #
loop $-1 $-1 $496 $412 #
plane-surface $-1 0 40.247082528242359 0 0 -1 0 0 0 -1 forward_v I I I I #
coedge $-1 $417 $566 $424 $505 forward $413 $-1 #
coedge $-1 $424 $567 $415 $495 reversed $344 $-1 #
edge $-1 $499 75.574912963947881 $568 80.494165056484704 $415 $569 forward 7 unknown #
coedge $-1 $570 $571 $416 $497 forward $491 $-1 #
edge $-1 $500 70.652303669532202 $568 74.130740222889841 $496 $572 forward 7 unknown #
coedge $-1 $573 $417 $571 $574 forward $413 $-1 #
vertex $-1 $505 $575 #
vertex $-1 $574 $576 #
straight-curve $-1 54.903953480153639 41.053916848263228 10.913644898470778 0 1 0 I I #
vertex $-1 $419 $577 #
point $-1 60.173424562259811 35.820310364167867 6.4868727564024971 #
coedge $-1 $567 $424 $578 $579 reversed $344 $-1 #
edge $-1 $580 -38.659338330605536 $499 -23.716189543233916 $493 $581 forward 7 unknown #
coedge $-1 $426 $428 $430 $510 reversed $349 $-1 #
vertex $-1 $427 $582 #
straight-curve $-1 0 40.247082528242359 10.913644898470775 -1 0 0 I I #
straight-curve $-1 0 40.247082528242359 -10.913644898470775 1 0 0 I I #
edge $-1 $507 -10.913644898470775 $431 10.913644898470775 $506 $583 forward 7 unknown #
point $-1 -69.847102267525258 40.247082528242359 -10.913644898470775 #
straight-curve $-1 -69.847102267525258 0 10.913644898470775 0 -1 0 I I #
plane-surface $-1 -69.847102267525258 0 0 1 0 0 0 0 -1 forward_v I I I I #
coedge $-1 $529 $458 $444 $516 forward $440 $-1 #
coedge $-1 $444 $443 $531 $584 reversed $301 $-1 #
edge $-1 $517 -69.847102267525258 $585 69.847102267525258 $514 $586 forward 7 unknown #
vertex $-1 $516 $587 #
straight-curve $-1 69.847102267525258 -27.328627007933353 -4.0539226416666807 0 0 -1 I I #
edge $-1 $522 10.434699623889426 $520 23.353155144198432 $468 $588 forward 7 unknown #
vertex $-1 $448 $589 #
straight-curve $-1 0 -40.247082528242359 -5.3020456681959471 1 0 0 I I #
vertex $-1 $519 $590 #
straight-curve $-1 0 -27.328627007933353 -5.3020456681959471 -1 0 0 I I #
point $-1 69.847102267525258 -40.247082528242359 -5.3020456681959471 #
point $-1 69.847102267525258 -27.328627007933353 -5.3020456681959471 #
straight-curve $-1 69.847102267525258 -40.247082528242359 0 0 0 -1 I I #
straight-curve $-1 69.847102267525258 0 -10.913644898470775 0 -1 0 I I #
point $-1 69.847102267525258 40.247082528242359 -10.913644898470775 #
coedge $-1 $463 $514 $465 $532 forward $440 $-1 #
straight-curve $-1 0 40.247082528242359 -10.913644898470775 1 0 0 I I #
coedge $-1 $468 $465 $515 $584 forward $391 $-1 #
edge $-1 $585 -27.328627007933353 $466 40.247082528242359 $465 $591 forward 7 unknown #
point $-1 -69.847102267525258 40.247082528242359 -10.913644898470775 #
straight-curve $-1 -69.847102267525258 -40.247082528242359 0 0 0 -1 I I #
face $-1 $592 $593 $18 $-1 $594 reversed single #
loop $-1 $-1 $595 $471 #
plane-surface $-1 0 -40.247082528242359 0 0 1 0 0 0 1 forward_v I I I I #
coedge $-1 $596 $597 $598 $599 reversed $472 $-1 #
coedge $-1 $600 $474 $595 $601 reversed $396 $-1 #
coedge $-1 $474 $600 $596 $602 reversed $396 $-1 #
coedge $-1 $598 $545 $474 $542 forward $546 $-1 #
edge $-1 $603 -23.353155144198432 $604 -10.434699623889426 $541 $605 forward 7 unknown #
coedge $-1 $606 $607 $475 $544 reversed $536 $-1 #
edge $-1 $560 -69.847102267525258 $547 69.847102267525258 $543 $608 forward 7 unknown #
coedge $-1 $541 $476 $607 $609 forward $546 $-1 #
loop $-1 $-1 $480 $610 #
vertex $-1 $477 $611 #
straight-curve $-1 69.847102267525258 0 10.913644898470775 0 1 0 I I #
point $-1 69.847102267525258 36.768646055602197 10.913644898470778 #
coedge $-1 $480 $612 $484 $555 reversed $546 $-1 #
vertex $-1 $555 $613 #
straight-curve $-1 69.847102267525258 3.5851295674465469 44.097162156653368 0 -0.70710677298230462 0.70710678939079052 I I #
straight-curve $-1 31.187763936919723 40.247082528242359 7.4352083451131392 1 0 0 I I #
coedge $-1 $485 $484 $614 $615 reversed $321 $-1 #
edge $-1 $551 -7.4352083451131392 $616 10.913644898470775 $550 $617 forward 7 unknown #
coedge $-1 $618 $486 $485 $557 forward $559 $-1 #
edge $-1 $488 -10.913644898470775 $619 10.913644898470775 $485 $620 forward 7 unknown #
coedge $-1 $486 $621 $606 $622 reversed $559 $-1 #
loop $-1 $-1 $621 $592 #
vertex $-1 $487 $623 #
straight-curve $-1 -69.847102267525258 0 10.913644898470775 0 -1 0 I I #
point $-1 -69.847102267525258 40.247082528242359 10.913644898470775 #
face $-1 $624 $625 $19 $-1 $626 forward single #
loop $-1 $-1 $627 $490 #
plane-surface $-1 0 -33.787854768087854 -5.3020456681959471 0 0 1 1 0 0 forward_v I I I I #
coedge $-1 $493 $628 $629 $630 forward $413 $-1 #
coedge $-1 $494 $504 $570 $631 reversed $344 $-1 #
vertex $-1 $631 $632 #
straight-curve $-1 54.903953480153639 -16.670886768753505 64.353178962896379 0 0.70710677298230451 -0.70710678939079041 I I #
coedge $-1 $633 $496 $567 $631 forward $491 $-1 #
coedge $-1 $496 $634 $498 $574 reversed $491 $-1 #
straight-curve $-1 54.903953480153639 40.247082528242359 81.56594856800298 0 0 -1 I I #
coedge $-1 $628 $498 $635 $636 forward $413 $-1 #
edge $-1 $500 -54.903953480153639 $637 69.847102267525258 $571 $638 forward 7 unknown #
point $-1 54.903953480153639 36.768646055602197 10.913644898470778 #
point $-1 54.903953480153639 40.247082528242359 10.913644898470775 #
point $-1 59.173424562259811 35.113203574777074 5.7797659834201918 #
coedge $-1 $629 $639 $504 $579 forward $640 $-1 #
edge $-1 $641 -51.847831701809042 $580 -46.928579609272219 $578 $642 forward 7 unknown #
vertex $-1 $579 $643 #
straight-curve $-1 31.187763936919723 36.768646055602204 10.913644898470771 -1 0 0 I I #
point $-1 -69.847102267525258 40.247082528242359 10.913644898470775 #
straight-curve $-1 -69.847102267525258 40.247082528242359 0 0 0 -1 I I #
edge $-1 $585 -6.8597222568040941 $522 -1.2481230265292664 $531 $644 forward 7 unknown #
vertex $-1 $532 $645 #
straight-curve $-1 0 -27.328627007933353 -10.913644898470775 -1 0 0 I I #
point $-1 69.847102267525258 -27.328627007933353 -10.913644898470775 #
straight-curve $-1 -69.847102267525258 -16.893927384043927 -5.3020456681959471 0 -1 0 I I #
point $-1 -69.847102267525258 -40.247082528242359 -5.3020456681959471 #
point $-1 -69.847102267525258 -27.328627007933353 -5.3020456681959471 #
straight-curve $-1 -69.847102267525258 0 -10.913644898470775 0 1 0 I I #
face $-1 $610 $559 $18 $-1 $646 reversed single #
loop $-1 $-1 $647 $535 #
plane-surface $-1 0 0 -10.913644898470775 0 0 1 1 0 0 forward_v I I I I #
coedge $-1 $607 $606 $539 $601 forward $536 $-1 #
coedge $-1 $648 $538 $540 $602 forward $472 $-1 #
coedge $-1 $538 $648 $647 $649 reversed $472 $-1 #
coedge $-1 $612 $541 $538 $599 forward $546 $-1 #
edge $-1 $604 1.2481230265292664 $650 6.8597222568040941 $598 $651 forward 7 unknown #
coedge $-1 $540 $539 $621 $652 reversed $396 $-1 #
edge $-1 $653 -69.847102267525258 $603 69.847102267525258 $595 $654 forward 7 unknown #
edge $-1 $604 -69.847102267525258 $655 69.847102267525258 $596 $656 forward 7 unknown #
vertex $-1 $601 $657 #
vertex $-1 $542 $658 #
straight-curve $-1 69.847102267525258 -16.893927384043927 -5.3020456681959471 0 1 0 I I #
coedge $-1 $595 $543 $558 $622 forward $536 $-1 #
coedge $-1 $543 $595 $545 $609 reversed $536 $-1 #
straight-curve $-1 0 -40.247082528242359 10.913644898470775 1 0 0 I I #
edge $-1 $547 -10.913644898470775 $603 5.3020456681959471 $545 $659 forward 7 unknown #
face $-1 $-1 $546 $18 $-1 $660 reversed single #
point $-1 69.847102267525258 -40.247082528242359 10.913644898470775 #
coedge $-1 $550 $598 $661 $662 reversed $546 $-1 #
point $-1 69.847102267525258 40.247082528242359 7.4352083451131392 #
coedge $-1 $661 $663 $554 $615 forward $593 $-1 #
edge $-1 $619 -69.847102267525258 $616 69.847102267525258 $554 $664 forward 7 unknown #
vertex $-1 $662 $665 #
straight-curve $-1 69.847102267525258 40.247082528242359 0 0 0 -1 I I #
coedge $-1 $666 $556 $663 $667 reversed $559 $-1 #
vertex $-1 $615 $668 #
straight-curve $-1 -69.847102267525258 40.247082528242359 0 0 0 -1 I I #
coedge $-1 $558 $666 $600 $652 forward $559 $-1 #
edge $-1 $560 -10.913644898470775 $653 5.3020456681959471 $558 $669 forward 7 unknown #
point $-1 -69.847102267525258 -40.247082528242359 10.913644898470775 #
face $-1 $670 $671 $19 $-1 $672 reversed single #
loop $-1 $-1 $673 $563 #
plane-surface $-1 0 -27.328627007933353 -8.1078452833333614 0 -1 0 0 0 -1 forward_v I I I I #
coedge $-1 $674 $675 $676 $677 reversed $564 $-1 #
coedge $-1 $566 $573 $678 $679 forward $413 $-1 #
coedge $-1 $680 $578 $566 $630 reversed $640 $-1 #
edge $-1 $681 -40.247082528242359 $580 36.768646055602197 $629 $682 forward 7 unknown #
edge $-1 $568 23.716189543233916 $641 38.659338330605536 $570 $683 forward 7 unknown #
point $-1 54.903953480153639 40.247082528242359 7.4352083451131392 #
coedge $-1 $684 $570 $639 $685 forward $491 $-1 #
coedge $-1 $571 $684 $686 $687 reversed $491 $-1 #
coedge $-1 $686 $688 $573 $636 reversed $689 $-1 #
edge $-1 $637 -40.247082528242359 $690 40.247082528242359 $635 $691 forward 7 unknown #
vertex $-1 $574 $692 #
straight-curve $-1 0 40.247082528242359 10.913644898470775 -1 0 0 I I #
coedge $-1 $578 $693 $633 $685 reversed $640 $-1 #
loop $-1 $-1 $578 $694 #
vertex $-1 $685 $695 #
straight-curve $-1 69.847102267525258 3.5851295674465469 44.097162156653368 0 -0.70710677298230462 0.70710678939079052 I I #
point $-1 69.847102267525258 36.768646055602197 10.913644898470778 #
straight-curve $-1 -69.847102267525258 -27.328627007933353 -4.0539226416666807 0 0 1 I I #
point $-1 -69.847102267525258 -27.328627007933353 -10.913644898470775 #
plane-surface $-1 -69.847102267525258 0 0 1 0 0 0 0 -1 forward_v I I I I #
coedge $-1 $663 $661 $597 $649 forward $593 $-1 #
coedge $-1 $597 $596 $666 $696 reversed $472 $-1 #
edge $-1 $650 -69.847102267525258 $697 69.847102267525258 $647 $698 forward 7 unknown #
vertex $-1 $649 $699 #
straight-curve $-1 69.847102267525258 -27.328627007933353 -4.0539226416666807 0 0 -1 I I #
edge $-1 $655 10.434699623889426 $653 23.353155144198432 $621 $700 forward 7 unknown #
vertex $-1 $601 $701 #
straight-curve $-1 0 -40.247082528242359 -5.3020456681959471 1 0 0 I I #
vertex $-1 $652 $702 #
straight-curve $-1 0 -27.328627007933353 -5.3020456681959471 -1 0 0 I I #
point $-1 69.847102267525258 -40.247082528242359 -5.3020456681959471 #
point $-1 69.847102267525258 -27.328627007933353 -5.3020456681959471 #
straight-curve $-1 69.847102267525258 -40.247082528242359 0 0 0 -1 I I #
plane-surface $-1 69.847102267525258 0 0 -1 0 0 0 0 1 forward_v I I I I #
coedge $-1 $647 $614 $612 $662 forward $593 $-1 #
edge $-1 $616 -40.247082528242359 $650 27.328627007933353 $612 $703 forward 7 unknown #
coedge $-1 $614 $647 $618 $667 forward $593 $-1 #
straight-curve $-1 0 40.247082528242359 -10.913644898470775 1 0 0 I I #
point $-1 69.847102267525258 40.247082528242359 -10.913644898470775 #
coedge $-1 $621 $618 $648 $696 forward $559 $-1 #
edge $-1 $697 -27.328627007933353 $619 40.247082528242359 $618 $704 forward 7 unknown #
point $-1 -69.847102267525258 40.247082528242359 -10.913644898470775 #
straight-curve $-1 -69.847102267525258 -40.247082528242359 0 0 0 -1 I I #
face $-1 $705 $706 $19 $-1 $707 reversed single #
loop $-1 $-1 $708 $624 #
plane-surface $-1 0 -40.247082528242359 0 0 1 0 0 0 1 forward_v I I I I #
coedge $-1 $709 $710 $711 $712 reversed $625 $-1 #
coedge $-1 $713 $627 $708 $714 reversed $564 $-1 #
coedge $-1 $627 $713 $709 $715 reversed $564 $-1 #
coedge $-1 $711 $680 $627 $677 forward $640 $-1 #
edge $-1 $716 -23.353155144198432 $717 -10.434699623889426 $676 $718 forward 7 unknown #
coedge $-1 $719 $720 $628 $679 reversed $671 $-1 #
edge $-1 $690 -69.847102267525258 $681 69.847102267525258 $678 $721 forward 7 unknown #
coedge $-1 $676 $629 $720 $722 forward $640 $-1 #
vertex $-1 $630 $723 #
straight-curve $-1 69.847102267525258 0 10.913644898470775 0 1 0 I I #
straight-curve $-1 31.187763936919723 40.247082528242359 7.4352083451131392 1 0 0 I I #
coedge $-1 $634 $633 $724 $725 reversed $491 $-1 #
edge $-1 $641 -7.4352083451131392 $726 10.913644898470775 $639 $727 forward 7 unknown #
coedge $-1 $728 $635 $634 $687 forward $689 $-1 #
edge $-1 $637 -10.913644898470775 $729 10.913644898470775 $634 $730 forward 7 unknown #
coedge $-1 $635 $731 $719 $732 reversed $689 $-1 #
loop $-1 $-1 $731 $705 #
vertex $-1 $636 $733 #
straight-curve $-1 -69.847102267525258 0 10.913644898470775 0 -1 0 I I #
point $-1 -69.847102267525258 40.247082528242359 10.913644898470775 #
coedge $-1 $639 $711 $734 $735 reversed $640 $-1 #
face $-1 $-1 $640 $19 $-1 $736 reversed single #
point $-1 69.847102267525258 40.247082528242359 7.4352083451131392 #
edge $-1 $697 -6.8597222568040941 $655 -1.2481230265292664 $666 $737 forward 7 unknown #
vertex $-1 $667 $738 #
straight-curve $-1 0 -27.328627007933353 -10.913644898470775 -1 0 0 I I #
point $-1 69.847102267525258 -27.328627007933353 -10.913644898470775 #
straight-curve $-1 -69.847102267525258 -16.893927384043927 -5.3020456681959471 0 -1 0 I I #
point $-1 -69.847102267525258 -40.247082528242359 -5.3020456681959471 #
point $-1 -69.847102267525258 -27.328627007933353 -5.3020456681959471 #
straight-curve $-1 69.847102267525258 0 -10.913644898470775 0 -1 0 I I #
straight-curve $-1 -69.847102267525258 0 -10.913644898470775 0 1 0 I I #
face $-1 $694 $689 $19 $-1 $739 reversed single #
loop $-1 $-1 $740 $670 #
plane-surface $-1 0 0 -10.913644898470775 0 0 1 1 0 0 forward_v I I I I #
coedge $-1 $720 $719 $674 $714 forward $671 $-1 #
coedge $-1 $741 $673 $675 $715 forward $625 $-1 #
coedge $-1 $673 $741 $740 $742 reversed $625 $-1 #
coedge $-1 $693 $676 $673 $712 forward $640 $-1 #
edge $-1 $717 1.2481230265292664 $743 6.8597222568040941 $711 $744 forward 7 unknown #
coedge $-1 $675 $674 $731 $745 reversed $564 $-1 #
edge $-1 $746 -69.847102267525258 $716 69.847102267525258 $708 $747 forward 7 unknown #
edge $-1 $717 -69.847102267525258 $748 69.847102267525258 $709 $749 forward 7 unknown #
vertex $-1 $714 $750 #
vertex $-1 $677 $751 #
straight-curve $-1 69.847102267525258 -16.893927384043927 -5.3020456681959471 0 1 0 I I #
coedge $-1 $708 $678 $688 $732 forward $671 $-1 #
coedge $-1 $678 $708 $680 $722 reversed $671 $-1 #
straight-curve $-1 0 -40.247082528242359 10.913644898470775 1 0 0 I I #
edge $-1 $681 -10.913644898470775 $716 5.3020456681959471 $680 $752 forward 7 unknown #
point $-1 69.847102267525258 -40.247082528242359 10.913644898470775 #
coedge $-1 $734 $753 $684 $725 forward $706 $-1 #
edge $-1 $729 -69.847102267525258 $726 69.847102267525258 $684 $754 forward 7 unknown #
vertex $-1 $735 $755 #
straight-curve $-1 69.847102267525258 40.247082528242359 0 0 0 -1 I I #
coedge $-1 $756 $686 $753 $757 reversed $689 $-1 #
vertex $-1 $725 $758 #
straight-curve $-1 -69.847102267525258 40.247082528242359 0 0 0 -1 I I #
coedge $-1 $688 $756 $713 $745 forward $689 $-1 #
edge $-1 $690 -10.913644898470775 $746 5.3020456681959471 $688 $759 forward 7 unknown #
point $-1 -69.847102267525258 -40.247082528242359 10.913644898470775 #
coedge $-1 $740 $724 $693 $735 forward $706 $-1 #
edge $-1 $726 -40.247082528242359 $743 27.328627007933353 $693 $760 forward 7 unknown #
plane-surface $-1 69.847102267525258 0 0 -1 0 0 0 0 1 forward_v I I I I #
straight-curve $-1 -69.847102267525258 -27.328627007933353 -4.0539226416666807 0 0 1 I I #
point $-1 -69.847102267525258 -27.328627007933353 -10.913644898470775 #
plane-surface $-1 -69.847102267525258 0 0 1 0 0 0 0 -1 forward_v I I I I #
coedge $-1 $753 $734 $710 $742 forward $706 $-1 #
coedge $-1 $710 $709 $756 $761 reversed $625 $-1 #
edge $-1 $743 -69.847102267525258 $762 69.847102267525258 $740 $763 forward 7 unknown #
vertex $-1 $742 $764 #
straight-curve $-1 69.847102267525258 -27.328627007933353 -4.0539226416666807 0 0 -1 I I #
edge $-1 $748 10.434699623889426 $746 23.353155144198432 $731 $765 forward 7 unknown #
vertex $-1 $714 $766 #
straight-curve $-1 0 -40.247082528242359 -5.3020456681959471 1 0 0 I I #
vertex $-1 $745 $767 #
straight-curve $-1 0 -27.328627007933353 -5.3020456681959471 -1 0 0 I I #
point $-1 69.847102267525258 -40.247082528242359 -5.3020456681959471 #
point $-1 69.847102267525258 -27.328627007933353 -5.3020456681959471 #
straight-curve $-1 69.847102267525258 -40.247082528242359 0 0 0 -1 I I #
coedge $-1 $724 $740 $728 $757 forward $706 $-1 #
straight-curve $-1 0 40.247082528242359 -10.913644898470775 1 0 0 I I #
point $-1 69.847102267525258 40.247082528242359 -10.913644898470775 #
coedge $-1 $731 $728 $741 $761 forward $689 $-1 #
edge $-1 $762 -27.328627007933353 $729 40.247082528242359 $728 $768 forward 7 unknown #
point $-1 -69.847102267525258 40.247082528242359 -10.913644898470775 #
straight-curve $-1 -69.847102267525258 -40.247082528242359 0 0 0 -1 I I #
straight-curve $-1 69.847102267525258 0 -10.913644898470775 0 -1 0 I I #
edge $-1 $762 -6.8597222568040941 $748 -1.2481230265292664 $756 $769 forward 7 unknown #
vertex $-1 $757 $770 #
straight-curve $-1 0 -27.328627007933353 -10.913644898470775 -1 0 0 I I #
point $-1 69.847102267525258 -27.328627007933353 -10.913644898470775 #
straight-curve $-1 -69.847102267525258 -16.893927384043927 -5.3020456681959471 0 -1 0 I I #
point $-1 -69.847102267525258 -40.247082528242359 -5.3020456681959471 #
point $-1 -69.847102267525258 -27.328627007933353 -5.3020456681959471 #
straight-curve $-1 -69.847102267525258 0 -10.913644898470775 0 1 0 I I #
straight-curve $-1 -69.847102267525258 -27.328627007933353 -4.0539226416666807 0 0 1 I I #
point $-1 -69.847102267525258 -27.328627007933353 -10.913644898470775 #
End-of-ACIS-data 