500 0 14 0           
7 Unknown 11 ACIS 5.0 NT 24 Thu Mar 25 15:07:39 1999 
-1 9.9999999999999995e-007 1e-010 
body $-1 $14 $-1 $15 #
body $-1 $16 $-1 $17 #
body $-1 $18 $-1 $19 #
body $-1 $20 $-1 $21 #
body $-1 $22 $-1 $23 #
body $-1 $24 $-1 $25 #
body $-1 $26 $-1 $27 #
body $-1 $28 $-1 $29 #
body $-1 $30 $-1 $31 #
body $-1 $32 $-1 $33 #
body $-1 $34 $-1 $35 #
body $-1 $36 $-1 $37 #
body $-1 $38 $-1 $39 #
body $-1 $40 $-1 $41 #
lump $-1 $-1 $42 $0 #
transform $-1 1 0 0 0 1 0 0 0 1 47.696768089846493 30.978517384395733 8.295949955636285 1 rotate no_reflect no_shear #
lump $-1 $-1 $43 $1 #
transform $-1 1 0 0 0 1 0 0 0 1 47.696768089846493 30.978517384395733 8.295949955636285 1 rotate no_reflect no_shear #
lump $-1 $-1 $44 $2 #
transform $-1 1 0 0 0 1 0 0 0 1 47.696768089846493 30.978517384395733 8.295949955636285 1 rotate no_reflect no_shear #
lump $-1 $-1 $45 $3 #
transform $-1 1 0 0 0 1 0 0 0 1 47.696768089846493 30.978517384395733 8.295949955636285 1 rotate no_reflect no_shear #
lump $-1 $-1 $46 $4 #
transform $-1 1 0 0 0 1 0 0 0 1 47.696768089846493 30.978517384395733 8.295949955636285 1 rotate no_reflect no_shear #
lump $-1 $-1 $47 $5 #
transform $-1 1 0 0 0 1 0 0 0 1 47.696768089846493 30.978517384395733 8.295949955636285 1 rotate no_reflect no_shear #
lump $-1 $-1 $48 $6 #
transform $-1 1 0 0 0 1 0 0 0 1 47.696768089846493 30.978517384395733 8.295949955636285 1 rotate no_reflect no_shear #
lump $-1 $-1 $49 $7 #
transform $-1 1 0 0 0 1 0 0 0 1 47.696768089846493 30.978517384395733 8.295949955636285 1 rotate no_reflect no_shear #
lump $-1 $-1 $50 $8 #
transform $-1 1 0 0 0 1 0 0 0 1 47.696768089846493 30.978517384395733 8.295949955636285 1 rotate no_reflect no_shear #
lump $-1 $-1 $51 $9 #
transform $-1 1 0 0 0 1 0 0 0 1 47.696768089846493 30.978517384395733 8.295949955636285 1 rotate no_reflect no_shear #
lump $-1 $-1 $52 $10 #
transform $-1 1 0 0 0 1 0 0 0 1 47.696768089846493 30.978517384395733 8.295949955636285 1 rotate no_reflect no_shear #
lump $-1 $-1 $53 $11 #
transform $-1 1 0 0 0 1 0 0 0 1 47.696768089846493 30.978517384395733 8.295949955636285 1 rotate no_reflect no_shear #
lump $-1 $-1 $54 $12 #
transform $-1 1 0 0 0 1 0 0 0 1 47.696768089846493 30.978517384395733 8.295949955636285 1 rotate no_reflect no_shear #
lump $-1 $-1 $55 $13 #
transform $-1 1 0 0 0 1 0 0 0 1 47.696768089846493 30.978517384395733 8.295949955636285 1 rotate no_reflect no_shear #
shell $-1 $-1 $-1 $56 $-1 $14 #
shell $-1 $-1 $-1 $57 $-1 $16 #
shell $-1 $-1 $-1 $58 $-1 $18 #
shell $-1 $-1 $-1 $59 $-1 $20 #
shell $-1 $-1 $-1 $60 $-1 $22 #
shell $-1 $-1 $-1 $61 $-1 $24 #
shell $-1 $-1 $-1 $62 $-1 $26 #
shell $-1 $-1 $-1 $63 $-1 $28 #
shell $-1 $-1 $-1 $64 $-1 $30 #
shell $-1 $-1 $-1 $65 $-1 $32 #
shell $-1 $-1 $-1 $66 $-1 $34 #
shell $-1 $-1 $-1 $67 $-1 $36 #
shell $-1 $-1 $-1 $68 $-1 $38 #
shell $-1 $-1 $-1 $69 $-1 $40 #
face $-1 $70 $71 $42 $-1 $72 forward single #
face $-1 $73 $74 $43 $-1 $75 forward single #
face $-1 $76 $77 $44 $-1 $78 reversed single #
face $-1 $79 $80 $45 $-1 $81 forward single #
face $-1 $82 $83 $46 $-1 $84 forward single #
face $-1 $85 $86 $47 $-1 $87 reversed single #
face $-1 $88 $89 $48 $-1 $90 forward single #
face $-1 $91 $92 $49 $-1 $93 forward single #
face $-1 $94 $95 $50 $-1 $96 reversed single #
face $-1 $97 $98 $51 $-1 $99 forward single #
face $-1 $100 $101 $52 $-1 $102 forward single #
face $-1 $103 $104 $53 $-1 $105 reversed single #
face $-1 $106 $107 $54 $-1 $108 forward single #
face $-1 $109 $110 $55 $-1 $111 forward single #
face $-1 $112 $113 $42 $-1 $114 reversed single #
loop $-1 $-1 $115 $56 #
plane-surface $-1 0 0 8.295949955636285 0 0 1 1 0 0 forward_v I I I I #
face $-1 $116 $117 $43 $-1 $118 reversed single #
loop $-1 $-1 $119 $57 #
plane-surface $-1 -47.696768089846493 0 0 1 0 0 0 0 -1 forward_v I I I I #
face $-1 $120 $121 $44 $-1 $122 reversed single #
loop $-1 $-1 $123 $58 #
plane-surface $-1 -21.749660841265804 30.972020306046975 118.43459638983039 1 0 0 0 -0.54463904215088732 -0.83867056331134215 forward_v I I I I #
face $-1 $124 $125 $45 $-1 $126 forward single #
loop $-1 $127 $128 $59 #
cone-surface $-1 -17.567070881707515 27.822346490903826 5.9103970079753125 0 -0.54463904215088732 -0.83867056331134215 1 0 0 1 I I 0 1 1 forward I I I I #
face $-1 $129 $130 $46 $-1 $131 forward single #
loop $-1 $132 $133 $60 #
cone-surface $-1 -11.293185942370087 27.822346490903826 5.9103970079753125 0 -0.54463904215088732 -0.83867056331134215 1 0 0 1 I I 0 1 1 forward I I I I #
face $-1 $134 $135 $47 $-1 $136 reversed single #
loop $-1 $-1 $137 $61 #
plane-surface $-1 13.659198661803291 30.972020306046975 118.43459638983039 1 0 0 0 -0.54463904215088732 -0.83867056331134215 forward_v I I I I #
face $-1 $138 $139 $48 $-1 $140 forward single #
loop $-1 $141 $142 $62 #
cone-surface $-1 17.841788621361594 27.822346490903826 5.9103970079753125 0 -0.54463904215088732 -0.83867056331134215 1 0 0 1 I I 0 1 1 forward I I I I #
face $-1 $143 $144 $49 $-1 $145 forward single #
loop $-1 $146 $147 $63 #
cone-surface $-1 24.115673560699015 27.822346490903826 5.9103970079753125 0 -0.54463904215088732 -0.83867056331134215 1 0 0 1 I I 0 1 1 forward I I I I #
face $-1 $148 $149 $50 $-1 $150 reversed single #
loop $-1 $-1 $151 $64 #
plane-surface $-1 -7.1105959828118053 -82.933561556689725 84.690376318846589 -1 0 0 0 -0.54463904215088732 0.83867056331134215 forward_v I I I I #
face $-1 $152 $153 $51 $-1 $154 forward single #
loop $-1 $155 $156 $65 #
cone-surface $-1 -17.567070881707515 -27.822346490903829 5.9103970079753143 0 0.54463904215088732 -0.83867056331134215 1 0 0 1 I I 0 1 1 forward I I I I #
face $-1 $157 $158 $52 $-1 $159 forward single #
loop $-1 $160 $161 $66 #
cone-surface $-1 -11.293185942370087 -27.822346490903829 5.9103970079753143 0 0.54463904215088732 -0.83867056331134215 1 0 0 1 I I 0 1 1 forward I I I I #
face $-1 $162 $163 $53 $-1 $164 reversed single #
loop $-1 $-1 $165 $67 #
plane-surface $-1 28.29826352025729 -82.933561556689725 84.690376318846589 -1 0 0 0 -0.54463904215088732 0.83867056331134215 forward_v I I I I #
face $-1 $166 $167 $54 $-1 $168 forward single #
loop $-1 $169 $170 $68 #
cone-surface $-1 17.841788621361594 -27.822346490903829 5.9103970079753143 0 0.54463904215088732 -0.83867056331134215 1 0 0 1 I I 0 1 1 forward I I I I #
face $-1 $171 $172 $55 $-1 $173 forward single #
loop $-1 $174 $175 $69 #
cone-surface $-1 24.115673560699015 -27.822346490903829 5.9103970079753143 0 0.54463904215088732 -0.83867056331134215 1 0 0 1 I I 0 1 1 forward I I I I #
face $-1 $176 $177 $42 $-1 $178 reversed single #
loop $-1 $-1 $179 $70 #
plane-surface $-1 0 0 -8.295949955636285 0 0 1 1 0 0 forward_v I I I I #
coedge $-1 $180 $181 $182 $183 forward $71 $-1 #
face $-1 $184 $185 $43 $-1 $186 reversed single #
loop $-1 $-1 $187 $73 #
plane-surface $-1 0 0 -8.295949955636285 0 0 1 1 0 0 forward_v I I I I #
coedge $-1 $188 $189 $190 $191 forward $74 $-1 #
face $-1 $192 $193 $44 $-1 $194 reversed single #
loop $-1 $-1 $195 $76 #
plane-surface $-1 -14.430128412038805 -20.983023866247027 38.430845665746375 0 0.54463904215088732 0.83867056331134215 1 0 0 forward_v I I I I #
coedge $-1 $196 $197 $198 $199 reversed $77 $-1 #
face $-1 $-1 $200 $45 $-1 $201 forward single #
loop $-1 $202 $203 $79 #
cone-surface $-1 -17.567070881707515 27.172792087747769 4.9101709590955274 0 -0.54463904215088732 -0.83867056331134215 0.5 0 0 1 I I -0.70710678118654746 0.70710678118654746 0.5 forward I I I I #
loop $-1 $-1 $204 $59 #
coedge $-1 $128 $128 $205 $206 reversed $80 $-1 #
face $-1 $-1 $207 $46 $-1 $208 forward single #
loop $-1 $209 $210 $82 #
cone-surface $-1 -11.293185942370087 27.172792087747769 4.9101709590955274 0 -0.54463904215088732 -0.83867056331134215 0.5 0 0 1 I I -0.70710678118654746 0.70710678118654746 0.5 forward I I I I #
loop $-1 $-1 $211 $60 #
coedge $-1 $133 $133 $212 $213 reversed $83 $-1 #
face $-1 $214 $215 $47 $-1 $216 reversed single #
loop $-1 $-1 $217 $85 #
plane-surface $-1 20.978731091030291 -20.983023866247027 38.430845665746375 0 0.54463904215088732 0.83867056331134215 1 0 0 forward_v I I I I #
coedge $-1 $218 $219 $220 $221 reversed $86 $-1 #
face $-1 $-1 $222 $48 $-1 $223 forward single #
loop $-1 $224 $225 $88 #
cone-surface $-1 17.841788621361594 27.172792087747769 4.9101709590955274 0 -0.54463904215088732 -0.83867056331134215 0.5 0 0 1 I I -0.70710678118654746 0.70710678118654746 0.5 forward I I I I #
loop $-1 $-1 $226 $62 #
coedge $-1 $142 $142 $227 $228 reversed $89 $-1 #
face $-1 $-1 $229 $49 $-1 $230 forward single #
loop $-1 $231 $232 $91 #
cone-surface $-1 24.115673560699015 27.172792087747769 4.9101709590955274 0 -0.54463904215088732 -0.83867056331134215 0.5 0 0 1 I I -0.70710678118654746 0.70710678118654746 0.5 forward I I I I #
loop $-1 $-1 $233 $63 #
coedge $-1 $147 $147 $234 $235 reversed $92 $-1 #
face $-1 $236 $237 $50 $-1 $238 reversed single #
loop $-1 $-1 $239 $94 #
plane-surface $-1 -14.430128412038805 -30.978517384395722 4.6866255947625746 0 -0.54463904215088732 0.83867056331134215 1 0 0 forward_v I I I I #
coedge $-1 $240 $241 $242 $243 reversed $95 $-1 #
face $-1 $-1 $244 $51 $-1 $245 forward single #
loop $-1 $246 $247 $97 #
cone-surface $-1 -17.567070881707515 -27.172792087747773 4.9101709590955291 0 0.54463904215088732 -0.83867056331134215 0.5 0 0 1 I I -0.70710678118654746 0.70710678118654746 0.5 forward I I I I #
loop $-1 $-1 $248 $65 #
coedge $-1 $156 $156 $249 $250 reversed $98 $-1 #
face $-1 $-1 $251 $52 $-1 $252 forward single #
loop $-1 $253 $254 $100 #
cone-surface $-1 -11.293185942370087 -27.172792087747773 4.9101709590955291 0 0.54463904215088732 -0.83867056331134215 0.5 0 0 1 I I -0.70710678118654746 0.70710678118654746 0.5 forward I I I I #
loop $-1 $-1 $255 $66 #
coedge $-1 $161 $161 $256 $257 reversed $101 $-1 #
face $-1 $258 $259 $53 $-1 $260 reversed single #
loop $-1 $-1 $261 $103 #
plane-surface $-1 20.978731091030291 -30.978517384395722 4.6866255947625746 0 -0.54463904215088732 0.83867056331134215 1 0 0 forward_v I I I I #
coedge $-1 $262 $263 $264 $265 reversed $104 $-1 #
face $-1 $-1 $266 $54 $-1 $267 forward single #
loop $-1 $268 $269 $106 #
cone-surface $-1 17.841788621361594 -27.172792087747773 4.9101709590955291 0 0.54463904215088732 -0.83867056331134215 0.5 0 0 1 I I -0.70710678118654746 0.70710678118654746 0.5 forward I I I I #
loop $-1 $-1 $270 $68 #
coedge $-1 $170 $170 $271 $272 reversed $107 $-1 #
face $-1 $-1 $273 $55 $-1 $274 forward single #
loop $-1 $275 $276 $109 #
cone-surface $-1 24.115673560699015 -27.172792087747773 4.9101709590955291 0 0.54463904215088732 -0.83867056331134215 0.5 0 0 1 I I -0.70710678118654746 0.70710678118654746 0.5 forward I I I I #
loop $-1 $-1 $277 $69 #
coedge $-1 $175 $175 $278 $279 reversed $110 $-1 #
face $-1 $280 $281 $42 $-1 $282 reversed single #
loop $-1 $-1 $283 $112 #
plane-surface $-1 0 -30.978517384395733 0 0 1 0 0 0 1 forward_v I I I I #
coedge $-1 $284 $285 $286 $287 forward $113 $-1 #
coedge $-1 $288 $115 $289 $290 forward $71 $-1 #
coedge $-1 $115 $288 $291 $292 forward $71 $-1 #
coedge $-1 $293 $294 $115 $183 reversed $295 $-1 #
edge $-1 $296 -30.978517384395733 $297 30.978517384395733 $182 $298 forward 7 unknown #
face $-1 $299 $300 $43 $-1 $301 reversed single #
loop $-1 $-1 $302 $116 #
plane-surface $-1 -50.971069429342251 -17.386617473123163 0 0 1 0 0 0 1 forward_v I I I I #
coedge $-1 $303 $304 $189 $305 forward $117 $-1 #
coedge $-1 $306 $119 $307 $308 reversed $74 $-1 #
coedge $-1 $119 $306 $187 $305 reversed $74 $-1 #
coedge $-1 $309 $310 $119 $191 reversed $311 $-1 #
edge $-1 $312 -8.295949955636285 $313 8.295949955636285 $190 $314 forward 7 unknown #
face $-1 $315 $316 $44 $-1 $317 forward single #
loop $-1 $-1 $318 $120 #
plane-surface $-1 -7.1105959828118053 30.972020306046975 118.43459638983039 -1 0 0 0 0.54463904215088732 0.83867056331134215 forward_v I I I I #
coedge $-1 $319 $320 $321 $322 reversed $121 $-1 #
coedge $-1 $197 $123 $323 $324 reversed $77 $-1 #
coedge $-1 $123 $196 $319 $325 reversed $77 $-1 #
coedge $-1 $321 $326 $123 $199 forward $316 $-1 #
edge $-1 $327 -15.492507231372246 $328 -9.9346352085496452 $198 $329 forward 7 unknown #
loop $-1 $-1 $205 $124 #
plane-surface $-1 -14.430128412038805 -20.983023866247027 38.430845665746375 0 0.54463904215088732 0.83867056331134215 1 0 0 forward_v I I I I #
loop $-1 $-1 $330 $79 #
coedge $-1 $203 $203 $204 $331 reversed $125 $-1 #
coedge $-1 $204 $204 $203 $331 forward $127 $-1 #
coedge $-1 $205 $205 $128 $206 forward $200 $-1 #
edge $-1 $332 7.7136519696136923e-017 $332 6.2831853071796004 $205 $333 forward 7 unknown #
loop $-1 $-1 $212 $129 #
plane-surface $-1 -14.430128412038805 -20.983023866247027 38.430845665746375 0 0.54463904215088732 0.83867056331134215 1 0 0 forward_v I I I I #
loop $-1 $-1 $334 $82 #
coedge $-1 $210 $210 $211 $335 reversed $130 $-1 #
coedge $-1 $211 $211 $210 $335 forward $132 $-1 #
coedge $-1 $212 $212 $133 $213 forward $207 $-1 #
edge $-1 $336 7.7136519696136923e-017 $336 6.2831853071796004 $212 $337 forward 7 unknown #
face $-1 $338 $339 $47 $-1 $340 forward single #
loop $-1 $-1 $341 $134 #
plane-surface $-1 28.29826352025729 30.972020306046975 118.43459638983039 -1 0 0 0 0.54463904215088732 0.83867056331134215 forward_v I I I I #
coedge $-1 $342 $343 $344 $345 reversed $135 $-1 #
coedge $-1 $219 $137 $346 $347 reversed $86 $-1 #
coedge $-1 $137 $218 $342 $348 reversed $86 $-1 #
coedge $-1 $344 $349 $137 $221 forward $339 $-1 #
edge $-1 $350 -15.492507231372246 $351 -9.9346352085496452 $220 $352 forward 7 unknown #
loop $-1 $-1 $227 $138 #
plane-surface $-1 20.978731091030291 -20.983023866247027 38.430845665746375 0 0.54463904215088732 0.83867056331134215 1 0 0 forward_v I I I I #
loop $-1 $-1 $353 $88 #
coedge $-1 $225 $225 $226 $354 reversed $139 $-1 #
coedge $-1 $226 $226 $225 $354 forward $141 $-1 #
coedge $-1 $227 $227 $142 $228 forward $222 $-1 #
edge $-1 $355 7.7136519696136923e-017 $355 6.2831853071796004 $227 $356 forward 7 unknown #
loop $-1 $-1 $234 $143 #
plane-surface $-1 20.978731091030291 -20.983023866247027 38.430845665746375 0 0.54463904215088732 0.83867056331134215 1 0 0 forward_v I I I I #
loop $-1 $-1 $357 $91 #
coedge $-1 $232 $232 $233 $358 reversed $144 $-1 #
coedge $-1 $233 $233 $232 $358 forward $146 $-1 #
coedge $-1 $234 $234 $147 $235 forward $229 $-1 #
edge $-1 $359 7.7136519696136923e-017 $359 6.2831853071796004 $234 $360 forward 7 unknown #
face $-1 $361 $362 $50 $-1 $363 forward single #
loop $-1 $-1 $364 $148 #
plane-surface $-1 -21.749660841265804 -82.933561556689725 84.690376318846589 1 0 0 0 0.54463904215088732 -0.83867056331134215 forward_v I I I I #
coedge $-1 $365 $366 $367 $368 reversed $149 $-1 #
coedge $-1 $241 $151 $369 $370 reversed $95 $-1 #
coedge $-1 $151 $240 $365 $371 reversed $95 $-1 #
coedge $-1 $367 $372 $151 $243 forward $362 $-1 #
edge $-1 $373 10.488263393949129 $374 16.046135416771719 $242 $375 forward 7 unknown #
loop $-1 $-1 $249 $152 #
plane-surface $-1 -14.430128412038805 -30.978517384395722 4.6866255947625746 0 -0.54463904215088732 0.83867056331134215 1 0 0 forward_v I I I I #
loop $-1 $-1 $376 $97 #
coedge $-1 $247 $247 $248 $377 reversed $153 $-1 #
coedge $-1 $248 $248 $247 $377 forward $155 $-1 #
coedge $-1 $249 $249 $156 $250 forward $244 $-1 #
edge $-1 $378 -7.7136519696136923e-017 $378 6.2831853071796004 $249 $379 forward 7 unknown #
loop $-1 $-1 $256 $157 #
plane-surface $-1 -14.430128412038805 -30.978517384395722 4.6866255947625746 0 -0.54463904215088732 0.83867056331134215 1 0 0 forward_v I I I I #
loop $-1 $-1 $380 $100 #
coedge $-1 $254 $254 $255 $381 reversed $158 $-1 #
coedge $-1 $255 $255 $254 $381 forward $160 $-1 #
coedge $-1 $256 $256 $161 $257 forward $251 $-1 #
edge $-1 $382 -7.7136519696136923e-017 $382 6.2831853071796004 $256 $383 forward 7 unknown #
face $-1 $384 $385 $53 $-1 $386 reversed single #
loop $-1 $-1 $387 $162 #
plane-surface $-1 13.659198661803291 -82.933561556689725 84.690376318846589 1 0 0 0 0.54463904215088732 -0.83867056331134215 forward_v I I I I #
coedge $-1 $388 $389 $390 $391 reversed $163 $-1 #
coedge $-1 $263 $165 $392 $393 reversed $104 $-1 #
coedge $-1 $165 $262 $388 $394 reversed $104 $-1 #
coedge $-1 $390 $395 $165 $265 forward $396 $-1 #
edge $-1 $397 10.488263393949129 $398 16.046135416771719 $264 $399 forward 7 unknown #
loop $-1 $-1 $271 $166 #
plane-surface $-1 20.978731091030291 -30.978517384395722 4.6866255947625746 0 -0.54463904215088732 0.83867056331134215 1 0 0 forward_v I I I I #
loop $-1 $-1 $400 $106 #
coedge $-1 $269 $269 $270 $401 reversed $167 $-1 #
coedge $-1 $270 $270 $269 $401 forward $169 $-1 #
coedge $-1 $271 $271 $170 $272 forward $266 $-1 #
edge $-1 $402 -7.7136519696136923e-017 $402 6.2831853071796004 $271 $403 forward 7 unknown #
loop $-1 $-1 $278 $171 #
plane-surface $-1 20.978731091030291 -30.978517384395722 4.6866255947625746 0 -0.54463904215088732 0.83867056331134215 1 0 0 forward_v I I I I #
loop $-1 $-1 $404 $109 #
coedge $-1 $276 $276 $277 $405 reversed $172 $-1 #
coedge $-1 $277 $277 $276 $405 forward $174 $-1 #
coedge $-1 $278 $278 $175 $279 forward $273 $-1 #
edge $-1 $406 -7.7136519696136923e-017 $406 6.2831853071796004 $278 $407 forward 7 unknown #
face $-1 $408 $409 $42 $-1 $410 reversed single #
loop $-1 $-1 $411 $176 #
plane-surface $-1 -47.696768089846493 0 0 1 0 0 0 0 -1 forward_v I I I I #
coedge $-1 $412 $291 $413 $414 forward $177 $-1 #
coedge $-1 $415 $179 $412 $416 forward $113 $-1 #
coedge $-1 $179 $415 $417 $418 forward $113 $-1 #
coedge $-1 $294 $293 $179 $287 reversed $295 $-1 #
edge $-1 $419 -30.978517384395733 $420 30.978517384395733 $286 $421 forward 7 unknown #
coedge $-1 $181 $180 $422 $423 forward $71 $-1 #
coedge $-1 $424 $425 $180 $290 reversed $409 $-1 #
edge $-1 $297 -47.696768089846493 $426 47.696768089846493 $289 $427 forward 7 unknown #
coedge $-1 $283 $428 $181 $292 reversed $177 $-1 #
edge $-1 $429 -47.696768089846493 $296 47.696768089846493 $291 $430 forward 7 unknown #
coedge $-1 $286 $182 $428 $431 forward $295 $-1 #
coedge $-1 $182 $286 $424 $432 reversed $295 $-1 #
loop $-1 $-1 $293 $408 #
vertex $-1 $183 $433 #
vertex $-1 $183 $434 #
straight-curve $-1 47.696768089846493 0 8.295949955636285 0 1 0 I I #
face $-1 $435 $311 $43 $-1 $436 reversed single #
loop $-1 $-1 $437 $184 #
plane-surface $-1 -54.245370768838008 -15.886617473123163 0 1 0 0 0 0 -1 forward_v I I I I #
coedge $-1 $438 $439 $440 $441 forward $185 $-1 #
coedge $-1 $442 $187 $438 $443 forward $117 $-1 #
coedge $-1 $187 $442 $309 $444 forward $117 $-1 #
edge $-1 $312 14.386617473123163 $445 17.386617473123163 $187 $446 forward 7 unknown #
coedge $-1 $189 $188 $447 $448 forward $74 $-1 #
coedge $-1 $449 $450 $188 $308 forward $451 $-1 #
edge $-1 $452 -17.386617473123163 $313 -14.386617473123163 $307 $453 forward 7 unknown #
coedge $-1 $454 $190 $304 $444 reversed $311 $-1 #
coedge $-1 $190 $454 $449 $455 reversed $311 $-1 #
loop $-1 $-1 $190 $299 #
vertex $-1 $305 $456 #
vertex $-1 $455 $457 #
straight-curve $-1 -47.696768089846493 -14.386617473123163 0 0 0 1 I I #
face $-1 $-1 $458 $44 $-1 $459 reversed single #
loop $-1 $-1 $198 $192 #
plane-surface $-1 0 0 8.295949955636285 0 0 1 1 0 0 forward_v I I I I #
coedge $-1 $460 $461 $462 $463 reversed $193 $-1 #
coedge $-1 $464 $195 $197 $325 forward $121 $-1 #
coedge $-1 $195 $464 $460 $465 forward $121 $-1 #
coedge $-1 $462 $198 $195 $322 forward $316 $-1 #
edge $-1 $328 -14.534596635246402 $466 0.10446822320759708 $321 $467 forward 7 unknown #
coedge $-1 $468 $469 $196 $324 forward $458 $-1 #
edge $-1 $470 -54.530672600152634 $327 -50.921348239278913 $323 $471 forward 7 unknown #
edge $-1 $328 55.330032145880367 $470 61.95703476879148 $197 $472 forward 7 unknown #
coedge $-1 $198 $462 $468 $473 forward $316 $-1 #
vertex $-1 $324 $474 #
vertex $-1 $199 $475 #
straight-curve $-1 -21.749660841265804 15.486010153023487 8.2959499556362886 0 -1 0 I I #
coedge $-1 $330 $330 $-1 $476 reversed $202 $-1 #
edge $-1 $477 0 $477 6.2831853071796004 $203 $478 forward 7 unknown #
vertex $-1 $206 $479 #
ellipse-curve $-1 -17.567070881707515 28.199581372984436 6.4912877751994227 0 0.54463904215088732 0.83867056331134215 1 0 0 1 I I #
coedge $-1 $334 $334 $-1 $480 reversed $209 $-1 #
edge $-1 $481 0 $481 6.2831853071796004 $210 $482 forward 7 unknown #
vertex $-1 $213 $483 #
ellipse-curve $-1 -11.293185942370087 28.199581372984436 6.4912877751994227 0 0.54463904215088732 0.83867056331134215 1 0 0 1 I I #
face $-1 $-1 $484 $47 $-1 $485 reversed single #
loop $-1 $-1 $220 $214 #
plane-surface $-1 0 0 8.295949955636285 0 0 1 1 0 0 forward_v I I I I #
coedge $-1 $486 $487 $488 $489 reversed $215 $-1 #
coedge $-1 $490 $217 $219 $348 forward $135 $-1 #
coedge $-1 $217 $490 $486 $491 forward $135 $-1 #
coedge $-1 $488 $220 $217 $345 forward $339 $-1 #
edge $-1 $351 3.1698331162881459 $492 17.808897974742145 $344 $493 forward 7 unknown #
coedge $-1 $494 $495 $218 $347 forward $484 $-1 #
edge $-1 $496 -54.530672600152634 $350 -50.921348239278913 $346 $497 forward 7 unknown #
edge $-1 $351 55.330032145880367 $496 61.95703476879148 $219 $498 forward 7 unknown #
coedge $-1 $220 $488 $494 $499 forward $339 $-1 #
vertex $-1 $221 $500 #
vertex $-1 $221 $501 #
straight-curve $-1 13.659198661803291 15.486010153023487 8.2959499556362886 0 -1 0 I I #
coedge $-1 $353 $353 $-1 $502 reversed $224 $-1 #
edge $-1 $503 0 $503 6.2831853071796004 $225 $504 forward 7 unknown #
vertex $-1 $228 $505 #
ellipse-curve $-1 17.841788621361594 28.199581372984436 6.4912877751994227 0 0.54463904215088732 0.83867056331134215 1 0 0 1 I I #
coedge $-1 $357 $357 $-1 $506 reversed $231 $-1 #
edge $-1 $507 0 $507 6.2831853071796004 $232 $508 forward 7 unknown #
vertex $-1 $235 $509 #
ellipse-curve $-1 24.115673560699015 28.199581372984436 6.4912877751994227 0 0.54463904215088732 0.83867056331134215 1 0 0 1 I I #
face $-1 $-1 $510 $50 $-1 $511 reversed single #
loop $-1 $-1 $242 $236 #
plane-surface $-1 0 0 8.295949955636285 0 0 1 1 0 0 forward_v I I I I #
coedge $-1 $512 $513 $514 $515 reversed $237 $-1 #
coedge $-1 $516 $239 $241 $371 forward $149 $-1 #
coedge $-1 $239 $516 $512 $517 forward $149 $-1 #
coedge $-1 $514 $242 $239 $368 forward $362 $-1 #
edge $-1 $374 -0.10446822320759708 $518 14.534596635246402 $367 $519 forward 7 unknown #
coedge $-1 $520 $521 $240 $370 forward $510 $-1 #
edge $-1 $522 -37.658562564660727 $373 -34.049238203787013 $369 $523 forward 7 unknown #
edge $-1 $374 -6.6270026229110828 $522 1.2808562296967101e-014 $241 $524 forward 7 unknown #
coedge $-1 $242 $514 $520 $525 forward $362 $-1 #
vertex $-1 $243 $526 #
vertex $-1 $243 $527 #
straight-curve $-1 -7.1105959828118053 -41.466780778344862 8.2959499556362886 0 1 0 I I #
coedge $-1 $376 $376 $-1 $528 reversed $246 $-1 #
edge $-1 $529 0 $529 6.2831853071796004 $247 $530 forward 7 unknown #
vertex $-1 $250 $531 #
ellipse-curve $-1 -17.567070881707515 -28.19958137298444 6.4912877751994245 0 -0.54463904215088732 0.83867056331134215 1 0 0 1 I I #
coedge $-1 $380 $380 $-1 $532 reversed $253 $-1 #
edge $-1 $533 0 $533 6.2831853071796004 $254 $534 forward 7 unknown #
vertex $-1 $257 $535 #
ellipse-curve $-1 -11.293185942370087 -28.19958137298444 6.4912877751994245 0 -0.54463904215088732 0.83867056331134215 1 0 0 1 I I #
face $-1 $-1 $396 $53 $-1 $536 forward single #
loop $-1 $-1 $537 $258 #
plane-surface $-1 0 -30.978517384395733 0 0 1 0 0 0 1 forward_v I I I I #
coedge $-1 $538 $539 $540 $541 reversed $259 $-1 #
coedge $-1 $542 $261 $263 $394 forward $163 $-1 #
coedge $-1 $261 $542 $538 $543 forward $163 $-1 #
coedge $-1 $540 $264 $261 $391 forward $396 $-1 #
edge $-1 $398 -17.808897974742145 $544 -3.1698331162881459 $390 $545 forward 7 unknown #
coedge $-1 $546 $547 $262 $393 forward $385 $-1 #
edge $-1 $548 -37.658562564660727 $397 -34.049238203787013 $392 $549 forward 7 unknown #
edge $-1 $398 -6.6270026229110828 $548 1.2808562296967101e-014 $263 $550 forward 7 unknown #
coedge $-1 $264 $540 $546 $551 forward $396 $-1 #
loop $-1 $-1 $540 $384 #
vertex $-1 $393 $552 #
vertex $-1 $265 $553 #
straight-curve $-1 28.29826352025729 -41.466780778344862 8.2959499556362886 0 1 0 I I #
coedge $-1 $400 $400 $-1 $554 reversed $268 $-1 #
edge $-1 $555 0 $555 6.2831853071796004 $269 $556 forward 7 unknown #
vertex $-1 $272 $557 #
ellipse-curve $-1 17.841788621361594 -28.19958137298444 6.4912877751994245 0 -0.54463904215088732 0.83867056331134215 1 0 0 1 I I #
coedge $-1 $404 $404 $-1 $558 reversed $275 $-1 #
edge $-1 $559 0 $559 6.2831853071796004 $276 $560 forward 7 unknown #
vertex $-1 $279 $561 #
ellipse-curve $-1 24.115673560699015 -28.19958137298444 6.4912877751994245 0 -0.54463904215088732 0.83867056331134215 1 0 0 1 I I #
face $-1 $-1 $295 $42 $-1 $562 reversed single #
loop $-1 $-1 $424 $280 #
plane-surface $-1 0 30.978517384395733 0 0 -1 0 0 0 -1 forward_v I I I I #
coedge $-1 $563 $422 $425 $564 forward $281 $-1 #
coedge $-1 $428 $283 $284 $416 reversed $177 $-1 #
coedge $-1 $422 $563 $283 $414 reversed $281 $-1 #
edge $-1 $429 -8.295949955636285 $565 8.295949955636285 $413 $566 forward 7 unknown #
coedge $-1 $285 $284 $563 $567 forward $113 $-1 #
edge $-1 $420 -47.696768089846493 $565 47.696768089846493 $412 $568 forward 7 unknown #
coedge $-1 $425 $424 $285 $418 reversed $409 $-1 #
edge $-1 $569 -47.696768089846493 $419 47.696768089846493 $417 $570 forward 7 unknown #
vertex $-1 $287 $571 #
vertex $-1 $431 $572 #
straight-curve $-1 47.696768089846493 0 -8.295949955636285 0 -1 0 I I #
coedge $-1 $411 $413 $288 $423 reversed $281 $-1 #
edge $-1 $426 -30.978517384395733 $429 30.978517384395733 $422 $573 forward 7 unknown #
coedge $-1 $417 $289 $294 $432 forward $409 $-1 #
coedge $-1 $289 $417 $411 $564 reversed $409 $-1 #
vertex $-1 $290 $574 #
straight-curve $-1 0 30.978517384395733 8.295949955636285 -1 0 0 I I #
coedge $-1 $291 $412 $293 $431 reversed $177 $-1 #
vertex $-1 $423 $575 #
straight-curve $-1 0 -30.978517384395733 8.295949955636285 1 0 0 I I #
edge $-1 $296 -8.295949955636285 $420 8.295949955636285 $293 $576 forward 7 unknown #
edge $-1 $297 -8.295949955636285 $419 8.295949955636285 $294 $577 forward 7 unknown #
point $-1 47.696768089846493 -30.978517384395733 8.295949955636285 #
point $-1 47.696768089846493 30.978517384395733 8.295949955636285 #
face $-1 $-1 $451 $43 $-1 $578 forward single #
plane-surface $-1 -50.971069429342251 -14.386617473123163 0 0 -1 0 0 0 -1 forward_v I I I I #
coedge $-1 $579 $580 $454 $581 forward $300 $-1 #
coedge $-1 $447 $302 $303 $443 reversed $185 $-1 #
coedge $-1 $302 $447 $450 $582 reversed $185 $-1 #
coedge $-1 $580 $579 $302 $441 reversed $300 $-1 #
edge $-1 $583 -8.295949955636285 $584 8.295949955636285 $440 $585 forward 7 unknown #
coedge $-1 $304 $303 $579 $586 forward $117 $-1 #
edge $-1 $445 -3.2743013394957572 $584 3.2743013394957572 $438 $587 forward 7 unknown #
edge $-1 $588 -3.2743013394957572 $312 3.2743013394957572 $309 $589 forward 7 unknown #
vertex $-1 $443 $590 #
straight-curve $-1 -47.696768089846493 0 -8.295949955636285 0 -1 0 I I #
coedge $-1 $439 $438 $306 $448 reversed $185 $-1 #
edge $-1 $452 -8.295949955636285 $445 8.295949955636285 $447 $591 forward 7 unknown #
coedge $-1 $592 $307 $310 $455 forward $451 $-1 #
coedge $-1 $307 $592 $439 $582 forward $451 $-1 #
loop $-1 $-1 $307 $435 #
vertex $-1 $308 $593 #
straight-curve $-1 -47.696768089846493 0 8.295949955636285 0 1 0 I I #
coedge $-1 $310 $309 $437 $581 reversed $311 $-1 #
edge $-1 $313 -3.2743013394957572 $594 3.2743013394957572 $310 $595 forward 7 unknown #
point $-1 -47.696768089846493 -14.386617473123163 -8.295949955636285 #
point $-1 -47.696768089846493 -14.386617473123163 8.295949955636285 #
loop $-1 $-1 $323 $315 #
plane-surface $-1 0 30.978517384395733 0 0 -1 0 0 0 -1 forward_v I I I I #
coedge $-1 $461 $318 $320 $465 reversed $193 $-1 #
coedge $-1 $318 $460 $596 $597 reversed $193 $-1 #
coedge $-1 $326 $321 $318 $463 forward $316 $-1 #
edge $-1 $466 9.9346352085496452 $598 15.492507231372246 $462 $599 forward 7 unknown #
coedge $-1 $320 $319 $469 $600 reversed $121 $-1 #
edge $-1 $601 -61.95703476879148 $466 -55.330032145880367 $460 $602 forward 7 unknown #
vertex $-1 $322 $603 #
straight-curve $-1 -7.2150642060194023 25.42064536157314 8.295949955636285 1 0 0 I I #
coedge $-1 $596 $323 $326 $473 reversed $458 $-1 #
coedge $-1 $323 $596 $464 $600 forward $458 $-1 #
vertex $-1 $324 $604 #
straight-curve $-1 -21.749660841265804 30.978517384395733 59.217298194915195 0 0 1 I I #
straight-curve $-1 -21.749660841265804 -20.983023866247027 38.430845665746375 0 0.83867056331134215 -0.54463904215088732 I I #
edge $-1 $598 7.1105959828118053 $327 21.749660841265804 $468 $605 forward 7 unknown #
point $-1 -21.749660841265804 30.978517384395733 8.295949955636285 #
point $-1 -21.749660841265804 25.420645361573133 8.295949955636285 #
edge $-1 $606 1 $606 0 $330 $-1 forward 7 unknown #
vertex $-1 $331 $607 #
ellipse-curve $-1 -17.567070881707515 27.445111608823211 5.3295062407511988 0 0.54463904215088732 0.83867056331134215 1 0 0 1 I I #
point $-1 -16.567070881707515 28.19958137298444 6.491287775199428 #
edge $-1 $608 1 $608 0 $334 $-1 forward 7 unknown #
vertex $-1 $335 $609 #
ellipse-curve $-1 -11.293185942370087 27.445111608823211 5.3295062407511988 0 0.54463904215088732 0.83867056331134215 1 0 0 1 I I #
point $-1 -10.293185942370087 28.19958137298444 6.491287775199428 #
loop $-1 $-1 $346 $338 #
plane-surface $-1 0 30.978517384395733 0 0 -1 0 0 0 -1 forward_v I I I I #
coedge $-1 $487 $341 $343 $491 reversed $215 $-1 #
coedge $-1 $341 $486 $610 $611 reversed $215 $-1 #
coedge $-1 $349 $344 $341 $489 forward $339 $-1 #
edge $-1 $492 9.9346352085496452 $612 15.492507231372246 $488 $613 forward 7 unknown #
coedge $-1 $343 $342 $495 $614 reversed $135 $-1 #
edge $-1 $615 -61.95703476879148 $492 -55.330032145880367 $486 $616 forward 7 unknown #
vertex $-1 $345 $617 #
straight-curve $-1 10.489365545515145 25.42064536157314 8.295949955636285 1 0 0 I I #
coedge $-1 $610 $346 $349 $499 reversed $484 $-1 #
coedge $-1 $346 $610 $490 $614 forward $484 $-1 #
vertex $-1 $347 $618 #
straight-curve $-1 13.659198661803291 30.978517384395733 59.217298194915195 0 0 1 I I #
straight-curve $-1 13.659198661803291 -20.983023866247027 38.430845665746375 0 0.83867056331134215 -0.54463904215088732 I I #
edge $-1 $612 -28.29826352025729 $350 -13.659198661803291 $494 $619 forward 7 unknown #
point $-1 13.659198661803291 30.978517384395733 8.295949955636285 #
point $-1 13.659198661803291 25.420645361573133 8.295949955636285 #
edge $-1 $620 1 $620 0 $353 $-1 forward 7 unknown #
vertex $-1 $354 $621 #
ellipse-curve $-1 17.841788621361594 27.445111608823211 5.3295062407511988 0 0.54463904215088732 0.83867056331134215 1 0 0 1 I I #
point $-1 18.841788621361594 28.19958137298444 6.491287775199428 #
edge $-1 $622 1 $622 0 $357 $-1 forward 7 unknown #
vertex $-1 $358 $623 #
ellipse-curve $-1 24.115673560699015 27.445111608823211 5.3295062407511988 0 0.54463904215088732 0.83867056331134215 1 0 0 1 I I #
point $-1 25.115673560699015 28.19958137298444 6.491287775199428 #
loop $-1 $-1 $369 $361 #
plane-surface $-1 0 -30.978517384395733 0 0 1 0 0 0 1 forward_v I I I I #
coedge $-1 $513 $364 $366 $517 reversed $237 $-1 #
coedge $-1 $364 $512 $624 $625 reversed $237 $-1 #
coedge $-1 $372 $367 $364 $515 forward $362 $-1 #
edge $-1 $518 -16.046135416771719 $626 -10.488263393949129 $514 $627 forward 7 unknown #
coedge $-1 $366 $365 $521 $628 reversed $149 $-1 #
edge $-1 $629 -1.2808562296967101e-014 $518 6.6270026229110828 $512 $630 forward 7 unknown #
vertex $-1 $368 $631 #
straight-curve $-1 -7.2150642060194023 -25.420645361573143 8.295949955636285 -1 0 0 I I #
coedge $-1 $624 $369 $372 $525 reversed $510 $-1 #
coedge $-1 $369 $624 $516 $628 forward $510 $-1 #
vertex $-1 $370 $632 #
straight-curve $-1 -7.1105959828118053 -30.978517384395733 42.345188159423294 0 0 1 I I #
straight-curve $-1 -7.1105959828118053 -30.978517384395722 4.6866255947625746 0 -0.83867056331134215 -0.54463904215088732 I I #
edge $-1 $626 -21.749660841265804 $373 -7.1105959828118053 $520 $633 forward 7 unknown #
point $-1 -7.1105959828118053 -30.978517384395733 8.295949955636285 #
point $-1 -7.1105959828118053 -25.420645361573143 8.295949955636285 #
edge $-1 $634 1 $634 0 $376 $-1 forward 7 unknown #
vertex $-1 $377 $635 #
ellipse-curve $-1 -17.567070881707515 -27.445111608823218 5.3295062407512006 0 -0.54463904215088732 0.83867056331134215 1 0 0 1 I I #
point $-1 -16.567070881707515 -28.199581372984444 6.4912877751994298 #
edge $-1 $636 1 $636 0 $380 $-1 forward 7 unknown #
vertex $-1 $381 $637 #
ellipse-curve $-1 -11.293185942370087 -27.445111608823218 5.3295062407512006 0 -0.54463904215088732 0.83867056331134215 1 0 0 1 I I #
point $-1 -10.293185942370087 -28.199581372984444 6.4912877751994298 #
plane-surface $-1 0 0 8.295949955636285 0 0 1 1 0 0 forward_v I I I I #
coedge $-1 $547 $546 $539 $638 forward $385 $-1 #
coedge $-1 $539 $387 $389 $543 reversed $259 $-1 #
coedge $-1 $387 $538 $537 $638 reversed $259 $-1 #
coedge $-1 $395 $390 $387 $541 forward $396 $-1 #
edge $-1 $544 -16.046135416771719 $639 -10.488263393949129 $540 $640 forward 7 unknown #
coedge $-1 $389 $388 $547 $641 reversed $163 $-1 #
edge $-1 $642 -1.2808562296967101e-014 $544 6.6270026229110828 $538 $643 forward 7 unknown #
vertex $-1 $391 $644 #
straight-curve $-1 10.489365545515145 -25.420645361573143 8.295949955636285 -1 0 0 I I #
coedge $-1 $537 $392 $395 $551 reversed $385 $-1 #
coedge $-1 $392 $537 $542 $641 forward $385 $-1 #
vertex $-1 $393 $645 #
straight-curve $-1 28.29826352025729 -30.978517384395733 42.345188159423294 0 0 1 I I #
straight-curve $-1 28.29826352025729 -30.978517384395722 4.6866255947625746 0 -0.83867056331134215 -0.54463904215088732 I I #
edge $-1 $639 13.659198661803291 $397 28.29826352025729 $546 $646 forward 7 unknown #
point $-1 28.29826352025729 -30.978517384395733 8.295949955636285 #
point $-1 28.29826352025729 -25.420645361573143 8.295949955636285 #
edge $-1 $647 1 $647 0 $400 $-1 forward 7 unknown #
vertex $-1 $401 $648 #
ellipse-curve $-1 17.841788621361594 -27.445111608823218 5.3295062407512006 0 -0.54463904215088732 0.83867056331134215 1 0 0 1 I I #
point $-1 18.841788621361594 -28.199581372984444 6.4912877751994298 #
edge $-1 $649 1 $649 0 $404 $-1 forward 7 unknown #
vertex $-1 $405 $650 #
ellipse-curve $-1 24.115673560699015 -27.445111608823218 5.3295062407512006 0 -0.54463904215088732 0.83867056331134215 1 0 0 1 I I #
point $-1 25.115673560699015 -28.199581372984444 6.4912877751994298 #
plane-surface $-1 47.696768089846493 0 0 -1 0 0 0 0 1 forward_v I I I I #
coedge $-1 $413 $411 $415 $567 reversed $281 $-1 #
edge $-1 $426 -8.295949955636285 $569 8.295949955636285 $425 $651 forward 7 unknown #
vertex $-1 $567 $652 #
straight-curve $-1 -47.696768089846493 -30.978517384395733 0 0 0 -1 I I #
edge $-1 $565 -30.978517384395733 $569 30.978517384395733 $563 $653 forward 7 unknown #
straight-curve $-1 0 -30.978517384395733 -8.295949955636285 -1 0 0 I I #
vertex $-1 $418 $654 #
straight-curve $-1 0 30.978517384395733 -8.295949955636285 1 0 0 I I #
point $-1 47.696768089846493 30.978517384395733 -8.295949955636285 #
point $-1 47.696768089846493 -30.978517384395733 -8.295949955636285 #
straight-curve $-1 -47.696768089846493 0 8.295949955636285 0 -1 0 I I #
point $-1 -47.696768089846493 30.978517384395733 8.295949955636285 #
point $-1 -47.696768089846493 -30.978517384395733 8.295949955636285 #
straight-curve $-1 47.696768089846493 -30.978517384395733 0 0 0 -1 I I #
straight-curve $-1 47.696768089846493 30.978517384395733 0 0 0 -1 I I #
plane-surface $-1 0 0 8.295949955636285 0 0 1 1 0 0 forward_v I I I I #
coedge $-1 $440 $437 $442 $586 reversed $300 $-1 #
coedge $-1 $437 $440 $592 $655 reversed $300 $-1 #
edge $-1 $594 -8.295949955636285 $588 8.295949955636285 $454 $656 forward 7 unknown #
edge $-1 $583 -3.2743013394957572 $452 3.2743013394957572 $439 $657 forward 7 unknown #
vertex $-1 $655 $658 #
vertex $-1 $586 $659 #
straight-curve $-1 -54.245370768838008 -17.386617473123163 0 0 0 -1 I I #
edge $-1 $584 -1.5 $588 1.5 $579 $660 forward 7 unknown #
straight-curve $-1 -50.971069429342251 -17.386617473123163 -8.295949955636285 -1 0 0 I I #
vertex $-1 $444 $661 #
straight-curve $-1 -50.971069429342251 -14.386617473123163 -8.295949955636285 1 0 0 I I #
point $-1 -47.696768089846493 -17.386617473123163 -8.295949955636285 #
straight-curve $-1 -47.696768089846493 -17.386617473123163 0 0 0 -1 I I #
coedge $-1 $450 $449 $580 $655 forward $451 $-1 #
point $-1 -47.696768089846493 -17.386617473123163 8.295949955636285 #
vertex $-1 $455 $662 #
straight-curve $-1 -50.971069429342251 -14.386617473123163 8.295949955636285 -1 0 0 I I #
coedge $-1 $469 $468 $461 $597 forward $458 $-1 #
edge $-1 $598 50.921348239278913 $601 54.530672600152634 $596 $663 forward 7 unknown #
vertex $-1 $473 $664 #
straight-curve $-1 -7.1105959828118053 15.486010153023487 8.2959499556362886 0 1 0 I I #
edge $-1 $601 -0.10446822320759708 $470 14.534596635246402 $469 $665 forward 7 unknown #
vertex $-1 $600 $666 #
straight-curve $-1 -7.1105959828118053 -20.983023866247027 38.430845665746375 0 -0.83867056331134215 0.54463904215088732 I I #
point $-1 -7.1105959828118053 25.420645361573133 8.295949955636285 #
point $-1 -21.749660841265804 30.978517384395733 4.6866255947625604 #
straight-curve $-1 0 30.978517384395733 8.295949955636285 -1 0 0 I I #
vertex $-1 $476 $667 #
point $-1 -16.567070881707515 27.445111608823211 5.3295062407511988 #
vertex $-1 $480 $668 #
point $-1 -10.293185942370087 27.445111608823211 5.3295062407511988 #
coedge $-1 $495 $494 $487 $611 forward $484 $-1 #
edge $-1 $612 50.921348239278913 $615 54.530672600152634 $610 $669 forward 7 unknown #
vertex $-1 $499 $670 #
straight-curve $-1 28.29826352025729 15.486010153023487 8.2959499556362886 0 1 0 I I #
edge $-1 $615 -17.808897974742145 $496 -3.1698331162881459 $495 $671 forward 7 unknown #
vertex $-1 $614 $672 #
straight-curve $-1 28.29826352025729 -20.983023866247027 38.430845665746375 0 -0.83867056331134215 0.54463904215088732 I I #
point $-1 28.29826352025729 25.420645361573133 8.295949955636285 #
point $-1 13.659198661803291 30.978517384395733 4.6866255947625604 #
straight-curve $-1 0 30.978517384395733 8.295949955636285 -1 0 0 I I #
vertex $-1 $502 $673 #
point $-1 18.841788621361594 27.445111608823211 5.3295062407511988 #
vertex $-1 $506 $674 #
point $-1 25.115673560699015 27.445111608823211 5.3295062407511988 #
coedge $-1 $521 $520 $513 $625 forward $510 $-1 #
edge $-1 $626 34.049238203787013 $629 37.658562564660727 $624 $675 forward 7 unknown #
vertex $-1 $525 $676 #
straight-curve $-1 -21.749660841265804 -41.466780778344862 8.2959499556362886 0 -1 0 I I #
edge $-1 $629 -14.534596635246402 $522 0.10446822320759708 $521 $677 forward 7 unknown #
vertex $-1 $628 $678 #
straight-curve $-1 -21.749660841265804 -30.978517384395722 4.6866255947625746 0 0.83867056331134215 0.54463904215088732 I I #
point $-1 -21.749660841265804 -25.420645361573143 8.295949955636285 #
point $-1 -7.1105959828118053 -30.978517384395733 4.6866255947625675 #
straight-curve $-1 0 -30.978517384395733 8.295949955636285 1 0 0 I I #
vertex $-1 $528 $679 #
point $-1 -16.567070881707515 -27.445111608823218 5.3295062407512006 #
vertex $-1 $532 $680 #
point $-1 -10.293185942370087 -27.445111608823218 5.3295062407512006 #
edge $-1 $639 34.049238203787013 $642 37.658562564660727 $537 $681 forward 7 unknown #
vertex $-1 $551 $682 #
straight-curve $-1 13.659198661803291 -41.466780778344862 8.2959499556362886 0 -1 0 I I #
edge $-1 $642 3.1698331162881459 $548 17.808897974742145 $547 $683 forward 7 unknown #
vertex $-1 $641 $684 #
straight-curve $-1 13.659198661803291 -30.978517384395722 4.6866255947625746 0 0.83867056331134215 0.54463904215088732 I I #
point $-1 13.659198661803291 -25.420645361573143 8.295949955636285 #
point $-1 28.29826352025729 -30.978517384395733 4.6866255947625675 #
straight-curve $-1 0 -30.978517384395733 8.295949955636285 1 0 0 I I #
vertex $-1 $554 $685 #
point $-1 18.841788621361594 -27.445111608823218 5.3295062407512006 #
vertex $-1 $558 $686 #
point $-1 25.115673560699015 -27.445111608823218 5.3295062407512006 #
straight-curve $-1 -47.696768089846493 30.978517384395733 0 0 0 -1 I I #
point $-1 -47.696768089846493 -30.978517384395733 -8.295949955636285 #
straight-curve $-1 -47.696768089846493 0 -8.295949955636285 0 1 0 I I #
point $-1 -47.696768089846493 30.978517384395733 -8.295949955636285 #
edge $-1 $594 -1.5 $583 1.5 $580 $687 forward 7 unknown #
straight-curve $-1 -54.245370768838008 -14.386617473123163 0 0 0 -1 I I #
straight-curve $-1 -50.971069429342251 -17.386617473123163 8.295949955636285 1 0 0 I I #
point $-1 -54.245370768838008 -17.386617473123163 8.295949955636285 #
point $-1 -54.245370768838008 -17.386617473123163 -8.295949955636285 #
straight-curve $-1 -54.245370768838008 -15.886617473123163 -8.295949955636285 0 1 0 I I #
point $-1 -54.245370768838008 -14.386617473123163 -8.295949955636285 #
point $-1 -54.245370768838008 -14.386617473123163 8.295949955636285 #
straight-curve $-1 -7.1105959828118053 30.978517384395733 59.217298194915195 0 0 -1 I I #
point $-1 -7.1105959828118053 30.978517384395733 8.295949955636285 #
straight-curve $-1 -7.2150642060194023 30.978517384395737 4.6866255947625639 -1 0 0 I I #
point $-1 -7.1105959828118053 30.978517384395733 4.6866255947625604 #
point $-1 -17.567070881707515 26.900472566672327 4.4908356774398559 #
point $-1 -11.293185942370087 26.900472566672327 4.4908356774398559 #
straight-curve $-1 28.29826352025729 30.978517384395733 59.217298194915195 0 0 -1 I I #
point $-1 28.29826352025729 30.978517384395733 8.295949955636285 #
straight-curve $-1 10.489365545515145 30.978517384395737 4.6866255947625639 -1 0 0 I I #
point $-1 28.29826352025729 30.978517384395733 4.6866255947625604 #
point $-1 17.841788621361594 26.900472566672327 4.4908356774398559 #
point $-1 24.115673560699015 26.900472566672327 4.4908356774398559 #
straight-curve $-1 -21.749660841265804 -30.978517384395733 42.345188159423294 0 0 -1 I I #
point $-1 -21.749660841265804 -30.978517384395733 8.295949955636285 #
straight-curve $-1 -7.2150642060194023 -30.978517384395733 4.6866255947625692 1 0 0 I I #
point $-1 -21.749660841265804 -30.978517384395733 4.6866255947625675 #
point $-1 -17.567070881707515 -26.900472566672327 4.4908356774398577 #
point $-1 -11.293185942370087 -26.900472566672327 4.4908356774398577 #
straight-curve $-1 13.659198661803291 -30.978517384395733 42.345188159423294 0 0 -1 I I #
point $-1 13.659198661803291 -30.978517384395733 8.295949955636285 #
straight-curve $-1 10.489365545515145 -30.978517384395733 4.6866255947625692 1 0 0 I I #
point $-1 13.659198661803291 -30.978517384395733 4.6866255947625675 #
point $-1 17.841788621361594 -26.900472566672327 4.4908356774398577 #
point $-1 24.115673560699015 -26.900472566672327 4.4908356774398577 #
straight-curve $-1 -54.245370768838008 -15.886617473123163 8.295949955636285 0 -1 0 I I #
End-of-ACIS-data 