500 0 9 0           
7 Unknown 11 ACIS 5.0 NT 24 Thu Mar 25 18:33:14 1999 
-1 9.9999999999999995e-007 1e-010 
body $-1 $9 $-1 $10 #
body $-1 $11 $-1 $12 #
body $-1 $13 $-1 $14 #
body $-1 $15 $-1 $16 #
body $-1 $17 $-1 $18 #
body $-1 $19 $-1 $20 #
body $-1 $21 $-1 $22 #
body $-1 $23 $-1 $24 #
body $-1 $25 $-1 $26 #
lump $-1 $-1 $27 $0 #
transform $-1 1 0 0 0 1 0 0 0 1 43.125095370342109 24.469579474898882 11.734301070068319 1 rotate no_reflect no_shear #
lump $-1 $-1 $28 $1 #
transform $-1 1 0 0 0 1 0 0 0 1 43.125095370342109 24.469579474898882 11.734301070068319 1 rotate no_reflect no_shear #
lump $-1 $-1 $29 $2 #
transform $-1 1 0 0 0 1 0 0 0 1 43.125095370342109 24.469579474898882 11.734301070068319 1 rotate no_reflect no_shear #
lump $-1 $-1 $30 $3 #
transform $-1 1 0 0 0 1 0 0 0 1 43.125095370342109 24.469579474898882 11.734301070068319 1 rotate no_reflect no_shear #
lump $-1 $-1 $31 $4 #
transform $-1 1 0 0 0 1 0 0 0 1 43.125095370342109 24.469579474898882 11.734301070068319 1 rotate no_reflect no_shear #
lump $-1 $-1 $32 $5 #
transform $-1 1 0 0 0 1 0 0 0 1 43.125095370342109 24.469579474898882 11.734301070068319 1 rotate no_reflect no_shear #
lump $-1 $-1 $33 $6 #
transform $-1 1 0 0 0 1 0 0 0 1 43.125095370342109 24.469579474898882 11.734301070068319 1 rotate no_reflect no_shear #
lump $-1 $-1 $34 $7 #
transform $-1 1 0 0 0 1 0 0 0 1 43.125095370342109 24.469579474898882 11.734301070068319 1 rotate no_reflect no_shear #
lump $-1 $-1 $35 $8 #
transform $-1 1 0 0 0 1 0 0 0 1 43.125095370342109 24.469579474898882 11.734301070068319 1 rotate no_reflect no_shear #
shell $-1 $-1 $-1 $36 $-1 $9 #
shell $-1 $-1 $-1 $37 $-1 $11 #
shell $-1 $-1 $-1 $38 $-1 $13 #
shell $-1 $-1 $-1 $39 $-1 $15 #
shell $-1 $-1 $-1 $40 $-1 $17 #
shell $-1 $-1 $-1 $41 $-1 $19 #
shell $-1 $-1 $-1 $42 $-1 $21 #
shell $-1 $-1 $-1 $43 $-1 $23 #
shell $-1 $-1 $-1 $44 $-1 $25 #
face $-1 $45 $46 $27 $-1 $47 forward single #
face $-1 $48 $49 $28 $-1 $50 forward single #
face $-1 $51 $52 $29 $-1 $53 reversed single #
face $-1 $54 $55 $30 $-1 $56 forward single #
face $-1 $57 $58 $31 $-1 $59 forward single #
face $-1 $60 $61 $32 $-1 $62 forward single #
face $-1 $63 $64 $33 $-1 $65 reversed single #
face $-1 $66 $67 $34 $-1 $68 forward single #
face $-1 $69 $70 $35 $-1 $71 forward single #
face $-1 $72 $73 $27 $-1 $74 reversed single #
loop $-1 $-1 $75 $36 #
plane-surface $-1 0 0 11.734301070068319 0 0 1 1 0 0 forward_v I I I I #
face $-1 $76 $77 $28 $-1 $78 reversed single #
loop $-1 $-1 $79 $37 #
plane-surface $-1 -35.519315126572039 0 -6.175020606445571 0 0 1 1 0 0 forward_v I I I I #
face $-1 $80 $81 $29 $-1 $82 reversed single #
loop $-1 $-1 $83 $38 #
plane-surface $-1 -15.231252854225129 55.819274481864042 101.72000652648254 1 0 0 0 -0.74314483375859142 -0.66913059716165679 forward_v I I I I #
face $-1 $84 $85 $30 $-1 $86 forward single #
loop $-1 $87 $88 $39 #
cone-surface $-1 -11.25311557596639 22.254060963133966 9.3518261108678065 0 -0.74314483375859142 -0.66913059716165679 0.5 0 0 1 I I 0 1 0.5 forward I I I I #
face $-1 $89 $90 $31 $-1 $91 forward single #
loop $-1 $92 $93 $40 #
cone-surface $-1 -5.2859096585782765 22.254060963133966 9.3518261108678065 0 -0.74314483375859142 -0.66913059716165679 0.5 0 0 1 I I 0 1 0.5 forward I I I I #
face $-1 $94 $95 $32 $-1 $96 forward single #
loop $-1 $97 $98 $41 #
cone-surface $-1 0.68129625880983724 22.254060963133966 9.3518261108678065 0 -0.74314483375859142 -0.66913059716165679 0.5 0 0 1 I I 0 1 0.5 forward I I I I #
face $-1 $99 $100 $33 $-1 $101 reversed single #
loop $-1 $-1 $102 $42 #
plane-surface $-1 33.071786117790239 -24.469579474898872 3.3530311948115354 0 -0.6018150307709319 0.79863550430605224 1 0 0 forward_v I I I I #
face $-1 $103 $104 $34 $-1 $105 forward single #
loop $-1 $106 $107 $43 #
cone-surface $-1 28.763225009553722 -17.53345266485757 5.7190239589120475 0 0.6018150307709319 -0.79863550430605224 1.5 0 0 1 I I 0 1 1.5 forward I I I I #
face $-1 $108 $109 $35 $-1 $110 forward single #
loop $-1 $111 $112 $44 #
cone-surface $-1 37.380347226026757 -17.53345266485757 5.7190239589120475 0 0.6018150307709319 -0.79863550430605224 1.5 0 0 1 I I 0 1 1.5 forward I I I I #
face $-1 $113 $114 $27 $-1 $115 reversed single #
loop $-1 $-1 $116 $45 #
plane-surface $-1 0 0 -11.734301070068319 0 0 1 1 0 0 forward_v I I I I #
coedge $-1 $117 $118 $119 $120 forward $46 $-1 #
face $-1 $121 $122 $28 $-1 $123 reversed single #
loop $-1 $-1 $124 $48 #
plane-surface $-1 -27.913534882801969 0 -8.9546608382569453 -1 0 0 0 0 1 forward_v I I I I #
coedge $-1 $125 $126 $127 $128 forward $49 $-1 #
face $-1 $129 $130 $29 $-1 $131 reversed single #
loop $-1 $-1 $132 $51 #
plane-surface $-1 -5.2859096585782765 -8.2771091777685371 44.007364890861702 0 0.74314483375859142 0.66913059716165679 1 0 0 forward_v I I I I #
coedge $-1 $133 $134 $135 $136 reversed $52 $-1 #
face $-1 $-1 $137 $30 $-1 $138 forward single #
loop $-1 $139 $140 $54 #
cone-surface $-1 -11.25311557596639 21.696702337815022 8.8499781629965639 0 -0.74314483375859142 -0.66913059716165679 0.25 0 0 1 I I -0.70710678118654746 0.70710678118654746 0.25 forward I I I I #
loop $-1 $-1 $141 $39 #
coedge $-1 $88 $88 $142 $143 reversed $55 $-1 #
face $-1 $-1 $144 $31 $-1 $145 forward single #
loop $-1 $146 $147 $57 #
cone-surface $-1 -5.2859096585782765 21.696702337815022 8.8499781629965639 0 -0.74314483375859142 -0.66913059716165679 0.25 0 0 1 I I -0.70710678118654746 0.70710678118654746 0.25 forward I I I I #
loop $-1 $-1 $148 $40 #
coedge $-1 $93 $93 $149 $150 reversed $58 $-1 #
face $-1 $-1 $151 $32 $-1 $152 forward single #
loop $-1 $153 $154 $60 #
cone-surface $-1 0.68129625880983724 21.696702337815022 8.8499781629965639 0 -0.74314483375859142 -0.66913059716165679 0.25 0 0 1 I I -0.70710678118654746 0.70710678118654746 0.25 forward I I I I #
loop $-1 $-1 $155 $41 #
coedge $-1 $98 $98 $156 $157 reversed $61 $-1 #
face $-1 $158 $159 $33 $-1 $160 reversed single #
loop $-1 $-1 $161 $63 #
plane-surface $-1 23.01847686523837 -76.376240669502494 72.235495773491067 1 0 0 0 0.6018150307709319 -0.79863550430605224 forward_v I I I I #
coedge $-1 $162 $163 $164 $165 reversed $64 $-1 #
face $-1 $-1 $166 $34 $-1 $167 forward single #
loop $-1 $168 $169 $66 #
cone-surface $-1 28.763225009553722 -15.707124864637839 3.295405157154633 0 0.6018150307709319 -0.79863550430605224 0.75 0 0 1 I I -0.70710678118654757 0.70710678118654757 0.75 forward I I I I #
loop $-1 $-1 $170 $43 #
coedge $-1 $107 $107 $171 $172 reversed $67 $-1 #
face $-1 $-1 $173 $35 $-1 $174 forward single #
loop $-1 $175 $176 $69 #
cone-surface $-1 37.380347226026757 -15.707124864637839 3.295405157154633 0 0.6018150307709319 -0.79863550430605224 0.75 0 0 1 I I -0.70710678118654757 0.70710678118654757 0.75 forward I I I I #
loop $-1 $-1 $177 $44 #
coedge $-1 $112 $112 $178 $179 reversed $70 $-1 #
face $-1 $180 $181 $27 $-1 $182 reversed single #
loop $-1 $-1 $183 $72 #
plane-surface $-1 0 -24.469579474898882 0 0 1 0 0 0 1 forward_v I I I I #
coedge $-1 $184 $185 $186 $187 forward $73 $-1 #
coedge $-1 $188 $75 $189 $190 forward $46 $-1 #
coedge $-1 $75 $188 $191 $192 forward $46 $-1 #
coedge $-1 $193 $194 $75 $120 reversed $195 $-1 #
edge $-1 $196 -24.469579474898882 $197 24.469579474898882 $119 $198 forward 7 unknown #
face $-1 $199 $200 $28 $-1 $201 reversed single #
loop $-1 $-1 $202 $76 #
plane-surface $-1 0 0 -11.734301070068319 0 0 1 1 0 0 forward_v I I I I #
coedge $-1 $203 $127 $204 $205 reversed $77 $-1 #
coedge $-1 $206 $79 $207 $208 reversed $49 $-1 #
coedge $-1 $79 $206 $209 $210 reversed $49 $-1 #
coedge $-1 $124 $211 $79 $128 reversed $77 $-1 #
edge $-1 $212 -24.469579474898882 $213 24.469579474898882 $127 $214 forward 7 unknown #
face $-1 $215 $216 $29 $-1 $217 reversed single #
loop $-1 $-1 $218 $80 #
plane-surface $-1 4.6594335370685762 55.819274481864042 101.72000652648254 -1 0 0 0 0.74314483375859142 0.66913059716165679 forward_v I I I I #
coedge $-1 $219 $220 $221 $222 reversed $81 $-1 #
coedge $-1 $134 $83 $223 $224 reversed $52 $-1 #
coedge $-1 $83 $133 $219 $225 reversed $52 $-1 #
coedge $-1 $221 $226 $83 $136 forward $227 $-1 #
edge $-1 $228 3.4400577660331386 $229 7.1279499558043646 $135 $230 forward 7 unknown #
loop $-1 $-1 $142 $84 #
plane-surface $-1 -5.2859096585782765 -8.2771091777685371 44.007364890861702 0 0.74314483375859142 0.66913059716165679 1 0 0 forward_v I I I I #
loop $-1 $-1 $231 $54 #
coedge $-1 $140 $140 $141 $232 reversed $85 $-1 #
coedge $-1 $141 $141 $140 $232 forward $87 $-1 #
coedge $-1 $142 $142 $88 $143 forward $137 $-1 #
edge $-1 $233 1.0518055631356247e-015 $233 6.2831853071796013 $142 $234 forward 7 unknown #
loop $-1 $-1 $149 $89 #
plane-surface $-1 -5.2859096585782765 -8.2771091777685371 44.007364890861702 0 0.74314483375859142 0.66913059716165679 1 0 0 forward_v I I I I #
loop $-1 $-1 $235 $57 #
coedge $-1 $147 $147 $148 $236 reversed $90 $-1 #
coedge $-1 $148 $148 $147 $236 forward $92 $-1 #
coedge $-1 $149 $149 $93 $150 forward $144 $-1 #
edge $-1 $237 1.0518055631356247e-015 $237 6.2831853071796013 $149 $238 forward 7 unknown #
loop $-1 $-1 $156 $94 #
plane-surface $-1 -5.2859096585782765 -8.2771091777685371 44.007364890861702 0 0.74314483375859142 0.66913059716165679 1 0 0 forward_v I I I I #
loop $-1 $-1 $239 $60 #
coedge $-1 $154 $154 $155 $240 reversed $95 $-1 #
coedge $-1 $155 $155 $154 $240 forward $97 $-1 #
coedge $-1 $156 $156 $98 $157 forward $151 $-1 #
edge $-1 $241 1.0518055631356247e-015 $241 6.2831853071796013 $156 $242 forward 7 unknown #
face $-1 $243 $244 $33 $-1 $245 forward single #
loop $-1 $-1 $246 $99 #
plane-surface $-1 43.125095370342109 0 0 -1 0 0 0 0 1 forward_v I I I I #
coedge $-1 $247 $248 $249 $250 reversed $100 $-1 #
coedge $-1 $251 $102 $246 $252 reversed $64 $-1 #
coedge $-1 $102 $251 $247 $253 forward $64 $-1 #
coedge $-1 $249 $254 $102 $165 forward $244 $-1 #
edge $-1 $255 -26.589202311446989 $256 -6.4825838063432499 $164 $257 forward 7 unknown #
loop $-1 $-1 $171 $103 #
plane-surface $-1 33.071786117790239 -24.469579474898872 3.3530311948115354 0 -0.6018150307709319 0.79863550430605224 1 0 0 forward_v I I I I #
loop $-1 $-1 $258 $66 #
coedge $-1 $169 $169 $170 $259 reversed $104 $-1 #
coedge $-1 $170 $170 $169 $259 forward $106 $-1 #
coedge $-1 $171 $171 $107 $172 forward $166 $-1 #
edge $-1 $260 -3.5634608198793902e-016 $260 6.2831853071796004 $171 $261 forward 7 unknown #
loop $-1 $-1 $178 $108 #
plane-surface $-1 33.071786117790239 -24.469579474898872 3.3530311948115354 0 -0.6018150307709319 0.79863550430605224 1 0 0 forward_v I I I I #
loop $-1 $-1 $262 $69 #
coedge $-1 $176 $176 $177 $263 reversed $109 $-1 #
coedge $-1 $177 $177 $176 $263 forward $111 $-1 #
coedge $-1 $178 $178 $112 $179 forward $173 $-1 #
edge $-1 $264 -3.5634608198793902e-016 $264 6.2831853071796004 $178 $265 forward 7 unknown #
face $-1 $266 $267 $27 $-1 $268 reversed single #
loop $-1 $-1 $269 $113 #
plane-surface $-1 -43.125095370342109 0 0 1 0 0 0 0 -1 forward_v I I I I #
coedge $-1 $270 $191 $271 $272 forward $114 $-1 #
coedge $-1 $273 $116 $270 $274 forward $73 $-1 #
coedge $-1 $116 $273 $275 $276 forward $73 $-1 #
coedge $-1 $194 $193 $116 $187 reversed $195 $-1 #
edge $-1 $277 -24.469579474898882 $278 24.469579474898882 $186 $279 forward 7 unknown #
coedge $-1 $118 $117 $280 $281 forward $46 $-1 #
coedge $-1 $282 $283 $117 $190 reversed $267 $-1 #
edge $-1 $197 -43.125095370342109 $284 43.125095370342109 $189 $285 forward 7 unknown #
coedge $-1 $183 $286 $118 $192 reversed $114 $-1 #
edge $-1 $287 -43.125095370342109 $196 43.125095370342109 $191 $288 forward 7 unknown #
coedge $-1 $186 $119 $286 $289 forward $195 $-1 #
coedge $-1 $119 $186 $282 $290 reversed $195 $-1 #
loop $-1 $-1 $193 $266 #
vertex $-1 $120 $291 #
vertex $-1 $120 $292 #
straight-curve $-1 43.125095370342109 0 11.734301070068319 0 1 0 I I #
face $-1 $293 $294 $28 $-1 $295 reversed single #
loop $-1 $-1 $204 $121 #
plane-surface $-1 0 -24.469579474898882 0 0 1 0 0 0 1 forward_v I I I I #
coedge $-1 $296 $297 $203 $298 forward $122 $-1 #
coedge $-1 $211 $124 $202 $298 reversed $77 $-1 #
coedge $-1 $209 $299 $124 $205 forward $200 $-1 #
edge $-1 $300 -7.2569706509398468 $212 -1.6976901873170984 $204 $301 forward 7 unknown #
coedge $-1 $126 $125 $302 $303 reversed $49 $-1 #
coedge $-1 $304 $305 $125 $208 forward $306 $-1 #
edge $-1 $307 -25.36543780705609 $213 -10.153877319515949 $207 $308 forward 7 unknown #
coedge $-1 $309 $204 $126 $210 forward $200 $-1 #
edge $-1 $212 10.153877319515949 $310 25.36543780705609 $209 $311 forward 7 unknown #
coedge $-1 $127 $203 $304 $312 reversed $77 $-1 #
vertex $-1 $210 $313 #
vertex $-1 $208 $314 #
straight-curve $-1 -27.913534882801969 0 -6.175020606445571 0 1 0 I I #
face $-1 $-1 $227 $29 $-1 $315 forward single #
loop $-1 $-1 $316 $129 #
plane-surface $-1 0 24.469579474898882 0 0 -1 0 0 0 -1 forward_v I I I I #
coedge $-1 $317 $318 $319 $320 reversed $130 $-1 #
coedge $-1 $321 $132 $134 $225 forward $81 $-1 #
coedge $-1 $132 $321 $317 $322 forward $81 $-1 #
coedge $-1 $319 $135 $132 $222 forward $227 $-1 #
edge $-1 $229 -12.588298024935991 $323 7.3023883663577145 $221 $324 forward 7 unknown #
coedge $-1 $325 $326 $133 $224 forward $216 $-1 #
edge $-1 $327 -43.221521514412302 $228 -39.125702193172948 $223 $328 forward 7 unknown #
edge $-1 $229 43.427690478000684 $327 48.939158949797758 $134 $329 forward 7 unknown #
coedge $-1 $135 $319 $325 $330 forward $227 $-1 #
loop $-1 $-1 $319 $215 #
vertex $-1 $224 $331 #
vertex $-1 $136 $332 #
straight-curve $-1 -15.231252854225129 27.909637240932021 11.734301070068319 0 -1 0 I I #
coedge $-1 $231 $231 $-1 $333 reversed $139 $-1 #
edge $-1 $334 0 $334 6.2831853071796004 $140 $335 forward 7 unknown #
vertex $-1 $143 $336 #
ellipse-curve $-1 -11.25311557596639 22.625633380013269 9.6863914094486425 0 0.74314483375859142 0.66913059716165679 0.5 0 0 1 I I #
coedge $-1 $235 $235 $-1 $337 reversed $146 $-1 #
edge $-1 $338 0 $338 6.2831853071796004 $147 $339 forward 7 unknown #
vertex $-1 $150 $340 #
ellipse-curve $-1 -5.2859096585782765 22.625633380013269 9.6863914094486425 0 0.74314483375859142 0.66913059716165679 0.5 0 0 1 I I #
coedge $-1 $239 $239 $-1 $341 reversed $153 $-1 #
edge $-1 $342 0 $342 6.2831853071796004 $154 $343 forward 7 unknown #
vertex $-1 $157 $344 #
ellipse-curve $-1 0.68129625880983724 22.625633380013269 9.6863914094486425 0 0.74314483375859142 0.66913059716165679 0.5 0 0 1 I I #
face $-1 $-1 $345 $33 $-1 $346 reversed single #
loop $-1 $-1 $164 $158 #
plane-surface $-1 0 0 11.734301070068319 0 0 1 1 0 0 forward_v I I I I #
coedge $-1 $347 $348 $162 $252 forward $159 $-1 #
coedge $-1 $248 $161 $163 $253 reversed $100 $-1 #
coedge $-1 $161 $247 $349 $350 reversed $100 $-1 #
coedge $-1 $351 $164 $161 $250 forward $244 $-1 #
edge $-1 $256 -24.840861425651926 $352 -13.718540859852364 $249 $353 forward 7 unknown #
coedge $-1 $163 $162 $354 $355 reversed $64 $-1 #
edge $-1 $356 -8.7621851862057554 $255 5.1644690957923052 $246 $357 forward 7 unknown #
edge $-1 $358 -1.3322641948408722e-014 $256 13.926654281998047 $247 $359 forward 7 unknown #
coedge $-1 $164 $351 $347 $360 forward $244 $-1 #
vertex $-1 $165 $361 #
vertex $-1 $165 $362 #
straight-curve $-1 16.53589305889512 -13.34725890909932 11.734301070068319 -1 0 0 I I #
coedge $-1 $258 $258 $-1 $363 reversed $168 $-1 #
edge $-1 $364 0 $364 6.2831853071796004 $169 $365 forward 7 unknown #
vertex $-1 $172 $366 #
ellipse-curve $-1 28.763225009553722 -18.908419191999101 7.5436661324399239 0 -0.6018150307709319 0.79863550430605224 1.5 0 0 1 I I #
coedge $-1 $262 $262 $-1 $367 reversed $175 $-1 #
edge $-1 $368 0 $368 6.2831853071796004 $176 $369 forward 7 unknown #
vertex $-1 $179 $370 #
ellipse-curve $-1 37.380347226026757 -18.908419191999101 7.5436661324399239 0 -0.6018150307709319 0.79863550430605224 1.5 0 0 1 I I #
face $-1 $-1 $195 $27 $-1 $371 reversed single #
loop $-1 $-1 $282 $180 #
plane-surface $-1 0 24.469579474898882 0 0 -1 0 0 0 -1 forward_v I I I I #
coedge $-1 $372 $280 $283 $373 forward $181 $-1 #
coedge $-1 $286 $183 $184 $274 reversed $114 $-1 #
coedge $-1 $280 $372 $183 $272 reversed $181 $-1 #
edge $-1 $287 -11.734301070068319 $374 11.734301070068319 $271 $375 forward 7 unknown #
coedge $-1 $185 $184 $372 $376 forward $73 $-1 #
edge $-1 $278 -43.125095370342109 $374 43.125095370342109 $270 $377 forward 7 unknown #
coedge $-1 $283 $282 $185 $276 reversed $267 $-1 #
edge $-1 $378 -43.125095370342109 $277 43.125095370342109 $275 $379 forward 7 unknown #
vertex $-1 $187 $380 #
vertex $-1 $289 $381 #
straight-curve $-1 43.125095370342109 0 -11.734301070068319 0 -1 0 I I #
coedge $-1 $269 $271 $188 $281 reversed $181 $-1 #
edge $-1 $284 -24.469579474898882 $287 24.469579474898882 $280 $382 forward 7 unknown #
coedge $-1 $275 $189 $194 $290 forward $267 $-1 #
coedge $-1 $189 $275 $269 $373 reversed $267 $-1 #
vertex $-1 $190 $383 #
straight-curve $-1 0 24.469579474898882 11.734301070068319 -1 0 0 I I #
coedge $-1 $191 $270 $193 $289 reversed $114 $-1 #
vertex $-1 $281 $384 #
straight-curve $-1 0 -24.469579474898882 11.734301070068319 1 0 0 I I #
edge $-1 $196 -11.734301070068319 $278 11.734301070068319 $193 $385 forward 7 unknown #
edge $-1 $197 -11.734301070068319 $277 11.734301070068319 $194 $386 forward 7 unknown #
point $-1 43.125095370342109 -24.469579474898882 11.734301070068319 #
point $-1 43.125095370342109 24.469579474898882 11.734301070068319 #
face $-1 $-1 $306 $28 $-1 $387 reversed single #
loop $-1 $-1 $302 $199 #
plane-surface $-1 -43.125095370342109 0 0 1 0 0 0 0 -1 forward_v I I I I #
coedge $-1 $388 $202 $299 $389 forward $122 $-1 #
coedge $-1 $202 $388 $390 $391 forward $122 $-1 #
edge $-1 $392 -24.469579474898882 $300 24.469579474898882 $202 $393 forward 7 unknown #
coedge $-1 $204 $309 $296 $389 reversed $200 $-1 #
vertex $-1 $389 $394 #
straight-curve $-1 -27.913534882801969 -24.469579474898882 -4.4773304191284726 0 0 1 I I #
coedge $-1 $395 $396 $206 $303 forward $294 $-1 #
edge $-1 $310 -24.469579474898882 $307 24.469579474898882 $302 $397 forward 7 unknown #
coedge $-1 $390 $207 $211 $312 forward $306 $-1 #
coedge $-1 $207 $390 $395 $398 reversed $306 $-1 #
loop $-1 $-1 $304 $293 #
vertex $-1 $398 $399 #
straight-curve $-1 -17.759657563286019 24.469579474898882 -6.175020606445571 1 0 0 I I #
coedge $-1 $299 $209 $396 $400 forward $200 $-1 #
vertex $-1 $400 $401 #
straight-curve $-1 -17.759657563286019 -24.469579474898882 -6.175020606445571 -1 0 0 I I #
edge $-1 $213 1.6976901873170984 $392 7.2569706509398468 $304 $402 forward 7 unknown #
point $-1 -27.913534882801969 -24.469579474898882 -6.175020606445571 #
point $-1 -27.913534882801969 24.469579474898882 -6.175020606445571 #
plane-surface $-1 0 0 11.734301070068319 0 0 1 1 0 0 forward_v I I I I #
coedge $-1 $326 $325 $318 $403 forward $216 $-1 #
coedge $-1 $318 $218 $220 $322 reversed $130 $-1 #
coedge $-1 $218 $317 $316 $403 reversed $130 $-1 #
coedge $-1 $226 $221 $218 $320 forward $227 $-1 #
edge $-1 $323 -7.1279499558043646 $404 -3.4400577660331386 $319 $405 forward 7 unknown #
coedge $-1 $220 $219 $326 $406 reversed $81 $-1 #
edge $-1 $407 -48.939158949797758 $323 -43.427690478000684 $317 $408 forward 7 unknown #
vertex $-1 $222 $409 #
straight-curve $-1 -2.6429548292891383 20.781687285127656 11.734301070068319 1 0 0 I I #
coedge $-1 $316 $223 $226 $330 reversed $216 $-1 #
coedge $-1 $223 $316 $321 $406 forward $216 $-1 #
vertex $-1 $224 $410 #
straight-curve $-1 -15.231252854225129 24.469579474898882 50.860003263241268 0 0 1 I I #
straight-curve $-1 -15.231252854225129 -8.2771091777685371 44.007364890861702 0 0.66913059716165679 -0.74314483375859142 I I #
edge $-1 $404 -4.6594335370685762 $228 15.231252854225129 $325 $411 forward 7 unknown #
point $-1 -15.231252854225129 24.469579474898882 11.734301070068319 #
point $-1 -15.231252854225129 20.781687285127656 11.734301070068319 #
edge $-1 $412 1 $412 0 $231 $-1 forward 7 unknown #
vertex $-1 $232 $413 #
ellipse-curve $-1 -11.25311557596639 21.88248854625467 9.0172608122869775 0 0.74314483375859142 0.66913059716165679 0.5 0 0 1 I I #
point $-1 -10.75311557596639 22.625633380013262 9.6863914094486354 #
edge $-1 $414 1 $414 0 $235 $-1 forward 7 unknown #
vertex $-1 $236 $415 #
ellipse-curve $-1 -5.2859096585782765 21.88248854625467 9.0172608122869775 0 0.74314483375859142 0.66913059716165679 0.5 0 0 1 I I #
point $-1 -4.7859096585782765 22.625633380013262 9.6863914094486354 #
edge $-1 $416 1 $416 0 $239 $-1 forward 7 unknown #
vertex $-1 $240 $417 #
ellipse-curve $-1 0.68129625880983724 21.88248854625467 9.0172608122869775 0 0.74314483375859142 0.66913059716165679 0.5 0 0 1 I I #
point $-1 1.1812962588098372 22.625633380013262 9.6863914094486354 #
loop $-1 $-1 $354 $243 #
plane-surface $-1 0 -24.469579474898882 0 0 1 0 0 0 1 forward_v I I I I #
coedge $-1 $348 $246 $254 $360 reversed $159 $-1 #
coedge $-1 $246 $347 $418 $419 forward $159 $-1 #
coedge $-1 $354 $420 $248 $350 forward $345 $-1 #
edge $-1 $352 24.383446816677214 $358 32.764716691934005 $349 $421 forward 7 unknown #
coedge $-1 $254 $249 $420 $422 forward $244 $-1 #
vertex $-1 $422 $423 #
straight-curve $-1 23.01847686523837 -38.188120334751247 11.734301070068319 0 -1 0 I I #
coedge $-1 $418 $349 $251 $355 forward $345 $-1 #
edge $-1 $358 6.4825838063432499 $356 26.589202311446989 $354 $424 forward 7 unknown #
vertex $-1 $355 $425 #
straight-curve $-1 43.125095370342109 -17.471787289890429 8.6262459422685467 0 0.79863550430605224 0.6018150307709319 I I #
vertex $-1 $355 $426 #
straight-curve $-1 23.01847686523837 -24.469579474898872 3.3530311948115354 0 0.79863550430605224 0.6018150307709319 I I #
edge $-1 $427 -24.469579474898882 $255 -13.34725890909932 $347 $428 forward 7 unknown #
point $-1 43.125095370342109 -13.34725890909932 11.734301070068319 #
point $-1 23.01847686523837 -13.34725890909932 11.734301070068319 #
edge $-1 $429 1 $429 0 $258 $-1 forward 7 unknown #
vertex $-1 $259 $430 #
ellipse-curve $-1 28.763225009553722 -16.158486137716039 3.894381785384172 0 -0.6018150307709319 0.79863550430605224 1.5 0 0 1 I I #
point $-1 30.263225009553722 -18.908419191999101 7.543666132439923 #
edge $-1 $431 1 $431 0 $262 $-1 forward 7 unknown #
vertex $-1 $263 $432 #
ellipse-curve $-1 37.380347226026757 -16.158486137716039 3.894381785384172 0 -0.6018150307709319 0.79863550430605224 1.5 0 0 1 I I #
point $-1 38.880347226026757 -18.908419191999101 7.543666132439923 #
plane-surface $-1 43.125095370342109 0 0 -1 0 0 0 0 1 forward_v I I I I #
coedge $-1 $271 $269 $273 $376 reversed $181 $-1 #
edge $-1 $284 -11.734301070068319 $378 11.734301070068319 $283 $433 forward 7 unknown #
vertex $-1 $376 $434 #
straight-curve $-1 -43.125095370342109 -24.469579474898882 0 0 0 -1 I I #
edge $-1 $374 -24.469579474898882 $378 24.469579474898882 $372 $435 forward 7 unknown #
straight-curve $-1 0 -24.469579474898882 -11.734301070068319 -1 0 0 I I #
vertex $-1 $276 $436 #
straight-curve $-1 0 24.469579474898882 -11.734301070068319 1 0 0 I I #
point $-1 43.125095370342109 24.469579474898882 -11.734301070068319 #
point $-1 43.125095370342109 -24.469579474898882 -11.734301070068319 #
straight-curve $-1 -43.125095370342109 0 11.734301070068319 0 -1 0 I I #
point $-1 -43.125095370342109 24.469579474898882 11.734301070068319 #
point $-1 -43.125095370342109 -24.469579474898882 11.734301070068319 #
straight-curve $-1 43.125095370342109 -24.469579474898882 0 0 0 -1 I I #
straight-curve $-1 43.125095370342109 24.469579474898882 0 0 0 -1 I I #
plane-surface $-1 0 24.469579474898882 0 0 -1 0 0 0 -1 forward_v I I I I #
coedge $-1 $297 $296 $437 $438 forward $122 $-1 #
edge $-1 $300 27.913534882801969 $439 43.125095370342109 $299 $440 forward 7 unknown #
coedge $-1 $305 $304 $297 $391 reversed $306 $-1 #
edge $-1 $441 -43.125095370342109 $392 -27.913534882801969 $390 $442 forward 7 unknown #
vertex $-1 $312 $443 #
straight-curve $-1 -27.913534882801969 0 -11.734301070068319 0 -1 0 I I #
point $-1 -27.913534882801969 -24.469579474898882 -11.734301070068319 #
coedge $-1 $437 $302 $305 $398 forward $294 $-1 #
coedge $-1 $302 $437 $309 $400 reversed $294 $-1 #
straight-curve $-1 -43.125095370342109 0 -6.175020606445571 0 1 0 I I #
edge $-1 $307 6.175020606445571 $441 11.734301070068319 $305 $444 forward 7 unknown #
point $-1 -43.125095370342109 24.469579474898882 -6.175020606445571 #
edge $-1 $310 6.175020606445571 $439 11.734301070068319 $396 $445 forward 7 unknown #
point $-1 -43.125095370342109 -24.469579474898882 -6.175020606445571 #
straight-curve $-1 -27.913534882801969 24.469579474898882 -4.4773304191284726 0 0 -1 I I #
edge $-1 $404 39.125702193172948 $407 43.221521514412302 $316 $446 forward 7 unknown #
vertex $-1 $330 $447 #
straight-curve $-1 4.6594335370685762 27.909637240932021 11.734301070068319 0 1 0 I I #
edge $-1 $407 -7.3023883663577145 $327 12.588298024935991 $326 $448 forward 7 unknown #
vertex $-1 $406 $449 #
straight-curve $-1 4.6594335370685762 -8.2771091777685371 44.007364890861702 0 -0.66913059716165679 0.74314483375859142 I I #
point $-1 4.6594335370685762 20.781687285127656 11.734301070068319 #
point $-1 -15.231252854225129 24.469579474898879 7.6384817488289656 #
straight-curve $-1 0 24.469579474898882 11.734301070068319 -1 0 0 I I #
vertex $-1 $333 $450 #
point $-1 -10.75311557596639 21.88248854625467 9.0172608122869775 #
vertex $-1 $337 $451 #
point $-1 -4.7859096585782765 21.88248854625467 9.0172608122869775 #
vertex $-1 $341 $452 #
point $-1 1.1812962588098372 21.88248854625467 9.0172608122869775 #
coedge $-1 $420 $354 $348 $419 reversed $345 $-1 #
edge $-1 $427 -11.734301070068319 $356 -3.3530311948115274 $348 $453 forward 7 unknown #
coedge $-1 $349 $418 $351 $422 reversed $345 $-1 #
straight-curve $-1 23.01847686523837 -24.469579474898882 36.117747886745533 0 0 -1 I I #
edge $-1 $352 23.01847686523837 $427 43.125095370342109 $420 $454 forward 7 unknown #
point $-1 23.01847686523837 -24.469579474898882 11.734301070068319 #
straight-curve $-1 16.53589305889512 -24.469579474898882 3.3530311948115301 1 0 0 I I #
point $-1 43.125095370342109 -24.469579474898882 3.3530311948115274 #
point $-1 23.01847686523837 -24.469579474898882 3.3530311948115274 #
vertex $-1 $360 $455 #
straight-curve $-1 43.125095370342109 0 11.734301070068319 0 1 0 I I #
vertex $-1 $363 $456 #
point $-1 30.263225009553722 -16.158486137716039 3.894381785384172 #
vertex $-1 $367 $457 #
point $-1 38.880347226026757 -16.158486137716039 3.894381785384172 #
straight-curve $-1 -43.125095370342109 24.469579474898882 0 0 0 -1 I I #
point $-1 -43.125095370342109 -24.469579474898882 -11.734301070068319 #
straight-curve $-1 -43.125095370342109 0 -11.734301070068319 0 1 0 I I #
point $-1 -43.125095370342109 24.469579474898882 -11.734301070068319 #
coedge $-1 $396 $395 $388 $438 reversed $294 $-1 #
edge $-1 $439 -24.469579474898882 $441 24.469579474898882 $437 $458 forward 7 unknown #
vertex $-1 $438 $459 #
straight-curve $-1 0 -24.469579474898882 -11.734301070068319 -1 0 0 I I #
vertex $-1 $391 $460 #
straight-curve $-1 0 24.469579474898882 -11.734301070068319 1 0 0 I I #
point $-1 -27.913534882801969 24.469579474898882 -11.734301070068319 #
straight-curve $-1 -43.125095370342109 24.469579474898882 0 0 0 -1 I I #
straight-curve $-1 -43.125095370342109 -24.469579474898882 0 0 0 -1 I I #
straight-curve $-1 4.6594335370685762 24.469579474898882 50.860003263241268 0 0 -1 I I #
point $-1 4.6594335370685762 24.469579474898882 11.734301070068319 #
straight-curve $-1 -2.6429548292891383 24.469579474898882 7.638481748828962 -1 0 0 I I #
point $-1 4.6594335370685762 24.469579474898879 7.6384817488289656 #
point $-1 -11.25311557596639 21.510916129375374 8.6826955137061503 #
point $-1 -5.2859096585782765 21.510916129375374 8.6826955137061503 #
point $-1 0.68129625880983724 21.510916129375374 8.6826955137061503 #
straight-curve $-1 43.125095370342109 -24.469579474898882 0 0 0 -1 I I #
straight-curve $-1 0 -24.469579474898882 11.734301070068319 1 0 0 I I #
point $-1 43.125095370342109 -24.469579474898882 11.734301070068319 #
point $-1 28.763225009553722 -15.25576359155964 2.696428528925094 #
point $-1 37.380347226026757 -15.25576359155964 2.696428528925094 #
straight-curve $-1 -43.125095370342109 0 -11.734301070068319 0 1 0 I I #
point $-1 -43.125095370342109 -24.469579474898882 -11.734301070068319 #
point $-1 -43.125095370342109 24.469579474898882 -11.734301070068319 #
End-of-ACIS-data 