500 0 16 0           
7 Unknown 11 ACIS 5.0 NT 24 Fri Mar 26 19:06:13 1999 
-1 9.9999999999999995e-007 1e-010 
body $-1 $16 $-1 $17 #
body $-1 $18 $-1 $19 #
body $-1 $20 $-1 $21 #
body $-1 $22 $-1 $23 #
body $-1 $24 $-1 $25 #
body $-1 $26 $-1 $27 #
body $-1 $28 $-1 $29 #
body $-1 $30 $-1 $31 #
body $-1 $32 $-1 $33 #
body $-1 $34 $-1 $35 #
body $-1 $36 $-1 $37 #
body $-1 $38 $-1 $39 #
body $-1 $40 $-1 $41 #
body $-1 $42 $-1 $43 #
body $-1 $44 $-1 $45 #
body $-1 $46 $-1 $47 #
lump $-1 $-1 $48 $0 #
transform $-1 1 0 0 0 1 0 0 0 1 74.146549882503734 49.824616939081899 22.914731661384209 1 rotate no_reflect no_shear #
lump $-1 $-1 $49 $1 #
transform $-1 1 0 0 0 1 0 0 0 1 74.146549882503734 49.824616939081899 22.914731661384209 1 rotate no_reflect no_shear #
lump $-1 $-1 $50 $2 #
transform $-1 1 0 0 0 1 0 0 0 1 74.146549882503734 49.824616939081899 22.914731661384209 1 rotate no_reflect no_shear #
lump $-1 $-1 $51 $3 #
transform $-1 1 0 0 0 1 0 0 0 1 74.146549882503734 49.824616939081899 22.914731661384209 1 rotate no_reflect no_shear #
lump $-1 $-1 $52 $4 #
transform $-1 1 0 0 0 1 0 0 0 1 74.146549882503734 49.824616939081899 22.914731661384209 1 rotate no_reflect no_shear #
lump $-1 $-1 $53 $5 #
transform $-1 1 0 0 0 1 0 0 0 1 74.146549882503734 49.824616939081899 22.914731661384209 1 rotate no_reflect no_shear #
lump $-1 $-1 $54 $6 #
transform $-1 1 0 0 0 1 0 0 0 1 74.146549882503734 49.824616939081899 22.914731661384209 1 rotate no_reflect no_shear #
lump $-1 $-1 $55 $7 #
transform $-1 1 0 0 0 1 0 0 0 1 74.146549882503734 49.824616939081899 22.914731661384209 1 rotate no_reflect no_shear #
lump $-1 $-1 $56 $8 #
transform $-1 1 0 0 0 1 0 0 0 1 74.146549882503734 49.824616939081899 22.914731661384209 1 rotate no_reflect no_shear #
lump $-1 $-1 $57 $9 #
transform $-1 1 0 0 0 1 0 0 0 1 74.146549882503734 49.824616939081899 22.914731661384209 1 rotate no_reflect no_shear #
lump $-1 $-1 $58 $10 #
transform $-1 1 0 0 0 1 0 0 0 1 74.146549882503734 49.824616939081899 22.914731661384209 1 rotate no_reflect no_shear #
lump $-1 $-1 $59 $11 #
transform $-1 1 0 0 0 1 0 0 0 1 74.146549882503734 49.824616939081899 22.914731661384209 1 rotate no_reflect no_shear #
lump $-1 $-1 $60 $12 #
transform $-1 1 0 0 0 1 0 0 0 1 74.146549882503734 49.824616939081899 22.914731661384209 1 rotate no_reflect no_shear #
lump $-1 $-1 $61 $13 #
transform $-1 1 0 0 0 1 0 0 0 1 74.146549882503734 49.824616939081899 22.914731661384209 1 rotate no_reflect no_shear #
lump $-1 $-1 $62 $14 #
transform $-1 1 0 0 0 1 0 0 0 1 74.146549882503734 49.824616939081899 22.914731661384209 1 rotate no_reflect no_shear #
lump $-1 $-1 $63 $15 #
transform $-1 1 0 0 0 1 0 0 0 1 74.146549882503734 49.824616939081899 22.914731661384209 1 rotate no_reflect no_shear #
shell $-1 $-1 $-1 $64 $-1 $16 #
shell $-1 $-1 $-1 $65 $-1 $18 #
shell $-1 $-1 $-1 $66 $-1 $20 #
shell $-1 $-1 $-1 $67 $-1 $22 #
shell $-1 $-1 $-1 $68 $-1 $24 #
shell $-1 $-1 $-1 $69 $-1 $26 #
shell $-1 $-1 $-1 $70 $-1 $28 #
shell $-1 $-1 $-1 $71 $-1 $30 #
shell $-1 $-1 $-1 $72 $-1 $32 #
shell $-1 $-1 $-1 $73 $-1 $34 #
shell $-1 $-1 $-1 $74 $-1 $36 #
shell $-1 $-1 $-1 $75 $-1 $38 #
shell $-1 $-1 $-1 $76 $-1 $40 #
shell $-1 $-1 $-1 $77 $-1 $42 #
shell $-1 $-1 $-1 $78 $-1 $44 #
shell $-1 $-1 $-1 $79 $-1 $46 #
face $-1 $80 $81 $48 $-1 $82 forward single #
face $-1 $83 $84 $49 $-1 $85 forward single #
face $-1 $86 $87 $50 $-1 $88 reversed single #
face $-1 $89 $90 $51 $-1 $91 forward single #
face $-1 $92 $93 $52 $-1 $94 forward single #
face $-1 $95 $96 $53 $-1 $97 reversed single #
face $-1 $98 $99 $54 $-1 $100 forward single #
face $-1 $101 $102 $55 $-1 $103 forward single #
face $-1 $104 $105 $56 $-1 $106 reversed single #
face $-1 $107 $108 $57 $-1 $109 forward single #
face $-1 $110 $111 $58 $-1 $112 reversed single #
face $-1 $113 $114 $59 $-1 $115 forward single #
face $-1 $116 $117 $60 $-1 $118 reversed single #
face $-1 $119 $120 $61 $-1 $121 forward single #
face $-1 $122 $123 $62 $-1 $124 reversed single #
face $-1 $125 $126 $63 $-1 $127 forward single #
face $-1 $128 $129 $48 $-1 $130 reversed single #
loop $-1 $-1 $131 $64 #
plane-surface $-1 0 0 22.914731661384209 0 0 1 1 0 0 forward_v I I I I #
face $-1 $132 $133 $49 $-1 $134 reversed single #
loop $-1 $-1 $135 $65 #
plane-surface $-1 0 -49.824616939081899 0 0 1 0 0 0 1 forward_v I I I I #
face $-1 $136 $137 $50 $-1 $138 reversed single #
loop $-1 $-1 $139 $66 #
plane-surface $-1 -179.00560754614634 -21.636161222697318 116.59930827468897 0 1 0 -0.70710678939079041 0 0.70710677298230451 forward_v I I I I #
face $-1 $140 $141 $51 $-1 $142 forward single #
loop $-1 $143 $144 $67 #
cone-surface $-1 -67.349771167136268 -16.637249723394604 16.11795284443177 0.70710678939079041 0 -0.70710677298230451 0.70710677298230451 0 0.70710678939079041 1 I I 0 1 1 forward I I I I #
face $-1 $145 $146 $52 $-1 $147 forward single #
loop $-1 $148 $149 $68 #
cone-surface $-1 -67.349771167136268 -9.1388824744405355 16.11795284443177 0.70710678939079041 0 -0.70710677298230451 0.70710677298230451 0 0.70710678939079041 1 I I 0 1 1 forward I I I I #
face $-1 $150 $151 $53 $-1 $152 reversed single #
loop $-1 $-1 $153 $69 #
plane-surface $-1 -179.00560754614634 14.094227858192292 116.59930827468897 0 1 0 -0.70710678939079041 0 0.70710677298230451 forward_v I I I I #
face $-1 $154 $155 $54 $-1 $156 forward single #
loop $-1 $157 $158 $70 #
cone-surface $-1 -67.349771167136268 19.093139357494998 16.11795284443177 0.70710678939079041 0 -0.70710677298230451 0.70710677298230451 0 0.70710678939079041 1 I I 0 1 1 forward I I I I #
face $-1 $159 $160 $55 $-1 $161 forward single #
loop $-1 $162 $163 $71 #
cone-surface $-1 -67.349771167136268 26.59150660644908 16.11795284443177 0.70710678939079041 0 -0.70710677298230451 0.70710677298230451 0 0.70710678939079041 1 I I 0 1 1 forward I I I I #
face $-1 $164 $165 $56 $-1 $166 reversed single #
loop $-1 $-1 $167 $72 #
plane-surface $-1 96.068064685301522 -11.931588216221494 213.27337859452001 0 -1 0 -0.77714596973225614 0 -0.62932038083071107 forward_v I I I I #
face $-1 $168 $169 $57 $-1 $170 forward single #
loop $-1 $171 $172 $73 #
cone-surface $-1 64.461610106041945 -16.783874719459405 11.93752271450483 -0.77714596973225614 0 -0.62932038083071107 1.2586407616614221 0 -1.5542919394645123 1 I I 0 1 2 forward I I I I #
face $-1 $173 $174 $58 $-1 $175 reversed single #
loop $-1 $-1 $176 $74 #
plane-surface $-1 96.068064685301522 8.6538135022129676 213.27337859452001 0 -1 0 -0.77714596973225614 0 -0.62932038083071107 forward_v I I I I #
face $-1 $177 $178 $59 $-1 $179 forward single #
loop $-1 $180 $181 $75 #
cone-surface $-1 64.461610106041945 3.8015269989750564 11.93752271450483 -0.77714596973225614 0 -0.62932038083071107 1.2586407616614221 0 -1.5542919394645123 1 I I 0 1 2 forward I I I I #
face $-1 $182 $183 $60 $-1 $184 reversed single #
loop $-1 $-1 $185 $76 #
plane-surface $-1 96.068064685301522 29.239215220647438 213.27337859452001 0 -1 0 -0.77714596973225614 0 -0.62932038083071107 forward_v I I I I #
face $-1 $186 $187 $61 $-1 $188 forward single #
loop $-1 $189 $190 $77 #
cone-surface $-1 64.461610106041945 24.386928717409525 11.93752271450483 -0.77714596973225614 0 -0.62932038083071107 1.2586407616614221 0 -1.5542919394645123 1 I I 0 1 2 forward I I I I #
face $-1 $191 $192 $62 $-1 $193 reversed single #
loop $-1 $-1 $194 $78 #
plane-surface $-1 96.068064685301522 40.12004393260608 213.27337859452001 0 1 0 0.77714596973225614 0 0.62932038083071107 forward_v I I I I #
face $-1 $195 $196 $63 $-1 $197 forward single #
loop $-1 $198 $199 $79 #
cone-surface $-1 64.461610106041945 44.972330435843993 11.93752271450483 -0.77714596973225614 0 -0.62932038083071107 1.2586407616614221 0 -1.5542919394645123 1 I I 0 1 2 forward I I I I #
face $-1 $200 $201 $48 $-1 $202 reversed single #
loop $-1 $-1 $203 $80 #
plane-surface $-1 0 0 -22.914731661384209 0 0 1 1 0 0 forward_v I I I I #
coedge $-1 $204 $205 $206 $207 forward $81 $-1 #
face $-1 $208 $209 $49 $-1 $210 forward single #
loop $-1 $-1 $211 $83 #
plane-surface $-1 -74.146549882503734 0 0 1 0 0 0 0 -1 forward_v I I I I #
coedge $-1 $212 $213 $214 $215 forward $84 $-1 #
face $-1 $216 $217 $50 $-1 $218 reversed single #
loop $-1 $-1 $219 $86 #
plane-surface $-1 -74.146549882503734 -12.888066098917569 11.740253044311601 -0.70710678939079041 0 0.70710677298230451 0.70710677298230451 0 0.70710678939079041 forward_v I I I I #
coedge $-1 $220 $221 $222 $223 reversed $87 $-1 #
face $-1 $-1 $224 $51 $-1 $225 forward single #
loop $-1 $226 $227 $89 #
cone-surface $-1 -65.78667823595724 -16.637249723394604 14.554859949524477 0.70710678939079041 0 -0.70710677298230451 0.35355338649115226 0 0.35355339469539521 1 I I -0.70710678118654624 0.70710678118654879 0.5 forward I I I I #
loop $-1 $-1 $228 $67 #
coedge $-1 $144 $144 $229 $230 reversed $90 $-1 #
face $-1 $-1 $231 $52 $-1 $232 forward single #
loop $-1 $233 $234 $92 #
cone-surface $-1 -65.78667823595724 -9.1388824744405355 14.554859949524477 0.70710678939079041 0 -0.70710677298230451 0.35355338649115226 0 0.35355339469539521 1 I I -0.70710678118654624 0.70710678118654879 0.5 forward I I I I #
loop $-1 $-1 $235 $68 #
coedge $-1 $149 $149 $236 $237 reversed $93 $-1 #
face $-1 $238 $239 $53 $-1 $240 reversed single #
loop $-1 $-1 $241 $95 #
plane-surface $-1 -74.146549882503734 22.842322981972039 11.740253044311601 -0.70710678939079041 0 0.70710677298230451 0.70710677298230451 0 0.70710678939079041 forward_v I I I I #
coedge $-1 $242 $243 $244 $245 reversed $96 $-1 #
face $-1 $-1 $246 $54 $-1 $247 forward single #
loop $-1 $248 $249 $98 #
cone-surface $-1 -65.78667823595724 19.093139357494998 14.554859949524477 0.70710678939079041 0 -0.70710677298230451 0.35355338649115226 0 0.35355339469539521 1 I I -0.70710678118654624 0.70710678118654879 0.5 forward I I I I #
loop $-1 $-1 $250 $70 #
coedge $-1 $158 $158 $251 $252 reversed $99 $-1 #
face $-1 $-1 $253 $55 $-1 $254 forward single #
loop $-1 $255 $256 $101 #
cone-surface $-1 -65.78667823595724 26.59150660644908 14.554859949524477 0.70710678939079041 0 -0.70710677298230451 0.35355338649115226 0 0.35355339469539521 1 I I -0.70710678118654624 0.70710678118654879 0.5 forward I I I I #
loop $-1 $-1 $257 $71 #
coedge $-1 $163 $163 $258 $259 reversed $102 $-1 #
face $-1 $260 $261 $56 $-1 $262 reversed single #
loop $-1 $-1 $263 $104 #
plane-surface $-1 -19.177320136177414 -16.783874719459405 119.94950857583888 0.77714596973225614 0 0.62932038083071107 0.62932038083071107 0 -0.77714596973225614 forward_v I I I I #
coedge $-1 $264 $265 $266 $267 reversed $105 $-1 #
face $-1 $-1 $268 $57 $-1 $269 forward single #
loop $-1 $270 $271 $107 #
cone-surface $-1 61.372853920545225 -16.783874719459405 9.4362973403068509 -0.77714596973225614 0 -0.62932038083071107 0.62932038083071107 0 -0.77714596973225614 1 I I -0.70710678118654746 0.70710678118654746 1 forward I I I I #
loop $-1 $-1 $272 $73 #
coedge $-1 $172 $172 $273 $274 reversed $108 $-1 #
face $-1 $275 $276 $58 $-1 $277 reversed single #
loop $-1 $-1 $278 $110 #
plane-surface $-1 -19.177320136177414 3.8015269989750564 119.94950857583888 0.77714596973225614 0 0.62932038083071107 0.62932038083071107 0 -0.77714596973225614 forward_v I I I I #
coedge $-1 $279 $280 $281 $282 reversed $111 $-1 #
face $-1 $-1 $283 $59 $-1 $284 forward single #
loop $-1 $285 $286 $113 #
cone-surface $-1 61.372853920545225 3.8015269989750564 9.4362973403068509 -0.77714596973225614 0 -0.62932038083071107 0.62932038083071107 0 -0.77714596973225614 1 I I -0.70710678118654746 0.70710678118654746 1 forward I I I I #
loop $-1 $-1 $287 $75 #
coedge $-1 $181 $181 $288 $289 reversed $114 $-1 #
face $-1 $290 $291 $60 $-1 $292 reversed single #
loop $-1 $-1 $293 $116 #
plane-surface $-1 -19.177320136177414 24.386928717409525 119.94950857583888 0.77714596973225614 0 0.62932038083071107 0.62932038083071107 0 -0.77714596973225614 forward_v I I I I #
coedge $-1 $294 $295 $296 $297 reversed $117 $-1 #
face $-1 $-1 $298 $61 $-1 $299 forward single #
loop $-1 $300 $301 $119 #
cone-surface $-1 61.372853920545225 24.386928717409525 9.4362973403068509 -0.77714596973225614 0 -0.62932038083071107 0.62932038083071107 0 -0.77714596973225614 1 I I -0.70710678118654746 0.70710678118654746 1 forward I I I I #
loop $-1 $-1 $302 $77 #
coedge $-1 $190 $190 $303 $304 reversed $120 $-1 #
face $-1 $305 $306 $62 $-1 $307 reversed single #
loop $-1 $-1 $308 $122 #
plane-surface $-1 -19.177320136177414 44.972330435843993 119.94950857583888 0.77714596973225614 0 0.62932038083071107 0.62932038083071107 0 -0.77714596973225614 forward_v I I I I #
coedge $-1 $309 $310 $311 $312 reversed $123 $-1 #
face $-1 $-1 $313 $63 $-1 $314 forward single #
loop $-1 $315 $316 $125 #
cone-surface $-1 61.372853920545225 44.972330435843993 9.4362973403068509 -0.77714596973225614 0 -0.62932038083071107 0.62932038083071107 0 -0.77714596973225614 1 I I -0.70710678118654746 0.70710678118654746 1 forward I I I I #
loop $-1 $-1 $317 $79 #
coedge $-1 $199 $199 $318 $319 reversed $126 $-1 #
face $-1 $320 $321 $48 $-1 $322 reversed single #
loop $-1 $-1 $323 $128 #
plane-surface $-1 0 -49.824616939081899 0 0 1 0 0 0 1 forward_v I I I I #
coedge $-1 $324 $325 $326 $327 forward $129 $-1 #
coedge $-1 $328 $131 $329 $330 forward $81 $-1 #
coedge $-1 $131 $328 $331 $332 forward $81 $-1 #
coedge $-1 $333 $334 $131 $207 reversed $335 $-1 #
edge $-1 $336 -49.824616939081899 $337 49.824616939081899 $206 $338 forward 7 unknown #
face $-1 $339 $340 $49 $-1 $341 reversed single #
loop $-1 $-1 $342 $132 #
plane-surface $-1 0 -63.91884479727419 21.985044687031113 0 0 1 1 0 0 forward_v I I I I #
coedge $-1 $343 $344 $213 $345 forward $133 $-1 #
coedge $-1 $346 $135 $347 $348 reversed $84 $-1 #
coedge $-1 $135 $346 $211 $345 reversed $84 $-1 #
coedge $-1 $349 $342 $135 $215 reversed $209 $-1 #
edge $-1 $350 -74.146549882503734 $351 74.146549882503734 $214 $352 forward 7 unknown #
face $-1 $353 $354 $50 $-1 $355 forward single #
loop $-1 $-1 $356 $136 #
plane-surface $-1 -179.00560754614634 -4.1399709751378229 116.59930827468897 0 -1 0 0.70710678939079041 0 -0.70710677298230451 forward_v I I I I #
coedge $-1 $357 $358 $359 $360 reversed $137 $-1 #
coedge $-1 $221 $139 $361 $362 reversed $87 $-1 #
coedge $-1 $139 $220 $357 $363 reversed $87 $-1 #
coedge $-1 $359 $364 $139 $223 forward $354 $-1 #
edge $-1 $365 15.356253890569434 $366 26.530732248337117 $222 $367 forward 7 unknown #
loop $-1 $-1 $229 $140 #
plane-surface $-1 -74.146549882503734 -12.888066098917569 11.740253044311601 -0.70710678939079041 0 0.70710677298230451 0.70710677298230451 0 0.70710678939079041 forward_v I I I I #
loop $-1 $-1 $368 $89 #
coedge $-1 $227 $227 $228 $369 reversed $141 $-1 #
coedge $-1 $228 $228 $227 $369 forward $143 $-1 #
coedge $-1 $229 $229 $144 $230 forward $224 $-1 #
edge $-1 $370 0 $370 6.2831853071796004 $229 $371 forward 7 unknown #
loop $-1 $-1 $236 $145 #
plane-surface $-1 -74.146549882503734 -12.888066098917569 11.740253044311601 -0.70710678939079041 0 0.70710677298230451 0.70710677298230451 0 0.70710678939079041 forward_v I I I I #
loop $-1 $-1 $372 $92 #
coedge $-1 $234 $234 $235 $373 reversed $146 $-1 #
coedge $-1 $235 $235 $234 $373 forward $148 $-1 #
coedge $-1 $236 $236 $149 $237 forward $231 $-1 #
edge $-1 $374 0 $374 6.2831853071796004 $236 $375 forward 7 unknown #
face $-1 $376 $377 $53 $-1 $378 forward single #
loop $-1 $-1 $379 $150 #
plane-surface $-1 -179.00560754614634 31.590418105751787 116.59930827468897 0 -1 0 0.70710678939079041 0 -0.70710677298230451 forward_v I I I I #
coedge $-1 $380 $381 $382 $383 reversed $151 $-1 #
coedge $-1 $243 $153 $384 $385 reversed $96 $-1 #
coedge $-1 $153 $242 $380 $386 reversed $96 $-1 #
coedge $-1 $382 $387 $153 $245 forward $377 $-1 #
edge $-1 $388 15.356253890569434 $389 26.530732248337117 $244 $390 forward 7 unknown #
loop $-1 $-1 $251 $154 #
plane-surface $-1 -74.146549882503734 22.842322981972039 11.740253044311601 -0.70710678939079041 0 0.70710677298230451 0.70710677298230451 0 0.70710678939079041 forward_v I I I I #
loop $-1 $-1 $391 $98 #
coedge $-1 $249 $249 $250 $392 reversed $155 $-1 #
coedge $-1 $250 $250 $249 $392 forward $157 $-1 #
coedge $-1 $251 $251 $158 $252 forward $246 $-1 #
edge $-1 $393 0 $393 6.2831853071796004 $251 $394 forward 7 unknown #
loop $-1 $-1 $258 $159 #
plane-surface $-1 -74.146549882503734 22.842322981972039 11.740253044311601 -0.70710678939079041 0 0.70710677298230451 0.70710677298230451 0 0.70710678939079041 forward_v I I I I #
loop $-1 $-1 $395 $101 #
coedge $-1 $256 $256 $257 $396 reversed $160 $-1 #
coedge $-1 $257 $257 $256 $396 forward $162 $-1 #
coedge $-1 $258 $258 $163 $259 forward $253 $-1 #
edge $-1 $397 0 $397 6.2831853071796004 $258 $398 forward 7 unknown #
face $-1 $399 $400 $56 $-1 $401 reversed single #
loop $-1 $-1 $402 $164 #
plane-surface $-1 96.068064685301522 -21.636161222697318 213.27337859452001 0 1 0 0.77714596973225614 0 0.62932038083071107 forward_v I I I I #
coedge $-1 $403 $404 $405 $406 reversed $165 $-1 #
coedge $-1 $265 $167 $407 $408 reversed $105 $-1 #
coedge $-1 $167 $264 $403 $409 reversed $105 $-1 #
coedge $-1 $405 $410 $167 $267 forward $411 $-1 #
edge $-1 $412 -26.112517539852973 $413 -11.365858418458302 $266 $414 forward 7 unknown #
loop $-1 $-1 $273 $168 #
plane-surface $-1 -19.177320136177414 -16.783874719459405 119.94950857583888 0.77714596973225614 0 0.62932038083071107 0.62932038083071107 0 -0.77714596973225614 forward_v I I I I #
loop $-1 $-1 $415 $107 #
coedge $-1 $271 $271 $272 $416 reversed $169 $-1 #
coedge $-1 $272 $272 $271 $416 forward $171 $-1 #
coedge $-1 $273 $273 $172 $274 forward $268 $-1 #
edge $-1 $417 0 $417 6.2831853071796004 $273 $418 forward 7 unknown #
face $-1 $419 $420 $58 $-1 $421 reversed single #
loop $-1 $-1 $422 $173 #
plane-surface $-1 96.068064685301522 -1.0507595042628548 213.27337859452001 0 1 0 0.77714596973225614 0 0.62932038083071107 forward_v I I I I #
coedge $-1 $423 $424 $425 $426 reversed $174 $-1 #
coedge $-1 $280 $176 $427 $428 reversed $111 $-1 #
coedge $-1 $176 $279 $423 $429 reversed $111 $-1 #
coedge $-1 $425 $430 $176 $282 forward $431 $-1 #
edge $-1 $432 -26.112517539852973 $433 -11.365858418458302 $281 $434 forward 7 unknown #
loop $-1 $-1 $288 $177 #
plane-surface $-1 -19.177320136177414 3.8015269989750564 119.94950857583888 0.77714596973225614 0 0.62932038083071107 0.62932038083071107 0 -0.77714596973225614 forward_v I I I I #
loop $-1 $-1 $435 $113 #
coedge $-1 $286 $286 $287 $436 reversed $178 $-1 #
coedge $-1 $287 $287 $286 $436 forward $180 $-1 #
coedge $-1 $288 $288 $181 $289 forward $283 $-1 #
edge $-1 $437 0 $437 6.2831853071796004 $288 $438 forward 7 unknown #
face $-1 $439 $440 $60 $-1 $441 reversed single #
loop $-1 $-1 $442 $182 #
plane-surface $-1 96.068064685301522 19.534642214171612 213.27337859452001 0 1 0 0.77714596973225614 0 0.62932038083071107 forward_v I I I I #
coedge $-1 $443 $444 $445 $446 reversed $183 $-1 #
coedge $-1 $295 $185 $447 $448 reversed $117 $-1 #
coedge $-1 $185 $294 $443 $449 reversed $117 $-1 #
coedge $-1 $445 $450 $185 $297 forward $451 $-1 #
edge $-1 $452 -26.112517539852973 $453 -11.365858418458302 $296 $454 forward 7 unknown #
loop $-1 $-1 $303 $186 #
plane-surface $-1 -19.177320136177414 24.386928717409525 119.94950857583888 0.77714596973225614 0 0.62932038083071107 0.62932038083071107 0 -0.77714596973225614 forward_v I I I I #
loop $-1 $-1 $455 $119 #
coedge $-1 $301 $301 $302 $456 reversed $187 $-1 #
coedge $-1 $302 $302 $301 $456 forward $189 $-1 #
coedge $-1 $303 $303 $190 $304 forward $298 $-1 #
edge $-1 $457 0 $457 6.2831853071796004 $303 $458 forward 7 unknown #
face $-1 $459 $460 $62 $-1 $461 reversed single #
loop $-1 $-1 $311 $191 #
plane-surface $-1 74.146549882503734 0 0 -1 0 0 0 0 1 forward_v I I I I #
coedge $-1 $462 $463 $464 $465 reversed $192 $-1 #
coedge $-1 $310 $194 $466 $467 reversed $123 $-1 #
coedge $-1 $194 $309 $462 $468 reversed $123 $-1 #
coedge $-1 $464 $469 $194 $312 forward $306 $-1 #
edge $-1 $470 83.721957635875796 $471 101.93256554290008 $311 $472 forward 7 unknown #
loop $-1 $-1 $318 $195 #
plane-surface $-1 -19.177320136177414 44.972330435843993 119.94950857583888 0.77714596973225614 0 0.62932038083071107 0.62932038083071107 0 -0.77714596973225614 forward_v I I I I #
loop $-1 $-1 $473 $125 #
coedge $-1 $316 $316 $317 $474 reversed $196 $-1 #
coedge $-1 $317 $317 $316 $474 forward $198 $-1 #
coedge $-1 $318 $318 $199 $319 forward $313 $-1 #
edge $-1 $475 0 $475 6.2831853071796004 $318 $476 forward 7 unknown #
face $-1 $477 $478 $48 $-1 $479 reversed single #
loop $-1 $-1 $480 $200 #
plane-surface $-1 -74.146549882503734 0 0 1 0 0 0 0 -1 forward_v I I I I #
coedge $-1 $481 $331 $482 $483 forward $201 $-1 #
coedge $-1 $484 $203 $481 $485 forward $129 $-1 #
coedge $-1 $203 $484 $486 $487 forward $129 $-1 #
coedge $-1 $334 $333 $203 $327 reversed $335 $-1 #
edge $-1 $488 -49.824616939081899 $489 49.824616939081899 $326 $490 forward 7 unknown #
coedge $-1 $205 $204 $491 $492 forward $81 $-1 #
coedge $-1 $493 $494 $204 $330 reversed $478 $-1 #
edge $-1 $337 -74.146549882503734 $495 74.146549882503734 $329 $496 forward 7 unknown #
coedge $-1 $323 $497 $205 $332 reversed $201 $-1 #
edge $-1 $498 -74.146549882503734 $336 74.146549882503734 $331 $499 forward 7 unknown #
coedge $-1 $326 $206 $497 $500 forward $335 $-1 #
coedge $-1 $206 $326 $493 $501 reversed $335 $-1 #
loop $-1 $-1 $333 $477 #
vertex $-1 $207 $502 #
vertex $-1 $207 $503 #
straight-curve $-1 74.146549882503734 0 22.914731661384209 0 1 0 I I #
face $-1 $504 $505 $49 $-1 $506 reversed single #
loop $-1 $-1 $507 $208 #
plane-surface $-1 0 -63.91884479727419 12.507673355465478 0 0 1 1 0 0 forward_v I I I I #
coedge $-1 $214 $508 $509 $510 forward $209 $-1 #
coedge $-1 $511 $211 $512 $513 reversed $133 $-1 #
coedge $-1 $211 $511 $349 $514 reversed $133 $-1 #
edge $-1 $350 -21.985044687031113 $515 -12.507673355465478 $211 $516 forward 7 unknown #
coedge $-1 $213 $212 $517 $518 forward $84 $-1 #
coedge $-1 $509 $519 $212 $348 forward $520 $-1 #
edge $-1 $521 12.507673355465478 $351 21.985044687031113 $347 $522 forward 7 unknown #
coedge $-1 $508 $214 $344 $514 forward $209 $-1 #
vertex $-1 $345 $523 #
vertex $-1 $510 $524 #
straight-curve $-1 0 -49.824616939081899 21.985044687031113 1 0 0 I I #
face $-1 $-1 $525 $50 $-1 $526 reversed single #
loop $-1 $-1 $222 $216 #
plane-surface $-1 0 0 22.914731661384209 0 0 1 1 0 0 forward_v I I I I #
coedge $-1 $527 $528 $529 $530 reversed $217 $-1 #
coedge $-1 $531 $219 $221 $363 forward $137 $-1 #
coedge $-1 $219 $531 $527 $532 forward $137 $-1 #
coedge $-1 $529 $222 $219 $360 forward $354 $-1 #
edge $-1 $366 -15.192128173238533 $533 2.3040620743209619 $359 $534 forward 7 unknown #
coedge $-1 $535 $536 $220 $362 forward $525 $-1 #
edge $-1 $537 -46.559401093032882 $365 -35.384922475960273 $361 $538 forward 7 unknown #
edge $-1 $366 -15.803099029355964 $537 0 $221 $539 forward 7 unknown #
coedge $-1 $222 $529 $535 $540 forward $354 $-1 #
vertex $-1 $362 $541 #
vertex $-1 $223 $542 #
straight-curve $-1 -89.502803773073168 -21.636161222697318 22.914731661384209 1 0 0 I I #
coedge $-1 $368 $368 $-1 $543 reversed $226 $-1 #
edge $-1 $544 0 $544 6.2831853071796004 $227 $545 forward 7 unknown #
vertex $-1 $230 $546 #
ellipse-curve $-1 -68.5593107036199 -16.637249723394604 17.327492352847905 -0.70710678939079041 0 0.70710677298230451 0.70710677298230451 0 0.70710678939079041 1 I I #
coedge $-1 $372 $372 $-1 $547 reversed $233 $-1 #
edge $-1 $548 0 $548 6.2831853071796004 $234 $549 forward 7 unknown #
vertex $-1 $237 $550 #
ellipse-curve $-1 -68.5593107036199 -9.1388824744405355 17.327492352847905 -0.70710678939079041 0 0.70710677298230451 0.70710677298230451 0 0.70710678939079041 1 I I #
face $-1 $-1 $551 $53 $-1 $552 reversed single #
loop $-1 $-1 $244 $238 #
plane-surface $-1 0 0 22.914731661384209 0 0 1 1 0 0 forward_v I I I I #
coedge $-1 $553 $554 $555 $556 reversed $239 $-1 #
coedge $-1 $557 $241 $243 $386 forward $151 $-1 #
coedge $-1 $241 $557 $553 $558 forward $151 $-1 #
coedge $-1 $555 $244 $241 $383 forward $377 $-1 #
edge $-1 $389 2.6730663672062729 $559 20.169256614765768 $382 $560 forward 7 unknown #
coedge $-1 $561 $562 $242 $385 forward $551 $-1 #
edge $-1 $563 -46.559401093032882 $388 -35.384922475960273 $384 $564 forward 7 unknown #
edge $-1 $389 -15.803099029355964 $563 0 $243 $565 forward 7 unknown #
coedge $-1 $244 $555 $561 $566 forward $377 $-1 #
vertex $-1 $245 $567 #
vertex $-1 $245 $568 #
straight-curve $-1 -89.502803773073168 14.094227858192292 22.914731661384209 1 0 0 I I #
coedge $-1 $391 $391 $-1 $569 reversed $248 $-1 #
edge $-1 $570 0 $570 6.2831853071796004 $249 $571 forward 7 unknown #
vertex $-1 $252 $572 #
ellipse-curve $-1 -68.5593107036199 19.093139357494998 17.327492352847905 -0.70710678939079041 0 0.70710677298230451 0.70710677298230451 0 0.70710678939079041 1 I I #
coedge $-1 $395 $395 $-1 $573 reversed $255 $-1 #
edge $-1 $574 0 $574 6.2831853071796004 $256 $575 forward 7 unknown #
vertex $-1 $259 $576 #
ellipse-curve $-1 -68.5593107036199 26.59150660644908 17.327492352847905 -0.70710678939079041 0 0.70710677298230451 0.70710677298230451 0 0.70710678939079041 1 I I #
face $-1 $-1 $411 $56 $-1 $577 forward single #
loop $-1 $-1 $578 $260 #
plane-surface $-1 74.146549882503734 0 0 -1 0 0 0 0 1 forward_v I I I I #
coedge $-1 $579 $580 $581 $582 reversed $261 $-1 #
coedge $-1 $583 $263 $265 $409 forward $165 $-1 #
coedge $-1 $263 $583 $579 $584 forward $165 $-1 #
coedge $-1 $581 $266 $263 $406 forward $411 $-1 #
edge $-1 $413 3.5396508564917912 $585 13.244223862967615 $405 $586 forward 7 unknown #
coedge $-1 $587 $588 $264 $408 forward $400 $-1 #
edge $-1 $589 -101.93256554290008 $412 -83.721957635875796 $407 $590 forward 7 unknown #
edge $-1 $413 124.86042608943242 $589 148.2930997650075 $265 $591 forward 7 unknown #
coedge $-1 $266 $581 $587 $592 forward $411 $-1 #
loop $-1 $-1 $581 $399 #
vertex $-1 $408 $593 #
vertex $-1 $267 $594 #
straight-curve $-1 48.034032342650761 -11.931588216221494 22.914731661384209 -1 0 0 I I #
coedge $-1 $415 $415 $-1 $595 reversed $270 $-1 #
edge $-1 $596 0 $596 6.2831853071796004 $271 $597 forward 7 unknown #
vertex $-1 $274 $598 #
ellipse-curve $-1 66.773220321806392 -16.783874719459405 13.80942770787208 0.77714596973225614 0 0.62932038083071107 1.2586407616614221 0 -1.5542919394645123 1 I I #
face $-1 $-1 $431 $58 $-1 $599 forward single #
loop $-1 $-1 $600 $275 #
plane-surface $-1 74.146549882503734 0 0 -1 0 0 0 0 1 forward_v I I I I #
coedge $-1 $601 $602 $603 $604 reversed $276 $-1 #
coedge $-1 $605 $278 $280 $429 forward $174 $-1 #
coedge $-1 $278 $605 $601 $606 forward $174 $-1 #
coedge $-1 $603 $281 $278 $426 forward $431 $-1 #
edge $-1 $433 -6.7530500027254394 $607 2.951523003750383 $425 $608 forward 7 unknown #
coedge $-1 $609 $610 $279 $428 forward $420 $-1 #
edge $-1 $611 -101.93256554290008 $432 -83.721957635875796 $427 $612 forward 7 unknown #
edge $-1 $433 124.86042608943242 $611 148.2930997650075 $280 $613 forward 7 unknown #
coedge $-1 $281 $603 $609 $614 forward $431 $-1 #
loop $-1 $-1 $603 $419 #
vertex $-1 $428 $615 #
vertex $-1 $282 $616 #
straight-curve $-1 48.034032342650761 8.6538135022129676 22.914731661384209 -1 0 0 I I #
coedge $-1 $435 $435 $-1 $617 reversed $285 $-1 #
edge $-1 $618 0 $618 6.2831853071796004 $286 $619 forward 7 unknown #
vertex $-1 $289 $620 #
ellipse-curve $-1 66.773220321806392 3.8015269989750564 13.80942770787208 0.77714596973225614 0 0.62932038083071107 1.2586407616614221 0 -1.5542919394645123 1 I I #
face $-1 $-1 $451 $60 $-1 $621 forward single #
loop $-1 $-1 $622 $290 #
plane-surface $-1 74.146549882503734 0 0 -1 0 0 0 0 1 forward_v I I I I #
coedge $-1 $623 $624 $625 $626 reversed $291 $-1 #
coedge $-1 $627 $293 $295 $449 forward $183 $-1 #
coedge $-1 $293 $627 $623 $628 forward $183 $-1 #
coedge $-1 $625 $296 $293 $446 forward $451 $-1 #
edge $-1 $453 -17.045750861942675 $629 -7.3411778554668494 $445 $630 forward 7 unknown #
coedge $-1 $631 $632 $294 $448 forward $440 $-1 #
edge $-1 $633 -101.93256554290008 $452 -83.721957635875796 $447 $634 forward 7 unknown #
edge $-1 $453 124.86042608943242 $633 148.2930997650075 $295 $635 forward 7 unknown #
coedge $-1 $296 $625 $631 $636 forward $451 $-1 #
loop $-1 $-1 $625 $439 #
vertex $-1 $448 $637 #
vertex $-1 $297 $638 #
straight-curve $-1 48.034032342650761 29.239215220647438 22.914731661384209 -1 0 0 I I #
coedge $-1 $455 $455 $-1 $639 reversed $300 $-1 #
edge $-1 $640 0 $640 6.2831853071796004 $301 $641 forward 7 unknown #
vertex $-1 $304 $642 #
ellipse-curve $-1 66.773220321806392 24.386928717409525 13.80942770787208 0.77714596973225614 0 0.62932038083071107 1.2586407616614221 0 -1.5542919394645123 1 I I #
face $-1 $-1 $643 $62 $-1 $644 forward single #
loop $-1 $-1 $645 $305 #
plane-surface $-1 0 49.824616939081899 0 0 -1 0 0 0 -1 forward_v I I I I #
coedge $-1 $646 $308 $310 $468 forward $192 $-1 #
coedge $-1 $308 $646 $645 $647 reversed $192 $-1 #
coedge $-1 $648 $311 $308 $465 forward $306 $-1 #
edge $-1 $471 17.633878714684084 $649 27.338451721159903 $464 $650 forward 7 unknown #
coedge $-1 $651 $652 $309 $467 forward $643 $-1 #
edge $-1 $653 11.365858418458302 $470 26.112517539852973 $466 $654 forward 7 unknown #
edge $-1 $471 -148.2930997650075 $653 -124.86042608943242 $310 $655 forward 7 unknown #
coedge $-1 $311 $648 $651 $656 reversed $306 $-1 #
vertex $-1 $656 $657 #
vertex $-1 $312 $658 #
straight-curve $-1 74.146549882503734 40.12004393260608 106.63668929726001 0 0 -1 I I #
coedge $-1 $473 $473 $-1 $659 reversed $315 $-1 #
edge $-1 $660 0 $660 6.2831853071796004 $316 $661 forward 7 unknown #
vertex $-1 $319 $662 #
ellipse-curve $-1 66.773220321806392 44.972330435843993 13.80942770787208 0.77714596973225614 0 0.62932038083071107 1.2586407616614221 0 -1.5542919394645123 1 I I #
face $-1 $-1 $335 $48 $-1 $663 reversed single #
loop $-1 $-1 $493 $320 #
plane-surface $-1 0 49.824616939081899 0 0 -1 0 0 0 -1 forward_v I I I I #
coedge $-1 $664 $491 $494 $665 forward $321 $-1 #
coedge $-1 $497 $323 $324 $485 reversed $201 $-1 #
coedge $-1 $491 $664 $323 $483 reversed $321 $-1 #
edge $-1 $498 -22.914731661384209 $666 22.914731661384209 $482 $667 forward 7 unknown #
coedge $-1 $325 $324 $664 $668 forward $129 $-1 #
edge $-1 $489 -74.146549882503734 $666 74.146549882503734 $481 $669 forward 7 unknown #
coedge $-1 $494 $493 $325 $487 reversed $478 $-1 #
edge $-1 $670 -74.146549882503734 $488 74.146549882503734 $486 $671 forward 7 unknown #
vertex $-1 $327 $672 #
vertex $-1 $500 $673 #
straight-curve $-1 74.146549882503734 0 -22.914731661384209 0 -1 0 I I #
coedge $-1 $480 $482 $328 $492 reversed $321 $-1 #
edge $-1 $495 -49.824616939081899 $498 49.824616939081899 $491 $674 forward 7 unknown #
coedge $-1 $486 $329 $334 $501 forward $478 $-1 #
coedge $-1 $329 $486 $480 $665 reversed $478 $-1 #
vertex $-1 $330 $675 #
straight-curve $-1 0 49.824616939081899 22.914731661384209 -1 0 0 I I #
coedge $-1 $331 $481 $333 $500 reversed $201 $-1 #
vertex $-1 $492 $676 #
straight-curve $-1 0 -49.824616939081899 22.914731661384209 1 0 0 I I #
edge $-1 $336 -22.914731661384209 $489 22.914731661384209 $333 $677 forward 7 unknown #
edge $-1 $337 -22.914731661384209 $488 22.914731661384209 $334 $678 forward 7 unknown #
point $-1 74.146549882503734 -49.824616939081899 22.914731661384209 #
point $-1 74.146549882503734 49.824616939081899 22.914731661384209 #
face $-1 $-1 $520 $49 $-1 $679 reversed single #
loop $-1 $-1 $680 $339 #
plane-surface $-1 0 -78.013072655466488 17.246359021248296 0 1 0 0 0 1 forward_v I I I I #
coedge $-1 $681 $517 $519 $682 forward $340 $-1 #
coedge $-1 $342 $349 $683 $684 forward $209 $-1 #
coedge $-1 $685 $347 $342 $510 reversed $520 $-1 #
edge $-1 $686 -14.094227858192298 $351 14.094227858192291 $509 $687 forward 7 unknown #
coedge $-1 $344 $343 $680 $688 reversed $133 $-1 #
coedge $-1 $517 $681 $343 $513 forward $340 $-1 #
edge $-1 $689 -14.094227858192298 $515 14.094227858192291 $343 $690 forward 7 unknown #
edge $-1 $350 -14.094227858192291 $691 14.094227858192298 $344 $692 forward 7 unknown #
vertex $-1 $345 $693 #
straight-curve $-1 -74.146549882503734 -49.824616939081899 0 0 0 -1 I I #
coedge $-1 $507 $512 $346 $518 reversed $340 $-1 #
edge $-1 $521 -74.146549882503734 $515 74.146549882503734 $517 $694 forward 7 unknown #
coedge $-1 $347 $685 $507 $682 reversed $520 $-1 #
loop $-1 $-1 $347 $504 #
vertex $-1 $348 $695 #
straight-curve $-1 74.146549882503734 -49.824616939081899 0 0 0 1 I I #
point $-1 -74.146549882503734 -49.824616939081899 21.985044687031113 #
point $-1 74.146549882503734 -49.824616939081899 21.985044687031113 #
loop $-1 $-1 $361 $353 #
plane-surface $-1 -74.146549882503734 0 0 1 0 0 0 0 -1 forward_v I I I I #
coedge $-1 $528 $356 $358 $532 reversed $217 $-1 #
coedge $-1 $356 $527 $696 $697 reversed $217 $-1 #
coedge $-1 $364 $359 $356 $530 forward $354 $-1 #
edge $-1 $533 -26.530732248337117 $698 -15.356253890569434 $529 $699 forward 7 unknown #
coedge $-1 $358 $357 $536 $700 reversed $137 $-1 #
edge $-1 $701 0 $533 15.803099029355964 $527 $702 forward 7 unknown #
vertex $-1 $360 $703 #
straight-curve $-1 -62.972071524736059 -6.4440330494587847 22.914731661384209 0 1 0 I I #
coedge $-1 $696 $361 $364 $540 reversed $525 $-1 #
coedge $-1 $361 $696 $531 $700 forward $525 $-1 #
vertex $-1 $362 $704 #
straight-curve $-1 -74.146549882503734 -21.636161222697318 58.299654137344483 0 0 1 I I #
straight-curve $-1 -74.146549882503734 -21.636161222697318 11.740253044311601 -0.70710677298230451 0 -0.70710678939079041 I I #
edge $-1 $698 4.1399709751378229 $365 21.636161222697318 $535 $705 forward 7 unknown #
point $-1 -74.146549882503734 -21.636161222697318 22.914731661384209 #
point $-1 -62.972071524736052 -21.636161222697318 22.914731661384209 #
edge $-1 $706 1 $706 0 $368 $-1 forward 7 unknown #
vertex $-1 $369 $707 #
ellipse-curve $-1 -66.140231630652636 -16.637249723394604 14.908413336015631 -0.70710678939079041 0 0.70710677298230451 0.70710677298230451 0 0.70710678939079041 1 I I #
point $-1 -67.852203930637586 -16.637249723394604 18.034599142238701 #
edge $-1 $708 1 $708 0 $372 $-1 forward 7 unknown #
vertex $-1 $373 $709 #
ellipse-curve $-1 -66.140231630652636 -9.1388824744405355 14.908413336015631 -0.70710678939079041 0 0.70710677298230451 0.70710677298230451 0 0.70710678939079041 1 I I #
point $-1 -67.852203930637586 -9.1388824744405355 18.034599142238701 #
loop $-1 $-1 $384 $376 #
plane-surface $-1 -74.146549882503734 0 0 1 0 0 0 0 -1 forward_v I I I I #
coedge $-1 $554 $379 $381 $558 reversed $239 $-1 #
coedge $-1 $379 $553 $710 $711 reversed $239 $-1 #
coedge $-1 $387 $382 $379 $556 forward $377 $-1 #
edge $-1 $559 -26.530732248337117 $712 -15.356253890569434 $555 $713 forward 7 unknown #
coedge $-1 $381 $380 $562 $714 reversed $151 $-1 #
edge $-1 $715 0 $559 15.803099029355964 $553 $716 forward 7 unknown #
vertex $-1 $383 $717 #
straight-curve $-1 -62.972071524736059 11.42116149098602 22.914731661384209 0 1 0 I I #
coedge $-1 $710 $384 $387 $566 reversed $551 $-1 #
coedge $-1 $384 $710 $557 $714 forward $551 $-1 #
vertex $-1 $385 $718 #
straight-curve $-1 -74.146549882503734 14.094227858192292 58.299654137344483 0 0 1 I I #
straight-curve $-1 -74.146549882503734 14.094227858192292 11.740253044311601 -0.70710677298230451 0 -0.70710678939079041 I I #
edge $-1 $712 -31.590418105751787 $388 -14.094227858192292 $561 $719 forward 7 unknown #
point $-1 -74.146549882503734 14.094227858192292 22.914731661384209 #
point $-1 -62.972071524736052 14.094227858192292 22.914731661384209 #
edge $-1 $720 1 $720 0 $391 $-1 forward 7 unknown #
vertex $-1 $392 $721 #
ellipse-curve $-1 -66.140231630652636 19.093139357494998 14.908413336015631 -0.70710678939079041 0 0.70710677298230451 0.70710677298230451 0 0.70710678939079041 1 I I #
point $-1 -67.852203930637586 19.093139357494998 18.034599142238701 #
edge $-1 $722 1 $722 0 $395 $-1 forward 7 unknown #
vertex $-1 $396 $723 #
ellipse-curve $-1 -66.140231630652636 26.59150660644908 14.908413336015631 -0.70710678939079041 0 0.70710677298230451 0.70710677298230451 0 0.70710678939079041 1 I I #
point $-1 -67.852203930637586 26.59150660644908 18.034599142238701 #
plane-surface $-1 0 0 22.914731661384209 0 0 1 1 0 0 forward_v I I I I #
coedge $-1 $588 $587 $580 $724 forward $400 $-1 #
coedge $-1 $580 $402 $404 $584 reversed $261 $-1 #
coedge $-1 $402 $579 $578 $724 reversed $261 $-1 #
coedge $-1 $410 $405 $402 $582 forward $411 $-1 #
edge $-1 $585 11.365858418458302 $725 26.112517539852973 $581 $726 forward 7 unknown #
coedge $-1 $404 $403 $588 $727 reversed $165 $-1 #
edge $-1 $728 -148.2930997650075 $585 -124.86042608943242 $579 $729 forward 7 unknown #
vertex $-1 $406 $730 #
straight-curve $-1 59.399890761109063 -8.3919373597297025 22.914731661384216 0 -1 0 I I #
coedge $-1 $578 $407 $410 $592 reversed $400 $-1 #
coedge $-1 $407 $578 $583 $727 forward $400 $-1 #
vertex $-1 $408 $731 #
straight-curve $-1 74.146549882503734 -11.931588216221494 106.63668929726001 0 0 1 I I #
straight-curve $-1 -19.177320136177414 -11.931588216221494 119.94950857583888 0.62932038083071107 0 -0.77714596973225614 I I #
edge $-1 $725 -21.636161222697318 $412 -11.931588216221494 $587 $732 forward 7 unknown #
point $-1 74.146549882503734 -11.931588216221494 22.914731661384209 #
point $-1 59.399890761109063 -11.931588216221494 22.914731661384209 #
edge $-1 $733 1 $733 0 $415 $-1 forward 7 unknown #
vertex $-1 $416 $734 #
ellipse-curve $-1 62.149999890277478 -16.783874719459405 10.065617721137562 0.77714596973225614 0 0.62932038083071107 1.2586407616614221 0 -1.5542919394645123 1 I I #
point $-1 68.031861083467845 -16.783874719459405 12.255135768407586 #
plane-surface $-1 0 0 22.914731661384209 0 0 1 1 0 0 forward_v I I I I #
coedge $-1 $610 $609 $602 $735 forward $420 $-1 #
coedge $-1 $602 $422 $424 $606 reversed $276 $-1 #
coedge $-1 $422 $601 $600 $735 reversed $276 $-1 #
coedge $-1 $430 $425 $422 $604 forward $431 $-1 #
edge $-1 $607 11.365858418458302 $736 26.112517539852973 $603 $737 forward 7 unknown #
coedge $-1 $424 $423 $610 $738 reversed $174 $-1 #
edge $-1 $739 -148.2930997650075 $607 -124.86042608943242 $601 $740 forward 7 unknown #
vertex $-1 $426 $741 #
straight-curve $-1 59.399890761109063 1.9007634994875282 22.914731661384216 0 -1 0 I I #
coedge $-1 $600 $427 $430 $614 reversed $420 $-1 #
coedge $-1 $427 $600 $605 $738 forward $420 $-1 #
vertex $-1 $428 $742 #
straight-curve $-1 74.146549882503734 8.6538135022129676 106.63668929726001 0 0 1 I I #
straight-curve $-1 -19.177320136177414 8.6538135022129676 119.94950857583888 0.62932038083071107 0 -0.77714596973225614 I I #
edge $-1 $736 -1.0507595042628548 $432 8.6538135022129676 $609 $743 forward 7 unknown #
point $-1 74.146549882503734 8.6538135022129676 22.914731661384209 #
point $-1 59.399890761109063 8.6538135022129676 22.914731661384209 #
edge $-1 $744 1 $744 0 $435 $-1 forward 7 unknown #
vertex $-1 $436 $745 #
ellipse-curve $-1 62.149999890277478 3.8015269989750564 10.065617721137562 0.77714596973225614 0 0.62932038083071107 1.2586407616614221 0 -1.5542919394645123 1 I I #
point $-1 68.031861083467845 3.8015269989750564 12.255135768407586 #
plane-surface $-1 0 0 22.914731661384209 0 0 1 1 0 0 forward_v I I I I #
coedge $-1 $632 $631 $624 $746 forward $440 $-1 #
coedge $-1 $624 $442 $444 $628 reversed $291 $-1 #
coedge $-1 $442 $623 $622 $746 reversed $291 $-1 #
coedge $-1 $450 $445 $442 $626 forward $451 $-1 #
edge $-1 $629 11.365858418458302 $747 26.112517539852973 $625 $748 forward 7 unknown #
coedge $-1 $444 $443 $632 $749 reversed $183 $-1 #
edge $-1 $750 -148.2930997650075 $629 -124.86042608943242 $623 $751 forward 7 unknown #
vertex $-1 $446 $752 #
straight-curve $-1 59.399890761109063 12.193464358704762 22.914731661384216 0 -1 0 I I #
coedge $-1 $622 $447 $450 $636 reversed $440 $-1 #
coedge $-1 $447 $622 $627 $749 forward $440 $-1 #
vertex $-1 $448 $753 #
straight-curve $-1 74.146549882503734 29.239215220647438 106.63668929726001 0 0 1 I I #
straight-curve $-1 -19.177320136177414 29.239215220647438 119.94950857583888 0.62932038083071107 0 -0.77714596973225614 I I #
edge $-1 $747 19.534642214171612 $452 29.239215220647438 $631 $754 forward 7 unknown #
point $-1 74.146549882503734 29.239215220647438 22.914731661384209 #
point $-1 59.399890761109063 29.239215220647438 22.914731661384209 #
edge $-1 $755 1 $755 0 $455 $-1 forward 7 unknown #
vertex $-1 $456 $756 #
ellipse-curve $-1 62.149999890277478 24.386928717409525 10.065617721137562 0.77714596973225614 0 0.62932038083071107 1.2586407616614221 0 -1.5542919394645123 1 I I #
point $-1 68.031861083467845 24.386928717409525 12.255135768407586 #
loop $-1 $-1 $466 $459 #
plane-surface $-1 0 0 22.914731661384209 0 0 1 1 0 0 forward_v I I I I #
coedge $-1 $757 $758 $463 $647 forward $460 $-1 #
coedge $-1 $463 $462 $652 $759 reversed $192 $-1 #
edge $-1 $649 -95.649621978762752 $760 -72.216948303187692 $645 $761 forward 7 unknown #
coedge $-1 $469 $464 $758 $762 reversed $306 $-1 #
vertex $-1 $647 $763 #
straight-curve $-1 74.14654988250372 22.486165217921997 4.7041237543599266 0 1 0 I I #
coedge $-1 $764 $466 $469 $656 forward $643 $-1 #
coedge $-1 $466 $764 $646 $759 forward $643 $-1 #
vertex $-1 $467 $765 #
straight-curve $-1 48.034032342650761 40.12004393260608 22.914731661384209 1 0 0 I I #
straight-curve $-1 -19.177320136177414 40.12004393260608 119.94950857583888 -0.62932038083071107 0 0.77714596973225614 I I #
edge $-1 $470 40.12004393260608 $766 49.824616939081899 $469 $767 forward 7 unknown #
point $-1 74.146549882503734 40.12004393260608 22.914731661384209 #
point $-1 74.146549882503734 40.12004393260608 4.7041237543599266 #
edge $-1 $768 1 $768 0 $473 $-1 forward 7 unknown #
vertex $-1 $474 $769 #
ellipse-curve $-1 62.149999890277478 44.972330435843993 10.065617721137562 0.77714596973225614 0 0.62932038083071107 1.2586407616614221 0 -1.5542919394645123 1 I I #
point $-1 68.031861083467845 44.972330435843993 12.255135768407586 #
plane-surface $-1 74.146549882503734 0 0 -1 0 0 0 0 1 forward_v I I I I #
coedge $-1 $482 $480 $484 $668 reversed $321 $-1 #
edge $-1 $495 -22.914731661384209 $670 22.914731661384209 $494 $770 forward 7 unknown #
vertex $-1 $668 $771 #
straight-curve $-1 -74.146549882503734 -49.824616939081899 0 0 0 -1 I I #
edge $-1 $666 -49.824616939081899 $670 49.824616939081899 $664 $772 forward 7 unknown #
straight-curve $-1 0 -49.824616939081899 -22.914731661384209 -1 0 0 I I #
vertex $-1 $487 $773 #
straight-curve $-1 0 49.824616939081899 -22.914731661384209 1 0 0 I I #
point $-1 74.146549882503734 49.824616939081899 -22.914731661384209 #
point $-1 74.146549882503734 -49.824616939081899 -22.914731661384209 #
straight-curve $-1 -74.146549882503734 0 22.914731661384209 0 -1 0 I I #
point $-1 -74.146549882503734 49.824616939081899 22.914731661384209 #
point $-1 -74.146549882503734 -49.824616939081899 22.914731661384209 #
straight-curve $-1 74.146549882503734 -49.824616939081899 0 0 0 -1 I I #
straight-curve $-1 74.146549882503734 49.824616939081899 0 0 0 -1 I I #
plane-surface $-1 74.146549882503734 0 0 -1 0 0 0 0 1 forward_v I I I I #
coedge $-1 $774 $683 $511 $688 forward $505 $-1 #
coedge $-1 $512 $507 $774 $775 forward $340 $-1 #
edge $-1 $521 -14.094227858192291 $776 14.094227858192298 $519 $777 forward 7 unknown #
coedge $-1 $680 $778 $508 $684 reversed $505 $-1 #
edge $-1 $691 -74.146549882503734 $686 74.146549882503734 $683 $779 forward 7 unknown #
coedge $-1 $519 $509 $778 $780 forward $520 $-1 #
vertex $-1 $510 $781 #
straight-curve $-1 74.146549882503734 -63.91884479727419 21.985044687031113 0 1 0 I I #
edge $-1 $691 -4.7386856657828176 $689 4.7386856657828176 $511 $782 forward 7 unknown #
vertex $-1 $513 $783 #
straight-curve $-1 -74.146549882503734 -63.91884479727419 12.507673355465478 0 1 0 I I #
vertex $-1 $514 $784 #
straight-curve $-1 -74.146549882503734 -63.91884479727419 21.985044687031113 0 -1 0 I I #
point $-1 -74.146549882503734 -49.824616939081899 12.507673355465478 #
straight-curve $-1 0 -49.824616939081899 12.507673355465478 -1 0 0 I I #
point $-1 74.146549882503734 -49.824616939081899 12.507673355465478 #
coedge $-1 $536 $535 $528 $697 forward $525 $-1 #
edge $-1 $698 35.384922475960273 $701 46.559401093032882 $696 $785 forward 7 unknown #
vertex $-1 $540 $786 #
straight-curve $-1 -89.502803773073168 -4.1399709751378229 22.914731661384209 -1 0 0 I I #
edge $-1 $701 -2.3040620743209619 $537 15.192128173238533 $536 $787 forward 7 unknown #
vertex $-1 $700 $788 #
straight-curve $-1 -74.146549882503734 -4.1399709751378229 11.740253044311601 0.70710677298230451 0 0.70710678939079041 I I #
point $-1 -62.972071524736052 -4.1399709751378229 22.914731661384209 #
point $-1 -74.146549882503734 -21.636161222697318 11.740253044311601 #
straight-curve $-1 -74.146549882503734 0 22.914731661384209 0 -1 0 I I #
vertex $-1 $543 $789 #
point $-1 -65.433124857670336 -16.637249723394604 15.615520125406421 #
vertex $-1 $547 $790 #
point $-1 -65.433124857670336 -9.1388824744405355 15.615520125406421 #
coedge $-1 $562 $561 $554 $711 forward $551 $-1 #
edge $-1 $712 35.384922475960273 $715 46.559401093032882 $710 $791 forward 7 unknown #
vertex $-1 $566 $792 #
straight-curve $-1 -89.502803773073168 31.590418105751787 22.914731661384209 -1 0 0 I I #
edge $-1 $715 -20.169256614765768 $563 -2.6730663672062729 $562 $793 forward 7 unknown #
vertex $-1 $714 $794 #
straight-curve $-1 -74.146549882503734 31.590418105751787 11.740253044311601 0.70710677298230451 0 0.70710678939079041 I I #
point $-1 -62.972071524736052 31.590418105751787 22.914731661384209 #
point $-1 -74.146549882503734 14.094227858192292 11.740253044311601 #
straight-curve $-1 -74.146549882503734 0 22.914731661384209 0 -1 0 I I #
vertex $-1 $569 $795 #
point $-1 -65.433124857670336 19.093139357494998 15.615520125406421 #
vertex $-1 $573 $796 #
point $-1 -65.433124857670336 26.59150660644908 15.615520125406421 #
edge $-1 $725 83.721957635875796 $728 101.93256554290008 $578 $797 forward 7 unknown #
vertex $-1 $592 $798 #
straight-curve $-1 48.034032342650761 -21.636161222697318 22.914731661384209 1 0 0 I I #
edge $-1 $728 -13.244223862967615 $589 -3.5396508564917912 $588 $799 forward 7 unknown #
vertex $-1 $727 $800 #
straight-curve $-1 -19.177320136177414 -21.636161222697318 119.94950857583888 -0.62932038083071107 0 0.77714596973225614 I I #
point $-1 59.399890761109063 -21.636161222697318 22.914731661384209 #
point $-1 74.146549882503734 -11.931588216221494 4.7041237543599266 #
straight-curve $-1 74.146549882503734 0 22.914731661384209 0 1 0 I I #
vertex $-1 $595 $801 #
point $-1 63.408640651938903 -16.783874719459405 8.5113257816730492 #
edge $-1 $736 83.721957635875796 $739 101.93256554290008 $600 $802 forward 7 unknown #
vertex $-1 $614 $803 #
straight-curve $-1 48.034032342650761 -1.0507595042628548 22.914731661384209 1 0 0 I I #
edge $-1 $739 -2.951523003750383 $611 6.7530500027254394 $610 $804 forward 7 unknown #
vertex $-1 $738 $805 #
straight-curve $-1 -19.177320136177414 -1.0507595042628548 119.94950857583888 -0.62932038083071107 0 0.77714596973225614 I I #
point $-1 59.399890761109063 -1.0507595042628548 22.914731661384209 #
point $-1 74.146549882503734 8.6538135022129676 4.7041237543599266 #
straight-curve $-1 74.146549882503734 0 22.914731661384209 0 1 0 I I #
vertex $-1 $617 $806 #
point $-1 63.408640651938903 3.8015269989750564 8.5113257816730492 #
edge $-1 $747 83.721957635875796 $750 101.93256554290008 $622 $807 forward 7 unknown #
vertex $-1 $636 $808 #
straight-curve $-1 48.034032342650761 19.534642214171612 22.914731661384209 1 0 0 I I #
edge $-1 $750 7.3411778554668494 $633 17.045750861942675 $632 $809 forward 7 unknown #
vertex $-1 $749 $810 #
straight-curve $-1 -19.177320136177414 19.534642214171612 119.94950857583888 -0.62932038083071107 0 0.77714596973225614 I I #
point $-1 59.399890761109063 19.534642214171612 22.914731661384209 #
point $-1 74.146549882503734 29.239215220647438 4.7041237543599266 #
straight-curve $-1 74.146549882503734 0 22.914731661384209 0 1 0 I I #
vertex $-1 $639 $811 #
point $-1 63.408640651938903 24.386928717409525 8.5113257816730492 #
coedge $-1 $758 $645 $764 $812 reversed $460 $-1 #
coedge $-1 $645 $757 $648 $762 forward $460 $-1 #
edge $-1 $760 -27.33845172115991 $653 -17.633878714684084 $652 $813 forward 7 unknown #
vertex $-1 $647 $814 #
straight-curve $-1 13.952293352515213 49.824616939081899 79.037841981569215 -0.62932038083071107 0 0.77714596973225614 I I #
edge $-1 $766 -22.914731661384209 $649 -4.7041237543599159 $648 $815 forward 7 unknown #
point $-1 74.146549882503734 49.824616939081899 4.7041237543599159 #
coedge $-1 $652 $651 $757 $812 forward $643 $-1 #
point $-1 59.399890761109063 40.12004393260608 22.914731661384209 #
vertex $-1 $656 $816 #
straight-curve $-1 74.146549882503734 0 22.914731661384209 0 1 0 I I #
vertex $-1 $659 $817 #
point $-1 63.408640651938903 44.972330435843993 8.5113257816730492 #
straight-curve $-1 -74.146549882503734 49.824616939081899 0 0 0 -1 I I #
point $-1 -74.146549882503734 -49.824616939081899 -22.914731661384209 #
straight-curve $-1 -74.146549882503734 0 -22.914731661384209 0 1 0 I I #
point $-1 -74.146549882503734 49.824616939081899 -22.914731661384209 #
coedge $-1 $778 $680 $681 $775 reversed $505 $-1 #
edge $-1 $776 -74.146549882503734 $689 74.146549882503734 $774 $818 forward 7 unknown #
vertex $-1 $780 $819 #
straight-curve $-1 74.146549882503734 -63.91884479727419 12.507673355465478 0 -1 0 I I #
coedge $-1 $683 $774 $685 $780 reversed $505 $-1 #
straight-curve $-1 0 -78.013072655466488 21.985044687031113 1 0 0 I I #
edge $-1 $686 -4.7386856657828176 $776 4.7386856657828176 $685 $820 forward 7 unknown #
point $-1 74.146549882503734 -78.013072655466488 21.985044687031113 #
straight-curve $-1 -74.146549882503734 -78.013072655466488 17.246359021248296 0 0 -1 I I #
point $-1 -74.146549882503734 -78.013072655466488 12.507673355465478 #
point $-1 -74.146549882503734 -78.013072655466488 21.985044687031113 #
straight-curve $-1 -74.146549882503734 -4.1399709751378229 58.299654137344483 0 0 -1 I I #
point $-1 -74.146549882503734 -4.1399709751378229 22.914731661384209 #
straight-curve $-1 -74.146549882503734 -6.4440330494587847 11.740253044311601 0 -1 0 I I #
point $-1 -74.146549882503734 -4.1399709751378229 11.740253044311601 #
point $-1 -65.433124841261844 -16.637249723394604 14.201306563033324 #
point $-1 -65.433124841261844 -9.1388824744405355 14.201306563033324 #
straight-curve $-1 -74.146549882503734 31.590418105751787 58.299654137344483 0 0 -1 I I #
point $-1 -74.146549882503734 31.590418105751787 22.914731661384209 #
straight-curve $-1 -74.146549882503734 11.42116149098602 11.740253044311601 0 -1 0 I I #
point $-1 -74.146549882503734 31.590418105751787 11.740253044311601 #
point $-1 -65.433124841261844 19.093139357494998 14.201306563033324 #
point $-1 -65.433124841261844 26.59150660644908 14.201306563033324 #
straight-curve $-1 74.146549882503734 -21.636161222697318 106.63668929726001 0 0 -1 I I #
point $-1 74.146549882503734 -21.636161222697318 22.914731661384209 #
straight-curve $-1 74.14654988250372 -8.3919373597297025 4.7041237543599266 0 1 0 I I #
point $-1 74.146549882503734 -21.636161222697318 4.7041237543599266 #
point $-1 60.595707950812972 -16.783874719459405 8.80697695947614 #
straight-curve $-1 74.146549882503734 -1.0507595042628548 106.63668929726001 0 0 -1 I I #
point $-1 74.146549882503734 -1.0507595042628548 22.914731661384209 #
straight-curve $-1 74.14654988250372 1.9007634994875282 4.7041237543599266 0 1 0 I I #
point $-1 74.146549882503734 -1.0507595042628548 4.7041237543599266 #
point $-1 60.595707950812972 3.8015269989750564 8.80697695947614 #
straight-curve $-1 74.146549882503734 19.534642214171612 106.63668929726001 0 0 -1 I I #
point $-1 74.146549882503734 19.534642214171612 22.914731661384209 #
straight-curve $-1 74.14654988250372 12.193464358704762 4.7041237543599266 0 1 0 I I #
point $-1 74.146549882503734 19.534642214171612 4.7041237543599266 #
point $-1 60.595707950812972 24.386928717409525 8.80697695947614 #
edge $-1 $766 -74.146549882503734 $760 -59.399890761109063 $757 $821 forward 7 unknown #
straight-curve $-1 59.399890761109063 22.486165217921997 22.914731661384216 0 -1 0 I I #
point $-1 59.399890761109063 49.824616939081906 22.914731661384209 #
straight-curve $-1 74.146549882503734 49.824616939081899 0 0 0 -1 I I #
point $-1 74.146549882503734 49.824616939081899 22.914731661384209 #
point $-1 60.595707950812972 44.972330435843993 8.80697695947614 #
straight-curve $-1 0 -78.013072655466488 12.507673355465478 -1 0 0 I I #
point $-1 74.146549882503734 -78.013072655466488 12.507673355465478 #
straight-curve $-1 74.146549882503734 -78.013072655466488 17.246359021248296 0 0 -1 I I #
straight-curve $-1 0 49.824616939081899 22.914731661384209 -1 0 0 I I #
End-of-ACIS-data 