500 0 14 0           
7 Unknown 11 ACIS 5.0 NT 24 Thu Mar 25 20:10:52 1999 
-1 9.9999999999999995e-007 1e-010 
body $-1 $14 $-1 $15 #
body $-1 $16 $-1 $17 #
body $-1 $18 $-1 $19 #
body $-1 $20 $-1 $21 #
body $-1 $22 $-1 $23 #
body $-1 $24 $-1 $25 #
body $-1 $26 $-1 $27 #
body $-1 $28 $-1 $29 #
body $-1 $30 $-1 $31 #
body $-1 $32 $-1 $33 #
body $-1 $34 $-1 $35 #
body $-1 $36 $-1 $37 #
body $-1 $38 $-1 $39 #
body $-1 $40 $-1 $41 #
lump $-1 $-1 $42 $0 #
transform $-1 1 0 0 0 1 0 0 0 1 59.362163151951663 29.678726437815563 12.923972649186764 1 rotate no_reflect no_shear #
lump $-1 $-1 $43 $1 #
transform $-1 1 0 0 0 1 0 0 0 1 59.362163151951663 29.678726437815563 12.923972649186764 1 rotate no_reflect no_shear #
lump $-1 $-1 $44 $2 #
transform $-1 1 0 0 0 1 0 0 0 1 59.362163151951663 29.678726437815563 12.923972649186764 1 rotate no_reflect no_shear #
lump $-1 $-1 $45 $3 #
transform $-1 1 0 0 0 1 0 0 0 1 59.362163151951663 29.678726437815563 12.923972649186764 1 rotate no_reflect no_shear #
lump $-1 $-1 $46 $4 #
transform $-1 1 0 0 0 1 0 0 0 1 59.362163151951663 29.678726437815563 12.923972649186764 1 rotate no_reflect no_shear #
lump $-1 $-1 $47 $5 #
transform $-1 1 0 0 0 1 0 0 0 1 59.362163151951663 29.678726437815563 12.923972649186764 1 rotate no_reflect no_shear #
lump $-1 $-1 $48 $6 #
transform $-1 1 0 0 0 1 0 0 0 1 59.362163151951663 29.678726437815563 12.923972649186764 1 rotate no_reflect no_shear #
lump $-1 $-1 $49 $7 #
transform $-1 1 0 0 0 1 0 0 0 1 59.362163151951663 29.678726437815563 12.923972649186764 1 rotate no_reflect no_shear #
lump $-1 $-1 $50 $8 #
transform $-1 1 0 0 0 1 0 0 0 1 59.362163151951663 29.678726437815563 12.923972649186764 1 rotate no_reflect no_shear #
lump $-1 $-1 $51 $9 #
transform $-1 1 0 0 0 1 0 0 0 1 59.362163151951663 29.678726437815563 12.923972649186764 1 rotate no_reflect no_shear #
lump $-1 $-1 $52 $10 #
transform $-1 1 0 0 0 1 0 0 0 1 59.362163151951663 29.678726437815563 12.923972649186764 1 rotate no_reflect no_shear #
lump $-1 $-1 $53 $11 #
transform $-1 1 0 0 0 1 0 0 0 1 59.362163151951663 29.678726437815563 12.923972649186764 1 rotate no_reflect no_shear #
lump $-1 $-1 $54 $12 #
transform $-1 1 0 0 0 1 0 0 0 1 59.362163151951663 29.678726437815563 12.923972649186764 1 rotate no_reflect no_shear #
lump $-1 $-1 $55 $13 #
transform $-1 1 0 0 0 1 0 0 0 1 59.362163151951663 29.678726437815563 12.923972649186764 1 rotate no_reflect no_shear #
shell $-1 $-1 $-1 $56 $-1 $14 #
shell $-1 $-1 $-1 $57 $-1 $16 #
shell $-1 $-1 $-1 $58 $-1 $18 #
shell $-1 $-1 $-1 $59 $-1 $20 #
shell $-1 $-1 $-1 $60 $-1 $22 #
shell $-1 $-1 $-1 $61 $-1 $24 #
shell $-1 $-1 $-1 $62 $-1 $26 #
shell $-1 $-1 $-1 $63 $-1 $28 #
shell $-1 $-1 $-1 $64 $-1 $30 #
shell $-1 $-1 $-1 $65 $-1 $32 #
shell $-1 $-1 $-1 $66 $-1 $34 #
shell $-1 $-1 $-1 $67 $-1 $36 #
shell $-1 $-1 $-1 $68 $-1 $38 #
shell $-1 $-1 $-1 $69 $-1 $40 #
face $-1 $70 $71 $42 $-1 $72 forward single #
face $-1 $73 $74 $43 $-1 $75 reversed single #
face $-1 $76 $77 $44 $-1 $78 reversed single #
face $-1 $79 $80 $45 $-1 $81 forward single #
face $-1 $82 $83 $46 $-1 $84 forward single #
face $-1 $85 $86 $47 $-1 $87 reversed single #
face $-1 $88 $89 $48 $-1 $90 forward single #
face $-1 $91 $92 $49 $-1 $93 forward single #
face $-1 $94 $95 $50 $-1 $96 reversed single #
face $-1 $97 $98 $51 $-1 $99 forward single #
face $-1 $100 $101 $52 $-1 $102 forward single #
face $-1 $103 $104 $53 $-1 $105 reversed single #
face $-1 $106 $107 $54 $-1 $108 forward single #
face $-1 $109 $110 $55 $-1 $111 forward single #
face $-1 $112 $113 $42 $-1 $114 reversed single #
loop $-1 $-1 $115 $56 #
plane-surface $-1 0 0 12.923972649186764 0 0 1 1 0 0 forward_v I I I I #
face $-1 $116 $117 $43 $-1 $118 reversed single #
loop $-1 $-1 $119 $57 #
plane-surface $-1 -40.01276694756082 -22.955767923425711 0 1 0 0 0 0 -1 forward_v I I I I #
face $-1 $120 $121 $44 $-1 $122 reversed single #
loop $-1 $-1 $123 $58 #
plane-surface $-1 -48.321544155880552 46.858969685062966 140.6442633122567 1 0 0 0 -0.55919291073839883 -0.82903756765294845 forward_v I I I I #
face $-1 $124 $125 $45 $-1 $126 forward single #
loop $-1 $127 $128 $59 #
cone-surface $-1 -44.171014298312706 26.243244470888861 10.166078645750142 0 -0.55919291073839883 -0.82903756765294845 1.5 0 0 1 I I 0 1 1.5 forward I I I I #
face $-1 $129 $130 $46 $-1 $131 forward single #
loop $-1 $132 $133 $60 #
cone-surface $-1 -37.945219511960936 26.243244470888861 10.166078645750142 0 -0.55919291073839883 -0.82903756765294845 1.5 0 0 1 I I 0 1 1.5 forward I I I I #
face $-1 $134 $135 $47 $-1 $136 reversed single #
loop $-1 $-1 $137 $61 #
plane-surface $-1 -20.949466219122669 46.858969685062966 140.6442633122567 1 0 0 0 -0.55919291073839883 -0.82903756765294845 forward_v I I I I #
face $-1 $138 $139 $48 $-1 $140 forward single #
loop $-1 $141 $142 $62 #
cone-surface $-1 -16.798936361554823 26.243244470888861 10.166078645750142 0 -0.55919291073839883 -0.82903756765294845 1.5 0 0 1 I I 0 1 1.5 forward I I I I #
face $-1 $143 $144 $49 $-1 $145 forward single #
loop $-1 $146 $147 $63 #
cone-surface $-1 -10.573141575203053 26.243244470888861 10.166078645750142 0 -0.55919291073839883 -0.82903756765294845 1.5 0 0 1 I I 0 1 1.5 forward I I I I #
face $-1 $148 $149 $50 $-1 $150 reversed single #
loop $-1 $-1 $151 $64 #
plane-surface $-1 6.4226117176352213 46.858969685062966 140.6442633122567 1 0 0 0 -0.55919291073839883 -0.82903756765294845 forward_v I I I I #
face $-1 $152 $153 $51 $-1 $154 forward single #
loop $-1 $155 $156 $65 #
cone-surface $-1 10.573141575203053 26.243244470888861 10.166078645750142 0 -0.55919291073839883 -0.82903756765294845 1.5 0 0 1 I I 0 1 1.5 forward I I I I #
face $-1 $157 $158 $52 $-1 $159 forward single #
loop $-1 $160 $161 $66 #
cone-surface $-1 16.798936361554823 26.243244470888861 10.166078645750142 0 -0.55919291073839883 -0.82903756765294845 1.5 0 0 1 I I 0 1 1.5 forward I I I I #
face $-1 $162 $163 $53 $-1 $164 reversed single #
loop $-1 $-1 $165 $67 #
plane-surface $-1 33.794689654393096 46.858969685062966 140.6442633122567 1 0 0 0 -0.55919291073839883 -0.82903756765294845 forward_v I I I I #
face $-1 $166 $167 $54 $-1 $168 forward single #
loop $-1 $169 $170 $68 #
cone-surface $-1 37.945219511960929 26.243244470888861 10.166078645750142 0 -0.55919291073839883 -0.82903756765294845 1.5 0 0 1 I I 0 1 1.5 forward I I I I #
face $-1 $171 $172 $55 $-1 $173 forward single #
loop $-1 $174 $175 $69 #
cone-surface $-1 44.171014298312699 26.243244470888861 10.166078645750142 0 -0.55919291073839883 -0.82903756765294845 1.5 0 0 1 I I 0 1 1.5 forward I I I I #
face $-1 $176 $177 $42 $-1 $178 reversed single #
loop $-1 $-1 $179 $70 #
plane-surface $-1 0 0 -12.923972649186764 0 0 1 1 0 0 forward_v I I I I #
coedge $-1 $180 $181 $182 $183 forward $71 $-1 #
face $-1 $184 $185 $43 $-1 $186 reversed single #
loop $-1 $-1 $187 $73 #
plane-surface $-1 -36.763492400569476 -16.232809409035859 0 0 -1 0 0 0 -1 forward_v I I I I #
coedge $-1 $188 $189 $190 $191 forward $74 $-1 #
face $-1 $192 $193 $44 $-1 $194 reversed single #
loop $-1 $-1 $195 $76 #
plane-surface $-1 -41.058116905136821 -19.530831916272184 42.217336612033719 0 0.55919291073839883 0.82903756765294845 1 0 0 forward_v I I I I #
coedge $-1 $196 $197 $198 $199 reversed $77 $-1 #
face $-1 $-1 $200 $45 $-1 $201 forward single #
loop $-1 $202 $203 $79 #
cone-surface $-1 -44.171014298312706 25.278548384690922 8.7358579089210853 0 -0.55919291073839883 -0.82903756765294845 0.75 0 0 1 I I -0.70710678118654835 0.70710678118654668 0.75 forward I I I I #
loop $-1 $-1 $204 $59 #
coedge $-1 $128 $128 $205 $206 reversed $80 $-1 #
face $-1 $-1 $207 $46 $-1 $208 forward single #
loop $-1 $209 $210 $82 #
cone-surface $-1 -37.945219511960936 25.278548384690922 8.7358579089210853 0 -0.55919291073839883 -0.82903756765294845 0.75 0 0 1 I I -0.70710678118654835 0.70710678118654668 0.75 forward I I I I #
loop $-1 $-1 $211 $60 #
coedge $-1 $133 $133 $212 $213 reversed $83 $-1 #
face $-1 $214 $215 $47 $-1 $216 reversed single #
loop $-1 $-1 $217 $85 #
plane-surface $-1 -13.686038968378938 -19.530831916272184 42.217336612033719 0 0.55919291073839883 0.82903756765294845 1 0 0 forward_v I I I I #
coedge $-1 $218 $219 $220 $221 reversed $86 $-1 #
face $-1 $-1 $222 $48 $-1 $223 forward single #
loop $-1 $224 $225 $88 #
cone-surface $-1 -16.798936361554823 25.278548384690922 8.7358579089210853 0 -0.55919291073839883 -0.82903756765294845 0.75 0 0 1 I I -0.70710678118654835 0.70710678118654668 0.75 forward I I I I #
loop $-1 $-1 $226 $62 #
coedge $-1 $142 $142 $227 $228 reversed $89 $-1 #
face $-1 $-1 $229 $49 $-1 $230 forward single #
loop $-1 $231 $232 $91 #
cone-surface $-1 -10.573141575203053 25.278548384690922 8.7358579089210853 0 -0.55919291073839883 -0.82903756765294845 0.75 0 0 1 I I -0.70710678118654835 0.70710678118654668 0.75 forward I I I I #
loop $-1 $-1 $233 $63 #
coedge $-1 $147 $147 $234 $235 reversed $92 $-1 #
face $-1 $236 $237 $50 $-1 $238 reversed single #
loop $-1 $-1 $239 $94 #
plane-surface $-1 13.686038968378952 -19.530831916272184 42.217336612033719 0 0.55919291073839883 0.82903756765294845 1 0 0 forward_v I I I I #
coedge $-1 $240 $241 $242 $243 reversed $95 $-1 #
face $-1 $-1 $244 $51 $-1 $245 forward single #
loop $-1 $246 $247 $97 #
cone-surface $-1 10.573141575203053 25.278548384690922 8.7358579089210853 0 -0.55919291073839883 -0.82903756765294845 0.75 0 0 1 I I -0.70710678118654835 0.70710678118654668 0.75 forward I I I I #
loop $-1 $-1 $248 $65 #
coedge $-1 $156 $156 $249 $250 reversed $98 $-1 #
face $-1 $-1 $251 $52 $-1 $252 forward single #
loop $-1 $253 $254 $100 #
cone-surface $-1 16.798936361554823 25.278548384690922 8.7358579089210853 0 -0.55919291073839883 -0.82903756765294845 0.75 0 0 1 I I -0.70710678118654835 0.70710678118654668 0.75 forward I I I I #
loop $-1 $-1 $255 $66 #
coedge $-1 $161 $161 $256 $257 reversed $101 $-1 #
face $-1 $258 $259 $53 $-1 $260 reversed single #
loop $-1 $-1 $261 $103 #
plane-surface $-1 41.058116905136828 -19.530831916272184 42.217336612033719 0 0.55919291073839883 0.82903756765294845 1 0 0 forward_v I I I I #
coedge $-1 $262 $263 $264 $265 reversed $104 $-1 #
face $-1 $-1 $266 $54 $-1 $267 forward single #
loop $-1 $268 $269 $106 #
cone-surface $-1 37.945219511960929 25.278548384690922 8.7358579089210853 0 -0.55919291073839883 -0.82903756765294845 0.75 0 0 1 I I -0.70710678118654835 0.70710678118654668 0.75 forward I I I I #
loop $-1 $-1 $270 $68 #
coedge $-1 $170 $170 $271 $272 reversed $107 $-1 #
face $-1 $-1 $273 $55 $-1 $274 forward single #
loop $-1 $275 $276 $109 #
cone-surface $-1 44.171014298312699 25.278548384690922 8.7358579089210853 0 -0.55919291073839883 -0.82903756765294845 0.75 0 0 1 I I -0.70710678118654835 0.70710678118654668 0.75 forward I I I I #
loop $-1 $-1 $277 $69 #
coedge $-1 $175 $175 $278 $279 reversed $110 $-1 #
face $-1 $280 $281 $42 $-1 $282 reversed single #
loop $-1 $-1 $283 $112 #
plane-surface $-1 0 -29.678726437815563 0 0 1 0 0 0 1 forward_v I I I I #
coedge $-1 $284 $285 $286 $287 forward $113 $-1 #
coedge $-1 $288 $115 $289 $290 forward $71 $-1 #
coedge $-1 $115 $288 $291 $292 forward $71 $-1 #
coedge $-1 $293 $294 $115 $183 reversed $295 $-1 #
edge $-1 $296 -29.678726437815563 $297 29.678726437815563 $182 $298 forward 7 unknown #
face $-1 $299 $300 $43 $-1 $301 forward single #
loop $-1 $-1 $302 $116 #
plane-surface $-1 -33.514217853578131 -22.955767923425711 0 -1 0 0 0 0 1 forward_v I I I I #
coedge $-1 $303 $304 $305 $306 forward $117 $-1 #
coedge $-1 $307 $119 $308 $309 reversed $74 $-1 #
coedge $-1 $119 $307 $310 $311 reversed $74 $-1 #
coedge $-1 $304 $303 $119 $191 reversed $117 $-1 #
edge $-1 $312 -12.923972649186764 $313 12.923972649186764 $190 $314 forward 7 unknown #
face $-1 $315 $316 $44 $-1 $317 reversed single #
loop $-1 $-1 $318 $120 #
plane-surface $-1 -33.794689654393089 46.858969685062966 140.6442633122567 -1 0 0 0 0.55919291073839883 0.82903756765294845 forward_v I I I I #
coedge $-1 $319 $320 $321 $322 reversed $121 $-1 #
coedge $-1 $197 $123 $323 $324 reversed $77 $-1 #
coedge $-1 $123 $196 $319 $325 reversed $77 $-1 #
coedge $-1 $321 $326 $123 $199 forward $327 $-1 #
edge $-1 $328 -6.2492415952840794 $329 -0.46888046771893599 $198 $330 forward 7 unknown #
loop $-1 $-1 $205 $124 #
plane-surface $-1 -41.058116905136821 -19.530831916272184 42.217336612033719 0 0.55919291073839883 0.82903756765294845 1 0 0 forward_v I I I I #
loop $-1 $-1 $331 $79 #
coedge $-1 $203 $203 $204 $332 reversed $125 $-1 #
coedge $-1 $204 $204 $203 $332 forward $127 $-1 #
coedge $-1 $205 $205 $128 $206 forward $200 $-1 #
edge $-1 $333 6.1602363733920592e-016 $333 6.2831853071796013 $205 $334 forward 7 unknown #
loop $-1 $-1 $212 $129 #
plane-surface $-1 -41.058116905136821 -19.530831916272184 42.217336612033719 0 0.55919291073839883 0.82903756765294845 1 0 0 forward_v I I I I #
loop $-1 $-1 $335 $82 #
coedge $-1 $210 $210 $211 $336 reversed $130 $-1 #
coedge $-1 $211 $211 $210 $336 forward $132 $-1 #
coedge $-1 $212 $212 $133 $213 forward $207 $-1 #
edge $-1 $337 6.1602363733920592e-016 $337 6.2831853071796013 $212 $338 forward 7 unknown #
face $-1 $339 $340 $47 $-1 $341 forward single #
loop $-1 $-1 $342 $134 #
plane-surface $-1 -6.4226117176352071 46.858969685062966 140.6442633122567 -1 0 0 0 0.55919291073839883 0.82903756765294845 forward_v I I I I #
coedge $-1 $343 $344 $345 $346 reversed $135 $-1 #
coedge $-1 $219 $137 $347 $348 reversed $86 $-1 #
coedge $-1 $137 $218 $343 $349 reversed $86 $-1 #
coedge $-1 $345 $350 $137 $221 forward $340 $-1 #
edge $-1 $351 -6.2492415952840794 $352 -0.46888046771893599 $220 $353 forward 7 unknown #
loop $-1 $-1 $227 $138 #
plane-surface $-1 -13.686038968378938 -19.530831916272184 42.217336612033719 0 0.55919291073839883 0.82903756765294845 1 0 0 forward_v I I I I #
loop $-1 $-1 $354 $88 #
coedge $-1 $225 $225 $226 $355 reversed $139 $-1 #
coedge $-1 $226 $226 $225 $355 forward $141 $-1 #
coedge $-1 $227 $227 $142 $228 forward $222 $-1 #
edge $-1 $356 6.1602363733920592e-016 $356 6.2831853071796013 $227 $357 forward 7 unknown #
loop $-1 $-1 $234 $143 #
plane-surface $-1 -13.686038968378938 -19.530831916272184 42.217336612033719 0 0.55919291073839883 0.82903756765294845 1 0 0 forward_v I I I I #
loop $-1 $-1 $358 $91 #
coedge $-1 $232 $232 $233 $359 reversed $144 $-1 #
coedge $-1 $233 $233 $232 $359 forward $146 $-1 #
coedge $-1 $234 $234 $147 $235 forward $229 $-1 #
edge $-1 $360 6.1602363733920592e-016 $360 6.2831853071796013 $234 $361 forward 7 unknown #
face $-1 $362 $363 $50 $-1 $364 forward single #
loop $-1 $-1 $365 $148 #
plane-surface $-1 20.949466219122684 46.858969685062966 140.6442633122567 -1 0 0 0 0.55919291073839883 0.82903756765294845 forward_v I I I I #
coedge $-1 $366 $367 $368 $369 reversed $149 $-1 #
coedge $-1 $241 $151 $370 $371 reversed $95 $-1 #
coedge $-1 $151 $240 $366 $372 reversed $95 $-1 #
coedge $-1 $368 $373 $151 $243 forward $363 $-1 #
edge $-1 $374 -6.2492415952840794 $375 -0.46888046771893599 $242 $376 forward 7 unknown #
loop $-1 $-1 $249 $152 #
plane-surface $-1 13.686038968378952 -19.530831916272184 42.217336612033719 0 0.55919291073839883 0.82903756765294845 1 0 0 forward_v I I I I #
loop $-1 $-1 $377 $97 #
coedge $-1 $247 $247 $248 $378 reversed $153 $-1 #
coedge $-1 $248 $248 $247 $378 forward $155 $-1 #
coedge $-1 $249 $249 $156 $250 forward $244 $-1 #
edge $-1 $379 6.1602363733920592e-016 $379 6.2831853071796013 $249 $380 forward 7 unknown #
loop $-1 $-1 $256 $157 #
plane-surface $-1 13.686038968378952 -19.530831916272184 42.217336612033719 0 0.55919291073839883 0.82903756765294845 1 0 0 forward_v I I I I #
loop $-1 $-1 $381 $100 #
coedge $-1 $254 $254 $255 $382 reversed $158 $-1 #
coedge $-1 $255 $255 $254 $382 forward $160 $-1 #
coedge $-1 $256 $256 $161 $257 forward $251 $-1 #
edge $-1 $383 6.1602363733920592e-016 $383 6.2831853071796013 $256 $384 forward 7 unknown #
face $-1 $385 $386 $53 $-1 $387 forward single #
loop $-1 $-1 $388 $162 #
plane-surface $-1 48.321544155880559 46.858969685062966 140.6442633122567 -1 0 0 0 0.55919291073839883 0.82903756765294845 forward_v I I I I #
coedge $-1 $389 $390 $391 $392 reversed $163 $-1 #
coedge $-1 $263 $165 $393 $394 reversed $104 $-1 #
coedge $-1 $165 $262 $389 $395 reversed $104 $-1 #
coedge $-1 $391 $396 $165 $265 forward $386 $-1 #
edge $-1 $397 -6.2492415952840794 $398 -0.46888046771893599 $264 $399 forward 7 unknown #
loop $-1 $-1 $271 $166 #
plane-surface $-1 41.058116905136828 -19.530831916272184 42.217336612033719 0 0.55919291073839883 0.82903756765294845 1 0 0 forward_v I I I I #
loop $-1 $-1 $400 $106 #
coedge $-1 $269 $269 $270 $401 reversed $167 $-1 #
coedge $-1 $270 $270 $269 $401 forward $169 $-1 #
coedge $-1 $271 $271 $170 $272 forward $266 $-1 #
edge $-1 $402 6.1602363733920592e-016 $402 6.2831853071796013 $271 $403 forward 7 unknown #
loop $-1 $-1 $278 $171 #
plane-surface $-1 41.058116905136828 -19.530831916272184 42.217336612033719 0 0.55919291073839883 0.82903756765294845 1 0 0 forward_v I I I I #
loop $-1 $-1 $404 $109 #
coedge $-1 $276 $276 $277 $405 reversed $172 $-1 #
coedge $-1 $277 $277 $276 $405 forward $174 $-1 #
coedge $-1 $278 $278 $175 $279 forward $273 $-1 #
edge $-1 $406 6.1602363733920592e-016 $406 6.2831853071796013 $278 $407 forward 7 unknown #
face $-1 $408 $409 $42 $-1 $410 reversed single #
loop $-1 $-1 $411 $176 #
plane-surface $-1 -59.362163151951663 0 0 1 0 0 0 0 -1 forward_v I I I I #
coedge $-1 $412 $291 $413 $414 forward $177 $-1 #
coedge $-1 $415 $179 $412 $416 forward $113 $-1 #
coedge $-1 $179 $415 $417 $418 forward $113 $-1 #
coedge $-1 $294 $293 $179 $287 reversed $295 $-1 #
edge $-1 $419 -29.678726437815563 $420 29.678726437815563 $286 $421 forward 7 unknown #
coedge $-1 $181 $180 $422 $423 forward $71 $-1 #
coedge $-1 $424 $425 $180 $290 reversed $409 $-1 #
edge $-1 $297 -59.362163151951663 $426 59.362163151951663 $289 $427 forward 7 unknown #
coedge $-1 $283 $428 $181 $292 reversed $177 $-1 #
edge $-1 $429 -59.362163151951663 $296 59.362163151951663 $291 $430 forward 7 unknown #
coedge $-1 $286 $182 $428 $431 forward $295 $-1 #
coedge $-1 $182 $286 $424 $432 reversed $295 $-1 #
loop $-1 $-1 $293 $408 #
vertex $-1 $183 $433 #
vertex $-1 $183 $434 #
straight-curve $-1 59.362163151951663 0 12.923972649186764 0 1 0 I I #
face $-1 $435 $436 $43 $-1 $437 reversed single #
loop $-1 $-1 $438 $184 #
plane-surface $-1 0 0 12.923972649186764 0 0 1 1 0 0 forward_v I I I I #
coedge $-1 $439 $440 $441 $442 reversed $185 $-1 #
coedge $-1 $190 $187 $443 $444 reversed $117 $-1 #
coedge $-1 $187 $190 $445 $446 reversed $117 $-1 #
coedge $-1 $440 $439 $187 $306 reversed $185 $-1 #
edge $-1 $447 -12.923972649186764 $448 12.923972649186764 $305 $449 forward 7 unknown #
coedge $-1 $189 $188 $450 $451 reversed $74 $-1 #
coedge $-1 $443 $452 $188 $309 forward $436 $-1 #
edge $-1 $453 -18.200842476102707 $313 -4.7549254473230036 $308 $454 forward 7 unknown #
coedge $-1 $455 $445 $189 $311 forward $300 $-1 #
edge $-1 $312 4.7549254473230036 $456 18.200842476102707 $310 $457 forward 7 unknown #
vertex $-1 $311 $458 #
vertex $-1 $309 $459 #
straight-curve $-1 -40.01276694756082 -16.232809409035859 0 0 0 -1 I I #
face $-1 $-1 $327 $44 $-1 $460 forward single #
loop $-1 $-1 $461 $192 #
plane-surface $-1 0 29.678726437815563 0 0 -1 0 0 0 -1 forward_v I I I I #
coedge $-1 $462 $463 $464 $465 reversed $193 $-1 #
coedge $-1 $466 $195 $197 $325 forward $121 $-1 #
coedge $-1 $195 $466 $462 $467 forward $121 $-1 #
coedge $-1 $464 $198 $195 $322 forward $327 $-1 #
edge $-1 $329 -27.792485703312142 $468 -13.265631201824679 $321 $469 forward 7 unknown #
coedge $-1 $470 $471 $196 $324 forward $316 $-1 #
edge $-1 $472 -61.297061891636147 $328 -57.398159006941583 $323 $473 forward 7 unknown #
edge $-1 $329 52.385077493500177 $472 59.357452875631139 $197 $474 forward 7 unknown #
coedge $-1 $198 $464 $470 $475 forward $327 $-1 #
loop $-1 $-1 $464 $315 #
vertex $-1 $324 $476 #
vertex $-1 $199 $477 #
straight-curve $-1 -48.321544155880552 23.429484842531483 12.923972649186766 0 -1 0 I I #
coedge $-1 $331 $331 $-1 $478 reversed $202 $-1 #
edge $-1 $479 0 $479 6.2831853071796004 $203 $480 forward 7 unknown #
vertex $-1 $206 $481 #
ellipse-curve $-1 -44.171014298312706 26.788545874032994 10.974521206839482 0 0.55919291073839883 0.82903756765294845 1.5 0 0 1 I I #
coedge $-1 $335 $335 $-1 $482 reversed $209 $-1 #
edge $-1 $483 0 $483 6.2831853071796004 $210 $484 forward 7 unknown #
vertex $-1 $213 $485 #
ellipse-curve $-1 -37.945219511960936 26.788545874032994 10.974521206839482 0 0.55919291073839883 0.82903756765294845 1.5 0 0 1 I I #
face $-1 $-1 $486 $47 $-1 $487 reversed single #
loop $-1 $-1 $220 $214 #
plane-surface $-1 0 0 12.923972649186764 0 0 1 1 0 0 forward_v I I I I #
coedge $-1 $488 $489 $490 $491 reversed $215 $-1 #
coedge $-1 $492 $217 $219 $349 forward $135 $-1 #
coedge $-1 $217 $492 $488 $493 forward $135 $-1 #
coedge $-1 $490 $220 $217 $346 forward $340 $-1 #
edge $-1 $352 -14.106446734933201 $494 0.42040776655426182 $345 $495 forward 7 unknown #
coedge $-1 $496 $497 $218 $348 forward $486 $-1 #
edge $-1 $498 -61.297061891636147 $351 -57.398159006941583 $347 $499 forward 7 unknown #
edge $-1 $352 52.385077493500177 $498 59.357452875631139 $219 $500 forward 7 unknown #
coedge $-1 $220 $490 $496 $501 forward $340 $-1 #
vertex $-1 $348 $502 #
vertex $-1 $221 $503 #
straight-curve $-1 -20.949466219122669 23.429484842531483 12.923972649186766 0 -1 0 I I #
coedge $-1 $354 $354 $-1 $504 reversed $224 $-1 #
edge $-1 $505 0 $505 6.2831853071796004 $225 $506 forward 7 unknown #
vertex $-1 $228 $507 #
ellipse-curve $-1 -16.798936361554823 26.788545874032994 10.974521206839482 0 0.55919291073839883 0.82903756765294845 1.5 0 0 1 I I #
coedge $-1 $358 $358 $-1 $508 reversed $231 $-1 #
edge $-1 $509 0 $509 6.2831853071796004 $232 $510 forward 7 unknown #
vertex $-1 $235 $511 #
ellipse-curve $-1 -10.573141575203053 26.788545874032994 10.974521206839482 0 0.55919291073839883 0.82903756765294845 1.5 0 0 1 I I #
face $-1 $-1 $512 $50 $-1 $513 reversed single #
loop $-1 $-1 $242 $236 #
plane-surface $-1 0 0 12.923972649186764 0 0 1 1 0 0 forward_v I I I I #
coedge $-1 $514 $515 $516 $517 reversed $237 $-1 #
coedge $-1 $518 $239 $241 $372 forward $149 $-1 #
coedge $-1 $239 $518 $514 $519 forward $149 $-1 #
coedge $-1 $516 $242 $239 $369 forward $363 $-1 #
edge $-1 $375 -0.42040776655425471 $520 14.106446734933208 $368 $521 forward 7 unknown #
coedge $-1 $522 $523 $240 $371 forward $512 $-1 #
edge $-1 $524 -61.297061891636147 $374 -57.398159006941583 $370 $525 forward 7 unknown #
edge $-1 $375 52.385077493500177 $524 59.357452875631139 $241 $526 forward 7 unknown #
coedge $-1 $242 $516 $522 $527 forward $363 $-1 #
vertex $-1 $243 $528 #
vertex $-1 $243 $529 #
straight-curve $-1 6.4226117176352213 23.429484842531483 12.923972649186766 0 -1 0 I I #
coedge $-1 $377 $377 $-1 $530 reversed $246 $-1 #
edge $-1 $531 0 $531 6.2831853071796004 $247 $532 forward 7 unknown #
vertex $-1 $250 $533 #
ellipse-curve $-1 10.573141575203053 26.788545874032994 10.974521206839482 0 0.55919291073839883 0.82903756765294845 1.5 0 0 1 I I #
coedge $-1 $381 $381 $-1 $534 reversed $253 $-1 #
edge $-1 $535 0 $535 6.2831853071796004 $254 $536 forward 7 unknown #
vertex $-1 $257 $537 #
ellipse-curve $-1 16.798936361554823 26.788545874032994 10.974521206839482 0 0.55919291073839883 0.82903756765294845 1.5 0 0 1 I I #
face $-1 $-1 $538 $53 $-1 $539 reversed single #
loop $-1 $-1 $264 $258 #
plane-surface $-1 0 0 12.923972649186764 0 0 1 1 0 0 forward_v I I I I #
coedge $-1 $540 $541 $542 $543 reversed $259 $-1 #
coedge $-1 $544 $261 $263 $395 forward $163 $-1 #
coedge $-1 $261 $544 $540 $545 forward $163 $-1 #
coedge $-1 $542 $264 $261 $392 forward $386 $-1 #
edge $-1 $398 13.265631201824682 $546 27.792485703312146 $391 $547 forward 7 unknown #
coedge $-1 $548 $549 $262 $394 forward $538 $-1 #
edge $-1 $550 -61.297061891636147 $397 -57.398159006941583 $393 $551 forward 7 unknown #
edge $-1 $398 52.385077493500177 $550 59.357452875631139 $263 $552 forward 7 unknown #
coedge $-1 $264 $542 $548 $553 forward $386 $-1 #
vertex $-1 $265 $554 #
vertex $-1 $265 $555 #
straight-curve $-1 33.794689654393096 23.429484842531483 12.923972649186766 0 -1 0 I I #
coedge $-1 $400 $400 $-1 $556 reversed $268 $-1 #
edge $-1 $557 0 $557 6.2831853071796004 $269 $558 forward 7 unknown #
vertex $-1 $272 $559 #
ellipse-curve $-1 37.945219511960929 26.788545874032994 10.974521206839482 0 0.55919291073839883 0.82903756765294845 1.5 0 0 1 I I #
coedge $-1 $404 $404 $-1 $560 reversed $275 $-1 #
edge $-1 $561 0 $561 6.2831853071796004 $276 $562 forward 7 unknown #
vertex $-1 $279 $563 #
ellipse-curve $-1 44.171014298312699 26.788545874032994 10.974521206839482 0 0.55919291073839883 0.82903756765294845 1.5 0 0 1 I I #
face $-1 $-1 $295 $42 $-1 $564 reversed single #
loop $-1 $-1 $424 $280 #
plane-surface $-1 0 29.678726437815563 0 0 -1 0 0 0 -1 forward_v I I I I #
coedge $-1 $565 $422 $425 $566 forward $281 $-1 #
coedge $-1 $428 $283 $284 $416 reversed $177 $-1 #
coedge $-1 $422 $565 $283 $414 reversed $281 $-1 #
edge $-1 $429 -12.923972649186764 $567 12.923972649186764 $413 $568 forward 7 unknown #
coedge $-1 $285 $284 $565 $569 forward $113 $-1 #
edge $-1 $420 -59.362163151951663 $567 59.362163151951663 $412 $570 forward 7 unknown #
coedge $-1 $425 $424 $285 $418 reversed $409 $-1 #
edge $-1 $571 -59.362163151951663 $419 59.362163151951663 $417 $572 forward 7 unknown #
vertex $-1 $287 $573 #
vertex $-1 $431 $574 #
straight-curve $-1 59.362163151951663 0 -12.923972649186764 0 -1 0 I I #
coedge $-1 $411 $413 $288 $423 reversed $281 $-1 #
edge $-1 $426 -29.678726437815563 $429 29.678726437815563 $422 $575 forward 7 unknown #
coedge $-1 $417 $289 $294 $432 forward $409 $-1 #
coedge $-1 $289 $417 $411 $566 reversed $409 $-1 #
vertex $-1 $290 $576 #
straight-curve $-1 0 29.678726437815563 12.923972649186764 -1 0 0 I I #
coedge $-1 $291 $412 $293 $431 reversed $177 $-1 #
vertex $-1 $423 $577 #
straight-curve $-1 0 -29.678726437815563 12.923972649186764 1 0 0 I I #
edge $-1 $296 -12.923972649186764 $420 12.923972649186764 $293 $578 forward 7 unknown #
edge $-1 $297 -12.923972649186764 $419 12.923972649186764 $294 $579 forward 7 unknown #
point $-1 59.362163151951663 -29.678726437815563 12.923972649186764 #
point $-1 59.362163151951663 29.678726437815563 12.923972649186764 #
face $-1 $-1 $580 $43 $-1 $581 reversed single #
loop $-1 $-1 $582 $299 #
plane-surface $-1 0 0 -12.923972649186764 0 0 1 1 0 0 forward_v I I I I #
coedge $-1 $445 $455 $440 $583 forward $300 $-1 #
coedge $-1 $305 $302 $582 $584 reversed $185 $-1 #
coedge $-1 $302 $305 $438 $583 reversed $185 $-1 #
coedge $-1 $585 $586 $302 $442 forward $580 $-1 #
edge $-1 $587 -12.923972649186764 $588 12.923972649186764 $441 $589 forward 7 unknown #
coedge $-1 $582 $308 $303 $444 forward $436 $-1 #
edge $-1 $313 -21.631020747276082 $448 -15.132471653293393 $443 $590 forward 7 unknown #
coedge $-1 $310 $438 $304 $446 forward $300 $-1 #
edge $-1 $447 15.132471653293393 $312 21.631020747276082 $445 $591 forward 7 unknown #
vertex $-1 $446 $592 #
vertex $-1 $444 $593 #
straight-curve $-1 -33.514217853578131 -16.232809409035859 0 0 0 -1 I I #
coedge $-1 $586 $585 $307 $451 forward $580 $-1 #
edge $-1 $456 -12.923972649186764 $453 12.923972649186764 $450 $594 forward 7 unknown #
coedge $-1 $308 $582 $586 $595 forward $436 $-1 #
vertex $-1 $309 $596 #
straight-curve $-1 -40.01276694756082 -11.477883961712855 -12.923972649186764 0 1 0 I I #
coedge $-1 $438 $310 $585 $597 forward $300 $-1 #
vertex $-1 $597 $598 #
straight-curve $-1 -40.01276694756082 -11.477883961712855 12.923972649186764 0 -1 0 I I #
point $-1 -40.01276694756082 -16.232809409035859 12.923972649186764 #
point $-1 -40.01276694756082 -16.232809409035859 -12.923972649186764 #
plane-surface $-1 0 0 12.923972649186764 0 0 1 1 0 0 forward_v I I I I #
coedge $-1 $471 $470 $463 $599 forward $316 $-1 #
coedge $-1 $463 $318 $320 $467 reversed $193 $-1 #
coedge $-1 $318 $462 $461 $599 reversed $193 $-1 #
coedge $-1 $326 $321 $318 $465 forward $327 $-1 #
edge $-1 $468 0.46888046771893599 $600 6.2492415952840794 $464 $601 forward 7 unknown #
coedge $-1 $320 $319 $471 $602 reversed $121 $-1 #
edge $-1 $603 -59.357452875631139 $468 -52.385077493500177 $462 $604 forward 7 unknown #
vertex $-1 $322 $605 #
straight-curve $-1 -20.52905845256841 23.898365310250419 12.923972649186766 1 0 0 I I #
coedge $-1 $461 $323 $326 $475 reversed $316 $-1 #
coedge $-1 $323 $461 $466 $602 forward $316 $-1 #
vertex $-1 $324 $606 #
straight-curve $-1 -48.321544155880552 29.678726437815563 70.322131656128349 0 0 1 I I #
straight-curve $-1 -48.321544155880552 -19.530831916272184 42.217336612033719 0 0.82903756765294845 -0.55919291073839883 I I #
edge $-1 $600 33.794689654393089 $328 48.321544155880552 $470 $607 forward 7 unknown #
point $-1 -48.321544155880552 29.678726437815563 12.923972649186764 #
point $-1 -48.321544155880552 23.898365310250419 12.923972649186766 #
edge $-1 $608 1 $608 0 $331 $-1 forward 7 unknown #
vertex $-1 $332 $609 #
ellipse-curve $-1 -44.171014298312706 25.69794306774472 9.3576360846607951 0 0.55919291073839883 0.82903756765294845 1.5 0 0 1 I I #
point $-1 -42.671014298312706 26.788545874033002 10.974521206839491 #
edge $-1 $610 1 $610 0 $335 $-1 forward 7 unknown #
vertex $-1 $336 $611 #
ellipse-curve $-1 -37.945219511960936 25.69794306774472 9.3576360846607951 0 0.55919291073839883 0.82903756765294845 1.5 0 0 1 I I #
point $-1 -36.445219511960936 26.788545874033002 10.974521206839491 #
loop $-1 $-1 $347 $339 #
plane-surface $-1 0 29.678726437815563 0 0 -1 0 0 0 -1 forward_v I I I I #
coedge $-1 $489 $342 $344 $493 reversed $215 $-1 #
coedge $-1 $342 $488 $612 $613 reversed $215 $-1 #
coedge $-1 $350 $345 $342 $491 forward $340 $-1 #
edge $-1 $494 0.46888046771893599 $614 6.2492415952840794 $490 $615 forward 7 unknown #
coedge $-1 $344 $343 $497 $616 reversed $135 $-1 #
edge $-1 $617 -59.357452875631139 $494 -52.385077493500177 $488 $618 forward 7 unknown #
vertex $-1 $346 $619 #
straight-curve $-1 -6.8430194841894689 23.898365310250419 12.923972649186766 1 0 0 I I #
coedge $-1 $612 $347 $350 $501 reversed $486 $-1 #
coedge $-1 $347 $612 $492 $616 forward $486 $-1 #
vertex $-1 $348 $620 #
straight-curve $-1 -20.949466219122669 29.678726437815563 70.322131656128349 0 0 1 I I #
straight-curve $-1 -20.949466219122669 -19.530831916272184 42.217336612033719 0 0.82903756765294845 -0.55919291073839883 I I #
edge $-1 $614 6.4226117176352071 $351 20.949466219122669 $496 $621 forward 7 unknown #
point $-1 -20.949466219122669 29.678726437815563 12.923972649186764 #
point $-1 -20.949466219122669 23.898365310250419 12.923972649186766 #
edge $-1 $622 1 $622 0 $354 $-1 forward 7 unknown #
vertex $-1 $355 $623 #
ellipse-curve $-1 -16.798936361554823 25.69794306774472 9.3576360846607951 0 0.55919291073839883 0.82903756765294845 1.5 0 0 1 I I #
point $-1 -15.298936361554823 26.788545874033002 10.974521206839491 #
edge $-1 $624 1 $624 0 $358 $-1 forward 7 unknown #
vertex $-1 $359 $625 #
ellipse-curve $-1 -10.573141575203053 25.69794306774472 9.3576360846607951 0 0.55919291073839883 0.82903756765294845 1.5 0 0 1 I I #
point $-1 -9.0731415752030529 26.788545874033002 10.974521206839491 #
loop $-1 $-1 $370 $362 #
plane-surface $-1 0 29.678726437815563 0 0 -1 0 0 0 -1 forward_v I I I I #
coedge $-1 $515 $365 $367 $519 reversed $237 $-1 #
coedge $-1 $365 $514 $626 $627 reversed $237 $-1 #
coedge $-1 $373 $368 $365 $517 forward $363 $-1 #
edge $-1 $520 0.46888046771893599 $628 6.2492415952840794 $516 $629 forward 7 unknown #
coedge $-1 $367 $366 $523 $630 reversed $149 $-1 #
edge $-1 $631 -59.357452875631139 $520 -52.385077493500177 $514 $632 forward 7 unknown #
vertex $-1 $369 $633 #
straight-curve $-1 6.843019484189476 23.898365310250419 12.923972649186766 1 0 0 I I #
coedge $-1 $626 $370 $373 $527 reversed $512 $-1 #
coedge $-1 $370 $626 $518 $630 forward $512 $-1 #
vertex $-1 $371 $634 #
straight-curve $-1 6.4226117176352213 29.678726437815563 70.322131656128349 0 0 1 I I #
straight-curve $-1 6.4226117176352213 -19.530831916272184 42.217336612033719 0 0.82903756765294845 -0.55919291073839883 I I #
edge $-1 $628 -20.949466219122684 $374 -6.4226117176352213 $522 $635 forward 7 unknown #
point $-1 6.4226117176352213 29.678726437815563 12.923972649186764 #
point $-1 6.4226117176352213 23.898365310250419 12.923972649186766 #
edge $-1 $636 1 $636 0 $377 $-1 forward 7 unknown #
vertex $-1 $378 $637 #
ellipse-curve $-1 10.573141575203053 25.69794306774472 9.3576360846607951 0 0.55919291073839883 0.82903756765294845 1.5 0 0 1 I I #
point $-1 12.073141575203053 26.788545874033002 10.974521206839491 #
edge $-1 $638 1 $638 0 $381 $-1 forward 7 unknown #
vertex $-1 $382 $639 #
ellipse-curve $-1 16.798936361554823 25.69794306774472 9.3576360846607951 0 0.55919291073839883 0.82903756765294845 1.5 0 0 1 I I #
point $-1 18.298936361554823 26.788545874033002 10.974521206839491 #
loop $-1 $-1 $393 $385 #
plane-surface $-1 0 29.678726437815563 0 0 -1 0 0 0 -1 forward_v I I I I #
coedge $-1 $541 $388 $390 $545 reversed $259 $-1 #
coedge $-1 $388 $540 $640 $641 reversed $259 $-1 #
coedge $-1 $396 $391 $388 $543 forward $386 $-1 #
edge $-1 $546 0.46888046771893599 $642 6.2492415952840794 $542 $643 forward 7 unknown #
coedge $-1 $390 $389 $549 $644 reversed $163 $-1 #
edge $-1 $645 -59.357452875631139 $546 -52.385077493500177 $540 $646 forward 7 unknown #
vertex $-1 $392 $647 #
straight-curve $-1 20.529058452568414 23.898365310250419 12.923972649186766 1 0 0 I I #
coedge $-1 $640 $393 $396 $553 reversed $538 $-1 #
coedge $-1 $393 $640 $544 $644 forward $538 $-1 #
vertex $-1 $394 $648 #
straight-curve $-1 33.794689654393096 29.678726437815563 70.322131656128349 0 0 1 I I #
straight-curve $-1 33.794689654393096 -19.530831916272184 42.217336612033719 0 0.82903756765294845 -0.55919291073839883 I I #
edge $-1 $642 -48.321544155880559 $397 -33.794689654393096 $548 $649 forward 7 unknown #
point $-1 33.794689654393096 29.678726437815563 12.923972649186764 #
point $-1 33.794689654393096 23.898365310250419 12.923972649186766 #
edge $-1 $650 1 $650 0 $400 $-1 forward 7 unknown #
vertex $-1 $401 $651 #
ellipse-curve $-1 37.945219511960929 25.69794306774472 9.3576360846607951 0 0.55919291073839883 0.82903756765294845 1.5 0 0 1 I I #
point $-1 39.445219511960929 26.788545874033002 10.974521206839491 #
edge $-1 $652 1 $652 0 $404 $-1 forward 7 unknown #
vertex $-1 $405 $653 #
ellipse-curve $-1 44.171014298312699 25.69794306774472 9.3576360846607951 0 0.55919291073839883 0.82903756765294845 1.5 0 0 1 I I #
point $-1 45.671014298312699 26.788545874033002 10.974521206839491 #
plane-surface $-1 59.362163151951663 0 0 -1 0 0 0 0 1 forward_v I I I I #
coedge $-1 $413 $411 $415 $569 reversed $281 $-1 #
edge $-1 $426 -12.923972649186764 $571 12.923972649186764 $425 $654 forward 7 unknown #
vertex $-1 $569 $655 #
straight-curve $-1 -59.362163151951663 -29.678726437815563 0 0 0 -1 I I #
edge $-1 $567 -29.678726437815563 $571 29.678726437815563 $565 $656 forward 7 unknown #
straight-curve $-1 0 -29.678726437815563 -12.923972649186764 -1 0 0 I I #
vertex $-1 $418 $657 #
straight-curve $-1 0 29.678726437815563 -12.923972649186764 1 0 0 I I #
point $-1 59.362163151951663 29.678726437815563 -12.923972649186764 #
point $-1 59.362163151951663 -29.678726437815563 -12.923972649186764 #
straight-curve $-1 -59.362163151951663 0 12.923972649186764 0 -1 0 I I #
point $-1 -59.362163151951663 29.678726437815563 12.923972649186764 #
point $-1 -59.362163151951663 -29.678726437815563 12.923972649186764 #
straight-curve $-1 59.362163151951663 -29.678726437815563 0 0 0 -1 I I #
straight-curve $-1 59.362163151951663 29.678726437815563 0 0 0 -1 I I #
loop $-1 $-1 $441 $435 #
plane-surface $-1 0 -29.678726437815563 0 0 1 0 0 0 1 forward_v I I I I #
coedge $-1 $452 $443 $439 $584 forward $436 $-1 #
edge $-1 $588 -18.200842476102707 $447 -4.7549254473230036 $438 $658 forward 7 unknown #
edge $-1 $448 4.7549254473230036 $587 18.200842476102707 $582 $659 forward 7 unknown #
coedge $-1 $450 $441 $455 $597 reversed $580 $-1 #
coedge $-1 $441 $450 $452 $595 reversed $580 $-1 #
vertex $-1 $595 $660 #
vertex $-1 $442 $661 #
straight-curve $-1 -33.514217853578131 -29.678726437815563 0 0 0 1 I I #
straight-curve $-1 -18.381746200284738 -16.232809409035859 -12.923972649186764 1 0 0 I I #
straight-curve $-1 -18.381746200284738 -16.232809409035859 12.923972649186764 -1 0 0 I I #
point $-1 -33.514217853578131 -16.232809409035859 12.923972649186764 #
point $-1 -33.514217853578131 -16.232809409035859 -12.923972649186764 #
straight-curve $-1 -40.01276694756082 -29.678726437815563 0 0 0 -1 I I #
edge $-1 $587 33.514217853578131 $453 40.01276694756082 $586 $662 forward 7 unknown #
point $-1 -40.01276694756082 -29.678726437815563 -12.923972649186764 #
edge $-1 $456 -40.01276694756082 $588 -33.514217853578131 $585 $663 forward 7 unknown #
point $-1 -40.01276694756082 -29.678726437815563 12.923972649186764 #
edge $-1 $600 57.398159006941583 $603 61.297061891636147 $461 $664 forward 7 unknown #
vertex $-1 $475 $665 #
straight-curve $-1 -33.794689654393089 23.429484842531483 12.923972649186766 0 1 0 I I #
edge $-1 $603 13.265631201824679 $472 27.792485703312142 $471 $666 forward 7 unknown #
vertex $-1 $602 $667 #
straight-curve $-1 -33.794689654393089 -19.530831916272184 42.217336612033719 0 -0.82903756765294845 0.55919291073839883 I I #
point $-1 -33.794689654393089 23.898365310250419 12.923972649186766 #
point $-1 -48.321544155880552 29.678726437815563 9.0250697644922013 #
straight-curve $-1 0 29.678726437815563 12.923972649186764 -1 0 0 I I #
vertex $-1 $478 $668 #
point $-1 -42.671014298312706 25.69794306774472 9.3576360846607951 #
vertex $-1 $482 $669 #
point $-1 -36.445219511960936 25.69794306774472 9.3576360846607951 #
coedge $-1 $497 $496 $489 $613 forward $486 $-1 #
edge $-1 $614 57.398159006941583 $617 61.297061891636147 $612 $670 forward 7 unknown #
vertex $-1 $501 $671 #
straight-curve $-1 -6.4226117176352071 23.429484842531483 12.923972649186766 0 1 0 I I #
edge $-1 $617 -0.42040776655426182 $498 14.106446734933201 $497 $672 forward 7 unknown #
vertex $-1 $616 $673 #
straight-curve $-1 -6.4226117176352071 -19.530831916272184 42.217336612033719 0 -0.82903756765294845 0.55919291073839883 I I #
point $-1 -6.4226117176352071 23.898365310250419 12.923972649186766 #
point $-1 -20.949466219122669 29.678726437815563 9.0250697644922013 #
straight-curve $-1 0 29.678726437815563 12.923972649186764 -1 0 0 I I #
vertex $-1 $504 $674 #
point $-1 -15.298936361554823 25.69794306774472 9.3576360846607951 #
vertex $-1 $508 $675 #
point $-1 -9.0731415752030529 25.69794306774472 9.3576360846607951 #
coedge $-1 $523 $522 $515 $627 forward $512 $-1 #
edge $-1 $628 57.398159006941583 $631 61.297061891636147 $626 $676 forward 7 unknown #
vertex $-1 $527 $677 #
straight-curve $-1 20.949466219122684 23.429484842531483 12.923972649186766 0 1 0 I I #
edge $-1 $631 -14.106446734933208 $524 0.42040776655425471 $523 $678 forward 7 unknown #
vertex $-1 $630 $679 #
straight-curve $-1 20.949466219122684 -19.530831916272184 42.217336612033719 0 -0.82903756765294845 0.55919291073839883 I I #
point $-1 20.949466219122684 23.898365310250419 12.923972649186766 #
point $-1 6.4226117176352213 29.678726437815563 9.0250697644922013 #
straight-curve $-1 0 29.678726437815563 12.923972649186764 -1 0 0 I I #
vertex $-1 $530 $680 #
point $-1 12.073141575203053 25.69794306774472 9.3576360846607951 #
vertex $-1 $534 $681 #
point $-1 18.298936361554823 25.69794306774472 9.3576360846607951 #
coedge $-1 $549 $548 $541 $641 forward $538 $-1 #
edge $-1 $642 57.398159006941583 $645 61.297061891636147 $640 $682 forward 7 unknown #
vertex $-1 $553 $683 #
straight-curve $-1 48.321544155880559 23.429484842531483 12.923972649186766 0 1 0 I I #
edge $-1 $645 -27.792485703312146 $550 -13.265631201824682 $549 $684 forward 7 unknown #
vertex $-1 $644 $685 #
straight-curve $-1 48.321544155880559 -19.530831916272184 42.217336612033719 0 -0.82903756765294845 0.55919291073839883 I I #
point $-1 48.321544155880559 23.898365310250419 12.923972649186766 #
point $-1 33.794689654393096 29.678726437815563 9.0250697644922013 #
straight-curve $-1 0 29.678726437815563 12.923972649186764 -1 0 0 I I #
vertex $-1 $556 $686 #
point $-1 39.445219511960929 25.69794306774472 9.3576360846607951 #
vertex $-1 $560 $687 #
point $-1 45.671014298312699 25.69794306774472 9.3576360846607951 #
straight-curve $-1 -59.362163151951663 29.678726437815563 0 0 0 -1 I I #
point $-1 -59.362163151951663 -29.678726437815563 -12.923972649186764 #
straight-curve $-1 -59.362163151951663 0 -12.923972649186764 0 1 0 I I #
point $-1 -59.362163151951663 29.678726437815563 -12.923972649186764 #
straight-curve $-1 -33.514217853578131 -11.477883961712855 12.923972649186764 0 1 0 I I #
straight-curve $-1 -33.514217853578131 -11.477883961712855 -12.923972649186764 0 -1 0 I I #
point $-1 -33.514217853578131 -29.678726437815563 -12.923972649186764 #
point $-1 -33.514217853578131 -29.678726437815563 12.923972649186764 #
straight-curve $-1 0 -29.678726437815563 -12.923972649186764 -1 0 0 I I #
straight-curve $-1 0 -29.678726437815563 12.923972649186764 1 0 0 I I #
straight-curve $-1 -33.794689654393089 29.678726437815563 70.322131656128349 0 0 -1 I I #
point $-1 -33.794689654393089 29.678726437815563 12.923972649186764 #
straight-curve $-1 -20.52905845256841 29.678726437815566 9.0250697644921996 -1 0 0 I I #
point $-1 -33.794689654393089 29.678726437815563 9.0250697644922013 #
point $-1 -44.171014298312706 24.859153701637123 8.1140797331813754 #
point $-1 -37.945219511960936 24.859153701637123 8.1140797331813754 #
straight-curve $-1 -6.4226117176352071 29.678726437815563 70.322131656128349 0 0 -1 I I #
point $-1 -6.4226117176352071 29.678726437815563 12.923972649186764 #
straight-curve $-1 -6.8430194841894689 29.678726437815566 9.0250697644921996 -1 0 0 I I #
point $-1 -6.4226117176352071 29.678726437815563 9.0250697644922013 #
point $-1 -16.798936361554823 24.859153701637123 8.1140797331813754 #
point $-1 -10.573141575203053 24.859153701637123 8.1140797331813754 #
straight-curve $-1 20.949466219122684 29.678726437815563 70.322131656128349 0 0 -1 I I #
point $-1 20.949466219122684 29.678726437815563 12.923972649186764 #
straight-curve $-1 6.843019484189476 29.678726437815566 9.0250697644921996 -1 0 0 I I #
point $-1 20.949466219122684 29.678726437815563 9.0250697644922013 #
point $-1 10.573141575203053 24.859153701637123 8.1140797331813754 #
point $-1 16.798936361554823 24.859153701637123 8.1140797331813754 #
straight-curve $-1 48.321544155880559 29.678726437815563 70.322131656128349 0 0 -1 I I #
point $-1 48.321544155880559 29.678726437815563 12.923972649186764 #
straight-curve $-1 20.529058452568414 29.678726437815566 9.0250697644921996 -1 0 0 I I #
point $-1 48.321544155880559 29.678726437815563 9.0250697644922013 #
point $-1 37.945219511960929 24.859153701637123 8.1140797331813754 #
point $-1 44.171014298312699 24.859153701637123 8.1140797331813754 #
End-of-ACIS-data 