500 0 8 0           
7 Unknown 11 ACIS 5.0 NT 24 Fri Mar 26 18:33:18 1999 
-1 9.9999999999999995e-007 1e-010 
body $-1 $8 $-1 $9 #
body $-1 $10 $-1 $11 #
body $-1 $12 $-1 $13 #
body $-1 $14 $-1 $15 #
body $-1 $16 $-1 $17 #
body $-1 $18 $-1 $19 #
body $-1 $20 $-1 $21 #
body $-1 $22 $-1 $23 #
lump $-1 $-1 $24 $0 #
transform $-1 1 0 0 0 1 0 0 0 1 73.375041962950533 32.927293604413393 11.94253755645285 1 rotate no_reflect no_shear #
lump $-1 $-1 $25 $1 #
transform $-1 1 0 0 0 1 0 0 0 1 73.375041962950533 32.927293604413393 11.94253755645285 1 rotate no_reflect no_shear #
lump $-1 $-1 $26 $2 #
transform $-1 1 0 0 0 1 0 0 0 1 73.375041962950533 32.927293604413393 11.94253755645285 1 rotate no_reflect no_shear #
lump $-1 $-1 $27 $3 #
transform $-1 1 0 0 0 1 0 0 0 1 73.375041962950533 32.927293604413393 11.94253755645285 1 rotate no_reflect no_shear #
lump $-1 $-1 $28 $4 #
transform $-1 1 0 0 0 1 0 0 0 1 73.375041962950533 32.927293604413393 11.94253755645285 1 rotate no_reflect no_shear #
lump $-1 $-1 $29 $5 #
transform $-1 1 0 0 0 1 0 0 0 1 73.375041962950533 32.927293604413393 11.94253755645285 1 rotate no_reflect no_shear #
lump $-1 $-1 $30 $6 #
transform $-1 1 0 0 0 1 0 0 0 1 73.375041962950533 32.927293604413393 11.94253755645285 1 rotate no_reflect no_shear #
lump $-1 $-1 $31 $7 #
transform $-1 1 0 0 0 1 0 0 0 1 73.375041962950533 32.927293604413393 11.94253755645285 1 rotate no_reflect no_shear #
shell $-1 $-1 $-1 $32 $-1 $8 #
shell $-1 $-1 $-1 $33 $-1 $10 #
shell $-1 $-1 $-1 $34 $-1 $12 #
shell $-1 $-1 $-1 $35 $-1 $14 #
shell $-1 $-1 $-1 $36 $-1 $16 #
shell $-1 $-1 $-1 $37 $-1 $18 #
shell $-1 $-1 $-1 $38 $-1 $20 #
shell $-1 $-1 $-1 $39 $-1 $22 #
face $-1 $40 $41 $24 $-1 $42 forward single #
face $-1 $43 $44 $25 $-1 $45 forward single #
face $-1 $46 $47 $26 $-1 $48 reversed single #
face $-1 $49 $50 $27 $-1 $51 forward single #
face $-1 $52 $53 $28 $-1 $54 reversed single #
face $-1 $55 $56 $29 $-1 $57 forward single #
face $-1 $58 $59 $30 $-1 $60 reversed single #
face $-1 $61 $62 $31 $-1 $63 forward single #
face $-1 $64 $65 $24 $-1 $66 reversed single #
loop $-1 $-1 $67 $32 #
plane-surface $-1 0 0 11.94253755645285 0 0 1 1 0 0 forward_v I I I I #
face $-1 $68 $69 $25 $-1 $70 reversed single #
loop $-1 $-1 $71 $33 #
plane-surface $-1 0 -26.522070471452309 -2.1401097110568856 0 0 1 1 0 0 forward_v I I I I #
face $-1 $72 $73 $26 $-1 $74 reversed single #
loop $-1 $-1 $75 $34 #
plane-surface $-1 -196.4500193697597 15.490924420163889 83.479967209121014 0 1 0 -0.83867057594974714 0 0.54463902268945019 forward_v I I I I #
face $-1 $76 $77 $27 $-1 $78 forward single #
loop $-1 $79 $80 $35 #
cone-surface $-1 -68.970297880753222 20.86856567817 6.6566863082312384 0.83867057594974714 0 -0.54463902268945019 1.0892780453789004 0 1.6773411518994943 1 I I 0 1 2 forward I I I I #
face $-1 $81 $82 $28 $-1 $83 reversed single #
loop $-1 $-1 $84 $36 #
plane-surface $-1 26.689610847400033 -8.6773309979238853 207.23733219352135 0 -1 0 -0.52991927123019833 0 -0.84804809178421925 forward_v I I I I #
face $-1 $85 $86 $29 $-1 $87 forward single #
loop $-1 $88 $89 $37 #
cone-surface $-1 66.403530654195777 -14.397089168207554 6.1886771443562125 -0.52991927123019833 0 -0.84804809178421925 2.1201202294605483 0 -1.3247981780754958 1 I I 0 1 2.5 forward I I I I #
face $-1 $90 $91 $30 $-1 $92 reversed single #
loop $-1 $-1 $93 $38 #
plane-surface $-1 26.689610847400033 17.844739473528421 207.23733219352135 0 -1 0 -0.52991927123019833 0 -0.84804809178421925 forward_v I I I I #
face $-1 $94 $95 $31 $-1 $96 forward single #
loop $-1 $97 $98 $39 #
cone-surface $-1 66.403530654195777 12.124981303244752 6.1886771443562125 -0.52991927123019833 0 -0.84804809178421925 2.1201202294605483 0 -1.3247981780754958 1 I I 0 1 2.5 forward I I I I #
face $-1 $99 $100 $24 $-1 $101 reversed single #
loop $-1 $-1 $102 $40 #
plane-surface $-1 0 0 -11.94253755645285 0 0 1 1 0 0 forward_v I I I I #
coedge $-1 $103 $104 $105 $106 forward $41 $-1 #
face $-1 $107 $108 $25 $-1 $109 reversed single #
loop $-1 $-1 $110 $43 #
plane-surface $-1 0 -26.522070471452309 -6.1163875586898495 0 0 1 1 0 0 forward_v I I I I #
coedge $-1 $111 $112 $113 $114 reversed $44 $-1 #
face $-1 $115 $116 $26 $-1 $117 reversed single #
loop $-1 $-1 $118 $46 #
plane-surface $-1 -73.375041962950519 20.86856567817 3.5541449201234627 -0.83867057594974714 0 0.54463902268945019 0.54463902268945019 0 0.83867057594974714 forward_v I I I I #
coedge $-1 $119 $120 $121 $122 reversed $47 $-1 #
face $-1 $-1 $123 $27 $-1 $124 forward single #
loop $-1 $125 $126 $49 #
cone-surface $-1 -66.450626071347514 20.86856567817 5.0203923554848711 0.83867057594974714 0 -0.54463902268945019 0.54463902268945019 0 0.83867057594974714 1 I I -0.70710678118654746 0.70710678118654746 1 forward I I I I #
loop $-1 $-1 $127 $35 #
coedge $-1 $80 $80 $128 $129 reversed $50 $-1 #
face $-1 $130 $131 $28 $-1 $132 reversed single #
loop $-1 $-1 $133 $52 #
plane-surface $-1 -51.076086679583909 -14.397089168207554 82.786203550986926 0.52991927123019833 0 0.84804809178421925 0.84804809178421925 0 -0.52991927123019833 forward_v I I I I #
coedge $-1 $134 $135 $136 $137 reversed $53 $-1 #
face $-1 $-1 $138 $29 $-1 $139 forward single #
loop $-1 $140 $141 $55 #
cone-surface $-1 64.308403190959226 -14.397089168207554 2.8357723837542164 -0.52991927123019833 0 -0.84804809178421925 1.0600601147302742 0 -0.66239908903774791 1 I I -0.70710678118654746 0.70710678118654746 1.25 forward I I I I #
loop $-1 $-1 $142 $37 #
coedge $-1 $89 $89 $143 $144 reversed $56 $-1 #
face $-1 $145 $146 $30 $-1 $147 reversed single #
loop $-1 $-1 $148 $58 #
plane-surface $-1 -51.076086679583909 12.124981303244752 82.786203550986926 0.52991927123019833 0 0.84804809178421925 0.84804809178421925 0 -0.52991927123019833 forward_v I I I I #
coedge $-1 $149 $150 $151 $152 reversed $59 $-1 #
face $-1 $-1 $153 $31 $-1 $154 forward single #
loop $-1 $155 $156 $61 #
cone-surface $-1 64.308403190959226 12.124981303244752 2.8357723837542164 -0.52991927123019833 0 -0.84804809178421925 1.0600601147302742 0 -0.66239908903774791 1 I I -0.70710678118654746 0.70710678118654746 1.25 forward I I I I #
loop $-1 $-1 $157 $39 #
coedge $-1 $98 $98 $158 $159 reversed $62 $-1 #
face $-1 $160 $161 $24 $-1 $162 reversed single #
loop $-1 $-1 $163 $64 #
plane-surface $-1 0 -32.927293604413393 0 0 1 0 0 0 1 forward_v I I I I #
coedge $-1 $164 $165 $166 $167 forward $65 $-1 #
coedge $-1 $168 $67 $169 $170 forward $41 $-1 #
coedge $-1 $67 $168 $171 $172 forward $41 $-1 #
coedge $-1 $173 $174 $67 $106 reversed $175 $-1 #
edge $-1 $176 -32.927293604413393 $177 32.927293604413393 $105 $178 forward 7 unknown #
face $-1 $179 $180 $25 $-1 $181 reversed single #
loop $-1 $-1 $182 $68 #
plane-surface $-1 0 -20.116847338491226 -4.1282486348733674 0 -1 0 0 0 -1 forward_v I I I I #
coedge $-1 $183 $184 $185 $186 reversed $69 $-1 #
coedge $-1 $187 $71 $188 $189 forward $44 $-1 #
coedge $-1 $71 $187 $190 $191 reversed $44 $-1 #
coedge $-1 $192 $193 $71 $114 forward $194 $-1 #
edge $-1 $195 6.8558121027650714 $196 19.666258368687238 $113 $197 forward 7 unknown #
face $-1 $198 $199 $26 $-1 $200 reversed single #
loop $-1 $-1 $201 $72 #
plane-surface $-1 -196.4500193697597 26.246206936176112 83.479967209121014 0 -1 0 0.83867057594974714 0 -0.54463902268945019 forward_v I I I I #
coedge $-1 $202 $203 $204 $205 reversed $73 $-1 #
coedge $-1 $120 $75 $206 $207 reversed $47 $-1 #
coedge $-1 $75 $119 $202 $208 reversed $47 $-1 #
coedge $-1 $204 $209 $75 $122 forward $210 $-1 #
edge $-1 $211 24.849967721929318 $212 30.297453419412022 $121 $213 forward 7 unknown #
loop $-1 $-1 $128 $76 #
plane-surface $-1 -73.375041962950519 20.86856567817 3.5541449201234627 -0.83867057594974714 0 0.54463902268945019 0.54463902268945019 0 0.83867057594974714 forward_v I I I I #
loop $-1 $-1 $214 $49 #
coedge $-1 $126 $126 $127 $215 reversed $77 $-1 #
coedge $-1 $127 $127 $126 $215 forward $79 $-1 #
coedge $-1 $128 $128 $80 $129 forward $123 $-1 #
edge $-1 $216 0 $216 6.2831853071796004 $128 $217 forward 7 unknown #
face $-1 $218 $219 $28 $-1 $220 forward single #
loop $-1 $-1 $221 $81 #
plane-surface $-1 26.689610847400033 -20.116847338491223 207.23733219352135 0 1 0 0.52991927123019833 0 0.84804809178421925 forward_v I I I I #
coedge $-1 $222 $223 $224 $225 reversed $82 $-1 #
coedge $-1 $135 $84 $226 $227 reversed $53 $-1 #
coedge $-1 $84 $134 $222 $228 reversed $53 $-1 #
coedge $-1 $224 $229 $84 $137 forward $219 $-1 #
edge $-1 $230 -60.030236539250517 $231 -48.952670670138609 $136 $232 forward 7 unknown #
loop $-1 $-1 $143 $85 #
plane-surface $-1 -51.076086679583909 -14.397089168207554 82.786203550986926 0.52991927123019833 0 0.84804809178421925 0.84804809178421925 0 -0.52991927123019833 forward_v I I I I #
loop $-1 $-1 $233 $55 #
coedge $-1 $141 $141 $142 $234 reversed $86 $-1 #
coedge $-1 $142 $142 $141 $234 forward $88 $-1 #
coedge $-1 $143 $143 $89 $144 forward $138 $-1 #
edge $-1 $235 0 $235 6.2831853071796004 $143 $236 forward 7 unknown #
face $-1 $237 $238 $30 $-1 $239 reversed single #
loop $-1 $-1 $240 $90 #
plane-surface $-1 26.689610847400033 6.4052231329610834 207.23733219352135 0 1 0 0.52991927123019833 0 0.84804809178421925 forward_v I I I I #
coedge $-1 $241 $242 $243 $244 reversed $91 $-1 #
coedge $-1 $150 $93 $245 $246 reversed $59 $-1 #
coedge $-1 $93 $149 $241 $247 reversed $59 $-1 #
coedge $-1 $243 $248 $93 $152 forward $249 $-1 #
edge $-1 $250 -60.030236539250517 $251 -48.952670670138609 $151 $252 forward 7 unknown #
loop $-1 $-1 $158 $94 #
plane-surface $-1 -51.076086679583909 12.124981303244752 82.786203550986926 0.52991927123019833 0 0.84804809178421925 0.84804809178421925 0 -0.52991927123019833 forward_v I I I I #
loop $-1 $-1 $253 $61 #
coedge $-1 $156 $156 $157 $254 reversed $95 $-1 #
coedge $-1 $157 $157 $156 $254 forward $97 $-1 #
coedge $-1 $158 $158 $98 $159 forward $153 $-1 #
edge $-1 $255 0 $255 6.2831853071796004 $158 $256 forward 7 unknown #
face $-1 $257 $258 $24 $-1 $259 reversed single #
loop $-1 $-1 $260 $99 #
plane-surface $-1 -73.375041962950533 0 0 1 0 0 0 0 -1 forward_v I I I I #
coedge $-1 $261 $171 $262 $263 forward $100 $-1 #
coedge $-1 $264 $102 $261 $265 forward $65 $-1 #
coedge $-1 $102 $264 $266 $267 forward $65 $-1 #
coedge $-1 $174 $173 $102 $167 reversed $175 $-1 #
edge $-1 $268 -32.927293604413393 $269 32.927293604413393 $166 $270 forward 7 unknown #
coedge $-1 $104 $103 $271 $272 forward $41 $-1 #
coedge $-1 $273 $274 $103 $170 reversed $258 $-1 #
edge $-1 $177 -73.375041962950533 $275 73.375041962950533 $169 $276 forward 7 unknown #
coedge $-1 $163 $277 $104 $172 reversed $100 $-1 #
edge $-1 $278 -73.375041962950533 $176 73.375041962950533 $171 $279 forward 7 unknown #
coedge $-1 $166 $105 $277 $280 forward $175 $-1 #
coedge $-1 $105 $166 $273 $281 reversed $175 $-1 #
loop $-1 $-1 $173 $257 #
vertex $-1 $106 $282 #
vertex $-1 $106 $283 #
straight-curve $-1 73.375041962950533 0 11.94253755645285 0 1 0 I I #
face $-1 $284 $285 $25 $-1 $286 reversed single #
loop $-1 $-1 $287 $107 #
plane-surface $-1 -73.375041962950533 0 0 1 0 0 0 0 -1 forward_v I I I I #
coedge $-1 $288 $188 $193 $289 reversed $108 $-1 #
coedge $-1 $290 $110 $291 $292 reversed $69 $-1 #
coedge $-1 $110 $290 $288 $293 forward $69 $-1 #
coedge $-1 $193 $192 $110 $186 forward $194 $-1 #
edge $-1 $294 -19.666258368687238 $295 -6.8558121027650714 $185 $296 forward 7 unknown #
coedge $-1 $112 $111 $287 $297 reversed $44 $-1 #
coedge $-1 $182 $298 $111 $189 reversed $108 $-1 #
edge $-1 $195 -73.375041962950533 $299 73.375041962950533 $188 $300 forward 7 unknown #
coedge $-1 $301 $302 $112 $191 forward $285 $-1 #
edge $-1 $196 -73.375041962950533 $303 73.375041962950533 $190 $304 forward 7 unknown #
coedge $-1 $185 $113 $302 $305 forward $194 $-1 #
coedge $-1 $113 $185 $182 $289 forward $194 $-1 #
loop $-1 $-1 $113 $284 #
vertex $-1 $114 $306 #
vertex $-1 $305 $307 #
straight-curve $-1 73.375041962950533 -13.261035235726155 -2.1401097110568856 0 -1 0 I I #
face $-1 $-1 $210 $26 $-1 $308 forward single #
loop $-1 $-1 $309 $115 #
plane-surface $-1 -73.375041962950533 0 0 1 0 0 0 0 -1 forward_v I I I I #
coedge $-1 $310 $311 $312 $313 reversed $116 $-1 #
coedge $-1 $314 $118 $120 $208 forward $73 $-1 #
coedge $-1 $118 $314 $310 $315 forward $73 $-1 #
coedge $-1 $312 $121 $118 $205 forward $210 $-1 #
edge $-1 $212 5.0566415810788889 $316 15.811924097091111 $204 $317 forward 7 unknown #
coedge $-1 $318 $319 $119 $207 forward $199 $-1 #
edge $-1 $320 -38.185838684437066 $211 -29.797446048107659 $206 $321 forward 7 unknown #
edge $-1 $212 -10.002011369994715 $320 2.5989569140172373e-014 $120 $322 forward 7 unknown #
coedge $-1 $121 $312 $318 $323 forward $210 $-1 #
loop $-1 $-1 $312 $198 #
vertex $-1 $207 $324 #
vertex $-1 $122 $325 #
straight-curve $-1 -98.225009684879851 15.490924420163889 11.942537556452848 1 0 0 I I #
coedge $-1 $214 $214 $-1 $326 reversed $125 $-1 #
edge $-1 $327 0 $327 6.2831853071796004 $126 $328 forward 7 unknown #
vertex $-1 $129 $329 #
ellipse-curve $-1 -70.651299114209181 20.86856567817 7.7483412382881509 -0.83867057594974714 0 0.54463902268945019 1.0892780453789004 0 1.6773411518994943 1 I I #
face $-1 $-1 $330 $28 $-1 $331 reversed single #
loop $-1 $-1 $136 $130 #
plane-surface $-1 0 0 11.94253755645285 0 0 1 1 0 0 forward_v I I I I #
coedge $-1 $332 $333 $334 $335 reversed $131 $-1 #
coedge $-1 $336 $133 $135 $228 forward $82 $-1 #
coedge $-1 $133 $336 $332 $337 forward $82 $-1 #
coedge $-1 $334 $136 $133 $225 forward $219 $-1 #
edge $-1 $231 1.4787864138201083 $338 12.918302754387446 $224 $339 forward 7 unknown #
coedge $-1 $340 $341 $134 $227 forward $330 $-1 #
edge $-1 $342 -98.598160072757707 $230 -91.676128540307829 $226 $343 forward 7 unknown #
edge $-1 $231 133.68765742387848 $342 146.75008392590109 $135 $344 forward 7 unknown #
coedge $-1 $136 $334 $340 $345 forward $219 $-1 #
vertex $-1 $227 $346 #
vertex $-1 $137 $347 #
straight-curve $-1 13.344805423700016 -8.6773309979238853 11.942537556452848 -1 0 0 I I #
coedge $-1 $233 $233 $-1 $348 reversed $140 $-1 #
edge $-1 $349 0 $349 6.2831853071796004 $141 $350 forward 7 unknown #
vertex $-1 $144 $351 #
ellipse-curve $-1 67.836259028394579 -14.397089168207554 8.4815217902279176 0.52991927123019833 0 0.84804809178421925 2.1201202294605483 0 -1.3247981780754958 1 I I #
face $-1 $-1 $249 $30 $-1 $352 forward single #
loop $-1 $-1 $353 $145 #
plane-surface $-1 73.375041962950533 0 0 -1 0 0 0 0 1 forward_v I I I I #
coedge $-1 $354 $355 $356 $357 reversed $146 $-1 #
coedge $-1 $358 $148 $150 $247 forward $91 $-1 #
coedge $-1 $148 $358 $354 $359 forward $91 $-1 #
coedge $-1 $356 $151 $148 $244 forward $249 $-1 #
edge $-1 $251 -11.782248821906045 $360 -0.34273248133870737 $243 $361 forward 7 unknown #
coedge $-1 $362 $363 $149 $246 forward $238 $-1 #
edge $-1 $364 -98.598160072757707 $250 -91.676128540307829 $245 $365 forward 7 unknown #
edge $-1 $251 133.68765742387848 $364 146.75008392590109 $150 $366 forward 7 unknown #
coedge $-1 $151 $356 $362 $367 forward $249 $-1 #
loop $-1 $-1 $356 $237 #
vertex $-1 $246 $368 #
vertex $-1 $152 $369 #
straight-curve $-1 13.344805423700016 17.844739473528421 11.942537556452848 -1 0 0 I I #
coedge $-1 $253 $253 $-1 $370 reversed $155 $-1 #
edge $-1 $371 0 $371 6.2831853071796004 $156 $372 forward 7 unknown #
vertex $-1 $159 $373 #
ellipse-curve $-1 67.836259028394579 12.124981303244752 8.4815217902279176 0.52991927123019833 0 0.84804809178421925 2.1201202294605483 0 -1.3247981780754958 1 I I #
face $-1 $-1 $175 $24 $-1 $374 reversed single #
loop $-1 $-1 $273 $160 #
plane-surface $-1 0 32.927293604413393 0 0 -1 0 0 0 -1 forward_v I I I I #
coedge $-1 $375 $271 $274 $376 forward $161 $-1 #
coedge $-1 $277 $163 $164 $265 reversed $100 $-1 #
coedge $-1 $271 $375 $163 $263 reversed $161 $-1 #
edge $-1 $278 -11.94253755645285 $377 11.94253755645285 $262 $378 forward 7 unknown #
coedge $-1 $165 $164 $375 $379 forward $65 $-1 #
edge $-1 $269 -73.375041962950533 $377 73.375041962950533 $261 $380 forward 7 unknown #
coedge $-1 $274 $273 $165 $267 reversed $258 $-1 #
edge $-1 $381 -73.375041962950533 $268 73.375041962950533 $266 $382 forward 7 unknown #
vertex $-1 $167 $383 #
vertex $-1 $280 $384 #
straight-curve $-1 73.375041962950533 0 -11.94253755645285 0 -1 0 I I #
coedge $-1 $260 $262 $168 $272 reversed $161 $-1 #
edge $-1 $275 -32.927293604413393 $278 32.927293604413393 $271 $385 forward 7 unknown #
coedge $-1 $266 $169 $174 $281 forward $258 $-1 #
coedge $-1 $169 $266 $260 $376 reversed $258 $-1 #
vertex $-1 $170 $386 #
straight-curve $-1 0 32.927293604413393 11.94253755645285 -1 0 0 I I #
coedge $-1 $171 $261 $173 $280 reversed $100 $-1 #
vertex $-1 $272 $387 #
straight-curve $-1 0 -32.927293604413393 11.94253755645285 1 0 0 I I #
edge $-1 $176 -11.94253755645285 $269 11.94253755645285 $173 $388 forward 7 unknown #
edge $-1 $177 -11.94253755645285 $268 11.94253755645285 $174 $389 forward 7 unknown #
point $-1 73.375041962950533 -32.927293604413393 11.94253755645285 #
point $-1 73.375041962950533 32.927293604413393 11.94253755645285 #
face $-1 $-1 $194 $25 $-1 $390 reversed single #
loop $-1 $-1 $190 $179 #
plane-surface $-1 0 -32.927293604413393 0 0 1 0 0 0 1 forward_v I I I I #
coedge $-1 $391 $392 $187 $297 forward $180 $-1 #
coedge $-1 $298 $182 $184 $293 reversed $108 $-1 #
edge $-1 $295 -4.0522632412531658 $195 -0.075985393620201958 $193 $393 forward 7 unknown #
coedge $-1 $184 $183 $394 $395 reversed $69 $-1 #
coedge $-1 $302 $301 $183 $292 forward $285 $-1 #
edge $-1 $396 -73.375041962950533 $294 73.375041962950533 $291 $397 forward 7 unknown #
edge $-1 $398 -73.375041962950533 $295 73.375041962950533 $288 $399 forward 7 unknown #
vertex $-1 $292 $400 #
vertex $-1 $186 $401 #
straight-curve $-1 73.375041962950533 -13.261035235726155 -6.1163875586898495 0 1 0 I I #
edge $-1 $303 -19.666258368687238 $299 -6.8558121027650714 $287 $402 forward 7 unknown #
coedge $-1 $188 $288 $391 $403 reversed $108 $-1 #
vertex $-1 $297 $404 #
straight-curve $-1 0 -20.116847338491226 -2.1401097110568856 -1 0 0 I I #
coedge $-1 $291 $190 $392 $405 forward $285 $-1 #
coedge $-1 $190 $291 $192 $305 reversed $285 $-1 #
vertex $-1 $405 $406 #
straight-curve $-1 0 -32.927293604413393 -2.1401097110568856 -1 0 0 I I #
edge $-1 $196 2.1401097110568856 $294 6.1163875586898495 $192 $407 forward 7 unknown #
point $-1 73.375041962950533 -20.116847338491226 -2.1401097110568856 #
point $-1 73.375041962950533 -32.927293604413393 -2.1401097110568856 #
plane-surface $-1 0 0 11.94253755645285 0 0 1 1 0 0 forward_v I I I I #
coedge $-1 $319 $318 $311 $408 forward $199 $-1 #
coedge $-1 $311 $201 $203 $315 reversed $116 $-1 #
coedge $-1 $201 $310 $309 $408 reversed $116 $-1 #
coedge $-1 $209 $204 $201 $313 forward $210 $-1 #
edge $-1 $316 -30.297453419412022 $409 -24.849967721929318 $312 $410 forward 7 unknown #
coedge $-1 $203 $202 $319 $411 reversed $73 $-1 #
edge $-1 $412 -2.5989569140172373e-014 $316 10.002011369994715 $310 $413 forward 7 unknown #
vertex $-1 $205 $414 #
straight-curve $-1 -67.927556265467828 10.434282839085 11.94253755645285 0 1 0 I I #
coedge $-1 $309 $206 $209 $323 reversed $199 $-1 #
coedge $-1 $206 $309 $314 $411 forward $199 $-1 #
vertex $-1 $207 $415 #
straight-curve $-1 -73.375041962950533 15.490924420163889 41.739983604560507 0 0 1 I I #
straight-curve $-1 -73.375041962950519 15.490924420163889 3.5541449201234627 -0.54463902268945019 0 -0.83867057594974714 I I #
edge $-1 $409 -26.246206936176112 $211 -15.490924420163889 $318 $416 forward 7 unknown #
point $-1 -73.375041962950533 15.490924420163889 11.94253755645285 #
point $-1 -67.927556265467828 15.490924420163889 11.94253755645285 #
edge $-1 $417 1 $417 0 $214 $-1 forward 7 unknown #
vertex $-1 $215 $418 #
ellipse-curve $-1 -67.289296647297263 20.86856567817 5.5650313781743215 -0.83867057594974714 0 0.54463902268945019 1.0892780453789004 0 1.6773411518994943 1 I I #
point $-1 -69.56202106883029 20.86856567817 9.4256823901876494 #
loop $-1 $-1 $226 $218 #
plane-surface $-1 73.375041962950533 0 0 -1 0 0 0 0 1 forward_v I I I I #
coedge $-1 $333 $221 $223 $337 reversed $131 $-1 #
coedge $-1 $221 $332 $419 $420 reversed $131 $-1 #
coedge $-1 $229 $224 $221 $335 forward $219 $-1 #
edge $-1 $338 48.952670670138609 $421 60.030236539250517 $334 $422 forward 7 unknown #
coedge $-1 $223 $222 $341 $423 reversed $82 $-1 #
edge $-1 $424 -146.75008392590109 $338 -133.68765742387848 $332 $425 forward 7 unknown #
vertex $-1 $225 $426 #
straight-curve $-1 62.297476093838625 -7.198544584103777 11.942537556452841 0 -1 0 I I #
coedge $-1 $419 $226 $229 $345 reversed $330 $-1 #
coedge $-1 $226 $419 $336 $423 forward $330 $-1 #
vertex $-1 $227 $427 #
straight-curve $-1 73.375041962950533 -8.6773309979238853 103.61866609676068 0 0 1 I I #
straight-curve $-1 -51.076086679583909 -8.6773309979238853 82.786203550986926 0.84804809178421925 0 -0.52991927123019833 I I #
edge $-1 $421 -20.116847338491223 $230 -8.6773309979238853 $340 $428 forward 7 unknown #
point $-1 73.375041962950533 -8.6773309979238853 11.94253755645285 #
point $-1 62.297476093838625 -8.6773309979238853 11.942537556452848 #
edge $-1 $429 1 $429 0 $233 $-1 forward 7 unknown #
vertex $-1 $234 $430 #
ellipse-curve $-1 64.970802279996974 -14.397089168207554 3.8958324984844905 0.52991927123019833 0 0.84804809178421925 2.1201202294605483 0 -1.3247981780754958 1 I I #
point $-1 69.956379257855133 -14.397089168207554 7.1567236121524376 #
plane-surface $-1 0 0 11.94253755645285 0 0 1 1 0 0 forward_v I I I I #
coedge $-1 $363 $362 $355 $431 forward $238 $-1 #
coedge $-1 $355 $240 $242 $359 reversed $146 $-1 #
coedge $-1 $240 $354 $353 $431 reversed $146 $-1 #
coedge $-1 $248 $243 $240 $357 forward $249 $-1 #
edge $-1 $360 48.952670670138609 $432 60.030236539250517 $356 $433 forward 7 unknown #
coedge $-1 $242 $241 $363 $434 reversed $91 $-1 #
edge $-1 $435 -146.75008392590109 $360 -133.68765742387848 $354 $436 forward 7 unknown #
vertex $-1 $244 $437 #
straight-curve $-1 62.297476093838625 6.062490651622376 11.942537556452841 0 -1 0 I I #
coedge $-1 $353 $245 $248 $367 reversed $238 $-1 #
coedge $-1 $245 $353 $358 $434 forward $238 $-1 #
vertex $-1 $246 $438 #
straight-curve $-1 73.375041962950533 17.844739473528421 103.61866609676068 0 0 1 I I #
straight-curve $-1 -51.076086679583909 17.844739473528421 82.786203550986926 0.84804809178421925 0 -0.52991927123019833 I I #
edge $-1 $432 6.4052231329610834 $250 17.844739473528421 $362 $439 forward 7 unknown #
point $-1 73.375041962950533 17.844739473528421 11.94253755645285 #
point $-1 62.297476093838625 17.844739473528421 11.942537556452848 #
edge $-1 $440 1 $440 0 $253 $-1 forward 7 unknown #
vertex $-1 $254 $441 #
ellipse-curve $-1 64.970802279996974 12.124981303244752 3.8958324984844905 0.52991927123019833 0 0.84804809178421925 2.1201202294605483 0 -1.3247981780754958 1 I I #
point $-1 69.956379257855133 12.124981303244752 7.1567236121524376 #
plane-surface $-1 73.375041962950533 0 0 -1 0 0 0 0 1 forward_v I I I I #
coedge $-1 $262 $260 $264 $379 reversed $161 $-1 #
edge $-1 $275 -11.94253755645285 $381 11.94253755645285 $274 $442 forward 7 unknown #
vertex $-1 $379 $443 #
straight-curve $-1 -73.375041962950533 -32.927293604413393 0 0 0 -1 I I #
edge $-1 $377 -32.927293604413393 $381 32.927293604413393 $375 $444 forward 7 unknown #
straight-curve $-1 0 -32.927293604413393 -11.94253755645285 -1 0 0 I I #
vertex $-1 $267 $445 #
straight-curve $-1 0 32.927293604413393 -11.94253755645285 1 0 0 I I #
point $-1 73.375041962950533 32.927293604413393 -11.94253755645285 #
point $-1 73.375041962950533 -32.927293604413393 -11.94253755645285 #
straight-curve $-1 -73.375041962950533 0 11.94253755645285 0 -1 0 I I #
point $-1 -73.375041962950533 32.927293604413393 11.94253755645285 #
point $-1 -73.375041962950533 -32.927293604413393 11.94253755645285 #
straight-curve $-1 73.375041962950533 -32.927293604413393 0 0 0 -1 I I #
straight-curve $-1 73.375041962950533 32.927293604413393 0 0 0 -1 I I #
plane-surface $-1 73.375041962950533 0 0 -1 0 0 0 0 1 forward_v I I I I #
coedge $-1 $394 $287 $298 $403 forward $180 $-1 #
coedge $-1 $287 $394 $301 $405 reversed $180 $-1 #
straight-curve $-1 73.375041962950533 -20.116847338491226 -2.0641243174366837 0 0 1 I I #
coedge $-1 $392 $391 $290 $395 forward $180 $-1 #
edge $-1 $398 6.8558121027650714 $396 19.666258368687238 $394 $446 forward 7 unknown #
vertex $-1 $292 $447 #
straight-curve $-1 0 -32.927293604413393 -6.1163875586898495 1 0 0 I I #
vertex $-1 $395 $448 #
straight-curve $-1 0 -20.116847338491226 -6.1163875586898495 1 0 0 I I #
point $-1 73.375041962950533 -32.927293604413393 -6.1163875586898495 #
point $-1 73.375041962950533 -20.116847338491226 -6.1163875586898495 #
straight-curve $-1 -73.375041962950533 -13.261035235726155 -2.1401097110568856 0 1 0 I I #
edge $-1 $299 0.075985393620201958 $398 4.0522632412531658 $391 $449 forward 7 unknown #
point $-1 -73.375041962950533 -20.116847338491226 -2.1401097110568856 #
edge $-1 $303 2.1401097110568856 $396 6.1163875586898495 $392 $450 forward 7 unknown #
point $-1 -73.375041962950533 -32.927293604413393 -2.1401097110568856 #
straight-curve $-1 73.375041962950533 -32.927293604413393 0 0 0 -1 I I #
edge $-1 $409 29.797446048107659 $412 38.185838684437066 $309 $451 forward 7 unknown #
vertex $-1 $323 $452 #
straight-curve $-1 -98.225009684879851 26.246206936176112 11.942537556452848 -1 0 0 I I #
edge $-1 $412 -15.811924097091111 $320 -5.0566415810788889 $319 $453 forward 7 unknown #
vertex $-1 $411 $454 #
straight-curve $-1 -73.375041962950519 26.246206936176112 3.5541449201234627 0.54463902268945019 0 0.83867057594974714 I I #
point $-1 -67.927556265467828 26.246206936176112 11.94253755645285 #
point $-1 -73.375041962950533 15.490924420163889 3.554144920123441 #
straight-curve $-1 -73.375041962950533 0 11.94253755645285 0 -1 0 I I #
vertex $-1 $326 $455 #
point $-1 -66.200018601918359 20.86856567817 7.2423725300738155 #
coedge $-1 $341 $340 $333 $420 forward $330 $-1 #
edge $-1 $421 91.676128540307829 $424 98.598160072757707 $419 $456 forward 7 unknown #
vertex $-1 $345 $457 #
straight-curve $-1 13.344805423700016 -20.116847338491223 11.942537556452848 1 0 0 I I #
edge $-1 $424 -12.918302754387446 $342 -1.4787864138201083 $341 $458 forward 7 unknown #
vertex $-1 $423 $459 #
straight-curve $-1 -51.076086679583909 -20.116847338491223 82.786203550986926 -0.84804809178421925 0 0.52991927123019833 I I #
point $-1 62.297476093838625 -20.116847338491223 11.942537556452848 #
point $-1 73.375041962950533 -8.6773309979238853 5.0205060240029695 #
straight-curve $-1 73.375041962950533 0 11.94253755645285 0 1 0 I I #
vertex $-1 $348 $460 #
point $-1 67.090922509457528 -14.397089168207554 2.5710343204089945 #
edge $-1 $432 91.676128540307829 $435 98.598160072757707 $353 $461 forward 7 unknown #
vertex $-1 $367 $462 #
straight-curve $-1 13.344805423700016 6.4052231329610834 11.942537556452848 1 0 0 I I #
edge $-1 $435 0.34273248133870737 $364 11.782248821906045 $363 $463 forward 7 unknown #
vertex $-1 $434 $464 #
straight-curve $-1 -51.076086679583909 6.4052231329610834 82.786203550986926 -0.84804809178421925 0 0.52991927123019833 I I #
point $-1 62.297476093838625 6.4052231329610834 11.942537556452848 #
point $-1 73.375041962950533 17.844739473528421 5.0205060240029695 #
straight-curve $-1 73.375041962950533 0 11.94253755645285 0 1 0 I I #
vertex $-1 $370 $465 #
point $-1 67.090922509457528 12.124981303244752 2.5710343204089945 #
straight-curve $-1 -73.375041962950533 32.927293604413393 0 0 0 -1 I I #
point $-1 -73.375041962950533 -32.927293604413393 -11.94253755645285 #
straight-curve $-1 -73.375041962950533 0 -11.94253755645285 0 1 0 I I #
point $-1 -73.375041962950533 32.927293604413393 -11.94253755645285 #
straight-curve $-1 -73.375041962950533 -13.261035235726155 -6.1163875586898495 0 -1 0 I I #
point $-1 -73.375041962950533 -32.927293604413393 -6.1163875586898495 #
point $-1 -73.375041962950533 -20.116847338491226 -6.1163875586898495 #
straight-curve $-1 -73.375041962950533 -20.116847338491226 -2.0641243174366837 0 0 -1 I I #
straight-curve $-1 -73.375041962950533 -32.927293604413393 0 0 0 -1 I I #
straight-curve $-1 -73.375041962950533 26.246206936176112 41.739983604560507 0 0 -1 I I #
point $-1 -73.375041962950533 26.246206936176112 11.94253755645285 #
straight-curve $-1 -73.375041962950533 10.434282839085 3.5541449201234281 0 -1 0 I I #
point $-1 -73.375041962950533 26.246206936176112 3.554144920123441 #
point $-1 -65.611955495397766 20.86856567817 4.4757533327954206 #
straight-curve $-1 73.375041962950533 -20.116847338491223 103.61866609676068 0 0 -1 I I #
point $-1 73.375041962950533 -20.116847338491223 11.94253755645285 #
straight-curve $-1 73.375041962950547 -7.198544584103777 5.0205060240029766 0 1 0 I I #
point $-1 73.375041962950533 -20.116847338491223 5.0205060240029695 #
point $-1 63.646004101921477 -14.397089168207554 1.7757122690239422 #
straight-curve $-1 73.375041962950533 6.4052231329610834 103.61866609676068 0 0 -1 I I #
point $-1 73.375041962950533 6.4052231329610834 11.94253755645285 #
straight-curve $-1 73.375041962950547 6.062490651622376 5.0205060240029766 0 1 0 I I #
point $-1 73.375041962950533 6.4052231329610834 5.0205060240029695 #
point $-1 63.646004101921477 12.124981303244752 1.7757122690239422 #
End-of-ACIS-data 