500 0 20 0           
7 Unknown 11 ACIS 5.0 NT 24 Thu Mar 25 16:57:28 1999 
-1 9.9999999999999995e-007 1e-010 
body $-1 $20 $-1 $21 #
body $-1 $22 $-1 $23 #
body $-1 $24 $-1 $25 #
body $-1 $26 $-1 $27 #
body $-1 $28 $-1 $29 #
body $-1 $30 $-1 $31 #
body $-1 $32 $-1 $33 #
body $-1 $34 $-1 $35 #
body $-1 $36 $-1 $37 #
body $-1 $38 $-1 $39 #
body $-1 $40 $-1 $41 #
body $-1 $42 $-1 $43 #
body $-1 $44 $-1 $45 #
body $-1 $46 $-1 $47 #
body $-1 $48 $-1 $49 #
body $-1 $50 $-1 $51 #
body $-1 $52 $-1 $53 #
body $-1 $54 $-1 $55 #
body $-1 $56 $-1 $57 #
body $-1 $58 $-1 $59 #
lump $-1 $-1 $60 $0 #
transform $-1 1 0 0 0 1 0 0 0 1 52.49671926023133 26.468330929118622 10.517863806935873 1 rotate no_reflect no_shear #
lump $-1 $-1 $61 $1 #
transform $-1 1 0 0 0 1 0 0 0 1 52.49671926023133 26.468330929118622 10.517863806935873 1 rotate no_reflect no_shear #
lump $-1 $-1 $62 $2 #
transform $-1 1 0 0 0 1 0 0 0 1 52.49671926023133 26.468330929118622 10.517863806935873 1 rotate no_reflect no_shear #
lump $-1 $-1 $63 $3 #
transform $-1 1 0 0 0 1 0 0 0 1 52.49671926023133 26.468330929118622 10.517863806935873 1 rotate no_reflect no_shear #
lump $-1 $-1 $64 $4 #
transform $-1 1 0 0 0 1 0 0 0 1 52.49671926023133 26.468330929118622 10.517863806935873 1 rotate no_reflect no_shear #
lump $-1 $-1 $65 $5 #
transform $-1 1 0 0 0 1 0 0 0 1 52.49671926023133 26.468330929118622 10.517863806935873 1 rotate no_reflect no_shear #
lump $-1 $-1 $66 $6 #
transform $-1 1 0 0 0 1 0 0 0 1 52.49671926023133 26.468330929118622 10.517863806935873 1 rotate no_reflect no_shear #
lump $-1 $-1 $67 $7 #
transform $-1 1 0 0 0 1 0 0 0 1 52.49671926023133 26.468330929118622 10.517863806935873 1 rotate no_reflect no_shear #
lump $-1 $-1 $68 $8 #
transform $-1 1 0 0 0 1 0 0 0 1 52.49671926023133 26.468330929118622 10.517863806935873 1 rotate no_reflect no_shear #
lump $-1 $-1 $69 $9 #
transform $-1 1 0 0 0 1 0 0 0 1 52.49671926023133 26.468330929118622 10.517863806935873 1 rotate no_reflect no_shear #
lump $-1 $-1 $70 $10 #
transform $-1 1 0 0 0 1 0 0 0 1 52.49671926023133 26.468330929118622 10.517863806935873 1 rotate no_reflect no_shear #
lump $-1 $-1 $71 $11 #
transform $-1 1 0 0 0 1 0 0 0 1 52.49671926023133 26.468330929118622 10.517863806935873 1 rotate no_reflect no_shear #
lump $-1 $-1 $72 $12 #
transform $-1 1 0 0 0 1 0 0 0 1 52.49671926023133 26.468330929118622 10.517863806935873 1 rotate no_reflect no_shear #
lump $-1 $-1 $73 $13 #
transform $-1 1 0 0 0 1 0 0 0 1 52.49671926023133 26.468330929118622 10.517863806935873 1 rotate no_reflect no_shear #
lump $-1 $-1 $74 $14 #
transform $-1 1 0 0 0 1 0 0 0 1 52.49671926023133 26.468330929118622 10.517863806935873 1 rotate no_reflect no_shear #
lump $-1 $-1 $75 $15 #
transform $-1 1 0 0 0 1 0 0 0 1 52.49671926023133 26.468330929118622 10.517863806935873 1 rotate no_reflect no_shear #
lump $-1 $-1 $76 $16 #
transform $-1 1 0 0 0 1 0 0 0 1 52.49671926023133 26.468330929118622 10.517863806935873 1 rotate no_reflect no_shear #
lump $-1 $-1 $77 $17 #
transform $-1 1 0 0 0 1 0 0 0 1 52.49671926023133 26.468330929118622 10.517863806935873 1 rotate no_reflect no_shear #
lump $-1 $-1 $78 $18 #
transform $-1 1 0 0 0 1 0 0 0 1 52.49671926023133 26.468330929118622 10.517863806935873 1 rotate no_reflect no_shear #
lump $-1 $-1 $79 $19 #
transform $-1 1 0 0 0 1 0 0 0 1 52.49671926023133 26.468330929118622 10.517863806935873 1 rotate no_reflect no_shear #
shell $-1 $-1 $-1 $80 $-1 $20 #
shell $-1 $-1 $-1 $81 $-1 $22 #
shell $-1 $-1 $-1 $82 $-1 $24 #
shell $-1 $-1 $-1 $83 $-1 $26 #
shell $-1 $-1 $-1 $84 $-1 $28 #
shell $-1 $-1 $-1 $85 $-1 $30 #
shell $-1 $-1 $-1 $86 $-1 $32 #
shell $-1 $-1 $-1 $87 $-1 $34 #
shell $-1 $-1 $-1 $88 $-1 $36 #
shell $-1 $-1 $-1 $89 $-1 $38 #
shell $-1 $-1 $-1 $90 $-1 $40 #
shell $-1 $-1 $-1 $91 $-1 $42 #
shell $-1 $-1 $-1 $92 $-1 $44 #
shell $-1 $-1 $-1 $93 $-1 $46 #
shell $-1 $-1 $-1 $94 $-1 $48 #
shell $-1 $-1 $-1 $95 $-1 $50 #
shell $-1 $-1 $-1 $96 $-1 $52 #
shell $-1 $-1 $-1 $97 $-1 $54 #
shell $-1 $-1 $-1 $98 $-1 $56 #
shell $-1 $-1 $-1 $99 $-1 $58 #
face $-1 $100 $101 $60 $-1 $102 reversed single #
face $-1 $103 $104 $61 $-1 $105 forward single #
face $-1 $106 $107 $62 $-1 $108 reversed single #
face $-1 $109 $110 $63 $-1 $111 forward single #
face $-1 $112 $113 $64 $-1 $114 reversed single #
face $-1 $115 $116 $65 $-1 $117 forward single #
face $-1 $118 $119 $66 $-1 $120 forward single #
face $-1 $121 $122 $67 $-1 $123 forward single #
face $-1 $124 $125 $68 $-1 $126 reversed single #
face $-1 $127 $128 $69 $-1 $129 forward single #
face $-1 $130 $131 $70 $-1 $132 forward single #
face $-1 $133 $134 $71 $-1 $135 forward single #
face $-1 $136 $137 $72 $-1 $138 reversed single #
face $-1 $139 $140 $73 $-1 $141 forward single #
face $-1 $142 $143 $74 $-1 $144 forward single #
face $-1 $145 $146 $75 $-1 $147 forward single #
face $-1 $148 $149 $76 $-1 $150 reversed single #
face $-1 $151 $152 $77 $-1 $153 forward single #
face $-1 $154 $155 $78 $-1 $156 forward single #
face $-1 $157 $158 $79 $-1 $159 forward single #
face $-1 $160 $161 $60 $-1 $162 forward single #
loop $-1 $-1 $163 $80 #
plane-surface $-1 0 -26.468330929118622 0 0 1 0 0 0 1 forward_v I I I I #
face $-1 $164 $165 $61 $-1 $166 reversed single #
loop $-1 $-1 $167 $81 #
plane-surface $-1 0 -26.468330929118622 0 0 1 0 0 0 1 forward_v I I I I #
face $-1 $168 $169 $62 $-1 $170 reversed single #
loop $-1 $-1 $171 $82 #
plane-surface $-1 -128.02267922744153 -1.0208296069365659 74.882464657331582 0 1 0 -0.71933980857756763 0 0.69465836192734942 forward_v I I I I #
face $-1 $172 $173 $63 $-1 $174 forward single #
loop $-1 $175 $176 $83 #
cone-surface $-1 -47.668275491645204 2.2101325820592166 5.5660881805736455 0.71933980857756763 0 -0.69465836192734942 0.69465836192734942 0 0.71933980857756763 1 I I 0 1 1 forward I I I I #
face $-1 $177 $178 $64 $-1 $179 reversed single #
loop $-1 $-1 $180 $84 #
plane-surface $-1 47.314733886056828 -4.7440470632223963 150.04392933578688 0 -1 0 -0.68199836817093118 0 -0.7313536940579346 forward_v I I I I #
face $-1 $181 $182 $65 $-1 $183 forward single #
loop $-1 $184 $185 $85 #
cone-surface $-1 47.180007633653354 -9.7624159483933823 5.48127318436 -0.68199836817093118 0 -0.7313536940579346 0.3656768470289673 0 -0.34099918408546559 1 I I 0 1 0.5 forward I I I I #
face $-1 $186 $187 $66 $-1 $188 forward single #
loop $-1 $189 $190 $86 #
cone-surface $-1 47.180007633653354 -7.8805276164542626 5.48127318436 -0.68199836817093118 0 -0.7313536940579346 0.3656768470289673 0 -0.34099918408546559 1 I I 0 1 0.5 forward I I I I #
face $-1 $191 $192 $67 $-1 $193 forward single #
loop $-1 $194 $195 $87 #
cone-surface $-1 47.180007633653354 -5.9986392845151428 5.48127318436 -0.68199836817093118 0 -0.7313536940579346 0.3656768470289673 0 -0.34099918408546559 1 I I 0 1 0.5 forward I I I I #
face $-1 $196 $197 $68 $-1 $198 reversed single #
loop $-1 $-1 $199 $88 #
plane-surface $-1 47.314733886056828 5.6600789342246109 150.04392933578688 0 -1 0 -0.68199836817093118 0 -0.7313536940579346 forward_v I I I I #
face $-1 $200 $201 $69 $-1 $202 forward single #
loop $-1 $203 $204 $89 #
cone-surface $-1 47.180007633653354 0.64171004905362139 5.48127318436 -0.68199836817093118 0 -0.7313536940579346 0.3656768470289673 0 -0.34099918408546559 1 I I 0 1 0.5 forward I I I I #
face $-1 $205 $206 $70 $-1 $207 forward single #
loop $-1 $208 $209 $90 #
cone-surface $-1 47.180007633653354 2.5235983809927447 5.48127318436 -0.68199836817093118 0 -0.7313536940579346 0.3656768470289673 0 -0.34099918408546559 1 I I 0 1 0.5 forward I I I I #
face $-1 $210 $211 $71 $-1 $212 forward single #
loop $-1 $213 $214 $91 #
cone-surface $-1 47.180007633653354 4.4054867129318609 5.48127318436 -0.68199836817093118 0 -0.7313536940579346 0.3656768470289673 0 -0.34099918408546559 1 I I 0 1 0.5 forward I I I I #
face $-1 $215 $216 $72 $-1 $217 reversed single #
loop $-1 $-1 $218 $92 #
plane-surface $-1 47.314733886056828 16.064204931671615 150.04392933578688 0 -1 0 -0.68199836817093118 0 -0.7313536940579346 forward_v I I I I #
face $-1 $219 $220 $73 $-1 $221 forward single #
loop $-1 $222 $223 $93 #
cone-surface $-1 47.180007633653354 11.045836046500625 5.48127318436 -0.68199836817093118 0 -0.7313536940579346 0.3656768470289673 0 -0.34099918408546559 1 I I 0 1 0.5 forward I I I I #
face $-1 $224 $225 $74 $-1 $226 forward single #
loop $-1 $227 $228 $94 #
cone-surface $-1 47.180007633653354 12.927724378439748 5.48127318436 -0.68199836817093118 0 -0.7313536940579346 0.3656768470289673 0 -0.34099918408546559 1 I I 0 1 0.5 forward I I I I #
face $-1 $229 $230 $75 $-1 $231 forward single #
loop $-1 $232 $233 $95 #
cone-surface $-1 47.180007633653354 14.809612710378865 5.48127318436 -0.68199836817093118 0 -0.7313536940579346 0.3656768470289673 0 -0.34099918408546559 1 I I 0 1 0.5 forward I I I I #
face $-1 $234 $235 $76 $-1 $236 reversed single #
loop $-1 $-1 $237 $96 #
plane-surface $-1 47.314733886056828 20.195369822654886 150.04392933578688 0 1 0 0.68199836817093118 0 0.7313536940579346 forward_v I I I I #
face $-1 $238 $239 $77 $-1 $240 forward single #
loop $-1 $241 $242 $97 #
cone-surface $-1 47.180007633653354 21.449962043947629 5.48127318436 -0.68199836817093118 0 -0.7313536940579346 0.3656768470289673 0 -0.34099918408546559 1 I I 0 1 0.5 forward I I I I #
face $-1 $243 $244 $78 $-1 $245 forward single #
loop $-1 $246 $247 $98 #
cone-surface $-1 47.180007633653354 23.331850375886752 5.48127318436 -0.68199836817093118 0 -0.7313536940579346 0.3656768470289673 0 -0.34099918408546559 1 I I 0 1 0.5 forward I I I I #
face $-1 $248 $249 $79 $-1 $250 forward single #
loop $-1 $251 $252 $99 #
cone-surface $-1 47.180007633653354 25.213738707825868 5.48127318436 -0.68199836817093118 0 -0.7313536940579346 0.3656768470289673 0 -0.34099918408546559 1 I I 0 1 0.5 forward I I I I #
face $-1 $253 $254 $60 $-1 $255 reversed single #
loop $-1 $-1 $256 $100 #
plane-surface $-1 0 0 10.517863806935873 0 0 1 1 0 0 forward_v I I I I #
coedge $-1 $257 $258 $259 $260 reversed $101 $-1 #
face $-1 $261 $262 $61 $-1 $263 reversed single #
loop $-1 $-1 $264 $103 #
plane-surface $-1 0 0 -10.517863806935873 0 0 1 1 0 0 forward_v I I I I #
coedge $-1 $265 $266 $267 $268 forward $104 $-1 #
face $-1 $269 $270 $62 $-1 $271 reversed single #
loop $-1 $-1 $272 $106 #
plane-surface $-1 -52.496719260231302 2.2101325820592166 1.9478946415871263 -0.71933980857756763 0 0.69465836192734942 0.69465836192734942 0 0.71933980857756763 forward_v I I I I #
coedge $-1 $273 $274 $275 $276 reversed $107 $-1 #
face $-1 $-1 $277 $63 $-1 $278 forward single #
loop $-1 $279 $280 $109 #
cone-surface $-1 -46.618123232264836 2.2101325820592166 4.551967955922116 0.71933980857756763 0 -0.69465836192734942 0.34732918096367471 0 0.35966990428878381 1 I I -0.70710678118654746 0.70710678118654746 0.5 forward I I I I #
loop $-1 $-1 $281 $83 #
coedge $-1 $176 $176 $282 $283 reversed $110 $-1 #
face $-1 $284 $285 $64 $-1 $286 reversed single #
loop $-1 $-1 $287 $112 #
plane-surface $-1 -24.290619853553693 -7.8805276164542626 73.256590222001876 0.68199836817093118 0 0.7313536940579346 0.7313536940579346 0 -0.68199836817093118 forward_v I I I I #
coedge $-1 $288 $289 $290 $291 reversed $113 $-1 #
face $-1 $-1 $292 $65 $-1 $293 forward single #
loop $-1 $294 $295 $115 #
cone-surface $-1 46.446943162503587 -9.7624159483933823 4.6951578005419048 -0.68199836817093118 0 -0.7313536940579346 0.18283842351448365 0 -0.17049959204273279 1 I I -0.70710678118654624 0.70710678118654879 0.25 forward I I I I #
loop $-1 $-1 $296 $85 #
coedge $-1 $185 $185 $297 $298 reversed $116 $-1 #
face $-1 $-1 $299 $66 $-1 $300 forward single #
loop $-1 $301 $302 $118 #
cone-surface $-1 46.446943162503587 -7.8805276164542626 4.6951578005419048 -0.68199836817093118 0 -0.7313536940579346 0.18283842351448365 0 -0.17049959204273279 1 I I -0.70710678118654624 0.70710678118654879 0.25 forward I I I I #
loop $-1 $-1 $303 $86 #
coedge $-1 $190 $190 $304 $305 reversed $119 $-1 #
face $-1 $-1 $306 $67 $-1 $307 forward single #
loop $-1 $308 $309 $121 #
cone-surface $-1 46.446943162503587 -5.9986392845151428 4.6951578005419048 -0.68199836817093118 0 -0.7313536940579346 0.18283842351448365 0 -0.17049959204273279 1 I I -0.70710678118654624 0.70710678118654879 0.25 forward I I I I #
loop $-1 $-1 $310 $87 #
coedge $-1 $195 $195 $311 $312 reversed $122 $-1 #
face $-1 $313 $314 $68 $-1 $315 reversed single #
loop $-1 $-1 $316 $124 #
plane-surface $-1 -24.290619853553693 2.5235983809927447 73.256590222001876 0.68199836817093118 0 0.7313536940579346 0.7313536940579346 0 -0.68199836817093118 forward_v I I I I #
coedge $-1 $317 $318 $319 $320 reversed $125 $-1 #
face $-1 $-1 $321 $69 $-1 $322 forward single #
loop $-1 $323 $324 $127 #
cone-surface $-1 46.446943162503587 0.64171004905362139 4.6951578005419048 -0.68199836817093118 0 -0.7313536940579346 0.18283842351448365 0 -0.17049959204273279 1 I I -0.70710678118654624 0.70710678118654879 0.25 forward I I I I #
loop $-1 $-1 $325 $89 #
coedge $-1 $204 $204 $326 $327 reversed $128 $-1 #
face $-1 $-1 $328 $70 $-1 $329 forward single #
loop $-1 $330 $331 $130 #
cone-surface $-1 46.446943162503587 2.5235983809927447 4.6951578005419048 -0.68199836817093118 0 -0.7313536940579346 0.18283842351448365 0 -0.17049959204273279 1 I I -0.70710678118654624 0.70710678118654879 0.25 forward I I I I #
loop $-1 $-1 $332 $90 #
coedge $-1 $209 $209 $333 $334 reversed $131 $-1 #
face $-1 $-1 $335 $71 $-1 $336 forward single #
loop $-1 $337 $338 $133 #
cone-surface $-1 46.446943162503587 4.4054867129318609 4.6951578005419048 -0.68199836817093118 0 -0.7313536940579346 0.18283842351448365 0 -0.17049959204273279 1 I I -0.70710678118654624 0.70710678118654879 0.25 forward I I I I #
loop $-1 $-1 $339 $91 #
coedge $-1 $214 $214 $340 $341 reversed $134 $-1 #
face $-1 $342 $343 $72 $-1 $344 reversed single #
loop $-1 $-1 $345 $136 #
plane-surface $-1 -24.290619853553693 12.927724378439748 73.256590222001876 0.68199836817093118 0 0.7313536940579346 0.7313536940579346 0 -0.68199836817093118 forward_v I I I I #
coedge $-1 $346 $347 $348 $349 reversed $137 $-1 #
face $-1 $-1 $350 $73 $-1 $351 forward single #
loop $-1 $352 $353 $139 #
cone-surface $-1 46.446943162503587 11.045836046500625 4.6951578005419048 -0.68199836817093118 0 -0.7313536940579346 0.18283842351448365 0 -0.17049959204273279 1 I I -0.70710678118654624 0.70710678118654879 0.25 forward I I I I #
loop $-1 $-1 $354 $93 #
coedge $-1 $223 $223 $355 $356 reversed $140 $-1 #
face $-1 $-1 $357 $74 $-1 $358 forward single #
loop $-1 $359 $360 $142 #
cone-surface $-1 46.446943162503587 12.927724378439748 4.6951578005419048 -0.68199836817093118 0 -0.7313536940579346 0.18283842351448365 0 -0.17049959204273279 1 I I -0.70710678118654624 0.70710678118654879 0.25 forward I I I I #
loop $-1 $-1 $361 $94 #
coedge $-1 $228 $228 $362 $363 reversed $143 $-1 #
face $-1 $-1 $364 $75 $-1 $365 forward single #
loop $-1 $366 $367 $145 #
cone-surface $-1 46.446943162503587 14.809612710378865 4.6951578005419048 -0.68199836817093118 0 -0.7313536940579346 0.18283842351448365 0 -0.17049959204273279 1 I I -0.70710678118654624 0.70710678118654879 0.25 forward I I I I #
loop $-1 $-1 $368 $95 #
coedge $-1 $233 $233 $369 $370 reversed $146 $-1 #
face $-1 $371 $372 $76 $-1 $373 reversed single #
loop $-1 $-1 $374 $148 #
plane-surface $-1 -24.290619853553693 23.331850375886752 73.256590222001876 0.68199836817093118 0 0.7313536940579346 0.7313536940579346 0 -0.68199836817093118 forward_v I I I I #
coedge $-1 $375 $376 $377 $378 reversed $149 $-1 #
face $-1 $-1 $379 $77 $-1 $380 forward single #
loop $-1 $381 $382 $151 #
cone-surface $-1 46.446943162503587 21.449962043947629 4.6951578005419048 -0.68199836817093118 0 -0.7313536940579346 0.18283842351448365 0 -0.17049959204273279 1 I I -0.70710678118654624 0.70710678118654879 0.25 forward I I I I #
loop $-1 $-1 $383 $97 #
coedge $-1 $242 $242 $384 $385 reversed $152 $-1 #
face $-1 $-1 $386 $78 $-1 $387 forward single #
loop $-1 $388 $389 $154 #
cone-surface $-1 46.446943162503587 23.331850375886752 4.6951578005419048 -0.68199836817093118 0 -0.7313536940579346 0.18283842351448365 0 -0.17049959204273279 1 I I -0.70710678118654624 0.70710678118654879 0.25 forward I I I I #
loop $-1 $-1 $390 $98 #
coedge $-1 $247 $247 $391 $392 reversed $155 $-1 #
face $-1 $-1 $393 $79 $-1 $394 forward single #
loop $-1 $395 $396 $157 #
cone-surface $-1 46.446943162503587 25.213738707825868 4.6951578005419048 -0.68199836817093118 0 -0.7313536940579346 0.18283842351448365 0 -0.17049959204273279 1 I I -0.70710678118654624 0.70710678118654879 0.25 forward I I I I #
loop $-1 $-1 $397 $99 #
coedge $-1 $252 $252 $398 $399 reversed $158 $-1 #
face $-1 $400 $401 $60 $-1 $402 reversed single #
loop $-1 $-1 $403 $160 #
plane-surface $-1 0 0 -10.517863806935873 0 0 1 1 0 0 forward_v I I I I #
coedge $-1 $404 $405 $406 $407 forward $161 $-1 #
coedge $-1 $408 $163 $409 $410 reversed $101 $-1 #
coedge $-1 $163 $408 $411 $412 forward $101 $-1 #
coedge $-1 $413 $403 $163 $260 forward $254 $-1 #
edge $-1 $414 -52.49671926023133 $415 52.49671926023133 $163 $416 forward 7 unknown #
face $-1 $417 $418 $61 $-1 $419 reversed single #
loop $-1 $-1 $420 $164 #
plane-surface $-1 -43.66296244910194 -37.788488797567837 0 0 1 0 0 0 1 forward_v I I I I #
coedge $-1 $421 $422 $266 $423 forward $165 $-1 #
coedge $-1 $424 $167 $425 $426 reversed $104 $-1 #
coedge $-1 $167 $424 $264 $423 reversed $104 $-1 #
coedge $-1 $427 $428 $167 $268 reversed $418 $-1 #
edge $-1 $429 -10.517863806935873 $430 10.517863806935873 $267 $431 forward 7 unknown #
face $-1 $432 $433 $62 $-1 $434 reversed single #
loop $-1 $-1 $435 $168 #
plane-surface $-1 -128.02267922744153 5.4410947710549991 74.882464657331582 0 -1 0 0.71933980857756763 0 -0.69465836192734942 forward_v I I I I #
coedge $-1 $436 $437 $438 $439 reversed $169 $-1 #
coedge $-1 $274 $171 $440 $441 reversed $107 $-1 #
coedge $-1 $171 $273 $436 $442 reversed $107 $-1 #
coedge $-1 $438 $443 $171 $276 forward $444 $-1 #
edge $-1 $445 11.514620353489434 $446 19.790543180478551 $275 $447 forward 7 unknown #
loop $-1 $-1 $282 $172 #
plane-surface $-1 -52.496719260231302 2.2101325820592166 1.9478946415871263 -0.71933980857756763 0 0.69465836192734942 0.69465836192734942 0 0.71933980857756763 forward_v I I I I #
loop $-1 $-1 $448 $109 #
coedge $-1 $280 $280 $281 $449 reversed $173 $-1 #
coedge $-1 $281 $281 $280 $449 forward $175 $-1 #
coedge $-1 $282 $282 $176 $283 forward $277 $-1 #
edge $-1 $450 0 $450 6.2831853071796004 $282 $451 forward 7 unknown #
face $-1 $452 $453 $64 $-1 $454 forward single #
loop $-1 $-1 $455 $177 #
plane-surface $-1 47.314733886056828 -11.017008169686129 150.04392933578688 0 1 0 0.68199836817093118 0 0.7313536940579346 forward_v I I I I #
coedge $-1 $456 $457 $458 $459 reversed $178 $-1 #
coedge $-1 $289 $180 $460 $461 reversed $113 $-1 #
coedge $-1 $180 $288 $456 $462 reversed $113 $-1 #
coedge $-1 $458 $463 $180 $291 forward $453 $-1 #
edge $-1 $464 -28.839352317202916 $465 -19.331058822261006 $290 $466 forward 7 unknown #
loop $-1 $-1 $297 $181 #
plane-surface $-1 -24.290619853553693 -7.8805276164542626 73.256590222001876 0.68199836817093118 0 0.7313536940579346 0.7313536940579346 0 -0.68199836817093118 forward_v I I I I #
loop $-1 $-1 $467 $115 #
coedge $-1 $295 $295 $296 $468 reversed $182 $-1 #
coedge $-1 $296 $296 $295 $468 forward $184 $-1 #
coedge $-1 $297 $297 $185 $298 forward $292 $-1 #
edge $-1 $469 0 $469 6.2831853071796004 $297 $470 forward 7 unknown #
loop $-1 $-1 $304 $186 #
plane-surface $-1 -24.290619853553693 -7.8805276164542626 73.256590222001876 0.68199836817093118 0 0.7313536940579346 0.7313536940579346 0 -0.68199836817093118 forward_v I I I I #
loop $-1 $-1 $471 $118 #
coedge $-1 $302 $302 $303 $472 reversed $187 $-1 #
coedge $-1 $303 $303 $302 $472 forward $189 $-1 #
coedge $-1 $304 $304 $190 $305 forward $299 $-1 #
edge $-1 $473 0 $473 6.2831853071796004 $304 $474 forward 7 unknown #
loop $-1 $-1 $311 $191 #
plane-surface $-1 -24.290619853553693 -7.8805276164542626 73.256590222001876 0.68199836817093118 0 0.7313536940579346 0.7313536940579346 0 -0.68199836817093118 forward_v I I I I #
loop $-1 $-1 $475 $121 #
coedge $-1 $309 $309 $310 $476 reversed $192 $-1 #
coedge $-1 $310 $310 $309 $476 forward $194 $-1 #
coedge $-1 $311 $311 $195 $312 forward $306 $-1 #
edge $-1 $477 0 $477 6.2831853071796004 $311 $478 forward 7 unknown #
face $-1 $479 $480 $68 $-1 $481 reversed single #
loop $-1 $-1 $482 $196 #
plane-surface $-1 47.314733886056828 -0.61288217223912156 150.04392933578688 0 1 0 0.68199836817093118 0 0.7313536940579346 forward_v I I I I #
coedge $-1 $483 $484 $485 $486 reversed $197 $-1 #
coedge $-1 $318 $199 $487 $488 reversed $125 $-1 #
coedge $-1 $199 $317 $483 $489 reversed $125 $-1 #
coedge $-1 $485 $490 $199 $320 forward $491 $-1 #
edge $-1 $492 -28.839352317202916 $493 -19.331058822261006 $319 $494 forward 7 unknown #
loop $-1 $-1 $326 $200 #
plane-surface $-1 -24.290619853553693 2.5235983809927447 73.256590222001876 0.68199836817093118 0 0.7313536940579346 0.7313536940579346 0 -0.68199836817093118 forward_v I I I I #
loop $-1 $-1 $495 $127 #
coedge $-1 $324 $324 $325 $496 reversed $201 $-1 #
coedge $-1 $325 $325 $324 $496 forward $203 $-1 #
coedge $-1 $326 $326 $204 $327 forward $321 $-1 #
edge $-1 $497 0 $497 6.2831853071796004 $326 $498 forward 7 unknown #
loop $-1 $-1 $333 $205 #
plane-surface $-1 -24.290619853553693 2.5235983809927447 73.256590222001876 0.68199836817093118 0 0.7313536940579346 0.7313536940579346 0 -0.68199836817093118 forward_v I I I I #
loop $-1 $-1 $499 $130 #
coedge $-1 $331 $331 $332 $500 reversed $206 $-1 #
coedge $-1 $332 $332 $331 $500 forward $208 $-1 #
coedge $-1 $333 $333 $209 $334 forward $328 $-1 #
edge $-1 $501 0 $501 6.2831853071796004 $333 $502 forward 7 unknown #
loop $-1 $-1 $340 $210 #
plane-surface $-1 -24.290619853553693 2.5235983809927447 73.256590222001876 0.68199836817093118 0 0.7313536940579346 0.7313536940579346 0 -0.68199836817093118 forward_v I I I I #
loop $-1 $-1 $503 $133 #
coedge $-1 $338 $338 $339 $504 reversed $211 $-1 #
coedge $-1 $339 $339 $338 $504 forward $213 $-1 #
coedge $-1 $340 $340 $214 $341 forward $335 $-1 #
edge $-1 $505 0 $505 6.2831853071796004 $340 $506 forward 7 unknown #
face $-1 $507 $508 $72 $-1 $509 reversed single #
loop $-1 $-1 $510 $215 #
plane-surface $-1 47.314733886056828 9.7912438252078822 150.04392933578688 0 1 0 0.68199836817093118 0 0.7313536940579346 forward_v I I I I #
coedge $-1 $511 $512 $513 $514 reversed $216 $-1 #
coedge $-1 $347 $218 $515 $516 reversed $137 $-1 #
coedge $-1 $218 $346 $511 $517 reversed $137 $-1 #
coedge $-1 $513 $518 $218 $349 forward $519 $-1 #
edge $-1 $520 -28.839352317202916 $521 -19.331058822261006 $348 $522 forward 7 unknown #
loop $-1 $-1 $355 $219 #
plane-surface $-1 -24.290619853553693 12.927724378439748 73.256590222001876 0.68199836817093118 0 0.7313536940579346 0.7313536940579346 0 -0.68199836817093118 forward_v I I I I #
loop $-1 $-1 $523 $139 #
coedge $-1 $353 $353 $354 $524 reversed $220 $-1 #
coedge $-1 $354 $354 $353 $524 forward $222 $-1 #
coedge $-1 $355 $355 $223 $356 forward $350 $-1 #
edge $-1 $525 0 $525 6.2831853071796004 $355 $526 forward 7 unknown #
loop $-1 $-1 $362 $224 #
plane-surface $-1 -24.290619853553693 12.927724378439748 73.256590222001876 0.68199836817093118 0 0.7313536940579346 0.7313536940579346 0 -0.68199836817093118 forward_v I I I I #
loop $-1 $-1 $527 $142 #
coedge $-1 $360 $360 $361 $528 reversed $225 $-1 #
coedge $-1 $361 $361 $360 $528 forward $227 $-1 #
coedge $-1 $362 $362 $228 $363 forward $357 $-1 #
edge $-1 $529 0 $529 6.2831853071796004 $362 $530 forward 7 unknown #
loop $-1 $-1 $369 $229 #
plane-surface $-1 -24.290619853553693 12.927724378439748 73.256590222001876 0.68199836817093118 0 0.7313536940579346 0.7313536940579346 0 -0.68199836817093118 forward_v I I I I #
loop $-1 $-1 $531 $145 #
coedge $-1 $367 $367 $368 $532 reversed $230 $-1 #
coedge $-1 $368 $368 $367 $532 forward $232 $-1 #
coedge $-1 $369 $369 $233 $370 forward $364 $-1 #
edge $-1 $533 0 $533 6.2831853071796004 $369 $534 forward 7 unknown #
face $-1 $535 $536 $76 $-1 $537 forward single #
loop $-1 $-1 $377 $234 #
plane-surface $-1 52.49671926023133 0 0 -1 0 0 0 0 1 forward_v I I I I #
coedge $-1 $538 $539 $540 $541 reversed $235 $-1 #
coedge $-1 $376 $237 $542 $543 reversed $149 $-1 #
coedge $-1 $237 $375 $538 $544 reversed $149 $-1 #
coedge $-1 $540 $545 $237 $378 forward $372 $-1 #
edge $-1 $546 64.504100860957564 $547 73.370728185502102 $377 $548 forward 7 unknown #
loop $-1 $-1 $384 $238 #
plane-surface $-1 -24.290619853553693 23.331850375886752 73.256590222001876 0.68199836817093118 0 0.7313536940579346 0.7313536940579346 0 -0.68199836817093118 forward_v I I I I #
loop $-1 $-1 $549 $151 #
coedge $-1 $382 $382 $383 $550 reversed $239 $-1 #
coedge $-1 $383 $383 $382 $550 forward $241 $-1 #
coedge $-1 $384 $384 $242 $385 forward $379 $-1 #
edge $-1 $551 0 $551 6.2831853071796004 $384 $552 forward 7 unknown #
loop $-1 $-1 $391 $243 #
plane-surface $-1 -24.290619853553693 23.331850375886752 73.256590222001876 0.68199836817093118 0 0.7313536940579346 0.7313536940579346 0 -0.68199836817093118 forward_v I I I I #
loop $-1 $-1 $553 $154 #
coedge $-1 $389 $389 $390 $554 reversed $244 $-1 #
coedge $-1 $390 $390 $389 $554 forward $246 $-1 #
coedge $-1 $391 $391 $247 $392 forward $386 $-1 #
edge $-1 $555 0 $555 6.2831853071796004 $391 $556 forward 7 unknown #
loop $-1 $-1 $398 $248 #
plane-surface $-1 -24.290619853553693 23.331850375886752 73.256590222001876 0.68199836817093118 0 0.7313536940579346 0.7313536940579346 0 -0.68199836817093118 forward_v I I I I #
loop $-1 $-1 $557 $157 #
coedge $-1 $396 $396 $397 $558 reversed $249 $-1 #
coedge $-1 $397 $397 $396 $558 forward $251 $-1 #
coedge $-1 $398 $398 $252 $399 forward $393 $-1 #
edge $-1 $559 0 $559 6.2831853071796004 $398 $560 forward 7 unknown #
face $-1 $561 $562 $60 $-1 $563 reversed single #
loop $-1 $-1 $564 $253 #
plane-surface $-1 -52.49671926023133 0 0 1 0 0 0 0 -1 forward_v I I I I #
coedge $-1 $259 $565 $566 $567 forward $254 $-1 #
coedge $-1 $568 $256 $569 $570 forward $161 $-1 #
coedge $-1 $256 $568 $408 $571 forward $161 $-1 #
coedge $-1 $409 $572 $256 $407 reversed $573 $-1 #
edge $-1 $574 -26.468330929118622 $575 26.468330929118622 $406 $576 forward 7 unknown #
coedge $-1 $258 $257 $405 $571 reversed $101 $-1 #
coedge $-1 $566 $406 $257 $410 forward $573 $-1 #
edge $-1 $574 -10.517863806935873 $414 10.517863806935873 $409 $577 forward 7 unknown #
coedge $-1 $578 $579 $258 $412 reversed $401 $-1 #
edge $-1 $580 -10.517863806935873 $415 10.517863806935873 $411 $581 forward 7 unknown #
coedge $-1 $565 $259 $579 $582 forward $254 $-1 #
vertex $-1 $410 $583 #
vertex $-1 $582 $584 #
straight-curve $-1 0 -26.468330929118622 -10.517863806935873 -1 0 0 I I #
face $-1 $585 $586 $61 $-1 $587 reversed single #
loop $-1 $-1 $267 $261 #
plane-surface $-1 -46.170500529286343 -32.128409863343229 0 1 0 0 0 0 -1 forward_v I I I I #
coedge $-1 $588 $589 $590 $591 forward $262 $-1 #
coedge $-1 $592 $264 $593 $594 forward $165 $-1 #
coedge $-1 $264 $592 $427 $595 forward $165 $-1 #
edge $-1 $429 -46.170500529286343 $596 -41.155424368917537 $264 $597 forward 7 unknown #
coedge $-1 $266 $265 $598 $599 forward $104 $-1 #
coedge $-1 $600 $601 $265 $426 forward $602 $-1 #
edge $-1 $603 41.155424368917537 $430 46.170500529286343 $425 $604 forward 7 unknown #
coedge $-1 $590 $267 $422 $595 reversed $418 $-1 #
coedge $-1 $267 $590 $600 $605 reversed $418 $-1 #
vertex $-1 $423 $606 #
vertex $-1 $605 $607 #
straight-curve $-1 -46.170500529286343 -26.468330929118622 0 0 0 1 I I #
face $-1 $-1 $444 $62 $-1 $608 forward single #
loop $-1 $-1 $609 $269 #
plane-surface $-1 -52.49671926023133 0 0 1 0 0 0 0 -1 forward_v I I I I #
coedge $-1 $610 $611 $612 $613 reversed $270 $-1 #
coedge $-1 $614 $272 $274 $442 forward $169 $-1 #
coedge $-1 $272 $614 $610 $615 forward $169 $-1 #
coedge $-1 $612 $275 $272 $439 forward $444 $-1 #
edge $-1 $446 -2.1258958979661742 $616 4.3360284800253908 $438 $617 forward 7 unknown #
coedge $-1 $618 $619 $273 $441 forward $433 $-1 #
edge $-1 $620 -35.493337687078693 $445 -26.92336852172992 $440 $621 forward 7 unknown #
edge $-1 $446 -11.913658973351023 $620 4.0986872755225882e-014 $274 $622 forward 7 unknown #
coedge $-1 $275 $612 $618 $623 forward $444 $-1 #
loop $-1 $-1 $612 $432 #
vertex $-1 $441 $624 #
vertex $-1 $276 $625 #
straight-curve $-1 -64.011339613720764 -1.0208296069365659 10.517863806935871 1 0 0 I I #
coedge $-1 $448 $448 $-1 $626 reversed $279 $-1 #
edge $-1 $627 0 $627 6.2831853071796004 $280 $628 forward 7 unknown #
vertex $-1 $283 $629 #
ellipse-curve $-1 -48.358757846736772 2.2101325820592166 6.2328792242614846 -0.71933980857756763 0 0.69465836192734942 0.69465836192734942 0 0.71933980857756763 1 I I #
face $-1 $-1 $630 $64 $-1 $631 reversed single #
loop $-1 $-1 $290 $284 #
plane-surface $-1 0 0 10.517863806935873 0 0 1 1 0 0 forward_v I I I I #
coedge $-1 $632 $633 $634 $635 reversed $285 $-1 #
coedge $-1 $636 $287 $289 $462 forward $178 $-1 #
coedge $-1 $287 $636 $632 $637 forward $178 $-1 #
coedge $-1 $634 $290 $287 $459 forward $453 $-1 #
edge $-1 $465 0.80378325499526504 $638 7.0767443614589975 $458 $639 forward 7 unknown #
coedge $-1 $640 $641 $288 $461 forward $630 $-1 #
edge $-1 $642 -73.370728185502102 $464 -64.504100860957564 $460 $643 forward 7 unknown #
edge $-1 $465 91.992487582230723 $642 104.99343852046268 $289 $644 forward 7 unknown #
coedge $-1 $290 $634 $640 $645 forward $453 $-1 #
vertex $-1 $291 $646 #
vertex $-1 $291 $647 #
straight-curve $-1 23.657366943028414 -4.7440470632223963 10.517863806935878 -1 0 0 I I #
coedge $-1 $467 $467 $-1 $648 reversed $294 $-1 #
edge $-1 $649 0 $649 6.2831853071796004 $295 $650 forward 7 unknown #
vertex $-1 $298 $651 #
ellipse-curve $-1 47.742572512760376 -9.7624159483933823 6.0845501446635986 0.68199836817093118 0 0.7313536940579346 0.3656768470289673 0 -0.34099918408546559 1 I I #
coedge $-1 $471 $471 $-1 $652 reversed $301 $-1 #
edge $-1 $653 0 $653 6.2831853071796004 $302 $654 forward 7 unknown #
vertex $-1 $305 $655 #
ellipse-curve $-1 47.742572512760376 -7.8805276164542626 6.0845501446635986 0.68199836817093118 0 0.7313536940579346 0.3656768470289673 0 -0.34099918408546559 1 I I #
coedge $-1 $475 $475 $-1 $656 reversed $308 $-1 #
edge $-1 $657 0 $657 6.2831853071796004 $309 $658 forward 7 unknown #
vertex $-1 $312 $659 #
ellipse-curve $-1 47.742572512760376 -5.9986392845151428 6.0845501446635986 0.68199836817093118 0 0.7313536940579346 0.3656768470289673 0 -0.34099918408546559 1 I I #
face $-1 $-1 $491 $68 $-1 $660 forward single #
loop $-1 $-1 $661 $313 #
plane-surface $-1 52.49671926023133 0 0 -1 0 0 0 0 1 forward_v I I I I #
coedge $-1 $662 $663 $664 $665 reversed $314 $-1 #
coedge $-1 $666 $316 $318 $489 forward $197 $-1 #
coedge $-1 $316 $666 $662 $667 forward $197 $-1 #
coedge $-1 $664 $319 $316 $486 forward $491 $-1 #
edge $-1 $493 -4.3982797437282386 $668 1.8746813627354939 $485 $669 forward 7 unknown #
coedge $-1 $670 $671 $317 $488 forward $480 $-1 #
edge $-1 $672 -73.370728185502102 $492 -64.504100860957564 $487 $673 forward 7 unknown #
edge $-1 $493 91.992487582230723 $672 104.99343852046268 $318 $674 forward 7 unknown #
coedge $-1 $319 $664 $670 $675 forward $491 $-1 #
loop $-1 $-1 $664 $479 #
vertex $-1 $488 $676 #
vertex $-1 $320 $677 #
straight-curve $-1 23.657366943028414 5.6600789342246109 10.517863806935878 -1 0 0 I I #
coedge $-1 $495 $495 $-1 $678 reversed $323 $-1 #
edge $-1 $679 0 $679 6.2831853071796004 $324 $680 forward 7 unknown #
vertex $-1 $327 $681 #
ellipse-curve $-1 47.742572512760376 0.64171004905362139 6.0845501446635986 0.68199836817093118 0 0.7313536940579346 0.3656768470289673 0 -0.34099918408546559 1 I I #
coedge $-1 $499 $499 $-1 $682 reversed $330 $-1 #
edge $-1 $683 0 $683 6.2831853071796004 $331 $684 forward 7 unknown #
vertex $-1 $334 $685 #
ellipse-curve $-1 47.742572512760376 2.5235983809927447 6.0845501446635986 0.68199836817093118 0 0.7313536940579346 0.3656768470289673 0 -0.34099918408546559 1 I I #
coedge $-1 $503 $503 $-1 $686 reversed $337 $-1 #
edge $-1 $687 0 $687 6.2831853071796004 $338 $688 forward 7 unknown #
vertex $-1 $341 $689 #
ellipse-curve $-1 47.742572512760376 4.4054867129318609 6.0845501446635986 0.68199836817093118 0 0.7313536940579346 0.3656768470289673 0 -0.34099918408546559 1 I I #
face $-1 $-1 $519 $72 $-1 $690 forward single #
loop $-1 $-1 $691 $342 #
plane-surface $-1 52.49671926023133 0 0 -1 0 0 0 0 1 forward_v I I I I #
coedge $-1 $692 $693 $694 $695 reversed $343 $-1 #
coedge $-1 $696 $345 $347 $517 forward $216 $-1 #
coedge $-1 $345 $696 $692 $697 forward $216 $-1 #
coedge $-1 $694 $348 $345 $514 forward $519 $-1 #
edge $-1 $521 -9.6003427424517405 $698 -3.327381635988008 $513 $699 forward 7 unknown #
coedge $-1 $700 $701 $346 $516 forward $508 $-1 #
edge $-1 $702 -73.370728185502102 $520 -64.504100860957564 $515 $703 forward 7 unknown #
edge $-1 $521 91.992487582230723 $702 104.99343852046268 $347 $704 forward 7 unknown #
coedge $-1 $348 $694 $700 $705 forward $519 $-1 #
loop $-1 $-1 $694 $507 #
vertex $-1 $516 $706 #
vertex $-1 $349 $707 #
straight-curve $-1 23.657366943028414 16.064204931671615 10.517863806935878 -1 0 0 I I #
coedge $-1 $523 $523 $-1 $708 reversed $352 $-1 #
edge $-1 $709 0 $709 6.2831853071796004 $353 $710 forward 7 unknown #
vertex $-1 $356 $711 #
ellipse-curve $-1 47.742572512760376 11.045836046500625 6.0845501446635986 0.68199836817093118 0 0.7313536940579346 0.3656768470289673 0 -0.34099918408546559 1 I I #
coedge $-1 $527 $527 $-1 $712 reversed $359 $-1 #
edge $-1 $713 0 $713 6.2831853071796004 $360 $714 forward 7 unknown #
vertex $-1 $363 $715 #
ellipse-curve $-1 47.742572512760376 12.927724378439748 6.0845501446635986 0.68199836817093118 0 0.7313536940579346 0.3656768470289673 0 -0.34099918408546559 1 I I #
coedge $-1 $531 $531 $-1 $716 reversed $366 $-1 #
edge $-1 $717 0 $717 6.2831853071796004 $367 $718 forward 7 unknown #
vertex $-1 $370 $719 #
ellipse-curve $-1 47.742572512760376 14.809612710378865 6.0845501446635986 0.68199836817093118 0 0.7313536940579346 0.3656768470289673 0 -0.34099918408546559 1 I I #
face $-1 $-1 $720 $76 $-1 $721 reversed single #
loop $-1 $-1 $542 $371 #
plane-surface $-1 0 0 10.517863806935873 0 0 1 1 0 0 forward_v I I I I #
coedge $-1 $722 $374 $376 $544 forward $235 $-1 #
coedge $-1 $374 $722 $723 $724 reversed $235 $-1 #
coedge $-1 $725 $377 $374 $541 forward $372 $-1 #
edge $-1 $547 8.5294446347115098 $726 14.802405741175246 $540 $727 forward 7 unknown #
coedge $-1 $728 $729 $375 $543 forward $536 $-1 #
edge $-1 $730 19.331058822261006 $546 28.839352317202916 $542 $731 forward 7 unknown #
edge $-1 $547 -104.99343852046268 $730 -91.992487582230723 $376 $732 forward 7 unknown #
coedge $-1 $377 $725 $728 $733 reversed $372 $-1 #
vertex $-1 $733 $734 #
vertex $-1 $378 $735 #
straight-curve $-1 52.49671926023133 20.195369822654886 75.021964667893442 0 0 -1 I I #
coedge $-1 $549 $549 $-1 $736 reversed $381 $-1 #
edge $-1 $737 0 $737 6.2831853071796004 $382 $738 forward 7 unknown #
vertex $-1 $385 $739 #
ellipse-curve $-1 47.742572512760376 21.449962043947629 6.0845501446635986 0.68199836817093118 0 0.7313536940579346 0.3656768470289673 0 -0.34099918408546559 1 I I #
coedge $-1 $553 $553 $-1 $740 reversed $388 $-1 #
edge $-1 $741 0 $741 6.2831853071796004 $389 $742 forward 7 unknown #
vertex $-1 $392 $743 #
ellipse-curve $-1 47.742572512760376 23.331850375886752 6.0845501446635986 0.68199836817093118 0 0.7313536940579346 0.3656768470289673 0 -0.34099918408546559 1 I I #
coedge $-1 $557 $557 $-1 $744 reversed $395 $-1 #
edge $-1 $745 0 $745 6.2831853071796004 $396 $746 forward 7 unknown #
vertex $-1 $399 $747 #
ellipse-curve $-1 47.742572512760376 25.213738707825868 6.0845501446635986 0.68199836817093118 0 0.7313536940579346 0.3656768470289673 0 -0.34099918408546559 1 I I #
face $-1 $-1 $573 $60 $-1 $748 reversed single #
loop $-1 $-1 $749 $400 #
plane-surface $-1 0 26.468330929118622 0 0 -1 0 0 0 -1 forward_v I I I I #
coedge $-1 $579 $578 $750 $751 forward $401 $-1 #
coedge $-1 $403 $413 $752 $753 forward $254 $-1 #
coedge $-1 $572 $409 $403 $567 reversed $573 $-1 #
edge $-1 $754 -26.468330929118622 $414 26.468330929118622 $566 $755 forward 7 unknown #
coedge $-1 $405 $404 $578 $756 forward $161 $-1 #
coedge $-1 $749 $750 $404 $570 reversed $562 $-1 #
edge $-1 $575 -52.49671926023133 $757 52.49671926023133 $569 $758 forward 7 unknown #
edge $-1 $580 -52.49671926023133 $574 52.49671926023133 $408 $759 forward 7 unknown #
coedge $-1 $406 $566 $749 $760 reversed $573 $-1 #
loop $-1 $-1 $409 $561 #
vertex $-1 $407 $761 #
vertex $-1 $407 $762 #
straight-curve $-1 52.49671926023133 0 10.517863806935873 0 1 0 I I #
straight-curve $-1 52.49671926023133 -26.468330929118622 0 0 0 -1 I I #
coedge $-1 $564 $411 $568 $756 reversed $401 $-1 #
coedge $-1 $411 $564 $413 $582 reversed $401 $-1 #
vertex $-1 $756 $763 #
straight-curve $-1 -52.49671926023133 -26.468330929118622 0 0 0 -1 I I #
edge $-1 $415 -26.468330929118622 $764 26.468330929118622 $579 $765 forward 7 unknown #
point $-1 52.49671926023133 -26.468330929118622 -10.517863806935873 #
point $-1 -52.49671926023133 -26.468330929118622 -10.517863806935873 #
face $-1 $-1 $602 $61 $-1 $766 forward single #
loop $-1 $-1 $767 $417 #
plane-surface $-1 -41.155424368917537 -32.128409863343229 0 -1 0 0 0 0 1 forward_v I I I I #
coedge $-1 $768 $420 $592 $769 reversed $262 $-1 #
coedge $-1 $420 $768 $770 $771 reversed $262 $-1 #
coedge $-1 $428 $427 $420 $591 reversed $418 $-1 #
edge $-1 $772 -10.517863806935873 $773 10.517863806935873 $590 $774 forward 7 unknown #
coedge $-1 $422 $421 $588 $769 forward $165 $-1 #
coedge $-1 $598 $767 $421 $594 reversed $586 $-1 #
edge $-1 $596 -5.6600789342246109 $775 5.6600789342246074 $593 $776 forward 7 unknown #
edge $-1 $773 -5.6600789342246074 $429 5.6600789342246109 $427 $777 forward 7 unknown #
vertex $-1 $594 $778 #
straight-curve $-1 0 -26.468330929118622 -10.517863806935873 1 0 0 I I #
coedge $-1 $779 $593 $424 $599 reversed $586 $-1 #
edge $-1 $603 -10.517863806935873 $596 10.517863806935873 $598 $780 forward 7 unknown #
coedge $-1 $770 $425 $428 $605 forward $602 $-1 #
coedge $-1 $425 $770 $779 $781 forward $602 $-1 #
loop $-1 $-1 $425 $585 #
vertex $-1 $426 $782 #
straight-curve $-1 0 -26.468330929118622 10.517863806935873 -1 0 0 I I #
edge $-1 $430 -5.6600789342246109 $772 5.6600789342246074 $428 $783 forward 7 unknown #
point $-1 -46.170500529286343 -26.468330929118618 -10.517863806935873 #
point $-1 -46.170500529286343 -26.468330929118618 10.517863806935873 #
plane-surface $-1 0 0 10.517863806935873 0 0 1 1 0 0 forward_v I I I I #
coedge $-1 $619 $618 $611 $784 forward $433 $-1 #
coedge $-1 $611 $435 $437 $615 reversed $270 $-1 #
coedge $-1 $435 $610 $609 $784 reversed $270 $-1 #
coedge $-1 $443 $438 $435 $613 forward $444 $-1 #
edge $-1 $616 -19.790543180478551 $785 -11.514620353489434 $612 $786 forward 7 unknown #
coedge $-1 $437 $436 $619 $787 reversed $169 $-1 #
edge $-1 $788 -4.0986872755225882e-014 $616 11.913658973351023 $610 $789 forward 7 unknown #
vertex $-1 $439 $790 #
straight-curve $-1 -44.220796433242214 1.1050662910296083 10.517863806935875 0 1 0 I I #
coedge $-1 $609 $440 $443 $623 reversed $433 $-1 #
coedge $-1 $440 $609 $614 $787 forward $433 $-1 #
vertex $-1 $441 $791 #
straight-curve $-1 -52.49671926023133 -1.0208296069365659 37.441232328665791 0 0 1 I I #
straight-curve $-1 -52.496719260231302 -1.0208296069365659 1.9478946415871263 -0.69465836192734942 0 -0.71933980857756763 I I #
edge $-1 $785 -5.4410947710549991 $445 1.0208296069365659 $618 $792 forward 7 unknown #
point $-1 -52.49671926023133 -1.0208296069365659 10.517863806935873 #
point $-1 -44.220796433242214 -1.0208296069365659 10.517863806935873 #
edge $-1 $793 1 $793 0 $448 $-1 forward 7 unknown #
vertex $-1 $449 $794 #
ellipse-curve $-1 -46.977793136553622 2.2101325820592166 4.8992971368857905 -0.71933980857756763 0 0.69465836192734942 0.69465836192734942 0 0.71933980857756763 1 I I #
point $-1 -47.664099484809441 2.2101325820592166 6.9522190328390687 #
loop $-1 $-1 $460 $452 #
plane-surface $-1 52.49671926023133 0 0 -1 0 0 0 0 1 forward_v I I I I #
coedge $-1 $633 $455 $457 $637 reversed $285 $-1 #
coedge $-1 $455 $632 $795 $796 reversed $285 $-1 #
coedge $-1 $463 $458 $455 $635 forward $453 $-1 #
edge $-1 $638 19.331058822261006 $797 28.839352317202916 $634 $798 forward 7 unknown #
coedge $-1 $457 $456 $641 $799 reversed $178 $-1 #
edge $-1 $800 -104.99343852046268 $638 -91.992487582230723 $632 $801 forward 7 unknown #
vertex $-1 $459 $802 #
straight-curve $-1 42.988425765289421 -3.9402638082271313 10.517863806935878 0 -1 0 I I #
coedge $-1 $795 $460 $463 $645 reversed $630 $-1 #
coedge $-1 $460 $795 $636 $799 forward $630 $-1 #
vertex $-1 $461 $803 #
straight-curve $-1 52.49671926023133 -4.7440470632223963 75.021964667893442 0 0 1 I I #
straight-curve $-1 -24.290619853553693 -4.7440470632223963 73.256590222001876 0.7313536940579346 0 -0.68199836817093118 I I #
edge $-1 $797 -11.017008169686129 $464 -4.7440470632223963 $640 $804 forward 7 unknown #
point $-1 52.49671926023133 -4.7440470632223963 10.517863806935873 #
point $-1 42.988425765289421 -4.7440470632223963 10.517863806935871 #
edge $-1 $805 1 $805 0 $467 $-1 forward 7 unknown #
vertex $-1 $468 $806 #
ellipse-curve $-1 46.617442754546317 -9.7624159483933823 4.877996224056389 0.68199836817093118 0 0.7313536940579346 0.3656768470289673 0 -0.34099918408546559 1 I I #
point $-1 48.108249359789347 -9.7624159483933823 5.7435509605781441 #
edge $-1 $807 1 $807 0 $471 $-1 forward 7 unknown #
vertex $-1 $472 $808 #
ellipse-curve $-1 46.617442754546317 -7.8805276164542626 4.877996224056389 0.68199836817093118 0 0.7313536940579346 0.3656768470289673 0 -0.34099918408546559 1 I I #
point $-1 48.108249359789347 -7.8805276164542626 5.7435509605781441 #
edge $-1 $809 1 $809 0 $475 $-1 forward 7 unknown #
vertex $-1 $476 $810 #
ellipse-curve $-1 46.617442754546317 -5.9986392845151428 4.877996224056389 0.68199836817093118 0 0.7313536940579346 0.3656768470289673 0 -0.34099918408546559 1 I I #
point $-1 48.108249359789347 -5.9986392845151428 5.7435509605781441 #
plane-surface $-1 0 0 10.517863806935873 0 0 1 1 0 0 forward_v I I I I #
coedge $-1 $671 $670 $663 $811 forward $480 $-1 #
coedge $-1 $663 $482 $484 $667 reversed $314 $-1 #
coedge $-1 $482 $662 $661 $811 reversed $314 $-1 #
coedge $-1 $490 $485 $482 $665 forward $491 $-1 #
edge $-1 $668 19.331058822261006 $812 28.839352317202916 $664 $813 forward 7 unknown #
coedge $-1 $484 $483 $671 $814 reversed $197 $-1 #
edge $-1 $815 -104.99343852046268 $668 -91.992487582230723 $662 $816 forward 7 unknown #
vertex $-1 $486 $817 #
straight-curve $-1 42.988425765289421 1.2617991904963723 10.517863806935878 0 -1 0 I I #
coedge $-1 $661 $487 $490 $675 reversed $480 $-1 #
coedge $-1 $487 $661 $666 $814 forward $480 $-1 #
vertex $-1 $488 $818 #
straight-curve $-1 52.49671926023133 5.6600789342246109 75.021964667893442 0 0 1 I I #
straight-curve $-1 -24.290619853553693 5.6600789342246109 73.256590222001876 0.7313536940579346 0 -0.68199836817093118 I I #
edge $-1 $812 -0.61288217223912156 $492 5.6600789342246109 $670 $819 forward 7 unknown #
point $-1 52.49671926023133 5.6600789342246109 10.517863806935873 #
point $-1 42.988425765289421 5.6600789342246109 10.517863806935871 #
edge $-1 $820 1 $820 0 $495 $-1 forward 7 unknown #
vertex $-1 $496 $821 #
ellipse-curve $-1 46.617442754546317 0.64171004905362139 4.877996224056389 0.68199836817093118 0 0.7313536940579346 0.3656768470289673 0 -0.34099918408546559 1 I I #
point $-1 48.108249359789347 0.64171004905362139 5.7435509605781441 #
edge $-1 $822 1 $822 0 $499 $-1 forward 7 unknown #
vertex $-1 $500 $823 #
ellipse-curve $-1 46.617442754546317 2.5235983809927447 4.877996224056389 0.68199836817093118 0 0.7313536940579346 0.3656768470289673 0 -0.34099918408546559 1 I I #
point $-1 48.108249359789347 2.5235983809927447 5.7435509605781441 #
edge $-1 $824 1 $824 0 $503 $-1 forward 7 unknown #
vertex $-1 $504 $825 #
ellipse-curve $-1 46.617442754546317 4.4054867129318609 4.877996224056389 0.68199836817093118 0 0.7313536940579346 0.3656768470289673 0 -0.34099918408546559 1 I I #
point $-1 48.108249359789347 4.4054867129318609 5.7435509605781441 #
plane-surface $-1 0 0 10.517863806935873 0 0 1 1 0 0 forward_v I I I I #
coedge $-1 $701 $700 $693 $826 forward $508 $-1 #
coedge $-1 $693 $510 $512 $697 reversed $343 $-1 #
coedge $-1 $510 $692 $691 $826 reversed $343 $-1 #
coedge $-1 $518 $513 $510 $695 forward $519 $-1 #
edge $-1 $698 19.331058822261006 $827 28.839352317202916 $694 $828 forward 7 unknown #
coedge $-1 $512 $511 $701 $829 reversed $216 $-1 #
edge $-1 $830 -104.99343852046268 $698 -91.992487582230723 $692 $831 forward 7 unknown #
vertex $-1 $514 $832 #
straight-curve $-1 42.988425765289421 6.4638621892198742 10.517863806935878 0 -1 0 I I #
coedge $-1 $691 $515 $518 $705 reversed $508 $-1 #
coedge $-1 $515 $691 $696 $829 forward $508 $-1 #
vertex $-1 $516 $833 #
straight-curve $-1 52.49671926023133 16.064204931671615 75.021964667893442 0 0 1 I I #
straight-curve $-1 -24.290619853553693 16.064204931671615 73.256590222001876 0.7313536940579346 0 -0.68199836817093118 I I #
edge $-1 $827 9.7912438252078822 $520 16.064204931671615 $700 $834 forward 7 unknown #
point $-1 52.49671926023133 16.064204931671615 10.517863806935873 #
point $-1 42.988425765289421 16.064204931671615 10.517863806935871 #
edge $-1 $835 1 $835 0 $523 $-1 forward 7 unknown #
vertex $-1 $524 $836 #
ellipse-curve $-1 46.617442754546317 11.045836046500625 4.877996224056389 0.68199836817093118 0 0.7313536940579346 0.3656768470289673 0 -0.34099918408546559 1 I I #
point $-1 48.108249359789347 11.045836046500625 5.7435509605781441 #
edge $-1 $837 1 $837 0 $527 $-1 forward 7 unknown #
vertex $-1 $528 $838 #
ellipse-curve $-1 46.617442754546317 12.927724378439748 4.877996224056389 0.68199836817093118 0 0.7313536940579346 0.3656768470289673 0 -0.34099918408546559 1 I I #
point $-1 48.108249359789347 12.927724378439748 5.7435509605781441 #
edge $-1 $839 1 $839 0 $531 $-1 forward 7 unknown #
vertex $-1 $532 $840 #
ellipse-curve $-1 46.617442754546317 14.809612710378865 4.877996224056389 0.68199836817093118 0 0.7313536940579346 0.3656768470289673 0 -0.34099918408546559 1 I I #
point $-1 48.108249359789347 14.809612710378865 5.7435509605781441 #
loop $-1 $-1 $723 $535 #
plane-surface $-1 0 26.468330929118622 0 0 -1 0 0 0 -1 forward_v I I I I #
coedge $-1 $539 $538 $729 $841 reversed $235 $-1 #
coedge $-1 $842 $843 $539 $724 forward $720 $-1 #
edge $-1 $726 -71.130483745449979 $844 -58.129532807218027 $723 $845 forward 7 unknown #
coedge $-1 $545 $540 $843 $846 reversed $372 $-1 #
vertex $-1 $541 $847 #
straight-curve $-1 52.496719260231323 11.665925187943376 1.6512364823913472 0 1 0 I I #
coedge $-1 $848 $542 $545 $733 forward $536 $-1 #
coedge $-1 $542 $848 $722 $841 forward $536 $-1 #
vertex $-1 $543 $849 #
straight-curve $-1 23.657366943028414 20.195369822654886 10.517863806935878 1 0 0 I I #
straight-curve $-1 -24.290619853553693 20.195369822654886 73.256590222001876 -0.7313536940579346 0 0.68199836817093118 I I #
edge $-1 $546 20.195369822654886 $850 26.468330929118622 $545 $851 forward 7 unknown #
point $-1 52.49671926023133 20.195369822654886 10.517863806935873 #
point $-1 52.49671926023133 20.195369822654886 1.6512364823913401 #
edge $-1 $852 1 $852 0 $549 $-1 forward 7 unknown #
vertex $-1 $550 $853 #
ellipse-curve $-1 46.617442754546317 21.449962043947629 4.877996224056389 0.68199836817093118 0 0.7313536940579346 0.3656768470289673 0 -0.34099918408546559 1 I I #
point $-1 48.108249359789347 21.449962043947629 5.7435509605781441 #
edge $-1 $854 1 $854 0 $553 $-1 forward 7 unknown #
vertex $-1 $554 $855 #
ellipse-curve $-1 46.617442754546317 23.331850375886752 4.877996224056389 0.68199836817093118 0 0.7313536940579346 0.3656768470289673 0 -0.34099918408546559 1 I I #
point $-1 48.108249359789347 23.331850375886752 5.7435509605781441 #
edge $-1 $856 1 $856 0 $557 $-1 forward 7 unknown #
vertex $-1 $558 $857 #
ellipse-curve $-1 46.617442754546317 25.213738707825868 4.877996224056389 0.68199836817093118 0 0.7313536940579346 0.3656768470289673 0 -0.34099918408546559 1 I I #
point $-1 48.108249359789347 25.213738707825868 5.7435509605781441 #
plane-surface $-1 52.49671926023133 0 0 -1 0 0 0 0 1 forward_v I I I I #
coedge $-1 $752 $569 $572 $760 forward $562 $-1 #
coedge $-1 $569 $752 $564 $751 reversed $562 $-1 #
edge $-1 $757 -10.517863806935873 $764 10.517863806935873 $750 $858 forward 7 unknown #
coedge $-1 $750 $749 $565 $753 reversed $562 $-1 #
edge $-1 $764 -52.49671926023133 $754 52.49671926023133 $752 $859 forward 7 unknown #
vertex $-1 $567 $860 #
straight-curve $-1 52.49671926023133 0 -10.517863806935873 0 -1 0 I I #
edge $-1 $757 -26.468330929118622 $580 26.468330929118622 $578 $861 forward 7 unknown #
vertex $-1 $570 $862 #
straight-curve $-1 0 26.468330929118622 10.517863806935873 -1 0 0 I I #
straight-curve $-1 0 -26.468330929118622 10.517863806935873 1 0 0 I I #
edge $-1 $575 -10.517863806935873 $754 10.517863806935873 $572 $863 forward 7 unknown #
point $-1 52.49671926023133 -26.468330929118622 10.517863806935873 #
point $-1 52.49671926023133 26.468330929118622 10.517863806935873 #
point $-1 -52.49671926023133 -26.468330929118622 10.517863806935873 #
vertex $-1 $753 $864 #
straight-curve $-1 -52.49671926023133 0 -10.517863806935873 0 1 0 I I #
plane-surface $-1 0 0 10.517863806935873 0 0 1 1 0 0 forward_v I I I I #
coedge $-1 $593 $779 $768 $865 forward $586 $-1 #
coedge $-1 $589 $588 $767 $865 reversed $262 $-1 #
edge $-1 $775 -2.5075380801844034 $773 2.5075380801844034 $588 $866 forward 7 unknown #
coedge $-1 $601 $600 $589 $771 forward $602 $-1 #
edge $-1 $772 -2.5075380801844034 $867 2.5075380801844034 $589 $868 forward 7 unknown #
vertex $-1 $605 $869 #
vertex $-1 $595 $870 #
straight-curve $-1 -46.170500529286343 -37.788488797567837 0 0 0 -1 I I #
vertex $-1 $865 $871 #
straight-curve $-1 -41.155424368917537 -32.128409863343229 -10.517863806935873 0 -1 0 I I #
straight-curve $-1 -46.170500529286343 -32.128409863343229 -10.517863806935873 0 1 0 I I #
point $-1 -41.155424368917537 -26.468330929118618 -10.517863806935873 #
coedge $-1 $767 $598 $601 $781 reversed $586 $-1 #
straight-curve $-1 -41.155424368917537 -26.468330929118622 0 0 0 -1 I I #
edge $-1 $867 -5.6600789342246074 $603 5.6600789342246109 $779 $872 forward 7 unknown #
point $-1 -41.155424368917537 -26.468330929118618 10.517863806935873 #
straight-curve $-1 -46.170500529286343 -32.128409863343229 10.517863806935873 0 -1 0 I I #
edge $-1 $785 26.92336852172992 $788 35.493337687078693 $609 $873 forward 7 unknown #
vertex $-1 $623 $874 #
straight-curve $-1 -64.011339613720764 5.4410947710549991 10.517863806935871 -1 0 0 I I #
edge $-1 $788 -4.3360284800253908 $620 2.1258958979661742 $619 $875 forward 7 unknown #
vertex $-1 $787 $876 #
straight-curve $-1 -52.496719260231302 5.4410947710549991 1.9478946415871263 0.69465836192734942 0 0.71933980857756763 I I #
point $-1 -44.220796433242214 5.4410947710549991 10.517863806935873 #
point $-1 -52.49671926023133 -1.0208296069365659 1.9478946415870968 #
straight-curve $-1 -52.49671926023133 0 10.517863806935873 0 -1 0 I I #
vertex $-1 $626 $877 #
point $-1 -46.283134774626269 2.2101325820592166 5.6186369454633578 #
coedge $-1 $641 $640 $633 $796 forward $630 $-1 #
edge $-1 $797 64.504100860957564 $800 73.370728185502102 $795 $878 forward 7 unknown #
vertex $-1 $645 $879 #
straight-curve $-1 23.657366943028414 -11.017008169686129 10.517863806935878 1 0 0 I I #
edge $-1 $800 -7.0767443614589975 $642 -0.80378325499526504 $641 $880 forward 7 unknown #
vertex $-1 $799 $881 #
straight-curve $-1 -24.290619853553693 -11.017008169686129 73.256590222001876 -0.7313536940579346 0 0.68199836817093118 I I #
point $-1 42.988425765289421 -11.017008169686129 10.517863806935871 #
point $-1 52.49671926023133 -4.7440470632223963 1.6512364823913401 #
straight-curve $-1 52.49671926023133 0 10.517863806935873 0 1 0 I I #
vertex $-1 $648 $882 #
point $-1 46.983119601575289 -9.7624159483933823 4.5369970399709239 #
vertex $-1 $652 $883 #
point $-1 46.983119601575289 -7.8805276164542626 4.5369970399709239 #
vertex $-1 $656 $884 #
point $-1 46.983119601575289 -5.9986392845151428 4.5369970399709239 #
edge $-1 $812 64.504100860957564 $815 73.370728185502102 $661 $885 forward 7 unknown #
vertex $-1 $675 $886 #
straight-curve $-1 23.657366943028414 -0.61288217223912156 10.517863806935878 1 0 0 I I #
edge $-1 $815 -1.8746813627354939 $672 4.3982797437282386 $671 $887 forward 7 unknown #
vertex $-1 $814 $888 #
straight-curve $-1 -24.290619853553693 -0.61288217223912156 73.256590222001876 -0.7313536940579346 0 0.68199836817093118 I I #
point $-1 42.988425765289421 -0.61288217223912156 10.517863806935871 #
point $-1 52.49671926023133 5.6600789342246109 1.6512364823913401 #
straight-curve $-1 52.49671926023133 0 10.517863806935873 0 1 0 I I #
vertex $-1 $678 $889 #
point $-1 46.983119601575289 0.64171004905362139 4.5369970399709239 #
vertex $-1 $682 $890 #
point $-1 46.983119601575289 2.5235983809927447 4.5369970399709239 #
vertex $-1 $686 $891 #
point $-1 46.983119601575289 4.4054867129318609 4.5369970399709239 #
edge $-1 $827 64.504100860957564 $830 73.370728185502102 $691 $892 forward 7 unknown #
vertex $-1 $705 $893 #
straight-curve $-1 23.657366943028414 9.7912438252078822 10.517863806935878 1 0 0 I I #
edge $-1 $830 3.327381635988008 $702 9.6003427424517405 $701 $894 forward 7 unknown #
vertex $-1 $829 $895 #
straight-curve $-1 -24.290619853553693 9.7912438252078822 73.256590222001876 -0.7313536940579346 0 0.68199836817093118 I I #
point $-1 42.988425765289421 9.7912438252078822 10.517863806935871 #
point $-1 52.49671926023133 16.064204931671615 1.6512364823913401 #
straight-curve $-1 52.49671926023133 0 10.517863806935873 0 1 0 I I #
vertex $-1 $708 $896 #
point $-1 46.983119601575289 11.045836046500625 4.5369970399709239 #
vertex $-1 $712 $897 #
point $-1 46.983119601575289 12.927724378439748 4.5369970399709239 #
vertex $-1 $716 $898 #
point $-1 46.983119601575289 14.809612710378865 4.5369970399709239 #
edge $-1 $844 -14.802405741175242 $730 -8.5294446347115098 $729 $899 forward 7 unknown #
coedge $-1 $843 $723 $848 $900 reversed $720 $-1 #
coedge $-1 $723 $842 $725 $846 forward $720 $-1 #
vertex $-1 $724 $901 #
straight-curve $-1 0.47517721286861381 26.468330929118622 50.162110323997183 -0.7313536940579346 0 0.68199836817093118 I I #
edge $-1 $850 -10.517863806935873 $726 -1.6512364823913555 $725 $902 forward 7 unknown #
point $-1 52.49671926023133 26.468330929118622 1.6512364823913555 #
coedge $-1 $729 $728 $842 $900 forward $536 $-1 #
point $-1 42.988425765289421 20.195369822654886 10.517863806935871 #
vertex $-1 $733 $903 #
straight-curve $-1 52.49671926023133 0 10.517863806935873 0 1 0 I I #
vertex $-1 $736 $904 #
point $-1 46.983119601575289 21.449962043947629 4.5369970399709239 #
vertex $-1 $740 $905 #
point $-1 46.983119601575289 23.331850375886752 4.5369970399709239 #
vertex $-1 $744 $906 #
point $-1 46.983119601575289 25.213738707825868 4.5369970399709239 #
straight-curve $-1 -52.49671926023133 26.468330929118622 0 0 0 -1 I I #
straight-curve $-1 0 26.468330929118622 -10.517863806935873 1 0 0 I I #
point $-1 52.49671926023133 26.468330929118622 -10.517863806935873 #
straight-curve $-1 -52.49671926023133 0 10.517863806935873 0 -1 0 I I #
point $-1 -52.49671926023133 26.468330929118622 10.517863806935873 #
straight-curve $-1 52.49671926023133 26.468330929118622 0 0 0 -1 I I #
point $-1 -52.49671926023133 26.468330929118622 -10.517863806935873 #
edge $-1 $867 -10.517863806935873 $775 10.517863806935873 $767 $907 forward 7 unknown #
straight-curve $-1 -43.66296244910194 -37.788488797567837 -10.517863806935873 -1 0 0 I I #
vertex $-1 $781 $908 #
straight-curve $-1 -43.66296244910194 -37.788488797567837 10.517863806935873 1 0 0 I I #
point $-1 -46.170500529286343 -37.788488797567837 10.517863806935873 #
point $-1 -46.170500529286343 -37.788488797567837 -10.517863806935873 #
point $-1 -41.155424368917537 -37.788488797567837 -10.517863806935873 #
straight-curve $-1 -41.155424368917537 -32.128409863343229 10.517863806935873 0 1 0 I I #
straight-curve $-1 -52.49671926023133 5.4410947710549991 37.441232328665791 0 0 -1 I I #
point $-1 -52.49671926023133 5.4410947710549991 10.517863806935873 #
straight-curve $-1 -52.49671926023133 1.1050662910296083 1.9478946415870941 0 -1 0 I I #
point $-1 -52.49671926023133 5.4410947710549991 1.9478946415870968 #
point $-1 -46.258453327976049 2.2101325820592166 4.2046387749584415 #
straight-curve $-1 52.49671926023133 -11.017008169686129 75.021964667893442 0 0 -1 I I #
point $-1 52.49671926023133 -11.017008169686129 10.517863806935873 #
straight-curve $-1 52.496719260231323 -3.9402638082271313 1.6512364823913472 0 1 0 I I #
point $-1 52.49671926023133 -11.017008169686129 1.6512364823913401 #
point $-1 46.276443570460856 -9.7624159483933823 4.5123193770274206 #
point $-1 46.276443570460856 -7.8805276164542626 4.5123193770274206 #
point $-1 46.276443570460856 -5.9986392845151428 4.5123193770274206 #
straight-curve $-1 52.49671926023133 -0.61288217223912156 75.021964667893442 0 0 -1 I I #
point $-1 52.49671926023133 -0.61288217223912156 10.517863806935873 #
straight-curve $-1 52.496719260231323 1.2617991904963723 1.6512364823913472 0 1 0 I I #
point $-1 52.49671926023133 -0.61288217223912156 1.6512364823913401 #
point $-1 46.276443570460856 0.64171004905362139 4.5123193770274206 #
point $-1 46.276443570460856 2.5235983809927447 4.5123193770274206 #
point $-1 46.276443570460856 4.4054867129318609 4.5123193770274206 #
straight-curve $-1 52.49671926023133 9.7912438252078822 75.021964667893442 0 0 -1 I I #
point $-1 52.49671926023133 9.7912438252078822 10.517863806935873 #
straight-curve $-1 52.496719260231323 6.4638621892198742 1.6512364823913472 0 1 0 I I #
point $-1 52.49671926023133 9.7912438252078822 1.6512364823913401 #
point $-1 46.276443570460856 11.045836046500625 4.5123193770274206 #
point $-1 46.276443570460856 12.927724378439748 4.5123193770274206 #
point $-1 46.276443570460856 14.809612710378865 4.5123193770274206 #
straight-curve $-1 42.988425765289421 11.665925187943376 10.517863806935878 0 -1 0 I I #
edge $-1 $850 -52.49671926023133 $844 -42.988425765289421 $842 $909 forward 7 unknown #
point $-1 42.988425765289421 26.468330929118618 10.517863806935871 #
straight-curve $-1 52.49671926023133 26.468330929118622 0 0 0 -1 I I #
point $-1 52.49671926023133 26.468330929118622 10.517863806935873 #
point $-1 46.276443570460856 21.449962043947629 4.5123193770274206 #
point $-1 46.276443570460856 23.331850375886752 4.5123193770274206 #
point $-1 46.276443570460856 25.213738707825868 4.5123193770274206 #
straight-curve $-1 -41.155424368917537 -37.788488797567837 0 0 0 -1 I I #
point $-1 -41.155424368917537 -37.788488797567837 10.517863806935873 #
straight-curve $-1 0 26.468330929118622 10.517863806935873 -1 0 0 I I #
End-of-ACIS-data 