500 0 15 0           
7 Unknown 11 ACIS 5.0 NT 24 Fri Mar 26 18:14:48 1999 
-1 9.9999999999999995e-007 1e-010 
body $-1 $15 $-1 $16 #
body $-1 $17 $-1 $18 #
body $-1 $19 $-1 $20 #
body $-1 $21 $-1 $22 #
body $-1 $23 $-1 $24 #
body $-1 $25 $-1 $26 #
body $-1 $27 $-1 $28 #
body $-1 $29 $-1 $30 #
body $-1 $31 $-1 $32 #
body $-1 $33 $-1 $34 #
body $-1 $35 $-1 $36 #
body $-1 $37 $-1 $38 #
body $-1 $39 $-1 $40 #
body $-1 $41 $-1 $42 #
body $-1 $43 $-1 $44 #
lump $-1 $-1 $45 $0 #
transform $-1 1 0 0 0 1 0 0 0 1 45.98162785729545 18.629245962606891 5.1734007884988369 1 rotate no_reflect no_shear #
lump $-1 $-1 $46 $1 #
transform $-1 1 0 0 0 1 0 0 0 1 45.98162785729545 18.629245962606891 5.1734007884988369 1 rotate no_reflect no_shear #
lump $-1 $-1 $47 $2 #
transform $-1 1 0 0 0 1 0 0 0 1 45.98162785729545 18.629245962606891 5.1734007884988369 1 rotate no_reflect no_shear #
lump $-1 $-1 $48 $3 #
transform $-1 1 0 0 0 1 0 0 0 1 45.98162785729545 18.629245962606891 5.1734007884988369 1 rotate no_reflect no_shear #
lump $-1 $-1 $49 $4 #
transform $-1 1 0 0 0 1 0 0 0 1 45.98162785729545 18.629245962606891 5.1734007884988369 1 rotate no_reflect no_shear #
lump $-1 $-1 $50 $5 #
transform $-1 1 0 0 0 1 0 0 0 1 45.98162785729545 18.629245962606891 5.1734007884988369 1 rotate no_reflect no_shear #
lump $-1 $-1 $51 $6 #
transform $-1 1 0 0 0 1 0 0 0 1 45.98162785729545 18.629245962606891 5.1734007884988369 1 rotate no_reflect no_shear #
lump $-1 $-1 $52 $7 #
transform $-1 1 0 0 0 1 0 0 0 1 45.98162785729545 18.629245962606891 5.1734007884988369 1 rotate no_reflect no_shear #
lump $-1 $-1 $53 $8 #
transform $-1 1 0 0 0 1 0 0 0 1 45.98162785729545 18.629245962606891 5.1734007884988369 1 rotate no_reflect no_shear #
lump $-1 $-1 $54 $9 #
transform $-1 1 0 0 0 1 0 0 0 1 45.98162785729545 18.629245962606891 5.1734007884988369 1 rotate no_reflect no_shear #
lump $-1 $-1 $55 $10 #
transform $-1 1 0 0 0 1 0 0 0 1 45.98162785729545 18.629245962606891 5.1734007884988369 1 rotate no_reflect no_shear #
lump $-1 $-1 $56 $11 #
transform $-1 1 0 0 0 1 0 0 0 1 45.98162785729545 18.629245962606891 5.1734007884988369 1 rotate no_reflect no_shear #
lump $-1 $-1 $57 $12 #
transform $-1 1 0 0 0 1 0 0 0 1 45.98162785729545 18.629245962606891 5.1734007884988369 1 rotate no_reflect no_shear #
lump $-1 $-1 $58 $13 #
transform $-1 1 0 0 0 1 0 0 0 1 45.98162785729545 18.629245962606891 5.1734007884988369 1 rotate no_reflect no_shear #
lump $-1 $-1 $59 $14 #
transform $-1 1 0 0 0 1 0 0 0 1 45.98162785729545 18.629245962606891 5.1734007884988369 1 rotate no_reflect no_shear #
shell $-1 $-1 $-1 $60 $-1 $15 #
shell $-1 $-1 $-1 $61 $-1 $17 #
shell $-1 $-1 $-1 $62 $-1 $19 #
shell $-1 $-1 $-1 $63 $-1 $21 #
shell $-1 $-1 $-1 $64 $-1 $23 #
shell $-1 $-1 $-1 $65 $-1 $25 #
shell $-1 $-1 $-1 $66 $-1 $27 #
shell $-1 $-1 $-1 $67 $-1 $29 #
shell $-1 $-1 $-1 $68 $-1 $31 #
shell $-1 $-1 $-1 $69 $-1 $33 #
shell $-1 $-1 $-1 $70 $-1 $35 #
shell $-1 $-1 $-1 $71 $-1 $37 #
shell $-1 $-1 $-1 $72 $-1 $39 #
shell $-1 $-1 $-1 $73 $-1 $41 #
shell $-1 $-1 $-1 $74 $-1 $43 #
face $-1 $75 $76 $45 $-1 $77 forward single #
face $-1 $78 $79 $46 $-1 $80 forward single #
face $-1 $81 $82 $47 $-1 $83 forward single #
face $-1 $84 $85 $48 $-1 $86 reversed single #
face $-1 $87 $88 $49 $-1 $89 forward single #
face $-1 $90 $91 $50 $-1 $92 forward single #
face $-1 $93 $94 $51 $-1 $95 reversed single #
face $-1 $96 $97 $52 $-1 $98 forward single #
face $-1 $99 $100 $53 $-1 $101 forward single #
face $-1 $102 $103 $54 $-1 $104 reversed single #
face $-1 $105 $106 $55 $-1 $107 forward single #
face $-1 $108 $109 $56 $-1 $110 forward single #
face $-1 $111 $112 $57 $-1 $113 reversed single #
face $-1 $114 $115 $58 $-1 $116 forward single #
face $-1 $117 $118 $59 $-1 $119 forward single #
face $-1 $120 $121 $45 $-1 $122 reversed single #
loop $-1 $-1 $123 $60 #
plane-surface $-1 0 0 5.1734007884988369 0 0 1 1 0 0 forward_v I I I I #
face $-1 $124 $125 $46 $-1 $126 reversed single #
loop $-1 $-1 $127 $61 #
plane-surface $-1 0 -16.591906198796316 -2.1734007884988369 0 0 1 1 0 0 forward_v I I I I #
face $-1 $128 $129 $47 $-1 $130 reversed single #
loop $-1 $-1 $131 $62 #
plane-surface $-1 0 16.59190619879632 -2.1734007884988369 0 0 1 1 0 0 forward_v I I I I #
face $-1 $132 $133 $48 $-1 $134 reversed single #
loop $-1 $-1 $135 $63 #
plane-surface $-1 34.646529501986848 -6.8054429167226473 131.61625035881804 0 -1 0 -0.64278761758704617 0 -0.76604443648966558 forward_v I I I I #
face $-1 $136 $137 $49 $-1 $138 forward single #
loop $-1 $139 $140 $64 #
cone-surface $-1 43.802330233212281 -10.919937932837477 3.2314121314291051 -0.64278761758704617 0 -0.76604443648966558 0.38302221824483279 0 -0.32139380879352308 1 I I 0 1 0.5 forward I I I I #
face $-1 $141 $142 $50 $-1 $143 forward single #
loop $-1 $144 $145 $65 #
cone-surface $-1 43.802330233212281 -8.4512409231685783 3.2314121314291051 -0.64278761758704617 0 -0.76604443648966558 0.38302221824483279 0 -0.32139380879352308 1 I I 0 1 0.5 forward I I I I #
face $-1 $146 $147 $51 $-1 $148 reversed single #
loop $-1 $-1 $149 $66 #
plane-surface $-1 34.646529501986848 2.8976013732678449 131.61625035881804 0 -1 0 -0.64278761758704617 0 -0.76604443648966558 forward_v I I I I #
face $-1 $150 $151 $52 $-1 $152 forward single #
loop $-1 $153 $154 $67 #
cone-surface $-1 43.802330233212281 -1.2168936428469834 3.2314121314291051 -0.64278761758704617 0 -0.76604443648966558 0.38302221824483279 0 -0.32139380879352308 1 I I 0 1 0.5 forward I I I I #
face $-1 $155 $156 $53 $-1 $157 forward single #
loop $-1 $158 $159 $68 #
cone-surface $-1 43.802330233212281 1.251803366821914 3.2314121314291051 -0.64278761758704617 0 -0.76604443648966558 0.38302221824483279 0 -0.32139380879352308 1 I I 0 1 0.5 forward I I I I #
face $-1 $160 $161 $54 $-1 $162 reversed single #
loop $-1 $-1 $163 $69 #
plane-surface $-1 34.646529501986848 12.600645663258339 131.61625035881804 0 -1 0 -0.64278761758704617 0 -0.76604443648966558 forward_v I I I I #
face $-1 $164 $165 $55 $-1 $166 forward single #
loop $-1 $167 $168 $70 #
cone-surface $-1 43.802330233212281 8.4861506471435106 3.2314121314291051 -0.64278761758704617 0 -0.76604443648966558 0.38302221824483279 0 -0.32139380879352308 1 I I 0 1 0.5 forward I I I I #
face $-1 $169 $170 $56 $-1 $171 forward single #
loop $-1 $172 $173 $71 #
cone-surface $-1 43.802330233212281 10.954847656812408 3.2314121314291051 -0.64278761758704617 0 -0.76604443648966558 0.38302221824483279 0 -0.32139380879352308 1 I I 0 1 0.5 forward I I I I #
face $-1 $174 $175 $57 $-1 $176 reversed single #
loop $-1 $-1 $177 $72 #
plane-surface $-1 -125.62414423219455 -10.639954097077442 47.47867108447555 0 1 0 -0.86602541151947299 0 0.49999998660252726 forward_v I I I I #
face $-1 $178 $179 $58 $-1 $180 forward single #
loop $-1 $181 $182 $73 #
cone-surface $-1 -44.357552367720913 -8.4366872677552092 3.0102882473790462 0.86602541151947299 0 -0.49999998660252726 0.24999999330126363 0 0.43301270575973649 1 I I 0 1 0.5 forward I I I I #
face $-1 $183 $184 $59 $-1 $185 forward single #
loop $-1 $186 $187 $74 #
cone-surface $-1 -44.357552367720913 -5.1317870237718637 3.0102882473790462 0.86602541151947299 0 -0.49999998660252726 0.24999999330126363 0 0.43301270575973649 1 I I 0 1 0.5 forward I I I I #
face $-1 $188 $189 $45 $-1 $190 reversed single #
loop $-1 $-1 $191 $75 #
plane-surface $-1 0 0 -5.1734007884988369 0 0 1 1 0 0 forward_v I I I I #
coedge $-1 $192 $193 $194 $195 forward $76 $-1 #
face $-1 $196 $197 $46 $-1 $198 reversed single #
loop $-1 $-1 $199 $78 #
plane-surface $-1 0 -14.554566434985741 -3.6734007884988369 0 -1 0 0 0 -1 forward_v I I I I #
coedge $-1 $200 $201 $202 $203 reversed $79 $-1 #
face $-1 $204 $205 $47 $-1 $206 reversed single #
loop $-1 $-1 $207 $81 #
plane-surface $-1 0 14.554566434985745 -3.6734007884988369 0 1 0 0 0 1 forward_v I I I I #
coedge $-1 $208 $209 $210 $211 reversed $82 $-1 #
face $-1 $212 $213 $48 $-1 $214 reversed single #
loop $-1 $-1 $215 $84 #
plane-surface $-1 -24.466312544343346 -9.6855894280030288 61.168309957179233 0.64278761758704617 0 0.76604443648966558 0.76604443648966558 0 -0.64278761758704617 forward_v I I I I #
coedge $-1 $216 $217 $218 $219 reversed $85 $-1 #
face $-1 $-1 $220 $49 $-1 $221 forward single #
loop $-1 $222 $223 $87 #
cone-surface $-1 43.320239520022 -10.919937932837477 2.6568788040618561 -0.64278761758704617 0 -0.76604443648966558 0.1915111091224164 0 -0.16069690439676154 1 I I -0.70710678118654746 0.70710678118654746 0.25 forward I I I I #
loop $-1 $-1 $224 $64 #
coedge $-1 $140 $140 $225 $226 reversed $88 $-1 #
face $-1 $-1 $227 $50 $-1 $228 forward single #
loop $-1 $229 $230 $90 #
cone-surface $-1 43.320239520022 -8.4512409231685783 2.6568788040618561 -0.64278761758704617 0 -0.76604443648966558 0.1915111091224164 0 -0.16069690439676154 1 I I -0.70710678118654746 0.70710678118654746 0.25 forward I I I I #
loop $-1 $-1 $231 $65 #
coedge $-1 $145 $145 $232 $233 reversed $91 $-1 #
face $-1 $234 $235 $51 $-1 $236 reversed single #
loop $-1 $-1 $237 $93 #
plane-surface $-1 -24.466312544343346 0.017454861987463488 61.168309957179233 0.64278761758704617 0 0.76604443648966558 0.76604443648966558 0 -0.64278761758704617 forward_v I I I I #
coedge $-1 $238 $239 $240 $241 reversed $94 $-1 #
face $-1 $-1 $242 $52 $-1 $243 forward single #
loop $-1 $244 $245 $96 #
cone-surface $-1 43.320239520022 -1.2168936428469834 2.6568788040618561 -0.64278761758704617 0 -0.76604443648966558 0.1915111091224164 0 -0.16069690439676154 1 I I -0.70710678118654746 0.70710678118654746 0.25 forward I I I I #
loop $-1 $-1 $246 $67 #
coedge $-1 $154 $154 $247 $248 reversed $97 $-1 #
face $-1 $-1 $249 $53 $-1 $250 forward single #
loop $-1 $251 $252 $99 #
cone-surface $-1 43.320239520022 1.251803366821914 2.6568788040618561 -0.64278761758704617 0 -0.76604443648966558 0.1915111091224164 0 -0.16069690439676154 1 I I -0.70710678118654746 0.70710678118654746 0.25 forward I I I I #
loop $-1 $-1 $253 $68 #
coedge $-1 $159 $159 $254 $255 reversed $100 $-1 #
face $-1 $256 $257 $54 $-1 $258 reversed single #
loop $-1 $-1 $259 $102 #
plane-surface $-1 -24.466312544343346 9.7204991519779576 61.168309957179233 0.64278761758704617 0 0.76604443648966558 0.76604443648966558 0 -0.64278761758704617 forward_v I I I I #
coedge $-1 $260 $261 $262 $263 reversed $103 $-1 #
face $-1 $-1 $264 $55 $-1 $265 forward single #
loop $-1 $266 $267 $105 #
cone-surface $-1 43.320239520022 8.4861506471435106 2.6568788040618561 -0.64278761758704617 0 -0.76604443648966558 0.1915111091224164 0 -0.16069690439676154 1 I I -0.70710678118654746 0.70710678118654746 0.25 forward I I I I #
loop $-1 $-1 $268 $70 #
coedge $-1 $168 $168 $269 $270 reversed $106 $-1 #
face $-1 $-1 $271 $56 $-1 $272 forward single #
loop $-1 $273 $274 $108 #
cone-surface $-1 43.320239520022 10.954847656812408 2.6568788040618561 -0.64278761758704617 0 -0.76604443648966558 0.1915111091224164 0 -0.16069690439676154 1 I I -0.70710678118654746 0.70710678118654746 0.25 forward I I I I #
loop $-1 $-1 $275 $71 #
coedge $-1 $173 $173 $276 $277 reversed $109 $-1 #
face $-1 $278 $279 $57 $-1 $280 reversed single #
loop $-1 $-1 $281 $111 #
plane-surface $-1 -45.981627857295436 -6.7842371457635373 1.4970444592553136 -0.86602541151947299 0 0.49999998660252726 0.49999998660252726 0 0.86602541151947299 forward_v I I I I #
coedge $-1 $282 $283 $284 $285 reversed $112 $-1 #
face $-1 $-1 $286 $58 $-1 $287 forward single #
loop $-1 $288 $289 $114 #
cone-surface $-1 -43.578243145513717 -8.4366872677552092 2.5603538742303869 0.86602541151947299 0 -0.49999998660252726 0.12499999665063181 0 0.21650635287986825 1 I I -0.70710678118654746 0.70710678118654746 0.25 forward I I I I #
loop $-1 $-1 $290 $73 #
coedge $-1 $182 $182 $291 $292 reversed $115 $-1 #
face $-1 $-1 $293 $59 $-1 $294 forward single #
loop $-1 $295 $296 $117 #
cone-surface $-1 -43.578243145513717 -5.1317870237718637 2.5603538742303869 0.86602541151947299 0 -0.49999998660252726 0.12499999665063181 0 0.21650635287986825 1 I I -0.70710678118654746 0.70710678118654746 0.25 forward I I I I #
loop $-1 $-1 $297 $74 #
coedge $-1 $187 $187 $298 $299 reversed $118 $-1 #
face $-1 $300 $301 $45 $-1 $302 reversed single #
loop $-1 $-1 $303 $120 #
plane-surface $-1 0 -18.629245962606891 0 0 1 0 0 0 1 forward_v I I I I #
coedge $-1 $304 $305 $306 $307 forward $121 $-1 #
coedge $-1 $308 $123 $309 $310 forward $76 $-1 #
coedge $-1 $123 $308 $311 $312 forward $76 $-1 #
coedge $-1 $313 $314 $123 $195 reversed $315 $-1 #
edge $-1 $316 -18.629245962606891 $317 18.629245962606891 $194 $318 forward 7 unknown #
face $-1 $319 $320 $46 $-1 $321 reversed single #
loop $-1 $-1 $322 $124 #
plane-surface $-1 0 0 -5.1734007884988369 0 0 1 1 0 0 forward_v I I I I #
coedge $-1 $323 $324 $325 $326 reversed $125 $-1 #
coedge $-1 $327 $127 $324 $328 forward $79 $-1 #
coedge $-1 $127 $327 $329 $330 reversed $79 $-1 #
coedge $-1 $331 $325 $127 $203 forward $320 $-1 #
edge $-1 $332 6.258613335587583 $333 10.333292863208733 $202 $334 forward 7 unknown #
face $-1 $335 $336 $47 $-1 $337 reversed single #
loop $-1 $-1 $210 $128 #
plane-surface $-1 45.98162785729545 0 0 -1 0 0 0 0 1 forward_v I I I I #
coedge $-1 $338 $339 $340 $341 reversed $129 $-1 #
coedge $-1 $342 $131 $343 $344 reversed $82 $-1 #
coedge $-1 $131 $342 $339 $345 forward $82 $-1 #
coedge $-1 $346 $347 $131 $211 forward $205 $-1 #
edge $-1 $348 -10.333292863208735 $349 -6.2586133355875848 $210 $350 forward 7 unknown #
face $-1 $351 $352 $48 $-1 $353 forward single #
loop $-1 $-1 $354 $132 #
plane-surface $-1 34.646529501986848 -12.56573593928341 131.61625035881804 0 1 0 0.64278761758704617 0 0.76604443648966558 forward_v I I I I #
coedge $-1 $355 $356 $357 $358 reversed $133 $-1 #
coedge $-1 $217 $135 $359 $360 reversed $85 $-1 #
coedge $-1 $135 $216 $355 $361 reversed $85 $-1 #
coedge $-1 $357 $362 $135 $219 forward $352 $-1 #
edge $-1 $363 -28.658363106302026 $364 -24.942555475722727 $218 $365 forward 7 unknown #
loop $-1 $-1 $225 $136 #
plane-surface $-1 -24.466312544343346 -9.6855894280030288 61.168309957179233 0.64278761758704617 0 0.76604443648966558 0.76604443648966558 0 -0.64278761758704617 forward_v I I I I #
loop $-1 $-1 $366 $87 #
coedge $-1 $223 $223 $224 $367 reversed $137 $-1 #
coedge $-1 $224 $224 $223 $367 forward $139 $-1 #
coedge $-1 $225 $225 $140 $226 forward $220 $-1 #
edge $-1 $368 0 $368 6.2831853071796004 $225 $369 forward 7 unknown #
loop $-1 $-1 $232 $141 #
plane-surface $-1 -24.466312544343346 -9.6855894280030288 61.168309957179233 0.64278761758704617 0 0.76604443648966558 0.76604443648966558 0 -0.64278761758704617 forward_v I I I I #
loop $-1 $-1 $370 $90 #
coedge $-1 $230 $230 $231 $371 reversed $142 $-1 #
coedge $-1 $231 $231 $230 $371 forward $144 $-1 #
coedge $-1 $232 $232 $145 $233 forward $227 $-1 #
edge $-1 $372 0 $372 6.2831853071796004 $232 $373 forward 7 unknown #
face $-1 $374 $375 $51 $-1 $376 reversed single #
loop $-1 $-1 $377 $146 #
plane-surface $-1 34.646529501986848 -2.862691649292918 131.61625035881804 0 1 0 0.64278761758704617 0 0.76604443648966558 forward_v I I I I #
coedge $-1 $378 $379 $380 $381 reversed $147 $-1 #
coedge $-1 $239 $149 $382 $383 reversed $94 $-1 #
coedge $-1 $149 $238 $378 $384 reversed $94 $-1 #
coedge $-1 $380 $385 $149 $241 forward $386 $-1 #
edge $-1 $387 -28.658363106302026 $388 -24.942555475722727 $240 $389 forward 7 unknown #
loop $-1 $-1 $247 $150 #
plane-surface $-1 -24.466312544343346 0.017454861987463488 61.168309957179233 0.64278761758704617 0 0.76604443648966558 0.76604443648966558 0 -0.64278761758704617 forward_v I I I I #
loop $-1 $-1 $390 $96 #
coedge $-1 $245 $245 $246 $391 reversed $151 $-1 #
coedge $-1 $246 $246 $245 $391 forward $153 $-1 #
coedge $-1 $247 $247 $154 $248 forward $242 $-1 #
edge $-1 $392 0 $392 6.2831853071796004 $247 $393 forward 7 unknown #
loop $-1 $-1 $254 $155 #
plane-surface $-1 -24.466312544343346 0.017454861987463488 61.168309957179233 0.64278761758704617 0 0.76604443648966558 0.76604443648966558 0 -0.64278761758704617 forward_v I I I I #
loop $-1 $-1 $394 $99 #
coedge $-1 $252 $252 $253 $395 reversed $156 $-1 #
coedge $-1 $253 $253 $252 $395 forward $158 $-1 #
coedge $-1 $254 $254 $159 $255 forward $249 $-1 #
edge $-1 $396 0 $396 6.2831853071796004 $254 $397 forward 7 unknown #
face $-1 $398 $399 $54 $-1 $400 reversed single #
loop $-1 $-1 $401 $160 #
plane-surface $-1 34.646529501986848 6.8403526406975761 131.61625035881804 0 1 0 0.64278761758704617 0 0.76604443648966558 forward_v I I I I #
coedge $-1 $402 $403 $404 $405 reversed $161 $-1 #
coedge $-1 $261 $163 $406 $407 reversed $103 $-1 #
coedge $-1 $163 $260 $402 $408 reversed $103 $-1 #
coedge $-1 $404 $409 $163 $263 forward $410 $-1 #
edge $-1 $411 -28.658363106302026 $412 -24.942555475722727 $262 $413 forward 7 unknown #
loop $-1 $-1 $269 $164 #
plane-surface $-1 -24.466312544343346 9.7204991519779576 61.168309957179233 0.64278761758704617 0 0.76604443648966558 0.76604443648966558 0 -0.64278761758704617 forward_v I I I I #
loop $-1 $-1 $414 $105 #
coedge $-1 $267 $267 $268 $415 reversed $165 $-1 #
coedge $-1 $268 $268 $267 $415 forward $167 $-1 #
coedge $-1 $269 $269 $168 $270 forward $264 $-1 #
edge $-1 $416 0 $416 6.2831853071796004 $269 $417 forward 7 unknown #
loop $-1 $-1 $276 $169 #
plane-surface $-1 -24.466312544343346 9.7204991519779576 61.168309957179233 0.64278761758704617 0 0.76604443648966558 0.76604443648966558 0 -0.64278761758704617 forward_v I I I I #
loop $-1 $-1 $418 $108 #
coedge $-1 $274 $274 $275 $419 reversed $170 $-1 #
coedge $-1 $275 $275 $274 $419 forward $172 $-1 #
coedge $-1 $276 $276 $173 $277 forward $271 $-1 #
edge $-1 $420 0 $420 6.2831853071796004 $276 $421 forward 7 unknown #
face $-1 $422 $423 $57 $-1 $424 reversed single #
loop $-1 $-1 $425 $174 #
plane-surface $-1 -125.62414423219455 -2.9285201944496331 47.47867108447555 0 -1 0 0.86602541151947299 0 -0.49999998660252726 forward_v I I I I #
coedge $-1 $426 $427 $428 $429 reversed $175 $-1 #
coedge $-1 $283 $177 $430 $431 reversed $112 $-1 #
coedge $-1 $177 $282 $426 $432 reversed $112 $-1 #
coedge $-1 $428 $433 $177 $285 forward $434 $-1 #
edge $-1 $435 16.830444258801826 $436 18.952989499296258 $284 $437 forward 7 unknown #
loop $-1 $-1 $291 $178 #
plane-surface $-1 -45.981627857295436 -6.7842371457635373 1.4970444592553136 -0.86602541151947299 0 0.49999998660252726 0.49999998660252726 0 0.86602541151947299 forward_v I I I I #
loop $-1 $-1 $438 $114 #
coedge $-1 $289 $289 $290 $439 reversed $179 $-1 #
coedge $-1 $290 $290 $289 $439 forward $181 $-1 #
coedge $-1 $291 $291 $182 $292 forward $286 $-1 #
edge $-1 $440 0 $440 6.2831853071796004 $291 $441 forward 7 unknown #
loop $-1 $-1 $298 $183 #
plane-surface $-1 -45.981627857295436 -6.7842371457635373 1.4970444592553136 -0.86602541151947299 0 0.49999998660252726 0.49999998660252726 0 0.86602541151947299 forward_v I I I I #
loop $-1 $-1 $442 $117 #
coedge $-1 $296 $296 $297 $443 reversed $184 $-1 #
coedge $-1 $297 $297 $296 $443 forward $186 $-1 #
coedge $-1 $298 $298 $187 $299 forward $293 $-1 #
edge $-1 $444 0 $444 6.2831853071796004 $298 $445 forward 7 unknown #
face $-1 $446 $447 $45 $-1 $448 reversed single #
loop $-1 $-1 $449 $188 #
plane-surface $-1 -45.98162785729545 0 0 1 0 0 0 0 -1 forward_v I I I I #
coedge $-1 $450 $311 $451 $452 forward $189 $-1 #
coedge $-1 $453 $191 $450 $454 forward $121 $-1 #
coedge $-1 $191 $453 $455 $456 forward $121 $-1 #
coedge $-1 $314 $313 $191 $307 reversed $315 $-1 #
edge $-1 $457 -18.629245962606891 $458 18.629245962606891 $306 $459 forward 7 unknown #
coedge $-1 $193 $192 $460 $461 forward $76 $-1 #
coedge $-1 $462 $463 $192 $310 reversed $447 $-1 #
edge $-1 $317 -45.98162785729545 $464 45.98162785729545 $309 $465 forward 7 unknown #
coedge $-1 $303 $466 $193 $312 reversed $189 $-1 #
edge $-1 $467 -45.98162785729545 $316 45.98162785729545 $311 $468 forward 7 unknown #
coedge $-1 $306 $194 $466 $469 forward $315 $-1 #
coedge $-1 $194 $306 $462 $470 reversed $315 $-1 #
loop $-1 $-1 $313 $446 #
vertex $-1 $195 $471 #
vertex $-1 $195 $472 #
straight-curve $-1 45.98162785729545 0 5.1734007884988369 0 1 0 I I #
face $-1 $473 $474 $46 $-1 $475 reversed single #
loop $-1 $-1 $325 $196 #
plane-surface $-1 45.98162785729545 0 0 -1 0 0 0 0 1 forward_v I I I I #
coedge $-1 $476 $477 $323 $478 forward $197 $-1 #
coedge $-1 $479 $199 $322 $478 reversed $125 $-1 #
coedge $-1 $199 $479 $200 $328 reversed $125 $-1 #
coedge $-1 $202 $480 $199 $326 forward $320 $-1 #
edge $-1 $481 -3.3367003942494184 $332 -0.33670039424941844 $325 $482 forward 7 unknown #
coedge $-1 $201 $200 $483 $484 reversed $79 $-1 #
edge $-1 $332 -45.98162785729545 $485 45.98162785729545 $324 $486 forward 7 unknown #
coedge $-1 $487 $488 $201 $330 forward $474 $-1 #
edge $-1 $333 -45.98162785729545 $489 45.98162785729545 $329 $490 forward 7 unknown #
coedge $-1 $480 $202 $488 $491 forward $320 $-1 #
vertex $-1 $203 $492 #
vertex $-1 $491 $493 #
straight-curve $-1 45.98162785729545 -8.2959530993981581 -2.1734007884988369 0 -1 0 I I #
face $-1 $494 $495 $47 $-1 $496 reversed single #
loop $-1 $-1 $497 $204 #
plane-surface $-1 0 0 -5.1734007884988369 0 0 1 1 0 0 forward_v I I I I #
coedge $-1 $498 $207 $497 $499 reversed $129 $-1 #
coedge $-1 $207 $498 $209 $345 reversed $129 $-1 #
coedge $-1 $500 $501 $207 $341 forward $495 $-1 #
edge $-1 $502 -3.3367003942494184 $503 -0.33670039424941844 $340 $504 forward 7 unknown #
coedge $-1 $209 $208 $500 $505 reversed $82 $-1 #
coedge $-1 $506 $507 $208 $344 forward $508 $-1 #
edge $-1 $509 -45.98162785729545 $348 45.98162785729545 $343 $510 forward 7 unknown #
edge $-1 $503 -45.98162785729545 $349 45.98162785729545 $339 $511 forward 7 unknown #
coedge $-1 $512 $210 $498 $513 forward $205 $-1 #
coedge $-1 $210 $512 $506 $514 reversed $205 $-1 #
vertex $-1 $514 $515 #
vertex $-1 $211 $516 #
straight-curve $-1 45.98162785729545 8.2959530993981598 -2.1734007884988369 0 -1 0 I I #
face $-1 $-1 $517 $48 $-1 $518 reversed single #
loop $-1 $-1 $218 $212 #
plane-surface $-1 0 0 5.1734007884988369 0 0 1 1 0 0 forward_v I I I I #
coedge $-1 $519 $520 $521 $522 reversed $213 $-1 #
coedge $-1 $523 $215 $217 $361 forward $133 $-1 #
coedge $-1 $215 $523 $519 $524 forward $133 $-1 #
coedge $-1 $521 $218 $215 $358 forward $352 $-1 #
edge $-1 $364 1.9626482027211329 $525 7.7229412252818959 $357 $526 forward 7 unknown #
coedge $-1 $527 $528 $216 $360 forward $517 $-1 #
edge $-1 $529 -63.752657268559972 $363 -60.634724390910179 $359 $530 forward 7 unknown #
edge $-1 $364 87.112613305898932 $529 91.963255714590872 $217 $531 forward 7 unknown #
coedge $-1 $218 $521 $527 $532 forward $352 $-1 #
vertex $-1 $360 $533 #
vertex $-1 $219 $534 #
straight-curve $-1 17.323264750993424 -6.8054429167226473 5.1734007884988387 -1 0 0 I I #
coedge $-1 $366 $366 $-1 $535 reversed $222 $-1 #
edge $-1 $536 0 $536 6.2831853071796004 $223 $537 forward 7 unknown #
vertex $-1 $226 $538 #
ellipse-curve $-1 44.123724042005804 -10.919937932837477 3.614434349673938 0.64278761758704617 0 0.76604443648966558 0.38302221824483279 0 -0.32139380879352308 1 I I #
coedge $-1 $370 $370 $-1 $539 reversed $229 $-1 #
edge $-1 $540 0 $540 6.2831853071796004 $230 $541 forward 7 unknown #
vertex $-1 $233 $542 #
ellipse-curve $-1 44.123724042005804 -8.4512409231685783 3.614434349673938 0.64278761758704617 0 0.76604443648966558 0.38302221824483279 0 -0.32139380879352308 1 I I #
face $-1 $-1 $386 $51 $-1 $543 forward single #
loop $-1 $-1 $544 $234 #
plane-surface $-1 45.98162785729545 0 0 -1 0 0 0 0 1 forward_v I I I I #
coedge $-1 $545 $546 $547 $548 reversed $235 $-1 #
coedge $-1 $549 $237 $239 $384 forward $147 $-1 #
coedge $-1 $237 $549 $545 $550 forward $147 $-1 #
coedge $-1 $547 $240 $237 $381 forward $386 $-1 #
edge $-1 $388 -2.8888739422741132 $551 2.8714190802866497 $380 $552 forward 7 unknown #
coedge $-1 $553 $554 $238 $383 forward $375 $-1 #
edge $-1 $555 -63.752657268559972 $387 -60.634724390910179 $382 $556 forward 7 unknown #
edge $-1 $388 87.112613305898932 $555 91.963255714590872 $239 $557 forward 7 unknown #
coedge $-1 $240 $547 $553 $558 forward $386 $-1 #
loop $-1 $-1 $547 $374 #
vertex $-1 $383 $559 #
vertex $-1 $241 $560 #
straight-curve $-1 17.323264750993424 2.8976013732678449 5.1734007884988387 -1 0 0 I I #
coedge $-1 $390 $390 $-1 $561 reversed $244 $-1 #
edge $-1 $562 0 $562 6.2831853071796004 $245 $563 forward 7 unknown #
vertex $-1 $248 $564 #
ellipse-curve $-1 44.123724042005804 -1.2168936428469834 3.614434349673938 0.64278761758704617 0 0.76604443648966558 0.38302221824483279 0 -0.32139380879352308 1 I I #
coedge $-1 $394 $394 $-1 $565 reversed $251 $-1 #
edge $-1 $566 0 $566 6.2831853071796004 $252 $567 forward 7 unknown #
vertex $-1 $255 $568 #
ellipse-curve $-1 44.123724042005804 1.251803366821914 3.614434349673938 0.64278761758704617 0 0.76604443648966558 0.38302221824483279 0 -0.32139380879352308 1 I I #
face $-1 $-1 $410 $54 $-1 $569 forward single #
loop $-1 $-1 $570 $256 #
plane-surface $-1 45.98162785729545 0 0 -1 0 0 0 0 1 forward_v I I I I #
coedge $-1 $571 $572 $573 $574 reversed $257 $-1 #
coedge $-1 $575 $259 $261 $408 forward $161 $-1 #
coedge $-1 $259 $575 $571 $576 forward $161 $-1 #
coedge $-1 $573 $262 $259 $405 forward $410 $-1 #
edge $-1 $412 -7.7403960872693602 $577 -1.9801030647085973 $404 $578 forward 7 unknown #
coedge $-1 $579 $580 $260 $407 forward $399 $-1 #
edge $-1 $581 -63.752657268559972 $411 -60.634724390910179 $406 $582 forward 7 unknown #
edge $-1 $412 87.112613305898932 $581 91.963255714590872 $261 $583 forward 7 unknown #
coedge $-1 $262 $573 $579 $584 forward $410 $-1 #
loop $-1 $-1 $573 $398 #
vertex $-1 $407 $585 #
vertex $-1 $263 $586 #
straight-curve $-1 17.323264750993424 12.600645663258339 5.1734007884988387 -1 0 0 I I #
coedge $-1 $414 $414 $-1 $587 reversed $266 $-1 #
edge $-1 $588 0 $588 6.2831853071796004 $267 $589 forward 7 unknown #
vertex $-1 $270 $590 #
ellipse-curve $-1 44.123724042005804 8.4861506471435106 3.614434349673938 0.64278761758704617 0 0.76604443648966558 0.38302221824483279 0 -0.32139380879352308 1 I I #
coedge $-1 $418 $418 $-1 $591 reversed $273 $-1 #
edge $-1 $592 0 $592 6.2831853071796004 $274 $593 forward 7 unknown #
vertex $-1 $277 $594 #
ellipse-curve $-1 44.123724042005804 10.954847656812408 3.614434349673938 0.64278761758704617 0 0.76604443648966558 0.38302221824483279 0 -0.32139380879352308 1 I I #
face $-1 $-1 $434 $57 $-1 $595 forward single #
loop $-1 $-1 $596 $278 #
plane-surface $-1 -45.98162785729545 0 0 1 0 0 0 0 -1 forward_v I I I I #
coedge $-1 $597 $598 $599 $600 reversed $279 $-1 #
coedge $-1 $601 $281 $283 $432 forward $175 $-1 #
coedge $-1 $281 $601 $597 $602 forward $175 $-1 #
coedge $-1 $599 $284 $281 $429 forward $434 $-1 #
edge $-1 $436 -7.2478355241956738 $603 0.46359837843213558 $428 $604 forward 7 unknown #
coedge $-1 $605 $606 $282 $431 forward $423 $-1 #
edge $-1 $607 -22.242291082982486 $435 -18.565934753738937 $430 $608 forward 7 unknown #
edge $-1 $436 -4.2450905947358084 $607 2.8450313176714033e-014 $283 $609 forward 7 unknown #
coedge $-1 $284 $599 $605 $610 forward $434 $-1 #
loop $-1 $-1 $599 $422 #
vertex $-1 $431 $611 #
vertex $-1 $285 $612 #
straight-curve $-1 -62.812072116097276 -10.639954097077442 5.1734007884988387 1 0 0 I I #
coedge $-1 $438 $438 $-1 $613 reversed $288 $-1 #
edge $-1 $614 0 $614 6.2831853071796004 $289 $615 forward 7 unknown #
vertex $-1 $292 $616 #
ellipse-curve $-1 -44.920355237048234 -8.4366872677552092 3.3352226238770681 -0.86602541151947299 0 0.49999998660252726 0.24999999330126363 0 0.43301270575973649 1 I I #
coedge $-1 $442 $442 $-1 $617 reversed $295 $-1 #
edge $-1 $618 0 $618 6.2831853071796004 $296 $619 forward 7 unknown #
vertex $-1 $299 $620 #
ellipse-curve $-1 -44.920355237048234 -5.1317870237718637 3.3352226238770681 -0.86602541151947299 0 0.49999998660252726 0.24999999330126363 0 0.43301270575973649 1 I I #
face $-1 $-1 $315 $45 $-1 $621 reversed single #
loop $-1 $-1 $462 $300 #
plane-surface $-1 0 18.629245962606891 0 0 -1 0 0 0 -1 forward_v I I I I #
coedge $-1 $622 $460 $463 $623 forward $301 $-1 #
coedge $-1 $466 $303 $304 $454 reversed $189 $-1 #
coedge $-1 $460 $622 $303 $452 reversed $301 $-1 #
edge $-1 $467 -5.1734007884988369 $624 5.1734007884988369 $451 $625 forward 7 unknown #
coedge $-1 $305 $304 $622 $626 forward $121 $-1 #
edge $-1 $458 -45.98162785729545 $624 45.98162785729545 $450 $627 forward 7 unknown #
coedge $-1 $463 $462 $305 $456 reversed $447 $-1 #
edge $-1 $628 -45.98162785729545 $457 45.98162785729545 $455 $629 forward 7 unknown #
vertex $-1 $307 $630 #
vertex $-1 $469 $631 #
straight-curve $-1 45.98162785729545 0 -5.1734007884988369 0 -1 0 I I #
coedge $-1 $449 $451 $308 $461 reversed $301 $-1 #
edge $-1 $464 -18.629245962606891 $467 18.629245962606891 $460 $632 forward 7 unknown #
coedge $-1 $455 $309 $314 $470 forward $447 $-1 #
coedge $-1 $309 $455 $449 $623 reversed $447 $-1 #
vertex $-1 $310 $633 #
straight-curve $-1 0 18.629245962606891 5.1734007884988369 -1 0 0 I I #
coedge $-1 $311 $450 $313 $469 reversed $189 $-1 #
vertex $-1 $461 $634 #
straight-curve $-1 0 -18.629245962606891 5.1734007884988369 1 0 0 I I #
edge $-1 $316 -5.1734007884988369 $458 5.1734007884988369 $313 $635 forward 7 unknown #
edge $-1 $317 -5.1734007884988369 $457 5.1734007884988369 $314 $636 forward 7 unknown #
point $-1 45.98162785729545 -18.629245962606891 5.1734007884988369 #
point $-1 45.98162785729545 18.629245962606891 5.1734007884988369 #
face $-1 $-1 $637 $46 $-1 $638 reversed single #
loop $-1 $-1 $329 $319 #
plane-surface $-1 0 -18.629245962606891 0 0 1 0 0 0 1 forward_v I I I I #
coedge $-1 $639 $322 $480 $640 forward $197 $-1 #
coedge $-1 $322 $639 $641 $642 forward $197 $-1 #
edge $-1 $643 -45.98162785729545 $481 45.98162785729545 $322 $644 forward 7 unknown #
coedge $-1 $324 $323 $645 $646 reversed $125 $-1 #
coedge $-1 $325 $331 $476 $640 reversed $320 $-1 #
vertex $-1 $640 $647 #
straight-curve $-1 45.98162785729545 -14.554566434985741 -1.8367003942494184 0 0 1 I I #
coedge $-1 $645 $648 $327 $484 forward $637 $-1 #
edge $-1 $489 -10.333292863208733 $485 -6.258613335587583 $483 $649 forward 7 unknown #
vertex $-1 $484 $650 #
straight-curve $-1 0 -14.554566434985741 -2.1734007884988369 -1 0 0 I I #
coedge $-1 $651 $329 $648 $652 forward $474 $-1 #
coedge $-1 $329 $651 $331 $491 reversed $474 $-1 #
vertex $-1 $652 $653 #
straight-curve $-1 0 -18.629245962606891 -2.1734007884988369 -1 0 0 I I #
edge $-1 $333 2.1734007884988369 $654 5.1734007884988369 $331 $655 forward 7 unknown #
point $-1 45.98162785729545 -14.554566434985741 -2.1734007884988369 #
point $-1 45.98162785729545 -18.629245962606891 -2.1734007884988369 #
face $-1 $-1 $508 $47 $-1 $656 reversed single #
loop $-1 $-1 $500 $335 #
plane-surface $-1 -45.98162785729545 0 0 1 0 0 0 0 -1 forward_v I I I I #
coedge $-1 $657 $658 $338 $499 forward $336 $-1 #
coedge $-1 $339 $338 $346 $513 reversed $129 $-1 #
edge $-1 $659 -45.98162785729545 $502 45.98162785729545 $497 $660 forward 7 unknown #
coedge $-1 $661 $340 $342 $505 forward $495 $-1 #
coedge $-1 $340 $661 $657 $662 reversed $495 $-1 #
vertex $-1 $662 $663 #
vertex $-1 $505 $664 #
straight-curve $-1 -45.98162785729545 14.554566434985745 -1.8367003942494184 0 0 1 I I #
edge $-1 $503 6.2586133355875848 $509 10.333292863208735 $500 $665 forward 7 unknown #
coedge $-1 $666 $343 $347 $514 forward $508 $-1 #
coedge $-1 $343 $666 $661 $667 reversed $508 $-1 #
loop $-1 $-1 $343 $494 #
vertex $-1 $667 $668 #
straight-curve $-1 0 18.629245962606891 -2.1734007884988369 1 0 0 I I #
straight-curve $-1 0 14.554566434985745 -2.1734007884988369 1 0 0 I I #
coedge $-1 $347 $346 $658 $669 reversed $205 $-1 #
edge $-1 $349 0.33670039424941844 $659 3.3367003942494184 $346 $670 forward 7 unknown #
edge $-1 $348 2.1734007884988369 $671 5.1734007884988369 $347 $672 forward 7 unknown #
point $-1 45.98162785729545 18.629245962606895 -2.1734007884988369 #
point $-1 45.98162785729545 14.554566434985745 -2.1734007884988369 #
loop $-1 $-1 $359 $351 #
plane-surface $-1 45.98162785729545 0 0 -1 0 0 0 0 1 forward_v I I I I #
coedge $-1 $520 $354 $356 $524 reversed $213 $-1 #
coedge $-1 $354 $519 $673 $674 reversed $213 $-1 #
coedge $-1 $362 $357 $354 $522 forward $352 $-1 #
edge $-1 $525 24.942555475722727 $675 28.658363106302026 $521 $676 forward 7 unknown #
coedge $-1 $356 $355 $528 $677 reversed $133 $-1 #
edge $-1 $678 -91.963255714590872 $525 -87.112613305898932 $519 $679 forward 7 unknown #
vertex $-1 $358 $680 #
straight-curve $-1 42.265820226716144 -4.8427947140015144 5.1734007884988387 0 -1 0 I I #
coedge $-1 $673 $359 $362 $532 reversed $517 $-1 #
coedge $-1 $359 $673 $523 $677 forward $517 $-1 #
vertex $-1 $360 $681 #
straight-curve $-1 45.98162785729545 -6.8054429167226473 65.808125179409018 0 0 1 I I #
straight-curve $-1 -24.466312544343346 -6.8054429167226473 61.168309957179233 0.76604443648966558 0 -0.64278761758704617 I I #
edge $-1 $675 -12.56573593928341 $363 -6.8054429167226473 $527 $682 forward 7 unknown #
point $-1 45.98162785729545 -6.8054429167226473 5.1734007884988369 #
point $-1 42.265820226716151 -6.8054429167226473 5.1734007884988387 #
edge $-1 $683 1 $683 0 $366 $-1 forward 7 unknown #
vertex $-1 $367 $684 #
ellipse-curve $-1 43.480936424418758 -10.919937932837477 2.8483899131842723 0.64278761758704617 0 0.76604443648966558 0.38302221824483279 0 -0.32139380879352308 1 I I #
point $-1 44.506746260250637 -10.919937932837477 3.2930405408804151 #
edge $-1 $685 1 $685 0 $370 $-1 forward 7 unknown #
vertex $-1 $371 $686 #
ellipse-curve $-1 43.480936424418758 -8.4512409231685783 2.8483899131842723 0.64278761758704617 0 0.76604443648966558 0.38302221824483279 0 -0.32139380879352308 1 I I #
point $-1 44.506746260250637 -8.4512409231685783 3.2930405408804151 #
plane-surface $-1 0 0 5.1734007884988369 0 0 1 1 0 0 forward_v I I I I #
coedge $-1 $554 $553 $546 $687 forward $375 $-1 #
coedge $-1 $546 $377 $379 $550 reversed $235 $-1 #
coedge $-1 $377 $545 $544 $687 reversed $235 $-1 #
coedge $-1 $385 $380 $377 $548 forward $386 $-1 #
edge $-1 $551 24.942555475722727 $688 28.658363106302026 $547 $689 forward 7 unknown #
coedge $-1 $379 $378 $554 $690 reversed $147 $-1 #
edge $-1 $691 -91.963255714590872 $551 -87.112613305898932 $545 $692 forward 7 unknown #
vertex $-1 $381 $693 #
straight-curve $-1 42.265820226716144 0.008727430993731744 5.1734007884988387 0 -1 0 I I #
coedge $-1 $544 $382 $385 $558 reversed $375 $-1 #
coedge $-1 $382 $544 $549 $690 forward $375 $-1 #
vertex $-1 $383 $694 #
straight-curve $-1 45.98162785729545 2.8976013732678449 65.808125179409018 0 0 1 I I #
straight-curve $-1 -24.466312544343346 2.8976013732678449 61.168309957179233 0.76604443648966558 0 -0.64278761758704617 I I #
edge $-1 $688 -2.862691649292918 $387 2.8976013732678449 $553 $695 forward 7 unknown #
point $-1 45.98162785729545 2.8976013732678449 5.1734007884988369 #
point $-1 42.265820226716151 2.8976013732678449 5.1734007884988387 #
edge $-1 $696 1 $696 0 $390 $-1 forward 7 unknown #
vertex $-1 $391 $697 #
ellipse-curve $-1 43.480936424418758 -1.2168936428469834 2.8483899131842723 0.64278761758704617 0 0.76604443648966558 0.38302221824483279 0 -0.32139380879352308 1 I I #
point $-1 44.506746260250637 -1.2168936428469834 3.2930405408804151 #
edge $-1 $698 1 $698 0 $394 $-1 forward 7 unknown #
vertex $-1 $395 $699 #
ellipse-curve $-1 43.480936424418758 1.251803366821914 2.8483899131842723 0.64278761758704617 0 0.76604443648966558 0.38302221824483279 0 -0.32139380879352308 1 I I #
point $-1 44.506746260250637 1.251803366821914 3.2930405408804151 #
plane-surface $-1 0 0 5.1734007884988369 0 0 1 1 0 0 forward_v I I I I #
coedge $-1 $580 $579 $572 $700 forward $399 $-1 #
coedge $-1 $572 $401 $403 $576 reversed $257 $-1 #
coedge $-1 $401 $571 $570 $700 reversed $257 $-1 #
coedge $-1 $409 $404 $401 $574 forward $410 $-1 #
edge $-1 $577 24.942555475722727 $701 28.658363106302026 $573 $702 forward 7 unknown #
coedge $-1 $403 $402 $580 $703 reversed $161 $-1 #
edge $-1 $704 -91.963255714590872 $577 -87.112613305898932 $571 $705 forward 7 unknown #
vertex $-1 $405 $706 #
straight-curve $-1 42.265820226716144 4.8602495759889788 5.1734007884988387 0 -1 0 I I #
coedge $-1 $570 $406 $409 $584 reversed $399 $-1 #
coedge $-1 $406 $570 $575 $703 forward $399 $-1 #
vertex $-1 $407 $707 #
straight-curve $-1 45.98162785729545 12.600645663258339 65.808125179409018 0 0 1 I I #
straight-curve $-1 -24.466312544343346 12.600645663258339 61.168309957179233 0.76604443648966558 0 -0.64278761758704617 I I #
edge $-1 $701 6.8403526406975761 $411 12.600645663258339 $579 $708 forward 7 unknown #
point $-1 45.98162785729545 12.600645663258339 5.1734007884988369 #
point $-1 42.265820226716151 12.600645663258339 5.1734007884988387 #
edge $-1 $709 1 $709 0 $414 $-1 forward 7 unknown #
vertex $-1 $415 $710 #
ellipse-curve $-1 43.480936424418758 8.4861506471435106 2.8483899131842723 0.64278761758704617 0 0.76604443648966558 0.38302221824483279 0 -0.32139380879352308 1 I I #
point $-1 44.506746260250637 8.4861506471435106 3.2930405408804151 #
edge $-1 $711 1 $711 0 $418 $-1 forward 7 unknown #
vertex $-1 $419 $712 #
ellipse-curve $-1 43.480936424418758 10.954847656812408 2.8483899131842723 0.64278761758704617 0 0.76604443648966558 0.38302221824483279 0 -0.32139380879352308 1 I I #
point $-1 44.506746260250637 10.954847656812408 3.2930405408804151 #
plane-surface $-1 0 0 5.1734007884988369 0 0 1 1 0 0 forward_v I I I I #
coedge $-1 $606 $605 $598 $713 forward $423 $-1 #
coedge $-1 $598 $425 $427 $602 reversed $279 $-1 #
coedge $-1 $425 $597 $596 $713 reversed $279 $-1 #
coedge $-1 $433 $428 $425 $600 forward $434 $-1 #
edge $-1 $603 -18.952989499296258 $714 -16.830444258801826 $599 $715 forward 7 unknown #
coedge $-1 $427 $426 $606 $716 reversed $175 $-1 #
edge $-1 $717 -2.8450313176714033e-014 $603 4.2450905947358084 $597 $718 forward 7 unknown #
vertex $-1 $429 $719 #
straight-curve $-1 -43.859082616801018 -3.3921185728817687 5.1734007884988369 0 1 0 I I #
coedge $-1 $596 $430 $433 $610 reversed $423 $-1 #
coedge $-1 $430 $596 $601 $716 forward $423 $-1 #
vertex $-1 $431 $720 #
straight-curve $-1 -45.98162785729545 -10.639954097077442 23.739335542237775 0 0 1 I I #
straight-curve $-1 -45.981627857295436 -10.639954097077442 1.4970444592553136 -0.49999998660252726 0 -0.86602541151947299 I I #
edge $-1 $714 2.9285201944496331 $435 10.639954097077442 $605 $721 forward 7 unknown #
point $-1 -45.98162785729545 -10.639954097077442 5.1734007884988369 #
point $-1 -43.859082616801018 -10.639954097077442 5.1734007884988369 #
edge $-1 $722 1 $722 0 $438 $-1 forward 7 unknown #
vertex $-1 $439 $723 #
ellipse-curve $-1 -43.794749498393585 -8.4366872677552092 2.6853538708810185 -0.86602541151947299 0 0.49999998660252726 0.24999999330126363 0 0.43301270575973649 1 I I #
point $-1 -44.670355243746975 -8.4366872677552092 3.7682353296368101 #
edge $-1 $724 1 $724 0 $442 $-1 forward 7 unknown #
vertex $-1 $443 $725 #
ellipse-curve $-1 -43.794749498393585 -5.1317870237718637 2.6853538708810185 -0.86602541151947299 0 0.49999998660252726 0.24999999330126363 0 0.43301270575973649 1 I I #
point $-1 -44.670355243746975 -5.1317870237718637 3.7682353296368101 #
plane-surface $-1 45.98162785729545 0 0 -1 0 0 0 0 1 forward_v I I I I #
coedge $-1 $451 $449 $453 $626 reversed $301 $-1 #
edge $-1 $464 -5.1734007884988369 $628 5.1734007884988369 $463 $726 forward 7 unknown #
vertex $-1 $626 $727 #
straight-curve $-1 -45.98162785729545 -18.629245962606891 0 0 0 -1 I I #
edge $-1 $624 -18.629245962606891 $628 18.629245962606891 $622 $728 forward 7 unknown #
straight-curve $-1 0 -18.629245962606891 -5.1734007884988369 -1 0 0 I I #
vertex $-1 $456 $729 #
straight-curve $-1 0 18.629245962606891 -5.1734007884988369 1 0 0 I I #
point $-1 45.98162785729545 18.629245962606891 -5.1734007884988369 #
point $-1 45.98162785729545 -18.629245962606891 -5.1734007884988369 #
straight-curve $-1 -45.98162785729545 0 5.1734007884988369 0 -1 0 I I #
point $-1 -45.98162785729545 18.629245962606891 5.1734007884988369 #
point $-1 -45.98162785729545 -18.629245962606891 5.1734007884988369 #
straight-curve $-1 45.98162785729545 -18.629245962606891 0 0 0 -1 I I #
straight-curve $-1 45.98162785729545 18.629245962606891 0 0 0 -1 I I #
loop $-1 $-1 $645 $473 #
plane-surface $-1 -45.98162785729545 0 0 1 0 0 0 0 -1 forward_v I I I I #
coedge $-1 $477 $476 $651 $730 forward $197 $-1 #
edge $-1 $481 14.554566434985741 $654 18.629245962606891 $480 $731 forward 7 unknown #
coedge $-1 $648 $645 $477 $642 reversed $637 $-1 #
edge $-1 $732 -18.629245962606891 $643 -14.554566434985741 $641 $733 forward 7 unknown #
vertex $-1 $646 $734 #
straight-curve $-1 0 -14.554566434985741 -5.1734007884988369 1 0 0 I I #
coedge $-1 $641 $483 $479 $646 forward $637 $-1 #
edge $-1 $485 0.33670039424941844 $643 3.3367003942494184 $645 $735 forward 7 unknown #
point $-1 45.98162785729545 -14.554566434985741 -5.1734007884988369 #
coedge $-1 $483 $641 $487 $652 reversed $637 $-1 #
straight-curve $-1 -45.98162785729545 -8.2959530993981581 -2.1734007884988369 0 1 0 I I #
point $-1 -45.98162785729545 -14.554566434985741 -2.1734007884988369 #
coedge $-1 $488 $487 $639 $730 reversed $474 $-1 #
edge $-1 $489 2.1734007884988369 $732 5.1734007884988369 $648 $736 forward 7 unknown #
point $-1 -45.98162785729545 -18.629245962606891 -2.1734007884988369 #
vertex $-1 $491 $737 #
straight-curve $-1 45.98162785729545 -18.629245962606891 0 0 0 -1 I I #
plane-surface $-1 0 18.629245962606891 0 0 -1 0 0 0 -1 forward_v I I I I #
coedge $-1 $738 $497 $501 $662 forward $336 $-1 #
coedge $-1 $497 $738 $512 $669 forward $336 $-1 #
vertex $-1 $499 $739 #
straight-curve $-1 0 14.554566434985745 -5.1734007884988369 -1 0 0 I I #
coedge $-1 $501 $500 $507 $667 forward $495 $-1 #
edge $-1 $502 14.554566434985745 $740 18.629245962606891 $501 $741 forward 7 unknown #
point $-1 -45.98162785729545 14.554566434985745 -5.1734007884988369 #
point $-1 -45.98162785729545 14.554566434985745 -2.1734007884988369 #
straight-curve $-1 -45.98162785729545 8.2959530993981598 -2.1734007884988369 0 1 0 I I #
coedge $-1 $507 $506 $738 $742 reversed $508 $-1 #
edge $-1 $509 2.1734007884988369 $740 5.1734007884988369 $507 $743 forward 7 unknown #
point $-1 -45.98162785729545 18.629245962606895 -2.1734007884988369 #
edge $-1 $671 -18.629245962606891 $659 -14.554566434985745 $512 $744 forward 7 unknown #
straight-curve $-1 45.98162785729545 14.554566434985745 -1.8367003942494184 0 0 -1 I I #
vertex $-1 $669 $745 #
straight-curve $-1 45.98162785729545 18.629245962606891 0 0 0 -1 I I #
coedge $-1 $528 $527 $520 $674 forward $517 $-1 #
edge $-1 $675 60.634724390910179 $678 63.752657268559972 $673 $746 forward 7 unknown #
vertex $-1 $532 $747 #
straight-curve $-1 17.323264750993424 -12.56573593928341 5.1734007884988387 1 0 0 I I #
edge $-1 $678 -7.7229412252818959 $529 -1.9626482027211329 $528 $748 forward 7 unknown #
vertex $-1 $677 $749 #
straight-curve $-1 -24.466312544343346 -12.56573593928341 61.168309957179233 -0.76604443648966558 0 0.64278761758704617 I I #
point $-1 42.265820226716151 -12.56573593928341 5.1734007884988387 #
point $-1 45.981627857295443 -6.8054429167226473 2.0554679108490461 #
straight-curve $-1 45.98162785729545 0 5.1734007884988369 0 1 0 I I #
vertex $-1 $535 $750 #
point $-1 43.863958642663597 -10.919937932837477 2.5269961043907494 #
vertex $-1 $539 $751 #
point $-1 43.863958642663597 -8.4512409231685783 2.5269961043907494 #
edge $-1 $688 60.634724390910179 $691 63.752657268559972 $544 $752 forward 7 unknown #
vertex $-1 $558 $753 #
straight-curve $-1 17.323264750993424 -2.862691649292918 5.1734007884988387 1 0 0 I I #
edge $-1 $691 -2.8714190802866497 $555 2.8888739422741132 $554 $754 forward 7 unknown #
vertex $-1 $690 $755 #
straight-curve $-1 -24.466312544343346 -2.862691649292918 61.168309957179233 -0.76604443648966558 0 0.64278761758704617 I I #
point $-1 42.265820226716151 -2.862691649292918 5.1734007884988387 #
point $-1 45.981627857295443 2.8976013732678449 2.0554679108490461 #
straight-curve $-1 45.98162785729545 0 5.1734007884988369 0 1 0 I I #
vertex $-1 $561 $756 #
point $-1 43.863958642663597 -1.2168936428469834 2.5269961043907494 #
vertex $-1 $565 $757 #
point $-1 43.863958642663597 1.251803366821914 2.5269961043907494 #
edge $-1 $701 60.634724390910179 $704 63.752657268559972 $570 $758 forward 7 unknown #
vertex $-1 $584 $759 #
straight-curve $-1 17.323264750993424 6.8403526406975761 5.1734007884988387 1 0 0 I I #
edge $-1 $704 1.9801030647085973 $581 7.7403960872693602 $580 $760 forward 7 unknown #
vertex $-1 $703 $761 #
straight-curve $-1 -24.466312544343346 6.8403526406975761 61.168309957179233 -0.76604443648966558 0 0.64278761758704617 I I #
point $-1 42.265820226716151 6.8403526406975761 5.1734007884988387 #
point $-1 45.981627857295443 12.600645663258339 2.0554679108490461 #
straight-curve $-1 45.98162785729545 0 5.1734007884988369 0 1 0 I I #
vertex $-1 $587 $762 #
point $-1 43.863958642663597 8.4861506471435106 2.5269961043907494 #
vertex $-1 $591 $763 #
point $-1 43.863958642663597 10.954847656812408 2.5269961043907494 #
edge $-1 $714 18.565934753738937 $717 22.242291082982486 $596 $764 forward 7 unknown #
vertex $-1 $610 $765 #
straight-curve $-1 -62.812072116097276 -2.9285201944496331 5.1734007884988387 -1 0 0 I I #
edge $-1 $717 -0.46359837843213558 $607 7.2478355241956738 $606 $766 forward 7 unknown #
vertex $-1 $716 $767 #
straight-curve $-1 -45.981627857295436 -2.9285201944496331 1.4970444592553136 0.49999998660252726 0 0.86602541151947299 I I #
point $-1 -43.859082616801018 -2.9285201944496331 5.1734007884988369 #
point $-1 -45.98162785729545 -10.639954097077442 1.497044459255289 #
straight-curve $-1 -45.98162785729545 0 5.1734007884988369 0 -1 0 I I #
vertex $-1 $613 $768 #
point $-1 -43.544749505092319 -8.4366872677552092 3.1183665766407551 #
vertex $-1 $617 $769 #
point $-1 -43.544749505092319 -5.1317870237718637 3.1183665766407551 #
straight-curve $-1 -45.98162785729545 18.629245962606891 0 0 0 -1 I I #
point $-1 -45.98162785729545 -18.629245962606891 -5.1734007884988369 #
straight-curve $-1 -45.98162785729545 0 -5.1734007884988369 0 1 0 I I #
point $-1 -45.98162785729545 18.629245962606891 -5.1734007884988369 #
edge $-1 $654 -45.98162785729545 $732 45.98162785729545 $651 $770 forward 7 unknown #
straight-curve $-1 45.98162785729545 0 -5.1734007884988369 0 -1 0 I I #
vertex $-1 $642 $771 #
straight-curve $-1 -45.98162785729545 0 -5.1734007884988369 0 1 0 I I #
point $-1 -45.98162785729545 -14.554566434985741 -5.1734007884988369 #
straight-curve $-1 -45.98162785729545 -14.554566434985741 -1.8367003942494184 0 0 -1 I I #
straight-curve $-1 -45.98162785729545 -18.629245962606891 0 0 0 -1 I I #
point $-1 45.98162785729545 -18.629245962606891 -5.1734007884988369 #
coedge $-1 $658 $657 $666 $742 forward $336 $-1 #
point $-1 45.98162785729545 14.554566434985745 -5.1734007884988369 #
vertex $-1 $742 $772 #
straight-curve $-1 -45.98162785729545 0 -5.1734007884988369 0 1 0 I I #
edge $-1 $740 -45.98162785729545 $671 45.98162785729545 $666 $773 forward 7 unknown #
straight-curve $-1 -45.98162785729545 18.629245962606891 0 0 0 -1 I I #
straight-curve $-1 45.98162785729545 0 -5.1734007884988369 0 -1 0 I I #
point $-1 45.98162785729545 18.629245962606891 -5.1734007884988369 #
straight-curve $-1 45.98162785729545 -12.56573593928341 65.808125179409018 0 0 -1 I I #
point $-1 45.98162785729545 -12.56573593928341 5.1734007884988369 #
straight-curve $-1 45.981627857295443 -4.8427947140015144 2.0554679108490532 0 1 0 I I #
point $-1 45.981627857295443 -12.56573593928341 2.0554679108490461 #
point $-1 43.159542615625242 -10.919937932837477 2.4653676949394399 #
point $-1 43.159542615625242 -8.4512409231685783 2.4653676949394399 #
straight-curve $-1 45.98162785729545 -2.862691649292918 65.808125179409018 0 0 -1 I I #
point $-1 45.98162785729545 -2.862691649292918 5.1734007884988369 #
straight-curve $-1 45.981627857295443 0.008727430993731744 2.0554679108490532 0 1 0 I I #
point $-1 45.981627857295443 -2.862691649292918 2.0554679108490461 #
point $-1 43.159542615625242 -1.2168936428469834 2.4653676949394399 #
point $-1 43.159542615625242 1.251803366821914 2.4653676949394399 #
straight-curve $-1 45.98162785729545 6.8403526406975761 65.808125179409018 0 0 -1 I I #
point $-1 45.98162785729545 6.8403526406975761 5.1734007884988369 #
straight-curve $-1 45.981627857295443 4.8602495759889788 2.0554679108490532 0 1 0 I I #
point $-1 45.981627857295443 6.8403526406975761 2.0554679108490461 #
point $-1 43.159542615625242 8.4861506471435106 2.4653676949394399 #
point $-1 43.159542615625242 10.954847656812408 2.4653676949394399 #
straight-curve $-1 -45.98162785729545 -2.9285201944496331 23.739335542237775 0 0 -1 I I #
point $-1 -45.98162785729545 -2.9285201944496331 5.1734007884988369 #
straight-curve $-1 -45.98162785729545 -3.3921185728817687 1.4970444592552874 0 -1 0 I I #
point $-1 -45.98162785729545 -2.9285201944496331 1.497044459255289 #
point $-1 -43.361736792633849 -8.4366872677552092 2.4353538775797552 #
point $-1 -43.361736792633849 -5.1317870237718637 2.4353538775797552 #
straight-curve $-1 0 -18.629245962606891 -5.1734007884988369 -1 0 0 I I #
point $-1 -45.98162785729545 -18.629245962606891 -5.1734007884988369 #
point $-1 -45.98162785729545 18.629245962606891 -5.1734007884988369 #
straight-curve $-1 0 18.629245962606891 -5.1734007884988369 1 0 0 I I #
End-of-ACIS-data 