500 0 8 0           
7 Unknown 11 ACIS 5.0 NT 24 Thu Mar 25 16:14:33 1999 
-1 9.9999999999999995e-007 1e-010 
body $-1 $8 $-1 $9 #
body $-1 $10 $-1 $11 #
body $-1 $12 $-1 $13 #
body $-1 $14 $-1 $15 #
body $-1 $16 $-1 $17 #
body $-1 $18 $-1 $19 #
body $-1 $20 $-1 $21 #
body $-1 $22 $-1 $23 #
lump $-1 $-1 $24 $0 #
transform $-1 1 0 0 0 1 0 0 0 1 58.195135349589528 30.559416971533771 8.9036116197344466 1 rotate no_reflect no_shear #
lump $-1 $-1 $25 $1 #
transform $-1 1 0 0 0 1 0 0 0 1 58.195135349589528 30.559416971533771 8.9036116197344466 1 rotate no_reflect no_shear #
lump $-1 $-1 $26 $2 #
transform $-1 1 0 0 0 1 0 0 0 1 58.195135349589528 30.559416971533771 8.9036116197344466 1 rotate no_reflect no_shear #
lump $-1 $-1 $27 $3 #
transform $-1 1 0 0 0 1 0 0 0 1 58.195135349589528 30.559416971533771 8.9036116197344466 1 rotate no_reflect no_shear #
lump $-1 $-1 $28 $4 #
transform $-1 1 0 0 0 1 0 0 0 1 58.195135349589528 30.559416971533771 8.9036116197344466 1 rotate no_reflect no_shear #
lump $-1 $-1 $29 $5 #
transform $-1 1 0 0 0 1 0 0 0 1 58.195135349589528 30.559416971533771 8.9036116197344466 1 rotate no_reflect no_shear #
lump $-1 $-1 $30 $6 #
transform $-1 1 0 0 0 1 0 0 0 1 58.195135349589528 30.559416971533771 8.9036116197344466 1 rotate no_reflect no_shear #
lump $-1 $-1 $31 $7 #
transform $-1 1 0 0 0 1 0 0 0 1 58.195135349589528 30.559416971533771 8.9036116197344466 1 rotate no_reflect no_shear #
shell $-1 $-1 $-1 $32 $-1 $8 #
shell $-1 $-1 $-1 $33 $-1 $10 #
shell $-1 $-1 $-1 $34 $-1 $12 #
shell $-1 $-1 $-1 $35 $-1 $14 #
shell $-1 $-1 $-1 $36 $-1 $16 #
shell $-1 $-1 $-1 $37 $-1 $18 #
shell $-1 $-1 $-1 $38 $-1 $20 #
shell $-1 $-1 $-1 $39 $-1 $22 #
face $-1 $40 $41 $24 $-1 $42 forward single #
face $-1 $43 $44 $25 $-1 $45 forward single #
face $-1 $46 $47 $26 $-1 $48 forward single #
face $-1 $49 $50 $27 $-1 $51 reversed single #
face $-1 $52 $53 $28 $-1 $54 forward single #
face $-1 $55 $56 $29 $-1 $57 forward single #
face $-1 $58 $59 $30 $-1 $60 reversed single #
face $-1 $61 $62 $31 $-1 $63 forward single #
face $-1 $64 $65 $24 $-1 $66 reversed single #
loop $-1 $-1 $67 $32 #
plane-surface $-1 0 0 8.9036116197344466 0 0 1 1 0 0 forward_v I I I I #
face $-1 $68 $69 $25 $-1 $70 forward single #
loop $-1 $-1 $71 $33 #
plane-surface $-1 0 -30.559416971533771 0 0 1 0 0 0 1 forward_v I I I I #
face $-1 $72 $73 $26 $-1 $74 reversed single #
loop $-1 $-1 $75 $34 #
plane-surface $-1 0 30.559416971533771 0 0 -1 0 0 0 -1 forward_v I I I I #
face $-1 $76 $77 $27 $-1 $78 reversed single #
loop $-1 $-1 $79 $35 #
plane-surface $-1 -143.3175916198112 -20.970906297743788 83.958059720358634 0 1 0 -0.73135370988377701 0 0.68199835119979291 forward_v I I I I #
face $-1 $80 $81 $28 $-1 $82 forward single #
loop $-1 $83 $84 $36 #
cone-surface $-1 -54.84873002024311 -18.424249601521296 5.5011105915351406 0.73135370988377701 0 -0.68199835119979291 0.68199835119979291 0 0.73135370988377701 1 I I 0 1 1 forward I I I I #
face $-1 $85 $86 $29 $-1 $87 forward single #
loop $-1 $88 $89 $37 #
cone-surface $-1 -54.84873002024311 -14.604264557187561 5.5011105915351406 0.73135370988377701 0 -0.68199835119979291 0.68199835119979291 0 0.73135370988377701 1 I I 0 1 1 forward I I I I #
face $-1 $90 $91 $30 $-1 $92 reversed single #
loop $-1 $-1 $93 $38 #
plane-surface $-1 21.168035808096484 -2.8942237569059657 161.57093244570737 0 -1 0 -0.52991927123019833 0 -0.84804809178421925 forward_v I I I I #
face $-1 $94 $95 $31 $-1 $96 forward single #
loop $-1 $97 $98 $39 #
cone-surface $-1 51.502480643010401 -7.142651086609547 4.2147001037067886 -0.52991927123019833 0 -0.84804809178421925 0.84804809178421925 0 -0.52991927123019833 1 I I 0 1 1 forward I I I I #
face $-1 $99 $100 $24 $-1 $101 reversed single #
loop $-1 $-1 $102 $40 #
plane-surface $-1 0 0 -8.9036116197344466 0 0 1 1 0 0 forward_v I I I I #
coedge $-1 $103 $104 $105 $106 forward $41 $-1 #
face $-1 $107 $108 $25 $-1 $109 reversed single #
loop $-1 $-1 $110 $43 #
plane-surface $-1 0 0 8.9036116197344466 0 0 1 1 0 0 forward_v I I I I #
coedge $-1 $111 $112 $113 $114 forward $44 $-1 #
face $-1 $115 $116 $26 $-1 $117 reversed single #
loop $-1 $-1 $118 $46 #
plane-surface $-1 58.195135349589528 0 0 -1 0 0 0 0 1 forward_v I I I I #
coedge $-1 $119 $120 $121 $122 forward $47 $-1 #
face $-1 $123 $124 $27 $-1 $125 reversed single #
loop $-1 $-1 $126 $49 #
plane-surface $-1 -58.195135349589521 -16.514257079354429 4.5800870078209499 -0.73135370988377701 0 0.68199835119979291 0.68199835119979291 0 0.73135370988377701 forward_v I I I I #
coedge $-1 $127 $128 $129 $130 reversed $50 $-1 #
face $-1 $-1 $131 $28 $-1 $132 forward single #
loop $-1 $133 $134 $52 #
cone-surface $-1 -53.152523749926253 -18.424249601521296 3.9193726936926812 0.73135370988377701 0 -0.68199835119979291 0.34099917559989645 0 0.36567685494188851 1 I I -0.70710678118654746 0.70710678118654746 0.5 forward I I I I #
loop $-1 $-1 $135 $36 #
coedge $-1 $84 $84 $136 $137 reversed $53 $-1 #
face $-1 $-1 $138 $29 $-1 $139 forward single #
loop $-1 $140 $141 $55 #
cone-surface $-1 -53.152523749926253 -14.604264557187561 3.9193726936926812 0.73135370988377701 0 -0.68199835119979291 0.34099917559989645 0 0.36567685494188851 1 I I -0.70710678118654746 0.70710678118654746 0.5 forward I I I I #
loop $-1 $-1 $142 $37 #
coedge $-1 $89 $89 $143 $144 reversed $56 $-1 #
face $-1 $145 $146 $30 $-1 $147 reversed single #
loop $-1 $-1 $148 $58 #
plane-surface $-1 -40.509411619097989 -7.142651086609547 62.866385477019847 0.52991927123019833 0 0.84804809178421925 0.84804809178421925 0 -0.52991927123019833 forward_v I I I I #
coedge $-1 $149 $150 $151 $152 reversed $59 $-1 #
face $-1 $-1 $153 $31 $-1 $154 forward single #
loop $-1 $155 $156 $61 #
cone-surface $-1 50.717895434585408 -7.142651086609547 2.9591013267415622 -0.52991927123019833 0 -0.84804809178421925 0.42402404589210962 0 -0.26495963561509916 1 I I -0.70710678118654724 0.70710678118654791 0.5 forward I I I I #
loop $-1 $-1 $157 $39 #
coedge $-1 $98 $98 $158 $159 reversed $62 $-1 #
face $-1 $160 $161 $24 $-1 $162 reversed single #
loop $-1 $-1 $163 $64 #
plane-surface $-1 0 -30.559416971533771 0 0 1 0 0 0 1 forward_v I I I I #
coedge $-1 $164 $165 $166 $167 forward $65 $-1 #
coedge $-1 $168 $67 $169 $170 forward $41 $-1 #
coedge $-1 $67 $168 $171 $172 forward $41 $-1 #
coedge $-1 $173 $174 $67 $106 reversed $175 $-1 #
edge $-1 $176 -30.559416971533771 $177 30.559416971533771 $105 $178 forward 7 unknown #
face $-1 $179 $180 $25 $-1 $181 reversed single #
loop $-1 $-1 $182 $68 #
plane-surface $-1 -58.195135349589528 0 0 1 0 0 0 0 -1 forward_v I I I I #
coedge $-1 $183 $184 $185 $186 forward $69 $-1 #
coedge $-1 $185 $71 $182 $187 reversed $44 $-1 #
coedge $-1 $71 $185 $188 $189 reversed $44 $-1 #
coedge $-1 $190 $191 $71 $114 reversed $180 $-1 #
edge $-1 $192 -58.195135349589528 $193 58.195135349589528 $113 $194 forward 7 unknown #
face $-1 $195 $196 $26 $-1 $197 reversed single #
loop $-1 $-1 $198 $72 #
plane-surface $-1 0 35.353672308428763 4.7348616961026853 0 0 1 1 0 0 forward_v I I I I #
coedge $-1 $199 $200 $119 $201 forward $73 $-1 #
coedge $-1 $202 $75 $118 $201 reversed $47 $-1 #
coedge $-1 $75 $202 $203 $204 reversed $47 $-1 #
coedge $-1 $205 $198 $75 $122 reversed $116 $-1 #
edge $-1 $206 -58.195135349589528 $207 58.195135349589528 $121 $208 forward 7 unknown #
face $-1 $209 $210 $27 $-1 $211 reversed single #
loop $-1 $-1 $212 $76 #
plane-surface $-1 -143.3175916198112 -12.057607860965071 83.958059720358634 0 -1 0 0.73135370988377701 0 -0.68199835119979291 forward_v I I I I #
coedge $-1 $213 $214 $215 $216 reversed $77 $-1 #
coedge $-1 $128 $79 $217 $218 reversed $50 $-1 #
coedge $-1 $79 $127 $213 $219 reversed $50 $-1 #
coedge $-1 $215 $220 $79 $130 forward $221 $-1 #
edge $-1 $222 13.463660460316071 $223 17.495412288258962 $129 $224 forward 7 unknown #
loop $-1 $-1 $136 $80 #
plane-surface $-1 -58.195135349589521 -16.514257079354429 4.5800870078209499 -0.73135370988377701 0 0.68199835119979291 0.68199835119979291 0 0.73135370988377701 forward_v I I I I #
loop $-1 $-1 $225 $52 #
coedge $-1 $134 $134 $135 $226 reversed $81 $-1 #
coedge $-1 $135 $135 $134 $226 forward $83 $-1 #
coedge $-1 $136 $136 $84 $137 forward $131 $-1 #
edge $-1 $227 0 $227 6.2831853071796004 $136 $228 forward 7 unknown #
loop $-1 $-1 $143 $85 #
plane-surface $-1 -58.195135349589521 -16.514257079354429 4.5800870078209499 -0.73135370988377701 0 0.68199835119979291 0.68199835119979291 0 0.73135370988377701 forward_v I I I I #
loop $-1 $-1 $229 $55 #
coedge $-1 $141 $141 $142 $230 reversed $86 $-1 #
coedge $-1 $142 $142 $141 $230 forward $88 $-1 #
coedge $-1 $143 $143 $89 $144 forward $138 $-1 #
edge $-1 $231 0 $231 6.2831853071796004 $143 $232 forward 7 unknown #
face $-1 $233 $234 $30 $-1 $235 forward single #
loop $-1 $-1 $236 $90 #
plane-surface $-1 21.168035808096484 -11.391078416313128 161.57093244570737 0 1 0 0.52991927123019833 0 0.84804809178421925 forward_v I I I I #
coedge $-1 $237 $238 $239 $240 reversed $91 $-1 #
coedge $-1 $150 $93 $241 $242 reversed $59 $-1 #
coedge $-1 $93 $149 $237 $243 reversed $59 $-1 #
coedge $-1 $239 $244 $93 $152 forward $234 $-1 #
edge $-1 $245 -47.611117445541282 $246 -35.265059178002844 $151 $247 forward 7 unknown #
loop $-1 $-1 $158 $94 #
plane-surface $-1 -40.509411619097989 -7.142651086609547 62.866385477019847 0.52991927123019833 0 0.84804809178421925 0.84804809178421925 0 -0.52991927123019833 forward_v I I I I #
loop $-1 $-1 $248 $61 #
coedge $-1 $156 $156 $157 $249 reversed $95 $-1 #
coedge $-1 $157 $157 $156 $249 forward $97 $-1 #
coedge $-1 $158 $158 $98 $159 forward $153 $-1 #
edge $-1 $250 0 $250 6.2831853071796004 $158 $251 forward 7 unknown #
face $-1 $252 $253 $24 $-1 $254 reversed single #
loop $-1 $-1 $255 $99 #
plane-surface $-1 -58.195135349589528 0 0 1 0 0 0 0 -1 forward_v I I I I #
coedge $-1 $256 $171 $257 $258 forward $100 $-1 #
coedge $-1 $259 $102 $256 $260 forward $65 $-1 #
coedge $-1 $102 $259 $261 $262 forward $65 $-1 #
coedge $-1 $174 $173 $102 $167 reversed $175 $-1 #
edge $-1 $263 -30.559416971533771 $264 30.559416971533771 $166 $265 forward 7 unknown #
coedge $-1 $104 $103 $266 $267 forward $41 $-1 #
coedge $-1 $268 $269 $103 $170 reversed $253 $-1 #
edge $-1 $177 -58.195135349589528 $270 58.195135349589528 $169 $271 forward 7 unknown #
coedge $-1 $163 $272 $104 $172 reversed $100 $-1 #
edge $-1 $273 -58.195135349589528 $176 58.195135349589528 $171 $274 forward 7 unknown #
coedge $-1 $166 $105 $272 $275 forward $175 $-1 #
coedge $-1 $105 $166 $268 $276 reversed $175 $-1 #
loop $-1 $-1 $173 $252 #
vertex $-1 $106 $277 #
vertex $-1 $106 $278 #
straight-curve $-1 58.195135349589528 0 8.9036116197344466 0 1 0 I I #
face $-1 $279 $280 $25 $-1 $281 reversed single #
loop $-1 $-1 $190 $107 #
plane-surface $-1 0 -35.353672308428763 4.7348616961026853 0 0 1 1 0 0 forward_v I I I I #
coedge $-1 $282 $283 $111 $187 forward $108 $-1 #
coedge $-1 $284 $110 $283 $285 forward $69 $-1 #
coedge $-1 $110 $284 $286 $287 forward $69 $-1 #
coedge $-1 $112 $111 $110 $186 reversed $44 $-1 #
edge $-1 $288 -58.195135349589528 $289 58.195135349589528 $110 $290 forward 7 unknown #
edge $-1 $289 -8.9036116197344466 $193 -4.7348616961026853 $182 $291 forward 7 unknown #
coedge $-1 $286 $292 $112 $189 forward $293 $-1 #
edge $-1 $192 4.7348616961026853 $288 8.9036116197344466 $188 $294 forward 7 unknown #
coedge $-1 $295 $113 $292 $296 forward $180 $-1 #
coedge $-1 $113 $295 $282 $297 forward $180 $-1 #
vertex $-1 $189 $298 #
vertex $-1 $187 $299 #
straight-curve $-1 0 -30.559416971533771 4.7348616961026853 -1 0 0 I I #
face $-1 $300 $301 $26 $-1 $302 forward single #
loop $-1 $-1 $303 $115 #
plane-surface $-1 0 40.147927645323755 6.8192366579185659 0 -1 0 0 0 -1 forward_v I I I I #
coedge $-1 $121 $304 $199 $305 forward $116 $-1 #
coedge $-1 $306 $118 $198 $305 reversed $73 $-1 #
coedge $-1 $118 $306 $307 $308 reversed $73 $-1 #
edge $-1 $309 -8.9036116197344466 $207 -4.7348616961026853 $118 $310 forward 7 unknown #
coedge $-1 $120 $119 $311 $312 reversed $47 $-1 #
coedge $-1 $313 $314 $120 $204 forward $315 $-1 #
edge $-1 $206 4.7348616961026853 $316 8.9036116197344466 $203 $317 forward 7 unknown #
coedge $-1 $304 $121 $314 $318 forward $116 $-1 #
vertex $-1 $204 $319 #
vertex $-1 $201 $320 #
straight-curve $-1 0 30.559416971533771 4.7348616961026853 1 0 0 I I #
face $-1 $-1 $221 $27 $-1 $321 forward single #
loop $-1 $-1 $322 $123 #
plane-surface $-1 -58.195135349589528 0 0 1 0 0 0 0 -1 forward_v I I I I #
coedge $-1 $323 $324 $325 $326 reversed $124 $-1 #
coedge $-1 $327 $126 $128 $219 forward $77 $-1 #
coedge $-1 $126 $327 $323 $328 forward $77 $-1 #
coedge $-1 $325 $129 $126 $216 forward $221 $-1 #
edge $-1 $223 -12.713777758066573 $329 -3.800479321287856 $215 $330 forward 7 unknown #
coedge $-1 $331 $332 $127 $218 forward $210 $-1 #
edge $-1 $333 -37.398942852358374 $222 -33.075418240444868 $217 $334 forward 7 unknown #
edge $-1 $223 -5.9116738638005515 $333 1.0692042983031357e-014 $128 $335 forward 7 unknown #
coedge $-1 $129 $325 $331 $336 forward $221 $-1 #
loop $-1 $-1 $325 $209 #
vertex $-1 $218 $337 #
vertex $-1 $130 $338 #
straight-curve $-1 -71.658795809905598 -20.970906297743788 8.9036116197344484 1 0 0 I I #
coedge $-1 $225 $225 $-1 $339 reversed $133 $-1 #
edge $-1 $340 0 $340 6.2831853071796004 $134 $341 forward 7 unknown #
vertex $-1 $137 $342 #
ellipse-curve $-1 -56.179259435618079 -18.424249601521296 6.7418493137776982 -0.73135370988377701 0 0.68199835119979291 0.68199835119979291 0 0.73135370988377701 1 I I #
coedge $-1 $229 $229 $-1 $343 reversed $140 $-1 #
edge $-1 $344 0 $344 6.2831853071796004 $141 $345 forward 7 unknown #
vertex $-1 $144 $346 #
ellipse-curve $-1 -56.179259435618079 -14.604264557187561 6.7418493137776982 -0.73135370988377701 0 0.68199835119979291 0.68199835119979291 0 0.73135370988377701 1 I I #
face $-1 $-1 $347 $30 $-1 $348 reversed single #
loop $-1 $-1 $151 $145 #
plane-surface $-1 0 0 8.9036116197344466 0 0 1 1 0 0 forward_v I I I I #
coedge $-1 $349 $350 $351 $352 reversed $146 $-1 #
coedge $-1 $353 $148 $150 $243 forward $91 $-1 #
coedge $-1 $148 $353 $349 $354 forward $91 $-1 #
coedge $-1 $351 $151 $148 $240 forward $234 $-1 #
edge $-1 $246 -0.6771017863988078 $355 7.8197528730083548 $239 $356 forward 7 unknown #
coedge $-1 $357 $358 $149 $242 forward $347 $-1 #
edge $-1 $359 -79.596528173028304 $245 -71.881854603119237 $241 $360 forward 7 unknown #
edge $-1 $246 101.83206534839121 $359 116.39027069917904 $150 $361 forward 7 unknown #
coedge $-1 $151 $351 $357 $362 forward $234 $-1 #
vertex $-1 $242 $363 #
vertex $-1 $152 $364 #
straight-curve $-1 10.584017904048242 -2.8942237569059657 8.9036116197344484 -1 0 0 I I #
coedge $-1 $248 $248 $-1 $365 reversed $155 $-1 #
edge $-1 $366 0 $366 6.2831853071796004 $156 $367 forward 7 unknown #
vertex $-1 $159 $368 #
ellipse-curve $-1 52.022106215820301 -7.142651086609547 5.0462748347799131 0.52991927123019833 0 0.84804809178421925 0.84804809178421925 0 -0.52991927123019833 1 I I #
face $-1 $-1 $175 $24 $-1 $369 reversed single #
loop $-1 $-1 $268 $160 #
plane-surface $-1 0 30.559416971533771 0 0 -1 0 0 0 -1 forward_v I I I I #
coedge $-1 $370 $266 $269 $371 forward $161 $-1 #
coedge $-1 $272 $163 $164 $260 reversed $100 $-1 #
coedge $-1 $266 $370 $163 $258 reversed $161 $-1 #
edge $-1 $273 -8.9036116197344466 $372 8.9036116197344466 $257 $373 forward 7 unknown #
coedge $-1 $165 $164 $370 $374 forward $65 $-1 #
edge $-1 $264 -58.195135349589528 $372 58.195135349589528 $256 $375 forward 7 unknown #
coedge $-1 $269 $268 $165 $262 reversed $253 $-1 #
edge $-1 $376 -58.195135349589528 $263 58.195135349589528 $261 $377 forward 7 unknown #
vertex $-1 $167 $378 #
vertex $-1 $275 $379 #
straight-curve $-1 58.195135349589528 0 -8.9036116197344466 0 -1 0 I I #
coedge $-1 $255 $257 $168 $267 reversed $161 $-1 #
edge $-1 $270 -30.559416971533771 $273 30.559416971533771 $266 $380 forward 7 unknown #
coedge $-1 $261 $169 $174 $276 forward $253 $-1 #
coedge $-1 $169 $261 $255 $371 reversed $253 $-1 #
vertex $-1 $170 $381 #
straight-curve $-1 0 30.559416971533771 8.9036116197344466 -1 0 0 I I #
coedge $-1 $171 $256 $173 $275 reversed $100 $-1 #
vertex $-1 $267 $382 #
straight-curve $-1 0 -30.559416971533771 8.9036116197344466 1 0 0 I I #
edge $-1 $176 -8.9036116197344466 $264 8.9036116197344466 $173 $383 forward 7 unknown #
edge $-1 $177 -8.9036116197344466 $263 8.9036116197344466 $174 $384 forward 7 unknown #
point $-1 58.195135349589528 -30.559416971533771 8.9036116197344466 #
point $-1 58.195135349589528 30.559416971533771 8.9036116197344466 #
face $-1 $-1 $293 $25 $-1 $385 reversed single #
loop $-1 $-1 $386 $179 #
plane-surface $-1 0 -40.147927645323755 6.8192366579185659 0 1 0 0 0 1 forward_v I I I I #
coedge $-1 $387 $182 $191 $297 reversed $108 $-1 #
coedge $-1 $182 $387 $183 $285 reversed $108 $-1 #
coedge $-1 $184 $183 $388 $389 forward $69 $-1 #
edge $-1 $289 30.559416971533771 $390 40.147927645323755 $283 $391 forward 7 unknown #
coedge $-1 $392 $188 $184 $287 reversed $293 $-1 #
edge $-1 $393 -40.147927645323755 $288 -30.559416971533771 $286 $394 forward 7 unknown #
vertex $-1 $189 $395 #
vertex $-1 $285 $396 #
straight-curve $-1 0 -30.559416971533771 8.9036116197344466 -1 0 0 I I #
straight-curve $-1 -58.195135349589528 -30.559416971533771 0 0 0 -1 I I #
coedge $-1 $188 $392 $190 $296 reversed $293 $-1 #
loop $-1 $-1 $188 $279 #
straight-curve $-1 58.195135349589528 -30.559416971533771 0 0 0 1 I I #
coedge $-1 $191 $190 $397 $398 forward $180 $-1 #
edge $-1 $192 -4.7942553368949916 $399 4.7942553368949916 $292 $400 forward 7 unknown #
edge $-1 $401 -4.7942553368949916 $193 4.7942553368949916 $282 $402 forward 7 unknown #
point $-1 58.195135349589528 -30.559416971533771 4.7348616961026853 #
point $-1 -58.195135349589528 -30.559416971533771 4.7348616961026853 #
face $-1 $-1 $315 $26 $-1 $403 reversed single #
loop $-1 $-1 $311 $195 #
plane-surface $-1 0 0 8.9036116197344466 0 0 1 1 0 0 forward_v I I I I #
coedge $-1 $404 $405 $306 $406 forward $196 $-1 #
coedge $-1 $198 $205 $404 $407 forward $116 $-1 #
edge $-1 $408 -4.7942553368949916 $207 4.7942553368949916 $199 $409 forward 7 unknown #
coedge $-1 $200 $199 $303 $406 reversed $73 $-1 #
coedge $-1 $410 $311 $200 $308 forward $301 $-1 #
edge $-1 $309 30.559416971533771 $411 40.147927645323755 $200 $412 forward 7 unknown #
vertex $-1 $308 $413 #
straight-curve $-1 58.195135349589528 30.559416971533771 0 0 0 -1 I I #
coedge $-1 $307 $414 $202 $312 forward $301 $-1 #
edge $-1 $316 -58.195135349589528 $309 58.195135349589528 $311 $415 forward 7 unknown #
coedge $-1 $416 $203 $414 $417 reversed $315 $-1 #
coedge $-1 $203 $416 $205 $318 reversed $315 $-1 #
loop $-1 $-1 $203 $300 #
vertex $-1 $204 $418 #
straight-curve $-1 -58.195135349589528 30.559416971533771 0 0 0 1 I I #
edge $-1 $206 -4.7942553368949916 $419 4.7942553368949916 $314 $420 forward 7 unknown #
point $-1 -58.195135349589528 30.559416971533771 4.7348616961026853 #
point $-1 58.195135349589528 30.559416971533771 4.7348616961026853 #
plane-surface $-1 0 0 8.9036116197344466 0 0 1 1 0 0 forward_v I I I I #
coedge $-1 $332 $331 $324 $421 forward $210 $-1 #
coedge $-1 $324 $212 $214 $328 reversed $124 $-1 #
coedge $-1 $212 $323 $322 $421 reversed $124 $-1 #
coedge $-1 $220 $215 $212 $326 forward $221 $-1 #
edge $-1 $329 -17.495412288258962 $422 -13.463660460316071 $325 $423 forward 7 unknown #
coedge $-1 $214 $213 $332 $424 reversed $77 $-1 #
edge $-1 $425 -1.0692042983031357e-014 $329 5.9116738638005515 $323 $426 forward 7 unknown #
vertex $-1 $216 $427 #
straight-curve $-1 -54.163383521646637 -8.2571285396772147 8.9036116197344466 0 1 0 I I #
coedge $-1 $322 $217 $220 $336 reversed $210 $-1 #
coedge $-1 $217 $322 $327 $424 forward $210 $-1 #
vertex $-1 $218 $428 #
straight-curve $-1 -58.195135349589528 -20.970906297743788 41.979029860179317 0 0 1 I I #
straight-curve $-1 -58.195135349589521 -20.970906297743788 4.5800870078209499 -0.68199835119979291 0 -0.73135370988377701 I I #
edge $-1 $422 12.057607860965071 $222 20.970906297743788 $331 $429 forward 7 unknown #
point $-1 -58.195135349589528 -20.970906297743788 8.9036116197344466 #
point $-1 -54.163383521646637 -20.970906297743788 8.9036116197344466 #
edge $-1 $430 1 $430 0 $225 $-1 forward 7 unknown #
vertex $-1 $226 $431 #
ellipse-curve $-1 -53.518200604868142 -18.424249601521296 4.2603718692925776 -0.73135370988377701 0 0.68199835119979291 0.68199835119979291 0 0.73135370988377701 1 I I #
point $-1 -55.497261084418291 -18.424249601521296 7.4732030236614797 #
edge $-1 $432 1 $432 0 $229 $-1 forward 7 unknown #
vertex $-1 $230 $433 #
ellipse-curve $-1 -53.518200604868142 -14.604264557187561 4.2603718692925776 -0.73135370988377701 0 0.68199835119979291 0.68199835119979291 0 0.73135370988377701 1 I I #
point $-1 -55.497261084418291 -14.604264557187561 7.4732030236614797 #
loop $-1 $-1 $241 $233 #
plane-surface $-1 58.195135349589528 0 0 -1 0 0 0 0 1 forward_v I I I I #
coedge $-1 $350 $236 $238 $354 reversed $146 $-1 #
coedge $-1 $236 $349 $434 $435 reversed $146 $-1 #
coedge $-1 $244 $239 $236 $352 forward $234 $-1 #
edge $-1 $355 35.265059178002844 $436 47.611117445541282 $351 $437 forward 7 unknown #
coedge $-1 $238 $237 $358 $438 reversed $91 $-1 #
edge $-1 $439 -116.39027069917904 $355 -101.83206534839121 $349 $440 forward 7 unknown #
vertex $-1 $240 $441 #
straight-curve $-1 45.849077082051089 -3.5713255433047735 8.9036116197344484 0 -1 0 I I #
coedge $-1 $434 $241 $244 $362 reversed $347 $-1 #
coedge $-1 $241 $434 $353 $438 forward $347 $-1 #
vertex $-1 $242 $442 #
straight-curve $-1 58.195135349589528 -2.8942237569059657 80.785466222853685 0 0 1 I I #
straight-curve $-1 -40.509411619097989 -2.8942237569059657 62.866385477019847 0.84804809178421925 0 -0.52991927123019833 I I #
edge $-1 $436 -11.391078416313128 $245 -2.8942237569059657 $357 $443 forward 7 unknown #
point $-1 58.195135349589528 -2.8942237569059657 8.9036116197344466 #
point $-1 45.849077082051082 -2.8942237569059657 8.9036116197344484 #
edge $-1 $444 1 $444 0 $248 $-1 forward 7 unknown #
vertex $-1 $249 $445 #
ellipse-curve $-1 50.982855070200507 -7.142651086609547 3.3831253726336721 0.52991927123019833 0 0.84804809178421925 0.84804809178421925 0 -0.52991927123019833 1 I I #
point $-1 52.870154307604523 -7.142651086609547 4.5163555635497081 #
plane-surface $-1 58.195135349589528 0 0 -1 0 0 0 0 1 forward_v I I I I #
coedge $-1 $257 $255 $259 $374 reversed $161 $-1 #
edge $-1 $270 -8.9036116197344466 $376 8.9036116197344466 $269 $446 forward 7 unknown #
vertex $-1 $374 $447 #
straight-curve $-1 -58.195135349589528 -30.559416971533771 0 0 0 -1 I I #
edge $-1 $372 -30.559416971533771 $376 30.559416971533771 $370 $448 forward 7 unknown #
straight-curve $-1 0 -30.559416971533771 -8.9036116197344466 -1 0 0 I I #
vertex $-1 $262 $449 #
straight-curve $-1 0 30.559416971533771 -8.9036116197344466 1 0 0 I I #
point $-1 58.195135349589528 30.559416971533771 -8.9036116197344466 #
point $-1 58.195135349589528 -30.559416971533771 -8.9036116197344466 #
straight-curve $-1 -58.195135349589528 0 8.9036116197344466 0 -1 0 I I #
point $-1 -58.195135349589528 30.559416971533771 8.9036116197344466 #
point $-1 -58.195135349589528 -30.559416971533771 8.9036116197344466 #
straight-curve $-1 58.195135349589528 -30.559416971533771 0 0 0 -1 I I #
straight-curve $-1 58.195135349589528 30.559416971533771 0 0 0 -1 I I #
plane-surface $-1 58.195135349589528 0 0 -1 0 0 0 0 1 forward_v I I I I #
coedge $-1 $397 $388 $387 $450 forward $280 $-1 #
coedge $-1 $283 $282 $386 $450 reversed $108 $-1 #
coedge $-1 $386 $451 $284 $389 reversed $280 $-1 #
edge $-1 $390 -58.195135349589528 $393 58.195135349589528 $388 $452 forward 7 unknown #
vertex $-1 $285 $453 #
straight-curve $-1 -58.195135349589528 0 8.9036116197344466 0 -1 0 I I #
coedge $-1 $292 $286 $451 $454 forward $293 $-1 #
vertex $-1 $287 $455 #
straight-curve $-1 58.195135349589528 0 8.9036116197344466 0 1 0 I I #
point $-1 58.195135349589528 -30.559416971533771 8.9036116197344466 #
point $-1 -58.195135349589528 -30.559416971533771 8.9036116197344466 #
coedge $-1 $451 $386 $295 $398 reversed $280 $-1 #
edge $-1 $399 -58.195135349589528 $401 58.195135349589528 $397 $456 forward 7 unknown #
vertex $-1 $454 $457 #
straight-curve $-1 58.195135349589528 -35.353672308428763 4.7348616961026853 0 -1 0 I I #
vertex $-1 $297 $458 #
straight-curve $-1 -58.195135349589528 -35.353672308428763 4.7348616961026853 0 1 0 I I #
plane-surface $-1 -58.195135349589528 0 0 1 0 0 0 0 -1 forward_v I I I I #
coedge $-1 $459 $303 $304 $407 reversed $196 $-1 #
coedge $-1 $303 $459 $410 $460 reversed $196 $-1 #
edge $-1 $411 -2.0843749618158807 $408 2.0843749618158807 $306 $461 forward 7 unknown #
edge $-1 $419 -58.195135349589528 $408 58.195135349589528 $404 $462 forward 7 unknown #
vertex $-1 $305 $463 #
straight-curve $-1 58.195135349589528 35.353672308428763 4.7348616961026853 0 -1 0 I I #
coedge $-1 $414 $307 $405 $460 forward $301 $-1 #
vertex $-1 $308 $464 #
straight-curve $-1 58.195135349589528 0 8.9036116197344466 0 1 0 I I #
point $-1 58.195135349589528 30.559416971533771 8.9036116197344466 #
coedge $-1 $311 $410 $313 $417 forward $301 $-1 #
straight-curve $-1 0 30.559416971533771 8.9036116197344466 1 0 0 I I #
coedge $-1 $314 $313 $459 $465 forward $315 $-1 #
edge $-1 $466 -40.147927645323755 $316 -30.559416971533771 $313 $467 forward 7 unknown #
point $-1 -58.195135349589528 30.559416971533771 8.9036116197344466 #
vertex $-1 $407 $468 #
straight-curve $-1 -58.195135349589528 35.353672308428763 4.7348616961026853 0 1 0 I I #
edge $-1 $422 33.075418240444868 $425 37.398942852358374 $322 $469 forward 7 unknown #
vertex $-1 $336 $470 #
straight-curve $-1 -71.658795809905598 -12.057607860965071 8.9036116197344484 -1 0 0 I I #
edge $-1 $425 3.800479321287856 $333 12.713777758066573 $332 $471 forward 7 unknown #
vertex $-1 $424 $472 #
straight-curve $-1 -58.195135349589521 -12.057607860965071 4.5800870078209499 0.68199835119979291 0 0.73135370988377701 I I #
point $-1 -54.163383521646637 -12.057607860965071 8.9036116197344466 #
point $-1 -58.195135349589528 -20.970906297743788 4.5800870078209419 #
straight-curve $-1 -58.195135349589528 0 8.9036116197344466 0 -1 0 I I #
vertex $-1 $339 $473 #
point $-1 -52.836202253668347 -18.424249601521296 4.9917255791763546 #
vertex $-1 $343 $474 #
point $-1 -52.836202253668347 -14.604264557187561 4.9917255791763546 #
coedge $-1 $358 $357 $350 $435 forward $347 $-1 #
edge $-1 $436 71.881854603119237 $439 79.596528173028304 $434 $475 forward 7 unknown #
vertex $-1 $362 $476 #
straight-curve $-1 10.584017904048242 -11.391078416313128 8.9036116197344484 1 0 0 I I #
edge $-1 $439 -7.8197528730083548 $359 0.6771017863988078 $358 $477 forward 7 unknown #
vertex $-1 $438 $478 #
straight-curve $-1 -40.509411619097989 -11.391078416313128 62.866385477019847 -0.84804809178421925 0 0.52991927123019833 I I #
point $-1 45.849077082051082 -11.391078416313128 8.9036116197344484 #
point $-1 58.195135349589521 -2.8942237569059657 1.1889380498253814 #
straight-curve $-1 58.195135349589528 0 8.9036116197344466 0 1 0 I I #
vertex $-1 $365 $479 #
point $-1 51.830903161984729 -7.142651086609547 2.8532061014034737 #
straight-curve $-1 -58.195135349589528 30.559416971533771 0 0 0 -1 I I #
point $-1 -58.195135349589528 -30.559416971533771 -8.9036116197344466 #
straight-curve $-1 -58.195135349589528 0 -8.9036116197344466 0 1 0 I I #
point $-1 -58.195135349589528 30.559416971533771 -8.9036116197344466 #
edge $-1 $390 -2.0843749618158807 $401 2.0843749618158807 $387 $480 forward 7 unknown #
coedge $-1 $388 $397 $392 $454 reversed $280 $-1 #
straight-curve $-1 0 -40.147927645323755 8.9036116197344466 1 0 0 I I #
point $-1 -58.195135349589528 -40.147927645323755 8.9036116197344466 #
edge $-1 $393 -2.0843749618158807 $399 2.0843749618158807 $392 $481 forward 7 unknown #
point $-1 58.195135349589528 -40.147927645323755 8.9036116197344466 #
straight-curve $-1 0 -40.147927645323755 4.7348616961026853 -1 0 0 I I #
point $-1 58.195135349589528 -40.147927645323755 4.7348616961026853 #
point $-1 -58.195135349589528 -40.147927645323755 4.7348616961026853 #
coedge $-1 $405 $404 $416 $465 reversed $196 $-1 #
edge $-1 $411 -58.195135349589528 $466 58.195135349589528 $405 $482 forward 7 unknown #
straight-curve $-1 58.195135349589528 40.147927645323755 6.8192366579185659 0 0 -1 I I #
straight-curve $-1 0 40.147927645323755 4.7348616961026853 1 0 0 I I #
point $-1 58.195135349589528 40.147927645323755 4.7348616961026853 #
point $-1 58.195135349589528 40.147927645323755 8.9036116197344466 #
edge $-1 $466 -2.0843749618158807 $419 2.0843749618158807 $459 $483 forward 7 unknown #
vertex $-1 $460 $484 #
straight-curve $-1 -58.195135349589528 0 8.9036116197344466 0 -1 0 I I #
point $-1 -58.195135349589528 40.147927645323755 4.7348616961026853 #
straight-curve $-1 -58.195135349589528 -12.057607860965071 41.979029860179317 0 0 -1 I I #
point $-1 -58.195135349589528 -12.057607860965071 8.9036116197344466 #
straight-curve $-1 -58.195135349589528 -8.2571285396772147 4.580087007820941 0 -1 0 I I #
point $-1 -58.195135349589528 -12.057607860965071 4.5800870078209419 #
point $-1 -52.786846894984365 -18.424249601521296 3.5783735180927847 #
point $-1 -52.786846894984365 -14.604264557187561 3.5783735180927847 #
straight-curve $-1 58.195135349589528 -11.391078416313128 80.785466222853685 0 0 -1 I I #
point $-1 58.195135349589528 -11.391078416313128 8.9036116197344466 #
straight-curve $-1 58.195135349589528 -3.5713255433047735 1.1889380498253779 0 1 0 I I #
point $-1 58.195135349589521 -11.391078416313128 1.1889380498253814 #
point $-1 50.452935798970309 -7.142651086609547 2.5350772808494524 #
straight-curve $-1 -58.195135349589528 -40.147927645323755 6.8192366579185659 0 0 -1 I I #
straight-curve $-1 58.195135349589528 -40.147927645323755 6.8192366579185659 0 0 -1 I I #
straight-curve $-1 0 40.147927645323755 8.9036116197344466 -1 0 0 I I #
straight-curve $-1 -58.195135349589528 40.147927645323755 6.8192366579185659 0 0 -1 I I #
point $-1 -58.195135349589528 40.147927645323755 8.9036116197344466 #
End-of-ACIS-data 