500 0 11 0           
7 Unknown 11 ACIS 5.0 NT 24 Thu Mar 25 23:41:21 1999 
-1 9.9999999999999995e-007 1e-010 
body $-1 $11 $-1 $12 #
body $-1 $13 $-1 $14 #
body $-1 $15 $-1 $16 #
body $-1 $17 $-1 $18 #
body $-1 $19 $-1 $20 #
body $-1 $21 $-1 $22 #
body $-1 $23 $-1 $24 #
body $-1 $25 $-1 $26 #
body $-1 $27 $-1 $28 #
body $-1 $29 $-1 $30 #
body $-1 $31 $-1 $32 #
lump $-1 $-1 $33 $0 #
transform $-1 1 0 0 0 1 0 0 0 1 71.900387585070348 45.154812642043922 19.750459006532111 1 rotate no_reflect no_shear #
lump $-1 $-1 $34 $1 #
transform $-1 1 0 0 0 1 0 0 0 1 71.900387585070348 45.154812642043922 19.750459006532111 1 rotate no_reflect no_shear #
lump $-1 $-1 $35 $2 #
transform $-1 1 0 0 0 1 0 0 0 1 71.900387585070348 45.154812642043922 19.750459006532111 1 rotate no_reflect no_shear #
lump $-1 $-1 $36 $3 #
transform $-1 1 0 0 0 1 0 0 0 1 71.900387585070348 45.154812642043922 19.750459006532111 1 rotate no_reflect no_shear #
lump $-1 $-1 $37 $4 #
transform $-1 1 0 0 0 1 0 0 0 1 71.900387585070348 45.154812642043922 19.750459006532111 1 rotate no_reflect no_shear #
lump $-1 $-1 $38 $5 #
transform $-1 1 0 0 0 1 0 0 0 1 71.900387585070348 45.154812642043922 19.750459006532111 1 rotate no_reflect no_shear #
lump $-1 $-1 $39 $6 #
transform $-1 1 0 0 0 1 0 0 0 1 71.900387585070348 45.154812642043922 19.750459006532111 1 rotate no_reflect no_shear #
lump $-1 $-1 $40 $7 #
transform $-1 1 0 0 0 1 0 0 0 1 71.900387585070348 45.154812642043922 19.750459006532111 1 rotate no_reflect no_shear #
lump $-1 $-1 $41 $8 #
transform $-1 1 0 0 0 1 0 0 0 1 71.900387585070348 45.154812642043922 19.750459006532111 1 rotate no_reflect no_shear #
lump $-1 $-1 $42 $9 #
transform $-1 1 0 0 0 1 0 0 0 1 71.900387585070348 45.154812642043922 19.750459006532111 1 rotate no_reflect no_shear #
lump $-1 $-1 $43 $10 #
transform $-1 1 0 0 0 1 0 0 0 1 71.900387585070348 45.154812642043922 19.750459006532111 1 rotate no_reflect no_shear #
shell $-1 $-1 $-1 $44 $-1 $11 #
shell $-1 $-1 $-1 $45 $-1 $13 #
shell $-1 $-1 $-1 $46 $-1 $15 #
shell $-1 $-1 $-1 $47 $-1 $17 #
shell $-1 $-1 $-1 $48 $-1 $19 #
shell $-1 $-1 $-1 $49 $-1 $21 #
shell $-1 $-1 $-1 $50 $-1 $23 #
shell $-1 $-1 $-1 $51 $-1 $25 #
shell $-1 $-1 $-1 $52 $-1 $27 #
shell $-1 $-1 $-1 $53 $-1 $29 #
shell $-1 $-1 $-1 $54 $-1 $31 #
face $-1 $55 $56 $33 $-1 $57 forward single #
face $-1 $58 $59 $34 $-1 $60 reversed single #
face $-1 $61 $62 $35 $-1 $63 forward single #
face $-1 $64 $65 $36 $-1 $66 reversed single #
face $-1 $67 $68 $37 $-1 $69 forward single #
face $-1 $70 $71 $38 $-1 $72 reversed single #
face $-1 $73 $74 $39 $-1 $75 forward single #
face $-1 $76 $77 $40 $-1 $78 reversed single #
face $-1 $79 $80 $41 $-1 $81 forward single #
face $-1 $82 $83 $42 $-1 $84 reversed single #
face $-1 $85 $86 $43 $-1 $87 forward single #
face $-1 $88 $89 $33 $-1 $90 reversed single #
loop $-1 $-1 $91 $44 #
plane-surface $-1 0 0 19.750459006532111 0 0 1 1 0 0 forward_v I I I I #
face $-1 $92 $93 $34 $-1 $94 reversed single #
loop $-1 $-1 $95 $45 #
plane-surface $-1 -61.281033454529165 0 9.0401130460514736 0 0 1 1 0 0 forward_v I I I I #
face $-1 $96 $97 $35 $-1 $98 reversed single #
loop $-1 $-1 $99 $46 #
plane-surface $-1 59.062999103932327 0 3.7639983592661883 0 0 1 1 0 0 forward_v I I I I #
face $-1 $100 $101 $36 $-1 $102 reversed single #
loop $-1 $-1 $103 $47 #
plane-surface $-1 -30.996271051808296 124.53512670346105 163.57886601770062 -1 0 0 0 0.86602541151947299 0.49999998660252726 forward_v I I I I #
face $-1 $104 $105 $37 $-1 $106 forward single #
loop $-1 $107 $108 $48 #
cone-surface $-1 -38.575874892549955 42.018875009328966 15.845788210604649 0 -0.86602541151947299 -0.49999998660252726 1 0 0 1 I I 0 1 1 forward I I I I #
face $-1 $109 $110 $38 $-1 $111 reversed single #
loop $-1 $-1 $112 $49 #
plane-surface $-1 -6.7577106905062188 124.53512670346105 163.57886601770062 -1 0 0 0 0.86602541151947299 0.49999998660252726 forward_v I I I I #
face $-1 $113 $114 $39 $-1 $115 forward single #
loop $-1 $116 $117 $50 #
cone-surface $-1 -14.337314531247884 42.018875009328966 15.845788210604649 0 -0.86602541151947299 -0.49999998660252726 1 0 0 1 I I 0 1 1 forward I I I I #
face $-1 $118 $119 $40 $-1 $120 reversed single #
loop $-1 $-1 $121 $51 #
plane-surface $-1 17.480849670795859 124.53512670346105 163.57886601770062 -1 0 0 0 0.86602541151947299 0.49999998660252726 forward_v I I I I #
face $-1 $122 $123 $41 $-1 $124 forward single #
loop $-1 $125 $126 $52 #
cone-surface $-1 9.9012458300541937 42.018875009328966 15.845788210604649 0 -0.86602541151947299 -0.49999998660252726 1 0 0 1 I I 0 1 1 forward I I I I #
face $-1 $127 $128 $42 $-1 $129 reversed single #
loop $-1 $-1 $130 $53 #
plane-surface $-1 41.71941003209794 124.53512670346105 163.57886601770062 -1 0 0 0 0.86602541151947299 0.49999998660252726 forward_v I I I I #
face $-1 $131 $132 $43 $-1 $133 forward single #
loop $-1 $134 $135 $54 #
cone-surface $-1 34.139806191356271 42.018875009328966 15.845788210604649 0 -0.86602541151947299 -0.49999998660252726 1 0 0 1 I I 0 1 1 forward I I I I #
face $-1 $136 $137 $33 $-1 $138 reversed single #
loop $-1 $-1 $139 $55 #
plane-surface $-1 0 0 -19.750459006532111 0 0 1 1 0 0 forward_v I I I I #
coedge $-1 $140 $141 $142 $143 forward $56 $-1 #
face $-1 $144 $145 $34 $-1 $146 reversed single #
loop $-1 $-1 $147 $58 #
plane-surface $-1 -50.661679323987983 0 14.395286026291792 -1 0 0 0 0 1 forward_v I I I I #
coedge $-1 $148 $149 $150 $151 forward $59 $-1 #
face $-1 $152 $153 $35 $-1 $154 reversed single #
loop $-1 $-1 $155 $61 #
plane-surface $-1 59.062999103932327 0 -7.4844868816194881 0 0 1 1 0 0 forward_v I I I I #
coedge $-1 $156 $157 $158 $159 reversed $62 $-1 #
face $-1 $160 $161 $36 $-1 $162 reversed single #
loop $-1 $-1 $163 $64 #
plane-surface $-1 -38.575874892549948 1.2099207395976919e-006 91.678480359197238 0 0.86602541151947299 0.49999998660252726 1 0 0 forward_v I I I I #
coedge $-1 $164 $165 $166 $167 reversed $65 $-1 #
face $-1 $-1 $168 $37 $-1 $169 forward single #
loop $-1 $170 $171 $67 #
cone-surface $-1 -38.575874892549955 40.263499883617641 14.83232194545414 0 -0.86602541151947299 -0.49999998660252726 0.5 0 0 1 I I -0.70710678118654746 0.70710678118654746 0.5 forward I I I I #
loop $-1 $-1 $172 $48 #
coedge $-1 $108 $108 $173 $174 reversed $68 $-1 #
face $-1 $175 $176 $38 $-1 $177 reversed single #
loop $-1 $-1 $178 $70 #
plane-surface $-1 -14.33731453124787 1.2099207395976919e-006 91.678480359197238 0 0.86602541151947299 0.49999998660252726 1 0 0 forward_v I I I I #
coedge $-1 $179 $180 $181 $182 reversed $71 $-1 #
face $-1 $-1 $183 $39 $-1 $184 forward single #
loop $-1 $185 $186 $73 #
cone-surface $-1 -14.337314531247884 40.263499883617641 14.83232194545414 0 -0.86602541151947299 -0.49999998660252726 0.5 0 0 1 I I -0.70710678118654746 0.70710678118654746 0.5 forward I I I I #
loop $-1 $-1 $187 $50 #
coedge $-1 $117 $117 $188 $189 reversed $74 $-1 #
face $-1 $190 $191 $40 $-1 $192 reversed single #
loop $-1 $-1 $193 $76 #
plane-surface $-1 9.9012458300542079 1.2099207395976919e-006 91.678480359197238 0 0.86602541151947299 0.49999998660252726 1 0 0 forward_v I I I I #
coedge $-1 $194 $195 $196 $197 reversed $77 $-1 #
face $-1 $-1 $198 $41 $-1 $199 forward single #
loop $-1 $200 $201 $79 #
cone-surface $-1 9.9012458300541937 40.263499883617641 14.83232194545414 0 -0.86602541151947299 -0.49999998660252726 0.5 0 0 1 I I -0.70710678118654746 0.70710678118654746 0.5 forward I I I I #
loop $-1 $-1 $202 $52 #
coedge $-1 $126 $126 $203 $204 reversed $80 $-1 #
face $-1 $205 $206 $42 $-1 $207 reversed single #
loop $-1 $-1 $208 $82 #
plane-surface $-1 34.139806191356286 1.2099207395976919e-006 91.678480359197238 0 0.86602541151947299 0.49999998660252726 1 0 0 forward_v I I I I #
coedge $-1 $209 $210 $211 $212 reversed $83 $-1 #
face $-1 $-1 $213 $43 $-1 $214 forward single #
loop $-1 $215 $216 $85 #
cone-surface $-1 34.139806191356271 40.263499883617641 14.83232194545414 0 -0.86602541151947299 -0.49999998660252726 0.5 0 0 1 I I -0.70710678118654746 0.70710678118654746 0.5 forward I I I I #
loop $-1 $-1 $217 $54 #
coedge $-1 $135 $135 $218 $219 reversed $86 $-1 #
face $-1 $220 $221 $33 $-1 $222 reversed single #
loop $-1 $-1 $223 $88 #
plane-surface $-1 0 -45.154812642043922 0 0 1 0 0 0 1 forward_v I I I I #
coedge $-1 $224 $225 $226 $227 forward $89 $-1 #
coedge $-1 $228 $91 $229 $230 forward $56 $-1 #
coedge $-1 $91 $228 $231 $232 forward $56 $-1 #
coedge $-1 $233 $234 $91 $143 reversed $235 $-1 #
edge $-1 $236 -45.154812642043922 $237 45.154812642043922 $142 $238 forward 7 unknown #
face $-1 $239 $240 $34 $-1 $241 reversed single #
loop $-1 $-1 $242 $92 #
plane-surface $-1 0 45.154812642043922 0 0 -1 0 0 0 -1 forward_v I I I I #
coedge $-1 $150 $243 $244 $245 reversed $93 $-1 #
coedge $-1 $246 $95 $247 $248 reversed $59 $-1 #
coedge $-1 $95 $246 $249 $250 reversed $59 $-1 #
coedge $-1 $251 $147 $95 $151 reversed $93 $-1 #
edge $-1 $252 -45.154812642043922 $253 45.154812642043922 $150 $254 forward 7 unknown #
face $-1 $255 $256 $35 $-1 $257 reversed single #
loop $-1 $-1 $258 $96 #
plane-surface $-1 46.225610622794292 0 -1.8602442611766499 1 0 0 0 0 -1 forward_v I I I I #
coedge $-1 $259 $260 $261 $262 reversed $97 $-1 #
coedge $-1 $263 $99 $264 $265 reversed $62 $-1 #
coedge $-1 $99 $263 $266 $267 reversed $62 $-1 #
coedge $-1 $268 $269 $99 $159 forward $270 $-1 #
edge $-1 $271 -45.154812642043922 $272 45.154812642043922 $158 $273 forward 7 unknown #
face $-1 $274 $275 $36 $-1 $276 reversed single #
loop $-1 $-1 $277 $100 #
plane-surface $-1 -46.155478733291602 124.53512670346105 163.57886601770062 1 0 0 0 -0.86602541151947299 -0.49999998660252726 forward_v I I I I #
coedge $-1 $278 $279 $280 $281 reversed $101 $-1 #
coedge $-1 $165 $103 $282 $283 reversed $65 $-1 #
coedge $-1 $103 $164 $278 $284 reversed $65 $-1 #
coedge $-1 $280 $285 $103 $167 forward $275 $-1 #
edge $-1 $286 62.038974002318199 $287 68.321383050474651 $166 $288 forward 7 unknown #
loop $-1 $-1 $173 $104 #
plane-surface $-1 -38.575874892549948 1.2099207395976919e-006 91.678480359197238 0 0.86602541151947299 0.49999998660252726 1 0 0 forward_v I I I I #
loop $-1 $-1 $289 $67 #
coedge $-1 $171 $171 $172 $290 reversed $105 $-1 #
coedge $-1 $172 $172 $171 $290 forward $107 $-1 #
coedge $-1 $173 $173 $108 $174 forward $168 $-1 #
edge $-1 $291 4.0286868415173986e-015 $291 6.2831853071796049 $173 $292 forward 7 unknown #
face $-1 $293 $294 $38 $-1 $295 forward single #
loop $-1 $-1 $296 $109 #
plane-surface $-1 -21.916918371989521 124.53512670346105 163.57886601770062 1 0 0 0 -0.86602541151947299 -0.49999998660252726 forward_v I I I I #
coedge $-1 $297 $298 $299 $300 reversed $110 $-1 #
coedge $-1 $180 $112 $301 $302 reversed $71 $-1 #
coedge $-1 $112 $179 $297 $303 reversed $71 $-1 #
coedge $-1 $299 $304 $112 $182 forward $305 $-1 #
edge $-1 $306 62.038974002318199 $307 68.321383050474651 $181 $308 forward 7 unknown #
loop $-1 $-1 $188 $113 #
plane-surface $-1 -14.33731453124787 1.2099207395976919e-006 91.678480359197238 0 0.86602541151947299 0.49999998660252726 1 0 0 forward_v I I I I #
loop $-1 $-1 $309 $73 #
coedge $-1 $186 $186 $187 $310 reversed $114 $-1 #
coedge $-1 $187 $187 $186 $310 forward $116 $-1 #
coedge $-1 $188 $188 $117 $189 forward $183 $-1 #
edge $-1 $311 4.0286868415173986e-015 $311 6.2831853071796049 $188 $312 forward 7 unknown #
face $-1 $313 $314 $40 $-1 $315 forward single #
loop $-1 $-1 $316 $118 #
plane-surface $-1 2.3216419893125568 124.53512670346105 163.57886601770062 1 0 0 0 -0.86602541151947299 -0.49999998660252726 forward_v I I I I #
coedge $-1 $317 $318 $319 $320 reversed $119 $-1 #
coedge $-1 $195 $121 $321 $322 reversed $77 $-1 #
coedge $-1 $121 $194 $317 $323 reversed $77 $-1 #
coedge $-1 $319 $324 $121 $197 forward $325 $-1 #
edge $-1 $326 62.038974002318199 $327 68.321383050474651 $196 $328 forward 7 unknown #
loop $-1 $-1 $203 $122 #
plane-surface $-1 9.9012458300542079 1.2099207395976919e-006 91.678480359197238 0 0.86602541151947299 0.49999998660252726 1 0 0 forward_v I I I I #
loop $-1 $-1 $329 $79 #
coedge $-1 $201 $201 $202 $330 reversed $123 $-1 #
coedge $-1 $202 $202 $201 $330 forward $125 $-1 #
coedge $-1 $203 $203 $126 $204 forward $198 $-1 #
edge $-1 $331 4.0286868415173986e-015 $331 6.2831853071796049 $203 $332 forward 7 unknown #
face $-1 $333 $334 $42 $-1 $335 forward single #
loop $-1 $-1 $336 $127 #
plane-surface $-1 26.560202350614635 124.53512670346105 163.57886601770062 1 0 0 0 -0.86602541151947299 -0.49999998660252726 forward_v I I I I #
coedge $-1 $337 $338 $339 $340 reversed $128 $-1 #
coedge $-1 $210 $130 $341 $342 reversed $83 $-1 #
coedge $-1 $130 $209 $337 $343 reversed $83 $-1 #
coedge $-1 $339 $344 $130 $212 forward $345 $-1 #
edge $-1 $346 62.038974002318199 $347 68.321383050474651 $211 $348 forward 7 unknown #
loop $-1 $-1 $218 $131 #
plane-surface $-1 34.139806191356286 1.2099207395976919e-006 91.678480359197238 0 0.86602541151947299 0.49999998660252726 1 0 0 forward_v I I I I #
loop $-1 $-1 $349 $85 #
coedge $-1 $216 $216 $217 $350 reversed $132 $-1 #
coedge $-1 $217 $217 $216 $350 forward $134 $-1 #
coedge $-1 $218 $218 $135 $219 forward $213 $-1 #
edge $-1 $351 4.0286868415173986e-015 $351 6.2831853071796049 $218 $352 forward 7 unknown #
face $-1 $353 $354 $33 $-1 $355 reversed single #
loop $-1 $-1 $356 $136 #
plane-surface $-1 -71.900387585070348 0 0 1 0 0 0 0 -1 forward_v I I I I #
coedge $-1 $357 $231 $358 $359 forward $137 $-1 #
coedge $-1 $360 $139 $357 $361 forward $89 $-1 #
coedge $-1 $139 $360 $362 $363 forward $89 $-1 #
coedge $-1 $234 $233 $139 $227 reversed $235 $-1 #
edge $-1 $364 -45.154812642043922 $365 45.154812642043922 $226 $366 forward 7 unknown #
coedge $-1 $141 $140 $367 $368 forward $56 $-1 #
coedge $-1 $369 $370 $140 $230 reversed $354 $-1 #
edge $-1 $237 -71.900387585070348 $371 71.900387585070348 $229 $372 forward 7 unknown #
coedge $-1 $223 $373 $141 $232 reversed $137 $-1 #
edge $-1 $374 -71.900387585070348 $236 71.900387585070348 $231 $375 forward 7 unknown #
coedge $-1 $226 $142 $373 $376 forward $235 $-1 #
coedge $-1 $142 $226 $369 $377 reversed $235 $-1 #
loop $-1 $-1 $233 $353 #
vertex $-1 $143 $378 #
vertex $-1 $143 $379 #
straight-curve $-1 71.900387585070348 0 19.750459006532111 0 1 0 I I #
face $-1 $380 $381 $34 $-1 $382 forward single #
loop $-1 $-1 $383 $144 #
plane-surface $-1 -71.900387585070348 0 0 1 0 0 0 0 -1 forward_v I I I I #
coedge $-1 $249 $384 $251 $385 forward $145 $-1 #
coedge $-1 $147 $251 $386 $387 reversed $93 $-1 #
coedge $-1 $388 $247 $147 $245 forward $389 $-1 #
edge $-1 $253 1.8424700329055774 $390 12.552815993386215 $244 $391 forward 7 unknown #
coedge $-1 $149 $148 $383 $392 reversed $59 $-1 #
coedge $-1 $244 $393 $148 $248 forward $389 $-1 #
edge $-1 $394 -41.259870857805765 $253 -20.0211625967234 $247 $395 forward 7 unknown #
coedge $-1 $396 $242 $149 $250 forward $145 $-1 #
edge $-1 $252 20.0211625967234 $397 41.259870857805765 $249 $398 forward 7 unknown #
coedge $-1 $243 $150 $242 $385 reversed $93 $-1 #
vertex $-1 $250 $399 #
vertex $-1 $248 $400 #
straight-curve $-1 -50.661679323987983 0 9.0401130460514736 0 -1 0 I I #
face $-1 $401 $402 $35 $-1 $403 reversed single #
loop $-1 $-1 $266 $152 #
plane-surface $-1 0 -45.154812642043922 0 0 1 0 0 0 1 forward_v I I I I #
coedge $-1 $404 $405 $406 $407 reversed $153 $-1 #
coedge $-1 $408 $155 $409 $410 reversed $97 $-1 #
coedge $-1 $155 $408 $411 $412 reversed $97 $-1 #
coedge $-1 $269 $268 $155 $262 forward $270 $-1 #
edge $-1 $413 -45.154812642043922 $414 45.154812642043922 $261 $415 forward 7 unknown #
coedge $-1 $157 $156 $405 $416 forward $62 $-1 #
coedge $-1 $417 $406 $156 $265 forward $402 $-1 #
edge $-1 $418 16.694111070828129 $271 42.368888033104199 $264 $419 forward 7 unknown #
coedge $-1 $420 $421 $157 $267 forward $256 $-1 #
edge $-1 $272 -42.368888033104199 $422 -16.694111070828129 $266 $423 forward 7 unknown #
coedge $-1 $261 $158 $421 $424 forward $270 $-1 #
coedge $-1 $158 $261 $417 $425 reversed $270 $-1 #
loop $-1 $-1 $158 $401 #
vertex $-1 $425 $426 #
vertex $-1 $424 $427 #
straight-curve $-1 71.900387585070348 0 3.7639983592661883 0 -1 0 I I #
face $-1 $-1 $428 $36 $-1 $429 forward single #
loop $-1 $-1 $166 $160 #
plane-surface $-1 0 45.154812642043922 0 0 -1 0 0 0 -1 forward_v I I I I #
coedge $-1 $430 $431 $432 $433 reversed $161 $-1 #
coedge $-1 $434 $163 $165 $284 forward $101 $-1 #
coedge $-1 $163 $434 $430 $435 forward $101 $-1 #
coedge $-1 $432 $166 $163 $281 forward $275 $-1 #
edge $-1 $287 11.708333605533323 $436 26.867541287016628 $280 $437 forward 7 unknown #
coedge $-1 $438 $439 $164 $283 forward $428 $-1 #
edge $-1 $440 -20.739901135213337 $286 -17.112750709686601 $282 $441 forward 7 unknown #
edge $-1 $287 -90.309625284087844 $440 -83.055324238655771 $165 $442 forward 7 unknown #
coedge $-1 $166 $432 $438 $443 reversed $275 $-1 #
vertex $-1 $443 $444 #
vertex $-1 $167 $445 #
straight-curve $-1 -30.996271051808296 45.154812642043922 81.78943300885031 0 0 -1 I I #
coedge $-1 $289 $289 $-1 $446 reversed $170 $-1 #
edge $-1 $447 0 $447 6.2831853071796004 $171 $448 forward 7 unknown #
vertex $-1 $174 $449 #
ellipse-curve $-1 -38.575874892549955 43.341237429280547 16.609254482453892 0 0.86602541151947299 0.49999998660252726 1 0 0 1 I I #
face $-1 $-1 $305 $38 $-1 $450 reversed single #
loop $-1 $-1 $451 $175 #
plane-surface $-1 0 0 19.750459006532111 0 0 1 1 0 0 forward_v I I I I #
coedge $-1 $452 $453 $454 $455 reversed $176 $-1 #
coedge $-1 $456 $178 $180 $303 forward $110 $-1 #
coedge $-1 $178 $456 $452 $457 forward $110 $-1 #
coedge $-1 $454 $181 $178 $300 forward $305 $-1 #
edge $-1 $307 -0.41094657511771615 $458 14.748261106365586 $299 $459 forward 7 unknown #
coedge $-1 $460 $461 $179 $302 forward $294 $-1 #
edge $-1 $462 -20.739901135213337 $306 -17.112750709686601 $301 $463 forward 7 unknown #
edge $-1 $307 -90.309625284087844 $462 -83.055324238655771 $180 $464 forward 7 unknown #
coedge $-1 $181 $454 $460 $465 reversed $305 $-1 #
loop $-1 $-1 $454 $293 #
vertex $-1 $465 $466 #
vertex $-1 $182 $467 #
straight-curve $-1 -6.7577106905062188 45.154812642043922 81.78943300885031 0 0 -1 I I #
coedge $-1 $309 $309 $-1 $468 reversed $185 $-1 #
edge $-1 $469 0 $469 6.2831853071796004 $186 $470 forward 7 unknown #
vertex $-1 $189 $471 #
ellipse-curve $-1 -14.337314531247884 43.341237429280547 16.609254482453892 0 0.86602541151947299 0.49999998660252726 1 0 0 1 I I #
face $-1 $-1 $325 $40 $-1 $472 reversed single #
loop $-1 $-1 $473 $190 #
plane-surface $-1 0 0 19.750459006532111 0 0 1 1 0 0 forward_v I I I I #
coedge $-1 $474 $475 $476 $477 reversed $191 $-1 #
coedge $-1 $478 $193 $195 $323 forward $119 $-1 #
coedge $-1 $193 $478 $474 $479 forward $119 $-1 #
coedge $-1 $476 $196 $193 $320 forward $325 $-1 #
edge $-1 $327 -12.530226755768755 $480 2.6289809257145471 $319 $481 forward 7 unknown #
coedge $-1 $482 $483 $194 $322 forward $314 $-1 #
edge $-1 $484 -20.739901135213337 $326 -17.112750709686601 $321 $485 forward 7 unknown #
edge $-1 $327 -90.309625284087844 $484 -83.055324238655771 $195 $486 forward 7 unknown #
coedge $-1 $196 $476 $482 $487 reversed $325 $-1 #
loop $-1 $-1 $476 $313 #
vertex $-1 $487 $488 #
vertex $-1 $197 $489 #
straight-curve $-1 17.480849670795859 45.154812642043922 81.78943300885031 0 0 -1 I I #
coedge $-1 $329 $329 $-1 $490 reversed $200 $-1 #
edge $-1 $491 0 $491 6.2831853071796004 $201 $492 forward 7 unknown #
vertex $-1 $204 $493 #
ellipse-curve $-1 9.9012458300541937 43.341237429280547 16.609254482453892 0 0.86602541151947299 0.49999998660252726 1 0 0 1 I I #
face $-1 $-1 $345 $42 $-1 $494 reversed single #
loop $-1 $-1 $495 $205 #
plane-surface $-1 0 0 19.750459006532111 0 0 1 1 0 0 forward_v I I I I #
coedge $-1 $496 $497 $498 $499 reversed $206 $-1 #
coedge $-1 $500 $208 $210 $343 forward $128 $-1 #
coedge $-1 $208 $500 $496 $501 forward $128 $-1 #
coedge $-1 $498 $211 $208 $340 forward $345 $-1 #
edge $-1 $347 -24.649506936419797 $502 -9.4902992549364917 $339 $503 forward 7 unknown #
coedge $-1 $504 $505 $209 $342 forward $334 $-1 #
edge $-1 $506 -20.739901135213337 $346 -17.112750709686601 $341 $507 forward 7 unknown #
edge $-1 $347 -90.309625284087844 $506 -83.055324238655771 $210 $508 forward 7 unknown #
coedge $-1 $211 $498 $504 $509 reversed $345 $-1 #
loop $-1 $-1 $498 $333 #
vertex $-1 $509 $510 #
vertex $-1 $212 $511 #
straight-curve $-1 41.71941003209794 45.154812642043922 81.78943300885031 0 0 -1 I I #
coedge $-1 $349 $349 $-1 $512 reversed $215 $-1 #
edge $-1 $513 0 $513 6.2831853071796004 $216 $514 forward 7 unknown #
vertex $-1 $219 $515 #
ellipse-curve $-1 34.139806191356271 43.341237429280547 16.609254482453892 0 0.86602541151947299 0.49999998660252726 1 0 0 1 I I #
face $-1 $-1 $235 $33 $-1 $516 reversed single #
loop $-1 $-1 $369 $220 #
plane-surface $-1 0 45.154812642043922 0 0 -1 0 0 0 -1 forward_v I I I I #
coedge $-1 $517 $367 $370 $518 forward $221 $-1 #
coedge $-1 $373 $223 $224 $361 reversed $137 $-1 #
coedge $-1 $367 $517 $223 $359 reversed $221 $-1 #
edge $-1 $374 -19.750459006532111 $519 19.750459006532111 $358 $520 forward 7 unknown #
coedge $-1 $225 $224 $517 $521 forward $89 $-1 #
edge $-1 $365 -71.900387585070348 $519 71.900387585070348 $357 $522 forward 7 unknown #
coedge $-1 $370 $369 $225 $363 reversed $354 $-1 #
edge $-1 $523 -71.900387585070348 $364 71.900387585070348 $362 $524 forward 7 unknown #
vertex $-1 $227 $525 #
vertex $-1 $376 $526 #
straight-curve $-1 71.900387585070348 0 -19.750459006532111 0 -1 0 I I #
coedge $-1 $356 $358 $228 $368 reversed $221 $-1 #
edge $-1 $371 -45.154812642043922 $374 45.154812642043922 $367 $527 forward 7 unknown #
coedge $-1 $362 $229 $234 $377 forward $354 $-1 #
coedge $-1 $229 $362 $356 $518 reversed $354 $-1 #
vertex $-1 $230 $528 #
straight-curve $-1 0 45.154812642043922 19.750459006532111 -1 0 0 I I #
coedge $-1 $231 $357 $233 $376 reversed $137 $-1 #
vertex $-1 $368 $529 #
straight-curve $-1 0 -45.154812642043922 19.750459006532111 1 0 0 I I #
edge $-1 $236 -19.750459006532111 $365 19.750459006532111 $233 $530 forward 7 unknown #
edge $-1 $237 -19.750459006532111 $364 19.750459006532111 $234 $531 forward 7 unknown #
point $-1 71.900387585070348 -45.154812642043922 19.750459006532111 #
point $-1 71.900387585070348 45.154812642043922 19.750459006532111 #
face $-1 $-1 $389 $34 $-1 $532 reversed single #
loop $-1 $-1 $386 $239 #
plane-surface $-1 0 0 19.750459006532111 0 0 1 1 0 0 forward_v I I I I #
coedge $-1 $533 $534 $246 $392 forward $240 $-1 #
coedge $-1 $242 $396 $535 $536 reversed $145 $-1 #
edge $-1 $537 -12.552815993386215 $252 -1.8424700329055774 $242 $538 forward 7 unknown #
coedge $-1 $535 $539 $243 $387 forward $381 $-1 #
edge $-1 $390 -45.154812642043922 $537 45.154812642043922 $386 $540 forward 7 unknown #
coedge $-1 $393 $244 $539 $541 reversed $389 $-1 #
loop $-1 $-1 $244 $380 #
vertex $-1 $245 $542 #
straight-curve $-1 -50.661679323987983 -45.154812642043922 7.1976430131458962 0 0 1 I I #
edge $-1 $397 -45.154812642043922 $394 45.154812642043922 $383 $543 forward 7 unknown #
coedge $-1 $247 $388 $533 $544 forward $389 $-1 #
vertex $-1 $392 $545 #
straight-curve $-1 -30.640516727264583 -45.154812642043922 9.0401130460514736 1 0 0 I I #
coedge $-1 $384 $249 $534 $546 reversed $145 $-1 #
vertex $-1 $392 $547 #
straight-curve $-1 -30.640516727264583 45.154812642043922 9.0401130460514736 -1 0 0 I I #
point $-1 -50.661679323987983 45.154812642043922 9.0401130460514736 #
point $-1 -50.661679323987983 -45.154812642043922 9.0401130460514736 #
face $-1 $-1 $270 $35 $-1 $548 reversed single #
loop $-1 $-1 $264 $255 #
plane-surface $-1 0 45.154812642043922 0 0 -1 0 0 0 -1 forward_v I I I I #
coedge $-1 $549 $258 $408 $550 reversed $153 $-1 #
coedge $-1 $258 $549 $263 $416 reversed $153 $-1 #
coedge $-1 $264 $411 $258 $407 forward $402 $-1 #
edge $-1 $551 -6.5543647510311631 $418 4.6941204898545132 $406 $552 forward 7 unknown #
coedge $-1 $260 $259 $404 $550 forward $97 $-1 #
coedge $-1 $421 $420 $259 $410 forward $256 $-1 #
edge $-1 $553 16.694111070828129 $413 42.368888033104199 $409 $554 forward 7 unknown #
coedge $-1 $406 $417 $260 $412 forward $402 $-1 #
edge $-1 $414 -42.368888033104199 $551 -16.694111070828129 $411 $555 forward 7 unknown #
vertex $-1 $262 $556 #
vertex $-1 $262 $557 #
straight-curve $-1 71.900387585070348 0 -7.4844868816194881 0 1 0 I I #
edge $-1 $418 -45.154812642043922 $422 45.154812642043922 $405 $558 forward 7 unknown #
coedge $-1 $411 $264 $269 $425 forward $402 $-1 #
vertex $-1 $265 $559 #
straight-curve $-1 29.531499551966164 45.154812642043922 3.7639983592661883 1 0 0 I I #
coedge $-1 $409 $266 $549 $560 forward $256 $-1 #
coedge $-1 $266 $409 $268 $424 reversed $256 $-1 #
vertex $-1 $267 $561 #
straight-curve $-1 29.531499551966164 -45.154812642043922 3.7639983592661883 -1 0 0 I I #
edge $-1 $272 -3.7639983592661883 $413 7.4844868816194881 $268 $562 forward 7 unknown #
edge $-1 $271 -3.7639983592661883 $414 7.4844868816194881 $269 $563 forward 7 unknown #
point $-1 71.900387585070362 45.154812642043922 3.7639983592661883 #
point $-1 71.900387585070362 -45.154812642043922 3.7639983592661883 #
loop $-1 $-1 $282 $274 #
plane-surface $-1 0 0 19.750459006532111 0 0 1 1 0 0 forward_v I I I I #
coedge $-1 $431 $277 $279 $435 reversed $161 $-1 #
coedge $-1 $277 $430 $564 $565 reversed $161 $-1 #
coedge $-1 $285 $280 $277 $433 forward $275 $-1 #
edge $-1 $436 -68.321383050474651 $566 -62.038974002318199 $432 $567 forward 7 unknown #
coedge $-1 $279 $278 $439 $568 reversed $101 $-1 #
edge $-1 $569 83.055324238655771 $436 90.309625284087844 $430 $570 forward 7 unknown #
vertex $-1 $281 $571 #
straight-curve $-1 -19.287937446274974 45.154812642043922 13.468049958375651 -1 0 0 I I #
coedge $-1 $564 $282 $285 $443 forward $428 $-1 #
coedge $-1 $282 $564 $434 $568 forward $428 $-1 #
vertex $-1 $283 $572 #
straight-curve $-1 -30.996271051808296 62.267563351730523 19.750459006532111 0 1 0 I I #
straight-curve $-1 -30.996271051808296 1.2099207395976919e-006 91.678480359197238 0 -0.49999998660252726 0.86602541151947299 I I #
edge $-1 $286 30.996271051808296 $566 46.155478733291602 $285 $573 forward 7 unknown #
point $-1 -30.996271051808296 45.154812642043922 19.750459006532111 #
point $-1 -30.996271051808296 45.154812642043922 13.468049958375659 #
edge $-1 $574 1 $574 0 $289 $-1 forward 7 unknown #
vertex $-1 $290 $575 #
ellipse-curve $-1 -38.575874892549955 40.696512589377377 15.082321938755404 0 0.86602541151947299 0.49999998660252726 1 0 0 1 I I #
point $-1 -37.575874892549955 43.341237429280561 16.609254482453895 #
plane-surface $-1 0 45.154812642043922 0 0 -1 0 0 0 -1 forward_v I I I I #
coedge $-1 $461 $460 $453 $576 forward $294 $-1 #
coedge $-1 $453 $296 $298 $457 reversed $176 $-1 #
coedge $-1 $296 $452 $451 $576 reversed $176 $-1 #
coedge $-1 $304 $299 $296 $455 forward $305 $-1 #
edge $-1 $458 -68.321383050474651 $577 -62.038974002318199 $454 $578 forward 7 unknown #
coedge $-1 $298 $297 $461 $579 reversed $110 $-1 #
edge $-1 $580 83.055324238655771 $458 90.309625284087844 $452 $581 forward 7 unknown #
vertex $-1 $300 $582 #
straight-curve $-1 -7.1686572656239349 45.154812642043922 13.468049958375651 -1 0 0 I I #
coedge $-1 $451 $301 $304 $465 forward $294 $-1 #
coedge $-1 $301 $451 $456 $579 forward $294 $-1 #
vertex $-1 $302 $583 #
straight-curve $-1 -6.7577106905062188 62.267563351730523 19.750459006532111 0 1 0 I I #
straight-curve $-1 -6.7577106905062188 1.2099207395976919e-006 91.678480359197238 0 -0.49999998660252726 0.86602541151947299 I I #
edge $-1 $306 6.7577106905062188 $577 21.916918371989521 $304 $584 forward 7 unknown #
point $-1 -6.7577106905062188 45.154812642043922 19.750459006532111 #
point $-1 -6.7577106905062188 45.154812642043922 13.468049958375659 #
edge $-1 $585 1 $585 0 $309 $-1 forward 7 unknown #
vertex $-1 $310 $586 #
ellipse-curve $-1 -14.337314531247884 40.696512589377377 15.082321938755404 0 0.86602541151947299 0.49999998660252726 1 0 0 1 I I #
point $-1 -13.337314531247884 43.341237429280561 16.609254482453895 #
plane-surface $-1 0 45.154812642043922 0 0 -1 0 0 0 -1 forward_v I I I I #
coedge $-1 $483 $482 $475 $587 forward $314 $-1 #
coedge $-1 $475 $316 $318 $479 reversed $191 $-1 #
coedge $-1 $316 $474 $473 $587 reversed $191 $-1 #
coedge $-1 $324 $319 $316 $477 forward $325 $-1 #
edge $-1 $480 -68.321383050474651 $588 -62.038974002318199 $476 $589 forward 7 unknown #
coedge $-1 $318 $317 $483 $590 reversed $119 $-1 #
edge $-1 $591 83.055324238655771 $480 90.309625284087844 $474 $592 forward 7 unknown #
vertex $-1 $320 $593 #
straight-curve $-1 4.9506229150271039 45.154812642043922 13.468049958375651 -1 0 0 I I #
coedge $-1 $473 $321 $324 $487 forward $314 $-1 #
coedge $-1 $321 $473 $478 $590 forward $314 $-1 #
vertex $-1 $322 $594 #
straight-curve $-1 17.480849670795859 62.267563351730523 19.750459006532111 0 1 0 I I #
straight-curve $-1 17.480849670795859 1.2099207395976919e-006 91.678480359197238 0 -0.49999998660252726 0.86602541151947299 I I #
edge $-1 $326 -17.480849670795859 $588 -2.3216419893125568 $324 $595 forward 7 unknown #
point $-1 17.480849670795859 45.154812642043922 19.750459006532111 #
point $-1 17.480849670795859 45.154812642043922 13.468049958375659 #
edge $-1 $596 1 $596 0 $329 $-1 forward 7 unknown #
vertex $-1 $330 $597 #
ellipse-curve $-1 9.9012458300541937 40.696512589377377 15.082321938755404 0 0.86602541151947299 0.49999998660252726 1 0 0 1 I I #
point $-1 10.901245830054194 43.341237429280561 16.609254482453895 #
plane-surface $-1 0 45.154812642043922 0 0 -1 0 0 0 -1 forward_v I I I I #
coedge $-1 $505 $504 $497 $598 forward $334 $-1 #
coedge $-1 $497 $336 $338 $501 reversed $206 $-1 #
coedge $-1 $336 $496 $495 $598 reversed $206 $-1 #
coedge $-1 $344 $339 $336 $499 forward $345 $-1 #
edge $-1 $502 -68.321383050474651 $599 -62.038974002318199 $498 $600 forward 7 unknown #
coedge $-1 $338 $337 $505 $601 reversed $128 $-1 #
edge $-1 $602 83.055324238655771 $502 90.309625284087844 $496 $603 forward 7 unknown #
vertex $-1 $340 $604 #
straight-curve $-1 17.069903095678143 45.154812642043922 13.468049958375651 -1 0 0 I I #
coedge $-1 $495 $341 $344 $509 forward $334 $-1 #
coedge $-1 $341 $495 $500 $601 forward $334 $-1 #
vertex $-1 $342 $605 #
straight-curve $-1 41.71941003209794 62.267563351730523 19.750459006532111 0 1 0 I I #
straight-curve $-1 41.71941003209794 1.2099207395976919e-006 91.678480359197238 0 -0.49999998660252726 0.86602541151947299 I I #
edge $-1 $346 -41.71941003209794 $599 -26.560202350614635 $344 $606 forward 7 unknown #
point $-1 41.71941003209794 45.154812642043922 19.750459006532111 #
point $-1 41.71941003209794 45.154812642043922 13.468049958375659 #
edge $-1 $607 1 $607 0 $349 $-1 forward 7 unknown #
vertex $-1 $350 $608 #
ellipse-curve $-1 34.139806191356271 40.696512589377377 15.082321938755404 0 0.86602541151947299 0.49999998660252726 1 0 0 1 I I #
point $-1 35.139806191356271 43.341237429280561 16.609254482453895 #
plane-surface $-1 71.900387585070348 0 0 -1 0 0 0 0 1 forward_v I I I I #
coedge $-1 $358 $356 $360 $521 reversed $221 $-1 #
edge $-1 $371 -19.750459006532111 $523 19.750459006532111 $370 $609 forward 7 unknown #
vertex $-1 $521 $610 #
straight-curve $-1 -71.900387585070348 -45.154812642043922 0 0 0 -1 I I #
edge $-1 $519 -45.154812642043922 $523 45.154812642043922 $517 $611 forward 7 unknown #
straight-curve $-1 0 -45.154812642043922 -19.750459006532111 -1 0 0 I I #
vertex $-1 $363 $612 #
straight-curve $-1 0 45.154812642043922 -19.750459006532111 1 0 0 I I #
point $-1 71.900387585070348 45.154812642043922 -19.750459006532111 #
point $-1 71.900387585070348 -45.154812642043922 -19.750459006532111 #
straight-curve $-1 -71.900387585070348 0 19.750459006532111 0 -1 0 I I #
point $-1 -71.900387585070348 45.154812642043922 19.750459006532111 #
point $-1 -71.900387585070348 -45.154812642043922 19.750459006532111 #
straight-curve $-1 71.900387585070348 -45.154812642043922 0 0 0 -1 I I #
straight-curve $-1 71.900387585070348 45.154812642043922 0 0 0 -1 I I #
plane-surface $-1 0 -45.154812642043922 0 0 1 0 0 0 1 forward_v I I I I #
coedge $-1 $613 $383 $393 $544 reversed $240 $-1 #
coedge $-1 $383 $613 $396 $546 forward $240 $-1 #
coedge $-1 $614 $386 $384 $536 forward $381 $-1 #
edge $-1 $537 50.661679323987983 $615 71.900387585070348 $384 $616 forward 7 unknown #
vertex $-1 $536 $617 #
straight-curve $-1 -50.661679323987983 45.154812642043922 7.1976430131458962 0 0 -1 I I #
coedge $-1 $386 $614 $388 $541 forward $381 $-1 #
straight-curve $-1 -50.661679323987983 0 19.750459006532111 0 1 0 I I #
edge $-1 $618 -71.900387585070348 $390 -50.661679323987983 $388 $619 forward 7 unknown #
point $-1 -50.661679323987983 -45.154812642043922 19.750459006532111 #
straight-curve $-1 -71.900387585070348 0 9.0401130460514736 0 -1 0 I I #
edge $-1 $618 -19.750459006532111 $394 -9.0401130460514736 $533 $620 forward 7 unknown #
point $-1 -71.900387585070348 -45.154812642043922 9.0401130460514736 #
edge $-1 $615 -19.750459006532111 $397 -9.0401130460514736 $396 $621 forward 7 unknown #
point $-1 -71.900387585070348 45.154812642043922 9.0401130460514736 #
plane-surface $-1 71.900387585070348 0 0 -1 0 0 0 0 1 forward_v I I I I #
coedge $-1 $405 $404 $420 $560 reversed $153 $-1 #
edge $-1 $553 -45.154812642043922 $551 45.154812642043922 $404 $622 forward 7 unknown #
vertex $-1 $412 $623 #
straight-curve $-1 46.225610622794292 45.154812642043922 -0.93012213058832494 0 0 1 I I #
vertex $-1 $410 $624 #
straight-curve $-1 29.531499551966164 -45.154812642043922 -7.4844868816194881 1 0 0 I I #
straight-curve $-1 29.531499551966164 45.154812642043922 -7.4844868816194881 -1 0 0 I I #
point $-1 71.900387585070362 -45.154812642043922 -7.4844868816194881 #
point $-1 71.900387585070362 45.154812642043922 -7.4844868816194881 #
straight-curve $-1 46.225610622794292 0 3.7639983592661883 0 -1 0 I I #
point $-1 46.225610622794292 45.154812642043922 3.7639983592661883 #
edge $-1 $422 -4.6941204898545132 $553 6.5543647510311631 $420 $625 forward 7 unknown #
point $-1 46.225610622794292 -45.154812642043922 3.7639983592661883 #
straight-curve $-1 71.900387585070348 -45.154812642043922 0 0 0 -1 I I #
straight-curve $-1 71.900387585070348 45.154812642043922 0 0 0 -1 I I #
coedge $-1 $439 $438 $431 $565 forward $428 $-1 #
edge $-1 $566 17.112750709686601 $569 20.739901135213337 $564 $626 forward 7 unknown #
vertex $-1 $565 $627 #
straight-curve $-1 -46.155478733291602 45.154812642043922 81.78943300885031 0 0 1 I I #
edge $-1 $569 -26.867541287016628 $440 -11.708333605533323 $439 $628 forward 7 unknown #
vertex $-1 $568 $629 #
straight-curve $-1 -46.155478733291602 1.2099207395976919e-006 91.678480359197238 0 0.49999998660252726 -0.86602541151947299 I I #
point $-1 -46.155478733291602 45.154812642043922 13.468049958375659 #
point $-1 -30.996271051808296 41.527662216517186 19.750459006532111 #
straight-curve $-1 0 45.154812642043922 19.750459006532111 -1 0 0 I I #
vertex $-1 $446 $630 #
point $-1 -37.575874892549955 40.696512589377377 15.082321938755404 #
edge $-1 $577 17.112750709686601 $580 20.739901135213337 $451 $631 forward 7 unknown #
vertex $-1 $576 $632 #
straight-curve $-1 -21.916918371989521 45.154812642043922 81.78943300885031 0 0 1 I I #
edge $-1 $580 -14.748261106365586 $462 0.41094657511771615 $461 $633 forward 7 unknown #
vertex $-1 $579 $634 #
straight-curve $-1 -21.916918371989521 1.2099207395976919e-006 91.678480359197238 0 0.49999998660252726 -0.86602541151947299 I I #
point $-1 -21.916918371989521 45.154812642043922 13.468049958375659 #
point $-1 -6.7577106905062188 41.527662216517186 19.750459006532111 #
straight-curve $-1 0 45.154812642043922 19.750459006532111 -1 0 0 I I #
vertex $-1 $468 $635 #
point $-1 -13.337314531247884 40.696512589377377 15.082321938755404 #
edge $-1 $588 17.112750709686601 $591 20.739901135213337 $473 $636 forward 7 unknown #
vertex $-1 $477 $637 #
straight-curve $-1 2.3216419893125568 45.154812642043922 81.78943300885031 0 0 1 I I #
edge $-1 $591 -2.6289809257145471 $484 12.530226755768755 $483 $638 forward 7 unknown #
vertex $-1 $590 $639 #
straight-curve $-1 2.3216419893125568 1.2099207395976919e-006 91.678480359197238 0 0.49999998660252726 -0.86602541151947299 I I #
point $-1 2.3216419893125568 45.154812642043922 13.468049958375659 #
point $-1 17.480849670795859 41.527662216517186 19.750459006532111 #
straight-curve $-1 0 45.154812642043922 19.750459006532111 -1 0 0 I I #
vertex $-1 $490 $640 #
point $-1 10.901245830054194 40.696512589377377 15.082321938755404 #
edge $-1 $599 17.112750709686601 $602 20.739901135213337 $495 $641 forward 7 unknown #
vertex $-1 $499 $642 #
straight-curve $-1 26.560202350614635 45.154812642043922 81.78943300885031 0 0 1 I I #
edge $-1 $602 9.4902992549364917 $506 24.649506936419797 $505 $643 forward 7 unknown #
vertex $-1 $601 $644 #
straight-curve $-1 26.560202350614635 1.2099207395976919e-006 91.678480359197238 0 0.49999998660252726 -0.86602541151947299 I I #
point $-1 26.560202350614635 45.154812642043922 13.468049958375659 #
point $-1 41.71941003209794 41.527662216517186 19.750459006532111 #
straight-curve $-1 0 45.154812642043922 19.750459006532111 -1 0 0 I I #
vertex $-1 $512 $645 #
point $-1 35.139806191356271 40.696512589377377 15.082321938755404 #
straight-curve $-1 -71.900387585070348 45.154812642043922 0 0 0 -1 I I #
point $-1 -71.900387585070348 -45.154812642043922 -19.750459006532111 #
straight-curve $-1 -71.900387585070348 0 -19.750459006532111 0 1 0 I I #
point $-1 -71.900387585070348 45.154812642043922 -19.750459006532111 #
coedge $-1 $534 $533 $614 $646 reversed $240 $-1 #
coedge $-1 $539 $535 $613 $646 forward $381 $-1 #
vertex $-1 $536 $647 #
straight-curve $-1 0 45.154812642043922 19.750459006532111 -1 0 0 I I #
point $-1 -50.661679323987983 45.154812642043922 19.750459006532111 #
vertex $-1 $646 $648 #
straight-curve $-1 0 -45.154812642043922 19.750459006532111 1 0 0 I I #
straight-curve $-1 -71.900387585070348 -45.154812642043922 0 0 0 -1 I I #
straight-curve $-1 -71.900387585070348 45.154812642043922 0 0 0 -1 I I #
straight-curve $-1 46.225610622794292 0 -7.4844868816194881 0 1 0 I I #
point $-1 46.225610622794292 45.154812642043922 -7.4844868816194881 #
point $-1 46.225610622794292 -45.154812642043922 -7.4844868816194881 #
straight-curve $-1 46.225610622794292 -45.154812642043922 -0.93012213058832494 0 0 -1 I I #
straight-curve $-1 -46.155478733291602 62.267563351730523 19.750459006532111 0 -1 0 I I #
point $-1 -46.155478733291602 45.154812642043922 19.750459006532111 #
straight-curve $-1 -19.287937446274974 41.527662216517186 19.750459006532111 1 0 0 I I #
point $-1 -46.155478733291602 41.527662216517186 19.750459006532111 #
point $-1 -38.575874892549955 39.830487177857904 14.582321952152876 #
straight-curve $-1 -21.916918371989521 62.267563351730523 19.750459006532111 0 -1 0 I I #
point $-1 -21.916918371989521 45.154812642043922 19.750459006532111 #
straight-curve $-1 -7.1686572656239349 41.527662216517186 19.750459006532111 1 0 0 I I #
point $-1 -21.916918371989521 41.527662216517186 19.750459006532111 #
point $-1 -14.337314531247884 39.830487177857904 14.582321952152876 #
straight-curve $-1 2.3216419893125568 62.267563351730523 19.750459006532111 0 -1 0 I I #
point $-1 2.3216419893125568 45.154812642043922 19.750459006532111 #
straight-curve $-1 4.9506229150271039 41.527662216517186 19.750459006532111 1 0 0 I I #
point $-1 2.3216419893125568 41.527662216517186 19.750459006532111 #
point $-1 9.9012458300541937 39.830487177857904 14.582321952152876 #
straight-curve $-1 26.560202350614635 62.267563351730523 19.750459006532111 0 -1 0 I I #
point $-1 26.560202350614635 45.154812642043922 19.750459006532111 #
straight-curve $-1 17.069903095678143 41.527662216517186 19.750459006532111 1 0 0 I I #
point $-1 26.560202350614635 41.527662216517186 19.750459006532111 #
point $-1 34.139806191356271 39.830487177857904 14.582321952152876 #
edge $-1 $615 -45.154812642043922 $618 45.154812642043922 $613 $649 forward 7 unknown #
point $-1 -71.900387585070348 45.154812642043922 19.750459006532111 #
point $-1 -71.900387585070348 -45.154812642043922 19.750459006532111 #
straight-curve $-1 -71.900387585070348 0 19.750459006532111 0 -1 0 I I #
End-of-ACIS-data 