500 0 13 0           
7 Unknown 11 ACIS 5.0 NT 24 Fri Mar 26 19:23:40 1999 
-1 9.9999999999999995e-007 1e-010 
body $-1 $13 $-1 $14 #
body $-1 $15 $-1 $16 #
body $-1 $17 $-1 $18 #
body $-1 $19 $-1 $20 #
body $-1 $21 $-1 $22 #
body $-1 $23 $-1 $24 #
body $-1 $25 $-1 $26 #
body $-1 $27 $-1 $28 #
body $-1 $29 $-1 $30 #
body $-1 $31 $-1 $32 #
body $-1 $33 $-1 $34 #
body $-1 $35 $-1 $36 #
body $-1 $37 $-1 $38 #
lump $-1 $-1 $39 $0 #
transform $-1 1 0 0 0 1 0 0 0 1 77.916196172978914 39.207538345852399 11.374457823898219 1 rotate no_reflect no_shear #
lump $-1 $-1 $40 $1 #
transform $-1 1 0 0 0 1 0 0 0 1 77.916196172978914 39.207538345852399 11.374457823898219 1 rotate no_reflect no_shear #
lump $-1 $-1 $41 $2 #
transform $-1 1 0 0 0 1 0 0 0 1 77.916196172978914 39.207538345852399 11.374457823898219 1 rotate no_reflect no_shear #
lump $-1 $-1 $42 $3 #
transform $-1 1 0 0 0 1 0 0 0 1 77.916196172978914 39.207538345852399 11.374457823898219 1 rotate no_reflect no_shear #
lump $-1 $-1 $43 $4 #
transform $-1 1 0 0 0 1 0 0 0 1 77.916196172978914 39.207538345852399 11.374457823898219 1 rotate no_reflect no_shear #
lump $-1 $-1 $44 $5 #
transform $-1 1 0 0 0 1 0 0 0 1 77.916196172978914 39.207538345852399 11.374457823898219 1 rotate no_reflect no_shear #
lump $-1 $-1 $45 $6 #
transform $-1 1 0 0 0 1 0 0 0 1 77.916196172978914 39.207538345852399 11.374457823898219 1 rotate no_reflect no_shear #
lump $-1 $-1 $46 $7 #
transform $-1 1 0 0 0 1 0 0 0 1 77.916196172978914 39.207538345852399 11.374457823898219 1 rotate no_reflect no_shear #
lump $-1 $-1 $47 $8 #
transform $-1 1 0 0 0 1 0 0 0 1 77.916196172978914 39.207538345852399 11.374457823898219 1 rotate no_reflect no_shear #
lump $-1 $-1 $48 $9 #
transform $-1 1 0 0 0 1 0 0 0 1 77.916196172978914 39.207538345852399 11.374457823898219 1 rotate no_reflect no_shear #
lump $-1 $-1 $49 $10 #
transform $-1 1 0 0 0 1 0 0 0 1 77.916196172978914 39.207538345852399 11.374457823898219 1 rotate no_reflect no_shear #
lump $-1 $-1 $50 $11 #
transform $-1 1 0 0 0 1 0 0 0 1 77.916196172978914 39.207538345852399 11.374457823898219 1 rotate no_reflect no_shear #
lump $-1 $-1 $51 $12 #
transform $-1 1 0 0 0 1 0 0 0 1 77.916196172978914 39.207538345852399 11.374457823898219 1 rotate no_reflect no_shear #
shell $-1 $-1 $-1 $52 $-1 $13 #
shell $-1 $-1 $-1 $53 $-1 $15 #
shell $-1 $-1 $-1 $54 $-1 $17 #
shell $-1 $-1 $-1 $55 $-1 $19 #
shell $-1 $-1 $-1 $56 $-1 $21 #
shell $-1 $-1 $-1 $57 $-1 $23 #
shell $-1 $-1 $-1 $58 $-1 $25 #
shell $-1 $-1 $-1 $59 $-1 $27 #
shell $-1 $-1 $-1 $60 $-1 $29 #
shell $-1 $-1 $-1 $61 $-1 $31 #
shell $-1 $-1 $-1 $62 $-1 $33 #
shell $-1 $-1 $-1 $63 $-1 $35 #
shell $-1 $-1 $-1 $64 $-1 $37 #
face $-1 $65 $66 $39 $-1 $67 forward single #
face $-1 $68 $69 $40 $-1 $70 forward single #
face $-1 $71 $72 $41 $-1 $73 forward single #
face $-1 $74 $75 $42 $-1 $76 reversed single #
face $-1 $77 $78 $43 $-1 $79 forward single #
face $-1 $80 $81 $44 $-1 $82 reversed single #
face $-1 $83 $84 $45 $-1 $85 forward single #
face $-1 $86 $87 $46 $-1 $88 forward single #
face $-1 $89 $90 $47 $-1 $91 forward single #
face $-1 $92 $93 $48 $-1 $94 reversed single #
face $-1 $95 $96 $49 $-1 $97 forward single #
face $-1 $98 $99 $50 $-1 $100 forward single #
face $-1 $101 $102 $51 $-1 $103 forward single #
face $-1 $104 $105 $39 $-1 $106 reversed single #
loop $-1 $-1 $107 $52 #
plane-surface $-1 0 0 11.374457823898219 0 0 1 1 0 0 forward_v I I I I #
face $-1 $108 $109 $40 $-1 $110 reversed single #
loop $-1 $-1 $111 $53 #
plane-surface $-1 -77.916196172978914 0 0 1 0 0 0 0 -1 forward_v I I I I #
face $-1 $112 $113 $41 $-1 $114 forward single #
loop $-1 $-1 $115 $54 #
plane-surface $-1 77.916196172978914 0 0 -1 0 0 0 0 1 forward_v I I I I #
face $-1 $116 $117 $42 $-1 $118 reversed single #
loop $-1 $-1 $119 $55 #
plane-surface $-1 -37.294369313275496 -162.0051405610343 98.558374746154755 -1 0 0 0 -0.78801076186113728 0.61566146476048833 forward_v I I I I #
face $-1 $120 $121 $43 $-1 $122 forward single #
loop $-1 $123 $124 $56 #
cone-surface $-1 -53.531076709667559 -34.357354049627787 5.8794253835324826 0 0.78801076186113728 -0.61566146476048833 2 0 0 1 I I 0 1 2 forward I I I I #
face $-1 $125 $126 $44 $-1 $127 reversed single #
loop $-1 $-1 $128 $57 #
plane-surface $-1 -28.204523599858522 73.355616919273189 176.05975170181759 1 0 0 0 -0.61566148304635926 -0.78801074757464917 forward_v I I I I #
face $-1 $129 $130 $45 $-1 $131 forward single #
loop $-1 $132 $133 $58 #
cone-surface $-1 -23.552585672352158 33.96542075291255 6.7038878177089423 0 -0.61566148304635926 -0.78801074757464917 1 0 0 1 I I 0 1 1 forward I I I I #
face $-1 $134 $135 $46 $-1 $136 forward single #
loop $-1 $137 $138 $59 #
cone-surface $-1 -16.574678781092608 33.96542075291255 6.7038878177089423 0 -0.61566148304635926 -0.78801074757464917 1 0 0 1 I I 0 1 1 forward I I I I #
face $-1 $139 $140 $47 $-1 $141 forward single #
loop $-1 $142 $143 $60 #
cone-surface $-1 -9.5967718898330503 33.96542075291255 6.7038878177089423 0 -0.61566148304635926 -0.78801074757464917 1 0 0 1 I I 0 1 1 forward I I I I #
face $-1 $144 $145 $48 $-1 $146 reversed single #
loop $-1 $-1 $147 $61 #
plane-surface $-1 41.56326050620109 73.355616919273189 176.05975170181759 1 0 0 0 -0.61566148304635926 -0.78801074757464917 forward_v I I I I #
face $-1 $148 $149 $49 $-1 $150 forward single #
loop $-1 $151 $152 $62 #
cone-surface $-1 46.215198433707457 33.96542075291255 6.7038878177089423 0 -0.61566148304635926 -0.78801074757464917 1 0 0 1 I I 0 1 1 forward I I I I #
face $-1 $153 $154 $50 $-1 $155 forward single #
loop $-1 $156 $157 $63 #
cone-surface $-1 53.193105324967007 33.96542075291255 6.7038878177089423 0 -0.61566148304635926 -0.78801074757464917 1 0 0 1 I I 0 1 1 forward I I I I #
face $-1 $158 $159 $51 $-1 $160 forward single #
loop $-1 $161 $162 $64 #
cone-surface $-1 60.171012216226586 33.96542075291255 6.7038878177089423 0 -0.61566148304635926 -0.78801074757464917 1 0 0 1 I I 0 1 1 forward I I I I #
face $-1 $163 $164 $39 $-1 $165 reversed single #
loop $-1 $-1 $166 $65 #
plane-surface $-1 0 0 -11.374457823898219 0 0 1 1 0 0 forward_v I I I I #
coedge $-1 $167 $168 $169 $170 forward $66 $-1 #
face $-1 $171 $172 $40 $-1 $173 reversed single #
loop $-1 $-1 $174 $68 #
plane-surface $-1 0 39.207538345852399 0 0 -1 0 0 0 -1 forward_v I I I I #
coedge $-1 $175 $176 $177 $178 forward $69 $-1 #
face $-1 $179 $180 $41 $-1 $181 reversed single #
loop $-1 $-1 $182 $71 #
plane-surface $-1 0 0 11.374457823898219 0 0 1 1 0 0 forward_v I I I I #
coedge $-1 $183 $184 $185 $186 forward $72 $-1 #
face $-1 $187 $188 $42 $-1 $189 reversed single #
loop $-1 $-1 $190 $74 #
plane-surface $-1 -53.531076709667559 -39.207538345852413 2.6183758173112466 0 -0.78801076186113728 0.61566146476048833 1 0 0 forward_v I I I I #
coedge $-1 $191 $192 $193 $194 reversed $75 $-1 #
face $-1 $-1 $195 $43 $-1 $196 forward single #
loop $-1 $197 $198 $77 #
cone-surface $-1 -53.531076709667559 -32.139659405144414 4.1467724816997489 0 0.78801076186113728 -0.61566146476048833 1 0 0 1 I I -0.70710678118654746 0.70710678118654746 1 forward I I I I #
loop $-1 $-1 $199 $56 #
coedge $-1 $124 $124 $200 $201 reversed $78 $-1 #
face $-1 $202 $203 $44 $-1 $204 reversed single #
loop $-1 $-1 $205 $80 #
plane-surface $-1 -16.574678781092601 -22.584384859101334 53.262151712933317 0 0.61566148304635926 0.78801074757464917 1 0 0 forward_v I I I I #
coedge $-1 $206 $207 $208 $209 reversed $81 $-1 #
face $-1 $-1 $210 $45 $-1 $211 forward single #
loop $-1 $212 $213 $83 #
cone-surface $-1 -23.552585672352158 32.504532919732199 4.8340366978192932 0 -0.61566148304635926 -0.78801074757464917 0.5 0 0 1 I I -0.70710678118654746 0.70710678118654746 0.5 forward I I I I #
loop $-1 $-1 $214 $58 #
coedge $-1 $133 $133 $215 $216 reversed $84 $-1 #
face $-1 $-1 $217 $46 $-1 $218 forward single #
loop $-1 $219 $220 $86 #
cone-surface $-1 -16.574678781092608 32.504532919732199 4.8340366978192932 0 -0.61566148304635926 -0.78801074757464917 0.5 0 0 1 I I -0.70710678118654746 0.70710678118654746 0.5 forward I I I I #
loop $-1 $-1 $221 $59 #
coedge $-1 $138 $138 $222 $223 reversed $87 $-1 #
face $-1 $-1 $224 $47 $-1 $225 forward single #
loop $-1 $226 $227 $89 #
cone-surface $-1 -9.5967718898330503 32.504532919732199 4.8340366978192932 0 -0.61566148304635926 -0.78801074757464917 0.5 0 0 1 I I -0.70710678118654746 0.70710678118654746 0.5 forward I I I I #
loop $-1 $-1 $228 $60 #
coedge $-1 $143 $143 $229 $230 reversed $90 $-1 #
face $-1 $231 $232 $48 $-1 $233 reversed single #
loop $-1 $-1 $234 $92 #
plane-surface $-1 53.193105324967007 -22.584384859101334 53.262151712933317 0 0.61566148304635926 0.78801074757464917 1 0 0 forward_v I I I I #
coedge $-1 $235 $236 $237 $238 reversed $93 $-1 #
face $-1 $-1 $239 $49 $-1 $240 forward single #
loop $-1 $241 $242 $95 #
cone-surface $-1 46.215198433707457 32.504532919732199 4.8340366978192932 0 -0.61566148304635926 -0.78801074757464917 0.5 0 0 1 I I -0.70710678118654746 0.70710678118654746 0.5 forward I I I I #
loop $-1 $-1 $243 $62 #
coedge $-1 $152 $152 $244 $245 reversed $96 $-1 #
face $-1 $-1 $246 $50 $-1 $247 forward single #
loop $-1 $248 $249 $98 #
cone-surface $-1 53.193105324967007 32.504532919732199 4.8340366978192932 0 -0.61566148304635926 -0.78801074757464917 0.5 0 0 1 I I -0.70710678118654746 0.70710678118654746 0.5 forward I I I I #
loop $-1 $-1 $250 $63 #
coedge $-1 $157 $157 $251 $252 reversed $99 $-1 #
face $-1 $-1 $253 $51 $-1 $254 forward single #
loop $-1 $255 $256 $101 #
cone-surface $-1 60.171012216226586 32.504532919732199 4.8340366978192932 0 -0.61566148304635926 -0.78801074757464917 0.5 0 0 1 I I -0.70710678118654746 0.70710678118654746 0.5 forward I I I I #
loop $-1 $-1 $257 $64 #
coedge $-1 $162 $162 $258 $259 reversed $102 $-1 #
face $-1 $260 $261 $39 $-1 $262 reversed single #
loop $-1 $-1 $263 $104 #
plane-surface $-1 0 -39.207538345852399 0 0 1 0 0 0 1 forward_v I I I I #
coedge $-1 $264 $265 $266 $267 forward $105 $-1 #
coedge $-1 $268 $107 $269 $270 forward $66 $-1 #
coedge $-1 $107 $268 $271 $272 forward $66 $-1 #
coedge $-1 $273 $274 $107 $170 reversed $275 $-1 #
edge $-1 $276 -39.207538345852399 $277 39.207538345852399 $169 $278 forward 7 unknown #
face $-1 $279 $280 $40 $-1 $281 reversed single #
loop $-1 $-1 $177 $108 #
plane-surface $-1 -81.99040220643856 0 6.851959230151131 0 0 1 1 0 0 forward_v I I I I #
coedge $-1 $282 $283 $175 $284 forward $109 $-1 #
coedge $-1 $285 $111 $174 $284 reversed $69 $-1 #
coedge $-1 $111 $285 $286 $287 reversed $69 $-1 #
coedge $-1 $288 $289 $111 $178 reversed $172 $-1 #
edge $-1 $290 -39.207538345852399 $291 39.207538345852399 $177 $292 forward 7 unknown #
face $-1 $293 $294 $41 $-1 $295 reversed single #
loop $-1 $-1 $296 $112 #
plane-surface $-1 0 -39.207538345852399 0 0 1 0 0 0 1 forward_v I I I I #
coedge $-1 $297 $298 $299 $300 forward $113 $-1 #
coedge $-1 $299 $115 $296 $301 reversed $72 $-1 #
coedge $-1 $115 $299 $302 $303 reversed $72 $-1 #
coedge $-1 $304 $305 $115 $186 reversed $294 $-1 #
edge $-1 $306 -39.207538345852399 $307 39.207538345852399 $185 $308 forward 7 unknown #
face $-1 $309 $310 $42 $-1 $311 reversed single #
loop $-1 $-1 $312 $116 #
plane-surface $-1 -69.767784106059622 -162.0051405610343 98.558374746154755 1 0 0 0 0.78801076186113728 -0.61566146476048833 forward_v I I I I #
coedge $-1 $313 $314 $315 $316 reversed $117 $-1 #
coedge $-1 $192 $119 $317 $318 reversed $75 $-1 #
coedge $-1 $119 $191 $313 $319 reversed $75 $-1 #
coedge $-1 $315 $320 $119 $194 forward $321 $-1 #
edge $-1 $322 41.795031934664749 $323 48.636032761869494 $193 $324 forward 7 unknown #
loop $-1 $-1 $200 $120 #
plane-surface $-1 -53.531076709667559 -39.207538345852413 2.6183758173112466 0 -0.78801076186113728 0.61566146476048833 1 0 0 forward_v I I I I #
loop $-1 $-1 $325 $77 #
coedge $-1 $198 $198 $199 $326 reversed $121 $-1 #
coedge $-1 $199 $199 $198 $326 forward $123 $-1 #
coedge $-1 $200 $200 $124 $201 forward $195 $-1 #
edge $-1 $327 -9.6225478192938529e-016 $327 6.2831853071795996 $200 $328 forward 7 unknown #
face $-1 $329 $330 $44 $-1 $331 reversed single #
loop $-1 $-1 $332 $125 #
plane-surface $-1 -4.9448339623266797 73.355616919273189 176.05975170181759 -1 0 0 0 0.61566148304635926 0.78801074757464917 forward_v I I I I #
coedge $-1 $333 $334 $335 $336 reversed $126 $-1 #
coedge $-1 $207 $128 $337 $338 reversed $81 $-1 #
coedge $-1 $128 $206 $333 $339 reversed $81 $-1 #
coedge $-1 $335 $340 $128 $209 forward $341 $-1 #
edge $-1 $342 -2.5297298862158044 $343 5.6483911163495151 $208 $344 forward 7 unknown #
loop $-1 $-1 $215 $129 #
plane-surface $-1 -16.574678781092601 -22.584384859101334 53.262151712933317 0 0.61566148304635926 0.78801074757464917 1 0 0 forward_v I I I I #
loop $-1 $-1 $345 $83 #
coedge $-1 $213 $213 $214 $346 reversed $130 $-1 #
coedge $-1 $214 $214 $213 $346 forward $132 $-1 #
coedge $-1 $215 $215 $133 $216 forward $210 $-1 #
edge $-1 $347 -4.7674800238898707e-015 $347 6.283185307179596 $215 $348 forward 7 unknown #
loop $-1 $-1 $222 $134 #
plane-surface $-1 -16.574678781092601 -22.584384859101334 53.262151712933317 0 0.61566148304635926 0.78801074757464917 1 0 0 forward_v I I I I #
loop $-1 $-1 $349 $86 #
coedge $-1 $220 $220 $221 $350 reversed $135 $-1 #
coedge $-1 $221 $221 $220 $350 forward $137 $-1 #
coedge $-1 $222 $222 $138 $223 forward $217 $-1 #
edge $-1 $351 -4.7674800238898707e-015 $351 6.283185307179596 $222 $352 forward 7 unknown #
loop $-1 $-1 $229 $139 #
plane-surface $-1 -16.574678781092601 -22.584384859101334 53.262151712933317 0 0.61566148304635926 0.78801074757464917 1 0 0 forward_v I I I I #
loop $-1 $-1 $353 $89 #
coedge $-1 $227 $227 $228 $354 reversed $140 $-1 #
coedge $-1 $228 $228 $227 $354 forward $142 $-1 #
coedge $-1 $229 $229 $143 $230 forward $224 $-1 #
edge $-1 $355 -4.7674800238898707e-015 $355 6.283185307179596 $229 $356 forward 7 unknown #
face $-1 $357 $358 $48 $-1 $359 forward single #
loop $-1 $-1 $360 $144 #
plane-surface $-1 64.822950143732925 73.355616919273189 176.05975170181759 -1 0 0 0 0.61566148304635926 0.78801074757464917 forward_v I I I I #
coedge $-1 $361 $362 $363 $364 reversed $145 $-1 #
coedge $-1 $236 $147 $365 $366 reversed $93 $-1 #
coedge $-1 $147 $235 $361 $367 reversed $93 $-1 #
coedge $-1 $363 $368 $147 $238 forward $358 $-1 #
edge $-1 $369 -2.5297298862158044 $370 5.6483911163495151 $237 $371 forward 7 unknown #
loop $-1 $-1 $244 $148 #
plane-surface $-1 53.193105324967007 -22.584384859101334 53.262151712933317 0 0.61566148304635926 0.78801074757464917 1 0 0 forward_v I I I I #
loop $-1 $-1 $372 $95 #
coedge $-1 $242 $242 $243 $373 reversed $149 $-1 #
coedge $-1 $243 $243 $242 $373 forward $151 $-1 #
coedge $-1 $244 $244 $152 $245 forward $239 $-1 #
edge $-1 $374 -4.7674800238898707e-015 $374 6.283185307179596 $244 $375 forward 7 unknown #
loop $-1 $-1 $251 $153 #
plane-surface $-1 53.193105324967007 -22.584384859101334 53.262151712933317 0 0.61566148304635926 0.78801074757464917 1 0 0 forward_v I I I I #
loop $-1 $-1 $376 $98 #
coedge $-1 $249 $249 $250 $377 reversed $154 $-1 #
coedge $-1 $250 $250 $249 $377 forward $156 $-1 #
coedge $-1 $251 $251 $157 $252 forward $246 $-1 #
edge $-1 $378 -4.7674800238898707e-015 $378 6.283185307179596 $251 $379 forward 7 unknown #
loop $-1 $-1 $258 $158 #
plane-surface $-1 53.193105324967007 -22.584384859101334 53.262151712933317 0 0.61566148304635926 0.78801074757464917 1 0 0 forward_v I I I I #
loop $-1 $-1 $380 $101 #
coedge $-1 $256 $256 $257 $381 reversed $159 $-1 #
coedge $-1 $257 $257 $256 $381 forward $161 $-1 #
coedge $-1 $258 $258 $162 $259 forward $253 $-1 #
edge $-1 $382 -4.7674800238898707e-015 $382 6.283185307179596 $258 $383 forward 7 unknown #
face $-1 $384 $385 $39 $-1 $386 reversed single #
loop $-1 $-1 $387 $163 #
plane-surface $-1 -77.916196172978914 0 0 1 0 0 0 0 -1 forward_v I I I I #
coedge $-1 $388 $271 $389 $390 forward $164 $-1 #
coedge $-1 $391 $166 $388 $392 forward $105 $-1 #
coedge $-1 $166 $391 $393 $394 forward $105 $-1 #
coedge $-1 $274 $273 $166 $267 reversed $275 $-1 #
edge $-1 $395 -39.207538345852399 $396 39.207538345852399 $266 $397 forward 7 unknown #
coedge $-1 $168 $167 $398 $399 forward $66 $-1 #
coedge $-1 $400 $401 $167 $270 reversed $385 $-1 #
edge $-1 $277 -77.916196172978914 $402 77.916196172978914 $269 $403 forward 7 unknown #
coedge $-1 $263 $404 $168 $272 reversed $164 $-1 #
edge $-1 $405 -77.916196172978914 $276 77.916196172978914 $271 $406 forward 7 unknown #
coedge $-1 $266 $169 $404 $407 forward $275 $-1 #
coedge $-1 $169 $266 $400 $408 reversed $275 $-1 #
loop $-1 $-1 $273 $384 #
vertex $-1 $170 $409 #
vertex $-1 $170 $410 #
straight-curve $-1 77.916196172978914 0 11.374457823898219 0 1 0 I I #
face $-1 $411 $412 $40 $-1 $413 forward single #
loop $-1 $-1 $414 $171 #
plane-surface $-1 -86.064608239898206 0 9.1132085270246748 1 0 0 0 0 -1 forward_v I I I I #
coedge $-1 $415 $174 $289 $416 reversed $109 $-1 #
coedge $-1 $174 $415 $417 $418 reversed $109 $-1 #
edge $-1 $419 -11.374457823898219 $291 -6.851959230151131 $174 $420 forward 7 unknown #
coedge $-1 $176 $175 $421 $422 reversed $69 $-1 #
coedge $-1 $423 $424 $176 $287 forward $425 $-1 #
edge $-1 $290 6.851959230151131 $426 11.374457823898219 $286 $427 forward 7 unknown #
coedge $-1 $428 $177 $424 $429 forward $172 $-1 #
coedge $-1 $177 $428 $282 $416 forward $172 $-1 #
vertex $-1 $287 $430 #
vertex $-1 $284 $431 #
straight-curve $-1 -77.916196172978914 0 6.851959230151131 0 1 0 I I #
face $-1 $432 $433 $41 $-1 $434 reversed single #
loop $-1 $-1 $435 $179 #
plane-surface $-1 81.990402206438546 0 6.851959230151131 0 0 1 1 0 0 forward_v I I I I #
coedge $-1 $436 $437 $183 $301 forward $180 $-1 #
coedge $-1 $438 $182 $437 $439 forward $113 $-1 #
coedge $-1 $182 $438 $440 $441 forward $113 $-1 #
coedge $-1 $184 $183 $182 $300 reversed $72 $-1 #
edge $-1 $442 -39.207538345852399 $443 39.207538345852399 $182 $444 forward 7 unknown #
edge $-1 $443 -11.374457823898219 $307 -6.851959230151131 $296 $445 forward 7 unknown #
coedge $-1 $440 $446 $184 $303 forward $447 $-1 #
edge $-1 $306 6.851959230151131 $442 11.374457823898219 $302 $448 forward 7 unknown #
coedge $-1 $435 $185 $446 $449 forward $294 $-1 #
coedge $-1 $185 $435 $436 $450 forward $294 $-1 #
vertex $-1 $303 $451 #
vertex $-1 $301 $452 #
straight-curve $-1 77.916196172978914 0 6.851959230151131 0 -1 0 I I #
face $-1 $-1 $321 $42 $-1 $453 forward single #
loop $-1 $-1 $454 $187 #
plane-surface $-1 0 -39.207538345852399 0 0 1 0 0 0 1 forward_v I I I I #
coedge $-1 $455 $456 $457 $458 reversed $188 $-1 #
coedge $-1 $459 $190 $192 $319 forward $117 $-1 #
coedge $-1 $190 $459 $455 $460 forward $117 $-1 #
coedge $-1 $457 $193 $190 $316 forward $321 $-1 #
edge $-1 $323 10.528830958441716 $461 43.002245751225843 $315 $462 forward 7 unknown #
coedge $-1 $463 $464 $191 $318 forward $310 $-1 #
edge $-1 $465 -46.660811555766109 $322 -37.904729549179159 $317 $466 forward 7 unknown #
edge $-1 $323 -11.11162744263379 $465 -2.3096905769578348e-014 $192 $467 forward 7 unknown #
coedge $-1 $193 $457 $463 $468 forward $321 $-1 #
loop $-1 $-1 $457 $309 #
vertex $-1 $318 $469 #
vertex $-1 $194 $470 #
straight-curve $-1 -37.294369313275496 -81.002570280517148 11.374457823898219 0 1 0 I I #
coedge $-1 $325 $325 $-1 $471 reversed $197 $-1 #
edge $-1 $472 0 $472 6.2831853071796004 $198 $473 forward 7 unknown #
vertex $-1 $201 $474 #
ellipse-curve $-1 -53.531076709667559 -35.78703793225003 6.9964168206047361 0 -0.78801076186113728 0.61566146476048833 2 0 0 1 I I #
face $-1 $-1 $341 $44 $-1 $475 forward single #
loop $-1 $-1 $476 $202 #
plane-surface $-1 0 39.207538345852399 0 0 -1 0 0 0 -1 forward_v I I I I #
coedge $-1 $477 $478 $479 $480 reversed $203 $-1 #
coedge $-1 $481 $205 $207 $339 forward $126 $-1 #
coedge $-1 $205 $481 $477 $482 forward $126 $-1 #
coedge $-1 $479 $208 $205 $336 forward $341 $-1 #
edge $-1 $343 -19.917184209312222 $483 3.3425054282196207 $335 $484 forward 7 unknown #
coedge $-1 $485 $486 $206 $338 forward $330 $-1 #
edge $-1 $487 -83.044866547184441 $342 -76.655418027010569 $337 $488 forward 7 unknown #
edge $-1 $343 68.036892094938736 $487 78.415076691704783 $207 $489 forward 7 unknown #
coedge $-1 $208 $479 $485 $490 forward $341 $-1 #
loop $-1 $-1 $479 $329 #
vertex $-1 $338 $491 #
vertex $-1 $209 $492 #
straight-curve $-1 -28.204523599858522 36.677808459636594 11.374457823898211 0 -1 0 I I #
coedge $-1 $345 $345 $-1 $493 reversed $212 $-1 #
edge $-1 $494 0 $494 6.2831853071796004 $213 $495 forward 7 unknown #
vertex $-1 $216 $496 #
ellipse-curve $-1 -23.552585672352158 35.118477844569739 8.1797335638112862 0 0.61566148304635926 0.78801074757464917 1 0 0 1 I I #
coedge $-1 $349 $349 $-1 $497 reversed $219 $-1 #
edge $-1 $498 0 $498 6.2831853071796004 $220 $499 forward 7 unknown #
vertex $-1 $223 $500 #
ellipse-curve $-1 -16.574678781092608 35.118477844569739 8.1797335638112862 0 0.61566148304635926 0.78801074757464917 1 0 0 1 I I #
coedge $-1 $353 $353 $-1 $501 reversed $226 $-1 #
edge $-1 $502 0 $502 6.2831853071796004 $227 $503 forward 7 unknown #
vertex $-1 $230 $504 #
ellipse-curve $-1 -9.5967718898330503 35.118477844569739 8.1797335638112862 0 0.61566148304635926 0.78801074757464917 1 0 0 1 I I #
face $-1 $-1 $505 $48 $-1 $506 reversed single #
loop $-1 $-1 $237 $231 #
plane-surface $-1 0 0 11.374457823898219 0 0 1 1 0 0 forward_v I I I I #
coedge $-1 $507 $508 $509 $510 reversed $232 $-1 #
coedge $-1 $511 $234 $236 $367 forward $145 $-1 #
coedge $-1 $234 $511 $507 $512 forward $145 $-1 #
coedge $-1 $509 $237 $234 $364 forward $358 $-1 #
edge $-1 $370 14.966707843717586 $513 38.226397481249421 $363 $514 forward 7 unknown #
coedge $-1 $515 $516 $235 $366 forward $505 $-1 #
edge $-1 $517 -83.044866547184441 $369 -76.655418027010569 $365 $518 forward 7 unknown #
edge $-1 $370 68.036892094938736 $517 78.415076691704783 $236 $519 forward 7 unknown #
coedge $-1 $237 $509 $515 $520 forward $358 $-1 #
vertex $-1 $238 $521 #
vertex $-1 $238 $522 #
straight-curve $-1 41.56326050620109 36.677808459636594 11.374457823898211 0 -1 0 I I #
coedge $-1 $372 $372 $-1 $523 reversed $241 $-1 #
edge $-1 $524 0 $524 6.2831853071796004 $242 $525 forward 7 unknown #
vertex $-1 $245 $526 #
ellipse-curve $-1 46.215198433707457 35.118477844569739 8.1797335638112862 0 0.61566148304635926 0.78801074757464917 1 0 0 1 I I #
coedge $-1 $376 $376 $-1 $527 reversed $248 $-1 #
edge $-1 $528 0 $528 6.2831853071796004 $249 $529 forward 7 unknown #
vertex $-1 $252 $530 #
ellipse-curve $-1 53.193105324967007 35.118477844569739 8.1797335638112862 0 0.61566148304635926 0.78801074757464917 1 0 0 1 I I #
coedge $-1 $380 $380 $-1 $531 reversed $255 $-1 #
edge $-1 $532 0 $532 6.2831853071796004 $256 $533 forward 7 unknown #
vertex $-1 $259 $534 #
ellipse-curve $-1 60.171012216226586 35.118477844569739 8.1797335638112862 0 0.61566148304635926 0.78801074757464917 1 0 0 1 I I #
face $-1 $-1 $275 $39 $-1 $535 reversed single #
loop $-1 $-1 $400 $260 #
plane-surface $-1 0 39.207538345852399 0 0 -1 0 0 0 -1 forward_v I I I I #
coedge $-1 $536 $398 $401 $537 forward $261 $-1 #
coedge $-1 $404 $263 $264 $392 reversed $164 $-1 #
coedge $-1 $398 $536 $263 $390 reversed $261 $-1 #
edge $-1 $405 -11.374457823898219 $538 11.374457823898219 $389 $539 forward 7 unknown #
coedge $-1 $265 $264 $536 $540 forward $105 $-1 #
edge $-1 $396 -77.916196172978914 $538 77.916196172978914 $388 $541 forward 7 unknown #
coedge $-1 $401 $400 $265 $394 reversed $385 $-1 #
edge $-1 $542 -77.916196172978914 $395 77.916196172978914 $393 $543 forward 7 unknown #
vertex $-1 $267 $544 #
vertex $-1 $407 $545 #
straight-curve $-1 77.916196172978914 0 -11.374457823898219 0 -1 0 I I #
coedge $-1 $387 $389 $268 $399 reversed $261 $-1 #
edge $-1 $402 -39.207538345852399 $405 39.207538345852399 $398 $546 forward 7 unknown #
coedge $-1 $393 $269 $274 $408 forward $385 $-1 #
coedge $-1 $269 $393 $387 $537 reversed $385 $-1 #
vertex $-1 $270 $547 #
straight-curve $-1 0 39.207538345852399 11.374457823898219 -1 0 0 I I #
coedge $-1 $271 $388 $273 $407 reversed $164 $-1 #
vertex $-1 $399 $548 #
straight-curve $-1 0 -39.207538345852399 11.374457823898219 1 0 0 I I #
edge $-1 $276 -11.374457823898219 $396 11.374457823898219 $273 $549 forward 7 unknown #
edge $-1 $277 -11.374457823898219 $395 11.374457823898219 $274 $550 forward 7 unknown #
point $-1 77.916196172978914 -39.207538345852399 11.374457823898219 #
point $-1 77.916196172978914 39.207538345852399 11.374457823898219 #
face $-1 $-1 $425 $40 $-1 $551 reversed single #
loop $-1 $-1 $421 $279 #
plane-surface $-1 0 0 11.374457823898219 0 0 1 1 0 0 forward_v I I I I #
coedge $-1 $552 $553 $415 $554 forward $280 $-1 #
coedge $-1 $283 $282 $414 $554 reversed $109 $-1 #
edge $-1 $555 -4.0742060334596459 $291 4.0742060334596459 $282 $556 forward 7 unknown #
coedge $-1 $557 $421 $283 $418 forward $412 $-1 #
edge $-1 $419 77.916196172978914 $558 86.064608239898206 $283 $559 forward 7 unknown #
vertex $-1 $418 $560 #
straight-curve $-1 -77.916196172978914 39.207538345852399 0 0 0 -1 I I #
coedge $-1 $417 $561 $285 $422 forward $412 $-1 #
edge $-1 $426 -39.207538345852399 $419 39.207538345852399 $421 $562 forward 7 unknown #
coedge $-1 $563 $286 $561 $564 reversed $425 $-1 #
coedge $-1 $286 $563 $288 $429 reversed $425 $-1 #
loop $-1 $-1 $286 $411 #
vertex $-1 $287 $565 #
straight-curve $-1 -77.916196172978914 -39.207538345852399 0 0 0 1 I I #
coedge $-1 $289 $288 $552 $566 forward $172 $-1 #
edge $-1 $290 -4.0742060334596459 $567 4.0742060334596459 $424 $568 forward 7 unknown #
point $-1 -77.916196172978914 -39.207538345852399 6.851959230151131 #
point $-1 -77.916196172978914 39.207538345852399 6.851959230151131 #
face $-1 $-1 $447 $41 $-1 $569 reversed single #
loop $-1 $-1 $570 $293 #
plane-surface $-1 86.064608239898192 0 9.1132085270246748 -1 0 0 0 0 1 forward_v I I I I #
coedge $-1 $305 $304 $571 $572 forward $294 $-1 #
coedge $-1 $573 $296 $305 $450 reversed $180 $-1 #
coedge $-1 $296 $573 $297 $439 reversed $180 $-1 #
coedge $-1 $298 $297 $574 $575 forward $113 $-1 #
edge $-1 $443 -4.0742060334596317 $576 4.0742060334596459 $437 $577 forward 7 unknown #
coedge $-1 $578 $302 $298 $441 reversed $447 $-1 #
edge $-1 $579 -86.064608239898192 $442 -77.916196172978914 $440 $580 forward 7 unknown #
vertex $-1 $303 $581 #
vertex $-1 $439 $582 #
straight-curve $-1 77.916196172978914 0 11.374457823898219 0 -1 0 I I #
straight-curve $-1 77.916196172978914 -39.207538345852399 0 0 0 -1 I I #
coedge $-1 $302 $578 $304 $449 reversed $447 $-1 #
loop $-1 $-1 $302 $432 #
straight-curve $-1 77.916196172978914 39.207538345852399 0 0 0 1 I I #
edge $-1 $306 -4.0742060334596459 $583 4.0742060334596459 $446 $584 forward 7 unknown #
edge $-1 $585 -4.0742060334596459 $307 4.0742060334596459 $436 $586 forward 7 unknown #
point $-1 77.9161961729789 39.207538345852399 6.851959230151131 #
point $-1 77.9161961729789 -39.207538345852399 6.851959230151131 #
plane-surface $-1 0 0 11.374457823898219 0 0 1 1 0 0 forward_v I I I I #
coedge $-1 $464 $463 $456 $587 forward $310 $-1 #
coedge $-1 $456 $312 $314 $460 reversed $188 $-1 #
coedge $-1 $312 $455 $454 $587 reversed $188 $-1 #
coedge $-1 $320 $315 $312 $458 forward $321 $-1 #
edge $-1 $461 -48.636032761869494 $588 -41.795031934664749 $457 $589 forward 7 unknown #
coedge $-1 $314 $313 $464 $590 reversed $117 $-1 #
edge $-1 $591 2.3096905769578348e-014 $461 11.11162744263379 $455 $592 forward 7 unknown #
vertex $-1 $316 $593 #
straight-curve $-1 -26.76553835483378 -32.366537518647654 11.374457823898219 -1 0 0 I I #
coedge $-1 $454 $317 $320 $468 reversed $310 $-1 #
coedge $-1 $317 $454 $459 $590 forward $310 $-1 #
vertex $-1 $318 $594 #
straight-curve $-1 -37.294369313275496 -39.207538345852399 49.279187373077377 0 0 1 I I #
straight-curve $-1 -37.294369313275496 -39.207538345852413 2.6183758173112466 0 -0.61566146476048833 -0.78801076186113728 I I #
edge $-1 $588 -151.75818631249817 $322 -119.28477151971404 $463 $595 forward 7 unknown #
point $-1 -37.294369313275496 -39.207538345852399 11.374457823898219 #
point $-1 -37.294369313275496 -32.366537518647654 11.374457823898219 #
edge $-1 $596 1 $596 0 $325 $-1 forward 7 unknown #
vertex $-1 $326 $597 #
ellipse-curve $-1 -53.531076709667559 -32.927670167005552 4.762433946460237 0 -0.78801076186113728 0.61566146476048833 2 0 0 1 I I #
point $-1 -51.531076709667559 -35.787037932250023 6.9964168206047281 #
plane-surface $-1 0 0 11.374457823898219 0 0 1 1 0 0 forward_v I I I I #
coedge $-1 $486 $485 $478 $598 forward $330 $-1 #
coedge $-1 $478 $332 $334 $482 reversed $203 $-1 #
coedge $-1 $332 $477 $476 $598 reversed $203 $-1 #
coedge $-1 $340 $335 $332 $480 forward $341 $-1 #
edge $-1 $483 -5.6483911163495151 $599 2.5297298862158044 $479 $600 forward 7 unknown #
coedge $-1 $334 $333 $486 $601 reversed $126 $-1 #
edge $-1 $602 -78.415076691704783 $483 -68.036892094938736 $477 $603 forward 7 unknown #
vertex $-1 $336 $604 #
straight-curve $-1 -8.2873393905463004 31.029417343287086 11.374457823898219 1 0 0 I I #
coedge $-1 $476 $337 $340 $490 reversed $330 $-1 #
coedge $-1 $337 $476 $481 $601 forward $330 $-1 #
vertex $-1 $338 $605 #
straight-curve $-1 -28.204523599858522 39.207538345852399 88.029875850908795 0 0 1 I I #
straight-curve $-1 -28.204523599858522 -22.584384859101334 53.262151712933317 0 0.78801074757464917 -0.61566148304635926 I I #
edge $-1 $599 4.9448339623266797 $342 28.204523599858522 $485 $606 forward 7 unknown #
point $-1 -28.204523599858522 39.207538345852399 11.374457823898219 #
point $-1 -28.204523599858522 31.029417343287079 11.374457823898219 #
edge $-1 $607 1 $607 0 $345 $-1 forward 7 unknown #
vertex $-1 $346 $608 #
ellipse-curve $-1 -23.552585672352158 32.812363661255375 5.2280420716066178 0 0.61566148304635926 0.78801074757464917 1 0 0 1 I I #
point $-1 -22.552585672352158 35.118477844569718 8.1797335638112667 #
edge $-1 $609 1 $609 0 $349 $-1 forward 7 unknown #
vertex $-1 $350 $610 #
ellipse-curve $-1 -16.574678781092608 32.812363661255375 5.2280420716066178 0 0.61566148304635926 0.78801074757464917 1 0 0 1 I I #
point $-1 -15.574678781092608 35.118477844569718 8.1797335638112667 #
edge $-1 $611 1 $611 0 $353 $-1 forward 7 unknown #
vertex $-1 $354 $612 #
ellipse-curve $-1 -9.5967718898330503 32.812363661255375 5.2280420716066178 0 0.61566148304635926 0.78801074757464917 1 0 0 1 I I #
point $-1 -8.5967718898330503 35.118477844569718 8.1797335638112667 #
loop $-1 $-1 $365 $357 #
plane-surface $-1 0 39.207538345852399 0 0 -1 0 0 0 -1 forward_v I I I I #
coedge $-1 $508 $360 $362 $512 reversed $232 $-1 #
coedge $-1 $360 $507 $613 $614 reversed $232 $-1 #
coedge $-1 $368 $363 $360 $510 forward $358 $-1 #
edge $-1 $513 -5.6483911163495151 $615 2.5297298862158044 $509 $616 forward 7 unknown #
coedge $-1 $362 $361 $516 $617 reversed $145 $-1 #
edge $-1 $618 -78.415076691704783 $513 -68.036892094938736 $507 $619 forward 7 unknown #
vertex $-1 $364 $620 #
straight-curve $-1 26.596552662483504 31.029417343287086 11.374457823898219 1 0 0 I I #
coedge $-1 $613 $365 $368 $520 reversed $505 $-1 #
coedge $-1 $365 $613 $511 $617 forward $505 $-1 #
vertex $-1 $366 $621 #
straight-curve $-1 41.56326050620109 39.207538345852399 88.029875850908795 0 0 1 I I #
straight-curve $-1 41.56326050620109 -22.584384859101334 53.262151712933317 0 0.78801074757464917 -0.61566148304635926 I I #
edge $-1 $615 -64.822950143732925 $369 -41.56326050620109 $515 $622 forward 7 unknown #
point $-1 41.56326050620109 39.207538345852399 11.374457823898219 #
point $-1 41.56326050620109 31.029417343287079 11.374457823898219 #
edge $-1 $623 1 $623 0 $372 $-1 forward 7 unknown #
vertex $-1 $373 $624 #
ellipse-curve $-1 46.215198433707457 32.812363661255375 5.2280420716066178 0 0.61566148304635926 0.78801074757464917 1 0 0 1 I I #
point $-1 47.215198433707457 35.118477844569718 8.1797335638112667 #
edge $-1 $625 1 $625 0 $376 $-1 forward 7 unknown #
vertex $-1 $377 $626 #
ellipse-curve $-1 53.193105324967007 32.812363661255375 5.2280420716066178 0 0.61566148304635926 0.78801074757464917 1 0 0 1 I I #
point $-1 54.193105324967007 35.118477844569718 8.1797335638112667 #
edge $-1 $627 1 $627 0 $380 $-1 forward 7 unknown #
vertex $-1 $381 $628 #
ellipse-curve $-1 60.171012216226586 32.812363661255375 5.2280420716066178 0 0.61566148304635926 0.78801074757464917 1 0 0 1 I I #
point $-1 61.171012216226586 35.118477844569718 8.1797335638112667 #
plane-surface $-1 77.916196172978914 0 0 -1 0 0 0 0 1 forward_v I I I I #
coedge $-1 $389 $387 $391 $540 reversed $261 $-1 #
edge $-1 $402 -11.374457823898219 $542 11.374457823898219 $401 $629 forward 7 unknown #
vertex $-1 $540 $630 #
straight-curve $-1 -77.916196172978914 -39.207538345852399 0 0 0 -1 I I #
edge $-1 $538 -39.207538345852399 $542 39.207538345852399 $536 $631 forward 7 unknown #
straight-curve $-1 0 -39.207538345852399 -11.374457823898219 -1 0 0 I I #
vertex $-1 $394 $632 #
straight-curve $-1 0 39.207538345852399 -11.374457823898219 1 0 0 I I #
point $-1 77.916196172978914 39.207538345852399 -11.374457823898219 #
point $-1 77.916196172978914 -39.207538345852399 -11.374457823898219 #
straight-curve $-1 -77.916196172978914 0 11.374457823898219 0 -1 0 I I #
point $-1 -77.916196172978914 39.207538345852399 11.374457823898219 #
point $-1 -77.916196172978914 -39.207538345852399 11.374457823898219 #
straight-curve $-1 77.916196172978914 -39.207538345852399 0 0 0 -1 I I #
straight-curve $-1 77.916196172978914 39.207538345852399 0 0 0 -1 I I #
plane-surface $-1 0 -39.207538345852399 0 0 1 0 0 0 1 forward_v I I I I #
coedge $-1 $633 $414 $428 $566 reversed $280 $-1 #
coedge $-1 $414 $633 $557 $634 reversed $280 $-1 #
edge $-1 $558 -2.2612492968735438 $555 2.2612492968735438 $415 $635 forward 7 unknown #
vertex $-1 $416 $636 #
straight-curve $-1 -81.99040220643856 39.207538345852399 6.851959230151131 1 0 0 I I #
coedge $-1 $561 $417 $553 $634 forward $412 $-1 #
vertex $-1 $418 $637 #
straight-curve $-1 0 39.207538345852399 11.374457823898219 -1 0 0 I I #
point $-1 -77.916196172978914 39.207538345852399 11.374457823898219 #
coedge $-1 $421 $557 $423 $564 forward $412 $-1 #
straight-curve $-1 -77.916196172978914 0 11.374457823898219 0 1 0 I I #
coedge $-1 $424 $423 $633 $638 forward $425 $-1 #
edge $-1 $639 -86.064608239898206 $426 -77.916196172978914 $423 $640 forward 7 unknown #
point $-1 -77.916196172978914 -39.207538345852399 11.374457823898219 #
edge $-1 $567 -39.207538345852399 $555 39.207538345852399 $552 $641 forward 7 unknown #
vertex $-1 $566 $642 #
straight-curve $-1 -81.99040220643856 -39.207538345852399 6.851959230151131 -1 0 0 I I #
plane-surface $-1 0 39.207538345852399 0 0 -1 0 0 0 -1 forward_v I I I I #
coedge $-1 $571 $574 $573 $643 forward $433 $-1 #
coedge $-1 $644 $570 $435 $572 reversed $433 $-1 #
edge $-1 $583 -39.207538345852399 $585 39.207538345852399 $571 $645 forward 7 unknown #
coedge $-1 $437 $436 $570 $643 reversed $180 $-1 #
coedge $-1 $570 $644 $438 $575 reversed $433 $-1 #
edge $-1 $576 -39.207538345852399 $579 39.207538345852399 $574 $646 forward 7 unknown #
vertex $-1 $575 $647 #
straight-curve $-1 81.990402206438546 -39.207538345852399 11.374457823898219 1 0 0 I I #
coedge $-1 $446 $440 $644 $648 forward $447 $-1 #
vertex $-1 $575 $649 #
straight-curve $-1 0 39.207538345852399 11.374457823898219 -1 0 0 I I #
point $-1 77.916196172978914 39.207538345852399 11.374457823898219 #
point $-1 77.916196172978914 -39.207538345852399 11.374457823898219 #
vertex $-1 $572 $650 #
straight-curve $-1 81.990402206438546 39.207538345852399 6.851959230151131 1 0 0 I I #
vertex $-1 $643 $651 #
straight-curve $-1 81.990402206438546 -39.207538345852399 6.851959230151131 -1 0 0 I I #
edge $-1 $588 37.904729549179159 $591 46.660811555766109 $454 $652 forward 7 unknown #
vertex $-1 $468 $653 #
straight-curve $-1 -69.767784106059622 -81.002570280517148 11.374457823898219 0 -1 0 I I #
edge $-1 $591 -43.002245751225843 $465 -10.528830958441716 $464 $654 forward 7 unknown #
vertex $-1 $590 $655 #
straight-curve $-1 -69.767784106059622 -39.207538345852413 2.6183758173112466 0 0.61566146476048833 0.78801076186113728 I I #
point $-1 -69.767784106059622 -32.366537518647654 11.374457823898219 #
point $-1 -37.294369313275496 -39.207538345852399 2.6183758173112648 #
straight-curve $-1 81.990402206438546 -39.207538345852399 11.374457823898219 1 0 0 I I #
vertex $-1 $471 $656 #
point $-1 -51.531076709667559 -32.927670167005552 4.762433946460237 #
edge $-1 $599 76.655418027010569 $602 83.044866547184441 $476 $657 forward 7 unknown #
vertex $-1 $490 $658 #
straight-curve $-1 -4.9448339623266797 36.677808459636594 11.374457823898211 0 1 0 I I #
edge $-1 $602 -3.3425054282196207 $487 19.917184209312222 $486 $659 forward 7 unknown #
vertex $-1 $601 $660 #
straight-curve $-1 -4.9448339623266797 -22.584384859101334 53.262151712933317 0 -0.78801074757464917 0.61566148304635926 I I #
point $-1 -4.9448339623266797 31.029417343287079 11.374457823898219 #
point $-1 -28.204523599858522 39.207538345852399 4.9850093037243539 #
straight-curve $-1 0 39.207538345852399 11.374457823898219 -1 0 0 I I #
vertex $-1 $493 $661 #
point $-1 -22.552585672352158 32.812363661255375 5.2280420716066178 #
vertex $-1 $497 $662 #
point $-1 -15.574678781092608 32.812363661255375 5.2280420716066178 #
vertex $-1 $501 $663 #
point $-1 -8.5967718898330503 32.812363661255375 5.2280420716066178 #
coedge $-1 $516 $515 $508 $614 forward $505 $-1 #
edge $-1 $615 76.655418027010569 $618 83.044866547184441 $613 $664 forward 7 unknown #
vertex $-1 $520 $665 #
straight-curve $-1 64.822950143732925 36.677808459636594 11.374457823898211 0 1 0 I I #
edge $-1 $618 -38.226397481249421 $517 -14.966707843717586 $516 $666 forward 7 unknown #
vertex $-1 $617 $667 #
straight-curve $-1 64.822950143732925 -22.584384859101334 53.262151712933317 0 -0.78801074757464917 0.61566148304635926 I I #
point $-1 64.822950143732925 31.029417343287079 11.374457823898219 #
point $-1 41.56326050620109 39.207538345852399 4.9850093037243539 #
straight-curve $-1 0 39.207538345852399 11.374457823898219 -1 0 0 I I #
vertex $-1 $523 $668 #
point $-1 47.215198433707457 32.812363661255375 5.2280420716066178 #
vertex $-1 $527 $669 #
point $-1 54.193105324967007 32.812363661255375 5.2280420716066178 #
vertex $-1 $531 $670 #
point $-1 61.171012216226586 32.812363661255375 5.2280420716066178 #
straight-curve $-1 -77.916196172978914 39.207538345852399 0 0 0 -1 I I #
point $-1 -77.916196172978914 -39.207538345852399 -11.374457823898219 #
straight-curve $-1 -77.916196172978914 0 -11.374457823898219 0 1 0 I I #
point $-1 -77.916196172978914 39.207538345852399 -11.374457823898219 #
coedge $-1 $553 $552 $563 $638 reversed $280 $-1 #
edge $-1 $558 -39.207538345852399 $639 39.207538345852399 $553 $671 forward 7 unknown #
straight-curve $-1 -86.064608239898206 39.207538345852399 9.1132085270246748 0 0 -1 I I #
point $-1 -86.064608239898206 39.207538345852399 6.851959230151131 #
point $-1 -86.064608239898206 39.207538345852399 11.374457823898219 #
edge $-1 $639 -2.2612492968735438 $567 2.2612492968735438 $633 $672 forward 7 unknown #
vertex $-1 $634 $673 #
straight-curve $-1 0 -39.207538345852399 11.374457823898219 1 0 0 I I #
straight-curve $-1 -86.064608239898206 0 6.851959230151131 0 1 0 I I #
point $-1 -86.064608239898206 -39.207538345852399 6.851959230151131 #
edge $-1 $576 -2.2612492968735438 $585 2.2612492968735438 $570 $674 forward 7 unknown #
coedge $-1 $574 $571 $578 $648 reversed $433 $-1 #
straight-curve $-1 86.064608239898192 0 6.851959230151131 0 -1 0 I I #
straight-curve $-1 86.064608239898192 0 11.374457823898219 0 1 0 I I #
point $-1 86.064608239898192 -39.207538345852399 11.374457823898219 #
edge $-1 $579 -2.2612492968735438 $583 2.2612492968735438 $644 $675 forward 7 unknown #
point $-1 86.064608239898192 39.207538345852399 11.374457823898219 #
point $-1 86.064608239898192 39.207538345852399 6.851959230151131 #
point $-1 86.064608239898192 -39.207538345852399 6.851959230151131 #
straight-curve $-1 -69.767784106059622 -39.207538345852399 49.279187373077377 0 0 -1 I I #
point $-1 -69.767784106059622 -39.207538345852399 11.374457823898219 #
straight-curve $-1 -26.76553835483378 -39.207538345852399 2.6183758173112657 1 0 0 I I #
point $-1 -69.767784106059622 -39.207538345852399 2.6183758173112648 #
point $-1 -53.531076709667559 -31.351648643283276 3.5311110169392608 #
straight-curve $-1 -4.9448339623266797 39.207538345852399 88.029875850908795 0 0 -1 I I #
point $-1 -4.9448339623266797 39.207538345852399 11.374457823898219 #
straight-curve $-1 -8.2873393905463004 39.207538345852399 4.9850093037243504 -1 0 0 I I #
point $-1 -4.9448339623266797 39.207538345852399 4.9850093037243539 #
point $-1 -23.552585672352158 32.196702178209023 4.4400313240319687 #
point $-1 -16.574678781092608 32.196702178209023 4.4400313240319687 #
point $-1 -9.5967718898330503 32.196702178209023 4.4400313240319687 #
straight-curve $-1 64.822950143732925 39.207538345852399 88.029875850908795 0 0 -1 I I #
point $-1 64.822950143732925 39.207538345852399 11.374457823898219 #
straight-curve $-1 26.596552662483504 39.207538345852399 4.9850093037243504 -1 0 0 I I #
point $-1 64.822950143732925 39.207538345852399 4.9850093037243539 #
point $-1 46.215198433707457 32.196702178209023 4.4400313240319687 #
point $-1 53.193105324967007 32.196702178209023 4.4400313240319687 #
point $-1 60.171012216226586 32.196702178209023 4.4400313240319687 #
straight-curve $-1 -86.064608239898206 0 11.374457823898219 0 -1 0 I I #
straight-curve $-1 -86.064608239898206 -39.207538345852399 9.1132085270246748 0 0 -1 I I #
point $-1 -86.064608239898206 -39.207538345852399 11.374457823898219 #
straight-curve $-1 86.064608239898192 -39.207538345852399 9.1132085270246748 0 0 -1 I I #
straight-curve $-1 86.064608239898192 39.207538345852399 9.1132085270246748 0 0 -1 I I #
End-of-ACIS-data 