500 0 12 0           
7 Unknown 11 ACIS 5.0 NT 24 Thu Mar 25 23:56:30 1999 
-1 9.9999999999999995e-007 1e-010 
body $-1 $12 $-1 $13 #
body $-1 $14 $-1 $15 #
body $-1 $16 $-1 $17 #
body $-1 $18 $-1 $19 #
body $-1 $20 $-1 $21 #
body $-1 $22 $-1 $23 #
body $-1 $24 $-1 $25 #
body $-1 $26 $-1 $27 #
body $-1 $28 $-1 $29 #
body $-1 $30 $-1 $31 #
body $-1 $32 $-1 $33 #
body $-1 $34 $-1 $35 #
lump $-1 $-1 $36 $0 #
transform $-1 1 0 0 0 1 0 0 0 1 46.183050019837033 26.28037814477619 11.0122219318589 1 rotate no_reflect no_shear #
lump $-1 $-1 $37 $1 #
transform $-1 1 0 0 0 1 0 0 0 1 46.183050019837033 26.28037814477619 11.0122219318589 1 rotate no_reflect no_shear #
lump $-1 $-1 $38 $2 #
transform $-1 1 0 0 0 1 0 0 0 1 46.183050019837033 26.28037814477619 11.0122219318589 1 rotate no_reflect no_shear #
lump $-1 $-1 $39 $3 #
transform $-1 1 0 0 0 1 0 0 0 1 46.183050019837033 26.28037814477619 11.0122219318589 1 rotate no_reflect no_shear #
lump $-1 $-1 $40 $4 #
transform $-1 1 0 0 0 1 0 0 0 1 46.183050019837033 26.28037814477619 11.0122219318589 1 rotate no_reflect no_shear #
lump $-1 $-1 $41 $5 #
transform $-1 1 0 0 0 1 0 0 0 1 46.183050019837033 26.28037814477619 11.0122219318589 1 rotate no_reflect no_shear #
lump $-1 $-1 $42 $6 #
transform $-1 1 0 0 0 1 0 0 0 1 46.183050019837033 26.28037814477619 11.0122219318589 1 rotate no_reflect no_shear #
lump $-1 $-1 $43 $7 #
transform $-1 1 0 0 0 1 0 0 0 1 46.183050019837033 26.28037814477619 11.0122219318589 1 rotate no_reflect no_shear #
lump $-1 $-1 $44 $8 #
transform $-1 1 0 0 0 1 0 0 0 1 46.183050019837033 26.28037814477619 11.0122219318589 1 rotate no_reflect no_shear #
lump $-1 $-1 $45 $9 #
transform $-1 1 0 0 0 1 0 0 0 1 46.183050019837033 26.28037814477619 11.0122219318589 1 rotate no_reflect no_shear #
lump $-1 $-1 $46 $10 #
transform $-1 1 0 0 0 1 0 0 0 1 46.183050019837033 26.28037814477619 11.0122219318589 1 rotate no_reflect no_shear #
lump $-1 $-1 $47 $11 #
transform $-1 1 0 0 0 1 0 0 0 1 46.183050019837033 26.28037814477619 11.0122219318589 1 rotate no_reflect no_shear #
shell $-1 $-1 $-1 $48 $-1 $12 #
shell $-1 $-1 $-1 $49 $-1 $14 #
shell $-1 $-1 $-1 $50 $-1 $16 #
shell $-1 $-1 $-1 $51 $-1 $18 #
shell $-1 $-1 $-1 $52 $-1 $20 #
shell $-1 $-1 $-1 $53 $-1 $22 #
shell $-1 $-1 $-1 $54 $-1 $24 #
shell $-1 $-1 $-1 $55 $-1 $26 #
shell $-1 $-1 $-1 $56 $-1 $28 #
shell $-1 $-1 $-1 $57 $-1 $30 #
shell $-1 $-1 $-1 $58 $-1 $32 #
shell $-1 $-1 $-1 $59 $-1 $34 #
face $-1 $60 $61 $36 $-1 $62 forward single #
face $-1 $63 $64 $37 $-1 $65 forward single #
face $-1 $66 $67 $38 $-1 $68 forward single #
face $-1 $69 $70 $39 $-1 $71 reversed single #
face $-1 $72 $73 $40 $-1 $74 forward single #
face $-1 $75 $76 $41 $-1 $77 forward single #
face $-1 $78 $79 $42 $-1 $80 reversed single #
face $-1 $81 $82 $43 $-1 $83 forward single #
face $-1 $84 $85 $44 $-1 $86 forward single #
face $-1 $87 $88 $45 $-1 $89 reversed single #
face $-1 $90 $91 $46 $-1 $92 forward single #
face $-1 $93 $94 $47 $-1 $95 forward single #
face $-1 $96 $97 $36 $-1 $98 reversed single #
loop $-1 $-1 $99 $48 #
plane-surface $-1 0 0 11.0122219318589 0 0 1 1 0 0 forward_v I I I I #
face $-1 $100 $101 $37 $-1 $102 reversed single #
loop $-1 $-1 $103 $49 #
plane-surface $-1 -46.183050019837033 0 0 1 0 0 0 0 -1 forward_v I I I I #
face $-1 $104 $105 $38 $-1 $106 reversed single #
loop $-1 $-1 $107 $50 #
plane-surface $-1 46.183050019837033 0 0 -1 0 0 0 0 1 forward_v I I I I #
face $-1 $108 $109 $39 $-1 $110 reversed single #
loop $-1 $-1 $111 $51 #
plane-surface $-1 -5.0108751741602298 -107.06559021537915 49.751575027867929 -1 0 0 0 -0.87461971476443456 0.48480960649040278 forward_v I I I I #
face $-1 $112 $113 $40 $-1 $114 forward single #
loop $-1 $115 $116 $52 #
cone-surface $-1 -9.9730409757812311 -24.168883312087985 7.7495073699744355 0 0.87461971476443456 -0.48480960649040278 0.5 0 0 1 I I 0 1 0.5 forward I I I I #
face $-1 $117 $118 $41 $-1 $119 forward single #
loop $-1 $120 $121 $53 #
cone-surface $-1 -6.9957414948086338 -24.168883312087985 7.7495073699744355 0 0.87461971476443456 -0.48480960649040278 0.5 0 0 1 I I 0 1 0.5 forward I I I I #
face $-1 $122 $123 $42 $-1 $124 reversed single #
loop $-1 $-1 $125 $54 #
plane-surface $-1 11.957907296429635 -107.06559021537915 49.751575027867929 -1 0 0 0 -0.87461971476443456 0.48480960649040278 forward_v I I I I #
face $-1 $126 $127 $43 $-1 $128 forward single #
loop $-1 $129 $130 $55 #
cone-surface $-1 6.9957414948086338 -24.168883312087985 7.7495073699744355 0 0.87461971476443456 -0.48480960649040278 0.5 0 0 1 I I 0 1 0.5 forward I I I I #
face $-1 $131 $132 $44 $-1 $133 forward single #
loop $-1 $134 $135 $56 #
cone-surface $-1 9.9730409757812311 -24.168883312087985 7.7495073699744355 0 0.87461971476443456 -0.48480960649040278 0.5 0 0 1 I I 0 1 0.5 forward I I I I #
face $-1 $136 $137 $45 $-1 $138 reversed single #
loop $-1 $-1 $139 $57 #
plane-surface $-1 18.661579466134853 78.382789466016888 94.763022352621931 1 0 0 0 -0.85716730853699208 -0.51503806187062418 forward_v I I I I #
face $-1 $140 $141 $46 $-1 $142 forward single #
loop $-1 $143 $144 $58 #
cone-surface $-1 22.852117587728678 22.114314111237004 5.6737059861414796 0 -0.85716730853699208 -0.51503806187062418 1.5 0 0 1 I I 0 1 1.5 forward I I I I #
face $-1 $145 $146 $47 $-1 $147 forward single #
loop $-1 $148 $149 $59 #
cone-surface $-1 29.137924770119405 22.114314111237004 5.6737059861414796 0 -0.85716730853699208 -0.51503806187062418 1.5 0 0 1 I I 0 1 1.5 forward I I I I #
face $-1 $150 $151 $36 $-1 $152 reversed single #
loop $-1 $-1 $153 $60 #
plane-surface $-1 0 0 -11.0122219318589 0 0 1 1 0 0 forward_v I I I I #
coedge $-1 $154 $155 $156 $157 forward $61 $-1 #
face $-1 $158 $159 $37 $-1 $160 forward single #
loop $-1 $-1 $161 $63 #
plane-surface $-1 0 26.28037814477619 0 0 -1 0 0 0 -1 forward_v I I I I #
coedge $-1 $162 $163 $164 $165 forward $64 $-1 #
face $-1 $166 $167 $38 $-1 $168 forward single #
loop $-1 $-1 $169 $66 #
plane-surface $-1 0 -26.28037814477619 0 0 1 0 0 0 1 forward_v I I I I #
coedge $-1 $170 $171 $172 $173 forward $67 $-1 #
face $-1 $174 $175 $39 $-1 $176 reversed single #
loop $-1 $-1 $177 $69 #
plane-surface $-1 -8.4843912352949289 -26.280378144776179 4.9716024145803672 0 -0.87461971476443456 0.48480960649040278 1 0 0 forward_v I I I I #
coedge $-1 $178 $179 $180 $181 reversed $70 $-1 #
face $-1 $-1 $182 $40 $-1 $183 forward single #
loop $-1 $184 $185 $72 #
cone-surface $-1 -9.9730409757812311 -23.512918526014658 7.3859001651066336 0 0.87461971476443456 -0.48480960649040278 0.25 0 0 1 I I -0.70710678118654746 0.70710678118654746 0.25 forward I I I I #
loop $-1 $-1 $186 $52 #
coedge $-1 $116 $116 $187 $188 reversed $73 $-1 #
face $-1 $-1 $189 $41 $-1 $190 forward single #
loop $-1 $191 $192 $75 #
cone-surface $-1 -6.9957414948086338 -23.512918526014658 7.3859001651066336 0 0.87461971476443456 -0.48480960649040278 0.25 0 0 1 I I -0.70710678118654746 0.70710678118654746 0.25 forward I I I I #
loop $-1 $-1 $193 $53 #
coedge $-1 $121 $121 $194 $195 reversed $76 $-1 #
face $-1 $196 $197 $42 $-1 $198 reversed single #
loop $-1 $-1 $199 $78 #
plane-surface $-1 8.484391235294936 -26.280378144776179 4.9716024145803672 0 -0.87461971476443456 0.48480960649040278 1 0 0 forward_v I I I I #
coedge $-1 $200 $201 $202 $203 reversed $79 $-1 #
face $-1 $-1 $204 $43 $-1 $205 forward single #
loop $-1 $206 $207 $81 #
cone-surface $-1 6.9957414948086338 -23.512918526014658 7.3859001651066336 0 0.87461971476443456 -0.48480960649040278 0.25 0 0 1 I I -0.70710678118654746 0.70710678118654746 0.25 forward I I I I #
loop $-1 $-1 $208 $55 #
coedge $-1 $130 $130 $209 $210 reversed $82 $-1 #
face $-1 $-1 $211 $44 $-1 $212 forward single #
loop $-1 $213 $214 $84 #
cone-surface $-1 9.9730409757812311 -23.512918526014658 7.3859001651066336 0 0.87461971476443456 -0.48480960649040278 0.25 0 0 1 I I -0.70710678118654746 0.70710678118654746 0.25 forward I I I I #
loop $-1 $-1 $215 $56 #
coedge $-1 $135 $135 $216 $217 reversed $85 $-1 #
face $-1 $218 $219 $45 $-1 $220 reversed single #
loop $-1 $-1 $221 $87 #
plane-surface $-1 25.995021178924041 -0.79041190504908343 47.190965205640019 0 0.85716730853699208 0.51503806187062418 1 0 0 forward_v I I I I #
coedge $-1 $222 $223 $224 $225 reversed $88 $-1 #
face $-1 $-1 $226 $46 $-1 $227 forward single #
loop $-1 $228 $229 $90 #
cone-surface $-1 22.852117587728678 19.97157895617492 4.3862208588227212 0 -0.85716730853699208 -0.51503806187062418 0.75 0 0 1 I I -0.70710678118654757 0.70710678118654757 0.75 forward I I I I #
loop $-1 $-1 $230 $58 #
coedge $-1 $144 $144 $231 $232 reversed $91 $-1 #
face $-1 $-1 $233 $47 $-1 $234 forward single #
loop $-1 $235 $236 $93 #
cone-surface $-1 29.137924770119405 19.97157895617492 4.3862208588227212 0 -0.85716730853699208 -0.51503806187062418 0.75 0 0 1 I I -0.70710678118654757 0.70710678118654757 0.75 forward I I I I #
loop $-1 $-1 $237 $59 #
coedge $-1 $149 $149 $238 $239 reversed $94 $-1 #
face $-1 $240 $241 $36 $-1 $242 reversed single #
loop $-1 $-1 $243 $96 #
plane-surface $-1 0 -26.28037814477619 0 0 1 0 0 0 1 forward_v I I I I #
coedge $-1 $244 $245 $246 $247 forward $97 $-1 #
coedge $-1 $248 $99 $249 $250 forward $61 $-1 #
coedge $-1 $99 $248 $251 $252 forward $61 $-1 #
coedge $-1 $253 $254 $99 $157 reversed $255 $-1 #
edge $-1 $256 -26.28037814477619 $257 26.28037814477619 $156 $258 forward 7 unknown #
face $-1 $259 $260 $37 $-1 $261 reversed single #
loop $-1 $-1 $164 $100 #
plane-surface $-1 -52.610343583898931 0 3.3069652615869933 0 0 1 1 0 0 forward_v I I I I #
coedge $-1 $262 $263 $163 $264 forward $101 $-1 #
coedge $-1 $265 $103 $266 $267 reversed $64 $-1 #
coedge $-1 $103 $265 $161 $264 reversed $64 $-1 #
coedge $-1 $268 $269 $103 $165 reversed $159 $-1 #
edge $-1 $270 -26.28037814477619 $271 26.28037814477619 $164 $272 forward 7 unknown #
face $-1 $273 $274 $38 $-1 $275 reversed single #
loop $-1 $-1 $276 $104 #
plane-surface $-1 52.610343583898931 0 3.3069652615869933 0 0 1 1 0 0 forward_v I I I I #
coedge $-1 $277 $278 $171 $279 forward $105 $-1 #
coedge $-1 $280 $107 $281 $282 reversed $67 $-1 #
coedge $-1 $107 $280 $169 $279 reversed $67 $-1 #
coedge $-1 $283 $284 $107 $173 reversed $167 $-1 #
edge $-1 $285 -26.28037814477619 $286 26.28037814477619 $172 $287 forward 7 unknown #
face $-1 $288 $289 $39 $-1 $290 forward single #
loop $-1 $-1 $291 $108 #
plane-surface $-1 -11.957907296429628 -107.06559021537915 49.751575027867929 1 0 0 0 0.87461971476443456 -0.48480960649040278 forward_v I I I I #
coedge $-1 $292 $293 $294 $295 reversed $109 $-1 #
coedge $-1 $179 $111 $296 $297 reversed $70 $-1 #
coedge $-1 $111 $178 $292 $298 reversed $70 $-1 #
coedge $-1 $294 $299 $111 $181 forward $289 $-1 #
edge $-1 $300 27.252416962913383 $301 30.600786913525372 $180 $302 forward 7 unknown #
loop $-1 $-1 $187 $112 #
plane-surface $-1 -8.4843912352949289 -26.280378144776179 4.9716024145803672 0 -0.87461971476443456 0.48480960649040278 1 0 0 forward_v I I I I #
loop $-1 $-1 $303 $72 #
coedge $-1 $185 $185 $186 $304 reversed $113 $-1 #
coedge $-1 $186 $186 $185 $304 forward $115 $-1 #
coedge $-1 $187 $187 $116 $188 forward $182 $-1 #
edge $-1 $305 5.4111866181864343e-016 $305 6.2831853071796013 $187 $306 forward 7 unknown #
loop $-1 $-1 $194 $117 #
plane-surface $-1 -8.4843912352949289 -26.280378144776179 4.9716024145803672 0 -0.87461971476443456 0.48480960649040278 1 0 0 forward_v I I I I #
loop $-1 $-1 $307 $75 #
coedge $-1 $192 $192 $193 $308 reversed $118 $-1 #
coedge $-1 $193 $193 $192 $308 forward $120 $-1 #
coedge $-1 $194 $194 $121 $195 forward $189 $-1 #
edge $-1 $309 5.4111866181864343e-016 $309 6.2831853071796013 $194 $310 forward 7 unknown #
face $-1 $311 $312 $42 $-1 $313 reversed single #
loop $-1 $-1 $314 $122 #
plane-surface $-1 5.0108751741602369 -107.06559021537915 49.751575027867929 1 0 0 0 0.87461971476443456 -0.48480960649040278 forward_v I I I I #
coedge $-1 $315 $316 $317 $318 reversed $123 $-1 #
coedge $-1 $201 $125 $319 $320 reversed $79 $-1 #
coedge $-1 $125 $200 $315 $321 reversed $79 $-1 #
coedge $-1 $317 $322 $125 $203 forward $323 $-1 #
edge $-1 $324 27.252416962913383 $325 30.600786913525372 $202 $326 forward 7 unknown #
loop $-1 $-1 $209 $126 #
plane-surface $-1 8.484391235294936 -26.280378144776179 4.9716024145803672 0 -0.87461971476443456 0.48480960649040278 1 0 0 forward_v I I I I #
loop $-1 $-1 $327 $81 #
coedge $-1 $207 $207 $208 $328 reversed $127 $-1 #
coedge $-1 $208 $208 $207 $328 forward $129 $-1 #
coedge $-1 $209 $209 $130 $210 forward $204 $-1 #
edge $-1 $329 5.4111866181864343e-016 $329 6.2831853071796013 $209 $330 forward 7 unknown #
loop $-1 $-1 $216 $131 #
plane-surface $-1 8.484391235294936 -26.280378144776179 4.9716024145803672 0 -0.87461971476443456 0.48480960649040278 1 0 0 forward_v I I I I #
loop $-1 $-1 $331 $84 #
coedge $-1 $214 $214 $215 $332 reversed $132 $-1 #
coedge $-1 $215 $215 $214 $332 forward $134 $-1 #
coedge $-1 $216 $216 $135 $217 forward $211 $-1 #
edge $-1 $333 5.4111866181864343e-016 $333 6.2831853071796013 $216 $334 forward 7 unknown #
face $-1 $335 $336 $45 $-1 $337 reversed single #
loop $-1 $-1 $338 $136 #
plane-surface $-1 33.32846289171323 78.382789466016888 94.763022352621931 -1 0 0 0 0.85716730853699208 0.51503806187062418 forward_v I I I I #
coedge $-1 $339 $340 $341 $342 reversed $137 $-1 #
coedge $-1 $223 $139 $343 $344 reversed $88 $-1 #
coedge $-1 $139 $222 $339 $345 reversed $88 $-1 #
coedge $-1 $341 $346 $139 $225 forward $347 $-1 #
edge $-1 $348 12.911016588232254 $349 18.243425307991945 $224 $350 forward 7 unknown #
loop $-1 $-1 $231 $140 #
plane-surface $-1 25.995021178924041 -0.79041190504908343 47.190965205640019 0 0.85716730853699208 0.51503806187062418 1 0 0 forward_v I I I I #
loop $-1 $-1 $351 $90 #
coedge $-1 $229 $229 $230 $352 reversed $141 $-1 #
coedge $-1 $230 $230 $229 $352 forward $143 $-1 #
coedge $-1 $231 $231 $144 $232 forward $226 $-1 #
edge $-1 $353 2.047651709871164e-016 $353 6.2831853071796004 $231 $354 forward 7 unknown #
loop $-1 $-1 $238 $145 #
plane-surface $-1 25.995021178924041 -0.79041190504908343 47.190965205640019 0 0.85716730853699208 0.51503806187062418 1 0 0 forward_v I I I I #
loop $-1 $-1 $355 $93 #
coedge $-1 $236 $236 $237 $356 reversed $146 $-1 #
coedge $-1 $237 $237 $236 $356 forward $148 $-1 #
coedge $-1 $238 $238 $149 $239 forward $233 $-1 #
edge $-1 $357 2.047651709871164e-016 $357 6.2831853071796004 $238 $358 forward 7 unknown #
face $-1 $359 $360 $36 $-1 $361 reversed single #
loop $-1 $-1 $362 $150 #
plane-surface $-1 -46.183050019837033 0 0 1 0 0 0 0 -1 forward_v I I I I #
coedge $-1 $363 $251 $364 $365 forward $151 $-1 #
coedge $-1 $366 $153 $363 $367 forward $97 $-1 #
coedge $-1 $153 $366 $368 $369 forward $97 $-1 #
coedge $-1 $254 $253 $153 $247 reversed $255 $-1 #
edge $-1 $370 -26.28037814477619 $371 26.28037814477619 $246 $372 forward 7 unknown #
coedge $-1 $155 $154 $373 $374 forward $61 $-1 #
coedge $-1 $375 $376 $154 $250 reversed $360 $-1 #
edge $-1 $257 -46.183050019837033 $377 46.183050019837033 $249 $378 forward 7 unknown #
coedge $-1 $243 $379 $155 $252 reversed $151 $-1 #
edge $-1 $380 -46.183050019837033 $256 46.183050019837033 $251 $381 forward 7 unknown #
coedge $-1 $246 $156 $379 $382 forward $255 $-1 #
coedge $-1 $156 $246 $375 $383 reversed $255 $-1 #
loop $-1 $-1 $253 $359 #
vertex $-1 $157 $384 #
vertex $-1 $157 $385 #
straight-curve $-1 46.183050019837033 0 11.0122219318589 0 1 0 I I #
face $-1 $386 $387 $37 $-1 $388 reversed single #
loop $-1 $-1 $389 $158 #
plane-surface $-1 -52.610343583898931 0 -3.0540909655032542 0 0 1 1 0 0 forward_v I I I I #
coedge $-1 $390 $161 $391 $392 reversed $101 $-1 #
coedge $-1 $161 $390 $268 $393 reversed $101 $-1 #
edge $-1 $270 -3.3069652615869933 $394 3.0540909655032542 $161 $395 forward 7 unknown #
coedge $-1 $163 $162 $389 $396 forward $64 $-1 #
coedge $-1 $397 $398 $162 $267 forward $399 $-1 #
edge $-1 $400 -3.0540909655032542 $271 3.3069652615869933 $266 $401 forward 7 unknown #
coedge $-1 $402 $164 $263 $393 forward $159 $-1 #
coedge $-1 $164 $402 $397 $403 forward $159 $-1 #
vertex $-1 $264 $404 #
vertex $-1 $403 $405 #
straight-curve $-1 -46.183050019837033 0 3.3069652615869933 0 -1 0 I I #
face $-1 $406 $407 $38 $-1 $408 reversed single #
loop $-1 $-1 $409 $166 #
plane-surface $-1 52.610343583898931 0 -3.0540909655032542 0 0 1 1 0 0 forward_v I I I I #
coedge $-1 $284 $283 $410 $411 forward $167 $-1 #
coedge $-1 $412 $169 $413 $414 reversed $105 $-1 #
coedge $-1 $169 $412 $283 $415 reversed $105 $-1 #
edge $-1 $285 -3.3069652615869933 $416 3.0540909655032542 $169 $417 forward 7 unknown #
coedge $-1 $171 $170 $418 $419 forward $67 $-1 #
coedge $-1 $420 $421 $170 $282 forward $422 $-1 #
edge $-1 $423 -3.0540909655032542 $286 3.3069652615869933 $281 $424 forward 7 unknown #
coedge $-1 $276 $172 $278 $415 forward $167 $-1 #
coedge $-1 $172 $276 $420 $425 forward $167 $-1 #
vertex $-1 $279 $426 #
vertex $-1 $425 $427 #
straight-curve $-1 46.183050019837033 0 3.3069652615869933 0 1 0 I I #
face $-1 $-1 $428 $39 $-1 $429 reversed single #
loop $-1 $-1 $180 $174 #
plane-surface $-1 0 0 11.0122219318589 0 0 1 1 0 0 forward_v I I I I #
coedge $-1 $430 $431 $432 $433 reversed $175 $-1 #
coedge $-1 $434 $177 $179 $298 forward $109 $-1 #
coedge $-1 $177 $434 $430 $435 forward $109 $-1 #
coedge $-1 $432 $180 $177 $295 forward $289 $-1 #
edge $-1 $301 0.76867955651276532 $436 7.7157116787821636 $294 $437 forward 7 unknown #
coedge $-1 $438 $439 $178 $297 forward $428 $-1 #
edge $-1 $440 -19.904185099353619 $300 -13.863565582075065 $296 $441 forward 7 unknown #
edge $-1 $301 -6.9065668373431093 $440 2.2257172995934122e-014 $179 $442 forward 7 unknown #
coedge $-1 $180 $432 $438 $443 forward $289 $-1 #
vertex $-1 $297 $444 #
vertex $-1 $181 $445 #
straight-curve $-1 -5.0108751741602298 -53.532795107689573 11.0122219318589 0 1 0 I I #
coedge $-1 $303 $303 $-1 $446 reversed $184 $-1 #
edge $-1 $447 0 $447 6.2831853071796004 $185 $448 forward 7 unknown #
vertex $-1 $188 $449 #
ellipse-curve $-1 -9.9730409757812311 -24.606193169470192 7.9919121732196308 0 -0.87461971476443456 0.48480960649040278 0.5 0 0 1 I I #
coedge $-1 $307 $307 $-1 $450 reversed $191 $-1 #
edge $-1 $451 0 $451 6.2831853071796004 $192 $452 forward 7 unknown #
vertex $-1 $195 $453 #
ellipse-curve $-1 -6.9957414948086338 -24.606193169470192 7.9919121732196308 0 -0.87461971476443456 0.48480960649040278 0.5 0 0 1 I I #
face $-1 $-1 $323 $42 $-1 $454 forward single #
loop $-1 $-1 $455 $196 #
plane-surface $-1 0 -26.28037814477619 0 0 1 0 0 0 1 forward_v I I I I #
coedge $-1 $456 $457 $458 $459 reversed $197 $-1 #
coedge $-1 $460 $199 $201 $321 forward $123 $-1 #
coedge $-1 $199 $460 $456 $461 forward $123 $-1 #
coedge $-1 $458 $202 $199 $318 forward $323 $-1 #
edge $-1 $325 -7.7157116787821671 $462 -0.76867955651276887 $317 $463 forward 7 unknown #
coedge $-1 $464 $465 $200 $320 forward $312 $-1 #
edge $-1 $466 -19.904185099353619 $324 -13.863565582075065 $319 $467 forward 7 unknown #
edge $-1 $325 -6.9065668373431093 $466 2.2257172995934122e-014 $201 $468 forward 7 unknown #
coedge $-1 $202 $458 $464 $469 forward $323 $-1 #
loop $-1 $-1 $458 $311 #
vertex $-1 $320 $470 #
vertex $-1 $203 $471 #
straight-curve $-1 11.957907296429635 -53.532795107689573 11.0122219318589 0 1 0 I I #
coedge $-1 $327 $327 $-1 $472 reversed $206 $-1 #
edge $-1 $473 0 $473 6.2831853071796004 $207 $474 forward 7 unknown #
vertex $-1 $210 $475 #
ellipse-curve $-1 6.9957414948086338 -24.606193169470192 7.9919121732196308 0 -0.87461971476443456 0.48480960649040278 0.5 0 0 1 I I #
coedge $-1 $331 $331 $-1 $476 reversed $213 $-1 #
edge $-1 $477 0 $477 6.2831853071796004 $214 $478 forward 7 unknown #
vertex $-1 $217 $479 #
ellipse-curve $-1 9.9730409757812311 -24.606193169470192 7.9919121732196308 0 -0.87461971476443456 0.48480960649040278 0.5 0 0 1 I I #
face $-1 $-1 $347 $45 $-1 $480 forward single #
loop $-1 $-1 $481 $218 #
plane-surface $-1 0 26.28037814477619 0 0 -1 0 0 0 -1 forward_v I I I I #
coedge $-1 $482 $483 $484 $485 reversed $219 $-1 #
coedge $-1 $486 $221 $223 $345 forward $137 $-1 #
coedge $-1 $221 $486 $482 $487 forward $137 $-1 #
coedge $-1 $484 $224 $221 $342 forward $347 $-1 #
edge $-1 $349 5.6640688766728324 $488 20.330952302251209 $341 $489 forward 7 unknown #
coedge $-1 $490 $491 $222 $344 forward $336 $-1 #
edge $-1 $492 -45.243907974055325 $348 -36.369289244452062 $343 $493 forward 7 unknown #
edge $-1 $349 42.207329786679324 $492 52.560756289552373 $223 $494 forward 7 unknown #
coedge $-1 $224 $484 $490 $495 forward $347 $-1 #
loop $-1 $-1 $484 $335 #
vertex $-1 $344 $496 #
vertex $-1 $225 $497 #
straight-curve $-1 18.661579466134853 39.191394733008444 11.012221931858903 0 -1 0 I I #
coedge $-1 $351 $351 $-1 $498 reversed $228 $-1 #
edge $-1 $499 0 $499 6.2831853071796004 $229 $500 forward 7 unknown #
vertex $-1 $232 $501 #
ellipse-curve $-1 22.852117587728678 23.614173784896341 6.5749125670572681 0 0.85716730853699208 0.51503806187062418 1.5 0 0 1 I I #
coedge $-1 $355 $355 $-1 $502 reversed $235 $-1 #
edge $-1 $503 0 $503 6.2831853071796004 $236 $504 forward 7 unknown #
vertex $-1 $239 $505 #
ellipse-curve $-1 29.137924770119405 23.614173784896341 6.5749125670572681 0 0.85716730853699208 0.51503806187062418 1.5 0 0 1 I I #
face $-1 $-1 $255 $36 $-1 $506 reversed single #
loop $-1 $-1 $375 $240 #
plane-surface $-1 0 26.28037814477619 0 0 -1 0 0 0 -1 forward_v I I I I #
coedge $-1 $507 $373 $376 $508 forward $241 $-1 #
coedge $-1 $379 $243 $244 $367 reversed $151 $-1 #
coedge $-1 $373 $507 $243 $365 reversed $241 $-1 #
edge $-1 $380 -11.0122219318589 $509 11.0122219318589 $364 $510 forward 7 unknown #
coedge $-1 $245 $244 $507 $511 forward $97 $-1 #
edge $-1 $371 -46.183050019837033 $509 46.183050019837033 $363 $512 forward 7 unknown #
coedge $-1 $376 $375 $245 $369 reversed $360 $-1 #
edge $-1 $513 -46.183050019837033 $370 46.183050019837033 $368 $514 forward 7 unknown #
vertex $-1 $247 $515 #
vertex $-1 $382 $516 #
straight-curve $-1 46.183050019837033 0 -11.0122219318589 0 -1 0 I I #
coedge $-1 $362 $364 $248 $374 reversed $241 $-1 #
edge $-1 $377 -26.28037814477619 $380 26.28037814477619 $373 $517 forward 7 unknown #
coedge $-1 $368 $249 $254 $383 forward $360 $-1 #
coedge $-1 $249 $368 $362 $508 reversed $360 $-1 #
vertex $-1 $250 $518 #
straight-curve $-1 0 26.28037814477619 11.0122219318589 -1 0 0 I I #
coedge $-1 $251 $363 $253 $382 reversed $151 $-1 #
vertex $-1 $374 $519 #
straight-curve $-1 0 -26.28037814477619 11.0122219318589 1 0 0 I I #
edge $-1 $256 -11.0122219318589 $371 11.0122219318589 $253 $520 forward 7 unknown #
edge $-1 $257 -11.0122219318589 $370 11.0122219318589 $254 $521 forward 7 unknown #
point $-1 46.183050019837033 -26.28037814477619 11.0122219318589 #
point $-1 46.183050019837033 26.28037814477619 11.0122219318589 #
face $-1 $-1 $399 $37 $-1 $522 reversed single #
loop $-1 $-1 $523 $259 #
plane-surface $-1 -59.03763714796083 0 0.12643714804186956 1 0 0 0 0 -1 forward_v I I I I #
coedge $-1 $524 $391 $265 $396 reversed $260 $-1 #
coedge $-1 $263 $262 $523 $525 reversed $101 $-1 #
coedge $-1 $389 $526 $262 $392 forward $260 $-1 #
edge $-1 $527 -6.4272935640618982 $394 6.4272935640618982 $262 $528 forward 7 unknown #
edge $-1 $270 -6.4272935640618982 $529 6.4272935640618982 $263 $530 forward 7 unknown #
vertex $-1 $264 $531 #
straight-curve $-1 -46.183050019837033 26.28037814477619 0 0 0 -1 I I #
edge $-1 $400 -26.28037814477619 $394 26.28037814477619 $389 $532 forward 7 unknown #
coedge $-1 $533 $266 $269 $403 reversed $399 $-1 #
coedge $-1 $266 $533 $524 $534 reversed $399 $-1 #
loop $-1 $-1 $266 $386 #
vertex $-1 $267 $535 #
straight-curve $-1 -46.183050019837033 -26.28037814477619 0 0 0 1 I I #
coedge $-1 $269 $268 $536 $537 forward $159 $-1 #
edge $-1 $538 -6.4272935640618982 $271 6.4272935640618982 $397 $539 forward 7 unknown #
point $-1 -46.183050019837033 26.28037814477619 3.3069652615869933 #
point $-1 -46.183050019837033 -26.28037814477619 3.3069652615869933 #
face $-1 $-1 $422 $38 $-1 $540 reversed single #
loop $-1 $-1 $541 $273 #
plane-surface $-1 59.03763714796083 0 0.12643714804186956 -1 0 0 0 0 1 forward_v I I I I #
coedge $-1 $413 $542 $543 $544 forward $274 $-1 #
coedge $-1 $541 $545 $276 $411 reversed $407 $-1 #
edge $-1 $546 -26.28037814477619 $547 26.28037814477619 $410 $548 forward 7 unknown #
coedge $-1 $278 $277 $541 $549 reversed $105 $-1 #
coedge $-1 $418 $409 $277 $414 forward $274 $-1 #
edge $-1 $550 -6.4272935640618982 $416 6.4272935640618982 $277 $551 forward 7 unknown #
edge $-1 $285 -6.4272935640618982 $546 6.4272935640618982 $278 $552 forward 7 unknown #
vertex $-1 $279 $553 #
straight-curve $-1 46.183050019837033 -26.28037814477619 0 0 0 -1 I I #
coedge $-1 $542 $413 $280 $419 reversed $274 $-1 #
edge $-1 $423 -26.28037814477619 $416 26.28037814477619 $418 $554 forward 7 unknown #
coedge $-1 $555 $281 $284 $425 reversed $422 $-1 #
coedge $-1 $281 $555 $542 $556 reversed $422 $-1 #
loop $-1 $-1 $281 $406 #
vertex $-1 $282 $557 #
straight-curve $-1 46.183050019837033 26.28037814477619 0 0 0 1 I I #
edge $-1 $547 -6.4272935640618982 $286 6.4272935640618982 $420 $558 forward 7 unknown #
point $-1 46.183050019837033 -26.28037814477619 3.3069652615869933 #
point $-1 46.183050019837033 26.28037814477619 3.3069652615869933 #
loop $-1 $-1 $296 $288 #
plane-surface $-1 0 -26.28037814477619 0 0 1 0 0 0 1 forward_v I I I I #
coedge $-1 $431 $291 $293 $435 reversed $175 $-1 #
coedge $-1 $291 $430 $559 $560 reversed $175 $-1 #
coedge $-1 $299 $294 $291 $433 forward $289 $-1 #
edge $-1 $436 -30.600786913525372 $561 -27.252416962913383 $432 $562 forward 7 unknown #
coedge $-1 $293 $292 $439 $563 reversed $109 $-1 #
edge $-1 $564 -2.2257172995934122e-014 $436 6.9065668373431093 $430 $565 forward 7 unknown #
vertex $-1 $295 $566 #
straight-curve $-1 -4.2421956176474644 -22.932008194164204 11.0122219318589 -1 0 0 I I #
coedge $-1 $559 $296 $299 $443 reversed $428 $-1 #
coedge $-1 $296 $559 $434 $563 forward $428 $-1 #
vertex $-1 $297 $567 #
straight-curve $-1 -5.0108751741602298 -26.280378144776193 24.875787513933965 0 0 1 I I #
straight-curve $-1 -5.0108751741602298 -26.280378144776179 4.9716024145803672 0 -0.48480960649040278 -0.87461971476443456 I I #
edge $-1 $561 -11.957907296429628 $300 -5.0108751741602298 $438 $568 forward 7 unknown #
point $-1 -5.0108751741602298 -26.28037814477619 11.0122219318589 #
point $-1 -5.0108751741602298 -22.932008194164201 11.0122219318589 #
edge $-1 $569 1 $569 0 $303 $-1 forward 7 unknown #
vertex $-1 $304 $570 #
ellipse-curve $-1 -9.9730409757812311 -23.731573454705767 7.5071025667292339 0 -0.87461971476443456 0.48480960649040278 0.5 0 0 1 I I #
point $-1 -9.4730409757812311 -24.606193169470203 7.991912173219637 #
edge $-1 $571 1 $571 0 $307 $-1 forward 7 unknown #
vertex $-1 $308 $572 #
ellipse-curve $-1 -6.9957414948086338 -23.731573454705767 7.5071025667292339 0 -0.87461971476443456 0.48480960649040278 0.5 0 0 1 I I #
point $-1 -6.4957414948086338 -24.606193169470203 7.991912173219637 #
plane-surface $-1 0 0 11.0122219318589 0 0 1 1 0 0 forward_v I I I I #
coedge $-1 $465 $464 $457 $573 forward $312 $-1 #
coedge $-1 $457 $314 $316 $461 reversed $197 $-1 #
coedge $-1 $314 $456 $455 $573 reversed $197 $-1 #
coedge $-1 $322 $317 $314 $459 forward $323 $-1 #
edge $-1 $462 -30.600786913525372 $574 -27.252416962913383 $458 $575 forward 7 unknown #
coedge $-1 $316 $315 $465 $576 reversed $123 $-1 #
edge $-1 $577 -2.2257172995934122e-014 $462 6.9065668373431093 $456 $578 forward 7 unknown #
vertex $-1 $318 $579 #
straight-curve $-1 4.242195617647468 -22.932008194164204 11.0122219318589 -1 0 0 I I #
coedge $-1 $455 $319 $322 $469 reversed $312 $-1 #
coedge $-1 $319 $455 $460 $576 forward $312 $-1 #
vertex $-1 $320 $580 #
straight-curve $-1 11.957907296429635 -26.280378144776193 24.875787513933965 0 0 1 I I #
straight-curve $-1 11.957907296429635 -26.280378144776179 4.9716024145803672 0 -0.48480960649040278 -0.87461971476443456 I I #
edge $-1 $574 5.0108751741602369 $324 11.957907296429635 $464 $581 forward 7 unknown #
point $-1 11.957907296429635 -26.28037814477619 11.0122219318589 #
point $-1 11.957907296429635 -22.932008194164201 11.0122219318589 #
edge $-1 $582 1 $582 0 $327 $-1 forward 7 unknown #
vertex $-1 $328 $583 #
ellipse-curve $-1 6.9957414948086338 -23.731573454705767 7.5071025667292339 0 -0.87461971476443456 0.48480960649040278 0.5 0 0 1 I I #
point $-1 7.4957414948086338 -24.606193169470203 7.991912173219637 #
edge $-1 $584 1 $584 0 $331 $-1 forward 7 unknown #
vertex $-1 $332 $585 #
ellipse-curve $-1 9.9730409757812311 -23.731573454705767 7.5071025667292339 0 -0.87461971476443456 0.48480960649040278 0.5 0 0 1 I I #
point $-1 10.473040975781231 -24.606193169470203 7.991912173219637 #
plane-surface $-1 0 0 11.0122219318589 0 0 1 1 0 0 forward_v I I I I #
coedge $-1 $491 $490 $483 $586 forward $336 $-1 #
coedge $-1 $483 $338 $340 $487 reversed $219 $-1 #
coedge $-1 $338 $482 $481 $586 reversed $219 $-1 #
coedge $-1 $346 $341 $338 $485 forward $347 $-1 #
edge $-1 $488 -18.243425307991945 $587 -12.911016588232254 $484 $588 forward 7 unknown #
coedge $-1 $340 $339 $491 $589 reversed $137 $-1 #
edge $-1 $590 -52.560756289552373 $488 -42.207329786679324 $482 $591 forward 7 unknown #
vertex $-1 $342 $592 #
straight-curve $-1 12.997510589462021 20.947969425016495 11.0122219318589 1 0 0 I I #
coedge $-1 $481 $343 $346 $495 reversed $336 $-1 #
coedge $-1 $343 $481 $486 $589 forward $336 $-1 #
vertex $-1 $344 $593 #
straight-curve $-1 18.661579466134853 26.28037814477619 47.381511176310966 0 0 1 I I #
straight-curve $-1 18.661579466134853 -0.79041190504908343 47.190965205640019 0 0.51503806187062418 -0.85716730853699208 I I #
edge $-1 $587 -33.32846289171323 $348 -18.661579466134853 $490 $594 forward 7 unknown #
point $-1 18.661579466134853 26.28037814477619 11.0122219318589 #
point $-1 18.661579466134853 20.947969425016499 11.012221931858896 #
edge $-1 $595 1 $595 0 $351 $-1 forward 7 unknown #
vertex $-1 $352 $596 #
ellipse-curve $-1 22.852117587728678 20.614454437577663 4.7724994052256893 0 0.85716730853699208 0.51503806187062418 1.5 0 0 1 I I #
point $-1 24.352117587728678 23.614173784896344 6.5749125670572699 #
edge $-1 $597 1 $597 0 $355 $-1 forward 7 unknown #
vertex $-1 $356 $598 #
ellipse-curve $-1 29.137924770119405 20.614454437577663 4.7724994052256893 0 0.85716730853699208 0.51503806187062418 1.5 0 0 1 I I #
point $-1 30.637924770119405 23.614173784896344 6.5749125670572699 #
plane-surface $-1 46.183050019837033 0 0 -1 0 0 0 0 1 forward_v I I I I #
coedge $-1 $364 $362 $366 $511 reversed $241 $-1 #
edge $-1 $377 -11.0122219318589 $513 11.0122219318589 $376 $599 forward 7 unknown #
vertex $-1 $511 $600 #
straight-curve $-1 -46.183050019837033 -26.28037814477619 0 0 0 -1 I I #
edge $-1 $509 -26.28037814477619 $513 26.28037814477619 $507 $601 forward 7 unknown #
straight-curve $-1 0 -26.28037814477619 -11.0122219318589 -1 0 0 I I #
vertex $-1 $369 $602 #
straight-curve $-1 0 26.28037814477619 -11.0122219318589 1 0 0 I I #
point $-1 46.183050019837033 26.28037814477619 -11.0122219318589 #
point $-1 46.183050019837033 -26.28037814477619 -11.0122219318589 #
straight-curve $-1 -46.183050019837033 0 11.0122219318589 0 -1 0 I I #
point $-1 -46.183050019837033 26.28037814477619 11.0122219318589 #
point $-1 -46.183050019837033 -26.28037814477619 11.0122219318589 #
straight-curve $-1 46.183050019837033 -26.28037814477619 0 0 0 -1 I I #
straight-curve $-1 46.183050019837033 26.28037814477619 0 0 0 -1 I I #
plane-surface $-1 0 -26.28037814477619 0 0 1 0 0 0 1 forward_v I I I I #
coedge $-1 $603 $536 $390 $525 forward $387 $-1 #
coedge $-1 $526 $389 $398 $534 forward $260 $-1 #
edge $-1 $529 -3.1805281135451238 $527 3.1805281135451238 $390 $604 forward 7 unknown #
coedge $-1 $391 $524 $603 $605 forward $260 $-1 #
vertex $-1 $392 $606 #
straight-curve $-1 -52.610343583898931 26.28037814477619 -3.0540909655032542 1 0 0 I I #
vertex $-1 $393 $607 #
straight-curve $-1 -52.610343583898931 26.28037814477619 3.3069652615869933 -1 0 0 I I #
point $-1 -46.183050019837033 26.28037814477619 -3.0540909655032542 #
straight-curve $-1 -46.183050019837033 0 -3.0540909655032542 0 1 0 I I #
coedge $-1 $398 $397 $608 $609 forward $399 $-1 #
edge $-1 $400 -6.4272935640618982 $610 6.4272935640618982 $398 $611 forward 7 unknown #
point $-1 -46.183050019837033 -26.28037814477619 -3.0540909655032542 #
coedge $-1 $523 $608 $402 $537 reversed $387 $-1 #
edge $-1 $529 -26.28037814477619 $538 26.28037814477619 $536 $612 forward 7 unknown #
vertex $-1 $537 $613 #
straight-curve $-1 -52.610343583898931 -26.28037814477619 3.3069652615869933 1 0 0 I I #
plane-surface $-1 0 26.28037814477619 0 0 -1 0 0 0 -1 forward_v I I I I #
coedge $-1 $543 $410 $412 $549 forward $407 $-1 #
coedge $-1 $409 $418 $421 $556 forward $274 $-1 #
coedge $-1 $545 $541 $409 $544 reversed $407 $-1 #
edge $-1 $614 -26.28037814477619 $550 26.28037814477619 $543 $615 forward 7 unknown #
coedge $-1 $410 $543 $555 $616 reversed $407 $-1 #
vertex $-1 $411 $617 #
vertex $-1 $411 $618 #
straight-curve $-1 59.03763714796083 0 3.3069652615869933 0 1 0 I I #
edge $-1 $546 -3.1805281135451238 $550 3.1805281135451238 $541 $619 forward 7 unknown #
vertex $-1 $549 $620 #
straight-curve $-1 52.610343583898931 -26.28037814477619 -3.0540909655032542 -1 0 0 I I #
straight-curve $-1 52.610343583898931 -26.28037814477619 3.3069652615869933 1 0 0 I I #
point $-1 46.183050019837033 -26.28037814477619 -3.0540909655032542 #
straight-curve $-1 46.183050019837033 0 -3.0540909655032542 0 -1 0 I I #
coedge $-1 $421 $420 $545 $616 forward $422 $-1 #
edge $-1 $423 -6.4272935640618982 $614 6.4272935640618982 $421 $621 forward 7 unknown #
point $-1 46.183050019837033 26.28037814477619 -3.0540909655032542 #
straight-curve $-1 52.610343583898931 26.28037814477619 3.3069652615869933 -1 0 0 I I #
coedge $-1 $439 $438 $431 $560 forward $428 $-1 #
edge $-1 $561 13.863565582075065 $564 19.904185099353619 $559 $622 forward 7 unknown #
vertex $-1 $443 $623 #
straight-curve $-1 -11.957907296429628 -53.532795107689573 11.0122219318589 0 -1 0 I I #
edge $-1 $564 -7.7157116787821636 $440 -0.76867955651276532 $439 $624 forward 7 unknown #
vertex $-1 $563 $625 #
straight-curve $-1 -11.957907296429628 -26.280378144776179 4.9716024145803672 0 0.48480960649040278 0.87461971476443456 I I #
point $-1 -11.957907296429628 -22.932008194164201 11.0122219318589 #
point $-1 -5.0108751741602298 -26.28037814477619 4.9716024145803477 #
straight-curve $-1 0 -26.28037814477619 11.0122219318589 1 0 0 I I #
vertex $-1 $446 $626 #
point $-1 -9.4730409757812311 -23.731573454705767 7.5071025667292339 #
vertex $-1 $450 $627 #
point $-1 -6.4957414948086338 -23.731573454705767 7.5071025667292339 #
edge $-1 $574 13.863565582075065 $577 19.904185099353619 $455 $628 forward 7 unknown #
vertex $-1 $469 $629 #
straight-curve $-1 5.0108751741602369 -53.532795107689573 11.0122219318589 0 -1 0 I I #
edge $-1 $577 0.76867955651276887 $466 7.7157116787821671 $465 $630 forward 7 unknown #
vertex $-1 $576 $631 #
straight-curve $-1 5.0108751741602369 -26.280378144776179 4.9716024145803672 0 0.48480960649040278 0.87461971476443456 I I #
point $-1 5.0108751741602369 -22.932008194164201 11.0122219318589 #
point $-1 11.957907296429635 -26.28037814477619 4.9716024145803477 #
straight-curve $-1 0 -26.28037814477619 11.0122219318589 1 0 0 I I #
vertex $-1 $472 $632 #
point $-1 7.4957414948086338 -23.731573454705767 7.5071025667292339 #
vertex $-1 $476 $633 #
point $-1 10.473040975781231 -23.731573454705767 7.5071025667292339 #
edge $-1 $587 36.369289244452062 $590 45.243907974055325 $481 $634 forward 7 unknown #
vertex $-1 $495 $635 #
straight-curve $-1 33.32846289171323 39.191394733008444 11.012221931858903 0 1 0 I I #
edge $-1 $590 -20.330952302251209 $492 -5.6640688766728324 $491 $636 forward 7 unknown #
vertex $-1 $589 $637 #
straight-curve $-1 33.32846289171323 -0.79041190504908343 47.190965205640019 0 -0.51503806187062418 0.85716730853699208 I I #
point $-1 33.32846289171323 20.947969425016499 11.012221931858896 #
point $-1 18.661579466134853 26.28037814477619 2.1376032022556402 #
straight-curve $-1 0 26.28037814477619 11.0122219318589 -1 0 0 I I #
vertex $-1 $498 $638 #
point $-1 24.352117587728678 20.614454437577663 4.7724994052256893 #
vertex $-1 $502 $639 #
point $-1 30.637924770119405 20.614454437577663 4.7724994052256893 #
straight-curve $-1 -46.183050019837033 26.28037814477619 0 0 0 -1 I I #
point $-1 -46.183050019837033 -26.28037814477619 -11.0122219318589 #
straight-curve $-1 -46.183050019837033 0 -11.0122219318589 0 1 0 I I #
point $-1 -46.183050019837033 26.28037814477619 -11.0122219318589 #
coedge $-1 $608 $523 $526 $605 reversed $387 $-1 #
straight-curve $-1 -59.03763714796083 26.28037814477619 0.12643714804186956 0 0 -1 I I #
edge $-1 $610 -26.28037814477619 $527 26.28037814477619 $603 $640 forward 7 unknown #
point $-1 -59.03763714796083 26.28037814477619 -3.0540909655032542 #
point $-1 -59.03763714796083 26.28037814477619 3.3069652615869933 #
coedge $-1 $536 $603 $533 $609 reversed $387 $-1 #
edge $-1 $538 -3.1805281135451238 $610 3.1805281135451238 $608 $641 forward 7 unknown #
vertex $-1 $605 $642 #
straight-curve $-1 -52.610343583898931 -26.28037814477619 -3.0540909655032542 -1 0 0 I I #
straight-curve $-1 -59.03763714796083 0 3.3069652615869933 0 -1 0 I I #
point $-1 -59.03763714796083 -26.28037814477619 3.3069652615869933 #
vertex $-1 $544 $643 #
straight-curve $-1 59.03763714796083 0 -3.0540909655032542 0 -1 0 I I #
edge $-1 $547 -3.1805281135451238 $614 3.1805281135451238 $545 $644 forward 7 unknown #
point $-1 59.03763714796083 -26.28037814477619 3.3069652615869933 #
point $-1 59.03763714796083 26.28037814477619 3.3069652615869933 #
straight-curve $-1 59.03763714796083 -26.28037814477619 0.12643714804186956 0 0 -1 I I #
point $-1 59.03763714796083 -26.28037814477619 -3.0540909655032542 #
straight-curve $-1 52.610343583898931 26.28037814477619 -3.0540909655032542 1 0 0 I I #
straight-curve $-1 -11.957907296429628 -26.280378144776193 24.875787513933965 0 0 -1 I I #
point $-1 -11.957907296429628 -26.28037814477619 11.0122219318589 #
straight-curve $-1 -4.2421956176474644 -26.28037814477619 4.9716024145803486 1 0 0 I I #
point $-1 -11.957907296429628 -26.28037814477619 4.9716024145803477 #
point $-1 -9.9730409757812311 -23.29426359732355 7.2646977634840333 #
point $-1 -6.9957414948086338 -23.29426359732355 7.2646977634840333 #
straight-curve $-1 5.0108751741602369 -26.280378144776193 24.875787513933965 0 0 -1 I I #
point $-1 5.0108751741602369 -26.28037814477619 11.0122219318589 #
straight-curve $-1 4.242195617647468 -26.28037814477619 4.9716024145803486 1 0 0 I I #
point $-1 5.0108751741602369 -26.28037814477619 4.9716024145803477 #
point $-1 6.9957414948086338 -23.29426359732355 7.2646977634840333 #
point $-1 9.9730409757812311 -23.29426359732355 7.2646977634840333 #
straight-curve $-1 33.32846289171323 26.28037814477619 47.381511176310966 0 0 -1 I I #
point $-1 33.32846289171323 26.28037814477619 11.0122219318589 #
straight-curve $-1 12.997510589462021 26.280378144776186 2.1376032022556366 -1 0 0 I I #
point $-1 33.32846289171323 26.28037814477619 2.1376032022556402 #
point $-1 22.852117587728678 19.328703474772176 3.9999423124197531 #
point $-1 29.137924770119405 19.328703474772176 3.9999423124197531 #
straight-curve $-1 -59.03763714796083 0 -3.0540909655032542 0 1 0 I I #
straight-curve $-1 -59.03763714796083 -26.28037814477619 0.12643714804186956 0 0 -1 I I #
point $-1 -59.03763714796083 -26.28037814477619 -3.0540909655032542 #
point $-1 59.03763714796083 26.28037814477619 -3.0540909655032542 #
straight-curve $-1 59.03763714796083 26.28037814477619 0.12643714804186956 0 0 -1 I I #
End-of-ACIS-data 