500 0 6 0           
7 Unknown 11 ACIS 5.0 NT 24 Thu Mar 25 19:07:59 1999 
-1 9.9999999999999995e-007 1e-010 
body $-1 $6 $-1 $7 #
body $-1 $8 $-1 $9 #
body $-1 $10 $-1 $11 #
body $-1 $12 $-1 $13 #
body $-1 $14 $-1 $15 #
body $-1 $16 $-1 $17 #
lump $-1 $-1 $18 $0 #
transform $-1 1 0 0 0 1 0 0 0 1 72.266609698782304 42.345891075182337 12.491953865502715 1 rotate no_reflect no_shear #
lump $-1 $-1 $19 $1 #
transform $-1 1 0 0 0 0.74314481823134659 0.66913061440640931 0 -0.66913061440640931 0.74314481823134659 50.841858952925392 -96.711601897628753 128.2464662245672 1 rotate no_reflect no_shear #
lump $-1 $-1 $20 $2 #
transform $-1 1 0 0 0 -0.74314481823134659 -0.66913061440640931 0 0.66913061440640931 -0.74314481823134659 50.841858952925392 3.1705915774501285 21.946636653013893 1 rotate no_reflect no_shear #
lump $-1 $-1 $21 $3 #
transform $-1 1 0 0 0 0.85716729658548041 -0.51503808176128008 0 0.51503808176128008 0.85716729658548041 125.74504771987191 86.536868270834049 185.1719682527681 1 rotate no_reflect no_shear #
lump $-1 $-1 $22 $4 #
transform $-1 1 0 0 0 -0.85716729658548041 0.51503808176128008 0 -0.51503808176128008 -0.85716729658548041 117.69297414371789 74.144351747673184 13.908114066130338 1 rotate no_reflect no_shear #
lump $-1 $-1 $23 $5 #
transform $-1 1 0 0 0 -0.85716729658548041 0.51503808176128008 0 -0.51503808176128008 -0.85716729658548041 133.79712129602592 74.144351747673184 13.908114066130338 1 rotate no_reflect no_shear #
shell $-1 $-1 $-1 $24 $-1 $6 #
shell $-1 $-1 $-1 $25 $-1 $8 #
shell $-1 $-1 $-1 $26 $-1 $10 #
shell $-1 $-1 $-1 $27 $-1 $12 #
shell $-1 $-1 $-1 $28 $-1 $14 #
shell $-1 $-1 $-1 $29 $-1 $16 #
face $-1 $30 $31 $18 $-1 $32 forward single #
face $-1 $33 $34 $19 $-1 $35 forward single #
face $-1 $36 $37 $20 $-1 $38 forward single #
face $-1 $39 $40 $21 $-1 $41 forward single #
face $-1 $42 $43 $22 $-1 $44 forward single #
face $-1 $45 $46 $23 $-1 $47 forward single #
face $-1 $48 $49 $18 $-1 $50 reversed single #
loop $-1 $-1 $51 $24 #
plane-surface $-1 0 0 12.491953865502715 0 0 1 1 0 0 forward_v I I I I #
face $-1 $52 $53 $19 $-1 $54 reversed single #
loop $-1 $-1 $55 $25 #
plane-surface $-1 0 0 144.53321939756461 0 0 1 1 0 0 forward_v I I I I #
face $-1 $56 $57 $20 $-1 $58 forward single #
loop $-1 $59 $60 $26 #
cone-surface $-1 0 0 -0.77359080782494516 0 0 1 0.5 0 0 1 I I 0 1 0.5 forward I I I I #
face $-1 $61 $62 $21 $-1 $63 reversed single #
loop $-1 $-1 $64 $27 #
plane-surface $-1 0 0 144.53321939756461 0 0 1 1 0 0 forward_v I I I I #
face $-1 $65 $66 $22 $-1 $67 forward single #
loop $-1 $68 $69 $28 #
cone-surface $-1 0 0 -4.8255867183446757 0 0 1 2 0 0 1 I I 0 1 2 forward I I I I #
face $-1 $70 $71 $23 $-1 $72 forward single #
loop $-1 $73 $74 $29 #
cone-surface $-1 0 0 -4.8255867183446757 0 0 1 2 0 0 1 I I 0 1 2 forward I I I I #
face $-1 $75 $76 $18 $-1 $77 reversed single #
loop $-1 $-1 $78 $30 #
plane-surface $-1 0 0 -12.491953865502715 0 0 1 1 0 0 forward_v I I I I #
coedge $-1 $79 $80 $81 $82 forward $31 $-1 #
face $-1 $83 $84 $19 $-1 $85 reversed single #
loop $-1 $-1 $86 $33 #
plane-surface $-1 0 0 -144.53321939756461 0 0 1 1 0 0 forward_v I I I I #
coedge $-1 $87 $88 $89 $90 forward $34 $-1 #
face $-1 $-1 $91 $20 $-1 $92 forward single #
loop $-1 $-1 $93 $36 #
plane-surface $-1 0 0 -1.2971816156498903 0 0 -1 -1 0 0 forward_v I I I I #
loop $-1 $-1 $94 $26 #
coedge $-1 $60 $60 $93 $95 reversed $37 $-1 #
face $-1 $96 $97 $21 $-1 $98 reversed single #
loop $-1 $-1 $99 $39 #
plane-surface $-1 0 0 -144.53321939756461 0 0 1 1 0 0 forward_v I I I I #
coedge $-1 $100 $101 $102 $103 forward $40 $-1 #
face $-1 $-1 $104 $22 $-1 $105 forward single #
loop $-1 $-1 $106 $42 #
plane-surface $-1 0 0 -8.6511734366893513 0 0 -1 -1 0 0 forward_v I I I I #
loop $-1 $-1 $107 $28 #
coedge $-1 $69 $69 $106 $108 reversed $43 $-1 #
face $-1 $-1 $109 $23 $-1 $110 forward single #
loop $-1 $-1 $111 $45 #
plane-surface $-1 0 0 -8.6511734366893513 0 0 -1 -1 0 0 forward_v I I I I #
loop $-1 $-1 $112 $29 #
coedge $-1 $74 $74 $111 $113 reversed $46 $-1 #
face $-1 $114 $115 $18 $-1 $116 reversed single #
loop $-1 $-1 $117 $48 #
plane-surface $-1 0 -42.345891075182337 0 0 1 0 0 0 1 forward_v I I I I #
coedge $-1 $118 $119 $120 $121 forward $49 $-1 #
coedge $-1 $122 $51 $123 $124 forward $31 $-1 #
coedge $-1 $51 $122 $125 $126 forward $31 $-1 #
coedge $-1 $127 $128 $51 $82 reversed $129 $-1 #
edge $-1 $130 -42.345891075182337 $131 42.345891075182337 $81 $132 forward 7 unknown #
face $-1 $133 $134 $19 $-1 $135 reversed single #
loop $-1 $-1 $136 $52 #
plane-surface $-1 0 -289.06643879512922 0 0 1 0 0 0 1 forward_v I I I I #
coedge $-1 $137 $138 $139 $140 forward $53 $-1 #
coedge $-1 $141 $55 $142 $143 forward $34 $-1 #
coedge $-1 $55 $141 $144 $145 forward $34 $-1 #
coedge $-1 $146 $147 $55 $90 reversed $148 $-1 #
edge $-1 $149 -289.06643879512922 $150 289.06643879512922 $89 $151 forward 7 unknown #
loop $-1 $152 $153 $56 #
cone-surface $-1 0 0 0 0 0 1 0.25 0 0 1 I I -0.70710678118654746 0.70710678118654746 0.25 forward I I I I #
coedge $-1 $93 $93 $60 $95 forward $57 $-1 #
coedge $-1 $94 $94 $153 $154 forward $59 $-1 #
edge $-1 $155 0 $155 6.2831853071796004 $93 $156 forward 7 unknown #
face $-1 $157 $158 $21 $-1 $159 reversed single #
loop $-1 $-1 $160 $61 #
plane-surface $-1 0 -289.06643879512922 0 0 1 0 0 0 1 forward_v I I I I #
coedge $-1 $161 $162 $163 $164 forward $62 $-1 #
coedge $-1 $165 $64 $166 $167 forward $40 $-1 #
coedge $-1 $64 $165 $168 $169 forward $40 $-1 #
coedge $-1 $170 $171 $64 $103 reversed $172 $-1 #
edge $-1 $173 -289.06643879512922 $174 289.06643879512922 $102 $175 forward 7 unknown #
loop $-1 $176 $177 $65 #
cone-surface $-1 0 0 0 0 0 1 1 0 0 1 I I -0.70710678118654746 0.70710678118654746 1 forward I I I I #
coedge $-1 $106 $106 $69 $108 forward $66 $-1 #
coedge $-1 $107 $107 $177 $178 forward $68 $-1 #
edge $-1 $179 0 $179 6.2831853071796004 $106 $180 forward 7 unknown #
loop $-1 $181 $182 $70 #
cone-surface $-1 0 0 0 0 0 1 1 0 0 1 I I -0.70710678118654746 0.70710678118654746 1 forward I I I I #
coedge $-1 $111 $111 $74 $113 forward $71 $-1 #
coedge $-1 $112 $112 $182 $183 forward $73 $-1 #
edge $-1 $184 0 $184 6.2831853071796004 $111 $185 forward 7 unknown #
face $-1 $186 $187 $18 $-1 $188 reversed single #
loop $-1 $-1 $189 $75 #
plane-surface $-1 -72.266609698782304 0 0 1 0 0 0 0 -1 forward_v I I I I #
coedge $-1 $190 $125 $191 $192 forward $76 $-1 #
coedge $-1 $193 $78 $190 $194 forward $49 $-1 #
coedge $-1 $78 $193 $195 $196 forward $49 $-1 #
coedge $-1 $128 $127 $78 $121 reversed $129 $-1 #
edge $-1 $197 -42.345891075182337 $198 42.345891075182337 $120 $199 forward 7 unknown #
coedge $-1 $80 $79 $200 $201 forward $31 $-1 #
coedge $-1 $202 $203 $79 $124 reversed $187 $-1 #
edge $-1 $131 -72.266609698782304 $204 72.266609698782304 $123 $205 forward 7 unknown #
coedge $-1 $117 $206 $80 $126 reversed $76 $-1 #
edge $-1 $207 -72.266609698782304 $130 72.266609698782304 $125 $208 forward 7 unknown #
coedge $-1 $120 $81 $206 $209 forward $129 $-1 #
coedge $-1 $81 $120 $202 $210 reversed $129 $-1 #
loop $-1 $-1 $127 $186 #
vertex $-1 $82 $211 #
vertex $-1 $82 $212 #
straight-curve $-1 72.266609698782304 0 12.491953865502715 0 1 0 I I #
face $-1 $213 $214 $19 $-1 $215 reversed single #
loop $-1 $-1 $216 $83 #
plane-surface $-1 -18.620556017513014 0 0 1 0 0 0 0 -1 forward_v I I I I #
coedge $-1 $217 $144 $218 $219 forward $84 $-1 #
coedge $-1 $220 $86 $217 $221 forward $53 $-1 #
coedge $-1 $86 $220 $222 $223 forward $53 $-1 #
coedge $-1 $147 $146 $86 $140 reversed $148 $-1 #
edge $-1 $224 -289.06643879512922 $225 289.06643879512922 $139 $226 forward 7 unknown #
coedge $-1 $88 $87 $227 $228 forward $34 $-1 #
coedge $-1 $229 $230 $87 $143 reversed $214 $-1 #
edge $-1 $150 -18.620556017513014 $231 18.620556017513014 $142 $232 forward 7 unknown #
coedge $-1 $136 $233 $88 $145 reversed $84 $-1 #
edge $-1 $234 -18.620556017513014 $149 18.620556017513014 $144 $235 forward 7 unknown #
coedge $-1 $139 $89 $233 $236 forward $148 $-1 #
coedge $-1 $89 $139 $229 $237 reversed $148 $-1 #
loop $-1 $-1 $146 $213 #
vertex $-1 $90 $238 #
vertex $-1 $90 $239 #
straight-curve $-1 18.620556017513014 0 144.53321939756461 0 1 0 I I #
loop $-1 $-1 $240 $56 #
coedge $-1 $153 $153 $94 $154 reversed $91 $-1 #
edge $-1 $241 0 $241 6.2831853071796004 $153 $242 forward 7 unknown #
vertex $-1 $95 $243 #
ellipse-curve $-1 0 0 -1.2971816156498903 0 0 -1 0.5 0 0 1 I I #
face $-1 $244 $245 $21 $-1 $246 reversed single #
loop $-1 $-1 $247 $96 #
plane-surface $-1 -18.788171677692702 0 0 1 0 0 0 0 -1 forward_v I I I I #
coedge $-1 $248 $168 $249 $250 forward $97 $-1 #
coedge $-1 $251 $99 $248 $252 forward $62 $-1 #
coedge $-1 $99 $251 $253 $254 forward $62 $-1 #
coedge $-1 $171 $170 $99 $164 reversed $172 $-1 #
edge $-1 $255 -289.06643879512922 $256 289.06643879512922 $163 $257 forward 7 unknown #
coedge $-1 $101 $100 $258 $259 forward $40 $-1 #
coedge $-1 $260 $261 $100 $167 reversed $245 $-1 #
edge $-1 $174 -18.788171677692702 $262 18.788171677692702 $166 $263 forward 7 unknown #
coedge $-1 $160 $264 $101 $169 reversed $97 $-1 #
edge $-1 $265 -18.788171677692702 $173 18.788171677692702 $168 $266 forward 7 unknown #
coedge $-1 $163 $102 $264 $267 forward $172 $-1 #
coedge $-1 $102 $163 $260 $268 reversed $172 $-1 #
loop $-1 $-1 $170 $244 #
vertex $-1 $103 $269 #
vertex $-1 $103 $270 #
straight-curve $-1 18.788171677692702 0 144.53321939756461 0 1 0 I I #
loop $-1 $-1 $271 $65 #
coedge $-1 $177 $177 $107 $178 reversed $104 $-1 #
edge $-1 $272 0 $272 6.2831853071796004 $177 $273 forward 7 unknown #
vertex $-1 $108 $274 #
ellipse-curve $-1 0 0 -8.6511734366893513 0 0 -1 2 0 0 1 I I #
loop $-1 $-1 $275 $70 #
coedge $-1 $182 $182 $112 $183 reversed $109 $-1 #
edge $-1 $276 0 $276 6.2831853071796004 $182 $277 forward 7 unknown #
vertex $-1 $113 $278 #
ellipse-curve $-1 0 0 -8.6511734366893513 0 0 -1 2 0 0 1 I I #
face $-1 $-1 $129 $18 $-1 $279 reversed single #
loop $-1 $-1 $202 $114 #
plane-surface $-1 0 42.345891075182337 0 0 -1 0 0 0 -1 forward_v I I I I #
coedge $-1 $280 $200 $203 $281 forward $115 $-1 #
coedge $-1 $206 $117 $118 $194 reversed $76 $-1 #
coedge $-1 $200 $280 $117 $192 reversed $115 $-1 #
edge $-1 $207 -12.491953865502715 $282 12.491953865502715 $191 $283 forward 7 unknown #
coedge $-1 $119 $118 $280 $284 forward $49 $-1 #
edge $-1 $198 -72.266609698782304 $282 72.266609698782304 $190 $285 forward 7 unknown #
coedge $-1 $203 $202 $119 $196 reversed $187 $-1 #
edge $-1 $286 -72.266609698782304 $197 72.266609698782304 $195 $287 forward 7 unknown #
vertex $-1 $121 $288 #
vertex $-1 $209 $289 #
straight-curve $-1 72.266609698782304 0 -12.491953865502715 0 -1 0 I I #
coedge $-1 $189 $191 $122 $201 reversed $115 $-1 #
edge $-1 $204 -42.345891075182337 $207 42.345891075182337 $200 $290 forward 7 unknown #
coedge $-1 $195 $123 $128 $210 forward $187 $-1 #
coedge $-1 $123 $195 $189 $281 reversed $187 $-1 #
vertex $-1 $124 $291 #
straight-curve $-1 0 42.345891075182337 12.491953865502715 -1 0 0 I I #
coedge $-1 $125 $190 $127 $209 reversed $76 $-1 #
vertex $-1 $201 $292 #
straight-curve $-1 0 -42.345891075182337 12.491953865502715 1 0 0 I I #
edge $-1 $130 -12.491953865502715 $198 12.491953865502715 $127 $293 forward 7 unknown #
edge $-1 $131 -12.491953865502715 $197 12.491953865502715 $128 $294 forward 7 unknown #
point $-1 72.266609698782304 -42.345891075182337 12.491953865502715 #
point $-1 72.266609698782304 42.345891075182337 12.491953865502715 #
face $-1 $-1 $148 $19 $-1 $295 reversed single #
loop $-1 $-1 $229 $133 #
plane-surface $-1 0 289.06643879512922 0 0 -1 0 0 0 -1 forward_v I I I I #
coedge $-1 $296 $227 $230 $297 forward $134 $-1 #
coedge $-1 $233 $136 $137 $221 reversed $84 $-1 #
coedge $-1 $227 $296 $136 $219 reversed $134 $-1 #
edge $-1 $234 -144.53321939756461 $298 144.53321939756461 $218 $299 forward 7 unknown #
coedge $-1 $138 $137 $296 $300 forward $53 $-1 #
edge $-1 $225 -18.620556017513014 $298 18.620556017513014 $217 $301 forward 7 unknown #
coedge $-1 $230 $229 $138 $223 reversed $214 $-1 #
edge $-1 $302 -18.620556017513014 $224 18.620556017513014 $222 $303 forward 7 unknown #
vertex $-1 $140 $304 #
vertex $-1 $236 $305 #
straight-curve $-1 18.620556017513014 0 -144.53321939756461 0 -1 0 I I #
coedge $-1 $216 $218 $141 $228 reversed $134 $-1 #
edge $-1 $231 -289.06643879512922 $234 289.06643879512922 $227 $306 forward 7 unknown #
coedge $-1 $222 $142 $147 $237 forward $214 $-1 #
coedge $-1 $142 $222 $216 $297 reversed $214 $-1 #
vertex $-1 $143 $307 #
straight-curve $-1 0 289.06643879512922 144.53321939756461 -1 0 0 I I #
coedge $-1 $144 $217 $146 $236 reversed $84 $-1 #
vertex $-1 $228 $308 #
straight-curve $-1 0 -289.06643879512922 144.53321939756461 1 0 0 I I #
edge $-1 $149 -144.53321939756461 $225 144.53321939756461 $146 $309 forward 7 unknown #
edge $-1 $150 -144.53321939756461 $224 144.53321939756461 $147 $310 forward 7 unknown #
point $-1 18.620556017513014 -289.06643879512922 144.53321939756461 #
point $-1 18.620556017513014 289.06643879512922 144.53321939756461 #
coedge $-1 $240 $240 $-1 $311 reversed $152 $-1 #
vertex $-1 $154 $312 #
ellipse-curve $-1 0 0 -0.25 0 0 -1 0.5 0 0 1 I I #
point $-1 0.5 0 -1.2971816156498903 #
face $-1 $-1 $172 $21 $-1 $313 reversed single #
loop $-1 $-1 $260 $157 #
plane-surface $-1 0 289.06643879512922 0 0 -1 0 0 0 -1 forward_v I I I I #
coedge $-1 $314 $258 $261 $315 forward $158 $-1 #
coedge $-1 $264 $160 $161 $252 reversed $97 $-1 #
coedge $-1 $258 $314 $160 $250 reversed $158 $-1 #
edge $-1 $265 -144.53321939756461 $316 144.53321939756461 $249 $317 forward 7 unknown #
coedge $-1 $162 $161 $314 $318 forward $62 $-1 #
edge $-1 $256 -18.788171677692702 $316 18.788171677692702 $248 $319 forward 7 unknown #
coedge $-1 $261 $260 $162 $254 reversed $245 $-1 #
edge $-1 $320 -18.788171677692702 $255 18.788171677692702 $253 $321 forward 7 unknown #
vertex $-1 $164 $322 #
vertex $-1 $267 $323 #
straight-curve $-1 18.788171677692702 0 -144.53321939756461 0 -1 0 I I #
coedge $-1 $247 $249 $165 $259 reversed $158 $-1 #
edge $-1 $262 -289.06643879512922 $265 289.06643879512922 $258 $324 forward 7 unknown #
coedge $-1 $253 $166 $171 $268 forward $245 $-1 #
coedge $-1 $166 $253 $247 $315 reversed $245 $-1 #
vertex $-1 $167 $325 #
straight-curve $-1 0 289.06643879512922 144.53321939756461 -1 0 0 I I #
coedge $-1 $168 $248 $170 $267 reversed $97 $-1 #
vertex $-1 $259 $326 #
straight-curve $-1 0 -289.06643879512922 144.53321939756461 1 0 0 I I #
edge $-1 $173 -144.53321939756461 $256 144.53321939756461 $170 $327 forward 7 unknown #
edge $-1 $174 -144.53321939756461 $255 144.53321939756461 $171 $328 forward 7 unknown #
point $-1 18.788171677692702 -289.06643879512922 144.53321939756461 #
point $-1 18.788171677692702 289.06643879512922 144.53321939756461 #
coedge $-1 $271 $271 $-1 $329 reversed $176 $-1 #
vertex $-1 $178 $330 #
ellipse-curve $-1 0 0 -1 0 0 -1 2 0 0 1 I I #
point $-1 2 0 -8.6511734366893513 #
coedge $-1 $275 $275 $-1 $331 reversed $181 $-1 #
vertex $-1 $183 $332 #
ellipse-curve $-1 0 0 -1 0 0 -1 2 0 0 1 I I #
point $-1 2 0 -8.6511734366893513 #
plane-surface $-1 72.266609698782304 0 0 -1 0 0 0 0 1 forward_v I I I I #
coedge $-1 $191 $189 $193 $284 reversed $115 $-1 #
edge $-1 $204 -12.491953865502715 $286 12.491953865502715 $203 $333 forward 7 unknown #
vertex $-1 $284 $334 #
straight-curve $-1 -72.266609698782304 -42.345891075182337 0 0 0 -1 I I #
edge $-1 $282 -42.345891075182337 $286 42.345891075182337 $280 $335 forward 7 unknown #
straight-curve $-1 0 -42.345891075182337 -12.491953865502715 -1 0 0 I I #
vertex $-1 $196 $336 #
straight-curve $-1 0 42.345891075182337 -12.491953865502715 1 0 0 I I #
point $-1 72.266609698782304 42.345891075182337 -12.491953865502715 #
point $-1 72.266609698782304 -42.345891075182337 -12.491953865502715 #
straight-curve $-1 -72.266609698782304 0 12.491953865502715 0 -1 0 I I #
point $-1 -72.266609698782304 42.345891075182337 12.491953865502715 #
point $-1 -72.266609698782304 -42.345891075182337 12.491953865502715 #
straight-curve $-1 72.266609698782304 -42.345891075182337 0 0 0 -1 I I #
straight-curve $-1 72.266609698782304 42.345891075182337 0 0 0 -1 I I #
plane-surface $-1 18.620556017513014 0 0 -1 0 0 0 0 1 forward_v I I I I #
coedge $-1 $218 $216 $220 $300 reversed $134 $-1 #
edge $-1 $231 -144.53321939756461 $302 144.53321939756461 $230 $337 forward 7 unknown #
vertex $-1 $300 $338 #
straight-curve $-1 -18.620556017513014 -289.06643879512922 0 0 0 -1 I I #
edge $-1 $298 -289.06643879512922 $302 289.06643879512922 $296 $339 forward 7 unknown #
straight-curve $-1 0 -289.06643879512922 -144.53321939756461 -1 0 0 I I #
vertex $-1 $223 $340 #
straight-curve $-1 0 289.06643879512922 -144.53321939756461 1 0 0 I I #
point $-1 18.620556017513014 289.06643879512922 -144.53321939756461 #
point $-1 18.620556017513014 -289.06643879512922 -144.53321939756461 #
straight-curve $-1 -18.620556017513014 0 144.53321939756461 0 -1 0 I I #
point $-1 -18.620556017513014 289.06643879512922 144.53321939756461 #
point $-1 -18.620556017513014 -289.06643879512922 144.53321939756461 #
straight-curve $-1 18.620556017513014 -289.06643879512922 0 0 0 -1 I I #
straight-curve $-1 18.620556017513014 289.06643879512922 0 0 0 -1 I I #
edge $-1 $341 1 $341 0 $240 $-1 forward 7 unknown #
point $-1 0.5 0 -0.25 #
plane-surface $-1 18.788171677692702 0 0 -1 0 0 0 0 1 forward_v I I I I #
coedge $-1 $249 $247 $251 $318 reversed $158 $-1 #
edge $-1 $262 -144.53321939756461 $320 144.53321939756461 $261 $342 forward 7 unknown #
vertex $-1 $318 $343 #
straight-curve $-1 -18.788171677692702 -289.06643879512922 0 0 0 -1 I I #
edge $-1 $316 -289.06643879512922 $320 289.06643879512922 $314 $344 forward 7 unknown #
straight-curve $-1 0 -289.06643879512922 -144.53321939756461 -1 0 0 I I #
vertex $-1 $254 $345 #
straight-curve $-1 0 289.06643879512922 -144.53321939756461 1 0 0 I I #
point $-1 18.788171677692702 289.06643879512922 -144.53321939756461 #
point $-1 18.788171677692702 -289.06643879512922 -144.53321939756461 #
straight-curve $-1 -18.788171677692702 0 144.53321939756461 0 -1 0 I I #
point $-1 -18.788171677692702 289.06643879512922 144.53321939756461 #
point $-1 -18.788171677692702 -289.06643879512922 144.53321939756461 #
straight-curve $-1 18.788171677692702 -289.06643879512922 0 0 0 -1 I I #
straight-curve $-1 18.788171677692702 289.06643879512922 0 0 0 -1 I I #
edge $-1 $346 1 $346 0 $271 $-1 forward 7 unknown #
point $-1 2 0 -1 #
edge $-1 $347 1 $347 0 $275 $-1 forward 7 unknown #
point $-1 2 0 -1 #
straight-curve $-1 -72.266609698782304 42.345891075182337 0 0 0 -1 I I #
point $-1 -72.266609698782304 -42.345891075182337 -12.491953865502715 #
straight-curve $-1 -72.266609698782304 0 -12.491953865502715 0 1 0 I I #
point $-1 -72.266609698782304 42.345891075182337 -12.491953865502715 #
straight-curve $-1 -18.620556017513014 289.06643879512922 0 0 0 -1 I I #
point $-1 -18.620556017513014 -289.06643879512922 -144.53321939756461 #
straight-curve $-1 -18.620556017513014 0 -144.53321939756461 0 1 0 I I #
point $-1 -18.620556017513014 289.06643879512922 -144.53321939756461 #
vertex $-1 $311 $348 #
straight-curve $-1 -18.788171677692702 289.06643879512922 0 0 0 -1 I I #
point $-1 -18.788171677692702 -289.06643879512922 -144.53321939756461 #
straight-curve $-1 -18.788171677692702 0 -144.53321939756461 0 1 0 I I #
point $-1 -18.788171677692702 289.06643879512922 -144.53321939756461 #
vertex $-1 $329 $349 #
vertex $-1 $331 $350 #
point $-1 0 0 0.25 #
point $-1 0 0 1 #
point $-1 0 0 1 #
End-of-ACIS-data 