500 0 15 0           
7 Unknown 11 ACIS 5.0 NT 24 Thu Mar 25 22:57:36 1999 
-1 9.9999999999999995e-007 1e-010 
body $-1 $15 $-1 $16 #
body $-1 $17 $-1 $18 #
body $-1 $19 $-1 $20 #
body $-1 $21 $-1 $22 #
body $-1 $23 $-1 $24 #
body $-1 $25 $-1 $26 #
body $-1 $27 $-1 $28 #
body $-1 $29 $-1 $30 #
body $-1 $31 $-1 $32 #
body $-1 $33 $-1 $34 #
body $-1 $35 $-1 $36 #
body $-1 $37 $-1 $38 #
body $-1 $39 $-1 $40 #
body $-1 $41 $-1 $42 #
body $-1 $43 $-1 $44 #
lump $-1 $-1 $45 $0 #
transform $-1 1 0 0 0 1 0 0 0 1 55.834223456526388 34.980608737276491 14.783409275580039 1 rotate no_reflect no_shear #
lump $-1 $-1 $46 $1 #
transform $-1 1 0 0 0 1 0 0 0 1 55.834223456526388 34.980608737276491 14.783409275580039 1 rotate no_reflect no_shear #
lump $-1 $-1 $47 $2 #
transform $-1 1 0 0 0 1 0 0 0 1 55.834223456526388 34.980608737276491 14.783409275580039 1 rotate no_reflect no_shear #
lump $-1 $-1 $48 $3 #
transform $-1 1 0 0 0 1 0 0 0 1 55.834223456526388 34.980608737276491 14.783409275580039 1 rotate no_reflect no_shear #
lump $-1 $-1 $49 $4 #
transform $-1 1 0 0 0 1 0 0 0 1 55.834223456526388 34.980608737276491 14.783409275580039 1 rotate no_reflect no_shear #
lump $-1 $-1 $50 $5 #
transform $-1 1 0 0 0 1 0 0 0 1 55.834223456526388 34.980608737276491 14.783409275580039 1 rotate no_reflect no_shear #
lump $-1 $-1 $51 $6 #
transform $-1 1 0 0 0 1 0 0 0 1 55.834223456526388 34.980608737276491 14.783409275580039 1 rotate no_reflect no_shear #
lump $-1 $-1 $52 $7 #
transform $-1 1 0 0 0 1 0 0 0 1 55.834223456526388 34.980608737276491 14.783409275580039 1 rotate no_reflect no_shear #
lump $-1 $-1 $53 $8 #
transform $-1 1 0 0 0 1 0 0 0 1 55.834223456526388 34.980608737276491 14.783409275580039 1 rotate no_reflect no_shear #
lump $-1 $-1 $54 $9 #
transform $-1 1 0 0 0 1 0 0 0 1 55.834223456526388 34.980608737276491 14.783409275580039 1 rotate no_reflect no_shear #
lump $-1 $-1 $55 $10 #
transform $-1 1 0 0 0 1 0 0 0 1 55.834223456526388 34.980608737276491 14.783409275580039 1 rotate no_reflect no_shear #
lump $-1 $-1 $56 $11 #
transform $-1 1 0 0 0 1 0 0 0 1 55.834223456526388 34.980608737276491 14.783409275580039 1 rotate no_reflect no_shear #
lump $-1 $-1 $57 $12 #
transform $-1 1 0 0 0 1 0 0 0 1 55.834223456526388 34.980608737276491 14.783409275580039 1 rotate no_reflect no_shear #
lump $-1 $-1 $58 $13 #
transform $-1 1 0 0 0 1 0 0 0 1 55.834223456526388 34.980608737276491 14.783409275580039 1 rotate no_reflect no_shear #
lump $-1 $-1 $59 $14 #
transform $-1 1 0 0 0 1 0 0 0 1 55.834223456526388 34.980608737276491 14.783409275580039 1 rotate no_reflect no_shear #
shell $-1 $-1 $-1 $60 $-1 $15 #
shell $-1 $-1 $-1 $61 $-1 $17 #
shell $-1 $-1 $-1 $62 $-1 $19 #
shell $-1 $-1 $-1 $63 $-1 $21 #
shell $-1 $-1 $-1 $64 $-1 $23 #
shell $-1 $-1 $-1 $65 $-1 $25 #
shell $-1 $-1 $-1 $66 $-1 $27 #
shell $-1 $-1 $-1 $67 $-1 $29 #
shell $-1 $-1 $-1 $68 $-1 $31 #
shell $-1 $-1 $-1 $69 $-1 $33 #
shell $-1 $-1 $-1 $70 $-1 $35 #
shell $-1 $-1 $-1 $71 $-1 $37 #
shell $-1 $-1 $-1 $72 $-1 $39 #
shell $-1 $-1 $-1 $73 $-1 $41 #
shell $-1 $-1 $-1 $74 $-1 $43 #
face $-1 $75 $76 $45 $-1 $77 forward single #
face $-1 $78 $79 $46 $-1 $80 reversed single #
face $-1 $81 $82 $47 $-1 $83 reversed single #
face $-1 $84 $85 $48 $-1 $86 reversed single #
face $-1 $87 $88 $49 $-1 $89 forward single #
face $-1 $90 $91 $50 $-1 $92 forward single #
face $-1 $93 $94 $51 $-1 $95 reversed single #
face $-1 $96 $97 $52 $-1 $98 forward single #
face $-1 $99 $100 $53 $-1 $101 forward single #
face $-1 $102 $103 $54 $-1 $104 reversed single #
face $-1 $105 $106 $55 $-1 $107 forward single #
face $-1 $108 $109 $56 $-1 $110 forward single #
face $-1 $111 $112 $57 $-1 $113 reversed single #
face $-1 $114 $115 $58 $-1 $116 forward single #
face $-1 $117 $118 $59 $-1 $119 forward single #
face $-1 $120 $121 $45 $-1 $122 reversed single #
loop $-1 $-1 $123 $60 #
plane-surface $-1 0 0 14.783409275580039 0 0 1 1 0 0 forward_v I I I I #
face $-1 $124 $125 $46 $-1 $126 reversed single #
loop $-1 $-1 $127 $61 #
plane-surface $-1 -52.151387323354832 -18.607095292286992 0 0 -1 0 0 0 -1 forward_v I I I I #
face $-1 $128 $129 $47 $-1 $130 reversed single #
loop $-1 $-1 $131 $62 #
plane-surface $-1 -52.151387323354832 18.607095292286992 0 0 1 0 0 0 1 forward_v I I I I #
face $-1 $132 $133 $48 $-1 $134 reversed single #
loop $-1 $-1 $135 $63 #
plane-surface $-1 -150.53443814681623 -16.012473173050097 63.569000296785589 0 1 0 -0.84804810408105047 0 0.52991925155115449 forward_v I I I I #
face $-1 $136 $137 $49 $-1 $138 forward single #
loop $-1 $139 $140 $64 #
cone-surface $-1 -51.318142040816539 -13.846825485921386 8.7949978776625528 0.84804810408105047 0 -0.52991925155115449 0.52991925155115449 0 0.84804810408105047 1 I I 0 1 1 forward I I I I #
face $-1 $141 $142 $50 $-1 $143 forward single #
loop $-1 $144 $145 $65 #
cone-surface $-1 -51.318142040816539 -10.598353955228312 8.7949978776625528 0.84804810408105047 0 -0.52991925155115449 0.52991925155115449 0 0.84804810408105047 1 I I 0 1 1 forward I I I I #
face $-1 $146 $147 $51 $-1 $148 reversed single #
loop $-1 $-1 $149 $66 #
plane-surface $-1 -150.53443814681623 -3.6077429781921015 63.569000296785589 0 1 0 -0.84804810408105047 0 0.52991925155115449 forward_v I I I I #
face $-1 $150 $151 $52 $-1 $152 forward single #
loop $-1 $153 $154 $67 #
cone-surface $-1 -51.318142040816539 -1.4420952910633886 8.7949978776625528 0.84804810408105047 0 -0.52991925155115449 0.52991925155115449 0 0.84804810408105047 1 I I 0 1 1 forward I I I I #
face $-1 $155 $156 $53 $-1 $157 forward single #
loop $-1 $158 $159 $68 #
cone-surface $-1 -51.318142040816539 1.8063762396296852 8.7949978776625528 0.84804810408105047 0 -0.52991925155115449 0.52991925155115449 0 0.84804810408105047 1 I I 0 1 1 forward I I I I #
face $-1 $160 $161 $54 $-1 $162 reversed single #
loop $-1 $-1 $163 $69 #
plane-surface $-1 -150.53443814681623 8.7969872166658956 63.569000296785589 0 1 0 -0.84804810408105047 0 0.52991925155115449 forward_v I I I I #
face $-1 $164 $165 $55 $-1 $166 forward single #
loop $-1 $167 $168 $70 #
cone-surface $-1 -51.318142040816539 10.962634903794608 8.7949978776625528 0.84804810408105047 0 -0.52991925155115449 0.52991925155115449 0 0.84804810408105047 1 I I 0 1 1 forward I I I I #
face $-1 $169 $170 $56 $-1 $171 forward single #
loop $-1 $172 $173 $71 #
cone-surface $-1 -51.318142040816539 14.211106434487682 8.7949978776625528 0.84804810408105047 0 -0.52991925155115449 0.52991925155115449 0 0.84804810408105047 1 I I 0 1 1 forward I I I I #
face $-1 $174 $175 $57 $-1 $176 reversed single #
loop $-1 $-1 $177 $72 #
plane-surface $-1 83.2572724001528 -3.3941996032287829 165.34555135328912 0 -1 0 -0.81915205242281985 0 -0.57357642473473569 forward_v I I I I #
face $-1 $178 $179 $58 $-1 $180 forward single #
loop $-1 $181 $182 $73 #
cone-surface $-1 52.074800913994892 -11.034432924029339 10.886524797963501 -0.81915205242281985 0 -0.57357642473473569 0.86036463710210354 0 -1.2287280786342298 1 I I 0 1 1.5 forward I I I I #
face $-1 $183 $184 $59 $-1 $185 forward single #
loop $-1 $186 $187 $74 #
cone-surface $-1 52.074800913994892 -6.4502929315490043 10.886524797963501 -0.81915205242281985 0 -0.57357642473473569 0.86036463710210354 0 -1.2287280786342298 1 I I 0 1 1.5 forward I I I I #
face $-1 $188 $189 $45 $-1 $190 reversed single #
loop $-1 $-1 $191 $75 #
plane-surface $-1 0 0 -14.783409275580039 0 0 1 1 0 0 forward_v I I I I #
coedge $-1 $192 $193 $194 $195 forward $76 $-1 #
face $-1 $196 $197 $46 $-1 $198 forward single #
loop $-1 $-1 $199 $78 #
plane-surface $-1 -48.468551190183277 -26.793852014781741 0 -1 0 0 0 0 1 forward_v I I I I #
coedge $-1 $200 $201 $202 $203 forward $79 $-1 #
face $-1 $204 $205 $47 $-1 $206 reversed single #
loop $-1 $-1 $207 $81 #
plane-surface $-1 -48.468551190183277 26.793852014781741 0 -1 0 0 0 0 1 forward_v I I I I #
coedge $-1 $208 $209 $210 $211 reversed $82 $-1 #
face $-1 $212 $213 $48 $-1 $214 reversed single #
loop $-1 $-1 $215 $84 #
plane-surface $-1 -55.834223456526388 -12.222589720574845 4.3937404867408318 -0.84804810408105047 0 0.52991925155115449 0.52991925155115449 0 0.84804810408105047 forward_v I I I I #
coedge $-1 $216 $217 $218 $219 reversed $85 $-1 #
face $-1 $-1 $220 $49 $-1 $221 forward single #
loop $-1 $222 $223 $87 #
cone-surface $-1 -49.624129266364527 -13.846825485921386 7.7364612483890927 0.84804810408105047 0 -0.52991925155115449 0.26495962577557725 0 0.42402405204052523 1 I I -0.70710678118654746 0.70710678118654746 0.5 forward I I I I #
loop $-1 $-1 $224 $64 #
coedge $-1 $140 $140 $225 $226 reversed $88 $-1 #
face $-1 $-1 $227 $50 $-1 $228 forward single #
loop $-1 $229 $230 $90 #
cone-surface $-1 -49.624129266364527 -10.598353955228312 7.7364612483890927 0.84804810408105047 0 -0.52991925155115449 0.26495962577557725 0 0.42402405204052523 1 I I -0.70710678118654746 0.70710678118654746 0.5 forward I I I I #
loop $-1 $-1 $231 $65 #
coedge $-1 $145 $145 $232 $233 reversed $91 $-1 #
face $-1 $234 $235 $51 $-1 $236 reversed single #
loop $-1 $-1 $237 $93 #
plane-surface $-1 -55.834223456526388 0.18214047428315183 4.3937404867408318 -0.84804810408105047 0 0.52991925155115449 0.52991925155115449 0 0.84804810408105047 forward_v I I I I #
coedge $-1 $238 $239 $240 $241 reversed $94 $-1 #
face $-1 $-1 $242 $52 $-1 $243 forward single #
loop $-1 $244 $245 $96 #
cone-surface $-1 -49.624129266364527 -1.4420952910633886 7.7364612483890927 0.84804810408105047 0 -0.52991925155115449 0.26495962577557725 0 0.42402405204052523 1 I I -0.70710678118654746 0.70710678118654746 0.5 forward I I I I #
loop $-1 $-1 $246 $67 #
coedge $-1 $154 $154 $247 $248 reversed $97 $-1 #
face $-1 $-1 $249 $53 $-1 $250 forward single #
loop $-1 $251 $252 $99 #
cone-surface $-1 -49.624129266364527 1.8063762396296852 7.7364612483890927 0.84804810408105047 0 -0.52991925155115449 0.26495962577557725 0 0.42402405204052523 1 I I -0.70710678118654746 0.70710678118654746 0.5 forward I I I I #
loop $-1 $-1 $253 $68 #
coedge $-1 $159 $159 $254 $255 reversed $100 $-1 #
face $-1 $256 $257 $54 $-1 $258 reversed single #
loop $-1 $-1 $259 $102 #
plane-surface $-1 -55.834223456526388 12.586870669141149 4.3937404867408318 -0.84804810408105047 0 0.52991925155115449 0.52991925155115449 0 0.84804810408105047 forward_v I I I I #
coedge $-1 $260 $261 $262 $263 reversed $103 $-1 #
face $-1 $-1 $264 $55 $-1 $265 forward single #
loop $-1 $266 $267 $105 #
cone-surface $-1 -49.624129266364527 10.962634903794608 7.7364612483890927 0.84804810408105047 0 -0.52991925155115449 0.26495962577557725 0 0.42402405204052523 1 I I -0.70710678118654746 0.70710678118654746 0.5 forward I I I I #
loop $-1 $-1 $268 $70 #
coedge $-1 $168 $168 $269 $270 reversed $106 $-1 #
face $-1 $-1 $271 $56 $-1 $272 forward single #
loop $-1 $273 $274 $108 #
cone-surface $-1 -49.624129266364527 14.211106434487682 7.7364612483890927 0.84804810408105047 0 -0.52991925155115449 0.26495962577557725 0 0.42402405204052523 1 I I -0.70710678118654746 0.70710678118654746 0.5 forward I I I I #
loop $-1 $-1 $275 $71 #
coedge $-1 $173 $173 $276 $277 reversed $109 $-1 #
face $-1 $278 $279 $57 $-1 $280 reversed single #
loop $-1 $-1 $281 $111 #
plane-surface $-1 -8.2161650795430887 -8.7423629277891735 101.29516281721968 0.81915205242281985 0 0.57357642473473569 0.57357642473473569 0 -0.81915205242281985 forward_v I I I I #
coedge $-1 $282 $283 $284 $285 reversed $112 $-1 #
face $-1 $-1 $286 $58 $-1 $287 forward single #
loop $-1 $288 $289 $114 #
cone-surface $-1 49.43811852753754 -11.034432924029339 9.040299970824039 -0.81915205242281985 0 -0.57357642473473569 0.43018231855105177 0 -0.61436403931711492 1 I I -0.70710678118654757 0.70710678118654757 0.75 forward I I I I #
loop $-1 $-1 $290 $73 #
coedge $-1 $182 $182 $291 $292 reversed $115 $-1 #
face $-1 $-1 $293 $59 $-1 $294 forward single #
loop $-1 $295 $296 $117 #
cone-surface $-1 49.43811852753754 -6.4502929315490043 9.040299970824039 -0.81915205242281985 0 -0.57357642473473569 0.43018231855105177 0 -0.61436403931711492 1 I I -0.70710678118654757 0.70710678118654757 0.75 forward I I I I #
loop $-1 $-1 $297 $74 #
coedge $-1 $187 $187 $298 $299 reversed $118 $-1 #
face $-1 $300 $301 $45 $-1 $302 reversed single #
loop $-1 $-1 $303 $120 #
plane-surface $-1 0 -34.980608737276491 0 0 1 0 0 0 1 forward_v I I I I #
coedge $-1 $304 $305 $306 $307 forward $121 $-1 #
coedge $-1 $308 $123 $309 $310 forward $76 $-1 #
coedge $-1 $123 $308 $311 $312 forward $76 $-1 #
coedge $-1 $313 $314 $123 $195 reversed $315 $-1 #
edge $-1 $316 -34.980608737276491 $317 34.980608737276491 $194 $318 forward 7 unknown #
face $-1 $319 $320 $46 $-1 $321 reversed single #
loop $-1 $-1 $322 $124 #
plane-surface $-1 0 0 14.783409275580039 0 0 1 1 0 0 forward_v I I I I #
coedge $-1 $323 $324 $325 $326 reversed $125 $-1 #
coedge $-1 $327 $127 $328 $329 reversed $79 $-1 #
coedge $-1 $127 $327 $330 $331 reversed $79 $-1 #
coedge $-1 $324 $323 $127 $203 reversed $125 $-1 #
edge $-1 $332 -14.783409275580039 $333 14.783409275580039 $202 $334 forward 7 unknown #
face $-1 $335 $336 $47 $-1 $337 reversed single #
loop $-1 $-1 $338 $128 #
plane-surface $-1 0 0 -14.783409275580039 0 0 1 1 0 0 forward_v I I I I #
coedge $-1 $339 $340 $341 $342 forward $129 $-1 #
coedge $-1 $341 $131 $343 $344 reversed $82 $-1 #
coedge $-1 $131 $341 $345 $346 reversed $82 $-1 #
coedge $-1 $347 $348 $131 $211 forward $336 $-1 #
edge $-1 $349 -14.783409275580039 $350 14.783409275580039 $210 $351 forward 7 unknown #
face $-1 $352 $353 $48 $-1 $354 forward single #
loop $-1 $-1 $355 $132 #
plane-surface $-1 -150.53443814681623 -8.4327062680995919 63.569000296785589 0 -1 0 0.84804810408105047 0 -0.52991925155115449 forward_v I I I I #
coedge $-1 $356 $357 $358 $359 reversed $133 $-1 #
coedge $-1 $217 $135 $360 $361 reversed $85 $-1 #
coedge $-1 $135 $216 $356 $362 reversed $85 $-1 #
coedge $-1 $358 $363 $135 $219 forward $353 $-1 #
edge $-1 $364 19.432995616881726 $365 25.925181003478457 $218 $366 forward 7 unknown #
loop $-1 $-1 $225 $136 #
plane-surface $-1 -55.834223456526388 -12.222589720574845 4.3937404867408318 -0.84804810408105047 0 0.52991925155115449 0.52991925155115449 0 0.84804810408105047 forward_v I I I I #
loop $-1 $-1 $367 $87 #
coedge $-1 $223 $223 $224 $368 reversed $137 $-1 #
coedge $-1 $224 $224 $223 $368 forward $139 $-1 #
coedge $-1 $225 $225 $140 $226 forward $220 $-1 #
edge $-1 $369 0 $369 6.2831853071796004 $225 $370 forward 7 unknown #
loop $-1 $-1 $232 $141 #
plane-surface $-1 -55.834223456526388 -12.222589720574845 4.3937404867408318 -0.84804810408105047 0 0.52991925155115449 0.52991925155115449 0 0.84804810408105047 forward_v I I I I #
loop $-1 $-1 $371 $90 #
coedge $-1 $230 $230 $231 $372 reversed $142 $-1 #
coedge $-1 $231 $231 $230 $372 forward $144 $-1 #
coedge $-1 $232 $232 $145 $233 forward $227 $-1 #
edge $-1 $373 0 $373 6.2831853071796004 $232 $374 forward 7 unknown #
face $-1 $375 $376 $51 $-1 $377 forward single #
loop $-1 $-1 $378 $146 #
plane-surface $-1 -150.53443814681623 3.9720239267584052 63.569000296785589 0 -1 0 0.84804810408105047 0 -0.52991925155115449 forward_v I I I I #
coedge $-1 $379 $380 $381 $382 reversed $147 $-1 #
coedge $-1 $239 $149 $383 $384 reversed $94 $-1 #
coedge $-1 $149 $238 $379 $385 reversed $94 $-1 #
coedge $-1 $381 $386 $149 $241 forward $376 $-1 #
edge $-1 $387 19.432995616881726 $388 25.925181003478457 $240 $389 forward 7 unknown #
loop $-1 $-1 $247 $150 #
plane-surface $-1 -55.834223456526388 0.18214047428315183 4.3937404867408318 -0.84804810408105047 0 0.52991925155115449 0.52991925155115449 0 0.84804810408105047 forward_v I I I I #
loop $-1 $-1 $390 $96 #
coedge $-1 $245 $245 $246 $391 reversed $151 $-1 #
coedge $-1 $246 $246 $245 $391 forward $153 $-1 #
coedge $-1 $247 $247 $154 $248 forward $242 $-1 #
edge $-1 $392 0 $392 6.2831853071796004 $247 $393 forward 7 unknown #
loop $-1 $-1 $254 $155 #
plane-surface $-1 -55.834223456526388 0.18214047428315183 4.3937404867408318 -0.84804810408105047 0 0.52991925155115449 0.52991925155115449 0 0.84804810408105047 forward_v I I I I #
loop $-1 $-1 $394 $99 #
coedge $-1 $252 $252 $253 $395 reversed $156 $-1 #
coedge $-1 $253 $253 $252 $395 forward $158 $-1 #
coedge $-1 $254 $254 $159 $255 forward $249 $-1 #
edge $-1 $396 0 $396 6.2831853071796004 $254 $397 forward 7 unknown #
face $-1 $398 $399 $54 $-1 $400 forward single #
loop $-1 $-1 $401 $160 #
plane-surface $-1 -150.53443814681623 16.376754121616401 63.569000296785589 0 -1 0 0.84804810408105047 0 -0.52991925155115449 forward_v I I I I #
coedge $-1 $402 $403 $404 $405 reversed $161 $-1 #
coedge $-1 $261 $163 $406 $407 reversed $103 $-1 #
coedge $-1 $163 $260 $402 $408 reversed $103 $-1 #
coedge $-1 $404 $409 $163 $263 forward $399 $-1 #
edge $-1 $410 19.432995616881726 $411 25.925181003478457 $262 $412 forward 7 unknown #
loop $-1 $-1 $269 $164 #
plane-surface $-1 -55.834223456526388 12.586870669141149 4.3937404867408318 -0.84804810408105047 0 0.52991925155115449 0.52991925155115449 0 0.84804810408105047 forward_v I I I I #
loop $-1 $-1 $413 $105 #
coedge $-1 $267 $267 $268 $414 reversed $165 $-1 #
coedge $-1 $268 $268 $267 $414 forward $167 $-1 #
coedge $-1 $269 $269 $168 $270 forward $264 $-1 #
edge $-1 $415 0 $415 6.2831853071796004 $269 $416 forward 7 unknown #
loop $-1 $-1 $276 $169 #
plane-surface $-1 -55.834223456526388 12.586870669141149 4.3937404867408318 -0.84804810408105047 0 0.52991925155115449 0.52991925155115449 0 0.84804810408105047 forward_v I I I I #
loop $-1 $-1 $417 $108 #
coedge $-1 $274 $274 $275 $418 reversed $170 $-1 #
coedge $-1 $275 $275 $274 $418 forward $172 $-1 #
coedge $-1 $276 $276 $173 $277 forward $271 $-1 #
edge $-1 $419 0 $419 6.2831853071796004 $276 $420 forward 7 unknown #
face $-1 $421 $422 $57 $-1 $423 reversed single #
loop $-1 $-1 $424 $174 #
plane-surface $-1 83.2572724001528 -14.090526252349564 165.34555135328912 0 1 0 0.81915205242281985 0 0.57357642473473569 forward_v I I I I #
coedge $-1 $425 $426 $427 $428 reversed $175 $-1 #
coedge $-1 $283 $177 $429 $430 reversed $112 $-1 #
coedge $-1 $177 $282 $425 $431 reversed $112 $-1 #
coedge $-1 $427 $432 $177 $285 forward $433 $-1 #
edge $-1 $434 -14.205587256449988 $435 -10.731378865667452 $284 $436 forward 7 unknown #
loop $-1 $-1 $291 $178 #
plane-surface $-1 -8.2161650795430887 -8.7423629277891735 101.29516281721968 0.81915205242281985 0 0.57357642473473569 0.57357642473473569 0 -0.81915205242281985 forward_v I I I I #
loop $-1 $-1 $437 $114 #
coedge $-1 $289 $289 $290 $438 reversed $179 $-1 #
coedge $-1 $290 $290 $289 $438 forward $181 $-1 #
coedge $-1 $291 $291 $182 $292 forward $286 $-1 #
edge $-1 $439 0 $439 6.2831853071796004 $291 $440 forward 7 unknown #
loop $-1 $-1 $298 $183 #
plane-surface $-1 -8.2161650795430887 -8.7423629277891735 101.29516281721968 0.81915205242281985 0 0.57357642473473569 0.57357642473473569 0 -0.81915205242281985 forward_v I I I I #
loop $-1 $-1 $441 $117 #
coedge $-1 $296 $296 $297 $442 reversed $184 $-1 #
coedge $-1 $297 $297 $296 $442 forward $186 $-1 #
coedge $-1 $298 $298 $187 $299 forward $293 $-1 #
edge $-1 $443 0 $443 6.2831853071796004 $298 $444 forward 7 unknown #
face $-1 $445 $446 $45 $-1 $447 reversed single #
loop $-1 $-1 $448 $188 #
plane-surface $-1 -55.834223456526388 0 0 1 0 0 0 0 -1 forward_v I I I I #
coedge $-1 $449 $311 $450 $451 forward $189 $-1 #
coedge $-1 $452 $191 $449 $453 forward $121 $-1 #
coedge $-1 $191 $452 $454 $455 forward $121 $-1 #
coedge $-1 $314 $313 $191 $307 reversed $315 $-1 #
edge $-1 $456 -34.980608737276491 $457 34.980608737276491 $306 $458 forward 7 unknown #
coedge $-1 $193 $192 $459 $460 forward $76 $-1 #
coedge $-1 $461 $462 $192 $310 reversed $446 $-1 #
edge $-1 $317 -55.834223456526388 $463 55.834223456526388 $309 $464 forward 7 unknown #
coedge $-1 $303 $465 $193 $312 reversed $189 $-1 #
edge $-1 $466 -55.834223456526388 $316 55.834223456526388 $311 $467 forward 7 unknown #
coedge $-1 $306 $194 $465 $468 forward $315 $-1 #
coedge $-1 $194 $306 $461 $469 reversed $315 $-1 #
loop $-1 $-1 $313 $445 #
vertex $-1 $195 $470 #
vertex $-1 $195 $471 #
straight-curve $-1 55.834223456526388 0 14.783409275580039 0 1 0 I I #
face $-1 $472 $473 $46 $-1 $474 reversed single #
loop $-1 $-1 $475 $196 #
plane-surface $-1 -55.834223456526388 0 0 1 0 0 0 0 -1 forward_v I I I I #
coedge $-1 $330 $476 $324 $477 forward $197 $-1 #
coedge $-1 $202 $199 $478 $479 reversed $125 $-1 #
coedge $-1 $199 $202 $322 $477 reversed $125 $-1 #
coedge $-1 $480 $481 $199 $326 forward $482 $-1 #
edge $-1 $483 -14.783409275580039 $484 14.783409275580039 $325 $485 forward 7 unknown #
coedge $-1 $201 $200 $475 $486 reversed $79 $-1 #
coedge $-1 $478 $487 $200 $329 forward $473 $-1 #
edge $-1 $488 -29.758529794848972 $333 -22.392857528505861 $328 $489 forward 7 unknown #
coedge $-1 $490 $322 $201 $331 forward $197 $-1 #
edge $-1 $332 22.392857528505861 $491 29.758529794848972 $330 $492 forward 7 unknown #
vertex $-1 $331 $493 #
vertex $-1 $329 $494 #
straight-curve $-1 -48.468551190183277 -18.607095292286992 0 0 0 -1 I I #
face $-1 $495 $496 $47 $-1 $497 forward single #
loop $-1 $-1 $210 $204 #
plane-surface $-1 -55.834223456526388 0 0 1 0 0 0 0 -1 forward_v I I I I #
coedge $-1 $343 $498 $339 $499 forward $205 $-1 #
coedge $-1 $500 $207 $338 $499 reversed $129 $-1 #
coedge $-1 $207 $500 $501 $502 reversed $129 $-1 #
coedge $-1 $209 $208 $207 $342 reversed $82 $-1 #
edge $-1 $503 -14.783409275580039 $504 14.783409275580039 $207 $505 forward 7 unknown #
coedge $-1 $506 $338 $208 $344 forward $205 $-1 #
edge $-1 $504 22.392857528505861 $349 29.758529794848972 $343 $507 forward 7 unknown #
coedge $-1 $501 $508 $209 $346 forward $496 $-1 #
edge $-1 $350 -29.758529794848972 $503 -22.392857528505861 $345 $509 forward 7 unknown #
coedge $-1 $510 $210 $508 $511 reversed $336 $-1 #
coedge $-1 $210 $510 $506 $512 reversed $336 $-1 #
vertex $-1 $512 $513 #
vertex $-1 $211 $514 #
straight-curve $-1 -55.834223456526388 18.607095292286992 0 0 0 1 I I #
face $-1 $-1 $515 $48 $-1 $516 reversed single #
loop $-1 $-1 $218 $212 #
plane-surface $-1 0 0 14.783409275580039 0 0 1 1 0 0 forward_v I I I I #
coedge $-1 $517 $518 $519 $520 reversed $213 $-1 #
coedge $-1 $521 $215 $217 $362 forward $133 $-1 #
coedge $-1 $215 $521 $517 $522 forward $133 $-1 #
coedge $-1 $519 $218 $215 $359 forward $353 $-1 #
edge $-1 $365 -9.9011783127626742 $523 -2.3214114078121693 $358 $524 forward 7 unknown #
coedge $-1 $525 $526 $216 $361 forward $515 $-1 #
edge $-1 $527 -27.390759661651963 $364 -17.001090872812753 $360 $528 forward 7 unknown #
edge $-1 $365 -12.251272939401836 $527 0 $217 $529 forward 7 unknown #
coedge $-1 $218 $519 $525 $530 forward $353 $-1 #
vertex $-1 $219 $531 #
vertex $-1 $219 $532 #
straight-curve $-1 -75.267219073408114 -16.012473173050097 14.783409275580041 1 0 0 I I #
coedge $-1 $367 $367 $-1 $533 reversed $222 $-1 #
edge $-1 $534 0 $534 6.2831853071796004 $223 $535 forward 7 unknown #
vertex $-1 $226 $536 #
ellipse-curve $-1 -52.588130763228023 -13.846825485921386 9.5885748811604348 -0.84804810408105047 0 0.52991925155115449 0.52991925155115449 0 0.84804810408105047 1 I I #
coedge $-1 $371 $371 $-1 $537 reversed $229 $-1 #
edge $-1 $538 0 $538 6.2831853071796004 $230 $539 forward 7 unknown #
vertex $-1 $233 $540 #
ellipse-curve $-1 -52.588130763228023 -10.598353955228312 9.5885748811604348 -0.84804810408105047 0 0.52991925155115449 0.52991925155115449 0 0.84804810408105047 1 I I #
face $-1 $-1 $541 $51 $-1 $542 reversed single #
loop $-1 $-1 $240 $234 #
plane-surface $-1 0 0 14.783409275580039 0 0 1 1 0 0 forward_v I I I I #
coedge $-1 $543 $544 $545 $546 reversed $235 $-1 #
coedge $-1 $547 $237 $239 $385 forward $147 $-1 #
coedge $-1 $237 $547 $543 $548 forward $147 $-1 #
coedge $-1 $545 $240 $237 $382 forward $376 $-1 #
edge $-1 $388 -3.6988132153336775 $549 3.8809536896168293 $381 $550 forward 7 unknown #
coedge $-1 $551 $552 $238 $384 forward $541 $-1 #
edge $-1 $553 -27.390759661651963 $387 -17.001090872812753 $383 $554 forward 7 unknown #
edge $-1 $388 -12.251272939401836 $553 0 $239 $555 forward 7 unknown #
coedge $-1 $240 $545 $551 $556 forward $376 $-1 #
vertex $-1 $241 $557 #
vertex $-1 $241 $558 #
straight-curve $-1 -75.267219073408114 -3.6077429781921015 14.783409275580041 1 0 0 I I #
coedge $-1 $390 $390 $-1 $559 reversed $244 $-1 #
edge $-1 $560 0 $560 6.2831853071796004 $245 $561 forward 7 unknown #
vertex $-1 $248 $562 #
ellipse-curve $-1 -52.588130763228023 -1.4420952910633886 9.5885748811604348 -0.84804810408105047 0 0.52991925155115449 0.52991925155115449 0 0.84804810408105047 1 I I #
coedge $-1 $394 $394 $-1 $563 reversed $251 $-1 #
edge $-1 $564 0 $564 6.2831853071796004 $252 $565 forward 7 unknown #
vertex $-1 $255 $566 #
ellipse-curve $-1 -52.588130763228023 1.8063762396296852 9.5885748811604348 -0.84804810408105047 0 0.52991925155115449 0.52991925155115449 0 0.84804810408105047 1 I I #
face $-1 $-1 $567 $54 $-1 $568 reversed single #
loop $-1 $-1 $262 $256 #
plane-surface $-1 0 0 14.783409275580039 0 0 1 1 0 0 forward_v I I I I #
coedge $-1 $569 $570 $571 $572 reversed $257 $-1 #
coedge $-1 $573 $259 $261 $408 forward $161 $-1 #
coedge $-1 $259 $573 $569 $574 forward $161 $-1 #
coedge $-1 $571 $262 $259 $405 forward $399 $-1 #
edge $-1 $411 2.5035518820953211 $575 10.083318787045826 $404 $576 forward 7 unknown #
coedge $-1 $577 $578 $260 $407 forward $567 $-1 #
edge $-1 $579 -27.390759661651963 $410 -17.001090872812753 $406 $580 forward 7 unknown #
edge $-1 $411 -12.251272939401836 $579 0 $261 $581 forward 7 unknown #
coedge $-1 $262 $571 $577 $582 forward $399 $-1 #
vertex $-1 $263 $583 #
vertex $-1 $263 $584 #
straight-curve $-1 -75.267219073408114 8.7969872166658956 14.783409275580041 1 0 0 I I #
coedge $-1 $413 $413 $-1 $585 reversed $266 $-1 #
edge $-1 $586 0 $586 6.2831853071796004 $267 $587 forward 7 unknown #
vertex $-1 $270 $588 #
ellipse-curve $-1 -52.588130763228023 10.962634903794608 9.5885748811604348 -0.84804810408105047 0 0.52991925155115449 0.52991925155115449 0 0.84804810408105047 1 I I #
coedge $-1 $417 $417 $-1 $589 reversed $273 $-1 #
edge $-1 $590 0 $590 6.2831853071796004 $274 $591 forward 7 unknown #
vertex $-1 $277 $592 #
ellipse-curve $-1 -52.588130763228023 14.211106434487682 9.5885748811604348 -0.84804810408105047 0 0.52991925155115449 0.52991925155115449 0 0.84804810408105047 1 I I #
face $-1 $-1 $433 $57 $-1 $593 forward single #
loop $-1 $-1 $594 $278 #
plane-surface $-1 55.834223456526388 0 0 -1 0 0 0 0 1 forward_v I I I I #
coedge $-1 $595 $596 $597 $598 reversed $279 $-1 #
coedge $-1 $599 $281 $283 $431 forward $175 $-1 #
coedge $-1 $281 $599 $595 $600 forward $175 $-1 #
coedge $-1 $597 $284 $281 $428 forward $433 $-1 #
edge $-1 $435 -0.97698186066580384 $601 9.7193447884549773 $427 $602 forward 7 unknown #
coedge $-1 $603 $604 $282 $430 forward $422 $-1 #
edge $-1 $605 -72.851050339120818 $434 -67.889366401064521 $429 $606 forward 7 unknown #
edge $-1 $435 105.61134930415221 $605 111.66844691305285 $283 $607 forward 7 unknown #
coedge $-1 $284 $597 $603 $608 forward $433 $-1 #
loop $-1 $-1 $597 $421 #
vertex $-1 $430 $609 #
vertex $-1 $285 $610 #
straight-curve $-1 41.6286362000764 -3.3941996032287829 14.783409275580041 -1 0 0 I I #
coedge $-1 $437 $437 $-1 $611 reversed $288 $-1 #
edge $-1 $612 0 $612 6.2831853071796004 $289 $613 forward 7 unknown #
vertex $-1 $292 $614 #
ellipse-curve $-1 54.097119261135113 -11.034432924029339 12.302567306551904 0.81915205242281985 0 0.57357642473473569 0.86036463710210354 0 -1.2287280786342298 1 I I #
coedge $-1 $441 $441 $-1 $615 reversed $295 $-1 #
edge $-1 $616 0 $616 6.2831853071796004 $296 $617 forward 7 unknown #
vertex $-1 $299 $618 #
ellipse-curve $-1 54.097119261135113 -6.4502929315490043 12.302567306551904 0.81915205242281985 0 0.57357642473473569 0.86036463710210354 0 -1.2287280786342298 1 I I #
face $-1 $-1 $315 $45 $-1 $619 reversed single #
loop $-1 $-1 $461 $300 #
plane-surface $-1 0 34.980608737276491 0 0 -1 0 0 0 -1 forward_v I I I I #
coedge $-1 $620 $459 $462 $621 forward $301 $-1 #
coedge $-1 $465 $303 $304 $453 reversed $189 $-1 #
coedge $-1 $459 $620 $303 $451 reversed $301 $-1 #
edge $-1 $466 -14.783409275580039 $622 14.783409275580039 $450 $623 forward 7 unknown #
coedge $-1 $305 $304 $620 $624 forward $121 $-1 #
edge $-1 $457 -55.834223456526388 $622 55.834223456526388 $449 $625 forward 7 unknown #
coedge $-1 $462 $461 $305 $455 reversed $446 $-1 #
edge $-1 $626 -55.834223456526388 $456 55.834223456526388 $454 $627 forward 7 unknown #
vertex $-1 $307 $628 #
vertex $-1 $468 $629 #
straight-curve $-1 55.834223456526388 0 -14.783409275580039 0 -1 0 I I #
coedge $-1 $448 $450 $308 $460 reversed $301 $-1 #
edge $-1 $463 -34.980608737276491 $466 34.980608737276491 $459 $630 forward 7 unknown #
coedge $-1 $454 $309 $314 $469 forward $446 $-1 #
coedge $-1 $309 $454 $448 $621 reversed $446 $-1 #
vertex $-1 $310 $631 #
straight-curve $-1 0 34.980608737276491 14.783409275580039 -1 0 0 I I #
coedge $-1 $311 $449 $313 $468 reversed $189 $-1 #
vertex $-1 $460 $632 #
straight-curve $-1 0 -34.980608737276491 14.783409275580039 1 0 0 I I #
edge $-1 $316 -14.783409275580039 $457 14.783409275580039 $313 $633 forward 7 unknown #
edge $-1 $317 -14.783409275580039 $456 14.783409275580039 $314 $634 forward 7 unknown #
point $-1 55.834223456526388 -34.980608737276491 14.783409275580039 #
point $-1 55.834223456526388 34.980608737276491 14.783409275580039 #
face $-1 $-1 $482 $46 $-1 $635 reversed single #
loop $-1 $-1 $478 $319 #
plane-surface $-1 0 0 -14.783409275580039 0 0 1 1 0 0 forward_v I I I I #
coedge $-1 $636 $637 $327 $486 forward $320 $-1 #
coedge $-1 $322 $490 $480 $638 forward $197 $-1 #
edge $-1 $484 -21.58368272988562 $332 -5.2101692848961214 $322 $639 forward 7 unknown #
coedge $-1 $640 $328 $323 $479 forward $473 $-1 #
edge $-1 $333 5.2101692848961214 $483 21.58368272988562 $478 $641 forward 7 unknown #
coedge $-1 $642 $325 $476 $638 reversed $482 $-1 #
coedge $-1 $325 $642 $640 $643 reversed $482 $-1 #
loop $-1 $-1 $325 $472 #
vertex $-1 $643 $644 #
vertex $-1 $326 $645 #
straight-curve $-1 -48.468551190183277 -34.980608737276491 0 0 0 1 I I #
edge $-1 $491 -14.783409275580039 $488 14.783409275580039 $475 $646 forward 7 unknown #
coedge $-1 $328 $640 $636 $647 forward $473 $-1 #
vertex $-1 $329 $648 #
straight-curve $-1 -26.075693661677416 -18.607095292286992 -14.783409275580039 1 0 0 I I #
coedge $-1 $476 $330 $637 $649 forward $197 $-1 #
vertex $-1 $649 $650 #
straight-curve $-1 -26.075693661677416 -18.607095292286992 14.783409275580039 -1 0 0 I I #
point $-1 -48.468551190183277 -18.607095292286992 14.783409275580039 #
point $-1 -48.468551190183277 -18.607095292286992 -14.783409275580039 #
face $-1 $-1 $651 $47 $-1 $652 reversed single #
loop $-1 $-1 $501 $335 #
plane-surface $-1 0 0 14.783409275580039 0 0 1 1 0 0 forward_v I I I I #
coedge $-1 $338 $506 $653 $654 forward $205 $-1 #
edge $-1 $655 -21.58368272988562 $504 -5.2101692848961214 $338 $656 forward 7 unknown #
coedge $-1 $340 $339 $657 $658 reversed $129 $-1 #
coedge $-1 $659 $345 $340 $502 forward $496 $-1 #
edge $-1 $503 5.2101692848961214 $660 21.58368272988562 $501 $661 forward 7 unknown #
vertex $-1 $346 $662 #
vertex $-1 $344 $663 #
straight-curve $-1 -48.468551190183277 18.607095292286992 0 0 0 -1 I I #
coedge $-1 $498 $343 $348 $512 forward $205 $-1 #
straight-curve $-1 -26.075693661677416 18.607095292286992 -14.783409275580039 -1 0 0 I I #
coedge $-1 $345 $659 $347 $511 forward $496 $-1 #
straight-curve $-1 -26.075693661677416 18.607095292286992 14.783409275580039 1 0 0 I I #
coedge $-1 $348 $347 $664 $665 forward $336 $-1 #
edge $-1 $666 -34.980608737276491 $350 -18.607095292286992 $347 $667 forward 7 unknown #
edge $-1 $349 18.607095292286992 $668 34.980608737276491 $348 $669 forward 7 unknown #
point $-1 -55.834223456526388 18.607095292286992 -14.783409275580039 #
point $-1 -55.834223456526388 18.607095292286992 14.783409275580039 #
loop $-1 $-1 $360 $352 #
plane-surface $-1 -55.834223456526388 0 0 1 0 0 0 0 -1 forward_v I I I I #
coedge $-1 $518 $355 $357 $522 reversed $213 $-1 #
coedge $-1 $355 $517 $670 $671 reversed $213 $-1 #
coedge $-1 $363 $358 $355 $520 forward $353 $-1 #
edge $-1 $523 -25.925181003478457 $672 -19.432995616881726 $519 $673 forward 7 unknown #
coedge $-1 $357 $356 $526 $674 reversed $133 $-1 #
edge $-1 $675 0 $523 12.251272939401836 $517 $676 forward 7 unknown #
vertex $-1 $359 $677 #
straight-curve $-1 -49.34203806992965 -6.1112948602874226 14.783409275580039 0 1 0 I I #
coedge $-1 $670 $360 $363 $530 reversed $515 $-1 #
coedge $-1 $360 $670 $521 $674 forward $515 $-1 #
vertex $-1 $361 $678 #
straight-curve $-1 -55.834223456526388 -16.012473173050097 31.784500148392794 0 0 1 I I #
straight-curve $-1 -55.834223456526388 -16.012473173050097 4.3937404867408318 -0.52991925155115449 0 -0.84804810408105047 I I #
edge $-1 $672 8.4327062680995919 $364 16.012473173050097 $525 $679 forward 7 unknown #
point $-1 -55.834223456526388 -16.012473173050097 14.783409275580039 #
point $-1 -49.342038069929657 -16.012473173050097 14.783409275580039 #
edge $-1 $680 1 $680 0 $367 $-1 forward 7 unknown #
vertex $-1 $368 $681 #
ellipse-curve $-1 -50.048153318405049 -13.846825485921386 8.0014208741646691 -0.84804810408105047 0 0.52991925155115449 0.52991925155115449 0 0.84804810408105047 1 I I #
point $-1 -52.058211511676866 -13.846825485921386 10.436622985241488 #
edge $-1 $682 1 $682 0 $371 $-1 forward 7 unknown #
vertex $-1 $372 $683 #
ellipse-curve $-1 -50.048153318405049 -10.598353955228312 8.0014208741646691 -0.84804810408105047 0 0.52991925155115449 0.52991925155115449 0 0.84804810408105047 1 I I #
point $-1 -52.058211511676866 -10.598353955228312 10.436622985241488 #
loop $-1 $-1 $383 $375 #
plane-surface $-1 -55.834223456526388 0 0 1 0 0 0 0 -1 forward_v I I I I #
coedge $-1 $544 $378 $380 $548 reversed $235 $-1 #
coedge $-1 $378 $543 $684 $685 reversed $235 $-1 #
coedge $-1 $386 $381 $378 $546 forward $376 $-1 #
edge $-1 $549 -25.925181003478457 $686 -19.432995616881726 $545 $687 forward 7 unknown #
coedge $-1 $380 $379 $552 $688 reversed $147 $-1 #
edge $-1 $689 0 $549 12.251272939401836 $543 $690 forward 7 unknown #
vertex $-1 $382 $691 #
straight-curve $-1 -49.34203806992965 0.091070237141575916 14.783409275580039 0 1 0 I I #
coedge $-1 $684 $383 $386 $556 reversed $541 $-1 #
coedge $-1 $383 $684 $547 $688 forward $541 $-1 #
vertex $-1 $384 $692 #
straight-curve $-1 -55.834223456526388 -3.6077429781921015 31.784500148392794 0 0 1 I I #
straight-curve $-1 -55.834223456526388 -3.6077429781921015 4.3937404867408318 -0.52991925155115449 0 -0.84804810408105047 I I #
edge $-1 $686 -3.9720239267584052 $387 3.6077429781921015 $551 $693 forward 7 unknown #
point $-1 -55.834223456526388 -3.6077429781921015 14.783409275580039 #
point $-1 -49.342038069929657 -3.6077429781921015 14.783409275580039 #
edge $-1 $694 1 $694 0 $390 $-1 forward 7 unknown #
vertex $-1 $391 $695 #
ellipse-curve $-1 -50.048153318405049 -1.4420952910633886 8.0014208741646691 -0.84804810408105047 0 0.52991925155115449 0.52991925155115449 0 0.84804810408105047 1 I I #
point $-1 -52.058211511676866 -1.4420952910633886 10.436622985241488 #
edge $-1 $696 1 $696 0 $394 $-1 forward 7 unknown #
vertex $-1 $395 $697 #
ellipse-curve $-1 -50.048153318405049 1.8063762396296852 8.0014208741646691 -0.84804810408105047 0 0.52991925155115449 0.52991925155115449 0 0.84804810408105047 1 I I #
point $-1 -52.058211511676866 1.8063762396296852 10.436622985241488 #
loop $-1 $-1 $406 $398 #
plane-surface $-1 -55.834223456526388 0 0 1 0 0 0 0 -1 forward_v I I I I #
coedge $-1 $570 $401 $403 $574 reversed $257 $-1 #
coedge $-1 $401 $569 $698 $699 reversed $257 $-1 #
coedge $-1 $409 $404 $401 $572 forward $399 $-1 #
edge $-1 $575 -25.925181003478457 $700 -19.432995616881726 $571 $701 forward 7 unknown #
coedge $-1 $403 $402 $578 $702 reversed $161 $-1 #
edge $-1 $703 0 $575 12.251272939401836 $569 $704 forward 7 unknown #
vertex $-1 $405 $705 #
straight-curve $-1 -49.34203806992965 6.2934353345705745 14.783409275580039 0 1 0 I I #
coedge $-1 $698 $406 $409 $582 reversed $567 $-1 #
coedge $-1 $406 $698 $573 $702 forward $567 $-1 #
vertex $-1 $407 $706 #
straight-curve $-1 -55.834223456526388 8.7969872166658956 31.784500148392794 0 0 1 I I #
straight-curve $-1 -55.834223456526388 8.7969872166658956 4.3937404867408318 -0.52991925155115449 0 -0.84804810408105047 I I #
edge $-1 $700 -16.376754121616401 $410 -8.7969872166658956 $577 $707 forward 7 unknown #
point $-1 -55.834223456526388 8.7969872166658956 14.783409275580039 #
point $-1 -49.342038069929657 8.7969872166658956 14.783409275580039 #
edge $-1 $708 1 $708 0 $413 $-1 forward 7 unknown #
vertex $-1 $414 $709 #
ellipse-curve $-1 -50.048153318405049 10.962634903794608 8.0014208741646691 -0.84804810408105047 0 0.52991925155115449 0.52991925155115449 0 0.84804810408105047 1 I I #
point $-1 -52.058211511676866 10.962634903794608 10.436622985241488 #
edge $-1 $710 1 $710 0 $417 $-1 forward 7 unknown #
vertex $-1 $418 $711 #
ellipse-curve $-1 -50.048153318405049 14.211106434487682 8.0014208741646691 -0.84804810408105047 0 0.52991925155115449 0.52991925155115449 0 0.84804810408105047 1 I I #
point $-1 -52.058211511676866 14.211106434487682 10.436622985241488 #
plane-surface $-1 0 0 14.783409275580039 0 0 1 1 0 0 forward_v I I I I #
coedge $-1 $604 $603 $596 $712 forward $422 $-1 #
coedge $-1 $596 $424 $426 $600 reversed $279 $-1 #
coedge $-1 $424 $595 $594 $712 reversed $279 $-1 #
coedge $-1 $432 $427 $424 $598 forward $433 $-1 #
edge $-1 $601 10.731378865667452 $713 14.205587256449988 $597 $714 forward 7 unknown #
coedge $-1 $426 $425 $604 $715 reversed $175 $-1 #
edge $-1 $716 -111.66844691305285 $601 -105.61134930415221 $595 $717 forward 7 unknown #
vertex $-1 $428 $718 #
straight-curve $-1 52.360015065743866 -4.3711814638945867 14.783409275580041 0 -1 0 I I #
coedge $-1 $594 $429 $432 $608 reversed $422 $-1 #
coedge $-1 $429 $594 $599 $715 forward $422 $-1 #
vertex $-1 $430 $719 #
straight-curve $-1 55.834223456526388 -3.3941996032287829 82.672775676644562 0 0 1 I I #
straight-curve $-1 -8.2161650795430887 -3.3941996032287829 101.29516281721968 0.57357642473473569 0 -0.81915205242281985 I I #
edge $-1 $713 -14.090526252349564 $434 -3.3941996032287829 $603 $720 forward 7 unknown #
point $-1 55.834223456526388 -3.3941996032287829 14.783409275580039 #
point $-1 52.360015065743852 -3.3941996032287829 14.783409275580041 #
edge $-1 $721 1 $721 0 $437 $-1 forward 7 unknown #
vertex $-1 $438 $722 #
ellipse-curve $-1 50.052482566854657 -11.034432924029339 9.4704822893750915 0.81915205242281985 0 0.57357642473473569 0.86036463710210354 0 -1.2287280786342298 1 I I #
point $-1 54.957483898237228 -11.034432924029339 11.073839227917682 #
edge $-1 $723 1 $723 0 $441 $-1 forward 7 unknown #
vertex $-1 $442 $724 #
ellipse-curve $-1 50.052482566854657 -6.4502929315490043 9.4704822893750915 0.81915205242281985 0 0.57357642473473569 0.86036463710210354 0 -1.2287280786342298 1 I I #
point $-1 54.957483898237228 -6.4502929315490043 11.073839227917682 #
plane-surface $-1 55.834223456526388 0 0 -1 0 0 0 0 1 forward_v I I I I #
coedge $-1 $450 $448 $452 $624 reversed $301 $-1 #
edge $-1 $463 -14.783409275580039 $626 14.783409275580039 $462 $725 forward 7 unknown #
vertex $-1 $624 $726 #
straight-curve $-1 -55.834223456526388 -34.980608737276491 0 0 0 -1 I I #
edge $-1 $622 -34.980608737276491 $626 34.980608737276491 $620 $727 forward 7 unknown #
straight-curve $-1 0 -34.980608737276491 -14.783409275580039 -1 0 0 I I #
vertex $-1 $455 $728 #
straight-curve $-1 0 34.980608737276491 -14.783409275580039 1 0 0 I I #
point $-1 55.834223456526388 34.980608737276491 -14.783409275580039 #
point $-1 55.834223456526388 -34.980608737276491 -14.783409275580039 #
straight-curve $-1 -55.834223456526388 0 14.783409275580039 0 -1 0 I I #
point $-1 -55.834223456526388 34.980608737276491 14.783409275580039 #
point $-1 -55.834223456526388 -34.980608737276491 14.783409275580039 #
straight-curve $-1 55.834223456526388 -34.980608737276491 0 0 0 -1 I I #
straight-curve $-1 55.834223456526388 34.980608737276491 0 0 0 -1 I I #
plane-surface $-1 0 -34.980608737276491 0 0 1 0 0 0 1 forward_v I I I I #
coedge $-1 $729 $475 $487 $647 reversed $320 $-1 #
coedge $-1 $475 $729 $490 $649 reversed $320 $-1 #
edge $-1 $730 -55.834223456526388 $484 -48.468551190183277 $480 $731 forward 7 unknown #
straight-curve $-1 -48.468551190183277 -13.396926007390871 14.783409275580039 0 1 0 I I #
coedge $-1 $487 $478 $481 $643 forward $473 $-1 #
straight-curve $-1 -48.468551190183277 -13.396926007390871 -14.783409275580039 0 -1 0 I I #
coedge $-1 $481 $480 $729 $732 forward $482 $-1 #
edge $-1 $483 48.468551190183277 $733 55.834223456526388 $481 $734 forward 7 unknown #
point $-1 -48.468551190183277 -34.980608737276491 -14.783409275580039 #
point $-1 -48.468551190183277 -34.980608737276491 14.783409275580039 #
straight-curve $-1 -55.834223456526388 -18.607095292286992 0 0 0 -1 I I #
edge $-1 $733 -34.980608737276491 $488 -18.607095292286992 $636 $735 forward 7 unknown #
point $-1 -55.834223456526388 -18.607095292286992 -14.783409275580039 #
edge $-1 $491 18.607095292286992 $730 34.980608737276491 $637 $736 forward 7 unknown #
point $-1 -55.834223456526388 -18.607095292286992 14.783409275580039 #
loop $-1 $-1 $657 $495 #
plane-surface $-1 0 34.980608737276491 0 0 -1 0 0 0 -1 forward_v I I I I #
coedge $-1 $664 $657 $498 $654 reversed $651 $-1 #
edge $-1 $668 -55.834223456526388 $655 -48.468551190183277 $653 $737 forward 7 unknown #
vertex $-1 $499 $738 #
straight-curve $-1 -48.468551190183277 13.396926007390871 -14.783409275580039 0 -1 0 I I #
coedge $-1 $653 $739 $500 $658 forward $651 $-1 #
edge $-1 $660 -14.783409275580039 $655 14.783409275580039 $657 $740 forward 7 unknown #
coedge $-1 $508 $501 $739 $741 forward $496 $-1 #
vertex $-1 $741 $742 #
straight-curve $-1 -48.468551190183277 13.396926007390871 14.783409275580039 0 1 0 I I #
point $-1 -48.468551190183277 18.607095292286992 14.783409275580039 #
point $-1 -48.468551190183277 18.607095292286992 -14.783409275580039 #
coedge $-1 $739 $653 $510 $665 reversed $651 $-1 #
edge $-1 $666 -14.783409275580039 $668 14.783409275580039 $664 $743 forward 7 unknown #
vertex $-1 $741 $744 #
straight-curve $-1 -55.834223456526388 0 14.783409275580039 0 -1 0 I I #
vertex $-1 $654 $745 #
straight-curve $-1 -55.834223456526388 0 -14.783409275580039 0 1 0 I I #
coedge $-1 $526 $525 $518 $671 forward $515 $-1 #
edge $-1 $672 17.001090872812753 $675 27.390759661651963 $670 $746 forward 7 unknown #
vertex $-1 $530 $747 #
straight-curve $-1 -75.267219073408114 -8.4327062680995919 14.783409275580041 -1 0 0 I I #
edge $-1 $675 2.3214114078121693 $527 9.9011783127626742 $526 $748 forward 7 unknown #
vertex $-1 $674 $749 #
straight-curve $-1 -55.834223456526388 -8.4327062680995919 4.3937404867408318 0.52991925155115449 0 0.84804810408105047 I I #
point $-1 -49.342038069929657 -8.4327062680995919 14.783409275580039 #
point $-1 -55.834223456526388 -16.012473173050097 4.3937404867408318 #
straight-curve $-1 -55.834223456526388 0 14.783409275580039 0 -1 0 I I #
vertex $-1 $533 $750 #
point $-1 -49.5182340668539 -13.846825485921386 8.8494689782457208 #
vertex $-1 $537 $751 #
point $-1 -49.5182340668539 -10.598353955228312 8.8494689782457208 #
coedge $-1 $552 $551 $544 $685 forward $541 $-1 #
edge $-1 $686 17.001090872812753 $689 27.390759661651963 $684 $752 forward 7 unknown #
vertex $-1 $556 $753 #
straight-curve $-1 -75.267219073408114 3.9720239267584052 14.783409275580041 -1 0 0 I I #
edge $-1 $689 -3.8809536896168293 $553 3.6988132153336775 $552 $754 forward 7 unknown #
vertex $-1 $688 $755 #
straight-curve $-1 -55.834223456526388 3.9720239267584052 4.3937404867408318 0.52991925155115449 0 0.84804810408105047 I I #
point $-1 -49.342038069929657 3.9720239267584052 14.783409275580039 #
point $-1 -55.834223456526388 -3.6077429781921015 4.3937404867408318 #
straight-curve $-1 -55.834223456526388 0 14.783409275580039 0 -1 0 I I #
vertex $-1 $559 $756 #
point $-1 -49.5182340668539 -1.4420952910633886 8.8494689782457208 #
vertex $-1 $563 $757 #
point $-1 -49.5182340668539 1.8063762396296852 8.8494689782457208 #
coedge $-1 $578 $577 $570 $699 forward $567 $-1 #
edge $-1 $700 17.001090872812753 $703 27.390759661651963 $698 $758 forward 7 unknown #
vertex $-1 $582 $759 #
straight-curve $-1 -75.267219073408114 16.376754121616401 14.783409275580041 -1 0 0 I I #
edge $-1 $703 -10.083318787045826 $579 -2.5035518820953211 $578 $760 forward 7 unknown #
vertex $-1 $702 $761 #
straight-curve $-1 -55.834223456526388 16.376754121616401 4.3937404867408318 0.52991925155115449 0 0.84804810408105047 I I #
point $-1 -49.342038069929657 16.376754121616401 14.783409275580039 #
point $-1 -55.834223456526388 8.7969872166658956 4.3937404867408318 #
straight-curve $-1 -55.834223456526388 0 14.783409275580039 0 -1 0 I I #
vertex $-1 $585 $762 #
point $-1 -49.5182340668539 10.962634903794608 8.8494689782457208 #
vertex $-1 $589 $763 #
point $-1 -49.5182340668539 14.211106434487682 8.8494689782457208 #
edge $-1 $713 67.889366401064521 $716 72.851050339120818 $594 $764 forward 7 unknown #
vertex $-1 $608 $765 #
straight-curve $-1 41.6286362000764 -14.090526252349564 14.783409275580041 1 0 0 I I #
edge $-1 $716 -9.7193447884549773 $605 0.97698186066580384 $604 $766 forward 7 unknown #
vertex $-1 $715 $767 #
straight-curve $-1 -8.2161650795430887 -14.090526252349564 101.29516281721968 -0.57357642473473569 0 0.81915205242281985 I I #
point $-1 52.360015065743852 -14.090526252349564 14.783409275580041 #
point $-1 55.834223456526388 -3.3941996032287829 9.8217253375237448 #
straight-curve $-1 55.834223456526388 0 14.783409275580039 0 1 0 I I #
vertex $-1 $611 $768 #
point $-1 50.912847203956758 -11.034432924029339 8.2417542107408615 #
vertex $-1 $615 $769 #
point $-1 50.912847203956758 -6.4502929315490043 8.2417542107408615 #
straight-curve $-1 -55.834223456526388 34.980608737276491 0 0 0 -1 I I #
point $-1 -55.834223456526388 -34.980608737276491 -14.783409275580039 #
straight-curve $-1 -55.834223456526388 0 -14.783409275580039 0 1 0 I I #
point $-1 -55.834223456526388 34.980608737276491 -14.783409275580039 #
coedge $-1 $637 $636 $642 $732 reversed $320 $-1 #
vertex $-1 $649 $770 #
straight-curve $-1 0 -34.980608737276491 14.783409275580039 1 0 0 I I #
edge $-1 $730 -14.783409275580039 $733 14.783409275580039 $729 $771 forward 7 unknown #
vertex $-1 $647 $772 #
straight-curve $-1 0 -34.980608737276491 -14.783409275580039 -1 0 0 I I #
straight-curve $-1 -55.834223456526388 0 -14.783409275580039 0 1 0 I I #
straight-curve $-1 -55.834223456526388 0 14.783409275580039 0 -1 0 I I #
straight-curve $-1 0 34.980608737276491 -14.783409275580039 1 0 0 I I #
point $-1 -48.468551190183277 34.980608737276491 -14.783409275580039 #
coedge $-1 $657 $664 $659 $741 reversed $651 $-1 #
straight-curve $-1 -48.468551190183277 34.980608737276491 0 0 0 -1 I I #
edge $-1 $660 48.468551190183277 $666 55.834223456526388 $739 $773 forward 7 unknown #
point $-1 -48.468551190183277 34.980608737276491 14.783409275580039 #
straight-curve $-1 -55.834223456526388 34.980608737276491 0 0 0 -1 I I #
point $-1 -55.834223456526388 34.980608737276491 14.783409275580039 #
point $-1 -55.834223456526388 34.980608737276491 -14.783409275580039 #
straight-curve $-1 -55.834223456526388 -8.4327062680995919 31.784500148392794 0 0 -1 I I #
point $-1 -55.834223456526388 -8.4327062680995919 14.783409275580039 #
straight-curve $-1 -55.834223456526388 -6.1112948602874226 4.3937404867408318 0 -1 0 I I #
point $-1 -55.834223456526388 -8.4327062680995919 4.3937404867408318 #
point $-1 -49.200105214324005 -13.846825485921386 7.4715016226135154 #
point $-1 -49.200105214324005 -10.598353955228312 7.4715016226135154 #
straight-curve $-1 -55.834223456526388 3.9720239267584052 31.784500148392794 0 0 -1 I I #
point $-1 -55.834223456526388 3.9720239267584052 14.783409275580039 #
straight-curve $-1 -55.834223456526388 0.091070237141575916 4.3937404867408318 0 -1 0 I I #
point $-1 -55.834223456526388 3.9720239267584052 4.3937404867408318 #
point $-1 -49.200105214324005 -1.4420952910633886 7.4715016226135154 #
point $-1 -49.200105214324005 1.8063762396296852 7.4715016226135154 #
straight-curve $-1 -55.834223456526388 16.376754121616401 31.784500148392794 0 0 -1 I I #
point $-1 -55.834223456526388 16.376754121616401 14.783409275580039 #
straight-curve $-1 -55.834223456526388 6.2934353345705745 4.3937404867408318 0 -1 0 I I #
point $-1 -55.834223456526388 16.376754121616401 4.3937404867408318 #
point $-1 -49.200105214324005 10.962634903794608 7.4715016226135154 #
point $-1 -49.200105214324005 14.211106434487682 7.4715016226135154 #
straight-curve $-1 55.834223456526388 -14.090526252349564 82.672775676644562 0 0 -1 I I #
point $-1 55.834223456526388 -14.090526252349564 14.783409275580039 #
straight-curve $-1 55.834223456526388 -4.3711814638945867 9.8217253375237306 0 1 0 I I #
point $-1 55.834223456526388 -14.090526252349564 9.8217253375237448 #
point $-1 48.823754488220423 -11.034432924029339 8.6101176522729865 #
point $-1 48.823754488220423 -6.4502929315490043 8.6101176522729865 #
point $-1 -55.834223456526388 -34.980608737276491 14.783409275580039 #
straight-curve $-1 -55.834223456526388 -34.980608737276491 0 0 0 -1 I I #
point $-1 -55.834223456526388 -34.980608737276491 -14.783409275580039 #
straight-curve $-1 0 34.980608737276491 14.783409275580039 -1 0 0 I I #
End-of-ACIS-data 