500 0 10 0           
7 Unknown 11 ACIS 5.0 NT 24 Fri Mar 26 00:28:25 1999 
-1 9.9999999999999995e-007 1e-010 
body $-1 $10 $-1 $11 #
body $-1 $12 $-1 $13 #
body $-1 $14 $-1 $15 #
body $-1 $16 $-1 $17 #
body $-1 $18 $-1 $19 #
body $-1 $20 $-1 $21 #
body $-1 $22 $-1 $23 #
body $-1 $24 $-1 $25 #
body $-1 $26 $-1 $27 #
body $-1 $28 $-1 $29 #
lump $-1 $-1 $30 $0 #
transform $-1 1 0 0 0 1 0 0 0 1 79.259010589922781 52.79346255172819 22.312878938760747 1 rotate no_reflect no_shear #
lump $-1 $-1 $31 $1 #
transform $-1 1 0 0 0 1 0 0 0 1 79.259010589922781 52.79346255172819 22.312878938760747 1 rotate no_reflect no_shear #
lump $-1 $-1 $32 $2 #
transform $-1 1 0 0 0 1 0 0 0 1 79.259010589922781 52.79346255172819 22.312878938760747 1 rotate no_reflect no_shear #
lump $-1 $-1 $33 $3 #
transform $-1 1 0 0 0 1 0 0 0 1 79.259010589922781 52.79346255172819 22.312878938760747 1 rotate no_reflect no_shear #
lump $-1 $-1 $34 $4 #
transform $-1 1 0 0 0 1 0 0 0 1 79.259010589922781 52.79346255172819 22.312878938760747 1 rotate no_reflect no_shear #
lump $-1 $-1 $35 $5 #
transform $-1 1 0 0 0 1 0 0 0 1 79.259010589922781 52.79346255172819 22.312878938760747 1 rotate no_reflect no_shear #
lump $-1 $-1 $36 $6 #
transform $-1 1 0 0 0 1 0 0 0 1 79.259010589922781 52.79346255172819 22.312878938760747 1 rotate no_reflect no_shear #
lump $-1 $-1 $37 $7 #
transform $-1 1 0 0 0 1 0 0 0 1 79.259010589922781 52.79346255172819 22.312878938760747 1 rotate no_reflect no_shear #
lump $-1 $-1 $38 $8 #
transform $-1 1 0 0 0 1 0 0 0 1 79.259010589922781 52.79346255172819 22.312878938760747 1 rotate no_reflect no_shear #
lump $-1 $-1 $39 $9 #
transform $-1 1 0 0 0 1 0 0 0 1 79.259010589922781 52.79346255172819 22.312878938760747 1 rotate no_reflect no_shear #
shell $-1 $-1 $-1 $40 $-1 $10 #
shell $-1 $-1 $-1 $41 $-1 $12 #
shell $-1 $-1 $-1 $42 $-1 $14 #
shell $-1 $-1 $-1 $43 $-1 $16 #
shell $-1 $-1 $-1 $44 $-1 $18 #
shell $-1 $-1 $-1 $45 $-1 $20 #
shell $-1 $-1 $-1 $46 $-1 $22 #
shell $-1 $-1 $-1 $47 $-1 $24 #
shell $-1 $-1 $-1 $48 $-1 $26 #
shell $-1 $-1 $-1 $49 $-1 $28 #
face $-1 $50 $51 $30 $-1 $52 forward single #
face $-1 $53 $54 $31 $-1 $55 forward single #
face $-1 $56 $57 $32 $-1 $58 reversed single #
face $-1 $59 $60 $33 $-1 $61 forward single #
face $-1 $62 $63 $34 $-1 $64 forward single #
face $-1 $65 $66 $35 $-1 $67 reversed single #
face $-1 $68 $69 $36 $-1 $70 forward single #
face $-1 $71 $72 $37 $-1 $73 forward single #
face $-1 $74 $75 $38 $-1 $76 reversed single #
face $-1 $77 $78 $39 $-1 $79 forward single #
face $-1 $80 $81 $30 $-1 $82 reversed single #
loop $-1 $-1 $83 $40 #
plane-surface $-1 0 0 22.312878938760747 0 0 1 1 0 0 forward_v I I I I #
face $-1 $84 $85 $31 $-1 $86 reversed single #
loop $-1 $-1 $87 $41 #
plane-surface $-1 0 -44.479441575069686 -11.330287486991558 0 0 1 1 0 0 forward_v I I I I #
face $-1 $88 $89 $32 $-1 $90 reversed single #
loop $-1 $-1 $91 $42 #
plane-surface $-1 -191.34817960698467 -14.584278745582701 128.49748078035609 0 1 0 -0.70710678939079041 0 0.70710677298230451 forward_v I I I I #
face $-1 $92 $93 $33 $-1 $94 forward single #
loop $-1 $95 $96 $43 #
cone-surface $-1 -75.517283682265898 -11.624425353674447 18.571151980915001 0.70710678939079041 0 -0.70710677298230451 0.70710677298230451 0 0.70710678939079041 1 I I 0 1 1 forward I I I I #
face $-1 $97 $98 $34 $-1 $99 forward single #
loop $-1 $100 $101 $44 #
cone-surface $-1 -75.517283682265898 -7.1846452658120725 18.571151980915001 0.70710678939079041 0 -0.70710677298230451 0.70710677298230451 0 0.70710678939079041 1 I I 0 1 1 forward I I I I #
face $-1 $102 $103 $35 $-1 $104 reversed single #
loop $-1 $-1 $105 $45 #
plane-surface $-1 -191.34817960698467 20.852833827220827 128.49748078035609 0 1 0 -0.70710678939079041 0 0.70710677298230451 forward_v I I I I #
face $-1 $106 $107 $36 $-1 $108 forward single #
loop $-1 $109 $110 $46 #
cone-surface $-1 -75.517283682265898 23.812687219129067 18.571151980915001 0.70710678939079041 0 -0.70710677298230451 0.70710677298230451 0 0.70710678939079041 1 I I 0 1 1 forward I I I I #
face $-1 $111 $112 $37 $-1 $113 forward single #
loop $-1 $114 $115 $47 #
cone-surface $-1 -75.517283682265898 28.252467306991441 18.571151980915001 0.70710678939079041 0 -0.70710677298230451 0.70710677298230451 0 0.70710678939079041 1 I I 0 1 1 forward I I I I #
face $-1 $116 $117 $38 $-1 $118 reversed single #
loop $-1 $-1 $119 $48 #
plane-surface $-1 75.346561708363396 28.797342049419861 237.82947710696075 0 1 0 0.69465837861970381 0 0.71933979245794832 forward_v I I I I #
face $-1 $120 $121 $39 $-1 $122 forward single #
loop $-1 $123 $124 $49 #
cone-surface $-1 73.916226749500211 40.795402300574018 17.092251095790669 -0.69465837861970381 0 -0.71933979245794832 1.7983494811448708 0 -1.7366459465492596 1 I I 0 1 2.5 forward I I I I #
face $-1 $125 $126 $30 $-1 $127 reversed single #
loop $-1 $-1 $128 $50 #
plane-surface $-1 0 0 -22.312878938760747 0 0 1 1 0 0 forward_v I I I I #
coedge $-1 $129 $130 $131 $132 forward $51 $-1 #
face $-1 $133 $134 $31 $-1 $135 reversed single #
loop $-1 $-1 $136 $53 #
plane-surface $-1 0 -36.165420598411188 -16.821583212876153 0 -1 0 0 0 -1 forward_v I I I I #
coedge $-1 $137 $138 $139 $140 reversed $54 $-1 #
face $-1 $141 $142 $32 $-1 $143 reversed single #
loop $-1 $-1 $144 $56 #
plane-surface $-1 -79.259010589922767 -9.4045353097432596 16.408314364334885 -0.70710678939079041 0 0.70710677298230451 0.70710677298230451 0 0.70710678939079041 forward_v I I I I #
coedge $-1 $145 $146 $147 $148 reversed $57 $-1 #
face $-1 $-1 $149 $33 $-1 $150 forward single #
loop $-1 $151 $152 $59 #
cone-surface $-1 -74.374285598618556 -11.624425353674447 17.428153923791044 0.70710678939079041 0 -0.70710677298230451 0.35355338649115226 0 0.35355339469539521 1 I I -0.70710678118654746 0.70710678118654746 0.5 forward I I I I #
loop $-1 $-1 $153 $43 #
coedge $-1 $96 $96 $154 $155 reversed $60 $-1 #
face $-1 $-1 $156 $34 $-1 $157 forward single #
loop $-1 $158 $159 $62 #
cone-surface $-1 -74.374285598618556 -7.1846452658120725 17.428153923791044 0.70710678939079041 0 -0.70710677298230451 0.35355338649115226 0 0.35355339469539521 1 I I -0.70710678118654746 0.70710678118654746 0.5 forward I I I I #
loop $-1 $-1 $160 $44 #
coedge $-1 $101 $101 $161 $162 reversed $63 $-1 #
face $-1 $163 $164 $35 $-1 $165 reversed single #
loop $-1 $-1 $166 $65 #
plane-surface $-1 -79.259010589922767 26.032577263060269 16.408314364334885 -0.70710678939079041 0 0.70710677298230451 0.70710677298230451 0 0.70710678939079041 forward_v I I I I #
coedge $-1 $167 $168 $169 $170 reversed $66 $-1 #
face $-1 $-1 $171 $36 $-1 $172 forward single #
loop $-1 $173 $174 $68 #
cone-surface $-1 -74.374285598618556 23.812687219129067 17.428153923791044 0.70710678939079041 0 -0.70710677298230451 0.35355338649115226 0 0.35355339469539521 1 I I -0.70710678118654746 0.70710678118654746 0.5 forward I I I I #
loop $-1 $-1 $175 $46 #
coedge $-1 $110 $110 $176 $177 reversed $69 $-1 #
face $-1 $-1 $178 $37 $-1 $179 forward single #
loop $-1 $180 $181 $71 #
cone-surface $-1 -74.374285598618556 28.252467306991441 17.428153923791044 0.70710678939079041 0 -0.70710677298230451 0.35355338649115226 0 0.35355339469539521 1 I I -0.70710678118654746 0.70710678118654746 0.5 forward I I I I #
loop $-1 $-1 $182 $47 #
coedge $-1 $115 $115 $183 $184 reversed $72 $-1 #
face $-1 $185 $186 $38 $-1 $187 reversed single #
loop $-1 $-1 $188 $74 #
plane-surface $-1 -34.769309866431996 40.795402300574018 123.80115665060599 0.69465837861970381 0 0.71933979245794832 0.71933979245794832 0 -0.69465837861970381 forward_v I I I I #
coedge $-1 $189 $190 $191 $192 reversed $75 $-1 #
face $-1 $-1 $193 $39 $-1 $194 forward single #
loop $-1 $195 $196 $77 #
cone-surface $-1 72.17218732446517 40.795402300574018 15.286245443723232 -0.69465837861970381 0 -0.71933979245794832 0.8991747405724354 0 -0.86832297327462982 1 I I -0.70710678118654746 0.70710678118654746 1.25 forward I I I I #
loop $-1 $-1 $197 $49 #
coedge $-1 $124 $124 $198 $199 reversed $78 $-1 #
face $-1 $200 $201 $30 $-1 $202 reversed single #
loop $-1 $-1 $203 $80 #
plane-surface $-1 0 -52.79346255172819 0 0 1 0 0 0 1 forward_v I I I I #
coedge $-1 $204 $205 $206 $207 forward $81 $-1 #
coedge $-1 $208 $83 $209 $210 forward $51 $-1 #
coedge $-1 $83 $208 $211 $212 forward $51 $-1 #
coedge $-1 $213 $214 $83 $132 reversed $215 $-1 #
edge $-1 $216 -52.79346255172819 $217 52.79346255172819 $131 $218 forward 7 unknown #
face $-1 $219 $220 $31 $-1 $221 reversed single #
loop $-1 $-1 $222 $84 #
plane-surface $-1 0 0 -22.312878938760747 0 0 1 1 0 0 forward_v I I I I #
coedge $-1 $223 $224 $225 $226 reversed $85 $-1 #
coedge $-1 $227 $87 $224 $228 forward $54 $-1 #
coedge $-1 $87 $227 $229 $230 reversed $54 $-1 #
coedge $-1 $231 $225 $87 $140 forward $220 $-1 #
edge $-1 $232 13.925699810876345 $233 30.55374176419334 $139 $234 forward 7 unknown #
face $-1 $235 $236 $32 $-1 $237 forward single #
loop $-1 $-1 $238 $88 #
plane-surface $-1 -191.34817960698467 -4.2247918739038184 128.49748078035609 0 -1 0 0.70710678939079041 0 -0.70710677298230451 forward_v I I I I #
coedge $-1 $239 $240 $241 $242 reversed $89 $-1 #
coedge $-1 $146 $91 $243 $244 reversed $57 $-1 #
coedge $-1 $91 $145 $239 $245 reversed $57 $-1 #
coedge $-1 $241 $246 $91 $148 forward $236 $-1 #
edge $-1 $247 16.415079213569555 $248 22.319643650979401 $147 $249 forward 7 unknown #
loop $-1 $-1 $154 $92 #
plane-surface $-1 -79.259010589922767 -9.4045353097432596 16.408314364334885 -0.70710678939079041 0 0.70710677298230451 0.70710677298230451 0 0.70710678939079041 forward_v I I I I #
loop $-1 $-1 $250 $59 #
coedge $-1 $152 $152 $153 $251 reversed $93 $-1 #
coedge $-1 $153 $153 $152 $251 forward $95 $-1 #
coedge $-1 $154 $154 $96 $155 forward $149 $-1 #
edge $-1 $252 0 $252 6.2831853071796004 $154 $253 forward 7 unknown #
loop $-1 $-1 $161 $97 #
plane-surface $-1 -79.259010589922767 -9.4045353097432596 16.408314364334885 -0.70710678939079041 0 0.70710677298230451 0.70710677298230451 0 0.70710678939079041 forward_v I I I I #
loop $-1 $-1 $254 $62 #
coedge $-1 $159 $159 $160 $255 reversed $98 $-1 #
coedge $-1 $160 $160 $159 $255 forward $100 $-1 #
coedge $-1 $161 $161 $101 $162 forward $156 $-1 #
edge $-1 $256 0 $256 6.2831853071796004 $161 $257 forward 7 unknown #
face $-1 $258 $259 $35 $-1 $260 forward single #
loop $-1 $-1 $261 $102 #
plane-surface $-1 -191.34817960698467 31.21232069889971 128.49748078035609 0 -1 0 0.70710678939079041 0 -0.70710677298230451 forward_v I I I I #
coedge $-1 $262 $263 $264 $265 reversed $103 $-1 #
coedge $-1 $168 $105 $266 $267 reversed $66 $-1 #
coedge $-1 $105 $167 $262 $268 reversed $66 $-1 #
coedge $-1 $264 $269 $105 $170 forward $259 $-1 #
edge $-1 $270 16.415079213569555 $271 22.319643650979401 $169 $272 forward 7 unknown #
loop $-1 $-1 $176 $106 #
plane-surface $-1 -79.259010589922767 26.032577263060269 16.408314364334885 -0.70710678939079041 0 0.70710677298230451 0.70710677298230451 0 0.70710678939079041 forward_v I I I I #
loop $-1 $-1 $273 $68 #
coedge $-1 $174 $174 $175 $274 reversed $107 $-1 #
coedge $-1 $175 $175 $174 $274 forward $109 $-1 #
coedge $-1 $176 $176 $110 $177 forward $171 $-1 #
edge $-1 $275 0 $275 6.2831853071796004 $176 $276 forward 7 unknown #
loop $-1 $-1 $183 $111 #
plane-surface $-1 -79.259010589922767 26.032577263060269 16.408314364334885 -0.70710678939079041 0 0.70710677298230451 0.70710677298230451 0 0.70710678939079041 forward_v I I I I #
loop $-1 $-1 $277 $71 #
coedge $-1 $181 $181 $182 $278 reversed $112 $-1 #
coedge $-1 $182 $182 $181 $278 forward $114 $-1 #
coedge $-1 $183 $183 $115 $184 forward $178 $-1 #
edge $-1 $279 0 $279 6.2831853071796004 $183 $280 forward 7 unknown #
face $-1 $281 $282 $38 $-1 $283 forward single #
loop $-1 $-1 $284 $116 #
plane-surface $-1 0 52.79346255172819 0 0 -1 0 0 0 -1 forward_v I I I I #
coedge $-1 $285 $286 $287 $288 reversed $117 $-1 #
coedge $-1 $190 $119 $289 $290 reversed $75 $-1 #
coedge $-1 $119 $189 $285 $291 reversed $75 $-1 #
coedge $-1 $287 $292 $119 $192 forward $293 $-1 #
edge $-1 $294 96.601859614719629 $295 105.22945347766979 $191 $296 forward 7 unknown #
loop $-1 $-1 $198 $120 #
plane-surface $-1 -34.769309866431996 40.795402300574018 123.80115665060599 0.69465837861970381 0 0.71933979245794832 0.71933979245794832 0 -0.69465837861970381 forward_v I I I I #
loop $-1 $-1 $297 $77 #
coedge $-1 $196 $196 $197 $298 reversed $121 $-1 #
coedge $-1 $197 $197 $196 $298 forward $123 $-1 #
coedge $-1 $198 $198 $124 $199 forward $193 $-1 #
edge $-1 $299 0 $299 6.2831853071796004 $198 $300 forward 7 unknown #
face $-1 $301 $302 $30 $-1 $303 reversed single #
loop $-1 $-1 $304 $125 #
plane-surface $-1 -79.259010589922781 0 0 1 0 0 0 0 -1 forward_v I I I I #
coedge $-1 $305 $211 $306 $307 forward $126 $-1 #
coedge $-1 $308 $128 $305 $309 forward $81 $-1 #
coedge $-1 $128 $308 $310 $311 forward $81 $-1 #
coedge $-1 $214 $213 $128 $207 reversed $215 $-1 #
edge $-1 $312 -52.79346255172819 $313 52.79346255172819 $206 $314 forward 7 unknown #
coedge $-1 $130 $129 $315 $316 forward $51 $-1 #
coedge $-1 $317 $318 $129 $210 reversed $302 $-1 #
edge $-1 $217 -79.259010589922781 $319 79.259010589922781 $209 $320 forward 7 unknown #
coedge $-1 $203 $321 $130 $212 reversed $126 $-1 #
edge $-1 $322 -79.259010589922781 $216 79.259010589922781 $211 $323 forward 7 unknown #
coedge $-1 $206 $131 $321 $324 forward $215 $-1 #
coedge $-1 $131 $206 $317 $325 reversed $215 $-1 #
loop $-1 $-1 $213 $301 #
vertex $-1 $132 $326 #
vertex $-1 $132 $327 #
straight-curve $-1 79.259010589922781 0 22.312878938760747 0 1 0 I I #
face $-1 $328 $329 $31 $-1 $330 reversed single #
loop $-1 $-1 $225 $133 #
plane-surface $-1 79.259010589922781 0 0 -1 0 0 0 0 1 forward_v I I I I #
coedge $-1 $331 $332 $223 $333 forward $134 $-1 #
coedge $-1 $334 $136 $222 $333 reversed $85 $-1 #
coedge $-1 $136 $334 $137 $228 reversed $85 $-1 #
coedge $-1 $139 $335 $136 $226 forward $220 $-1 #
edge $-1 $336 -13.902087332322671 $232 -2.9194958805534821 $225 $337 forward 7 unknown #
coedge $-1 $138 $137 $338 $339 reversed $54 $-1 #
edge $-1 $232 -79.259010589922781 $340 79.259010589922781 $224 $341 forward 7 unknown #
coedge $-1 $342 $343 $138 $230 forward $329 $-1 #
edge $-1 $233 -79.259010589922781 $344 79.259010589922781 $229 $345 forward 7 unknown #
coedge $-1 $335 $139 $343 $346 forward $220 $-1 #
vertex $-1 $140 $347 #
vertex $-1 $346 $348 #
straight-curve $-1 79.259010589922781 -22.239720787534843 -11.330287486991558 0 -1 0 I I #
face $-1 $-1 $349 $32 $-1 $350 reversed single #
loop $-1 $-1 $147 $141 #
plane-surface $-1 0 0 22.312878938760747 0 0 1 1 0 0 forward_v I I I I #
coedge $-1 $351 $352 $353 $354 reversed $142 $-1 #
coedge $-1 $355 $144 $146 $245 forward $89 $-1 #
coedge $-1 $144 $355 $351 $356 forward $89 $-1 #
coedge $-1 $353 $147 $144 $242 forward $236 $-1 #
edge $-1 $248 -9.882011090711071 $357 0.4774757809678114 $241 $358 forward 7 unknown #
coedge $-1 $359 $360 $145 $244 forward $349 $-1 #
edge $-1 $361 -47.840426025843172 $247 -41.935861451417296 $243 $362 forward 7 unknown #
edge $-1 $248 -8.350315204175816 $361 2.0097183471152325e-014 $146 $363 forward 7 unknown #
coedge $-1 $147 $353 $359 $364 forward $236 $-1 #
vertex $-1 $244 $365 #
vertex $-1 $148 $366 #
straight-curve $-1 -95.674089803492336 -14.584278745582701 22.312878938760747 1 0 0 I I #
coedge $-1 $250 $250 $-1 $367 reversed $151 $-1 #
edge $-1 $368 0 $368 6.2831853071796004 $152 $369 forward 7 unknown #
vertex $-1 $155 $370 #
ellipse-curve $-1 -76.306728371217858 -11.624425353674447 19.360596651547812 -0.70710678939079041 0 0.70710677298230451 0.70710677298230451 0 0.70710678939079041 1 I I #
coedge $-1 $254 $254 $-1 $371 reversed $158 $-1 #
edge $-1 $372 0 $372 6.2831853071796004 $159 $373 forward 7 unknown #
vertex $-1 $162 $374 #
ellipse-curve $-1 -76.306728371217858 -7.1846452658120725 19.360596651547812 -0.70710678939079041 0 0.70710677298230451 0.70710677298230451 0 0.70710678939079041 1 I I #
face $-1 $-1 $375 $35 $-1 $376 reversed single #
loop $-1 $-1 $169 $163 #
plane-surface $-1 0 0 22.312878938760747 0 0 1 1 0 0 forward_v I I I I #
coedge $-1 $377 $378 $379 $380 reversed $164 $-1 #
coedge $-1 $381 $166 $168 $268 forward $103 $-1 #
coedge $-1 $166 $381 $377 $382 forward $103 $-1 #
coedge $-1 $379 $169 $166 $265 forward $259 $-1 #
edge $-1 $271 7.8365451956906931 $383 18.196032067369575 $264 $384 forward 7 unknown #
coedge $-1 $385 $386 $167 $267 forward $375 $-1 #
edge $-1 $387 -47.840426025843172 $270 -41.935861451417296 $266 $388 forward 7 unknown #
edge $-1 $271 -8.350315204175816 $387 2.0097183471152325e-014 $168 $389 forward 7 unknown #
coedge $-1 $169 $379 $385 $390 forward $259 $-1 #
vertex $-1 $170 $391 #
vertex $-1 $170 $392 #
straight-curve $-1 -95.674089803492336 20.852833827220827 22.312878938760747 1 0 0 I I #
coedge $-1 $273 $273 $-1 $393 reversed $173 $-1 #
edge $-1 $394 0 $394 6.2831853071796004 $174 $395 forward 7 unknown #
vertex $-1 $177 $396 #
ellipse-curve $-1 -76.306728371217858 23.812687219129067 19.360596651547812 -0.70710678939079041 0 0.70710677298230451 0.70710677298230451 0 0.70710678939079041 1 I I #
coedge $-1 $277 $277 $-1 $397 reversed $180 $-1 #
edge $-1 $398 0 $398 6.2831853071796004 $181 $399 forward 7 unknown #
vertex $-1 $184 $400 #
ellipse-curve $-1 -76.306728371217858 28.252467306991441 19.360596651547812 -0.70710678939079041 0 0.70710677298230451 0.70710677298230451 0 0.70710678939079041 1 I I #
face $-1 $-1 $293 $38 $-1 $401 reversed single #
loop $-1 $-1 $402 $185 #
plane-surface $-1 0 0 22.312878938760747 0 0 1 1 0 0 forward_v I I I I #
coedge $-1 $403 $404 $286 $405 forward $186 $-1 #
coedge $-1 $406 $188 $190 $291 forward $117 $-1 #
coedge $-1 $188 $406 $284 $405 reversed $117 $-1 #
coedge $-1 $407 $191 $188 $288 forward $293 $-1 #
edge $-1 $295 8.3996408991328515 $408 32.395761401441177 $287 $409 forward 7 unknown #
coedge $-1 $410 $402 $189 $290 forward $282 $-1 #
edge $-1 $411 32.651594958416752 $294 41.585729735741083 $289 $412 forward 7 unknown #
edge $-1 $295 -158.51802117984556 $411 -146.09811215910747 $190 $413 forward 7 unknown #
coedge $-1 $191 $407 $410 $414 reversed $293 $-1 #
loop $-1 $-1 $287 $281 #
vertex $-1 $414 $415 #
vertex $-1 $192 $416 #
straight-curve $-1 79.259010589922781 28.797342049419861 118.91473855348038 0 0 -1 I I #
coedge $-1 $297 $297 $-1 $417 reversed $195 $-1 #
edge $-1 $418 0 $418 6.2831853071796004 $196 $419 forward 7 unknown #
vertex $-1 $199 $420 #
ellipse-curve $-1 74.791943201260622 40.795402300574018 17.999082007285665 0.69465837861970381 0 0.71933979245794832 1.7983494811448708 0 -1.7366459465492596 1 I I #
face $-1 $-1 $215 $30 $-1 $421 reversed single #
loop $-1 $-1 $317 $200 #
plane-surface $-1 0 52.79346255172819 0 0 -1 0 0 0 -1 forward_v I I I I #
coedge $-1 $422 $315 $318 $423 forward $201 $-1 #
coedge $-1 $321 $203 $204 $309 reversed $126 $-1 #
coedge $-1 $315 $422 $203 $307 reversed $201 $-1 #
edge $-1 $322 -22.312878938760747 $424 22.312878938760747 $306 $425 forward 7 unknown #
coedge $-1 $205 $204 $422 $426 forward $81 $-1 #
edge $-1 $313 -79.259010589922781 $424 79.259010589922781 $305 $427 forward 7 unknown #
coedge $-1 $318 $317 $205 $311 reversed $302 $-1 #
edge $-1 $428 -79.259010589922781 $312 79.259010589922781 $310 $429 forward 7 unknown #
vertex $-1 $207 $430 #
vertex $-1 $324 $431 #
straight-curve $-1 79.259010589922781 0 -22.312878938760747 0 -1 0 I I #
coedge $-1 $304 $306 $208 $316 reversed $201 $-1 #
edge $-1 $319 -52.79346255172819 $322 52.79346255172819 $315 $432 forward 7 unknown #
coedge $-1 $310 $209 $214 $325 forward $302 $-1 #
coedge $-1 $209 $310 $304 $423 reversed $302 $-1 #
vertex $-1 $210 $433 #
straight-curve $-1 0 52.79346255172819 22.312878938760747 -1 0 0 I I #
coedge $-1 $211 $305 $213 $324 reversed $126 $-1 #
vertex $-1 $316 $434 #
straight-curve $-1 0 -52.79346255172819 22.312878938760747 1 0 0 I I #
edge $-1 $216 -22.312878938760747 $313 22.312878938760747 $213 $435 forward 7 unknown #
edge $-1 $217 -22.312878938760747 $312 22.312878938760747 $214 $436 forward 7 unknown #
point $-1 79.259010589922781 -52.79346255172819 22.312878938760747 #
point $-1 79.259010589922781 52.79346255172819 22.312878938760747 #
face $-1 $-1 $437 $31 $-1 $438 reversed single #
loop $-1 $-1 $229 $219 #
plane-surface $-1 0 -52.79346255172819 0 0 1 0 0 0 1 forward_v I I I I #
coedge $-1 $439 $222 $335 $440 forward $134 $-1 #
coedge $-1 $222 $439 $441 $442 forward $134 $-1 #
edge $-1 $443 -79.259010589922781 $336 79.259010589922781 $222 $444 forward 7 unknown #
coedge $-1 $224 $223 $445 $446 reversed $85 $-1 #
coedge $-1 $225 $231 $331 $440 reversed $220 $-1 #
vertex $-1 $440 $447 #
straight-curve $-1 79.259010589922781 -36.165420598411188 -8.4107916064380763 0 0 1 I I #
coedge $-1 $445 $448 $227 $339 forward $437 $-1 #
edge $-1 $344 -30.55374176419334 $340 -13.925699810876345 $338 $449 forward 7 unknown #
vertex $-1 $339 $450 #
straight-curve $-1 0 -36.165420598411188 -11.330287486991558 -1 0 0 I I #
coedge $-1 $451 $229 $448 $452 forward $329 $-1 #
coedge $-1 $229 $451 $231 $346 reversed $329 $-1 #
vertex $-1 $452 $453 #
straight-curve $-1 0 -52.79346255172819 -11.330287486991558 -1 0 0 I I #
edge $-1 $233 11.330287486991558 $454 22.312878938760747 $231 $455 forward 7 unknown #
point $-1 79.259010589922781 -36.165420598411188 -11.330287486991558 #
point $-1 79.259010589922781 -52.793462551728183 -11.330287486991558 #
loop $-1 $-1 $243 $235 #
plane-surface $-1 -79.259010589922781 0 0 1 0 0 0 0 -1 forward_v I I I I #
coedge $-1 $352 $238 $240 $356 reversed $142 $-1 #
coedge $-1 $238 $351 $456 $457 reversed $142 $-1 #
coedge $-1 $246 $241 $238 $354 forward $236 $-1 #
edge $-1 $357 -22.319643650979401 $458 -16.415079213569555 $353 $459 forward 7 unknown #
coedge $-1 $240 $239 $360 $460 reversed $89 $-1 #
edge $-1 $461 -2.0097183471152325e-014 $357 8.350315204175816 $351 $462 forward 7 unknown #
vertex $-1 $242 $463 #
straight-curve $-1 -73.354446152512935 -4.7022676548716298 22.312878938760747 0 1 0 I I #
coedge $-1 $456 $243 $246 $364 reversed $349 $-1 #
coedge $-1 $243 $456 $355 $460 forward $349 $-1 #
vertex $-1 $244 $464 #
straight-curve $-1 -79.259010589922781 -14.584278745582701 64.248740390178043 0 0 1 I I #
straight-curve $-1 -79.259010589922767 -14.584278745582701 16.408314364334885 -0.70710677298230451 0 -0.70710678939079041 I I #
edge $-1 $458 4.2247918739038184 $247 14.584278745582701 $359 $465 forward 7 unknown #
point $-1 -79.259010589922781 -14.584278745582701 22.312878938760747 #
point $-1 -73.354446152512935 -14.584278745582701 22.312878938760747 #
edge $-1 $466 1 $466 0 $250 $-1 forward 7 unknown #
vertex $-1 $251 $467 #
ellipse-curve $-1 -74.727838993313952 -11.624425353674447 17.781707310282197 -0.70710678939079041 0 0.70710677298230451 0.70710677298230451 0 0.70710678939079041 1 I I #
point $-1 -75.599621598235544 -11.624425353674447 20.067703440938597 #
edge $-1 $468 1 $468 0 $254 $-1 forward 7 unknown #
vertex $-1 $255 $469 #
ellipse-curve $-1 -74.727838993313952 -7.1846452658120725 17.781707310282197 -0.70710678939079041 0 0.70710677298230451 0.70710677298230451 0 0.70710678939079041 1 I I #
point $-1 -75.599621598235544 -7.1846452658120725 20.067703440938597 #
loop $-1 $-1 $266 $258 #
plane-surface $-1 -79.259010589922781 0 0 1 0 0 0 0 -1 forward_v I I I I #
coedge $-1 $378 $261 $263 $382 reversed $164 $-1 #
coedge $-1 $261 $377 $470 $471 reversed $164 $-1 #
coedge $-1 $269 $264 $261 $380 forward $259 $-1 #
edge $-1 $383 -22.319643650979401 $472 -16.415079213569555 $379 $473 forward 7 unknown #
coedge $-1 $263 $262 $386 $474 reversed $103 $-1 #
edge $-1 $475 -2.0097183471152325e-014 $383 8.350315204175816 $377 $476 forward 7 unknown #
vertex $-1 $265 $477 #
straight-curve $-1 -73.354446152512935 13.016288631530134 22.312878938760747 0 1 0 I I #
coedge $-1 $470 $266 $269 $390 reversed $375 $-1 #
coedge $-1 $266 $470 $381 $474 forward $375 $-1 #
vertex $-1 $267 $478 #
straight-curve $-1 -79.259010589922781 20.852833827220827 64.248740390178043 0 0 1 I I #
straight-curve $-1 -79.259010589922767 20.852833827220827 16.408314364334885 -0.70710677298230451 0 -0.70710678939079041 I I #
edge $-1 $472 -31.21232069889971 $270 -20.852833827220827 $385 $479 forward 7 unknown #
point $-1 -79.259010589922781 20.852833827220827 22.312878938760747 #
point $-1 -73.354446152512935 20.852833827220827 22.312878938760747 #
edge $-1 $480 1 $480 0 $273 $-1 forward 7 unknown #
vertex $-1 $274 $481 #
ellipse-curve $-1 -74.727838993313952 23.812687219129067 17.781707310282197 -0.70710678939079041 0 0.70710677298230451 0.70710677298230451 0 0.70710678939079041 1 I I #
point $-1 -75.599621598235544 23.812687219129067 20.067703440938597 #
edge $-1 $482 1 $482 0 $277 $-1 forward 7 unknown #
vertex $-1 $278 $483 #
ellipse-curve $-1 -74.727838993313952 28.252467306991441 17.781707310282197 -0.70710678939079041 0 0.70710677298230451 0.70710677298230451 0 0.70710678939079041 1 I I #
point $-1 -75.599621598235544 28.252467306991441 20.067703440938597 #
plane-surface $-1 79.259010589922781 0 0 -1 0 0 0 0 1 forward_v I I I I #
coedge $-1 $289 $484 $406 $485 forward $282 $-1 #
coedge $-1 $404 $284 $484 $486 reversed $186 $-1 #
coedge $-1 $284 $403 $407 $487 forward $186 $-1 #
edge $-1 $408 -103.01279173315596 $488 -90.592882712417889 $284 $489 forward 7 unknown #
coedge $-1 $286 $285 $402 $485 reversed $117 $-1 #
coedge $-1 $292 $287 $404 $487 reversed $293 $-1 #
vertex $-1 $288 $490 #
straight-curve $-1 79.259010589922781 20.397701150287009 13.68528507581059 0 1 0 I I #
coedge $-1 $484 $289 $292 $414 forward $282 $-1 #
vertex $-1 $290 $491 #
straight-curve $-1 37.673280854181698 28.797342049419861 22.312878938760747 1 0 0 I I #
straight-curve $-1 -34.769309866431996 28.797342049419861 123.80115665060599 -0.71933979245794832 0 0.69465837861970381 I I #
edge $-1 $294 28.797342049419861 $492 52.79346255172819 $292 $493 forward 7 unknown #
point $-1 79.259010589922781 28.797342049419861 22.312878938760747 #
point $-1 79.259010589922781 28.797342049419861 13.685285075810583 #
edge $-1 $494 1 $494 0 $297 $-1 forward 7 unknown #
vertex $-1 $298 $495 #
ellipse-curve $-1 73.0405102977398 40.795402300574018 16.185420184295666 0.69465837861970381 0 0.71933979245794832 1.7983494811448708 0 -1.7366459465492596 1 I I #
point $-1 76.59029268240549 40.795402300574018 16.262436060736409 #
plane-surface $-1 79.259010589922781 0 0 -1 0 0 0 0 1 forward_v I I I I #
coedge $-1 $306 $304 $308 $426 reversed $201 $-1 #
edge $-1 $319 -22.312878938760747 $428 22.312878938760747 $318 $496 forward 7 unknown #
vertex $-1 $426 $497 #
straight-curve $-1 -79.259010589922781 -52.79346255172819 0 0 0 -1 I I #
edge $-1 $424 -52.79346255172819 $428 52.79346255172819 $422 $498 forward 7 unknown #
straight-curve $-1 0 -52.79346255172819 -22.312878938760747 -1 0 0 I I #
vertex $-1 $311 $499 #
straight-curve $-1 0 52.79346255172819 -22.312878938760747 1 0 0 I I #
point $-1 79.259010589922781 52.79346255172819 -22.312878938760747 #
point $-1 79.259010589922781 -52.79346255172819 -22.312878938760747 #
straight-curve $-1 -79.259010589922781 0 22.312878938760747 0 -1 0 I I #
point $-1 -79.259010589922781 52.79346255172819 22.312878938760747 #
point $-1 -79.259010589922781 -52.79346255172819 22.312878938760747 #
straight-curve $-1 79.259010589922781 -52.79346255172819 0 0 0 -1 I I #
straight-curve $-1 79.259010589922781 52.79346255172819 0 0 0 -1 I I #
loop $-1 $-1 $445 $328 #
plane-surface $-1 -79.259010589922781 0 0 1 0 0 0 0 -1 forward_v I I I I #
coedge $-1 $332 $331 $451 $500 forward $134 $-1 #
edge $-1 $336 36.165420598411188 $454 52.79346255172819 $335 $501 forward 7 unknown #
coedge $-1 $448 $445 $332 $442 reversed $437 $-1 #
edge $-1 $502 -52.79346255172819 $443 -36.165420598411188 $441 $503 forward 7 unknown #
vertex $-1 $446 $504 #
straight-curve $-1 0 -36.165420598411188 -22.312878938760747 1 0 0 I I #
coedge $-1 $441 $338 $334 $446 forward $437 $-1 #
edge $-1 $340 2.9194958805534821 $443 13.902087332322671 $445 $505 forward 7 unknown #
point $-1 79.259010589922781 -36.165420598411188 -22.312878938760747 #
coedge $-1 $338 $441 $342 $452 reversed $437 $-1 #
straight-curve $-1 -79.259010589922781 -22.239720787534843 -11.330287486991558 0 1 0 I I #
point $-1 -79.259010589922781 -36.165420598411188 -11.330287486991558 #
coedge $-1 $343 $342 $439 $500 reversed $329 $-1 #
edge $-1 $344 11.330287486991558 $502 22.312878938760747 $448 $506 forward 7 unknown #
point $-1 -79.259010589922781 -52.793462551728183 -11.330287486991558 #
vertex $-1 $346 $507 #
straight-curve $-1 79.259010589922781 -52.79346255172819 0 0 0 -1 I I #
coedge $-1 $360 $359 $352 $457 forward $349 $-1 #
edge $-1 $458 41.935861451417296 $461 47.840426025843172 $456 $508 forward 7 unknown #
vertex $-1 $364 $509 #
straight-curve $-1 -95.674089803492336 -4.2247918739038184 22.312878938760747 -1 0 0 I I #
edge $-1 $461 -0.4774757809678114 $361 9.882011090711071 $360 $510 forward 7 unknown #
vertex $-1 $460 $511 #
straight-curve $-1 -79.259010589922767 -4.2247918739038184 16.408314364334885 0.70710677298230451 0 0.70710678939079041 I I #
point $-1 -73.354446152512935 -4.2247918739038184 22.312878938760747 #
point $-1 -79.259010589922781 -14.584278745582701 16.408314364334871 #
straight-curve $-1 -79.259010589922781 0 22.312878938760747 0 -1 0 I I #
vertex $-1 $367 $512 #
point $-1 -74.020732220331652 -11.624425353674447 18.488814099672986 #
vertex $-1 $371 $513 #
point $-1 -74.020732220331652 -7.1846452658120725 18.488814099672986 #
coedge $-1 $386 $385 $378 $471 forward $375 $-1 #
edge $-1 $472 41.935861451417296 $475 47.840426025843172 $470 $514 forward 7 unknown #
vertex $-1 $390 $515 #
straight-curve $-1 -95.674089803492336 31.21232069889971 22.312878938760747 -1 0 0 I I #
edge $-1 $475 -18.196032067369575 $387 -7.8365451956906931 $386 $516 forward 7 unknown #
vertex $-1 $474 $517 #
straight-curve $-1 -79.259010589922767 31.21232069889971 16.408314364334885 0.70710677298230451 0 0.70710678939079041 I I #
point $-1 -73.354446152512935 31.21232069889971 22.312878938760747 #
point $-1 -79.259010589922781 20.852833827220827 16.408314364334871 #
straight-curve $-1 -79.259010589922781 0 22.312878938760747 0 -1 0 I I #
vertex $-1 $393 $518 #
point $-1 -74.020732220331652 23.812687219129067 18.488814099672986 #
vertex $-1 $397 $519 #
point $-1 -74.020732220331652 28.252467306991441 18.488814099672986 #
coedge $-1 $402 $410 $403 $486 forward $282 $-1 #
edge $-1 $488 -32.395761401441163 $411 -8.3996408991328515 $402 $520 forward 7 unknown #
edge $-1 $492 -79.259010589922781 $488 -70.324875812598449 $403 $521 forward 7 unknown #
edge $-1 $492 -22.312878938760747 $408 -13.685285075810594 $407 $522 forward 7 unknown #
vertex $-1 $485 $523 #
straight-curve $-1 5.1578103640805075 52.79346255172819 85.243983958253949 -0.71933979245794832 0 0.69465837861970381 I I #
point $-1 79.259010589922781 52.79346255172819 13.685285075810594 #
point $-1 70.324875812598449 28.797342049419861 22.312878938760733 #
vertex $-1 $414 $524 #
straight-curve $-1 79.259010589922781 0 22.312878938760747 0 1 0 I I #
vertex $-1 $417 $525 #
point $-1 74.838859778884668 40.795402300574018 14.448774237746408 #
straight-curve $-1 -79.259010589922781 52.79346255172819 0 0 0 -1 I I #
point $-1 -79.259010589922781 -52.79346255172819 -22.312878938760747 #
straight-curve $-1 -79.259010589922781 0 -22.312878938760747 0 1 0 I I #
point $-1 -79.259010589922781 52.79346255172819 -22.312878938760747 #
edge $-1 $454 -79.259010589922781 $502 79.259010589922781 $451 $526 forward 7 unknown #
straight-curve $-1 79.259010589922781 0 -22.312878938760747 0 -1 0 I I #
vertex $-1 $442 $527 #
straight-curve $-1 -79.259010589922781 0 -22.312878938760747 0 1 0 I I #
point $-1 -79.259010589922781 -36.165420598411188 -22.312878938760747 #
straight-curve $-1 -79.259010589922781 -36.165420598411188 -8.4107916064380763 0 0 -1 I I #
straight-curve $-1 -79.259010589922781 -52.79346255172819 0 0 0 -1 I I #
point $-1 79.259010589922781 -52.79346255172819 -22.312878938760747 #
straight-curve $-1 -79.259010589922781 -4.2247918739038184 64.248740390178043 0 0 -1 I I #
point $-1 -79.259010589922781 -4.2247918739038184 22.312878938760747 #
straight-curve $-1 -79.259010589922781 -4.7022676548716298 16.408314364334871 0 -1 0 I I #
point $-1 -79.259010589922781 -4.2247918739038184 16.408314364334871 #
point $-1 -74.02073220392316 -11.624425353674447 17.07460053729989 #
point $-1 -74.02073220392316 -7.1846452658120725 17.07460053729989 #
straight-curve $-1 -79.259010589922781 31.21232069889971 64.248740390178043 0 0 -1 I I #
point $-1 -79.259010589922781 31.21232069889971 22.312878938760747 #
straight-curve $-1 -79.259010589922781 13.016288631530134 16.408314364334871 0 -1 0 I I #
point $-1 -79.259010589922781 31.21232069889971 16.408314364334871 #
point $-1 -74.02073220392316 23.812687219129067 17.07460053729989 #
point $-1 -74.02073220392316 28.252467306991441 17.07460053729989 #
straight-curve $-1 70.324875812598435 20.397701150287009 22.312878938760747 0 -1 0 I I #
straight-curve $-1 0 52.79346255172819 22.312878938760747 -1 0 0 I I #
straight-curve $-1 79.259010589922781 52.79346255172819 0 0 0 -1 I I #
point $-1 70.324875812598449 52.793462551728176 22.312878938760733 #
point $-1 79.259010589922781 52.79346255172819 22.312878938760747 #
point $-1 71.303864351190541 40.795402300574018 14.387070703150796 #
straight-curve $-1 0 -52.79346255172819 -22.312878938760747 -1 0 0 I I #
point $-1 -79.259010589922781 -52.79346255172819 -22.312878938760747 #
End-of-ACIS-data 