500 0 2 0           
7 Unknown 11 ACIS 5.0 NT 24 Thu Mar 25 17:32:27 1999 
-1 9.9999999999999995e-007 1e-010 
body $-1 $2 $-1 $3 #
body $-1 $4 $-1 $5 #
lump $-1 $-1 $6 $0 #
transform $-1 1 0 0 0 1 0 0 0 1 43.975951414532915 17.911272010962701 6.2154032532929904 1 rotate no_reflect no_shear #
lump $-1 $-1 $7 $1 #
transform $-1 1 0 0 0 1 0 0 0 1 43.975951414532915 17.911272010962701 6.2154032532929904 1 rotate no_reflect no_shear #
shell $-1 $-1 $-1 $8 $-1 $2 #
shell $-1 $-1 $-1 $9 $-1 $4 #
face $-1 $10 $11 $6 $-1 $12 forward single #
face $-1 $13 $14 $7 $-1 $15 reversed single #
face $-1 $16 $17 $6 $-1 $18 reversed single #
loop $-1 $-1 $19 $8 #
plane-surface $-1 0 0 6.2154032532929904 0 0 1 1 0 0 forward_v I I I I #
face $-1 $20 $21 $7 $-1 $22 reversed single #
loop $-1 $-1 $23 $9 #
plane-surface $-1 -40.202038682011128 0 3.2154032532929904 0 0 1 1 0 0 forward_v I I I I #
face $-1 $24 $25 $6 $-1 $26 reversed single #
loop $-1 $-1 $27 $10 #
plane-surface $-1 0 0 -6.2154032532929904 0 0 1 1 0 0 forward_v I I I I #
coedge $-1 $28 $29 $30 $31 forward $11 $-1 #
face $-1 $32 $33 $7 $-1 $34 reversed single #
loop $-1 $-1 $35 $13 #
plane-surface $-1 -36.428125949489342 0 4.7154032532929904 -1 0 0 0 0 1 forward_v I I I I #
coedge $-1 $36 $37 $38 $39 forward $14 $-1 #
face $-1 $40 $41 $6 $-1 $42 reversed single #
loop $-1 $-1 $43 $16 #
plane-surface $-1 0 -17.911272010962701 0 0 1 0 0 0 1 forward_v I I I I #
coedge $-1 $44 $45 $46 $47 forward $17 $-1 #
coedge $-1 $48 $19 $49 $50 forward $11 $-1 #
coedge $-1 $19 $48 $51 $52 forward $11 $-1 #
coedge $-1 $53 $54 $19 $31 reversed $55 $-1 #
edge $-1 $56 -17.911272010962701 $57 17.911272010962701 $30 $58 forward 7 unknown #
face $-1 $59 $60 $7 $-1 $61 reversed single #
loop $-1 $-1 $62 $20 #
plane-surface $-1 0 17.911272010962701 0 0 -1 0 0 0 -1 forward_v I I I I #
coedge $-1 $38 $63 $64 $65 reversed $21 $-1 #
coedge $-1 $66 $23 $67 $68 reversed $14 $-1 #
coedge $-1 $23 $66 $69 $70 reversed $14 $-1 #
coedge $-1 $71 $35 $23 $39 reversed $21 $-1 #
edge $-1 $72 -17.911272010962701 $73 17.911272010962701 $38 $74 forward 7 unknown #
face $-1 $75 $76 $6 $-1 $77 reversed single #
loop $-1 $-1 $78 $24 #
plane-surface $-1 -43.975951414532915 0 0 1 0 0 0 0 -1 forward_v I I I I #
coedge $-1 $79 $51 $80 $81 forward $25 $-1 #
coedge $-1 $82 $27 $79 $83 forward $17 $-1 #
coedge $-1 $27 $82 $84 $85 forward $17 $-1 #
coedge $-1 $54 $53 $27 $47 reversed $55 $-1 #
edge $-1 $86 -17.911272010962701 $87 17.911272010962701 $46 $88 forward 7 unknown #
coedge $-1 $29 $28 $89 $90 forward $11 $-1 #
coedge $-1 $91 $92 $28 $50 reversed $76 $-1 #
edge $-1 $57 -43.975951414532915 $93 43.975951414532915 $49 $94 forward 7 unknown #
coedge $-1 $43 $95 $29 $52 reversed $25 $-1 #
edge $-1 $96 -43.975951414532915 $56 43.975951414532915 $51 $97 forward 7 unknown #
coedge $-1 $46 $30 $95 $98 forward $55 $-1 #
coedge $-1 $30 $46 $91 $99 reversed $55 $-1 #
loop $-1 $-1 $53 $75 #
vertex $-1 $31 $100 #
vertex $-1 $31 $101 #
straight-curve $-1 43.975951414532915 0 6.2154032532929904 0 1 0 I I #
face $-1 $102 $103 $7 $-1 $104 forward single #
loop $-1 $-1 $105 $32 #
plane-surface $-1 -43.975951414532915 0 0 1 0 0 0 0 -1 forward_v I I I I #
coedge $-1 $69 $106 $71 $107 forward $33 $-1 #
coedge $-1 $35 $71 $108 $109 reversed $21 $-1 #
coedge $-1 $110 $67 $35 $65 forward $111 $-1 #
edge $-1 $73 0.85770162664649519 $112 3.8577016266464952 $64 $113 forward 7 unknown #
coedge $-1 $37 $36 $105 $114 reversed $14 $-1 #
coedge $-1 $64 $115 $36 $68 forward $111 $-1 #
edge $-1 $116 -23.874932073527351 $73 -16.327106608483778 $67 $117 forward 7 unknown #
coedge $-1 $118 $62 $37 $70 forward $33 $-1 #
edge $-1 $72 16.327106608483778 $119 23.874932073527351 $69 $120 forward 7 unknown #
coedge $-1 $63 $38 $62 $107 reversed $21 $-1 #
vertex $-1 $70 $121 #
vertex $-1 $68 $122 #
straight-curve $-1 -36.428125949489342 0 3.2154032532929904 0 -1 0 I I #
face $-1 $-1 $55 $6 $-1 $123 reversed single #
loop $-1 $-1 $91 $40 #
plane-surface $-1 0 17.911272010962701 0 0 -1 0 0 0 -1 forward_v I I I I #
coedge $-1 $124 $89 $92 $125 forward $41 $-1 #
coedge $-1 $95 $43 $44 $83 reversed $25 $-1 #
coedge $-1 $89 $124 $43 $81 reversed $41 $-1 #
edge $-1 $96 -6.2154032532929904 $126 6.2154032532929904 $80 $127 forward 7 unknown #
coedge $-1 $45 $44 $124 $128 forward $17 $-1 #
edge $-1 $87 -43.975951414532915 $126 43.975951414532915 $79 $129 forward 7 unknown #
coedge $-1 $92 $91 $45 $85 reversed $76 $-1 #
edge $-1 $130 -43.975951414532915 $86 43.975951414532915 $84 $131 forward 7 unknown #
vertex $-1 $47 $132 #
vertex $-1 $98 $133 #
straight-curve $-1 43.975951414532915 0 -6.2154032532929904 0 -1 0 I I #
coedge $-1 $78 $80 $48 $90 reversed $41 $-1 #
edge $-1 $93 -17.911272010962701 $96 17.911272010962701 $89 $134 forward 7 unknown #
coedge $-1 $84 $49 $54 $99 forward $76 $-1 #
coedge $-1 $49 $84 $78 $125 reversed $76 $-1 #
vertex $-1 $50 $135 #
straight-curve $-1 0 17.911272010962701 6.2154032532929904 -1 0 0 I I #
coedge $-1 $51 $79 $53 $98 reversed $25 $-1 #
vertex $-1 $90 $136 #
straight-curve $-1 0 -17.911272010962701 6.2154032532929904 1 0 0 I I #
edge $-1 $56 -6.2154032532929904 $87 6.2154032532929904 $53 $137 forward 7 unknown #
edge $-1 $57 -6.2154032532929904 $86 6.2154032532929904 $54 $138 forward 7 unknown #
point $-1 43.975951414532915 -17.911272010962701 6.2154032532929904 #
point $-1 43.975951414532915 17.911272010962701 6.2154032532929904 #
face $-1 $-1 $111 $7 $-1 $139 reversed single #
loop $-1 $-1 $108 $59 #
plane-surface $-1 0 0 6.2154032532929904 0 0 1 1 0 0 forward_v I I I I #
coedge $-1 $140 $141 $66 $114 forward $60 $-1 #
coedge $-1 $62 $118 $142 $143 reversed $33 $-1 #
edge $-1 $144 -3.8577016266464952 $72 -0.85770162664649519 $62 $145 forward 7 unknown #
coedge $-1 $142 $146 $63 $109 forward $103 $-1 #
edge $-1 $112 -17.911272010962701 $144 17.911272010962701 $108 $147 forward 7 unknown #
coedge $-1 $115 $64 $146 $148 reversed $111 $-1 #
loop $-1 $-1 $64 $102 #
vertex $-1 $65 $149 #
straight-curve $-1 -36.428125949489342 -17.911272010962701 2.3577016266464952 0 0 1 I I #
edge $-1 $119 -17.911272010962701 $116 17.911272010962701 $105 $150 forward 7 unknown #
coedge $-1 $67 $110 $140 $151 forward $111 $-1 #
vertex $-1 $114 $152 #
straight-curve $-1 -20.101019341005564 -17.911272010962701 3.2154032532929904 1 0 0 I I #
coedge $-1 $106 $69 $141 $153 reversed $33 $-1 #
vertex $-1 $114 $154 #
straight-curve $-1 -20.101019341005564 17.911272010962701 3.2154032532929904 -1 0 0 I I #
point $-1 -36.428125949489342 17.911272010962701 3.2154032532929904 #
point $-1 -36.428125949489342 -17.911272010962701 3.2154032532929904 #
plane-surface $-1 43.975951414532915 0 0 -1 0 0 0 0 1 forward_v I I I I #
coedge $-1 $80 $78 $82 $128 reversed $41 $-1 #
edge $-1 $93 -6.2154032532929904 $130 6.2154032532929904 $92 $155 forward 7 unknown #
vertex $-1 $128 $156 #
straight-curve $-1 -43.975951414532915 -17.911272010962701 0 0 0 -1 I I #
edge $-1 $126 -17.911272010962701 $130 17.911272010962701 $124 $157 forward 7 unknown #
straight-curve $-1 0 -17.911272010962701 -6.2154032532929904 -1 0 0 I I #
vertex $-1 $85 $158 #
straight-curve $-1 0 17.911272010962701 -6.2154032532929904 1 0 0 I I #
point $-1 43.975951414532915 17.911272010962701 -6.2154032532929904 #
point $-1 43.975951414532915 -17.911272010962701 -6.2154032532929904 #
straight-curve $-1 -43.975951414532915 0 6.2154032532929904 0 -1 0 I I #
point $-1 -43.975951414532915 17.911272010962701 6.2154032532929904 #
point $-1 -43.975951414532915 -17.911272010962701 6.2154032532929904 #
straight-curve $-1 43.975951414532915 -17.911272010962701 0 0 0 -1 I I #
straight-curve $-1 43.975951414532915 17.911272010962701 0 0 0 -1 I I #
plane-surface $-1 0 -17.911272010962701 0 0 1 0 0 0 1 forward_v I I I I #
coedge $-1 $159 $105 $115 $151 reversed $60 $-1 #
coedge $-1 $105 $159 $118 $153 forward $60 $-1 #
coedge $-1 $160 $108 $106 $143 forward $103 $-1 #
edge $-1 $144 36.428125949489342 $161 43.975951414532915 $106 $162 forward 7 unknown #
vertex $-1 $143 $163 #
straight-curve $-1 -36.428125949489342 17.911272010962701 2.3577016266464952 0 0 -1 I I #
coedge $-1 $108 $160 $110 $148 forward $103 $-1 #
straight-curve $-1 -36.428125949489342 0 6.2154032532929904 0 1 0 I I #
edge $-1 $164 -43.975951414532915 $112 -36.428125949489342 $110 $165 forward 7 unknown #
point $-1 -36.428125949489342 -17.911272010962701 6.2154032532929904 #
straight-curve $-1 -43.975951414532915 0 3.2154032532929904 0 -1 0 I I #
edge $-1 $164 -6.2154032532929904 $116 -3.2154032532929904 $140 $166 forward 7 unknown #
point $-1 -43.975951414532915 -17.911272010962701 3.2154032532929904 #
edge $-1 $161 -6.2154032532929904 $119 -3.2154032532929904 $118 $167 forward 7 unknown #
point $-1 -43.975951414532915 17.911272010962701 3.2154032532929904 #
straight-curve $-1 -43.975951414532915 17.911272010962701 0 0 0 -1 I I #
point $-1 -43.975951414532915 -17.911272010962701 -6.2154032532929904 #
straight-curve $-1 -43.975951414532915 0 -6.2154032532929904 0 1 0 I I #
point $-1 -43.975951414532915 17.911272010962701 -6.2154032532929904 #
coedge $-1 $141 $140 $160 $168 reversed $60 $-1 #
coedge $-1 $146 $142 $159 $168 forward $103 $-1 #
vertex $-1 $143 $169 #
straight-curve $-1 0 17.911272010962701 6.2154032532929904 -1 0 0 I I #
point $-1 -36.428125949489342 17.911272010962701 6.2154032532929904 #
vertex $-1 $168 $170 #
straight-curve $-1 0 -17.911272010962701 6.2154032532929904 1 0 0 I I #
straight-curve $-1 -43.975951414532915 -17.911272010962701 0 0 0 -1 I I #
straight-curve $-1 -43.975951414532915 17.911272010962701 0 0 0 -1 I I #
edge $-1 $161 -17.911272010962701 $164 17.911272010962701 $159 $171 forward 7 unknown #
point $-1 -43.975951414532915 17.911272010962701 6.2154032532929904 #
point $-1 -43.975951414532915 -17.911272010962701 6.2154032532929904 #
straight-curve $-1 -43.975951414532915 0 6.2154032532929904 0 -1 0 I I #
End-of-ACIS-data 