500 0 5 0           
7 Unknown 11 ACIS 5.0 NT 24 Thu Mar 25 22:16:54 1999 
-1 9.9999999999999995e-007 1e-010 
body $-1 $5 $-1 $6 #
body $-1 $7 $-1 $8 #
body $-1 $9 $-1 $10 #
body $-1 $11 $-1 $12 #
body $-1 $13 $-1 $14 #
lump $-1 $-1 $15 $0 #
transform $-1 1 0 0 0 1 0 0 0 1 53.727225562303538 26.642092709937828 10.528127001392559 1 rotate no_reflect no_shear #
lump $-1 $-1 $16 $1 #
transform $-1 1 0 0 0 1 0 0 0 1 53.727225562303538 26.642092709937828 10.528127001392559 1 rotate no_reflect no_shear #
lump $-1 $-1 $17 $2 #
transform $-1 1 0 0 0 1 0 0 0 1 53.727225562303538 26.642092709937828 10.528127001392559 1 rotate no_reflect no_shear #
lump $-1 $-1 $18 $3 #
transform $-1 1 0 0 0 1 0 0 0 1 53.727225562303538 26.642092709937828 10.528127001392559 1 rotate no_reflect no_shear #
lump $-1 $-1 $19 $4 #
transform $-1 1 0 0 0 1 0 0 0 1 53.727225562303538 26.642092709937828 10.528127001392559 1 rotate no_reflect no_shear #
shell $-1 $-1 $-1 $20 $-1 $5 #
shell $-1 $-1 $-1 $21 $-1 $7 #
shell $-1 $-1 $-1 $22 $-1 $9 #
shell $-1 $-1 $-1 $23 $-1 $11 #
shell $-1 $-1 $-1 $24 $-1 $13 #
face $-1 $25 $26 $15 $-1 $27 forward single #
face $-1 $28 $29 $16 $-1 $30 reversed single #
face $-1 $31 $32 $17 $-1 $33 reversed single #
face $-1 $34 $35 $18 $-1 $36 forward single #
face $-1 $37 $38 $19 $-1 $39 reversed single #
face $-1 $40 $41 $15 $-1 $42 reversed single #
loop $-1 $-1 $43 $20 #
plane-surface $-1 0 0 10.528127001392559 0 0 1 1 0 0 forward_v I I I I #
face $-1 $44 $45 $16 $-1 $46 forward single #
loop $-1 $-1 $47 $21 #
plane-surface $-1 -49.186176773547736 0 -4.8455024165349556 0 0 1 1 0 0 forward_v I I I I #
face $-1 $48 $49 $17 $-1 $50 forward single #
loop $-1 $-1 $51 $22 #
plane-surface $-1 49.186176773547736 0 -4.8455024165349556 0 0 1 1 0 0 forward_v I I I I #
face $-1 $52 $53 $18 $-1 $54 forward single #
loop $-1 $-1 $55 $23 #
plane-surface $-1 9.5806199108934074 44.627585511210114 124.23150262890127 -1 0 0 0 0.57357644374324357 0.81915203911291934 forward_v I I I I #
face $-1 $56 $57 $19 $-1 $58 reversed single #
loop $-1 $59 $60 $24 #
cone-surface $-1 -1.5053838077338568 21.555591864712785 5.8008607517294726 0 -0.57357644374324357 -0.81915203911291934 1.5 0 0 1 I I 0 1 1.5 forward I I I I #
face $-1 $61 $62 $15 $-1 $63 reversed single #
loop $-1 $-1 $64 $25 #
plane-surface $-1 0 0 -10.528127001392559 0 0 1 1 0 0 forward_v I I I I #
coedge $-1 $65 $66 $67 $68 forward $26 $-1 #
face $-1 $69 $70 $16 $-1 $71 reversed single #
loop $-1 $-1 $72 $28 #
plane-surface $-1 -44.645127984791934 0 -7.6868147089637571 -1 0 0 0 0 1 forward_v I I I I #
coedge $-1 $73 $74 $75 $76 reversed $29 $-1 #
face $-1 $77 $78 $17 $-1 $79 reversed single #
loop $-1 $-1 $80 $31 #
plane-surface $-1 44.645127984791934 0 -7.6868147089637571 1 0 0 0 0 -1 forward_v I I I I #
coedge $-1 $81 $82 $83 $84 reversed $32 $-1 #
face $-1 $85 $86 $18 $-1 $87 forward single #
loop $-1 $-1 $88 $34 #
plane-surface $-1 -1.5053838077338568 -17.005756429224192 36.209969878419855 0 0.57357644374324357 0.81915203911291934 1 0 0 forward_v I I I I #
coedge $-1 $89 $90 $91 $92 reversed $35 $-1 #
face $-1 $93 $94 $19 $-1 $95 forward single #
loop $-1 $96 $97 $37 #
cone-surface $-1 -1.5053838077338568 19.524097251342951 2.8995858246619797 0 -0.57357644374324357 -0.81915203911291934 0.75 0 0 1 I I -0.70710678118654757 0.70710678118654757 0.75 forward I I I I #
loop $-1 $-1 $98 $24 #
coedge $-1 $60 $60 $99 $100 reversed $38 $-1 #
face $-1 $101 $102 $15 $-1 $103 reversed single #
loop $-1 $-1 $104 $40 #
plane-surface $-1 0 -26.642092709937828 0 0 1 0 0 0 1 forward_v I I I I #
coedge $-1 $105 $106 $107 $108 forward $41 $-1 #
coedge $-1 $109 $43 $110 $111 forward $26 $-1 #
coedge $-1 $43 $109 $112 $113 forward $26 $-1 #
coedge $-1 $114 $115 $43 $68 reversed $116 $-1 #
edge $-1 $117 -26.642092709937828 $118 26.642092709937828 $67 $119 forward 7 unknown #
face $-1 $120 $121 $16 $-1 $122 reversed single #
loop $-1 $-1 $123 $44 #
plane-surface $-1 -53.727225562303538 0 0 1 0 0 0 0 -1 forward_v I I I I #
coedge $-1 $75 $124 $125 $126 reversed $45 $-1 #
coedge $-1 $127 $47 $128 $129 reversed $29 $-1 #
coedge $-1 $47 $127 $130 $131 reversed $29 $-1 #
coedge $-1 $132 $72 $47 $76 forward $45 $-1 #
edge $-1 $133 -26.642092709937828 $134 26.642092709937828 $75 $135 forward 7 unknown #
face $-1 $136 $137 $17 $-1 $138 reversed single #
loop $-1 $-1 $83 $48 #
plane-surface $-1 53.727225562303538 0 0 -1 0 0 0 0 1 forward_v I I I I #
coedge $-1 $139 $140 $141 $142 reversed $49 $-1 #
coedge $-1 $143 $51 $144 $145 reversed $32 $-1 #
coedge $-1 $51 $143 $146 $147 reversed $32 $-1 #
coedge $-1 $148 $149 $51 $84 forward $78 $-1 #
edge $-1 $150 -26.642092709937828 $151 26.642092709937828 $83 $152 forward 7 unknown #
face $-1 $153 $154 $18 $-1 $155 reversed single #
loop $-1 $-1 $156 $52 #
plane-surface $-1 -12.591387526361121 44.627585511210114 124.23150262890127 1 0 0 0 -0.57357644374324357 -0.81915203911291934 forward_v I I I I #
coedge $-1 $157 $158 $159 $160 reversed $53 $-1 #
coedge $-1 $90 $55 $158 $161 forward $35 $-1 #
coedge $-1 $55 $89 $162 $163 reversed $35 $-1 #
coedge $-1 $164 $159 $55 $92 forward $154 $-1 #
edge $-1 $165 -56.468335016918637 $166 -51.587624313058072 $91 $167 forward 7 unknown #
face $-1 $168 $169 $19 $-1 $170 forward single #
loop $-1 $-1 $171 $56 #
plane-surface $-1 9.5806199108934074 44.627585511210114 124.23150262890127 -1 0 0 0 0.57357644374324357 0.81915203911291934 forward_v I I I I #
loop $-1 $-1 $172 $37 #
coedge $-1 $97 $97 $98 $173 forward $57 $-1 #
coedge $-1 $98 $98 $97 $173 reversed $59 $-1 #
coedge $-1 $99 $99 $60 $100 forward $169 $-1 #
edge $-1 $174 -6.7925095917478914e-016 $174 6.2831853071795996 $99 $175 forward 7 unknown #
face $-1 $176 $177 $15 $-1 $178 reversed single #
loop $-1 $-1 $179 $61 #
plane-surface $-1 -53.727225562303538 0 0 1 0 0 0 0 -1 forward_v I I I I #
coedge $-1 $180 $112 $181 $182 forward $62 $-1 #
coedge $-1 $183 $64 $180 $184 forward $41 $-1 #
coedge $-1 $64 $183 $185 $186 forward $41 $-1 #
coedge $-1 $115 $114 $64 $108 reversed $116 $-1 #
edge $-1 $187 -26.642092709937828 $188 26.642092709937828 $107 $189 forward 7 unknown #
coedge $-1 $66 $65 $190 $191 forward $26 $-1 #
coedge $-1 $192 $193 $65 $111 reversed $177 $-1 #
edge $-1 $118 -53.727225562303538 $194 53.727225562303538 $110 $195 forward 7 unknown #
coedge $-1 $104 $196 $66 $113 reversed $62 $-1 #
edge $-1 $197 -53.727225562303538 $117 53.727225562303538 $112 $198 forward 7 unknown #
coedge $-1 $107 $67 $196 $199 forward $116 $-1 #
coedge $-1 $67 $107 $192 $200 reversed $116 $-1 #
loop $-1 $-1 $114 $176 #
vertex $-1 $68 $201 #
vertex $-1 $68 $202 #
straight-curve $-1 53.727225562303538 0 10.528127001392559 0 1 0 I I #
face $-1 $203 $204 $16 $-1 $205 forward single #
loop $-1 $-1 $128 $69 #
plane-surface $-1 0 -26.642092709937828 0 0 1 0 0 0 1 forward_v I I I I #
coedge $-1 $206 $207 $127 $208 forward $70 $-1 #
coedge $-1 $72 $132 $209 $210 reversed $45 $-1 #
coedge $-1 $211 $128 $72 $126 forward $121 $-1 #
edge $-1 $133 1.0020950620530771 $212 6.68471964691068 $125 $213 forward 7 unknown #
coedge $-1 $74 $73 $123 $208 reversed $29 $-1 #
coedge $-1 $125 $214 $73 $129 forward $121 $-1 #
edge $-1 $215 -29.13413717552967 $133 -20.052039598018066 $128 $216 forward 7 unknown #
coedge $-1 $217 $218 $74 $131 forward $219 $-1 #
edge $-1 $134 20.052039598018066 $220 29.13413717552967 $130 $221 forward 7 unknown #
coedge $-1 $124 $75 $218 $222 reversed $45 $-1 #
vertex $-1 $129 $223 #
vertex $-1 $131 $224 #
straight-curve $-1 -44.645127984791934 0 -4.8455024165349556 0 1 0 I I #
face $-1 $225 $226 $17 $-1 $227 reversed single #
loop $-1 $-1 $146 $77 #
plane-surface $-1 0 26.642092709937828 0 0 -1 0 0 0 -1 forward_v I I I I #
coedge $-1 $228 $80 $143 $229 forward $49 $-1 #
coedge $-1 $80 $228 $230 $231 reversed $49 $-1 #
coedge $-1 $232 $146 $80 $142 forward $137 $-1 #
edge $-1 $233 1.0020950620530771 $234 6.68471964691068 $141 $235 forward 7 unknown #
coedge $-1 $82 $81 $139 $229 reversed $32 $-1 #
coedge $-1 $236 $237 $81 $145 forward $238 $-1 #
edge $-1 $239 20.052039598018066 $150 29.13413717552967 $144 $240 forward 7 unknown #
coedge $-1 $141 $241 $82 $147 forward $137 $-1 #
edge $-1 $151 -29.13413717552967 $233 -20.052039598018066 $146 $242 forward 7 unknown #
coedge $-1 $243 $83 $241 $244 reversed $78 $-1 #
coedge $-1 $83 $243 $236 $245 forward $78 $-1 #
vertex $-1 $84 $246 #
vertex $-1 $147 $247 #
straight-curve $-1 53.727225562303538 0 -4.8455024165349556 0 1 0 I I #
face $-1 $248 $249 $18 $-1 $250 reversed single #
loop $-1 $-1 $251 $85 #
plane-surface $-1 0 26.642092709937828 0 0 -1 0 0 0 -1 forward_v I I I I #
coedge $-1 $252 $253 $251 $254 reversed $86 $-1 #
coedge $-1 $255 $88 $253 $256 reversed $53 $-1 #
coedge $-1 $88 $255 $89 $161 reversed $53 $-1 #
coedge $-1 $91 $251 $88 $160 forward $154 $-1 #
edge $-1 $257 -11.838695622494193 $165 10.333311814760336 $159 $258 forward 7 unknown #
edge $-1 $165 -53.284185419875641 $259 -44.774926092542856 $89 $260 forward 7 unknown #
coedge $-1 $261 $262 $90 $163 forward $263 $-1 #
edge $-1 $166 -4.3282999543327705 $259 2.642077174992508 $162 $264 forward 7 unknown #
coedge $-1 $265 $91 $262 $266 reversed $154 $-1 #
vertex $-1 $160 $267 #
vertex $-1 $163 $268 #
straight-curve $-1 9.5806199108934074 26.642092709937828 62.115751314450634 0 0 1 I I #
face $-1 $269 $270 $19 $-1 $271 forward single #
loop $-1 $272 $99 $93 #
plane-surface $-1 -1.5053838077338568 -17.005756429224192 36.209969878419855 0 0.57357644374324357 0.81915203911291934 1 0 0 forward_v I I I I #
coedge $-1 $273 $274 $275 $276 reversed $94 $-1 #
coedge $-1 $172 $172 $-1 $277 forward $96 $-1 #
edge $-1 $278 0 $278 6.2831853071796004 $97 $279 forward 7 unknown #
vertex $-1 $100 $280 #
ellipse-curve $-1 -1.5053838077338568 23.156904145275185 8.0877716494622778 0 -0.57357644374324357 -0.81915203911291934 1.5 0 0 1 I I #
face $-1 $-1 $116 $15 $-1 $281 reversed single #
loop $-1 $-1 $192 $101 #
plane-surface $-1 0 26.642092709937828 0 0 -1 0 0 0 -1 forward_v I I I I #
coedge $-1 $282 $190 $193 $283 forward $102 $-1 #
coedge $-1 $196 $104 $105 $184 reversed $62 $-1 #
coedge $-1 $190 $282 $104 $182 reversed $102 $-1 #
edge $-1 $197 -10.528127001392559 $284 10.528127001392559 $181 $285 forward 7 unknown #
coedge $-1 $106 $105 $282 $286 forward $41 $-1 #
edge $-1 $188 -53.727225562303538 $284 53.727225562303538 $180 $287 forward 7 unknown #
coedge $-1 $193 $192 $106 $186 reversed $177 $-1 #
edge $-1 $288 -53.727225562303538 $187 53.727225562303538 $185 $289 forward 7 unknown #
vertex $-1 $108 $290 #
vertex $-1 $199 $291 #
straight-curve $-1 53.727225562303538 0 -10.528127001392559 0 -1 0 I I #
coedge $-1 $179 $181 $109 $191 reversed $102 $-1 #
edge $-1 $194 -26.642092709937828 $197 26.642092709937828 $190 $292 forward 7 unknown #
coedge $-1 $185 $110 $115 $200 forward $177 $-1 #
coedge $-1 $110 $185 $179 $283 reversed $177 $-1 #
vertex $-1 $111 $293 #
straight-curve $-1 0 26.642092709937828 10.528127001392559 -1 0 0 I I #
coedge $-1 $112 $180 $114 $199 reversed $62 $-1 #
vertex $-1 $191 $294 #
straight-curve $-1 0 -26.642092709937828 10.528127001392559 1 0 0 I I #
edge $-1 $117 -10.528127001392559 $188 10.528127001392559 $114 $295 forward 7 unknown #
edge $-1 $118 -10.528127001392559 $187 10.528127001392559 $115 $296 forward 7 unknown #
point $-1 53.727225562303538 -26.642092709937828 10.528127001392559 #
point $-1 53.727225562303538 26.642092709937828 10.528127001392559 #
face $-1 $297 $298 $16 $-1 $299 reversed single #
loop $-1 $-1 $300 $120 #
plane-surface $-1 0 0 10.528127001392559 0 0 1 1 0 0 forward_v I I I I #
coedge $-1 $301 $123 $214 $302 reversed $70 $-1 #
coedge $-1 $123 $301 $217 $303 forward $70 $-1 #
edge $-1 $220 -26.642092709937828 $215 26.642092709937828 $123 $304 forward 7 unknown #
coedge $-1 $305 $306 $124 $210 forward $298 $-1 #
edge $-1 $212 -26.642092709937828 $307 26.642092709937828 $209 $308 forward 7 unknown #
coedge $-1 $309 $125 $306 $310 reversed $121 $-1 #
vertex $-1 $126 $311 #
straight-curve $-1 -44.645127984791934 -26.642092709937828 -3.8434073544818785 0 0 -1 I I #
coedge $-1 $128 $312 $206 $302 forward $121 $-1 #
vertex $-1 $129 $313 #
straight-curve $-1 -24.593088386773868 -26.642092709937828 -4.8455024165349556 1 0 0 I I #
coedge $-1 $314 $130 $207 $303 reversed $219 $-1 #
coedge $-1 $130 $315 $132 $222 forward $219 $-1 #
loop $-1 $-1 $130 $297 #
vertex $-1 $208 $316 #
straight-curve $-1 -24.593088386773868 26.642092709937828 -4.8455024165349556 -1 0 0 I I #
edge $-1 $307 -6.68471964691068 $134 -1.0020950620530771 $218 $317 forward 7 unknown #
point $-1 -44.645127984791934 -26.642092709937828 -4.8455024165349556 #
point $-1 -44.645127984791934 26.642092709937828 -4.8455024165349556 #
face $-1 $318 $319 $17 $-1 $320 forward single #
loop $-1 $-1 $321 $136 #
plane-surface $-1 -49.186176773547736 0 -4.8455024165349556 0 0 1 1 0 0 forward_v I I I I #
coedge $-1 $140 $139 $237 $322 reversed $49 $-1 #
edge $-1 $233 -26.642092709937828 $239 26.642092709937828 $139 $323 forward 7 unknown #
coedge $-1 $324 $325 $140 $231 forward $326 $-1 #
edge $-1 $234 -26.642092709937828 $327 26.642092709937828 $230 $328 forward 7 unknown #
coedge $-1 $329 $141 $325 $330 reversed $137 $-1 #
vertex $-1 $147 $331 #
vertex $-1 $142 $332 #
straight-curve $-1 44.645127984791934 26.642092709937828 -3.8434073544818785 0 0 -1 I I #
coedge $-1 $333 $144 $149 $245 reversed $238 $-1 #
coedge $-1 $144 $334 $228 $322 forward $238 $-1 #
loop $-1 $-1 $144 $335 #
vertex $-1 $145 $336 #
straight-curve $-1 24.593088386773868 -26.642092709937828 -4.8455024165349556 1 0 0 I I #
coedge $-1 $146 $337 $148 $244 forward $137 $-1 #
straight-curve $-1 24.593088386773868 26.642092709937828 -4.8455024165349556 -1 0 0 I I #
coedge $-1 $149 $148 $338 $339 reversed $78 $-1 #
edge $-1 $340 -10.528127001392559 $151 4.8455024165349556 $148 $341 forward 7 unknown #
edge $-1 $342 -10.528127001392559 $150 4.8455024165349556 $149 $343 forward 7 unknown #
point $-1 53.727225562303538 -26.642092709937828 -4.8455024165349556 #
point $-1 53.727225562303538 26.642092709937828 -4.8455024165349556 #
face $-1 $344 $345 $18 $-1 $346 forward single #
loop $-1 $-1 $347 $153 #
plane-surface $-1 49.186176773547736 0 -4.8455024165349556 0 0 1 1 0 0 forward_v I I I I #
coedge $-1 $159 $348 $156 $254 forward $154 $-1 #
coedge $-1 $253 $156 $349 $350 reversed $86 $-1 #
coedge $-1 $156 $252 $157 $256 forward $86 $-1 #
edge $-1 $351 51.587624313058072 $257 56.468335016918637 $251 $352 forward 7 unknown #
coedge $-1 $158 $157 $261 $353 reversed $53 $-1 #
edge $-1 $354 44.774926092542856 $257 53.284185419875641 $253 $355 forward 7 unknown #
vertex $-1 $160 $356 #
straight-curve $-1 -0.75269190386692841 26.642092709937828 5.6474162975319917 1 0 0 I I #
vertex $-1 $353 $357 #
straight-curve $-1 9.5806199108934074 -17.005756429224192 36.209969878419855 0 -0.81915203911291934 0.57357644374324357 I I #
coedge $-1 $349 $162 $255 $353 forward $263 $-1 #
coedge $-1 $162 $358 $164 $266 forward $263 $-1 #
loop $-1 $-1 $349 $359 #
straight-curve $-1 9.5806199108934074 22.313792755605057 10.528127001392562 0 -1 0 I I #
coedge $-1 $360 $164 $361 $362 forward $154 $-1 #
edge $-1 $363 -53.727225562303538 $166 -9.5806199108934074 $164 $364 forward 7 unknown #
point $-1 9.5806199108934074 26.642092709937828 5.647416297531997 #
point $-1 9.5806199108934074 26.642092709937828 10.528127001392559 #
face $-1 $365 $366 $19 $-1 $367 reversed single #
loop $-1 $-1 $368 $168 #
plane-surface $-1 -12.591387526361121 44.627585511210114 124.23150262890127 1 0 0 0 -0.57357644374324357 -0.81915203911291934 forward_v I I I I #
loop $-1 $-1 $369 $93 #
coedge $-1 $274 $171 $370 $371 forward $94 $-1 #
coedge $-1 $171 $273 $372 $373 reversed $94 $-1 #
coedge $-1 $374 $375 $171 $276 forward $366 $-1 #
edge $-1 $376 -56.468335016918637 $377 -51.587624313058072 $275 $378 forward 7 unknown #
edge $-1 $379 1 $379 0 $172 $-1 forward 7 unknown #
vertex $-1 $173 $380 #
ellipse-curve $-1 -1.5053838077338568 19.954279584150385 3.5139498539966691 0 0.57357644374324357 0.81915203911291934 1.5 0 0 1 I I #
point $-1 -0.0053838077338568269 23.156904145275185 8.087771649462276 #
plane-surface $-1 53.727225562303538 0 0 -1 0 0 0 0 1 forward_v I I I I #
coedge $-1 $181 $179 $183 $286 reversed $102 $-1 #
edge $-1 $194 -10.528127001392559 $288 10.528127001392559 $193 $381 forward 7 unknown #
vertex $-1 $286 $382 #
straight-curve $-1 -53.727225562303538 -26.642092709937828 0 0 0 -1 I I #
edge $-1 $284 -26.642092709937828 $288 26.642092709937828 $282 $383 forward 7 unknown #
straight-curve $-1 0 -26.642092709937828 -10.528127001392559 -1 0 0 I I #
vertex $-1 $186 $384 #
straight-curve $-1 0 26.642092709937828 -10.528127001392559 1 0 0 I I #
point $-1 53.727225562303538 26.642092709937828 -10.528127001392559 #
point $-1 53.727225562303538 -26.642092709937828 -10.528127001392559 #
straight-curve $-1 -53.727225562303538 0 10.528127001392559 0 -1 0 I I #
point $-1 -53.727225562303538 26.642092709937828 10.528127001392559 #
point $-1 -53.727225562303538 -26.642092709937828 10.528127001392559 #
straight-curve $-1 53.727225562303538 -26.642092709937828 0 0 0 -1 I I #
straight-curve $-1 53.727225562303538 26.642092709937828 0 0 0 -1 I I #
face $-1 $385 $219 $16 $-1 $386 reversed single #
loop $-1 $-1 $209 $203 #
plane-surface $-1 0 0 -10.528127001392559 0 0 1 1 0 0 forward_v I I I I #
coedge $-1 $387 $388 $389 $390 forward $204 $-1 #
coedge $-1 $207 $206 $391 $392 reversed $70 $-1 #
edge $-1 $393 -10.528127001392559 $215 4.8455024165349556 $206 $394 forward 7 unknown #
edge $-1 $395 -10.528127001392559 $220 4.8455024165349556 $217 $396 forward 7 unknown #
straight-curve $-1 -53.727225562303538 0 -4.8455024165349556 0 -1 0 I I #
coedge $-1 $397 $209 $315 $398 forward $298 $-1 #
coedge $-1 $209 $397 $211 $310 forward $298 $-1 #
vertex $-1 $398 $399 #
straight-curve $-1 -44.645127984791934 0 -10.528127001392559 0 1 0 I I #
coedge $-1 $312 $211 $400 $401 reversed $121 $-1 #
edge $-1 $402 -53.727225562303538 $212 44.645127984791934 $211 $403 forward 7 unknown #
point $-1 -44.645127984791934 -26.642092709937828 -10.528127001392559 #
coedge $-1 $214 $309 $388 $404 reversed $121 $-1 #
point $-1 -53.727225562303538 -26.642092709937828 -4.8455024165349556 #
coedge $-1 $405 $217 $387 $406 reversed $219 $-1 #
coedge $-1 $218 $405 $305 $398 reversed $219 $-1 #
point $-1 -53.727225562303538 26.642092709937828 -4.8455024165349556 #
straight-curve $-1 -44.645127984791934 26.642092709937828 -3.8434073544818785 0 0 1 I I #
face $-1 $335 $407 $17 $-1 $408 reversed single #
loop $-1 $-1 $409 $225 #
plane-surface $-1 -44.645127984791934 0 -7.6868147089637571 -1 0 0 0 0 1 forward_v I I I I #
coedge $-1 $410 $411 $412 $413 reversed $226 $-1 #
edge $-1 $327 -6.68471964691068 $239 -1.0020950620530771 $237 $414 forward 7 unknown #
straight-curve $-1 44.645127984791934 0 -4.8455024165349556 0 -1 0 I I #
coedge $-1 $415 $230 $334 $416 forward $326 $-1 #
coedge $-1 $230 $415 $232 $330 forward $326 $-1 #
loop $-1 $-1 $230 $417 #
vertex $-1 $416 $418 #
straight-curve $-1 44.645127984791934 0 -10.528127001392559 0 -1 0 I I #
coedge $-1 $419 $232 $420 $421 forward $137 $-1 #
edge $-1 $422 -44.645127984791934 $234 44.645127984791934 $232 $423 forward 7 unknown #
point $-1 44.645127984791934 26.642092709937828 -4.8455024165349556 #
point $-1 44.645127984791934 26.642092709937828 -10.528127001392559 #
coedge $-1 $424 $236 $425 $426 reversed $238 $-1 #
coedge $-1 $237 $427 $324 $416 reversed $238 $-1 #
face $-1 $428 $238 $17 $-1 $429 reversed single #
point $-1 44.645127984791934 -26.642092709937828 -4.8455024165349556 #
coedge $-1 $241 $430 $431 $432 reversed $137 $-1 #
coedge $-1 $431 $425 $243 $339 forward $433 $-1 #
edge $-1 $342 -26.642092709937828 $340 26.642092709937828 $243 $434 forward 7 unknown #
vertex $-1 $339 $435 #
straight-curve $-1 53.727225562303538 26.642092709937828 0 0 0 -1 I I #
vertex $-1 $339 $436 #
straight-curve $-1 53.727225562303538 -26.642092709937828 0 0 0 -1 I I #
face $-1 $437 $438 $18 $-1 $439 reversed single #
loop $-1 $-1 $440 $248 #
plane-surface $-1 44.645127984791934 0 -7.6868147089637571 1 0 0 0 0 -1 forward_v I I I I #
coedge $-1 $441 $442 $443 $444 reversed $249 $-1 #
coedge $-1 $251 $445 $446 $447 reversed $154 $-1 #
coedge $-1 $446 $261 $252 $350 forward $263 $-1 #
edge $-1 $354 -2.642077174992508 $351 4.3282999543327705 $349 $448 forward 7 unknown #
vertex $-1 $447 $449 #
straight-curve $-1 -12.591387526361121 26.642092709937828 62.115751314450634 0 0 -1 I I #
edge $-1 $259 -10.333311814760336 $354 11.838695622494193 $261 $450 forward 7 unknown #
vertex $-1 $353 $451 #
straight-curve $-1 -12.591387526361121 -17.005756429224192 36.209969878419855 0 0.81915203911291934 -0.57357644374324357 I I #
point $-1 -12.591387526361121 26.642092709937828 5.647416297531997 #
point $-1 9.5806199108934074 19.671715580612549 10.528127001392559 #
coedge $-1 $262 $452 $453 $454 forward $263 $-1 #
face $-1 $455 $263 $18 $-1 $456 forward single #
coedge $-1 $457 $265 $442 $458 forward $154 $-1 #
coedge $-1 $453 $443 $265 $362 reversed $438 $-1 #
edge $-1 $363 -10.528127001392559 $459 4.8455024165349556 $361 $460 forward 7 unknown #
vertex $-1 $454 $461 #
straight-curve $-1 0 26.642092709937828 10.528127001392559 -1 0 0 I I #
face $-1 $462 $463 $19 $-1 $464 reversed single #
loop $-1 $-1 $465 $269 #
plane-surface $-1 0 26.642092709937828 0 0 -1 0 0 0 -1 forward_v I I I I #
coedge $-1 $466 $467 $465 $468 reversed $270 $-1 #
coedge $-1 $469 $370 $375 $470 reversed $272 $-1 #
coedge $-1 $369 $471 $273 $371 reversed $272 $-1 #
edge $-1 $376 -53.284185419875641 $472 -44.774926092542856 $273 $473 forward 7 unknown #
coedge $-1 $474 $475 $274 $373 forward $476 $-1 #
edge $-1 $377 -4.3282999543327705 $472 2.642077174992508 $372 $477 forward 7 unknown #
coedge $-1 $478 $275 $475 $479 reversed $366 $-1 #
coedge $-1 $275 $465 $369 $470 forward $366 $-1 #
vertex $-1 $470 $480 #
vertex $-1 $373 $481 #
straight-curve $-1 9.5806199108934074 26.642092709937828 62.115751314450634 0 0 1 I I #
vertex $-1 $277 $482 #
point $-1 -0.0053838077338568269 19.954279584150385 3.5139498539966691 #
straight-curve $-1 -53.727225562303538 26.642092709937828 0 0 0 -1 I I #
point $-1 -53.727225562303538 -26.642092709937828 -10.528127001392559 #
straight-curve $-1 -53.727225562303538 0 -10.528127001392559 0 1 0 I I #
point $-1 -53.727225562303538 26.642092709937828 -10.528127001392559 #
face $-1 $-1 $483 $16 $-1 $484 reversed single #
plane-surface $-1 0 26.642092709937828 0 0 -1 0 0 0 -1 forward_v I I I I #
coedge $-1 $391 $300 $314 $406 forward $204 $-1 #
coedge $-1 $300 $391 $312 $404 forward $204 $-1 #
coedge $-1 $400 $485 $300 $390 reversed $483 $-1 #
edge $-1 $486 -26.642092709937828 $487 26.642092709937828 $389 $488 forward 7 unknown #
coedge $-1 $388 $387 $301 $392 forward $204 $-1 #
edge $-1 $395 -26.642092709937828 $393 26.642092709937828 $301 $489 forward 7 unknown #
vertex $-1 $392 $490 #
straight-curve $-1 -53.727225562303538 -26.642092709937828 0 0 0 -1 I I #
vertex $-1 $406 $491 #
straight-curve $-1 -53.727225562303538 26.642092709937828 0 0 0 -1 I I #
coedge $-1 $306 $305 $492 $493 forward $298 $-1 #
edge $-1 $307 -44.645127984791934 $494 53.727225562303538 $315 $495 forward 7 unknown #
point $-1 -44.645127984791934 26.642092709937828 -10.528127001392559 #
coedge $-1 $492 $389 $309 $401 forward $483 $-1 #
edge $-1 $486 -10.528127001392559 $402 10.528127001392559 $400 $496 forward 7 unknown #
vertex $-1 $401 $497 #
straight-curve $-1 0 -26.642092709937828 -10.528127001392559 -1 0 0 I I #
edge $-1 $393 -53.727225562303538 $486 53.727225562303538 $312 $498 forward 7 unknown #
coedge $-1 $315 $314 $485 $499 forward $219 $-1 #
edge $-1 $487 -53.727225562303538 $395 53.727225562303538 $314 $500 forward 7 unknown #
loop $-1 $-1 $501 $318 #
plane-surface $-1 -53.727225562303538 0 0 1 0 0 0 0 -1 forward_v I I I I #
coedge $-1 $412 $502 $427 $503 reversed $319 $-1 #
coedge $-1 $504 $321 $505 $506 reversed $226 $-1 #
coedge $-1 $321 $504 $419 $507 reversed $226 $-1 #
coedge $-1 $420 $409 $321 $413 forward $319 $-1 #
edge $-1 $508 -26.642092709937828 $509 26.642092709937828 $412 $510 forward 7 unknown #
straight-curve $-1 44.645127984791934 -26.642092709937828 -3.8434073544818785 0 0 1 I I #
coedge $-1 $325 $324 $502 $511 forward $326 $-1 #
edge $-1 $327 -44.645127984791934 $512 44.645127984791934 $334 $513 forward 7 unknown #
face $-1 $-1 $326 $17 $-1 $514 reversed single #
point $-1 44.645127984791934 -26.642092709937828 -10.528127001392559 #
coedge $-1 $430 $329 $411 $507 forward $137 $-1 #
coedge $-1 $502 $412 $329 $421 reversed $319 $-1 #
edge $-1 $422 -6.68471964691068 $509 -1.0020950620530771 $329 $515 forward 7 unknown #
vertex $-1 $330 $516 #
straight-curve $-1 0 26.642092709937828 -10.528127001392559 1 0 0 I I #
coedge $-1 $505 $333 $517 $518 forward $238 $-1 #
coedge $-1 $338 $519 $333 $426 forward $433 $-1 #
edge $-1 $520 -53.727225562303538 $342 53.727225562303538 $333 $521 forward 7 unknown #
coedge $-1 $334 $505 $409 $503 forward $238 $-1 #
face $-1 $417 $433 $17 $-1 $522 forward single #
plane-surface $-1 0 -26.642092709937828 0 0 1 0 0 0 1 forward_v I I I I #
coedge $-1 $337 $419 $523 $524 reversed $137 $-1 #
coedge $-1 $519 $338 $337 $432 forward $433 $-1 #
edge $-1 $340 -53.727225562303538 $525 53.727225562303538 $337 $526 forward 7 unknown #
loop $-1 $-1 $338 $428 #
straight-curve $-1 53.727225562303538 0 10.528127001392559 0 1 0 I I #
point $-1 53.727225562303538 26.642092709937828 10.528127001392559 #
point $-1 53.727225562303538 -26.642092709937828 10.528127001392559 #
face $-1 $527 $528 $18 $-1 $529 reversed single #
loop $-1 $-1 $443 $344 #
plane-surface $-1 53.727225562303538 0 0 -1 0 0 0 0 1 forward_v I I I I #
coedge $-1 $530 $531 $457 $532 reversed $345 $-1 #
coedge $-1 $533 $347 $534 $535 reversed $249 $-1 #
coedge $-1 $347 $533 $360 $458 reversed $249 $-1 #
coedge $-1 $361 $536 $347 $444 forward $438 $-1 #
edge $-1 $537 -26.642092709937828 $459 26.642092709937828 $443 $538 forward 7 unknown #
coedge $-1 $348 $539 $540 $541 reversed $154 $-1 #
coedge $-1 $542 $349 $348 $447 forward $263 $-1 #
edge $-1 $351 12.591387526361121 $543 53.727225562303538 $348 $364 forward 7 unknown #
straight-curve $-1 -12.591387526361121 22.313792755605057 10.528127001392562 0 1 0 I I #
point $-1 -12.591387526361121 26.642092709937828 10.528127001392559 #
straight-curve $-1 -0.75269190386692841 19.671715580612549 10.528127001392562 -1 0 0 I I #
point $-1 -12.591387526361121 19.671715580612549 10.528127001392559 #
coedge $-1 $358 $542 $544 $545 forward $263 $-1 #
coedge $-1 $536 $361 $358 $454 reversed $438 $-1 #
edge $-1 $546 -26.642092709937828 $363 26.642092709937828 $453 $547 forward 7 unknown #
face $-1 $-1 $548 $18 $-1 $549 reversed single #
plane-surface $-1 0 0 10.528127001392559 0 0 1 1 0 0 forward_v I I I I #
coedge $-1 $550 $360 $440 $532 forward $154 $-1 #
edge $-1 $459 -29.13413717552967 $551 -20.052039598018066 $360 $552 forward 7 unknown #
vertex $-1 $458 $553 #
straight-curve $-1 53.727225562303538 26.642092709937828 0 0 0 -1 I I #
point $-1 53.727225562303538 26.642092709937828 10.528127001392559 #
face $-1 $554 $555 $19 $-1 $556 forward single #
loop $-1 $-1 $557 $365 #
plane-surface $-1 49.186176773547736 0 -4.8455024165349556 0 0 1 1 0 0 forward_v I I I I #
coedge $-1 $375 $558 $368 $468 forward $366 $-1 #
coedge $-1 $467 $368 $559 $560 reversed $270 $-1 #
coedge $-1 $368 $466 $469 $561 forward $270 $-1 #
edge $-1 $562 51.587624313058072 $563 56.468335016918637 $465 $564 forward 7 unknown #
coedge $-1 $471 $369 $467 $561 reversed $272 $-1 #
edge $-1 $563 -11.838695622494193 $376 10.333311814760336 $375 $565 forward 7 unknown #
coedge $-1 $370 $469 $474 $566 reversed $272 $-1 #
vertex $-1 $566 $567 #
straight-curve $-1 9.5806199108934074 -17.005756429224192 36.209969878419855 0 -0.81915203911291934 0.57357644374324357 I I #
coedge $-1 $559 $372 $471 $566 forward $476 $-1 #
coedge $-1 $372 $568 $374 $479 forward $476 $-1 #
loop $-1 $-1 $559 $569 #
straight-curve $-1 9.5806199108934074 22.313792755605057 10.528127001392562 0 -1 0 I I #
coedge $-1 $570 $374 $571 $572 forward $366 $-1 #
edge $-1 $573 -53.727225562303538 $377 -9.5806199108934074 $374 $574 forward 7 unknown #
point $-1 9.5806199108934074 26.642092709937828 5.647416297531997 #
point $-1 9.5806199108934074 26.642092709937828 10.528127001392559 #
point $-1 -1.5053838077338568 19.093914918535518 2.2852217953272902 #
loop $-1 $-1 $400 $385 #
plane-surface $-1 53.727225562303538 0 0 -1 0 0 0 0 1 forward_v I I I I #
coedge $-1 $389 $492 $405 $499 reversed $483 $-1 #
vertex $-1 $390 $575 #
vertex $-1 $390 $576 #
straight-curve $-1 53.727225562303538 0 10.528127001392559 0 1 0 I I #
straight-curve $-1 -53.727225562303538 0 10.528127001392559 0 -1 0 I I #
point $-1 -53.727225562303538 -26.642092709937828 10.528127001392559 #
point $-1 -53.727225562303538 26.642092709937828 10.528127001392559 #
coedge $-1 $485 $400 $397 $493 reversed $483 $-1 #
edge $-1 $494 -26.642092709937828 $402 26.642092709937828 $492 $577 forward 7 unknown #
vertex $-1 $493 $578 #
straight-curve $-1 0 26.642092709937828 -10.528127001392559 1 0 0 I I #
straight-curve $-1 53.727225562303538 -26.642092709937828 0 0 0 -1 I I #
point $-1 53.727225562303538 -26.642092709937828 -10.528127001392559 #
straight-curve $-1 0 -26.642092709937828 10.528127001392559 1 0 0 I I #
edge $-1 $487 -10.528127001392559 $494 10.528127001392559 $485 $579 forward 7 unknown #
straight-curve $-1 0 26.642092709937828 10.528127001392559 -1 0 0 I I #
coedge $-1 $517 $523 $504 $580 forward $407 $-1 #
coedge $-1 $409 $420 $415 $511 reversed $319 $-1 #
edge $-1 $508 1.0020950620530771 $512 6.68471964691068 $427 $581 forward 7 unknown #
coedge $-1 $411 $410 $501 $580 reversed $226 $-1 #
coedge $-1 $427 $424 $410 $506 forward $238 $-1 #
edge $-1 $582 -29.13413717552967 $508 -20.052039598018066 $505 $583 forward 7 unknown #
edge $-1 $509 20.052039598018066 $584 29.13413717552967 $419 $585 forward 7 unknown #
vertex $-1 $506 $586 #
vertex $-1 $507 $587 #
straight-curve $-1 -44.645127984791934 0 -4.8455024165349556 0 1 0 I I #
edge $-1 $512 -26.642092709937828 $422 26.642092709937828 $415 $588 forward 7 unknown #
vertex $-1 $503 $589 #
straight-curve $-1 0 -26.642092709937828 -10.528127001392559 -1 0 0 I I #
plane-surface $-1 0 0 -10.528127001392559 0 0 1 1 0 0 forward_v I I I I #
straight-curve $-1 -44.645127984791934 26.642092709937828 -3.8434073544818785 0 0 1 I I #
point $-1 -44.645127984791934 26.642092709937828 -10.528127001392559 #
coedge $-1 $590 $501 $424 $518 reversed $407 $-1 #
edge $-1 $520 -10.528127001392559 $582 4.8455024165349556 $517 $591 forward 7 unknown #
coedge $-1 $425 $431 $590 $592 forward $433 $-1 #
vertex $-1 $592 $593 #
straight-curve $-1 0 -26.642092709937828 10.528127001392559 1 0 0 I I #
plane-surface $-1 0 0 10.528127001392559 0 0 1 1 0 0 forward_v I I I I #
coedge $-1 $501 $590 $430 $524 forward $407 $-1 #
edge $-1 $525 -10.528127001392559 $584 4.8455024165349556 $430 $594 forward 7 unknown #
vertex $-1 $432 $595 #
straight-curve $-1 0 26.642092709937828 10.528127001392559 -1 0 0 I I #
face $-1 $596 $597 $18 $-1 $598 forward single #
loop $-1 $-1 $599 $437 #
plane-surface $-1 -49.186176773547736 0 -4.8455024165349556 0 0 1 1 0 0 forward_v I I I I #
coedge $-1 $600 $440 $533 $601 forward $345 $-1 #
coedge $-1 $440 $600 $602 $603 reversed $345 $-1 #
edge $-1 $551 1.0020950620530771 $604 6.68471964691068 $457 $605 forward 7 unknown #
coedge $-1 $442 $441 $530 $601 reversed $249 $-1 #
coedge $-1 $606 $607 $441 $535 forward $608 $-1 #
edge $-1 $609 20.052039598018066 $537 29.13413717552967 $534 $610 forward 7 unknown #
coedge $-1 $443 $453 $606 $611 forward $438 $-1 #
vertex $-1 $444 $612 #
straight-curve $-1 53.727225562303538 0 -4.8455024165349556 0 1 0 I I #
coedge $-1 $445 $613 $614 $615 forward $154 $-1 #
coedge $-1 $616 $617 $445 $541 forward $618 $-1 #
edge $-1 $543 -10.528127001392559 $619 4.8455024165349556 $445 $620 forward 7 unknown #
coedge $-1 $452 $446 $617 $621 forward $263 $-1 #
vertex $-1 $447 $622 #
coedge $-1 $623 $606 $452 $545 reversed $608 $-1 #
edge $-1 $624 -53.727225562303538 $546 53.727225562303538 $544 $625 forward 7 unknown #
vertex $-1 $454 $626 #
straight-curve $-1 53.727225562303538 0 10.528127001392559 0 1 0 I I #
loop $-1 $-1 $602 $455 #
plane-surface $-1 0 0 -10.528127001392559 0 0 1 1 0 0 forward_v I I I I #
coedge $-1 $613 $457 $627 $628 reversed $154 $-1 #
vertex $-1 $458 $629 #
straight-curve $-1 24.593088386773868 26.642092709937828 -4.8455024165349556 -1 0 0 I I #
point $-1 53.727225562303538 26.642092709937828 -4.8455024165349556 #
face $-1 $630 $631 $19 $-1 $632 reversed single #
loop $-1 $-1 $633 $462 #
plane-surface $-1 44.645127984791934 0 -7.6868147089637571 1 0 0 0 0 -1 forward_v I I I I #
coedge $-1 $634 $635 $636 $637 reversed $463 $-1 #
coedge $-1 $465 $638 $639 $640 reversed $366 $-1 #
coedge $-1 $639 $474 $466 $560 forward $476 $-1 #
edge $-1 $641 -2.642077174992508 $562 4.3282999543327705 $559 $642 forward 7 unknown #
edge $-1 $641 44.774926092542856 $563 53.284185419875641 $467 $643 forward 7 unknown #
vertex $-1 $640 $644 #
vertex $-1 $470 $645 #
straight-curve $-1 -12.591387526361121 26.642092709937828 62.115751314450634 0 0 -1 I I #
straight-curve $-1 -0.75269190386692841 26.642092709937828 5.6474162975319917 1 0 0 I I #
edge $-1 $472 -10.333311814760336 $641 11.838695622494193 $474 $646 forward 7 unknown #
point $-1 9.5806199108934074 19.671715580612549 10.528127001392559 #
coedge $-1 $475 $647 $648 $649 forward $476 $-1 #
face $-1 $650 $476 $19 $-1 $651 forward single #
coedge $-1 $652 $478 $635 $653 forward $366 $-1 #
coedge $-1 $648 $636 $478 $572 reversed $631 $-1 #
edge $-1 $573 -10.528127001392559 $654 4.8455024165349556 $571 $655 forward 7 unknown #
vertex $-1 $649 $656 #
straight-curve $-1 0 26.642092709937828 10.528127001392559 -1 0 0 I I #
point $-1 53.727225562303538 -26.642092709937828 10.528127001392559 #
point $-1 53.727225562303538 26.642092709937828 10.528127001392559 #
straight-curve $-1 53.727225562303538 0 -10.528127001392559 0 -1 0 I I #
point $-1 53.727225562303538 26.642092709937828 -10.528127001392559 #
straight-curve $-1 53.727225562303538 26.642092709937828 0 0 0 -1 I I #
edge $-1 $584 -26.642092709937828 $582 26.642092709937828 $501 $657 forward 7 unknown #
straight-curve $-1 -44.645127984791934 -26.642092709937828 -3.8434073544818785 0 0 -1 I I #
vertex $-1 $506 $658 #
straight-curve $-1 -24.593088386773868 -26.642092709937828 -4.8455024165349556 1 0 0 I I #
vertex $-1 $580 $659 #
straight-curve $-1 -24.593088386773868 26.642092709937828 -4.8455024165349556 -1 0 0 I I #
point $-1 -44.645127984791934 -26.642092709937828 -4.8455024165349556 #
point $-1 -44.645127984791934 26.642092709937828 -4.8455024165349556 #
straight-curve $-1 -44.645127984791934 0 -10.528127001392559 0 1 0 I I #
point $-1 -44.645127984791934 -26.642092709937828 -10.528127001392559 #
coedge $-1 $523 $517 $519 $592 reversed $407 $-1 #
straight-curve $-1 -53.727225562303538 -26.642092709937828 0 0 0 -1 I I #
edge $-1 $525 -26.642092709937828 $520 26.642092709937828 $590 $660 forward 7 unknown #
point $-1 -53.727225562303538 -26.642092709937828 10.528127001392559 #
straight-curve $-1 -53.727225562303538 26.642092709937828 0 0 0 -1 I I #
point $-1 -53.727225562303538 26.642092709937828 10.528127001392559 #
face $-1 $661 $618 $18 $-1 $662 reversed single #
loop $-1 $-1 $663 $527 #
plane-surface $-1 -44.645127984791934 0 -7.6868147089637571 -1 0 0 0 0 1 forward_v I I I I #
coedge $-1 $664 $614 $665 $666 reversed $528 $-1 #
coedge $-1 $531 $530 $607 $667 reversed $345 $-1 #
edge $-1 $551 -26.642092709937828 $609 26.642092709937828 $530 $668 forward 7 unknown #
coedge $-1 $669 $627 $531 $603 forward $548 $-1 #
edge $-1 $604 -26.642092709937828 $670 26.642092709937828 $602 $671 forward 7 unknown #
vertex $-1 $532 $672 #
straight-curve $-1 44.645127984791934 26.642092709937828 -3.8434073544818785 0 0 -1 I I #
coedge $-1 $544 $534 $536 $611 reversed $608 $-1 #
coedge $-1 $534 $673 $600 $667 forward $608 $-1 #
loop $-1 $-1 $534 $661 #
vertex $-1 $535 $674 #
straight-curve $-1 24.593088386773868 -26.642092709937828 -4.8455024165349556 1 0 0 I I #
edge $-1 $546 -10.528127001392559 $537 4.8455024165349556 $536 $675 forward 7 unknown #
point $-1 53.727225562303538 -26.642092709937828 -4.8455024165349556 #
coedge $-1 $539 $550 $676 $677 forward $154 $-1 #
coedge $-1 $599 $678 $539 $615 reversed $528 $-1 #
edge $-1 $679 20.052039598018066 $619 29.13413717552967 $539 $680 forward 7 unknown #
coedge $-1 $681 $540 $678 $682 forward $618 $-1 #
coedge $-1 $540 $681 $542 $621 reversed $618 $-1 #
loop $-1 $-1 $616 $596 #
vertex $-1 $682 $683 #
straight-curve $-1 -53.727225562303538 26.642092709937828 0 0 0 -1 I I #
edge $-1 $543 -26.642092709937828 $624 26.642092709937828 $617 $684 forward 7 unknown #
point $-1 -53.727225562303538 26.642092709937828 10.528127001392559 #
coedge $-1 $685 $544 $681 $686 forward $608 $-1 #
vertex $-1 $621 $687 #
straight-curve $-1 0 -26.642092709937828 10.528127001392559 1 0 0 I I #
point $-1 53.727225562303538 -26.642092709937828 10.528127001392559 #
coedge $-1 $602 $688 $550 $628 forward $548 $-1 #
edge $-1 $689 -44.645127984791934 $604 44.645127984791934 $550 $690 forward 7 unknown #
point $-1 44.645127984791934 26.642092709937828 -4.8455024165349556 #
face $-1 $691 $692 $19 $-1 $693 reversed single #
loop $-1 $-1 $636 $554 #
plane-surface $-1 53.727225562303538 0 0 -1 0 0 0 0 1 forward_v I I I I #
coedge $-1 $694 $695 $652 $696 reversed $555 $-1 #
coedge $-1 $697 $557 $698 $699 reversed $463 $-1 #
coedge $-1 $557 $697 $570 $653 reversed $463 $-1 #
coedge $-1 $571 $700 $557 $637 forward $631 $-1 #
edge $-1 $701 -26.642092709937828 $654 26.642092709937828 $636 $702 forward 7 unknown #
coedge $-1 $558 $703 $704 $705 reversed $366 $-1 #
coedge $-1 $706 $559 $558 $640 forward $476 $-1 #
edge $-1 $562 12.591387526361121 $707 53.727225562303538 $558 $574 forward 7 unknown #
vertex $-1 $566 $708 #
straight-curve $-1 -12.591387526361121 22.313792755605057 10.528127001392562 0 1 0 I I #
straight-curve $-1 -12.591387526361121 -17.005756429224192 36.209969878419855 0 0.81915203911291934 -0.57357644374324357 I I #
point $-1 -12.591387526361121 26.642092709937828 10.528127001392559 #
point $-1 -12.591387526361121 26.642092709937828 5.647416297531997 #
straight-curve $-1 -0.75269190386692841 19.671715580612549 10.528127001392562 -1 0 0 I I #
coedge $-1 $568 $706 $709 $710 forward $476 $-1 #
coedge $-1 $700 $571 $568 $649 reversed $631 $-1 #
edge $-1 $711 -26.642092709937828 $573 26.642092709937828 $648 $712 forward 7 unknown #
face $-1 $-1 $713 $19 $-1 $714 reversed single #
plane-surface $-1 0 0 10.528127001392559 0 0 1 1 0 0 forward_v I I I I #
coedge $-1 $715 $570 $633 $696 forward $366 $-1 #
edge $-1 $654 -29.13413717552967 $716 -20.052039598018066 $570 $717 forward 7 unknown #
vertex $-1 $653 $718 #
straight-curve $-1 53.727225562303538 26.642092709937828 0 0 0 -1 I I #
point $-1 53.727225562303538 26.642092709937828 10.528127001392559 #
straight-curve $-1 -53.727225562303538 0 -4.8455024165349556 0 -1 0 I I #
point $-1 -53.727225562303538 -26.642092709937828 -4.8455024165349556 #
point $-1 -53.727225562303538 26.642092709937828 -4.8455024165349556 #
straight-curve $-1 -53.727225562303538 0 10.528127001392559 0 -1 0 I I #
face $-1 $359 $608 $18 $-1 $719 reversed single #
plane-surface $-1 -53.727225562303538 0 0 1 0 0 0 0 -1 forward_v I I I I #
coedge $-1 $665 $720 $721 $722 reversed $597 $-1 #
coedge $-1 $678 $599 $685 $723 reversed $528 $-1 #
coedge $-1 $676 $663 $599 $666 forward $597 $-1 #
edge $-1 $724 -26.642092709937828 $679 26.642092709937828 $665 $725 forward 7 unknown #
edge $-1 $670 -6.68471964691068 $609 -1.0020950620530771 $607 $726 forward 7 unknown #
straight-curve $-1 44.645127984791934 0 -4.8455024165349556 0 -1 0 I I #
coedge $-1 $688 $602 $673 $727 forward $548 $-1 #
vertex $-1 $727 $728 #
straight-curve $-1 44.645127984791934 0 -10.528127001392559 0 -1 0 I I #
point $-1 44.645127984791934 26.642092709937828 -10.528127001392559 #
coedge $-1 $607 $721 $669 $727 reversed $608 $-1 #
point $-1 44.645127984791934 -26.642092709937828 -4.8455024165349556 #
straight-curve $-1 53.727225562303538 -26.642092709937828 0 0 0 -1 I I #
coedge $-1 $720 $665 $613 $677 reversed $597 $-1 #
edge $-1 $689 -6.68471964691068 $679 -1.0020950620530771 $613 $729 forward 7 unknown #
coedge $-1 $614 $664 $616 $682 reversed $528 $-1 #
vertex $-1 $615 $730 #
straight-curve $-1 -24.593088386773868 26.642092709937828 -4.8455024165349556 -1 0 0 I I #
coedge $-1 $617 $616 $623 $686 reversed $618 $-1 #
edge $-1 $619 -26.642092709937828 $731 26.642092709937828 $616 $732 forward 7 unknown #
point $-1 -53.727225562303538 26.642092709937828 -4.8455024165349556 #
straight-curve $-1 -53.727225562303538 0 10.528127001392559 0 -1 0 I I #
coedge $-1 $721 $623 $664 $723 forward $608 $-1 #
edge $-1 $624 -10.528127001392559 $731 4.8455024165349556 $681 $733 forward 7 unknown #
point $-1 -53.727225562303538 -26.642092709937828 10.528127001392559 #
coedge $-1 $627 $669 $720 $734 forward $548 $-1 #
vertex $-1 $628 $735 #
straight-curve $-1 0 26.642092709937828 -10.528127001392559 1 0 0 I I #
face $-1 $736 $737 $19 $-1 $738 forward single #
loop $-1 $-1 $739 $630 #
plane-surface $-1 -49.186176773547736 0 -4.8455024165349556 0 0 1 1 0 0 forward_v I I I I #
coedge $-1 $740 $633 $697 $741 forward $555 $-1 #
coedge $-1 $633 $740 $742 $743 reversed $555 $-1 #
edge $-1 $716 1.0020950620530771 $744 6.68471964691068 $652 $745 forward 7 unknown #
coedge $-1 $635 $634 $694 $741 reversed $463 $-1 #
coedge $-1 $746 $747 $634 $699 forward $748 $-1 #
edge $-1 $749 20.052039598018066 $701 29.13413717552967 $698 $750 forward 7 unknown #
coedge $-1 $636 $648 $746 $751 forward $631 $-1 #
vertex $-1 $637 $752 #
straight-curve $-1 53.727225562303538 0 -4.8455024165349556 0 1 0 I I #
coedge $-1 $638 $753 $754 $755 forward $366 $-1 #
coedge $-1 $756 $757 $638 $705 forward $758 $-1 #
edge $-1 $707 -10.528127001392559 $759 4.8455024165349556 $638 $760 forward 7 unknown #
coedge $-1 $647 $639 $757 $761 forward $476 $-1 #
vertex $-1 $640 $762 #
point $-1 -12.591387526361121 19.671715580612549 10.528127001392559 #
coedge $-1 $763 $746 $647 $710 reversed $748 $-1 #
edge $-1 $764 -53.727225562303538 $711 53.727225562303538 $709 $765 forward 7 unknown #
vertex $-1 $649 $766 #
straight-curve $-1 53.727225562303538 0 10.528127001392559 0 1 0 I I #
loop $-1 $-1 $742 $650 #
plane-surface $-1 0 0 -10.528127001392559 0 0 1 1 0 0 forward_v I I I I #
coedge $-1 $753 $652 $767 $768 reversed $366 $-1 #
vertex $-1 $653 $769 #
straight-curve $-1 24.593088386773868 26.642092709937828 -4.8455024165349556 -1 0 0 I I #
point $-1 53.727225562303538 26.642092709937828 -4.8455024165349556 #
plane-surface $-1 0 -26.642092709937828 0 0 1 0 0 0 1 forward_v I I I I #
coedge $-1 $663 $676 $688 $734 reversed $597 $-1 #
coedge $-1 $673 $685 $663 $722 forward $608 $-1 #
edge $-1 $724 1.0020950620530771 $770 6.68471964691068 $721 $771 forward 7 unknown #
edge $-1 $731 -29.13413717552967 $724 -20.052039598018066 $685 $772 forward 7 unknown #
vertex $-1 $723 $773 #
straight-curve $-1 -44.645127984791934 0 -4.8455024165349556 0 1 0 I I #
straight-curve $-1 44.645127984791934 -26.642092709937828 -3.8434073544818785 0 0 1 I I #
edge $-1 $670 -44.645127984791934 $770 44.645127984791934 $673 $774 forward 7 unknown #
point $-1 44.645127984791934 -26.642092709937828 -10.528127001392559 #
straight-curve $-1 -44.645127984791934 26.642092709937828 -3.8434073544818785 0 0 1 I I #
point $-1 -44.645127984791934 26.642092709937828 -4.8455024165349556 #
vertex $-1 $723 $775 #
straight-curve $-1 -53.727225562303538 0 -4.8455024165349556 0 -1 0 I I #
straight-curve $-1 -53.727225562303538 -26.642092709937828 0 0 0 -1 I I #
edge $-1 $770 -26.642092709937828 $689 26.642092709937828 $688 $776 forward 7 unknown #
point $-1 -44.645127984791934 26.642092709937828 -10.528127001392559 #
face $-1 $777 $758 $19 $-1 $778 reversed single #
loop $-1 $-1 $779 $691 #
plane-surface $-1 -44.645127984791934 0 -7.6868147089637571 -1 0 0 0 0 1 forward_v I I I I #
coedge $-1 $780 $754 $781 $782 reversed $692 $-1 #
coedge $-1 $695 $694 $747 $783 reversed $555 $-1 #
edge $-1 $716 -26.642092709937828 $749 26.642092709937828 $694 $784 forward 7 unknown #
coedge $-1 $785 $767 $695 $743 forward $713 $-1 #
edge $-1 $744 -26.642092709937828 $786 26.642092709937828 $742 $787 forward 7 unknown #
vertex $-1 $696 $788 #
straight-curve $-1 44.645127984791934 26.642092709937828 -3.8434073544818785 0 0 -1 I I #
coedge $-1 $709 $698 $700 $751 reversed $748 $-1 #
coedge $-1 $698 $789 $740 $783 forward $748 $-1 #
loop $-1 $-1 $698 $777 #
vertex $-1 $699 $790 #
straight-curve $-1 24.593088386773868 -26.642092709937828 -4.8455024165349556 1 0 0 I I #
edge $-1 $711 -10.528127001392559 $701 4.8455024165349556 $700 $791 forward 7 unknown #
point $-1 53.727225562303538 -26.642092709937828 -4.8455024165349556 #
coedge $-1 $703 $715 $792 $793 forward $366 $-1 #
coedge $-1 $739 $794 $703 $755 reversed $692 $-1 #
edge $-1 $795 20.052039598018066 $759 29.13413717552967 $703 $796 forward 7 unknown #
coedge $-1 $797 $704 $794 $798 forward $758 $-1 #
coedge $-1 $704 $797 $706 $761 reversed $758 $-1 #
loop $-1 $-1 $756 $736 #
vertex $-1 $798 $799 #
straight-curve $-1 -53.727225562303538 26.642092709937828 0 0 0 -1 I I #
edge $-1 $707 -26.642092709937828 $764 26.642092709937828 $757 $800 forward 7 unknown #
point $-1 -53.727225562303538 26.642092709937828 10.528127001392559 #
coedge $-1 $801 $709 $797 $802 forward $748 $-1 #
vertex $-1 $761 $803 #
straight-curve $-1 0 -26.642092709937828 10.528127001392559 1 0 0 I I #
point $-1 53.727225562303538 -26.642092709937828 10.528127001392559 #
coedge $-1 $742 $804 $715 $768 forward $713 $-1 #
edge $-1 $805 -44.645127984791934 $744 44.645127984791934 $715 $806 forward 7 unknown #
point $-1 44.645127984791934 26.642092709937828 -4.8455024165349556 #
vertex $-1 $722 $807 #
straight-curve $-1 -44.645127984791934 -26.642092709937828 -3.8434073544818785 0 0 -1 I I #
straight-curve $-1 -24.593088386773868 -26.642092709937828 -4.8455024165349556 1 0 0 I I #
point $-1 -44.645127984791934 -26.642092709937828 -4.8455024165349556 #
straight-curve $-1 0 -26.642092709937828 -10.528127001392559 -1 0 0 I I #
point $-1 -53.727225562303538 -26.642092709937828 -4.8455024165349556 #
straight-curve $-1 -44.645127984791934 0 -10.528127001392559 0 1 0 I I #
face $-1 $569 $748 $19 $-1 $808 reversed single #
plane-surface $-1 -53.727225562303538 0 0 1 0 0 0 0 -1 forward_v I I I I #
coedge $-1 $781 $809 $810 $811 reversed $737 $-1 #
coedge $-1 $794 $739 $801 $812 reversed $692 $-1 #
coedge $-1 $792 $779 $739 $782 forward $737 $-1 #
edge $-1 $813 -26.642092709937828 $795 26.642092709937828 $781 $814 forward 7 unknown #
edge $-1 $786 -6.68471964691068 $749 -1.0020950620530771 $747 $815 forward 7 unknown #
straight-curve $-1 44.645127984791934 0 -4.8455024165349556 0 -1 0 I I #
coedge $-1 $804 $742 $789 $816 forward $713 $-1 #
vertex $-1 $816 $817 #
straight-curve $-1 44.645127984791934 0 -10.528127001392559 0 -1 0 I I #
point $-1 44.645127984791934 26.642092709937828 -10.528127001392559 #
coedge $-1 $747 $810 $785 $816 reversed $748 $-1 #
point $-1 44.645127984791934 -26.642092709937828 -4.8455024165349556 #
straight-curve $-1 53.727225562303538 -26.642092709937828 0 0 0 -1 I I #
coedge $-1 $809 $781 $753 $793 reversed $737 $-1 #
edge $-1 $805 -6.68471964691068 $795 -1.0020950620530771 $753 $818 forward 7 unknown #
coedge $-1 $754 $780 $756 $798 reversed $692 $-1 #
vertex $-1 $755 $819 #
straight-curve $-1 -24.593088386773868 26.642092709937828 -4.8455024165349556 -1 0 0 I I #
coedge $-1 $757 $756 $763 $802 reversed $758 $-1 #
edge $-1 $759 -26.642092709937828 $820 26.642092709937828 $756 $821 forward 7 unknown #
point $-1 -53.727225562303538 26.642092709937828 -4.8455024165349556 #
straight-curve $-1 -53.727225562303538 0 10.528127001392559 0 -1 0 I I #
coedge $-1 $810 $763 $780 $812 forward $748 $-1 #
edge $-1 $764 -10.528127001392559 $820 4.8455024165349556 $797 $822 forward 7 unknown #
point $-1 -53.727225562303538 -26.642092709937828 10.528127001392559 #
coedge $-1 $767 $785 $809 $823 forward $713 $-1 #
vertex $-1 $768 $824 #
straight-curve $-1 0 26.642092709937828 -10.528127001392559 1 0 0 I I #
point $-1 -44.645127984791934 -26.642092709937828 -10.528127001392559 #
plane-surface $-1 0 -26.642092709937828 0 0 1 0 0 0 1 forward_v I I I I #
coedge $-1 $779 $792 $804 $823 reversed $737 $-1 #
coedge $-1 $789 $801 $779 $811 forward $748 $-1 #
edge $-1 $813 1.0020950620530771 $825 6.68471964691068 $810 $826 forward 7 unknown #
edge $-1 $820 -29.13413717552967 $813 -20.052039598018066 $801 $827 forward 7 unknown #
vertex $-1 $812 $828 #
straight-curve $-1 -44.645127984791934 0 -4.8455024165349556 0 1 0 I I #
straight-curve $-1 44.645127984791934 -26.642092709937828 -3.8434073544818785 0 0 1 I I #
edge $-1 $786 -44.645127984791934 $825 44.645127984791934 $789 $829 forward 7 unknown #
point $-1 44.645127984791934 -26.642092709937828 -10.528127001392559 #
straight-curve $-1 -44.645127984791934 26.642092709937828 -3.8434073544818785 0 0 1 I I #
point $-1 -44.645127984791934 26.642092709937828 -4.8455024165349556 #
vertex $-1 $812 $830 #
straight-curve $-1 -53.727225562303538 0 -4.8455024165349556 0 -1 0 I I #
straight-curve $-1 -53.727225562303538 -26.642092709937828 0 0 0 -1 I I #
edge $-1 $825 -26.642092709937828 $805 26.642092709937828 $804 $831 forward 7 unknown #
point $-1 -44.645127984791934 26.642092709937828 -10.528127001392559 #
vertex $-1 $811 $832 #
straight-curve $-1 -44.645127984791934 -26.642092709937828 -3.8434073544818785 0 0 -1 I I #
straight-curve $-1 -24.593088386773868 -26.642092709937828 -4.8455024165349556 1 0 0 I I #
point $-1 -44.645127984791934 -26.642092709937828 -4.8455024165349556 #
straight-curve $-1 0 -26.642092709937828 -10.528127001392559 -1 0 0 I I #
point $-1 -53.727225562303538 -26.642092709937828 -4.8455024165349556 #
straight-curve $-1 -44.645127984791934 0 -10.528127001392559 0 1 0 I I #
point $-1 -44.645127984791934 -26.642092709937828 -10.528127001392559 #
End-of-ACIS-data 