500 0 20 0           
7 Unknown 11 ACIS 5.0 NT 24 Fri Mar 26 00:35:59 1999 
-1 9.9999999999999995e-007 1e-010 
body $-1 $20 $-1 $21 #
body $-1 $22 $-1 $23 #
body $-1 $24 $-1 $25 #
body $-1 $26 $-1 $27 #
body $-1 $28 $-1 $29 #
body $-1 $30 $-1 $31 #
body $-1 $32 $-1 $33 #
body $-1 $34 $-1 $35 #
body $-1 $36 $-1 $37 #
body $-1 $38 $-1 $39 #
body $-1 $40 $-1 $41 #
body $-1 $42 $-1 $43 #
body $-1 $44 $-1 $45 #
body $-1 $46 $-1 $47 #
body $-1 $48 $-1 $49 #
body $-1 $50 $-1 $51 #
body $-1 $52 $-1 $53 #
body $-1 $54 $-1 $55 #
body $-1 $56 $-1 $57 #
body $-1 $58 $-1 $59 #
lump $-1 $-1 $60 $0 #
transform $-1 1 0 0 0 1 0 0 0 1 52.196417126987519 28.07889111165796 13.62914943277036 1 rotate no_reflect no_shear #
lump $-1 $-1 $61 $1 #
transform $-1 1 0 0 0 1 0 0 0 1 52.196417126987519 28.07889111165796 13.62914943277036 1 rotate no_reflect no_shear #
lump $-1 $-1 $62 $2 #
transform $-1 1 0 0 0 1 0 0 0 1 52.196417126987519 28.07889111165796 13.62914943277036 1 rotate no_reflect no_shear #
lump $-1 $-1 $63 $3 #
transform $-1 1 0 0 0 1 0 0 0 1 52.196417126987519 28.07889111165796 13.62914943277036 1 rotate no_reflect no_shear #
lump $-1 $-1 $64 $4 #
transform $-1 1 0 0 0 1 0 0 0 1 52.196417126987519 28.07889111165796 13.62914943277036 1 rotate no_reflect no_shear #
lump $-1 $-1 $65 $5 #
transform $-1 1 0 0 0 1 0 0 0 1 52.196417126987519 28.07889111165796 13.62914943277036 1 rotate no_reflect no_shear #
lump $-1 $-1 $66 $6 #
transform $-1 1 0 0 0 1 0 0 0 1 52.196417126987519 28.07889111165796 13.62914943277036 1 rotate no_reflect no_shear #
lump $-1 $-1 $67 $7 #
transform $-1 1 0 0 0 1 0 0 0 1 52.196417126987519 28.07889111165796 13.62914943277036 1 rotate no_reflect no_shear #
lump $-1 $-1 $68 $8 #
transform $-1 1 0 0 0 1 0 0 0 1 52.196417126987519 28.07889111165796 13.62914943277036 1 rotate no_reflect no_shear #
lump $-1 $-1 $69 $9 #
transform $-1 1 0 0 0 1 0 0 0 1 52.196417126987519 28.07889111165796 13.62914943277036 1 rotate no_reflect no_shear #
lump $-1 $-1 $70 $10 #
transform $-1 1 0 0 0 1 0 0 0 1 52.196417126987519 28.07889111165796 13.62914943277036 1 rotate no_reflect no_shear #
lump $-1 $-1 $71 $11 #
transform $-1 1 0 0 0 1 0 0 0 1 52.196417126987519 28.07889111165796 13.62914943277036 1 rotate no_reflect no_shear #
lump $-1 $-1 $72 $12 #
transform $-1 1 0 0 0 1 0 0 0 1 52.196417126987519 28.07889111165796 13.62914943277036 1 rotate no_reflect no_shear #
lump $-1 $-1 $73 $13 #
transform $-1 1 0 0 0 1 0 0 0 1 52.196417126987519 28.07889111165796 13.62914943277036 1 rotate no_reflect no_shear #
lump $-1 $-1 $74 $14 #
transform $-1 1 0 0 0 1 0 0 0 1 52.196417126987519 28.07889111165796 13.62914943277036 1 rotate no_reflect no_shear #
lump $-1 $-1 $75 $15 #
transform $-1 1 0 0 0 1 0 0 0 1 52.196417126987519 28.07889111165796 13.62914943277036 1 rotate no_reflect no_shear #
lump $-1 $-1 $76 $16 #
transform $-1 1 0 0 0 1 0 0 0 1 52.196417126987519 28.07889111165796 13.62914943277036 1 rotate no_reflect no_shear #
lump $-1 $-1 $77 $17 #
transform $-1 1 0 0 0 1 0 0 0 1 52.196417126987519 28.07889111165796 13.62914943277036 1 rotate no_reflect no_shear #
lump $-1 $-1 $78 $18 #
transform $-1 1 0 0 0 1 0 0 0 1 52.196417126987519 28.07889111165796 13.62914943277036 1 rotate no_reflect no_shear #
lump $-1 $-1 $79 $19 #
transform $-1 1 0 0 0 1 0 0 0 1 52.196417126987519 28.07889111165796 13.62914943277036 1 rotate no_reflect no_shear #
shell $-1 $-1 $-1 $80 $-1 $20 #
shell $-1 $-1 $-1 $81 $-1 $22 #
shell $-1 $-1 $-1 $82 $-1 $24 #
shell $-1 $-1 $-1 $83 $-1 $26 #
shell $-1 $-1 $-1 $84 $-1 $28 #
shell $-1 $-1 $-1 $85 $-1 $30 #
shell $-1 $-1 $-1 $86 $-1 $32 #
shell $-1 $-1 $-1 $87 $-1 $34 #
shell $-1 $-1 $-1 $88 $-1 $36 #
shell $-1 $-1 $-1 $89 $-1 $38 #
shell $-1 $-1 $-1 $90 $-1 $40 #
shell $-1 $-1 $-1 $91 $-1 $42 #
shell $-1 $-1 $-1 $92 $-1 $44 #
shell $-1 $-1 $-1 $93 $-1 $46 #
shell $-1 $-1 $-1 $94 $-1 $48 #
shell $-1 $-1 $-1 $95 $-1 $50 #
shell $-1 $-1 $-1 $96 $-1 $52 #
shell $-1 $-1 $-1 $97 $-1 $54 #
shell $-1 $-1 $-1 $98 $-1 $56 #
shell $-1 $-1 $-1 $99 $-1 $58 #
face $-1 $100 $101 $60 $-1 $102 forward single #
face $-1 $103 $104 $61 $-1 $105 forward single #
face $-1 $106 $107 $62 $-1 $108 reversed single #
face $-1 $109 $110 $63 $-1 $111 forward single #
face $-1 $112 $113 $64 $-1 $114 forward single #
face $-1 $115 $116 $65 $-1 $117 forward single #
face $-1 $118 $119 $66 $-1 $120 reversed single #
face $-1 $121 $122 $67 $-1 $123 forward single #
face $-1 $124 $125 $68 $-1 $126 forward single #
face $-1 $127 $128 $69 $-1 $129 forward single #
face $-1 $130 $131 $70 $-1 $132 reversed single #
face $-1 $133 $134 $71 $-1 $135 forward single #
face $-1 $136 $137 $72 $-1 $138 forward single #
face $-1 $139 $140 $73 $-1 $141 forward single #
face $-1 $142 $143 $74 $-1 $144 reversed single #
face $-1 $145 $146 $75 $-1 $147 forward single #
face $-1 $148 $149 $76 $-1 $150 forward single #
face $-1 $151 $152 $77 $-1 $153 forward single #
face $-1 $154 $155 $78 $-1 $156 reversed single #
face $-1 $157 $158 $79 $-1 $159 forward single #
face $-1 $160 $161 $60 $-1 $162 reversed single #
loop $-1 $-1 $163 $80 #
plane-surface $-1 0 0 13.62914943277036 0 0 1 1 0 0 forward_v I I I I #
face $-1 $164 $165 $61 $-1 $166 reversed single #
loop $-1 $-1 $167 $81 #
plane-surface $-1 -52.196417126987519 0 0 1 0 0 0 0 -1 forward_v I I I I #
face $-1 $168 $169 $62 $-1 $170 reversed single #
loop $-1 $-1 $171 $82 #
plane-surface $-1 -18.797446169639954 -113.59249554903687 60.017403303921114 -1 0 0 0 -0.81915205242281985 0.57357642473473569 forward_v I I I I #
face $-1 $172 $173 $63 $-1 $174 forward single #
loop $-1 $175 $176 $83 #
cone-surface $-1 -30.883706138971142 -22.286216320495065 6.1353359652112331 0 0.81915205242281985 -0.57357642473473569 1 0 0 1 I I 0 1 1 forward I I I I #
face $-1 $177 $178 $64 $-1 $179 forward single #
loop $-1 $180 $181 $84 #
cone-surface $-1 -26.351358650471948 -22.286216320495065 6.1353359652112331 0 0.81915205242281985 -0.57357642473473569 1 0 0 1 I I 0 1 1 forward I I I I #
face $-1 $182 $183 $65 $-1 $184 forward single #
loop $-1 $185 $186 $85 #
cone-surface $-1 -21.819011161972753 -22.286216320495065 6.1353359652112331 0 0.81915205242281985 -0.57357642473473569 1 0 0 1 I I 0 1 1 forward I I I I #
face $-1 $187 $188 $66 $-1 $189 reversed single #
loop $-1 $-1 $190 $86 #
plane-surface $-1 3.7874391133950258 -113.59249554903687 60.017403303921114 -1 0 0 0 -0.81915205242281985 0.57357642473473569 forward_v I I I I #
face $-1 $191 $192 $67 $-1 $193 forward single #
loop $-1 $194 $195 $87 #
cone-surface $-1 -8.2988208559361638 -22.286216320495065 6.1353359652112331 0 0.81915205242281985 -0.57357642473473569 1 0 0 1 I I 0 1 1 forward I I I I #
face $-1 $196 $197 $68 $-1 $198 forward single #
loop $-1 $199 $200 $88 #
cone-surface $-1 -3.7664733674369657 -22.286216320495065 6.1353359652112331 0 0.81915205242281985 -0.57357642473473569 1 0 0 1 I I 0 1 1 forward I I I I #
face $-1 $201 $202 $69 $-1 $203 forward single #
loop $-1 $204 $205 $89 #
cone-surface $-1 0.7658741210622324 -22.286216320495065 6.1353359652112331 0 0.81915205242281985 -0.57357642473473569 1 0 0 1 I I 0 1 1 forward I I I I #
face $-1 $206 $207 $70 $-1 $208 reversed single #
loop $-1 $-1 $209 $90 #
plane-surface $-1 26.372324396430002 -113.59249554903687 60.017403303921114 -1 0 0 0 -0.81915205242281985 0.57357642473473569 forward_v I I I I #
face $-1 $210 $211 $71 $-1 $212 forward single #
loop $-1 $213 $214 $91 #
cone-surface $-1 14.286064427098815 -22.286216320495065 6.1353359652112331 0 0.81915205242281985 -0.57357642473473569 1 0 0 1 I I 0 1 1 forward I I I I #
face $-1 $215 $216 $72 $-1 $217 forward single #
loop $-1 $218 $219 $92 #
cone-surface $-1 18.818411915598013 -22.286216320495065 6.1353359652112331 0 0.81915205242281985 -0.57357642473473569 1 0 0 1 I I 0 1 1 forward I I I I #
face $-1 $220 $221 $73 $-1 $222 forward single #
loop $-1 $223 $224 $93 #
cone-surface $-1 23.350759404097211 -22.286216320495065 6.1353359652112331 0 0.81915205242281985 -0.57357642473473569 1 0 0 1 I I 0 1 1 forward I I I I #
face $-1 $225 $226 $74 $-1 $227 reversed single #
loop $-1 $-1 $228 $94 #
plane-surface $-1 48.957209679464981 -113.59249554903687 60.017403303921114 -1 0 0 0 -0.81915205242281985 0.57357642473473569 forward_v I I I I #
face $-1 $229 $230 $75 $-1 $231 forward single #
loop $-1 $232 $233 $95 #
cone-surface $-1 36.870949710133793 -22.286216320495065 6.1353359652112331 0 0.81915205242281985 -0.57357642473473569 1 0 0 1 I I 0 1 1 forward I I I I #
face $-1 $234 $235 $76 $-1 $236 forward single #
loop $-1 $237 $238 $96 #
cone-surface $-1 41.403297198632991 -22.286216320495065 6.1353359652112331 0 0.81915205242281985 -0.57357642473473569 1 0 0 1 I I 0 1 1 forward I I I I #
face $-1 $239 $240 $77 $-1 $241 forward single #
loop $-1 $242 $243 $97 #
cone-surface $-1 45.935644687132189 -22.286216320495065 6.1353359652112331 0 0.81915205242281985 -0.57357642473473569 1 0 0 1 I I 0 1 1 forward I I I I #
face $-1 $244 $245 $78 $-1 $246 reversed single #
loop $-1 $-1 $247 $98 #
plane-surface $-1 8.5573170221776849 81.38171560035542 113.72884312526233 1 0 0 0 -0.81915205242281985 -0.57357642473473569 forward_v I I I I #
face $-1 $248 $249 $79 $-1 $250 forward single #
loop $-1 $251 $252 $99 #
cone-surface $-1 14.892278435684396 24.923530037401427 9.9468504655654932 0 -0.81915205242281985 -0.57357642473473569 1 0 0 1 I I 0 1 1 forward I I I I #
face $-1 $253 $254 $60 $-1 $255 reversed single #
loop $-1 $-1 $256 $100 #
plane-surface $-1 0 0 -13.62914943277036 0 0 1 1 0 0 forward_v I I I I #
coedge $-1 $257 $258 $259 $260 forward $101 $-1 #
face $-1 $261 $262 $61 $-1 $263 forward single #
loop $-1 $-1 $264 $103 #
plane-surface $-1 0 28.07889111165796 0 0 -1 0 0 0 -1 forward_v I I I I #
coedge $-1 $265 $266 $267 $268 forward $104 $-1 #
face $-1 $269 $270 $62 $-1 $271 reversed single #
loop $-1 $-1 $272 $106 #
plane-surface $-1 -26.351358650471944 -28.078891111657967 0.14013466460026081 0 -0.81915205242281985 0.57357642473473569 1 0 0 forward_v I I I I #
coedge $-1 $273 $274 $275 $276 reversed $107 $-1 #
face $-1 $-1 $277 $63 $-1 $278 forward single #
loop $-1 $279 $280 $109 #
cone-surface $-1 -30.883706138971142 -20.80652027243206 5.0992416693697873 0 0.81915205242281985 -0.57357642473473569 0.5 0 0 1 I I -0.70710678118654746 0.70710678118654746 0.5 forward I I I I #
loop $-1 $-1 $281 $83 #
coedge $-1 $176 $176 $282 $283 reversed $110 $-1 #
face $-1 $-1 $284 $64 $-1 $285 forward single #
loop $-1 $286 $287 $112 #
cone-surface $-1 -26.351358650471948 -20.80652027243206 5.0992416693697873 0 0.81915205242281985 -0.57357642473473569 0.5 0 0 1 I I -0.70710678118654746 0.70710678118654746 0.5 forward I I I I #
loop $-1 $-1 $288 $84 #
coedge $-1 $181 $181 $289 $290 reversed $113 $-1 #
face $-1 $-1 $291 $65 $-1 $292 forward single #
loop $-1 $293 $294 $115 #
cone-surface $-1 -21.819011161972753 -20.80652027243206 5.0992416693697873 0 0.81915205242281985 -0.57357642473473569 0.5 0 0 1 I I -0.70710678118654746 0.70710678118654746 0.5 forward I I I I #
loop $-1 $-1 $295 $85 #
coedge $-1 $186 $186 $296 $297 reversed $116 $-1 #
face $-1 $298 $299 $66 $-1 $300 reversed single #
loop $-1 $-1 $301 $118 #
plane-surface $-1 -3.7664733674369657 -28.078891111657967 0.14013466460026081 0 -0.81915205242281985 0.57357642473473569 1 0 0 forward_v I I I I #
coedge $-1 $302 $303 $304 $305 reversed $119 $-1 #
face $-1 $-1 $306 $67 $-1 $307 forward single #
loop $-1 $308 $309 $121 #
cone-surface $-1 -8.2988208559361638 -20.80652027243206 5.0992416693697873 0 0.81915205242281985 -0.57357642473473569 0.5 0 0 1 I I -0.70710678118654746 0.70710678118654746 0.5 forward I I I I #
loop $-1 $-1 $310 $87 #
coedge $-1 $195 $195 $311 $312 reversed $122 $-1 #
face $-1 $-1 $313 $68 $-1 $314 forward single #
loop $-1 $315 $316 $124 #
cone-surface $-1 -3.7664733674369657 -20.80652027243206 5.0992416693697873 0 0.81915205242281985 -0.57357642473473569 0.5 0 0 1 I I -0.70710678118654746 0.70710678118654746 0.5 forward I I I I #
loop $-1 $-1 $317 $88 #
coedge $-1 $200 $200 $318 $319 reversed $125 $-1 #
face $-1 $-1 $320 $69 $-1 $321 forward single #
loop $-1 $322 $323 $127 #
cone-surface $-1 0.7658741210622324 -20.80652027243206 5.0992416693697873 0 0.81915205242281985 -0.57357642473473569 0.5 0 0 1 I I -0.70710678118654746 0.70710678118654746 0.5 forward I I I I #
loop $-1 $-1 $324 $89 #
coedge $-1 $205 $205 $325 $326 reversed $128 $-1 #
face $-1 $327 $328 $70 $-1 $329 reversed single #
loop $-1 $-1 $330 $130 #
plane-surface $-1 18.818411915598013 -28.078891111657967 0.14013466460026081 0 -0.81915205242281985 0.57357642473473569 1 0 0 forward_v I I I I #
coedge $-1 $331 $332 $333 $334 reversed $131 $-1 #
face $-1 $-1 $335 $71 $-1 $336 forward single #
loop $-1 $337 $338 $133 #
cone-surface $-1 14.286064427098815 -20.80652027243206 5.0992416693697873 0 0.81915205242281985 -0.57357642473473569 0.5 0 0 1 I I -0.70710678118654746 0.70710678118654746 0.5 forward I I I I #
loop $-1 $-1 $339 $91 #
coedge $-1 $214 $214 $340 $341 reversed $134 $-1 #
face $-1 $-1 $342 $72 $-1 $343 forward single #
loop $-1 $344 $345 $136 #
cone-surface $-1 18.818411915598013 -20.80652027243206 5.0992416693697873 0 0.81915205242281985 -0.57357642473473569 0.5 0 0 1 I I -0.70710678118654746 0.70710678118654746 0.5 forward I I I I #
loop $-1 $-1 $346 $92 #
coedge $-1 $219 $219 $347 $348 reversed $137 $-1 #
face $-1 $-1 $349 $73 $-1 $350 forward single #
loop $-1 $351 $352 $139 #
cone-surface $-1 23.350759404097211 -20.80652027243206 5.0992416693697873 0 0.81915205242281985 -0.57357642473473569 0.5 0 0 1 I I -0.70710678118654746 0.70710678118654746 0.5 forward I I I I #
loop $-1 $-1 $353 $93 #
coedge $-1 $224 $224 $354 $355 reversed $140 $-1 #
face $-1 $356 $357 $74 $-1 $358 reversed single #
loop $-1 $-1 $359 $142 #
plane-surface $-1 41.403297198632991 -28.078891111657967 0.14013466460026081 0 -0.81915205242281985 0.57357642473473569 1 0 0 forward_v I I I I #
coedge $-1 $360 $361 $362 $363 reversed $143 $-1 #
face $-1 $-1 $364 $75 $-1 $365 forward single #
loop $-1 $366 $367 $145 #
cone-surface $-1 36.870949710133793 -20.80652027243206 5.0992416693697873 0 0.81915205242281985 -0.57357642473473569 0.5 0 0 1 I I -0.70710678118654746 0.70710678118654746 0.5 forward I I I I #
loop $-1 $-1 $368 $95 #
coedge $-1 $233 $233 $369 $370 reversed $146 $-1 #
face $-1 $-1 $371 $76 $-1 $372 forward single #
loop $-1 $373 $374 $148 #
cone-surface $-1 41.403297198632991 -20.80652027243206 5.0992416693697873 0 0.81915205242281985 -0.57357642473473569 0.5 0 0 1 I I -0.70710678118654746 0.70710678118654746 0.5 forward I I I I #
loop $-1 $-1 $375 $96 #
coedge $-1 $238 $238 $376 $377 reversed $149 $-1 #
face $-1 $-1 $378 $77 $-1 $379 forward single #
loop $-1 $380 $381 $151 #
cone-surface $-1 45.935644687132189 -20.80652027243206 5.0992416693697873 0 0.81915205242281985 -0.57357642473473569 0.5 0 0 1 I I -0.70710678118654746 0.70710678118654746 0.5 forward I I I I #
loop $-1 $-1 $382 $97 #
coedge $-1 $243 $243 $383 $384 reversed $152 $-1 #
face $-1 $385 $386 $78 $-1 $387 reversed single #
loop $-1 $-1 $388 $154 #
plane-surface $-1 14.892278435684396 -4.1318888370234816 53.851574485941477 0 0.81915205242281985 0.57357642473473569 1 0 0 forward_v I I I I #
coedge $-1 $389 $390 $391 $392 reversed $155 $-1 #
face $-1 $-1 $393 $79 $-1 $394 forward single #
loop $-1 $395 $396 $157 #
cone-surface $-1 14.892278435684396 23.381960722644905 8.8674320432791962 0 -0.81915205242281985 -0.57357642473473569 0.5 0 0 1 I I -0.70710678118654746 0.70710678118654746 0.5 forward I I I I #
loop $-1 $-1 $397 $99 #
coedge $-1 $252 $252 $398 $399 reversed $158 $-1 #
face $-1 $400 $401 $60 $-1 $402 reversed single #
loop $-1 $-1 $403 $160 #
plane-surface $-1 0 -28.07889111165796 0 0 1 0 0 0 1 forward_v I I I I #
coedge $-1 $404 $405 $406 $407 forward $161 $-1 #
coedge $-1 $408 $163 $409 $410 forward $101 $-1 #
coedge $-1 $163 $408 $411 $412 forward $101 $-1 #
coedge $-1 $413 $414 $163 $260 reversed $415 $-1 #
edge $-1 $416 -28.07889111165796 $417 28.07889111165796 $259 $418 forward 7 unknown #
face $-1 $419 $420 $61 $-1 $421 reversed single #
loop $-1 $-1 $267 $164 #
plane-surface $-1 -59.223063687905075 0 -6.6043163760346619 0 0 1 1 0 0 forward_v I I I I #
coedge $-1 $422 $423 $266 $424 forward $165 $-1 #
coedge $-1 $425 $167 $426 $427 reversed $104 $-1 #
coedge $-1 $167 $425 $264 $424 reversed $104 $-1 #
coedge $-1 $428 $429 $167 $268 reversed $262 $-1 #
edge $-1 $430 -28.07889111165796 $431 28.07889111165796 $267 $432 forward 7 unknown #
face $-1 $433 $434 $62 $-1 $435 reversed single #
loop $-1 $-1 $436 $168 #
plane-surface $-1 -33.905271131303934 -113.59249554903687 60.017403303921114 1 0 0 0 0.81915205242281985 -0.57357642473473569 forward_v I I I I #
coedge $-1 $437 $438 $439 $440 reversed $169 $-1 #
coedge $-1 $274 $171 $441 $442 reversed $107 $-1 #
coedge $-1 $171 $273 $437 $443 reversed $107 $-1 #
coedge $-1 $439 $444 $171 $276 forward $445 $-1 #
edge $-1 $446 28.717356662860475 $447 38.16246620148307 $275 $448 forward 7 unknown #
loop $-1 $-1 $282 $172 #
plane-surface $-1 -26.351358650471944 -28.078891111657967 0.14013466460026081 0 -0.81915205242281985 0.57357642473473569 1 0 0 forward_v I I I I #
loop $-1 $-1 $449 $109 #
coedge $-1 $280 $280 $281 $450 reversed $173 $-1 #
coedge $-1 $281 $281 $280 $450 forward $175 $-1 #
coedge $-1 $282 $282 $176 $283 forward $277 $-1 #
edge $-1 $451 -8.7245989166747535e-016 $451 6.2831853071795996 $282 $452 forward 7 unknown #
loop $-1 $-1 $289 $177 #
plane-surface $-1 -26.351358650471944 -28.078891111657967 0.14013466460026081 0 -0.81915205242281985 0.57357642473473569 1 0 0 forward_v I I I I #
loop $-1 $-1 $453 $112 #
coedge $-1 $287 $287 $288 $454 reversed $178 $-1 #
coedge $-1 $288 $288 $287 $454 forward $180 $-1 #
coedge $-1 $289 $289 $181 $290 forward $284 $-1 #
edge $-1 $455 -8.7245989166747535e-016 $455 6.2831853071795996 $289 $456 forward 7 unknown #
loop $-1 $-1 $296 $182 #
plane-surface $-1 -26.351358650471944 -28.078891111657967 0.14013466460026081 0 -0.81915205242281985 0.57357642473473569 1 0 0 forward_v I I I I #
loop $-1 $-1 $457 $115 #
coedge $-1 $294 $294 $295 $458 reversed $183 $-1 #
coedge $-1 $295 $295 $294 $458 forward $185 $-1 #
coedge $-1 $296 $296 $186 $297 forward $291 $-1 #
edge $-1 $459 -8.7245989166747535e-016 $459 6.2831853071795996 $296 $460 forward 7 unknown #
face $-1 $461 $462 $66 $-1 $463 reversed single #
loop $-1 $-1 $464 $187 #
plane-surface $-1 -11.320385848268957 -113.59249554903687 60.017403303921114 1 0 0 0 0.81915205242281985 -0.57357642473473569 forward_v I I I I #
coedge $-1 $465 $466 $467 $468 reversed $188 $-1 #
coedge $-1 $303 $190 $469 $470 reversed $119 $-1 #
coedge $-1 $190 $302 $465 $471 reversed $119 $-1 #
coedge $-1 $467 $472 $190 $305 forward $473 $-1 #
edge $-1 $474 28.717356662860475 $475 38.16246620148307 $304 $476 forward 7 unknown #
loop $-1 $-1 $311 $191 #
plane-surface $-1 -3.7664733674369657 -28.078891111657967 0.14013466460026081 0 -0.81915205242281985 0.57357642473473569 1 0 0 forward_v I I I I #
loop $-1 $-1 $477 $121 #
coedge $-1 $309 $309 $310 $478 reversed $192 $-1 #
coedge $-1 $310 $310 $309 $478 forward $194 $-1 #
coedge $-1 $311 $311 $195 $312 forward $306 $-1 #
edge $-1 $479 -8.7245989166747535e-016 $479 6.2831853071795996 $311 $480 forward 7 unknown #
loop $-1 $-1 $318 $196 #
plane-surface $-1 -3.7664733674369657 -28.078891111657967 0.14013466460026081 0 -0.81915205242281985 0.57357642473473569 1 0 0 forward_v I I I I #
loop $-1 $-1 $481 $124 #
coedge $-1 $316 $316 $317 $482 reversed $197 $-1 #
coedge $-1 $317 $317 $316 $482 forward $199 $-1 #
coedge $-1 $318 $318 $200 $319 forward $313 $-1 #
edge $-1 $483 -8.7245989166747535e-016 $483 6.2831853071795996 $318 $484 forward 7 unknown #
loop $-1 $-1 $325 $201 #
plane-surface $-1 -3.7664733674369657 -28.078891111657967 0.14013466460026081 0 -0.81915205242281985 0.57357642473473569 1 0 0 forward_v I I I I #
loop $-1 $-1 $485 $127 #
coedge $-1 $323 $323 $324 $486 reversed $202 $-1 #
coedge $-1 $324 $324 $323 $486 forward $204 $-1 #
coedge $-1 $325 $325 $205 $326 forward $320 $-1 #
edge $-1 $487 -8.7245989166747535e-016 $487 6.2831853071795996 $325 $488 forward 7 unknown #
face $-1 $489 $490 $70 $-1 $491 reversed single #
loop $-1 $-1 $492 $206 #
plane-surface $-1 11.264499434766021 -113.59249554903687 60.017403303921114 1 0 0 0 0.81915205242281985 -0.57357642473473569 forward_v I I I I #
coedge $-1 $493 $494 $495 $496 reversed $207 $-1 #
coedge $-1 $332 $209 $497 $498 reversed $131 $-1 #
coedge $-1 $209 $331 $493 $499 reversed $131 $-1 #
coedge $-1 $495 $500 $209 $334 forward $501 $-1 #
edge $-1 $502 28.717356662860475 $503 38.16246620148307 $333 $504 forward 7 unknown #
loop $-1 $-1 $340 $210 #
plane-surface $-1 18.818411915598013 -28.078891111657967 0.14013466460026081 0 -0.81915205242281985 0.57357642473473569 1 0 0 forward_v I I I I #
loop $-1 $-1 $505 $133 #
coedge $-1 $338 $338 $339 $506 reversed $211 $-1 #
coedge $-1 $339 $339 $338 $506 forward $213 $-1 #
coedge $-1 $340 $340 $214 $341 forward $335 $-1 #
edge $-1 $507 -8.7245989166747535e-016 $507 6.2831853071795996 $340 $508 forward 7 unknown #
loop $-1 $-1 $347 $215 #
plane-surface $-1 18.818411915598013 -28.078891111657967 0.14013466460026081 0 -0.81915205242281985 0.57357642473473569 1 0 0 forward_v I I I I #
loop $-1 $-1 $509 $136 #
coedge $-1 $345 $345 $346 $510 reversed $216 $-1 #
coedge $-1 $346 $346 $345 $510 forward $218 $-1 #
coedge $-1 $347 $347 $219 $348 forward $342 $-1 #
edge $-1 $511 -8.7245989166747535e-016 $511 6.2831853071795996 $347 $512 forward 7 unknown #
loop $-1 $-1 $354 $220 #
plane-surface $-1 18.818411915598013 -28.078891111657967 0.14013466460026081 0 -0.81915205242281985 0.57357642473473569 1 0 0 forward_v I I I I #
loop $-1 $-1 $513 $139 #
coedge $-1 $352 $352 $353 $514 reversed $221 $-1 #
coedge $-1 $353 $353 $352 $514 forward $223 $-1 #
coedge $-1 $354 $354 $224 $355 forward $349 $-1 #
edge $-1 $515 -8.7245989166747535e-016 $515 6.2831853071795996 $354 $516 forward 7 unknown #
face $-1 $517 $518 $74 $-1 $519 reversed single #
loop $-1 $-1 $520 $225 #
plane-surface $-1 33.849384717801001 -113.59249554903687 60.017403303921114 1 0 0 0 0.81915205242281985 -0.57357642473473569 forward_v I I I I #
coedge $-1 $521 $522 $523 $524 reversed $226 $-1 #
coedge $-1 $361 $228 $525 $526 reversed $143 $-1 #
coedge $-1 $228 $360 $521 $527 reversed $143 $-1 #
coedge $-1 $523 $528 $228 $363 forward $529 $-1 #
edge $-1 $530 28.717356662860475 $531 38.16246620148307 $362 $532 forward 7 unknown #
loop $-1 $-1 $369 $229 #
plane-surface $-1 41.403297198632991 -28.078891111657967 0.14013466460026081 0 -0.81915205242281985 0.57357642473473569 1 0 0 forward_v I I I I #
loop $-1 $-1 $533 $145 #
coedge $-1 $367 $367 $368 $534 reversed $230 $-1 #
coedge $-1 $368 $368 $367 $534 forward $232 $-1 #
coedge $-1 $369 $369 $233 $370 forward $364 $-1 #
edge $-1 $535 -8.7245989166747535e-016 $535 6.2831853071795996 $369 $536 forward 7 unknown #
loop $-1 $-1 $376 $234 #
plane-surface $-1 41.403297198632991 -28.078891111657967 0.14013466460026081 0 -0.81915205242281985 0.57357642473473569 1 0 0 forward_v I I I I #
loop $-1 $-1 $537 $148 #
coedge $-1 $374 $374 $375 $538 reversed $235 $-1 #
coedge $-1 $375 $375 $374 $538 forward $237 $-1 #
coedge $-1 $376 $376 $238 $377 forward $371 $-1 #
edge $-1 $539 -8.7245989166747535e-016 $539 6.2831853071795996 $376 $540 forward 7 unknown #
loop $-1 $-1 $383 $239 #
plane-surface $-1 41.403297198632991 -28.078891111657967 0.14013466460026081 0 -0.81915205242281985 0.57357642473473569 1 0 0 forward_v I I I I #
loop $-1 $-1 $541 $151 #
coedge $-1 $381 $381 $382 $542 reversed $240 $-1 #
coedge $-1 $382 $382 $381 $542 forward $242 $-1 #
coedge $-1 $383 $383 $243 $384 forward $378 $-1 #
edge $-1 $543 -8.7245989166747535e-016 $543 6.2831853071795996 $383 $544 forward 7 unknown #
face $-1 $545 $546 $78 $-1 $547 forward single #
loop $-1 $-1 $548 $244 #
plane-surface $-1 21.227239849191108 81.38171560035542 113.72884312526233 -1 0 0 0 0.81915205242281985 0.57357642473473569 forward_v I I I I #
coedge $-1 $549 $550 $551 $552 reversed $245 $-1 #
coedge $-1 $390 $247 $553 $554 reversed $155 $-1 #
coedge $-1 $247 $389 $549 $555 reversed $155 $-1 #
coedge $-1 $551 $556 $247 $392 forward $546 $-1 #
edge $-1 $557 12.61196668851975 $558 16.658702259942608 $391 $559 forward 7 unknown #
loop $-1 $-1 $398 $248 #
plane-surface $-1 14.892278435684396 -4.1318888370234816 53.851574485941477 0 0.81915205242281985 0.57357642473473569 1 0 0 forward_v I I I I #
loop $-1 $-1 $560 $157 #
coedge $-1 $396 $396 $397 $561 reversed $249 $-1 #
coedge $-1 $397 $397 $396 $561 forward $251 $-1 #
coedge $-1 $398 $398 $252 $399 forward $393 $-1 #
edge $-1 $562 -1.4551063508300288e-015 $562 6.2831853071795987 $398 $563 forward 7 unknown #
face $-1 $564 $565 $60 $-1 $566 reversed single #
loop $-1 $-1 $567 $253 #
plane-surface $-1 -52.196417126987519 0 0 1 0 0 0 0 -1 forward_v I I I I #
coedge $-1 $568 $411 $567 $569 forward $254 $-1 #
coedge $-1 $570 $256 $568 $571 forward $161 $-1 #
coedge $-1 $256 $570 $572 $573 forward $161 $-1 #
coedge $-1 $414 $413 $256 $407 reversed $415 $-1 #
edge $-1 $574 -28.07889111165796 $575 28.07889111165796 $406 $576 forward 7 unknown #
coedge $-1 $258 $257 $577 $578 forward $101 $-1 #
coedge $-1 $579 $580 $257 $410 reversed $565 $-1 #
edge $-1 $417 -52.196417126987519 $581 52.196417126987519 $409 $582 forward 7 unknown #
coedge $-1 $403 $583 $258 $412 reversed $254 $-1 #
edge $-1 $584 -52.196417126987519 $416 52.196417126987519 $411 $585 forward 7 unknown #
coedge $-1 $406 $259 $583 $586 forward $415 $-1 #
coedge $-1 $259 $406 $579 $587 reversed $415 $-1 #
loop $-1 $-1 $413 $564 #
vertex $-1 $260 $588 #
vertex $-1 $260 $589 #
straight-curve $-1 52.196417126987519 0 13.62914943277036 0 1 0 I I #
face $-1 $590 $591 $61 $-1 $592 reversed single #
loop $-1 $-1 $593 $261 #
plane-surface $-1 -66.249710248822623 0 -10.116732904402511 1 0 0 0 0 -1 forward_v I I I I #
coedge $-1 $594 $264 $595 $596 reversed $165 $-1 #
coedge $-1 $264 $594 $428 $597 reversed $165 $-1 #
edge $-1 $430 6.6043163760346619 $598 13.62914943277036 $264 $599 forward 7 unknown #
coedge $-1 $266 $265 $600 $601 reversed $104 $-1 #
coedge $-1 $602 $603 $265 $427 forward $604 $-1 #
edge $-1 $605 -13.62914943277036 $431 -6.6043163760346619 $426 $606 forward 7 unknown #
coedge $-1 $607 $267 $423 $597 forward $262 $-1 #
coedge $-1 $267 $607 $602 $608 forward $262 $-1 #
vertex $-1 $424 $609 #
vertex $-1 $608 $610 #
straight-curve $-1 -52.196417126987519 0 -6.6043163760346619 0 -1 0 I I #
face $-1 $-1 $445 $62 $-1 $611 forward single #
loop $-1 $-1 $612 $269 #
plane-surface $-1 0 -28.07889111165796 0 0 1 0 0 0 1 forward_v I I I I #
coedge $-1 $613 $614 $615 $616 reversed $270 $-1 #
coedge $-1 $617 $272 $274 $443 forward $169 $-1 #
coedge $-1 $272 $617 $613 $618 forward $169 $-1 #
coedge $-1 $615 $275 $272 $440 forward $445 $-1 #
edge $-1 $447 5.6217668444039823 $619 20.729591806067962 $439 $620 forward 7 unknown #
coedge $-1 $621 $622 $273 $442 forward $434 $-1 #
edge $-1 $623 -29.868566987360285 $446 -16.379552219190195 $441 $624 forward 7 unknown #
edge $-1 $447 -16.467046292899365 $623 -1.2396895063794389e-014 $274 $625 forward 7 unknown #
coedge $-1 $275 $615 $621 $626 forward $445 $-1 #
loop $-1 $-1 $615 $433 #
vertex $-1 $442 $627 #
vertex $-1 $276 $628 #
straight-curve $-1 -18.797446169639954 -56.796247774518434 13.629149432770362 0 1 0 I I #
coedge $-1 $449 $449 $-1 $629 reversed $279 $-1 #
edge $-1 $630 0 $630 6.2831853071796004 $280 $631 forward 7 unknown #
vertex $-1 $283 $632 #
ellipse-curve $-1 -30.883706138971142 -23.356336342346665 6.8846420486853139 0 -0.81915205242281985 0.57357642473473569 1 0 0 1 I I #
coedge $-1 $453 $453 $-1 $633 reversed $286 $-1 #
edge $-1 $634 0 $634 6.2831853071796004 $287 $635 forward 7 unknown #
vertex $-1 $290 $636 #
ellipse-curve $-1 -26.351358650471948 -23.356336342346665 6.8846420486853139 0 -0.81915205242281985 0.57357642473473569 1 0 0 1 I I #
coedge $-1 $457 $457 $-1 $637 reversed $293 $-1 #
edge $-1 $638 0 $638 6.2831853071796004 $294 $639 forward 7 unknown #
vertex $-1 $297 $640 #
ellipse-curve $-1 -21.819011161972753 -23.356336342346665 6.8846420486853139 0 -0.81915205242281985 0.57357642473473569 1 0 0 1 I I #
face $-1 $-1 $473 $66 $-1 $641 forward single #
loop $-1 $-1 $642 $298 #
plane-surface $-1 0 -28.07889111165796 0 0 1 0 0 0 1 forward_v I I I I #
coedge $-1 $643 $644 $645 $646 reversed $299 $-1 #
coedge $-1 $647 $301 $303 $471 forward $188 $-1 #
coedge $-1 $301 $647 $643 $648 forward $188 $-1 #
coedge $-1 $645 $304 $301 $468 forward $473 $-1 #
edge $-1 $475 -5.6706757971135087 $649 9.4371491645504744 $467 $650 forward 7 unknown #
coedge $-1 $651 $652 $302 $470 forward $462 $-1 #
edge $-1 $653 -29.868566987360285 $474 -16.379552219190195 $469 $654 forward 7 unknown #
edge $-1 $475 -16.467046292899365 $653 -1.2396895063794389e-014 $303 $655 forward 7 unknown #
coedge $-1 $304 $645 $651 $656 forward $473 $-1 #
loop $-1 $-1 $645 $461 #
vertex $-1 $470 $657 #
vertex $-1 $305 $658 #
straight-curve $-1 3.7874391133950258 -56.796247774518434 13.629149432770362 0 1 0 I I #
coedge $-1 $477 $477 $-1 $659 reversed $308 $-1 #
edge $-1 $660 0 $660 6.2831853071796004 $309 $661 forward 7 unknown #
vertex $-1 $312 $662 #
ellipse-curve $-1 -8.2988208559361638 -23.356336342346665 6.8846420486853139 0 -0.81915205242281985 0.57357642473473569 1 0 0 1 I I #
coedge $-1 $481 $481 $-1 $663 reversed $315 $-1 #
edge $-1 $664 0 $664 6.2831853071796004 $316 $665 forward 7 unknown #
vertex $-1 $319 $666 #
ellipse-curve $-1 -3.7664733674369657 -23.356336342346665 6.8846420486853139 0 -0.81915205242281985 0.57357642473473569 1 0 0 1 I I #
coedge $-1 $485 $485 $-1 $667 reversed $322 $-1 #
edge $-1 $668 0 $668 6.2831853071796004 $323 $669 forward 7 unknown #
vertex $-1 $326 $670 #
ellipse-curve $-1 0.7658741210622324 -23.356336342346665 6.8846420486853139 0 -0.81915205242281985 0.57357642473473569 1 0 0 1 I I #
face $-1 $-1 $501 $70 $-1 $671 forward single #
loop $-1 $-1 $672 $327 #
plane-surface $-1 0 -28.07889111165796 0 0 1 0 0 0 1 forward_v I I I I #
coedge $-1 $673 $674 $675 $676 reversed $328 $-1 #
coedge $-1 $677 $330 $332 $499 forward $207 $-1 #
coedge $-1 $330 $677 $673 $678 forward $207 $-1 #
coedge $-1 $675 $333 $330 $496 forward $501 $-1 #
edge $-1 $503 -16.963118438630996 $679 -1.8552934769670149 $495 $680 forward 7 unknown #
coedge $-1 $681 $682 $331 $498 forward $490 $-1 #
edge $-1 $683 -29.868566987360285 $502 -16.379552219190195 $497 $684 forward 7 unknown #
edge $-1 $503 -16.467046292899365 $683 -1.2396895063794389e-014 $332 $685 forward 7 unknown #
coedge $-1 $333 $675 $681 $686 forward $501 $-1 #
loop $-1 $-1 $675 $489 #
vertex $-1 $498 $687 #
vertex $-1 $334 $688 #
straight-curve $-1 26.372324396430002 -56.796247774518434 13.629149432770362 0 1 0 I I #
coedge $-1 $505 $505 $-1 $689 reversed $337 $-1 #
edge $-1 $690 0 $690 6.2831853071796004 $338 $691 forward 7 unknown #
vertex $-1 $341 $692 #
ellipse-curve $-1 14.286064427098815 -23.356336342346665 6.8846420486853139 0 -0.81915205242281985 0.57357642473473569 1 0 0 1 I I #
coedge $-1 $509 $509 $-1 $693 reversed $344 $-1 #
edge $-1 $694 0 $694 6.2831853071796004 $345 $695 forward 7 unknown #
vertex $-1 $348 $696 #
ellipse-curve $-1 18.818411915598013 -23.356336342346665 6.8846420486853139 0 -0.81915205242281985 0.57357642473473569 1 0 0 1 I I #
coedge $-1 $513 $513 $-1 $697 reversed $351 $-1 #
edge $-1 $698 0 $698 6.2831853071796004 $352 $699 forward 7 unknown #
vertex $-1 $355 $700 #
ellipse-curve $-1 23.350759404097211 -23.356336342346665 6.8846420486853139 0 -0.81915205242281985 0.57357642473473569 1 0 0 1 I I #
face $-1 $-1 $529 $74 $-1 $701 forward single #
loop $-1 $-1 $702 $356 #
plane-surface $-1 0 -28.07889111165796 0 0 1 0 0 0 1 forward_v I I I I #
coedge $-1 $703 $704 $705 $706 reversed $357 $-1 #
coedge $-1 $707 $359 $361 $527 forward $226 $-1 #
coedge $-1 $359 $707 $703 $708 forward $226 $-1 #
coedge $-1 $705 $362 $359 $524 forward $529 $-1 #
edge $-1 $531 -28.255561080148485 $709 -13.147736118484506 $523 $710 forward 7 unknown #
coedge $-1 $711 $712 $360 $526 forward $518 $-1 #
edge $-1 $713 -29.868566987360285 $530 -16.379552219190195 $525 $714 forward 7 unknown #
edge $-1 $531 -16.467046292899365 $713 -1.2396895063794389e-014 $361 $715 forward 7 unknown #
coedge $-1 $362 $705 $711 $716 forward $529 $-1 #
loop $-1 $-1 $705 $517 #
vertex $-1 $526 $717 #
vertex $-1 $363 $718 #
straight-curve $-1 48.957209679464981 -56.796247774518434 13.629149432770362 0 1 0 I I #
coedge $-1 $533 $533 $-1 $719 reversed $366 $-1 #
edge $-1 $720 0 $720 6.2831853071796004 $367 $721 forward 7 unknown #
vertex $-1 $370 $722 #
ellipse-curve $-1 36.870949710133793 -23.356336342346665 6.8846420486853139 0 -0.81915205242281985 0.57357642473473569 1 0 0 1 I I #
coedge $-1 $537 $537 $-1 $723 reversed $373 $-1 #
edge $-1 $724 0 $724 6.2831853071796004 $374 $725 forward 7 unknown #
vertex $-1 $377 $726 #
ellipse-curve $-1 41.403297198632991 -23.356336342346665 6.8846420486853139 0 -0.81915205242281985 0.57357642473473569 1 0 0 1 I I #
coedge $-1 $541 $541 $-1 $727 reversed $380 $-1 #
edge $-1 $728 0 $728 6.2831853071796004 $381 $729 forward 7 unknown #
vertex $-1 $384 $730 #
ellipse-curve $-1 45.935644687132189 -23.356336342346665 6.8846420486853139 0 -0.81915205242281985 0.57357642473473569 1 0 0 1 I I #
face $-1 $-1 $731 $78 $-1 $732 reversed single #
loop $-1 $-1 $391 $385 #
plane-surface $-1 0 0 13.62914943277036 0 0 1 1 0 0 forward_v I I I I #
coedge $-1 $733 $734 $735 $736 reversed $386 $-1 #
coedge $-1 $737 $388 $390 $555 forward $245 $-1 #
coedge $-1 $388 $737 $733 $738 forward $245 $-1 #
coedge $-1 $735 $391 $388 $552 forward $546 $-1 #
edge $-1 $558 1.1111778043354867 $739 13.78110063134891 $551 $740 forward 7 unknown #
coedge $-1 $741 $742 $389 $554 forward $731 $-1 #
edge $-1 $743 -49.014609644432674 $557 -43.235272129860803 $553 $744 forward 7 unknown #
edge $-1 $558 49.102513915706581 $743 56.157782223315934 $390 $745 forward 7 unknown #
coedge $-1 $391 $735 $741 $746 forward $546 $-1 #
vertex $-1 $554 $747 #
vertex $-1 $392 $748 #
straight-curve $-1 8.5573170221776849 40.69085780017771 13.629149432770362 0 -1 0 I I #
coedge $-1 $560 $560 $-1 $749 reversed $395 $-1 #
edge $-1 $750 0 $750 6.2831853071796004 $396 $751 forward 7 unknown #
vertex $-1 $399 $752 #
ellipse-curve $-1 14.892278435684396 26.055523325946538 10.739480675484421 0 0.81915205242281985 0.57357642473473569 1 0 0 1 I I #
face $-1 $-1 $415 $60 $-1 $753 reversed single #
loop $-1 $-1 $579 $400 #
plane-surface $-1 0 28.07889111165796 0 0 -1 0 0 0 -1 forward_v I I I I #
coedge $-1 $577 $754 $403 $569 reversed $401 $-1 #
coedge $-1 $583 $403 $404 $571 reversed $254 $-1 #
edge $-1 $584 -13.62914943277036 $755 13.62914943277036 $567 $756 forward 7 unknown #
coedge $-1 $405 $404 $754 $757 forward $161 $-1 #
edge $-1 $575 -52.196417126987519 $755 52.196417126987519 $568 $758 forward 7 unknown #
coedge $-1 $580 $579 $405 $573 reversed $565 $-1 #
edge $-1 $759 -52.196417126987519 $574 52.196417126987519 $572 $760 forward 7 unknown #
vertex $-1 $407 $761 #
vertex $-1 $586 $762 #
straight-curve $-1 52.196417126987519 0 -13.62914943277036 0 -1 0 I I #
coedge $-1 $763 $567 $408 $578 reversed $401 $-1 #
edge $-1 $581 -28.07889111165796 $584 28.07889111165796 $577 $764 forward 7 unknown #
coedge $-1 $572 $409 $414 $587 forward $565 $-1 #
coedge $-1 $409 $572 $763 $765 reversed $565 $-1 #
vertex $-1 $410 $766 #
straight-curve $-1 0 28.07889111165796 13.62914943277036 -1 0 0 I I #
coedge $-1 $411 $568 $413 $586 reversed $254 $-1 #
vertex $-1 $578 $767 #
straight-curve $-1 0 -28.07889111165796 13.62914943277036 1 0 0 I I #
edge $-1 $416 -13.62914943277036 $575 13.62914943277036 $413 $768 forward 7 unknown #
edge $-1 $417 -13.62914943277036 $574 13.62914943277036 $414 $769 forward 7 unknown #
point $-1 52.196417126987519 -28.07889111165796 13.62914943277036 #
point $-1 52.196417126987519 28.07889111165796 13.62914943277036 #
face $-1 $-1 $604 $61 $-1 $770 reversed single #
loop $-1 $-1 $600 $419 #
plane-surface $-1 0 0 -13.62914943277036 0 0 1 1 0 0 forward_v I I I I #
coedge $-1 $771 $772 $594 $773 forward $420 $-1 #
coedge $-1 $423 $422 $593 $773 reversed $165 $-1 #
coedge $-1 $600 $774 $422 $596 forward $591 $-1 #
edge $-1 $775 -66.249710248822623 $598 -52.196417126987519 $422 $776 forward 7 unknown #
edge $-1 $430 -7.0266465609175555 $777 7.0266465609175484 $423 $778 forward 7 unknown #
vertex $-1 $424 $779 #
straight-curve $-1 -52.196417126987519 28.07889111165796 0 0 0 -1 I I #
coedge $-1 $780 $595 $425 $601 forward $591 $-1 #
edge $-1 $598 -28.07889111165796 $605 28.07889111165796 $600 $781 forward 7 unknown #
coedge $-1 $782 $426 $429 $608 reversed $604 $-1 #
coedge $-1 $426 $782 $780 $783 reversed $604 $-1 #
loop $-1 $-1 $426 $590 #
vertex $-1 $783 $784 #
straight-curve $-1 -52.196417126987519 -28.07889111165796 0 0 0 1 I I #
coedge $-1 $429 $428 $772 $785 forward $262 $-1 #
edge $-1 $786 -7.0266465609175484 $431 7.0266465609175555 $602 $787 forward 7 unknown #
point $-1 -52.196417126987519 28.07889111165796 -6.6043163760346619 #
point $-1 -52.196417126987519 -28.07889111165796 -6.6043163760346619 #
plane-surface $-1 0 0 13.62914943277036 0 0 1 1 0 0 forward_v I I I I #
coedge $-1 $622 $621 $614 $788 forward $434 $-1 #
coedge $-1 $614 $436 $438 $618 reversed $270 $-1 #
coedge $-1 $436 $613 $612 $788 reversed $270 $-1 #
coedge $-1 $444 $439 $436 $616 forward $445 $-1 #
edge $-1 $619 -38.16246620148307 $789 -28.717356662860475 $615 $790 forward 7 unknown #
coedge $-1 $438 $437 $622 $791 reversed $169 $-1 #
edge $-1 $792 1.2396895063794389e-014 $619 16.467046292899365 $613 $793 forward 7 unknown #
vertex $-1 $440 $794 #
straight-curve $-1 -13.175679325235972 -18.633781573035371 13.62914943277036 -1 0 0 I I #
coedge $-1 $612 $441 $444 $626 reversed $434 $-1 #
coedge $-1 $441 $612 $617 $791 forward $434 $-1 #
vertex $-1 $442 $795 #
straight-curve $-1 -18.797446169639954 -28.07889111165796 30.008701651960557 0 0 1 I I #
straight-curve $-1 -18.797446169639954 -28.078891111657967 0.14013466460026081 0 -0.57357642473473569 -0.81915205242281985 I I #
edge $-1 $789 -33.905271131303934 $446 -18.797446169639954 $621 $796 forward 7 unknown #
point $-1 -18.797446169639954 -28.07889111165796 13.62914943277036 #
point $-1 -18.797446169639954 -18.633781573035368 13.62914943277036 #
edge $-1 $797 1 $797 0 $449 $-1 forward 7 unknown #
vertex $-1 $450 $798 #
ellipse-curve $-1 -30.883706138971142 -21.216096298643471 5.386029881737155 0 -0.81915205242281985 0.57357642473473569 1 0 0 1 I I #
point $-1 -29.883706138971142 -23.356336342346662 6.8846420486853104 #
edge $-1 $799 1 $799 0 $453 $-1 forward 7 unknown #
vertex $-1 $454 $800 #
ellipse-curve $-1 -26.351358650471948 -21.216096298643471 5.386029881737155 0 -0.81915205242281985 0.57357642473473569 1 0 0 1 I I #
point $-1 -25.351358650471948 -23.356336342346662 6.8846420486853104 #
edge $-1 $801 1 $801 0 $457 $-1 forward 7 unknown #
vertex $-1 $458 $802 #
ellipse-curve $-1 -21.819011161972753 -21.216096298643471 5.386029881737155 0 -0.81915205242281985 0.57357642473473569 1 0 0 1 I I #
point $-1 -20.819011161972753 -23.356336342346662 6.8846420486853104 #
plane-surface $-1 0 0 13.62914943277036 0 0 1 1 0 0 forward_v I I I I #
coedge $-1 $652 $651 $644 $803 forward $462 $-1 #
coedge $-1 $644 $464 $466 $648 reversed $299 $-1 #
coedge $-1 $464 $643 $642 $803 reversed $299 $-1 #
coedge $-1 $472 $467 $464 $646 forward $473 $-1 #
edge $-1 $649 -38.16246620148307 $804 -28.717356662860475 $645 $805 forward 7 unknown #
coedge $-1 $466 $465 $652 $806 reversed $188 $-1 #
edge $-1 $807 1.2396895063794389e-014 $649 16.467046292899365 $643 $808 forward 7 unknown #
vertex $-1 $468 $809 #
straight-curve $-1 -1.8832366837184829 -18.633781573035371 13.62914943277036 -1 0 0 I I #
coedge $-1 $642 $469 $472 $656 reversed $462 $-1 #
coedge $-1 $469 $642 $647 $806 forward $462 $-1 #
vertex $-1 $470 $810 #
straight-curve $-1 3.7874391133950258 -28.07889111165796 30.008701651960557 0 0 1 I I #
straight-curve $-1 3.7874391133950258 -28.078891111657967 0.14013466460026081 0 -0.57357642473473569 -0.81915205242281985 I I #
edge $-1 $804 -11.320385848268957 $474 3.7874391133950258 $651 $811 forward 7 unknown #
point $-1 3.7874391133950258 -28.07889111165796 13.62914943277036 #
point $-1 3.7874391133950258 -18.633781573035368 13.62914943277036 #
edge $-1 $812 1 $812 0 $477 $-1 forward 7 unknown #
vertex $-1 $478 $813 #
ellipse-curve $-1 -8.2988208559361638 -21.216096298643471 5.386029881737155 0 -0.81915205242281985 0.57357642473473569 1 0 0 1 I I #
point $-1 -7.2988208559361638 -23.356336342346662 6.8846420486853104 #
edge $-1 $814 1 $814 0 $481 $-1 forward 7 unknown #
vertex $-1 $482 $815 #
ellipse-curve $-1 -3.7664733674369657 -21.216096298643471 5.386029881737155 0 -0.81915205242281985 0.57357642473473569 1 0 0 1 I I #
point $-1 -2.7664733674369657 -23.356336342346662 6.8846420486853104 #
edge $-1 $816 1 $816 0 $485 $-1 forward 7 unknown #
vertex $-1 $486 $817 #
ellipse-curve $-1 0.7658741210622324 -21.216096298643471 5.386029881737155 0 -0.81915205242281985 0.57357642473473569 1 0 0 1 I I #
point $-1 1.7658741210622324 -23.356336342346662 6.8846420486853104 #
plane-surface $-1 0 0 13.62914943277036 0 0 1 1 0 0 forward_v I I I I #
coedge $-1 $682 $681 $674 $818 forward $490 $-1 #
coedge $-1 $674 $492 $494 $678 reversed $328 $-1 #
coedge $-1 $492 $673 $672 $818 reversed $328 $-1 #
coedge $-1 $500 $495 $492 $676 forward $501 $-1 #
edge $-1 $679 -38.16246620148307 $819 -28.717356662860475 $675 $820 forward 7 unknown #
coedge $-1 $494 $493 $682 $821 reversed $207 $-1 #
edge $-1 $822 1.2396895063794389e-014 $679 16.467046292899365 $673 $823 forward 7 unknown #
vertex $-1 $496 $824 #
straight-curve $-1 9.4092059577990064 -18.633781573035371 13.62914943277036 -1 0 0 I I #
coedge $-1 $672 $497 $500 $686 reversed $490 $-1 #
coedge $-1 $497 $672 $677 $821 forward $490 $-1 #
vertex $-1 $498 $825 #
straight-curve $-1 26.372324396430002 -28.07889111165796 30.008701651960557 0 0 1 I I #
straight-curve $-1 26.372324396430002 -28.078891111657967 0.14013466460026081 0 -0.57357642473473569 -0.81915205242281985 I I #
edge $-1 $819 11.264499434766021 $502 26.372324396430002 $681 $826 forward 7 unknown #
point $-1 26.372324396430002 -28.07889111165796 13.62914943277036 #
point $-1 26.372324396430002 -18.633781573035368 13.62914943277036 #
edge $-1 $827 1 $827 0 $505 $-1 forward 7 unknown #
vertex $-1 $506 $828 #
ellipse-curve $-1 14.286064427098815 -21.216096298643471 5.386029881737155 0 -0.81915205242281985 0.57357642473473569 1 0 0 1 I I #
point $-1 15.286064427098815 -23.356336342346662 6.8846420486853104 #
edge $-1 $829 1 $829 0 $509 $-1 forward 7 unknown #
vertex $-1 $510 $830 #
ellipse-curve $-1 18.818411915598013 -21.216096298643471 5.386029881737155 0 -0.81915205242281985 0.57357642473473569 1 0 0 1 I I #
point $-1 19.818411915598013 -23.356336342346662 6.8846420486853104 #
edge $-1 $831 1 $831 0 $513 $-1 forward 7 unknown #
vertex $-1 $514 $832 #
ellipse-curve $-1 23.350759404097211 -21.216096298643471 5.386029881737155 0 -0.81915205242281985 0.57357642473473569 1 0 0 1 I I #
point $-1 24.350759404097211 -23.356336342346662 6.8846420486853104 #
plane-surface $-1 0 0 13.62914943277036 0 0 1 1 0 0 forward_v I I I I #
coedge $-1 $712 $711 $704 $833 forward $518 $-1 #
coedge $-1 $704 $520 $522 $708 reversed $357 $-1 #
coedge $-1 $520 $703 $702 $833 reversed $357 $-1 #
coedge $-1 $528 $523 $520 $706 forward $529 $-1 #
edge $-1 $709 -38.16246620148307 $834 -28.717356662860475 $705 $835 forward 7 unknown #
coedge $-1 $522 $521 $712 $836 reversed $226 $-1 #
edge $-1 $837 1.2396895063794389e-014 $709 16.467046292899365 $703 $838 forward 7 unknown #
vertex $-1 $524 $839 #
straight-curve $-1 20.701648599316496 -18.633781573035371 13.62914943277036 -1 0 0 I I #
coedge $-1 $702 $525 $528 $716 reversed $518 $-1 #
coedge $-1 $525 $702 $707 $836 forward $518 $-1 #
vertex $-1 $526 $840 #
straight-curve $-1 48.957209679464981 -28.07889111165796 30.008701651960557 0 0 1 I I #
straight-curve $-1 48.957209679464981 -28.078891111657967 0.14013466460026081 0 -0.57357642473473569 -0.81915205242281985 I I #
edge $-1 $834 33.849384717801001 $530 48.957209679464981 $711 $841 forward 7 unknown #
point $-1 48.957209679464981 -28.07889111165796 13.62914943277036 #
point $-1 48.957209679464981 -18.633781573035368 13.62914943277036 #
edge $-1 $842 1 $842 0 $533 $-1 forward 7 unknown #
vertex $-1 $534 $843 #
ellipse-curve $-1 36.870949710133793 -21.216096298643471 5.386029881737155 0 -0.81915205242281985 0.57357642473473569 1 0 0 1 I I #
point $-1 37.870949710133793 -23.356336342346662 6.8846420486853104 #
edge $-1 $844 1 $844 0 $537 $-1 forward 7 unknown #
vertex $-1 $538 $845 #
ellipse-curve $-1 41.403297198632991 -21.216096298643471 5.386029881737155 0 -0.81915205242281985 0.57357642473473569 1 0 0 1 I I #
point $-1 42.403297198632991 -23.356336342346662 6.8846420486853104 #
edge $-1 $846 1 $846 0 $541 $-1 forward 7 unknown #
vertex $-1 $542 $847 #
ellipse-curve $-1 45.935644687132189 -21.216096298643471 5.386029881737155 0 -0.81915205242281985 0.57357642473473569 1 0 0 1 I I #
point $-1 46.935644687132189 -23.356336342346662 6.8846420486853104 #
loop $-1 $-1 $553 $545 #
plane-surface $-1 0 28.07889111165796 0 0 -1 0 0 0 -1 forward_v I I I I #
coedge $-1 $734 $548 $550 $738 reversed $386 $-1 #
coedge $-1 $548 $733 $848 $849 reversed $386 $-1 #
coedge $-1 $556 $551 $548 $736 forward $546 $-1 #
edge $-1 $739 -16.658702259942608 $850 -12.61196668851975 $735 $851 forward 7 unknown #
coedge $-1 $550 $549 $742 $852 reversed $245 $-1 #
edge $-1 $853 -56.157782223315934 $739 -49.102513915706581 $733 $854 forward 7 unknown #
vertex $-1 $552 $855 #
straight-curve $-1 7.4461392178421981 24.032155540235095 13.629149432770365 1 0 0 I I #
coedge $-1 $848 $553 $556 $746 reversed $731 $-1 #
coedge $-1 $553 $848 $737 $852 forward $731 $-1 #
vertex $-1 $554 $856 #
straight-curve $-1 8.5573170221776849 28.07889111165796 56.864421562631165 0 0 1 I I #
straight-curve $-1 8.5573170221776849 -4.1318888370234816 53.851574485941477 0 0.57357642473473569 -0.81915205242281985 I I #
edge $-1 $850 -21.227239849191108 $557 -8.5573170221776849 $741 $857 forward 7 unknown #
point $-1 8.5573170221776849 28.07889111165796 13.62914943277036 #
point $-1 8.5573170221776849 24.032155540235102 13.629149432770362 #
edge $-1 $858 1 $858 0 $560 $-1 forward 7 unknown #
vertex $-1 $561 $859 #
ellipse-curve $-1 14.892278435684396 23.791536748856316 9.1542202556465639 0 0.81915205242281985 0.57357642473473569 1 0 0 1 I I #
point $-1 15.892278435684396 26.055523325946538 10.739480675484423 #
plane-surface $-1 52.196417126987519 0 0 -1 0 0 0 0 1 forward_v I I I I #
coedge $-1 $567 $763 $570 $757 reversed $401 $-1 #
vertex $-1 $757 $860 #
straight-curve $-1 -52.196417126987519 -28.07889111165796 0 0 0 -1 I I #
edge $-1 $755 -28.07889111165796 $759 28.07889111165796 $754 $861 forward 7 unknown #
straight-curve $-1 0 -28.07889111165796 -13.62914943277036 -1 0 0 I I #
vertex $-1 $573 $862 #
straight-curve $-1 0 28.07889111165796 -13.62914943277036 1 0 0 I I #
point $-1 52.196417126987519 28.07889111165796 -13.62914943277036 #
point $-1 52.196417126987519 -28.07889111165796 -13.62914943277036 #
coedge $-1 $754 $577 $580 $765 forward $401 $-1 #
straight-curve $-1 -52.196417126987519 0 13.62914943277036 0 -1 0 I I #
edge $-1 $581 -13.62914943277036 $759 13.62914943277036 $580 $863 forward 7 unknown #
point $-1 -52.196417126987519 28.07889111165796 13.62914943277036 #
point $-1 -52.196417126987519 -28.07889111165796 13.62914943277036 #
straight-curve $-1 52.196417126987519 -28.07889111165796 0 0 0 -1 I I #
straight-curve $-1 52.196417126987519 28.07889111165796 0 0 0 -1 I I #
plane-surface $-1 0 -28.07889111165796 0 0 1 0 0 0 1 forward_v I I I I #
coedge $-1 $864 $593 $774 $865 reversed $420 $-1 #
coedge $-1 $593 $864 $607 $785 reversed $420 $-1 #
edge $-1 $777 -3.512416528367849 $775 3.512416528367849 $594 $866 forward 7 unknown #
coedge $-1 $595 $780 $771 $865 forward $591 $-1 #
vertex $-1 $596 $867 #
straight-curve $-1 0 28.07889111165796 -13.62914943277036 1 0 0 I I #
vertex $-1 $597 $868 #
straight-curve $-1 -59.223063687905075 28.07889111165796 -6.6043163760346619 -1 0 0 I I #
point $-1 -52.196417126987519 28.07889111165796 -13.62914943277036 #
coedge $-1 $774 $600 $603 $783 forward $591 $-1 #
straight-curve $-1 -52.196417126987519 0 -13.62914943277036 0 -1 0 I I #
coedge $-1 $603 $602 $864 $869 forward $604 $-1 #
edge $-1 $605 -7.0266465609175555 $870 7.0266465609175484 $603 $871 forward 7 unknown #
point $-1 -52.196417126987519 -28.07889111165796 -13.62914943277036 #
edge $-1 $777 -28.07889111165796 $786 28.07889111165796 $772 $872 forward 7 unknown #
vertex $-1 $785 $873 #
straight-curve $-1 -59.223063687905075 -28.07889111165796 -6.6043163760346619 1 0 0 I I #
edge $-1 $789 16.379552219190195 $792 29.868566987360285 $612 $874 forward 7 unknown #
vertex $-1 $626 $875 #
straight-curve $-1 -33.905271131303934 -56.796247774518434 13.629149432770362 0 -1 0 I I #
edge $-1 $792 -20.729591806067962 $623 -5.6217668444039823 $622 $876 forward 7 unknown #
vertex $-1 $791 $877 #
straight-curve $-1 -33.905271131303934 -28.078891111657967 0.14013466460026081 0 0.57357642473473569 0.81915205242281985 I I #
point $-1 -33.905271131303934 -18.633781573035368 13.62914943277036 #
point $-1 -18.797446169639954 -28.07889111165796 0.14013466460027096 #
straight-curve $-1 0 -28.07889111165796 13.62914943277036 1 0 0 I I #
vertex $-1 $629 $878 #
point $-1 -29.883706138971142 -21.216096298643471 5.386029881737155 #
vertex $-1 $633 $879 #
point $-1 -25.351358650471948 -21.216096298643471 5.386029881737155 #
vertex $-1 $637 $880 #
point $-1 -20.819011161972753 -21.216096298643471 5.386029881737155 #
edge $-1 $804 16.379552219190195 $807 29.868566987360285 $642 $881 forward 7 unknown #
vertex $-1 $656 $882 #
straight-curve $-1 -11.320385848268957 -56.796247774518434 13.629149432770362 0 -1 0 I I #
edge $-1 $807 -9.4371491645504744 $653 5.6706757971135087 $652 $883 forward 7 unknown #
vertex $-1 $806 $884 #
straight-curve $-1 -11.320385848268957 -28.078891111657967 0.14013466460026081 0 0.57357642473473569 0.81915205242281985 I I #
point $-1 -11.320385848268957 -18.633781573035368 13.62914943277036 #
point $-1 3.7874391133950258 -28.07889111165796 0.14013466460027096 #
straight-curve $-1 0 -28.07889111165796 13.62914943277036 1 0 0 I I #
vertex $-1 $659 $885 #
point $-1 -7.2988208559361638 -21.216096298643471 5.386029881737155 #
vertex $-1 $663 $886 #
point $-1 -2.7664733674369657 -21.216096298643471 5.386029881737155 #
vertex $-1 $667 $887 #
point $-1 1.7658741210622324 -21.216096298643471 5.386029881737155 #
edge $-1 $819 16.379552219190195 $822 29.868566987360285 $672 $888 forward 7 unknown #
vertex $-1 $686 $889 #
straight-curve $-1 11.264499434766021 -56.796247774518434 13.629149432770362 0 -1 0 I I #
edge $-1 $822 1.8552934769670149 $683 16.963118438630996 $682 $890 forward 7 unknown #
vertex $-1 $821 $891 #
straight-curve $-1 11.264499434766021 -28.078891111657967 0.14013466460026081 0 0.57357642473473569 0.81915205242281985 I I #
point $-1 11.264499434766021 -18.633781573035368 13.62914943277036 #
point $-1 26.372324396430002 -28.07889111165796 0.14013466460027096 #
straight-curve $-1 0 -28.07889111165796 13.62914943277036 1 0 0 I I #
vertex $-1 $689 $892 #
point $-1 15.286064427098815 -21.216096298643471 5.386029881737155 #
vertex $-1 $693 $893 #
point $-1 19.818411915598013 -21.216096298643471 5.386029881737155 #
vertex $-1 $697 $894 #
point $-1 24.350759404097211 -21.216096298643471 5.386029881737155 #
edge $-1 $834 16.379552219190195 $837 29.868566987360285 $702 $895 forward 7 unknown #
vertex $-1 $716 $896 #
straight-curve $-1 33.849384717801001 -56.796247774518434 13.629149432770362 0 -1 0 I I #
edge $-1 $837 13.147736118484506 $713 28.255561080148485 $712 $897 forward 7 unknown #
vertex $-1 $836 $898 #
straight-curve $-1 33.849384717801001 -28.078891111657967 0.14013466460026081 0 0.57357642473473569 0.81915205242281985 I I #
point $-1 33.849384717801001 -18.633781573035368 13.62914943277036 #
point $-1 48.957209679464981 -28.07889111165796 0.14013466460027096 #
straight-curve $-1 0 -28.07889111165796 13.62914943277036 1 0 0 I I #
vertex $-1 $719 $899 #
point $-1 37.870949710133793 -21.216096298643471 5.386029881737155 #
vertex $-1 $723 $900 #
point $-1 42.403297198632991 -21.216096298643471 5.386029881737155 #
vertex $-1 $727 $901 #
point $-1 46.935644687132189 -21.216096298643471 5.386029881737155 #
coedge $-1 $742 $741 $734 $849 forward $731 $-1 #
edge $-1 $850 43.235272129860803 $853 49.014609644432674 $848 $902 forward 7 unknown #
vertex $-1 $746 $903 #
straight-curve $-1 21.227239849191108 40.69085780017771 13.629149432770362 0 1 0 I I #
edge $-1 $853 -13.78110063134891 $743 -1.1111778043354867 $742 $904 forward 7 unknown #
vertex $-1 $852 $905 #
straight-curve $-1 21.227239849191108 -4.1318888370234816 53.851574485941477 0 -0.57357642473473569 0.81915205242281985 I I #
point $-1 21.227239849191108 24.032155540235102 13.629149432770362 #
point $-1 8.5573170221776849 28.07889111165796 7.8498119181984904 #
straight-curve $-1 0 28.07889111165796 13.62914943277036 -1 0 0 I I #
vertex $-1 $749 $906 #
point $-1 15.892278435684396 23.791536748856316 9.1542202556465639 #
point $-1 -52.196417126987519 -28.07889111165796 -13.62914943277036 #
straight-curve $-1 -52.196417126987519 0 -13.62914943277036 0 1 0 I I #
point $-1 -52.196417126987519 28.07889111165796 -13.62914943277036 #
straight-curve $-1 -52.196417126987519 28.07889111165796 0 0 0 -1 I I #
coedge $-1 $772 $771 $782 $869 reversed $420 $-1 #
edge $-1 $870 -28.07889111165796 $775 28.07889111165796 $771 $907 forward 7 unknown #
straight-curve $-1 -66.249710248822623 28.07889111165796 -10.116732904402511 0 0 -1 I I #
point $-1 -66.249710248822623 28.07889111165796 -13.62914943277036 #
point $-1 -66.249710248822623 28.07889111165796 -6.6043163760346619 #
edge $-1 $786 -3.512416528367849 $870 3.512416528367849 $864 $908 forward 7 unknown #
vertex $-1 $865 $909 #
straight-curve $-1 -59.223063687905075 -28.07889111165796 -13.62914943277036 -1 0 0 I I #
straight-curve $-1 -66.249710248822623 0 -6.6043163760346619 0 -1 0 I I #
point $-1 -66.249710248822623 -28.07889111165796 -6.6043163760346619 #
straight-curve $-1 -33.905271131303934 -28.07889111165796 30.008701651960557 0 0 -1 I I #
point $-1 -33.905271131303934 -28.07889111165796 13.62914943277036 #
straight-curve $-1 -13.175679325235972 -28.07889111165796 0.14013466460027141 1 0 0 I I #
point $-1 -33.905271131303934 -28.07889111165796 0.14013466460027096 #
point $-1 -30.883706138971142 -20.396944246220649 4.8124534570024196 #
point $-1 -26.351358650471948 -20.396944246220649 4.8124534570024196 #
point $-1 -21.819011161972753 -20.396944246220649 4.8124534570024196 #
straight-curve $-1 -11.320385848268957 -28.07889111165796 30.008701651960557 0 0 -1 I I #
point $-1 -11.320385848268957 -28.07889111165796 13.62914943277036 #
straight-curve $-1 -1.8832366837184829 -28.07889111165796 0.14013466460027141 1 0 0 I I #
point $-1 -11.320385848268957 -28.07889111165796 0.14013466460027096 #
point $-1 -8.2988208559361638 -20.396944246220649 4.8124534570024196 #
point $-1 -3.7664733674369657 -20.396944246220649 4.8124534570024196 #
point $-1 0.7658741210622324 -20.396944246220649 4.8124534570024196 #
straight-curve $-1 11.264499434766021 -28.07889111165796 30.008701651960557 0 0 -1 I I #
point $-1 11.264499434766021 -28.07889111165796 13.62914943277036 #
straight-curve $-1 9.4092059577990064 -28.07889111165796 0.14013466460027141 1 0 0 I I #
point $-1 11.264499434766021 -28.07889111165796 0.14013466460027096 #
point $-1 14.286064427098815 -20.396944246220649 4.8124534570024196 #
point $-1 18.818411915598013 -20.396944246220649 4.8124534570024196 #
point $-1 23.350759404097211 -20.396944246220649 4.8124534570024196 #
straight-curve $-1 33.849384717801001 -28.07889111165796 30.008701651960557 0 0 -1 I I #
point $-1 33.849384717801001 -28.07889111165796 13.62914943277036 #
straight-curve $-1 20.701648599316496 -28.07889111165796 0.14013466460027141 1 0 0 I I #
point $-1 33.849384717801001 -28.07889111165796 0.14013466460027096 #
point $-1 36.870949710133793 -20.396944246220649 4.8124534570024196 #
point $-1 41.403297198632991 -20.396944246220649 4.8124534570024196 #
point $-1 45.935644687132189 -20.396944246220649 4.8124534570024196 #
straight-curve $-1 21.227239849191108 28.07889111165796 56.864421562631165 0 0 -1 I I #
point $-1 21.227239849191108 28.07889111165796 13.62914943277036 #
straight-curve $-1 7.4461392178421981 28.078891111657963 7.849811918198494 -1 0 0 I I #
point $-1 21.227239849191108 28.07889111165796 7.8498119181984904 #
point $-1 14.892278435684396 22.972384696433494 8.5806438309118285 #
straight-curve $-1 -66.249710248822623 0 -13.62914943277036 0 1 0 I I #
straight-curve $-1 -66.249710248822623 -28.07889111165796 -10.116732904402511 0 0 -1 I I #
point $-1 -66.249710248822623 -28.07889111165796 -13.62914943277036 #
End-of-ACIS-data 