600 0 7 0           
108 GICL ACIS Healer - Source: /gicl/data5/repository/Drexel/CICIRELLO-THESISDATA/Part10009.smdg.delta.sat - 6 0 18 ACIS 6.0.3 Solaris 24 Fri Apr 12 10:21:22 2002 
1 9.999999999999999547e-07 1.000000000000000036e-10 
body $-1 $7 $-1 $-1 #
body $-1 $8 $-1 $-1 #
body $-1 $9 $-1 $-1 #
body $-1 $10 $-1 $-1 #
body $-1 $11 $-1 $-1 #
body $-1 $12 $-1 $-1 #
body $-1 $13 $-1 $-1 #
lump $-1 $-1 $14 $0 #
lump $-1 $-1 $15 $1 #
lump $-1 $-1 $16 $2 #
lump $-1 $-1 $17 $3 #
lump $-1 $-1 $18 $4 #
lump $-1 $-1 $19 $5 #
lump $-1 $-1 $20 $6 #
shell $-1 $-1 $-1 $21 $-1 $7 #
shell $-1 $-1 $-1 $22 $-1 $8 #
shell $-1 $-1 $-1 $23 $-1 $9 #
shell $-1 $-1 $-1 $24 $-1 $10 #
shell $-1 $-1 $-1 $25 $-1 $11 #
shell $-1 $-1 $-1 $26 $-1 $12 #
shell $-1 $-1 $-1 $27 $-1 $13 #
face $-1 $28 $29 $14 $-1 $30 forward single #
face $-1 $31 $32 $15 $-1 $33 forward single #
face $-1 $34 $35 $16 $-1 $36 reversed single #
face $-1 $37 $38 $17 $-1 $39 reversed single #
face $-1 $40 $41 $18 $-1 $42 forward single #
face $-1 $43 $44 $19 $-1 $45 reversed single #
face $-1 $46 $47 $20 $-1 $48 forward single #
face $-1 $49 $50 $14 $-1 $51 reversed single #
loop $-1 $-1 $52 $21 #
plane-surface $-1 64.31104464857936875 31.31922555849606127 22.6669872211255985 0 0 1 1 0 0 forward_v I I I I #
face $-1 $53 $54 $15 $-1 $55 forward single #
loop $-1 $-1 $56 $22 #
plane-surface $-1 64.31104464857936875 0 11.33349361056279925 0 1 0 0 0 1 forward_v I I I I #
face $-1 $57 $58 $16 $-1 $59 reversed single #
loop $-1 $-1 $60 $23 #
plane-surface $-1 64.31104464857936875 57.58475130244022466 16.46263706128327797 0 0 1 1 0 0 forward_v I I I I #
face $-1 $61 $62 $17 $-1 $63 reversed single #
loop $-1 $-1 $64 $24 #
plane-surface $-1 106.4541668047014156 42.69256596900704182 199.3040793733410112 0 -1 0 -0.6156614830463592591 0 -0.788010747574649173 forward_v I I I I #
face $-1 $65 $66 $18 $-1 $67 forward single #
loop $-1 $68 $69 $25 #
cone-surface $-1 125.0509908615333359 38.52925048893491322 19.34274497601434462 -0.6156614830463592591 0 -0.788010747574649173 0.788010747574649173 0 -0.6156614830463592591 1 I I 0 1 1 forward I I I I #
face $-1 $70 $71 $19 $-1 $72 reversed single #
loop $-1 $-1 $73 $26 #
plane-surface $-1 -79.18766624921001096 34.36593500886278463 120.1164131241310287 0 1 0 -0.6156614830463592591 0 0.788010747574649173 forward_v I I I I #
face $-1 $74 $75 $20 $-1 $76 forward single #
loop $-1 $77 $78 $27 #
cone-surface $-1 3.571098435625415846 38.52925048893491322 19.34274497601435883 0.6156614830463592591 0 -0.788010747574649173 0.788010747574649173 0 0.6156614830463592591 1 I I 0 1 1 forward I I I I #
face $-1 $79 $80 $14 $-1 $81 reversed single #
loop $-1 $-1 $82 $28 #
plane-surface $-1 64.31104464857936875 31.31922555849606127 0 0 0 1 1 0 0 forward_v I I I I #
coedge $-1 $83 $84 $85 $86 forward $29 $-1 #
face $-1 $87 $88 $15 $-1 $89 reversed single #
loop $-1 $-1 $90 $31 #
plane-surface $-1 64.31104464857936875 31.31922555849606127 22.6669872211255985 0 0 1 1 0 0 forward_v I I I I #
coedge $-1 $91 $92 $93 $94 forward $32 $-1 #
face $-1 $95 $96 $16 $-1 $97 reversed single #
loop $-1 $-1 $98 $34 #
plane-surface $-1 64.31104464857936875 52.5310514878883339 19.56481214120443823 0 1 0 0 0 1 forward_v I I I I #
coedge $-1 $99 $100 $101 $102 reversed $35 $-1 #
face $-1 $103 $104 $17 $-1 $105 reversed single #
loop $-1 $-1 $106 $37 #
plane-surface $-1 27.26650055549141882 38.52925048893491322 97.9484906316736641 0.6156614830463592591 0 0.788010747574649173 0.788010747574649173 0 -0.6156614830463592591 forward_v I I I I #
coedge $-1 $107 $108 $109 $110 reversed $38 $-1 #
face $-1 $-1 $111 $18 $-1 $112 forward single #
loop $-1 $113 $114 $40 #
cone-surface $-1 123.6718918535643468 38.52925048893491322 17.57757877644674238 -0.6156614830463592591 0 -0.788010747574649173 0.3940053737873245865 0 -0.3078307415231796296 1 I I -0.7071067811865474617 0.7071067811865474617 0.5 forward I I I I #
loop $-1 $-1 $115 $25 #
coedge $-1 $69 $69 $116 $117 reversed $41 $-1 #
face $-1 $118 $119 $19 $-1 $120 reversed single #
loop $-1 $-1 $121 $43 #
plane-surface $-1 -1.421085471520200372e-14 38.52925048893491322 18.76082438246369577 -0.6156614830463592591 0 0.788010747574649173 0.788010747574649173 0 0.6156614830463592591 forward_v I I I I #
coedge $-1 $122 $123 $124 $125 reversed $44 $-1 #
face $-1 $-1 $126 $20 $-1 $127 forward single #
loop $-1 $128 $129 $46 #
cone-surface $-1 4.950197443594397839 38.52925048893491322 17.57757877644675304 0.6156614830463592591 0 -0.788010747574649173 0.3940053737873245865 0 0.3078307415231796296 1 I I -0.7071067811865474617 0.7071067811865474617 0.5 forward I I I I #
loop $-1 $-1 $130 $27 #
coedge $-1 $78 $78 $131 $132 reversed $47 $-1 #
face $-1 $133 $134 $14 $-1 $135 reversed single #
loop $-1 $-1 $136 $49 #
plane-surface $-1 64.31104464857936875 0 11.33349361056279925 0 1 0 0 0 1 forward_v I I I I #
coedge $-1 $137 $138 $139 $140 forward $50 $-1 #
coedge $-1 $141 $52 $142 $143 forward $29 $-1 #
coedge $-1 $52 $141 $144 $145 forward $29 $-1 #
coedge $-1 $146 $147 $52 $86 reversed $148 $-1 #
edge $-1 $149 -31.31922555849606127 $150 31.31922555849606127 $85 $151 forward 7 unknown #
face $-1 $152 $153 $15 $-1 $154 reversed single #
loop $-1 $-1 $155 $53 #
plane-surface $-1 0 31.31922555849606127 11.33349361056279925 1 0 0 0 0 -1 forward_v I I I I #
coedge $-1 $156 $157 $92 $158 forward $54 $-1 #
coedge $-1 $159 $56 $160 $161 reversed $32 $-1 #
coedge $-1 $56 $159 $90 $158 reversed $32 $-1 #
coedge $-1 $162 $163 $56 $94 reversed $164 $-1 #
edge $-1 $165 -11.33349361056279925 $166 11.33349361056279925 $93 $167 forward 7 unknown #
face $-1 $168 $169 $16 $-1 $170 reversed single #
loop $-1 $-1 $171 $57 #
plane-surface $-1 64.31104464857936875 62.63845111699212254 11.33349361056279925 0 -1 0 0 0 -1 forward_v I I I I #
coedge $-1 $172 $173 $174 $175 reversed $58 $-1 #
coedge $-1 $176 $60 $172 $177 forward $35 $-1 #
coedge $-1 $60 $176 $171 $178 reversed $35 $-1 #
coedge $-1 $179 $180 $60 $102 forward $181 $-1 #
edge $-1 $182 8.079063057420192706 $183 18.18646268652397424 $101 $184 forward 7 unknown #
face $-1 $185 $186 $17 $-1 $187 reversed single #
loop $-1 $-1 $188 $61 #
plane-surface $-1 106.4541668047014156 34.36593500886278463 199.3040793733410112 0 1 0 0.6156614830463592591 0 0.788010747574649173 forward_v I I I I #
coedge $-1 $189 $190 $191 $192 reversed $62 $-1 #
coedge $-1 $108 $64 $193 $194 reversed $38 $-1 #
coedge $-1 $64 $107 $189 $195 reversed $38 $-1 #
coedge $-1 $191 $196 $64 $110 forward $197 $-1 #
edge $-1 $198 -43.23948357051834535 $199 -38.23982323215913937 $109 $200 forward 7 unknown #
loop $-1 $-1 $116 $65 #
plane-surface $-1 27.26650055549141882 38.52925048893491322 97.9484906316736641 0.6156614830463592591 0 0.788010747574649173 0.788010747574649173 0 -0.6156614830463592591 forward_v I I I I #
loop $-1 $-1 $201 $40 #
coedge $-1 $114 $114 $115 $202 reversed $66 $-1 #
coedge $-1 $115 $115 $114 $202 forward $68 $-1 #
coedge $-1 $116 $116 $69 $117 forward $111 $-1 #
edge $-1 $203 0 $203 6.283185307179586232 $116 $204 forward 7 unknown #
face $-1 $205 $206 $19 $-1 $207 forward single #
loop $-1 $-1 $208 $70 #
plane-surface $-1 -79.18766624921001096 42.69256596900704182 120.1164131241310287 0 -1 0 0.6156614830463592591 0 -0.788010747574649173 forward_v I I I I #
coedge $-1 $209 $210 $211 $212 reversed $71 $-1 #
coedge $-1 $123 $73 $213 $214 reversed $44 $-1 #
coedge $-1 $73 $122 $209 $215 reversed $44 $-1 #
coedge $-1 $211 $216 $73 $125 forward $206 $-1 #
edge $-1 $217 7.438310800315321103 $218 12.43797113867449156 $124 $219 forward 7 unknown #
loop $-1 $-1 $131 $74 #
plane-surface $-1 -1.421085471520200372e-14 38.52925048893491322 18.76082438246369577 -0.6156614830463592591 0 0.788010747574649173 0.788010747574649173 0 0.6156614830463592591 forward_v I I I I #
loop $-1 $-1 $220 $46 #
coedge $-1 $129 $129 $130 $221 reversed $75 $-1 #
coedge $-1 $130 $130 $129 $221 forward $77 $-1 #
coedge $-1 $131 $131 $78 $132 forward $126 $-1 #
edge $-1 $222 0 $222 6.283185307179586232 $131 $223 forward 7 unknown #
face $-1 $224 $225 $14 $-1 $226 reversed single #
loop $-1 $-1 $227 $79 #
plane-surface $-1 0 31.31922555849606127 11.33349361056279925 1 0 0 0 0 -1 forward_v I I I I #
coedge $-1 $228 $144 $229 $230 forward $80 $-1 #
coedge $-1 $231 $82 $228 $232 forward $50 $-1 #
coedge $-1 $82 $231 $233 $234 forward $50 $-1 #
coedge $-1 $147 $146 $82 $140 reversed $148 $-1 #
edge $-1 $235 -31.31922555849606127 $236 31.31922555849606127 $139 $237 forward 7 unknown #
coedge $-1 $84 $83 $238 $239 forward $29 $-1 #
coedge $-1 $240 $241 $83 $143 reversed $225 $-1 #
edge $-1 $150 -64.31104464857936875 $242 64.31104464857936875 $142 $243 forward 7 unknown #
coedge $-1 $136 $244 $84 $145 reversed $80 $-1 #
edge $-1 $245 -64.31104464857936875 $149 64.31104464857936875 $144 $246 forward 7 unknown #
coedge $-1 $139 $85 $244 $247 forward $148 $-1 #
coedge $-1 $85 $139 $240 $248 reversed $148 $-1 #
loop $-1 $-1 $146 $224 #
vertex $-1 $86 $249 #
vertex $-1 $86 $250 #
straight-curve $-1 128.6220892971587375 31.31922555849606127 22.6669872211255985 0 1 0 I I #
face $-1 $251 $164 $15 $-1 $252 reversed single #
loop $-1 $-1 $253 $87 #
plane-surface $-1 1.5 -14.44018590068184338 11.33349361056279925 0 1 0 0 0 1 forward_v I I I I #
coedge $-1 $254 $255 $159 $256 forward $88 $-1 #
coedge $-1 $257 $90 $255 $258 forward $54 $-1 #
coedge $-1 $90 $257 $162 $259 forward $54 $-1 #
edge $-1 $165 61.31104464857936875 $260 64.31104464857936875 $90 $261 forward 7 unknown #
coedge $-1 $92 $91 $155 $256 reversed $32 $-1 #
coedge $-1 $262 $263 $91 $161 forward $264 $-1 #
edge $-1 $265 -64.31104464857936875 $166 -61.31104464857936875 $160 $266 forward 7 unknown #
coedge $-1 $267 $93 $157 $259 reversed $164 $-1 #
coedge $-1 $93 $267 $262 $268 reversed $164 $-1 #
loop $-1 $-1 $267 $152 #
vertex $-1 $158 $269 #
vertex $-1 $268 $270 #
straight-curve $-1 3 0 11.33349361056279925 0 0 -1 I I #
face $-1 $271 $272 $16 $-1 $273 forward single #
loop $-1 $-1 $274 $95 #
plane-surface $-1 0 31.31922555849606127 11.33349361056279925 1 0 0 0 0 -1 forward_v I I I I #
coedge $-1 $275 $276 $100 $178 forward $96 $-1 #
coedge $-1 $277 $98 $99 $177 reversed $58 $-1 #
coedge $-1 $98 $277 $278 $279 reversed $58 $-1 #
coedge $-1 $280 $274 $98 $175 forward $169 $-1 #
edge $-1 $281 1.013484185399658344 $282 7.217834345241978866 $174 $283 forward 7 unknown #
coedge $-1 $100 $99 $274 $284 reversed $35 $-1 #
edge $-1 $182 -64.31104464857936875 $281 64.31104464857936875 $172 $285 forward 7 unknown #
edge $-1 $183 -64.31104464857936875 $286 64.31104464857936875 $171 $287 forward 7 unknown #
coedge $-1 $288 $101 $276 $289 reversed $181 $-1 #
coedge $-1 $101 $288 $277 $290 forward $181 $-1 #
loop $-1 $-1 $101 $271 #
vertex $-1 $102 $291 #
vertex $-1 $178 $292 #
straight-curve $-1 128.6220892971587375 44.45198843046814119 16.46263706128327797 0 1 0 I I #
face $-1 $-1 $197 $17 $-1 $293 forward single #
loop $-1 $-1 $294 $103 #
plane-surface $-1 128.6220892971587375 31.31922555849606127 11.33349361056279925 -1 0 0 0 0 1 forward_v I I I I #
coedge $-1 $295 $296 $297 $298 reversed $104 $-1 #
coedge $-1 $299 $106 $108 $195 forward $62 $-1 #
coedge $-1 $106 $299 $295 $300 forward $62 $-1 #
coedge $-1 $297 $109 $106 $192 forward $197 $-1 #
edge $-1 $199 -7.768327945291552794 $301 0.5583030148527043934 $191 $302 forward 7 unknown #
coedge $-1 $303 $304 $107 $194 forward $186 $-1 #
edge $-1 $305 -86.55796210948821567 $198 -82.65179927082630229 $193 $306 forward 7 unknown #
edge $-1 $199 122.2774292100377806 $305 128.6220892971587091 $108 $307 forward 7 unknown #
coedge $-1 $109 $297 $303 $308 forward $197 $-1 #
loop $-1 $-1 $297 $185 #
vertex $-1 $194 $309 #
vertex $-1 $110 $310 #
straight-curve $-1 85.38260572664039216 42.69256596900704182 22.66698722112559494 -1 0 0 I I #
coedge $-1 $201 $201 $-1 $311 reversed $113 $-1 #
edge $-1 $312 0 $312 6.283185307179586232 $114 $313 forward 7 unknown #
vertex $-1 $117 $314 #
ellipse-curve $-1 126.1222591279791345 38.52925048893491322 20.71390580179463825 0.6156614830463592591 0 0.788010747574649173 0.788010747574649173 0 -0.6156614830463592591 1 I I #
face $-1 $-1 $315 $19 $-1 $316 reversed single #
loop $-1 $-1 $124 $118 #
plane-surface $-1 64.31104464857936875 31.31922555849606127 22.6669872211255985 0 0 1 1 0 0 forward_v I I I I #
coedge $-1 $317 $318 $319 $320 reversed $119 $-1 #
coedge $-1 $321 $121 $123 $215 forward $71 $-1 #
coedge $-1 $121 $321 $317 $322 forward $71 $-1 #
coedge $-1 $319 $124 $121 $212 forward $206 $-1 #
edge $-1 $218 -0.5583030148527043934 $323 7.768327945291552794 $211 $324 forward 7 unknown #
coedge $-1 $325 $326 $122 $214 forward $315 $-1 #
edge $-1 $327 -46.96412898488320309 $217 -43.05796614622131813 $213 $328 forward 7 unknown #
edge $-1 $218 -6.34466008712090801 $327 -1.994738213711867049e-14 $123 $329 forward 7 unknown #
coedge $-1 $124 $319 $325 $330 forward $206 $-1 #
vertex $-1 $125 $331 #
vertex $-1 $125 $332 #
straight-curve $-1 -7.438310800315321103 34.36593500886278463 22.66698722112559494 1 0 0 I I #
coedge $-1 $220 $220 $-1 $333 reversed $128 $-1 #
edge $-1 $334 0 $334 6.283185307179586232 $129 $335 forward 7 unknown #
vertex $-1 $132 $336 #
ellipse-curve $-1 2.499830169179595885 38.52925048893491322 20.71390580179465957 -0.6156614830463592591 0 0.788010747574649173 0.788010747574649173 0 0.6156614830463592591 1 I I #
face $-1 $-1 $148 $14 $-1 $337 reversed single #
loop $-1 $-1 $240 $133 #
plane-surface $-1 64.31104464857936875 62.63845111699212254 11.33349361056279925 0 -1 0 0 0 -1 forward_v I I I I #
coedge $-1 $338 $238 $241 $339 forward $134 $-1 #
coedge $-1 $244 $136 $137 $232 reversed $80 $-1 #
coedge $-1 $238 $338 $136 $230 reversed $134 $-1 #
edge $-1 $245 -11.33349361056279925 $340 11.33349361056279925 $229 $341 forward 7 unknown #
coedge $-1 $138 $137 $338 $342 forward $50 $-1 #
edge $-1 $236 -64.31104464857936875 $340 64.31104464857936875 $228 $343 forward 7 unknown #
coedge $-1 $241 $240 $138 $234 reversed $225 $-1 #
edge $-1 $344 -64.31104464857936875 $235 64.31104464857936875 $233 $345 forward 7 unknown #
vertex $-1 $140 $346 #
vertex $-1 $247 $347 #
straight-curve $-1 128.6220892971587375 31.31922555849606127 0 0 -1 0 I I #
coedge $-1 $227 $229 $141 $239 reversed $134 $-1 #
edge $-1 $242 -31.31922555849606127 $245 31.31922555849606127 $238 $348 forward 7 unknown #
coedge $-1 $233 $142 $147 $248 forward $225 $-1 #
coedge $-1 $142 $233 $227 $339 reversed $225 $-1 #
vertex $-1 $143 $349 #
straight-curve $-1 64.31104464857936875 62.63845111699212254 22.6669872211255985 -1 0 0 I I #
coedge $-1 $144 $228 $146 $247 reversed $80 $-1 #
vertex $-1 $239 $350 #
straight-curve $-1 64.31104464857936875 0 22.6669872211255985 1 0 0 I I #
edge $-1 $149 -11.33349361056279925 $236 11.33349361056279925 $146 $351 forward 7 unknown #
edge $-1 $150 -11.33349361056279925 $235 11.33349361056279925 $147 $352 forward 7 unknown #
point $-1 128.6220892971587375 0 22.6669872211255985 #
point $-1 128.6220892971587375 62.63845111699212254 22.6669872211255985 #
face $-1 $-1 $264 $15 $-1 $353 reversed single #
plane-surface $-1 3 -7.220092950340923466 11.33349361056279925 -1 0 0 0 0 1 forward_v I I I I #
coedge $-1 $354 $355 $356 $357 forward $153 $-1 #
coedge $-1 $356 $155 $263 $358 reversed $88 $-1 #
coedge $-1 $155 $356 $156 $258 reversed $88 $-1 #
edge $-1 $260 -11.33349361056279925 $265 11.33349361056279925 $155 $359 forward 7 unknown #
coedge $-1 $157 $156 $355 $360 forward $54 $-1 #
edge $-1 $260 31.31922555849606127 $361 45.75941145917790465 $255 $362 forward 7 unknown #
edge $-1 $363 -7.220092950340919913 $165 7.220092950340919913 $162 $364 forward 7 unknown #
vertex $-1 $258 $365 #
straight-curve $-1 64.31104464857936875 0 22.6669872211255985 -1 0 0 I I #
coedge $-1 $366 $160 $163 $268 forward $264 $-1 #
coedge $-1 $160 $366 $254 $358 forward $264 $-1 #
loop $-1 $-1 $160 $251 #
vertex $-1 $256 $367 #
straight-curve $-1 64.31104464857936875 0 0 1 0 0 I I #
coedge $-1 $163 $162 $368 $369 forward $164 $-1 #
edge $-1 $166 -7.220092950340919913 $370 7.220092950340919913 $163 $371 forward 7 unknown #
point $-1 3 -3.552713678800500929e-15 22.6669872211255985 #
point $-1 3 -3.552713678800500929e-15 0 #
face $-1 $-1 $181 $16 $-1 $372 reversed single #
loop $-1 $-1 $278 $168 #
plane-surface $-1 64.31104464857936875 31.31922555849606127 22.6669872211255985 0 0 1 1 0 0 forward_v I I I I #
coedge $-1 $174 $373 $176 $284 forward $169 $-1 #
coedge $-1 $374 $171 $373 $375 reversed $96 $-1 #
coedge $-1 $171 $374 $179 $289 forward $96 $-1 #
coedge $-1 $173 $172 $180 $290 reversed $58 $-1 #
coedge $-1 $376 $377 $173 $279 forward $272 $-1 #
edge $-1 $282 -64.31104464857936875 $378 64.31104464857936875 $278 $379 forward 7 unknown #
coedge $-1 $373 $174 $377 $380 reversed $169 $-1 #
vertex $-1 $284 $381 #
vertex $-1 $175 $382 #
straight-curve $-1 0 52.5310514878883339 15.44915287588361963 0 0 1 I I #
edge $-1 $286 -18.18646268652397424 $281 -8.079063057420192706 $274 $383 forward 7 unknown #
straight-curve $-1 64.31104464857936875 52.5310514878883339 16.46263706128327797 -1 0 0 I I #
vertex $-1 $284 $384 #
straight-curve $-1 64.31104464857936875 62.63845111699212254 16.46263706128327797 -1 0 0 I I #
coedge $-1 $180 $179 $376 $385 reversed $181 $-1 #
edge $-1 $386 -11.33349361056279925 $183 -5.129143450720478725 $179 $387 forward 7 unknown #
edge $-1 $378 -7.217834345241978866 $182 -1.013484185399658344 $180 $388 forward 7 unknown #
point $-1 128.6220892971587375 52.5310514878883339 16.46263706128327797 #
point $-1 128.6220892971587375 62.63845111699211543 16.46263706128327797 #
plane-surface $-1 64.31104464857936875 31.31922555849606127 22.6669872211255985 0 0 1 1 0 0 forward_v I I I I #
coedge $-1 $304 $303 $296 $389 forward $186 $-1 #
coedge $-1 $296 $188 $190 $300 reversed $104 $-1 #
coedge $-1 $188 $295 $294 $389 reversed $104 $-1 #
coedge $-1 $196 $191 $188 $298 forward $197 $-1 #
edge $-1 $301 38.23982323215913937 $390 43.23948357051834535 $297 $391 forward 7 unknown #
coedge $-1 $190 $189 $304 $392 reversed $62 $-1 #
edge $-1 $393 -128.6220892971587091 $301 -122.2774292100377806 $295 $394 forward 7 unknown #
vertex $-1 $192 $395 #
straight-curve $-1 123.6224289587995457 34.92423802371548902 22.66698722112558784 0 -1 0 I I #
coedge $-1 $294 $193 $196 $308 reversed $186 $-1 #
coedge $-1 $193 $294 $299 $392 forward $186 $-1 #
vertex $-1 $194 $396 #
straight-curve $-1 128.6220892971587375 42.69256596900704182 105.3187864919518972 0 0 1 I I #
straight-curve $-1 27.26650055549141882 42.69256596900704182 97.9484906316736641 0.788010747574649173 0 -0.6156614830463592591 I I #
edge $-1 $390 3.04670945036672336 $198 11.37334041051098055 $303 $397 forward 7 unknown #
point $-1 128.6220892971587375 42.69256596900704182 22.6669872211255985 #
point $-1 123.6224289587995315 42.69256596900704182 22.66698722112559494 #
edge $-1 $398 1 $398 0 $201 $-1 forward 7 unknown #
vertex $-1 $202 $399 #
ellipse-curve $-1 123.979722595087523 38.52925048893491322 17.97158415023406519 0.6156614830463592591 0 0.788010747574649173 0.788010747574649173 0 -0.6156614830463592591 1 I I #
point $-1 126.9102698755537801 38.52925048893491322 20.09824431874826445 #
loop $-1 $-1 $213 $205 #
plane-surface $-1 0 31.31922555849606127 11.33349361056279925 1 0 0 0 0 -1 forward_v I I I I #
coedge $-1 $318 $208 $210 $322 reversed $119 $-1 #
coedge $-1 $208 $317 $400 $401 reversed $119 $-1 #
coedge $-1 $216 $211 $208 $320 forward $206 $-1 #
edge $-1 $323 -12.43797113867449156 $402 -7.438310800315321103 $319 $403 forward 7 unknown #
coedge $-1 $210 $209 $326 $404 reversed $71 $-1 #
edge $-1 $405 1.994738213711867049e-14 $323 6.34466008712090801 $317 $406 forward 7 unknown #
vertex $-1 $212 $407 #
straight-curve $-1 4.999660338359177558 34.92423802371548902 22.66698722112559494 0 1 0 I I #
coedge $-1 $400 $213 $216 $330 reversed $315 $-1 #
coedge $-1 $213 $400 $321 $404 forward $315 $-1 #
vertex $-1 $214 $408 #
straight-curve $-1 0 34.36593500886278463 65.72495336734691307 0 0 1 I I #
straight-curve $-1 -1.421085471520200372e-14 34.36593500886278463 18.76082438246369577 -0.788010747574649173 0 -0.6156614830463592591 I I #
edge $-1 $402 -11.37334041051098055 $217 -3.04670945036672336 $325 $409 forward 7 unknown #
point $-1 0 34.36593500886278463 22.6669872211255985 #
point $-1 4.999660338359170453 34.36593500886278463 22.6669872211255985 #
edge $-1 $410 1 $410 0 $220 $-1 forward 7 unknown #
vertex $-1 $221 $411 #
ellipse-curve $-1 4.642366702071221596 38.52925048893491322 17.9715841502340794 -0.6156614830463592591 0 0.788010747574649173 0.788010747574649173 0 0.6156614830463592591 1 I I #
point $-1 3.287840916754255716 38.52925048893491322 21.32956728484099784 #
plane-surface $-1 128.6220892971587375 31.31922555849606127 11.33349361056279925 -1 0 0 0 0 1 forward_v I I I I #
coedge $-1 $229 $227 $231 $342 reversed $134 $-1 #
edge $-1 $242 -11.33349361056279925 $344 11.33349361056279925 $241 $412 forward 7 unknown #
vertex $-1 $342 $413 #
straight-curve $-1 0 0 11.33349361056279925 0 0 -1 I I #
edge $-1 $340 -31.31922555849606127 $344 31.31922555849606127 $338 $414 forward 7 unknown #
straight-curve $-1 64.31104464857936875 0 0 -1 0 0 I I #
vertex $-1 $234 $415 #
straight-curve $-1 64.31104464857936875 62.63845111699212254 0 1 0 0 I I #
point $-1 128.6220892971587375 62.63845111699212254 0 #
point $-1 128.6220892971587375 0 0 #
straight-curve $-1 0 31.31922555849606127 22.6669872211255985 0 -1 0 I I #
point $-1 0 62.63845111699212254 22.6669872211255985 #
point $-1 0 0 22.6669872211255985 #
straight-curve $-1 128.6220892971587375 0 11.33349361056279925 0 0 -1 I I #
straight-curve $-1 128.6220892971587375 62.63845111699212254 11.33349361056279925 0 0 -1 I I #
plane-surface $-1 64.31104464857936875 31.31922555849606127 0 0 0 1 1 0 0 forward_v I I I I #
coedge $-1 $368 $253 $366 $416 reversed $153 $-1 #
coedge $-1 $253 $368 $257 $360 reversed $153 $-1 #
coedge $-1 $255 $254 $253 $357 reversed $88 $-1 #
edge $-1 $361 -11.33349361056279925 $417 11.33349361056279925 $356 $418 forward 7 unknown #
edge $-1 $417 -45.75941145917790465 $265 -31.31922555849606127 $254 $419 forward 7 unknown #
straight-curve $-1 0 0 11.33349361056279925 0 0 -1 I I #
edge $-1 $361 -1.5 $363 1.5 $355 $420 forward 7 unknown #
vertex $-1 $258 $421 #
straight-curve $-1 0 31.31922555849606127 22.6669872211255985 0 -1 0 I I #
vertex $-1 $259 $422 #
straight-curve $-1 3 -7.220092950340923466 22.6669872211255985 0 1 0 I I #
point $-1 0 0 22.6669872211255985 #
coedge $-1 $263 $262 $354 $416 forward $264 $-1 #
point $-1 0 0 0 #
coedge $-1 $355 $354 $267 $369 reversed $153 $-1 #
edge $-1 $363 -11.33349361056279925 $370 11.33349361056279925 $267 $423 forward 7 unknown #
vertex $-1 $369 $424 #
straight-curve $-1 3 -7.220092950340923466 0 0 -1 0 I I #
plane-surface $-1 128.6220892971587375 31.31922555849606127 11.33349361056279925 -1 0 0 0 0 1 forward_v I I I I #
coedge $-1 $274 $280 $275 $375 forward $169 $-1 #
coedge $-1 $276 $275 $425 $426 reversed $96 $-1 #
edge $-1 $427 -11.33349361056279925 $286 -5.129143450720478725 $275 $428 forward 7 unknown #
coedge $-1 $425 $278 $288 $385 forward $272 $-1 #
coedge $-1 $278 $425 $280 $380 forward $272 $-1 #
vertex $-1 $385 $429 #
straight-curve $-1 64.31104464857936875 52.5310514878883339 22.6669872211255985 1 0 0 I I #
edge $-1 $427 -31.31922555849606127 $282 -21.21182592939227263 $280 $430 forward 7 unknown #
point $-1 0 52.5310514878883339 16.46263706128327797 #
point $-1 0 52.5310514878883339 22.6669872211255985 #
straight-curve $-1 0 44.45198843046814119 16.46263706128327797 0 -1 0 I I #
point $-1 0 62.63845111699211543 16.46263706128327797 #
edge $-1 $378 21.21182592939227263 $386 31.31922555849606127 $288 $431 forward 7 unknown #
vertex $-1 $385 $432 #
straight-curve $-1 128.6220892971587375 62.63845111699212254 11.33349361056279925 0 0 -1 I I #
straight-curve $-1 128.6220892971587375 52.5310514878883339 15.44915287588361963 0 0 -1 I I #
edge $-1 $390 82.65179927082630229 $393 86.55796210948821567 $294 $433 forward 7 unknown #
vertex $-1 $308 $434 #
straight-curve $-1 85.38260572664039216 34.36593500886278463 22.66698722112559494 1 0 0 I I #
edge $-1 $393 -0.5583030148527043934 $305 7.768327945291552794 $304 $435 forward 7 unknown #
vertex $-1 $392 $436 #
straight-curve $-1 27.26650055549141882 34.36593500886278463 97.9484906316736641 -0.788010747574649173 0 0.6156614830463592591 I I #
point $-1 123.6224289587995315 34.36593500886278463 22.66698722112559494 #
point $-1 128.6220892971587375 42.69256596900704182 18.76082438246368156 #
straight-curve $-1 128.6220892971587375 31.31922555849606127 22.6669872211255985 0 1 0 I I #
vertex $-1 $311 $437 #
point $-1 124.7677333426621828 38.52925048893491322 17.3559226671877056 #
coedge $-1 $326 $325 $318 $401 forward $315 $-1 #
edge $-1 $402 43.05796614622131813 $405 46.96412898488320309 $400 $438 forward 7 unknown #
vertex $-1 $330 $439 #
straight-curve $-1 -7.438310800315321103 42.69256596900704182 22.66698722112559494 -1 0 0 I I #
edge $-1 $405 -7.768327945291552794 $327 0.5583030148527043934 $326 $440 forward 7 unknown #
vertex $-1 $404 $441 #
straight-curve $-1 -1.421085471520200372e-14 42.69256596900704182 18.76082438246369577 0.788010747574649173 0 0.6156614830463592591 I I #
point $-1 4.999660338359170453 42.69256596900704182 22.6669872211255985 #
point $-1 0 34.36593500886278463 18.76082438246370998 #
straight-curve $-1 0 31.31922555849606127 22.6669872211255985 0 -1 0 I I #
vertex $-1 $333 $442 #
point $-1 5.430377449645867216 38.52925048893491322 18.58724563328043899 #
straight-curve $-1 0 62.63845111699212254 11.33349361056279925 0 0 -1 I I #
point $-1 0 0 0 #
straight-curve $-1 0 31.31922555849606127 0 0 1 0 I I #
point $-1 0 62.63845111699212254 0 #
edge $-1 $370 -1.5 $417 1.5 $354 $443 forward 7 unknown #
vertex $-1 $358 $444 #
straight-curve $-1 0 -14.44018590068184338 11.33349361056279925 0 0 -1 I I #
straight-curve $-1 0 31.31922555849606127 0 0 1 0 I I #
straight-curve $-1 1.5 -14.44018590068184338 22.6669872211255985 1 0 0 I I #
point $-1 0 -14.44018590068184338 22.6669872211255985 #
point $-1 3 -14.44018590068184338 22.6669872211255985 #
straight-curve $-1 3 -14.44018590068184338 11.33349361056279925 0 0 -1 I I #
point $-1 3 -14.44018590068184338 0 #
coedge $-1 $377 $376 $374 $426 forward $272 $-1 #
edge $-1 $386 -64.31104464857936875 $427 64.31104464857936875 $374 $445 forward 7 unknown #
vertex $-1 $426 $446 #
straight-curve $-1 0 62.63845111699212254 11.33349361056279925 0 0 -1 I I #
point $-1 128.6220892971587375 52.5310514878883339 22.6669872211255985 #
straight-curve $-1 0 31.31922555849606127 22.6669872211255985 0 -1 0 I I #
straight-curve $-1 128.6220892971587375 31.31922555849606127 22.6669872211255985 0 1 0 I I #
point $-1 128.6220892971587375 62.63845111699212254 22.6669872211255985 #
straight-curve $-1 128.6220892971587375 34.36593500886278463 105.3187864919518972 0 0 -1 I I #
point $-1 128.6220892971587375 34.36593500886278463 22.6669872211255985 #
straight-curve $-1 128.6220892971587659 34.92423802371548902 18.76082438246367445 0 1 0 I I #
point $-1 128.6220892971587375 34.36593500886278463 18.76082438246368156 #
point $-1 123.3640611120411705 38.52925048893491322 17.18357340265941957 #
straight-curve $-1 0 42.69256596900704182 65.72495336734691307 0 0 -1 I I #
point $-1 0 42.69256596900704182 22.6669872211255985 #
straight-curve $-1 0 34.92423802371548902 18.76082438246371353 0 -1 0 I I #
point $-1 0 42.69256596900704182 18.76082438246370998 #
point $-1 5.258028185117574083 38.52925048893491322 17.18357340265942668 #
straight-curve $-1 1.5 -14.44018590068184338 0 -1 0 0 I I #
point $-1 0 -14.44018590068184338 0 #
straight-curve $-1 64.31104464857936875 62.63845111699212254 22.6669872211255985 -1 0 0 I I #
point $-1 0 62.63845111699212254 22.6669872211255985 #
End-of-ACIS-data 