500 0 11 0           
7 Unknown 11 ACIS 5.0 NT 24 Thu Mar 25 18:40:46 1999 
-1 9.9999999999999995e-007 1e-010 
body $-1 $11 $-1 $12 #
body $-1 $13 $-1 $14 #
body $-1 $15 $-1 $16 #
body $-1 $17 $-1 $18 #
body $-1 $19 $-1 $20 #
body $-1 $21 $-1 $22 #
body $-1 $23 $-1 $24 #
body $-1 $25 $-1 $26 #
body $-1 $27 $-1 $28 #
body $-1 $29 $-1 $30 #
body $-1 $31 $-1 $32 #
lump $-1 $-1 $33 $0 #
transform $-1 1 0 0 0 1 0 0 0 1 65.995666371654409 46.039263262523249 13.362303582239711 1 rotate no_reflect no_shear #
lump $-1 $-1 $34 $1 #
transform $-1 1 0 0 0 1 0 0 0 1 65.995666371654409 46.039263262523249 13.362303582239711 1 rotate no_reflect no_shear #
lump $-1 $-1 $35 $2 #
transform $-1 1 0 0 0 1 0 0 0 1 65.995666371654409 46.039263262523249 13.362303582239711 1 rotate no_reflect no_shear #
lump $-1 $-1 $36 $3 #
transform $-1 1 0 0 0 1 0 0 0 1 65.995666371654409 46.039263262523249 13.362303582239711 1 rotate no_reflect no_shear #
lump $-1 $-1 $37 $4 #
transform $-1 1 0 0 0 1 0 0 0 1 65.995666371654409 46.039263262523249 13.362303582239711 1 rotate no_reflect no_shear #
lump $-1 $-1 $38 $5 #
transform $-1 1 0 0 0 1 0 0 0 1 65.995666371654409 46.039263262523249 13.362303582239711 1 rotate no_reflect no_shear #
lump $-1 $-1 $39 $6 #
transform $-1 1 0 0 0 1 0 0 0 1 65.995666371654409 46.039263262523249 13.362303582239711 1 rotate no_reflect no_shear #
lump $-1 $-1 $40 $7 #
transform $-1 1 0 0 0 1 0 0 0 1 65.995666371654409 46.039263262523249 13.362303582239711 1 rotate no_reflect no_shear #
lump $-1 $-1 $41 $8 #
transform $-1 1 0 0 0 1 0 0 0 1 65.995666371654409 46.039263262523249 13.362303582239711 1 rotate no_reflect no_shear #
lump $-1 $-1 $42 $9 #
transform $-1 1 0 0 0 1 0 0 0 1 65.995666371654409 46.039263262523249 13.362303582239711 1 rotate no_reflect no_shear #
lump $-1 $-1 $43 $10 #
transform $-1 1 0 0 0 1 0 0 0 1 65.995666371654409 46.039263262523249 13.362303582239711 1 rotate no_reflect no_shear #
shell $-1 $-1 $-1 $44 $-1 $11 #
shell $-1 $-1 $-1 $45 $-1 $13 #
shell $-1 $-1 $-1 $46 $-1 $15 #
shell $-1 $-1 $-1 $47 $-1 $17 #
shell $-1 $-1 $-1 $48 $-1 $19 #
shell $-1 $-1 $-1 $49 $-1 $21 #
shell $-1 $-1 $-1 $50 $-1 $23 #
shell $-1 $-1 $-1 $51 $-1 $25 #
shell $-1 $-1 $-1 $52 $-1 $27 #
shell $-1 $-1 $-1 $53 $-1 $29 #
shell $-1 $-1 $-1 $54 $-1 $31 #
face $-1 $55 $56 $33 $-1 $57 forward single #
face $-1 $58 $59 $34 $-1 $60 forward single #
face $-1 $61 $62 $35 $-1 $63 forward single #
face $-1 $64 $65 $36 $-1 $66 reversed single #
face $-1 $67 $68 $37 $-1 $69 forward single #
face $-1 $70 $71 $38 $-1 $72 forward single #
face $-1 $73 $74 $39 $-1 $75 forward single #
face $-1 $76 $77 $40 $-1 $78 reversed single #
face $-1 $79 $80 $41 $-1 $81 forward single #
face $-1 $82 $83 $42 $-1 $84 forward single #
face $-1 $85 $86 $43 $-1 $87 forward single #
face $-1 $88 $89 $33 $-1 $90 reversed single #
loop $-1 $-1 $91 $44 #
plane-surface $-1 0 0 13.362303582239711 0 0 1 1 0 0 forward_v I I I I #
face $-1 $92 $93 $34 $-1 $94 reversed single #
loop $-1 $-1 $95 $45 #
plane-surface $-1 0 -46.039263262523249 0 0 1 0 0 0 1 forward_v I I I I #
face $-1 $96 $97 $35 $-1 $98 reversed single #
loop $-1 $-1 $99 $46 #
plane-surface $-1 0 46.039263262523249 0 0 -1 0 0 0 -1 forward_v I I I I #
face $-1 $100 $101 $36 $-1 $102 reversed single #
loop $-1 $-1 $103 $47 #
plane-surface $-1 40.017069758584711 29.323437848258862 187.55309963183066 0 -1 0 -0.6018150307709319 0 -0.79863550430605224 forward_v I I I I #
face $-1 $104 $105 $37 $-1 $106 forward single #
loop $-1 $107 $108 $48 #
cone-surface $-1 57.839410796096629 13.563495903597953 6.5936543799087826 -0.6018150307709319 0 -0.79863550430605224 1.1979532564590785 0 -0.90272254615639791 1 I I 0 1 1.5 forward I I I I #
face $-1 $109 $110 $38 $-1 $111 forward single #
loop $-1 $112 $113 $49 #
cone-surface $-1 57.839410796096629 19.473474132845794 6.5936543799087826 -0.6018150307709319 0 -0.79863550430605224 1.1979532564590785 0 -0.90272254615639791 1 I I 0 1 1.5 forward I I I I #
face $-1 $114 $115 $39 $-1 $116 forward single #
loop $-1 $117 $118 $50 #
cone-surface $-1 57.839410796096629 25.383452362093635 6.5936543799087826 -0.6018150307709319 0 -0.79863550430605224 1.1979532564590785 0 -0.90272254615639791 1 I I 0 1 1.5 forward I I I I #
face $-1 $119 $120 $40 $-1 $121 reversed single #
loop $-1 $-1 $122 $51 #
plane-surface $-1 -162.52801724597737 -36.321193894165042 92.548756510322022 0 1 0 -0.73135370988377701 0 0.68199835119979291 forward_v I I I I #
face $-1 $123 $124 $41 $-1 $125 forward single #
loop $-1 $126 $127 $52 #
cone-surface $-1 -59.865669794542328 -33.264347590694577 6.9396961665078933 0.73135370988377701 0 -0.68199835119979291 0.68199835119979291 0 0.73135370988377701 1 I I 0 1 1 forward I I I I #
face $-1 $128 $129 $42 $-1 $130 forward single #
loop $-1 $131 $132 $53 #
cone-surface $-1 -59.865669794542328 -28.679078135488872 6.9396961665078933 0.73135370988377701 0 -0.68199835119979291 0.68199835119979291 0 0.73135370988377701 1 I I 0 1 1 forward I I I I #
face $-1 $133 $134 $43 $-1 $135 forward single #
loop $-1 $136 $137 $54 #
cone-surface $-1 -59.865669794542328 -24.093808680283171 6.9396961665078933 0.73135370988377701 0 -0.68199835119979291 0.68199835119979291 0 0.73135370988377701 1 I I 0 1 1 forward I I I I #
face $-1 $138 $139 $33 $-1 $140 reversed single #
loop $-1 $-1 $141 $55 #
plane-surface $-1 0 0 -13.362303582239711 0 0 1 1 0 0 forward_v I I I I #
coedge $-1 $142 $143 $144 $145 forward $56 $-1 #
face $-1 $146 $147 $34 $-1 $148 reversed single #
loop $-1 $-1 $149 $58 #
plane-surface $-1 0 0 -13.362303582239711 0 0 1 1 0 0 forward_v I I I I #
coedge $-1 $150 $151 $152 $153 forward $59 $-1 #
face $-1 $154 $155 $35 $-1 $156 reversed single #
loop $-1 $-1 $157 $61 #
plane-surface $-1 0 0 -13.362303582239711 0 0 1 1 0 0 forward_v I I I I #
coedge $-1 $158 $159 $160 $161 forward $62 $-1 #
face $-1 $162 $163 $36 $-1 $164 reversed single #
loop $-1 $-1 $165 $64 #
plane-surface $-1 -39.417298217826001 19.473474132845794 82.140135042350281 0.6018150307709319 0 0.79863550430605224 0.79863550430605224 0 -0.6018150307709319 forward_v I I I I #
coedge $-1 $166 $167 $168 $169 reversed $65 $-1 #
face $-1 $-1 $170 $37 $-1 $171 forward single #
loop $-1 $172 $173 $67 #
cone-surface $-1 56.302644607296216 13.563495903597953 4.5542968074983676 -0.6018150307709319 0 -0.79863550430605224 0.59897662822953923 0 -0.45136127307819895 1 I I -0.70710678118654757 0.70710678118654757 0.75 forward I I I I #
loop $-1 $-1 $174 $48 #
coedge $-1 $108 $108 $175 $176 reversed $68 $-1 #
face $-1 $-1 $177 $38 $-1 $178 forward single #
loop $-1 $179 $180 $70 #
cone-surface $-1 56.302644607296216 19.473474132845794 4.5542968074983676 -0.6018150307709319 0 -0.79863550430605224 0.59897662822953923 0 -0.45136127307819895 1 I I -0.70710678118654757 0.70710678118654757 0.75 forward I I I I #
loop $-1 $-1 $181 $49 #
coedge $-1 $113 $113 $182 $183 reversed $71 $-1 #
face $-1 $-1 $184 $39 $-1 $185 forward single #
loop $-1 $186 $187 $73 #
cone-surface $-1 56.302644607296216 25.383452362093635 4.5542968074983676 -0.6018150307709319 0 -0.79863550430605224 0.59897662822953923 0 -0.45136127307819895 1 I I -0.70710678118654757 0.70710678118654757 0.75 forward I I I I #
loop $-1 $-1 $188 $50 #
coedge $-1 $118 $118 $189 $190 reversed $74 $-1 #
face $-1 $191 $192 $40 $-1 $193 reversed single #
loop $-1 $-1 $194 $76 #
plane-surface $-1 -65.995666371654409 -28.679078135488872 2.530885206722175 -0.73135370988377701 0 0.68199835119979291 0.68199835119979291 0 0.73135370988377701 forward_v I I I I #
coedge $-1 $195 $196 $197 $198 reversed $77 $-1 #
face $-1 $-1 $199 $41 $-1 $200 forward single #
loop $-1 $201 $202 $79 #
cone-surface $-1 -58.420226759509269 -33.264347590694577 5.5917987629349639 0.73135370988377701 0 -0.68199835119979291 0.34099917559989645 0 0.36567685494188851 1 I I -0.70710678118654746 0.70710678118654746 0.5 forward I I I I #
loop $-1 $-1 $203 $52 #
coedge $-1 $127 $127 $204 $205 reversed $80 $-1 #
face $-1 $-1 $206 $42 $-1 $207 forward single #
loop $-1 $208 $209 $82 #
cone-surface $-1 -58.420226759509269 -28.679078135488872 5.5917987629349639 0.73135370988377701 0 -0.68199835119979291 0.34099917559989645 0 0.36567685494188851 1 I I -0.70710678118654746 0.70710678118654746 0.5 forward I I I I #
loop $-1 $-1 $210 $53 #
coedge $-1 $132 $132 $211 $212 reversed $83 $-1 #
face $-1 $-1 $213 $43 $-1 $214 forward single #
loop $-1 $215 $216 $85 #
cone-surface $-1 -58.420226759509269 -24.093808680283171 5.5917987629349639 0.73135370988377701 0 -0.68199835119979291 0.34099917559989645 0 0.36567685494188851 1 I I -0.70710678118654746 0.70710678118654746 0.5 forward I I I I #
loop $-1 $-1 $217 $54 #
coedge $-1 $137 $137 $218 $219 reversed $86 $-1 #
face $-1 $220 $221 $33 $-1 $222 reversed single #
loop $-1 $-1 $223 $88 #
plane-surface $-1 0 -46.039263262523249 0 0 1 0 0 0 1 forward_v I I I I #
coedge $-1 $224 $225 $226 $227 forward $89 $-1 #
coedge $-1 $228 $91 $229 $230 forward $56 $-1 #
coedge $-1 $91 $228 $231 $232 forward $56 $-1 #
coedge $-1 $233 $234 $91 $145 reversed $235 $-1 #
edge $-1 $236 -46.039263262523249 $237 46.039263262523249 $144 $238 forward 7 unknown #
face $-1 $239 $240 $34 $-1 $241 reversed single #
loop $-1 $-1 $242 $92 #
plane-surface $-1 -43.735074075087184 -55.75733263088145 0 0 1 0 0 0 1 forward_v I I I I #
coedge $-1 $243 $244 $151 $245 forward $93 $-1 #
coedge $-1 $246 $95 $247 $248 reversed $59 $-1 #
coedge $-1 $95 $246 $149 $245 reversed $59 $-1 #
coedge $-1 $249 $250 $95 $153 reversed $240 $-1 #
edge $-1 $251 -13.362303582239711 $252 13.362303582239711 $152 $253 forward 7 unknown #
face $-1 $254 $255 $35 $-1 $256 reversed single #
loop $-1 $-1 $257 $96 #
plane-surface $-1 -47.430250363723573 50.898297946702357 0 1 0 0 0 0 -1 forward_v I I I I #
coedge $-1 $258 $259 $159 $260 forward $97 $-1 #
coedge $-1 $261 $99 $262 $263 reversed $62 $-1 #
coedge $-1 $99 $261 $157 $260 reversed $62 $-1 #
coedge $-1 $264 $265 $99 $161 reversed $266 $-1 #
edge $-1 $267 -13.362303582239711 $268 13.362303582239711 $160 $269 forward 7 unknown #
face $-1 $270 $271 $36 $-1 $272 forward single #
loop $-1 $-1 $273 $100 #
plane-surface $-1 40.017069758584711 9.6235104174327262 187.55309963183066 0 1 0 0.6018150307709319 0 0.79863550430605224 forward_v I I I I #
coedge $-1 $274 $275 $276 $277 reversed $101 $-1 #
coedge $-1 $167 $103 $278 $279 reversed $65 $-1 #
coedge $-1 $103 $166 $274 $280 reversed $65 $-1 #
coedge $-1 $276 $281 $103 $169 forward $271 $-1 #
edge $-1 $282 -45.987131492362053 $283 -31.845430172690882 $168 $284 forward 7 unknown #
loop $-1 $-1 $175 $104 #
plane-surface $-1 -39.417298217826001 19.473474132845794 82.140135042350281 0.6018150307709319 0 0.79863550430605224 0.79863550430605224 0 -0.6018150307709319 forward_v I I I I #
loop $-1 $-1 $285 $67 #
coedge $-1 $173 $173 $174 $286 reversed $105 $-1 #
coedge $-1 $174 $174 $173 $286 forward $107 $-1 #
coedge $-1 $175 $175 $108 $176 forward $170 $-1 #
edge $-1 $287 0 $287 6.2831853071796004 $175 $288 forward 7 unknown #
loop $-1 $-1 $182 $109 #
plane-surface $-1 -39.417298217826001 19.473474132845794 82.140135042350281 0.6018150307709319 0 0.79863550430605224 0.79863550430605224 0 -0.6018150307709319 forward_v I I I I #
loop $-1 $-1 $289 $70 #
coedge $-1 $180 $180 $181 $290 reversed $110 $-1 #
coedge $-1 $181 $181 $180 $290 forward $112 $-1 #
coedge $-1 $182 $182 $113 $183 forward $177 $-1 #
edge $-1 $291 0 $291 6.2831853071796004 $182 $292 forward 7 unknown #
loop $-1 $-1 $189 $114 #
plane-surface $-1 -39.417298217826001 19.473474132845794 82.140135042350281 0.6018150307709319 0 0.79863550430605224 0.79863550430605224 0 -0.6018150307709319 forward_v I I I I #
loop $-1 $-1 $293 $73 #
coedge $-1 $187 $187 $188 $294 reversed $115 $-1 #
coedge $-1 $188 $188 $187 $294 forward $117 $-1 #
coedge $-1 $189 $189 $118 $190 forward $184 $-1 #
edge $-1 $295 0 $295 6.2831853071796004 $189 $296 forward 7 unknown #
face $-1 $297 $298 $40 $-1 $299 reversed single #
loop $-1 $-1 $300 $119 #
plane-surface $-1 -162.52801724597737 -21.036962376812703 92.548756510322022 0 -1 0 0.73135370988377701 0 -0.68199835119979291 forward_v I I I I #
coedge $-1 $301 $302 $303 $304 reversed $120 $-1 #
coedge $-1 $196 $122 $305 $306 reversed $77 $-1 #
coedge $-1 $122 $195 $301 $307 reversed $77 $-1 #
coedge $-1 $303 $308 $122 $198 forward $309 $-1 #
edge $-1 $310 15.268342251334275 $311 25.368803045376055 $197 $312 forward 7 unknown #
loop $-1 $-1 $204 $123 #
plane-surface $-1 -65.995666371654409 -28.679078135488872 2.530885206722175 -0.73135370988377701 0 0.68199835119979291 0.68199835119979291 0 0.73135370988377701 forward_v I I I I #
loop $-1 $-1 $313 $79 #
coedge $-1 $202 $202 $203 $314 reversed $124 $-1 #
coedge $-1 $203 $203 $202 $314 forward $126 $-1 #
coedge $-1 $204 $204 $127 $205 forward $199 $-1 #
edge $-1 $315 0 $315 6.2831853071796004 $204 $316 forward 7 unknown #
loop $-1 $-1 $211 $128 #
plane-surface $-1 -65.995666371654409 -28.679078135488872 2.530885206722175 -0.73135370988377701 0 0.68199835119979291 0.68199835119979291 0 0.73135370988377701 forward_v I I I I #
loop $-1 $-1 $317 $82 #
coedge $-1 $209 $209 $210 $318 reversed $129 $-1 #
coedge $-1 $210 $210 $209 $318 forward $131 $-1 #
coedge $-1 $211 $211 $132 $212 forward $206 $-1 #
edge $-1 $319 0 $319 6.2831853071796004 $211 $320 forward 7 unknown #
loop $-1 $-1 $218 $133 #
plane-surface $-1 -65.995666371654409 -28.679078135488872 2.530885206722175 -0.73135370988377701 0 0.68199835119979291 0.68199835119979291 0 0.73135370988377701 forward_v I I I I #
loop $-1 $-1 $321 $85 #
coedge $-1 $216 $216 $217 $322 reversed $134 $-1 #
coedge $-1 $217 $217 $216 $322 forward $136 $-1 #
coedge $-1 $218 $218 $137 $219 forward $213 $-1 #
edge $-1 $323 0 $323 6.2831853071796004 $218 $324 forward 7 unknown #
face $-1 $325 $326 $33 $-1 $327 reversed single #
loop $-1 $-1 $328 $138 #
plane-surface $-1 -65.995666371654409 0 0 1 0 0 0 0 -1 forward_v I I I I #
coedge $-1 $329 $231 $330 $331 forward $139 $-1 #
coedge $-1 $332 $141 $329 $333 forward $89 $-1 #
coedge $-1 $141 $332 $334 $335 forward $89 $-1 #
coedge $-1 $234 $233 $141 $227 reversed $235 $-1 #
edge $-1 $336 -46.039263262523249 $337 46.039263262523249 $226 $338 forward 7 unknown #
coedge $-1 $143 $142 $339 $340 forward $56 $-1 #
coedge $-1 $341 $342 $142 $230 reversed $326 $-1 #
edge $-1 $237 -65.995666371654409 $343 65.995666371654409 $229 $344 forward 7 unknown #
coedge $-1 $223 $345 $143 $232 reversed $139 $-1 #
edge $-1 $346 -65.995666371654409 $236 65.995666371654409 $231 $347 forward 7 unknown #
coedge $-1 $226 $144 $345 $348 forward $235 $-1 #
coedge $-1 $144 $226 $341 $349 reversed $235 $-1 #
loop $-1 $-1 $233 $325 #
vertex $-1 $145 $350 #
vertex $-1 $145 $351 #
straight-curve $-1 65.995666371654409 0 13.362303582239711 0 1 0 I I #
face $-1 $352 $353 $34 $-1 $354 reversed single #
loop $-1 $-1 $152 $146 #
plane-surface $-1 -47.430250363723573 -50.89829794670235 0 1 0 0 0 0 -1 forward_v I I I I #
coedge $-1 $355 $356 $357 $358 forward $147 $-1 #
coedge $-1 $359 $149 $360 $361 forward $93 $-1 #
coedge $-1 $149 $359 $249 $362 forward $93 $-1 #
edge $-1 $251 -47.430250363723573 $363 -40.039897786450794 $149 $364 forward 7 unknown #
coedge $-1 $151 $150 $365 $366 forward $59 $-1 #
coedge $-1 $367 $368 $150 $248 forward $369 $-1 #
edge $-1 $370 40.039897786450794 $252 47.430250363723573 $247 $371 forward 7 unknown #
coedge $-1 $357 $152 $244 $362 reversed $240 $-1 #
coedge $-1 $152 $357 $367 $372 reversed $240 $-1 #
vertex $-1 $245 $373 #
vertex $-1 $372 $374 #
straight-curve $-1 -47.430250363723573 -46.039263262523249 0 0 0 1 I I #
face $-1 $375 $266 $35 $-1 $376 reversed single #
loop $-1 $-1 $377 $154 #
plane-surface $-1 -43.735074075087184 55.757332630881457 0 0 -1 0 0 0 -1 forward_v I I I I #
coedge $-1 $378 $379 $380 $381 forward $155 $-1 #
coedge $-1 $382 $157 $378 $383 forward $97 $-1 #
coedge $-1 $157 $382 $264 $384 forward $97 $-1 #
edge $-1 $267 40.039897786450794 $385 47.430250363723573 $157 $386 forward 7 unknown #
coedge $-1 $159 $158 $387 $388 forward $62 $-1 #
coedge $-1 $389 $390 $158 $263 forward $391 $-1 #
edge $-1 $392 -47.430250363723573 $268 -40.039897786450794 $262 $393 forward 7 unknown #
coedge $-1 $394 $160 $259 $384 reversed $266 $-1 #
coedge $-1 $160 $394 $389 $395 reversed $266 $-1 #
loop $-1 $-1 $160 $254 #
vertex $-1 $260 $396 #
vertex $-1 $395 $397 #
straight-curve $-1 -40.039897786450794 46.039263262523249 0 0 0 1 I I #
face $-1 $-1 $398 $36 $-1 $399 reversed single #
loop $-1 $-1 $168 $162 #
plane-surface $-1 0 0 13.362303582239711 0 0 1 1 0 0 forward_v I I I I #
coedge $-1 $400 $401 $402 $403 reversed $163 $-1 #
coedge $-1 $404 $165 $167 $280 forward $101 $-1 #
coedge $-1 $165 $404 $400 $405 forward $101 $-1 #
coedge $-1 $402 $168 $165 $277 forward $271 $-1 #
edge $-1 $283 -19.586700781835965 $406 0.11322664899017099 $276 $407 forward 7 unknown #
coedge $-1 $408 $409 $166 $279 forward $398 $-1 #
edge $-1 $410 -91.070782749975777 $282 -80.414246233675613 $278 $411 forward 7 unknown #
edge $-1 $283 114.28400412665897 $410 131.99133274330887 $167 $412 forward 7 unknown #
coedge $-1 $168 $402 $408 $413 forward $271 $-1 #
vertex $-1 $169 $414 #
vertex $-1 $169 $415 #
straight-curve $-1 20.008534879292355 29.323437848258862 13.362303582239704 -1 0 0 I I #
coedge $-1 $285 $285 $-1 $416 reversed $172 $-1 #
edge $-1 $417 0 $417 6.2831853071796004 $173 $418 forward 7 unknown #
vertex $-1 $176 $419 #
ellipse-curve $-1 58.924815711818823 13.563495903597953 8.0340353240896292 0.6018150307709319 0 0.79863550430605224 1.1979532564590785 0 -0.90272254615639791 1 I I #
coedge $-1 $289 $289 $-1 $420 reversed $179 $-1 #
edge $-1 $421 0 $421 6.2831853071796004 $180 $422 forward 7 unknown #
vertex $-1 $183 $423 #
ellipse-curve $-1 58.924815711818823 19.473474132845794 8.0340353240896292 0.6018150307709319 0 0.79863550430605224 1.1979532564590785 0 -0.90272254615639791 1 I I #
coedge $-1 $293 $293 $-1 $424 reversed $186 $-1 #
edge $-1 $425 0 $425 6.2831853071796004 $187 $426 forward 7 unknown #
vertex $-1 $190 $427 #
ellipse-curve $-1 58.924815711818823 25.383452362093635 8.0340353240896292 0.6018150307709319 0 0.79863550430605224 1.1979532564590785 0 -0.90272254615639791 1 I I #
face $-1 $-1 $309 $40 $-1 $428 forward single #
loop $-1 $-1 $429 $191 #
plane-surface $-1 -65.995666371654409 0 0 1 0 0 0 0 -1 forward_v I I I I #
coedge $-1 $430 $431 $432 $433 reversed $192 $-1 #
coedge $-1 $434 $194 $196 $307 forward $120 $-1 #
coedge $-1 $194 $434 $430 $435 forward $120 $-1 #
coedge $-1 $432 $197 $194 $304 forward $309 $-1 #
edge $-1 $311 -21.981654826420606 $436 -6.6974233090682667 $303 $437 forward 7 unknown #
coedge $-1 $438 $439 $195 $306 forward $298 $-1 #
edge $-1 $440 -43.743493048438836 $310 -32.9120746729213 $305 $441 forward 7 unknown #
edge $-1 $311 -14.810095620132708 $440 0 $196 $442 forward 7 unknown #
coedge $-1 $197 $432 $438 $443 forward $309 $-1 #
loop $-1 $-1 $432 $297 #
vertex $-1 $306 $444 #
vertex $-1 $198 $445 #
straight-curve $-1 -81.264008622988683 -36.321193894165042 13.362303582239711 1 0 0 I I #
coedge $-1 $313 $313 $-1 $446 reversed $201 $-1 #
edge $-1 $447 0 $447 6.2831853071796004 $202 $448 forward 7 unknown #
vertex $-1 $205 $449 #
ellipse-curve $-1 -60.945435974633519 -33.264347590694577 7.9465943944809414 -0.73135370988377701 0 0.68199835119979291 0.68199835119979291 0 0.73135370988377701 1 I I #
coedge $-1 $317 $317 $-1 $450 reversed $208 $-1 #
edge $-1 $451 0 $451 6.2831853071796004 $209 $452 forward 7 unknown #
vertex $-1 $212 $453 #
ellipse-curve $-1 -60.945435974633519 -28.679078135488872 7.9465943944809414 -0.73135370988377701 0 0.68199835119979291 0.68199835119979291 0 0.73135370988377701 1 I I #
coedge $-1 $321 $321 $-1 $454 reversed $215 $-1 #
edge $-1 $455 0 $455 6.2831853071796004 $216 $456 forward 7 unknown #
vertex $-1 $219 $457 #
ellipse-curve $-1 -60.945435974633519 -24.093808680283171 7.9465943944809414 -0.73135370988377701 0 0.68199835119979291 0.68199835119979291 0 0.73135370988377701 1 I I #
face $-1 $-1 $235 $33 $-1 $458 reversed single #
loop $-1 $-1 $341 $220 #
plane-surface $-1 0 46.039263262523249 0 0 -1 0 0 0 -1 forward_v I I I I #
coedge $-1 $459 $339 $342 $460 forward $221 $-1 #
coedge $-1 $345 $223 $224 $333 reversed $139 $-1 #
coedge $-1 $339 $459 $223 $331 reversed $221 $-1 #
edge $-1 $346 -13.362303582239711 $461 13.362303582239711 $330 $462 forward 7 unknown #
coedge $-1 $225 $224 $459 $463 forward $89 $-1 #
edge $-1 $337 -65.995666371654409 $461 65.995666371654409 $329 $464 forward 7 unknown #
coedge $-1 $342 $341 $225 $335 reversed $326 $-1 #
edge $-1 $465 -65.995666371654409 $336 65.995666371654409 $334 $466 forward 7 unknown #
vertex $-1 $227 $467 #
vertex $-1 $348 $468 #
straight-curve $-1 65.995666371654409 0 -13.362303582239711 0 -1 0 I I #
coedge $-1 $328 $330 $228 $340 reversed $221 $-1 #
edge $-1 $343 -46.039263262523249 $346 46.039263262523249 $339 $469 forward 7 unknown #
coedge $-1 $334 $229 $234 $349 forward $326 $-1 #
coedge $-1 $229 $334 $328 $460 reversed $326 $-1 #
vertex $-1 $230 $470 #
straight-curve $-1 0 46.039263262523249 13.362303582239711 -1 0 0 I I #
coedge $-1 $231 $329 $233 $348 reversed $139 $-1 #
vertex $-1 $340 $471 #
straight-curve $-1 0 -46.039263262523249 13.362303582239711 1 0 0 I I #
edge $-1 $236 -13.362303582239711 $337 13.362303582239711 $233 $472 forward 7 unknown #
edge $-1 $237 -13.362303582239711 $336 13.362303582239711 $234 $473 forward 7 unknown #
point $-1 65.995666371654409 -46.039263262523249 13.362303582239711 #
point $-1 65.995666371654409 46.039263262523249 13.362303582239711 #
face $-1 $-1 $369 $34 $-1 $474 forward single #
loop $-1 $-1 $475 $239 #
plane-surface $-1 -40.039897786450794 -50.89829794670235 0 -1 0 0 0 0 1 forward_v I I I I #
coedge $-1 $476 $242 $359 $477 reversed $147 $-1 #
coedge $-1 $242 $476 $478 $479 reversed $147 $-1 #
coedge $-1 $250 $249 $242 $358 reversed $240 $-1 #
edge $-1 $480 -13.362303582239711 $481 13.362303582239711 $357 $482 forward 7 unknown #
coedge $-1 $244 $243 $355 $477 forward $93 $-1 #
coedge $-1 $365 $475 $243 $361 reversed $353 $-1 #
edge $-1 $363 -4.8590346841791003 $483 4.8590346841791003 $360 $484 forward 7 unknown #
edge $-1 $481 -4.8590346841791003 $251 4.8590346841791003 $249 $485 forward 7 unknown #
vertex $-1 $361 $486 #
straight-curve $-1 0 -46.039263262523249 -13.362303582239711 1 0 0 I I #
coedge $-1 $487 $360 $246 $366 reversed $353 $-1 #
edge $-1 $370 -13.362303582239711 $363 13.362303582239711 $365 $488 forward 7 unknown #
coedge $-1 $478 $247 $250 $372 forward $369 $-1 #
coedge $-1 $247 $478 $487 $489 forward $369 $-1 #
loop $-1 $-1 $247 $352 #
vertex $-1 $248 $490 #
straight-curve $-1 0 -46.039263262523249 13.362303582239711 -1 0 0 I I #
edge $-1 $252 -4.8590346841791003 $480 4.8590346841791003 $250 $491 forward 7 unknown #
point $-1 -47.430250363723573 -46.039263262523249 -13.362303582239711 #
point $-1 -47.430250363723573 -46.039263262523249 13.362303582239711 #
face $-1 $-1 $391 $35 $-1 $492 forward single #
plane-surface $-1 -40.039897786450794 50.898297946702357 0 -1 0 0 0 0 1 forward_v I I I I #
coedge $-1 $493 $494 $394 $495 forward $255 $-1 #
coedge $-1 $387 $257 $258 $383 reversed $155 $-1 #
coedge $-1 $257 $387 $390 $496 reversed $155 $-1 #
coedge $-1 $494 $493 $257 $381 reversed $255 $-1 #
edge $-1 $497 -13.362303582239711 $498 13.362303582239711 $380 $499 forward 7 unknown #
coedge $-1 $259 $258 $493 $500 forward $97 $-1 #
edge $-1 $385 -4.8590346841791003 $498 4.8590346841791003 $378 $501 forward 7 unknown #
edge $-1 $502 -4.8590346841791003 $267 4.8590346841791003 $264 $503 forward 7 unknown #
vertex $-1 $383 $504 #
straight-curve $-1 0 46.039263262523249 -13.362303582239711 -1 0 0 I I #
coedge $-1 $379 $378 $261 $388 reversed $155 $-1 #
edge $-1 $392 -13.362303582239711 $385 13.362303582239711 $387 $505 forward 7 unknown #
coedge $-1 $506 $262 $265 $395 forward $391 $-1 #
coedge $-1 $262 $506 $379 $496 forward $391 $-1 #
loop $-1 $-1 $262 $375 #
vertex $-1 $263 $507 #
straight-curve $-1 0 46.039263262523249 13.362303582239711 1 0 0 I I #
coedge $-1 $265 $264 $377 $495 reversed $266 $-1 #
edge $-1 $268 -4.8590346841791003 $508 4.8590346841791003 $265 $509 forward 7 unknown #
point $-1 -40.039897786450794 46.039263262523257 -13.362303582239711 #
point $-1 -40.039897786450794 46.039263262523257 13.362303582239711 #
loop $-1 $-1 $278 $270 #
plane-surface $-1 65.995666371654409 0 0 -1 0 0 0 0 1 forward_v I I I I #
coedge $-1 $401 $273 $275 $405 reversed $163 $-1 #
coedge $-1 $273 $400 $510 $511 reversed $163 $-1 #
coedge $-1 $281 $276 $273 $403 forward $271 $-1 #
edge $-1 $406 31.845430172690882 $512 45.987131492362053 $402 $513 forward 7 unknown #
coedge $-1 $275 $274 $409 $514 reversed $101 $-1 #
edge $-1 $515 -131.99133274330887 $406 -114.28400412665897 $400 $516 forward 7 unknown #
vertex $-1 $277 $517 #
straight-curve $-1 51.853965051983238 9.7367370664228972 13.362303582239711 0 -1 0 I I #
coedge $-1 $510 $278 $281 $413 reversed $398 $-1 #
coedge $-1 $278 $510 $404 $514 forward $398 $-1 #
vertex $-1 $279 $518 #
straight-curve $-1 65.995666371654409 29.323437848258862 93.776549815915331 0 0 1 I I #
straight-curve $-1 -39.417298217826001 29.323437848258862 82.140135042350281 0.79863550430605224 0 -0.6018150307709319 I I #
edge $-1 $512 9.6235104174327262 $282 29.323437848258862 $408 $519 forward 7 unknown #
point $-1 65.995666371654409 29.323437848258862 13.362303582239711 #
point $-1 51.853965051983238 29.323437848258862 13.362303582239704 #
edge $-1 $520 1 $520 0 $285 $-1 forward 7 unknown #
vertex $-1 $286 $521 #
ellipse-curve $-1 56.754005880374415 13.563495903597953 5.1532734357279066 0.6018150307709319 0 0.79863550430605224 1.1979532564590785 0 -0.90272254615639791 1 I I #
point $-1 60.122768968277917 13.563495903597953 7.1313127779332612 #
edge $-1 $522 1 $522 0 $289 $-1 forward 7 unknown #
vertex $-1 $290 $523 #
ellipse-curve $-1 56.754005880374415 19.473474132845794 5.1532734357279066 0.6018150307709319 0 0.79863550430605224 1.1979532564590785 0 -0.90272254615639791 1 I I #
point $-1 60.122768968277917 19.473474132845794 7.1313127779332612 #
edge $-1 $524 1 $524 0 $293 $-1 forward 7 unknown #
vertex $-1 $294 $525 #
ellipse-curve $-1 56.754005880374415 25.383452362093635 5.1532734357279066 0.6018150307709319 0 0.79863550430605224 1.1979532564590785 0 -0.90272254615639791 1 I I #
point $-1 60.122768968277917 25.383452362093635 7.1313127779332612 #
plane-surface $-1 0 0 13.362303582239711 0 0 1 1 0 0 forward_v I I I I #
coedge $-1 $439 $438 $431 $526 forward $298 $-1 #
coedge $-1 $431 $300 $302 $435 reversed $192 $-1 #
coedge $-1 $300 $430 $429 $526 reversed $192 $-1 #
coedge $-1 $308 $303 $300 $433 forward $309 $-1 #
edge $-1 $436 -25.368803045376055 $527 -15.268342251334275 $432 $528 forward 7 unknown #
coedge $-1 $302 $301 $439 $529 reversed $120 $-1 #
edge $-1 $530 0 $436 14.810095620132708 $430 $531 forward 7 unknown #
vertex $-1 $304 $532 #
straight-curve $-1 -55.895205577612629 -14.339539067744436 13.362303582239711 0 1 0 I I #
coedge $-1 $429 $305 $308 $443 reversed $298 $-1 #
coedge $-1 $305 $429 $434 $529 forward $298 $-1 #
vertex $-1 $306 $533 #
straight-curve $-1 -65.995666371654409 -36.321193894165042 46.274378255161011 0 0 1 I I #
straight-curve $-1 -65.995666371654409 -36.321193894165042 2.530885206722175 -0.68199835119979291 0 -0.73135370988377701 I I #
edge $-1 $527 21.036962376812703 $310 36.321193894165042 $438 $534 forward 7 unknown #
point $-1 -65.995666371654409 -36.321193894165042 13.362303582239711 #
point $-1 -55.895205577612629 -36.321193894165042 13.362303582239711 #
edge $-1 $535 1 $535 0 $313 $-1 forward 7 unknown #
vertex $-1 $314 $536 #
ellipse-curve $-1 -58.785903614451158 -33.264347590694577 5.9327979385348604 -0.73135370988377701 0 0.68199835119979291 0.68199835119979291 0 0.73135370988377701 1 I I #
point $-1 -60.26343762343371 -33.264347590694577 8.6779481043647024 #
edge $-1 $537 1 $537 0 $317 $-1 forward 7 unknown #
vertex $-1 $318 $538 #
ellipse-curve $-1 -58.785903614451158 -28.679078135488872 5.9327979385348604 -0.73135370988377701 0 0.68199835119979291 0.68199835119979291 0 0.73135370988377701 1 I I #
point $-1 -60.26343762343371 -28.679078135488872 8.6779481043647024 #
edge $-1 $539 1 $539 0 $321 $-1 forward 7 unknown #
vertex $-1 $322 $540 #
ellipse-curve $-1 -58.785903614451158 -24.093808680283171 5.9327979385348604 -0.73135370988377701 0 0.68199835119979291 0.68199835119979291 0 0.73135370988377701 1 I I #
point $-1 -60.26343762343371 -24.093808680283171 8.6779481043647024 #
plane-surface $-1 65.995666371654409 0 0 -1 0 0 0 0 1 forward_v I I I I #
coedge $-1 $330 $328 $332 $463 reversed $221 $-1 #
edge $-1 $343 -13.362303582239711 $465 13.362303582239711 $342 $541 forward 7 unknown #
vertex $-1 $463 $542 #
straight-curve $-1 -65.995666371654409 -46.039263262523249 0 0 0 -1 I I #
edge $-1 $461 -46.039263262523249 $465 46.039263262523249 $459 $543 forward 7 unknown #
straight-curve $-1 0 -46.039263262523249 -13.362303582239711 -1 0 0 I I #
vertex $-1 $335 $544 #
straight-curve $-1 0 46.039263262523249 -13.362303582239711 1 0 0 I I #
point $-1 65.995666371654409 46.039263262523249 -13.362303582239711 #
point $-1 65.995666371654409 -46.039263262523249 -13.362303582239711 #
straight-curve $-1 -65.995666371654409 0 13.362303582239711 0 -1 0 I I #
point $-1 -65.995666371654409 46.039263262523249 13.362303582239711 #
point $-1 -65.995666371654409 -46.039263262523249 13.362303582239711 #
straight-curve $-1 65.995666371654409 -46.039263262523249 0 0 0 -1 I I #
straight-curve $-1 65.995666371654409 46.039263262523249 0 0 0 -1 I I #
plane-surface $-1 0 0 13.362303582239711 0 0 1 1 0 0 forward_v I I I I #
coedge $-1 $360 $487 $476 $545 forward $353 $-1 #
coedge $-1 $356 $355 $475 $545 reversed $147 $-1 #
edge $-1 $483 -3.6951762886363895 $481 3.6951762886363895 $355 $546 forward 7 unknown #
coedge $-1 $368 $367 $356 $479 forward $369 $-1 #
edge $-1 $480 -3.6951762886363895 $547 3.6951762886363895 $356 $548 forward 7 unknown #
vertex $-1 $372 $549 #
vertex $-1 $362 $550 #
straight-curve $-1 -47.430250363723573 -55.75733263088145 0 0 0 -1 I I #
vertex $-1 $545 $551 #
straight-curve $-1 -40.039897786450794 -50.89829794670235 -13.362303582239711 0 -1 0 I I #
straight-curve $-1 -47.430250363723573 -50.89829794670235 -13.362303582239711 0 1 0 I I #
point $-1 -40.039897786450794 -46.039263262523249 -13.362303582239711 #
coedge $-1 $475 $365 $368 $489 reversed $353 $-1 #
straight-curve $-1 -40.039897786450794 -46.039263262523249 0 0 0 -1 I I #
edge $-1 $547 -4.8590346841791003 $370 4.8590346841791003 $487 $552 forward 7 unknown #
point $-1 -40.039897786450794 -46.039263262523249 13.362303582239711 #
straight-curve $-1 -47.430250363723573 -50.89829794670235 13.362303582239711 0 -1 0 I I #
plane-surface $-1 0 0 13.362303582239711 0 0 1 1 0 0 forward_v I I I I #
coedge $-1 $380 $377 $382 $500 reversed $255 $-1 #
coedge $-1 $377 $380 $506 $553 reversed $255 $-1 #
edge $-1 $508 -13.362303582239711 $502 13.362303582239711 $394 $554 forward 7 unknown #
edge $-1 $497 -4.8590346841791003 $392 4.8590346841791003 $379 $555 forward 7 unknown #
vertex $-1 $553 $556 #
vertex $-1 $500 $557 #
straight-curve $-1 -47.430250363723573 55.757332630881457 0 0 0 -1 I I #
edge $-1 $498 -3.6951762886363895 $502 3.6951762886363895 $493 $558 forward 7 unknown #
straight-curve $-1 -47.430250363723573 50.898297946702357 -13.362303582239711 0 1 0 I I #
vertex $-1 $384 $559 #
straight-curve $-1 -40.039897786450794 50.898297946702357 -13.362303582239711 0 -1 0 I I #
point $-1 -47.430250363723573 46.039263262523257 -13.362303582239711 #
straight-curve $-1 -47.430250363723573 46.039263262523249 0 0 0 -1 I I #
coedge $-1 $390 $389 $494 $553 forward $391 $-1 #
point $-1 -47.430250363723573 46.039263262523257 13.362303582239711 #
vertex $-1 $395 $560 #
straight-curve $-1 -40.039897786450794 50.898297946702357 13.362303582239711 0 1 0 I I #
coedge $-1 $409 $408 $401 $511 forward $398 $-1 #
edge $-1 $512 80.414246233675613 $515 91.070782749975777 $510 $561 forward 7 unknown #
vertex $-1 $413 $562 #
straight-curve $-1 20.008534879292355 9.6235104174327262 13.362303582239704 1 0 0 I I #
edge $-1 $515 -0.11322664899017099 $410 19.586700781835965 $409 $563 forward 7 unknown #
vertex $-1 $514 $564 #
straight-curve $-1 -39.417298217826001 9.6235104174327262 82.140135042350281 -0.79863550430605224 0 0.6018150307709319 I I #
point $-1 51.853965051983238 9.6235104174327262 13.362303582239704 #
point $-1 65.995666371654409 29.323437848258862 2.7057670659395541 #
straight-curve $-1 65.995666371654409 0 13.362303582239711 0 1 0 I I #
vertex $-1 $416 $565 #
point $-1 57.951959136833494 13.563495903597953 4.2505508895715085 #
vertex $-1 $420 $566 #
point $-1 57.951959136833494 19.473474132845794 4.2505508895715085 #
vertex $-1 $424 $567 #
point $-1 57.951959136833494 25.383452362093635 4.2505508895715085 #
edge $-1 $527 32.9120746729213 $530 43.743493048438836 $429 $568 forward 7 unknown #
vertex $-1 $443 $569 #
straight-curve $-1 -81.264008622988683 -21.036962376812703 13.362303582239711 -1 0 0 I I #
edge $-1 $530 6.6974233090682667 $440 21.981654826420606 $439 $570 forward 7 unknown #
vertex $-1 $529 $571 #
straight-curve $-1 -65.995666371654409 -21.036962376812703 2.530885206722175 0.68199835119979291 0 0.73135370988377701 I I #
point $-1 -55.895205577612629 -21.036962376812703 13.362303582239711 #
point $-1 -65.995666371654409 -36.321193894165042 2.530885206722175 #
straight-curve $-1 -65.995666371654409 0 13.362303582239711 0 -1 0 I I #
vertex $-1 $446 $572 #
point $-1 -58.103905263251363 -33.264347590694577 6.6641516484186374 #
vertex $-1 $450 $573 #
point $-1 -58.103905263251363 -28.679078135488872 6.6641516484186374 #
vertex $-1 $454 $574 #
point $-1 -58.103905263251363 -24.093808680283171 6.6641516484186374 #
straight-curve $-1 -65.995666371654409 46.039263262523249 0 0 0 -1 I I #
point $-1 -65.995666371654409 -46.039263262523249 -13.362303582239711 #
straight-curve $-1 -65.995666371654409 0 -13.362303582239711 0 1 0 I I #
point $-1 -65.995666371654409 46.039263262523249 -13.362303582239711 #
edge $-1 $547 -13.362303582239711 $483 13.362303582239711 $475 $575 forward 7 unknown #
straight-curve $-1 -43.735074075087184 -55.75733263088145 -13.362303582239711 -1 0 0 I I #
vertex $-1 $489 $576 #
straight-curve $-1 -43.735074075087184 -55.75733263088145 13.362303582239711 1 0 0 I I #
point $-1 -47.430250363723573 -55.75733263088145 13.362303582239711 #
point $-1 -47.430250363723573 -55.75733263088145 -13.362303582239711 #
point $-1 -40.039897786450794 -55.75733263088145 -13.362303582239711 #
straight-curve $-1 -40.039897786450794 -50.89829794670235 13.362303582239711 0 1 0 I I #
edge $-1 $508 -3.6951762886363895 $497 3.6951762886363895 $494 $577 forward 7 unknown #
straight-curve $-1 -40.039897786450794 55.757332630881457 0 0 0 -1 I I #
straight-curve $-1 -47.430250363723573 50.898297946702357 13.362303582239711 0 -1 0 I I #
point $-1 -47.430250363723573 55.757332630881457 13.362303582239711 #
point $-1 -47.430250363723573 55.757332630881457 -13.362303582239711 #
straight-curve $-1 -43.735074075087184 55.757332630881457 -13.362303582239711 1 0 0 I I #
point $-1 -40.039897786450794 55.757332630881457 -13.362303582239711 #
point $-1 -40.039897786450794 55.757332630881457 13.362303582239711 #
straight-curve $-1 65.995666371654409 9.6235104174327262 93.776549815915331 0 0 -1 I I #
point $-1 65.995666371654409 9.6235104174327262 13.362303582239711 #
straight-curve $-1 65.995666371654409 9.7367370664228972 2.7057670659395683 0 1 0 I I #
point $-1 65.995666371654409 9.6235104174327262 2.7057670659395541 #
point $-1 55.851283334218017 13.563495903597953 3.9553201792688286 #
point $-1 55.851283334218017 19.473474132845794 3.9553201792688286 #
point $-1 55.851283334218017 25.383452362093635 3.9553201792688286 #
straight-curve $-1 -65.995666371654409 -21.036962376812703 46.274378255161011 0 0 -1 I I #
point $-1 -65.995666371654409 -21.036962376812703 13.362303582239711 #
straight-curve $-1 -65.995666371654409 -14.339539067744436 2.5308852067221697 0 -1 0 I I #
point $-1 -65.995666371654409 -21.036962376812703 2.530885206722175 #
point $-1 -58.054549904567381 -33.264347590694577 5.2507995873350675 #
point $-1 -58.054549904567381 -28.679078135488872 5.2507995873350675 #
point $-1 -58.054549904567381 -24.093808680283171 5.2507995873350675 #
straight-curve $-1 -40.039897786450794 -55.75733263088145 0 0 0 -1 I I #
point $-1 -40.039897786450794 -55.75733263088145 13.362303582239711 #
straight-curve $-1 -43.735074075087184 55.757332630881457 13.362303582239711 -1 0 0 I I #
End-of-ACIS-data 