500 0 6 0           
7 Unknown 11 ACIS 5.0 NT 24 Thu Mar 25 15:41:15 1999 
-1 9.9999999999999995e-007 1e-010 
body $-1 $6 $-1 $7 #
body $-1 $8 $-1 $9 #
body $-1 $10 $-1 $11 #
body $-1 $12 $-1 $13 #
body $-1 $14 $-1 $15 #
body $-1 $16 $-1 $17 #
lump $-1 $-1 $18 $0 #
transform $-1 1 0 0 0 1 0 0 0 1 56.266365550706503 37.812673603710365 10.702878013621403 1 rotate no_reflect no_shear #
lump $-1 $-1 $19 $1 #
transform $-1 1 0 0 0 1 0 0 0 1 56.266365550706503 37.812673603710365 10.702878013621403 1 rotate no_reflect no_shear #
lump $-1 $-1 $20 $2 #
transform $-1 1 0 0 0 1 0 0 0 1 56.266365550706503 37.812673603710365 10.702878013621403 1 rotate no_reflect no_shear #
lump $-1 $-1 $21 $3 #
transform $-1 1 0 0 0 1 0 0 0 1 56.266365550706503 37.812673603710365 10.702878013621403 1 rotate no_reflect no_shear #
lump $-1 $-1 $22 $4 #
transform $-1 1 0 0 0 1 0 0 0 1 56.266365550706503 37.812673603710365 10.702878013621403 1 rotate no_reflect no_shear #
lump $-1 $-1 $23 $5 #
transform $-1 1 0 0 0 1 0 0 0 1 56.266365550706503 37.812673603710365 10.702878013621403 1 rotate no_reflect no_shear #
shell $-1 $-1 $-1 $24 $-1 $6 #
shell $-1 $-1 $-1 $25 $-1 $8 #
shell $-1 $-1 $-1 $26 $-1 $10 #
shell $-1 $-1 $-1 $27 $-1 $12 #
shell $-1 $-1 $-1 $28 $-1 $14 #
shell $-1 $-1 $-1 $29 $-1 $16 #
face $-1 $30 $31 $18 $-1 $32 forward single #
face $-1 $33 $34 $19 $-1 $35 reversed single #
face $-1 $36 $37 $20 $-1 $38 reversed single #
face $-1 $39 $40 $21 $-1 $41 forward single #
face $-1 $42 $43 $22 $-1 $44 reversed single #
face $-1 $45 $46 $23 $-1 $47 forward single #
face $-1 $48 $49 $18 $-1 $50 reversed single #
loop $-1 $-1 $51 $24 #
plane-surface $-1 0 0 10.702878013621403 0 0 1 1 0 0 forward_v I I I I #
face $-1 $52 $53 $19 $-1 $54 reversed single #
loop $-1 $-1 $55 $25 #
plane-surface $-1 -52.596229229092913 0 5.6562882774217709 0 0 1 1 0 0 forward_v I I I I #
face $-1 $56 $57 $20 $-1 $58 reversed single #
loop $-1 $-1 $59 $26 #
plane-surface $-1 -35.348699049109456 93.170515470873752 130.8318278080209 -1 0 0 0 0.84804810408105047 0.52991925155115449 forward_v I I I I #
face $-1 $60 $61 $21 $-1 $62 forward single #
loop $-1 $63 $64 $27 #
cone-surface $-1 -42.137395978294393 35.23115727172172 7.9809433182965623 0 -0.84804810408105047 -0.52991925155115449 1 0 0 1 I I 0 1 1 forward I I I I #
face $-1 $65 $66 $22 $-1 $67 reversed single #
loop $-1 $-1 $68 $28 #
plane-surface $-1 -42.137395978294393 -37.812673603710408 7.0646348480285326 0 -0.84804810408105047 0.52991925155115449 1 0 0 forward_v I I I I #
face $-1 $69 $70 $23 $-1 $71 forward single #
loop $-1 $72 $73 $29 #
cone-surface $-1 -42.137395978294393 -35.23115727172172 7.9809433182965765 0 0.84804810408105047 -0.52991925155115449 1 0 0 1 I I 0 1 1 forward I I I I #
face $-1 $74 $75 $18 $-1 $76 reversed single #
loop $-1 $-1 $77 $30 #
plane-surface $-1 0 0 -10.702878013621403 0 0 1 1 0 0 forward_v I I I I #
coedge $-1 $78 $79 $80 $81 forward $31 $-1 #
face $-1 $82 $83 $19 $-1 $84 reversed single #
loop $-1 $-1 $85 $33 #
plane-surface $-1 -48.926092907479322 0 8.1795831455215886 -1 0 0 0 0 1 forward_v I I I I #
coedge $-1 $86 $87 $88 $89 forward $34 $-1 #
face $-1 $90 $91 $20 $-1 $92 forward single #
loop $-1 $-1 $93 $36 #
plane-surface $-1 -42.137395978294393 -2.2626537867422059 71.198567167752799 0 0.84804810408105047 0.52991925155115449 1 0 0 forward_v I I I I #
coedge $-1 $94 $95 $96 $97 reversed $37 $-1 #
face $-1 $-1 $98 $21 $-1 $99 forward single #
loop $-1 $100 $101 $39 #
cone-surface $-1 -42.137395978294393 33.362330174352891 6.8131705799926063 0 -0.84804810408105047 -0.52991925155115449 0.5 0 0 1 I I -0.70710678118654746 0.70710678118654746 0.5 forward I I I I #
loop $-1 $-1 $102 $27 #
coedge $-1 $64 $64 $103 $104 reversed $40 $-1 #
face $-1 $105 $106 $22 $-1 $107 forward single #
loop $-1 $-1 $108 $42 #
plane-surface $-1 -35.348699049109456 -133.24584286132637 66.697895488296638 -1 0 0 0 -0.84804810408105047 0.52991925155115449 forward_v I I I I #
coedge $-1 $109 $110 $111 $112 reversed $43 $-1 #
face $-1 $-1 $113 $23 $-1 $114 forward single #
loop $-1 $115 $116 $45 #
cone-surface $-1 -42.137395978294393 -33.362330174352891 6.8131705799926205 0 0.84804810408105047 -0.52991925155115449 0.5 0 0 1 I I -0.70710678118654746 0.70710678118654746 0.5 forward I I I I #
loop $-1 $-1 $117 $29 #
coedge $-1 $73 $73 $118 $119 reversed $46 $-1 #
face $-1 $120 $121 $18 $-1 $122 reversed single #
loop $-1 $-1 $123 $48 #
plane-surface $-1 0 -37.812673603710365 0 0 1 0 0 0 1 forward_v I I I I #
coedge $-1 $124 $125 $126 $127 forward $49 $-1 #
coedge $-1 $128 $51 $129 $130 forward $31 $-1 #
coedge $-1 $51 $128 $131 $132 forward $31 $-1 #
coedge $-1 $133 $134 $51 $81 reversed $135 $-1 #
edge $-1 $136 -37.812673603710365 $137 37.812673603710365 $80 $138 forward 7 unknown #
face $-1 $139 $140 $19 $-1 $141 reversed single #
loop $-1 $-1 $142 $52 #
plane-surface $-1 0 37.812673603710365 0 0 -1 0 0 0 -1 forward_v I I I I #
coedge $-1 $88 $143 $144 $145 reversed $53 $-1 #
coedge $-1 $146 $55 $147 $148 reversed $34 $-1 #
coedge $-1 $55 $146 $149 $150 reversed $34 $-1 #
coedge $-1 $151 $85 $55 $89 reversed $53 $-1 #
edge $-1 $152 -37.812673603710365 $153 37.812673603710365 $88 $154 forward 7 unknown #
face $-1 $155 $156 $20 $-1 $157 forward single #
loop $-1 $-1 $158 $56 #
plane-surface $-1 -48.926092907479322 0 8.1795831455215886 -1 0 0 0 0 1 forward_v I I I I #
coedge $-1 $159 $160 $161 $162 reversed $57 $-1 #
coedge $-1 $95 $59 $163 $164 reversed $37 $-1 #
coedge $-1 $59 $94 $159 $165 reversed $37 $-1 #
coedge $-1 $161 $166 $59 $97 forward $167 $-1 #
edge $-1 $168 54.713035890389051 $169 58.351279055981948 $96 $170 forward 7 unknown #
loop $-1 $-1 $103 $60 #
plane-surface $-1 -42.137395978294393 -2.2626537867422059 71.198567167752799 0 0.84804810408105047 0.52991925155115449 1 0 0 forward_v I I I I #
loop $-1 $-1 $171 $39 #
coedge $-1 $101 $101 $102 $172 reversed $61 $-1 #
coedge $-1 $102 $102 $101 $172 forward $63 $-1 #
coedge $-1 $103 $103 $64 $104 forward $98 $-1 #
edge $-1 $173 1.5064360498247893e-015 $173 6.2831853071796022 $103 $174 forward 7 unknown #
face $-1 $175 $176 $22 $-1 $177 forward single #
loop $-1 $-1 $178 $65 #
plane-surface $-1 0 0 10.702878013621403 0 0 1 1 0 0 forward_v I I I I #
coedge $-1 $179 $180 $181 $182 reversed $66 $-1 #
coedge $-1 $183 $68 $184 $185 reversed $43 $-1 #
coedge $-1 $68 $183 $179 $186 forward $43 $-1 #
coedge $-1 $181 $187 $68 $112 forward $188 $-1 #
edge $-1 $189 -27.857394918332126 $190 -14.28000105996226 $111 $191 forward 7 unknown #
loop $-1 $-1 $118 $69 #
plane-surface $-1 -42.137395978294393 -37.812673603710408 7.0646348480285326 0 -0.84804810408105047 0.52991925155115449 1 0 0 forward_v I I I I #
loop $-1 $-1 $192 $45 #
coedge $-1 $116 $116 $117 $193 reversed $70 $-1 #
coedge $-1 $117 $117 $116 $193 forward $72 $-1 #
coedge $-1 $118 $118 $73 $119 forward $113 $-1 #
edge $-1 $194 -7.5715491126716166e-016 $194 6.2831853071795996 $118 $195 forward 7 unknown #
face $-1 $196 $197 $18 $-1 $198 reversed single #
loop $-1 $-1 $199 $74 #
plane-surface $-1 -56.266365550706503 0 0 1 0 0 0 0 -1 forward_v I I I I #
coedge $-1 $200 $131 $201 $202 forward $75 $-1 #
coedge $-1 $203 $77 $200 $204 forward $49 $-1 #
coedge $-1 $77 $203 $205 $206 forward $49 $-1 #
coedge $-1 $134 $133 $77 $127 reversed $135 $-1 #
edge $-1 $207 -37.812673603710365 $208 37.812673603710365 $126 $209 forward 7 unknown #
coedge $-1 $79 $78 $210 $211 forward $31 $-1 #
coedge $-1 $212 $213 $78 $130 reversed $197 $-1 #
edge $-1 $137 -56.266365550706503 $214 56.266365550706503 $129 $215 forward 7 unknown #
coedge $-1 $123 $216 $79 $132 reversed $75 $-1 #
edge $-1 $217 -56.266365550706503 $136 56.266365550706503 $131 $218 forward 7 unknown #
coedge $-1 $126 $80 $216 $219 forward $135 $-1 #
coedge $-1 $80 $126 $212 $220 reversed $135 $-1 #
loop $-1 $-1 $133 $196 #
vertex $-1 $81 $221 #
vertex $-1 $81 $222 #
straight-curve $-1 56.266365550706503 0 10.702878013621403 0 1 0 I I #
face $-1 $223 $224 $19 $-1 $225 forward single #
loop $-1 $-1 $226 $82 #
plane-surface $-1 -56.266365550706503 0 0 1 0 0 0 0 -1 forward_v I I I I #
coedge $-1 $149 $227 $151 $228 forward $83 $-1 #
coedge $-1 $85 $151 $229 $230 reversed $53 $-1 #
coedge $-1 $231 $147 $85 $145 forward $232 $-1 #
edge $-1 $153 1.5664967046609766 $233 6.613086440860612 $144 $234 forward 7 unknown #
coedge $-1 $87 $86 $226 $235 reversed $34 $-1 #
coedge $-1 $144 $236 $86 $148 forward $232 $-1 #
edge $-1 $237 -29.968250936160047 $153 -22.627978292932866 $147 $238 forward 7 unknown #
coedge $-1 $239 $142 $87 $150 forward $83 $-1 #
edge $-1 $152 22.627978292932866 $240 29.968250936160047 $149 $241 forward 7 unknown #
coedge $-1 $143 $88 $142 $228 reversed $53 $-1 #
vertex $-1 $150 $242 #
vertex $-1 $148 $243 #
straight-curve $-1 -48.926092907479322 0 5.6562882774217709 0 -1 0 I I #
face $-1 $-1 $167 $20 $-1 $244 reversed single #
loop $-1 $-1 $245 $90 #
plane-surface $-1 0 0 10.702878013621403 0 0 1 1 0 0 forward_v I I I I #
coedge $-1 $246 $247 $160 $248 forward $91 $-1 #
coedge $-1 $249 $93 $95 $165 forward $57 $-1 #
coedge $-1 $93 $249 $158 $248 reversed $57 $-1 #
coedge $-1 $250 $96 $93 $162 forward $167 $-1 #
edge $-1 $169 14.28000105996226 $251 27.857394918332126 $161 $252 forward 7 unknown #
coedge $-1 $253 $245 $94 $164 forward $156 $-1 #
edge $-1 $254 -11.046010705047202 $168 -8.7725841317265107 $163 $255 forward 7 unknown #
edge $-1 $169 -75.625347207420702 $254 -71.335209480463192 $95 $256 forward 7 unknown #
coedge $-1 $96 $250 $253 $257 reversed $167 $-1 #
loop $-1 $-1 $161 $155 #
vertex $-1 $257 $258 #
vertex $-1 $97 $259 #
straight-curve $-1 -35.348699049109456 37.812673603710365 65.415913904010452 0 0 -1 I I #
coedge $-1 $171 $171 $-1 $260 reversed $100 $-1 #
edge $-1 $261 0 $261 6.2831853071796004 $101 $262 forward 7 unknown #
vertex $-1 $104 $263 #
ellipse-curve $-1 -42.137395978294393 36.675960317050027 8.8837564308249437 0 0.84804810408105047 0.52991925155115449 1 0 0 1 I I #
face $-1 $-1 $188 $22 $-1 $264 reversed single #
loop $-1 $-1 $184 $105 #
plane-surface $-1 -48.926092907479322 0 8.1795831455215886 -1 0 0 0 0 1 forward_v I I I I #
coedge $-1 $265 $266 $180 $267 forward $106 $-1 #
coedge $-1 $180 $108 $110 $186 reversed $66 $-1 #
coedge $-1 $108 $179 $178 $267 reversed $66 $-1 #
coedge $-1 $268 $111 $108 $182 forward $188 $-1 #
edge $-1 $190 -26.284312896119719 $269 -22.646069730526918 $181 $270 forward 7 unknown #
coedge $-1 $110 $109 $265 $271 reversed $43 $-1 #
coedge $-1 $272 $273 $109 $185 forward $176 $-1 #
edge $-1 $274 6.2014590155743772 $189 10.491596742531769 $184 $275 forward 7 unknown #
edge $-1 $276 -4.2901377269574716 $190 -8.0589604402000522e-014 $179 $277 forward 7 unknown #
coedge $-1 $111 $268 $272 $278 forward $188 $-1 #
loop $-1 $-1 $181 $175 #
vertex $-1 $185 $279 #
vertex $-1 $112 $280 #
straight-curve $-1 -21.068697989147196 -37.812673603710365 7.0646348480285948 1 0 0 I I #
coedge $-1 $192 $192 $-1 $281 reversed $115 $-1 #
edge $-1 $282 0 $282 6.2831853071796004 $116 $283 forward 7 unknown #
vertex $-1 $119 $284 #
ellipse-curve $-1 -42.137395978294393 -36.675960317050063 8.8837564308249792 0 -0.84804810408105047 0.52991925155115449 1 0 0 1 I I #
face $-1 $-1 $135 $18 $-1 $285 reversed single #
loop $-1 $-1 $212 $120 #
plane-surface $-1 0 37.812673603710365 0 0 -1 0 0 0 -1 forward_v I I I I #
coedge $-1 $286 $210 $213 $287 forward $121 $-1 #
coedge $-1 $216 $123 $124 $204 reversed $75 $-1 #
coedge $-1 $210 $286 $123 $202 reversed $121 $-1 #
edge $-1 $217 -10.702878013621403 $288 10.702878013621403 $201 $289 forward 7 unknown #
coedge $-1 $125 $124 $286 $290 forward $49 $-1 #
edge $-1 $208 -56.266365550706503 $288 56.266365550706503 $200 $291 forward 7 unknown #
coedge $-1 $213 $212 $125 $206 reversed $197 $-1 #
edge $-1 $292 -56.266365550706503 $207 56.266365550706503 $205 $293 forward 7 unknown #
vertex $-1 $127 $294 #
vertex $-1 $219 $295 #
straight-curve $-1 56.266365550706503 0 -10.702878013621403 0 -1 0 I I #
coedge $-1 $199 $201 $128 $211 reversed $121 $-1 #
edge $-1 $214 -37.812673603710365 $217 37.812673603710365 $210 $296 forward 7 unknown #
coedge $-1 $205 $129 $134 $220 forward $197 $-1 #
coedge $-1 $129 $205 $199 $287 reversed $197 $-1 #
vertex $-1 $130 $297 #
straight-curve $-1 0 37.812673603710365 10.702878013621403 -1 0 0 I I #
coedge $-1 $131 $200 $133 $219 reversed $75 $-1 #
vertex $-1 $211 $298 #
straight-curve $-1 0 -37.812673603710365 10.702878013621403 1 0 0 I I #
edge $-1 $136 -10.702878013621403 $208 10.702878013621403 $133 $299 forward 7 unknown #
edge $-1 $137 -10.702878013621403 $207 10.702878013621403 $134 $300 forward 7 unknown #
point $-1 56.266365550706503 -37.812673603710365 10.702878013621403 #
point $-1 56.266365550706503 37.812673603710365 10.702878013621403 #
face $-1 $-1 $232 $19 $-1 $301 reversed single #
loop $-1 $-1 $229 $139 #
plane-surface $-1 0 0 10.702878013621403 0 0 1 1 0 0 forward_v I I I I #
coedge $-1 $302 $303 $146 $235 forward $140 $-1 #
coedge $-1 $142 $239 $304 $305 reversed $83 $-1 #
edge $-1 $306 -6.613086440860612 $152 -1.5664967046609766 $142 $307 forward 7 unknown #
coedge $-1 $304 $308 $143 $230 forward $224 $-1 #
edge $-1 $233 -37.812673603710365 $306 37.812673603710365 $229 $309 forward 7 unknown #
coedge $-1 $236 $144 $308 $310 reversed $232 $-1 #
loop $-1 $-1 $144 $223 #
vertex $-1 $145 $311 #
straight-curve $-1 -48.926092907479322 -37.812673603710365 4.0897915727607943 0 0 1 I I #
edge $-1 $240 -37.812673603710365 $237 37.812673603710365 $226 $312 forward 7 unknown #
coedge $-1 $147 $231 $302 $313 forward $232 $-1 #
vertex $-1 $235 $314 #
straight-curve $-1 -26.298114614546456 -37.812673603710365 5.6562882774217709 1 0 0 I I #
coedge $-1 $227 $149 $303 $315 reversed $83 $-1 #
vertex $-1 $235 $316 #
straight-curve $-1 -26.298114614546456 37.812673603710365 5.6562882774217709 -1 0 0 I I #
point $-1 -48.926092907479322 37.812673603710365 5.6562882774217709 #
point $-1 -48.926092907479322 -37.812673603710365 5.6562882774217709 #
plane-surface $-1 0 37.812673603710365 0 0 -1 0 0 0 -1 forward_v I I I I #
coedge $-1 $163 $317 $249 $318 forward $156 $-1 #
coedge $-1 $247 $158 $317 $319 reversed $91 $-1 #
coedge $-1 $158 $246 $250 $320 reversed $91 $-1 #
edge $-1 $251 -48.304270346242191 $321 -44.014132619284695 $158 $322 forward 7 unknown #
coedge $-1 $160 $159 $245 $318 reversed $57 $-1 #
coedge $-1 $166 $161 $247 $320 forward $167 $-1 #
vertex $-1 $320 $323 #
straight-curve $-1 -21.068697989147196 37.812673603710365 7.0646348480285113 -1 0 0 I I #
coedge $-1 $317 $163 $166 $257 forward $156 $-1 #
vertex $-1 $164 $324 #
straight-curve $-1 -35.348699049109456 46.585257735436876 10.702878013621401 0 1 0 I I #
straight-curve $-1 -35.348699049109456 -2.2626537867422059 71.198567167752799 0 -0.52991925155115449 0.84804810408105047 I I #
edge $-1 $168 35.348699049109456 $325 48.926092907479322 $166 $326 forward 7 unknown #
point $-1 -35.348699049109456 37.812673603710365 10.702878013621403 #
point $-1 -35.348699049109456 37.812673603710365 7.0646348480285042 #
edge $-1 $327 1 $327 0 $171 $-1 forward 7 unknown #
vertex $-1 $172 $328 #
ellipse-curve $-1 -42.137395978294393 33.786354226393414 7.0781302057681836 0 0.84804810408105047 0.52991925155115449 1 0 0 1 I I #
point $-1 -41.137395978294393 36.675960317050027 8.8837564308249419 #
plane-surface $-1 0 -37.812673603710365 0 0 1 0 0 0 1 forward_v I I I I #
coedge $-1 $329 $178 $183 $271 forward $106 $-1 #
coedge $-1 $178 $329 $268 $330 forward $106 $-1 #
edge $-1 $269 28.810247826952818 $276 31.083674400273452 $178 $331 forward 7 unknown #
coedge $-1 $187 $181 $266 $330 reversed $188 $-1 #
vertex $-1 $267 $332 #
straight-curve $-1 -35.348699049109456 -37.812673603710365 33.348947744148319 0 0 1 I I #
edge $-1 $276 14.28000105996226 $274 27.857394918332133 $265 $333 forward 7 unknown #
coedge $-1 $273 $184 $187 $278 reversed $176 $-1 #
coedge $-1 $184 $272 $329 $334 reversed $176 $-1 #
vertex $-1 $334 $335 #
straight-curve $-1 -48.926092907479322 -32.252974510331399 15.962013574315591 0 -0.52991925155115449 -0.84804810408105047 I I #
vertex $-1 $271 $336 #
straight-curve $-1 -35.348699049109456 -37.812673603710408 7.0646348480285326 0 -0.52991925155115449 -0.84804810408105047 I I #
edge $-1 $337 -6.613086440860612 $189 -2.9748432752678058 $187 $338 forward 7 unknown #
point $-1 -48.926092907479322 -37.812673603710365 7.0646348480286001 #
point $-1 -35.348699049109456 -37.812673603710365 7.064634848028601 #
edge $-1 $339 1 $339 0 $192 $-1 forward 7 unknown #
vertex $-1 $193 $340 #
ellipse-curve $-1 -42.137395978294393 -33.786354226393414 7.0781302057681978 0 -0.84804810408105047 0.52991925155115449 1 0 0 1 I I #
point $-1 -41.137395978294393 -36.675960317050027 8.8837564308249561 #
plane-surface $-1 56.266365550706503 0 0 -1 0 0 0 0 1 forward_v I I I I #
coedge $-1 $201 $199 $203 $290 reversed $121 $-1 #
edge $-1 $214 -10.702878013621403 $292 10.702878013621403 $213 $341 forward 7 unknown #
vertex $-1 $290 $342 #
straight-curve $-1 -56.266365550706503 -37.812673603710365 0 0 0 -1 I I #
edge $-1 $288 -37.812673603710365 $292 37.812673603710365 $286 $343 forward 7 unknown #
straight-curve $-1 0 -37.812673603710365 -10.702878013621403 -1 0 0 I I #
vertex $-1 $206 $344 #
straight-curve $-1 0 37.812673603710365 -10.702878013621403 1 0 0 I I #
point $-1 56.266365550706503 37.812673603710365 -10.702878013621403 #
point $-1 56.266365550706503 -37.812673603710365 -10.702878013621403 #
straight-curve $-1 -56.266365550706503 0 10.702878013621403 0 -1 0 I I #
point $-1 -56.266365550706503 37.812673603710365 10.702878013621403 #
point $-1 -56.266365550706503 -37.812673603710365 10.702878013621403 #
straight-curve $-1 56.266365550706503 -37.812673603710365 0 0 0 -1 I I #
straight-curve $-1 56.266365550706503 37.812673603710365 0 0 0 -1 I I #
plane-surface $-1 0 -37.812673603710365 0 0 1 0 0 0 1 forward_v I I I I #
coedge $-1 $345 $226 $236 $313 reversed $140 $-1 #
coedge $-1 $226 $345 $239 $315 forward $140 $-1 #
coedge $-1 $346 $229 $227 $305 forward $224 $-1 #
edge $-1 $306 48.926092907479322 $347 56.266365550706503 $227 $348 forward 7 unknown #
vertex $-1 $305 $349 #
straight-curve $-1 -48.926092907479322 37.812673603710365 4.0897915727607943 0 0 -1 I I #
coedge $-1 $229 $346 $231 $310 forward $224 $-1 #
straight-curve $-1 -48.926092907479322 0 10.702878013621403 0 1 0 I I #
edge $-1 $350 -56.266365550706503 $233 -48.926092907479322 $231 $351 forward 7 unknown #
point $-1 -48.926092907479322 -37.812673603710365 10.702878013621406 #
straight-curve $-1 -56.266365550706503 0 5.6562882774217709 0 -1 0 I I #
edge $-1 $350 -10.702878013621403 $237 -5.6562882774217709 $302 $352 forward 7 unknown #
point $-1 -56.266365550706503 -37.812673603710365 5.6562882774217709 #
edge $-1 $347 -10.702878013621403 $240 -5.6562882774217709 $239 $353 forward 7 unknown #
point $-1 -56.266365550706503 37.812673603710365 5.6562882774217709 #
coedge $-1 $245 $253 $246 $319 forward $156 $-1 #
edge $-1 $321 -27.857394918332126 $254 -14.28000105996226 $245 $354 forward 7 unknown #
edge $-1 $325 -37.812673603710365 $321 -35.539247030389674 $317 $355 forward 7 unknown #
edge $-1 $251 2.974843275267725 $325 6.613086440860612 $250 $356 forward 7 unknown #
vertex $-1 $248 $357 #
straight-curve $-1 -48.926092907479322 12.21531081510507 48.02897973417771 0 -0.52991925155115449 0.84804810408105047 I I #
point $-1 -48.926092907479322 37.812673603710365 7.0646348480285193 #
point $-1 -35.348699049109456 35.539247030389674 10.702878013621401 #
vertex $-1 $319 $358 #
straight-curve $-1 0 37.812673603710365 10.702878013621403 -1 0 0 I I #
vertex $-1 $260 $359 #
point $-1 -41.137395978294393 33.786354226393414 7.0781302057681836 #
coedge $-1 $266 $265 $273 $334 forward $106 $-1 #
edge $-1 $337 -48.926092907479322 $269 -35.348699049109456 $268 $360 forward 7 unknown #
straight-curve $-1 -35.348699049109456 -66.622921430663183 10.702878013621401 0 1 0 I I #
point $-1 -35.348699049109456 -37.812673603710365 10.702878013621403 #
straight-curve $-1 -21.068697989147196 -35.539247030389731 10.702878013621403 -1 0 0 I I #
edge $-1 $274 35.539247030389731 $337 37.812673603710365 $329 $361 forward 7 unknown #
point $-1 -48.92609290747933 -35.539247030389731 10.702878013621403 #
point $-1 -35.348699049109456 -35.539247030389731 10.702878013621403 #
vertex $-1 $330 $362 #
straight-curve $-1 -48.926092907479322 -37.812673603710365 4.0897915727607943 0 0 -1 I I #
vertex $-1 $281 $363 #
point $-1 -41.137395978294393 -33.786354226393414 7.0781302057681978 #
straight-curve $-1 -56.266365550706503 37.812673603710365 0 0 0 -1 I I #
point $-1 -56.266365550706503 -37.812673603710365 -10.702878013621403 #
straight-curve $-1 -56.266365550706503 0 -10.702878013621403 0 1 0 I I #
point $-1 -56.266365550706503 37.812673603710365 -10.702878013621403 #
coedge $-1 $303 $302 $346 $364 reversed $140 $-1 #
coedge $-1 $308 $304 $345 $364 forward $224 $-1 #
vertex $-1 $305 $365 #
straight-curve $-1 0 37.812673603710365 10.702878013621403 -1 0 0 I I #
point $-1 -48.926092907479322 37.812673603710365 10.702878013621406 #
vertex $-1 $364 $366 #
straight-curve $-1 0 -37.812673603710365 10.702878013621403 1 0 0 I I #
straight-curve $-1 -56.266365550706503 -37.812673603710365 0 0 0 -1 I I #
straight-curve $-1 -56.266365550706503 37.812673603710365 0 0 0 -1 I I #
straight-curve $-1 -21.068697989147196 35.539247030389674 10.702878013621401 1 0 0 I I #
straight-curve $-1 -48.926092907479322 0 10.702878013621403 0 -1 0 I I #
straight-curve $-1 -48.926092907479322 37.812673603710365 4.0897915727607943 0 0 1 I I #
point $-1 -48.926092907479322 35.539247030389674 10.702878013621403 #
point $-1 -48.926092907479322 37.812673603710365 10.702878013621406 #
point $-1 -42.137395978294393 32.938306122312369 6.548210954217029 #
straight-curve $-1 0 -37.812673603710365 10.702878013621403 1 0 0 I I #
straight-curve $-1 -48.926092907479322 0 10.702878013621403 0 -1 0 I I #
point $-1 -48.926092907479322 -37.812673603710365 10.702878013621406 #
point $-1 -42.137395978294393 -32.938306122312369 6.5482109542170432 #
edge $-1 $347 -37.812673603710365 $350 37.812673603710365 $345 $367 forward 7 unknown #
point $-1 -56.266365550706503 37.812673603710365 10.702878013621403 #
point $-1 -56.266365550706503 -37.812673603710365 10.702878013621403 #
straight-curve $-1 -56.266365550706503 0 10.702878013621403 0 -1 0 I I #
End-of-ACIS-data 