500 0 8 0           
7 Unknown 11 ACIS 5.0 NT 24 Thu Mar 25 22:10:54 1999 
-1 9.9999999999999995e-007 1e-010 
body $-1 $8 $-1 $9 #
body $-1 $10 $-1 $11 #
body $-1 $12 $-1 $13 #
body $-1 $14 $-1 $15 #
body $-1 $16 $-1 $17 #
body $-1 $18 $-1 $19 #
body $-1 $20 $-1 $21 #
body $-1 $22 $-1 $23 #
lump $-1 $-1 $24 $0 #
transform $-1 1 0 0 0 1 0 0 0 1 52.427137058626059 32.882520522905949 15.41796529465079 1 rotate no_reflect no_shear #
lump $-1 $-1 $25 $1 #
transform $-1 1 0 0 0 1 0 0 0 1 52.427137058626059 32.882520522905949 15.41796529465079 1 rotate no_reflect no_shear #
lump $-1 $-1 $26 $2 #
transform $-1 1 0 0 0 1 0 0 0 1 52.427137058626059 32.882520522905949 15.41796529465079 1 rotate no_reflect no_shear #
lump $-1 $-1 $27 $3 #
transform $-1 1 0 0 0 1 0 0 0 1 52.427137058626059 32.882520522905949 15.41796529465079 1 rotate no_reflect no_shear #
lump $-1 $-1 $28 $4 #
transform $-1 1 0 0 0 1 0 0 0 1 52.427137058626059 32.882520522905949 15.41796529465079 1 rotate no_reflect no_shear #
lump $-1 $-1 $29 $5 #
transform $-1 1 0 0 0 1 0 0 0 1 52.427137058626059 32.882520522905949 15.41796529465079 1 rotate no_reflect no_shear #
lump $-1 $-1 $30 $6 #
transform $-1 1 0 0 0 1 0 0 0 1 52.427137058626059 32.882520522905949 15.41796529465079 1 rotate no_reflect no_shear #
lump $-1 $-1 $31 $7 #
transform $-1 1 0 0 0 1 0 0 0 1 52.427137058626059 32.882520522905949 15.41796529465079 1 rotate no_reflect no_shear #
shell $-1 $-1 $-1 $32 $-1 $8 #
shell $-1 $-1 $-1 $33 $-1 $10 #
shell $-1 $-1 $-1 $34 $-1 $12 #
shell $-1 $-1 $-1 $35 $-1 $14 #
shell $-1 $-1 $-1 $36 $-1 $16 #
shell $-1 $-1 $-1 $37 $-1 $18 #
shell $-1 $-1 $-1 $38 $-1 $20 #
shell $-1 $-1 $-1 $39 $-1 $22 #
face $-1 $40 $41 $24 $-1 $42 forward single #
face $-1 $43 $44 $25 $-1 $45 forward single #
face $-1 $46 $47 $26 $-1 $48 reversed single #
face $-1 $49 $50 $27 $-1 $51 forward single #
face $-1 $52 $53 $28 $-1 $54 forward single #
face $-1 $55 $56 $29 $-1 $57 reversed single #
face $-1 $58 $59 $30 $-1 $60 forward single #
face $-1 $61 $62 $31 $-1 $63 forward single #
face $-1 $64 $65 $24 $-1 $66 reversed single #
loop $-1 $-1 $67 $32 #
plane-surface $-1 0 0 15.41796529465079 0 0 1 1 0 0 forward_v I I I I #
face $-1 $68 $69 $25 $-1 $70 forward single #
loop $-1 $-1 $71 $33 #
plane-surface $-1 0 -32.882520522905949 0 0 1 0 0 0 1 forward_v I I I I #
face $-1 $72 $73 $26 $-1 $74 reversed single #
loop $-1 $-1 $75 $34 #
plane-surface $-1 -14.907182103189768 83.035310793634366 113.95396145513091 1 0 0 0 -0.82903758062907751 -0.55919289150049634 forward_v I I I I #
face $-1 $76 $77 $27 $-1 $78 forward single #
loop $-1 $79 $80 $35 #
cone-surface $-1 -10.647987216564118 27.116708315797432 7.5447934915324977 0 -0.82903758062907751 -0.55919289150049634 2 0 0 1 I I 0 1 2 forward I I I I #
face $-1 $81 $82 $28 $-1 $83 forward single #
loop $-1 $84 $85 $36 #
cone-surface $-1 -4.2591948866256502 27.116708315797432 7.5447934915324977 0 -0.82903758062907751 -0.55919289150049634 2 0 0 1 I I 0 1 2 forward I I I I #
face $-1 $86 $87 $29 $-1 $88 reversed single #
loop $-1 $-1 $89 $37 #
plane-surface $-1 -7.4535910515948842 -3.8928229391504345 55.320196725319043 0 0.82903758062907751 0.55919289150049634 1 0 0 forward_v I I I I #
face $-1 $90 $91 $30 $-1 $92 forward single #
loop $-1 $93 $94 $38 #
cone-surface $-1 4.2591948866256502 27.116708315797432 7.5447934915324977 0 -0.82903758062907751 -0.55919289150049634 2 0 0 1 I I 0 1 2 forward I I I I #
face $-1 $95 $96 $31 $-1 $97 forward single #
loop $-1 $98 $99 $39 #
cone-surface $-1 10.647987216564118 27.116708315797432 7.5447934915324977 0 -0.82903758062907751 -0.55919289150049634 2 0 0 1 I I 0 1 2 forward I I I I #
face $-1 $100 $101 $24 $-1 $102 reversed single #
loop $-1 $-1 $103 $40 #
plane-surface $-1 0 0 -15.41796529465079 0 0 1 1 0 0 forward_v I I I I #
coedge $-1 $104 $105 $106 $107 forward $41 $-1 #
face $-1 $108 $109 $25 $-1 $110 reversed single #
loop $-1 $-1 $111 $43 #
plane-surface $-1 0 0 15.41796529465079 0 0 1 1 0 0 forward_v I I I I #
coedge $-1 $112 $113 $114 $115 forward $44 $-1 #
face $-1 $116 $117 $26 $-1 $118 reversed single #
loop $-1 $-1 $119 $46 #
plane-surface $-1 -7.4535910515948842 -3.8928229391504345 55.320196725319043 0 0.82903758062907751 0.55919289150049634 1 0 0 forward_v I I I I #
coedge $-1 $120 $121 $122 $123 reversed $47 $-1 #
face $-1 $-1 $124 $27 $-1 $125 forward single #
loop $-1 $126 $127 $49 #
cone-surface $-1 -10.647987216564118 25.452333207715441 6.4221583408755212 0 -0.82903758062907751 -0.55919289150049634 1 0 0 1 I I -0.70710678118654746 0.70710678118654746 1 forward I I I I #
loop $-1 $-1 $128 $35 #
coedge $-1 $80 $80 $129 $130 reversed $50 $-1 #
face $-1 $-1 $131 $28 $-1 $132 forward single #
loop $-1 $133 $134 $52 #
cone-surface $-1 -4.2591948866256502 25.452333207715441 6.4221583408755212 0 -0.82903758062907751 -0.55919289150049634 1 0 0 1 I I -0.70710678118654746 0.70710678118654746 1 forward I I I I #
loop $-1 $-1 $135 $36 #
coedge $-1 $85 $85 $136 $137 reversed $53 $-1 #
face $-1 $138 $139 $29 $-1 $140 forward single #
loop $-1 $-1 $141 $55 #
plane-surface $-1 14.907182103189768 83.035310793634366 113.95396145513091 -1 0 0 0 0.82903758062907751 0.55919289150049634 forward_v I I I I #
coedge $-1 $142 $143 $144 $145 reversed $56 $-1 #
face $-1 $-1 $146 $30 $-1 $147 forward single #
loop $-1 $148 $149 $58 #
cone-surface $-1 4.2591948866256502 25.452333207715441 6.4221583408755212 0 -0.82903758062907751 -0.55919289150049634 1 0 0 1 I I -0.70710678118654746 0.70710678118654746 1 forward I I I I #
loop $-1 $-1 $150 $38 #
coedge $-1 $94 $94 $151 $152 reversed $59 $-1 #
face $-1 $-1 $153 $31 $-1 $154 forward single #
loop $-1 $155 $156 $61 #
cone-surface $-1 10.647987216564118 25.452333207715441 6.4221583408755212 0 -0.82903758062907751 -0.55919289150049634 1 0 0 1 I I -0.70710678118654746 0.70710678118654746 1 forward I I I I #
loop $-1 $-1 $157 $39 #
coedge $-1 $99 $99 $158 $159 reversed $62 $-1 #
face $-1 $160 $161 $24 $-1 $162 reversed single #
loop $-1 $-1 $163 $64 #
plane-surface $-1 0 -32.882520522905949 0 0 1 0 0 0 1 forward_v I I I I #
coedge $-1 $164 $165 $166 $167 forward $65 $-1 #
coedge $-1 $168 $67 $169 $170 forward $41 $-1 #
coedge $-1 $67 $168 $171 $172 forward $41 $-1 #
coedge $-1 $173 $174 $67 $107 reversed $175 $-1 #
edge $-1 $176 -32.882520522905949 $177 32.882520522905949 $106 $178 forward 7 unknown #
face $-1 $179 $180 $25 $-1 $181 reversed single #
loop $-1 $-1 $182 $68 #
plane-surface $-1 -52.427137058626059 0 0 1 0 0 0 0 -1 forward_v I I I I #
coedge $-1 $183 $184 $113 $185 forward $69 $-1 #
coedge $-1 $186 $71 $187 $188 reversed $44 $-1 #
coedge $-1 $71 $186 $111 $185 reversed $44 $-1 #
coedge $-1 $189 $190 $71 $115 reversed $191 $-1 #
edge $-1 $192 -15.41796529465079 $193 15.41796529465079 $114 $194 forward 7 unknown #
face $-1 $195 $196 $26 $-1 $197 reversed single #
loop $-1 $-1 $198 $72 #
plane-surface $-1 0 83.035310793634366 113.95396145513091 -1 0 0 0 0.82903758062907751 0.55919289150049634 forward_v I I I I #
coedge $-1 $199 $200 $201 $202 reversed $73 $-1 #
coedge $-1 $121 $75 $203 $204 reversed $47 $-1 #
coedge $-1 $75 $120 $199 $205 reversed $47 $-1 #
coedge $-1 $201 $206 $75 $123 forward $207 $-1 #
edge $-1 $208 8.6351348739112339 $209 18.496084233222447 $122 $210 forward 7 unknown #
loop $-1 $-1 $129 $76 #
plane-surface $-1 -7.4535910515948842 -3.8928229391504345 55.320196725319043 0 0.82903758062907751 0.55919289150049634 1 0 0 forward_v I I I I #
loop $-1 $-1 $211 $49 #
coedge $-1 $127 $127 $128 $212 reversed $77 $-1 #
coedge $-1 $128 $128 $127 $212 forward $79 $-1 #
coedge $-1 $129 $129 $80 $130 forward $124 $-1 #
edge $-1 $213 0 $213 6.2831853071796004 $129 $214 forward 7 unknown #
loop $-1 $-1 $136 $81 #
plane-surface $-1 -7.4535910515948842 -3.8928229391504345 55.320196725319043 0 0.82903758062907751 0.55919289150049634 1 0 0 forward_v I I I I #
loop $-1 $-1 $215 $52 #
coedge $-1 $134 $134 $135 $216 reversed $82 $-1 #
coedge $-1 $135 $135 $134 $216 forward $84 $-1 #
coedge $-1 $136 $136 $85 $137 forward $131 $-1 #
edge $-1 $217 0 $217 6.2831853071796004 $136 $218 forward 7 unknown #
face $-1 $219 $220 $29 $-1 $221 forward single #
loop $-1 $-1 $222 $86 #
plane-surface $-1 0 0 15.41796529465079 0 0 1 1 0 0 forward_v I I I I #
coedge $-1 $223 $224 $225 $226 reversed $87 $-1 #
coedge $-1 $227 $89 $228 $229 reversed $56 $-1 #
coedge $-1 $89 $227 $222 $230 reversed $56 $-1 #
coedge $-1 $231 $232 $89 $145 forward $220 $-1 #
edge $-1 $233 -65.765041045811898 $234 -48.13078726828072 $144 $235 forward 7 unknown #
loop $-1 $-1 $151 $90 #
plane-surface $-1 -7.4535910515948842 -3.8928229391504345 55.320196725319043 0 0.82903758062907751 0.55919289150049634 1 0 0 forward_v I I I I #
loop $-1 $-1 $236 $58 #
coedge $-1 $149 $149 $150 $237 reversed $91 $-1 #
coedge $-1 $150 $150 $149 $237 forward $93 $-1 #
coedge $-1 $151 $151 $94 $152 forward $146 $-1 #
edge $-1 $238 0 $238 6.2831853071796004 $151 $239 forward 7 unknown #
loop $-1 $-1 $158 $95 #
plane-surface $-1 -7.4535910515948842 -3.8928229391504345 55.320196725319043 0 0.82903758062907751 0.55919289150049634 1 0 0 forward_v I I I I #
loop $-1 $-1 $240 $61 #
coedge $-1 $156 $156 $157 $241 reversed $96 $-1 #
coedge $-1 $157 $157 $156 $241 forward $98 $-1 #
coedge $-1 $158 $158 $99 $159 forward $153 $-1 #
edge $-1 $242 0 $242 6.2831853071796004 $158 $243 forward 7 unknown #
face $-1 $244 $245 $24 $-1 $246 reversed single #
loop $-1 $-1 $247 $100 #
plane-surface $-1 -52.427137058626059 0 0 1 0 0 0 0 -1 forward_v I I I I #
coedge $-1 $248 $171 $249 $250 forward $101 $-1 #
coedge $-1 $251 $103 $248 $252 forward $65 $-1 #
coedge $-1 $103 $251 $253 $254 forward $65 $-1 #
coedge $-1 $174 $173 $103 $167 reversed $175 $-1 #
edge $-1 $255 -32.882520522905949 $256 32.882520522905949 $166 $257 forward 7 unknown #
coedge $-1 $105 $104 $258 $259 forward $41 $-1 #
coedge $-1 $260 $261 $104 $170 reversed $245 $-1 #
edge $-1 $177 -52.427137058626059 $262 52.427137058626059 $169 $263 forward 7 unknown #
coedge $-1 $163 $264 $105 $172 reversed $101 $-1 #
edge $-1 $265 -52.427137058626059 $176 52.427137058626059 $171 $266 forward 7 unknown #
coedge $-1 $166 $106 $264 $267 forward $175 $-1 #
coedge $-1 $106 $166 $260 $268 reversed $175 $-1 #
loop $-1 $-1 $173 $244 #
vertex $-1 $107 $269 #
vertex $-1 $107 $270 #
straight-curve $-1 52.427137058626059 0 15.41796529465079 0 1 0 I I #
face $-1 $271 $191 $25 $-1 $272 reversed single #
loop $-1 $-1 $273 $108 #
plane-surface $-1 -49.462165449654137 -47.683738973771511 0 0 1 0 0 0 1 forward_v I I I I #
coedge $-1 $274 $275 $186 $276 forward $109 $-1 #
coedge $-1 $277 $111 $275 $278 forward $69 $-1 #
coedge $-1 $111 $277 $189 $279 forward $69 $-1 #
edge $-1 $192 46.497193840682215 $280 52.427137058626059 $111 $281 forward 7 unknown #
coedge $-1 $113 $112 $182 $276 reversed $44 $-1 #
coedge $-1 $282 $283 $112 $188 forward $284 $-1 #
edge $-1 $285 -52.427137058626059 $193 -46.497193840682215 $187 $286 forward 7 unknown #
coedge $-1 $287 $114 $184 $279 reversed $191 $-1 #
coedge $-1 $114 $287 $282 $288 reversed $191 $-1 #
loop $-1 $-1 $287 $179 #
vertex $-1 $185 $289 #
vertex $-1 $288 $290 #
straight-curve $-1 -46.497193840682215 -32.882520522905949 0 0 0 -1 I I #
face $-1 $-1 $207 $26 $-1 $291 forward single #
loop $-1 $-1 $292 $116 #
plane-surface $-1 0 32.882520522905949 0 0 -1 0 0 0 -1 forward_v I I I I #
coedge $-1 $293 $294 $295 $296 reversed $117 $-1 #
coedge $-1 $297 $119 $121 $205 forward $73 $-1 #
coedge $-1 $119 $297 $293 $298 forward $73 $-1 #
coedge $-1 $295 $122 $119 $202 forward $207 $-1 #
edge $-1 $209 -11.180386577392326 $299 3.7267955257974421 $201 $300 forward 7 unknown #
coedge $-1 $301 $302 $120 $204 forward $196 $-1 #
edge $-1 $303 -56.178474520838286 $208 -41.559015432914663 $203 $304 forward 7 unknown #
edge $-1 $209 48.13078726828072 $303 65.765041045811898 $121 $305 forward 7 unknown #
coedge $-1 $122 $295 $301 $306 forward $207 $-1 #
loop $-1 $-1 $295 $195 #
vertex $-1 $204 $307 #
vertex $-1 $123 $308 #
straight-curve $-1 -14.907182103189768 41.517655396817183 15.417965294650791 0 -1 0 I I #
coedge $-1 $211 $211 $-1 $309 reversed $126 $-1 #
edge $-1 $310 0 $310 6.2831853071796004 $127 $311 forward 7 unknown #
vertex $-1 $130 $312 #
ellipse-curve $-1 -10.647987216564118 27.952045843250346 8.1082357506889782 0 0.82903758062907751 0.55919289150049634 2 0 0 1 I I #
coedge $-1 $215 $215 $-1 $313 reversed $133 $-1 #
edge $-1 $314 0 $314 6.2831853071796004 $134 $315 forward 7 unknown #
vertex $-1 $137 $316 #
ellipse-curve $-1 -4.2591948866256502 27.952045843250346 8.1082357506889782 0 0.82903758062907751 0.55919289150049634 2 0 0 1 I I #
face $-1 $-1 $317 $29 $-1 $318 reversed single #
loop $-1 $-1 $231 $138 #
plane-surface $-1 0 83.035310793634366 113.95396145513091 -1 0 0 0 0.82903758062907751 0.55919289150049634 forward_v I I I I #
coedge $-1 $225 $319 $143 $230 forward $139 $-1 #
coedge $-1 $224 $141 $227 $320 reversed $87 $-1 #
coedge $-1 $141 $223 $321 $322 reversed $87 $-1 #
coedge $-1 $323 $222 $141 $226 forward $139 $-1 #
edge $-1 $324 -18.496084233222447 $325 -8.6351348739112339 $225 $326 forward 7 unknown #
coedge $-1 $143 $142 $223 $320 forward $56 $-1 #
coedge $-1 $327 $321 $142 $229 forward $317 $-1 #
edge $-1 $328 -18.633977628987211 $233 -3.7267955257974421 $228 $329 forward 7 unknown #
edge $-1 $234 3.7267955257974421 $324 18.633977628987211 $222 $330 forward 7 unknown #
coedge $-1 $232 $144 $319 $331 reversed $220 $-1 #
coedge $-1 $144 $231 $327 $332 reversed $220 $-1 #
vertex $-1 $229 $333 #
vertex $-1 $230 $334 #
straight-curve $-1 0 -3.8928229391504345 55.320196725319043 0 -0.55919289150049634 0.82903758062907751 I I #
coedge $-1 $236 $236 $-1 $335 reversed $148 $-1 #
edge $-1 $336 0 $336 6.2831853071796004 $149 $337 forward 7 unknown #
vertex $-1 $152 $338 #
ellipse-curve $-1 4.2591948866256502 27.952045843250346 8.1082357506889782 0 0.82903758062907751 0.55919289150049634 2 0 0 1 I I #
coedge $-1 $240 $240 $-1 $339 reversed $155 $-1 #
edge $-1 $340 0 $340 6.2831853071796004 $156 $341 forward 7 unknown #
vertex $-1 $159 $342 #
ellipse-curve $-1 10.647987216564118 27.952045843250346 8.1082357506889782 0 0.82903758062907751 0.55919289150049634 2 0 0 1 I I #
face $-1 $-1 $175 $24 $-1 $343 reversed single #
loop $-1 $-1 $260 $160 #
plane-surface $-1 0 32.882520522905949 0 0 -1 0 0 0 -1 forward_v I I I I #
coedge $-1 $344 $258 $261 $345 forward $161 $-1 #
coedge $-1 $264 $163 $164 $252 reversed $101 $-1 #
coedge $-1 $258 $344 $163 $250 reversed $161 $-1 #
edge $-1 $265 -15.41796529465079 $346 15.41796529465079 $249 $347 forward 7 unknown #
coedge $-1 $165 $164 $344 $348 forward $65 $-1 #
edge $-1 $256 -52.427137058626059 $346 52.427137058626059 $248 $349 forward 7 unknown #
coedge $-1 $261 $260 $165 $254 reversed $245 $-1 #
edge $-1 $350 -52.427137058626059 $255 52.427137058626059 $253 $351 forward 7 unknown #
vertex $-1 $167 $352 #
vertex $-1 $267 $353 #
straight-curve $-1 52.427137058626059 0 -15.41796529465079 0 -1 0 I I #
coedge $-1 $247 $249 $168 $259 reversed $161 $-1 #
edge $-1 $262 -32.882520522905949 $265 32.882520522905949 $258 $354 forward 7 unknown #
coedge $-1 $253 $169 $174 $268 forward $245 $-1 #
coedge $-1 $169 $253 $247 $345 reversed $245 $-1 #
vertex $-1 $170 $355 #
straight-curve $-1 0 32.882520522905949 15.41796529465079 -1 0 0 I I #
coedge $-1 $171 $248 $173 $267 reversed $101 $-1 #
vertex $-1 $259 $356 #
straight-curve $-1 0 -32.882520522905949 15.41796529465079 1 0 0 I I #
edge $-1 $176 -15.41796529465079 $256 15.41796529465079 $173 $357 forward 7 unknown #
edge $-1 $177 -15.41796529465079 $255 15.41796529465079 $174 $358 forward 7 unknown #
point $-1 52.427137058626059 -32.882520522905949 15.41796529465079 #
point $-1 52.427137058626059 32.882520522905949 15.41796529465079 #
face $-1 $-1 $284 $25 $-1 $359 reversed single #
plane-surface $-1 -46.497193840682215 -40.28312974833873 0 -1 0 0 0 0 1 forward_v I I I I #
coedge $-1 $360 $361 $362 $363 forward $180 $-1 #
coedge $-1 $362 $182 $283 $364 reversed $109 $-1 #
coedge $-1 $182 $362 $183 $278 reversed $109 $-1 #
edge $-1 $280 -15.41796529465079 $285 15.41796529465079 $182 $365 forward 7 unknown #
coedge $-1 $184 $183 $361 $366 forward $69 $-1 #
edge $-1 $280 32.882520522905949 $367 47.683738973771511 $275 $368 forward 7 unknown #
edge $-1 $369 -7.4006092254327811 $192 7.4006092254327811 $189 $370 forward 7 unknown #
vertex $-1 $278 $371 #
straight-curve $-1 0 -32.882520522905949 15.41796529465079 -1 0 0 I I #
coedge $-1 $372 $187 $190 $288 forward $284 $-1 #
coedge $-1 $187 $372 $274 $364 forward $284 $-1 #
loop $-1 $-1 $187 $271 #
vertex $-1 $276 $373 #
straight-curve $-1 0 -32.882520522905949 -15.41796529465079 1 0 0 I I #
coedge $-1 $190 $189 $374 $375 forward $191 $-1 #
edge $-1 $193 -7.4006092254327811 $376 7.4006092254327811 $190 $377 forward 7 unknown #
point $-1 -46.497193840682215 -32.882520522905949 15.41796529465079 #
point $-1 -46.497193840682215 -32.882520522905949 -15.41796529465079 #
plane-surface $-1 0 0 15.41796529465079 0 0 1 1 0 0 forward_v I I I I #
coedge $-1 $302 $301 $294 $378 forward $196 $-1 #
coedge $-1 $294 $198 $200 $298 reversed $117 $-1 #
coedge $-1 $198 $293 $292 $378 reversed $117 $-1 #
coedge $-1 $206 $201 $198 $296 forward $207 $-1 #
edge $-1 $299 -18.496084233222447 $379 -8.6351348739112339 $295 $380 forward 7 unknown #
coedge $-1 $200 $199 $302 $381 reversed $73 $-1 #
edge $-1 $382 -65.765041045811898 $299 -48.13078726828072 $293 $383 forward 7 unknown #
vertex $-1 $202 $384 #
straight-curve $-1 -3.7267955257974421 23.021571163594732 15.417965294650795 1 0 0 I I #
coedge $-1 $292 $203 $206 $306 reversed $196 $-1 #
coedge $-1 $203 $292 $297 $381 forward $196 $-1 #
vertex $-1 $204 $385 #
straight-curve $-1 -14.907182103189768 32.882520522905949 56.976980727565454 0 0 1 I I #
straight-curve $-1 -14.907182103189768 -3.8928229391504345 55.320196725319043 0 0.55919289150049634 -0.82903758062907751 I I #
edge $-1 $379 0 $208 14.907182103189768 $301 $386 forward 7 unknown #
point $-1 -14.907182103189768 32.882520522905949 15.41796529465079 #
point $-1 -14.907182103189768 23.021571163594736 15.417965294650791 #
edge $-1 $387 1 $387 0 $211 $-1 forward 7 unknown #
vertex $-1 $212 $388 #
ellipse-curve $-1 -10.647987216564118 26.281370788344518 6.9813512323760172 0 0.82903758062907751 0.55919289150049634 2 0 0 1 I I #
point $-1 -8.6479872165641183 27.952045843250346 8.1082357506889782 #
edge $-1 $389 1 $389 0 $215 $-1 forward 7 unknown #
vertex $-1 $216 $390 #
ellipse-curve $-1 -4.2591948866256502 26.281370788344518 6.9813512323760172 0 0.82903758062907751 0.55919289150049634 2 0 0 1 I I #
point $-1 -2.2591948866256502 27.952045843250346 8.1082357506889782 #
loop $-1 $-1 $228 $219 #
plane-surface $-1 0 32.882520522905949 0 0 -1 0 0 0 -1 forward_v I I I I #
coedge $-1 $222 $323 $231 $331 forward $139 $-1 #
edge $-1 $328 -65.765041045811898 $324 -48.13078726828072 $223 $391 forward 7 unknown #
coedge $-1 $228 $392 $224 $322 forward $317 $-1 #
edge $-1 $325 41.559015432914663 $328 56.178474520838286 $321 $393 forward 7 unknown #
coedge $-1 $319 $225 $392 $394 forward $139 $-1 #
vertex $-1 $226 $395 #
vertex $-1 $394 $396 #
straight-curve $-1 14.907182103189768 41.517655396817183 15.417965294650791 0 1 0 I I #
coedge $-1 $392 $228 $232 $332 forward $317 $-1 #
vertex $-1 $322 $397 #
straight-curve $-1 -3.7267955257974421 32.882520522905949 0.79850620672715777 -1 0 0 I I #
straight-curve $-1 -3.7267955257974421 23.021571163594732 15.417965294650795 1 0 0 I I #
edge $-1 $398 8.6351348739112339 $234 18.496084233222447 $319 $399 forward 7 unknown #
edge $-1 $233 -56.178474520838286 $398 -41.559015432914663 $327 $400 forward 7 unknown #
point $-1 0 32.882520522905949 0.79850620672716843 #
point $-1 0 23.021571163594736 15.417965294650791 #
edge $-1 $401 1 $401 0 $236 $-1 forward 7 unknown #
vertex $-1 $237 $402 #
ellipse-curve $-1 4.2591948866256502 26.281370788344518 6.9813512323760172 0 0.82903758062907751 0.55919289150049634 2 0 0 1 I I #
point $-1 6.2591948866256502 27.952045843250346 8.1082357506889782 #
edge $-1 $403 1 $403 0 $240 $-1 forward 7 unknown #
vertex $-1 $241 $404 #
ellipse-curve $-1 10.647987216564118 26.281370788344518 6.9813512323760172 0 0.82903758062907751 0.55919289150049634 2 0 0 1 I I #
point $-1 12.647987216564118 27.952045843250346 8.1082357506889782 #
plane-surface $-1 52.427137058626059 0 0 -1 0 0 0 0 1 forward_v I I I I #
coedge $-1 $249 $247 $251 $348 reversed $161 $-1 #
edge $-1 $262 -15.41796529465079 $350 15.41796529465079 $261 $405 forward 7 unknown #
vertex $-1 $348 $406 #
straight-curve $-1 -52.427137058626059 -32.882520522905949 0 0 0 -1 I I #
edge $-1 $346 -32.882520522905949 $350 32.882520522905949 $344 $407 forward 7 unknown #
straight-curve $-1 0 -32.882520522905949 -15.41796529465079 -1 0 0 I I #
vertex $-1 $254 $408 #
straight-curve $-1 0 32.882520522905949 -15.41796529465079 1 0 0 I I #
point $-1 52.427137058626059 32.882520522905949 -15.41796529465079 #
point $-1 52.427137058626059 -32.882520522905949 -15.41796529465079 #
straight-curve $-1 -52.427137058626059 0 15.41796529465079 0 -1 0 I I #
point $-1 -52.427137058626059 32.882520522905949 15.41796529465079 #
point $-1 -52.427137058626059 -32.882520522905949 15.41796529465079 #
straight-curve $-1 52.427137058626059 -32.882520522905949 0 0 0 -1 I I #
straight-curve $-1 52.427137058626059 32.882520522905949 0 0 0 -1 I I #
plane-surface $-1 0 0 -15.41796529465079 0 0 1 1 0 0 forward_v I I I I #
coedge $-1 $374 $273 $372 $409 reversed $180 $-1 #
coedge $-1 $273 $374 $277 $366 reversed $180 $-1 #
coedge $-1 $275 $274 $273 $363 reversed $109 $-1 #
edge $-1 $367 -15.41796529465079 $410 15.41796529465079 $362 $411 forward 7 unknown #
edge $-1 $410 -47.683738973771511 $285 -32.882520522905949 $274 $412 forward 7 unknown #
straight-curve $-1 -52.427137058626059 -32.882520522905949 0 0 0 -1 I I #
edge $-1 $367 -2.964971608971922 $369 2.964971608971922 $361 $413 forward 7 unknown #
vertex $-1 $278 $414 #
straight-curve $-1 -52.427137058626059 0 15.41796529465079 0 -1 0 I I #
vertex $-1 $279 $415 #
straight-curve $-1 -46.497193840682215 -40.28312974833873 15.41796529465079 0 1 0 I I #
point $-1 -52.427137058626059 -32.882520522905949 15.41796529465079 #
coedge $-1 $283 $282 $360 $409 forward $284 $-1 #
point $-1 -52.427137058626059 -32.882520522905949 -15.41796529465079 #
coedge $-1 $361 $360 $287 $375 reversed $180 $-1 #
edge $-1 $369 -15.41796529465079 $376 15.41796529465079 $287 $416 forward 7 unknown #
vertex $-1 $375 $417 #
straight-curve $-1 -46.497193840682215 -40.28312974833873 -15.41796529465079 0 -1 0 I I #
edge $-1 $379 41.559015432914663 $382 56.178474520838286 $292 $418 forward 7 unknown #
vertex $-1 $306 $419 #
straight-curve $-1 0 41.517655396817183 15.417965294650791 0 1 0 I I #
edge $-1 $382 -3.7267955257974421 $303 11.180386577392326 $302 $420 forward 7 unknown #
vertex $-1 $381 $421 #
straight-curve $-1 0 -3.8928229391504345 55.320196725319043 0 -0.55919289150049634 0.82903758062907751 I I #
point $-1 0 23.021571163594736 15.417965294650791 #
point $-1 -14.907182103189768 32.882520522905949 0.79850620672716843 #
straight-curve $-1 0 32.882520522905949 15.41796529465079 -1 0 0 I I #
vertex $-1 $309 $422 #
point $-1 -8.6479872165641183 26.281370788344518 6.9813512323760172 #
vertex $-1 $313 $423 #
point $-1 -2.2591948866256502 26.281370788344518 6.9813512323760172 #
straight-curve $-1 14.907182103189768 -3.8928229391504345 55.320196725319043 0 -0.55919289150049634 0.82903758062907751 I I #
coedge $-1 $321 $327 $323 $394 reversed $317 $-1 #
straight-curve $-1 14.907182103189768 32.882520522905949 56.976980727565454 0 0 -1 I I #
edge $-1 $325 -14.907182103189768 $398 0 $392 $424 forward 7 unknown #
point $-1 14.907182103189768 23.021571163594736 15.417965294650791 #
point $-1 14.907182103189768 32.882520522905949 15.41796529465079 #
point $-1 14.907182103189768 32.882520522905949 0.79850620672716843 #
vertex $-1 $332 $425 #
straight-curve $-1 0 41.517655396817183 15.417965294650791 0 -1 0 I I #
straight-curve $-1 0 32.882520522905949 56.976980727565454 0 0 1 I I #
vertex $-1 $335 $426 #
point $-1 6.2591948866256502 26.281370788344518 6.9813512323760172 #
vertex $-1 $339 $427 #
point $-1 12.647987216564118 26.281370788344518 6.9813512323760172 #
straight-curve $-1 -52.427137058626059 32.882520522905949 0 0 0 -1 I I #
point $-1 -52.427137058626059 -32.882520522905949 -15.41796529465079 #
straight-curve $-1 -52.427137058626059 0 -15.41796529465079 0 1 0 I I #
point $-1 -52.427137058626059 32.882520522905949 -15.41796529465079 #
edge $-1 $376 -2.964971608971922 $410 2.964971608971922 $360 $428 forward 7 unknown #
vertex $-1 $364 $429 #
straight-curve $-1 -52.427137058626059 -47.683738973771511 0 0 0 -1 I I #
straight-curve $-1 -52.427137058626059 0 -15.41796529465079 0 1 0 I I #
straight-curve $-1 -49.462165449654137 -47.683738973771511 15.41796529465079 1 0 0 I I #
point $-1 -52.427137058626059 -47.683738973771511 15.41796529465079 #
point $-1 -46.497193840682215 -47.683738973771511 15.41796529465079 #
straight-curve $-1 -46.497193840682215 -47.683738973771511 0 0 0 -1 I I #
point $-1 -46.497193840682215 -47.683738973771511 -15.41796529465079 #
straight-curve $-1 0 32.882520522905949 56.976980727565454 0 0 -1 I I #
point $-1 0 32.882520522905949 15.41796529465079 #
straight-curve $-1 -3.7267955257974421 32.882520522905949 0.79850620672715777 -1 0 0 I I #
point $-1 0 32.882520522905949 0.79850620672716843 #
point $-1 -10.647987216564118 24.623295627086364 5.8629654493750252 #
point $-1 -4.2591948866256502 24.623295627086364 5.8629654493750252 #
straight-curve $-1 0 32.882520522905949 15.41796529465079 -1 0 0 I I #
point $-1 0 32.882520522905949 15.41796529465079 #
point $-1 4.2591948866256502 24.623295627086364 5.8629654493750252 #
point $-1 10.647987216564118 24.623295627086364 5.8629654493750252 #
straight-curve $-1 -49.462165449654137 -47.683738973771511 -15.41796529465079 -1 0 0 I I #
point $-1 -52.427137058626059 -47.683738973771511 -15.41796529465079 #
End-of-ACIS-data 