500 0 4 0           
7 Unknown 11 ACIS 5.0 NT 24 Fri Mar 26 14:53:05 1999 
-1 9.9999999999999995e-007 1e-010 
body $-1 $4 $-1 $5 #
body $-1 $6 $-1 $7 #
body $-1 $8 $-1 $9 #
body $-1 $10 $-1 $11 #
lump $-1 $-1 $12 $0 #
transform $-1 1 0 0 0 1 0 0 0 1 78.670613727225557 52.879799807146526 19.468229162679282 1 rotate no_reflect no_shear #
lump $-1 $-1 $13 $1 #
transform $-1 1 0 0 0 1 0 0 0 1 78.670613727225557 52.879799807146526 19.468229162679282 1 rotate no_reflect no_shear #
lump $-1 $-1 $14 $2 #
transform $-1 1 0 0 0 1 0 0 0 1 78.670613727225557 52.879799807146526 19.468229162679282 1 rotate no_reflect no_shear #
lump $-1 $-1 $15 $3 #
transform $-1 1 0 0 0 1 0 0 0 1 78.670613727225557 52.879799807146526 19.468229162679282 1 rotate no_reflect no_shear #
shell $-1 $-1 $-1 $16 $-1 $4 #
shell $-1 $-1 $-1 $17 $-1 $6 #
shell $-1 $-1 $-1 $18 $-1 $8 #
shell $-1 $-1 $-1 $19 $-1 $10 #
face $-1 $20 $21 $12 $-1 $22 forward single #
face $-1 $23 $24 $13 $-1 $25 reversed single #
face $-1 $26 $27 $14 $-1 $28 forward single #
face $-1 $29 $30 $15 $-1 $31 reversed single #
face $-1 $32 $33 $12 $-1 $34 reversed single #
loop $-1 $-1 $35 $16 #
plane-surface $-1 0 0 19.468229162679282 0 0 1 1 0 0 forward_v I I I I #
face $-1 $36 $37 $13 $-1 $38 reversed single #
loop $-1 $-1 $39 $17 #
plane-surface $-1 -44.366021844609122 -69.447038833302855 0 0 1 0 0 0 1 forward_v I I I I #
face $-1 $40 $41 $14 $-1 $42 forward single #
loop $-1 $-1 $43 $18 #
plane-surface $-1 113.47949063830369 -8.7302916147396168 221.77487103200224 0 -1 0 -0.80901700255871778 0 -0.5877852410284794 forward_v I I I I #
face $-1 $44 $45 $15 $-1 $46 reversed single #
loop $-1 $47 $48 $19 #
cone-surface $-1 69.465814167991596 -16.034962755103223 8.6569300353534313 -0.80901700255871778 0 -0.5877852410284794 1.1755704820569588 0 -1.6180340051174356 1 I I 0 1 2 forward I I I I #
face $-1 $49 $50 $12 $-1 $51 reversed single #
loop $-1 $-1 $52 $20 #
plane-surface $-1 0 0 -19.468229162679282 0 0 1 1 0 0 forward_v I I I I #
coedge $-1 $53 $54 $55 $56 forward $21 $-1 #
face $-1 $57 $58 $13 $-1 $59 reversed single #
loop $-1 $-1 $60 $23 #
plane-surface $-1 -48.997888287351252 -61.163419320224691 0 1 0 0 0 0 -1 forward_v I I I I #
coedge $-1 $61 $62 $63 $64 forward $24 $-1 #
face $-1 $65 $66 $14 $-1 $67 forward single #
loop $-1 $-1 $68 $26 #
plane-surface $-1 -13.812237575805781 -16.034962755103223 129.2920197289709 0.80901700255871778 0 0.5877852410284794 0.5877852410284794 0 -0.80901700255871778 forward_v I I I I #
coedge $-1 $69 $70 $71 $72 reversed $27 $-1 #
face $-1 $73 $74 $15 $-1 $75 forward single #
loop $-1 $76 $77 $29 #
cone-surface $-1 65.797597209247996 -16.034962755103223 5.9918144909080375 -0.80901700255871778 0 -0.5877852410284794 0.5877852410284794 0 -0.80901700255871778 1 I I -0.70710678118654746 0.70710678118654746 1 forward I I I I #
loop $-1 $-1 $78 $19 #
coedge $-1 $48 $48 $79 $80 reversed $30 $-1 #
face $-1 $81 $82 $12 $-1 $83 reversed single #
loop $-1 $-1 $84 $32 #
plane-surface $-1 0 -52.879799807146526 0 0 1 0 0 0 1 forward_v I I I I #
coedge $-1 $85 $86 $87 $88 forward $33 $-1 #
coedge $-1 $89 $35 $90 $91 forward $21 $-1 #
coedge $-1 $35 $89 $92 $93 forward $21 $-1 #
coedge $-1 $94 $95 $35 $56 reversed $96 $-1 #
edge $-1 $97 -52.879799807146526 $98 52.879799807146526 $55 $99 forward 7 unknown #
face $-1 $100 $101 $13 $-1 $102 reversed single #
loop $-1 $-1 $103 $36 #
plane-surface $-1 -39.734155401866992 -61.163419320224691 0 -1 0 0 0 0 1 forward_v I I I I #
coedge $-1 $104 $105 $106 $107 reversed $37 $-1 #
coedge $-1 $108 $39 $109 $110 reversed $24 $-1 #
coedge $-1 $39 $108 $111 $112 reversed $24 $-1 #
coedge $-1 $105 $104 $39 $64 reversed $37 $-1 #
edge $-1 $113 -19.468229162679282 $114 19.468229162679282 $63 $115 forward 7 unknown #
face $-1 $116 $117 $14 $-1 $118 forward single #
loop $-1 $-1 $119 $40 #
plane-surface $-1 113.47949063830369 -23.339633895466829 221.77487103200224 0 1 0 0.80901700255871778 0 0.5877852410284794 forward_v I I I I #
coedge $-1 $120 $121 $122 $123 reversed $41 $-1 #
coedge $-1 $70 $43 $121 $124 forward $27 $-1 #
coedge $-1 $43 $69 $125 $126 reversed $27 $-1 #
coedge $-1 $127 $122 $43 $72 forward $117 $-1 #
edge $-1 $128 9.239669201975623 $129 21.930868408073714 $71 $130 forward 7 unknown #
face $-1 $131 $132 $15 $-1 $133 forward single #
loop $-1 $-1 $134 $44 #
plane-surface $-1 113.47949063830369 -8.7302916147396168 221.77487103200224 0 -1 0 -0.80901700255871778 0 -0.5877852410284794 forward_v I I I I #
loop $-1 $-1 $135 $29 #
coedge $-1 $77 $77 $78 $136 forward $45 $-1 #
coedge $-1 $78 $78 $77 $136 reversed $47 $-1 #
coedge $-1 $79 $79 $48 $80 forward $132 $-1 #
edge $-1 $137 0 $137 6.2831853071796004 $79 $138 forward 7 unknown #
face $-1 $139 $140 $12 $-1 $141 reversed single #
loop $-1 $-1 $142 $49 #
plane-surface $-1 -78.670613727225557 0 0 1 0 0 0 0 -1 forward_v I I I I #
coedge $-1 $143 $92 $144 $145 forward $50 $-1 #
coedge $-1 $146 $52 $143 $147 forward $33 $-1 #
coedge $-1 $52 $146 $148 $149 forward $33 $-1 #
coedge $-1 $95 $94 $52 $88 reversed $96 $-1 #
edge $-1 $150 -52.879799807146526 $151 52.879799807146526 $87 $152 forward 7 unknown #
coedge $-1 $54 $53 $153 $154 forward $21 $-1 #
coedge $-1 $155 $156 $53 $91 reversed $140 $-1 #
edge $-1 $98 -78.670613727225557 $157 78.670613727225557 $90 $158 forward 7 unknown #
coedge $-1 $84 $159 $54 $93 reversed $50 $-1 #
edge $-1 $160 -78.670613727225557 $97 78.670613727225557 $92 $161 forward 7 unknown #
coedge $-1 $87 $55 $159 $162 forward $96 $-1 #
coedge $-1 $55 $87 $155 $163 reversed $96 $-1 #
loop $-1 $-1 $94 $139 #
vertex $-1 $56 $164 #
vertex $-1 $56 $165 #
straight-curve $-1 78.670613727225557 0 19.468229162679282 0 1 0 I I #
face $-1 $166 $167 $13 $-1 $102 reversed single #
loop $-1 $-1 $106 $57 #
plane-surface $-1 0 -52.879799807146526 0 0 1 0 0 0 1 forward_v I I I I #
coedge $-1 $168 $169 $108 $170 forward $58 $-1 #
coedge $-1 $63 $60 $171 $172 reversed $37 $-1 #
coedge $-1 $60 $63 $173 $174 reversed $37 $-1 #
coedge $-1 $175 $176 $60 $107 forward $101 $-1 #
edge $-1 $177 -19.468229162679282 $178 19.468229162679282 $106 $179 forward 7 unknown #
coedge $-1 $62 $61 $103 $170 reversed $24 $-1 #
coedge $-1 $171 $180 $61 $110 forward $181 $-1 #
edge $-1 $182 -4.6318664427421297 $114 4.6318664427421297 $61 $183 forward 7 unknown #
coedge $-1 $184 $173 $62 $112 forward $185 $-1 #
edge $-1 $113 -4.6318664427421297 $186 4.6318664427421297 $62 $187 forward 7 unknown #
vertex $-1 $174 $188 #
vertex $-1 $172 $189 #
straight-curve $-1 -48.997888287351252 -69.447038833302855 0 0 0 -1 I I #
face $-1 $190 $191 $14 $-1 $192 reversed single #
loop $-1 $-1 $193 $65 #
plane-surface $-1 0 0 19.468229162679282 0 0 1 1 0 0 forward_v I I I I #
coedge $-1 $194 $195 $193 $196 reversed $66 $-1 #
coedge $-1 $197 $68 $195 $198 reversed $41 $-1 #
coedge $-1 $68 $197 $69 $124 reversed $41 $-1 #
coedge $-1 $71 $193 $68 $123 forward $117 $-1 #
edge $-1 $199 -15.322152517915217 $128 -0.7128102371880054 $122 $200 forward 7 unknown #
edge $-1 $128 135.74966931343411 $201 157.34122745445109 $69 $202 forward 7 unknown #
coedge $-1 $203 $204 $70 $126 forward $205 $-1 #
edge $-1 $129 91.41920635332184 $201 108.88714400113967 $125 $206 forward 7 unknown #
coedge $-1 $207 $71 $204 $208 forward $117 $-1 #
vertex $-1 $123 $209 #
vertex $-1 $208 $210 #
straight-curve $-1 56.739745319151844 -8.7302916147396168 19.468229162679279 1 0 0 I I #
face $-1 $211 $212 $15 $-1 $213 forward single #
loop $-1 $214 $79 $73 #
plane-surface $-1 -13.812237575805781 -16.034962755103223 129.2920197289709 0.80901700255871778 0 0.5877852410284794 0.5877852410284794 0 -0.80901700255871778 forward_v I I I I #
coedge $-1 $215 $216 $217 $218 reversed $74 $-1 #
coedge $-1 $135 $135 $-1 $219 forward $76 $-1 #
edge $-1 $220 0 $220 6.2831853071796004 $77 $221 forward 7 unknown #
vertex $-1 $80 $222 #
ellipse-curve $-1 72.325014124176505 -16.034962755103223 10.734260338770369 -0.80901700255871778 0 -0.5877852410284794 1.1755704820569588 0 -1.6180340051174356 1 I I #
face $-1 $-1 $96 $12 $-1 $223 reversed single #
loop $-1 $-1 $155 $81 #
plane-surface $-1 0 52.879799807146526 0 0 -1 0 0 0 -1 forward_v I I I I #
coedge $-1 $224 $153 $156 $225 forward $82 $-1 #
coedge $-1 $159 $84 $85 $147 reversed $50 $-1 #
coedge $-1 $153 $224 $84 $145 reversed $82 $-1 #
edge $-1 $160 -19.468229162679282 $226 19.468229162679282 $144 $227 forward 7 unknown #
coedge $-1 $86 $85 $224 $228 forward $33 $-1 #
edge $-1 $151 -78.670613727225557 $226 78.670613727225557 $143 $229 forward 7 unknown #
coedge $-1 $156 $155 $86 $149 reversed $140 $-1 #
edge $-1 $230 -78.670613727225557 $150 78.670613727225557 $148 $231 forward 7 unknown #
vertex $-1 $88 $232 #
vertex $-1 $162 $233 #
straight-curve $-1 78.670613727225557 0 -19.468229162679282 0 -1 0 I I #
coedge $-1 $142 $144 $89 $154 reversed $82 $-1 #
edge $-1 $157 -52.879799807146526 $160 52.879799807146526 $153 $234 forward 7 unknown #
coedge $-1 $148 $90 $95 $163 forward $140 $-1 #
coedge $-1 $90 $148 $142 $225 reversed $140 $-1 #
vertex $-1 $91 $235 #
straight-curve $-1 0 52.879799807146526 19.468229162679282 -1 0 0 I I #
coedge $-1 $92 $143 $94 $162 reversed $50 $-1 #
vertex $-1 $154 $236 #
straight-curve $-1 0 -52.879799807146526 19.468229162679282 1 0 0 I I #
edge $-1 $97 -19.468229162679282 $151 19.468229162679282 $94 $237 forward 7 unknown #
edge $-1 $98 -19.468229162679282 $150 19.468229162679282 $95 $238 forward 7 unknown #
point $-1 78.670613727225557 -52.879799807146526 19.468229162679282 #
point $-1 78.670613727225557 52.879799807146526 19.468229162679282 #
face $-1 $239 $185 $13 $-1 $240 forward single #
loop $-1 $-1 $241 $100 #
coedge $-1 $242 $103 $180 $243 reversed $58 $-1 #
coedge $-1 $103 $242 $184 $244 reversed $58 $-1 #
edge $-1 $186 -19.468229162679282 $182 19.468229162679282 $103 $245 forward 7 unknown #
coedge $-1 $246 $109 $104 $172 forward $181 $-1 #
edge $-1 $114 -8.2836195130781647 $177 8.2836195130781647 $104 $247 forward 7 unknown #
coedge $-1 $111 $248 $105 $174 forward $185 $-1 #
edge $-1 $178 -8.2836195130781647 $113 8.2836195130781647 $105 $249 forward 7 unknown #
coedge $-1 $250 $106 $248 $251 reversed $101 $-1 #
coedge $-1 $106 $250 $246 $252 reversed $101 $-1 #
vertex $-1 $252 $253 #
vertex $-1 $174 $254 #
straight-curve $-1 -48.997888287351252 -52.879799807146526 0 0 0 1 I I #
coedge $-1 $109 $255 $168 $243 forward $181 $-1 #
loop $-1 $-1 $256 $239 #
vertex $-1 $170 $257 #
straight-curve $-1 -44.366021844609122 -69.447038833302855 -19.468229162679282 -1 0 0 I I #
coedge $-1 $258 $111 $169 $244 forward $185 $-1 #
loop $-1 $-1 $259 $166 #
vertex $-1 $244 $260 #
straight-curve $-1 -44.366021844609122 -69.447038833302855 19.468229162679282 1 0 0 I I #
point $-1 -48.997888287351252 -69.447038833302855 19.468229162679282 #
point $-1 -48.997888287351252 -69.447038833302855 -19.468229162679282 #
face $-1 $261 $262 $14 $-1 $263 reversed single #
loop $-1 $-1 $264 $116 #
plane-surface $-1 -44.366021844609122 -69.447038833302855 0 0 1 0 0 0 1 forward_v I I I I #
coedge $-1 $122 $265 $119 $196 forward $117 $-1 #
coedge $-1 $195 $119 $266 $267 reversed $66 $-1 #
coedge $-1 $119 $194 $120 $198 forward $66 $-1 #
edge $-1 $268 -21.930868408073714 $199 -9.239669201975623 $193 $269 forward 7 unknown #
coedge $-1 $121 $120 $203 $270 reversed $41 $-1 #
edge $-1 $271 -157.34122745445109 $199 -135.74966931343411 $195 $272 forward 7 unknown #
vertex $-1 $123 $273 #
straight-curve $-1 65.979414521127467 -8.0174813775516114 19.468229162679279 0 1 0 I I #
vertex $-1 $270 $274 #
straight-curve $-1 -13.812237575805781 -8.7302916147396168 129.2920197289709 0.5877852410284794 0 -0.80901700255871778 I I #
coedge $-1 $266 $125 $197 $270 forward $205 $-1 #
coedge $-1 $125 $275 $127 $208 reversed $205 $-1 #
loop $-1 $-1 $266 $276 #
straight-curve $-1 78.670613727225557 -8.7302916147396168 110.88743551600112 0 0 -1 I I #
coedge $-1 $277 $127 $278 $279 forward $117 $-1 #
edge $-1 $129 -8.7302916147396168 $280 52.879799807146526 $204 $281 forward 7 unknown #
point $-1 65.979414521127467 -8.7302916147396168 19.468229162679279 #
point $-1 78.670613727225557 -8.7302916147396168 19.468229162679282 #
face $-1 $282 $283 $15 $-1 $284 forward single #
loop $-1 $-1 $285 $131 #
plane-surface $-1 113.47949063830369 -23.339633895466829 221.77487103200224 0 1 0 0.80901700255871778 0 0.5877852410284794 forward_v I I I I #
loop $-1 $-1 $286 $73 #
coedge $-1 $216 $134 $287 $288 forward $74 $-1 #
coedge $-1 $134 $215 $289 $290 reversed $74 $-1 #
coedge $-1 $291 $292 $134 $218 forward $283 $-1 #
edge $-1 $293 9.239669201975623 $294 21.930868408073714 $217 $295 forward 7 unknown #
edge $-1 $296 1 $296 0 $135 $-1 forward 7 unknown #
vertex $-1 $136 $297 #
ellipse-curve $-1 66.606614211806715 -16.034962755103223 6.5795997319365167 0.80901700255871778 0 0.5877852410284794 1.1755704820569588 0 -1.6180340051174356 1 I I #
point $-1 73.500584606233417 -16.034962755103223 9.1162263336529108 #
plane-surface $-1 78.670613727225557 0 0 -1 0 0 0 0 1 forward_v I I I I #
coedge $-1 $144 $142 $146 $228 reversed $82 $-1 #
edge $-1 $157 -19.468229162679282 $230 19.468229162679282 $156 $298 forward 7 unknown #
vertex $-1 $228 $299 #
straight-curve $-1 -78.670613727225557 -52.879799807146526 0 0 0 -1 I I #
edge $-1 $226 -52.879799807146526 $230 52.879799807146526 $224 $300 forward 7 unknown #
straight-curve $-1 0 -52.879799807146526 -19.468229162679282 -1 0 0 I I #
vertex $-1 $149 $301 #
straight-curve $-1 0 52.879799807146526 -19.468229162679282 1 0 0 I I #
point $-1 78.670613727225557 52.879799807146526 -19.468229162679282 #
point $-1 78.670613727225557 -52.879799807146526 -19.468229162679282 #
straight-curve $-1 -78.670613727225557 0 19.468229162679282 0 -1 0 I I #
point $-1 -78.670613727225557 52.879799807146526 19.468229162679282 #
point $-1 -78.670613727225557 -52.879799807146526 19.468229162679282 #
straight-curve $-1 78.670613727225557 -52.879799807146526 0 0 0 -1 I I #
straight-curve $-1 78.670613727225557 52.879799807146526 0 0 0 -1 I I #
face $-1 $302 $181 $13 $-1 $303 reversed single #
plane-surface $-1 0 0 19.468229162679282 0 0 1 1 0 0 forward_v I I I I #
coedge $-1 $304 $305 $242 $306 forward $167 $-1 #
coedge $-1 $169 $168 $241 $306 reversed $58 $-1 #
edge $-1 $307 -8.2836195130781647 $182 8.2836195130781647 $168 $308 forward 7 unknown #
edge $-1 $186 -8.2836195130781647 $309 8.2836195130781647 $169 $310 forward 7 unknown #
straight-curve $-1 -39.734155401866992 -69.447038833302855 0 0 0 -1 I I #
coedge $-1 $311 $171 $176 $252 forward $181 $-1 #
straight-curve $-1 -48.997888287351252 -61.163419320224691 -19.468229162679282 0 1 0 I I #
coedge $-1 $173 $312 $175 $251 forward $185 $-1 #
straight-curve $-1 -48.997888287351252 -61.163419320224691 19.468229162679282 0 -1 0 I I #
coedge $-1 $176 $175 $313 $314 forward $101 $-1 #
edge $-1 $315 -78.670613727225557 $178 -48.997888287351252 $175 $316 forward 7 unknown #
edge $-1 $177 48.997888287351252 $317 78.670613727225557 $176 $318 forward 7 unknown #
point $-1 -48.997888287351252 -52.879799807146526 -19.468229162679282 #
point $-1 -48.997888287351252 -52.879799807146526 19.468229162679282 #
coedge $-1 $180 $256 $304 $319 forward $181 $-1 #
coedge $-1 $255 $320 $321 $322 forward $181 $-1 #
point $-1 -39.734155401866992 -69.447038833302855 -19.468229162679282 #
coedge $-1 $259 $184 $305 $323 forward $185 $-1 #
coedge $-1 $324 $258 $325 $326 forward $185 $-1 #
point $-1 -39.734155401866992 -69.447038833302855 19.468229162679282 #
face $-1 $327 $328 $14 $-1 $329 reversed single #
loop $-1 $-1 $330 $190 #
plane-surface $-1 -48.997888287351252 -61.163419320224691 0 1 0 0 0 0 -1 forward_v I I I I #
coedge $-1 $331 $332 $333 $334 forward $191 $-1 #
coedge $-1 $193 $335 $336 $337 forward $117 $-1 #
coedge $-1 $336 $203 $194 $267 forward $205 $-1 #
edge $-1 $271 -108.88714400113967 $268 -91.41920635332184 $266 $338 forward 7 unknown #
vertex $-1 $267 $339 #
straight-curve $-1 56.739745319151844 -23.339633895466829 19.468229162679279 -1 0 0 I I #
edge $-1 $201 0.7128102371880054 $271 15.322152517915217 $203 $340 forward 7 unknown #
vertex $-1 $270 $341 #
straight-curve $-1 -13.812237575805781 -23.339633895466829 129.2920197289709 -0.5877852410284794 0 0.80901700255871778 I I #
point $-1 65.979414521127467 -23.339633895466829 19.468229162679279 #
point $-1 78.670613727225557 -8.7302916147396168 2.0002915148614449 #
coedge $-1 $204 $342 $343 $344 reversed $205 $-1 #
face $-1 $-1 $205 $14 $-1 $345 reversed single #
coedge $-1 $346 $207 $347 $348 forward $117 $-1 #
coedge $-1 $343 $349 $207 $279 reversed $350 $-1 #
edge $-1 $280 -78.670613727225557 $351 78.670613727225557 $278 $352 forward 7 unknown #
vertex $-1 $208 $353 #
straight-curve $-1 78.670613727225557 0 19.468229162679282 0 1 0 I I #
face $-1 $354 $355 $15 $-1 $356 reversed single #
loop $-1 $-1 $357 $211 #
plane-surface $-1 0 0 19.468229162679282 0 0 1 1 0 0 forward_v I I I I #
coedge $-1 $358 $359 $357 $360 reversed $212 $-1 #
coedge $-1 $361 $287 $292 $362 reversed $214 $-1 #
coedge $-1 $286 $363 $215 $288 reversed $214 $-1 #
edge $-1 $293 135.74966931343411 $364 157.34122745445109 $215 $365 forward 7 unknown #
coedge $-1 $366 $367 $216 $290 forward $368 $-1 #
edge $-1 $294 91.41920635332184 $364 108.88714400113967 $289 $369 forward 7 unknown #
coedge $-1 $370 $217 $367 $371 forward $283 $-1 #
coedge $-1 $217 $357 $286 $362 forward $283 $-1 #
vertex $-1 $362 $372 #
vertex $-1 $371 $373 #
straight-curve $-1 56.739745319151844 -8.7302916147396168 19.468229162679279 1 0 0 I I #
vertex $-1 $219 $374 #
point $-1 67.78218469386367 -16.034962755103223 4.9615657268190816 #
straight-curve $-1 -78.670613727225557 52.879799807146526 0 0 0 -1 I I #
point $-1 -78.670613727225557 -52.879799807146526 -19.468229162679282 #
straight-curve $-1 -78.670613727225557 0 -19.468229162679282 0 1 0 I I #
point $-1 -78.670613727225557 52.879799807146526 -19.468229162679282 #
face $-1 $375 $376 $13 $-1 $377 reversed single #
plane-surface $-1 0 0 -19.468229162679282 0 0 1 1 0 0 forward_v I I I I #
coedge $-1 $378 $241 $255 $319 reversed $167 $-1 #
coedge $-1 $241 $378 $258 $323 reversed $167 $-1 #
edge $-1 $309 -19.468229162679282 $307 19.468229162679282 $241 $379 forward 7 unknown #
vertex $-1 $243 $380 #
straight-curve $-1 -39.734155401866992 -61.163419320224691 -19.468229162679282 0 -1 0 I I #
vertex $-1 $323 $381 #
straight-curve $-1 -39.734155401866992 -61.163419320224691 19.468229162679282 0 1 0 I I #
coedge $-1 $320 $246 $382 $383 forward $181 $-1 #
coedge $-1 $248 $324 $384 $385 forward $185 $-1 #
coedge $-1 $384 $382 $250 $314 reversed $376 $-1 #
edge $-1 $315 -19.468229162679282 $317 19.468229162679282 $313 $386 forward 7 unknown #
vertex $-1 $385 $387 #
straight-curve $-1 0 -52.879799807146526 19.468229162679282 1 0 0 I I #
vertex $-1 $383 $388 #
straight-curve $-1 0 -52.879799807146526 -19.468229162679282 -1 0 0 I I #
edge $-1 $389 -78.670613727225557 $307 39.734155401866992 $304 $318 forward 7 unknown #
coedge $-1 $256 $311 $390 $391 forward $181 $-1 #
coedge $-1 $392 $393 $256 $322 reversed $394 $-1 #
edge $-1 $395 -52.879799807146526 $389 52.879799807146526 $321 $396 forward 7 unknown #
edge $-1 $309 -39.734155401866992 $397 78.670613727225557 $305 $316 forward 7 unknown #
coedge $-1 $312 $259 $398 $399 forward $185 $-1 #
coedge $-1 $393 $392 $259 $326 reversed $394 $-1 #
edge $-1 $397 -52.879799807146526 $400 52.879799807146526 $325 $401 forward 7 unknown #
face $-1 $402 $403 $14 $-1 $404 reversed single #
loop $-1 $-1 $405 $261 #
plane-surface $-1 -39.734155401866992 -61.163419320224691 0 -1 0 0 0 0 1 forward_v I I I I #
coedge $-1 $406 $407 $408 $409 reversed $262 $-1 #
coedge $-1 $410 $264 $411 $412 reversed $191 $-1 #
coedge $-1 $264 $410 $413 $414 reversed $191 $-1 #
coedge $-1 $407 $406 $264 $334 reversed $262 $-1 #
edge $-1 $415 -19.468229162679282 $416 19.468229162679282 $333 $417 forward 7 unknown #
coedge $-1 $265 $418 $419 $420 forward $117 $-1 #
coedge $-1 $421 $266 $265 $337 reversed $205 $-1 #
edge $-1 $422 -52.879799807146526 $268 -23.339633895466829 $336 $281 forward 7 unknown #
straight-curve $-1 78.670613727225557 -23.339633895466829 110.88743551600112 0 0 1 I I #
point $-1 78.670613727225557 -23.339633895466829 19.468229162679282 #
straight-curve $-1 78.670613727225572 -8.0174813775516114 2.0002915148614377 0 -1 0 I I #
point $-1 78.670613727225557 -23.339633895466829 2.0002915148614449 #
coedge $-1 $275 $421 $423 $424 reversed $205 $-1 #
coedge $-1 $425 $278 $275 $344 forward $350 $-1 #
edge $-1 $280 -19.468229162679282 $426 19.468229162679282 $275 $427 forward 7 unknown #
plane-surface $-1 78.670613727225557 0 0 -1 0 0 0 0 1 forward_v I I I I #
coedge $-1 $428 $277 $429 $430 forward $117 $-1 #
coedge $-1 $431 $432 $277 $348 reversed $433 $-1 #
edge $-1 $351 -52.879799807146526 $434 52.879799807146526 $347 $435 forward 7 unknown #
coedge $-1 $278 $425 $431 $436 reversed $350 $-1 #
loop $-1 $-1 $343 $437 #
vertex $-1 $279 $438 #
straight-curve $-1 0 52.879799807146526 19.468229162679282 -1 0 0 I I #
point $-1 78.670613727225557 52.879799807146526 19.468229162679282 #
face $-1 $439 $440 $15 $-1 $441 reversed single #
loop $-1 $-1 $442 $282 #
plane-surface $-1 -44.366021844609122 -69.447038833302855 0 0 1 0 0 0 1 forward_v I I I I #
coedge $-1 $292 $443 $285 $360 forward $283 $-1 #
coedge $-1 $359 $285 $444 $445 reversed $212 $-1 #
coedge $-1 $285 $358 $361 $446 forward $212 $-1 #
edge $-1 $447 -21.930868408073714 $448 -9.239669201975623 $357 $449 forward 7 unknown #
coedge $-1 $363 $286 $359 $446 reversed $214 $-1 #
edge $-1 $448 -15.322152517915217 $293 -0.7128102371880054 $292 $450 forward 7 unknown #
coedge $-1 $287 $361 $366 $451 reversed $214 $-1 #
vertex $-1 $451 $452 #
straight-curve $-1 -13.812237575805781 -8.7302916147396168 129.2920197289709 0.5877852410284794 0 -0.80901700255871778 I I #
coedge $-1 $444 $289 $363 $451 forward $368 $-1 #
coedge $-1 $289 $453 $291 $371 reversed $368 $-1 #
loop $-1 $-1 $444 $454 #
straight-curve $-1 78.670613727225557 -8.7302916147396168 110.88743551600112 0 0 -1 I I #
coedge $-1 $455 $291 $456 $457 forward $283 $-1 #
edge $-1 $294 -8.7302916147396168 $458 52.879799807146526 $367 $459 forward 7 unknown #
point $-1 65.979414521127467 -8.7302916147396168 19.468229162679279 #
point $-1 78.670613727225557 -8.7302916147396168 19.468229162679282 #
point $-1 64.988580206689278 -16.034962755103223 5.4040292498795583 #
face $-1 $460 $461 $13 $-1 $462 reversed single #
loop $-1 $-1 $463 $302 #
plane-surface $-1 -78.670613727225557 0 0 1 0 0 0 0 -1 forward_v I I I I #
coedge $-1 $305 $304 $393 $464 reversed $167 $-1 #
straight-curve $-1 -39.734155401866992 -52.879799807146526 0 0 0 -1 I I #
point $-1 -39.734155401866992 -52.879799807146526 -19.468229162679282 #
point $-1 -39.734155401866992 -52.879799807146526 19.468229162679282 #
coedge $-1 $313 $463 $311 $383 reversed $376 $-1 #
edge $-1 $317 -52.879799807146526 $465 52.879799807146526 $382 $466 forward 7 unknown #
coedge $-1 $463 $313 $312 $385 reversed $376 $-1 #
edge $-1 $467 -52.879799807146526 $315 52.879799807146526 $384 $468 forward 7 unknown #
straight-curve $-1 -78.670613727225557 -52.879799807146526 0 0 0 -1 I I #
point $-1 -78.670613727225557 -52.879799807146526 19.468229162679282 #
point $-1 -78.670613727225557 -52.879799807146526 -19.468229162679282 #
vertex $-1 $464 $469 #
coedge $-1 $470 $471 $320 $391 reversed $461 $-1 #
edge $-1 $465 -78.670613727225557 $395 78.670613727225557 $390 $472 forward 7 unknown #
coedge $-1 $325 $321 $471 $473 reversed $394 $-1 #
coedge $-1 $321 $325 $378 $464 forward $394 $-1 #
loop $-1 $-1 $393 $460 #
vertex $-1 $322 $474 #
straight-curve $-1 78.670613727225557 0 -19.468229162679282 0 -1 0 I I #
vertex $-1 $326 $475 #
coedge $-1 $471 $470 $324 $399 reversed $461 $-1 #
edge $-1 $400 -78.670613727225557 $467 78.670613727225557 $398 $476 forward 7 unknown #
vertex $-1 $326 $477 #
straight-curve $-1 78.670613727225557 0 19.468229162679282 0 1 0 I I #
face $-1 $478 $479 $14 $-1 $404 reversed single #
loop $-1 $-1 $408 $327 #
plane-surface $-1 0 -52.879799807146526 0 0 1 0 0 0 1 forward_v I I I I #
coedge $-1 $480 $481 $410 $482 forward $328 $-1 #
coedge $-1 $333 $330 $483 $484 reversed $262 $-1 #
coedge $-1 $330 $333 $428 $485 reversed $262 $-1 #
coedge $-1 $429 $486 $330 $409 forward $403 $-1 #
edge $-1 $487 -19.468229162679282 $488 19.468229162679282 $408 $489 forward 7 unknown #
coedge $-1 $332 $331 $405 $482 reversed $191 $-1 #
coedge $-1 $483 $490 $331 $412 forward $491 $-1 #
edge $-1 $492 -4.6318664427421297 $416 4.6318664427421297 $331 $493 forward 7 unknown #
coedge $-1 $418 $428 $332 $414 forward $117 $-1 #
edge $-1 $415 -4.6318664427421297 $494 4.6318664427421297 $332 $495 forward 7 unknown #
vertex $-1 $485 $496 #
vertex $-1 $484 $497 #
straight-curve $-1 -48.997888287351252 -69.447038833302855 0 0 0 -1 I I #
coedge $-1 $335 $413 $481 $498 forward $117 $-1 #
coedge $-1 $499 $500 $335 $420 reversed $479 $-1 #
edge $-1 $501 -39.734155401866992 $422 78.670613727225557 $419 $502 forward 7 unknown #
coedge $-1 $342 $336 $500 $503 forward $205 $-1 #
vertex $-1 $337 $504 #
coedge $-1 $505 $506 $342 $424 forward $491 $-1 #
edge $-1 $426 -52.879799807146526 $507 52.879799807146526 $342 $508 forward 7 unknown #
coedge $-1 $349 $343 $506 $509 reversed $350 $-1 #
vertex $-1 $424 $510 #
straight-curve $-1 78.670613727225557 52.879799807146526 0 0 0 -1 I I #
coedge $-1 $413 $346 $407 $485 forward $117 $-1 #
coedge $-1 $511 $408 $346 $430 reversed $403 $-1 #
edge $-1 $434 -78.670613727225557 $488 -48.997888287351252 $429 $502 forward 7 unknown #
coedge $-1 $512 $347 $349 $436 forward $433 $-1 #
coedge $-1 $347 $512 $511 $513 reversed $433 $-1 #
loop $-1 $-1 $431 $514 #
vertex $-1 $348 $515 #
straight-curve $-1 -78.670613727225557 0 19.468229162679282 0 -1 0 I I #
edge $-1 $351 -19.468229162679282 $516 19.468229162679282 $349 $517 forward 7 unknown #
face $-1 $276 $350 $14 $-1 $518 reversed single #
point $-1 -78.670613727225557 52.879799807146526 19.468229162679282 #
face $-1 $519 $520 $15 $-1 $521 reversed single #
loop $-1 $-1 $522 $354 #
plane-surface $-1 -48.997888287351252 -61.163419320224691 0 1 0 0 0 0 -1 forward_v I I I I #
coedge $-1 $523 $524 $525 $526 forward $355 $-1 #
coedge $-1 $357 $527 $528 $529 forward $283 $-1 #
coedge $-1 $528 $366 $358 $445 forward $368 $-1 #
edge $-1 $530 -108.88714400113967 $447 -91.41920635332184 $444 $531 forward 7 unknown #
edge $-1 $530 -157.34122745445109 $448 -135.74966931343411 $359 $532 forward 7 unknown #
vertex $-1 $445 $533 #
vertex $-1 $362 $534 #
straight-curve $-1 56.739745319151844 -23.339633895466829 19.468229162679279 -1 0 0 I I #
straight-curve $-1 65.979414521127467 -8.0174813775516114 19.468229162679279 0 1 0 I I #
edge $-1 $364 0.7128102371880054 $530 15.322152517915217 $366 $535 forward 7 unknown #
point $-1 78.670613727225557 -8.7302916147396168 2.0002915148614449 #
coedge $-1 $367 $536 $537 $538 reversed $368 $-1 #
face $-1 $-1 $368 $15 $-1 $539 reversed single #
coedge $-1 $540 $370 $541 $542 forward $283 $-1 #
coedge $-1 $537 $543 $370 $457 reversed $544 $-1 #
edge $-1 $458 -78.670613727225557 $545 78.670613727225557 $456 $546 forward 7 unknown #
vertex $-1 $371 $547 #
straight-curve $-1 78.670613727225557 0 19.468229162679282 0 1 0 I I #
face $-1 $-1 $394 $13 $-1 $548 reversed single #
loop $-1 $-1 $471 $375 #
plane-surface $-1 0 52.879799807146526 0 0 -1 0 0 0 -1 forward_v I I I I #
coedge $-1 $382 $384 $470 $549 forward $376 $-1 #
edge $-1 $397 -19.468229162679282 $389 19.468229162679282 $393 $550 forward 7 unknown #
vertex $-1 $391 $551 #
straight-curve $-1 -78.670613727225557 0 -19.468229162679282 0 1 0 I I #
vertex $-1 $399 $552 #
straight-curve $-1 -78.670613727225557 0 19.468229162679282 0 -1 0 I I #
point $-1 78.670613727225557 -52.879799807146526 -19.468229162679282 #
coedge $-1 $398 $390 $463 $549 reversed $461 $-1 #
coedge $-1 $390 $398 $392 $473 forward $461 $-1 #
straight-curve $-1 0 52.879799807146526 -19.468229162679282 1 0 0 I I #
edge $-1 $400 -19.468229162679282 $395 19.468229162679282 $392 $553 forward 7 unknown #
point $-1 78.670613727225557 52.879799807146526 -19.468229162679282 #
point $-1 78.670613727225557 -52.879799807146526 19.468229162679282 #
straight-curve $-1 0 52.879799807146526 19.468229162679282 -1 0 0 I I #
point $-1 78.670613727225557 52.879799807146526 19.468229162679282 #
face $-1 $514 $491 $14 $-1 $554 reversed single #
loop $-1 $-1 $499 $402 #
coedge $-1 $555 $405 $490 $556 reversed $328 $-1 #
coedge $-1 $405 $555 $418 $498 reversed $328 $-1 #
edge $-1 $494 -19.468229162679282 $492 19.468229162679282 $405 $557 forward 7 unknown #
coedge $-1 $558 $411 $406 $484 forward $491 $-1 #
edge $-1 $416 -8.2836195130781647 $487 8.2836195130781647 $406 $559 forward 7 unknown #
edge $-1 $488 -8.2836195130781647 $415 8.2836195130781647 $407 $560 forward 7 unknown #
coedge $-1 $408 $511 $558 $561 reversed $403 $-1 #
vertex $-1 $561 $562 #
vertex $-1 $485 $563 #
straight-curve $-1 -48.997888287351252 -52.879799807146526 0 0 0 1 I I #
coedge $-1 $411 $505 $480 $556 forward $491 $-1 #
loop $-1 $-1 $423 $478 #
vertex $-1 $482 $564 #
straight-curve $-1 -44.366021844609122 -69.447038833302855 -19.468229162679282 -1 0 0 I I #
vertex $-1 $498 $565 #
straight-curve $-1 -44.366021844609122 -69.447038833302855 19.468229162679282 1 0 0 I I #
point $-1 -48.997888287351252 -69.447038833302855 19.468229162679282 #
point $-1 -48.997888287351252 -69.447038833302855 -19.468229162679282 #
edge $-1 $494 -8.2836195130781647 $501 8.2836195130781647 $481 $566 forward 7 unknown #
coedge $-1 $567 $419 $555 $568 forward $479 $-1 #
coedge $-1 $419 $567 $421 $503 reversed $479 $-1 #
vertex $-1 $420 $569 #
straight-curve $-1 0 -52.879799807146526 19.468229162679282 1 0 0 I I #
edge $-1 $422 -19.468229162679282 $507 19.468229162679282 $421 $570 forward 7 unknown #
point $-1 78.670613727225557 -52.879799807146526 19.468229162679282 #
coedge $-1 $490 $423 $567 $571 forward $491 $-1 #
coedge $-1 $423 $572 $425 $509 forward $491 $-1 #
vertex $-1 $503 $573 #
straight-curve $-1 78.670613727225557 0 -19.468229162679282 0 -1 0 I I #
edge $-1 $516 -78.670613727225557 $426 78.670613727225557 $425 $574 forward 7 unknown #
point $-1 78.670613727225557 52.879799807146526 -19.468229162679282 #
coedge $-1 $486 $429 $432 $513 forward $403 $-1 #
coedge $-1 $432 $431 $572 $575 reversed $433 $-1 #
edge $-1 $434 -19.468229162679282 $576 19.468229162679282 $432 $577 forward 7 unknown #
face $-1 $437 $433 $14 $-1 $578 reversed single #
point $-1 -78.670613727225557 -52.879799807146526 19.468229162679282 #
vertex $-1 $509 $579 #
straight-curve $-1 -78.670613727225557 52.879799807146526 0 0 0 -1 I I #
plane-surface $-1 0 52.879799807146526 0 0 -1 0 0 0 -1 forward_v I I I I #
face $-1 $580 $581 $15 $-1 $582 reversed single #
loop $-1 $-1 $583 $439 #
plane-surface $-1 -39.734155401866992 -61.163419320224691 0 -1 0 0 0 0 1 forward_v I I I I #
coedge $-1 $584 $585 $586 $587 reversed $440 $-1 #
coedge $-1 $588 $442 $589 $590 reversed $355 $-1 #
coedge $-1 $442 $588 $591 $592 reversed $355 $-1 #
coedge $-1 $585 $584 $442 $526 reversed $440 $-1 #
edge $-1 $593 -19.468229162679282 $594 19.468229162679282 $525 $595 forward 7 unknown #
coedge $-1 $443 $596 $597 $598 forward $283 $-1 #
coedge $-1 $599 $444 $443 $529 reversed $368 $-1 #
edge $-1 $600 -52.879799807146526 $447 -23.339633895466829 $528 $459 forward 7 unknown #
vertex $-1 $451 $601 #
straight-curve $-1 78.670613727225557 -23.339633895466829 110.88743551600112 0 0 1 I I #
straight-curve $-1 -13.812237575805781 -23.339633895466829 129.2920197289709 -0.5877852410284794 0 0.80901700255871778 I I #
point $-1 78.670613727225557 -23.339633895466829 19.468229162679282 #
point $-1 65.979414521127467 -23.339633895466829 19.468229162679279 #
straight-curve $-1 78.670613727225572 -8.0174813775516114 2.0002915148614377 0 -1 0 I I #
coedge $-1 $453 $599 $602 $603 reversed $368 $-1 #
coedge $-1 $604 $456 $453 $538 forward $544 $-1 #
edge $-1 $458 -19.468229162679282 $605 19.468229162679282 $453 $606 forward 7 unknown #
plane-surface $-1 78.670613727225557 0 0 -1 0 0 0 0 1 forward_v I I I I #
coedge $-1 $607 $455 $608 $609 forward $283 $-1 #
coedge $-1 $610 $611 $455 $542 reversed $612 $-1 #
edge $-1 $545 -52.879799807146526 $613 52.879799807146526 $541 $614 forward 7 unknown #
coedge $-1 $456 $604 $610 $615 reversed $544 $-1 #
loop $-1 $-1 $537 $616 #
vertex $-1 $457 $617 #
straight-curve $-1 0 52.879799807146526 19.468229162679282 -1 0 0 I I #
point $-1 78.670613727225557 52.879799807146526 19.468229162679282 #
plane-surface $-1 78.670613727225557 0 0 -1 0 0 0 0 1 forward_v I I I I #
edge $-1 $467 -19.468229162679282 $465 19.468229162679282 $470 $618 forward 7 unknown #
straight-curve $-1 78.670613727225557 -52.879799807146526 0 0 0 -1 I I #
point $-1 -78.670613727225557 52.879799807146526 -19.468229162679282 #
point $-1 -78.670613727225557 52.879799807146526 19.468229162679282 #
straight-curve $-1 78.670613727225557 52.879799807146526 0 0 0 -1 I I #
plane-surface $-1 0 0 -19.468229162679282 0 0 1 1 0 0 forward_v I I I I #
coedge $-1 $481 $480 $499 $568 reversed $328 $-1 #
edge $-1 $619 -8.2836195130781647 $492 8.2836195130781647 $480 $620 forward 7 unknown #
straight-curve $-1 -39.734155401866992 -69.447038833302855 0 0 0 -1 I I #
coedge $-1 $572 $483 $486 $561 forward $491 $-1 #
straight-curve $-1 -48.997888287351252 -61.163419320224691 -19.468229162679282 0 1 0 I I #
straight-curve $-1 -48.997888287351252 -61.163419320224691 19.468229162679282 0 -1 0 I I #
edge $-1 $487 48.997888287351252 $576 78.670613727225557 $486 $621 forward 7 unknown #
point $-1 -48.997888287351252 -52.879799807146526 -19.468229162679282 #
point $-1 -48.997888287351252 -52.879799807146526 19.468229162679282 #
point $-1 -39.734155401866992 -69.447038833302855 -19.468229162679282 #
point $-1 -39.734155401866992 -69.447038833302855 19.468229162679282 #
straight-curve $-1 -39.734155401866992 -61.163419320224691 19.468229162679282 0 1 0 I I #
coedge $-1 $500 $499 $505 $571 reversed $479 $-1 #
edge $-1 $501 -19.468229162679282 $619 19.468229162679282 $499 $622 forward 7 unknown #
point $-1 -39.734155401866992 -52.879799807146526 19.468229162679282 #
straight-curve $-1 78.670613727225557 -52.879799807146526 0 0 0 -1 I I #
edge $-1 $507 -78.670613727225557 $619 39.734155401866992 $567 $621 forward 7 unknown #
coedge $-1 $506 $558 $512 $575 forward $491 $-1 #
point $-1 78.670613727225557 -52.879799807146526 -19.468229162679282 #
straight-curve $-1 0 52.879799807146526 -19.468229162679282 1 0 0 I I #
edge $-1 $576 -52.879799807146526 $516 52.879799807146526 $512 $623 forward 7 unknown #
vertex $-1 $575 $624 #
straight-curve $-1 -78.670613727225557 -52.879799807146526 0 0 0 -1 I I #
plane-surface $-1 -78.670613727225557 0 0 1 0 0 0 0 -1 forward_v I I I I #
point $-1 -78.670613727225557 52.879799807146526 -19.468229162679282 #
face $-1 $625 $626 $15 $-1 $582 reversed single #
loop $-1 $-1 $586 $519 #
plane-surface $-1 0 -52.879799807146526 0 0 1 0 0 0 1 forward_v I I I I #
coedge $-1 $627 $628 $588 $629 forward $520 $-1 #
coedge $-1 $525 $522 $630 $631 reversed $440 $-1 #
coedge $-1 $522 $525 $607 $632 reversed $440 $-1 #
coedge $-1 $608 $633 $522 $587 forward $581 $-1 #
edge $-1 $634 -19.468229162679282 $635 19.468229162679282 $586 $636 forward 7 unknown #
coedge $-1 $524 $523 $583 $629 reversed $355 $-1 #
coedge $-1 $630 $637 $523 $590 forward $638 $-1 #
edge $-1 $639 -4.6318664427421297 $594 4.6318664427421297 $523 $640 forward 7 unknown #
coedge $-1 $596 $607 $524 $592 forward $283 $-1 #
edge $-1 $593 -4.6318664427421297 $641 4.6318664427421297 $524 $642 forward 7 unknown #
vertex $-1 $632 $643 #
vertex $-1 $631 $644 #
straight-curve $-1 -48.997888287351252 -69.447038833302855 0 0 0 -1 I I #
coedge $-1 $527 $591 $628 $645 forward $283 $-1 #
coedge $-1 $646 $647 $527 $598 reversed $626 $-1 #
edge $-1 $648 -39.734155401866992 $600 78.670613727225557 $597 $649 forward 7 unknown #
coedge $-1 $536 $528 $647 $650 forward $368 $-1 #
vertex $-1 $529 $651 #
point $-1 78.670613727225557 -23.339633895466829 2.0002915148614449 #
coedge $-1 $652 $653 $536 $603 forward $638 $-1 #
edge $-1 $605 -52.879799807146526 $654 52.879799807146526 $536 $655 forward 7 unknown #
coedge $-1 $543 $537 $653 $656 reversed $544 $-1 #
vertex $-1 $603 $657 #
straight-curve $-1 78.670613727225557 52.879799807146526 0 0 0 -1 I I #
coedge $-1 $591 $540 $585 $632 forward $283 $-1 #
coedge $-1 $658 $586 $540 $609 reversed $581 $-1 #
edge $-1 $613 -78.670613727225557 $635 -48.997888287351252 $608 $649 forward 7 unknown #
coedge $-1 $659 $541 $543 $615 forward $612 $-1 #
coedge $-1 $541 $659 $658 $660 reversed $612 $-1 #
loop $-1 $-1 $610 $661 #
vertex $-1 $542 $662 #
straight-curve $-1 -78.670613727225557 0 19.468229162679282 0 -1 0 I I #
edge $-1 $545 -19.468229162679282 $663 19.468229162679282 $543 $664 forward 7 unknown #
face $-1 $454 $544 $15 $-1 $665 reversed single #
point $-1 -78.670613727225557 52.879799807146526 19.468229162679282 #
straight-curve $-1 -78.670613727225557 52.879799807146526 0 0 0 -1 I I #
vertex $-1 $556 $666 #
straight-curve $-1 -39.734155401866992 -61.163419320224691 -19.468229162679282 0 -1 0 I I #
straight-curve $-1 0 -52.879799807146526 -19.468229162679282 -1 0 0 I I #
straight-curve $-1 -39.734155401866992 -52.879799807146526 0 0 0 -1 I I #
straight-curve $-1 -78.670613727225557 0 -19.468229162679282 0 1 0 I I #
point $-1 -78.670613727225557 -52.879799807146526 -19.468229162679282 #
face $-1 $661 $638 $15 $-1 $667 reversed single #
loop $-1 $-1 $646 $580 #
coedge $-1 $668 $583 $637 $669 reversed $520 $-1 #
coedge $-1 $583 $668 $596 $645 reversed $520 $-1 #
edge $-1 $641 -19.468229162679282 $639 19.468229162679282 $583 $670 forward 7 unknown #
coedge $-1 $671 $589 $584 $631 forward $638 $-1 #
edge $-1 $594 -8.2836195130781647 $634 8.2836195130781647 $584 $672 forward 7 unknown #
edge $-1 $635 -8.2836195130781647 $593 8.2836195130781647 $585 $673 forward 7 unknown #
coedge $-1 $586 $658 $671 $674 reversed $581 $-1 #
vertex $-1 $674 $675 #
vertex $-1 $632 $676 #
straight-curve $-1 -48.997888287351252 -52.879799807146526 0 0 0 1 I I #
coedge $-1 $589 $652 $627 $669 forward $638 $-1 #
loop $-1 $-1 $602 $625 #
vertex $-1 $629 $677 #
straight-curve $-1 -44.366021844609122 -69.447038833302855 -19.468229162679282 -1 0 0 I I #
vertex $-1 $645 $678 #
straight-curve $-1 -44.366021844609122 -69.447038833302855 19.468229162679282 1 0 0 I I #
point $-1 -48.997888287351252 -69.447038833302855 19.468229162679282 #
point $-1 -48.997888287351252 -69.447038833302855 -19.468229162679282 #
edge $-1 $641 -8.2836195130781647 $648 8.2836195130781647 $628 $679 forward 7 unknown #
coedge $-1 $680 $597 $668 $681 forward $626 $-1 #
coedge $-1 $597 $680 $599 $650 reversed $626 $-1 #
vertex $-1 $598 $682 #
straight-curve $-1 0 -52.879799807146526 19.468229162679282 1 0 0 I I #
edge $-1 $600 -19.468229162679282 $654 19.468229162679282 $599 $683 forward 7 unknown #
point $-1 78.670613727225557 -52.879799807146526 19.468229162679282 #
coedge $-1 $637 $602 $680 $684 forward $638 $-1 #
coedge $-1 $602 $685 $604 $656 forward $638 $-1 #
vertex $-1 $650 $686 #
straight-curve $-1 78.670613727225557 0 -19.468229162679282 0 -1 0 I I #
edge $-1 $663 -78.670613727225557 $605 78.670613727225557 $604 $687 forward 7 unknown #
point $-1 78.670613727225557 52.879799807146526 -19.468229162679282 #
coedge $-1 $633 $608 $611 $660 forward $581 $-1 #
coedge $-1 $611 $610 $685 $688 reversed $612 $-1 #
edge $-1 $613 -19.468229162679282 $689 19.468229162679282 $611 $690 forward 7 unknown #
face $-1 $616 $612 $15 $-1 $691 reversed single #
point $-1 -78.670613727225557 -52.879799807146526 19.468229162679282 #
vertex $-1 $656 $692 #
straight-curve $-1 -78.670613727225557 52.879799807146526 0 0 0 -1 I I #
plane-surface $-1 0 52.879799807146526 0 0 -1 0 0 0 -1 forward_v I I I I #
point $-1 -39.734155401866992 -52.879799807146526 -19.468229162679282 #
plane-surface $-1 0 0 -19.468229162679282 0 0 1 1 0 0 forward_v I I I I #
coedge $-1 $628 $627 $646 $681 reversed $520 $-1 #
edge $-1 $693 -8.2836195130781647 $639 8.2836195130781647 $627 $694 forward 7 unknown #
straight-curve $-1 -39.734155401866992 -69.447038833302855 0 0 0 -1 I I #
coedge $-1 $685 $630 $633 $674 forward $638 $-1 #
straight-curve $-1 -48.997888287351252 -61.163419320224691 -19.468229162679282 0 1 0 I I #
straight-curve $-1 -48.997888287351252 -61.163419320224691 19.468229162679282 0 -1 0 I I #
edge $-1 $634 48.997888287351252 $689 78.670613727225557 $633 $695 forward 7 unknown #
point $-1 -48.997888287351252 -52.879799807146526 -19.468229162679282 #
point $-1 -48.997888287351252 -52.879799807146526 19.468229162679282 #
point $-1 -39.734155401866992 -69.447038833302855 -19.468229162679282 #
point $-1 -39.734155401866992 -69.447038833302855 19.468229162679282 #
straight-curve $-1 -39.734155401866992 -61.163419320224691 19.468229162679282 0 1 0 I I #
coedge $-1 $647 $646 $652 $684 reversed $626 $-1 #
edge $-1 $648 -19.468229162679282 $693 19.468229162679282 $646 $696 forward 7 unknown #
point $-1 -39.734155401866992 -52.879799807146526 19.468229162679282 #
straight-curve $-1 78.670613727225557 -52.879799807146526 0 0 0 -1 I I #
edge $-1 $654 -78.670613727225557 $693 39.734155401866992 $680 $695 forward 7 unknown #
coedge $-1 $653 $671 $659 $688 forward $638 $-1 #
point $-1 78.670613727225557 -52.879799807146526 -19.468229162679282 #
straight-curve $-1 0 52.879799807146526 -19.468229162679282 1 0 0 I I #
edge $-1 $689 -52.879799807146526 $663 52.879799807146526 $659 $697 forward 7 unknown #
vertex $-1 $688 $698 #
straight-curve $-1 -78.670613727225557 -52.879799807146526 0 0 0 -1 I I #
plane-surface $-1 -78.670613727225557 0 0 1 0 0 0 0 -1 forward_v I I I I #
point $-1 -78.670613727225557 52.879799807146526 -19.468229162679282 #
vertex $-1 $669 $699 #
straight-curve $-1 -39.734155401866992 -61.163419320224691 -19.468229162679282 0 -1 0 I I #
straight-curve $-1 0 -52.879799807146526 -19.468229162679282 -1 0 0 I I #
straight-curve $-1 -39.734155401866992 -52.879799807146526 0 0 0 -1 I I #
straight-curve $-1 -78.670613727225557 0 -19.468229162679282 0 1 0 I I #
point $-1 -78.670613727225557 -52.879799807146526 -19.468229162679282 #
point $-1 -39.734155401866992 -52.879799807146526 -19.468229162679282 #
End-of-ACIS-data 