500 0 7 0           
7 Unknown 11 ACIS 5.0 NT 24 Thu Mar 25 16:21:44 1999 
-1 9.9999999999999995e-007 1e-010 
body $-1 $7 $-1 $8 #
body $-1 $9 $-1 $10 #
body $-1 $11 $-1 $12 #
body $-1 $13 $-1 $14 #
body $-1 $15 $-1 $16 #
body $-1 $17 $-1 $18 #
body $-1 $19 $-1 $20 #
lump $-1 $-1 $21 $0 #
transform $-1 1 0 0 0 1 0 0 0 1 78.12005981627857 37.228081485554718 11.602204819554315 1 rotate no_reflect no_shear #
lump $-1 $-1 $22 $1 #
transform $-1 1 0 0 0 1 0 0 0 1 78.12005981627857 37.228081485554718 11.602204819554315 1 rotate no_reflect no_shear #
lump $-1 $-1 $23 $2 #
transform $-1 1 0 0 0 1 0 0 0 1 78.12005981627857 37.228081485554718 11.602204819554315 1 rotate no_reflect no_shear #
lump $-1 $-1 $24 $3 #
transform $-1 1 0 0 0 1 0 0 0 1 78.12005981627857 37.228081485554718 11.602204819554315 1 rotate no_reflect no_shear #
lump $-1 $-1 $25 $4 #
transform $-1 1 0 0 0 1 0 0 0 1 78.12005981627857 37.228081485554718 11.602204819554315 1 rotate no_reflect no_shear #
lump $-1 $-1 $26 $5 #
transform $-1 1 0 0 0 1 0 0 0 1 78.12005981627857 37.228081485554718 11.602204819554315 1 rotate no_reflect no_shear #
lump $-1 $-1 $27 $6 #
transform $-1 1 0 0 0 1 0 0 0 1 78.12005981627857 37.228081485554718 11.602204819554315 1 rotate no_reflect no_shear #
shell $-1 $-1 $-1 $28 $-1 $7 #
shell $-1 $-1 $-1 $29 $-1 $9 #
shell $-1 $-1 $-1 $30 $-1 $11 #
shell $-1 $-1 $-1 $31 $-1 $13 #
shell $-1 $-1 $-1 $32 $-1 $15 #
shell $-1 $-1 $-1 $33 $-1 $17 #
shell $-1 $-1 $-1 $34 $-1 $19 #
face $-1 $35 $36 $21 $-1 $37 forward single #
face $-1 $38 $39 $22 $-1 $40 reversed single #
face $-1 $41 $42 $23 $-1 $43 reversed single #
face $-1 $44 $45 $24 $-1 $46 forward single #
face $-1 $47 $48 $25 $-1 $49 reversed single #
face $-1 $50 $51 $26 $-1 $52 forward single #
face $-1 $53 $54 $27 $-1 $55 forward single #
face $-1 $56 $57 $21 $-1 $58 reversed single #
loop $-1 $-1 $59 $28 #
plane-surface $-1 0 0 11.602204819554315 0 0 1 1 0 0 forward_v I I I I #
face $-1 $60 $61 $22 $-1 $62 reversed single #
loop $-1 $-1 $63 $29 #
plane-surface $-1 -72.94747419738853 -31.60065629566316 0 0 -1 0 0 0 -1 forward_v I I I I #
face $-1 $64 $65 $23 $-1 $66 reversed single #
loop $-1 $-1 $67 $30 #
plane-surface $-1 67.147105149342053 -37.228081485554711 5.9401864208519157 0 -0.7660444514056185 0.64278759981090561 1 0 0 forward_v I I I I #
face $-1 $68 $69 $24 $-1 $70 forward single #
loop $-1 $71 $72 $31 #
cone-surface $-1 67.147105149342053 -33.65445624022346 7.7658481150085992 0 0.7660444514056185 -0.64278759981090561 1.5 0 0 1 I I 0 1 1.5 forward I I I I #
face $-1 $73 $74 $25 $-1 $75 reversed single #
loop $-1 $-1 $76 $32 #
plane-surface $-1 69.811478974209592 -16.331199333298315 51.981236125893034 0 0.69465837861970381 0.71933979245794832 1 0 0 forward_v I I I I #
face $-1 $77 $78 $26 $-1 $79 forward single #
loop $-1 $80 $81 $33 #
cone-surface $-1 66.250658613322912 30.956355641953689 5.5178068401124225 0 -0.69465837861970381 -0.71933979245794832 1 0 0 1 I I 0 1 1 forward I I I I #
face $-1 $82 $83 $27 $-1 $84 forward single #
loop $-1 $85 $86 $34 #
cone-surface $-1 73.372299335096301 30.956355641953689 5.5178068401124225 0 -0.69465837861970381 -0.71933979245794832 1 0 0 1 I I 0 1 1 forward I I I I #
face $-1 $87 $88 $21 $-1 $89 reversed single #
loop $-1 $-1 $90 $35 #
plane-surface $-1 0 0 -11.602204819554315 0 0 1 1 0 0 forward_v I I I I #
coedge $-1 $91 $92 $93 $94 forward $36 $-1 #
face $-1 $95 $96 $22 $-1 $97 forward single #
loop $-1 $-1 $98 $38 #
plane-surface $-1 -67.774888578498491 -34.414368890608941 0 -1 0 0 0 0 1 forward_v I I I I #
coedge $-1 $99 $100 $101 $102 forward $39 $-1 #
face $-1 $103 $104 $23 $-1 $105 reversed single #
loop $-1 $-1 $106 $41 #
plane-surface $-1 56.174150482405551 -156.91495821702514 106.36939791363207 1 0 0 0 0.7660444514056185 -0.64278759981090561 forward_v I I I I #
coedge $-1 $107 $108 $109 $110 reversed $42 $-1 #
face $-1 $-1 $111 $24 $-1 $112 forward single #
loop $-1 $113 $114 $44 #
cone-surface $-1 67.147105149342053 -31.881796369179654 6.2784099099558919 0 0.7660444514056185 -0.64278759981090561 0.75 0 0 1 I I -0.70710678118654757 0.70710678118654757 0.75 forward I I I I #
loop $-1 $-1 $115 $31 #
coedge $-1 $72 $72 $116 $117 reversed $45 $-1 #
face $-1 $118 $119 $25 $-1 $120 reversed single #
loop $-1 $-1 $121 $47 #
plane-surface $-1 61.502898132140629 92.202308846002381 164.37097135598171 1 0 0 0 -0.69465837861970381 -0.71933979245794832 forward_v I I I I #
coedge $-1 $122 $123 $124 $125 reversed $48 $-1 #
face $-1 $-1 $126 $26 $-1 $127 forward single #
loop $-1 $128 $129 $50 #
cone-surface $-1 66.250658613322912 30.210086013517106 4.7450220351498533 0 -0.69465837861970381 -0.71933979245794832 0.5 0 0 1 I I -0.70710678118654691 0.70710678118654813 0.5 forward I I I I #
loop $-1 $-1 $130 $33 #
coedge $-1 $81 $81 $131 $132 reversed $51 $-1 #
face $-1 $-1 $133 $27 $-1 $134 forward single #
loop $-1 $135 $136 $53 #
cone-surface $-1 73.372299335096301 30.210086013517106 4.7450220351498533 0 -0.69465837861970381 -0.71933979245794832 0.5 0 0 1 I I -0.70710678118654691 0.70710678118654813 0.5 forward I I I I #
loop $-1 $-1 $137 $34 #
coedge $-1 $86 $86 $138 $139 reversed $54 $-1 #
face $-1 $140 $141 $21 $-1 $142 reversed single #
loop $-1 $-1 $143 $56 #
plane-surface $-1 0 -37.228081485554718 0 0 1 0 0 0 1 forward_v I I I I #
coedge $-1 $144 $145 $146 $147 forward $57 $-1 #
coedge $-1 $148 $59 $149 $150 forward $36 $-1 #
coedge $-1 $59 $148 $151 $152 forward $36 $-1 #
coedge $-1 $153 $154 $59 $94 reversed $155 $-1 #
edge $-1 $156 -37.228081485554718 $157 37.228081485554718 $93 $158 forward 7 unknown #
face $-1 $159 $160 $22 $-1 $161 reversed single #
loop $-1 $-1 $162 $60 #
plane-surface $-1 0 0 11.602204819554315 0 0 1 1 0 0 forward_v I I I I #
coedge $-1 $163 $164 $165 $166 reversed $61 $-1 #
coedge $-1 $167 $63 $168 $169 reversed $39 $-1 #
coedge $-1 $63 $167 $170 $171 reversed $39 $-1 #
coedge $-1 $164 $163 $63 $102 reversed $61 $-1 #
edge $-1 $172 -11.602204819554315 $173 11.602204819554315 $101 $174 forward 7 unknown #
face $-1 $175 $176 $23 $-1 $177 forward single #
loop $-1 $-1 $178 $64 #
plane-surface $-1 78.12005981627857 0 0 -1 0 0 0 0 1 forward_v I I I I #
coedge $-1 $179 $180 $181 $182 reversed $65 $-1 #
coedge $-1 $183 $67 $178 $184 reversed $42 $-1 #
coedge $-1 $67 $183 $179 $185 forward $42 $-1 #
coedge $-1 $181 $186 $67 $110 forward $176 $-1 #
edge $-1 $187 -44.546507241607529 $188 -22.600597907734524 $109 $189 forward 7 unknown #
loop $-1 $-1 $116 $68 #
plane-surface $-1 67.147105149342053 -37.228081485554711 5.9401864208519157 0 -0.7660444514056185 0.64278759981090561 1 0 0 forward_v I I I I #
loop $-1 $-1 $190 $44 #
coedge $-1 $114 $114 $115 $191 reversed $69 $-1 #
coedge $-1 $115 $115 $114 $191 forward $71 $-1 #
coedge $-1 $116 $116 $72 $117 forward $111 $-1 #
edge $-1 $192 2.6054460675113104e-016 $192 6.2831853071796004 $116 $193 forward 7 unknown #
face $-1 $194 $195 $25 $-1 $196 reversed single #
loop $-1 $-1 $197 $73 #
plane-surface $-1 78.12005981627857 0 0 -1 0 0 0 0 1 forward_v I I I I #
coedge $-1 $198 $199 $200 $201 reversed $74 $-1 #
coedge $-1 $202 $76 $197 $203 reversed $48 $-1 #
coedge $-1 $76 $202 $198 $204 forward $48 $-1 #
coedge $-1 $200 $205 $76 $125 forward $195 $-1 #
edge $-1 $206 -43.214320329173773 $207 -26.597158645035833 $124 $208 forward 7 unknown #
loop $-1 $-1 $131 $77 #
plane-surface $-1 69.811478974209592 -16.331199333298315 51.981236125893034 0 0.69465837861970381 0.71933979245794832 1 0 0 forward_v I I I I #
loop $-1 $-1 $209 $50 #
coedge $-1 $129 $129 $130 $210 reversed $78 $-1 #
coedge $-1 $130 $130 $129 $210 forward $80 $-1 #
coedge $-1 $131 $131 $81 $132 forward $126 $-1 #
edge $-1 $211 1.9386277394169668e-015 $211 6.2831853071796022 $131 $212 forward 7 unknown #
loop $-1 $-1 $138 $82 #
plane-surface $-1 69.811478974209592 -16.331199333298315 51.981236125893034 0 0.69465837861970381 0.71933979245794832 1 0 0 forward_v I I I I #
loop $-1 $-1 $213 $53 #
coedge $-1 $136 $136 $137 $214 reversed $83 $-1 #
coedge $-1 $137 $137 $136 $214 forward $85 $-1 #
coedge $-1 $138 $138 $86 $139 forward $133 $-1 #
edge $-1 $215 1.9386277394169668e-015 $215 6.2831853071796022 $138 $216 forward 7 unknown #
face $-1 $217 $218 $21 $-1 $219 reversed single #
loop $-1 $-1 $220 $87 #
plane-surface $-1 -78.12005981627857 0 0 1 0 0 0 0 -1 forward_v I I I I #
coedge $-1 $221 $151 $222 $223 forward $88 $-1 #
coedge $-1 $224 $90 $221 $225 forward $57 $-1 #
coedge $-1 $90 $224 $226 $227 forward $57 $-1 #
coedge $-1 $154 $153 $90 $147 reversed $155 $-1 #
edge $-1 $228 -37.228081485554718 $229 37.228081485554718 $146 $230 forward 7 unknown #
coedge $-1 $92 $91 $231 $232 forward $36 $-1 #
coedge $-1 $233 $234 $91 $150 reversed $218 $-1 #
edge $-1 $157 -78.12005981627857 $235 78.12005981627857 $149 $236 forward 7 unknown #
coedge $-1 $143 $237 $92 $152 reversed $88 $-1 #
edge $-1 $238 -78.12005981627857 $156 78.12005981627857 $151 $239 forward 7 unknown #
coedge $-1 $146 $93 $237 $240 forward $155 $-1 #
coedge $-1 $93 $146 $233 $241 reversed $155 $-1 #
loop $-1 $-1 $153 $217 #
vertex $-1 $94 $242 #
vertex $-1 $94 $243 #
straight-curve $-1 78.12005981627857 0 11.602204819554315 0 1 0 I I #
face $-1 $244 $245 $22 $-1 $246 reversed single #
loop $-1 $-1 $247 $95 #
plane-surface $-1 -78.12005981627857 0 0 1 0 0 0 0 -1 forward_v I I I I #
coedge $-1 $170 $248 $164 $249 forward $96 $-1 #
coedge $-1 $101 $98 $250 $251 reversed $61 $-1 #
coedge $-1 $98 $101 $162 $249 reversed $61 $-1 #
coedge $-1 $252 $253 $98 $166 forward $254 $-1 #
edge $-1 $255 -11.602204819554315 $256 11.602204819554315 $165 $257 forward 7 unknown #
coedge $-1 $100 $99 $247 $258 reversed $39 $-1 #
coedge $-1 $250 $259 $99 $169 forward $245 $-1 #
edge $-1 $260 -41.646322717584304 $173 -31.301151479804226 $168 $261 forward 7 unknown #
coedge $-1 $262 $162 $100 $171 forward $96 $-1 #
edge $-1 $172 31.301151479804226 $263 41.646322717584304 $170 $264 forward 7 unknown #
vertex $-1 $171 $265 #
vertex $-1 $169 $266 #
straight-curve $-1 -67.774888578498491 -31.60065629566316 0 0 0 -1 I I #
face $-1 $-1 $267 $23 $-1 $268 reversed single #
loop $-1 $-1 $109 $103 #
plane-surface $-1 0 0 11.602204819554315 0 0 1 1 0 0 forward_v I I I I #
coedge $-1 $269 $270 $107 $184 forward $104 $-1 #
coedge $-1 $180 $106 $108 $185 reversed $65 $-1 #
coedge $-1 $106 $179 $271 $272 reversed $65 $-1 #
coedge $-1 $273 $109 $106 $182 forward $176 $-1 #
edge $-1 $188 -45.980395048641206 $274 -41.229397622957855 $181 $275 forward 7 unknown #
coedge $-1 $108 $107 $276 $277 reversed $42 $-1 #
edge $-1 $278 -9.6896511478279699 $187 -2.2984111377826721 $178 $279 forward 7 unknown #
edge $-1 $280 -1.1371122099518014e-014 $188 7.391240010045288 $179 $281 forward 7 unknown #
coedge $-1 $109 $273 $269 $282 forward $176 $-1 #
vertex $-1 $184 $283 #
vertex $-1 $110 $284 #
straight-curve $-1 33.573552574671027 -32.477084059871366 11.602204819554315 -1 0 0 I I #
coedge $-1 $190 $190 $-1 $285 reversed $113 $-1 #
edge $-1 $286 0 $286 6.2831853071796004 $114 $287 forward 7 unknown #
vertex $-1 $117 $288 #
ellipse-curve $-1 67.147105149342053 -34.852582772713042 8.7711956202031143 0 -0.7660444514056185 0.64278759981090561 1.5 0 0 1 I I #
face $-1 $-1 $289 $25 $-1 $290 forward single #
loop $-1 $-1 $124 $118 #
plane-surface $-1 0 37.228081485554718 0 0 -1 0 0 0 -1 forward_v I I I I #
coedge $-1 $291 $292 $122 $203 forward $119 $-1 #
coedge $-1 $199 $121 $123 $204 reversed $74 $-1 #
coedge $-1 $121 $198 $293 $294 reversed $74 $-1 #
coedge $-1 $295 $124 $121 $201 forward $195 $-1 #
edge $-1 $207 -81.925846999853121 $296 -70.583280858436538 $200 $297 forward 7 unknown #
coedge $-1 $123 $122 $298 $299 reversed $48 $-1 #
edge $-1 $300 34.199456525484493 $206 50.527721598676912 $197 $301 forward 7 unknown #
edge $-1 $302 58.127897897917009 $207 74.456162971109421 $198 $303 forward 7 unknown #
coedge $-1 $124 $295 $291 $304 forward $195 $-1 #
vertex $-1 $125 $305 #
vertex $-1 $125 $306 #
straight-curve $-1 34.905739487104796 37.228081485554711 0.25963867813773334 -1 0 0 I I #
coedge $-1 $209 $209 $-1 $307 reversed $128 $-1 #
edge $-1 $308 0 $308 6.2831853071796004 $129 $309 forward 7 unknown #
vertex $-1 $132 $310 #
ellipse-curve $-1 66.250658613322912 31.355296081080418 5.9309217488460151 0 0.69465837861970381 0.71933979245794832 1 0 0 1 I I #
coedge $-1 $213 $213 $-1 $311 reversed $135 $-1 #
edge $-1 $312 0 $312 6.2831853071796004 $136 $313 forward 7 unknown #
vertex $-1 $139 $314 #
ellipse-curve $-1 73.372299335096301 31.355296081080418 5.9309217488460151 0 0.69465837861970381 0.71933979245794832 1 0 0 1 I I #
face $-1 $-1 $155 $21 $-1 $315 reversed single #
loop $-1 $-1 $233 $140 #
plane-surface $-1 0 37.228081485554718 0 0 -1 0 0 0 -1 forward_v I I I I #
coedge $-1 $316 $231 $234 $317 forward $141 $-1 #
coedge $-1 $237 $143 $144 $225 reversed $88 $-1 #
coedge $-1 $231 $316 $143 $223 reversed $141 $-1 #
edge $-1 $238 -11.602204819554315 $318 11.602204819554315 $222 $319 forward 7 unknown #
coedge $-1 $145 $144 $316 $320 forward $57 $-1 #
edge $-1 $229 -78.12005981627857 $318 78.12005981627857 $221 $321 forward 7 unknown #
coedge $-1 $234 $233 $145 $227 reversed $218 $-1 #
edge $-1 $322 -78.12005981627857 $228 78.12005981627857 $226 $323 forward 7 unknown #
vertex $-1 $147 $324 #
vertex $-1 $240 $325 #
straight-curve $-1 78.12005981627857 0 -11.602204819554315 0 -1 0 I I #
coedge $-1 $220 $222 $148 $232 reversed $141 $-1 #
edge $-1 $235 -37.228081485554718 $238 37.228081485554718 $231 $326 forward 7 unknown #
coedge $-1 $226 $149 $154 $241 forward $218 $-1 #
coedge $-1 $149 $226 $220 $317 reversed $218 $-1 #
vertex $-1 $150 $327 #
straight-curve $-1 0 37.228081485554718 11.602204819554315 -1 0 0 I I #
coedge $-1 $151 $221 $153 $240 reversed $88 $-1 #
vertex $-1 $232 $328 #
straight-curve $-1 0 -37.228081485554718 11.602204819554315 1 0 0 I I #
edge $-1 $156 -11.602204819554315 $229 11.602204819554315 $153 $329 forward 7 unknown #
edge $-1 $157 -11.602204819554315 $228 11.602204819554315 $154 $330 forward 7 unknown #
point $-1 78.12005981627857 -37.228081485554718 11.602204819554315 #
point $-1 78.12005981627857 37.228081485554718 11.602204819554315 #
face $-1 $-1 $254 $22 $-1 $331 reversed single #
loop $-1 $-1 $250 $159 #
plane-surface $-1 0 0 -11.602204819554315 0 0 1 1 0 0 forward_v I I I I #
coedge $-1 $332 $333 $167 $258 forward $160 $-1 #
coedge $-1 $162 $262 $252 $334 forward $96 $-1 #
edge $-1 $256 -20.020897040250247 $172 -14.39347185035869 $162 $335 forward 7 unknown #
coedge $-1 $336 $168 $163 $251 forward $245 $-1 #
edge $-1 $173 14.39347185035869 $255 20.020897040250247 $250 $337 forward 7 unknown #
coedge $-1 $338 $165 $248 $334 reversed $254 $-1 #
coedge $-1 $165 $338 $336 $339 reversed $254 $-1 #
loop $-1 $-1 $165 $244 #
vertex $-1 $339 $340 #
vertex $-1 $166 $341 #
straight-curve $-1 -67.774888578498491 -37.228081485554718 0 0 0 1 I I #
edge $-1 $263 -11.602204819554315 $260 11.602204819554315 $247 $342 forward 7 unknown #
coedge $-1 $168 $336 $332 $343 forward $245 $-1 #
vertex $-1 $169 $344 #
straight-curve $-1 -36.473737098694265 -31.60065629566316 -11.602204819554315 1 0 0 I I #
coedge $-1 $248 $170 $333 $345 forward $96 $-1 #
vertex $-1 $345 $346 #
straight-curve $-1 -36.473737098694265 -31.60065629566316 11.602204819554315 -1 0 0 I I #
point $-1 -67.774888578498491 -31.60065629566316 11.602204819554315 #
point $-1 -67.774888578498491 -31.60065629566316 -11.602204819554315 #
loop $-1 $-1 $276 $175 #
plane-surface $-1 0 -37.228081485554718 0 0 1 0 0 0 1 forward_v I I I I #
coedge $-1 $270 $178 $186 $282 reversed $104 $-1 #
coedge $-1 $178 $269 $347 $348 forward $104 $-1 #
coedge $-1 $276 $349 $180 $272 forward $267 $-1 #
edge $-1 $274 41.582494137261719 $280 47.244512535964127 $271 $350 forward 7 unknown #
coedge $-1 $186 $181 $349 $351 forward $176 $-1 #
vertex $-1 $351 $352 #
straight-curve $-1 56.174150482405551 -78.457479108512572 11.602204819554316 0 -1 0 I I #
coedge $-1 $347 $271 $183 $277 forward $267 $-1 #
edge $-1 $280 22.600597907734524 $278 44.546507241607529 $276 $353 forward 7 unknown #
vertex $-1 $184 $354 #
straight-curve $-1 78.12005981627857 -30.999693881237391 13.362889918701606 0 0.64278759981090572 0.76604445140561861 I I #
vertex $-1 $277 $355 #
straight-curve $-1 56.174150482405551 -37.228081485554711 5.9401864208519157 0 0.64278759981090561 0.7660444514056185 I I #
edge $-1 $356 -37.228081485554718 $187 -32.477084059871366 $269 $357 forward 7 unknown #
point $-1 78.120059816278555 -32.477084059871366 11.602204819554315 #
point $-1 56.174150482405551 -32.477084059871366 11.602204819554315 #
edge $-1 $358 1 $358 0 $190 $-1 forward 7 unknown #
vertex $-1 $191 $359 #
ellipse-curve $-1 67.147105149342053 -32.456329707733865 6.7605006098140707 0 -0.7660444514056185 0.64278759981090561 1.5 0 0 1 I I #
point $-1 68.647105149342053 -34.852582772713056 8.7711956202031267 #
loop $-1 $-1 $298 $194 #
plane-surface $-1 0 0 11.602204819554315 0 0 1 1 0 0 forward_v I I I I #
coedge $-1 $292 $197 $205 $304 reversed $119 $-1 #
coedge $-1 $197 $291 $360 $361 reversed $119 $-1 #
coedge $-1 $298 $362 $199 $294 forward $289 $-1 #
edge $-1 $296 8.873072937446473 $302 20.618643746395072 $293 $363 forward 7 unknown #
coedge $-1 $205 $200 $362 $364 reversed $195 $-1 #
vertex $-1 $201 $365 #
straight-curve $-1 61.502898132140629 37.228081485554718 82.185485677990854 0 0 1 I I #
coedge $-1 $360 $293 $202 $299 forward $289 $-1 #
edge $-1 $302 26.597158645035833 $300 43.214320329173759 $298 $366 forward 7 unknown #
vertex $-1 $361 $367 #
straight-curve $-1 78.12005981627857 0.88148071738947209 35.359143839222426 0 0.71933979245794832 -0.69465837861970381 I I #
vertex $-1 $299 $368 #
straight-curve $-1 61.502898132140629 -16.331199333298315 51.981236125893034 0 0.71933979245794832 -0.69465837861970381 I I #
edge $-1 $369 -11.602204819554315 $206 -0.25963867813773367 $291 $370 forward 7 unknown #
point $-1 78.12005981627857 37.228081485554718 0.25963867813773367 #
point $-1 61.502898132140629 37.228081485554711 0.25963867813773334 #
edge $-1 $371 1 $371 0 $209 $-1 forward 7 unknown #
vertex $-1 $210 $372 #
ellipse-curve $-1 66.250658613322912 30.557415202826959 5.1046919313788282 0 0.69465837861970381 0.71933979245794832 1 0 0 1 I I #
point $-1 67.250658613322912 31.355296081080422 5.930921748846016 #
edge $-1 $373 1 $373 0 $213 $-1 forward 7 unknown #
vertex $-1 $214 $374 #
ellipse-curve $-1 73.372299335096301 30.557415202826959 5.1046919313788282 0 0.69465837861970381 0.71933979245794832 1 0 0 1 I I #
point $-1 74.372299335096301 31.355296081080422 5.930921748846016 #
plane-surface $-1 78.12005981627857 0 0 -1 0 0 0 0 1 forward_v I I I I #
coedge $-1 $222 $220 $224 $320 reversed $141 $-1 #
edge $-1 $235 -11.602204819554315 $322 11.602204819554315 $234 $375 forward 7 unknown #
vertex $-1 $320 $376 #
straight-curve $-1 -78.12005981627857 -37.228081485554718 0 0 0 -1 I I #
edge $-1 $318 -37.228081485554718 $322 37.228081485554718 $316 $377 forward 7 unknown #
straight-curve $-1 0 -37.228081485554718 -11.602204819554315 -1 0 0 I I #
vertex $-1 $227 $378 #
straight-curve $-1 0 37.228081485554718 -11.602204819554315 1 0 0 I I #
point $-1 78.12005981627857 37.228081485554718 -11.602204819554315 #
point $-1 78.12005981627857 -37.228081485554718 -11.602204819554315 #
straight-curve $-1 -78.12005981627857 0 11.602204819554315 0 -1 0 I I #
point $-1 -78.12005981627857 37.228081485554718 11.602204819554315 #
point $-1 -78.12005981627857 -37.228081485554718 11.602204819554315 #
straight-curve $-1 78.12005981627857 -37.228081485554718 0 0 0 -1 I I #
straight-curve $-1 78.12005981627857 37.228081485554718 0 0 0 -1 I I #
plane-surface $-1 0 -37.228081485554718 0 0 1 0 0 0 1 forward_v I I I I #
coedge $-1 $379 $247 $259 $343 reversed $160 $-1 #
coedge $-1 $247 $379 $262 $345 reversed $160 $-1 #
edge $-1 $380 -78.12005981627857 $256 -67.774888578498491 $252 $381 forward 7 unknown #
straight-curve $-1 -67.774888578498491 -17.20718444530447 11.602204819554315 0 1 0 I I #
coedge $-1 $259 $250 $253 $339 forward $245 $-1 #
straight-curve $-1 -67.774888578498491 -17.20718444530447 -11.602204819554315 0 -1 0 I I #
coedge $-1 $253 $252 $379 $382 forward $254 $-1 #
edge $-1 $255 67.774888578498491 $383 78.12005981627857 $253 $384 forward 7 unknown #
point $-1 -67.774888578498491 -37.228081485554718 -11.602204819554315 #
point $-1 -67.774888578498491 -37.228081485554718 11.602204819554315 #
straight-curve $-1 -78.12005981627857 -31.60065629566316 0 0 0 -1 I I #
edge $-1 $383 -37.228081485554718 $260 -31.60065629566316 $332 $385 forward 7 unknown #
point $-1 -78.12005981627857 -31.60065629566316 -11.602204819554315 #
edge $-1 $263 31.60065629566316 $380 37.228081485554718 $333 $386 forward 7 unknown #
point $-1 -78.12005981627857 -31.60065629566316 11.602204819554315 #
coedge $-1 $349 $276 $270 $348 reversed $267 $-1 #
edge $-1 $356 -11.602204819554315 $278 -5.9401864208519068 $270 $387 forward 7 unknown #
coedge $-1 $271 $347 $273 $351 reversed $267 $-1 #
straight-curve $-1 56.174150482405551 -37.228081485554718 53.184698956816035 0 0 -1 I I #
edge $-1 $274 56.174150482405551 $356 78.12005981627857 $349 $388 forward 7 unknown #
point $-1 56.174150482405551 -37.228081485554718 11.602204819554315 #
straight-curve $-1 33.573552574671027 -37.228081485554718 5.9401864208519042 1 0 0 I I #
point $-1 78.120059816278555 -37.228081485554718 5.9401864208519068 #
point $-1 56.174150482405551 -37.228081485554718 5.9401864208519068 #
vertex $-1 $282 $389 #
straight-curve $-1 78.12005981627857 0 11.602204819554315 0 1 0 I I #
vertex $-1 $285 $390 #
point $-1 68.647105149342053 -32.456329707733865 6.7605006098140707 #
coedge $-1 $362 $298 $292 $361 forward $289 $-1 #
edge $-1 $300 25.482510676606118 $369 37.228081485554718 $292 $391 forward 7 unknown #
coedge $-1 $293 $360 $295 $364 forward $289 $-1 #
straight-curve $-1 61.502898132140629 46.101154423001191 11.602204819554316 0 -1 0 I I #
edge $-1 $369 -78.12005981627857 $296 -61.502898132140629 $295 $392 forward 7 unknown #
point $-1 61.502898132140629 37.228081485554718 11.602204819554315 #
straight-curve $-1 34.905739487104796 25.482510676606111 11.602204819554316 1 0 0 I I #
point $-1 78.120059816278555 25.482510676606118 11.602204819554316 #
point $-1 61.502898132140629 25.482510676606118 11.602204819554316 #
vertex $-1 $361 $393 #
straight-curve $-1 78.12005981627857 37.228081485554718 0 0 0 -1 I I #
vertex $-1 $307 $394 #
point $-1 67.250658613322912 30.557415202826959 5.1046919313788282 #
vertex $-1 $311 $395 #
point $-1 74.372299335096301 30.557415202826959 5.1046919313788282 #
straight-curve $-1 -78.12005981627857 37.228081485554718 0 0 0 -1 I I #
point $-1 -78.12005981627857 -37.228081485554718 -11.602204819554315 #
straight-curve $-1 -78.12005981627857 0 -11.602204819554315 0 1 0 I I #
point $-1 -78.12005981627857 37.228081485554718 -11.602204819554315 #
coedge $-1 $333 $332 $338 $382 reversed $160 $-1 #
vertex $-1 $345 $396 #
straight-curve $-1 0 -37.228081485554718 11.602204819554315 1 0 0 I I #
edge $-1 $380 -11.602204819554315 $383 11.602204819554315 $379 $397 forward 7 unknown #
vertex $-1 $343 $398 #
straight-curve $-1 0 -37.228081485554718 -11.602204819554315 -1 0 0 I I #
straight-curve $-1 -78.12005981627857 0 -11.602204819554315 0 1 0 I I #
straight-curve $-1 -78.12005981627857 0 11.602204819554315 0 -1 0 I I #
straight-curve $-1 78.12005981627857 -37.228081485554718 0 0 0 -1 I I #
straight-curve $-1 0 -37.228081485554718 11.602204819554315 1 0 0 I I #
point $-1 78.12005981627857 -37.228081485554718 11.602204819554315 #
point $-1 67.147105149342053 -31.307263030625439 5.796319210097713 #
straight-curve $-1 78.12005981627857 0 11.602204819554315 0 1 0 I I #
straight-curve $-1 0 37.228081485554718 11.602204819554315 -1 0 0 I I #
point $-1 78.12005981627857 37.228081485554718 11.602204819554315 #
point $-1 66.250658613322912 29.862756824207253 4.3853521389208785 #
point $-1 73.372299335096301 29.862756824207253 4.3853521389208785 #
point $-1 -78.12005981627857 -37.228081485554718 11.602204819554315 #
straight-curve $-1 -78.12005981627857 -37.228081485554718 0 0 0 -1 I I #
point $-1 -78.12005981627857 -37.228081485554718 -11.602204819554315 #
End-of-ACIS-data 