500 0 8 0           
7 Unknown 11 ACIS 5.0 NT 24 Fri Mar 26 15:12:25 1999 
-1 9.9999999999999995e-007 1e-010 
body $-1 $8 $-1 $9 #
body $-1 $10 $-1 $11 #
body $-1 $12 $-1 $13 #
body $-1 $14 $-1 $15 #
body $-1 $16 $-1 $17 #
body $-1 $18 $-1 $19 #
body $-1 $20 $-1 $21 #
body $-1 $22 $-1 $23 #
lump $-1 $-1 $24 $0 #
transform $-1 1 0 0 0 1 0 0 0 1 67.984252449110386 36.875652762040268 8.0169404455991167 1 rotate no_reflect no_shear #
lump $-1 $-1 $25 $1 #
transform $-1 1 0 0 0 1 0 0 0 1 67.984252449110386 36.875652762040268 8.0169404455991167 1 rotate no_reflect no_shear #
lump $-1 $-1 $26 $2 #
transform $-1 1 0 0 0 1 0 0 0 1 67.984252449110386 36.875652762040268 8.0169404455991167 1 rotate no_reflect no_shear #
lump $-1 $-1 $27 $3 #
transform $-1 1 0 0 0 1 0 0 0 1 67.984252449110386 36.875652762040268 8.0169404455991167 1 rotate no_reflect no_shear #
lump $-1 $-1 $28 $4 #
transform $-1 1 0 0 0 1 0 0 0 1 67.984252449110386 36.875652762040268 8.0169404455991167 1 rotate no_reflect no_shear #
lump $-1 $-1 $29 $5 #
transform $-1 1 0 0 0 1 0 0 0 1 67.984252449110386 36.875652762040268 8.0169404455991167 1 rotate no_reflect no_shear #
lump $-1 $-1 $30 $6 #
transform $-1 1 0 0 0 1 0 0 0 1 67.984252449110386 36.875652762040268 8.0169404455991167 1 rotate no_reflect no_shear #
lump $-1 $-1 $31 $7 #
transform $-1 1 0 0 0 1 0 0 0 1 67.984252449110386 36.875652762040268 8.0169404455991167 1 rotate no_reflect no_shear #
shell $-1 $-1 $-1 $32 $-1 $8 #
shell $-1 $-1 $-1 $33 $-1 $10 #
shell $-1 $-1 $-1 $34 $-1 $12 #
shell $-1 $-1 $-1 $35 $-1 $14 #
shell $-1 $-1 $-1 $36 $-1 $16 #
shell $-1 $-1 $-1 $37 $-1 $18 #
shell $-1 $-1 $-1 $38 $-1 $20 #
shell $-1 $-1 $-1 $39 $-1 $22 #
face $-1 $40 $41 $24 $-1 $42 forward single #
face $-1 $43 $44 $25 $-1 $45 reversed single #
face $-1 $46 $47 $26 $-1 $48 reversed single #
face $-1 $49 $50 $27 $-1 $51 forward single #
face $-1 $52 $53 $28 $-1 $54 forward single #
face $-1 $55 $56 $29 $-1 $57 reversed single #
face $-1 $58 $59 $30 $-1 $60 forward single #
face $-1 $61 $62 $31 $-1 $63 forward single #
face $-1 $64 $65 $24 $-1 $66 reversed single #
loop $-1 $-1 $67 $32 #
plane-surface $-1 0 0 8.0169404455991167 0 0 1 1 0 0 forward_v I I I I #
face $-1 $68 $69 $25 $-1 $70 reversed single #
loop $-1 $-1 $71 $33 #
plane-surface $-1 -65.255742662186648 0 4.1320016181358117 0 0 1 1 0 0 forward_v I I I I #
face $-1 $72 $73 $26 $-1 $74 reversed single #
loop $-1 $-1 $75 $34 #
plane-surface $-1 -25.428226931575345 -133.01990571888712 96.372230837614026 -1 0 0 0 -0.70710678939079041 0.70710677298230451 forward_v I I I I #
face $-1 $76 $77 $27 $-1 $78 forward single #
loop $-1 $79 $80 $35 #
cone-surface $-1 -51.92751689135217 -31.345571474287116 2.4868591054284459 0 0.70710678939079041 -0.70710677298230451 2 0 0 1 I I 0 1 2 forward I I I I #
face $-1 $81 $82 $28 $-1 $83 forward single #
loop $-1 $84 $85 $36 #
cone-surface $-1 -36.027942915486072 -31.345571474287116 2.4868591054284459 0 0.70710678939079041 -0.70710677298230451 2 0 0 1 I I 0 1 2 forward I I I I #
face $-1 $86 $87 $29 $-1 $88 reversed single #
loop $-1 $-1 $89 $37 #
plane-surface $-1 -45.494462396827785 -21.241168638596783 45.524498032570961 0 0.61566148304635926 0.78801074757464917 1 0 0 forward_v I I I I #
face $-1 $90 $91 $30 $-1 $92 forward single #
loop $-1 $93 $94 $38 #
cone-surface $-1 -52.794221173299974 29.632395270248022 1.266534632836458 0 -0.61566148304635926 -0.78801074757464917 2 0 0 1 I I 0 1 2 forward I I I I #
face $-1 $95 $96 $31 $-1 $97 forward single #
loop $-1 $98 $99 $39 #
cone-surface $-1 -38.194703620355583 29.632395270248022 1.266534632836458 0 -0.61566148304635926 -0.78801074757464917 2 0 0 1 I I 0 1 2 forward I I I I #
face $-1 $100 $101 $24 $-1 $102 reversed single #
loop $-1 $-1 $103 $40 #
plane-surface $-1 0 0 -8.0169404455991167 0 0 1 1 0 0 forward_v I I I I #
coedge $-1 $104 $105 $106 $107 forward $41 $-1 #
face $-1 $108 $109 $25 $-1 $110 reversed single #
loop $-1 $-1 $111 $43 #
plane-surface $-1 -62.527232875262904 0 6.0744710318674642 -1 0 0 0 0 1 forward_v I I I I #
coedge $-1 $112 $113 $114 $115 forward $44 $-1 #
face $-1 $116 $117 $26 $-1 $118 forward single #
loop $-1 $-1 $119 $46 #
plane-surface $-1 -43.977729903419124 -36.875652762040261 0.2279801118044702 0 -0.70710678939079041 0.70710677298230451 1 0 0 forward_v I I I I #
coedge $-1 $120 $121 $122 $123 reversed $47 $-1 #
face $-1 $-1 $124 $27 $-1 $125 forward single #
loop $-1 $126 $127 $49 #
cone-surface $-1 -51.92751689135217 -29.002863473668683 0.14415115917279309 0 0.70710678939079041 -0.70710677298230451 1 0 0 1 I I -0.70710678118654746 0.70710678118654746 1 forward I I I I #
loop $-1 $-1 $128 $35 #
coedge $-1 $80 $80 $129 $130 reversed $50 $-1 #
face $-1 $-1 $131 $28 $-1 $132 forward single #
loop $-1 $133 $134 $52 #
cone-surface $-1 -36.027942915486072 -29.002863473668683 0.14415115917279309 0 0.70710678939079041 -0.70710677298230451 1 0 0 1 I I -0.70710678118654746 0.70710678118654746 1 forward I I I I #
loop $-1 $-1 $135 $36 #
coedge $-1 $85 $85 $136 $137 reversed $53 $-1 #
face $-1 $138 $139 $29 $-1 $140 forward single #
loop $-1 $-1 $141 $55 #
plane-surface $-1 -28.461691918392663 62.469402734637974 152.66914122402525 -1 0 0 0 0.61566148304635926 0.78801074757464917 forward_v I I I I #
coedge $-1 $142 $143 $144 $145 reversed $56 $-1 #
face $-1 $-1 $146 $30 $-1 $147 forward single #
loop $-1 $148 $149 $58 #
cone-surface $-1 -52.794221173299974 26.828145241768574 -2.3227416532064762 0 -0.61566148304635926 -0.78801074757464917 1 0 0 1 I I -0.70710678118654746 0.70710678118654746 1 forward I I I I #
loop $-1 $-1 $150 $38 #
coedge $-1 $94 $94 $151 $152 reversed $59 $-1 #
face $-1 $-1 $153 $31 $-1 $154 forward single #
loop $-1 $155 $156 $61 #
cone-surface $-1 -38.194703620355583 26.828145241768574 -2.3227416532064762 0 -0.61566148304635926 -0.78801074757464917 1 0 0 1 I I -0.70710678118654746 0.70710678118654746 1 forward I I I I #
loop $-1 $-1 $157 $39 #
coedge $-1 $99 $99 $158 $159 reversed $62 $-1 #
face $-1 $160 $161 $24 $-1 $162 reversed single #
loop $-1 $-1 $163 $64 #
plane-surface $-1 0 -36.875652762040268 0 0 1 0 0 0 1 forward_v I I I I #
coedge $-1 $164 $165 $166 $167 forward $65 $-1 #
coedge $-1 $168 $67 $169 $170 forward $41 $-1 #
coedge $-1 $67 $168 $171 $172 forward $41 $-1 #
coedge $-1 $173 $174 $67 $107 reversed $175 $-1 #
edge $-1 $176 -36.875652762040268 $177 36.875652762040268 $106 $178 forward 7 unknown #
face $-1 $179 $180 $25 $-1 $181 reversed single #
loop $-1 $-1 $182 $68 #
plane-surface $-1 0 36.875652762040268 0 0 -1 0 0 0 -1 forward_v I I I I #
coedge $-1 $183 $184 $185 $186 reversed $69 $-1 #
coedge $-1 $187 $71 $188 $189 reversed $44 $-1 #
coedge $-1 $71 $187 $190 $191 reversed $44 $-1 #
coedge $-1 $184 $183 $71 $115 reversed $69 $-1 #
edge $-1 $192 -36.875652762040268 $193 36.875652762040268 $114 $194 forward 7 unknown #
face $-1 $195 $196 $26 $-1 $197 forward single #
loop $-1 $-1 $198 $72 #
plane-surface $-1 -62.527232875262904 0 6.0744710318674642 -1 0 0 0 0 1 forward_v I I I I #
coedge $-1 $199 $200 $201 $202 reversed $73 $-1 #
coedge $-1 $121 $75 $203 $204 reversed $47 $-1 #
coedge $-1 $75 $120 $199 $205 reversed $47 $-1 #
coedge $-1 $201 $206 $75 $123 forward $196 $-1 #
edge $-1 $207 29.63430009740329 $208 37.423260250454319 $122 $209 forward 7 unknown #
loop $-1 $-1 $129 $76 #
plane-surface $-1 -43.977729903419124 -36.875652762040261 0.2279801118044702 0 -0.70710678939079041 0.70710677298230451 1 0 0 forward_v I I I I #
loop $-1 $-1 $210 $49 #
coedge $-1 $127 $127 $128 $211 reversed $77 $-1 #
coedge $-1 $128 $128 $127 $211 forward $79 $-1 #
coedge $-1 $129 $129 $80 $130 forward $124 $-1 #
edge $-1 $212 1.5700924769008536e-015 $212 6.2831853071796022 $129 $213 forward 7 unknown #
loop $-1 $-1 $136 $81 #
plane-surface $-1 -43.977729903419124 -36.875652762040261 0.2279801118044702 0 -0.70710678939079041 0.70710677298230451 1 0 0 forward_v I I I I #
loop $-1 $-1 $214 $52 #
coedge $-1 $134 $134 $135 $215 reversed $82 $-1 #
coedge $-1 $135 $135 $134 $215 forward $84 $-1 #
coedge $-1 $136 $136 $85 $137 forward $131 $-1 #
edge $-1 $216 1.5700924769008536e-015 $216 6.2831853071796022 $136 $217 forward 7 unknown #
face $-1 $218 $219 $29 $-1 $220 reversed single #
loop $-1 $-1 $144 $86 #
plane-surface $-1 0 0 8.0169404455991167 0 0 1 1 0 0 forward_v I I I I #
coedge $-1 $221 $222 $223 $224 reversed $87 $-1 #
coedge $-1 $225 $89 $226 $227 reversed $56 $-1 #
coedge $-1 $89 $225 $221 $228 forward $56 $-1 #
coedge $-1 $223 $229 $89 $145 forward $139 $-1 #
edge $-1 $230 -39.780001676849018 $231 -5.7144607199787707 $144 $232 forward 7 unknown #
loop $-1 $-1 $151 $90 #
plane-surface $-1 -45.494462396827785 -21.241168638596783 45.524498032570961 0 0.61566148304635926 0.78801074757464917 1 0 0 forward_v I I I I #
loop $-1 $-1 $233 $58 #
coedge $-1 $149 $149 $150 $234 reversed $91 $-1 #
coedge $-1 $150 $150 $149 $234 forward $93 $-1 #
coedge $-1 $151 $151 $94 $152 forward $146 $-1 #
edge $-1 $235 2.0791827500266475e-016 $235 6.2831853071796004 $151 $236 forward 7 unknown #
loop $-1 $-1 $158 $95 #
plane-surface $-1 -45.494462396827785 -21.241168638596783 45.524498032570961 0 0.61566148304635926 0.78801074757464917 1 0 0 forward_v I I I I #
loop $-1 $-1 $237 $61 #
coedge $-1 $156 $156 $157 $238 reversed $96 $-1 #
coedge $-1 $157 $157 $156 $238 forward $98 $-1 #
coedge $-1 $158 $158 $99 $159 forward $153 $-1 #
edge $-1 $239 2.0791827500266475e-016 $239 6.2831853071796004 $158 $240 forward 7 unknown #
face $-1 $241 $242 $24 $-1 $243 reversed single #
loop $-1 $-1 $244 $100 #
plane-surface $-1 -67.984252449110386 0 0 1 0 0 0 0 -1 forward_v I I I I #
coedge $-1 $245 $171 $246 $247 forward $101 $-1 #
coedge $-1 $248 $103 $245 $249 forward $65 $-1 #
coedge $-1 $103 $248 $250 $251 forward $65 $-1 #
coedge $-1 $174 $173 $103 $167 reversed $175 $-1 #
edge $-1 $252 -36.875652762040268 $253 36.875652762040268 $166 $254 forward 7 unknown #
coedge $-1 $105 $104 $255 $256 forward $41 $-1 #
coedge $-1 $257 $258 $104 $170 reversed $242 $-1 #
edge $-1 $177 -67.984252449110386 $259 67.984252449110386 $169 $260 forward 7 unknown #
coedge $-1 $163 $261 $105 $172 reversed $101 $-1 #
edge $-1 $262 -67.984252449110386 $176 67.984252449110386 $171 $263 forward 7 unknown #
coedge $-1 $166 $106 $261 $264 forward $175 $-1 #
coedge $-1 $106 $166 $257 $265 reversed $175 $-1 #
loop $-1 $-1 $173 $241 #
vertex $-1 $107 $266 #
vertex $-1 $107 $267 #
straight-curve $-1 67.984252449110386 0 8.0169404455991167 0 1 0 I I #
face $-1 $268 $269 $25 $-1 $270 forward single #
loop $-1 $-1 $271 $108 #
plane-surface $-1 -67.984252449110386 0 0 1 0 0 0 0 -1 forward_v I I I I #
coedge $-1 $190 $272 $184 $273 forward $109 $-1 #
coedge $-1 $114 $111 $274 $275 reversed $69 $-1 #
coedge $-1 $111 $114 $182 $273 reversed $69 $-1 #
coedge $-1 $276 $277 $111 $186 forward $269 $-1 #
edge $-1 $278 -36.875652762040268 $279 36.875652762040268 $185 $280 forward 7 unknown #
coedge $-1 $113 $112 $271 $281 reversed $44 $-1 #
coedge $-1 $274 $282 $112 $189 forward $283 $-1 #
edge $-1 $284 -35.356381118017062 $193 -29.899361544169579 $188 $285 forward 7 unknown #
coedge $-1 $286 $182 $113 $191 forward $109 $-1 #
edge $-1 $192 29.899361544169579 $287 35.356381118017062 $190 $288 forward 7 unknown #
vertex $-1 $191 $289 #
vertex $-1 $189 $290 #
straight-curve $-1 -62.527232875262904 0 4.1320016181358117 0 -1 0 I I #
face $-1 $-1 $291 $26 $-1 $292 reversed single #
loop $-1 $-1 $201 $116 #
plane-surface $-1 0 0 8.0169404455991167 0 0 1 1 0 0 forward_v I I I I #
coedge $-1 $293 $294 $200 $295 reversed $117 $-1 #
coedge $-1 $296 $119 $121 $205 forward $73 $-1 #
coedge $-1 $119 $296 $198 $295 forward $73 $-1 #
coedge $-1 $297 $122 $119 $202 forward $196 $-1 #
edge $-1 $208 3.4393619798657831 $298 40.538367923553338 $201 $299 forward 7 unknown #
coedge $-1 $300 $301 $120 $204 forward $291 $-1 #
edge $-1 $302 -47.95813530700255 $207 -40.169174973207895 $203 $303 forward 7 unknown #
edge $-1 $208 -11.015253213033416 $302 1.0048591735576163e-014 $121 $304 forward 7 unknown #
coedge $-1 $122 $297 $300 $305 forward $196 $-1 #
vertex $-1 $204 $306 #
vertex $-1 $123 $307 #
straight-curve $-1 -25.428226931575345 -66.509952859443558 8.0169404455991184 0 1 0 I I #
coedge $-1 $210 $210 $-1 $308 reversed $126 $-1 #
edge $-1 $309 0 $309 6.2831853071796004 $127 $310 forward 7 unknown #
vertex $-1 $130 $311 #
ellipse-curve $-1 -51.92751689135217 -32.981172685514757 4.1224602787017899 0 -0.70710678939079041 0.70710677298230451 2 0 0 1 I I #
coedge $-1 $214 $214 $-1 $312 reversed $133 $-1 #
edge $-1 $313 0 $313 6.2831853071796004 $134 $314 forward 7 unknown #
vertex $-1 $137 $315 #
ellipse-curve $-1 -36.027942915486072 -32.981172685514757 4.1224602787017899 0 -0.70710678939079041 0.70710677298230451 2 0 0 1 I I #
face $-1 $-1 $316 $29 $-1 $317 forward single #
loop $-1 $-1 $318 $138 #
plane-surface $-1 0 36.875652762040268 0 0 -1 0 0 0 -1 forward_v I I I I #
coedge $-1 $222 $141 $143 $228 reversed $87 $-1 #
coedge $-1 $141 $221 $318 $319 reversed $87 $-1 #
coedge $-1 $320 $144 $141 $224 forward $139 $-1 #
edge $-1 $231 -4.4683864979970274 $321 5.6409513947212808 $223 $322 forward 7 unknown #
coedge $-1 $143 $142 $323 $324 reversed $56 $-1 #
coedge $-1 $325 $326 $142 $227 forward $316 $-1 #
edge $-1 $327 -53.238239870214585 $230 -40.409305843828562 $226 $328 forward 7 unknown #
edge $-1 $329 -73.751305524080522 $231 -60.922371497694499 $221 $330 forward 7 unknown #
coedge $-1 $144 $320 $325 $331 forward $139 $-1 #
vertex $-1 $227 $332 #
vertex $-1 $145 $333 #
straight-curve $-1 -22.747231198413893 26.766314869321956 8.0169404455991149 1 0 0 I I #
coedge $-1 $233 $233 $-1 $334 reversed $148 $-1 #
edge $-1 $335 0 $335 6.2831853071796004 $149 $336 forward 7 unknown #
vertex $-1 $152 $337 #
ellipse-curve $-1 -52.794221173299974 31.820983815681117 4.0678001713047527 0 0.61566148304635926 0.78801074757464917 2 0 0 1 I I #
coedge $-1 $237 $237 $-1 $338 reversed $155 $-1 #
edge $-1 $339 0 $339 6.2831853071796004 $156 $340 forward 7 unknown #
vertex $-1 $159 $341 #
ellipse-curve $-1 -38.194703620355583 31.820983815681117 4.0678001713047527 0 0.61566148304635926 0.78801074757464917 2 0 0 1 I I #
face $-1 $-1 $175 $24 $-1 $342 reversed single #
loop $-1 $-1 $257 $160 #
plane-surface $-1 0 36.875652762040268 0 0 -1 0 0 0 -1 forward_v I I I I #
coedge $-1 $343 $255 $258 $344 forward $161 $-1 #
coedge $-1 $261 $163 $164 $249 reversed $101 $-1 #
coedge $-1 $255 $343 $163 $247 reversed $161 $-1 #
edge $-1 $262 -8.0169404455991167 $345 8.0169404455991167 $246 $346 forward 7 unknown #
coedge $-1 $165 $164 $343 $347 forward $65 $-1 #
edge $-1 $253 -67.984252449110386 $345 67.984252449110386 $245 $348 forward 7 unknown #
coedge $-1 $258 $257 $165 $251 reversed $242 $-1 #
edge $-1 $349 -67.984252449110386 $252 67.984252449110386 $250 $350 forward 7 unknown #
vertex $-1 $167 $351 #
vertex $-1 $264 $352 #
straight-curve $-1 67.984252449110386 0 -8.0169404455991167 0 -1 0 I I #
coedge $-1 $244 $246 $168 $256 reversed $161 $-1 #
edge $-1 $259 -36.875652762040268 $262 36.875652762040268 $255 $353 forward 7 unknown #
coedge $-1 $250 $169 $174 $265 forward $242 $-1 #
coedge $-1 $169 $250 $244 $344 reversed $242 $-1 #
vertex $-1 $170 $354 #
straight-curve $-1 0 36.875652762040268 8.0169404455991167 -1 0 0 I I #
coedge $-1 $171 $245 $173 $264 reversed $101 $-1 #
vertex $-1 $256 $355 #
straight-curve $-1 0 -36.875652762040268 8.0169404455991167 1 0 0 I I #
edge $-1 $176 -8.0169404455991167 $253 8.0169404455991167 $173 $356 forward 7 unknown #
edge $-1 $177 -8.0169404455991167 $252 8.0169404455991167 $174 $357 forward 7 unknown #
point $-1 67.984252449110386 -36.875652762040268 8.0169404455991167 #
point $-1 67.984252449110386 36.875652762040268 8.0169404455991167 #
face $-1 $-1 $283 $25 $-1 $358 reversed single #
loop $-1 $-1 $185 $179 #
plane-surface $-1 0 0 8.0169404455991167 0 0 1 1 0 0 forward_v I I I I #
coedge $-1 $359 $360 $187 $281 forward $180 $-1 #
coedge $-1 $182 $286 $276 $361 reversed $109 $-1 #
edge $-1 $279 -4.9797049296653846 $192 -1.0947661022020796 $182 $362 forward 7 unknown #
coedge $-1 $363 $188 $183 $275 forward $283 $-1 #
edge $-1 $193 1.0947661022020796 $278 4.9797049296653846 $274 $364 forward 7 unknown #
coedge $-1 $365 $185 $272 $361 forward $269 $-1 #
coedge $-1 $185 $365 $363 $366 forward $269 $-1 #
vertex $-1 $275 $367 #
vertex $-1 $361 $368 #
straight-curve $-1 -62.527232875262904 0 8.0169404455991167 0 1 0 I I #
edge $-1 $287 -36.875652762040268 $284 36.875652762040268 $271 $369 forward 7 unknown #
coedge $-1 $188 $363 $359 $370 forward $283 $-1 #
loop $-1 $-1 $274 $268 #
vertex $-1 $281 $371 #
straight-curve $-1 -32.627871331093324 -36.875652762040268 4.1320016181358117 1 0 0 I I #
coedge $-1 $272 $190 $360 $372 reversed $109 $-1 #
vertex $-1 $281 $373 #
straight-curve $-1 -32.627871331093324 36.875652762040268 4.1320016181358117 -1 0 0 I I #
point $-1 -62.527232875262904 36.875652762040268 4.1320016181358117 #
point $-1 -62.527232875262904 -36.875652762040268 4.1320016181358117 #
loop $-1 $-1 $203 $195 #
plane-surface $-1 0 -36.875652762040268 0 0 1 0 0 0 1 forward_v I I I I #
coedge $-1 $294 $198 $374 $375 reversed $117 $-1 #
coedge $-1 $198 $293 $297 $376 reversed $117 $-1 #
edge $-1 $377 -1.0048591735576163e-014 $298 11.015253213033418 $198 $378 forward 7 unknown #
coedge $-1 $200 $199 $301 $379 reversed $73 $-1 #
coedge $-1 $206 $201 $294 $376 forward $196 $-1 #
vertex $-1 $376 $380 #
straight-curve $-1 -21.988864951709562 -29.086692608989242 8.0169404455991167 -1 0 0 I I #
coedge $-1 $374 $203 $206 $305 reversed $291 $-1 #
coedge $-1 $203 $374 $296 $379 forward $291 $-1 #
vertex $-1 $204 $381 #
straight-curve $-1 -25.428226931575345 -36.875652762040268 48.186115418807013 0 0 1 I I #
straight-curve $-1 -25.428226931575345 -36.875652762040261 0.2279801118044702 0 -0.70710677298230451 -0.70710678939079041 I I #
edge $-1 $382 -62.527232875262904 $207 -25.428226931575345 $300 $383 forward 7 unknown #
point $-1 -25.428226931575345 -36.875652762040268 8.0169404455991167 #
point $-1 -25.428226931575345 -29.086692608989242 8.0169404455991149 #
edge $-1 $384 1 $384 0 $210 $-1 forward 7 unknown #
vertex $-1 $211 $385 #
ellipse-curve $-1 -51.92751689135217 -29.709970263059471 0.8512579321550976 0 -0.70710678939079041 0.70710677298230451 2 0 0 1 I I #
point $-1 -49.92751689135217 -32.981172685514757 4.1224602787017943 #
edge $-1 $386 1 $386 0 $214 $-1 forward 7 unknown #
vertex $-1 $215 $387 #
ellipse-curve $-1 -36.027942915486072 -29.709970263059471 0.8512579321550976 0 -0.70710678939079041 0.70710677298230451 2 0 0 1 I I #
point $-1 -34.027942915486072 -32.981172685514757 4.1224602787017943 #
loop $-1 $-1 $226 $218 #
plane-surface $-1 -62.527232875262904 0 6.0744710318674642 -1 0 0 0 0 1 forward_v I I I I #
coedge $-1 $323 $388 $222 $319 forward $219 $-1 #
edge $-1 $321 68.317630166413508 $329 76.215910715002224 $318 $389 forward 7 unknown #
coedge $-1 $229 $223 $388 $390 forward $139 $-1 #
vertex $-1 $390 $391 #
straight-curve $-1 -28.461691918392663 31.234701367318987 8.0169404455991184 0 1 0 I I #
coedge $-1 $392 $318 $225 $324 forward $219 $-1 #
edge $-1 $329 5.7144607199787707 $327 39.780001676849018 $323 $393 forward 7 unknown #
coedge $-1 $326 $226 $229 $331 reversed $316 $-1 #
coedge $-1 $226 $325 $392 $394 reversed $316 $-1 #
vertex $-1 $394 $395 #
straight-curve $-1 -62.527232875262904 -5.0766524376460245 32.895393610284522 0 -0.78801074757464917 0.61566148304635926 I I #
vertex $-1 $324 $396 #
straight-curve $-1 -28.461691918392663 -21.241168638596783 45.524498032570961 0 -0.78801074757464917 0.61566148304635926 I I #
edge $-1 $397 -36.875652762040268 $230 -26.76631486932196 $229 $398 forward 7 unknown #
point $-1 -62.527232875262911 26.76631486932196 8.0169404455991184 #
point $-1 -28.461691918392663 26.76631486932196 8.0169404455991184 #
edge $-1 $399 1 $399 0 $233 $-1 forward 7 unknown #
vertex $-1 $234 $400 #
ellipse-curve $-1 -52.794221173299974 27.443806724814934 -1.534730905631827 0 0.61566148304635926 0.78801074757464917 2 0 0 1 I I #
point $-1 -50.794221173299974 31.82098381568111 4.0678001713047429 #
edge $-1 $401 1 $401 0 $237 $-1 forward 7 unknown #
vertex $-1 $238 $402 #
ellipse-curve $-1 -38.194703620355583 27.443806724814934 -1.534730905631827 0 0.61566148304635926 0.78801074757464917 2 0 0 1 I I #
point $-1 -36.194703620355583 31.82098381568111 4.0678001713047429 #
plane-surface $-1 67.984252449110386 0 0 -1 0 0 0 0 1 forward_v I I I I #
coedge $-1 $246 $244 $248 $347 reversed $161 $-1 #
edge $-1 $259 -8.0169404455991167 $349 8.0169404455991167 $258 $403 forward 7 unknown #
vertex $-1 $347 $404 #
straight-curve $-1 -67.984252449110386 -36.875652762040268 0 0 0 -1 I I #
edge $-1 $345 -36.875652762040268 $349 36.875652762040268 $343 $405 forward 7 unknown #
straight-curve $-1 0 -36.875652762040268 -8.0169404455991167 -1 0 0 I I #
vertex $-1 $251 $406 #
straight-curve $-1 0 36.875652762040268 -8.0169404455991167 1 0 0 I I #
point $-1 67.984252449110386 36.875652762040268 -8.0169404455991167 #
point $-1 67.984252449110386 -36.875652762040268 -8.0169404455991167 #
straight-curve $-1 -67.984252449110386 0 8.0169404455991167 0 -1 0 I I #
point $-1 -67.984252449110386 36.875652762040268 8.0169404455991167 #
point $-1 -67.984252449110386 -36.875652762040268 8.0169404455991167 #
straight-curve $-1 67.984252449110386 -36.875652762040268 0 0 0 -1 I I #
straight-curve $-1 67.984252449110386 36.875652762040268 0 0 0 -1 I I #
plane-surface $-1 0 -36.875652762040268 0 0 1 0 0 0 1 forward_v I I I I #
coedge $-1 $407 $271 $282 $370 reversed $180 $-1 #
coedge $-1 $271 $407 $286 $372 forward $180 $-1 #
edge $-1 $279 62.527232875262904 $408 67.984252449110386 $272 $409 forward 7 unknown #
straight-curve $-1 -62.527232875262904 36.875652762040268 3.0372355159337321 0 0 -1 I I #
coedge $-1 $282 $274 $277 $366 reversed $283 $-1 #
straight-curve $-1 -62.527232875262904 -36.875652762040268 3.0372355159337321 0 0 1 I I #
coedge $-1 $277 $276 $407 $410 forward $269 $-1 #
edge $-1 $411 -67.984252449110386 $278 -62.527232875262904 $363 $412 forward 7 unknown #
point $-1 -62.527232875262904 -36.875652762040268 8.0169404455991167 #
point $-1 -62.527232875262904 36.875652762040268 8.0169404455991167 #
straight-curve $-1 -67.984252449110386 0 4.1320016181358117 0 -1 0 I I #
edge $-1 $411 -8.0169404455991167 $284 -4.1320016181358117 $359 $413 forward 7 unknown #
point $-1 -67.984252449110386 -36.875652762040268 4.1320016181358117 #
edge $-1 $408 -8.0169404455991167 $287 -4.1320016181358117 $286 $414 forward 7 unknown #
point $-1 -67.984252449110386 36.875652762040268 4.1320016181358117 #
coedge $-1 $301 $300 $293 $375 forward $291 $-1 #
edge $-1 $382 40.169174973207895 $377 47.95813530700255 $374 $415 forward 7 unknown #
edge $-1 $298 29.086692608989242 $382 36.875652762040268 $297 $416 forward 7 unknown #
vertex $-1 $375 $417 #
straight-curve $-1 -62.527232875262904 -36.875652762040261 0.2279801118044702 0 0.70710677298230451 0.70710678939079041 I I #
edge $-1 $377 -40.538367923553338 $302 -3.4393619798657831 $301 $418 forward 7 unknown #
point $-1 -62.527232875262904 -29.086692608989242 8.0169404455991167 #
point $-1 -25.428226931575345 -36.875652762040268 0.22798011180446309 #
vertex $-1 $305 $419 #
straight-curve $-1 0 -36.875652762040268 8.0169404455991167 1 0 0 I I #
vertex $-1 $308 $420 #
point $-1 -49.92751689135217 -29.709970263059471 0.8512579321550976 #
vertex $-1 $312 $421 #
point $-1 -34.027942915486072 -29.709970263059471 0.8512579321550976 #
coedge $-1 $318 $392 $320 $390 reversed $219 $-1 #
straight-curve $-1 -28.461691918392663 36.875652762040268 76.334570612012627 0 0 -1 I I #
edge $-1 $321 28.461691918392663 $397 62.527232875262904 $388 $422 forward 7 unknown #
point $-1 -28.461691918392663 36.875652762040268 8.0169404455991167 #
coedge $-1 $388 $323 $326 $394 forward $219 $-1 #
straight-curve $-1 -22.747231198413893 36.875652762040268 0.11865989701039226 -1 0 0 I I #
edge $-1 $327 -76.215910715002224 $397 -68.317630166413508 $392 $423 forward 7 unknown #
point $-1 -62.527232875262911 36.875652762040261 0.11865989701039581 #
point $-1 -28.461691918392663 36.875652762040261 0.11865989701039581 #
vertex $-1 $331 $424 #
straight-curve $-1 -62.527232875262904 0 8.0169404455991167 0 -1 0 I I #
vertex $-1 $334 $425 #
point $-1 -50.794221173299974 27.443806724814934 -1.534730905631827 #
vertex $-1 $338 $426 #
point $-1 -36.194703620355583 27.443806724814934 -1.534730905631827 #
straight-curve $-1 -67.984252449110386 36.875652762040268 0 0 0 -1 I I #
point $-1 -67.984252449110386 -36.875652762040268 -8.0169404455991167 #
straight-curve $-1 -67.984252449110386 0 -8.0169404455991167 0 1 0 I I #
point $-1 -67.984252449110386 36.875652762040268 -8.0169404455991167 #
coedge $-1 $360 $359 $365 $410 reversed $180 $-1 #
vertex $-1 $361 $427 #
straight-curve $-1 0 36.875652762040268 8.0169404455991167 -1 0 0 I I #
edge $-1 $408 -36.875652762040268 $411 36.875652762040268 $407 $428 forward 7 unknown #
vertex $-1 $410 $429 #
straight-curve $-1 0 -36.875652762040268 8.0169404455991167 1 0 0 I I #
straight-curve $-1 -67.984252449110386 -36.875652762040268 0 0 0 -1 I I #
straight-curve $-1 -67.984252449110386 36.875652762040268 0 0 0 -1 I I #
straight-curve $-1 -62.527232875262904 -36.875652762040268 48.186115418807013 0 0 -1 I I #
straight-curve $-1 -62.527232875262904 0 8.0169404455991167 0 -1 0 I I #
point $-1 -62.527232875262904 -36.875652762040268 0.22798011180446309 #
straight-curve $-1 -21.988864951709562 -36.875652762040268 0.22798011180446132 1 0 0 I I #
point $-1 -62.527232875262904 -36.875652762040268 8.0169404455991167 #
point $-1 -51.92751689135217 -28.295756684277894 -0.56295561380951142 #
point $-1 -36.027942915486072 -28.295756684277894 -0.56295561380951142 #
straight-curve $-1 0 36.875652762040268 8.0169404455991167 -1 0 0 I I #
straight-curve $-1 -62.527232875262911 36.875652762040268 76.334570612012627 0 0 1 I I #
point $-1 -62.527232875262904 36.875652762040268 8.0169404455991167 #
point $-1 -52.794221173299974 26.212483758722215 -3.1107524007811254 #
point $-1 -38.194703620355583 26.212483758722215 -3.1107524007811254 #
point $-1 -67.984252449110386 36.875652762040268 8.0169404455991167 #
straight-curve $-1 -67.984252449110386 0 8.0169404455991167 0 -1 0 I I #
point $-1 -67.984252449110386 -36.875652762040268 8.0169404455991167 #
End-of-ACIS-data 