500 0 7 0           
7 Unknown 11 ACIS 5.0 NT 24 Fri Mar 26 17:07:09 1999 
-1 9.9999999999999995e-007 1e-010 
body $-1 $7 $-1 $8 #
body $-1 $9 $-1 $10 #
body $-1 $11 $-1 $12 #
body $-1 $13 $-1 $14 #
body $-1 $15 $-1 $16 #
body $-1 $17 $-1 $18 #
body $-1 $19 $-1 $20 #
lump $-1 $-1 $21 $0 #
transform $-1 1 0 0 0 1 0 0 0 1 76.342661824396501 39.387287063391597 12.257816090241274 1 rotate no_reflect no_shear #
lump $-1 $-1 $22 $1 #
transform $-1 1 0 0 0 1 0 0 0 1 76.342661824396501 39.387287063391597 12.257816090241274 1 rotate no_reflect no_shear #
lump $-1 $-1 $23 $2 #
transform $-1 1 0 0 0 1 0 0 0 1 76.342661824396501 39.387287063391597 12.257816090241274 1 rotate no_reflect no_shear #
lump $-1 $-1 $24 $3 #
transform $-1 1 0 0 0 1 0 0 0 1 76.342661824396501 39.387287063391597 12.257816090241274 1 rotate no_reflect no_shear #
lump $-1 $-1 $25 $4 #
transform $-1 1 0 0 0 1 0 0 0 1 76.342661824396501 39.387287063391597 12.257816090241274 1 rotate no_reflect no_shear #
lump $-1 $-1 $26 $5 #
transform $-1 1 0 0 0 1 0 0 0 1 76.342661824396501 39.387287063391597 12.257816090241274 1 rotate no_reflect no_shear #
lump $-1 $-1 $27 $6 #
transform $-1 1 0 0 0 1 0 0 0 1 76.342661824396501 39.387287063391597 12.257816090241274 1 rotate no_reflect no_shear #
shell $-1 $-1 $-1 $28 $-1 $7 #
shell $-1 $-1 $-1 $29 $-1 $9 #
shell $-1 $-1 $-1 $30 $-1 $11 #
shell $-1 $-1 $-1 $31 $-1 $13 #
shell $-1 $-1 $-1 $32 $-1 $15 #
shell $-1 $-1 $-1 $33 $-1 $17 #
shell $-1 $-1 $-1 $34 $-1 $19 #
face $-1 $35 $36 $21 $-1 $37 forward single #
face $-1 $38 $39 $22 $-1 $40 reversed single #
face $-1 $41 $42 $23 $-1 $43 forward single #
face $-1 $44 $45 $24 $-1 $46 reversed single #
face $-1 $47 $48 $25 $-1 $49 forward single #
face $-1 $50 $51 $26 $-1 $52 reversed single #
face $-1 $53 $54 $27 $-1 $55 forward single #
face $-1 $56 $57 $21 $-1 $58 reversed single #
loop $-1 $-1 $59 $28 #
plane-surface $-1 0 0 12.257816090241274 0 0 1 1 0 0 forward_v I I I I #
face $-1 $60 $61 $22 $-1 $62 reversed single #
loop $-1 $-1 $63 $29 #
plane-surface $-1 -40.647743621727685 -161.3272096480562 97.31044427068656 -1 0 0 0 -0.79863551827123203 0.60181501223851219 forward_v I I I I #
face $-1 $64 $65 $23 $-1 $66 forward single #
loop $-1 $67 $68 $30 #
cone-surface $-1 -58.495202723062093 -33.714827993965123 6.5062679924410549 0 0.79863551827123203 -0.60181501223851219 2 0 0 1 I I 0 1 2 forward I I I I #
face $-1 $69 $70 $24 $-1 $71 reversed single #
loop $-1 $-1 $72 $31 #
plane-surface $-1 -41.241859005046919 91.650081151938338 170.5951797758191 -1 0 0 0 0.70710678939079041 0.70710677298230451 forward_v I I I I #
face $-1 $73 $74 $25 $-1 $75 forward single #
loop $-1 $76 $77 $32 #
cone-surface $-1 -58.79226041472171 34.874774166451424 7.7453031743428769 0 -0.70710678939079041 -0.70710677298230451 1.5 0 0 1 I I 0 1 1.5 forward I I I I #
face $-1 $78 $79 $26 $-1 $80 reversed single #
loop $-1 $-1 $81 $33 #
plane-surface $-1 35.100802819349582 91.650081151938338 170.5951797758191 -1 0 0 0 0.70710678939079041 0.70710677298230451 forward_v I I I I #
face $-1 $82 $83 $27 $-1 $84 forward single #
loop $-1 $85 $86 $34 #
cone-surface $-1 17.550401409674791 34.874774166451424 7.7453031743428769 0 -0.70710678939079041 -0.70710677298230451 1.5 0 0 1 I I 0 1 1.5 forward I I I I #
face $-1 $87 $88 $21 $-1 $89 reversed single #
loop $-1 $-1 $90 $35 #
plane-surface $-1 0 0 -12.257816090241274 0 0 1 1 0 0 forward_v I I I I #
coedge $-1 $91 $92 $93 $94 forward $36 $-1 #
face $-1 $95 $96 $22 $-1 $97 forward single #
loop $-1 $-1 $98 $38 #
plane-surface $-1 -58.495202723062093 -39.387287063391597 5.4221243503470049 0 -0.79863551827123203 0.60181501223851219 1 0 0 forward_v I I I I #
coedge $-1 $99 $100 $101 $102 reversed $39 $-1 #
face $-1 $-1 $103 $23 $-1 $104 forward single #
loop $-1 $105 $106 $41 #
cone-surface $-1 -58.495202723062093 -29.819264930966035 3.5707507523494559 0 0.79863551827123203 -0.60181501223851219 1 0 0 1 I I -0.70710678118654746 0.70710678118654746 1 forward I I I I #
loop $-1 $-1 $107 $30 #
coedge $-1 $68 $68 $108 $109 reversed $42 $-1 #
face $-1 $110 $111 $24 $-1 $112 reversed single #
loop $-1 $-1 $113 $44 #
plane-surface $-1 -58.79226041472171 -16.314747840453407 62.630353288762336 0 0.70710678939079041 0.70710677298230451 1 0 0 forward_v I I I I #
coedge $-1 $114 $115 $116 $117 reversed $45 $-1 #
face $-1 $-1 $118 $25 $-1 $119 forward single #
loop $-1 $120 $121 $47 #
cone-surface $-1 -58.79226041472171 32.4966806145801 5.3672096776554561 0 -0.70710678939079041 -0.70710677298230451 0.75 0 0 1 I I -0.70710678118654757 0.70710678118654757 0.75 forward I I I I #
loop $-1 $-1 $122 $32 #
coedge $-1 $77 $77 $123 $124 reversed $48 $-1 #
face $-1 $125 $126 $26 $-1 $127 reversed single #
loop $-1 $-1 $128 $50 #
plane-surface $-1 17.550401409674791 -16.314747840453407 62.630353288762336 0 0.70710678939079041 0.70710677298230451 1 0 0 forward_v I I I I #
coedge $-1 $129 $130 $131 $132 reversed $51 $-1 #
face $-1 $-1 $133 $27 $-1 $134 forward single #
loop $-1 $135 $136 $53 #
cone-surface $-1 17.550401409674791 32.4966806145801 5.3672096776554561 0 -0.70710678939079041 -0.70710677298230451 0.75 0 0 1 I I -0.70710678118654757 0.70710678118654757 0.75 forward I I I I #
loop $-1 $-1 $137 $34 #
coedge $-1 $86 $86 $138 $139 reversed $54 $-1 #
face $-1 $140 $141 $21 $-1 $142 reversed single #
loop $-1 $-1 $143 $56 #
plane-surface $-1 0 -39.387287063391597 0 0 1 0 0 0 1 forward_v I I I I #
coedge $-1 $144 $145 $146 $147 forward $57 $-1 #
coedge $-1 $148 $59 $149 $150 forward $36 $-1 #
coedge $-1 $59 $148 $151 $152 forward $36 $-1 #
coedge $-1 $153 $154 $59 $94 reversed $155 $-1 #
edge $-1 $156 -39.387287063391597 $157 39.387287063391597 $93 $158 forward 7 unknown #
face $-1 $159 $160 $22 $-1 $161 reversed single #
loop $-1 $-1 $101 $60 #
plane-surface $-1 0 0 12.257816090241274 0 0 1 1 0 0 forward_v I I I I #
coedge $-1 $162 $163 $164 $165 reversed $61 $-1 #
coedge $-1 $100 $63 $166 $167 reversed $39 $-1 #
coedge $-1 $63 $99 $162 $168 reversed $39 $-1 #
coedge $-1 $164 $169 $63 $102 forward $96 $-1 #
edge $-1 $170 41.276317760636502 $171 46.427380810033753 $101 $172 forward 7 unknown #
loop $-1 $-1 $108 $64 #
plane-surface $-1 -58.495202723062093 -39.387287063391597 5.4221243503470049 0 -0.79863551827123203 0.60181501223851219 1 0 0 forward_v I I I I #
loop $-1 $-1 $173 $41 #
coedge $-1 $106 $106 $107 $174 reversed $65 $-1 #
coedge $-1 $107 $107 $106 $174 forward $67 $-1 #
coedge $-1 $108 $108 $68 $109 forward $103 $-1 #
edge $-1 $175 1.4186616650690665e-015 $175 6.2831853071796022 $108 $176 forward 7 unknown #
face $-1 $177 $178 $24 $-1 $179 forward single #
loop $-1 $-1 $116 $69 #
plane-surface $-1 0 39.387287063391597 0 0 -1 0 0 0 -1 forward_v I I I I #
coedge $-1 $180 $181 $182 $183 reversed $70 $-1 #
coedge $-1 $115 $72 $184 $185 reversed $45 $-1 #
coedge $-1 $72 $114 $180 $186 reversed $45 $-1 #
coedge $-1 $182 $187 $72 $117 forward $111 $-1 #
edge $-1 $188 73.039773797668275 $189 78.369272795563703 $116 $190 forward 7 unknown #
loop $-1 $-1 $123 $73 #
plane-surface $-1 -58.79226041472171 -16.314747840453407 62.630353288762336 0 0.70710678939079041 0.70710677298230451 1 0 0 forward_v I I I I #
loop $-1 $-1 $191 $47 #
coedge $-1 $121 $121 $122 $192 reversed $74 $-1 #
coedge $-1 $122 $122 $121 $192 forward $76 $-1 #
coedge $-1 $123 $123 $77 $124 forward $118 $-1 #
edge $-1 $193 2.5121478853151629e-015 $193 6.2831853071796031 $123 $194 forward 7 unknown #
face $-1 $195 $196 $26 $-1 $197 forward single #
loop $-1 $-1 $198 $78 #
plane-surface $-1 -3.5527136788005009e-015 91.650081151938338 170.5951797758191 1 0 0 0 -0.70710678939079041 -0.70710677298230451 forward_v I I I I #
coedge $-1 $199 $200 $201 $202 reversed $79 $-1 #
coedge $-1 $130 $81 $203 $204 reversed $51 $-1 #
coedge $-1 $81 $129 $199 $205 reversed $51 $-1 #
coedge $-1 $201 $206 $81 $132 forward $207 $-1 #
edge $-1 $208 73.039773797668275 $209 78.369272795563703 $131 $210 forward 7 unknown #
loop $-1 $-1 $138 $82 #
plane-surface $-1 17.550401409674791 -16.314747840453407 62.630353288762336 0 0.70710678939079041 0.70710677298230451 1 0 0 forward_v I I I I #
loop $-1 $-1 $211 $53 #
coedge $-1 $136 $136 $137 $212 reversed $83 $-1 #
coedge $-1 $137 $137 $136 $212 forward $85 $-1 #
coedge $-1 $138 $138 $86 $139 forward $133 $-1 #
edge $-1 $213 2.5121478853151629e-015 $213 6.2831853071796031 $138 $214 forward 7 unknown #
face $-1 $215 $216 $21 $-1 $217 reversed single #
loop $-1 $-1 $218 $87 #
plane-surface $-1 -76.342661824396501 0 0 1 0 0 0 0 -1 forward_v I I I I #
coedge $-1 $219 $151 $220 $221 forward $88 $-1 #
coedge $-1 $222 $90 $219 $223 forward $57 $-1 #
coedge $-1 $90 $222 $224 $225 forward $57 $-1 #
coedge $-1 $154 $153 $90 $147 reversed $155 $-1 #
edge $-1 $226 -39.387287063391597 $227 39.387287063391597 $146 $228 forward 7 unknown #
coedge $-1 $92 $91 $229 $230 forward $36 $-1 #
coedge $-1 $231 $232 $91 $150 reversed $216 $-1 #
edge $-1 $157 -76.342661824396501 $233 76.342661824396501 $149 $234 forward 7 unknown #
coedge $-1 $143 $235 $92 $152 reversed $88 $-1 #
edge $-1 $236 -76.342661824396501 $156 76.342661824396501 $151 $237 forward 7 unknown #
coedge $-1 $146 $93 $235 $238 forward $155 $-1 #
coedge $-1 $93 $146 $231 $239 reversed $155 $-1 #
loop $-1 $-1 $153 $215 #
vertex $-1 $94 $240 #
vertex $-1 $94 $241 #
straight-curve $-1 76.342661824396501 0 12.257816090241274 0 1 0 I I #
face $-1 $-1 $242 $22 $-1 $243 reversed single #
loop $-1 $-1 $244 $95 #
plane-surface $-1 -76.342661824396501 0 0 1 0 0 0 0 -1 forward_v I I I I #
coedge $-1 $245 $98 $100 $168 forward $61 $-1 #
coedge $-1 $98 $245 $244 $246 reversed $61 $-1 #
coedge $-1 $247 $101 $98 $165 forward $96 $-1 #
edge $-1 $171 11.400142260196638 $248 47.095060462865455 $164 $249 forward 7 unknown #
coedge $-1 $250 $251 $99 $167 forward $242 $-1 #
edge $-1 $252 -43.233097784996275 $170 -36.397406045102002 $166 $253 forward 7 unknown #
edge $-1 $171 -8.5592132875471947 $252 0 $100 $254 forward 7 unknown #
coedge $-1 $101 $247 $250 $255 forward $96 $-1 #
vertex $-1 $167 $256 #
vertex $-1 $102 $257 #
straight-curve $-1 -40.647743621727685 -80.663604824028099 12.257816090241278 0 1 0 I I #
coedge $-1 $173 $173 $-1 $258 reversed $105 $-1 #
edge $-1 $259 0 $259 6.2831853071796004 $106 $260 forward 7 unknown #
vertex $-1 $109 $261 #
ellipse-curve $-1 -58.495202723062093 -36.811755538692971 8.8399702202941377 0 -0.79863551827123203 0.60181501223851219 2 0 0 1 I I #
face $-1 $-1 $262 $24 $-1 $263 reversed single #
loop $-1 $-1 $184 $110 #
plane-surface $-1 0 0 12.257816090241274 0 0 1 1 0 0 forward_v I I I I #
coedge $-1 $264 $113 $115 $186 forward $70 $-1 #
coedge $-1 $113 $264 $265 $266 reversed $70 $-1 #
coedge $-1 $267 $116 $113 $183 forward $111 $-1 #
edge $-1 $189 11.845728797686064 $268 46.946531617035646 $182 $269 forward 7 unknown #
coedge $-1 $270 $271 $114 $185 forward $178 $-1 #
edge $-1 $272 -11.767252386801431 $188 -6.4377535125775722 $184 $273 forward 7 unknown #
edge $-1 $189 -78.774574126783207 $272 -71.237524450754691 $115 $274 forward 7 unknown #
coedge $-1 $116 $267 $270 $275 reversed $111 $-1 #
vertex $-1 $275 $276 #
vertex $-1 $117 $277 #
straight-curve $-1 -41.241859005046919 39.387287063391597 85.297589887909552 0 0 -1 I I #
coedge $-1 $191 $191 $-1 $278 reversed $120 $-1 #
edge $-1 $279 0 $279 6.2831853071796004 $121 $280 forward 7 unknown #
vertex $-1 $124 $281 #
ellipse-curve $-1 -58.79226041472171 36.722537626279653 9.5930665912935673 0 0.70710678939079041 0.70710677298230451 1.5 0 0 1 I I #
face $-1 $-1 $207 $26 $-1 $282 reversed single #
loop $-1 $-1 $283 $125 #
plane-surface $-1 0 0 12.257816090241274 0 0 1 1 0 0 forward_v I I I I #
coedge $-1 $284 $285 $286 $287 reversed $126 $-1 #
coedge $-1 $288 $128 $130 $205 forward $79 $-1 #
coedge $-1 $128 $288 $284 $289 forward $79 $-1 #
coedge $-1 $286 $131 $128 $202 forward $207 $-1 #
edge $-1 $209 -26.325602114512186 $290 8.775200704837399 $201 $291 forward 7 unknown #
coedge $-1 $292 $293 $129 $204 forward $196 $-1 #
edge $-1 $294 -11.767252386801431 $208 -6.4377535125775722 $203 $295 forward 7 unknown #
edge $-1 $209 -78.774574126783207 $294 -71.237524450754691 $130 $296 forward 7 unknown #
coedge $-1 $131 $286 $292 $297 reversed $207 $-1 #
loop $-1 $-1 $286 $195 #
vertex $-1 $297 $298 #
vertex $-1 $132 $299 #
straight-curve $-1 35.100802819349582 39.387287063391597 85.297589887909552 0 0 -1 I I #
coedge $-1 $211 $211 $-1 $300 reversed $135 $-1 #
edge $-1 $301 0 $301 6.2831853071796004 $136 $302 forward 7 unknown #
vertex $-1 $139 $303 #
ellipse-curve $-1 17.550401409674791 36.722537626279653 9.5930665912935673 0 0.70710678939079041 0.70710677298230451 1.5 0 0 1 I I #
face $-1 $-1 $155 $21 $-1 $304 reversed single #
loop $-1 $-1 $231 $140 #
plane-surface $-1 0 39.387287063391597 0 0 -1 0 0 0 -1 forward_v I I I I #
coedge $-1 $305 $229 $232 $306 forward $141 $-1 #
coedge $-1 $235 $143 $144 $223 reversed $88 $-1 #
coedge $-1 $229 $305 $143 $221 reversed $141 $-1 #
edge $-1 $236 -12.257816090241274 $307 12.257816090241274 $220 $308 forward 7 unknown #
coedge $-1 $145 $144 $305 $309 forward $57 $-1 #
edge $-1 $227 -76.342661824396501 $307 76.342661824396501 $219 $310 forward 7 unknown #
coedge $-1 $232 $231 $145 $225 reversed $216 $-1 #
edge $-1 $311 -76.342661824396501 $226 76.342661824396501 $224 $312 forward 7 unknown #
vertex $-1 $147 $313 #
vertex $-1 $238 $314 #
straight-curve $-1 76.342661824396501 0 -12.257816090241274 0 -1 0 I I #
coedge $-1 $218 $220 $148 $230 reversed $141 $-1 #
edge $-1 $233 -39.387287063391597 $236 39.387287063391597 $229 $315 forward 7 unknown #
coedge $-1 $224 $149 $154 $239 forward $216 $-1 #
coedge $-1 $149 $224 $218 $306 reversed $216 $-1 #
vertex $-1 $150 $316 #
straight-curve $-1 0 39.387287063391597 12.257816090241274 -1 0 0 I I #
coedge $-1 $151 $219 $153 $238 reversed $88 $-1 #
vertex $-1 $230 $317 #
straight-curve $-1 0 -39.387287063391597 12.257816090241274 1 0 0 I I #
edge $-1 $156 -12.257816090241274 $227 12.257816090241274 $153 $318 forward 7 unknown #
edge $-1 $157 -12.257816090241274 $226 12.257816090241274 $154 $319 forward 7 unknown #
point $-1 76.342661824396501 -39.387287063391597 12.257816090241274 #
point $-1 76.342661824396501 39.387287063391597 12.257816090241274 #
loop $-1 $-1 $166 $159 #
plane-surface $-1 0 -39.387287063391597 0 0 1 0 0 0 1 forward_v I I I I #
coedge $-1 $320 $321 $163 $246 forward $160 $-1 #
coedge $-1 $163 $162 $251 $322 reversed $61 $-1 #
edge $-1 $248 1.1275664901659841 $323 9.6867797777131788 $244 $324 forward 7 unknown #
coedge $-1 $169 $164 $321 $325 forward $96 $-1 #
vertex $-1 $325 $326 #
straight-curve $-1 -29.247601361531046 -34.236224013994345 12.257816090241274 -1 0 0 I I #
coedge $-1 $327 $166 $169 $255 reversed $242 $-1 #
coedge $-1 $166 $327 $245 $322 forward $242 $-1 #
vertex $-1 $167 $328 #
straight-curve $-1 -40.647743621727685 -39.387287063391597 48.65522213534328 0 0 1 I I #
straight-curve $-1 -40.647743621727685 -39.387287063391597 5.4221243503470049 0 -0.60181501223851219 -0.79863551827123203 I I #
edge $-1 $329 -76.342661824396501 $170 -40.647743621727685 $250 $330 forward 7 unknown #
point $-1 -40.647743621727685 -39.387287063391597 12.257816090241274 #
point $-1 -40.647743621727685 -34.236224013994345 12.257816090241274 #
edge $-1 $331 1 $331 0 $173 $-1 forward 7 unknown #
vertex $-1 $174 $332 #
ellipse-curve $-1 -58.495202723062093 -30.617900449237268 4.1725657645879686 0 -0.79863551827123203 0.60181501223851219 2 0 0 1 I I #
point $-1 -56.495202723062093 -36.811755538692971 8.8399702202941413 #
loop $-1 $-1 $265 $177 #
plane-surface $-1 -76.342661824396501 0 0 1 0 0 0 0 -1 forward_v I I I I #
coedge $-1 $181 $180 $271 $333 reversed $70 $-1 #
coedge $-1 $334 $335 $181 $266 forward $262 $-1 #
edge $-1 $268 -50.863265761827847 $336 -43.326216085799317 $265 $337 forward 7 unknown #
coedge $-1 $187 $182 $335 $338 reversed $111 $-1 #
vertex $-1 $183 $339 #
straight-curve $-1 -29.396130207360855 39.387287063391597 6.9283170923458464 -1 0 0 I I #
coedge $-1 $340 $184 $187 $275 forward $178 $-1 #
coedge $-1 $184 $340 $264 $333 forward $178 $-1 #
vertex $-1 $185 $341 #
straight-curve $-1 -41.241859005046919 45.825040575969169 12.257816090241278 0 1 0 I I #
straight-curve $-1 -41.241859005046919 -16.314747840453407 62.630353288762336 0 -0.70710677298230451 0.70710678939079041 I I #
edge $-1 $188 41.241859005046919 $342 76.342661824396501 $187 $343 forward 7 unknown #
point $-1 -41.241859005046919 39.387287063391597 12.257816090241274 #
point $-1 -41.241859005046919 39.387287063391597 6.9283170923458499 #
edge $-1 $344 1 $344 0 $191 $-1 forward 7 unknown #
vertex $-1 $192 $345 #
ellipse-curve $-1 -58.79226041472171 33.027010706623194 5.8975397573921846 0 0.70710678939079041 0.70710677298230451 1.5 0 0 1 I I #
point $-1 -57.29226041472171 36.72253762627966 9.5930665912935691 #
plane-surface $-1 0 39.387287063391597 0 0 -1 0 0 0 -1 forward_v I I I I #
coedge $-1 $293 $292 $285 $346 forward $196 $-1 #
coedge $-1 $285 $198 $200 $289 reversed $126 $-1 #
coedge $-1 $198 $284 $283 $346 reversed $126 $-1 #
coedge $-1 $206 $201 $198 $287 forward $207 $-1 #
edge $-1 $290 -78.369272795563703 $347 -73.039773797668275 $286 $348 forward 7 unknown #
coedge $-1 $200 $199 $293 $349 reversed $79 $-1 #
edge $-1 $350 71.237524450754691 $290 78.774574126783207 $284 $351 forward 7 unknown #
vertex $-1 $202 $352 #
straight-curve $-1 8.7752007048373954 39.387287063391597 6.9283170923458464 -1 0 0 I I #
coedge $-1 $283 $203 $206 $297 forward $196 $-1 #
coedge $-1 $203 $283 $288 $349 forward $196 $-1 #
vertex $-1 $204 $353 #
straight-curve $-1 35.100802819349582 45.825040575969169 12.257816090241278 0 1 0 I I #
straight-curve $-1 35.100802819349582 -16.314747840453407 62.630353288762336 0 -0.70710677298230451 0.70710678939079041 I I #
edge $-1 $208 -35.100802819349582 $347 3.5527136788005009e-015 $206 $354 forward 7 unknown #
point $-1 35.100802819349582 39.387287063391597 12.257816090241274 #
point $-1 35.100802819349582 39.387287063391597 6.9283170923458499 #
edge $-1 $355 1 $355 0 $211 $-1 forward 7 unknown #
vertex $-1 $212 $356 #
ellipse-curve $-1 17.550401409674791 33.027010706623194 5.8975397573921846 0 0.70710678939079041 0.70710677298230451 1.5 0 0 1 I I #
point $-1 19.050401409674791 36.72253762627966 9.5930665912935691 #
plane-surface $-1 76.342661824396501 0 0 -1 0 0 0 0 1 forward_v I I I I #
coedge $-1 $220 $218 $222 $309 reversed $141 $-1 #
edge $-1 $233 -12.257816090241274 $311 12.257816090241274 $232 $357 forward 7 unknown #
vertex $-1 $309 $358 #
straight-curve $-1 -76.342661824396501 -39.387287063391597 0 0 0 -1 I I #
edge $-1 $307 -39.387287063391597 $311 39.387287063391597 $305 $359 forward 7 unknown #
straight-curve $-1 0 -39.387287063391597 -12.257816090241274 -1 0 0 I I #
vertex $-1 $225 $360 #
straight-curve $-1 0 39.387287063391597 -12.257816090241274 1 0 0 I I #
point $-1 76.342661824396501 39.387287063391597 -12.257816090241274 #
point $-1 76.342661824396501 -39.387287063391597 -12.257816090241274 #
straight-curve $-1 -76.342661824396501 0 12.257816090241274 0 -1 0 I I #
point $-1 -76.342661824396501 39.387287063391597 12.257816090241274 #
point $-1 -76.342661824396501 -39.387287063391597 12.257816090241274 #
straight-curve $-1 76.342661824396501 -39.387287063391597 0 0 0 -1 I I #
straight-curve $-1 76.342661824396501 39.387287063391597 0 0 0 -1 I I #
coedge $-1 $321 $244 $327 $361 reversed $160 $-1 #
coedge $-1 $244 $320 $247 $325 reversed $160 $-1 #
edge $-1 $323 -47.095060462865455 $252 -11.400142260196638 $251 $362 forward 7 unknown #
vertex $-1 $246 $363 #
straight-curve $-1 -76.342661824396501 -33.557637572915368 13.158330738500259 0 -0.60181501223851219 -0.79863551827123203 I I #
edge $-1 $248 34.236224013994345 $329 39.387287063391597 $321 $364 forward 7 unknown #
point $-1 -76.342661824396501 -34.236224013994345 12.257816090241274 #
coedge $-1 $251 $250 $320 $361 forward $242 $-1 #
point $-1 -40.647743621727685 -39.387287063391597 5.4221243503470049 #
vertex $-1 $325 $365 #
straight-curve $-1 0 -39.387287063391597 12.257816090241274 1 0 0 I I #
vertex $-1 $258 $366 #
point $-1 -56.495202723062093 -30.617900449237268 4.1725657645879686 #
edge $-1 $336 -46.946531617035646 $272 -11.845728797686064 $271 $367 forward 7 unknown #
coedge $-1 $335 $265 $340 $368 reversed $262 $-1 #
coedge $-1 $265 $334 $267 $338 forward $262 $-1 #
vertex $-1 $266 $369 #
straight-curve $-1 -76.342661824396501 3.4215273472041723 42.894077643122444 0 -0.70710677298230462 0.70710678939079052 I I #
edge $-1 $342 -12.257816090241274 $268 -6.9283170923458473 $267 $370 forward 7 unknown #
point $-1 -76.342661824396501 39.387287063391597 6.9283170923458473 #
coedge $-1 $271 $270 $334 $368 forward $178 $-1 #
point $-1 -41.241859005046919 34.057788189167738 12.257816090241278 #
vertex $-1 $275 $371 #
straight-curve $-1 0 39.387287063391597 12.257816090241274 -1 0 0 I I #
vertex $-1 $278 $372 #
point $-1 -57.29226041472171 33.027010706623194 5.8975397573921846 #
edge $-1 $347 6.4377535125775722 $350 11.767252386801431 $283 $373 forward 7 unknown #
vertex $-1 $287 $374 #
straight-curve $-1 -3.5527136788005009e-015 39.387287063391597 85.297589887909552 0 0 1 I I #
edge $-1 $350 -8.775200704837399 $294 26.325602114512186 $293 $375 forward 7 unknown #
vertex $-1 $349 $376 #
straight-curve $-1 -3.5527136788005009e-015 -16.314747840453407 62.630353288762336 0 0.70710677298230451 -0.70710678939079041 I I #
point $-1 -3.5527136788005009e-015 39.387287063391597 6.9283170923458499 #
point $-1 35.100802819349582 34.057788189167738 12.257816090241278 #
straight-curve $-1 0 39.387287063391597 12.257816090241274 -1 0 0 I I #
vertex $-1 $300 $377 #
point $-1 19.050401409674791 33.027010706623194 5.8975397573921846 #
straight-curve $-1 -76.342661824396501 39.387287063391597 0 0 0 -1 I I #
point $-1 -76.342661824396501 -39.387287063391597 -12.257816090241274 #
straight-curve $-1 -76.342661824396501 0 -12.257816090241274 0 1 0 I I #
point $-1 -76.342661824396501 39.387287063391597 -12.257816090241274 #
edge $-1 $329 -12.257816090241274 $323 -5.4221243503470049 $320 $378 forward 7 unknown #
straight-curve $-1 -29.247601361531046 -39.387287063391597 5.4221243503470058 1 0 0 I I #
point $-1 -76.342661824396501 -39.387287063391597 5.4221243503470049 #
straight-curve $-1 -76.342661824396501 0 12.257816090241274 0 -1 0 I I #
point $-1 -76.342661824396501 -39.387287063391597 12.257816090241274 #
point $-1 -58.495202723062093 -29.020629412694802 2.9689357401109437 #
straight-curve $-1 -29.396130207360855 34.057788189167752 12.257816090241271 1 0 0 I I #
edge $-1 $342 -39.387287063391597 $336 -34.057788189167738 $334 $379 forward 7 unknown #
point $-1 -76.342661824396501 34.057788189167738 12.257816090241278 #
straight-curve $-1 -76.342661824396501 39.387287063391597 0 0 0 -1 I I #
point $-1 -76.342661824396501 39.387287063391597 12.257816090241274 #
point $-1 -58.79226041472171 31.966350522537006 4.8368795979187276 #
straight-curve $-1 -3.5527136788005009e-015 45.825040575969169 12.257816090241278 0 -1 0 I I #
point $-1 -3.5527136788005009e-015 39.387287063391597 12.257816090241274 #
straight-curve $-1 8.7752007048373954 34.057788189167752 12.257816090241271 1 0 0 I I #
point $-1 -3.5527136788005009e-015 34.057788189167738 12.257816090241278 #
point $-1 17.550401409674791 31.966350522537006 4.8368795979187276 #
straight-curve $-1 -76.342661824396501 -39.387287063391597 0 0 0 -1 I I #
straight-curve $-1 -76.342661824396501 0 12.257816090241274 0 -1 0 I I #
End-of-ACIS-data 