500 0 8 0           
7 Unknown 11 ACIS 5.0 NT 24 Fri Mar 26 20:29:54 1999 
-1 9.9999999999999995e-007 1e-010 
body $-1 $8 $-1 $9 #
body $-1 $10 $-1 $11 #
body $-1 $12 $-1 $13 #
body $-1 $14 $-1 $15 #
body $-1 $16 $-1 $17 #
body $-1 $18 $-1 $19 #
body $-1 $20 $-1 $21 #
body $-1 $22 $-1 $23 #
lump $-1 $-1 $24 $0 #
transform $-1 1 0 0 0 1 0 0 0 1 56.627704702902307 26.518778134253832 12.711160046827727 1 rotate no_reflect no_shear #
lump $-1 $-1 $25 $1 #
transform $-1 1 0 0 0 1 0 0 0 1 56.627704702902307 26.518778134253832 12.711160046827727 1 rotate no_reflect no_shear #
lump $-1 $-1 $26 $2 #
transform $-1 1 0 0 0 1 0 0 0 1 56.627704702902307 26.518778134253832 12.711160046827727 1 rotate no_reflect no_shear #
lump $-1 $-1 $27 $3 #
transform $-1 1 0 0 0 1 0 0 0 1 56.627704702902307 26.518778134253832 12.711160046827727 1 rotate no_reflect no_shear #
lump $-1 $-1 $28 $4 #
transform $-1 1 0 0 0 1 0 0 0 1 56.627704702902307 26.518778134253832 12.711160046827727 1 rotate no_reflect no_shear #
lump $-1 $-1 $29 $5 #
transform $-1 1 0 0 0 1 0 0 0 1 56.627704702902307 26.518778134253832 12.711160046827727 1 rotate no_reflect no_shear #
lump $-1 $-1 $30 $6 #
transform $-1 1 0 0 0 1 0 0 0 1 56.627704702902307 26.518778134253832 12.711160046827727 1 rotate no_reflect no_shear #
lump $-1 $-1 $31 $7 #
transform $-1 1 0 0 0 1 0 0 0 1 56.627704702902307 26.518778134253832 12.711160046827727 1 rotate no_reflect no_shear #
shell $-1 $-1 $-1 $32 $-1 $8 #
shell $-1 $-1 $-1 $33 $-1 $10 #
shell $-1 $-1 $-1 $34 $-1 $12 #
shell $-1 $-1 $-1 $35 $-1 $14 #
shell $-1 $-1 $-1 $36 $-1 $16 #
shell $-1 $-1 $-1 $37 $-1 $18 #
shell $-1 $-1 $-1 $38 $-1 $20 #
shell $-1 $-1 $-1 $39 $-1 $22 #
face $-1 $40 $41 $24 $-1 $42 forward single #
face $-1 $43 $44 $25 $-1 $45 forward single #
face $-1 $46 $47 $26 $-1 $48 forward single #
face $-1 $49 $50 $27 $-1 $51 reversed single #
face $-1 $52 $53 $28 $-1 $54 forward single #
face $-1 $55 $56 $29 $-1 $57 reversed single #
face $-1 $58 $59 $30 $-1 $60 forward single #
face $-1 $61 $62 $31 $-1 $63 forward single #
face $-1 $64 $65 $24 $-1 $66 reversed single #
loop $-1 $-1 $67 $32 #
plane-surface $-1 0 0 12.711160046827727 0 0 1 1 0 0 forward_v I I I I #
face $-1 $68 $69 $25 $-1 $70 reversed single #
loop $-1 $-1 $71 $33 #
plane-surface $-1 0 -26.518778134253832 0 0 1 0 0 0 1 forward_v I I I I #
face $-1 $72 $73 $26 $-1 $74 reversed single #
loop $-1 $-1 $75 $34 #
plane-surface $-1 0 26.518778134253832 0 0 -1 0 0 0 -1 forward_v I I I I #
face $-1 $76 $77 $27 $-1 $78 reversed single #
loop $-1 $-1 $79 $35 #
plane-surface $-1 56.627706561252083 -1.1336231149345046 162.82725790976681 0 -1 0 -0.70710678939079041 0 -0.70710677298230451 forward_v I I I I #
face $-1 $80 $81 $28 $-1 $82 forward single #
loop $-1 $83 $84 $36 #
cone-surface $-1 50.444337846211248 -4.6474251412727554 6.5277931003823362 -0.70710678939079041 0 -0.70710677298230451 0.70710677298230451 0 -0.70710678939079041 1 I I 0 1 1 forward I I I I #
face $-1 $85 $86 $29 $-1 $87 reversed single #
loop $-1 $-1 $88 $37 #
plane-surface $-1 -119.95932674540323 0.38862134951378202 101.06129346950956 0 1 0 -0.55919291073839883 0 0.82903756765294845 forward_v I I I I #
face $-1 $89 $90 $30 $-1 $91 forward single #
loop $-1 $92 $93 $38 #
cone-surface $-1 -52.239297556913932 2.4502146890740946 9.5252134056786115 0.55919291073839883 0 -0.82903756765294845 0.20725939191323711 0 0.13979822768459971 1 I I 0 1 0.25 forward I I I I #
face $-1 $94 $95 $31 $-1 $96 forward single #
loop $-1 $97 $98 $39 #
cone-surface $-1 -52.239297556913932 5.5426046984145607 9.5252134056786115 0.55919291073839883 0 -0.82903756765294845 0.20725939191323711 0 0.13979822768459971 1 I I 0 1 0.25 forward I I I I #
face $-1 $99 $100 $24 $-1 $101 reversed single #
loop $-1 $-1 $102 $40 #
plane-surface $-1 0 0 -12.711160046827727 0 0 1 1 0 0 forward_v I I I I #
coedge $-1 $103 $104 $105 $106 forward $41 $-1 #
face $-1 $107 $108 $25 $-1 $109 reversed single #
loop $-1 $-1 $110 $43 #
plane-surface $-1 0 0 -12.711160046827727 0 0 1 1 0 0 forward_v I I I I #
coedge $-1 $111 $112 $113 $114 forward $44 $-1 #
face $-1 $115 $116 $26 $-1 $117 reversed single #
loop $-1 $-1 $118 $46 #
plane-surface $-1 0 0 -12.711160046827727 0 0 1 1 0 0 forward_v I I I I #
coedge $-1 $119 $120 $121 $122 forward $47 $-1 #
face $-1 $123 $124 $27 $-1 $125 reversed single #
loop $-1 $-1 $126 $49 #
plane-surface $-1 -23.45596236482595 -4.6474251412727554 82.743590842038572 0.70710678939079041 0 0.70710677298230451 0.70710677298230451 0 -0.70710678939079041 forward_v I I I I #
coedge $-1 $127 $128 $129 $130 reversed $50 $-1 #
face $-1 $-1 $131 $28 $-1 $132 forward single #
loop $-1 $133 $134 $52 #
cone-surface $-1 48.93303654363838 -4.6474251412727554 5.0164918328793693 -0.70710678939079041 0 -0.70710677298230451 0.35355338649115226 0 -0.35355339469539521 1 I I -0.70710678118654746 0.70710678118654746 0.5 forward I I I I #
loop $-1 $-1 $135 $36 #
coedge $-1 $84 $84 $136 $137 reversed $53 $-1 #
face $-1 $138 $139 $29 $-1 $140 reversed single #
loop $-1 $-1 $141 $55 #
plane-surface $-1 -56.627704702902314 3.9964096937443223 7.1683043321824442 -0.55919291073839883 0 0.82903756765294845 0.82903756765294845 0 0.55919291073839883 forward_v I I I I #
coedge $-1 $142 $143 $144 $145 reversed $56 $-1 #
face $-1 $-1 $146 $30 $-1 $147 forward single #
loop $-1 $148 $149 $58 #
cone-surface $-1 -51.889801987702434 2.4502146890740946 9.0070649258955182 0.55919291073839883 0 -0.82903756765294845 0.10362969595661856 0 0.069899113842299854 1 I I -0.70710678118654746 0.70710678118654746 0.125 forward I I I I #
loop $-1 $-1 $150 $38 #
coedge $-1 $93 $93 $151 $152 reversed $59 $-1 #
face $-1 $-1 $153 $31 $-1 $154 forward single #
loop $-1 $155 $156 $61 #
cone-surface $-1 -51.889801987702434 5.5426046984145607 9.0070649258955182 0.55919291073839883 0 -0.82903756765294845 0.10362969595661856 0 0.069899113842299854 1 I I -0.70710678118654746 0.70710678118654746 0.125 forward I I I I #
loop $-1 $-1 $157 $39 #
coedge $-1 $98 $98 $158 $159 reversed $62 $-1 #
face $-1 $160 $161 $24 $-1 $162 reversed single #
loop $-1 $-1 $163 $64 #
plane-surface $-1 0 -26.518778134253832 0 0 1 0 0 0 1 forward_v I I I I #
coedge $-1 $164 $165 $166 $167 forward $65 $-1 #
coedge $-1 $168 $67 $169 $170 forward $41 $-1 #
coedge $-1 $67 $168 $171 $172 forward $41 $-1 #
coedge $-1 $173 $174 $67 $106 reversed $175 $-1 #
edge $-1 $176 -26.518778134253832 $177 26.518778134253832 $105 $178 forward 7 unknown #
face $-1 $179 $180 $25 $-1 $181 reversed single #
loop $-1 $-1 $182 $68 #
plane-surface $-1 -49.038537627296229 -39.710003941790511 0 0 1 0 0 0 1 forward_v I I I I #
coedge $-1 $183 $184 $112 $185 forward $69 $-1 #
coedge $-1 $186 $71 $187 $188 reversed $44 $-1 #
coedge $-1 $71 $186 $110 $185 reversed $44 $-1 #
coedge $-1 $189 $190 $71 $114 reversed $180 $-1 #
edge $-1 $191 -12.711160046827727 $192 12.711160046827727 $113 $193 forward 7 unknown #
face $-1 $194 $195 $26 $-1 $196 reversed single #
loop $-1 $-1 $197 $72 #
plane-surface $-1 -52.015207581436769 33.114391038022163 0 1 0 0 0 0 -1 forward_v I I I I #
coedge $-1 $198 $199 $120 $200 forward $73 $-1 #
coedge $-1 $201 $75 $202 $203 reversed $47 $-1 #
coedge $-1 $75 $201 $118 $200 reversed $47 $-1 #
coedge $-1 $204 $205 $75 $122 reversed $206 $-1 #
edge $-1 $207 -12.711160046827727 $208 12.711160046827727 $121 $209 forward 7 unknown #
face $-1 $210 $211 $27 $-1 $212 forward single #
loop $-1 $-1 $213 $76 #
plane-surface $-1 56.627706561252083 -8.1612271676110062 162.82725790976681 0 1 0 0.70710678939079041 0 0.70710677298230451 forward_v I I I I #
coedge $-1 $214 $215 $216 $217 reversed $77 $-1 #
coedge $-1 $128 $79 $218 $219 reversed $50 $-1 #
coedge $-1 $79 $127 $214 $220 reversed $50 $-1 #
coedge $-1 $216 $221 $79 $130 forward $211 $-1 #
edge $-1 $222 -28.313851422276265 $223 -18.262613524649076 $129 $224 forward 7 unknown #
loop $-1 $-1 $136 $80 #
plane-surface $-1 -23.45596236482595 -4.6474251412727554 82.743590842038572 0.70710678939079041 0 0.70710677298230451 0.70710677298230451 0 -0.70710678939079041 forward_v I I I I #
loop $-1 $-1 $225 $52 #
coedge $-1 $134 $134 $135 $226 reversed $81 $-1 #
coedge $-1 $135 $135 $134 $226 forward $83 $-1 #
coedge $-1 $136 $136 $84 $137 forward $131 $-1 #
edge $-1 $227 0 $227 6.2831853071796004 $136 $228 forward 7 unknown #
face $-1 $229 $230 $29 $-1 $231 reversed single #
loop $-1 $-1 $232 $85 #
plane-surface $-1 -119.95932674540323 7.6041980379748626 101.06129346950956 0 -1 0 0.55919291073839883 0 -0.82903756765294845 forward_v I I I I #
coedge $-1 $233 $234 $235 $236 reversed $86 $-1 #
coedge $-1 $143 $88 $237 $238 reversed $56 $-1 #
coedge $-1 $88 $142 $233 $239 reversed $56 $-1 #
coedge $-1 $235 $240 $88 $145 forward $241 $-1 #
edge $-1 $242 3.3519586697993091 $243 11.569580051037647 $144 $244 forward 7 unknown #
loop $-1 $-1 $151 $89 #
plane-surface $-1 -56.627704702902314 3.9964096937443223 7.1683043321824442 -0.55919291073839883 0 0.82903756765294845 0.82903756765294845 0 0.55919291073839883 forward_v I I I I #
loop $-1 $-1 $245 $58 #
coedge $-1 $149 $149 $150 $246 reversed $90 $-1 #
coedge $-1 $150 $150 $149 $246 forward $92 $-1 #
coedge $-1 $151 $151 $93 $152 forward $146 $-1 #
edge $-1 $247 0 $247 6.2831853071796004 $151 $248 forward 7 unknown #
loop $-1 $-1 $158 $94 #
plane-surface $-1 -56.627704702902314 3.9964096937443223 7.1683043321824442 -0.55919291073839883 0 0.82903756765294845 0.82903756765294845 0 0.55919291073839883 forward_v I I I I #
loop $-1 $-1 $249 $61 #
coedge $-1 $156 $156 $157 $250 reversed $95 $-1 #
coedge $-1 $157 $157 $156 $250 forward $97 $-1 #
coedge $-1 $158 $158 $98 $159 forward $153 $-1 #
edge $-1 $251 0 $251 6.2831853071796004 $158 $252 forward 7 unknown #
face $-1 $253 $254 $24 $-1 $255 reversed single #
loop $-1 $-1 $256 $99 #
plane-surface $-1 -56.627704702902307 0 0 1 0 0 0 0 -1 forward_v I I I I #
coedge $-1 $257 $171 $258 $259 forward $100 $-1 #
coedge $-1 $260 $102 $257 $261 forward $65 $-1 #
coedge $-1 $102 $260 $262 $263 forward $65 $-1 #
coedge $-1 $174 $173 $102 $167 reversed $175 $-1 #
edge $-1 $264 -26.518778134253832 $265 26.518778134253832 $166 $266 forward 7 unknown #
coedge $-1 $104 $103 $267 $268 forward $41 $-1 #
coedge $-1 $269 $270 $103 $170 reversed $254 $-1 #
edge $-1 $177 -56.627704702902307 $271 56.627704702902307 $169 $272 forward 7 unknown #
coedge $-1 $163 $273 $104 $172 reversed $100 $-1 #
edge $-1 $274 -56.627704702902307 $176 56.627704702902307 $171 $275 forward 7 unknown #
coedge $-1 $166 $105 $273 $276 forward $175 $-1 #
coedge $-1 $105 $166 $269 $277 reversed $175 $-1 #
loop $-1 $-1 $173 $253 #
vertex $-1 $106 $278 #
vertex $-1 $106 $279 #
straight-curve $-1 56.627704702902307 0 12.711160046827727 0 1 0 I I #
face $-1 $280 $281 $25 $-1 $282 reversed single #
loop $-1 $-1 $113 $107 #
plane-surface $-1 -52.015207581436769 -33.11439103802217 0 1 0 0 0 0 -1 forward_v I I I I #
coedge $-1 $283 $284 $285 $286 forward $108 $-1 #
coedge $-1 $287 $110 $288 $289 forward $69 $-1 #
coedge $-1 $110 $287 $189 $290 forward $69 $-1 #
edge $-1 $191 -52.015207581436769 $291 -46.061867673155689 $110 $292 forward 7 unknown #
coedge $-1 $112 $111 $293 $294 forward $44 $-1 #
coedge $-1 $295 $296 $111 $188 forward $297 $-1 #
edge $-1 $298 46.061867673155689 $192 52.015207581436769 $187 $299 forward 7 unknown #
coedge $-1 $285 $113 $184 $290 reversed $180 $-1 #
coedge $-1 $113 $285 $295 $300 reversed $180 $-1 #
vertex $-1 $185 $301 #
vertex $-1 $300 $302 #
straight-curve $-1 -52.015207581436769 -26.518778134253832 0 0 0 1 I I #
face $-1 $303 $206 $26 $-1 $304 reversed single #
loop $-1 $-1 $305 $115 #
plane-surface $-1 -49.038537627296229 39.710003941790504 0 0 -1 0 0 0 -1 forward_v I I I I #
coedge $-1 $306 $307 $308 $309 forward $116 $-1 #
coedge $-1 $310 $118 $306 $311 forward $73 $-1 #
coedge $-1 $118 $310 $204 $312 forward $73 $-1 #
edge $-1 $207 46.061867673155689 $313 52.015207581436769 $118 $314 forward 7 unknown #
coedge $-1 $120 $119 $315 $316 forward $47 $-1 #
coedge $-1 $317 $318 $119 $203 forward $319 $-1 #
edge $-1 $320 -52.015207581436769 $208 -46.061867673155689 $202 $321 forward 7 unknown #
coedge $-1 $322 $121 $199 $312 reversed $206 $-1 #
coedge $-1 $121 $322 $317 $323 reversed $206 $-1 #
loop $-1 $-1 $121 $194 #
vertex $-1 $200 $324 #
vertex $-1 $323 $325 #
straight-curve $-1 -46.061867673155689 26.518778134253832 0 0 0 1 I I #
face $-1 $-1 $326 $27 $-1 $327 reversed single #
loop $-1 $-1 $129 $123 #
plane-surface $-1 0 0 12.711160046827727 0 0 1 1 0 0 forward_v I I I I #
coedge $-1 $328 $329 $330 $331 reversed $124 $-1 #
coedge $-1 $332 $126 $128 $220 forward $77 $-1 #
coedge $-1 $126 $332 $328 $333 forward $77 $-1 #
coedge $-1 $330 $129 $126 $217 forward $211 $-1 #
edge $-1 $223 -1.1900894557018731 $334 5.8375145969746285 $216 $335 forward 7 unknown #
coedge $-1 $336 $337 $127 $219 forward $326 $-1 #
edge $-1 $338 -78.753707038922883 $222 -68.702468908055678 $218 $339 forward 7 unknown #
edge $-1 $223 99.040812287416259 $338 113.25540940580467 $128 $340 forward 7 unknown #
coedge $-1 $129 $330 $336 $341 forward $211 $-1 #
vertex $-1 $130 $342 #
vertex $-1 $130 $343 #
straight-curve $-1 28.313853280626041 -1.1336231149345046 12.711160046827729 -1 0 0 I I #
coedge $-1 $225 $225 $-1 $344 reversed $133 $-1 #
edge $-1 $345 0 $345 6.2831853071796004 $134 $346 forward 7 unknown #
vertex $-1 $137 $347 #
ellipse-curve $-1 51.602085754088698 -4.6474251412727554 7.6855409813941282 0.70710678939079041 0 0.70710677298230451 0.70710677298230451 0 -0.70710678939079041 1 I I #
face $-1 $-1 $241 $29 $-1 $348 forward single #
loop $-1 $-1 $349 $138 #
plane-surface $-1 -56.627704702902307 0 0 1 0 0 0 0 -1 forward_v I I I I #
coedge $-1 $350 $351 $352 $353 reversed $139 $-1 #
coedge $-1 $354 $141 $143 $239 forward $86 $-1 #
coedge $-1 $141 $354 $350 $355 forward $86 $-1 #
coedge $-1 $352 $144 $141 $236 forward $241 $-1 #
edge $-1 $243 -1.6095834973583791 $356 5.6059931911027014 $235 $357 forward 7 unknown #
coedge $-1 $358 $359 $142 $238 forward $230 $-1 #
edge $-1 $360 -43.362342402572331 $242 -37.819486687927053 $237 $361 forward 7 unknown #
edge $-1 $243 -9.9122424626701644 $360 -8.3739815925159718e-015 $143 $362 forward 7 unknown #
coedge $-1 $144 $352 $358 $363 forward $241 $-1 #
loop $-1 $-1 $352 $229 #
vertex $-1 $238 $364 #
vertex $-1 $145 $365 #
straight-curve $-1 -59.979663372701616 0.38862134951378202 12.711160046827729 1 0 0 I I #
coedge $-1 $245 $245 $-1 $366 reversed $148 $-1 #
edge $-1 $367 0 $367 6.2831853071796004 $149 $368 forward 7 unknown #
vertex $-1 $152 $369 #
ellipse-curve $-1 -52.518894012283134 2.4502146890740946 9.9397321895050901 -0.55919291073839883 0 0.82903756765294845 0.20725939191323711 0 0.13979822768459971 1 I I #
coedge $-1 $249 $249 $-1 $370 reversed $155 $-1 #
edge $-1 $371 0 $371 6.2831853071796004 $156 $372 forward 7 unknown #
vertex $-1 $159 $373 #
ellipse-curve $-1 -52.518894012283134 5.5426046984145607 9.9397321895050901 -0.55919291073839883 0 0.82903756765294845 0.20725939191323711 0 0.13979822768459971 1 I I #
face $-1 $-1 $175 $24 $-1 $374 reversed single #
loop $-1 $-1 $269 $160 #
plane-surface $-1 0 26.518778134253832 0 0 -1 0 0 0 -1 forward_v I I I I #
coedge $-1 $375 $267 $270 $376 forward $161 $-1 #
coedge $-1 $273 $163 $164 $261 reversed $100 $-1 #
coedge $-1 $267 $375 $163 $259 reversed $161 $-1 #
edge $-1 $274 -12.711160046827727 $377 12.711160046827727 $258 $378 forward 7 unknown #
coedge $-1 $165 $164 $375 $379 forward $65 $-1 #
edge $-1 $265 -56.627704702902307 $377 56.627704702902307 $257 $380 forward 7 unknown #
coedge $-1 $270 $269 $165 $263 reversed $254 $-1 #
edge $-1 $381 -56.627704702902307 $264 56.627704702902307 $262 $382 forward 7 unknown #
vertex $-1 $167 $383 #
vertex $-1 $276 $384 #
straight-curve $-1 56.627704702902307 0 -12.711160046827727 0 -1 0 I I #
coedge $-1 $256 $258 $168 $268 reversed $161 $-1 #
edge $-1 $271 -26.518778134253832 $274 26.518778134253832 $267 $385 forward 7 unknown #
coedge $-1 $262 $169 $174 $277 forward $254 $-1 #
coedge $-1 $169 $262 $256 $376 reversed $254 $-1 #
vertex $-1 $170 $386 #
straight-curve $-1 0 26.518778134253832 12.711160046827727 -1 0 0 I I #
coedge $-1 $171 $257 $173 $276 reversed $100 $-1 #
vertex $-1 $268 $387 #
straight-curve $-1 0 -26.518778134253832 12.711160046827727 1 0 0 I I #
edge $-1 $176 -12.711160046827727 $265 12.711160046827727 $173 $388 forward 7 unknown #
edge $-1 $177 -12.711160046827727 $264 12.711160046827727 $174 $389 forward 7 unknown #
point $-1 56.627704702902307 -26.518778134253832 12.711160046827727 #
point $-1 56.627704702902307 26.518778134253832 12.711160046827727 #
face $-1 $-1 $297 $25 $-1 $390 forward single #
loop $-1 $-1 $391 $179 #
plane-surface $-1 -46.061867673155689 -33.11439103802217 0 -1 0 0 0 0 1 forward_v I I I I #
coedge $-1 $392 $182 $287 $393 reversed $108 $-1 #
coedge $-1 $182 $392 $394 $395 reversed $108 $-1 #
coedge $-1 $190 $189 $182 $286 reversed $180 $-1 #
edge $-1 $396 -12.711160046827727 $397 12.711160046827727 $285 $398 forward 7 unknown #
coedge $-1 $184 $183 $283 $393 forward $69 $-1 #
coedge $-1 $293 $391 $183 $289 reversed $281 $-1 #
edge $-1 $291 -6.5956129037683411 $399 6.5956129037683411 $288 $400 forward 7 unknown #
edge $-1 $397 -6.5956129037683411 $191 6.5956129037683411 $189 $401 forward 7 unknown #
vertex $-1 $289 $402 #
straight-curve $-1 0 -26.518778134253832 -12.711160046827727 1 0 0 I I #
coedge $-1 $403 $288 $186 $294 reversed $281 $-1 #
edge $-1 $298 -12.711160046827727 $291 12.711160046827727 $293 $404 forward 7 unknown #
coedge $-1 $394 $187 $190 $300 forward $297 $-1 #
coedge $-1 $187 $394 $403 $405 forward $297 $-1 #
loop $-1 $-1 $187 $280 #
vertex $-1 $188 $406 #
straight-curve $-1 0 -26.518778134253832 12.711160046827727 -1 0 0 I I #
edge $-1 $192 -6.5956129037683411 $396 6.5956129037683411 $190 $407 forward 7 unknown #
point $-1 -52.015207581436769 -26.518778134253829 -12.711160046827727 #
point $-1 -52.015207581436769 -26.518778134253829 12.711160046827727 #
face $-1 $-1 $319 $26 $-1 $408 forward single #
plane-surface $-1 -46.061867673155689 33.114391038022163 0 -1 0 0 0 0 1 forward_v I I I I #
coedge $-1 $409 $410 $322 $411 forward $195 $-1 #
coedge $-1 $315 $197 $198 $311 reversed $116 $-1 #
coedge $-1 $197 $315 $318 $412 reversed $116 $-1 #
coedge $-1 $410 $409 $197 $309 reversed $195 $-1 #
edge $-1 $413 -12.711160046827727 $414 12.711160046827727 $308 $415 forward 7 unknown #
coedge $-1 $199 $198 $409 $416 forward $73 $-1 #
edge $-1 $313 -6.5956129037683375 $414 6.5956129037683411 $306 $417 forward 7 unknown #
edge $-1 $418 -6.5956129037683411 $207 6.5956129037683375 $204 $419 forward 7 unknown #
vertex $-1 $311 $420 #
straight-curve $-1 0 26.518778134253832 -12.711160046827727 -1 0 0 I I #
coedge $-1 $307 $306 $201 $316 reversed $116 $-1 #
edge $-1 $320 -12.711160046827727 $313 12.711160046827727 $315 $421 forward 7 unknown #
coedge $-1 $422 $202 $205 $323 forward $319 $-1 #
coedge $-1 $202 $422 $307 $412 forward $319 $-1 #
loop $-1 $-1 $202 $303 #
vertex $-1 $203 $423 #
straight-curve $-1 0 26.518778134253832 12.711160046827727 1 0 0 I I #
coedge $-1 $205 $204 $305 $411 reversed $206 $-1 #
edge $-1 $208 -6.5956129037683375 $424 6.5956129037683411 $205 $425 forward 7 unknown #
point $-1 -46.061867673155689 26.518778134253825 -12.711160046827727 #
point $-1 -46.061867673155689 26.518778134253825 12.711160046827727 #
loop $-1 $-1 $218 $210 #
plane-surface $-1 56.627704702902307 0 0 -1 0 0 0 0 1 forward_v I I I I #
coedge $-1 $329 $213 $215 $333 reversed $124 $-1 #
coedge $-1 $213 $328 $426 $427 reversed $124 $-1 #
coedge $-1 $221 $216 $213 $331 forward $211 $-1 #
edge $-1 $334 18.262613524649076 $428 28.313851422276265 $330 $429 forward 7 unknown #
coedge $-1 $215 $214 $337 $430 reversed $77 $-1 #
edge $-1 $431 -113.25540940580467 $334 -99.040812287416259 $328 $432 forward 7 unknown #
vertex $-1 $217 $433 #
straight-curve $-1 46.576466805275125 -2.3237125706363777 12.711160046827729 0 -1 0 I I #
coedge $-1 $426 $218 $221 $341 reversed $326 $-1 #
coedge $-1 $218 $426 $332 $430 forward $326 $-1 #
vertex $-1 $219 $434 #
straight-curve $-1 56.627704702902307 -1.1336231149345046 81.413628954883407 0 0 1 I I #
straight-curve $-1 -23.45596236482595 -1.1336231149345046 82.743590842038572 0.70710677298230451 0 -0.70710678939079041 I I #
edge $-1 $428 -8.1612271676110062 $222 -1.1336231149345046 $336 $435 forward 7 unknown #
point $-1 56.627704702902307 -1.1336231149345046 12.711160046827727 #
point $-1 46.576466805275118 -1.1336231149345046 12.711160046827729 #
edge $-1 $436 1 $436 0 $225 $-1 forward 7 unknown #
vertex $-1 $226 $437 #
ellipse-curve $-1 49.286589938333776 -4.6474251412727554 5.3700452193705219 0.70710678939079041 0 0.70710677298230451 0.70710677298230451 0 -0.70710678939079041 1 I I #
point $-1 52.309192527071026 -4.6474251412727554 6.9784341920033608 #
plane-surface $-1 0 0 12.711160046827727 0 0 1 1 0 0 forward_v I I I I #
coedge $-1 $359 $358 $351 $438 forward $230 $-1 #
coedge $-1 $351 $232 $234 $355 reversed $139 $-1 #
coedge $-1 $232 $350 $349 $438 reversed $139 $-1 #
coedge $-1 $240 $235 $232 $353 forward $241 $-1 #
edge $-1 $356 -11.569580051037647 $439 -3.3519586697993091 $352 $440 forward 7 unknown #
coedge $-1 $234 $233 $359 $441 reversed $86 $-1 #
edge $-1 $442 8.3739815925159718e-015 $356 9.9122424626701644 $350 $443 forward 7 unknown #
vertex $-1 $236 $444 #
straight-curve $-1 -48.410083321663976 1.9982048468721612 12.711160046827727 0 1 0 I I #
coedge $-1 $349 $237 $240 $363 reversed $230 $-1 #
coedge $-1 $237 $349 $354 $441 forward $230 $-1 #
vertex $-1 $238 $445 #
straight-curve $-1 -56.627704702902307 0.38862134951378202 50.530646734754782 0 0 1 I I #
straight-curve $-1 -56.627704702902314 0.38862134951378202 7.1683043321824442 -0.82903756765294845 0 -0.55919291073839883 I I #
edge $-1 $439 -7.6041980379748626 $242 -0.38862134951378202 $358 $446 forward 7 unknown #
point $-1 -56.627704702902307 0.38862134951378202 12.711160046827727 #
point $-1 -48.410083321663969 0.38862134951378202 12.711160046827727 #
edge $-1 $447 1 $447 0 $245 $-1 forward 7 unknown #
vertex $-1 $246 $448 #
ellipse-curve $-1 -51.959701101544731 2.4502146890740946 9.1106946218521365 -0.55919291073839883 0 0.82903756765294845 0.20725939191323711 0 0.13979822768459971 1 I I #
point $-1 -52.311634620369894 2.4502146890740946 10.079530417189686 #
edge $-1 $449 1 $449 0 $249 $-1 forward 7 unknown #
vertex $-1 $250 $450 #
ellipse-curve $-1 -51.959701101544731 5.5426046984145607 9.1106946218521365 -0.55919291073839883 0 0.82903756765294845 0.20725939191323711 0 0.13979822768459971 1 I I #
point $-1 -52.311634620369894 5.5426046984145607 10.079530417189686 #
plane-surface $-1 56.627704702902307 0 0 -1 0 0 0 0 1 forward_v I I I I #
coedge $-1 $258 $256 $260 $379 reversed $161 $-1 #
edge $-1 $271 -12.711160046827727 $381 12.711160046827727 $270 $451 forward 7 unknown #
vertex $-1 $379 $452 #
straight-curve $-1 -56.627704702902307 -26.518778134253832 0 0 0 -1 I I #
edge $-1 $377 -26.518778134253832 $381 26.518778134253832 $375 $453 forward 7 unknown #
straight-curve $-1 0 -26.518778134253832 -12.711160046827727 -1 0 0 I I #
vertex $-1 $263 $454 #
straight-curve $-1 0 26.518778134253832 -12.711160046827727 1 0 0 I I #
point $-1 56.627704702902307 26.518778134253832 -12.711160046827727 #
point $-1 56.627704702902307 -26.518778134253832 -12.711160046827727 #
straight-curve $-1 -56.627704702902307 0 12.711160046827727 0 -1 0 I I #
point $-1 -56.627704702902307 26.518778134253832 12.711160046827727 #
point $-1 -56.627704702902307 -26.518778134253832 12.711160046827727 #
straight-curve $-1 56.627704702902307 -26.518778134253832 0 0 0 -1 I I #
straight-curve $-1 56.627704702902307 26.518778134253832 0 0 0 -1 I I #
plane-surface $-1 0 0 12.711160046827727 0 0 1 1 0 0 forward_v I I I I #
coedge $-1 $288 $403 $392 $455 forward $281 $-1 #
coedge $-1 $284 $283 $391 $455 reversed $108 $-1 #
edge $-1 $399 -2.9766699541405401 $397 2.9766699541405401 $283 $456 forward 7 unknown #
coedge $-1 $296 $295 $284 $395 forward $297 $-1 #
edge $-1 $396 -2.9766699541405401 $457 2.9766699541405401 $284 $458 forward 7 unknown #
vertex $-1 $300 $459 #
vertex $-1 $290 $460 #
straight-curve $-1 -52.015207581436769 -39.710003941790511 0 0 0 -1 I I #
vertex $-1 $455 $461 #
straight-curve $-1 -46.061867673155689 -33.11439103802217 -12.711160046827727 0 -1 0 I I #
straight-curve $-1 -52.015207581436769 -33.11439103802217 -12.711160046827727 0 1 0 I I #
point $-1 -46.061867673155689 -26.518778134253829 -12.711160046827727 #
coedge $-1 $391 $293 $296 $405 reversed $281 $-1 #
straight-curve $-1 -46.061867673155689 -26.518778134253832 0 0 0 -1 I I #
edge $-1 $457 -6.5956129037683411 $298 6.5956129037683411 $403 $462 forward 7 unknown #
point $-1 -46.061867673155689 -26.518778134253829 12.711160046827727 #
straight-curve $-1 -52.015207581436769 -33.11439103802217 12.711160046827727 0 -1 0 I I #
plane-surface $-1 0 0 12.711160046827727 0 0 1 1 0 0 forward_v I I I I #
coedge $-1 $308 $305 $310 $416 reversed $195 $-1 #
coedge $-1 $305 $308 $422 $463 reversed $195 $-1 #
edge $-1 $424 -12.711160046827727 $418 12.711160046827727 $322 $464 forward 7 unknown #
edge $-1 $413 -6.5956129037683411 $320 6.5956129037683375 $307 $465 forward 7 unknown #
vertex $-1 $463 $466 #
vertex $-1 $416 $467 #
straight-curve $-1 -52.015207581436769 39.710003941790504 0 0 0 -1 I I #
edge $-1 $414 -2.9766699541405401 $418 2.9766699541405401 $409 $468 forward 7 unknown #
straight-curve $-1 -52.015207581436769 33.114391038022163 -12.711160046827727 0 1 0 I I #
vertex $-1 $312 $469 #
straight-curve $-1 -46.061867673155689 33.114391038022163 -12.711160046827727 0 -1 0 I I #
point $-1 -52.015207581436769 26.518778134253825 -12.711160046827727 #
straight-curve $-1 -52.015207581436769 26.518778134253832 0 0 0 -1 I I #
coedge $-1 $318 $317 $410 $463 forward $319 $-1 #
point $-1 -52.015207581436769 26.518778134253825 12.711160046827727 #
vertex $-1 $323 $470 #
straight-curve $-1 -46.061867673155689 33.114391038022163 12.711160046827727 0 1 0 I I #
coedge $-1 $337 $336 $329 $427 forward $326 $-1 #
edge $-1 $428 68.702468908055678 $431 78.753707038922883 $426 $471 forward 7 unknown #
vertex $-1 $341 $472 #
straight-curve $-1 28.313853280626041 -8.1612271676110062 12.711160046827729 1 0 0 I I #
edge $-1 $431 -5.8375145969746285 $338 1.1900894557018731 $337 $473 forward 7 unknown #
vertex $-1 $430 $474 #
straight-curve $-1 -23.45596236482595 -8.1612271676110062 82.743590842038572 -0.70710677298230451 0 0.70710678939079041 I I #
point $-1 46.576466805275118 -8.1612271676110062 12.711160046827729 #
point $-1 56.627704702902307 -1.1336231149345046 2.6599219159605241 #
straight-curve $-1 56.627704702902307 0 12.711160046827727 0 1 0 I I #
vertex $-1 $344 $475 #
point $-1 49.993696711316076 -4.6474251412727554 4.6629384299797314 #
edge $-1 $439 37.819486687927053 $442 43.362342402572331 $349 $476 forward 7 unknown #
vertex $-1 $363 $477 #
straight-curve $-1 -59.979663372701616 7.6041980379748626 12.711160046827729 -1 0 0 I I #
edge $-1 $442 -5.6059931911027014 $360 1.6095834973583791 $359 $478 forward 7 unknown #
vertex $-1 $441 $479 #
straight-curve $-1 -56.627704702902314 7.6041980379748626 7.1683043321824442 0.82903756765294845 0 0.55919291073839883 I I #
point $-1 -48.410083321663969 7.6041980379748626 12.711160046827727 #
point $-1 -56.627704702902307 0.38862134951378202 7.1683043321824487 #
straight-curve $-1 -56.627704702902307 0 12.711160046827727 0 -1 0 I I #
vertex $-1 $366 $480 #
point $-1 -51.752441709631498 2.4502146890740946 9.2504928495367373 #
vertex $-1 $370 $481 #
point $-1 -51.752441709631498 5.5426046984145607 9.2504928495367373 #
straight-curve $-1 -56.627704702902307 26.518778134253832 0 0 0 -1 I I #
point $-1 -56.627704702902307 -26.518778134253832 -12.711160046827727 #
straight-curve $-1 -56.627704702902307 0 -12.711160046827727 0 1 0 I I #
point $-1 -56.627704702902307 26.518778134253832 -12.711160046827727 #
edge $-1 $457 -12.711160046827727 $399 12.711160046827727 $391 $482 forward 7 unknown #
straight-curve $-1 -49.038537627296229 -39.710003941790511 -12.711160046827727 -1 0 0 I I #
vertex $-1 $405 $483 #
straight-curve $-1 -49.038537627296229 -39.710003941790511 12.711160046827727 1 0 0 I I #
point $-1 -52.015207581436769 -39.710003941790511 12.711160046827727 #
point $-1 -52.015207581436769 -39.710003941790511 -12.711160046827727 #
point $-1 -46.061867673155689 -39.710003941790511 -12.711160046827727 #
straight-curve $-1 -46.061867673155689 -33.11439103802217 12.711160046827727 0 1 0 I I #
edge $-1 $424 -2.9766699541405401 $413 2.9766699541405401 $410 $484 forward 7 unknown #
straight-curve $-1 -46.061867673155689 39.710003941790504 0 0 0 -1 I I #
straight-curve $-1 -52.015207581436769 33.114391038022163 12.711160046827727 0 -1 0 I I #
point $-1 -52.015207581436769 39.710003941790504 12.711160046827727 #
point $-1 -52.015207581436769 39.710003941790504 -12.711160046827727 #
straight-curve $-1 -49.038537627296229 39.710003941790504 -12.711160046827727 1 0 0 I I #
point $-1 -46.061867673155689 39.710003941790504 -12.711160046827727 #
point $-1 -46.061867673155689 39.710003941790504 12.711160046827727 #
straight-curve $-1 56.627704702902307 -8.1612271676110062 81.413628954883407 0 0 -1 I I #
point $-1 56.627704702902307 -8.1612271676110062 12.711160046827727 #
straight-curve $-1 56.627704702902307 -2.3237125706363777 2.6599219159605312 0 1 0 I I #
point $-1 56.627704702902307 -8.1612271676110062 2.6599219159605241 #
point $-1 48.579483148942984 -4.6474251412727554 4.6629384463882166 #
straight-curve $-1 -56.627704702902307 7.6041980379748626 50.530646734754782 0 0 -1 I I #
point $-1 -56.627704702902307 7.6041980379748626 12.711160046827727 #
straight-curve $-1 -56.627704702902307 1.9982048468721612 7.1683043321824469 0 -1 0 I I #
point $-1 -56.627704702902307 7.6041980379748626 7.1683043321824487 #
point $-1 -51.819902873860137 2.4502146890740946 8.9034352299388999 #
point $-1 -51.819902873860137 5.5426046984145607 8.9034352299388999 #
straight-curve $-1 -46.061867673155689 -39.710003941790511 0 0 0 -1 I I #
point $-1 -46.061867673155689 -39.710003941790511 12.711160046827727 #
straight-curve $-1 -49.038537627296229 39.710003941790504 12.711160046827727 -1 0 0 I I #
End-of-ACIS-data 