500 0 13 0           
7 Unknown 11 ACIS 5.0 NT 24 Thu Mar 25 23:18:38 1999 
-1 9.9999999999999995e-007 1e-010 
body $-1 $13 $-1 $14 #
body $-1 $15 $-1 $16 #
body $-1 $17 $-1 $18 #
body $-1 $19 $-1 $20 #
body $-1 $21 $-1 $22 #
body $-1 $23 $-1 $24 #
body $-1 $25 $-1 $26 #
body $-1 $27 $-1 $28 #
body $-1 $29 $-1 $30 #
body $-1 $31 $-1 $32 #
body $-1 $33 $-1 $34 #
body $-1 $35 $-1 $36 #
body $-1 $37 $-1 $38 #
lump $-1 $-1 $39 $0 #
transform $-1 1 0 0 0 1 0 0 0 1 53.214514603106785 32.965650427994127 13.038771406503175 1 rotate no_reflect no_shear #
lump $-1 $-1 $40 $1 #
transform $-1 1 0 0 0 1 0 0 0 1 53.214514603106785 32.965650427994127 13.038771406503175 1 rotate no_reflect no_shear #
lump $-1 $-1 $41 $2 #
transform $-1 1 0 0 0 1 0 0 0 1 53.214514603106785 32.965650427994127 13.038771406503175 1 rotate no_reflect no_shear #
lump $-1 $-1 $42 $3 #
transform $-1 1 0 0 0 1 0 0 0 1 53.214514603106785 32.965650427994127 13.038771406503175 1 rotate no_reflect no_shear #
lump $-1 $-1 $43 $4 #
transform $-1 1 0 0 0 1 0 0 0 1 53.214514603106785 32.965650427994127 13.038771406503175 1 rotate no_reflect no_shear #
lump $-1 $-1 $44 $5 #
transform $-1 1 0 0 0 1 0 0 0 1 53.214514603106785 32.965650427994127 13.038771406503175 1 rotate no_reflect no_shear #
lump $-1 $-1 $45 $6 #
transform $-1 1 0 0 0 1 0 0 0 1 53.214514603106785 32.965650427994127 13.038771406503175 1 rotate no_reflect no_shear #
lump $-1 $-1 $46 $7 #
transform $-1 1 0 0 0 1 0 0 0 1 53.214514603106785 32.965650427994127 13.038771406503175 1 rotate no_reflect no_shear #
lump $-1 $-1 $47 $8 #
transform $-1 1 0 0 0 1 0 0 0 1 53.214514603106785 32.965650427994127 13.038771406503175 1 rotate no_reflect no_shear #
lump $-1 $-1 $48 $9 #
transform $-1 1 0 0 0 1 0 0 0 1 53.214514603106785 32.965650427994127 13.038771406503175 1 rotate no_reflect no_shear #
lump $-1 $-1 $49 $10 #
transform $-1 1 0 0 0 1 0 0 0 1 53.214514603106785 32.965650427994127 13.038771406503175 1 rotate no_reflect no_shear #
lump $-1 $-1 $50 $11 #
transform $-1 1 0 0 0 1 0 0 0 1 53.214514603106785 32.965650427994127 13.038771406503175 1 rotate no_reflect no_shear #
lump $-1 $-1 $51 $12 #
transform $-1 1 0 0 0 1 0 0 0 1 53.214514603106785 32.965650427994127 13.038771406503175 1 rotate no_reflect no_shear #
shell $-1 $-1 $-1 $52 $-1 $13 #
shell $-1 $-1 $-1 $53 $-1 $15 #
shell $-1 $-1 $-1 $54 $-1 $17 #
shell $-1 $-1 $-1 $55 $-1 $19 #
shell $-1 $-1 $-1 $56 $-1 $21 #
shell $-1 $-1 $-1 $57 $-1 $23 #
shell $-1 $-1 $-1 $58 $-1 $25 #
shell $-1 $-1 $-1 $59 $-1 $27 #
shell $-1 $-1 $-1 $60 $-1 $29 #
shell $-1 $-1 $-1 $61 $-1 $31 #
shell $-1 $-1 $-1 $62 $-1 $33 #
shell $-1 $-1 $-1 $63 $-1 $35 #
shell $-1 $-1 $-1 $64 $-1 $37 #
face $-1 $65 $66 $39 $-1 $67 forward single #
face $-1 $68 $69 $40 $-1 $70 reversed single #
face $-1 $71 $72 $41 $-1 $73 reversed single #
face $-1 $74 $75 $42 $-1 $76 forward single #
face $-1 $77 $78 $43 $-1 $79 forward single #
face $-1 $80 $81 $44 $-1 $82 forward single #
face $-1 $83 $84 $45 $-1 $85 reversed single #
face $-1 $86 $87 $46 $-1 $88 forward single #
face $-1 $89 $90 $47 $-1 $91 forward single #
face $-1 $92 $93 $48 $-1 $94 forward single #
face $-1 $95 $96 $49 $-1 $97 reversed single #
face $-1 $98 $99 $50 $-1 $100 forward single #
face $-1 $101 $102 $51 $-1 $103 forward single #
face $-1 $104 $105 $39 $-1 $106 reversed single #
loop $-1 $-1 $107 $52 #
plane-surface $-1 0 0 13.038771406503175 0 0 1 1 0 0 forward_v I I I I #
face $-1 $108 $109 $40 $-1 $110 reversed single #
loop $-1 $-1 $111 $53 #
plane-surface $-1 0 -25.45680314972638 8.0888372338887873 0 0 1 1 0 0 forward_v I I I I #
face $-1 $112 $113 $41 $-1 $114 reversed single #
loop $-1 $-1 $115 $54 #
plane-surface $-1 -118.73876856338853 -5.4519266558113131 87.55313637054256 0 1 0 -0.61566148304635926 0 0.78801074757464917 forward_v I I I I #
face $-1 $116 $117 $42 $-1 $118 forward single #
loop $-1 $119 $120 $55 #
cone-surface $-1 -46.921130436437522 -4.1082702410716578 7.9683390805192831 0.61566148304635926 0 -0.78801074757464917 0.39400537378732459 0 0.30783074152317963 1 I I 0 1 0.5 forward I I I I #
face $-1 $121 $122 $43 $-1 $123 forward single #
loop $-1 $124 $125 $56 #
cone-surface $-1 -46.921130436437522 -2.092785618962175 7.9683390805192831 0.61566148304635926 0 -0.78801074757464917 0.39400537378732459 0 0.30783074152317963 1 I I 0 1 0.5 forward I I I I #
face $-1 $126 $127 $44 $-1 $128 forward single #
loop $-1 $129 $130 $57 #
cone-surface $-1 -46.921130436437522 -0.077300996852692094 7.9683390805192831 0.61566148304635926 0 -0.78801074757464917 0.39400537378732459 0 0.30783074152317963 1 I I 0 1 0.5 forward I I I I #
face $-1 $131 $132 $45 $-1 $133 reversed single #
loop $-1 $-1 $134 $58 #
plane-surface $-1 -118.73876856338853 20.00487649391507 87.55313637054256 0 1 0 -0.61566148304635926 0 0.78801074757464917 forward_v I I I I #
face $-1 $135 $136 $46 $-1 $137 forward single #
loop $-1 $138 $139 $59 #
cone-surface $-1 -46.921130436437522 21.348532908654725 7.9683390805192831 0.61566148304635926 0 -0.78801074757464917 0.39400537378732459 0 0.30783074152317963 1 I I 0 1 0.5 forward I I I I #
face $-1 $140 $141 $47 $-1 $142 forward single #
loop $-1 $143 $144 $60 #
cone-surface $-1 -46.921130436437522 23.364017530764208 7.9683390805192831 0.61566148304635926 0 -0.78801074757464917 0.39400537378732459 0 0.30783074152317963 1 I I 0 1 0.5 forward I I I I #
face $-1 $145 $146 $48 $-1 $147 forward single #
loop $-1 $148 $149 $61 #
cone-surface $-1 -46.921130436437522 25.379502152873691 7.9683390805192831 0.61566148304635926 0 -0.78801074757464917 0.39400537378732459 0 0.30783074152317963 1 I I 0 1 0.5 forward I I I I #
face $-1 $150 $151 $49 $-1 $152 reversed single #
loop $-1 $-1 $153 $62 #
plane-surface $-1 89.626998188861506 27.318917423779933 155.73689883604496 0 -1 0 -0.85716730853699208 0 -0.51503806187062418 forward_v I I I I #
face $-1 $154 $155 $50 $-1 $156 forward single #
loop $-1 $157 $158 $63 #
cone-surface $-1 51.625823385858197 16.771745306100662 11.015723014323196 -0.85716730853699208 0 -0.51503806187062418 0.25751903093531209 0 -0.42858365426849604 1 I I 0 1 0.5 forward I I I I #
face $-1 $159 $160 $51 $-1 $161 forward single #
loop $-1 $162 $163 $64 #
cone-surface $-1 51.625823385858197 23.100048576708225 11.015723014323196 -0.85716730853699208 0 -0.51503806187062418 0.25751903093531209 0 -0.42858365426849604 1 I I 0 1 0.5 forward I I I I #
face $-1 $164 $165 $39 $-1 $166 reversed single #
loop $-1 $-1 $167 $65 #
plane-surface $-1 0 0 -13.038771406503175 0 0 1 1 0 0 forward_v I I I I #
coedge $-1 $168 $169 $170 $171 forward $66 $-1 #
face $-1 $172 $173 $40 $-1 $174 reversed single #
loop $-1 $-1 $175 $68 #
plane-surface $-1 0 -17.947955871458632 10.563804320195979 0 -1 0 0 0 -1 forward_v I I I I #
coedge $-1 $176 $177 $178 $179 reversed $69 $-1 #
face $-1 $180 $181 $41 $-1 $182 reversed single #
loop $-1 $-1 $183 $71 #
plane-surface $-1 -53.214514603106807 -2.092785618962175 3.6859175021100299 -0.61566148304635926 0 0.78801074757464917 0.78801074757464917 0 0.61566148304635926 forward_v I I I I #
coedge $-1 $184 $185 $186 $187 reversed $72 $-1 #
face $-1 $-1 $188 $42 $-1 $189 forward single #
loop $-1 $190 $191 $74 #
cone-surface $-1 -46.459384324152751 -4.1082702410716578 7.3773310198382962 0.61566148304635926 0 -0.78801074757464917 0.19700268689366229 0 0.15391537076158981 1 I I -0.70710678118654746 0.70710678118654746 0.25 forward I I I I #
loop $-1 $-1 $192 $55 #
coedge $-1 $120 $120 $193 $194 reversed $75 $-1 #
face $-1 $-1 $195 $43 $-1 $196 forward single #
loop $-1 $197 $198 $77 #
cone-surface $-1 -46.459384324152751 -2.092785618962175 7.3773310198382962 0.61566148304635926 0 -0.78801074757464917 0.19700268689366229 0 0.15391537076158981 1 I I -0.70710678118654746 0.70710678118654746 0.25 forward I I I I #
loop $-1 $-1 $199 $56 #
coedge $-1 $125 $125 $200 $201 reversed $78 $-1 #
face $-1 $-1 $202 $44 $-1 $203 forward single #
loop $-1 $204 $205 $80 #
cone-surface $-1 -46.459384324152751 -0.077300996852692094 7.3773310198382962 0.61566148304635926 0 -0.78801074757464917 0.19700268689366229 0 0.15391537076158981 1 I I -0.70710678118654746 0.70710678118654746 0.25 forward I I I I #
loop $-1 $-1 $206 $57 #
coedge $-1 $130 $130 $207 $208 reversed $81 $-1 #
face $-1 $209 $210 $45 $-1 $211 reversed single #
loop $-1 $-1 $212 $83 #
plane-surface $-1 -53.214514603106807 23.364017530764208 3.6859175021100299 -0.61566148304635926 0 0.78801074757464917 0.78801074757464917 0 0.61566148304635926 forward_v I I I I #
coedge $-1 $213 $214 $215 $216 reversed $84 $-1 #
face $-1 $-1 $217 $46 $-1 $218 forward single #
loop $-1 $219 $220 $86 #
cone-surface $-1 -46.459384324152751 21.348532908654725 7.3773310198382962 0.61566148304635926 0 -0.78801074757464917 0.19700268689366229 0 0.15391537076158981 1 I I -0.70710678118654746 0.70710678118654746 0.25 forward I I I I #
loop $-1 $-1 $221 $59 #
coedge $-1 $139 $139 $222 $223 reversed $87 $-1 #
face $-1 $-1 $224 $47 $-1 $225 forward single #
loop $-1 $226 $227 $89 #
cone-surface $-1 -46.459384324152751 23.364017530764208 7.3773310198382962 0.61566148304635926 0 -0.78801074757464917 0.19700268689366229 0 0.15391537076158981 1 I I -0.70710678118654746 0.70710678118654746 0.25 forward I I I I #
loop $-1 $-1 $228 $60 #
coedge $-1 $144 $144 $229 $230 reversed $90 $-1 #
face $-1 $-1 $231 $48 $-1 $232 forward single #
loop $-1 $233 $234 $92 #
cone-surface $-1 -46.459384324152751 25.379502152873691 7.3773310198382962 0.61566148304635926 0 -0.78801074757464917 0.19700268689366229 0 0.15391537076158981 1 I I -0.70710678118654746 0.70710678118654746 0.25 forward I I I I #
loop $-1 $-1 $235 $61 #
coedge $-1 $149 $149 $236 $237 reversed $93 $-1 #
face $-1 $238 $239 $49 $-1 $240 reversed single #
loop $-1 $-1 $241 $95 #
plane-surface $-1 -1.6004863260335043 19.935896941404444 100.92189790690466 0.85716730853699208 0 0.51503806187062418 0.51503806187062418 0 -0.85716730853699208 forward_v I I I I #
coedge $-1 $242 $243 $244 $245 reversed $96 $-1 #
face $-1 $-1 $246 $50 $-1 $247 forward single #
loop $-1 $248 $249 $98 #
cone-surface $-1 50.827586820273162 16.771745306100662 10.536094113922315 -0.85716730853699208 0 -0.51503806187062418 0.12875951546765604 0 -0.21429182713424802 1 I I -0.70710678118654746 0.70710678118654746 0.25 forward I I I I #
loop $-1 $-1 $250 $63 #
coedge $-1 $158 $158 $251 $252 reversed $99 $-1 #
face $-1 $-1 $253 $51 $-1 $254 forward single #
loop $-1 $255 $256 $101 #
cone-surface $-1 50.827586820273162 23.100048576708225 10.536094113922315 -0.85716730853699208 0 -0.51503806187062418 0.12875951546765604 0 -0.21429182713424802 1 I I -0.70710678118654746 0.70710678118654746 0.25 forward I I I I #
loop $-1 $-1 $257 $64 #
coedge $-1 $163 $163 $258 $259 reversed $102 $-1 #
face $-1 $260 $261 $39 $-1 $262 reversed single #
loop $-1 $-1 $263 $104 #
plane-surface $-1 0 -32.965650427994127 0 0 1 0 0 0 1 forward_v I I I I #
coedge $-1 $264 $265 $266 $267 forward $105 $-1 #
coedge $-1 $268 $107 $269 $270 forward $66 $-1 #
coedge $-1 $107 $268 $271 $272 forward $66 $-1 #
coedge $-1 $273 $274 $107 $171 reversed $275 $-1 #
edge $-1 $276 -32.965650427994127 $277 32.965650427994127 $170 $278 forward 7 unknown #
face $-1 $279 $280 $40 $-1 $281 reversed single #
loop $-1 $-1 $282 $108 #
plane-surface $-1 -53.214514603106785 0 0 1 0 0 0 0 -1 forward_v I I I I #
coedge $-1 $283 $284 $285 $286 reversed $109 $-1 #
coedge $-1 $287 $111 $288 $289 reversed $69 $-1 #
coedge $-1 $111 $287 $283 $290 forward $69 $-1 #
coedge $-1 $285 $291 $111 $179 forward $292 $-1 #
edge $-1 $293 -20.237248853130936 $294 -5.219554296595442 $178 $295 forward 7 unknown #
face $-1 $296 $297 $41 $-1 $298 forward single #
loop $-1 $-1 $299 $112 #
plane-surface $-1 -118.73876856338853 1.2663554178869632 87.55313637054256 0 -1 0 0.61566148304635926 0 -0.78801074757464917 forward_v I I I I #
coedge $-1 $300 $301 $302 $303 reversed $113 $-1 #
coedge $-1 $185 $115 $304 $305 reversed $72 $-1 #
coedge $-1 $115 $184 $300 $306 reversed $72 $-1 #
coedge $-1 $302 $307 $115 $187 forward $297 $-1 #
edge $-1 $308 6.154869678587481 $309 18.125976528879647 $186 $310 forward 7 unknown #
loop $-1 $-1 $193 $116 #
plane-surface $-1 -53.214514603106807 -2.092785618962175 3.6859175021100299 -0.61566148304635926 0 0.78801074757464917 0.78801074757464917 0 0.61566148304635926 forward_v I I I I #
loop $-1 $-1 $311 $74 #
coedge $-1 $191 $191 $192 $312 reversed $117 $-1 #
coedge $-1 $192 $192 $191 $312 forward $119 $-1 #
coedge $-1 $193 $193 $120 $194 forward $188 $-1 #
edge $-1 $313 0 $313 6.2831853071796004 $193 $314 forward 7 unknown #
loop $-1 $-1 $200 $121 #
plane-surface $-1 -53.214514603106807 -2.092785618962175 3.6859175021100299 -0.61566148304635926 0 0.78801074757464917 0.78801074757464917 0 0.61566148304635926 forward_v I I I I #
loop $-1 $-1 $315 $77 #
coedge $-1 $198 $198 $199 $316 reversed $122 $-1 #
coedge $-1 $199 $199 $198 $316 forward $124 $-1 #
coedge $-1 $200 $200 $125 $201 forward $195 $-1 #
edge $-1 $317 0 $317 6.2831853071796004 $200 $318 forward 7 unknown #
loop $-1 $-1 $207 $126 #
plane-surface $-1 -53.214514603106807 -2.092785618962175 3.6859175021100299 -0.61566148304635926 0 0.78801074757464917 0.78801074757464917 0 0.61566148304635926 forward_v I I I I #
loop $-1 $-1 $319 $80 #
coedge $-1 $205 $205 $206 $320 reversed $127 $-1 #
coedge $-1 $206 $206 $205 $320 forward $129 $-1 #
coedge $-1 $207 $207 $130 $208 forward $202 $-1 #
edge $-1 $321 0 $321 6.2831853071796004 $207 $322 forward 7 unknown #
face $-1 $323 $324 $45 $-1 $325 forward single #
loop $-1 $-1 $326 $131 #
plane-surface $-1 -118.73876856338853 26.723158567613346 87.55313637054256 0 -1 0 0.61566148304635926 0 -0.78801074757464917 forward_v I I I I #
coedge $-1 $327 $328 $329 $330 reversed $132 $-1 #
coedge $-1 $214 $134 $331 $332 reversed $84 $-1 #
coedge $-1 $134 $213 $327 $333 reversed $84 $-1 #
coedge $-1 $329 $334 $134 $216 forward $324 $-1 #
edge $-1 $335 6.154869678587481 $336 18.125976528879647 $215 $337 forward 7 unknown #
loop $-1 $-1 $222 $135 #
plane-surface $-1 -53.214514603106807 23.364017530764208 3.6859175021100299 -0.61566148304635926 0 0.78801074757464917 0.78801074757464917 0 0.61566148304635926 forward_v I I I I #
loop $-1 $-1 $338 $86 #
coedge $-1 $220 $220 $221 $339 reversed $136 $-1 #
coedge $-1 $221 $221 $220 $339 forward $138 $-1 #
coedge $-1 $222 $222 $139 $223 forward $217 $-1 #
edge $-1 $340 0 $340 6.2831853071796004 $222 $341 forward 7 unknown #
loop $-1 $-1 $229 $140 #
plane-surface $-1 -53.214514603106807 23.364017530764208 3.6859175021100299 -0.61566148304635926 0 0.78801074757464917 0.78801074757464917 0 0.61566148304635926 forward_v I I I I #
loop $-1 $-1 $342 $89 #
coedge $-1 $227 $227 $228 $343 reversed $141 $-1 #
coedge $-1 $228 $228 $227 $343 forward $143 $-1 #
coedge $-1 $229 $229 $144 $230 forward $224 $-1 #
edge $-1 $344 0 $344 6.2831853071796004 $229 $345 forward 7 unknown #
loop $-1 $-1 $236 $145 #
plane-surface $-1 -53.214514603106807 23.364017530764208 3.6859175021100299 -0.61566148304635926 0 0.78801074757464917 0.78801074757464917 0 0.61566148304635926 forward_v I I I I #
loop $-1 $-1 $346 $92 #
coedge $-1 $234 $234 $235 $347 reversed $146 $-1 #
coedge $-1 $235 $235 $234 $347 forward $148 $-1 #
coedge $-1 $236 $236 $149 $237 forward $231 $-1 #
edge $-1 $348 0 $348 6.2831853071796004 $236 $349 forward 7 unknown #
face $-1 $350 $351 $49 $-1 $352 reversed single #
loop $-1 $-1 $353 $150 #
plane-surface $-1 89.626998188861506 12.552876459028955 155.73689883604496 0 1 0 0.85716730853699208 0 0.51503806187062418 forward_v I I I I #
coedge $-1 $354 $355 $356 $357 reversed $151 $-1 #
coedge $-1 $243 $153 $358 $359 reversed $96 $-1 #
coedge $-1 $153 $242 $354 $360 reversed $96 $-1 #
coedge $-1 $356 $361 $153 $245 forward $362 $-1 #
edge $-1 $363 -8.4010155086760321 $364 -6.3915225510804703 $244 $365 forward 7 unknown #
loop $-1 $-1 $251 $154 #
plane-surface $-1 -1.6004863260335043 19.935896941404444 100.92189790690466 0.85716730853699208 0 0.51503806187062418 0.51503806187062418 0 -0.85716730853699208 forward_v I I I I #
loop $-1 $-1 $366 $98 #
coedge $-1 $249 $249 $250 $367 reversed $155 $-1 #
coedge $-1 $250 $250 $249 $367 forward $157 $-1 #
coedge $-1 $251 $251 $158 $252 forward $246 $-1 #
edge $-1 $368 0 $368 6.2831853071796004 $251 $369 forward 7 unknown #
loop $-1 $-1 $258 $159 #
plane-surface $-1 -1.6004863260335043 19.935896941404444 100.92189790690466 0.85716730853699208 0 0.51503806187062418 0.51503806187062418 0 -0.85716730853699208 forward_v I I I I #
loop $-1 $-1 $370 $101 #
coedge $-1 $256 $256 $257 $371 reversed $160 $-1 #
coedge $-1 $257 $257 $256 $371 forward $162 $-1 #
coedge $-1 $258 $258 $163 $259 forward $253 $-1 #
edge $-1 $372 0 $372 6.2831853071796004 $258 $373 forward 7 unknown #
face $-1 $374 $375 $39 $-1 $376 reversed single #
loop $-1 $-1 $377 $164 #
plane-surface $-1 -53.214514603106785 0 0 1 0 0 0 0 -1 forward_v I I I I #
coedge $-1 $378 $271 $379 $380 forward $165 $-1 #
coedge $-1 $381 $167 $378 $382 forward $105 $-1 #
coedge $-1 $167 $381 $383 $384 forward $105 $-1 #
coedge $-1 $274 $273 $167 $267 reversed $275 $-1 #
edge $-1 $385 -32.965650427994127 $386 32.965650427994127 $266 $387 forward 7 unknown #
coedge $-1 $169 $168 $388 $389 forward $66 $-1 #
coedge $-1 $390 $391 $168 $270 reversed $375 $-1 #
edge $-1 $277 -53.214514603106785 $392 53.214514603106785 $269 $393 forward 7 unknown #
coedge $-1 $263 $394 $169 $272 reversed $165 $-1 #
edge $-1 $395 -53.214514603106785 $276 53.214514603106785 $271 $396 forward 7 unknown #
coedge $-1 $266 $170 $394 $397 forward $275 $-1 #
coedge $-1 $170 $266 $390 $398 reversed $275 $-1 #
loop $-1 $-1 $273 $374 #
vertex $-1 $171 $399 #
vertex $-1 $171 $400 #
straight-curve $-1 53.214514603106785 0 13.038771406503175 0 1 0 I I #
face $-1 $401 $402 $40 $-1 $403 forward single #
loop $-1 $-1 $288 $172 #
plane-surface $-1 0 -32.965650427994127 0 0 1 0 0 0 1 forward_v I I I I #
coedge $-1 $404 $405 $406 $407 forward $173 $-1 #
coedge $-1 $406 $175 $177 $290 reversed $109 $-1 #
coedge $-1 $175 $406 $408 $409 reversed $109 $-1 #
coedge $-1 $410 $178 $175 $286 forward $292 $-1 #
edge $-1 $294 2.8069350737907977 $411 7.7568692464051816 $285 $412 forward 7 unknown #
coedge $-1 $177 $176 $404 $413 reversed $69 $-1 #
coedge $-1 $414 $415 $176 $289 forward $280 $-1 #
edge $-1 $416 -53.214514603106785 $293 53.214514603106785 $288 $417 forward 7 unknown #
edge $-1 $418 -53.214514603106785 $294 53.214514603106785 $283 $419 forward 7 unknown #
coedge $-1 $178 $410 $414 $420 forward $292 $-1 #
loop $-1 $-1 $285 $401 #
vertex $-1 $289 $421 #
vertex $-1 $179 $422 #
straight-curve $-1 53.214514603106785 -12.72840157486319 8.0888372338887873 0 1 0 I I #
face $-1 $-1 $423 $41 $-1 $424 reversed single #
loop $-1 $-1 $186 $180 #
plane-surface $-1 0 0 13.038771406503175 0 0 1 1 0 0 forward_v I I I I #
coedge $-1 $425 $426 $427 $428 reversed $181 $-1 #
coedge $-1 $429 $183 $185 $306 forward $113 $-1 #
coedge $-1 $183 $429 $425 $430 forward $113 $-1 #
coedge $-1 $427 $186 $183 $303 forward $297 $-1 #
edge $-1 $309 -4.4055338463302256 $431 2.3127482273680506 $302 $432 forward 7 unknown #
coedge $-1 $433 $434 $184 $305 forward $423 $-1 #
edge $-1 $435 -40.090650683161236 $308 -30.737796778768107 $304 $436 forward 7 unknown #
edge $-1 $309 -15.191552763889366 $435 -2.7186986990266253e-014 $185 $437 forward 7 unknown #
coedge $-1 $186 $427 $433 $438 forward $297 $-1 #
vertex $-1 $305 $439 #
vertex $-1 $187 $440 #
straight-curve $-1 -59.369384281694266 -5.4519266558113131 13.038771406503173 1 0 0 I I #
coedge $-1 $311 $311 $-1 $441 reversed $190 $-1 #
edge $-1 $442 0 $442 6.2831853071796004 $191 $443 forward 7 unknown #
vertex $-1 $194 $444 #
ellipse-curve $-1 -47.228961177960706 -4.1082702410716578 8.3623444543066103 -0.61566148304635926 0 0.78801074757464917 0.39400537378732459 0 0.30783074152317963 1 I I #
coedge $-1 $315 $315 $-1 $445 reversed $197 $-1 #
edge $-1 $446 0 $446 6.2831853071796004 $198 $447 forward 7 unknown #
vertex $-1 $201 $448 #
ellipse-curve $-1 -47.228961177960706 -2.092785618962175 8.3623444543066103 -0.61566148304635926 0 0.78801074757464917 0.39400537378732459 0 0.30783074152317963 1 I I #
coedge $-1 $319 $319 $-1 $449 reversed $204 $-1 #
edge $-1 $450 0 $450 6.2831853071796004 $205 $451 forward 7 unknown #
vertex $-1 $208 $452 #
ellipse-curve $-1 -47.228961177960706 -0.077300996852692094 8.3623444543066103 -0.61566148304635926 0 0.78801074757464917 0.39400537378732459 0 0.30783074152317963 1 I I #
face $-1 $-1 $453 $45 $-1 $454 reversed single #
loop $-1 $-1 $215 $209 #
plane-surface $-1 0 0 13.038771406503175 0 0 1 1 0 0 forward_v I I I I #
coedge $-1 $455 $456 $457 $458 reversed $210 $-1 #
coedge $-1 $459 $212 $214 $333 forward $132 $-1 #
coedge $-1 $212 $459 $455 $460 forward $132 $-1 #
coedge $-1 $457 $215 $212 $330 forward $324 $-1 #
edge $-1 $336 8.322867728532966 $461 15.041149802231242 $329 $462 forward 7 unknown #
coedge $-1 $463 $464 $213 $332 forward $453 $-1 #
edge $-1 $465 -40.090650683161236 $335 -30.737796778768107 $331 $466 forward 7 unknown #
edge $-1 $336 -15.191552763889366 $465 -2.7186986990266253e-014 $214 $467 forward 7 unknown #
coedge $-1 $215 $457 $463 $468 forward $324 $-1 #
vertex $-1 $216 $469 #
vertex $-1 $216 $470 #
straight-curve $-1 -59.369384281694266 20.00487649391507 13.038771406503173 1 0 0 I I #
coedge $-1 $338 $338 $-1 $471 reversed $219 $-1 #
edge $-1 $472 0 $472 6.2831853071796004 $220 $473 forward 7 unknown #
vertex $-1 $223 $474 #
ellipse-curve $-1 -47.228961177960706 21.348532908654725 8.3623444543066103 -0.61566148304635926 0 0.78801074757464917 0.39400537378732459 0 0.30783074152317963 1 I I #
coedge $-1 $342 $342 $-1 $475 reversed $226 $-1 #
edge $-1 $476 0 $476 6.2831853071796004 $227 $477 forward 7 unknown #
vertex $-1 $230 $478 #
ellipse-curve $-1 -47.228961177960706 23.364017530764208 8.3623444543066103 -0.61566148304635926 0 0.78801074757464917 0.39400537378732459 0 0.30783074152317963 1 I I #
coedge $-1 $346 $346 $-1 $479 reversed $233 $-1 #
edge $-1 $480 0 $480 6.2831853071796004 $234 $481 forward 7 unknown #
vertex $-1 $237 $482 #
ellipse-curve $-1 -47.228961177960706 25.379502152873691 8.3623444543066103 -0.61566148304635926 0 0.78801074757464917 0.39400537378732459 0 0.30783074152317963 1 I I #
face $-1 $-1 $362 $49 $-1 $483 forward single #
loop $-1 $-1 $484 $238 #
plane-surface $-1 53.214514603106785 0 0 -1 0 0 0 0 1 forward_v I I I I #
coedge $-1 $485 $486 $487 $488 reversed $239 $-1 #
coedge $-1 $489 $241 $243 $360 forward $151 $-1 #
coedge $-1 $241 $489 $485 $490 forward $151 $-1 #
coedge $-1 $487 $244 $241 $357 forward $362 $-1 #
edge $-1 $364 -17.350968953077711 $491 -2.5849279883267329 $356 $492 forward 7 unknown #
coedge $-1 $493 $494 $242 $359 forward $351 $-1 #
edge $-1 $495 -68.174036026012814 $363 -64.829678011519306 $358 $496 forward 7 unknown #
edge $-1 $364 102.52738948992337 $495 106.42902920621357 $243 $497 forward 7 unknown #
coedge $-1 $244 $487 $493 $498 forward $362 $-1 #
loop $-1 $-1 $487 $350 #
vertex $-1 $359 $499 #
vertex $-1 $245 $500 #
straight-curve $-1 44.813499094430753 27.318917423779933 13.038771406503173 -1 0 0 I I #
coedge $-1 $366 $366 $-1 $501 reversed $248 $-1 #
edge $-1 $502 0 $502 6.2831853071796004 $249 $503 forward 7 unknown #
vertex $-1 $252 $504 #
ellipse-curve $-1 52.209768124308994 16.771745306100662 11.366592399256426 0.85716730853699208 0 0.51503806187062418 0.25751903093531209 0 -0.42858365426849604 1 I I #
coedge $-1 $370 $370 $-1 $505 reversed $255 $-1 #
edge $-1 $506 0 $506 6.2831853071796004 $256 $507 forward 7 unknown #
vertex $-1 $259 $508 #
ellipse-curve $-1 52.209768124308994 23.100048576708225 11.366592399256426 0.85716730853699208 0 0.51503806187062418 0.25751903093531209 0 -0.42858365426849604 1 I I #
face $-1 $-1 $275 $39 $-1 $509 reversed single #
loop $-1 $-1 $390 $260 #
plane-surface $-1 0 32.965650427994127 0 0 -1 0 0 0 -1 forward_v I I I I #
coedge $-1 $510 $388 $391 $511 forward $261 $-1 #
coedge $-1 $394 $263 $264 $382 reversed $165 $-1 #
coedge $-1 $388 $510 $263 $380 reversed $261 $-1 #
edge $-1 $395 -13.038771406503175 $512 13.038771406503175 $379 $513 forward 7 unknown #
coedge $-1 $265 $264 $510 $514 forward $105 $-1 #
edge $-1 $386 -53.214514603106785 $512 53.214514603106785 $378 $515 forward 7 unknown #
coedge $-1 $391 $390 $265 $384 reversed $375 $-1 #
edge $-1 $516 -53.214514603106785 $385 53.214514603106785 $383 $517 forward 7 unknown #
vertex $-1 $267 $518 #
vertex $-1 $397 $519 #
straight-curve $-1 53.214514603106785 0 -13.038771406503175 0 -1 0 I I #
coedge $-1 $377 $379 $268 $389 reversed $261 $-1 #
edge $-1 $392 -32.965650427994127 $395 32.965650427994127 $388 $520 forward 7 unknown #
coedge $-1 $383 $269 $274 $398 forward $375 $-1 #
coedge $-1 $269 $383 $377 $511 reversed $375 $-1 #
vertex $-1 $270 $521 #
straight-curve $-1 0 32.965650427994127 13.038771406503175 -1 0 0 I I #
coedge $-1 $271 $378 $273 $397 reversed $165 $-1 #
vertex $-1 $389 $522 #
straight-curve $-1 0 -32.965650427994127 13.038771406503175 1 0 0 I I #
edge $-1 $276 -13.038771406503175 $386 13.038771406503175 $273 $523 forward 7 unknown #
edge $-1 $277 -13.038771406503175 $385 13.038771406503175 $274 $524 forward 7 unknown #
point $-1 53.214514603106785 -32.965650427994127 13.038771406503175 #
point $-1 53.214514603106785 32.965650427994127 13.038771406503175 #
face $-1 $-1 $292 $40 $-1 $525 reversed single #
loop $-1 $-1 $408 $279 #
plane-surface $-1 0 0 13.038771406503175 0 0 1 1 0 0 forward_v I I I I #
coedge $-1 $526 $282 $287 $413 forward $173 $-1 #
coedge $-1 $282 $526 $527 $528 reversed $173 $-1 #
coedge $-1 $284 $283 $282 $407 reversed $109 $-1 #
edge $-1 $529 -7.7568692464051816 $418 -2.8069350737907977 $282 $530 forward 7 unknown #
coedge $-1 $527 $531 $284 $409 forward $402 $-1 #
edge $-1 $411 -53.214514603106785 $529 53.214514603106785 $408 $532 forward 7 unknown #
coedge $-1 $291 $285 $531 $533 reversed $292 $-1 #
vertex $-1 $286 $534 #
straight-curve $-1 53.214514603106785 -17.947955871458632 5.2819021600979896 0 0 1 I I #
edge $-1 $418 5.219554296595442 $416 20.237248853130936 $404 $535 forward 7 unknown #
coedge $-1 $536 $288 $291 $420 reversed $280 $-1 #
coedge $-1 $288 $536 $526 $537 forward $280 $-1 #
vertex $-1 $289 $538 #
straight-curve $-1 0 -32.965650427994127 8.0888372338887873 1 0 0 I I #
vertex $-1 $413 $539 #
straight-curve $-1 0 -17.947955871458632 8.0888372338887873 1 0 0 I I #
edge $-1 $540 -13.038771406503175 $293 -8.0888372338887873 $291 $541 forward 7 unknown #
point $-1 53.214514603106785 -32.965650427994127 8.0888372338887873 #
point $-1 53.214514603106785 -17.947955871458632 8.0888372338887873 #
loop $-1 $-1 $304 $296 #
plane-surface $-1 -53.214514603106785 0 0 1 0 0 0 0 -1 forward_v I I I I #
coedge $-1 $426 $299 $301 $430 reversed $181 $-1 #
coedge $-1 $299 $425 $542 $543 reversed $181 $-1 #
coedge $-1 $307 $302 $299 $428 forward $297 $-1 #
edge $-1 $431 -18.125976528879647 $544 -6.154869678587481 $427 $545 forward 7 unknown #
coedge $-1 $301 $300 $434 $546 reversed $113 $-1 #
edge $-1 $547 2.7186986990266253e-014 $431 15.191552763889366 $425 $548 forward 7 unknown #
vertex $-1 $303 $549 #
straight-curve $-1 -41.243407752814612 -1.0463928094810875 13.038771406503175 0 1 0 I I #
coedge $-1 $542 $304 $307 $438 reversed $423 $-1 #
coedge $-1 $304 $542 $429 $546 forward $423 $-1 #
vertex $-1 $305 $550 #
straight-curve $-1 -53.214514603106785 -5.4519266558113131 43.77656818527128 0 0 1 I I #
straight-curve $-1 -53.214514603106807 -5.4519266558113131 3.6859175021100299 -0.78801074757464917 0 -0.61566148304635926 I I #
edge $-1 $544 -1.2663554178869632 $308 5.4519266558113131 $433 $551 forward 7 unknown #
point $-1 -53.214514603106785 -5.4519266558113131 13.038771406503175 #
point $-1 -41.243407752814619 -5.4519266558113131 13.038771406503175 #
edge $-1 $552 1 $552 0 $311 $-1 forward 7 unknown #
vertex $-1 $312 $553 #
ellipse-curve $-1 -46.613299694914339 -4.1082702410716578 7.5743337067319585 -0.61566148304635926 0 0.78801074757464917 0.39400537378732459 0 0.30783074152317963 1 I I #
point $-1 -46.834955804173376 -4.1082702410716578 8.6701751958297866 #
edge $-1 $554 1 $554 0 $315 $-1 forward 7 unknown #
vertex $-1 $316 $555 #
ellipse-curve $-1 -46.613299694914339 -2.092785618962175 7.5743337067319585 -0.61566148304635926 0 0.78801074757464917 0.39400537378732459 0 0.30783074152317963 1 I I #
point $-1 -46.834955804173376 -2.092785618962175 8.6701751958297866 #
edge $-1 $556 1 $556 0 $319 $-1 forward 7 unknown #
vertex $-1 $320 $557 #
ellipse-curve $-1 -46.613299694914339 -0.077300996852692094 7.5743337067319585 -0.61566148304635926 0 0.78801074757464917 0.39400537378732459 0 0.30783074152317963 1 I I #
point $-1 -46.834955804173376 -0.077300996852692094 8.6701751958297866 #
loop $-1 $-1 $331 $323 #
plane-surface $-1 -53.214514603106785 0 0 1 0 0 0 0 -1 forward_v I I I I #
coedge $-1 $456 $326 $328 $460 reversed $210 $-1 #
coedge $-1 $326 $455 $558 $559 reversed $210 $-1 #
coedge $-1 $334 $329 $326 $458 forward $324 $-1 #
edge $-1 $461 -18.125976528879647 $560 -6.154869678587481 $457 $561 forward 7 unknown #
coedge $-1 $328 $327 $464 $562 reversed $132 $-1 #
edge $-1 $563 2.7186986990266253e-014 $461 15.191552763889366 $455 $564 forward 7 unknown #
vertex $-1 $330 $565 #
straight-curve $-1 -41.243407752814612 11.682008765382104 13.038771406503175 0 1 0 I I #
coedge $-1 $558 $331 $334 $468 reversed $453 $-1 #
coedge $-1 $331 $558 $459 $562 forward $453 $-1 #
vertex $-1 $332 $566 #
straight-curve $-1 -53.214514603106785 20.00487649391507 43.77656818527128 0 0 1 I I #
straight-curve $-1 -53.214514603106807 20.00487649391507 3.6859175021100299 -0.78801074757464917 0 -0.61566148304635926 I I #
edge $-1 $560 -26.723158567613346 $335 -20.00487649391507 $463 $567 forward 7 unknown #
point $-1 -53.214514603106785 20.00487649391507 13.038771406503175 #
point $-1 -41.243407752814619 20.00487649391507 13.038771406503175 #
edge $-1 $568 1 $568 0 $338 $-1 forward 7 unknown #
vertex $-1 $339 $569 #
ellipse-curve $-1 -46.613299694914339 21.348532908654725 7.5743337067319585 -0.61566148304635926 0 0.78801074757464917 0.39400537378732459 0 0.30783074152317963 1 I I #
point $-1 -46.834955804173376 21.348532908654725 8.6701751958297866 #
edge $-1 $570 1 $570 0 $342 $-1 forward 7 unknown #
vertex $-1 $343 $571 #
ellipse-curve $-1 -46.613299694914339 23.364017530764208 7.5743337067319585 -0.61566148304635926 0 0.78801074757464917 0.39400537378732459 0 0.30783074152317963 1 I I #
point $-1 -46.834955804173376 23.364017530764208 8.6701751958297866 #
edge $-1 $572 1 $572 0 $346 $-1 forward 7 unknown #
vertex $-1 $347 $573 #
ellipse-curve $-1 -46.613299694914339 25.379502152873691 7.5743337067319585 -0.61566148304635926 0 0.78801074757464917 0.39400537378732459 0 0.30783074152317963 1 I I #
point $-1 -46.834955804173376 25.379502152873691 8.6701751958297866 #
plane-surface $-1 0 0 13.038771406503175 0 0 1 1 0 0 forward_v I I I I #
coedge $-1 $494 $493 $486 $574 forward $351 $-1 #
coedge $-1 $486 $353 $355 $490 reversed $239 $-1 #
coedge $-1 $353 $485 $484 $574 reversed $239 $-1 #
coedge $-1 $361 $356 $353 $488 forward $362 $-1 #
edge $-1 $491 6.3915225510804703 $575 8.4010155086760321 $487 $576 forward 7 unknown #
coedge $-1 $355 $354 $494 $577 reversed $151 $-1 #
edge $-1 $578 -106.42902920621357 $491 -102.52738948992337 $485 $579 forward 7 unknown #
vertex $-1 $357 $580 #
straight-curve $-1 51.205021645511223 9.9679484707022219 13.038771406503173 0 -1 0 I I #
coedge $-1 $484 $358 $361 $498 reversed $351 $-1 #
coedge $-1 $358 $484 $489 $577 forward $351 $-1 #
vertex $-1 $359 $581 #
straight-curve $-1 53.214514603106785 27.318917423779933 77.868449418022479 0 0 1 I I #
straight-curve $-1 -1.6004863260335043 27.318917423779933 100.92189790690466 0.51503806187062418 0 -0.85716730853699208 I I #
edge $-1 $575 12.552876459028955 $363 27.318917423779933 $493 $582 forward 7 unknown #
point $-1 53.214514603106785 27.318917423779933 13.038771406503175 #
point $-1 51.205021645511223 27.318917423779933 13.038771406503173 #
edge $-1 $583 1 $583 0 $366 $-1 forward 7 unknown #
vertex $-1 $367 $584 #
ellipse-curve $-1 51.041878647407408 16.771745306100662 10.664853629389972 0.85716730853699208 0 0.51503806187062418 0.25751903093531209 0 -0.42858365426849604 1 I I #
point $-1 52.4672871552443 16.771745306100662 10.938008744987926 #
edge $-1 $585 1 $585 0 $370 $-1 forward 7 unknown #
vertex $-1 $371 $586 #
ellipse-curve $-1 51.041878647407408 23.100048576708225 10.664853629389972 0.85716730853699208 0 0.51503806187062418 0.25751903093531209 0 -0.42858365426849604 1 I I #
point $-1 52.4672871552443 23.100048576708225 10.938008744987926 #
plane-surface $-1 53.214514603106785 0 0 -1 0 0 0 0 1 forward_v I I I I #
coedge $-1 $379 $377 $381 $514 reversed $261 $-1 #
edge $-1 $392 -13.038771406503175 $516 13.038771406503175 $391 $587 forward 7 unknown #
vertex $-1 $514 $588 #
straight-curve $-1 -53.214514603106785 -32.965650427994127 0 0 0 -1 I I #
edge $-1 $512 -32.965650427994127 $516 32.965650427994127 $510 $589 forward 7 unknown #
straight-curve $-1 0 -32.965650427994127 -13.038771406503175 -1 0 0 I I #
vertex $-1 $384 $590 #
straight-curve $-1 0 32.965650427994127 -13.038771406503175 1 0 0 I I #
point $-1 53.214514603106785 32.965650427994127 -13.038771406503175 #
point $-1 53.214514603106785 -32.965650427994127 -13.038771406503175 #
straight-curve $-1 -53.214514603106785 0 13.038771406503175 0 -1 0 I I #
point $-1 -53.214514603106785 32.965650427994127 13.038771406503175 #
point $-1 -53.214514603106785 -32.965650427994127 13.038771406503175 #
straight-curve $-1 53.214514603106785 -32.965650427994127 0 0 0 -1 I I #
straight-curve $-1 53.214514603106785 32.965650427994127 0 0 0 -1 I I #
plane-surface $-1 53.214514603106785 0 0 -1 0 0 0 0 1 forward_v I I I I #
coedge $-1 $405 $404 $415 $537 reversed $173 $-1 #
coedge $-1 $591 $408 $405 $528 forward $402 $-1 #
edge $-1 $529 17.947955871458632 $592 32.965650427994127 $405 $593 forward 7 unknown #
vertex $-1 $528 $594 #
straight-curve $-1 -53.214514603106785 -17.947955871458632 5.2819021600979896 0 0 -1 I I #
coedge $-1 $408 $591 $410 $533 forward $402 $-1 #
straight-curve $-1 0 -17.947955871458632 13.038771406503175 -1 0 0 I I #
edge $-1 $540 -32.965650427994127 $411 -17.947955871458632 $410 $595 forward 7 unknown #
point $-1 53.214514603106785 -17.947955871458632 13.038771406503171 #
straight-curve $-1 -53.214514603106785 -12.72840157486319 8.0888372338887873 0 -1 0 I I #
coedge $-1 $415 $414 $591 $596 reversed $280 $-1 #
edge $-1 $592 -13.038771406503175 $416 -8.0888372338887873 $526 $597 forward 7 unknown #
point $-1 -53.214514603106785 -32.965650427994127 8.0888372338887873 #
point $-1 -53.214514603106785 -17.947955871458632 8.0888372338887873 #
vertex $-1 $533 $598 #
straight-curve $-1 53.214514603106785 -32.965650427994127 0 0 0 -1 I I #
coedge $-1 $434 $433 $426 $543 forward $423 $-1 #
edge $-1 $544 30.737796778768107 $547 40.090650683161236 $542 $599 forward 7 unknown #
vertex $-1 $438 $600 #
straight-curve $-1 -59.369384281694266 1.2663554178869632 13.038771406503173 -1 0 0 I I #
edge $-1 $547 -2.3127482273680506 $435 4.4055338463302256 $434 $601 forward 7 unknown #
vertex $-1 $546 $602 #
straight-curve $-1 -53.214514603106807 1.2663554178869632 3.6859175021100299 0.78801074757464917 0 0.61566148304635926 I I #
point $-1 -41.243407752814619 1.2663554178869632 13.038771406503175 #
point $-1 -53.214514603106785 -5.4519266558113131 3.6859175021100468 #
straight-curve $-1 -53.214514603106785 0 13.038771406503175 0 -1 0 I I #
vertex $-1 $441 $603 #
point $-1 -46.219294321127016 -4.1082702410716578 7.8821644482551383 #
vertex $-1 $445 $604 #
point $-1 -46.219294321127016 -2.092785618962175 7.8821644482551383 #
vertex $-1 $449 $605 #
point $-1 -46.219294321127016 -0.077300996852692094 7.8821644482551383 #
coedge $-1 $464 $463 $456 $559 forward $453 $-1 #
edge $-1 $560 30.737796778768107 $563 40.090650683161236 $558 $606 forward 7 unknown #
vertex $-1 $468 $607 #
straight-curve $-1 -59.369384281694266 26.723158567613346 13.038771406503173 -1 0 0 I I #
edge $-1 $563 -15.041149802231242 $465 -8.322867728532966 $464 $608 forward 7 unknown #
vertex $-1 $562 $609 #
straight-curve $-1 -53.214514603106807 26.723158567613346 3.6859175021100299 0.78801074757464917 0 0.61566148304635926 I I #
point $-1 -41.243407752814619 26.723158567613346 13.038771406503175 #
point $-1 -53.214514603106785 20.00487649391507 3.6859175021100468 #
straight-curve $-1 -53.214514603106785 0 13.038771406503175 0 -1 0 I I #
vertex $-1 $471 $610 #
point $-1 -46.219294321127016 21.348532908654725 7.8821644482551383 #
vertex $-1 $475 $611 #
point $-1 -46.219294321127016 23.364017530764208 7.8821644482551383 #
vertex $-1 $479 $612 #
point $-1 -46.219294321127016 25.379502152873691 7.8821644482551383 #
edge $-1 $575 64.829678011519306 $578 68.174036026012814 $484 $613 forward 7 unknown #
vertex $-1 $498 $614 #
straight-curve $-1 44.813499094430753 12.552876459028955 13.038771406503173 1 0 0 I I #
edge $-1 $578 2.5849279883267329 $495 17.350968953077711 $494 $615 forward 7 unknown #
vertex $-1 $577 $616 #
straight-curve $-1 -1.6004863260335043 12.552876459028955 100.92189790690466 -0.51503806187062418 0 0.85716730853699208 I I #
point $-1 51.205021645511223 12.552876459028955 13.038771406503173 #
point $-1 53.214514603106785 27.318917423779933 9.6944133920096647 #
straight-curve $-1 53.214514603106785 0 13.038771406503175 0 1 0 I I #
vertex $-1 $501 $617 #
point $-1 51.299397678342721 16.771745306100662 10.236269975121475 #
vertex $-1 $505 $618 #
point $-1 51.299397678342721 23.100048576708225 10.236269975121475 #
straight-curve $-1 -53.214514603106785 32.965650427994127 0 0 0 -1 I I #
point $-1 -53.214514603106785 -32.965650427994127 -13.038771406503175 #
straight-curve $-1 -53.214514603106785 0 -13.038771406503175 0 1 0 I I #
point $-1 -53.214514603106785 32.965650427994127 -13.038771406503175 #
coedge $-1 $531 $527 $536 $596 forward $402 $-1 #
vertex $-1 $528 $619 #
straight-curve $-1 -53.214514603106785 0 13.038771406503175 0 -1 0 I I #
point $-1 -53.214514603106785 -17.947955871458632 13.038771406503171 #
straight-curve $-1 53.214514603106785 0 13.038771406503175 0 1 0 I I #
edge $-1 $592 -53.214514603106785 $540 53.214514603106785 $536 $620 forward 7 unknown #
straight-curve $-1 -53.214514603106785 -32.965650427994127 0 0 0 -1 I I #
point $-1 53.214514603106785 -32.965650427994127 13.038771406503175 #
straight-curve $-1 -53.214514603106785 1.2663554178869632 43.77656818527128 0 0 -1 I I #
point $-1 -53.214514603106785 1.2663554178869632 13.038771406503175 #
straight-curve $-1 -53.214514603106785 -1.0463928094810875 3.6859175021100437 0 -1 0 I I #
point $-1 -53.214514603106785 1.2663554178869632 3.6859175021100468 #
point $-1 -46.305468953391163 -4.1082702410716578 7.1803283329446339 #
point $-1 -46.305468953391163 -2.092785618962175 7.1803283329446339 #
point $-1 -46.305468953391163 -0.077300996852692094 7.1803283329446339 #
straight-curve $-1 -53.214514603106785 26.723158567613346 43.77656818527128 0 0 -1 I I #
point $-1 -53.214514603106785 26.723158567613346 13.038771406503175 #
straight-curve $-1 -53.214514603106785 11.682008765382104 3.6859175021100437 0 -1 0 I I #
point $-1 -53.214514603106785 26.723158567613346 3.6859175021100468 #
point $-1 -46.305468953391163 21.348532908654725 7.1803283329446339 #
point $-1 -46.305468953391163 23.364017530764208 7.1803283329446339 #
point $-1 -46.305468953391163 25.379502152873691 7.1803283329446339 #
straight-curve $-1 53.214514603106785 12.552876459028955 77.868449418022479 0 0 -1 I I #
point $-1 53.214514603106785 12.552876459028955 13.038771406503175 #
straight-curve $-1 53.214514603106785 9.9679484707022219 9.6944133920096576 0 1 0 I I #
point $-1 53.214514603106785 12.552876459028955 9.6944133920096647 #
point $-1 50.613294993138915 16.771745306100662 10.407334598454659 #
point $-1 50.613294993138915 23.100048576708225 10.407334598454659 #
point $-1 -53.214514603106785 -32.965650427994127 13.038771406503175 #
straight-curve $-1 0 -32.965650427994127 13.038771406503175 1 0 0 I I #
End-of-ACIS-data 