500 0 7 0           
7 Unknown 11 ACIS 5.0 NT 24 Thu Mar 25 15:45:01 1999 
-1 9.9999999999999995e-007 1e-010 
body $-1 $7 $-1 $8 #
body $-1 $9 $-1 $10 #
body $-1 $11 $-1 $12 #
body $-1 $13 $-1 $14 #
body $-1 $15 $-1 $16 #
body $-1 $17 $-1 $18 #
body $-1 $19 $-1 $20 #
lump $-1 $-1 $21 $0 #
transform $-1 1 0 0 0 1 0 0 0 1 48.497573778496658 33.474086042706674 10.347065049701056 1 rotate no_reflect no_shear #
lump $-1 $-1 $22 $1 #
transform $-1 1 0 0 0 1 0 0 0 1 48.497573778496658 33.474086042706674 10.347065049701056 1 rotate no_reflect no_shear #
lump $-1 $-1 $23 $2 #
transform $-1 1 0 0 0 1 0 0 0 1 48.497573778496658 33.474086042706674 10.347065049701056 1 rotate no_reflect no_shear #
lump $-1 $-1 $24 $3 #
transform $-1 1 0 0 0 1 0 0 0 1 48.497573778496658 33.474086042706674 10.347065049701056 1 rotate no_reflect no_shear #
lump $-1 $-1 $25 $4 #
transform $-1 1 0 0 0 1 0 0 0 1 48.497573778496658 33.474086042706674 10.347065049701056 1 rotate no_reflect no_shear #
lump $-1 $-1 $26 $5 #
transform $-1 1 0 0 0 1 0 0 0 1 48.497573778496658 33.474086042706674 10.347065049701056 1 rotate no_reflect no_shear #
lump $-1 $-1 $27 $6 #
transform $-1 1 0 0 0 1 0 0 0 1 48.497573778496658 33.474086042706674 10.347065049701056 1 rotate no_reflect no_shear #
shell $-1 $-1 $-1 $28 $-1 $7 #
shell $-1 $-1 $-1 $29 $-1 $9 #
shell $-1 $-1 $-1 $30 $-1 $11 #
shell $-1 $-1 $-1 $31 $-1 $13 #
shell $-1 $-1 $-1 $32 $-1 $15 #
shell $-1 $-1 $-1 $33 $-1 $17 #
shell $-1 $-1 $-1 $34 $-1 $19 #
face $-1 $35 $36 $21 $-1 $37 forward single #
face $-1 $38 $39 $22 $-1 $40 reversed single #
face $-1 $41 $42 $23 $-1 $43 reversed single #
face $-1 $44 $45 $24 $-1 $46 reversed single #
face $-1 $47 $48 $25 $-1 $49 forward single #
face $-1 $50 $51 $26 $-1 $52 forward single #
face $-1 $53 $54 $27 $-1 $55 forward single #
face $-1 $56 $57 $21 $-1 $58 reversed single #
loop $-1 $-1 $59 $28 #
plane-surface $-1 0 0 10.347065049701056 0 0 1 1 0 0 forward_v I I I I #
face $-1 $60 $61 $22 $-1 $62 reversed single #
loop $-1 $-1 $63 $29 #
plane-surface $-1 -46.997573778496658 -21.335706473863183 0 0 -1 0 0 0 -1 forward_v I I I I #
face $-1 $64 $65 $23 $-1 $66 reversed single #
loop $-1 $-1 $67 $30 #
plane-surface $-1 -46.425160887030152 20.847812057966355 0 0 1 0 0 0 1 forward_v I I I I #
face $-1 $68 $69 $24 $-1 $70 reversed single #
loop $-1 $-1 $71 $31 #
plane-surface $-1 -48.497573778496658 -17.248296351916572 1.1713329819525313 -0.68199836817093118 0 0.7313536940579346 0.7313536940579346 0 0.68199836817093118 forward_v I I I I #
face $-1 $72 $73 $25 $-1 $74 forward single #
loop $-1 $75 $76 $32 #
cone-surface $-1 -43.236690723258135 -19.700742425084535 5.3935221687978219 0.68199836817093118 0 -0.7313536940579346 0.18283842351448365 0 0.17049959204273279 1 I I 0 1 0.25 forward I I I I #
face $-1 $77 $78 $26 $-1 $79 forward single #
loop $-1 $80 $81 $33 #
cone-surface $-1 -43.236690723258135 -17.248296351916572 5.3935221687978219 0.68199836817093118 0 -0.7313536940579346 0.18283842351448365 0 0.17049959204273279 1 I I 0 1 0.25 forward I I I I #
face $-1 $82 $83 $27 $-1 $84 forward single #
loop $-1 $85 $86 $34 #
cone-surface $-1 -43.236690723258135 -14.795850278748606 5.3935221687978219 0.68199836817093118 0 -0.7313536940579346 0.18283842351448365 0 0.17049959204273279 1 I I 0 1 0.25 forward I I I I #
face $-1 $87 $88 $21 $-1 $89 reversed single #
loop $-1 $-1 $90 $35 #
plane-surface $-1 0 0 -10.347065049701056 0 0 1 1 0 0 forward_v I I I I #
coedge $-1 $91 $92 $93 $94 forward $36 $-1 #
face $-1 $95 $96 $22 $-1 $97 forward single #
loop $-1 $-1 $98 $38 #
plane-surface $-1 -45.497573778496658 -27.404896258284928 0 -1 0 0 0 0 1 forward_v I I I I #
coedge $-1 $99 $100 $101 $102 forward $39 $-1 #
face $-1 $103 $104 $23 $-1 $105 reversed single #
loop $-1 $-1 $106 $41 #
plane-surface $-1 -44.352747995563647 27.160949050336512 0 -1 0 0 0 0 1 forward_v I I I I #
coedge $-1 $107 $108 $109 $110 reversed $42 $-1 #
face $-1 $111 $112 $24 $-1 $113 forward single #
loop $-1 $-1 $114 $44 #
plane-surface $-1 -114.64810613286478 -13.160886229969963 72.109092453454039 0 -1 0 0.68199836817093118 0 -0.7313536940579346 forward_v I I I I #
coedge $-1 $115 $116 $117 $118 reversed $45 $-1 #
face $-1 $-1 $119 $25 $-1 $120 forward single #
loop $-1 $121 $122 $47 #
cone-surface $-1 -42.810441743151301 -19.700742425084535 4.9364261100116131 0.68199836817093118 0 -0.7313536940579346 0.091419211757241825 0 0.085249796021366397 1 I I -0.70710678118654746 0.70710678118654746 0.125 forward I I I I #
loop $-1 $-1 $123 $32 #
coedge $-1 $76 $76 $124 $125 reversed $48 $-1 #
face $-1 $-1 $126 $26 $-1 $127 forward single #
loop $-1 $128 $129 $50 #
cone-surface $-1 -42.810441743151301 -17.248296351916572 4.9364261100116131 0.68199836817093118 0 -0.7313536940579346 0.091419211757241825 0 0.085249796021366397 1 I I -0.70710678118654746 0.70710678118654746 0.125 forward I I I I #
loop $-1 $-1 $130 $33 #
coedge $-1 $81 $81 $131 $132 reversed $51 $-1 #
face $-1 $-1 $133 $27 $-1 $134 forward single #
loop $-1 $135 $136 $53 #
cone-surface $-1 -42.810441743151301 -14.795850278748606 4.9364261100116131 0.68199836817093118 0 -0.7313536940579346 0.091419211757241825 0 0.085249796021366397 1 I I -0.70710678118654746 0.70710678118654746 0.125 forward I I I I #
loop $-1 $-1 $137 $34 #
coedge $-1 $86 $86 $138 $139 reversed $54 $-1 #
face $-1 $140 $141 $21 $-1 $142 reversed single #
loop $-1 $-1 $143 $56 #
plane-surface $-1 0 -33.474086042706674 0 0 1 0 0 0 1 forward_v I I I I #
coedge $-1 $144 $145 $146 $147 forward $57 $-1 #
coedge $-1 $148 $59 $149 $150 forward $36 $-1 #
coedge $-1 $59 $148 $151 $152 forward $36 $-1 #
coedge $-1 $153 $154 $59 $94 reversed $155 $-1 #
edge $-1 $156 -33.474086042706674 $157 33.474086042706674 $93 $158 forward 7 unknown #
face $-1 $159 $160 $22 $-1 $161 reversed single #
loop $-1 $-1 $162 $60 #
plane-surface $-1 0 0 10.347065049701056 0 0 1 1 0 0 forward_v I I I I #
coedge $-1 $163 $164 $165 $166 reversed $61 $-1 #
coedge $-1 $167 $63 $168 $169 reversed $39 $-1 #
coedge $-1 $63 $167 $170 $171 reversed $39 $-1 #
coedge $-1 $164 $163 $63 $102 reversed $61 $-1 #
edge $-1 $172 -10.347065049701056 $173 10.347065049701056 $101 $174 forward 7 unknown #
face $-1 $175 $176 $23 $-1 $177 reversed single #
loop $-1 $-1 $178 $64 #
plane-surface $-1 0 0 -10.347065049701056 0 0 1 1 0 0 forward_v I I I I #
coedge $-1 $179 $180 $181 $182 forward $65 $-1 #
coedge $-1 $181 $67 $183 $184 reversed $42 $-1 #
coedge $-1 $67 $181 $185 $186 reversed $42 $-1 #
coedge $-1 $187 $188 $67 $110 forward $176 $-1 #
edge $-1 $189 -10.347065049701056 $190 10.347065049701056 $109 $191 forward 7 unknown #
face $-1 $192 $193 $24 $-1 $194 reversed single #
loop $-1 $-1 $195 $68 #
plane-surface $-1 0 0 10.347065049701056 0 0 1 1 0 0 forward_v I I I I #
coedge $-1 $196 $197 $198 $199 reversed $69 $-1 #
coedge $-1 $200 $71 $201 $202 reversed $45 $-1 #
coedge $-1 $71 $200 $196 $203 forward $45 $-1 #
coedge $-1 $198 $195 $71 $118 forward $112 $-1 #
edge $-1 $204 -12.711558297904897 $205 -4.5367380540116766 $117 $206 forward 7 unknown #
loop $-1 $-1 $124 $72 #
plane-surface $-1 -48.497573778496658 -17.248296351916572 1.1713329819525313 -0.68199836817093118 0 0.7313536940579346 0.7313536940579346 0 0.68199836817093118 forward_v I I I I #
loop $-1 $-1 $207 $47 #
coedge $-1 $122 $122 $123 $208 reversed $73 $-1 #
coedge $-1 $123 $123 $122 $208 forward $75 $-1 #
coedge $-1 $124 $124 $76 $125 forward $119 $-1 #
edge $-1 $209 0 $209 6.2831853071796004 $124 $210 forward 7 unknown #
loop $-1 $-1 $131 $77 #
plane-surface $-1 -48.497573778496658 -17.248296351916572 1.1713329819525313 -0.68199836817093118 0 0.7313536940579346 0.7313536940579346 0 0.68199836817093118 forward_v I I I I #
loop $-1 $-1 $211 $50 #
coedge $-1 $129 $129 $130 $212 reversed $78 $-1 #
coedge $-1 $130 $130 $129 $212 forward $80 $-1 #
coedge $-1 $131 $131 $81 $132 forward $126 $-1 #
edge $-1 $213 0 $213 6.2831853071796004 $131 $214 forward 7 unknown #
loop $-1 $-1 $138 $82 #
plane-surface $-1 -48.497573778496658 -17.248296351916572 1.1713329819525313 -0.68199836817093118 0 0.7313536940579346 0.7313536940579346 0 0.68199836817093118 forward_v I I I I #
loop $-1 $-1 $215 $53 #
coedge $-1 $136 $136 $137 $216 reversed $83 $-1 #
coedge $-1 $137 $137 $136 $216 forward $85 $-1 #
coedge $-1 $138 $138 $86 $139 forward $133 $-1 #
edge $-1 $217 0 $217 6.2831853071796004 $138 $218 forward 7 unknown #
face $-1 $219 $220 $21 $-1 $221 reversed single #
loop $-1 $-1 $222 $87 #
plane-surface $-1 -48.497573778496658 0 0 1 0 0 0 0 -1 forward_v I I I I #
coedge $-1 $223 $151 $224 $225 forward $88 $-1 #
coedge $-1 $226 $90 $223 $227 forward $57 $-1 #
coedge $-1 $90 $226 $228 $229 forward $57 $-1 #
coedge $-1 $154 $153 $90 $147 reversed $155 $-1 #
edge $-1 $230 -33.474086042706674 $231 33.474086042706674 $146 $232 forward 7 unknown #
coedge $-1 $92 $91 $233 $234 forward $36 $-1 #
coedge $-1 $235 $236 $91 $150 reversed $220 $-1 #
edge $-1 $157 -48.497573778496658 $237 48.497573778496658 $149 $238 forward 7 unknown #
coedge $-1 $143 $239 $92 $152 reversed $88 $-1 #
edge $-1 $240 -48.497573778496658 $156 48.497573778496658 $151 $241 forward 7 unknown #
coedge $-1 $146 $93 $239 $242 forward $155 $-1 #
coedge $-1 $93 $146 $235 $243 reversed $155 $-1 #
loop $-1 $-1 $153 $219 #
vertex $-1 $94 $244 #
vertex $-1 $94 $245 #
straight-curve $-1 48.497573778496658 0 10.347065049701056 0 1 0 I I #
face $-1 $246 $247 $22 $-1 $248 reversed single #
loop $-1 $-1 $249 $95 #
plane-surface $-1 -48.497573778496658 0 0 1 0 0 0 0 -1 forward_v I I I I #
coedge $-1 $170 $250 $164 $251 forward $96 $-1 #
coedge $-1 $101 $98 $252 $253 reversed $61 $-1 #
coedge $-1 $98 $101 $162 $251 reversed $61 $-1 #
coedge $-1 $254 $255 $98 $166 forward $256 $-1 #
edge $-1 $257 -10.347065049701056 $258 10.347065049701056 $165 $259 forward 7 unknown #
coedge $-1 $100 $99 $249 $260 reversed $39 $-1 #
coedge $-1 $252 $261 $99 $169 forward $247 $-1 #
edge $-1 $262 -24.998786889248329 $173 -21.998786889248329 $168 $263 forward 7 unknown #
coedge $-1 $264 $162 $100 $171 forward $96 $-1 #
edge $-1 $172 21.998786889248329 $265 24.998786889248329 $170 $266 forward 7 unknown #
vertex $-1 $171 $267 #
vertex $-1 $169 $268 #
straight-curve $-1 -45.497573778496658 -21.335706473863183 0 0 0 -1 I I #
face $-1 $269 $270 $23 $-1 $271 forward single #
loop $-1 $-1 $109 $103 #
plane-surface $-1 -48.497573778496658 0 0 1 0 0 0 0 -1 forward_v I I I I #
coedge $-1 $183 $272 $179 $273 forward $104 $-1 #
coedge $-1 $274 $106 $178 $273 reversed $65 $-1 #
coedge $-1 $106 $274 $275 $276 reversed $65 $-1 #
coedge $-1 $108 $107 $106 $182 reversed $42 $-1 #
edge $-1 $277 -10.347065049701056 $278 10.347065049701056 $106 $279 forward 7 unknown #
coedge $-1 $280 $178 $107 $184 forward $104 $-1 #
edge $-1 $278 21.14016755204857 $189 25.284993334981582 $183 $281 forward 7 unknown #
coedge $-1 $275 $282 $108 $186 forward $270 $-1 #
edge $-1 $190 -25.284993334981582 $277 -21.14016755204857 $185 $283 forward 7 unknown #
coedge $-1 $284 $109 $282 $285 reversed $176 $-1 #
coedge $-1 $109 $284 $280 $286 reversed $176 $-1 #
vertex $-1 $286 $287 #
vertex $-1 $110 $288 #
straight-curve $-1 -48.497573778496658 20.847812057966355 0 0 0 1 I I #
face $-1 $-1 $289 $24 $-1 $290 forward single #
loop $-1 $-1 $291 $111 #
plane-surface $-1 -48.497573778496658 0 0 1 0 0 0 0 -1 forward_v I I I I #
coedge $-1 $117 $292 $293 $294 forward $112 $-1 #
coedge $-1 $197 $114 $116 $203 reversed $69 $-1 #
coedge $-1 $114 $196 $295 $296 reversed $69 $-1 #
coedge $-1 $292 $117 $114 $199 forward $112 $-1 #
edge $-1 $205 -18.666247030241841 $297 -8.826479287935733 $198 $298 forward 7 unknown #
coedge $-1 $116 $115 $291 $299 reversed $45 $-1 #
coedge $-1 $293 $300 $115 $202 forward $289 $-1 #
edge $-1 $301 -0.14909167940524379 $204 13.30509310458061 $201 $302 forward 7 unknown #
edge $-1 $303 0 $205 13.454184783985854 $196 $304 forward 7 unknown #
vertex $-1 $294 $305 #
vertex $-1 $118 $306 #
straight-curve $-1 -38.65780603619055 -8.6241481759582861 10.347065049701056 0 1 0 I I #
coedge $-1 $207 $207 $-1 $307 reversed $121 $-1 #
edge $-1 $308 0 $308 6.2831853071796004 $122 $309 forward 7 unknown #
vertex $-1 $125 $310 #
ellipse-curve $-1 -43.577689907343604 -19.700742425084535 5.7591990158267929 -0.68199836817093118 0 0.7313536940579346 0.18283842351448365 0 0.17049959204273279 1 I I #
coedge $-1 $211 $211 $-1 $311 reversed $128 $-1 #
edge $-1 $312 0 $312 6.2831853071796004 $129 $313 forward 7 unknown #
vertex $-1 $132 $314 #
ellipse-curve $-1 -43.577689907343604 -17.248296351916572 5.7591990158267929 -0.68199836817093118 0 0.7313536940579346 0.18283842351448365 0 0.17049959204273279 1 I I #
coedge $-1 $215 $215 $-1 $315 reversed $135 $-1 #
edge $-1 $316 0 $316 6.2831853071796004 $136 $317 forward 7 unknown #
vertex $-1 $139 $318 #
ellipse-curve $-1 -43.577689907343604 -14.795850278748606 5.7591990158267929 -0.68199836817093118 0 0.7313536940579346 0.18283842351448365 0 0.17049959204273279 1 I I #
face $-1 $-1 $155 $21 $-1 $319 reversed single #
loop $-1 $-1 $235 $140 #
plane-surface $-1 0 33.474086042706674 0 0 -1 0 0 0 -1 forward_v I I I I #
coedge $-1 $320 $233 $236 $321 forward $141 $-1 #
coedge $-1 $239 $143 $144 $227 reversed $88 $-1 #
coedge $-1 $233 $320 $143 $225 reversed $141 $-1 #
edge $-1 $240 -10.347065049701056 $322 10.347065049701056 $224 $323 forward 7 unknown #
coedge $-1 $145 $144 $320 $324 forward $57 $-1 #
edge $-1 $231 -48.497573778496658 $322 48.497573778496658 $223 $325 forward 7 unknown #
coedge $-1 $236 $235 $145 $229 reversed $220 $-1 #
edge $-1 $326 -48.497573778496658 $230 48.497573778496658 $228 $327 forward 7 unknown #
vertex $-1 $147 $328 #
vertex $-1 $242 $329 #
straight-curve $-1 48.497573778496658 0 -10.347065049701056 0 -1 0 I I #
coedge $-1 $222 $224 $148 $234 reversed $141 $-1 #
edge $-1 $237 -33.474086042706674 $240 33.474086042706674 $233 $330 forward 7 unknown #
coedge $-1 $228 $149 $154 $243 forward $220 $-1 #
coedge $-1 $149 $228 $222 $321 reversed $220 $-1 #
vertex $-1 $150 $331 #
straight-curve $-1 0 33.474086042706674 10.347065049701056 -1 0 0 I I #
coedge $-1 $151 $223 $153 $242 reversed $88 $-1 #
vertex $-1 $234 $332 #
straight-curve $-1 0 -33.474086042706674 10.347065049701056 1 0 0 I I #
edge $-1 $156 -10.347065049701056 $231 10.347065049701056 $153 $333 forward 7 unknown #
edge $-1 $157 -10.347065049701056 $230 10.347065049701056 $154 $334 forward 7 unknown #
point $-1 48.497573778496658 -33.474086042706674 10.347065049701056 #
point $-1 48.497573778496658 33.474086042706674 10.347065049701056 #
face $-1 $-1 $256 $22 $-1 $335 reversed single #
loop $-1 $-1 $252 $159 #
plane-surface $-1 0 0 -10.347065049701056 0 0 1 1 0 0 forward_v I I I I #
coedge $-1 $336 $337 $167 $260 forward $160 $-1 #
coedge $-1 $162 $264 $254 $338 forward $96 $-1 #
edge $-1 $258 -19.771637913564209 $172 -7.6332583447207192 $162 $339 forward 7 unknown #
coedge $-1 $340 $168 $163 $253 forward $247 $-1 #
edge $-1 $173 7.6332583447207192 $257 19.771637913564209 $252 $341 forward 7 unknown #
coedge $-1 $342 $165 $250 $338 reversed $256 $-1 #
coedge $-1 $165 $342 $340 $343 reversed $256 $-1 #
loop $-1 $-1 $165 $246 #
vertex $-1 $343 $344 #
vertex $-1 $166 $345 #
straight-curve $-1 -45.497573778496658 -33.474086042706674 0 0 0 1 I I #
edge $-1 $265 -10.347065049701056 $262 10.347065049701056 $249 $346 forward 7 unknown #
coedge $-1 $168 $340 $336 $347 forward $247 $-1 #
vertex $-1 $169 $348 #
straight-curve $-1 -23.498786889248329 -21.335706473863183 -10.347065049701056 1 0 0 I I #
coedge $-1 $250 $170 $337 $349 forward $96 $-1 #
vertex $-1 $349 $350 #
straight-curve $-1 -23.498786889248329 -21.335706473863183 10.347065049701056 -1 0 0 I I #
point $-1 -45.497573778496658 -21.335706473863183 10.347065049701056 #
point $-1 -45.497573778496658 -21.335706473863183 -10.347065049701056 #
face $-1 $-1 $351 $23 $-1 $352 reversed single #
loop $-1 $-1 $275 $175 #
plane-surface $-1 0 0 10.347065049701056 0 0 1 1 0 0 forward_v I I I I #
coedge $-1 $178 $280 $353 $354 forward $104 $-1 #
edge $-1 $355 -19.893611517538417 $278 -7.2673375327980985 $178 $356 forward 7 unknown #
coedge $-1 $180 $179 $357 $358 reversed $65 $-1 #
coedge $-1 $359 $185 $180 $276 forward $270 $-1 #
edge $-1 $277 7.2673375327980985 $360 19.893611517538417 $275 $361 forward 7 unknown #
vertex $-1 $186 $362 #
vertex $-1 $184 $363 #
straight-curve $-1 -44.352747995563647 20.847812057966355 0 0 0 -1 I I #
coedge $-1 $272 $183 $188 $286 forward $104 $-1 #
straight-curve $-1 -23.212580443515076 20.847812057966355 -10.347065049701056 -1 0 0 I I #
coedge $-1 $185 $359 $187 $285 forward $270 $-1 #
straight-curve $-1 -23.212580443515076 20.847812057966355 10.347065049701056 1 0 0 I I #
coedge $-1 $188 $187 $364 $365 forward $176 $-1 #
edge $-1 $366 -33.474086042706674 $190 -20.847812057966355 $187 $367 forward 7 unknown #
edge $-1 $189 20.847812057966355 $368 33.474086042706674 $188 $369 forward 7 unknown #
point $-1 -48.497573778496658 20.847812057966355 -10.347065049701056 #
point $-1 -48.497573778496658 20.847812057966355 10.347065049701056 #
loop $-1 $-1 $201 $192 #
plane-surface $-1 -46.997573778496658 -21.335706473863183 0 0 -1 0 0 0 -1 forward_v I I I I #
coedge $-1 $370 $295 $200 $299 forward $193 $-1 #
coedge $-1 $195 $198 $371 $372 forward $112 $-1 #
coedge $-1 $300 $201 $195 $294 reversed $289 $-1 #
edge $-1 $373 -24.998786889248329 $204 -15.159019146942221 $195 $374 forward 7 unknown #
coedge $-1 $291 $371 $197 $296 forward $193 $-1 #
edge $-1 $297 25.707481177025961 $303 34.883213244774488 $295 $375 forward 7 unknown #
vertex $-1 $372 $376 #
straight-curve $-1 -57.324053066432391 -13.160886229969963 10.347065049701058 -1 0 0 I I #
edge $-1 $303 4.5367380540116766 $301 12.711558297904897 $291 $377 forward 7 unknown #
coedge $-1 $201 $293 $370 $378 reversed $289 $-1 #
vertex $-1 $378 $379 #
straight-curve $-1 -48.388535028010331 -21.335706473863183 1.2730132640147702 0.7313536940579346 0 0.68199836817093118 I I #
vertex $-1 $299 $380 #
straight-curve $-1 -48.497573778496658 -13.160886229969963 1.1713329819525313 0.7313536940579346 0 0.68199836817093118 I I #
point $-1 -38.65780603619055 -21.335706473863183 10.347065049701056 #
point $-1 -38.65780603619055 -13.160886229969963 10.347065049701056 #
edge $-1 $381 1 $381 0 $207 $-1 forward 7 unknown #
vertex $-1 $208 $382 #
ellipse-curve $-1 -42.895691539172667 -19.700742425084535 5.0278453217688552 -0.68199836817093118 0 0.7313536940579346 0.18283842351448365 0 0.17049959204273279 1 I I #
point $-1 -43.394851483829115 -19.700742425084535 5.929698607869522 #
edge $-1 $383 1 $383 0 $211 $-1 forward 7 unknown #
vertex $-1 $212 $384 #
ellipse-curve $-1 -42.895691539172667 -17.248296351916572 5.0278453217688552 -0.68199836817093118 0 0.7313536940579346 0.18283842351448365 0 0.17049959204273279 1 I I #
point $-1 -43.394851483829115 -17.248296351916572 5.929698607869522 #
edge $-1 $385 1 $385 0 $215 $-1 forward 7 unknown #
vertex $-1 $216 $386 #
ellipse-curve $-1 -42.895691539172667 -14.795850278748606 5.0278453217688552 -0.68199836817093118 0 0.7313536940579346 0.18283842351448365 0 0.17049959204273279 1 I I #
point $-1 -43.394851483829115 -14.795850278748606 5.929698607869522 #
plane-surface $-1 48.497573778496658 0 0 -1 0 0 0 0 1 forward_v I I I I #
coedge $-1 $224 $222 $226 $324 reversed $141 $-1 #
edge $-1 $237 -10.347065049701056 $326 10.347065049701056 $236 $387 forward 7 unknown #
vertex $-1 $324 $388 #
straight-curve $-1 -48.497573778496658 -33.474086042706674 0 0 0 -1 I I #
edge $-1 $322 -33.474086042706674 $326 33.474086042706674 $320 $389 forward 7 unknown #
straight-curve $-1 0 -33.474086042706674 -10.347065049701056 -1 0 0 I I #
vertex $-1 $229 $390 #
straight-curve $-1 0 33.474086042706674 -10.347065049701056 1 0 0 I I #
point $-1 48.497573778496658 33.474086042706674 -10.347065049701056 #
point $-1 48.497573778496658 -33.474086042706674 -10.347065049701056 #
straight-curve $-1 -48.497573778496658 0 10.347065049701056 0 -1 0 I I #
point $-1 -48.497573778496658 33.474086042706674 10.347065049701056 #
point $-1 -48.497573778496658 -33.474086042706674 10.347065049701056 #
straight-curve $-1 48.497573778496658 -33.474086042706674 0 0 0 -1 I I #
straight-curve $-1 48.497573778496658 33.474086042706674 0 0 0 -1 I I #
plane-surface $-1 0 -33.474086042706674 0 0 1 0 0 0 1 forward_v I I I I #
coedge $-1 $391 $249 $261 $347 reversed $160 $-1 #
coedge $-1 $249 $391 $264 $349 reversed $160 $-1 #
edge $-1 $392 -48.497573778496658 $258 -45.497573778496658 $254 $393 forward 7 unknown #
straight-curve $-1 -45.497573778496658 -13.702448129142464 10.347065049701056 0 1 0 I I #
coedge $-1 $261 $252 $255 $343 forward $247 $-1 #
straight-curve $-1 -45.497573778496658 -13.702448129142464 -10.347065049701056 0 -1 0 I I #
coedge $-1 $255 $254 $391 $394 forward $256 $-1 #
edge $-1 $257 45.497573778496658 $395 48.497573778496658 $255 $396 forward 7 unknown #
point $-1 -45.497573778496658 -33.474086042706674 -10.347065049701056 #
point $-1 -45.497573778496658 -33.474086042706674 10.347065049701056 #
straight-curve $-1 -48.497573778496658 -21.335706473863183 0 0 0 -1 I I #
edge $-1 $395 -33.474086042706674 $262 -21.335706473863183 $336 $397 forward 7 unknown #
point $-1 -48.497573778496658 -21.335706473863183 -10.347065049701056 #
edge $-1 $265 21.335706473863183 $392 33.474086042706674 $337 $398 forward 7 unknown #
point $-1 -48.497573778496658 -21.335706473863183 10.347065049701056 #
loop $-1 $-1 $357 $269 #
plane-surface $-1 0 33.474086042706674 0 0 -1 0 0 0 -1 forward_v I I I I #
coedge $-1 $364 $357 $272 $354 reversed $351 $-1 #
edge $-1 $368 -48.497573778496658 $355 -44.352747995563647 $353 $399 forward 7 unknown #
vertex $-1 $273 $400 #
straight-curve $-1 -44.352747995563647 13.580474525168256 -10.347065049701056 0 -1 0 I I #
coedge $-1 $353 $401 $274 $358 forward $351 $-1 #
edge $-1 $360 -10.347065049701056 $355 10.347065049701056 $357 $402 forward 7 unknown #
coedge $-1 $282 $275 $401 $403 forward $270 $-1 #
vertex $-1 $403 $404 #
straight-curve $-1 -44.352747995563647 13.580474525168256 10.347065049701056 0 1 0 I I #
point $-1 -44.352747995563647 20.847812057966355 10.347065049701056 #
point $-1 -44.352747995563647 20.847812057966355 -10.347065049701056 #
coedge $-1 $401 $353 $284 $365 reversed $351 $-1 #
edge $-1 $366 -10.347065049701056 $368 10.347065049701056 $364 $405 forward 7 unknown #
vertex $-1 $403 $406 #
straight-curve $-1 -48.497573778496658 0 10.347065049701056 0 -1 0 I I #
vertex $-1 $354 $407 #
straight-curve $-1 -48.497573778496658 0 -10.347065049701056 0 1 0 I I #
coedge $-1 $371 $291 $300 $378 forward $193 $-1 #
coedge $-1 $295 $370 $292 $372 reversed $193 $-1 #
edge $-1 $297 13.160886229969963 $373 21.335706473863183 $371 $408 forward 7 unknown #
vertex $-1 $378 $409 #
straight-curve $-1 -23.498786889248329 -21.335706473863183 10.347065049701056 1 0 0 I I #
straight-curve $-1 -48.497573778496658 -13.160886229969963 36.05454622672702 0 0 -1 I I #
point $-1 -48.497573778496658 -13.160886229969963 10.347065049701056 #
straight-curve $-1 -48.497573778496658 -8.6241481759582861 1.1713329819525304 0 -1 0 I I #
edge $-1 $301 1.1713329819525313 $373 10.347065049701056 $370 $410 forward 7 unknown #
point $-1 -48.497573778496658 -21.335706473863183 1.1713329819525313 #
point $-1 -48.497573778496658 -13.160886229969963 1.1713329819525313 #
vertex $-1 $307 $411 #
point $-1 -42.712853115658184 -19.700742425084535 5.1983449138115878 #
vertex $-1 $311 $412 #
point $-1 -42.712853115658184 -17.248296351916572 5.1983449138115878 #
vertex $-1 $315 $413 #
point $-1 -42.712853115658184 -14.795850278748606 5.1983449138115878 #
straight-curve $-1 -48.497573778496658 33.474086042706674 0 0 0 -1 I I #
point $-1 -48.497573778496658 -33.474086042706674 -10.347065049701056 #
straight-curve $-1 -48.497573778496658 0 -10.347065049701056 0 1 0 I I #
point $-1 -48.497573778496658 33.474086042706674 -10.347065049701056 #
coedge $-1 $337 $336 $342 $394 reversed $160 $-1 #
vertex $-1 $349 $414 #
straight-curve $-1 0 -33.474086042706674 10.347065049701056 1 0 0 I I #
edge $-1 $392 -10.347065049701056 $395 10.347065049701056 $391 $415 forward 7 unknown #
vertex $-1 $347 $416 #
straight-curve $-1 0 -33.474086042706674 -10.347065049701056 -1 0 0 I I #
straight-curve $-1 -48.497573778496658 0 -10.347065049701056 0 1 0 I I #
straight-curve $-1 -48.497573778496658 0 10.347065049701056 0 -1 0 I I #
straight-curve $-1 0 33.474086042706674 -10.347065049701056 1 0 0 I I #
point $-1 -44.352747995563647 33.474086042706674 -10.347065049701056 #
coedge $-1 $357 $364 $359 $403 reversed $351 $-1 #
straight-curve $-1 -44.352747995563647 33.474086042706674 0 0 0 -1 I I #
edge $-1 $360 44.352747995563647 $366 48.497573778496658 $401 $417 forward 7 unknown #
point $-1 -44.352747995563647 33.474086042706674 10.347065049701056 #
straight-curve $-1 -48.497573778496658 33.474086042706674 0 0 0 -1 I I #
point $-1 -48.497573778496658 33.474086042706674 10.347065049701056 #
point $-1 -48.497573778496658 33.474086042706674 -10.347065049701056 #
straight-curve $-1 -48.497573778496658 0 10.347065049701056 0 -1 0 I I #
point $-1 -48.497573778496658 -21.335706473863183 10.347065049701056 #
straight-curve $-1 -48.497573778496658 -21.335706473863183 0 0 0 1 I I #
point $-1 -42.725191947129936 -19.700742425084535 4.845006898254371 #
point $-1 -42.725191947129936 -17.248296351916572 4.845006898254371 #
point $-1 -42.725191947129936 -14.795850278748606 4.845006898254371 #
point $-1 -48.497573778496658 -33.474086042706674 10.347065049701056 #
straight-curve $-1 -48.497573778496658 -33.474086042706674 0 0 0 -1 I I #
point $-1 -48.497573778496658 -33.474086042706674 -10.347065049701056 #
straight-curve $-1 0 33.474086042706674 10.347065049701056 -1 0 0 I I #
End-of-ACIS-data 