500 0 10 0           
7 Unknown 11 ACIS 5.0 NT 24 Thu Mar 25 20:49:01 1999 
-1 9.9999999999999995e-007 1e-010 
body $-1 $10 $-1 $11 #
body $-1 $12 $-1 $13 #
body $-1 $14 $-1 $15 #
body $-1 $16 $-1 $17 #
body $-1 $18 $-1 $19 #
body $-1 $20 $-1 $21 #
body $-1 $22 $-1 $23 #
body $-1 $24 $-1 $25 #
body $-1 $26 $-1 $27 #
body $-1 $28 $-1 $29 #
lump $-1 $-1 $30 $0 #
transform $-1 1 0 0 0 1 0 0 0 1 53.068025757621996 33.889879030382495 9.0346464520432228 1 rotate no_reflect no_shear #
lump $-1 $-1 $31 $1 #
transform $-1 1 0 0 0 1 0 0 0 1 53.068025757621996 33.889879030382495 9.0346464520432228 1 rotate no_reflect no_shear #
lump $-1 $-1 $32 $2 #
transform $-1 1 0 0 0 1 0 0 0 1 53.068025757621996 33.889879030382495 9.0346464520432228 1 rotate no_reflect no_shear #
lump $-1 $-1 $33 $3 #
transform $-1 1 0 0 0 1 0 0 0 1 53.068025757621996 33.889879030382495 9.0346464520432228 1 rotate no_reflect no_shear #
lump $-1 $-1 $34 $4 #
transform $-1 1 0 0 0 1 0 0 0 1 53.068025757621996 33.889879030382495 9.0346464520432228 1 rotate no_reflect no_shear #
lump $-1 $-1 $35 $5 #
transform $-1 1 0 0 0 1 0 0 0 1 53.068025757621996 33.889879030382495 9.0346464520432228 1 rotate no_reflect no_shear #
lump $-1 $-1 $36 $6 #
transform $-1 1 0 0 0 1 0 0 0 1 53.068025757621996 33.889879030382495 9.0346464520432228 1 rotate no_reflect no_shear #
lump $-1 $-1 $37 $7 #
transform $-1 1 0 0 0 1 0 0 0 1 53.068025757621996 33.889879030382495 9.0346464520432228 1 rotate no_reflect no_shear #
lump $-1 $-1 $38 $8 #
transform $-1 1 0 0 0 1 0 0 0 1 53.068025757621996 33.889879030382495 9.0346464520432228 1 rotate no_reflect no_shear #
lump $-1 $-1 $39 $9 #
transform $-1 1 0 0 0 1 0 0 0 1 53.068025757621996 33.889879030382495 9.0346464520432228 1 rotate no_reflect no_shear #
shell $-1 $-1 $-1 $40 $-1 $10 #
shell $-1 $-1 $-1 $41 $-1 $12 #
shell $-1 $-1 $-1 $42 $-1 $14 #
shell $-1 $-1 $-1 $43 $-1 $16 #
shell $-1 $-1 $-1 $44 $-1 $18 #
shell $-1 $-1 $-1 $45 $-1 $20 #
shell $-1 $-1 $-1 $46 $-1 $22 #
shell $-1 $-1 $-1 $47 $-1 $24 #
shell $-1 $-1 $-1 $48 $-1 $26 #
shell $-1 $-1 $-1 $49 $-1 $28 #
face $-1 $50 $51 $30 $-1 $52 forward single #
face $-1 $53 $54 $31 $-1 $55 forward single #
face $-1 $56 $57 $32 $-1 $58 forward single #
face $-1 $59 $60 $33 $-1 $61 reversed single #
face $-1 $62 $63 $34 $-1 $64 forward single #
face $-1 $65 $66 $35 $-1 $67 forward single #
face $-1 $68 $69 $36 $-1 $70 reversed single #
face $-1 $71 $72 $37 $-1 $73 forward single #
face $-1 $74 $75 $38 $-1 $76 forward single #
face $-1 $77 $78 $39 $-1 $79 forward single #
face $-1 $80 $81 $30 $-1 $82 reversed single #
loop $-1 $-1 $83 $40 #
plane-surface $-1 0 0 9.0346464520432228 0 0 1 1 0 0 forward_v I I I I #
face $-1 $84 $85 $31 $-1 $86 reversed single #
loop $-1 $-1 $87 $41 #
plane-surface $-1 0 -28.382320834181495 -6.0346464520432228 0 0 1 1 0 0 forward_v I I I I #
face $-1 $88 $89 $32 $-1 $90 reversed single #
loop $-1 $-1 $91 $42 #
plane-surface $-1 0 28.382320834181492 -6.0346464520432228 0 0 1 1 0 0 forward_v I I I I #
face $-1 $92 $93 $33 $-1 $94 reversed single #
loop $-1 $-1 $95 $43 #
plane-surface $-1 39.986033676968489 18.785825096600892 151.59018937820994 0 -1 0 -0.64278761758704617 0 -0.76604443648966558 forward_v I I I I #
face $-1 $96 $97 $34 $-1 $98 forward single #
loop $-1 $99 $100 $44 #
cone-surface $-1 48.477229163959898 14.455654881753723 5.0287013814037547 -0.64278761758704617 0 -0.76604443648966558 0.38302221824483279 0 -0.32139380879352308 1 I I 0 1 0.5 forward I I I I #
face $-1 $101 $102 $35 $-1 $103 forward single #
loop $-1 $104 $105 $45 #
cone-surface $-1 48.477229163959898 17.053757010662025 5.0287013814037547 -0.64278761758704617 0 -0.76604443648966558 0.38302221824483279 0 -0.32139380879352308 1 I I 0 1 0.5 forward I I I I #
face $-1 $106 $107 $36 $-1 $108 reversed single #
loop $-1 $-1 $109 $46 #
plane-surface $-1 -112.41855333871192 -11.901383887848729 93.760402091443467 0 1 0 -0.55919291073839883 0 0.82903756765294845 forward_v I I I I #
face $-1 $110 $111 $37 $-1 $112 forward single #
loop $-1 $113 $114 $47 #
cone-surface $-1 -49.798770876814622 -9.793506250246331 6.1435015354657985 0.55919291073839883 0 -0.82903756765294845 0.82903756765294845 0 0.55919291073839883 1 I I 0 1 1 forward I I I I #
face $-1 $115 $116 $38 $-1 $117 forward single #
loop $-1 $118 $119 $48 #
cone-surface $-1 -49.798770876814622 -6.6316897938427353 6.1435015354657985 0.55919291073839883 0 -0.82903756765294845 0.82903756765294845 0 0.55919291073839883 1 I I 0 1 1 forward I I I I #
face $-1 $120 $121 $39 $-1 $122 forward single #
loop $-1 $123 $124 $49 #
cone-surface $-1 -49.798770876814622 -3.4698733374391395 6.1435015354657985 0.55919291073839883 0 -0.82903756765294845 0.82903756765294845 0 0.55919291073839883 1 I I 0 1 1 forward I I I I #
face $-1 $125 $126 $30 $-1 $127 reversed single #
loop $-1 $-1 $128 $50 #
plane-surface $-1 0 0 -9.0346464520432228 0 0 1 1 0 0 forward_v I I I I #
coedge $-1 $129 $130 $131 $132 forward $51 $-1 #
face $-1 $133 $134 $31 $-1 $135 reversed single #
loop $-1 $-1 $136 $53 #
plane-surface $-1 0 -22.874762637980496 -7.5346464520432228 0 -1 0 0 0 -1 forward_v I I I I #
coedge $-1 $137 $138 $139 $140 reversed $54 $-1 #
face $-1 $141 $142 $32 $-1 $143 reversed single #
loop $-1 $-1 $144 $56 #
plane-surface $-1 0 22.874762637980492 -7.5346464520432228 0 1 0 0 0 1 forward_v I I I I #
coedge $-1 $145 $146 $147 $148 reversed $57 $-1 #
face $-1 $149 $150 $33 $-1 $151 reversed single #
loop $-1 $-1 $152 $59 #
plane-surface $-1 -28.236906016611201 15.754705946207871 70.285257603976746 0.64278761758704617 0 0.76604443648966558 0.76604443648966558 0 -0.64278761758704617 forward_v I I I I #
coedge $-1 $153 $154 $155 $156 reversed $60 $-1 #
face $-1 $-1 $157 $34 $-1 $158 forward single #
loop $-1 $159 $160 $62 #
cone-surface $-1 47.880384373009065 14.455654881753723 4.3174094724649414 -0.64278761758704617 0 -0.76604443648966558 0.1915111091224164 0 -0.16069690439676154 1 I I -0.70710678118654746 0.70710678118654746 0.25 forward I I I I #
loop $-1 $-1 $161 $44 #
coedge $-1 $100 $100 $162 $163 reversed $63 $-1 #
face $-1 $-1 $164 $35 $-1 $165 forward single #
loop $-1 $166 $167 $65 #
cone-surface $-1 47.880384373009065 17.053757010662025 4.3174094724649414 -0.64278761758704617 0 -0.76604443648966558 0.1915111091224164 0 -0.16069690439676154 1 I I -0.70710678118654746 0.70710678118654746 0.25 forward I I I I #
loop $-1 $-1 $168 $45 #
coedge $-1 $105 $105 $169 $170 reversed $66 $-1 #
face $-1 $171 $172 $36 $-1 $173 reversed single #
loop $-1 $-1 $174 $68 #
plane-surface $-1 -53.068025757621982 -6.6316897938427388 5.7696281029575545 -0.55919291073839883 0 0.82903756765294845 0.82903756765294845 0 0.55919291073839883 forward_v I I I I #
coedge $-1 $175 $176 $177 $178 reversed $69 $-1 #
face $-1 $-1 $179 $37 $-1 $180 forward single #
loop $-1 $181 $182 $71 #
cone-surface $-1 -48.670213877787241 -9.793506250246331 4.4703470096047351 0.55919291073839883 0 -0.82903756765294845 0.41451878382647422 0 0.27959645536919941 1 I I -0.70710678118654746 0.70710678118654746 0.5 forward I I I I #
loop $-1 $-1 $183 $47 #
coedge $-1 $114 $114 $184 $185 reversed $72 $-1 #
face $-1 $-1 $186 $38 $-1 $187 forward single #
loop $-1 $188 $189 $74 #
cone-surface $-1 -48.670213877787241 -6.6316897938427353 4.4703470096047351 0.55919291073839883 0 -0.82903756765294845 0.41451878382647422 0 0.27959645536919941 1 I I -0.70710678118654746 0.70710678118654746 0.5 forward I I I I #
loop $-1 $-1 $190 $48 #
coedge $-1 $119 $119 $191 $192 reversed $75 $-1 #
face $-1 $-1 $193 $39 $-1 $194 forward single #
loop $-1 $195 $196 $77 #
cone-surface $-1 -48.670213877787241 -3.4698733374391395 4.4703470096047351 0.55919291073839883 0 -0.82903756765294845 0.41451878382647422 0 0.27959645536919941 1 I I -0.70710678118654746 0.70710678118654746 0.5 forward I I I I #
loop $-1 $-1 $197 $49 #
coedge $-1 $124 $124 $198 $199 reversed $78 $-1 #
face $-1 $200 $201 $30 $-1 $202 reversed single #
loop $-1 $-1 $203 $80 #
plane-surface $-1 0 -33.889879030382495 0 0 1 0 0 0 1 forward_v I I I I #
coedge $-1 $204 $205 $206 $207 forward $81 $-1 #
coedge $-1 $208 $83 $209 $210 forward $51 $-1 #
coedge $-1 $83 $208 $211 $212 forward $51 $-1 #
coedge $-1 $213 $214 $83 $132 reversed $215 $-1 #
edge $-1 $216 -33.889879030382495 $217 33.889879030382495 $131 $218 forward 7 unknown #
face $-1 $219 $220 $31 $-1 $221 reversed single #
loop $-1 $-1 $222 $84 #
plane-surface $-1 0 0 -9.0346464520432228 0 0 1 1 0 0 forward_v I I I I #
coedge $-1 $223 $224 $225 $226 reversed $85 $-1 #
coedge $-1 $227 $87 $224 $228 forward $54 $-1 #
coedge $-1 $87 $227 $229 $230 reversed $54 $-1 #
coedge $-1 $231 $225 $87 $140 forward $220 $-1 #
edge $-1 $232 8.6836022208897479 $233 19.698718613291746 $139 $234 forward 7 unknown #
face $-1 $235 $236 $32 $-1 $237 reversed single #
loop $-1 $-1 $147 $88 #
plane-surface $-1 53.068025757621996 0 0 -1 0 0 0 0 1 forward_v I I I I #
coedge $-1 $238 $239 $240 $241 reversed $89 $-1 #
coedge $-1 $242 $91 $243 $244 reversed $57 $-1 #
coedge $-1 $91 $242 $239 $245 forward $57 $-1 #
coedge $-1 $246 $247 $91 $148 forward $142 $-1 #
edge $-1 $248 -19.698718613291742 $249 -8.6836022208897461 $147 $250 forward 7 unknown #
face $-1 $251 $252 $33 $-1 $253 forward single #
loop $-1 $-1 $254 $92 #
plane-surface $-1 39.986033676968489 12.72358679581485 151.59018937820994 0 1 0 0.64278761758704617 0 0.76604443648966558 forward_v I I I I #
coedge $-1 $255 $256 $257 $258 reversed $93 $-1 #
coedge $-1 $154 $95 $259 $260 reversed $60 $-1 #
coedge $-1 $95 $153 $255 $261 reversed $60 $-1 #
coedge $-1 $257 $262 $95 $156 forward $252 $-1 #
edge $-1 $263 -33.075008919137751 $264 -24.76571150492169 $155 $265 forward 7 unknown #
loop $-1 $-1 $162 $96 #
plane-surface $-1 -28.236906016611201 15.754705946207871 70.285257603976746 0.64278761758704617 0 0.76604443648966558 0.76604443648966558 0 -0.64278761758704617 forward_v I I I I #
loop $-1 $-1 $266 $62 #
coedge $-1 $160 $160 $161 $267 reversed $97 $-1 #
coedge $-1 $161 $161 $160 $267 forward $99 $-1 #
coedge $-1 $162 $162 $100 $163 forward $157 $-1 #
edge $-1 $268 0 $268 6.2831853071796004 $162 $269 forward 7 unknown #
loop $-1 $-1 $169 $101 #
plane-surface $-1 -28.236906016611201 15.754705946207871 70.285257603976746 0.64278761758704617 0 0.76604443648966558 0.76604443648966558 0 -0.64278761758704617 forward_v I I I I #
loop $-1 $-1 $270 $65 #
coedge $-1 $167 $167 $168 $271 reversed $102 $-1 #
coedge $-1 $168 $168 $167 $271 forward $104 $-1 #
coedge $-1 $169 $169 $105 $170 forward $164 $-1 #
edge $-1 $272 0 $272 6.2831853071796004 $169 $273 forward 7 unknown #
face $-1 $274 $275 $36 $-1 $276 reversed single #
loop $-1 $-1 $277 $106 #
plane-surface $-1 -112.41855333871192 -1.3619956998367488 93.760402091443467 0 -1 0 0.55919291073839883 0 -0.82903756765294845 forward_v I I I I #
coedge $-1 $278 $279 $280 $281 reversed $107 $-1 #
coedge $-1 $176 $109 $282 $283 reversed $69 $-1 #
coedge $-1 $109 $175 $278 $284 reversed $69 $-1 #
coedge $-1 $280 $285 $109 $178 forward $286 $-1 #
edge $-1 $287 3.1412509117339624 $288 7.9818395860323363 $177 $289 forward 7 unknown #
loop $-1 $-1 $184 $110 #
plane-surface $-1 -53.068025757621982 -6.6316897938427388 5.7696281029575545 -0.55919291073839883 0 0.82903756765294845 0.82903756765294845 0 0.55919291073839883 forward_v I I I I #
loop $-1 $-1 $290 $71 #
coedge $-1 $182 $182 $183 $291 reversed $111 $-1 #
coedge $-1 $183 $183 $182 $291 forward $113 $-1 #
coedge $-1 $184 $184 $114 $185 forward $179 $-1 #
edge $-1 $292 0 $292 6.2831853071796004 $184 $293 forward 7 unknown #
loop $-1 $-1 $191 $115 #
plane-surface $-1 -53.068025757621982 -6.6316897938427388 5.7696281029575545 -0.55919291073839883 0 0.82903756765294845 0.82903756765294845 0 0.55919291073839883 forward_v I I I I #
loop $-1 $-1 $294 $74 #
coedge $-1 $189 $189 $190 $295 reversed $116 $-1 #
coedge $-1 $190 $190 $189 $295 forward $118 $-1 #
coedge $-1 $191 $191 $119 $192 forward $186 $-1 #
edge $-1 $296 0 $296 6.2831853071796004 $191 $297 forward 7 unknown #
loop $-1 $-1 $198 $120 #
plane-surface $-1 -53.068025757621982 -6.6316897938427388 5.7696281029575545 -0.55919291073839883 0 0.82903756765294845 0.82903756765294845 0 0.55919291073839883 forward_v I I I I #
loop $-1 $-1 $298 $77 #
coedge $-1 $196 $196 $197 $299 reversed $121 $-1 #
coedge $-1 $197 $197 $196 $299 forward $123 $-1 #
coedge $-1 $198 $198 $124 $199 forward $193 $-1 #
edge $-1 $300 0 $300 6.2831853071796004 $198 $301 forward 7 unknown #
face $-1 $302 $303 $30 $-1 $304 reversed single #
loop $-1 $-1 $305 $125 #
plane-surface $-1 -53.068025757621996 0 0 1 0 0 0 0 -1 forward_v I I I I #
coedge $-1 $306 $211 $307 $308 forward $126 $-1 #
coedge $-1 $309 $128 $306 $310 forward $81 $-1 #
coedge $-1 $128 $309 $311 $312 forward $81 $-1 #
coedge $-1 $214 $213 $128 $207 reversed $215 $-1 #
edge $-1 $313 -33.889879030382495 $314 33.889879030382495 $206 $315 forward 7 unknown #
coedge $-1 $130 $129 $316 $317 forward $51 $-1 #
coedge $-1 $318 $319 $129 $210 reversed $303 $-1 #
edge $-1 $217 -53.068025757621996 $320 53.068025757621996 $209 $321 forward 7 unknown #
coedge $-1 $203 $322 $130 $212 reversed $126 $-1 #
edge $-1 $323 -53.068025757621996 $216 53.068025757621996 $211 $324 forward 7 unknown #
coedge $-1 $206 $131 $322 $325 forward $215 $-1 #
coedge $-1 $131 $206 $318 $326 reversed $215 $-1 #
loop $-1 $-1 $213 $302 #
vertex $-1 $132 $327 #
vertex $-1 $132 $328 #
straight-curve $-1 53.068025757621996 0 9.0346464520432228 0 1 0 I I #
face $-1 $329 $330 $31 $-1 $331 reversed single #
loop $-1 $-1 $225 $133 #
plane-surface $-1 53.068025757621996 0 0 -1 0 0 0 0 1 forward_v I I I I #
coedge $-1 $332 $333 $223 $334 forward $134 $-1 #
coedge $-1 $335 $136 $222 $334 reversed $85 $-1 #
coedge $-1 $136 $335 $137 $228 reversed $85 $-1 #
coedge $-1 $139 $336 $136 $226 forward $220 $-1 #
edge $-1 $337 -5.2673232260216114 $232 -2.2673232260216114 $225 $338 forward 7 unknown #
coedge $-1 $138 $137 $339 $340 reversed $54 $-1 #
edge $-1 $232 -53.068025757621996 $341 53.068025757621996 $224 $342 forward 7 unknown #
coedge $-1 $343 $344 $138 $230 forward $330 $-1 #
edge $-1 $233 -53.068025757621996 $345 53.068025757621996 $229 $346 forward 7 unknown #
coedge $-1 $336 $139 $344 $347 forward $220 $-1 #
vertex $-1 $140 $348 #
vertex $-1 $347 $349 #
straight-curve $-1 53.068025757621996 -14.191160417090748 -6.0346464520432228 0 -1 0 I I #
face $-1 $350 $351 $32 $-1 $352 reversed single #
loop $-1 $-1 $353 $141 #
plane-surface $-1 0 0 -9.0346464520432228 0 0 1 1 0 0 forward_v I I I I #
coedge $-1 $354 $144 $353 $355 reversed $89 $-1 #
coedge $-1 $144 $354 $146 $245 reversed $89 $-1 #
coedge $-1 $356 $357 $144 $241 forward $351 $-1 #
edge $-1 $358 -5.2673232260216114 $359 -2.2673232260216114 $240 $360 forward 7 unknown #
coedge $-1 $146 $145 $356 $361 reversed $57 $-1 #
coedge $-1 $362 $363 $145 $244 forward $364 $-1 #
edge $-1 $365 -53.068025757621996 $248 53.068025757621996 $243 $366 forward 7 unknown #
edge $-1 $359 -53.068025757621996 $249 53.068025757621996 $239 $367 forward 7 unknown #
coedge $-1 $368 $147 $354 $369 forward $142 $-1 #
coedge $-1 $147 $368 $362 $370 reversed $142 $-1 #
vertex $-1 $370 $371 #
vertex $-1 $148 $372 #
straight-curve $-1 53.068025757621996 14.191160417090746 -6.0346464520432228 0 -1 0 I I #
face $-1 $-1 $373 $33 $-1 $374 reversed single #
loop $-1 $-1 $155 $149 #
plane-surface $-1 0 0 9.0346464520432228 0 0 1 1 0 0 forward_v I I I I #
coedge $-1 $375 $376 $377 $378 reversed $150 $-1 #
coedge $-1 $379 $152 $154 $261 forward $93 $-1 #
coedge $-1 $152 $379 $375 $380 forward $93 $-1 #
coedge $-1 $377 $155 $152 $258 forward $252 $-1 #
edge $-1 $264 -10.908472123496956 $381 -4.8462338227109143 $257 $382 forward 7 unknown #
coedge $-1 $383 $384 $153 $260 forward $373 $-1 #
edge $-1 $385 -73.732776778707915 $263 -66.760448237061752 $259 $386 forward 7 unknown #
edge $-1 $264 95.28903400762691 $385 106.13605151524399 $154 $387 forward 7 unknown #
coedge $-1 $155 $377 $383 $388 forward $252 $-1 #
vertex $-1 $260 $389 #
vertex $-1 $156 $390 #
straight-curve $-1 19.993016838484245 18.785825096600892 9.0346464520432193 -1 0 0 I I #
coedge $-1 $266 $266 $-1 $391 reversed $159 $-1 #
edge $-1 $392 0 $392 6.2831853071796004 $160 $393 forward 7 unknown #
vertex $-1 $163 $394 #
ellipse-curve $-1 48.913377050513965 14.455654881753723 5.5484821812201472 0.64278761758704617 0 0.76604443648966558 0.38302221824483279 0 -0.32139380879352308 1 I I #
coedge $-1 $270 $270 $-1 $395 reversed $166 $-1 #
edge $-1 $396 0 $396 6.2831853071796004 $167 $397 forward 7 unknown #
vertex $-1 $170 $398 #
ellipse-curve $-1 48.913377050513965 17.053757010662025 5.5484821812201472 0.64278761758704617 0 0.76604443648966558 0.38302221824483279 0 -0.32139380879352308 1 I I #
face $-1 $-1 $286 $36 $-1 $399 forward single #
loop $-1 $-1 $400 $171 #
plane-surface $-1 -53.068025757621996 0 0 1 0 0 0 0 -1 forward_v I I I I #
coedge $-1 $401 $402 $403 $404 reversed $172 $-1 #
coedge $-1 $405 $174 $176 $284 forward $107 $-1 #
coedge $-1 $174 $405 $401 $406 forward $107 $-1 #
coedge $-1 $403 $177 $174 $281 forward $286 $-1 #
edge $-1 $288 -8.5855389909273594 $407 1.9538491970846206 $280 $408 forward 7 unknown #
coedge $-1 $409 $410 $175 $283 forward $275 $-1 #
edge $-1 $411 -41.110572942764186 $287 -37.845554593678514 $282 $412 forward 7 unknown #
edge $-1 $288 -5.8388049747882187 $411 1.7244626260799089e-014 $176 $413 forward 7 unknown #
coedge $-1 $177 $403 $409 $414 forward $286 $-1 #
loop $-1 $-1 $403 $274 #
vertex $-1 $283 $415 #
vertex $-1 $178 $416 #
straight-curve $-1 -56.209276669355958 -11.901383887848729 9.0346464520432264 1 0 0 I I #
coedge $-1 $290 $290 $-1 $417 reversed $181 $-1 #
edge $-1 $418 0 $418 6.2831853071796004 $182 $419 forward 7 unknown #
vertex $-1 $185 $420 #
ellipse-curve $-1 -50.647731420472809 -9.793506250246331 7.4021372775003851 -0.55919291073839883 0 0.82903756765294845 0.82903756765294845 0 0.55919291073839883 1 I I #
coedge $-1 $294 $294 $-1 $421 reversed $188 $-1 #
edge $-1 $422 0 $422 6.2831853071796004 $189 $423 forward 7 unknown #
vertex $-1 $192 $424 #
ellipse-curve $-1 -50.647731420472809 -6.6316897938427353 7.4021372775003851 -0.55919291073839883 0 0.82903756765294845 0.82903756765294845 0 0.55919291073839883 1 I I #
coedge $-1 $298 $298 $-1 $425 reversed $195 $-1 #
edge $-1 $426 0 $426 6.2831853071796004 $196 $427 forward 7 unknown #
vertex $-1 $199 $428 #
ellipse-curve $-1 -50.647731420472809 -3.4698733374391395 7.4021372775003851 -0.55919291073839883 0 0.82903756765294845 0.82903756765294845 0 0.55919291073839883 1 I I #
face $-1 $-1 $215 $30 $-1 $429 reversed single #
loop $-1 $-1 $318 $200 #
plane-surface $-1 0 33.889879030382495 0 0 -1 0 0 0 -1 forward_v I I I I #
coedge $-1 $430 $316 $319 $431 forward $201 $-1 #
coedge $-1 $322 $203 $204 $310 reversed $126 $-1 #
coedge $-1 $316 $430 $203 $308 reversed $201 $-1 #
edge $-1 $323 -9.0346464520432228 $432 9.0346464520432228 $307 $433 forward 7 unknown #
coedge $-1 $205 $204 $430 $434 forward $81 $-1 #
edge $-1 $314 -53.068025757621996 $432 53.068025757621996 $306 $435 forward 7 unknown #
coedge $-1 $319 $318 $205 $312 reversed $303 $-1 #
edge $-1 $436 -53.068025757621996 $313 53.068025757621996 $311 $437 forward 7 unknown #
vertex $-1 $207 $438 #
vertex $-1 $325 $439 #
straight-curve $-1 53.068025757621996 0 -9.0346464520432228 0 -1 0 I I #
coedge $-1 $305 $307 $208 $317 reversed $201 $-1 #
edge $-1 $320 -33.889879030382495 $323 33.889879030382495 $316 $440 forward 7 unknown #
coedge $-1 $311 $209 $214 $326 forward $303 $-1 #
coedge $-1 $209 $311 $305 $431 reversed $303 $-1 #
vertex $-1 $210 $441 #
straight-curve $-1 0 33.889879030382495 9.0346464520432228 -1 0 0 I I #
coedge $-1 $211 $306 $213 $325 reversed $126 $-1 #
vertex $-1 $317 $442 #
straight-curve $-1 0 -33.889879030382495 9.0346464520432228 1 0 0 I I #
edge $-1 $216 -9.0346464520432228 $314 9.0346464520432228 $213 $443 forward 7 unknown #
edge $-1 $217 -9.0346464520432228 $313 9.0346464520432228 $214 $444 forward 7 unknown #
point $-1 53.068025757621996 -33.889879030382495 9.0346464520432228 #
point $-1 53.068025757621996 33.889879030382495 9.0346464520432228 #
face $-1 $-1 $445 $31 $-1 $446 reversed single #
loop $-1 $-1 $229 $219 #
plane-surface $-1 0 -33.889879030382495 0 0 1 0 0 0 1 forward_v I I I I #
coedge $-1 $447 $222 $336 $448 forward $134 $-1 #
coedge $-1 $222 $447 $449 $450 forward $134 $-1 #
edge $-1 $451 -53.068025757621996 $337 53.068025757621996 $222 $452 forward 7 unknown #
coedge $-1 $224 $223 $453 $454 reversed $85 $-1 #
coedge $-1 $225 $231 $332 $448 reversed $220 $-1 #
vertex $-1 $448 $455 #
straight-curve $-1 53.068025757621996 -22.874762637980496 -3.7673232260216114 0 0 1 I I #
coedge $-1 $453 $456 $227 $340 forward $445 $-1 #
edge $-1 $345 -19.698718613291746 $341 -8.6836022208897479 $339 $457 forward 7 unknown #
vertex $-1 $340 $458 #
straight-curve $-1 0 -22.874762637980496 -6.0346464520432228 -1 0 0 I I #
coedge $-1 $459 $229 $456 $460 forward $330 $-1 #
coedge $-1 $229 $459 $231 $347 reversed $330 $-1 #
vertex $-1 $460 $461 #
straight-curve $-1 0 -33.889879030382495 -6.0346464520432228 -1 0 0 I I #
edge $-1 $233 6.0346464520432228 $462 9.0346464520432228 $231 $463 forward 7 unknown #
point $-1 53.068025757621996 -22.874762637980496 -6.0346464520432228 #
point $-1 53.068025757621996 -33.889879030382495 -6.0346464520432228 #
face $-1 $-1 $364 $32 $-1 $464 reversed single #
loop $-1 $-1 $356 $235 #
plane-surface $-1 -53.068025757621996 0 0 1 0 0 0 0 -1 forward_v I I I I #
coedge $-1 $465 $466 $238 $355 forward $236 $-1 #
coedge $-1 $239 $238 $246 $369 reversed $89 $-1 #
edge $-1 $467 -53.068025757621996 $358 53.068025757621996 $353 $468 forward 7 unknown #
coedge $-1 $469 $240 $242 $361 forward $351 $-1 #
coedge $-1 $240 $469 $465 $470 reversed $351 $-1 #
vertex $-1 $470 $471 #
vertex $-1 $361 $472 #
straight-curve $-1 -53.068025757621996 22.874762637980492 -3.7673232260216114 0 0 1 I I #
edge $-1 $359 8.6836022208897461 $365 19.698718613291742 $356 $473 forward 7 unknown #
coedge $-1 $474 $243 $247 $370 forward $364 $-1 #
coedge $-1 $243 $474 $469 $475 reversed $364 $-1 #
loop $-1 $-1 $243 $350 #
vertex $-1 $475 $476 #
straight-curve $-1 0 33.889879030382495 -6.0346464520432228 1 0 0 I I #
straight-curve $-1 0 22.874762637980492 -6.0346464520432228 1 0 0 I I #
coedge $-1 $247 $246 $466 $477 reversed $142 $-1 #
edge $-1 $249 2.2673232260216114 $467 5.2673232260216114 $246 $478 forward 7 unknown #
edge $-1 $248 6.0346464520432228 $479 9.0346464520432228 $247 $480 forward 7 unknown #
point $-1 53.068025757621996 33.889879030382488 -6.0346464520432228 #
point $-1 53.068025757621996 22.874762637980492 -6.0346464520432228 #
loop $-1 $-1 $259 $251 #
plane-surface $-1 53.068025757621996 0 0 -1 0 0 0 0 1 forward_v I I I I #
coedge $-1 $376 $254 $256 $380 reversed $150 $-1 #
coedge $-1 $254 $375 $481 $482 reversed $150 $-1 #
coedge $-1 $262 $257 $254 $378 forward $252 $-1 #
edge $-1 $381 24.76571150492169 $483 33.075008919137751 $377 $484 forward 7 unknown #
coedge $-1 $256 $255 $384 $485 reversed $93 $-1 #
edge $-1 $486 -106.13605151524399 $381 -95.28903400762691 $375 $487 forward 7 unknown #
vertex $-1 $258 $488 #
straight-curve $-1 44.758728343405927 7.8773529731039353 9.0346464520432264 0 -1 0 I I #
coedge $-1 $481 $259 $262 $388 reversed $373 $-1 #
coedge $-1 $259 $481 $379 $485 forward $373 $-1 #
vertex $-1 $260 $489 #
straight-curve $-1 53.068025757621996 18.785825096600892 75.795094689104971 0 0 1 I I #
straight-curve $-1 -28.236906016611201 18.785825096600892 70.285257603976746 0.76604443648966558 0 -0.64278761758704617 I I #
edge $-1 $483 12.72358679581485 $263 18.785825096600892 $383 $490 forward 7 unknown #
point $-1 53.068025757621996 18.785825096600892 9.0346464520432228 #
point $-1 44.758728343405934 18.785825096600892 9.0346464520432193 #
edge $-1 $491 1 $491 0 $266 $-1 forward 7 unknown #
vertex $-1 $267 $492 #
ellipse-curve $-1 48.041081277405823 14.455654881753723 4.5089205815873576 0.64278761758704617 0 0.76604443648966558 0.38302221824483279 0 -0.32139380879352308 1 I I #
point $-1 49.296399268758798 14.455654881753723 5.2270883724266275 #
edge $-1 $493 1 $493 0 $270 $-1 forward 7 unknown #
vertex $-1 $271 $494 #
ellipse-curve $-1 48.041081277405823 17.053757010662025 4.5089205815873576 0.64278761758704617 0 0.76604443648966558 0.38302221824483279 0 -0.32139380879352308 1 I I #
point $-1 49.296399268758798 17.053757010662025 5.2270883724266275 #
plane-surface $-1 0 0 9.0346464520432228 0 0 1 1 0 0 forward_v I I I I #
coedge $-1 $410 $409 $402 $495 forward $275 $-1 #
coedge $-1 $402 $277 $279 $406 reversed $172 $-1 #
coedge $-1 $277 $401 $400 $495 reversed $172 $-1 #
coedge $-1 $285 $280 $277 $404 forward $286 $-1 #
edge $-1 $407 -7.9818395860323363 $496 -3.1412509117339624 $403 $497 forward 7 unknown #
coedge $-1 $279 $278 $410 $498 reversed $107 $-1 #
edge $-1 $499 -1.7244626260799089e-014 $407 5.8388049747882187 $401 $500 forward 7 unknown #
vertex $-1 $281 $501 #
straight-curve $-1 -48.227437083323622 -3.3158448969213694 9.0346464520432228 0 1 0 I I #
coedge $-1 $400 $282 $285 $414 reversed $275 $-1 #
coedge $-1 $282 $400 $405 $498 forward $275 $-1 #
vertex $-1 $283 $502 #
straight-curve $-1 -53.068025757621996 -11.901383887848729 46.880201045721734 0 0 1 I I #
straight-curve $-1 -53.068025757621982 -11.901383887848729 5.7696281029575545 -0.82903756765294845 0 -0.55919291073839883 I I #
edge $-1 $496 1.3619956998367488 $287 11.901383887848729 $409 $503 forward 7 unknown #
point $-1 -53.068025757621996 -11.901383887848729 9.0346464520432228 #
point $-1 -48.227437083323622 -11.901383887848729 9.0346464520432228 #
edge $-1 $504 1 $504 0 $290 $-1 forward 7 unknown #
vertex $-1 $291 $505 #
ellipse-curve $-1 -48.949810333156442 -9.793506250246331 4.8848657934312092 -0.55919291073839883 0 0.82903756765294845 0.82903756765294845 0 0.55919291073839883 1 I I #
point $-1 -49.818693852819862 -9.793506250246331 7.9613301882387866 #
edge $-1 $506 1 $506 0 $294 $-1 forward 7 unknown #
vertex $-1 $295 $507 #
ellipse-curve $-1 -48.949810333156442 -6.6316897938427353 4.8848657934312092 -0.55919291073839883 0 0.82903756765294845 0.82903756765294845 0 0.55919291073839883 1 I I #
point $-1 -49.818693852819862 -6.6316897938427353 7.9613301882387866 #
edge $-1 $508 1 $508 0 $298 $-1 forward 7 unknown #
vertex $-1 $299 $509 #
ellipse-curve $-1 -48.949810333156442 -3.4698733374391395 4.8848657934312092 -0.55919291073839883 0 0.82903756765294845 0.82903756765294845 0 0.55919291073839883 1 I I #
point $-1 -49.818693852819862 -3.4698733374391395 7.9613301882387866 #
plane-surface $-1 53.068025757621996 0 0 -1 0 0 0 0 1 forward_v I I I I #
coedge $-1 $307 $305 $309 $434 reversed $201 $-1 #
edge $-1 $320 -9.0346464520432228 $436 9.0346464520432228 $319 $510 forward 7 unknown #
vertex $-1 $434 $511 #
straight-curve $-1 -53.068025757621996 -33.889879030382495 0 0 0 -1 I I #
edge $-1 $432 -33.889879030382495 $436 33.889879030382495 $430 $512 forward 7 unknown #
straight-curve $-1 0 -33.889879030382495 -9.0346464520432228 -1 0 0 I I #
vertex $-1 $312 $513 #
straight-curve $-1 0 33.889879030382495 -9.0346464520432228 1 0 0 I I #
point $-1 53.068025757621996 33.889879030382495 -9.0346464520432228 #
point $-1 53.068025757621996 -33.889879030382495 -9.0346464520432228 #
straight-curve $-1 -53.068025757621996 0 9.0346464520432228 0 -1 0 I I #
point $-1 -53.068025757621996 33.889879030382495 9.0346464520432228 #
point $-1 -53.068025757621996 -33.889879030382495 9.0346464520432228 #
straight-curve $-1 53.068025757621996 -33.889879030382495 0 0 0 -1 I I #
straight-curve $-1 53.068025757621996 33.889879030382495 0 0 0 -1 I I #
loop $-1 $-1 $453 $329 #
plane-surface $-1 -53.068025757621996 0 0 1 0 0 0 0 -1 forward_v I I I I #
coedge $-1 $333 $332 $459 $514 forward $134 $-1 #
edge $-1 $337 22.874762637980496 $462 33.889879030382495 $336 $515 forward 7 unknown #
coedge $-1 $456 $453 $333 $450 reversed $445 $-1 #
edge $-1 $516 -33.889879030382495 $451 -22.874762637980496 $449 $517 forward 7 unknown #
vertex $-1 $454 $518 #
straight-curve $-1 0 -22.874762637980496 -9.0346464520432228 1 0 0 I I #
coedge $-1 $449 $339 $335 $454 forward $445 $-1 #
edge $-1 $341 2.2673232260216114 $451 5.2673232260216114 $453 $519 forward 7 unknown #
point $-1 53.068025757621996 -22.874762637980496 -9.0346464520432228 #
coedge $-1 $339 $449 $343 $460 reversed $445 $-1 #
straight-curve $-1 -53.068025757621996 -14.191160417090748 -6.0346464520432228 0 1 0 I I #
point $-1 -53.068025757621996 -22.874762637980496 -6.0346464520432228 #
coedge $-1 $344 $343 $447 $514 reversed $330 $-1 #
edge $-1 $345 6.0346464520432228 $516 9.0346464520432228 $456 $520 forward 7 unknown #
point $-1 -53.068025757621996 -33.889879030382495 -6.0346464520432228 #
vertex $-1 $347 $521 #
straight-curve $-1 53.068025757621996 -33.889879030382495 0 0 0 -1 I I #
plane-surface $-1 0 33.889879030382495 0 0 -1 0 0 0 -1 forward_v I I I I #
coedge $-1 $522 $353 $357 $470 forward $236 $-1 #
coedge $-1 $353 $522 $368 $477 forward $236 $-1 #
vertex $-1 $355 $523 #
straight-curve $-1 0 22.874762637980492 -9.0346464520432228 -1 0 0 I I #
coedge $-1 $357 $356 $363 $475 forward $351 $-1 #
edge $-1 $358 22.874762637980492 $524 33.889879030382495 $357 $525 forward 7 unknown #
point $-1 -53.068025757621996 22.874762637980492 -9.0346464520432228 #
point $-1 -53.068025757621996 22.874762637980492 -6.0346464520432228 #
straight-curve $-1 -53.068025757621996 14.191160417090746 -6.0346464520432228 0 1 0 I I #
coedge $-1 $363 $362 $522 $526 reversed $364 $-1 #
edge $-1 $365 6.0346464520432228 $524 9.0346464520432228 $363 $527 forward 7 unknown #
point $-1 -53.068025757621996 33.889879030382488 -6.0346464520432228 #
edge $-1 $479 -33.889879030382495 $467 -22.874762637980492 $368 $528 forward 7 unknown #
straight-curve $-1 53.068025757621996 22.874762637980492 -3.7673232260216114 0 0 -1 I I #
vertex $-1 $477 $529 #
straight-curve $-1 53.068025757621996 33.889879030382495 0 0 0 -1 I I #
coedge $-1 $384 $383 $376 $482 forward $373 $-1 #
edge $-1 $483 66.760448237061752 $486 73.732776778707915 $481 $530 forward 7 unknown #
vertex $-1 $388 $531 #
straight-curve $-1 19.993016838484245 12.72358679581485 9.0346464520432193 1 0 0 I I #
edge $-1 $486 4.8462338227109143 $385 10.908472123496956 $384 $532 forward 7 unknown #
vertex $-1 $485 $533 #
straight-curve $-1 -28.236906016611201 12.72358679581485 70.285257603976746 -0.76604443648966558 0 0.64278761758704617 I I #
point $-1 44.758728343405934 12.72358679581485 9.0346464520432193 #
point $-1 53.068025757621996 18.785825096600892 2.0623179103970557 #
straight-curve $-1 53.068025757621996 0 9.0346464520432228 0 1 0 I I #
vertex $-1 $391 $534 #
point $-1 48.424103495650662 14.455654881753723 4.1875267727938343 #
vertex $-1 $395 $535 #
point $-1 48.424103495650662 17.053757010662025 4.1875267727938343 #
edge $-1 $496 37.845554593678514 $499 41.110572942764186 $400 $536 forward 7 unknown #
vertex $-1 $414 $537 #
straight-curve $-1 -56.209276669355958 -1.3619956998367488 9.0346464520432264 -1 0 0 I I #
edge $-1 $499 -1.9538491970846206 $411 8.5855389909273594 $410 $538 forward 7 unknown #
vertex $-1 $498 $539 #
straight-curve $-1 -53.068025757621982 -1.3619956998367488 5.7696281029575545 0.82903756765294845 0 0.55919291073839883 I I #
point $-1 -48.227437083323622 -1.3619956998367488 9.0346464520432228 #
point $-1 -53.068025757621996 -11.901383887848729 5.7696281029575447 #
straight-curve $-1 -53.068025757621996 0 9.0346464520432228 0 -1 0 I I #
vertex $-1 $417 $540 #
point $-1 -48.120772765503489 -9.793506250246331 5.444058704169608 #
vertex $-1 $421 $541 #
point $-1 -48.120772765503489 -6.6316897938427353 5.444058704169608 #
vertex $-1 $425 $542 #
point $-1 -48.120772765503489 -3.4698733374391395 5.444058704169608 #
straight-curve $-1 -53.068025757621996 33.889879030382495 0 0 0 -1 I I #
point $-1 -53.068025757621996 -33.889879030382495 -9.0346464520432228 #
straight-curve $-1 -53.068025757621996 0 -9.0346464520432228 0 1 0 I I #
point $-1 -53.068025757621996 33.889879030382495 -9.0346464520432228 #
edge $-1 $462 -53.068025757621996 $516 53.068025757621996 $459 $543 forward 7 unknown #
straight-curve $-1 53.068025757621996 0 -9.0346464520432228 0 -1 0 I I #
vertex $-1 $450 $544 #
straight-curve $-1 -53.068025757621996 0 -9.0346464520432228 0 1 0 I I #
point $-1 -53.068025757621996 -22.874762637980496 -9.0346464520432228 #
straight-curve $-1 -53.068025757621996 -22.874762637980496 -3.7673232260216114 0 0 -1 I I #
straight-curve $-1 -53.068025757621996 -33.889879030382495 0 0 0 -1 I I #
point $-1 53.068025757621996 -33.889879030382495 -9.0346464520432228 #
coedge $-1 $466 $465 $474 $526 forward $236 $-1 #
point $-1 53.068025757621996 22.874762637980492 -9.0346464520432228 #
vertex $-1 $526 $545 #
straight-curve $-1 -53.068025757621996 0 -9.0346464520432228 0 1 0 I I #
edge $-1 $524 -53.068025757621996 $479 53.068025757621996 $474 $546 forward 7 unknown #
straight-curve $-1 -53.068025757621996 33.889879030382495 0 0 0 -1 I I #
straight-curve $-1 53.068025757621996 0 -9.0346464520432228 0 -1 0 I I #
point $-1 53.068025757621996 33.889879030382495 -9.0346464520432228 #
straight-curve $-1 53.068025757621996 12.72358679581485 75.795094689104971 0 0 -1 I I #
point $-1 53.068025757621996 12.72358679581485 9.0346464520432228 #
straight-curve $-1 53.068025757621996 7.8773529731039353 2.0623179103970628 0 1 0 I I #
point $-1 53.068025757621996 12.72358679581485 2.0623179103970557 #
point $-1 47.719687468612307 14.455654881753723 4.1258983633425252 #
point $-1 47.719687468612307 17.053757010662025 4.1258983633425252 #
straight-curve $-1 -53.068025757621996 -1.3619956998367488 46.880201045721734 0 0 -1 I I #
point $-1 -53.068025757621996 -1.3619956998367488 9.0346464520432228 #
straight-curve $-1 -53.068025757621996 -3.3158448969213694 5.7696281029575438 0 -1 0 I I #
point $-1 -53.068025757621996 -1.3619956998367488 5.7696281029575447 #
point $-1 -48.390617422418039 -9.793506250246331 4.055828225778261 #
point $-1 -48.390617422418039 -6.6316897938427353 4.055828225778261 #
point $-1 -48.390617422418039 -3.4698733374391395 4.055828225778261 #
straight-curve $-1 0 -33.889879030382495 -9.0346464520432228 -1 0 0 I I #
point $-1 -53.068025757621996 -33.889879030382495 -9.0346464520432228 #
point $-1 -53.068025757621996 33.889879030382495 -9.0346464520432228 #
straight-curve $-1 0 33.889879030382495 -9.0346464520432228 1 0 0 I I #
End-of-ACIS-data 