500 0 2 0           
7 Unknown 11 ACIS 5.0 NT 24 Fri Mar 26 02:42:17 1999 
-1 9.9999999999999995e-007 1e-010 
body $-1 $2 $-1 $3 #
body $-1 $4 $-1 $5 #
lump $-1 $-1 $6 $0 #
transform $-1 1 0 0 0 1 0 0 0 1 46.483352153080844 21.220876639849127 7.841044945879859 1 rotate no_reflect no_shear #
lump $-1 $-1 $7 $1 #
transform $-1 1 0 0 0 1 0 0 0 1 46.483352153080844 21.220876639849127 7.841044945879859 1 rotate no_reflect no_shear #
shell $-1 $-1 $-1 $8 $-1 $2 #
shell $-1 $-1 $-1 $9 $-1 $4 #
face $-1 $10 $11 $6 $-1 $12 forward single #
face $-1 $13 $14 $7 $-1 $15 forward single #
face $-1 $16 $17 $6 $-1 $18 reversed single #
loop $-1 $-1 $19 $8 #
plane-surface $-1 0 0 7.841044945879859 0 0 1 1 0 0 forward_v I I I I #
face $-1 $20 $21 $7 $-1 $22 reversed single #
loop $-1 $-1 $23 $9 #
plane-surface $-1 -43.478066540215295 0 3.8794294897032988 0 0 1 1 0 0 forward_v I I I I #
face $-1 $24 $25 $6 $-1 $26 reversed single #
loop $-1 $-1 $27 $10 #
plane-surface $-1 0 0 -7.841044945879859 0 0 1 1 0 0 forward_v I I I I #
coedge $-1 $28 $29 $30 $31 forward $11 $-1 #
face $-1 $32 $33 $7 $-1 $34 reversed single #
loop $-1 $-1 $35 $13 #
plane-surface $-1 -43.478066540215295 0 -0.23930269204952959 0 0 1 1 0 0 forward_v I I I I #
coedge $-1 $36 $37 $38 $39 forward $14 $-1 #
face $-1 $40 $41 $6 $-1 $42 reversed single #
loop $-1 $-1 $43 $16 #
plane-surface $-1 0 -21.220876639849127 0 0 1 0 0 0 1 forward_v I I I I #
coedge $-1 $44 $45 $46 $47 forward $17 $-1 #
coedge $-1 $48 $19 $49 $50 forward $11 $-1 #
coedge $-1 $19 $48 $51 $52 forward $11 $-1 #
coedge $-1 $53 $54 $19 $31 reversed $55 $-1 #
edge $-1 $56 -21.220876639849127 $57 21.220876639849127 $30 $58 forward 7 unknown #
face $-1 $59 $60 $7 $-1 $61 reversed single #
loop $-1 $-1 $62 $20 #
plane-surface $-1 -40.472780927349746 0 1.8200633988268846 -1 0 0 0 0 1 forward_v I I I I #
coedge $-1 $63 $64 $65 $66 forward $21 $-1 #
coedge $-1 $67 $23 $68 $69 reversed $14 $-1 #
coedge $-1 $23 $67 $70 $71 reversed $14 $-1 #
coedge $-1 $62 $72 $23 $39 reversed $33 $-1 #
edge $-1 $73 -21.220876639849127 $74 21.220876639849127 $38 $75 forward 7 unknown #
face $-1 $76 $77 $6 $-1 $78 reversed single #
loop $-1 $-1 $79 $24 #
plane-surface $-1 -46.483352153080844 0 0 1 0 0 0 0 -1 forward_v I I I I #
coedge $-1 $80 $51 $81 $82 forward $25 $-1 #
coedge $-1 $83 $27 $80 $84 forward $17 $-1 #
coedge $-1 $27 $83 $85 $86 forward $17 $-1 #
coedge $-1 $54 $53 $27 $47 reversed $55 $-1 #
edge $-1 $87 -21.220876639849127 $88 21.220876639849127 $46 $89 forward 7 unknown #
coedge $-1 $29 $28 $90 $91 forward $11 $-1 #
coedge $-1 $92 $93 $28 $50 reversed $77 $-1 #
edge $-1 $57 -46.483352153080844 $94 46.483352153080844 $49 $95 forward 7 unknown #
coedge $-1 $43 $96 $29 $52 reversed $25 $-1 #
edge $-1 $97 -46.483352153080844 $56 46.483352153080844 $51 $98 forward 7 unknown #
coedge $-1 $46 $30 $96 $99 forward $55 $-1 #
coedge $-1 $30 $46 $92 $100 reversed $55 $-1 #
loop $-1 $-1 $53 $76 #
vertex $-1 $31 $101 #
vertex $-1 $31 $102 #
straight-curve $-1 46.483352153080844 0 7.841044945879859 0 1 0 I I #
face $-1 $103 $104 $7 $-1 $105 reversed single #
loop $-1 $-1 $106 $32 #
plane-surface $-1 0 -21.220876639849127 0 0 1 0 0 0 1 forward_v I I I I #
coedge $-1 $65 $38 $107 $108 reversed $33 $-1 #
coedge $-1 $109 $35 $106 $110 reversed $21 $-1 #
coedge $-1 $35 $109 $111 $112 reversed $21 $-1 #
coedge $-1 $72 $62 $35 $66 reversed $33 $-1 #
edge $-1 $113 -21.220876639849127 $114 21.220876639849127 $65 $115 forward 7 unknown #
coedge $-1 $37 $36 $116 $117 reversed $14 $-1 #
coedge $-1 $118 $119 $36 $69 forward $120 $-1 #
edge $-1 $121 -24.744318882973197 $74 -18.733747657242098 $68 $122 forward 7 unknown #
coedge $-1 $123 $107 $37 $71 forward $60 $-1 #
edge $-1 $73 18.733747657242098 $124 24.744318882973197 $70 $125 forward 7 unknown #
coedge $-1 $38 $65 $118 $126 reversed $33 $-1 #
vertex $-1 $71 $127 #
vertex $-1 $69 $128 #
straight-curve $-1 -40.472780927349746 0 3.8794294897032988 0 1 0 I I #
face $-1 $-1 $55 $6 $-1 $129 reversed single #
loop $-1 $-1 $92 $40 #
plane-surface $-1 0 21.220876639849127 0 0 -1 0 0 0 -1 forward_v I I I I #
coedge $-1 $130 $90 $93 $131 forward $41 $-1 #
coedge $-1 $96 $43 $44 $84 reversed $25 $-1 #
coedge $-1 $90 $130 $43 $82 reversed $41 $-1 #
edge $-1 $97 -7.841044945879859 $132 7.841044945879859 $81 $133 forward 7 unknown #
coedge $-1 $45 $44 $130 $134 forward $17 $-1 #
edge $-1 $88 -46.483352153080844 $132 46.483352153080844 $80 $135 forward 7 unknown #
coedge $-1 $93 $92 $45 $86 reversed $77 $-1 #
edge $-1 $136 -46.483352153080844 $87 46.483352153080844 $85 $137 forward 7 unknown #
vertex $-1 $47 $138 #
vertex $-1 $99 $139 #
straight-curve $-1 46.483352153080844 0 -7.841044945879859 0 -1 0 I I #
coedge $-1 $79 $81 $48 $91 reversed $41 $-1 #
edge $-1 $94 -21.220876639849127 $97 21.220876639849127 $90 $140 forward 7 unknown #
coedge $-1 $85 $49 $54 $100 forward $77 $-1 #
coedge $-1 $49 $85 $79 $131 reversed $77 $-1 #
vertex $-1 $50 $141 #
straight-curve $-1 0 21.220876639849127 7.841044945879859 -1 0 0 I I #
coedge $-1 $51 $80 $53 $99 reversed $25 $-1 #
vertex $-1 $91 $142 #
straight-curve $-1 0 -21.220876639849127 7.841044945879859 1 0 0 I I #
edge $-1 $56 -7.841044945879859 $88 7.841044945879859 $53 $143 forward 7 unknown #
edge $-1 $57 -7.841044945879859 $87 7.841044945879859 $54 $144 forward 7 unknown #
point $-1 46.483352153080844 -21.220876639849127 7.841044945879859 #
point $-1 46.483352153080844 21.220876639849127 7.841044945879859 #
face $-1 $-1 $120 $7 $-1 $145 reversed single #
loop $-1 $-1 $146 $59 #
plane-surface $-1 -46.483352153080844 0 0 1 0 0 0 0 -1 forward_v I I I I #
coedge $-1 $107 $123 $63 $110 forward $60 $-1 #
coedge $-1 $70 $106 $62 $108 forward $60 $-1 #
edge $-1 $114 -1.1493343914629719 $73 2.9693977902898565 $107 $147 forward 7 unknown #
coedge $-1 $64 $63 $146 $148 reversed $21 $-1 #
edge $-1 $149 -24.744318882973197 $114 -18.733747657242098 $106 $150 forward 7 unknown #
coedge $-1 $119 $118 $64 $112 forward $120 $-1 #
edge $-1 $113 18.733747657242098 $151 24.744318882973197 $111 $152 forward 7 unknown #
vertex $-1 $112 $153 #
vertex $-1 $110 $154 #
straight-curve $-1 -40.472780927349746 0 -0.23930269204952959 0 -1 0 I I #
coedge $-1 $155 $156 $67 $117 forward $104 $-1 #
edge $-1 $124 -21.220876639849127 $121 21.220876639849127 $116 $157 forward 7 unknown #
coedge $-1 $111 $68 $72 $126 forward $120 $-1 #
coedge $-1 $68 $111 $155 $158 reversed $120 $-1 #
loop $-1 $-1 $111 $103 #
vertex $-1 $158 $159 #
straight-curve $-1 -21.739033270107647 21.220876639849127 3.8794294897032988 1 0 0 I I #
coedge $-1 $106 $70 $156 $160 forward $60 $-1 #
vertex $-1 $160 $161 #
straight-curve $-1 -21.739033270107647 -21.220876639849127 3.8794294897032988 -1 0 0 I I #
edge $-1 $74 -2.9693977902898565 $113 1.1493343914629719 $118 $162 forward 7 unknown #
point $-1 -40.472780927349746 -21.220876639849127 3.8794294897032988 #
point $-1 -40.472780927349746 21.220876639849127 3.8794294897032988 #
plane-surface $-1 46.483352153080844 0 0 -1 0 0 0 0 1 forward_v I I I I #
coedge $-1 $81 $79 $83 $134 reversed $41 $-1 #
edge $-1 $94 -7.841044945879859 $136 7.841044945879859 $93 $163 forward 7 unknown #
vertex $-1 $134 $164 #
straight-curve $-1 -46.483352153080844 -21.220876639849127 0 0 0 -1 I I #
edge $-1 $132 -21.220876639849127 $136 21.220876639849127 $130 $165 forward 7 unknown #
straight-curve $-1 0 -21.220876639849127 -7.841044945879859 -1 0 0 I I #
vertex $-1 $86 $166 #
straight-curve $-1 0 21.220876639849127 -7.841044945879859 1 0 0 I I #
point $-1 46.483352153080844 21.220876639849127 -7.841044945879859 #
point $-1 46.483352153080844 -21.220876639849127 -7.841044945879859 #
straight-curve $-1 -46.483352153080844 0 7.841044945879859 0 -1 0 I I #
point $-1 -46.483352153080844 21.220876639849127 7.841044945879859 #
point $-1 -46.483352153080844 -21.220876639849127 7.841044945879859 #
straight-curve $-1 46.483352153080844 -21.220876639849127 0 0 0 -1 I I #
straight-curve $-1 46.483352153080844 21.220876639849127 0 0 0 -1 I I #
plane-surface $-1 0 21.220876639849127 0 0 -1 0 0 0 -1 forward_v I I I I #
coedge $-1 $156 $155 $109 $148 forward $104 $-1 #
straight-curve $-1 -40.472780927349746 -21.220876639849127 0.91003169941344231 0 0 1 I I #
edge $-1 $151 -21.220876639849127 $149 21.220876639849127 $146 $167 forward 7 unknown #
vertex $-1 $110 $168 #
straight-curve $-1 -21.739033270107647 -21.220876639849127 -0.23930269204952959 1 0 0 I I #
vertex $-1 $112 $169 #
straight-curve $-1 -21.739033270107647 21.220876639849127 -0.23930269204952959 -1 0 0 I I #
point $-1 -40.472780927349746 21.220876639849127 -0.23930269204952959 #
point $-1 -40.472780927349746 -21.220876639849127 -0.23930269204952959 #
coedge $-1 $146 $116 $119 $158 forward $104 $-1 #
coedge $-1 $116 $146 $123 $160 reversed $104 $-1 #
straight-curve $-1 -46.483352153080844 0 3.8794294897032988 0 1 0 I I #
edge $-1 $121 -3.8794294897032988 $151 0.23930269204952959 $119 $170 forward 7 unknown #
point $-1 -46.483352153080844 21.220876639849127 3.8794294897032988 #
edge $-1 $124 -3.8794294897032988 $149 0.23930269204952959 $156 $171 forward 7 unknown #
point $-1 -46.483352153080844 -21.220876639849127 3.8794294897032988 #
straight-curve $-1 -40.472780927349746 21.220876639849127 0.91003169941344231 0 0 -1 I I #
straight-curve $-1 -46.483352153080844 21.220876639849127 0 0 0 -1 I I #
point $-1 -46.483352153080844 -21.220876639849127 -7.841044945879859 #
straight-curve $-1 -46.483352153080844 0 -7.841044945879859 0 1 0 I I #
point $-1 -46.483352153080844 21.220876639849127 -7.841044945879859 #
straight-curve $-1 -46.483352153080844 0 -0.23930269204952959 0 -1 0 I I #
point $-1 -46.483352153080844 -21.220876639849127 -0.23930269204952959 #
point $-1 -46.483352153080844 21.220876639849127 -0.23930269204952959 #
straight-curve $-1 -46.483352153080844 21.220876639849127 0 0 0 -1 I I #
straight-curve $-1 -46.483352153080844 -21.220876639849127 0 0 0 -1 I I #
End-of-ACIS-data 