500 0 3 0           
7 Unknown 11 ACIS 5.0 NT 24 Thu Mar 25 21:10:45 1999 
-1 9.9999999999999995e-007 1e-010 
body $-1 $3 $-1 $4 #
body $-1 $5 $-1 $6 #
body $-1 $7 $-1 $8 #
lump $-1 $-1 $9 $0 #
transform $-1 1 0 0 0 1 0 0 0 1 51.559190649128695 21.320898384857596 5.1625113005603254 1 rotate no_reflect no_shear #
lump $-1 $-1 $10 $1 #
transform $-1 1 0 0 0 1 0 0 0 1 51.559190649128695 21.320898384857596 5.1625113005603254 1 rotate no_reflect no_shear #
lump $-1 $-1 $11 $2 #
transform $-1 1 0 0 0 1 0 0 0 1 51.559190649128695 21.320898384857596 5.1625113005603254 1 rotate no_reflect no_shear #
shell $-1 $-1 $-1 $12 $-1 $3 #
shell $-1 $-1 $-1 $13 $-1 $5 #
shell $-1 $-1 $-1 $14 $-1 $7 #
face $-1 $15 $16 $9 $-1 $17 forward single #
face $-1 $18 $19 $10 $-1 $20 forward single #
face $-1 $21 $22 $11 $-1 $23 forward single #
face $-1 $24 $25 $9 $-1 $26 reversed single #
loop $-1 $-1 $27 $12 #
plane-surface $-1 0 0 5.1625113005603254 0 0 1 1 0 0 forward_v I I I I #
face $-1 $28 $29 $10 $-1 $30 reversed single #
loop $-1 $-1 $31 $13 #
plane-surface $-1 -51.559190649128695 0 0 1 0 0 0 0 -1 forward_v I I I I #
face $-1 $32 $33 $11 $-1 $34 forward single #
loop $-1 $-1 $35 $14 #
plane-surface $-1 51.559190649128695 0 0 -1 0 0 0 0 1 forward_v I I I I #
face $-1 $36 $37 $9 $-1 $38 reversed single #
loop $-1 $-1 $39 $15 #
plane-surface $-1 0 0 -5.1625113005603254 0 0 1 1 0 0 forward_v I I I I #
coedge $-1 $40 $41 $42 $43 forward $16 $-1 #
face $-1 $44 $45 $10 $-1 $46 reversed single #
loop $-1 $-1 $47 $18 #
plane-surface $-1 0 21.320898384857596 0 0 -1 0 0 0 -1 forward_v I I I I #
coedge $-1 $48 $49 $50 $51 forward $19 $-1 #
face $-1 $52 $53 $11 $-1 $54 reversed single #
loop $-1 $-1 $55 $21 #
plane-surface $-1 0 0 5.1625113005603254 0 0 1 1 0 0 forward_v I I I I #
coedge $-1 $56 $57 $58 $59 forward $22 $-1 #
face $-1 $60 $61 $9 $-1 $62 reversed single #
loop $-1 $-1 $63 $24 #
plane-surface $-1 0 -21.320898384857596 0 0 1 0 0 0 1 forward_v I I I I #
coedge $-1 $64 $65 $66 $67 forward $25 $-1 #
coedge $-1 $68 $27 $69 $70 forward $16 $-1 #
coedge $-1 $27 $68 $71 $72 forward $16 $-1 #
coedge $-1 $73 $74 $27 $43 reversed $75 $-1 #
edge $-1 $76 -21.320898384857596 $77 21.320898384857596 $42 $78 forward 7 unknown #
face $-1 $79 $80 $10 $-1 $81 reversed single #
loop $-1 $-1 $50 $28 #
plane-surface $-1 -53.732932936750139 0 2.1625113005603254 0 0 1 1 0 0 forward_v I I I I #
coedge $-1 $82 $83 $48 $84 forward $29 $-1 #
coedge $-1 $85 $31 $47 $84 reversed $19 $-1 #
coedge $-1 $31 $85 $86 $87 reversed $19 $-1 #
coedge $-1 $88 $89 $31 $51 reversed $45 $-1 #
edge $-1 $90 -21.320898384857596 $91 21.320898384857596 $50 $92 forward 7 unknown #
face $-1 $93 $94 $11 $-1 $95 reversed single #
loop $-1 $-1 $96 $32 #
plane-surface $-1 0 -21.320898384857596 0 0 1 0 0 0 1 forward_v I I I I #
coedge $-1 $97 $98 $99 $100 forward $33 $-1 #
coedge $-1 $99 $35 $96 $101 reversed $22 $-1 #
coedge $-1 $35 $99 $102 $103 reversed $22 $-1 #
coedge $-1 $104 $105 $35 $59 reversed $94 $-1 #
edge $-1 $106 -21.320898384857596 $107 21.320898384857596 $58 $108 forward 7 unknown #
face $-1 $109 $110 $9 $-1 $111 reversed single #
loop $-1 $-1 $112 $36 #
plane-surface $-1 -51.559190649128695 0 0 1 0 0 0 0 -1 forward_v I I I I #
coedge $-1 $113 $71 $114 $115 forward $37 $-1 #
coedge $-1 $116 $39 $113 $117 forward $25 $-1 #
coedge $-1 $39 $116 $118 $119 forward $25 $-1 #
coedge $-1 $74 $73 $39 $67 reversed $75 $-1 #
edge $-1 $120 -21.320898384857596 $121 21.320898384857596 $66 $122 forward 7 unknown #
coedge $-1 $41 $40 $123 $124 forward $16 $-1 #
coedge $-1 $125 $126 $40 $70 reversed $110 $-1 #
edge $-1 $77 -51.559190649128695 $127 51.559190649128695 $69 $128 forward 7 unknown #
coedge $-1 $63 $129 $41 $72 reversed $37 $-1 #
edge $-1 $130 -51.559190649128695 $76 51.559190649128695 $71 $131 forward 7 unknown #
coedge $-1 $66 $42 $129 $132 forward $75 $-1 #
coedge $-1 $42 $66 $125 $133 reversed $75 $-1 #
loop $-1 $-1 $73 $109 #
vertex $-1 $43 $134 #
vertex $-1 $43 $135 #
straight-curve $-1 51.559190649128695 0 5.1625113005603254 0 1 0 I I #
face $-1 $136 $137 $10 $-1 $138 forward single #
loop $-1 $-1 $139 $44 #
plane-surface $-1 -55.906675224371583 0 3.6625113005603254 1 0 0 0 0 -1 forward_v I I I I #
coedge $-1 $140 $47 $89 $141 reversed $29 $-1 #
coedge $-1 $47 $140 $142 $143 reversed $29 $-1 #
edge $-1 $144 -5.1625113005603254 $91 -2.1625113005603254 $47 $145 forward 7 unknown #
coedge $-1 $49 $48 $146 $147 reversed $19 $-1 #
coedge $-1 $148 $149 $49 $87 forward $150 $-1 #
edge $-1 $90 2.1625113005603254 $151 5.1625113005603254 $86 $152 forward 7 unknown #
coedge $-1 $153 $50 $149 $154 forward $45 $-1 #
coedge $-1 $50 $153 $82 $141 forward $45 $-1 #
vertex $-1 $87 $155 #
vertex $-1 $84 $156 #
straight-curve $-1 -51.559190649128695 0 2.1625113005603254 0 1 0 I I #
face $-1 $157 $158 $11 $-1 $159 reversed single #
loop $-1 $-1 $160 $52 #
plane-surface $-1 53.732932936750146 0 2.1625113005603254 0 0 1 1 0 0 forward_v I I I I #
coedge $-1 $161 $162 $56 $101 forward $53 $-1 #
coedge $-1 $163 $55 $162 $164 forward $33 $-1 #
coedge $-1 $55 $163 $165 $166 forward $33 $-1 #
coedge $-1 $57 $56 $55 $100 reversed $22 $-1 #
edge $-1 $167 -21.320898384857596 $168 21.320898384857596 $55 $169 forward 7 unknown #
edge $-1 $168 -5.1625113005603254 $107 -2.1625113005603254 $96 $170 forward 7 unknown #
coedge $-1 $165 $171 $57 $103 forward $172 $-1 #
edge $-1 $106 2.1625113005603254 $167 5.1625113005603254 $102 $173 forward 7 unknown #
coedge $-1 $160 $58 $171 $174 forward $94 $-1 #
coedge $-1 $58 $160 $161 $175 forward $94 $-1 #
vertex $-1 $103 $176 #
vertex $-1 $101 $177 #
straight-curve $-1 51.559190649128695 0 2.1625113005603254 0 -1 0 I I #
face $-1 $-1 $75 $9 $-1 $178 reversed single #
loop $-1 $-1 $125 $60 #
plane-surface $-1 0 21.320898384857596 0 0 -1 0 0 0 -1 forward_v I I I I #
coedge $-1 $179 $123 $126 $180 forward $61 $-1 #
coedge $-1 $129 $63 $64 $117 reversed $37 $-1 #
coedge $-1 $123 $179 $63 $115 reversed $61 $-1 #
edge $-1 $130 -5.1625113005603254 $181 5.1625113005603254 $114 $182 forward 7 unknown #
coedge $-1 $65 $64 $179 $183 forward $25 $-1 #
edge $-1 $121 -51.559190649128695 $181 51.559190649128695 $113 $184 forward 7 unknown #
coedge $-1 $126 $125 $65 $119 reversed $110 $-1 #
edge $-1 $185 -51.559190649128695 $120 51.559190649128695 $118 $186 forward 7 unknown #
vertex $-1 $67 $187 #
vertex $-1 $132 $188 #
straight-curve $-1 51.559190649128695 0 -5.1625113005603254 0 -1 0 I I #
coedge $-1 $112 $114 $68 $124 reversed $61 $-1 #
edge $-1 $127 -21.320898384857596 $130 21.320898384857596 $123 $189 forward 7 unknown #
coedge $-1 $118 $69 $74 $133 forward $110 $-1 #
coedge $-1 $69 $118 $112 $180 reversed $110 $-1 #
vertex $-1 $70 $190 #
straight-curve $-1 0 21.320898384857596 5.1625113005603254 -1 0 0 I I #
coedge $-1 $71 $113 $73 $132 reversed $37 $-1 #
vertex $-1 $124 $191 #
straight-curve $-1 0 -21.320898384857596 5.1625113005603254 1 0 0 I I #
edge $-1 $76 -5.1625113005603254 $121 5.1625113005603254 $73 $192 forward 7 unknown #
edge $-1 $77 -5.1625113005603254 $120 5.1625113005603254 $74 $193 forward 7 unknown #
point $-1 51.559190649128695 -21.320898384857596 5.1625113005603254 #
point $-1 51.559190649128695 21.320898384857596 5.1625113005603254 #
face $-1 $-1 $150 $10 $-1 $194 reversed single #
loop $-1 $-1 $146 $79 #
plane-surface $-1 0 0 5.1625113005603254 0 0 1 1 0 0 forward_v I I I I #
coedge $-1 $195 $196 $140 $197 forward $80 $-1 #
coedge $-1 $83 $82 $139 $197 reversed $29 $-1 #
edge $-1 $198 -2.1737422876214438 $91 2.1737422876214438 $82 $199 forward 7 unknown #
coedge $-1 $200 $146 $83 $143 forward $137 $-1 #
edge $-1 $144 51.559190649128695 $201 55.906675224371583 $83 $202 forward 7 unknown #
vertex $-1 $143 $203 #
straight-curve $-1 -51.559190649128695 21.320898384857596 0 0 0 -1 I I #
coedge $-1 $142 $204 $85 $147 forward $137 $-1 #
edge $-1 $151 -21.320898384857596 $144 21.320898384857596 $146 $205 forward 7 unknown #
coedge $-1 $206 $86 $204 $207 reversed $150 $-1 #
coedge $-1 $86 $206 $88 $154 reversed $150 $-1 #
loop $-1 $-1 $86 $136 #
vertex $-1 $87 $208 #
straight-curve $-1 -51.559190649128695 -21.320898384857596 0 0 0 1 I I #
coedge $-1 $89 $88 $195 $209 forward $45 $-1 #
edge $-1 $90 -2.1737422876214438 $210 2.1737422876214438 $149 $211 forward 7 unknown #
point $-1 -51.559190649128695 -21.320898384857596 2.1625113005603254 #
point $-1 -51.559190649128695 21.320898384857596 2.1625113005603254 #
face $-1 $-1 $172 $11 $-1 $212 reversed single #
loop $-1 $-1 $213 $93 #
plane-surface $-1 55.90667522437159 0 3.6625113005603254 -1 0 0 0 0 1 forward_v I I I I #
coedge $-1 $105 $104 $214 $215 forward $94 $-1 #
coedge $-1 $216 $96 $105 $175 reversed $53 $-1 #
coedge $-1 $96 $216 $97 $164 reversed $53 $-1 #
coedge $-1 $98 $97 $217 $218 forward $33 $-1 #
edge $-1 $168 -2.1737422876214509 $219 2.1737422876214438 $162 $220 forward 7 unknown #
coedge $-1 $221 $102 $98 $166 reversed $172 $-1 #
edge $-1 $222 -55.90667522437159 $167 -51.559190649128695 $165 $223 forward 7 unknown #
vertex $-1 $103 $224 #
vertex $-1 $164 $225 #
straight-curve $-1 51.559190649128695 0 5.1625113005603254 0 -1 0 I I #
straight-curve $-1 51.559190649128695 -21.320898384857596 0 0 0 -1 I I #
coedge $-1 $102 $221 $104 $174 reversed $172 $-1 #
loop $-1 $-1 $102 $157 #
straight-curve $-1 51.559190649128695 21.320898384857596 0 0 0 1 I I #
edge $-1 $106 -2.1737422876214438 $226 2.1737422876214438 $171 $227 forward 7 unknown #
edge $-1 $228 -2.1737422876214438 $107 2.1737422876214438 $161 $229 forward 7 unknown #
point $-1 51.559190649128702 21.320898384857596 2.1625113005603254 #
point $-1 51.559190649128702 -21.320898384857596 2.1625113005603254 #
plane-surface $-1 51.559190649128695 0 0 -1 0 0 0 0 1 forward_v I I I I #
coedge $-1 $114 $112 $116 $183 reversed $61 $-1 #
edge $-1 $127 -5.1625113005603254 $185 5.1625113005603254 $126 $230 forward 7 unknown #
vertex $-1 $183 $231 #
straight-curve $-1 -51.559190649128695 -21.320898384857596 0 0 0 -1 I I #
edge $-1 $181 -21.320898384857596 $185 21.320898384857596 $179 $232 forward 7 unknown #
straight-curve $-1 0 -21.320898384857596 -5.1625113005603254 -1 0 0 I I #
vertex $-1 $119 $233 #
straight-curve $-1 0 21.320898384857596 -5.1625113005603254 1 0 0 I I #
point $-1 51.559190649128695 21.320898384857596 -5.1625113005603254 #
point $-1 51.559190649128695 -21.320898384857596 -5.1625113005603254 #
straight-curve $-1 -51.559190649128695 0 5.1625113005603254 0 -1 0 I I #
point $-1 -51.559190649128695 21.320898384857596 5.1625113005603254 #
point $-1 -51.559190649128695 -21.320898384857596 5.1625113005603254 #
straight-curve $-1 51.559190649128695 -21.320898384857596 0 0 0 -1 I I #
straight-curve $-1 51.559190649128695 21.320898384857596 0 0 0 -1 I I #
plane-surface $-1 0 -21.320898384857596 0 0 1 0 0 0 1 forward_v I I I I #
coedge $-1 $234 $139 $153 $209 reversed $80 $-1 #
coedge $-1 $139 $234 $200 $235 reversed $80 $-1 #
edge $-1 $201 -1.5 $198 1.5 $140 $236 forward 7 unknown #
vertex $-1 $141 $237 #
straight-curve $-1 -53.732932936750139 21.320898384857596 2.1625113005603254 1 0 0 I I #
coedge $-1 $204 $142 $196 $235 forward $137 $-1 #
vertex $-1 $143 $238 #
straight-curve $-1 0 21.320898384857596 5.1625113005603254 -1 0 0 I I #
point $-1 -51.559190649128695 21.320898384857596 5.1625113005603254 #
coedge $-1 $146 $200 $148 $207 forward $137 $-1 #
straight-curve $-1 -51.559190649128695 0 5.1625113005603254 0 1 0 I I #
coedge $-1 $149 $148 $234 $239 forward $150 $-1 #
edge $-1 $240 -55.906675224371583 $151 -51.559190649128695 $148 $241 forward 7 unknown #
point $-1 -51.559190649128695 -21.320898384857596 5.1625113005603254 #
edge $-1 $210 -21.320898384857596 $198 21.320898384857596 $195 $242 forward 7 unknown #
vertex $-1 $209 $243 #
straight-curve $-1 -53.732932936750139 -21.320898384857596 2.1625113005603254 -1 0 0 I I #
plane-surface $-1 0 21.320898384857596 0 0 -1 0 0 0 -1 forward_v I I I I #
coedge $-1 $214 $217 $216 $244 forward $158 $-1 #
coedge $-1 $245 $213 $160 $215 reversed $158 $-1 #
edge $-1 $226 -21.320898384857596 $228 21.320898384857596 $214 $246 forward 7 unknown #
coedge $-1 $162 $161 $213 $244 reversed $53 $-1 #
coedge $-1 $213 $245 $163 $218 reversed $158 $-1 #
edge $-1 $219 -21.320898384857596 $222 21.320898384857596 $217 $247 forward 7 unknown #
vertex $-1 $218 $248 #
straight-curve $-1 53.732932936750146 -21.320898384857596 5.1625113005603254 1 0 0 I I #
coedge $-1 $171 $165 $245 $249 forward $172 $-1 #
vertex $-1 $218 $250 #
straight-curve $-1 0 21.320898384857596 5.1625113005603254 -1 0 0 I I #
point $-1 51.559190649128695 21.320898384857596 5.1625113005603254 #
point $-1 51.559190649128695 -21.320898384857596 5.1625113005603254 #
vertex $-1 $215 $251 #
straight-curve $-1 53.732932936750146 21.320898384857596 2.1625113005603254 1 0 0 I I #
vertex $-1 $244 $252 #
straight-curve $-1 53.732932936750146 -21.320898384857596 2.1625113005603254 -1 0 0 I I #
straight-curve $-1 -51.559190649128695 21.320898384857596 0 0 0 -1 I I #
point $-1 -51.559190649128695 -21.320898384857596 -5.1625113005603254 #
straight-curve $-1 -51.559190649128695 0 -5.1625113005603254 0 1 0 I I #
point $-1 -51.559190649128695 21.320898384857596 -5.1625113005603254 #
coedge $-1 $196 $195 $206 $239 reversed $80 $-1 #
edge $-1 $201 -21.320898384857596 $240 21.320898384857596 $196 $253 forward 7 unknown #
straight-curve $-1 -55.906675224371583 21.320898384857596 3.6625113005603254 0 0 -1 I I #
point $-1 -55.906675224371583 21.320898384857596 2.1625113005603254 #
point $-1 -55.906675224371583 21.320898384857596 5.1625113005603254 #
edge $-1 $240 -1.5 $210 1.5 $234 $254 forward 7 unknown #
vertex $-1 $235 $255 #
straight-curve $-1 0 -21.320898384857596 5.1625113005603254 1 0 0 I I #
straight-curve $-1 -55.906675224371583 0 2.1625113005603254 0 1 0 I I #
point $-1 -55.906675224371583 -21.320898384857596 2.1625113005603254 #
edge $-1 $219 -1.5 $228 1.5 $213 $256 forward 7 unknown #
coedge $-1 $217 $214 $221 $249 reversed $158 $-1 #
straight-curve $-1 55.90667522437159 0 2.1625113005603254 0 -1 0 I I #
straight-curve $-1 55.90667522437159 0 5.1625113005603254 0 1 0 I I #
point $-1 55.90667522437159 -21.320898384857596 5.1625113005603254 #
edge $-1 $222 -1.5 $226 1.5 $245 $257 forward 7 unknown #
point $-1 55.90667522437159 21.320898384857596 5.1625113005603254 #
point $-1 55.90667522437159 21.320898384857596 2.1625113005603254 #
point $-1 55.90667522437159 -21.320898384857596 2.1625113005603254 #
straight-curve $-1 -55.906675224371583 0 5.1625113005603254 0 -1 0 I I #
straight-curve $-1 -55.906675224371583 -21.320898384857596 3.6625113005603254 0 0 -1 I I #
point $-1 -55.906675224371583 -21.320898384857596 5.1625113005603254 #
straight-curve $-1 55.90667522437159 -21.320898384857596 3.6625113005603254 0 0 -1 I I #
straight-curve $-1 55.90667522437159 21.320898384857596 3.6625113005603254 0 0 -1 I I #
End-of-ACIS-data 