500 0 10 0           
7 Unknown 11 ACIS 5.0 NT 24 Fri Mar 26 19:12:50 1999 
-1 9.9999999999999995e-007 1e-010 
body $-1 $10 $-1 $11 #
body $-1 $12 $-1 $13 #
body $-1 $14 $-1 $15 #
body $-1 $16 $-1 $17 #
body $-1 $18 $-1 $19 #
body $-1 $20 $-1 $21 #
body $-1 $22 $-1 $23 #
body $-1 $24 $-1 $25 #
body $-1 $26 $-1 $27 #
body $-1 $28 $-1 $29 #
lump $-1 $-1 $30 $0 #
transform $-1 1 0 0 0 1 0 0 0 1 59.251075777459029 35.654981752139633 8.4148890769317131 1 rotate no_reflect no_shear #
lump $-1 $-1 $31 $1 #
transform $-1 1 0 0 0 1 0 0 0 1 59.251075777459029 35.654981752139633 8.4148890769317131 1 rotate no_reflect no_shear #
lump $-1 $-1 $32 $2 #
transform $-1 1 0 0 0 1 0 0 0 1 59.251075777459029 35.654981752139633 8.4148890769317131 1 rotate no_reflect no_shear #
lump $-1 $-1 $33 $3 #
transform $-1 1 0 0 0 1 0 0 0 1 59.251075777459029 35.654981752139633 8.4148890769317131 1 rotate no_reflect no_shear #
lump $-1 $-1 $34 $4 #
transform $-1 1 0 0 0 1 0 0 0 1 59.251075777459029 35.654981752139633 8.4148890769317131 1 rotate no_reflect no_shear #
lump $-1 $-1 $35 $5 #
transform $-1 1 0 0 0 1 0 0 0 1 59.251075777459029 35.654981752139633 8.4148890769317131 1 rotate no_reflect no_shear #
lump $-1 $-1 $36 $6 #
transform $-1 1 0 0 0 1 0 0 0 1 59.251075777459029 35.654981752139633 8.4148890769317131 1 rotate no_reflect no_shear #
lump $-1 $-1 $37 $7 #
transform $-1 1 0 0 0 1 0 0 0 1 59.251075777459029 35.654981752139633 8.4148890769317131 1 rotate no_reflect no_shear #
lump $-1 $-1 $38 $8 #
transform $-1 1 0 0 0 1 0 0 0 1 59.251075777459029 35.654981752139633 8.4148890769317131 1 rotate no_reflect no_shear #
lump $-1 $-1 $39 $9 #
transform $-1 1 0 0 0 1 0 0 0 1 59.251075777459029 35.654981752139633 8.4148890769317131 1 rotate no_reflect no_shear #
shell $-1 $-1 $-1 $40 $-1 $10 #
shell $-1 $-1 $-1 $41 $-1 $12 #
shell $-1 $-1 $-1 $42 $-1 $14 #
shell $-1 $-1 $-1 $43 $-1 $16 #
shell $-1 $-1 $-1 $44 $-1 $18 #
shell $-1 $-1 $-1 $45 $-1 $20 #
shell $-1 $-1 $-1 $46 $-1 $22 #
shell $-1 $-1 $-1 $47 $-1 $24 #
shell $-1 $-1 $-1 $48 $-1 $26 #
shell $-1 $-1 $-1 $49 $-1 $28 #
face $-1 $50 $51 $30 $-1 $52 reversed single #
face $-1 $53 $54 $31 $-1 $55 forward single #
face $-1 $56 $57 $32 $-1 $58 reversed single #
face $-1 $59 $60 $33 $-1 $61 forward single #
face $-1 $62 $63 $34 $-1 $64 forward single #
face $-1 $65 $66 $35 $-1 $67 forward single #
face $-1 $68 $69 $36 $-1 $70 reversed single #
face $-1 $71 $72 $37 $-1 $73 forward single #
face $-1 $74 $75 $38 $-1 $76 forward single #
face $-1 $77 $78 $39 $-1 $79 forward single #
face $-1 $80 $81 $30 $-1 $82 forward single #
loop $-1 $-1 $83 $40 #
plane-surface $-1 -59.251075777459029 0 0 1 0 0 0 0 -1 forward_v I I I I #
face $-1 $84 $85 $31 $-1 $86 reversed single #
loop $-1 $-1 $87 $41 #
plane-surface $-1 -59.251075777459029 0 0 1 0 0 0 0 -1 forward_v I I I I #
face $-1 $88 $89 $32 $-1 $90 reversed single #
loop $-1 $-1 $91 $42 #
plane-surface $-1 -49.767518643835601 52.41917447209687 138.56828893586967 1 0 0 0 -0.61566148304635926 -0.78801074757464917 forward_v I I I I #
face $-1 $92 $93 $33 $-1 $94 forward single #
loop $-1 $95 $96 $43 #
cone-surface $-1 -44.669027037552439 28.705355132364499 1.7952530454405133 0 -0.61566148304635926 -0.78801074757464917 2.5 0 0 1 I I 0 1 2.5 forward I I I I #
face $-1 $97 $98 $34 $-1 $99 forward single #
loop $-1 $100 $101 $44 #
cone-surface $-1 -37.021289628127704 28.705355132364499 1.7952530454405133 0 -0.61566148304635926 -0.78801074757464917 2.5 0 0 1 I I 0 1 2.5 forward I I I I #
face $-1 $102 $103 $35 $-1 $104 forward single #
loop $-1 $105 $106 $45 #
cone-surface $-1 -29.373552218702962 28.705355132364499 1.7952530454405133 0 -0.61566148304635926 -0.78801074757464917 2.5 0 0 1 I I 0 1 2.5 forward I I I I #
face $-1 $107 $108 $36 $-1 $109 reversed single #
loop $-1 $-1 $110 $46 #
plane-surface $-1 -7.0441616628100761 -126.4328974304123 76.591294348829109 -1 0 0 0 -0.7660444514056185 0.64278759981090561 forward_v I I I I #
face $-1 $111 $112 $37 $-1 $113 forward single #
loop $-1 $114 $115 $47 #
cone-surface $-1 -31.853302975507486 -30.62800457756012 3.0138012759606845 0 0.7660444514056185 -0.64278759981090561 2 0 0 1 I I 0 1 2 forward I I I I #
face $-1 $116 $117 $38 $-1 $118 forward single #
loop $-1 $119 $120 $48 #
cone-surface $-1 -22.549874983245957 -30.62800457756012 3.0138012759606845 0 0.7660444514056185 -0.64278759981090561 2 0 0 1 I I 0 1 2 forward I I I I #
face $-1 $121 $122 $39 $-1 $123 forward single #
loop $-1 $124 $125 $49 #
cone-surface $-1 -13.246446990984431 -30.62800457756012 3.0138012759606845 0 0.7660444514056185 -0.64278759981090561 2 0 0 1 I I 0 1 2 forward I I I I #
face $-1 $126 $127 $30 $-1 $128 reversed single #
loop $-1 $-1 $129 $50 #
plane-surface $-1 0 0 8.4148890769317131 0 0 1 1 0 0 forward_v I I I I #
coedge $-1 $130 $131 $132 $133 reversed $51 $-1 #
face $-1 $134 $135 $31 $-1 $136 reversed single #
loop $-1 $-1 $137 $53 #
plane-surface $-1 0 0 -8.4148890769317131 0 0 1 1 0 0 forward_v I I I I #
coedge $-1 $138 $139 $140 $141 forward $54 $-1 #
face $-1 $142 $143 $32 $-1 $144 reversed single #
loop $-1 $-1 $145 $56 #
plane-surface $-1 -37.021289628127704 -20.538035898388415 45.187319899874325 0 0.61566148304635926 0.78801074757464917 1 0 0 forward_v I I I I #
coedge $-1 $146 $147 $148 $149 reversed $57 $-1 #
face $-1 $-1 $150 $33 $-1 $151 forward single #
loop $-1 $152 $153 $59 #
cone-surface $-1 -44.669027037552439 25.549378395695193 -2.2442128884771275 0 -0.61566148304635926 -0.78801074757464917 1.25 0 0 1 I I -0.70710678118654746 0.70710678118654746 1.25 forward I I I I #
loop $-1 $-1 $154 $43 #
coedge $-1 $96 $96 $155 $156 reversed $60 $-1 #
face $-1 $-1 $157 $34 $-1 $158 forward single #
loop $-1 $159 $160 $62 #
cone-surface $-1 -37.021289628127704 25.549378395695193 -2.2442128884771275 0 -0.61566148304635926 -0.78801074757464917 1.25 0 0 1 I I -0.70710678118654746 0.70710678118654746 1.25 forward I I I I #
loop $-1 $-1 $161 $44 #
coedge $-1 $101 $101 $162 $163 reversed $63 $-1 #
face $-1 $-1 $164 $35 $-1 $165 forward single #
loop $-1 $166 $167 $65 #
cone-surface $-1 -29.373552218702962 25.549378395695193 -2.2442128884771275 0 -0.61566148304635926 -0.78801074757464917 1.25 0 0 1 I I -0.70710678118654746 0.70710678118654746 1.25 forward I I I I #
loop $-1 $-1 $168 $45 #
coedge $-1 $106 $106 $169 $170 reversed $66 $-1 #
face $-1 $171 $172 $36 $-1 $173 reversed single #
loop $-1 $-1 $174 $68 #
plane-surface $-1 -22.549874983245957 -35.654981752139633 0.41958077841515262 0 -0.7660444514056185 0.64278759981090561 1 0 0 forward_v I I I I #
coedge $-1 $175 $176 $177 $178 reversed $69 $-1 #
face $-1 $-1 $179 $37 $-1 $180 forward single #
loop $-1 $181 $182 $71 #
cone-surface $-1 -31.853302975507486 -28.189412985968925 0.96758002443702473 0 0.7660444514056185 -0.64278759981090561 1 0 0 1 I I -0.70710678118654746 0.70710678118654746 1 forward I I I I #
loop $-1 $-1 $183 $47 #
coedge $-1 $115 $115 $184 $185 reversed $72 $-1 #
face $-1 $-1 $186 $38 $-1 $187 forward single #
loop $-1 $188 $189 $74 #
cone-surface $-1 -22.549874983245957 -28.189412985968925 0.96758002443702473 0 0.7660444514056185 -0.64278759981090561 1 0 0 1 I I -0.70710678118654746 0.70710678118654746 1 forward I I I I #
loop $-1 $-1 $190 $48 #
coedge $-1 $120 $120 $191 $192 reversed $75 $-1 #
face $-1 $-1 $193 $39 $-1 $194 forward single #
loop $-1 $195 $196 $77 #
cone-surface $-1 -13.246446990984431 -28.189412985968925 0.96758002443702473 0 0.7660444514056185 -0.64278759981090561 1 0 0 1 I I -0.70710678118654746 0.70710678118654746 1 forward I I I I #
loop $-1 $-1 $197 $49 #
coedge $-1 $125 $125 $198 $199 reversed $78 $-1 #
face $-1 $200 $201 $30 $-1 $202 reversed single #
loop $-1 $-1 $203 $80 #
plane-surface $-1 0 0 -8.4148890769317131 0 0 1 1 0 0 forward_v I I I I #
coedge $-1 $204 $205 $206 $207 forward $81 $-1 #
coedge $-1 $208 $83 $209 $210 reversed $51 $-1 #
coedge $-1 $83 $208 $211 $212 forward $51 $-1 #
coedge $-1 $213 $214 $83 $133 forward $127 $-1 #
edge $-1 $215 -35.654981752139633 $216 35.654981752139633 $83 $217 forward 7 unknown #
face $-1 $218 $219 $31 $-1 $220 reversed single #
loop $-1 $-1 $221 $84 #
plane-surface $-1 -63.992854344270746 -25.692474121274657 0 0 1 0 0 0 1 forward_v I I I I #
coedge $-1 $222 $223 $139 $224 forward $85 $-1 #
coedge $-1 $225 $87 $226 $227 reversed $54 $-1 #
coedge $-1 $87 $225 $137 $224 reversed $54 $-1 #
coedge $-1 $228 $229 $87 $141 reversed $230 $-1 #
edge $-1 $231 -8.4148890769317131 $232 8.4148890769317131 $140 $233 forward 7 unknown #
face $-1 $234 $235 $32 $-1 $236 forward single #
loop $-1 $-1 $237 $88 #
plane-surface $-1 -24.275060612419804 52.41917447209687 138.56828893586967 -1 0 0 0 0.61566148304635926 0.78801074757464917 forward_v I I I I #
coedge $-1 $238 $239 $240 $241 reversed $89 $-1 #
coedge $-1 $147 $91 $242 $243 reversed $57 $-1 #
coedge $-1 $91 $146 $238 $244 reversed $57 $-1 #
coedge $-1 $240 $245 $91 $149 forward $235 $-1 #
edge $-1 $246 -9.4453945160911985 $247 -0.31894104226365982 $148 $248 forward 7 unknown #
loop $-1 $-1 $155 $92 #
plane-surface $-1 -37.021289628127704 -20.538035898388415 45.187319899874325 0 0.61566148304635926 0.78801074757464917 1 0 0 forward_v I I I I #
loop $-1 $-1 $249 $59 #
coedge $-1 $153 $153 $154 $250 reversed $93 $-1 #
coedge $-1 $154 $154 $153 $250 forward $95 $-1 #
coedge $-1 $155 $155 $96 $156 forward $150 $-1 #
edge $-1 $251 1.4013848138672729e-016 $251 6.2831853071796004 $155 $252 forward 7 unknown #
loop $-1 $-1 $162 $97 #
plane-surface $-1 -37.021289628127704 -20.538035898388415 45.187319899874325 0 0.61566148304635926 0.78801074757464917 1 0 0 forward_v I I I I #
loop $-1 $-1 $253 $62 #
coedge $-1 $160 $160 $161 $254 reversed $98 $-1 #
coedge $-1 $161 $161 $160 $254 forward $100 $-1 #
coedge $-1 $162 $162 $101 $163 forward $157 $-1 #
edge $-1 $255 1.4013848138672729e-016 $255 6.2831853071796004 $162 $256 forward 7 unknown #
loop $-1 $-1 $169 $102 #
plane-surface $-1 -37.021289628127704 -20.538035898388415 45.187319899874325 0 0.61566148304635926 0.78801074757464917 1 0 0 forward_v I I I I #
loop $-1 $-1 $257 $65 #
coedge $-1 $167 $167 $168 $258 reversed $103 $-1 #
coedge $-1 $168 $168 $167 $258 forward $105 $-1 #
coedge $-1 $169 $169 $106 $170 forward $164 $-1 #
edge $-1 $259 1.4013848138672729e-016 $259 6.2831853071796004 $169 $260 forward 7 unknown #
face $-1 $261 $262 $36 $-1 $263 forward single #
loop $-1 $-1 $264 $107 #
plane-surface $-1 -38.055588303681837 -126.4328974304123 76.591294348829109 1 0 0 0 0.7660444514056185 -0.64278759981090561 forward_v I I I I #
coedge $-1 $265 $266 $267 $268 reversed $108 $-1 #
coedge $-1 $176 $110 $269 $270 reversed $69 $-1 #
coedge $-1 $110 $175 $265 $271 reversed $69 $-1 #
coedge $-1 $267 $272 $110 $178 forward $262 $-1 #
edge $-1 $273 27.561466963066515 $274 34.2703270318544 $177 $275 forward 7 unknown #
loop $-1 $-1 $184 $111 #
plane-surface $-1 -22.549874983245957 -35.654981752139633 0.41958077841515262 0 -0.7660444514056185 0.64278759981090561 1 0 0 forward_v I I I I #
loop $-1 $-1 $276 $71 #
coedge $-1 $182 $182 $183 $277 reversed $112 $-1 #
coedge $-1 $183 $183 $182 $277 forward $114 $-1 #
coedge $-1 $184 $184 $115 $185 forward $179 $-1 #
edge $-1 $278 -2.4248784760307189e-016 $278 6.2831853071796004 $184 $279 forward 7 unknown #
loop $-1 $-1 $191 $116 #
plane-surface $-1 -22.549874983245957 -35.654981752139633 0.41958077841515262 0 -0.7660444514056185 0.64278759981090561 1 0 0 forward_v I I I I #
loop $-1 $-1 $280 $74 #
coedge $-1 $189 $189 $190 $281 reversed $117 $-1 #
coedge $-1 $190 $190 $189 $281 forward $119 $-1 #
coedge $-1 $191 $191 $120 $192 forward $186 $-1 #
edge $-1 $282 -2.4248784760307189e-016 $282 6.2831853071796004 $191 $283 forward 7 unknown #
loop $-1 $-1 $198 $121 #
plane-surface $-1 -22.549874983245957 -35.654981752139633 0.41958077841515262 0 -0.7660444514056185 0.64278759981090561 1 0 0 forward_v I I I I #
loop $-1 $-1 $284 $77 #
coedge $-1 $196 $196 $197 $285 reversed $122 $-1 #
coedge $-1 $197 $197 $196 $285 forward $124 $-1 #
coedge $-1 $198 $198 $125 $199 forward $193 $-1 #
edge $-1 $286 -2.4248784760307189e-016 $286 6.2831853071796004 $198 $287 forward 7 unknown #
face $-1 $288 $289 $30 $-1 $290 reversed single #
loop $-1 $-1 $209 $126 #
plane-surface $-1 0 -35.654981752139633 0 0 1 0 0 0 1 forward_v I I I I #
coedge $-1 $214 $213 $291 $292 forward $127 $-1 #
coedge $-1 $293 $129 $294 $295 forward $81 $-1 #
coedge $-1 $129 $293 $296 $297 forward $81 $-1 #
coedge $-1 $298 $299 $129 $207 reversed $300 $-1 #
edge $-1 $301 -35.654981752139633 $302 35.654981752139633 $206 $303 forward 7 unknown #
coedge $-1 $131 $130 $293 $304 reversed $51 $-1 #
coedge $-1 $305 $296 $130 $210 forward $201 $-1 #
edge $-1 $306 -8.4148890769317131 $215 8.4148890769317131 $130 $307 forward 7 unknown #
coedge $-1 $294 $308 $131 $212 reversed $289 $-1 #
edge $-1 $309 -8.4148890769317131 $216 8.4148890769317131 $211 $310 forward 7 unknown #
coedge $-1 $203 $132 $308 $311 forward $127 $-1 #
coedge $-1 $132 $203 $305 $312 forward $127 $-1 #
vertex $-1 $133 $313 #
vertex $-1 $311 $314 #
straight-curve $-1 -59.251075777459029 0 -8.4148890769317131 0 1 0 I I #
face $-1 $315 $230 $31 $-1 $316 reversed single #
loop $-1 $-1 $317 $134 #
plane-surface $-1 -68.734632911082457 -23.942648696197914 0 1 0 0 0 0 -1 forward_v I I I I #
coedge $-1 $318 $319 $320 $321 forward $135 $-1 #
coedge $-1 $322 $137 $318 $323 forward $85 $-1 #
coedge $-1 $137 $322 $228 $324 forward $85 $-1 #
edge $-1 $231 22.192823271121171 $325 25.692474121274657 $137 $326 forward 7 unknown #
coedge $-1 $139 $138 $327 $328 forward $54 $-1 #
coedge $-1 $329 $330 $138 $227 forward $331 $-1 #
edge $-1 $332 -25.692474121274657 $232 -22.192823271121171 $226 $333 forward 7 unknown #
coedge $-1 $334 $140 $223 $324 reversed $230 $-1 #
coedge $-1 $140 $334 $329 $335 reversed $230 $-1 #
loop $-1 $-1 $140 $218 #
vertex $-1 $224 $336 #
vertex $-1 $335 $337 #
straight-curve $-1 -59.251075777459029 -22.192823271121171 0 0 0 1 I I #
face $-1 $-1 $338 $32 $-1 $339 reversed single #
loop $-1 $-1 $148 $142 #
plane-surface $-1 0 0 8.4148890769317131 0 0 1 1 0 0 forward_v I I I I #
coedge $-1 $340 $341 $342 $343 reversed $143 $-1 #
coedge $-1 $344 $145 $147 $244 forward $89 $-1 #
coedge $-1 $145 $344 $340 $345 forward $89 $-1 #
coedge $-1 $342 $148 $145 $241 forward $235 $-1 #
edge $-1 $247 -31.256873829771749 $346 -5.7644157983559516 $240 $347 forward 7 unknown #
coedge $-1 $348 $349 $146 $243 forward $338 $-1 #
edge $-1 $350 -67.999622455086836 $246 -60.869255391003122 $242 $351 forward 7 unknown #
edge $-1 $247 59.728327718324472 $350 71.309963504279239 $147 $352 forward 7 unknown #
coedge $-1 $148 $342 $348 $353 forward $235 $-1 #
vertex $-1 $243 $354 #
vertex $-1 $149 $355 #
straight-curve $-1 -49.767518643835601 26.209587236048435 8.4148890769317148 0 -1 0 I I #
coedge $-1 $249 $249 $-1 $356 reversed $152 $-1 #
edge $-1 $357 0 $357 6.2831853071796004 $153 $358 forward 7 unknown #
vertex $-1 $156 $359 #
ellipse-curve $-1 -44.669027037552439 31.091755015225868 4.8497055448898578 0 0.61566148304635926 0.78801074757464917 2.5 0 0 1 I I #
coedge $-1 $253 $253 $-1 $360 reversed $159 $-1 #
edge $-1 $361 0 $361 6.2831853071796004 $160 $362 forward 7 unknown #
vertex $-1 $163 $363 #
ellipse-curve $-1 -37.021289628127704 31.091755015225868 4.8497055448898578 0 0.61566148304635926 0.78801074757464917 2.5 0 0 1 I I #
coedge $-1 $257 $257 $-1 $364 reversed $166 $-1 #
edge $-1 $365 0 $365 6.2831853071796004 $167 $366 forward 7 unknown #
vertex $-1 $170 $367 #
ellipse-curve $-1 -29.373552218702962 31.091755015225868 4.8497055448898578 0 0.61566148304635926 0.78801074757464917 2.5 0 0 1 I I #
face $-1 $-1 $368 $36 $-1 $369 reversed single #
loop $-1 $-1 $177 $171 #
plane-surface $-1 0 0 8.4148890769317131 0 0 1 1 0 0 forward_v I I I I #
coedge $-1 $370 $371 $372 $373 reversed $172 $-1 #
coedge $-1 $374 $174 $176 $271 forward $108 $-1 #
coedge $-1 $174 $374 $370 $375 forward $108 $-1 #
coedge $-1 $372 $177 $174 $268 forward $262 $-1 #
edge $-1 $274 -4.2307758288129023 $376 26.780650812058859 $267 $377 forward 7 unknown #
coedge $-1 $378 $379 $175 $270 forward $368 $-1 #
edge $-1 $380 -37.876066395999402 $273 -29.88075809748284 $269 $381 forward 7 unknown #
edge $-1 $274 -10.437133620439303 $380 0 $176 $382 forward 7 unknown #
coedge $-1 $177 $372 $378 $383 forward $262 $-1 #
vertex $-1 $178 $384 #
vertex $-1 $178 $385 #
straight-curve $-1 -7.0441616628100761 -63.216448715206148 8.4148890769317148 0 1 0 I I #
coedge $-1 $276 $276 $-1 $386 reversed $181 $-1 #
edge $-1 $387 0 $387 6.2831853071796004 $182 $388 forward 7 unknown #
vertex $-1 $185 $389 #
ellipse-curve $-1 -31.853302975507486 -32.300551717745691 4.4172349276734337 0 -0.7660444514056185 0.64278759981090561 2 0 0 1 I I #
coedge $-1 $280 $280 $-1 $390 reversed $188 $-1 #
edge $-1 $391 0 $391 6.2831853071796004 $189 $392 forward 7 unknown #
vertex $-1 $192 $393 #
ellipse-curve $-1 -22.549874983245957 -32.300551717745691 4.4172349276734337 0 -0.7660444514056185 0.64278759981090561 2 0 0 1 I I #
coedge $-1 $284 $284 $-1 $394 reversed $195 $-1 #
edge $-1 $395 0 $395 6.2831853071796004 $196 $396 forward 7 unknown #
vertex $-1 $199 $397 #
ellipse-curve $-1 -13.246446990984431 -32.300551717745691 4.4172349276734337 0 -0.7660444514056185 0.64278759981090561 2 0 0 1 I I #
face $-1 $-1 $300 $30 $-1 $398 reversed single #
loop $-1 $-1 $399 $200 #
plane-surface $-1 0 35.654981752139633 0 0 -1 0 0 0 -1 forward_v I I I I #
coedge $-1 $299 $298 $203 $292 reversed $300 $-1 #
edge $-1 $400 -35.654981752139633 $401 35.654981752139633 $291 $402 forward 7 unknown #
coedge $-1 $205 $204 $208 $304 forward $81 $-1 #
coedge $-1 $399 $211 $204 $295 reversed $289 $-1 #
edge $-1 $302 -59.251075777459029 $309 59.251075777459029 $294 $403 forward 7 unknown #
coedge $-1 $209 $404 $205 $297 reversed $201 $-1 #
edge $-1 $306 -59.251075777459029 $301 59.251075777459029 $296 $405 forward 7 unknown #
coedge $-1 $291 $206 $404 $406 forward $300 $-1 #
coedge $-1 $206 $291 $399 $407 reversed $300 $-1 #
loop $-1 $-1 $298 $288 #
vertex $-1 $207 $408 #
vertex $-1 $207 $409 #
straight-curve $-1 59.251075777459029 0 8.4148890769317131 0 1 0 I I #
edge $-1 $309 -35.654981752139633 $306 35.654981752139633 $208 $410 forward 7 unknown #
coedge $-1 $404 $209 $214 $312 reversed $201 $-1 #
vertex $-1 $304 $411 #
straight-curve $-1 -59.251075777459029 -35.654981752139633 0 0 0 -1 I I #
coedge $-1 $211 $399 $213 $311 reversed $289 $-1 #
vertex $-1 $295 $412 #
straight-curve $-1 -59.251075777459029 35.654981752139633 0 0 0 -1 I I #
edge $-1 $216 -59.251075777459029 $400 59.251075777459029 $308 $413 forward 7 unknown #
edge $-1 $401 -59.251075777459029 $215 59.251075777459029 $305 $414 forward 7 unknown #
point $-1 -59.251075777459029 -35.654981752139633 -8.4148890769317131 #
point $-1 -59.251075777459029 35.654981752139633 -8.4148890769317131 #
face $-1 $-1 $331 $31 $-1 $415 forward single #
plane-surface $-1 -63.992854344270746 -22.192823271121171 0 0 -1 0 0 0 -1 forward_v I I I I #
coedge $-1 $416 $417 $334 $418 forward $219 $-1 #
coedge $-1 $327 $221 $222 $323 reversed $135 $-1 #
coedge $-1 $221 $327 $330 $419 reversed $135 $-1 #
coedge $-1 $417 $416 $221 $321 reversed $219 $-1 #
edge $-1 $420 -8.4148890769317131 $421 8.4148890769317131 $320 $422 forward 7 unknown #
coedge $-1 $223 $222 $416 $423 forward $85 $-1 #
edge $-1 $325 -4.7417785668117176 $421 4.7417785668117105 $318 $424 forward 7 unknown #
edge $-1 $425 -4.7417785668117105 $231 4.7417785668117176 $228 $426 forward 7 unknown #
vertex $-1 $323 $427 #
straight-curve $-1 -59.251075777459029 0 -8.4148890769317131 0 -1 0 I I #
coedge $-1 $319 $318 $225 $328 reversed $135 $-1 #
edge $-1 $332 -8.4148890769317131 $325 8.4148890769317131 $327 $428 forward 7 unknown #
coedge $-1 $429 $226 $229 $335 forward $331 $-1 #
coedge $-1 $226 $429 $319 $419 forward $331 $-1 #
loop $-1 $-1 $226 $315 #
vertex $-1 $227 $430 #
straight-curve $-1 -59.251075777459029 0 8.4148890769317131 0 1 0 I I #
coedge $-1 $229 $228 $317 $418 reversed $230 $-1 #
edge $-1 $232 -4.7417785668117176 $431 4.7417785668117105 $229 $432 forward 7 unknown #
point $-1 -59.251075777459029 -22.192823271121171 -8.4148890769317131 #
point $-1 -59.251075777459029 -22.192823271121171 8.4148890769317131 #
loop $-1 $-1 $242 $234 #
plane-surface $-1 0 35.654981752139633 0 0 -1 0 0 0 -1 forward_v I I I I #
coedge $-1 $341 $237 $239 $345 reversed $143 $-1 #
coedge $-1 $237 $340 $433 $434 reversed $143 $-1 #
coedge $-1 $245 $240 $237 $343 forward $235 $-1 #
edge $-1 $346 0.31894104226365982 $435 9.4453945160911985 $342 $436 forward 7 unknown #
coedge $-1 $239 $238 $349 $437 reversed $89 $-1 #
edge $-1 $438 -71.309963504279239 $346 -59.728327718324472 $340 $439 forward 7 unknown #
vertex $-1 $241 $440 #
straight-curve $-1 -18.510644814063852 26.528528278312091 8.4148890769317113 1 0 0 I I #
coedge $-1 $433 $242 $245 $353 reversed $338 $-1 #
coedge $-1 $242 $433 $344 $437 forward $338 $-1 #
vertex $-1 $243 $441 #
straight-curve $-1 -49.767518643835601 35.654981752139633 69.284144467934837 0 0 1 I I #
straight-curve $-1 -49.767518643835601 -20.538035898388415 45.187319899874325 0 0.78801074757464917 -0.61566148304635926 I I #
edge $-1 $435 24.275060612419804 $246 49.767518643835601 $348 $442 forward 7 unknown #
point $-1 -49.767518643835601 35.654981752139633 8.4148890769317131 #
point $-1 -49.767518643835601 26.528528278312095 8.4148890769317148 #
edge $-1 $443 1 $443 0 $249 $-1 forward 7 unknown #
vertex $-1 $250 $444 #
ellipse-curve $-1 -44.669027037552439 26.318955249503141 -1.2591994540088161 0 0.61566148304635926 0.78801074757464917 2.5 0 0 1 I I #
point $-1 -42.169027037552439 31.091755015225857 4.8497055448898436 #
edge $-1 $445 1 $445 0 $253 $-1 forward 7 unknown #
vertex $-1 $254 $446 #
ellipse-curve $-1 -37.021289628127704 26.318955249503141 -1.2591994540088161 0 0.61566148304635926 0.78801074757464917 2.5 0 0 1 I I #
point $-1 -34.521289628127704 31.091755015225857 4.8497055448898436 #
edge $-1 $447 1 $447 0 $257 $-1 forward 7 unknown #
vertex $-1 $258 $448 #
ellipse-curve $-1 -29.373552218702962 26.318955249503141 -1.2591994540088161 0 0.61566148304635926 0.78801074757464917 2.5 0 0 1 I I #
point $-1 -26.873552218702962 31.091755015225857 4.8497055448898436 #
loop $-1 $-1 $269 $261 #
plane-surface $-1 0 -35.654981752139633 0 0 1 0 0 0 1 forward_v I I I I #
coedge $-1 $371 $264 $266 $375 reversed $172 $-1 #
coedge $-1 $264 $370 $449 $450 reversed $172 $-1 #
coedge $-1 $272 $267 $264 $373 forward $262 $-1 #
edge $-1 $376 -34.2703270318544 $451 -27.561466963066515 $372 $452 forward 7 unknown #
coedge $-1 $266 $265 $379 $453 reversed $108 $-1 #
edge $-1 $454 0 $376 10.437133620439303 $370 $455 forward 7 unknown #
vertex $-1 $268 $456 #
straight-curve $-1 -11.274937491622978 -28.946121683351748 8.4148890769317131 -1 0 0 I I #
coedge $-1 $449 $269 $272 $383 reversed $368 $-1 #
coedge $-1 $269 $449 $374 $453 forward $368 $-1 #
vertex $-1 $270 $457 #
straight-curve $-1 -7.0441616628100761 -35.654981752139633 38.295647174414555 0 0 1 I I #
straight-curve $-1 -7.0441616628100761 -35.654981752139633 0.41958077841515262 0 -0.64278759981090561 -0.7660444514056185 I I #
edge $-1 $451 -38.055588303681837 $273 -7.0441616628100761 $378 $458 forward 7 unknown #
point $-1 -7.0441616628100761 -35.654981752139633 8.4148890769317131 #
point $-1 -7.0441616628100761 -28.946121683351748 8.4148890769317148 #
edge $-1 $459 1 $459 0 $276 $-1 forward 7 unknown #
vertex $-1 $277 $460 #
ellipse-curve $-1 -31.853302975507486 -28.955457437374545 1.6103676242479303 0 -0.7660444514056185 0.64278759981090561 2 0 0 1 I I #
point $-1 -29.853302975507486 -32.300551717745698 4.4172349276734391 #
edge $-1 $461 1 $461 0 $280 $-1 forward 7 unknown #
vertex $-1 $281 $462 #
ellipse-curve $-1 -22.549874983245957 -28.955457437374545 1.6103676242479303 0 -0.7660444514056185 0.64278759981090561 2 0 0 1 I I #
point $-1 -20.549874983245957 -32.300551717745698 4.4172349276734391 #
edge $-1 $463 1 $463 0 $284 $-1 forward 7 unknown #
vertex $-1 $285 $464 #
ellipse-curve $-1 -13.246446990984431 -28.955457437374545 1.6103676242479303 0 -0.7660444514056185 0.64278759981090561 2 0 0 1 I I #
point $-1 -11.246446990984431 -32.300551717745698 4.4172349276734391 #
plane-surface $-1 59.251075777459029 0 0 -1 0 0 0 0 1 forward_v I I I I #
coedge $-1 $308 $294 $299 $407 forward $289 $-1 #
vertex $-1 $292 $465 #
vertex $-1 $406 $466 #
straight-curve $-1 59.251075777459029 0 -8.4148890769317131 0 -1 0 I I #
straight-curve $-1 0 35.654981752139633 8.4148890769317131 -1 0 0 I I #
coedge $-1 $296 $305 $298 $406 reversed $201 $-1 #
straight-curve $-1 0 -35.654981752139633 8.4148890769317131 1 0 0 I I #
edge $-1 $301 -8.4148890769317131 $401 8.4148890769317131 $298 $467 forward 7 unknown #
edge $-1 $302 -8.4148890769317131 $400 8.4148890769317131 $299 $468 forward 7 unknown #
point $-1 59.251075777459029 -35.654981752139633 8.4148890769317131 #
point $-1 59.251075777459029 35.654981752139633 8.4148890769317131 #
straight-curve $-1 -59.251075777459029 0 8.4148890769317131 0 -1 0 I I #
point $-1 -59.251075777459029 -35.654981752139633 8.4148890769317131 #
point $-1 -59.251075777459029 35.654981752139633 8.4148890769317131 #
straight-curve $-1 0 35.654981752139633 -8.4148890769317131 1 0 0 I I #
straight-curve $-1 0 -35.654981752139633 -8.4148890769317131 -1 0 0 I I #
plane-surface $-1 0 0 8.4148890769317131 0 0 1 1 0 0 forward_v I I I I #
coedge $-1 $320 $317 $322 $423 reversed $219 $-1 #
coedge $-1 $317 $320 $429 $469 reversed $219 $-1 #
edge $-1 $431 -8.4148890769317131 $425 8.4148890769317131 $334 $470 forward 7 unknown #
edge $-1 $420 -4.7417785668117105 $332 4.7417785668117176 $319 $471 forward 7 unknown #
vertex $-1 $469 $472 #
vertex $-1 $423 $473 #
straight-curve $-1 -68.734632911082457 -25.692474121274657 0 0 0 -1 I I #
edge $-1 $421 -1.7498254250767431 $425 1.7498254250767431 $416 $474 forward 7 unknown #
straight-curve $-1 -63.992854344270746 -25.692474121274657 -8.4148890769317131 -1 0 0 I I #
vertex $-1 $324 $475 #
straight-curve $-1 -63.992854344270746 -22.192823271121171 -8.4148890769317131 1 0 0 I I #
point $-1 -59.251075777459029 -25.692474121274657 -8.4148890769317131 #
straight-curve $-1 -59.251075777459029 -25.692474121274657 0 0 0 -1 I I #
coedge $-1 $330 $329 $417 $469 forward $331 $-1 #
point $-1 -59.251075777459029 -25.692474121274657 8.4148890769317131 #
vertex $-1 $335 $476 #
straight-curve $-1 -63.992854344270746 -22.192823271121171 8.4148890769317131 -1 0 0 I I #
coedge $-1 $349 $348 $341 $434 forward $338 $-1 #
edge $-1 $435 60.869255391003122 $438 67.999622455086836 $433 $477 forward 7 unknown #
vertex $-1 $353 $478 #
straight-curve $-1 -24.275060612419804 26.209587236048435 8.4148890769317148 0 1 0 I I #
edge $-1 $438 5.7644157983559516 $350 31.256873829771749 $349 $479 forward 7 unknown #
vertex $-1 $437 $480 #
straight-curve $-1 -24.275060612419804 -20.538035898388415 45.187319899874325 0 -0.78801074757464917 0.61566148304635926 I I #
point $-1 -24.275060612419804 26.528528278312095 8.4148890769317148 #
point $-1 -49.767518643835601 35.654981752139626 1.2845220128480079 #
straight-curve $-1 0 35.654981752139633 8.4148890769317131 -1 0 0 I I #
vertex $-1 $356 $481 #
point $-1 -42.169027037552439 26.318955249503141 -1.2591994540088161 #
vertex $-1 $360 $482 #
point $-1 -34.521289628127704 26.318955249503141 -1.2591994540088161 #
vertex $-1 $364 $483 #
point $-1 -26.873552218702962 26.318955249503141 -1.2591994540088161 #
coedge $-1 $379 $378 $371 $450 forward $368 $-1 #
edge $-1 $451 29.88075809748284 $454 37.876066395999402 $449 $484 forward 7 unknown #
vertex $-1 $383 $485 #
straight-curve $-1 -38.055588303681837 -63.216448715206148 8.4148890769317148 0 -1 0 I I #
edge $-1 $454 -26.780650812058859 $380 4.2307758288129023 $379 $486 forward 7 unknown #
vertex $-1 $453 $487 #
straight-curve $-1 -38.055588303681837 -35.654981752139633 0.41958077841515262 0 0.64278759981090561 0.7660444514056185 I I #
point $-1 -38.055588303681837 -28.946121683351748 8.4148890769317148 #
point $-1 -7.0441616628100761 -35.654981752139633 0.41958077841515262 #
straight-curve $-1 0 -35.654981752139633 8.4148890769317131 1 0 0 I I #
vertex $-1 $386 $488 #
point $-1 -29.853302975507486 -28.955457437374545 1.6103676242479303 #
vertex $-1 $390 $489 #
point $-1 -20.549874983245957 -28.955457437374545 1.6103676242479303 #
vertex $-1 $394 $490 #
point $-1 -11.246446990984431 -28.955457437374545 1.6103676242479303 #
point $-1 59.251075777459029 35.654981752139633 -8.4148890769317131 #
point $-1 59.251075777459029 -35.654981752139633 -8.4148890769317131 #
straight-curve $-1 59.251075777459029 -35.654981752139633 0 0 0 -1 I I #
straight-curve $-1 59.251075777459029 35.654981752139633 0 0 0 -1 I I #
edge $-1 $431 -1.7498254250767431 $420 1.7498254250767431 $417 $491 forward 7 unknown #
straight-curve $-1 -68.734632911082457 -22.192823271121171 0 0 0 -1 I I #
straight-curve $-1 -63.992854344270746 -25.692474121274657 8.4148890769317131 1 0 0 I I #
point $-1 -68.734632911082457 -25.692474121274657 8.4148890769317131 #
point $-1 -68.734632911082457 -25.692474121274657 -8.4148890769317131 #
straight-curve $-1 -68.734632911082457 -23.942648696197914 -8.4148890769317131 0 1 0 I I #
point $-1 -68.734632911082457 -22.192823271121171 -8.4148890769317131 #
point $-1 -68.734632911082457 -22.192823271121171 8.4148890769317131 #
straight-curve $-1 -24.275060612419804 35.654981752139633 69.284144467934837 0 0 -1 I I #
point $-1 -24.275060612419804 35.654981752139633 8.4148890769317131 #
straight-curve $-1 -18.510644814063852 35.654981752139633 1.2845220128480008 -1 0 0 I I #
point $-1 -24.275060612419804 35.654981752139626 1.2845220128480079 #
point $-1 -44.669027037552439 24.779801541887245 -3.229226322945439 #
point $-1 -37.021289628127704 24.779801541887245 -3.229226322945439 #
point $-1 -29.373552218702962 24.779801541887245 -3.229226322945439 #
straight-curve $-1 -38.055588303681837 -35.654981752139633 38.295647174414555 0 0 -1 I I #
point $-1 -38.055588303681837 -35.654981752139633 8.4148890769317131 #
straight-curve $-1 -11.274937491622978 -35.654981752139633 0.41958077841515418 1 0 0 I I #
point $-1 -38.055588303681837 -35.654981752139633 0.41958077841515262 #
point $-1 -31.853302975507486 -27.423368534563306 0.32479242462611913 #
point $-1 -22.549874983245957 -27.423368534563306 0.32479242462611913 #
point $-1 -13.246446990984431 -27.423368534563306 0.32479242462611913 #
straight-curve $-1 -68.734632911082457 -23.942648696197914 8.4148890769317131 0 -1 0 I I #
End-of-ACIS-data 