500 0 9 0           
7 Unknown 11 ACIS 5.0 NT 24 Fri Mar 26 00:16:32 1999 
-1 9.9999999999999995e-007 1e-010 
body $-1 $9 $-1 $10 #
body $-1 $11 $-1 $12 #
body $-1 $13 $-1 $14 #
body $-1 $15 $-1 $16 #
body $-1 $17 $-1 $18 #
body $-1 $19 $-1 $20 #
body $-1 $21 $-1 $22 #
body $-1 $23 $-1 $24 #
body $-1 $25 $-1 $26 #
lump $-1 $-1 $27 $0 #
transform $-1 1 0 0 0 1 0 0 0 1 73.406781212805569 43.232420519626473 12.559528104813634 1 rotate no_reflect no_shear #
lump $-1 $-1 $28 $1 #
transform $-1 1 0 0 0 1 0 0 0 1 73.406781212805569 43.232420519626473 12.559528104813634 1 rotate no_reflect no_shear #
lump $-1 $-1 $29 $2 #
transform $-1 1 0 0 0 1 0 0 0 1 73.406781212805569 43.232420519626473 12.559528104813634 1 rotate no_reflect no_shear #
lump $-1 $-1 $30 $3 #
transform $-1 1 0 0 0 1 0 0 0 1 73.406781212805569 43.232420519626473 12.559528104813634 1 rotate no_reflect no_shear #
lump $-1 $-1 $31 $4 #
transform $-1 1 0 0 0 1 0 0 0 1 73.406781212805569 43.232420519626473 12.559528104813634 1 rotate no_reflect no_shear #
lump $-1 $-1 $32 $5 #
transform $-1 1 0 0 0 1 0 0 0 1 73.406781212805569 43.232420519626473 12.559528104813634 1 rotate no_reflect no_shear #
lump $-1 $-1 $33 $6 #
transform $-1 1 0 0 0 1 0 0 0 1 73.406781212805569 43.232420519626473 12.559528104813634 1 rotate no_reflect no_shear #
lump $-1 $-1 $34 $7 #
transform $-1 1 0 0 0 1 0 0 0 1 73.406781212805569 43.232420519626473 12.559528104813634 1 rotate no_reflect no_shear #
lump $-1 $-1 $35 $8 #
transform $-1 1 0 0 0 1 0 0 0 1 73.406781212805569 43.232420519626473 12.559528104813634 1 rotate no_reflect no_shear #
shell $-1 $-1 $-1 $36 $-1 $9 #
shell $-1 $-1 $-1 $37 $-1 $11 #
shell $-1 $-1 $-1 $38 $-1 $13 #
shell $-1 $-1 $-1 $39 $-1 $15 #
shell $-1 $-1 $-1 $40 $-1 $17 #
shell $-1 $-1 $-1 $41 $-1 $19 #
shell $-1 $-1 $-1 $42 $-1 $21 #
shell $-1 $-1 $-1 $43 $-1 $23 #
shell $-1 $-1 $-1 $44 $-1 $25 #
face $-1 $45 $46 $27 $-1 $47 forward single #
face $-1 $48 $49 $28 $-1 $50 forward single #
face $-1 $51 $52 $29 $-1 $53 forward single #
face $-1 $54 $55 $30 $-1 $56 reversed single #
face $-1 $57 $58 $31 $-1 $59 forward single #
face $-1 $60 $61 $32 $-1 $62 forward single #
face $-1 $63 $64 $33 $-1 $65 reversed single #
face $-1 $66 $67 $34 $-1 $68 forward single #
face $-1 $69 $70 $35 $-1 $71 forward single #
face $-1 $72 $73 $27 $-1 $74 reversed single #
loop $-1 $-1 $75 $36 #
plane-surface $-1 0 0 12.559528104813634 0 0 1 1 0 0 forward_v I I I I #
face $-1 $76 $77 $28 $-1 $78 reversed single #
loop $-1 $-1 $79 $37 #
plane-surface $-1 0 -37.716389385542492 -8.3146552159446792 0 0 1 1 0 0 forward_v I I I I #
face $-1 $80 $81 $29 $-1 $82 reversed single #
loop $-1 $-1 $83 $38 #
plane-surface $-1 0 37.716389385542485 -8.3146552159446792 0 0 1 1 0 0 forward_v I I I I #
face $-1 $84 $85 $30 $-1 $86 reversed single #
loop $-1 $-1 $87 $39 #
plane-surface $-1 -193.66941219725072 -4.0629933346305336 90.850025625290286 0 -1 0 0.81915205242281985 0 -0.57357642473473569 forward_v I I I I #
face $-1 $88 $89 $31 $-1 $90 forward single #
loop $-1 $91 $92 $40 #
cone-surface $-1 -70.362995360105515 -15.621732731121938 8.9199395186016552 0.81915205242281985 0 -0.57357642473473569 0.86036463710210354 0 1.2287280786342298 1 I I 0 1 1.5 forward I I I I #
face $-1 $93 $94 $32 $-1 $95 forward single #
loop $-1 $96 $97 $41 #
cone-surface $-1 -70.362995360105515 -8.6864890932270953 8.9199395186016552 0.81915205242281985 0 -0.57357642473473569 0.86036463710210354 0 1.2287280786342298 1 I I 0 1 1.5 forward I I I I #
face $-1 $98 $99 $33 $-1 $100 reversed single #
loop $-1 $-1 $101 $42 #
plane-surface $-1 109.46061395859876 -4.0629933346305336 211.11265660973544 0 -1 0 -0.81915205242281985 0 -0.57357642473473569 forward_v I I I I #
face $-1 $102 $103 $34 $-1 $104 forward single #
loop $-1 $105 $106 $43 #
cone-surface $-1 70.362995360105515 -15.621732731121938 8.9199395186016623 -0.81915205242281985 0 -0.57357642473473569 0.86036463710210354 0 -1.2287280786342298 1 I I 0 1 1.5 forward I I I I #
face $-1 $107 $108 $35 $-1 $109 forward single #
loop $-1 $110 $111 $44 #
cone-surface $-1 70.362995360105515 -8.6864890932270953 8.9199395186016623 -0.81915205242281985 0 -0.57357642473473569 0.86036463710210354 0 -1.2287280786342298 1 I I 0 1 1.5 forward I I I I #
face $-1 $112 $113 $27 $-1 $114 reversed single #
loop $-1 $-1 $115 $45 #
plane-surface $-1 0 0 -12.559528104813634 0 0 1 1 0 0 forward_v I I I I #
coedge $-1 $116 $117 $118 $119 forward $46 $-1 #
face $-1 $120 $121 $28 $-1 $122 reversed single #
loop $-1 $-1 $123 $48 #
plane-surface $-1 0 -32.20035825145851 -10.437091660379156 0 -1 0 0 0 -1 forward_v I I I I #
coedge $-1 $124 $125 $126 $127 reversed $49 $-1 #
face $-1 $128 $129 $29 $-1 $130 reversed single #
loop $-1 $-1 $131 $51 #
plane-surface $-1 0 32.200358251458503 -10.437091660379156 0 1 0 0 0 1 forward_v I I I I #
coedge $-1 $132 $133 $134 $135 reversed $52 $-1 #
face $-1 $136 $137 $30 $-1 $138 reversed single #
loop $-1 $-1 $139 $54 #
plane-surface $-1 -73.406781212805569 -12.154110912174517 6.6412273866383202 -0.81915205242281985 0 0.57357642473473569 0.57357642473473569 0 0.81915205242281985 forward_v I I I I #
coedge $-1 $140 $141 $142 $143 reversed $55 $-1 #
face $-1 $-1 $144 $31 $-1 $145 forward single #
loop $-1 $146 $147 $57 #
cone-surface $-1 -68.77686479367982 -15.621732731121938 7.8093189729262882 0.81915205242281985 0 -0.57357642473473569 0.43018231855105177 0 0.61436403931711492 1 I I -0.70710678118654757 0.70710678118654757 0.75 forward I I I I #
loop $-1 $-1 $148 $40 #
coedge $-1 $92 $92 $149 $150 reversed $58 $-1 #
face $-1 $-1 $151 $32 $-1 $152 forward single #
loop $-1 $153 $154 $60 #
cone-surface $-1 -68.77686479367982 -8.6864890932270953 7.8093189729262882 0.81915205242281985 0 -0.57357642473473569 0.43018231855105177 0 0.61436403931711492 1 I I -0.70710678118654757 0.70710678118654757 0.75 forward I I I I #
loop $-1 $-1 $155 $41 #
coedge $-1 $97 $97 $156 $157 reversed $61 $-1 #
face $-1 $158 $159 $33 $-1 $160 reversed single #
loop $-1 $-1 $161 $63 #
plane-surface $-1 -10.802017025846396 -12.154110912174517 126.90385837108347 0.81915205242281985 0 0.57357642473473569 0.57357642473473569 0 -0.81915205242281985 forward_v I I I I #
coedge $-1 $162 $163 $164 $165 reversed $64 $-1 #
face $-1 $-1 $166 $34 $-1 $167 forward single #
loop $-1 $168 $169 $66 #
cone-surface $-1 68.77686479367982 -15.621732731121938 7.8093189729262953 -0.81915205242281985 0 -0.57357642473473569 0.43018231855105177 0 -0.61436403931711492 1 I I -0.70710678118654757 0.70710678118654757 0.75 forward I I I I #
loop $-1 $-1 $170 $43 #
coedge $-1 $106 $106 $171 $172 reversed $67 $-1 #
face $-1 $-1 $173 $35 $-1 $174 forward single #
loop $-1 $175 $176 $69 #
cone-surface $-1 68.77686479367982 -8.6864890932270953 7.8093189729262953 -0.81915205242281985 0 -0.57357642473473569 0.43018231855105177 0 -0.61436403931711492 1 I I -0.70710678118654757 0.70710678118654757 0.75 forward I I I I #
loop $-1 $-1 $177 $44 #
coedge $-1 $111 $111 $178 $179 reversed $70 $-1 #
face $-1 $180 $181 $27 $-1 $182 reversed single #
loop $-1 $-1 $183 $72 #
plane-surface $-1 0 -43.232420519626473 0 0 1 0 0 0 1 forward_v I I I I #
coedge $-1 $184 $185 $186 $187 forward $73 $-1 #
coedge $-1 $188 $75 $189 $190 forward $46 $-1 #
coedge $-1 $75 $188 $191 $192 forward $46 $-1 #
coedge $-1 $193 $194 $75 $119 reversed $195 $-1 #
edge $-1 $196 -43.232420519626473 $197 43.232420519626473 $118 $198 forward 7 unknown #
face $-1 $199 $200 $28 $-1 $201 reversed single #
loop $-1 $-1 $202 $76 #
plane-surface $-1 0 0 -12.559528104813634 0 0 1 1 0 0 forward_v I I I I #
coedge $-1 $203 $204 $205 $206 reversed $77 $-1 #
coedge $-1 $207 $79 $204 $208 forward $49 $-1 #
coedge $-1 $79 $207 $209 $210 reversed $49 $-1 #
coedge $-1 $211 $205 $79 $127 forward $200 $-1 #
edge $-1 $212 13.342163558687265 $213 24.374225826855227 $126 $214 forward 7 unknown #
face $-1 $215 $216 $29 $-1 $217 reversed single #
loop $-1 $-1 $134 $80 #
plane-surface $-1 73.406781212805569 0 0 -1 0 0 0 0 1 forward_v I I I I #
coedge $-1 $218 $219 $220 $221 reversed $81 $-1 #
coedge $-1 $222 $83 $223 $224 reversed $52 $-1 #
coedge $-1 $83 $222 $219 $225 forward $52 $-1 #
coedge $-1 $226 $227 $83 $135 forward $129 $-1 #
edge $-1 $228 -24.374225826855223 $229 -13.342163558687261 $134 $230 forward 7 unknown #
face $-1 $231 $232 $30 $-1 $233 reversed single #
loop $-1 $-1 $234 $84 #
plane-surface $-1 -193.66941219725072 -20.2452284897185 90.850025625290286 0 1 0 -0.81915205242281985 0 0.57357642473473569 forward_v I I I I #
coedge $-1 $235 $236 $237 $238 reversed $85 $-1 #
coedge $-1 $141 $87 $239 $240 reversed $55 $-1 #
coedge $-1 $87 $140 $235 $241 reversed $55 $-1 #
coedge $-1 $237 $242 $87 $143 forward $232 $-1 #
edge $-1 $243 32.865484707831513 $244 38.783785426006823 $142 $245 forward 7 unknown #
loop $-1 $-1 $149 $88 #
plane-surface $-1 -73.406781212805569 -12.154110912174517 6.6412273866383202 -0.81915205242281985 0 0.57357642473473569 0.57357642473473569 0 0.81915205242281985 forward_v I I I I #
loop $-1 $-1 $246 $57 #
coedge $-1 $147 $147 $148 $247 reversed $89 $-1 #
coedge $-1 $148 $148 $147 $247 forward $91 $-1 #
coedge $-1 $149 $149 $92 $150 forward $144 $-1 #
edge $-1 $248 0 $248 6.2831853071796004 $149 $249 forward 7 unknown #
loop $-1 $-1 $156 $93 #
plane-surface $-1 -73.406781212805569 -12.154110912174517 6.6412273866383202 -0.81915205242281985 0 0.57357642473473569 0.57357642473473569 0 0.81915205242281985 forward_v I I I I #
loop $-1 $-1 $250 $60 #
coedge $-1 $154 $154 $155 $251 reversed $94 $-1 #
coedge $-1 $155 $155 $154 $251 forward $96 $-1 #
coedge $-1 $156 $156 $97 $157 forward $151 $-1 #
edge $-1 $252 0 $252 6.2831853071796004 $156 $253 forward 7 unknown #
face $-1 $254 $255 $33 $-1 $256 forward single #
loop $-1 $-1 $257 $98 #
plane-surface $-1 109.46061395859876 -20.2452284897185 211.11265660973544 0 1 0 0.81915205242281985 0 0.57357642473473569 forward_v I I I I #
coedge $-1 $258 $259 $260 $261 reversed $99 $-1 #
coedge $-1 $163 $101 $262 $263 reversed $64 $-1 #
coedge $-1 $101 $162 $258 $264 reversed $64 $-1 #
coedge $-1 $260 $265 $101 $165 forward $255 $-1 #
edge $-1 $266 -18.676474233506191 $267 -14.532435582323238 $164 $268 forward 7 unknown #
loop $-1 $-1 $171 $102 #
plane-surface $-1 -10.802017025846396 -12.154110912174517 126.90385837108347 0.81915205242281985 0 0.57357642473473569 0.57357642473473569 0 -0.81915205242281985 forward_v I I I I #
loop $-1 $-1 $269 $66 #
coedge $-1 $169 $169 $170 $270 reversed $103 $-1 #
coedge $-1 $170 $170 $169 $270 forward $105 $-1 #
coedge $-1 $171 $171 $106 $172 forward $166 $-1 #
edge $-1 $271 0 $271 6.2831853071796004 $171 $272 forward 7 unknown #
loop $-1 $-1 $178 $107 #
plane-surface $-1 -10.802017025846396 -12.154110912174517 126.90385837108347 0.81915205242281985 0 0.57357642473473569 0.57357642473473569 0 -0.81915205242281985 forward_v I I I I #
loop $-1 $-1 $273 $69 #
coedge $-1 $176 $176 $177 $274 reversed $108 $-1 #
coedge $-1 $177 $177 $176 $274 forward $110 $-1 #
coedge $-1 $178 $178 $111 $179 forward $173 $-1 #
edge $-1 $275 0 $275 6.2831853071796004 $178 $276 forward 7 unknown #
face $-1 $277 $278 $27 $-1 $279 reversed single #
loop $-1 $-1 $280 $112 #
plane-surface $-1 -73.406781212805569 0 0 1 0 0 0 0 -1 forward_v I I I I #
coedge $-1 $281 $191 $282 $283 forward $113 $-1 #
coedge $-1 $284 $115 $281 $285 forward $73 $-1 #
coedge $-1 $115 $284 $286 $287 forward $73 $-1 #
coedge $-1 $194 $193 $115 $187 reversed $195 $-1 #
edge $-1 $288 -43.232420519626473 $289 43.232420519626473 $186 $290 forward 7 unknown #
coedge $-1 $117 $116 $291 $292 forward $46 $-1 #
coedge $-1 $293 $294 $116 $190 reversed $278 $-1 #
edge $-1 $197 -73.406781212805569 $295 73.406781212805569 $189 $296 forward 7 unknown #
coedge $-1 $183 $297 $117 $192 reversed $113 $-1 #
edge $-1 $298 -73.406781212805569 $196 73.406781212805569 $191 $299 forward 7 unknown #
coedge $-1 $186 $118 $297 $300 forward $195 $-1 #
coedge $-1 $118 $186 $293 $301 reversed $195 $-1 #
loop $-1 $-1 $193 $277 #
vertex $-1 $119 $302 #
vertex $-1 $119 $303 #
straight-curve $-1 73.406781212805569 0 12.559528104813634 0 1 0 I I #
face $-1 $304 $305 $28 $-1 $306 reversed single #
loop $-1 $-1 $205 $120 #
plane-surface $-1 73.406781212805569 0 0 -1 0 0 0 0 1 forward_v I I I I #
coedge $-1 $307 $308 $203 $309 forward $121 $-1 #
coedge $-1 $310 $123 $202 $309 reversed $77 $-1 #
coedge $-1 $123 $310 $124 $208 reversed $77 $-1 #
coedge $-1 $126 $311 $123 $206 forward $200 $-1 #
edge $-1 $312 -7.3409822746240554 $212 -3.096109385755101 $205 $313 forward 7 unknown #
coedge $-1 $125 $124 $314 $315 reversed $49 $-1 #
edge $-1 $212 -73.406781212805569 $316 73.406781212805569 $204 $317 forward 7 unknown #
coedge $-1 $318 $319 $125 $210 forward $305 $-1 #
edge $-1 $213 -73.406781212805569 $320 73.406781212805569 $209 $321 forward 7 unknown #
coedge $-1 $311 $126 $319 $322 forward $200 $-1 #
vertex $-1 $127 $323 #
vertex $-1 $322 $324 #
straight-curve $-1 73.406781212805569 -18.858194692771246 -8.3146552159446792 0 -1 0 I I #
face $-1 $325 $326 $29 $-1 $327 reversed single #
loop $-1 $-1 $328 $128 #
plane-surface $-1 0 0 -12.559528104813634 0 0 1 1 0 0 forward_v I I I I #
coedge $-1 $329 $131 $328 $330 reversed $81 $-1 #
coedge $-1 $131 $329 $133 $225 reversed $81 $-1 #
coedge $-1 $331 $332 $131 $221 forward $326 $-1 #
edge $-1 $333 -7.3409822746240554 $334 -3.096109385755101 $220 $335 forward 7 unknown #
coedge $-1 $133 $132 $331 $336 reversed $52 $-1 #
coedge $-1 $337 $338 $132 $224 forward $339 $-1 #
edge $-1 $340 -73.406781212805569 $228 73.406781212805569 $223 $341 forward 7 unknown #
edge $-1 $334 -73.406781212805569 $229 73.406781212805569 $219 $342 forward 7 unknown #
coedge $-1 $343 $134 $329 $344 forward $129 $-1 #
coedge $-1 $134 $343 $337 $345 reversed $129 $-1 #
vertex $-1 $345 $346 #
vertex $-1 $135 $347 #
straight-curve $-1 73.406781212805569 18.858194692771242 -8.3146552159446792 0 -1 0 I I #
face $-1 $-1 $348 $30 $-1 $349 forward single #
loop $-1 $-1 $142 $136 #
plane-surface $-1 -73.406781212805569 0 0 1 0 0 0 0 -1 forward_v I I I I #
coedge $-1 $350 $351 $352 $353 reversed $137 $-1 #
coedge $-1 $354 $139 $141 $241 forward $85 $-1 #
coedge $-1 $139 $354 $350 $355 forward $85 $-1 #
coedge $-1 $352 $142 $139 $238 forward $232 $-1 #
edge $-1 $244 -2.0140621214567247 $356 14.168173033631241 $237 $357 forward 7 unknown #
coedge $-1 $358 $359 $140 $240 forward $348 $-1 #
edge $-1 $360 -27.571963537002745 $243 -23.427924885819792 $239 $361 forward 7 unknown #
edge $-1 $244 0 $360 7.2249110536568306 $141 $362 forward 7 unknown #
coedge $-1 $142 $352 $358 $363 reversed $232 $-1 #
vertex $-1 $363 $364 #
vertex $-1 $143 $365 #
straight-curve $-1 -73.406781212805569 -4.0629933346305336 45.425012812645143 0 0 -1 I I #
coedge $-1 $246 $246 $-1 $366 reversed $146 $-1 #
edge $-1 $367 0 $367 6.2831853071796004 $147 $368 forward 7 unknown #
vertex $-1 $150 $369 #
ellipse-curve $-1 -71.3347618872141 -15.621732731121938 9.6003777457259716 -0.81915205242281985 0 0.57357642473473569 0.86036463710210354 0 1.2287280786342298 1 I I #
coedge $-1 $250 $250 $-1 $370 reversed $153 $-1 #
edge $-1 $371 0 $371 6.2831853071796004 $154 $372 forward 7 unknown #
vertex $-1 $157 $373 #
ellipse-curve $-1 -71.3347618872141 -8.6864890932270953 9.6003777457259716 -0.81915205242281985 0 0.57357642473473569 0.86036463710210354 0 1.2287280786342298 1 I I #
face $-1 $-1 $374 $33 $-1 $375 reversed single #
loop $-1 $-1 $164 $158 #
plane-surface $-1 0 0 12.559528104813634 0 0 1 1 0 0 forward_v I I I I #
coedge $-1 $376 $377 $378 $379 reversed $159 $-1 #
coedge $-1 $380 $161 $163 $264 forward $99 $-1 #
coedge $-1 $161 $380 $376 $381 forward $99 $-1 #
coedge $-1 $378 $164 $161 $261 forward $255 $-1 #
edge $-1 $267 -2.0140621214567247 $382 14.168173033631241 $260 $383 forward 7 unknown #
coedge $-1 $384 $385 $162 $263 forward $374 $-1 #
edge $-1 $386 -98.915100918229399 $266 -92.996800200054082 $262 $387 forward 7 unknown #
edge $-1 $267 139.58865137195434 $386 146.81356242561117 $163 $388 forward 7 unknown #
coedge $-1 $164 $378 $384 $389 forward $255 $-1 #
vertex $-1 $165 $390 #
vertex $-1 $165 $391 #
straight-curve $-1 54.730306979299378 -4.0629933346305336 12.559528104813637 -1 0 0 I I #
coedge $-1 $269 $269 $-1 $392 reversed $168 $-1 #
edge $-1 $393 0 $393 6.2831853071796004 $169 $394 forward 7 unknown #
vertex $-1 $172 $395 #
ellipse-curve $-1 71.334761887214086 -15.621732731121938 9.6003777457259716 0.81915205242281985 0 0.57357642473473569 0.86036463710210354 0 -1.2287280786342298 1 I I #
coedge $-1 $273 $273 $-1 $396 reversed $175 $-1 #
edge $-1 $397 0 $397 6.2831853071796004 $176 $398 forward 7 unknown #
vertex $-1 $179 $399 #
ellipse-curve $-1 71.334761887214086 -8.6864890932270953 9.6003777457259716 0.81915205242281985 0 0.57357642473473569 0.86036463710210354 0 -1.2287280786342298 1 I I #
face $-1 $-1 $195 $27 $-1 $400 reversed single #
loop $-1 $-1 $293 $180 #
plane-surface $-1 0 43.232420519626473 0 0 -1 0 0 0 -1 forward_v I I I I #
coedge $-1 $401 $291 $294 $402 forward $181 $-1 #
coedge $-1 $297 $183 $184 $285 reversed $113 $-1 #
coedge $-1 $291 $401 $183 $283 reversed $181 $-1 #
edge $-1 $298 -12.559528104813634 $403 12.559528104813634 $282 $404 forward 7 unknown #
coedge $-1 $185 $184 $401 $405 forward $73 $-1 #
edge $-1 $289 -73.406781212805569 $403 73.406781212805569 $281 $406 forward 7 unknown #
coedge $-1 $294 $293 $185 $287 reversed $278 $-1 #
edge $-1 $407 -73.406781212805569 $288 73.406781212805569 $286 $408 forward 7 unknown #
vertex $-1 $187 $409 #
vertex $-1 $300 $410 #
straight-curve $-1 73.406781212805569 0 -12.559528104813634 0 -1 0 I I #
coedge $-1 $280 $282 $188 $292 reversed $181 $-1 #
edge $-1 $295 -43.232420519626473 $298 43.232420519626473 $291 $411 forward 7 unknown #
coedge $-1 $286 $189 $194 $301 forward $278 $-1 #
coedge $-1 $189 $286 $280 $402 reversed $278 $-1 #
vertex $-1 $190 $412 #
straight-curve $-1 0 43.232420519626473 12.559528104813634 -1 0 0 I I #
coedge $-1 $191 $281 $193 $300 reversed $113 $-1 #
vertex $-1 $292 $413 #
straight-curve $-1 0 -43.232420519626473 12.559528104813634 1 0 0 I I #
edge $-1 $196 -12.559528104813634 $289 12.559528104813634 $193 $414 forward 7 unknown #
edge $-1 $197 -12.559528104813634 $288 12.559528104813634 $194 $415 forward 7 unknown #
point $-1 73.406781212805569 -43.232420519626473 12.559528104813634 #
point $-1 73.406781212805569 43.232420519626473 12.559528104813634 #
face $-1 $-1 $416 $28 $-1 $417 reversed single #
loop $-1 $-1 $209 $199 #
plane-surface $-1 0 -43.232420519626473 0 0 1 0 0 0 1 forward_v I I I I #
coedge $-1 $418 $202 $311 $419 forward $121 $-1 #
coedge $-1 $202 $418 $420 $421 forward $121 $-1 #
edge $-1 $422 -73.406781212805569 $312 73.406781212805569 $202 $423 forward 7 unknown #
coedge $-1 $204 $203 $424 $425 reversed $77 $-1 #
coedge $-1 $205 $211 $307 $419 reversed $200 $-1 #
vertex $-1 $419 $426 #
straight-curve $-1 73.406781212805569 -32.20035825145851 -5.2185458301895782 0 0 1 I I #
coedge $-1 $424 $427 $207 $315 forward $416 $-1 #
edge $-1 $320 -24.374225826855227 $316 -13.342163558687265 $314 $428 forward 7 unknown #
vertex $-1 $315 $429 #
straight-curve $-1 0 -32.20035825145851 -8.3146552159446792 -1 0 0 I I #
coedge $-1 $430 $209 $427 $431 forward $305 $-1 #
coedge $-1 $209 $430 $211 $322 reversed $305 $-1 #
vertex $-1 $431 $432 #
straight-curve $-1 0 -43.232420519626473 -8.3146552159446792 -1 0 0 I I #
edge $-1 $213 8.3146552159446792 $433 12.559528104813634 $211 $434 forward 7 unknown #
point $-1 73.406781212805569 -32.20035825145851 -8.3146552159446792 #
point $-1 73.406781212805569 -43.232420519626473 -8.3146552159446792 #
face $-1 $-1 $339 $29 $-1 $435 reversed single #
loop $-1 $-1 $331 $215 #
plane-surface $-1 -73.406781212805569 0 0 1 0 0 0 0 -1 forward_v I I I I #
coedge $-1 $436 $437 $218 $330 forward $216 $-1 #
coedge $-1 $219 $218 $226 $344 reversed $81 $-1 #
edge $-1 $438 -73.406781212805569 $333 73.406781212805569 $328 $439 forward 7 unknown #
coedge $-1 $440 $220 $222 $336 forward $326 $-1 #
coedge $-1 $220 $440 $436 $441 reversed $326 $-1 #
vertex $-1 $441 $442 #
vertex $-1 $336 $443 #
straight-curve $-1 -73.406781212805569 32.200358251458503 -5.2185458301895782 0 0 1 I I #
edge $-1 $334 13.342163558687261 $340 24.374225826855223 $331 $444 forward 7 unknown #
coedge $-1 $445 $223 $227 $345 forward $339 $-1 #
coedge $-1 $223 $445 $440 $446 reversed $339 $-1 #
loop $-1 $-1 $223 $325 #
vertex $-1 $446 $447 #
straight-curve $-1 0 43.232420519626473 -8.3146552159446792 1 0 0 I I #
straight-curve $-1 0 32.200358251458503 -8.3146552159446792 1 0 0 I I #
coedge $-1 $227 $226 $437 $448 reversed $129 $-1 #
edge $-1 $229 3.096109385755101 $438 7.3409822746240554 $226 $449 forward 7 unknown #
edge $-1 $228 8.3146552159446792 $450 12.559528104813634 $227 $451 forward 7 unknown #
point $-1 73.406781212805569 43.232420519626466 -8.3146552159446792 #
point $-1 73.406781212805569 32.200358251458503 -8.3146552159446792 #
loop $-1 $-1 $239 $231 #
plane-surface $-1 0 0 12.559528104813634 0 0 1 1 0 0 forward_v I I I I #
coedge $-1 $351 $234 $236 $355 reversed $137 $-1 #
coedge $-1 $234 $350 $452 $453 reversed $137 $-1 #
coedge $-1 $242 $237 $234 $353 forward $232 $-1 #
edge $-1 $356 -38.783785426006823 $454 -32.865484707831513 $352 $455 forward 7 unknown #
coedge $-1 $236 $235 $359 $456 reversed $85 $-1 #
edge $-1 $457 -7.2249110536568306 $356 0 $350 $458 forward 7 unknown #
vertex $-1 $238 $459 #
straight-curve $-1 -73.406781212805569 -6.0770554560872583 6.6412273866383131 0 -1 0 I I #
coedge $-1 $452 $239 $242 $363 forward $348 $-1 #
coedge $-1 $239 $452 $354 $456 forward $348 $-1 #
vertex $-1 $240 $460 #
straight-curve $-1 -96.834706098625361 -4.0629933346305336 12.55952810481363 -1 0 0 I I #
straight-curve $-1 -73.406781212805569 -4.0629933346305336 6.6412273866383202 0.57357642473473569 0 0.81915205242281985 I I #
edge $-1 $243 4.0629933346305336 $454 20.2452284897185 $242 $461 forward 7 unknown #
point $-1 -73.406781212805569 -4.0629933346305336 12.559528104813634 #
point $-1 -73.406781212805569 -4.0629933346305336 6.6412273866383202 #
edge $-1 $462 1 $462 0 $246 $-1 forward 7 unknown #
vertex $-1 $247 $463 #
ellipse-curve $-1 -69.39122883299693 -15.621732731121938 8.2395012914773407 -0.81915205242281985 0 0.57357642473473569 0.86036463710210354 0 1.2287280786342298 1 I I #
point $-1 -70.474397250111991 -15.621732731121938 10.829105824360202 #
edge $-1 $464 1 $464 0 $250 $-1 forward 7 unknown #
vertex $-1 $251 $465 #
ellipse-curve $-1 -69.39122883299693 -8.6864890932270953 8.2395012914773407 -0.81915205242281985 0 0.57357642473473569 0.86036463710210354 0 1.2287280786342298 1 I I #
point $-1 -70.474397250111991 -8.6864890932270953 10.829105824360202 #
loop $-1 $-1 $262 $254 #
plane-surface $-1 73.406781212805569 0 0 -1 0 0 0 0 1 forward_v I I I I #
coedge $-1 $377 $257 $259 $381 reversed $159 $-1 #
coedge $-1 $257 $376 $466 $467 reversed $159 $-1 #
coedge $-1 $265 $260 $257 $379 forward $255 $-1 #
edge $-1 $382 14.532435582323238 $468 18.676474233506191 $378 $469 forward 7 unknown #
coedge $-1 $259 $258 $385 $470 reversed $99 $-1 #
edge $-1 $471 -146.81356242561117 $382 -139.58865137195434 $376 $472 forward 7 unknown #
vertex $-1 $261 $473 #
straight-curve $-1 69.262742561622602 -6.0770554560872583 12.559528104813637 0 -1 0 I I #
coedge $-1 $466 $262 $265 $389 reversed $374 $-1 #
coedge $-1 $262 $466 $380 $470 forward $374 $-1 #
vertex $-1 $263 $474 #
straight-curve $-1 73.406781212805569 -4.0629933346305336 105.55632830486772 0 0 1 I I #
straight-curve $-1 -10.802017025846396 -4.0629933346305336 126.90385837108347 0.57357642473473569 0 -0.81915205242281985 I I #
edge $-1 $468 -20.2452284897185 $266 -4.0629933346305336 $384 $475 forward 7 unknown #
point $-1 73.406781212805569 -4.0629933346305336 12.559528104813634 #
point $-1 69.262742561622616 -4.0629933346305336 12.559528104813623 #
edge $-1 $476 1 $476 0 $269 $-1 forward 7 unknown #
vertex $-1 $270 $477 #
ellipse-curve $-1 69.39122883299693 -15.621732731121938 8.2395012914773478 0.81915205242281985 0 0.57357642473473569 0.86036463710210354 0 -1.2287280786342298 1 I I #
point $-1 72.195126524316194 -15.621732731121938 8.3716496670917486 #
edge $-1 $478 1 $478 0 $273 $-1 forward 7 unknown #
vertex $-1 $274 $479 #
ellipse-curve $-1 69.39122883299693 -8.6864890932270953 8.2395012914773478 0.81915205242281985 0 0.57357642473473569 0.86036463710210354 0 -1.2287280786342298 1 I I #
point $-1 72.195126524316194 -8.6864890932270953 8.3716496670917486 #
plane-surface $-1 73.406781212805569 0 0 -1 0 0 0 0 1 forward_v I I I I #
coedge $-1 $282 $280 $284 $405 reversed $181 $-1 #
edge $-1 $295 -12.559528104813634 $407 12.559528104813634 $294 $480 forward 7 unknown #
vertex $-1 $405 $481 #
straight-curve $-1 -73.406781212805569 -43.232420519626473 0 0 0 -1 I I #
edge $-1 $403 -43.232420519626473 $407 43.232420519626473 $401 $482 forward 7 unknown #
straight-curve $-1 0 -43.232420519626473 -12.559528104813634 -1 0 0 I I #
vertex $-1 $287 $483 #
straight-curve $-1 0 43.232420519626473 -12.559528104813634 1 0 0 I I #
point $-1 73.406781212805569 43.232420519626473 -12.559528104813634 #
point $-1 73.406781212805569 -43.232420519626473 -12.559528104813634 #
straight-curve $-1 -73.406781212805569 0 12.559528104813634 0 -1 0 I I #
point $-1 -73.406781212805569 43.232420519626473 12.559528104813634 #
point $-1 -73.406781212805569 -43.232420519626473 12.559528104813634 #
straight-curve $-1 73.406781212805569 -43.232420519626473 0 0 0 -1 I I #
straight-curve $-1 73.406781212805569 43.232420519626473 0 0 0 -1 I I #
loop $-1 $-1 $424 $304 #
plane-surface $-1 -73.406781212805569 0 0 1 0 0 0 0 -1 forward_v I I I I #
coedge $-1 $308 $307 $430 $484 forward $121 $-1 #
edge $-1 $312 32.20035825145851 $433 43.232420519626473 $311 $485 forward 7 unknown #
coedge $-1 $427 $424 $308 $421 reversed $416 $-1 #
edge $-1 $486 -43.232420519626473 $422 -32.20035825145851 $420 $487 forward 7 unknown #
vertex $-1 $425 $488 #
straight-curve $-1 0 -32.20035825145851 -12.559528104813634 1 0 0 I I #
coedge $-1 $420 $314 $310 $425 forward $416 $-1 #
edge $-1 $316 3.096109385755101 $422 7.3409822746240554 $424 $489 forward 7 unknown #
point $-1 73.406781212805569 -32.20035825145851 -12.559528104813634 #
coedge $-1 $314 $420 $318 $431 reversed $416 $-1 #
straight-curve $-1 -73.406781212805569 -18.858194692771246 -8.3146552159446792 0 1 0 I I #
point $-1 -73.406781212805569 -32.20035825145851 -8.3146552159446792 #
coedge $-1 $319 $318 $418 $484 reversed $305 $-1 #
edge $-1 $320 8.3146552159446792 $486 12.559528104813634 $427 $490 forward 7 unknown #
point $-1 -73.406781212805569 -43.232420519626473 -8.3146552159446792 #
vertex $-1 $322 $491 #
straight-curve $-1 73.406781212805569 -43.232420519626473 0 0 0 -1 I I #
plane-surface $-1 0 43.232420519626473 0 0 -1 0 0 0 -1 forward_v I I I I #
coedge $-1 $492 $328 $332 $441 forward $216 $-1 #
coedge $-1 $328 $492 $343 $448 forward $216 $-1 #
vertex $-1 $330 $493 #
straight-curve $-1 0 32.200358251458503 -12.559528104813634 -1 0 0 I I #
coedge $-1 $332 $331 $338 $446 forward $326 $-1 #
edge $-1 $333 32.200358251458503 $494 43.232420519626473 $332 $495 forward 7 unknown #
point $-1 -73.406781212805569 32.200358251458503 -12.559528104813634 #
point $-1 -73.406781212805569 32.200358251458503 -8.3146552159446792 #
straight-curve $-1 -73.406781212805569 18.858194692771242 -8.3146552159446792 0 1 0 I I #
coedge $-1 $338 $337 $492 $496 reversed $339 $-1 #
edge $-1 $340 8.3146552159446792 $494 12.559528104813634 $338 $497 forward 7 unknown #
point $-1 -73.406781212805569 43.232420519626466 -8.3146552159446792 #
edge $-1 $450 -43.232420519626473 $438 -32.200358251458503 $343 $498 forward 7 unknown #
straight-curve $-1 73.406781212805569 32.200358251458503 -5.2185458301895782 0 0 -1 I I #
vertex $-1 $448 $499 #
straight-curve $-1 73.406781212805569 43.232420519626473 0 0 0 -1 I I #
coedge $-1 $359 $358 $351 $453 forward $348 $-1 #
edge $-1 $454 23.427924885819792 $457 27.571963537002745 $452 $500 forward 7 unknown #
vertex $-1 $453 $501 #
straight-curve $-1 -73.406781212805569 -20.2452284897185 45.425012812645143 0 0 1 I I #
edge $-1 $457 -14.168173033631241 $360 2.0140621214567247 $359 $502 forward 7 unknown #
vertex $-1 $456 $503 #
straight-curve $-1 -73.406781212805569 -20.2452284897185 6.6412273866383202 -0.57357642473473569 0 -0.81915205242281985 I I #
point $-1 -73.406781212805569 -20.2452284897185 6.6412273866383202 #
point $-1 -69.262742561622616 -4.0629933346305336 12.559528104813634 #
straight-curve $-1 -73.406781212805569 0 12.559528104813634 0 -1 0 I I #
vertex $-1 $366 $504 #
point $-1 -68.530864195894836 -15.621732731121938 9.468229370111569 #
vertex $-1 $370 $505 #
point $-1 -68.530864195894836 -8.6864890932270953 9.468229370111569 #
coedge $-1 $385 $384 $377 $467 forward $374 $-1 #
edge $-1 $468 92.996800200054082 $471 98.915100918229399 $466 $506 forward 7 unknown #
vertex $-1 $389 $507 #
straight-curve $-1 54.730306979299378 -20.2452284897185 12.559528104813637 1 0 0 I I #
edge $-1 $471 -14.168173033631241 $386 2.0140621214567247 $385 $508 forward 7 unknown #
vertex $-1 $470 $509 #
straight-curve $-1 -10.802017025846396 -20.2452284897185 126.90385837108347 -0.57357642473473569 0 0.81915205242281985 I I #
point $-1 69.262742561622616 -20.2452284897185 12.559528104813623 #
point $-1 73.406781212805569 -4.0629933346305336 6.6412273866383202 #
straight-curve $-1 73.406781212805569 0 12.559528104813634 0 1 0 I I #
vertex $-1 $392 $510 #
point $-1 70.251593470099039 -15.621732731121938 7.0107732128431177 #
vertex $-1 $396 $511 #
point $-1 70.251593470099039 -8.6864890932270953 7.0107732128431177 #
straight-curve $-1 -73.406781212805569 43.232420519626473 0 0 0 -1 I I #
point $-1 -73.406781212805569 -43.232420519626473 -12.559528104813634 #
straight-curve $-1 -73.406781212805569 0 -12.559528104813634 0 1 0 I I #
point $-1 -73.406781212805569 43.232420519626473 -12.559528104813634 #
edge $-1 $433 -73.406781212805569 $486 73.406781212805569 $430 $512 forward 7 unknown #
straight-curve $-1 73.406781212805569 0 -12.559528104813634 0 -1 0 I I #
vertex $-1 $421 $513 #
straight-curve $-1 -73.406781212805569 0 -12.559528104813634 0 1 0 I I #
point $-1 -73.406781212805569 -32.20035825145851 -12.559528104813634 #
straight-curve $-1 -73.406781212805569 -32.20035825145851 -5.2185458301895782 0 0 -1 I I #
straight-curve $-1 -73.406781212805569 -43.232420519626473 0 0 0 -1 I I #
point $-1 73.406781212805569 -43.232420519626473 -12.559528104813634 #
coedge $-1 $437 $436 $445 $496 forward $216 $-1 #
point $-1 73.406781212805569 32.200358251458503 -12.559528104813634 #
vertex $-1 $496 $514 #
straight-curve $-1 -73.406781212805569 0 -12.559528104813634 0 1 0 I I #
edge $-1 $494 -73.406781212805569 $450 73.406781212805569 $445 $515 forward 7 unknown #
straight-curve $-1 -73.406781212805569 43.232420519626473 0 0 0 -1 I I #
straight-curve $-1 73.406781212805569 0 -12.559528104813634 0 -1 0 I I #
point $-1 73.406781212805569 43.232420519626473 -12.559528104813634 #
straight-curve $-1 -96.834706098625361 -20.2452284897185 12.55952810481363 1 0 0 I I #
point $-1 -73.406781212805569 -20.2452284897185 12.559528104813634 #
straight-curve $-1 -69.262742561622616 -6.0770554560872583 12.559528104813634 0 1 0 I I #
point $-1 -69.262742561622616 -20.2452284897185 12.559528104813634 #
point $-1 -68.162500754362711 -15.621732731121938 7.3791366543752366 #
point $-1 -68.162500754362711 -8.6864890932270953 7.3791366543752366 #
straight-curve $-1 73.406781212805569 -20.2452284897185 105.55632830486772 0 0 -1 I I #
point $-1 73.406781212805569 -20.2452284897185 12.559528104813634 #
straight-curve $-1 73.406781212805583 -6.0770554560872583 6.6412273866383202 0 1 0 I I #
point $-1 73.406781212805569 -20.2452284897185 6.6412273866383202 #
point $-1 68.162500754362711 -15.621732731121938 7.3791366543752437 #
point $-1 68.162500754362711 -8.6864890932270953 7.3791366543752437 #
straight-curve $-1 0 -43.232420519626473 -12.559528104813634 -1 0 0 I I #
point $-1 -73.406781212805569 -43.232420519626473 -12.559528104813634 #
point $-1 -73.406781212805569 43.232420519626473 -12.559528104813634 #
straight-curve $-1 0 43.232420519626473 -12.559528104813634 1 0 0 I I #
End-of-ACIS-data 