500 0 8 0           
7 Unknown 11 ACIS 5.0 NT 24 Thu Mar 25 21:10:49 1999 
-1 9.9999999999999995e-007 1e-010 
body $-1 $8 $-1 $9 #
body $-1 $10 $-1 $11 #
body $-1 $12 $-1 $13 #
body $-1 $14 $-1 $15 #
body $-1 $16 $-1 $17 #
body $-1 $18 $-1 $19 #
body $-1 $20 $-1 $21 #
body $-1 $22 $-1 $23 #
lump $-1 $-1 $24 $0 #
transform $-1 1 0 0 0 1 0 0 0 1 76.578264717551193 39.919695281638091 19.163451730128205 1 rotate no_reflect no_shear #
lump $-1 $-1 $25 $1 #
transform $-1 1 0 0 0 1 0 0 0 1 76.578264717551193 39.919695281638091 19.163451730128205 1 rotate no_reflect no_shear #
lump $-1 $-1 $26 $2 #
transform $-1 1 0 0 0 1 0 0 0 1 76.578264717551193 39.919695281638091 19.163451730128205 1 rotate no_reflect no_shear #
lump $-1 $-1 $27 $3 #
transform $-1 1 0 0 0 1 0 0 0 1 76.578264717551193 39.919695281638091 19.163451730128205 1 rotate no_reflect no_shear #
lump $-1 $-1 $28 $4 #
transform $-1 1 0 0 0 1 0 0 0 1 76.578264717551193 39.919695281638091 19.163451730128205 1 rotate no_reflect no_shear #
lump $-1 $-1 $29 $5 #
transform $-1 1 0 0 0 1 0 0 0 1 76.578264717551193 39.919695281638091 19.163451730128205 1 rotate no_reflect no_shear #
lump $-1 $-1 $30 $6 #
transform $-1 1 0 0 0 1 0 0 0 1 76.578264717551193 39.919695281638091 19.163451730128205 1 rotate no_reflect no_shear #
lump $-1 $-1 $31 $7 #
transform $-1 1 0 0 0 1 0 0 0 1 76.578264717551193 39.919695281638091 19.163451730128205 1 rotate no_reflect no_shear #
shell $-1 $-1 $-1 $32 $-1 $8 #
shell $-1 $-1 $-1 $33 $-1 $10 #
shell $-1 $-1 $-1 $34 $-1 $12 #
shell $-1 $-1 $-1 $35 $-1 $14 #
shell $-1 $-1 $-1 $36 $-1 $16 #
shell $-1 $-1 $-1 $37 $-1 $18 #
shell $-1 $-1 $-1 $38 $-1 $20 #
shell $-1 $-1 $-1 $39 $-1 $22 #
face $-1 $40 $41 $24 $-1 $42 forward single #
face $-1 $43 $44 $25 $-1 $45 reversed single #
face $-1 $46 $47 $26 $-1 $48 reversed single #
face $-1 $49 $50 $27 $-1 $51 forward single #
face $-1 $52 $53 $28 $-1 $54 forward single #
face $-1 $55 $56 $29 $-1 $57 reversed single #
face $-1 $58 $59 $30 $-1 $60 forward single #
face $-1 $61 $62 $31 $-1 $63 forward single #
face $-1 $64 $65 $24 $-1 $66 reversed single #
loop $-1 $-1 $67 $32 #
plane-surface $-1 0 0 19.163451730128205 0 0 1 1 0 0 forward_v I I I I #
face $-1 $68 $69 $25 $-1 $70 reversed single #
loop $-1 $-1 $71 $33 #
plane-surface $-1 0 -29.225913733683065 11.87833399516574 0 0 1 1 0 0 forward_v I I I I #
face $-1 $72 $73 $26 $-1 $74 reversed single #
loop $-1 $-1 $75 $34 #
plane-surface $-1 -164.42524220699462 1.4782811557289257 139.65373014573512 0 1 0 -0.57357644374324357 0 0.81915203911291934 forward_v I I I I #
face $-1 $76 $77 $27 $-1 $78 forward single #
loop $-1 $79 $80 $35 #
cone-surface $-1 -72.011370216372612 4.1112812677935295 15.223740043645016 0.57357644374324357 0 -0.81915203911291934 0.81915203911291934 0 0.57357644374324357 1 I I 0 1 1 forward I I I I #
face $-1 $81 $82 $28 $-1 $83 forward single #
loop $-1 $84 $85 $36 #
cone-surface $-1 -72.011370216372612 8.0607814358904264 15.223740043645016 0.57357644374324357 0 -0.81915203911291934 0.81915203911291934 0 0.57357644374324357 1 I I 0 1 1 forward I I I I #
face $-1 $86 $87 $29 $-1 $88 reversed single #
loop $-1 $-1 $89 $37 #
plane-surface $-1 -76.578264717551193 6.0860313518419744 14.195246755513153 -0.57357644374324357 0 0.81915203911291934 0.81915203911291934 0 0.57357644374324357 forward_v I I I I #
face $-1 $90 $91 $30 $-1 $92 forward single #
loop $-1 $93 $94 $38 #
cone-surface $-1 -72.011370216372612 13.326781660019627 15.223740043645016 0.57357644374324357 0 -0.81915203911291934 0.81915203911291934 0 0.57357644374324357 1 I I 0 1 1 forward I I I I #
face $-1 $95 $96 $31 $-1 $97 forward single #
loop $-1 $98 $99 $39 #
cone-surface $-1 -72.011370216372612 17.276281828116524 15.223740043645016 0.57357644374324357 0 -0.81915203911291934 0.81915203911291934 0 0.57357644374324357 1 I I 0 1 1 forward I I I I #
face $-1 $100 $101 $24 $-1 $102 reversed single #
loop $-1 $-1 $103 $40 #
plane-surface $-1 0 0 -19.163451730128205 0 0 1 1 0 0 forward_v I I I I #
coedge $-1 $104 $105 $106 $107 forward $41 $-1 #
face $-1 $108 $109 $25 $-1 $110 reversed single #
loop $-1 $-1 $111 $43 #
plane-surface $-1 0 -18.532132185728038 15.520892862646971 0 -1 0 0 0 -1 forward_v I I I I #
coedge $-1 $112 $113 $114 $115 reversed $44 $-1 #
face $-1 $116 $117 $26 $-1 $118 reversed single #
loop $-1 $-1 $119 $46 #
plane-surface $-1 -76.578264717551193 6.0860313518419744 14.195246755513153 -0.57357644374324357 0 0.81915203911291934 0.81915203911291934 0 0.57357644374324357 forward_v I I I I #
coedge $-1 $120 $121 $122 $123 reversed $47 $-1 #
face $-1 $-1 $124 $27 $-1 $125 forward single #
loop $-1 $126 $127 $49 #
cone-surface $-1 -70.705353440974761 4.1112812677935295 13.358554824912897 0.57357644374324357 0 -0.81915203911291934 0.40957601955645967 0 0.28678822187162178 1 I I -0.70710678118654746 0.70710678118654746 0.5 forward I I I I #
loop $-1 $-1 $128 $35 #
coedge $-1 $80 $80 $129 $130 reversed $50 $-1 #
face $-1 $-1 $131 $28 $-1 $132 forward single #
loop $-1 $133 $134 $52 #
cone-surface $-1 -70.705353440974761 8.0607814358904264 13.358554824912897 0.57357644374324357 0 -0.81915203911291934 0.40957601955645967 0 0.28678822187162178 1 I I -0.70710678118654746 0.70710678118654746 0.5 forward I I I I #
loop $-1 $-1 $135 $36 #
coedge $-1 $85 $85 $136 $137 reversed $53 $-1 #
face $-1 $138 $139 $29 $-1 $140 forward single #
loop $-1 $-1 $141 $55 #
plane-surface $-1 -164.42524220699462 19.909281940181121 139.65373014573512 0 -1 0 0.57357644374324357 0 -0.81915203911291934 forward_v I I I I #
coedge $-1 $142 $143 $144 $145 reversed $56 $-1 #
face $-1 $-1 $146 $30 $-1 $147 forward single #
loop $-1 $148 $149 $58 #
cone-surface $-1 -70.705353440974761 13.326781660019627 13.358554824912897 0.57357644374324357 0 -0.81915203911291934 0.40957601955645967 0 0.28678822187162178 1 I I -0.70710678118654746 0.70710678118654746 0.5 forward I I I I #
loop $-1 $-1 $150 $38 #
coedge $-1 $94 $94 $151 $152 reversed $59 $-1 #
face $-1 $-1 $153 $31 $-1 $154 forward single #
loop $-1 $155 $156 $61 #
cone-surface $-1 -70.705353440974761 17.276281828116524 13.358554824912897 0.57357644374324357 0 -0.81915203911291934 0.40957601955645967 0 0.28678822187162178 1 I I -0.70710678118654746 0.70710678118654746 0.5 forward I I I I #
loop $-1 $-1 $157 $39 #
coedge $-1 $99 $99 $158 $159 reversed $62 $-1 #
face $-1 $160 $161 $24 $-1 $162 reversed single #
loop $-1 $-1 $163 $64 #
plane-surface $-1 0 -39.919695281638091 0 0 1 0 0 0 1 forward_v I I I I #
coedge $-1 $164 $165 $166 $167 forward $65 $-1 #
coedge $-1 $168 $67 $169 $170 forward $41 $-1 #
coedge $-1 $67 $168 $171 $172 forward $41 $-1 #
coedge $-1 $173 $174 $67 $107 reversed $175 $-1 #
edge $-1 $176 -39.919695281638091 $177 39.919695281638091 $106 $178 forward 7 unknown #
face $-1 $179 $180 $25 $-1 $181 reversed single #
loop $-1 $-1 $182 $68 #
plane-surface $-1 -76.578264717551193 0 0 1 0 0 0 0 -1 forward_v I I I I #
coedge $-1 $183 $184 $185 $186 reversed $69 $-1 #
coedge $-1 $187 $71 $188 $189 reversed $44 $-1 #
coedge $-1 $71 $187 $183 $190 forward $44 $-1 #
coedge $-1 $185 $191 $71 $115 forward $192 $-1 #
edge $-1 $193 -25.306738414796559 $194 -3.9191753188865057 $114 $195 forward 7 unknown #
face $-1 $196 $197 $26 $-1 $198 forward single #
loop $-1 $-1 $199 $72 #
plane-surface $-1 -164.42524220699462 10.693781547955023 139.65373014573512 0 -1 0 0.57357644374324357 0 -0.81915203911291934 forward_v I I I I #
coedge $-1 $200 $201 $202 $203 reversed $73 $-1 #
coedge $-1 $121 $75 $204 $205 reversed $47 $-1 #
coedge $-1 $75 $120 $200 $206 reversed $47 $-1 #
coedge $-1 $202 $207 $75 $123 forward $197 $-1 #
edge $-1 $208 5.6343563859461199 $209 12.729688281250802 $122 $210 forward 7 unknown #
loop $-1 $-1 $129 $76 #
plane-surface $-1 -76.578264717551193 6.0860313518419744 14.195246755513153 -0.57357644374324357 0 0.81915203911291934 0.81915203911291934 0 0.57357644374324357 forward_v I I I I #
loop $-1 $-1 $211 $49 #
coedge $-1 $127 $127 $128 $212 reversed $77 $-1 #
coedge $-1 $128 $128 $127 $212 forward $79 $-1 #
coedge $-1 $129 $129 $80 $130 forward $124 $-1 #
edge $-1 $213 0 $213 6.2831853071796004 $129 $214 forward 7 unknown #
loop $-1 $-1 $136 $81 #
plane-surface $-1 -76.578264717551193 6.0860313518419744 14.195246755513153 -0.57357644374324357 0 0.81915203911291934 0.81915203911291934 0 0.57357644374324357 forward_v I I I I #
loop $-1 $-1 $215 $52 #
coedge $-1 $134 $134 $135 $216 reversed $82 $-1 #
coedge $-1 $135 $135 $134 $216 forward $84 $-1 #
coedge $-1 $136 $136 $85 $137 forward $131 $-1 #
edge $-1 $217 0 $217 6.2831853071796004 $136 $218 forward 7 unknown #
face $-1 $219 $220 $29 $-1 $221 forward single #
loop $-1 $-1 $222 $86 #
plane-surface $-1 0 0 19.163451730128205 0 0 1 1 0 0 forward_v I I I I #
coedge $-1 $223 $224 $225 $226 reversed $87 $-1 #
coedge $-1 $227 $89 $228 $229 reversed $56 $-1 #
coedge $-1 $89 $227 $222 $230 reversed $56 $-1 #
coedge $-1 $231 $232 $89 $145 forward $220 $-1 #
edge $-1 $233 0 $234 8.6618009313489566 $144 $235 forward 7 unknown #
loop $-1 $-1 $151 $90 #
plane-surface $-1 -76.578264717551193 6.0860313518419744 14.195246755513153 -0.57357644374324357 0 0.81915203911291934 0.81915203911291934 0 0.57357644374324357 forward_v I I I I #
loop $-1 $-1 $236 $58 #
coedge $-1 $149 $149 $150 $237 reversed $91 $-1 #
coedge $-1 $150 $150 $149 $237 forward $93 $-1 #
coedge $-1 $151 $151 $94 $152 forward $146 $-1 #
edge $-1 $238 0 $238 6.2831853071796004 $151 $239 forward 7 unknown #
loop $-1 $-1 $158 $95 #
plane-surface $-1 -76.578264717551193 6.0860313518419744 14.195246755513153 -0.57357644374324357 0 0.81915203911291934 0.81915203911291934 0 0.57357644374324357 forward_v I I I I #
loop $-1 $-1 $240 $61 #
coedge $-1 $156 $156 $157 $241 reversed $96 $-1 #
coedge $-1 $157 $157 $156 $241 forward $98 $-1 #
coedge $-1 $158 $158 $99 $159 forward $153 $-1 #
edge $-1 $242 0 $242 6.2831853071796004 $158 $243 forward 7 unknown #
face $-1 $244 $245 $24 $-1 $246 reversed single #
loop $-1 $-1 $247 $100 #
plane-surface $-1 -76.578264717551193 0 0 1 0 0 0 0 -1 forward_v I I I I #
coedge $-1 $248 $171 $249 $250 forward $101 $-1 #
coedge $-1 $251 $103 $248 $252 forward $65 $-1 #
coedge $-1 $103 $251 $253 $254 forward $65 $-1 #
coedge $-1 $174 $173 $103 $167 reversed $175 $-1 #
edge $-1 $255 -39.919695281638091 $256 39.919695281638091 $166 $257 forward 7 unknown #
coedge $-1 $105 $104 $258 $259 forward $41 $-1 #
coedge $-1 $260 $261 $104 $170 reversed $245 $-1 #
edge $-1 $177 -76.578264717551193 $262 76.578264717551193 $169 $263 forward 7 unknown #
coedge $-1 $163 $264 $105 $172 reversed $101 $-1 #
edge $-1 $265 -76.578264717551193 $176 76.578264717551193 $171 $266 forward 7 unknown #
coedge $-1 $166 $106 $264 $267 forward $175 $-1 #
coedge $-1 $106 $166 $260 $268 reversed $175 $-1 #
loop $-1 $-1 $173 $244 #
vertex $-1 $107 $269 #
vertex $-1 $107 $270 #
straight-curve $-1 76.578264717551193 0 19.163451730128205 0 1 0 I I #
face $-1 $271 $272 $25 $-1 $273 forward single #
loop $-1 $-1 $188 $108 #
plane-surface $-1 0 -39.919695281638091 0 0 1 0 0 0 1 forward_v I I I I #
coedge $-1 $274 $275 $276 $277 forward $109 $-1 #
coedge $-1 $276 $111 $113 $190 reversed $69 $-1 #
coedge $-1 $111 $276 $278 $279 reversed $69 $-1 #
coedge $-1 $280 $114 $111 $186 forward $192 $-1 #
edge $-1 $194 4.1178875638422543 $281 11.403005298804716 $185 $282 forward 7 unknown #
coedge $-1 $113 $112 $274 $283 reversed $44 $-1 #
coedge $-1 $284 $285 $112 $189 forward $180 $-1 #
edge $-1 $286 -76.578264717551193 $193 76.578264717551193 $188 $287 forward 7 unknown #
edge $-1 $288 -76.578264717551193 $194 76.578264717551193 $183 $289 forward 7 unknown #
coedge $-1 $114 $280 $284 $290 forward $192 $-1 #
loop $-1 $-1 $185 $271 #
vertex $-1 $189 $291 #
vertex $-1 $115 $292 #
straight-curve $-1 76.578264717551193 -14.612956866841532 11.87833399516574 0 1 0 I I #
face $-1 $-1 $293 $26 $-1 $294 reversed single #
loop $-1 $-1 $122 $116 #
plane-surface $-1 0 0 19.163451730128205 0 0 1 1 0 0 forward_v I I I I #
coedge $-1 $295 $296 $297 $298 reversed $117 $-1 #
coedge $-1 $299 $119 $121 $206 forward $73 $-1 #
coedge $-1 $119 $299 $295 $300 forward $73 $-1 #
coedge $-1 $297 $122 $119 $203 forward $197 $-1 #
edge $-1 $209 -1.5647345201920615 $301 7.6507658720340359 $202 $302 forward 7 unknown #
coedge $-1 $303 $304 $120 $205 forward $293 $-1 #
edge $-1 $305 -55.631618317354409 $208 -50.663413342739361 $204 $306 forward 7 unknown #
edge $-1 $209 -8.6618009313489566 $305 0 $121 $307 forward 7 unknown #
coedge $-1 $122 $297 $303 $308 forward $197 $-1 #
vertex $-1 $205 $309 #
vertex $-1 $123 $310 #
straight-curve $-1 -82.212621103497312 1.4782811557289257 19.163451730128202 1 0 0 I I #
coedge $-1 $211 $211 $-1 $311 reversed $126 $-1 #
edge $-1 $312 0 $312 6.2831853071796004 $127 $313 forward 7 unknown #
vertex $-1 $130 $314 #
ellipse-curve $-1 -73.030598769898845 4.1112812677935295 16.679349242820681 -0.57357644374324357 0 0.81915203911291934 0.81915203911291934 0 0.57357644374324357 1 I I #
coedge $-1 $215 $215 $-1 $315 reversed $133 $-1 #
edge $-1 $316 0 $316 6.2831853071796004 $134 $317 forward 7 unknown #
vertex $-1 $137 $318 #
ellipse-curve $-1 -73.030598769898845 8.0607814358904264 16.679349242820681 -0.57357644374324357 0 0.81915203911291934 0.81915203911291934 0 0.57357644374324357 1 I I #
face $-1 $-1 $319 $29 $-1 $320 reversed single #
loop $-1 $-1 $231 $138 #
plane-surface $-1 -164.42524220699462 10.693781547955023 139.65373014573512 0 -1 0 0.57357644374324357 0 -0.81915203911291934 forward_v I I I I #
coedge $-1 $225 $321 $143 $230 forward $139 $-1 #
coedge $-1 $224 $141 $227 $322 reversed $87 $-1 #
coedge $-1 $141 $223 $323 $324 reversed $87 $-1 #
coedge $-1 $325 $222 $141 $226 forward $139 $-1 #
edge $-1 $326 -12.729688281250802 $327 -5.6343563859461199 $225 $328 forward 7 unknown #
coedge $-1 $143 $142 $223 $322 forward $56 $-1 #
coedge $-1 $329 $323 $142 $229 forward $319 $-1 #
edge $-1 $330 -16.866266264260133 $233 -7.6507658720340359 $228 $331 forward 7 unknown #
edge $-1 $234 7.6507658720340359 $326 16.866266264260133 $222 $332 forward 7 unknown #
coedge $-1 $232 $144 $321 $333 reversed $220 $-1 #
coedge $-1 $144 $231 $329 $334 reversed $220 $-1 #
vertex $-1 $229 $335 #
vertex $-1 $230 $336 #
straight-curve $-1 -76.578264717551193 10.693781547955023 14.195246755513153 0.81915203911291934 0 0.57357644374324357 I I #
coedge $-1 $236 $236 $-1 $337 reversed $148 $-1 #
edge $-1 $338 0 $338 6.2831853071796004 $149 $339 forward 7 unknown #
vertex $-1 $152 $340 #
ellipse-curve $-1 -73.030598769898845 13.326781660019627 16.679349242820681 -0.57357644374324357 0 0.81915203911291934 0.81915203911291934 0 0.57357644374324357 1 I I #
coedge $-1 $240 $240 $-1 $341 reversed $155 $-1 #
edge $-1 $342 0 $342 6.2831853071796004 $156 $343 forward 7 unknown #
vertex $-1 $159 $344 #
ellipse-curve $-1 -73.030598769898845 17.276281828116524 16.679349242820681 -0.57357644374324357 0 0.81915203911291934 0.81915203911291934 0 0.57357644374324357 1 I I #
face $-1 $-1 $175 $24 $-1 $345 reversed single #
loop $-1 $-1 $260 $160 #
plane-surface $-1 0 39.919695281638091 0 0 -1 0 0 0 -1 forward_v I I I I #
coedge $-1 $346 $258 $261 $347 forward $161 $-1 #
coedge $-1 $264 $163 $164 $252 reversed $101 $-1 #
coedge $-1 $258 $346 $163 $250 reversed $161 $-1 #
edge $-1 $265 -19.163451730128205 $348 19.163451730128205 $249 $349 forward 7 unknown #
coedge $-1 $165 $164 $346 $350 forward $65 $-1 #
edge $-1 $256 -76.578264717551193 $348 76.578264717551193 $248 $351 forward 7 unknown #
coedge $-1 $261 $260 $165 $254 reversed $245 $-1 #
edge $-1 $352 -76.578264717551193 $255 76.578264717551193 $253 $353 forward 7 unknown #
vertex $-1 $167 $354 #
vertex $-1 $267 $355 #
straight-curve $-1 76.578264717551193 0 -19.163451730128205 0 -1 0 I I #
coedge $-1 $247 $249 $168 $259 reversed $161 $-1 #
edge $-1 $262 -39.919695281638091 $265 39.919695281638091 $258 $356 forward 7 unknown #
coedge $-1 $253 $169 $174 $268 forward $245 $-1 #
coedge $-1 $169 $253 $247 $347 reversed $245 $-1 #
vertex $-1 $170 $357 #
straight-curve $-1 0 39.919695281638091 19.163451730128205 -1 0 0 I I #
coedge $-1 $171 $248 $173 $267 reversed $101 $-1 #
vertex $-1 $259 $358 #
straight-curve $-1 0 -39.919695281638091 19.163451730128205 1 0 0 I I #
edge $-1 $176 -19.163451730128205 $256 19.163451730128205 $173 $359 forward 7 unknown #
edge $-1 $177 -19.163451730128205 $255 19.163451730128205 $174 $360 forward 7 unknown #
point $-1 76.578264717551193 -39.919695281638091 19.163451730128205 #
point $-1 76.578264717551193 39.919695281638091 19.163451730128205 #
face $-1 $-1 $192 $25 $-1 $361 reversed single #
loop $-1 $-1 $278 $179 #
plane-surface $-1 0 0 19.163451730128205 0 0 1 1 0 0 forward_v I I I I #
coedge $-1 $362 $182 $187 $283 forward $109 $-1 #
coedge $-1 $182 $362 $363 $364 reversed $109 $-1 #
coedge $-1 $184 $183 $182 $277 reversed $69 $-1 #
edge $-1 $365 -11.403005298804716 $288 -4.1178875638422543 $182 $366 forward 7 unknown #
coedge $-1 $363 $367 $184 $279 forward $272 $-1 #
edge $-1 $281 -76.578264717551193 $365 76.578264717551193 $278 $368 forward 7 unknown #
coedge $-1 $191 $185 $367 $369 reversed $192 $-1 #
vertex $-1 $186 $370 #
straight-curve $-1 76.578264717551193 -18.532132185728038 7.7604464313234853 0 0 1 I I #
edge $-1 $288 3.9191753188865057 $286 25.306738414796559 $274 $371 forward 7 unknown #
coedge $-1 $372 $188 $191 $290 reversed $180 $-1 #
coedge $-1 $188 $372 $362 $373 forward $180 $-1 #
vertex $-1 $189 $374 #
straight-curve $-1 0 -39.919695281638091 11.87833399516574 1 0 0 I I #
vertex $-1 $283 $375 #
straight-curve $-1 0 -18.532132185728038 11.87833399516574 1 0 0 I I #
edge $-1 $376 -19.163451730128205 $193 -11.87833399516574 $191 $377 forward 7 unknown #
point $-1 76.578264717551193 -39.919695281638091 11.87833399516574 #
point $-1 76.578264717551193 -18.532132185728038 11.87833399516574 #
loop $-1 $-1 $204 $196 #
plane-surface $-1 -76.578264717551193 0 0 1 0 0 0 0 -1 forward_v I I I I #
coedge $-1 $296 $199 $201 $300 reversed $117 $-1 #
coedge $-1 $199 $295 $378 $379 reversed $117 $-1 #
coedge $-1 $207 $202 $199 $298 forward $197 $-1 #
edge $-1 $301 -12.729688281250802 $380 -5.6343563859461199 $297 $381 forward 7 unknown #
coedge $-1 $201 $200 $304 $382 reversed $73 $-1 #
edge $-1 $383 0 $301 8.6618009313489566 $295 $384 forward 7 unknown #
vertex $-1 $203 $385 #
straight-curve $-1 -69.482932822246511 3.0430156759209872 19.163451730128209 0 1 0 I I #
coedge $-1 $378 $204 $207 $308 reversed $293 $-1 #
coedge $-1 $204 $378 $299 $382 forward $293 $-1 #
vertex $-1 $205 $386 #
straight-curve $-1 -76.578264717551193 1.4782811557289257 69.826865072867562 0 0 1 I I #
straight-curve $-1 -76.578264717551193 1.4782811557289257 14.195246755513153 -0.81915203911291934 0 -0.57357644374324357 I I #
edge $-1 $380 -10.693781547955023 $208 -1.4782811557289257 $303 $387 forward 7 unknown #
point $-1 -76.578264717551193 1.4782811557289257 19.163451730128205 #
point $-1 -69.482932822246511 1.4782811557289257 19.163451730128205 #
edge $-1 $388 1 $388 0 $211 $-1 forward 7 unknown #
vertex $-1 $212 $389 #
ellipse-curve $-1 -70.992141662846379 4.1112812677935295 13.768130844469356 -0.57357644374324357 0 0.81915203911291934 0.81915203911291934 0 0.57357644374324357 1 I I #
point $-1 -72.211446730785923 4.1112812677935295 17.25292568656392 #
edge $-1 $390 1 $390 0 $215 $-1 forward 7 unknown #
vertex $-1 $216 $391 #
ellipse-curve $-1 -70.992141662846379 8.0607814358904264 13.768130844469356 -0.57357644374324357 0 0.81915203911291934 0.81915203911291934 0 0.57357644374324357 1 I I #
point $-1 -72.211446730785923 8.0607814358904264 17.25292568656392 #
loop $-1 $-1 $228 $219 #
plane-surface $-1 -76.578264717551193 0 0 1 0 0 0 0 -1 forward_v I I I I #
coedge $-1 $222 $325 $231 $333 forward $139 $-1 #
edge $-1 $330 0 $326 8.6618009313489566 $223 $392 forward 7 unknown #
coedge $-1 $228 $393 $224 $324 forward $319 $-1 #
edge $-1 $327 50.663413342739361 $330 55.631618317354409 $323 $394 forward 7 unknown #
coedge $-1 $321 $225 $393 $395 forward $139 $-1 #
vertex $-1 $226 $396 #
vertex $-1 $395 $397 #
straight-curve $-1 -82.212621103497312 19.909281940181121 19.163451730128202 -1 0 0 I I #
coedge $-1 $393 $228 $232 $334 forward $319 $-1 #
vertex $-1 $324 $398 #
straight-curve $-1 -76.578264717551193 3.0430156759209872 14.195246755513159 0 -1 0 I I #
straight-curve $-1 -69.482932822246511 3.0430156759209872 19.163451730128209 0 1 0 I I #
edge $-1 $399 5.6343563859461199 $234 12.729688281250802 $321 $400 forward 7 unknown #
edge $-1 $233 -55.631618317354409 $399 -50.663413342739361 $329 $401 forward 7 unknown #
point $-1 -76.578264717551193 10.693781547955023 14.195246755513153 #
point $-1 -69.482932822246511 10.693781547955023 19.163451730128205 #
edge $-1 $402 1 $402 0 $236 $-1 forward 7 unknown #
vertex $-1 $237 $403 #
ellipse-curve $-1 -70.992141662846379 13.326781660019627 13.768130844469356 -0.57357644374324357 0 0.81915203911291934 0.81915203911291934 0 0.57357644374324357 1 I I #
point $-1 -72.211446730785923 13.326781660019627 17.25292568656392 #
edge $-1 $404 1 $404 0 $240 $-1 forward 7 unknown #
vertex $-1 $241 $405 #
ellipse-curve $-1 -70.992141662846379 17.276281828116524 13.768130844469356 -0.57357644374324357 0 0.81915203911291934 0.81915203911291934 0 0.57357644374324357 1 I I #
point $-1 -72.211446730785923 17.276281828116524 17.25292568656392 #
plane-surface $-1 76.578264717551193 0 0 -1 0 0 0 0 1 forward_v I I I I #
coedge $-1 $249 $247 $251 $350 reversed $161 $-1 #
edge $-1 $262 -19.163451730128205 $352 19.163451730128205 $261 $406 forward 7 unknown #
vertex $-1 $350 $407 #
straight-curve $-1 -76.578264717551193 -39.919695281638091 0 0 0 -1 I I #
edge $-1 $348 -39.919695281638091 $352 39.919695281638091 $346 $408 forward 7 unknown #
straight-curve $-1 0 -39.919695281638091 -19.163451730128205 -1 0 0 I I #
vertex $-1 $254 $409 #
straight-curve $-1 0 39.919695281638091 -19.163451730128205 1 0 0 I I #
point $-1 76.578264717551193 39.919695281638091 -19.163451730128205 #
point $-1 76.578264717551193 -39.919695281638091 -19.163451730128205 #
straight-curve $-1 -76.578264717551193 0 19.163451730128205 0 -1 0 I I #
point $-1 -76.578264717551193 39.919695281638091 19.163451730128205 #
point $-1 -76.578264717551193 -39.919695281638091 19.163451730128205 #
straight-curve $-1 76.578264717551193 -39.919695281638091 0 0 0 -1 I I #
straight-curve $-1 76.578264717551193 39.919695281638091 0 0 0 -1 I I #
plane-surface $-1 76.578264717551193 0 0 -1 0 0 0 0 1 forward_v I I I I #
coedge $-1 $275 $274 $285 $373 reversed $109 $-1 #
coedge $-1 $410 $278 $275 $364 forward $272 $-1 #
edge $-1 $365 18.532132185728038 $411 39.919695281638091 $275 $412 forward 7 unknown #
vertex $-1 $364 $413 #
straight-curve $-1 -76.578264717551193 -18.532132185728038 7.7604464313234853 0 0 -1 I I #
coedge $-1 $278 $410 $280 $369 forward $272 $-1 #
straight-curve $-1 0 -18.532132185728038 19.163451730128205 -1 0 0 I I #
edge $-1 $376 -39.919695281638091 $281 -18.532132185728038 $280 $414 forward 7 unknown #
point $-1 76.578264717551193 -18.532132185728038 19.163451730128202 #
straight-curve $-1 -76.578264717551193 -14.612956866841532 11.87833399516574 0 -1 0 I I #
coedge $-1 $285 $284 $410 $415 reversed $180 $-1 #
edge $-1 $411 -19.163451730128205 $286 -11.87833399516574 $362 $416 forward 7 unknown #
point $-1 -76.578264717551193 -39.919695281638091 11.87833399516574 #
point $-1 -76.578264717551193 -18.532132185728038 11.87833399516574 #
vertex $-1 $369 $417 #
straight-curve $-1 76.578264717551193 -39.919695281638091 0 0 0 -1 I I #
coedge $-1 $304 $303 $296 $379 forward $293 $-1 #
edge $-1 $380 50.663413342739361 $383 55.631618317354409 $378 $418 forward 7 unknown #
vertex $-1 $308 $419 #
straight-curve $-1 -82.212621103497312 10.693781547955023 19.163451730128202 -1 0 0 I I #
edge $-1 $383 -7.6507658720340359 $305 1.5647345201920615 $304 $420 forward 7 unknown #
vertex $-1 $382 $421 #
straight-curve $-1 -76.578264717551193 10.693781547955023 14.195246755513153 0.81915203911291934 0 0.57357644374324357 I I #
point $-1 -69.482932822246511 10.693781547955023 19.163451730128205 #
point $-1 -76.578264717551193 1.4782811557289257 14.195246755513153 #
straight-curve $-1 -76.578264717551193 0 19.163451730128205 0 -1 0 I I #
vertex $-1 $311 $422 #
point $-1 -70.172989623733457 4.1112812677935295 14.3417072882126 #
vertex $-1 $315 $423 #
point $-1 -70.172989623733457 8.0607814358904264 14.3417072882126 #
straight-curve $-1 -76.578264717551193 19.909281940181121 14.195246755513153 0.81915203911291934 0 0.57357644374324357 I I #
coedge $-1 $323 $329 $325 $395 reversed $319 $-1 #
straight-curve $-1 -76.578264717551193 19.909281940181121 69.826865072867562 0 0 -1 I I #
edge $-1 $327 -19.909281940181121 $399 -10.693781547955023 $393 $424 forward 7 unknown #
point $-1 -69.482932822246511 19.909281940181121 19.163451730128205 #
point $-1 -76.578264717551193 19.909281940181121 19.163451730128205 #
point $-1 -76.578264717551193 19.909281940181121 14.195246755513153 #
vertex $-1 $334 $425 #
straight-curve $-1 -82.212621103497312 10.693781547955023 19.163451730128202 1 0 0 I I #
straight-curve $-1 -76.578264717551193 10.693781547955023 69.826865072867562 0 0 1 I I #
vertex $-1 $337 $426 #
point $-1 -70.172989623733457 13.326781660019627 14.3417072882126 #
vertex $-1 $341 $427 #
point $-1 -70.172989623733457 17.276281828116524 14.3417072882126 #
straight-curve $-1 -76.578264717551193 39.919695281638091 0 0 0 -1 I I #
point $-1 -76.578264717551193 -39.919695281638091 -19.163451730128205 #
straight-curve $-1 -76.578264717551193 0 -19.163451730128205 0 1 0 I I #
point $-1 -76.578264717551193 39.919695281638091 -19.163451730128205 #
coedge $-1 $367 $363 $372 $415 forward $272 $-1 #
vertex $-1 $364 $428 #
straight-curve $-1 -76.578264717551193 0 19.163451730128205 0 -1 0 I I #
point $-1 -76.578264717551193 -18.532132185728038 19.163451730128202 #
straight-curve $-1 76.578264717551193 0 19.163451730128205 0 1 0 I I #
edge $-1 $411 -76.578264717551193 $376 76.578264717551193 $372 $429 forward 7 unknown #
straight-curve $-1 -76.578264717551193 -39.919695281638091 0 0 0 -1 I I #
point $-1 76.578264717551193 -39.919695281638091 19.163451730128205 #
straight-curve $-1 -76.578264717551193 10.693781547955023 69.826865072867562 0 0 -1 I I #
point $-1 -76.578264717551193 10.693781547955023 19.163451730128205 #
straight-curve $-1 -76.578264717551193 3.0430156759209872 14.195246755513159 0 -1 0 I I #
point $-1 -76.578264717551193 10.693781547955023 14.195246755513153 #
point $-1 -70.418565219103144 4.1112812677935295 12.948978805356438 #
point $-1 -70.418565219103144 8.0607814358904264 12.948978805356438 #
straight-curve $-1 -76.578264717551193 0 19.163451730128205 0 -1 0 I I #
point $-1 -76.578264717551193 10.693781547955023 19.163451730128205 #
point $-1 -70.418565219103144 13.326781660019627 12.948978805356438 #
point $-1 -70.418565219103144 17.276281828116524 12.948978805356438 #
point $-1 -76.578264717551193 -39.919695281638091 19.163451730128205 #
straight-curve $-1 0 -39.919695281638091 19.163451730128205 1 0 0 I I #
End-of-ACIS-data 