500 0 6 0           
7 Unknown 11 ACIS 5.0 NT 24 Fri Mar 26 20:04:30 1999 
-1 9.9999999999999995e-007 1e-010 
body $-1 $6 $-1 $7 #
body $-1 $8 $-1 $9 #
body $-1 $10 $-1 $11 #
body $-1 $12 $-1 $13 #
body $-1 $14 $-1 $15 #
body $-1 $16 $-1 $17 #
lump $-1 $-1 $18 $0 #
transform $-1 1 0 0 0 1 0 0 0 1 50.068666646320992 27.205192867959479 9.5744976236464101 1 rotate no_reflect no_shear #
lump $-1 $-1 $19 $1 #
transform $-1 1 0 0 0 1 0 0 0 1 50.068666646320992 27.205192867959479 9.5744976236464101 1 rotate no_reflect no_shear #
lump $-1 $-1 $20 $2 #
transform $-1 1 0 0 0 1 0 0 0 1 50.068666646320992 27.205192867959479 9.5744976236464101 1 rotate no_reflect no_shear #
lump $-1 $-1 $21 $3 #
transform $-1 1 0 0 0 1 0 0 0 1 50.068666646320992 27.205192867959479 9.5744976236464101 1 rotate no_reflect no_shear #
lump $-1 $-1 $22 $4 #
transform $-1 1 0 0 0 1 0 0 0 1 50.068666646320992 27.205192867959479 9.5744976236464101 1 rotate no_reflect no_shear #
lump $-1 $-1 $23 $5 #
transform $-1 1 0 0 0 1 0 0 0 1 50.068666646320992 27.205192867959479 9.5744976236464101 1 rotate no_reflect no_shear #
shell $-1 $-1 $-1 $24 $-1 $6 #
shell $-1 $-1 $-1 $25 $-1 $8 #
shell $-1 $-1 $-1 $26 $-1 $10 #
shell $-1 $-1 $-1 $27 $-1 $12 #
shell $-1 $-1 $-1 $28 $-1 $14 #
shell $-1 $-1 $-1 $29 $-1 $16 #
face $-1 $30 $31 $18 $-1 $32 forward single #
face $-1 $33 $34 $19 $-1 $35 forward single #
face $-1 $36 $37 $20 $-1 $38 reversed single #
face $-1 $39 $40 $21 $-1 $41 forward single #
face $-1 $42 $43 $22 $-1 $44 forward single #
face $-1 $45 $46 $23 $-1 $47 forward single #
face $-1 $48 $49 $18 $-1 $50 reversed single #
loop $-1 $-1 $51 $24 #
plane-surface $-1 0 0 9.5744976236464101 0 0 1 1 0 0 forward_v I I I I #
face $-1 $52 $53 $19 $-1 $54 reversed single #
loop $-1 $-1 $55 $25 #
plane-surface $-1 -44.826285132585255 0 6.3832306711981168 0 0 1 1 0 0 forward_v I I I I #
face $-1 $56 $57 $20 $-1 $58 reversed single #
loop $-1 $-1 $59 $26 #
plane-surface $-1 -7.5786895600072484 53.775352001467439 115.17274973725033 1 0 0 0 -0.66913061440640931 -0.74314481823134659 forward_v I I I I #
face $-1 $60 $61 $21 $-1 $62 forward single #
loop $-1 $63 $64 $27 #
cone-surface $-1 -3.7613894415172879 23.0948708030541 5.6195472053007052 0 -0.66913061440640931 -0.74314481823134659 1 0 0 1 I I 0 1 1 forward I I I I #
face $-1 $65 $66 $22 $-1 $67 forward single #
loop $-1 $68 $69 $28 #
cone-surface $-1 1.9645607362176563 23.0948708030541 5.6195472053007052 0 -0.66913061440640931 -0.74314481823134659 1 0 0 1 I I 0 1 1 forward I I I I #
face $-1 $70 $71 $23 $-1 $72 forward single #
loop $-1 $73 $74 $29 #
cone-surface $-1 7.6905109139526004 23.0948708030541 5.6195472053007052 0 -0.66913061440640931 -0.74314481823134659 1 0 0 1 I I 0 1 1 forward I I I I #
face $-1 $75 $76 $18 $-1 $77 reversed single #
loop $-1 $-1 $78 $30 #
plane-surface $-1 0 0 -9.5744976236464101 0 0 1 1 0 0 forward_v I I I I #
coedge $-1 $79 $80 $81 $82 forward $31 $-1 #
face $-1 $83 $84 $19 $-1 $85 reversed single #
loop $-1 $-1 $86 $33 #
plane-surface $-1 -44.826285132585255 0 0.83395505335948528 0 0 1 1 0 0 forward_v I I I I #
coedge $-1 $87 $88 $89 $90 forward $34 $-1 #
face $-1 $91 $92 $20 $-1 $93 reversed single #
loop $-1 $-1 $94 $36 #
plane-surface $-1 1.9645607362176563 -13.229603349657481 40.75620938931813 0 0.66913061440640931 0.74314481823134659 1 0 0 forward_v I I I I #
coedge $-1 $95 $96 $97 $98 reversed $37 $-1 #
face $-1 $-1 $99 $21 $-1 $100 forward single #
loop $-1 $101 $102 $39 #
cone-surface $-1 -3.7613894415172879 21.551982256462434 3.9059959137860627 0 -0.66913061440640931 -0.74314481823134659 0.5 0 0 1 I I -0.70710678118654746 0.70710678118654746 0.5 forward I I I I #
loop $-1 $-1 $103 $27 #
coedge $-1 $64 $64 $104 $105 reversed $40 $-1 #
face $-1 $-1 $106 $22 $-1 $107 forward single #
loop $-1 $108 $109 $42 #
cone-surface $-1 1.9645607362176563 21.551982256462434 3.9059959137860627 0 -0.66913061440640931 -0.74314481823134659 0.5 0 0 1 I I -0.70710678118654746 0.70710678118654746 0.5 forward I I I I #
loop $-1 $-1 $110 $28 #
coedge $-1 $69 $69 $111 $112 reversed $43 $-1 #
face $-1 $-1 $113 $23 $-1 $114 forward single #
loop $-1 $115 $116 $45 #
cone-surface $-1 7.6905109139526004 21.551982256462434 3.9059959137860627 0 -0.66913061440640931 -0.74314481823134659 0.5 0 0 1 I I -0.70710678118654746 0.70710678118654746 0.5 forward I I I I #
loop $-1 $-1 $117 $29 #
coedge $-1 $74 $74 $118 $119 reversed $46 $-1 #
face $-1 $120 $121 $18 $-1 $122 reversed single #
loop $-1 $-1 $123 $48 #
plane-surface $-1 0 -27.205192867959479 0 0 1 0 0 0 1 forward_v I I I I #
coedge $-1 $124 $125 $126 $127 forward $49 $-1 #
coedge $-1 $128 $51 $129 $130 forward $31 $-1 #
coedge $-1 $51 $128 $131 $132 forward $31 $-1 #
coedge $-1 $133 $134 $51 $82 reversed $135 $-1 #
edge $-1 $136 -27.205192867959479 $137 27.205192867959479 $81 $138 forward 7 unknown #
face $-1 $139 $140 $19 $-1 $141 reversed single #
loop $-1 $-1 $142 $52 #
plane-surface $-1 -39.583903618849519 0 3.6085928622788011 -1 0 0 0 0 1 forward_v I I I I #
coedge $-1 $143 $144 $145 $146 forward $53 $-1 #
coedge $-1 $147 $55 $148 $149 reversed $34 $-1 #
coedge $-1 $55 $147 $150 $151 reversed $34 $-1 #
coedge $-1 $142 $152 $55 $90 reversed $84 $-1 #
edge $-1 $153 -27.205192867959479 $154 27.205192867959479 $89 $155 forward 7 unknown #
face $-1 $156 $157 $20 $-1 $158 forward single #
loop $-1 $-1 $159 $56 #
plane-surface $-1 11.507811032442561 53.775352001467439 115.17274973725033 -1 0 0 0 0.66913061440640931 0.74314481823134659 forward_v I I I I #
coedge $-1 $160 $161 $162 $163 reversed $57 $-1 #
coedge $-1 $96 $59 $164 $165 reversed $37 $-1 #
coedge $-1 $59 $95 $160 $166 reversed $37 $-1 #
coedge $-1 $162 $167 $59 $98 forward $157 $-1 #
edge $-1 $168 -0.31751686722575911 $169 5.4864807838080907 $97 $170 forward 7 unknown #
loop $-1 $-1 $104 $60 #
plane-surface $-1 1.9645607362176563 -13.229603349657481 40.75620938931813 0 0.66913061440640931 0.74314481823134659 1 0 0 forward_v I I I I #
loop $-1 $-1 $171 $39 #
coedge $-1 $102 $102 $103 $172 reversed $61 $-1 #
coedge $-1 $103 $103 $102 $172 forward $63 $-1 #
coedge $-1 $104 $104 $64 $105 forward $99 $-1 #
edge $-1 $173 -2.9715368583822927e-015 $173 6.2831853071795978 $104 $174 forward 7 unknown #
loop $-1 $-1 $111 $65 #
plane-surface $-1 1.9645607362176563 -13.229603349657481 40.75620938931813 0 0.66913061440640931 0.74314481823134659 1 0 0 forward_v I I I I #
loop $-1 $-1 $175 $42 #
coedge $-1 $109 $109 $110 $176 reversed $66 $-1 #
coedge $-1 $110 $110 $109 $176 forward $68 $-1 #
coedge $-1 $111 $111 $69 $112 forward $106 $-1 #
edge $-1 $177 -2.9715368583822927e-015 $177 6.2831853071795978 $111 $178 forward 7 unknown #
loop $-1 $-1 $118 $70 #
plane-surface $-1 1.9645607362176563 -13.229603349657481 40.75620938931813 0 0.66913061440640931 0.74314481823134659 1 0 0 forward_v I I I I #
loop $-1 $-1 $179 $45 #
coedge $-1 $116 $116 $117 $180 reversed $71 $-1 #
coedge $-1 $117 $117 $116 $180 forward $73 $-1 #
coedge $-1 $118 $118 $74 $119 forward $113 $-1 #
edge $-1 $181 -2.9715368583822927e-015 $181 6.2831853071795978 $118 $182 forward 7 unknown #
face $-1 $183 $184 $18 $-1 $185 reversed single #
loop $-1 $-1 $186 $75 #
plane-surface $-1 -50.068666646320992 0 0 1 0 0 0 0 -1 forward_v I I I I #
coedge $-1 $187 $131 $188 $189 forward $76 $-1 #
coedge $-1 $190 $78 $187 $191 forward $49 $-1 #
coedge $-1 $78 $190 $192 $193 forward $49 $-1 #
coedge $-1 $134 $133 $78 $127 reversed $135 $-1 #
edge $-1 $194 -27.205192867959479 $195 27.205192867959479 $126 $196 forward 7 unknown #
coedge $-1 $80 $79 $197 $198 forward $31 $-1 #
coedge $-1 $199 $200 $79 $130 reversed $184 $-1 #
edge $-1 $137 -50.068666646320992 $201 50.068666646320992 $129 $202 forward 7 unknown #
coedge $-1 $123 $203 $80 $132 reversed $76 $-1 #
edge $-1 $204 -50.068666646320992 $136 50.068666646320992 $131 $205 forward 7 unknown #
coedge $-1 $126 $81 $203 $206 forward $135 $-1 #
coedge $-1 $81 $126 $199 $207 reversed $135 $-1 #
loop $-1 $-1 $133 $183 #
vertex $-1 $82 $208 #
vertex $-1 $82 $209 #
straight-curve $-1 50.068666646320992 0 9.5744976236464101 0 1 0 I I #
face $-1 $210 $211 $19 $-1 $212 reversed single #
loop $-1 $-1 $213 $83 #
plane-surface $-1 0 -27.205192867959479 0 0 1 0 0 0 1 forward_v I I I I #
coedge $-1 $145 $89 $214 $215 reversed $84 $-1 #
coedge $-1 $216 $86 $213 $217 reversed $53 $-1 #
coedge $-1 $86 $216 $218 $219 reversed $53 $-1 #
coedge $-1 $152 $142 $86 $146 reversed $84 $-1 #
edge $-1 $220 -27.205192867959479 $221 27.205192867959479 $145 $222 forward 7 unknown #
coedge $-1 $88 $87 $223 $224 reversed $34 $-1 #
coedge $-1 $225 $226 $87 $149 forward $227 $-1 #
edge $-1 $228 -27.655524080028364 $154 -17.170761052556891 $148 $229 forward 7 unknown #
coedge $-1 $230 $214 $88 $151 forward $140 $-1 #
edge $-1 $153 17.170761052556891 $231 27.655524080028364 $150 $232 forward 7 unknown #
coedge $-1 $89 $145 $225 $233 reversed $84 $-1 #
vertex $-1 $151 $234 #
vertex $-1 $149 $235 #
straight-curve $-1 -39.583903618849519 0 6.3832306711981168 0 1 0 I I #
face $-1 $-1 $236 $20 $-1 $237 reversed single #
loop $-1 $-1 $97 $91 #
plane-surface $-1 0 0 9.5744976236464101 0 0 1 1 0 0 forward_v I I I I #
coedge $-1 $238 $239 $240 $241 reversed $92 $-1 #
coedge $-1 $242 $94 $96 $166 forward $57 $-1 #
coedge $-1 $94 $242 $238 $243 forward $57 $-1 #
coedge $-1 $240 $97 $94 $163 forward $157 $-1 #
edge $-1 $169 -8.5609699281160765 $244 10.525530664333733 $162 $245 forward 7 unknown #
coedge $-1 $246 $247 $95 $165 forward $236 $-1 #
edge $-1 $248 -53.237820316872231 $168 -48.011877244978756 $164 $249 forward 7 unknown #
edge $-1 $169 46.600336457977264 $248 54.410385735918979 $96 $250 forward 7 unknown #
coedge $-1 $97 $240 $246 $251 forward $157 $-1 #
vertex $-1 $165 $252 #
vertex $-1 $98 $253 #
straight-curve $-1 -7.5786895600072484 26.88767600073372 9.5744976236464083 0 -1 0 I I #
coedge $-1 $171 $171 $-1 $254 reversed $101 $-1 #
edge $-1 $255 0 $255 6.2831853071796004 $102 $256 forward 7 unknown #
vertex $-1 $105 $257 #
ellipse-curve $-1 -3.7613894415172879 24.303194042442556 6.9615260876996699 0 0.66913061440640931 0.74314481823134659 1 0 0 1 I I #
coedge $-1 $175 $175 $-1 $258 reversed $108 $-1 #
edge $-1 $259 0 $259 6.2831853071796004 $109 $260 forward 7 unknown #
vertex $-1 $112 $261 #
ellipse-curve $-1 1.9645607362176563 24.303194042442556 6.9615260876996699 0 0.66913061440640931 0.74314481823134659 1 0 0 1 I I #
coedge $-1 $179 $179 $-1 $262 reversed $115 $-1 #
edge $-1 $263 0 $263 6.2831853071796004 $116 $264 forward 7 unknown #
vertex $-1 $119 $265 #
ellipse-curve $-1 7.6905109139526004 24.303194042442556 6.9615260876996699 0 0.66913061440640931 0.74314481823134659 1 0 0 1 I I #
face $-1 $-1 $135 $18 $-1 $266 reversed single #
loop $-1 $-1 $199 $120 #
plane-surface $-1 0 27.205192867959479 0 0 -1 0 0 0 -1 forward_v I I I I #
coedge $-1 $267 $197 $200 $268 forward $121 $-1 #
coedge $-1 $203 $123 $124 $191 reversed $76 $-1 #
coedge $-1 $197 $267 $123 $189 reversed $121 $-1 #
edge $-1 $204 -9.5744976236464101 $269 9.5744976236464101 $188 $270 forward 7 unknown #
coedge $-1 $125 $124 $267 $271 forward $49 $-1 #
edge $-1 $195 -50.068666646320992 $269 50.068666646320992 $187 $272 forward 7 unknown #
coedge $-1 $200 $199 $125 $193 reversed $184 $-1 #
edge $-1 $273 -50.068666646320992 $194 50.068666646320992 $192 $274 forward 7 unknown #
vertex $-1 $127 $275 #
vertex $-1 $206 $276 #
straight-curve $-1 50.068666646320992 0 -9.5744976236464101 0 -1 0 I I #
coedge $-1 $186 $188 $128 $198 reversed $121 $-1 #
edge $-1 $201 -27.205192867959479 $204 27.205192867959479 $197 $277 forward 7 unknown #
coedge $-1 $192 $129 $134 $207 forward $184 $-1 #
coedge $-1 $129 $192 $186 $268 reversed $184 $-1 #
vertex $-1 $130 $278 #
straight-curve $-1 0 27.205192867959479 9.5744976236464101 -1 0 0 I I #
coedge $-1 $131 $187 $133 $206 reversed $76 $-1 #
vertex $-1 $198 $279 #
straight-curve $-1 0 -27.205192867959479 9.5744976236464101 1 0 0 I I #
edge $-1 $136 -9.5744976236464101 $195 9.5744976236464101 $133 $280 forward 7 unknown #
edge $-1 $137 -9.5744976236464101 $194 9.5744976236464101 $134 $281 forward 7 unknown #
point $-1 50.068666646320992 -27.205192867959479 9.5744976236464101 #
point $-1 50.068666646320992 27.205192867959479 9.5744976236464101 #
face $-1 $-1 $227 $19 $-1 $282 reversed single #
loop $-1 $-1 $283 $139 #
plane-surface $-1 -50.068666646320992 0 0 1 0 0 0 0 -1 forward_v I I I I #
coedge $-1 $214 $230 $143 $217 forward $140 $-1 #
coedge $-1 $150 $213 $142 $215 forward $140 $-1 #
edge $-1 $221 -0.97034137777991525 $153 4.5789342400587163 $214 $284 forward 7 unknown #
coedge $-1 $144 $143 $283 $285 reversed $53 $-1 #
edge $-1 $286 -27.655524080028364 $221 -17.170761052556891 $213 $287 forward 7 unknown #
coedge $-1 $226 $225 $144 $219 forward $227 $-1 #
edge $-1 $220 17.170761052556891 $288 27.655524080028364 $218 $289 forward 7 unknown #
vertex $-1 $219 $290 #
vertex $-1 $217 $291 #
straight-curve $-1 -39.583903618849519 0 0.83395505335948528 0 -1 0 I I #
coedge $-1 $292 $293 $147 $224 forward $211 $-1 #
edge $-1 $231 -27.205192867959479 $228 27.205192867959479 $223 $294 forward 7 unknown #
coedge $-1 $218 $148 $152 $233 forward $227 $-1 #
coedge $-1 $148 $218 $292 $295 reversed $227 $-1 #
loop $-1 $-1 $218 $210 #
vertex $-1 $295 $296 #
straight-curve $-1 -22.413142566292628 27.205192867959479 6.3832306711981168 1 0 0 I I #
coedge $-1 $213 $150 $293 $297 forward $140 $-1 #
vertex $-1 $297 $298 #
straight-curve $-1 -22.413142566292628 -27.205192867959479 6.3832306711981168 -1 0 0 I I #
edge $-1 $154 -4.5789342400587163 $220 0.97034137777991525 $225 $299 forward 7 unknown #
point $-1 -39.583903618849519 -27.205192867959479 6.3832306711981168 #
point $-1 -39.583903618849519 27.205192867959479 6.3832306711981168 #
loop $-1 $-1 $164 $156 #
plane-surface $-1 0 27.205192867959479 0 0 -1 0 0 0 -1 forward_v I I I I #
coedge $-1 $239 $159 $161 $243 reversed $92 $-1 #
coedge $-1 $159 $238 $300 $301 reversed $92 $-1 #
coedge $-1 $167 $162 $159 $241 forward $157 $-1 #
edge $-1 $244 -5.4864807838080907 $302 0.31751686722575911 $240 $303 forward 7 unknown #
coedge $-1 $161 $160 $247 $304 reversed $57 $-1 #
edge $-1 $305 -54.410385735918979 $244 -46.600336457977264 $238 $306 forward 7 unknown #
vertex $-1 $163 $307 #
straight-curve $-1 0.98228036810882813 21.401195216925629 9.5744976236464048 1 0 0 I I #
coedge $-1 $300 $164 $167 $251 reversed $236 $-1 #
coedge $-1 $164 $300 $242 $304 forward $236 $-1 #
vertex $-1 $165 $308 #
straight-curve $-1 -7.5786895600072484 27.205192867959479 57.586374868625164 0 0 1 I I #
straight-curve $-1 -7.5786895600072484 -13.229603349657481 40.75620938931813 0 0.74314481823134659 -0.66913061440640931 I I #
edge $-1 $302 -11.507811032442561 $168 7.5786895600072484 $246 $309 forward 7 unknown #
point $-1 -7.5786895600072484 27.205192867959479 9.5744976236464101 #
point $-1 -7.5786895600072484 21.401195216925629 9.5744976236464083 #
edge $-1 $310 1 $310 0 $171 $-1 forward 7 unknown #
vertex $-1 $172 $311 #
ellipse-curve $-1 -3.7613894415172879 21.886547563665637 4.2775683229017361 0 0.66913061440640931 0.74314481823134659 1 0 0 1 I I #
point $-1 -2.7613894415172879 24.303194042442556 6.9615260876996743 #
edge $-1 $312 1 $312 0 $175 $-1 forward 7 unknown #
vertex $-1 $176 $313 #
ellipse-curve $-1 1.9645607362176563 21.886547563665637 4.2775683229017361 0 0.66913061440640931 0.74314481823134659 1 0 0 1 I I #
point $-1 2.9645607362176563 24.303194042442556 6.9615260876996743 #
edge $-1 $314 1 $314 0 $179 $-1 forward 7 unknown #
vertex $-1 $180 $315 #
ellipse-curve $-1 7.6905109139526004 21.886547563665637 4.2775683229017361 0 0.66913061440640931 0.74314481823134659 1 0 0 1 I I #
point $-1 8.6905109139526004 24.303194042442556 6.9615260876996743 #
plane-surface $-1 50.068666646320992 0 0 -1 0 0 0 0 1 forward_v I I I I #
coedge $-1 $188 $186 $190 $271 reversed $121 $-1 #
edge $-1 $201 -9.5744976236464101 $273 9.5744976236464101 $200 $316 forward 7 unknown #
vertex $-1 $271 $317 #
straight-curve $-1 -50.068666646320992 -27.205192867959479 0 0 0 -1 I I #
edge $-1 $269 -27.205192867959479 $273 27.205192867959479 $267 $318 forward 7 unknown #
straight-curve $-1 0 -27.205192867959479 -9.5744976236464101 -1 0 0 I I #
vertex $-1 $193 $319 #
straight-curve $-1 0 27.205192867959479 -9.5744976236464101 1 0 0 I I #
point $-1 50.068666646320992 27.205192867959479 -9.5744976236464101 #
point $-1 50.068666646320992 -27.205192867959479 -9.5744976236464101 #
straight-curve $-1 -50.068666646320992 0 9.5744976236464101 0 -1 0 I I #
point $-1 -50.068666646320992 27.205192867959479 9.5744976236464101 #
point $-1 -50.068666646320992 -27.205192867959479 9.5744976236464101 #
straight-curve $-1 50.068666646320992 -27.205192867959479 0 0 0 -1 I I #
straight-curve $-1 50.068666646320992 27.205192867959479 0 0 0 -1 I I #
plane-surface $-1 0 27.205192867959479 0 0 -1 0 0 0 -1 forward_v I I I I #
coedge $-1 $293 $292 $216 $285 forward $211 $-1 #
straight-curve $-1 -39.583903618849519 -27.205192867959479 1.8042964311394005 0 0 1 I I #
edge $-1 $288 -27.205192867959479 $286 27.205192867959479 $283 $320 forward 7 unknown #
vertex $-1 $217 $321 #
straight-curve $-1 -22.413142566292628 -27.205192867959479 0.83395505335948528 1 0 0 I I #
vertex $-1 $219 $322 #
straight-curve $-1 -22.413142566292628 27.205192867959479 0.83395505335948528 -1 0 0 I I #
point $-1 -39.583903618849519 27.205192867959479 0.83395505335948528 #
point $-1 -39.583903618849519 -27.205192867959479 0.83395505335948528 #
coedge $-1 $283 $223 $226 $295 forward $211 $-1 #
coedge $-1 $223 $283 $230 $297 reversed $211 $-1 #
straight-curve $-1 -50.068666646320992 0 6.3832306711981168 0 1 0 I I #
edge $-1 $228 -6.3832306711981168 $288 -0.83395505335948528 $226 $323 forward 7 unknown #
point $-1 -50.068666646320992 27.205192867959479 6.3832306711981168 #
edge $-1 $231 -6.3832306711981168 $286 -0.83395505335948528 $293 $324 forward 7 unknown #
point $-1 -50.068666646320992 -27.205192867959479 6.3832306711981168 #
straight-curve $-1 -39.583903618849519 27.205192867959479 1.8042964311394005 0 0 -1 I I #
coedge $-1 $247 $246 $239 $301 forward $236 $-1 #
edge $-1 $302 48.011877244978756 $305 53.237820316872231 $300 $325 forward 7 unknown #
vertex $-1 $251 $326 #
straight-curve $-1 11.507811032442561 26.88767600073372 9.5744976236464083 0 1 0 I I #
edge $-1 $305 -10.525530664333733 $248 8.5609699281160765 $247 $327 forward 7 unknown #
vertex $-1 $304 $328 #
straight-curve $-1 11.507811032442561 -13.229603349657481 40.75620938931813 0 -0.74314481823134659 0.66913061440640931 I I #
point $-1 11.507811032442561 21.401195216925629 9.5744976236464083 #
point $-1 -7.5786895600072484 27.205192867959482 4.3485545517529332 #
straight-curve $-1 0 27.205192867959479 9.5744976236464101 -1 0 0 I I #
vertex $-1 $254 $329 #
point $-1 -2.7613894415172879 21.886547563665637 4.2775683229017361 #
vertex $-1 $258 $330 #
point $-1 2.9645607362176563 21.886547563665637 4.2775683229017361 #
vertex $-1 $262 $331 #
point $-1 8.6905109139526004 21.886547563665637 4.2775683229017361 #
straight-curve $-1 -50.068666646320992 27.205192867959479 0 0 0 -1 I I #
point $-1 -50.068666646320992 -27.205192867959479 -9.5744976236464101 #
straight-curve $-1 -50.068666646320992 0 -9.5744976236464101 0 1 0 I I #
point $-1 -50.068666646320992 27.205192867959479 -9.5744976236464101 #
straight-curve $-1 -50.068666646320992 0 0.83395505335948528 0 -1 0 I I #
point $-1 -50.068666646320992 -27.205192867959479 0.83395505335948528 #
point $-1 -50.068666646320992 27.205192867959479 0.83395505335948528 #
straight-curve $-1 -50.068666646320992 27.205192867959479 0 0 0 -1 I I #
straight-curve $-1 -50.068666646320992 -27.205192867959479 0 0 0 -1 I I #
straight-curve $-1 11.507811032442561 27.205192867959479 57.586374868625164 0 0 -1 I I #
point $-1 11.507811032442561 27.205192867959479 9.5744976236464101 #
straight-curve $-1 0.98228036810882813 27.205192867959479 4.3485545517529403 -1 0 0 I I #
point $-1 11.507811032442561 27.205192867959482 4.3485545517529332 #
point $-1 -3.7613894415172879 21.217416949259231 3.5344235046703893 #
point $-1 1.9645607362176563 21.217416949259231 3.5344235046703893 #
point $-1 7.6905109139526004 21.217416949259231 3.5344235046703893 #
End-of-ACIS-data 