500 0 6 0           
7 Unknown 11 ACIS 5.0 NT 24 Fri Mar 26 17:17:10 1999 
-1 9.9999999999999995e-007 1e-010 
body $-1 $6 $-1 $7 #
body $-1 $8 $-1 $9 #
body $-1 $10 $-1 $11 #
body $-1 $12 $-1 $13 #
body $-1 $14 $-1 $15 #
body $-1 $16 $-1 $17 #
lump $-1 $-1 $18 $0 #
transform $-1 1 0 0 0 1 0 0 0 1 41.084017456587418 21.066984408370406 5.9446867652416904 1 rotate no_reflect no_shear #
lump $-1 $-1 $19 $1 #
transform $-1 1 0 0 0 0.77714595512881146 0.62932039886446345 0 -0.62932039886446345 0.77714595512881146 43.622140699446589 -51.710020505468343 71.307870554056308 1 rotate no_reflect no_shear #
lump $-1 $-1 $20 $2 #
transform $-1 1 0 0 0 -0.77714595512881146 -0.62932039886446345 0 0.62932039886446345 -0.77714595512881146 39.391294184297095 4.4474009842523206 7.5622167690068727 1 rotate no_reflect no_shear #
lump $-1 $-1 $21 $3 #
transform $-1 1 0 0 0 -0.77714595512881146 -0.62932039886446345 0 0.62932039886446345 -0.77714595512881146 47.85298721459607 4.4474009842523206 7.5622167690068727 1 rotate no_reflect no_shear #
lump $-1 $-1 $22 $4 #
transform $-1 1 0 0 0 0.85716729658548041 -0.51503808176128008 0 0.51503808176128008 0.85716729658548041 46.25118312542071 48.337775755453606 98.980205475909059 1 rotate no_reflect no_shear #
lump $-1 $-1 $23 $5 #
transform $-1 1 0 0 0 -0.85716729658548041 0.51503808176128008 0 -0.51503808176128008 -0.85716729658548041 46.251183125420702 35.944046416116045 6.0489187074567816 1 rotate no_reflect no_shear #
shell $-1 $-1 $-1 $24 $-1 $6 #
shell $-1 $-1 $-1 $25 $-1 $8 #
shell $-1 $-1 $-1 $26 $-1 $10 #
shell $-1 $-1 $-1 $27 $-1 $12 #
shell $-1 $-1 $-1 $28 $-1 $14 #
shell $-1 $-1 $-1 $29 $-1 $16 #
face $-1 $30 $31 $18 $-1 $32 forward single #
face $-1 $33 $34 $19 $-1 $35 forward single #
face $-1 $36 $37 $20 $-1 $38 forward single #
face $-1 $39 $40 $21 $-1 $41 forward single #
face $-1 $42 $43 $22 $-1 $44 forward single #
face $-1 $45 $46 $23 $-1 $47 forward single #
face $-1 $48 $49 $18 $-1 $50 reversed single #
loop $-1 $-1 $51 $24 #
plane-surface $-1 0 0 5.9446867652416904 0 0 1 1 0 0 forward_v I I I I #
face $-1 $52 $53 $19 $-1 $54 reversed single #
loop $-1 $-1 $55 $25 #
plane-surface $-1 0 0 82.168034913174836 0 0 1 1 0 0 forward_v I I I I #
face $-1 $56 $57 $20 $-1 $58 forward single #
loop $-1 $59 $60 $26 #
cone-surface $-1 0 0 -1.6063264870143747 0 0 1 1 0 0 1 I I 0 1 1 forward I I I I #
face $-1 $61 $62 $21 $-1 $63 forward single #
loop $-1 $64 $65 $27 #
cone-surface $-1 0 0 -1.6063264870143747 0 0 1 1 0 0 1 I I 0 1 1 forward I I I I #
face $-1 $66 $67 $22 $-1 $68 reversed single #
loop $-1 $-1 $69 $28 #
plane-surface $-1 0 0 82.168034913174836 0 0 1 1 0 0 forward_v I I I I #
face $-1 $70 $71 $23 $-1 $72 forward single #
loop $-1 $73 $74 $29 #
cone-surface $-1 0 0 -2.3114337595751824 0 0 1 1.5 0 0 1 I I 0 1 1.5 forward I I I I #
face $-1 $75 $76 $18 $-1 $77 reversed single #
loop $-1 $-1 $78 $30 #
plane-surface $-1 0 0 -5.9446867652416904 0 0 1 1 0 0 forward_v I I I I #
coedge $-1 $79 $80 $81 $82 forward $31 $-1 #
face $-1 $83 $84 $19 $-1 $85 reversed single #
loop $-1 $-1 $86 $33 #
plane-surface $-1 0 0 -82.168034913174836 0 0 1 1 0 0 forward_v I I I I #
coedge $-1 $87 $88 $89 $90 forward $34 $-1 #
face $-1 $-1 $91 $20 $-1 $92 forward single #
loop $-1 $-1 $93 $36 #
plane-surface $-1 0 0 -2.7126529740287491 0 0 -1 -1 0 0 forward_v I I I I #
loop $-1 $-1 $94 $26 #
coedge $-1 $60 $60 $93 $95 reversed $37 $-1 #
face $-1 $-1 $96 $21 $-1 $97 forward single #
loop $-1 $-1 $98 $39 #
plane-surface $-1 0 0 -2.7126529740287491 0 0 -1 -1 0 0 forward_v I I I I #
loop $-1 $-1 $99 $27 #
coedge $-1 $65 $65 $98 $100 reversed $40 $-1 #
face $-1 $101 $102 $22 $-1 $103 reversed single #
loop $-1 $-1 $104 $42 #
plane-surface $-1 0 0 -82.168034913174836 0 0 1 1 0 0 forward_v I I I I #
coedge $-1 $105 $106 $107 $108 forward $43 $-1 #
face $-1 $-1 $109 $23 $-1 $110 forward single #
loop $-1 $-1 $111 $45 #
plane-surface $-1 0 0 -3.8728675191503648 0 0 -1 -1 0 0 forward_v I I I I #
loop $-1 $-1 $112 $29 #
coedge $-1 $74 $74 $111 $113 reversed $46 $-1 #
face $-1 $114 $115 $18 $-1 $116 reversed single #
loop $-1 $-1 $117 $48 #
plane-surface $-1 0 -21.066984408370406 0 0 1 0 0 0 1 forward_v I I I I #
coedge $-1 $118 $119 $120 $121 forward $49 $-1 #
coedge $-1 $122 $51 $123 $124 forward $31 $-1 #
coedge $-1 $51 $122 $125 $126 forward $31 $-1 #
coedge $-1 $127 $128 $51 $82 reversed $129 $-1 #
edge $-1 $130 -21.066984408370406 $131 21.066984408370406 $81 $132 forward 7 unknown #
face $-1 $133 $134 $19 $-1 $135 reversed single #
loop $-1 $-1 $136 $52 #
plane-surface $-1 0 -164.33606982634967 0 0 1 0 0 0 1 forward_v I I I I #
coedge $-1 $137 $138 $139 $140 forward $53 $-1 #
coedge $-1 $141 $55 $142 $143 forward $34 $-1 #
coedge $-1 $55 $141 $144 $145 forward $34 $-1 #
coedge $-1 $146 $147 $55 $90 reversed $148 $-1 #
edge $-1 $149 -164.33606982634967 $150 164.33606982634967 $89 $151 forward 7 unknown #
loop $-1 $152 $153 $56 #
cone-surface $-1 0 0 0 0 0 1 0.5 0 0 1 I I -0.70710678118654746 0.70710678118654746 0.5 forward I I I I #
coedge $-1 $93 $93 $60 $95 forward $57 $-1 #
coedge $-1 $94 $94 $153 $154 forward $59 $-1 #
edge $-1 $155 0 $155 6.2831853071796004 $93 $156 forward 7 unknown #
loop $-1 $157 $158 $61 #
cone-surface $-1 0 0 0 0 0 1 0.5 0 0 1 I I -0.70710678118654746 0.70710678118654746 0.5 forward I I I I #
coedge $-1 $98 $98 $65 $100 forward $62 $-1 #
coedge $-1 $99 $99 $158 $159 forward $64 $-1 #
edge $-1 $160 0 $160 6.2831853071796004 $98 $161 forward 7 unknown #
face $-1 $162 $163 $22 $-1 $164 reversed single #
loop $-1 $-1 $165 $66 #
plane-surface $-1 0 -164.33606982634967 0 0 1 0 0 0 1 forward_v I I I I #
coedge $-1 $166 $167 $168 $169 forward $67 $-1 #
coedge $-1 $170 $69 $171 $172 forward $43 $-1 #
coedge $-1 $69 $170 $173 $174 forward $43 $-1 #
coedge $-1 $175 $176 $69 $108 reversed $177 $-1 #
edge $-1 $178 -164.33606982634967 $179 164.33606982634967 $107 $180 forward 7 unknown #
loop $-1 $181 $182 $70 #
cone-surface $-1 0 0 0 0 0 1 0.75 0 0 1 I I -0.70710678118654768 0.70710678118654757 0.75 forward I I I I #
coedge $-1 $111 $111 $74 $113 forward $71 $-1 #
coedge $-1 $112 $112 $182 $183 forward $73 $-1 #
edge $-1 $184 0 $184 6.2831853071796004 $111 $185 forward 7 unknown #
face $-1 $186 $187 $18 $-1 $188 reversed single #
loop $-1 $-1 $189 $75 #
plane-surface $-1 -41.084017456587418 0 0 1 0 0 0 0 -1 forward_v I I I I #
coedge $-1 $190 $125 $191 $192 forward $76 $-1 #
coedge $-1 $193 $78 $190 $194 forward $49 $-1 #
coedge $-1 $78 $193 $195 $196 forward $49 $-1 #
coedge $-1 $128 $127 $78 $121 reversed $129 $-1 #
edge $-1 $197 -21.066984408370406 $198 21.066984408370406 $120 $199 forward 7 unknown #
coedge $-1 $80 $79 $200 $201 forward $31 $-1 #
coedge $-1 $202 $203 $79 $124 reversed $187 $-1 #
edge $-1 $131 -41.084017456587418 $204 41.084017456587418 $123 $205 forward 7 unknown #
coedge $-1 $117 $206 $80 $126 reversed $76 $-1 #
edge $-1 $207 -41.084017456587418 $130 41.084017456587418 $125 $208 forward 7 unknown #
coedge $-1 $120 $81 $206 $209 forward $129 $-1 #
coedge $-1 $81 $120 $202 $210 reversed $129 $-1 #
loop $-1 $-1 $127 $186 #
vertex $-1 $82 $211 #
vertex $-1 $82 $212 #
straight-curve $-1 41.084017456587418 0 5.9446867652416904 0 1 0 I I #
face $-1 $213 $214 $19 $-1 $215 reversed single #
loop $-1 $-1 $216 $83 #
plane-surface $-1 -9.8719752020154736 0 0 1 0 0 0 0 -1 forward_v I I I I #
coedge $-1 $217 $144 $218 $219 forward $84 $-1 #
coedge $-1 $220 $86 $217 $221 forward $53 $-1 #
coedge $-1 $86 $220 $222 $223 forward $53 $-1 #
coedge $-1 $147 $146 $86 $140 reversed $148 $-1 #
edge $-1 $224 -164.33606982634967 $225 164.33606982634967 $139 $226 forward 7 unknown #
coedge $-1 $88 $87 $227 $228 forward $34 $-1 #
coedge $-1 $229 $230 $87 $143 reversed $214 $-1 #
edge $-1 $150 -9.8719752020154736 $231 9.8719752020154736 $142 $232 forward 7 unknown #
coedge $-1 $136 $233 $88 $145 reversed $84 $-1 #
edge $-1 $234 -9.8719752020154736 $149 9.8719752020154736 $144 $235 forward 7 unknown #
coedge $-1 $139 $89 $233 $236 forward $148 $-1 #
coedge $-1 $89 $139 $229 $237 reversed $148 $-1 #
loop $-1 $-1 $146 $213 #
vertex $-1 $90 $238 #
vertex $-1 $90 $239 #
straight-curve $-1 9.8719752020154736 0 82.168034913174836 0 1 0 I I #
loop $-1 $-1 $240 $56 #
coedge $-1 $153 $153 $94 $154 reversed $91 $-1 #
edge $-1 $241 0 $241 6.2831853071796004 $153 $242 forward 7 unknown #
vertex $-1 $95 $243 #
ellipse-curve $-1 0 0 -2.7126529740287491 0 0 -1 1 0 0 1 I I #
loop $-1 $-1 $244 $61 #
coedge $-1 $158 $158 $99 $159 reversed $96 $-1 #
edge $-1 $245 0 $245 6.2831853071796004 $158 $246 forward 7 unknown #
vertex $-1 $100 $247 #
ellipse-curve $-1 0 0 -2.7126529740287491 0 0 -1 1 0 0 1 I I #
face $-1 $248 $249 $22 $-1 $250 reversed single #
loop $-1 $-1 $251 $101 #
plane-surface $-1 -7.0960111330166491 0 0 1 0 0 0 0 -1 forward_v I I I I #
coedge $-1 $252 $173 $253 $254 forward $102 $-1 #
coedge $-1 $255 $104 $252 $256 forward $67 $-1 #
coedge $-1 $104 $255 $257 $258 forward $67 $-1 #
coedge $-1 $176 $175 $104 $169 reversed $177 $-1 #
edge $-1 $259 -164.33606982634967 $260 164.33606982634967 $168 $261 forward 7 unknown #
coedge $-1 $106 $105 $262 $263 forward $43 $-1 #
coedge $-1 $264 $265 $105 $172 reversed $249 $-1 #
edge $-1 $179 -7.0960111330166491 $266 7.0960111330166491 $171 $267 forward 7 unknown #
coedge $-1 $165 $268 $106 $174 reversed $102 $-1 #
edge $-1 $269 -7.0960111330166491 $178 7.0960111330166491 $173 $270 forward 7 unknown #
coedge $-1 $168 $107 $268 $271 forward $177 $-1 #
coedge $-1 $107 $168 $264 $272 reversed $177 $-1 #
loop $-1 $-1 $175 $248 #
vertex $-1 $108 $273 #
vertex $-1 $108 $274 #
straight-curve $-1 7.0960111330166491 0 82.168034913174836 0 1 0 I I #
loop $-1 $-1 $275 $70 #
coedge $-1 $182 $182 $112 $183 reversed $109 $-1 #
edge $-1 $276 0 $276 6.2831853071796004 $182 $277 forward 7 unknown #
vertex $-1 $113 $278 #
ellipse-curve $-1 0 0 -3.8728675191503648 0 0 -1 1.5 0 0 1 I I #
face $-1 $-1 $129 $18 $-1 $279 reversed single #
loop $-1 $-1 $202 $114 #
plane-surface $-1 0 21.066984408370406 0 0 -1 0 0 0 -1 forward_v I I I I #
coedge $-1 $280 $200 $203 $281 forward $115 $-1 #
coedge $-1 $206 $117 $118 $194 reversed $76 $-1 #
coedge $-1 $200 $280 $117 $192 reversed $115 $-1 #
edge $-1 $207 -5.9446867652416904 $282 5.9446867652416904 $191 $283 forward 7 unknown #
coedge $-1 $119 $118 $280 $284 forward $49 $-1 #
edge $-1 $198 -41.084017456587418 $282 41.084017456587418 $190 $285 forward 7 unknown #
coedge $-1 $203 $202 $119 $196 reversed $187 $-1 #
edge $-1 $286 -41.084017456587418 $197 41.084017456587418 $195 $287 forward 7 unknown #
vertex $-1 $121 $288 #
vertex $-1 $209 $289 #
straight-curve $-1 41.084017456587418 0 -5.9446867652416904 0 -1 0 I I #
coedge $-1 $189 $191 $122 $201 reversed $115 $-1 #
edge $-1 $204 -21.066984408370406 $207 21.066984408370406 $200 $290 forward 7 unknown #
coedge $-1 $195 $123 $128 $210 forward $187 $-1 #
coedge $-1 $123 $195 $189 $281 reversed $187 $-1 #
vertex $-1 $124 $291 #
straight-curve $-1 0 21.066984408370406 5.9446867652416904 -1 0 0 I I #
coedge $-1 $125 $190 $127 $209 reversed $76 $-1 #
vertex $-1 $201 $292 #
straight-curve $-1 0 -21.066984408370406 5.9446867652416904 1 0 0 I I #
edge $-1 $130 -5.9446867652416904 $198 5.9446867652416904 $127 $293 forward 7 unknown #
edge $-1 $131 -5.9446867652416904 $197 5.9446867652416904 $128 $294 forward 7 unknown #
point $-1 41.084017456587418 -21.066984408370406 5.9446867652416904 #
point $-1 41.084017456587418 21.066984408370406 5.9446867652416904 #
face $-1 $-1 $148 $19 $-1 $295 reversed single #
loop $-1 $-1 $229 $133 #
plane-surface $-1 0 164.33606982634967 0 0 -1 0 0 0 -1 forward_v I I I I #
coedge $-1 $296 $227 $230 $297 forward $134 $-1 #
coedge $-1 $233 $136 $137 $221 reversed $84 $-1 #
coedge $-1 $227 $296 $136 $219 reversed $134 $-1 #
edge $-1 $234 -82.168034913174836 $298 82.168034913174836 $218 $299 forward 7 unknown #
coedge $-1 $138 $137 $296 $300 forward $53 $-1 #
edge $-1 $225 -9.8719752020154736 $298 9.8719752020154736 $217 $301 forward 7 unknown #
coedge $-1 $230 $229 $138 $223 reversed $214 $-1 #
edge $-1 $302 -9.8719752020154736 $224 9.8719752020154736 $222 $303 forward 7 unknown #
vertex $-1 $140 $304 #
vertex $-1 $236 $305 #
straight-curve $-1 9.8719752020154736 0 -82.168034913174836 0 -1 0 I I #
coedge $-1 $216 $218 $141 $228 reversed $134 $-1 #
edge $-1 $231 -164.33606982634967 $234 164.33606982634967 $227 $306 forward 7 unknown #
coedge $-1 $222 $142 $147 $237 forward $214 $-1 #
coedge $-1 $142 $222 $216 $297 reversed $214 $-1 #
vertex $-1 $143 $307 #
straight-curve $-1 0 164.33606982634967 82.168034913174836 -1 0 0 I I #
coedge $-1 $144 $217 $146 $236 reversed $84 $-1 #
vertex $-1 $228 $308 #
straight-curve $-1 0 -164.33606982634967 82.168034913174836 1 0 0 I I #
edge $-1 $149 -82.168034913174836 $225 82.168034913174836 $146 $309 forward 7 unknown #
edge $-1 $150 -82.168034913174836 $224 82.168034913174836 $147 $310 forward 7 unknown #
point $-1 9.8719752020154736 -164.33606982634967 82.168034913174836 #
point $-1 9.8719752020154736 164.33606982634967 82.168034913174836 #
coedge $-1 $240 $240 $-1 $311 reversed $152 $-1 #
vertex $-1 $154 $312 #
ellipse-curve $-1 0 0 -0.5 0 0 -1 1 0 0 1 I I #
point $-1 1 0 -2.7126529740287491 #
coedge $-1 $244 $244 $-1 $313 reversed $157 $-1 #
vertex $-1 $159 $314 #
ellipse-curve $-1 0 0 -0.5 0 0 -1 1 0 0 1 I I #
point $-1 1 0 -2.7126529740287491 #
face $-1 $-1 $177 $22 $-1 $315 reversed single #
loop $-1 $-1 $264 $162 #
plane-surface $-1 0 164.33606982634967 0 0 -1 0 0 0 -1 forward_v I I I I #
coedge $-1 $316 $262 $265 $317 forward $163 $-1 #
coedge $-1 $268 $165 $166 $256 reversed $102 $-1 #
coedge $-1 $262 $316 $165 $254 reversed $163 $-1 #
edge $-1 $269 -82.168034913174836 $318 82.168034913174836 $253 $319 forward 7 unknown #
coedge $-1 $167 $166 $316 $320 forward $67 $-1 #
edge $-1 $260 -7.0960111330166491 $318 7.0960111330166491 $252 $321 forward 7 unknown #
coedge $-1 $265 $264 $167 $258 reversed $249 $-1 #
edge $-1 $322 -7.0960111330166491 $259 7.0960111330166491 $257 $323 forward 7 unknown #
vertex $-1 $169 $324 #
vertex $-1 $271 $325 #
straight-curve $-1 7.0960111330166491 0 -82.168034913174836 0 -1 0 I I #
coedge $-1 $251 $253 $170 $263 reversed $163 $-1 #
edge $-1 $266 -164.33606982634967 $269 164.33606982634967 $262 $326 forward 7 unknown #
coedge $-1 $257 $171 $176 $272 forward $249 $-1 #
coedge $-1 $171 $257 $251 $317 reversed $249 $-1 #
vertex $-1 $172 $327 #
straight-curve $-1 0 164.33606982634967 82.168034913174836 -1 0 0 I I #
coedge $-1 $173 $252 $175 $271 reversed $102 $-1 #
vertex $-1 $263 $328 #
straight-curve $-1 0 -164.33606982634967 82.168034913174836 1 0 0 I I #
edge $-1 $178 -82.168034913174836 $260 82.168034913174836 $175 $329 forward 7 unknown #
edge $-1 $179 -82.168034913174836 $259 82.168034913174836 $176 $330 forward 7 unknown #
point $-1 7.0960111330166491 -164.33606982634967 82.168034913174836 #
point $-1 7.0960111330166491 164.33606982634967 82.168034913174836 #
coedge $-1 $275 $275 $-1 $331 reversed $181 $-1 #
vertex $-1 $183 $332 #
ellipse-curve $-1 0 0 -0.74999999999999978 0 0 -1 1.5 0 0 1 I I #
point $-1 1.5 0 -3.8728675191503648 #
plane-surface $-1 41.084017456587418 0 0 -1 0 0 0 0 1 forward_v I I I I #
coedge $-1 $191 $189 $193 $284 reversed $115 $-1 #
edge $-1 $204 -5.9446867652416904 $286 5.9446867652416904 $203 $333 forward 7 unknown #
vertex $-1 $284 $334 #
straight-curve $-1 -41.084017456587418 -21.066984408370406 0 0 0 -1 I I #
edge $-1 $282 -21.066984408370406 $286 21.066984408370406 $280 $335 forward 7 unknown #
straight-curve $-1 0 -21.066984408370406 -5.9446867652416904 -1 0 0 I I #
vertex $-1 $196 $336 #
straight-curve $-1 0 21.066984408370406 -5.9446867652416904 1 0 0 I I #
point $-1 41.084017456587418 21.066984408370406 -5.9446867652416904 #
point $-1 41.084017456587418 -21.066984408370406 -5.9446867652416904 #
straight-curve $-1 -41.084017456587418 0 5.9446867652416904 0 -1 0 I I #
point $-1 -41.084017456587418 21.066984408370406 5.9446867652416904 #
point $-1 -41.084017456587418 -21.066984408370406 5.9446867652416904 #
straight-curve $-1 41.084017456587418 -21.066984408370406 0 0 0 -1 I I #
straight-curve $-1 41.084017456587418 21.066984408370406 0 0 0 -1 I I #
plane-surface $-1 9.8719752020154736 0 0 -1 0 0 0 0 1 forward_v I I I I #
coedge $-1 $218 $216 $220 $300 reversed $134 $-1 #
edge $-1 $231 -82.168034913174836 $302 82.168034913174836 $230 $337 forward 7 unknown #
vertex $-1 $300 $338 #
straight-curve $-1 -9.8719752020154736 -164.33606982634967 0 0 0 -1 I I #
edge $-1 $298 -164.33606982634967 $302 164.33606982634967 $296 $339 forward 7 unknown #
straight-curve $-1 0 -164.33606982634967 -82.168034913174836 -1 0 0 I I #
vertex $-1 $223 $340 #
straight-curve $-1 0 164.33606982634967 -82.168034913174836 1 0 0 I I #
point $-1 9.8719752020154736 164.33606982634967 -82.168034913174836 #
point $-1 9.8719752020154736 -164.33606982634967 -82.168034913174836 #
straight-curve $-1 -9.8719752020154736 0 82.168034913174836 0 -1 0 I I #
point $-1 -9.8719752020154736 164.33606982634967 82.168034913174836 #
point $-1 -9.8719752020154736 -164.33606982634967 82.168034913174836 #
straight-curve $-1 9.8719752020154736 -164.33606982634967 0 0 0 -1 I I #
straight-curve $-1 9.8719752020154736 164.33606982634967 0 0 0 -1 I I #
edge $-1 $341 1 $341 0 $240 $-1 forward 7 unknown #
point $-1 1 0 -0.5 #
edge $-1 $342 1 $342 0 $244 $-1 forward 7 unknown #
point $-1 1 0 -0.5 #
plane-surface $-1 7.0960111330166491 0 0 -1 0 0 0 0 1 forward_v I I I I #
coedge $-1 $253 $251 $255 $320 reversed $163 $-1 #
edge $-1 $266 -82.168034913174836 $322 82.168034913174836 $265 $343 forward 7 unknown #
vertex $-1 $320 $344 #
straight-curve $-1 -7.0960111330166491 -164.33606982634967 0 0 0 -1 I I #
edge $-1 $318 -164.33606982634967 $322 164.33606982634967 $316 $345 forward 7 unknown #
straight-curve $-1 0 -164.33606982634967 -82.168034913174836 -1 0 0 I I #
vertex $-1 $258 $346 #
straight-curve $-1 0 164.33606982634967 -82.168034913174836 1 0 0 I I #
point $-1 7.0960111330166491 164.33606982634967 -82.168034913174836 #
point $-1 7.0960111330166491 -164.33606982634967 -82.168034913174836 #
straight-curve $-1 -7.0960111330166491 0 82.168034913174836 0 -1 0 I I #
point $-1 -7.0960111330166491 164.33606982634967 82.168034913174836 #
point $-1 -7.0960111330166491 -164.33606982634967 82.168034913174836 #
straight-curve $-1 7.0960111330166491 -164.33606982634967 0 0 0 -1 I I #
straight-curve $-1 7.0960111330166491 164.33606982634967 0 0 0 -1 I I #
edge $-1 $347 1 $347 0 $275 $-1 forward 7 unknown #
point $-1 1.5 0 -0.74999999999999978 #
straight-curve $-1 -41.084017456587418 21.066984408370406 0 0 0 -1 I I #
point $-1 -41.084017456587418 -21.066984408370406 -5.9446867652416904 #
straight-curve $-1 -41.084017456587418 0 -5.9446867652416904 0 1 0 I I #
point $-1 -41.084017456587418 21.066984408370406 -5.9446867652416904 #
straight-curve $-1 -9.8719752020154736 164.33606982634967 0 0 0 -1 I I #
point $-1 -9.8719752020154736 -164.33606982634967 -82.168034913174836 #
straight-curve $-1 -9.8719752020154736 0 -82.168034913174836 0 1 0 I I #
point $-1 -9.8719752020154736 164.33606982634967 -82.168034913174836 #
vertex $-1 $311 $348 #
vertex $-1 $313 $349 #
straight-curve $-1 -7.0960111330166491 164.33606982634967 0 0 0 -1 I I #
point $-1 -7.0960111330166491 -164.33606982634967 -82.168034913174836 #
straight-curve $-1 -7.0960111330166491 0 -82.168034913174836 0 1 0 I I #
point $-1 -7.0960111330166491 164.33606982634967 -82.168034913174836 #
vertex $-1 $331 $350 #
point $-1 0 0 0.5 #
point $-1 0 0 0.5 #
point $-1 0 0 0.74999999999999978 #
End-of-ACIS-data 