500 0 17 0           
7 Unknown 11 ACIS 5.0 NT 24 Fri Mar 26 20:19:15 1999 
-1 9.9999999999999995e-007 1e-010 
body $-1 $17 $-1 $18 #
body $-1 $19 $-1 $20 #
body $-1 $21 $-1 $22 #
body $-1 $23 $-1 $24 #
body $-1 $25 $-1 $26 #
body $-1 $27 $-1 $28 #
body $-1 $29 $-1 $30 #
body $-1 $31 $-1 $32 #
body $-1 $33 $-1 $34 #
body $-1 $35 $-1 $36 #
body $-1 $37 $-1 $38 #
body $-1 $39 $-1 $40 #
body $-1 $41 $-1 $42 #
body $-1 $43 $-1 $44 #
body $-1 $45 $-1 $46 #
body $-1 $47 $-1 $48 #
body $-1 $49 $-1 $50 #
lump $-1 $-1 $51 $0 #
transform $-1 1 0 0 0 1 0 0 0 1 61.226233710745568 42.163829735090665 14.174623335363773 1 rotate no_reflect no_shear #
lump $-1 $-1 $52 $1 #
transform $-1 1 0 0 0 1 0 0 0 1 61.226233710745568 42.163829735090665 14.174623335363773 1 rotate no_reflect no_shear #
lump $-1 $-1 $53 $2 #
transform $-1 1 0 0 0 1 0 0 0 1 61.226233710745568 42.163829735090665 14.174623335363773 1 rotate no_reflect no_shear #
lump $-1 $-1 $54 $3 #
transform $-1 1 0 0 0 1 0 0 0 1 61.226233710745568 42.163829735090665 14.174623335363773 1 rotate no_reflect no_shear #
lump $-1 $-1 $55 $4 #
transform $-1 1 0 0 0 1 0 0 0 1 61.226233710745568 42.163829735090665 14.174623335363773 1 rotate no_reflect no_shear #
lump $-1 $-1 $56 $5 #
transform $-1 1 0 0 0 1 0 0 0 1 61.226233710745568 42.163829735090665 14.174623335363773 1 rotate no_reflect no_shear #
lump $-1 $-1 $57 $6 #
transform $-1 1 0 0 0 1 0 0 0 1 61.226233710745568 42.163829735090665 14.174623335363773 1 rotate no_reflect no_shear #
lump $-1 $-1 $58 $7 #
transform $-1 1 0 0 0 1 0 0 0 1 61.226233710745568 42.163829735090665 14.174623335363773 1 rotate no_reflect no_shear #
lump $-1 $-1 $59 $8 #
transform $-1 1 0 0 0 1 0 0 0 1 61.226233710745568 42.163829735090665 14.174623335363773 1 rotate no_reflect no_shear #
lump $-1 $-1 $60 $9 #
transform $-1 1 0 0 0 1 0 0 0 1 61.226233710745568 42.163829735090665 14.174623335363773 1 rotate no_reflect no_shear #
lump $-1 $-1 $61 $10 #
transform $-1 1 0 0 0 1 0 0 0 1 61.226233710745568 42.163829735090665 14.174623335363773 1 rotate no_reflect no_shear #
lump $-1 $-1 $62 $11 #
transform $-1 1 0 0 0 1 0 0 0 1 61.226233710745568 42.163829735090665 14.174623335363773 1 rotate no_reflect no_shear #
lump $-1 $-1 $63 $12 #
transform $-1 1 0 0 0 1 0 0 0 1 61.226233710745568 42.163829735090665 14.174623335363773 1 rotate no_reflect no_shear #
lump $-1 $-1 $64 $13 #
transform $-1 1 0 0 0 1 0 0 0 1 61.226233710745568 42.163829735090665 14.174623335363773 1 rotate no_reflect no_shear #
lump $-1 $-1 $65 $14 #
transform $-1 1 0 0 0 1 0 0 0 1 61.226233710745568 42.163829735090665 14.174623335363773 1 rotate no_reflect no_shear #
lump $-1 $-1 $66 $15 #
transform $-1 1 0 0 0 1 0 0 0 1 61.226233710745568 42.163829735090665 14.174623335363773 1 rotate no_reflect no_shear #
lump $-1 $-1 $67 $16 #
transform $-1 1 0 0 0 1 0 0 0 1 61.226233710745568 42.163829735090665 14.174623335363773 1 rotate no_reflect no_shear #
shell $-1 $-1 $-1 $68 $-1 $17 #
shell $-1 $-1 $-1 $69 $-1 $19 #
shell $-1 $-1 $-1 $70 $-1 $21 #
shell $-1 $-1 $-1 $71 $-1 $23 #
shell $-1 $-1 $-1 $72 $-1 $25 #
shell $-1 $-1 $-1 $73 $-1 $27 #
shell $-1 $-1 $-1 $74 $-1 $29 #
shell $-1 $-1 $-1 $75 $-1 $31 #
shell $-1 $-1 $-1 $76 $-1 $33 #
shell $-1 $-1 $-1 $77 $-1 $35 #
shell $-1 $-1 $-1 $78 $-1 $37 #
shell $-1 $-1 $-1 $79 $-1 $39 #
shell $-1 $-1 $-1 $80 $-1 $41 #
shell $-1 $-1 $-1 $81 $-1 $43 #
shell $-1 $-1 $-1 $82 $-1 $45 #
shell $-1 $-1 $-1 $83 $-1 $47 #
shell $-1 $-1 $-1 $84 $-1 $49 #
face $-1 $85 $86 $51 $-1 $87 forward single #
face $-1 $88 $89 $52 $-1 $90 reversed single #
face $-1 $91 $92 $53 $-1 $93 forward single #
face $-1 $94 $95 $54 $-1 $96 forward single #
face $-1 $97 $98 $55 $-1 $99 forward single #
face $-1 $100 $101 $56 $-1 $102 reversed single #
face $-1 $103 $104 $57 $-1 $105 forward single #
face $-1 $106 $107 $58 $-1 $108 forward single #
face $-1 $109 $110 $59 $-1 $111 reversed single #
face $-1 $112 $113 $60 $-1 $114 forward single #
face $-1 $115 $116 $61 $-1 $117 forward single #
face $-1 $118 $119 $62 $-1 $120 reversed single #
face $-1 $121 $122 $63 $-1 $123 forward single #
face $-1 $124 $125 $64 $-1 $126 forward single #
face $-1 $127 $128 $65 $-1 $129 reversed single #
face $-1 $130 $131 $66 $-1 $132 forward single #
face $-1 $133 $134 $67 $-1 $135 forward single #
face $-1 $136 $137 $51 $-1 $138 reversed single #
loop $-1 $-1 $139 $68 #
plane-surface $-1 0 0 14.174623335363773 0 0 1 1 0 0 forward_v I I I I #
face $-1 $140 $141 $52 $-1 $142 reversed single #
loop $-1 $-1 $143 $69 #
plane-surface $-1 13.061432852917804 -128.75080082648162 97.541967263285898 -1 0 0 0 -0.70710678939079041 0.70710677298230451 forward_v I I I I #
face $-1 $144 $145 $53 $-1 $146 forward single #
loop $-1 $147 $148 $70 #
cone-surface $-1 2.5303786461316591 -40.200463800646517 12.211257371768003 0 0.70710678939079041 -0.70710677298230451 0.5 0 0 1 I I 0 1 0.5 forward I I I I #
face $-1 $149 $150 $54 $-1 $151 forward single #
loop $-1 $152 $153 $71 #
cone-surface $-1 6.4795239736764714 -40.200463800646517 12.211257371768003 0 0.70710678939079041 -0.70710677298230451 0.5 0 0 1 I I 0 1 0.5 forward I I I I #
face $-1 $154 $155 $55 $-1 $156 forward single #
loop $-1 $157 $158 $72 #
cone-surface $-1 10.428669301221284 -40.200463800646517 12.211257371768003 0 0.70710678939079041 -0.70710677298230451 0.5 0 0 1 I I 0 1 0.5 forward I I I I #
face $-1 $159 $160 $56 $-1 $161 reversed single #
loop $-1 $-1 $162 $73 #
plane-surface $-1 -46.458186607118044 64.002867430275046 149.42938405184788 -1 0 0 0 0.68199836817093118 0.7313536940579346 forward_v I I I I #
face $-1 $163 $164 $57 $-1 $165 forward single #
loop $-1 $166 $167 $74 #
cone-surface $-1 -57.006791681137706 34.562645205245133 6.9091482791852448 0 -0.68199836817093118 -0.7313536940579346 1.5 0 0 1 I I 0 1 1.5 forward I I I I #
face $-1 $168 $169 $58 $-1 $170 forward single #
loop $-1 $171 $172 $75 #
cone-surface $-1 -50.677628636725906 34.562645205245133 6.9091482791852448 0 -0.68199836817093118 -0.7313536940579346 1.5 0 0 1 I I 0 1 1.5 forward I I I I #
face $-1 $173 $174 $59 $-1 $175 reversed single #
loop $-1 $-1 $176 $76 #
plane-surface $-1 -15.845069751745255 64.002867430275046 149.42938405184788 -1 0 0 0 0.68199836817093118 0.7313536940579346 forward_v I I I I #
face $-1 $177 $178 $60 $-1 $179 forward single #
loop $-1 $180 $181 $77 #
cone-surface $-1 -26.393674825764919 34.562645205245133 6.9091482791852448 0 -0.68199836817093118 -0.7313536940579346 1.5 0 0 1 I I 0 1 1.5 forward I I I I #
face $-1 $182 $183 $61 $-1 $184 forward single #
loop $-1 $185 $186 $78 #
cone-surface $-1 -20.064511781353119 34.562645205245133 6.9091482791852448 0 -0.68199836817093118 -0.7313536940579346 1.5 0 0 1 I I 0 1 1.5 forward I I I I #
face $-1 $187 $188 $62 $-1 $189 reversed single #
loop $-1 $-1 $190 $79 #
plane-surface $-1 14.76804710362754 64.002867430275046 149.42938405184788 -1 0 0 0 0.68199836817093118 0.7313536940579346 forward_v I I I I #
face $-1 $191 $192 $63 $-1 $193 forward single #
loop $-1 $194 $195 $80 #
cone-surface $-1 4.219442029607869 34.562645205245133 6.9091482791852448 0 -0.68199836817093118 -0.7313536940579346 1.5 0 0 1 I I 0 1 1.5 forward I I I I #
face $-1 $196 $197 $64 $-1 $198 forward single #
loop $-1 $199 $200 $81 #
cone-surface $-1 10.548605074019669 34.562645205245133 6.9091482791852448 0 -0.68199836817093118 -0.7313536940579346 1.5 0 0 1 I I 0 1 1.5 forward I I I I #
face $-1 $201 $202 $65 $-1 $203 reversed single #
loop $-1 $-1 $204 $82 #
plane-surface $-1 45.381163959000332 64.002867430275046 149.42938405184788 -1 0 0 0 0.68199836817093118 0.7313536940579346 forward_v I I I I #
face $-1 $205 $206 $66 $-1 $207 forward single #
loop $-1 $208 $209 $83 #
cone-surface $-1 34.832558884980664 34.562645205245133 6.9091482791852448 0 -0.68199836817093118 -0.7313536940579346 1.5 0 0 1 I I 0 1 1.5 forward I I I I #
face $-1 $210 $211 $67 $-1 $212 forward single #
loop $-1 $213 $214 $84 #
cone-surface $-1 41.161721929392449 34.562645205245133 6.9091482791852448 0 -0.68199836817093118 -0.7313536940579346 1.5 0 0 1 I I 0 1 1.5 forward I I I I #
face $-1 $215 $216 $51 $-1 $217 reversed single #
loop $-1 $-1 $218 $85 #
plane-surface $-1 0 0 -14.174623335363773 0 0 1 1 0 0 forward_v I I I I #
coedge $-1 $219 $220 $221 $222 forward $86 $-1 #
face $-1 $223 $224 $52 $-1 $225 reversed single #
loop $-1 $-1 $226 $88 #
plane-surface $-1 6.4795239736764572 -42.163829735090673 10.954998181154522 0 -0.70710678939079041 0.70710677298230451 1 0 0 forward_v I I I I #
coedge $-1 $227 $228 $229 $230 reversed $89 $-1 #
face $-1 $-1 $231 $53 $-1 $232 forward single #
loop $-1 $233 $234 $91 #
cone-surface $-1 2.5303786461316591 -39.670133708603423 11.680927292031274 0 0.70710678939079041 -0.70710677298230451 0.25 0 0 1 I I -0.70710678118654746 0.70710678118654746 0.25 forward I I I I #
loop $-1 $-1 $235 $70 #
coedge $-1 $148 $148 $236 $237 reversed $92 $-1 #
face $-1 $-1 $238 $54 $-1 $239 forward single #
loop $-1 $240 $241 $94 #
cone-surface $-1 6.4795239736764714 -39.670133708603423 11.680927292031274 0 0.70710678939079041 -0.70710677298230451 0.25 0 0 1 I I -0.70710678118654746 0.70710678118654746 0.25 forward I I I I #
loop $-1 $-1 $242 $71 #
coedge $-1 $153 $153 $243 $244 reversed $95 $-1 #
face $-1 $-1 $245 $55 $-1 $246 forward single #
loop $-1 $247 $248 $97 #
cone-surface $-1 10.428669301221284 -39.670133708603423 11.680927292031274 0 0.70710678939079041 -0.70710677298230451 0.25 0 0 1 I I -0.70710678118654746 0.70710678118654746 0.25 forward I I I I #
loop $-1 $-1 $249 $72 #
coedge $-1 $158 $158 $250 $251 reversed $98 $-1 #
face $-1 $252 $253 $56 $-1 $254 reversed single #
loop $-1 $-1 $255 $100 #
plane-surface $-1 -53.842210158931806 -19.509515529686027 59.873319656631438 0 0.68199836817093118 0.7313536940579346 1 0 0 forward_v I I I I #
coedge $-1 $256 $257 $258 $259 reversed $101 $-1 #
face $-1 $-1 $260 $57 $-1 $261 forward single #
loop $-1 $262 $263 $103 #
cone-surface $-1 -57.006791681137706 32.78370906438483 5.0014728669982382 0 -0.68199836817093118 -0.7313536940579346 0.75 0 0 1 I I -0.70710678118654757 0.70710678118654757 0.75 forward I I I I #
loop $-1 $-1 $264 $74 #
coedge $-1 $167 $167 $265 $266 reversed $104 $-1 #
face $-1 $-1 $267 $58 $-1 $268 forward single #
loop $-1 $269 $270 $106 #
cone-surface $-1 -50.677628636725906 32.78370906438483 5.0014728669982382 0 -0.68199836817093118 -0.7313536940579346 0.75 0 0 1 I I -0.70710678118654757 0.70710678118654757 0.75 forward I I I I #
loop $-1 $-1 $271 $75 #
coedge $-1 $172 $172 $272 $273 reversed $107 $-1 #
face $-1 $274 $275 $59 $-1 $276 reversed single #
loop $-1 $-1 $277 $109 #
plane-surface $-1 -23.229093303559019 -19.509515529686027 59.873319656631438 0 0.68199836817093118 0.7313536940579346 1 0 0 forward_v I I I I #
coedge $-1 $278 $279 $280 $281 reversed $110 $-1 #
face $-1 $-1 $282 $60 $-1 $283 forward single #
loop $-1 $284 $285 $112 #
cone-surface $-1 -26.393674825764919 32.78370906438483 5.0014728669982382 0 -0.68199836817093118 -0.7313536940579346 0.75 0 0 1 I I -0.70710678118654757 0.70710678118654757 0.75 forward I I I I #
loop $-1 $-1 $286 $77 #
coedge $-1 $181 $181 $287 $288 reversed $113 $-1 #
face $-1 $-1 $289 $61 $-1 $290 forward single #
loop $-1 $291 $292 $115 #
cone-surface $-1 -20.064511781353119 32.78370906438483 5.0014728669982382 0 -0.68199836817093118 -0.7313536940579346 0.75 0 0 1 I I -0.70710678118654757 0.70710678118654757 0.75 forward I I I I #
loop $-1 $-1 $293 $78 #
coedge $-1 $186 $186 $294 $295 reversed $116 $-1 #
face $-1 $296 $297 $62 $-1 $298 reversed single #
loop $-1 $-1 $299 $118 #
plane-surface $-1 7.384023551813776 -19.509515529686027 59.873319656631438 0 0.68199836817093118 0.7313536940579346 1 0 0 forward_v I I I I #
coedge $-1 $300 $301 $302 $303 reversed $119 $-1 #
face $-1 $-1 $304 $63 $-1 $305 forward single #
loop $-1 $306 $307 $121 #
cone-surface $-1 4.219442029607869 32.78370906438483 5.0014728669982382 0 -0.68199836817093118 -0.7313536940579346 0.75 0 0 1 I I -0.70710678118654757 0.70710678118654757 0.75 forward I I I I #
loop $-1 $-1 $308 $80 #
coedge $-1 $195 $195 $309 $310 reversed $122 $-1 #
face $-1 $-1 $311 $64 $-1 $312 forward single #
loop $-1 $313 $314 $124 #
cone-surface $-1 10.548605074019669 32.78370906438483 5.0014728669982382 0 -0.68199836817093118 -0.7313536940579346 0.75 0 0 1 I I -0.70710678118654757 0.70710678118654757 0.75 forward I I I I #
loop $-1 $-1 $315 $81 #
coedge $-1 $200 $200 $316 $317 reversed $125 $-1 #
face $-1 $318 $319 $65 $-1 $320 reversed single #
loop $-1 $-1 $321 $127 #
plane-surface $-1 37.997140407186571 -19.509515529686027 59.873319656631438 0 0.68199836817093118 0.7313536940579346 1 0 0 forward_v I I I I #
coedge $-1 $322 $323 $324 $325 reversed $128 $-1 #
face $-1 $-1 $326 $66 $-1 $327 forward single #
loop $-1 $328 $329 $130 #
cone-surface $-1 34.832558884980664 32.78370906438483 5.0014728669982382 0 -0.68199836817093118 -0.7313536940579346 0.75 0 0 1 I I -0.70710678118654757 0.70710678118654757 0.75 forward I I I I #
loop $-1 $-1 $330 $83 #
coedge $-1 $209 $209 $331 $332 reversed $131 $-1 #
face $-1 $-1 $333 $67 $-1 $334 forward single #
loop $-1 $335 $336 $133 #
cone-surface $-1 41.161721929392449 32.78370906438483 5.0014728669982382 0 -0.68199836817093118 -0.7313536940579346 0.75 0 0 1 I I -0.70710678118654757 0.70710678118654757 0.75 forward I I I I #
loop $-1 $-1 $337 $84 #
coedge $-1 $214 $214 $338 $339 reversed $134 $-1 #
face $-1 $340 $341 $51 $-1 $342 reversed single #
loop $-1 $-1 $343 $136 #
plane-surface $-1 0 -42.163829735090665 0 0 1 0 0 0 1 forward_v I I I I #
coedge $-1 $344 $345 $346 $347 forward $137 $-1 #
coedge $-1 $348 $139 $349 $350 forward $86 $-1 #
coedge $-1 $139 $348 $351 $352 forward $86 $-1 #
coedge $-1 $353 $354 $139 $222 reversed $355 $-1 #
edge $-1 $356 -42.163829735090665 $357 42.163829735090665 $221 $358 forward 7 unknown #
face $-1 $359 $360 $52 $-1 $361 reversed single #
loop $-1 $-1 $362 $140 #
plane-surface $-1 -0.10238490556488955 -128.75080082648162 97.541967263285898 1 0 0 0 0.70710678939079041 -0.70710677298230451 forward_v I I I I #
coedge $-1 $363 $364 $365 $366 reversed $141 $-1 #
coedge $-1 $228 $143 $367 $368 reversed $89 $-1 #
coedge $-1 $143 $227 $363 $369 reversed $89 $-1 #
coedge $-1 $365 $370 $143 $230 forward $371 $-1 #
edge $-1 $372 22.211570678150146 $373 25.431195757647657 $229 $374 forward 7 unknown #
loop $-1 $-1 $236 $144 #
plane-surface $-1 6.4795239736764572 -42.163829735090673 10.954998181154522 0 -0.70710678939079041 0.70710677298230451 1 0 0 forward_v I I I I #
loop $-1 $-1 $375 $91 #
coedge $-1 $234 $234 $235 $376 reversed $145 $-1 #
coedge $-1 $235 $235 $234 $376 forward $147 $-1 #
coedge $-1 $236 $236 $148 $237 forward $231 $-1 #
edge $-1 $377 -7.5364436559454884e-015 $377 6.2831853071795933 $236 $378 forward 7 unknown #
loop $-1 $-1 $243 $149 #
plane-surface $-1 6.4795239736764572 -42.163829735090673 10.954998181154522 0 -0.70710678939079041 0.70710677298230451 1 0 0 forward_v I I I I #
loop $-1 $-1 $379 $94 #
coedge $-1 $241 $241 $242 $380 reversed $150 $-1 #
coedge $-1 $242 $242 $241 $380 forward $152 $-1 #
coedge $-1 $243 $243 $153 $244 forward $238 $-1 #
edge $-1 $381 -7.5364436559454884e-015 $381 6.2831853071795933 $243 $382 forward 7 unknown #
loop $-1 $-1 $250 $154 #
plane-surface $-1 6.4795239736764572 -42.163829735090673 10.954998181154522 0 -0.70710678939079041 0.70710677298230451 1 0 0 forward_v I I I I #
loop $-1 $-1 $383 $97 #
coedge $-1 $248 $248 $249 $384 reversed $155 $-1 #
coedge $-1 $249 $249 $248 $384 forward $157 $-1 #
coedge $-1 $250 $250 $158 $251 forward $245 $-1 #
edge $-1 $385 -7.5364436559454884e-015 $385 6.2831853071795933 $250 $386 forward 7 unknown #
face $-1 $387 $388 $56 $-1 $389 forward single #
loop $-1 $-1 $258 $159 #
plane-surface $-1 0 42.163829735090665 0 0 -1 0 0 0 -1 forward_v I I I I #
coedge $-1 $390 $391 $392 $393 reversed $160 $-1 #
coedge $-1 $257 $162 $394 $395 reversed $101 $-1 #
coedge $-1 $162 $256 $390 $396 reversed $101 $-1 #
coedge $-1 $392 $397 $162 $259 forward $253 $-1 #
edge $-1 $398 60.540068690560162 $399 72.352698519630138 $258 $400 forward 7 unknown #
loop $-1 $-1 $265 $163 #
plane-surface $-1 -53.842210158931806 -19.509515529686027 59.873319656631438 0 0.68199836817093118 0.7313536940579346 1 0 0 forward_v I I I I #
loop $-1 $-1 $401 $103 #
coedge $-1 $263 $263 $264 $402 reversed $164 $-1 #
coedge $-1 $264 $264 $263 $402 forward $166 $-1 #
coedge $-1 $265 $265 $167 $266 forward $260 $-1 #
edge $-1 $403 -1.0626694490517509e-016 $403 6.2831853071796004 $265 $404 forward 7 unknown #
loop $-1 $-1 $272 $168 #
plane-surface $-1 -53.842210158931806 -19.509515529686027 59.873319656631438 0 0.68199836817093118 0.7313536940579346 1 0 0 forward_v I I I I #
loop $-1 $-1 $405 $106 #
coedge $-1 $270 $270 $271 $406 reversed $169 $-1 #
coedge $-1 $271 $271 $270 $406 forward $171 $-1 #
coedge $-1 $272 $272 $172 $273 forward $267 $-1 #
edge $-1 $407 -1.0626694490517509e-016 $407 6.2831853071796004 $272 $408 forward 7 unknown #
face $-1 $409 $410 $59 $-1 $411 forward single #
loop $-1 $-1 $412 $173 #
plane-surface $-1 -30.61311685537278 64.002867430275046 149.42938405184788 1 0 0 0 -0.68199836817093118 -0.7313536940579346 forward_v I I I I #
coedge $-1 $413 $414 $415 $416 reversed $174 $-1 #
coedge $-1 $279 $176 $417 $418 reversed $110 $-1 #
coedge $-1 $176 $278 $413 $419 reversed $110 $-1 #
coedge $-1 $415 $420 $176 $281 forward $421 $-1 #
edge $-1 $422 60.540068690560162 $423 72.352698519630138 $280 $424 forward 7 unknown #
loop $-1 $-1 $287 $177 #
plane-surface $-1 -23.229093303559019 -19.509515529686027 59.873319656631438 0 0.68199836817093118 0.7313536940579346 1 0 0 forward_v I I I I #
loop $-1 $-1 $425 $112 #
coedge $-1 $285 $285 $286 $426 reversed $178 $-1 #
coedge $-1 $286 $286 $285 $426 forward $180 $-1 #
coedge $-1 $287 $287 $181 $288 forward $282 $-1 #
edge $-1 $427 -1.0626694490517509e-016 $427 6.2831853071796004 $287 $428 forward 7 unknown #
loop $-1 $-1 $294 $182 #
plane-surface $-1 -23.229093303559019 -19.509515529686027 59.873319656631438 0 0.68199836817093118 0.7313536940579346 1 0 0 forward_v I I I I #
loop $-1 $-1 $429 $115 #
coedge $-1 $292 $292 $293 $430 reversed $183 $-1 #
coedge $-1 $293 $293 $292 $430 forward $185 $-1 #
coedge $-1 $294 $294 $186 $295 forward $289 $-1 #
edge $-1 $431 -1.0626694490517509e-016 $431 6.2831853071796004 $294 $432 forward 7 unknown #
face $-1 $433 $434 $62 $-1 $435 forward single #
loop $-1 $-1 $436 $187 #
plane-surface $-1 1.2434497875801753e-014 64.002867430275046 149.42938405184788 1 0 0 0 -0.68199836817093118 -0.7313536940579346 forward_v I I I I #
coedge $-1 $437 $438 $439 $440 reversed $188 $-1 #
coedge $-1 $301 $190 $441 $442 reversed $119 $-1 #
coedge $-1 $190 $300 $437 $443 reversed $119 $-1 #
coedge $-1 $439 $444 $190 $303 forward $445 $-1 #
edge $-1 $446 60.540068690560162 $447 72.352698519630138 $302 $448 forward 7 unknown #
loop $-1 $-1 $309 $191 #
plane-surface $-1 7.384023551813776 -19.509515529686027 59.873319656631438 0 0.68199836817093118 0.7313536940579346 1 0 0 forward_v I I I I #
loop $-1 $-1 $449 $121 #
coedge $-1 $307 $307 $308 $450 reversed $192 $-1 #
coedge $-1 $308 $308 $307 $450 forward $194 $-1 #
coedge $-1 $309 $309 $195 $310 forward $304 $-1 #
edge $-1 $451 -1.0626694490517509e-016 $451 6.2831853071796004 $309 $452 forward 7 unknown #
loop $-1 $-1 $316 $196 #
plane-surface $-1 7.384023551813776 -19.509515529686027 59.873319656631438 0 0.68199836817093118 0.7313536940579346 1 0 0 forward_v I I I I #
loop $-1 $-1 $453 $124 #
coedge $-1 $314 $314 $315 $454 reversed $197 $-1 #
coedge $-1 $315 $315 $314 $454 forward $199 $-1 #
coedge $-1 $316 $316 $200 $317 forward $311 $-1 #
edge $-1 $455 -1.0626694490517509e-016 $455 6.2831853071796004 $316 $456 forward 7 unknown #
face $-1 $457 $458 $65 $-1 $459 forward single #
loop $-1 $-1 $460 $201 #
plane-surface $-1 30.613116855372809 64.002867430275046 149.42938405184788 1 0 0 0 -0.68199836817093118 -0.7313536940579346 forward_v I I I I #
coedge $-1 $461 $462 $463 $464 reversed $202 $-1 #
coedge $-1 $323 $204 $465 $466 reversed $128 $-1 #
coedge $-1 $204 $322 $461 $467 reversed $128 $-1 #
coedge $-1 $463 $468 $204 $325 forward $469 $-1 #
edge $-1 $470 60.540068690560162 $471 72.352698519630138 $324 $472 forward 7 unknown #
loop $-1 $-1 $331 $205 #
plane-surface $-1 37.997140407186571 -19.509515529686027 59.873319656631438 0 0.68199836817093118 0.7313536940579346 1 0 0 forward_v I I I I #
loop $-1 $-1 $473 $130 #
coedge $-1 $329 $329 $330 $474 reversed $206 $-1 #
coedge $-1 $330 $330 $329 $474 forward $208 $-1 #
coedge $-1 $331 $331 $209 $332 forward $326 $-1 #
edge $-1 $475 -1.0626694490517509e-016 $475 6.2831853071796004 $331 $476 forward 7 unknown #
loop $-1 $-1 $338 $210 #
plane-surface $-1 37.997140407186571 -19.509515529686027 59.873319656631438 0 0.68199836817093118 0.7313536940579346 1 0 0 forward_v I I I I #
loop $-1 $-1 $477 $133 #
coedge $-1 $336 $336 $337 $478 reversed $211 $-1 #
coedge $-1 $337 $337 $336 $478 forward $213 $-1 #
coedge $-1 $338 $338 $214 $339 forward $333 $-1 #
edge $-1 $479 -1.0626694490517509e-016 $479 6.2831853071796004 $338 $480 forward 7 unknown #
face $-1 $481 $482 $51 $-1 $483 reversed single #
loop $-1 $-1 $484 $215 #
plane-surface $-1 -61.226233710745568 0 0 1 0 0 0 0 -1 forward_v I I I I #
coedge $-1 $485 $351 $486 $487 forward $216 $-1 #
coedge $-1 $488 $218 $485 $489 forward $137 $-1 #
coedge $-1 $218 $488 $490 $491 forward $137 $-1 #
coedge $-1 $354 $353 $218 $347 reversed $355 $-1 #
edge $-1 $492 -42.163829735090665 $493 42.163829735090665 $346 $494 forward 7 unknown #
coedge $-1 $220 $219 $495 $496 forward $86 $-1 #
coedge $-1 $497 $498 $219 $350 reversed $482 $-1 #
edge $-1 $357 -61.226233710745568 $499 61.226233710745568 $349 $500 forward 7 unknown #
coedge $-1 $343 $501 $220 $352 reversed $216 $-1 #
edge $-1 $502 -61.226233710745568 $356 61.226233710745568 $351 $503 forward 7 unknown #
coedge $-1 $346 $221 $501 $504 forward $355 $-1 #
coedge $-1 $221 $346 $497 $505 reversed $355 $-1 #
loop $-1 $-1 $353 $481 #
vertex $-1 $222 $506 #
vertex $-1 $222 $507 #
straight-curve $-1 61.226233710745568 0 14.174623335363773 0 1 0 I I #
face $-1 $-1 $371 $52 $-1 $508 forward single #
loop $-1 $-1 $509 $223 #
plane-surface $-1 0 -42.163829735090665 0 0 1 0 0 0 1 forward_v I I I I #
coedge $-1 $510 $511 $512 $513 reversed $224 $-1 #
coedge $-1 $514 $226 $228 $369 forward $141 $-1 #
coedge $-1 $226 $514 $510 $515 forward $141 $-1 #
coedge $-1 $512 $229 $226 $366 forward $371 $-1 #
edge $-1 $373 -9.8216708660795753 $516 3.3421468924031181 $365 $517 forward 7 unknown #
coedge $-1 $518 $519 $227 $368 forward $360 $-1 #
edge $-1 $520 -37.815985450488419 $372 -34.596360296279173 $367 $521 forward 7 unknown #
edge $-1 $373 -4.5532375060111194 $520 -1.0048591735576163e-014 $228 $522 forward 7 unknown #
coedge $-1 $229 $512 $518 $523 forward $371 $-1 #
loop $-1 $-1 $512 $359 #
vertex $-1 $368 $524 #
vertex $-1 $230 $525 #
straight-curve $-1 13.061432852917804 -64.375400413240811 14.174623335363776 0 1 0 I I #
coedge $-1 $375 $375 $-1 $526 reversed $233 $-1 #
edge $-1 $527 0 $527 6.2831853071796004 $234 $528 forward 7 unknown #
vertex $-1 $237 $529 #
ellipse-curve $-1 2.5303786461316591 -40.554017195341906 12.564810758259153 0 -0.70710678939079041 0.70710677298230451 0.5 0 0 1 I I #
coedge $-1 $379 $379 $-1 $530 reversed $240 $-1 #
edge $-1 $531 0 $531 6.2831853071796004 $241 $532 forward 7 unknown #
vertex $-1 $244 $533 #
ellipse-curve $-1 6.4795239736764714 -40.554017195341906 12.564810758259153 0 -0.70710678939079041 0.70710677298230451 0.5 0 0 1 I I #
coedge $-1 $383 $383 $-1 $534 reversed $247 $-1 #
edge $-1 $535 0 $535 6.2831853071796004 $248 $536 forward 7 unknown #
vertex $-1 $251 $537 #
ellipse-curve $-1 10.428669301221284 -40.554017195341906 12.564810758259153 0 -0.70710678939079041 0.70710677298230451 0.5 0 0 1 I I #
face $-1 $-1 $538 $56 $-1 $539 reversed single #
loop $-1 $-1 $394 $252 #
plane-surface $-1 0 0 14.174623335363773 0 0 1 1 0 0 forward_v I I I I #
coedge $-1 $540 $255 $257 $396 forward $160 $-1 #
coedge $-1 $255 $540 $541 $542 reversed $160 $-1 #
coedge $-1 $543 $258 $255 $393 forward $253 $-1 #
edge $-1 $399 19.537081527652141 $544 34.305128631279665 $392 $545 forward 7 unknown #
coedge $-1 $546 $547 $256 $395 forward $388 $-1 #
edge $-1 $548 -2.5050983102737732 $398 10.162396019953142 $394 $549 forward 7 unknown #
edge $-1 $399 -84.327659470181331 $548 -67.007046430078944 $257 $550 forward 7 unknown #
coedge $-1 $258 $543 $546 $551 reversed $253 $-1 #
vertex $-1 $551 $552 #
vertex $-1 $259 $553 #
straight-curve $-1 -46.458186607118044 42.163829735090665 74.714692025923938 0 0 -1 I I #
coedge $-1 $401 $401 $-1 $554 reversed $262 $-1 #
edge $-1 $555 0 $555 6.2831853071796004 $263 $556 forward 7 unknown #
vertex $-1 $266 $557 #
ellipse-curve $-1 -57.006791681137706 35.830082569977215 8.2683084208287774 0 0.68199836817093118 0.7313536940579346 1.5 0 0 1 I I #
coedge $-1 $405 $405 $-1 $558 reversed $269 $-1 #
edge $-1 $559 0 $559 6.2831853071796004 $270 $560 forward 7 unknown #
vertex $-1 $273 $561 #
ellipse-curve $-1 -50.677628636725906 35.830082569977215 8.2683084208287774 0 0.68199836817093118 0.7313536940579346 1.5 0 0 1 I I #
face $-1 $-1 $421 $59 $-1 $562 reversed single #
loop $-1 $-1 $563 $274 #
plane-surface $-1 0 0 14.174623335363773 0 0 1 1 0 0 forward_v I I I I #
coedge $-1 $564 $565 $566 $567 reversed $275 $-1 #
coedge $-1 $568 $277 $279 $419 forward $174 $-1 #
coedge $-1 $277 $568 $564 $569 forward $174 $-1 #
coedge $-1 $566 $280 $277 $416 forward $421 $-1 #
edge $-1 $423 4.2305230999657457 $570 18.998570203593271 $415 $571 forward 7 unknown #
coedge $-1 $572 $573 $278 $418 forward $410 $-1 #
edge $-1 $574 -2.5050983102737732 $422 10.162396019953142 $417 $575 forward 7 unknown #
edge $-1 $423 -84.327659470181331 $574 -67.007046430078944 $279 $576 forward 7 unknown #
coedge $-1 $280 $566 $572 $577 reversed $421 $-1 #
loop $-1 $-1 $566 $409 #
vertex $-1 $577 $578 #
vertex $-1 $281 $579 #
straight-curve $-1 -15.845069751745255 42.163829735090665 74.714692025923938 0 0 -1 I I #
coedge $-1 $425 $425 $-1 $580 reversed $284 $-1 #
edge $-1 $581 0 $581 6.2831853071796004 $285 $582 forward 7 unknown #
vertex $-1 $288 $583 #
ellipse-curve $-1 -26.393674825764919 35.830082569977215 8.2683084208287774 0 0.68199836817093118 0.7313536940579346 1.5 0 0 1 I I #
coedge $-1 $429 $429 $-1 $584 reversed $291 $-1 #
edge $-1 $585 0 $585 6.2831853071796004 $292 $586 forward 7 unknown #
vertex $-1 $295 $587 #
ellipse-curve $-1 -20.064511781353119 35.830082569977215 8.2683084208287774 0 0.68199836817093118 0.7313536940579346 1.5 0 0 1 I I #
face $-1 $-1 $445 $62 $-1 $588 reversed single #
loop $-1 $-1 $589 $296 #
plane-surface $-1 0 0 14.174623335363773 0 0 1 1 0 0 forward_v I I I I #
coedge $-1 $590 $591 $592 $593 reversed $297 $-1 #
coedge $-1 $594 $299 $301 $443 forward $188 $-1 #
coedge $-1 $299 $594 $590 $595 forward $188 $-1 #
coedge $-1 $592 $302 $299 $440 forward $445 $-1 #
edge $-1 $447 -11.076035327720652 $596 3.6920117759068756 $439 $597 forward 7 unknown #
coedge $-1 $598 $599 $300 $442 forward $434 $-1 #
edge $-1 $600 -2.5050983102737732 $446 10.162396019953142 $441 $601 forward 7 unknown #
edge $-1 $447 -84.327659470181331 $600 -67.007046430078944 $301 $602 forward 7 unknown #
coedge $-1 $302 $592 $598 $603 reversed $445 $-1 #
loop $-1 $-1 $592 $433 #
vertex $-1 $603 $604 #
vertex $-1 $303 $605 #
straight-curve $-1 14.76804710362754 42.163829735090665 74.714692025923938 0 0 -1 I I #
coedge $-1 $449 $449 $-1 $606 reversed $306 $-1 #
edge $-1 $607 0 $607 6.2831853071796004 $307 $608 forward 7 unknown #
vertex $-1 $310 $609 #
ellipse-curve $-1 4.219442029607869 35.830082569977215 8.2683084208287774 0 0.68199836817093118 0.7313536940579346 1.5 0 0 1 I I #
coedge $-1 $453 $453 $-1 $610 reversed $313 $-1 #
edge $-1 $611 0 $611 6.2831853071796004 $314 $612 forward 7 unknown #
vertex $-1 $317 $613 #
ellipse-curve $-1 10.548605074019669 35.830082569977215 8.2683084208287774 0 0.68199836817093118 0.7313536940579346 1.5 0 0 1 I I #
face $-1 $-1 $469 $65 $-1 $614 reversed single #
loop $-1 $-1 $615 $318 #
plane-surface $-1 0 0 14.174623335363773 0 0 1 1 0 0 forward_v I I I I #
coedge $-1 $616 $617 $618 $619 reversed $319 $-1 #
coedge $-1 $620 $321 $323 $467 forward $202 $-1 #
coedge $-1 $321 $620 $616 $621 forward $202 $-1 #
coedge $-1 $618 $324 $321 $464 forward $469 $-1 #
edge $-1 $471 -26.382593755407047 $622 -11.614546651779524 $463 $623 forward 7 unknown #
coedge $-1 $624 $625 $322 $466 forward $458 $-1 #
edge $-1 $626 -2.5050983102737732 $470 10.162396019953142 $465 $627 forward 7 unknown #
edge $-1 $471 -84.327659470181331 $626 -67.007046430078944 $323 $628 forward 7 unknown #
coedge $-1 $324 $618 $624 $629 reversed $469 $-1 #
loop $-1 $-1 $618 $457 #
vertex $-1 $629 $630 #
vertex $-1 $325 $631 #
straight-curve $-1 45.381163959000332 42.163829735090665 74.714692025923938 0 0 -1 I I #
coedge $-1 $473 $473 $-1 $632 reversed $328 $-1 #
edge $-1 $633 0 $633 6.2831853071796004 $329 $634 forward 7 unknown #
vertex $-1 $332 $635 #
ellipse-curve $-1 34.832558884980664 35.830082569977215 8.2683084208287774 0 0.68199836817093118 0.7313536940579346 1.5 0 0 1 I I #
coedge $-1 $477 $477 $-1 $636 reversed $335 $-1 #
edge $-1 $637 0 $637 6.2831853071796004 $336 $638 forward 7 unknown #
vertex $-1 $339 $639 #
ellipse-curve $-1 41.161721929392449 35.830082569977215 8.2683084208287774 0 0.68199836817093118 0.7313536940579346 1.5 0 0 1 I I #
face $-1 $-1 $355 $51 $-1 $640 reversed single #
loop $-1 $-1 $497 $340 #
plane-surface $-1 0 42.163829735090665 0 0 -1 0 0 0 -1 forward_v I I I I #
coedge $-1 $641 $495 $498 $642 forward $341 $-1 #
coedge $-1 $501 $343 $344 $489 reversed $216 $-1 #
coedge $-1 $495 $641 $343 $487 reversed $341 $-1 #
edge $-1 $502 -14.174623335363773 $643 14.174623335363773 $486 $644 forward 7 unknown #
coedge $-1 $345 $344 $641 $645 forward $137 $-1 #
edge $-1 $493 -61.226233710745568 $643 61.226233710745568 $485 $646 forward 7 unknown #
coedge $-1 $498 $497 $345 $491 reversed $482 $-1 #
edge $-1 $647 -61.226233710745568 $492 61.226233710745568 $490 $648 forward 7 unknown #
vertex $-1 $347 $649 #
vertex $-1 $504 $650 #
straight-curve $-1 61.226233710745568 0 -14.174623335363773 0 -1 0 I I #
coedge $-1 $484 $486 $348 $496 reversed $341 $-1 #
edge $-1 $499 -42.163829735090665 $502 42.163829735090665 $495 $651 forward 7 unknown #
coedge $-1 $490 $349 $354 $505 forward $482 $-1 #
coedge $-1 $349 $490 $484 $642 reversed $482 $-1 #
vertex $-1 $350 $652 #
straight-curve $-1 0 42.163829735090665 14.174623335363773 -1 0 0 I I #
coedge $-1 $351 $485 $353 $504 reversed $216 $-1 #
vertex $-1 $496 $653 #
straight-curve $-1 0 -42.163829735090665 14.174623335363773 1 0 0 I I #
edge $-1 $356 -14.174623335363773 $493 14.174623335363773 $353 $654 forward 7 unknown #
edge $-1 $357 -14.174623335363773 $492 14.174623335363773 $354 $655 forward 7 unknown #
point $-1 61.226233710745568 -42.163829735090665 14.174623335363773 #
point $-1 61.226233710745568 42.163829735090665 14.174623335363773 #
plane-surface $-1 0 0 14.174623335363773 0 0 1 1 0 0 forward_v I I I I #
coedge $-1 $519 $518 $511 $656 forward $360 $-1 #
coedge $-1 $511 $362 $364 $515 reversed $224 $-1 #
coedge $-1 $362 $510 $509 $656 reversed $224 $-1 #
coedge $-1 $370 $365 $362 $513 forward $371 $-1 #
edge $-1 $516 -25.431195757647657 $657 -22.211570678150146 $512 $658 forward 7 unknown #
coedge $-1 $364 $363 $519 $659 reversed $141 $-1 #
edge $-1 $660 1.0048591735576163e-014 $516 4.5532375060111194 $510 $661 forward 7 unknown #
vertex $-1 $366 $662 #
straight-curve $-1 3.2397619868382286 -38.944204655593154 14.174623335363773 -1 0 0 I I #
coedge $-1 $509 $367 $370 $523 reversed $360 $-1 #
coedge $-1 $367 $509 $514 $659 forward $360 $-1 #
vertex $-1 $368 $663 #
straight-curve $-1 13.061432852917804 -42.163829735090665 48.770983631642949 0 0 1 I I #
straight-curve $-1 13.061432852917804 -42.163829735090673 10.954998181154522 0 -0.70710677298230451 -0.70710678939079041 I I #
edge $-1 $657 -0.10238490556488955 $372 13.061432852917804 $518 $664 forward 7 unknown #
point $-1 13.061432852917804 -42.163829735090665 14.174623335363773 #
point $-1 13.061432852917804 -38.944204655593154 14.174623335363773 #
edge $-1 $665 1 $665 0 $375 $-1 forward 7 unknown #
vertex $-1 $376 $666 #
ellipse-curve $-1 2.5303786461316591 -39.846910405951121 11.857703985276851 0 -0.70710678939079041 0.70710677298230451 0.5 0 0 1 I I #
point $-1 3.0303786461316591 -40.554017195341913 12.564810758259155 #
edge $-1 $667 1 $667 0 $379 $-1 forward 7 unknown #
vertex $-1 $380 $668 #
ellipse-curve $-1 6.4795239736764714 -39.846910405951121 11.857703985276851 0 -0.70710678939079041 0.70710677298230451 0.5 0 0 1 I I #
point $-1 6.9795239736764714 -40.554017195341913 12.564810758259155 #
edge $-1 $669 1 $669 0 $383 $-1 forward 7 unknown #
vertex $-1 $384 $670 #
ellipse-curve $-1 10.428669301221284 -39.846910405951121 11.857703985276851 0 -0.70710678939079041 0.70710677298230451 0.5 0 0 1 I I #
point $-1 10.928669301221284 -40.554017195341913 12.564810758259155 #
loop $-1 $-1 $541 $387 #
plane-surface $-1 -61.226233710745568 0 0 1 0 0 0 0 -1 forward_v I I I I #
coedge $-1 $391 $390 $547 $671 reversed $160 $-1 #
coedge $-1 $672 $673 $391 $542 forward $538 $-1 #
edge $-1 $544 -56.776728192823484 $674 -39.456115152721104 $541 $675 forward 7 unknown #
coedge $-1 $397 $392 $673 $676 reversed $253 $-1 #
vertex $-1 $393 $677 #
straight-curve $-1 -26.921105079465903 42.163829735090665 2.3619935062937962 -1 0 0 I I #
coedge $-1 $678 $394 $397 $551 forward $388 $-1 #
coedge $-1 $394 $678 $540 $671 forward $388 $-1 #
vertex $-1 $395 $679 #
straight-curve $-1 -46.458186607118044 32.001433715137523 14.174623335363776 0 1 0 I I #
straight-curve $-1 -46.458186607118044 -19.509515529686027 59.873319656631438 0 -0.7313536940579346 0.68199836817093118 I I #
edge $-1 $398 46.458186607118044 $680 61.226233710745568 $397 $681 forward 7 unknown #
point $-1 -46.458186607118044 42.163829735090665 14.174623335363773 #
point $-1 -46.458186607118044 42.163829735090658 2.3619935062937998 #
edge $-1 $682 1 $682 0 $401 $-1 forward 7 unknown #
vertex $-1 $402 $683 #
ellipse-curve $-1 -57.006791681137706 33.295207840513029 5.5499881375416891 0 0.68199836817093118 0.7313536940579346 1.5 0 0 1 I I #
point $-1 -55.506791681137706 35.830082569977236 8.2683084208288005 #
edge $-1 $684 1 $684 0 $405 $-1 forward 7 unknown #
vertex $-1 $406 $685 #
ellipse-curve $-1 -50.677628636725906 33.295207840513029 5.5499881375416891 0 0.68199836817093118 0.7313536940579346 1.5 0 0 1 I I #
point $-1 -49.177628636725906 35.830082569977236 8.2683084208288005 #
plane-surface $-1 0 42.163829735090665 0 0 -1 0 0 0 -1 forward_v I I I I #
coedge $-1 $573 $572 $565 $686 forward $410 $-1 #
coedge $-1 $565 $412 $414 $569 reversed $275 $-1 #
coedge $-1 $412 $564 $563 $686 reversed $275 $-1 #
coedge $-1 $420 $415 $412 $567 forward $421 $-1 #
edge $-1 $570 -72.352698519630138 $687 -60.540068690560162 $566 $688 forward 7 unknown #
coedge $-1 $414 $413 $573 $689 reversed $174 $-1 #
edge $-1 $690 67.007046430078944 $570 84.327659470181331 $564 $691 forward 7 unknown #
vertex $-1 $416 $692 #
straight-curve $-1 -11.614546651779509 42.163829735090665 2.3619935062937962 -1 0 0 I I #
coedge $-1 $563 $417 $420 $577 forward $410 $-1 #
coedge $-1 $417 $563 $568 $689 forward $410 $-1 #
vertex $-1 $418 $693 #
straight-curve $-1 -15.845069751745255 32.001433715137523 14.174623335363776 0 1 0 I I #
straight-curve $-1 -15.845069751745255 -19.509515529686027 59.873319656631438 0 -0.7313536940579346 0.68199836817093118 I I #
edge $-1 $422 15.845069751745255 $687 30.61311685537278 $420 $694 forward 7 unknown #
point $-1 -15.845069751745255 42.163829735090665 14.174623335363773 #
point $-1 -15.845069751745255 42.163829735090658 2.3619935062937998 #
edge $-1 $695 1 $695 0 $425 $-1 forward 7 unknown #
vertex $-1 $426 $696 #
ellipse-curve $-1 -26.393674825764919 33.295207840513029 5.5499881375416891 0 0.68199836817093118 0.7313536940579346 1.5 0 0 1 I I #
point $-1 -24.893674825764919 35.830082569977236 8.2683084208288005 #
edge $-1 $697 1 $697 0 $429 $-1 forward 7 unknown #
vertex $-1 $430 $698 #
ellipse-curve $-1 -20.064511781353119 33.295207840513029 5.5499881375416891 0 0.68199836817093118 0.7313536940579346 1.5 0 0 1 I I #
point $-1 -18.564511781353119 35.830082569977236 8.2683084208288005 #
plane-surface $-1 0 42.163829735090665 0 0 -1 0 0 0 -1 forward_v I I I I #
coedge $-1 $599 $598 $591 $699 forward $434 $-1 #
coedge $-1 $591 $436 $438 $595 reversed $297 $-1 #
coedge $-1 $436 $590 $589 $699 reversed $297 $-1 #
coedge $-1 $444 $439 $436 $593 forward $445 $-1 #
edge $-1 $596 -72.352698519630138 $700 -60.540068690560162 $592 $701 forward 7 unknown #
coedge $-1 $438 $437 $599 $702 reversed $188 $-1 #
edge $-1 $703 67.007046430078944 $596 84.327659470181331 $590 $704 forward 7 unknown #
vertex $-1 $440 $705 #
straight-curve $-1 3.692011775906888 42.163829735090665 2.3619935062937962 -1 0 0 I I #
coedge $-1 $589 $441 $444 $603 forward $434 $-1 #
coedge $-1 $441 $589 $594 $702 forward $434 $-1 #
vertex $-1 $442 $706 #
straight-curve $-1 14.76804710362754 32.001433715137523 14.174623335363776 0 1 0 I I #
straight-curve $-1 14.76804710362754 -19.509515529686027 59.873319656631438 0 -0.7313536940579346 0.68199836817093118 I I #
edge $-1 $446 -14.76804710362754 $700 -1.2434497875801753e-014 $444 $707 forward 7 unknown #
point $-1 14.76804710362754 42.163829735090665 14.174623335363773 #
point $-1 14.76804710362754 42.163829735090658 2.3619935062937998 #
edge $-1 $708 1 $708 0 $449 $-1 forward 7 unknown #
vertex $-1 $450 $709 #
ellipse-curve $-1 4.219442029607869 33.295207840513029 5.5499881375416891 0 0.68199836817093118 0.7313536940579346 1.5 0 0 1 I I #
point $-1 5.719442029607869 35.830082569977236 8.2683084208288005 #
edge $-1 $710 1 $710 0 $453 $-1 forward 7 unknown #
vertex $-1 $454 $711 #
ellipse-curve $-1 10.548605074019669 33.295207840513029 5.5499881375416891 0 0.68199836817093118 0.7313536940579346 1.5 0 0 1 I I #
point $-1 12.048605074019669 35.830082569977236 8.2683084208288005 #
plane-surface $-1 0 42.163829735090665 0 0 -1 0 0 0 -1 forward_v I I I I #
coedge $-1 $625 $624 $617 $712 forward $458 $-1 #
coedge $-1 $617 $460 $462 $621 reversed $319 $-1 #
coedge $-1 $460 $616 $615 $712 reversed $319 $-1 #
coedge $-1 $468 $463 $460 $619 forward $469 $-1 #
edge $-1 $622 -72.352698519630138 $713 -60.540068690560162 $618 $714 forward 7 unknown #
coedge $-1 $462 $461 $625 $715 reversed $202 $-1 #
edge $-1 $716 67.007046430078944 $622 84.327659470181331 $616 $717 forward 7 unknown #
vertex $-1 $464 $718 #
straight-curve $-1 18.998570203593285 42.163829735090665 2.3619935062937962 -1 0 0 I I #
coedge $-1 $615 $465 $468 $629 forward $458 $-1 #
coedge $-1 $465 $615 $620 $715 forward $458 $-1 #
vertex $-1 $466 $719 #
straight-curve $-1 45.381163959000332 32.001433715137523 14.174623335363776 0 1 0 I I #
straight-curve $-1 45.381163959000332 -19.509515529686027 59.873319656631438 0 -0.7313536940579346 0.68199836817093118 I I #
edge $-1 $470 -45.381163959000332 $713 -30.613116855372809 $468 $720 forward 7 unknown #
point $-1 45.381163959000332 42.163829735090665 14.174623335363773 #
point $-1 45.381163959000332 42.163829735090658 2.3619935062937998 #
edge $-1 $721 1 $721 0 $473 $-1 forward 7 unknown #
vertex $-1 $474 $722 #
ellipse-curve $-1 34.832558884980664 33.295207840513029 5.5499881375416891 0 0.68199836817093118 0.7313536940579346 1.5 0 0 1 I I #
point $-1 36.332558884980664 35.830082569977236 8.2683084208288005 #
edge $-1 $723 1 $723 0 $477 $-1 forward 7 unknown #
vertex $-1 $478 $724 #
ellipse-curve $-1 41.161721929392449 33.295207840513029 5.5499881375416891 0 0.68199836817093118 0.7313536940579346 1.5 0 0 1 I I #
point $-1 42.661721929392449 35.830082569977236 8.2683084208288005 #
plane-surface $-1 61.226233710745568 0 0 -1 0 0 0 0 1 forward_v I I I I #
coedge $-1 $486 $484 $488 $645 reversed $341 $-1 #
edge $-1 $499 -14.174623335363773 $647 14.174623335363773 $498 $725 forward 7 unknown #
vertex $-1 $645 $726 #
straight-curve $-1 -61.226233710745568 -42.163829735090665 0 0 0 -1 I I #
edge $-1 $643 -42.163829735090665 $647 42.163829735090665 $641 $727 forward 7 unknown #
straight-curve $-1 0 -42.163829735090665 -14.174623335363773 -1 0 0 I I #
vertex $-1 $491 $728 #
straight-curve $-1 0 42.163829735090665 -14.174623335363773 1 0 0 I I #
point $-1 61.226233710745568 42.163829735090665 -14.174623335363773 #
point $-1 61.226233710745568 -42.163829735090665 -14.174623335363773 #
straight-curve $-1 -61.226233710745568 0 14.174623335363773 0 -1 0 I I #
point $-1 -61.226233710745568 42.163829735090665 14.174623335363773 #
point $-1 -61.226233710745568 -42.163829735090665 14.174623335363773 #
straight-curve $-1 61.226233710745568 -42.163829735090665 0 0 0 -1 I I #
straight-curve $-1 61.226233710745568 42.163829735090665 0 0 0 -1 I I #
edge $-1 $657 34.596360296279173 $660 37.815985450488419 $509 $729 forward 7 unknown #
vertex $-1 $523 $730 #
straight-curve $-1 -0.10238490556488955 -64.375400413240811 14.174623335363776 0 -1 0 I I #
edge $-1 $660 -3.3421468924031181 $520 9.8216708660795753 $519 $731 forward 7 unknown #
vertex $-1 $659 $732 #
straight-curve $-1 -0.10238490556488955 -42.163829735090673 10.954998181154522 0 0.70710677298230451 0.70710678939079041 I I #
point $-1 -0.10238490556488955 -38.944204655593154 14.174623335363773 #
point $-1 13.061432852917804 -42.163829735090665 10.954998181154529 #
straight-curve $-1 0 -42.163829735090665 14.174623335363773 1 0 0 I I #
vertex $-1 $526 $733 #
point $-1 3.0303786461316591 -39.846910405951121 11.857703985276851 #
vertex $-1 $530 $734 #
point $-1 6.9795239736764714 -39.846910405951121 11.857703985276851 #
vertex $-1 $534 $735 #
point $-1 10.928669301221284 -39.846910405951121 11.857703985276851 #
edge $-1 $674 -34.305128631279665 $548 -19.537081527652141 $547 $736 forward 7 unknown #
coedge $-1 $673 $541 $678 $737 reversed $538 $-1 #
coedge $-1 $541 $672 $543 $676 forward $538 $-1 #
vertex $-1 $542 $738 #
straight-curve $-1 -61.226233710745568 0.63995983474592499 41.083629483883918 0 -0.7313536940579346 0.68199836817093118 I I #
edge $-1 $680 -14.174623335363773 $544 -2.3619935062937993 $543 $739 forward 7 unknown #
point $-1 -61.226233710745568 42.163829735090665 2.3619935062937993 #
coedge $-1 $547 $546 $672 $737 forward $388 $-1 #
point $-1 -46.458186607118044 29.49633540486375 14.174623335363776 #
vertex $-1 $551 $740 #
straight-curve $-1 0 42.163829735090665 14.174623335363773 -1 0 0 I I #
vertex $-1 $554 $741 #
point $-1 -55.506791681137706 33.295207840513029 5.5499881375416891 #
vertex $-1 $558 $742 #
point $-1 -49.177628636725906 33.295207840513029 5.5499881375416891 #
edge $-1 $687 -10.162396019953142 $690 2.5050983102737732 $563 $743 forward 7 unknown #
vertex $-1 $686 $744 #
straight-curve $-1 -30.61311685537278 42.163829735090665 74.714692025923938 0 0 1 I I #
edge $-1 $690 -18.998570203593271 $574 -4.2305230999657457 $573 $745 forward 7 unknown #
vertex $-1 $689 $746 #
straight-curve $-1 -30.61311685537278 -19.509515529686027 59.873319656631438 0 0.7313536940579346 -0.68199836817093118 I I #
point $-1 -30.61311685537278 42.163829735090658 2.3619935062937998 #
point $-1 -15.845069751745255 29.49633540486375 14.174623335363776 #
straight-curve $-1 0 42.163829735090665 14.174623335363773 -1 0 0 I I #
vertex $-1 $580 $747 #
point $-1 -24.893674825764919 33.295207840513029 5.5499881375416891 #
vertex $-1 $584 $748 #
point $-1 -18.564511781353119 33.295207840513029 5.5499881375416891 #
edge $-1 $700 -10.162396019953142 $703 2.5050983102737732 $589 $749 forward 7 unknown #
vertex $-1 $593 $750 #
straight-curve $-1 1.2434497875801753e-014 42.163829735090665 74.714692025923938 0 0 1 I I #
edge $-1 $703 -3.6920117759068756 $600 11.076035327720652 $599 $751 forward 7 unknown #
vertex $-1 $702 $752 #
straight-curve $-1 1.2434497875801753e-014 -19.509515529686027 59.873319656631438 0 0.7313536940579346 -0.68199836817093118 I I #
point $-1 1.2434497875801753e-014 42.163829735090658 2.3619935062937998 #
point $-1 14.76804710362754 29.49633540486375 14.174623335363776 #
straight-curve $-1 0 42.163829735090665 14.174623335363773 -1 0 0 I I #
vertex $-1 $606 $753 #
point $-1 5.719442029607869 33.295207840513029 5.5499881375416891 #
vertex $-1 $610 $754 #
point $-1 12.048605074019669 33.295207840513029 5.5499881375416891 #
edge $-1 $713 -10.162396019953142 $716 2.5050983102737732 $615 $755 forward 7 unknown #
vertex $-1 $619 $756 #
straight-curve $-1 30.613116855372809 42.163829735090665 74.714692025923938 0 0 1 I I #
edge $-1 $716 11.614546651779524 $626 26.382593755407047 $625 $757 forward 7 unknown #
vertex $-1 $715 $758 #
straight-curve $-1 30.613116855372809 -19.509515529686027 59.873319656631438 0 0.7313536940579346 -0.68199836817093118 I I #
point $-1 30.613116855372809 42.163829735090658 2.3619935062937998 #
point $-1 45.381163959000332 29.49633540486375 14.174623335363776 #
straight-curve $-1 0 42.163829735090665 14.174623335363773 -1 0 0 I I #
vertex $-1 $632 $759 #
point $-1 36.332558884980664 33.295207840513029 5.5499881375416891 #
vertex $-1 $636 $760 #
point $-1 42.661721929392449 33.295207840513029 5.5499881375416891 #
straight-curve $-1 -61.226233710745568 42.163829735090665 0 0 0 -1 I I #
point $-1 -61.226233710745568 -42.163829735090665 -14.174623335363773 #
straight-curve $-1 -61.226233710745568 0 -14.174623335363773 0 1 0 I I #
point $-1 -61.226233710745568 42.163829735090665 -14.174623335363773 #
straight-curve $-1 -0.10238490556488955 -42.163829735090665 48.770983631642949 0 0 -1 I I #
point $-1 -0.10238490556488955 -42.163829735090665 14.174623335363773 #
straight-curve $-1 3.2397619868382286 -42.163829735090665 10.954998181154536 1 0 0 I I #
point $-1 -0.10238490556488955 -42.163829735090665 10.954998181154529 #
point $-1 2.5303786461316591 -39.493357011255725 11.504150598785698 #
point $-1 6.4795239736764714 -39.493357011255725 11.504150598785698 #
point $-1 10.428669301221284 -39.493357011255725 11.504150598785698 #
straight-curve $-1 -26.921105079465903 29.49633540486375 14.174623335363773 1 0 0 I I #
edge $-1 $680 -42.163829735090665 $674 -29.49633540486375 $672 $761 forward 7 unknown #
point $-1 -61.226233710745568 29.49633540486375 14.174623335363776 #
straight-curve $-1 -61.226233710745568 42.163829735090665 0 0 0 -1 I I #
point $-1 -61.226233710745568 42.163829735090665 14.174623335363773 #
point $-1 -57.006791681137706 32.27221028825663 4.4529575964547874 #
point $-1 -50.677628636725906 32.27221028825663 4.4529575964547874 #
straight-curve $-1 -30.61311685537278 32.001433715137523 14.174623335363776 0 -1 0 I I #
point $-1 -30.61311685537278 42.163829735090665 14.174623335363773 #
straight-curve $-1 -11.614546651779509 29.49633540486375 14.174623335363773 1 0 0 I I #
point $-1 -30.61311685537278 29.49633540486375 14.174623335363776 #
point $-1 -26.393674825764919 32.27221028825663 4.4529575964547874 #
point $-1 -20.064511781353119 32.27221028825663 4.4529575964547874 #
straight-curve $-1 1.2434497875801753e-014 32.001433715137523 14.174623335363776 0 -1 0 I I #
point $-1 1.2434497875801753e-014 42.163829735090665 14.174623335363773 #
straight-curve $-1 3.692011775906888 29.49633540486375 14.174623335363773 1 0 0 I I #
point $-1 1.2434497875801753e-014 29.49633540486375 14.174623335363776 #
point $-1 4.219442029607869 32.27221028825663 4.4529575964547874 #
point $-1 10.548605074019669 32.27221028825663 4.4529575964547874 #
straight-curve $-1 30.613116855372809 32.001433715137523 14.174623335363776 0 -1 0 I I #
point $-1 30.613116855372809 42.163829735090665 14.174623335363773 #
straight-curve $-1 18.998570203593285 29.49633540486375 14.174623335363773 1 0 0 I I #
point $-1 30.613116855372809 29.49633540486375 14.174623335363776 #
point $-1 34.832558884980664 32.27221028825663 4.4529575964547874 #
point $-1 41.161721929392449 32.27221028825663 4.4529575964547874 #
straight-curve $-1 -61.226233710745568 0 14.174623335363773 0 -1 0 I I #
End-of-ACIS-data 