500 0 16 0           
7 Unknown 11 ACIS 5.0 NT 24 Fri Mar 26 20:34:33 1999 
-1 9.9999999999999995e-007 1e-010 
body $-1 $16 $-1 $17 #
body $-1 $18 $-1 $19 #
body $-1 $20 $-1 $21 #
body $-1 $22 $-1 $23 #
body $-1 $24 $-1 $25 #
body $-1 $26 $-1 $27 #
body $-1 $28 $-1 $29 #
body $-1 $30 $-1 $31 #
body $-1 $32 $-1 $33 #
body $-1 $34 $-1 $35 #
body $-1 $36 $-1 $37 #
body $-1 $38 $-1 $39 #
body $-1 $40 $-1 $41 #
body $-1 $42 $-1 $43 #
body $-1 $44 $-1 $45 #
body $-1 $46 $-1 $47 #
lump $-1 $-1 $48 $0 #
transform $-1 1 0 0 0 1 0 0 0 1 71.561021759697255 31.252993737295803 8.1602866670372016 1 rotate no_reflect no_shear #
lump $-1 $-1 $49 $1 #
transform $-1 1 0 0 0 1 0 0 0 1 71.561021759697255 31.252993737295803 8.1602866670372016 1 rotate no_reflect no_shear #
lump $-1 $-1 $50 $2 #
transform $-1 1 0 0 0 1 0 0 0 1 71.561021759697255 31.252993737295803 8.1602866670372016 1 rotate no_reflect no_shear #
lump $-1 $-1 $51 $3 #
transform $-1 1 0 0 0 1 0 0 0 1 71.561021759697255 31.252993737295803 8.1602866670372016 1 rotate no_reflect no_shear #
lump $-1 $-1 $52 $4 #
transform $-1 1 0 0 0 1 0 0 0 1 71.561021759697255 31.252993737295803 8.1602866670372016 1 rotate no_reflect no_shear #
lump $-1 $-1 $53 $5 #
transform $-1 1 0 0 0 1 0 0 0 1 71.561021759697255 31.252993737295803 8.1602866670372016 1 rotate no_reflect no_shear #
lump $-1 $-1 $54 $6 #
transform $-1 1 0 0 0 1 0 0 0 1 71.561021759697255 31.252993737295803 8.1602866670372016 1 rotate no_reflect no_shear #
lump $-1 $-1 $55 $7 #
transform $-1 1 0 0 0 1 0 0 0 1 71.561021759697255 31.252993737295803 8.1602866670372016 1 rotate no_reflect no_shear #
lump $-1 $-1 $56 $8 #
transform $-1 1 0 0 0 1 0 0 0 1 71.561021759697255 31.252993737295803 8.1602866670372016 1 rotate no_reflect no_shear #
lump $-1 $-1 $57 $9 #
transform $-1 1 0 0 0 1 0 0 0 1 71.561021759697255 31.252993737295803 8.1602866670372016 1 rotate no_reflect no_shear #
lump $-1 $-1 $58 $10 #
transform $-1 1 0 0 0 1 0 0 0 1 71.561021759697255 31.252993737295803 8.1602866670372016 1 rotate no_reflect no_shear #
lump $-1 $-1 $59 $11 #
transform $-1 1 0 0 0 1 0 0 0 1 71.561021759697255 31.252993737295803 8.1602866670372016 1 rotate no_reflect no_shear #
lump $-1 $-1 $60 $12 #
transform $-1 1 0 0 0 1 0 0 0 1 71.561021759697255 31.252993737295803 8.1602866670372016 1 rotate no_reflect no_shear #
lump $-1 $-1 $61 $13 #
transform $-1 1 0 0 0 1 0 0 0 1 71.561021759697255 31.252993737295803 8.1602866670372016 1 rotate no_reflect no_shear #
lump $-1 $-1 $62 $14 #
transform $-1 1 0 0 0 1 0 0 0 1 71.561021759697255 31.252993737295803 8.1602866670372016 1 rotate no_reflect no_shear #
lump $-1 $-1 $63 $15 #
transform $-1 1 0 0 0 1 0 0 0 1 71.561021759697255 31.252993737295803 8.1602866670372016 1 rotate no_reflect no_shear #
shell $-1 $-1 $-1 $64 $-1 $16 #
shell $-1 $-1 $-1 $65 $-1 $18 #
shell $-1 $-1 $-1 $66 $-1 $20 #
shell $-1 $-1 $-1 $67 $-1 $22 #
shell $-1 $-1 $-1 $68 $-1 $24 #
shell $-1 $-1 $-1 $69 $-1 $26 #
shell $-1 $-1 $-1 $70 $-1 $28 #
shell $-1 $-1 $-1 $71 $-1 $30 #
shell $-1 $-1 $-1 $72 $-1 $32 #
shell $-1 $-1 $-1 $73 $-1 $34 #
shell $-1 $-1 $-1 $74 $-1 $36 #
shell $-1 $-1 $-1 $75 $-1 $38 #
shell $-1 $-1 $-1 $76 $-1 $40 #
shell $-1 $-1 $-1 $77 $-1 $42 #
shell $-1 $-1 $-1 $78 $-1 $44 #
shell $-1 $-1 $-1 $79 $-1 $46 #
face $-1 $80 $81 $48 $-1 $82 reversed single #
face $-1 $83 $84 $49 $-1 $85 forward single #
face $-1 $86 $87 $50 $-1 $88 reversed single #
face $-1 $89 $90 $51 $-1 $91 forward single #
face $-1 $92 $93 $52 $-1 $94 forward single #
face $-1 $95 $96 $53 $-1 $97 reversed single #
face $-1 $98 $99 $54 $-1 $100 forward single #
face $-1 $101 $102 $55 $-1 $103 forward single #
face $-1 $104 $105 $56 $-1 $106 reversed single #
face $-1 $107 $108 $57 $-1 $109 forward single #
face $-1 $110 $111 $58 $-1 $112 reversed single #
face $-1 $113 $114 $59 $-1 $115 forward single #
face $-1 $116 $117 $60 $-1 $118 reversed single #
face $-1 $119 $120 $61 $-1 $121 forward single #
face $-1 $122 $123 $62 $-1 $124 reversed single #
face $-1 $125 $126 $63 $-1 $127 forward single #
face $-1 $128 $129 $48 $-1 $130 forward single #
loop $-1 $-1 $131 $64 #
plane-surface $-1 0 -31.252993737295803 0 0 1 0 0 0 1 forward_v I I I I #
face $-1 $132 $133 $49 $-1 $134 reversed single #
loop $-1 $-1 $135 $65 #
plane-surface $-1 0 -31.252993737295803 0 0 1 0 0 0 1 forward_v I I I I #
face $-1 $136 $137 $50 $-1 $138 reversed single #
loop $-1 $-1 $139 $66 #
plane-surface $-1 78.624861553181759 -5.6826998232530421 202.33663971625492 0 -1 0 -0.73135370988377701 0 -0.68199835119979291 forward_v I I I I #
face $-1 $140 $141 $51 $-1 $142 forward single #
loop $-1 $143 $144 $67 #
cone-surface $-1 67.416102806066831 -10.347326364142436 3.7665464187318904 -0.73135370988377701 0 -0.68199835119979291 0.34099917559989645 0 -0.36567685494188851 1 I I 0 1 0.5 forward I I I I #
face $-1 $145 $146 $52 $-1 $147 forward single #
loop $-1 $148 $149 $68 #
cone-surface $-1 67.416102806066831 -7.5485504396087997 3.7665464187318904 -0.73135370988377701 0 -0.68199835119979291 0.34099917559989645 0 -0.36567685494188851 1 I I 0 1 0.5 forward I I I I #
face $-1 $150 $151 $53 $-1 $152 reversed single #
loop $-1 $-1 $153 $69 #
plane-surface $-1 78.624861553181759 18.365241679004424 202.33663971625492 0 -1 0 -0.73135370988377701 0 -0.68199835119979291 forward_v I I I I #
face $-1 $154 $155 $54 $-1 $156 forward single #
loop $-1 $157 $158 $70 #
cone-surface $-1 67.416102806066831 13.700615138115026 3.7665464187318904 -0.73135370988377701 0 -0.68199835119979291 0.34099917559989645 0 -0.36567685494188851 1 I I 0 1 0.5 forward I I I I #
face $-1 $159 $160 $55 $-1 $161 forward single #
loop $-1 $162 $163 $71 #
cone-surface $-1 67.416102806066831 16.499391062648662 3.7665464187318904 -0.73135370988377701 0 -0.68199835119979291 0.34099917559989645 0 -0.36567685494188851 1 I I 0 1 0.5 forward I I I I #
face $-1 $164 $165 $56 $-1 $166 reversed single #
loop $-1 $-1 $167 $72 #
plane-surface $-1 -155.68604929310942 -25.10092903878958 118.86540708847417 0 1 0 -0.5877852598018023 0 0.80901698891910034 forward_v I I I I #
face $-1 $168 $169 $57 $-1 $170 forward single #
loop $-1 $171 $172 $73 #
cone-surface $-1 -66.872650211267157 -22.024967917383663 3.9805032754405705 0.5877852598018023 0 -0.80901698891910034 1.2135254833786506 0 0.88167788970270344 1 I I 0 1 1.5 forward I I I I #
face $-1 $173 $174 $58 $-1 $175 reversed single #
loop $-1 $-1 $176 $74 #
plane-surface $-1 -155.68604929310942 -8.3669288610317309 118.86540708847417 0 1 0 -0.5877852598018023 0 0.80901698891910034 forward_v I I I I #
face $-1 $177 $178 $59 $-1 $179 forward single #
loop $-1 $180 $181 $75 #
cone-surface $-1 -66.872650211267157 -5.2909677396258132 3.9805032754405705 0.5877852598018023 0 -0.80901698891910034 1.2135254833786506 0 0.88167788970270344 1 I I 0 1 1.5 forward I I I I #
face $-1 $182 $183 $60 $-1 $184 reversed single #
loop $-1 $-1 $185 $76 #
plane-surface $-1 -155.68604929310942 8.3670713167261184 118.86540708847417 0 1 0 -0.5877852598018023 0 0.80901698891910034 forward_v I I I I #
face $-1 $186 $187 $61 $-1 $188 forward single #
loop $-1 $189 $190 $77 #
cone-surface $-1 -66.872650211267157 11.443032438132036 3.9805032754405705 0.5877852598018023 0 -0.80901698891910034 1.2135254833786506 0 0.88167788970270344 1 I I 0 1 1.5 forward I I I I #
face $-1 $191 $192 $62 $-1 $193 reversed single #
loop $-1 $-1 $194 $78 #
plane-surface $-1 -155.68604929310942 25.101071494483968 118.86540708847417 0 1 0 -0.5877852598018023 0 0.80901698891910034 forward_v I I I I #
face $-1 $195 $196 $63 $-1 $197 forward single #
loop $-1 $198 $199 $79 #
cone-surface $-1 -66.872650211267157 28.177032615889885 3.9805032754405705 0.5877852598018023 0 -0.80901698891910034 1.2135254833786506 0 0.88167788970270344 1 I I 0 1 1.5 forward I I I I #
face $-1 $200 $201 $48 $-1 $202 reversed single #
loop $-1 $-1 $203 $80 #
plane-surface $-1 0 0 8.1602866670372016 0 0 1 1 0 0 forward_v I I I I #
coedge $-1 $204 $205 $206 $207 reversed $81 $-1 #
face $-1 $208 $209 $49 $-1 $210 reversed single #
loop $-1 $-1 $211 $83 #
plane-surface $-1 0 0 -8.1602866670372016 0 0 1 1 0 0 forward_v I I I I #
coedge $-1 $212 $213 $214 $215 forward $84 $-1 #
face $-1 $216 $217 $50 $-1 $218 reversed single #
loop $-1 $-1 $219 $86 #
plane-surface $-1 -26.047975940874807 -8.9479384018756178 104.72764201568286 0.73135370988377701 0 0.68199835119979291 0.68199835119979291 0 -0.73135370988377701 forward_v I I I I #
coedge $-1 $220 $221 $222 $223 reversed $87 $-1 #
face $-1 $-1 $224 $51 $-1 $225 forward single #
loop $-1 $226 $227 $89 #
cone-surface $-1 66.867587523653995 -10.347326364142436 3.2550476553320458 -0.73135370988377701 0 -0.68199835119979291 0.17049958779994823 0 -0.18283842747094425 1 I I -0.70710678118654746 0.70710678118654746 0.25 forward I I I I #
loop $-1 $-1 $228 $67 #
coedge $-1 $144 $144 $229 $230 reversed $90 $-1 #
face $-1 $-1 $231 $52 $-1 $232 forward single #
loop $-1 $233 $234 $92 #
cone-surface $-1 66.867587523653995 -7.5485504396087997 3.2550476553320458 -0.73135370988377701 0 -0.68199835119979291 0.17049958779994823 0 -0.18283842747094425 1 I I -0.70710678118654746 0.70710678118654746 0.25 forward I I I I #
loop $-1 $-1 $235 $68 #
coedge $-1 $149 $149 $236 $237 reversed $93 $-1 #
face $-1 $238 $239 $53 $-1 $240 reversed single #
loop $-1 $-1 $241 $95 #
plane-surface $-1 -26.047975940874807 15.100003100381848 104.72764201568286 0.73135370988377701 0 0.68199835119979291 0.68199835119979291 0 -0.73135370988377701 forward_v I I I I #
coedge $-1 $242 $243 $244 $245 reversed $96 $-1 #
face $-1 $-1 $246 $54 $-1 $247 forward single #
loop $-1 $248 $249 $98 #
cone-surface $-1 66.867587523653995 13.700615138115026 3.2550476553320458 -0.73135370988377701 0 -0.68199835119979291 0.17049958779994823 0 -0.18283842747094425 1 I I -0.70710678118654746 0.70710678118654746 0.25 forward I I I I #
loop $-1 $-1 $250 $70 #
coedge $-1 $158 $158 $251 $252 reversed $99 $-1 #
face $-1 $-1 $253 $55 $-1 $254 forward single #
loop $-1 $255 $256 $101 #
cone-surface $-1 66.867587523653995 16.499391062648662 3.2550476553320458 -0.73135370988377701 0 -0.68199835119979291 0.17049958779994823 0 -0.18283842747094425 1 I I -0.70710678118654746 0.70710678118654746 0.25 forward I I I I #
loop $-1 $-1 $257 $71 #
coedge $-1 $163 $163 $258 $259 reversed $102 $-1 #
face $-1 $260 $261 $56 $-1 $262 reversed single #
loop $-1 $-1 $263 $104 #
plane-surface $-1 -71.561021759697269 -22.024967917383663 3.0772423924651804 -0.5877852598018023 0 0.80901698891910034 0.80901698891910034 0 0.5877852598018023 forward_v I I I I #
coedge $-1 $264 $265 $266 $267 reversed $105 $-1 #
face $-1 $-1 $268 $57 $-1 $269 forward single #
loop $-1 $270 $271 $107 #
cone-surface $-1 -65.241544769942408 -22.024967917383663 1.735479279440618 0.5877852598018023 0 -0.80901698891910034 0.60676274168932531 0 0.44083894485135172 1 I I -0.70710678118654757 0.70710678118654757 0.75 forward I I I I #
loop $-1 $-1 $272 $73 #
coedge $-1 $172 $172 $273 $274 reversed $108 $-1 #
face $-1 $275 $276 $58 $-1 $277 reversed single #
loop $-1 $-1 $278 $110 #
plane-surface $-1 -71.561021759697269 -5.2909677396258132 3.0772423924651804 -0.5877852598018023 0 0.80901698891910034 0.80901698891910034 0 0.5877852598018023 forward_v I I I I #
coedge $-1 $279 $280 $281 $282 reversed $111 $-1 #
face $-1 $-1 $283 $59 $-1 $284 forward single #
loop $-1 $285 $286 $113 #
cone-surface $-1 -65.241544769942408 -5.2909677396258132 1.735479279440618 0.5877852598018023 0 -0.80901698891910034 0.60676274168932531 0 0.44083894485135172 1 I I -0.70710678118654757 0.70710678118654757 0.75 forward I I I I #
loop $-1 $-1 $287 $75 #
coedge $-1 $181 $181 $288 $289 reversed $114 $-1 #
face $-1 $290 $291 $60 $-1 $292 reversed single #
loop $-1 $-1 $293 $116 #
plane-surface $-1 -71.561021759697269 11.443032438132036 3.0772423924651804 -0.5877852598018023 0 0.80901698891910034 0.80901698891910034 0 0.5877852598018023 forward_v I I I I #
coedge $-1 $294 $295 $296 $297 reversed $117 $-1 #
face $-1 $-1 $298 $61 $-1 $299 forward single #
loop $-1 $300 $301 $119 #
cone-surface $-1 -65.241544769942408 11.443032438132036 1.735479279440618 0.5877852598018023 0 -0.80901698891910034 0.60676274168932531 0 0.44083894485135172 1 I I -0.70710678118654757 0.70710678118654757 0.75 forward I I I I #
loop $-1 $-1 $302 $77 #
coedge $-1 $190 $190 $303 $304 reversed $120 $-1 #
face $-1 $305 $306 $62 $-1 $307 forward single #
loop $-1 $-1 $308 $122 #
plane-surface $-1 -71.561021759697269 28.177032615889885 3.0772423924651804 -0.5877852598018023 0 0.80901698891910034 0.80901698891910034 0 0.5877852598018023 forward_v I I I I #
coedge $-1 $309 $310 $311 $312 reversed $123 $-1 #
face $-1 $-1 $313 $63 $-1 $314 forward single #
loop $-1 $315 $316 $125 #
cone-surface $-1 -65.241544769942408 28.177032615889885 1.735479279440618 0.5877852598018023 0 -0.80901698891910034 0.60676274168932531 0 0.44083894485135172 1 I I -0.70710678118654757 0.70710678118654757 0.75 forward I I I I #
loop $-1 $-1 $317 $79 #
coedge $-1 $199 $199 $318 $319 reversed $126 $-1 #
face $-1 $320 $321 $48 $-1 $322 reversed single #
loop $-1 $-1 $323 $128 #
plane-surface $-1 0 0 -8.1602866670372016 0 0 1 1 0 0 forward_v I I I I #
coedge $-1 $324 $325 $326 $327 forward $129 $-1 #
coedge $-1 $328 $131 $329 $330 reversed $81 $-1 #
coedge $-1 $131 $328 $331 $332 forward $81 $-1 #
coedge $-1 $333 $323 $131 $207 forward $201 $-1 #
edge $-1 $334 -71.561021759697255 $335 71.561021759697255 $131 $336 forward 7 unknown #
face $-1 $337 $338 $49 $-1 $339 reversed single #
loop $-1 $-1 $340 $132 #
plane-surface $-1 -58.721274493064612 -37.405058435802026 0 0 1 0 0 0 1 forward_v I I I I #
coedge $-1 $341 $342 $213 $343 forward $133 $-1 #
coedge $-1 $344 $135 $345 $346 reversed $84 $-1 #
coedge $-1 $135 $344 $211 $343 reversed $84 $-1 #
coedge $-1 $347 $348 $135 $215 reversed $338 $-1 #
edge $-1 $349 -8.1602866670372016 $350 8.1602866670372016 $214 $351 forward 7 unknown #
face $-1 $352 $353 $50 $-1 $354 forward single #
loop $-1 $-1 $355 $136 #
plane-surface $-1 78.624861553181759 -12.213176980498194 202.33663971625492 0 1 0 0.73135370988377701 0 0.68199835119979291 forward_v I I I I #
coedge $-1 $356 $357 $358 $359 reversed $137 $-1 #
coedge $-1 $221 $139 $360 $361 reversed $87 $-1 #
coedge $-1 $139 $220 $356 $362 reversed $87 $-1 #
coedge $-1 $358 $363 $139 $223 forward $353 $-1 #
edge $-1 $364 -32.248590983106375 $365 -24.690106785729348 $222 $366 forward 7 unknown #
loop $-1 $-1 $229 $140 #
plane-surface $-1 -26.047975940874807 -8.9479384018756178 104.72764201568286 0.73135370988377701 0 0.68199835119979291 0.68199835119979291 0 -0.73135370988377701 forward_v I I I I #
loop $-1 $-1 $367 $89 #
coedge $-1 $227 $227 $228 $368 reversed $141 $-1 #
coedge $-1 $228 $228 $227 $368 forward $143 $-1 #
coedge $-1 $229 $229 $144 $230 forward $224 $-1 #
edge $-1 $369 0 $369 6.2831853071796004 $229 $370 forward 7 unknown #
loop $-1 $-1 $236 $145 #
plane-surface $-1 -26.047975940874807 -8.9479384018756178 104.72764201568286 0.73135370988377701 0 0.68199835119979291 0.68199835119979291 0 -0.73135370988377701 forward_v I I I I #
loop $-1 $-1 $371 $92 #
coedge $-1 $234 $234 $235 $372 reversed $146 $-1 #
coedge $-1 $235 $235 $234 $372 forward $148 $-1 #
coedge $-1 $236 $236 $149 $237 forward $231 $-1 #
edge $-1 $373 0 $373 6.2831853071796004 $236 $374 forward 7 unknown #
face $-1 $375 $376 $53 $-1 $377 reversed single #
loop $-1 $-1 $378 $150 #
plane-surface $-1 78.624861553181759 11.834764521759272 202.33663971625492 0 1 0 0.73135370988377701 0 0.68199835119979291 forward_v I I I I #
coedge $-1 $379 $380 $381 $382 reversed $151 $-1 #
coedge $-1 $243 $153 $383 $384 reversed $96 $-1 #
coedge $-1 $153 $242 $379 $385 reversed $96 $-1 #
coedge $-1 $381 $386 $153 $245 forward $387 $-1 #
edge $-1 $388 -32.248590983106375 $389 -24.690106785729348 $244 $390 forward 7 unknown #
loop $-1 $-1 $251 $154 #
plane-surface $-1 -26.047975940874807 15.100003100381848 104.72764201568286 0.73135370988377701 0 0.68199835119979291 0.68199835119979291 0 -0.73135370988377701 forward_v I I I I #
loop $-1 $-1 $391 $98 #
coedge $-1 $249 $249 $250 $392 reversed $155 $-1 #
coedge $-1 $250 $250 $249 $392 forward $157 $-1 #
coedge $-1 $251 $251 $158 $252 forward $246 $-1 #
edge $-1 $393 0 $393 6.2831853071796004 $251 $394 forward 7 unknown #
loop $-1 $-1 $258 $159 #
plane-surface $-1 -26.047975940874807 15.100003100381848 104.72764201568286 0.73135370988377701 0 0.68199835119979291 0.68199835119979291 0 -0.73135370988377701 forward_v I I I I #
loop $-1 $-1 $395 $101 #
coedge $-1 $256 $256 $257 $396 reversed $160 $-1 #
coedge $-1 $257 $257 $256 $396 forward $162 $-1 #
coedge $-1 $258 $258 $163 $259 forward $253 $-1 #
edge $-1 $397 0 $397 6.2831853071796004 $258 $398 forward 7 unknown #
face $-1 $399 $400 $56 $-1 $401 reversed single #
loop $-1 $-1 $402 $164 #
plane-surface $-1 -155.68604929310942 -18.949006795977745 118.86540708847417 0 -1 0 0.5877852598018023 0 -0.80901698891910034 forward_v I I I I #
coedge $-1 $403 $404 $405 $406 reversed $165 $-1 #
coedge $-1 $265 $167 $407 $408 reversed $105 $-1 #
coedge $-1 $167 $264 $403 $409 reversed $105 $-1 #
coedge $-1 $405 $410 $167 $267 forward $411 $-1 #
edge $-1 $412 6.2820028868574553 $413 13.278212990770839 $266 $414 forward 7 unknown #
loop $-1 $-1 $273 $168 #
plane-surface $-1 -71.561021759697269 -22.024967917383663 3.0772423924651804 -0.5877852598018023 0 0.80901698891910034 0.80901698891910034 0 0.5877852598018023 forward_v I I I I #
loop $-1 $-1 $415 $107 #
coedge $-1 $271 $271 $272 $416 reversed $169 $-1 #
coedge $-1 $272 $272 $271 $416 forward $171 $-1 #
coedge $-1 $273 $273 $172 $274 forward $268 $-1 #
edge $-1 $417 0 $417 6.2831853071796004 $273 $418 forward 7 unknown #
face $-1 $419 $420 $58 $-1 $421 forward single #
loop $-1 $-1 $422 $173 #
plane-surface $-1 -155.68604929310942 -2.2150066182198951 118.86540708847417 0 -1 0 0.5877852598018023 0 -0.80901698891910034 forward_v I I I I #
coedge $-1 $423 $424 $425 $426 reversed $174 $-1 #
coedge $-1 $280 $176 $427 $428 reversed $111 $-1 #
coedge $-1 $176 $279 $423 $429 reversed $111 $-1 #
coedge $-1 $425 $430 $176 $282 forward $420 $-1 #
edge $-1 $431 6.2820028868574553 $432 13.278212990770839 $281 $433 forward 7 unknown #
loop $-1 $-1 $288 $177 #
plane-surface $-1 -71.561021759697269 -5.2909677396258132 3.0772423924651804 -0.5877852598018023 0 0.80901698891910034 0.80901698891910034 0 0.5877852598018023 forward_v I I I I #
loop $-1 $-1 $434 $113 #
coedge $-1 $286 $286 $287 $435 reversed $178 $-1 #
coedge $-1 $287 $287 $286 $435 forward $180 $-1 #
coedge $-1 $288 $288 $181 $289 forward $283 $-1 #
edge $-1 $436 0 $436 6.2831853071796004 $288 $437 forward 7 unknown #
face $-1 $438 $439 $60 $-1 $440 forward single #
loop $-1 $-1 $441 $182 #
plane-surface $-1 -155.68604929310942 14.518993559537954 118.86540708847417 0 -1 0 0.5877852598018023 0 -0.80901698891910034 forward_v I I I I #
coedge $-1 $442 $443 $444 $445 reversed $183 $-1 #
coedge $-1 $295 $185 $446 $447 reversed $117 $-1 #
coedge $-1 $185 $294 $442 $448 reversed $117 $-1 #
coedge $-1 $444 $449 $185 $297 forward $439 $-1 #
edge $-1 $450 6.2820028868574553 $451 13.278212990770839 $296 $452 forward 7 unknown #
loop $-1 $-1 $303 $186 #
plane-surface $-1 -71.561021759697269 11.443032438132036 3.0772423924651804 -0.5877852598018023 0 0.80901698891910034 0.80901698891910034 0 0.5877852598018023 forward_v I I I I #
loop $-1 $-1 $453 $119 #
coedge $-1 $301 $301 $302 $454 reversed $187 $-1 #
coedge $-1 $302 $302 $301 $454 forward $189 $-1 #
coedge $-1 $303 $303 $190 $304 forward $298 $-1 #
edge $-1 $455 0 $455 6.2831853071796004 $303 $456 forward 7 unknown #
face $-1 $457 $458 $62 $-1 $459 reversed single #
loop $-1 $-1 $311 $191 #
plane-surface $-1 0 0 8.1602866670372016 0 0 1 1 0 0 forward_v I I I I #
coedge $-1 $460 $461 $462 $463 reversed $192 $-1 #
coedge $-1 $310 $194 $464 $465 reversed $123 $-1 #
coedge $-1 $194 $309 $460 $466 reversed $123 $-1 #
coedge $-1 $462 $467 $194 $312 forward $306 $-1 #
edge $-1 $468 6.2820028868574553 $469 13.278212990770839 $311 $470 forward 7 unknown #
loop $-1 $-1 $318 $195 #
plane-surface $-1 -71.561021759697269 28.177032615889885 3.0772423924651804 -0.5877852598018023 0 0.80901698891910034 0.80901698891910034 0 0.5877852598018023 forward_v I I I I #
loop $-1 $-1 $471 $125 #
coedge $-1 $316 $316 $317 $472 reversed $196 $-1 #
coedge $-1 $317 $317 $316 $472 forward $198 $-1 #
coedge $-1 $318 $318 $199 $319 forward $313 $-1 #
edge $-1 $473 0 $473 6.2831853071796004 $318 $474 forward 7 unknown #
face $-1 $475 $476 $48 $-1 $477 reversed single #
loop $-1 $-1 $478 $200 #
plane-surface $-1 -71.561021759697255 0 0 1 0 0 0 0 -1 forward_v I I I I #
coedge $-1 $206 $479 $480 $481 forward $201 $-1 #
coedge $-1 $482 $203 $483 $484 forward $129 $-1 #
coedge $-1 $203 $482 $328 $485 forward $129 $-1 #
coedge $-1 $329 $486 $203 $327 reversed $487 $-1 #
edge $-1 $488 -31.252993737295803 $489 31.252993737295803 $326 $490 forward 7 unknown #
coedge $-1 $205 $204 $325 $485 reversed $81 $-1 #
coedge $-1 $480 $326 $204 $330 forward $487 $-1 #
edge $-1 $488 -8.1602866670372016 $334 8.1602866670372016 $329 $491 forward 7 unknown #
coedge $-1 $492 $493 $205 $332 reversed $321 $-1 #
edge $-1 $494 -8.1602866670372016 $335 8.1602866670372016 $331 $495 forward 7 unknown #
coedge $-1 $479 $206 $493 $496 forward $201 $-1 #
vertex $-1 $330 $497 #
vertex $-1 $496 $498 #
straight-curve $-1 0 -31.252993737295803 -8.1602866670372016 -1 0 0 I I #
face $-1 $499 $500 $49 $-1 $501 reversed single #
loop $-1 $-1 $214 $208 #
plane-surface $-1 -60.853179580902129 -34.329026086548915 0 1 0 0 0 0 -1 forward_v I I I I #
coedge $-1 $502 $503 $504 $505 forward $209 $-1 #
coedge $-1 $506 $211 $507 $508 forward $133 $-1 #
coedge $-1 $211 $506 $347 $509 forward $133 $-1 #
edge $-1 $349 -60.853179580902129 $510 -56.589369405227096 $211 $511 forward 7 unknown #
coedge $-1 $213 $212 $512 $513 forward $84 $-1 #
coedge $-1 $514 $515 $212 $346 forward $516 $-1 #
edge $-1 $517 56.589369405227096 $350 60.853179580902129 $345 $518 forward 7 unknown #
coedge $-1 $504 $214 $342 $509 reversed $338 $-1 #
coedge $-1 $214 $504 $514 $519 reversed $338 $-1 #
vertex $-1 $343 $520 #
vertex $-1 $519 $521 #
straight-curve $-1 -60.853179580902129 -31.252993737295803 0 0 0 1 I I #
face $-1 $-1 $522 $50 $-1 $523 reversed single #
loop $-1 $-1 $222 $216 #
plane-surface $-1 0 0 8.1602866670372016 0 0 1 1 0 0 forward_v I I I I #
coedge $-1 $524 $525 $526 $527 reversed $217 $-1 #
coedge $-1 $528 $219 $221 $362 forward $137 $-1 #
coedge $-1 $219 $528 $524 $529 forward $137 $-1 #
coedge $-1 $526 $222 $219 $359 forward $353 $-1 #
edge $-1 $365 1.2087306223152332 $530 7.7392077795603846 $358 $531 forward 7 unknown #
coedge $-1 $532 $533 $220 $361 forward $522 $-1 #
edge $-1 $534 -101.11351533650117 $364 -93.008033191090263 $360 $535 forward 7 unknown #
edge $-1 $365 132.03919532177071 $534 143.12204351939448 $221 $536 forward 7 unknown #
coedge $-1 $222 $526 $532 $537 forward $353 $-1 #
vertex $-1 $223 $538 #
vertex $-1 $223 $539 #
straight-curve $-1 39.31243077659088 -5.6826998232530421 8.1602866670371981 -1 0 0 I I #
coedge $-1 $367 $367 $-1 $540 reversed $226 $-1 #
edge $-1 $541 0 $541 6.2831853071796004 $227 $542 forward 7 unknown #
vertex $-1 $230 $543 #
ellipse-curve $-1 67.781779661008713 -10.347326364142436 4.1075455943317776 0.73135370988377701 0 0.68199835119979291 0.34099917559989645 0 -0.36567685494188851 1 I I #
coedge $-1 $371 $371 $-1 $544 reversed $233 $-1 #
edge $-1 $545 0 $545 6.2831853071796004 $234 $546 forward 7 unknown #
vertex $-1 $237 $547 #
ellipse-curve $-1 67.781779661008713 -7.5485504396087997 4.1075455943317776 0.73135370988377701 0 0.68199835119979291 0.34099917559989645 0 -0.36567685494188851 1 I I #
face $-1 $-1 $387 $53 $-1 $548 forward single #
loop $-1 $-1 $549 $238 #
plane-surface $-1 71.561021759697255 0 0 -1 0 0 0 0 1 forward_v I I I I #
coedge $-1 $550 $551 $552 $553 reversed $239 $-1 #
coedge $-1 $554 $241 $243 $385 forward $151 $-1 #
coedge $-1 $241 $554 $550 $555 forward $151 $-1 #
coedge $-1 $552 $244 $241 $382 forward $387 $-1 #
edge $-1 $389 -10.8152401288135 $556 -4.2847629715683482 $381 $557 forward 7 unknown #
coedge $-1 $558 $559 $242 $384 forward $376 $-1 #
edge $-1 $560 -101.11351533650117 $388 -93.008033191090263 $383 $561 forward 7 unknown #
edge $-1 $389 132.03919532177071 $560 143.12204351939448 $243 $562 forward 7 unknown #
coedge $-1 $244 $552 $558 $563 forward $387 $-1 #
loop $-1 $-1 $552 $375 #
vertex $-1 $384 $564 #
vertex $-1 $245 $565 #
straight-curve $-1 39.31243077659088 18.365241679004424 8.1602866670371981 -1 0 0 I I #
coedge $-1 $391 $391 $-1 $566 reversed $248 $-1 #
edge $-1 $567 0 $567 6.2831853071796004 $249 $568 forward 7 unknown #
vertex $-1 $252 $569 #
ellipse-curve $-1 67.781779661008713 13.700615138115026 4.1075455943317776 0.73135370988377701 0 0.68199835119979291 0.34099917559989645 0 -0.36567685494188851 1 I I #
coedge $-1 $395 $395 $-1 $570 reversed $255 $-1 #
edge $-1 $571 0 $571 6.2831853071796004 $256 $572 forward 7 unknown #
vertex $-1 $259 $573 #
ellipse-curve $-1 67.781779661008713 16.499391062648662 4.1075455943317776 0.73135370988377701 0 0.68199835119979291 0.34099917559989645 0 -0.36567685494188851 1 I I #
face $-1 $-1 $411 $56 $-1 $574 forward single #
loop $-1 $-1 $575 $260 #
plane-surface $-1 -71.561021759697255 0 0 1 0 0 0 0 -1 forward_v I I I I #
coedge $-1 $576 $577 $578 $579 reversed $261 $-1 #
coedge $-1 $580 $263 $265 $409 forward $165 $-1 #
coedge $-1 $263 $580 $576 $581 forward $165 $-1 #
coedge $-1 $578 $266 $263 $406 forward $411 $-1 #
edge $-1 $413 -14.088445080097749 $582 -7.9365228372859136 $405 $583 forward 7 unknown #
coedge $-1 $584 $585 $264 $408 forward $400 $-1 #
edge $-1 $586 -56.355461151771898 $412 -51.272416877199888 $407 $587 forward 7 unknown #
edge $-1 $413 -8.6477913316267827 $586 -1.7500491998158137e-014 $265 $588 forward 7 unknown #
coedge $-1 $266 $578 $584 $589 forward $411 $-1 #
loop $-1 $-1 $578 $399 #
vertex $-1 $408 $590 #
vertex $-1 $267 $591 #
straight-curve $-1 -77.84302464655471 -25.10092903878958 8.1602866670372052 1 0 0 I I #
coedge $-1 $415 $415 $-1 $592 reversed $270 $-1 #
edge $-1 $593 0 $593 6.2831853071796004 $271 $594 forward 7 unknown #
vertex $-1 $274 $595 #
ellipse-curve $-1 -68.062916707740555 -22.024967917383663 5.618764529751199 -0.5877852598018023 0 0.80901698891910034 1.2135254833786506 0 0.88167788970270344 1 I I #
face $-1 $-1 $596 $58 $-1 $597 reversed single #
loop $-1 $-1 $281 $275 #
plane-surface $-1 0 0 8.1602866670372016 0 0 1 1 0 0 forward_v I I I I #
coedge $-1 $598 $599 $600 $601 reversed $276 $-1 #
coedge $-1 $602 $278 $280 $429 forward $174 $-1 #
coedge $-1 $278 $602 $598 $603 forward $174 $-1 #
coedge $-1 $600 $281 $278 $426 forward $420 $-1 #
edge $-1 $432 -5.7214449912188243 $604 0.43047725159301153 $425 $605 forward 7 unknown #
coedge $-1 $606 $607 $279 $428 forward $596 $-1 #
edge $-1 $608 -56.355461151771898 $431 -51.272416877199888 $427 $609 forward 7 unknown #
edge $-1 $432 -8.6477913316267827 $608 -1.7500491998158137e-014 $280 $610 forward 7 unknown #
coedge $-1 $281 $600 $606 $611 forward $420 $-1 #
vertex $-1 $428 $612 #
vertex $-1 $282 $613 #
straight-curve $-1 -77.84302464655471 -8.3669288610317309 8.1602866670372052 1 0 0 I I #
coedge $-1 $434 $434 $-1 $614 reversed $285 $-1 #
edge $-1 $615 0 $615 6.2831853071796004 $286 $616 forward 7 unknown #
vertex $-1 $289 $617 #
ellipse-curve $-1 -68.062916707740555 -5.2909677396258132 5.618764529751199 -0.5877852598018023 0 0.80901698891910034 1.2135254833786506 0 0.88167788970270344 1 I I #
face $-1 $-1 $618 $60 $-1 $619 reversed single #
loop $-1 $-1 $296 $290 #
plane-surface $-1 0 0 8.1602866670372016 0 0 1 1 0 0 forward_v I I I I #
coedge $-1 $620 $621 $622 $623 reversed $291 $-1 #
coedge $-1 $624 $293 $295 $448 forward $183 $-1 #
coedge $-1 $293 $624 $620 $625 forward $183 $-1 #
coedge $-1 $622 $296 $293 $445 forward $439 $-1 #
edge $-1 $451 2.6455550976601003 $626 8.7974773404719357 $444 $627 forward 7 unknown #
coedge $-1 $628 $629 $294 $447 forward $618 $-1 #
edge $-1 $630 -56.355461151771898 $450 -51.272416877199888 $446 $631 forward 7 unknown #
edge $-1 $451 -8.6477913316267827 $630 -1.7500491998158137e-014 $295 $632 forward 7 unknown #
coedge $-1 $296 $622 $628 $633 forward $439 $-1 #
vertex $-1 $297 $634 #
vertex $-1 $297 $635 #
straight-curve $-1 -77.84302464655471 8.3670713167261184 8.1602866670372052 1 0 0 I I #
coedge $-1 $453 $453 $-1 $636 reversed $300 $-1 #
edge $-1 $637 0 $637 6.2831853071796004 $301 $638 forward 7 unknown #
vertex $-1 $304 $639 #
ellipse-curve $-1 -68.062916707740555 11.443032438132036 5.618764529751199 -0.5877852598018023 0 0.80901698891910034 1.2135254833786506 0 0.88167788970270344 1 I I #
face $-1 $-1 $640 $62 $-1 $641 reversed single #
loop $-1 $-1 $642 $305 #
plane-surface $-1 0 31.252993737295803 0 0 -1 0 0 0 -1 forward_v I I I I #
coedge $-1 $643 $308 $310 $466 forward $192 $-1 #
coedge $-1 $308 $643 $642 $644 reversed $192 $-1 #
coedge $-1 $645 $311 $308 $463 forward $306 $-1 #
edge $-1 $469 11.012555186539025 $646 17.16447742935086 $462 $647 forward 7 unknown #
coedge $-1 $648 $649 $309 $465 forward $640 $-1 #
edge $-1 $650 -56.355461151771898 $468 -51.272416877199888 $464 $651 forward 7 unknown #
edge $-1 $469 -8.6477913316267827 $650 -1.7500491998158137e-014 $310 $652 forward 7 unknown #
coedge $-1 $311 $645 $648 $653 forward $306 $-1 #
vertex $-1 $465 $654 #
vertex $-1 $312 $655 #
straight-curve $-1 -77.84302464655471 25.101071494483968 8.1602866670372052 1 0 0 I I #
coedge $-1 $471 $471 $-1 $656 reversed $315 $-1 #
edge $-1 $657 0 $657 6.2831853071796004 $316 $658 forward 7 unknown #
vertex $-1 $319 $659 #
ellipse-curve $-1 -68.062916707740555 28.177032615889885 5.618764529751199 -0.5877852598018023 0 0.80901698891910034 1.2135254833786506 0 0.88167788970270344 1 I I #
face $-1 $-1 $487 $48 $-1 $660 reversed single #
loop $-1 $-1 $661 $320 #
plane-surface $-1 0 31.252993737295803 0 0 -1 0 0 0 -1 forward_v I I I I #
coedge $-1 $493 $492 $662 $663 forward $321 $-1 #
coedge $-1 $323 $333 $664 $665 forward $201 $-1 #
coedge $-1 $486 $329 $323 $481 reversed $487 $-1 #
edge $-1 $666 -31.252993737295803 $334 31.252993737295803 $480 $667 forward 7 unknown #
coedge $-1 $325 $324 $492 $668 forward $129 $-1 #
coedge $-1 $661 $662 $324 $484 reversed $476 $-1 #
edge $-1 $489 -71.561021759697255 $669 71.561021759697255 $483 $670 forward 7 unknown #
edge $-1 $494 -71.561021759697255 $488 71.561021759697255 $328 $671 forward 7 unknown #
coedge $-1 $326 $480 $661 $672 reversed $487 $-1 #
loop $-1 $-1 $329 $475 #
vertex $-1 $327 $673 #
vertex $-1 $327 $674 #
straight-curve $-1 71.561021759697255 0 8.1602866670372016 0 1 0 I I #
straight-curve $-1 71.561021759697255 -31.252993737295803 0 0 0 -1 I I #
coedge $-1 $478 $331 $482 $668 reversed $321 $-1 #
coedge $-1 $331 $478 $333 $496 reversed $321 $-1 #
vertex $-1 $668 $675 #
straight-curve $-1 -71.561021759697255 -31.252993737295803 0 0 0 -1 I I #
edge $-1 $335 -31.252993737295803 $676 31.252993737295803 $493 $677 forward 7 unknown #
point $-1 71.561021759697255 -31.252993737295803 -8.1602866670372016 #
point $-1 -71.561021759697255 -31.252993737295803 -8.1602866670372016 #
face $-1 $-1 $516 $49 $-1 $678 forward single #
loop $-1 $-1 $679 $337 #
plane-surface $-1 -56.589369405227096 -34.329026086548915 0 -1 0 0 0 0 1 forward_v I I I I #
coedge $-1 $680 $340 $506 $681 reversed $209 $-1 #
coedge $-1 $340 $680 $682 $683 reversed $209 $-1 #
coedge $-1 $348 $347 $340 $505 reversed $338 $-1 #
edge $-1 $684 -8.1602866670372016 $685 8.1602866670372016 $504 $686 forward 7 unknown #
coedge $-1 $342 $341 $502 $681 forward $133 $-1 #
coedge $-1 $512 $679 $341 $508 reversed $500 $-1 #
edge $-1 $510 -3.0760323492531114 $687 3.0760323492531114 $507 $688 forward 7 unknown #
edge $-1 $685 -3.0760323492531114 $349 3.0760323492531114 $347 $689 forward 7 unknown #
vertex $-1 $508 $690 #
straight-curve $-1 0 -31.252993737295803 -8.1602866670372016 1 0 0 I I #
coedge $-1 $691 $507 $344 $513 reversed $500 $-1 #
edge $-1 $517 -8.1602866670372016 $510 8.1602866670372016 $512 $692 forward 7 unknown #
coedge $-1 $682 $345 $348 $519 forward $516 $-1 #
coedge $-1 $345 $682 $691 $693 forward $516 $-1 #
loop $-1 $-1 $345 $499 #
vertex $-1 $346 $694 #
straight-curve $-1 0 -31.252993737295803 8.1602866670372016 -1 0 0 I I #
edge $-1 $350 -3.0760323492531114 $684 3.0760323492531114 $348 $695 forward 7 unknown #
point $-1 -60.853179580902129 -31.252993737295803 -8.1602866670372016 #
point $-1 -60.853179580902129 -31.252993737295803 8.1602866670372016 #
loop $-1 $-1 $360 $352 #
plane-surface $-1 71.561021759697255 0 0 -1 0 0 0 0 1 forward_v I I I I #
coedge $-1 $525 $355 $357 $529 reversed $217 $-1 #
coedge $-1 $355 $524 $696 $697 reversed $217 $-1 #
coedge $-1 $363 $358 $355 $527 forward $353 $-1 #
edge $-1 $530 24.690106785729348 $698 32.248590983106375 $526 $699 forward 7 unknown #
coedge $-1 $357 $356 $533 $700 reversed $137 $-1 #
edge $-1 $701 -143.12204351939448 $530 -132.03919532177071 $524 $702 forward 7 unknown #
vertex $-1 $359 $703 #
straight-curve $-1 64.002537562320228 -4.4739692009378089 8.1602866670371981 0 -1 0 I I #
coedge $-1 $696 $360 $363 $537 reversed $522 $-1 #
coedge $-1 $360 $696 $528 $700 forward $522 $-1 #
vertex $-1 $361 $704 #
straight-curve $-1 71.561021759697255 -5.6826998232530421 101.16831985812746 0 0 1 I I #
straight-curve $-1 -26.047975940874807 -5.6826998232530421 104.72764201568286 0.68199835119979291 0 -0.73135370988377701 I I #
edge $-1 $698 -12.213176980498194 $364 -5.6826998232530421 $532 $705 forward 7 unknown #
point $-1 71.561021759697255 -5.6826998232530421 8.1602866670372016 #
point $-1 64.002537562320228 -5.6826998232530421 8.1602866670371981 #
edge $-1 $706 1 $706 0 $367 $-1 forward 7 unknown #
vertex $-1 $368 $707 #
ellipse-curve $-1 67.050425951124936 -10.347326364142436 3.425547243131994 0.73135370988377701 0 0.68199835119979291 0.34099917559989645 0 -0.36567685494188851 1 I I #
point $-1 68.122778836608617 -10.347326364142436 3.7418687393898984 #
edge $-1 $708 1 $708 0 $371 $-1 forward 7 unknown #
vertex $-1 $372 $709 #
ellipse-curve $-1 67.050425951124936 -7.5485504396087997 3.425547243131994 0.73135370988377701 0 0.68199835119979291 0.34099917559989645 0 -0.36567685494188851 1 I I #
point $-1 68.122778836608617 -7.5485504396087997 3.7418687393898984 #
plane-surface $-1 0 0 8.1602866670372016 0 0 1 1 0 0 forward_v I I I I #
coedge $-1 $559 $558 $551 $710 forward $376 $-1 #
coedge $-1 $551 $378 $380 $555 reversed $239 $-1 #
coedge $-1 $378 $550 $549 $710 reversed $239 $-1 #
coedge $-1 $386 $381 $378 $553 forward $387 $-1 #
edge $-1 $556 24.690106785729348 $711 32.248590983106375 $552 $712 forward 7 unknown #
coedge $-1 $380 $379 $559 $713 reversed $151 $-1 #
edge $-1 $714 -143.12204351939448 $556 -132.03919532177071 $550 $715 forward 7 unknown #
vertex $-1 $382 $716 #
straight-curve $-1 64.002537562320228 7.5500015501909239 8.1602866670371981 0 -1 0 I I #
coedge $-1 $549 $383 $386 $563 reversed $376 $-1 #
coedge $-1 $383 $549 $554 $713 forward $376 $-1 #
vertex $-1 $384 $717 #
straight-curve $-1 71.561021759697255 18.365241679004424 101.16831985812746 0 0 1 I I #
straight-curve $-1 -26.047975940874807 18.365241679004424 104.72764201568286 0.68199835119979291 0 -0.73135370988377701 I I #
edge $-1 $711 11.834764521759272 $388 18.365241679004424 $558 $718 forward 7 unknown #
point $-1 71.561021759697255 18.365241679004424 8.1602866670372016 #
point $-1 64.002537562320228 18.365241679004424 8.1602866670371981 #
edge $-1 $719 1 $719 0 $391 $-1 forward 7 unknown #
vertex $-1 $392 $720 #
ellipse-curve $-1 67.050425951124936 13.700615138115026 3.425547243131994 0.73135370988377701 0 0.68199835119979291 0.34099917559989645 0 -0.36567685494188851 1 I I #
point $-1 68.122778836608617 13.700615138115026 3.7418687393898984 #
edge $-1 $721 1 $721 0 $395 $-1 forward 7 unknown #
vertex $-1 $396 $722 #
ellipse-curve $-1 67.050425951124936 16.499391062648662 3.425547243131994 0.73135370988377701 0 0.68199835119979291 0.34099917559989645 0 -0.36567685494188851 1 I I #
point $-1 68.122778836608617 16.499391062648662 3.7418687393898984 #
plane-surface $-1 0 0 8.1602866670372016 0 0 1 1 0 0 forward_v I I I I #
coedge $-1 $585 $584 $577 $723 forward $400 $-1 #
coedge $-1 $577 $402 $404 $581 reversed $261 $-1 #
coedge $-1 $402 $576 $575 $723 reversed $261 $-1 #
coedge $-1 $410 $405 $402 $579 forward $411 $-1 #
edge $-1 $582 -13.278212990770839 $724 -6.2820028868574553 $578 $725 forward 7 unknown #
coedge $-1 $404 $403 $585 $726 reversed $165 $-1 #
edge $-1 $727 1.7500491998158137e-014 $582 8.6477913316267827 $576 $728 forward 7 unknown #
vertex $-1 $406 $729 #
straight-curve $-1 -64.564811655783885 -11.012483958691831 8.1602866670371998 0 1 0 I I #
coedge $-1 $575 $407 $410 $589 reversed $400 $-1 #
coedge $-1 $407 $575 $580 $726 forward $400 $-1 #
vertex $-1 $408 $730 #
straight-curve $-1 -71.561021759697255 -25.10092903878958 59.432703544237086 0 0 1 I I #
straight-curve $-1 -71.561021759697269 -25.10092903878958 3.0772423924651804 -0.80901698891910034 0 -0.5877852598018023 I I #
edge $-1 $724 18.949006795977745 $412 25.10092903878958 $584 $731 forward 7 unknown #
point $-1 -71.561021759697255 -25.10092903878958 8.1602866670372016 #
point $-1 -64.56481165578387 -25.10092903878958 8.1602866670372016 #
edge $-1 $732 1 $732 0 $415 $-1 forward 7 unknown #
vertex $-1 $416 $733 #
ellipse-curve $-1 -65.682383714793758 -22.024967917383663 2.3422420211299433 -0.5877852598018023 0 0.80901698891910034 1.2135254833786506 0 0.88167788970270344 1 I I #
point $-1 -66.849391224361909 -22.024967917383663 6.5004424194539006 #
loop $-1 $-1 $427 $419 #
plane-surface $-1 -71.561021759697255 0 0 1 0 0 0 0 -1 forward_v I I I I #
coedge $-1 $599 $422 $424 $603 reversed $276 $-1 #
coedge $-1 $422 $598 $734 $735 reversed $276 $-1 #
coedge $-1 $430 $425 $422 $601 forward $420 $-1 #
edge $-1 $604 -13.278212990770839 $736 -6.2820028868574553 $600 $737 forward 7 unknown #
coedge $-1 $424 $423 $607 $738 reversed $174 $-1 #
edge $-1 $739 1.7500491998158137e-014 $604 8.6477913316267827 $598 $740 forward 7 unknown #
vertex $-1 $426 $741 #
straight-curve $-1 -64.564811655783885 -2.6454838698129066 8.1602866670371998 0 1 0 I I #
coedge $-1 $734 $427 $430 $611 reversed $596 $-1 #
coedge $-1 $427 $734 $602 $738 forward $596 $-1 #
vertex $-1 $428 $742 #
straight-curve $-1 -71.561021759697255 -8.3669288610317309 59.432703544237086 0 0 1 I I #
straight-curve $-1 -71.561021759697269 -8.3669288610317309 3.0772423924651804 -0.80901698891910034 0 -0.5877852598018023 I I #
edge $-1 $736 2.2150066182198951 $431 8.3669288610317309 $606 $743 forward 7 unknown #
point $-1 -71.561021759697255 -8.3669288610317309 8.1602866670372016 #
point $-1 -64.56481165578387 -8.3669288610317309 8.1602866670372016 #
edge $-1 $744 1 $744 0 $434 $-1 forward 7 unknown #
vertex $-1 $435 $745 #
ellipse-curve $-1 -65.682383714793758 -5.2909677396258132 2.3422420211299433 -0.5877852598018023 0 0.80901698891910034 1.2135254833786506 0 0.88167788970270344 1 I I #
point $-1 -66.849391224361909 -5.2909677396258132 6.5004424194539006 #
loop $-1 $-1 $446 $438 #
plane-surface $-1 -71.561021759697255 0 0 1 0 0 0 0 -1 forward_v I I I I #
coedge $-1 $621 $441 $443 $625 reversed $291 $-1 #
coedge $-1 $441 $620 $746 $747 reversed $291 $-1 #
coedge $-1 $449 $444 $441 $623 forward $439 $-1 #
edge $-1 $626 -13.278212990770839 $748 -6.2820028868574553 $622 $749 forward 7 unknown #
coedge $-1 $443 $442 $629 $750 reversed $183 $-1 #
edge $-1 $751 1.7500491998158137e-014 $626 8.6477913316267827 $620 $752 forward 7 unknown #
vertex $-1 $445 $753 #
straight-curve $-1 -64.564811655783885 5.721516219066018 8.1602866670371998 0 1 0 I I #
coedge $-1 $746 $446 $449 $633 reversed $618 $-1 #
coedge $-1 $446 $746 $624 $750 forward $618 $-1 #
vertex $-1 $447 $754 #
straight-curve $-1 -71.561021759697255 8.3670713167261184 59.432703544237086 0 0 1 I I #
straight-curve $-1 -71.561021759697269 8.3670713167261184 3.0772423924651804 -0.80901698891910034 0 -0.5877852598018023 I I #
edge $-1 $748 -14.518993559537954 $450 -8.3670713167261184 $628 $755 forward 7 unknown #
point $-1 -71.561021759697255 8.3670713167261184 8.1602866670372016 #
point $-1 -64.56481165578387 8.3670713167261184 8.1602866670372016 #
edge $-1 $756 1 $756 0 $453 $-1 forward 7 unknown #
vertex $-1 $454 $757 #
ellipse-curve $-1 -65.682383714793758 11.443032438132036 2.3422420211299433 -0.5877852598018023 0 0.80901698891910034 1.2135254833786506 0 0.88167788970270344 1 I I #
point $-1 -66.849391224361909 11.443032438132036 6.5004424194539006 #
loop $-1 $-1 $464 $457 #
plane-surface $-1 -71.561021759697255 0 0 1 0 0 0 0 -1 forward_v I I I I #
coedge $-1 $758 $759 $461 $644 forward $458 $-1 #
coedge $-1 $461 $460 $649 $760 reversed $192 $-1 #
edge $-1 $646 19.394870982811334 $761 28.0426623144381 $642 $762 forward 7 unknown #
coedge $-1 $467 $462 $759 $763 forward $306 $-1 #
vertex $-1 $763 $764 #
straight-curve $-1 -64.564811655783885 14.088516307944943 8.1602866670371998 0 1 0 I I #
coedge $-1 $765 $464 $467 $653 reversed $640 $-1 #
coedge $-1 $464 $765 $643 $760 forward $640 $-1 #
vertex $-1 $465 $766 #
straight-curve $-1 -71.561021759697255 25.101071494483968 59.432703544237086 0 0 1 I I #
straight-curve $-1 -71.561021759697269 25.101071494483968 3.0772423924651804 -0.80901698891910034 0 -0.5877852598018023 I I #
edge $-1 $767 -31.252993737295803 $468 -25.101071494483968 $648 $768 forward 7 unknown #
point $-1 -71.561021759697255 25.101071494483968 8.1602866670372016 #
point $-1 -64.56481165578387 25.101071494483968 8.1602866670372016 #
edge $-1 $769 1 $769 0 $471 $-1 forward 7 unknown #
vertex $-1 $472 $770 #
ellipse-curve $-1 -65.682383714793758 28.177032615889885 2.3422420211299433 -0.5877852598018023 0 0.80901698891910034 1.2135254833786506 0 0.88167788970270344 1 I I #
point $-1 -66.849391224361909 28.177032615889885 6.5004424194539006 #
plane-surface $-1 71.561021759697255 0 0 -1 0 0 0 0 1 forward_v I I I I #
coedge $-1 $664 $483 $486 $672 forward $476 $-1 #
coedge $-1 $483 $664 $478 $663 reversed $476 $-1 #
edge $-1 $669 -8.1602866670372016 $676 8.1602866670372016 $662 $771 forward 7 unknown #
coedge $-1 $662 $661 $479 $665 reversed $476 $-1 #
edge $-1 $676 -71.561021759697255 $666 71.561021759697255 $664 $772 forward 7 unknown #
vertex $-1 $481 $773 #
straight-curve $-1 71.561021759697255 0 -8.1602866670372016 0 -1 0 I I #
edge $-1 $669 -31.252993737295803 $494 31.252993737295803 $492 $774 forward 7 unknown #
vertex $-1 $484 $775 #
straight-curve $-1 0 31.252993737295803 8.1602866670372016 -1 0 0 I I #
straight-curve $-1 0 -31.252993737295803 8.1602866670372016 1 0 0 I I #
edge $-1 $489 -8.1602866670372016 $666 8.1602866670372016 $486 $776 forward 7 unknown #
point $-1 71.561021759697255 -31.252993737295803 8.1602866670372016 #
point $-1 71.561021759697255 31.252993737295803 8.1602866670372016 #
point $-1 -71.561021759697255 -31.252993737295803 8.1602866670372016 #
vertex $-1 $665 $777 #
straight-curve $-1 -71.561021759697255 0 -8.1602866670372016 0 1 0 I I #
plane-surface $-1 0 0 8.1602866670372016 0 0 1 1 0 0 forward_v I I I I #
coedge $-1 $507 $691 $680 $778 forward $500 $-1 #
coedge $-1 $503 $502 $679 $778 reversed $209 $-1 #
edge $-1 $687 -2.1319050878375165 $685 2.1319050878375165 $502 $779 forward 7 unknown #
coedge $-1 $515 $514 $503 $683 forward $516 $-1 #
edge $-1 $684 -2.1319050878375165 $780 2.1319050878375165 $503 $781 forward 7 unknown #
vertex $-1 $519 $782 #
vertex $-1 $509 $783 #
straight-curve $-1 -60.853179580902129 -37.405058435802026 0 0 0 -1 I I #
vertex $-1 $778 $784 #
straight-curve $-1 -56.589369405227096 -34.329026086548915 -8.1602866670372016 0 -1 0 I I #
straight-curve $-1 -60.853179580902129 -34.329026086548915 -8.1602866670372016 0 1 0 I I #
point $-1 -56.589369405227096 -31.252993737295803 -8.1602866670372016 #
coedge $-1 $679 $512 $515 $693 reversed $500 $-1 #
straight-curve $-1 -56.589369405227096 -31.252993737295803 0 0 0 -1 I I #
edge $-1 $780 -3.0760323492531114 $517 3.0760323492531114 $691 $785 forward 7 unknown #
point $-1 -56.589369405227096 -31.252993737295803 8.1602866670372016 #
straight-curve $-1 -60.853179580902129 -34.329026086548915 8.1602866670372016 0 -1 0 I I #
coedge $-1 $533 $532 $525 $697 forward $522 $-1 #
edge $-1 $698 93.008033191090263 $701 101.11351533650117 $696 $786 forward 7 unknown #
vertex $-1 $537 $787 #
straight-curve $-1 39.31243077659088 -12.213176980498194 8.1602866670371981 1 0 0 I I #
edge $-1 $701 -7.7392077795603846 $534 -1.2087306223152332 $533 $788 forward 7 unknown #
vertex $-1 $700 $789 #
straight-curve $-1 -26.047975940874807 -12.213176980498194 104.72764201568286 -0.68199835119979291 0 0.73135370988377701 I I #
point $-1 64.002537562320228 -12.213176980498194 8.1602866670371981 #
point $-1 71.561021759697255 -5.6826998232530421 0.0548045216262949 #
straight-curve $-1 71.561021759697255 0 8.1602866670372016 0 1 0 I I #
vertex $-1 $540 $790 #
point $-1 67.39142512672484 -10.347326364142436 3.0598703881901055 #
vertex $-1 $544 $791 #
point $-1 67.39142512672484 -7.5485504396087997 3.0598703881901055 #
edge $-1 $711 93.008033191090263 $714 101.11351533650117 $549 $792 forward 7 unknown #
vertex $-1 $563 $793 #
straight-curve $-1 39.31243077659088 11.834764521759272 8.1602866670371981 1 0 0 I I #
edge $-1 $714 4.2847629715683482 $560 10.8152401288135 $559 $794 forward 7 unknown #
vertex $-1 $713 $795 #
straight-curve $-1 -26.047975940874807 11.834764521759272 104.72764201568286 -0.68199835119979291 0 0.73135370988377701 I I #
point $-1 64.002537562320228 11.834764521759272 8.1602866670371981 #
point $-1 71.561021759697255 18.365241679004424 0.0548045216262949 #
straight-curve $-1 71.561021759697255 0 8.1602866670372016 0 1 0 I I #
vertex $-1 $566 $796 #
point $-1 67.39142512672484 13.700615138115026 3.0598703881901055 #
vertex $-1 $570 $797 #
point $-1 67.39142512672484 16.499391062648662 3.0598703881901055 #
edge $-1 $724 51.272416877199888 $727 56.355461151771898 $575 $798 forward 7 unknown #
vertex $-1 $589 $799 #
straight-curve $-1 -77.84302464655471 -18.949006795977745 8.1602866670372052 -1 0 0 I I #
edge $-1 $727 7.9365228372859136 $586 14.088445080097749 $585 $800 forward 7 unknown #
vertex $-1 $726 $801 #
straight-curve $-1 -71.561021759697269 -18.949006795977745 3.0772423924651804 0.80901698891910034 0 0.5877852598018023 I I #
point $-1 -64.56481165578387 -18.949006795977745 8.1602866670372016 #
point $-1 -71.561021759697255 -25.10092903878958 3.0772423924651906 #
straight-curve $-1 -71.561021759697255 0 8.1602866670372016 0 -1 0 I I #
vertex $-1 $592 $802 #
point $-1 -64.468858231415112 -22.024967917383663 3.2239199108326466 #
coedge $-1 $607 $606 $599 $735 forward $596 $-1 #
edge $-1 $736 51.272416877199888 $739 56.355461151771898 $734 $803 forward 7 unknown #
vertex $-1 $611 $804 #
straight-curve $-1 -77.84302464655471 -2.2150066182198951 8.1602866670372052 -1 0 0 I I #
edge $-1 $739 -0.43047725159301153 $608 5.7214449912188243 $607 $805 forward 7 unknown #
vertex $-1 $738 $806 #
straight-curve $-1 -71.561021759697269 -2.2150066182198951 3.0772423924651804 0.80901698891910034 0 0.5877852598018023 I I #
point $-1 -64.56481165578387 -2.2150066182198951 8.1602866670372016 #
point $-1 -71.561021759697255 -8.3669288610317309 3.0772423924651906 #
straight-curve $-1 -71.561021759697255 0 8.1602866670372016 0 -1 0 I I #
vertex $-1 $614 $807 #
point $-1 -64.468858231415112 -5.2909677396258132 3.2239199108326466 #
coedge $-1 $629 $628 $621 $747 forward $618 $-1 #
edge $-1 $748 51.272416877199888 $751 56.355461151771898 $746 $808 forward 7 unknown #
vertex $-1 $633 $809 #
straight-curve $-1 -77.84302464655471 14.518993559537954 8.1602866670372052 -1 0 0 I I #
edge $-1 $751 -8.7974773404719357 $630 -2.6455550976601003 $629 $810 forward 7 unknown #
vertex $-1 $750 $811 #
straight-curve $-1 -71.561021759697269 14.518993559537954 3.0772423924651804 0.80901698891910034 0 0.5877852598018023 I I #
point $-1 -64.56481165578387 14.518993559537954 8.1602866670372016 #
point $-1 -71.561021759697255 8.3670713167261184 3.0772423924651906 #
straight-curve $-1 -71.561021759697255 0 8.1602866670372016 0 -1 0 I I #
vertex $-1 $636 $812 #
point $-1 -64.468858231415112 11.443032438132036 3.2239199108326466 #
coedge $-1 $759 $642 $765 $813 reversed $458 $-1 #
coedge $-1 $642 $758 $645 $763 reversed $458 $-1 #
edge $-1 $761 -17.16447742935086 $650 -11.012555186539025 $649 $814 forward 7 unknown #
vertex $-1 $644 $815 #
straight-curve $-1 -48.874031532795414 31.252993737295803 19.560305946491404 -0.80901698891910034 0 -0.5877852598018023 I I #
edge $-1 $646 64.56481165578387 $767 71.561021759697255 $759 $816 forward 7 unknown #
point $-1 -64.56481165578387 31.252993737295803 8.1602866670372016 #
coedge $-1 $649 $648 $758 $813 forward $640 $-1 #
point $-1 -71.561021759697255 25.101071494483968 3.0772423924651906 #
vertex $-1 $763 $817 #
straight-curve $-1 -71.561021759697255 0 8.1602866670372016 0 -1 0 I I #
vertex $-1 $656 $818 #
point $-1 -64.468858231415112 28.177032615889885 3.2239199108326466 #
straight-curve $-1 -71.561021759697255 31.252993737295803 0 0 0 -1 I I #
straight-curve $-1 0 31.252993737295803 -8.1602866670372016 1 0 0 I I #
point $-1 71.561021759697255 31.252993737295803 -8.1602866670372016 #
straight-curve $-1 -71.561021759697255 0 8.1602866670372016 0 -1 0 I I #
point $-1 -71.561021759697255 31.252993737295803 8.1602866670372016 #
straight-curve $-1 71.561021759697255 31.252993737295803 0 0 0 -1 I I #
point $-1 -71.561021759697255 31.252993737295803 -8.1602866670372016 #
edge $-1 $780 -8.1602866670372016 $687 8.1602866670372016 $679 $819 forward 7 unknown #
straight-curve $-1 -58.721274493064612 -37.405058435802026 -8.1602866670372016 -1 0 0 I I #
vertex $-1 $693 $820 #
straight-curve $-1 -58.721274493064612 -37.405058435802026 8.1602866670372016 1 0 0 I I #
point $-1 -60.853179580902129 -37.405058435802026 8.1602866670372016 #
point $-1 -60.853179580902129 -37.405058435802026 -8.1602866670372016 #
point $-1 -56.589369405227096 -37.405058435802026 -8.1602866670372016 #
straight-curve $-1 -56.589369405227096 -34.329026086548915 8.1602866670372016 0 1 0 I I #
straight-curve $-1 71.561021759697255 -12.213176980498194 101.16831985812746 0 0 -1 I I #
point $-1 71.561021759697255 -12.213176980498194 8.1602866670372016 #
straight-curve $-1 71.561021759697255 -4.4739692009378089 0.054804521626309111 0 1 0 I I #
point $-1 71.561021759697255 -12.213176980498194 0.0548045216262949 #
point $-1 66.684749096183054 -10.347326364142436 3.0845480675320975 #
point $-1 66.684749096183054 -7.5485504396087997 3.0845480675320975 #
straight-curve $-1 71.561021759697255 11.834764521759272 101.16831985812746 0 0 -1 I I #
point $-1 71.561021759697255 11.834764521759272 8.1602866670372016 #
straight-curve $-1 71.561021759697255 7.5500015501909239 0.054804521626309111 0 1 0 I I #
point $-1 71.561021759697255 11.834764521759272 0.0548045216262949 #
point $-1 66.684749096183054 13.700615138115026 3.0845480675320975 #
point $-1 66.684749096183054 16.499391062648662 3.0845480675320975 #
straight-curve $-1 -71.561021759697255 -18.949006795977745 59.432703544237086 0 0 -1 I I #
point $-1 -71.561021759697255 -18.949006795977745 8.1602866670372016 #
straight-curve $-1 -71.561021759697255 -11.012483958691831 3.0772423924651959 0 -1 0 I I #
point $-1 -71.561021759697255 -18.949006795977745 3.0772423924651906 #
point $-1 -64.800705825091057 -22.024967917383663 1.1287165377512927 #
straight-curve $-1 -71.561021759697255 -2.2150066182198951 59.432703544237086 0 0 -1 I I #
point $-1 -71.561021759697255 -2.2150066182198951 8.1602866670372016 #
straight-curve $-1 -71.561021759697255 -2.6454838698129066 3.0772423924651959 0 -1 0 I I #
point $-1 -71.561021759697255 -2.2150066182198951 3.0772423924651906 #
point $-1 -64.800705825091057 -5.2909677396258132 1.1287165377512927 #
straight-curve $-1 -71.561021759697255 14.518993559537954 59.432703544237086 0 0 -1 I I #
point $-1 -71.561021759697255 14.518993559537954 8.1602866670372016 #
straight-curve $-1 -71.561021759697255 5.721516219066018 3.0772423924651959 0 -1 0 I I #
point $-1 -71.561021759697255 14.518993559537954 3.0772423924651906 #
point $-1 -64.800705825091057 11.443032438132036 1.1287165377512927 #
edge $-1 $767 -8.1602866670372016 $761 -3.0772423924651906 $758 $821 forward 7 unknown #
straight-curve $-1 -71.561021759697255 14.088516307944943 3.0772423924651959 0 -1 0 I I #
point $-1 -71.561021759697255 31.252993737295803 3.0772423924651906 #
straight-curve $-1 0 31.252993737295803 8.1602866670372016 -1 0 0 I I #
point $-1 -71.561021759697255 31.252993737295803 8.1602866670372016 #
point $-1 -64.800705825091057 28.177032615889885 1.1287165377512927 #
straight-curve $-1 -56.589369405227096 -37.405058435802026 0 0 0 -1 I I #
point $-1 -56.589369405227096 -37.405058435802026 8.1602866670372016 #
straight-curve $-1 -71.561021759697255 31.252993737295803 0 0 0 -1 I I #
End-of-ACIS-data 