500 0 6 0           
7 Unknown 11 ACIS 5.0 NT 24 Thu Mar 25 17:26:27 1999 
-1 9.9999999999999995e-007 1e-010 
body $-1 $6 $-1 $7 #
body $-1 $8 $-1 $9 #
body $-1 $10 $-1 $11 #
body $-1 $12 $-1 $13 #
body $-1 $14 $-1 $15 #
body $-1 $16 $-1 $17 #
lump $-1 $-1 $18 $0 #
transform $-1 1 0 0 0 1 0 0 0 1 57.376018555253765 35.418095257946042 15.612303307510459 1 rotate no_reflect no_shear #
lump $-1 $-1 $19 $1 #
transform $-1 1 0 0 0 1 0 0 0 1 57.376018555253765 35.418095257946042 15.612303307510459 1 rotate no_reflect no_shear #
lump $-1 $-1 $20 $2 #
transform $-1 1 0 0 0 1 0 0 0 1 57.376018555253765 35.418095257946042 15.612303307510459 1 rotate no_reflect no_shear #
lump $-1 $-1 $21 $3 #
transform $-1 1 0 0 0 1 0 0 0 1 57.376018555253765 35.418095257946042 15.612303307510459 1 rotate no_reflect no_shear #
lump $-1 $-1 $22 $4 #
transform $-1 1 0 0 0 1 0 0 0 1 57.376018555253765 35.418095257946042 15.612303307510459 1 rotate no_reflect no_shear #
lump $-1 $-1 $23 $5 #
transform $-1 1 0 0 0 1 0 0 0 1 57.376018555253765 35.418095257946042 15.612303307510459 1 rotate no_reflect no_shear #
shell $-1 $-1 $-1 $24 $-1 $6 #
shell $-1 $-1 $-1 $25 $-1 $8 #
shell $-1 $-1 $-1 $26 $-1 $10 #
shell $-1 $-1 $-1 $27 $-1 $12 #
shell $-1 $-1 $-1 $28 $-1 $14 #
shell $-1 $-1 $-1 $29 $-1 $16 #
face $-1 $30 $31 $18 $-1 $32 forward single #
face $-1 $33 $34 $19 $-1 $35 forward single #
face $-1 $36 $37 $20 $-1 $38 reversed single #
face $-1 $39 $40 $21 $-1 $41 forward single #
face $-1 $42 $43 $22 $-1 $44 forward single #
face $-1 $45 $46 $23 $-1 $47 forward single #
face $-1 $48 $49 $18 $-1 $50 reversed single #
loop $-1 $-1 $51 $24 #
plane-surface $-1 0 0 15.612303307510459 0 0 1 1 0 0 forward_v I I I I #
face $-1 $52 $53 $19 $-1 $54 reversed single #
loop $-1 $-1 $55 $25 #
plane-surface $-1 0 -35.418095257946042 0 0 1 0 0 0 1 forward_v I I I I #
face $-1 $56 $57 $20 $-1 $58 reversed single #
loop $-1 $-1 $59 $26 #
plane-surface $-1 57.376020438160936 21.2713666779728 173.21375458015365 0 1 0 0.70710678939079041 0 0.70710677298230451 forward_v I I I I #
face $-1 $60 $61 $21 $-1 $62 forward single #
loop $-1 $63 $64 $27 #
cone-surface $-1 53.669724378951855 24.100712393967449 11.906009108557065 -0.70710678939079041 0 -0.70710677298230451 0.70710677298230451 0 -0.70710678939079041 1 I I 0 1 1 forward I I I I #
face $-1 $65 $66 $22 $-1 $67 forward single #
loop $-1 $68 $69 $28 #
cone-surface $-1 53.669724378951855 28.344730967959421 11.906009108557065 -0.70710678939079041 0 -0.70710677298230451 0.70710677298230451 0 -0.70710678939079041 1 I I 0 1 1 forward I I I I #
face $-1 $70 $71 $23 $-1 $72 forward single #
loop $-1 $73 $74 $29 #
cone-surface $-1 53.669724378951855 32.588749541951394 11.906009108557065 -0.70710678939079041 0 -0.70710677298230451 0.70710677298230451 0 -0.70710678939079041 1 I I 0 1 1 forward I I I I #
face $-1 $75 $76 $18 $-1 $77 reversed single #
loop $-1 $-1 $78 $30 #
plane-surface $-1 0 0 -15.612303307510459 0 0 1 1 0 0 forward_v I I I I #
coedge $-1 $79 $80 $81 $82 forward $31 $-1 #
face $-1 $83 $84 $19 $-1 $85 reversed single #
loop $-1 $-1 $86 $33 #
plane-surface $-1 0 0 -15.612303307510459 0 0 1 1 0 0 forward_v I I I I #
coedge $-1 $87 $88 $89 $90 forward $34 $-1 #
face $-1 $91 $92 $20 $-1 $93 forward single #
loop $-1 $-1 $94 $36 #
plane-surface $-1 -23.765924099102861 28.344730967959414 92.071811925797022 0.70710678939079041 0 0.70710677298230451 0.70710677298230451 0 -0.70710678939079041 forward_v I I I I #
coedge $-1 $95 $96 $97 $98 reversed $37 $-1 #
face $-1 $-1 $99 $21 $-1 $100 forward single #
loop $-1 $101 $102 $39 #
cone-surface $-1 51.951094713114969 24.100712393967449 10.187379482601159 -0.70710678939079041 0 -0.70710677298230451 0.35355338649115226 0 -0.35355339469539521 1 I I -0.70710678118654746 0.70710678118654746 0.5 forward I I I I #
loop $-1 $-1 $103 $27 #
coedge $-1 $64 $64 $104 $105 reversed $40 $-1 #
face $-1 $-1 $106 $22 $-1 $107 forward single #
loop $-1 $108 $109 $42 #
cone-surface $-1 51.951094713114969 28.344730967959421 10.187379482601159 -0.70710678939079041 0 -0.70710677298230451 0.35355338649115226 0 -0.35355339469539521 1 I I -0.70710678118654746 0.70710678118654746 0.5 forward I I I I #
loop $-1 $-1 $110 $28 #
coedge $-1 $69 $69 $111 $112 reversed $43 $-1 #
face $-1 $-1 $113 $23 $-1 $114 forward single #
loop $-1 $115 $116 $45 #
cone-surface $-1 51.951094713114969 32.588749541951394 10.187379482601159 -0.70710678939079041 0 -0.70710677298230451 0.35355338649115226 0 -0.35355339469539521 1 I I -0.70710678118654746 0.70710678118654746 0.5 forward I I I I #
loop $-1 $-1 $117 $29 #
coedge $-1 $74 $74 $118 $119 reversed $46 $-1 #
face $-1 $120 $121 $18 $-1 $122 reversed single #
loop $-1 $-1 $123 $48 #
plane-surface $-1 0 -35.418095257946042 0 0 1 0 0 0 1 forward_v I I I I #
coedge $-1 $124 $125 $126 $127 forward $49 $-1 #
coedge $-1 $128 $51 $129 $130 forward $31 $-1 #
coedge $-1 $51 $128 $131 $132 forward $31 $-1 #
coedge $-1 $133 $134 $51 $82 reversed $135 $-1 #
edge $-1 $136 -35.418095257946042 $137 35.418095257946042 $81 $138 forward 7 unknown #
face $-1 $139 $140 $19 $-1 $141 forward single #
loop $-1 $-1 $142 $52 #
plane-surface $-1 57.376018555253765 0 0 -1 0 0 0 0 1 forward_v I I I I #
coedge $-1 $143 $144 $145 $146 forward $53 $-1 #
coedge $-1 $145 $55 $142 $147 reversed $34 $-1 #
coedge $-1 $55 $145 $148 $149 reversed $34 $-1 #
coedge $-1 $150 $151 $55 $90 reversed $140 $-1 #
edge $-1 $152 -57.376018555253765 $153 57.376018555253765 $89 $154 forward 7 unknown #
face $-1 $155 $156 $20 $-1 $157 reversed single #
loop $-1 $-1 $158 $56 #
plane-surface $-1 0 0 15.612303307510459 0 0 1 1 0 0 forward_v I I I I #
coedge $-1 $159 $160 $161 $162 reversed $57 $-1 #
coedge $-1 $96 $59 $163 $164 reversed $37 $-1 #
coedge $-1 $59 $95 $159 $165 reversed $37 $-1 #
coedge $-1 $161 $166 $59 $98 forward $167 $-1 #
edge $-1 $168 70.994573982566365 $169 75.677009901543613 $97 $170 forward 7 unknown #
loop $-1 $-1 $104 $60 #
plane-surface $-1 -23.765924099102861 28.344730967959414 92.071811925797022 0.70710678939079041 0 0.70710677298230451 0.70710677298230451 0 -0.70710678939079041 forward_v I I I I #
loop $-1 $-1 $171 $39 #
coedge $-1 $102 $102 $103 $172 reversed $61 $-1 #
coedge $-1 $103 $103 $102 $172 forward $63 $-1 #
coedge $-1 $104 $104 $64 $105 forward $99 $-1 #
edge $-1 $173 0 $173 6.2831853071796004 $104 $174 forward 7 unknown #
loop $-1 $-1 $111 $65 #
plane-surface $-1 -23.765924099102861 28.344730967959414 92.071811925797022 0.70710678939079041 0 0.70710677298230451 0.70710677298230451 0 -0.70710678939079041 forward_v I I I I #
loop $-1 $-1 $175 $42 #
coedge $-1 $109 $109 $110 $176 reversed $66 $-1 #
coedge $-1 $110 $110 $109 $176 forward $68 $-1 #
coedge $-1 $111 $111 $69 $112 forward $106 $-1 #
edge $-1 $177 0 $177 6.2831853071796004 $111 $178 forward 7 unknown #
loop $-1 $-1 $118 $70 #
plane-surface $-1 -23.765924099102861 28.344730967959414 92.071811925797022 0.70710678939079041 0 0.70710677298230451 0.70710677298230451 0 -0.70710678939079041 forward_v I I I I #
loop $-1 $-1 $179 $45 #
coedge $-1 $116 $116 $117 $180 reversed $71 $-1 #
coedge $-1 $117 $117 $116 $180 forward $73 $-1 #
coedge $-1 $118 $118 $74 $119 forward $113 $-1 #
edge $-1 $181 0 $181 6.2831853071796004 $118 $182 forward 7 unknown #
face $-1 $183 $184 $18 $-1 $185 reversed single #
loop $-1 $-1 $186 $75 #
plane-surface $-1 -57.376018555253765 0 0 1 0 0 0 0 -1 forward_v I I I I #
coedge $-1 $131 $187 $133 $188 reversed $76 $-1 #
coedge $-1 $189 $78 $187 $190 forward $49 $-1 #
coedge $-1 $78 $189 $191 $192 forward $49 $-1 #
coedge $-1 $134 $133 $78 $127 reversed $135 $-1 #
edge $-1 $193 -35.418095257946042 $194 35.418095257946042 $126 $195 forward 7 unknown #
coedge $-1 $80 $79 $196 $197 forward $31 $-1 #
coedge $-1 $198 $199 $79 $130 reversed $184 $-1 #
edge $-1 $137 -57.376018555253765 $200 57.376018555253765 $129 $201 forward 7 unknown #
coedge $-1 $202 $123 $80 $132 reversed $76 $-1 #
edge $-1 $203 -57.376018555253765 $136 57.376018555253765 $131 $204 forward 7 unknown #
coedge $-1 $126 $81 $123 $188 forward $135 $-1 #
coedge $-1 $81 $126 $198 $205 reversed $135 $-1 #
loop $-1 $-1 $133 $183 #
vertex $-1 $82 $206 #
vertex $-1 $82 $207 #
straight-curve $-1 57.376018555253765 0 15.612303307510459 0 1 0 I I #
face $-1 $208 $209 $19 $-1 $210 reversed single #
loop $-1 $-1 $151 $83 #
plane-surface $-1 0 -42.749092961891563 -12.184333784019913 0 0 1 1 0 0 forward_v I I I I #
coedge $-1 $211 $212 $87 $147 forward $84 $-1 #
coedge $-1 $213 $86 $212 $214 forward $53 $-1 #
coedge $-1 $86 $213 $215 $216 forward $53 $-1 #
coedge $-1 $88 $87 $86 $146 reversed $34 $-1 #
edge $-1 $217 -57.376018555253765 $218 57.376018555253765 $86 $219 forward 7 unknown #
edge $-1 $218 -15.612303307510459 $153 -12.184333784019913 $142 $220 forward 7 unknown #
coedge $-1 $215 $221 $88 $149 forward $222 $-1 #
edge $-1 $152 12.184333784019913 $217 15.612303307510459 $148 $223 forward 7 unknown #
coedge $-1 $224 $89 $221 $225 forward $140 $-1 #
coedge $-1 $89 $224 $211 $226 forward $140 $-1 #
vertex $-1 $149 $227 #
vertex $-1 $226 $228 #
straight-curve $-1 0 -35.418095257946042 -12.184333784019913 1 0 0 I I #
face $-1 $-1 $167 $20 $-1 $229 reversed single #
loop $-1 $-1 $230 $91 #
plane-surface $-1 0 35.418095257946042 0 0 -1 0 0 0 -1 forward_v I I I I #
coedge $-1 $163 $231 $232 $233 forward $92 $-1 #
coedge $-1 $232 $94 $96 $165 forward $57 $-1 #
coedge $-1 $94 $232 $230 $234 reversed $57 $-1 #
coedge $-1 $235 $97 $94 $162 forward $167 $-1 #
edge $-1 $169 7.099001193993093 $236 21.245729773966335 $161 $237 forward 7 unknown #
coedge $-1 $238 $158 $95 $164 forward $92 $-1 #
edge $-1 $239 24.005572525852457 $168 28.688008336173297 $163 $240 forward 7 unknown #
edge $-1 $169 -114.75203711050754 $239 -108.13007280577868 $96 $241 forward 7 unknown #
coedge $-1 $97 $235 $238 $242 reversed $167 $-1 #
loop $-1 $-1 $161 $155 #
vertex $-1 $242 $243 #
vertex $-1 $98 $244 #
straight-curve $-1 57.376018555253765 21.2713666779728 86.606877290076824 0 0 -1 I I #
coedge $-1 $171 $171 $-1 $245 reversed $101 $-1 #
edge $-1 $246 0 $246 6.2831853071796004 $102 $247 forward 7 unknown #
vertex $-1 $105 $248 #
ellipse-curve $-1 55.034800650093352 24.100712393967449 13.271085348021826 0.70710678939079041 0 0.70710677298230451 0.70710677298230451 0 -0.70710678939079041 1 I I #
coedge $-1 $175 $175 $-1 $249 reversed $108 $-1 #
edge $-1 $250 0 $250 6.2831853071796004 $109 $251 forward 7 unknown #
vertex $-1 $112 $252 #
ellipse-curve $-1 55.034800650093352 28.344730967959421 13.271085348021826 0.70710678939079041 0 0.70710677298230451 0.70710677298230451 0 -0.70710678939079041 1 I I #
coedge $-1 $179 $179 $-1 $253 reversed $115 $-1 #
edge $-1 $254 0 $254 6.2831853071796004 $116 $255 forward 7 unknown #
vertex $-1 $119 $256 #
ellipse-curve $-1 55.034800650093352 32.588749541951394 13.271085348021826 0.70710678939079041 0 0.70710677298230451 0.70710677298230451 0 -0.70710678939079041 1 I I #
face $-1 $-1 $135 $18 $-1 $257 reversed single #
loop $-1 $-1 $198 $120 #
plane-surface $-1 0 35.418095257946042 0 0 -1 0 0 0 -1 forward_v I I I I #
coedge $-1 $258 $196 $199 $259 forward $121 $-1 #
coedge $-1 $123 $202 $124 $190 reversed $76 $-1 #
edge $-1 $136 -15.612303307510459 $194 15.612303307510459 $133 $260 forward 7 unknown #
coedge $-1 $125 $124 $258 $261 forward $49 $-1 #
edge $-1 $194 -57.376018555253765 $262 57.376018555253765 $187 $263 forward 7 unknown #
coedge $-1 $199 $198 $125 $192 reversed $184 $-1 #
edge $-1 $264 -57.376018555253765 $193 57.376018555253765 $191 $265 forward 7 unknown #
vertex $-1 $127 $266 #
vertex $-1 $188 $267 #
straight-curve $-1 57.376018555253765 0 -15.612303307510459 0 -1 0 I I #
coedge $-1 $186 $268 $128 $197 reversed $121 $-1 #
edge $-1 $200 -35.418095257946042 $203 35.418095257946042 $196 $269 forward 7 unknown #
coedge $-1 $191 $129 $134 $205 forward $184 $-1 #
coedge $-1 $129 $191 $186 $259 reversed $184 $-1 #
vertex $-1 $130 $270 #
straight-curve $-1 0 35.418095257946042 15.612303307510459 -1 0 0 I I #
coedge $-1 $187 $131 $268 $271 forward $76 $-1 #
vertex $-1 $197 $272 #
straight-curve $-1 0 -35.418095257946042 15.612303307510459 1 0 0 I I #
edge $-1 $137 -15.612303307510459 $193 15.612303307510459 $134 $273 forward 7 unknown #
point $-1 57.376018555253765 -35.418095257946042 15.612303307510459 #
point $-1 57.376018555253765 35.418095257946042 15.612303307510459 #
face $-1 $-1 $222 $19 $-1 $274 reversed single #
loop $-1 $-1 $275 $139 #
plane-surface $-1 0 -50.080090665837083 -13.898318545765186 0 1 0 0 0 1 forward_v I I I I #
coedge $-1 $276 $142 $151 $226 reversed $84 $-1 #
coedge $-1 $142 $276 $143 $214 reversed $84 $-1 #
coedge $-1 $144 $143 $277 $278 forward $53 $-1 #
edge $-1 $218 35.418095257946042 $279 50.080090665837083 $212 $280 forward 7 unknown #
coedge $-1 $281 $148 $144 $216 reversed $222 $-1 #
edge $-1 $282 -50.080090665837083 $217 -35.418095257946042 $215 $283 forward 7 unknown #
vertex $-1 $149 $284 #
vertex $-1 $214 $285 #
straight-curve $-1 0 -35.418095257946042 -15.612303307510459 1 0 0 I I #
straight-curve $-1 57.376018555253765 -35.418095257946042 0 0 0 1 I I #
coedge $-1 $148 $281 $150 $225 reversed $222 $-1 #
loop $-1 $-1 $148 $208 #
straight-curve $-1 -57.376018555253765 -35.418095257946042 0 0 0 -1 I I #
coedge $-1 $151 $150 $286 $287 forward $140 $-1 #
edge $-1 $152 -7.3309977039455205 $288 7.3309977039455205 $221 $289 forward 7 unknown #
edge $-1 $290 -7.3309977039455205 $153 7.3309977039455205 $211 $291 forward 7 unknown #
point $-1 -57.376018555253765 -35.418095257946042 -12.184333784019913 #
point $-1 57.376018555253765 -35.418095257946042 -12.184333784019913 #
plane-surface $-1 57.376018555253765 0 0 -1 0 0 0 0 1 forward_v I I I I #
coedge $-1 $292 $293 $160 $234 forward $156 $-1 #
coedge $-1 $158 $238 $292 $294 forward $92 $-1 #
coedge $-1 $160 $159 $158 $233 reversed $57 $-1 #
edge $-1 $295 -21.245729773966321 $239 -7.099001193993093 $158 $296 forward 7 unknown #
edge $-1 $236 -73.797212500056517 $295 -67.175248195327654 $230 $297 forward 7 unknown #
coedge $-1 $166 $161 $293 $298 reversed $167 $-1 #
vertex $-1 $162 $299 #
straight-curve $-1 57.376018555253765 14.172365483979707 10.929867388533211 0 1 0 I I #
coedge $-1 $231 $163 $166 $242 forward $92 $-1 #
vertex $-1 $164 $300 #
straight-curve $-1 28.688010219080468 21.2713666779728 15.612303307510459 1 0 0 I I #
straight-curve $-1 -23.765924099102861 21.2713666779728 92.071811925797022 -0.70710677298230451 0 0.70710678939079041 I I #
edge $-1 $168 21.2713666779728 $301 35.418095257946042 $166 $302 forward 7 unknown #
point $-1 57.376018555253765 21.2713666779728 15.612303307510459 #
point $-1 57.376018555253765 21.2713666779728 10.929867388533211 #
edge $-1 $303 1 $303 0 $171 $-1 forward 7 unknown #
vertex $-1 $172 $304 #
ellipse-curve $-1 52.304648107810365 24.100712393967449 10.540932869092311 0.70710678939079041 0 0.70710677298230451 0.70710677298230451 0 -0.70710678939079041 1 I I #
point $-1 55.741907423075652 24.100712393967449 12.56397855863103 #
edge $-1 $305 1 $305 0 $175 $-1 forward 7 unknown #
vertex $-1 $176 $306 #
ellipse-curve $-1 52.304648107810365 28.344730967959421 10.540932869092311 0.70710678939079041 0 0.70710677298230451 0.70710677298230451 0 -0.70710678939079041 1 I I #
point $-1 55.741907423075652 28.344730967959421 12.56397855863103 #
edge $-1 $307 1 $307 0 $179 $-1 forward 7 unknown #
vertex $-1 $180 $308 #
ellipse-curve $-1 52.304648107810365 32.588749541951394 10.540932869092311 0.70710678939079041 0 0.70710677298230451 0.70710677298230451 0 -0.70710678939079041 1 I I #
point $-1 55.741907423075652 32.588749541951394 12.56397855863103 #
plane-surface $-1 57.376018555253765 0 0 -1 0 0 0 0 1 forward_v I I I I #
coedge $-1 $268 $186 $189 $261 reversed $121 $-1 #
edge $-1 $200 -15.612303307510459 $264 15.612303307510459 $199 $309 forward 7 unknown #
straight-curve $-1 57.376018555253765 -35.418095257946042 0 0 0 -1 I I #
edge $-1 $262 -35.418095257946042 $264 35.418095257946042 $258 $310 forward 7 unknown #
vertex $-1 $261 $311 #
straight-curve $-1 0 -35.418095257946042 -15.612303307510459 -1 0 0 I I #
vertex $-1 $192 $312 #
straight-curve $-1 0 35.418095257946042 -15.612303307510459 1 0 0 I I #
point $-1 57.376018555253765 35.418095257946042 -15.612303307510459 #
point $-1 57.376018555253765 -35.418095257946042 -15.612303307510459 #
coedge $-1 $196 $258 $202 $271 reversed $121 $-1 #
straight-curve $-1 -57.376018555253765 0 15.612303307510459 0 -1 0 I I #
point $-1 -57.376018555253765 35.418095257946042 15.612303307510459 #
edge $-1 $203 -15.612303307510459 $262 15.612303307510459 $268 $313 forward 7 unknown #
point $-1 -57.376018555253765 -35.418095257946042 15.612303307510459 #
straight-curve $-1 57.376018555253765 35.418095257946042 0 0 0 -1 I I #
plane-surface $-1 -57.376018555253765 0 0 1 0 0 0 0 -1 forward_v I I I I #
coedge $-1 $277 $286 $281 $314 forward $209 $-1 #
coedge $-1 $212 $211 $315 $316 forward $84 $-1 #
coedge $-1 $315 $275 $213 $278 reversed $209 $-1 #
edge $-1 $279 -57.376018555253765 $282 57.376018555253765 $277 $317 forward 7 unknown #
vertex $-1 $316 $318 #
straight-curve $-1 57.376018555253765 0 -15.612303307510459 0 -1 0 I I #
coedge $-1 $221 $215 $275 $314 reversed $222 $-1 #
vertex $-1 $216 $319 #
straight-curve $-1 -57.376018555253765 0 -15.612303307510459 0 1 0 I I #
point $-1 -57.376018555253765 -35.418095257946042 -15.612303307510459 #
point $-1 57.376018555253765 -35.418095257946042 -15.612303307510459 #
coedge $-1 $275 $315 $224 $287 reversed $209 $-1 #
edge $-1 $288 -57.376018555253765 $290 57.376018555253765 $286 $320 forward 7 unknown #
vertex $-1 $225 $321 #
straight-curve $-1 -57.376018555253765 -42.749092961891563 -12.184333784019913 0 -1 0 I I #
vertex $-1 $226 $322 #
straight-curve $-1 57.376018555253765 -42.749092961891563 -12.184333784019913 0 1 0 I I #
coedge $-1 $293 $230 $231 $294 reversed $156 $-1 #
coedge $-1 $230 $292 $235 $298 forward $156 $-1 #
edge $-1 $301 -57.376018555253765 $295 -52.693582744932925 $292 $323 forward 7 unknown #
vertex $-1 $233 $324 #
straight-curve $-1 52.693582744932925 14.172365483979707 15.612303307510452 0 -1 0 I I #
straight-curve $-1 5.1935097692494239 35.418095257946042 63.11237738543808 -0.70710677298230462 0 0.70710678939079052 I I #
edge $-1 $301 -15.612303307510459 $236 -10.929867388533218 $235 $325 forward 7 unknown #
point $-1 57.376018555253765 35.418095257946042 10.929867388533218 #
point $-1 52.693582744932925 21.2713666779728 15.612303307510459 #
vertex $-1 $242 $326 #
straight-curve $-1 57.376018555253765 0 15.612303307510459 0 1 0 I I #
vertex $-1 $245 $327 #
point $-1 53.011754880792665 24.100712393967449 9.8338260797015202 #
vertex $-1 $249 $328 #
point $-1 53.011754880792665 28.344730967959421 9.8338260797015202 #
vertex $-1 $253 $329 #
point $-1 53.011754880792665 32.588749541951394 9.8338260797015202 #
straight-curve $-1 -57.376018555253765 35.418095257946042 0 0 0 -1 I I #
straight-curve $-1 -57.376018555253765 0 -15.612303307510459 0 1 0 I I #
point $-1 -57.376018555253765 -35.418095257946042 -15.612303307510459 #
point $-1 -57.376018555253765 35.418095257946042 -15.612303307510459 #
straight-curve $-1 -57.376018555253765 -35.418095257946042 0 0 0 -1 I I #
edge $-1 $288 -1.713984761745273 $282 1.713984761745273 $281 $330 forward 7 unknown #
coedge $-1 $286 $277 $276 $316 reversed $209 $-1 #
edge $-1 $290 -1.713984761745273 $279 1.713984761745273 $276 $331 forward 7 unknown #
straight-curve $-1 0 -50.080090665837083 -15.612303307510459 -1 0 0 I I #
point $-1 57.376018555253765 -50.080090665837083 -15.612303307510459 #
point $-1 -57.376018555253765 -50.080090665837083 -15.612303307510459 #
straight-curve $-1 0 -50.080090665837083 -12.184333784019913 1 0 0 I I #
point $-1 -57.376018555253765 -50.080090665837083 -12.184333784019913 #
point $-1 57.376018555253765 -50.080090665837083 -12.184333784019913 #
straight-curve $-1 0 35.418095257946042 15.612303307510459 -1 0 0 I I #
point $-1 52.693582744932925 35.418095257946028 15.612303307510459 #
straight-curve $-1 57.376018555253765 35.418095257946042 0 0 0 -1 I I #
point $-1 57.376018555253765 35.418095257946042 15.612303307510459 #
point $-1 51.597541318419573 24.100712393967449 9.8338260961100072 #
point $-1 51.597541318419573 28.344730967959421 9.8338260961100072 #
point $-1 51.597541318419573 32.588749541951394 9.8338260961100072 #
straight-curve $-1 -57.376018555253765 -50.080090665837083 -13.898318545765186 0 0 -1 I I #
straight-curve $-1 57.376018555253765 -50.080090665837083 -13.898318545765186 0 0 -1 I I #
End-of-ACIS-data 