500 0 8 0           
7 Unknown 11 ACIS 5.0 NT 24 Fri Mar 26 02:17:50 1999 
-1 9.9999999999999995e-007 1e-010 
body $-1 $8 $-1 $9 #
body $-1 $10 $-1 $11 #
body $-1 $12 $-1 $13 #
body $-1 $14 $-1 $15 #
body $-1 $16 $-1 $17 #
body $-1 $18 $-1 $19 #
body $-1 $20 $-1 $21 #
body $-1 $22 $-1 $23 #
lump $-1 $-1 $24 $0 #
transform $-1 1 0 0 0 1 0 0 0 1 49.863582262642296 31.281952648206431 7.5449201933054679 1 rotate no_reflect no_shear #
lump $-1 $-1 $25 $1 #
transform $-1 1 0 0 0 1 0 0 0 1 49.863582262642296 31.281952648206431 7.5449201933054679 1 rotate no_reflect no_shear #
lump $-1 $-1 $26 $2 #
transform $-1 1 0 0 0 1 0 0 0 1 49.863582262642296 31.281952648206431 7.5449201933054679 1 rotate no_reflect no_shear #
lump $-1 $-1 $27 $3 #
transform $-1 1 0 0 0 1 0 0 0 1 49.863582262642296 31.281952648206431 7.5449201933054679 1 rotate no_reflect no_shear #
lump $-1 $-1 $28 $4 #
transform $-1 1 0 0 0 1 0 0 0 1 49.863582262642296 31.281952648206431 7.5449201933054679 1 rotate no_reflect no_shear #
lump $-1 $-1 $29 $5 #
transform $-1 1 0 0 0 1 0 0 0 1 49.863582262642296 31.281952648206431 7.5449201933054679 1 rotate no_reflect no_shear #
lump $-1 $-1 $30 $6 #
transform $-1 1 0 0 0 1 0 0 0 1 49.863582262642296 31.281952648206431 7.5449201933054679 1 rotate no_reflect no_shear #
lump $-1 $-1 $31 $7 #
transform $-1 1 0 0 0 1 0 0 0 1 49.863582262642296 31.281952648206431 7.5449201933054679 1 rotate no_reflect no_shear #
shell $-1 $-1 $-1 $32 $-1 $8 #
shell $-1 $-1 $-1 $33 $-1 $10 #
shell $-1 $-1 $-1 $34 $-1 $12 #
shell $-1 $-1 $-1 $35 $-1 $14 #
shell $-1 $-1 $-1 $36 $-1 $16 #
shell $-1 $-1 $-1 $37 $-1 $18 #
shell $-1 $-1 $-1 $38 $-1 $20 #
shell $-1 $-1 $-1 $39 $-1 $22 #
face $-1 $40 $41 $24 $-1 $42 forward single #
face $-1 $43 $44 $25 $-1 $45 forward single #
face $-1 $46 $47 $26 $-1 $48 reversed single #
face $-1 $49 $50 $27 $-1 $51 forward single #
face $-1 $52 $53 $28 $-1 $54 reversed single #
face $-1 $55 $56 $29 $-1 $57 forward single #
face $-1 $58 $59 $30 $-1 $60 reversed single #
face $-1 $61 $62 $31 $-1 $63 forward single #
face $-1 $64 $65 $24 $-1 $66 reversed single #
loop $-1 $-1 $67 $32 #
plane-surface $-1 0 0 7.5449201933054679 0 0 1 1 0 0 forward_v I I I I #
face $-1 $68 $69 $25 $-1 $70 reversed single #
loop $-1 $-1 $71 $33 #
plane-surface $-1 0 -27.059806834475054 -3.6560037096166593 0 0 1 1 0 0 forward_v I I I I #
face $-1 $72 $73 $26 $-1 $74 reversed single #
loop $-1 $-1 $75 $34 #
plane-surface $-1 -112.62392121931637 -22.837661020743678 78.919564532198052 0 1 0 -0.62932039886446345 0 0.77714595512881146 forward_v I I I I #
face $-1 $76 $77 $27 $-1 $78 forward single #
loop $-1 $79 $80 $35 #
cone-surface $-1 -44.354236799376501 -17.749843051844223 2.3499347245748967 0.62932039886446345 0 -0.77714595512881146 1.5542919102576229 0 1.2586407977289269 1 I I 0 1 2 forward I I I I #
face $-1 $81 $82 $28 $-1 $83 reversed single #
loop $-1 $-1 $84 $36 #
plane-surface $-1 86.366260033771738 -13.610099953355725 140.49929329622131 0 -1 0 -0.86602541151947299 0 -0.49999998660252726 forward_v I I I I #
face $-1 $85 $86 $29 $-1 $87 forward single #
loop $-1 $88 $89 $37 #
cone-surface $-1 48.307917730280764 -18.223880487049698 5.5549346760875924 -0.86602541151947299 0 -0.49999998660252726 0.24999999330126363 0 -0.43301270575973649 1 I I 0 1 0.5 forward I I I I #
face $-1 $90 $91 $30 $-1 $92 reversed single #
loop $-1 $-1 $93 $38 #
plane-surface $-1 86.366260033771738 13.449706881119329 140.49929329622131 0 -1 0 -0.86602541151947299 0 -0.49999998660252726 forward_v I I I I #
face $-1 $94 $95 $31 $-1 $96 forward single #
loop $-1 $97 $98 $39 #
cone-surface $-1 48.307917730280764 8.8359263474253531 5.5549346760875924 -0.86602541151947299 0 -0.49999998660252726 0.24999999330126363 0 -0.43301270575973649 1 I I 0 1 0.5 forward I I I I #
face $-1 $99 $100 $24 $-1 $101 reversed single #
loop $-1 $-1 $102 $40 #
plane-surface $-1 0 0 -7.5449201933054679 0 0 1 1 0 0 forward_v I I I I #
coedge $-1 $103 $104 $105 $106 forward $41 $-1 #
face $-1 $107 $108 $25 $-1 $109 reversed single #
loop $-1 $-1 $110 $43 #
plane-surface $-1 0 -27.059806834475054 -7.0449201933054688 0 0 1 1 0 0 forward_v I I I I #
coedge $-1 $111 $112 $113 $114 reversed $44 $-1 #
face $-1 $115 $116 $26 $-1 $117 reversed single #
loop $-1 $-1 $118 $46 #
plane-surface $-1 -49.863582262642304 -17.749843051844223 1.41700200490763 -0.62932039886446345 0 0.77714595512881146 0.77714595512881146 0 0.62932039886446345 forward_v I I I I #
coedge $-1 $119 $120 $121 $122 reversed $47 $-1 #
face $-1 $-1 $123 $27 $-1 $124 forward single #
loop $-1 $125 $126 $49 #
cone-surface $-1 -41.999245232618399 -17.749843051844223 -0.55823760508557285 0.62932039886446345 0 -0.77714595512881146 0.77714595512881146 0 0.62932039886446345 1 I I -0.70710678118654746 0.70710678118654746 1 forward I I I I #
loop $-1 $-1 $127 $35 #
coedge $-1 $80 $80 $128 $129 reversed $50 $-1 #
face $-1 $130 $131 $28 $-1 $132 reversed single #
loop $-1 $-1 $133 $52 #
plane-surface $-1 1.33609195529516e-006 -18.223880487049701 90.635712369670983 0.86602541151947299 0 0.49999998660252726 0.49999998660252726 0 -0.86602541151947299 forward_v I I I I #
coedge $-1 $134 $135 $136 $137 reversed $53 $-1 #
face $-1 $-1 $138 $29 $-1 $139 forward single #
loop $-1 $140 $141 $55 #
cone-surface $-1 47.481292550159424 -18.223880487049698 5.0776824228762125 -0.86602541151947299 0 -0.49999998660252726 0.12499999665063181 0 -0.21650635287986825 1 I I -0.70710678118654746 0.70710678118654746 0.25 forward I I I I #
loop $-1 $-1 $142 $37 #
coedge $-1 $89 $89 $143 $144 reversed $56 $-1 #
face $-1 $145 $146 $30 $-1 $147 reversed single #
loop $-1 $-1 $148 $58 #
plane-surface $-1 1.33609195529516e-006 8.8359263474253531 90.635712369670983 0.86602541151947299 0 0.49999998660252726 0.49999998660252726 0 -0.86602541151947299 forward_v I I I I #
coedge $-1 $149 $150 $151 $152 reversed $59 $-1 #
face $-1 $-1 $153 $31 $-1 $154 forward single #
loop $-1 $155 $156 $61 #
cone-surface $-1 47.481292550159424 8.8359263474253531 5.0776824228762125 -0.86602541151947299 0 -0.49999998660252726 0.12499999665063181 0 -0.21650635287986825 1 I I -0.70710678118654746 0.70710678118654746 0.25 forward I I I I #
loop $-1 $-1 $157 $39 #
coedge $-1 $98 $98 $158 $159 reversed $62 $-1 #
face $-1 $160 $161 $24 $-1 $162 reversed single #
loop $-1 $-1 $163 $64 #
plane-surface $-1 0 -31.281952648206431 0 0 1 0 0 0 1 forward_v I I I I #
coedge $-1 $164 $165 $166 $167 forward $65 $-1 #
coedge $-1 $168 $67 $169 $170 forward $41 $-1 #
coedge $-1 $67 $168 $171 $172 forward $41 $-1 #
coedge $-1 $173 $174 $67 $106 reversed $175 $-1 #
edge $-1 $176 -31.281952648206431 $177 31.281952648206431 $105 $178 forward 7 unknown #
face $-1 $179 $180 $25 $-1 $181 reversed single #
loop $-1 $-1 $182 $68 #
plane-surface $-1 0 -22.837661020743678 -5.3504619514610638 0 -1 0 0 0 -1 forward_v I I I I #
coedge $-1 $183 $184 $185 $186 reversed $69 $-1 #
coedge $-1 $187 $71 $188 $189 forward $44 $-1 #
coedge $-1 $71 $187 $190 $191 reversed $44 $-1 #
coedge $-1 $192 $193 $71 $114 forward $194 $-1 #
edge $-1 $195 9.3077576035061504 $196 17.752049230968904 $113 $197 forward 7 unknown #
face $-1 $198 $199 $26 $-1 $200 reversed single #
loop $-1 $-1 $201 $72 #
plane-surface $-1 -112.62392121931637 -12.662025082944769 78.919564532198052 0 -1 0 0.62932039886446345 0 -0.77714595512881146 forward_v I I I I #
coedge $-1 $202 $203 $204 $205 reversed $73 $-1 #
coedge $-1 $120 $75 $206 $207 reversed $47 $-1 #
coedge $-1 $75 $119 $202 $208 reversed $47 $-1 #
coedge $-1 $204 $209 $75 $122 forward $210 $-1 #
edge $-1 $211 6.4483783470158897 $212 14.015726937760206 $121 $213 forward 7 unknown #
loop $-1 $-1 $128 $76 #
plane-surface $-1 -49.863582262642304 -17.749843051844223 1.41700200490763 -0.62932039886446345 0 0.77714595512881146 0.77714595512881146 0 0.62932039886446345 forward_v I I I I #
loop $-1 $-1 $214 $49 #
coedge $-1 $126 $126 $127 $215 reversed $77 $-1 #
coedge $-1 $127 $127 $126 $215 forward $79 $-1 #
coedge $-1 $128 $128 $80 $129 forward $123 $-1 #
edge $-1 $216 0 $216 6.2831853071796004 $128 $217 forward 7 unknown #
face $-1 $218 $219 $28 $-1 $220 forward single #
loop $-1 $-1 $221 $81 #
plane-surface $-1 86.366260033771738 -22.837661020743678 140.49929329622131 0 1 0 0.86602541151947299 0 0.49999998660252726 forward_v I I I I #
coedge $-1 $222 $223 $224 $225 reversed $82 $-1 #
coedge $-1 $135 $84 $226 $227 reversed $53 $-1 #
coedge $-1 $84 $134 $222 $228 reversed $53 $-1 #
coedge $-1 $224 $229 $84 $137 forward $219 $-1 #
edge $-1 $230 -6.6804522457564275 $231 -4.7893608355162698 $136 $232 forward 7 unknown #
loop $-1 $-1 $143 $85 #
plane-surface $-1 1.33609195529516e-006 -18.223880487049701 90.635712369670983 0.86602541151947299 0 0.49999998660252726 0.49999998660252726 0 -0.86602541151947299 forward_v I I I I #
loop $-1 $-1 $233 $55 #
coedge $-1 $141 $141 $142 $234 reversed $86 $-1 #
coedge $-1 $142 $142 $141 $234 forward $88 $-1 #
coedge $-1 $143 $143 $89 $144 forward $138 $-1 #
edge $-1 $235 0 $235 6.2831853071796004 $143 $236 forward 7 unknown #
face $-1 $237 $238 $30 $-1 $239 reversed single #
loop $-1 $-1 $240 $90 #
plane-surface $-1 86.366260033771738 4.2221458137313777 140.49929329622131 0 1 0 0.86602541151947299 0 0.49999998660252726 forward_v I I I I #
coedge $-1 $241 $242 $243 $244 reversed $91 $-1 #
coedge $-1 $150 $93 $245 $246 reversed $59 $-1 #
coedge $-1 $93 $149 $241 $247 reversed $59 $-1 #
coedge $-1 $243 $248 $93 $152 forward $249 $-1 #
edge $-1 $250 -6.6804522457564275 $251 -4.7893608355162698 $151 $252 forward 7 unknown #
loop $-1 $-1 $158 $94 #
plane-surface $-1 1.33609195529516e-006 8.8359263474253531 90.635712369670983 0.86602541151947299 0 0.49999998660252726 0.49999998660252726 0 -0.86602541151947299 forward_v I I I I #
loop $-1 $-1 $253 $61 #
coedge $-1 $156 $156 $157 $254 reversed $95 $-1 #
coedge $-1 $157 $157 $156 $254 forward $97 $-1 #
coedge $-1 $158 $158 $98 $159 forward $153 $-1 #
edge $-1 $255 0 $255 6.2831853071796004 $158 $256 forward 7 unknown #
face $-1 $257 $258 $24 $-1 $259 reversed single #
loop $-1 $-1 $260 $99 #
plane-surface $-1 -49.863582262642296 0 0 1 0 0 0 0 -1 forward_v I I I I #
coedge $-1 $261 $171 $262 $263 forward $100 $-1 #
coedge $-1 $264 $102 $261 $265 forward $65 $-1 #
coedge $-1 $102 $264 $266 $267 forward $65 $-1 #
coedge $-1 $174 $173 $102 $167 reversed $175 $-1 #
edge $-1 $268 -31.281952648206431 $269 31.281952648206431 $166 $270 forward 7 unknown #
coedge $-1 $104 $103 $271 $272 forward $41 $-1 #
coedge $-1 $273 $274 $103 $170 reversed $258 $-1 #
edge $-1 $177 -49.863582262642296 $275 49.863582262642296 $169 $276 forward 7 unknown #
coedge $-1 $163 $277 $104 $172 reversed $100 $-1 #
edge $-1 $278 -49.863582262642296 $176 49.863582262642296 $171 $279 forward 7 unknown #
coedge $-1 $166 $105 $277 $280 forward $175 $-1 #
coedge $-1 $105 $166 $273 $281 reversed $175 $-1 #
loop $-1 $-1 $173 $257 #
vertex $-1 $106 $282 #
vertex $-1 $106 $283 #
straight-curve $-1 49.863582262642296 0 7.5449201933054679 0 1 0 I I #
face $-1 $284 $285 $25 $-1 $286 reversed single #
loop $-1 $-1 $287 $107 #
plane-surface $-1 -49.863582262642296 0 0 1 0 0 0 0 -1 forward_v I I I I #
coedge $-1 $288 $188 $193 $289 reversed $108 $-1 #
coedge $-1 $290 $110 $291 $292 reversed $69 $-1 #
coedge $-1 $110 $290 $288 $293 forward $69 $-1 #
coedge $-1 $193 $192 $110 $186 forward $194 $-1 #
edge $-1 $294 -17.752049230968904 $295 -9.3077576035061504 $185 $296 forward 7 unknown #
coedge $-1 $112 $111 $287 $297 reversed $44 $-1 #
coedge $-1 $182 $298 $111 $189 reversed $108 $-1 #
edge $-1 $195 -49.863582262642296 $299 49.863582262642296 $188 $300 forward 7 unknown #
coedge $-1 $301 $302 $112 $191 forward $285 $-1 #
edge $-1 $196 -49.863582262642296 $303 49.863582262642296 $190 $304 forward 7 unknown #
coedge $-1 $185 $113 $302 $305 forward $194 $-1 #
coedge $-1 $113 $185 $182 $289 forward $194 $-1 #
loop $-1 $-1 $113 $284 #
vertex $-1 $114 $306 #
vertex $-1 $305 $307 #
straight-curve $-1 49.863582262642296 -13.529903417237527 -3.6560037096166593 0 -1 0 I I #
face $-1 $-1 $210 $26 $-1 $308 forward single #
loop $-1 $-1 $309 $115 #
plane-surface $-1 -49.863582262642296 0 0 1 0 0 0 0 -1 forward_v I I I I #
coedge $-1 $310 $311 $312 $313 reversed $116 $-1 #
coedge $-1 $314 $118 $120 $208 forward $73 $-1 #
coedge $-1 $118 $314 $310 $315 forward $73 $-1 #
coedge $-1 $312 $121 $118 $205 forward $210 $-1 #
edge $-1 $212 -13.962739494821566 $316 -3.7871035570226574 $204 $317 forward 7 unknown #
coedge $-1 $318 $319 $119 $207 forward $199 $-1 #
edge $-1 $320 -38.042780261191389 $211 -31.914862072793557 $206 $321 forward 7 unknown #
edge $-1 $212 -9.7373582668779903 $320 -9.1551213131864128e-015 $120 $322 forward 7 unknown #
coedge $-1 $121 $312 $318 $323 forward $210 $-1 #
loop $-1 $-1 $312 $198 #
vertex $-1 $207 $324 #
vertex $-1 $122 $325 #
straight-curve $-1 -56.311960609658186 -22.837661020743678 7.5449201933054653 1 0 0 I I #
coedge $-1 $214 $214 $-1 $326 reversed $125 $-1 #
edge $-1 $327 0 $327 6.2831853071796004 $126 $328 forward 7 unknown #
vertex $-1 $129 $329 #
ellipse-curve $-1 -46.079907967270138 -17.749843051844223 4.4809610991065512 -0.62932039886446345 0 0.77714595512881146 1.5542919102576229 0 1.2586407977289269 1 I I #
face $-1 $-1 $330 $28 $-1 $331 reversed single #
loop $-1 $-1 $136 $130 #
plane-surface $-1 0 0 7.5449201933054679 0 0 1 1 0 0 forward_v I I I I #
coedge $-1 $332 $333 $334 $335 reversed $131 $-1 #
coedge $-1 $336 $133 $135 $228 forward $82 $-1 #
coedge $-1 $133 $336 $332 $337 forward $82 $-1 #
coedge $-1 $334 $136 $133 $225 forward $219 $-1 #
edge $-1 $231 4.4981597098308743 $338 13.725720777218827 $224 $339 forward 7 unknown #
coedge $-1 $340 $341 $134 $227 forward $330 $-1 #
edge $-1 $342 -65.980192976119469 $230 -62.70472645480519 $226 $343 forward 7 unknown #
edge $-1 $231 95.944981603460917 $342 99.727164525284621 $135 $344 forward 7 unknown #
coedge $-1 $136 $334 $340 $345 forward $219 $-1 #
vertex $-1 $227 $346 #
vertex $-1 $137 $347 #
straight-curve $-1 43.183130016885869 -13.610099953355725 7.5449201933054724 -1 0 0 I I #
coedge $-1 $233 $233 $-1 $348 reversed $140 $-1 #
edge $-1 $349 0 $349 6.2831853071796004 $141 $350 forward 7 unknown #
vertex $-1 $144 $351 #
ellipse-curve $-1 48.918036557522214 -18.223880487049698 5.9071869326483304 0.86602541151947299 0 0.49999998660252726 0.24999999330126363 0 -0.43301270575973649 1 I I #
face $-1 $-1 $249 $30 $-1 $352 forward single #
loop $-1 $-1 $353 $145 #
plane-surface $-1 49.863582262642296 0 0 -1 0 0 0 0 1 forward_v I I I I #
coedge $-1 $354 $355 $356 $357 reversed $146 $-1 #
coedge $-1 $358 $148 $150 $247 forward $91 $-1 #
coedge $-1 $148 $358 $354 $359 forward $91 $-1 #
coedge $-1 $356 $151 $148 $244 forward $249 $-1 #
edge $-1 $251 -9.0317437074066529 $360 0.1958173599812989 $243 $361 forward 7 unknown #
coedge $-1 $362 $363 $149 $246 forward $238 $-1 #
edge $-1 $364 -65.980192976119469 $250 -62.70472645480519 $245 $365 forward 7 unknown #
edge $-1 $251 95.944981603460917 $364 99.727164525284621 $150 $366 forward 7 unknown #
coedge $-1 $151 $356 $362 $367 forward $249 $-1 #
loop $-1 $-1 $356 $237 #
vertex $-1 $246 $368 #
vertex $-1 $152 $369 #
straight-curve $-1 43.183130016885869 13.449706881119329 7.5449201933054724 -1 0 0 I I #
coedge $-1 $253 $253 $-1 $370 reversed $155 $-1 #
edge $-1 $371 0 $371 6.2831853071796004 $156 $372 forward 7 unknown #
vertex $-1 $159 $373 #
ellipse-curve $-1 48.918036557522214 8.8359263474253531 5.9071869326483304 0.86602541151947299 0 0.49999998660252726 0.24999999330126363 0 -0.43301270575973649 1 I I #
face $-1 $-1 $175 $24 $-1 $374 reversed single #
loop $-1 $-1 $273 $160 #
plane-surface $-1 0 31.281952648206431 0 0 -1 0 0 0 -1 forward_v I I I I #
coedge $-1 $375 $271 $274 $376 forward $161 $-1 #
coedge $-1 $277 $163 $164 $265 reversed $100 $-1 #
coedge $-1 $271 $375 $163 $263 reversed $161 $-1 #
edge $-1 $278 -7.5449201933054679 $377 7.5449201933054679 $262 $378 forward 7 unknown #
coedge $-1 $165 $164 $375 $379 forward $65 $-1 #
edge $-1 $269 -49.863582262642296 $377 49.863582262642296 $261 $380 forward 7 unknown #
coedge $-1 $274 $273 $165 $267 reversed $258 $-1 #
edge $-1 $381 -49.863582262642296 $268 49.863582262642296 $266 $382 forward 7 unknown #
vertex $-1 $167 $383 #
vertex $-1 $280 $384 #
straight-curve $-1 49.863582262642296 0 -7.5449201933054679 0 -1 0 I I #
coedge $-1 $260 $262 $168 $272 reversed $161 $-1 #
edge $-1 $275 -31.281952648206431 $278 31.281952648206431 $271 $385 forward 7 unknown #
coedge $-1 $266 $169 $174 $281 forward $258 $-1 #
coedge $-1 $169 $266 $260 $376 reversed $258 $-1 #
vertex $-1 $170 $386 #
straight-curve $-1 0 31.281952648206431 7.5449201933054679 -1 0 0 I I #
coedge $-1 $171 $261 $173 $280 reversed $100 $-1 #
vertex $-1 $272 $387 #
straight-curve $-1 0 -31.281952648206431 7.5449201933054679 1 0 0 I I #
edge $-1 $176 -7.5449201933054679 $269 7.5449201933054679 $173 $388 forward 7 unknown #
edge $-1 $177 -7.5449201933054679 $268 7.5449201933054679 $174 $389 forward 7 unknown #
point $-1 49.863582262642296 -31.281952648206431 7.5449201933054679 #
point $-1 49.863582262642296 31.281952648206431 7.5449201933054679 #
face $-1 $-1 $194 $25 $-1 $390 reversed single #
loop $-1 $-1 $190 $179 #
plane-surface $-1 0 -31.281952648206431 0 0 1 0 0 0 1 forward_v I I I I #
coedge $-1 $391 $392 $187 $297 forward $180 $-1 #
coedge $-1 $298 $182 $184 $293 reversed $108 $-1 #
edge $-1 $295 -4.3696892175749369 $195 -0.9807727338861274 $193 $393 forward 7 unknown #
coedge $-1 $184 $183 $394 $395 reversed $69 $-1 #
coedge $-1 $302 $301 $183 $292 forward $285 $-1 #
edge $-1 $396 -49.863582262642296 $294 49.863582262642296 $291 $397 forward 7 unknown #
edge $-1 $398 -49.863582262642296 $295 49.863582262642296 $288 $399 forward 7 unknown #
vertex $-1 $292 $400 #
vertex $-1 $186 $401 #
straight-curve $-1 49.863582262642296 -13.529903417237527 -7.0449201933054688 0 1 0 I I #
edge $-1 $303 -17.752049230968904 $299 -9.3077576035061504 $287 $402 forward 7 unknown #
coedge $-1 $188 $288 $391 $403 reversed $108 $-1 #
vertex $-1 $297 $404 #
straight-curve $-1 0 -22.837661020743678 -3.6560037096166593 -1 0 0 I I #
coedge $-1 $291 $190 $392 $405 forward $285 $-1 #
coedge $-1 $190 $291 $192 $305 reversed $285 $-1 #
vertex $-1 $405 $406 #
straight-curve $-1 0 -31.281952648206431 -3.6560037096166593 -1 0 0 I I #
edge $-1 $196 3.6560037096166593 $294 7.0449201933054688 $192 $407 forward 7 unknown #
point $-1 49.863582262642296 -22.837661020743678 -3.6560037096166593 #
point $-1 49.863582262642296 -31.281952648206431 -3.6560037096166593 #
plane-surface $-1 0 0 7.5449201933054679 0 0 1 1 0 0 forward_v I I I I #
coedge $-1 $319 $318 $311 $408 forward $199 $-1 #
coedge $-1 $311 $201 $203 $315 reversed $116 $-1 #
coedge $-1 $201 $310 $309 $408 reversed $116 $-1 #
coedge $-1 $209 $204 $201 $313 forward $210 $-1 #
edge $-1 $316 -14.015726937760206 $409 -6.4483783470158897 $312 $410 forward 7 unknown #
coedge $-1 $203 $202 $319 $411 reversed $73 $-1 #
edge $-1 $412 9.1551213131864128e-015 $316 9.7373582668779903 $310 $413 forward 7 unknown #
vertex $-1 $205 $414 #
straight-curve $-1 -42.296233671897987 -8.8749215259221117 7.544920193305467 0 1 0 I I #
coedge $-1 $309 $206 $209 $323 reversed $199 $-1 #
coedge $-1 $206 $309 $314 $411 forward $199 $-1 #
vertex $-1 $207 $415 #
straight-curve $-1 -49.863582262642296 -22.837661020743678 39.459782266099026 0 0 1 I I #
straight-curve $-1 -49.863582262642304 -22.837661020743678 1.41700200490763 -0.77714595512881146 0 -0.62932039886446345 I I #
edge $-1 $409 12.662025082944769 $211 22.837661020743678 $318 $416 forward 7 unknown #
point $-1 -49.863582262642296 -22.837661020743678 7.5449201933054679 #
point $-1 -42.29623367189798 -22.837661020743678 7.5449201933054688 #
edge $-1 $417 1 $417 0 $214 $-1 forward 7 unknown #
vertex $-1 $215 $418 #
ellipse-curve $-1 -42.628565631482864 -17.749843051844223 0.21890835004323861 -0.62932039886446345 0 0.77714595512881146 1.5542919102576229 0 1.2586407977289269 1 I I #
point $-1 -44.52561605701252 -17.749843051844223 5.7396018968354818 #
loop $-1 $-1 $226 $218 #
plane-surface $-1 49.863582262642296 0 0 -1 0 0 0 0 1 forward_v I I I I #
coedge $-1 $333 $221 $223 $337 reversed $131 $-1 #
coedge $-1 $221 $332 $419 $420 reversed $131 $-1 #
coedge $-1 $229 $224 $221 $335 forward $219 $-1 #
edge $-1 $338 4.7893608355162698 $421 6.6804522457564275 $334 $422 forward 7 unknown #
coedge $-1 $223 $222 $341 $423 reversed $82 $-1 #
edge $-1 $424 -99.727164525284621 $338 -95.944981603460917 $332 $425 forward 7 unknown #
vertex $-1 $225 $426 #
straight-curve $-1 47.972490852402146 -9.1119402435248507 7.5449201933054653 0 -1 0 I I #
coedge $-1 $419 $226 $229 $345 reversed $330 $-1 #
coedge $-1 $226 $419 $336 $423 forward $330 $-1 #
vertex $-1 $227 $427 #
straight-curve $-1 49.863582262642296 -13.610099953355725 70.249646648110655 0 0 1 I I #
straight-curve $-1 1.33609195529516e-006 -13.610099953355725 90.635712369670983 0.49999998660252726 0 -0.86602541151947299 I I #
edge $-1 $421 -22.837661020743678 $230 -13.610099953355725 $340 $428 forward 7 unknown #
point $-1 49.863582262642296 -13.610099953355725 7.5449201933054679 #
point $-1 47.972490852402139 -13.610099953355725 7.5449201933054724 #
edge $-1 $429 1 $429 0 $233 $-1 forward 7 unknown #
vertex $-1 $234 $430 #
ellipse-curve $-1 47.697798903039292 -18.223880487049698 5.2026824195268446 0.86602541151947299 0 0.49999998660252726 0.24999999330126363 0 -0.43301270575973649 1 I I #
point $-1 49.168036550823494 -18.223880487049698 5.4741742268886036 #
plane-surface $-1 0 0 7.5449201933054679 0 0 1 1 0 0 forward_v I I I I #
coedge $-1 $363 $362 $355 $431 forward $238 $-1 #
coedge $-1 $355 $240 $242 $359 reversed $146 $-1 #
coedge $-1 $240 $354 $353 $431 reversed $146 $-1 #
coedge $-1 $248 $243 $240 $357 forward $249 $-1 #
edge $-1 $360 4.7893608355162698 $432 6.6804522457564275 $356 $433 forward 7 unknown #
coedge $-1 $242 $241 $363 $434 reversed $91 $-1 #
edge $-1 $435 -99.727164525284621 $360 -95.944981603460917 $354 $436 forward 7 unknown #
vertex $-1 $244 $437 #
straight-curve $-1 47.972490852402146 4.4179631737126766 7.5449201933054653 0 -1 0 I I #
coedge $-1 $353 $245 $248 $367 reversed $238 $-1 #
coedge $-1 $245 $353 $358 $434 forward $238 $-1 #
vertex $-1 $246 $438 #
straight-curve $-1 49.863582262642296 13.449706881119329 70.249646648110655 0 0 1 I I #
straight-curve $-1 1.33609195529516e-006 13.449706881119329 90.635712369670983 0.49999998660252726 0 -0.86602541151947299 I I #
edge $-1 $432 4.2221458137313777 $250 13.449706881119329 $362 $439 forward 7 unknown #
point $-1 49.863582262642296 13.449706881119329 7.5449201933054679 #
point $-1 47.972490852402139 13.449706881119329 7.5449201933054724 #
edge $-1 $440 1 $440 0 $253 $-1 forward 7 unknown #
vertex $-1 $254 $441 #
ellipse-curve $-1 47.697798903039292 8.8359263474253531 5.2026824195268446 0.86602541151947299 0 0.49999998660252726 0.24999999330126363 0 -0.43301270575973649 1 I I #
point $-1 49.168036550823494 8.8359263474253531 5.4741742268886036 #
plane-surface $-1 49.863582262642296 0 0 -1 0 0 0 0 1 forward_v I I I I #
coedge $-1 $262 $260 $264 $379 reversed $161 $-1 #
edge $-1 $275 -7.5449201933054679 $381 7.5449201933054679 $274 $442 forward 7 unknown #
vertex $-1 $379 $443 #
straight-curve $-1 -49.863582262642296 -31.281952648206431 0 0 0 -1 I I #
edge $-1 $377 -31.281952648206431 $381 31.281952648206431 $375 $444 forward 7 unknown #
straight-curve $-1 0 -31.281952648206431 -7.5449201933054679 -1 0 0 I I #
vertex $-1 $267 $445 #
straight-curve $-1 0 31.281952648206431 -7.5449201933054679 1 0 0 I I #
point $-1 49.863582262642296 31.281952648206431 -7.5449201933054679 #
point $-1 49.863582262642296 -31.281952648206431 -7.5449201933054679 #
straight-curve $-1 -49.863582262642296 0 7.5449201933054679 0 -1 0 I I #
point $-1 -49.863582262642296 31.281952648206431 7.5449201933054679 #
point $-1 -49.863582262642296 -31.281952648206431 7.5449201933054679 #
straight-curve $-1 49.863582262642296 -31.281952648206431 0 0 0 -1 I I #
straight-curve $-1 49.863582262642296 31.281952648206431 0 0 0 -1 I I #
plane-surface $-1 49.863582262642296 0 0 -1 0 0 0 0 1 forward_v I I I I #
coedge $-1 $394 $287 $298 $403 forward $180 $-1 #
coedge $-1 $287 $394 $301 $405 reversed $180 $-1 #
straight-curve $-1 49.863582262642296 -22.837661020743678 -2.6752309757305319 0 0 1 I I #
coedge $-1 $392 $391 $290 $395 forward $180 $-1 #
edge $-1 $398 9.3077576035061504 $396 17.752049230968904 $394 $446 forward 7 unknown #
vertex $-1 $292 $447 #
straight-curve $-1 0 -31.281952648206431 -7.0449201933054688 1 0 0 I I #
vertex $-1 $395 $448 #
straight-curve $-1 0 -22.837661020743678 -7.0449201933054688 1 0 0 I I #
point $-1 49.863582262642296 -31.281952648206431 -7.0449201933054688 #
point $-1 49.863582262642296 -22.837661020743678 -7.0449201933054688 #
straight-curve $-1 -49.863582262642296 -13.529903417237527 -3.6560037096166593 0 1 0 I I #
edge $-1 $299 0.9807727338861274 $398 4.3696892175749369 $391 $449 forward 7 unknown #
point $-1 -49.863582262642296 -22.837661020743678 -3.6560037096166593 #
edge $-1 $303 3.6560037096166593 $396 7.0449201933054688 $392 $450 forward 7 unknown #
point $-1 -49.863582262642296 -31.281952648206431 -3.6560037096166593 #
straight-curve $-1 49.863582262642296 -31.281952648206431 0 0 0 -1 I I #
edge $-1 $409 31.914862072793557 $412 38.042780261191389 $309 $451 forward 7 unknown #
vertex $-1 $323 $452 #
straight-curve $-1 -56.311960609658186 -12.662025082944769 7.5449201933054653 -1 0 0 I I #
edge $-1 $412 3.7871035570226574 $320 13.962739494821566 $319 $453 forward 7 unknown #
vertex $-1 $411 $454 #
straight-curve $-1 -49.863582262642304 -12.662025082944769 1.41700200490763 0.77714595512881146 0 0.62932039886446345 I I #
point $-1 -42.29623367189798 -12.662025082944769 7.5449201933054688 #
point $-1 -49.863582262642296 -22.837661020743678 1.4170020049076357 #
straight-curve $-1 -49.863582262642296 0 7.5449201933054679 0 -1 0 I I #
vertex $-1 $326 $455 #
point $-1 -41.074273721225239 -17.749843051844223 1.4775491477721654 #
coedge $-1 $341 $340 $333 $420 forward $330 $-1 #
edge $-1 $421 62.70472645480519 $424 65.980192976119469 $419 $456 forward 7 unknown #
vertex $-1 $345 $457 #
straight-curve $-1 43.183130016885869 -22.837661020743678 7.5449201933054724 1 0 0 I I #
edge $-1 $424 -13.725720777218827 $342 -4.4981597098308743 $341 $458 forward 7 unknown #
vertex $-1 $423 $459 #
straight-curve $-1 1.33609195529516e-006 -22.837661020743678 90.635712369670983 -0.49999998660252726 0 0.86602541151947299 I I #
point $-1 47.972490852402139 -22.837661020743678 7.5449201933054724 #
point $-1 49.863582262642296 -13.610099953355725 4.2694536719911866 #
straight-curve $-1 49.863582262642296 0 7.5449201933054679 0 1 0 I I #
vertex $-1 $348 $460 #
point $-1 47.947798896340558 -18.223880487049698 4.769669713767108 #
edge $-1 $432 62.70472645480519 $435 65.980192976119469 $353 $461 forward 7 unknown #
vertex $-1 $367 $462 #
straight-curve $-1 43.183130016885869 4.2221458137313777 7.5449201933054724 1 0 0 I I #
edge $-1 $435 -0.1958173599812989 $364 9.0317437074066529 $363 $463 forward 7 unknown #
vertex $-1 $434 $464 #
straight-curve $-1 1.33609195529516e-006 4.2221458137313777 90.635712369670983 -0.49999998660252726 0 0.86602541151947299 I I #
point $-1 47.972490852402139 4.2221458137313777 7.5449201933054724 #
point $-1 49.863582262642296 13.449706881119329 4.2694536719911866 #
straight-curve $-1 49.863582262642296 0 7.5449201933054679 0 1 0 I I #
vertex $-1 $370 $465 #
point $-1 47.947798896340558 8.8359263474253531 4.769669713767108 #
straight-curve $-1 -49.863582262642296 31.281952648206431 0 0 0 -1 I I #
point $-1 -49.863582262642296 -31.281952648206431 -7.5449201933054679 #
straight-curve $-1 -49.863582262642296 0 -7.5449201933054679 0 1 0 I I #
point $-1 -49.863582262642296 31.281952648206431 -7.5449201933054679 #
straight-curve $-1 -49.863582262642296 -13.529903417237527 -7.0449201933054688 0 -1 0 I I #
point $-1 -49.863582262642296 -31.281952648206431 -7.0449201933054688 #
point $-1 -49.863582262642296 -22.837661020743678 -7.0449201933054688 #
straight-curve $-1 -49.863582262642296 -22.837661020743678 -2.6752309757305319 0 0 -1 I I #
straight-curve $-1 -49.863582262642296 -31.281952648206431 0 0 0 -1 I I #
straight-curve $-1 -49.863582262642296 -12.662025082944769 39.459782266099026 0 0 -1 I I #
point $-1 -49.863582262642296 -12.662025082944769 7.5449201933054679 #
straight-curve $-1 -49.863582262642296 -8.8749215259221117 1.4170020049076315 0 -1 0 I I #
point $-1 -49.863582262642296 -12.662025082944769 1.4170020049076357 #
point $-1 -41.369924833753934 -17.749843051844223 -1.3353835602143844 #
straight-curve $-1 49.863582262642296 -22.837661020743678 70.249646648110655 0 0 -1 I I #
point $-1 49.863582262642296 -22.837661020743678 7.5449201933054679 #
straight-curve $-1 49.863582262642296 -9.1119402435248507 4.2694536719911866 0 1 0 I I #
point $-1 49.863582262642296 -22.837661020743678 4.2694536719911866 #
point $-1 47.264786197279555 -18.223880487049698 4.9526824262255804 #
straight-curve $-1 49.863582262642296 4.2221458137313777 70.249646648110655 0 0 -1 I I #
point $-1 49.863582262642296 4.2221458137313777 7.5449201933054679 #
straight-curve $-1 49.863582262642296 4.4179631737126766 4.2694536719911866 0 1 0 I I #
point $-1 49.863582262642296 4.2221458137313777 4.2694536719911866 #
point $-1 47.264786197279555 8.8359263474253531 4.9526824262255804 #
End-of-ACIS-data 