500 0 5 0           
7 Unknown 11 ACIS 5.0 NT 24 Fri Mar 26 02:14:37 1999 
-1 9.9999999999999995e-007 1e-010 
body $-1 $5 $-1 $6 #
body $-1 $7 $-1 $8 #
body $-1 $9 $-1 $10 #
body $-1 $11 $-1 $12 #
body $-1 $13 $-1 $14 #
lump $-1 $-1 $15 $0 #
transform $-1 1 0 0 0 1 0 0 0 1 52.397839289529102 21.27240018057249 6.6961934770505369 1 rotate no_reflect no_shear #
lump $-1 $-1 $16 $1 #
transform $-1 1 0 0 0 1 0 0 0 1 52.397839289529102 21.27240018057249 6.6961934770505369 1 rotate no_reflect no_shear #
lump $-1 $-1 $17 $2 #
transform $-1 1 0 0 0 1 0 0 0 1 52.397839289529102 21.27240018057249 6.6961934770505369 1 rotate no_reflect no_shear #
lump $-1 $-1 $18 $3 #
transform $-1 1 0 0 0 1 0 0 0 1 52.397839289529102 21.27240018057249 6.6961934770505369 1 rotate no_reflect no_shear #
lump $-1 $-1 $19 $4 #
transform $-1 1 0 0 0 1 0 0 0 1 52.397839289529102 21.27240018057249 6.6961934770505369 1 rotate no_reflect no_shear #
shell $-1 $-1 $-1 $20 $-1 $5 #
shell $-1 $-1 $-1 $21 $-1 $7 #
shell $-1 $-1 $-1 $22 $-1 $9 #
shell $-1 $-1 $-1 $23 $-1 $11 #
shell $-1 $-1 $-1 $24 $-1 $13 #
face $-1 $25 $26 $15 $-1 $27 forward single #
face $-1 $28 $29 $16 $-1 $30 forward single #
face $-1 $31 $32 $17 $-1 $33 reversed single #
face $-1 $34 $35 $18 $-1 $36 forward single #
face $-1 $37 $38 $19 $-1 $39 reversed single #
face $-1 $40 $41 $15 $-1 $42 reversed single #
loop $-1 $-1 $43 $20 #
plane-surface $-1 0 0 6.6961934770505369 0 0 1 1 0 0 forward_v I I I I #
face $-1 $44 $45 $16 $-1 $46 forward single #
loop $-1 $-1 $47 $21 #
plane-surface $-1 26.662578130307693 14.285597707066186 147.04656010840495 0 -1 0 -0.57357644374324357 0 -0.81915203911291934 forward_v I I I I #
face $-1 $48 $49 $17 $-1 $50 reversed single #
loop $-1 $51 $52 $22 #
cone-surface $-1 46.823223495903839 9.6235834929977138 1.6465266105345822 -0.57357644374324357 0 -0.81915203911291934 1.228728058669379 0 -0.86036466561486535 1 I I 0 1 1.5 forward I I I I #
face $-1 $53 $54 $18 $-1 $55 forward single #
loop $-1 $-1 $56 $23 #
plane-surface $-1 -112.50617192856532 4.9615692789292343 86.938227469368741 0 1 0 -0.57357644374324357 0 0.81915203911291934 forward_v I I I I #
face $-1 $57 $58 $19 $-1 $59 reversed single #
loop $-1 $60 $61 $24 #
cone-surface $-1 -46.823223495903839 9.6235834929977138 1.646526610534583 0.57357644374324357 0 -0.81915203911291934 1.228728058669379 0 0.86036466561486535 1 I I 0 1 1.5 forward I I I I #
face $-1 $62 $63 $15 $-1 $64 reversed single #
loop $-1 $-1 $65 $25 #
plane-surface $-1 0 0 -6.6961934770505369 0 0 1 1 0 0 forward_v I I I I #
coedge $-1 $66 $67 $68 $69 forward $26 $-1 #
face $-1 $70 $71 $16 $-1 $72 forward single #
loop $-1 $-1 $73 $28 #
plane-surface $-1 -33.44575450872852 9.6235834929977102 61.202966310147332 0.57357644374324357 0 0.81915203911291934 0.81915203911291934 0 -0.57357644374324357 forward_v I I I I #
coedge $-1 $74 $75 $76 $77 reversed $29 $-1 #
face $-1 $78 $79 $17 $-1 $80 forward single #
loop $-1 $81 $82 $31 #
cone-surface $-1 44.818353528395193 9.6235834929977138 -1.2167243823463583 -0.57357644374324357 0 -0.81915203911291934 0.61436402933468948 0 -0.43018233280743268 1 I I -0.70710678118654757 0.70710678118654757 0.75 forward I I I I #
loop $-1 $-1 $83 $22 #
coedge $-1 $52 $52 $84 $85 reversed $32 $-1 #
face $-1 $86 $87 $18 $-1 $88 forward single #
loop $-1 $-1 $89 $34 #
plane-surface $-1 -52.397839289529109 9.6235834929977102 1.0946336711111258 -0.57357644374324357 0 0.81915203911291934 0.81915203911291934 0 0.57357644374324357 forward_v I I I I #
coedge $-1 $90 $91 $92 $93 reversed $35 $-1 #
face $-1 $94 $95 $19 $-1 $96 forward single #
loop $-1 $97 $98 $37 #
cone-surface $-1 -44.818353528395193 9.6235834929977138 -1.2167243823463574 0.57357644374324357 0 -0.81915203911291934 0.61436402933468948 0 0.43018233280743268 1 I I -0.70710678118654757 0.70710678118654757 0.75 forward I I I I #
loop $-1 $-1 $99 $24 #
coedge $-1 $61 $61 $100 $101 reversed $38 $-1 #
face $-1 $102 $103 $15 $-1 $104 reversed single #
loop $-1 $-1 $105 $40 #
plane-surface $-1 0 -21.27240018057249 0 0 1 0 0 0 1 forward_v I I I I #
coedge $-1 $106 $107 $108 $109 forward $41 $-1 #
coedge $-1 $110 $43 $111 $112 forward $26 $-1 #
coedge $-1 $43 $110 $113 $114 forward $26 $-1 #
coedge $-1 $115 $116 $43 $69 reversed $117 $-1 #
edge $-1 $118 -21.27240018057249 $119 21.27240018057249 $68 $120 forward 7 unknown #
face $-1 $121 $122 $16 $-1 $123 forward single #
loop $-1 $-1 $124 $44 #
plane-surface $-1 26.662578130307693 4.9615692789292343 147.04656010840495 0 1 0 0.57357644374324357 0 0.81915203911291934 forward_v I I I I #
coedge $-1 $125 $126 $127 $128 reversed $45 $-1 #
coedge $-1 $75 $47 $126 $129 forward $29 $-1 #
coedge $-1 $47 $74 $130 $131 reversed $29 $-1 #
coedge $-1 $132 $127 $47 $77 forward $122 $-1 #
edge $-1 $133 31.066693906527121 $134 39.066550224375256 $76 $135 forward 7 unknown #
face $-1 $136 $137 $17 $-1 $138 forward single #
loop $-1 $-1 $139 $48 #
plane-surface $-1 26.662578130307693 14.285597707066186 147.04656010840495 0 -1 0 -0.57357644374324357 0 -0.81915203911291934 forward_v I I I I #
loop $-1 $-1 $140 $31 #
coedge $-1 $82 $82 $83 $141 forward $49 $-1 #
coedge $-1 $83 $83 $82 $141 reversed $51 $-1 #
coedge $-1 $84 $84 $52 $85 forward $137 $-1 #
edge $-1 $142 0 $142 6.2831853071796004 $84 $143 forward 7 unknown #
face $-1 $144 $145 $18 $-1 $146 forward single #
loop $-1 $-1 $147 $53 #
plane-surface $-1 -112.50617192856532 14.285597707066186 86.938227469368741 0 -1 0 0.57357644374324357 0 -0.81915203911291934 forward_v I I I I #
coedge $-1 $148 $149 $150 $151 reversed $54 $-1 #
coedge $-1 $91 $56 $149 $152 forward $35 $-1 #
coedge $-1 $56 $90 $153 $154 reversed $35 $-1 #
coedge $-1 $155 $150 $56 $93 forward $145 $-1 #
edge $-1 $156 -11.855102992601658 $157 -3.855246674753559 $92 $158 forward 7 unknown #
face $-1 $159 $160 $19 $-1 $161 forward single #
loop $-1 $-1 $162 $57 #
plane-surface $-1 -112.50617192856532 4.9615692789292343 86.938227469368741 0 1 0 -0.57357644374324357 0 0.81915203911291934 forward_v I I I I #
loop $-1 $-1 $163 $37 #
coedge $-1 $98 $98 $99 $164 forward $58 $-1 #
coedge $-1 $99 $99 $98 $164 reversed $60 $-1 #
coedge $-1 $100 $100 $61 $101 forward $160 $-1 #
edge $-1 $165 0 $165 6.2831853071796004 $100 $166 forward 7 unknown #
face $-1 $167 $168 $15 $-1 $169 reversed single #
loop $-1 $-1 $170 $62 #
plane-surface $-1 -52.397839289529102 0 0 1 0 0 0 0 -1 forward_v I I I I #
coedge $-1 $171 $113 $172 $173 forward $63 $-1 #
coedge $-1 $174 $65 $171 $175 forward $41 $-1 #
coedge $-1 $65 $174 $176 $177 forward $41 $-1 #
coedge $-1 $116 $115 $65 $109 reversed $117 $-1 #
edge $-1 $178 -21.27240018057249 $179 21.27240018057249 $108 $180 forward 7 unknown #
coedge $-1 $67 $66 $181 $182 forward $26 $-1 #
coedge $-1 $183 $184 $66 $112 reversed $168 $-1 #
edge $-1 $119 -52.397839289529102 $185 52.397839289529102 $111 $186 forward 7 unknown #
coedge $-1 $105 $187 $67 $114 reversed $63 $-1 #
edge $-1 $188 -52.397839289529102 $118 52.397839289529102 $113 $189 forward 7 unknown #
coedge $-1 $108 $68 $187 $190 forward $117 $-1 #
coedge $-1 $68 $108 $183 $191 reversed $117 $-1 #
loop $-1 $-1 $115 $167 #
vertex $-1 $69 $192 #
vertex $-1 $69 $193 #
straight-curve $-1 52.397839289529102 0 6.6961934770505369 0 1 0 I I #
face $-1 $194 $195 $16 $-1 $196 reversed single #
loop $-1 $-1 $197 $70 #
plane-surface $-1 0 0 6.6961934770505369 0 0 1 1 0 0 forward_v I I I I #
coedge $-1 $198 $199 $197 $200 reversed $71 $-1 #
coedge $-1 $201 $73 $199 $202 reversed $45 $-1 #
coedge $-1 $73 $201 $74 $129 reversed $45 $-1 #
coedge $-1 $76 $197 $73 $128 forward $122 $-1 #
edge $-1 $203 0.14977753243037917 $133 9.473805960567331 $127 $204 forward 7 unknown #
edge $-1 $133 95.029657210776719 $205 104.7956785790582 $74 $206 forward 7 unknown #
coedge $-1 $207 $208 $75 $131 forward $209 $-1 #
edge $-1 $134 66.827086577151931 $205 72.428646383091348 $130 $210 forward 7 unknown #
coedge $-1 $211 $76 $208 $212 forward $122 $-1 #
vertex $-1 $128 $213 #
vertex $-1 $212 $214 #
straight-curve $-1 13.331289065153847 14.285597707066186 6.6961934770505422 1 0 0 I I #
face $-1 $215 $216 $17 $-1 $217 forward single #
loop $-1 $218 $84 $78 #
plane-surface $-1 -33.44575450872852 9.6235834929977102 61.202966310147332 0.57357644374324357 0 0.81915203911291934 0.81915203911291934 0 -0.57357644374324357 forward_v I I I I #
coedge $-1 $219 $220 $221 $222 reversed $79 $-1 #
coedge $-1 $140 $140 $-1 $223 forward $81 $-1 #
edge $-1 $224 0 $224 6.2831853071796004 $82 $225 forward 7 unknown #
vertex $-1 $85 $226 #
ellipse-curve $-1 48.397911130605046 9.6235834929977138 3.8954135740808216 -0.57357644374324357 0 -0.81915203911291934 1.228728058669379 0 -0.86036466561486535 1 I I #
face $-1 $227 $228 $18 $-1 $229 reversed single #
loop $-1 $-1 $230 $86 #
plane-surface $-1 0 0 6.6961934770505369 0 0 1 1 0 0 forward_v I I I I #
coedge $-1 $231 $232 $230 $233 reversed $87 $-1 #
coedge $-1 $234 $89 $232 $235 reversed $54 $-1 #
coedge $-1 $89 $234 $90 $152 reversed $54 $-1 #
coedge $-1 $92 $230 $89 $151 forward $145 $-1 #
edge $-1 $236 -9.473805960567331 $156 -0.14977753243037917 $150 $237 forward 7 unknown #
edge $-1 $156 -9.7660213682814678 $238 -8.6223355153435888e-015 $90 $239 forward 7 unknown #
coedge $-1 $240 $241 $91 $154 forward $242 $-1 #
edge $-1 $157 36.772920257633835 $238 42.374480063573237 $153 $243 forward 7 unknown #
coedge $-1 $244 $92 $241 $245 forward $145 $-1 #
vertex $-1 $151 $246 #
vertex $-1 $245 $247 #
straight-curve $-1 -56.253085964282661 4.9615692789292343 6.6961934770505351 -1 0 0 I I #
face $-1 $248 $249 $19 $-1 $250 forward single #
loop $-1 $251 $100 $94 #
plane-surface $-1 -52.397839289529109 9.6235834929977102 1.0946336711111258 -0.57357644374324357 0 0.81915203911291934 0.81915203911291934 0 0.57357644374324357 forward_v I I I I #
coedge $-1 $252 $253 $254 $255 reversed $95 $-1 #
coedge $-1 $163 $163 $-1 $256 forward $97 $-1 #
edge $-1 $257 0 $257 6.2831853071796004 $98 $258 forward 7 unknown #
vertex $-1 $101 $259 #
ellipse-curve $-1 -48.397911130605053 9.6235834929977138 3.8954135740808322 0.57357644374324357 0 -0.81915203911291934 1.228728058669379 0 0.86036466561486535 1 I I #
face $-1 $-1 $117 $15 $-1 $260 reversed single #
loop $-1 $-1 $183 $102 #
plane-surface $-1 0 21.27240018057249 0 0 -1 0 0 0 -1 forward_v I I I I #
coedge $-1 $261 $181 $184 $262 forward $103 $-1 #
coedge $-1 $187 $105 $106 $175 reversed $63 $-1 #
coedge $-1 $181 $261 $105 $173 reversed $103 $-1 #
edge $-1 $188 -6.6961934770505369 $263 6.6961934770505369 $172 $264 forward 7 unknown #
coedge $-1 $107 $106 $261 $265 forward $41 $-1 #
edge $-1 $179 -52.397839289529102 $263 52.397839289529102 $171 $266 forward 7 unknown #
coedge $-1 $184 $183 $107 $177 reversed $168 $-1 #
edge $-1 $267 -52.397839289529102 $178 52.397839289529102 $176 $268 forward 7 unknown #
vertex $-1 $109 $269 #
vertex $-1 $190 $270 #
straight-curve $-1 52.397839289529102 0 -6.6961934770505369 0 -1 0 I I #
coedge $-1 $170 $172 $110 $182 reversed $103 $-1 #
edge $-1 $185 -21.27240018057249 $188 21.27240018057249 $181 $271 forward 7 unknown #
coedge $-1 $176 $111 $116 $191 forward $168 $-1 #
coedge $-1 $111 $176 $170 $262 reversed $168 $-1 #
vertex $-1 $112 $272 #
straight-curve $-1 0 21.27240018057249 6.6961934770505369 -1 0 0 I I #
coedge $-1 $113 $171 $115 $190 reversed $63 $-1 #
vertex $-1 $182 $273 #
straight-curve $-1 0 -21.27240018057249 6.6961934770505369 1 0 0 I I #
edge $-1 $118 -6.6961934770505369 $179 6.6961934770505369 $115 $274 forward 7 unknown #
edge $-1 $119 -6.6961934770505369 $178 6.6961934770505369 $116 $275 forward 7 unknown #
point $-1 52.397839289529102 -21.27240018057249 6.6961934770505369 #
point $-1 52.397839289529102 21.27240018057249 6.6961934770505369 #
face $-1 $276 $277 $16 $-1 $278 reversed single #
loop $-1 $-1 $279 $121 #
plane-surface $-1 0 0 -6.6961934770505369 0 0 1 1 0 0 forward_v I I I I #
coedge $-1 $127 $280 $124 $200 forward $122 $-1 #
coedge $-1 $199 $124 $281 $282 reversed $71 $-1 #
coedge $-1 $124 $198 $125 $202 forward $71 $-1 #
edge $-1 $283 -39.066550224375256 $203 -31.066693906527121 $197 $284 forward 7 unknown #
coedge $-1 $126 $125 $207 $285 reversed $45 $-1 #
edge $-1 $286 -104.7956785790582 $203 -95.029657210776719 $199 $287 forward 7 unknown #
vertex $-1 $128 $288 #
straight-curve $-1 44.397982971680975 4.8117917464988551 6.6961934770505422 0 1 0 I I #
vertex $-1 $285 $289 #
straight-curve $-1 -33.44575450872852 14.285597707066186 61.202966310147332 0.81915203911291934 0 -0.57357644374324357 I I #
coedge $-1 $281 $130 $201 $285 forward $209 $-1 #
coedge $-1 $130 $290 $132 $212 reversed $209 $-1 #
loop $-1 $-1 $281 $291 #
straight-curve $-1 52.397839289529102 14.285597707066186 73.523280054202473 0 0 -1 I I #
coedge $-1 $292 $132 $293 $294 forward $122 $-1 #
edge $-1 $134 14.285597707066186 $295 21.27240018057249 $208 $296 forward 7 unknown #
point $-1 44.397982971680968 14.285597707066186 6.6961934770505351 #
point $-1 52.397839289529102 14.285597707066186 6.6961934770505369 #
face $-1 $297 $298 $17 $-1 $299 forward single #
loop $-1 $-1 $300 $136 #
plane-surface $-1 26.662578130307693 4.9615692789292343 147.04656010840495 0 1 0 0.57357644374324357 0 0.81915203911291934 forward_v I I I I #
loop $-1 $-1 $301 $78 #
coedge $-1 $220 $139 $302 $303 forward $79 $-1 #
coedge $-1 $139 $219 $304 $305 reversed $79 $-1 #
coedge $-1 $306 $307 $139 $222 forward $298 $-1 #
edge $-1 $308 31.066693906527121 $309 39.066550224375256 $221 $310 forward 7 unknown #
edge $-1 $311 1 $311 0 $140 $-1 forward 7 unknown #
vertex $-1 $141 $312 #
ellipse-curve $-1 45.248535861202626 9.6235834929977138 -0.60236035301166879 0.57357644374324357 0 0.81915203911291934 1.228728058669379 0 -0.86036466561486535 1 I I #
point $-1 49.626639189274435 9.6235834929977138 3.035048908465968 #
face $-1 $313 $314 $18 $-1 $315 reversed single #
loop $-1 $316 $317 $144 #
cone-surface $-1 46.823223495903839 9.6235834929977138 1.6465266105345822 -0.57357644374324357 0 -0.81915203911291934 1.228728058669379 0 -0.86036466561486535 1 I I 0 1 1.5 forward I I I I #
coedge $-1 $150 $318 $147 $233 forward $145 $-1 #
coedge $-1 $232 $147 $319 $320 reversed $87 $-1 #
coedge $-1 $147 $231 $148 $235 forward $87 $-1 #
edge $-1 $321 3.855246674753559 $236 11.855102992601658 $230 $322 forward 7 unknown #
coedge $-1 $149 $148 $240 $323 reversed $54 $-1 #
edge $-1 $324 8.6223355153435888e-015 $236 9.7660213682814678 $232 $325 forward 7 unknown #
vertex $-1 $151 $326 #
straight-curve $-1 -44.397982971680996 4.8117917464988551 6.6961934770505378 0 -1 0 I I #
vertex $-1 $323 $327 #
straight-curve $-1 -52.397839289529109 4.9615692789292343 1.0946336711111258 -0.81915203911291934 0 -0.57357644374324357 I I #
coedge $-1 $319 $153 $234 $323 forward $242 $-1 #
coedge $-1 $153 $328 $155 $245 reversed $242 $-1 #
loop $-1 $-1 $319 $329 #
straight-curve $-1 -52.397839289529102 4.9615692789292343 43.46911373468437 0 0 -1 I I #
coedge $-1 $330 $155 $331 $332 forward $145 $-1 #
edge $-1 $157 -4.9615692789292343 $333 21.27240018057249 $241 $334 forward 7 unknown #
point $-1 -44.397982971681003 4.9615692789292343 6.6961934770505369 #
point $-1 -52.397839289529102 4.9615692789292343 6.6961934770505369 #
face $-1 $335 $336 $19 $-1 $337 forward single #
loop $-1 $-1 $338 $159 #
plane-surface $-1 -112.50617192856532 14.285597707066186 86.938227469368741 0 -1 0 0.57357644374324357 0 -0.81915203911291934 forward_v I I I I #
loop $-1 $-1 $339 $94 #
coedge $-1 $253 $162 $340 $341 forward $95 $-1 #
coedge $-1 $162 $252 $342 $343 reversed $95 $-1 #
coedge $-1 $344 $345 $162 $255 forward $336 $-1 #
edge $-1 $346 -11.855102992601658 $347 -3.855246674753559 $254 $348 forward 7 unknown #
edge $-1 $349 1 $349 0 $163 $-1 forward 7 unknown #
vertex $-1 $164 $350 #
ellipse-curve $-1 -45.248535861202626 9.6235834929977138 -0.6023603530116679 -0.57357644374324357 0 0.81915203911291934 1.228728058669379 0 0.86036466561486535 1 I I #
point $-1 -47.169183071935677 9.6235834929977138 4.7557782396956991 #
plane-surface $-1 52.397839289529102 0 0 -1 0 0 0 0 1 forward_v I I I I #
coedge $-1 $172 $170 $174 $265 reversed $103 $-1 #
edge $-1 $185 -6.6961934770505369 $267 6.6961934770505369 $184 $351 forward 7 unknown #
vertex $-1 $265 $352 #
straight-curve $-1 -52.397839289529102 -21.27240018057249 0 0 0 -1 I I #
edge $-1 $263 -21.27240018057249 $267 21.27240018057249 $261 $353 forward 7 unknown #
straight-curve $-1 0 -21.27240018057249 -6.6961934770505369 -1 0 0 I I #
vertex $-1 $177 $354 #
straight-curve $-1 0 21.27240018057249 -6.6961934770505369 1 0 0 I I #
point $-1 52.397839289529102 21.27240018057249 -6.6961934770505369 #
point $-1 52.397839289529102 -21.27240018057249 -6.6961934770505369 #
straight-curve $-1 -52.397839289529102 0 6.6961934770505369 0 -1 0 I I #
point $-1 -52.397839289529102 21.27240018057249 6.6961934770505369 #
point $-1 -52.397839289529102 -21.27240018057249 6.6961934770505369 #
straight-curve $-1 52.397839289529102 -21.27240018057249 0 0 0 -1 I I #
straight-curve $-1 52.397839289529102 21.27240018057249 0 0 0 -1 I I #
face $-1 $355 $356 $16 $-1 $357 reversed single #
loop $-1 $-1 $358 $194 #
plane-surface $-1 0 -21.27240018057249 0 0 1 0 0 0 1 forward_v I I I I #
coedge $-1 $359 $360 $361 $362 forward $195 $-1 #
coedge $-1 $197 $363 $364 $365 forward $122 $-1 #
coedge $-1 $364 $207 $198 $282 forward $209 $-1 #
edge $-1 $286 -72.428646383091348 $283 -66.827086577151931 $281 $366 forward 7 unknown #
vertex $-1 $282 $367 #
straight-curve $-1 13.331289065153847 4.9615692789292343 6.6961934770505422 -1 0 0 I I #
edge $-1 $205 -9.473805960567331 $286 -0.14977753243037917 $207 $368 forward 7 unknown #
vertex $-1 $285 $369 #
straight-curve $-1 -33.44575450872852 4.9615692789292343 61.202966310147332 -0.81915203911291934 0 0.57357644374324357 I I #
point $-1 44.397982971680968 4.9615692789292343 6.6961934770505351 #
point $-1 52.397839289529095 14.285597707066186 1.0946336711111186 #
coedge $-1 $208 $361 $370 $371 reversed $209 $-1 #
face $-1 $-1 $209 $16 $-1 $372 reversed single #
coedge $-1 $363 $211 $373 $374 forward $122 $-1 #
coedge $-1 $370 $375 $211 $294 reversed $376 $-1 #
edge $-1 $295 -52.397839289529102 $377 52.397839289529102 $293 $378 forward 7 unknown #
vertex $-1 $212 $379 #
straight-curve $-1 52.397839289529102 0 6.6961934770505369 0 1 0 I I #
face $-1 $380 $381 $17 $-1 $382 reversed single #
loop $-1 $-1 $383 $215 #
plane-surface $-1 0 0 6.6961934770505369 0 0 1 1 0 0 forward_v I I I I #
coedge $-1 $384 $385 $383 $386 reversed $216 $-1 #
coedge $-1 $387 $302 $307 $388 reversed $218 $-1 #
coedge $-1 $301 $389 $219 $303 reversed $218 $-1 #
edge $-1 $308 95.029657210776719 $390 104.7956785790582 $219 $391 forward 7 unknown #
coedge $-1 $392 $393 $220 $305 forward $394 $-1 #
edge $-1 $309 66.827086577151931 $390 72.428646383091348 $304 $395 forward 7 unknown #
coedge $-1 $396 $221 $393 $397 forward $298 $-1 #
coedge $-1 $221 $383 $301 $388 forward $298 $-1 #
vertex $-1 $388 $398 #
vertex $-1 $397 $399 #
straight-curve $-1 13.331289065153847 14.285597707066186 6.6961934770505422 1 0 0 I I #
vertex $-1 $223 $400 #
point $-1 46.477263919872001 9.6235834929977138 -1.4627250186265341 #
face $-1 $401 $402 $18 $-1 $403 forward single #
loop $-1 $404 $405 $227 #
cone-surface $-1 44.818353528395193 9.6235834929977138 -1.2167243823463583 -0.57357644374324357 0 -0.81915203911291934 0.61436402933468948 0 -0.43018233280743268 1 I I -0.70710678118654757 0.70710678118654757 0.75 forward I I I I #
loop $-1 $-1 $406 $144 #
coedge $-1 $317 $317 $407 $408 reversed $228 $-1 #
coedge $-1 $230 $409 $410 $411 forward $145 $-1 #
coedge $-1 $410 $240 $231 $320 forward $242 $-1 #
edge $-1 $324 -42.374480063573237 $321 -36.772920257633835 $319 $412 forward 7 unknown #
vertex $-1 $320 $413 #
straight-curve $-1 -56.253085964282661 14.285597707066186 6.6961934770505351 1 0 0 I I #
edge $-1 $238 0.14977753243037917 $324 9.473805960567331 $240 $414 forward 7 unknown #
vertex $-1 $323 $415 #
straight-curve $-1 -52.397839289529109 14.285597707066186 1.0946336711111258 0.81915203911291934 0 0.57357644374324357 I I #
point $-1 -44.397982971681003 14.285597707066186 6.6961934770505369 #
point $-1 -52.397839289529102 4.9615692789292343 1.0946336711111306 #
coedge $-1 $241 $416 $417 $418 reversed $242 $-1 #
face $-1 $419 $242 $18 $-1 $420 reversed single #
coedge $-1 $421 $244 $422 $423 forward $145 $-1 #
coedge $-1 $417 $424 $244 $332 reversed $425 $-1 #
edge $-1 $333 -52.397839289529102 $426 52.397839289529102 $331 $427 forward 7 unknown #
vertex $-1 $245 $428 #
straight-curve $-1 -52.397839289529102 0 6.6961934770505369 0 -1 0 I I #
face $-1 $429 $430 $19 $-1 $431 reversed single #
loop $-1 $-1 $432 $248 #
plane-surface $-1 0 0 6.6961934770505369 0 0 1 1 0 0 forward_v I I I I #
coedge $-1 $433 $434 $432 $435 reversed $249 $-1 #
coedge $-1 $436 $340 $345 $437 reversed $251 $-1 #
coedge $-1 $339 $438 $252 $341 reversed $251 $-1 #
edge $-1 $346 -9.7660213682814678 $439 -8.6223355153435888e-015 $252 $440 forward 7 unknown #
coedge $-1 $441 $442 $253 $343 forward $443 $-1 #
edge $-1 $347 36.772920257633835 $439 42.374480063573237 $342 $444 forward 7 unknown #
coedge $-1 $445 $254 $442 $446 forward $336 $-1 #
coedge $-1 $254 $432 $339 $437 forward $336 $-1 #
vertex $-1 $437 $447 #
vertex $-1 $446 $448 #
straight-curve $-1 -56.253085964282661 4.9615692789292343 6.6961934770505351 -1 0 0 I I #
vertex $-1 $256 $449 #
point $-1 -44.019807802533244 9.6235834929977138 0.25800431260319745 #
straight-curve $-1 -52.397839289529102 21.27240018057249 0 0 0 -1 I I #
point $-1 -52.397839289529102 -21.27240018057249 -6.6961934770505369 #
straight-curve $-1 -52.397839289529102 0 -6.6961934770505369 0 1 0 I I #
point $-1 -52.397839289529102 21.27240018057249 -6.6961934770505369 #
face $-1 $291 $376 $16 $-1 $450 reversed single #
loop $-1 $-1 $451 $276 #
plane-surface $-1 -52.397839289529102 0 0 1 0 0 0 0 -1 forward_v I I I I #
coedge $-1 $452 $453 $454 $455 forward $277 $-1 #
coedge $-1 $456 $279 $452 $457 forward $195 $-1 #
coedge $-1 $279 $456 $458 $459 forward $195 $-1 #
coedge $-1 $290 $460 $279 $362 reversed $209 $-1 #
edge $-1 $461 -21.27240018057249 $462 21.27240018057249 $361 $463 forward 7 unknown #
coedge $-1 $280 $292 $453 $464 forward $122 $-1 #
coedge $-1 $460 $281 $280 $365 reversed $209 $-1 #
edge $-1 $465 -21.27240018057249 $283 4.9615692789292343 $364 $296 forward 7 unknown #
straight-curve $-1 52.397839289529102 4.9615692789292343 73.523280054202473 0 0 1 I I #
point $-1 52.397839289529102 4.9615692789292343 6.6961934770505369 #
straight-curve $-1 52.397839289529102 4.8117917464988551 1.0946336711111151 0 -1 0 I I #
point $-1 52.397839289529095 4.9615692789292343 1.0946336711111186 #
coedge $-1 $458 $293 $290 $371 forward $376 $-1 #
edge $-1 $295 -6.6961934770505369 $461 6.6961934770505369 $290 $466 forward 7 unknown #
plane-surface $-1 52.397839289529102 0 0 -1 0 0 0 0 1 forward_v I I I I #
coedge $-1 $451 $454 $292 $374 reversed $356 $-1 #
edge $-1 $377 -21.27240018057249 $467 21.27240018057249 $373 $468 forward 7 unknown #
coedge $-1 $293 $458 $451 $469 reversed $376 $-1 #
loop $-1 $-1 $370 $355 #
vertex $-1 $294 $470 #
straight-curve $-1 0 21.27240018057249 6.6961934770505369 -1 0 0 I I #
point $-1 52.397839289529102 21.27240018057249 6.6961934770505369 #
face $-1 $471 $472 $17 $-1 $473 reversed single #
loop $-1 $-1 $474 $297 #
plane-surface $-1 0 0 -6.6961934770505369 0 0 1 1 0 0 forward_v I I I I #
coedge $-1 $307 $475 $300 $386 forward $298 $-1 #
coedge $-1 $385 $300 $476 $477 reversed $216 $-1 #
coedge $-1 $300 $384 $387 $478 forward $216 $-1 #
edge $-1 $479 -39.066550224375256 $480 -31.066693906527121 $383 $481 forward 7 unknown #
coedge $-1 $389 $301 $385 $478 reversed $218 $-1 #
edge $-1 $480 0.14977753243037917 $308 9.473805960567331 $307 $482 forward 7 unknown #
coedge $-1 $302 $387 $392 $483 reversed $218 $-1 #
vertex $-1 $483 $484 #
straight-curve $-1 -33.44575450872852 14.285597707066186 61.202966310147332 0.81915203911291934 0 -0.57357644374324357 I I #
coedge $-1 $476 $304 $389 $483 forward $394 $-1 #
coedge $-1 $304 $485 $306 $397 reversed $394 $-1 #
loop $-1 $-1 $476 $486 #
straight-curve $-1 52.397839289529102 14.285597707066186 73.523280054202473 0 0 -1 I I #
coedge $-1 $487 $306 $488 $489 forward $298 $-1 #
edge $-1 $309 14.285597707066186 $490 21.27240018057249 $393 $491 forward 7 unknown #
point $-1 44.397982971680968 14.285597707066186 6.6961934770505351 #
point $-1 52.397839289529102 14.285597707066186 6.6961934770505369 #
point $-1 44.388171195587759 9.6235834929977138 -1.8310884116810477 #
face $-1 $492 $493 $18 $-1 $494 forward single #
loop $-1 $-1 $495 $313 #
plane-surface $-1 26.662578130307693 14.285597707066186 147.04656010840495 0 -1 0 -0.57357644374324357 0 -0.81915203911291934 forward_v I I I I #
loop $-1 $-1 $496 $227 #
coedge $-1 $405 $405 $406 $497 forward $314 $-1 #
coedge $-1 $406 $406 $405 $497 reversed $316 $-1 #
coedge $-1 $407 $407 $317 $408 forward $493 $-1 #
edge $-1 $498 0 $498 6.2831853071796004 $407 $499 forward 7 unknown #
coedge $-1 $318 $500 $501 $502 forward $145 $-1 #
coedge $-1 $503 $319 $318 $411 reversed $242 $-1 #
edge $-1 $504 -21.27240018057249 $321 -14.285597707066186 $410 $334 forward 7 unknown #
straight-curve $-1 -52.397839289529102 14.285597707066186 43.46911373468437 0 0 1 I I #
point $-1 -52.397839289529102 14.285597707066186 6.6961934770505369 #
straight-curve $-1 -52.397839289529102 4.8117917464988551 1.0946336711111304 0 1 0 I I #
point $-1 -52.397839289529102 14.285597707066186 1.0946336711111306 #
coedge $-1 $328 $503 $505 $506 reversed $242 $-1 #
coedge $-1 $507 $331 $328 $418 forward $425 $-1 #
edge $-1 $333 -6.6961934770505369 $508 6.6961934770505369 $328 $509 forward 7 unknown #
face $-1 $510 $511 $18 $-1 $512 reversed single #
plane-surface $-1 -52.397839289529102 0 0 1 0 0 0 0 -1 forward_v I I I I #
coedge $-1 $513 $330 $514 $515 forward $145 $-1 #
coedge $-1 $516 $517 $330 $423 reversed $518 $-1 #
edge $-1 $426 -21.27240018057249 $519 4.9615692789292343 $422 $520 forward 7 unknown #
coedge $-1 $331 $507 $516 $521 reversed $425 $-1 #
loop $-1 $-1 $417 $522 #
vertex $-1 $423 $523 #
straight-curve $-1 0 -21.27240018057249 6.6961934770505369 1 0 0 I I #
point $-1 -52.397839289529102 -21.27240018057249 6.6961934770505369 #
face $-1 $524 $525 $19 $-1 $526 reversed single #
loop $-1 $527 $528 $335 #
cone-surface $-1 46.823223495903839 9.6235834929977138 1.6465266105345822 -0.57357644374324357 0 -0.81915203911291934 1.228728058669379 0 -0.86036466561486535 1 I I 0 1 1.5 forward I I I I #
coedge $-1 $345 $529 $338 $435 forward $336 $-1 #
coedge $-1 $434 $338 $530 $531 reversed $249 $-1 #
coedge $-1 $338 $433 $436 $532 forward $249 $-1 #
edge $-1 $533 3.855246674753559 $534 11.855102992601658 $432 $535 forward 7 unknown #
coedge $-1 $438 $339 $434 $532 reversed $251 $-1 #
edge $-1 $534 -9.473805960567331 $346 -0.14977753243037917 $345 $536 forward 7 unknown #
coedge $-1 $340 $436 $441 $537 reversed $251 $-1 #
vertex $-1 $537 $538 #
straight-curve $-1 -52.397839289529109 4.9615692789292343 1.0946336711111258 -0.81915203911291934 0 -0.57357644374324357 I I #
coedge $-1 $530 $342 $438 $537 forward $443 $-1 #
coedge $-1 $342 $539 $344 $446 reversed $443 $-1 #
loop $-1 $-1 $530 $540 #
straight-curve $-1 -52.397839289529102 4.9615692789292343 43.46911373468437 0 0 -1 I I #
coedge $-1 $541 $344 $542 $543 forward $336 $-1 #
edge $-1 $347 -4.9615692789292343 $544 21.27240018057249 $442 $545 forward 7 unknown #
point $-1 -44.397982971681003 4.9615692789292343 6.6961934770505369 #
point $-1 -52.397839289529102 4.9615692789292343 6.6961934770505369 #
point $-1 -44.388171195587759 9.6235834929977138 -1.8310884116810469 #
plane-surface $-1 0 21.27240018057249 0 0 -1 0 0 0 -1 forward_v I I I I #
coedge $-1 $546 $373 $375 $469 forward $356 $-1 #
coedge $-1 $547 $358 $359 $457 reversed $277 $-1 #
coedge $-1 $358 $547 $363 $464 reversed $277 $-1 #
coedge $-1 $373 $546 $358 $455 reversed $356 $-1 #
edge $-1 $467 -6.6961934770505369 $548 6.6961934770505369 $454 $549 forward 7 unknown #
coedge $-1 $360 $359 $546 $550 forward $195 $-1 #
edge $-1 $462 -52.397839289529102 $548 52.397839289529102 $452 $551 forward 7 unknown #
coedge $-1 $375 $370 $360 $459 reversed $376 $-1 #
edge $-1 $552 -52.397839289529102 $461 52.397839289529102 $458 $553 forward 7 unknown #
coedge $-1 $361 $364 $547 $554 forward $209 $-1 #
vertex $-1 $362 $555 #
vertex $-1 $554 $556 #
straight-curve $-1 52.397839289529102 0 -6.6961934770505369 0 -1 0 I I #
edge $-1 $467 -52.397839289529102 $465 52.397839289529102 $453 $557 forward 7 unknown #
vertex $-1 $365 $558 #
straight-curve $-1 52.397839289529102 21.27240018057249 0 0 0 -1 I I #
vertex $-1 $374 $559 #
straight-curve $-1 -52.397839289529102 0 6.6961934770505369 0 -1 0 I I #
edge $-1 $377 -6.6961934770505369 $552 6.6961934770505369 $375 $560 forward 7 unknown #
point $-1 -52.397839289529102 21.27240018057249 6.6961934770505369 #
face $-1 $561 $562 $17 $-1 $563 reversed single #
loop $-1 $-1 $564 $380 #
plane-surface $-1 0 -21.27240018057249 0 0 1 0 0 0 1 forward_v I I I I #
coedge $-1 $565 $566 $567 $568 forward $381 $-1 #
coedge $-1 $383 $569 $570 $571 forward $298 $-1 #
coedge $-1 $570 $392 $384 $477 forward $394 $-1 #
edge $-1 $572 -72.428646383091348 $479 -66.827086577151931 $476 $573 forward 7 unknown #
edge $-1 $572 -104.7956785790582 $480 -95.029657210776719 $385 $574 forward 7 unknown #
vertex $-1 $477 $575 #
vertex $-1 $388 $576 #
straight-curve $-1 13.331289065153847 4.9615692789292343 6.6961934770505422 -1 0 0 I I #
straight-curve $-1 44.397982971680975 4.8117917464988551 6.6961934770505422 0 1 0 I I #
edge $-1 $390 -9.473805960567331 $572 -0.14977753243037917 $392 $577 forward 7 unknown #
point $-1 52.397839289529095 14.285597707066186 1.0946336711111186 #
coedge $-1 $393 $567 $578 $579 reversed $394 $-1 #
face $-1 $-1 $394 $17 $-1 $580 reversed single #
coedge $-1 $569 $396 $581 $582 forward $298 $-1 #
coedge $-1 $578 $583 $396 $489 reversed $584 $-1 #
edge $-1 $490 -52.397839289529102 $585 52.397839289529102 $488 $586 forward 7 unknown #
vertex $-1 $397 $587 #
straight-curve $-1 52.397839289529102 0 6.6961934770505369 0 1 0 I I #
face $-1 $588 $589 $18 $-1 $590 forward single #
loop $-1 $591 $407 $401 #
plane-surface $-1 -33.44575450872852 9.6235834929977102 61.202966310147332 0.57357644374324357 0 0.81915203911291934 0.81915203911291934 0 -0.57357644374324357 forward_v I I I I #
coedge $-1 $592 $593 $594 $595 reversed $402 $-1 #
coedge $-1 $496 $496 $-1 $596 forward $404 $-1 #
edge $-1 $597 0 $597 6.2831853071796004 $405 $598 forward 7 unknown #
vertex $-1 $408 $599 #
ellipse-curve $-1 48.397911130605046 9.6235834929977138 3.8954135740808216 -0.57357644374324357 0 -0.81915203911291934 1.228728058669379 0 -0.86036466561486535 1 I I #
coedge $-1 $409 $594 $600 $601 forward $145 $-1 #
coedge $-1 $602 $603 $409 $502 reversed $511 $-1 #
edge $-1 $604 -52.397839289529102 $504 52.397839289529102 $501 $605 forward 7 unknown #
coedge $-1 $416 $410 $603 $606 forward $242 $-1 #
vertex $-1 $502 $607 #
coedge $-1 $608 $609 $416 $506 forward $610 $-1 #
edge $-1 $508 -21.27240018057249 $611 21.27240018057249 $416 $612 forward 7 unknown #
coedge $-1 $424 $417 $609 $613 reversed $425 $-1 #
vertex $-1 $506 $614 #
straight-curve $-1 -52.397839289529102 -21.27240018057249 0 0 0 -1 I I #
face $-1 $-1 $518 $18 $-1 $615 reversed single #
loop $-1 $-1 $602 $419 #
plane-surface $-1 0 21.27240018057249 0 0 -1 0 0 0 -1 forward_v I I I I #
coedge $-1 $594 $421 $616 $617 forward $145 $-1 #
coedge $-1 $618 $619 $421 $515 reversed $589 $-1 #
edge $-1 $519 -39.066550224375256 $620 -31.066693906527121 $421 $621 forward 7 unknown #
coedge $-1 $622 $422 $424 $521 forward $518 $-1 #
coedge $-1 $422 $623 $618 $624 forward $518 $-1 #
loop $-1 $-1 $517 $510 #
vertex $-1 $624 $625 #
straight-curve $-1 52.397839289529102 0 6.6961934770505369 0 1 0 I I #
edge $-1 $426 -6.6961934770505369 $626 6.6961934770505369 $516 $627 forward 7 unknown #
face $-1 $329 $425 $18 $-1 $628 reversed single #
point $-1 52.397839289529102 -21.27240018057249 6.6961934770505369 #
face $-1 $629 $630 $19 $-1 $631 forward single #
loop $-1 $632 $633 $429 #
cone-surface $-1 44.818353528395193 9.6235834929977138 -1.2167243823463583 -0.57357644374324357 0 -0.81915203911291934 0.61436402933468948 0 -0.43018233280743268 1 I I -0.70710678118654757 0.70710678118654757 0.75 forward I I I I #
loop $-1 $-1 $634 $335 #
coedge $-1 $528 $528 $635 $636 reversed $430 $-1 #
coedge $-1 $432 $637 $638 $639 forward $336 $-1 #
coedge $-1 $638 $441 $433 $531 forward $443 $-1 #
edge $-1 $640 -42.374480063573237 $533 -36.772920257633835 $530 $641 forward 7 unknown #
edge $-1 $640 8.6223355153435888e-015 $534 9.7660213682814678 $434 $642 forward 7 unknown #
vertex $-1 $531 $643 #
vertex $-1 $437 $644 #
straight-curve $-1 -56.253085964282661 14.285597707066186 6.6961934770505351 1 0 0 I I #
straight-curve $-1 -44.397982971680996 4.8117917464988551 6.6961934770505378 0 -1 0 I I #
edge $-1 $439 0.14977753243037917 $640 9.473805960567331 $441 $645 forward 7 unknown #
point $-1 -52.397839289529102 4.9615692789292343 1.0946336711111306 #
coedge $-1 $442 $646 $647 $648 reversed $443 $-1 #
face $-1 $649 $443 $19 $-1 $650 reversed single #
coedge $-1 $651 $445 $652 $653 forward $336 $-1 #
coedge $-1 $647 $654 $445 $543 reversed $655 $-1 #
edge $-1 $544 -52.397839289529102 $656 52.397839289529102 $542 $657 forward 7 unknown #
vertex $-1 $446 $658 #
straight-curve $-1 -52.397839289529102 0 6.6961934770505369 0 -1 0 I I #
coedge $-1 $454 $451 $456 $550 reversed $356 $-1 #
coedge $-1 $453 $452 $460 $554 reversed $277 $-1 #
vertex $-1 $550 $659 #
straight-curve $-1 -52.397839289529102 -21.27240018057249 0 0 0 -1 I I #
edge $-1 $548 -21.27240018057249 $552 21.27240018057249 $546 $660 forward 7 unknown #
straight-curve $-1 0 -21.27240018057249 -6.6961934770505369 -1 0 0 I I #
vertex $-1 $459 $661 #
straight-curve $-1 0 21.27240018057249 -6.6961934770505369 1 0 0 I I #
edge $-1 $465 -6.6961934770505369 $462 6.6961934770505369 $460 $662 forward 7 unknown #
point $-1 52.397839289529102 21.27240018057249 -6.6961934770505369 #
point $-1 52.397839289529102 -21.27240018057249 -6.6961934770505369 #
straight-curve $-1 0 -21.27240018057249 6.6961934770505369 1 0 0 I I #
point $-1 52.397839289529102 -21.27240018057249 6.6961934770505369 #
point $-1 -52.397839289529102 -21.27240018057249 6.6961934770505369 #
straight-curve $-1 -52.397839289529102 21.27240018057249 0 0 0 -1 I I #
face $-1 $486 $584 $17 $-1 $663 reversed single #
loop $-1 $-1 $664 $471 #
plane-surface $-1 -52.397839289529102 0 0 1 0 0 0 0 -1 forward_v I I I I #
coedge $-1 $665 $666 $667 $668 forward $472 $-1 #
coedge $-1 $669 $474 $665 $670 forward $381 $-1 #
coedge $-1 $474 $669 $671 $672 forward $381 $-1 #
coedge $-1 $485 $673 $474 $568 reversed $394 $-1 #
edge $-1 $674 -21.27240018057249 $675 21.27240018057249 $567 $676 forward 7 unknown #
coedge $-1 $475 $487 $666 $677 forward $298 $-1 #
coedge $-1 $673 $476 $475 $571 reversed $394 $-1 #
edge $-1 $678 -21.27240018057249 $479 4.9615692789292343 $570 $491 forward 7 unknown #
vertex $-1 $483 $679 #
straight-curve $-1 52.397839289529102 4.9615692789292343 73.523280054202473 0 0 1 I I #
straight-curve $-1 -33.44575450872852 4.9615692789292343 61.202966310147332 -0.81915203911291934 0 0.57357644374324357 I I #
point $-1 52.397839289529102 4.9615692789292343 6.6961934770505369 #
point $-1 44.397982971680968 4.9615692789292343 6.6961934770505351 #
straight-curve $-1 52.397839289529102 4.8117917464988551 1.0946336711111151 0 -1 0 I I #
coedge $-1 $671 $488 $485 $579 forward $584 $-1 #
edge $-1 $490 -6.6961934770505369 $674 6.6961934770505369 $485 $680 forward 7 unknown #
plane-surface $-1 52.397839289529102 0 0 -1 0 0 0 0 1 forward_v I I I I #
coedge $-1 $664 $667 $487 $582 reversed $562 $-1 #
edge $-1 $585 -21.27240018057249 $681 21.27240018057249 $581 $682 forward 7 unknown #
coedge $-1 $488 $671 $664 $683 reversed $584 $-1 #
loop $-1 $-1 $578 $561 #
vertex $-1 $489 $684 #
straight-curve $-1 0 21.27240018057249 6.6961934770505369 -1 0 0 I I #
point $-1 52.397839289529102 21.27240018057249 6.6961934770505369 #
face $-1 $522 $610 $18 $-1 $685 reversed single #
loop $-1 $-1 $514 $492 #
plane-surface $-1 26.662578130307693 4.9615692789292343 147.04656010840495 0 1 0 0.57357644374324357 0 0.81915203911291934 forward_v I I I I #
loop $-1 $-1 $616 $401 #
coedge $-1 $593 $495 $686 $687 forward $402 $-1 #
coedge $-1 $495 $592 $688 $689 reversed $402 $-1 #
coedge $-1 $500 $513 $495 $595 forward $145 $-1 #
edge $-1 $690 31.066693906527121 $691 39.066550224375256 $594 $692 forward 7 unknown #
edge $-1 $693 1 $693 0 $496 $-1 forward 7 unknown #
vertex $-1 $497 $694 #
ellipse-curve $-1 45.248535861202626 9.6235834929977138 -0.60236035301166879 0.57357644374324357 0 0.81915203911291934 1.228728058669379 0 -0.86036466561486535 1 I I #
point $-1 49.626639189274435 9.6235834929977138 3.035048908465968 #
coedge $-1 $688 $695 $500 $601 reversed $518 $-1 #
edge $-1 $691 14.285597707066186 $604 21.27240018057249 $600 $520 forward 7 unknown #
coedge $-1 $696 $501 $695 $697 forward $511 $-1 #
coedge $-1 $501 $696 $503 $606 reversed $511 $-1 #
vertex $-1 $601 $698 #
straight-curve $-1 0 21.27240018057249 6.6961934770505369 -1 0 0 I I #
edge $-1 $504 -6.6961934770505369 $611 6.6961934770505369 $603 $699 forward 7 unknown #
point $-1 -52.397839289529102 21.27240018057249 6.6961934770505369 #
coedge $-1 $700 $505 $696 $701 forward $610 $-1 #
coedge $-1 $505 $700 $507 $613 forward $610 $-1 #
loop $-1 $-1 $700 $588 #
vertex $-1 $701 $702 #
straight-curve $-1 -52.397839289529102 0 -6.6961934770505369 0 1 0 I I #
edge $-1 $626 -52.397839289529102 $508 52.397839289529102 $507 $703 forward 7 unknown #
point $-1 -52.397839289529102 -21.27240018057249 -6.6961934770505369 #
plane-surface $-1 52.397839289529102 0 0 -1 0 0 0 0 1 forward_v I I I I #
coedge $-1 $704 $686 $513 $617 reversed $591 $-1 #
edge $-1 $620 0.14977753243037917 $690 9.473805960567331 $513 $705 forward 7 unknown #
coedge $-1 $619 $514 $517 $624 reversed $589 $-1 #
coedge $-1 $514 $618 $704 $706 forward $589 $-1 #
vertex $-1 $617 $707 #
straight-curve $-1 13.331289065153847 4.9615692789292343 6.6961934770505422 -1 0 0 I I #
coedge $-1 $695 $516 $700 $708 reversed $518 $-1 #
coedge $-1 $517 $688 $709 $710 forward $518 $-1 #
edge $-1 $711 -72.428646383091348 $519 -66.827086577151931 $517 $712 forward 7 unknown #
point $-1 52.397839289529102 4.9615692789292343 6.6961934770505369 #
vertex $-1 $521 $713 #
straight-curve $-1 52.397839289529102 -21.27240018057249 0 0 0 -1 I I #
plane-surface $-1 0 -21.27240018057249 0 0 1 0 0 0 1 forward_v I I I I #
face $-1 $714 $715 $19 $-1 $716 forward single #
loop $-1 $-1 $717 $524 #
plane-surface $-1 26.662578130307693 14.285597707066186 147.04656010840495 0 -1 0 -0.57357644374324357 0 -0.81915203911291934 forward_v I I I I #
loop $-1 $-1 $718 $429 #
coedge $-1 $633 $633 $634 $719 forward $525 $-1 #
coedge $-1 $634 $634 $633 $719 reversed $527 $-1 #
coedge $-1 $635 $635 $528 $636 forward $715 $-1 #
edge $-1 $720 0 $720 6.2831853071796004 $635 $721 forward 7 unknown #
coedge $-1 $529 $722 $723 $724 forward $336 $-1 #
coedge $-1 $725 $530 $529 $639 reversed $443 $-1 #
edge $-1 $726 -21.27240018057249 $533 -14.285597707066186 $638 $545 forward 7 unknown #
vertex $-1 $537 $727 #
straight-curve $-1 -52.397839289529102 14.285597707066186 43.46911373468437 0 0 1 I I #
straight-curve $-1 -52.397839289529109 14.285597707066186 1.0946336711111258 0.81915203911291934 0 0.57357644374324357 I I #
point $-1 -52.397839289529102 14.285597707066186 6.6961934770505369 #
point $-1 -44.397982971681003 14.285597707066186 6.6961934770505369 #
straight-curve $-1 -52.397839289529102 4.8117917464988551 1.0946336711111304 0 1 0 I I #
coedge $-1 $539 $725 $728 $729 reversed $443 $-1 #
coedge $-1 $730 $542 $539 $648 forward $655 $-1 #
edge $-1 $544 -6.6961934770505369 $731 6.6961934770505369 $539 $732 forward 7 unknown #
face $-1 $733 $734 $19 $-1 $735 reversed single #
plane-surface $-1 -52.397839289529102 0 0 1 0 0 0 0 -1 forward_v I I I I #
coedge $-1 $736 $541 $737 $738 forward $336 $-1 #
coedge $-1 $739 $740 $541 $653 reversed $741 $-1 #
edge $-1 $656 -21.27240018057249 $742 4.9615692789292343 $652 $743 forward 7 unknown #
coedge $-1 $542 $730 $739 $744 reversed $655 $-1 #
loop $-1 $-1 $647 $745 #
vertex $-1 $653 $746 #
straight-curve $-1 0 -21.27240018057249 6.6961934770505369 1 0 0 I I #
point $-1 -52.397839289529102 -21.27240018057249 6.6961934770505369 #
point $-1 -52.397839289529102 -21.27240018057249 -6.6961934770505369 #
straight-curve $-1 -52.397839289529102 0 -6.6961934770505369 0 1 0 I I #
point $-1 -52.397839289529102 21.27240018057249 -6.6961934770505369 #
straight-curve $-1 52.397839289529102 -21.27240018057249 0 0 0 -1 I I #
plane-surface $-1 0 21.27240018057249 0 0 -1 0 0 0 -1 forward_v I I I I #
coedge $-1 $747 $581 $583 $683 forward $562 $-1 #
coedge $-1 $748 $564 $565 $670 reversed $472 $-1 #
coedge $-1 $564 $748 $569 $677 reversed $472 $-1 #
coedge $-1 $581 $747 $564 $668 reversed $562 $-1 #
edge $-1 $681 -6.6961934770505369 $749 6.6961934770505369 $667 $750 forward 7 unknown #
coedge $-1 $566 $565 $747 $751 forward $381 $-1 #
edge $-1 $675 -52.397839289529102 $749 52.397839289529102 $665 $752 forward 7 unknown #
coedge $-1 $583 $578 $566 $672 reversed $584 $-1 #
edge $-1 $753 -52.397839289529102 $674 52.397839289529102 $671 $754 forward 7 unknown #
coedge $-1 $567 $570 $748 $755 forward $394 $-1 #
vertex $-1 $568 $756 #
vertex $-1 $755 $757 #
straight-curve $-1 52.397839289529102 0 -6.6961934770505369 0 -1 0 I I #
edge $-1 $681 -52.397839289529102 $678 52.397839289529102 $666 $758 forward 7 unknown #
vertex $-1 $571 $759 #
point $-1 52.397839289529095 4.9615692789292343 1.0946336711111186 #
straight-curve $-1 52.397839289529102 21.27240018057249 0 0 0 -1 I I #
vertex $-1 $582 $760 #
straight-curve $-1 -52.397839289529102 0 6.6961934770505369 0 -1 0 I I #
edge $-1 $585 -6.6961934770505369 $753 6.6961934770505369 $583 $761 forward 7 unknown #
point $-1 -52.397839289529102 21.27240018057249 6.6961934770505369 #
plane-surface $-1 0 0 -6.6961934770505369 0 0 1 1 0 0 forward_v I I I I #
coedge $-1 $616 $709 $592 $687 reversed $591 $-1 #
edge $-1 $690 95.029657210776719 $762 104.7956785790582 $592 $763 forward 7 unknown #
coedge $-1 $623 $600 $593 $689 forward $518 $-1 #
edge $-1 $691 66.827086577151931 $762 72.428646383091348 $688 $764 forward 7 unknown #
vertex $-1 $617 $765 #
vertex $-1 $601 $766 #
straight-curve $-1 13.331289065153847 14.285597707066186 6.6961934770505422 1 0 0 I I #
vertex $-1 $596 $767 #
point $-1 46.477263919872001 9.6235834929977138 -1.4627250186265341 #
coedge $-1 $600 $622 $602 $697 reversed $518 $-1 #
coedge $-1 $603 $602 $608 $701 reversed $511 $-1 #
edge $-1 $604 -6.6961934770505369 $768 6.6961934770505369 $695 $769 forward 7 unknown #
point $-1 52.397839289529102 21.27240018057249 6.6961934770505369 #
straight-curve $-1 -52.397839289529102 21.27240018057249 0 0 0 -1 I I #
coedge $-1 $609 $608 $622 $708 forward $610 $-1 #
edge $-1 $611 -52.397839289529102 $768 52.397839289529102 $696 $770 forward 7 unknown #
point $-1 -52.397839289529102 21.27240018057249 -6.6961934770505369 #
straight-curve $-1 0 -21.27240018057249 -6.6961934770505369 -1 0 0 I I #
coedge $-1 $709 $616 $619 $706 reversed $591 $-1 #
straight-curve $-1 44.397982971680975 4.8117917464988551 6.6961934770505422 0 1 0 I I #
edge $-1 $711 -104.7956785790582 $620 -95.029657210776719 $619 $771 forward 7 unknown #
point $-1 44.397982971680968 4.9615692789292343 6.6961934770505351 #
edge $-1 $768 -21.27240018057249 $626 21.27240018057249 $622 $772 forward 7 unknown #
coedge $-1 $686 $704 $623 $710 reversed $591 $-1 #
edge $-1 $762 -9.473805960567331 $711 -0.14977753243037917 $623 $773 forward 7 unknown #
vertex $-1 $710 $774 #
straight-curve $-1 52.397839289529102 4.9615692789292343 73.523280054202473 0 0 1 I I #
point $-1 52.397839289529102 -21.27240018057249 -6.6961934770505369 #
face $-1 $775 $776 $19 $-1 $777 forward single #
loop $-1 $778 $635 $629 #
plane-surface $-1 -33.44575450872852 9.6235834929977102 61.202966310147332 0.57357644374324357 0 0.81915203911291934 0.81915203911291934 0 -0.57357644374324357 forward_v I I I I #
coedge $-1 $779 $780 $781 $782 reversed $630 $-1 #
coedge $-1 $718 $718 $-1 $783 forward $632 $-1 #
edge $-1 $784 0 $784 6.2831853071796004 $633 $785 forward 7 unknown #
vertex $-1 $636 $786 #
ellipse-curve $-1 48.397911130605046 9.6235834929977138 3.8954135740808216 -0.57357644374324357 0 -0.81915203911291934 1.228728058669379 0 -0.86036466561486535 1 I I #
coedge $-1 $637 $781 $787 $788 forward $336 $-1 #
coedge $-1 $789 $790 $637 $724 reversed $734 $-1 #
edge $-1 $791 -52.397839289529102 $726 52.397839289529102 $723 $792 forward 7 unknown #
coedge $-1 $646 $638 $790 $793 forward $443 $-1 #
vertex $-1 $724 $794 #
point $-1 -52.397839289529102 14.285597707066186 1.0946336711111306 #
coedge $-1 $795 $796 $646 $729 forward $797 $-1 #
edge $-1 $731 -21.27240018057249 $798 21.27240018057249 $646 $799 forward 7 unknown #
coedge $-1 $654 $647 $796 $800 reversed $655 $-1 #
vertex $-1 $729 $801 #
straight-curve $-1 -52.397839289529102 -21.27240018057249 0 0 0 -1 I I #
face $-1 $-1 $741 $19 $-1 $802 reversed single #
loop $-1 $-1 $789 $649 #
plane-surface $-1 0 21.27240018057249 0 0 -1 0 0 0 -1 forward_v I I I I #
coedge $-1 $781 $651 $803 $804 forward $336 $-1 #
coedge $-1 $805 $806 $651 $738 reversed $776 $-1 #
edge $-1 $742 -39.066550224375256 $807 -31.066693906527121 $651 $808 forward 7 unknown #
coedge $-1 $809 $652 $654 $744 forward $741 $-1 #
coedge $-1 $652 $810 $805 $811 forward $741 $-1 #
loop $-1 $-1 $740 $733 #
vertex $-1 $811 $812 #
straight-curve $-1 52.397839289529102 0 6.6961934770505369 0 1 0 I I #
edge $-1 $656 -6.6961934770505369 $813 6.6961934770505369 $739 $814 forward 7 unknown #
face $-1 $540 $655 $19 $-1 $815 reversed single #
point $-1 52.397839289529102 -21.27240018057249 6.6961934770505369 #
coedge $-1 $667 $664 $669 $751 reversed $562 $-1 #
coedge $-1 $666 $665 $673 $755 reversed $472 $-1 #
vertex $-1 $751 $816 #
straight-curve $-1 -52.397839289529102 -21.27240018057249 0 0 0 -1 I I #
edge $-1 $749 -21.27240018057249 $753 21.27240018057249 $747 $817 forward 7 unknown #
straight-curve $-1 0 -21.27240018057249 -6.6961934770505369 -1 0 0 I I #
vertex $-1 $672 $818 #
straight-curve $-1 0 21.27240018057249 -6.6961934770505369 1 0 0 I I #
edge $-1 $678 -6.6961934770505369 $675 6.6961934770505369 $673 $819 forward 7 unknown #
point $-1 52.397839289529102 21.27240018057249 -6.6961934770505369 #
point $-1 52.397839289529102 -21.27240018057249 -6.6961934770505369 #
straight-curve $-1 0 -21.27240018057249 6.6961934770505369 1 0 0 I I #
point $-1 52.397839289529102 -21.27240018057249 6.6961934770505369 #
point $-1 -52.397839289529102 -21.27240018057249 6.6961934770505369 #
straight-curve $-1 -52.397839289529102 21.27240018057249 0 0 0 -1 I I #
vertex $-1 $710 $820 #
straight-curve $-1 -33.44575450872852 14.285597707066186 61.202966310147332 0.81915203911291934 0 -0.57357644374324357 I I #
straight-curve $-1 52.397839289529102 14.285597707066186 73.523280054202473 0 0 -1 I I #
point $-1 44.397982971680968 14.285597707066186 6.6961934770505351 #
point $-1 52.397839289529102 14.285597707066186 6.6961934770505369 #
point $-1 44.388171195587759 9.6235834929977138 -1.8310884116810477 #
vertex $-1 $708 $821 #
straight-curve $-1 52.397839289529102 21.27240018057249 0 0 0 -1 I I #
straight-curve $-1 0 21.27240018057249 -6.6961934770505369 1 0 0 I I #
straight-curve $-1 -33.44575450872852 4.9615692789292343 61.202966310147332 -0.81915203911291934 0 0.57357644374324357 I I #
straight-curve $-1 52.397839289529102 0 -6.6961934770505369 0 -1 0 I I #
straight-curve $-1 52.397839289529102 4.8117917464988551 1.0946336711111151 0 -1 0 I I #
point $-1 52.397839289529095 4.9615692789292343 1.0946336711111186 #
face $-1 $745 $797 $19 $-1 $822 reversed single #
loop $-1 $-1 $737 $714 #
plane-surface $-1 26.662578130307693 4.9615692789292343 147.04656010840495 0 1 0 0.57357644374324357 0 0.81915203911291934 forward_v I I I I #
loop $-1 $-1 $803 $629 #
coedge $-1 $780 $717 $823 $824 forward $630 $-1 #
coedge $-1 $717 $779 $825 $826 reversed $630 $-1 #
coedge $-1 $722 $736 $717 $782 forward $336 $-1 #
edge $-1 $827 31.066693906527121 $828 39.066550224375256 $781 $829 forward 7 unknown #
edge $-1 $830 1 $830 0 $718 $-1 forward 7 unknown #
vertex $-1 $719 $831 #
ellipse-curve $-1 45.248535861202626 9.6235834929977138 -0.60236035301166879 0.57357644374324357 0 0.81915203911291934 1.228728058669379 0 -0.86036466561486535 1 I I #
point $-1 49.626639189274435 9.6235834929977138 3.035048908465968 #
coedge $-1 $825 $832 $722 $788 reversed $741 $-1 #
edge $-1 $828 14.285597707066186 $791 21.27240018057249 $787 $743 forward 7 unknown #
coedge $-1 $833 $723 $832 $834 forward $734 $-1 #
coedge $-1 $723 $833 $725 $793 reversed $734 $-1 #
vertex $-1 $788 $835 #
straight-curve $-1 0 21.27240018057249 6.6961934770505369 -1 0 0 I I #
edge $-1 $726 -6.6961934770505369 $798 6.6961934770505369 $790 $836 forward 7 unknown #
point $-1 -52.397839289529102 21.27240018057249 6.6961934770505369 #
coedge $-1 $837 $728 $833 $838 forward $797 $-1 #
coedge $-1 $728 $837 $730 $800 forward $797 $-1 #
loop $-1 $-1 $837 $775 #
vertex $-1 $838 $839 #
straight-curve $-1 -52.397839289529102 0 -6.6961934770505369 0 1 0 I I #
edge $-1 $813 -52.397839289529102 $731 52.397839289529102 $730 $840 forward 7 unknown #
point $-1 -52.397839289529102 -21.27240018057249 -6.6961934770505369 #
plane-surface $-1 52.397839289529102 0 0 -1 0 0 0 0 1 forward_v I I I I #
coedge $-1 $841 $823 $736 $804 reversed $778 $-1 #
edge $-1 $807 0.14977753243037917 $827 9.473805960567331 $736 $842 forward 7 unknown #
coedge $-1 $806 $737 $740 $811 reversed $776 $-1 #
coedge $-1 $737 $805 $841 $843 forward $776 $-1 #
vertex $-1 $804 $844 #
straight-curve $-1 13.331289065153847 4.9615692789292343 6.6961934770505422 -1 0 0 I I #
coedge $-1 $832 $739 $837 $845 reversed $741 $-1 #
coedge $-1 $740 $825 $846 $847 forward $741 $-1 #
edge $-1 $848 -72.428646383091348 $742 -66.827086577151931 $740 $849 forward 7 unknown #
point $-1 52.397839289529102 4.9615692789292343 6.6961934770505369 #
vertex $-1 $744 $850 #
straight-curve $-1 52.397839289529102 -21.27240018057249 0 0 0 -1 I I #
plane-surface $-1 0 -21.27240018057249 0 0 1 0 0 0 1 forward_v I I I I #
point $-1 -52.397839289529102 -21.27240018057249 -6.6961934770505369 #
straight-curve $-1 -52.397839289529102 0 -6.6961934770505369 0 1 0 I I #
point $-1 -52.397839289529102 21.27240018057249 -6.6961934770505369 #
straight-curve $-1 52.397839289529102 -21.27240018057249 0 0 0 -1 I I #
point $-1 52.397839289529095 14.285597707066186 1.0946336711111186 #
point $-1 52.397839289529102 21.27240018057249 -6.6961934770505369 #
plane-surface $-1 0 0 -6.6961934770505369 0 0 1 1 0 0 forward_v I I I I #
coedge $-1 $803 $846 $779 $824 reversed $778 $-1 #
edge $-1 $827 95.029657210776719 $851 104.7956785790582 $779 $852 forward 7 unknown #
coedge $-1 $810 $787 $780 $826 forward $741 $-1 #
edge $-1 $828 66.827086577151931 $851 72.428646383091348 $825 $853 forward 7 unknown #
vertex $-1 $804 $854 #
vertex $-1 $788 $855 #
straight-curve $-1 13.331289065153847 14.285597707066186 6.6961934770505422 1 0 0 I I #
vertex $-1 $783 $856 #
point $-1 46.477263919872001 9.6235834929977138 -1.4627250186265341 #
coedge $-1 $787 $809 $789 $834 reversed $741 $-1 #
coedge $-1 $790 $789 $795 $838 reversed $734 $-1 #
edge $-1 $791 -6.6961934770505369 $857 6.6961934770505369 $832 $858 forward 7 unknown #
point $-1 52.397839289529102 21.27240018057249 6.6961934770505369 #
straight-curve $-1 -52.397839289529102 21.27240018057249 0 0 0 -1 I I #
coedge $-1 $796 $795 $809 $845 forward $797 $-1 #
edge $-1 $798 -52.397839289529102 $857 52.397839289529102 $833 $859 forward 7 unknown #
point $-1 -52.397839289529102 21.27240018057249 -6.6961934770505369 #
straight-curve $-1 0 -21.27240018057249 -6.6961934770505369 -1 0 0 I I #
coedge $-1 $846 $803 $806 $843 reversed $778 $-1 #
straight-curve $-1 44.397982971680975 4.8117917464988551 6.6961934770505422 0 1 0 I I #
edge $-1 $848 -104.7956785790582 $807 -95.029657210776719 $806 $860 forward 7 unknown #
point $-1 44.397982971680968 4.9615692789292343 6.6961934770505351 #
edge $-1 $857 -21.27240018057249 $813 21.27240018057249 $809 $861 forward 7 unknown #
coedge $-1 $823 $841 $810 $847 reversed $778 $-1 #
edge $-1 $851 -9.473805960567331 $848 -0.14977753243037917 $810 $862 forward 7 unknown #
vertex $-1 $847 $863 #
straight-curve $-1 52.397839289529102 4.9615692789292343 73.523280054202473 0 0 1 I I #
point $-1 52.397839289529102 -21.27240018057249 -6.6961934770505369 #
vertex $-1 $847 $864 #
straight-curve $-1 -33.44575450872852 14.285597707066186 61.202966310147332 0.81915203911291934 0 -0.57357644374324357 I I #
straight-curve $-1 52.397839289529102 14.285597707066186 73.523280054202473 0 0 -1 I I #
point $-1 44.397982971680968 14.285597707066186 6.6961934770505351 #
point $-1 52.397839289529102 14.285597707066186 6.6961934770505369 #
point $-1 44.388171195587759 9.6235834929977138 -1.8310884116810477 #
vertex $-1 $845 $865 #
straight-curve $-1 52.397839289529102 21.27240018057249 0 0 0 -1 I I #
straight-curve $-1 0 21.27240018057249 -6.6961934770505369 1 0 0 I I #
straight-curve $-1 -33.44575450872852 4.9615692789292343 61.202966310147332 -0.81915203911291934 0 0.57357644374324357 I I #
straight-curve $-1 52.397839289529102 0 -6.6961934770505369 0 -1 0 I I #
straight-curve $-1 52.397839289529102 4.8117917464988551 1.0946336711111151 0 -1 0 I I #
point $-1 52.397839289529095 4.9615692789292343 1.0946336711111186 #
point $-1 52.397839289529095 14.285597707066186 1.0946336711111186 #
point $-1 52.397839289529102 21.27240018057249 -6.6961934770505369 #
End-of-ACIS-data 