500 0 5 0           
7 Unknown 11 ACIS 5.0 NT 24 Fri Mar 26 02:43:51 1999 
-1 9.9999999999999995e-007 1e-010 
body $-1 $5 $-1 $6 #
body $-1 $7 $-1 $8 #
body $-1 $9 $-1 $10 #
body $-1 $11 $-1 $12 #
body $-1 $13 $-1 $14 #
lump $-1 $-1 $15 $0 #
transform $-1 1 0 0 0 1 0 0 0 1 64.446546830652792 37.525800050521561 18.34580671862911 1 rotate no_reflect no_shear #
lump $-1 $-1 $16 $1 #
transform $-1 1 0 0 0 1 0 0 0 1 64.446546830652792 37.525800050521561 18.34580671862911 1 rotate no_reflect no_shear #
lump $-1 $-1 $17 $2 #
transform $-1 1 0 0 0 1 0 0 0 1 64.446546830652792 37.525800050521561 18.34580671862911 1 rotate no_reflect no_shear #
lump $-1 $-1 $18 $3 #
transform $-1 1 0 0 0 1 0 0 0 1 64.446546830652792 37.525800050521561 18.34580671862911 1 rotate no_reflect no_shear #
lump $-1 $-1 $19 $4 #
transform $-1 1 0 0 0 1 0 0 0 1 64.446546830652792 37.525800050521561 18.34580671862911 1 rotate no_reflect no_shear #
shell $-1 $-1 $-1 $20 $-1 $5 #
shell $-1 $-1 $-1 $21 $-1 $7 #
shell $-1 $-1 $-1 $22 $-1 $9 #
shell $-1 $-1 $-1 $23 $-1 $11 #
shell $-1 $-1 $-1 $24 $-1 $13 #
face $-1 $25 $26 $15 $-1 $27 forward single #
face $-1 $28 $29 $16 $-1 $30 forward single #
face $-1 $31 $32 $17 $-1 $33 reversed single #
face $-1 $34 $35 $18 $-1 $36 forward single #
face $-1 $37 $38 $19 $-1 $39 forward single #
face $-1 $40 $41 $15 $-1 $42 reversed single #
loop $-1 $-1 $43 $20 #
plane-surface $-1 0 0 18.34580671862911 0 0 1 1 0 0 forward_v I I I I #
face $-1 $44 $45 $16 $-1 $46 forward single #
loop $-1 $-1 $47 $21 #
plane-surface $-1 -64.446546830652792 0 0 1 0 0 0 0 -1 forward_v I I I I #
face $-1 $48 $49 $17 $-1 $50 reversed single #
loop $-1 $-1 $51 $22 #
plane-surface $-1 3.2560779818482857 104.74861501708185 135.45733311573613 1 0 0 0 -0.83867057594974714 -0.54463902268945019 forward_v I I I I #
face $-1 $52 $53 $18 $-1 $54 forward single #
loop $-1 $55 $56 $23 #
cone-surface $-1 9.8842473103293855 31.214460520862239 9.6116917504142787 0 -0.83867057594974714 -0.54463902268945019 1.5 0 0 1 I I 0 1 1.5 forward I I I I #
face $-1 $57 $58 $19 $-1 $59 forward single #
loop $-1 $60 $61 $24 #
cone-surface $-1 19.826501303051046 31.214460520862239 9.6116917504142787 0 -0.83867057594974714 -0.54463902268945019 1.5 0 0 1 I I 0 1 1.5 forward I I I I #
face $-1 $62 $63 $15 $-1 $64 reversed single #
loop $-1 $-1 $65 $25 #
plane-surface $-1 0 0 -18.34580671862911 0 0 1 1 0 0 forward_v I I I I #
coedge $-1 $66 $67 $68 $69 forward $26 $-1 #
face $-1 $70 $71 $16 $-1 $72 reversed single #
loop $-1 $-1 $73 $28 #
plane-surface $-1 0 0 18.34580671862911 0 0 1 1 0 0 forward_v I I I I #
coedge $-1 $74 $75 $76 $77 forward $29 $-1 #
face $-1 $78 $79 $17 $-1 $80 reversed single #
loop $-1 $-1 $81 $31 #
plane-surface $-1 14.855374306690223 -3.3502300797900375 65.257124552622884 0 0.83867057594974714 0.54463902268945019 1 0 0 forward_v I I I I #
coedge $-1 $82 $83 $84 $85 reversed $32 $-1 #
face $-1 $-1 $86 $18 $-1 $87 forward single #
loop $-1 $88 $89 $34 #
cone-surface $-1 9.8842473103293855 29.479850610343171 8.485222939531436 0 -0.83867057594974714 -0.54463902268945019 0.75 0 0 1 I I -0.70710678118654757 0.70710678118654757 0.75 forward I I I I #
loop $-1 $-1 $90 $23 #
coedge $-1 $56 $56 $91 $92 reversed $35 $-1 #
face $-1 $-1 $93 $19 $-1 $94 forward single #
loop $-1 $95 $96 $37 #
cone-surface $-1 19.826501303051046 29.479850610343171 8.485222939531436 0 -0.83867057594974714 -0.54463902268945019 0.75 0 0 1 I I -0.70710678118654757 0.70710678118654757 0.75 forward I I I I #
loop $-1 $-1 $97 $24 #
coedge $-1 $61 $61 $98 $99 reversed $38 $-1 #
face $-1 $100 $101 $15 $-1 $102 reversed single #
loop $-1 $-1 $103 $40 #
plane-surface $-1 0 -37.525800050521561 0 0 1 0 0 0 1 forward_v I I I I #
coedge $-1 $104 $105 $106 $107 forward $41 $-1 #
coedge $-1 $108 $43 $109 $110 forward $26 $-1 #
coedge $-1 $43 $108 $111 $112 forward $26 $-1 #
coedge $-1 $113 $114 $43 $69 reversed $115 $-1 #
edge $-1 $116 -37.525800050521561 $117 37.525800050521561 $68 $118 forward 7 unknown #
face $-1 $119 $120 $16 $-1 $121 reversed single #
loop $-1 $-1 $122 $44 #
plane-surface $-1 -77.92608730546651 -33.295800223258922 0 1 0 0 0 0 -1 forward_v I I I I #
coedge $-1 $123 $124 $74 $125 forward $45 $-1 #
coedge $-1 $126 $47 $73 $125 reversed $29 $-1 #
coedge $-1 $47 $126 $127 $128 reversed $29 $-1 #
coedge $-1 $129 $130 $47 $77 reversed $120 $-1 #
edge $-1 $131 -18.34580671862911 $132 18.34580671862911 $76 $133 forward 7 unknown #
face $-1 $134 $135 $17 $-1 $136 forward single #
loop $-1 $-1 $137 $48 #
plane-surface $-1 26.45467063153216 104.74861501708185 135.45733311573613 -1 0 0 0 0.83867057594974714 0.54463902268945019 forward_v I I I I #
coedge $-1 $138 $139 $140 $141 reversed $49 $-1 #
coedge $-1 $83 $51 $142 $143 reversed $32 $-1 #
coedge $-1 $51 $82 $138 $144 reversed $32 $-1 #
coedge $-1 $140 $145 $51 $85 forward $135 $-1 #
edge $-1 $146 14.848507458019363 $147 25.259972560224529 $84 $148 forward 7 unknown #
loop $-1 $-1 $91 $52 #
plane-surface $-1 14.855374306690223 -3.3502300797900375 65.257124552622884 0 0.83867057594974714 0.54463902268945019 1 0 0 forward_v I I I I #
loop $-1 $-1 $149 $34 #
coedge $-1 $89 $89 $90 $150 reversed $53 $-1 #
coedge $-1 $90 $90 $89 $150 forward $55 $-1 #
coedge $-1 $91 $91 $56 $92 forward $86 $-1 #
edge $-1 $151 1.381045416673363e-015 $151 6.2831853071796022 $91 $152 forward 7 unknown #
loop $-1 $-1 $98 $57 #
plane-surface $-1 14.855374306690223 -3.3502300797900375 65.257124552622884 0 0.83867057594974714 0.54463902268945019 1 0 0 forward_v I I I I #
loop $-1 $-1 $153 $37 #
coedge $-1 $96 $96 $97 $154 reversed $58 $-1 #
coedge $-1 $97 $97 $96 $154 forward $60 $-1 #
coedge $-1 $98 $98 $61 $99 forward $93 $-1 #
edge $-1 $155 1.381045416673363e-015 $155 6.2831853071796022 $98 $156 forward 7 unknown #
face $-1 $157 $158 $15 $-1 $159 reversed single #
loop $-1 $-1 $160 $62 #
plane-surface $-1 -64.446546830652792 0 0 1 0 0 0 0 -1 forward_v I I I I #
coedge $-1 $161 $111 $162 $163 forward $63 $-1 #
coedge $-1 $164 $65 $161 $165 forward $41 $-1 #
coedge $-1 $65 $164 $166 $167 forward $41 $-1 #
coedge $-1 $114 $113 $65 $107 reversed $115 $-1 #
edge $-1 $168 -37.525800050521561 $169 37.525800050521561 $106 $170 forward 7 unknown #
coedge $-1 $67 $66 $171 $172 forward $26 $-1 #
coedge $-1 $173 $174 $66 $110 reversed $158 $-1 #
edge $-1 $117 -64.446546830652792 $175 64.446546830652792 $109 $176 forward 7 unknown #
coedge $-1 $103 $177 $67 $112 reversed $63 $-1 #
edge $-1 $178 -64.446546830652792 $116 64.446546830652792 $111 $179 forward 7 unknown #
coedge $-1 $106 $68 $177 $180 forward $115 $-1 #
coedge $-1 $68 $106 $173 $181 reversed $115 $-1 #
loop $-1 $-1 $113 $157 #
vertex $-1 $69 $182 #
vertex $-1 $69 $183 #
straight-curve $-1 64.446546830652792 0 18.34580671862911 0 1 0 I I #
face $-1 $184 $185 $16 $-1 $186 reversed single #
loop $-1 $-1 $76 $70 #
plane-surface $-1 -71.186317068059651 -29.065800395996288 0 0 -1 0 0 0 -1 forward_v I I I I #
coedge $-1 $187 $188 $189 $190 forward $71 $-1 #
coedge $-1 $191 $73 $130 $192 forward $45 $-1 #
coedge $-1 $73 $191 $193 $194 forward $45 $-1 #
edge $-1 $195 -37.525800050521561 $132 -29.065800395996288 $73 $196 forward 7 unknown #
coedge $-1 $75 $74 $197 $198 reversed $29 $-1 #
coedge $-1 $199 $200 $75 $128 forward $185 $-1 #
edge $-1 $131 29.065800395996288 $201 37.525800050521561 $127 $202 forward 7 unknown #
coedge $-1 $189 $76 $200 $203 reversed $120 $-1 #
coedge $-1 $76 $189 $123 $192 reversed $120 $-1 #
vertex $-1 $128 $204 #
vertex $-1 $192 $205 #
straight-curve $-1 -64.446546830652792 -29.065800395996288 0 0 0 1 I I #
face $-1 $-1 $206 $17 $-1 $207 reversed single #
loop $-1 $-1 $84 $78 #
plane-surface $-1 0 0 18.34580671862911 0 0 1 1 0 0 forward_v I I I I #
coedge $-1 $208 $209 $210 $211 reversed $79 $-1 #
coedge $-1 $212 $81 $83 $144 forward $49 $-1 #
coedge $-1 $81 $212 $208 $213 forward $49 $-1 #
coedge $-1 $210 $84 $81 $141 forward $135 $-1 #
edge $-1 $147 -4.1716091714968258 $214 19.026983478187049 $140 $215 forward 7 unknown #
coedge $-1 $216 $217 $82 $143 forward $206 $-1 #
edge $-1 $218 -65.415110687937158 $146 -49.382859839238961 $142 $219 forward 7 unknown #
edge $-1 $147 55.935332869964292 $218 75.051600101043178 $83 $220 forward 7 unknown #
coedge $-1 $84 $210 $216 $221 forward $135 $-1 #
vertex $-1 $143 $222 #
vertex $-1 $85 $223 #
straight-curve $-1 3.2560779818482857 52.374307508540923 18.345806718629106 0 -1 0 I I #
coedge $-1 $149 $149 $-1 $224 reversed $88 $-1 #
edge $-1 $225 0 $225 6.2831853071796004 $89 $226 forward 7 unknown #
vertex $-1 $92 $227 #
ellipse-curve $-1 9.8842473103293855 32.320067499418968 10.329681294280016 0 0.83867057594974714 0.54463902268945019 1.5 0 0 1 I I #
coedge $-1 $153 $153 $-1 $228 reversed $95 $-1 #
edge $-1 $229 0 $229 6.2831853071796004 $96 $230 forward 7 unknown #
vertex $-1 $99 $231 #
ellipse-curve $-1 19.826501303051046 32.320067499418968 10.329681294280016 0 0.83867057594974714 0.54463902268945019 1.5 0 0 1 I I #
face $-1 $-1 $115 $15 $-1 $232 reversed single #
loop $-1 $-1 $173 $100 #
plane-surface $-1 0 37.525800050521561 0 0 -1 0 0 0 -1 forward_v I I I I #
coedge $-1 $233 $171 $174 $234 forward $101 $-1 #
coedge $-1 $177 $103 $104 $165 reversed $63 $-1 #
coedge $-1 $171 $233 $103 $163 reversed $101 $-1 #
edge $-1 $178 -18.34580671862911 $235 18.34580671862911 $162 $236 forward 7 unknown #
coedge $-1 $105 $104 $233 $237 forward $41 $-1 #
edge $-1 $169 -64.446546830652792 $235 64.446546830652792 $161 $238 forward 7 unknown #
coedge $-1 $174 $173 $105 $167 reversed $158 $-1 #
edge $-1 $239 -64.446546830652792 $168 64.446546830652792 $166 $240 forward 7 unknown #
vertex $-1 $107 $241 #
vertex $-1 $180 $242 #
straight-curve $-1 64.446546830652792 0 -18.34580671862911 0 -1 0 I I #
coedge $-1 $160 $162 $108 $172 reversed $101 $-1 #
edge $-1 $175 -37.525800050521561 $178 37.525800050521561 $171 $243 forward 7 unknown #
coedge $-1 $166 $109 $114 $181 forward $158 $-1 #
coedge $-1 $109 $166 $160 $234 reversed $158 $-1 #
vertex $-1 $110 $244 #
straight-curve $-1 0 37.525800050521561 18.34580671862911 -1 0 0 I I #
coedge $-1 $111 $161 $113 $180 reversed $63 $-1 #
vertex $-1 $172 $245 #
straight-curve $-1 0 -37.525800050521561 18.34580671862911 1 0 0 I I #
edge $-1 $116 -18.34580671862911 $169 18.34580671862911 $113 $246 forward 7 unknown #
edge $-1 $117 -18.34580671862911 $168 18.34580671862911 $114 $247 forward 7 unknown #
point $-1 64.446546830652792 -37.525800050521561 18.34580671862911 #
point $-1 64.446546830652792 37.525800050521561 18.34580671862911 #
face $-1 $-1 $248 $16 $-1 $249 reversed single #
loop $-1 $-1 $127 $119 #
plane-surface $-1 0 0 -18.34580671862911 0 0 1 1 0 0 forward_v I I I I #
coedge $-1 $250 $122 $251 $252 reversed $71 $-1 #
coedge $-1 $122 $250 $191 $253 reversed $71 $-1 #
coedge $-1 $130 $129 $122 $190 reversed $120 $-1 #
edge $-1 $254 -18.34580671862911 $255 18.34580671862911 $189 $256 forward 7 unknown #
coedge $-1 $124 $123 $188 $253 forward $45 $-1 #
edge $-1 $132 -6.7397702374068587 $254 6.7397702374068587 $130 $257 forward 7 unknown #
coedge $-1 $258 $197 $124 $194 reversed $248 $-1 #
edge $-1 $259 -77.92608730546651 $195 -64.446546830652792 $193 $260 forward 7 unknown #
vertex $-1 $198 $261 #
straight-curve $-1 -64.446546830652792 0 18.34580671862911 0 1 0 I I #
coedge $-1 $193 $262 $126 $198 forward $248 $-1 #
edge $-1 $201 -18.34580671862911 $195 18.34580671862911 $197 $263 forward 7 unknown #
coedge $-1 $251 $127 $262 $264 forward $185 $-1 #
coedge $-1 $127 $251 $129 $203 forward $185 $-1 #
vertex $-1 $264 $265 #
straight-curve $-1 -64.446546830652792 0 -18.34580671862911 0 -1 0 I I #
edge $-1 $255 -6.7397702374068587 $131 6.7397702374068587 $129 $266 forward 7 unknown #
point $-1 -64.446546830652792 -29.065800395996288 -18.34580671862911 #
point $-1 -64.446546830652792 -29.065800395996288 18.34580671862911 #
loop $-1 $-1 $142 $134 #
plane-surface $-1 0 37.525800050521561 0 0 -1 0 0 0 -1 forward_v I I I I #
coedge $-1 $209 $137 $139 $213 reversed $79 $-1 #
coedge $-1 $137 $208 $267 $268 reversed $79 $-1 #
coedge $-1 $145 $140 $137 $211 forward $135 $-1 #
edge $-1 $214 -25.259972560224529 $269 -14.848507458019363 $210 $270 forward 7 unknown #
coedge $-1 $139 $138 $217 $271 reversed $49 $-1 #
edge $-1 $272 -75.051600101043178 $214 -55.935332869964292 $208 $273 forward 7 unknown #
vertex $-1 $141 $274 #
straight-curve $-1 7.4276871533451114 27.11433494831639 18.34580671862911 1 0 0 I I #
coedge $-1 $267 $142 $145 $221 reversed $206 $-1 #
coedge $-1 $142 $267 $212 $271 forward $206 $-1 #
vertex $-1 $143 $275 #
straight-curve $-1 3.2560779818482857 37.525800050521561 67.728666557868067 0 0 1 I I #
straight-curve $-1 3.2560779818482857 -3.3502300797900375 65.257124552622884 0 0.54463902268945019 -0.83867057594974714 I I #
edge $-1 $269 -26.45467063153216 $146 -3.2560779818482857 $216 $276 forward 7 unknown #
point $-1 3.2560779818482857 37.525800050521561 18.34580671862911 #
point $-1 3.2560779818482857 27.114334948316394 18.345806718629106 #
edge $-1 $277 1 $277 0 $149 $-1 forward 7 unknown #
vertex $-1 $150 $278 #
ellipse-curve $-1 9.8842473103293855 30.108853542305482 8.8937022065485234 0 0.83867057594974714 0.54463902268945019 1.5 0 0 1 I I #
point $-1 11.384247310329386 32.320067499418997 10.329681294280032 #
edge $-1 $279 1 $279 0 $153 $-1 forward 7 unknown #
vertex $-1 $154 $280 #
ellipse-curve $-1 19.826501303051046 30.108853542305482 8.8937022065485234 0 0.83867057594974714 0.54463902268945019 1.5 0 0 1 I I #
point $-1 21.326501303051046 32.320067499418997 10.329681294280032 #
plane-surface $-1 64.446546830652792 0 0 -1 0 0 0 0 1 forward_v I I I I #
coedge $-1 $162 $160 $164 $237 reversed $101 $-1 #
edge $-1 $175 -18.34580671862911 $239 18.34580671862911 $174 $281 forward 7 unknown #
vertex $-1 $237 $282 #
straight-curve $-1 -64.446546830652792 -37.525800050521561 0 0 0 -1 I I #
edge $-1 $235 -37.525800050521561 $239 37.525800050521561 $233 $283 forward 7 unknown #
straight-curve $-1 0 -37.525800050521561 -18.34580671862911 -1 0 0 I I #
vertex $-1 $167 $284 #
straight-curve $-1 0 37.525800050521561 -18.34580671862911 1 0 0 I I #
point $-1 64.446546830652792 37.525800050521561 -18.34580671862911 #
point $-1 64.446546830652792 -37.525800050521561 -18.34580671862911 #
straight-curve $-1 -64.446546830652792 0 18.34580671862911 0 -1 0 I I #
point $-1 -64.446546830652792 37.525800050521561 18.34580671862911 #
point $-1 -64.446546830652792 -37.525800050521561 18.34580671862911 #
straight-curve $-1 64.446546830652792 -37.525800050521561 0 0 0 -1 I I #
straight-curve $-1 64.446546830652792 37.525800050521561 0 0 0 -1 I I #
loop $-1 $-1 $197 $184 #
plane-surface $-1 0 -37.525800050521561 0 0 1 0 0 0 1 forward_v I I I I #
coedge $-1 $188 $187 $258 $285 reversed $71 $-1 #
coedge $-1 $200 $199 $187 $252 forward $185 $-1 #
edge $-1 $286 -4.2299998272626382 $255 4.2299998272626347 $187 $287 forward 7 unknown #
edge $-1 $254 -4.2299998272626347 $259 4.2299998272626382 $188 $288 forward 7 unknown #
vertex $-1 $192 $289 #
vertex $-1 $203 $290 #
straight-curve $-1 -77.92608730546651 -29.065800395996288 0 0 0 -1 I I #
straight-curve $-1 -71.186317068059651 -29.065800395996288 18.34580671862911 -1 0 0 I I #
coedge $-1 $262 $193 $250 $285 forward $248 $-1 #
vertex $-1 $253 $291 #
straight-curve $-1 0 -37.525800050521561 18.34580671862911 1 0 0 I I #
point $-1 -64.446546830652792 -37.525800050521561 18.34580671862911 #
coedge $-1 $197 $258 $199 $264 reversed $248 $-1 #
straight-curve $-1 -64.446546830652792 -37.525800050521561 0 0 0 1 I I #
edge $-1 $201 -6.7397702374068587 $286 6.7397702374068587 $262 $292 forward 7 unknown #
point $-1 -64.446546830652792 -37.525800050521561 -18.34580671862911 #
straight-curve $-1 -71.186317068059651 -29.065800395996288 -18.34580671862911 1 0 0 I I #
coedge $-1 $217 $216 $209 $268 forward $206 $-1 #
edge $-1 $269 49.382859839238961 $272 65.415110687937158 $267 $293 forward 7 unknown #
vertex $-1 $221 $294 #
straight-curve $-1 26.45467063153216 52.374307508540923 18.345806718629106 0 1 0 I I #
edge $-1 $272 -19.026983478187049 $218 4.1716091714968258 $217 $295 forward 7 unknown #
vertex $-1 $271 $296 #
straight-curve $-1 26.45467063153216 -3.3502300797900375 65.257124552622884 0 -0.54463902268945019 0.83867057594974714 I I #
point $-1 26.45467063153216 27.114334948316394 18.345806718629106 #
point $-1 3.2560779818482857 37.525800050521561 2.3135558699309016 #
straight-curve $-1 0 37.525800050521561 18.34580671862911 -1 0 0 I I #
vertex $-1 $224 $297 #
point $-1 11.384247310329386 30.108853542305482 8.8937022065485234 #
vertex $-1 $228 $298 #
point $-1 21.326501303051046 30.108853542305482 8.8937022065485234 #
straight-curve $-1 -64.446546830652792 37.525800050521561 0 0 0 -1 I I #
point $-1 -64.446546830652792 -37.525800050521561 -18.34580671862911 #
straight-curve $-1 -64.446546830652792 0 -18.34580671862911 0 1 0 I I #
point $-1 -64.446546830652792 37.525800050521561 -18.34580671862911 #
edge $-1 $259 -18.34580671862911 $286 18.34580671862911 $250 $299 forward 7 unknown #
vertex $-1 $252 $300 #
straight-curve $-1 -77.92608730546651 -33.295800223258922 -18.34580671862911 0 1 0 I I #
straight-curve $-1 -77.92608730546651 -33.295800223258922 18.34580671862911 0 -1 0 I I #
point $-1 -77.92608730546651 -29.065800395996288 18.34580671862911 #
point $-1 -77.92608730546651 -29.065800395996288 -18.34580671862911 #
point $-1 -77.92608730546651 -37.525800050521561 18.34580671862911 #
straight-curve $-1 -71.186317068059651 -37.525800050521561 -18.34580671862911 -1 0 0 I I #
straight-curve $-1 26.45467063153216 37.525800050521561 67.728666557868067 0 0 -1 I I #
point $-1 26.45467063153216 37.525800050521561 18.34580671862911 #
straight-curve $-1 7.4276871533451114 37.525800050521553 2.3135558699309051 -1 0 0 I I #
point $-1 26.45467063153216 37.525800050521561 2.3135558699309016 #
point $-1 9.8842473103293855 28.850847678380859 8.0767436725143487 #
point $-1 19.826501303051046 28.850847678380859 8.0767436725143487 #
straight-curve $-1 -77.92608730546651 -37.525800050521561 0 0 0 -1 I I #
point $-1 -77.92608730546651 -37.525800050521561 -18.34580671862911 #
End-of-ACIS-data 