500 0 11 0           
7 Unknown 11 ACIS 5.0 NT 24 Thu Mar 25 23:33:38 1999 
-1 9.9999999999999995e-007 1e-010 
body $-1 $11 $-1 $12 #
body $-1 $13 $-1 $14 #
body $-1 $15 $-1 $16 #
body $-1 $17 $-1 $18 #
body $-1 $19 $-1 $20 #
body $-1 $21 $-1 $22 #
body $-1 $23 $-1 $24 #
body $-1 $25 $-1 $26 #
body $-1 $27 $-1 $28 #
body $-1 $29 $-1 $30 #
body $-1 $31 $-1 $32 #
lump $-1 $-1 $33 $0 #
transform $-1 1 0 0 0 1 0 0 0 1 71.222876674703201 48.670523485873488 24.282234682527012 1 rotate no_reflect no_shear #
lump $-1 $-1 $34 $1 #
transform $-1 1 0 0 0 1 0 0 0 1 71.222876674703201 48.670523485873488 24.282234682527012 1 rotate no_reflect no_shear #
lump $-1 $-1 $35 $2 #
transform $-1 1 0 0 0 1 0 0 0 1 71.222876674703201 48.670523485873488 24.282234682527012 1 rotate no_reflect no_shear #
lump $-1 $-1 $36 $3 #
transform $-1 1 0 0 0 1 0 0 0 1 71.222876674703201 48.670523485873488 24.282234682527012 1 rotate no_reflect no_shear #
lump $-1 $-1 $37 $4 #
transform $-1 1 0 0 0 1 0 0 0 1 71.222876674703201 48.670523485873488 24.282234682527012 1 rotate no_reflect no_shear #
lump $-1 $-1 $38 $5 #
transform $-1 1 0 0 0 1 0 0 0 1 71.222876674703201 48.670523485873488 24.282234682527012 1 rotate no_reflect no_shear #
lump $-1 $-1 $39 $6 #
transform $-1 1 0 0 0 1 0 0 0 1 71.222876674703201 48.670523485873488 24.282234682527012 1 rotate no_reflect no_shear #
lump $-1 $-1 $40 $7 #
transform $-1 1 0 0 0 1 0 0 0 1 71.222876674703201 48.670523485873488 24.282234682527012 1 rotate no_reflect no_shear #
lump $-1 $-1 $41 $8 #
transform $-1 1 0 0 0 1 0 0 0 1 71.222876674703201 48.670523485873488 24.282234682527012 1 rotate no_reflect no_shear #
lump $-1 $-1 $42 $9 #
transform $-1 1 0 0 0 1 0 0 0 1 71.222876674703201 48.670523485873488 24.282234682527012 1 rotate no_reflect no_shear #
lump $-1 $-1 $43 $10 #
transform $-1 1 0 0 0 1 0 0 0 1 71.222876674703201 48.670523485873488 24.282234682527012 1 rotate no_reflect no_shear #
shell $-1 $-1 $-1 $44 $-1 $11 #
shell $-1 $-1 $-1 $45 $-1 $13 #
shell $-1 $-1 $-1 $46 $-1 $15 #
shell $-1 $-1 $-1 $47 $-1 $17 #
shell $-1 $-1 $-1 $48 $-1 $19 #
shell $-1 $-1 $-1 $49 $-1 $21 #
shell $-1 $-1 $-1 $50 $-1 $23 #
shell $-1 $-1 $-1 $51 $-1 $25 #
shell $-1 $-1 $-1 $52 $-1 $27 #
shell $-1 $-1 $-1 $53 $-1 $29 #
shell $-1 $-1 $-1 $54 $-1 $31 #
face $-1 $55 $56 $33 $-1 $57 forward single #
face $-1 $58 $59 $34 $-1 $60 forward single #
face $-1 $61 $62 $35 $-1 $63 forward single #
face $-1 $64 $65 $36 $-1 $66 reversed single #
face $-1 $67 $68 $37 $-1 $69 forward single #
face $-1 $70 $71 $38 $-1 $72 forward single #
face $-1 $73 $74 $39 $-1 $75 forward single #
face $-1 $76 $77 $40 $-1 $78 reversed single #
face $-1 $79 $80 $41 $-1 $81 forward single #
face $-1 $82 $83 $42 $-1 $84 forward single #
face $-1 $85 $86 $43 $-1 $87 forward single #
face $-1 $88 $89 $33 $-1 $90 reversed single #
loop $-1 $-1 $91 $44 #
plane-surface $-1 0 0 24.282234682527012 0 0 1 1 0 0 forward_v I I I I #
face $-1 $92 $93 $34 $-1 $94 reversed single #
loop $-1 $-1 $95 $45 #
plane-surface $-1 0 -39.567920196390268 -14.952467593502121 0 0 1 1 0 0 forward_v I I I I #
face $-1 $96 $97 $35 $-1 $98 reversed single #
loop $-1 $-1 $99 $46 #
plane-surface $-1 0 39.567920196390261 -14.952467593502121 0 0 1 1 0 0 forward_v I I I I #
face $-1 $100 $101 $36 $-1 $102 reversed single #
loop $-1 $-1 $103 $47 #
plane-surface $-1 102.73640161069426 27.64356113415262 207.43155998112252 0 -1 0 -0.80901700255871778 0 -0.5877852410284794 forward_v I I I I #
face $-1 $104 $105 $37 $-1 $106 forward single #
loop $-1 $107 $108 $48 #
cone-surface $-1 65.071699363383402 18.984631351381708 16.078730777350831 -0.80901700255871778 0 -0.5877852410284794 0.2938926205142397 0 -0.40450850127935889 1 I I 0 1 0.5 forward I I I I #
face $-1 $109 $110 $38 $-1 $111 forward single #
loop $-1 $112 $113 $49 #
cone-surface $-1 65.071699363383402 22.231730019920789 16.078730777350831 -0.80901700255871778 0 -0.5877852410284794 0.2938926205142397 0 -0.40450850127935889 1 I I 0 1 0.5 forward I I I I #
face $-1 $114 $115 $39 $-1 $116 forward single #
loop $-1 $117 $118 $50 #
cone-surface $-1 65.071699363383402 25.47882868845987 16.078730777350831 -0.80901700255871778 0 -0.5877852410284794 0.2938926205142397 0 -0.40450850127935889 1 I I 0 1 0.5 forward I I I I #
face $-1 $119 $120 $40 $-1 $121 reversed single #
loop $-1 $-1 $122 $51 #
plane-surface $-1 -186.46391307665843 16.819898905688987 92.190523579167319 0 1 0 -0.80901700255871778 0 0.5877852410284794 forward_v I I I I #
face $-1 $123 $124 $41 $-1 $125 forward single #
loop $-1 $126 $127 $52 #
cone-surface $-1 -65.071699363383388 18.984631351381708 16.078730777350831 0.80901700255871778 0 -0.5877852410284794 0.2938926205142397 0 0.40450850127935889 1 I I 0 1 0.5 forward I I I I #
face $-1 $128 $129 $42 $-1 $130 forward single #
loop $-1 $131 $132 $53 #
cone-surface $-1 -65.071699363383388 22.231730019920789 16.078730777350831 0.80901700255871778 0 -0.5877852410284794 0.2938926205142397 0 0.40450850127935889 1 I I 0 1 0.5 forward I I I I #
face $-1 $133 $134 $43 $-1 $135 forward single #
loop $-1 $136 $137 $54 #
cone-surface $-1 -65.071699363383388 25.47882868845987 16.078730777350831 0.80901700255871778 0 -0.5877852410284794 0.2938926205142397 0 0.40450850127935889 1 I I 0 1 0.5 forward I I I I #
face $-1 $138 $139 $33 $-1 $140 reversed single #
loop $-1 $-1 $141 $55 #
plane-surface $-1 0 0 -24.282234682527012 0 0 1 1 0 0 forward_v I I I I #
coedge $-1 $142 $143 $144 $145 forward $56 $-1 #
face $-1 $146 $147 $34 $-1 $148 reversed single #
loop $-1 $-1 $149 $58 #
plane-surface $-1 0 -30.465316906907049 -19.617351138014566 0 -1 0 0 0 -1 forward_v I I I I #
coedge $-1 $150 $151 $152 $153 reversed $59 $-1 #
face $-1 $154 $155 $35 $-1 $156 reversed single #
loop $-1 $-1 $157 $61 #
plane-surface $-1 0 30.465316906907042 -19.617351138014566 0 1 0 0 0 1 forward_v I I I I #
coedge $-1 $158 $159 $160 $161 reversed $62 $-1 #
face $-1 $162 $163 $36 $-1 $164 reversed single #
loop $-1 $-1 $165 $64 #
plane-surface $-1 -12.504634791260941 22.231730019920803 123.70404851515835 0.80901700255871778 0 0.5877852410284794 0.5877852410284794 0 -0.80901700255871778 forward_v I I I I #
coedge $-1 $166 $167 $168 $169 reversed $65 $-1 #
face $-1 $-1 $170 $37 $-1 $171 forward single #
loop $-1 $172 $173 $67 #
cone-surface $-1 64.464936611464367 18.984631351381708 15.637891846579471 -0.80901700255871778 0 -0.5877852410284794 0.14694631025711985 0 -0.20225425063967944 1 I I -0.70710678118654746 0.70710678118654746 0.25 forward I I I I #
loop $-1 $-1 $174 $48 #
coedge $-1 $108 $108 $175 $176 reversed $68 $-1 #
face $-1 $-1 $177 $38 $-1 $178 forward single #
loop $-1 $179 $180 $70 #
cone-surface $-1 64.464936611464367 22.231730019920789 15.637891846579471 -0.80901700255871778 0 -0.5877852410284794 0.14694631025711985 0 -0.20225425063967944 1 I I -0.70710678118654746 0.70710678118654746 0.25 forward I I I I #
loop $-1 $-1 $181 $49 #
coedge $-1 $113 $113 $182 $183 reversed $71 $-1 #
face $-1 $-1 $184 $39 $-1 $185 forward single #
loop $-1 $186 $187 $73 #
cone-surface $-1 64.464936611464367 25.47882868845987 15.637891846579471 -0.80901700255871778 0 -0.5877852410284794 0.14694631025711985 0 -0.20225425063967944 1 I I -0.70710678118654746 0.70710678118654746 0.25 forward I I I I #
loop $-1 $-1 $188 $50 #
coedge $-1 $118 $118 $189 $190 reversed $74 $-1 #
face $-1 $191 $192 $40 $-1 $193 reversed single #
loop $-1 $-1 $194 $76 #
plane-surface $-1 -71.22287667470323 22.231730019920803 8.4630121132031491 -0.80901700255871778 0 0.5877852410284794 0.5877852410284794 0 0.80901700255871778 forward_v I I I I #
coedge $-1 $195 $196 $197 $198 reversed $77 $-1 #
face $-1 $-1 $199 $41 $-1 $200 forward single #
loop $-1 $201 $202 $79 #
cone-surface $-1 -64.464936611464353 18.984631351381708 15.637891846579471 0.80901700255871778 0 -0.5877852410284794 0.14694631025711985 0 0.20225425063967944 1 I I -0.70710678118654746 0.70710678118654746 0.25 forward I I I I #
loop $-1 $-1 $203 $52 #
coedge $-1 $127 $127 $204 $205 reversed $80 $-1 #
face $-1 $-1 $206 $42 $-1 $207 forward single #
loop $-1 $208 $209 $82 #
cone-surface $-1 -64.464936611464353 22.231730019920789 15.637891846579471 0.80901700255871778 0 -0.5877852410284794 0.14694631025711985 0 0.20225425063967944 1 I I -0.70710678118654746 0.70710678118654746 0.25 forward I I I I #
loop $-1 $-1 $210 $53 #
coedge $-1 $132 $132 $211 $212 reversed $83 $-1 #
face $-1 $-1 $213 $43 $-1 $214 forward single #
loop $-1 $215 $216 $85 #
cone-surface $-1 -64.464936611464353 25.47882868845987 15.637891846579471 0.80901700255871778 0 -0.5877852410284794 0.14694631025711985 0 0.20225425063967944 1 I I -0.70710678118654746 0.70710678118654746 0.25 forward I I I I #
loop $-1 $-1 $217 $54 #
coedge $-1 $137 $137 $218 $219 reversed $86 $-1 #
face $-1 $220 $221 $33 $-1 $222 reversed single #
loop $-1 $-1 $223 $88 #
plane-surface $-1 0 -48.670523485873488 0 0 1 0 0 0 1 forward_v I I I I #
coedge $-1 $224 $225 $226 $227 forward $89 $-1 #
coedge $-1 $228 $91 $229 $230 forward $56 $-1 #
coedge $-1 $91 $228 $231 $232 forward $56 $-1 #
coedge $-1 $233 $234 $91 $145 reversed $235 $-1 #
edge $-1 $236 -48.670523485873488 $237 48.670523485873488 $144 $238 forward 7 unknown #
face $-1 $239 $240 $34 $-1 $241 reversed single #
loop $-1 $-1 $242 $92 #
plane-surface $-1 0 0 -24.282234682527012 0 0 1 1 0 0 forward_v I I I I #
coedge $-1 $243 $244 $245 $246 reversed $93 $-1 #
coedge $-1 $247 $95 $244 $248 forward $59 $-1 #
coedge $-1 $95 $247 $249 $250 reversed $59 $-1 #
coedge $-1 $251 $245 $95 $153 forward $240 $-1 #
edge $-1 $252 10.681356808711914 $253 28.886563387678354 $152 $254 forward 7 unknown #
face $-1 $255 $256 $35 $-1 $257 reversed single #
loop $-1 $-1 $160 $96 #
plane-surface $-1 71.222876674703201 0 0 -1 0 0 0 0 1 forward_v I I I I #
coedge $-1 $258 $259 $260 $261 reversed $97 $-1 #
coedge $-1 $262 $99 $263 $264 reversed $62 $-1 #
coedge $-1 $99 $262 $259 $265 forward $62 $-1 #
coedge $-1 $266 $267 $99 $161 forward $155 $-1 #
edge $-1 $268 -28.886563387678351 $269 -10.681356808711911 $160 $270 forward 7 unknown #
face $-1 $271 $272 $36 $-1 $273 forward single #
loop $-1 $-1 $274 $100 #
plane-surface $-1 102.73640161069426 16.819898905688987 207.43155998112252 0 1 0 0.80901700255871778 0 0.5877852410284794 forward_v I I I I #
coedge $-1 $275 $276 $277 $278 reversed $101 $-1 #
coedge $-1 $167 $103 $279 $280 reversed $65 $-1 #
coedge $-1 $103 $166 $275 $281 reversed $65 $-1 #
coedge $-1 $277 $282 $103 $169 forward $272 $-1 #
edge $-1 $283 -19.854675869356072 $284 -8.3613382492752066 $168 $285 forward 7 unknown #
loop $-1 $-1 $175 $104 #
plane-surface $-1 -12.504634791260941 22.231730019920803 123.70404851515835 0.80901700255871778 0 0.5877852410284794 0.5877852410284794 0 -0.80901700255871778 forward_v I I I I #
loop $-1 $-1 $286 $67 #
coedge $-1 $173 $173 $174 $287 reversed $105 $-1 #
coedge $-1 $174 $174 $173 $287 forward $107 $-1 #
coedge $-1 $175 $175 $108 $176 forward $170 $-1 #
edge $-1 $288 0 $288 6.2831853071796004 $175 $289 forward 7 unknown #
loop $-1 $-1 $182 $109 #
plane-surface $-1 -12.504634791260941 22.231730019920803 123.70404851515835 0.80901700255871778 0 0.5877852410284794 0.5877852410284794 0 -0.80901700255871778 forward_v I I I I #
loop $-1 $-1 $290 $70 #
coedge $-1 $180 $180 $181 $291 reversed $110 $-1 #
coedge $-1 $181 $181 $180 $291 forward $112 $-1 #
coedge $-1 $182 $182 $113 $183 forward $177 $-1 #
edge $-1 $292 0 $292 6.2831853071796004 $182 $293 forward 7 unknown #
loop $-1 $-1 $189 $114 #
plane-surface $-1 -12.504634791260941 22.231730019920803 123.70404851515835 0.80901700255871778 0 0.5877852410284794 0.5877852410284794 0 -0.80901700255871778 forward_v I I I I #
loop $-1 $-1 $294 $73 #
coedge $-1 $187 $187 $188 $295 reversed $115 $-1 #
coedge $-1 $188 $188 $187 $295 forward $117 $-1 #
coedge $-1 $189 $189 $118 $190 forward $184 $-1 #
edge $-1 $296 0 $296 6.2831853071796004 $189 $297 forward 7 unknown #
face $-1 $298 $299 $40 $-1 $300 reversed single #
loop $-1 $-1 $301 $119 #
plane-surface $-1 -186.46391307665843 27.64356113415262 92.190523579167319 0 -1 0 0.80901700255871778 0 -0.5877852410284794 forward_v I I I I #
coedge $-1 $302 $303 $304 $305 reversed $120 $-1 #
coedge $-1 $196 $122 $306 $307 reversed $77 $-1 #
coedge $-1 $122 $195 $302 $308 reversed $77 $-1 #
coedge $-1 $304 $309 $122 $198 forward $310 $-1 #
edge $-1 $311 22.009079863626013 $312 33.502417483706878 $197 $313 forward 7 unknown #
loop $-1 $-1 $204 $123 #
plane-surface $-1 -71.22287667470323 22.231730019920803 8.4630121132031491 -0.80901700255871778 0 0.5877852410284794 0.5877852410284794 0 0.80901700255871778 forward_v I I I I #
loop $-1 $-1 $314 $79 #
coedge $-1 $202 $202 $203 $315 reversed $124 $-1 #
coedge $-1 $203 $203 $202 $315 forward $126 $-1 #
coedge $-1 $204 $204 $127 $205 forward $199 $-1 #
edge $-1 $316 0 $316 6.2831853071796004 $204 $317 forward 7 unknown #
loop $-1 $-1 $211 $128 #
plane-surface $-1 -71.22287667470323 22.231730019920803 8.4630121132031491 -0.80901700255871778 0 0.5877852410284794 0.5877852410284794 0 0.80901700255871778 forward_v I I I I #
loop $-1 $-1 $318 $82 #
coedge $-1 $209 $209 $210 $319 reversed $129 $-1 #
coedge $-1 $210 $210 $209 $319 forward $131 $-1 #
coedge $-1 $211 $211 $132 $212 forward $206 $-1 #
edge $-1 $320 0 $320 6.2831853071796004 $211 $321 forward 7 unknown #
loop $-1 $-1 $218 $133 #
plane-surface $-1 -71.22287667470323 22.231730019920803 8.4630121132031491 -0.80901700255871778 0 0.5877852410284794 0.5877852410284794 0 0.80901700255871778 forward_v I I I I #
loop $-1 $-1 $322 $85 #
coedge $-1 $216 $216 $217 $323 reversed $134 $-1 #
coedge $-1 $217 $217 $216 $323 forward $136 $-1 #
coedge $-1 $218 $218 $137 $219 forward $213 $-1 #
edge $-1 $324 0 $324 6.2831853071796004 $218 $325 forward 7 unknown #
face $-1 $326 $327 $33 $-1 $328 reversed single #
loop $-1 $-1 $329 $138 #
plane-surface $-1 -71.222876674703201 0 0 1 0 0 0 0 -1 forward_v I I I I #
coedge $-1 $330 $231 $331 $332 forward $139 $-1 #
coedge $-1 $333 $141 $330 $334 forward $89 $-1 #
coedge $-1 $141 $333 $335 $336 forward $89 $-1 #
coedge $-1 $234 $233 $141 $227 reversed $235 $-1 #
edge $-1 $337 -48.670523485873488 $338 48.670523485873488 $226 $339 forward 7 unknown #
coedge $-1 $143 $142 $340 $341 forward $56 $-1 #
coedge $-1 $342 $343 $142 $230 reversed $327 $-1 #
edge $-1 $237 -71.222876674703201 $344 71.222876674703201 $229 $345 forward 7 unknown #
coedge $-1 $223 $346 $143 $232 reversed $139 $-1 #
edge $-1 $347 -71.222876674703201 $236 71.222876674703201 $231 $348 forward 7 unknown #
coedge $-1 $226 $144 $346 $349 forward $235 $-1 #
coedge $-1 $144 $226 $342 $350 reversed $235 $-1 #
loop $-1 $-1 $233 $326 #
vertex $-1 $145 $351 #
vertex $-1 $145 $352 #
straight-curve $-1 71.222876674703201 0 24.282234682527012 0 1 0 I I #
face $-1 $353 $354 $34 $-1 $355 reversed single #
loop $-1 $-1 $245 $146 #
plane-surface $-1 71.222876674703201 0 0 -1 0 0 0 0 1 forward_v I I I I #
coedge $-1 $356 $357 $243 $358 forward $147 $-1 #
coedge $-1 $359 $149 $242 $358 reversed $93 $-1 #
coedge $-1 $149 $359 $150 $248 reversed $93 $-1 #
coedge $-1 $152 $360 $149 $246 forward $240 $-1 #
edge $-1 $361 -14.473559113519729 $252 -5.1437920244948376 $245 $362 forward 7 unknown #
coedge $-1 $151 $150 $363 $364 reversed $59 $-1 #
edge $-1 $252 -71.222876674703201 $365 71.222876674703201 $244 $366 forward 7 unknown #
coedge $-1 $367 $368 $151 $250 forward $354 $-1 #
edge $-1 $253 -71.222876674703201 $369 71.222876674703201 $249 $370 forward 7 unknown #
coedge $-1 $360 $152 $368 $371 forward $240 $-1 #
vertex $-1 $153 $372 #
vertex $-1 $371 $373 #
straight-curve $-1 71.222876674703201 -19.783960098195134 -14.952467593502121 0 -1 0 I I #
face $-1 $374 $375 $35 $-1 $376 reversed single #
loop $-1 $-1 $377 $154 #
plane-surface $-1 0 0 -24.282234682527012 0 0 1 1 0 0 forward_v I I I I #
coedge $-1 $378 $157 $377 $379 reversed $97 $-1 #
coedge $-1 $157 $378 $159 $265 reversed $97 $-1 #
coedge $-1 $380 $381 $157 $261 forward $375 $-1 #
edge $-1 $382 -14.473559113519729 $383 -5.1437920244948376 $260 $384 forward 7 unknown #
coedge $-1 $159 $158 $380 $385 reversed $62 $-1 #
coedge $-1 $386 $387 $158 $264 forward $388 $-1 #
edge $-1 $389 -71.222876674703201 $268 71.222876674703201 $263 $390 forward 7 unknown #
edge $-1 $383 -71.222876674703201 $269 71.222876674703201 $259 $391 forward 7 unknown #
coedge $-1 $392 $160 $378 $393 forward $155 $-1 #
coedge $-1 $160 $392 $386 $394 reversed $155 $-1 #
vertex $-1 $394 $395 #
vertex $-1 $161 $396 #
straight-curve $-1 71.222876674703201 19.783960098195131 -14.952467593502121 0 -1 0 I I #
face $-1 $-1 $397 $36 $-1 $398 reversed single #
loop $-1 $-1 $168 $162 #
plane-surface $-1 0 0 24.282234682527012 0 0 1 1 0 0 forward_v I I I I #
coedge $-1 $399 $400 $401 $402 reversed $163 $-1 #
coedge $-1 $403 $165 $167 $281 forward $101 $-1 #
coedge $-1 $165 $403 $399 $404 forward $101 $-1 #
coedge $-1 $401 $168 $165 $278 forward $272 $-1 #
edge $-1 $284 -16.527696124192218 $405 -5.7040338957285854 $277 $406 forward 7 unknown #
coedge $-1 $407 $408 $166 $280 forward $397 $-1 #
edge $-1 $409 -95.252767877358067 $283 -79.43354530803424 $279 $410 forward 7 unknown #
edge $-1 $284 122.89211910032185 $409 142.44575334940635 $167 $411 forward 7 unknown #
coedge $-1 $168 $401 $407 $412 forward $272 $-1 #
vertex $-1 $280 $413 #
vertex $-1 $169 $414 #
straight-curve $-1 51.368200805347129 27.64356113415262 24.282234682527019 -1 0 0 I I #
coedge $-1 $286 $286 $-1 $415 reversed $172 $-1 #
edge $-1 $416 0 $416 6.2831853071796004 $173 $417 forward 7 unknown #
vertex $-1 $176 $418 #
ellipse-curve $-1 65.476207864662783 18.984631351381708 16.372623397865084 0.80901700255871778 0 0.5877852410284794 0.2938926205142397 0 -0.40450850127935889 1 I I #
coedge $-1 $290 $290 $-1 $419 reversed $179 $-1 #
edge $-1 $420 0 $420 6.2831853071796004 $180 $421 forward 7 unknown #
vertex $-1 $183 $422 #
ellipse-curve $-1 65.476207864662783 22.231730019920789 16.372623397865084 0.80901700255871778 0 0.5877852410284794 0.2938926205142397 0 -0.40450850127935889 1 I I #
coedge $-1 $294 $294 $-1 $423 reversed $186 $-1 #
edge $-1 $424 0 $424 6.2831853071796004 $187 $425 forward 7 unknown #
vertex $-1 $190 $426 #
ellipse-curve $-1 65.476207864662783 25.47882868845987 16.372623397865084 0.80901700255871778 0 0.5877852410284794 0.2938926205142397 0 -0.40450850127935889 1 I I #
face $-1 $-1 $310 $40 $-1 $427 forward single #
loop $-1 $-1 $428 $191 #
plane-surface $-1 -71.222876674703201 0 0 1 0 0 0 0 -1 forward_v I I I I #
coedge $-1 $429 $430 $431 $432 reversed $192 $-1 #
coedge $-1 $433 $194 $196 $308 forward $120 $-1 #
coedge $-1 $194 $433 $429 $434 forward $120 $-1 #
coedge $-1 $431 $197 $194 $305 forward $310 $-1 #
edge $-1 $312 5.7040338957285854 $435 16.527696124192218 $304 $436 forward 7 unknown #
coedge $-1 $437 $438 $195 $307 forward $299 $-1 #
edge $-1 $439 -37.632249676380468 $311 -21.813027107056648 $306 $440 forward 7 unknown #
edge $-1 $312 -19.553634249084546 $439 -4.8322124813089328e-014 $196 $441 forward 7 unknown #
coedge $-1 $197 $431 $437 $442 forward $310 $-1 #
loop $-1 $-1 $431 $298 #
vertex $-1 $307 $443 #
vertex $-1 $198 $444 #
straight-curve $-1 -93.231956538329214 16.819898905688987 24.282234682527012 1 0 0 I I #
coedge $-1 $314 $314 $-1 $445 reversed $201 $-1 #
edge $-1 $446 0 $446 6.2831853071796004 $202 $447 forward 7 unknown #
vertex $-1 $205 $448 #
ellipse-curve $-1 -65.476207864662783 18.984631351381708 16.372623397865091 -0.80901700255871778 0 0.5877852410284794 0.2938926205142397 0 0.40450850127935889 1 I I #
coedge $-1 $318 $318 $-1 $449 reversed $208 $-1 #
edge $-1 $450 0 $450 6.2831853071796004 $209 $451 forward 7 unknown #
vertex $-1 $212 $452 #
ellipse-curve $-1 -65.476207864662783 22.231730019920789 16.372623397865091 -0.80901700255871778 0 0.5877852410284794 0.2938926205142397 0 0.40450850127935889 1 I I #
coedge $-1 $322 $322 $-1 $453 reversed $215 $-1 #
edge $-1 $454 0 $454 6.2831853071796004 $216 $455 forward 7 unknown #
vertex $-1 $219 $456 #
ellipse-curve $-1 -65.476207864662783 25.47882868845987 16.372623397865091 -0.80901700255871778 0 0.5877852410284794 0.2938926205142397 0 0.40450850127935889 1 I I #
face $-1 $-1 $235 $33 $-1 $457 reversed single #
loop $-1 $-1 $342 $220 #
plane-surface $-1 0 48.670523485873488 0 0 -1 0 0 0 -1 forward_v I I I I #
coedge $-1 $458 $340 $343 $459 forward $221 $-1 #
coedge $-1 $346 $223 $224 $334 reversed $139 $-1 #
coedge $-1 $340 $458 $223 $332 reversed $221 $-1 #
edge $-1 $347 -24.282234682527012 $460 24.282234682527012 $331 $461 forward 7 unknown #
coedge $-1 $225 $224 $458 $462 forward $89 $-1 #
edge $-1 $338 -71.222876674703201 $460 71.222876674703201 $330 $463 forward 7 unknown #
coedge $-1 $343 $342 $225 $336 reversed $327 $-1 #
edge $-1 $464 -71.222876674703201 $337 71.222876674703201 $335 $465 forward 7 unknown #
vertex $-1 $227 $466 #
vertex $-1 $349 $467 #
straight-curve $-1 71.222876674703201 0 -24.282234682527012 0 -1 0 I I #
coedge $-1 $329 $331 $228 $341 reversed $221 $-1 #
edge $-1 $344 -48.670523485873488 $347 48.670523485873488 $340 $468 forward 7 unknown #
coedge $-1 $335 $229 $234 $350 forward $327 $-1 #
coedge $-1 $229 $335 $329 $459 reversed $327 $-1 #
vertex $-1 $230 $469 #
straight-curve $-1 0 48.670523485873488 24.282234682527012 -1 0 0 I I #
coedge $-1 $231 $330 $233 $349 reversed $139 $-1 #
vertex $-1 $341 $470 #
straight-curve $-1 0 -48.670523485873488 24.282234682527012 1 0 0 I I #
edge $-1 $236 -24.282234682527012 $338 24.282234682527012 $233 $471 forward 7 unknown #
edge $-1 $237 -24.282234682527012 $337 24.282234682527012 $234 $472 forward 7 unknown #
point $-1 71.222876674703201 -48.670523485873488 24.282234682527012 #
point $-1 71.222876674703201 48.670523485873488 24.282234682527012 #
face $-1 $-1 $473 $34 $-1 $474 reversed single #
loop $-1 $-1 $249 $239 #
plane-surface $-1 0 -48.670523485873488 0 0 1 0 0 0 1 forward_v I I I I #
coedge $-1 $475 $242 $360 $476 forward $147 $-1 #
coedge $-1 $242 $475 $477 $478 forward $147 $-1 #
edge $-1 $479 -71.222876674703201 $361 71.222876674703201 $242 $480 forward 7 unknown #
coedge $-1 $244 $243 $481 $482 reversed $93 $-1 #
coedge $-1 $245 $251 $356 $476 reversed $240 $-1 #
vertex $-1 $476 $483 #
straight-curve $-1 71.222876674703201 -30.465316906907049 -9.8086755690072831 0 0 1 I I #
coedge $-1 $481 $484 $247 $364 forward $473 $-1 #
edge $-1 $369 -28.886563387678354 $365 -10.681356808711914 $363 $485 forward 7 unknown #
vertex $-1 $364 $486 #
straight-curve $-1 0 -30.465316906907049 -14.952467593502121 -1 0 0 I I #
coedge $-1 $487 $249 $484 $488 forward $354 $-1 #
coedge $-1 $249 $487 $251 $371 reversed $354 $-1 #
vertex $-1 $488 $489 #
straight-curve $-1 0 -48.670523485873488 -14.952467593502121 -1 0 0 I I #
edge $-1 $253 14.952467593502121 $490 24.282234682527012 $251 $491 forward 7 unknown #
point $-1 71.222876674703201 -30.465316906907049 -14.952467593502121 #
point $-1 71.222876674703201 -48.670523485873488 -14.952467593502121 #
face $-1 $-1 $388 $35 $-1 $492 reversed single #
loop $-1 $-1 $380 $255 #
plane-surface $-1 -71.222876674703201 0 0 1 0 0 0 0 -1 forward_v I I I I #
coedge $-1 $493 $494 $258 $379 forward $256 $-1 #
coedge $-1 $259 $258 $266 $393 reversed $97 $-1 #
edge $-1 $495 -71.222876674703201 $382 71.222876674703201 $377 $496 forward 7 unknown #
coedge $-1 $497 $260 $262 $385 forward $375 $-1 #
coedge $-1 $260 $497 $493 $498 reversed $375 $-1 #
vertex $-1 $498 $499 #
vertex $-1 $385 $500 #
straight-curve $-1 -71.222876674703201 30.465316906907042 -9.8086755690072831 0 0 1 I I #
edge $-1 $383 10.681356808711911 $389 28.886563387678351 $380 $501 forward 7 unknown #
coedge $-1 $502 $263 $267 $394 forward $388 $-1 #
coedge $-1 $263 $502 $497 $503 reversed $388 $-1 #
loop $-1 $-1 $263 $374 #
vertex $-1 $503 $504 #
straight-curve $-1 0 48.670523485873488 -14.952467593502121 1 0 0 I I #
straight-curve $-1 0 30.465316906907042 -14.952467593502121 1 0 0 I I #
coedge $-1 $267 $266 $494 $505 reversed $155 $-1 #
edge $-1 $269 5.1437920244948376 $495 14.473559113519729 $266 $506 forward 7 unknown #
edge $-1 $268 14.952467593502121 $507 24.282234682527012 $267 $508 forward 7 unknown #
point $-1 71.222876674703201 48.670523485873481 -14.952467593502121 #
point $-1 71.222876674703201 30.465316906907042 -14.952467593502121 #
loop $-1 $-1 $279 $271 #
plane-surface $-1 71.222876674703201 0 0 -1 0 0 0 0 1 forward_v I I I I #
coedge $-1 $400 $274 $276 $404 reversed $163 $-1 #
coedge $-1 $274 $399 $509 $510 reversed $163 $-1 #
coedge $-1 $282 $277 $274 $402 forward $272 $-1 #
edge $-1 $405 8.3613382492752066 $511 19.854675869356072 $401 $512 forward 7 unknown #
coedge $-1 $276 $275 $408 $513 reversed $101 $-1 #
edge $-1 $514 -142.44575334940635 $405 -122.89211910032185 $399 $515 forward 7 unknown #
vertex $-1 $278 $516 #
straight-curve $-1 59.729539054622336 11.115865009960402 24.282234682527019 0 -1 0 I I #
coedge $-1 $509 $279 $282 $412 reversed $397 $-1 #
coedge $-1 $279 $509 $403 $513 forward $397 $-1 #
vertex $-1 $280 $517 #
straight-curve $-1 71.222876674703201 27.64356113415262 103.71577999056126 0 0 1 I I #
straight-curve $-1 -12.504634791260941 27.64356113415262 123.70404851515835 0.5877852410284794 0 -0.80901700255871778 I I #
edge $-1 $511 16.819898905688987 $283 27.64356113415262 $407 $518 forward 7 unknown #
point $-1 71.222876674703201 27.64356113415262 24.282234682527012 #
point $-1 59.729539054622336 27.64356113415262 24.282234682527019 #
edge $-1 $519 1 $519 0 $286 $-1 forward 7 unknown #
vertex $-1 $287 $520 #
ellipse-curve $-1 64.66719086210405 18.984631351381708 15.784838156836591 0.80901700255871778 0 0.5877852410284794 0.2938926205142397 0 -0.40450850127935889 1 I I #
point $-1 65.770100485177011 18.984631351381708 15.968114896585712 #
edge $-1 $521 1 $521 0 $290 $-1 forward 7 unknown #
vertex $-1 $291 $522 #
ellipse-curve $-1 64.66719086210405 22.231730019920789 15.784838156836591 0.80901700255871778 0 0.5877852410284794 0.2938926205142397 0 -0.40450850127935889 1 I I #
point $-1 65.770100485177011 22.231730019920789 15.968114896585712 #
edge $-1 $523 1 $523 0 $294 $-1 forward 7 unknown #
vertex $-1 $295 $524 #
ellipse-curve $-1 64.66719086210405 25.47882868845987 15.784838156836591 0.80901700255871778 0 0.5877852410284794 0.2938926205142397 0 -0.40450850127935889 1 I I #
point $-1 65.770100485177011 25.47882868845987 15.968114896585712 #
plane-surface $-1 0 0 24.282234682527012 0 0 1 1 0 0 forward_v I I I I #
coedge $-1 $438 $437 $430 $525 forward $299 $-1 #
coedge $-1 $430 $301 $303 $434 reversed $192 $-1 #
coedge $-1 $301 $429 $428 $525 reversed $192 $-1 #
coedge $-1 $309 $304 $301 $432 forward $310 $-1 #
edge $-1 $435 -33.502417483706878 $526 -22.009079863626013 $431 $527 forward 7 unknown #
coedge $-1 $303 $302 $438 $528 reversed $120 $-1 #
edge $-1 $529 4.8322124813089328e-014 $435 19.553634249084546 $429 $530 forward 7 unknown #
vertex $-1 $305 $531 #
straight-curve $-1 -59.729539054622343 11.115865009960402 24.282234682527012 0 1 0 I I #
coedge $-1 $428 $306 $309 $442 reversed $299 $-1 #
coedge $-1 $306 $428 $433 $528 forward $299 $-1 #
vertex $-1 $307 $532 #
straight-curve $-1 -71.222876674703201 16.819898905688987 46.09526178958366 0 0 1 I I #
straight-curve $-1 -71.22287667470323 16.819898905688987 8.4630121132031491 -0.5877852410284794 0 -0.80901700255871778 I I #
edge $-1 $526 -27.64356113415262 $311 -16.819898905688987 $437 $533 forward 7 unknown #
point $-1 -71.222876674703201 16.819898905688987 24.282234682527012 #
point $-1 -59.729539054622336 16.819898905688987 24.282234682527012 #
edge $-1 $534 1 $534 0 $314 $-1 forward 7 unknown #
vertex $-1 $315 $535 #
ellipse-curve $-1 -64.667190862104036 18.984631351381708 15.784838156836591 -0.80901700255871778 0 0.5877852410284794 0.2938926205142397 0 0.40450850127935889 1 I I #
point $-1 -65.182315244148512 18.984631351381708 16.777131899144429 #
edge $-1 $536 1 $536 0 $318 $-1 forward 7 unknown #
vertex $-1 $319 $537 #
ellipse-curve $-1 -64.667190862104036 22.231730019920789 15.784838156836591 -0.80901700255871778 0 0.5877852410284794 0.2938926205142397 0 0.40450850127935889 1 I I #
point $-1 -65.182315244148512 22.231730019920789 16.777131899144429 #
edge $-1 $538 1 $538 0 $322 $-1 forward 7 unknown #
vertex $-1 $323 $539 #
ellipse-curve $-1 -64.667190862104036 25.47882868845987 15.784838156836591 -0.80901700255871778 0 0.5877852410284794 0.2938926205142397 0 0.40450850127935889 1 I I #
point $-1 -65.182315244148512 25.47882868845987 16.777131899144429 #
plane-surface $-1 71.222876674703201 0 0 -1 0 0 0 0 1 forward_v I I I I #
coedge $-1 $331 $329 $333 $462 reversed $221 $-1 #
edge $-1 $344 -24.282234682527012 $464 24.282234682527012 $343 $540 forward 7 unknown #
vertex $-1 $462 $541 #
straight-curve $-1 -71.222876674703201 -48.670523485873488 0 0 0 -1 I I #
edge $-1 $460 -48.670523485873488 $464 48.670523485873488 $458 $542 forward 7 unknown #
straight-curve $-1 0 -48.670523485873488 -24.282234682527012 -1 0 0 I I #
vertex $-1 $336 $543 #
straight-curve $-1 0 48.670523485873488 -24.282234682527012 1 0 0 I I #
point $-1 71.222876674703201 48.670523485873488 -24.282234682527012 #
point $-1 71.222876674703201 -48.670523485873488 -24.282234682527012 #
straight-curve $-1 -71.222876674703201 0 24.282234682527012 0 -1 0 I I #
point $-1 -71.222876674703201 48.670523485873488 24.282234682527012 #
point $-1 -71.222876674703201 -48.670523485873488 24.282234682527012 #
straight-curve $-1 71.222876674703201 -48.670523485873488 0 0 0 -1 I I #
straight-curve $-1 71.222876674703201 48.670523485873488 0 0 0 -1 I I #
loop $-1 $-1 $481 $353 #
plane-surface $-1 -71.222876674703201 0 0 1 0 0 0 0 -1 forward_v I I I I #
coedge $-1 $357 $356 $487 $544 forward $147 $-1 #
edge $-1 $361 30.465316906907049 $490 48.670523485873488 $360 $545 forward 7 unknown #
coedge $-1 $484 $481 $357 $478 reversed $473 $-1 #
edge $-1 $546 -48.670523485873488 $479 -30.465316906907049 $477 $547 forward 7 unknown #
vertex $-1 $482 $548 #
straight-curve $-1 0 -30.465316906907049 -24.282234682527012 1 0 0 I I #
coedge $-1 $477 $363 $359 $482 forward $473 $-1 #
edge $-1 $365 5.1437920244948376 $479 14.473559113519729 $481 $549 forward 7 unknown #
point $-1 71.222876674703201 -30.465316906907049 -24.282234682527012 #
coedge $-1 $363 $477 $367 $488 reversed $473 $-1 #
straight-curve $-1 -71.222876674703201 -19.783960098195134 -14.952467593502121 0 1 0 I I #
point $-1 -71.222876674703201 -30.465316906907049 -14.952467593502121 #
coedge $-1 $368 $367 $475 $544 reversed $354 $-1 #
edge $-1 $369 14.952467593502121 $546 24.282234682527012 $484 $550 forward 7 unknown #
point $-1 -71.222876674703201 -48.670523485873488 -14.952467593502121 #
vertex $-1 $371 $551 #
straight-curve $-1 71.222876674703201 -48.670523485873488 0 0 0 -1 I I #
plane-surface $-1 0 48.670523485873488 0 0 -1 0 0 0 -1 forward_v I I I I #
coedge $-1 $552 $377 $381 $498 forward $256 $-1 #
coedge $-1 $377 $552 $392 $505 forward $256 $-1 #
vertex $-1 $379 $553 #
straight-curve $-1 0 30.465316906907042 -24.282234682527012 -1 0 0 I I #
coedge $-1 $381 $380 $387 $503 forward $375 $-1 #
edge $-1 $382 30.465316906907042 $554 48.670523485873488 $381 $555 forward 7 unknown #
point $-1 -71.222876674703201 30.465316906907042 -24.282234682527012 #
point $-1 -71.222876674703201 30.465316906907042 -14.952467593502121 #
straight-curve $-1 -71.222876674703201 19.783960098195131 -14.952467593502121 0 1 0 I I #
coedge $-1 $387 $386 $552 $556 reversed $388 $-1 #
edge $-1 $389 14.952467593502121 $554 24.282234682527012 $387 $557 forward 7 unknown #
point $-1 -71.222876674703201 48.670523485873481 -14.952467593502121 #
edge $-1 $507 -48.670523485873488 $495 -30.465316906907042 $392 $558 forward 7 unknown #
straight-curve $-1 71.222876674703201 30.465316906907042 -9.8086755690072831 0 0 -1 I I #
vertex $-1 $505 $559 #
straight-curve $-1 71.222876674703201 48.670523485873488 0 0 0 -1 I I #
coedge $-1 $408 $407 $400 $510 forward $397 $-1 #
edge $-1 $511 79.43354530803424 $514 95.252767877358067 $509 $560 forward 7 unknown #
vertex $-1 $412 $561 #
straight-curve $-1 51.368200805347129 16.819898905688987 24.282234682527019 1 0 0 I I #
edge $-1 $514 5.7040338957285854 $409 16.527696124192218 $408 $562 forward 7 unknown #
vertex $-1 $513 $563 #
straight-curve $-1 -12.504634791260941 16.819898905688987 123.70404851515835 -0.5877852410284794 0 0.80901700255871778 I I #
point $-1 59.729539054622336 16.819898905688987 24.282234682527019 #
point $-1 71.222876674703201 27.64356113415262 8.4630121132031917 #
straight-curve $-1 71.222876674703201 0 24.282234682527012 0 1 0 I I #
vertex $-1 $415 $564 #
point $-1 64.961083482618292 18.984631351381708 15.380329655557231 #
vertex $-1 $419 $565 #
point $-1 64.961083482618292 22.231730019920789 15.380329655557231 #
vertex $-1 $423 $566 #
point $-1 64.961083482618292 25.47882868845987 15.380329655557231 #
edge $-1 $526 21.813027107056648 $529 37.632249676380468 $428 $567 forward 7 unknown #
vertex $-1 $442 $568 #
straight-curve $-1 -93.231956538329214 27.64356113415262 24.282234682527012 -1 0 0 I I #
edge $-1 $529 -16.527696124192218 $439 -5.7040338957285854 $438 $569 forward 7 unknown #
vertex $-1 $528 $570 #
straight-curve $-1 -71.22287667470323 27.64356113415262 8.4630121132031491 0.5877852410284794 0 0.80901700255871778 I I #
point $-1 -59.729539054622336 27.64356113415262 24.282234682527012 #
point $-1 -71.222876674703201 16.819898905688987 8.4630121132031881 #
straight-curve $-1 -71.222876674703201 0 24.282234682527012 0 -1 0 I I #
vertex $-1 $445 $571 #
point $-1 -64.373298241589794 18.984631351381708 16.189346658115952 #
vertex $-1 $449 $572 #
point $-1 -64.373298241589794 22.231730019920789 16.189346658115952 #
vertex $-1 $453 $573 #
point $-1 -64.373298241589794 25.47882868845987 16.189346658115952 #
straight-curve $-1 -71.222876674703201 48.670523485873488 0 0 0 -1 I I #
point $-1 -71.222876674703201 -48.670523485873488 -24.282234682527012 #
straight-curve $-1 -71.222876674703201 0 -24.282234682527012 0 1 0 I I #
point $-1 -71.222876674703201 48.670523485873488 -24.282234682527012 #
edge $-1 $490 -71.222876674703201 $546 71.222876674703201 $487 $574 forward 7 unknown #
straight-curve $-1 71.222876674703201 0 -24.282234682527012 0 -1 0 I I #
vertex $-1 $478 $575 #
straight-curve $-1 -71.222876674703201 0 -24.282234682527012 0 1 0 I I #
point $-1 -71.222876674703201 -30.465316906907049 -24.282234682527012 #
straight-curve $-1 -71.222876674703201 -30.465316906907049 -9.8086755690072831 0 0 -1 I I #
straight-curve $-1 -71.222876674703201 -48.670523485873488 0 0 0 -1 I I #
point $-1 71.222876674703201 -48.670523485873488 -24.282234682527012 #
coedge $-1 $494 $493 $502 $556 forward $256 $-1 #
point $-1 71.222876674703201 30.465316906907042 -24.282234682527012 #
vertex $-1 $556 $576 #
straight-curve $-1 -71.222876674703201 0 -24.282234682527012 0 1 0 I I #
edge $-1 $554 -71.222876674703201 $507 71.222876674703201 $502 $577 forward 7 unknown #
straight-curve $-1 -71.222876674703201 48.670523485873488 0 0 0 -1 I I #
straight-curve $-1 71.222876674703201 0 -24.282234682527012 0 -1 0 I I #
point $-1 71.222876674703201 48.670523485873488 -24.282234682527012 #
straight-curve $-1 71.222876674703201 16.819898905688987 103.71577999056126 0 0 -1 I I #
point $-1 71.222876674703201 16.819898905688987 24.282234682527012 #
straight-curve $-1 71.222876674703201 11.115865009960402 8.4630121132031917 0 1 0 I I #
point $-1 71.222876674703201 16.819898905688987 8.4630121132031917 #
point $-1 64.262682360824684 18.984631351381708 15.490945536322352 #
point $-1 64.262682360824684 22.231730019920789 15.490945536322352 #
point $-1 64.262682360824684 25.47882868845987 15.490945536322352 #
straight-curve $-1 -71.222876674703201 27.64356113415262 46.09526178958366 0 0 -1 I I #
point $-1 -71.222876674703201 27.64356113415262 24.282234682527012 #
straight-curve $-1 -71.222876674703201 11.115865009960402 8.4630121132031952 0 -1 0 I I #
point $-1 -71.222876674703201 27.64356113415262 8.4630121132031881 #
point $-1 -64.26268236082467 18.984631351381708 15.490945536322352 #
point $-1 -64.26268236082467 22.231730019920789 15.490945536322352 #
point $-1 -64.26268236082467 25.47882868845987 15.490945536322352 #
straight-curve $-1 0 -48.670523485873488 -24.282234682527012 -1 0 0 I I #
point $-1 -71.222876674703201 -48.670523485873488 -24.282234682527012 #
point $-1 -71.222876674703201 48.670523485873488 -24.282234682527012 #
straight-curve $-1 0 48.670523485873488 -24.282234682527012 1 0 0 I I #
End-of-ACIS-data 