500 0 8 0           
7 Unknown 11 ACIS 5.0 NT 24 Thu Mar 25 23:20:04 1999 
-1 9.9999999999999995e-007 1e-010 
body $-1 $8 $-1 $9 #
body $-1 $10 $-1 $11 #
body $-1 $12 $-1 $13 #
body $-1 $14 $-1 $15 #
body $-1 $16 $-1 $17 #
body $-1 $18 $-1 $19 #
body $-1 $20 $-1 $21 #
body $-1 $22 $-1 $23 #
lump $-1 $-1 $24 $0 #
transform $-1 1 0 0 0 1 0 0 0 1 74.361400189214763 35.407618580650244 8.6255755423543334 1 rotate no_reflect no_shear #
lump $-1 $-1 $25 $1 #
transform $-1 1 0 0 0 1 0 0 0 1 74.361400189214763 35.407618580650244 8.6255755423543334 1 rotate no_reflect no_shear #
lump $-1 $-1 $26 $2 #
transform $-1 1 0 0 0 1 0 0 0 1 74.361400189214763 35.407618580650244 8.6255755423543334 1 rotate no_reflect no_shear #
lump $-1 $-1 $27 $3 #
transform $-1 1 0 0 0 1 0 0 0 1 74.361400189214763 35.407618580650244 8.6255755423543334 1 rotate no_reflect no_shear #
lump $-1 $-1 $28 $4 #
transform $-1 1 0 0 0 1 0 0 0 1 74.361400189214763 35.407618580650244 8.6255755423543334 1 rotate no_reflect no_shear #
lump $-1 $-1 $29 $5 #
transform $-1 1 0 0 0 1 0 0 0 1 74.361400189214763 35.407618580650244 8.6255755423543334 1 rotate no_reflect no_shear #
lump $-1 $-1 $30 $6 #
transform $-1 1 0 0 0 1 0 0 0 1 74.361400189214763 35.407618580650244 8.6255755423543334 1 rotate no_reflect no_shear #
lump $-1 $-1 $31 $7 #
transform $-1 1 0 0 0 1 0 0 0 1 74.361400189214763 35.407618580650244 8.6255755423543334 1 rotate no_reflect no_shear #
shell $-1 $-1 $-1 $32 $-1 $8 #
shell $-1 $-1 $-1 $33 $-1 $10 #
shell $-1 $-1 $-1 $34 $-1 $12 #
shell $-1 $-1 $-1 $35 $-1 $14 #
shell $-1 $-1 $-1 $36 $-1 $16 #
shell $-1 $-1 $-1 $37 $-1 $18 #
shell $-1 $-1 $-1 $38 $-1 $20 #
shell $-1 $-1 $-1 $39 $-1 $22 #
face $-1 $40 $41 $24 $-1 $42 reversed single #
face $-1 $43 $44 $25 $-1 $45 forward single #
face $-1 $46 $47 $26 $-1 $48 reversed single #
face $-1 $49 $50 $27 $-1 $51 forward single #
face $-1 $52 $53 $28 $-1 $54 forward single #
face $-1 $55 $56 $29 $-1 $57 reversed single #
face $-1 $58 $59 $30 $-1 $60 forward single #
face $-1 $61 $62 $31 $-1 $63 forward single #
face $-1 $64 $65 $24 $-1 $66 forward single #
loop $-1 $-1 $67 $32 #
plane-surface $-1 0 -35.407618580650244 0 0 1 0 0 0 1 forward_v I I I I #
face $-1 $68 $69 $25 $-1 $70 reversed single #
loop $-1 $-1 $71 $33 #
plane-surface $-1 0 -35.407618580650244 0 0 1 0 0 0 1 forward_v I I I I #
face $-1 $72 $73 $26 $-1 $74 reversed single #
loop $-1 $-1 $75 $34 #
plane-surface $-1 -199.09083683945153 3.8142315317986153 81.650065272928259 0 1 0 -0.83867057594974714 0 0.54463902268945019 forward_v I I I I #
face $-1 $76 $77 $27 $-1 $78 forward single #
loop $-1 $79 $80 $35 #
cone-surface $-1 -69.534937115229226 8.4026750891979844 3.1851659101465115 0.83867057594974714 0 -0.54463902268945019 0.81695853403417529 0 1.2580058639246208 1 I I 0 1 1.5 forward I I I I #
face $-1 $81 $82 $28 $-1 $83 forward single #
loop $-1 $84 $85 $36 #
cone-surface $-1 -69.534937115229226 15.285340425297044 3.1851659101465115 0.83867057594974714 0 -0.54463902268945019 0.81695853403417529 0 1.2580058639246208 1 I I 0 1 1.5 forward I I I I #
face $-1 $86 $87 $29 $-1 $88 reversed single #
loop $-1 $-1 $89 $37 #
plane-surface $-1 118.09059618970547 19.87378398269642 206.37950192316501 0 -1 0 -0.83867057594974714 0 -0.54463902268945019 forward_v I I I I #
face $-1 $90 $91 $30 $-1 $92 forward single #
loop $-1 $93 $94 $38 #
cone-surface $-1 69.534937115229255 8.4026750891979844 3.1851659101465044 -0.83867057594974714 0 -0.54463902268945019 0.81695853403417529 0 -1.2580058639246208 1 I I 0 1 1.5 forward I I I I #
face $-1 $95 $96 $31 $-1 $97 forward single #
loop $-1 $98 $99 $39 #
cone-surface $-1 69.534937115229255 15.285340425297044 3.1851659101465044 -0.83867057594974714 0 -0.54463902268945019 0.81695853403417529 0 -1.2580058639246208 1 I I 0 1 1.5 forward I I I I #
face $-1 $100 $101 $24 $-1 $102 reversed single #
loop $-1 $-1 $103 $40 #
plane-surface $-1 0 0 8.6255755423543334 0 0 1 1 0 0 forward_v I I I I #
coedge $-1 $104 $105 $106 $107 reversed $41 $-1 #
face $-1 $108 $109 $25 $-1 $110 reversed single #
loop $-1 $-1 $111 $43 #
plane-surface $-1 0 0 -8.6255755423543334 0 0 1 1 0 0 forward_v I I I I #
coedge $-1 $112 $113 $114 $115 forward $44 $-1 #
face $-1 $116 $117 $26 $-1 $118 reversed single #
loop $-1 $-1 $119 $46 #
plane-surface $-1 -74.361400189214763 11.844007757247518 0.64982462318221224 -0.83867057594974714 0 0.54463902268945019 0.54463902268945019 0 0.83867057594974714 forward_v I I I I #
coedge $-1 $120 $121 $122 $123 reversed $47 $-1 #
face $-1 $-1 $124 $27 $-1 $125 forward single #
loop $-1 $126 $127 $49 #
cone-surface $-1 -66.669227630137712 8.4026750891979844 1.3241524705076699 0.83867057594974714 0 -0.54463902268945019 0.40847926701708764 0 0.62900293196231039 1 I I -0.70710678118654757 0.70710678118654757 0.75 forward I I I I #
loop $-1 $-1 $128 $35 #
coedge $-1 $80 $80 $129 $130 reversed $50 $-1 #
face $-1 $-1 $131 $28 $-1 $132 forward single #
loop $-1 $133 $134 $52 #
cone-surface $-1 -66.669227630137712 15.285340425297044 1.3241524705076699 0.83867057594974714 0 -0.54463902268945019 0.40847926701708764 0 0.62900293196231039 1 I I -0.70710678118654757 0.70710678118654757 0.75 forward I I I I #
loop $-1 $-1 $135 $36 #
coedge $-1 $85 $85 $136 $137 reversed $53 $-1 #
face $-1 $138 $139 $29 $-1 $140 reversed single #
loop $-1 $-1 $141 $55 #
plane-surface $-1 -6.6388404605312985 11.844007757247518 125.37926127341896 0.83867057594974714 0 0.54463902268945019 0.54463902268945019 0 -0.83867057594974714 forward_v I I I I #
coedge $-1 $142 $143 $144 $145 reversed $56 $-1 #
face $-1 $-1 $146 $30 $-1 $147 forward single #
loop $-1 $148 $149 $58 #
cone-surface $-1 66.66922763013774 8.4026750891979844 1.3241524705076628 -0.83867057594974714 0 -0.54463902268945019 0.40847926701708764 0 -0.62900293196231039 1 I I -0.70710678118654757 0.70710678118654757 0.75 forward I I I I #
loop $-1 $-1 $150 $38 #
coedge $-1 $94 $94 $151 $152 reversed $59 $-1 #
face $-1 $-1 $153 $31 $-1 $154 forward single #
loop $-1 $155 $156 $61 #
cone-surface $-1 66.66922763013774 15.285340425297044 1.3241524705076628 -0.83867057594974714 0 -0.54463902268945019 0.40847926701708764 0 -0.62900293196231039 1 I I -0.70710678118654757 0.70710678118654757 0.75 forward I I I I #
loop $-1 $-1 $157 $39 #
coedge $-1 $99 $99 $158 $159 reversed $62 $-1 #
face $-1 $160 $161 $24 $-1 $162 reversed single #
loop $-1 $-1 $163 $64 #
plane-surface $-1 0 0 -8.6255755423543334 0 0 1 1 0 0 forward_v I I I I #
coedge $-1 $164 $165 $166 $167 forward $65 $-1 #
coedge $-1 $168 $67 $169 $170 reversed $41 $-1 #
coedge $-1 $67 $168 $171 $172 forward $41 $-1 #
coedge $-1 $173 $163 $67 $107 forward $101 $-1 #
edge $-1 $174 -74.361400189214763 $175 74.361400189214763 $67 $176 forward 7 unknown #
face $-1 $177 $178 $25 $-1 $179 reversed single #
loop $-1 $-1 $180 $68 #
plane-surface $-1 -58.695504955624969 -44.725893622658894 0 0 1 0 0 0 1 forward_v I I I I #
coedge $-1 $181 $182 $113 $183 forward $69 $-1 #
coedge $-1 $184 $71 $185 $186 reversed $44 $-1 #
coedge $-1 $71 $184 $111 $183 reversed $44 $-1 #
coedge $-1 $187 $188 $71 $115 reversed $178 $-1 #
edge $-1 $189 -8.6255755423543334 $190 8.6255755423543334 $114 $191 forward 7 unknown #
face $-1 $192 $193 $26 $-1 $194 reversed single #
loop $-1 $-1 $195 $72 #
plane-surface $-1 -199.09083683945153 19.87378398269642 81.650065272928259 0 -1 0 0.83867057594974714 0 -0.54463902268945019 forward_v I I I I #
coedge $-1 $196 $197 $198 $199 reversed $73 $-1 #
coedge $-1 $121 $75 $200 $201 reversed $47 $-1 #
coedge $-1 $75 $120 $196 $202 reversed $47 $-1 #
coedge $-1 $198 $203 $75 $123 forward $204 $-1 #
edge $-1 $205 25.184018230511001 $206 30.363531272223668 $122 $207 forward 7 unknown #
loop $-1 $-1 $129 $76 #
plane-surface $-1 -74.361400189214763 11.844007757247518 0.64982462318221224 -0.83867057594974714 0 0.54463902268945019 0.54463902268945019 0 0.83867057594974714 forward_v I I I I #
loop $-1 $-1 $208 $49 #
coedge $-1 $127 $127 $128 $209 reversed $77 $-1 #
coedge $-1 $128 $128 $127 $209 forward $79 $-1 #
coedge $-1 $129 $129 $80 $130 forward $124 $-1 #
edge $-1 $210 0 $210 6.2831853071796004 $129 $211 forward 7 unknown #
loop $-1 $-1 $136 $81 #
plane-surface $-1 -74.361400189214763 11.844007757247518 0.64982462318221224 -0.83867057594974714 0 0.54463902268945019 0.54463902268945019 0 0.83867057594974714 forward_v I I I I #
loop $-1 $-1 $212 $52 #
coedge $-1 $134 $134 $135 $213 reversed $82 $-1 #
coedge $-1 $135 $135 $134 $213 forward $84 $-1 #
coedge $-1 $136 $136 $85 $137 forward $131 $-1 #
edge $-1 $214 0 $214 6.2831853071796004 $136 $215 forward 7 unknown #
face $-1 $216 $217 $29 $-1 $218 forward single #
loop $-1 $-1 $219 $86 #
plane-surface $-1 118.09059618970547 3.8142315317986153 206.37950192316501 0 1 0 0.83867057594974714 0 0.54463902268945019 forward_v I I I I #
coedge $-1 $220 $221 $222 $223 reversed $87 $-1 #
coedge $-1 $143 $89 $224 $225 reversed $56 $-1 #
coedge $-1 $89 $142 $220 $226 reversed $56 $-1 #
coedge $-1 $222 $227 $89 $145 forward $217 $-1 #
edge $-1 $228 -15.31610209436203 $229 -10.136589052649335 $144 $230 forward 7 unknown #
loop $-1 $-1 $151 $90 #
plane-surface $-1 -6.6388404605312985 11.844007757247518 125.37926127341896 0.83867057594974714 0 0.54463902268945019 0.54463902268945019 0 -0.83867057594974714 forward_v I I I I #
loop $-1 $-1 $231 $58 #
coedge $-1 $149 $149 $150 $232 reversed $91 $-1 #
coedge $-1 $150 $150 $149 $232 forward $93 $-1 #
coedge $-1 $151 $151 $94 $152 forward $146 $-1 #
edge $-1 $233 0 $233 6.2831853071796004 $151 $234 forward 7 unknown #
loop $-1 $-1 $158 $95 #
plane-surface $-1 -6.6388404605312985 11.844007757247518 125.37926127341896 0.83867057594974714 0 0.54463902268945019 0.54463902268945019 0 -0.83867057594974714 forward_v I I I I #
loop $-1 $-1 $235 $61 #
coedge $-1 $156 $156 $157 $236 reversed $96 $-1 #
coedge $-1 $157 $157 $156 $236 forward $98 $-1 #
coedge $-1 $158 $158 $99 $159 forward $153 $-1 #
edge $-1 $237 0 $237 6.2831853071796004 $158 $238 forward 7 unknown #
face $-1 $239 $240 $24 $-1 $241 reversed single #
loop $-1 $-1 $242 $100 #
plane-surface $-1 -74.361400189214763 0 0 1 0 0 0 0 -1 forward_v I I I I #
coedge $-1 $106 $243 $244 $245 forward $101 $-1 #
coedge $-1 $246 $103 $247 $248 forward $65 $-1 #
coedge $-1 $103 $246 $168 $249 forward $65 $-1 #
coedge $-1 $169 $250 $103 $167 reversed $251 $-1 #
edge $-1 $252 -35.407618580650244 $253 35.407618580650244 $166 $254 forward 7 unknown #
coedge $-1 $105 $104 $165 $249 reversed $41 $-1 #
coedge $-1 $244 $166 $104 $170 forward $251 $-1 #
edge $-1 $252 -8.6255755423543334 $174 8.6255755423543334 $169 $255 forward 7 unknown #
coedge $-1 $256 $257 $105 $172 reversed $161 $-1 #
edge $-1 $258 -8.6255755423543334 $175 8.6255755423543334 $171 $259 forward 7 unknown #
coedge $-1 $243 $106 $257 $260 forward $101 $-1 #
vertex $-1 $170 $261 #
vertex $-1 $260 $262 #
straight-curve $-1 0 -35.407618580650244 -8.6255755423543334 -1 0 0 I I #
face $-1 $263 $264 $25 $-1 $265 reversed single #
loop $-1 $-1 $114 $108 #
plane-surface $-1 -60.280760806743842 -40.066756101654569 0 1 0 0 0 0 -1 forward_v I I I I #
coedge $-1 $266 $267 $268 $269 forward $109 $-1 #
coedge $-1 $270 $111 $271 $272 forward $69 $-1 #
coedge $-1 $111 $270 $187 $273 forward $69 $-1 #
edge $-1 $189 -60.280760806743842 $274 -57.110249104506096 $111 $275 forward 7 unknown #
coedge $-1 $113 $112 $276 $277 forward $44 $-1 #
coedge $-1 $278 $279 $112 $186 forward $280 $-1 #
edge $-1 $281 57.110249104506096 $190 60.280760806743842 $185 $282 forward 7 unknown #
coedge $-1 $268 $114 $182 $273 reversed $178 $-1 #
coedge $-1 $114 $268 $278 $283 reversed $178 $-1 #
vertex $-1 $183 $284 #
vertex $-1 $283 $285 #
straight-curve $-1 -60.280760806743842 -35.407618580650244 0 0 0 1 I I #
face $-1 $-1 $204 $26 $-1 $286 forward single #
loop $-1 $-1 $287 $116 #
plane-surface $-1 -74.361400189214763 0 0 1 0 0 0 0 -1 forward_v I I I I #
coedge $-1 $288 $289 $290 $291 reversed $117 $-1 #
coedge $-1 $292 $119 $121 $202 forward $73 $-1 #
coedge $-1 $119 $292 $288 $293 forward $73 $-1 #
coedge $-1 $290 $122 $119 $199 forward $204 $-1 #
edge $-1 $206 -2.1077723468251435 $294 13.951780104072661 $198 $295 forward 7 unknown #
coedge $-1 $296 $297 $120 $201 forward $193 $-1 #
edge $-1 $298 -40.175208013281917 $205 -32.199457094109796 $200 $299 forward 7 unknown #
edge $-1 $206 -9.509992538059457 $298 0 $121 $300 forward 7 unknown #
coedge $-1 $122 $290 $296 $301 forward $204 $-1 #
loop $-1 $-1 $290 $192 #
vertex $-1 $201 $302 #
vertex $-1 $123 $303 #
straight-curve $-1 -99.545418419725763 3.8142315317986153 8.6255755423543334 1 0 0 I I #
coedge $-1 $208 $208 $-1 $304 reversed $126 $-1 #
edge $-1 $305 0 $305 6.2831853071796004 $127 $306 forward 7 unknown #
vertex $-1 $130 $307 #
ellipse-curve $-1 -71.771643668358436 8.4026750891979844 4.6377000827682702 -0.83867057594974714 0 0.54463902268945019 0.81695853403417529 0 1.2580058639246208 1 I I #
coedge $-1 $212 $212 $-1 $308 reversed $133 $-1 #
edge $-1 $309 0 $309 6.2831853071796004 $134 $310 forward 7 unknown #
vertex $-1 $137 $311 #
ellipse-curve $-1 -71.771643668358436 15.285340425297044 4.6377000827682702 -0.83867057594974714 0 0.54463902268945019 0.81695853403417529 0 1.2580058639246208 1 I I #
face $-1 $-1 $312 $29 $-1 $313 reversed single #
loop $-1 $-1 $144 $138 #
plane-surface $-1 0 0 8.6255755423543334 0 0 1 1 0 0 forward_v I I I I #
coedge $-1 $314 $315 $316 $317 reversed $139 $-1 #
coedge $-1 $318 $141 $143 $226 forward $87 $-1 #
coedge $-1 $141 $318 $314 $319 forward $87 $-1 #
coedge $-1 $316 $144 $141 $223 forward $217 $-1 #
edge $-1 $229 -13.951780104072661 $320 2.1077723468251435 $222 $321 forward 7 unknown #
coedge $-1 $322 $323 $142 $225 forward $312 $-1 #
edge $-1 $324 -102.53992633840033 $228 -94.564175419228178 $224 $325 forward 7 unknown #
edge $-1 $229 139.21280784037003 $324 148.72280037842955 $143 $326 forward 7 unknown #
coedge $-1 $144 $316 $322 $327 forward $217 $-1 #
vertex $-1 $145 $328 #
vertex $-1 $145 $329 #
straight-curve $-1 59.045298094852733 19.87378398269642 8.6255755423543263 -1 0 0 I I #
coedge $-1 $231 $231 $-1 $330 reversed $148 $-1 #
edge $-1 $331 0 $331 6.2831853071796004 $149 $332 forward 7 unknown #
vertex $-1 $152 $333 #
ellipse-curve $-1 71.771643668358422 8.4026750891979844 4.6377000827682364 0.83867057594974714 0 0.54463902268945019 0.81695853403417529 0 -1.2580058639246208 1 I I #
coedge $-1 $235 $235 $-1 $334 reversed $155 $-1 #
edge $-1 $335 0 $335 6.2831853071796004 $156 $336 forward 7 unknown #
vertex $-1 $159 $337 #
ellipse-curve $-1 71.771643668358422 15.285340425297044 4.6377000827682364 0.83867057594974714 0 0.54463902268945019 0.81695853403417529 0 -1.2580058639246208 1 I I #
face $-1 $-1 $251 $24 $-1 $338 reversed single #
loop $-1 $-1 $339 $160 #
plane-surface $-1 0 35.407618580650244 0 0 -1 0 0 0 -1 forward_v I I I I #
coedge $-1 $257 $256 $340 $341 forward $161 $-1 #
coedge $-1 $163 $173 $342 $343 forward $101 $-1 #
coedge $-1 $250 $169 $163 $245 reversed $251 $-1 #
edge $-1 $344 -35.407618580650244 $174 35.407618580650244 $244 $345 forward 7 unknown #
coedge $-1 $165 $164 $256 $346 forward $65 $-1 #
coedge $-1 $339 $340 $164 $248 reversed $240 $-1 #
edge $-1 $253 -74.361400189214763 $347 74.361400189214763 $247 $348 forward 7 unknown #
edge $-1 $258 -74.361400189214763 $252 74.361400189214763 $168 $349 forward 7 unknown #
coedge $-1 $166 $244 $339 $350 reversed $251 $-1 #
loop $-1 $-1 $169 $239 #
vertex $-1 $167 $351 #
vertex $-1 $167 $352 #
straight-curve $-1 74.361400189214763 0 8.6255755423543334 0 1 0 I I #
straight-curve $-1 74.361400189214763 -35.407618580650244 0 0 0 -1 I I #
coedge $-1 $242 $171 $246 $346 reversed $161 $-1 #
coedge $-1 $171 $242 $173 $260 reversed $161 $-1 #
vertex $-1 $346 $353 #
straight-curve $-1 -74.361400189214763 -35.407618580650244 0 0 0 -1 I I #
edge $-1 $175 -35.407618580650244 $354 35.407618580650244 $257 $355 forward 7 unknown #
point $-1 74.361400189214763 -35.407618580650244 -8.6255755423543334 #
point $-1 -74.361400189214763 -35.407618580650244 -8.6255755423543334 #
face $-1 $-1 $280 $25 $-1 $356 forward single #
loop $-1 $-1 $357 $177 #
plane-surface $-1 -57.110249104506096 -40.066756101654569 0 -1 0 0 0 0 1 forward_v I I I I #
coedge $-1 $358 $180 $270 $359 reversed $109 $-1 #
coedge $-1 $180 $358 $360 $361 reversed $109 $-1 #
coedge $-1 $188 $187 $180 $269 reversed $178 $-1 #
edge $-1 $362 -8.6255755423543334 $363 8.6255755423543334 $268 $364 forward 7 unknown #
coedge $-1 $182 $181 $266 $359 forward $69 $-1 #
coedge $-1 $276 $357 $181 $272 reversed $264 $-1 #
edge $-1 $274 -4.6591375210043253 $365 4.6591375210043253 $271 $366 forward 7 unknown #
edge $-1 $363 -4.6591375210043253 $189 4.6591375210043253 $187 $367 forward 7 unknown #
vertex $-1 $272 $368 #
straight-curve $-1 0 -35.407618580650244 -8.6255755423543334 1 0 0 I I #
coedge $-1 $369 $271 $184 $277 reversed $264 $-1 #
edge $-1 $281 -8.6255755423543334 $274 8.6255755423543334 $276 $370 forward 7 unknown #
coedge $-1 $360 $185 $188 $283 forward $280 $-1 #
coedge $-1 $185 $360 $369 $371 forward $280 $-1 #
loop $-1 $-1 $185 $263 #
vertex $-1 $186 $372 #
straight-curve $-1 0 -35.407618580650244 8.6255755423543334 -1 0 0 I I #
edge $-1 $190 -4.6591375210043253 $362 4.6591375210043253 $188 $373 forward 7 unknown #
point $-1 -60.280760806743842 -35.407618580650244 -8.6255755423543334 #
point $-1 -60.280760806743842 -35.407618580650244 8.6255755423543334 #
plane-surface $-1 0 0 8.6255755423543334 0 0 1 1 0 0 forward_v I I I I #
coedge $-1 $297 $296 $289 $374 forward $193 $-1 #
coedge $-1 $289 $195 $197 $293 reversed $117 $-1 #
coedge $-1 $195 $288 $287 $374 reversed $117 $-1 #
coedge $-1 $203 $198 $195 $291 forward $204 $-1 #
edge $-1 $294 -30.363531272223668 $375 -25.184018230511001 $290 $376 forward 7 unknown #
coedge $-1 $197 $196 $297 $377 reversed $73 $-1 #
edge $-1 $378 0 $294 9.509992538059457 $288 $379 forward 7 unknown #
vertex $-1 $199 $380 #
straight-curve $-1 -69.181887147502096 5.9220038786237588 8.6255755423543352 0 1 0 I I #
coedge $-1 $287 $200 $203 $301 reversed $193 $-1 #
coedge $-1 $200 $287 $292 $377 forward $193 $-1 #
vertex $-1 $201 $381 #
straight-curve $-1 -74.361400189214763 3.8142315317986153 40.82503263646413 0 0 1 I I #
straight-curve $-1 -74.361400189214763 3.8142315317986153 0.64982462318221224 -0.54463902268945019 0 -0.83867057594974714 I I #
edge $-1 $375 -19.87378398269642 $205 -3.8142315317986153 $296 $382 forward 7 unknown #
point $-1 -74.361400189214763 3.8142315317986153 8.6255755423543334 #
point $-1 -69.181887147502096 3.8142315317986153 8.6255755423543334 #
edge $-1 $383 1 $383 0 $208 $-1 forward 7 unknown #
vertex $-1 $209 $384 #
ellipse-curve $-1 -67.298230562100017 8.4026750891979844 1.7326317375247575 -0.83867057594974714 0 0.54463902268945019 0.81695853403417529 0 1.2580058639246208 1 I I #
point $-1 -70.954685134324251 8.4026750891979844 5.8957059466928863 #
edge $-1 $385 1 $385 0 $212 $-1 forward 7 unknown #
vertex $-1 $213 $386 #
ellipse-curve $-1 -67.298230562100017 15.285340425297044 1.7326317375247575 -0.83867057594974714 0 0.54463902268945019 0.81695853403417529 0 1.2580058639246208 1 I I #
point $-1 -70.954685134324251 15.285340425297044 5.8957059466928863 #
loop $-1 $-1 $224 $216 #
plane-surface $-1 74.361400189214763 0 0 -1 0 0 0 0 1 forward_v I I I I #
coedge $-1 $315 $219 $221 $319 reversed $139 $-1 #
coedge $-1 $219 $314 $387 $388 reversed $139 $-1 #
coedge $-1 $227 $222 $219 $317 forward $217 $-1 #
edge $-1 $320 10.136589052649335 $389 15.31610209436203 $316 $390 forward 7 unknown #
coedge $-1 $221 $220 $323 $391 reversed $87 $-1 #
edge $-1 $392 -148.72280037842955 $320 -139.21280784037003 $314 $393 forward 7 unknown #
vertex $-1 $223 $394 #
straight-curve $-1 69.181887147502081 5.9220038786237588 8.6255755423543405 0 -1 0 I I #
coedge $-1 $387 $224 $227 $327 reversed $312 $-1 #
coedge $-1 $224 $387 $318 $391 forward $312 $-1 #
vertex $-1 $225 $395 #
straight-curve $-1 74.361400189214763 19.87378398269642 103.1897509615825 0 0 1 I I #
straight-curve $-1 -6.6388404605312985 19.87378398269642 125.37926127341896 0.54463902268945019 0 -0.83867057594974714 I I #
edge $-1 $389 3.8142315317986153 $228 19.87378398269642 $322 $396 forward 7 unknown #
point $-1 74.361400189214763 19.87378398269642 8.6255755423543334 #
point $-1 69.181887147502067 19.87378398269642 8.6255755423543548 #
edge $-1 $397 1 $397 0 $231 $-1 forward 7 unknown #
vertex $-1 $232 $398 #
ellipse-curve $-1 67.298230562100045 8.4026750891979844 1.7326317375247504 0.83867057594974714 0 0.54463902268945019 0.81695853403417529 0 -1.2580058639246208 1 I I #
point $-1 72.588602202392622 8.4026750891979844 3.3796942188436381 #
edge $-1 $399 1 $399 0 $235 $-1 forward 7 unknown #
vertex $-1 $236 $400 #
ellipse-curve $-1 67.298230562100045 15.285340425297044 1.7326317375247504 0.83867057594974714 0 0.54463902268945019 0.81695853403417529 0 -1.2580058639246208 1 I I #
point $-1 72.588602202392622 15.285340425297044 3.3796942188436381 #
plane-surface $-1 74.361400189214763 0 0 -1 0 0 0 0 1 forward_v I I I I #
coedge $-1 $342 $247 $250 $350 forward $240 $-1 #
coedge $-1 $247 $342 $242 $341 reversed $240 $-1 #
edge $-1 $347 -8.6255755423543334 $354 8.6255755423543334 $340 $401 forward 7 unknown #
coedge $-1 $340 $339 $243 $343 reversed $240 $-1 #
edge $-1 $354 -74.361400189214763 $344 74.361400189214763 $342 $402 forward 7 unknown #
vertex $-1 $245 $403 #
straight-curve $-1 74.361400189214763 0 -8.6255755423543334 0 -1 0 I I #
edge $-1 $347 -35.407618580650244 $258 35.407618580650244 $256 $404 forward 7 unknown #
vertex $-1 $248 $405 #
straight-curve $-1 0 35.407618580650244 8.6255755423543334 -1 0 0 I I #
straight-curve $-1 0 -35.407618580650244 8.6255755423543334 1 0 0 I I #
edge $-1 $253 -8.6255755423543334 $344 8.6255755423543334 $250 $406 forward 7 unknown #
point $-1 74.361400189214763 -35.407618580650244 8.6255755423543334 #
point $-1 74.361400189214763 35.407618580650244 8.6255755423543334 #
point $-1 -74.361400189214763 -35.407618580650244 8.6255755423543334 #
vertex $-1 $343 $407 #
straight-curve $-1 -74.361400189214763 0 -8.6255755423543334 0 1 0 I I #
plane-surface $-1 0 0 8.6255755423543334 0 0 1 1 0 0 forward_v I I I I #
coedge $-1 $271 $369 $358 $408 forward $264 $-1 #
coedge $-1 $267 $266 $357 $408 reversed $109 $-1 #
edge $-1 $365 -1.5852558511188732 $363 1.5852558511188732 $266 $409 forward 7 unknown #
coedge $-1 $279 $278 $267 $361 forward $280 $-1 #
edge $-1 $362 -1.5852558511188732 $410 1.5852558511188732 $267 $411 forward 7 unknown #
vertex $-1 $283 $412 #
vertex $-1 $273 $413 #
straight-curve $-1 -60.280760806743842 -44.725893622658894 0 0 0 -1 I I #
vertex $-1 $408 $414 #
straight-curve $-1 -57.110249104506096 -40.066756101654569 -8.6255755423543334 0 -1 0 I I #
straight-curve $-1 -60.280760806743842 -40.066756101654569 -8.6255755423543334 0 1 0 I I #
point $-1 -57.110249104506096 -35.407618580650244 -8.6255755423543334 #
coedge $-1 $357 $276 $279 $371 reversed $264 $-1 #
straight-curve $-1 -57.110249104506096 -35.407618580650244 0 0 0 -1 I I #
edge $-1 $410 -4.6591375210043253 $281 4.6591375210043253 $369 $415 forward 7 unknown #
point $-1 -57.110249104506096 -35.407618580650244 8.6255755423543334 #
straight-curve $-1 -60.280760806743842 -40.066756101654569 8.6255755423543334 0 -1 0 I I #
edge $-1 $375 32.199457094109796 $378 40.175208013281917 $287 $416 forward 7 unknown #
vertex $-1 $301 $417 #
straight-curve $-1 -99.545418419725763 19.87378398269642 8.6255755423543334 -1 0 0 I I #
edge $-1 $378 -13.951780104072661 $298 2.1077723468251435 $297 $418 forward 7 unknown #
vertex $-1 $377 $419 #
straight-curve $-1 -74.361400189214763 19.87378398269642 0.64982462318221224 0.54463902268945019 0 0.83867057594974714 I I #
point $-1 -69.181887147502096 19.87378398269642 8.6255755423543334 #
point $-1 -74.361400189214763 3.8142315317986153 0.64982462318221224 #
straight-curve $-1 -74.361400189214763 0 8.6255755423543334 0 -1 0 I I #
vertex $-1 $304 $420 #
point $-1 -66.481272028065845 8.4026750891979844 2.9906376014493783 #
vertex $-1 $308 $421 #
point $-1 -66.481272028065845 15.285340425297044 2.9906376014493783 #
coedge $-1 $323 $322 $315 $388 forward $312 $-1 #
edge $-1 $389 94.564175419228178 $392 102.53992633840033 $387 $422 forward 7 unknown #
vertex $-1 $327 $423 #
straight-curve $-1 59.045298094852733 3.8142315317986153 8.6255755423543263 1 0 0 I I #
edge $-1 $392 -2.1077723468251435 $324 13.951780104072661 $323 $424 forward 7 unknown #
vertex $-1 $391 $425 #
straight-curve $-1 -6.6388404605312985 3.8142315317986153 125.37926127341896 -0.54463902268945019 0 0.83867057594974714 I I #
point $-1 69.181887147502067 3.8142315317986153 8.6255755423543548 #
point $-1 74.361400189214763 19.87378398269642 0.6498246231821696 #
straight-curve $-1 74.361400189214763 0 8.6255755423543334 0 1 0 I I #
vertex $-1 $330 $426 #
point $-1 68.11518909613423 8.4026750891979844 0.47462587360012964 #
vertex $-1 $334 $427 #
point $-1 68.11518909613423 15.285340425297044 0.47462587360012964 #
straight-curve $-1 -74.361400189214763 35.407618580650244 0 0 0 -1 I I #
straight-curve $-1 0 35.407618580650244 -8.6255755423543334 1 0 0 I I #
point $-1 74.361400189214763 35.407618580650244 -8.6255755423543334 #
straight-curve $-1 -74.361400189214763 0 8.6255755423543334 0 -1 0 I I #
point $-1 -74.361400189214763 35.407618580650244 8.6255755423543334 #
straight-curve $-1 74.361400189214763 35.407618580650244 0 0 0 -1 I I #
point $-1 -74.361400189214763 35.407618580650244 -8.6255755423543334 #
edge $-1 $410 -8.6255755423543334 $365 8.6255755423543334 $357 $428 forward 7 unknown #
straight-curve $-1 -58.695504955624969 -44.725893622658894 -8.6255755423543334 -1 0 0 I I #
vertex $-1 $371 $429 #
straight-curve $-1 -58.695504955624969 -44.725893622658894 8.6255755423543334 1 0 0 I I #
point $-1 -60.280760806743842 -44.725893622658894 8.6255755423543334 #
point $-1 -60.280760806743842 -44.725893622658894 -8.6255755423543334 #
point $-1 -57.110249104506096 -44.725893622658894 -8.6255755423543334 #
straight-curve $-1 -57.110249104506096 -40.066756101654569 8.6255755423543334 0 1 0 I I #
straight-curve $-1 -74.361400189214763 19.87378398269642 40.82503263646413 0 0 -1 I I #
point $-1 -74.361400189214763 19.87378398269642 8.6255755423543334 #
straight-curve $-1 -74.361400189214763 5.9220038786237588 0.64982462318221024 0 -1 0 I I #
point $-1 -74.361400189214763 19.87378398269642 0.64982462318221224 #
point $-1 -66.040224698175408 8.4026750891979844 0.91567320349058234 #
point $-1 -66.040224698175408 15.285340425297044 0.91567320349058234 #
straight-curve $-1 74.361400189214763 3.8142315317986153 103.1897509615825 0 0 -1 I I #
point $-1 74.361400189214763 3.8142315317986153 8.6255755423543334 #
straight-curve $-1 74.361400189214763 5.9220038786237588 0.64982462318219092 0 1 0 I I #
point $-1 74.361400189214763 3.8142315317986153 0.6498246231821696 #
point $-1 66.040224698175436 8.4026750891979844 0.91567320349057524 #
point $-1 66.040224698175436 15.285340425297044 0.91567320349057524 #
straight-curve $-1 -57.110249104506096 -44.725893622658894 0 0 0 -1 I I #
point $-1 -57.110249104506096 -44.725893622658894 8.6255755423543334 #
End-of-ACIS-data 