500 0 5 0           
7 Unknown 11 ACIS 5.0 NT 24 Thu Mar 25 18:42:39 1999 
-1 9.9999999999999995e-007 1e-010 
body $-1 $5 $-1 $6 #
body $-1 $7 $-1 $8 #
body $-1 $9 $-1 $10 #
body $-1 $11 $-1 $12 #
body $-1 $13 $-1 $14 #
lump $-1 $-1 $15 $0 #
transform $-1 1 0 0 0 1 0 0 0 1 61.273842585528122 36.173202867479922 8.3798806215542037 1 rotate no_reflect no_shear #
lump $-1 $-1 $16 $1 #
transform $-1 1 0 0 0 1 0 0 0 1 61.273842585528122 36.173202867479922 8.3798806215542037 1 rotate no_reflect no_shear #
lump $-1 $-1 $17 $2 #
transform $-1 1 0 0 0 1 0 0 0 1 61.273842585528122 36.173202867479922 8.3798806215542037 1 rotate no_reflect no_shear #
lump $-1 $-1 $18 $3 #
transform $-1 1 0 0 0 1 0 0 0 1 61.273842585528122 36.173202867479922 8.3798806215542037 1 rotate no_reflect no_shear #
lump $-1 $-1 $19 $4 #
transform $-1 1 0 0 0 1 0 0 0 1 61.273842585528122 36.173202867479922 8.3798806215542037 1 rotate no_reflect no_shear #
shell $-1 $-1 $-1 $20 $-1 $5 #
shell $-1 $-1 $-1 $21 $-1 $7 #
shell $-1 $-1 $-1 $22 $-1 $9 #
shell $-1 $-1 $-1 $23 $-1 $11 #
shell $-1 $-1 $-1 $24 $-1 $13 #
face $-1 $25 $26 $15 $-1 $27 forward single #
face $-1 $28 $29 $16 $-1 $30 forward single #
face $-1 $31 $32 $17 $-1 $33 reversed single #
face $-1 $34 $35 $18 $-1 $36 forward single #
face $-1 $37 $38 $19 $-1 $39 forward single #
face $-1 $40 $41 $15 $-1 $42 reversed single #
loop $-1 $-1 $43 $20 #
plane-surface $-1 0 0 8.3798806215542037 0 0 1 1 0 0 forward_v I I I I #
face $-1 $44 $45 $16 $-1 $46 reversed single #
loop $-1 $-1 $47 $21 #
plane-surface $-1 0 -31.155938913686132 -3.3793677337936718 0 0 1 1 0 0 forward_v I I I I #
face $-1 $48 $49 $17 $-1 $50 reversed single #
loop $-1 $-1 $51 $22 #
plane-surface $-1 55.225461647212761 -17.971211228675532 174.97705261504404 0 -1 0 -0.68199836817093118 0 -0.7313536940579346 forward_v I I I I #
face $-1 $52 $53 $18 $-1 $54 forward single #
loop $-1 $55 $56 $23 #
cone-surface $-1 57.389047218540753 -23.805113893830395 4.709302687846229 -0.68199836817093118 0 -0.7313536940579346 0.7313536940579346 0 -0.68199836817093118 1 I I 0 1 1 forward I I I I #
face $-1 $57 $58 $19 $-1 $59 forward single #
loop $-1 $60 $61 $24 #
cone-surface $-1 57.389047218540753 -20.304772294737475 4.709302687846229 -0.68199836817093118 0 -0.7313536940579346 0.7313536940579346 0 -0.68199836817093118 1 I I 0 1 1 forward I I I I #
face $-1 $62 $63 $15 $-1 $64 reversed single #
loop $-1 $-1 $65 $25 #
plane-surface $-1 0 0 -8.3798806215542037 0 0 1 1 0 0 forward_v I I I I #
coedge $-1 $66 $67 $68 $69 forward $26 $-1 #
face $-1 $70 $71 $16 $-1 $72 reversed single #
loop $-1 $-1 $73 $28 #
plane-surface $-1 0 -26.138674959892342 -5.8796241776739375 0 -1 0 0 0 -1 forward_v I I I I #
coedge $-1 $74 $75 $76 $77 reversed $29 $-1 #
face $-1 $78 $79 $17 $-1 $80 reversed single #
loop $-1 $-1 $81 $31 #
plane-surface $-1 -28.351859662572615 -22.054943094283935 85.351350366943294 0.68199836817093118 0 0.7313536940579346 0.7313536940579346 0 -0.68199836817093118 forward_v I I I I #
coedge $-1 $82 $83 $84 $85 reversed $32 $-1 #
face $-1 $-1 $86 $18 $-1 $87 forward single #
loop $-1 $88 $89 $34 #
cone-surface $-1 56.705206849100769 -23.805113893830395 3.9759736893074411 -0.68199836817093118 0 -0.7313536940579346 0.3656768470289673 0 -0.34099918408546559 1 I I -0.70710678118654746 0.70710678118654746 0.5 forward I I I I #
loop $-1 $-1 $90 $23 #
coedge $-1 $56 $56 $91 $92 reversed $35 $-1 #
face $-1 $-1 $93 $19 $-1 $94 forward single #
loop $-1 $95 $96 $37 #
cone-surface $-1 56.705206849100769 -20.304772294737475 3.9759736893074411 -0.68199836817093118 0 -0.7313536940579346 0.3656768470289673 0 -0.34099918408546559 1 I I -0.70710678118654746 0.70710678118654746 0.5 forward I I I I #
loop $-1 $-1 $97 $24 #
coedge $-1 $61 $61 $98 $99 reversed $38 $-1 #
face $-1 $100 $101 $15 $-1 $102 reversed single #
loop $-1 $-1 $103 $40 #
plane-surface $-1 0 -36.173202867479922 0 0 1 0 0 0 1 forward_v I I I I #
coedge $-1 $104 $105 $106 $107 forward $41 $-1 #
coedge $-1 $108 $43 $109 $110 forward $26 $-1 #
coedge $-1 $43 $108 $111 $112 forward $26 $-1 #
coedge $-1 $113 $114 $43 $69 reversed $115 $-1 #
edge $-1 $116 -36.173202867479922 $117 36.173202867479922 $68 $118 forward 7 unknown #
face $-1 $119 $120 $16 $-1 $121 reversed single #
loop $-1 $-1 $122 $44 #
plane-surface $-1 0 0 -8.3798806215542037 0 0 1 1 0 0 forward_v I I I I #
coedge $-1 $123 $124 $125 $126 reversed $45 $-1 #
coedge $-1 $127 $47 $124 $128 forward $29 $-1 #
coedge $-1 $47 $127 $129 $130 reversed $29 $-1 #
coedge $-1 $131 $125 $47 $77 forward $120 $-1 #
edge $-1 $132 10.560705503049276 $133 20.595233410636858 $76 $134 forward 7 unknown #
face $-1 $135 $136 $17 $-1 $137 reversed single #
loop $-1 $-1 $138 $48 #
plane-surface $-1 55.225461647212761 -26.138674959892338 174.97705261504404 0 1 0 0.68199836817093118 0 0.7313536940579346 forward_v I I I I #
coedge $-1 $139 $140 $141 $142 reversed $49 $-1 #
coedge $-1 $83 $51 $143 $144 reversed $32 $-1 #
coedge $-1 $51 $82 $139 $145 reversed $32 $-1 #
coedge $-1 $141 $146 $51 $85 forward $147 $-1 #
edge $-1 $148 -33.661111761921745 $149 -26.577203398656064 $84 $150 forward 7 unknown #
loop $-1 $-1 $91 $52 #
plane-surface $-1 -28.351859662572615 -22.054943094283935 85.351350366943294 0.68199836817093118 0 0.7313536940579346 0.7313536940579346 0 -0.68199836817093118 forward_v I I I I #
loop $-1 $-1 $151 $34 #
coedge $-1 $89 $89 $90 $152 reversed $53 $-1 #
coedge $-1 $90 $90 $89 $152 forward $55 $-1 #
coedge $-1 $91 $91 $56 $92 forward $86 $-1 #
edge $-1 $153 0 $153 6.2831853071796004 $91 $154 forward 7 unknown #
loop $-1 $-1 $98 $57 #
plane-surface $-1 -28.351859662572615 -22.054943094283935 85.351350366943294 0.68199836817093118 0 0.7313536940579346 0.7313536940579346 0 -0.68199836817093118 forward_v I I I I #
loop $-1 $-1 $155 $37 #
coedge $-1 $96 $96 $97 $156 reversed $58 $-1 #
coedge $-1 $97 $97 $96 $156 forward $60 $-1 #
coedge $-1 $98 $98 $61 $99 forward $93 $-1 #
edge $-1 $157 0 $157 6.2831853071796004 $98 $158 forward 7 unknown #
face $-1 $159 $160 $15 $-1 $161 reversed single #
loop $-1 $-1 $162 $62 #
plane-surface $-1 -61.273842585528122 0 0 1 0 0 0 0 -1 forward_v I I I I #
coedge $-1 $163 $111 $164 $165 forward $63 $-1 #
coedge $-1 $166 $65 $163 $167 forward $41 $-1 #
coedge $-1 $65 $166 $168 $169 forward $41 $-1 #
coedge $-1 $114 $113 $65 $107 reversed $115 $-1 #
edge $-1 $170 -36.173202867479922 $171 36.173202867479922 $106 $172 forward 7 unknown #
coedge $-1 $67 $66 $173 $174 forward $26 $-1 #
coedge $-1 $175 $176 $66 $110 reversed $160 $-1 #
edge $-1 $117 -61.273842585528122 $177 61.273842585528122 $109 $178 forward 7 unknown #
coedge $-1 $103 $179 $67 $112 reversed $63 $-1 #
edge $-1 $180 -61.273842585528122 $116 61.273842585528122 $111 $181 forward 7 unknown #
coedge $-1 $106 $68 $179 $182 forward $115 $-1 #
coedge $-1 $68 $106 $175 $183 reversed $115 $-1 #
loop $-1 $-1 $113 $159 #
vertex $-1 $69 $184 #
vertex $-1 $69 $185 #
straight-curve $-1 61.273842585528122 0 8.3798806215542037 0 1 0 I I #
face $-1 $186 $187 $16 $-1 $188 reversed single #
loop $-1 $-1 $125 $70 #
plane-surface $-1 61.273842585528122 0 0 -1 0 0 0 0 1 forward_v I I I I #
coedge $-1 $189 $190 $123 $191 forward $71 $-1 #
coedge $-1 $192 $73 $122 $191 reversed $45 $-1 #
coedge $-1 $73 $192 $74 $128 reversed $45 $-1 #
coedge $-1 $76 $193 $73 $126 forward $120 $-1 #
edge $-1 $194 -5.4400685327172349 $132 -0.43955564495670307 $125 $195 forward 7 unknown #
coedge $-1 $75 $74 $196 $197 reversed $29 $-1 #
edge $-1 $132 -61.273842585528122 $198 61.273842585528122 $124 $199 forward 7 unknown #
coedge $-1 $200 $201 $75 $130 forward $187 $-1 #
edge $-1 $133 -61.273842585528122 $202 61.273842585528122 $129 $203 forward 7 unknown #
coedge $-1 $193 $76 $201 $204 forward $120 $-1 #
vertex $-1 $77 $205 #
vertex $-1 $204 $206 #
straight-curve $-1 61.273842585528122 -15.577969456843066 -3.3793677337936718 0 -1 0 I I #
face $-1 $-1 $147 $17 $-1 $207 forward single #
loop $-1 $-1 $208 $78 #
plane-surface $-1 61.273842585528122 0 0 -1 0 0 0 0 1 forward_v I I I I #
coedge $-1 $209 $210 $211 $212 reversed $79 $-1 #
coedge $-1 $213 $81 $83 $145 forward $49 $-1 #
coedge $-1 $81 $213 $209 $214 forward $49 $-1 #
coedge $-1 $211 $84 $81 $142 forward $147 $-1 #
edge $-1 $149 6.9437396815335646 $215 15.11120341275037 $141 $216 forward 7 unknown #
coedge $-1 $217 $218 $82 $144 forward $136 $-1 #
edge $-1 $219 -85.71449725036409 $148 -79.108645685967815 $143 $220 forward 7 unknown #
edge $-1 $149 112.86166263391631 $219 122.54768517105622 $83 $221 forward 7 unknown #
coedge $-1 $84 $211 $217 $222 forward $147 $-1 #
loop $-1 $-1 $211 $135 #
vertex $-1 $144 $223 #
vertex $-1 $85 $224 #
straight-curve $-1 27.61273082360638 -17.971211228675532 8.3798806215542072 -1 0 0 I I #
coedge $-1 $151 $151 $-1 $225 reversed $88 $-1 #
edge $-1 $226 0 $226 6.2831853071796004 $89 $227 forward 7 unknown #
vertex $-1 $92 $228 #
ellipse-curve $-1 57.73188840389529 -23.805113893830395 5.0769548393560653 0.68199836817093118 0 0.7313536940579346 0.7313536940579346 0 -0.68199836817093118 1 I I #
coedge $-1 $155 $155 $-1 $229 reversed $95 $-1 #
edge $-1 $230 0 $230 6.2831853071796004 $96 $231 forward 7 unknown #
vertex $-1 $99 $232 #
ellipse-curve $-1 57.73188840389529 -20.304772294737475 5.0769548393560653 0.68199836817093118 0 0.7313536940579346 0.7313536940579346 0 -0.68199836817093118 1 I I #
face $-1 $-1 $115 $15 $-1 $233 reversed single #
loop $-1 $-1 $175 $100 #
plane-surface $-1 0 36.173202867479922 0 0 -1 0 0 0 -1 forward_v I I I I #
coedge $-1 $234 $173 $176 $235 forward $101 $-1 #
coedge $-1 $179 $103 $104 $167 reversed $63 $-1 #
coedge $-1 $173 $234 $103 $165 reversed $101 $-1 #
edge $-1 $180 -8.3798806215542037 $236 8.3798806215542037 $164 $237 forward 7 unknown #
coedge $-1 $105 $104 $234 $238 forward $41 $-1 #
edge $-1 $171 -61.273842585528122 $236 61.273842585528122 $163 $239 forward 7 unknown #
coedge $-1 $176 $175 $105 $169 reversed $160 $-1 #
edge $-1 $240 -61.273842585528122 $170 61.273842585528122 $168 $241 forward 7 unknown #
vertex $-1 $107 $242 #
vertex $-1 $182 $243 #
straight-curve $-1 61.273842585528122 0 -8.3798806215542037 0 -1 0 I I #
coedge $-1 $162 $164 $108 $174 reversed $101 $-1 #
edge $-1 $177 -36.173202867479922 $180 36.173202867479922 $173 $244 forward 7 unknown #
coedge $-1 $168 $109 $114 $183 forward $160 $-1 #
coedge $-1 $109 $168 $162 $235 reversed $160 $-1 #
vertex $-1 $110 $245 #
straight-curve $-1 0 36.173202867479922 8.3798806215542037 -1 0 0 I I #
coedge $-1 $111 $163 $113 $182 reversed $63 $-1 #
vertex $-1 $174 $246 #
straight-curve $-1 0 -36.173202867479922 8.3798806215542037 1 0 0 I I #
edge $-1 $116 -8.3798806215542037 $171 8.3798806215542037 $113 $247 forward 7 unknown #
edge $-1 $117 -8.3798806215542037 $170 8.3798806215542037 $114 $248 forward 7 unknown #
point $-1 61.273842585528122 -36.173202867479922 8.3798806215542037 #
point $-1 61.273842585528122 36.173202867479922 8.3798806215542037 #
face $-1 $-1 $249 $16 $-1 $250 reversed single #
loop $-1 $-1 $129 $119 #
plane-surface $-1 0 -36.173202867479922 0 0 1 0 0 0 1 forward_v I I I I #
coedge $-1 $251 $122 $193 $252 forward $71 $-1 #
coedge $-1 $122 $251 $253 $254 forward $71 $-1 #
edge $-1 $255 -61.273842585528122 $194 61.273842585528122 $122 $256 forward 7 unknown #
coedge $-1 $124 $123 $257 $258 reversed $45 $-1 #
coedge $-1 $125 $131 $189 $252 reversed $120 $-1 #
vertex $-1 $252 $259 #
straight-curve $-1 61.273842585528122 -26.138674959892342 -2.9398120888369688 0 0 1 I I #
coedge $-1 $257 $260 $127 $197 forward $249 $-1 #
edge $-1 $202 -20.595233410636858 $198 -10.560705503049276 $196 $261 forward 7 unknown #
vertex $-1 $197 $262 #
straight-curve $-1 0 -26.138674959892342 -3.3793677337936718 -1 0 0 I I #
coedge $-1 $263 $129 $260 $264 forward $187 $-1 #
coedge $-1 $129 $263 $131 $204 reversed $187 $-1 #
vertex $-1 $264 $265 #
straight-curve $-1 0 -36.173202867479922 -3.3793677337936718 -1 0 0 I I #
edge $-1 $133 3.3793677337936718 $266 8.3798806215542037 $131 $267 forward 7 unknown #
point $-1 61.273842585528122 -26.138674959892342 -3.3793677337936718 #
point $-1 61.273842585528122 -36.173202867479922 -3.3793677337936718 #
plane-surface $-1 0 0 8.3798806215542037 0 0 1 1 0 0 forward_v I I I I #
coedge $-1 $218 $217 $210 $268 forward $136 $-1 #
coedge $-1 $210 $138 $140 $214 reversed $79 $-1 #
coedge $-1 $138 $209 $208 $268 reversed $79 $-1 #
coedge $-1 $146 $141 $138 $212 forward $147 $-1 #
edge $-1 $215 26.577203398656064 $269 33.661111761921745 $211 $270 forward 7 unknown #
coedge $-1 $140 $139 $218 $271 reversed $49 $-1 #
edge $-1 $272 -122.54768517105622 $215 -112.86166263391631 $209 $273 forward 7 unknown #
vertex $-1 $142 $274 #
straight-curve $-1 54.189934222262444 -11.027471547141968 8.3798806215542001 0 -1 0 I I #
coedge $-1 $208 $143 $146 $222 reversed $136 $-1 #
coedge $-1 $143 $208 $213 $271 forward $136 $-1 #
vertex $-1 $144 $275 #
straight-curve $-1 61.273842585528122 -17.971211228675532 87.488526307522022 0 0 1 I I #
straight-curve $-1 -28.351859662572615 -17.971211228675532 85.351350366943294 0.7313536940579346 0 -0.68199836817093118 I I #
edge $-1 $269 -26.138674959892338 $148 -17.971211228675532 $217 $276 forward 7 unknown #
point $-1 61.273842585528122 -17.971211228675532 8.3798806215542037 #
point $-1 54.189934222262444 -17.971211228675532 8.3798806215542072 #
edge $-1 $277 1 $277 0 $151 $-1 forward 7 unknown #
vertex $-1 $152 $278 #
ellipse-curve $-1 57.046206033186238 -23.805113893830395 4.3416505363364086 0.68199836817093118 0 0.7313536940579346 0.7313536940579346 0 -0.68199836817093118 1 I I #
point $-1 58.463242097953213 -23.805113893830395 4.394956471185119 #
edge $-1 $279 1 $279 0 $155 $-1 forward 7 unknown #
vertex $-1 $156 $280 #
ellipse-curve $-1 57.046206033186238 -20.304772294737475 4.3416505363364086 0.68199836817093118 0 0.7313536940579346 0.7313536940579346 0 -0.68199836817093118 1 I I #
point $-1 58.463242097953213 -20.304772294737475 4.394956471185119 #
plane-surface $-1 61.273842585528122 0 0 -1 0 0 0 0 1 forward_v I I I I #
coedge $-1 $164 $162 $166 $238 reversed $101 $-1 #
edge $-1 $177 -8.3798806215542037 $240 8.3798806215542037 $176 $281 forward 7 unknown #
vertex $-1 $238 $282 #
straight-curve $-1 -61.273842585528122 -36.173202867479922 0 0 0 -1 I I #
edge $-1 $236 -36.173202867479922 $240 36.173202867479922 $234 $283 forward 7 unknown #
straight-curve $-1 0 -36.173202867479922 -8.3798806215542037 -1 0 0 I I #
vertex $-1 $169 $284 #
straight-curve $-1 0 36.173202867479922 -8.3798806215542037 1 0 0 I I #
point $-1 61.273842585528122 36.173202867479922 -8.3798806215542037 #
point $-1 61.273842585528122 -36.173202867479922 -8.3798806215542037 #
straight-curve $-1 -61.273842585528122 0 8.3798806215542037 0 -1 0 I I #
point $-1 -61.273842585528122 36.173202867479922 8.3798806215542037 #
point $-1 -61.273842585528122 -36.173202867479922 8.3798806215542037 #
straight-curve $-1 61.273842585528122 -36.173202867479922 0 0 0 -1 I I #
straight-curve $-1 61.273842585528122 36.173202867479922 0 0 0 -1 I I #
loop $-1 $-1 $257 $186 #
plane-surface $-1 -61.273842585528122 0 0 1 0 0 0 0 -1 forward_v I I I I #
coedge $-1 $190 $189 $263 $285 forward $71 $-1 #
edge $-1 $194 26.138674959892342 $266 36.173202867479922 $193 $286 forward 7 unknown #
coedge $-1 $260 $257 $190 $254 reversed $249 $-1 #
edge $-1 $287 -36.173202867479922 $255 -26.138674959892342 $253 $288 forward 7 unknown #
vertex $-1 $258 $289 #
straight-curve $-1 0 -26.138674959892342 -8.3798806215542037 1 0 0 I I #
coedge $-1 $253 $196 $192 $258 forward $249 $-1 #
edge $-1 $198 0.43955564495670307 $255 5.4400685327172349 $257 $290 forward 7 unknown #
point $-1 61.273842585528122 -26.138674959892342 -8.3798806215542037 #
coedge $-1 $196 $253 $200 $264 reversed $249 $-1 #
straight-curve $-1 -61.273842585528122 -15.577969456843066 -3.3793677337936718 0 1 0 I I #
point $-1 -61.273842585528122 -26.138674959892342 -3.3793677337936718 #
coedge $-1 $201 $200 $251 $285 reversed $187 $-1 #
edge $-1 $202 3.3793677337936718 $287 8.3798806215542037 $260 $291 forward 7 unknown #
point $-1 -61.273842585528122 -36.173202867479922 -3.3793677337936718 #
vertex $-1 $204 $292 #
straight-curve $-1 61.273842585528122 -36.173202867479922 0 0 0 -1 I I #
edge $-1 $269 79.108645685967815 $272 85.71449725036409 $208 $293 forward 7 unknown #
vertex $-1 $222 $294 #
straight-curve $-1 27.61273082360638 -26.138674959892338 8.3798806215542072 1 0 0 I I #
edge $-1 $272 -15.11120341275037 $219 -6.9437396815335646 $218 $295 forward 7 unknown #
vertex $-1 $271 $296 #
straight-curve $-1 -28.351859662572615 -26.138674959892338 85.351350366943294 -0.7313536940579346 0 0.68199836817093118 I I #
point $-1 54.189934222262444 -26.138674959892338 8.3798806215542072 #
point $-1 61.273842585528122 -17.971211228675532 1.7740290571579322 #
straight-curve $-1 61.273842585528122 0 8.3798806215542037 0 1 0 I I #
vertex $-1 $225 $297 #
point $-1 57.777559727244167 -23.805113893830395 3.6596521681654774 #
vertex $-1 $229 $298 #
point $-1 57.777559727244167 -20.304772294737475 3.6596521681654774 #
straight-curve $-1 -61.273842585528122 36.173202867479922 0 0 0 -1 I I #
point $-1 -61.273842585528122 -36.173202867479922 -8.3798806215542037 #
straight-curve $-1 -61.273842585528122 0 -8.3798806215542037 0 1 0 I I #
point $-1 -61.273842585528122 36.173202867479922 -8.3798806215542037 #
edge $-1 $266 -61.273842585528122 $287 61.273842585528122 $263 $299 forward 7 unknown #
straight-curve $-1 61.273842585528122 0 -8.3798806215542037 0 -1 0 I I #
vertex $-1 $254 $300 #
straight-curve $-1 -61.273842585528122 0 -8.3798806215542037 0 1 0 I I #
point $-1 -61.273842585528122 -26.138674959892342 -8.3798806215542037 #
straight-curve $-1 -61.273842585528122 -26.138674959892342 -2.9398120888369688 0 0 -1 I I #
straight-curve $-1 -61.273842585528122 -36.173202867479922 0 0 0 -1 I I #
point $-1 61.273842585528122 -36.173202867479922 -8.3798806215542037 #
straight-curve $-1 61.273842585528122 -26.138674959892338 87.488526307522022 0 0 -1 I I #
point $-1 61.273842585528122 -26.138674959892338 8.3798806215542037 #
straight-curve $-1 61.273842585528122 -11.027471547141968 1.7740290571579393 0 1 0 I I #
point $-1 61.273842585528122 -26.138674959892338 1.7740290571579322 #
point $-1 56.3642076650153 -23.805113893830395 3.6102968422784736 #
point $-1 56.3642076650153 -20.304772294737475 3.6102968422784736 #
straight-curve $-1 0 -36.173202867479922 -8.3798806215542037 -1 0 0 I I #
point $-1 -61.273842585528122 -36.173202867479922 -8.3798806215542037 #
End-of-ACIS-data 