500 0 9 0           
7 Unknown 11 ACIS 5.0 NT 24 Thu Mar 25 17:15:13 1999 
-1 9.9999999999999995e-007 1e-010 
body $-1 $9 $-1 $10 #
body $-1 $11 $-1 $12 #
body $-1 $13 $-1 $14 #
body $-1 $15 $-1 $16 #
body $-1 $17 $-1 $18 #
body $-1 $19 $-1 $20 #
body $-1 $21 $-1 $22 #
body $-1 $23 $-1 $24 #
body $-1 $25 $-1 $26 #
lump $-1 $-1 $27 $0 #
transform $-1 1 0 0 0 1 0 0 0 1 77.908871730704675 49.453956318113306 24.543602943362487 1 rotate no_reflect no_shear #
lump $-1 $-1 $28 $1 #
transform $-1 1 0 0 0 1 0 0 0 1 77.908871730704675 49.453956318113306 24.543602943362487 1 rotate no_reflect no_shear #
lump $-1 $-1 $29 $2 #
transform $-1 1 0 0 0 1 0 0 0 1 77.908871730704675 49.453956318113306 24.543602943362487 1 rotate no_reflect no_shear #
lump $-1 $-1 $30 $3 #
transform $-1 1 0 0 0 1 0 0 0 1 77.908871730704675 49.453956318113306 24.543602943362487 1 rotate no_reflect no_shear #
lump $-1 $-1 $31 $4 #
transform $-1 1 0 0 0 1 0 0 0 1 77.908871730704675 49.453956318113306 24.543602943362487 1 rotate no_reflect no_shear #
lump $-1 $-1 $32 $5 #
transform $-1 1 0 0 0 1 0 0 0 1 77.908871730704675 49.453956318113306 24.543602943362487 1 rotate no_reflect no_shear #
lump $-1 $-1 $33 $6 #
transform $-1 1 0 0 0 1 0 0 0 1 77.908871730704675 49.453956318113306 24.543602943362487 1 rotate no_reflect no_shear #
lump $-1 $-1 $34 $7 #
transform $-1 1 0 0 0 1 0 0 0 1 77.908871730704675 49.453956318113306 24.543602943362487 1 rotate no_reflect no_shear #
lump $-1 $-1 $35 $8 #
transform $-1 1 0 0 0 1 0 0 0 1 77.908871730704675 49.453956318113306 24.543602943362487 1 rotate no_reflect no_shear #
shell $-1 $-1 $-1 $36 $-1 $9 #
shell $-1 $-1 $-1 $37 $-1 $11 #
shell $-1 $-1 $-1 $38 $-1 $13 #
shell $-1 $-1 $-1 $39 $-1 $15 #
shell $-1 $-1 $-1 $40 $-1 $17 #
shell $-1 $-1 $-1 $41 $-1 $19 #
shell $-1 $-1 $-1 $42 $-1 $21 #
shell $-1 $-1 $-1 $43 $-1 $23 #
shell $-1 $-1 $-1 $44 $-1 $25 #
face $-1 $45 $46 $27 $-1 $47 forward single #
face $-1 $48 $49 $28 $-1 $50 forward single #
face $-1 $51 $52 $29 $-1 $53 forward single #
face $-1 $54 $55 $30 $-1 $56 reversed single #
face $-1 $57 $58 $31 $-1 $59 forward single #
face $-1 $60 $61 $32 $-1 $62 forward single #
face $-1 $63 $64 $33 $-1 $65 reversed single #
face $-1 $66 $67 $34 $-1 $68 forward single #
face $-1 $69 $70 $35 $-1 $71 forward single #
face $-1 $72 $73 $27 $-1 $74 reversed single #
loop $-1 $-1 $75 $36 #
plane-surface $-1 0 0 24.543602943362487 0 0 1 1 0 0 forward_v I I I I #
face $-1 $76 $77 $28 $-1 $78 reversed single #
loop $-1 $-1 $79 $37 #
plane-surface $-1 -77.908871730704675 0 0 1 0 0 0 0 -1 forward_v I I I I #
face $-1 $80 $81 $29 $-1 $82 reversed single #
loop $-1 $-1 $83 $38 #
plane-surface $-1 77.908871730704675 0 0 -1 0 0 0 0 1 forward_v I I I I #
face $-1 $84 $85 $30 $-1 $86 reversed single #
loop $-1 $-1 $87 $39 #
plane-surface $-1 -45.70025872432155 -177.09238067841923 91.159096219788765 -1 0 0 0 -0.81915205242281985 0.57357642473473569 forward_v I I I I #
face $-1 $88 $89 $31 $-1 $90 forward single #
loop $-1 $91 $92 $40 #
cone-surface $-1 -54.885046293077536 -39.121518165179921 11.508796237915497 0 0.81915205242281985 -0.57357642473473569 1.5 0 0 1 I I 0 1 1.5 forward I I I I #
face $-1 $93 $94 $32 $-1 $95 forward single #
loop $-1 $96 $97 $41 #
cone-surface $-1 -49.374173751823946 -39.121518165179921 11.508796237915497 0 0.81915205242281985 -0.57357642473473569 1.5 0 0 1 I I 0 1 1.5 forward I I I I #
face $-1 $98 $99 $33 $-1 $100 reversed single #
loop $-1 $-1 $101 $42 #
plane-surface $-1 -12.852921963334282 137.78372045561284 170.76954605080579 1 0 0 0 -0.87461971476443456 -0.48480960649040278 forward_v I I I I #
face $-1 $102 $103 $34 $-1 $104 forward single #
loop $-1 $105 $106 $43 #
cone-surface $-1 -8.7248401867155394 42.463953314875766 15.188423942747875 0 -0.87461971476443456 -0.48480960649040278 1.5 0 0 1 I I 0 1 1.5 forward I I I I #
face $-1 $107 $108 $35 $-1 $109 forward single #
loop $-1 $110 $111 $44 #
cone-surface $-1 -2.5327175217874185 42.463953314875766 15.188423942747875 0 -0.87461971476443456 -0.48480960649040278 1.5 0 0 1 I I 0 1 1.5 forward I I I I #
face $-1 $112 $113 $27 $-1 $114 reversed single #
loop $-1 $-1 $115 $45 #
plane-surface $-1 0 0 -24.543602943362487 0 0 1 1 0 0 forward_v I I I I #
coedge $-1 $116 $117 $118 $119 forward $46 $-1 #
face $-1 $120 $121 $28 $-1 $122 reversed single #
loop $-1 $-1 $123 $48 #
plane-surface $-1 0 0 -24.543602943362487 0 0 1 1 0 0 forward_v I I I I #
coedge $-1 $124 $125 $126 $127 forward $49 $-1 #
face $-1 $128 $129 $29 $-1 $130 reversed single #
loop $-1 $-1 $131 $51 #
plane-surface $-1 0 0 -24.543602943362487 0 0 1 1 0 0 forward_v I I I I #
coedge $-1 $132 $133 $134 $135 forward $52 $-1 #
face $-1 $136 $137 $30 $-1 $138 reversed single #
loop $-1 $-1 $139 $54 #
plane-surface $-1 -52.129610022450741 -49.453956318113342 1.7857120149593442 0 -0.81915205242281985 0.57357642473473569 1 0 0 forward_v I I I I #
coedge $-1 $140 $141 $142 $143 reversed $55 $-1 #
face $-1 $-1 $144 $31 $-1 $145 forward single #
loop $-1 $146 $147 $57 #
cone-surface $-1 -54.885046293077536 -36.142339123361822 9.4227526781190321 0 0.81915205242281985 -0.57357642473473569 0.75 0 0 1 I I -0.70710678118654757 0.70710678118654757 0.75 forward I I I I #
loop $-1 $-1 $148 $40 #
coedge $-1 $92 $92 $149 $150 reversed $58 $-1 #
face $-1 $-1 $151 $32 $-1 $152 forward single #
loop $-1 $153 $154 $60 #
cone-surface $-1 -49.374173751823946 -36.142339123361822 9.4227526781190321 0 0.81915205242281985 -0.57357642473473569 0.75 0 0 1 I I -0.70710678118654757 0.70710678118654757 0.75 forward I I I I #
loop $-1 $-1 $155 $41 #
coedge $-1 $97 $97 $156 $157 reversed $61 $-1 #
face $-1 $158 $159 $33 $-1 $160 reversed single #
loop $-1 $-1 $161 $63 #
plane-surface $-1 -5.6287788542514789 1.502450114157142 95.227607159057385 0 0.87461971476443456 0.48480960649040278 1 0 0 forward_v I I I I #
coedge $-1 $162 $163 $164 $165 reversed $64 $-1 #
face $-1 $-1 $166 $34 $-1 $167 forward single #
loop $-1 $168 $169 $66 #
cone-surface $-1 -8.7248401867155394 39.203347689347247 13.381040798339072 0 -0.87461971476443456 -0.48480960649040278 0.75 0 0 1 I I -0.70710678118654757 0.70710678118654757 0.75 forward I I I I #
loop $-1 $-1 $170 $43 #
coedge $-1 $106 $106 $171 $172 reversed $67 $-1 #
face $-1 $-1 $173 $35 $-1 $174 forward single #
loop $-1 $175 $176 $69 #
cone-surface $-1 -2.5327175217874185 39.203347689347247 13.381040798339072 0 -0.87461971476443456 -0.48480960649040278 0.75 0 0 1 I I -0.70710678118654757 0.70710678118654757 0.75 forward I I I I #
loop $-1 $-1 $177 $44 #
coedge $-1 $111 $111 $178 $179 reversed $70 $-1 #
face $-1 $180 $181 $27 $-1 $182 reversed single #
loop $-1 $-1 $183 $72 #
plane-surface $-1 0 -49.453956318113306 0 0 1 0 0 0 1 forward_v I I I I #
coedge $-1 $184 $185 $186 $187 forward $73 $-1 #
coedge $-1 $188 $75 $189 $190 forward $46 $-1 #
coedge $-1 $75 $188 $191 $192 forward $46 $-1 #
coedge $-1 $193 $194 $75 $119 reversed $195 $-1 #
edge $-1 $196 -49.453956318113306 $197 49.453956318113306 $118 $198 forward 7 unknown #
face $-1 $199 $200 $28 $-1 $201 reversed single #
loop $-1 $-1 $202 $76 #
plane-surface $-1 -86.325147101782932 -8.2776000095013238 0 0 1 0 0 0 1 forward_v I I I I #
coedge $-1 $203 $204 $125 $205 forward $77 $-1 #
coedge $-1 $206 $79 $207 $208 reversed $49 $-1 #
coedge $-1 $79 $206 $123 $205 reversed $49 $-1 #
coedge $-1 $209 $210 $79 $127 reversed $211 $-1 #
edge $-1 $212 -24.543602943362487 $213 24.543602943362487 $126 $214 forward 7 unknown #
face $-1 $215 $216 $29 $-1 $217 reversed single #
loop $-1 $-1 $134 $80 #
plane-surface $-1 86.325147101782932 -8.2776000095013238 0 0 1 0 0 0 1 forward_v I I I I #
coedge $-1 $218 $219 $133 $220 forward $81 $-1 #
coedge $-1 $221 $83 $222 $223 reversed $52 $-1 #
coedge $-1 $83 $221 $131 $220 reversed $52 $-1 #
coedge $-1 $224 $225 $83 $135 reversed $129 $-1 #
edge $-1 $226 -24.543602943362487 $227 24.543602943362487 $134 $228 forward 7 unknown #
face $-1 $229 $230 $30 $-1 $231 forward single #
loop $-1 $-1 $232 $84 #
plane-surface $-1 -58.558961320579932 -177.09238067841923 91.159096219788765 1 0 0 0 0.81915205242281985 -0.57357642473473569 forward_v I I I I #
coedge $-1 $233 $234 $235 $236 reversed $85 $-1 #
coedge $-1 $141 $87 $237 $238 reversed $55 $-1 #
coedge $-1 $87 $140 $233 $239 reversed $55 $-1 #
coedge $-1 $235 $240 $87 $143 forward $230 $-1 #
edge $-1 $241 39.09223402109631 $242 55.027480321961072 $142 $243 forward 7 unknown #
loop $-1 $-1 $149 $88 #
plane-surface $-1 -52.129610022450741 -49.453956318113342 1.7857120149593442 0 -0.81915205242281985 0.57357642473473569 1 0 0 forward_v I I I I #
loop $-1 $-1 $244 $57 #
coedge $-1 $147 $147 $148 $245 reversed $89 $-1 #
coedge $-1 $148 $148 $147 $245 forward $91 $-1 #
coedge $-1 $149 $149 $92 $150 forward $144 $-1 #
edge $-1 $246 2.13737688164693e-015 $246 6.2831853071796022 $149 $247 forward 7 unknown #
loop $-1 $-1 $156 $93 #
plane-surface $-1 -52.129610022450741 -49.453956318113342 1.7857120149593442 0 -0.81915205242281985 0.57357642473473569 1 0 0 forward_v I I I I #
loop $-1 $-1 $248 $60 #
coedge $-1 $154 $154 $155 $249 reversed $94 $-1 #
coedge $-1 $155 $155 $154 $249 forward $96 $-1 #
coedge $-1 $156 $156 $97 $157 forward $151 $-1 #
edge $-1 $250 2.13737688164693e-015 $250 6.2831853071796022 $156 $251 forward 7 unknown #
face $-1 $252 $253 $33 $-1 $254 reversed single #
loop $-1 $-1 $255 $98 #
plane-surface $-1 1.595364254831324 137.78372045561284 170.76954605080579 -1 0 0 0 0.87461971476443456 0.48480960649040278 forward_v I I I I #
coedge $-1 $256 $257 $258 $259 reversed $99 $-1 #
coedge $-1 $163 $101 $260 $261 reversed $64 $-1 #
coedge $-1 $101 $162 $256 $262 reversed $64 $-1 #
coedge $-1 $258 $263 $101 $165 forward $264 $-1 #
edge $-1 $265 19.437903909693112 $266 28.208628237257827 $164 $267 forward 7 unknown #
loop $-1 $-1 $171 $102 #
plane-surface $-1 -5.6287788542514789 1.502450114157142 95.227607159057385 0 0.87461971476443456 0.48480960649040278 1 0 0 forward_v I I I I #
loop $-1 $-1 $268 $66 #
coedge $-1 $169 $169 $170 $269 reversed $103 $-1 #
coedge $-1 $170 $170 $169 $269 forward $105 $-1 #
coedge $-1 $171 $171 $106 $172 forward $166 $-1 #
edge $-1 $270 4.5000802238998038e-016 $270 6.2831853071796013 $171 $271 forward 7 unknown #
loop $-1 $-1 $178 $107 #
plane-surface $-1 -5.6287788542514789 1.502450114157142 95.227607159057385 0 0.87461971476443456 0.48480960649040278 1 0 0 forward_v I I I I #
loop $-1 $-1 $272 $69 #
coedge $-1 $176 $176 $177 $273 reversed $108 $-1 #
coedge $-1 $177 $177 $176 $273 forward $110 $-1 #
coedge $-1 $178 $178 $111 $179 forward $173 $-1 #
edge $-1 $274 4.5000802238998038e-016 $274 6.2831853071796013 $178 $275 forward 7 unknown #
face $-1 $276 $277 $27 $-1 $278 reversed single #
loop $-1 $-1 $279 $112 #
plane-surface $-1 -77.908871730704675 0 0 1 0 0 0 0 -1 forward_v I I I I #
coedge $-1 $280 $191 $281 $282 forward $113 $-1 #
coedge $-1 $283 $115 $280 $284 forward $73 $-1 #
coedge $-1 $115 $283 $285 $286 forward $73 $-1 #
coedge $-1 $194 $193 $115 $187 reversed $195 $-1 #
edge $-1 $287 -49.453956318113306 $288 49.453956318113306 $186 $289 forward 7 unknown #
coedge $-1 $117 $116 $290 $291 forward $46 $-1 #
coedge $-1 $292 $293 $116 $190 reversed $277 $-1 #
edge $-1 $197 -77.908871730704675 $294 77.908871730704675 $189 $295 forward 7 unknown #
coedge $-1 $183 $296 $117 $192 reversed $113 $-1 #
edge $-1 $297 -77.908871730704675 $196 77.908871730704675 $191 $298 forward 7 unknown #
coedge $-1 $186 $118 $296 $299 forward $195 $-1 #
coedge $-1 $118 $186 $292 $300 reversed $195 $-1 #
loop $-1 $-1 $193 $276 #
vertex $-1 $119 $301 #
vertex $-1 $119 $302 #
straight-curve $-1 77.908871730704675 0 24.543602943362487 0 1 0 I I #
face $-1 $303 $211 $28 $-1 $304 reversed single #
loop $-1 $-1 $305 $120 #
plane-surface $-1 -94.741422472861188 -4.3221752204448265 0 1 0 0 0 0 -1 forward_v I I I I #
coedge $-1 $306 $307 $308 $309 forward $121 $-1 #
coedge $-1 $310 $123 $306 $311 forward $77 $-1 #
coedge $-1 $123 $310 $209 $312 forward $77 $-1 #
edge $-1 $212 0.36675043138832919 $313 8.2776000095013238 $123 $314 forward 7 unknown #
coedge $-1 $125 $124 $315 $316 forward $49 $-1 #
coedge $-1 $317 $318 $124 $208 forward $319 $-1 #
edge $-1 $320 -8.2776000095013238 $213 -0.36675043138832919 $207 $321 forward 7 unknown #
coedge $-1 $322 $126 $204 $312 reversed $211 $-1 #
coedge $-1 $126 $322 $317 $323 reversed $211 $-1 #
loop $-1 $-1 $126 $199 #
vertex $-1 $205 $324 #
vertex $-1 $323 $325 #
straight-curve $-1 -77.908871730704675 -0.36675043138832919 0 0 0 1 I I #
face $-1 $326 $327 $29 $-1 $328 reversed single #
loop $-1 $-1 $329 $128 #
plane-surface $-1 86.325147101782932 -0.36675043138832919 0 0 -1 0 0 0 -1 forward_v I I I I #
coedge $-1 $330 $131 $331 $332 forward $81 $-1 #
coedge $-1 $131 $330 $224 $333 forward $81 $-1 #
edge $-1 $226 -8.2776000095013238 $334 -0.36675043138832919 $131 $335 forward 7 unknown #
coedge $-1 $133 $132 $336 $337 forward $52 $-1 #
coedge $-1 $338 $339 $132 $223 forward $340 $-1 #
edge $-1 $341 0.36675043138832919 $227 8.2776000095013238 $222 $342 forward 7 unknown #
coedge $-1 $343 $134 $219 $333 reversed $129 $-1 #
coedge $-1 $134 $343 $338 $344 reversed $129 $-1 #
vertex $-1 $220 $345 #
vertex $-1 $344 $346 #
straight-curve $-1 77.908871730704675 -8.2776000095013238 0 0 0 1 I I #
face $-1 $-1 $347 $30 $-1 $348 reversed single #
loop $-1 $-1 $142 $136 #
plane-surface $-1 0 0 24.543602943362487 0 0 1 1 0 0 forward_v I I I I #
coedge $-1 $349 $350 $351 $352 reversed $137 $-1 #
coedge $-1 $353 $139 $141 $239 forward $85 $-1 #
coedge $-1 $139 $353 $349 $354 forward $85 $-1 #
coedge $-1 $351 $142 $139 $236 forward $230 $-1 #
edge $-1 $242 19.635453713096179 $355 32.494156309354565 $235 $356 forward 7 unknown #
coedge $-1 $357 $358 $140 $238 forward $347 $-1 #
edge $-1 $359 -43.793836094934989 $241 -21.035945166531896 $237 $360 forward 7 unknown #
edge $-1 $242 -27.782254663333561 $359 -6.2029947392435384e-014 $141 $361 forward 7 unknown #
coedge $-1 $142 $351 $357 $362 forward $230 $-1 #
vertex $-1 $143 $363 #
vertex $-1 $143 $364 #
straight-curve $-1 -45.70025872432155 -88.546190339209616 24.543602943362487 0 1 0 I I #
coedge $-1 $244 $244 $-1 $365 reversed $146 $-1 #
edge $-1 $366 0 $366 6.2831853071796004 $147 $367 forward 7 unknown #
vertex $-1 $150 $368 #
ellipse-curve $-1 -54.885046293077536 -41.486333167680932 13.16465747916093 0 -0.81915205242281985 0.57357642473473569 1.5 0 0 1 I I #
coedge $-1 $248 $248 $-1 $369 reversed $153 $-1 #
edge $-1 $370 0 $370 6.2831853071796004 $154 $371 forward 7 unknown #
vertex $-1 $157 $372 #
ellipse-curve $-1 -49.374173751823946 -41.486333167680932 13.16465747916093 0 -0.81915205242281985 0.57357642473473569 1.5 0 0 1 I I #
face $-1 $-1 $264 $33 $-1 $373 forward single #
loop $-1 $-1 $374 $158 #
plane-surface $-1 0 49.453956318113306 0 0 -1 0 0 0 -1 forward_v I I I I #
coedge $-1 $375 $376 $377 $378 reversed $159 $-1 #
coedge $-1 $379 $161 $163 $262 forward $99 $-1 #
coedge $-1 $161 $379 $375 $380 forward $99 $-1 #
coedge $-1 $377 $164 $161 $259 forward $264 $-1 #
edge $-1 $266 -10.038532536208542 $381 4.4097536819570635 $258 $382 forward 7 unknown #
coedge $-1 $383 $384 $162 $261 forward $253 $-1 #
edge $-1 $385 -76.663976204187648 $265 -60.841170082040406 $260 $386 forward 7 unknown #
edge $-1 $266 80.8168430490188 $385 98.907912636226627 $163 $387 forward 7 unknown #
coedge $-1 $164 $377 $383 $388 forward $264 $-1 #
loop $-1 $-1 $377 $252 #
vertex $-1 $261 $389 #
vertex $-1 $165 $390 #
straight-curve $-1 -12.852921963334282 68.891860227806418 24.543602943362487 0 -1 0 I I #
coedge $-1 $268 $268 $-1 $391 reversed $168 $-1 #
edge $-1 $392 0 $392 6.2831853071796004 $169 $393 forward 7 unknown #
vertex $-1 $172 $394 #
ellipse-curve $-1 -8.7248401867155394 45.068594154330945 16.632199882288869 0 0.87461971476443456 0.48480960649040278 1.5 0 0 1 I I #
coedge $-1 $272 $272 $-1 $395 reversed $175 $-1 #
edge $-1 $396 0 $396 6.2831853071796004 $176 $397 forward 7 unknown #
vertex $-1 $179 $398 #
ellipse-curve $-1 -2.5327175217874185 45.068594154330945 16.632199882288869 0 0.87461971476443456 0.48480960649040278 1.5 0 0 1 I I #
face $-1 $-1 $195 $27 $-1 $399 reversed single #
loop $-1 $-1 $292 $180 #
plane-surface $-1 0 49.453956318113306 0 0 -1 0 0 0 -1 forward_v I I I I #
coedge $-1 $400 $290 $293 $401 forward $181 $-1 #
coedge $-1 $296 $183 $184 $284 reversed $113 $-1 #
coedge $-1 $290 $400 $183 $282 reversed $181 $-1 #
edge $-1 $297 -24.543602943362487 $402 24.543602943362487 $281 $403 forward 7 unknown #
coedge $-1 $185 $184 $400 $404 forward $73 $-1 #
edge $-1 $288 -77.908871730704675 $402 77.908871730704675 $280 $405 forward 7 unknown #
coedge $-1 $293 $292 $185 $286 reversed $277 $-1 #
edge $-1 $406 -77.908871730704675 $287 77.908871730704675 $285 $407 forward 7 unknown #
vertex $-1 $187 $408 #
vertex $-1 $299 $409 #
straight-curve $-1 77.908871730704675 0 -24.543602943362487 0 -1 0 I I #
coedge $-1 $279 $281 $188 $291 reversed $181 $-1 #
edge $-1 $294 -49.453956318113306 $297 49.453956318113306 $290 $410 forward 7 unknown #
coedge $-1 $285 $189 $194 $300 forward $277 $-1 #
coedge $-1 $189 $285 $279 $401 reversed $277 $-1 #
vertex $-1 $190 $411 #
straight-curve $-1 0 49.453956318113306 24.543602943362487 -1 0 0 I I #
coedge $-1 $191 $280 $193 $299 reversed $113 $-1 #
vertex $-1 $291 $412 #
straight-curve $-1 0 -49.453956318113306 24.543602943362487 1 0 0 I I #
edge $-1 $196 -24.543602943362487 $288 24.543602943362487 $193 $413 forward 7 unknown #
edge $-1 $197 -24.543602943362487 $287 24.543602943362487 $194 $414 forward 7 unknown #
point $-1 77.908871730704675 -49.453956318113306 24.543602943362487 #
point $-1 77.908871730704675 49.453956318113306 24.543602943362487 #
face $-1 $-1 $319 $28 $-1 $415 forward single #
plane-surface $-1 -86.325147101782932 -0.36675043138832919 0 0 -1 0 0 0 -1 forward_v I I I I #
coedge $-1 $416 $417 $322 $418 forward $200 $-1 #
coedge $-1 $315 $202 $203 $311 reversed $121 $-1 #
coedge $-1 $202 $315 $318 $419 reversed $121 $-1 #
coedge $-1 $417 $416 $202 $309 reversed $200 $-1 #
edge $-1 $420 -24.543602943362487 $421 24.543602943362487 $308 $422 forward 7 unknown #
coedge $-1 $204 $203 $416 $423 forward $77 $-1 #
edge $-1 $313 -8.4162753710782567 $421 8.4162753710782567 $306 $424 forward 7 unknown #
edge $-1 $425 -8.4162753710782567 $212 8.4162753710782567 $209 $426 forward 7 unknown #
vertex $-1 $311 $427 #
straight-curve $-1 -77.908871730704675 0 -24.543602943362487 0 -1 0 I I #
coedge $-1 $307 $306 $206 $316 reversed $121 $-1 #
edge $-1 $320 -24.543602943362487 $313 24.543602943362487 $315 $428 forward 7 unknown #
coedge $-1 $429 $207 $210 $323 forward $319 $-1 #
coedge $-1 $207 $429 $307 $419 forward $319 $-1 #
loop $-1 $-1 $207 $303 #
vertex $-1 $208 $430 #
straight-curve $-1 -77.908871730704675 0 24.543602943362487 0 1 0 I I #
coedge $-1 $210 $209 $305 $418 reversed $211 $-1 #
edge $-1 $213 -8.4162753710782567 $431 8.4162753710782567 $210 $432 forward 7 unknown #
point $-1 -77.908871730704675 -0.36675043138832919 -24.543602943362487 #
point $-1 -77.908871730704675 -0.36675043138832919 24.543602943362487 #
face $-1 $-1 $340 $29 $-1 $433 forward single #
loop $-1 $-1 $434 $215 #
plane-surface $-1 94.741422472861188 -4.3221752204448265 0 -1 0 0 0 0 1 forward_v I I I I #
coedge $-1 $331 $435 $436 $437 forward $216 $-1 #
coedge $-1 $219 $218 $438 $439 forward $81 $-1 #
coedge $-1 $336 $329 $218 $332 reversed $216 $-1 #
edge $-1 $334 -8.4162753710782567 $440 8.4162753710782567 $331 $441 forward 7 unknown #
edge $-1 $442 -8.4162753710782567 $226 8.4162753710782567 $224 $443 forward 7 unknown #
vertex $-1 $332 $444 #
straight-curve $-1 77.908871730704675 0 -24.543602943362487 0 1 0 I I #
coedge $-1 $435 $331 $221 $337 reversed $216 $-1 #
edge $-1 $341 -24.543602943362487 $334 24.543602943362487 $336 $445 forward 7 unknown #
coedge $-1 $446 $222 $225 $344 forward $340 $-1 #
coedge $-1 $222 $446 $435 $447 forward $340 $-1 #
loop $-1 $-1 $222 $326 #
vertex $-1 $223 $448 #
straight-curve $-1 77.908871730704675 0 24.543602943362487 0 -1 0 I I #
coedge $-1 $225 $224 $434 $449 reversed $129 $-1 #
edge $-1 $227 -8.4162753710782567 $450 8.4162753710782567 $225 $451 forward 7 unknown #
point $-1 77.908871730704675 -8.2776000095013238 -24.543602943362487 #
point $-1 77.908871730704675 -8.2776000095013238 24.543602943362487 #
loop $-1 $-1 $237 $229 #
plane-surface $-1 0 -49.453956318113306 0 0 1 0 0 0 1 forward_v I I I I #
coedge $-1 $350 $232 $234 $354 reversed $137 $-1 #
coedge $-1 $232 $349 $452 $453 reversed $137 $-1 #
coedge $-1 $240 $235 $232 $352 forward $230 $-1 #
edge $-1 $355 -55.027480321961072 $454 -39.09223402109631 $351 $455 forward 7 unknown #
coedge $-1 $234 $233 $358 $456 reversed $85 $-1 #
edge $-1 $457 6.2029947392435384e-014 $355 27.782254663333561 $349 $458 forward 7 unknown #
vertex $-1 $236 $459 #
straight-curve $-1 -26.064805011225371 -33.518710017248544 24.543602943362487 -1 0 0 I I #
coedge $-1 $452 $237 $240 $362 reversed $347 $-1 #
coedge $-1 $237 $452 $353 $456 forward $347 $-1 #
vertex $-1 $238 $460 #
straight-curve $-1 -45.70025872432155 -49.453956318113306 45.579548109894382 0 0 1 I I #
straight-curve $-1 -45.70025872432155 -49.453956318113342 1.7857120149593442 0 -0.57357642473473569 -0.81915205242281985 I I #
edge $-1 $454 -58.558961320579932 $241 -45.70025872432155 $357 $461 forward 7 unknown #
point $-1 -45.70025872432155 -49.453956318113306 24.543602943362487 #
point $-1 -45.70025872432155 -33.518710017248544 24.543602943362487 #
edge $-1 $462 1 $462 0 $244 $-1 forward 7 unknown #
vertex $-1 $245 $463 #
ellipse-curve $-1 -54.885046293077536 -36.756703162678939 9.8529349966700845 0 -0.81915205242281985 0.57357642473473569 1.5 0 0 1 I I #
point $-1 -53.385046293077536 -41.486333167680904 13.164657479160914 #
edge $-1 $464 1 $464 0 $248 $-1 forward 7 unknown #
vertex $-1 $249 $465 #
ellipse-curve $-1 -49.374173751823946 -36.756703162678939 9.8529349966700845 0 -0.81915205242281985 0.57357642473473569 1.5 0 0 1 I I #
point $-1 -47.874173751823946 -41.486333167680904 13.164657479160914 #
plane-surface $-1 0 0 24.543602943362487 0 0 1 1 0 0 forward_v I I I I #
coedge $-1 $384 $383 $376 $466 forward $253 $-1 #
coedge $-1 $376 $255 $257 $380 reversed $159 $-1 #
coedge $-1 $255 $375 $374 $466 reversed $159 $-1 #
coedge $-1 $263 $258 $255 $378 forward $264 $-1 #
edge $-1 $381 -28.208628237257827 $467 -19.437903909693112 $377 $468 forward 7 unknown #
coedge $-1 $257 $256 $384 $469 reversed $99 $-1 #
edge $-1 $470 -98.907912636226627 $381 -80.8168430490188 $375 $471 forward 7 unknown #
vertex $-1 $259 $472 #
straight-curve $-1 -2.8143894271257395 40.683231990548585 24.543602943362487 1 0 0 I I #
coedge $-1 $374 $260 $263 $388 reversed $253 $-1 #
coedge $-1 $260 $374 $379 $469 forward $253 $-1 #
vertex $-1 $261 $473 #
straight-curve $-1 -12.852921963334282 49.453956318113306 85.384773025402893 0 0 1 I I #
straight-curve $-1 -12.852921963334282 1.502450114157142 95.227607159057385 0 0.48480960649040278 -0.87461971476443456 I I #
edge $-1 $467 -1.595364254831324 $265 12.852921963334282 $383 $474 forward 7 unknown #
point $-1 -12.852921963334282 49.453956318113306 24.543602943362487 #
point $-1 -12.852921963334282 40.683231990548592 24.543602943362487 #
edge $-1 $475 1 $475 0 $268 $-1 forward 7 unknown #
vertex $-1 $269 $476 #
ellipse-curve $-1 -8.7248401867155394 39.859312475420573 13.744648003206875 0 0.87461971476443456 0.48480960649040278 1.5 0 0 1 I I #
point $-1 -7.2248401867155394 45.06859415433096 16.632199882288877 #
edge $-1 $477 1 $477 0 $272 $-1 forward 7 unknown #
vertex $-1 $273 $478 #
ellipse-curve $-1 -2.5327175217874185 39.859312475420573 13.744648003206875 0 0.87461971476443456 0.48480960649040278 1.5 0 0 1 I I #
point $-1 -1.0327175217874185 45.06859415433096 16.632199882288877 #
plane-surface $-1 77.908871730704675 0 0 -1 0 0 0 0 1 forward_v I I I I #
coedge $-1 $281 $279 $283 $404 reversed $181 $-1 #
edge $-1 $294 -24.543602943362487 $406 24.543602943362487 $293 $479 forward 7 unknown #
vertex $-1 $404 $480 #
straight-curve $-1 -77.908871730704675 -49.453956318113306 0 0 0 -1 I I #
edge $-1 $402 -49.453956318113306 $406 49.453956318113306 $400 $481 forward 7 unknown #
straight-curve $-1 0 -49.453956318113306 -24.543602943362487 -1 0 0 I I #
vertex $-1 $286 $482 #
straight-curve $-1 0 49.453956318113306 -24.543602943362487 1 0 0 I I #
point $-1 77.908871730704675 49.453956318113306 -24.543602943362487 #
point $-1 77.908871730704675 -49.453956318113306 -24.543602943362487 #
straight-curve $-1 -77.908871730704675 0 24.543602943362487 0 -1 0 I I #
point $-1 -77.908871730704675 49.453956318113306 24.543602943362487 #
point $-1 -77.908871730704675 -49.453956318113306 24.543602943362487 #
straight-curve $-1 77.908871730704675 -49.453956318113306 0 0 0 -1 I I #
straight-curve $-1 77.908871730704675 49.453956318113306 0 0 0 -1 I I #
plane-surface $-1 0 0 24.543602943362487 0 0 1 1 0 0 forward_v I I I I #
coedge $-1 $308 $305 $310 $423 reversed $200 $-1 #
coedge $-1 $305 $308 $429 $483 reversed $200 $-1 #
edge $-1 $431 -24.543602943362487 $425 24.543602943362487 $322 $484 forward 7 unknown #
edge $-1 $420 -8.4162753710782567 $320 8.4162753710782567 $307 $485 forward 7 unknown #
vertex $-1 $483 $486 #
vertex $-1 $423 $487 #
straight-curve $-1 -94.741422472861188 -8.2776000095013238 0 0 0 -1 I I #
edge $-1 $421 -3.9554247890564973 $425 3.9554247890564973 $416 $488 forward 7 unknown #
straight-curve $-1 -86.325147101782932 -8.2776000095013238 -24.543602943362487 -1 0 0 I I #
vertex $-1 $312 $489 #
straight-curve $-1 -86.325147101782932 -0.36675043138832919 -24.543602943362487 1 0 0 I I #
point $-1 -77.908871730704675 -8.2776000095013238 -24.543602943362487 #
straight-curve $-1 -77.908871730704675 -8.2776000095013238 0 0 0 -1 I I #
coedge $-1 $318 $317 $417 $483 forward $319 $-1 #
point $-1 -77.908871730704675 -8.2776000095013238 24.543602943362487 #
vertex $-1 $323 $490 #
straight-curve $-1 -86.325147101782932 -0.36675043138832919 24.543602943362487 -1 0 0 I I #
plane-surface $-1 0 0 24.543602943362487 0 0 1 1 0 0 forward_v I I I I #
coedge $-1 $438 $491 $343 $449 forward $327 $-1 #
coedge $-1 $329 $336 $339 $447 reversed $216 $-1 #
coedge $-1 $491 $438 $329 $437 reversed $327 $-1 #
edge $-1 $492 -24.543602943362487 $440 24.543602943362487 $436 $493 forward 7 unknown #
coedge $-1 $436 $434 $330 $439 reversed $327 $-1 #
edge $-1 $440 -3.9554247890564973 $442 3.9554247890564973 $438 $494 forward 7 unknown #
vertex $-1 $439 $495 #
straight-curve $-1 86.325147101782932 -0.36675043138832919 -24.543602943362487 1 0 0 I I #
vertex $-1 $449 $496 #
straight-curve $-1 86.325147101782932 -8.2776000095013238 -24.543602943362487 -1 0 0 I I #
point $-1 77.908871730704675 -0.36675043138832919 -24.543602943362487 #
straight-curve $-1 77.908871730704675 -0.36675043138832919 0 0 0 -1 I I #
coedge $-1 $339 $338 $491 $497 forward $340 $-1 #
edge $-1 $492 -8.4162753710782567 $341 8.4162753710782567 $435 $498 forward 7 unknown #
point $-1 77.908871730704675 -0.36675043138832919 24.543602943362487 #
edge $-1 $450 -24.543602943362487 $442 24.543602943362487 $434 $499 forward 7 unknown #
vertex $-1 $497 $500 #
straight-curve $-1 86.325147101782932 -8.2776000095013238 24.543602943362487 1 0 0 I I #
coedge $-1 $358 $357 $350 $453 forward $347 $-1 #
edge $-1 $454 21.035945166531896 $457 43.793836094934989 $452 $501 forward 7 unknown #
vertex $-1 $362 $502 #
straight-curve $-1 -58.558961320579932 -88.546190339209616 24.543602943362487 0 -1 0 I I #
edge $-1 $457 -32.494156309354565 $359 -19.635453713096179 $358 $503 forward 7 unknown #
vertex $-1 $456 $504 #
straight-curve $-1 -58.558961320579932 -49.453956318113342 1.7857120149593442 0 0.57357642473473569 0.81915205242281985 I I #
point $-1 -58.558961320579932 -33.518710017248544 24.543602943362487 #
point $-1 -45.70025872432155 -49.453956318113306 1.785712014959395 #
straight-curve $-1 0 -49.453956318113306 24.543602943362487 1 0 0 I I #
vertex $-1 $365 $505 #
point $-1 -53.385046293077536 -36.756703162678939 9.8529349966700845 #
vertex $-1 $369 $506 #
point $-1 -47.874173751823946 -36.756703162678939 9.8529349966700845 #
edge $-1 $467 60.841170082040406 $470 76.663976204187648 $374 $507 forward 7 unknown #
vertex $-1 $388 $508 #
straight-curve $-1 1.595364254831324 68.891860227806418 24.543602943362487 0 1 0 I I #
edge $-1 $470 -4.4097536819570635 $385 10.038532536208542 $384 $509 forward 7 unknown #
vertex $-1 $469 $510 #
straight-curve $-1 1.595364254831324 1.502450114157142 95.227607159057385 0 -0.48480960649040278 0.87461971476443456 I I #
point $-1 1.595364254831324 40.683231990548592 24.543602943362487 #
point $-1 -12.852921963334282 49.453956318113306 8.7207968212152451 #
straight-curve $-1 0 49.453956318113306 24.543602943362487 -1 0 0 I I #
vertex $-1 $391 $511 #
point $-1 -7.2248401867155394 39.859312475420573 13.744648003206875 #
vertex $-1 $395 $512 #
point $-1 -1.0327175217874185 39.859312475420573 13.744648003206875 #
straight-curve $-1 -77.908871730704675 49.453956318113306 0 0 0 -1 I I #
point $-1 -77.908871730704675 -49.453956318113306 -24.543602943362487 #
straight-curve $-1 -77.908871730704675 0 -24.543602943362487 0 1 0 I I #
point $-1 -77.908871730704675 49.453956318113306 -24.543602943362487 #
edge $-1 $431 -3.9554247890564973 $420 3.9554247890564973 $417 $513 forward 7 unknown #
straight-curve $-1 -94.741422472861188 -0.36675043138832919 0 0 0 -1 I I #
straight-curve $-1 -86.325147101782932 -8.2776000095013238 24.543602943362487 1 0 0 I I #
point $-1 -94.741422472861188 -8.2776000095013238 24.543602943362487 #
point $-1 -94.741422472861188 -8.2776000095013238 -24.543602943362487 #
straight-curve $-1 -94.741422472861188 -4.3221752204448265 -24.543602943362487 0 1 0 I I #
point $-1 -94.741422472861188 -0.36675043138832919 -24.543602943362487 #
point $-1 -94.741422472861188 -0.36675043138832919 24.543602943362487 #
coedge $-1 $434 $436 $446 $497 reversed $327 $-1 #
vertex $-1 $497 $514 #
straight-curve $-1 94.741422472861188 -0.36675043138832919 0 0 0 -1 I I #
straight-curve $-1 94.741422472861188 -4.3221752204448265 -24.543602943362487 0 -1 0 I I #
point $-1 94.741422472861188 -0.36675043138832919 -24.543602943362487 #
point $-1 94.741422472861188 -8.2776000095013238 -24.543602943362487 #
edge $-1 $450 -3.9554247890564973 $492 3.9554247890564973 $491 $515 forward 7 unknown #
straight-curve $-1 86.325147101782932 -0.36675043138832919 24.543602943362487 -1 0 0 I I #
straight-curve $-1 94.741422472861188 -8.2776000095013238 0 0 0 -1 I I #
point $-1 94.741422472861188 -8.2776000095013238 24.543602943362487 #
straight-curve $-1 -58.558961320579932 -49.453956318113306 45.579548109894382 0 0 -1 I I #
point $-1 -58.558961320579932 -49.453956318113306 24.543602943362487 #
straight-curve $-1 -26.064805011225371 -49.453956318113306 1.7857120149593995 1 0 0 I I #
point $-1 -58.558961320579932 -49.453956318113306 1.785712014959395 #
point $-1 -54.885046293077536 -35.527975084044705 8.9925703595679796 #
point $-1 -49.374173751823946 -35.527975084044705 8.9925703595679796 #
straight-curve $-1 1.595364254831324 49.453956318113306 85.384773025402893 0 0 -1 I I #
point $-1 1.595364254831324 49.453956318113306 24.543602943362487 #
straight-curve $-1 -2.8143894271257395 49.453956318113306 8.7207968212152451 -1 0 0 I I #
point $-1 1.595364254831324 49.453956318113306 8.7207968212152451 #
point $-1 -8.7248401867155394 38.54738290327392 13.017433593471269 #
point $-1 -2.5327175217874185 38.54738290327392 13.017433593471269 #
straight-curve $-1 -94.741422472861188 -4.3221752204448265 24.543602943362487 0 -1 0 I I #
point $-1 94.741422472861188 -0.36675043138832919 24.543602943362487 #
straight-curve $-1 94.741422472861188 -4.3221752204448265 24.543602943362487 0 1 0 I I #
End-of-ACIS-data 