500 0 18 0           
7 Unknown 11 ACIS 5.0 NT 24 Thu Mar 25 18:20:46 1999 
-1 9.9999999999999995e-007 1e-010 
body $-1 $18 $-1 $19 #
body $-1 $20 $-1 $21 #
body $-1 $22 $-1 $23 #
body $-1 $24 $-1 $25 #
body $-1 $26 $-1 $27 #
body $-1 $28 $-1 $29 #
body $-1 $30 $-1 $31 #
body $-1 $32 $-1 $33 #
body $-1 $34 $-1 $35 #
body $-1 $36 $-1 $37 #
body $-1 $38 $-1 $39 #
body $-1 $40 $-1 $41 #
body $-1 $42 $-1 $43 #
body $-1 $44 $-1 $45 #
body $-1 $46 $-1 $47 #
body $-1 $48 $-1 $49 #
body $-1 $50 $-1 $51 #
body $-1 $52 $-1 $53 #
lump $-1 $-1 $54 $0 #
transform $-1 1 0 0 0 1 0 0 0 1 62.105166783654283 42.861795469900699 21.07261514029091 1 rotate no_reflect no_shear #
lump $-1 $-1 $55 $1 #
transform $-1 1 0 0 0 1 0 0 0 1 62.105166783654283 42.861795469900699 21.07261514029091 1 rotate no_reflect no_shear #
lump $-1 $-1 $56 $2 #
transform $-1 1 0 0 0 1 0 0 0 1 62.105166783654283 42.861795469900699 21.07261514029091 1 rotate no_reflect no_shear #
lump $-1 $-1 $57 $3 #
transform $-1 1 0 0 0 1 0 0 0 1 62.105166783654283 42.861795469900699 21.07261514029091 1 rotate no_reflect no_shear #
lump $-1 $-1 $58 $4 #
transform $-1 1 0 0 0 1 0 0 0 1 62.105166783654283 42.861795469900699 21.07261514029091 1 rotate no_reflect no_shear #
lump $-1 $-1 $59 $5 #
transform $-1 1 0 0 0 1 0 0 0 1 62.105166783654283 42.861795469900699 21.07261514029091 1 rotate no_reflect no_shear #
lump $-1 $-1 $60 $6 #
transform $-1 1 0 0 0 1 0 0 0 1 62.105166783654283 42.861795469900699 21.07261514029091 1 rotate no_reflect no_shear #
lump $-1 $-1 $61 $7 #
transform $-1 1 0 0 0 1 0 0 0 1 62.105166783654283 42.861795469900699 21.07261514029091 1 rotate no_reflect no_shear #
lump $-1 $-1 $62 $8 #
transform $-1 1 0 0 0 1 0 0 0 1 62.105166783654283 42.861795469900699 21.07261514029091 1 rotate no_reflect no_shear #
lump $-1 $-1 $63 $9 #
transform $-1 1 0 0 0 1 0 0 0 1 62.105166783654283 42.861795469900699 21.07261514029091 1 rotate no_reflect no_shear #
lump $-1 $-1 $64 $10 #
transform $-1 1 0 0 0 1 0 0 0 1 62.105166783654283 42.861795469900699 21.07261514029091 1 rotate no_reflect no_shear #
lump $-1 $-1 $65 $11 #
transform $-1 1 0 0 0 1 0 0 0 1 62.105166783654283 42.861795469900699 21.07261514029091 1 rotate no_reflect no_shear #
lump $-1 $-1 $66 $12 #
transform $-1 1 0 0 0 1 0 0 0 1 62.105166783654283 42.861795469900699 21.07261514029091 1 rotate no_reflect no_shear #
lump $-1 $-1 $67 $13 #
transform $-1 1 0 0 0 1 0 0 0 1 62.105166783654283 42.861795469900699 21.07261514029091 1 rotate no_reflect no_shear #
lump $-1 $-1 $68 $14 #
transform $-1 1 0 0 0 1 0 0 0 1 62.105166783654283 42.861795469900699 21.07261514029091 1 rotate no_reflect no_shear #
lump $-1 $-1 $69 $15 #
transform $-1 1 0 0 0 1 0 0 0 1 62.105166783654283 42.861795469900699 21.07261514029091 1 rotate no_reflect no_shear #
lump $-1 $-1 $70 $16 #
transform $-1 1 0 0 0 1 0 0 0 1 62.105166783654283 42.861795469900699 21.07261514029091 1 rotate no_reflect no_shear #
lump $-1 $-1 $71 $17 #
transform $-1 1 0 0 0 1 0 0 0 1 62.105166783654283 42.861795469900699 21.07261514029091 1 rotate no_reflect no_shear #
shell $-1 $-1 $-1 $72 $-1 $18 #
shell $-1 $-1 $-1 $73 $-1 $20 #
shell $-1 $-1 $-1 $74 $-1 $22 #
shell $-1 $-1 $-1 $75 $-1 $24 #
shell $-1 $-1 $-1 $76 $-1 $26 #
shell $-1 $-1 $-1 $77 $-1 $28 #
shell $-1 $-1 $-1 $78 $-1 $30 #
shell $-1 $-1 $-1 $79 $-1 $32 #
shell $-1 $-1 $-1 $80 $-1 $34 #
shell $-1 $-1 $-1 $81 $-1 $36 #
shell $-1 $-1 $-1 $82 $-1 $38 #
shell $-1 $-1 $-1 $83 $-1 $40 #
shell $-1 $-1 $-1 $84 $-1 $42 #
shell $-1 $-1 $-1 $85 $-1 $44 #
shell $-1 $-1 $-1 $86 $-1 $46 #
shell $-1 $-1 $-1 $87 $-1 $48 #
shell $-1 $-1 $-1 $88 $-1 $50 #
shell $-1 $-1 $-1 $89 $-1 $52 #
face $-1 $90 $91 $54 $-1 $92 forward single #
face $-1 $93 $94 $55 $-1 $95 forward single #
face $-1 $96 $97 $56 $-1 $98 reversed single #
face $-1 $99 $100 $57 $-1 $101 forward single #
face $-1 $102 $103 $58 $-1 $104 forward single #
face $-1 $105 $106 $59 $-1 $107 forward single #
face $-1 $108 $109 $60 $-1 $110 reversed single #
face $-1 $111 $112 $61 $-1 $113 forward single #
face $-1 $114 $115 $62 $-1 $116 forward single #
face $-1 $117 $118 $63 $-1 $119 forward single #
face $-1 $120 $121 $64 $-1 $122 reversed single #
face $-1 $123 $124 $65 $-1 $125 forward single #
face $-1 $126 $127 $66 $-1 $128 forward single #
face $-1 $129 $130 $67 $-1 $131 forward single #
face $-1 $132 $133 $68 $-1 $134 reversed single #
face $-1 $135 $136 $69 $-1 $137 forward single #
face $-1 $138 $139 $70 $-1 $140 forward single #
face $-1 $141 $142 $71 $-1 $143 forward single #
face $-1 $144 $145 $54 $-1 $146 reversed single #
loop $-1 $-1 $147 $72 #
plane-surface $-1 0 0 21.07261514029091 0 0 1 1 0 0 forward_v I I I I #
face $-1 $148 $149 $55 $-1 $150 reversed single #
loop $-1 $-1 $151 $73 #
plane-surface $-1 -62.105166783654283 0 0 1 0 0 0 0 -1 forward_v I I I I #
face $-1 $152 $153 $56 $-1 $154 reversed single #
loop $-1 $-1 $155 $74 #
plane-surface $-1 71.298499800089246 -25.514958999895683 191.25087279373517 0 -1 0 -0.74314483375859142 0 -0.66913059716165679 forward_v I I I I #
face $-1 $156 $157 $57 $-1 $158 forward single #
loop $-1 $159 $160 $75 #
cone-surface $-1 58.964957884590639 -37.427887974274775 17.749174809037079 -0.74314483375859142 0 -0.66913059716165679 0.66913059716165679 0 -0.74314483375859142 1 I I 0 1 1 forward I I I I #
face $-1 $161 $162 $58 $-1 $163 forward single #
loop $-1 $164 $165 $76 #
cone-surface $-1 58.964957884590639 -32.960539608882613 17.749174809037079 -0.74314483375859142 0 -0.66913059716165679 0.66913059716165679 0 -0.74314483375859142 1 I I 0 1 1 forward I I I I #
face $-1 $166 $167 $59 $-1 $168 forward single #
loop $-1 $169 $170 $77 #
cone-surface $-1 58.964957884590639 -28.493191243490458 17.749174809037079 -0.74314483375859142 0 -0.66913059716165679 0.66913059716165679 0 -0.74314483375859142 1 I I 0 1 1 forward I I I I #
face $-1 $171 $172 $60 $-1 $173 reversed single #
loop $-1 $-1 $174 $78 #
plane-surface $-1 71.298499800089246 -4.0840612649453316 191.25087279373517 0 -1 0 -0.74314483375859142 0 -0.66913059716165679 forward_v I I I I #
face $-1 $175 $176 $61 $-1 $177 forward single #
loop $-1 $178 $179 $79 #
cone-surface $-1 58.964957884590639 -15.996990239324425 17.749174809037079 -0.74314483375859142 0 -0.66913059716165679 0.66913059716165679 0 -0.74314483375859142 1 I I 0 1 1 forward I I I I #
face $-1 $180 $181 $62 $-1 $182 forward single #
loop $-1 $183 $184 $80 #
cone-surface $-1 58.964957884590639 -11.529641873932267 17.749174809037079 -0.74314483375859142 0 -0.66913059716165679 0.66913059716165679 0 -0.74314483375859142 1 I I 0 1 1 forward I I I I #
face $-1 $185 $186 $63 $-1 $187 forward single #
loop $-1 $188 $189 $81 #
cone-surface $-1 58.964957884590639 -7.0622935085401082 17.749174809037079 -0.74314483375859142 0 -0.66913059716165679 0.66913059716165679 0 -0.74314483375859142 1 I I 0 1 1 forward I I I I #
face $-1 $190 $191 $64 $-1 $192 reversed single #
loop $-1 $-1 $193 $82 #
plane-surface $-1 71.298499800089246 17.346836470005016 191.25087279373517 0 -1 0 -0.74314483375859142 0 -0.66913059716165679 forward_v I I I I #
face $-1 $194 $195 $65 $-1 $196 forward single #
loop $-1 $197 $198 $83 #
cone-surface $-1 58.964957884590639 5.4339074956259239 17.749174809037079 -0.74314483375859142 0 -0.66913059716165679 0.66913059716165679 0 -0.74314483375859142 1 I I 0 1 1 forward I I I I #
face $-1 $199 $200 $66 $-1 $201 forward single #
loop $-1 $202 $203 $84 #
cone-surface $-1 58.964957884590639 9.9012558610180861 17.749174809037079 -0.74314483375859142 0 -0.66913059716165679 0.66913059716165679 0 -0.74314483375859142 1 I I 0 1 1 forward I I I I #
face $-1 $204 $205 $67 $-1 $206 forward single #
loop $-1 $207 $208 $85 #
cone-surface $-1 58.964957884590639 14.368604226410241 17.749174809037079 -0.74314483375859142 0 -0.66913059716165679 0.66913059716165679 0 -0.74314483375859142 1 I I 0 1 1 forward I I I I #
face $-1 $209 $210 $68 $-1 $211 reversed single #
loop $-1 $-1 $212 $86 #
plane-surface $-1 71.298499800089246 38.777734204955365 191.25087279373517 0 -1 0 -0.74314483375859142 0 -0.66913059716165679 forward_v I I I I #
face $-1 $213 $214 $69 $-1 $215 forward single #
loop $-1 $216 $217 $87 #
cone-surface $-1 58.964957884590639 26.86480523057628 17.749174809037079 -0.74314483375859142 0 -0.66913059716165679 0.66913059716165679 0 -0.74314483375859142 1 I I 0 1 1 forward I I I I #
face $-1 $218 $219 $70 $-1 $220 forward single #
loop $-1 $221 $222 $88 #
cone-surface $-1 58.964957884590639 31.332153595968435 17.749174809037079 -0.74314483375859142 0 -0.66913059716165679 0.66913059716165679 0 -0.74314483375859142 1 I I 0 1 1 forward I I I I #
face $-1 $223 $224 $71 $-1 $225 forward single #
loop $-1 $226 $227 $89 #
cone-surface $-1 58.964957884590639 35.79950196136059 17.749174809037079 -0.74314483375859142 0 -0.66913059716165679 0.66913059716165679 0 -0.74314483375859142 1 I I 0 1 1 forward I I I I #
face $-1 $228 $229 $54 $-1 $230 reversed single #
loop $-1 $-1 $231 $90 #
plane-surface $-1 0 0 -21.07261514029091 0 0 1 1 0 0 forward_v I I I I #
coedge $-1 $232 $233 $234 $235 forward $91 $-1 #
face $-1 $236 $237 $55 $-1 $238 reversed single #
loop $-1 $-1 $239 $93 #
plane-surface $-1 0 42.861795469900699 0 0 -1 0 0 0 -1 forward_v I I I I #
coedge $-1 $240 $241 $242 $243 forward $94 $-1 #
face $-1 $244 $245 $56 $-1 $246 reversed single #
loop $-1 $-1 $247 $96 #
plane-surface $-1 -21.007767889887475 -32.960539608882613 108.1379381201934 0.74314483375859142 0 0.66913059716165679 0.66913059716165679 0 -0.74314483375859142 forward_v I I I I #
coedge $-1 $248 $249 $250 $251 reversed $97 $-1 #
face $-1 $-1 $252 $57 $-1 $253 forward single #
loop $-1 $254 $255 $99 #
cone-surface $-1 57.81266041636988 -37.427887974274775 16.711641534239543 -0.74314483375859142 0 -0.66913059716165679 0.3345652985808284 0 -0.37157241687929571 1 I I -0.70710678118654746 0.70710678118654746 0.5 forward I I I I #
loop $-1 $-1 $256 $75 #
coedge $-1 $160 $160 $257 $258 reversed $100 $-1 #
face $-1 $-1 $259 $58 $-1 $260 forward single #
loop $-1 $261 $262 $102 #
cone-surface $-1 57.81266041636988 -32.960539608882613 16.711641534239543 -0.74314483375859142 0 -0.66913059716165679 0.3345652985808284 0 -0.37157241687929571 1 I I -0.70710678118654746 0.70710678118654746 0.5 forward I I I I #
loop $-1 $-1 $263 $76 #
coedge $-1 $165 $165 $264 $265 reversed $103 $-1 #
face $-1 $-1 $266 $59 $-1 $267 forward single #
loop $-1 $268 $269 $105 #
cone-surface $-1 57.81266041636988 -28.493191243490458 16.711641534239543 -0.74314483375859142 0 -0.66913059716165679 0.3345652985808284 0 -0.37157241687929571 1 I I -0.70710678118654746 0.70710678118654746 0.5 forward I I I I #
loop $-1 $-1 $270 $77 #
coedge $-1 $170 $170 $271 $272 reversed $106 $-1 #
face $-1 $273 $274 $60 $-1 $275 reversed single #
loop $-1 $-1 $276 $108 #
plane-surface $-1 -21.007767889887475 -11.529641873932263 108.1379381201934 0.74314483375859142 0 0.66913059716165679 0.66913059716165679 0 -0.74314483375859142 forward_v I I I I #
coedge $-1 $277 $278 $279 $280 reversed $109 $-1 #
face $-1 $-1 $281 $61 $-1 $282 forward single #
loop $-1 $283 $284 $111 #
cone-surface $-1 57.81266041636988 -15.996990239324425 16.711641534239543 -0.74314483375859142 0 -0.66913059716165679 0.3345652985808284 0 -0.37157241687929571 1 I I -0.70710678118654746 0.70710678118654746 0.5 forward I I I I #
loop $-1 $-1 $285 $79 #
coedge $-1 $179 $179 $286 $287 reversed $112 $-1 #
face $-1 $-1 $288 $62 $-1 $289 forward single #
loop $-1 $290 $291 $114 #
cone-surface $-1 57.81266041636988 -11.529641873932267 16.711641534239543 -0.74314483375859142 0 -0.66913059716165679 0.3345652985808284 0 -0.37157241687929571 1 I I -0.70710678118654746 0.70710678118654746 0.5 forward I I I I #
loop $-1 $-1 $292 $80 #
coedge $-1 $184 $184 $293 $294 reversed $115 $-1 #
face $-1 $-1 $295 $63 $-1 $296 forward single #
loop $-1 $297 $298 $117 #
cone-surface $-1 57.81266041636988 -7.0622935085401082 16.711641534239543 -0.74314483375859142 0 -0.66913059716165679 0.3345652985808284 0 -0.37157241687929571 1 I I -0.70710678118654746 0.70710678118654746 0.5 forward I I I I #
loop $-1 $-1 $299 $81 #
coedge $-1 $189 $189 $300 $301 reversed $118 $-1 #
face $-1 $302 $303 $64 $-1 $304 reversed single #
loop $-1 $-1 $305 $120 #
plane-surface $-1 -21.007767889887475 9.9012558610180861 108.1379381201934 0.74314483375859142 0 0.66913059716165679 0.66913059716165679 0 -0.74314483375859142 forward_v I I I I #
coedge $-1 $306 $307 $308 $309 reversed $121 $-1 #
face $-1 $-1 $310 $65 $-1 $311 forward single #
loop $-1 $312 $313 $123 #
cone-surface $-1 57.81266041636988 5.4339074956259239 16.711641534239543 -0.74314483375859142 0 -0.66913059716165679 0.3345652985808284 0 -0.37157241687929571 1 I I -0.70710678118654746 0.70710678118654746 0.5 forward I I I I #
loop $-1 $-1 $314 $83 #
coedge $-1 $198 $198 $315 $316 reversed $124 $-1 #
face $-1 $-1 $317 $66 $-1 $318 forward single #
loop $-1 $319 $320 $126 #
cone-surface $-1 57.81266041636988 9.9012558610180861 16.711641534239543 -0.74314483375859142 0 -0.66913059716165679 0.3345652985808284 0 -0.37157241687929571 1 I I -0.70710678118654746 0.70710678118654746 0.5 forward I I I I #
loop $-1 $-1 $321 $84 #
coedge $-1 $203 $203 $322 $323 reversed $127 $-1 #
face $-1 $-1 $324 $67 $-1 $325 forward single #
loop $-1 $326 $327 $129 #
cone-surface $-1 57.81266041636988 14.368604226410241 16.711641534239543 -0.74314483375859142 0 -0.66913059716165679 0.3345652985808284 0 -0.37157241687929571 1 I I -0.70710678118654746 0.70710678118654746 0.5 forward I I I I #
loop $-1 $-1 $328 $85 #
coedge $-1 $208 $208 $329 $330 reversed $130 $-1 #
face $-1 $331 $332 $68 $-1 $333 reversed single #
loop $-1 $-1 $334 $132 #
plane-surface $-1 -21.007767889887475 31.332153595968435 108.1379381201934 0.74314483375859142 0 0.66913059716165679 0.66913059716165679 0 -0.74314483375859142 forward_v I I I I #
coedge $-1 $335 $336 $337 $338 reversed $133 $-1 #
face $-1 $-1 $339 $69 $-1 $340 forward single #
loop $-1 $341 $342 $135 #
cone-surface $-1 57.81266041636988 26.86480523057628 16.711641534239543 -0.74314483375859142 0 -0.66913059716165679 0.3345652985808284 0 -0.37157241687929571 1 I I -0.70710678118654746 0.70710678118654746 0.5 forward I I I I #
loop $-1 $-1 $343 $87 #
coedge $-1 $217 $217 $344 $345 reversed $136 $-1 #
face $-1 $-1 $346 $70 $-1 $347 forward single #
loop $-1 $348 $349 $138 #
cone-surface $-1 57.81266041636988 31.332153595968435 16.711641534239543 -0.74314483375859142 0 -0.66913059716165679 0.3345652985808284 0 -0.37157241687929571 1 I I -0.70710678118654746 0.70710678118654746 0.5 forward I I I I #
loop $-1 $-1 $350 $88 #
coedge $-1 $222 $222 $351 $352 reversed $139 $-1 #
face $-1 $-1 $353 $71 $-1 $354 forward single #
loop $-1 $355 $356 $141 #
cone-surface $-1 57.81266041636988 35.79950196136059 16.711641534239543 -0.74314483375859142 0 -0.66913059716165679 0.3345652985808284 0 -0.37157241687929571 1 I I -0.70710678118654746 0.70710678118654746 0.5 forward I I I I #
loop $-1 $-1 $357 $89 #
coedge $-1 $227 $227 $358 $359 reversed $142 $-1 #
face $-1 $360 $361 $54 $-1 $362 reversed single #
loop $-1 $-1 $363 $144 #
plane-surface $-1 0 -42.861795469900699 0 0 1 0 0 0 1 forward_v I I I I #
coedge $-1 $364 $365 $366 $367 forward $145 $-1 #
coedge $-1 $368 $147 $369 $370 forward $91 $-1 #
coedge $-1 $147 $368 $371 $372 forward $91 $-1 #
coedge $-1 $373 $374 $147 $235 reversed $375 $-1 #
edge $-1 $376 -42.861795469900699 $377 42.861795469900699 $234 $378 forward 7 unknown #
face $-1 $379 $380 $55 $-1 $381 reversed single #
loop $-1 $-1 $242 $148 #
plane-surface $-1 -73.2635110452361 0 16.409976684218115 0 0 1 1 0 0 forward_v I I I I #
coedge $-1 $382 $383 $240 $384 forward $149 $-1 #
coedge $-1 $385 $151 $239 $384 reversed $94 $-1 #
coedge $-1 $151 $385 $386 $387 reversed $94 $-1 #
coedge $-1 $388 $389 $151 $243 reversed $237 $-1 #
edge $-1 $390 -42.861795469900699 $391 42.861795469900699 $242 $392 forward 7 unknown #
face $-1 $393 $394 $56 $-1 $395 forward single #
loop $-1 $-1 $396 $152 #
plane-surface $-1 71.298499800089246 -40.406120217869542 191.25087279373517 0 1 0 0.74314483375859142 0 0.66913059716165679 forward_v I I I I #
coedge $-1 $397 $398 $399 $400 reversed $153 $-1 #
coedge $-1 $249 $155 $401 $402 reversed $97 $-1 #
coedge $-1 $155 $248 $397 $403 reversed $97 $-1 #
coedge $-1 $399 $404 $155 $251 forward $394 $-1 #
edge $-1 $405 -26.45591688360966 $406 -21.736949188165269 $250 $407 forward 7 unknown #
loop $-1 $-1 $257 $156 #
plane-surface $-1 -21.007767889887475 -32.960539608882613 108.1379381201934 0.74314483375859142 0 0.66913059716165679 0.66913059716165679 0 -0.74314483375859142 forward_v I I I I #
loop $-1 $-1 $408 $99 #
coedge $-1 $255 $255 $256 $409 reversed $157 $-1 #
coedge $-1 $256 $256 $255 $409 forward $159 $-1 #
coedge $-1 $257 $257 $160 $258 forward $252 $-1 #
edge $-1 $410 0 $410 6.2831853071796004 $257 $411 forward 7 unknown #
loop $-1 $-1 $264 $161 #
plane-surface $-1 -21.007767889887475 -32.960539608882613 108.1379381201934 0.74314483375859142 0 0.66913059716165679 0.66913059716165679 0 -0.74314483375859142 forward_v I I I I #
loop $-1 $-1 $412 $102 #
coedge $-1 $262 $262 $263 $413 reversed $162 $-1 #
coedge $-1 $263 $263 $262 $413 forward $164 $-1 #
coedge $-1 $264 $264 $165 $265 forward $259 $-1 #
edge $-1 $414 0 $414 6.2831853071796004 $264 $415 forward 7 unknown #
loop $-1 $-1 $271 $166 #
plane-surface $-1 -21.007767889887475 -32.960539608882613 108.1379381201934 0.74314483375859142 0 0.66913059716165679 0.66913059716165679 0 -0.74314483375859142 forward_v I I I I #
loop $-1 $-1 $416 $105 #
coedge $-1 $269 $269 $270 $417 reversed $167 $-1 #
coedge $-1 $270 $270 $269 $417 forward $169 $-1 #
coedge $-1 $271 $271 $170 $272 forward $266 $-1 #
edge $-1 $418 0 $418 6.2831853071796004 $271 $419 forward 7 unknown #
face $-1 $420 $421 $60 $-1 $422 reversed single #
loop $-1 $-1 $423 $171 #
plane-surface $-1 71.298499800089246 -18.975222482919193 191.25087279373517 0 1 0 0.74314483375859142 0 0.66913059716165679 forward_v I I I I #
coedge $-1 $424 $425 $426 $427 reversed $172 $-1 #
coedge $-1 $278 $174 $428 $429 reversed $109 $-1 #
coedge $-1 $174 $277 $424 $430 reversed $109 $-1 #
coedge $-1 $426 $431 $174 $280 forward $432 $-1 #
edge $-1 $433 -26.45591688360966 $434 -21.736949188165269 $279 $435 forward 7 unknown #
loop $-1 $-1 $286 $175 #
plane-surface $-1 -21.007767889887475 -11.529641873932263 108.1379381201934 0.74314483375859142 0 0.66913059716165679 0.66913059716165679 0 -0.74314483375859142 forward_v I I I I #
loop $-1 $-1 $436 $111 #
coedge $-1 $284 $284 $285 $437 reversed $176 $-1 #
coedge $-1 $285 $285 $284 $437 forward $178 $-1 #
coedge $-1 $286 $286 $179 $287 forward $281 $-1 #
edge $-1 $438 0 $438 6.2831853071796004 $286 $439 forward 7 unknown #
loop $-1 $-1 $293 $180 #
plane-surface $-1 -21.007767889887475 -11.529641873932263 108.1379381201934 0.74314483375859142 0 0.66913059716165679 0.66913059716165679 0 -0.74314483375859142 forward_v I I I I #
loop $-1 $-1 $440 $114 #
coedge $-1 $291 $291 $292 $441 reversed $181 $-1 #
coedge $-1 $292 $292 $291 $441 forward $183 $-1 #
coedge $-1 $293 $293 $184 $294 forward $288 $-1 #
edge $-1 $442 0 $442 6.2831853071796004 $293 $443 forward 7 unknown #
loop $-1 $-1 $300 $185 #
plane-surface $-1 -21.007767889887475 -11.529641873932263 108.1379381201934 0.74314483375859142 0 0.66913059716165679 0.66913059716165679 0 -0.74314483375859142 forward_v I I I I #
loop $-1 $-1 $444 $117 #
coedge $-1 $298 $298 $299 $445 reversed $186 $-1 #
coedge $-1 $299 $299 $298 $445 forward $188 $-1 #
coedge $-1 $300 $300 $189 $301 forward $295 $-1 #
edge $-1 $446 0 $446 6.2831853071796004 $300 $447 forward 7 unknown #
face $-1 $448 $449 $64 $-1 $450 reversed single #
loop $-1 $-1 $451 $190 #
plane-surface $-1 71.298499800089246 2.4556752520311544 191.25087279373517 0 1 0 0.74314483375859142 0 0.66913059716165679 forward_v I I I I #
coedge $-1 $452 $453 $454 $455 reversed $191 $-1 #
coedge $-1 $307 $193 $456 $457 reversed $121 $-1 #
coedge $-1 $193 $306 $452 $458 reversed $121 $-1 #
coedge $-1 $454 $459 $193 $309 forward $460 $-1 #
edge $-1 $461 -26.45591688360966 $462 -21.736949188165269 $308 $463 forward 7 unknown #
loop $-1 $-1 $315 $194 #
plane-surface $-1 -21.007767889887475 9.9012558610180861 108.1379381201934 0.74314483375859142 0 0.66913059716165679 0.66913059716165679 0 -0.74314483375859142 forward_v I I I I #
loop $-1 $-1 $464 $123 #
coedge $-1 $313 $313 $314 $465 reversed $195 $-1 #
coedge $-1 $314 $314 $313 $465 forward $197 $-1 #
coedge $-1 $315 $315 $198 $316 forward $310 $-1 #
edge $-1 $466 0 $466 6.2831853071796004 $315 $467 forward 7 unknown #
loop $-1 $-1 $322 $199 #
plane-surface $-1 -21.007767889887475 9.9012558610180861 108.1379381201934 0.74314483375859142 0 0.66913059716165679 0.66913059716165679 0 -0.74314483375859142 forward_v I I I I #
loop $-1 $-1 $468 $126 #
coedge $-1 $320 $320 $321 $469 reversed $200 $-1 #
coedge $-1 $321 $321 $320 $469 forward $202 $-1 #
coedge $-1 $322 $322 $203 $323 forward $317 $-1 #
edge $-1 $470 0 $470 6.2831853071796004 $322 $471 forward 7 unknown #
loop $-1 $-1 $329 $204 #
plane-surface $-1 -21.007767889887475 9.9012558610180861 108.1379381201934 0.74314483375859142 0 0.66913059716165679 0.66913059716165679 0 -0.74314483375859142 forward_v I I I I #
loop $-1 $-1 $472 $129 #
coedge $-1 $327 $327 $328 $473 reversed $205 $-1 #
coedge $-1 $328 $328 $327 $473 forward $207 $-1 #
coedge $-1 $329 $329 $208 $330 forward $324 $-1 #
edge $-1 $474 0 $474 6.2831853071796004 $329 $475 forward 7 unknown #
face $-1 $476 $477 $68 $-1 $478 reversed single #
loop $-1 $-1 $479 $209 #
plane-surface $-1 71.298499800089246 23.886572986981506 191.25087279373517 0 1 0 0.74314483375859142 0 0.66913059716165679 forward_v I I I I #
coedge $-1 $480 $481 $482 $483 reversed $210 $-1 #
coedge $-1 $336 $212 $484 $485 reversed $133 $-1 #
coedge $-1 $212 $335 $480 $486 reversed $133 $-1 #
coedge $-1 $482 $487 $212 $338 forward $488 $-1 #
edge $-1 $489 -26.45591688360966 $490 -21.736949188165269 $337 $491 forward 7 unknown #
loop $-1 $-1 $344 $213 #
plane-surface $-1 -21.007767889887475 31.332153595968435 108.1379381201934 0.74314483375859142 0 0.66913059716165679 0.66913059716165679 0 -0.74314483375859142 forward_v I I I I #
loop $-1 $-1 $492 $135 #
coedge $-1 $342 $342 $343 $493 reversed $214 $-1 #
coedge $-1 $343 $343 $342 $493 forward $216 $-1 #
coedge $-1 $344 $344 $217 $345 forward $339 $-1 #
edge $-1 $494 0 $494 6.2831853071796004 $344 $495 forward 7 unknown #
loop $-1 $-1 $351 $218 #
plane-surface $-1 -21.007767889887475 31.332153595968435 108.1379381201934 0.74314483375859142 0 0.66913059716165679 0.66913059716165679 0 -0.74314483375859142 forward_v I I I I #
loop $-1 $-1 $496 $138 #
coedge $-1 $349 $349 $350 $497 reversed $219 $-1 #
coedge $-1 $350 $350 $349 $497 forward $221 $-1 #
coedge $-1 $351 $351 $222 $352 forward $346 $-1 #
edge $-1 $498 0 $498 6.2831853071796004 $351 $499 forward 7 unknown #
loop $-1 $-1 $358 $223 #
plane-surface $-1 -21.007767889887475 31.332153595968435 108.1379381201934 0.74314483375859142 0 0.66913059716165679 0.66913059716165679 0 -0.74314483375859142 forward_v I I I I #
loop $-1 $-1 $500 $141 #
coedge $-1 $356 $356 $357 $501 reversed $224 $-1 #
coedge $-1 $357 $357 $356 $501 forward $226 $-1 #
coedge $-1 $358 $358 $227 $359 forward $353 $-1 #
edge $-1 $502 0 $502 6.2831853071796004 $358 $503 forward 7 unknown #
face $-1 $504 $505 $54 $-1 $506 reversed single #
loop $-1 $-1 $507 $228 #
plane-surface $-1 -62.105166783654283 0 0 1 0 0 0 0 -1 forward_v I I I I #
coedge $-1 $508 $371 $509 $510 forward $229 $-1 #
coedge $-1 $511 $231 $508 $512 forward $145 $-1 #
coedge $-1 $231 $511 $513 $514 forward $145 $-1 #
coedge $-1 $374 $373 $231 $367 reversed $375 $-1 #
edge $-1 $515 -42.861795469900699 $516 42.861795469900699 $366 $517 forward 7 unknown #
coedge $-1 $233 $232 $518 $519 forward $91 $-1 #
coedge $-1 $520 $521 $232 $370 reversed $505 $-1 #
edge $-1 $377 -62.105166783654283 $522 62.105166783654283 $369 $523 forward 7 unknown #
coedge $-1 $363 $524 $233 $372 reversed $229 $-1 #
edge $-1 $525 -62.105166783654283 $376 62.105166783654283 $371 $526 forward 7 unknown #
coedge $-1 $366 $234 $524 $527 forward $375 $-1 #
coedge $-1 $234 $366 $520 $528 reversed $375 $-1 #
loop $-1 $-1 $373 $504 #
vertex $-1 $235 $529 #
vertex $-1 $235 $530 #
straight-curve $-1 62.105166783654283 0 21.07261514029091 0 1 0 I I #
face $-1 $531 $532 $55 $-1 $533 forward single #
loop $-1 $-1 $534 $236 #
plane-surface $-1 -84.421855306817918 0 18.741295912254511 1 0 0 0 0 -1 forward_v I I I I #
coedge $-1 $535 $239 $389 $536 reversed $149 $-1 #
coedge $-1 $239 $535 $537 $538 reversed $149 $-1 #
edge $-1 $539 -21.07261514029091 $391 -16.409976684218115 $239 $540 forward 7 unknown #
coedge $-1 $241 $240 $541 $542 reversed $94 $-1 #
coedge $-1 $543 $544 $241 $387 forward $545 $-1 #
edge $-1 $390 16.409976684218115 $546 21.07261514029091 $386 $547 forward 7 unknown #
coedge $-1 $548 $242 $544 $549 forward $237 $-1 #
coedge $-1 $242 $548 $382 $536 forward $237 $-1 #
vertex $-1 $387 $550 #
vertex $-1 $384 $551 #
straight-curve $-1 -62.105166783654283 0 16.409976684218115 0 1 0 I I #
face $-1 $-1 $552 $56 $-1 $553 reversed single #
loop $-1 $-1 $250 $244 #
plane-surface $-1 0 0 21.07261514029091 0 0 1 1 0 0 forward_v I I I I #
coedge $-1 $554 $555 $556 $557 reversed $245 $-1 #
coedge $-1 $558 $247 $249 $403 forward $153 $-1 #
coedge $-1 $247 $558 $554 $559 forward $153 $-1 #
coedge $-1 $556 $250 $247 $400 forward $394 $-1 #
edge $-1 $406 9.0346891954543764 $560 23.925850413428236 $399 $561 forward 7 unknown #
coedge $-1 $562 $563 $248 $402 forward $552 $-1 #
edge $-1 $564 -79.793765966650895 $405 -74.552821256576678 $401 $565 forward 7 unknown #
edge $-1 $406 117.15794690996319 $564 124.21033356730854 $249 $566 forward 7 unknown #
coedge $-1 $250 $556 $562 $567 forward $394 $-1 #
vertex $-1 $402 $568 #
vertex $-1 $251 $569 #
straight-curve $-1 35.649249900044623 -25.514958999895683 21.072615140290907 -1 0 0 I I #
coedge $-1 $408 $408 $-1 $570 reversed $254 $-1 #
edge $-1 $571 0 $571 6.2831853071796004 $255 $572 forward 7 unknown #
vertex $-1 $258 $573 #
ellipse-curve $-1 59.745682935932102 -37.427887974274775 18.452142785253788 0.74314483375859142 0 0.66913059716165679 0.66913059716165679 0 -0.74314483375859142 1 I I #
coedge $-1 $412 $412 $-1 $574 reversed $261 $-1 #
edge $-1 $575 0 $575 6.2831853071796004 $262 $576 forward 7 unknown #
vertex $-1 $265 $577 #
ellipse-curve $-1 59.745682935932102 -32.960539608882613 18.452142785253788 0.74314483375859142 0 0.66913059716165679 0.66913059716165679 0 -0.74314483375859142 1 I I #
coedge $-1 $416 $416 $-1 $578 reversed $268 $-1 #
edge $-1 $579 0 $579 6.2831853071796004 $269 $580 forward 7 unknown #
vertex $-1 $272 $581 #
ellipse-curve $-1 59.745682935932102 -28.493191243490458 18.452142785253788 0.74314483375859142 0 0.66913059716165679 0.66913059716165679 0 -0.74314483375859142 1 I I #
face $-1 $-1 $432 $60 $-1 $582 forward single #
loop $-1 $-1 $583 $273 #
plane-surface $-1 62.105166783654283 0 0 -1 0 0 0 0 1 forward_v I I I I #
coedge $-1 $584 $585 $586 $587 reversed $274 $-1 #
coedge $-1 $588 $276 $278 $430 forward $172 $-1 #
coedge $-1 $276 $588 $584 $589 forward $172 $-1 #
coedge $-1 $586 $279 $276 $427 forward $432 $-1 #
edge $-1 $434 -1.6807596720208 $590 13.210401545953061 $426 $591 forward 7 unknown #
coedge $-1 $592 $593 $277 $429 forward $421 $-1 #
edge $-1 $594 -79.793765966650895 $433 -74.552821256576678 $428 $595 forward 7 unknown #
edge $-1 $434 117.15794690996319 $594 124.21033356730854 $278 $596 forward 7 unknown #
coedge $-1 $279 $586 $592 $597 forward $432 $-1 #
loop $-1 $-1 $586 $420 #
vertex $-1 $429 $598 #
vertex $-1 $280 $599 #
straight-curve $-1 35.649249900044623 -4.0840612649453316 21.072615140290907 -1 0 0 I I #
coedge $-1 $436 $436 $-1 $600 reversed $283 $-1 #
edge $-1 $601 0 $601 6.2831853071796004 $284 $602 forward 7 unknown #
vertex $-1 $287 $603 #
ellipse-curve $-1 59.745682935932102 -15.996990239324425 18.452142785253788 0.74314483375859142 0 0.66913059716165679 0.66913059716165679 0 -0.74314483375859142 1 I I #
coedge $-1 $440 $440 $-1 $604 reversed $290 $-1 #
edge $-1 $605 0 $605 6.2831853071796004 $291 $606 forward 7 unknown #
vertex $-1 $294 $607 #
ellipse-curve $-1 59.745682935932102 -11.529641873932267 18.452142785253788 0.74314483375859142 0 0.66913059716165679 0.66913059716165679 0 -0.74314483375859142 1 I I #
coedge $-1 $444 $444 $-1 $608 reversed $297 $-1 #
edge $-1 $609 0 $609 6.2831853071796004 $298 $610 forward 7 unknown #
vertex $-1 $301 $611 #
ellipse-curve $-1 59.745682935932102 -7.0622935085401082 18.452142785253788 0.74314483375859142 0 0.66913059716165679 0.66913059716165679 0 -0.74314483375859142 1 I I #
face $-1 $-1 $460 $64 $-1 $612 forward single #
loop $-1 $-1 $613 $302 #
plane-surface $-1 62.105166783654283 0 0 -1 0 0 0 0 1 forward_v I I I I #
coedge $-1 $614 $615 $616 $617 reversed $303 $-1 #
coedge $-1 $618 $305 $307 $458 forward $191 $-1 #
coedge $-1 $305 $618 $614 $619 forward $191 $-1 #
coedge $-1 $616 $308 $305 $455 forward $460 $-1 #
edge $-1 $462 -12.396208539495973 $620 2.4949526784778886 $454 $621 forward 7 unknown #
coedge $-1 $622 $623 $306 $457 forward $449 $-1 #
edge $-1 $624 -79.793765966650895 $461 -74.552821256576678 $456 $625 forward 7 unknown #
edge $-1 $462 117.15794690996319 $624 124.21033356730854 $307 $626 forward 7 unknown #
coedge $-1 $308 $616 $622 $627 forward $460 $-1 #
loop $-1 $-1 $616 $448 #
vertex $-1 $457 $628 #
vertex $-1 $309 $629 #
straight-curve $-1 35.649249900044623 17.346836470005016 21.072615140290907 -1 0 0 I I #
coedge $-1 $464 $464 $-1 $630 reversed $312 $-1 #
edge $-1 $631 0 $631 6.2831853071796004 $313 $632 forward 7 unknown #
vertex $-1 $316 $633 #
ellipse-curve $-1 59.745682935932102 5.4339074956259239 18.452142785253788 0.74314483375859142 0 0.66913059716165679 0.66913059716165679 0 -0.74314483375859142 1 I I #
coedge $-1 $468 $468 $-1 $634 reversed $319 $-1 #
edge $-1 $635 0 $635 6.2831853071796004 $320 $636 forward 7 unknown #
vertex $-1 $323 $637 #
ellipse-curve $-1 59.745682935932102 9.9012558610180861 18.452142785253788 0.74314483375859142 0 0.66913059716165679 0.66913059716165679 0 -0.74314483375859142 1 I I #
coedge $-1 $472 $472 $-1 $638 reversed $326 $-1 #
edge $-1 $639 0 $639 6.2831853071796004 $327 $640 forward 7 unknown #
vertex $-1 $330 $641 #
ellipse-curve $-1 59.745682935932102 14.368604226410241 18.452142785253788 0.74314483375859142 0 0.66913059716165679 0.66913059716165679 0 -0.74314483375859142 1 I I #
face $-1 $-1 $488 $68 $-1 $642 forward single #
loop $-1 $-1 $643 $331 #
plane-surface $-1 62.105166783654283 0 0 -1 0 0 0 0 1 forward_v I I I I #
coedge $-1 $644 $645 $646 $647 reversed $332 $-1 #
coedge $-1 $648 $334 $336 $486 forward $210 $-1 #
coedge $-1 $334 $648 $644 $649 forward $210 $-1 #
coedge $-1 $646 $337 $334 $483 forward $488 $-1 #
edge $-1 $490 -23.111657406971148 $650 -8.2204961889972878 $482 $651 forward 7 unknown #
coedge $-1 $652 $653 $335 $485 forward $477 $-1 #
edge $-1 $654 -79.793765966650895 $489 -74.552821256576678 $484 $655 forward 7 unknown #
edge $-1 $490 117.15794690996319 $654 124.21033356730854 $336 $656 forward 7 unknown #
coedge $-1 $337 $646 $652 $657 forward $488 $-1 #
loop $-1 $-1 $646 $476 #
vertex $-1 $485 $658 #
vertex $-1 $338 $659 #
straight-curve $-1 35.649249900044623 38.777734204955365 21.072615140290907 -1 0 0 I I #
coedge $-1 $492 $492 $-1 $660 reversed $341 $-1 #
edge $-1 $661 0 $661 6.2831853071796004 $342 $662 forward 7 unknown #
vertex $-1 $345 $663 #
ellipse-curve $-1 59.745682935932102 26.86480523057628 18.452142785253788 0.74314483375859142 0 0.66913059716165679 0.66913059716165679 0 -0.74314483375859142 1 I I #
coedge $-1 $496 $496 $-1 $664 reversed $348 $-1 #
edge $-1 $665 0 $665 6.2831853071796004 $349 $666 forward 7 unknown #
vertex $-1 $352 $667 #
ellipse-curve $-1 59.745682935932102 31.332153595968435 18.452142785253788 0.74314483375859142 0 0.66913059716165679 0.66913059716165679 0 -0.74314483375859142 1 I I #
coedge $-1 $500 $500 $-1 $668 reversed $355 $-1 #
edge $-1 $669 0 $669 6.2831853071796004 $356 $670 forward 7 unknown #
vertex $-1 $359 $671 #
ellipse-curve $-1 59.745682935932102 35.79950196136059 18.452142785253788 0.74314483375859142 0 0.66913059716165679 0.66913059716165679 0 -0.74314483375859142 1 I I #
face $-1 $-1 $375 $54 $-1 $672 reversed single #
loop $-1 $-1 $520 $360 #
plane-surface $-1 0 42.861795469900699 0 0 -1 0 0 0 -1 forward_v I I I I #
coedge $-1 $673 $518 $521 $674 forward $361 $-1 #
coedge $-1 $524 $363 $364 $512 reversed $229 $-1 #
coedge $-1 $518 $673 $363 $510 reversed $361 $-1 #
edge $-1 $525 -21.07261514029091 $675 21.07261514029091 $509 $676 forward 7 unknown #
coedge $-1 $365 $364 $673 $677 forward $145 $-1 #
edge $-1 $516 -62.105166783654283 $675 62.105166783654283 $508 $678 forward 7 unknown #
coedge $-1 $521 $520 $365 $514 reversed $505 $-1 #
edge $-1 $679 -62.105166783654283 $515 62.105166783654283 $513 $680 forward 7 unknown #
vertex $-1 $367 $681 #
vertex $-1 $527 $682 #
straight-curve $-1 62.105166783654283 0 -21.07261514029091 0 -1 0 I I #
coedge $-1 $507 $509 $368 $519 reversed $361 $-1 #
edge $-1 $522 -42.861795469900699 $525 42.861795469900699 $518 $683 forward 7 unknown #
coedge $-1 $513 $369 $374 $528 forward $505 $-1 #
coedge $-1 $369 $513 $507 $674 reversed $505 $-1 #
vertex $-1 $370 $684 #
straight-curve $-1 0 42.861795469900699 21.07261514029091 -1 0 0 I I #
coedge $-1 $371 $508 $373 $527 reversed $229 $-1 #
vertex $-1 $519 $685 #
straight-curve $-1 0 -42.861795469900699 21.07261514029091 1 0 0 I I #
edge $-1 $376 -21.07261514029091 $516 21.07261514029091 $373 $686 forward 7 unknown #
edge $-1 $377 -21.07261514029091 $515 21.07261514029091 $374 $687 forward 7 unknown #
point $-1 62.105166783654283 -42.861795469900699 21.07261514029091 #
point $-1 62.105166783654283 42.861795469900699 21.07261514029091 #
face $-1 $-1 $545 $55 $-1 $688 reversed single #
loop $-1 $-1 $541 $379 #
plane-surface $-1 0 0 21.07261514029091 0 0 1 1 0 0 forward_v I I I I #
coedge $-1 $689 $690 $535 $691 forward $380 $-1 #
coedge $-1 $383 $382 $534 $691 reversed $149 $-1 #
edge $-1 $692 -11.158344261581817 $391 11.15834426158181 $382 $693 forward 7 unknown #
coedge $-1 $694 $541 $383 $538 forward $532 $-1 #
edge $-1 $539 62.105166783654283 $695 84.421855306817918 $383 $696 forward 7 unknown #
vertex $-1 $538 $697 #
straight-curve $-1 -62.105166783654283 42.861795469900699 0 0 0 -1 I I #
coedge $-1 $537 $698 $385 $542 forward $532 $-1 #
edge $-1 $546 -42.861795469900699 $539 42.861795469900699 $541 $699 forward 7 unknown #
coedge $-1 $700 $386 $698 $701 reversed $545 $-1 #
coedge $-1 $386 $700 $388 $549 reversed $545 $-1 #
loop $-1 $-1 $386 $531 #
vertex $-1 $387 $702 #
straight-curve $-1 -62.105166783654283 -42.861795469900699 0 0 0 1 I I #
coedge $-1 $389 $388 $689 $703 forward $237 $-1 #
edge $-1 $390 -11.15834426158181 $704 11.158344261581817 $544 $705 forward 7 unknown #
point $-1 -62.10516678365429 -42.861795469900699 16.409976684218115 #
point $-1 -62.10516678365429 42.861795469900699 16.409976684218115 #
loop $-1 $-1 $401 $393 #
plane-surface $-1 62.105166783654283 0 0 -1 0 0 0 0 1 forward_v I I I I #
coedge $-1 $555 $396 $398 $559 reversed $245 $-1 #
coedge $-1 $396 $554 $706 $707 reversed $245 $-1 #
coedge $-1 $404 $399 $396 $557 forward $394 $-1 #
edge $-1 $560 21.736949188165269 $708 26.45591688360966 $556 $709 forward 7 unknown #
coedge $-1 $398 $397 $563 $710 reversed $153 $-1 #
edge $-1 $711 -124.21033356730854 $560 -117.15794690996319 $554 $712 forward 7 unknown #
vertex $-1 $400 $713 #
straight-curve $-1 57.386199088209892 -16.480269804441306 21.072615140290907 0 -1 0 I I #
coedge $-1 $706 $401 $404 $567 reversed $552 $-1 #
coedge $-1 $401 $706 $558 $710 forward $552 $-1 #
vertex $-1 $402 $714 #
straight-curve $-1 62.105166783654283 -25.514958999895683 95.625436396867585 0 0 1 I I #
straight-curve $-1 -21.007767889887475 -25.514958999895683 108.1379381201934 0.66913059716165679 0 -0.74314483375859142 I I #
edge $-1 $708 -40.406120217869542 $405 -25.514958999895683 $562 $715 forward 7 unknown #
point $-1 62.105166783654283 -25.514958999895683 21.07261514029091 #
point $-1 57.386199088209892 -25.514958999895683 21.072615140290907 #
edge $-1 $716 1 $716 0 $408 $-1 forward 7 unknown #
vertex $-1 $409 $717 #
ellipse-curve $-1 58.184232833249176 -37.427887974274775 17.046206832820371 0.74314483375859142 0 0.66913059716165679 0.66913059716165679 0 -0.74314483375859142 1 I I #
point $-1 60.414813533093756 -37.427887974274775 17.708997951495196 #
edge $-1 $718 1 $718 0 $412 $-1 forward 7 unknown #
vertex $-1 $413 $719 #
ellipse-curve $-1 58.184232833249176 -32.960539608882613 17.046206832820371 0.74314483375859142 0 0.66913059716165679 0.66913059716165679 0 -0.74314483375859142 1 I I #
point $-1 60.414813533093756 -32.960539608882613 17.708997951495196 #
edge $-1 $720 1 $720 0 $416 $-1 forward 7 unknown #
vertex $-1 $417 $721 #
ellipse-curve $-1 58.184232833249176 -28.493191243490458 17.046206832820371 0.74314483375859142 0 0.66913059716165679 0.66913059716165679 0 -0.74314483375859142 1 I I #
point $-1 60.414813533093756 -28.493191243490458 17.708997951495196 #
plane-surface $-1 0 0 21.07261514029091 0 0 1 1 0 0 forward_v I I I I #
coedge $-1 $593 $592 $585 $722 forward $421 $-1 #
coedge $-1 $585 $423 $425 $589 reversed $274 $-1 #
coedge $-1 $423 $584 $583 $722 reversed $274 $-1 #
coedge $-1 $431 $426 $423 $587 forward $432 $-1 #
edge $-1 $590 21.736949188165269 $723 26.45591688360966 $586 $724 forward 7 unknown #
coedge $-1 $425 $424 $593 $725 reversed $172 $-1 #
edge $-1 $726 -124.21033356730854 $590 -117.15794690996319 $584 $727 forward 7 unknown #
vertex $-1 $427 $728 #
straight-curve $-1 57.386199088209892 -5.7648209369661316 21.072615140290907 0 -1 0 I I #
coedge $-1 $583 $428 $431 $597 reversed $421 $-1 #
coedge $-1 $428 $583 $588 $725 forward $421 $-1 #
vertex $-1 $429 $729 #
straight-curve $-1 62.105166783654283 -4.0840612649453316 95.625436396867585 0 0 1 I I #
straight-curve $-1 -21.007767889887475 -4.0840612649453316 108.1379381201934 0.66913059716165679 0 -0.74314483375859142 I I #
edge $-1 $723 -18.975222482919193 $433 -4.0840612649453316 $592 $730 forward 7 unknown #
point $-1 62.105166783654283 -4.0840612649453316 21.07261514029091 #
point $-1 57.386199088209892 -4.0840612649453316 21.072615140290907 #
edge $-1 $731 1 $731 0 $436 $-1 forward 7 unknown #
vertex $-1 $437 $732 #
ellipse-curve $-1 58.184232833249176 -15.996990239324425 17.046206832820371 0.74314483375859142 0 0.66913059716165679 0.66913059716165679 0 -0.74314483375859142 1 I I #
point $-1 60.414813533093756 -15.996990239324425 17.708997951495196 #
edge $-1 $733 1 $733 0 $440 $-1 forward 7 unknown #
vertex $-1 $441 $734 #
ellipse-curve $-1 58.184232833249176 -11.529641873932267 17.046206832820371 0.74314483375859142 0 0.66913059716165679 0.66913059716165679 0 -0.74314483375859142 1 I I #
point $-1 60.414813533093756 -11.529641873932267 17.708997951495196 #
edge $-1 $735 1 $735 0 $444 $-1 forward 7 unknown #
vertex $-1 $445 $736 #
ellipse-curve $-1 58.184232833249176 -7.0622935085401082 17.046206832820371 0.74314483375859142 0 0.66913059716165679 0.66913059716165679 0 -0.74314483375859142 1 I I #
point $-1 60.414813533093756 -7.0622935085401082 17.708997951495196 #
plane-surface $-1 0 0 21.07261514029091 0 0 1 1 0 0 forward_v I I I I #
coedge $-1 $623 $622 $615 $737 forward $449 $-1 #
coedge $-1 $615 $451 $453 $619 reversed $303 $-1 #
coedge $-1 $451 $614 $613 $737 reversed $303 $-1 #
coedge $-1 $459 $454 $451 $617 forward $460 $-1 #
edge $-1 $620 21.736949188165269 $738 26.45591688360966 $616 $739 forward 7 unknown #
coedge $-1 $453 $452 $623 $740 reversed $191 $-1 #
edge $-1 $741 -124.21033356730854 $620 -117.15794690996319 $614 $742 forward 7 unknown #
vertex $-1 $455 $743 #
straight-curve $-1 57.386199088209892 4.950627930509043 21.072615140290907 0 -1 0 I I #
coedge $-1 $613 $456 $459 $627 reversed $449 $-1 #
coedge $-1 $456 $613 $618 $740 forward $449 $-1 #
vertex $-1 $457 $744 #
straight-curve $-1 62.105166783654283 17.346836470005016 95.625436396867585 0 0 1 I I #
straight-curve $-1 -21.007767889887475 17.346836470005016 108.1379381201934 0.66913059716165679 0 -0.74314483375859142 I I #
edge $-1 $738 2.4556752520311544 $461 17.346836470005016 $622 $745 forward 7 unknown #
point $-1 62.105166783654283 17.346836470005016 21.07261514029091 #
point $-1 57.386199088209892 17.346836470005016 21.072615140290907 #
edge $-1 $746 1 $746 0 $464 $-1 forward 7 unknown #
vertex $-1 $465 $747 #
ellipse-curve $-1 58.184232833249176 5.4339074956259239 17.046206832820371 0.74314483375859142 0 0.66913059716165679 0.66913059716165679 0 -0.74314483375859142 1 I I #
point $-1 60.414813533093756 5.4339074956259239 17.708997951495196 #
edge $-1 $748 1 $748 0 $468 $-1 forward 7 unknown #
vertex $-1 $469 $749 #
ellipse-curve $-1 58.184232833249176 9.9012558610180861 17.046206832820371 0.74314483375859142 0 0.66913059716165679 0.66913059716165679 0 -0.74314483375859142 1 I I #
point $-1 60.414813533093756 9.9012558610180861 17.708997951495196 #
edge $-1 $750 1 $750 0 $472 $-1 forward 7 unknown #
vertex $-1 $473 $751 #
ellipse-curve $-1 58.184232833249176 14.368604226410241 17.046206832820371 0.74314483375859142 0 0.66913059716165679 0.66913059716165679 0 -0.74314483375859142 1 I I #
point $-1 60.414813533093756 14.368604226410241 17.708997951495196 #
plane-surface $-1 0 0 21.07261514029091 0 0 1 1 0 0 forward_v I I I I #
coedge $-1 $653 $652 $645 $752 forward $477 $-1 #
coedge $-1 $645 $479 $481 $649 reversed $332 $-1 #
coedge $-1 $479 $644 $643 $752 reversed $332 $-1 #
coedge $-1 $487 $482 $479 $647 forward $488 $-1 #
edge $-1 $650 21.736949188165269 $753 26.45591688360966 $646 $754 forward 7 unknown #
coedge $-1 $481 $480 $653 $755 reversed $210 $-1 #
edge $-1 $756 -124.21033356730854 $650 -117.15794690996319 $644 $757 forward 7 unknown #
vertex $-1 $483 $758 #
straight-curve $-1 57.386199088209892 15.666076797984218 21.072615140290907 0 -1 0 I I #
coedge $-1 $643 $484 $487 $657 reversed $477 $-1 #
coedge $-1 $484 $643 $648 $755 forward $477 $-1 #
vertex $-1 $485 $759 #
straight-curve $-1 62.105166783654283 38.777734204955365 95.625436396867585 0 0 1 I I #
straight-curve $-1 -21.007767889887475 38.777734204955365 108.1379381201934 0.66913059716165679 0 -0.74314483375859142 I I #
edge $-1 $753 23.886572986981506 $489 38.777734204955365 $652 $760 forward 7 unknown #
point $-1 62.105166783654283 38.777734204955365 21.07261514029091 #
point $-1 57.386199088209892 38.777734204955365 21.072615140290907 #
edge $-1 $761 1 $761 0 $492 $-1 forward 7 unknown #
vertex $-1 $493 $762 #
ellipse-curve $-1 58.184232833249176 26.86480523057628 17.046206832820371 0.74314483375859142 0 0.66913059716165679 0.66913059716165679 0 -0.74314483375859142 1 I I #
point $-1 60.414813533093756 26.86480523057628 17.708997951495196 #
edge $-1 $763 1 $763 0 $496 $-1 forward 7 unknown #
vertex $-1 $497 $764 #
ellipse-curve $-1 58.184232833249176 31.332153595968435 17.046206832820371 0.74314483375859142 0 0.66913059716165679 0.66913059716165679 0 -0.74314483375859142 1 I I #
point $-1 60.414813533093756 31.332153595968435 17.708997951495196 #
edge $-1 $765 1 $765 0 $500 $-1 forward 7 unknown #
vertex $-1 $501 $766 #
ellipse-curve $-1 58.184232833249176 35.79950196136059 17.046206832820371 0.74314483375859142 0 0.66913059716165679 0.66913059716165679 0 -0.74314483375859142 1 I I #
point $-1 60.414813533093756 35.79950196136059 17.708997951495196 #
plane-surface $-1 62.105166783654283 0 0 -1 0 0 0 0 1 forward_v I I I I #
coedge $-1 $509 $507 $511 $677 reversed $361 $-1 #
edge $-1 $522 -21.07261514029091 $679 21.07261514029091 $521 $767 forward 7 unknown #
vertex $-1 $677 $768 #
straight-curve $-1 -62.105166783654283 -42.861795469900699 0 0 0 -1 I I #
edge $-1 $675 -42.861795469900699 $679 42.861795469900699 $673 $769 forward 7 unknown #
straight-curve $-1 0 -42.861795469900699 -21.07261514029091 -1 0 0 I I #
vertex $-1 $514 $770 #
straight-curve $-1 0 42.861795469900699 -21.07261514029091 1 0 0 I I #
point $-1 62.105166783654283 42.861795469900699 -21.07261514029091 #
point $-1 62.105166783654283 -42.861795469900699 -21.07261514029091 #
straight-curve $-1 -62.105166783654283 0 21.07261514029091 0 -1 0 I I #
point $-1 -62.105166783654283 42.861795469900699 21.07261514029091 #
point $-1 -62.105166783654283 -42.861795469900699 21.07261514029091 #
straight-curve $-1 62.105166783654283 -42.861795469900699 0 0 0 -1 I I #
straight-curve $-1 62.105166783654283 42.861795469900699 0 0 0 -1 I I #
plane-surface $-1 0 -42.861795469900699 0 0 1 0 0 0 1 forward_v I I I I #
coedge $-1 $771 $534 $548 $703 reversed $380 $-1 #
coedge $-1 $534 $771 $694 $772 reversed $380 $-1 #
edge $-1 $695 -2.3313192280363957 $692 2.3313192280363957 $535 $773 forward 7 unknown #
vertex $-1 $536 $774 #
straight-curve $-1 -73.2635110452361 42.861795469900699 16.409976684218115 1 0 0 I I #
coedge $-1 $698 $537 $690 $772 forward $532 $-1 #
vertex $-1 $538 $775 #
straight-curve $-1 0 42.861795469900699 21.07261514029091 -1 0 0 I I #
point $-1 -62.105166783654283 42.861795469900699 21.07261514029091 #
coedge $-1 $541 $694 $543 $701 forward $532 $-1 #
straight-curve $-1 -62.105166783654283 0 21.07261514029091 0 1 0 I I #
coedge $-1 $544 $543 $771 $776 forward $545 $-1 #
edge $-1 $777 -84.421855306817918 $546 -62.105166783654283 $543 $778 forward 7 unknown #
point $-1 -62.105166783654283 -42.861795469900699 21.07261514029091 #
edge $-1 $704 -42.861795469900699 $692 42.861795469900699 $689 $779 forward 7 unknown #
vertex $-1 $703 $780 #
straight-curve $-1 -73.2635110452361 -42.861795469900699 16.409976684218115 -1 0 0 I I #
coedge $-1 $563 $562 $555 $707 forward $552 $-1 #
edge $-1 $708 74.552821256576678 $711 79.793765966650895 $706 $781 forward 7 unknown #
vertex $-1 $567 $782 #
straight-curve $-1 35.649249900044623 -40.406120217869542 21.072615140290907 1 0 0 I I #
edge $-1 $711 -23.925850413428236 $564 -9.0346891954543764 $563 $783 forward 7 unknown #
vertex $-1 $710 $784 #
straight-curve $-1 -21.007767889887475 -40.406120217869542 108.1379381201934 -0.66913059716165679 0 0.74314483375859142 I I #
point $-1 57.386199088209892 -40.406120217869542 21.072615140290907 #
point $-1 62.105166783654283 -25.514958999895683 15.83167043021669 #
straight-curve $-1 62.105166783654283 0 21.07261514029091 0 1 0 I I #
vertex $-1 $570 $785 #
point $-1 58.85336343041083 -37.427887974274775 16.303061999061782 #
vertex $-1 $574 $786 #
point $-1 58.85336343041083 -32.960539608882613 16.303061999061782 #
vertex $-1 $578 $787 #
point $-1 58.85336343041083 -28.493191243490458 16.303061999061782 #
edge $-1 $723 74.552821256576678 $726 79.793765966650895 $583 $788 forward 7 unknown #
vertex $-1 $597 $789 #
straight-curve $-1 35.649249900044623 -18.975222482919193 21.072615140290907 1 0 0 I I #
edge $-1 $726 -13.210401545953061 $594 1.6807596720208 $593 $790 forward 7 unknown #
vertex $-1 $725 $791 #
straight-curve $-1 -21.007767889887475 -18.975222482919193 108.1379381201934 -0.66913059716165679 0 0.74314483375859142 I I #
point $-1 57.386199088209892 -18.975222482919193 21.072615140290907 #
point $-1 62.105166783654283 -4.0840612649453316 15.83167043021669 #
straight-curve $-1 62.105166783654283 0 21.07261514029091 0 1 0 I I #
vertex $-1 $600 $792 #
point $-1 58.85336343041083 -15.996990239324425 16.303061999061782 #
vertex $-1 $604 $793 #
point $-1 58.85336343041083 -11.529641873932267 16.303061999061782 #
vertex $-1 $608 $794 #
point $-1 58.85336343041083 -7.0622935085401082 16.303061999061782 #
edge $-1 $738 74.552821256576678 $741 79.793765966650895 $613 $795 forward 7 unknown #
vertex $-1 $627 $796 #
straight-curve $-1 35.649249900044623 2.4556752520311544 21.072615140290907 1 0 0 I I #
edge $-1 $741 -2.4949526784778886 $624 12.396208539495973 $623 $797 forward 7 unknown #
vertex $-1 $740 $798 #
straight-curve $-1 -21.007767889887475 2.4556752520311544 108.1379381201934 -0.66913059716165679 0 0.74314483375859142 I I #
point $-1 57.386199088209892 2.4556752520311544 21.072615140290907 #
point $-1 62.105166783654283 17.346836470005016 15.83167043021669 #
straight-curve $-1 62.105166783654283 0 21.07261514029091 0 1 0 I I #
vertex $-1 $630 $799 #
point $-1 58.85336343041083 5.4339074956259239 16.303061999061782 #
vertex $-1 $634 $800 #
point $-1 58.85336343041083 9.9012558610180861 16.303061999061782 #
vertex $-1 $638 $801 #
point $-1 58.85336343041083 14.368604226410241 16.303061999061782 #
edge $-1 $753 74.552821256576678 $756 79.793765966650895 $643 $802 forward 7 unknown #
vertex $-1 $657 $803 #
straight-curve $-1 35.649249900044623 23.886572986981506 21.072615140290907 1 0 0 I I #
edge $-1 $756 8.2204961889972878 $654 23.111657406971148 $653 $804 forward 7 unknown #
vertex $-1 $755 $805 #
straight-curve $-1 -21.007767889887475 23.886572986981506 108.1379381201934 -0.66913059716165679 0 0.74314483375859142 I I #
point $-1 57.386199088209892 23.886572986981506 21.072615140290907 #
point $-1 62.105166783654283 38.777734204955365 15.83167043021669 #
straight-curve $-1 62.105166783654283 0 21.07261514029091 0 1 0 I I #
vertex $-1 $660 $806 #
point $-1 58.85336343041083 26.86480523057628 16.303061999061782 #
vertex $-1 $664 $807 #
point $-1 58.85336343041083 31.332153595968435 16.303061999061782 #
vertex $-1 $668 $808 #
point $-1 58.85336343041083 35.79950196136059 16.303061999061782 #
straight-curve $-1 -62.105166783654283 42.861795469900699 0 0 0 -1 I I #
point $-1 -62.105166783654283 -42.861795469900699 -21.07261514029091 #
straight-curve $-1 -62.105166783654283 0 -21.07261514029091 0 1 0 I I #
point $-1 -62.105166783654283 42.861795469900699 -21.07261514029091 #
coedge $-1 $690 $689 $700 $776 reversed $380 $-1 #
edge $-1 $695 -42.861795469900699 $777 42.861795469900699 $690 $809 forward 7 unknown #
straight-curve $-1 -84.421855306817918 42.861795469900699 18.741295912254511 0 0 -1 I I #
point $-1 -84.421855306817918 42.861795469900699 16.409976684218115 #
point $-1 -84.421855306817918 42.861795469900699 21.072615140290907 #
edge $-1 $777 -2.3313192280363957 $704 2.3313192280363957 $771 $810 forward 7 unknown #
vertex $-1 $772 $811 #
straight-curve $-1 0 -42.861795469900699 21.07261514029091 1 0 0 I I #
straight-curve $-1 -84.421855306817918 0 16.409976684218115 0 1 0 I I #
point $-1 -84.421855306817918 -42.861795469900699 16.409976684218115 #
straight-curve $-1 62.105166783654283 -40.406120217869542 95.625436396867585 0 0 -1 I I #
point $-1 62.105166783654283 -40.406120217869542 21.07261514029091 #
straight-curve $-1 62.105166783654283 -16.480269804441306 15.831670430216697 0 1 0 I I #
point $-1 62.105166783654283 -40.406120217869542 15.83167043021669 #
point $-1 57.441087999490584 -37.427887974274775 16.377076235658716 #
point $-1 57.441087999490584 -32.960539608882613 16.377076235658716 #
point $-1 57.441087999490584 -28.493191243490458 16.377076235658716 #
straight-curve $-1 62.105166783654283 -18.975222482919193 95.625436396867585 0 0 -1 I I #
point $-1 62.105166783654283 -18.975222482919193 21.07261514029091 #
straight-curve $-1 62.105166783654283 -5.7648209369661316 15.831670430216697 0 1 0 I I #
point $-1 62.105166783654283 -18.975222482919193 15.83167043021669 #
point $-1 57.441087999490584 -15.996990239324425 16.377076235658716 #
point $-1 57.441087999490584 -11.529641873932267 16.377076235658716 #
point $-1 57.441087999490584 -7.0622935085401082 16.377076235658716 #
straight-curve $-1 62.105166783654283 2.4556752520311544 95.625436396867585 0 0 -1 I I #
point $-1 62.105166783654283 2.4556752520311544 21.07261514029091 #
straight-curve $-1 62.105166783654283 4.950627930509043 15.831670430216697 0 1 0 I I #
point $-1 62.105166783654283 2.4556752520311544 15.83167043021669 #
point $-1 57.441087999490584 5.4339074956259239 16.377076235658716 #
point $-1 57.441087999490584 9.9012558610180861 16.377076235658716 #
point $-1 57.441087999490584 14.368604226410241 16.377076235658716 #
straight-curve $-1 62.105166783654283 23.886572986981506 95.625436396867585 0 0 -1 I I #
point $-1 62.105166783654283 23.886572986981506 21.07261514029091 #
straight-curve $-1 62.105166783654283 15.666076797984218 15.831670430216697 0 1 0 I I #
point $-1 62.105166783654283 23.886572986981506 15.83167043021669 #
point $-1 57.441087999490584 26.86480523057628 16.377076235658716 #
point $-1 57.441087999490584 31.332153595968435 16.377076235658716 #
point $-1 57.441087999490584 35.79950196136059 16.377076235658716 #
straight-curve $-1 -84.421855306817918 0 21.072615140290907 0 -1 0 I I #
straight-curve $-1 -84.421855306817918 -42.861795469900699 18.741295912254511 0 0 -1 I I #
point $-1 -84.421855306817918 -42.861795469900699 21.072615140290907 #
End-of-ACIS-data 