500 0 10 0           
7 Unknown 11 ACIS 5.0 NT 24 Thu Mar 25 18:06:53 1999 
-1 9.9999999999999995e-007 1e-010 
body $-1 $10 $-1 $11 #
body $-1 $12 $-1 $13 #
body $-1 $14 $-1 $15 #
body $-1 $16 $-1 $17 #
body $-1 $18 $-1 $19 #
body $-1 $20 $-1 $21 #
body $-1 $22 $-1 $23 #
body $-1 $24 $-1 $25 #
body $-1 $26 $-1 $27 #
body $-1 $28 $-1 $29 #
lump $-1 $-1 $30 $0 #
transform $-1 1 0 0 0 1 0 0 0 1 60.277718436231574 37.572994651463333 15.541186816299263 1 rotate no_reflect no_shear #
lump $-1 $-1 $31 $1 #
transform $-1 1 0 0 0 1 0 0 0 1 60.277718436231574 37.572994651463333 15.541186816299263 1 rotate no_reflect no_shear #
lump $-1 $-1 $32 $2 #
transform $-1 1 0 0 0 1 0 0 0 1 60.277718436231574 37.572994651463333 15.541186816299263 1 rotate no_reflect no_shear #
lump $-1 $-1 $33 $3 #
transform $-1 1 0 0 0 1 0 0 0 1 60.277718436231574 37.572994651463333 15.541186816299263 1 rotate no_reflect no_shear #
lump $-1 $-1 $34 $4 #
transform $-1 1 0 0 0 1 0 0 0 1 60.277718436231574 37.572994651463333 15.541186816299263 1 rotate no_reflect no_shear #
lump $-1 $-1 $35 $5 #
transform $-1 1 0 0 0 1 0 0 0 1 60.277718436231574 37.572994651463333 15.541186816299263 1 rotate no_reflect no_shear #
lump $-1 $-1 $36 $6 #
transform $-1 1 0 0 0 1 0 0 0 1 60.277718436231574 37.572994651463333 15.541186816299263 1 rotate no_reflect no_shear #
lump $-1 $-1 $37 $7 #
transform $-1 1 0 0 0 1 0 0 0 1 60.277718436231574 37.572994651463333 15.541186816299263 1 rotate no_reflect no_shear #
lump $-1 $-1 $38 $8 #
transform $-1 1 0 0 0 1 0 0 0 1 60.277718436231574 37.572994651463333 15.541186816299263 1 rotate no_reflect no_shear #
lump $-1 $-1 $39 $9 #
transform $-1 1 0 0 0 1 0 0 0 1 60.277718436231574 37.572994651463333 15.541186816299263 1 rotate no_reflect no_shear #
shell $-1 $-1 $-1 $40 $-1 $10 #
shell $-1 $-1 $-1 $41 $-1 $12 #
shell $-1 $-1 $-1 $42 $-1 $14 #
shell $-1 $-1 $-1 $43 $-1 $16 #
shell $-1 $-1 $-1 $44 $-1 $18 #
shell $-1 $-1 $-1 $45 $-1 $20 #
shell $-1 $-1 $-1 $46 $-1 $22 #
shell $-1 $-1 $-1 $47 $-1 $24 #
shell $-1 $-1 $-1 $48 $-1 $26 #
shell $-1 $-1 $-1 $49 $-1 $28 #
face $-1 $50 $51 $30 $-1 $52 forward single #
face $-1 $53 $54 $31 $-1 $55 forward single #
face $-1 $56 $57 $32 $-1 $58 forward single #
face $-1 $59 $60 $33 $-1 $61 reversed single #
face $-1 $62 $63 $34 $-1 $64 forward single #
face $-1 $65 $66 $35 $-1 $67 forward single #
face $-1 $68 $69 $36 $-1 $70 forward single #
face $-1 $71 $72 $37 $-1 $73 reversed single #
face $-1 $74 $75 $38 $-1 $76 forward single #
face $-1 $77 $78 $39 $-1 $79 forward single #
face $-1 $80 $81 $30 $-1 $82 reversed single #
loop $-1 $-1 $83 $40 #
plane-surface $-1 0 0 15.541186816299263 0 0 1 1 0 0 forward_v I I I I #
face $-1 $84 $85 $31 $-1 $86 reversed single #
loop $-1 $-1 $87 $41 #
plane-surface $-1 0 -28.884894005527926 7.6896633548593183 0 0 1 1 0 0 forward_v I I I I #
face $-1 $88 $89 $32 $-1 $90 reversed single #
loop $-1 $-1 $91 $42 #
plane-surface $-1 0 28.884894005527926 7.6896633548593183 0 0 1 1 0 0 forward_v I I I I #
face $-1 $92 $93 $33 $-1 $94 reversed single #
loop $-1 $-1 $95 $43 #
plane-surface $-1 48.384859932624515 -20.196793359592519 181.88560000555211 0 1 0 0.6560590369687036 0 0.75470957328743171 forward_v I I I I #
face $-1 $96 $97 $34 $-1 $98 forward single #
loop $-1 $99 $100 $44 #
cone-surface $-1 57.624417973583903 -18.274506752355101 13.092185221124709 -0.6560590369687036 0 -0.75470957328743171 0.37735478664371586 0 -0.3280295184843518 1 I I 0 1 0.5 forward I I I I #
face $-1 $101 $102 $35 $-1 $103 forward single #
loop $-1 $104 $105 $45 #
cone-surface $-1 57.624417973583903 -15.391076841498968 13.092185221124709 -0.6560590369687036 0 -0.75470957328743171 0.37735478664371586 0 -0.3280295184843518 1 I I 0 1 0.5 forward I I I I #
face $-1 $106 $107 $36 $-1 $108 forward single #
loop $-1 $109 $110 $46 #
cone-surface $-1 57.624417973583903 -12.507646930642835 13.092185221124709 -0.6560590369687036 0 -0.75470957328743171 0.37735478664371586 0 -0.3280295184843518 1 I I 0 1 0.5 forward I I I I #
face $-1 $111 $112 $37 $-1 $113 reversed single #
loop $-1 $-1 $114 $47 #
plane-surface $-1 -140.94505198073594 5.6240482186600929 95.897293139927044 0 -1 0 0.66913061440640931 0 -0.74314481823134659 forward_v I I I I #
face $-1 $115 $116 $38 $-1 $117 forward single #
loop $-1 $118 $119 $48 #
cone-surface $-1 -54.703597104583416 0.34714634985709836 10.428388233625277 0.66913061440640931 0 -0.74314481823134659 0.74314481823134659 0 0.66913061440640931 1 I I 0 1 1 forward I I I I #
face $-1 $120 $121 $39 $-1 $122 forward single #
loop $-1 $123 $124 $49 #
cone-surface $-1 -54.703597104583416 3.5132874711388951 10.428388233625277 0.66913061440640931 0 -0.74314481823134659 0.74314481823134659 0 0.66913061440640931 1 I I 0 1 1 forward I I I I #
face $-1 $125 $126 $30 $-1 $127 reversed single #
loop $-1 $-1 $128 $50 #
plane-surface $-1 0 0 -15.541186816299263 0 0 1 1 0 0 forward_v I I I I #
coedge $-1 $129 $130 $131 $132 forward $51 $-1 #
face $-1 $133 $134 $31 $-1 $135 reversed single #
loop $-1 $-1 $136 $53 #
plane-surface $-1 0 -28.884894005527926 0.67153715103290246 0 0 1 1 0 0 forward_v I I I I #
coedge $-1 $137 $138 $139 $140 reversed $54 $-1 #
face $-1 $141 $142 $32 $-1 $143 reversed single #
loop $-1 $-1 $144 $56 #
plane-surface $-1 0 28.884894005527926 0.67153715103290246 0 0 1 1 0 0 forward_v I I I I #
coedge $-1 $145 $146 $147 $148 reversed $57 $-1 #
face $-1 $149 $150 $33 $-1 $151 reversed single #
loop $-1 $-1 $152 $59 #
plane-surface $-1 -30.706623883265003 -15.391076841498965 90.901257686055516 0.6560590369687036 0 0.75470957328743171 0.75470957328743171 0 -0.6560590369687036 forward_v I I I I #
coedge $-1 $153 $154 $155 $156 reversed $60 $-1 #
face $-1 $-1 $157 $34 $-1 $158 forward single #
loop $-1 $159 $160 $62 #
cone-surface $-1 56.95335248963476 -18.274506752355101 12.32021270569491 -0.6560590369687036 0 -0.75470957328743171 0.18867739332185793 0 -0.1640147592421759 1 I I -0.70710678118654746 0.70710678118654746 0.25 forward I I I I #
loop $-1 $-1 $161 $44 #
coedge $-1 $100 $100 $162 $163 reversed $63 $-1 #
face $-1 $-1 $164 $35 $-1 $165 forward single #
loop $-1 $166 $167 $65 #
cone-surface $-1 56.95335248963476 -15.391076841498968 12.32021270569491 -0.6560590369687036 0 -0.75470957328743171 0.18867739332185793 0 -0.1640147592421759 1 I I -0.70710678118654746 0.70710678118654746 0.25 forward I I I I #
loop $-1 $-1 $168 $45 #
coedge $-1 $105 $105 $169 $170 reversed $66 $-1 #
face $-1 $-1 $171 $36 $-1 $172 forward single #
loop $-1 $173 $174 $68 #
cone-surface $-1 56.95335248963476 -12.507646930642835 12.32021270569491 -0.6560590369687036 0 -0.75470957328743171 0.18867739332185793 0 -0.1640147592421759 1 I I -0.70710678118654746 0.70710678118654746 0.25 forward I I I I #
loop $-1 $-1 $175 $46 #
coedge $-1 $110 $110 $176 $177 reversed $69 $-1 #
face $-1 $178 $179 $37 $-1 $180 reversed single #
loop $-1 $-1 $181 $71 #
plane-surface $-1 -60.277718436231595 1.9302169104979967 6.3071449185398478 -0.66913061440640931 0 0.74314481823134659 0.74314481823134659 0 0.66913061440640931 forward_v I I I I #
coedge $-1 $182 $183 $184 $185 reversed $72 $-1 #
face $-1 $-1 $186 $38 $-1 $187 forward single #
loop $-1 $188 $189 $74 #
cone-surface $-1 -53.922631601117992 0.34714634985709836 9.5610381907153226 0.66913061440640931 0 -0.74314481823134659 0.3715724091156733 0 0.33456530720320465 1 I I -0.70710678118654746 0.70710678118654746 0.5 forward I I I I #
loop $-1 $-1 $190 $48 #
coedge $-1 $119 $119 $191 $192 reversed $75 $-1 #
face $-1 $-1 $193 $39 $-1 $194 forward single #
loop $-1 $195 $196 $77 #
cone-surface $-1 -53.922631601117992 3.5132874711388951 9.5610381907153226 0.66913061440640931 0 -0.74314481823134659 0.3715724091156733 0 0.33456530720320465 1 I I -0.70710678118654746 0.70710678118654746 0.5 forward I I I I #
loop $-1 $-1 $197 $49 #
coedge $-1 $124 $124 $198 $199 reversed $78 $-1 #
face $-1 $200 $201 $30 $-1 $202 reversed single #
loop $-1 $-1 $203 $80 #
plane-surface $-1 0 -37.572994651463333 0 0 1 0 0 0 1 forward_v I I I I #
coedge $-1 $204 $205 $206 $207 forward $81 $-1 #
coedge $-1 $208 $83 $209 $210 forward $51 $-1 #
coedge $-1 $83 $208 $211 $212 forward $51 $-1 #
coedge $-1 $213 $214 $83 $132 reversed $215 $-1 #
edge $-1 $216 -37.572994651463333 $217 37.572994651463333 $131 $218 forward 7 unknown #
face $-1 $219 $220 $31 $-1 $221 reversed single #
loop $-1 $-1 $222 $84 #
plane-surface $-1 0 -20.196793359592519 4.1806002529461104 0 -1 0 0 0 -1 forward_v I I I I #
coedge $-1 $223 $224 $225 $226 reversed $85 $-1 #
coedge $-1 $227 $87 $228 $229 forward $54 $-1 #
coedge $-1 $87 $227 $230 $231 reversed $54 $-1 #
coedge $-1 $232 $233 $87 $140 forward $234 $-1 #
edge $-1 $235 5.754346356828556 $236 23.13054764869937 $139 $237 forward 7 unknown #
face $-1 $238 $239 $32 $-1 $240 reversed single #
loop $-1 $-1 $241 $88 #
plane-surface $-1 0 20.196793359592519 4.1806002529461104 0 1 0 0 0 1 forward_v I I I I #
coedge $-1 $242 $243 $244 $245 reversed $89 $-1 #
coedge $-1 $246 $91 $247 $248 reversed $57 $-1 #
coedge $-1 $91 $246 $249 $250 forward $57 $-1 #
coedge $-1 $251 $252 $91 $148 forward $239 $-1 #
edge $-1 $253 -23.13054764869937 $254 -5.754346356828556 $147 $255 forward 7 unknown #
face $-1 $256 $257 $33 $-1 $258 forward single #
loop $-1 $-1 $259 $92 #
plane-surface $-1 48.384859932624515 -10.585360323405409 181.88560000555211 0 -1 0 -0.6560590369687036 0 -0.75470957328743171 forward_v I I I I #
coedge $-1 $260 $261 $262 $263 reversed $93 $-1 #
coedge $-1 $154 $95 $264 $265 reversed $60 $-1 #
coedge $-1 $95 $153 $260 $266 reversed $60 $-1 #
coedge $-1 $262 $267 $95 $156 forward $268 $-1 #
edge $-1 $269 75.401613186476794 $270 79.133026132610055 $155 $271 forward 7 unknown #
loop $-1 $-1 $162 $96 #
plane-surface $-1 -30.706623883265003 -15.391076841498965 90.901257686055516 0.6560590369687036 0 0.75470957328743171 0.75470957328743171 0 -0.6560590369687036 forward_v I I I I #
loop $-1 $-1 $272 $62 #
coedge $-1 $160 $160 $161 $273 reversed $97 $-1 #
coedge $-1 $161 $161 $160 $273 forward $99 $-1 #
coedge $-1 $162 $162 $100 $163 forward $157 $-1 #
edge $-1 $274 0 $274 6.2831853071796004 $162 $275 forward 7 unknown #
loop $-1 $-1 $169 $101 #
plane-surface $-1 -30.706623883265003 -15.391076841498965 90.901257686055516 0.6560590369687036 0 0.75470957328743171 0.75470957328743171 0 -0.6560590369687036 forward_v I I I I #
loop $-1 $-1 $276 $65 #
coedge $-1 $167 $167 $168 $277 reversed $102 $-1 #
coedge $-1 $168 $168 $167 $277 forward $104 $-1 #
coedge $-1 $169 $169 $105 $170 forward $164 $-1 #
edge $-1 $278 0 $278 6.2831853071796004 $169 $279 forward 7 unknown #
loop $-1 $-1 $176 $106 #
plane-surface $-1 -30.706623883265003 -15.391076841498965 90.901257686055516 0.6560590369687036 0 0.75470957328743171 0.75470957328743171 0 -0.6560590369687036 forward_v I I I I #
loop $-1 $-1 $280 $68 #
coedge $-1 $174 $174 $175 $281 reversed $107 $-1 #
coedge $-1 $175 $175 $174 $281 forward $109 $-1 #
coedge $-1 $176 $176 $110 $177 forward $171 $-1 #
edge $-1 $282 0 $282 6.2831853071796004 $176 $283 forward 7 unknown #
face $-1 $284 $285 $37 $-1 $286 reversed single #
loop $-1 $-1 $287 $111 #
plane-surface $-1 -140.94505198073594 -1.7636143976640994 95.897293139927044 0 1 0 -0.66913061440640931 0 0.74314481823134659 forward_v I I I I #
coedge $-1 $288 $289 $290 $291 reversed $112 $-1 #
coedge $-1 $183 $114 $292 $293 reversed $72 $-1 #
coedge $-1 $114 $182 $288 $294 reversed $72 $-1 #
coedge $-1 $290 $295 $114 $185 forward $285 $-1 #
edge $-1 $296 32.407459753664256 $297 41.641501651423653 $184 $298 forward 7 unknown #
loop $-1 $-1 $191 $115 #
plane-surface $-1 -60.277718436231595 1.9302169104979967 6.3071449185398478 -0.66913061440640931 0 0.74314481823134659 0.74314481823134659 0 0.66913061440640931 forward_v I I I I #
loop $-1 $-1 $299 $74 #
coedge $-1 $189 $189 $190 $300 reversed $116 $-1 #
coedge $-1 $190 $190 $189 $300 forward $118 $-1 #
coedge $-1 $191 $191 $119 $192 forward $186 $-1 #
edge $-1 $301 0 $301 6.2831853071796004 $191 $302 forward 7 unknown #
loop $-1 $-1 $198 $120 #
plane-surface $-1 -60.277718436231595 1.9302169104979967 6.3071449185398478 -0.66913061440640931 0 0.74314481823134659 0.74314481823134659 0 0.66913061440640931 forward_v I I I I #
loop $-1 $-1 $303 $77 #
coedge $-1 $196 $196 $197 $304 reversed $121 $-1 #
coedge $-1 $197 $197 $196 $304 forward $123 $-1 #
coedge $-1 $198 $198 $124 $199 forward $193 $-1 #
edge $-1 $305 0 $305 6.2831853071796004 $198 $306 forward 7 unknown #
face $-1 $307 $308 $30 $-1 $309 reversed single #
loop $-1 $-1 $310 $125 #
plane-surface $-1 -60.277718436231574 0 0 1 0 0 0 0 -1 forward_v I I I I #
coedge $-1 $311 $211 $312 $313 forward $126 $-1 #
coedge $-1 $314 $128 $311 $315 forward $81 $-1 #
coedge $-1 $128 $314 $316 $317 forward $81 $-1 #
coedge $-1 $214 $213 $128 $207 reversed $215 $-1 #
edge $-1 $318 -37.572994651463333 $319 37.572994651463333 $206 $320 forward 7 unknown #
coedge $-1 $130 $129 $321 $322 forward $51 $-1 #
coedge $-1 $323 $324 $129 $210 reversed $308 $-1 #
edge $-1 $217 -60.277718436231574 $325 60.277718436231574 $209 $326 forward 7 unknown #
coedge $-1 $203 $327 $130 $212 reversed $126 $-1 #
edge $-1 $328 -60.277718436231574 $216 60.277718436231574 $211 $329 forward 7 unknown #
coedge $-1 $206 $131 $327 $330 forward $215 $-1 #
coedge $-1 $131 $206 $323 $331 reversed $215 $-1 #
loop $-1 $-1 $213 $307 #
vertex $-1 $132 $332 #
vertex $-1 $132 $333 #
straight-curve $-1 60.277718436231574 0 15.541186816299263 0 1 0 I I #
face $-1 $334 $335 $31 $-1 $336 reversed single #
loop $-1 $-1 $337 $133 #
plane-surface $-1 -60.277718436231574 0 0 1 0 0 0 0 -1 forward_v I I I I #
coedge $-1 $338 $228 $233 $339 reversed $134 $-1 #
coedge $-1 $340 $136 $341 $342 reversed $85 $-1 #
coedge $-1 $136 $340 $338 $343 forward $85 $-1 #
coedge $-1 $233 $232 $136 $226 forward $234 $-1 #
edge $-1 $344 -23.13054764869937 $345 -5.754346356828556 $225 $346 forward 7 unknown #
coedge $-1 $138 $137 $337 $347 reversed $54 $-1 #
coedge $-1 $222 $348 $137 $229 reversed $134 $-1 #
edge $-1 $235 -60.277718436231574 $349 60.277718436231574 $228 $350 forward 7 unknown #
coedge $-1 $351 $352 $138 $231 forward $335 $-1 #
edge $-1 $236 -60.277718436231574 $353 60.277718436231574 $230 $354 forward 7 unknown #
coedge $-1 $225 $139 $352 $355 forward $234 $-1 #
coedge $-1 $139 $225 $222 $339 forward $234 $-1 #
loop $-1 $-1 $139 $334 #
vertex $-1 $140 $356 #
vertex $-1 $355 $357 #
straight-curve $-1 60.277718436231574 -14.442447002763963 7.6896633548593183 0 -1 0 I I #
face $-1 $358 $359 $32 $-1 $360 reversed single #
loop $-1 $-1 $147 $141 #
plane-surface $-1 60.277718436231574 0 0 -1 0 0 0 0 1 forward_v I I I I #
coedge $-1 $361 $249 $362 $363 reversed $142 $-1 #
coedge $-1 $364 $144 $361 $365 forward $89 $-1 #
coedge $-1 $144 $364 $366 $367 reversed $89 $-1 #
coedge $-1 $252 $251 $144 $245 forward $239 $-1 #
edge $-1 $368 5.754346356828556 $369 23.13054764869937 $244 $370 forward 7 unknown #
coedge $-1 $146 $145 $371 $372 reversed $57 $-1 #
coedge $-1 $373 $374 $145 $248 forward $375 $-1 #
edge $-1 $376 -60.277718436231574 $253 60.277718436231574 $247 $377 forward 7 unknown #
coedge $-1 $241 $378 $146 $250 reversed $142 $-1 #
edge $-1 $379 -60.277718436231574 $254 60.277718436231574 $249 $380 forward 7 unknown #
coedge $-1 $244 $147 $378 $381 forward $239 $-1 #
coedge $-1 $147 $244 $373 $382 reversed $239 $-1 #
vertex $-1 $382 $383 #
vertex $-1 $148 $384 #
straight-curve $-1 60.277718436231574 14.442447002763963 7.6896633548593183 0 -1 0 I I #
face $-1 $-1 $268 $33 $-1 $385 reversed single #
loop $-1 $-1 $386 $149 #
plane-surface $-1 0 0 15.541186816299263 0 0 1 1 0 0 forward_v I I I I #
coedge $-1 $387 $388 $389 $390 reversed $150 $-1 #
coedge $-1 $391 $152 $154 $266 forward $93 $-1 #
coedge $-1 $152 $391 $387 $392 forward $93 $-1 #
coedge $-1 $389 $155 $152 $263 forward $268 $-1 #
edge $-1 $270 -12.501254938843037 $393 -2.8898219026559264 $262 $394 forward 7 unknown #
coedge $-1 $395 $396 $153 $265 forward $257 $-1 #
edge $-1 $397 31.792788994037902 $269 36.08528846991932 $264 $398 forward 7 unknown #
edge $-1 $270 -120.55543687246316 $397 -114.86781924071144 $154 $399 forward 7 unknown #
coedge $-1 $155 $389 $395 $400 reversed $268 $-1 #
loop $-1 $-1 $389 $256 #
vertex $-1 $400 $401 #
vertex $-1 $156 $402 #
straight-curve $-1 60.277718436231574 -20.196793359592519 90.942800002776053 0 0 -1 I I #
coedge $-1 $272 $272 $-1 $403 reversed $159 $-1 #
edge $-1 $404 0 $404 6.2831853071796004 $160 $405 forward 7 unknown #
vertex $-1 $163 $406 #
ellipse-curve $-1 58.131468698290853 -18.274506752355101 13.675480343232632 0.6560590369687036 0 0.75470957328743171 0.37735478664371586 0 -0.3280295184843518 1 I I #
coedge $-1 $276 $276 $-1 $407 reversed $166 $-1 #
edge $-1 $408 0 $408 6.2831853071796004 $167 $409 forward 7 unknown #
vertex $-1 $170 $410 #
ellipse-curve $-1 58.131468698290853 -15.391076841498968 13.675480343232632 0.6560590369687036 0 0.75470957328743171 0.37735478664371586 0 -0.3280295184843518 1 I I #
coedge $-1 $280 $280 $-1 $411 reversed $173 $-1 #
edge $-1 $412 0 $412 6.2831853071796004 $174 $413 forward 7 unknown #
vertex $-1 $177 $414 #
ellipse-curve $-1 58.131468698290853 -12.507646930642835 13.675480343232632 0.6560590369687036 0 0.75470957328743171 0.37735478664371586 0 -0.3280295184843518 1 I I #
face $-1 $-1 $415 $37 $-1 $416 forward single #
loop $-1 $-1 $184 $178 #
plane-surface $-1 -60.277718436231574 0 0 1 0 0 0 0 -1 forward_v I I I I #
coedge $-1 $417 $418 $419 $420 reversed $179 $-1 #
coedge $-1 $421 $181 $183 $294 forward $112 $-1 #
coedge $-1 $181 $421 $417 $422 forward $112 $-1 #
coedge $-1 $419 $184 $181 $291 forward $285 $-1 #
edge $-1 $297 -4.6589397634110945 $423 2.7287228529130978 $290 $424 forward 7 unknown #
coedge $-1 $425 $426 $182 $293 forward $415 $-1 #
edge $-1 $427 -20.450249824908269 $296 -10.194807554136396 $292 $428 forward 7 unknown #
edge $-1 $297 2.8915846743243384e-014 $427 13.800058910697132 $183 $429 forward 7 unknown #
coedge $-1 $184 $419 $425 $430 reversed $285 $-1 #
vertex $-1 $430 $431 #
vertex $-1 $185 $432 #
straight-curve $-1 -60.277718436231574 5.6240482186600929 47.948646569963522 0 0 -1 I I #
coedge $-1 $299 $299 $-1 $433 reversed $188 $-1 #
edge $-1 $434 0 $434 6.2831853071796004 $189 $435 forward 7 unknown #
vertex $-1 $192 $436 #
ellipse-curve $-1 -55.149997300845641 0.34714634985709836 10.924165867419564 -0.66913061440640931 0 0.74314481823134659 0.74314481823134659 0 0.66913061440640931 1 I I #
coedge $-1 $303 $303 $-1 $437 reversed $195 $-1 #
edge $-1 $438 0 $438 6.2831853071796004 $196 $439 forward 7 unknown #
vertex $-1 $199 $440 #
ellipse-curve $-1 -55.149997300845641 3.5132874711388951 10.924165867419564 -0.66913061440640931 0 0.74314481823134659 0.74314481823134659 0 0.66913061440640931 1 I I #
face $-1 $-1 $215 $30 $-1 $441 reversed single #
loop $-1 $-1 $323 $200 #
plane-surface $-1 0 37.572994651463333 0 0 -1 0 0 0 -1 forward_v I I I I #
coedge $-1 $442 $321 $324 $443 forward $201 $-1 #
coedge $-1 $327 $203 $204 $315 reversed $126 $-1 #
coedge $-1 $321 $442 $203 $313 reversed $201 $-1 #
edge $-1 $328 -15.541186816299263 $444 15.541186816299263 $312 $445 forward 7 unknown #
coedge $-1 $205 $204 $442 $446 forward $81 $-1 #
edge $-1 $319 -60.277718436231574 $444 60.277718436231574 $311 $447 forward 7 unknown #
coedge $-1 $324 $323 $205 $317 reversed $308 $-1 #
edge $-1 $448 -60.277718436231574 $318 60.277718436231574 $316 $449 forward 7 unknown #
vertex $-1 $207 $450 #
vertex $-1 $330 $451 #
straight-curve $-1 60.277718436231574 0 -15.541186816299263 0 -1 0 I I #
coedge $-1 $310 $312 $208 $322 reversed $201 $-1 #
edge $-1 $325 -37.572994651463333 $328 37.572994651463333 $321 $452 forward 7 unknown #
coedge $-1 $316 $209 $214 $331 forward $308 $-1 #
coedge $-1 $209 $316 $310 $443 reversed $308 $-1 #
vertex $-1 $210 $453 #
straight-curve $-1 0 37.572994651463333 15.541186816299263 -1 0 0 I I #
coedge $-1 $211 $311 $213 $330 reversed $126 $-1 #
vertex $-1 $322 $454 #
straight-curve $-1 0 -37.572994651463333 15.541186816299263 1 0 0 I I #
edge $-1 $216 -15.541186816299263 $319 15.541186816299263 $213 $455 forward 7 unknown #
edge $-1 $217 -15.541186816299263 $318 15.541186816299263 $214 $456 forward 7 unknown #
point $-1 60.277718436231574 -37.572994651463333 15.541186816299263 #
point $-1 60.277718436231574 37.572994651463333 15.541186816299263 #
face $-1 $-1 $234 $31 $-1 $457 reversed single #
loop $-1 $-1 $230 $219 #
plane-surface $-1 0 -37.572994651463333 0 0 1 0 0 0 1 forward_v I I I I #
coedge $-1 $458 $459 $227 $347 forward $220 $-1 #
coedge $-1 $348 $222 $224 $343 reversed $134 $-1 #
edge $-1 $345 -1.4187629754401527 $235 5.5993632283862631 $233 $460 forward 7 unknown #
coedge $-1 $224 $223 $461 $462 reversed $85 $-1 #
coedge $-1 $352 $351 $223 $342 forward $335 $-1 #
edge $-1 $463 -60.277718436231574 $344 60.277718436231574 $341 $464 forward 7 unknown #
edge $-1 $465 -60.277718436231574 $345 60.277718436231574 $338 $466 forward 7 unknown #
vertex $-1 $342 $467 #
vertex $-1 $226 $468 #
straight-curve $-1 60.277718436231574 -14.442447002763963 0.67153715103290246 0 1 0 I I #
edge $-1 $353 -23.13054764869937 $349 -5.754346356828556 $337 $469 forward 7 unknown #
coedge $-1 $228 $338 $458 $470 reversed $134 $-1 #
vertex $-1 $347 $471 #
straight-curve $-1 0 -20.196793359592519 7.6896633548593183 -1 0 0 I I #
coedge $-1 $341 $230 $459 $472 forward $335 $-1 #
coedge $-1 $230 $341 $232 $355 reversed $335 $-1 #
vertex $-1 $472 $473 #
straight-curve $-1 0 -37.572994651463333 7.6896633548593183 -1 0 0 I I #
edge $-1 $236 -7.6896633548593183 $344 -0.67153715103290246 $232 $474 forward 7 unknown #
point $-1 60.277718436231574 -20.196793359592519 7.6896633548593183 #
point $-1 60.277718436231574 -37.572994651463333 7.6896633548593183 #
face $-1 $-1 $375 $32 $-1 $475 reversed single #
loop $-1 $-1 $371 $238 #
plane-surface $-1 -60.277718436231574 0 0 1 0 0 0 0 -1 forward_v I I I I #
coedge $-1 $378 $241 $242 $365 reversed $142 $-1 #
coedge $-1 $371 $476 $241 $363 forward $359 $-1 #
edge $-1 $477 -1.4187629754401527 $379 5.5993632283862631 $362 $478 forward 7 unknown #
coedge $-1 $243 $242 $476 $479 reversed $89 $-1 #
edge $-1 $368 -60.277718436231574 $477 60.277718436231574 $361 $480 forward 7 unknown #
coedge $-1 $374 $373 $243 $367 forward $375 $-1 #
edge $-1 $369 -60.277718436231574 $481 60.277718436231574 $366 $482 forward 7 unknown #
vertex $-1 $245 $483 #
vertex $-1 $367 $484 #
straight-curve $-1 60.277718436231574 14.442447002763963 0.67153715103290246 0 1 0 I I #
coedge $-1 $485 $362 $246 $372 forward $359 $-1 #
edge $-1 $379 5.754346356828556 $376 23.13054764869937 $371 $486 forward 7 unknown #
coedge $-1 $366 $247 $252 $382 forward $375 $-1 #
coedge $-1 $247 $366 $485 $487 reversed $375 $-1 #
loop $-1 $-1 $247 $358 #
vertex $-1 $487 $488 #
straight-curve $-1 0 37.572994651463333 7.6896633548593183 1 0 0 I I #
coedge $-1 $249 $361 $251 $381 reversed $142 $-1 #
vertex $-1 $372 $489 #
straight-curve $-1 0 20.196793359592519 7.6896633548593183 1 0 0 I I #
edge $-1 $254 -5.5993632283862631 $368 1.4187629754401527 $251 $490 forward 7 unknown #
edge $-1 $253 -7.6896633548593183 $369 -0.67153715103290246 $252 $491 forward 7 unknown #
point $-1 60.277718436231574 37.572994651463333 7.6896633548593183 #
point $-1 60.277718436231574 20.196793359592519 7.6896633548593183 #
plane-surface $-1 60.277718436231574 0 0 -1 0 0 0 0 1 forward_v I I I I #
coedge $-1 $396 $395 $388 $492 forward $257 $-1 #
coedge $-1 $388 $259 $261 $392 reversed $150 $-1 #
coedge $-1 $259 $387 $386 $492 reversed $150 $-1 #
coedge $-1 $267 $262 $259 $390 forward $268 $-1 #
edge $-1 $393 -79.133026132610055 $493 -75.401613186476794 $389 $494 forward 7 unknown #
coedge $-1 $261 $260 $396 $495 reversed $93 $-1 #
edge $-1 $496 114.86781924071144 $393 120.55543687246316 $387 $497 forward 7 unknown #
vertex $-1 $263 $498 #
straight-curve $-1 60.277718436231574 -7.6955384207494824 11.809773870166005 0 1 0 I I #
coedge $-1 $386 $264 $267 $400 forward $257 $-1 #
coedge $-1 $264 $386 $391 $495 forward $257 $-1 #
vertex $-1 $265 $499 #
straight-curve $-1 24.192429966312258 -20.196793359592519 15.541186816299259 1 0 0 I I #
straight-curve $-1 -30.706623883265003 -20.196793359592519 90.901257686055516 -0.75470957328743171 0 0.6560590369687036 I I #
edge $-1 $269 -20.196793359592519 $493 -10.585360323405409 $267 $500 forward 7 unknown #
point $-1 60.277718436231574 -20.196793359592519 15.541186816299263 #
point $-1 60.277718436231574 -20.196793359592519 11.809773870165998 #
edge $-1 $501 1 $501 0 $272 $-1 forward 7 unknown #
vertex $-1 $273 $502 #
ellipse-curve $-1 57.117367248876938 -18.274506752355101 12.508890099016767 0.6560590369687036 0 0.75470957328743171 0.37735478664371586 0 -0.3280295184843518 1 I I #
point $-1 58.508823484934581 -18.274506752355101 13.347450824748297 #
edge $-1 $503 1 $503 0 $276 $-1 forward 7 unknown #
vertex $-1 $277 $504 #
ellipse-curve $-1 57.117367248876938 -15.391076841498968 12.508890099016767 0.6560590369687036 0 0.75470957328743171 0.37735478664371586 0 -0.3280295184843518 1 I I #
point $-1 58.508823484934581 -15.391076841498968 13.347450824748297 #
edge $-1 $505 1 $505 0 $280 $-1 forward 7 unknown #
vertex $-1 $281 $506 #
ellipse-curve $-1 57.117367248876938 -12.507646930642835 12.508890099016767 0.6560590369687036 0 0.75470957328743171 0.37735478664371586 0 -0.3280295184843518 1 I I #
point $-1 58.508823484934581 -12.507646930642835 13.347450824748297 #
loop $-1 $-1 $292 $284 #
plane-surface $-1 0 0 15.541186816299263 0 0 1 1 0 0 forward_v I I I I #
coedge $-1 $418 $287 $289 $422 reversed $179 $-1 #
coedge $-1 $287 $417 $507 $508 reversed $179 $-1 #
coedge $-1 $295 $290 $287 $420 forward $285 $-1 #
edge $-1 $423 -41.641501651423653 $509 -32.407459753664256 $419 $510 forward 7 unknown #
coedge $-1 $289 $288 $426 $511 reversed $112 $-1 #
edge $-1 $512 -13.800058910697132 $423 -2.8915846743243384e-014 $417 $513 forward 7 unknown #
vertex $-1 $291 $514 #
straight-curve $-1 -60.277718436231574 0.96510845524899835 6.3071449185398603 0 -1 0 I I #
coedge $-1 $507 $292 $295 $430 forward $415 $-1 #
coedge $-1 $292 $507 $421 $511 forward $415 $-1 #
vertex $-1 $293 $515 #
straight-curve $-1 -70.47252599036797 5.6240482186600929 15.541186816299259 -1 0 0 I I #
straight-curve $-1 -60.277718436231595 5.6240482186600929 6.3071449185398478 0.74314481823134659 0 0.66913061440640931 I I #
edge $-1 $296 -5.6240482186600929 $509 1.7636143976640994 $295 $516 forward 7 unknown #
point $-1 -60.277718436231574 5.6240482186600929 15.541186816299263 #
point $-1 -60.277718436231574 5.6240482186600929 6.3071449185398674 #
edge $-1 $517 1 $517 0 $299 $-1 forward 7 unknown #
vertex $-1 $300 $518 #
ellipse-curve $-1 -54.257196908321198 0.34714634985709836 9.9326105998309959 -0.66913061440640931 0 0.74314481823134659 0.74314481823134659 0 0.66913061440640931 1 I I #
point $-1 -54.406852482614283 0.34714634985709836 11.593296481825968 #
edge $-1 $519 1 $519 0 $303 $-1 forward 7 unknown #
vertex $-1 $304 $520 #
ellipse-curve $-1 -54.257196908321198 3.5132874711388951 9.9326105998309959 -0.66913061440640931 0 0.74314481823134659 0.74314481823134659 0 0.66913061440640931 1 I I #
point $-1 -54.406852482614283 3.5132874711388951 11.593296481825968 #
plane-surface $-1 60.277718436231574 0 0 -1 0 0 0 0 1 forward_v I I I I #
coedge $-1 $312 $310 $314 $446 reversed $201 $-1 #
edge $-1 $325 -15.541186816299263 $448 15.541186816299263 $324 $521 forward 7 unknown #
vertex $-1 $446 $522 #
straight-curve $-1 -60.277718436231574 -37.572994651463333 0 0 0 -1 I I #
edge $-1 $444 -37.572994651463333 $448 37.572994651463333 $442 $523 forward 7 unknown #
straight-curve $-1 0 -37.572994651463333 -15.541186816299263 -1 0 0 I I #
vertex $-1 $317 $524 #
straight-curve $-1 0 37.572994651463333 -15.541186816299263 1 0 0 I I #
point $-1 60.277718436231574 37.572994651463333 -15.541186816299263 #
point $-1 60.277718436231574 -37.572994651463333 -15.541186816299263 #
straight-curve $-1 -60.277718436231574 0 15.541186816299263 0 -1 0 I I #
point $-1 -60.277718436231574 37.572994651463333 15.541186816299263 #
point $-1 -60.277718436231574 -37.572994651463333 15.541186816299263 #
straight-curve $-1 60.277718436231574 -37.572994651463333 0 0 0 -1 I I #
straight-curve $-1 60.277718436231574 37.572994651463333 0 0 0 -1 I I #
plane-surface $-1 60.277718436231574 0 0 -1 0 0 0 0 1 forward_v I I I I #
coedge $-1 $461 $337 $348 $470 forward $220 $-1 #
coedge $-1 $337 $461 $351 $472 reversed $220 $-1 #
straight-curve $-1 60.277718436231574 -20.196793359592519 2.0903001264730552 0 0 1 I I #
coedge $-1 $459 $458 $340 $462 forward $220 $-1 #
edge $-1 $465 5.754346356828556 $463 23.13054764869937 $461 $525 forward 7 unknown #
vertex $-1 $342 $526 #
straight-curve $-1 0 -37.572994651463333 0.67153715103290246 1 0 0 I I #
vertex $-1 $462 $527 #
straight-curve $-1 0 -20.196793359592519 0.67153715103290246 1 0 0 I I #
point $-1 60.277718436231574 -37.572994651463333 0.67153715103290246 #
point $-1 60.277718436231574 -20.196793359592519 0.67153715103290246 #
straight-curve $-1 -60.277718436231574 -14.442447002763963 7.6896633548593183 0 1 0 I I #
edge $-1 $349 -5.5993632283862631 $465 1.4187629754401527 $458 $528 forward 7 unknown #
point $-1 -60.277718436231574 -20.196793359592519 7.6896633548593183 #
edge $-1 $353 -7.6896633548593183 $463 -0.67153715103290246 $459 $529 forward 7 unknown #
point $-1 -60.277718436231574 -37.572994651463333 7.6896633548593183 #
straight-curve $-1 60.277718436231574 -37.572994651463333 0 0 0 -1 I I #
plane-surface $-1 0 37.572994651463333 0 0 -1 0 0 0 -1 forward_v I I I I #
coedge $-1 $362 $485 $364 $479 forward $359 $-1 #
vertex $-1 $479 $530 #
straight-curve $-1 -60.277718436231574 20.196793359592519 2.0903001264730552 0 0 1 I I #
edge $-1 $481 -23.13054764869937 $477 -5.754346356828556 $476 $531 forward 7 unknown #
straight-curve $-1 0 20.196793359592519 0.67153715103290246 -1 0 0 I I #
vertex $-1 $367 $532 #
straight-curve $-1 0 37.572994651463333 0.67153715103290246 -1 0 0 I I #
point $-1 60.277718436231574 20.196793359592519 0.67153715103290246 #
point $-1 60.277718436231574 37.572994651463333 0.67153715103290246 #
coedge $-1 $476 $371 $374 $487 forward $359 $-1 #
straight-curve $-1 -60.277718436231574 14.442447002763963 7.6896633548593183 0 1 0 I I #
edge $-1 $376 -7.6896633548593183 $481 -0.67153715103290246 $374 $533 forward 7 unknown #
point $-1 -60.277718436231574 37.572994651463333 7.6896633548593183 #
point $-1 -60.277718436231574 20.196793359592519 7.6896633548593183 #
straight-curve $-1 60.277718436231574 20.196793359592519 2.0903001264730552 0 0 -1 I I #
straight-curve $-1 60.277718436231574 37.572994651463333 0 0 0 -1 I I #
edge $-1 $493 -36.08528846991932 $496 -31.792788994037902 $386 $534 forward 7 unknown #
vertex $-1 $492 $535 #
straight-curve $-1 60.277718436231574 -10.585360323405409 90.942800002776053 0 0 1 I I #
edge $-1 $496 2.8898219026559264 $397 12.501254938843037 $396 $536 forward 7 unknown #
vertex $-1 $495 $537 #
straight-curve $-1 -30.706623883265003 -10.585360323405409 90.901257686055516 0.75470957328743171 0 -0.6560590369687036 I I #
point $-1 60.277718436231574 -10.585360323405409 11.809773870165998 #
point $-1 55.98521896035016 -20.196793359592519 15.541186816299259 #
straight-curve $-1 60.277718436231574 0 15.541186816299263 0 1 0 I I #
vertex $-1 $403 $538 #
point $-1 57.494722035520653 -18.274506752355101 12.180860580532416 #
vertex $-1 $407 $539 #
point $-1 57.494722035520653 -15.391076841498968 12.180860580532416 #
vertex $-1 $411 $540 #
point $-1 57.494722035520653 -12.507646930642835 12.180860580532416 #
coedge $-1 $426 $425 $418 $508 forward $415 $-1 #
edge $-1 $509 10.194807554136396 $512 20.450249824908269 $507 $541 forward 7 unknown #
vertex $-1 $508 $542 #
straight-curve $-1 -60.277718436231574 -1.7636143976640994 47.948646569963522 0 0 1 I I #
edge $-1 $512 -2.7287228529130978 $427 4.6589397634110945 $426 $543 forward 7 unknown #
vertex $-1 $511 $544 #
straight-curve $-1 -60.277718436231595 -1.7636143976640994 6.3071449185398478 -0.74314481823134659 0 -0.66913061440640931 I I #
point $-1 -60.277718436231574 -1.7636143976640994 6.3071449185398674 #
point $-1 -50.022276165459701 5.6240482186600929 15.541186816299263 #
straight-curve $-1 -60.277718436231574 0 15.541186816299263 0 -1 0 I I #
vertex $-1 $433 $545 #
point $-1 -53.514052090089848 0.34714634985709836 10.601741214237405 #
vertex $-1 $437 $546 #
point $-1 -53.514052090089848 3.5132874711388951 10.601741214237405 #
straight-curve $-1 -60.277718436231574 37.572994651463333 0 0 0 -1 I I #
point $-1 -60.277718436231574 -37.572994651463333 -15.541186816299263 #
straight-curve $-1 -60.277718436231574 0 -15.541186816299263 0 1 0 I I #
point $-1 -60.277718436231574 37.572994651463333 -15.541186816299263 #
straight-curve $-1 -60.277718436231574 -14.442447002763963 0.67153715103290246 0 -1 0 I I #
point $-1 -60.277718436231574 -37.572994651463333 0.67153715103290246 #
point $-1 -60.277718436231574 -20.196793359592519 0.67153715103290246 #
straight-curve $-1 -60.277718436231574 -20.196793359592519 2.0903001264730552 0 0 -1 I I #
straight-curve $-1 -60.277718436231574 -37.572994651463333 0 0 0 -1 I I #
point $-1 -60.277718436231574 20.196793359592519 0.67153715103290246 #
straight-curve $-1 -60.277718436231574 14.442447002763963 0.67153715103290246 0 -1 0 I I #
point $-1 -60.277718436231574 37.572994651463333 0.67153715103290246 #
straight-curve $-1 -60.277718436231574 37.572994651463333 0 0 0 -1 I I #
straight-curve $-1 24.192429966312258 -10.585360323405409 15.541186816299259 -1 0 0 I I #
point $-1 60.277718436231574 -10.585360323405409 15.541186816299263 #
straight-curve $-1 55.985218960350146 -7.6955384207494824 15.541186816299259 0 -1 0 I I #
point $-1 55.98521896035016 -10.585360323405409 15.541186816299259 #
point $-1 56.789337730392582 -18.274506752355101 12.131535312373053 #
point $-1 56.789337730392582 -15.391076841498968 12.131535312373053 #
point $-1 56.789337730392582 -12.507646930642835 12.131535312373053 #
straight-curve $-1 -70.47252599036797 -1.7636143976640994 15.541186816299259 1 0 0 I I #
point $-1 -60.277718436231574 -1.7636143976640994 15.541186816299263 #
straight-curve $-1 -50.022276165459701 0.96510845524899835 15.541186816299263 0 1 0 I I #
point $-1 -50.022276165459701 -1.7636143976640994 15.541186816299263 #
point $-1 -53.588066293914785 0.34714634985709836 9.1894657815996492 #
point $-1 -53.588066293914785 3.5132874711388951 9.1894657815996492 #
End-of-ACIS-data 