500 0 4 0           
7 Unknown 11 ACIS 5.0 NT 24 Fri Mar 26 02:00:47 1999 
-1 9.9999999999999995e-007 1e-010 
body $-1 $4 $-1 $5 #
body $-1 $6 $-1 $7 #
body $-1 $8 $-1 $9 #
body $-1 $10 $-1 $11 #
lump $-1 $-1 $12 $0 #
transform $-1 1 0 0 0 1 0 0 0 1 78.100527970213932 45.519829800395264 21.245828700684378 1 rotate no_reflect no_shear #
lump $-1 $-1 $13 $1 #
transform $-1 1 0 0 0 1 0 0 0 1 78.100527970213932 45.519829800395264 21.245828700684378 1 rotate no_reflect no_shear #
lump $-1 $-1 $14 $2 #
transform $-1 1 0 0 0 1 0 0 0 1 78.100527970213932 45.519829800395264 21.245828700684378 1 rotate no_reflect no_shear #
lump $-1 $-1 $15 $3 #
transform $-1 1 0 0 0 1 0 0 0 1 78.100527970213932 45.519829800395264 21.245828700684378 1 rotate no_reflect no_shear #
shell $-1 $-1 $-1 $16 $-1 $4 #
shell $-1 $-1 $-1 $17 $-1 $6 #
shell $-1 $-1 $-1 $18 $-1 $8 #
shell $-1 $-1 $-1 $19 $-1 $10 #
face $-1 $20 $21 $12 $-1 $22 forward single #
face $-1 $23 $24 $13 $-1 $25 forward single #
face $-1 $26 $27 $14 $-1 $28 reversed single #
face $-1 $29 $30 $15 $-1 $31 forward single #
face $-1 $32 $33 $12 $-1 $34 reversed single #
loop $-1 $-1 $35 $16 #
plane-surface $-1 0 0 21.245828700684378 0 0 1 1 0 0 forward_v I I I I #
face $-1 $36 $37 $13 $-1 $38 reversed single #
loop $-1 $-1 $39 $17 #
plane-surface $-1 0 -45.519829800395264 0 0 1 0 0 0 1 forward_v I I I I #
face $-1 $40 $41 $14 $-1 $42 reversed single #
loop $-1 $-1 $43 $18 #
plane-surface $-1 85.809887112970841 34.083706667140099 223.68156134341726 0 -1 0 -0.73135370988377701 0 -0.68199835119979291 forward_v I I I I #
face $-1 $44 $45 $15 $-1 $46 forward single #
loop $-1 $47 $48 $19 #
cone-surface $-1 68.186173958643423 28.940527465410774 10.805196607143122 -0.73135370988377701 0 -0.68199835119979291 0.68199835119979291 0 -0.73135370988377701 1 I I 0 1 1 forward I I I I #
face $-1 $49 $50 $12 $-1 $51 reversed single #
loop $-1 $-1 $52 $20 #
plane-surface $-1 0 0 -21.245828700684378 0 0 1 1 0 0 forward_v I I I I #
coedge $-1 $53 $54 $55 $56 forward $21 $-1 #
face $-1 $57 $58 $13 $-1 $59 forward single #
loop $-1 $-1 $60 $23 #
plane-surface $-1 -78.100527970213932 0 0 1 0 0 0 0 -1 forward_v I I I I #
coedge $-1 $61 $62 $63 $64 forward $24 $-1 #
face $-1 $65 $66 $14 $-1 $67 reversed single #
loop $-1 $-1 $68 $26 #
plane-surface $-1 -28.428334636824459 28.940527465410774 117.15269873637884 0.73135370988377701 0 0.68199835119979291 0.68199835119979291 0 -0.73135370988377701 forward_v I I I I #
coedge $-1 $69 $70 $71 $72 reversed $27 $-1 #
face $-1 $-1 $73 $15 $-1 $74 forward single #
loop $-1 $75 $76 $29 #
cone-surface $-1 66.453273895820416 28.940527465410774 9.1892411950524107 -0.73135370988377701 0 -0.68199835119979291 0.34099917559989645 0 -0.36567685494188851 1 I I -0.70710678118654746 0.70710678118654746 0.5 forward I I I I #
loop $-1 $-1 $77 $19 #
coedge $-1 $48 $48 $78 $79 reversed $30 $-1 #
face $-1 $80 $81 $12 $-1 $82 reversed single #
loop $-1 $-1 $83 $32 #
plane-surface $-1 0 -45.519829800395264 0 0 1 0 0 0 1 forward_v I I I I #
coedge $-1 $84 $85 $86 $87 forward $33 $-1 #
coedge $-1 $88 $35 $89 $90 forward $21 $-1 #
coedge $-1 $35 $88 $91 $92 forward $21 $-1 #
coedge $-1 $93 $94 $35 $56 reversed $95 $-1 #
edge $-1 $96 -45.519829800395264 $97 45.519829800395264 $55 $98 forward 7 unknown #
face $-1 $99 $100 $13 $-1 $101 reversed single #
loop $-1 $-1 $102 $36 #
plane-surface $-1 0 -56.925663345033612 17.633162453713304 0 0 1 1 0 0 forward_v I I I I #
coedge $-1 $103 $104 $62 $105 forward $37 $-1 #
coedge $-1 $106 $39 $107 $108 reversed $24 $-1 #
coedge $-1 $39 $106 $60 $105 reversed $24 $-1 #
coedge $-1 $109 $102 $39 $64 reversed $58 $-1 #
edge $-1 $110 -78.100527970213932 $111 78.100527970213932 $63 $112 forward 7 unknown #
face $-1 $113 $114 $14 $-1 $115 reversed single #
loop $-1 $-1 $116 $40 #
plane-surface $-1 85.809887112970841 23.79734826368145 223.68156134341726 0 1 0 0.73135370988377701 0 0.68199835119979291 forward_v I I I I #
coedge $-1 $117 $118 $119 $120 reversed $41 $-1 #
coedge $-1 $70 $43 $121 $122 reversed $27 $-1 #
coedge $-1 $43 $69 $117 $123 reversed $27 $-1 #
coedge $-1 $119 $124 $43 $72 forward $125 $-1 #
edge $-1 $126 -35.195584413728511 $127 -18.101322806349771 $71 $128 forward 7 unknown #
loop $-1 $-1 $78 $44 #
plane-surface $-1 -28.428334636824459 28.940527465410774 117.15269873637884 0.73135370988377701 0 0.68199835119979291 0.68199835119979291 0 -0.73135370988377701 forward_v I I I I #
loop $-1 $-1 $129 $29 #
coedge $-1 $76 $76 $77 $130 reversed $45 $-1 #
coedge $-1 $77 $77 $76 $130 forward $47 $-1 #
coedge $-1 $78 $78 $48 $79 forward $73 $-1 #
edge $-1 $131 0 $131 6.2831853071796004 $78 $132 forward 7 unknown #
face $-1 $133 $134 $12 $-1 $135 reversed single #
loop $-1 $-1 $136 $49 #
plane-surface $-1 -78.100527970213932 0 0 1 0 0 0 0 -1 forward_v I I I I #
coedge $-1 $137 $91 $138 $139 forward $50 $-1 #
coedge $-1 $140 $52 $137 $141 forward $33 $-1 #
coedge $-1 $52 $140 $142 $143 forward $33 $-1 #
coedge $-1 $94 $93 $52 $87 reversed $95 $-1 #
edge $-1 $144 -45.519829800395264 $145 45.519829800395264 $86 $146 forward 7 unknown #
coedge $-1 $54 $53 $147 $148 forward $21 $-1 #
coedge $-1 $149 $150 $53 $90 reversed $134 $-1 #
edge $-1 $97 -78.100527970213932 $151 78.100527970213932 $89 $152 forward 7 unknown #
coedge $-1 $83 $153 $54 $92 reversed $50 $-1 #
edge $-1 $154 -78.100527970213932 $96 78.100527970213932 $91 $155 forward 7 unknown #
coedge $-1 $86 $55 $153 $156 forward $95 $-1 #
coedge $-1 $55 $86 $149 $157 reversed $95 $-1 #
loop $-1 $-1 $93 $133 #
vertex $-1 $56 $158 #
vertex $-1 $56 $159 #
straight-curve $-1 78.100527970213932 0 21.245828700684378 0 1 0 I I #
face $-1 $160 $161 $13 $-1 $162 reversed single #
loop $-1 $-1 $163 $57 #
plane-surface $-1 0 -56.925663345033612 9.5232171971313786 0 0 1 1 0 0 forward_v I I I I #
coedge $-1 $63 $164 $165 $166 forward $58 $-1 #
coedge $-1 $167 $60 $168 $169 reversed $37 $-1 #
coedge $-1 $60 $167 $109 $170 reversed $37 $-1 #
edge $-1 $110 -17.633162453713304 $171 -9.5232171971313786 $60 $172 forward 7 unknown #
coedge $-1 $62 $61 $173 $174 forward $24 $-1 #
coedge $-1 $165 $175 $61 $108 forward $176 $-1 #
edge $-1 $177 9.5232171971313786 $111 17.633162453713304 $107 $178 forward 7 unknown #
coedge $-1 $164 $63 $104 $170 forward $58 $-1 #
vertex $-1 $105 $179 #
vertex $-1 $166 $180 #
straight-curve $-1 0 -45.519829800395264 17.633162453713304 1 0 0 I I #
face $-1 $-1 $125 $14 $-1 $181 forward single #
loop $-1 $-1 $182 $65 #
plane-surface $-1 78.100527970213932 0 0 -1 0 0 0 0 1 forward_v I I I I #
coedge $-1 $183 $184 $185 $186 reversed $66 $-1 #
coedge $-1 $187 $68 $70 $123 forward $41 $-1 #
coedge $-1 $68 $187 $183 $188 forward $41 $-1 #
coedge $-1 $185 $71 $68 $120 forward $125 $-1 #
edge $-1 $127 -19.613442934434712 $189 -9.3270845309760624 $119 $190 forward 7 unknown #
coedge $-1 $191 $192 $69 $122 forward $114 $-1 #
edge $-1 $193 -108.92630368512505 $126 -90.594951971024244 $121 $194 forward 7 unknown #
edge $-1 $127 131.13609562592563 $193 156.20105594042781 $70 $195 forward 7 unknown #
coedge $-1 $71 $185 $191 $196 forward $125 $-1 #
loop $-1 $-1 $185 $113 #
vertex $-1 $122 $197 #
vertex $-1 $72 $198 #
straight-curve $-1 42.904943556485421 34.083706667140099 21.24582870068437 -1 0 0 I I #
coedge $-1 $129 $129 $-1 $199 reversed $75 $-1 #
edge $-1 $200 0 $200 6.2831853071796004 $76 $201 forward 7 unknown #
vertex $-1 $79 $202 #
ellipse-curve $-1 69.553397166524576 28.940527465410774 12.080152843633968 0.73135370988377701 0 0.68199835119979291 0.68199835119979291 0 -0.73135370988377701 1 I I #
face $-1 $-1 $95 $12 $-1 $203 reversed single #
loop $-1 $-1 $149 $80 #
plane-surface $-1 0 45.519829800395264 0 0 -1 0 0 0 -1 forward_v I I I I #
coedge $-1 $204 $147 $150 $205 forward $81 $-1 #
coedge $-1 $153 $83 $84 $141 reversed $50 $-1 #
coedge $-1 $147 $204 $83 $139 reversed $81 $-1 #
edge $-1 $154 -21.245828700684378 $206 21.245828700684378 $138 $207 forward 7 unknown #
coedge $-1 $85 $84 $204 $208 forward $33 $-1 #
edge $-1 $145 -78.100527970213932 $206 78.100527970213932 $137 $209 forward 7 unknown #
coedge $-1 $150 $149 $85 $143 reversed $134 $-1 #
edge $-1 $210 -78.100527970213932 $144 78.100527970213932 $142 $211 forward 7 unknown #
vertex $-1 $87 $212 #
vertex $-1 $156 $213 #
straight-curve $-1 78.100527970213932 0 -21.245828700684378 0 -1 0 I I #
coedge $-1 $136 $138 $88 $148 reversed $81 $-1 #
edge $-1 $151 -45.519829800395264 $154 45.519829800395264 $147 $214 forward 7 unknown #
coedge $-1 $142 $89 $94 $157 forward $134 $-1 #
coedge $-1 $89 $142 $136 $205 reversed $134 $-1 #
vertex $-1 $90 $215 #
straight-curve $-1 0 45.519829800395264 21.245828700684378 -1 0 0 I I #
coedge $-1 $91 $137 $93 $156 reversed $50 $-1 #
vertex $-1 $148 $216 #
straight-curve $-1 0 -45.519829800395264 21.245828700684378 1 0 0 I I #
edge $-1 $96 -21.245828700684378 $145 21.245828700684378 $93 $217 forward 7 unknown #
edge $-1 $97 -21.245828700684378 $144 21.245828700684378 $94 $218 forward 7 unknown #
point $-1 78.100527970213932 -45.519829800395264 21.245828700684378 #
point $-1 78.100527970213932 45.519829800395264 21.245828700684378 #
face $-1 $-1 $176 $13 $-1 $219 reversed single #
loop $-1 $-1 $220 $99 #
plane-surface $-1 0 -68.331496889671968 13.578189825422342 0 1 0 0 0 1 forward_v I I I I #
coedge $-1 $221 $173 $175 $222 forward $100 $-1 #
coedge $-1 $102 $109 $223 $224 forward $58 $-1 #
coedge $-1 $225 $107 $102 $166 reversed $176 $-1 #
edge $-1 $226 -11.405833544638355 $111 11.405833544638355 $165 $227 forward 7 unknown #
coedge $-1 $104 $103 $220 $228 reversed $37 $-1 #
coedge $-1 $173 $221 $103 $169 forward $100 $-1 #
edge $-1 $229 -11.405833544638355 $171 11.405833544638355 $103 $230 forward 7 unknown #
edge $-1 $110 -11.405833544638355 $231 11.405833544638355 $104 $232 forward 7 unknown #
vertex $-1 $105 $233 #
straight-curve $-1 -78.100527970213932 -45.519829800395264 0 0 0 -1 I I #
coedge $-1 $163 $168 $106 $174 reversed $100 $-1 #
edge $-1 $177 -78.100527970213932 $171 78.100527970213932 $173 $234 forward 7 unknown #
coedge $-1 $107 $225 $163 $222 reversed $176 $-1 #
loop $-1 $-1 $107 $160 #
vertex $-1 $108 $235 #
straight-curve $-1 78.100527970213932 -45.519829800395264 0 0 0 1 I I #
point $-1 -78.100527970213932 -45.519829800395257 17.633162453713304 #
point $-1 78.100527970213932 -45.519829800395257 17.633162453713304 #
plane-surface $-1 0 0 21.245828700684378 0 0 1 1 0 0 forward_v I I I I #
coedge $-1 $192 $191 $184 $236 forward $114 $-1 #
coedge $-1 $184 $116 $118 $188 reversed $66 $-1 #
coedge $-1 $116 $183 $182 $236 reversed $66 $-1 #
coedge $-1 $124 $119 $116 $186 forward $125 $-1 #
edge $-1 $189 18.101322806349771 $237 35.195584413728511 $185 $238 forward 7 unknown #
coedge $-1 $118 $117 $192 $239 reversed $41 $-1 #
edge $-1 $240 -156.20105594042781 $189 -131.13609562592563 $183 $241 forward 7 unknown #
vertex $-1 $120 $242 #
straight-curve $-1 61.006266362835198 14.470263732705387 21.24582870068437 0 -1 0 I I #
coedge $-1 $182 $121 $124 $196 reversed $114 $-1 #
coedge $-1 $121 $182 $187 $239 forward $114 $-1 #
vertex $-1 $122 $243 #
straight-curve $-1 78.100527970213932 34.083706667140099 111.84078067170863 0 0 1 I I #
straight-curve $-1 -28.428334636824459 34.083706667140099 117.15269873637884 0.68199835119979291 0 -0.73135370988377701 I I #
edge $-1 $237 23.79734826368145 $126 34.083706667140099 $191 $244 forward 7 unknown #
point $-1 78.100527970213932 34.083706667140099 21.245828700684378 #
point $-1 61.006266362835191 34.083706667140099 21.245828700684385 #
edge $-1 $245 1 $245 0 $129 $-1 forward 7 unknown #
vertex $-1 $130 $246 #
ellipse-curve $-1 66.818950750762298 28.940527465410774 9.530240370652308 0.73135370988377701 0 0.68199835119979291 0.68199835119979291 0 -0.73135370988377701 1 I I #
point $-1 70.235395517724342 28.940527465410774 11.348799133750159 #
plane-surface $-1 78.100527970213932 0 0 -1 0 0 0 0 1 forward_v I I I I #
coedge $-1 $138 $136 $140 $208 reversed $81 $-1 #
edge $-1 $151 -21.245828700684378 $210 21.245828700684378 $150 $247 forward 7 unknown #
vertex $-1 $208 $248 #
straight-curve $-1 -78.100527970213932 -45.519829800395264 0 0 0 -1 I I #
edge $-1 $206 -45.519829800395264 $210 45.519829800395264 $204 $249 forward 7 unknown #
straight-curve $-1 0 -45.519829800395264 -21.245828700684378 -1 0 0 I I #
vertex $-1 $143 $250 #
straight-curve $-1 0 45.519829800395264 -21.245828700684378 1 0 0 I I #
point $-1 78.100527970213932 45.519829800395264 -21.245828700684378 #
point $-1 78.100527970213932 -45.519829800395264 -21.245828700684378 #
straight-curve $-1 -78.100527970213932 0 21.245828700684378 0 -1 0 I I #
point $-1 -78.100527970213932 45.519829800395264 21.245828700684378 #
point $-1 -78.100527970213932 -45.519829800395264 21.245828700684378 #
straight-curve $-1 78.100527970213932 -45.519829800395264 0 0 0 -1 I I #
straight-curve $-1 78.100527970213932 45.519829800395264 0 0 0 -1 I I #
plane-surface $-1 78.100527970213932 0 0 -1 0 0 0 0 1 forward_v I I I I #
coedge $-1 $251 $223 $167 $228 forward $161 $-1 #
coedge $-1 $168 $163 $251 $252 forward $100 $-1 #
edge $-1 $177 -11.405833544638355 $253 11.405833544638355 $175 $254 forward 7 unknown #
coedge $-1 $220 $255 $164 $224 reversed $161 $-1 #
edge $-1 $231 -78.100527970213932 $226 78.100527970213932 $223 $256 forward 7 unknown #
coedge $-1 $175 $165 $255 $257 forward $176 $-1 #
vertex $-1 $166 $258 #
straight-curve $-1 78.100527970213932 -56.925663345033612 17.633162453713304 0 1 0 I I #
edge $-1 $231 -4.0549726282909617 $229 4.0549726282909635 $167 $259 forward 7 unknown #
vertex $-1 $169 $260 #
straight-curve $-1 -78.100527970213932 -56.925663345033612 9.5232171971313786 0 1 0 I I #
vertex $-1 $170 $261 #
straight-curve $-1 -78.100527970213932 -56.925663345033612 17.633162453713304 0 -1 0 I I #
point $-1 -78.100527970213932 -45.519829800395257 9.5232171971313786 #
straight-curve $-1 0 -45.519829800395264 9.5232171971313786 -1 0 0 I I #
point $-1 78.100527970213932 -45.519829800395257 9.5232171971313786 #
edge $-1 $237 90.594951971024244 $240 108.92630368512505 $182 $262 forward 7 unknown #
vertex $-1 $196 $263 #
straight-curve $-1 42.904943556485421 23.79734826368145 21.24582870068437 1 0 0 I I #
edge $-1 $240 9.3270845309760624 $193 19.613442934434712 $192 $264 forward 7 unknown #
vertex $-1 $239 $265 #
straight-curve $-1 -28.428334636824459 23.79734826368145 117.15269873637884 -0.68199835119979291 0 0.73135370988377701 I I #
point $-1 61.006266362835191 23.79734826368145 21.245828700684385 #
point $-1 78.100527970213918 34.083706667140099 2.9144769865835798 #
straight-curve $-1 78.100527970213932 0 21.245828700684378 0 1 0 I I #
vertex $-1 $199 $266 #
point $-1 67.500949101962092 28.940527465410774 8.798886660768531 #
straight-curve $-1 -78.100527970213932 45.519829800395264 0 0 0 -1 I I #
point $-1 -78.100527970213932 -45.519829800395264 -21.245828700684378 #
straight-curve $-1 -78.100527970213932 0 -21.245828700684378 0 1 0 I I #
point $-1 -78.100527970213932 45.519829800395264 -21.245828700684378 #
coedge $-1 $255 $220 $221 $252 reversed $161 $-1 #
edge $-1 $253 -78.100527970213932 $229 78.100527970213932 $251 $267 forward 7 unknown #
vertex $-1 $257 $268 #
straight-curve $-1 78.100527970213932 -56.925663345033612 9.5232171971313786 0 -1 0 I I #
coedge $-1 $223 $251 $225 $257 reversed $161 $-1 #
straight-curve $-1 0 -68.331496889671968 17.633162453713304 1 0 0 I I #
edge $-1 $226 -4.0549726282909617 $253 4.0549726282909635 $225 $269 forward 7 unknown #
point $-1 78.100527970213932 -68.331496889671968 17.633162453713304 #
straight-curve $-1 -78.100527970213932 -68.331496889671968 13.578189825422342 0 0 -1 I I #
point $-1 -78.100527970213932 -68.331496889671968 9.5232171971313786 #
point $-1 -78.100527970213932 -68.331496889671968 17.633162453713304 #
straight-curve $-1 78.100527970213932 23.79734826368145 111.84078067170863 0 0 -1 I I #
point $-1 78.100527970213932 23.79734826368145 21.245828700684378 #
straight-curve $-1 78.100527970213932 14.470263732705387 2.9144769865835656 0 1 0 I I #
point $-1 78.100527970213918 23.79734826368145 2.9144769865835798 #
point $-1 66.087597040878535 28.940527465410774 8.8482420194525133 #
straight-curve $-1 0 -68.331496889671968 9.5232171971313786 -1 0 0 I I #
point $-1 78.100527970213932 -68.331496889671968 9.5232171971313786 #
straight-curve $-1 78.100527970213932 -68.331496889671968 13.578189825422342 0 0 -1 I I #
End-of-ACIS-data 