500 0 10 0           
7 Unknown 11 ACIS 5.0 NT 24 Thu Mar 25 22:11:07 1999 
-1 9.9999999999999995e-007 1e-010 
body $-1 $10 $-1 $11 #
body $-1 $12 $-1 $13 #
body $-1 $14 $-1 $15 #
body $-1 $16 $-1 $17 #
body $-1 $18 $-1 $19 #
body $-1 $20 $-1 $21 #
body $-1 $22 $-1 $23 #
body $-1 $24 $-1 $25 #
body $-1 $26 $-1 $27 #
body $-1 $28 $-1 $29 #
lump $-1 $-1 $30 $0 #
transform $-1 1 0 0 0 1 0 0 0 1 47.41355632190924 27.687305889643241 12.984059564849879 1 rotate no_reflect no_shear #
lump $-1 $-1 $31 $1 #
transform $-1 1 0 0 0 1 0 0 0 1 47.41355632190924 27.687305889643241 12.984059564849879 1 rotate no_reflect no_shear #
lump $-1 $-1 $32 $2 #
transform $-1 1 0 0 0 1 0 0 0 1 47.41355632190924 27.687305889643241 12.984059564849879 1 rotate no_reflect no_shear #
lump $-1 $-1 $33 $3 #
transform $-1 1 0 0 0 1 0 0 0 1 47.41355632190924 27.687305889643241 12.984059564849879 1 rotate no_reflect no_shear #
lump $-1 $-1 $34 $4 #
transform $-1 1 0 0 0 1 0 0 0 1 47.41355632190924 27.687305889643241 12.984059564849879 1 rotate no_reflect no_shear #
lump $-1 $-1 $35 $5 #
transform $-1 1 0 0 0 1 0 0 0 1 47.41355632190924 27.687305889643241 12.984059564849879 1 rotate no_reflect no_shear #
lump $-1 $-1 $36 $6 #
transform $-1 1 0 0 0 1 0 0 0 1 47.41355632190924 27.687305889643241 12.984059564849879 1 rotate no_reflect no_shear #
lump $-1 $-1 $37 $7 #
transform $-1 1 0 0 0 1 0 0 0 1 47.41355632190924 27.687305889643241 12.984059564849879 1 rotate no_reflect no_shear #
lump $-1 $-1 $38 $8 #
transform $-1 1 0 0 0 1 0 0 0 1 47.41355632190924 27.687305889643241 12.984059564849879 1 rotate no_reflect no_shear #
lump $-1 $-1 $39 $9 #
transform $-1 1 0 0 0 1 0 0 0 1 47.41355632190924 27.687305889643241 12.984059564849879 1 rotate no_reflect no_shear #
shell $-1 $-1 $-1 $40 $-1 $10 #
shell $-1 $-1 $-1 $41 $-1 $12 #
shell $-1 $-1 $-1 $42 $-1 $14 #
shell $-1 $-1 $-1 $43 $-1 $16 #
shell $-1 $-1 $-1 $44 $-1 $18 #
shell $-1 $-1 $-1 $45 $-1 $20 #
shell $-1 $-1 $-1 $46 $-1 $22 #
shell $-1 $-1 $-1 $47 $-1 $24 #
shell $-1 $-1 $-1 $48 $-1 $26 #
shell $-1 $-1 $-1 $49 $-1 $28 #
face $-1 $50 $51 $30 $-1 $52 forward single #
face $-1 $53 $54 $31 $-1 $55 forward single #
face $-1 $56 $57 $32 $-1 $58 reversed single #
face $-1 $59 $60 $33 $-1 $61 forward single #
face $-1 $62 $63 $34 $-1 $64 forward single #
face $-1 $65 $66 $35 $-1 $67 forward single #
face $-1 $68 $69 $36 $-1 $70 reversed single #
face $-1 $71 $72 $37 $-1 $73 forward single #
face $-1 $74 $75 $38 $-1 $76 reversed single #
face $-1 $77 $78 $39 $-1 $79 forward single #
face $-1 $80 $81 $30 $-1 $82 reversed single #
loop $-1 $-1 $83 $40 #
plane-surface $-1 0 0 12.984059564849879 0 0 1 1 0 0 forward_v I I I I #
face $-1 $84 $85 $31 $-1 $86 reversed single #
loop $-1 $-1 $87 $41 #
plane-surface $-1 -47.41355632190924 0 0 1 0 0 0 0 -1 forward_v I I I I #
face $-1 $88 $89 $32 $-1 $90 reversed single #
loop $-1 $-1 $91 $42 #
plane-surface $-1 22.273798040092657 75.337456657338876 104.18850443158473 1 0 0 0 -0.82903758062907751 -0.55919289150049634 forward_v I I I I #
face $-1 $92 $93 $33 $-1 $94 forward single #
loop $-1 $95 $96 $43 #
cone-surface $-1 26.795144285213809 24.57095651905658 8.7755269745998721 0 -0.82903758062907751 -0.55919289150049634 0.5 0 0 1 I I 0 1 0.5 forward I I I I #
face $-1 $97 $98 $34 $-1 $99 forward single #
loop $-1 $100 $101 $44 #
cone-surface $-1 33.57716365289555 24.57095651905658 8.7755269745998721 0 -0.82903758062907751 -0.55919289150049634 0.5 0 0 1 I I 0 1 0.5 forward I I I I #
face $-1 $102 $103 $35 $-1 $104 forward single #
loop $-1 $105 $106 $45 #
cone-surface $-1 40.359183020577291 24.57095651905658 8.7755269745998721 0 -0.82903758062907751 -0.55919289150049634 0.5 0 0 1 I I 0 1 0.5 forward I I I I #
face $-1 $107 $108 $36 $-1 $109 reversed single #
loop $-1 $-1 $110 $46 #
plane-surface $-1 0.74813851794593589 -105.36512983715707 61.863634504937245 -1 0 0 0 -0.81915205242281985 0.57357642473473569 forward_v I I I I #
face $-1 $111 $112 $37 $-1 $113 forward single #
loop $-1 $114 $115 $47 #
cone-surface $-1 -7.1098124387265571 -24.331510327771962 9.2297965160283475 0 0.81915205242281985 -0.57357642473473569 1.5 0 0 1 I I 0 1 1.5 forward I I I I #
face $-1 $116 $117 $38 $-1 $118 reversed single #
loop $-1 $-1 $119 $48 #
plane-surface $-1 42.4972656142332 -105.36512983715707 61.863634504937245 -1 0 0 0 -0.81915205242281985 0.57357642473473569 forward_v I I I I #
face $-1 $120 $121 $39 $-1 $122 forward single #
loop $-1 $123 $124 $49 #
cone-surface $-1 34.639314657560718 -24.331510327771962 9.2297965160283475 0 0.81915205242281985 -0.57357642473473569 1.5 0 0 1 I I 0 1 1.5 forward I I I I #
face $-1 $125 $126 $30 $-1 $127 reversed single #
loop $-1 $-1 $128 $50 #
plane-surface $-1 0 0 -12.984059564849879 0 0 1 1 0 0 forward_v I I I I #
coedge $-1 $129 $130 $131 $132 forward $51 $-1 #
face $-1 $133 $134 $31 $-1 $135 reversed single #
loop $-1 $-1 $136 $53 #
plane-surface $-1 0 27.687305889643241 0 0 -1 0 0 0 -1 forward_v I I I I #
coedge $-1 $137 $138 $139 $140 forward $54 $-1 #
face $-1 $141 $142 $32 $-1 $143 reversed single #
loop $-1 $-1 $144 $56 #
plane-surface $-1 33.57716365289555 -3.2777833869334074 51.161857119644601 0 0.82903758062907751 0.55919289150049634 1 0 0 forward_v I I I I #
coedge $-1 $145 $146 $147 $148 reversed $57 $-1 #
face $-1 $-1 $149 $33 $-1 $150 forward single #
loop $-1 $151 $152 $59 #
cone-surface $-1 26.795144285213809 23.854267990119247 8.2921144729644212 0 -0.82903758062907751 -0.55919289150049634 0.25 0 0 1 I I -0.70710678118654746 0.70710678118654746 0.25 forward I I I I #
loop $-1 $-1 $153 $43 #
coedge $-1 $96 $96 $154 $155 reversed $60 $-1 #
face $-1 $-1 $156 $34 $-1 $157 forward single #
loop $-1 $158 $159 $62 #
cone-surface $-1 33.57716365289555 23.854267990119247 8.2921144729644212 0 -0.82903758062907751 -0.55919289150049634 0.25 0 0 1 I I -0.70710678118654746 0.70710678118654746 0.25 forward I I I I #
loop $-1 $-1 $160 $44 #
coedge $-1 $101 $101 $161 $162 reversed $63 $-1 #
face $-1 $-1 $163 $35 $-1 $164 forward single #
loop $-1 $165 $166 $65 #
cone-surface $-1 40.359183020577291 23.854267990119247 8.2921144729644212 0 -0.82903758062907751 -0.55919289150049634 0.25 0 0 1 I I -0.70710678118654746 0.70710678118654746 0.25 forward I I I I #
loop $-1 $-1 $167 $45 #
coedge $-1 $106 $106 $168 $169 reversed $66 $-1 #
face $-1 $170 $171 $36 $-1 $172 reversed single #
loop $-1 $-1 $173 $68 #
plane-surface $-1 -7.10981243872655 -27.687305889643227 7.4730382667777917 0 -0.81915205242281985 0.57357642473473569 1 0 0 forward_v I I I I #
coedge $-1 $174 $175 $176 $177 reversed $69 $-1 #
face $-1 $-1 $178 $37 $-1 $179 forward single #
loop $-1 $180 $181 $71 #
cone-surface $-1 -7.1098124387265571 -22.290779996421719 7.8008617976918018 0 0.81915205242281985 -0.57357642473473569 0.75 0 0 1 I I -0.70710678118654757 0.70710678118654757 0.75 forward I I I I #
loop $-1 $-1 $182 $47 #
coedge $-1 $115 $115 $183 $184 reversed $72 $-1 #
face $-1 $185 $186 $38 $-1 $187 reversed single #
loop $-1 $-1 $188 $74 #
plane-surface $-1 34.639314657560718 -27.687305889643227 7.4730382667777917 0 -0.81915205242281985 0.57357642473473569 1 0 0 forward_v I I I I #
coedge $-1 $189 $190 $191 $192 reversed $75 $-1 #
face $-1 $-1 $193 $39 $-1 $194 forward single #
loop $-1 $195 $196 $77 #
cone-surface $-1 34.639314657560718 -22.290779996421719 7.8008617976918018 0 0.81915205242281985 -0.57357642473473569 0.75 0 0 1 I I -0.70710678118654757 0.70710678118654757 0.75 forward I I I I #
loop $-1 $-1 $197 $49 #
coedge $-1 $124 $124 $198 $199 reversed $78 $-1 #
face $-1 $200 $201 $30 $-1 $202 reversed single #
loop $-1 $-1 $203 $80 #
plane-surface $-1 0 -27.687305889643241 0 0 1 0 0 0 1 forward_v I I I I #
coedge $-1 $204 $205 $206 $207 forward $81 $-1 #
coedge $-1 $208 $83 $209 $210 forward $51 $-1 #
coedge $-1 $83 $208 $211 $212 forward $51 $-1 #
coedge $-1 $213 $214 $83 $132 reversed $215 $-1 #
edge $-1 $216 -27.687305889643241 $217 27.687305889643241 $131 $218 forward 7 unknown #
face $-1 $219 $220 $31 $-1 $221 reversed single #
loop $-1 $-1 $139 $84 #
plane-surface $-1 -53.077985547531213 0 8.7321733396003225 0 0 1 1 0 0 forward_v I I I I #
coedge $-1 $222 $223 $137 $224 forward $85 $-1 #
coedge $-1 $225 $87 $136 $224 reversed $54 $-1 #
coedge $-1 $87 $225 $226 $227 reversed $54 $-1 #
coedge $-1 $228 $229 $87 $140 reversed $134 $-1 #
edge $-1 $230 -27.687305889643241 $231 27.687305889643241 $139 $232 forward 7 unknown #
face $-1 $233 $234 $32 $-1 $235 forward single #
loop $-1 $-1 $236 $88 #
plane-surface $-1 44.880529265698442 75.337456657338876 104.18850443158473 -1 0 0 0 0.82903758062907751 0.55919289150049634 forward_v I I I I #
coedge $-1 $237 $238 $239 $240 reversed $89 $-1 #
coedge $-1 $146 $91 $241 $242 reversed $57 $-1 #
coedge $-1 $91 $145 $237 $243 reversed $57 $-1 #
coedge $-1 $239 $244 $91 $148 forward $234 $-1 #
edge $-1 $245 9.981422439026197 $246 15.195262912639404 $147 $247 forward 7 unknown #
loop $-1 $-1 $154 $92 #
plane-surface $-1 33.57716365289555 -3.2777833869334074 51.161857119644601 0 0.82903758062907751 0.55919289150049634 1 0 0 forward_v I I I I #
loop $-1 $-1 $248 $59 #
coedge $-1 $152 $152 $153 $249 reversed $93 $-1 #
coedge $-1 $153 $153 $152 $249 forward $95 $-1 #
coedge $-1 $154 $154 $96 $155 forward $149 $-1 #
edge $-1 $250 0 $250 6.2831853071796004 $154 $251 forward 7 unknown #
loop $-1 $-1 $161 $97 #
plane-surface $-1 33.57716365289555 -3.2777833869334074 51.161857119644601 0 0.82903758062907751 0.55919289150049634 1 0 0 forward_v I I I I #
loop $-1 $-1 $252 $62 #
coedge $-1 $159 $159 $160 $253 reversed $98 $-1 #
coedge $-1 $160 $160 $159 $253 forward $100 $-1 #
coedge $-1 $161 $161 $101 $162 forward $156 $-1 #
edge $-1 $254 0 $254 6.2831853071796004 $161 $255 forward 7 unknown #
loop $-1 $-1 $168 $102 #
plane-surface $-1 33.57716365289555 -3.2777833869334074 51.161857119644601 0 0.82903758062907751 0.55919289150049634 1 0 0 forward_v I I I I #
loop $-1 $-1 $256 $65 #
coedge $-1 $166 $166 $167 $257 reversed $103 $-1 #
coedge $-1 $167 $167 $166 $257 forward $105 $-1 #
coedge $-1 $168 $168 $106 $169 forward $163 $-1 #
edge $-1 $258 0 $258 6.2831853071796004 $168 $259 forward 7 unknown #
face $-1 $260 $261 $36 $-1 $262 reversed single #
loop $-1 $-1 $263 $107 #
plane-surface $-1 -14.967763395399036 -105.36512983715707 61.863634504937245 1 0 0 0 0.81915205242281985 -0.57357642473473569 forward_v I I I I #
coedge $-1 $264 $265 $266 $267 reversed $108 $-1 #
coedge $-1 $175 $110 $268 $269 reversed $69 $-1 #
coedge $-1 $110 $174 $264 $270 reversed $69 $-1 #
coedge $-1 $266 $271 $110 $177 forward $272 $-1 #
edge $-1 $273 24.995259028935294 $274 28.854117568611613 $176 $275 forward 7 unknown #
loop $-1 $-1 $183 $111 #
plane-surface $-1 -7.10981243872655 -27.687305889643227 7.4730382667777917 0 -0.81915205242281985 0.57357642473473569 1 0 0 forward_v I I I I #
loop $-1 $-1 $276 $71 #
coedge $-1 $181 $181 $182 $277 reversed $112 $-1 #
coedge $-1 $182 $182 $181 $277 forward $114 $-1 #
coedge $-1 $183 $183 $115 $184 forward $178 $-1 #
edge $-1 $278 -5.8365299054678847e-016 $278 6.2831853071795996 $183 $279 forward 7 unknown #
face $-1 $280 $281 $38 $-1 $282 reversed single #
loop $-1 $-1 $283 $116 #
plane-surface $-1 26.781363700888232 -105.36512983715707 61.863634504937245 1 0 0 0 0.81915205242281985 -0.57357642473473569 forward_v I I I I #
coedge $-1 $284 $285 $286 $287 reversed $117 $-1 #
coedge $-1 $190 $119 $288 $289 reversed $75 $-1 #
coedge $-1 $119 $189 $284 $290 reversed $75 $-1 #
coedge $-1 $286 $291 $119 $192 forward $292 $-1 #
edge $-1 $293 24.995259028935294 $294 28.854117568611613 $191 $295 forward 7 unknown #
loop $-1 $-1 $198 $120 #
plane-surface $-1 34.639314657560718 -27.687305889643227 7.4730382667777917 0 -0.81915205242281985 0.57357642473473569 1 0 0 forward_v I I I I #
loop $-1 $-1 $296 $77 #
coedge $-1 $196 $196 $197 $297 reversed $121 $-1 #
coedge $-1 $197 $197 $196 $297 forward $123 $-1 #
coedge $-1 $198 $198 $124 $199 forward $193 $-1 #
edge $-1 $298 -5.8365299054678847e-016 $298 6.2831853071795996 $198 $299 forward 7 unknown #
face $-1 $300 $301 $30 $-1 $302 reversed single #
loop $-1 $-1 $303 $125 #
plane-surface $-1 -47.41355632190924 0 0 1 0 0 0 0 -1 forward_v I I I I #
coedge $-1 $304 $211 $305 $306 forward $126 $-1 #
coedge $-1 $307 $128 $304 $308 forward $81 $-1 #
coedge $-1 $128 $307 $309 $310 forward $81 $-1 #
coedge $-1 $214 $213 $128 $207 reversed $215 $-1 #
edge $-1 $311 -27.687305889643241 $312 27.687305889643241 $206 $313 forward 7 unknown #
coedge $-1 $130 $129 $314 $315 forward $51 $-1 #
coedge $-1 $316 $317 $129 $210 reversed $301 $-1 #
edge $-1 $217 -47.41355632190924 $318 47.41355632190924 $209 $319 forward 7 unknown #
coedge $-1 $203 $320 $130 $212 reversed $126 $-1 #
edge $-1 $321 -47.41355632190924 $216 47.41355632190924 $211 $322 forward 7 unknown #
coedge $-1 $206 $131 $320 $323 forward $215 $-1 #
coedge $-1 $131 $206 $316 $324 reversed $215 $-1 #
loop $-1 $-1 $213 $300 #
vertex $-1 $132 $325 #
vertex $-1 $132 $326 #
straight-curve $-1 47.41355632190924 0 12.984059564849879 0 1 0 I I #
face $-1 $327 $328 $31 $-1 $329 forward single #
loop $-1 $-1 $330 $133 #
plane-surface $-1 -58.742414773153186 0 10.858116452225101 1 0 0 0 0 -1 forward_v I I I I #
coedge $-1 $331 $136 $229 $332 reversed $85 $-1 #
coedge $-1 $136 $331 $333 $334 reversed $85 $-1 #
edge $-1 $335 -12.984059564849879 $231 -8.7321733396003225 $136 $336 forward 7 unknown #
coedge $-1 $138 $137 $337 $338 reversed $54 $-1 #
coedge $-1 $339 $340 $138 $227 forward $341 $-1 #
edge $-1 $230 8.7321733396003225 $342 12.984059564849879 $226 $343 forward 7 unknown #
coedge $-1 $344 $139 $340 $345 forward $134 $-1 #
coedge $-1 $139 $344 $222 $332 forward $134 $-1 #
vertex $-1 $227 $346 #
vertex $-1 $224 $347 #
straight-curve $-1 -47.41355632190924 0 8.7321733396003225 0 1 0 I I #
face $-1 $-1 $348 $32 $-1 $349 reversed single #
loop $-1 $-1 $147 $141 #
plane-surface $-1 0 0 12.984059564849879 0 0 1 1 0 0 forward_v I I I I #
coedge $-1 $350 $351 $352 $353 reversed $142 $-1 #
coedge $-1 $354 $144 $146 $243 forward $89 $-1 #
coedge $-1 $144 $354 $350 $355 forward $89 $-1 #
coedge $-1 $352 $147 $144 $240 forward $234 $-1 #
edge $-1 $246 5.4852162136448825 $356 28.091947439250667 $239 $357 forward 7 unknown #
coedge $-1 $358 $359 $145 $242 forward $348 $-1 #
edge $-1 $360 -46.840029273921843 $245 -39.110192650942487 $241 $361 forward 7 unknown #
edge $-1 $246 46.050744196451546 $360 55.374611779286482 $146 $362 forward 7 unknown #
coedge $-1 $147 $352 $358 $363 forward $234 $-1 #
vertex $-1 $242 $364 #
vertex $-1 $148 $365 #
straight-curve $-1 22.273798040092657 37.668728328669438 12.984059564849879 0 -1 0 I I #
coedge $-1 $248 $248 $-1 $366 reversed $151 $-1 #
edge $-1 $367 0 $367 6.2831853071796004 $152 $368 forward 7 unknown #
vertex $-1 $155 $369 #
ellipse-curve $-1 26.795144285213809 25.080385652836643 9.1191412533601994 0 0.82903758062907751 0.55919289150049634 0.5 0 0 1 I I #
coedge $-1 $252 $252 $-1 $370 reversed $158 $-1 #
edge $-1 $371 0 $371 6.2831853071796004 $159 $372 forward 7 unknown #
vertex $-1 $162 $373 #
ellipse-curve $-1 33.57716365289555 25.080385652836643 9.1191412533601994 0 0.82903758062907751 0.55919289150049634 0.5 0 0 1 I I #
coedge $-1 $256 $256 $-1 $374 reversed $165 $-1 #
edge $-1 $375 0 $375 6.2831853071796004 $166 $376 forward 7 unknown #
vertex $-1 $169 $377 #
ellipse-curve $-1 40.359183020577291 25.080385652836643 9.1191412533601994 0 0.82903758062907751 0.55919289150049634 0.5 0 0 1 I I #
face $-1 $-1 $272 $36 $-1 $378 forward single #
loop $-1 $-1 $379 $170 #
plane-surface $-1 0 -27.687305889643241 0 0 1 0 0 0 1 forward_v I I I I #
coedge $-1 $380 $381 $382 $383 reversed $171 $-1 #
coedge $-1 $384 $173 $175 $270 forward $108 $-1 #
coedge $-1 $173 $384 $380 $385 forward $108 $-1 #
coedge $-1 $382 $176 $173 $267 forward $272 $-1 #
edge $-1 $274 -4.3030447373092109 $386 11.412857176035761 $266 $387 forward 7 unknown #
coedge $-1 $388 $389 $174 $269 forward $261 $-1 #
edge $-1 $390 -23.458778985690852 $273 -17.947757687618743 $268 $391 forward 7 unknown #
edge $-1 $274 -6.7277146920062609 $390 2.4884734274515653e-014 $175 $392 forward 7 unknown #
coedge $-1 $176 $382 $388 $393 forward $272 $-1 #
loop $-1 $-1 $382 $260 #
vertex $-1 $269 $394 #
vertex $-1 $177 $395 #
straight-curve $-1 0.74813851794593589 -52.682564918578535 12.984059564849879 0 1 0 I I #
coedge $-1 $276 $276 $-1 $396 reversed $180 $-1 #
edge $-1 $397 0 $397 6.2831853071796004 $181 $398 forward 7 unknown #
vertex $-1 $184 $399 #
ellipse-curve $-1 -7.1098124387265571 -25.757876619805078 10.228548915813832 0 -0.81915205242281985 0.57357642473473569 1.5 0 0 1 I I #
face $-1 $-1 $292 $38 $-1 $400 forward single #
loop $-1 $-1 $401 $185 #
plane-surface $-1 0 -27.687305889643241 0 0 1 0 0 0 1 forward_v I I I I #
coedge $-1 $402 $403 $404 $405 reversed $186 $-1 #
coedge $-1 $406 $188 $190 $290 forward $117 $-1 #
coedge $-1 $188 $406 $402 $407 forward $117 $-1 #
coedge $-1 $404 $191 $188 $287 forward $292 $-1 #
edge $-1 $294 -25.177608285452841 $408 -9.4617063721078729 $286 $409 forward 7 unknown #
coedge $-1 $410 $411 $189 $289 forward $281 $-1 #
edge $-1 $412 -23.458778985690852 $293 -17.947757687618743 $288 $413 forward 7 unknown #
edge $-1 $294 -6.7277146920062609 $412 2.4884734274515653e-014 $190 $414 forward 7 unknown #
coedge $-1 $191 $404 $410 $415 forward $292 $-1 #
loop $-1 $-1 $404 $280 #
vertex $-1 $289 $416 #
vertex $-1 $192 $417 #
straight-curve $-1 42.4972656142332 -52.682564918578535 12.984059564849879 0 1 0 I I #
coedge $-1 $296 $296 $-1 $418 reversed $195 $-1 #
edge $-1 $419 0 $419 6.2831853071796004 $196 $420 forward 7 unknown #
vertex $-1 $199 $421 #
ellipse-curve $-1 34.639314657560718 -25.757876619805078 10.228548915813832 0 -0.81915205242281985 0.57357642473473569 1.5 0 0 1 I I #
face $-1 $-1 $215 $30 $-1 $422 reversed single #
loop $-1 $-1 $316 $200 #
plane-surface $-1 0 27.687305889643241 0 0 -1 0 0 0 -1 forward_v I I I I #
coedge $-1 $423 $314 $317 $424 forward $201 $-1 #
coedge $-1 $320 $203 $204 $308 reversed $126 $-1 #
coedge $-1 $314 $423 $203 $306 reversed $201 $-1 #
edge $-1 $321 -12.984059564849879 $425 12.984059564849879 $305 $426 forward 7 unknown #
coedge $-1 $205 $204 $423 $427 forward $81 $-1 #
edge $-1 $312 -47.41355632190924 $425 47.41355632190924 $304 $428 forward 7 unknown #
coedge $-1 $317 $316 $205 $310 reversed $301 $-1 #
edge $-1 $429 -47.41355632190924 $311 47.41355632190924 $309 $430 forward 7 unknown #
vertex $-1 $207 $431 #
vertex $-1 $323 $432 #
straight-curve $-1 47.41355632190924 0 -12.984059564849879 0 -1 0 I I #
coedge $-1 $303 $305 $208 $315 reversed $201 $-1 #
edge $-1 $318 -27.687305889643241 $321 27.687305889643241 $314 $433 forward 7 unknown #
coedge $-1 $309 $209 $214 $324 forward $301 $-1 #
coedge $-1 $209 $309 $303 $424 reversed $301 $-1 #
vertex $-1 $210 $434 #
straight-curve $-1 0 27.687305889643241 12.984059564849879 -1 0 0 I I #
coedge $-1 $211 $304 $213 $323 reversed $126 $-1 #
vertex $-1 $315 $435 #
straight-curve $-1 0 -27.687305889643241 12.984059564849879 1 0 0 I I #
edge $-1 $216 -12.984059564849879 $312 12.984059564849879 $213 $436 forward 7 unknown #
edge $-1 $217 -12.984059564849879 $311 12.984059564849879 $214 $437 forward 7 unknown #
point $-1 47.41355632190924 -27.687305889643241 12.984059564849879 #
point $-1 47.41355632190924 27.687305889643241 12.984059564849879 #
face $-1 $-1 $341 $31 $-1 $438 reversed single #
loop $-1 $-1 $337 $219 #
plane-surface $-1 0 0 12.984059564849879 0 0 1 1 0 0 forward_v I I I I #
coedge $-1 $439 $440 $331 $441 forward $220 $-1 #
coedge $-1 $223 $222 $330 $441 reversed $85 $-1 #
edge $-1 $442 -5.6644292256219728 $231 5.6644292256219728 $222 $443 forward 7 unknown #
coedge $-1 $444 $337 $223 $334 forward $328 $-1 #
edge $-1 $335 47.41355632190924 $445 58.742414773153186 $223 $446 forward 7 unknown #
vertex $-1 $334 $447 #
straight-curve $-1 -47.41355632190924 27.687305889643241 0 0 0 -1 I I #
coedge $-1 $333 $448 $225 $338 forward $328 $-1 #
edge $-1 $342 -27.687305889643241 $335 27.687305889643241 $337 $449 forward 7 unknown #
coedge $-1 $450 $226 $448 $451 reversed $341 $-1 #
coedge $-1 $226 $450 $228 $345 reversed $341 $-1 #
loop $-1 $-1 $226 $327 #
vertex $-1 $227 $452 #
straight-curve $-1 -47.41355632190924 -27.687305889643241 0 0 0 1 I I #
coedge $-1 $229 $228 $439 $453 forward $134 $-1 #
edge $-1 $230 -5.6644292256219728 $454 5.6644292256219728 $340 $455 forward 7 unknown #
point $-1 -47.41355632190924 -27.687305889643241 8.7321733396003225 #
point $-1 -47.41355632190924 27.687305889643241 8.7321733396003225 #
loop $-1 $-1 $241 $233 #
plane-surface $-1 0 27.687305889643241 0 0 -1 0 0 0 -1 forward_v I I I I #
coedge $-1 $351 $236 $238 $355 reversed $142 $-1 #
coedge $-1 $236 $350 $456 $457 reversed $142 $-1 #
coedge $-1 $244 $239 $236 $353 forward $234 $-1 #
edge $-1 $356 -15.195262912639404 $458 -9.981422439026197 $352 $459 forward 7 unknown #
coedge $-1 $238 $237 $359 $460 reversed $89 $-1 #
edge $-1 $461 -55.374611779286482 $356 -46.050744196451546 $350 $462 forward 7 unknown #
vertex $-1 $240 $463 #
straight-curve $-1 16.788581826447775 22.473465416030034 12.984059564849879 1 0 0 I I #
coedge $-1 $456 $241 $244 $363 reversed $348 $-1 #
coedge $-1 $241 $456 $354 $460 forward $348 $-1 #
vertex $-1 $242 $464 #
straight-curve $-1 22.273798040092657 27.687305889643241 52.094252215792366 0 0 1 I I #
straight-curve $-1 22.273798040092657 -3.2777833869334074 51.161857119644601 0 0.55919289150049634 -0.82903758062907751 I I #
edge $-1 $458 -44.880529265698442 $245 -22.273798040092657 $358 $465 forward 7 unknown #
point $-1 22.273798040092657 27.687305889643241 12.984059564849879 #
point $-1 22.273798040092657 22.473465416030034 12.984059564849879 #
edge $-1 $466 1 $466 0 $248 $-1 forward 7 unknown #
vertex $-1 $249 $467 #
ellipse-curve $-1 26.795144285213809 24.061527385276516 8.4319126958395447 0 0.82903758062907751 0.55919289150049634 0.5 0 0 1 I I #
point $-1 27.295144285213809 25.080385652836643 9.1191412533601994 #
edge $-1 $468 1 $468 0 $252 $-1 forward 7 unknown #
vertex $-1 $253 $469 #
ellipse-curve $-1 33.57716365289555 24.061527385276516 8.4319126958395447 0 0.82903758062907751 0.55919289150049634 0.5 0 0 1 I I #
point $-1 34.07716365289555 25.080385652836643 9.1191412533601994 #
edge $-1 $470 1 $470 0 $256 $-1 forward 7 unknown #
vertex $-1 $257 $471 #
ellipse-curve $-1 40.359183020577291 24.061527385276516 8.4319126958395447 0 0.82903758062907751 0.55919289150049634 0.5 0 0 1 I I #
point $-1 40.859183020577291 25.080385652836643 9.1191412533601994 #
plane-surface $-1 0 0 12.984059564849879 0 0 1 1 0 0 forward_v I I I I #
coedge $-1 $389 $388 $381 $472 forward $261 $-1 #
coedge $-1 $381 $263 $265 $385 reversed $171 $-1 #
coedge $-1 $263 $380 $379 $472 reversed $171 $-1 #
coedge $-1 $271 $266 $263 $383 forward $272 $-1 #
edge $-1 $386 -28.854117568611613 $473 -24.995259028935294 $382 $474 forward 7 unknown #
coedge $-1 $265 $264 $389 $475 reversed $108 $-1 #
edge $-1 $476 -2.4884734274515653e-014 $386 6.7277146920062609 $380 $477 forward 7 unknown #
vertex $-1 $267 $478 #
straight-curve $-1 -3.554906219363275 -23.828447349966922 12.984059564849879 -1 0 0 I I #
coedge $-1 $379 $268 $271 $393 reversed $261 $-1 #
coedge $-1 $268 $379 $384 $475 forward $261 $-1 #
vertex $-1 $269 $479 #
straight-curve $-1 0.74813851794593589 -27.687305889643241 30.931817252468623 0 0 1 I I #
straight-curve $-1 0.74813851794593589 -27.687305889643227 7.4730382667777917 0 -0.57357642473473569 -0.81915205242281985 I I #
edge $-1 $473 -14.967763395399036 $273 0.74813851794593589 $388 $480 forward 7 unknown #
point $-1 0.74813851794593589 -27.687305889643241 12.984059564849879 #
point $-1 0.74813851794593589 -23.828447349966922 12.984059564849879 #
edge $-1 $481 1 $481 0 $276 $-1 forward 7 unknown #
vertex $-1 $277 $482 #
ellipse-curve $-1 -7.1098124387265571 -22.905144035738832 8.2310441162428543 0 -0.81915205242281985 0.57357642473473569 1.5 0 0 1 I I #
point $-1 -5.6098124387265571 -25.757876619805092 10.228548915813841 #
plane-surface $-1 0 0 12.984059564849879 0 0 1 1 0 0 forward_v I I I I #
coedge $-1 $411 $410 $403 $483 forward $281 $-1 #
coedge $-1 $403 $283 $285 $407 reversed $186 $-1 #
coedge $-1 $283 $402 $401 $483 reversed $186 $-1 #
coedge $-1 $291 $286 $283 $405 forward $292 $-1 #
edge $-1 $408 -28.854117568611613 $484 -24.995259028935294 $404 $485 forward 7 unknown #
coedge $-1 $285 $284 $411 $486 reversed $117 $-1 #
edge $-1 $487 -2.4884734274515653e-014 $408 6.7277146920062609 $402 $488 forward 7 unknown #
vertex $-1 $287 $489 #
straight-curve $-1 17.319657328780359 -23.828447349966922 12.984059564849879 -1 0 0 I I #
coedge $-1 $401 $288 $291 $415 reversed $281 $-1 #
coedge $-1 $288 $401 $406 $486 forward $281 $-1 #
vertex $-1 $289 $490 #
straight-curve $-1 42.4972656142332 -27.687305889643241 30.931817252468623 0 0 1 I I #
straight-curve $-1 42.4972656142332 -27.687305889643227 7.4730382667777917 0 -0.57357642473473569 -0.81915205242281985 I I #
edge $-1 $484 26.781363700888232 $293 42.4972656142332 $410 $491 forward 7 unknown #
point $-1 42.4972656142332 -27.687305889643241 12.984059564849879 #
point $-1 42.4972656142332 -23.828447349966922 12.984059564849879 #
edge $-1 $492 1 $492 0 $296 $-1 forward 7 unknown #
vertex $-1 $297 $493 #
ellipse-curve $-1 34.639314657560718 -22.905144035738832 8.2310441162428543 0 -0.81915205242281985 0.57357642473473569 1.5 0 0 1 I I #
point $-1 36.139314657560718 -25.757876619805092 10.228548915813841 #
plane-surface $-1 47.41355632190924 0 0 -1 0 0 0 0 1 forward_v I I I I #
coedge $-1 $305 $303 $307 $427 reversed $201 $-1 #
edge $-1 $318 -12.984059564849879 $429 12.984059564849879 $317 $494 forward 7 unknown #
vertex $-1 $427 $495 #
straight-curve $-1 -47.41355632190924 -27.687305889643241 0 0 0 -1 I I #
edge $-1 $425 -27.687305889643241 $429 27.687305889643241 $423 $496 forward 7 unknown #
straight-curve $-1 0 -27.687305889643241 -12.984059564849879 -1 0 0 I I #
vertex $-1 $310 $497 #
straight-curve $-1 0 27.687305889643241 -12.984059564849879 1 0 0 I I #
point $-1 47.41355632190924 27.687305889643241 -12.984059564849879 #
point $-1 47.41355632190924 -27.687305889643241 -12.984059564849879 #
straight-curve $-1 -47.41355632190924 0 12.984059564849879 0 -1 0 I I #
point $-1 -47.41355632190924 27.687305889643241 12.984059564849879 #
point $-1 -47.41355632190924 -27.687305889643241 12.984059564849879 #
straight-curve $-1 47.41355632190924 -27.687305889643241 0 0 0 -1 I I #
straight-curve $-1 47.41355632190924 27.687305889643241 0 0 0 -1 I I #
plane-surface $-1 0 -27.687305889643241 0 0 1 0 0 0 1 forward_v I I I I #
coedge $-1 $498 $330 $344 $453 reversed $220 $-1 #
coedge $-1 $330 $498 $444 $499 reversed $220 $-1 #
edge $-1 $445 -2.1259431126247783 $442 2.1259431126247783 $331 $500 forward 7 unknown #
vertex $-1 $332 $501 #
straight-curve $-1 -53.077985547531213 27.687305889643241 8.7321733396003225 1 0 0 I I #
coedge $-1 $448 $333 $440 $499 forward $328 $-1 #
vertex $-1 $334 $502 #
straight-curve $-1 0 27.687305889643241 12.984059564849879 -1 0 0 I I #
point $-1 -47.41355632190924 27.687305889643241 12.984059564849879 #
coedge $-1 $337 $444 $339 $451 forward $328 $-1 #
straight-curve $-1 -47.41355632190924 0 12.984059564849879 0 1 0 I I #
coedge $-1 $340 $339 $498 $503 forward $341 $-1 #
edge $-1 $504 -58.742414773153186 $342 -47.41355632190924 $339 $505 forward 7 unknown #
point $-1 -47.41355632190924 -27.687305889643241 12.984059564849879 #
edge $-1 $454 -27.687305889643241 $442 27.687305889643241 $439 $506 forward 7 unknown #
vertex $-1 $453 $507 #
straight-curve $-1 -53.077985547531213 -27.687305889643241 8.7321733396003225 -1 0 0 I I #
coedge $-1 $359 $358 $351 $457 forward $348 $-1 #
edge $-1 $458 39.110192650942487 $461 46.840029273921843 $456 $508 forward 7 unknown #
vertex $-1 $363 $509 #
straight-curve $-1 44.880529265698442 37.668728328669438 12.984059564849879 0 1 0 I I #
edge $-1 $461 -28.091947439250667 $360 -5.4852162136448825 $359 $510 forward 7 unknown #
vertex $-1 $460 $511 #
straight-curve $-1 44.880529265698442 -3.2777833869334074 51.161857119644601 0 -0.55919289150049634 0.82903758062907751 I I #
point $-1 44.880529265698442 22.473465416030034 12.984059564849879 #
point $-1 22.273798040092657 27.687305889643241 5.2542229418705233 #
straight-curve $-1 0 27.687305889643241 12.984059564849879 -1 0 0 I I #
vertex $-1 $366 $512 #
point $-1 27.295144285213809 24.061527385276516 8.4319126958395447 #
vertex $-1 $370 $513 #
point $-1 34.07716365289555 24.061527385276516 8.4319126958395447 #
vertex $-1 $374 $514 #
point $-1 40.859183020577291 24.061527385276516 8.4319126958395447 #
edge $-1 $473 17.947757687618743 $476 23.458778985690852 $379 $515 forward 7 unknown #
vertex $-1 $393 $516 #
straight-curve $-1 -14.967763395399036 -52.682564918578535 12.984059564849879 0 -1 0 I I #
edge $-1 $476 -11.412857176035761 $390 4.3030447373092109 $389 $517 forward 7 unknown #
vertex $-1 $475 $518 #
straight-curve $-1 -14.967763395399036 -27.687305889643227 7.4730382667777917 0 0.57357642473473569 0.81915205242281985 I I #
point $-1 -14.967763395399036 -23.828447349966922 12.984059564849879 #
point $-1 0.74813851794593589 -27.687305889643241 7.4730382667777713 #
straight-curve $-1 0 -27.687305889643241 12.984059564849879 1 0 0 I I #
vertex $-1 $396 $519 #
point $-1 -5.6098124387265571 -22.905144035738832 8.2310441162428543 #
edge $-1 $484 17.947757687618743 $487 23.458778985690852 $401 $520 forward 7 unknown #
vertex $-1 $415 $521 #
straight-curve $-1 26.781363700888232 -52.682564918578535 12.984059564849879 0 -1 0 I I #
edge $-1 $487 9.4617063721078729 $412 25.177608285452841 $411 $522 forward 7 unknown #
vertex $-1 $486 $523 #
straight-curve $-1 26.781363700888232 -27.687305889643227 7.4730382667777917 0 0.57357642473473569 0.81915205242281985 I I #
point $-1 26.781363700888232 -23.828447349966922 12.984059564849879 #
point $-1 42.4972656142332 -27.687305889643241 7.4730382667777713 #
straight-curve $-1 0 -27.687305889643241 12.984059564849879 1 0 0 I I #
vertex $-1 $418 $524 #
point $-1 36.139314657560718 -22.905144035738832 8.2310441162428543 #
straight-curve $-1 -47.41355632190924 27.687305889643241 0 0 0 -1 I I #
point $-1 -47.41355632190924 -27.687305889643241 -12.984059564849879 #
straight-curve $-1 -47.41355632190924 0 -12.984059564849879 0 1 0 I I #
point $-1 -47.41355632190924 27.687305889643241 -12.984059564849879 #
coedge $-1 $440 $439 $450 $503 reversed $220 $-1 #
edge $-1 $445 -27.687305889643241 $504 27.687305889643241 $440 $525 forward 7 unknown #
straight-curve $-1 -58.742414773153186 27.687305889643241 10.858116452225101 0 0 -1 I I #
point $-1 -58.742414773153186 27.687305889643241 8.7321733396003225 #
point $-1 -58.742414773153186 27.687305889643241 12.984059564849879 #
edge $-1 $504 -2.1259431126247783 $454 2.1259431126247783 $498 $526 forward 7 unknown #
vertex $-1 $499 $527 #
straight-curve $-1 0 -27.687305889643241 12.984059564849879 1 0 0 I I #
straight-curve $-1 -58.742414773153186 0 8.7321733396003225 0 1 0 I I #
point $-1 -58.742414773153186 -27.687305889643241 8.7321733396003225 #
straight-curve $-1 44.880529265698442 27.687305889643241 52.094252215792366 0 0 -1 I I #
point $-1 44.880529265698442 27.687305889643241 12.984059564849879 #
straight-curve $-1 16.788581826447775 27.687305889643245 5.2542229418705197 -1 0 0 I I #
point $-1 44.880529265698442 27.687305889643241 5.2542229418705233 #
point $-1 26.795144285213809 23.647008594961978 8.1523162500892976 #
point $-1 33.57716365289555 23.647008594961978 8.1523162500892976 #
point $-1 40.359183020577291 23.647008594961978 8.1523162500892976 #
straight-curve $-1 -14.967763395399036 -27.687305889643241 30.931817252468623 0 0 -1 I I #
point $-1 -14.967763395399036 -27.687305889643241 12.984059564849879 #
straight-curve $-1 -3.554906219363275 -27.687305889643241 7.4730382667777739 1 0 0 I I #
point $-1 -14.967763395399036 -27.687305889643241 7.4730382667777713 #
point $-1 -7.1098124387265571 -21.676415957104606 7.3706794791407502 #
straight-curve $-1 26.781363700888232 -27.687305889643241 30.931817252468623 0 0 -1 I I #
point $-1 26.781363700888232 -27.687305889643241 12.984059564849879 #
straight-curve $-1 17.319657328780359 -27.687305889643241 7.4730382667777739 1 0 0 I I #
point $-1 26.781363700888232 -27.687305889643241 7.4730382667777713 #
point $-1 34.639314657560718 -21.676415957104606 7.3706794791407502 #
straight-curve $-1 -58.742414773153186 0 12.984059564849879 0 -1 0 I I #
straight-curve $-1 -58.742414773153186 -27.687305889643241 10.858116452225101 0 0 -1 I I #
point $-1 -58.742414773153186 -27.687305889643241 12.984059564849879 #
End-of-ACIS-data 