500 0 10 0           
7 Unknown 11 ACIS 5.0 NT 24 Fri Mar 26 16:35:51 1999 
-1 9.9999999999999995e-007 1e-010 
body $-1 $10 $-1 $11 #
body $-1 $12 $-1 $13 #
body $-1 $14 $-1 $15 #
body $-1 $16 $-1 $17 #
body $-1 $18 $-1 $19 #
body $-1 $20 $-1 $21 #
body $-1 $22 $-1 $23 #
body $-1 $24 $-1 $25 #
body $-1 $26 $-1 $27 #
body $-1 $28 $-1 $29 #
lump $-1 $-1 $30 $0 #
transform $-1 1 0 0 0 1 0 0 0 1 61.276284066286202 37.532869402874553 13.534604475977833 1 rotate no_reflect no_shear #
lump $-1 $-1 $31 $1 #
transform $-1 1 0 0 0 1 0 0 0 1 61.276284066286202 37.532869402874553 13.534604475977833 1 rotate no_reflect no_shear #
lump $-1 $-1 $32 $2 #
transform $-1 1 0 0 0 1 0 0 0 1 61.276284066286202 37.532869402874553 13.534604475977833 1 rotate no_reflect no_shear #
lump $-1 $-1 $33 $3 #
transform $-1 1 0 0 0 1 0 0 0 1 61.276284066286202 37.532869402874553 13.534604475977833 1 rotate no_reflect no_shear #
lump $-1 $-1 $34 $4 #
transform $-1 1 0 0 0 1 0 0 0 1 61.276284066286202 37.532869402874553 13.534604475977833 1 rotate no_reflect no_shear #
lump $-1 $-1 $35 $5 #
transform $-1 1 0 0 0 1 0 0 0 1 61.276284066286202 37.532869402874553 13.534604475977833 1 rotate no_reflect no_shear #
lump $-1 $-1 $36 $6 #
transform $-1 1 0 0 0 1 0 0 0 1 61.276284066286202 37.532869402874553 13.534604475977833 1 rotate no_reflect no_shear #
lump $-1 $-1 $37 $7 #
transform $-1 1 0 0 0 1 0 0 0 1 61.276284066286202 37.532869402874553 13.534604475977833 1 rotate no_reflect no_shear #
lump $-1 $-1 $38 $8 #
transform $-1 1 0 0 0 1 0 0 0 1 61.276284066286202 37.532869402874553 13.534604475977833 1 rotate no_reflect no_shear #
lump $-1 $-1 $39 $9 #
transform $-1 1 0 0 0 1 0 0 0 1 61.276284066286202 37.532869402874553 13.534604475977833 1 rotate no_reflect no_shear #
shell $-1 $-1 $-1 $40 $-1 $10 #
shell $-1 $-1 $-1 $41 $-1 $12 #
shell $-1 $-1 $-1 $42 $-1 $14 #
shell $-1 $-1 $-1 $43 $-1 $16 #
shell $-1 $-1 $-1 $44 $-1 $18 #
shell $-1 $-1 $-1 $45 $-1 $20 #
shell $-1 $-1 $-1 $46 $-1 $22 #
shell $-1 $-1 $-1 $47 $-1 $24 #
shell $-1 $-1 $-1 $48 $-1 $26 #
shell $-1 $-1 $-1 $49 $-1 $28 #
face $-1 $50 $51 $30 $-1 $52 forward single #
face $-1 $53 $54 $31 $-1 $55 reversed single #
face $-1 $56 $57 $32 $-1 $58 reversed single #
face $-1 $59 $60 $33 $-1 $61 forward single #
face $-1 $62 $63 $34 $-1 $64 forward single #
face $-1 $65 $66 $35 $-1 $67 reversed single #
face $-1 $68 $69 $36 $-1 $70 forward single #
face $-1 $71 $72 $37 $-1 $73 forward single #
face $-1 $74 $75 $38 $-1 $76 reversed single #
face $-1 $77 $78 $39 $-1 $79 forward single #
face $-1 $80 $81 $30 $-1 $82 reversed single #
loop $-1 $-1 $83 $40 #
plane-surface $-1 0 0 13.534604475977833 0 0 1 1 0 0 forward_v I I I I #
face $-1 $84 $85 $31 $-1 $86 reversed single #
loop $-1 $-1 $87 $41 #
plane-surface $-1 0 -31.641072305887043 6.8694509756490412 0 0 1 1 0 0 forward_v I I I I #
face $-1 $88 $89 $32 $-1 $90 reversed single #
loop $-1 $-1 $91 $42 #
plane-surface $-1 -156.51751847085259 -1.967436991894111 81.415573541388298 0 1 0 -0.77714596973225614 0 0.62932038083071107 forward_v I I I I #
face $-1 $92 $93 $33 $-1 $94 forward single #
loop $-1 $95 $96 $43 #
cone-surface $-1 -56.9158070345119 0.27805846207206741 8.4124611991254046 0.77714596973225614 0 -0.62932038083071107 0.31466019041535553 0 0.38857298486612807 1 I I 0 1 0.5 forward I I I I #
face $-1 $97 $98 $34 $-1 $99 forward single #
loop $-1 $100 $101 $44 #
cone-surface $-1 -56.9158070345119 3.6463016430213315 8.4124611991254046 0.77714596973225614 0 -0.62932038083071107 0.31466019041535553 0 0.38857298486612807 1 I I 0 1 0.5 forward I I I I #
face $-1 $102 $103 $35 $-1 $104 reversed single #
loop $-1 $-1 $105 $45 #
plane-surface $-1 -156.51751847085259 29.673635313992925 81.415573541388298 0 1 0 -0.77714596973225614 0 0.62932038083071107 forward_v I I I I #
face $-1 $106 $107 $36 $-1 $108 forward single #
loop $-1 $109 $110 $46 #
cone-surface $-1 -56.9158070345119 31.919130767959103 8.4124611991254046 0.77714596973225614 0 -0.62932038083071107 0.31466019041535553 0 0.38857298486612807 1 I I 0 1 0.5 forward I I I I #
face $-1 $111 $112 $37 $-1 $113 forward single #
loop $-1 $114 $115 $47 #
cone-surface $-1 -56.9158070345119 35.287373948908368 8.4124611991254046 0.77714596973225614 0 -0.62932038083071107 0.31466019041535553 0 0.38857298486612807 1 I I 0 1 0.5 forward I I I I #
face $-1 $116 $117 $38 $-1 $118 reversed single #
loop $-1 $-1 $119 $48 #
plane-surface $-1 -41.504947284709935 31.251681530072545 69.95516607715868 0.54463904215088732 0 0.83867056331134215 0.83867056331134215 0 -0.54463904215088732 forward_v I I I I #
face $-1 $120 $121 $39 $-1 $122 forward single #
loop $-1 $123 $124 $49 #
cone-surface $-1 52.616967562548787 31.251681530072545 7.2800908531047392 -0.54463904215088732 0 -0.83867056331134215 2.0966764082783556 0 -1.3615976053772183 1 I I 0 1 2.5 forward I I I I #
face $-1 $125 $126 $30 $-1 $127 reversed single #
loop $-1 $-1 $128 $50 #
plane-surface $-1 0 0 -13.534604475977833 0 0 1 1 0 0 forward_v I I I I #
coedge $-1 $129 $130 $131 $132 forward $51 $-1 #
face $-1 $133 $134 $31 $-1 $135 reversed single #
loop $-1 $-1 $136 $53 #
plane-surface $-1 0 -25.749275208899533 10.202027725813437 0 -1 0 0 0 -1 forward_v I I I I #
coedge $-1 $137 $138 $139 $140 reversed $54 $-1 #
face $-1 $141 $142 $32 $-1 $143 reversed single #
loop $-1 $-1 $144 $56 #
plane-surface $-1 -61.276284066286209 1.9621800525466995 4.2907446924161547 -0.77714596973225614 0 0.62932038083071107 0.62932038083071107 0 0.77714596973225614 forward_v I I I I #
coedge $-1 $145 $146 $147 $148 reversed $57 $-1 #
face $-1 $-1 $149 $33 $-1 $150 forward single #
loop $-1 $151 $152 $59 #
cone-surface $-1 -56.103808438584949 0.27805846207206741 7.7549177188461407 0.77714596973225614 0 -0.62932038083071107 0.15733009520767777 0 0.19428649243306403 1 I I -0.70710678118654746 0.70710678118654746 0.25 forward I I I I #
loop $-1 $-1 $153 $43 #
coedge $-1 $96 $96 $154 $155 reversed $60 $-1 #
face $-1 $-1 $156 $34 $-1 $157 forward single #
loop $-1 $158 $159 $62 #
cone-surface $-1 -56.103808438584949 3.6463016430213315 7.7549177188461407 0.77714596973225614 0 -0.62932038083071107 0.15733009520767777 0 0.19428649243306403 1 I I -0.70710678118654746 0.70710678118654746 0.25 forward I I I I #
loop $-1 $-1 $160 $44 #
coedge $-1 $101 $101 $161 $162 reversed $63 $-1 #
face $-1 $163 $164 $35 $-1 $165 forward single #
loop $-1 $-1 $166 $65 #
plane-surface $-1 -61.276284066286209 33.603252358433735 4.2907446924161547 -0.77714596973225614 0 0.62932038083071107 0.62932038083071107 0 0.77714596973225614 forward_v I I I I #
coedge $-1 $167 $168 $169 $170 reversed $66 $-1 #
face $-1 $-1 $171 $36 $-1 $172 forward single #
loop $-1 $173 $174 $68 #
cone-surface $-1 -56.103808438584949 31.919130767959103 7.7549177188461407 0.77714596973225614 0 -0.62932038083071107 0.15733009520767777 0 0.19428649243306403 1 I I -0.70710678118654746 0.70710678118654746 0.25 forward I I I I #
loop $-1 $-1 $175 $46 #
coedge $-1 $110 $110 $176 $177 reversed $69 $-1 #
face $-1 $-1 $178 $37 $-1 $179 forward single #
loop $-1 $180 $181 $71 #
cone-surface $-1 -56.103808438584949 35.287373948908368 7.7549177188461407 0.77714596973225614 0 -0.62932038083071107 0.15733009520767777 0 0.19428649243306403 1 I I -0.70710678118654746 0.70710678118654746 0.25 forward I I I I #
loop $-1 $-1 $182 $47 #
coedge $-1 $115 $115 $183 $184 reversed $72 $-1 #
face $-1 $185 $186 $38 $-1 $187 forward single #
loop $-1 $-1 $188 $74 #
plane-surface $-1 25.241966036145662 24.970493657270534 172.73639742815482 0 1 0 0.54463904215088732 0 0.83867056331134215 forward_v I I I I #
coedge $-1 $189 $190 $191 $192 reversed $75 $-1 #
face $-1 $-1 $193 $39 $-1 $194 forward single #
loop $-1 $195 $196 $77 #
cone-surface $-1 51.227445716599853 31.251681530072545 5.1404148859298395 -0.54463904215088732 0 -0.83867056331134215 1.0483382041391778 0 -0.68079880268860915 1 I I -0.70710678118654746 0.70710678118654746 1.25 forward I I I I #
loop $-1 $-1 $197 $49 #
coedge $-1 $124 $124 $198 $199 reversed $78 $-1 #
face $-1 $200 $201 $30 $-1 $202 reversed single #
loop $-1 $-1 $203 $80 #
plane-surface $-1 0 -37.532869402874553 0 0 1 0 0 0 1 forward_v I I I I #
coedge $-1 $204 $205 $206 $207 forward $81 $-1 #
coedge $-1 $208 $83 $209 $210 forward $51 $-1 #
coedge $-1 $83 $208 $211 $212 forward $51 $-1 #
coedge $-1 $213 $214 $83 $132 reversed $215 $-1 #
edge $-1 $216 -37.532869402874553 $217 37.532869402874553 $131 $218 forward 7 unknown #
face $-1 $219 $220 $31 $-1 $221 reversed single #
loop $-1 $-1 $222 $84 #
plane-surface $-1 -61.276284066286202 0 0 1 0 0 0 0 -1 forward_v I I I I #
coedge $-1 $223 $224 $225 $226 reversed $85 $-1 #
coedge $-1 $227 $87 $228 $229 reversed $54 $-1 #
coedge $-1 $87 $227 $223 $230 forward $54 $-1 #
coedge $-1 $225 $231 $87 $140 forward $232 $-1 #
edge $-1 $233 -21.712333249931032 $234 -9.9287390559560116 $139 $235 forward 7 unknown #
face $-1 $236 $237 $32 $-1 $238 forward single #
loop $-1 $-1 $239 $88 #
plane-surface $-1 -156.51751847085259 5.89179709698751 81.415573541388298 0 -1 0 0.77714596973225614 0 -0.62932038083071107 forward_v I I I I #
coedge $-1 $240 $241 $242 $243 reversed $89 $-1 #
coedge $-1 $146 $91 $244 $245 reversed $57 $-1 #
coedge $-1 $91 $145 $240 $246 reversed $57 $-1 #
coedge $-1 $242 $247 $91 $148 forward $237 $-1 #
edge $-1 $248 16.982475169140095 $249 24.468005025700926 $147 $250 forward 7 unknown #
loop $-1 $-1 $154 $92 #
plane-surface $-1 -61.276284066286209 1.9621800525466995 4.2907446924161547 -0.77714596973225614 0 0.62932038083071107 0.62932038083071107 0 0.77714596973225614 forward_v I I I I #
loop $-1 $-1 $251 $59 #
coedge $-1 $152 $152 $153 $252 reversed $93 $-1 #
coedge $-1 $153 $153 $152 $252 forward $95 $-1 #
coedge $-1 $154 $154 $96 $155 forward $149 $-1 #
edge $-1 $253 0 $253 6.2831853071796004 $154 $254 forward 7 unknown #
loop $-1 $-1 $161 $97 #
plane-surface $-1 -61.276284066286209 1.9621800525466995 4.2907446924161547 -0.77714596973225614 0 0.62932038083071107 0.62932038083071107 0 0.77714596973225614 forward_v I I I I #
loop $-1 $-1 $255 $62 #
coedge $-1 $159 $159 $160 $256 reversed $98 $-1 #
coedge $-1 $160 $160 $159 $256 forward $100 $-1 #
coedge $-1 $161 $161 $101 $162 forward $156 $-1 #
edge $-1 $257 0 $257 6.2831853071796004 $161 $258 forward 7 unknown #
face $-1 $259 $260 $35 $-1 $261 reversed single #
loop $-1 $-1 $169 $102 #
plane-surface $-1 0 0 13.534604475977833 0 0 1 1 0 0 forward_v I I I I #
coedge $-1 $262 $263 $264 $265 reversed $103 $-1 #
coedge $-1 $168 $105 $266 $267 reversed $66 $-1 #
coedge $-1 $105 $167 $262 $268 reversed $66 $-1 #
coedge $-1 $264 $269 $105 $170 forward $164 $-1 #
edge $-1 $270 16.982475169140095 $271 24.468005025700926 $169 $272 forward 7 unknown #
loop $-1 $-1 $176 $106 #
plane-surface $-1 -61.276284066286209 33.603252358433735 4.2907446924161547 -0.77714596973225614 0 0.62932038083071107 0.62932038083071107 0 0.77714596973225614 forward_v I I I I #
loop $-1 $-1 $273 $68 #
coedge $-1 $174 $174 $175 $274 reversed $107 $-1 #
coedge $-1 $175 $175 $174 $274 forward $109 $-1 #
coedge $-1 $176 $176 $110 $177 forward $171 $-1 #
edge $-1 $275 0 $275 6.2831853071796004 $176 $276 forward 7 unknown #
loop $-1 $-1 $183 $111 #
plane-surface $-1 -61.276284066286209 33.603252358433735 4.2907446924161547 -0.77714596973225614 0 0.62932038083071107 0.62932038083071107 0 0.77714596973225614 forward_v I I I I #
loop $-1 $-1 $277 $71 #
coedge $-1 $181 $181 $182 $278 reversed $112 $-1 #
coedge $-1 $182 $182 $181 $278 forward $114 $-1 #
coedge $-1 $183 $183 $115 $184 forward $178 $-1 #
edge $-1 $279 0 $279 6.2831853071796004 $183 $280 forward 7 unknown #
face $-1 $281 $282 $38 $-1 $283 reversed single #
loop $-1 $-1 $191 $116 #
plane-surface $-1 0 0 13.534604475977833 0 0 1 1 0 0 forward_v I I I I #
coedge $-1 $284 $285 $286 $287 reversed $117 $-1 #
coedge $-1 $288 $119 $289 $290 reversed $75 $-1 #
coedge $-1 $119 $288 $284 $291 forward $75 $-1 #
coedge $-1 $286 $292 $119 $192 forward $186 $-1 #
edge $-1 $293 -21.90702863783828 $294 -9.3446528922342615 $191 $295 forward 7 unknown #
loop $-1 $-1 $198 $120 #
plane-surface $-1 -41.504947284709935 31.251681530072545 69.95516607715868 0.54463904215088732 0 0.83867056331134215 0.83867056331134215 0 -0.54463904215088732 forward_v I I I I #
loop $-1 $-1 $296 $77 #
coedge $-1 $196 $196 $197 $297 reversed $121 $-1 #
coedge $-1 $197 $197 $196 $297 forward $123 $-1 #
coedge $-1 $198 $198 $124 $199 forward $193 $-1 #
edge $-1 $298 0 $298 6.2831853071796004 $198 $299 forward 7 unknown #
face $-1 $300 $301 $30 $-1 $302 reversed single #
loop $-1 $-1 $303 $125 #
plane-surface $-1 -61.276284066286202 0 0 1 0 0 0 0 -1 forward_v I I I I #
coedge $-1 $304 $211 $305 $306 forward $126 $-1 #
coedge $-1 $307 $128 $304 $308 forward $81 $-1 #
coedge $-1 $128 $307 $309 $310 forward $81 $-1 #
coedge $-1 $214 $213 $128 $207 reversed $215 $-1 #
edge $-1 $311 -37.532869402874553 $312 37.532869402874553 $206 $313 forward 7 unknown #
coedge $-1 $130 $129 $314 $315 forward $51 $-1 #
coedge $-1 $316 $317 $129 $210 reversed $301 $-1 #
edge $-1 $217 -61.276284066286202 $318 61.276284066286202 $209 $319 forward 7 unknown #
coedge $-1 $203 $320 $130 $212 reversed $126 $-1 #
edge $-1 $321 -61.276284066286202 $216 61.276284066286202 $211 $322 forward 7 unknown #
coedge $-1 $206 $131 $320 $323 forward $215 $-1 #
coedge $-1 $131 $206 $316 $324 reversed $215 $-1 #
loop $-1 $-1 $213 $300 #
vertex $-1 $132 $325 #
vertex $-1 $132 $326 #
straight-curve $-1 61.276284066286202 0 13.534604475977833 0 1 0 I I #
face $-1 $327 $328 $31 $-1 $329 forward single #
loop $-1 $-1 $228 $133 #
plane-surface $-1 0 -37.532869402874553 0 0 1 0 0 0 1 forward_v I I I I #
coedge $-1 $330 $331 $332 $333 forward $134 $-1 #
coedge $-1 $332 $136 $138 $230 reversed $85 $-1 #
coedge $-1 $136 $332 $334 $335 reversed $85 $-1 #
coedge $-1 $336 $139 $136 $226 forward $232 $-1 #
edge $-1 $234 1.7684371127423226 $337 8.4335906130711145 $225 $338 forward 7 unknown #
coedge $-1 $138 $137 $330 $339 reversed $54 $-1 #
coedge $-1 $340 $341 $137 $229 forward $220 $-1 #
edge $-1 $342 -61.276284066286202 $233 61.276284066286202 $228 $343 forward 7 unknown #
edge $-1 $344 -61.276284066286202 $234 61.276284066286202 $223 $345 forward 7 unknown #
coedge $-1 $139 $336 $340 $346 forward $232 $-1 #
loop $-1 $-1 $225 $327 #
vertex $-1 $229 $347 #
vertex $-1 $140 $348 #
straight-curve $-1 61.276284066286202 -15.820536152943522 6.8694509756490412 0 1 0 I I #
face $-1 $-1 $349 $32 $-1 $350 reversed single #
loop $-1 $-1 $147 $141 #
plane-surface $-1 0 0 13.534604475977833 0 0 1 1 0 0 forward_v I I I I #
coedge $-1 $351 $352 $353 $354 reversed $142 $-1 #
coedge $-1 $355 $144 $146 $246 forward $89 $-1 #
coedge $-1 $144 $355 $351 $356 forward $89 $-1 #
coedge $-1 $353 $147 $144 $243 forward $237 $-1 #
edge $-1 $249 -2.9485270181674608 $357 4.9107070707141602 $242 $358 forward 7 unknown #
coedge $-1 $359 $360 $145 $245 forward $349 $-1 #
edge $-1 $361 -36.417042078277987 $248 -27.173182294716316 $244 $362 forward 7 unknown #
edge $-1 $249 -11.89462487561557 $361 -1.1374033043381581e-014 $146 $363 forward 7 unknown #
coedge $-1 $147 $353 $359 $364 forward $237 $-1 #
vertex $-1 $245 $365 #
vertex $-1 $148 $366 #
straight-curve $-1 -78.258759235426297 -1.967436991894111 13.534604475977837 1 0 0 I I #
coedge $-1 $251 $251 $-1 $367 reversed $151 $-1 #
edge $-1 $368 0 $368 6.2831853071796004 $152 $369 forward 7 unknown #
vertex $-1 $155 $370 #
ellipse-curve $-1 -57.533519138005786 0.27805846207206741 8.9126745841969939 -0.77714596973225614 0 0.62932038083071107 0.31466019041535553 0 0.38857298486612807 1 I I #
coedge $-1 $255 $255 $-1 $371 reversed $158 $-1 #
edge $-1 $372 0 $372 6.2831853071796004 $159 $373 forward 7 unknown #
vertex $-1 $162 $374 #
ellipse-curve $-1 -57.533519138005786 3.6463016430213315 8.9126745841969939 -0.77714596973225614 0 0.62932038083071107 0.31466019041535553 0 0.38857298486612807 1 I I #
face $-1 $-1 $375 $35 $-1 $376 reversed single #
loop $-1 $-1 $377 $163 #
plane-surface $-1 0 37.532869402874553 0 0 -1 0 0 0 -1 forward_v I I I I #
coedge $-1 $378 $166 $168 $268 forward $103 $-1 #
coedge $-1 $166 $378 $377 $379 reversed $103 $-1 #
coedge $-1 $380 $169 $166 $265 forward $164 $-1 #
edge $-1 $271 12.872009134776057 $381 20.731243223657678 $264 $382 forward 7 unknown #
coedge $-1 $383 $384 $167 $267 forward $375 $-1 #
edge $-1 $385 -36.417042078277987 $270 -27.173182294716316 $266 $386 forward 7 unknown #
edge $-1 $271 -11.89462487561557 $385 -1.1374033043381581e-014 $168 $387 forward 7 unknown #
coedge $-1 $169 $380 $383 $388 forward $164 $-1 #
vertex $-1 $267 $389 #
vertex $-1 $170 $390 #
straight-curve $-1 -78.258759235426297 29.673635313992925 13.534604475977837 1 0 0 I I #
coedge $-1 $273 $273 $-1 $391 reversed $173 $-1 #
edge $-1 $392 0 $392 6.2831853071796004 $174 $393 forward 7 unknown #
vertex $-1 $177 $394 #
ellipse-curve $-1 -57.533519138005786 31.919130767959103 8.9126745841969939 -0.77714596973225614 0 0.62932038083071107 0.31466019041535553 0 0.38857298486612807 1 I I #
coedge $-1 $277 $277 $-1 $395 reversed $180 $-1 #
edge $-1 $396 0 $396 6.2831853071796004 $181 $397 forward 7 unknown #
vertex $-1 $184 $398 #
ellipse-curve $-1 -57.533519138005786 35.287373948908368 8.9126745841969939 -0.77714596973225614 0 0.62932038083071107 0.31466019041535553 0 0.38857298486612807 1 I I #
face $-1 $-1 $399 $38 $-1 $400 reversed single #
loop $-1 $-1 $401 $185 #
plane-surface $-1 61.276284066286202 0 0 -1 0 0 0 0 1 forward_v I I I I #
coedge $-1 $285 $188 $190 $291 reversed $117 $-1 #
coedge $-1 $188 $284 $402 $403 reversed $117 $-1 #
coedge $-1 $404 $191 $188 $287 forward $186 $-1 #
edge $-1 $294 32.754114127259257 $405 48.655301048213374 $286 $406 forward 7 unknown #
coedge $-1 $190 $189 $401 $407 reversed $75 $-1 #
coedge $-1 $408 $409 $189 $290 forward $399 $-1 #
edge $-1 $410 -86.097922049949801 $293 -67.13793034811745 $289 $411 forward 7 unknown #
edge $-1 $412 -122.55256813257242 $294 -103.59257643074004 $284 $413 forward 7 unknown #
coedge $-1 $191 $404 $408 $414 forward $186 $-1 #
vertex $-1 $290 $415 #
vertex $-1 $192 $416 #
straight-curve $-1 45.375097145332113 15.625840765036273 13.534604475977829 0 -1 0 I I #
coedge $-1 $296 $296 $-1 $417 reversed $195 $-1 #
edge $-1 $418 0 $418 6.2831853071796004 $196 $419 forward 7 unknown #
vertex $-1 $199 $420 #
ellipse-curve $-1 53.325690605809122 31.251681530072545 8.3714286161404772 0.54463904215088732 0 0.83867056331134215 2.0966764082783556 0 -1.3615976053772183 1 I I #
face $-1 $-1 $215 $30 $-1 $421 reversed single #
loop $-1 $-1 $316 $200 #
plane-surface $-1 0 37.532869402874553 0 0 -1 0 0 0 -1 forward_v I I I I #
coedge $-1 $422 $314 $317 $423 forward $201 $-1 #
coedge $-1 $320 $203 $204 $308 reversed $126 $-1 #
coedge $-1 $314 $422 $203 $306 reversed $201 $-1 #
edge $-1 $321 -13.534604475977833 $424 13.534604475977833 $305 $425 forward 7 unknown #
coedge $-1 $205 $204 $422 $426 forward $81 $-1 #
edge $-1 $312 -61.276284066286202 $424 61.276284066286202 $304 $427 forward 7 unknown #
coedge $-1 $317 $316 $205 $310 reversed $301 $-1 #
edge $-1 $428 -61.276284066286202 $311 61.276284066286202 $309 $429 forward 7 unknown #
vertex $-1 $207 $430 #
vertex $-1 $323 $431 #
straight-curve $-1 61.276284066286202 0 -13.534604475977833 0 -1 0 I I #
coedge $-1 $303 $305 $208 $315 reversed $201 $-1 #
edge $-1 $318 -37.532869402874553 $321 37.532869402874553 $314 $432 forward 7 unknown #
coedge $-1 $309 $209 $214 $324 forward $301 $-1 #
coedge $-1 $209 $309 $303 $423 reversed $301 $-1 #
vertex $-1 $210 $433 #
straight-curve $-1 0 37.532869402874553 13.534604475977833 -1 0 0 I I #
coedge $-1 $211 $304 $213 $323 reversed $126 $-1 #
vertex $-1 $315 $434 #
straight-curve $-1 0 -37.532869402874553 13.534604475977833 1 0 0 I I #
edge $-1 $216 -13.534604475977833 $312 13.534604475977833 $213 $435 forward 7 unknown #
edge $-1 $217 -13.534604475977833 $311 13.534604475977833 $214 $436 forward 7 unknown #
point $-1 61.276284066286202 -37.532869402874553 13.534604475977833 #
point $-1 61.276284066286202 37.532869402874553 13.534604475977833 #
face $-1 $-1 $232 $31 $-1 $437 reversed single #
loop $-1 $-1 $334 $219 #
plane-surface $-1 0 0 13.534604475977833 0 0 1 1 0 0 forward_v I I I I #
coedge $-1 $438 $222 $227 $339 forward $134 $-1 #
coedge $-1 $222 $438 $439 $440 reversed $134 $-1 #
coedge $-1 $224 $223 $222 $333 reversed $85 $-1 #
edge $-1 $441 -8.4335906130711145 $344 -1.7684371127423226 $222 $442 forward 7 unknown #
coedge $-1 $439 $443 $224 $335 forward $328 $-1 #
edge $-1 $337 -61.276284066286202 $441 61.276284066286202 $334 $444 forward 7 unknown #
coedge $-1 $231 $225 $443 $445 reversed $232 $-1 #
vertex $-1 $226 $446 #
straight-curve $-1 61.276284066286202 -25.749275208899533 5.1010138629067185 0 0 1 I I #
edge $-1 $344 9.9287390559560116 $342 21.712333249931032 $330 $447 forward 7 unknown #
coedge $-1 $448 $228 $231 $346 reversed $220 $-1 #
coedge $-1 $228 $448 $438 $449 forward $220 $-1 #
vertex $-1 $229 $450 #
straight-curve $-1 0 -37.532869402874553 6.8694509756490412 1 0 0 I I #
vertex $-1 $339 $451 #
straight-curve $-1 0 -25.749275208899533 6.8694509756490412 1 0 0 I I #
edge $-1 $452 -13.534604475977833 $233 -6.8694509756490412 $231 $453 forward 7 unknown #
point $-1 61.276284066286202 -37.532869402874553 6.8694509756490412 #
point $-1 61.276284066286202 -25.749275208899533 6.8694509756490412 #
loop $-1 $-1 $244 $236 #
plane-surface $-1 -61.276284066286202 0 0 1 0 0 0 0 -1 forward_v I I I I #
coedge $-1 $352 $239 $241 $356 reversed $142 $-1 #
coedge $-1 $239 $351 $454 $455 reversed $142 $-1 #
coedge $-1 $247 $242 $239 $354 forward $237 $-1 #
edge $-1 $357 -24.468005025700926 $456 -16.982475169140095 $353 $457 forward 7 unknown #
coedge $-1 $241 $240 $360 $458 reversed $89 $-1 #
edge $-1 $459 1.1374033043381581e-014 $357 11.89462487561557 $351 $460 forward 7 unknown #
vertex $-1 $243 $461 #
straight-curve $-1 -53.790754209725371 0.98109002627334974 13.534604475977833 0 1 0 I I #
coedge $-1 $454 $244 $247 $364 reversed $349 $-1 #
coedge $-1 $244 $454 $355 $458 forward $349 $-1 #
vertex $-1 $245 $462 #
straight-curve $-1 -61.276284066286202 -1.967436991894111 40.707786770694149 0 0 1 I I #
straight-curve $-1 -61.276284066286209 -1.967436991894111 4.2907446924161547 -0.62932038083071107 0 -0.77714596973225614 I I #
edge $-1 $456 -5.89179709698751 $248 1.967436991894111 $359 $463 forward 7 unknown #
point $-1 -61.276284066286202 -1.967436991894111 13.534604475977833 #
point $-1 -53.790754209725371 -1.967436991894111 13.534604475977833 #
edge $-1 $464 1 $464 0 $251 $-1 forward 7 unknown #
vertex $-1 $252 $465 #
ellipse-curve $-1 -56.298094931018014 0.27805846207206741 7.9122478140538188 -0.77714596973225614 0 0.62932038083071107 0.31466019041535553 0 0.38857298486612807 1 I I #
point $-1 -57.218858947590427 0.27805846207206741 9.3012475690631184 #
edge $-1 $466 1 $466 0 $255 $-1 forward 7 unknown #
vertex $-1 $256 $467 #
ellipse-curve $-1 -56.298094931018014 3.6463016430213315 7.9122478140538188 -0.77714596973225614 0 0.62932038083071107 0.31466019041535553 0 0.38857298486612807 1 I I #
point $-1 -57.218858947590427 3.6463016430213315 9.3012475690631184 #
loop $-1 $-1 $266 $259 #
plane-surface $-1 -61.276284066286202 0 0 1 0 0 0 0 -1 forward_v I I I I #
coedge $-1 $468 $469 $263 $379 forward $260 $-1 #
coedge $-1 $263 $262 $384 $470 reversed $103 $-1 #
edge $-1 $381 5.719314864196825 $471 17.61393973981238 $377 $472 forward 7 unknown #
coedge $-1 $269 $264 $469 $473 forward $164 $-1 #
vertex $-1 $473 $474 #
straight-curve $-1 -53.790754209725371 16.801626179216868 13.534604475977833 0 1 0 I I #
coedge $-1 $475 $266 $269 $388 reversed $375 $-1 #
coedge $-1 $266 $475 $378 $470 forward $375 $-1 #
vertex $-1 $267 $476 #
straight-curve $-1 -61.276284066286202 29.673635313992925 40.707786770694149 0 0 1 I I #
straight-curve $-1 -61.276284066286209 29.673635313992925 4.2907446924161547 -0.62932038083071107 0 -0.77714596973225614 I I #
edge $-1 $477 -37.532869402874553 $270 -29.673635313992925 $383 $478 forward 7 unknown #
point $-1 -61.276284066286202 29.673635313992925 13.534604475977833 #
point $-1 -53.790754209725371 29.673635313992925 13.534604475977833 #
edge $-1 $479 1 $479 0 $273 $-1 forward 7 unknown #
vertex $-1 $274 $480 #
ellipse-curve $-1 -56.298094931018014 31.919130767959103 7.9122478140538188 -0.77714596973225614 0 0.62932038083071107 0.31466019041535553 0 0.38857298486612807 1 I I #
point $-1 -57.218858947590427 31.919130767959103 9.3012475690631184 #
edge $-1 $481 1 $481 0 $277 $-1 forward 7 unknown #
vertex $-1 $278 $482 #
ellipse-curve $-1 -56.298094931018014 35.287373948908368 7.9122478140538188 -0.77714596973225614 0 0.62932038083071107 0.31466019041535553 0 0.38857298486612807 1 I I #
point $-1 -57.218858947590427 35.287373948908368 9.3012475690631184 #
loop $-1 $-1 $289 $281 #
plane-surface $-1 0 37.532869402874553 0 0 -1 0 0 0 -1 forward_v I I I I #
coedge $-1 $483 $402 $288 $407 forward $282 $-1 #
coedge $-1 $401 $484 $285 $403 forward $282 $-1 #
edge $-1 $405 72.833594238099579 $412 83.159945957774326 $402 $485 forward 7 unknown #
coedge $-1 $292 $286 $484 $486 forward $186 $-1 #
vertex $-1 $486 $487 #
straight-curve $-1 12.620983018072831 24.970493657270534 13.534604475977829 1 0 0 I I #
edge $-1 $412 9.3446528922342615 $410 21.90702863783828 $401 $488 forward 7 unknown #
coedge $-1 $409 $289 $292 $414 reversed $399 $-1 #
coedge $-1 $289 $408 $483 $489 forward $399 $-1 #
vertex $-1 $290 $490 #
straight-curve $-1 -10.931508719281229 37.532869402874553 50.100542552769511 -0.83867056331134215 0 0.54463904215088732 I I #
vertex $-1 $407 $491 #
straight-curve $-1 -41.504947284709935 24.970493657270534 69.95516607715868 -0.83867056331134215 0 0.54463904215088732 I I #
edge $-1 $492 -61.276284066286202 $293 -45.375097145332084 $408 $493 forward 7 unknown #
point $-1 45.375097145332084 37.532869402874553 13.534604475977829 #
point $-1 45.375097145332084 24.970493657270534 13.534604475977829 #
edge $-1 $494 1 $494 0 $296 $-1 forward 7 unknown #
vertex $-1 $297 $495 #
ellipse-curve $-1 51.908244519288459 31.251681530072545 6.1887530900690173 0.54463904215088732 0 0.83867056331134215 2.0966764082783556 0 -1.3615976053772183 1 I I #
point $-1 55.42236701408747 31.251681530072545 7.0098310107632429 #
plane-surface $-1 61.276284066286202 0 0 -1 0 0 0 0 1 forward_v I I I I #
coedge $-1 $305 $303 $307 $426 reversed $201 $-1 #
edge $-1 $318 -13.534604475977833 $428 13.534604475977833 $317 $496 forward 7 unknown #
vertex $-1 $426 $497 #
straight-curve $-1 -61.276284066286202 -37.532869402874553 0 0 0 -1 I I #
edge $-1 $424 -37.532869402874553 $428 37.532869402874553 $422 $498 forward 7 unknown #
straight-curve $-1 0 -37.532869402874553 -13.534604475977833 -1 0 0 I I #
vertex $-1 $310 $499 #
straight-curve $-1 0 37.532869402874553 -13.534604475977833 1 0 0 I I #
point $-1 61.276284066286202 37.532869402874553 -13.534604475977833 #
point $-1 61.276284066286202 -37.532869402874553 -13.534604475977833 #
straight-curve $-1 -61.276284066286202 0 13.534604475977833 0 -1 0 I I #
point $-1 -61.276284066286202 37.532869402874553 13.534604475977833 #
point $-1 -61.276284066286202 -37.532869402874553 13.534604475977833 #
straight-curve $-1 61.276284066286202 -37.532869402874553 0 0 0 -1 I I #
straight-curve $-1 61.276284066286202 37.532869402874553 0 0 0 -1 I I #
plane-surface $-1 61.276284066286202 0 0 -1 0 0 0 0 1 forward_v I I I I #
coedge $-1 $331 $330 $341 $449 reversed $134 $-1 #
coedge $-1 $500 $334 $331 $440 forward $328 $-1 #
edge $-1 $441 25.749275208899533 $501 37.532869402874553 $331 $502 forward 7 unknown #
vertex $-1 $440 $503 #
straight-curve $-1 -61.276284066286202 -25.749275208899533 5.1010138629067185 0 0 -1 I I #
coedge $-1 $334 $500 $336 $445 forward $328 $-1 #
straight-curve $-1 0 -25.749275208899533 13.534604475977833 -1 0 0 I I #
edge $-1 $452 -37.532869402874553 $337 -25.749275208899533 $336 $504 forward 7 unknown #
point $-1 61.276284066286202 -25.749275208899533 13.534604475977833 #
straight-curve $-1 -61.276284066286202 -15.820536152943522 6.8694509756490412 0 -1 0 I I #
coedge $-1 $341 $340 $500 $505 reversed $220 $-1 #
edge $-1 $501 -13.534604475977833 $342 -6.8694509756490412 $438 $506 forward 7 unknown #
point $-1 -61.276284066286202 -37.532869402874553 6.8694509756490412 #
point $-1 -61.276284066286202 -25.749275208899533 6.8694509756490412 #
vertex $-1 $445 $507 #
straight-curve $-1 61.276284066286202 -37.532869402874553 0 0 0 -1 I I #
coedge $-1 $360 $359 $352 $455 forward $349 $-1 #
edge $-1 $456 27.173182294716316 $459 36.417042078277987 $454 $508 forward 7 unknown #
vertex $-1 $364 $509 #
straight-curve $-1 -78.258759235426297 5.89179709698751 13.534604475977837 -1 0 0 I I #
edge $-1 $459 -4.9107070707141602 $361 2.9485270181674608 $360 $510 forward 7 unknown #
vertex $-1 $458 $511 #
straight-curve $-1 -61.276284066286209 5.89179709698751 4.2907446924161547 0.62932038083071107 0 0.77714596973225614 I I #
point $-1 -53.790754209725371 5.89179709698751 13.534604475977833 #
point $-1 -61.276284066286202 -1.967436991894111 4.2907446924161636 #
straight-curve $-1 -61.276284066286202 0 13.534604475977833 0 -1 0 I I #
vertex $-1 $367 $512 #
point $-1 -55.983434740602654 0.27805846207206741 8.300820798919947 #
vertex $-1 $371 $513 #
point $-1 -55.983434740602654 3.6463016430213315 8.300820798919947 #
coedge $-1 $469 $377 $475 $514 reversed $260 $-1 #
coedge $-1 $377 $468 $380 $473 reversed $260 $-1 #
edge $-1 $471 -20.731243223657678 $385 -12.872009134776057 $384 $515 forward 7 unknown #
vertex $-1 $379 $516 #
straight-curve $-1 -50.191472801298275 37.532869402874553 17.979346972318179 -0.62932038083071107 0 -0.77714596973225614 I I #
edge $-1 $381 53.790754209725371 $477 61.276284066286202 $469 $517 forward 7 unknown #
point $-1 -53.790754209725371 37.532869402874546 13.534604475977833 #
coedge $-1 $384 $383 $468 $514 forward $375 $-1 #
point $-1 -61.276284066286202 29.673635313992925 4.2907446924161636 #
vertex $-1 $473 $518 #
straight-curve $-1 -61.276284066286202 0 13.534604475977833 0 -1 0 I I #
vertex $-1 $391 $519 #
point $-1 -55.983434740602654 31.919130767959103 8.300820798919947 #
vertex $-1 $395 $520 #
point $-1 -55.983434740602654 35.287373948908368 8.300820798919947 #
coedge $-1 $484 $401 $409 $489 reversed $282 $-1 #
coedge $-1 $402 $483 $404 $486 reversed $282 $-1 #
straight-curve $-1 61.276284066286202 24.970493657270534 86.368198714077408 0 0 -1 I I #
edge $-1 $405 24.970493657270534 $492 37.532869402874553 $484 $521 forward 7 unknown #
point $-1 61.276284066286202 24.970493657270534 13.534604475977833 #
straight-curve $-1 61.276284066286202 15.625840765036273 3.2082527563030894 0 1 0 I I #
edge $-1 $492 -13.534604475977833 $410 -3.2082527563030823 $483 $522 forward 7 unknown #
point $-1 61.276284066286202 37.532869402874553 3.2082527563030823 #
point $-1 61.276284066286202 24.970493657270534 3.2082527563030823 #
vertex $-1 $486 $523 #
straight-curve $-1 0 37.532869402874553 13.534604475977833 -1 0 0 I I #
vertex $-1 $417 $524 #
point $-1 54.004920927566815 31.251681530072545 4.827155484691799 #
straight-curve $-1 -61.276284066286202 37.532869402874553 0 0 0 -1 I I #
point $-1 -61.276284066286202 -37.532869402874553 -13.534604475977833 #
straight-curve $-1 -61.276284066286202 0 -13.534604475977833 0 1 0 I I #
point $-1 -61.276284066286202 37.532869402874553 -13.534604475977833 #
coedge $-1 $443 $439 $448 $505 forward $328 $-1 #
vertex $-1 $440 $525 #
straight-curve $-1 -61.276284066286202 0 13.534604475977833 0 -1 0 I I #
point $-1 -61.276284066286202 -25.749275208899533 13.534604475977833 #
straight-curve $-1 61.276284066286202 0 13.534604475977833 0 1 0 I I #
edge $-1 $501 -61.276284066286202 $452 61.276284066286202 $448 $526 forward 7 unknown #
straight-curve $-1 -61.276284066286202 -37.532869402874553 0 0 0 -1 I I #
point $-1 61.276284066286202 -37.532869402874553 13.534604475977833 #
straight-curve $-1 -61.276284066286202 5.89179709698751 40.707786770694149 0 0 -1 I I #
point $-1 -61.276284066286202 5.89179709698751 13.534604475977833 #
straight-curve $-1 -61.276284066286202 0.98109002627334974 4.2907446924161698 0 -1 0 I I #
point $-1 -61.276284066286202 5.89179709698751 4.2907446924161636 #
point $-1 -55.909521946151884 0.27805846207206741 7.5975876236384625 #
point $-1 -55.909521946151884 3.6463016430213315 7.5975876236384625 #
edge $-1 $477 -13.534604475977833 $471 -4.2907446924161636 $468 $527 forward 7 unknown #
straight-curve $-1 -61.276284066286202 16.801626179216868 4.2907446924161698 0 -1 0 I I #
point $-1 -61.276284066286202 37.532869402874546 4.2907446924161636 #
straight-curve $-1 0 37.532869402874553 13.534604475977833 -1 0 0 I I #
point $-1 -61.276284066286202 37.532869402874553 13.534604475977833 #
point $-1 -55.909521946151884 31.919130767959103 7.5975876236384625 #
point $-1 -55.909521946151884 35.287373948908368 7.5975876236384625 #
straight-curve $-1 61.276284066286202 0 13.534604475977833 0 1 0 I I #
straight-curve $-1 61.276284066286202 37.532869402874553 0 0 0 -1 I I #
point $-1 61.276284066286202 37.532869402874553 13.534604475977833 #
point $-1 50.546646913911246 31.251681530072545 4.0920766817906618 #
point $-1 -61.276284066286202 -37.532869402874553 13.534604475977833 #
straight-curve $-1 0 -37.532869402874553 13.534604475977833 1 0 0 I I #
straight-curve $-1 -61.276284066286202 37.532869402874553 0 0 0 -1 I I #
End-of-ACIS-data 