500 0 8 0           
7 Unknown 11 ACIS 5.0 NT 24 Fri Mar 26 03:07:29 1999 
-1 9.9999999999999995e-007 1e-010 
body $-1 $8 $-1 $9 #
body $-1 $10 $-1 $11 #
body $-1 $12 $-1 $13 #
body $-1 $14 $-1 $15 #
body $-1 $16 $-1 $17 #
body $-1 $18 $-1 $19 #
body $-1 $20 $-1 $21 #
body $-1 $22 $-1 $23 #
lump $-1 $-1 $24 $0 #
transform $-1 1 0 0 0 1 0 0 0 1 51.344340342417674 28.390519779840272 12.286587261269052 1 rotate no_reflect no_shear #
lump $-1 $-1 $25 $1 #
transform $-1 1 0 0 0 1 0 0 0 1 51.344340342417674 28.390519779840272 12.286587261269052 1 rotate no_reflect no_shear #
lump $-1 $-1 $26 $2 #
transform $-1 1 0 0 0 1 0 0 0 1 51.344340342417674 28.390519779840272 12.286587261269052 1 rotate no_reflect no_shear #
lump $-1 $-1 $27 $3 #
transform $-1 1 0 0 0 1 0 0 0 1 51.344340342417674 28.390519779840272 12.286587261269052 1 rotate no_reflect no_shear #
lump $-1 $-1 $28 $4 #
transform $-1 1 0 0 0 1 0 0 0 1 51.344340342417674 28.390519779840272 12.286587261269052 1 rotate no_reflect no_shear #
lump $-1 $-1 $29 $5 #
transform $-1 1 0 0 0 1 0 0 0 1 51.344340342417674 28.390519779840272 12.286587261269052 1 rotate no_reflect no_shear #
lump $-1 $-1 $30 $6 #
transform $-1 1 0 0 0 1 0 0 0 1 51.344340342417674 28.390519779840272 12.286587261269052 1 rotate no_reflect no_shear #
lump $-1 $-1 $31 $7 #
transform $-1 1 0 0 0 1 0 0 0 1 51.344340342417674 28.390519779840272 12.286587261269052 1 rotate no_reflect no_shear #
shell $-1 $-1 $-1 $32 $-1 $8 #
shell $-1 $-1 $-1 $33 $-1 $10 #
shell $-1 $-1 $-1 $34 $-1 $12 #
shell $-1 $-1 $-1 $35 $-1 $14 #
shell $-1 $-1 $-1 $36 $-1 $16 #
shell $-1 $-1 $-1 $37 $-1 $18 #
shell $-1 $-1 $-1 $38 $-1 $20 #
shell $-1 $-1 $-1 $39 $-1 $22 #
face $-1 $40 $41 $24 $-1 $42 forward single #
face $-1 $43 $44 $25 $-1 $45 forward single #
face $-1 $46 $47 $26 $-1 $48 reversed single #
face $-1 $49 $50 $27 $-1 $51 forward single #
face $-1 $52 $53 $28 $-1 $54 forward single #
face $-1 $55 $56 $29 $-1 $57 reversed single #
face $-1 $58 $59 $30 $-1 $60 forward single #
face $-1 $61 $62 $31 $-1 $63 forward single #
face $-1 $64 $65 $24 $-1 $66 reversed single #
loop $-1 $-1 $67 $32 #
plane-surface $-1 0 0 12.286587261269052 0 0 1 1 0 0 forward_v I I I I #
face $-1 $68 $69 $25 $-1 $70 reversed single #
loop $-1 $-1 $71 $33 #
plane-surface $-1 0 -21.279579127741972 -5.3842452406999293 0 0 1 1 0 0 forward_v I I I I #
face $-1 $72 $73 $26 $-1 $74 reversed single #
loop $-1 $-1 $75 $34 #
plane-surface $-1 -134.42122898677246 -6.5214989056448296 65.108039239164796 0 1 0 -0.80901700255871778 0 0.5877852410284794 forward_v I I I I #
face $-1 $76 $77 $27 $-1 $78 forward single #
loop $-1 $79 $80 $35 #
cone-surface $-1 -48.201696946839974 -4.5373650742114684 8.2239751660864329 0.80901700255871778 0 -0.5877852410284794 0.14694631025711985 0 0.20225425063967944 1 I I 0 1 0.25 forward I I I I #
face $-1 $81 $82 $28 $-1 $83 forward single #
loop $-1 $84 $85 $36 #
cone-surface $-1 -48.201696946839974 -1.5611643270614231 8.2239751660864329 0.80901700255871778 0 -0.5877852410284794 0.14694631025711985 0 0.20225425063967944 1 I I 0 1 0.25 forward I I I I #
face $-1 $86 $87 $29 $-1 $88 reversed single #
loop $-1 $-1 $89 $37 #
plane-surface $-1 -134.42122898677246 14.758080222097146 65.108039239164796 0 1 0 -0.80901700255871778 0 0.5877852410284794 forward_v I I I I #
face $-1 $90 $91 $30 $-1 $92 forward single #
loop $-1 $93 $94 $38 #
cone-surface $-1 -48.201696946839974 16.742214053530507 8.2239751660864329 0.80901700255871778 0 -0.5877852410284794 0.14694631025711985 0 0.20225425063967944 1 I I 0 1 0.25 forward I I I I #
face $-1 $95 $96 $31 $-1 $97 forward single #
loop $-1 $98 $99 $39 #
cone-surface $-1 -48.201696946839974 19.718414800680552 8.2239751660864329 0.80901700255871778 0 -0.5877852410284794 0.14694631025711985 0 0.20225425063967944 1 I I 0 1 0.25 forward I I I I #
face $-1 $100 $101 $24 $-1 $102 reversed single #
loop $-1 $-1 $103 $40 #
plane-surface $-1 0 0 -12.286587261269052 0 0 1 1 0 0 forward_v I I I I #
coedge $-1 $104 $105 $106 $107 forward $41 $-1 #
face $-1 $108 $109 $25 $-1 $110 reversed single #
loop $-1 $-1 $111 $43 #
plane-surface $-1 0 -14.168638475643672 -8.8354162509844905 0 -1 0 0 0 -1 forward_v I I I I #
coedge $-1 $112 $113 $114 $115 reversed $44 $-1 #
face $-1 $116 $117 $26 $-1 $118 reversed single #
loop $-1 $-1 $119 $46 #
plane-surface $-1 -51.344340342417667 -3.0492647006364457 4.749148311932295 -0.80901700255871778 0 0.5877852410284794 0.5877852410284794 0 0.80901700255871778 forward_v I I I I #
coedge $-1 $120 $121 $122 $123 reversed $47 $-1 #
face $-1 $-1 $124 $27 $-1 $125 forward single #
loop $-1 $126 $127 $49 #
cone-surface $-1 -47.696061320240773 -4.5373650742114684 7.8566093904436336 0.80901700255871778 0 -0.5877852410284794 0.073473155128559925 0 0.10112712531983972 1 I I -0.70710678118654746 0.70710678118654746 0.125 forward I I I I #
loop $-1 $-1 $128 $35 #
coedge $-1 $80 $80 $129 $130 reversed $50 $-1 #
face $-1 $-1 $131 $28 $-1 $132 forward single #
loop $-1 $133 $134 $52 #
cone-surface $-1 -47.696061320240773 -1.5611643270614231 7.8566093904436336 0.80901700255871778 0 -0.5877852410284794 0.073473155128559925 0 0.10112712531983972 1 I I -0.70710678118654746 0.70710678118654746 0.125 forward I I I I #
loop $-1 $-1 $135 $36 #
coedge $-1 $85 $85 $136 $137 reversed $53 $-1 #
face $-1 $138 $139 $29 $-1 $140 reversed single #
loop $-1 $-1 $141 $55 #
plane-surface $-1 -51.344340342417667 18.23031442710553 4.749148311932295 -0.80901700255871778 0 0.5877852410284794 0.5877852410284794 0 0.80901700255871778 forward_v I I I I #
coedge $-1 $142 $143 $144 $145 reversed $56 $-1 #
face $-1 $-1 $146 $30 $-1 $147 forward single #
loop $-1 $148 $149 $58 #
cone-surface $-1 -47.696061320240773 16.742214053530507 7.8566093904436336 0.80901700255871778 0 -0.5877852410284794 0.073473155128559925 0 0.10112712531983972 1 I I -0.70710678118654746 0.70710678118654746 0.125 forward I I I I #
loop $-1 $-1 $150 $38 #
coedge $-1 $94 $94 $151 $152 reversed $59 $-1 #
face $-1 $-1 $153 $31 $-1 $154 forward single #
loop $-1 $155 $156 $61 #
cone-surface $-1 -47.696061320240773 19.718414800680552 7.8566093904436336 0.80901700255871778 0 -0.5877852410284794 0.073473155128559925 0 0.10112712531983972 1 I I -0.70710678118654746 0.70710678118654746 0.125 forward I I I I #
loop $-1 $-1 $157 $39 #
coedge $-1 $99 $99 $158 $159 reversed $62 $-1 #
face $-1 $160 $161 $24 $-1 $162 reversed single #
loop $-1 $-1 $163 $64 #
plane-surface $-1 0 -28.390519779840272 0 0 1 0 0 0 1 forward_v I I I I #
coedge $-1 $164 $165 $166 $167 forward $65 $-1 #
coedge $-1 $168 $67 $169 $170 forward $41 $-1 #
coedge $-1 $67 $168 $171 $172 forward $41 $-1 #
coedge $-1 $173 $174 $67 $107 reversed $175 $-1 #
edge $-1 $176 -28.390519779840272 $177 28.390519779840272 $106 $178 forward 7 unknown #
face $-1 $179 $180 $25 $-1 $181 reversed single #
loop $-1 $-1 $182 $68 #
plane-surface $-1 0 0 -12.286587261269052 0 0 1 1 0 0 forward_v I I I I #
coedge $-1 $183 $184 $185 $186 reversed $69 $-1 #
coedge $-1 $187 $71 $184 $188 forward $44 $-1 #
coedge $-1 $71 $187 $189 $190 reversed $44 $-1 #
coedge $-1 $191 $185 $71 $115 forward $180 $-1 #
edge $-1 $192 3.5288489117726858 $193 17.750730215969284 $114 $194 forward 7 unknown #
face $-1 $195 $196 $26 $-1 $197 forward single #
loop $-1 $-1 $198 $72 #
plane-surface $-1 -134.42122898677246 0.42296950437193814 65.108039239164796 0 -1 0 0.80901700255871778 0 -0.5877852410284794 forward_v I I I I #
coedge $-1 $199 $200 $201 $202 reversed $73 $-1 #
coedge $-1 $121 $75 $203 $204 reversed $47 $-1 #
coedge $-1 $75 $120 $199 $205 reversed $47 $-1 #
coedge $-1 $201 $206 $75 $123 forward $196 $-1 #
edge $-1 $207 15.866274150968557 $208 21.342543939565253 $122 $209 forward 7 unknown #
loop $-1 $-1 $129 $76 #
plane-surface $-1 -51.344340342417667 -3.0492647006364457 4.749148311932295 -0.80901700255871778 0 0.5877852410284794 0.5877852410284794 0 0.80901700255871778 forward_v I I I I #
loop $-1 $-1 $210 $49 #
coedge $-1 $127 $127 $128 $211 reversed $77 $-1 #
coedge $-1 $128 $128 $127 $211 forward $79 $-1 #
coedge $-1 $129 $129 $80 $130 forward $124 $-1 #
edge $-1 $212 0 $212 6.2831853071796004 $129 $213 forward 7 unknown #
loop $-1 $-1 $136 $81 #
plane-surface $-1 -51.344340342417667 -3.0492647006364457 4.749148311932295 -0.80901700255871778 0 0.5877852410284794 0.5877852410284794 0 0.80901700255871778 forward_v I I I I #
loop $-1 $-1 $214 $52 #
coedge $-1 $134 $134 $135 $215 reversed $82 $-1 #
coedge $-1 $135 $135 $134 $215 forward $84 $-1 #
coedge $-1 $136 $136 $85 $137 forward $131 $-1 #
edge $-1 $216 0 $216 6.2831853071796004 $136 $217 forward 7 unknown #
face $-1 $218 $219 $29 $-1 $220 forward single #
loop $-1 $-1 $221 $86 #
plane-surface $-1 -134.42122898677246 21.702548632113913 65.108039239164796 0 -1 0 0.80901700255871778 0 -0.5877852410284794 forward_v I I I I #
coedge $-1 $222 $223 $224 $225 reversed $87 $-1 #
coedge $-1 $143 $89 $226 $227 reversed $56 $-1 #
coedge $-1 $89 $142 $222 $228 reversed $56 $-1 #
coedge $-1 $224 $229 $89 $145 forward $219 $-1 #
edge $-1 $230 15.866274150968557 $231 21.342543939565253 $144 $232 forward 7 unknown #
loop $-1 $-1 $151 $90 #
plane-surface $-1 -51.344340342417667 18.23031442710553 4.749148311932295 -0.80901700255871778 0 0.5877852410284794 0.5877852410284794 0 0.80901700255871778 forward_v I I I I #
loop $-1 $-1 $233 $58 #
coedge $-1 $149 $149 $150 $234 reversed $91 $-1 #
coedge $-1 $150 $150 $149 $234 forward $93 $-1 #
coedge $-1 $151 $151 $94 $152 forward $146 $-1 #
edge $-1 $235 0 $235 6.2831853071796004 $151 $236 forward 7 unknown #
loop $-1 $-1 $158 $95 #
plane-surface $-1 -51.344340342417667 18.23031442710553 4.749148311932295 -0.80901700255871778 0 0.5877852410284794 0.5877852410284794 0 0.80901700255871778 forward_v I I I I #
loop $-1 $-1 $237 $61 #
coedge $-1 $156 $156 $157 $238 reversed $96 $-1 #
coedge $-1 $157 $157 $156 $238 forward $98 $-1 #
coedge $-1 $158 $158 $99 $159 forward $153 $-1 #
edge $-1 $239 0 $239 6.2831853071796004 $158 $240 forward 7 unknown #
face $-1 $241 $242 $24 $-1 $243 reversed single #
loop $-1 $-1 $244 $100 #
plane-surface $-1 -51.344340342417674 0 0 1 0 0 0 0 -1 forward_v I I I I #
coedge $-1 $245 $171 $246 $247 forward $101 $-1 #
coedge $-1 $248 $103 $245 $249 forward $65 $-1 #
coedge $-1 $103 $248 $250 $251 forward $65 $-1 #
coedge $-1 $174 $173 $103 $167 reversed $175 $-1 #
edge $-1 $252 -28.390519779840272 $253 28.390519779840272 $166 $254 forward 7 unknown #
coedge $-1 $105 $104 $255 $256 forward $41 $-1 #
coedge $-1 $257 $258 $104 $170 reversed $242 $-1 #
edge $-1 $177 -51.344340342417674 $259 51.344340342417674 $169 $260 forward 7 unknown #
coedge $-1 $163 $261 $105 $172 reversed $101 $-1 #
edge $-1 $262 -51.344340342417674 $176 51.344340342417674 $171 $263 forward 7 unknown #
coedge $-1 $166 $106 $261 $264 forward $175 $-1 #
coedge $-1 $106 $166 $257 $265 reversed $175 $-1 #
loop $-1 $-1 $173 $241 #
vertex $-1 $107 $266 #
vertex $-1 $107 $267 #
straight-curve $-1 51.344340342417674 0 12.286587261269052 0 1 0 I I #
face $-1 $268 $269 $25 $-1 $270 reversed single #
loop $-1 $-1 $185 $108 #
plane-surface $-1 51.344340342417674 0 0 -1 0 0 0 0 1 forward_v I I I I #
coedge $-1 $271 $272 $183 $273 forward $109 $-1 #
coedge $-1 $274 $111 $182 $273 reversed $69 $-1 #
coedge $-1 $111 $274 $112 $188 reversed $69 $-1 #
coedge $-1 $114 $275 $111 $186 forward $180 $-1 #
edge $-1 $276 -7.8688791357768064 $192 -0.96653711520768404 $185 $277 forward 7 unknown #
coedge $-1 $113 $112 $278 $279 reversed $44 $-1 #
edge $-1 $192 -51.344340342417674 $280 51.344340342417674 $184 $281 forward 7 unknown #
coedge $-1 $282 $283 $113 $190 forward $269 $-1 #
edge $-1 $193 -51.344340342417674 $284 51.344340342417674 $189 $285 forward 7 unknown #
coedge $-1 $275 $114 $283 $286 forward $180 $-1 #
vertex $-1 $115 $287 #
vertex $-1 $286 $288 #
straight-curve $-1 51.344340342417674 -10.639789563870986 -5.3842452406999293 0 -1 0 I I #
face $-1 $-1 $289 $26 $-1 $290 reversed single #
loop $-1 $-1 $122 $116 #
plane-surface $-1 0 0 12.286587261269052 0 0 1 1 0 0 forward_v I I I I #
coedge $-1 $291 $292 $293 $294 reversed $117 $-1 #
coedge $-1 $295 $119 $121 $205 forward $73 $-1 #
coedge $-1 $119 $295 $291 $296 forward $73 $-1 #
coedge $-1 $293 $122 $119 $202 forward $196 $-1 #
edge $-1 $208 -4.9968665553266067 $297 1.947601854690161 $201 $298 forward 7 unknown #
coedge $-1 $299 $300 $120 $204 forward $289 $-1 #
edge $-1 $301 -27.804871307650114 $207 -20.267432358313346 $203 $302 forward 7 unknown #
edge $-1 $208 -9.3167868233890374 $301 1.2080531203272332e-014 $121 $303 forward 7 unknown #
coedge $-1 $122 $293 $299 $304 forward $196 $-1 #
vertex $-1 $204 $305 #
vertex $-1 $123 $306 #
straight-curve $-1 -67.210614493386231 -6.5214989056448296 12.286587261269052 1 0 0 I I #
coedge $-1 $210 $210 $-1 $307 reversed $126 $-1 #
edge $-1 $308 0 $308 6.2831853071796004 $127 $309 forward 7 unknown #
vertex $-1 $130 $310 #
ellipse-curve $-1 -48.606205448119326 -4.5373650742114684 8.517867786600668 -0.80901700255871778 0 0.5877852410284794 0.14694631025711985 0 0.20225425063967944 1 I I #
coedge $-1 $214 $214 $-1 $311 reversed $133 $-1 #
edge $-1 $312 0 $312 6.2831853071796004 $134 $313 forward 7 unknown #
vertex $-1 $137 $314 #
ellipse-curve $-1 -48.606205448119326 -1.5611643270614231 8.517867786600668 -0.80901700255871778 0 0.5877852410284794 0.14694631025711985 0 0.20225425063967944 1 I I #
face $-1 $-1 $315 $29 $-1 $316 reversed single #
loop $-1 $-1 $144 $138 #
plane-surface $-1 0 0 12.286587261269052 0 0 1 1 0 0 forward_v I I I I #
coedge $-1 $317 $318 $319 $320 reversed $139 $-1 #
coedge $-1 $321 $141 $143 $228 forward $87 $-1 #
coedge $-1 $141 $321 $317 $322 forward $87 $-1 #
coedge $-1 $319 $144 $141 $225 forward $219 $-1 #
edge $-1 $231 5.6429230085443809 $323 12.587391418561149 $224 $324 forward 7 unknown #
coedge $-1 $325 $326 $142 $227 forward $315 $-1 #
edge $-1 $327 -27.804871307650114 $230 -20.267432358313346 $226 $328 forward 7 unknown #
edge $-1 $231 -9.3167868233890374 $327 1.2080531203272332e-014 $143 $329 forward 7 unknown #
coedge $-1 $144 $319 $325 $330 forward $219 $-1 #
vertex $-1 $145 $331 #
vertex $-1 $145 $332 #
straight-curve $-1 -67.210614493386231 14.758080222097146 12.286587261269052 1 0 0 I I #
coedge $-1 $233 $233 $-1 $333 reversed $148 $-1 #
edge $-1 $334 0 $334 6.2831853071796004 $149 $335 forward 7 unknown #
vertex $-1 $152 $336 #
ellipse-curve $-1 -48.606205448119326 16.742214053530507 8.517867786600668 -0.80901700255871778 0 0.5877852410284794 0.14694631025711985 0 0.20225425063967944 1 I I #
coedge $-1 $237 $237 $-1 $337 reversed $155 $-1 #
edge $-1 $338 0 $338 6.2831853071796004 $156 $339 forward 7 unknown #
vertex $-1 $159 $340 #
ellipse-curve $-1 -48.606205448119326 19.718414800680552 8.517867786600668 -0.80901700255871778 0 0.5877852410284794 0.14694631025711985 0 0.20225425063967944 1 I I #
face $-1 $-1 $175 $24 $-1 $341 reversed single #
loop $-1 $-1 $257 $160 #
plane-surface $-1 0 28.390519779840272 0 0 -1 0 0 0 -1 forward_v I I I I #
coedge $-1 $342 $255 $258 $343 forward $161 $-1 #
coedge $-1 $261 $163 $164 $249 reversed $101 $-1 #
coedge $-1 $255 $342 $163 $247 reversed $161 $-1 #
edge $-1 $262 -12.286587261269052 $344 12.286587261269052 $246 $345 forward 7 unknown #
coedge $-1 $165 $164 $342 $346 forward $65 $-1 #
edge $-1 $253 -51.344340342417674 $344 51.344340342417674 $245 $347 forward 7 unknown #
coedge $-1 $258 $257 $165 $251 reversed $242 $-1 #
edge $-1 $348 -51.344340342417674 $252 51.344340342417674 $250 $349 forward 7 unknown #
vertex $-1 $167 $350 #
vertex $-1 $264 $351 #
straight-curve $-1 51.344340342417674 0 -12.286587261269052 0 -1 0 I I #
coedge $-1 $244 $246 $168 $256 reversed $161 $-1 #
edge $-1 $259 -28.390519779840272 $262 28.390519779840272 $255 $352 forward 7 unknown #
coedge $-1 $250 $169 $174 $265 forward $242 $-1 #
coedge $-1 $169 $250 $244 $343 reversed $242 $-1 #
vertex $-1 $170 $353 #
straight-curve $-1 0 28.390519779840272 12.286587261269052 -1 0 0 I I #
coedge $-1 $171 $245 $173 $264 reversed $101 $-1 #
vertex $-1 $256 $354 #
straight-curve $-1 0 -28.390519779840272 12.286587261269052 1 0 0 I I #
edge $-1 $176 -12.286587261269052 $253 12.286587261269052 $173 $355 forward 7 unknown #
edge $-1 $177 -12.286587261269052 $252 12.286587261269052 $174 $356 forward 7 unknown #
point $-1 51.344340342417674 -28.390519779840272 12.286587261269052 #
point $-1 51.344340342417674 28.390519779840272 12.286587261269052 #
face $-1 $-1 $357 $25 $-1 $358 reversed single #
loop $-1 $-1 $189 $179 #
plane-surface $-1 0 -28.390519779840272 0 0 1 0 0 0 1 forward_v I I I I #
coedge $-1 $359 $182 $275 $360 forward $109 $-1 #
coedge $-1 $182 $359 $361 $362 forward $109 $-1 #
edge $-1 $363 -51.344340342417674 $276 51.344340342417674 $182 $364 forward 7 unknown #
coedge $-1 $184 $183 $365 $366 reversed $69 $-1 #
coedge $-1 $185 $191 $271 $360 reversed $180 $-1 #
vertex $-1 $360 $367 #
straight-curve $-1 51.344340342417674 -14.168638475643672 -4.4177081254922452 0 0 1 I I #
coedge $-1 $365 $368 $187 $279 forward $357 $-1 #
edge $-1 $284 -17.750730215969284 $280 -3.5288489117726858 $278 $369 forward 7 unknown #
vertex $-1 $279 $370 #
straight-curve $-1 0 -14.168638475643672 -5.3842452406999293 -1 0 0 I I #
coedge $-1 $371 $189 $368 $372 forward $269 $-1 #
coedge $-1 $189 $371 $191 $286 reversed $269 $-1 #
vertex $-1 $372 $373 #
straight-curve $-1 0 -28.390519779840272 -5.3842452406999293 -1 0 0 I I #
edge $-1 $193 5.3842452406999293 $374 12.286587261269052 $191 $375 forward 7 unknown #
point $-1 51.344340342417674 -14.168638475643672 -5.3842452406999293 #
point $-1 51.344340342417674 -28.390519779840272 -5.3842452406999293 #
loop $-1 $-1 $203 $195 #
plane-surface $-1 -51.344340342417674 0 0 1 0 0 0 0 -1 forward_v I I I I #
coedge $-1 $292 $198 $200 $296 reversed $117 $-1 #
coedge $-1 $198 $291 $376 $377 reversed $117 $-1 #
coedge $-1 $206 $201 $198 $294 forward $196 $-1 #
edge $-1 $297 -21.342543939565253 $378 -15.866274150968557 $293 $379 forward 7 unknown #
coedge $-1 $200 $199 $300 $380 reversed $73 $-1 #
edge $-1 $381 -1.2080531203272332e-014 $297 9.3167868233890374 $291 $382 forward 7 unknown #
vertex $-1 $202 $383 #
straight-curve $-1 -45.868070553820985 -1.5246323503182229 12.286587261269052 0 1 0 I I #
coedge $-1 $376 $203 $206 $304 reversed $289 $-1 #
coedge $-1 $203 $376 $295 $380 forward $289 $-1 #
vertex $-1 $204 $384 #
straight-curve $-1 -51.344340342417674 -6.5214989056448296 32.554019619582398 0 0 1 I I #
straight-curve $-1 -51.344340342417667 -6.5214989056448296 4.749148311932295 -0.5877852410284794 0 -0.80901700255871778 I I #
edge $-1 $378 -0.42296950437193814 $207 6.5214989056448296 $299 $385 forward 7 unknown #
point $-1 -51.344340342417674 -6.5214989056448296 12.286587261269052 #
point $-1 -45.868070553820978 -6.5214989056448296 12.286587261269052 #
edge $-1 $386 1 $386 0 $210 $-1 forward 7 unknown #
vertex $-1 $211 $387 #
ellipse-curve $-1 -47.797188445560614 -4.5373650742114684 7.9300825455721933 -0.80901700255871778 0 0.5877852410284794 0.14694631025711985 0 0.20225425063967944 1 I I #
point $-1 -48.459259137862212 -4.5373650742114684 8.720122037240353 #
edge $-1 $388 1 $388 0 $214 $-1 forward 7 unknown #
vertex $-1 $215 $389 #
ellipse-curve $-1 -47.797188445560614 -1.5611643270614231 7.9300825455721933 -0.80901700255871778 0 0.5877852410284794 0.14694631025711985 0 0.20225425063967944 1 I I #
point $-1 -48.459259137862212 -1.5611643270614231 8.720122037240353 #
loop $-1 $-1 $226 $218 #
plane-surface $-1 -51.344340342417674 0 0 1 0 0 0 0 -1 forward_v I I I I #
coedge $-1 $318 $221 $223 $322 reversed $139 $-1 #
coedge $-1 $221 $317 $390 $391 reversed $139 $-1 #
coedge $-1 $229 $224 $221 $320 forward $219 $-1 #
edge $-1 $323 -21.342543939565253 $392 -15.866274150968557 $319 $393 forward 7 unknown #
coedge $-1 $223 $222 $326 $394 reversed $87 $-1 #
edge $-1 $395 -1.2080531203272332e-014 $323 9.3167868233890374 $317 $396 forward 7 unknown #
vertex $-1 $225 $397 #
straight-curve $-1 -45.868070553820985 9.1151572135527648 12.286587261269052 0 1 0 I I #
coedge $-1 $390 $226 $229 $330 reversed $315 $-1 #
coedge $-1 $226 $390 $321 $394 forward $315 $-1 #
vertex $-1 $227 $398 #
straight-curve $-1 -51.344340342417674 14.758080222097146 32.554019619582398 0 0 1 I I #
straight-curve $-1 -51.344340342417667 14.758080222097146 4.749148311932295 -0.5877852410284794 0 -0.80901700255871778 I I #
edge $-1 $392 -21.702548632113913 $230 -14.758080222097146 $325 $399 forward 7 unknown #
point $-1 -51.344340342417674 14.758080222097146 12.286587261269052 #
point $-1 -45.868070553820978 14.758080222097146 12.286587261269052 #
edge $-1 $400 1 $400 0 $233 $-1 forward 7 unknown #
vertex $-1 $234 $401 #
ellipse-curve $-1 -47.797188445560614 16.742214053530507 7.9300825455721933 -0.80901700255871778 0 0.5877852410284794 0.14694631025711985 0 0.20225425063967944 1 I I #
point $-1 -48.459259137862212 16.742214053530507 8.720122037240353 #
edge $-1 $402 1 $402 0 $237 $-1 forward 7 unknown #
vertex $-1 $238 $403 #
ellipse-curve $-1 -47.797188445560614 19.718414800680552 7.9300825455721933 -0.80901700255871778 0 0.5877852410284794 0.14694631025711985 0 0.20225425063967944 1 I I #
point $-1 -48.459259137862212 19.718414800680552 8.720122037240353 #
plane-surface $-1 51.344340342417674 0 0 -1 0 0 0 0 1 forward_v I I I I #
coedge $-1 $246 $244 $248 $346 reversed $161 $-1 #
edge $-1 $259 -12.286587261269052 $348 12.286587261269052 $258 $404 forward 7 unknown #
vertex $-1 $346 $405 #
straight-curve $-1 -51.344340342417674 -28.390519779840272 0 0 0 -1 I I #
edge $-1 $344 -28.390519779840272 $348 28.390519779840272 $342 $406 forward 7 unknown #
straight-curve $-1 0 -28.390519779840272 -12.286587261269052 -1 0 0 I I #
vertex $-1 $251 $407 #
straight-curve $-1 0 28.390519779840272 -12.286587261269052 1 0 0 I I #
point $-1 51.344340342417674 28.390519779840272 -12.286587261269052 #
point $-1 51.344340342417674 -28.390519779840272 -12.286587261269052 #
straight-curve $-1 -51.344340342417674 0 12.286587261269052 0 -1 0 I I #
point $-1 -51.344340342417674 28.390519779840272 12.286587261269052 #
point $-1 -51.344340342417674 -28.390519779840272 12.286587261269052 #
straight-curve $-1 51.344340342417674 -28.390519779840272 0 0 0 -1 I I #
straight-curve $-1 51.344340342417674 28.390519779840272 0 0 0 -1 I I #
loop $-1 $-1 $365 $268 #
plane-surface $-1 -51.344340342417674 0 0 1 0 0 0 0 -1 forward_v I I I I #
coedge $-1 $272 $271 $371 $408 forward $109 $-1 #
edge $-1 $276 14.168638475643672 $374 28.390519779840272 $275 $409 forward 7 unknown #
coedge $-1 $368 $365 $272 $362 reversed $357 $-1 #
edge $-1 $410 -28.390519779840272 $363 -14.168638475643672 $361 $411 forward 7 unknown #
vertex $-1 $366 $412 #
straight-curve $-1 0 -14.168638475643672 -12.286587261269052 1 0 0 I I #
coedge $-1 $361 $278 $274 $366 forward $357 $-1 #
edge $-1 $280 0.96653711520768404 $363 7.8688791357768064 $365 $413 forward 7 unknown #
point $-1 51.344340342417674 -14.168638475643672 -12.286587261269052 #
coedge $-1 $278 $361 $282 $372 reversed $357 $-1 #
straight-curve $-1 -51.344340342417674 -10.639789563870986 -5.3842452406999293 0 1 0 I I #
point $-1 -51.344340342417674 -14.168638475643672 -5.3842452406999293 #
coedge $-1 $283 $282 $359 $408 reversed $269 $-1 #
edge $-1 $284 5.3842452406999293 $410 12.286587261269052 $368 $414 forward 7 unknown #
point $-1 -51.344340342417674 -28.390519779840272 -5.3842452406999293 #
vertex $-1 $286 $415 #
straight-curve $-1 51.344340342417674 -28.390519779840272 0 0 0 -1 I I #
coedge $-1 $300 $299 $292 $377 forward $289 $-1 #
edge $-1 $378 20.267432358313346 $381 27.804871307650114 $376 $416 forward 7 unknown #
vertex $-1 $304 $417 #
straight-curve $-1 -67.210614493386231 0.42296950437193814 12.286587261269052 -1 0 0 I I #
edge $-1 $381 -1.947601854690161 $301 4.9968665553266067 $300 $418 forward 7 unknown #
vertex $-1 $380 $419 #
straight-curve $-1 -51.344340342417667 0.42296950437193814 4.749148311932295 0.5877852410284794 0 0.80901700255871778 I I #
point $-1 -45.868070553820978 0.42296950437193814 12.286587261269052 #
point $-1 -51.344340342417674 -6.5214989056448296 4.7491483119322853 #
straight-curve $-1 -51.344340342417674 0 12.286587261269052 0 -1 0 I I #
vertex $-1 $307 $420 #
point $-1 -47.650242135303493 -4.5373650742114684 8.1323367962118738 #
vertex $-1 $311 $421 #
point $-1 -47.650242135303493 -1.5611643270614231 8.1323367962118738 #
coedge $-1 $326 $325 $318 $391 forward $315 $-1 #
edge $-1 $392 20.267432358313346 $395 27.804871307650114 $390 $422 forward 7 unknown #
vertex $-1 $330 $423 #
straight-curve $-1 -67.210614493386231 21.702548632113913 12.286587261269052 -1 0 0 I I #
edge $-1 $395 -12.587391418561149 $327 -5.6429230085443809 $326 $424 forward 7 unknown #
vertex $-1 $394 $425 #
straight-curve $-1 -51.344340342417667 21.702548632113913 4.749148311932295 0.5877852410284794 0 0.80901700255871778 I I #
point $-1 -45.868070553820978 21.702548632113913 12.286587261269052 #
point $-1 -51.344340342417674 14.758080222097146 4.7491483119322853 #
straight-curve $-1 -51.344340342417674 0 12.286587261269052 0 -1 0 I I #
vertex $-1 $333 $426 #
point $-1 -47.650242135303493 16.742214053530507 8.1323367962118738 #
vertex $-1 $337 $427 #
point $-1 -47.650242135303493 19.718414800680552 8.1323367962118738 #
straight-curve $-1 -51.344340342417674 28.390519779840272 0 0 0 -1 I I #
point $-1 -51.344340342417674 -28.390519779840272 -12.286587261269052 #
straight-curve $-1 -51.344340342417674 0 -12.286587261269052 0 1 0 I I #
point $-1 -51.344340342417674 28.390519779840272 -12.286587261269052 #
edge $-1 $374 -51.344340342417674 $410 51.344340342417674 $371 $428 forward 7 unknown #
straight-curve $-1 51.344340342417674 0 -12.286587261269052 0 -1 0 I I #
vertex $-1 $362 $429 #
straight-curve $-1 -51.344340342417674 0 -12.286587261269052 0 1 0 I I #
point $-1 -51.344340342417674 -14.168638475643672 -12.286587261269052 #
straight-curve $-1 -51.344340342417674 -14.168638475643672 -4.4177081254922452 0 0 -1 I I #
straight-curve $-1 -51.344340342417674 -28.390519779840272 0 0 0 -1 I I #
point $-1 51.344340342417674 -28.390519779840272 -12.286587261269052 #
straight-curve $-1 -51.344340342417674 0.42296950437193814 32.554019619582398 0 0 -1 I I #
point $-1 -51.344340342417674 0.42296950437193814 12.286587261269052 #
straight-curve $-1 -51.344340342417674 -1.5246323503182229 4.749148311932279 0 -1 0 I I #
point $-1 -51.344340342417674 0.42296950437193814 4.7491483119322853 #
point $-1 -47.594934194920931 -4.5373650742114684 7.7831362353150739 #
point $-1 -47.594934194920931 -1.5611643270614231 7.7831362353150739 #
straight-curve $-1 -51.344340342417674 21.702548632113913 32.554019619582398 0 0 -1 I I #
point $-1 -51.344340342417674 21.702548632113913 12.286587261269052 #
straight-curve $-1 -51.344340342417674 9.1151572135527648 4.749148311932279 0 -1 0 I I #
point $-1 -51.344340342417674 21.702548632113913 4.7491483119322853 #
point $-1 -47.594934194920931 16.742214053530507 7.7831362353150739 #
point $-1 -47.594934194920931 19.718414800680552 7.7831362353150739 #
straight-curve $-1 0 -28.390519779840272 -12.286587261269052 -1 0 0 I I #
point $-1 -51.344340342417674 -28.390519779840272 -12.286587261269052 #
End-of-ACIS-data 