500 0 3 0           
7 Unknown 11 ACIS 5.0 NT 24 Fri Mar 26 20:36:48 1999 
-1 9.9999999999999995e-007 1e-010 
body $-1 $3 $-1 $4 #
body $-1 $5 $-1 $6 #
body $-1 $7 $-1 $8 #
lump $-1 $-1 $9 $0 #
transform $-1 1 0 0 0 1 0 0 0 1 65.591601306192203 33.779264312318254 13.951278413997786 1 rotate no_reflect no_shear #
lump $-1 $-1 $10 $1 #
transform $-1 1 0 0 0 1 0 0 0 1 65.591601306192203 33.779264312318254 13.951278413997786 1 rotate no_reflect no_shear #
lump $-1 $-1 $11 $2 #
transform $-1 1 0 0 0 1 0 0 0 1 65.591601306192203 33.779264312318254 13.951278413997786 1 rotate no_reflect no_shear #
shell $-1 $-1 $-1 $12 $-1 $3 #
shell $-1 $-1 $-1 $13 $-1 $5 #
shell $-1 $-1 $-1 $14 $-1 $7 #
face $-1 $15 $16 $9 $-1 $17 forward single #
face $-1 $18 $19 $10 $-1 $20 forward single #
face $-1 $21 $22 $11 $-1 $23 forward single #
face $-1 $24 $25 $9 $-1 $26 reversed single #
loop $-1 $-1 $27 $12 #
plane-surface $-1 0 0 13.951278413997786 0 0 1 1 0 0 forward_v I I I I #
face $-1 $28 $29 $10 $-1 $30 reversed single #
loop $-1 $-1 $31 $13 #
plane-surface $-1 -72.77940706937504 0 -7.0427834864839678 0 0 1 1 0 0 forward_v I I I I #
face $-1 $32 $33 $11 $-1 $34 forward single #
loop $-1 $-1 $35 $14 #
plane-surface $-1 48.387908492781868 -31.767958910545612 0 1 0 0 0 0 -1 forward_v I I I I #
face $-1 $36 $37 $9 $-1 $38 reversed single #
loop $-1 $-1 $39 $15 #
plane-surface $-1 0 0 -13.951278413997786 0 0 1 1 0 0 forward_v I I I I #
coedge $-1 $40 $41 $42 $43 forward $16 $-1 #
face $-1 $44 $45 $10 $-1 $46 forward single #
loop $-1 $-1 $47 $18 #
plane-surface $-1 -79.967212832557877 0 -10.497030950240877 1 0 0 0 0 -1 forward_v I I I I #
coedge $-1 $48 $49 $50 $51 reversed $19 $-1 #
face $-1 $52 $53 $11 $-1 $54 reversed single #
loop $-1 $-1 $55 $21 #
plane-surface $-1 56.989754899487039 -29.75665350877297 0 0 -1 0 0 0 -1 forward_v I I I I #
coedge $-1 $56 $57 $58 $59 reversed $22 $-1 #
face $-1 $60 $61 $9 $-1 $62 reversed single #
loop $-1 $-1 $63 $24 #
plane-surface $-1 0 -33.779264312318254 0 0 1 0 0 0 1 forward_v I I I I #
coedge $-1 $64 $65 $66 $67 forward $25 $-1 #
coedge $-1 $68 $27 $69 $70 forward $16 $-1 #
coedge $-1 $27 $68 $71 $72 forward $16 $-1 #
coedge $-1 $73 $74 $27 $43 reversed $75 $-1 #
edge $-1 $76 -33.779264312318254 $77 33.779264312318254 $42 $78 forward 7 unknown #
face $-1 $79 $80 $10 $-1 $81 reversed single #
loop $-1 $-1 $82 $28 #
plane-surface $-1 0 0 13.951278413997786 0 0 1 1 0 0 forward_v I I I I #
coedge $-1 $83 $84 $85 $86 forward $29 $-1 #
coedge $-1 $87 $31 $88 $89 forward $19 $-1 #
coedge $-1 $31 $87 $90 $91 forward $19 $-1 #
coedge $-1 $92 $93 $31 $51 forward $94 $-1 #
edge $-1 $95 -33.779264312318254 $96 33.779264312318254 $50 $97 forward 7 unknown #
face $-1 $98 $99 $11 $-1 $100 reversed single #
loop $-1 $-1 $101 $32 #
plane-surface $-1 65.591601306192203 0 0 -1 0 0 0 0 1 forward_v I I I I #
coedge $-1 $102 $103 $101 $104 reversed $33 $-1 #
coedge $-1 $105 $35 $106 $107 reversed $22 $-1 #
coedge $-1 $35 $105 $108 $109 reversed $22 $-1 #
coedge $-1 $103 $102 $35 $59 forward $33 $-1 #
edge $-1 $110 -13.951278413997786 $111 13.951278413997786 $58 $112 forward 7 unknown #
face $-1 $113 $114 $9 $-1 $115 reversed single #
loop $-1 $-1 $116 $36 #
plane-surface $-1 -65.591601306192203 0 0 1 0 0 0 0 -1 forward_v I I I I #
coedge $-1 $117 $71 $118 $119 forward $37 $-1 #
coedge $-1 $120 $39 $117 $121 forward $25 $-1 #
coedge $-1 $39 $120 $122 $123 forward $25 $-1 #
coedge $-1 $74 $73 $39 $67 reversed $75 $-1 #
edge $-1 $124 -33.779264312318254 $125 33.779264312318254 $66 $126 forward 7 unknown #
coedge $-1 $41 $40 $127 $128 forward $16 $-1 #
coedge $-1 $129 $130 $40 $70 reversed $114 $-1 #
edge $-1 $77 -65.591601306192203 $131 65.591601306192203 $69 $132 forward 7 unknown #
coedge $-1 $63 $133 $41 $72 reversed $37 $-1 #
edge $-1 $134 -65.591601306192203 $76 65.591601306192203 $71 $135 forward 7 unknown #
coedge $-1 $66 $42 $133 $136 forward $75 $-1 #
coedge $-1 $42 $66 $129 $137 reversed $75 $-1 #
loop $-1 $-1 $73 $113 #
vertex $-1 $43 $138 #
vertex $-1 $43 $139 #
straight-curve $-1 65.591601306192203 0 13.951278413997786 0 1 0 I I #
face $-1 $140 $141 $10 $-1 $142 reversed single #
loop $-1 $-1 $143 $44 #
plane-surface $-1 0 0 -13.951278413997786 0 0 1 1 0 0 forward_v I I I I #
coedge $-1 $144 $145 $146 $147 forward $45 $-1 #
coedge $-1 $148 $47 $149 $150 reversed $29 $-1 #
coedge $-1 $47 $148 $87 $151 reversed $29 $-1 #
coedge $-1 $88 $152 $47 $86 reversed $153 $-1 #
edge $-1 $154 -3.4542474637569089 $155 3.4542474637569089 $85 $156 forward 7 unknown #
coedge $-1 $49 $48 $84 $151 forward $19 $-1 #
coedge $-1 $157 $85 $48 $89 reversed $153 $-1 #
edge $-1 $95 -7.1878057631828369 $154 7.1878057631828369 $88 $158 forward 7 unknown #
coedge $-1 $159 $160 $49 $91 reversed $141 $-1 #
edge $-1 $161 -7.1878057631828369 $96 7.1878057631828369 $90 $162 forward 7 unknown #
coedge $-1 $163 $50 $160 $164 reversed $94 $-1 #
coedge $-1 $50 $163 $157 $165 forward $94 $-1 #
loop $-1 $-1 $50 $140 #
vertex $-1 $165 $166 #
vertex $-1 $91 $167 #
straight-curve $-1 -65.591601306192203 0 -7.0427834864839678 0 -1 0 I I #
face $-1 $168 $169 $11 $-1 $170 forward single #
loop $-1 $-1 $171 $52 #
plane-surface $-1 0 0 -13.951278413997786 0 0 1 1 0 0 forward_v I I I I #
coedge $-1 $172 $173 $55 $104 forward $53 $-1 #
coedge $-1 $58 $55 $174 $175 reversed $33 $-1 #
coedge $-1 $55 $58 $171 $176 reversed $33 $-1 #
edge $-1 $177 -13.951278413997786 $178 13.951278413997786 $101 $179 forward 7 unknown #
coedge $-1 $57 $56 $180 $181 reversed $22 $-1 #
coedge $-1 $174 $182 $56 $107 forward $183 $-1 #
edge $-1 $184 -17.895284857045446 $110 -13.872674053500164 $106 $185 forward 7 unknown #
coedge $-1 $186 $171 $57 $109 forward $99 $-1 #
edge $-1 $111 13.872674053500164 $187 17.895284857045446 $108 $188 forward 7 unknown #
vertex $-1 $107 $189 #
vertex $-1 $109 $190 #
straight-curve $-1 48.387908492781868 -29.75665350877297 0 0 0 -1 I I #
face $-1 $-1 $75 $9 $-1 $191 reversed single #
loop $-1 $-1 $129 $60 #
plane-surface $-1 0 33.779264312318254 0 0 -1 0 0 0 -1 forward_v I I I I #
coedge $-1 $192 $127 $130 $193 forward $61 $-1 #
coedge $-1 $133 $63 $64 $121 reversed $37 $-1 #
coedge $-1 $127 $192 $63 $119 reversed $61 $-1 #
edge $-1 $134 -13.951278413997786 $194 13.951278413997786 $118 $195 forward 7 unknown #
coedge $-1 $65 $64 $192 $196 forward $25 $-1 #
edge $-1 $125 -65.591601306192203 $194 65.591601306192203 $117 $197 forward 7 unknown #
coedge $-1 $130 $129 $65 $123 reversed $114 $-1 #
edge $-1 $198 -65.591601306192203 $124 65.591601306192203 $122 $199 forward 7 unknown #
vertex $-1 $67 $200 #
vertex $-1 $136 $201 #
straight-curve $-1 65.591601306192203 0 -13.951278413997786 0 -1 0 I I #
coedge $-1 $116 $118 $68 $128 reversed $61 $-1 #
edge $-1 $131 -33.779264312318254 $134 33.779264312318254 $127 $202 forward 7 unknown #
coedge $-1 $122 $69 $74 $137 forward $114 $-1 #
coedge $-1 $69 $122 $116 $193 reversed $114 $-1 #
vertex $-1 $70 $203 #
straight-curve $-1 0 33.779264312318254 13.951278413997786 -1 0 0 I I #
coedge $-1 $71 $117 $73 $136 reversed $37 $-1 #
vertex $-1 $128 $204 #
straight-curve $-1 0 -33.779264312318254 13.951278413997786 1 0 0 I I #
edge $-1 $76 -13.951278413997786 $125 13.951278413997786 $73 $205 forward 7 unknown #
edge $-1 $77 -13.951278413997786 $124 13.951278413997786 $74 $206 forward 7 unknown #
point $-1 65.591601306192203 -33.779264312318254 13.951278413997786 #
point $-1 65.591601306192203 33.779264312318254 13.951278413997786 #
face $-1 $207 $94 $10 $-1 $208 reversed single #
loop $-1 $-1 $160 $79 #
plane-surface $-1 0 -33.779264312318254 0 0 1 0 0 0 1 forward_v I I I I #
coedge $-1 $209 $210 $211 $212 forward $80 $-1 #
coedge $-1 $213 $82 $214 $215 forward $45 $-1 #
coedge $-1 $82 $213 $216 $217 forward $45 $-1 #
coedge $-1 $218 $219 $82 $147 reversed $220 $-1 #
edge $-1 $221 -33.779264312318254 $222 33.779264312318254 $146 $223 forward 7 unknown #
coedge $-1 $84 $83 $159 $224 reversed $29 $-1 #
coedge $-1 $210 $209 $83 $150 forward $80 $-1 #
edge $-1 $225 -33.779264312318254 $155 33.779264312318254 $83 $226 forward 7 unknown #
edge $-1 $154 -33.779264312318254 $161 33.779264312318254 $84 $227 forward 7 unknown #
coedge $-1 $85 $228 $210 $229 reversed $153 $-1 #
loop $-1 $-1 $228 $207 #
vertex $-1 $89 $230 #
vertex $-1 $229 $231 #
straight-curve $-1 -79.967212832557877 33.779264312318254 -10.497030950240877 0 0 -1 I I #
coedge $-1 $214 $88 $93 $165 reversed $153 $-1 #
straight-curve $-1 -72.77940706937504 33.779264312318254 -7.0427834864839678 -1 0 0 I I #
coedge $-1 $232 $90 $148 $224 forward $141 $-1 #
coedge $-1 $90 $216 $92 $164 forward $141 $-1 #
vertex $-1 $151 $233 #
straight-curve $-1 -72.77940706937504 -33.779264312318254 -7.0427834864839678 1 0 0 I I #
coedge $-1 $93 $92 $213 $234 reversed $94 $-1 #
edge $-1 $235 -13.951278413997786 $96 7.0427834864839678 $92 $236 forward 7 unknown #
edge $-1 $237 -13.951278413997786 $95 7.0427834864839678 $157 $238 forward 7 unknown #
point $-1 -65.591601306192203 33.779264312318254 -7.0427834864839678 #
point $-1 -65.591601306192203 -33.779264312318254 -7.0427834864839678 #
face $-1 $239 $240 $11 $-1 $241 reversed single #
loop $-1 $-1 $242 $98 #
plane-surface $-1 -72.77940706937504 0 -7.0427834864839678 0 0 1 1 0 0 forward_v I I I I #
coedge $-1 $108 $243 $103 $176 forward $99 $-1 #
coedge $-1 $244 $101 $243 $245 reversed $53 $-1 #
coedge $-1 $101 $244 $246 $247 reversed $53 $-1 #
coedge $-1 $246 $106 $102 $175 forward $183 $-1 #
edge $-1 $110 19.893031043038349 $177 37.096723856448698 $174 $248 forward 7 unknown #
edge $-1 $178 -37.096723856448698 $111 -19.893031043038349 $171 $249 forward 7 unknown #
vertex $-1 $247 $250 #
vertex $-1 $176 $251 #
straight-curve $-1 65.591601306192203 -29.75665350877297 0 0 0 -1 I I #
coedge $-1 $252 $253 $105 $181 forward $254 $-1 #
edge $-1 $187 -13.951278413997786 $184 13.951278413997786 $180 $255 forward 7 unknown #
coedge $-1 $106 $256 $252 $257 forward $183 $-1 #
loop $-1 $-1 $174 $239 #
vertex $-1 $181 $258 #
straight-curve $-1 48.387908492781868 -15.883979455272806 13.951278413997786 0 1 0 I I #
coedge $-1 $259 $108 $253 $260 forward $99 $-1 #
vertex $-1 $260 $261 #
straight-curve $-1 48.387908492781868 -15.883979455272806 -13.951278413997786 0 -1 0 I I #
point $-1 48.387908492781868 -29.75665350877297 13.951278413997786 #
point $-1 48.387908492781868 -29.75665350877297 -13.951278413997786 #
plane-surface $-1 65.591601306192203 0 0 -1 0 0 0 0 1 forward_v I I I I #
coedge $-1 $118 $116 $120 $196 reversed $61 $-1 #
edge $-1 $131 -13.951278413997786 $198 13.951278413997786 $130 $262 forward 7 unknown #
vertex $-1 $196 $263 #
straight-curve $-1 -65.591601306192203 -33.779264312318254 0 0 0 -1 I I #
edge $-1 $194 -33.779264312318254 $198 33.779264312318254 $192 $264 forward 7 unknown #
straight-curve $-1 0 -33.779264312318254 -13.951278413997786 -1 0 0 I I #
vertex $-1 $123 $265 #
straight-curve $-1 0 33.779264312318254 -13.951278413997786 1 0 0 I I #
point $-1 65.591601306192203 33.779264312318254 -13.951278413997786 #
point $-1 65.591601306192203 -33.779264312318254 -13.951278413997786 #
straight-curve $-1 -65.591601306192203 0 13.951278413997786 0 -1 0 I I #
point $-1 -65.591601306192203 33.779264312318254 13.951278413997786 #
point $-1 -65.591601306192203 -33.779264312318254 13.951278413997786 #
straight-curve $-1 65.591601306192203 -33.779264312318254 0 0 0 -1 I I #
straight-curve $-1 65.591601306192203 33.779264312318254 0 0 0 -1 I I #
face $-1 $266 $153 $10 $-1 $267 reversed single #
plane-surface $-1 -65.591601306192203 0 0 1 0 0 0 0 -1 forward_v I I I I #
coedge $-1 $149 $143 $232 $268 forward $80 $-1 #
coedge $-1 $143 $149 $152 $229 forward $80 $-1 #
coedge $-1 $219 $218 $143 $212 reversed $220 $-1 #
edge $-1 $269 -33.779264312318254 $270 33.779264312318254 $211 $271 forward 7 unknown #
coedge $-1 $145 $144 $163 $234 forward $45 $-1 #
coedge $-1 $228 $157 $144 $215 reversed $153 $-1 #
edge $-1 $222 -65.591601306192203 $237 65.591601306192203 $214 $272 forward 7 unknown #
coedge $-1 $160 $273 $145 $217 reversed $141 $-1 #
edge $-1 $235 -65.591601306192203 $221 65.591601306192203 $216 $274 forward 7 unknown #
coedge $-1 $211 $146 $273 $275 forward $220 $-1 #
coedge $-1 $146 $211 $228 $276 reversed $220 $-1 #
loop $-1 $-1 $218 $266 #
vertex $-1 $147 $277 #
vertex $-1 $147 $278 #
straight-curve $-1 65.591601306192203 0 13.951278413997786 0 1 0 I I #
edge $-1 $161 -3.4542474637569089 $225 3.4542474637569089 $148 $279 forward 7 unknown #
vertex $-1 $150 $280 #
straight-curve $-1 -79.967212832557877 0 -13.951278413997786 0 1 0 I I #
straight-curve $-1 -79.967212832557877 0 -7.0427834864839678 0 -1 0 I I #
coedge $-1 $152 $214 $219 $276 forward $153 $-1 #
edge $-1 $155 -79.967212832557877 $269 65.591601306192203 $152 $281 forward 7 unknown #
point $-1 -79.967212832557877 33.779264312318254 -7.0427834864839678 #
point $-1 -79.967212832557877 33.779264312318254 -13.951278413997786 #
coedge $-1 $273 $159 $209 $268 reversed $141 $-1 #
point $-1 -79.967212832557877 -33.779264312318254 -7.0427834864839678 #
edge $-1 $237 -33.779264312318254 $235 33.779264312318254 $163 $282 forward 7 unknown #
vertex $-1 $234 $283 #
straight-curve $-1 -65.591601306192203 -33.779264312318254 0 0 0 -1 I I #
vertex $-1 $215 $284 #
straight-curve $-1 -65.591601306192203 33.779264312318254 0 0 0 -1 I I #
face $-1 $285 $183 $11 $-1 $286 forward single #
loop $-1 $-1 $287 $168 #
plane-surface $-1 -79.967212832557877 0 -10.497030950240877 1 0 0 0 0 -1 forward_v I I I I #
coedge $-1 $288 $289 $290 $291 reversed $169 $-1 #
coedge $-1 $171 $292 $172 $245 forward $99 $-1 #
coedge $-1 $173 $172 $293 $294 reversed $53 $-1 #
edge $-1 $295 -33.779264312318254 $178 29.75665350877297 $172 $296 forward 7 unknown #
coedge $-1 $297 $174 $173 $247 forward $183 $-1 #
edge $-1 $177 -29.75665350877297 $298 33.779264312318254 $173 $299 forward 7 unknown #
straight-curve $-1 28.49487744974352 -29.75665350877297 13.951278413997786 1 0 0 I I #
straight-curve $-1 28.49487744974352 -29.75665350877297 -13.951278413997786 -1 0 0 I I #
point $-1 65.591601306192217 -29.75665350877297 13.951278413997786 #
point $-1 65.591601306192217 -29.75665350877297 -13.951278413997786 #
coedge $-1 $300 $180 $182 $257 reversed $254 $-1 #
coedge $-1 $180 $301 $186 $260 reversed $254 $-1 #
loop $-1 $-1 $180 $285 #
straight-curve $-1 48.387908492781868 -33.779264312318254 0 0 0 1 I I #
coedge $-1 $182 $297 $302 $303 forward $183 $-1 #
edge $-1 $304 -65.591601306192203 $184 48.387908492781868 $252 $305 forward 7 unknown #
point $-1 48.387908492781868 -33.779264312318254 13.951278413997786 #
coedge $-1 $292 $186 $306 $307 forward $99 $-1 #
edge $-1 $187 -121.16731556215692 $308 7.1878057631828369 $253 $309 forward 7 unknown #
point $-1 48.387908492781868 -33.779264312318254 -13.951278413997786 #
straight-curve $-1 -65.591601306192203 33.779264312318254 0 0 0 -1 I I #
point $-1 -65.591601306192203 -33.779264312318254 -13.951278413997786 #
straight-curve $-1 -65.591601306192203 0 -13.951278413997786 0 1 0 I I #
point $-1 -65.591601306192203 33.779264312318254 -13.951278413997786 #
face $-1 $-1 $220 $10 $-1 $310 reversed single #
plane-surface $-1 0 33.779264312318254 0 0 -1 0 0 0 -1 forward_v I I I I #
edge $-1 $270 -138.37100837556724 $225 7.1878057631828369 $232 $311 forward 7 unknown #
vertex $-1 $212 $312 #
vertex $-1 $275 $313 #
straight-curve $-1 65.591601306192203 0 -13.951278413997786 0 -1 0 I I #
straight-curve $-1 0 33.779264312318254 13.951278413997786 -1 0 0 I I #
coedge $-1 $216 $232 $218 $275 reversed $141 $-1 #
straight-curve $-1 0 -33.779264312318254 13.951278413997786 1 0 0 I I #
edge $-1 $221 -13.951278413997786 $270 13.951278413997786 $218 $314 forward 7 unknown #
edge $-1 $222 -13.951278413997786 $269 13.951278413997786 $219 $315 forward 7 unknown #
point $-1 65.591601306192203 -33.779264312318254 13.951278413997786 #
point $-1 65.591601306192203 33.779264312318254 13.951278413997786 #
straight-curve $-1 -79.967212832557877 -33.779264312318254 -10.497030950240877 0 0 -1 I I #
point $-1 -79.967212832557877 -33.779264312318254 -13.951278413997786 #
straight-curve $-1 0 33.779264312318254 -13.951278413997786 1 0 0 I I #
straight-curve $-1 -65.591601306192203 0 13.951278413997786 0 -1 0 I I #
point $-1 -65.591601306192203 -33.779264312318254 13.951278413997786 #
point $-1 -65.591601306192203 33.779264312318254 13.951278413997786 #
face $-1 $316 $254 $11 $-1 $317 reversed single #
plane-surface $-1 0 0 13.951278413997786 0 0 1 1 0 0 forward_v I I I I #
coedge $-1 $306 $318 $319 $320 forward $240 $-1 #
coedge $-1 $321 $242 $322 $323 forward $169 $-1 #
coedge $-1 $242 $321 $324 $325 forward $169 $-1 #
coedge $-1 $326 $327 $242 $291 forward $328 $-1 #
edge $-1 $329 -33.779264312318254 $330 33.779264312318254 $290 $331 forward 7 unknown #
coedge $-1 $243 $259 $332 $333 forward $99 $-1 #
coedge $-1 $332 $334 $244 $294 forward $335 $-1 #
edge $-1 $298 -13.951278413997786 $295 13.951278413997786 $244 $336 forward 7 unknown #
vertex $-1 $245 $337 #
straight-curve $-1 65.591601306192203 0 -13.951278413997786 0 -1 0 I I #
coedge $-1 $256 $246 $334 $338 forward $183 $-1 #
vertex $-1 $247 $339 #
straight-curve $-1 65.591601306192203 0 13.951278413997786 0 1 0 I I #
coedge $-1 $324 $252 $326 $340 forward $254 $-1 #
coedge $-1 $253 $324 $341 $342 forward $254 $-1 #
coedge $-1 $327 $326 $256 $303 reversed $328 $-1 #
edge $-1 $343 -33.779264312318254 $304 33.779264312318254 $302 $344 forward 7 unknown #
vertex $-1 $303 $345 #
straight-curve $-1 0 -33.779264312318254 13.951278413997786 1 0 0 I I #
coedge $-1 $341 $287 $259 $307 reversed $240 $-1 #
edge $-1 $308 -33.779264312318254 $346 33.779264312318254 $306 $347 forward 7 unknown #
vertex $-1 $307 $348 #
straight-curve $-1 -72.77940706937504 -33.779264312318254 -13.951278413997786 -1 0 0 I I #
plane-surface $-1 65.591601306192203 0 0 -1 0 0 0 0 1 forward_v I I I I #
straight-curve $-1 -72.77940706937504 -33.779264312318254 -13.951278413997786 -1 0 0 I I #
point $-1 65.591601306192203 33.779264312318254 -13.951278413997786 #
point $-1 65.591601306192203 -33.779264312318254 -13.951278413997786 #
straight-curve $-1 65.591601306192203 -33.779264312318254 0 0 0 -1 I I #
straight-curve $-1 65.591601306192203 33.779264312318254 0 0 0 -1 I I #
face $-1 $349 $328 $11 $-1 $350 reversed single #
plane-surface $-1 0 -33.779264312318254 0 0 1 0 0 0 1 forward_v I I I I #
coedge $-1 $287 $341 $321 $351 reversed $240 $-1 #
coedge $-1 $322 $332 $287 $320 reversed $335 $-1 #
edge $-1 $352 -3.4542474637569089 $346 3.4542474637569089 $319 $353 forward 7 unknown #
coedge $-1 $289 $288 $318 $351 forward $169 $-1 #
coedge $-1 $354 $319 $288 $323 reversed $335 $-1 #
edge $-1 $329 -7.1878057631828369 $352 7.1878057631828369 $322 $355 forward 7 unknown #
coedge $-1 $301 $300 $289 $325 reversed $254 $-1 #
edge $-1 $356 -7.1878057631828369 $330 7.1878057631828369 $324 $357 forward 7 unknown #
coedge $-1 $302 $290 $300 $340 reversed $328 $-1 #
coedge $-1 $290 $302 $354 $358 forward $328 $-1 #
loop $-1 $-1 $290 $316 #
vertex $-1 $358 $359 #
vertex $-1 $325 $360 #
straight-curve $-1 -65.591601306192203 0 -7.0427834864839678 0 -1 0 I I #
coedge $-1 $319 $293 $292 $333 reversed $335 $-1 #
edge $-1 $346 -79.967212832557877 $295 65.591601306192203 $332 $361 forward 7 unknown #
coedge $-1 $293 $354 $297 $338 reversed $335 $-1 #
loop $-1 $-1 $293 $349 #
straight-curve $-1 65.591601306192203 33.779264312318254 0 0 0 -1 I I #
point $-1 65.591601306192203 33.779264312318254 -13.951278413997786 #
edge $-1 $298 -65.591601306192203 $343 65.591601306192203 $334 $362 forward 7 unknown #
point $-1 65.591601306192203 33.779264312318254 13.951278413997786 #
edge $-1 $304 -13.951278413997786 $330 7.0427834864839678 $326 $363 forward 7 unknown #
coedge $-1 $318 $306 $301 $342 reversed $240 $-1 #
edge $-1 $356 -3.4542474637569089 $308 3.4542474637569089 $341 $364 forward 7 unknown #
vertex $-1 $338 $365 #
straight-curve $-1 -65.591601306192203 0 13.951278413997786 0 -1 0 I I #
point $-1 -65.591601306192203 -33.779264312318254 13.951278413997786 #
vertex $-1 $333 $366 #
straight-curve $-1 -79.967212832557877 0 -13.951278413997786 0 1 0 I I #
point $-1 -79.967212832557877 -33.779264312318254 -13.951278413997786 #
face $-1 $-1 $335 $11 $-1 $367 reversed single #
plane-surface $-1 -65.591601306192203 0 0 1 0 0 0 0 -1 forward_v I I I I #
edge $-1 $352 -33.779264312318254 $356 33.779264312318254 $318 $368 forward 7 unknown #
vertex $-1 $323 $369 #
straight-curve $-1 -79.967212832557877 33.779264312318254 -10.497030950240877 0 0 -1 I I #
coedge $-1 $334 $322 $327 $358 reversed $335 $-1 #
straight-curve $-1 -72.77940706937504 33.779264312318254 -7.0427834864839678 -1 0 0 I I #
vertex $-1 $351 $370 #
straight-curve $-1 -72.77940706937504 -33.779264312318254 -7.0427834864839678 1 0 0 I I #
edge $-1 $343 -13.951278413997786 $329 7.0427834864839678 $354 $371 forward 7 unknown #
point $-1 -65.591601306192203 33.779264312318254 -7.0427834864839678 #
point $-1 -65.591601306192203 -33.779264312318254 -7.0427834864839678 #
straight-curve $-1 0 33.779264312318254 -13.951278413997786 1 0 0 I I #
straight-curve $-1 0 33.779264312318254 13.951278413997786 -1 0 0 I I #
straight-curve $-1 -65.591601306192203 -33.779264312318254 0 0 0 -1 I I #
straight-curve $-1 -79.967212832557877 -33.779264312318254 -10.497030950240877 0 0 -1 I I #
point $-1 -65.591601306192203 33.779264312318254 13.951278413997786 #
point $-1 -79.967212832557877 33.779264312318254 -13.951278413997786 #
plane-surface $-1 0 33.779264312318254 0 0 -1 0 0 0 -1 forward_v I I I I #
straight-curve $-1 -79.967212832557877 0 -7.0427834864839678 0 -1 0 I I #
point $-1 -79.967212832557877 33.779264312318254 -7.0427834864839678 #
point $-1 -79.967212832557877 -33.779264312318254 -7.0427834864839678 #
straight-curve $-1 -65.591601306192203 33.779264312318254 0 0 0 -1 I I #
End-of-ACIS-data 