500 0 9 0           
7 Unknown 11 ACIS 5.0 NT 24 Fri Mar 26 17:30:07 1999 
-1 9.9999999999999995e-007 1e-010 
body $-1 $9 $-1 $10 #
body $-1 $11 $-1 $12 #
body $-1 $13 $-1 $14 #
body $-1 $15 $-1 $16 #
body $-1 $17 $-1 $18 #
body $-1 $19 $-1 $20 #
body $-1 $21 $-1 $22 #
body $-1 $23 $-1 $24 #
body $-1 $25 $-1 $26 #
lump $-1 $-1 $27 $0 #
transform $-1 1 0 0 0 1 0 0 0 1 46.14764854884487 27.843790120245451 8.1075590049828765 1 rotate no_reflect no_shear #
lump $-1 $-1 $28 $1 #
transform $-1 1 0 0 0 1 0 0 0 1 46.14764854884487 27.843790120245451 8.1075590049828765 1 rotate no_reflect no_shear #
lump $-1 $-1 $29 $2 #
transform $-1 1 0 0 0 1 0 0 0 1 46.14764854884487 27.843790120245451 8.1075590049828765 1 rotate no_reflect no_shear #
lump $-1 $-1 $30 $3 #
transform $-1 1 0 0 0 1 0 0 0 1 46.14764854884487 27.843790120245451 8.1075590049828765 1 rotate no_reflect no_shear #
lump $-1 $-1 $31 $4 #
transform $-1 1 0 0 0 1 0 0 0 1 46.14764854884487 27.843790120245451 8.1075590049828765 1 rotate no_reflect no_shear #
lump $-1 $-1 $32 $5 #
transform $-1 1 0 0 0 1 0 0 0 1 46.14764854884487 27.843790120245451 8.1075590049828765 1 rotate no_reflect no_shear #
lump $-1 $-1 $33 $6 #
transform $-1 1 0 0 0 1 0 0 0 1 46.14764854884487 27.843790120245451 8.1075590049828765 1 rotate no_reflect no_shear #
lump $-1 $-1 $34 $7 #
transform $-1 1 0 0 0 1 0 0 0 1 46.14764854884487 27.843790120245451 8.1075590049828765 1 rotate no_reflect no_shear #
lump $-1 $-1 $35 $8 #
transform $-1 1 0 0 0 1 0 0 0 1 46.14764854884487 27.843790120245451 8.1075590049828765 1 rotate no_reflect no_shear #
shell $-1 $-1 $-1 $36 $-1 $9 #
shell $-1 $-1 $-1 $37 $-1 $11 #
shell $-1 $-1 $-1 $38 $-1 $13 #
shell $-1 $-1 $-1 $39 $-1 $15 #
shell $-1 $-1 $-1 $40 $-1 $17 #
shell $-1 $-1 $-1 $41 $-1 $19 #
shell $-1 $-1 $-1 $42 $-1 $21 #
shell $-1 $-1 $-1 $43 $-1 $23 #
shell $-1 $-1 $-1 $44 $-1 $25 #
face $-1 $45 $46 $27 $-1 $47 forward single #
face $-1 $48 $49 $28 $-1 $50 reversed single #
face $-1 $51 $52 $29 $-1 $53 reversed single #
face $-1 $54 $55 $30 $-1 $56 reversed single #
face $-1 $57 $58 $31 $-1 $59 forward single #
face $-1 $60 $61 $32 $-1 $62 forward single #
face $-1 $63 $64 $33 $-1 $65 reversed single #
face $-1 $66 $67 $34 $-1 $68 forward single #
face $-1 $69 $70 $35 $-1 $71 forward single #
face $-1 $72 $73 $27 $-1 $74 reversed single #
loop $-1 $-1 $75 $36 #
plane-surface $-1 0 0 8.1075590049828765 0 0 1 1 0 0 forward_v I I I I #
face $-1 $76 $77 $28 $-1 $78 reversed single #
loop $-1 $-1 $79 $37 #
plane-surface $-1 0 -17.92779538086031 6.6075590049828765 0 -1 0 0 0 -1 forward_v I I I I #
face $-1 $80 $81 $29 $-1 $82 reversed single #
loop $-1 $-1 $83 $38 #
plane-surface $-1 0 22.885792750552881 5.1075590049828765 0 0 1 1 0 0 forward_v I I I I #
face $-1 $84 $85 $30 $-1 $86 reversed single #
loop $-1 $-1 $87 $39 #
plane-surface $-1 -46.14764854884487 -14.507174870297067 0.83564634619321509 -0.80901700255871778 0 0.5877852410284794 0.5877852410284794 0 0.80901700255871778 forward_v I I I I #
face $-1 $88 $89 $31 $-1 $90 forward single #
loop $-1 $91 $92 $40 #
cone-surface $-1 -43.101463221635946 -15.973155089109884 4.1777100550738098 0.80901700255871778 0 -0.5877852410284794 0.2938926205142397 0 0.40450850127935889 1 I I 0 1 0.5 forward I I I I #
face $-1 $93 $94 $32 $-1 $95 forward single #
loop $-1 $96 $97 $41 #
cone-surface $-1 -43.101463221635946 -13.04119465148425 4.1777100550738098 0.80901700255871778 0 -0.5877852410284794 0.2938926205142397 0 0.40450850127935889 1 I I 0 1 0.5 forward I I I I #
face $-1 $98 $99 $33 $-1 $100 reversed single #
loop $-1 $-1 $101 $42 #
plane-surface $-1 16.785854540473899 10.043287338443582 128.56220743976897 0 -1 0 -0.52991927123019833 0 -0.84804809178421925 forward_v I I I I #
face $-1 $102 $103 $34 $-1 $104 forward single #
loop $-1 $105 $106 $43 #
cone-surface $-1 40.370243879867317 4.9217239375683803 4.1110805317046557 -0.52991927123019833 0 -0.84804809178421925 0.42402404589210962 0 -0.26495963561509916 1 I I 0 1 0.5 forward I I I I #
face $-1 $107 $108 $35 $-1 $109 forward single #
loop $-1 $110 $111 $44 #
cone-surface $-1 40.370243879867317 7.9946619780935038 4.1110805317046557 -0.52991927123019833 0 -0.84804809178421925 0.42402404589210962 0 -0.26495963561509916 1 I I 0 1 0.5 forward I I I I #
face $-1 $112 $113 $27 $-1 $114 reversed single #
loop $-1 $-1 $115 $45 #
plane-surface $-1 0 0 -8.1075590049828765 0 0 1 1 0 0 forward_v I I I I #
coedge $-1 $116 $117 $118 $119 forward $46 $-1 #
face $-1 $120 $121 $28 $-1 $122 reversed single #
loop $-1 $-1 $123 $48 #
plane-surface $-1 0 -22.885792750552881 5.1075590049828765 0 0 1 1 0 0 forward_v I I I I #
coedge $-1 $124 $125 $126 $127 reversed $49 $-1 #
face $-1 $128 $129 $29 $-1 $130 forward single #
loop $-1 $-1 $131 $51 #
plane-surface $-1 0 17.92779538086031 6.6075590049828765 0 1 0 0 0 1 forward_v I I I I #
coedge $-1 $132 $133 $134 $135 reversed $52 $-1 #
face $-1 $136 $137 $30 $-1 $138 reversed single #
loop $-1 $-1 $139 $54 #
plane-surface $-1 -120.81611315708415 -11.086554359733828 55.085459796553891 0 -1 0 0.80901700255871778 0 -0.5877852410284794 forward_v I I I I #
coedge $-1 $140 $141 $142 $143 reversed $55 $-1 #
face $-1 $-1 $144 $31 $-1 $145 forward single #
loop $-1 $146 $147 $57 #
cone-surface $-1 -42.494700469716911 -15.973155089109884 3.7368711243024499 0.80901700255871778 0 -0.5877852410284794 0.14694631025711985 0 0.20225425063967944 1 I I -0.70710678118654746 0.70710678118654746 0.25 forward I I I I #
loop $-1 $-1 $148 $40 #
coedge $-1 $92 $92 $149 $150 reversed $58 $-1 #
face $-1 $-1 $151 $32 $-1 $152 forward single #
loop $-1 $153 $154 $60 #
cone-surface $-1 -42.494700469716911 -13.04119465148425 3.7368711243024499 0.80901700255871778 0 -0.5877852410284794 0.14694631025711985 0 0.20225425063967944 1 I I -0.70710678118654746 0.70710678118654746 0.25 forward I I I I #
loop $-1 $-1 $155 $41 #
coedge $-1 $97 $97 $156 $157 reversed $61 $-1 #
face $-1 $158 $159 $33 $-1 $160 reversed single #
loop $-1 $-1 $161 $63 #
plane-surface $-1 -32.123202035508484 6.4581929578309385 50.2913568554156 0.52991927123019833 0 0.84804809178421925 0.84804809178421925 0 -0.52991927123019833 forward_v I I I I #
coedge $-1 $162 $163 $164 $165 reversed $64 $-1 #
face $-1 $-1 $166 $34 $-1 $167 forward single #
loop $-1 $168 $169 $66 #
cone-surface $-1 39.841691171899512 4.9217239375683803 3.2652193982552173 -0.52991927123019833 0 -0.84804809178421925 0.21201202294605481 0 -0.13247981780754958 1 I I -0.70710678118654746 0.70710678118654746 0.25 forward I I I I #
loop $-1 $-1 $170 $43 #
coedge $-1 $106 $106 $171 $172 reversed $67 $-1 #
face $-1 $-1 $173 $35 $-1 $174 forward single #
loop $-1 $175 $176 $69 #
cone-surface $-1 39.841691171899512 7.9946619780935038 3.2652193982552173 -0.52991927123019833 0 -0.84804809178421925 0.21201202294605481 0 -0.13247981780754958 1 I I -0.70710678118654746 0.70710678118654746 0.25 forward I I I I #
loop $-1 $-1 $177 $44 #
coedge $-1 $111 $111 $178 $179 reversed $70 $-1 #
face $-1 $180 $181 $27 $-1 $182 reversed single #
loop $-1 $-1 $183 $72 #
plane-surface $-1 0 -27.843790120245451 0 0 1 0 0 0 1 forward_v I I I I #
coedge $-1 $184 $185 $186 $187 forward $73 $-1 #
coedge $-1 $188 $75 $189 $190 forward $46 $-1 #
coedge $-1 $75 $188 $191 $192 forward $46 $-1 #
coedge $-1 $193 $194 $75 $119 reversed $195 $-1 #
edge $-1 $196 -27.843790120245451 $197 27.843790120245451 $118 $198 forward 7 unknown #
face $-1 $199 $200 $28 $-1 $201 reversed single #
loop $-1 $-1 $202 $76 #
plane-surface $-1 -46.14764854884487 0 0 1 0 0 0 0 -1 forward_v I I I I #
coedge $-1 $203 $204 $205 $206 reversed $77 $-1 #
coedge $-1 $207 $79 $208 $209 reversed $49 $-1 #
coedge $-1 $79 $207 $202 $210 reversed $49 $-1 #
coedge $-1 $211 $212 $79 $127 forward $213 $-1 #
edge $-1 $214 -46.14764854884487 $215 46.14764854884487 $126 $216 forward 7 unknown #
face $-1 $217 $218 $29 $-1 $219 reversed single #
loop $-1 $-1 $220 $80 #
plane-surface $-1 0 0 8.1075590049828765 0 0 1 1 0 0 forward_v I I I I #
coedge $-1 $221 $222 $223 $224 reversed $81 $-1 #
coedge $-1 $225 $83 $221 $226 forward $52 $-1 #
coedge $-1 $83 $225 $227 $228 reversed $52 $-1 #
coedge $-1 $229 $230 $83 $135 forward $218 $-1 #
edge $-1 $231 6.4848990055838698 $232 16.400893744969011 $134 $233 forward 7 unknown #
face $-1 $234 $235 $30 $-1 $236 forward single #
loop $-1 $-1 $237 $84 #
plane-surface $-1 -46.14764854884487 0 0 1 0 0 0 0 -1 forward_v I I I I #
coedge $-1 $238 $239 $240 $241 reversed $85 $-1 #
coedge $-1 $242 $87 $243 $244 reversed $55 $-1 #
coedge $-1 $87 $242 $238 $245 forward $55 $-1 #
coedge $-1 $240 $246 $87 $143 forward $235 $-1 #
edge $-1 $247 -10.674207945711773 $248 -3.8329669245852944 $142 $249 forward 7 unknown #
loop $-1 $-1 $149 $88 #
plane-surface $-1 -46.14764854884487 -14.507174870297067 0.83564634619321509 -0.80901700255871778 0 0.5877852410284794 0.5877852410284794 0 0.80901700255871778 forward_v I I I I #
loop $-1 $-1 $250 $57 #
coedge $-1 $147 $147 $148 $251 reversed $89 $-1 #
coedge $-1 $148 $148 $147 $251 forward $91 $-1 #
coedge $-1 $149 $149 $92 $150 forward $144 $-1 #
edge $-1 $252 0 $252 6.2831853071796004 $149 $253 forward 7 unknown #
loop $-1 $-1 $156 $93 #
plane-surface $-1 -46.14764854884487 -14.507174870297067 0.83564634619321509 -0.80901700255871778 0 0.5877852410284794 0.5877852410284794 0 0.80901700255871778 forward_v I I I I #
loop $-1 $-1 $254 $60 #
coedge $-1 $154 $154 $155 $255 reversed $94 $-1 #
coedge $-1 $155 $155 $154 $255 forward $96 $-1 #
coedge $-1 $156 $156 $97 $157 forward $151 $-1 #
edge $-1 $256 0 $256 6.2831853071796004 $156 $257 forward 7 unknown #
face $-1 $258 $259 $33 $-1 $260 forward single #
loop $-1 $-1 $261 $98 #
plane-surface $-1 16.785854540473899 2.8730985772182951 128.56220743976897 0 1 0 0.52991927123019833 0 0.84804809178421925 forward_v I I I I #
coedge $-1 $262 $263 $264 $265 reversed $99 $-1 #
coedge $-1 $163 $101 $266 $267 reversed $64 $-1 #
coedge $-1 $101 $162 $262 $268 reversed $64 $-1 #
coedge $-1 $264 $269 $101 $165 forward $259 $-1 #
edge $-1 $270 -37.754721278607917 $271 -26.992057720973296 $164 $272 forward 7 unknown #
loop $-1 $-1 $171 $102 #
plane-surface $-1 -32.123202035508484 6.4581929578309385 50.2913568554156 0.52991927123019833 0 0.84804809178421925 0.84804809178421925 0 -0.52991927123019833 forward_v I I I I #
loop $-1 $-1 $273 $66 #
coedge $-1 $169 $169 $170 $274 reversed $103 $-1 #
coedge $-1 $170 $170 $169 $274 forward $105 $-1 #
coedge $-1 $171 $171 $106 $172 forward $166 $-1 #
edge $-1 $275 0 $275 6.2831853071796004 $171 $276 forward 7 unknown #
loop $-1 $-1 $178 $107 #
plane-surface $-1 -32.123202035508484 6.4581929578309385 50.2913568554156 0.52991927123019833 0 0.84804809178421925 0.84804809178421925 0 -0.52991927123019833 forward_v I I I I #
loop $-1 $-1 $277 $69 #
coedge $-1 $176 $176 $177 $278 reversed $108 $-1 #
coedge $-1 $177 $177 $176 $278 forward $110 $-1 #
coedge $-1 $178 $178 $111 $179 forward $173 $-1 #
edge $-1 $279 0 $279 6.2831853071796004 $178 $280 forward 7 unknown #
face $-1 $281 $282 $27 $-1 $283 reversed single #
loop $-1 $-1 $284 $112 #
plane-surface $-1 -46.14764854884487 0 0 1 0 0 0 0 -1 forward_v I I I I #
coedge $-1 $285 $191 $286 $287 forward $113 $-1 #
coedge $-1 $288 $115 $285 $289 forward $73 $-1 #
coedge $-1 $115 $288 $290 $291 forward $73 $-1 #
coedge $-1 $194 $193 $115 $187 reversed $195 $-1 #
edge $-1 $292 -27.843790120245451 $293 27.843790120245451 $186 $294 forward 7 unknown #
coedge $-1 $117 $116 $295 $296 forward $46 $-1 #
coedge $-1 $297 $298 $116 $190 reversed $282 $-1 #
edge $-1 $197 -46.14764854884487 $299 46.14764854884487 $189 $300 forward 7 unknown #
coedge $-1 $183 $301 $117 $192 reversed $113 $-1 #
edge $-1 $302 -46.14764854884487 $196 46.14764854884487 $191 $303 forward 7 unknown #
coedge $-1 $186 $118 $301 $304 forward $195 $-1 #
coedge $-1 $118 $186 $297 $305 reversed $195 $-1 #
loop $-1 $-1 $193 $281 #
vertex $-1 $119 $306 #
vertex $-1 $119 $307 #
straight-curve $-1 46.14764854884487 0 8.1075590049828765 0 1 0 I I #
face $-1 $308 $213 $28 $-1 $309 forward single #
loop $-1 $-1 $310 $120 #
plane-surface $-1 0 -27.843790120245451 0 0 1 0 0 0 1 forward_v I I I I #
coedge $-1 $311 $312 $125 $210 forward $121 $-1 #
coedge $-1 $313 $123 $310 $314 reversed $77 $-1 #
coedge $-1 $123 $313 $207 $315 forward $77 $-1 #
coedge $-1 $208 $316 $123 $206 forward $317 $-1 #
edge $-1 $318 -16.400893744969011 $319 -6.4848990055838698 $205 $320 forward 7 unknown #
coedge $-1 $125 $124 $204 $315 reversed $49 $-1 #
coedge $-1 $321 $205 $124 $209 forward $317 $-1 #
edge $-1 $319 1.8037795024914383 $214 4.8037795024914383 $208 $322 forward 7 unknown #
edge $-1 $215 -4.8037795024914383 $323 -1.8037795024914383 $202 $324 forward 7 unknown #
coedge $-1 $325 $126 $312 $326 forward $213 $-1 #
coedge $-1 $126 $325 $321 $327 forward $213 $-1 #
loop $-1 $-1 $126 $199 #
vertex $-1 $209 $328 #
vertex $-1 $326 $329 #
straight-curve $-1 0 -17.92779538086031 8.1075590049828765 -1 0 0 I I #
face $-1 $330 $331 $29 $-1 $332 reversed single #
loop $-1 $-1 $230 $128 #
plane-surface $-1 46.14764854884487 0 0 -1 0 0 0 0 1 forward_v I I I I #
coedge $-1 $333 $334 $222 $335 forward $129 $-1 #
coedge $-1 $336 $131 $132 $226 reversed $81 $-1 #
coedge $-1 $131 $336 $220 $335 reversed $81 $-1 #
coedge $-1 $337 $338 $131 $224 forward $331 $-1 #
edge $-1 $339 1.8037795024914383 $340 4.8037795024914383 $223 $341 forward 7 unknown #
coedge $-1 $133 $132 $338 $342 reversed $52 $-1 #
edge $-1 $231 -46.14764854884487 $339 46.14764854884487 $221 $343 forward 7 unknown #
coedge $-1 $344 $345 $133 $228 forward $346 $-1 #
edge $-1 $232 -46.14764854884487 $347 46.14764854884487 $227 $348 forward 7 unknown #
coedge $-1 $349 $134 $345 $350 reversed $218 $-1 #
coedge $-1 $134 $349 $336 $351 forward $218 $-1 #
vertex $-1 $135 $352 #
vertex $-1 $228 $353 #
straight-curve $-1 46.14764854884487 11.44289637527644 5.1075590049828765 0 1 0 I I #
face $-1 $-1 $354 $30 $-1 $355 forward single #
loop $-1 $-1 $240 $136 #
plane-surface $-1 0 0 8.1075590049828765 0 0 1 1 0 0 forward_v I I I I #
coedge $-1 $356 $357 $239 $358 forward $137 $-1 #
coedge $-1 $239 $139 $141 $245 reversed $85 $-1 #
coedge $-1 $139 $238 $237 $358 reversed $85 $-1 #
coedge $-1 $359 $142 $139 $241 forward $235 $-1 #
edge $-1 $248 -19.543761681556333 $360 -14.260408029697203 $240 $361 forward 7 unknown #
coedge $-1 $141 $140 $356 $362 reversed $55 $-1 #
coedge $-1 $363 $364 $140 $244 forward $354 $-1 #
edge $-1 $365 -15.897241101712535 $247 -6.90866281993301 $243 $366 forward 7 unknown #
edge $-1 $367 0 $248 8.9885782817795246 $238 $368 forward 7 unknown #
coedge $-1 $142 $359 $363 $369 forward $235 $-1 #
vertex $-1 $244 $370 #
vertex $-1 $143 $371 #
straight-curve $-1 -40.86429489698574 -7.2535874351485337 8.1075590049828783 0 1 0 I I #
coedge $-1 $250 $250 $-1 $372 reversed $146 $-1 #
edge $-1 $373 0 $373 6.2831853071796004 $147 $374 forward 7 unknown #
vertex $-1 $150 $375 #
ellipse-curve $-1 -43.505971722915305 -15.973155089109884 4.4716026755880476 -0.80901700255871778 0 0.5877852410284794 0.2938926205142397 0 0.40450850127935889 1 I I #
coedge $-1 $254 $254 $-1 $376 reversed $153 $-1 #
edge $-1 $377 0 $377 6.2831853071796004 $154 $378 forward 7 unknown #
vertex $-1 $157 $379 #
ellipse-curve $-1 -43.505971722915305 -13.04119465148425 4.4716026755880476 -0.80901700255871778 0 0.5877852410284794 0.2938926205142397 0 0.40450850127935889 1 I I #
face $-1 $-1 $380 $33 $-1 $381 reversed single #
loop $-1 $-1 $164 $158 #
plane-surface $-1 0 0 8.1075590049828765 0 0 1 1 0 0 forward_v I I I I #
coedge $-1 $382 $383 $384 $385 reversed $159 $-1 #
coedge $-1 $386 $161 $163 $268 forward $99 $-1 #
coedge $-1 $161 $386 $382 $387 forward $99 $-1 #
coedge $-1 $384 $164 $161 $265 forward $259 $-1 #
edge $-1 $271 -6.8141908595281127 $388 0.35599790169717416 $264 $389 forward 7 unknown #
coedge $-1 $390 $391 $162 $267 forward $380 $-1 #
edge $-1 $392 -62.898803440451253 $270 -56.17354471490161 $266 $393 forward 7 unknown #
edge $-1 $271 79.604196602444318 $392 92.295297097689712 $163 $394 forward 7 unknown #
coedge $-1 $164 $384 $390 $395 forward $259 $-1 #
vertex $-1 $267 $396 #
vertex $-1 $165 $397 #
straight-curve $-1 8.3929272702369495 10.043287338443582 8.1075590049828747 -1 0 0 I I #
coedge $-1 $273 $273 $-1 $398 reversed $168 $-1 #
edge $-1 $399 0 $399 6.2831853071796004 $169 $400 forward 7 unknown #
vertex $-1 $172 $401 #
ellipse-curve $-1 40.766316770027572 4.9217239375683803 4.7449296422080396 0.52991927123019833 0 0.84804809178421925 0.42402404589210962 0 -0.26495963561509916 1 I I #
coedge $-1 $277 $277 $-1 $402 reversed $175 $-1 #
edge $-1 $403 0 $403 6.2831853071796004 $176 $404 forward 7 unknown #
vertex $-1 $179 $405 #
ellipse-curve $-1 40.766316770027572 7.9946619780935038 4.7449296422080396 0.52991927123019833 0 0.84804809178421925 0.42402404589210962 0 -0.26495963561509916 1 I I #
face $-1 $-1 $195 $27 $-1 $406 reversed single #
loop $-1 $-1 $297 $180 #
plane-surface $-1 0 27.843790120245451 0 0 -1 0 0 0 -1 forward_v I I I I #
coedge $-1 $407 $295 $298 $408 forward $181 $-1 #
coedge $-1 $301 $183 $184 $289 reversed $113 $-1 #
coedge $-1 $295 $407 $183 $287 reversed $181 $-1 #
edge $-1 $302 -8.1075590049828765 $409 8.1075590049828765 $286 $410 forward 7 unknown #
coedge $-1 $185 $184 $407 $411 forward $73 $-1 #
edge $-1 $293 -46.14764854884487 $409 46.14764854884487 $285 $412 forward 7 unknown #
coedge $-1 $298 $297 $185 $291 reversed $282 $-1 #
edge $-1 $413 -46.14764854884487 $292 46.14764854884487 $290 $414 forward 7 unknown #
vertex $-1 $187 $415 #
vertex $-1 $304 $416 #
straight-curve $-1 46.14764854884487 0 -8.1075590049828765 0 -1 0 I I #
coedge $-1 $284 $286 $188 $296 reversed $181 $-1 #
edge $-1 $299 -27.843790120245451 $302 27.843790120245451 $295 $417 forward 7 unknown #
coedge $-1 $290 $189 $194 $305 forward $282 $-1 #
coedge $-1 $189 $290 $284 $408 reversed $282 $-1 #
vertex $-1 $190 $418 #
straight-curve $-1 0 27.843790120245451 8.1075590049828765 -1 0 0 I I #
coedge $-1 $191 $285 $193 $304 reversed $113 $-1 #
vertex $-1 $296 $419 #
straight-curve $-1 0 -27.843790120245451 8.1075590049828765 1 0 0 I I #
edge $-1 $196 -8.1075590049828765 $293 8.1075590049828765 $193 $420 forward 7 unknown #
edge $-1 $197 -8.1075590049828765 $292 8.1075590049828765 $194 $421 forward 7 unknown #
point $-1 46.14764854884487 -27.843790120245451 8.1075590049828765 #
point $-1 46.14764854884487 27.843790120245451 8.1075590049828765 #
face $-1 $-1 $317 $28 $-1 $422 reversed single #
plane-surface $-1 0 0 8.1075590049828765 0 0 1 1 0 0 forward_v I I I I #
coedge $-1 $423 $424 $203 $314 forward $200 $-1 #
coedge $-1 $425 $202 $313 $426 forward $121 $-1 #
coedge $-1 $202 $425 $211 $326 reversed $121 $-1 #
coedge $-1 $204 $203 $311 $426 reversed $77 $-1 #
edge $-1 $427 -46.14764854884487 $318 46.14764854884487 $310 $428 forward 7 unknown #
edge $-1 $323 -46.14764854884487 $319 46.14764854884487 $207 $429 forward 7 unknown #
coedge $-1 $205 $321 $423 $430 forward $317 $-1 #
loop $-1 $-1 $208 $308 #
vertex $-1 $314 $431 #
vertex $-1 $206 $432 #
straight-curve $-1 46.14764854884487 -11.44289637527644 5.1075590049828765 0 1 0 I I #
coedge $-1 $316 $208 $212 $327 reversed $317 $-1 #
straight-curve $-1 46.14764854884487 -17.92779538086031 3.3037795024914383 0 0 1 I I #
vertex $-1 $426 $433 #
straight-curve $-1 -46.14764854884487 -17.92779538086031 3.3037795024914383 0 0 -1 I I #
coedge $-1 $212 $211 $434 $435 forward $213 $-1 #
edge $-1 $215 17.92779538086031 $436 27.843790120245451 $312 $437 forward 7 unknown #
edge $-1 $438 -27.843790120245451 $214 -17.92779538086031 $321 $439 forward 7 unknown #
point $-1 46.14764854884487 -17.92779538086031 8.1075590049828765 #
point $-1 -46.14764854884487 -17.92779538086031 8.1075590049828765 #
face $-1 $-1 $346 $29 $-1 $440 reversed single #
loop $-1 $-1 $223 $217 #
plane-surface $-1 -46.14764854884487 0 0 1 0 0 0 0 -1 forward_v I I I I #
coedge $-1 $441 $220 $349 $442 forward $129 $-1 #
coedge $-1 $220 $441 $337 $443 forward $129 $-1 #
edge $-1 $340 -46.14764854884487 $444 46.14764854884487 $220 $445 forward 7 unknown #
coedge $-1 $222 $221 $230 $351 reversed $81 $-1 #
coedge $-1 $446 $223 $334 $443 reversed $331 $-1 #
coedge $-1 $223 $446 $225 $342 forward $331 $-1 #
vertex $-1 $342 $447 #
vertex $-1 $224 $448 #
straight-curve $-1 -46.14764854884487 17.92779538086031 3.3037795024914383 0 0 1 I I #
edge $-1 $347 -16.400893744969011 $339 -6.4848990055838698 $338 $449 forward 7 unknown #
straight-curve $-1 0 17.92779538086031 5.1075590049828765 -1 0 0 I I #
coedge $-1 $450 $227 $446 $451 reversed $346 $-1 #
coedge $-1 $227 $450 $229 $350 forward $346 $-1 #
loop $-1 $-1 $227 $330 #
vertex $-1 $228 $452 #
straight-curve $-1 0 27.843790120245451 5.1075590049828765 -1 0 0 I I #
coedge $-1 $230 $229 $333 $442 reversed $218 $-1 #
edge $-1 $453 -8.1075590049828765 $232 -5.1075590049828765 $229 $454 forward 7 unknown #
edge $-1 $444 -4.8037795024914383 $231 -1.8037795024914383 $230 $455 forward 7 unknown #
point $-1 46.14764854884487 17.92779538086031 5.1075590049828765 #
point $-1 46.14764854884487 27.843790120245451 5.1075590049828765 #
loop $-1 $-1 $243 $234 #
plane-surface $-1 0 -17.92779538086031 6.6075590049828765 0 -1 0 0 0 -1 forward_v I I I I #
coedge $-1 $456 $237 $242 $362 forward $137 $-1 #
coedge $-1 $237 $456 $359 $457 reversed $137 $-1 #
edge $-1 $360 19.435170893294071 $367 26.707083552083731 $237 $458 forward 7 unknown #
coedge $-1 $246 $240 $357 $457 forward $235 $-1 #
vertex $-1 $457 $459 #
straight-curve $-1 -60.408056578542073 -11.086554359733828 8.1075590049828747 -1 0 0 I I #
edge $-1 $367 3.8329669245852944 $365 10.674207945711773 $356 $460 forward 7 unknown #
coedge $-1 $364 $243 $246 $369 reversed $354 $-1 #
coedge $-1 $243 $363 $456 $461 reversed $354 $-1 #
vertex $-1 $461 $462 #
straight-curve $-1 -36.80348485618692 -17.92779538086031 13.696784691253939 0.5877852410284794 0 0.80901700255871778 I I #
vertex $-1 $362 $463 #
straight-curve $-1 -46.14764854884487 -11.086554359733828 0.83564634619321509 0.5877852410284794 0 0.80901700255871778 I I #
edge $-1 $464 -46.14764854884487 $247 -40.86429489698574 $246 $465 forward 7 unknown #
point $-1 -40.86429489698574 -17.927795380860307 8.1075590049828783 #
point $-1 -40.86429489698574 -11.086554359733828 8.1075590049828783 #
edge $-1 $466 1 $466 0 $250 $-1 forward 7 unknown #
vertex $-1 $251 $467 #
ellipse-curve $-1 -42.696954720356587 -15.973155089109884 3.8838174345595697 -0.80901700255871778 0 0.5877852410284794 0.2938926205142397 0 0.40450850127935889 1 I I #
point $-1 -43.21207910240107 -15.973155089109884 4.8761111768674077 #
edge $-1 $468 1 $468 0 $254 $-1 forward 7 unknown #
vertex $-1 $255 $469 #
ellipse-curve $-1 -42.696954720356587 -13.04119465148425 3.8838174345595697 -0.80901700255871778 0 0.5877852410284794 0.2938926205142397 0 0.40450850127935889 1 I I #
point $-1 -43.21207910240107 -13.04119465148425 4.8761111768674077 #
loop $-1 $-1 $266 $258 #
plane-surface $-1 46.14764854884487 0 0 -1 0 0 0 0 1 forward_v I I I I #
coedge $-1 $383 $261 $263 $387 reversed $159 $-1 #
coedge $-1 $261 $382 $470 $471 reversed $159 $-1 #
coedge $-1 $269 $264 $261 $385 forward $259 $-1 #
edge $-1 $388 26.992057720973296 $472 37.754721278607917 $384 $473 forward 7 unknown #
coedge $-1 $263 $262 $391 $474 reversed $99 $-1 #
edge $-1 $475 -92.295297097689712 $388 -79.604196602444318 $382 $476 forward 7 unknown #
vertex $-1 $265 $477 #
straight-curve $-1 35.38498499121026 3.2290964789154692 8.1075590049828676 0 -1 0 I I #
coedge $-1 $470 $266 $269 $395 reversed $380 $-1 #
coedge $-1 $266 $470 $386 $474 forward $380 $-1 #
vertex $-1 $267 $478 #
straight-curve $-1 46.14764854884487 10.043287338443582 64.281103719884484 0 0 1 I I #
straight-curve $-1 -32.123202035508484 10.043287338443582 50.2913568554156 0.84804809178421925 0 -0.52991927123019833 I I #
edge $-1 $472 2.8730985772182951 $270 10.043287338443582 $390 $479 forward 7 unknown #
point $-1 46.14764854884487 10.043287338443582 8.1075590049828765 #
point $-1 35.384984991210246 10.043287338443582 8.1075590049828747 #
edge $-1 $480 1 $480 0 $273 $-1 forward 7 unknown #
vertex $-1 $274 $481 #
ellipse-curve $-1 39.974170989707062 4.9217239375683803 3.4772314212012723 0.52991927123019833 0 0.84804809178421925 0.42402404589210962 0 -0.26495963561509916 1 I I #
point $-1 41.190340815919676 4.9217239375683803 4.4799700065929402 #
edge $-1 $482 1 $482 0 $277 $-1 forward 7 unknown #
vertex $-1 $278 $483 #
ellipse-curve $-1 39.974170989707062 7.9946619780935038 3.4772314212012723 0.52991927123019833 0 0.84804809178421925 0.42402404589210962 0 -0.26495963561509916 1 I I #
point $-1 41.190340815919676 7.9946619780935038 4.4799700065929402 #
plane-surface $-1 46.14764854884487 0 0 -1 0 0 0 0 1 forward_v I I I I #
coedge $-1 $286 $284 $288 $411 reversed $181 $-1 #
edge $-1 $299 -8.1075590049828765 $413 8.1075590049828765 $298 $484 forward 7 unknown #
vertex $-1 $411 $485 #
straight-curve $-1 -46.14764854884487 -27.843790120245451 0 0 0 -1 I I #
edge $-1 $409 -27.843790120245451 $413 27.843790120245451 $407 $486 forward 7 unknown #
straight-curve $-1 0 -27.843790120245451 -8.1075590049828765 -1 0 0 I I #
vertex $-1 $291 $487 #
straight-curve $-1 0 27.843790120245451 -8.1075590049828765 1 0 0 I I #
point $-1 46.14764854884487 27.843790120245451 -8.1075590049828765 #
point $-1 46.14764854884487 -27.843790120245451 -8.1075590049828765 #
straight-curve $-1 -46.14764854884487 0 8.1075590049828765 0 -1 0 I I #
point $-1 -46.14764854884487 27.843790120245451 8.1075590049828765 #
point $-1 -46.14764854884487 -27.843790120245451 8.1075590049828765 #
straight-curve $-1 46.14764854884487 -27.843790120245451 0 0 0 -1 I I #
straight-curve $-1 46.14764854884487 27.843790120245451 0 0 0 -1 I I #
plane-surface $-1 46.14764854884487 0 0 -1 0 0 0 0 1 forward_v I I I I #
coedge $-1 $434 $310 $316 $430 reversed $200 $-1 #
coedge $-1 $310 $434 $425 $488 forward $200 $-1 #
coedge $-1 $312 $311 $424 $488 reversed $121 $-1 #
edge $-1 $323 6.4848990055838698 $427 16.400893744969011 $311 $489 forward 7 unknown #
vertex $-1 $314 $490 #
straight-curve $-1 0 -27.843790120245451 5.1075590049828765 1 0 0 I I #
straight-curve $-1 0 -17.92779538086031 5.1075590049828765 1 0 0 I I #
edge $-1 $438 -8.1075590049828765 $318 -5.1075590049828765 $316 $491 forward 7 unknown #
point $-1 46.14764854884487 -27.843790120245451 5.1075590049828765 #
point $-1 46.14764854884487 -17.92779538086031 5.1075590049828765 #
point $-1 -46.14764854884487 -17.92779538086031 5.1075590049828765 #
coedge $-1 $424 $423 $325 $435 reversed $200 $-1 #
edge $-1 $436 -46.14764854884487 $438 46.14764854884487 $434 $492 forward 7 unknown #
vertex $-1 $326 $493 #
straight-curve $-1 -46.14764854884487 0 8.1075590049828765 0 -1 0 I I #
vertex $-1 $327 $494 #
straight-curve $-1 46.14764854884487 0 8.1075590049828765 0 1 0 I I #
plane-surface $-1 0 27.843790120245451 0 0 -1 0 0 0 -1 forward_v I I I I #
coedge $-1 $334 $333 $450 $495 forward $129 $-1 #
edge $-1 $444 17.92779538086031 $453 27.843790120245451 $349 $496 forward 7 unknown #
edge $-1 $497 -27.843790120245451 $340 -17.92779538086031 $337 $498 forward 7 unknown #
vertex $-1 $442 $499 #
straight-curve $-1 0 17.92779538086031 8.1075590049828765 1 0 0 I I #
coedge $-1 $338 $337 $344 $451 forward $331 $-1 #
point $-1 -46.14764854884487 17.92779538086031 5.1075590049828765 #
point $-1 -46.14764854884487 17.92779538086031 8.1075590049828765 #
straight-curve $-1 -46.14764854884487 11.44289637527644 5.1075590049828765 0 -1 0 I I #
coedge $-1 $345 $344 $441 $495 reversed $346 $-1 #
edge $-1 $497 -8.1075590049828765 $347 -5.1075590049828765 $344 $500 forward 7 unknown #
point $-1 -46.14764854884487 27.843790120245451 5.1075590049828765 #
vertex $-1 $442 $501 #
straight-curve $-1 46.14764854884487 27.843790120245451 0 0 0 -1 I I #
straight-curve $-1 46.14764854884487 17.92779538086031 3.3037795024914383 0 0 -1 I I #
coedge $-1 $357 $356 $364 $461 forward $137 $-1 #
edge $-1 $360 11.086554359733828 $464 17.92779538086031 $357 $502 forward 7 unknown #
straight-curve $-1 -46.14764854884487 -11.086554359733828 27.542729898276946 0 0 -1 I I #
point $-1 -46.14764854884487 -11.086554359733828 8.1075590049828765 #
straight-curve $-1 -46.14764854884487 -7.2535874351485337 0.83564634619321598 0 -1 0 I I #
edge $-1 $365 -26.707083552083731 $464 -19.435170893294071 $456 $503 forward 7 unknown #
point $-1 -46.14764854884487 -17.927795380860307 0.83564634619321509 #
point $-1 -46.14764854884487 -11.086554359733828 0.83564634619321509 #
vertex $-1 $461 $504 #
straight-curve $-1 0 -17.92779538086031 8.1075590049828765 1 0 0 I I #
vertex $-1 $372 $505 #
point $-1 -42.403062099842352 -15.973155089109884 4.2883259358389285 #
vertex $-1 $376 $506 #
point $-1 -42.403062099842352 -13.04119465148425 4.2883259358389285 #
coedge $-1 $391 $390 $383 $471 forward $380 $-1 #
edge $-1 $472 56.17354471490161 $475 62.898803440451253 $470 $507 forward 7 unknown #
vertex $-1 $395 $508 #
straight-curve $-1 8.3929272702369495 2.8730985772182951 8.1075590049828747 1 0 0 I I #
edge $-1 $475 -0.35599790169717416 $392 6.8141908595281127 $391 $509 forward 7 unknown #
vertex $-1 $474 $510 #
straight-curve $-1 -32.123202035508484 2.8730985772182951 50.2913568554156 -0.84804809178421925 0 0.52991927123019833 I I #
point $-1 35.384984991210246 2.8730985772182951 8.1075590049828747 #
point $-1 46.14764854884487 10.043287338443582 1.3823002794332311 #
straight-curve $-1 46.14764854884487 0 8.1075590049828765 0 1 0 I I #
vertex $-1 $398 $511 #
point $-1 40.398195035599173 4.9217239375683803 3.2122717855861729 #
vertex $-1 $402 $512 #
point $-1 40.398195035599173 7.9946619780935038 3.2122717855861729 #
straight-curve $-1 -46.14764854884487 27.843790120245451 0 0 0 -1 I I #
point $-1 -46.14764854884487 -27.843790120245451 -8.1075590049828765 #
straight-curve $-1 -46.14764854884487 0 -8.1075590049828765 0 1 0 I I #
point $-1 -46.14764854884487 27.843790120245451 -8.1075590049828765 #
edge $-1 $436 -8.1075590049828765 $427 -5.1075590049828765 $425 $513 forward 7 unknown #
straight-curve $-1 -46.14764854884487 -11.44289637527644 5.1075590049828765 0 -1 0 I I #
point $-1 -46.14764854884487 -27.843790120245451 5.1075590049828765 #
straight-curve $-1 46.14764854884487 -27.843790120245451 0 0 0 -1 I I #
straight-curve $-1 0 -27.843790120245451 8.1075590049828765 1 0 0 I I #
point $-1 -46.14764854884487 -27.843790120245451 8.1075590049828765 #
point $-1 46.14764854884487 -27.843790120245451 8.1075590049828765 #
edge $-1 $453 -46.14764854884487 $497 46.14764854884487 $450 $514 forward 7 unknown #
straight-curve $-1 46.14764854884487 0 8.1075590049828765 0 1 0 I I #
vertex $-1 $495 $515 #
straight-curve $-1 -46.14764854884487 0 8.1075590049828765 0 -1 0 I I #
point $-1 46.14764854884487 17.92779538086031 8.1075590049828765 #
straight-curve $-1 -46.14764854884487 27.843790120245451 0 0 0 -1 I I #
point $-1 46.14764854884487 27.843790120245451 8.1075590049828765 #
straight-curve $-1 -46.14764854884487 0 8.1075590049828765 0 -1 0 I I #
straight-curve $-1 -46.14764854884487 -17.927795380860307 27.542729898276946 0 0 1 I I #
point $-1 -46.14764854884487 -17.92779538086031 8.1075590049828765 #
point $-1 -42.292446219077235 -15.973155089109884 3.5899248140453301 #
point $-1 -42.292446219077235 -13.04119465148425 3.5899248140453301 #
straight-curve $-1 46.14764854884487 2.8730985772182951 64.281103719884484 0 0 -1 I I #
point $-1 46.14764854884487 2.8730985772182951 8.1075590049828765 #
straight-curve $-1 46.14764854884487 3.2290964789154692 1.3823002794332204 0 1 0 I I #
point $-1 46.14764854884487 2.8730985772182951 1.3823002794332311 #
point $-1 39.709211354091963 4.9217239375683803 3.0532073753091624 #
point $-1 39.709211354091963 7.9946619780935038 3.0532073753091624 #
straight-curve $-1 -46.14764854884487 -27.843790120245451 0 0 0 -1 I I #
straight-curve $-1 0 27.843790120245451 8.1075590049828765 -1 0 0 I I #
point $-1 -46.14764854884487 27.843790120245451 8.1075590049828765 #
End-of-ACIS-data 