500 0 7 0           
7 Unknown 11 ACIS 5.0 NT 24 Fri Mar 26 02:57:26 1999 
-1 9.9999999999999995e-007 1e-010 
body $-1 $7 $-1 $8 #
body $-1 $9 $-1 $10 #
body $-1 $11 $-1 $12 #
body $-1 $13 $-1 $14 #
body $-1 $15 $-1 $16 #
body $-1 $17 $-1 $18 #
body $-1 $19 $-1 $20 #
lump $-1 $-1 $21 $0 #
transform $-1 1 0 0 0 1 0 0 0 1 57.58476516006958 24.103108954844398 6.9583226770333138 1 rotate no_reflect no_shear #
lump $-1 $-1 $22 $1 #
transform $-1 1 0 0 0 1 0 0 0 1 57.58476516006958 24.103108954844398 6.9583226770333138 1 rotate no_reflect no_shear #
lump $-1 $-1 $23 $2 #
transform $-1 1 0 0 0 1 0 0 0 1 57.58476516006958 24.103108954844398 6.9583226770333138 1 rotate no_reflect no_shear #
lump $-1 $-1 $24 $3 #
transform $-1 1 0 0 0 1 0 0 0 1 57.58476516006958 24.103108954844398 6.9583226770333138 1 rotate no_reflect no_shear #
lump $-1 $-1 $25 $4 #
transform $-1 1 0 0 0 1 0 0 0 1 57.58476516006958 24.103108954844398 6.9583226770333138 1 rotate no_reflect no_shear #
lump $-1 $-1 $26 $5 #
transform $-1 1 0 0 0 1 0 0 0 1 57.58476516006958 24.103108954844398 6.9583226770333138 1 rotate no_reflect no_shear #
lump $-1 $-1 $27 $6 #
transform $-1 1 0 0 0 1 0 0 0 1 57.58476516006958 24.103108954844398 6.9583226770333138 1 rotate no_reflect no_shear #
shell $-1 $-1 $-1 $28 $-1 $7 #
shell $-1 $-1 $-1 $29 $-1 $9 #
shell $-1 $-1 $-1 $30 $-1 $11 #
shell $-1 $-1 $-1 $31 $-1 $13 #
shell $-1 $-1 $-1 $32 $-1 $15 #
shell $-1 $-1 $-1 $33 $-1 $17 #
shell $-1 $-1 $-1 $34 $-1 $19 #
face $-1 $35 $36 $21 $-1 $37 forward single #
face $-1 $38 $39 $22 $-1 $40 forward single #
face $-1 $41 $42 $23 $-1 $43 forward single #
face $-1 $44 $45 $24 $-1 $46 reversed single #
face $-1 $47 $48 $25 $-1 $49 forward single #
face $-1 $50 $51 $26 $-1 $52 forward single #
face $-1 $53 $54 $27 $-1 $55 forward single #
face $-1 $56 $57 $21 $-1 $58 reversed single #
loop $-1 $-1 $59 $28 #
plane-surface $-1 0 0 6.9583226770333138 0 0 1 1 0 0 forward_v I I I I #
face $-1 $60 $61 $22 $-1 $62 reversed single #
loop $-1 $-1 $63 $29 #
plane-surface $-1 0 -21.456121981005541 -2.1778486392045142 0 0 1 1 0 0 forward_v I I I I #
face $-1 $64 $65 $23 $-1 $66 reversed single #
loop $-1 $-1 $67 $30 #
plane-surface $-1 0 21.2219212379533 -2.9449757037598183 0 0 1 1 0 0 forward_v I I I I #
face $-1 $68 $69 $24 $-1 $70 reversed single #
loop $-1 $-1 $71 $31 #
plane-surface $-1 66.108950025942207 -9.048341964251799 166.19543191423546 0 1 0 0.74314483375859142 0 0.66913059716165679 forward_v I I I I #
face $-1 $72 $73 $25 $-1 $74 forward single #
loop $-1 $75 $76 $32 #
cone-surface $-1 55.630168373553254 -7.3899793170066523 4.8753086031805726 -0.74314483375859142 0 -0.66913059716165679 0.3345652985808284 0 -0.37157241687929571 1 I I 0 1 0.5 forward I I I I #
face $-1 $77 $78 $26 $-1 $79 forward single #
loop $-1 $80 $81 $33 #
cone-surface $-1 55.630168373553254 -4.9024353461389332 4.8753086031805726 -0.74314483375859142 0 -0.66913059716165679 0.3345652985808284 0 -0.37157241687929571 1 I I 0 1 0.5 forward I I I I #
face $-1 $82 $83 $27 $-1 $84 forward single #
loop $-1 $85 $86 $34 #
cone-surface $-1 55.630168373553254 -2.414891375271214 4.8753086031805726 -0.74314483375859142 0 -0.66913059716165679 0.3345652985808284 0 -0.37157241687929571 1 I I 0 1 0.5 forward I I I I #
face $-1 $87 $88 $21 $-1 $89 reversed single #
loop $-1 $-1 $90 $35 #
plane-surface $-1 0 0 -6.9583226770333138 0 0 1 1 0 0 forward_v I I I I #
coedge $-1 $91 $92 $93 $94 forward $36 $-1 #
face $-1 $95 $96 $22 $-1 $97 reversed single #
loop $-1 $-1 $98 $38 #
plane-surface $-1 0 -21.456121981005541 -5.6187643673774197 0 0 1 1 0 0 forward_v I I I I #
coedge $-1 $99 $100 $101 $102 reversed $39 $-1 #
face $-1 $103 $104 $23 $-1 $105 reversed single #
loop $-1 $-1 $106 $41 #
plane-surface $-1 0 18.340733521062198 -4.9516491903965658 0 1 0 0 0 1 forward_v I I I I #
coedge $-1 $107 $108 $109 $110 reversed $42 $-1 #
face $-1 $111 $112 $24 $-1 $113 reversed single #
loop $-1 $-1 $114 $44 #
plane-surface $-1 -19.478691437872669 -4.9024353461389332 89.131975316293207 0.74314483375859142 0 0.66913059716165679 0.66913059716165679 0 -0.74314483375859142 forward_v I I I I #
coedge $-1 $115 $116 $117 $118 reversed $45 $-1 #
face $-1 $-1 $119 $25 $-1 $120 forward single #
loop $-1 $121 $122 $47 #
cone-surface $-1 55.026770012752579 -7.3899793170066523 4.3320062923149099 -0.74314483375859142 0 -0.66913059716165679 0.1672826492904142 0 -0.18578620843964785 1 I I -0.70710678118654746 0.70710678118654746 0.25 forward I I I I #
loop $-1 $-1 $123 $32 #
coedge $-1 $76 $76 $124 $125 reversed $48 $-1 #
face $-1 $-1 $126 $26 $-1 $127 forward single #
loop $-1 $128 $129 $50 #
cone-surface $-1 55.026770012752579 -4.9024353461389332 4.3320062923149099 -0.74314483375859142 0 -0.66913059716165679 0.1672826492904142 0 -0.18578620843964785 1 I I -0.70710678118654746 0.70710678118654746 0.25 forward I I I I #
loop $-1 $-1 $130 $33 #
coedge $-1 $81 $81 $131 $132 reversed $51 $-1 #
face $-1 $-1 $133 $27 $-1 $134 forward single #
loop $-1 $135 $136 $53 #
cone-surface $-1 55.026770012752579 -2.414891375271214 4.3320062923149099 -0.74314483375859142 0 -0.66913059716165679 0.1672826492904142 0 -0.18578620843964785 1 I I -0.70710678118654746 0.70710678118654746 0.25 forward I I I I #
loop $-1 $-1 $137 $34 #
coedge $-1 $86 $86 $138 $139 reversed $54 $-1 #
face $-1 $140 $141 $21 $-1 $142 reversed single #
loop $-1 $-1 $143 $56 #
plane-surface $-1 0 -24.103108954844398 0 0 1 0 0 0 1 forward_v I I I I #
coedge $-1 $144 $145 $146 $147 forward $57 $-1 #
coedge $-1 $148 $59 $149 $150 forward $36 $-1 #
coedge $-1 $59 $148 $151 $152 forward $36 $-1 #
coedge $-1 $153 $154 $59 $94 reversed $155 $-1 #
edge $-1 $156 -24.103108954844398 $157 24.103108954844398 $93 $158 forward 7 unknown #
face $-1 $159 $160 $22 $-1 $161 reversed single #
loop $-1 $-1 $162 $60 #
plane-surface $-1 0 -18.809135007166685 -3.898306503290967 0 -1 0 0 0 -1 forward_v I I I I #
coedge $-1 $163 $164 $165 $166 reversed $61 $-1 #
coedge $-1 $167 $63 $168 $169 forward $39 $-1 #
coedge $-1 $63 $167 $170 $171 reversed $39 $-1 #
coedge $-1 $172 $173 $63 $102 forward $174 $-1 #
edge $-1 $175 8.0810740166639139 $176 13.375047964341627 $101 $177 forward 7 unknown #
face $-1 $178 $179 $23 $-1 $180 reversed single #
loop $-1 $-1 $109 $64 #
plane-surface $-1 57.58476516006958 0 0 -1 0 0 0 0 1 forward_v I I I I #
coedge $-1 $181 $182 $183 $184 reversed $65 $-1 #
coedge $-1 $185 $67 $186 $187 reversed $42 $-1 #
coedge $-1 $67 $185 $182 $188 forward $42 $-1 #
coedge $-1 $189 $190 $67 $110 forward $104 $-1 #
edge $-1 $191 -13.492148335867752 $192 -7.7297729020855481 $109 $193 forward 7 unknown #
face $-1 $194 $195 $24 $-1 $196 forward single #
loop $-1 $-1 $197 $68 #
plane-surface $-1 66.108950025942207 -0.7565287280260673 166.19543191423546 0 -1 0 -0.74314483375859142 0 -0.66913059716165679 forward_v I I I I #
coedge $-1 $198 $199 $200 $201 reversed $69 $-1 #
coedge $-1 $116 $71 $202 $203 reversed $45 $-1 #
coedge $-1 $71 $115 $198 $204 reversed $45 $-1 #
coedge $-1 $200 $205 $71 $118 forward $206 $-1 #
edge $-1 $207 76.13939328008442 $208 79.553382104639383 $117 $209 forward 7 unknown #
loop $-1 $-1 $124 $72 #
plane-surface $-1 -19.478691437872669 -4.9024353461389332 89.131975316293207 0.74314483375859142 0 0.66913059716165679 0.66913059716165679 0 -0.74314483375859142 forward_v I I I I #
loop $-1 $-1 $210 $47 #
coedge $-1 $122 $122 $123 $211 reversed $73 $-1 #
coedge $-1 $123 $123 $122 $211 forward $75 $-1 #
coedge $-1 $124 $124 $76 $125 forward $119 $-1 #
edge $-1 $212 0 $212 6.2831853071796004 $124 $213 forward 7 unknown #
loop $-1 $-1 $131 $77 #
plane-surface $-1 -19.478691437872669 -4.9024353461389332 89.131975316293207 0.74314483375859142 0 0.66913059716165679 0.66913059716165679 0 -0.74314483375859142 forward_v I I I I #
loop $-1 $-1 $214 $50 #
coedge $-1 $129 $129 $130 $215 reversed $78 $-1 #
coedge $-1 $130 $130 $129 $215 forward $80 $-1 #
coedge $-1 $131 $131 $81 $132 forward $126 $-1 #
edge $-1 $216 0 $216 6.2831853071796004 $131 $217 forward 7 unknown #
loop $-1 $-1 $138 $82 #
plane-surface $-1 -19.478691437872669 -4.9024353461389332 89.131975316293207 0.74314483375859142 0 0.66913059716165679 0.66913059716165679 0 -0.74314483375859142 forward_v I I I I #
loop $-1 $-1 $218 $53 #
coedge $-1 $136 $136 $137 $219 reversed $83 $-1 #
coedge $-1 $137 $137 $136 $219 forward $85 $-1 #
coedge $-1 $138 $138 $86 $139 forward $133 $-1 #
edge $-1 $220 0 $220 6.2831853071796004 $138 $221 forward 7 unknown #
face $-1 $222 $223 $21 $-1 $224 reversed single #
loop $-1 $-1 $225 $87 #
plane-surface $-1 -57.58476516006958 0 0 1 0 0 0 0 -1 forward_v I I I I #
coedge $-1 $226 $151 $227 $228 forward $88 $-1 #
coedge $-1 $229 $90 $226 $230 forward $57 $-1 #
coedge $-1 $90 $229 $231 $232 forward $57 $-1 #
coedge $-1 $154 $153 $90 $147 reversed $155 $-1 #
edge $-1 $233 -24.103108954844398 $234 24.103108954844398 $146 $235 forward 7 unknown #
coedge $-1 $92 $91 $236 $237 forward $36 $-1 #
coedge $-1 $238 $239 $91 $150 reversed $223 $-1 #
edge $-1 $157 -57.58476516006958 $240 57.58476516006958 $149 $241 forward 7 unknown #
coedge $-1 $143 $242 $92 $152 reversed $88 $-1 #
edge $-1 $243 -57.58476516006958 $156 57.58476516006958 $151 $244 forward 7 unknown #
coedge $-1 $146 $93 $242 $245 forward $155 $-1 #
coedge $-1 $93 $146 $238 $246 reversed $155 $-1 #
loop $-1 $-1 $153 $222 #
vertex $-1 $94 $247 #
vertex $-1 $94 $248 #
straight-curve $-1 57.58476516006958 0 6.9583226770333138 0 1 0 I I #
face $-1 $249 $250 $22 $-1 $251 reversed single #
loop $-1 $-1 $252 $95 #
plane-surface $-1 -57.58476516006958 0 0 1 0 0 0 0 -1 forward_v I I I I #
coedge $-1 $253 $168 $173 $254 reversed $96 $-1 #
coedge $-1 $255 $98 $256 $257 reversed $61 $-1 #
coedge $-1 $98 $255 $253 $258 forward $61 $-1 #
coedge $-1 $173 $172 $98 $166 forward $174 $-1 #
edge $-1 $259 -13.375047964341627 $260 -8.0810740166639139 $165 $261 forward 7 unknown #
coedge $-1 $100 $99 $252 $262 reversed $39 $-1 #
coedge $-1 $162 $263 $99 $169 reversed $96 $-1 #
edge $-1 $175 -57.58476516006958 $264 57.58476516006958 $168 $265 forward 7 unknown #
coedge $-1 $266 $267 $100 $171 forward $250 $-1 #
edge $-1 $176 -57.58476516006958 $268 57.58476516006958 $170 $269 forward 7 unknown #
coedge $-1 $165 $101 $267 $270 forward $174 $-1 #
coedge $-1 $101 $165 $162 $254 forward $174 $-1 #
loop $-1 $-1 $101 $249 #
vertex $-1 $102 $271 #
vertex $-1 $270 $272 #
straight-curve $-1 57.58476516006958 -10.728060990502771 -2.1778486392045142 0 -1 0 I I #
face $-1 $273 $274 $23 $-1 $275 reversed single #
loop $-1 $-1 $276 $103 #
plane-surface $-1 0 0 -6.9583226770333138 0 0 1 1 0 0 forward_v I I I I #
coedge $-1 $277 $106 $276 $278 reversed $65 $-1 #
coedge $-1 $106 $277 $108 $188 reversed $65 $-1 #
coedge $-1 $279 $280 $106 $184 forward $274 $-1 #
edge $-1 $281 -4.4824980818350308 $282 -0.46915110856153541 $183 $283 forward 7 unknown #
coedge $-1 $108 $107 $279 $284 reversed $42 $-1 #
coedge $-1 $285 $286 $107 $187 forward $287 $-1 #
edge $-1 $288 -57.58476516006958 $191 57.58476516006958 $186 $289 forward 7 unknown #
edge $-1 $282 -57.58476516006958 $192 57.58476516006958 $182 $290 forward 7 unknown #
coedge $-1 $291 $109 $277 $292 forward $104 $-1 #
coedge $-1 $109 $291 $285 $293 reversed $104 $-1 #
vertex $-1 $293 $294 #
vertex $-1 $110 $295 #
straight-curve $-1 57.58476516006958 10.61096061897665 -2.9449757037598183 0 -1 0 I I #
face $-1 $-1 $206 $24 $-1 $296 reversed single #
loop $-1 $-1 $297 $111 #
plane-surface $-1 0 0 6.9583226770333138 0 0 1 1 0 0 forward_v I I I I #
coedge $-1 $298 $299 $300 $301 reversed $112 $-1 #
coedge $-1 $302 $114 $116 $204 forward $69 $-1 #
coedge $-1 $114 $302 $298 $303 forward $69 $-1 #
coedge $-1 $300 $117 $114 $201 forward $206 $-1 #
edge $-1 $208 -6.5971242911823325 $304 1.6946889450433993 $200 $305 forward 7 unknown #
coedge $-1 $306 $307 $115 $203 forward $195 $-1 #
edge $-1 $308 21.456320878787885 $207 24.530290147098476 $202 $309 forward 7 unknown #
edge $-1 $208 -115.16953032013913 $308 -110.5755552705003 $116 $310 forward 7 unknown #
coedge $-1 $117 $300 $306 $311 reversed $206 $-1 #
loop $-1 $-1 $300 $194 #
vertex $-1 $311 $312 #
vertex $-1 $118 $313 #
straight-curve $-1 57.58476516006958 -9.048341964251799 83.097715957117728 0 0 -1 I I #
coedge $-1 $210 $210 $-1 $314 reversed $121 $-1 #
edge $-1 $315 0 $315 6.2831853071796004 $122 $316 forward 7 unknown #
vertex $-1 $125 $317 #
ellipse-curve $-1 56.047780525914284 -7.3899793170066523 5.2513282647558244 0.74314483375859142 0 0.66913059716165679 0.3345652985808284 0 -0.37157241687929571 1 I I #
coedge $-1 $214 $214 $-1 $318 reversed $128 $-1 #
edge $-1 $319 0 $319 6.2831853071796004 $129 $320 forward 7 unknown #
vertex $-1 $132 $321 #
ellipse-curve $-1 56.047780525914284 -4.9024353461389332 5.2513282647558244 0.74314483375859142 0 0.66913059716165679 0.3345652985808284 0 -0.37157241687929571 1 I I #
coedge $-1 $218 $218 $-1 $322 reversed $135 $-1 #
edge $-1 $323 0 $323 6.2831853071796004 $136 $324 forward 7 unknown #
vertex $-1 $139 $325 #
ellipse-curve $-1 56.047780525914284 -2.414891375271214 5.2513282647558244 0.74314483375859142 0 0.66913059716165679 0.3345652985808284 0 -0.37157241687929571 1 I I #
face $-1 $-1 $155 $21 $-1 $326 reversed single #
loop $-1 $-1 $238 $140 #
plane-surface $-1 0 24.103108954844398 0 0 -1 0 0 0 -1 forward_v I I I I #
coedge $-1 $327 $236 $239 $328 forward $141 $-1 #
coedge $-1 $242 $143 $144 $230 reversed $88 $-1 #
coedge $-1 $236 $327 $143 $228 reversed $141 $-1 #
edge $-1 $243 -6.9583226770333138 $329 6.9583226770333138 $227 $330 forward 7 unknown #
coedge $-1 $145 $144 $327 $331 forward $57 $-1 #
edge $-1 $234 -57.58476516006958 $329 57.58476516006958 $226 $332 forward 7 unknown #
coedge $-1 $239 $238 $145 $232 reversed $223 $-1 #
edge $-1 $333 -57.58476516006958 $233 57.58476516006958 $231 $334 forward 7 unknown #
vertex $-1 $147 $335 #
vertex $-1 $245 $336 #
straight-curve $-1 57.58476516006958 0 -6.9583226770333138 0 -1 0 I I #
coedge $-1 $225 $227 $148 $237 reversed $141 $-1 #
edge $-1 $240 -24.103108954844398 $243 24.103108954844398 $236 $337 forward 7 unknown #
coedge $-1 $231 $149 $154 $246 forward $223 $-1 #
coedge $-1 $149 $231 $225 $328 reversed $223 $-1 #
vertex $-1 $150 $338 #
straight-curve $-1 0 24.103108954844398 6.9583226770333138 -1 0 0 I I #
coedge $-1 $151 $226 $153 $245 reversed $88 $-1 #
vertex $-1 $237 $339 #
straight-curve $-1 0 -24.103108954844398 6.9583226770333138 1 0 0 I I #
edge $-1 $156 -6.9583226770333138 $234 6.9583226770333138 $153 $340 forward 7 unknown #
edge $-1 $157 -6.9583226770333138 $233 6.9583226770333138 $154 $341 forward 7 unknown #
point $-1 57.58476516006958 -24.103108954844398 6.9583226770333138 #
point $-1 57.58476516006958 24.103108954844398 6.9583226770333138 #
face $-1 $-1 $174 $22 $-1 $342 reversed single #
loop $-1 $-1 $170 $159 #
plane-surface $-1 0 -24.103108954844398 0 0 1 0 0 0 1 forward_v I I I I #
coedge $-1 $343 $344 $167 $262 forward $160 $-1 #
coedge $-1 $263 $162 $164 $258 reversed $96 $-1 #
edge $-1 $260 -3.6696111157319362 $175 -0.22869538755903074 $173 $345 forward 7 unknown #
coedge $-1 $164 $163 $346 $347 reversed $61 $-1 #
coedge $-1 $267 $266 $163 $257 forward $250 $-1 #
edge $-1 $348 -57.58476516006958 $259 57.58476516006958 $256 $349 forward 7 unknown #
edge $-1 $350 -57.58476516006958 $260 57.58476516006958 $253 $351 forward 7 unknown #
vertex $-1 $257 $352 #
vertex $-1 $166 $353 #
straight-curve $-1 57.58476516006958 -10.728060990502771 -5.6187643673774197 0 1 0 I I #
edge $-1 $268 -13.375047964341627 $264 -8.0810740166639139 $252 $354 forward 7 unknown #
coedge $-1 $168 $253 $343 $355 reversed $96 $-1 #
vertex $-1 $262 $356 #
straight-curve $-1 0 -18.809135007166685 -2.1778486392045142 -1 0 0 I I #
coedge $-1 $256 $170 $344 $357 forward $250 $-1 #
coedge $-1 $170 $256 $172 $270 reversed $250 $-1 #
vertex $-1 $357 $358 #
straight-curve $-1 0 -24.103108954844398 -2.1778486392045142 -1 0 0 I I #
edge $-1 $176 2.1778486392045142 $259 5.6187643673774197 $172 $359 forward 7 unknown #
point $-1 57.58476516006958 -18.809135007166685 -2.1778486392045142 #
point $-1 57.58476516006958 -24.103108954844398 -2.1778486392045142 #
face $-1 $-1 $287 $23 $-1 $360 reversed single #
loop $-1 $-1 $279 $178 #
plane-surface $-1 -57.58476516006958 0 0 1 0 0 0 0 -1 forward_v I I I I #
coedge $-1 $361 $362 $181 $278 forward $179 $-1 #
coedge $-1 $182 $181 $189 $292 reversed $65 $-1 #
edge $-1 $363 -57.58476516006958 $281 57.58476516006958 $276 $364 forward 7 unknown #
coedge $-1 $365 $183 $185 $284 forward $274 $-1 #
coedge $-1 $183 $365 $361 $366 reversed $274 $-1 #
vertex $-1 $366 $367 #
vertex $-1 $284 $368 #
straight-curve $-1 -57.58476516006958 18.340733521062198 -2.4758245951982829 0 0 1 I I #
edge $-1 $282 7.7297729020855481 $288 13.492148335867752 $279 $369 forward 7 unknown #
coedge $-1 $370 $186 $190 $293 forward $287 $-1 #
coedge $-1 $186 $370 $365 $371 reversed $287 $-1 #
loop $-1 $-1 $186 $273 #
vertex $-1 $371 $372 #
straight-curve $-1 0 24.103108954844398 -2.9449757037598183 1 0 0 I I #
straight-curve $-1 0 18.340733521062198 -2.9449757037598183 1 0 0 I I #
coedge $-1 $190 $189 $362 $373 reversed $104 $-1 #
edge $-1 $192 0.46915110856153541 $363 4.4824980818350308 $189 $374 forward 7 unknown #
edge $-1 $191 2.9449757037598183 $375 6.9583226770333138 $190 $376 forward 7 unknown #
point $-1 57.58476516006958 24.103108954844402 -2.9449757037598183 #
point $-1 57.58476516006958 18.340733521062198 -2.9449757037598183 #
plane-surface $-1 57.58476516006958 0 0 -1 0 0 0 0 1 forward_v I I I I #
coedge $-1 $307 $306 $299 $377 forward $195 $-1 #
coedge $-1 $299 $197 $199 $303 reversed $112 $-1 #
coedge $-1 $197 $298 $297 $377 reversed $112 $-1 #
coedge $-1 $205 $200 $197 $301 forward $206 $-1 #
edge $-1 $304 -79.553382104639383 $378 -76.13939328008442 $300 $379 forward 7 unknown #
coedge $-1 $199 $198 $307 $380 reversed $69 $-1 #
edge $-1 $381 110.5755552705003 $304 115.16953032013913 $298 $382 forward 7 unknown #
vertex $-1 $201 $383 #
straight-curve $-1 57.58476516006958 -2.4512176730694666 3.5443338524783385 0 1 0 I I #
coedge $-1 $297 $202 $205 $311 forward $195 $-1 #
coedge $-1 $202 $297 $302 $380 forward $195 $-1 #
vertex $-1 $203 $384 #
straight-curve $-1 33.054475012971103 -9.048341964251799 6.9583226770333084 1 0 0 I I #
straight-curve $-1 -19.478691437872669 -9.048341964251799 89.131975316293207 -0.66913059716165679 0 0.74314483375859142 I I #
edge $-1 $207 -9.048341964251799 $378 -0.7565287280260673 $205 $385 forward 7 unknown #
point $-1 57.58476516006958 -9.048341964251799 6.9583226770333138 #
point $-1 57.58476516006958 -9.048341964251799 3.5443338524783456 #
edge $-1 $386 1 $386 0 $210 $-1 forward 7 unknown #
vertex $-1 $211 $387 #
ellipse-curve $-1 55.212556221192223 -7.3899793170066523 4.4992889416053243 0.74314483375859142 0 0.66913059716165679 0.3345652985808284 0 -0.37157241687929571 1 I I #
point $-1 56.382345824495111 -7.3899793170066523 4.8797558478765257 #
edge $-1 $388 1 $388 0 $214 $-1 forward 7 unknown #
vertex $-1 $215 $389 #
ellipse-curve $-1 55.212556221192223 -4.9024353461389332 4.4992889416053243 0.74314483375859142 0 0.66913059716165679 0.3345652985808284 0 -0.37157241687929571 1 I I #
point $-1 56.382345824495111 -4.9024353461389332 4.8797558478765257 #
edge $-1 $390 1 $390 0 $218 $-1 forward 7 unknown #
vertex $-1 $219 $391 #
ellipse-curve $-1 55.212556221192223 -2.414891375271214 4.4992889416053243 0.74314483375859142 0 0.66913059716165679 0.3345652985808284 0 -0.37157241687929571 1 I I #
point $-1 56.382345824495111 -2.414891375271214 4.8797558478765257 #
plane-surface $-1 57.58476516006958 0 0 -1 0 0 0 0 1 forward_v I I I I #
coedge $-1 $227 $225 $229 $331 reversed $141 $-1 #
edge $-1 $240 -6.9583226770333138 $333 6.9583226770333138 $239 $392 forward 7 unknown #
vertex $-1 $331 $393 #
straight-curve $-1 -57.58476516006958 -24.103108954844398 0 0 0 -1 I I #
edge $-1 $329 -24.103108954844398 $333 24.103108954844398 $327 $394 forward 7 unknown #
straight-curve $-1 0 -24.103108954844398 -6.9583226770333138 -1 0 0 I I #
vertex $-1 $232 $395 #
straight-curve $-1 0 24.103108954844398 -6.9583226770333138 1 0 0 I I #
point $-1 57.58476516006958 24.103108954844398 -6.9583226770333138 #
point $-1 57.58476516006958 -24.103108954844398 -6.9583226770333138 #
straight-curve $-1 -57.58476516006958 0 6.9583226770333138 0 -1 0 I I #
point $-1 -57.58476516006958 24.103108954844398 6.9583226770333138 #
point $-1 -57.58476516006958 -24.103108954844398 6.9583226770333138 #
straight-curve $-1 57.58476516006958 -24.103108954844398 0 0 0 -1 I I #
straight-curve $-1 57.58476516006958 24.103108954844398 0 0 0 -1 I I #
plane-surface $-1 57.58476516006958 0 0 -1 0 0 0 0 1 forward_v I I I I #
coedge $-1 $346 $252 $263 $355 forward $160 $-1 #
coedge $-1 $252 $346 $266 $357 reversed $160 $-1 #
straight-curve $-1 57.58476516006958 -18.809135007166685 -1.9491532516454835 0 0 1 I I #
coedge $-1 $344 $343 $255 $347 forward $160 $-1 #
edge $-1 $350 8.0810740166639139 $348 13.375047964341627 $346 $396 forward 7 unknown #
vertex $-1 $257 $397 #
straight-curve $-1 0 -24.103108954844398 -5.6187643673774197 1 0 0 I I #
vertex $-1 $347 $398 #
straight-curve $-1 0 -18.809135007166685 -5.6187643673774197 1 0 0 I I #
point $-1 57.58476516006958 -24.103108954844398 -5.6187643673774197 #
point $-1 57.58476516006958 -18.809135007166685 -5.6187643673774197 #
straight-curve $-1 -57.58476516006958 -10.728060990502771 -2.1778486392045142 0 1 0 I I #
edge $-1 $264 0.22869538755903074 $350 3.6696111157319362 $343 $399 forward 7 unknown #
point $-1 -57.58476516006958 -18.809135007166685 -2.1778486392045142 #
edge $-1 $268 2.1778486392045142 $348 5.6187643673774197 $344 $400 forward 7 unknown #
point $-1 -57.58476516006958 -24.103108954844398 -2.1778486392045142 #
straight-curve $-1 57.58476516006958 -24.103108954844398 0 0 0 -1 I I #
plane-surface $-1 0 24.103108954844398 0 0 -1 0 0 0 -1 forward_v I I I I #
coedge $-1 $401 $276 $280 $366 forward $179 $-1 #
coedge $-1 $276 $401 $291 $373 forward $179 $-1 #
vertex $-1 $278 $402 #
straight-curve $-1 0 18.340733521062198 -6.9583226770333138 -1 0 0 I I #
coedge $-1 $280 $279 $286 $371 forward $274 $-1 #
edge $-1 $281 18.340733521062198 $403 24.103108954844398 $280 $404 forward 7 unknown #
point $-1 -57.58476516006958 18.340733521062198 -6.9583226770333138 #
point $-1 -57.58476516006958 18.340733521062198 -2.9449757037598183 #
straight-curve $-1 -57.58476516006958 10.61096061897665 -2.9449757037598183 0 1 0 I I #
coedge $-1 $286 $285 $401 $405 reversed $287 $-1 #
edge $-1 $288 2.9449757037598183 $403 6.9583226770333138 $286 $406 forward 7 unknown #
point $-1 -57.58476516006958 24.103108954844402 -2.9449757037598183 #
edge $-1 $375 -24.103108954844398 $363 -18.340733521062198 $291 $407 forward 7 unknown #
straight-curve $-1 57.58476516006958 18.340733521062198 -2.4758245951982829 0 0 -1 I I #
vertex $-1 $373 $408 #
straight-curve $-1 57.58476516006958 24.103108954844398 0 0 0 -1 I I #
edge $-1 $378 -24.530290147098476 $381 -21.456320878787885 $297 $409 forward 7 unknown #
vertex $-1 $377 $410 #
straight-curve $-1 57.58476516006958 -0.7565287280260673 83.097715957117728 0 0 1 I I #
edge $-1 $381 -1.6946889450433993 $308 6.5971242911823325 $307 $411 forward 7 unknown #
vertex $-1 $380 $412 #
straight-curve $-1 -19.478691437872669 -0.7565287280260673 89.131975316293207 0.66913059716165679 0 -0.74314483375859142 I I #
point $-1 57.58476516006958 -0.7565287280260673 3.5443338524783456 #
point $-1 54.510795891758988 -9.048341964251799 6.9583226770333084 #
straight-curve $-1 57.58476516006958 0 6.9583226770333138 0 1 0 I I #
vertex $-1 $314 $413 #
point $-1 55.547121519773057 -7.3899793170066523 4.1277165247260283 #
vertex $-1 $318 $414 #
point $-1 55.547121519773057 -4.9024353461389332 4.1277165247260283 #
vertex $-1 $322 $415 #
point $-1 55.547121519773057 -2.414891375271214 4.1277165247260283 #
straight-curve $-1 -57.58476516006958 24.103108954844398 0 0 0 -1 I I #
point $-1 -57.58476516006958 -24.103108954844398 -6.9583226770333138 #
straight-curve $-1 -57.58476516006958 0 -6.9583226770333138 0 1 0 I I #
point $-1 -57.58476516006958 24.103108954844398 -6.9583226770333138 #
straight-curve $-1 -57.58476516006958 -10.728060990502771 -5.6187643673774197 0 -1 0 I I #
point $-1 -57.58476516006958 -24.103108954844398 -5.6187643673774197 #
point $-1 -57.58476516006958 -18.809135007166685 -5.6187643673774197 #
straight-curve $-1 -57.58476516006958 -18.809135007166685 -1.9491532516454835 0 0 -1 I I #
straight-curve $-1 -57.58476516006958 -24.103108954844398 0 0 0 -1 I I #
coedge $-1 $362 $361 $370 $405 forward $179 $-1 #
point $-1 57.58476516006958 18.340733521062198 -6.9583226770333138 #
vertex $-1 $405 $416 #
straight-curve $-1 -57.58476516006958 0 -6.9583226770333138 0 1 0 I I #
edge $-1 $403 -57.58476516006958 $375 57.58476516006958 $370 $417 forward 7 unknown #
straight-curve $-1 -57.58476516006958 24.103108954844398 0 0 0 -1 I I #
straight-curve $-1 57.58476516006958 0 -6.9583226770333138 0 -1 0 I I #
point $-1 57.58476516006958 24.103108954844398 -6.9583226770333138 #
straight-curve $-1 33.054475012971103 -0.7565287280260673 6.9583226770333084 -1 0 0 I I #
point $-1 57.58476516006958 -0.7565287280260673 6.9583226770333138 #
straight-curve $-1 54.510795891758988 -2.4512176730694666 6.9583226770333155 0 -1 0 I I #
point $-1 54.510795891758988 -0.7565287280260673 6.9583226770333084 #
point $-1 54.840983804312934 -7.3899793170066523 4.1647236430244954 #
point $-1 54.840983804312934 -4.9024353461389332 4.1647236430244954 #
point $-1 54.840983804312934 -2.414891375271214 4.1647236430244954 #
point $-1 -57.58476516006958 24.103108954844398 -6.9583226770333138 #
straight-curve $-1 0 24.103108954844398 -6.9583226770333138 1 0 0 I I #
End-of-ACIS-data 