500 0 7 0           
7 Unknown 11 ACIS 5.0 NT 24 Thu Mar 25 18:05:28 1999 
-1 9.9999999999999995e-007 1e-010 
body $-1 $7 $-1 $8 #
body $-1 $9 $-1 $10 #
body $-1 $11 $-1 $12 #
body $-1 $13 $-1 $14 #
body $-1 $15 $-1 $16 #
body $-1 $17 $-1 $18 #
body $-1 $19 $-1 $20 #
lump $-1 $-1 $21 $0 #
transform $-1 1 0 0 0 1 0 0 0 1 51.079439680166018 21.483544357194983 8.5771577282273253 1 rotate no_reflect no_shear #
lump $-1 $-1 $22 $1 #
transform $-1 1 0 0 0 1 0 0 0 1 51.079439680166018 21.483544357194983 8.5771577282273253 1 rotate no_reflect no_shear #
lump $-1 $-1 $23 $2 #
transform $-1 1 0 0 0 1 0 0 0 1 51.079439680166018 21.483544357194983 8.5771577282273253 1 rotate no_reflect no_shear #
lump $-1 $-1 $24 $3 #
transform $-1 1 0 0 0 1 0 0 0 1 51.079439680166018 21.483544357194983 8.5771577282273253 1 rotate no_reflect no_shear #
lump $-1 $-1 $25 $4 #
transform $-1 1 0 0 0 1 0 0 0 1 51.079439680166018 21.483544357194983 8.5771577282273253 1 rotate no_reflect no_shear #
lump $-1 $-1 $26 $5 #
transform $-1 1 0 0 0 1 0 0 0 1 51.079439680166018 21.483544357194983 8.5771577282273253 1 rotate no_reflect no_shear #
lump $-1 $-1 $27 $6 #
transform $-1 1 0 0 0 1 0 0 0 1 51.079439680166018 21.483544357194983 8.5771577282273253 1 rotate no_reflect no_shear #
shell $-1 $-1 $-1 $28 $-1 $7 #
shell $-1 $-1 $-1 $29 $-1 $9 #
shell $-1 $-1 $-1 $30 $-1 $11 #
shell $-1 $-1 $-1 $31 $-1 $13 #
shell $-1 $-1 $-1 $32 $-1 $15 #
shell $-1 $-1 $-1 $33 $-1 $17 #
shell $-1 $-1 $-1 $34 $-1 $19 #
face $-1 $35 $36 $21 $-1 $37 forward single #
face $-1 $38 $39 $22 $-1 $40 forward single #
face $-1 $41 $42 $23 $-1 $43 reversed single #
face $-1 $44 $45 $24 $-1 $46 forward single #
face $-1 $47 $48 $25 $-1 $49 forward single #
face $-1 $50 $51 $26 $-1 $52 reversed single #
face $-1 $53 $54 $27 $-1 $55 forward single #
face $-1 $56 $57 $21 $-1 $58 reversed single #
loop $-1 $-1 $59 $28 #
plane-surface $-1 0 0 8.5771577282273253 0 0 1 1 0 0 forward_v I I I I #
face $-1 $60 $61 $22 $-1 $62 reversed single #
loop $-1 $-1 $63 $29 #
plane-surface $-1 0 -16.767806442500401 -5.5771577282273253 0 0 1 1 0 0 forward_v I I I I #
face $-1 $64 $65 $23 $-1 $66 reversed single #
loop $-1 $-1 $67 $30 #
plane-surface $-1 -135.77298986483351 -6.6857031284560957 58.533786822760867 0 1 0 -0.82903758062907751 0 0.55919289150049634 forward_v I I I I #
face $-1 $68 $69 $24 $-1 $70 forward single #
loop $-1 $71 $72 $31 #
cone-surface $-1 -47.404473811235412 -4.3452369437373939 4.1444297256809683 0.82903758062907751 0 -0.55919289150049634 0.55919289150049634 0 0.82903758062907751 1 I I 0 1 1 forward I I I I #
face $-1 $73 $74 $25 $-1 $75 forward single #
loop $-1 $76 $77 $32 #
cone-surface $-1 -47.404473811235412 -0.83453766665934381 4.1444297256809683 0.82903758062907751 0 -0.55919289150049634 0.55919289150049634 0 0.82903758062907751 1 I I 0 1 1 forward I I I I #
face $-1 $78 $79 $26 $-1 $80 reversed single #
loop $-1 $-1 $81 $33 #
plane-surface $-1 21.041508981800177 15.233213798757816 143.11235728355879 0 1 0 0.54463904215088732 0 0.83867056331134215 forward_v I I I I #
face $-1 $82 $83 $27 $-1 $84 forward single #
loop $-1 $85 $86 $34 #
cone-surface $-1 45.065949381314375 18.358379077976398 3.9669892700227622 -0.54463904215088732 0 -0.83867056331134215 0.83867056331134215 0 -0.54463904215088732 1 I I 0 1 1 forward I I I I #
face $-1 $87 $88 $21 $-1 $89 reversed single #
loop $-1 $-1 $90 $35 #
plane-surface $-1 0 0 -8.5771577282273253 0 0 1 1 0 0 forward_v I I I I #
coedge $-1 $91 $92 $93 $94 forward $36 $-1 #
face $-1 $95 $96 $22 $-1 $97 reversed single #
loop $-1 $-1 $98 $38 #
plane-surface $-1 0 -12.052068527805817 -7.0771577282273253 0 -1 0 0 0 -1 forward_v I I I I #
coedge $-1 $99 $100 $101 $102 reversed $39 $-1 #
face $-1 $103 $104 $23 $-1 $105 reversed single #
loop $-1 $-1 $106 $41 #
plane-surface $-1 -51.079439680166033 -2.5898873051983706 1.4072676808064202 -0.82903758062907751 0 0.55919289150049634 0.55919289150049634 0 0.82903758062907751 forward_v I I I I #
coedge $-1 $107 $108 $109 $110 reversed $42 $-1 #
face $-1 $-1 $111 $24 $-1 $112 forward single #
loop $-1 $113 $114 $44 #
cone-surface $-1 -45.733065027583031 -4.3452369437373939 3.0170503010948213 0.82903758062907751 0 -0.55919289150049634 0.27959644575024817 0 0.41451879031453875 1 I I -0.70710678118654746 0.70710678118654746 0.5 forward I I I I #
loop $-1 $-1 $115 $31 #
coedge $-1 $72 $72 $116 $117 reversed $45 $-1 #
face $-1 $-1 $118 $25 $-1 $119 forward single #
loop $-1 $120 $121 $47 #
cone-surface $-1 -45.733065027583031 -0.83453766665934381 3.0170503010948213 0.82903758062907751 0 -0.55919289150049634 0.27959644575024817 0 0.41451879031453875 1 I I -0.70710678118654746 0.70710678118654746 0.5 forward I I I I #
loop $-1 $-1 $122 $32 #
coedge $-1 $77 $77 $123 $124 reversed $48 $-1 #
face $-1 $125 $126 $26 $-1 $127 reversed single #
loop $-1 $-1 $128 $50 #
plane-surface $-1 -34.598205220219114 18.358379077976398 57.434712383173675 0.54463904215088732 0 0.83867056331134215 0.83867056331134215 0 -0.54463904215088732 forward_v I I I I #
coedge $-1 $129 $130 $131 $132 reversed $51 $-1 #
face $-1 $-1 $133 $27 $-1 $134 forward single #
loop $-1 $135 $136 $53 #
cone-surface $-1 44.001944396887183 18.358379077976398 2.3285653036990031 -0.54463904215088732 0 -0.83867056331134215 0.41933528165567108 0 -0.27231952107544366 1 I I -0.70710678118654746 0.70710678118654746 0.5 forward I I I I #
loop $-1 $-1 $137 $34 #
coedge $-1 $86 $86 $138 $139 reversed $54 $-1 #
face $-1 $140 $141 $21 $-1 $142 reversed single #
loop $-1 $-1 $143 $56 #
plane-surface $-1 0 -21.483544357194983 0 0 1 0 0 0 1 forward_v I I I I #
coedge $-1 $144 $145 $146 $147 forward $57 $-1 #
coedge $-1 $148 $59 $149 $150 forward $36 $-1 #
coedge $-1 $59 $148 $151 $152 forward $36 $-1 #
coedge $-1 $153 $154 $59 $94 reversed $155 $-1 #
edge $-1 $156 -21.483544357194983 $157 21.483544357194983 $93 $158 forward 7 unknown #
face $-1 $159 $160 $22 $-1 $161 reversed single #
loop $-1 $-1 $162 $60 #
plane-surface $-1 0 0 -8.5771577282273253 0 0 1 1 0 0 forward_v I I I I #
coedge $-1 $163 $164 $165 $166 reversed $61 $-1 #
coedge $-1 $167 $63 $164 $168 forward $39 $-1 #
coedge $-1 $63 $167 $169 $170 reversed $39 $-1 #
coedge $-1 $171 $165 $63 $102 forward $160 $-1 #
edge $-1 $172 3.6681653065556166 $173 13.099641135944786 $101 $174 forward 7 unknown #
face $-1 $175 $176 $23 $-1 $177 forward single #
loop $-1 $-1 $178 $64 #
plane-surface $-1 -135.77298986483351 1.5059285180593545 58.533786822760867 0 -1 0 0.82903758062907751 0 -0.55919289150049634 forward_v I I I I #
coedge $-1 $179 $180 $181 $182 reversed $65 $-1 #
coedge $-1 $108 $67 $183 $184 reversed $42 $-1 #
coedge $-1 $67 $107 $179 $185 reversed $42 $-1 #
coedge $-1 $181 $186 $67 $110 forward $176 $-1 #
edge $-1 $187 16.807055252250734 $188 21.643207003436245 $109 $189 forward 7 unknown #
loop $-1 $-1 $116 $68 #
plane-surface $-1 -51.079439680166033 -2.5898873051983706 1.4072676808064202 -0.82903758062907751 0 0.55919289150049634 0.55919289150049634 0 0.82903758062907751 forward_v I I I I #
loop $-1 $-1 $190 $44 #
coedge $-1 $114 $114 $115 $191 reversed $69 $-1 #
coedge $-1 $115 $115 $114 $191 forward $71 $-1 #
coedge $-1 $116 $116 $72 $117 forward $111 $-1 #
edge $-1 $192 0 $192 6.2831853071796004 $116 $193 forward 7 unknown #
loop $-1 $-1 $123 $73 #
plane-surface $-1 -51.079439680166033 -2.5898873051983706 1.4072676808064202 -0.82903758062907751 0 0.55919289150049634 0.55919289150049634 0 0.82903758062907751 forward_v I I I I #
loop $-1 $-1 $194 $47 #
coedge $-1 $121 $121 $122 $195 reversed $74 $-1 #
coedge $-1 $122 $122 $121 $195 forward $76 $-1 #
coedge $-1 $123 $123 $77 $124 forward $118 $-1 #
edge $-1 $196 0 $196 6.2831853071796004 $123 $197 forward 7 unknown #
face $-1 $198 $199 $26 $-1 $200 forward single #
loop $-1 $-1 $201 $78 #
plane-surface $-1 0 21.483544357194983 0 0 -1 0 0 0 -1 forward_v I I I I #
coedge $-1 $202 $203 $204 $205 reversed $79 $-1 #
coedge $-1 $130 $81 $206 $207 reversed $51 $-1 #
coedge $-1 $81 $129 $202 $208 reversed $51 $-1 #
coedge $-1 $204 $209 $81 $132 forward $210 $-1 #
edge $-1 $211 62.97902091355207 $212 69.761180460625013 $131 $213 forward 7 unknown #
loop $-1 $-1 $138 $82 #
plane-surface $-1 -34.598205220219114 18.358379077976398 57.434712383173675 0.54463904215088732 0 0.83867056331134215 0.83867056331134215 0 -0.54463904215088732 forward_v I I I I #
loop $-1 $-1 $214 $53 #
coedge $-1 $136 $136 $137 $215 reversed $83 $-1 #
coedge $-1 $137 $137 $136 $215 forward $85 $-1 #
coedge $-1 $138 $138 $86 $139 forward $133 $-1 #
edge $-1 $216 0 $216 6.2831853071796004 $138 $217 forward 7 unknown #
face $-1 $218 $219 $21 $-1 $220 reversed single #
loop $-1 $-1 $221 $87 #
plane-surface $-1 -51.079439680166018 0 0 1 0 0 0 0 -1 forward_v I I I I #
coedge $-1 $222 $151 $223 $224 forward $88 $-1 #
coedge $-1 $225 $90 $222 $226 forward $57 $-1 #
coedge $-1 $90 $225 $227 $228 forward $57 $-1 #
coedge $-1 $154 $153 $90 $147 reversed $155 $-1 #
edge $-1 $229 -21.483544357194983 $230 21.483544357194983 $146 $231 forward 7 unknown #
coedge $-1 $92 $91 $232 $233 forward $36 $-1 #
coedge $-1 $234 $235 $91 $150 reversed $219 $-1 #
edge $-1 $157 -51.079439680166018 $236 51.079439680166018 $149 $237 forward 7 unknown #
coedge $-1 $143 $238 $92 $152 reversed $88 $-1 #
edge $-1 $239 -51.079439680166018 $156 51.079439680166018 $151 $240 forward 7 unknown #
coedge $-1 $146 $93 $238 $241 forward $155 $-1 #
coedge $-1 $93 $146 $234 $242 reversed $155 $-1 #
loop $-1 $-1 $153 $218 #
vertex $-1 $94 $243 #
vertex $-1 $94 $244 #
straight-curve $-1 51.079439680166018 0 8.5771577282273253 0 1 0 I I #
face $-1 $245 $246 $22 $-1 $247 reversed single #
loop $-1 $-1 $165 $95 #
plane-surface $-1 51.079439680166018 0 0 -1 0 0 0 0 1 forward_v I I I I #
coedge $-1 $248 $249 $163 $250 forward $96 $-1 #
coedge $-1 $251 $98 $162 $250 reversed $61 $-1 #
coedge $-1 $98 $251 $99 $168 reversed $61 $-1 #
coedge $-1 $101 $252 $98 $166 forward $160 $-1 #
edge $-1 $253 -5.0385788641136626 $172 -2.0385788641136626 $165 $254 forward 7 unknown #
coedge $-1 $100 $99 $255 $256 reversed $39 $-1 #
edge $-1 $172 -51.079439680166018 $257 51.079439680166018 $164 $258 forward 7 unknown #
coedge $-1 $259 $260 $100 $170 forward $246 $-1 #
edge $-1 $173 -51.079439680166018 $261 51.079439680166018 $169 $262 forward 7 unknown #
coedge $-1 $252 $101 $260 $263 forward $160 $-1 #
vertex $-1 $102 $264 #
vertex $-1 $263 $265 #
straight-curve $-1 51.079439680166018 -8.3839032212502005 -5.5771577282273253 0 -1 0 I I #
face $-1 $-1 $266 $23 $-1 $267 reversed single #
loop $-1 $-1 $109 $103 #
plane-surface $-1 0 0 8.5771577282273253 0 0 1 1 0 0 forward_v I I I I #
coedge $-1 $268 $269 $270 $271 reversed $104 $-1 #
coedge $-1 $272 $106 $108 $185 forward $65 $-1 #
coedge $-1 $106 $272 $268 $273 forward $65 $-1 #
coedge $-1 $270 $109 $106 $182 forward $176 $-1 #
edge $-1 $188 -5.3907594758569104 $274 2.8008721706585398 $181 $275 forward 7 unknown #
coedge $-1 $276 $277 $107 $184 forward $266 $-1 #
edge $-1 $278 -27.859625730573992 $187 -20.68973568315311 $183 $279 forward 7 unknown #
edge $-1 $188 -8.6484499797709535 $278 -2.5434524534472062e-014 $108 $280 forward 7 unknown #
coedge $-1 $109 $270 $276 $281 forward $176 $-1 #
vertex $-1 $184 $282 #
vertex $-1 $110 $283 #
straight-curve $-1 -67.886494932416753 -6.6857031284560957 8.577157728227327 1 0 0 I I #
coedge $-1 $190 $190 $-1 $284 reversed $113 $-1 #
edge $-1 $285 0 $285 6.2831853071796004 $114 $286 forward 7 unknown #
vertex $-1 $117 $287 #
ellipse-curve $-1 -48.661363804573263 -4.3452369437373939 4.9922127045168772 -0.82903758062907751 0 0.55919289150049634 0.55919289150049634 0 0.82903758062907751 1 I I #
coedge $-1 $194 $194 $-1 $288 reversed $120 $-1 #
edge $-1 $289 0 $289 6.2831853071796004 $121 $290 forward 7 unknown #
vertex $-1 $124 $291 #
ellipse-curve $-1 -48.661363804573263 -0.83453766665934381 4.9922127045168772 -0.82903758062907751 0 0.55919289150049634 0.55919289150049634 0 0.82903758062907751 1 I I #
face $-1 $-1 $210 $26 $-1 $292 reversed single #
loop $-1 $-1 $293 $125 #
plane-surface $-1 0 0 8.5771577282273253 0 0 1 1 0 0 forward_v I I I I #
coedge $-1 $294 $295 $203 $296 forward $126 $-1 #
coedge $-1 $297 $128 $130 $208 forward $79 $-1 #
coedge $-1 $128 $297 $201 $296 reversed $79 $-1 #
coedge $-1 $298 $131 $128 $205 forward $210 $-1 #
edge $-1 $212 6.0540242597696174 $299 12.304354818206784 $204 $300 forward 7 unknown #
coedge $-1 $301 $293 $129 $207 forward $199 $-1 #
edge $-1 $302 30.115075518266124 $211 40.55868518926593 $206 $303 forward 7 unknown #
edge $-1 $212 -102.15887936033205 $302 -89.706302475118562 $130 $304 forward 7 unknown #
coedge $-1 $131 $298 $301 $305 reversed $210 $-1 #
loop $-1 $-1 $204 $198 #
vertex $-1 $305 $306 #
vertex $-1 $132 $307 #
straight-curve $-1 51.079439680166018 15.233213798757816 71.556178641779397 0 0 -1 I I #
coedge $-1 $214 $214 $-1 $308 reversed $135 $-1 #
edge $-1 $309 0 $309 6.2831853071796004 $136 $310 forward 7 unknown #
vertex $-1 $139 $311 #
ellipse-curve $-1 45.857634844666123 18.358379077976398 5.1860779546908509 0.54463904215088732 0 0.83867056331134215 0.83867056331134215 0 -0.54463904215088732 1 I I #
face $-1 $-1 $155 $21 $-1 $312 reversed single #
loop $-1 $-1 $234 $140 #
plane-surface $-1 0 21.483544357194983 0 0 -1 0 0 0 -1 forward_v I I I I #
coedge $-1 $313 $232 $235 $314 forward $141 $-1 #
coedge $-1 $238 $143 $144 $226 reversed $88 $-1 #
coedge $-1 $232 $313 $143 $224 reversed $141 $-1 #
edge $-1 $239 -8.5771577282273253 $315 8.5771577282273253 $223 $316 forward 7 unknown #
coedge $-1 $145 $144 $313 $317 forward $57 $-1 #
edge $-1 $230 -51.079439680166018 $315 51.079439680166018 $222 $318 forward 7 unknown #
coedge $-1 $235 $234 $145 $228 reversed $219 $-1 #
edge $-1 $319 -51.079439680166018 $229 51.079439680166018 $227 $320 forward 7 unknown #
vertex $-1 $147 $321 #
vertex $-1 $241 $322 #
straight-curve $-1 51.079439680166018 0 -8.5771577282273253 0 -1 0 I I #
coedge $-1 $221 $223 $148 $233 reversed $141 $-1 #
edge $-1 $236 -21.483544357194983 $239 21.483544357194983 $232 $323 forward 7 unknown #
coedge $-1 $227 $149 $154 $242 forward $219 $-1 #
coedge $-1 $149 $227 $221 $314 reversed $219 $-1 #
vertex $-1 $150 $324 #
straight-curve $-1 0 21.483544357194983 8.5771577282273253 -1 0 0 I I #
coedge $-1 $151 $222 $153 $241 reversed $88 $-1 #
vertex $-1 $233 $325 #
straight-curve $-1 0 -21.483544357194983 8.5771577282273253 1 0 0 I I #
edge $-1 $156 -8.5771577282273253 $230 8.5771577282273253 $153 $326 forward 7 unknown #
edge $-1 $157 -8.5771577282273253 $229 8.5771577282273253 $154 $327 forward 7 unknown #
point $-1 51.079439680166018 -21.483544357194983 8.5771577282273253 #
point $-1 51.079439680166018 21.483544357194983 8.5771577282273253 #
face $-1 $-1 $328 $22 $-1 $329 reversed single #
loop $-1 $-1 $169 $159 #
plane-surface $-1 0 -21.483544357194983 0 0 1 0 0 0 1 forward_v I I I I #
coedge $-1 $330 $162 $252 $331 forward $96 $-1 #
coedge $-1 $162 $330 $332 $333 forward $96 $-1 #
edge $-1 $334 -51.079439680166018 $253 51.079439680166018 $162 $335 forward 7 unknown #
coedge $-1 $164 $163 $336 $337 reversed $61 $-1 #
coedge $-1 $165 $171 $248 $331 reversed $160 $-1 #
vertex $-1 $331 $338 #
straight-curve $-1 51.079439680166018 -12.052068527805817 -3.5385788641136626 0 0 1 I I #
coedge $-1 $336 $339 $167 $256 forward $328 $-1 #
edge $-1 $261 -13.099641135944786 $257 -3.6681653065556166 $255 $340 forward 7 unknown #
vertex $-1 $256 $341 #
straight-curve $-1 0 -12.052068527805817 -5.5771577282273253 -1 0 0 I I #
coedge $-1 $342 $169 $339 $343 forward $246 $-1 #
coedge $-1 $169 $342 $171 $263 reversed $246 $-1 #
vertex $-1 $343 $344 #
straight-curve $-1 0 -21.483544357194983 -5.5771577282273253 -1 0 0 I I #
edge $-1 $173 5.5771577282273253 $345 8.5771577282273253 $171 $346 forward 7 unknown #
point $-1 51.079439680166018 -12.052068527805817 -5.5771577282273253 #
point $-1 51.079439680166018 -21.483544357194987 -5.5771577282273253 #
loop $-1 $-1 $183 $175 #
plane-surface $-1 -51.079439680166018 0 0 1 0 0 0 0 -1 forward_v I I I I #
coedge $-1 $269 $178 $180 $273 reversed $104 $-1 #
coedge $-1 $178 $268 $347 $348 reversed $104 $-1 #
coedge $-1 $186 $181 $178 $271 forward $176 $-1 #
edge $-1 $274 -21.643207003436245 $349 -16.807055252250734 $270 $350 forward 7 unknown #
coedge $-1 $180 $179 $277 $351 reversed $65 $-1 #
edge $-1 $352 2.5434524534472062e-014 $274 8.6484499797709535 $268 $353 forward 7 unknown #
vertex $-1 $182 $354 #
straight-curve $-1 -46.243287928980507 -1.2949436525991853 8.577157728227327 0 1 0 I I #
coedge $-1 $347 $183 $186 $281 reversed $266 $-1 #
coedge $-1 $183 $347 $272 $351 forward $266 $-1 #
vertex $-1 $184 $355 #
straight-curve $-1 -51.079439680166018 -6.6857031284560957 29.266893411380433 0 0 1 I I #
straight-curve $-1 -51.079439680166033 -6.6857031284560957 1.4072676808064202 -0.55919289150049634 0 -0.82903758062907751 I I #
edge $-1 $349 -1.5059285180593545 $187 6.6857031284560957 $276 $356 forward 7 unknown #
point $-1 -51.079439680166018 -6.6857031284560957 8.5771577282273253 #
point $-1 -46.243287928980507 -6.6857031284560957 8.577157728227327 #
edge $-1 $357 1 $357 0 $190 $-1 forward 7 unknown #
vertex $-1 $191 $358 #
ellipse-curve $-1 -46.147583817897569 -4.3452369437373939 3.2966467468450693 -0.82903758062907751 0 0.55919289150049634 0.55919289150049634 0 0.82903758062907751 1 I I #
point $-1 -48.102170913072754 -4.3452369437373939 5.8212502851459451 #
edge $-1 $359 1 $359 0 $194 $-1 forward 7 unknown #
vertex $-1 $195 $360 #
ellipse-curve $-1 -46.147583817897569 -0.83453766665934381 3.2966467468450693 -0.82903758062907751 0 0.55919289150049634 0.55919289150049634 0 0.82903758062907751 1 I I #
point $-1 -48.102170913072754 -0.83453766665934381 5.8212502851459451 #
plane-surface $-1 51.079439680166018 0 0 -1 0 0 0 0 1 forward_v I I I I #
coedge $-1 $206 $361 $297 $362 forward $199 $-1 #
coedge $-1 $295 $201 $361 $363 reversed $126 $-1 #
coedge $-1 $201 $294 $298 $364 forward $126 $-1 #
edge $-1 $299 -72.010037860239052 $365 -59.557460975025549 $201 $366 forward 7 unknown #
coedge $-1 $203 $202 $293 $362 reversed $79 $-1 #
coedge $-1 $209 $204 $295 $364 reversed $210 $-1 #
vertex $-1 $296 $367 #
straight-curve $-1 51.079439680166011 9.179189538988199 1.7949981811543765 0 1 0 I I #
coedge $-1 $361 $206 $209 $305 forward $199 $-1 #
vertex $-1 $207 $368 #
straight-curve $-1 10.520754490900089 15.233213798757816 8.5771577282273199 1 0 0 I I #
straight-curve $-1 -34.598205220219114 15.233213798757816 57.434712383173675 -0.83867056331134215 0 0.54463904215088732 I I #
edge $-1 $211 15.233213798757816 $369 21.483544357194983 $209 $370 forward 7 unknown #
point $-1 51.079439680166018 15.233213798757816 8.5771577282273253 #
point $-1 51.079439680166018 15.233213798757816 1.7949981811543765 #
edge $-1 $371 1 $371 0 $214 $-1 forward 7 unknown #
vertex $-1 $215 $372 #
ellipse-curve $-1 44.274263917962628 18.358379077976398 2.7479005853546741 0.54463904215088732 0 0.83867056331134215 0.83867056331134215 0 -0.54463904215088732 1 I I #
point $-1 46.696305407977469 18.358379077976398 4.6414389125399627 #
plane-surface $-1 51.079439680166018 0 0 -1 0 0 0 0 1 forward_v I I I I #
coedge $-1 $223 $221 $225 $317 reversed $141 $-1 #
edge $-1 $236 -8.5771577282273253 $319 8.5771577282273253 $235 $373 forward 7 unknown #
vertex $-1 $317 $374 #
straight-curve $-1 -51.079439680166018 -21.483544357194983 0 0 0 -1 I I #
edge $-1 $315 -21.483544357194983 $319 21.483544357194983 $313 $375 forward 7 unknown #
straight-curve $-1 0 -21.483544357194983 -8.5771577282273253 -1 0 0 I I #
vertex $-1 $228 $376 #
straight-curve $-1 0 21.483544357194983 -8.5771577282273253 1 0 0 I I #
point $-1 51.079439680166018 21.483544357194983 -8.5771577282273253 #
point $-1 51.079439680166018 -21.483544357194983 -8.5771577282273253 #
straight-curve $-1 -51.079439680166018 0 8.5771577282273253 0 -1 0 I I #
point $-1 -51.079439680166018 21.483544357194983 8.5771577282273253 #
point $-1 -51.079439680166018 -21.483544357194983 8.5771577282273253 #
straight-curve $-1 51.079439680166018 -21.483544357194983 0 0 0 -1 I I #
straight-curve $-1 51.079439680166018 21.483544357194983 0 0 0 -1 I I #
loop $-1 $-1 $336 $245 #
plane-surface $-1 -51.079439680166018 0 0 1 0 0 0 0 -1 forward_v I I I I #
coedge $-1 $249 $248 $342 $377 forward $96 $-1 #
edge $-1 $253 12.052068527805817 $345 21.483544357194983 $252 $378 forward 7 unknown #
coedge $-1 $339 $336 $249 $333 reversed $328 $-1 #
edge $-1 $379 -21.483544357194983 $334 -12.052068527805817 $332 $380 forward 7 unknown #
vertex $-1 $337 $381 #
straight-curve $-1 0 -12.052068527805817 -8.5771577282273253 1 0 0 I I #
coedge $-1 $332 $255 $251 $337 forward $328 $-1 #
edge $-1 $257 2.0385788641136626 $334 5.0385788641136626 $336 $382 forward 7 unknown #
point $-1 51.079439680166018 -12.052068527805817 -8.5771577282273253 #
coedge $-1 $255 $332 $259 $343 reversed $328 $-1 #
straight-curve $-1 -51.079439680166018 -8.3839032212502005 -5.5771577282273253 0 1 0 I I #
point $-1 -51.079439680166018 -12.052068527805817 -5.5771577282273253 #
coedge $-1 $260 $259 $330 $377 reversed $246 $-1 #
edge $-1 $261 5.5771577282273253 $379 8.5771577282273253 $339 $383 forward 7 unknown #
point $-1 -51.079439680166018 -21.483544357194987 -5.5771577282273253 #
vertex $-1 $263 $384 #
straight-curve $-1 51.079439680166018 -21.483544357194983 0 0 0 -1 I I #
coedge $-1 $277 $276 $269 $348 forward $266 $-1 #
edge $-1 $349 20.68973568315311 $352 27.859625730573992 $347 $385 forward 7 unknown #
vertex $-1 $281 $386 #
straight-curve $-1 -67.886494932416753 1.5059285180593545 8.577157728227327 -1 0 0 I I #
edge $-1 $352 -2.8008721706585398 $278 5.3907594758569104 $277 $387 forward 7 unknown #
vertex $-1 $351 $388 #
straight-curve $-1 -51.079439680166033 1.5059285180593545 1.4072676808064202 0.55919289150049634 0 0.82903758062907751 I I #
point $-1 -46.243287928980507 1.5059285180593545 8.577157728227327 #
point $-1 -51.079439680166018 -6.6857031284560957 1.4072676808064413 #
straight-curve $-1 -51.079439680166018 0 8.5771577282273253 0 -1 0 I I #
vertex $-1 $284 $389 #
point $-1 -45.588390926397075 -4.3452369437373939 4.125684327474147 #
vertex $-1 $288 $390 #
point $-1 -45.588390926397075 -0.83453766665934381 4.125684327474147 #
coedge $-1 $293 $301 $294 $363 forward $199 $-1 #
edge $-1 $365 -12.304354818206781 $302 -6.0540242597696174 $293 $391 forward 7 unknown #
edge $-1 $369 -51.079439680166018 $365 -40.635830009166213 $294 $392 forward 7 unknown #
edge $-1 $369 -8.5771577282273253 $299 -1.794998181154376 $298 $393 forward 7 unknown #
vertex $-1 $296 $394 #
straight-curve $-1 -9.3132593361517486 21.483544357194983 41.014476226604103 -0.83867056331134215 0 0.54463904215088732 I I #
point $-1 51.079439680166018 21.483544357194983 1.794998181154376 #
point $-1 40.635830009166213 15.233213798757816 8.577157728227327 #
vertex $-1 $305 $395 #
straight-curve $-1 51.079439680166018 0 8.5771577282273253 0 1 0 I I #
vertex $-1 $308 $396 #
point $-1 45.112934481273967 18.358379077976398 2.2032615432037868 #
straight-curve $-1 -51.079439680166018 21.483544357194983 0 0 0 -1 I I #
point $-1 -51.079439680166018 -21.483544357194983 -8.5771577282273253 #
straight-curve $-1 -51.079439680166018 0 -8.5771577282273253 0 1 0 I I #
point $-1 -51.079439680166018 21.483544357194983 -8.5771577282273253 #
edge $-1 $345 -51.079439680166018 $379 51.079439680166018 $342 $397 forward 7 unknown #
straight-curve $-1 51.079439680166018 0 -8.5771577282273253 0 -1 0 I I #
vertex $-1 $333 $398 #
straight-curve $-1 -51.079439680166018 0 -8.5771577282273253 0 1 0 I I #
point $-1 -51.079439680166018 -12.052068527805817 -8.5771577282273253 #
straight-curve $-1 -51.079439680166018 -12.052068527805817 -3.5385788641136626 0 0 -1 I I #
straight-curve $-1 -51.079439680166018 -21.483544357194983 0 0 0 -1 I I #
point $-1 51.079439680166018 -21.483544357194983 -8.5771577282273253 #
straight-curve $-1 -51.079439680166018 1.5059285180593545 29.266893411380433 0 0 -1 I I #
point $-1 -51.079439680166018 1.5059285180593545 8.5771577282273253 #
straight-curve $-1 -51.079439680166018 -1.2949436525991853 1.4072676808064444 0 -1 0 I I #
point $-1 -51.079439680166018 1.5059285180593545 1.4072676808064413 #
point $-1 -45.318546237268492 -4.3452369437373939 2.7374538553445733 #
point $-1 -45.318546237268492 -0.83453766665934381 2.7374538553445733 #
straight-curve $-1 40.635830009166227 9.179189538988199 8.577157728227327 0 -1 0 I I #
straight-curve $-1 0 21.483544357194983 8.5771577282273253 -1 0 0 I I #
straight-curve $-1 51.079439680166018 21.483544357194983 0 0 0 -1 I I #
point $-1 40.635830009166213 21.48354435719498 8.577157728227327 #
point $-1 51.079439680166018 21.483544357194983 8.5771577282273253 #
point $-1 43.729624875811737 18.358379077976398 1.909230022043332 #
straight-curve $-1 0 -21.483544357194983 -8.5771577282273253 -1 0 0 I I #
point $-1 -51.079439680166018 -21.483544357194983 -8.5771577282273253 #
End-of-ACIS-data 