500 0 6 0           
7 Unknown 11 ACIS 5.0 NT 24 Fri Mar 26 03:33:02 1999 
-1 9.9999999999999995e-007 1e-010 
body $-1 $6 $-1 $7 #
body $-1 $8 $-1 $9 #
body $-1 $10 $-1 $11 #
body $-1 $12 $-1 $13 #
body $-1 $14 $-1 $15 #
body $-1 $16 $-1 $17 #
lump $-1 $-1 $18 $0 #
transform $-1 1 0 0 0 1 0 0 0 1 47.446516312143316 29.958043456429539 11.232049179690792 1 rotate no_reflect no_shear #
lump $-1 $-1 $19 $1 #
transform $-1 1 0 0 0 1 0 0 0 1 47.446516312143316 29.958043456429539 11.232049179690792 1 rotate no_reflect no_shear #
lump $-1 $-1 $20 $2 #
transform $-1 1 0 0 0 1 0 0 0 1 47.446516312143316 29.958043456429539 11.232049179690792 1 rotate no_reflect no_shear #
lump $-1 $-1 $21 $3 #
transform $-1 1 0 0 0 1 0 0 0 1 47.446516312143316 29.958043456429539 11.232049179690792 1 rotate no_reflect no_shear #
lump $-1 $-1 $22 $4 #
transform $-1 1 0 0 0 1 0 0 0 1 47.446516312143316 29.958043456429539 11.232049179690792 1 rotate no_reflect no_shear #
lump $-1 $-1 $23 $5 #
transform $-1 1 0 0 0 1 0 0 0 1 47.446516312143316 29.958043456429539 11.232049179690792 1 rotate no_reflect no_shear #
shell $-1 $-1 $-1 $24 $-1 $6 #
shell $-1 $-1 $-1 $25 $-1 $8 #
shell $-1 $-1 $-1 $26 $-1 $10 #
shell $-1 $-1 $-1 $27 $-1 $12 #
shell $-1 $-1 $-1 $28 $-1 $14 #
shell $-1 $-1 $-1 $29 $-1 $16 #
face $-1 $30 $31 $18 $-1 $32 forward single #
face $-1 $33 $34 $19 $-1 $35 forward single #
face $-1 $36 $37 $20 $-1 $38 reversed single #
face $-1 $39 $40 $21 $-1 $41 forward single #
face $-1 $42 $43 $22 $-1 $44 forward single #
face $-1 $45 $46 $23 $-1 $47 forward single #
face $-1 $48 $49 $18 $-1 $50 reversed single #
loop $-1 $-1 $51 $24 #
plane-surface $-1 0 0 11.232049179690792 0 0 1 1 0 0 forward_v I I I I #
face $-1 $52 $53 $19 $-1 $54 reversed single #
loop $-1 $-1 $55 $25 #
plane-surface $-1 0 -29.958043456429539 0 0 1 0 0 0 1 forward_v I I I I #
face $-1 $56 $57 $20 $-1 $58 reversed single #
loop $-1 $-1 $59 $26 #
plane-surface $-1 -34.157089833991861 76.909398761462441 102.531993370224 -1 0 0 0 0.83867057594974714 0.54463902268945019 forward_v I I I I #
face $-1 $60 $61 $21 $-1 $62 forward single #
loop $-1 $63 $64 $27 #
cone-surface $-1 -44.788631016513023 25.989936014654848 5.5809427815861294 0 -0.83867057594974714 -0.54463902268945019 1 0 0 1 I I 0 1 1 forward I I I I #
face $-1 $65 $66 $22 $-1 $67 forward single #
loop $-1 $68 $69 $28 #
cone-surface $-1 -40.801803073067589 25.989936014654848 5.5809427815861294 0 -0.83867057594974714 -0.54463902268945019 1 0 0 1 I I 0 1 1 forward I I I I #
face $-1 $70 $71 $23 $-1 $72 forward single #
loop $-1 $73 $74 $29 #
cone-surface $-1 -36.814975129622148 25.989936014654848 5.5809427815861294 0 -0.83867057594974714 -0.54463902268945019 1 0 0 1 I I 0 1 1 forward I I I I #
face $-1 $75 $76 $18 $-1 $77 reversed single #
loop $-1 $-1 $78 $30 #
plane-surface $-1 0 0 -11.232049179690792 0 0 1 1 0 0 forward_v I I I I #
coedge $-1 $79 $80 $81 $82 forward $31 $-1 #
face $-1 $83 $84 $19 $-1 $85 forward single #
loop $-1 $-1 $86 $33 #
plane-surface $-1 -47.446516312143316 0 0 1 0 0 0 0 -1 forward_v I I I I #
coedge $-1 $87 $88 $89 $90 forward $34 $-1 #
face $-1 $91 $92 $20 $-1 $93 forward single #
loop $-1 $-1 $94 $36 #
plane-surface $-1 -40.801803073067589 -2.6745955631661786 50.849544821694415 0 0.83867057594974714 0.54463902268945019 1 0 0 forward_v I I I I #
coedge $-1 $95 $96 $97 $98 reversed $37 $-1 #
face $-1 $-1 $99 $21 $-1 $100 forward single #
loop $-1 $101 $102 $39 #
cone-surface $-1 -44.788631016513023 25.054861961904823 4.9736986110662453 0 -0.83867057594974714 -0.54463902268945019 0.5 0 0 1 I I -0.70710678118654746 0.70710678118654746 0.5 forward I I I I #
loop $-1 $-1 $103 $27 #
coedge $-1 $64 $64 $104 $105 reversed $40 $-1 #
face $-1 $-1 $106 $22 $-1 $107 forward single #
loop $-1 $108 $109 $42 #
cone-surface $-1 -40.801803073067589 25.054861961904823 4.9736986110662453 0 -0.83867057594974714 -0.54463902268945019 0.5 0 0 1 I I -0.70710678118654746 0.70710678118654746 0.5 forward I I I I #
loop $-1 $-1 $110 $28 #
coedge $-1 $69 $69 $111 $112 reversed $43 $-1 #
face $-1 $-1 $113 $23 $-1 $114 forward single #
loop $-1 $115 $116 $45 #
cone-surface $-1 -36.814975129622148 25.054861961904823 4.9736986110662453 0 -0.83867057594974714 -0.54463902268945019 0.5 0 0 1 I I -0.70710678118654746 0.70710678118654746 0.5 forward I I I I #
loop $-1 $-1 $117 $29 #
coedge $-1 $74 $74 $118 $119 reversed $46 $-1 #
face $-1 $120 $121 $18 $-1 $122 reversed single #
loop $-1 $-1 $123 $48 #
plane-surface $-1 0 -29.958043456429539 0 0 1 0 0 0 1 forward_v I I I I #
coedge $-1 $124 $125 $126 $127 forward $49 $-1 #
coedge $-1 $128 $51 $129 $130 forward $31 $-1 #
coedge $-1 $51 $128 $131 $132 forward $31 $-1 #
coedge $-1 $133 $134 $51 $82 reversed $135 $-1 #
edge $-1 $136 -29.958043456429539 $137 29.958043456429539 $81 $138 forward 7 unknown #
face $-1 $139 $140 $19 $-1 $141 reversed single #
loop $-1 $-1 $142 $52 #
plane-surface $-1 0 -34.64276125055612 -5.1986856550992133 0 0 1 1 0 0 forward_v I I I I #
coedge $-1 $143 $144 $88 $145 forward $53 $-1 #
coedge $-1 $146 $55 $147 $148 reversed $34 $-1 #
coedge $-1 $55 $146 $86 $145 reversed $34 $-1 #
coedge $-1 $149 $142 $55 $90 reversed $84 $-1 #
edge $-1 $150 -47.446516312143316 $151 47.446516312143316 $89 $152 forward 7 unknown #
face $-1 $153 $154 $20 $-1 $155 reversed single #
loop $-1 $-1 $156 $56 #
plane-surface $-1 0 0 11.232049179690792 0 0 1 1 0 0 forward_v I I I I #
coedge $-1 $157 $158 $159 $160 reversed $57 $-1 #
coedge $-1 $96 $59 $161 $162 reversed $37 $-1 #
coedge $-1 $59 $95 $157 $163 reversed $37 $-1 #
coedge $-1 $159 $164 $59 $98 forward $154 $-1 #
edge $-1 $165 40.03394750542121 $166 50.666310983280198 $97 $167 forward 7 unknown #
loop $-1 $-1 $104 $60 #
plane-surface $-1 -40.801803073067589 -2.6745955631661786 50.849544821694415 0 0.83867057594974714 0.54463902268945019 1 0 0 forward_v I I I I #
loop $-1 $-1 $168 $39 #
coedge $-1 $102 $102 $103 $169 reversed $61 $-1 #
coedge $-1 $103 $103 $102 $169 forward $63 $-1 #
coedge $-1 $104 $104 $64 $105 forward $99 $-1 #
edge $-1 $170 1.3443307357375898e-015 $170 6.2831853071796022 $104 $171 forward 7 unknown #
loop $-1 $-1 $111 $65 #
plane-surface $-1 -40.801803073067589 -2.6745955631661786 50.849544821694415 0 0.83867057594974714 0.54463902268945019 1 0 0 forward_v I I I I #
loop $-1 $-1 $172 $42 #
coedge $-1 $109 $109 $110 $173 reversed $66 $-1 #
coedge $-1 $110 $110 $109 $173 forward $68 $-1 #
coedge $-1 $111 $111 $69 $112 forward $106 $-1 #
edge $-1 $174 1.3443307357375898e-015 $174 6.2831853071796022 $111 $175 forward 7 unknown #
loop $-1 $-1 $118 $70 #
plane-surface $-1 -40.801803073067589 -2.6745955631661786 50.849544821694415 0 0.83867057594974714 0.54463902268945019 1 0 0 forward_v I I I I #
loop $-1 $-1 $176 $45 #
coedge $-1 $116 $116 $117 $177 reversed $71 $-1 #
coedge $-1 $117 $117 $116 $177 forward $73 $-1 #
coedge $-1 $118 $118 $74 $119 forward $113 $-1 #
edge $-1 $178 1.3443307357375898e-015 $178 6.2831853071796022 $118 $179 forward 7 unknown #
face $-1 $180 $181 $18 $-1 $182 reversed single #
loop $-1 $-1 $183 $75 #
plane-surface $-1 -47.446516312143316 0 0 1 0 0 0 0 -1 forward_v I I I I #
coedge $-1 $184 $131 $185 $186 forward $76 $-1 #
coedge $-1 $187 $78 $184 $188 forward $49 $-1 #
coedge $-1 $78 $187 $189 $190 forward $49 $-1 #
coedge $-1 $134 $133 $78 $127 reversed $135 $-1 #
edge $-1 $191 -29.958043456429539 $192 29.958043456429539 $126 $193 forward 7 unknown #
coedge $-1 $80 $79 $194 $195 forward $31 $-1 #
coedge $-1 $196 $197 $79 $130 reversed $181 $-1 #
edge $-1 $137 -47.446516312143316 $198 47.446516312143316 $129 $199 forward 7 unknown #
coedge $-1 $123 $200 $80 $132 reversed $76 $-1 #
edge $-1 $201 -47.446516312143316 $136 47.446516312143316 $131 $202 forward 7 unknown #
coedge $-1 $126 $81 $200 $203 forward $135 $-1 #
coedge $-1 $81 $126 $196 $204 reversed $135 $-1 #
loop $-1 $-1 $133 $180 #
vertex $-1 $82 $205 #
vertex $-1 $82 $206 #
straight-curve $-1 47.446516312143316 0 11.232049179690792 0 1 0 I I #
face $-1 $207 $208 $19 $-1 $209 reversed single #
loop $-1 $-1 $210 $83 #
plane-surface $-1 0 -34.64276125055612 -8.3858357409456143 0 0 1 1 0 0 forward_v I I I I #
coedge $-1 $89 $211 $212 $213 forward $84 $-1 #
coedge $-1 $214 $86 $215 $216 reversed $53 $-1 #
coedge $-1 $86 $214 $149 $217 reversed $53 $-1 #
edge $-1 $150 5.1986856550992133 $218 8.3858357409456143 $86 $219 forward 7 unknown #
coedge $-1 $88 $87 $220 $221 forward $34 $-1 #
coedge $-1 $212 $222 $87 $148 forward $223 $-1 #
edge $-1 $224 -8.3858357409456143 $151 -5.1986856550992133 $147 $225 forward 7 unknown #
coedge $-1 $211 $89 $144 $217 forward $84 $-1 #
vertex $-1 $145 $226 #
vertex $-1 $213 $227 #
straight-curve $-1 0 -29.958043456429539 -5.1986856550992133 1 0 0 I I #
face $-1 $-1 $228 $20 $-1 $229 reversed single #
loop $-1 $-1 $97 $91 #
plane-surface $-1 0 29.958043456429539 0 0 -1 0 0 0 -1 forward_v I I I I #
coedge $-1 $161 $230 $231 $232 forward $92 $-1 #
coedge $-1 $231 $94 $96 $163 forward $57 $-1 #
coedge $-1 $94 $231 $233 $234 reversed $57 $-1 #
coedge $-1 $235 $97 $94 $160 forward $154 $-1 #
edge $-1 $166 13.756188297458067 $236 27.045614775609522 $159 $237 forward 7 unknown #
coedge $-1 $238 $156 $95 $162 forward $92 $-1 #
edge $-1 $239 -15.401393278300745 $165 -8.496655924301681 $161 $240 forward 7 unknown #
edge $-1 $166 -59.916086912859058 $239 -47.238447106766621 $96 $241 forward 7 unknown #
coedge $-1 $97 $235 $238 $242 reversed $154 $-1 #
vertex $-1 $242 $243 #
vertex $-1 $98 $244 #
straight-curve $-1 -34.157089833991861 29.958043456429539 51.265996685112 0 0 -1 I I #
coedge $-1 $168 $168 $-1 $245 reversed $101 $-1 #
edge $-1 $246 0 $246 6.2831853071796004 $102 $247 forward 7 unknown #
vertex $-1 $105 $248 #
ellipse-curve $-1 -44.788631016513023 26.505674779430009 5.9158674407612937 0 0.83867057594974714 0.54463902268945019 1 0 0 1 I I #
coedge $-1 $172 $172 $-1 $249 reversed $108 $-1 #
edge $-1 $250 0 $250 6.2831853071796004 $109 $251 forward 7 unknown #
vertex $-1 $112 $252 #
ellipse-curve $-1 -40.801803073067589 26.505674779430009 5.9158674407612937 0 0.83867057594974714 0.54463902268945019 1 0 0 1 I I #
coedge $-1 $176 $176 $-1 $253 reversed $115 $-1 #
edge $-1 $254 0 $254 6.2831853071796004 $116 $255 forward 7 unknown #
vertex $-1 $119 $256 #
ellipse-curve $-1 -36.814975129622148 26.505674779430009 5.9158674407612937 0 0.83867057594974714 0.54463902268945019 1 0 0 1 I I #
face $-1 $-1 $135 $18 $-1 $257 reversed single #
loop $-1 $-1 $196 $120 #
plane-surface $-1 0 29.958043456429539 0 0 -1 0 0 0 -1 forward_v I I I I #
coedge $-1 $258 $194 $197 $259 forward $121 $-1 #
coedge $-1 $200 $123 $124 $188 reversed $76 $-1 #
coedge $-1 $194 $258 $123 $186 reversed $121 $-1 #
edge $-1 $201 -11.232049179690792 $260 11.232049179690792 $185 $261 forward 7 unknown #
coedge $-1 $125 $124 $258 $262 forward $49 $-1 #
edge $-1 $192 -47.446516312143316 $260 47.446516312143316 $184 $263 forward 7 unknown #
coedge $-1 $197 $196 $125 $190 reversed $181 $-1 #
edge $-1 $264 -47.446516312143316 $191 47.446516312143316 $189 $265 forward 7 unknown #
vertex $-1 $127 $266 #
vertex $-1 $203 $267 #
straight-curve $-1 47.446516312143316 0 -11.232049179690792 0 -1 0 I I #
coedge $-1 $183 $185 $128 $195 reversed $121 $-1 #
edge $-1 $198 -29.958043456429539 $201 29.958043456429539 $194 $268 forward 7 unknown #
coedge $-1 $189 $129 $134 $204 forward $181 $-1 #
coedge $-1 $129 $189 $183 $259 reversed $181 $-1 #
vertex $-1 $130 $269 #
straight-curve $-1 0 29.958043456429539 11.232049179690792 -1 0 0 I I #
coedge $-1 $131 $184 $133 $203 reversed $76 $-1 #
vertex $-1 $195 $270 #
straight-curve $-1 0 -29.958043456429539 11.232049179690792 1 0 0 I I #
edge $-1 $136 -11.232049179690792 $192 11.232049179690792 $133 $271 forward 7 unknown #
edge $-1 $137 -11.232049179690792 $191 11.232049179690792 $134 $272 forward 7 unknown #
point $-1 47.446516312143316 -29.958043456429539 11.232049179690792 #
point $-1 47.446516312143316 29.958043456429539 11.232049179690792 #
face $-1 $-1 $223 $19 $-1 $273 reversed single #
loop $-1 $-1 $274 $139 #
plane-surface $-1 0 -39.327479044682704 -6.7922606980224138 0 1 0 0 0 1 forward_v I I I I #
coedge $-1 $275 $220 $222 $276 forward $140 $-1 #
coedge $-1 $142 $149 $277 $278 forward $84 $-1 #
coedge $-1 $279 $147 $142 $213 reversed $223 $-1 #
edge $-1 $280 -4.6847177941265841 $151 4.6847177941265841 $212 $281 forward 7 unknown #
coedge $-1 $144 $143 $274 $282 reversed $53 $-1 #
coedge $-1 $220 $275 $143 $216 forward $140 $-1 #
edge $-1 $283 -4.6847177941265841 $218 4.6847177941265841 $143 $284 forward 7 unknown #
edge $-1 $150 -4.6847177941265841 $285 4.6847177941265841 $144 $286 forward 7 unknown #
vertex $-1 $145 $287 #
straight-curve $-1 -47.446516312143316 -29.958043456429539 0 0 0 -1 I I #
coedge $-1 $210 $215 $146 $221 reversed $140 $-1 #
edge $-1 $224 -47.446516312143316 $218 47.446516312143316 $220 $288 forward 7 unknown #
coedge $-1 $147 $279 $210 $276 reversed $223 $-1 #
loop $-1 $-1 $147 $207 #
vertex $-1 $148 $289 #
straight-curve $-1 47.446516312143316 -29.958043456429539 0 0 0 1 I I #
point $-1 -47.446516312143316 -29.958043456429536 -5.1986856550992133 #
point $-1 47.446516312143316 -29.958043456429536 -5.1986856550992133 #
loop $-1 $-1 $233 $153 #
plane-surface $-1 -47.446516312143316 0 0 1 0 0 0 0 -1 forward_v I I I I #
coedge $-1 $156 $238 $290 $291 forward $92 $-1 #
coedge $-1 $158 $157 $156 $232 reversed $57 $-1 #
edge $-1 $292 -27.045614775609522 $239 -13.756188297458067 $156 $293 forward 7 unknown #
coedge $-1 $290 $294 $158 $234 forward $228 $-1 #
edge $-1 $236 -37.864733834856409 $292 -25.187094028763966 $233 $295 forward 7 unknown #
coedge $-1 $164 $159 $294 $296 reversed $154 $-1 #
vertex $-1 $160 $297 #
straight-curve $-1 -20.400901536533794 29.958043456429536 0.59968570183179892 -1 0 0 I I #
coedge $-1 $230 $161 $164 $242 forward $92 $-1 #
vertex $-1 $162 $298 #
straight-curve $-1 -34.157089833991861 38.454699380731221 11.23204917969079 0 1 0 I I #
straight-curve $-1 -34.157089833991861 -2.6745955631661786 50.849544821694415 0 -0.54463902268945019 0.83867057594974714 I I #
edge $-1 $165 34.157089833991861 $299 47.446516312143316 $164 $300 forward 7 unknown #
point $-1 -34.157089833991861 29.958043456429539 11.232049179690792 #
point $-1 -34.157089833991861 29.958043456429536 0.59968570183180248 #
edge $-1 $301 1 $301 0 $168 $-1 forward 7 unknown #
vertex $-1 $169 $302 #
ellipse-curve $-1 -44.788631016513023 25.474197249879698 5.2460181224109705 0 0.83867057594974714 0.54463902268945019 1 0 0 1 I I #
point $-1 -43.788631016513023 26.505674779430002 5.9158674407612875 #
edge $-1 $303 1 $303 0 $172 $-1 forward 7 unknown #
vertex $-1 $173 $304 #
ellipse-curve $-1 -40.801803073067589 25.474197249879698 5.2460181224109705 0 0.83867057594974714 0.54463902268945019 1 0 0 1 I I #
point $-1 -39.801803073067589 26.505674779430002 5.9158674407612875 #
edge $-1 $305 1 $305 0 $176 $-1 forward 7 unknown #
vertex $-1 $177 $306 #
ellipse-curve $-1 -36.814975129622148 25.474197249879698 5.2460181224109705 0 0.83867057594974714 0.54463902268945019 1 0 0 1 I I #
point $-1 -35.814975129622148 26.505674779430002 5.9158674407612875 #
plane-surface $-1 47.446516312143316 0 0 -1 0 0 0 0 1 forward_v I I I I #
coedge $-1 $185 $183 $187 $262 reversed $121 $-1 #
edge $-1 $198 -11.232049179690792 $264 11.232049179690792 $197 $307 forward 7 unknown #
vertex $-1 $262 $308 #
straight-curve $-1 -47.446516312143316 -29.958043456429539 0 0 0 -1 I I #
edge $-1 $260 -29.958043456429539 $264 29.958043456429539 $258 $309 forward 7 unknown #
straight-curve $-1 0 -29.958043456429539 -11.232049179690792 -1 0 0 I I #
vertex $-1 $190 $310 #
straight-curve $-1 0 29.958043456429539 -11.232049179690792 1 0 0 I I #
point $-1 47.446516312143316 29.958043456429539 -11.232049179690792 #
point $-1 47.446516312143316 -29.958043456429539 -11.232049179690792 #
straight-curve $-1 -47.446516312143316 0 11.232049179690792 0 -1 0 I I #
point $-1 -47.446516312143316 29.958043456429539 11.232049179690792 #
point $-1 -47.446516312143316 -29.958043456429539 11.232049179690792 #
straight-curve $-1 47.446516312143316 -29.958043456429539 0 0 0 -1 I I #
straight-curve $-1 47.446516312143316 29.958043456429539 0 0 0 -1 I I #
plane-surface $-1 47.446516312143316 0 0 -1 0 0 0 0 1 forward_v I I I I #
coedge $-1 $311 $277 $214 $282 forward $208 $-1 #
coedge $-1 $215 $210 $311 $312 forward $140 $-1 #
edge $-1 $224 -4.6847177941265841 $313 4.6847177941265841 $222 $314 forward 7 unknown #
coedge $-1 $274 $315 $211 $278 reversed $208 $-1 #
edge $-1 $285 -47.446516312143316 $280 47.446516312143316 $277 $316 forward 7 unknown #
coedge $-1 $222 $212 $315 $317 forward $223 $-1 #
vertex $-1 $213 $318 #
straight-curve $-1 47.446516312143316 -34.64276125055612 -5.1986856550992133 0 1 0 I I #
edge $-1 $285 -1.5935750429232005 $283 1.5935750429232005 $214 $319 forward 7 unknown #
vertex $-1 $216 $320 #
straight-curve $-1 -47.446516312143316 -34.64276125055612 -8.3858357409456143 0 1 0 I I #
vertex $-1 $217 $321 #
straight-curve $-1 -47.446516312143316 -34.64276125055612 -5.1986856550992133 0 -1 0 I I #
point $-1 -47.446516312143316 -29.958043456429536 -8.3858357409456143 #
straight-curve $-1 0 -29.958043456429539 -8.3858357409456143 -1 0 0 I I #
point $-1 47.446516312143316 -29.958043456429536 -8.3858357409456143 #
coedge $-1 $294 $233 $230 $291 reversed $228 $-1 #
edge $-1 $299 -29.958043456429539 $292 -23.053306102430476 $290 $322 forward 7 unknown #
vertex $-1 $234 $323 #
straight-curve $-1 -20.400901536533794 23.053306102430479 11.23204917969079 1 0 0 I I #
coedge $-1 $233 $290 $235 $296 forward $228 $-1 #
straight-curve $-1 -47.446516312143316 9.3354318262171851 32.355723835294704 0 -0.54463902268945019 0.83867057594974714 I I #
edge $-1 $299 -11.232049179690792 $236 -0.59968570183179792 $235 $324 forward 7 unknown #
point $-1 -47.446516312143316 29.958043456429539 0.59968570183179792 #
point $-1 -34.157089833991861 23.053306102430476 11.23204917969079 #
vertex $-1 $242 $325 #
straight-curve $-1 0 29.958043456429539 11.232049179690792 -1 0 0 I I #
vertex $-1 $245 $326 #
point $-1 -43.788631016513023 25.474197249879698 5.2460181224109705 #
vertex $-1 $249 $327 #
point $-1 -39.801803073067589 25.474197249879698 5.2460181224109705 #
vertex $-1 $253 $328 #
point $-1 -35.814975129622148 25.474197249879698 5.2460181224109705 #
straight-curve $-1 -47.446516312143316 29.958043456429539 0 0 0 -1 I I #
point $-1 -47.446516312143316 -29.958043456429539 -11.232049179690792 #
straight-curve $-1 -47.446516312143316 0 -11.232049179690792 0 1 0 I I #
point $-1 -47.446516312143316 29.958043456429539 -11.232049179690792 #
coedge $-1 $315 $274 $275 $312 reversed $208 $-1 #
edge $-1 $313 -47.446516312143316 $283 47.446516312143316 $311 $329 forward 7 unknown #
vertex $-1 $317 $330 #
straight-curve $-1 47.446516312143316 -34.64276125055612 -8.3858357409456143 0 -1 0 I I #
coedge $-1 $277 $311 $279 $317 reversed $208 $-1 #
straight-curve $-1 0 -39.327479044682704 -5.1986856550992133 1 0 0 I I #
edge $-1 $280 -1.5935750429232005 $313 1.5935750429232005 $279 $331 forward 7 unknown #
point $-1 47.446516312143316 -39.327479044682704 -5.1986856550992133 #
straight-curve $-1 -47.446516312143316 -39.327479044682704 -6.7922606980224138 0 0 -1 I I #
point $-1 -47.446516312143316 -39.327479044682704 -8.3858357409456143 #
point $-1 -47.446516312143316 -39.327479044682704 -5.1986856550992133 #
straight-curve $-1 -47.446516312143316 0 11.232049179690792 0 -1 0 I I #
point $-1 -47.446516312143316 23.053306102430476 11.23204917969079 #
straight-curve $-1 -47.446516312143316 29.958043456429539 0 0 0 -1 I I #
point $-1 -47.446516312143316 29.958043456429539 11.232049179690792 #
point $-1 -44.788631016513023 24.635526673929949 4.7013790997215201 #
point $-1 -40.801803073067589 24.635526673929949 4.7013790997215201 #
point $-1 -36.814975129622148 24.635526673929949 4.7013790997215201 #
straight-curve $-1 0 -39.327479044682704 -8.3858357409456143 -1 0 0 I I #
point $-1 47.446516312143316 -39.327479044682704 -8.3858357409456143 #
straight-curve $-1 47.446516312143316 -39.327479044682704 -6.7922606980224138 0 0 -1 I I #
End-of-ACIS-data 