500 0 17 0           
7 Unknown 11 ACIS 5.0 NT 24 Thu Mar 25 18:38:03 1999 
-1 9.9999999999999995e-007 1e-010 
body $-1 $17 $-1 $18 #
body $-1 $19 $-1 $20 #
body $-1 $21 $-1 $22 #
body $-1 $23 $-1 $24 #
body $-1 $25 $-1 $26 #
body $-1 $27 $-1 $28 #
body $-1 $29 $-1 $30 #
body $-1 $31 $-1 $32 #
body $-1 $33 $-1 $34 #
body $-1 $35 $-1 $36 #
body $-1 $37 $-1 $38 #
body $-1 $39 $-1 $40 #
body $-1 $41 $-1 $42 #
body $-1 $43 $-1 $44 #
body $-1 $45 $-1 $46 #
body $-1 $47 $-1 $48 #
body $-1 $49 $-1 $50 #
lump $-1 $-1 $51 $0 #
transform $-1 1 0 0 0 1 0 0 0 1 71.410870693075353 33.601923508622811 16.050309939732351 1 rotate no_reflect no_shear #
lump $-1 $-1 $52 $1 #
transform $-1 1 0 0 0 1 0 0 0 1 71.410870693075353 33.601923508622811 16.050309939732351 1 rotate no_reflect no_shear #
lump $-1 $-1 $53 $2 #
transform $-1 1 0 0 0 1 0 0 0 1 71.410870693075353 33.601923508622811 16.050309939732351 1 rotate no_reflect no_shear #
lump $-1 $-1 $54 $3 #
transform $-1 1 0 0 0 1 0 0 0 1 71.410870693075353 33.601923508622811 16.050309939732351 1 rotate no_reflect no_shear #
lump $-1 $-1 $55 $4 #
transform $-1 1 0 0 0 1 0 0 0 1 71.410870693075353 33.601923508622811 16.050309939732351 1 rotate no_reflect no_shear #
lump $-1 $-1 $56 $5 #
transform $-1 1 0 0 0 1 0 0 0 1 71.410870693075353 33.601923508622811 16.050309939732351 1 rotate no_reflect no_shear #
lump $-1 $-1 $57 $6 #
transform $-1 1 0 0 0 1 0 0 0 1 71.410870693075353 33.601923508622811 16.050309939732351 1 rotate no_reflect no_shear #
lump $-1 $-1 $58 $7 #
transform $-1 1 0 0 0 1 0 0 0 1 71.410870693075353 33.601923508622811 16.050309939732351 1 rotate no_reflect no_shear #
lump $-1 $-1 $59 $8 #
transform $-1 1 0 0 0 1 0 0 0 1 71.410870693075353 33.601923508622811 16.050309939732351 1 rotate no_reflect no_shear #
lump $-1 $-1 $60 $9 #
transform $-1 1 0 0 0 1 0 0 0 1 71.410870693075353 33.601923508622811 16.050309939732351 1 rotate no_reflect no_shear #
lump $-1 $-1 $61 $10 #
transform $-1 1 0 0 0 1 0 0 0 1 71.410870693075353 33.601923508622811 16.050309939732351 1 rotate no_reflect no_shear #
lump $-1 $-1 $62 $11 #
transform $-1 1 0 0 0 1 0 0 0 1 71.410870693075353 33.601923508622811 16.050309939732351 1 rotate no_reflect no_shear #
lump $-1 $-1 $63 $12 #
transform $-1 1 0 0 0 1 0 0 0 1 71.410870693075353 33.601923508622811 16.050309939732351 1 rotate no_reflect no_shear #
lump $-1 $-1 $64 $13 #
transform $-1 1 0 0 0 1 0 0 0 1 71.410870693075353 33.601923508622811 16.050309939732351 1 rotate no_reflect no_shear #
lump $-1 $-1 $65 $14 #
transform $-1 1 0 0 0 1 0 0 0 1 71.410870693075353 33.601923508622811 16.050309939732351 1 rotate no_reflect no_shear #
lump $-1 $-1 $66 $15 #
transform $-1 1 0 0 0 1 0 0 0 1 71.410870693075353 33.601923508622811 16.050309939732351 1 rotate no_reflect no_shear #
lump $-1 $-1 $67 $16 #
transform $-1 1 0 0 0 1 0 0 0 1 71.410870693075353 33.601923508622811 16.050309939732351 1 rotate no_reflect no_shear #
shell $-1 $-1 $-1 $68 $-1 $17 #
shell $-1 $-1 $-1 $69 $-1 $19 #
shell $-1 $-1 $-1 $70 $-1 $21 #
shell $-1 $-1 $-1 $71 $-1 $23 #
shell $-1 $-1 $-1 $72 $-1 $25 #
shell $-1 $-1 $-1 $73 $-1 $27 #
shell $-1 $-1 $-1 $74 $-1 $29 #
shell $-1 $-1 $-1 $75 $-1 $31 #
shell $-1 $-1 $-1 $76 $-1 $33 #
shell $-1 $-1 $-1 $77 $-1 $35 #
shell $-1 $-1 $-1 $78 $-1 $37 #
shell $-1 $-1 $-1 $79 $-1 $39 #
shell $-1 $-1 $-1 $80 $-1 $41 #
shell $-1 $-1 $-1 $81 $-1 $43 #
shell $-1 $-1 $-1 $82 $-1 $45 #
shell $-1 $-1 $-1 $83 $-1 $47 #
shell $-1 $-1 $-1 $84 $-1 $49 #
face $-1 $85 $86 $51 $-1 $87 forward single #
face $-1 $88 $89 $52 $-1 $90 reversed single #
face $-1 $91 $92 $53 $-1 $93 forward single #
face $-1 $94 $95 $54 $-1 $96 forward single #
face $-1 $97 $98 $55 $-1 $99 forward single #
face $-1 $100 $101 $56 $-1 $102 reversed single #
face $-1 $103 $104 $57 $-1 $105 forward single #
face $-1 $106 $107 $58 $-1 $108 forward single #
face $-1 $109 $110 $59 $-1 $111 forward single #
face $-1 $112 $113 $60 $-1 $114 reversed single #
face $-1 $115 $116 $61 $-1 $117 forward single #
face $-1 $118 $119 $62 $-1 $120 forward single #
face $-1 $121 $122 $63 $-1 $123 forward single #
face $-1 $124 $125 $64 $-1 $126 reversed single #
face $-1 $127 $128 $65 $-1 $129 forward single #
face $-1 $130 $131 $66 $-1 $132 forward single #
face $-1 $133 $134 $67 $-1 $135 forward single #
face $-1 $136 $137 $51 $-1 $138 reversed single #
loop $-1 $-1 $139 $68 #
plane-surface $-1 0 0 16.050309939732351 0 0 1 1 0 0 forward_v I I I I #
face $-1 $140 $141 $52 $-1 $142 reversed single #
loop $-1 $-1 $143 $69 #
plane-surface $-1 120.27436548109795 0 201.92821616194351 0 -1 0 -0.85716730853699208 0 -0.51503806187062418 forward_v I I I I #
face $-1 $144 $145 $53 $-1 $146 forward single #
loop $-1 $147 $148 $70 #
cone-surface $-1 67.947083493413928 -9.8688973427980322 10.741363749380751 -0.85716730853699208 0 -0.51503806187062418 0.25751903093531209 0 -0.42858365426849604 1 I I 0 1 0.5 forward I I I I #
face $-1 $149 $150 $54 $-1 $151 forward single #
loop $-1 $152 $153 $71 #
cone-surface $-1 67.947083493413928 -6.1680608392487706 10.741363749380751 -0.85716730853699208 0 -0.51503806187062418 0.25751903093531209 0 -0.42858365426849604 1 I I 0 1 0.5 forward I I I I #
face $-1 $154 $155 $55 $-1 $156 forward single #
loop $-1 $157 $158 $72 #
cone-surface $-1 67.947083493413928 -2.4672243356995089 10.741363749380751 -0.85716730853699208 0 -0.51503806187062418 0.25751903093531209 0 -0.42858365426849604 1 I I 0 1 0.5 forward I I I I #
face $-1 $159 $160 $56 $-1 $161 reversed single #
loop $-1 $-1 $162 $73 #
plane-surface $-1 120.27436548109795 21.265801830125273 201.92821616194351 0 1 0 0.85716730853699208 0 0.51503806187062418 forward_v I I I I #
face $-1 $163 $164 $57 $-1 $165 forward single #
loop $-1 $166 $167 $74 #
cone-surface $-1 67.947083493413928 23.733026165824775 10.741363749380751 -0.85716730853699208 0 -0.51503806187062418 0.25751903093531209 0 -0.42858365426849604 1 I I 0 1 0.5 forward I I I I #
face $-1 $168 $169 $58 $-1 $170 forward single #
loop $-1 $171 $172 $75 #
cone-surface $-1 67.947083493413928 27.433862669374044 10.741363749380751 -0.85716730853699208 0 -0.51503806187062418 0.25751903093531209 0 -0.42858365426849604 1 I I 0 1 0.5 forward I I I I #
face $-1 $173 $174 $59 $-1 $175 forward single #
loop $-1 $176 $177 $76 #
cone-surface $-1 67.947083493413928 31.134699172923298 10.741363749380751 -0.85716730853699208 0 -0.51503806187062418 0.25751903093531209 0 -0.42858365426849604 1 I I 0 1 0.5 forward I I I I #
face $-1 $178 $179 $60 $-1 $180 reversed single #
loop $-1 $-1 $181 $77 #
plane-surface $-1 -193.83299835760852 -12.336121678497541 79.50608849741036 0 1 0 -0.85716730853699208 0 0.51503806187062418 forward_v I I I I #
face $-1 $182 $183 $61 $-1 $184 forward single #
loop $-1 $185 $186 $78 #
cone-surface $-1 -67.947083493413913 -9.8688973427980322 10.741363749380758 0.85716730853699208 0 -0.51503806187062418 0.25751903093531209 0 0.42858365426849604 1 I I 0 1 0.5 forward I I I I #
face $-1 $187 $188 $62 $-1 $189 forward single #
loop $-1 $190 $191 $79 #
cone-surface $-1 -67.947083493413913 -6.1680608392487706 10.741363749380758 0.85716730853699208 0 -0.51503806187062418 0.25751903093531209 0 0.42858365426849604 1 I I 0 1 0.5 forward I I I I #
face $-1 $192 $193 $63 $-1 $194 forward single #
loop $-1 $195 $196 $80 #
cone-surface $-1 -67.947083493413913 -2.4672243356995089 10.741363749380758 0.85716730853699208 0 -0.51503806187062418 0.25751903093531209 0 0.42858365426849604 1 I I 0 1 0.5 forward I I I I #
face $-1 $197 $198 $64 $-1 $199 reversed single #
loop $-1 $-1 $200 $81 #
plane-surface $-1 -193.83299835760852 21.265801830125273 79.50608849741036 0 1 0 -0.85716730853699208 0 0.51503806187062418 forward_v I I I I #
face $-1 $201 $202 $65 $-1 $203 forward single #
loop $-1 $204 $205 $82 #
cone-surface $-1 -67.947083493413913 23.733026165824775 10.741363749380758 0.85716730853699208 0 -0.51503806187062418 0.25751903093531209 0 0.42858365426849604 1 I I 0 1 0.5 forward I I I I #
face $-1 $206 $207 $66 $-1 $208 forward single #
loop $-1 $209 $210 $83 #
cone-surface $-1 -67.947083493413913 27.433862669374044 10.741363749380758 0.85716730853699208 0 -0.51503806187062418 0.25751903093531209 0 0.42858365426849604 1 I I 0 1 0.5 forward I I I I #
face $-1 $211 $212 $67 $-1 $213 forward single #
loop $-1 $214 $215 $84 #
cone-surface $-1 -67.947083493413913 31.134699172923298 10.741363749380758 0.85716730853699208 0 -0.51503806187062418 0.25751903093531209 0 0.42858365426849604 1 I I 0 1 0.5 forward I I I I #
face $-1 $216 $217 $51 $-1 $218 reversed single #
loop $-1 $-1 $219 $85 #
plane-surface $-1 0 0 -16.050309939732351 0 0 1 1 0 0 forward_v I I I I #
coedge $-1 $220 $221 $222 $223 forward $86 $-1 #
face $-1 $224 $225 $52 $-1 $226 reversed single #
loop $-1 $-1 $227 $88 #
plane-surface $-1 -2.1477621834351908 -6.1680608392487706 128.36958328543295 0.85716730853699208 0 0.51503806187062418 0.51503806187062418 0 -0.85716730853699208 forward_v I I I I #
coedge $-1 $228 $229 $230 $231 reversed $89 $-1 #
face $-1 $-1 $232 $53 $-1 $233 forward single #
loop $-1 $234 $235 $91 #
cone-surface $-1 67.304208012011188 -9.8688973427980322 10.355085202977783 -0.85716730853699208 0 -0.51503806187062418 0.12875951546765604 0 -0.21429182713424802 1 I I -0.70710678118654746 0.70710678118654746 0.25 forward I I I I #
loop $-1 $-1 $236 $70 #
coedge $-1 $148 $148 $237 $238 reversed $92 $-1 #
face $-1 $-1 $239 $54 $-1 $240 forward single #
loop $-1 $241 $242 $94 #
cone-surface $-1 67.304208012011188 -6.1680608392487706 10.355085202977783 -0.85716730853699208 0 -0.51503806187062418 0.12875951546765604 0 -0.21429182713424802 1 I I -0.70710678118654746 0.70710678118654746 0.25 forward I I I I #
loop $-1 $-1 $243 $71 #
coedge $-1 $153 $153 $244 $245 reversed $95 $-1 #
face $-1 $-1 $246 $55 $-1 $247 forward single #
loop $-1 $248 $249 $97 #
cone-surface $-1 67.304208012011188 -2.4672243356995089 10.355085202977783 -0.85716730853699208 0 -0.51503806187062418 0.12875951546765604 0 -0.21429182713424802 1 I I -0.70710678118654746 0.70710678118654746 0.25 forward I I I I #
loop $-1 $-1 $250 $72 #
coedge $-1 $158 $158 $251 $252 reversed $98 $-1 #
face $-1 $253 $254 $56 $-1 $255 reversed single #
loop $-1 $-1 $256 $100 #
plane-surface $-1 -2.1477621834351908 27.433862669374044 128.36958328543295 0.85716730853699208 0 0.51503806187062418 0.51503806187062418 0 -0.85716730853699208 forward_v I I I I #
coedge $-1 $257 $258 $259 $260 reversed $101 $-1 #
face $-1 $-1 $261 $57 $-1 $262 forward single #
loop $-1 $263 $264 $103 #
cone-surface $-1 67.304208012011188 23.733026165824775 10.355085202977783 -0.85716730853699208 0 -0.51503806187062418 0.12875951546765604 0 -0.21429182713424802 1 I I -0.70710678118654746 0.70710678118654746 0.25 forward I I I I #
loop $-1 $-1 $265 $74 #
coedge $-1 $167 $167 $266 $267 reversed $104 $-1 #
face $-1 $-1 $268 $58 $-1 $269 forward single #
loop $-1 $270 $271 $106 #
cone-surface $-1 67.304208012011188 27.433862669374044 10.355085202977783 -0.85716730853699208 0 -0.51503806187062418 0.12875951546765604 0 -0.21429182713424802 1 I I -0.70710678118654746 0.70710678118654746 0.25 forward I I I I #
loop $-1 $-1 $272 $75 #
coedge $-1 $172 $172 $273 $274 reversed $107 $-1 #
face $-1 $-1 $275 $59 $-1 $276 forward single #
loop $-1 $277 $278 $109 #
cone-surface $-1 67.304208012011188 31.134699172923298 10.355085202977783 -0.85716730853699208 0 -0.51503806187062418 0.12875951546765604 0 -0.21429182713424802 1 I I -0.70710678118654746 0.70710678118654746 0.25 forward I I I I #
loop $-1 $-1 $279 $76 #
coedge $-1 $177 $177 $280 $281 reversed $110 $-1 #
face $-1 $282 $283 $60 $-1 $284 reversed single #
loop $-1 $-1 $285 $112 #
plane-surface $-1 -71.410870693075381 -6.1680608392487706 5.9474556208997882 -0.85716730853699208 0 0.51503806187062418 0.51503806187062418 0 0.85716730853699208 forward_v I I I I #
coedge $-1 $286 $287 $288 $289 reversed $113 $-1 #
face $-1 $-1 $290 $61 $-1 $291 forward single #
loop $-1 $292 $293 $115 #
cone-surface $-1 -67.304208012011173 -9.8688973427980322 10.35508520297779 0.85716730853699208 0 -0.51503806187062418 0.12875951546765604 0 0.21429182713424802 1 I I -0.70710678118654746 0.70710678118654746 0.25 forward I I I I #
loop $-1 $-1 $294 $78 #
coedge $-1 $186 $186 $295 $296 reversed $116 $-1 #
face $-1 $-1 $297 $62 $-1 $298 forward single #
loop $-1 $299 $300 $118 #
cone-surface $-1 -67.304208012011173 -6.1680608392487706 10.35508520297779 0.85716730853699208 0 -0.51503806187062418 0.12875951546765604 0 0.21429182713424802 1 I I -0.70710678118654746 0.70710678118654746 0.25 forward I I I I #
loop $-1 $-1 $301 $79 #
coedge $-1 $191 $191 $302 $303 reversed $119 $-1 #
face $-1 $-1 $304 $63 $-1 $305 forward single #
loop $-1 $306 $307 $121 #
cone-surface $-1 -67.304208012011173 -2.4672243356995089 10.35508520297779 0.85716730853699208 0 -0.51503806187062418 0.12875951546765604 0 0.21429182713424802 1 I I -0.70710678118654746 0.70710678118654746 0.25 forward I I I I #
loop $-1 $-1 $308 $80 #
coedge $-1 $196 $196 $309 $310 reversed $122 $-1 #
face $-1 $311 $312 $64 $-1 $313 forward single #
loop $-1 $-1 $314 $124 #
plane-surface $-1 -71.410870693075381 27.433862669374044 5.9474556208997882 -0.85716730853699208 0 0.51503806187062418 0.51503806187062418 0 0.85716730853699208 forward_v I I I I #
coedge $-1 $315 $316 $317 $318 reversed $125 $-1 #
face $-1 $-1 $319 $65 $-1 $320 forward single #
loop $-1 $321 $322 $127 #
cone-surface $-1 -67.304208012011173 23.733026165824775 10.35508520297779 0.85716730853699208 0 -0.51503806187062418 0.12875951546765604 0 0.21429182713424802 1 I I -0.70710678118654746 0.70710678118654746 0.25 forward I I I I #
loop $-1 $-1 $323 $82 #
coedge $-1 $205 $205 $324 $325 reversed $128 $-1 #
face $-1 $-1 $326 $66 $-1 $327 forward single #
loop $-1 $328 $329 $130 #
cone-surface $-1 -67.304208012011173 27.433862669374044 10.35508520297779 0.85716730853699208 0 -0.51503806187062418 0.12875951546765604 0 0.21429182713424802 1 I I -0.70710678118654746 0.70710678118654746 0.25 forward I I I I #
loop $-1 $-1 $330 $83 #
coedge $-1 $210 $210 $331 $332 reversed $131 $-1 #
face $-1 $-1 $333 $67 $-1 $334 forward single #
loop $-1 $335 $336 $133 #
cone-surface $-1 -67.304208012011173 31.134699172923298 10.35508520297779 0.85716730853699208 0 -0.51503806187062418 0.12875951546765604 0 0.21429182713424802 1 I I -0.70710678118654746 0.70710678118654746 0.25 forward I I I I #
loop $-1 $-1 $337 $84 #
coedge $-1 $215 $215 $338 $339 reversed $134 $-1 #
face $-1 $340 $341 $51 $-1 $342 reversed single #
loop $-1 $-1 $343 $136 #
plane-surface $-1 0 -33.601923508622811 0 0 1 0 0 0 1 forward_v I I I I #
coedge $-1 $344 $345 $346 $347 forward $137 $-1 #
coedge $-1 $348 $139 $349 $350 forward $86 $-1 #
coedge $-1 $139 $348 $351 $352 forward $86 $-1 #
coedge $-1 $353 $354 $139 $223 reversed $355 $-1 #
edge $-1 $356 -33.601923508622811 $357 33.601923508622811 $222 $358 forward 7 unknown #
face $-1 $359 $360 $52 $-1 $361 forward single #
loop $-1 $-1 $362 $140 #
plane-surface $-1 120.27436548109795 -12.336121678497541 201.92821616194351 0 1 0 0.85716730853699208 0 0.51503806187062418 forward_v I I I I #
coedge $-1 $363 $364 $365 $366 reversed $141 $-1 #
coedge $-1 $229 $143 $367 $368 reversed $89 $-1 #
coedge $-1 $143 $228 $363 $369 reversed $89 $-1 #
coedge $-1 $365 $370 $143 $231 forward $360 $-1 #
edge $-1 $371 -11.27368795252638 $372 -5.2032808617405735 $230 $373 forward 7 unknown #
loop $-1 $-1 $237 $144 #
plane-surface $-1 -2.1477621834351908 -6.1680608392487706 128.36958328543295 0.85716730853699208 0 0.51503806187062418 0.51503806187062418 0 -0.85716730853699208 forward_v I I I I #
loop $-1 $-1 $374 $91 #
coedge $-1 $235 $235 $236 $375 reversed $145 $-1 #
coedge $-1 $236 $236 $235 $375 forward $147 $-1 #
coedge $-1 $237 $237 $148 $238 forward $232 $-1 #
edge $-1 $376 0 $376 6.2831853071796004 $237 $377 forward 7 unknown #
loop $-1 $-1 $244 $149 #
plane-surface $-1 -2.1477621834351908 -6.1680608392487706 128.36958328543295 0.85716730853699208 0 0.51503806187062418 0.51503806187062418 0 -0.85716730853699208 forward_v I I I I #
loop $-1 $-1 $378 $94 #
coedge $-1 $242 $242 $243 $379 reversed $150 $-1 #
coedge $-1 $243 $243 $242 $379 forward $152 $-1 #
coedge $-1 $244 $244 $153 $245 forward $239 $-1 #
edge $-1 $380 0 $380 6.2831853071796004 $244 $381 forward 7 unknown #
loop $-1 $-1 $251 $154 #
plane-surface $-1 -2.1477621834351908 -6.1680608392487706 128.36958328543295 0.85716730853699208 0 0.51503806187062418 0.51503806187062418 0 -0.85716730853699208 forward_v I I I I #
loop $-1 $-1 $382 $97 #
coedge $-1 $249 $249 $250 $383 reversed $155 $-1 #
coedge $-1 $250 $250 $249 $383 forward $157 $-1 #
coedge $-1 $251 $251 $158 $252 forward $246 $-1 #
edge $-1 $384 0 $384 6.2831853071796004 $251 $385 forward 7 unknown #
face $-1 $386 $387 $56 $-1 $388 forward single #
loop $-1 $-1 $259 $159 #
plane-surface $-1 71.410870693075353 0 0 -1 0 0 0 0 1 forward_v I I I I #
coedge $-1 $389 $390 $391 $392 reversed $160 $-1 #
coedge $-1 $258 $162 $393 $394 reversed $101 $-1 #
coedge $-1 $162 $257 $389 $395 reversed $101 $-1 #
coedge $-1 $391 $396 $162 $260 forward $254 $-1 #
edge $-1 $397 84.913798141239397 $398 95.016652460071882 $259 $399 forward 7 unknown #
loop $-1 $-1 $266 $163 #
plane-surface $-1 -2.1477621834351908 27.433862669374044 128.36958328543295 0.85716730853699208 0 0.51503806187062418 0.51503806187062418 0 -0.85716730853699208 forward_v I I I I #
loop $-1 $-1 $400 $103 #
coedge $-1 $264 $264 $265 $401 reversed $164 $-1 #
coedge $-1 $265 $265 $264 $401 forward $166 $-1 #
coedge $-1 $266 $266 $167 $267 forward $261 $-1 #
edge $-1 $402 0 $402 6.2831853071796004 $266 $403 forward 7 unknown #
loop $-1 $-1 $273 $168 #
plane-surface $-1 -2.1477621834351908 27.433862669374044 128.36958328543295 0.85716730853699208 0 0.51503806187062418 0.51503806187062418 0 -0.85716730853699208 forward_v I I I I #
loop $-1 $-1 $404 $106 #
coedge $-1 $271 $271 $272 $405 reversed $169 $-1 #
coedge $-1 $272 $272 $271 $405 forward $171 $-1 #
coedge $-1 $273 $273 $172 $274 forward $268 $-1 #
edge $-1 $406 0 $406 6.2831853071796004 $273 $407 forward 7 unknown #
loop $-1 $-1 $280 $173 #
plane-surface $-1 -2.1477621834351908 27.433862669374044 128.36958328543295 0.85716730853699208 0 0.51503806187062418 0.51503806187062418 0 -0.85716730853699208 forward_v I I I I #
loop $-1 $-1 $408 $109 #
coedge $-1 $278 $278 $279 $409 reversed $174 $-1 #
coedge $-1 $279 $279 $278 $409 forward $176 $-1 #
coedge $-1 $280 $280 $177 $281 forward $275 $-1 #
edge $-1 $410 0 $410 6.2831853071796004 $280 $411 forward 7 unknown #
face $-1 $412 $413 $60 $-1 $414 reversed single #
loop $-1 $-1 $415 $178 #
plane-surface $-1 -193.83299835760852 0 79.50608849741036 0 -1 0 0.85716730853699208 0 -0.51503806187062418 forward_v I I I I #
coedge $-1 $416 $417 $418 $419 reversed $179 $-1 #
coedge $-1 $287 $181 $420 $421 reversed $113 $-1 #
coedge $-1 $181 $286 $416 $422 reversed $113 $-1 #
coedge $-1 $418 $423 $181 $289 forward $424 $-1 #
edge $-1 $425 25.505628485728906 $426 31.576035576514741 $288 $427 forward 7 unknown #
loop $-1 $-1 $295 $182 #
plane-surface $-1 -71.410870693075381 -6.1680608392487706 5.9474556208997882 -0.85716730853699208 0 0.51503806187062418 0.51503806187062418 0 0.85716730853699208 forward_v I I I I #
loop $-1 $-1 $428 $115 #
coedge $-1 $293 $293 $294 $429 reversed $183 $-1 #
coedge $-1 $294 $294 $293 $429 forward $185 $-1 #
coedge $-1 $295 $295 $186 $296 forward $290 $-1 #
edge $-1 $430 0 $430 6.2831853071796004 $295 $431 forward 7 unknown #
loop $-1 $-1 $302 $187 #
plane-surface $-1 -71.410870693075381 -6.1680608392487706 5.9474556208997882 -0.85716730853699208 0 0.51503806187062418 0.51503806187062418 0 0.85716730853699208 forward_v I I I I #
loop $-1 $-1 $432 $118 #
coedge $-1 $300 $300 $301 $433 reversed $188 $-1 #
coedge $-1 $301 $301 $300 $433 forward $190 $-1 #
coedge $-1 $302 $302 $191 $303 forward $297 $-1 #
edge $-1 $434 0 $434 6.2831853071796004 $302 $435 forward 7 unknown #
loop $-1 $-1 $309 $192 #
plane-surface $-1 -71.410870693075381 -6.1680608392487706 5.9474556208997882 -0.85716730853699208 0 0.51503806187062418 0.51503806187062418 0 0.85716730853699208 forward_v I I I I #
loop $-1 $-1 $436 $121 #
coedge $-1 $307 $307 $308 $437 reversed $193 $-1 #
coedge $-1 $308 $308 $307 $437 forward $195 $-1 #
coedge $-1 $309 $309 $196 $310 forward $304 $-1 #
edge $-1 $438 0 $438 6.2831853071796004 $309 $439 forward 7 unknown #
face $-1 $440 $441 $64 $-1 $442 reversed single #
loop $-1 $-1 $317 $197 #
plane-surface $-1 0 0 16.050309939732351 0 0 1 1 0 0 forward_v I I I I #
coedge $-1 $443 $444 $445 $446 reversed $198 $-1 #
coedge $-1 $316 $200 $447 $448 reversed $125 $-1 #
coedge $-1 $200 $315 $443 $449 reversed $125 $-1 #
coedge $-1 $445 $450 $200 $318 forward $312 $-1 #
edge $-1 $451 25.505628485728906 $452 31.576035576514741 $317 $453 forward 7 unknown #
loop $-1 $-1 $324 $201 #
plane-surface $-1 -71.410870693075381 27.433862669374044 5.9474556208997882 -0.85716730853699208 0 0.51503806187062418 0.51503806187062418 0 0.85716730853699208 forward_v I I I I #
loop $-1 $-1 $454 $127 #
coedge $-1 $322 $322 $323 $455 reversed $202 $-1 #
coedge $-1 $323 $323 $322 $455 forward $204 $-1 #
coedge $-1 $324 $324 $205 $325 forward $319 $-1 #
edge $-1 $456 0 $456 6.2831853071796004 $324 $457 forward 7 unknown #
loop $-1 $-1 $331 $206 #
plane-surface $-1 -71.410870693075381 27.433862669374044 5.9474556208997882 -0.85716730853699208 0 0.51503806187062418 0.51503806187062418 0 0.85716730853699208 forward_v I I I I #
loop $-1 $-1 $458 $130 #
coedge $-1 $329 $329 $330 $459 reversed $207 $-1 #
coedge $-1 $330 $330 $329 $459 forward $209 $-1 #
coedge $-1 $331 $331 $210 $332 forward $326 $-1 #
edge $-1 $460 0 $460 6.2831853071796004 $331 $461 forward 7 unknown #
loop $-1 $-1 $338 $211 #
plane-surface $-1 -71.410870693075381 27.433862669374044 5.9474556208997882 -0.85716730853699208 0 0.51503806187062418 0.51503806187062418 0 0.85716730853699208 forward_v I I I I #
loop $-1 $-1 $462 $133 #
coedge $-1 $336 $336 $337 $463 reversed $212 $-1 #
coedge $-1 $337 $337 $336 $463 forward $214 $-1 #
coedge $-1 $338 $338 $215 $339 forward $333 $-1 #
edge $-1 $464 0 $464 6.2831853071796004 $338 $465 forward 7 unknown #
face $-1 $466 $467 $51 $-1 $468 reversed single #
loop $-1 $-1 $469 $216 #
plane-surface $-1 -71.410870693075353 0 0 1 0 0 0 0 -1 forward_v I I I I #
coedge $-1 $470 $351 $471 $472 forward $217 $-1 #
coedge $-1 $473 $219 $470 $474 forward $137 $-1 #
coedge $-1 $219 $473 $475 $476 forward $137 $-1 #
coedge $-1 $354 $353 $219 $347 reversed $355 $-1 #
edge $-1 $477 -33.601923508622811 $478 33.601923508622811 $346 $479 forward 7 unknown #
coedge $-1 $221 $220 $480 $481 forward $86 $-1 #
coedge $-1 $482 $483 $220 $350 reversed $467 $-1 #
edge $-1 $357 -71.410870693075353 $484 71.410870693075353 $349 $485 forward 7 unknown #
coedge $-1 $343 $486 $221 $352 reversed $217 $-1 #
edge $-1 $487 -71.410870693075353 $356 71.410870693075353 $351 $488 forward 7 unknown #
coedge $-1 $346 $222 $486 $489 forward $355 $-1 #
coedge $-1 $222 $346 $482 $490 reversed $355 $-1 #
loop $-1 $-1 $353 $466 #
vertex $-1 $223 $491 #
vertex $-1 $223 $492 #
straight-curve $-1 71.410870693075353 0 16.050309939732351 0 1 0 I I #
face $-1 $-1 $493 $52 $-1 $494 reversed single #
loop $-1 $-1 $230 $224 #
plane-surface $-1 0 0 16.050309939732351 0 0 1 1 0 0 forward_v I I I I #
coedge $-1 $495 $496 $497 $498 reversed $225 $-1 #
coedge $-1 $499 $227 $229 $369 forward $141 $-1 #
coedge $-1 $227 $499 $495 $500 forward $141 $-1 #
coedge $-1 $497 $230 $227 $366 forward $360 $-1 #
edge $-1 $372 -3.0840304196243853 $501 9.2520912588731559 $365 $502 forward 7 unknown #
coedge $-1 $503 $504 $228 $368 forward $493 $-1 #
edge $-1 $505 -95.016652460071882 $371 -84.913798141239397 $367 $506 forward 7 unknown #
edge $-1 $372 131.0354142383317 $505 142.82174138615068 $229 $507 forward 7 unknown #
coedge $-1 $230 $497 $503 $508 forward $360 $-1 #
vertex $-1 $368 $509 #
vertex $-1 $231 $510 #
straight-curve $-1 60.137182740548973 0 16.050309939732358 -1 0 0 I I #
coedge $-1 $374 $374 $-1 $511 reversed $234 $-1 #
edge $-1 $512 0 $512 6.2831853071796004 $235 $513 forward 7 unknown #
vertex $-1 $238 $514 #
ellipse-curve $-1 68.375667147682464 -9.8688973427980322 10.998882780316086 0.85716730853699208 0 0.51503806187062418 0.25751903093531209 0 -0.42858365426849604 1 I I #
coedge $-1 $378 $378 $-1 $515 reversed $241 $-1 #
edge $-1 $516 0 $516 6.2831853071796004 $242 $517 forward 7 unknown #
vertex $-1 $245 $518 #
ellipse-curve $-1 68.375667147682464 -6.1680608392487706 10.998882780316086 0.85716730853699208 0 0.51503806187062418 0.25751903093531209 0 -0.42858365426849604 1 I I #
coedge $-1 $382 $382 $-1 $519 reversed $248 $-1 #
edge $-1 $520 0 $520 6.2831853071796004 $249 $521 forward 7 unknown #
vertex $-1 $252 $522 #
ellipse-curve $-1 68.375667147682464 -2.4672243356995089 10.998882780316086 0.85716730853699208 0 0.51503806187062418 0.25751903093531209 0 -0.42858365426849604 1 I I #
face $-1 $-1 $523 $56 $-1 $524 reversed single #
loop $-1 $-1 $393 $253 #
plane-surface $-1 0 0 16.050309939732351 0 0 1 1 0 0 forward_v I I I I #
coedge $-1 $525 $256 $258 $395 forward $160 $-1 #
coedge $-1 $256 $525 $526 $527 reversed $160 $-1 #
coedge $-1 $528 $259 $256 $392 forward $254 $-1 #
edge $-1 $398 7.5488704954382513 $529 19.884992173935789 $391 $530 forward 7 unknown #
coedge $-1 $531 $532 $257 $394 forward $387 $-1 #
edge $-1 $533 5.2032808617405735 $397 11.27368795252638 $393 $534 forward 7 unknown #
edge $-1 $398 -142.82174138615068 $533 -131.0354142383317 $258 $535 forward 7 unknown #
coedge $-1 $259 $528 $531 $536 reversed $254 $-1 #
vertex $-1 $536 $537 #
vertex $-1 $260 $538 #
straight-curve $-1 71.410870693075353 21.265801830125273 100.96410808097176 0 0 -1 I I #
coedge $-1 $400 $400 $-1 $539 reversed $263 $-1 #
edge $-1 $540 0 $540 6.2831853071796004 $264 $541 forward 7 unknown #
vertex $-1 $267 $542 #
ellipse-curve $-1 68.375667147682464 23.733026165824775 10.998882780316086 0.85716730853699208 0 0.51503806187062418 0.25751903093531209 0 -0.42858365426849604 1 I I #
coedge $-1 $404 $404 $-1 $543 reversed $270 $-1 #
edge $-1 $544 0 $544 6.2831853071796004 $271 $545 forward 7 unknown #
vertex $-1 $274 $546 #
ellipse-curve $-1 68.375667147682464 27.433862669374044 10.998882780316086 0.85716730853699208 0 0.51503806187062418 0.25751903093531209 0 -0.42858365426849604 1 I I #
coedge $-1 $408 $408 $-1 $547 reversed $277 $-1 #
edge $-1 $548 0 $548 6.2831853071796004 $278 $549 forward 7 unknown #
vertex $-1 $281 $550 #
ellipse-curve $-1 68.375667147682464 31.134699172923298 10.998882780316086 0.85716730853699208 0 0.51503806187062418 0.25751903093531209 0 -0.42858365426849604 1 I I #
face $-1 $-1 $424 $60 $-1 $551 forward single #
loop $-1 $-1 $552 $282 #
plane-surface $-1 -71.410870693075353 0 0 1 0 0 0 0 -1 forward_v I I I I #
coedge $-1 $553 $554 $555 $556 reversed $283 $-1 #
coedge $-1 $557 $285 $287 $422 forward $179 $-1 #
coedge $-1 $285 $557 $553 $558 forward $179 $-1 #
coedge $-1 $555 $288 $285 $419 forward $424 $-1 #
edge $-1 $426 -9.2520912588731559 $559 3.0840304196243853 $418 $560 forward 7 unknown #
coedge $-1 $561 $562 $286 $421 forward $413 $-1 #
edge $-1 $563 -33.805588627805342 $425 -23.702734308972829 $420 $564 forward 7 unknown #
edge $-1 $426 -11.786327147819083 $563 -5.4988089932380084e-014 $287 $565 forward 7 unknown #
coedge $-1 $288 $555 $561 $566 forward $424 $-1 #
loop $-1 $-1 $555 $412 #
vertex $-1 $421 $567 #
vertex $-1 $289 $568 #
straight-curve $-1 -96.916499178804258 -12.336121678497541 16.050309939732351 1 0 0 I I #
coedge $-1 $428 $428 $-1 $569 reversed $292 $-1 #
edge $-1 $570 0 $570 6.2831853071796004 $293 $571 forward 7 unknown #
vertex $-1 $296 $572 #
ellipse-curve $-1 -68.375667147682435 -9.8688973427980322 10.998882780316089 -0.85716730853699208 0 0.51503806187062418 0.25751903093531209 0 0.42858365426849604 1 I I #
coedge $-1 $432 $432 $-1 $573 reversed $299 $-1 #
edge $-1 $574 0 $574 6.2831853071796004 $300 $575 forward 7 unknown #
vertex $-1 $303 $576 #
ellipse-curve $-1 -68.375667147682435 -6.1680608392487706 10.998882780316089 -0.85716730853699208 0 0.51503806187062418 0.25751903093531209 0 0.42858365426849604 1 I I #
coedge $-1 $436 $436 $-1 $577 reversed $306 $-1 #
edge $-1 $578 0 $578 6.2831853071796004 $307 $579 forward 7 unknown #
vertex $-1 $310 $580 #
ellipse-curve $-1 -68.375667147682435 -2.4672243356995089 10.998882780316089 -0.85716730853699208 0 0.51503806187062418 0.25751903093531209 0 0.42858365426849604 1 I I #
face $-1 $-1 $581 $64 $-1 $582 reversed single #
loop $-1 $-1 $583 $311 #
plane-surface $-1 0 33.601923508622811 0 0 -1 0 0 0 -1 forward_v I I I I #
coedge $-1 $584 $314 $316 $449 forward $198 $-1 #
coedge $-1 $314 $584 $583 $585 reversed $198 $-1 #
coedge $-1 $586 $317 $314 $446 forward $312 $-1 #
edge $-1 $452 7.5488704954382513 $587 19.884992173935796 $445 $588 forward 7 unknown #
coedge $-1 $589 $590 $315 $448 forward $581 $-1 #
edge $-1 $591 -33.805588627805342 $451 -23.702734308972829 $447 $592 forward 7 unknown #
edge $-1 $452 -11.786327147819083 $591 -5.4988089932380084e-014 $316 $593 forward 7 unknown #
coedge $-1 $317 $586 $589 $594 forward $312 $-1 #
vertex $-1 $448 $595 #
vertex $-1 $318 $596 #
straight-curve $-1 -96.916499178804258 21.265801830125273 16.050309939732351 1 0 0 I I #
coedge $-1 $454 $454 $-1 $597 reversed $321 $-1 #
edge $-1 $598 0 $598 6.2831853071796004 $322 $599 forward 7 unknown #
vertex $-1 $325 $600 #
ellipse-curve $-1 -68.375667147682435 23.733026165824775 10.998882780316089 -0.85716730853699208 0 0.51503806187062418 0.25751903093531209 0 0.42858365426849604 1 I I #
coedge $-1 $458 $458 $-1 $601 reversed $328 $-1 #
edge $-1 $602 0 $602 6.2831853071796004 $329 $603 forward 7 unknown #
vertex $-1 $332 $604 #
ellipse-curve $-1 -68.375667147682435 27.433862669374044 10.998882780316089 -0.85716730853699208 0 0.51503806187062418 0.25751903093531209 0 0.42858365426849604 1 I I #
coedge $-1 $462 $462 $-1 $605 reversed $335 $-1 #
edge $-1 $606 0 $606 6.2831853071796004 $336 $607 forward 7 unknown #
vertex $-1 $339 $608 #
ellipse-curve $-1 -68.375667147682435 31.134699172923298 10.998882780316089 -0.85716730853699208 0 0.51503806187062418 0.25751903093531209 0 0.42858365426849604 1 I I #
face $-1 $-1 $355 $51 $-1 $609 reversed single #
loop $-1 $-1 $482 $340 #
plane-surface $-1 0 33.601923508622811 0 0 -1 0 0 0 -1 forward_v I I I I #
coedge $-1 $610 $480 $483 $611 forward $341 $-1 #
coedge $-1 $486 $343 $344 $474 reversed $217 $-1 #
coedge $-1 $480 $610 $343 $472 reversed $341 $-1 #
edge $-1 $487 -16.050309939732351 $612 16.050309939732351 $471 $613 forward 7 unknown #
coedge $-1 $345 $344 $610 $614 forward $137 $-1 #
edge $-1 $478 -71.410870693075353 $612 71.410870693075353 $470 $615 forward 7 unknown #
coedge $-1 $483 $482 $345 $476 reversed $467 $-1 #
edge $-1 $616 -71.410870693075353 $477 71.410870693075353 $475 $617 forward 7 unknown #
vertex $-1 $347 $618 #
vertex $-1 $489 $619 #
straight-curve $-1 71.410870693075353 0 -16.050309939732351 0 -1 0 I I #
coedge $-1 $469 $471 $348 $481 reversed $341 $-1 #
edge $-1 $484 -33.601923508622811 $487 33.601923508622811 $480 $620 forward 7 unknown #
coedge $-1 $475 $349 $354 $490 forward $467 $-1 #
coedge $-1 $349 $475 $469 $611 reversed $467 $-1 #
vertex $-1 $350 $621 #
straight-curve $-1 0 33.601923508622811 16.050309939732351 -1 0 0 I I #
coedge $-1 $351 $470 $353 $489 reversed $217 $-1 #
vertex $-1 $481 $622 #
straight-curve $-1 0 -33.601923508622811 16.050309939732351 1 0 0 I I #
edge $-1 $356 -16.050309939732351 $478 16.050309939732351 $353 $623 forward 7 unknown #
edge $-1 $357 -16.050309939732351 $477 16.050309939732351 $354 $624 forward 7 unknown #
point $-1 71.410870693075353 -33.601923508622811 16.050309939732351 #
point $-1 71.410870693075353 33.601923508622811 16.050309939732351 #
loop $-1 $-1 $367 $359 #
plane-surface $-1 71.410870693075353 0 0 -1 0 0 0 0 1 forward_v I I I I #
coedge $-1 $496 $362 $364 $500 reversed $225 $-1 #
coedge $-1 $362 $495 $625 $626 reversed $225 $-1 #
coedge $-1 $370 $365 $362 $498 forward $360 $-1 #
edge $-1 $501 5.2032808617405735 $627 11.27368795252638 $497 $628 forward 7 unknown #
coedge $-1 $364 $363 $504 $629 reversed $141 $-1 #
edge $-1 $630 -142.82174138615068 $501 -131.0354142383317 $495 $631 forward 7 unknown #
vertex $-1 $366 $632 #
straight-curve $-1 65.340463602289532 -3.0840304196243853 16.050309939732358 0 -1 0 I I #
coedge $-1 $625 $367 $370 $508 reversed $493 $-1 #
coedge $-1 $367 $625 $499 $629 forward $493 $-1 #
vertex $-1 $368 $633 #
straight-curve $-1 71.410870693075353 0 100.96410808097176 0 0 1 I I #
straight-curve $-1 -2.1477621834351908 0 128.36958328543295 0.51503806187062418 0 -0.85716730853699208 I I #
edge $-1 $627 -12.336121678497541 $371 0 $503 $634 forward 7 unknown #
point $-1 71.410870693075353 0 16.050309939732351 #
point $-1 65.340463602289546 0 16.050309939732358 #
edge $-1 $635 1 $635 0 $374 $-1 forward 7 unknown #
vertex $-1 $375 $636 #
ellipse-curve $-1 67.518499839145434 -9.8688973427980322 10.48384471844544 0.85716730853699208 0 0.51503806187062418 0.25751903093531209 0 -0.42858365426849604 1 I I #
point $-1 68.633186178617734 -9.8688973427980322 10.570299126047567 #
edge $-1 $637 1 $637 0 $378 $-1 forward 7 unknown #
vertex $-1 $379 $638 #
ellipse-curve $-1 67.518499839145434 -6.1680608392487706 10.48384471844544 0.85716730853699208 0 0.51503806187062418 0.25751903093531209 0 -0.42858365426849604 1 I I #
point $-1 68.633186178617734 -6.1680608392487706 10.570299126047567 #
edge $-1 $639 1 $639 0 $382 $-1 forward 7 unknown #
vertex $-1 $383 $640 #
ellipse-curve $-1 67.518499839145434 -2.4672243356995089 10.48384471844544 0.85716730853699208 0 0.51503806187062418 0.25751903093531209 0 -0.42858365426849604 1 I I #
point $-1 68.633186178617734 -2.4672243356995089 10.570299126047567 #
loop $-1 $-1 $526 $386 #
plane-surface $-1 0 33.601923508622811 0 0 -1 0 0 0 -1 forward_v I I I I #
coedge $-1 $390 $389 $532 $641 reversed $160 $-1 #
coedge $-1 $642 $643 $390 $527 forward $523 $-1 #
edge $-1 $529 -87.251546648598008 $644 -75.465219500779014 $526 $645 forward 7 unknown #
coedge $-1 $396 $391 $643 $646 reversed $254 $-1 #
vertex $-1 $392 $647 #
straight-curve $-1 71.410870693075353 13.716931334687022 5.9474556208998735 0 1 0 I I #
coedge $-1 $648 $393 $396 $536 forward $387 $-1 #
coedge $-1 $393 $648 $525 $641 forward $387 $-1 #
vertex $-1 $394 $649 #
straight-curve $-1 60.137182740548973 21.265801830125273 16.050309939732358 1 0 0 I I #
straight-curve $-1 -2.1477621834351908 21.265801830125273 128.36958328543295 -0.51503806187062418 0 0.85716730853699208 I I #
edge $-1 $397 21.265801830125273 $650 33.601923508622811 $396 $651 forward 7 unknown #
point $-1 71.410870693075353 21.265801830125273 16.050309939732351 #
point $-1 71.410870693075353 21.265801830125273 5.9474556208998735 #
edge $-1 $652 1 $652 0 $400 $-1 forward 7 unknown #
vertex $-1 $401 $653 #
ellipse-curve $-1 67.518499839145434 23.733026165824775 10.48384471844544 0.85716730853699208 0 0.51503806187062418 0.25751903093531209 0 -0.42858365426849604 1 I I #
point $-1 68.633186178617734 23.733026165824775 10.570299126047567 #
edge $-1 $654 1 $654 0 $404 $-1 forward 7 unknown #
vertex $-1 $405 $655 #
ellipse-curve $-1 67.518499839145434 27.433862669374044 10.48384471844544 0.85716730853699208 0 0.51503806187062418 0.25751903093531209 0 -0.42858365426849604 1 I I #
point $-1 68.633186178617734 27.433862669374044 10.570299126047567 #
edge $-1 $656 1 $656 0 $408 $-1 forward 7 unknown #
vertex $-1 $409 $657 #
ellipse-curve $-1 67.518499839145434 31.134699172923298 10.48384471844544 0.85716730853699208 0 0.51503806187062418 0.25751903093531209 0 -0.42858365426849604 1 I I #
point $-1 68.633186178617734 31.134699172923298 10.570299126047567 #
plane-surface $-1 0 0 16.050309939732351 0 0 1 1 0 0 forward_v I I I I #
coedge $-1 $562 $561 $554 $658 forward $413 $-1 #
coedge $-1 $554 $415 $417 $558 reversed $283 $-1 #
coedge $-1 $415 $553 $552 $658 reversed $283 $-1 #
coedge $-1 $423 $418 $415 $556 forward $424 $-1 #
edge $-1 $559 -31.576035576514741 $659 -25.505628485728906 $555 $660 forward 7 unknown #
coedge $-1 $417 $416 $562 $661 reversed $179 $-1 #
edge $-1 $662 5.4988089932380084e-014 $559 11.786327147819083 $553 $663 forward 7 unknown #
vertex $-1 $419 $664 #
straight-curve $-1 -65.340463602289518 -3.0840304196243853 16.050309939732351 0 1 0 I I #
coedge $-1 $552 $420 $423 $566 reversed $413 $-1 #
coedge $-1 $420 $552 $557 $661 forward $413 $-1 #
vertex $-1 $421 $665 #
straight-curve $-1 -71.410870693075353 -12.336121678497541 39.75304424870518 0 0 1 I I #
straight-curve $-1 -71.410870693075381 -12.336121678497541 5.9474556208997882 -0.51503806187062418 0 -0.85716730853699208 I I #
edge $-1 $659 0 $425 12.336121678497541 $561 $666 forward 7 unknown #
point $-1 -71.410870693075353 -12.336121678497541 16.050309939732351 #
point $-1 -65.340463602289518 -12.336121678497541 16.050309939732351 #
edge $-1 $667 1 $667 0 $428 $-1 forward 7 unknown #
vertex $-1 $429 $668 #
ellipse-curve $-1 -67.51849983914542 -9.8688973427980322 10.483844718445447 -0.85716730853699208 0 0.51503806187062418 0.25751903093531209 0 0.42858365426849604 1 I I #
point $-1 -68.118148116747108 -9.8688973427980322 11.427466434584566 #
edge $-1 $669 1 $669 0 $432 $-1 forward 7 unknown #
vertex $-1 $433 $670 #
ellipse-curve $-1 -67.51849983914542 -6.1680608392487706 10.483844718445447 -0.85716730853699208 0 0.51503806187062418 0.25751903093531209 0 0.42858365426849604 1 I I #
point $-1 -68.118148116747108 -6.1680608392487706 11.427466434584566 #
edge $-1 $671 1 $671 0 $436 $-1 forward 7 unknown #
vertex $-1 $437 $672 #
ellipse-curve $-1 -67.51849983914542 -2.4672243356995089 10.483844718445447 -0.85716730853699208 0 0.51503806187062418 0.25751903093531209 0 0.42858365426849604 1 I I #
point $-1 -68.118148116747108 -2.4672243356995089 11.427466434584566 #
loop $-1 $-1 $447 $440 #
plane-surface $-1 -71.410870693075353 0 0 1 0 0 0 0 -1 forward_v I I I I #
coedge $-1 $673 $674 $444 $585 forward $441 $-1 #
coedge $-1 $444 $443 $590 $675 reversed $198 $-1 #
edge $-1 $587 4.0543488077036338 $676 15.840675955522661 $583 $677 forward 7 unknown #
coedge $-1 $450 $445 $674 $678 forward $312 $-1 #
vertex $-1 $678 $679 #
straight-curve $-1 -65.340463602289518 13.716931334687022 16.050309939732351 0 1 0 I I #
coedge $-1 $680 $447 $450 $594 reversed $581 $-1 #
coedge $-1 $447 $680 $584 $675 forward $581 $-1 #
vertex $-1 $448 $681 #
straight-curve $-1 -71.410870693075353 21.265801830125273 39.75304424870518 0 0 1 I I #
straight-curve $-1 -71.410870693075381 21.265801830125273 5.9474556208997882 -0.51503806187062418 0 -0.85716730853699208 I I #
edge $-1 $682 -33.601923508622811 $451 -21.265801830125273 $589 $683 forward 7 unknown #
point $-1 -71.410870693075353 21.265801830125273 16.050309939732351 #
point $-1 -65.340463602289518 21.265801830125273 16.050309939732351 #
edge $-1 $684 1 $684 0 $454 $-1 forward 7 unknown #
vertex $-1 $455 $685 #
ellipse-curve $-1 -67.51849983914542 23.733026165824775 10.483844718445447 -0.85716730853699208 0 0.51503806187062418 0.25751903093531209 0 0.42858365426849604 1 I I #
point $-1 -68.118148116747108 23.733026165824775 11.427466434584566 #
edge $-1 $686 1 $686 0 $458 $-1 forward 7 unknown #
vertex $-1 $459 $687 #
ellipse-curve $-1 -67.51849983914542 27.433862669374044 10.483844718445447 -0.85716730853699208 0 0.51503806187062418 0.25751903093531209 0 0.42858365426849604 1 I I #
point $-1 -68.118148116747108 27.433862669374044 11.427466434584566 #
edge $-1 $688 1 $688 0 $462 $-1 forward 7 unknown #
vertex $-1 $463 $689 #
ellipse-curve $-1 -67.51849983914542 31.134699172923298 10.483844718445447 -0.85716730853699208 0 0.51503806187062418 0.25751903093531209 0 0.42858365426849604 1 I I #
point $-1 -68.118148116747108 31.134699172923298 11.427466434584566 #
plane-surface $-1 71.410870693075353 0 0 -1 0 0 0 0 1 forward_v I I I I #
coedge $-1 $471 $469 $473 $614 reversed $341 $-1 #
edge $-1 $484 -16.050309939732351 $616 16.050309939732351 $483 $690 forward 7 unknown #
vertex $-1 $614 $691 #
straight-curve $-1 -71.410870693075353 -33.601923508622811 0 0 0 -1 I I #
edge $-1 $612 -33.601923508622811 $616 33.601923508622811 $610 $692 forward 7 unknown #
straight-curve $-1 0 -33.601923508622811 -16.050309939732351 -1 0 0 I I #
vertex $-1 $476 $693 #
straight-curve $-1 0 33.601923508622811 -16.050309939732351 1 0 0 I I #
point $-1 71.410870693075353 33.601923508622811 -16.050309939732351 #
point $-1 71.410870693075353 -33.601923508622811 -16.050309939732351 #
straight-curve $-1 -71.410870693075353 0 16.050309939732351 0 -1 0 I I #
point $-1 -71.410870693075353 33.601923508622811 16.050309939732351 #
point $-1 -71.410870693075353 -33.601923508622811 16.050309939732351 #
straight-curve $-1 71.410870693075353 -33.601923508622811 0 0 0 -1 I I #
straight-curve $-1 71.410870693075353 33.601923508622811 0 0 0 -1 I I #
coedge $-1 $504 $503 $496 $626 forward $493 $-1 #
edge $-1 $627 84.913798141239397 $630 95.016652460071882 $625 $694 forward 7 unknown #
vertex $-1 $508 $695 #
straight-curve $-1 60.137182740548973 -12.336121678497541 16.050309939732358 1 0 0 I I #
edge $-1 $630 -9.2520912588731559 $505 3.0840304196243853 $504 $696 forward 7 unknown #
vertex $-1 $629 $697 #
straight-curve $-1 -2.1477621834351908 -12.336121678497541 128.36958328543295 -0.51503806187062418 0 0.85716730853699208 I I #
point $-1 65.340463602289546 -12.336121678497541 16.050309939732358 #
point $-1 71.410870693075353 0 5.9474556208998735 #
straight-curve $-1 71.410870693075353 0 16.050309939732351 0 1 0 I I #
vertex $-1 $511 $698 #
point $-1 67.776018870080748 -9.8688973427980322 10.055261064176943 #
vertex $-1 $515 $699 #
point $-1 67.776018870080748 -6.1680608392487706 10.055261064176943 #
vertex $-1 $519 $700 #
point $-1 67.776018870080748 -2.4672243356995089 10.055261064176943 #
edge $-1 $644 -19.884992173935796 $533 -7.5488704954382513 $532 $701 forward 7 unknown #
coedge $-1 $643 $526 $648 $702 reversed $523 $-1 #
coedge $-1 $526 $642 $528 $646 forward $523 $-1 #
vertex $-1 $527 $703 #
straight-curve $-1 26.473003211967082 33.601923508622811 80.736629027368423 -0.51503806187062429 0 0.85716730853699219 I I #
edge $-1 $650 -16.050309939732351 $529 -5.9474556208998726 $528 $704 forward 7 unknown #
point $-1 71.410870693075353 33.601923508622811 5.9474556208998726 #
coedge $-1 $532 $531 $642 $702 forward $387 $-1 #
point $-1 65.340463602289546 21.265801830125273 16.050309939732358 #
vertex $-1 $536 $705 #
straight-curve $-1 71.410870693075353 0 16.050309939732351 0 1 0 I I #
vertex $-1 $539 $706 #
point $-1 67.776018870080748 23.733026165824775 10.055261064176943 #
vertex $-1 $543 $707 #
point $-1 67.776018870080748 27.433862669374044 10.055261064176943 #
vertex $-1 $547 $708 #
point $-1 67.776018870080748 31.134699172923298 10.055261064176943 #
edge $-1 $659 23.702734308972829 $662 33.805588627805342 $552 $709 forward 7 unknown #
vertex $-1 $566 $710 #
straight-curve $-1 -96.916499178804258 0 16.050309939732351 -1 0 0 I I #
edge $-1 $662 -3.0840304196243853 $563 9.2520912588731559 $562 $711 forward 7 unknown #
vertex $-1 $661 $712 #
straight-curve $-1 -71.410870693075381 0 5.9474556208997882 0.51503806187062418 0 0.85716730853699208 I I #
point $-1 -65.340463602289518 0 16.050309939732351 #
point $-1 -71.410870693075353 -12.336121678497541 5.9474556208998353 #
straight-curve $-1 -71.410870693075353 0 16.050309939732351 0 -1 0 I I #
vertex $-1 $569 $713 #
point $-1 -67.260980808210107 -9.8688973427980322 10.912428372713942 #
vertex $-1 $573 $714 #
point $-1 -67.260980808210107 -6.1680608392487706 10.912428372713942 #
vertex $-1 $577 $715 #
point $-1 -67.260980808210107 -2.4672243356995089 10.912428372713942 #
coedge $-1 $674 $583 $680 $716 reversed $441 $-1 #
coedge $-1 $583 $673 $586 $678 reversed $441 $-1 #
edge $-1 $676 -19.884992173935796 $591 -7.5488704954382513 $590 $717 forward 7 unknown #
vertex $-1 $585 $718 #
straight-curve $-1 -63.252319650222361 33.601923508622811 19.525565195101837 -0.51503806187062429 0 -0.85716730853699219 I I #
edge $-1 $587 65.340463602289518 $682 71.410870693075353 $674 $719 forward 7 unknown #
point $-1 -65.340463602289518 33.601923508622818 16.050309939732351 #
coedge $-1 $590 $589 $673 $716 forward $581 $-1 #
point $-1 -71.410870693075353 21.265801830125273 5.9474556208998353 #
vertex $-1 $678 $720 #
straight-curve $-1 -71.410870693075353 0 16.050309939732351 0 -1 0 I I #
vertex $-1 $597 $721 #
point $-1 -67.260980808210107 23.733026165824775 10.912428372713942 #
vertex $-1 $601 $722 #
point $-1 -67.260980808210107 27.433862669374044 10.912428372713942 #
vertex $-1 $605 $723 #
point $-1 -67.260980808210107 31.134699172923298 10.912428372713942 #
straight-curve $-1 -71.410870693075353 33.601923508622811 0 0 0 -1 I I #
point $-1 -71.410870693075353 -33.601923508622811 -16.050309939732351 #
straight-curve $-1 -71.410870693075353 0 -16.050309939732351 0 1 0 I I #
point $-1 -71.410870693075353 33.601923508622811 -16.050309939732351 #
straight-curve $-1 71.410870693075353 -12.336121678497541 100.96410808097176 0 0 -1 I I #
point $-1 71.410870693075353 -12.336121678497541 16.050309939732351 #
straight-curve $-1 71.410870693075353 -3.0840304196243853 5.9474556208998735 0 1 0 I I #
point $-1 71.410870693075353 -12.336121678497541 5.9474556208998735 #
point $-1 67.089916184876941 -9.8688973427980322 10.226325687510126 #
point $-1 67.089916184876941 -6.1680608392487706 10.226325687510126 #
point $-1 67.089916184876941 -2.4672243356995089 10.226325687510126 #
straight-curve $-1 65.340463602289532 13.716931334687022 16.050309939732358 0 -1 0 I I #
edge $-1 $650 -71.410870693075353 $644 -65.340463602289546 $642 $724 forward 7 unknown #
point $-1 65.340463602289546 33.601923508622818 16.050309939732358 #
straight-curve $-1 71.410870693075353 33.601923508622811 0 0 0 -1 I I #
point $-1 71.410870693075353 33.601923508622811 16.050309939732351 #
point $-1 67.089916184876941 23.733026165824775 10.226325687510126 #
point $-1 67.089916184876941 27.433862669374044 10.226325687510126 #
point $-1 67.089916184876941 31.134699172923298 10.226325687510126 #
straight-curve $-1 -71.410870693075353 0 39.75304424870518 0 0 -1 I I #
point $-1 -71.410870693075353 0 16.050309939732351 #
straight-curve $-1 -71.410870693075353 -3.0840304196243853 5.9474556208998379 0 -1 0 I I #
point $-1 -71.410870693075353 0 5.9474556208998353 #
point $-1 -67.089916184876927 -9.8688973427980322 10.226325687510133 #
point $-1 -67.089916184876927 -6.1680608392487706 10.226325687510133 #
point $-1 -67.089916184876927 -2.4672243356995089 10.226325687510133 #
edge $-1 $682 -16.050309939732351 $676 -5.9474556208998353 $673 $725 forward 7 unknown #
straight-curve $-1 -71.410870693075353 13.716931334687022 5.9474556208998379 0 -1 0 I I #
point $-1 -71.410870693075353 33.601923508622818 5.9474556208998353 #
straight-curve $-1 0 33.601923508622811 16.050309939732351 -1 0 0 I I #
point $-1 -71.410870693075353 33.601923508622811 16.050309939732351 #
point $-1 -67.089916184876927 23.733026165824775 10.226325687510133 #
point $-1 -67.089916184876927 27.433862669374044 10.226325687510133 #
point $-1 -67.089916184876927 31.134699172923298 10.226325687510133 #
straight-curve $-1 0 33.601923508622811 16.050309939732351 -1 0 0 I I #
straight-curve $-1 -71.410870693075353 33.601923508622811 0 0 0 -1 I I #
End-of-ACIS-data 