500 0 5 0           
7 Unknown 11 ACIS 5.0 NT 24 Fri Mar 26 20:41:49 1999 
-1 9.9999999999999995e-007 1e-010 
body $-1 $5 $-1 $6 #
body $-1 $7 $-1 $8 #
body $-1 $9 $-1 $10 #
body $-1 $11 $-1 $12 #
body $-1 $13 $-1 $14 #
lump $-1 $-1 $15 $0 #
transform $-1 1 0 0 0 1 0 0 0 1 60.360728782006284 32.224932794431858 14.277040753298323 1 rotate no_reflect no_shear #
lump $-1 $-1 $16 $1 #
transform $-1 1 0 0 0 1 0 0 0 1 60.360728782006284 32.224932794431858 14.277040753298323 1 rotate no_reflect no_shear #
lump $-1 $-1 $17 $2 #
transform $-1 1 0 0 0 1 0 0 0 1 60.360728782006284 32.224932794431858 14.277040753298323 1 rotate no_reflect no_shear #
lump $-1 $-1 $18 $3 #
transform $-1 1 0 0 0 1 0 0 0 1 60.360728782006284 32.224932794431858 14.277040753298323 1 rotate no_reflect no_shear #
lump $-1 $-1 $19 $4 #
transform $-1 1 0 0 0 1 0 0 0 1 60.360728782006284 32.224932794431858 14.277040753298323 1 rotate no_reflect no_shear #
shell $-1 $-1 $-1 $20 $-1 $5 #
shell $-1 $-1 $-1 $21 $-1 $7 #
shell $-1 $-1 $-1 $22 $-1 $9 #
shell $-1 $-1 $-1 $23 $-1 $11 #
shell $-1 $-1 $-1 $24 $-1 $13 #
face $-1 $25 $26 $15 $-1 $27 forward single #
face $-1 $28 $29 $16 $-1 $30 forward single #
face $-1 $31 $32 $17 $-1 $33 reversed single #
face $-1 $34 $35 $18 $-1 $36 forward single #
face $-1 $37 $38 $19 $-1 $39 forward single #
face $-1 $40 $41 $15 $-1 $42 reversed single #
loop $-1 $-1 $43 $20 #
plane-surface $-1 0 0 14.277040753298323 0 0 1 1 0 0 forward_v I I I I #
face $-1 $44 $45 $16 $-1 $46 reversed single #
loop $-1 $-1 $47 $21 #
plane-surface $-1 -60.360728782006284 0 0 1 0 0 0 0 -1 forward_v I I I I #
face $-1 $48 $49 $17 $-1 $50 reversed single #
loop $-1 $-1 $51 $22 #
plane-surface $-1 -33.21225979847511 89.850479974393096 134.16889068088415 1 0 0 0 -0.79863551827123203 -0.60181501223851219 forward_v I I I I #
face $-1 $52 $53 $18 $-1 $54 forward single #
loop $-1 $55 $56 $23 #
cone-surface $-1 -24.756838140464147 29.173607638478821 11.063240731251941 0 -0.79863551827123203 -0.60181501223851219 1 0 0 1 I I 0 1 1 forward I I I I #
face $-1 $57 $58 $19 $-1 $59 forward single #
loop $-1 $60 $61 $24 #
cone-surface $-1 -12.073705653447696 29.173607638478821 11.063240731251941 0 -0.79863551827123203 -0.60181501223851219 1 0 0 1 I I 0 1 1 forward I I I I #
face $-1 $62 $63 $15 $-1 $64 reversed single #
loop $-1 $-1 $65 $25 #
plane-surface $-1 0 0 -14.277040753298323 0 0 1 1 0 0 forward_v I I I I #
coedge $-1 $66 $67 $68 $69 forward $26 $-1 #
face $-1 $70 $71 $16 $-1 $72 reversed single #
loop $-1 $-1 $73 $28 #
plane-surface $-1 0 0 -14.277040753298323 0 0 1 1 0 0 forward_v I I I I #
coedge $-1 $74 $75 $76 $77 forward $29 $-1 #
face $-1 $78 $79 $17 $-1 $80 reversed single #
loop $-1 $-1 $81 $31 #
plane-surface $-1 -18.415271896955922 -6.5619638537006182 61.516905219546899 0 0.79863551827123203 0.60181501223851219 1 0 0 forward_v I I I I #
coedge $-1 $82 $83 $84 $85 reversed $32 $-1 #
face $-1 $-1 $86 $18 $-1 $87 forward single #
loop $-1 $88 $89 $34 #
cone-surface $-1 -24.756838140464147 27.31751795608772 9.6645768734987314 0 -0.79863551827123203 -0.60181501223851219 0.5 0 0 1 I I -0.70710678118654746 0.70710678118654746 0.5 forward I I I I #
loop $-1 $-1 $90 $23 #
coedge $-1 $56 $56 $91 $92 reversed $35 $-1 #
face $-1 $-1 $93 $19 $-1 $94 forward single #
loop $-1 $95 $96 $37 #
cone-surface $-1 -12.073705653447696 27.31751795608772 9.6645768734987314 0 -0.79863551827123203 -0.60181501223851219 0.5 0 0 1 I I -0.70710678118654746 0.70710678118654746 0.5 forward I I I I #
loop $-1 $-1 $97 $24 #
coedge $-1 $61 $61 $98 $99 reversed $38 $-1 #
face $-1 $100 $101 $15 $-1 $102 reversed single #
loop $-1 $-1 $103 $40 #
plane-surface $-1 0 -32.224932794431858 0 0 1 0 0 0 1 forward_v I I I I #
coedge $-1 $104 $105 $106 $107 forward $41 $-1 #
coedge $-1 $108 $43 $109 $110 forward $26 $-1 #
coedge $-1 $43 $108 $111 $112 forward $26 $-1 #
coedge $-1 $113 $114 $43 $69 reversed $115 $-1 #
edge $-1 $116 -32.224932794431858 $117 32.224932794431858 $68 $118 forward 7 unknown #
face $-1 $119 $120 $16 $-1 $121 reversed single #
loop $-1 $-1 $122 $44 #
plane-surface $-1 -69.467966240734384 -11.172016429613015 0 0 1 0 0 0 1 forward_v I I I I #
coedge $-1 $123 $124 $75 $125 forward $45 $-1 #
coedge $-1 $126 $47 $127 $128 reversed $29 $-1 #
coedge $-1 $47 $126 $73 $125 reversed $29 $-1 #
coedge $-1 $129 $130 $47 $77 reversed $131 $-1 #
edge $-1 $132 -14.277040753298323 $133 14.277040753298323 $76 $134 forward 7 unknown #
face $-1 $135 $136 $17 $-1 $137 forward single #
loop $-1 $-1 $138 $48 #
plane-surface $-1 -3.6182839954367338 89.850479974393096 134.16889068088415 -1 0 0 0 0.79863551827123203 0.60181501223851219 forward_v I I I I #
coedge $-1 $139 $140 $141 $142 reversed $49 $-1 #
coedge $-1 $83 $51 $143 $144 reversed $32 $-1 #
coedge $-1 $51 $82 $139 $145 reversed $32 $-1 #
coedge $-1 $141 $146 $51 $85 forward $136 $-1 #
edge $-1 $147 12.70030719276469 $148 15.889413658159782 $84 $149 forward 7 unknown #
loop $-1 $-1 $91 $52 #
plane-surface $-1 -18.415271896955922 -6.5619638537006182 61.516905219546899 0 0.79863551827123203 0.60181501223851219 1 0 0 forward_v I I I I #
loop $-1 $-1 $150 $34 #
coedge $-1 $89 $89 $90 $151 reversed $53 $-1 #
coedge $-1 $90 $90 $89 $151 forward $55 $-1 #
coedge $-1 $91 $91 $56 $92 forward $86 $-1 #
edge $-1 $152 -1.4589973790036791e-015 $152 6.2831853071795987 $91 $153 forward 7 unknown #
loop $-1 $-1 $98 $57 #
plane-surface $-1 -18.415271896955922 -6.5619638537006182 61.516905219546899 0 0.79863551827123203 0.60181501223851219 1 0 0 forward_v I I I I #
loop $-1 $-1 $154 $37 #
coedge $-1 $96 $96 $97 $155 reversed $58 $-1 #
coedge $-1 $97 $97 $96 $155 forward $60 $-1 #
coedge $-1 $98 $98 $61 $99 forward $93 $-1 #
edge $-1 $156 -1.4589973790036791e-015 $156 6.2831853071795987 $98 $157 forward 7 unknown #
face $-1 $158 $159 $15 $-1 $160 reversed single #
loop $-1 $-1 $161 $62 #
plane-surface $-1 -60.360728782006284 0 0 1 0 0 0 0 -1 forward_v I I I I #
coedge $-1 $162 $111 $163 $164 forward $63 $-1 #
coedge $-1 $165 $65 $162 $166 forward $41 $-1 #
coedge $-1 $65 $165 $167 $168 forward $41 $-1 #
coedge $-1 $114 $113 $65 $107 reversed $115 $-1 #
edge $-1 $169 -32.224932794431858 $170 32.224932794431858 $106 $171 forward 7 unknown #
coedge $-1 $67 $66 $172 $173 forward $26 $-1 #
coedge $-1 $174 $175 $66 $110 reversed $159 $-1 #
edge $-1 $117 -60.360728782006284 $176 60.360728782006284 $109 $177 forward 7 unknown #
coedge $-1 $103 $178 $67 $112 reversed $63 $-1 #
edge $-1 $179 -60.360728782006284 $116 60.360728782006284 $111 $180 forward 7 unknown #
coedge $-1 $106 $68 $178 $181 forward $115 $-1 #
coedge $-1 $68 $106 $174 $182 reversed $115 $-1 #
loop $-1 $-1 $113 $158 #
vertex $-1 $69 $183 #
vertex $-1 $69 $184 #
straight-curve $-1 60.360728782006284 0 14.277040753298323 0 1 0 I I #
face $-1 $185 $131 $16 $-1 $186 reversed single #
loop $-1 $-1 $187 $70 #
plane-surface $-1 -78.575203699462477 -7.4214338587241144 0 1 0 0 0 0 -1 forward_v I I I I #
coedge $-1 $188 $189 $190 $191 forward $71 $-1 #
coedge $-1 $192 $73 $188 $193 forward $45 $-1 #
coedge $-1 $73 $192 $129 $194 forward $45 $-1 #
edge $-1 $132 3.6708512878352142 $195 11.172016429613015 $73 $196 forward 7 unknown #
coedge $-1 $75 $74 $197 $198 forward $29 $-1 #
coedge $-1 $199 $200 $74 $128 forward $201 $-1 #
edge $-1 $202 -11.172016429613015 $133 -3.6708512878352142 $127 $203 forward 7 unknown #
coedge $-1 $204 $76 $124 $194 reversed $131 $-1 #
coedge $-1 $76 $204 $199 $205 reversed $131 $-1 #
loop $-1 $-1 $76 $119 #
vertex $-1 $125 $206 #
vertex $-1 $205 $207 #
straight-curve $-1 -60.360728782006284 -3.6708512878352142 0 0 0 1 I I #
face $-1 $-1 $208 $17 $-1 $209 reversed single #
loop $-1 $-1 $84 $78 #
plane-surface $-1 0 0 14.277040753298323 0 0 1 1 0 0 forward_v I I I I #
coedge $-1 $210 $211 $212 $213 reversed $79 $-1 #
coedge $-1 $214 $81 $83 $145 forward $49 $-1 #
coedge $-1 $81 $214 $210 $215 forward $49 $-1 #
coedge $-1 $212 $84 $81 $142 forward $136 $-1 #
edge $-1 $148 -24.004623849997149 $216 5.589351953041227 $141 $217 forward 7 unknown #
coedge $-1 $218 $219 $82 $144 forward $208 $-1 #
edge $-1 $220 -57.039491927968577 $147 -52.807404587143751 $143 $221 forward 7 unknown #
edge $-1 $148 59.15071817555328 $220 64.449865588863702 $83 $222 forward 7 unknown #
coedge $-1 $84 $212 $218 $223 forward $136 $-1 #
vertex $-1 $144 $224 #
vertex $-1 $85 $225 #
straight-curve $-1 -33.21225979847511 44.925239987196548 14.277040753298323 0 -1 0 I I #
coedge $-1 $150 $150 $-1 $226 reversed $88 $-1 #
edge $-1 $227 0 $227 6.2831853071796004 $89 $228 forward 7 unknown #
vertex $-1 $92 $229 #
ellipse-curve $-1 -24.756838140464147 30.630379561734316 12.160997082885904 0 0.79863551827123203 0.60181501223851219 1 0 0 1 I I #
coedge $-1 $154 $154 $-1 $230 reversed $95 $-1 #
edge $-1 $231 0 $231 6.2831853071796004 $96 $232 forward 7 unknown #
vertex $-1 $99 $233 #
ellipse-curve $-1 -12.073705653447696 30.630379561734316 12.160997082885904 0 0.79863551827123203 0.60181501223851219 1 0 0 1 I I #
face $-1 $-1 $115 $15 $-1 $234 reversed single #
loop $-1 $-1 $174 $100 #
plane-surface $-1 0 32.224932794431858 0 0 -1 0 0 0 -1 forward_v I I I I #
coedge $-1 $235 $172 $175 $236 forward $101 $-1 #
coedge $-1 $178 $103 $104 $166 reversed $63 $-1 #
coedge $-1 $172 $235 $103 $164 reversed $101 $-1 #
edge $-1 $179 -14.277040753298323 $237 14.277040753298323 $163 $238 forward 7 unknown #
coedge $-1 $105 $104 $235 $239 forward $41 $-1 #
edge $-1 $170 -60.360728782006284 $237 60.360728782006284 $162 $240 forward 7 unknown #
coedge $-1 $175 $174 $105 $168 reversed $159 $-1 #
edge $-1 $241 -60.360728782006284 $169 60.360728782006284 $167 $242 forward 7 unknown #
vertex $-1 $107 $243 #
vertex $-1 $181 $244 #
straight-curve $-1 60.360728782006284 0 -14.277040753298323 0 -1 0 I I #
coedge $-1 $161 $163 $108 $173 reversed $101 $-1 #
edge $-1 $176 -32.224932794431858 $179 32.224932794431858 $172 $245 forward 7 unknown #
coedge $-1 $167 $109 $114 $182 forward $159 $-1 #
coedge $-1 $109 $167 $161 $236 reversed $159 $-1 #
vertex $-1 $110 $246 #
straight-curve $-1 0 32.224932794431858 14.277040753298323 -1 0 0 I I #
coedge $-1 $111 $162 $113 $181 reversed $63 $-1 #
vertex $-1 $173 $247 #
straight-curve $-1 0 -32.224932794431858 14.277040753298323 1 0 0 I I #
edge $-1 $116 -14.277040753298323 $170 14.277040753298323 $113 $248 forward 7 unknown #
edge $-1 $117 -14.277040753298323 $169 14.277040753298323 $114 $249 forward 7 unknown #
point $-1 60.360728782006284 -32.224932794431858 14.277040753298323 #
point $-1 60.360728782006284 32.224932794431858 14.277040753298323 #
face $-1 $-1 $201 $16 $-1 $250 forward single #
plane-surface $-1 -69.467966240734384 -3.6708512878352142 0 0 -1 0 0 0 -1 forward_v I I I I #
coedge $-1 $251 $252 $204 $253 forward $120 $-1 #
coedge $-1 $197 $122 $123 $193 reversed $71 $-1 #
coedge $-1 $122 $197 $200 $254 reversed $71 $-1 #
coedge $-1 $252 $251 $122 $191 reversed $120 $-1 #
edge $-1 $255 -14.277040753298323 $256 14.277040753298323 $190 $257 forward 7 unknown #
coedge $-1 $124 $123 $251 $258 forward $45 $-1 #
edge $-1 $195 -9.1072374587281004 $256 9.1072374587280933 $188 $259 forward 7 unknown #
edge $-1 $260 -9.1072374587280933 $132 9.1072374587281004 $129 $261 forward 7 unknown #
vertex $-1 $193 $262 #
straight-curve $-1 -60.360728782006284 0 -14.277040753298323 0 -1 0 I I #
coedge $-1 $189 $188 $126 $198 reversed $71 $-1 #
edge $-1 $202 -14.277040753298323 $195 14.277040753298323 $197 $263 forward 7 unknown #
coedge $-1 $264 $127 $130 $205 forward $201 $-1 #
coedge $-1 $127 $264 $189 $254 forward $201 $-1 #
loop $-1 $-1 $127 $185 #
vertex $-1 $128 $265 #
straight-curve $-1 -60.360728782006284 0 14.277040753298323 0 1 0 I I #
coedge $-1 $130 $129 $187 $253 reversed $131 $-1 #
edge $-1 $133 -9.1072374587281004 $266 9.1072374587280933 $130 $267 forward 7 unknown #
point $-1 -60.360728782006284 -3.6708512878352142 -14.277040753298323 #
point $-1 -60.360728782006284 -3.6708512878352142 14.277040753298323 #
loop $-1 $-1 $143 $135 #
plane-surface $-1 0 32.224932794431858 0 0 -1 0 0 0 -1 forward_v I I I I #
coedge $-1 $211 $138 $140 $215 reversed $79 $-1 #
coedge $-1 $138 $210 $268 $269 reversed $79 $-1 #
coedge $-1 $146 $141 $138 $213 forward $136 $-1 #
edge $-1 $216 -15.889413658159782 $270 -12.70030719276469 $212 $271 forward 7 unknown #
coedge $-1 $140 $139 $219 $272 reversed $49 $-1 #
edge $-1 $273 -64.449865588863702 $216 -59.15071817555328 $210 $274 forward 7 unknown #
vertex $-1 $142 $275 #
straight-curve $-1 -9.2076359484779609 29.035826329036766 14.277040753298323 1 0 0 I I #
coedge $-1 $268 $143 $146 $223 reversed $208 $-1 #
coedge $-1 $143 $268 $214 $272 forward $208 $-1 #
vertex $-1 $144 $276 #
straight-curve $-1 -33.21225979847511 32.224932794431858 67.084445340442073 0 0 1 I I #
straight-curve $-1 -33.21225979847511 -6.5619638537006182 61.516905219546899 0 0.60181501223851219 -0.79863551827123203 I I #
edge $-1 $270 3.6182839954367338 $147 33.21225979847511 $218 $277 forward 7 unknown #
point $-1 -33.21225979847511 32.224932794431858 14.277040753298323 #
point $-1 -33.21225979847511 29.035826329036766 14.277040753298323 #
edge $-1 $278 1 $278 0 $150 $-1 forward 7 unknown #
vertex $-1 $151 $279 #
ellipse-curve $-1 -24.756838140464147 27.716835715223336 9.9654843796179868 0 0.79863551827123203 0.60181501223851219 1 0 0 1 I I #
point $-1 -23.756838140464147 30.630379561734301 12.160997082885896 #
edge $-1 $280 1 $280 0 $154 $-1 forward 7 unknown #
vertex $-1 $155 $281 #
ellipse-curve $-1 -12.073705653447696 27.716835715223336 9.9654843796179868 0 0.79863551827123203 0.60181501223851219 1 0 0 1 I I #
point $-1 -11.073705653447696 30.630379561734301 12.160997082885896 #
plane-surface $-1 60.360728782006284 0 0 -1 0 0 0 0 1 forward_v I I I I #
coedge $-1 $163 $161 $165 $239 reversed $101 $-1 #
edge $-1 $176 -14.277040753298323 $241 14.277040753298323 $175 $282 forward 7 unknown #
vertex $-1 $239 $283 #
straight-curve $-1 -60.360728782006284 -32.224932794431858 0 0 0 -1 I I #
edge $-1 $237 -32.224932794431858 $241 32.224932794431858 $235 $284 forward 7 unknown #
straight-curve $-1 0 -32.224932794431858 -14.277040753298323 -1 0 0 I I #
vertex $-1 $168 $285 #
straight-curve $-1 0 32.224932794431858 -14.277040753298323 1 0 0 I I #
point $-1 60.360728782006284 32.224932794431858 -14.277040753298323 #
point $-1 60.360728782006284 -32.224932794431858 -14.277040753298323 #
straight-curve $-1 -60.360728782006284 0 14.277040753298323 0 -1 0 I I #
point $-1 -60.360728782006284 32.224932794431858 14.277040753298323 #
point $-1 -60.360728782006284 -32.224932794431858 14.277040753298323 #
straight-curve $-1 60.360728782006284 -32.224932794431858 0 0 0 -1 I I #
straight-curve $-1 60.360728782006284 32.224932794431858 0 0 0 -1 I I #
plane-surface $-1 0 0 14.277040753298323 0 0 1 1 0 0 forward_v I I I I #
coedge $-1 $190 $187 $192 $258 reversed $120 $-1 #
coedge $-1 $187 $190 $264 $286 reversed $120 $-1 #
edge $-1 $266 -14.277040753298323 $260 14.277040753298323 $204 $287 forward 7 unknown #
edge $-1 $255 -9.1072374587280933 $202 9.1072374587281004 $189 $288 forward 7 unknown #
vertex $-1 $286 $289 #
vertex $-1 $258 $290 #
straight-curve $-1 -78.575203699462477 -11.172016429613015 0 0 0 -1 I I #
edge $-1 $256 -3.7505825708889002 $260 3.7505825708889002 $251 $291 forward 7 unknown #
straight-curve $-1 -69.467966240734384 -11.172016429613015 -14.277040753298323 -1 0 0 I I #
vertex $-1 $194 $292 #
straight-curve $-1 -69.467966240734384 -3.6708512878352142 -14.277040753298323 1 0 0 I I #
point $-1 -60.360728782006284 -11.172016429613015 -14.277040753298323 #
straight-curve $-1 -60.360728782006284 -11.172016429613015 0 0 0 -1 I I #
coedge $-1 $200 $199 $252 $286 forward $201 $-1 #
point $-1 -60.360728782006284 -11.172016429613015 14.277040753298323 #
vertex $-1 $205 $293 #
straight-curve $-1 -69.467966240734384 -3.6708512878352142 14.277040753298323 -1 0 0 I I #
coedge $-1 $219 $218 $211 $269 forward $208 $-1 #
edge $-1 $270 52.807404587143751 $273 57.039491927968577 $268 $294 forward 7 unknown #
vertex $-1 $223 $295 #
straight-curve $-1 -3.6182839954367338 44.925239987196548 14.277040753298323 0 1 0 I I #
edge $-1 $273 -5.589351953041227 $220 24.004623849997149 $219 $296 forward 7 unknown #
vertex $-1 $272 $297 #
straight-curve $-1 -3.6182839954367338 -6.5619638537006182 61.516905219546899 0 -0.60181501223851219 0.79863551827123203 I I #
point $-1 -3.6182839954367338 29.035826329036766 14.277040753298323 #
point $-1 -33.21225979847511 32.224932794431858 10.044953412473497 #
straight-curve $-1 0 32.224932794431858 14.277040753298323 -1 0 0 I I #
vertex $-1 $226 $298 #
point $-1 -23.756838140464147 27.716835715223336 9.9654843796179868 #
vertex $-1 $230 $299 #
point $-1 -11.073705653447696 27.716835715223336 9.9654843796179868 #
straight-curve $-1 -60.360728782006284 32.224932794431858 0 0 0 -1 I I #
point $-1 -60.360728782006284 -32.224932794431858 -14.277040753298323 #
straight-curve $-1 -60.360728782006284 0 -14.277040753298323 0 1 0 I I #
point $-1 -60.360728782006284 32.224932794431858 -14.277040753298323 #
edge $-1 $266 -3.7505825708889002 $255 3.7505825708889002 $252 $300 forward 7 unknown #
straight-curve $-1 -78.575203699462477 -3.6708512878352142 0 0 0 -1 I I #
straight-curve $-1 -69.467966240734384 -11.172016429613015 14.277040753298323 1 0 0 I I #
point $-1 -78.575203699462477 -11.172016429613015 14.277040753298323 #
point $-1 -78.575203699462477 -11.172016429613015 -14.277040753298323 #
straight-curve $-1 -78.575203699462477 -7.4214338587241144 -14.277040753298323 0 1 0 I I #
point $-1 -78.575203699462477 -3.6708512878352142 -14.277040753298323 #
point $-1 -78.575203699462477 -3.6708512878352142 14.277040753298323 #
straight-curve $-1 -3.6182839954367338 32.224932794431858 67.084445340442073 0 0 -1 I I #
point $-1 -3.6182839954367338 32.224932794431858 14.277040753298323 #
straight-curve $-1 -9.2076359484779609 32.224932794431858 10.04495341247349 -1 0 0 I I #
point $-1 -3.6182839954367338 32.224932794431858 10.044953412473497 #
point $-1 -24.756838140464147 26.918200196952103 9.363669367379476 #
point $-1 -12.073705653447696 26.918200196952103 9.363669367379476 #
straight-curve $-1 -78.575203699462477 -7.4214338587241144 14.277040753298323 0 -1 0 I I #
End-of-ACIS-data 