500 0 6 0           
7 Unknown 11 ACIS 5.0 NT 24 Thu Mar 25 18:48:13 1999 
-1 9.9999999999999995e-007 1e-010 
body $-1 $6 $-1 $7 #
body $-1 $8 $-1 $9 #
body $-1 $10 $-1 $11 #
body $-1 $12 $-1 $13 #
body $-1 $14 $-1 $15 #
body $-1 $16 $-1 $17 #
lump $-1 $-1 $18 $0 #
transform $-1 1 0 0 0 1 0 0 0 1 48.227790154728844 31.426733463050329 9.2075236241332998 1 rotate no_reflect no_shear #
lump $-1 $-1 $19 $1 #
transform $-1 1 0 0 0 1 0 0 0 1 48.227790154728844 31.426733463050329 9.2075236241332998 1 rotate no_reflect no_shear #
lump $-1 $-1 $20 $2 #
transform $-1 1 0 0 0 1 0 0 0 1 48.227790154728844 31.426733463050329 9.2075236241332998 1 rotate no_reflect no_shear #
lump $-1 $-1 $21 $3 #
transform $-1 1 0 0 0 1 0 0 0 1 48.227790154728844 31.426733463050329 9.2075236241332998 1 rotate no_reflect no_shear #
lump $-1 $-1 $22 $4 #
transform $-1 1 0 0 0 1 0 0 0 1 48.227790154728844 31.426733463050329 9.2075236241332998 1 rotate no_reflect no_shear #
lump $-1 $-1 $23 $5 #
transform $-1 1 0 0 0 1 0 0 0 1 48.227790154728844 31.426733463050329 9.2075236241332998 1 rotate no_reflect no_shear #
shell $-1 $-1 $-1 $24 $-1 $6 #
shell $-1 $-1 $-1 $25 $-1 $8 #
shell $-1 $-1 $-1 $26 $-1 $10 #
shell $-1 $-1 $-1 $27 $-1 $12 #
shell $-1 $-1 $-1 $28 $-1 $14 #
shell $-1 $-1 $-1 $29 $-1 $16 #
face $-1 $30 $31 $18 $-1 $32 forward single #
face $-1 $33 $34 $19 $-1 $35 forward single #
face $-1 $36 $37 $20 $-1 $38 reversed single #
face $-1 $39 $40 $21 $-1 $41 forward single #
face $-1 $42 $43 $22 $-1 $44 reversed single #
face $-1 $45 $46 $23 $-1 $47 forward single #
face $-1 $48 $49 $18 $-1 $50 reversed single #
loop $-1 $-1 $51 $24 #
plane-surface $-1 0 0 9.2075236241332998 0 0 1 1 0 0 forward_v I I I I #
face $-1 $52 $53 $19 $-1 $54 reversed single #
loop $-1 $-1 $55 $25 #
plane-surface $-1 -42.598432108689053 0 -5.134879717336414 0 0 1 1 0 0 forward_v I I I I #
face $-1 $56 $57 $20 $-1 $58 reversed single #
loop $-1 $-1 $59 $26 #
plane-surface $-1 9.3275302369776796 -88.12190179457852 79.708891364344922 1 0 0 0 0.5877852598018023 -0.80901698891910034 forward_v I I I I #
face $-1 $60 $61 $21 $-1 $62 forward single #
loop $-1 $63 $64 $27 #
cone-surface $-1 20.74253719917575 -24.656704822270239 3.2581649115379432 0 0.5877852598018023 -0.80901698891910034 2 0 0 1 I I 0 1 2 forward I I I I #
face $-1 $65 $66 $22 $-1 $67 reversed single #
loop $-1 $-1 $68 $28 #
plane-surface $-1 30.98743102614921 53.217410635757076 116.03773001480045 1 0 0 0 -0.69465837861970381 -0.71933979245794832 forward_v I I I I #
face $-1 $69 $70 $23 $-1 $71 forward single #
loop $-1 $72 $73 $29 #
cone-surface $-1 39.60761059043903 26.807592349507647 4.6490363385629756 0 -0.69465837861970381 -0.71933979245794832 2 0 0 1 I I 0 1 2 forward I I I I #
face $-1 $74 $75 $18 $-1 $76 reversed single #
loop $-1 $-1 $77 $30 #
plane-surface $-1 0 0 -9.2075236241332998 0 0 1 1 0 0 forward_v I I I I #
coedge $-1 $78 $79 $80 $81 forward $31 $-1 #
face $-1 $82 $83 $19 $-1 $84 reversed single #
loop $-1 $-1 $85 $33 #
plane-surface $-1 -36.969074062649263 0 -7.1712016707348569 -1 0 0 0 0 1 forward_v I I I I #
coedge $-1 $86 $87 $88 $89 forward $34 $-1 #
face $-1 $90 $91 $20 $-1 $92 reversed single #
loop $-1 $-1 $93 $36 #
plane-surface $-1 20.74253719917575 -31.426733463050319 1.6746882179429861 0 -0.5877852598018023 0.80901698891910034 1 0 0 forward_v I I I I #
coedge $-1 $94 $95 $96 $97 reversed $37 $-1 #
face $-1 $-1 $98 $21 $-1 $99 forward single #
loop $-1 $100 $101 $39 #
cone-surface $-1 20.74253719917575 -22.482920051981772 0.26620691311863354 0 0.5877852598018023 -0.80901698891910034 1 0 0 1 I I -0.70710678118654746 0.70710678118654746 1 forward I I I I #
loop $-1 $-1 $102 $27 #
coedge $-1 $64 $64 $103 $104 reversed $40 $-1 #
face $-1 $105 $106 $22 $-1 $107 reversed single #
loop $-1 $-1 $108 $42 #
plane-surface $-1 39.60761059043903 -13.786266390833433 46.653392893584183 0 0.69465837861970381 0.71933979245794832 1 0 0 forward_v I I I I #
coedge $-1 $109 $110 $111 $112 reversed $43 $-1 #
face $-1 $-1 $113 $23 $-1 $114 forward single #
loop $-1 $115 $116 $45 #
cone-surface $-1 39.60761059043903 24.712126847084253 2.479118338565387 0 -0.69465837861970381 -0.71933979245794832 1 0 0 1 I I -0.70710678118654735 0.70710678118654768 1 forward I I I I #
loop $-1 $-1 $117 $29 #
coedge $-1 $73 $73 $118 $119 reversed $46 $-1 #
face $-1 $120 $121 $18 $-1 $122 reversed single #
loop $-1 $-1 $123 $48 #
plane-surface $-1 0 -31.426733463050329 0 0 1 0 0 0 1 forward_v I I I I #
coedge $-1 $124 $125 $126 $127 forward $49 $-1 #
coedge $-1 $128 $51 $129 $130 forward $31 $-1 #
coedge $-1 $51 $128 $131 $132 forward $31 $-1 #
coedge $-1 $133 $134 $51 $81 reversed $135 $-1 #
edge $-1 $136 -31.426733463050329 $137 31.426733463050329 $80 $138 forward 7 unknown #
face $-1 $139 $140 $19 $-1 $141 reversed single #
loop $-1 $-1 $142 $52 #
plane-surface $-1 0 0 -9.2075236241332998 0 0 1 1 0 0 forward_v I I I I #
coedge $-1 $143 $88 $144 $145 reversed $53 $-1 #
coedge $-1 $146 $55 $147 $148 reversed $34 $-1 #
coedge $-1 $55 $146 $149 $150 reversed $34 $-1 #
coedge $-1 $85 $151 $55 $89 reversed $53 $-1 #
edge $-1 $152 -31.426733463050329 $153 31.426733463050329 $88 $154 forward 7 unknown #
face $-1 $155 $156 $20 $-1 $157 forward single #
loop $-1 $-1 $158 $56 #
plane-surface $-1 32.157544161373821 -88.12190179457852 79.708891364344922 -1 0 0 0 -0.5877852598018023 0.80901698891910034 forward_v I I I I #
coedge $-1 $159 $160 $161 $162 reversed $57 $-1 #
coedge $-1 $95 $59 $163 $164 reversed $37 $-1 #
coedge $-1 $59 $94 $159 $165 reversed $37 $-1 #
coedge $-1 $161 $166 $59 $97 forward $167 $-1 #
edge $-1 $168 30.646922058039159 $169 38.179757464229482 $96 $170 forward 7 unknown #
loop $-1 $-1 $103 $60 #
plane-surface $-1 20.74253719917575 -31.426733463050319 1.6746882179429861 0 -0.5877852598018023 0.80901698891910034 1 0 0 forward_v I I I I #
loop $-1 $-1 $171 $39 #
coedge $-1 $101 $101 $102 $172 reversed $61 $-1 #
coedge $-1 $102 $102 $101 $172 forward $63 $-1 #
coedge $-1 $103 $103 $64 $104 forward $98 $-1 #
edge $-1 $173 1.2618597260491273e-016 $173 6.2831853071796004 $103 $174 forward 7 unknown #
face $-1 $175 $176 $22 $-1 $177 reversed single #
loop $-1 $-1 $178 $65 #
plane-surface $-1 48.227790154728844 0 0 -1 0 0 0 0 1 forward_v I I I I #
coedge $-1 $179 $180 $181 $182 reversed $66 $-1 #
coedge $-1 $110 $68 $183 $184 reversed $43 $-1 #
coedge $-1 $68 $109 $179 $185 reversed $43 $-1 #
coedge $-1 $181 $186 $68 $112 forward $187 $-1 #
edge $-1 $188 -4.818028145171791 $189 1.6186398343061867 $111 $190 forward 7 unknown #
loop $-1 $-1 $118 $69 #
plane-surface $-1 39.60761059043903 -13.786266390833433 46.653392893584183 0 0.69465837861970381 0.71933979245794832 1 0 0 forward_v I I I I #
loop $-1 $-1 $191 $45 #
coedge $-1 $116 $116 $117 $192 reversed $70 $-1 #
coedge $-1 $117 $117 $116 $192 forward $72 $-1 #
coedge $-1 $118 $118 $73 $119 forward $113 $-1 #
edge $-1 $193 0 $193 6.2831853071796004 $118 $194 forward 7 unknown #
face $-1 $195 $196 $18 $-1 $197 reversed single #
loop $-1 $-1 $198 $74 #
plane-surface $-1 -48.227790154728844 0 0 1 0 0 0 0 -1 forward_v I I I I #
coedge $-1 $199 $131 $200 $201 forward $75 $-1 #
coedge $-1 $202 $77 $199 $203 forward $49 $-1 #
coedge $-1 $77 $202 $204 $205 forward $49 $-1 #
coedge $-1 $134 $133 $77 $127 reversed $135 $-1 #
edge $-1 $206 -31.426733463050329 $207 31.426733463050329 $126 $208 forward 7 unknown #
coedge $-1 $79 $78 $209 $210 forward $31 $-1 #
coedge $-1 $211 $212 $78 $130 reversed $196 $-1 #
edge $-1 $137 -48.227790154728844 $213 48.227790154728844 $129 $214 forward 7 unknown #
coedge $-1 $123 $215 $79 $132 reversed $75 $-1 #
edge $-1 $216 -48.227790154728844 $136 48.227790154728844 $131 $217 forward 7 unknown #
coedge $-1 $126 $80 $215 $218 forward $135 $-1 #
coedge $-1 $80 $126 $211 $219 reversed $135 $-1 #
loop $-1 $-1 $133 $195 #
vertex $-1 $81 $220 #
vertex $-1 $81 $221 #
straight-curve $-1 48.227790154728844 0 9.2075236241332998 0 1 0 I I #
face $-1 $222 $223 $19 $-1 $224 reversed single #
loop $-1 $-1 $144 $82 #
plane-surface $-1 0 -31.426733463050329 0 0 1 0 0 0 1 forward_v I I I I #
coedge $-1 $225 $226 $143 $227 forward $83 $-1 #
coedge $-1 $151 $85 $142 $227 reversed $53 $-1 #
coedge $-1 $149 $228 $85 $145 forward $140 $-1 #
edge $-1 $229 -5.6219227887658718 $152 -1.5492788819689856 $144 $230 forward 7 unknown #
coedge $-1 $87 $86 $231 $232 reversed $34 $-1 #
coedge $-1 $233 $234 $86 $148 forward $235 $-1 #
edge $-1 $236 -26.928574100384317 $153 -15.669858008304736 $147 $237 forward 7 unknown #
coedge $-1 $238 $144 $87 $150 forward $140 $-1 #
edge $-1 $152 15.669858008304736 $239 26.928574100384317 $149 $240 forward 7 unknown #
coedge $-1 $88 $143 $233 $241 reversed $53 $-1 #
vertex $-1 $150 $242 #
vertex $-1 $148 $243 #
straight-curve $-1 -36.969074062649263 0 -5.134879717336414 0 1 0 I I #
face $-1 $-1 $167 $20 $-1 $244 reversed single #
loop $-1 $-1 $245 $90 #
plane-surface $-1 0 0 9.2075236241332998 0 0 1 1 0 0 forward_v I I I I #
coedge $-1 $246 $247 $248 $249 reversed $91 $-1 #
coedge $-1 $250 $93 $95 $165 forward $57 $-1 #
coedge $-1 $93 $250 $246 $251 forward $57 $-1 #
coedge $-1 $248 $96 $93 $162 forward $167 $-1 #
edge $-1 $169 -1.0437383626101955 $252 21.786275561785946 $161 $253 forward 7 unknown #
coedge $-1 $254 $255 $94 $164 forward $156 $-1 #
edge $-1 $256 -23.002275694825812 $168 -12.634217434238931 $163 $257 forward 7 unknown #
edge $-1 $169 -1.3190626271515327e-014 $256 12.815624891189584 $95 $258 forward 7 unknown #
coedge $-1 $96 $248 $254 $259 reversed $167 $-1 #
loop $-1 $-1 $248 $155 #
vertex $-1 $259 $260 #
vertex $-1 $97 $261 #
straight-curve $-1 9.3275302369776796 -31.426733463050329 39.854445682172461 0 0 -1 I I #
coedge $-1 $171 $171 $-1 $262 reversed $100 $-1 #
edge $-1 $263 0 $263 6.2831853071796004 $101 $264 forward 7 unknown #
vertex $-1 $104 $265 #
ellipse-curve $-1 20.74253719917575 -26.242704332756894 5.4411059210381367 0 -0.5877852598018023 0.80901698891910034 2 0 0 1 I I #
face $-1 $-1 $187 $22 $-1 $266 forward single #
loop $-1 $-1 $267 $105 #
plane-surface $-1 0 31.426733463050329 0 0 -1 0 0 0 -1 forward_v I I I I #
coedge $-1 $268 $269 $180 $270 forward $106 $-1 #
coedge $-1 $271 $108 $110 $185 forward $66 $-1 #
coedge $-1 $108 $271 $178 $270 reversed $66 $-1 #
coedge $-1 $272 $111 $108 $182 forward $187 $-1 #
edge $-1 $189 11.183625730929695 $273 28.423984859509336 $181 $274 forward 7 unknown #
coedge $-1 $275 $267 $109 $184 forward $176 $-1 #
edge $-1 $276 -55.027159539328295 $188 -48.811341383266921 $183 $277 forward 7 unknown #
edge $-1 $189 53.905445355537722 $276 62.853466926100651 $110 $278 forward 7 unknown #
coedge $-1 $111 $272 $275 $279 forward $187 $-1 #
loop $-1 $-1 $181 $175 #
vertex $-1 $184 $280 #
vertex $-1 $112 $281 #
straight-curve $-1 30.98743102614921 26.608705317878538 9.2075236241333016 0 -1 0 I I #
coedge $-1 $191 $191 $-1 $282 reversed $115 $-1 #
edge $-1 $283 0 $283 6.2831853071796004 $116 $284 forward 7 unknown #
vertex $-1 $119 $285 #
ellipse-curve $-1 39.60761059043903 28.208399473311339 6.0996145461026154 0 0.69465837861970381 0.71933979245794832 2 0 0 1 I I #
face $-1 $-1 $135 $18 $-1 $286 reversed single #
loop $-1 $-1 $211 $120 #
plane-surface $-1 0 31.426733463050329 0 0 -1 0 0 0 -1 forward_v I I I I #
coedge $-1 $287 $209 $212 $288 forward $121 $-1 #
coedge $-1 $215 $123 $124 $203 reversed $75 $-1 #
coedge $-1 $209 $287 $123 $201 reversed $121 $-1 #
edge $-1 $216 -9.2075236241332998 $289 9.2075236241332998 $200 $290 forward 7 unknown #
coedge $-1 $125 $124 $287 $291 forward $49 $-1 #
edge $-1 $207 -48.227790154728844 $289 48.227790154728844 $199 $292 forward 7 unknown #
coedge $-1 $212 $211 $125 $205 reversed $196 $-1 #
edge $-1 $293 -48.227790154728844 $206 48.227790154728844 $204 $294 forward 7 unknown #
vertex $-1 $127 $295 #
vertex $-1 $218 $296 #
straight-curve $-1 48.227790154728844 0 -9.2075236241332998 0 -1 0 I I #
coedge $-1 $198 $200 $128 $210 reversed $121 $-1 #
edge $-1 $213 -31.426733463050329 $216 31.426733463050329 $209 $297 forward 7 unknown #
coedge $-1 $204 $129 $134 $219 forward $196 $-1 #
coedge $-1 $129 $204 $198 $288 reversed $196 $-1 #
vertex $-1 $130 $298 #
straight-curve $-1 0 31.426733463050329 9.2075236241332998 -1 0 0 I I #
coedge $-1 $131 $199 $133 $218 reversed $75 $-1 #
vertex $-1 $210 $299 #
straight-curve $-1 0 -31.426733463050329 9.2075236241332998 1 0 0 I I #
edge $-1 $136 -9.2075236241332998 $207 9.2075236241332998 $133 $300 forward 7 unknown #
edge $-1 $137 -9.2075236241332998 $206 9.2075236241332998 $134 $301 forward 7 unknown #
point $-1 48.227790154728844 -31.426733463050329 9.2075236241332998 #
point $-1 48.227790154728844 31.426733463050329 9.2075236241332998 #
face $-1 $-1 $235 $19 $-1 $302 reversed single #
loop $-1 $-1 $231 $139 #
plane-surface $-1 -48.227790154728844 0 0 1 0 0 0 0 -1 forward_v I I I I #
coedge $-1 $303 $142 $228 $304 forward $83 $-1 #
coedge $-1 $142 $303 $305 $306 forward $83 $-1 #
edge $-1 $307 -31.426733463050329 $229 31.426733463050329 $142 $308 forward 7 unknown #
coedge $-1 $144 $238 $225 $304 reversed $140 $-1 #
vertex $-1 $304 $309 #
straight-curve $-1 -36.969074062649263 -31.426733463050329 -3.5856008353674285 0 0 1 I I #
coedge $-1 $310 $311 $146 $232 forward $223 $-1 #
edge $-1 $239 -31.426733463050329 $236 31.426733463050329 $231 $312 forward 7 unknown #
coedge $-1 $305 $147 $151 $241 forward $235 $-1 #
coedge $-1 $147 $305 $310 $313 reversed $235 $-1 #
loop $-1 $-1 $233 $222 #
vertex $-1 $313 $314 #
straight-curve $-1 -21.299216054344527 31.426733463050329 -5.134879717336414 1 0 0 I I #
coedge $-1 $228 $149 $311 $315 forward $140 $-1 #
vertex $-1 $315 $316 #
straight-curve $-1 -21.299216054344527 -31.426733463050329 -5.134879717336414 -1 0 0 I I #
edge $-1 $153 1.5492788819689856 $307 5.6219227887658718 $233 $317 forward 7 unknown #
point $-1 -36.969074062649263 -31.426733463050329 -5.134879717336414 #
point $-1 -36.969074062649263 31.426733463050329 -5.134879717336414 #
plane-surface $-1 0 -31.426733463050329 0 0 1 0 0 0 1 forward_v I I I I #
coedge $-1 $255 $254 $247 $318 forward $156 $-1 #
coedge $-1 $247 $158 $160 $251 reversed $91 $-1 #
coedge $-1 $158 $246 $245 $318 reversed $91 $-1 #
coedge $-1 $166 $161 $158 $249 forward $167 $-1 #
edge $-1 $252 -38.179757464229482 $319 -30.646922058039159 $248 $320 forward 7 unknown #
coedge $-1 $160 $159 $255 $321 reversed $57 $-1 #
edge $-1 $322 -12.815624891189584 $252 1.3190626271515327e-014 $246 $323 forward 7 unknown #
vertex $-1 $162 $324 #
straight-curve $-1 10.371268599587875 -31.426733463050329 1.674688217942979 1 0 0 I I #
coedge $-1 $245 $163 $166 $259 forward $156 $-1 #
coedge $-1 $163 $245 $250 $321 forward $156 $-1 #
vertex $-1 $164 $325 #
straight-curve $-1 9.3275302369776796 -44.06095089728926 9.2075236241333016 0 -1 0 I I #
straight-curve $-1 9.3275302369776796 -31.426733463050319 1.6746882179429861 0 0.80901698891910034 0.5877852598018023 I I #
edge $-1 $168 9.3275302369776796 $319 32.157544161373821 $166 $326 forward 7 unknown #
point $-1 9.3275302369776796 -31.426733463050329 9.2075236241332998 #
point $-1 9.3275302369776796 -31.426733463050329 1.6746882179429783 #
edge $-1 $327 1 $327 0 $171 $-1 forward 7 unknown #
vertex $-1 $172 $328 #
ellipse-curve $-1 20.74253719917575 -23.070705311783573 1.0752239020377339 0 -0.5877852598018023 0.80901698891910034 2 0 0 1 I I #
point $-1 22.74253719917575 -26.242704332756905 5.4411059210381518 #
plane-surface $-1 0 0 9.2075236241332998 0 0 1 1 0 0 forward_v I I I I #
coedge $-1 $183 $329 $271 $330 forward $176 $-1 #
coedge $-1 $269 $178 $329 $331 reversed $106 $-1 #
coedge $-1 $178 $268 $272 $332 reversed $106 $-1 #
edge $-1 $273 32.742855221079068 $333 41.690876791641983 $178 $334 forward 7 unknown #
coedge $-1 $180 $179 $267 $330 reversed $66 $-1 #
coedge $-1 $186 $181 $269 $332 forward $187 $-1 #
vertex $-1 $332 $335 #
straight-curve $-1 19.803805295219515 24.990065483572351 9.2075236241333016 1 0 0 I I #
coedge $-1 $329 $183 $186 $279 reversed $176 $-1 #
vertex $-1 $184 $336 #
straight-curve $-1 30.98743102614921 31.426733463050329 58.018865007400223 0 0 1 I I #
straight-curve $-1 30.98743102614921 -13.786266390833433 46.653392893584183 0 0.71933979245794832 -0.69465837861970381 I I #
edge $-1 $337 -48.227790154728844 $188 -30.98743102614921 $275 $338 forward 7 unknown #
point $-1 30.98743102614921 31.426733463050329 9.2075236241332998 #
point $-1 30.98743102614921 24.990065483572351 9.2075236241333016 #
edge $-1 $339 1 $339 0 $191 $-1 forward 7 unknown #
vertex $-1 $192 $340 #
ellipse-curve $-1 39.60761059043903 25.406785225703956 3.1984581310233358 0 0.69465837861970381 0.71933979245794832 2 0 0 1 I I #
point $-1 41.60761059043903 28.208399473311339 6.0996145461026154 #
plane-surface $-1 48.227790154728844 0 0 -1 0 0 0 0 1 forward_v I I I I #
coedge $-1 $200 $198 $202 $291 reversed $121 $-1 #
edge $-1 $213 -9.2075236241332998 $293 9.2075236241332998 $212 $341 forward 7 unknown #
vertex $-1 $291 $342 #
straight-curve $-1 -48.227790154728844 -31.426733463050329 0 0 0 -1 I I #
edge $-1 $289 -31.426733463050329 $293 31.426733463050329 $287 $343 forward 7 unknown #
straight-curve $-1 0 -31.426733463050329 -9.2075236241332998 -1 0 0 I I #
vertex $-1 $205 $344 #
straight-curve $-1 0 31.426733463050329 -9.2075236241332998 1 0 0 I I #
point $-1 48.227790154728844 31.426733463050329 -9.2075236241332998 #
point $-1 48.227790154728844 -31.426733463050329 -9.2075236241332998 #
straight-curve $-1 -48.227790154728844 0 9.2075236241332998 0 -1 0 I I #
point $-1 -48.227790154728844 31.426733463050329 9.2075236241332998 #
point $-1 -48.227790154728844 -31.426733463050329 9.2075236241332998 #
straight-curve $-1 48.227790154728844 -31.426733463050329 0 0 0 -1 I I #
straight-curve $-1 48.227790154728844 31.426733463050329 0 0 0 -1 I I #
plane-surface $-1 0 31.426733463050329 0 0 -1 0 0 0 -1 forward_v I I I I #
coedge $-1 $226 $225 $345 $346 forward $83 $-1 #
edge $-1 $229 36.969074062649263 $347 48.227790154728844 $228 $348 forward 7 unknown #
coedge $-1 $234 $233 $226 $306 reversed $235 $-1 #
edge $-1 $349 -48.227790154728844 $307 -36.969074062649263 $305 $350 forward 7 unknown #
vertex $-1 $241 $351 #
straight-curve $-1 -36.969074062649263 0 -9.2075236241332998 0 -1 0 I I #
point $-1 -36.969074062649263 -31.426733463050329 -9.2075236241332998 #
coedge $-1 $345 $231 $234 $313 forward $223 $-1 #
coedge $-1 $231 $345 $238 $315 reversed $223 $-1 #
straight-curve $-1 -48.227790154728844 0 -5.134879717336414 0 1 0 I I #
edge $-1 $236 5.134879717336414 $349 9.2075236241332998 $234 $352 forward 7 unknown #
point $-1 -48.227790154728844 31.426733463050329 -5.134879717336414 #
edge $-1 $239 5.134879717336414 $347 9.2075236241332998 $311 $353 forward 7 unknown #
point $-1 -48.227790154728844 -31.426733463050329 -5.134879717336414 #
straight-curve $-1 -36.969074062649263 31.426733463050329 -3.5856008353674285 0 0 -1 I I #
edge $-1 $319 12.634217434238931 $322 23.002275694825812 $245 $354 forward 7 unknown #
vertex $-1 $249 $355 #
straight-curve $-1 32.157544161373821 -31.426733463050329 39.854445682172461 0 0 1 I I #
edge $-1 $322 -21.786275561785946 $256 1.0437383626101955 $255 $356 forward 7 unknown #
vertex $-1 $321 $357 #
straight-curve $-1 32.157544161373821 -31.426733463050319 1.6746882179429861 0 -0.80901698891910034 -0.5877852598018023 I I #
point $-1 32.157544161373821 -31.426733463050329 1.6746882179429783 #
point $-1 9.3275302369776796 -21.058675202463448 9.2075236241332998 #
straight-curve $-1 0 -31.426733463050329 9.2075236241332998 1 0 0 I I #
vertex $-1 $262 $358 #
point $-1 22.74253719917575 -23.070705311783573 1.0752239020377339 #
coedge $-1 $267 $275 $268 $331 forward $176 $-1 #
edge $-1 $333 -28.423984859509336 $276 -11.183625730929695 $267 $359 forward 7 unknown #
edge $-1 $337 -9.2075236241332998 $333 -2.9917054680719275 $268 $360 forward 7 unknown #
edge $-1 $273 24.990065483572351 $337 31.426733463050329 $269 $361 forward 7 unknown #
vertex $-1 $330 $362 #
straight-curve $-1 48.227790154728844 1.4368268043606829 31.952622343387795 0 0.71933979245794832 -0.69465837861970381 I I #
point $-1 48.227790154728851 24.990065483572351 9.2075236241333016 #
point $-1 30.98743102614921 31.426733463050326 2.9917054680719275 #
vertex $-1 $332 $363 #
straight-curve $-1 0 31.426733463050329 9.2075236241332998 -1 0 0 I I #
vertex $-1 $282 $364 #
point $-1 41.60761059043903 25.406785225703956 3.1984581310233358 #
straight-curve $-1 -48.227790154728844 31.426733463050329 0 0 0 -1 I I #
point $-1 -48.227790154728844 -31.426733463050329 -9.2075236241332998 #
straight-curve $-1 -48.227790154728844 0 -9.2075236241332998 0 1 0 I I #
point $-1 -48.227790154728844 31.426733463050329 -9.2075236241332998 #
coedge $-1 $311 $310 $303 $346 reversed $223 $-1 #
edge $-1 $347 -31.426733463050329 $349 31.426733463050329 $345 $365 forward 7 unknown #
vertex $-1 $346 $366 #
straight-curve $-1 0 -31.426733463050329 -9.2075236241332998 -1 0 0 I I #
vertex $-1 $306 $367 #
straight-curve $-1 0 31.426733463050329 -9.2075236241332998 1 0 0 I I #
point $-1 -36.969074062649263 31.426733463050329 -9.2075236241332998 #
straight-curve $-1 -48.227790154728844 31.426733463050329 0 0 0 -1 I I #
straight-curve $-1 -48.227790154728844 -31.426733463050329 0 0 0 -1 I I #
straight-curve $-1 32.157544161373821 -44.06095089728926 9.2075236241333016 0 1 0 I I #
point $-1 32.157544161373821 -31.426733463050329 9.2075236241332998 #
straight-curve $-1 10.371268599587875 -21.058675202463448 9.2075236241332998 -1 0 0 I I #
point $-1 32.157544161373821 -21.058675202463448 9.2075236241332998 #
point $-1 20.74253719917575 -21.89513479217997 -0.54281007580046681 #
straight-curve $-1 19.803805295219515 31.426733463050333 2.9917054680719275 -1 0 0 I I #
straight-curve $-1 48.227790154728844 31.426733463050329 0 0 0 -1 I I #
straight-curve $-1 48.227790154728844 0 9.2075236241332998 0 1 0 I I #
point $-1 48.227790154728851 31.426733463050326 2.9917054680719275 #
point $-1 48.227790154728844 31.426733463050329 9.2075236241332998 #
point $-1 39.60761059043903 24.01746846846455 1.7597785461074382 #
straight-curve $-1 -48.227790154728844 0 -9.2075236241332998 0 1 0 I I #
point $-1 -48.227790154728844 -31.426733463050329 -9.2075236241332998 #
point $-1 -48.227790154728844 31.426733463050329 -9.2075236241332998 #
End-of-ACIS-data 