500 0 13 0           
7 Unknown 11 ACIS 5.0 NT 24 Fri Mar 26 20:48:10 1999 
-1 9.9999999999999995e-007 1e-010 
body $-1 $13 $-1 $14 #
body $-1 $15 $-1 $16 #
body $-1 $17 $-1 $18 #
body $-1 $19 $-1 $20 #
body $-1 $21 $-1 $22 #
body $-1 $23 $-1 $24 #
body $-1 $25 $-1 $26 #
body $-1 $27 $-1 $28 #
body $-1 $29 $-1 $30 #
body $-1 $31 $-1 $32 #
body $-1 $33 $-1 $34 #
body $-1 $35 $-1 $36 #
body $-1 $37 $-1 $38 #
lump $-1 $-1 $39 $0 #
transform $-1 1 0 0 0 1 0 0 0 1 76.60023804437391 50.682347509678486 22.771403798707166 1 rotate no_reflect no_shear #
lump $-1 $-1 $40 $1 #
transform $-1 1 0 0 0 1 0 0 0 1 76.60023804437391 50.682347509678486 22.771403798707166 1 rotate no_reflect no_shear #
lump $-1 $-1 $41 $2 #
transform $-1 1 0 0 0 1 0 0 0 1 76.60023804437391 50.682347509678486 22.771403798707166 1 rotate no_reflect no_shear #
lump $-1 $-1 $42 $3 #
transform $-1 1 0 0 0 1 0 0 0 1 76.60023804437391 50.682347509678486 22.771403798707166 1 rotate no_reflect no_shear #
lump $-1 $-1 $43 $4 #
transform $-1 1 0 0 0 1 0 0 0 1 76.60023804437391 50.682347509678486 22.771403798707166 1 rotate no_reflect no_shear #
lump $-1 $-1 $44 $5 #
transform $-1 1 0 0 0 1 0 0 0 1 76.60023804437391 50.682347509678486 22.771403798707166 1 rotate no_reflect no_shear #
lump $-1 $-1 $45 $6 #
transform $-1 1 0 0 0 1 0 0 0 1 76.60023804437391 50.682347509678486 22.771403798707166 1 rotate no_reflect no_shear #
lump $-1 $-1 $46 $7 #
transform $-1 1 0 0 0 1 0 0 0 1 76.60023804437391 50.682347509678486 22.771403798707166 1 rotate no_reflect no_shear #
lump $-1 $-1 $47 $8 #
transform $-1 1 0 0 0 1 0 0 0 1 76.60023804437391 50.682347509678486 22.771403798707166 1 rotate no_reflect no_shear #
lump $-1 $-1 $48 $9 #
transform $-1 1 0 0 0 1 0 0 0 1 76.60023804437391 50.682347509678486 22.771403798707166 1 rotate no_reflect no_shear #
lump $-1 $-1 $49 $10 #
transform $-1 1 0 0 0 1 0 0 0 1 76.60023804437391 50.682347509678486 22.771403798707166 1 rotate no_reflect no_shear #
lump $-1 $-1 $50 $11 #
transform $-1 1 0 0 0 1 0 0 0 1 76.60023804437391 50.682347509678486 22.771403798707166 1 rotate no_reflect no_shear #
lump $-1 $-1 $51 $12 #
transform $-1 1 0 0 0 1 0 0 0 1 76.60023804437391 50.682347509678486 22.771403798707166 1 rotate no_reflect no_shear #
shell $-1 $-1 $-1 $52 $-1 $13 #
shell $-1 $-1 $-1 $53 $-1 $15 #
shell $-1 $-1 $-1 $54 $-1 $17 #
shell $-1 $-1 $-1 $55 $-1 $19 #
shell $-1 $-1 $-1 $56 $-1 $21 #
shell $-1 $-1 $-1 $57 $-1 $23 #
shell $-1 $-1 $-1 $58 $-1 $25 #
shell $-1 $-1 $-1 $59 $-1 $27 #
shell $-1 $-1 $-1 $60 $-1 $29 #
shell $-1 $-1 $-1 $61 $-1 $31 #
shell $-1 $-1 $-1 $62 $-1 $33 #
shell $-1 $-1 $-1 $63 $-1 $35 #
shell $-1 $-1 $-1 $64 $-1 $37 #
face $-1 $65 $66 $39 $-1 $67 forward single #
face $-1 $68 $69 $40 $-1 $70 forward single #
face $-1 $71 $72 $41 $-1 $73 forward single #
face $-1 $74 $75 $42 $-1 $76 reversed single #
face $-1 $77 $78 $43 $-1 $79 forward single #
face $-1 $80 $81 $44 $-1 $82 forward single #
face $-1 $83 $84 $45 $-1 $85 reversed single #
face $-1 $86 $87 $46 $-1 $88 forward single #
face $-1 $89 $90 $47 $-1 $91 forward single #
face $-1 $92 $93 $48 $-1 $94 reversed single #
face $-1 $95 $96 $49 $-1 $97 forward single #
face $-1 $98 $99 $50 $-1 $100 reversed single #
face $-1 $101 $102 $51 $-1 $103 forward single #
face $-1 $104 $105 $39 $-1 $106 reversed single #
loop $-1 $-1 $107 $52 #
plane-surface $-1 0 0 22.771403798707166 0 0 1 1 0 0 forward_v I I I I #
face $-1 $108 $109 $40 $-1 $110 reversed single #
loop $-1 $-1 $111 $53 #
plane-surface $-1 -76.60023804437391 0 0 1 0 0 0 0 -1 forward_v I I I I #
face $-1 $112 $113 $41 $-1 $114 reversed single #
loop $-1 $-1 $115 $54 #
plane-surface $-1 76.60023804437391 0 0 -1 0 0 0 0 1 forward_v I I I I #
face $-1 $116 $117 $42 $-1 $118 reversed single #
loop $-1 $-1 $119 $55 #
plane-surface $-1 -24.299088713773774 -179.16707902680409 95.648630593159695 -1 0 0 0 -0.83867057594974714 0.54463902268945019 forward_v I I I I #
face $-1 $120 $121 $43 $-1 $122 forward single #
loop $-1 $123 $124 $56 #
cone-surface $-1 -37.509709786341077 -44.663776963671936 15.809133512751213 0 0.83867057594974714 -0.54463902268945019 2 0 0 1 I I 0 1 2 forward I I I I #
face $-1 $125 $126 $44 $-1 $127 forward single #
loop $-1 $128 $129 $57 #
cone-surface $-1 -29.583337142800701 -44.663776963671936 15.809133512751213 0 0.83867057594974714 -0.54463902268945019 2 0 0 1 I I 0 1 2 forward I I I I #
face $-1 $130 $131 $45 $-1 $132 reversed single #
loop $-1 $-1 $133 $58 #
plane-surface $-1 42.793958215367994 -179.16707902680409 95.648630593159695 -1 0 0 0 -0.83867057594974714 0.54463902268945019 forward_v I I I I #
face $-1 $134 $135 $46 $-1 $136 forward single #
loop $-1 $137 $138 $59 #
cone-surface $-1 29.583337142800687 -44.663776963671936 15.809133512751213 0 0.83867057594974714 -0.54463902268945019 2 0 0 1 I I 0 1 2 forward I I I I #
face $-1 $139 $140 $47 $-1 $141 forward single #
loop $-1 $142 $143 $60 #
cone-surface $-1 37.509709786341062 -44.663776963671936 15.809133512751213 0 0.83867057594974714 -0.54463902268945019 2 0 0 1 I I 0 1 2 forward I I I I #
face $-1 $144 $145 $48 $-1 $146 reversed single #
loop $-1 $-1 $147 $61 #
plane-surface $-1 -21.25100680647391 118.03643256639975 177.32599246206124 1 0 0 0 -0.81915205242281985 -0.57357642473473569 forward_v I I I I #
face $-1 $148 $149 $49 $-1 $150 forward single #
loop $-1 $151 $152 $62 #
cone-surface $-1 -12.278919129547205 42.572619830324008 12.9258608863611 0 -0.81915205242281985 -0.57357642473473569 1.5 0 0 1 I I 0 1 1.5 forward I I I I #
face $-1 $153 $154 $50 $-1 $155 reversed single #
loop $-1 $-1 $156 $63 #
plane-surface $-1 34.597322314612938 118.03643256639975 177.32599246206124 1 0 0 0 -0.81915205242281985 -0.57357642473473569 forward_v I I I I #
face $-1 $157 $158 $51 $-1 $159 forward single #
loop $-1 $160 $161 $64 #
cone-surface $-1 43.569409991539644 42.572619830324008 12.9258608863611 0 -0.81915205242281985 -0.57357642473473569 1.5 0 0 1 I I 0 1 1.5 forward I I I I #
face $-1 $162 $163 $39 $-1 $164 reversed single #
loop $-1 $-1 $165 $65 #
plane-surface $-1 0 0 -22.771403798707166 0 0 1 1 0 0 forward_v I I I I #
coedge $-1 $166 $167 $168 $169 forward $66 $-1 #
face $-1 $170 $171 $40 $-1 $172 forward single #
loop $-1 $-1 $173 $68 #
plane-surface $-1 0 50.682347509678486 0 0 -1 0 0 0 -1 forward_v I I I I #
coedge $-1 $174 $175 $176 $177 forward $69 $-1 #
face $-1 $178 $179 $41 $-1 $180 forward single #
loop $-1 $-1 $181 $71 #
plane-surface $-1 0 -50.682347509678486 0 0 1 0 0 0 1 forward_v I I I I #
coedge $-1 $182 $183 $184 $185 forward $72 $-1 #
face $-1 $186 $187 $42 $-1 $188 reversed single #
loop $-1 $-1 $189 $74 #
plane-surface $-1 -33.546523464570882 -50.682347509678493 12.209673020625601 0 -0.83867057594974714 0.54463902268945019 1 0 0 forward_v I I I I #
coedge $-1 $190 $191 $192 $193 reversed $75 $-1 #
face $-1 $-1 $194 $43 $-1 $195 forward single #
loop $-1 $196 $197 $77 #
cone-surface $-1 -37.509709786341077 -41.235969813671325 13.583089593146592 0 0.83867057594974714 -0.54463902268945019 1 0 0 1 I I -0.70710678118654746 0.70710678118654746 1 forward I I I I #
loop $-1 $-1 $198 $56 #
coedge $-1 $124 $124 $199 $200 reversed $78 $-1 #
face $-1 $-1 $201 $44 $-1 $202 forward single #
loop $-1 $203 $204 $80 #
cone-surface $-1 -29.583337142800701 -41.235969813671325 13.583089593146592 0 0.83867057594974714 -0.54463902268945019 1 0 0 1 I I -0.70710678118654746 0.70710678118654746 1 forward I I I I #
loop $-1 $-1 $205 $57 #
coedge $-1 $129 $129 $206 $207 reversed $81 $-1 #
face $-1 $208 $209 $45 $-1 $210 reversed single #
loop $-1 $-1 $211 $83 #
plane-surface $-1 33.546523464570882 -50.682347509678493 12.209673020625601 0 -0.83867057594974714 0.54463902268945019 1 0 0 forward_v I I I I #
coedge $-1 $212 $213 $214 $215 reversed $84 $-1 #
face $-1 $-1 $216 $46 $-1 $217 forward single #
loop $-1 $218 $219 $86 #
cone-surface $-1 29.583337142800687 -41.235969813671325 13.583089593146592 0 0.83867057594974714 -0.54463902268945019 1 0 0 1 I I -0.70710678118654746 0.70710678118654746 1 forward I I I I #
loop $-1 $-1 $220 $59 #
coedge $-1 $138 $138 $221 $222 reversed $87 $-1 #
face $-1 $-1 $223 $47 $-1 $224 forward single #
loop $-1 $225 $226 $89 #
cone-surface $-1 37.509709786341062 -41.235969813671325 13.583089593146592 0 0.83867057594974714 -0.54463902268945019 1 0 0 1 I I -0.70710678118654746 0.70710678118654746 1 forward I I I I #
loop $-1 $-1 $227 $60 #
coedge $-1 $143 $143 $228 $229 reversed $90 $-1 #
face $-1 $230 $231 $48 $-1 $232 reversed single #
loop $-1 $-1 $233 $92 #
plane-surface $-1 -12.278919129547205 -7.4580518538511598 89.453811119417892 0 0.81915205242281985 0.57357642473473569 1 0 0 forward_v I I I I #
coedge $-1 $234 $235 $236 $237 reversed $93 $-1 #
face $-1 $-1 $238 $49 $-1 $239 forward single #
loop $-1 $240 $241 $95 #
cone-surface $-1 -12.278919129547205 39.572966362072783 10.825480979268338 0 -0.81915205242281985 -0.57357642473473569 0.75 0 0 1 I I -0.70710678118654757 0.70710678118654757 0.75 forward I I I I #
loop $-1 $-1 $242 $62 #
coedge $-1 $152 $152 $243 $244 reversed $96 $-1 #
face $-1 $245 $246 $50 $-1 $247 reversed single #
loop $-1 $-1 $248 $98 #
plane-surface $-1 43.569409991539644 -7.4580518538511598 89.453811119417892 0 0.81915205242281985 0.57357642473473569 1 0 0 forward_v I I I I #
coedge $-1 $249 $250 $251 $252 reversed $99 $-1 #
face $-1 $-1 $253 $51 $-1 $254 forward single #
loop $-1 $255 $256 $101 #
cone-surface $-1 43.569409991539644 39.572966362072783 10.825480979268338 0 -0.81915205242281985 -0.57357642473473569 0.75 0 0 1 I I -0.70710678118654757 0.70710678118654757 0.75 forward I I I I #
loop $-1 $-1 $257 $64 #
coedge $-1 $161 $161 $258 $259 reversed $102 $-1 #
face $-1 $260 $261 $39 $-1 $262 reversed single #
loop $-1 $-1 $263 $104 #
plane-surface $-1 0 -50.682347509678486 0 0 1 0 0 0 1 forward_v I I I I #
coedge $-1 $264 $265 $266 $267 forward $105 $-1 #
coedge $-1 $268 $107 $269 $270 forward $66 $-1 #
coedge $-1 $107 $268 $271 $272 forward $66 $-1 #
coedge $-1 $273 $274 $107 $169 reversed $275 $-1 #
edge $-1 $276 -50.682347509678486 $277 50.682347509678486 $168 $278 forward 7 unknown #
face $-1 $279 $280 $40 $-1 $281 reversed single #
loop $-1 $-1 $176 $108 #
plane-surface $-1 -86.976192506017441 0 12.327250554801838 0 0 1 1 0 0 forward_v I I I I #
coedge $-1 $282 $283 $175 $284 forward $109 $-1 #
coedge $-1 $285 $111 $286 $287 reversed $69 $-1 #
coedge $-1 $111 $285 $173 $284 reversed $69 $-1 #
coedge $-1 $288 $289 $111 $177 reversed $171 $-1 #
edge $-1 $290 -50.682347509678486 $291 50.682347509678486 $176 $292 forward 7 unknown #
face $-1 $293 $294 $41 $-1 $295 reversed single #
loop $-1 $-1 $296 $112 #
plane-surface $-1 86.976192506017455 0 12.327250554801838 0 0 1 1 0 0 forward_v I I I I #
coedge $-1 $297 $298 $183 $299 forward $113 $-1 #
coedge $-1 $300 $115 $301 $302 reversed $72 $-1 #
coedge $-1 $115 $300 $181 $299 reversed $72 $-1 #
coedge $-1 $303 $304 $115 $185 reversed $179 $-1 #
edge $-1 $305 -50.682347509678486 $306 50.682347509678486 $184 $307 forward 7 unknown #
face $-1 $308 $309 $42 $-1 $310 forward single #
loop $-1 $-1 $311 $116 #
plane-surface $-1 -42.793958215367994 -179.16707902680409 95.648630593159695 1 0 0 0 0.83867057594974714 -0.54463902268945019 forward_v I I I I #
coedge $-1 $312 $313 $314 $315 reversed $117 $-1 #
coedge $-1 $191 $119 $316 $317 reversed $75 $-1 #
coedge $-1 $119 $190 $312 $318 reversed $75 $-1 #
coedge $-1 $314 $319 $119 $193 forward $309 $-1 #
edge $-1 $320 38.901192003723558 $321 45.76005994763495 $192 $322 forward 7 unknown #
loop $-1 $-1 $199 $120 #
plane-surface $-1 -33.546523464570882 -50.682347509678493 12.209673020625601 0 -0.83867057594974714 0.54463902268945019 1 0 0 forward_v I I I I #
loop $-1 $-1 $323 $77 #
coedge $-1 $197 $197 $198 $324 reversed $121 $-1 #
coedge $-1 $198 $198 $197 $324 forward $123 $-1 #
coedge $-1 $199 $199 $124 $200 forward $194 $-1 #
edge $-1 $325 1.9349465059173461e-015 $325 6.2831853071796022 $199 $326 forward 7 unknown #
loop $-1 $-1 $206 $125 #
plane-surface $-1 -33.546523464570882 -50.682347509678493 12.209673020625601 0 -0.83867057594974714 0.54463902268945019 1 0 0 forward_v I I I I #
loop $-1 $-1 $327 $80 #
coedge $-1 $204 $204 $205 $328 reversed $126 $-1 #
coedge $-1 $205 $205 $204 $328 forward $128 $-1 #
coedge $-1 $206 $206 $129 $207 forward $201 $-1 #
edge $-1 $329 1.9349465059173461e-015 $329 6.2831853071796022 $206 $330 forward 7 unknown #
face $-1 $331 $332 $45 $-1 $333 reversed single #
loop $-1 $-1 $334 $130 #
plane-surface $-1 24.299088713773774 -179.16707902680409 95.648630593159695 1 0 0 0 0.83867057594974714 -0.54463902268945019 forward_v I I I I #
coedge $-1 $335 $336 $337 $338 reversed $131 $-1 #
coedge $-1 $213 $133 $339 $340 reversed $84 $-1 #
coedge $-1 $133 $212 $335 $341 reversed $84 $-1 #
coedge $-1 $337 $342 $133 $215 forward $343 $-1 #
edge $-1 $344 38.901192003723558 $345 45.76005994763495 $214 $346 forward 7 unknown #
loop $-1 $-1 $221 $134 #
plane-surface $-1 33.546523464570882 -50.682347509678493 12.209673020625601 0 -0.83867057594974714 0.54463902268945019 1 0 0 forward_v I I I I #
loop $-1 $-1 $347 $86 #
coedge $-1 $219 $219 $220 $348 reversed $135 $-1 #
coedge $-1 $220 $220 $219 $348 forward $137 $-1 #
coedge $-1 $221 $221 $138 $222 forward $216 $-1 #
edge $-1 $349 1.9349465059173461e-015 $349 6.2831853071796022 $221 $350 forward 7 unknown #
loop $-1 $-1 $228 $139 #
plane-surface $-1 33.546523464570882 -50.682347509678493 12.209673020625601 0 -0.83867057594974714 0.54463902268945019 1 0 0 forward_v I I I I #
loop $-1 $-1 $351 $89 #
coedge $-1 $226 $226 $227 $352 reversed $140 $-1 #
coedge $-1 $227 $227 $226 $352 forward $142 $-1 #
coedge $-1 $228 $228 $143 $229 forward $223 $-1 #
edge $-1 $353 1.9349465059173461e-015 $353 6.2831853071796022 $228 $354 forward 7 unknown #
face $-1 $355 $356 $48 $-1 $357 reversed single #
loop $-1 $-1 $358 $144 #
plane-surface $-1 -3.3068314526205 118.03643256639975 177.32599246206124 -1 0 0 0 0.81915205242281985 0.57357642473473569 forward_v I I I I #
coedge $-1 $359 $360 $361 $362 reversed $145 $-1 #
coedge $-1 $235 $147 $363 $364 reversed $93 $-1 #
coedge $-1 $147 $234 $359 $365 reversed $93 $-1 #
coedge $-1 $361 $366 $147 $237 forward $367 $-1 #
edge $-1 $368 8.3358687735213906 $369 19.784745274362145 $236 $370 forward 7 unknown #
loop $-1 $-1 $243 $148 #
plane-surface $-1 -12.278919129547205 -7.4580518538511598 89.453811119417892 0 0.81915205242281985 0.57357642473473569 1 0 0 forward_v I I I I #
loop $-1 $-1 $371 $95 #
coedge $-1 $241 $241 $242 $372 reversed $149 $-1 #
coedge $-1 $242 $242 $241 $372 forward $151 $-1 #
coedge $-1 $243 $243 $152 $244 forward $238 $-1 #
edge $-1 $373 -1.9401418011067053e-015 $373 6.2831853071795987 $243 $374 forward 7 unknown #
face $-1 $375 $376 $50 $-1 $377 forward single #
loop $-1 $-1 $378 $153 #
plane-surface $-1 52.541497668466349 118.03643256639975 177.32599246206124 -1 0 0 0 0.81915205242281985 0.57357642473473569 forward_v I I I I #
coedge $-1 $379 $380 $381 $382 reversed $154 $-1 #
coedge $-1 $250 $156 $383 $384 reversed $99 $-1 #
coedge $-1 $156 $249 $379 $385 reversed $99 $-1 #
coedge $-1 $381 $386 $156 $252 forward $376 $-1 #
edge $-1 $387 8.3358687735213906 $388 19.784745274362145 $251 $389 forward 7 unknown #
loop $-1 $-1 $258 $157 #
plane-surface $-1 43.569409991539644 -7.4580518538511598 89.453811119417892 0 0.81915205242281985 0.57357642473473569 1 0 0 forward_v I I I I #
loop $-1 $-1 $390 $101 #
coedge $-1 $256 $256 $257 $391 reversed $158 $-1 #
coedge $-1 $257 $257 $256 $391 forward $160 $-1 #
coedge $-1 $258 $258 $161 $259 forward $253 $-1 #
edge $-1 $392 -1.9401418011067053e-015 $392 6.2831853071795987 $258 $393 forward 7 unknown #
face $-1 $394 $395 $39 $-1 $396 reversed single #
loop $-1 $-1 $397 $162 #
plane-surface $-1 -76.60023804437391 0 0 1 0 0 0 0 -1 forward_v I I I I #
coedge $-1 $398 $271 $399 $400 forward $163 $-1 #
coedge $-1 $401 $165 $398 $402 forward $105 $-1 #
coedge $-1 $165 $401 $403 $404 forward $105 $-1 #
coedge $-1 $274 $273 $165 $267 reversed $275 $-1 #
edge $-1 $405 -50.682347509678486 $406 50.682347509678486 $266 $407 forward 7 unknown #
coedge $-1 $167 $166 $408 $409 forward $66 $-1 #
coedge $-1 $410 $411 $166 $270 reversed $395 $-1 #
edge $-1 $277 -76.60023804437391 $412 76.60023804437391 $269 $413 forward 7 unknown #
coedge $-1 $263 $414 $167 $272 reversed $163 $-1 #
edge $-1 $415 -76.60023804437391 $276 76.60023804437391 $271 $416 forward 7 unknown #
coedge $-1 $266 $168 $414 $417 forward $275 $-1 #
coedge $-1 $168 $266 $410 $418 reversed $275 $-1 #
loop $-1 $-1 $273 $394 #
vertex $-1 $169 $419 #
vertex $-1 $169 $420 #
straight-curve $-1 76.60023804437391 0 22.771403798707166 0 1 0 I I #
face $-1 $421 $422 $40 $-1 $423 reversed single #
loop $-1 $-1 $424 $170 #
plane-surface $-1 -86.976192506017441 0 2.9297291152926501 0 0 1 1 0 0 forward_v I I I I #
coedge $-1 $425 $173 $426 $427 reversed $109 $-1 #
coedge $-1 $173 $425 $288 $428 reversed $109 $-1 #
edge $-1 $290 -12.327250554801838 $429 -2.9297291152926501 $173 $430 forward 7 unknown #
coedge $-1 $175 $174 $424 $431 forward $69 $-1 #
coedge $-1 $432 $433 $174 $287 forward $434 $-1 #
edge $-1 $435 2.9297291152926501 $291 12.327250554801838 $286 $436 forward 7 unknown #
coedge $-1 $437 $176 $283 $428 forward $171 $-1 #
coedge $-1 $176 $437 $432 $438 forward $171 $-1 #
vertex $-1 $284 $439 #
vertex $-1 $438 $440 #
straight-curve $-1 -76.60023804437391 0 12.327250554801838 0 -1 0 I I #
face $-1 $441 $442 $41 $-1 $443 reversed single #
loop $-1 $-1 $444 $178 #
plane-surface $-1 86.976192506017455 0 2.9297291152926501 0 0 1 1 0 0 forward_v I I I I #
coedge $-1 $304 $303 $445 $446 forward $179 $-1 #
coedge $-1 $447 $181 $448 $449 reversed $113 $-1 #
coedge $-1 $181 $447 $303 $450 reversed $113 $-1 #
edge $-1 $305 -12.327250554801838 $451 -2.9297291152926501 $181 $452 forward 7 unknown #
coedge $-1 $183 $182 $453 $454 forward $72 $-1 #
coedge $-1 $455 $456 $182 $302 forward $457 $-1 #
edge $-1 $458 2.9297291152926501 $306 12.327250554801838 $301 $459 forward 7 unknown #
coedge $-1 $296 $184 $298 $450 forward $179 $-1 #
coedge $-1 $184 $296 $455 $460 forward $179 $-1 #
vertex $-1 $299 $461 #
vertex $-1 $460 $462 #
straight-curve $-1 76.60023804437391 0 12.327250554801838 0 1 0 I I #
face $-1 $-1 $463 $42 $-1 $464 reversed single #
loop $-1 $-1 $192 $186 #
plane-surface $-1 0 0 22.771403798707166 0 0 1 1 0 0 forward_v I I I I #
coedge $-1 $465 $466 $467 $468 reversed $187 $-1 #
coedge $-1 $469 $189 $191 $318 forward $117 $-1 #
coedge $-1 $189 $469 $465 $470 forward $117 $-1 #
coedge $-1 $467 $192 $189 $315 forward $309 $-1 #
edge $-1 $321 7.5258269814883327 $471 26.020696483082553 $314 $472 forward 7 unknown #
coedge $-1 $473 $474 $190 $317 forward $463 $-1 #
edge $-1 $475 -35.614642275954239 $320 -25.052911497872682 $316 $476 forward 7 unknown #
edge $-1 $321 -12.593419968407741 $475 -1.2808562293387176e-014 $191 $477 forward 7 unknown #
coedge $-1 $192 $467 $473 $478 forward $309 $-1 #
vertex $-1 $317 $479 #
vertex $-1 $193 $480 #
straight-curve $-1 -24.299088713773774 -89.583539513402044 22.771403798707169 0 1 0 I I #
coedge $-1 $323 $323 $-1 $481 reversed $196 $-1 #
edge $-1 $482 0 $482 6.2831853071796004 $197 $483 forward 7 unknown #
vertex $-1 $200 $484 #
ellipse-curve $-1 -37.509709786341077 -47.252913537722797 17.490538409666385 0 -0.83867057594974714 0.54463902268945019 2 0 0 1 I I #
coedge $-1 $327 $327 $-1 $485 reversed $203 $-1 #
edge $-1 $486 0 $486 6.2831853071796004 $204 $487 forward 7 unknown #
vertex $-1 $207 $488 #
ellipse-curve $-1 -29.583337142800701 -47.252913537722797 17.490538409666385 0 -0.83867057594974714 0.54463902268945019 2 0 0 1 I I #
face $-1 $-1 $343 $45 $-1 $489 forward single #
loop $-1 $-1 $490 $208 #
plane-surface $-1 0 -50.682347509678486 0 0 1 0 0 0 1 forward_v I I I I #
coedge $-1 $491 $492 $493 $494 reversed $209 $-1 #
coedge $-1 $495 $211 $213 $341 forward $131 $-1 #
coedge $-1 $211 $495 $491 $496 forward $131 $-1 #
coedge $-1 $493 $214 $211 $338 forward $343 $-1 #
edge $-1 $345 -26.020696483082553 $497 -7.5258269814883327 $337 $498 forward 7 unknown #
coedge $-1 $499 $500 $212 $340 forward $332 $-1 #
edge $-1 $501 -35.614642275954239 $344 -25.052911497872682 $339 $502 forward 7 unknown #
edge $-1 $345 -12.593419968407741 $501 -1.2808562293387176e-014 $213 $503 forward 7 unknown #
coedge $-1 $214 $493 $499 $504 forward $343 $-1 #
loop $-1 $-1 $493 $331 #
vertex $-1 $340 $505 #
vertex $-1 $215 $506 #
straight-curve $-1 42.793958215367994 -89.583539513402044 22.771403798707169 0 1 0 I I #
coedge $-1 $347 $347 $-1 $507 reversed $218 $-1 #
edge $-1 $508 0 $508 6.2831853071796004 $219 $509 forward 7 unknown #
vertex $-1 $222 $510 #
ellipse-curve $-1 29.583337142800687 -47.252913537722797 17.490538409666385 0 -0.83867057594974714 0.54463902268945019 2 0 0 1 I I #
coedge $-1 $351 $351 $-1 $511 reversed $225 $-1 #
edge $-1 $512 0 $512 6.2831853071796004 $226 $513 forward 7 unknown #
vertex $-1 $229 $514 #
ellipse-curve $-1 37.509709786341062 -47.252913537722797 17.490538409666385 0 -0.83867057594974714 0.54463902268945019 2 0 0 1 I I #
face $-1 $-1 $367 $48 $-1 $515 forward single #
loop $-1 $-1 $516 $230 #
plane-surface $-1 0 50.682347509678486 0 0 -1 0 0 0 -1 forward_v I I I I #
coedge $-1 $517 $518 $519 $520 reversed $231 $-1 #
coedge $-1 $521 $233 $235 $365 forward $145 $-1 #
coedge $-1 $233 $521 $517 $522 forward $145 $-1 #
coedge $-1 $519 $236 $233 $362 forward $367 $-1 #
edge $-1 $369 -15.111547241700308 $523 2.8326281121531025 $361 $524 forward 7 unknown #
coedge $-1 $525 $526 $234 $364 forward $356 $-1 #
edge $-1 $527 -82.242283079932179 $368 -65.891592432323449 $363 $528 forward 7 unknown #
edge $-1 $369 81.404187566255928 $527 101.36469501935699 $235 $529 forward 7 unknown #
coedge $-1 $236 $519 $525 $530 forward $367 $-1 #
loop $-1 $-1 $519 $355 #
vertex $-1 $364 $531 #
vertex $-1 $237 $532 #
straight-curve $-1 -21.25100680647391 59.018216283199877 22.771403798707169 0 -1 0 I I #
coedge $-1 $371 $371 $-1 $533 reversed $240 $-1 #
edge $-1 $534 0 $534 6.2831853071796004 $241 $535 forward 7 unknown #
vertex $-1 $244 $536 #
ellipse-curve $-1 -12.278919129547205 44.957909259258116 14.596058474902808 0 0.81915205242281985 0.57357642473473569 1.5 0 0 1 I I #
face $-1 $-1 $537 $50 $-1 $538 reversed single #
loop $-1 $-1 $251 $245 #
plane-surface $-1 0 0 22.771403798707166 0 0 1 1 0 0 forward_v I I I I #
coedge $-1 $539 $540 $541 $542 reversed $246 $-1 #
coedge $-1 $543 $248 $250 $385 forward $154 $-1 #
coedge $-1 $248 $543 $539 $544 forward $154 $-1 #
coedge $-1 $541 $251 $248 $382 forward $376 $-1 #
edge $-1 $388 12.812617318843117 $545 30.756792672696527 $381 $546 forward 7 unknown #
coedge $-1 $547 $548 $249 $384 forward $537 $-1 #
edge $-1 $549 -82.242283079932179 $387 -65.891592432323449 $383 $550 forward 7 unknown #
edge $-1 $388 81.404187566255928 $549 101.36469501935699 $250 $551 forward 7 unknown #
coedge $-1 $251 $541 $547 $552 forward $376 $-1 #
vertex $-1 $252 $553 #
vertex $-1 $252 $554 #
straight-curve $-1 34.597322314612938 59.018216283199877 22.771403798707169 0 -1 0 I I #
coedge $-1 $390 $390 $-1 $555 reversed $255 $-1 #
edge $-1 $556 0 $556 6.2831853071796004 $256 $557 forward 7 unknown #
vertex $-1 $259 $558 #
ellipse-curve $-1 43.569409991539644 44.957909259258116 14.596058474902808 0 0.81915205242281985 0.57357642473473569 1.5 0 0 1 I I #
face $-1 $-1 $275 $39 $-1 $559 reversed single #
loop $-1 $-1 $410 $260 #
plane-surface $-1 0 50.682347509678486 0 0 -1 0 0 0 -1 forward_v I I I I #
coedge $-1 $560 $408 $411 $561 forward $261 $-1 #
coedge $-1 $414 $263 $264 $402 reversed $163 $-1 #
coedge $-1 $408 $560 $263 $400 reversed $261 $-1 #
edge $-1 $415 -22.771403798707166 $562 22.771403798707166 $399 $563 forward 7 unknown #
coedge $-1 $265 $264 $560 $564 forward $105 $-1 #
edge $-1 $406 -76.60023804437391 $562 76.60023804437391 $398 $565 forward 7 unknown #
coedge $-1 $411 $410 $265 $404 reversed $395 $-1 #
edge $-1 $566 -76.60023804437391 $405 76.60023804437391 $403 $567 forward 7 unknown #
vertex $-1 $267 $568 #
vertex $-1 $417 $569 #
straight-curve $-1 76.60023804437391 0 -22.771403798707166 0 -1 0 I I #
coedge $-1 $397 $399 $268 $409 reversed $261 $-1 #
edge $-1 $412 -50.682347509678486 $415 50.682347509678486 $408 $570 forward 7 unknown #
coedge $-1 $403 $269 $274 $418 forward $395 $-1 #
coedge $-1 $269 $403 $397 $561 reversed $395 $-1 #
vertex $-1 $270 $571 #
straight-curve $-1 0 50.682347509678486 22.771403798707166 -1 0 0 I I #
coedge $-1 $271 $398 $273 $417 reversed $163 $-1 #
vertex $-1 $409 $572 #
straight-curve $-1 0 -50.682347509678486 22.771403798707166 1 0 0 I I #
edge $-1 $276 -22.771403798707166 $406 22.771403798707166 $273 $573 forward 7 unknown #
edge $-1 $277 -22.771403798707166 $405 22.771403798707166 $274 $574 forward 7 unknown #
point $-1 76.60023804437391 -50.682347509678486 22.771403798707166 #
point $-1 76.60023804437391 50.682347509678486 22.771403798707166 #
face $-1 $-1 $434 $40 $-1 $575 reversed single #
loop $-1 $-1 $576 $279 #
plane-surface $-1 -97.352146967660957 0 7.6284898350472439 1 0 0 0 0 -1 forward_v I I I I #
coedge $-1 $577 $426 $285 $431 reversed $280 $-1 #
coedge $-1 $283 $282 $576 $578 reversed $109 $-1 #
coedge $-1 $424 $579 $282 $427 forward $280 $-1 #
edge $-1 $580 -10.375954461643516 $429 10.375954461643516 $282 $581 forward 7 unknown #
edge $-1 $290 -10.375954461643516 $582 10.375954461643516 $283 $583 forward 7 unknown #
vertex $-1 $284 $584 #
straight-curve $-1 -76.60023804437391 50.682347509678486 0 0 0 -1 I I #
edge $-1 $435 -50.682347509678486 $429 50.682347509678486 $424 $585 forward 7 unknown #
coedge $-1 $586 $286 $289 $438 reversed $434 $-1 #
coedge $-1 $286 $586 $577 $587 reversed $434 $-1 #
loop $-1 $-1 $286 $421 #
vertex $-1 $287 $588 #
straight-curve $-1 -76.60023804437391 -50.682347509678486 0 0 0 1 I I #
coedge $-1 $289 $288 $589 $590 forward $171 $-1 #
edge $-1 $591 -10.375954461643516 $291 10.375954461643516 $432 $592 forward 7 unknown #
point $-1 -76.600238044373924 50.682347509678486 12.327250554801838 #
point $-1 -76.600238044373924 -50.682347509678486 12.327250554801838 #
face $-1 $-1 $457 $41 $-1 $593 reversed single #
loop $-1 $-1 $594 $293 #
plane-surface $-1 97.352146967660985 0 7.6284898350472439 -1 0 0 0 0 1 forward_v I I I I #
coedge $-1 $448 $595 $596 $597 forward $294 $-1 #
coedge $-1 $594 $598 $296 $446 reversed $442 $-1 #
edge $-1 $599 -50.682347509678486 $600 50.682347509678486 $445 $601 forward 7 unknown #
coedge $-1 $298 $297 $594 $602 reversed $113 $-1 #
coedge $-1 $453 $444 $297 $449 forward $294 $-1 #
edge $-1 $603 -10.375954461643531 $451 10.375954461643531 $297 $604 forward 7 unknown #
edge $-1 $305 -10.375954461643531 $599 10.375954461643531 $298 $605 forward 7 unknown #
vertex $-1 $299 $606 #
straight-curve $-1 76.60023804437391 -50.682347509678486 0 0 0 -1 I I #
coedge $-1 $595 $448 $300 $454 reversed $294 $-1 #
edge $-1 $458 -50.682347509678486 $451 50.682347509678486 $453 $607 forward 7 unknown #
coedge $-1 $608 $301 $304 $460 reversed $457 $-1 #
coedge $-1 $301 $608 $595 $609 reversed $457 $-1 #
loop $-1 $-1 $301 $441 #
vertex $-1 $302 $610 #
straight-curve $-1 76.60023804437391 50.682347509678486 0 0 0 1 I I #
edge $-1 $600 -10.375954461643531 $306 10.375954461643531 $455 $611 forward 7 unknown #
point $-1 76.600238044373924 -50.682347509678486 12.327250554801838 #
point $-1 76.600238044373924 50.682347509678486 12.327250554801838 #
loop $-1 $-1 $316 $308 #
plane-surface $-1 0 -50.682347509678486 0 0 1 0 0 0 1 forward_v I I I I #
coedge $-1 $466 $311 $313 $470 reversed $187 $-1 #
coedge $-1 $311 $465 $612 $613 reversed $187 $-1 #
coedge $-1 $319 $314 $311 $468 forward $309 $-1 #
edge $-1 $471 -45.76005994763495 $614 -38.901192003723558 $467 $615 forward 7 unknown #
coedge $-1 $313 $312 $474 $616 reversed $117 $-1 #
edge $-1 $617 1.2808562293387176e-014 $471 12.593419968407741 $465 $618 forward 7 unknown #
vertex $-1 $315 $619 #
straight-curve $-1 -16.773261732285441 -43.823479565767101 22.771403798707166 -1 0 0 I I #
coedge $-1 $612 $316 $319 $478 reversed $463 $-1 #
coedge $-1 $316 $612 $469 $616 forward $463 $-1 #
vertex $-1 $317 $620 #
straight-curve $-1 -24.299088713773774 -50.682347509678479 47.824315296579847 0 0 1 I I #
straight-curve $-1 -24.299088713773774 -50.682347509678493 12.209673020625601 0 -0.54463902268945019 -0.83867057594974714 I I #
edge $-1 $614 -42.793958215367994 $320 -24.299088713773774 $473 $621 forward 7 unknown #
point $-1 -24.299088713773774 -50.682347509678486 22.771403798707166 #
point $-1 -24.299088713773774 -43.823479565767094 22.771403798707166 #
edge $-1 $622 1 $622 0 $323 $-1 forward 7 unknown #
vertex $-1 $324 $623 #
ellipse-curve $-1 -37.509709786341077 -42.074640389621074 14.127728615836043 0 -0.83867057594974714 0.54463902268945019 2 0 0 1 I I #
point $-1 -35.509709786341077 -47.25291353772279 17.490538409666385 #
edge $-1 $624 1 $624 0 $327 $-1 forward 7 unknown #
vertex $-1 $328 $625 #
ellipse-curve $-1 -29.583337142800701 -42.074640389621074 14.127728615836043 0 -0.83867057594974714 0.54463902268945019 2 0 0 1 I I #
point $-1 -27.583337142800701 -47.25291353772279 17.490538409666385 #
plane-surface $-1 0 0 22.771403798707166 0 0 1 1 0 0 forward_v I I I I #
coedge $-1 $500 $499 $492 $626 forward $332 $-1 #
coedge $-1 $492 $334 $336 $496 reversed $209 $-1 #
coedge $-1 $334 $491 $490 $626 reversed $209 $-1 #
coedge $-1 $342 $337 $334 $494 forward $343 $-1 #
edge $-1 $497 -45.76005994763495 $627 -38.901192003723558 $493 $628 forward 7 unknown #
coedge $-1 $336 $335 $500 $629 reversed $131 $-1 #
edge $-1 $630 1.2808562293387176e-014 $497 12.593419968407741 $491 $631 forward 7 unknown #
vertex $-1 $338 $632 #
straight-curve $-1 16.773261732285441 -43.823479565767101 22.771403798707166 -1 0 0 I I #
coedge $-1 $490 $339 $342 $504 reversed $332 $-1 #
coedge $-1 $339 $490 $495 $629 forward $332 $-1 #
vertex $-1 $340 $633 #
straight-curve $-1 42.793958215367994 -50.682347509678479 47.824315296579847 0 0 1 I I #
straight-curve $-1 42.793958215367994 -50.682347509678493 12.209673020625601 0 -0.54463902268945019 -0.83867057594974714 I I #
edge $-1 $627 24.299088713773774 $344 42.793958215367994 $499 $634 forward 7 unknown #
point $-1 42.793958215367994 -50.682347509678486 22.771403798707166 #
point $-1 42.793958215367994 -43.823479565767094 22.771403798707166 #
edge $-1 $635 1 $635 0 $347 $-1 forward 7 unknown #
vertex $-1 $348 $636 #
ellipse-curve $-1 29.583337142800687 -42.074640389621074 14.127728615836043 0 -0.83867057594974714 0.54463902268945019 2 0 0 1 I I #
point $-1 31.583337142800687 -47.25291353772279 17.490538409666385 #
edge $-1 $637 1 $637 0 $351 $-1 forward 7 unknown #
vertex $-1 $352 $638 #
ellipse-curve $-1 37.509709786341062 -42.074640389621074 14.127728615836043 0 -0.83867057594974714 0.54463902268945019 2 0 0 1 I I #
point $-1 39.509709786341062 -47.25291353772279 17.490538409666385 #
plane-surface $-1 0 0 22.771403798707166 0 0 1 1 0 0 forward_v I I I I #
coedge $-1 $526 $525 $518 $639 forward $356 $-1 #
coedge $-1 $518 $358 $360 $522 reversed $231 $-1 #
coedge $-1 $358 $517 $516 $639 reversed $231 $-1 #
coedge $-1 $366 $361 $358 $520 forward $367 $-1 #
edge $-1 $523 -19.784745274362145 $640 -8.3358687735213906 $519 $641 forward 7 unknown #
coedge $-1 $360 $359 $526 $642 reversed $145 $-1 #
edge $-1 $643 -101.36469501935699 $523 -81.404187566255928 $517 $644 forward 7 unknown #
vertex $-1 $362 $645 #
straight-curve $-1 -6.1394595647736026 39.233471008837739 22.771403798707176 1 0 0 I I #
coedge $-1 $516 $363 $366 $530 reversed $356 $-1 #
coedge $-1 $363 $516 $521 $642 forward $356 $-1 #
vertex $-1 $364 $646 #
straight-curve $-1 -21.25100680647391 50.682347509678486 88.662996231030618 0 0 1 I I #
straight-curve $-1 -21.25100680647391 -7.4580518538511598 89.453811119417892 0 0.57357642473473569 -0.81915205242281985 I I #
edge $-1 $640 3.3068314526205 $368 21.25100680647391 $525 $647 forward 7 unknown #
point $-1 -21.25100680647391 50.682347509678486 22.771403798707166 #
point $-1 -21.25100680647391 39.233471008837732 22.771403798707169 #
edge $-1 $648 1 $648 0 $371 $-1 forward 7 unknown #
vertex $-1 $372 $649 #
ellipse-curve $-1 -12.278919129547205 40.1873304013899 11.255663297819391 0 0.81915205242281985 0.57357642473473569 1.5 0 0 1 I I #
point $-1 -10.778919129547205 44.957909259258116 14.596058474902811 #
loop $-1 $-1 $383 $375 #
plane-surface $-1 0 50.682347509678486 0 0 -1 0 0 0 -1 forward_v I I I I #
coedge $-1 $540 $378 $380 $544 reversed $246 $-1 #
coedge $-1 $378 $539 $650 $651 reversed $246 $-1 #
coedge $-1 $386 $381 $378 $542 forward $376 $-1 #
edge $-1 $545 -19.784745274362145 $652 -8.3358687735213906 $541 $653 forward 7 unknown #
coedge $-1 $380 $379 $548 $654 reversed $154 $-1 #
edge $-1 $655 -101.36469501935699 $545 -81.404187566255928 $539 $656 forward 7 unknown #
vertex $-1 $382 $657 #
straight-curve $-1 21.784704995769822 39.233471008837739 22.771403798707176 1 0 0 I I #
coedge $-1 $650 $383 $386 $552 reversed $537 $-1 #
coedge $-1 $383 $650 $543 $654 forward $537 $-1 #
vertex $-1 $384 $658 #
straight-curve $-1 34.597322314612938 50.682347509678486 88.662996231030618 0 0 1 I I #
straight-curve $-1 34.597322314612938 -7.4580518538511598 89.453811119417892 0 0.57357642473473569 -0.81915205242281985 I I #
edge $-1 $652 -52.541497668466349 $387 -34.597322314612938 $547 $659 forward 7 unknown #
point $-1 34.597322314612938 50.682347509678486 22.771403798707166 #
point $-1 34.597322314612938 39.233471008837732 22.771403798707169 #
edge $-1 $660 1 $660 0 $390 $-1 forward 7 unknown #
vertex $-1 $391 $661 #
ellipse-curve $-1 43.569409991539644 40.1873304013899 11.255663297819391 0 0.81915205242281985 0.57357642473473569 1.5 0 0 1 I I #
point $-1 45.069409991539644 44.957909259258116 14.596058474902811 #
plane-surface $-1 76.60023804437391 0 0 -1 0 0 0 0 1 forward_v I I I I #
coedge $-1 $399 $397 $401 $564 reversed $261 $-1 #
edge $-1 $412 -22.771403798707166 $566 22.771403798707166 $411 $662 forward 7 unknown #
vertex $-1 $564 $663 #
straight-curve $-1 -76.60023804437391 -50.682347509678486 0 0 0 -1 I I #
edge $-1 $562 -50.682347509678486 $566 50.682347509678486 $560 $664 forward 7 unknown #
straight-curve $-1 0 -50.682347509678486 -22.771403798707166 -1 0 0 I I #
vertex $-1 $404 $665 #
straight-curve $-1 0 50.682347509678486 -22.771403798707166 1 0 0 I I #
point $-1 76.60023804437391 50.682347509678486 -22.771403798707166 #
point $-1 76.60023804437391 -50.682347509678486 -22.771403798707166 #
straight-curve $-1 -76.60023804437391 0 22.771403798707166 0 -1 0 I I #
point $-1 -76.60023804437391 50.682347509678486 22.771403798707166 #
point $-1 -76.60023804437391 -50.682347509678486 22.771403798707166 #
straight-curve $-1 76.60023804437391 -50.682347509678486 0 0 0 -1 I I #
straight-curve $-1 76.60023804437391 50.682347509678486 0 0 0 -1 I I #
plane-surface $-1 0 -50.682347509678486 0 0 1 0 0 0 1 forward_v I I I I #
coedge $-1 $666 $589 $425 $578 forward $422 $-1 #
coedge $-1 $579 $424 $433 $587 forward $280 $-1 #
edge $-1 $582 -4.6987607197545938 $580 4.6987607197545938 $425 $667 forward 7 unknown #
coedge $-1 $426 $577 $666 $668 forward $280 $-1 #
vertex $-1 $427 $669 #
straight-curve $-1 -86.976192506017441 50.682347509678486 2.9297291152926501 1 0 0 I I #
vertex $-1 $428 $670 #
straight-curve $-1 -86.976192506017441 50.682347509678486 12.327250554801838 -1 0 0 I I #
point $-1 -76.600238044373924 50.682347509678486 2.9297291152926501 #
straight-curve $-1 -76.60023804437391 0 2.9297291152926501 0 1 0 I I #
coedge $-1 $433 $432 $671 $672 forward $434 $-1 #
edge $-1 $435 -10.375954461643516 $673 10.375954461643516 $433 $674 forward 7 unknown #
point $-1 -76.600238044373924 -50.682347509678486 2.9297291152926501 #
coedge $-1 $576 $671 $437 $590 reversed $422 $-1 #
edge $-1 $582 -50.682347509678486 $591 50.682347509678486 $589 $675 forward 7 unknown #
vertex $-1 $590 $676 #
straight-curve $-1 -86.976192506017441 -50.682347509678486 12.327250554801838 1 0 0 I I #
plane-surface $-1 0 50.682347509678486 0 0 -1 0 0 0 -1 forward_v I I I I #
coedge $-1 $596 $445 $447 $602 forward $442 $-1 #
coedge $-1 $444 $453 $456 $609 forward $294 $-1 #
coedge $-1 $598 $594 $444 $597 reversed $442 $-1 #
edge $-1 $677 -50.682347509678486 $603 50.682347509678486 $596 $678 forward 7 unknown #
coedge $-1 $445 $596 $608 $679 reversed $442 $-1 #
vertex $-1 $446 $680 #
vertex $-1 $446 $681 #
straight-curve $-1 97.352146967660985 0 12.327250554801838 0 1 0 I I #
edge $-1 $599 -4.6987607197545938 $603 4.6987607197545938 $594 $682 forward 7 unknown #
vertex $-1 $602 $683 #
straight-curve $-1 86.976192506017455 -50.682347509678486 2.9297291152926501 -1 0 0 I I #
straight-curve $-1 86.976192506017455 -50.682347509678486 12.327250554801838 1 0 0 I I #
point $-1 76.600238044373924 -50.682347509678486 2.9297291152926501 #
straight-curve $-1 76.60023804437391 0 2.9297291152926501 0 -1 0 I I #
coedge $-1 $456 $455 $598 $679 forward $457 $-1 #
edge $-1 $458 -10.375954461643531 $677 10.375954461643531 $456 $684 forward 7 unknown #
point $-1 76.600238044373924 50.682347509678486 2.9297291152926501 #
straight-curve $-1 86.976192506017455 50.682347509678486 12.327250554801838 -1 0 0 I I #
coedge $-1 $474 $473 $466 $613 forward $463 $-1 #
edge $-1 $614 25.052911497872682 $617 35.614642275954239 $612 $685 forward 7 unknown #
vertex $-1 $478 $686 #
straight-curve $-1 -42.793958215367994 -89.583539513402044 22.771403798707169 0 -1 0 I I #
edge $-1 $617 -26.020696483082553 $475 -7.5258269814883327 $474 $687 forward 7 unknown #
vertex $-1 $616 $688 #
straight-curve $-1 -42.793958215367994 -50.682347509678493 12.209673020625601 0 0.54463902268945019 0.83867057594974714 I I #
point $-1 -42.793958215367994 -43.823479565767094 22.771403798707166 #
point $-1 -24.299088713773774 -50.682347509678486 12.209673020625612 #
straight-curve $-1 0 -50.682347509678486 22.771403798707166 1 0 0 I I #
vertex $-1 $481 $689 #
point $-1 -35.509709786341077 -42.074640389621074 14.127728615836043 #
vertex $-1 $485 $690 #
point $-1 -27.583337142800701 -42.074640389621074 14.127728615836043 #
edge $-1 $627 25.052911497872682 $630 35.614642275954239 $490 $691 forward 7 unknown #
vertex $-1 $504 $692 #
straight-curve $-1 24.299088713773774 -89.583539513402044 22.771403798707169 0 -1 0 I I #
edge $-1 $630 7.5258269814883327 $501 26.020696483082553 $500 $693 forward 7 unknown #
vertex $-1 $629 $694 #
straight-curve $-1 24.299088713773774 -50.682347509678493 12.209673020625601 0 0.54463902268945019 0.83867057594974714 I I #
point $-1 24.299088713773774 -43.823479565767094 22.771403798707166 #
point $-1 42.793958215367994 -50.682347509678486 12.209673020625612 #
straight-curve $-1 0 -50.682347509678486 22.771403798707166 1 0 0 I I #
vertex $-1 $507 $695 #
point $-1 31.583337142800687 -42.074640389621074 14.127728615836043 #
vertex $-1 $511 $696 #
point $-1 39.509709786341062 -42.074640389621074 14.127728615836043 #
edge $-1 $640 65.891592432323449 $643 82.242283079932179 $516 $697 forward 7 unknown #
vertex $-1 $530 $698 #
straight-curve $-1 -3.3068314526205 59.018216283199877 22.771403798707169 0 1 0 I I #
edge $-1 $643 -2.8326281121531025 $527 15.111547241700308 $526 $699 forward 7 unknown #
vertex $-1 $642 $700 #
straight-curve $-1 -3.3068314526205 -7.4580518538511598 89.453811119417892 0 -0.57357642473473569 0.81915205242281985 I I #
point $-1 -3.3068314526205 39.233471008837732 22.771403798707169 #
point $-1 -21.25100680647391 50.682347509678479 6.4207131510984397 #
straight-curve $-1 0 50.682347509678486 22.771403798707166 -1 0 0 I I #
vertex $-1 $533 $701 #
point $-1 -10.778919129547205 40.1873304013899 11.255663297819391 #
coedge $-1 $548 $547 $540 $651 forward $537 $-1 #
edge $-1 $652 65.891592432323449 $655 82.242283079932179 $650 $702 forward 7 unknown #
vertex $-1 $552 $703 #
straight-curve $-1 52.541497668466349 59.018216283199877 22.771403798707169 0 1 0 I I #
edge $-1 $655 -30.756792672696527 $549 -12.812617318843117 $548 $704 forward 7 unknown #
vertex $-1 $654 $705 #
straight-curve $-1 52.541497668466349 -7.4580518538511598 89.453811119417892 0 -0.57357642473473569 0.81915205242281985 I I #
point $-1 52.541497668466349 39.233471008837732 22.771403798707169 #
point $-1 34.597322314612938 50.682347509678479 6.4207131510984397 #
straight-curve $-1 0 50.682347509678486 22.771403798707166 -1 0 0 I I #
vertex $-1 $555 $706 #
point $-1 45.069409991539644 40.1873304013899 11.255663297819391 #
straight-curve $-1 -76.60023804437391 50.682347509678486 0 0 0 -1 I I #
point $-1 -76.60023804437391 -50.682347509678486 -22.771403798707166 #
straight-curve $-1 -76.60023804437391 0 -22.771403798707166 0 1 0 I I #
point $-1 -76.60023804437391 50.682347509678486 -22.771403798707166 #
coedge $-1 $671 $576 $579 $668 reversed $422 $-1 #
straight-curve $-1 -97.352146967660957 50.682347509678486 7.6284898350472439 0 0 -1 I I #
edge $-1 $673 -50.682347509678486 $580 50.682347509678486 $666 $707 forward 7 unknown #
point $-1 -97.352146967660957 50.682347509678486 2.9297291152926501 #
point $-1 -97.352146967660957 50.682347509678486 12.327250554801838 #
coedge $-1 $589 $666 $586 $672 reversed $422 $-1 #
edge $-1 $591 -4.6987607197545938 $673 4.6987607197545938 $671 $708 forward 7 unknown #
vertex $-1 $668 $709 #
straight-curve $-1 -86.976192506017441 -50.682347509678486 2.9297291152926501 -1 0 0 I I #
straight-curve $-1 -97.352146967660957 0 12.327250554801838 0 -1 0 I I #
point $-1 -97.352146967660957 -50.682347509678486 12.327250554801838 #
vertex $-1 $597 $710 #
straight-curve $-1 97.352146967660985 0 2.9297291152926501 0 -1 0 I I #
edge $-1 $600 -4.6987607197545938 $677 4.6987607197545938 $598 $711 forward 7 unknown #
point $-1 97.352146967660985 -50.682347509678486 12.327250554801838 #
point $-1 97.352146967660985 50.682347509678486 12.327250554801838 #
straight-curve $-1 97.352146967660985 -50.682347509678486 7.6284898350472439 0 0 -1 I I #
point $-1 97.352146967660985 -50.682347509678486 2.9297291152926501 #
straight-curve $-1 86.976192506017455 50.682347509678486 2.9297291152926501 1 0 0 I I #
straight-curve $-1 -42.793958215367994 -50.682347509678479 47.824315296579847 0 0 -1 I I #
point $-1 -42.793958215367994 -50.682347509678486 22.771403798707166 #
straight-curve $-1 -16.773261732285441 -50.682347509678486 12.209673020625615 1 0 0 I I #
point $-1 -42.793958215367994 -50.682347509678486 12.209673020625612 #
point $-1 -37.509709786341077 -40.397299237721576 13.038450570457142 #
point $-1 -29.583337142800701 -40.397299237721576 13.038450570457142 #
straight-curve $-1 24.299088713773774 -50.682347509678479 47.824315296579847 0 0 -1 I I #
point $-1 24.299088713773774 -50.682347509678486 22.771403798707166 #
straight-curve $-1 16.773261732285441 -50.682347509678486 12.209673020625615 1 0 0 I I #
point $-1 24.299088713773774 -50.682347509678486 12.209673020625612 #
point $-1 29.583337142800687 -40.397299237721576 13.038450570457142 #
point $-1 37.509709786341062 -40.397299237721576 13.038450570457142 #
straight-curve $-1 -3.3068314526205 50.682347509678486 88.662996231030618 0 0 -1 I I #
point $-1 -3.3068314526205 50.682347509678486 22.771403798707166 #
straight-curve $-1 -6.1394595647736026 50.682347509678493 6.4207131510984325 -1 0 0 I I #
point $-1 -3.3068314526205 50.682347509678479 6.4207131510984397 #
point $-1 -12.278919129547205 38.958602322755667 10.395298660717286 #
straight-curve $-1 52.541497668466349 50.682347509678486 88.662996231030618 0 0 -1 I I #
point $-1 52.541497668466349 50.682347509678486 22.771403798707166 #
straight-curve $-1 21.784704995769822 50.682347509678493 6.4207131510984325 -1 0 0 I I #
point $-1 52.541497668466349 50.682347509678479 6.4207131510984397 #
point $-1 43.569409991539644 38.958602322755667 10.395298660717286 #
straight-curve $-1 -97.352146967660957 0 2.9297291152926501 0 1 0 I I #
straight-curve $-1 -97.352146967660957 -50.682347509678486 7.6284898350472439 0 0 -1 I I #
point $-1 -97.352146967660957 -50.682347509678486 2.9297291152926501 #
point $-1 97.352146967660985 50.682347509678486 2.9297291152926501 #
straight-curve $-1 97.352146967660985 50.682347509678486 7.6284898350472439 0 0 -1 I I #
End-of-ACIS-data 