500 0 11 0           
7 Unknown 11 ACIS 5.0 NT 24 Fri Mar 26 18:55:57 1999 
-1 9.9999999999999995e-007 1e-010 
body $-1 $11 $-1 $12 #
body $-1 $13 $-1 $14 #
body $-1 $15 $-1 $16 #
body $-1 $17 $-1 $18 #
body $-1 $19 $-1 $20 #
body $-1 $21 $-1 $22 #
body $-1 $23 $-1 $24 #
body $-1 $25 $-1 $26 #
body $-1 $27 $-1 $28 #
body $-1 $29 $-1 $30 #
body $-1 $31 $-1 $32 #
lump $-1 $-1 $33 $0 #
transform $-1 1 0 0 0 1 0 0 0 1 79.278542435987418 38.582933694645462 9.397341142925093 1 rotate no_reflect no_shear #
lump $-1 $-1 $34 $1 #
transform $-1 1 0 0 0 1 0 0 0 1 79.278542435987418 38.582933694645462 9.397341142925093 1 rotate no_reflect no_shear #
lump $-1 $-1 $35 $2 #
transform $-1 1 0 0 0 1 0 0 0 1 79.278542435987418 38.582933694645462 9.397341142925093 1 rotate no_reflect no_shear #
lump $-1 $-1 $36 $3 #
transform $-1 1 0 0 0 1 0 0 0 1 79.278542435987418 38.582933694645462 9.397341142925093 1 rotate no_reflect no_shear #
lump $-1 $-1 $37 $4 #
transform $-1 1 0 0 0 1 0 0 0 1 79.278542435987418 38.582933694645462 9.397341142925093 1 rotate no_reflect no_shear #
lump $-1 $-1 $38 $5 #
transform $-1 1 0 0 0 1 0 0 0 1 79.278542435987418 38.582933694645462 9.397341142925093 1 rotate no_reflect no_shear #
lump $-1 $-1 $39 $6 #
transform $-1 1 0 0 0 1 0 0 0 1 79.278542435987418 38.582933694645462 9.397341142925093 1 rotate no_reflect no_shear #
lump $-1 $-1 $40 $7 #
transform $-1 1 0 0 0 1 0 0 0 1 79.278542435987418 38.582933694645462 9.397341142925093 1 rotate no_reflect no_shear #
lump $-1 $-1 $41 $8 #
transform $-1 1 0 0 0 1 0 0 0 1 79.278542435987418 38.582933694645462 9.397341142925093 1 rotate no_reflect no_shear #
lump $-1 $-1 $42 $9 #
transform $-1 1 0 0 0 1 0 0 0 1 79.278542435987418 38.582933694645462 9.397341142925093 1 rotate no_reflect no_shear #
lump $-1 $-1 $43 $10 #
transform $-1 1 0 0 0 1 0 0 0 1 79.278542435987418 38.582933694645462 9.397341142925093 1 rotate no_reflect no_shear #
shell $-1 $-1 $-1 $44 $-1 $11 #
shell $-1 $-1 $-1 $45 $-1 $13 #
shell $-1 $-1 $-1 $46 $-1 $15 #
shell $-1 $-1 $-1 $47 $-1 $17 #
shell $-1 $-1 $-1 $48 $-1 $19 #
shell $-1 $-1 $-1 $49 $-1 $21 #
shell $-1 $-1 $-1 $50 $-1 $23 #
shell $-1 $-1 $-1 $51 $-1 $25 #
shell $-1 $-1 $-1 $52 $-1 $27 #
shell $-1 $-1 $-1 $53 $-1 $29 #
shell $-1 $-1 $-1 $54 $-1 $31 #
face $-1 $55 $56 $33 $-1 $57 forward single #
face $-1 $58 $59 $34 $-1 $60 reversed single #
face $-1 $61 $62 $35 $-1 $63 reversed single #
face $-1 $64 $65 $36 $-1 $66 forward single #
face $-1 $67 $68 $37 $-1 $69 forward single #
face $-1 $70 $71 $38 $-1 $72 reversed single #
face $-1 $73 $74 $39 $-1 $75 forward single #
face $-1 $76 $77 $40 $-1 $78 forward single #
face $-1 $79 $80 $41 $-1 $81 reversed single #
face $-1 $82 $83 $42 $-1 $84 forward single #
face $-1 $85 $86 $43 $-1 $87 forward single #
face $-1 $88 $89 $33 $-1 $90 reversed single #
loop $-1 $-1 $91 $44 #
plane-surface $-1 0 0 9.397341142925093 0 0 1 1 0 0 forward_v I I I I #
face $-1 $92 $93 $34 $-1 $94 reversed single #
loop $-1 $-1 $95 $45 #
plane-surface $-1 -73.57638370085121 0 6.397341142925093 0 0 1 1 0 0 forward_v I I I I #
face $-1 $96 $97 $35 $-1 $98 reversed single #
loop $-1 $-1 $99 $46 #
plane-surface $-1 -26.257660121974769 -122.60538855838708 139.30650442052598 -1 0 0 0 -0.52991927123019833 0.84804809178421925 forward_v I I I I #
face $-1 $100 $101 $36 $-1 $102 forward single #
loop $-1 $103 $104 $47 #
cone-surface $-1 -55.983777867503505 -34.428216273885305 6.3036401267225033 0 0.52991927123019833 -0.84804809178421925 1.5 0 0 1 I I 0 1 1.5 forward I I I I #
face $-1 $105 $106 $37 $-1 $107 forward single #
loop $-1 $108 $109 $48 #
cone-surface $-1 -38.148107220186262 -34.428216273885305 6.3036401267225033 0 0.52991927123019833 -0.84804809178421925 1.5 0 0 1 I I 0 1 1.5 forward I I I I #
face $-1 $110 $111 $38 $-1 $112 reversed single #
loop $-1 $-1 $113 $49 #
plane-surface $-1 -52.716259421363027 -12.042429600212785 61.926438641189307 0 0.75470958851134928 0.65605901945558964 1 0 0 forward_v I I I I #
face $-1 $114 $115 $39 $-1 $116 forward single #
loop $-1 $117 $118 $50 #
cone-surface $-1 -59.212530368942446 35.550194028071751 6.063584477963202 0 -0.75470958851134928 -0.65605901945558964 1 0 0 1 I I 0 1 1 forward I I I I #
face $-1 $119 $120 $40 $-1 $121 forward single #
loop $-1 $122 $123 $51 #
cone-surface $-1 -46.219988473783616 35.550194028071751 6.063584477963202 0 -0.75470958851134928 -0.65605901945558964 1 0 0 1 I I 0 1 1 forward I I I I #
face $-1 $124 $125 $41 $-1 $126 reversed single #
loop $-1 $-1 $127 $52 #
plane-surface $-1 5.7021587351362157 107.62212267907442 165.94924427003383 1 0 0 0 -0.75470958851134928 -0.65605901945558964 forward_v I I I I #
face $-1 $128 $129 $42 $-1 $130 forward single #
loop $-1 $131 $132 $53 #
cone-surface $-1 14.363853331908757 35.550194028071751 6.063584477963202 0 -0.75470958851134928 -0.65605901945558964 1 0 0 1 I I 0 1 1 forward I I I I #
face $-1 $133 $134 $43 $-1 $135 forward single #
loop $-1 $136 $137 $54 #
cone-surface $-1 27.356395227067594 35.550194028071751 6.063584477963202 0 -0.75470958851134928 -0.65605901945558964 1 0 0 1 I I 0 1 1 forward I I I I #
face $-1 $138 $139 $33 $-1 $140 reversed single #
loop $-1 $-1 $141 $55 #
plane-surface $-1 0 0 -9.397341142925093 0 0 1 1 0 0 forward_v I I I I #
coedge $-1 $142 $143 $144 $145 forward $56 $-1 #
face $-1 $146 $147 $34 $-1 $148 reversed single #
loop $-1 $-1 $149 $58 #
plane-surface $-1 -67.874224965715001 0 7.897341142925093 -1 0 0 0 0 1 forward_v I I I I #
coedge $-1 $150 $151 $152 $153 forward $59 $-1 #
face $-1 $154 $155 $35 $-1 $156 forward single #
loop $-1 $-1 $157 $61 #
plane-surface $-1 -47.065942543844884 -38.582933694645462 4.8424711559792115 0 -0.52991927123019833 0.84804809178421925 1 0 0 forward_v I I I I #
coedge $-1 $158 $159 $160 $161 reversed $62 $-1 #
face $-1 $-1 $162 $36 $-1 $163 forward single #
loop $-1 $164 $165 $64 #
cone-surface $-1 -55.983777867503505 -33.520717190489535 4.8513380351546882 0 0.52991927123019833 -0.84804809178421925 0.75 0 0 1 I I -0.70710678118654757 0.70710678118654757 0.75 forward I I I I #
loop $-1 $-1 $166 $47 #
coedge $-1 $104 $104 $167 $168 reversed $65 $-1 #
face $-1 $-1 $169 $37 $-1 $170 forward single #
loop $-1 $171 $172 $67 #
cone-surface $-1 -38.148107220186262 -33.520717190489535 4.8513380351546882 0 0.52991927123019833 -0.84804809178421925 0.75 0 0 1 I I -0.70710678118654757 0.70710678118654757 0.75 forward I I I I #
loop $-1 $-1 $173 $48 #
coedge $-1 $109 $109 $174 $175 reversed $68 $-1 #
face $-1 $176 $177 $38 $-1 $178 forward single #
loop $-1 $-1 $179 $70 #
plane-surface $-1 -37.558293877011053 107.62212267907442 165.94924427003383 -1 0 0 0 0.75470958851134928 0.65605901945558964 forward_v I I I I #
coedge $-1 $180 $181 $182 $183 reversed $71 $-1 #
face $-1 $-1 $184 $39 $-1 $185 forward single #
loop $-1 $186 $187 $73 #
cone-surface $-1 -59.212530368942446 34.621357894892114 5.2561595663879714 0 -0.75470958851134928 -0.65605901945558964 0.5 0 0 1 I I -0.70710678118654691 0.70710678118654813 0.5 forward I I I I #
loop $-1 $-1 $188 $50 #
coedge $-1 $118 $118 $189 $190 reversed $74 $-1 #
face $-1 $-1 $191 $40 $-1 $192 forward single #
loop $-1 $193 $194 $76 #
cone-surface $-1 -46.219988473783616 34.621357894892114 5.2561595663879714 0 -0.75470958851134928 -0.65605901945558964 0.5 0 0 1 I I -0.70710678118654691 0.70710678118654813 0.5 forward I I I I #
loop $-1 $-1 $195 $51 #
coedge $-1 $123 $123 $196 $197 reversed $77 $-1 #
face $-1 $198 $199 $41 $-1 $200 reversed single #
loop $-1 $-1 $201 $79 #
plane-surface $-1 20.86012427948819 -12.042429600212785 61.926438641189307 0 0.75470958851134928 0.65605901945558964 1 0 0 forward_v I I I I #
coedge $-1 $202 $203 $204 $205 reversed $80 $-1 #
face $-1 $-1 $206 $42 $-1 $207 forward single #
loop $-1 $208 $209 $82 #
cone-surface $-1 14.363853331908757 34.621357894892114 5.2561595663879714 0 -0.75470958851134928 -0.65605901945558964 0.5 0 0 1 I I -0.70710678118654691 0.70710678118654813 0.5 forward I I I I #
loop $-1 $-1 $210 $53 #
coedge $-1 $132 $132 $211 $212 reversed $83 $-1 #
face $-1 $-1 $213 $43 $-1 $214 forward single #
loop $-1 $215 $216 $85 #
cone-surface $-1 27.356395227067594 34.621357894892114 5.2561595663879714 0 -0.75470958851134928 -0.65605901945558964 0.5 0 0 1 I I -0.70710678118654691 0.70710678118654813 0.5 forward I I I I #
loop $-1 $-1 $217 $54 #
coedge $-1 $137 $137 $218 $219 reversed $86 $-1 #
face $-1 $220 $221 $33 $-1 $222 reversed single #
loop $-1 $-1 $223 $88 #
plane-surface $-1 0 -38.582933694645462 0 0 1 0 0 0 1 forward_v I I I I #
coedge $-1 $224 $225 $226 $227 forward $89 $-1 #
coedge $-1 $228 $91 $229 $230 forward $56 $-1 #
coedge $-1 $91 $228 $231 $232 forward $56 $-1 #
coedge $-1 $233 $234 $91 $145 reversed $235 $-1 #
edge $-1 $236 -38.582933694645462 $237 38.582933694645462 $144 $238 forward 7 unknown #
face $-1 $239 $240 $34 $-1 $241 reversed single #
loop $-1 $-1 $242 $92 #
plane-surface $-1 0 38.582933694645462 0 0 -1 0 0 0 -1 forward_v I I I I #
coedge $-1 $243 $244 $245 $246 reversed $93 $-1 #
coedge $-1 $247 $95 $248 $249 reversed $59 $-1 #
coedge $-1 $95 $247 $250 $251 reversed $59 $-1 #
coedge $-1 $244 $243 $95 $153 reversed $93 $-1 #
edge $-1 $252 -38.582933694645462 $253 38.582933694645462 $152 $254 forward 7 unknown #
face $-1 $255 $256 $35 $-1 $257 forward single #
loop $-1 $-1 $258 $96 #
plane-surface $-1 -67.874224965715001 0 7.897341142925093 -1 0 0 0 0 1 forward_v I I I I #
coedge $-1 $259 $260 $261 $262 reversed $97 $-1 #
coedge $-1 $159 $99 $263 $264 reversed $62 $-1 #
coedge $-1 $99 $158 $259 $265 reversed $62 $-1 #
coedge $-1 $261 $266 $99 $161 forward $256 $-1 #
edge $-1 $267 22.719760584548077 $268 30.009076166122156 $160 $269 forward 7 unknown #
loop $-1 $-1 $167 $100 #
plane-surface $-1 -47.065942543844884 -38.582933694645462 4.8424711559792115 0 -0.52991927123019833 0.84804809178421925 1 0 0 forward_v I I I I #
loop $-1 $-1 $270 $64 #
coedge $-1 $165 $165 $166 $271 reversed $101 $-1 #
coedge $-1 $166 $166 $165 $271 forward $103 $-1 #
coedge $-1 $167 $167 $104 $168 forward $162 $-1 #
edge $-1 $272 1.5688762029662652e-015 $272 6.2831853071796022 $167 $273 forward 7 unknown #
loop $-1 $-1 $174 $105 #
plane-surface $-1 -47.065942543844884 -38.582933694645462 4.8424711559792115 0 -0.52991927123019833 0.84804809178421925 1 0 0 forward_v I I I I #
loop $-1 $-1 $274 $67 #
coedge $-1 $172 $172 $173 $275 reversed $106 $-1 #
coedge $-1 $173 $173 $172 $275 forward $108 $-1 #
coedge $-1 $174 $174 $109 $175 forward $169 $-1 #
edge $-1 $276 1.5688762029662652e-015 $276 6.2831853071796022 $174 $277 forward 7 unknown #
face $-1 $278 $279 $38 $-1 $280 reversed single #
loop $-1 $-1 $182 $110 #
plane-surface $-1 0 0 9.397341142925093 0 0 1 1 0 0 forward_v I I I I #
coedge $-1 $281 $282 $283 $284 reversed $111 $-1 #
coedge $-1 $285 $113 $286 $287 reversed $71 $-1 #
coedge $-1 $113 $285 $281 $288 forward $71 $-1 #
coedge $-1 $283 $289 $113 $183 forward $177 $-1 #
edge $-1 $290 -41.516095255033491 $291 -11.200164166329539 $182 $292 forward 7 unknown #
loop $-1 $-1 $189 $114 #
plane-surface $-1 -52.716259421363027 -12.042429600212785 61.926438641189307 0 0.75470958851134928 0.65605901945558964 1 0 0 forward_v I I I I #
loop $-1 $-1 $293 $73 #
coedge $-1 $187 $187 $188 $294 reversed $115 $-1 #
coedge $-1 $188 $188 $187 $294 forward $117 $-1 #
coedge $-1 $189 $189 $118 $190 forward $184 $-1 #
edge $-1 $295 -5.4776603943590583e-016 $295 6.2831853071795996 $189 $296 forward 7 unknown #
loop $-1 $-1 $196 $119 #
plane-surface $-1 -52.716259421363027 -12.042429600212785 61.926438641189307 0 0.75470958851134928 0.65605901945558964 1 0 0 forward_v I I I I #
loop $-1 $-1 $297 $76 #
coedge $-1 $194 $194 $195 $298 reversed $120 $-1 #
coedge $-1 $195 $195 $194 $298 forward $122 $-1 #
coedge $-1 $196 $196 $123 $197 forward $191 $-1 #
edge $-1 $299 -5.4776603943590583e-016 $299 6.2831853071795996 $196 $300 forward 7 unknown #
face $-1 $301 $302 $41 $-1 $303 forward single #
loop $-1 $-1 $304 $124 #
plane-surface $-1 36.018089823840164 107.62212267907442 165.94924427003383 -1 0 0 0 0.75470958851134928 0.65605901945558964 forward_v I I I I #
coedge $-1 $305 $306 $307 $308 reversed $125 $-1 #
coedge $-1 $203 $127 $309 $310 reversed $80 $-1 #
coedge $-1 $127 $202 $305 $311 reversed $80 $-1 #
coedge $-1 $307 $312 $127 $205 forward $302 $-1 #
edge $-1 $313 15.22812764489175 $314 20.190644300191174 $204 $315 forward 7 unknown #
loop $-1 $-1 $211 $128 #
plane-surface $-1 20.86012427948819 -12.042429600212785 61.926438641189307 0 0.75470958851134928 0.65605901945558964 1 0 0 forward_v I I I I #
loop $-1 $-1 $316 $82 #
coedge $-1 $209 $209 $210 $317 reversed $129 $-1 #
coedge $-1 $210 $210 $209 $317 forward $131 $-1 #
coedge $-1 $211 $211 $132 $212 forward $206 $-1 #
edge $-1 $318 -5.4776603943590583e-016 $318 6.2831853071795996 $211 $319 forward 7 unknown #
loop $-1 $-1 $218 $133 #
plane-surface $-1 20.86012427948819 -12.042429600212785 61.926438641189307 0 0.75470958851134928 0.65605901945558964 1 0 0 forward_v I I I I #
loop $-1 $-1 $320 $85 #
coedge $-1 $216 $216 $217 $321 reversed $134 $-1 #
coedge $-1 $217 $217 $216 $321 forward $136 $-1 #
coedge $-1 $218 $218 $137 $219 forward $213 $-1 #
edge $-1 $322 -5.4776603943590583e-016 $322 6.2831853071795996 $218 $323 forward 7 unknown #
face $-1 $324 $325 $33 $-1 $326 reversed single #
loop $-1 $-1 $327 $138 #
plane-surface $-1 -79.278542435987418 0 0 1 0 0 0 0 -1 forward_v I I I I #
coedge $-1 $328 $231 $329 $330 forward $139 $-1 #
coedge $-1 $331 $141 $328 $332 forward $89 $-1 #
coedge $-1 $141 $331 $333 $334 forward $89 $-1 #
coedge $-1 $234 $233 $141 $227 reversed $235 $-1 #
edge $-1 $335 -38.582933694645462 $336 38.582933694645462 $226 $337 forward 7 unknown #
coedge $-1 $143 $142 $338 $339 forward $56 $-1 #
coedge $-1 $340 $341 $142 $230 reversed $325 $-1 #
edge $-1 $237 -79.278542435987418 $342 79.278542435987418 $229 $343 forward 7 unknown #
coedge $-1 $223 $344 $143 $232 reversed $139 $-1 #
edge $-1 $345 -79.278542435987418 $236 79.278542435987418 $231 $346 forward 7 unknown #
coedge $-1 $226 $144 $344 $347 forward $235 $-1 #
coedge $-1 $144 $226 $340 $348 reversed $235 $-1 #
loop $-1 $-1 $233 $324 #
vertex $-1 $145 $349 #
vertex $-1 $145 $350 #
straight-curve $-1 79.278542435987418 0 9.397341142925093 0 1 0 I I #
face $-1 $351 $352 $34 $-1 $353 forward single #
loop $-1 $-1 $354 $146 #
plane-surface $-1 -79.278542435987418 0 0 1 0 0 0 0 -1 forward_v I I I I #
coedge $-1 $250 $355 $244 $356 forward $147 $-1 #
coedge $-1 $152 $149 $357 $358 reversed $93 $-1 #
coedge $-1 $149 $152 $242 $356 reversed $93 $-1 #
coedge $-1 $359 $360 $149 $246 forward $352 $-1 #
edge $-1 $361 -38.582933694645462 $362 38.582933694645462 $245 $363 forward 7 unknown #
coedge $-1 $151 $150 $354 $364 reversed $59 $-1 #
coedge $-1 $357 $365 $150 $249 forward $366 $-1 #
edge $-1 $367 -42.490350585561814 $253 -31.086033115289396 $248 $368 forward 7 unknown #
coedge $-1 $369 $242 $151 $251 forward $147 $-1 #
edge $-1 $252 31.086033115289396 $370 42.490350585561814 $250 $371 forward 7 unknown #
vertex $-1 $251 $372 #
vertex $-1 $249 $373 #
straight-curve $-1 -67.874224965715001 0 6.397341142925093 0 -1 0 I I #
face $-1 $-1 $374 $35 $-1 $375 reversed single #
loop $-1 $-1 $261 $154 #
plane-surface $-1 0 0 9.397341142925093 0 0 1 1 0 0 forward_v I I I I #
coedge $-1 $376 $377 $260 $378 reversed $155 $-1 #
coedge $-1 $379 $157 $159 $265 forward $97 $-1 #
coedge $-1 $157 $379 $258 $378 forward $97 $-1 #
coedge $-1 $380 $160 $157 $262 forward $256 $-1 #
edge $-1 $268 2.7246888500523276 $381 44.341253693792559 $261 $382 forward 7 unknown #
coedge $-1 $383 $384 $158 $264 forward $374 $-1 #
edge $-1 $385 -64.81078105428378 $267 -60.255911067337898 $263 $386 forward 7 unknown #
edge $-1 $268 -8.5954035533975386 $385 0 $159 $387 forward 7 unknown #
coedge $-1 $160 $380 $383 $388 forward $256 $-1 #
vertex $-1 $264 $389 #
vertex $-1 $161 $390 #
straight-curve $-1 -26.257660121974769 -61.302694279193538 9.3973411429250859 0 1 0 I I #
coedge $-1 $270 $270 $-1 $391 reversed $164 $-1 #
edge $-1 $392 0 $392 6.2831853071796004 $165 $393 forward 7 unknown #
vertex $-1 $168 $394 #
ellipse-curve $-1 -55.983777867503505 -34.938275903858425 7.1199061494521514 0 -0.52991927123019833 0.84804809178421925 1.5 0 0 1 I I #
coedge $-1 $274 $274 $-1 $395 reversed $171 $-1 #
edge $-1 $396 0 $396 6.2831853071796004 $172 $397 forward 7 unknown #
vertex $-1 $175 $398 #
ellipse-curve $-1 -38.148107220186262 -34.938275903858425 7.1199061494521514 0 -0.52991927123019833 0.84804809178421925 1.5 0 0 1 I I #
face $-1 $-1 $399 $38 $-1 $400 forward single #
loop $-1 $-1 $401 $176 #
plane-surface $-1 0 38.582933694645462 0 0 -1 0 0 0 -1 forward_v I I I I #
coedge $-1 $282 $179 $181 $288 reversed $111 $-1 #
coedge $-1 $179 $281 $401 $402 reversed $111 $-1 #
coedge $-1 $403 $182 $179 $284 forward $177 $-1 #
edge $-1 $291 -20.190644300191174 $404 -15.22812764489175 $283 $405 forward 7 unknown #
coedge $-1 $181 $180 $406 $407 reversed $71 $-1 #
coedge $-1 $408 $409 $180 $287 forward $399 $-1 #
edge $-1 $410 -52.82745614132434 $290 -45.263324701720911 $286 $411 forward 7 unknown #
edge $-1 $412 -77.165867389290909 $291 -69.60173594968748 $281 $413 forward 7 unknown #
coedge $-1 $182 $403 $408 $414 forward $177 $-1 #
vertex $-1 $287 $415 #
vertex $-1 $183 $416 #
straight-curve $-1 -26.358129710681514 33.620417039346037 9.3973411429250859 1 0 0 I I #
coedge $-1 $293 $293 $-1 $417 reversed $186 $-1 #
edge $-1 $418 0 $418 6.2831853071796004 $187 $419 forward 7 unknown #
vertex $-1 $190 $420 #
ellipse-curve $-1 -59.212530368942446 36.101675366995742 6.5429798798106606 0 0.75470958851134928 0.65605901945558964 1 0 0 1 I I #
coedge $-1 $297 $297 $-1 $421 reversed $193 $-1 #
edge $-1 $422 0 $422 6.2831853071796004 $194 $423 forward 7 unknown #
vertex $-1 $197 $424 #
ellipse-curve $-1 -46.219988473783616 36.101675366995742 6.5429798798106606 0 0.75470958851134928 0.65605901945558964 1 0 0 1 I I #
face $-1 $-1 $425 $41 $-1 $426 reversed single #
loop $-1 $-1 $204 $198 #
plane-surface $-1 0 0 9.397341142925093 0 0 1 1 0 0 forward_v I I I I #
coedge $-1 $427 $428 $429 $430 reversed $199 $-1 #
coedge $-1 $431 $201 $203 $311 forward $125 $-1 #
coedge $-1 $201 $431 $427 $432 forward $125 $-1 #
coedge $-1 $429 $204 $201 $308 forward $302 $-1 #
edge $-1 $314 -4.7279034046078792 $433 25.588027684096069 $307 $434 forward 7 unknown #
coedge $-1 $435 $436 $202 $310 forward $425 $-1 #
edge $-1 $437 -79.286003518320683 $313 -73.577280992091829 $309 $438 forward 7 unknown #
edge $-1 $314 69.60173594968748 $437 77.165867389290909 $203 $439 forward 7 unknown #
coedge $-1 $204 $429 $435 $440 forward $302 $-1 #
vertex $-1 $205 $441 #
vertex $-1 $205 $442 #
straight-curve $-1 5.7021587351362157 53.811061339537211 9.3973411429250859 0 -1 0 I I #
coedge $-1 $316 $316 $-1 $443 reversed $208 $-1 #
edge $-1 $444 0 $444 6.2831853071796004 $209 $445 forward 7 unknown #
vertex $-1 $212 $446 #
ellipse-curve $-1 14.363853331908757 36.101675366995742 6.5429798798106606 0 0.75470958851134928 0.65605901945558964 1 0 0 1 I I #
coedge $-1 $320 $320 $-1 $447 reversed $215 $-1 #
edge $-1 $448 0 $448 6.2831853071796004 $216 $449 forward 7 unknown #
vertex $-1 $219 $450 #
ellipse-curve $-1 27.356395227067594 36.101675366995742 6.5429798798106606 0 0.75470958851134928 0.65605901945558964 1 0 0 1 I I #
face $-1 $-1 $235 $33 $-1 $451 reversed single #
loop $-1 $-1 $340 $220 #
plane-surface $-1 0 38.582933694645462 0 0 -1 0 0 0 -1 forward_v I I I I #
coedge $-1 $452 $338 $341 $453 forward $221 $-1 #
coedge $-1 $344 $223 $224 $332 reversed $139 $-1 #
coedge $-1 $338 $452 $223 $330 reversed $221 $-1 #
edge $-1 $345 -9.397341142925093 $454 9.397341142925093 $329 $455 forward 7 unknown #
coedge $-1 $225 $224 $452 $456 forward $89 $-1 #
edge $-1 $336 -79.278542435987418 $454 79.278542435987418 $328 $457 forward 7 unknown #
coedge $-1 $341 $340 $225 $334 reversed $325 $-1 #
edge $-1 $458 -79.278542435987418 $335 79.278542435987418 $333 $459 forward 7 unknown #
vertex $-1 $227 $460 #
vertex $-1 $347 $461 #
straight-curve $-1 79.278542435987418 0 -9.397341142925093 0 -1 0 I I #
coedge $-1 $327 $329 $228 $339 reversed $221 $-1 #
edge $-1 $342 -38.582933694645462 $345 38.582933694645462 $338 $462 forward 7 unknown #
coedge $-1 $333 $229 $234 $348 forward $325 $-1 #
coedge $-1 $229 $333 $327 $453 reversed $325 $-1 #
vertex $-1 $230 $463 #
straight-curve $-1 0 38.582933694645462 9.397341142925093 -1 0 0 I I #
coedge $-1 $231 $328 $233 $347 reversed $139 $-1 #
vertex $-1 $339 $464 #
straight-curve $-1 0 -38.582933694645462 9.397341142925093 1 0 0 I I #
edge $-1 $236 -9.397341142925093 $336 9.397341142925093 $233 $465 forward 7 unknown #
edge $-1 $237 -9.397341142925093 $335 9.397341142925093 $234 $466 forward 7 unknown #
point $-1 79.278542435987418 -38.582933694645462 9.397341142925093 #
point $-1 79.278542435987418 38.582933694645462 9.397341142925093 #
face $-1 $-1 $366 $34 $-1 $467 reversed single #
loop $-1 $-1 $245 $239 #
plane-surface $-1 0 0 9.397341142925093 0 0 1 1 0 0 forward_v I I I I #
coedge $-1 $468 $469 $247 $364 forward $240 $-1 #
coedge $-1 $242 $369 $359 $470 reversed $147 $-1 #
edge $-1 $362 -5.4486705714625465 $252 -2.4486705714625465 $242 $471 forward 7 unknown #
coedge $-1 $472 $248 $243 $358 forward $366 $-1 #
edge $-1 $253 2.4486705714625465 $361 5.4486705714625465 $357 $473 forward 7 unknown #
coedge $-1 $474 $245 $355 $470 forward $352 $-1 #
coedge $-1 $245 $474 $472 $475 forward $352 $-1 #
vertex $-1 $358 $476 #
vertex $-1 $470 $477 #
straight-curve $-1 -67.874224965715001 0 9.397341142925093 0 1 0 I I #
edge $-1 $370 -38.582933694645462 $367 38.582933694645462 $354 $478 forward 7 unknown #
coedge $-1 $248 $472 $468 $479 forward $366 $-1 #
loop $-1 $-1 $357 $351 #
vertex $-1 $364 $480 #
straight-curve $-1 -36.788191850425605 -38.582933694645462 6.397341142925093 1 0 0 I I #
coedge $-1 $355 $250 $469 $481 reversed $147 $-1 #
vertex $-1 $364 $482 #
straight-curve $-1 -36.788191850425605 38.582933694645462 6.397341142925093 -1 0 0 I I #
point $-1 -67.874224965715001 38.582933694645462 6.397341142925093 #
point $-1 -67.874224965715001 -38.582933694645462 6.397341142925093 #
loop $-1 $-1 $263 $255 #
plane-surface $-1 0 -38.582933694645462 0 0 1 0 0 0 1 forward_v I I I I #
coedge $-1 $377 $258 $483 $484 reversed $155 $-1 #
coedge $-1 $258 $376 $380 $485 reversed $155 $-1 #
edge $-1 $486 0 $381 8.5954035533975421 $258 $487 forward 7 unknown #
coedge $-1 $260 $259 $384 $488 reversed $97 $-1 #
coedge $-1 $266 $261 $377 $485 forward $256 $-1 #
vertex $-1 $485 $489 #
straight-curve $-1 -23.532971271922442 -31.293618113071382 9.397341142925093 -1 0 0 I I #
coedge $-1 $483 $263 $266 $388 reversed $374 $-1 #
coedge $-1 $263 $483 $379 $488 forward $374 $-1 #
vertex $-1 $264 $490 #
straight-curve $-1 -26.257660121974769 -38.582933694645462 69.653252210262991 0 0 1 I I #
straight-curve $-1 -26.257660121974769 -38.582933694645462 4.8424711559792115 0 -0.84804809178421925 -0.52991927123019833 I I #
edge $-1 $491 -67.874224965715001 $267 -26.257660121974769 $383 $492 forward 7 unknown #
point $-1 -26.257660121974769 -38.582933694645462 9.397341142925093 #
point $-1 -26.257660121974769 -31.293618113071382 9.397341142925093 #
edge $-1 $493 1 $493 0 $270 $-1 forward 7 unknown #
vertex $-1 $271 $494 #
ellipse-curve $-1 -55.983777867503505 -33.918156643912184 5.4873741039928525 0 -0.52991927123019833 0.84804809178421925 1.5 0 0 1 I I #
point $-1 -54.483777867503505 -34.938275903858425 7.1199061494521558 #
edge $-1 $495 1 $495 0 $274 $-1 forward 7 unknown #
vertex $-1 $275 $496 #
ellipse-curve $-1 -38.148107220186262 -33.918156643912184 5.4873741039928525 0 -0.52991927123019833 0.84804809178421925 1.5 0 0 1 I I #
point $-1 -36.648107220186262 -34.938275903858425 7.1199061494521558 #
loop $-1 $-1 $286 $278 #
plane-surface $-1 -67.874224965715001 0 7.897341142925093 -1 0 0 0 0 1 forward_v I I I I #
coedge $-1 $406 $497 $282 $402 forward $279 $-1 #
edge $-1 $404 73.577280992091829 $412 79.286003518320683 $401 $498 forward 7 unknown #
coedge $-1 $289 $283 $497 $499 forward $177 $-1 #
vertex $-1 $499 $500 #
straight-curve $-1 -37.558293877011053 53.811061339537211 9.3973411429250859 0 1 0 I I #
coedge $-1 $501 $401 $285 $407 forward $279 $-1 #
edge $-1 $412 11.200164166329539 $410 41.516095255033491 $406 $502 forward 7 unknown #
coedge $-1 $409 $286 $289 $414 reversed $399 $-1 #
coedge $-1 $286 $408 $501 $503 reversed $399 $-1 #
vertex $-1 $503 $504 #
straight-curve $-1 -67.874224965715001 3.925004618235052 43.558006303216473 0 -0.65605901945558975 0.75470958851134939 I I #
vertex $-1 $407 $505 #
straight-curve $-1 -37.558293877011053 -12.042429600212785 61.926438641189307 0 -0.65605901945558964 0.75470958851134928 I I #
edge $-1 $506 -38.582933694645462 $290 -33.620417039346037 $289 $507 forward 7 unknown #
point $-1 -67.874224965715001 33.620417039346037 9.397341142925093 #
point $-1 -37.558293877011053 33.620417039346037 9.397341142925093 #
edge $-1 $508 1 $508 0 $293 $-1 forward 7 unknown #
vertex $-1 $294 $509 #
ellipse-curve $-1 -59.212530368942446 34.998712689147787 5.5841890761157664 0 0.75470958851134928 0.65605901945558964 1 0 0 1 I I #
point $-1 -58.212530368942446 36.101675366995714 6.5429798798106367 #
edge $-1 $510 1 $510 0 $297 $-1 forward 7 unknown #
vertex $-1 $298 $511 #
ellipse-curve $-1 -46.219988473783616 34.998712689147787 5.5841890761157664 0 0.75470958851134928 0.65605901945558964 1 0 0 1 I I #
point $-1 -45.219988473783616 36.101675366995714 6.5429798798106367 #
loop $-1 $-1 $309 $301 #
plane-surface $-1 0 38.582933694645462 0 0 -1 0 0 0 -1 forward_v I I I I #
coedge $-1 $428 $304 $306 $432 reversed $199 $-1 #
coedge $-1 $304 $427 $512 $513 reversed $199 $-1 #
coedge $-1 $312 $307 $304 $430 forward $302 $-1 #
edge $-1 $433 -20.190644300191174 $514 -15.22812764489175 $429 $515 forward 7 unknown #
coedge $-1 $306 $305 $436 $516 reversed $125 $-1 #
edge $-1 $517 -77.165867389290909 $433 -69.60173594968748 $427 $518 forward 7 unknown #
vertex $-1 $308 $519 #
straight-curve $-1 10.430062139744095 33.620417039346037 9.3973411429250859 1 0 0 I I #
coedge $-1 $512 $309 $312 $440 reversed $425 $-1 #
coedge $-1 $309 $512 $431 $516 forward $425 $-1 #
vertex $-1 $310 $520 #
straight-curve $-1 5.7021587351362157 38.582933694645462 82.974622135016915 0 0 1 I I #
straight-curve $-1 5.7021587351362157 -12.042429600212785 61.926438641189307 0 0.65605901945558964 -0.75470958851134928 I I #
edge $-1 $514 -36.018089823840164 $313 -5.7021587351362157 $435 $521 forward 7 unknown #
point $-1 5.7021587351362157 38.582933694645462 9.397341142925093 #
point $-1 5.7021587351362157 33.620417039346037 9.397341142925093 #
edge $-1 $522 1 $522 0 $316 $-1 forward 7 unknown #
vertex $-1 $317 $523 #
ellipse-curve $-1 14.363853331908757 34.998712689147787 5.5841890761157664 0 0.75470958851134928 0.65605901945558964 1 0 0 1 I I #
point $-1 15.363853331908757 36.101675366995714 6.5429798798106367 #
edge $-1 $524 1 $524 0 $320 $-1 forward 7 unknown #
vertex $-1 $321 $525 #
ellipse-curve $-1 27.356395227067594 34.998712689147787 5.5841890761157664 0 0.75470958851134928 0.65605901945558964 1 0 0 1 I I #
point $-1 28.356395227067594 36.101675366995714 6.5429798798106367 #
plane-surface $-1 79.278542435987418 0 0 -1 0 0 0 0 1 forward_v I I I I #
coedge $-1 $329 $327 $331 $456 reversed $221 $-1 #
edge $-1 $342 -9.397341142925093 $458 9.397341142925093 $341 $526 forward 7 unknown #
vertex $-1 $456 $527 #
straight-curve $-1 -79.278542435987418 -38.582933694645462 0 0 0 -1 I I #
edge $-1 $454 -38.582933694645462 $458 38.582933694645462 $452 $528 forward 7 unknown #
straight-curve $-1 0 -38.582933694645462 -9.397341142925093 -1 0 0 I I #
vertex $-1 $334 $529 #
straight-curve $-1 0 38.582933694645462 -9.397341142925093 1 0 0 I I #
point $-1 79.278542435987418 38.582933694645462 -9.397341142925093 #
point $-1 79.278542435987418 -38.582933694645462 -9.397341142925093 #
straight-curve $-1 -79.278542435987418 0 9.397341142925093 0 -1 0 I I #
point $-1 -79.278542435987418 38.582933694645462 9.397341142925093 #
point $-1 -79.278542435987418 -38.582933694645462 9.397341142925093 #
straight-curve $-1 79.278542435987418 -38.582933694645462 0 0 0 -1 I I #
straight-curve $-1 79.278542435987418 38.582933694645462 0 0 0 -1 I I #
plane-surface $-1 0 -38.582933694645462 0 0 1 0 0 0 1 forward_v I I I I #
coedge $-1 $530 $354 $365 $479 reversed $240 $-1 #
coedge $-1 $354 $530 $369 $481 forward $240 $-1 #
edge $-1 $362 67.874224965715001 $531 79.278542435987418 $355 $532 forward 7 unknown #
straight-curve $-1 -67.874224965715001 38.582933694645462 3.9486705714625465 0 0 -1 I I #
coedge $-1 $365 $357 $360 $475 reversed $366 $-1 #
straight-curve $-1 -67.874224965715001 -38.582933694645462 3.9486705714625465 0 0 1 I I #
coedge $-1 $360 $359 $530 $533 forward $352 $-1 #
edge $-1 $534 -79.278542435987418 $361 -67.874224965715001 $472 $535 forward 7 unknown #
point $-1 -67.874224965715001 -38.582933694645462 9.397341142925093 #
point $-1 -67.874224965715001 38.582933694645462 9.397341142925093 #
straight-curve $-1 -79.278542435987418 0 6.397341142925093 0 -1 0 I I #
edge $-1 $534 -9.397341142925093 $367 -6.397341142925093 $468 $536 forward 7 unknown #
point $-1 -79.278542435987418 -38.582933694645462 6.397341142925093 #
edge $-1 $531 -9.397341142925093 $370 -6.397341142925093 $369 $537 forward 7 unknown #
point $-1 -79.278542435987418 38.582933694645462 6.397341142925093 #
coedge $-1 $384 $383 $376 $484 forward $374 $-1 #
edge $-1 $491 60.255911067337898 $486 64.81078105428378 $483 $538 forward 7 unknown #
edge $-1 $381 31.293618113071378 $491 38.582933694645462 $380 $539 forward 7 unknown #
vertex $-1 $484 $540 #
straight-curve $-1 -67.874224965715001 -38.582933694645462 4.8424711559792115 0 0.84804809178421925 0.52991927123019833 I I #
edge $-1 $486 -44.341253693792559 $385 -2.7246888500523276 $384 $541 forward 7 unknown #
point $-1 -67.874224965715001 -31.293618113071378 9.397341142925093 #
point $-1 -26.257660121974769 -38.582933694645462 4.8424711559792115 #
vertex $-1 $388 $542 #
straight-curve $-1 0 -38.582933694645462 9.397341142925093 1 0 0 I I #
vertex $-1 $391 $543 #
point $-1 -54.483777867503505 -33.918156643912184 5.4873741039928525 #
vertex $-1 $395 $544 #
point $-1 -36.648107220186262 -33.918156643912184 5.4873741039928525 #
coedge $-1 $401 $501 $403 $499 reversed $279 $-1 #
straight-curve $-1 -37.558293877011053 38.582933694645462 82.974622135016915 0 0 -1 I I #
edge $-1 $404 37.558293877011053 $506 67.874224965715001 $497 $545 forward 7 unknown #
point $-1 -37.558293877011053 38.582933694645462 9.397341142925093 #
coedge $-1 $497 $406 $409 $503 forward $279 $-1 #
straight-curve $-1 -26.358129710681514 38.582933694645462 3.6886186166962283 -1 0 0 I I #
edge $-1 $410 -79.286003518320683 $506 -73.577280992091829 $501 $546 forward 7 unknown #
point $-1 -67.874224965715001 38.582933694645462 3.6886186166962318 #
point $-1 -37.558293877011053 38.582933694645462 3.6886186166962318 #
vertex $-1 $414 $547 #
straight-curve $-1 -67.874224965715001 0 9.397341142925093 0 -1 0 I I #
vertex $-1 $417 $548 #
point $-1 -58.212530368942446 34.998712689147787 5.5841890761157664 #
vertex $-1 $421 $549 #
point $-1 -45.219988473783616 34.998712689147787 5.5841890761157664 #
coedge $-1 $436 $435 $428 $513 forward $425 $-1 #
edge $-1 $514 73.577280992091829 $517 79.286003518320683 $512 $550 forward 7 unknown #
vertex $-1 $440 $551 #
straight-curve $-1 36.018089823840164 53.811061339537211 9.3973411429250859 0 1 0 I I #
edge $-1 $517 -25.588027684096069 $437 4.7279034046078792 $436 $552 forward 7 unknown #
vertex $-1 $516 $553 #
straight-curve $-1 36.018089823840164 -12.042429600212785 61.926438641189307 0 -0.65605901945558964 0.75470958851134928 I I #
point $-1 36.018089823840164 33.620417039346037 9.397341142925093 #
point $-1 5.7021587351362157 38.582933694645462 3.6886186166962318 #
straight-curve $-1 0 38.582933694645462 9.397341142925093 -1 0 0 I I #
vertex $-1 $443 $554 #
point $-1 15.363853331908757 34.998712689147787 5.5841890761157664 #
vertex $-1 $447 $555 #
point $-1 28.356395227067594 34.998712689147787 5.5841890761157664 #
straight-curve $-1 -79.278542435987418 38.582933694645462 0 0 0 -1 I I #
point $-1 -79.278542435987418 -38.582933694645462 -9.397341142925093 #
straight-curve $-1 -79.278542435987418 0 -9.397341142925093 0 1 0 I I #
point $-1 -79.278542435987418 38.582933694645462 -9.397341142925093 #
coedge $-1 $469 $468 $474 $533 reversed $240 $-1 #
vertex $-1 $470 $556 #
straight-curve $-1 0 38.582933694645462 9.397341142925093 -1 0 0 I I #
edge $-1 $531 -38.582933694645462 $534 38.582933694645462 $530 $557 forward 7 unknown #
vertex $-1 $533 $558 #
straight-curve $-1 0 -38.582933694645462 9.397341142925093 1 0 0 I I #
straight-curve $-1 -79.278542435987418 -38.582933694645462 0 0 0 -1 I I #
straight-curve $-1 -79.278542435987418 38.582933694645462 0 0 0 -1 I I #
straight-curve $-1 -67.874224965715001 -38.582933694645462 69.653252210262991 0 0 -1 I I #
straight-curve $-1 -67.874224965715001 0 9.397341142925093 0 -1 0 I I #
point $-1 -67.874224965715001 -38.582933694645462 4.8424711559792115 #
straight-curve $-1 -23.532971271922442 -38.582933694645462 4.8424711559792106 1 0 0 I I #
point $-1 -67.874224965715001 -38.582933694645462 9.397341142925093 #
point $-1 -55.983777867503505 -33.123277737066886 4.2153019663165239 #
point $-1 -38.148107220186262 -33.123277737066886 4.2153019663165239 #
straight-curve $-1 0 38.582933694645462 9.397341142925093 -1 0 0 I I #
straight-curve $-1 -67.874224965715001 38.582933694645462 82.974622135016915 0 0 1 I I #
point $-1 -67.874224965715001 38.582933694645462 9.397341142925093 #
point $-1 -59.212530368942446 34.244003100636441 4.9281300566601765 #
point $-1 -46.219988473783616 34.244003100636441 4.9281300566601765 #
straight-curve $-1 36.018089823840164 38.582933694645462 82.974622135016915 0 0 -1 I I #
point $-1 36.018089823840164 38.582933694645462 9.397341142925093 #
straight-curve $-1 10.430062139744095 38.582933694645462 3.6886186166962283 -1 0 0 I I #
point $-1 36.018089823840164 38.582933694645462 3.6886186166962318 #
point $-1 14.363853331908757 34.244003100636441 4.9281300566601765 #
point $-1 27.356395227067594 34.244003100636441 4.9281300566601765 #
point $-1 -79.278542435987418 38.582933694645462 9.397341142925093 #
straight-curve $-1 -79.278542435987418 0 9.397341142925093 0 -1 0 I I #
point $-1 -79.278542435987418 -38.582933694645462 9.397341142925093 #
End-of-ACIS-data 