500 0 11 0           
7 Unknown 11 ACIS 5.0 NT 24 Fri Mar 26 15:01:30 1999 
-1 9.9999999999999995e-007 1e-010 
body $-1 $11 $-1 $12 #
body $-1 $13 $-1 $14 #
body $-1 $15 $-1 $16 #
body $-1 $17 $-1 $18 #
body $-1 $19 $-1 $20 #
body $-1 $21 $-1 $22 #
body $-1 $23 $-1 $24 #
body $-1 $25 $-1 $26 #
body $-1 $27 $-1 $28 #
body $-1 $29 $-1 $30 #
body $-1 $31 $-1 $32 #
lump $-1 $-1 $33 $0 #
transform $-1 1 0 0 0 1 0 0 0 1 48.413342692342908 33.652200643875823 9.8626304887010825 1 rotate no_reflect no_shear #
lump $-1 $-1 $34 $1 #
transform $-1 1 0 0 0 1 0 0 0 1 48.413342692342908 33.652200643875823 9.8626304887010825 1 rotate no_reflect no_shear #
lump $-1 $-1 $35 $2 #
transform $-1 1 0 0 0 1 0 0 0 1 48.413342692342908 33.652200643875823 9.8626304887010825 1 rotate no_reflect no_shear #
lump $-1 $-1 $36 $3 #
transform $-1 1 0 0 0 1 0 0 0 1 48.413342692342908 33.652200643875823 9.8626304887010825 1 rotate no_reflect no_shear #
lump $-1 $-1 $37 $4 #
transform $-1 1 0 0 0 1 0 0 0 1 48.413342692342908 33.652200643875823 9.8626304887010825 1 rotate no_reflect no_shear #
lump $-1 $-1 $38 $5 #
transform $-1 1 0 0 0 1 0 0 0 1 48.413342692342908 33.652200643875823 9.8626304887010825 1 rotate no_reflect no_shear #
lump $-1 $-1 $39 $6 #
transform $-1 1 0 0 0 1 0 0 0 1 48.413342692342908 33.652200643875823 9.8626304887010825 1 rotate no_reflect no_shear #
lump $-1 $-1 $40 $7 #
transform $-1 1 0 0 0 1 0 0 0 1 48.413342692342908 33.652200643875823 9.8626304887010825 1 rotate no_reflect no_shear #
lump $-1 $-1 $41 $8 #
transform $-1 1 0 0 0 1 0 0 0 1 48.413342692342908 33.652200643875823 9.8626304887010825 1 rotate no_reflect no_shear #
lump $-1 $-1 $42 $9 #
transform $-1 1 0 0 0 1 0 0 0 1 48.413342692342908 33.652200643875823 9.8626304887010825 1 rotate no_reflect no_shear #
lump $-1 $-1 $43 $10 #
transform $-1 1 0 0 0 1 0 0 0 1 48.413342692342908 33.652200643875823 9.8626304887010825 1 rotate no_reflect no_shear #
shell $-1 $-1 $-1 $44 $-1 $11 #
shell $-1 $-1 $-1 $45 $-1 $13 #
shell $-1 $-1 $-1 $46 $-1 $15 #
shell $-1 $-1 $-1 $47 $-1 $17 #
shell $-1 $-1 $-1 $48 $-1 $19 #
shell $-1 $-1 $-1 $49 $-1 $21 #
shell $-1 $-1 $-1 $50 $-1 $23 #
shell $-1 $-1 $-1 $51 $-1 $25 #
shell $-1 $-1 $-1 $52 $-1 $27 #
shell $-1 $-1 $-1 $53 $-1 $29 #
shell $-1 $-1 $-1 $54 $-1 $31 #
face $-1 $55 $56 $33 $-1 $57 forward single #
face $-1 $58 $59 $34 $-1 $60 forward single #
face $-1 $61 $62 $35 $-1 $63 reversed single #
face $-1 $64 $65 $36 $-1 $66 reversed single #
face $-1 $67 $68 $37 $-1 $69 forward single #
face $-1 $70 $71 $38 $-1 $72 forward single #
face $-1 $73 $74 $39 $-1 $75 forward single #
face $-1 $76 $77 $40 $-1 $78 reversed single #
face $-1 $79 $80 $41 $-1 $81 forward single #
face $-1 $82 $83 $42 $-1 $84 forward single #
face $-1 $85 $86 $43 $-1 $87 forward single #
face $-1 $88 $89 $33 $-1 $90 reversed single #
loop $-1 $-1 $91 $44 #
plane-surface $-1 0 0 9.8626304887010825 0 0 1 1 0 0 forward_v I I I I #
face $-1 $92 $93 $34 $-1 $94 reversed single #
loop $-1 $-1 $95 $45 #
plane-surface $-1 0 -27.704462873895999 -4.8762034659612716 0 0 1 1 0 0 forward_v I I I I #
face $-1 $96 $97 $35 $-1 $98 reversed single #
loop $-1 $-1 $99 $46 #
plane-surface $-1 -35.606848299500513 26.542528397723252 0 0 1 0 0 0 1 forward_v I I I I #
face $-1 $100 $101 $36 $-1 $102 reversed single #
loop $-1 $-1 $103 $47 #
plane-surface $-1 -98.282772996174458 15.156195980545156 86.317714678854287 0 1 0 -0.51503808176128008 0 0.85716729658548041 forward_v I I I I #
face $-1 $104 $105 $37 $-1 $106 forward single #
loop $-1 $107 $108 $48 #
cone-surface $-1 -42.712311768021991 17.433462463980774 6.163254861222951 0.51503808176128008 0 -0.85716729658548041 0.4285836482927402 0 0.25751904088064004 1 I I 0 1 0.5 forward I I I I #
face $-1 $109 $110 $38 $-1 $111 forward single #
loop $-1 $112 $113 $49 #
cone-surface $-1 -42.712311768021991 20.849362189134204 6.163254861222951 0.51503808176128008 0 -0.85716729658548041 0.4285836482927402 0 0.25751904088064004 1 I I 0 1 0.5 forward I I I I #
face $-1 $114 $115 $39 $-1 $116 forward single #
loop $-1 $117 $118 $50 #
cone-surface $-1 -42.712311768021991 24.265261914287635 6.163254861222951 0.51503808176128008 0 -0.85716729658548041 0.4285836482927402 0 0.25751904088064004 1 I I 0 1 0.5 forward I I I I #
face $-1 $119 $120 $40 $-1 $121 reversed single #
loop $-1 $-1 $122 $51 #
plane-surface $-1 15.286104847650478 26.542528397723252 136.18714498268585 0 -1 0 -0.51503808176128008 0 -0.85716729658548041 forward_v I I I I #
face $-1 $123 $124 $41 $-1 $125 forward single #
loop $-1 $126 $127 $52 #
cone-surface $-1 42.712311768021998 17.433462463980774 6.1632548612229439 -0.51503808176128008 0 -0.85716729658548041 0.4285836482927402 0 -0.25751904088064004 1 I I 0 1 0.5 forward I I I I #
face $-1 $128 $129 $42 $-1 $130 forward single #
loop $-1 $131 $132 $53 #
cone-surface $-1 42.712311768021998 20.849362189134204 6.1632548612229439 -0.51503808176128008 0 -0.85716729658548041 0.4285836482927402 0 -0.25751904088064004 1 I I 0 1 0.5 forward I I I I #
face $-1 $133 $134 $43 $-1 $135 forward single #
loop $-1 $136 $137 $54 #
cone-surface $-1 42.712311768021998 24.265261914287635 6.1632548612229439 -0.51503808176128008 0 -0.85716729658548041 0.4285836482927402 0 -0.25751904088064004 1 I I 0 1 0.5 forward I I I I #
face $-1 $138 $139 $33 $-1 $140 reversed single #
loop $-1 $-1 $141 $55 #
plane-surface $-1 0 0 -9.8626304887010825 0 0 1 1 0 0 forward_v I I I I #
coedge $-1 $142 $143 $144 $145 forward $56 $-1 #
face $-1 $146 $147 $34 $-1 $148 reversed single #
loop $-1 $-1 $149 $58 #
plane-surface $-1 0 -21.756725103916175 -7.3694169773311771 0 -1 0 0 0 -1 forward_v I I I I #
coedge $-1 $150 $151 $152 $153 reversed $59 $-1 #
face $-1 $154 $155 $35 $-1 $156 reversed single #
loop $-1 $-1 $157 $61 #
plane-surface $-1 -38.166761811367749 30.097364520799538 0 1 0 0 0 0 -1 forward_v I I I I #
coedge $-1 $158 $159 $160 $161 forward $62 $-1 #
face $-1 $162 $163 $36 $-1 $164 reversed single #
loop $-1 $-1 $165 $64 #
plane-surface $-1 -48.413342692342901 20.849362189134204 3.3210465303302925 -0.51503808176128008 0 0.85716729658548041 0.85716729658548041 0 0.51503808176128008 forward_v I I I I #
coedge $-1 $166 $167 $168 $169 reversed $65 $-1 #
face $-1 $-1 $170 $37 $-1 $171 forward single #
loop $-1 $172 $173 $67 #
cone-surface $-1 -42.326033206701034 17.433462463980774 5.5203793887838408 0.51503808176128008 0 -0.85716729658548041 0.2142918241463701 0 0.12875952044032002 1 I I -0.70710678118654746 0.70710678118654746 0.25 forward I I I I #
loop $-1 $-1 $174 $48 #
coedge $-1 $108 $108 $175 $176 reversed $68 $-1 #
face $-1 $-1 $177 $38 $-1 $178 forward single #
loop $-1 $179 $180 $70 #
cone-surface $-1 -42.326033206701034 20.849362189134204 5.5203793887838408 0.51503808176128008 0 -0.85716729658548041 0.2142918241463701 0 0.12875952044032002 1 I I -0.70710678118654746 0.70710678118654746 0.25 forward I I I I #
loop $-1 $-1 $181 $49 #
coedge $-1 $113 $113 $182 $183 reversed $71 $-1 #
face $-1 $-1 $184 $39 $-1 $185 forward single #
loop $-1 $186 $187 $73 #
cone-surface $-1 -42.326033206701034 24.265261914287635 5.5203793887838408 0.51503808176128008 0 -0.85716729658548041 0.2142918241463701 0 0.12875952044032002 1 I I -0.70710678118654746 0.70710678118654746 0.25 forward I I I I #
loop $-1 $-1 $188 $50 #
coedge $-1 $118 $118 $189 $190 reversed $74 $-1 #
face $-1 $191 $192 $40 $-1 $193 reversed single #
loop $-1 $-1 $194 $76 #
plane-surface $-1 -34.583325456181079 20.849362189134204 53.190476834161856 0.51503808176128008 0 0.85716729658548041 0.85716729658548041 0 -0.51503808176128008 forward_v I I I I #
coedge $-1 $195 $196 $197 $198 reversed $77 $-1 #
face $-1 $-1 $199 $41 $-1 $200 forward single #
loop $-1 $201 $202 $79 #
cone-surface $-1 42.326033206701041 17.433462463980774 5.5203793887838337 -0.51503808176128008 0 -0.85716729658548041 0.2142918241463701 0 -0.12875952044032002 1 I I -0.70710678118654746 0.70710678118654746 0.25 forward I I I I #
loop $-1 $-1 $203 $52 #
coedge $-1 $127 $127 $204 $205 reversed $80 $-1 #
face $-1 $-1 $206 $42 $-1 $207 forward single #
loop $-1 $208 $209 $82 #
cone-surface $-1 42.326033206701041 20.849362189134204 5.5203793887838337 -0.51503808176128008 0 -0.85716729658548041 0.2142918241463701 0 -0.12875952044032002 1 I I -0.70710678118654746 0.70710678118654746 0.25 forward I I I I #
loop $-1 $-1 $210 $53 #
coedge $-1 $132 $132 $211 $212 reversed $83 $-1 #
face $-1 $-1 $213 $43 $-1 $214 forward single #
loop $-1 $215 $216 $85 #
cone-surface $-1 42.326033206701041 24.265261914287635 5.5203793887838337 -0.51503808176128008 0 -0.85716729658548041 0.2142918241463701 0 -0.12875952044032002 1 I I -0.70710678118654746 0.70710678118654746 0.25 forward I I I I #
loop $-1 $-1 $217 $54 #
coedge $-1 $137 $137 $218 $219 reversed $86 $-1 #
face $-1 $220 $221 $33 $-1 $222 reversed single #
loop $-1 $-1 $223 $88 #
plane-surface $-1 0 -33.652200643875823 0 0 1 0 0 0 1 forward_v I I I I #
coedge $-1 $224 $225 $226 $227 forward $89 $-1 #
coedge $-1 $228 $91 $229 $230 forward $56 $-1 #
coedge $-1 $91 $228 $231 $232 forward $56 $-1 #
coedge $-1 $233 $234 $91 $145 reversed $235 $-1 #
edge $-1 $236 -33.652200643875823 $237 33.652200643875823 $144 $238 forward 7 unknown #
face $-1 $239 $240 $34 $-1 $241 reversed single #
loop $-1 $-1 $242 $92 #
plane-surface $-1 0 0 -9.8626304887010825 0 0 1 1 0 0 forward_v I I I I #
coedge $-1 $243 $244 $245 $246 reversed $93 $-1 #
coedge $-1 $247 $95 $244 $248 forward $59 $-1 #
coedge $-1 $95 $247 $249 $250 reversed $59 $-1 #
coedge $-1 $251 $245 $95 $153 forward $240 $-1 #
edge $-1 $252 7.9044936669681753 $253 19.799969206927823 $152 $254 forward 7 unknown #
face $-1 $255 $256 $35 $-1 $257 reversed single #
loop $-1 $-1 $258 $96 #
plane-surface $-1 -33.046934787633276 30.097364520799538 0 -1 0 0 0 0 1 forward_v I I I I #
coedge $-1 $259 $260 $261 $262 reversed $97 $-1 #
coedge $-1 $263 $99 $264 $265 reversed $62 $-1 #
coedge $-1 $99 $263 $266 $267 reversed $62 $-1 #
coedge $-1 $260 $259 $99 $161 reversed $97 $-1 #
edge $-1 $268 -9.8626304887010825 $269 9.8626304887010825 $160 $270 forward 7 unknown #
face $-1 $271 $272 $36 $-1 $273 forward single #
loop $-1 $-1 $274 $100 #
plane-surface $-1 -48.413342692342908 0 0 1 0 0 0 0 -1 forward_v I I I I #
coedge $-1 $275 $276 $277 $278 reversed $101 $-1 #
coedge $-1 $167 $103 $279 $280 reversed $65 $-1 #
coedge $-1 $103 $166 $275 $281 reversed $65 $-1 #
coedge $-1 $277 $282 $103 $169 forward $272 $-1 #
edge $-1 $283 0.72804380574432059 $284 11.615067572624902 $168 $285 forward 7 unknown #
loop $-1 $-1 $175 $104 #
plane-surface $-1 -48.413342692342901 20.849362189134204 3.3210465303302925 -0.51503808176128008 0 0.85716729658548041 0.85716729658548041 0 0.51503808176128008 forward_v I I I I #
loop $-1 $-1 $286 $67 #
coedge $-1 $173 $173 $174 $287 reversed $105 $-1 #
coedge $-1 $174 $174 $173 $287 forward $107 $-1 #
coedge $-1 $175 $175 $108 $176 forward $170 $-1 #
edge $-1 $288 0 $288 6.2831853071796004 $175 $289 forward 7 unknown #
loop $-1 $-1 $182 $109 #
plane-surface $-1 -48.413342692342901 20.849362189134204 3.3210465303302925 -0.51503808176128008 0 0.85716729658548041 0.85716729658548041 0 0.51503808176128008 forward_v I I I I #
loop $-1 $-1 $290 $70 #
coedge $-1 $180 $180 $181 $291 reversed $110 $-1 #
coedge $-1 $181 $181 $180 $291 forward $112 $-1 #
coedge $-1 $182 $182 $113 $183 forward $177 $-1 #
edge $-1 $292 0 $292 6.2831853071796004 $182 $293 forward 7 unknown #
loop $-1 $-1 $189 $114 #
plane-surface $-1 -48.413342692342901 20.849362189134204 3.3210465303302925 -0.51503808176128008 0 0.85716729658548041 0.85716729658548041 0 0.51503808176128008 forward_v I I I I #
loop $-1 $-1 $294 $73 #
coedge $-1 $187 $187 $188 $295 reversed $115 $-1 #
coedge $-1 $188 $188 $187 $295 forward $117 $-1 #
coedge $-1 $189 $189 $118 $190 forward $184 $-1 #
edge $-1 $296 0 $296 6.2831853071796004 $189 $297 forward 7 unknown #
face $-1 $298 $299 $40 $-1 $300 forward single #
loop $-1 $-1 $301 $119 #
plane-surface $-1 15.286104847650478 15.156195980545156 136.18714498268585 0 1 0 0.51503808176128008 0 0.85716729658548041 forward_v I I I I #
coedge $-1 $302 $303 $304 $305 reversed $120 $-1 #
coedge $-1 $196 $122 $306 $307 reversed $77 $-1 #
coedge $-1 $122 $195 $302 $308 reversed $77 $-1 #
coedge $-1 $304 $309 $122 $198 forward $299 $-1 #
edge $-1 $310 -40.77029026851767 $311 -29.883266501637117 $197 $312 forward 7 unknown #
loop $-1 $-1 $204 $123 #
plane-surface $-1 -34.583325456181079 20.849362189134204 53.190476834161856 0.51503808176128008 0 0.85716729658548041 0.85716729658548041 0 -0.51503808176128008 forward_v I I I I #
loop $-1 $-1 $313 $79 #
coedge $-1 $202 $202 $203 $314 reversed $124 $-1 #
coedge $-1 $203 $203 $202 $314 forward $126 $-1 #
coedge $-1 $204 $204 $127 $205 forward $199 $-1 #
edge $-1 $315 0 $315 6.2831853071796004 $204 $316 forward 7 unknown #
loop $-1 $-1 $211 $128 #
plane-surface $-1 -34.583325456181079 20.849362189134204 53.190476834161856 0.51503808176128008 0 0.85716729658548041 0.85716729658548041 0 -0.51503808176128008 forward_v I I I I #
loop $-1 $-1 $317 $82 #
coedge $-1 $209 $209 $210 $318 reversed $129 $-1 #
coedge $-1 $210 $210 $209 $318 forward $131 $-1 #
coedge $-1 $211 $211 $132 $212 forward $206 $-1 #
edge $-1 $319 0 $319 6.2831853071796004 $211 $320 forward 7 unknown #
loop $-1 $-1 $218 $133 #
plane-surface $-1 -34.583325456181079 20.849362189134204 53.190476834161856 0.51503808176128008 0 0.85716729658548041 0.85716729658548041 0 -0.51503808176128008 forward_v I I I I #
loop $-1 $-1 $321 $85 #
coedge $-1 $216 $216 $217 $322 reversed $134 $-1 #
coedge $-1 $217 $217 $216 $322 forward $136 $-1 #
coedge $-1 $218 $218 $137 $219 forward $213 $-1 #
edge $-1 $323 0 $323 6.2831853071796004 $218 $324 forward 7 unknown #
face $-1 $325 $326 $33 $-1 $327 reversed single #
loop $-1 $-1 $328 $138 #
plane-surface $-1 -48.413342692342908 0 0 1 0 0 0 0 -1 forward_v I I I I #
coedge $-1 $329 $231 $330 $331 forward $139 $-1 #
coedge $-1 $332 $141 $329 $333 forward $89 $-1 #
coedge $-1 $141 $332 $334 $335 forward $89 $-1 #
coedge $-1 $234 $233 $141 $227 reversed $235 $-1 #
edge $-1 $336 -33.652200643875823 $337 33.652200643875823 $226 $338 forward 7 unknown #
coedge $-1 $143 $142 $339 $340 forward $56 $-1 #
coedge $-1 $341 $342 $142 $230 reversed $326 $-1 #
edge $-1 $237 -48.413342692342908 $343 48.413342692342908 $229 $344 forward 7 unknown #
coedge $-1 $223 $345 $143 $232 reversed $139 $-1 #
edge $-1 $346 -48.413342692342908 $236 48.413342692342908 $231 $347 forward 7 unknown #
coedge $-1 $226 $144 $345 $348 forward $235 $-1 #
coedge $-1 $144 $226 $341 $349 reversed $235 $-1 #
loop $-1 $-1 $233 $325 #
vertex $-1 $145 $350 #
vertex $-1 $145 $351 #
straight-curve $-1 48.413342692342908 0 9.8626304887010825 0 1 0 I I #
face $-1 $352 $353 $34 $-1 $354 reversed single #
loop $-1 $-1 $245 $146 #
plane-surface $-1 48.413342692342908 0 0 -1 0 0 0 0 1 forward_v I I I I #
coedge $-1 $355 $356 $243 $357 forward $147 $-1 #
coedge $-1 $358 $149 $242 $357 reversed $93 $-1 #
coedge $-1 $149 $358 $150 $248 reversed $93 $-1 #
coedge $-1 $152 $359 $149 $246 forward $240 $-1 #
edge $-1 $360 -6.177922000035494 $252 -1.1914949772956831 $245 $361 forward 7 unknown #
coedge $-1 $151 $150 $362 $363 reversed $59 $-1 #
edge $-1 $252 -48.413342692342908 $364 48.413342692342908 $244 $365 forward 7 unknown #
coedge $-1 $366 $367 $151 $250 forward $353 $-1 #
edge $-1 $253 -48.413342692342908 $368 48.413342692342908 $249 $369 forward 7 unknown #
coedge $-1 $359 $152 $367 $370 forward $240 $-1 #
vertex $-1 $153 $371 #
vertex $-1 $370 $372 #
straight-curve $-1 48.413342692342908 -13.852231436947999 -4.8762034659612716 0 -1 0 I I #
face $-1 $373 $374 $35 $-1 $375 forward single #
loop $-1 $-1 $376 $154 #
plane-surface $-1 0 0 -9.8626304887010825 0 0 1 1 0 0 forward_v I I I I #
coedge $-1 $377 $378 $263 $379 forward $155 $-1 #
coedge $-1 $160 $157 $380 $381 reversed $97 $-1 #
coedge $-1 $157 $160 $382 $383 reversed $97 $-1 #
coedge $-1 $384 $385 $157 $262 forward $386 $-1 #
edge $-1 $387 -9.8626304887010825 $388 9.8626304887010825 $261 $389 forward 7 unknown #
coedge $-1 $159 $158 $258 $379 reversed $62 $-1 #
coedge $-1 $380 $376 $158 $265 forward $256 $-1 #
edge $-1 $390 15.24351063788302 $269 20.363337661617493 $264 $391 forward 7 unknown #
coedge $-1 $392 $382 $159 $267 forward $374 $-1 #
edge $-1 $268 -20.363337661617493 $393 -15.24351063788302 $266 $394 forward 7 unknown #
vertex $-1 $267 $395 #
vertex $-1 $265 $396 #
straight-curve $-1 -38.166761811367749 26.542528397723252 0 0 0 -1 I I #
face $-1 $-1 $397 $36 $-1 $398 forward single #
loop $-1 $-1 $399 $162 #
plane-surface $-1 0 0 9.8626304887010825 0 0 1 1 0 0 forward_v I I I I #
coedge $-1 $400 $401 $402 $403 forward $163 $-1 #
coedge $-1 $404 $165 $167 $281 forward $101 $-1 #
coedge $-1 $165 $404 $405 $406 reversed $101 $-1 #
coedge $-1 $399 $168 $165 $278 forward $272 $-1 #
edge $-1 $284 4.7315148859780543 $407 16.11784730315615 $277 $408 forward 7 unknown #
coedge $-1 $401 $400 $166 $280 forward $163 $-1 #
edge $-1 $409 -39.837810809096858 $283 -33.296226850726057 $279 $410 forward 7 unknown #
edge $-1 $284 -12.701165583718549 $409 8.3777685069199533e-015 $167 $411 forward 7 unknown #
coedge $-1 $168 $399 $401 $412 forward $272 $-1 #
vertex $-1 $280 $413 #
vertex $-1 $169 $414 #
straight-curve $-1 -49.141386498087229 15.156195980545156 9.8626304887010861 1 0 0 I I #
coedge $-1 $286 $286 $-1 $415 reversed $172 $-1 #
edge $-1 $416 0 $416 6.2831853071796004 $173 $417 forward 7 unknown #
vertex $-1 $176 $418 #
ellipse-curve $-1 -42.969830808902628 17.433462463980774 6.5918385095156813 -0.51503808176128008 0 0.85716729658548041 0.4285836482927402 0 0.25751904088064004 1 I I #
coedge $-1 $290 $290 $-1 $419 reversed $179 $-1 #
edge $-1 $420 0 $420 6.2831853071796004 $180 $421 forward 7 unknown #
vertex $-1 $183 $422 #
ellipse-curve $-1 -42.969830808902628 20.849362189134204 6.5918385095156813 -0.51503808176128008 0 0.85716729658548041 0.4285836482927402 0 0.25751904088064004 1 I I #
coedge $-1 $294 $294 $-1 $423 reversed $186 $-1 #
edge $-1 $424 0 $424 6.2831853071796004 $187 $425 forward 7 unknown #
vertex $-1 $190 $426 #
ellipse-curve $-1 -42.969830808902628 24.265261914287635 6.5918385095156813 -0.51503808176128008 0 0.85716729658548041 0.4285836482927402 0 0.25751904088064004 1 I I #
face $-1 $-1 $427 $40 $-1 $428 reversed single #
loop $-1 $-1 $197 $191 #
plane-surface $-1 0 0 9.8626304887010825 0 0 1 1 0 0 forward_v I I I I #
coedge $-1 $429 $430 $431 $432 reversed $192 $-1 #
coedge $-1 $433 $194 $196 $308 forward $120 $-1 #
coedge $-1 $194 $433 $429 $434 forward $120 $-1 #
coedge $-1 $431 $197 $194 $305 forward $299 $-1 #
edge $-1 $311 -16.11784730315615 $435 -4.7315148859780543 $304 $436 forward 7 unknown #
coedge $-1 $437 $438 $195 $307 forward $427 $-1 #
edge $-1 $439 -64.772525961012619 $310 -58.230942002641839 $306 $440 forward 7 unknown #
edge $-1 $311 84.125519800967282 $439 96.826685384685803 $196 $441 forward 7 unknown #
coedge $-1 $197 $431 $437 $442 forward $299 $-1 #
vertex $-1 $198 $443 #
vertex $-1 $198 $444 #
straight-curve $-1 7.6430524238252389 26.542528397723252 9.8626304887010861 -1 0 0 I I #
coedge $-1 $313 $313 $-1 $445 reversed $201 $-1 #
edge $-1 $446 0 $446 6.2831853071796004 $202 $447 forward 7 unknown #
vertex $-1 $205 $448 #
ellipse-curve $-1 42.969830808902636 17.433462463980774 6.591838509515684 0.51503808176128008 0 0.85716729658548041 0.4285836482927402 0 -0.25751904088064004 1 I I #
coedge $-1 $317 $317 $-1 $449 reversed $208 $-1 #
edge $-1 $450 0 $450 6.2831853071796004 $209 $451 forward 7 unknown #
vertex $-1 $212 $452 #
ellipse-curve $-1 42.969830808902636 20.849362189134204 6.591838509515684 0.51503808176128008 0 0.85716729658548041 0.4285836482927402 0 -0.25751904088064004 1 I I #
coedge $-1 $321 $321 $-1 $453 reversed $215 $-1 #
edge $-1 $454 0 $454 6.2831853071796004 $216 $455 forward 7 unknown #
vertex $-1 $219 $456 #
ellipse-curve $-1 42.969830808902636 24.265261914287635 6.591838509515684 0.51503808176128008 0 0.85716729658548041 0.4285836482927402 0 -0.25751904088064004 1 I I #
face $-1 $-1 $235 $33 $-1 $457 reversed single #
loop $-1 $-1 $341 $220 #
plane-surface $-1 0 33.652200643875823 0 0 -1 0 0 0 -1 forward_v I I I I #
coedge $-1 $458 $339 $342 $459 forward $221 $-1 #
coedge $-1 $345 $223 $224 $333 reversed $139 $-1 #
coedge $-1 $339 $458 $223 $331 reversed $221 $-1 #
edge $-1 $346 -9.8626304887010825 $460 9.8626304887010825 $330 $461 forward 7 unknown #
coedge $-1 $225 $224 $458 $462 forward $89 $-1 #
edge $-1 $337 -48.413342692342908 $460 48.413342692342908 $329 $463 forward 7 unknown #
coedge $-1 $342 $341 $225 $335 reversed $326 $-1 #
edge $-1 $464 -48.413342692342908 $336 48.413342692342908 $334 $465 forward 7 unknown #
vertex $-1 $227 $466 #
vertex $-1 $348 $467 #
straight-curve $-1 48.413342692342908 0 -9.8626304887010825 0 -1 0 I I #
coedge $-1 $328 $330 $228 $340 reversed $221 $-1 #
edge $-1 $343 -33.652200643875823 $346 33.652200643875823 $339 $468 forward 7 unknown #
coedge $-1 $334 $229 $234 $349 forward $326 $-1 #
coedge $-1 $229 $334 $328 $459 reversed $326 $-1 #
vertex $-1 $230 $469 #
straight-curve $-1 0 33.652200643875823 9.8626304887010825 -1 0 0 I I #
coedge $-1 $231 $329 $233 $348 reversed $139 $-1 #
vertex $-1 $340 $470 #
straight-curve $-1 0 -33.652200643875823 9.8626304887010825 1 0 0 I I #
edge $-1 $236 -9.8626304887010825 $337 9.8626304887010825 $233 $471 forward 7 unknown #
edge $-1 $237 -9.8626304887010825 $336 9.8626304887010825 $234 $472 forward 7 unknown #
point $-1 48.413342692342908 -33.652200643875823 9.8626304887010825 #
point $-1 48.413342692342908 33.652200643875823 9.8626304887010825 #
face $-1 $-1 $473 $34 $-1 $474 reversed single #
loop $-1 $-1 $249 $239 #
plane-surface $-1 0 -33.652200643875823 0 0 1 0 0 0 1 forward_v I I I I #
coedge $-1 $475 $242 $359 $476 forward $147 $-1 #
coedge $-1 $242 $475 $477 $478 forward $147 $-1 #
edge $-1 $479 -48.413342692342908 $360 48.413342692342908 $242 $480 forward 7 unknown #
coedge $-1 $244 $243 $481 $482 reversed $93 $-1 #
coedge $-1 $245 $251 $355 $476 reversed $240 $-1 #
vertex $-1 $476 $483 #
straight-curve $-1 48.413342692342908 -21.756725103916175 -3.6847084886655885 0 0 1 I I #
coedge $-1 $481 $484 $247 $363 forward $473 $-1 #
edge $-1 $368 -19.799969206927823 $364 -7.9044936669681753 $362 $485 forward 7 unknown #
vertex $-1 $363 $486 #
straight-curve $-1 0 -21.756725103916175 -4.8762034659612716 -1 0 0 I I #
coedge $-1 $487 $249 $484 $488 forward $353 $-1 #
coedge $-1 $249 $487 $251 $370 reversed $353 $-1 #
vertex $-1 $488 $489 #
straight-curve $-1 0 -33.652200643875823 -4.8762034659612716 -1 0 0 I I #
edge $-1 $253 4.8762034659612716 $490 9.8626304887010825 $251 $491 forward 7 unknown #
point $-1 48.413342692342908 -21.756725103916175 -4.8762034659612716 #
point $-1 48.413342692342908 -33.652200643875823 -4.8762034659612716 #
face $-1 $-1 $386 $35 $-1 $492 reversed single #
loop $-1 $-1 $392 $255 #
plane-surface $-1 0 0 9.8626304887010825 0 0 1 1 0 0 forward_v I I I I #
coedge $-1 $264 $493 $377 $494 forward $256 $-1 #
coedge $-1 $495 $258 $376 $494 reversed $155 $-1 #
coedge $-1 $258 $495 $392 $496 reversed $155 $-1 #
edge $-1 $393 -9.8626304887010825 $390 9.8626304887010825 $258 $497 forward 7 unknown #
coedge $-1 $493 $264 $259 $381 forward $256 $-1 #
edge $-1 $269 11.493846137323484 $387 18.603518383476054 $380 $498 forward 7 unknown #
coedge $-1 $266 $499 $260 $383 forward $374 $-1 #
edge $-1 $388 -18.603518383476054 $268 -11.493846137323484 $382 $500 forward 7 unknown #
coedge $-1 $501 $261 $499 $502 reversed $386 $-1 #
coedge $-1 $261 $501 $493 $503 reversed $386 $-1 #
loop $-1 $-1 $501 $373 #
vertex $-1 $503 $504 #
vertex $-1 $262 $505 #
straight-curve $-1 -38.166761811367749 33.652200643875823 0 0 0 1 I I #
vertex $-1 $265 $506 #
straight-curve $-1 -17.803424149750256 26.542528397723252 -9.8626304887010825 -1 0 0 I I #
coedge $-1 $499 $266 $378 $496 forward $374 $-1 #
vertex $-1 $267 $507 #
straight-curve $-1 -17.803424149750256 26.542528397723252 9.8626304887010825 1 0 0 I I #
point $-1 -38.166761811367749 26.542528397723252 9.8626304887010825 #
point $-1 -38.166761811367749 26.542528397723252 -9.8626304887010825 #
loop $-1 $-1 $405 $271 #
plane-surface $-1 -35.606848299500513 26.542528397723252 0 0 1 0 0 0 1 forward_v I I I I #
coedge $-1 $282 $277 $508 $509 forward $272 $-1 #
coedge $-1 $279 $274 $404 $510 forward $163 $-1 #
coedge $-1 $274 $279 $282 $412 reversed $163 $-1 #
coedge $-1 $508 $405 $274 $403 reversed $397 $-1 #
edge $-1 $511 33.296226850726057 $512 39.837810809096858 $274 $513 forward 7 unknown #
coedge $-1 $276 $275 $400 $510 reversed $101 $-1 #
coedge $-1 $402 $508 $276 $406 forward $397 $-1 #
edge $-1 $407 -8.0677442122042642 $512 4.633421371514288 $405 $514 forward 7 unknown #
vertex $-1 $509 $515 #
straight-curve $-1 -37.526318925462327 10.424681094567102 9.8626304887010825 0 1 0 I I #
vertex $-1 $280 $516 #
straight-curve $-1 -48.413342692342908 15.156195980545156 43.158857339427144 0 0 1 I I #
straight-curve $-1 -48.413342692342901 15.156195980545156 3.3210465303302925 -0.85716729658548041 0 -0.51503808176128008 I I #
edge $-1 $511 -26.542528397723252 $283 -15.156195980545156 $401 $517 forward 7 unknown #
point $-1 -48.413342692342908 15.156195980545156 9.8626304887010825 #
point $-1 -37.526318925462327 15.156195980545156 9.8626304887010825 #
edge $-1 $518 1 $518 0 $286 $-1 forward 7 unknown #
vertex $-1 $287 $519 #
ellipse-curve $-1 -42.454792727141353 17.433462463980774 5.7346712129302109 -0.51503808176128008 0 0.85716729658548041 0.4285836482927402 0 0.25751904088064004 1 I I #
point $-1 -42.541247160609892 17.433462463980774 6.8493575503963315 #
edge $-1 $520 1 $520 0 $290 $-1 forward 7 unknown #
vertex $-1 $291 $521 #
ellipse-curve $-1 -42.454792727141353 20.849362189134204 5.7346712129302109 -0.51503808176128008 0 0.85716729658548041 0.4285836482927402 0 0.25751904088064004 1 I I #
point $-1 -42.541247160609892 20.849362189134204 6.8493575503963315 #
edge $-1 $522 1 $522 0 $294 $-1 forward 7 unknown #
vertex $-1 $295 $523 #
ellipse-curve $-1 -42.454792727141353 24.265261914287635 5.7346712129302109 -0.51503808176128008 0 0.85716729658548041 0.4285836482927402 0 0.25751904088064004 1 I I #
point $-1 -42.541247160609892 24.265261914287635 6.8493575503963315 #
loop $-1 $-1 $306 $298 #
plane-surface $-1 48.413342692342908 0 0 -1 0 0 0 0 1 forward_v I I I I #
coedge $-1 $430 $301 $303 $434 reversed $192 $-1 #
coedge $-1 $301 $429 $524 $525 reversed $192 $-1 #
coedge $-1 $309 $304 $301 $432 forward $299 $-1 #
edge $-1 $435 29.883266501637117 $526 40.77029026851767 $431 $527 forward 7 unknown #
coedge $-1 $303 $302 $438 $528 reversed $120 $-1 #
edge $-1 $529 -96.826685384685803 $435 -84.125519800967282 $429 $530 forward 7 unknown #
vertex $-1 $305 $531 #
straight-curve $-1 37.526318925462348 10.424681094567102 9.8626304887010825 0 -1 0 I I #
coedge $-1 $524 $306 $309 $442 reversed $427 $-1 #
coedge $-1 $306 $524 $433 $528 forward $427 $-1 #
vertex $-1 $307 $532 #
straight-curve $-1 48.413342692342908 26.542528397723252 68.093572491342925 0 0 1 I I #
straight-curve $-1 -34.583325456181079 26.542528397723252 53.190476834161856 0.85716729658548041 0 -0.51503808176128008 I I #
edge $-1 $526 15.156195980545156 $310 26.542528397723252 $437 $533 forward 7 unknown #
point $-1 48.413342692342908 26.542528397723252 9.8626304887010825 #
point $-1 37.526318925462355 26.542528397723252 9.8626304887010861 #
edge $-1 $534 1 $534 0 $313 $-1 forward 7 unknown #
vertex $-1 $314 $535 #
ellipse-curve $-1 42.45479272714136 17.433462463980774 5.7346712129302038 0.51503808176128008 0 0.85716729658548041 0.4285836482927402 0 -0.25751904088064004 1 I I #
point $-1 43.398414457195379 17.433462463980774 6.3343194686350444 #
edge $-1 $536 1 $536 0 $317 $-1 forward 7 unknown #
vertex $-1 $318 $537 #
ellipse-curve $-1 42.45479272714136 20.849362189134204 5.7346712129302038 0.51503808176128008 0 0.85716729658548041 0.4285836482927402 0 -0.25751904088064004 1 I I #
point $-1 43.398414457195379 20.849362189134204 6.3343194686350444 #
edge $-1 $538 1 $538 0 $321 $-1 forward 7 unknown #
vertex $-1 $322 $539 #
ellipse-curve $-1 42.45479272714136 24.265261914287635 5.7346712129302038 0.51503808176128008 0 0.85716729658548041 0.4285836482927402 0 -0.25751904088064004 1 I I #
point $-1 43.398414457195379 24.265261914287635 6.3343194686350444 #
plane-surface $-1 48.413342692342908 0 0 -1 0 0 0 0 1 forward_v I I I I #
coedge $-1 $330 $328 $332 $462 reversed $221 $-1 #
edge $-1 $343 -9.8626304887010825 $464 9.8626304887010825 $342 $540 forward 7 unknown #
vertex $-1 $462 $541 #
straight-curve $-1 -48.413342692342908 -33.652200643875823 0 0 0 -1 I I #
edge $-1 $460 -33.652200643875823 $464 33.652200643875823 $458 $542 forward 7 unknown #
straight-curve $-1 0 -33.652200643875823 -9.8626304887010825 -1 0 0 I I #
vertex $-1 $335 $543 #
straight-curve $-1 0 33.652200643875823 -9.8626304887010825 1 0 0 I I #
point $-1 48.413342692342908 33.652200643875823 -9.8626304887010825 #
point $-1 48.413342692342908 -33.652200643875823 -9.8626304887010825 #
straight-curve $-1 -48.413342692342908 0 9.8626304887010825 0 -1 0 I I #
point $-1 -48.413342692342908 33.652200643875823 9.8626304887010825 #
point $-1 -48.413342692342908 -33.652200643875823 9.8626304887010825 #
straight-curve $-1 48.413342692342908 -33.652200643875823 0 0 0 -1 I I #
straight-curve $-1 48.413342692342908 33.652200643875823 0 0 0 -1 I I #
loop $-1 $-1 $481 $352 #
plane-surface $-1 -48.413342692342908 0 0 1 0 0 0 0 -1 forward_v I I I I #
coedge $-1 $356 $355 $487 $544 forward $147 $-1 #
edge $-1 $360 21.756725103916175 $490 33.652200643875823 $359 $545 forward 7 unknown #
coedge $-1 $484 $481 $356 $478 reversed $473 $-1 #
edge $-1 $546 -33.652200643875823 $479 -21.756725103916175 $477 $547 forward 7 unknown #
vertex $-1 $482 $548 #
straight-curve $-1 0 -21.756725103916175 -9.8626304887010825 1 0 0 I I #
coedge $-1 $477 $362 $358 $482 forward $473 $-1 #
edge $-1 $364 1.1914949772956831 $479 6.177922000035494 $481 $549 forward 7 unknown #
point $-1 48.413342692342908 -21.756725103916175 -9.8626304887010825 #
coedge $-1 $362 $477 $366 $488 reversed $473 $-1 #
straight-curve $-1 -48.413342692342908 -13.852231436947999 -4.8762034659612716 0 1 0 I I #
point $-1 -48.413342692342908 -21.756725103916175 -4.8762034659612716 #
coedge $-1 $367 $366 $475 $544 reversed $353 $-1 #
edge $-1 $368 4.8762034659612716 $546 9.8626304887010825 $484 $550 forward 7 unknown #
point $-1 -48.413342692342908 -33.652200643875823 -4.8762034659612716 #
vertex $-1 $370 $551 #
straight-curve $-1 48.413342692342908 -33.652200643875823 0 0 0 -1 I I #
plane-surface $-1 0 33.652200643875823 0 0 -1 0 0 0 -1 forward_v I I I I #
coedge $-1 $376 $380 $385 $503 forward $256 $-1 #
edge $-1 $552 -18.603518383476054 $390 -11.493846137323484 $376 $553 forward 7 unknown #
coedge $-1 $378 $377 $501 $554 reversed $155 $-1 #
edge $-1 $393 11.493846137323484 $555 18.603518383476054 $392 $556 forward 7 unknown #
straight-curve $-1 -33.046934787633276 26.542528397723252 0 0 0 -1 I I #
straight-curve $-1 -38.166761811367749 15.048682260399769 -9.8626304887010825 0 1 0 I I #
coedge $-1 $382 $392 $384 $502 forward $374 $-1 #
straight-curve $-1 -38.166761811367749 15.048682260399769 9.8626304887010825 0 -1 0 I I #
coedge $-1 $385 $384 $495 $554 forward $386 $-1 #
edge $-1 $555 33.046934787633276 $388 38.166761811367749 $384 $557 forward 7 unknown #
edge $-1 $387 -38.166761811367749 $552 -33.046934787633276 $385 $558 forward 7 unknown #
point $-1 -38.166761811367749 33.652200643875823 -9.8626304887010825 #
point $-1 -38.166761811367749 33.652200643875823 9.8626304887010825 #
point $-1 -33.046934787633276 26.542528397723252 -9.8626304887010825 #
point $-1 -33.046934787633276 26.542528397723252 9.8626304887010825 #
coedge $-1 $405 $402 $399 $509 reversed $397 $-1 #
edge $-1 $407 19.722894775712078 $511 30.609918542592652 $399 $559 forward 7 unknown #
edge $-1 $512 -16.11784730315615 $409 -4.7315148859780543 $400 $560 forward 7 unknown #
vertex $-1 $412 $561 #
vertex $-1 $510 $562 #
straight-curve $-1 -48.413342692342908 26.542528397723252 43.158857339427144 0 0 -1 I I #
straight-curve $-1 -44.441725421380617 26.542528397723252 5.7074349855067261 -0.85716729658548041 0 -0.51503808176128008 I I #
point $-1 -37.526318925462334 26.542528397723252 9.8626304887010825 #
point $-1 -48.413342692342908 15.156195980545156 3.3210465303302881 #
straight-curve $-1 -48.413342692342908 0 9.8626304887010825 0 -1 0 I I #
vertex $-1 $415 $563 #
point $-1 -42.026209078848616 17.433462463980774 5.9921902538108514 #
vertex $-1 $419 $564 #
point $-1 -42.026209078848616 20.849362189134204 5.9921902538108514 #
vertex $-1 $423 $565 #
point $-1 -42.026209078848616 24.265261914287635 5.9921902538108514 #
coedge $-1 $438 $437 $430 $525 forward $427 $-1 #
edge $-1 $526 58.230942002641839 $529 64.772525961012619 $524 $566 forward 7 unknown #
vertex $-1 $442 $567 #
straight-curve $-1 7.6430524238252389 15.156195980545156 9.8626304887010861 1 0 0 I I #
edge $-1 $529 4.7315148859780543 $439 16.11784730315615 $438 $568 forward 7 unknown #
vertex $-1 $528 $569 #
straight-curve $-1 -34.583325456181079 15.156195980545156 53.190476834161856 -0.85716729658548041 0 0.51503808176128008 I I #
point $-1 37.526318925462355 15.156195980545156 9.8626304887010861 #
point $-1 48.413342692342901 26.542528397723252 3.3210465303303067 #
straight-curve $-1 48.413342692342908 0 9.8626304887010825 0 1 0 I I #
vertex $-1 $445 $570 #
point $-1 42.883376375434104 17.433462463980774 5.4771521720495642 #
vertex $-1 $449 $571 #
point $-1 42.883376375434104 20.849362189134204 5.4771521720495642 #
vertex $-1 $453 $572 #
point $-1 42.883376375434104 24.265261914287635 5.4771521720495642 #
straight-curve $-1 -48.413342692342908 33.652200643875823 0 0 0 -1 I I #
point $-1 -48.413342692342908 -33.652200643875823 -9.8626304887010825 #
straight-curve $-1 -48.413342692342908 0 -9.8626304887010825 0 1 0 I I #
point $-1 -48.413342692342908 33.652200643875823 -9.8626304887010825 #
edge $-1 $490 -48.413342692342908 $546 48.413342692342908 $487 $573 forward 7 unknown #
straight-curve $-1 48.413342692342908 0 -9.8626304887010825 0 -1 0 I I #
vertex $-1 $478 $574 #
straight-curve $-1 -48.413342692342908 0 -9.8626304887010825 0 1 0 I I #
point $-1 -48.413342692342908 -21.756725103916175 -9.8626304887010825 #
straight-curve $-1 -48.413342692342908 -21.756725103916175 -3.6847084886655885 0 0 -1 I I #
straight-curve $-1 -48.413342692342908 -33.652200643875823 0 0 0 -1 I I #
point $-1 48.413342692342908 -33.652200643875823 -9.8626304887010825 #
vertex $-1 $554 $575 #
straight-curve $-1 -33.046934787633276 15.048682260399769 -9.8626304887010825 0 -1 0 I I #
edge $-1 $555 -9.8626304887010825 $552 9.8626304887010825 $501 $576 forward 7 unknown #
vertex $-1 $502 $577 #
straight-curve $-1 -33.046934787633276 15.048682260399769 9.8626304887010825 0 1 0 I I #
straight-curve $-1 0 33.652200643875823 9.8626304887010825 -1 0 0 I I #
straight-curve $-1 0 33.652200643875823 -9.8626304887010825 1 0 0 I I #
straight-curve $-1 -17.803424149750256 26.542528397723252 9.8626304887010825 -1 0 0 I I #
straight-curve $-1 -48.413342692342908 10.424681094567102 3.3210465303302903 0 -1 0 I I #
point $-1 -48.413342692342908 26.542528397723252 9.8626304887010825 #
point $-1 -48.413342692342908 26.542528397723252 3.3210465303302881 #
point $-1 -42.197273686260715 17.433462463980774 5.3060875646374708 #
point $-1 -42.197273686260715 20.849362189134204 5.3060875646374708 #
point $-1 -42.197273686260715 24.265261914287635 5.3060875646374708 #
straight-curve $-1 48.413342692342908 15.156195980545156 68.093572491342925 0 0 -1 I I #
point $-1 48.413342692342908 15.156195980545156 9.8626304887010825 #
straight-curve $-1 48.413342692342901 10.424681094567102 3.3210465303303032 0 1 0 I I #
point $-1 48.413342692342901 15.156195980545156 3.3210465303303067 #
point $-1 42.197273686260722 17.433462463980774 5.3060875646374637 #
point $-1 42.197273686260722 20.849362189134204 5.3060875646374637 #
point $-1 42.197273686260722 24.265261914287635 5.3060875646374637 #
straight-curve $-1 0 -33.652200643875823 -9.8626304887010825 -1 0 0 I I #
point $-1 -48.413342692342908 -33.652200643875823 -9.8626304887010825 #
point $-1 -33.046934787633276 33.652200643875823 -9.8626304887010825 #
straight-curve $-1 -33.046934787633276 33.652200643875823 0 0 0 -1 I I #
point $-1 -33.046934787633276 33.652200643875823 9.8626304887010825 #
End-of-ACIS-data 