500 0 7 0           
7 Unknown 11 ACIS 5.0 NT 24 Thu Mar 25 21:08:03 1999 
-1 9.9999999999999995e-007 1e-010 
body $-1 $7 $-1 $8 #
body $-1 $9 $-1 $10 #
body $-1 $11 $-1 $12 #
body $-1 $13 $-1 $14 #
body $-1 $15 $-1 $16 #
body $-1 $17 $-1 $18 #
body $-1 $19 $-1 $20 #
lump $-1 $-1 $21 $0 #
transform $-1 1 0 0 0 1 0 0 0 1 49.823297830133974 29.382775575106326 13.350614264194327 1 rotate no_reflect no_shear #
lump $-1 $-1 $22 $1 #
transform $-1 1 0 0 0 1 0 0 0 1 49.823297830133974 29.382775575106326 13.350614264194327 1 rotate no_reflect no_shear #
lump $-1 $-1 $23 $2 #
transform $-1 1 0 0 0 1 0 0 0 1 49.823297830133974 29.382775575106326 13.350614264194327 1 rotate no_reflect no_shear #
lump $-1 $-1 $24 $3 #
transform $-1 1 0 0 0 1 0 0 0 1 49.823297830133974 29.382775575106326 13.350614264194327 1 rotate no_reflect no_shear #
lump $-1 $-1 $25 $4 #
transform $-1 1 0 0 0 1 0 0 0 1 49.823297830133974 29.382775575106326 13.350614264194327 1 rotate no_reflect no_shear #
lump $-1 $-1 $26 $5 #
transform $-1 1 0 0 0 1 0 0 0 1 49.823297830133974 29.382775575106326 13.350614264194327 1 rotate no_reflect no_shear #
lump $-1 $-1 $27 $6 #
transform $-1 1 0 0 0 1 0 0 0 1 49.823297830133974 29.382775575106326 13.350614264194327 1 rotate no_reflect no_shear #
shell $-1 $-1 $-1 $28 $-1 $7 #
shell $-1 $-1 $-1 $29 $-1 $9 #
shell $-1 $-1 $-1 $30 $-1 $11 #
shell $-1 $-1 $-1 $31 $-1 $13 #
shell $-1 $-1 $-1 $32 $-1 $15 #
shell $-1 $-1 $-1 $33 $-1 $17 #
shell $-1 $-1 $-1 $34 $-1 $19 #
face $-1 $35 $36 $21 $-1 $37 forward single #
face $-1 $38 $39 $22 $-1 $40 reversed single #
face $-1 $41 $42 $23 $-1 $43 reversed single #
face $-1 $44 $45 $24 $-1 $46 forward single #
face $-1 $47 $48 $25 $-1 $49 reversed single #
face $-1 $50 $51 $26 $-1 $52 forward single #
face $-1 $53 $54 $27 $-1 $55 forward single #
face $-1 $56 $57 $21 $-1 $58 reversed single #
loop $-1 $-1 $59 $28 #
plane-surface $-1 0 0 13.350614264194327 0 0 1 1 0 0 forward_v I I I I #
face $-1 $60 $61 $22 $-1 $62 reversed single #
loop $-1 $-1 $63 $29 #
plane-surface $-1 0 -21.52923099895883 10.350614264194327 0 0 1 1 0 0 forward_v I I I I #
face $-1 $64 $65 $23 $-1 $66 reversed single #
loop $-1 $-1 $67 $30 #
plane-surface $-1 39.993107725913084 24.36210886750429 150.03273688915218 0 -1 0 -0.6560590369687036 0 -0.75470957328743171 forward_v I I I I #
face $-1 $68 $69 $24 $-1 $70 forward single #
loop $-1 $71 $72 $31 #
cone-surface $-1 46.667411670177096 18.354487978927363 10.350090315686115 -0.6560590369687036 0 -0.75470957328743171 0.75470957328743171 0 -0.6560590369687036 1 I I 0 1 1 forward I I I I #
face $-1 $73 $74 $25 $-1 $75 reversed single #
loop $-1 $-1 $76 $32 #
plane-surface $-1 -49.823297830133967 -9.1242172261558885 8.1593178027936375 -0.75470958851134928 0 0.65605901945558964 0.65605901945558964 0 0.75470958851134928 forward_v I I I I #
face $-1 $77 $78 $26 $-1 $79 forward single #
loop $-1 $80 $81 $33 #
cone-surface $-1 -47.098751406116143 -11.074846881865369 10.347979989960132 0.75470958851134928 0 -0.65605901945558964 0.65605901945558964 0 0.75470958851134928 1 I I 0 1 1 forward I I I I #
face $-1 $82 $83 $27 $-1 $84 forward single #
loop $-1 $85 $86 $34 #
cone-surface $-1 -47.098751406116143 -7.1735875704464149 10.347979989960132 0.75470958851134928 0 -0.65605901945558964 0.65605901945558964 0 0.75470958851134928 1 I I 0 1 1 forward I I I I #
face $-1 $87 $88 $21 $-1 $89 reversed single #
loop $-1 $-1 $90 $35 #
plane-surface $-1 0 0 -13.350614264194327 0 0 1 1 0 0 forward_v I I I I #
coedge $-1 $91 $92 $93 $94 forward $36 $-1 #
face $-1 $95 $96 $22 $-1 $97 reversed single #
loop $-1 $-1 $98 $38 #
plane-surface $-1 0 -13.675686422811337 11.850614264194327 0 -1 0 0 0 -1 forward_v I I I I #
coedge $-1 $99 $100 $101 $102 reversed $39 $-1 #
face $-1 $103 $104 $23 $-1 $105 reversed single #
loop $-1 $-1 $106 $41 #
plane-surface $-1 -25.380941860172108 18.354487978927363 74.828497198846108 0.6560590369687036 0 0.75470957328743171 0.75470957328743171 0 -0.6560590369687036 forward_v I I I I #
coedge $-1 $107 $108 $109 $110 reversed $42 $-1 #
face $-1 $-1 $111 $24 $-1 $112 forward single #
loop $-1 $113 $114 $44 #
cone-surface $-1 45.424509456428318 18.354487978927363 8.9202949062508949 -0.6560590369687036 0 -0.75470957328743171 0.37735478664371586 0 -0.3280295184843518 1 I I -0.70710678118654746 0.70710678118654746 0.5 forward I I I I #
loop $-1 $-1 $115 $31 #
coedge $-1 $72 $72 $116 $117 reversed $45 $-1 #
face $-1 $118 $119 $25 $-1 $120 forward single #
loop $-1 $-1 $121 $47 #
plane-surface $-1 -125.02753903745159 -4.5727480295004401 73.533365643756639 0 -1 0 0.75470958851134928 0 -0.65605901945558964 forward_v I I I I #
coedge $-1 $122 $123 $124 $125 reversed $48 $-1 #
face $-1 $-1 $126 $26 $-1 $127 forward single #
loop $-1 $128 $129 $50 #
cone-surface $-1 -46.253212713253021 -11.074846881865369 9.6129644366984834 0.75470958851134928 0 -0.65605901945558964 0.32802950972779482 0 0.37735479425567464 1 I I -0.70710678118654746 0.70710678118654746 0.5 forward I I I I #
loop $-1 $-1 $130 $33 #
coedge $-1 $81 $81 $131 $132 reversed $51 $-1 #
face $-1 $-1 $133 $27 $-1 $134 forward single #
loop $-1 $135 $136 $53 #
cone-surface $-1 -46.253212713253021 -7.1735875704464149 9.6129644366984834 0.75470958851134928 0 -0.65605901945558964 0.32802950972779482 0 0.37735479425567464 1 I I -0.70710678118654746 0.70710678118654746 0.5 forward I I I I #
loop $-1 $-1 $137 $34 #
coedge $-1 $86 $86 $138 $139 reversed $54 $-1 #
face $-1 $140 $141 $21 $-1 $142 reversed single #
loop $-1 $-1 $143 $56 #
plane-surface $-1 0 -29.382775575106326 0 0 1 0 0 0 1 forward_v I I I I #
coedge $-1 $144 $145 $146 $147 forward $57 $-1 #
coedge $-1 $148 $59 $149 $150 forward $36 $-1 #
coedge $-1 $59 $148 $151 $152 forward $36 $-1 #
coedge $-1 $153 $154 $59 $94 reversed $155 $-1 #
edge $-1 $156 -29.382775575106326 $157 29.382775575106326 $93 $158 forward 7 unknown #
face $-1 $159 $160 $22 $-1 $161 reversed single #
loop $-1 $-1 $162 $60 #
plane-surface $-1 -49.823297830133974 0 0 1 0 0 0 0 -1 forward_v I I I I #
coedge $-1 $163 $164 $165 $166 reversed $61 $-1 #
coedge $-1 $167 $63 $168 $169 reversed $39 $-1 #
coedge $-1 $63 $167 $163 $170 forward $39 $-1 #
coedge $-1 $165 $171 $63 $102 forward $172 $-1 #
edge $-1 $173 -18.618160075626907 $174 -2.9110709233319216 $101 $175 forward 7 unknown #
face $-1 $176 $177 $23 $-1 $178 reversed single #
loop $-1 $-1 $179 $64 #
plane-surface $-1 39.993107725913084 12.346867090350436 150.03273688915218 0 1 0 0.6560590369687036 0 0.75470957328743171 forward_v I I I I #
coedge $-1 $180 $181 $182 $183 reversed $65 $-1 #
coedge $-1 $108 $67 $184 $185 reversed $42 $-1 #
coedge $-1 $67 $107 $180 $186 reversed $42 $-1 #
coedge $-1 $182 $187 $67 $110 forward $188 $-1 #
edge $-1 $189 -29.826743967177432 $190 -25.344717037792545 $109 $191 forward 7 unknown #
loop $-1 $-1 $116 $68 #
plane-surface $-1 -25.380941860172108 18.354487978927363 74.828497198846108 0.6560590369687036 0 0.75470957328743171 0.75470957328743171 0 -0.6560590369687036 forward_v I I I I #
loop $-1 $-1 $192 $44 #
coedge $-1 $114 $114 $115 $193 reversed $69 $-1 #
coedge $-1 $115 $115 $114 $193 forward $71 $-1 #
coedge $-1 $116 $116 $72 $117 forward $111 $-1 #
edge $-1 $194 0 $194 6.2831853071796004 $116 $195 forward 7 unknown #
face $-1 $196 $197 $25 $-1 $198 reversed single #
loop $-1 $-1 $124 $73 #
plane-surface $-1 0 0 13.350614264194327 0 0 1 1 0 0 forward_v I I I I #
coedge $-1 $199 $200 $201 $202 reversed $74 $-1 #
coedge $-1 $203 $76 $204 $205 reversed $48 $-1 #
coedge $-1 $76 $203 $199 $206 forward $48 $-1 #
coedge $-1 $201 $207 $76 $125 forward $119 $-1 #
edge $-1 $208 -9.1135778097333926 $209 -0.010639416422495884 $124 $210 forward 7 unknown #
loop $-1 $-1 $131 $77 #
plane-surface $-1 -49.823297830133967 -9.1242172261558885 8.1593178027936375 -0.75470958851134928 0 0.65605901945558964 0.65605901945558964 0 0.75470958851134928 forward_v I I I I #
loop $-1 $-1 $211 $50 #
coedge $-1 $129 $129 $130 $212 reversed $78 $-1 #
coedge $-1 $130 $130 $129 $212 forward $80 $-1 #
coedge $-1 $131 $131 $81 $132 forward $126 $-1 #
edge $-1 $213 0 $213 6.2831853071796004 $131 $214 forward 7 unknown #
loop $-1 $-1 $138 $82 #
plane-surface $-1 -49.823297830133967 -9.1242172261558885 8.1593178027936375 -0.75470958851134928 0 0.65605901945558964 0.65605901945558964 0 0.75470958851134928 forward_v I I I I #
loop $-1 $-1 $215 $53 #
coedge $-1 $136 $136 $137 $216 reversed $83 $-1 #
coedge $-1 $137 $137 $136 $216 forward $85 $-1 #
coedge $-1 $138 $138 $86 $139 forward $133 $-1 #
edge $-1 $217 0 $217 6.2831853071796004 $138 $218 forward 7 unknown #
face $-1 $219 $220 $21 $-1 $221 reversed single #
loop $-1 $-1 $222 $87 #
plane-surface $-1 -49.823297830133974 0 0 1 0 0 0 0 -1 forward_v I I I I #
coedge $-1 $223 $151 $224 $225 forward $88 $-1 #
coedge $-1 $226 $90 $223 $227 forward $57 $-1 #
coedge $-1 $90 $226 $228 $229 forward $57 $-1 #
coedge $-1 $154 $153 $90 $147 reversed $155 $-1 #
edge $-1 $230 -29.382775575106326 $231 29.382775575106326 $146 $232 forward 7 unknown #
coedge $-1 $92 $91 $233 $234 forward $36 $-1 #
coedge $-1 $235 $236 $91 $150 reversed $220 $-1 #
edge $-1 $157 -49.823297830133974 $237 49.823297830133974 $149 $238 forward 7 unknown #
coedge $-1 $143 $239 $92 $152 reversed $88 $-1 #
edge $-1 $240 -49.823297830133974 $156 49.823297830133974 $151 $241 forward 7 unknown #
coedge $-1 $146 $93 $239 $242 forward $155 $-1 #
coedge $-1 $93 $146 $235 $243 reversed $155 $-1 #
loop $-1 $-1 $153 $219 #
vertex $-1 $94 $244 #
vertex $-1 $94 $245 #
straight-curve $-1 49.823297830133974 0 13.350614264194327 0 1 0 I I #
face $-1 $246 $247 $22 $-1 $248 forward single #
loop $-1 $-1 $168 $95 #
plane-surface $-1 0 -29.382775575106326 0 0 1 0 0 0 1 forward_v I I I I #
coedge $-1 $249 $250 $251 $252 forward $96 $-1 #
coedge $-1 $251 $98 $100 $170 reversed $61 $-1 #
coedge $-1 $98 $251 $253 $254 reversed $61 $-1 #
coedge $-1 $255 $101 $98 $166 forward $172 $-1 #
edge $-1 $174 4.4253071320971635 $256 7.4253071320971635 $165 $257 forward 7 unknown #
coedge $-1 $100 $99 $249 $258 reversed $39 $-1 #
coedge $-1 $259 $260 $99 $169 forward $160 $-1 #
edge $-1 $261 -49.823297830133974 $173 49.823297830133974 $168 $262 forward 7 unknown #
edge $-1 $263 -49.823297830133974 $174 49.823297830133974 $163 $264 forward 7 unknown #
coedge $-1 $101 $255 $259 $265 forward $172 $-1 #
loop $-1 $-1 $165 $246 #
vertex $-1 $169 $266 #
vertex $-1 $102 $267 #
straight-curve $-1 49.823297830133974 -10.764615499479415 10.350614264194327 0 1 0 I I #
face $-1 $-1 $188 $23 $-1 $268 forward single #
loop $-1 $-1 $269 $103 #
plane-surface $-1 49.823297830133974 0 0 -1 0 0 0 0 1 forward_v I I I I #
coedge $-1 $270 $271 $272 $273 reversed $104 $-1 #
coedge $-1 $274 $106 $108 $186 forward $65 $-1 #
coedge $-1 $106 $274 $270 $275 forward $65 $-1 #
coedge $-1 $272 $109 $106 $183 forward $188 $-1 #
edge $-1 $190 -15.184864878040608 $276 -3.1696231008867546 $182 $277 forward 7 unknown #
coedge $-1 $278 $279 $107 $185 forward $177 $-1 #
edge $-1 $280 -65.561920831815172 $189 -61.665754180381761 $184 $281 forward 7 unknown #
edge $-1 $190 93.707851687720137 $280 99.646595660267963 $108 $282 forward 7 unknown #
coedge $-1 $109 $272 $278 $283 forward $188 $-1 #
loop $-1 $-1 $272 $176 #
vertex $-1 $185 $284 #
vertex $-1 $110 $285 #
straight-curve $-1 19.996553862956542 24.36210886750429 13.35061426419432 -1 0 0 I I #
coedge $-1 $192 $192 $-1 $286 reversed $113 $-1 #
edge $-1 $287 0 $287 6.2831853071796004 $114 $288 forward 7 unknown #
vertex $-1 $117 $289 #
ellipse-curve $-1 47.582284365441524 18.354487978927363 11.402530938477623 0.6560590369687036 0 0.75470957328743171 0.75470957328743171 0 -0.6560590369687036 1 I I #
face $-1 $-1 $290 $25 $-1 $291 forward single #
loop $-1 $-1 $292 $118 #
plane-surface $-1 -49.823297830133974 0 0 1 0 0 0 0 -1 forward_v I I I I #
coedge $-1 $200 $121 $123 $206 reversed $74 $-1 #
coedge $-1 $121 $199 $292 $293 reversed $74 $-1 #
coedge $-1 $294 $124 $121 $202 forward $119 $-1 #
edge $-1 $209 -17.203196739412604 $295 -12.690471688591821 $201 $296 forward 7 unknown #
coedge $-1 $123 $122 $297 $298 reversed $48 $-1 #
coedge $-1 $299 $300 $122 $205 forward $290 $-1 #
edge $-1 $301 -17.73644037696932 $208 -10.857905188831015 $204 $302 forward 7 unknown #
edge $-1 $303 -1.1364747401606058e-014 $209 6.8785351881382946 $199 $304 forward 7 unknown #
coedge $-1 $124 $294 $299 $305 forward $119 $-1 #
vertex $-1 $205 $306 #
vertex $-1 $125 $307 #
straight-curve $-1 -45.31057277931319 -4.5621086130779442 13.350614264194327 0 1 0 I I #
coedge $-1 $211 $211 $-1 $308 reversed $128 $-1 #
edge $-1 $309 0 $309 6.2831853071796004 $129 $310 forward 7 unknown #
vertex $-1 $132 $311 #
ellipse-curve $-1 -47.566935304723579 -11.074846881865369 10.754966033493977 -0.75470958851134928 0 0.65605901945558964 0.65605901945558964 0 0.75470958851134928 1 I I #
coedge $-1 $215 $215 $-1 $312 reversed $135 $-1 #
edge $-1 $313 0 $313 6.2831853071796004 $136 $314 forward 7 unknown #
vertex $-1 $139 $315 #
ellipse-curve $-1 -47.566935304723579 -7.1735875704464149 10.754966033493977 -0.75470958851134928 0 0.65605901945558964 0.65605901945558964 0 0.75470958851134928 1 I I #
face $-1 $-1 $155 $21 $-1 $316 reversed single #
loop $-1 $-1 $235 $140 #
plane-surface $-1 0 29.382775575106326 0 0 -1 0 0 0 -1 forward_v I I I I #
coedge $-1 $317 $233 $236 $318 forward $141 $-1 #
coedge $-1 $239 $143 $144 $227 reversed $88 $-1 #
coedge $-1 $233 $317 $143 $225 reversed $141 $-1 #
edge $-1 $240 -13.350614264194327 $319 13.350614264194327 $224 $320 forward 7 unknown #
coedge $-1 $145 $144 $317 $321 forward $57 $-1 #
edge $-1 $231 -49.823297830133974 $319 49.823297830133974 $223 $322 forward 7 unknown #
coedge $-1 $236 $235 $145 $229 reversed $220 $-1 #
edge $-1 $323 -49.823297830133974 $230 49.823297830133974 $228 $324 forward 7 unknown #
vertex $-1 $147 $325 #
vertex $-1 $242 $326 #
straight-curve $-1 49.823297830133974 0 -13.350614264194327 0 -1 0 I I #
coedge $-1 $222 $224 $148 $234 reversed $141 $-1 #
edge $-1 $237 -29.382775575106326 $240 29.382775575106326 $233 $327 forward 7 unknown #
coedge $-1 $228 $149 $154 $243 forward $220 $-1 #
coedge $-1 $149 $228 $222 $318 reversed $220 $-1 #
vertex $-1 $150 $328 #
straight-curve $-1 0 29.382775575106326 13.350614264194327 -1 0 0 I I #
coedge $-1 $151 $223 $153 $242 reversed $88 $-1 #
vertex $-1 $234 $329 #
straight-curve $-1 0 -29.382775575106326 13.350614264194327 1 0 0 I I #
edge $-1 $156 -13.350614264194327 $231 13.350614264194327 $153 $330 forward 7 unknown #
edge $-1 $157 -13.350614264194327 $230 13.350614264194327 $154 $331 forward 7 unknown #
point $-1 49.823297830133974 -29.382775575106326 13.350614264194327 #
point $-1 49.823297830133974 29.382775575106326 13.350614264194327 #
face $-1 $-1 $172 $22 $-1 $332 reversed single #
loop $-1 $-1 $253 $159 #
plane-surface $-1 0 0 13.350614264194327 0 0 1 1 0 0 forward_v I I I I #
coedge $-1 $333 $162 $167 $258 forward $96 $-1 #
coedge $-1 $162 $333 $334 $335 reversed $96 $-1 #
coedge $-1 $164 $163 $162 $252 reversed $61 $-1 #
edge $-1 $336 -7.4253071320971635 $263 -4.4253071320971635 $162 $337 forward 7 unknown #
coedge $-1 $334 $338 $164 $254 forward $247 $-1 #
edge $-1 $256 -49.823297830133974 $336 49.823297830133974 $253 $339 forward 7 unknown #
coedge $-1 $171 $165 $338 $340 reversed $172 $-1 #
vertex $-1 $166 $341 #
straight-curve $-1 49.823297830133974 -13.675686422811337 5.9253071320971635 0 0 1 I I #
edge $-1 $263 2.9110709233319216 $261 18.618160075626907 $249 $342 forward 7 unknown #
coedge $-1 $343 $168 $171 $265 reversed $160 $-1 #
coedge $-1 $168 $343 $333 $344 forward $160 $-1 #
vertex $-1 $169 $345 #
straight-curve $-1 0 -29.382775575106326 10.350614264194327 1 0 0 I I #
vertex $-1 $258 $346 #
straight-curve $-1 0 -13.675686422811337 10.350614264194327 1 0 0 I I #
edge $-1 $347 -13.350614264194327 $173 -10.350614264194327 $171 $348 forward 7 unknown #
point $-1 49.823297830133974 -29.382775575106322 10.350614264194327 #
point $-1 49.823297830133974 -13.675686422811337 10.350614264194327 #
plane-surface $-1 0 0 13.350614264194327 0 0 1 1 0 0 forward_v I I I I #
coedge $-1 $279 $278 $271 $349 forward $177 $-1 #
coedge $-1 $271 $179 $181 $275 reversed $104 $-1 #
coedge $-1 $179 $270 $269 $349 reversed $104 $-1 #
coedge $-1 $187 $182 $179 $273 forward $188 $-1 #
edge $-1 $276 25.344717037792545 $350 29.826743967177432 $272 $351 forward 7 unknown #
coedge $-1 $181 $180 $279 $352 reversed $65 $-1 #
edge $-1 $353 -99.646595660267963 $276 -93.707851687720137 $270 $354 forward 7 unknown #
vertex $-1 $183 $355 #
straight-curve $-1 45.341270900749088 9.1772439894636815 13.350614264194327 0 -1 0 I I #
coedge $-1 $269 $184 $187 $283 reversed $177 $-1 #
coedge $-1 $184 $269 $274 $352 forward $177 $-1 #
vertex $-1 $185 $356 #
straight-curve $-1 49.823297830133974 24.36210886750429 75.016368444576088 0 0 1 I I #
straight-curve $-1 -25.380941860172108 24.36210886750429 74.828497198846108 0.75470957328743171 0 -0.6560590369687036 I I #
edge $-1 $350 12.346867090350436 $189 24.36210886750429 $278 $357 forward 7 unknown #
point $-1 49.823297830133974 24.36210886750429 13.350614264194327 #
point $-1 45.341270900749088 24.36210886750429 13.350614264194327 #
edge $-1 $358 1 $358 0 $192 $-1 forward 7 unknown #
vertex $-1 $193 $359 #
ellipse-curve $-1 45.752538974912667 18.354487978927363 9.2976496928946109 0.6560590369687036 0 0.75470957328743171 0.75470957328743171 0 -0.6560590369687036 1 I I #
point $-1 48.336993938728952 18.354487978927363 10.746471901508917 #
loop $-1 $-1 $204 $196 #
plane-surface $-1 0 -13.675686422811337 11.850614264194327 0 -1 0 0 0 -1 forward_v I I I I #
coedge $-1 $297 $360 $200 $293 forward $197 $-1 #
edge $-1 $295 23.416068557683992 $303 28.607365019084689 $292 $361 forward 7 unknown #
coedge $-1 $207 $201 $360 $362 forward $119 $-1 #
vertex $-1 $362 $363 #
straight-curve $-1 -62.513769518725795 -4.5727480295004401 13.350614264194327 -1 0 0 I I #
coedge $-1 $364 $292 $203 $298 forward $197 $-1 #
edge $-1 $303 0.010639416422495884 $301 9.1135778097333926 $297 $365 forward 7 unknown #
coedge $-1 $300 $204 $207 $305 reversed $290 $-1 #
coedge $-1 $204 $299 $364 $366 reversed $290 $-1 #
vertex $-1 $366 $367 #
straight-curve $-1 -38.187146147786954 -13.675686422811337 21.545179421352223 0.65605901945558975 0 0.75470958851134939 I I #
vertex $-1 $298 $368 #
straight-curve $-1 -49.823297830133967 -4.5727480295004401 8.1593178027936375 0.65605901945558964 0 0.75470958851134928 I I #
edge $-1 $369 -49.823297830133974 $208 -45.31057277931319 $207 $370 forward 7 unknown #
point $-1 -45.31057277931319 -13.675686422811337 13.350614264194327 #
point $-1 -45.31057277931319 -4.5727480295004401 13.350614264194327 #
edge $-1 $371 1 $371 0 $211 $-1 forward 7 unknown #
vertex $-1 $212 $372 #
ellipse-curve $-1 -46.630567507508694 -11.074846881865369 9.9409939464262784 -0.75470958851134928 0 0.65605901945558964 0.65605901945558964 0 0.75470958851134928 1 I I #
point $-1 -46.910876285267996 -11.074846881865369 11.509675622005334 #
edge $-1 $373 1 $373 0 $215 $-1 forward 7 unknown #
vertex $-1 $216 $374 #
ellipse-curve $-1 -46.630567507508694 -7.1735875704464149 9.9409939464262784 -0.75470958851134928 0 0.65605901945558964 0.65605901945558964 0 0.75470958851134928 1 I I #
point $-1 -46.910876285267996 -7.1735875704464149 11.509675622005334 #
plane-surface $-1 49.823297830133974 0 0 -1 0 0 0 0 1 forward_v I I I I #
coedge $-1 $224 $222 $226 $321 reversed $141 $-1 #
edge $-1 $237 -13.350614264194327 $323 13.350614264194327 $236 $375 forward 7 unknown #
vertex $-1 $321 $376 #
straight-curve $-1 -49.823297830133974 -29.382775575106326 0 0 0 -1 I I #
edge $-1 $319 -29.382775575106326 $323 29.382775575106326 $317 $377 forward 7 unknown #
straight-curve $-1 0 -29.382775575106326 -13.350614264194327 -1 0 0 I I #
vertex $-1 $229 $378 #
straight-curve $-1 0 29.382775575106326 -13.350614264194327 1 0 0 I I #
point $-1 49.823297830133974 29.382775575106326 -13.350614264194327 #
point $-1 49.823297830133974 -29.382775575106326 -13.350614264194327 #
straight-curve $-1 -49.823297830133974 0 13.350614264194327 0 -1 0 I I #
point $-1 -49.823297830133974 29.382775575106326 13.350614264194327 #
point $-1 -49.823297830133974 -29.382775575106326 13.350614264194327 #
straight-curve $-1 49.823297830133974 -29.382775575106326 0 0 0 -1 I I #
straight-curve $-1 49.823297830133974 29.382775575106326 0 0 0 -1 I I #
plane-surface $-1 49.823297830133974 0 0 -1 0 0 0 0 1 forward_v I I I I #
coedge $-1 $250 $249 $260 $344 reversed $96 $-1 #
coedge $-1 $379 $253 $250 $335 forward $247 $-1 #
edge $-1 $336 13.675686422811337 $380 29.382775575106326 $250 $381 forward 7 unknown #
vertex $-1 $335 $382 #
straight-curve $-1 -49.823297830133974 -13.675686422811337 5.9253071320971635 0 0 -1 I I #
coedge $-1 $253 $379 $255 $340 forward $247 $-1 #
straight-curve $-1 0 -13.675686422811337 13.350614264194327 -1 0 0 I I #
edge $-1 $347 -29.382775575106326 $256 -13.675686422811337 $255 $383 forward 7 unknown #
point $-1 49.823297830133974 -13.675686422811337 13.350614264194327 #
straight-curve $-1 -49.823297830133974 -10.764615499479415 10.350614264194327 0 -1 0 I I #
coedge $-1 $260 $259 $379 $384 reversed $160 $-1 #
edge $-1 $380 -13.350614264194327 $261 -10.350614264194327 $333 $385 forward 7 unknown #
point $-1 -49.823297830133974 -29.382775575106322 10.350614264194327 #
point $-1 -49.823297830133974 -13.675686422811337 10.350614264194327 #
vertex $-1 $340 $386 #
straight-curve $-1 49.823297830133974 -29.382775575106326 0 0 0 -1 I I #
edge $-1 $350 61.665754180381761 $353 65.561920831815172 $269 $387 forward 7 unknown #
vertex $-1 $283 $388 #
straight-curve $-1 19.996553862956542 12.346867090350436 13.35061426419432 1 0 0 I I #
edge $-1 $353 3.1696231008867546 $280 15.184864878040608 $279 $389 forward 7 unknown #
vertex $-1 $352 $390 #
straight-curve $-1 -25.380941860172108 12.346867090350436 74.828497198846108 -0.75470957328743171 0 0.6560590369687036 I I #
point $-1 45.341270900749088 12.346867090350436 13.350614264194327 #
point $-1 49.823297830133974 24.36210886750429 9.4544476127609158 #
straight-curve $-1 49.823297830133974 0 13.350614264194327 0 1 0 I I #
vertex $-1 $286 $391 #
point $-1 46.507248548200103 18.354487978927363 8.6415906559259064 #
coedge $-1 $292 $364 $294 $362 reversed $197 $-1 #
straight-curve $-1 -49.823297830133974 -4.5727480295004401 36.766682821878319 0 0 -1 I I #
edge $-1 $295 4.5727480295004401 $369 13.675686422811337 $360 $392 forward 7 unknown #
point $-1 -49.823297830133974 -4.5727480295004401 13.350614264194327 #
coedge $-1 $360 $297 $300 $366 forward $197 $-1 #
straight-curve $-1 -49.823297830133974 -4.5621086130779442 8.1593178027936268 0 -1 0 I I #
edge $-1 $301 -28.607365019084689 $369 -23.416068557683992 $364 $393 forward 7 unknown #
point $-1 -49.823297830133974 -13.675686422811337 8.1593178027936286 #
point $-1 -49.823297830133974 -4.5727480295004401 8.1593178027936286 #
vertex $-1 $366 $394 #
straight-curve $-1 0 -13.675686422811337 13.350614264194327 1 0 0 I I #
vertex $-1 $308 $395 #
point $-1 -45.974508488053104 -11.074846881865369 10.695703534937628 #
vertex $-1 $312 $396 #
point $-1 -45.974508488053104 -7.1735875704464149 10.695703534937628 #
straight-curve $-1 -49.823297830133974 29.382775575106326 0 0 0 -1 I I #
point $-1 -49.823297830133974 -29.382775575106326 -13.350614264194327 #
straight-curve $-1 -49.823297830133974 0 -13.350614264194327 0 1 0 I I #
point $-1 -49.823297830133974 29.382775575106326 -13.350614264194327 #
coedge $-1 $338 $334 $343 $384 forward $247 $-1 #
vertex $-1 $335 $397 #
straight-curve $-1 -49.823297830133974 0 13.350614264194327 0 -1 0 I I #
point $-1 -49.823297830133974 -13.675686422811337 13.350614264194327 #
straight-curve $-1 49.823297830133974 0 13.350614264194327 0 1 0 I I #
edge $-1 $380 -49.823297830133974 $347 49.823297830133974 $343 $398 forward 7 unknown #
straight-curve $-1 -49.823297830133974 -29.382775575106326 0 0 0 -1 I I #
point $-1 49.823297830133974 -29.382775575106326 13.350614264194327 #
straight-curve $-1 49.823297830133974 12.346867090350436 75.016368444576088 0 0 -1 I I #
point $-1 49.823297830133974 12.346867090350436 13.350614264194327 #
straight-curve $-1 49.823297830133974 9.1772439894636815 9.4544476127609052 0 1 0 I I #
point $-1 49.823297830133974 12.346867090350436 9.4544476127609158 #
point $-1 45.096479937943968 18.354487978927363 8.542940119607179 #
straight-curve $-1 -49.823297830133974 0 13.350614264194327 0 -1 0 I I #
straight-curve $-1 -49.823297830133974 -13.675686422811337 36.766682821878319 0 0 1 I I #
point $-1 -49.823297830133974 -13.675686422811337 13.350614264194327 #
point $-1 -45.875857918997347 -11.074846881865369 9.2849349269706885 #
point $-1 -45.875857918997347 -7.1735875704464149 9.2849349269706885 #
point $-1 -49.823297830133974 -29.382775575106326 13.350614264194327 #
straight-curve $-1 0 -29.382775575106326 13.350614264194327 1 0 0 I I #
End-of-ACIS-data 