500 0 15 0           
7 Unknown 11 ACIS 5.0 NT 24 Fri Mar 26 02:56:15 1999 
-1 9.9999999999999995e-007 1e-010 
body $-1 $15 $-1 $16 #
body $-1 $17 $-1 $18 #
body $-1 $19 $-1 $20 #
body $-1 $21 $-1 $22 #
body $-1 $23 $-1 $24 #
body $-1 $25 $-1 $26 #
body $-1 $27 $-1 $28 #
body $-1 $29 $-1 $30 #
body $-1 $31 $-1 $32 #
body $-1 $33 $-1 $34 #
body $-1 $35 $-1 $36 #
body $-1 $37 $-1 $38 #
body $-1 $39 $-1 $40 #
body $-1 $41 $-1 $42 #
body $-1 $43 $-1 $44 #
lump $-1 $-1 $45 $0 #
transform $-1 1 0 0 0 1 0 0 0 1 55.061494796594133 36.95961038401957 8.6036811464640053 1 rotate no_reflect no_shear #
lump $-1 $-1 $46 $1 #
transform $-1 1 0 0 0 1 0 0 0 1 55.061494796594133 36.95961038401957 8.6036811464640053 1 rotate no_reflect no_shear #
lump $-1 $-1 $47 $2 #
transform $-1 1 0 0 0 1 0 0 0 1 55.061494796594133 36.95961038401957 8.6036811464640053 1 rotate no_reflect no_shear #
lump $-1 $-1 $48 $3 #
transform $-1 1 0 0 0 1 0 0 0 1 55.061494796594133 36.95961038401957 8.6036811464640053 1 rotate no_reflect no_shear #
lump $-1 $-1 $49 $4 #
transform $-1 1 0 0 0 1 0 0 0 1 55.061494796594133 36.95961038401957 8.6036811464640053 1 rotate no_reflect no_shear #
lump $-1 $-1 $50 $5 #
transform $-1 1 0 0 0 1 0 0 0 1 55.061494796594133 36.95961038401957 8.6036811464640053 1 rotate no_reflect no_shear #
lump $-1 $-1 $51 $6 #
transform $-1 1 0 0 0 1 0 0 0 1 55.061494796594133 36.95961038401957 8.6036811464640053 1 rotate no_reflect no_shear #
lump $-1 $-1 $52 $7 #
transform $-1 1 0 0 0 1 0 0 0 1 55.061494796594133 36.95961038401957 8.6036811464640053 1 rotate no_reflect no_shear #
lump $-1 $-1 $53 $8 #
transform $-1 1 0 0 0 1 0 0 0 1 55.061494796594133 36.95961038401957 8.6036811464640053 1 rotate no_reflect no_shear #
lump $-1 $-1 $54 $9 #
transform $-1 1 0 0 0 1 0 0 0 1 55.061494796594133 36.95961038401957 8.6036811464640053 1 rotate no_reflect no_shear #
lump $-1 $-1 $55 $10 #
transform $-1 1 0 0 0 1 0 0 0 1 55.061494796594133 36.95961038401957 8.6036811464640053 1 rotate no_reflect no_shear #
lump $-1 $-1 $56 $11 #
transform $-1 1 0 0 0 1 0 0 0 1 55.061494796594133 36.95961038401957 8.6036811464640053 1 rotate no_reflect no_shear #
lump $-1 $-1 $57 $12 #
transform $-1 1 0 0 0 1 0 0 0 1 55.061494796594133 36.95961038401957 8.6036811464640053 1 rotate no_reflect no_shear #
lump $-1 $-1 $58 $13 #
transform $-1 1 0 0 0 1 0 0 0 1 55.061494796594133 36.95961038401957 8.6036811464640053 1 rotate no_reflect no_shear #
lump $-1 $-1 $59 $14 #
transform $-1 1 0 0 0 1 0 0 0 1 55.061494796594133 36.95961038401957 8.6036811464640053 1 rotate no_reflect no_shear #
shell $-1 $-1 $-1 $60 $-1 $15 #
shell $-1 $-1 $-1 $61 $-1 $17 #
shell $-1 $-1 $-1 $62 $-1 $19 #
shell $-1 $-1 $-1 $63 $-1 $21 #
shell $-1 $-1 $-1 $64 $-1 $23 #
shell $-1 $-1 $-1 $65 $-1 $25 #
shell $-1 $-1 $-1 $66 $-1 $27 #
shell $-1 $-1 $-1 $67 $-1 $29 #
shell $-1 $-1 $-1 $68 $-1 $31 #
shell $-1 $-1 $-1 $69 $-1 $33 #
shell $-1 $-1 $-1 $70 $-1 $35 #
shell $-1 $-1 $-1 $71 $-1 $37 #
shell $-1 $-1 $-1 $72 $-1 $39 #
shell $-1 $-1 $-1 $73 $-1 $41 #
shell $-1 $-1 $-1 $74 $-1 $43 #
face $-1 $75 $76 $45 $-1 $77 forward single #
face $-1 $78 $79 $46 $-1 $80 reversed single #
face $-1 $81 $82 $47 $-1 $83 reversed single #
face $-1 $84 $85 $48 $-1 $86 reversed single #
face $-1 $87 $88 $49 $-1 $89 forward single #
face $-1 $90 $91 $50 $-1 $92 forward single #
face $-1 $93 $94 $51 $-1 $95 reversed single #
face $-1 $96 $97 $52 $-1 $98 forward single #
face $-1 $99 $100 $53 $-1 $101 forward single #
face $-1 $102 $103 $54 $-1 $104 reversed single #
face $-1 $105 $106 $55 $-1 $107 forward single #
face $-1 $108 $109 $56 $-1 $110 forward single #
face $-1 $111 $112 $57 $-1 $113 reversed single #
face $-1 $114 $115 $58 $-1 $116 forward single #
face $-1 $117 $118 $59 $-1 $119 forward single #
face $-1 $120 $121 $45 $-1 $122 reversed single #
loop $-1 $-1 $123 $60 #
plane-surface $-1 0 0 8.6036811464640053 0 0 1 1 0 0 forward_v I I I I #
face $-1 $124 $125 $46 $-1 $126 reversed single #
loop $-1 $-1 $127 $61 #
plane-surface $-1 -51.027829024293844 -32.675860988832284 0 0 -1 0 0 0 -1 forward_v I I I I #
face $-1 $128 $129 $47 $-1 $130 reversed single #
loop $-1 $-1 $131 $62 #
plane-surface $-1 46.994163251993562 -34.817735686425927 0 1 0 0 0 0 -1 forward_v I I I I #
face $-1 $132 $133 $48 $-1 $134 reversed single #
loop $-1 $-1 $135 $63 #
plane-surface $-1 -1.7763568394002505e-015 -112.06330958467839 85.593917070436135 -1 0 0 0 -0.68199836817093118 0.7313536940579346 forward_v I I I I #
face $-1 $136 $137 $49 $-1 $138 forward single #
loop $-1 $139 $140 $64 #
cone-surface $-1 -16.69604158977436 -34.122647793171673 5.8275126797975494 0 0.68199836817093118 -0.7313536940579346 1 0 0 1 I I 0 1 1 forward I I I I #
face $-1 $141 $142 $50 $-1 $143 forward single #
loop $-1 $144 $145 $65 #
cone-surface $-1 -6.6784166359097412 -34.122647793171673 5.8275126797975494 0 0.68199836817093118 -0.7313536940579346 1 0 0 1 I I 0 1 1 forward I I I I #
face $-1 $146 $147 $51 $-1 $148 reversed single #
loop $-1 $-1 $149 $66 #
plane-surface $-1 23.619705026309454 -112.06330958467839 85.593917070436135 1 0 0 0 0.68199836817093118 -0.7313536940579346 forward_v I I I I #
face $-1 $150 $151 $52 $-1 $152 forward single #
loop $-1 $153 $154 $67 #
cone-surface $-1 30.298121662219188 -34.122647793171673 5.8275126797975494 0 0.68199836817093118 -0.7313536940579346 1 0 0 1 I I 0 1 1 forward I I I I #
face $-1 $155 $156 $53 $-1 $157 forward single #
loop $-1 $158 $159 $68 #
cone-surface $-1 40.315746616083814 -34.122647793171673 5.8275126797975494 0 0.68199836817093118 -0.7313536940579346 1 0 0 1 I I 0 1 1 forward I I I I #
face $-1 $160 $161 $54 $-1 $162 reversed single #
loop $-1 $-1 $163 $69 #
plane-surface $-1 -23.374458225684108 58.002214414088954 136.00670501070562 1 0 0 0 -0.68199836817093118 -0.7313536940579346 forward_v I I I I #
face $-1 $164 $165 $55 $-1 $166 forward single #
loop $-1 $167 $168 $70 #
cone-surface $-1 -16.69604158977436 34.122647793171666 5.8275126797975458 0 -0.68199836817093118 -0.7313536940579346 1 0 0 1 I I 0 1 1 forward I I I I #
face $-1 $169 $170 $56 $-1 $171 forward single #
loop $-1 $172 $173 $71 #
cone-surface $-1 -6.6784166359097412 34.122647793171666 5.8275126797975458 0 -0.68199836817093118 -0.7313536940579346 1 0 0 1 I I 0 1 1 forward I I I I #
face $-1 $174 $175 $57 $-1 $176 reversed single #
loop $-1 $-1 $177 $72 #
plane-surface $-1 23.619705026309454 58.002214414088954 136.00670501070562 1 0 0 0 -0.68199836817093118 -0.7313536940579346 forward_v I I I I #
face $-1 $178 $179 $58 $-1 $180 forward single #
loop $-1 $181 $182 $73 #
cone-surface $-1 30.298121662219188 34.122647793171666 5.8275126797975458 0 -0.68199836817093118 -0.7313536940579346 1 0 0 1 I I 0 1 1 forward I I I I #
face $-1 $183 $184 $59 $-1 $185 forward single #
loop $-1 $186 $187 $74 #
cone-surface $-1 40.315746616083814 34.122647793171666 5.8275126797975458 0 -0.68199836817093118 -0.7313536940579346 1 0 0 1 I I 0 1 1 forward I I I I #
face $-1 $188 $189 $45 $-1 $190 reversed single #
loop $-1 $-1 $191 $75 #
plane-surface $-1 0 0 -8.6036811464640053 0 0 1 1 0 0 forward_v I I I I #
coedge $-1 $192 $193 $194 $195 forward $76 $-1 #
face $-1 $196 $197 $46 $-1 $198 forward single #
loop $-1 $-1 $199 $78 #
plane-surface $-1 -46.994163251993555 -34.817735686425927 0 -1 0 0 0 0 1 forward_v I I I I #
coedge $-1 $200 $201 $202 $203 forward $79 $-1 #
face $-1 $204 $205 $47 $-1 $206 forward single #
loop $-1 $-1 $207 $81 #
plane-surface $-1 51.027829024293851 -32.675860988832284 0 0 -1 0 0 0 -1 forward_v I I I I #
coedge $-1 $208 $209 $210 $211 forward $82 $-1 #
face $-1 $212 $213 $48 $-1 $214 reversed single #
loop $-1 $-1 $215 $84 #
plane-surface $-1 -11.687229112842054 -36.959610384019555 5.0550618307544113 0 -0.68199836817093118 0.7313536940579346 1 0 0 forward_v I I I I #
coedge $-1 $216 $217 $218 $219 reversed $85 $-1 #
face $-1 $-1 $220 $49 $-1 $221 forward single #
loop $-1 $222 $223 $87 #
cone-surface $-1 -16.69604158977436 -32.847400134923042 4.4599770239569274 0 0.68199836817093118 -0.7313536940579346 0.5 0 0 1 I I -0.70710678118654746 0.70710678118654746 0.5 forward I I I I #
loop $-1 $-1 $224 $64 #
coedge $-1 $140 $140 $225 $226 reversed $88 $-1 #
face $-1 $-1 $227 $50 $-1 $228 forward single #
loop $-1 $229 $230 $90 #
cone-surface $-1 -6.6784166359097412 -32.847400134923042 4.4599770239569274 0 0.68199836817093118 -0.7313536940579346 0.5 0 0 1 I I -0.70710678118654746 0.70710678118654746 0.5 forward I I I I #
loop $-1 $-1 $231 $65 #
coedge $-1 $145 $145 $232 $233 reversed $91 $-1 #
face $-1 $234 $235 $51 $-1 $236 reversed single #
loop $-1 $-1 $237 $93 #
plane-surface $-1 35.306934139151508 -36.959610384019555 5.0550618307544113 0 -0.68199836817093118 0.7313536940579346 1 0 0 forward_v I I I I #
coedge $-1 $238 $239 $240 $241 reversed $94 $-1 #
face $-1 $-1 $242 $52 $-1 $243 forward single #
loop $-1 $244 $245 $96 #
cone-surface $-1 30.298121662219188 -32.847400134923042 4.4599770239569274 0 0.68199836817093118 -0.7313536940579346 0.5 0 0 1 I I -0.70710678118654746 0.70710678118654746 0.5 forward I I I I #
loop $-1 $-1 $246 $67 #
coedge $-1 $154 $154 $247 $248 reversed $97 $-1 #
face $-1 $-1 $249 $53 $-1 $250 forward single #
loop $-1 $251 $252 $99 #
cone-surface $-1 40.315746616083814 -32.847400134923042 4.4599770239569274 0 0.68199836817093118 -0.7313536940579346 0.5 0 0 1 I I -0.70710678118654746 0.70710678118654746 0.5 forward I I I I #
loop $-1 $-1 $253 $68 #
coedge $-1 $159 $159 $254 $255 reversed $100 $-1 #
face $-1 $256 $257 $54 $-1 $258 reversed single #
loop $-1 $-1 $259 $102 #
plane-surface $-1 -11.687229112842054 -17.101484786569884 55.467849771023893 0 0.68199836817093118 0.7313536940579346 1 0 0 forward_v I I I I #
coedge $-1 $260 $261 $262 $263 reversed $103 $-1 #
face $-1 $-1 $264 $55 $-1 $265 forward single #
loop $-1 $266 $267 $105 #
cone-surface $-1 -16.69604158977436 32.847400134923035 4.4599770239569239 0 -0.68199836817093118 -0.7313536940579346 0.5 0 0 1 I I -0.70710678118654746 0.70710678118654746 0.5 forward I I I I #
loop $-1 $-1 $268 $70 #
coedge $-1 $168 $168 $269 $270 reversed $106 $-1 #
face $-1 $-1 $271 $56 $-1 $272 forward single #
loop $-1 $273 $274 $108 #
cone-surface $-1 -6.6784166359097412 32.847400134923035 4.4599770239569239 0 -0.68199836817093118 -0.7313536940579346 0.5 0 0 1 I I -0.70710678118654746 0.70710678118654746 0.5 forward I I I I #
loop $-1 $-1 $275 $71 #
coedge $-1 $173 $173 $276 $277 reversed $109 $-1 #
face $-1 $278 $279 $57 $-1 $280 reversed single #
loop $-1 $-1 $281 $111 #
plane-surface $-1 35.306934139151508 -17.101484786569884 55.467849771023893 0 0.68199836817093118 0.7313536940579346 1 0 0 forward_v I I I I #
coedge $-1 $282 $283 $284 $285 reversed $112 $-1 #
face $-1 $-1 $286 $58 $-1 $287 forward single #
loop $-1 $288 $289 $114 #
cone-surface $-1 30.298121662219188 32.847400134923035 4.4599770239569239 0 -0.68199836817093118 -0.7313536940579346 0.5 0 0 1 I I -0.70710678118654746 0.70710678118654746 0.5 forward I I I I #
loop $-1 $-1 $290 $73 #
coedge $-1 $182 $182 $291 $292 reversed $115 $-1 #
face $-1 $-1 $293 $59 $-1 $294 forward single #
loop $-1 $295 $296 $117 #
cone-surface $-1 40.315746616083814 32.847400134923035 4.4599770239569239 0 -0.68199836817093118 -0.7313536940579346 0.5 0 0 1 I I -0.70710678118654746 0.70710678118654746 0.5 forward I I I I #
loop $-1 $-1 $297 $74 #
coedge $-1 $187 $187 $298 $299 reversed $118 $-1 #
face $-1 $300 $301 $45 $-1 $302 reversed single #
loop $-1 $-1 $303 $120 #
plane-surface $-1 0 -36.95961038401957 0 0 1 0 0 0 1 forward_v I I I I #
coedge $-1 $304 $305 $306 $307 forward $121 $-1 #
coedge $-1 $308 $123 $309 $310 forward $76 $-1 #
coedge $-1 $123 $308 $311 $312 forward $76 $-1 #
coedge $-1 $313 $314 $123 $195 reversed $315 $-1 #
edge $-1 $316 -36.95961038401957 $317 36.95961038401957 $194 $318 forward 7 unknown #
face $-1 $319 $320 $46 $-1 $321 reversed single #
loop $-1 $-1 $322 $124 #
plane-surface $-1 0 0 8.6036811464640053 0 0 1 1 0 0 forward_v I I I I #
coedge $-1 $323 $324 $325 $326 reversed $125 $-1 #
coedge $-1 $327 $127 $328 $329 reversed $79 $-1 #
coedge $-1 $127 $327 $330 $331 reversed $79 $-1 #
coedge $-1 $324 $323 $127 $203 reversed $125 $-1 #
edge $-1 $332 -8.6036811464640053 $333 8.6036811464640053 $202 $334 forward 7 unknown #
face $-1 $335 $336 $47 $-1 $337 reversed single #
loop $-1 $-1 $338 $128 #
plane-surface $-1 0 0 8.6036811464640053 0 0 1 1 0 0 forward_v I I I I #
coedge $-1 $339 $340 $341 $342 reversed $129 $-1 #
coedge $-1 $343 $131 $344 $345 reversed $82 $-1 #
coedge $-1 $131 $343 $346 $347 reversed $82 $-1 #
coedge $-1 $340 $339 $131 $211 reversed $129 $-1 #
edge $-1 $348 -8.6036811464640053 $349 8.6036811464640053 $210 $350 forward 7 unknown #
face $-1 $351 $352 $48 $-1 $353 forward single #
loop $-1 $-1 $354 $132 #
plane-surface $-1 -23.374458225684108 -112.06330958467839 85.593917070436135 1 0 0 0 0.68199836817093118 -0.7313536940579346 forward_v I I I I #
coedge $-1 $355 $356 $357 $358 reversed $133 $-1 #
coedge $-1 $217 $135 $359 $360 reversed $85 $-1 #
coedge $-1 $135 $216 $355 $361 reversed $85 $-1 #
coedge $-1 $357 $362 $135 $219 forward $352 $-1 #
edge $-1 $363 19.072044408319627 $364 22.877472641689089 $218 $365 forward 7 unknown #
loop $-1 $-1 $225 $136 #
plane-surface $-1 -11.687229112842054 -36.959610384019555 5.0550618307544113 0 -0.68199836817093118 0.7313536940579346 1 0 0 forward_v I I I I #
loop $-1 $-1 $366 $87 #
coedge $-1 $223 $223 $224 $367 reversed $137 $-1 #
coedge $-1 $224 $224 $223 $367 forward $139 $-1 #
coedge $-1 $225 $225 $140 $226 forward $220 $-1 #
edge $-1 $368 1.2114724657602437e-015 $368 6.2831853071796013 $225 $369 forward 7 unknown #
loop $-1 $-1 $232 $141 #
plane-surface $-1 -11.687229112842054 -36.959610384019555 5.0550618307544113 0 -0.68199836817093118 0.7313536940579346 1 0 0 forward_v I I I I #
loop $-1 $-1 $370 $90 #
coedge $-1 $230 $230 $231 $371 reversed $142 $-1 #
coedge $-1 $231 $231 $230 $371 forward $144 $-1 #
coedge $-1 $232 $232 $145 $233 forward $227 $-1 #
edge $-1 $372 1.2114724657602437e-015 $372 6.2831853071796013 $232 $373 forward 7 unknown #
face $-1 $374 $375 $51 $-1 $376 forward single #
loop $-1 $-1 $240 $146 #
plane-surface $-1 0 -36.95961038401957 0 0 1 0 0 0 1 forward_v I I I I #
coedge $-1 $377 $378 $379 $380 reversed $147 $-1 #
coedge $-1 $239 $149 $381 $382 reversed $94 $-1 #
coedge $-1 $149 $238 $377 $383 reversed $94 $-1 #
coedge $-1 $379 $384 $149 $241 forward $235 $-1 #
edge $-1 $385 34.193277388754062 $386 37.74189670446367 $240 $387 forward 7 unknown #
loop $-1 $-1 $247 $150 #
plane-surface $-1 35.306934139151508 -36.959610384019555 5.0550618307544113 0 -0.68199836817093118 0.7313536940579346 1 0 0 forward_v I I I I #
loop $-1 $-1 $388 $96 #
coedge $-1 $245 $245 $246 $389 reversed $151 $-1 #
coedge $-1 $246 $246 $245 $389 forward $153 $-1 #
coedge $-1 $247 $247 $154 $248 forward $242 $-1 #
edge $-1 $390 1.2114724657602437e-015 $390 6.2831853071796013 $247 $391 forward 7 unknown #
loop $-1 $-1 $254 $155 #
plane-surface $-1 35.306934139151508 -36.959610384019555 5.0550618307544113 0 -0.68199836817093118 0.7313536940579346 1 0 0 forward_v I I I I #
loop $-1 $-1 $392 $99 #
coedge $-1 $252 $252 $253 $393 reversed $156 $-1 #
coedge $-1 $253 $253 $252 $393 forward $158 $-1 #
coedge $-1 $254 $254 $159 $255 forward $249 $-1 #
edge $-1 $394 1.2114724657602437e-015 $394 6.2831853071796013 $254 $395 forward 7 unknown #
face $-1 $396 $397 $54 $-1 $398 reversed single #
loop $-1 $-1 $399 $160 #
plane-surface $-1 -1.7763568394002505e-015 58.002214414088954 136.00670501070562 -1 0 0 0 0.68199836817093118 0.7313536940579346 forward_v I I I I #
coedge $-1 $400 $401 $402 $403 reversed $161 $-1 #
coedge $-1 $261 $163 $404 $405 reversed $103 $-1 #
coedge $-1 $163 $260 $400 $406 reversed $103 $-1 #
coedge $-1 $402 $407 $163 $263 forward $408 $-1 #
edge $-1 $409 -7.9585031769750927 $410 -4.1530749436055956 $262 $411 forward 7 unknown #
loop $-1 $-1 $269 $164 #
plane-surface $-1 -11.687229112842054 -17.101484786569884 55.467849771023893 0 0.68199836817093118 0.7313536940579346 1 0 0 forward_v I I I I #
loop $-1 $-1 $412 $105 #
coedge $-1 $267 $267 $268 $413 reversed $165 $-1 #
coedge $-1 $268 $268 $267 $413 forward $167 $-1 #
coedge $-1 $269 $269 $168 $270 forward $264 $-1 #
edge $-1 $414 1.3071175984817761e-015 $414 6.2831853071796013 $269 $415 forward 7 unknown #
loop $-1 $-1 $276 $169 #
plane-surface $-1 -11.687229112842054 -17.101484786569884 55.467849771023893 0 0.68199836817093118 0.7313536940579346 1 0 0 forward_v I I I I #
loop $-1 $-1 $416 $108 #
coedge $-1 $274 $274 $275 $417 reversed $170 $-1 #
coedge $-1 $275 $275 $274 $417 forward $172 $-1 #
coedge $-1 $276 $276 $173 $277 forward $271 $-1 #
edge $-1 $418 1.3071175984817761e-015 $418 6.2831853071796013 $276 $419 forward 7 unknown #
face $-1 $420 $421 $57 $-1 $422 forward single #
loop $-1 $-1 $423 $174 #
plane-surface $-1 46.994163251993562 58.002214414088954 136.00670501070562 -1 0 0 0 0.68199836817093118 0.7313536940579346 forward_v I I I I #
coedge $-1 $424 $425 $426 $427 reversed $175 $-1 #
coedge $-1 $283 $177 $428 $429 reversed $112 $-1 #
coedge $-1 $177 $282 $424 $430 reversed $112 $-1 #
coedge $-1 $426 $431 $177 $285 forward $421 $-1 #
edge $-1 $432 -7.9585031769750927 $433 -4.1530749436055956 $284 $434 forward 7 unknown #
loop $-1 $-1 $291 $178 #
plane-surface $-1 35.306934139151508 -17.101484786569884 55.467849771023893 0 0.68199836817093118 0.7313536940579346 1 0 0 forward_v I I I I #
loop $-1 $-1 $435 $114 #
coedge $-1 $289 $289 $290 $436 reversed $179 $-1 #
coedge $-1 $290 $290 $289 $436 forward $181 $-1 #
coedge $-1 $291 $291 $182 $292 forward $286 $-1 #
edge $-1 $437 1.3071175984817761e-015 $437 6.2831853071796013 $291 $438 forward 7 unknown #
loop $-1 $-1 $298 $183 #
plane-surface $-1 35.306934139151508 -17.101484786569884 55.467849771023893 0 0.68199836817093118 0.7313536940579346 1 0 0 forward_v I I I I #
loop $-1 $-1 $439 $117 #
coedge $-1 $296 $296 $297 $440 reversed $184 $-1 #
coedge $-1 $297 $297 $296 $440 forward $186 $-1 #
coedge $-1 $298 $298 $187 $299 forward $293 $-1 #
edge $-1 $441 1.3071175984817761e-015 $441 6.2831853071796013 $298 $442 forward 7 unknown #
face $-1 $443 $444 $45 $-1 $445 reversed single #
loop $-1 $-1 $446 $188 #
plane-surface $-1 -55.061494796594133 0 0 1 0 0 0 0 -1 forward_v I I I I #
coedge $-1 $447 $311 $448 $449 forward $189 $-1 #
coedge $-1 $450 $191 $447 $451 forward $121 $-1 #
coedge $-1 $191 $450 $452 $453 forward $121 $-1 #
coedge $-1 $314 $313 $191 $307 reversed $315 $-1 #
edge $-1 $454 -36.95961038401957 $455 36.95961038401957 $306 $456 forward 7 unknown #
coedge $-1 $193 $192 $457 $458 forward $76 $-1 #
coedge $-1 $459 $460 $192 $310 reversed $444 $-1 #
edge $-1 $317 -55.061494796594133 $461 55.061494796594133 $309 $462 forward 7 unknown #
coedge $-1 $303 $463 $193 $312 reversed $189 $-1 #
edge $-1 $464 -55.061494796594133 $316 55.061494796594133 $311 $465 forward 7 unknown #
coedge $-1 $306 $194 $463 $466 forward $315 $-1 #
coedge $-1 $194 $306 $459 $467 reversed $315 $-1 #
loop $-1 $-1 $313 $443 #
vertex $-1 $195 $468 #
vertex $-1 $195 $469 #
straight-curve $-1 55.061494796594133 0 8.6036811464640053 0 1 0 I I #
face $-1 $470 $471 $46 $-1 $472 reversed single #
loop $-1 $-1 $473 $196 #
plane-surface $-1 -55.061494796594133 0 0 1 0 0 0 0 -1 forward_v I I I I #
coedge $-1 $330 $474 $324 $475 forward $197 $-1 #
coedge $-1 $202 $199 $476 $477 reversed $125 $-1 #
coedge $-1 $199 $202 $322 $475 reversed $125 $-1 #
coedge $-1 $478 $479 $199 $326 forward $480 $-1 #
edge $-1 $481 -8.6036811464640053 $482 8.6036811464640053 $325 $483 forward 7 unknown #
coedge $-1 $201 $200 $473 $484 reversed $79 $-1 #
coedge $-1 $476 $485 $200 $329 forward $471 $-1 #
edge $-1 $486 -29.547580284447211 $333 -21.480248739846633 $328 $487 forward 7 unknown #
coedge $-1 $488 $322 $201 $331 forward $197 $-1 #
edge $-1 $332 21.480248739846633 $489 29.547580284447211 $330 $490 forward 7 unknown #
vertex $-1 $331 $491 #
vertex $-1 $329 $492 #
straight-curve $-1 -46.994163251993555 -32.675860988832284 0 0 0 -1 I I #
face $-1 $493 $494 $47 $-1 $495 reversed single #
loop $-1 $-1 $496 $204 #
plane-surface $-1 0 -36.95961038401957 0 0 1 0 0 0 1 forward_v I I I I #
coedge $-1 $346 $497 $340 $498 forward $205 $-1 #
coedge $-1 $210 $207 $499 $500 reversed $129 $-1 #
coedge $-1 $207 $210 $338 $498 reversed $129 $-1 #
coedge $-1 $501 $502 $207 $342 forward $503 $-1 #
edge $-1 $504 -8.6036811464640053 $505 8.6036811464640053 $341 $506 forward 7 unknown #
coedge $-1 $209 $208 $496 $507 reversed $82 $-1 #
coedge $-1 $499 $508 $208 $345 forward $494 $-1 #
edge $-1 $509 -19.550742540806606 $349 -15.26699314561932 $344 $510 forward 7 unknown #
coedge $-1 $511 $338 $209 $347 forward $205 $-1 #
edge $-1 $348 15.26699314561932 $512 19.550742540806606 $346 $513 forward 7 unknown #
vertex $-1 $347 $514 #
vertex $-1 $345 $515 #
straight-curve $-1 46.994163251993562 -32.675860988832284 0 0 0 -1 I I #
face $-1 $-1 $516 $48 $-1 $517 reversed single #
loop $-1 $-1 $218 $212 #
plane-surface $-1 0 0 8.6036811464640053 0 0 1 1 0 0 forward_v I I I I #
coedge $-1 $518 $519 $520 $521 reversed $213 $-1 #
coedge $-1 $522 $215 $217 $361 forward $133 $-1 #
coedge $-1 $215 $522 $518 $523 forward $133 $-1 #
coedge $-1 $520 $218 $215 $358 forward $352 $-1 #
edge $-1 $364 -5.8436145564210253 $524 17.530843669263081 $357 $525 forward 7 unknown #
coedge $-1 $526 $527 $216 $360 forward $516 $-1 #
edge $-1 $528 -37.74189670446367 $363 -34.193277388754062 $359 $529 forward 7 unknown #
edge $-1 $364 -5.2032665785208945 $528 1.9479204584885432e-014 $217 $530 forward 7 unknown #
coedge $-1 $218 $520 $526 $531 forward $352 $-1 #
vertex $-1 $360 $532 #
vertex $-1 $219 $533 #
straight-curve $-1 -1.7763568394002505e-015 -56.031654792339197 8.6036811464640053 0 1 0 I I #
coedge $-1 $366 $366 $-1 $534 reversed $222 $-1 #
edge $-1 $535 0 $535 6.2831853071796004 $223 $536 forward 7 unknown #
vertex $-1 $226 $537 #
ellipse-curve $-1 -16.69604158977436 -35.056896267334842 6.8293714886092021 0 -0.68199836817093118 0.7313536940579346 1 0 0 1 I I #
coedge $-1 $370 $370 $-1 $538 reversed $229 $-1 #
edge $-1 $539 0 $539 6.2831853071796004 $230 $540 forward 7 unknown #
vertex $-1 $233 $541 #
ellipse-curve $-1 -6.6784166359097412 -35.056896267334842 6.8293714886092021 0 -0.68199836817093118 0.7313536940579346 1 0 0 1 I I #
face $-1 $-1 $542 $51 $-1 $543 forward single #
loop $-1 $-1 $381 $234 #
plane-surface $-1 0 0 8.6036811464640053 0 0 1 1 0 0 forward_v I I I I #
coedge $-1 $544 $237 $239 $383 forward $147 $-1 #
coedge $-1 $237 $544 $545 $546 reversed $147 $-1 #
coedge $-1 $547 $240 $237 $380 forward $235 $-1 #
edge $-1 $386 5.9662379567336998 $548 29.340696182417808 $379 $549 forward 7 unknown #
coedge $-1 $550 $551 $238 $382 forward $375 $-1 #
edge $-1 $552 -22.877472641689089 $385 -19.072044408319627 $381 $553 forward 7 unknown #
edge $-1 $386 -1.9479204584885432e-014 $552 5.2032665785208945 $239 $554 forward 7 unknown #
coedge $-1 $240 $547 $550 $555 reversed $235 $-1 #
vertex $-1 $555 $556 #
vertex $-1 $241 $557 #
straight-curve $-1 23.619705026309454 -36.95961038401957 42.796958535218067 0 0 -1 I I #
coedge $-1 $388 $388 $-1 $558 reversed $244 $-1 #
edge $-1 $559 0 $559 6.2831853071796004 $245 $560 forward 7 unknown #
vertex $-1 $248 $561 #
ellipse-curve $-1 30.298121662219188 -35.056896267334842 6.8293714886092021 0 -0.68199836817093118 0.7313536940579346 1 0 0 1 I I #
coedge $-1 $392 $392 $-1 $562 reversed $251 $-1 #
edge $-1 $563 0 $563 6.2831853071796004 $252 $564 forward 7 unknown #
vertex $-1 $255 $565 #
ellipse-curve $-1 40.315746616083814 -35.056896267334842 6.8293714886092021 0 -0.68199836817093118 0.7313536940579346 1 0 0 1 I I #
face $-1 $-1 $408 $54 $-1 $566 forward single #
loop $-1 $-1 $567 $256 #
plane-surface $-1 0 36.95961038401957 0 0 -1 0 0 0 -1 forward_v I I I I #
coedge $-1 $568 $569 $570 $571 reversed $257 $-1 #
coedge $-1 $572 $259 $261 $406 forward $161 $-1 #
coedge $-1 $259 $572 $568 $573 forward $161 $-1 #
coedge $-1 $570 $262 $259 $403 forward $408 $-1 #
edge $-1 $410 -17.530843669263081 $574 5.8436145564210253 $402 $575 forward 7 unknown #
coedge $-1 $576 $577 $260 $405 forward $397 $-1 #
edge $-1 $578 -62.948290674598447 $409 -59.399671358888803 $404 $579 forward 7 unknown #
edge $-1 $410 68.715954189518214 $578 73.919220768039182 $261 $580 forward 7 unknown #
coedge $-1 $262 $570 $576 $581 forward $408 $-1 #
loop $-1 $-1 $570 $396 #
vertex $-1 $405 $582 #
vertex $-1 $263 $583 #
straight-curve $-1 -23.374458225684108 29.001107207044477 8.6036811464640053 0 -1 0 I I #
coedge $-1 $412 $412 $-1 $584 reversed $266 $-1 #
edge $-1 $585 0 $585 6.2831853071796004 $267 $586 forward 7 unknown #
vertex $-1 $270 $587 #
ellipse-curve $-1 -16.69604158977436 35.056896267334821 6.829371488609187 0 0.68199836817093118 0.7313536940579346 1 0 0 1 I I #
coedge $-1 $416 $416 $-1 $588 reversed $273 $-1 #
edge $-1 $589 0 $589 6.2831853071796004 $274 $590 forward 7 unknown #
vertex $-1 $277 $591 #
ellipse-curve $-1 -6.6784166359097412 35.056896267334821 6.829371488609187 0 0.68199836817093118 0.7313536940579346 1 0 0 1 I I #
face $-1 $-1 $592 $57 $-1 $593 reversed single #
loop $-1 $-1 $284 $278 #
plane-surface $-1 0 0 8.6036811464640053 0 0 1 1 0 0 forward_v I I I I #
coedge $-1 $594 $595 $596 $597 reversed $279 $-1 #
coedge $-1 $598 $281 $283 $430 forward $175 $-1 #
coedge $-1 $281 $598 $594 $599 forward $175 $-1 #
coedge $-1 $596 $284 $281 $427 forward $421 $-1 #
edge $-1 $433 5.9662379567336998 $600 29.340696182417808 $426 $601 forward 7 unknown #
coedge $-1 $602 $603 $282 $429 forward $592 $-1 #
edge $-1 $604 -62.948290674598447 $432 -59.399671358888803 $428 $605 forward 7 unknown #
edge $-1 $433 68.715954189518214 $604 73.919220768039182 $283 $606 forward 7 unknown #
coedge $-1 $284 $596 $602 $607 forward $421 $-1 #
vertex $-1 $285 $608 #
vertex $-1 $285 $609 #
straight-curve $-1 23.619705026309454 29.001107207044477 8.6036811464640053 0 -1 0 I I #
coedge $-1 $435 $435 $-1 $610 reversed $288 $-1 #
edge $-1 $611 0 $611 6.2831853071796004 $289 $612 forward 7 unknown #
vertex $-1 $292 $613 #
ellipse-curve $-1 30.298121662219188 35.056896267334821 6.829371488609187 0 0.68199836817093118 0.7313536940579346 1 0 0 1 I I #
coedge $-1 $439 $439 $-1 $614 reversed $295 $-1 #
edge $-1 $615 0 $615 6.2831853071796004 $296 $616 forward 7 unknown #
vertex $-1 $299 $617 #
ellipse-curve $-1 40.315746616083814 35.056896267334821 6.829371488609187 0 0.68199836817093118 0.7313536940579346 1 0 0 1 I I #
face $-1 $-1 $315 $45 $-1 $618 reversed single #
loop $-1 $-1 $459 $300 #
plane-surface $-1 0 36.95961038401957 0 0 -1 0 0 0 -1 forward_v I I I I #
coedge $-1 $619 $457 $460 $620 forward $301 $-1 #
coedge $-1 $463 $303 $304 $451 reversed $189 $-1 #
coedge $-1 $457 $619 $303 $449 reversed $301 $-1 #
edge $-1 $464 -8.6036811464640053 $621 8.6036811464640053 $448 $622 forward 7 unknown #
coedge $-1 $305 $304 $619 $623 forward $121 $-1 #
edge $-1 $455 -55.061494796594133 $621 55.061494796594133 $447 $624 forward 7 unknown #
coedge $-1 $460 $459 $305 $453 reversed $444 $-1 #
edge $-1 $625 -55.061494796594133 $454 55.061494796594133 $452 $626 forward 7 unknown #
vertex $-1 $307 $627 #
vertex $-1 $466 $628 #
straight-curve $-1 55.061494796594133 0 -8.6036811464640053 0 -1 0 I I #
coedge $-1 $446 $448 $308 $458 reversed $301 $-1 #
edge $-1 $461 -36.95961038401957 $464 36.95961038401957 $457 $629 forward 7 unknown #
coedge $-1 $452 $309 $314 $467 forward $444 $-1 #
coedge $-1 $309 $452 $446 $620 reversed $444 $-1 #
vertex $-1 $310 $630 #
straight-curve $-1 0 36.95961038401957 8.6036811464640053 -1 0 0 I I #
coedge $-1 $311 $447 $313 $466 reversed $189 $-1 #
vertex $-1 $458 $631 #
straight-curve $-1 0 -36.95961038401957 8.6036811464640053 1 0 0 I I #
edge $-1 $316 -8.6036811464640053 $455 8.6036811464640053 $313 $632 forward 7 unknown #
edge $-1 $317 -8.6036811464640053 $454 8.6036811464640053 $314 $633 forward 7 unknown #
point $-1 55.061494796594133 -36.95961038401957 8.6036811464640053 #
point $-1 55.061494796594133 36.95961038401957 8.6036811464640053 #
face $-1 $-1 $480 $46 $-1 $634 reversed single #
loop $-1 $-1 $476 $319 #
plane-surface $-1 0 0 -8.6036811464640053 0 0 1 1 0 0 forward_v I I I I #
coedge $-1 $635 $636 $327 $484 forward $320 $-1 #
coedge $-1 $322 $488 $478 $637 forward $197 $-1 #
edge $-1 $482 -19.550742540806606 $332 -15.26699314561932 $322 $638 forward 7 unknown #
coedge $-1 $639 $328 $323 $477 forward $471 $-1 #
edge $-1 $333 15.26699314561932 $481 19.550742540806606 $476 $640 forward 7 unknown #
coedge $-1 $641 $325 $474 $637 reversed $480 $-1 #
coedge $-1 $325 $641 $639 $642 reversed $480 $-1 #
loop $-1 $-1 $325 $470 #
vertex $-1 $642 $643 #
vertex $-1 $326 $644 #
straight-curve $-1 -46.994163251993555 -36.95961038401957 0 0 0 1 I I #
edge $-1 $489 -8.6036811464640053 $486 8.6036811464640053 $473 $645 forward 7 unknown #
coedge $-1 $328 $639 $635 $646 forward $471 $-1 #
vertex $-1 $329 $647 #
straight-curve $-1 -25.513914512146922 -32.675860988832284 -8.6036811464640053 1 0 0 I I #
coedge $-1 $474 $330 $636 $648 forward $197 $-1 #
vertex $-1 $648 $649 #
straight-curve $-1 -25.513914512146922 -32.675860988832284 8.6036811464640053 -1 0 0 I I #
point $-1 -46.994163251993555 -32.675860988832284 8.6036811464640053 #
point $-1 -46.994163251993555 -32.675860988832284 -8.6036811464640053 #
face $-1 $-1 $503 $47 $-1 $650 reversed single #
loop $-1 $-1 $499 $335 #
plane-surface $-1 0 0 -8.6036811464640053 0 0 1 1 0 0 forward_v I I I I #
coedge $-1 $651 $652 $343 $507 forward $336 $-1 #
coedge $-1 $338 $511 $501 $653 forward $205 $-1 #
edge $-1 $505 -29.547580284447214 $348 -21.480248739846637 $338 $654 forward 7 unknown #
coedge $-1 $655 $344 $339 $500 forward $494 $-1 #
edge $-1 $349 21.480248739846637 $504 29.547580284447214 $499 $656 forward 7 unknown #
coedge $-1 $657 $341 $497 $653 reversed $503 $-1 #
coedge $-1 $341 $657 $655 $658 reversed $503 $-1 #
loop $-1 $-1 $341 $493 #
vertex $-1 $658 $659 #
vertex $-1 $342 $660 #
straight-curve $-1 55.061494796594133 -32.675860988832284 0 0 0 1 I I #
edge $-1 $512 -8.6036811464640053 $509 8.6036811464640053 $496 $661 forward 7 unknown #
coedge $-1 $344 $655 $651 $662 forward $494 $-1 #
vertex $-1 $345 $663 #
straight-curve $-1 46.994163251993562 -17.408867843212963 -8.6036811464640053 0 1 0 I I #
coedge $-1 $497 $346 $652 $664 forward $205 $-1 #
vertex $-1 $664 $665 #
straight-curve $-1 46.994163251993562 -17.408867843212963 8.6036811464640053 0 -1 0 I I #
point $-1 46.994163251993562 -32.675860988832284 8.6036811464640053 #
point $-1 46.994163251993562 -32.675860988832284 -8.6036811464640053 #
loop $-1 $-1 $359 $351 #
plane-surface $-1 0 -36.95961038401957 0 0 1 0 0 0 1 forward_v I I I I #
coedge $-1 $519 $354 $356 $523 reversed $213 $-1 #
coedge $-1 $354 $518 $666 $667 reversed $213 $-1 #
coedge $-1 $362 $357 $354 $521 forward $352 $-1 #
edge $-1 $524 -22.877472641689089 $668 -19.072044408319627 $520 $669 forward 7 unknown #
coedge $-1 $356 $355 $527 $670 reversed $133 $-1 #
edge $-1 $671 -1.9479204584885432e-014 $524 5.2032665785208945 $518 $672 forward 7 unknown #
vertex $-1 $358 $673 #
straight-curve $-1 -5.8436145564210271 -33.154182150650108 8.6036811464640053 -1 0 0 I I #
coedge $-1 $666 $359 $362 $531 reversed $516 $-1 #
coedge $-1 $359 $666 $522 $670 forward $516 $-1 #
vertex $-1 $360 $674 #
straight-curve $-1 -1.7763568394002505e-015 -36.95961038401957 42.796958535218067 0 0 1 I I #
straight-curve $-1 -1.7763568394002505e-015 -36.959610384019555 5.0550618307544113 0 -0.7313536940579346 -0.68199836817093118 I I #
edge $-1 $668 -23.374458225684108 $363 -1.7763568394002505e-015 $526 $675 forward 7 unknown #
point $-1 -1.7763568394002505e-015 -36.95961038401957 8.6036811464640053 #
point $-1 -1.7763568394002505e-015 -33.154182150650108 8.6036811464640053 #
edge $-1 $676 1 $676 0 $366 $-1 forward 7 unknown #
vertex $-1 $367 $677 #
ellipse-curve $-1 -16.69604158977436 -33.188399319008511 4.8256538709858949 0 -0.68199836817093118 0.7313536940579346 1 0 0 1 I I #
point $-1 -15.69604158977436 -35.056896267334842 6.8293714886092038 #
edge $-1 $678 1 $678 0 $370 $-1 forward 7 unknown #
vertex $-1 $371 $679 #
ellipse-curve $-1 -6.6784166359097412 -33.188399319008511 4.8256538709858949 0 -0.68199836817093118 0.7313536940579346 1 0 0 1 I I #
point $-1 -5.6784166359097412 -35.056896267334842 6.8293714886092038 #
loop $-1 $-1 $545 $374 #
plane-surface $-1 46.994163251993562 -34.817735686425927 0 1 0 0 0 0 -1 forward_v I I I I #
coedge $-1 $378 $377 $551 $680 reversed $147 $-1 #
coedge $-1 $681 $682 $378 $546 forward $542 $-1 #
edge $-1 $548 0.94053797364164893 $683 6.1438045521625639 $545 $684 forward 7 unknown #
coedge $-1 $384 $379 $682 $685 forward $235 $-1 #
vertex $-1 $685 $686 #
straight-curve $-1 17.653467069575754 -36.95961038401957 5.0550618307543953 1 0 0 I I #
coedge $-1 $687 $381 $384 $555 forward $375 $-1 #
coedge $-1 $381 $687 $544 $680 forward $375 $-1 #
vertex $-1 $382 $688 #
straight-curve $-1 23.619705026309454 -56.031654792339197 8.6036811464640053 0 -1 0 I I #
straight-curve $-1 23.619705026309454 -36.959610384019555 5.0550618307544113 0 0.7313536940579346 0.68199836817093118 I I #
edge $-1 $385 23.619705026309454 $689 46.994163251993562 $384 $690 forward 7 unknown #
point $-1 23.619705026309454 -36.95961038401957 8.6036811464640053 #
point $-1 23.619705026309454 -36.95961038401957 5.055061830754398 #
edge $-1 $691 1 $691 0 $388 $-1 forward 7 unknown #
vertex $-1 $389 $692 #
ellipse-curve $-1 30.298121662219188 -33.188399319008511 4.8256538709858949 0 -0.68199836817093118 0.7313536940579346 1 0 0 1 I I #
point $-1 31.298121662219188 -35.056896267334842 6.8293714886092038 #
edge $-1 $693 1 $693 0 $392 $-1 forward 7 unknown #
vertex $-1 $393 $694 #
ellipse-curve $-1 40.315746616083814 -33.188399319008511 4.8256538709858949 0 -0.68199836817093118 0.7313536940579346 1 0 0 1 I I #
point $-1 41.315746616083814 -35.056896267334842 6.8293714886092038 #
plane-surface $-1 0 0 8.6036811464640053 0 0 1 1 0 0 forward_v I I I I #
coedge $-1 $577 $576 $569 $695 forward $397 $-1 #
coedge $-1 $569 $399 $401 $573 reversed $257 $-1 #
coedge $-1 $399 $568 $567 $695 reversed $257 $-1 #
coedge $-1 $407 $402 $399 $571 forward $408 $-1 #
edge $-1 $574 4.1530749436055956 $696 7.9585031769750927 $570 $697 forward 7 unknown #
coedge $-1 $401 $400 $577 $698 reversed $161 $-1 #
edge $-1 $699 -73.919220768039182 $574 -68.715954189518214 $568 $700 forward 7 unknown #
vertex $-1 $403 $701 #
straight-curve $-1 -5.8436145564210271 33.154182150650072 8.6036811464640088 1 0 0 I I #
coedge $-1 $567 $404 $407 $581 reversed $397 $-1 #
coedge $-1 $404 $567 $572 $698 forward $397 $-1 #
vertex $-1 $405 $702 #
straight-curve $-1 -23.374458225684108 36.95961038401957 68.003352505352808 0 0 1 I I #
straight-curve $-1 -23.374458225684108 -17.101484786569884 55.467849771023893 0 0.7313536940579346 -0.68199836817093118 I I #
edge $-1 $696 1.7763568394002505e-015 $409 23.374458225684108 $576 $703 forward 7 unknown #
point $-1 -23.374458225684108 36.95961038401957 8.6036811464640053 #
point $-1 -23.374458225684108 33.154182150650072 8.6036811464640124 #
edge $-1 $704 1 $704 0 $412 $-1 forward 7 unknown #
vertex $-1 $413 $705 #
ellipse-curve $-1 -16.69604158977436 33.188399319008504 4.8256538709858914 0 0.68199836817093118 0.7313536940579346 1 0 0 1 I I #
point $-1 -15.69604158977436 35.056896267334835 6.8293714886092003 #
edge $-1 $706 1 $706 0 $416 $-1 forward 7 unknown #
vertex $-1 $417 $707 #
ellipse-curve $-1 -6.6784166359097412 33.188399319008504 4.8256538709858914 0 0.68199836817093118 0.7313536940579346 1 0 0 1 I I #
point $-1 -5.6784166359097412 35.056896267334835 6.8293714886092003 #
loop $-1 $-1 $428 $420 #
plane-surface $-1 0 36.95961038401957 0 0 -1 0 0 0 -1 forward_v I I I I #
coedge $-1 $595 $423 $425 $599 reversed $279 $-1 #
coedge $-1 $423 $594 $708 $709 reversed $279 $-1 #
coedge $-1 $431 $426 $423 $597 forward $421 $-1 #
edge $-1 $600 4.1530749436055956 $710 7.9585031769750927 $596 $711 forward 7 unknown #
coedge $-1 $425 $424 $603 $712 reversed $175 $-1 #
edge $-1 $713 -73.919220768039182 $600 -68.715954189518214 $594 $714 forward 7 unknown #
vertex $-1 $427 $715 #
straight-curve $-1 17.653467069575754 33.154182150650072 8.6036811464640088 1 0 0 I I #
coedge $-1 $708 $428 $431 $607 reversed $592 $-1 #
coedge $-1 $428 $708 $598 $712 forward $592 $-1 #
vertex $-1 $429 $716 #
straight-curve $-1 23.619705026309454 36.95961038401957 68.003352505352808 0 0 1 I I #
straight-curve $-1 23.619705026309454 -17.101484786569884 55.467849771023893 0 0.7313536940579346 -0.68199836817093118 I I #
edge $-1 $710 -46.994163251993562 $432 -23.619705026309454 $602 $717 forward 7 unknown #
point $-1 23.619705026309454 36.95961038401957 8.6036811464640053 #
point $-1 23.619705026309454 33.154182150650072 8.6036811464640124 #
edge $-1 $718 1 $718 0 $435 $-1 forward 7 unknown #
vertex $-1 $436 $719 #
ellipse-curve $-1 30.298121662219188 33.188399319008504 4.8256538709858914 0 0.68199836817093118 0.7313536940579346 1 0 0 1 I I #
point $-1 31.298121662219188 35.056896267334835 6.8293714886092003 #
edge $-1 $720 1 $720 0 $439 $-1 forward 7 unknown #
vertex $-1 $440 $721 #
ellipse-curve $-1 40.315746616083814 33.188399319008504 4.8256538709858914 0 0.68199836817093118 0.7313536940579346 1 0 0 1 I I #
point $-1 41.315746616083814 35.056896267334835 6.8293714886092003 #
plane-surface $-1 55.061494796594133 0 0 -1 0 0 0 0 1 forward_v I I I I #
coedge $-1 $448 $446 $450 $623 reversed $301 $-1 #
edge $-1 $461 -8.6036811464640053 $625 8.6036811464640053 $460 $722 forward 7 unknown #
vertex $-1 $623 $723 #
straight-curve $-1 -55.061494796594133 -36.95961038401957 0 0 0 -1 I I #
edge $-1 $621 -36.95961038401957 $625 36.95961038401957 $619 $724 forward 7 unknown #
straight-curve $-1 0 -36.95961038401957 -8.6036811464640053 -1 0 0 I I #
vertex $-1 $453 $725 #
straight-curve $-1 0 36.95961038401957 -8.6036811464640053 1 0 0 I I #
point $-1 55.061494796594133 36.95961038401957 -8.6036811464640053 #
point $-1 55.061494796594133 -36.95961038401957 -8.6036811464640053 #
straight-curve $-1 -55.061494796594133 0 8.6036811464640053 0 -1 0 I I #
point $-1 -55.061494796594133 36.95961038401957 8.6036811464640053 #
point $-1 -55.061494796594133 -36.95961038401957 8.6036811464640053 #
straight-curve $-1 55.061494796594133 -36.95961038401957 0 0 0 -1 I I #
straight-curve $-1 55.061494796594133 36.95961038401957 0 0 0 -1 I I #
plane-surface $-1 0 -36.95961038401957 0 0 1 0 0 0 1 forward_v I I I I #
coedge $-1 $726 $473 $485 $646 reversed $320 $-1 #
coedge $-1 $473 $726 $488 $648 reversed $320 $-1 #
edge $-1 $727 -55.061494796594133 $482 -46.994163251993555 $478 $728 forward 7 unknown #
straight-curve $-1 -46.994163251993555 -17.408867843212963 8.6036811464640053 0 1 0 I I #
coedge $-1 $485 $476 $479 $642 forward $471 $-1 #
straight-curve $-1 -46.994163251993555 -17.408867843212963 -8.6036811464640053 0 -1 0 I I #
coedge $-1 $479 $478 $726 $729 forward $480 $-1 #
edge $-1 $481 46.994163251993555 $730 55.061494796594133 $479 $731 forward 7 unknown #
point $-1 -46.994163251993555 -36.95961038401957 -8.6036811464640053 #
point $-1 -46.994163251993555 -36.95961038401957 8.6036811464640053 #
straight-curve $-1 -55.061494796594133 -32.675860988832284 0 0 0 -1 I I #
edge $-1 $730 -36.95961038401957 $486 -32.675860988832284 $635 $732 forward 7 unknown #
point $-1 -55.061494796594133 -32.675860988832284 -8.6036811464640053 #
edge $-1 $489 32.675860988832284 $727 36.95961038401957 $636 $733 forward 7 unknown #
point $-1 -55.061494796594133 -32.675860988832284 8.6036811464640053 #
plane-surface $-1 55.061494796594133 0 0 -1 0 0 0 0 1 forward_v I I I I #
coedge $-1 $734 $496 $508 $662 reversed $336 $-1 #
coedge $-1 $496 $734 $511 $664 reversed $336 $-1 #
edge $-1 $735 -36.95961038401957 $505 -32.675860988832284 $501 $736 forward 7 unknown #
straight-curve $-1 25.513914512146926 -32.675860988832284 8.6036811464640053 -1 0 0 I I #
coedge $-1 $508 $499 $502 $658 forward $494 $-1 #
straight-curve $-1 25.513914512146926 -32.675860988832284 -8.6036811464640053 1 0 0 I I #
coedge $-1 $502 $501 $734 $737 forward $503 $-1 #
edge $-1 $504 32.675860988832284 $738 36.95961038401957 $502 $739 forward 7 unknown #
point $-1 55.06149479659414 -32.675860988832284 -8.6036811464640053 #
point $-1 55.06149479659414 -32.675860988832284 8.6036811464640053 #
straight-curve $-1 46.994163251993562 -36.95961038401957 0 0 0 -1 I I #
edge $-1 $738 -55.061494796594133 $509 -46.994163251993562 $651 $740 forward 7 unknown #
point $-1 46.994163251993562 -36.95961038401957 -8.6036811464640053 #
edge $-1 $512 46.994163251993562 $735 55.061494796594133 $652 $741 forward 7 unknown #
point $-1 46.994163251993562 -36.95961038401957 8.6036811464640053 #
coedge $-1 $527 $526 $519 $667 forward $516 $-1 #
edge $-1 $668 34.193277388754062 $671 37.74189670446367 $666 $742 forward 7 unknown #
vertex $-1 $531 $743 #
straight-curve $-1 -23.374458225684108 -56.031654792339197 8.6036811464640053 0 -1 0 I I #
edge $-1 $671 -17.530843669263081 $528 5.8436145564210253 $527 $744 forward 7 unknown #
vertex $-1 $670 $745 #
straight-curve $-1 -23.374458225684108 -36.959610384019555 5.0550618307544113 0 0.7313536940579346 0.68199836817093118 I I #
point $-1 -23.374458225684108 -33.154182150650108 8.6036811464640053 #
point $-1 -1.7763568394002505e-015 -36.95961038401957 5.055061830754398 #
straight-curve $-1 0 -36.95961038401957 8.6036811464640053 1 0 0 I I #
vertex $-1 $534 $746 #
point $-1 -15.69604158977436 -33.188399319008511 4.8256538709858949 #
vertex $-1 $538 $747 #
point $-1 -5.6784166359097412 -33.188399319008511 4.8256538709858949 #
edge $-1 $683 -29.340696182417808 $552 -5.9662379567336998 $551 $748 forward 7 unknown #
coedge $-1 $682 $545 $687 $749 reversed $542 $-1 #
coedge $-1 $545 $681 $547 $685 reversed $542 $-1 #
vertex $-1 $546 $750 #
straight-curve $-1 46.994163251993562 -37.647476305444151 4.4136164675279961 0 0.7313536940579346 0.68199836817093118 I I #
edge $-1 $548 5.055061830754398 $689 8.6036811464640053 $547 $751 forward 7 unknown #
point $-1 46.994163251993562 -36.95961038401957 5.055061830754398 #
coedge $-1 $551 $550 $681 $749 forward $375 $-1 #
point $-1 23.619705026309454 -33.154182150650108 8.6036811464640053 #
vertex $-1 $685 $752 #
straight-curve $-1 0 -36.95961038401957 8.6036811464640053 1 0 0 I I #
vertex $-1 $558 $753 #
point $-1 31.298121662219188 -33.188399319008511 4.8256538709858949 #
vertex $-1 $562 $754 #
point $-1 41.315746616083814 -33.188399319008511 4.8256538709858949 #
edge $-1 $696 59.399671358888803 $699 62.948290674598447 $567 $755 forward 7 unknown #
vertex $-1 $581 $756 #
straight-curve $-1 -1.7763568394002505e-015 29.001107207044477 8.6036811464640053 0 1 0 I I #
edge $-1 $699 -5.8436145564210253 $578 17.530843669263081 $577 $757 forward 7 unknown #
vertex $-1 $698 $758 #
straight-curve $-1 -1.7763568394002505e-015 -17.101484786569884 55.467849771023893 0 -0.7313536940579346 0.68199836817093118 I I #
point $-1 -1.7763568394002505e-015 33.154182150650072 8.6036811464640124 #
point $-1 -23.374458225684108 36.95961038401957 5.0550618307543616 #
straight-curve $-1 0 36.95961038401957 8.6036811464640053 -1 0 0 I I #
vertex $-1 $584 $759 #
point $-1 -15.69604158977436 33.188399319008504 4.8256538709858914 #
vertex $-1 $588 $760 #
point $-1 -5.6784166359097412 33.188399319008504 4.8256538709858914 #
coedge $-1 $603 $602 $595 $709 forward $592 $-1 #
edge $-1 $710 59.399671358888803 $713 62.948290674598447 $708 $761 forward 7 unknown #
vertex $-1 $607 $762 #
straight-curve $-1 46.994163251993562 29.001107207044477 8.6036811464640053 0 1 0 I I #
edge $-1 $713 -29.340696182417808 $604 -5.9662379567336998 $603 $763 forward 7 unknown #
vertex $-1 $712 $764 #
straight-curve $-1 46.994163251993562 -17.101484786569884 55.467849771023893 0 -0.7313536940579346 0.68199836817093118 I I #
point $-1 46.994163251993562 33.154182150650072 8.6036811464640124 #
point $-1 23.619705026309454 36.95961038401957 5.0550618307543616 #
straight-curve $-1 0 36.95961038401957 8.6036811464640053 -1 0 0 I I #
vertex $-1 $610 $765 #
point $-1 31.298121662219188 33.188399319008504 4.8256538709858914 #
vertex $-1 $614 $766 #
point $-1 41.315746616083814 33.188399319008504 4.8256538709858914 #
straight-curve $-1 -55.061494796594133 36.95961038401957 0 0 0 -1 I I #
point $-1 -55.061494796594133 -36.95961038401957 -8.6036811464640053 #
straight-curve $-1 -55.061494796594133 0 -8.6036811464640053 0 1 0 I I #
point $-1 -55.061494796594133 36.95961038401957 -8.6036811464640053 #
coedge $-1 $636 $635 $641 $729 reversed $320 $-1 #
vertex $-1 $648 $767 #
straight-curve $-1 0 -36.95961038401957 8.6036811464640053 1 0 0 I I #
edge $-1 $727 -8.6036811464640053 $730 8.6036811464640053 $726 $768 forward 7 unknown #
vertex $-1 $646 $769 #
straight-curve $-1 0 -36.95961038401957 -8.6036811464640053 -1 0 0 I I #
straight-curve $-1 -55.061494796594133 0 -8.6036811464640053 0 1 0 I I #
straight-curve $-1 -55.061494796594133 0 8.6036811464640053 0 -1 0 I I #
coedge $-1 $652 $651 $657 $737 reversed $336 $-1 #
vertex $-1 $653 $770 #
straight-curve $-1 55.061494796594133 0 8.6036811464640053 0 1 0 I I #
edge $-1 $735 -8.6036811464640053 $738 8.6036811464640053 $657 $771 forward 7 unknown #
vertex $-1 $737 $772 #
straight-curve $-1 55.061494796594133 0 -8.6036811464640053 0 -1 0 I I #
straight-curve $-1 0 -36.95961038401957 -8.6036811464640053 -1 0 0 I I #
straight-curve $-1 0 -36.95961038401957 8.6036811464640053 1 0 0 I I #
straight-curve $-1 -23.374458225684108 -36.95961038401957 42.796958535218067 0 0 -1 I I #
point $-1 -23.374458225684108 -36.95961038401957 8.6036811464640053 #
straight-curve $-1 -5.8436145564210271 -36.95961038401957 5.0550618307543953 1 0 0 I I #
point $-1 -23.374458225684108 -36.95961038401957 5.055061830754398 #
point $-1 -16.69604158977436 -32.506400950837573 4.0943001769279599 #
point $-1 -6.6784166359097412 -32.506400950837573 4.0943001769279599 #
straight-curve $-1 17.653467069575754 -33.154182150650108 8.6036811464640053 -1 0 0 I I #
edge $-1 $689 -19.550742540806606 $683 -15.745314307437145 $687 $773 forward 7 unknown #
point $-1 46.994163251993562 -33.154182150650108 8.6036811464640053 #
straight-curve $-1 46.994163251993562 -36.95961038401957 0 0 0 1 I I #
point $-1 46.994163251993562 -36.95961038401957 8.6036811464640053 #
point $-1 30.298121662219188 -32.506400950837573 4.0943001769279599 #
point $-1 40.315746616083814 -32.506400950837573 4.0943001769279599 #
straight-curve $-1 -1.7763568394002505e-015 36.95961038401957 68.003352505352808 0 0 -1 I I #
point $-1 -1.7763568394002505e-015 36.95961038401957 8.6036811464640053 #
straight-curve $-1 -5.8436145564210271 36.95961038401957 5.0550618307543651 -1 0 0 I I #
point $-1 -1.7763568394002505e-015 36.95961038401957 5.0550618307543616 #
point $-1 -16.69604158977436 32.506400950837566 4.0943001769279563 #
point $-1 -6.6784166359097412 32.506400950837566 4.0943001769279563 #
straight-curve $-1 46.994163251993562 36.95961038401957 68.003352505352808 0 0 -1 I I #
point $-1 46.994163251993562 36.95961038401957 8.6036811464640053 #
straight-curve $-1 17.653467069575754 36.95961038401957 5.0550618307543651 -1 0 0 I I #
point $-1 46.994163251993562 36.95961038401957 5.0550618307543616 #
point $-1 30.298121662219188 32.506400950837566 4.0943001769279563 #
point $-1 40.315746616083814 32.506400950837566 4.0943001769279563 #
point $-1 -55.061494796594133 -36.95961038401957 8.6036811464640053 #
straight-curve $-1 -55.061494796594133 -36.95961038401957 0 0 0 -1 I I #
point $-1 -55.061494796594133 -36.95961038401957 -8.6036811464640053 #
point $-1 55.061494796594133 -36.95961038401957 8.6036811464640053 #
straight-curve $-1 55.061494796594133 -36.95961038401957 0 0 0 -1 I I #
point $-1 55.061494796594133 -36.95961038401957 -8.6036811464640053 #
straight-curve $-1 46.994163251993562 -17.408867843212963 8.6036811464640053 0 1 0 I I #
End-of-ACIS-data 