500 0 13 0           
7 Unknown 11 ACIS 5.0 NT 24 Fri Mar 26 18:15:15 1999 
-1 9.9999999999999995e-007 1e-010 
body $-1 $13 $-1 $14 #
body $-1 $15 $-1 $16 #
body $-1 $17 $-1 $18 #
body $-1 $19 $-1 $20 #
body $-1 $21 $-1 $22 #
body $-1 $23 $-1 $24 #
body $-1 $25 $-1 $26 #
body $-1 $27 $-1 $28 #
body $-1 $29 $-1 $30 #
body $-1 $31 $-1 $32 #
body $-1 $33 $-1 $34 #
body $-1 $35 $-1 $36 #
body $-1 $37 $-1 $38 #
lump $-1 $-1 $39 $0 #
transform $-1 1 0 0 0 1 0 0 0 1 63.408917508468889 36.666752744131799 7.8110578991016331 1 rotate no_reflect no_shear #
lump $-1 $-1 $40 $1 #
transform $-1 1 0 0 0 1 0 0 0 1 63.408917508468889 36.666752744131799 7.8110578991016331 1 rotate no_reflect no_shear #
lump $-1 $-1 $41 $2 #
transform $-1 1 0 0 0 1 0 0 0 1 63.408917508468889 36.666752744131799 7.8110578991016331 1 rotate no_reflect no_shear #
lump $-1 $-1 $42 $3 #
transform $-1 1 0 0 0 1 0 0 0 1 63.408917508468889 36.666752744131799 7.8110578991016331 1 rotate no_reflect no_shear #
lump $-1 $-1 $43 $4 #
transform $-1 1 0 0 0 1 0 0 0 1 63.408917508468889 36.666752744131799 7.8110578991016331 1 rotate no_reflect no_shear #
lump $-1 $-1 $44 $5 #
transform $-1 1 0 0 0 1 0 0 0 1 63.408917508468889 36.666752744131799 7.8110578991016331 1 rotate no_reflect no_shear #
lump $-1 $-1 $45 $6 #
transform $-1 1 0 0 0 1 0 0 0 1 63.408917508468889 36.666752744131799 7.8110578991016331 1 rotate no_reflect no_shear #
lump $-1 $-1 $46 $7 #
transform $-1 1 0 0 0 1 0 0 0 1 63.408917508468889 36.666752744131799 7.8110578991016331 1 rotate no_reflect no_shear #
lump $-1 $-1 $47 $8 #
transform $-1 1 0 0 0 1 0 0 0 1 63.408917508468889 36.666752744131799 7.8110578991016331 1 rotate no_reflect no_shear #
lump $-1 $-1 $48 $9 #
transform $-1 1 0 0 0 1 0 0 0 1 63.408917508468889 36.666752744131799 7.8110578991016331 1 rotate no_reflect no_shear #
lump $-1 $-1 $49 $10 #
transform $-1 1 0 0 0 1 0 0 0 1 63.408917508468889 36.666752744131799 7.8110578991016331 1 rotate no_reflect no_shear #
lump $-1 $-1 $50 $11 #
transform $-1 1 0 0 0 1 0 0 0 1 63.408917508468889 36.666752744131799 7.8110578991016331 1 rotate no_reflect no_shear #
lump $-1 $-1 $51 $12 #
transform $-1 1 0 0 0 1 0 0 0 1 63.408917508468889 36.666752744131799 7.8110578991016331 1 rotate no_reflect no_shear #
shell $-1 $-1 $-1 $52 $-1 $13 #
shell $-1 $-1 $-1 $53 $-1 $15 #
shell $-1 $-1 $-1 $54 $-1 $17 #
shell $-1 $-1 $-1 $55 $-1 $19 #
shell $-1 $-1 $-1 $56 $-1 $21 #
shell $-1 $-1 $-1 $57 $-1 $23 #
shell $-1 $-1 $-1 $58 $-1 $25 #
shell $-1 $-1 $-1 $59 $-1 $27 #
shell $-1 $-1 $-1 $60 $-1 $29 #
shell $-1 $-1 $-1 $61 $-1 $31 #
shell $-1 $-1 $-1 $62 $-1 $33 #
shell $-1 $-1 $-1 $63 $-1 $35 #
shell $-1 $-1 $-1 $64 $-1 $37 #
face $-1 $65 $66 $39 $-1 $67 forward single #
face $-1 $68 $69 $40 $-1 $70 forward single #
face $-1 $71 $72 $41 $-1 $73 reversed single #
face $-1 $74 $75 $42 $-1 $76 forward single #
face $-1 $77 $78 $43 $-1 $79 forward single #
face $-1 $80 $81 $44 $-1 $82 reversed single #
face $-1 $83 $84 $45 $-1 $85 forward single #
face $-1 $86 $87 $46 $-1 $88 forward single #
face $-1 $89 $90 $47 $-1 $91 forward single #
face $-1 $92 $93 $48 $-1 $94 reversed single #
face $-1 $95 $96 $49 $-1 $97 forward single #
face $-1 $98 $99 $50 $-1 $100 forward single #
face $-1 $101 $102 $51 $-1 $103 forward single #
face $-1 $104 $105 $39 $-1 $106 reversed single #
loop $-1 $-1 $107 $52 #
plane-surface $-1 0 0 7.8110578991016331 0 0 1 1 0 0 forward_v I I I I #
face $-1 $108 $109 $40 $-1 $110 reversed single #
loop $-1 $-1 $111 $53 #
plane-surface $-1 -60.133894234739778 0 5.9185455340603017 0 0 1 1 0 0 forward_v I I I I #
face $-1 $112 $113 $41 $-1 $114 reversed single #
loop $-1 $-1 $115 $54 #
plane-surface $-1 36.714511589108625 -143.02513947848701 73.15743953666005 1 0 0 0 0.83867057594974714 -0.54463902268945019 forward_v I I I I #
face $-1 $116 $117 $42 $-1 $118 forward single #
loop $-1 $119 $120 $55 #
cone-surface $-1 44.341484708925847 -34.904725630362108 5.59017296643046 0 0.83867057594974714 -0.54463902268945019 0.5 0 0 1 I I 0 1 0.5 forward I I I I #
face $-1 $121 $122 $43 $-1 $123 forward single #
loop $-1 $124 $125 $56 #
cone-surface $-1 55.781944388651681 -34.904725630362108 5.59017296643046 0 0.83867057594974714 -0.54463902268945019 0.5 0 0 1 I I 0 1 0.5 forward I I I I #
face $-1 $126 $127 $44 $-1 $128 reversed single #
loop $-1 $-1 $129 $57 #
plane-surface $-1 -45.949868058921027 79.402117032501252 141.29895177899442 1 0 0 0 -0.73135370988377701 -0.68199835119979291 forward_v I I I I #
face $-1 $130 $131 $45 $-1 $132 forward single #
loop $-1 $133 $134 $58 #
cone-surface $-1 -40.479770302345216 32.309272922429351 3.3150280457767156 0 -0.73135370988377701 -0.68199835119979291 1.5 0 0 1 I I 0 1 1.5 forward I I I I #
face $-1 $135 $136 $46 $-1 $137 forward single #
loop $-1 $138 $139 $59 #
cone-surface $-1 -32.274623667481507 32.309272922429351 3.3150280457767156 0 -0.73135370988377701 -0.68199835119979291 1.5 0 0 1 I I 0 1 1.5 forward I I I I #
face $-1 $140 $141 $47 $-1 $142 forward single #
loop $-1 $143 $144 $60 #
cone-surface $-1 -24.069477032617797 32.309272922429351 3.3150280457767156 0 -0.73135370988377701 -0.68199835119979291 1.5 0 0 1 I I 0 1 1.5 forward I I I I #
face $-1 $145 $146 $48 $-1 $147 reversed single #
loop $-1 $-1 $148 $61 #
plane-surface $-1 25.149425823500199 79.402117032501252 141.29895177899442 1 0 0 0 -0.73135370988377701 -0.68199835119979291 forward_v I I I I #
face $-1 $149 $150 $49 $-1 $151 forward single #
loop $-1 $152 $153 $62 #
cone-surface $-1 30.619523580076006 32.309272922429351 3.3150280457767156 0 -0.73135370988377701 -0.68199835119979291 1.5 0 0 1 I I 0 1 1.5 forward I I I I #
face $-1 $154 $155 $50 $-1 $156 forward single #
loop $-1 $157 $158 $63 #
cone-surface $-1 38.824670214939715 32.309272922429351 3.3150280457767156 0 -0.73135370988377701 -0.68199835119979291 1.5 0 0 1 I I 0 1 1.5 forward I I I I #
face $-1 $159 $160 $51 $-1 $161 forward single #
loop $-1 $162 $163 $64 #
cone-surface $-1 47.029816849803424 32.309272922429351 3.3150280457767156 0 -0.73135370988377701 -0.68199835119979291 1.5 0 0 1 I I 0 1 1.5 forward I I I I #
face $-1 $164 $165 $39 $-1 $166 reversed single #
loop $-1 $-1 $167 $65 #
plane-surface $-1 0 0 -7.8110578991016331 0 0 1 1 0 0 forward_v I I I I #
coedge $-1 $168 $169 $170 $171 forward $66 $-1 #
face $-1 $172 $173 $40 $-1 $174 reversed single #
loop $-1 $-1 $175 $68 #
plane-surface $-1 -60.133894234739778 0 2.1533996527421877 0 0 1 1 0 0 forward_v I I I I #
coedge $-1 $176 $177 $178 $179 forward $69 $-1 #
face $-1 $180 $181 $41 $-1 $182 forward single #
loop $-1 $-1 $183 $71 #
plane-surface $-1 50.061714548788757 -36.666752744131784 4.0874978134431217 0 -0.83867057594974714 0.54463902268945019 1 0 0 forward_v I I I I #
coedge $-1 $184 $185 $186 $187 reversed $72 $-1 #
face $-1 $-1 $188 $42 $-1 $189 forward single #
loop $-1 $190 $191 $74 #
cone-surface $-1 44.341484708925847 -34.142084930380825 5.0949083209161872 0 0.83867057594974714 -0.54463902268945019 0.25 0 0 1 I I -0.70710678118654746 0.70710678118654746 0.25 forward I I I I #
loop $-1 $-1 $192 $55 #
coedge $-1 $120 $120 $193 $194 reversed $75 $-1 #
face $-1 $-1 $195 $43 $-1 $196 forward single #
loop $-1 $197 $198 $77 #
cone-surface $-1 55.781944388651681 -34.142084930380825 5.0949083209161872 0 0.83867057594974714 -0.54463902268945019 0.25 0 0 1 I I -0.70710678118654746 0.70710678118654746 0.25 forward I I I I #
loop $-1 $-1 $199 $56 #
coedge $-1 $125 $125 $200 $201 reversed $78 $-1 #
face $-1 $202 $203 $44 $-1 $204 reversed single #
loop $-1 $-1 $205 $80 #
plane-surface $-1 -32.274623667481507 -13.346577086564949 54.809397394715504 0 0.73135370988377701 0.68199835119979291 1 0 0 forward_v I I I I #
coedge $-1 $206 $207 $208 $209 reversed $81 $-1 #
face $-1 $-1 $210 $45 $-1 $211 forward single #
loop $-1 $212 $213 $83 #
cone-surface $-1 -40.479770302345216 30.49661296452075 1.6246953300569738 0 -0.73135370988377701 -0.68199835119979291 0.75 0 0 1 I I -0.70710678118654757 0.70710678118654757 0.75 forward I I I I #
loop $-1 $-1 $214 $58 #
coedge $-1 $134 $134 $215 $216 reversed $84 $-1 #
face $-1 $-1 $217 $46 $-1 $218 forward single #
loop $-1 $219 $220 $86 #
cone-surface $-1 -32.274623667481507 30.49661296452075 1.6246953300569738 0 -0.73135370988377701 -0.68199835119979291 0.75 0 0 1 I I -0.70710678118654757 0.70710678118654757 0.75 forward I I I I #
loop $-1 $-1 $221 $59 #
coedge $-1 $139 $139 $222 $223 reversed $87 $-1 #
face $-1 $-1 $224 $47 $-1 $225 forward single #
loop $-1 $226 $227 $89 #
cone-surface $-1 -24.069477032617797 30.49661296452075 1.6246953300569738 0 -0.73135370988377701 -0.68199835119979291 0.75 0 0 1 I I -0.70710678118654757 0.70710678118654757 0.75 forward I I I I #
loop $-1 $-1 $228 $60 #
coedge $-1 $144 $144 $229 $230 reversed $90 $-1 #
face $-1 $231 $232 $48 $-1 $233 reversed single #
loop $-1 $-1 $234 $92 #
plane-surface $-1 38.824670214939715 -13.346577086564949 54.809397394715504 0 0.73135370988377701 0.68199835119979291 1 0 0 forward_v I I I I #
coedge $-1 $235 $236 $237 $238 reversed $93 $-1 #
face $-1 $-1 $239 $49 $-1 $240 forward single #
loop $-1 $241 $242 $95 #
cone-surface $-1 30.619523580076006 30.49661296452075 1.6246953300569738 0 -0.73135370988377701 -0.68199835119979291 0.75 0 0 1 I I -0.70710678118654757 0.70710678118654757 0.75 forward I I I I #
loop $-1 $-1 $243 $62 #
coedge $-1 $153 $153 $244 $245 reversed $96 $-1 #
face $-1 $-1 $246 $50 $-1 $247 forward single #
loop $-1 $248 $249 $98 #
cone-surface $-1 38.824670214939715 30.49661296452075 1.6246953300569738 0 -0.73135370988377701 -0.68199835119979291 0.75 0 0 1 I I -0.70710678118654757 0.70710678118654757 0.75 forward I I I I #
loop $-1 $-1 $250 $63 #
coedge $-1 $158 $158 $251 $252 reversed $99 $-1 #
face $-1 $-1 $253 $51 $-1 $254 forward single #
loop $-1 $255 $256 $101 #
cone-surface $-1 47.029816849803424 30.49661296452075 1.6246953300569738 0 -0.73135370988377701 -0.68199835119979291 0.75 0 0 1 I I -0.70710678118654757 0.70710678118654757 0.75 forward I I I I #
loop $-1 $-1 $257 $64 #
coedge $-1 $163 $163 $258 $259 reversed $102 $-1 #
face $-1 $260 $261 $39 $-1 $262 reversed single #
loop $-1 $-1 $263 $104 #
plane-surface $-1 0 -36.666752744131799 0 0 1 0 0 0 1 forward_v I I I I #
coedge $-1 $264 $265 $266 $267 forward $105 $-1 #
coedge $-1 $268 $107 $269 $270 forward $66 $-1 #
coedge $-1 $107 $268 $271 $272 forward $66 $-1 #
coedge $-1 $273 $274 $107 $171 reversed $275 $-1 #
edge $-1 $276 -36.666752744131799 $277 36.666752744131799 $170 $278 forward 7 unknown #
face $-1 $279 $280 $40 $-1 $281 reversed single #
loop $-1 $-1 $282 $108 #
plane-surface $-1 -56.858870961010666 0 4.0359725934012447 -1 0 0 0 0 1 forward_v I I I I #
coedge $-1 $283 $284 $285 $286 forward $109 $-1 #
coedge $-1 $287 $111 $288 $289 reversed $69 $-1 #
coedge $-1 $111 $287 $290 $291 reversed $69 $-1 #
coedge $-1 $282 $292 $111 $179 reversed $173 $-1 #
edge $-1 $293 -36.666752744131799 $294 36.666752744131799 $178 $295 forward 7 unknown #
face $-1 $296 $297 $41 $-1 $298 reversed single #
loop $-1 $-1 $299 $112 #
plane-surface $-1 0 0 7.8110578991016331 0 0 1 1 0 0 forward_v I I I I #
coedge $-1 $300 $301 $302 $303 reversed $113 $-1 #
coedge $-1 $185 $115 $304 $305 reversed $72 $-1 #
coedge $-1 $115 $184 $300 $306 reversed $72 $-1 #
coedge $-1 $302 $307 $115 $187 forward $297 $-1 #
edge $-1 $308 28.767661869228391 $309 32.491221954886925 $186 $310 forward 7 unknown #
loop $-1 $-1 $193 $116 #
plane-surface $-1 50.061714548788757 -36.666752744131784 4.0874978134431217 0 -0.83867057594974714 0.54463902268945019 1 0 0 forward_v I I I I #
loop $-1 $-1 $311 $74 #
coedge $-1 $191 $191 $192 $312 reversed $117 $-1 #
coedge $-1 $192 $192 $191 $312 forward $119 $-1 #
coedge $-1 $193 $193 $120 $194 forward $188 $-1 #
edge $-1 $313 8.9386692815524837e-015 $313 6.2831853071796093 $193 $314 forward 7 unknown #
loop $-1 $-1 $200 $121 #
plane-surface $-1 50.061714548788757 -36.666752744131784 4.0874978134431217 0 -0.83867057594974714 0.54463902268945019 1 0 0 forward_v I I I I #
loop $-1 $-1 $315 $77 #
coedge $-1 $198 $198 $199 $316 reversed $122 $-1 #
coedge $-1 $199 $199 $198 $316 forward $124 $-1 #
coedge $-1 $200 $200 $125 $201 forward $195 $-1 #
edge $-1 $317 8.9386692815524837e-015 $317 6.2831853071796093 $200 $318 forward 7 unknown #
face $-1 $319 $320 $44 $-1 $321 reversed single #
loop $-1 $-1 $322 $126 #
plane-surface $-1 -18.59937927604199 79.402117032501252 141.29895177899442 -1 0 0 0 0.73135370988377701 0.68199835119979291 forward_v I I I I #
coedge $-1 $323 $324 $325 $326 reversed $127 $-1 #
coedge $-1 $207 $129 $327 $328 reversed $81 $-1 #
coedge $-1 $129 $206 $323 $329 reversed $81 $-1 #
coedge $-1 $325 $330 $129 $209 forward $331 $-1 #
edge $-1 $332 3.0343057721188273 $333 9.2209760645322092 $208 $334 forward 7 unknown #
loop $-1 $-1 $215 $130 #
plane-surface $-1 -32.274623667481507 -13.346577086564949 54.809397394715504 0 0.73135370988377701 0.68199835119979291 1 0 0 forward_v I I I I #
loop $-1 $-1 $335 $83 #
coedge $-1 $213 $213 $214 $336 reversed $131 $-1 #
coedge $-1 $214 $214 $213 $336 forward $133 $-1 #
coedge $-1 $215 $215 $134 $216 forward $210 $-1 #
edge $-1 $337 1.4983996088721312e-015 $337 6.2831853071796022 $215 $338 forward 7 unknown #
loop $-1 $-1 $222 $135 #
plane-surface $-1 -32.274623667481507 -13.346577086564949 54.809397394715504 0 0.73135370988377701 0.68199835119979291 1 0 0 forward_v I I I I #
loop $-1 $-1 $339 $86 #
coedge $-1 $220 $220 $221 $340 reversed $136 $-1 #
coedge $-1 $221 $221 $220 $340 forward $138 $-1 #
coedge $-1 $222 $222 $139 $223 forward $217 $-1 #
edge $-1 $341 1.4983996088721312e-015 $341 6.2831853071796022 $222 $342 forward 7 unknown #
loop $-1 $-1 $229 $140 #
plane-surface $-1 -32.274623667481507 -13.346577086564949 54.809397394715504 0 0.73135370988377701 0.68199835119979291 1 0 0 forward_v I I I I #
loop $-1 $-1 $343 $89 #
coedge $-1 $227 $227 $228 $344 reversed $141 $-1 #
coedge $-1 $228 $228 $227 $344 forward $143 $-1 #
coedge $-1 $229 $229 $144 $230 forward $224 $-1 #
edge $-1 $345 1.4983996088721312e-015 $345 6.2831853071796022 $229 $346 forward 7 unknown #
face $-1 $347 $348 $48 $-1 $349 forward single #
loop $-1 $-1 $350 $145 #
plane-surface $-1 52.499914606379235 79.402117032501252 141.29895177899442 -1 0 0 0 0.73135370988377701 0.68199835119979291 forward_v I I I I #
coedge $-1 $351 $352 $353 $354 reversed $146 $-1 #
coedge $-1 $236 $148 $355 $356 reversed $93 $-1 #
coedge $-1 $148 $235 $351 $357 reversed $93 $-1 #
coedge $-1 $353 $358 $148 $238 forward $348 $-1 #
edge $-1 $359 3.0343057721188273 $360 9.2209760645322092 $237 $361 forward 7 unknown #
loop $-1 $-1 $244 $149 #
plane-surface $-1 38.824670214939715 -13.346577086564949 54.809397394715504 0 0.73135370988377701 0.68199835119979291 1 0 0 forward_v I I I I #
loop $-1 $-1 $362 $95 #
coedge $-1 $242 $242 $243 $363 reversed $150 $-1 #
coedge $-1 $243 $243 $242 $363 forward $152 $-1 #
coedge $-1 $244 $244 $153 $245 forward $239 $-1 #
edge $-1 $364 1.4983996088721312e-015 $364 6.2831853071796022 $244 $365 forward 7 unknown #
loop $-1 $-1 $251 $154 #
plane-surface $-1 38.824670214939715 -13.346577086564949 54.809397394715504 0 0.73135370988377701 0.68199835119979291 1 0 0 forward_v I I I I #
loop $-1 $-1 $366 $98 #
coedge $-1 $249 $249 $250 $367 reversed $155 $-1 #
coedge $-1 $250 $250 $249 $367 forward $157 $-1 #
coedge $-1 $251 $251 $158 $252 forward $246 $-1 #
edge $-1 $368 1.4983996088721312e-015 $368 6.2831853071796022 $251 $369 forward 7 unknown #
loop $-1 $-1 $258 $159 #
plane-surface $-1 38.824670214939715 -13.346577086564949 54.809397394715504 0 0.73135370988377701 0.68199835119979291 1 0 0 forward_v I I I I #
loop $-1 $-1 $370 $101 #
coedge $-1 $256 $256 $257 $371 reversed $160 $-1 #
coedge $-1 $257 $257 $256 $371 forward $162 $-1 #
coedge $-1 $258 $258 $163 $259 forward $253 $-1 #
edge $-1 $372 1.4983996088721312e-015 $372 6.2831853071796022 $258 $373 forward 7 unknown #
face $-1 $374 $375 $39 $-1 $376 reversed single #
loop $-1 $-1 $377 $164 #
plane-surface $-1 -63.408917508468889 0 0 1 0 0 0 0 -1 forward_v I I I I #
coedge $-1 $378 $271 $379 $380 forward $165 $-1 #
coedge $-1 $381 $167 $378 $382 forward $105 $-1 #
coedge $-1 $167 $381 $383 $384 forward $105 $-1 #
coedge $-1 $274 $273 $167 $267 reversed $275 $-1 #
edge $-1 $385 -36.666752744131799 $386 36.666752744131799 $266 $387 forward 7 unknown #
coedge $-1 $169 $168 $388 $389 forward $66 $-1 #
coedge $-1 $390 $391 $168 $270 reversed $375 $-1 #
edge $-1 $277 -63.408917508468889 $392 63.408917508468889 $269 $393 forward 7 unknown #
coedge $-1 $263 $394 $169 $272 reversed $165 $-1 #
edge $-1 $395 -63.408917508468889 $276 63.408917508468889 $271 $396 forward 7 unknown #
coedge $-1 $266 $170 $394 $397 forward $275 $-1 #
coedge $-1 $170 $266 $390 $398 reversed $275 $-1 #
loop $-1 $-1 $273 $374 #
vertex $-1 $171 $399 #
vertex $-1 $171 $400 #
straight-curve $-1 63.408917508468889 0 7.8110578991016331 0 1 0 I I #
face $-1 $401 $402 $40 $-1 $403 reversed single #
loop $-1 $-1 $404 $172 #
plane-surface $-1 0 -36.666752744131799 0 0 1 0 0 0 1 forward_v I I I I #
coedge $-1 $285 $178 $405 $406 reversed $173 $-1 #
coedge $-1 $407 $175 $404 $408 reversed $109 $-1 #
coedge $-1 $175 $407 $409 $410 reversed $109 $-1 #
coedge $-1 $292 $282 $175 $286 reversed $173 $-1 #
edge $-1 $411 -36.666752744131799 $412 36.666752744131799 $285 $413 forward 7 unknown #
coedge $-1 $177 $176 $414 $415 reversed $69 $-1 #
coedge $-1 $416 $417 $176 $289 forward $418 $-1 #
edge $-1 $419 -33.341970391098997 $294 -26.791923843640777 $288 $420 forward 7 unknown #
coedge $-1 $421 $405 $177 $291 forward $280 $-1 #
edge $-1 $293 26.791923843640777 $422 33.341970391098997 $290 $423 forward 7 unknown #
coedge $-1 $178 $285 $416 $424 reversed $173 $-1 #
vertex $-1 $291 $425 #
vertex $-1 $289 $426 #
straight-curve $-1 -56.858870961010666 0 5.9185455340603017 0 1 0 I I #
face $-1 $-1 $427 $41 $-1 $428 reversed single #
loop $-1 $-1 $186 $180 #
plane-surface $-1 0 -36.666752744131799 0 0 1 0 0 0 1 forward_v I I I I #
coedge $-1 $304 $429 $430 $431 forward $181 $-1 #
coedge $-1 $430 $183 $185 $306 forward $113 $-1 #
coedge $-1 $183 $430 $432 $433 reversed $113 $-1 #
coedge $-1 $434 $186 $183 $303 forward $297 $-1 #
edge $-1 $309 11.683654314714246 $435 38.378060234074511 $302 $436 forward 7 unknown #
coedge $-1 $437 $299 $184 $305 forward $181 $-1 #
edge $-1 $438 -37.263925110663415 $308 -34.845816995111704 $304 $439 forward 7 unknown #
edge $-1 $309 -2.636201369357039e-014 $438 4.4398363224342168 $185 $440 forward 7 unknown #
coedge $-1 $186 $434 $437 $441 reversed $297 $-1 #
vertex $-1 $441 $442 #
vertex $-1 $187 $443 #
straight-curve $-1 36.714511589108625 -36.666752744131799 36.578719768330025 0 0 -1 I I #
coedge $-1 $311 $311 $-1 $444 reversed $190 $-1 #
edge $-1 $445 0 $445 6.2831853071796004 $191 $446 forward 7 unknown #
vertex $-1 $194 $447 #
ellipse-curve $-1 44.341484708925847 -35.457698686355947 5.9492778562723663 0 -0.83867057594974714 0.54463902268945019 0.5 0 0 1 I I #
coedge $-1 $315 $315 $-1 $448 reversed $197 $-1 #
edge $-1 $449 0 $449 6.2831853071796004 $198 $450 forward 7 unknown #
vertex $-1 $201 $451 #
ellipse-curve $-1 55.781944388651681 -35.457698686355947 5.9492778562723663 0 -0.83867057594974714 0.54463902268945019 0.5 0 0 1 I I #
face $-1 $-1 $331 $44 $-1 $452 forward single #
loop $-1 $-1 $453 $202 #
plane-surface $-1 0 36.666752744131799 0 0 -1 0 0 0 -1 forward_v I I I I #
coedge $-1 $454 $455 $456 $457 reversed $203 $-1 #
coedge $-1 $458 $205 $207 $329 forward $127 $-1 #
coedge $-1 $205 $458 $454 $459 forward $127 $-1 #
coedge $-1 $456 $208 $205 $326 forward $331 $-1 #
edge $-1 $333 -29.812556225180273 $460 -2.4620674423012368 $325 $461 forward 7 unknown #
coedge $-1 $462 $463 $206 $328 forward $320 $-1 #
edge $-1 $464 -69.472809792405627 $332 -62.838417990395577 $327 $465 forward 7 unknown #
edge $-1 $333 64.26211949219838 $464 73.333505488263597 $207 $466 forward 7 unknown #
coedge $-1 $208 $456 $462 $467 forward $331 $-1 #
loop $-1 $-1 $456 $319 #
vertex $-1 $328 $468 #
vertex $-1 $209 $469 #
straight-curve $-1 -45.949868058921027 39.701058516250626 7.8110578991016268 0 -1 0 I I #
coedge $-1 $335 $335 $-1 $470 reversed $212 $-1 #
edge $-1 $471 0 $471 6.2831853071796004 $213 $472 forward 7 unknown #
vertex $-1 $216 $473 #
ellipse-curve $-1 -40.479770302345216 33.573417597925115 4.4938619980966088 0 0.73135370988377701 0.68199835119979291 1.5 0 0 1 I I #
coedge $-1 $339 $339 $-1 $474 reversed $219 $-1 #
edge $-1 $475 0 $475 6.2831853071796004 $220 $476 forward 7 unknown #
vertex $-1 $223 $477 #
ellipse-curve $-1 -32.274623667481507 33.573417597925115 4.4938619980966088 0 0.73135370988377701 0.68199835119979291 1.5 0 0 1 I I #
coedge $-1 $343 $343 $-1 $478 reversed $226 $-1 #
edge $-1 $479 0 $479 6.2831853071796004 $227 $480 forward 7 unknown #
vertex $-1 $230 $481 #
ellipse-curve $-1 -24.069477032617797 33.573417597925115 4.4938619980966088 0 0.73135370988377701 0.68199835119979291 1.5 0 0 1 I I #
face $-1 $-1 $482 $48 $-1 $483 reversed single #
loop $-1 $-1 $237 $231 #
plane-surface $-1 0 0 7.8110578991016331 0 0 1 1 0 0 forward_v I I I I #
coedge $-1 $484 $485 $486 $487 reversed $232 $-1 #
coedge $-1 $488 $234 $236 $357 forward $146 $-1 #
coedge $-1 $234 $488 $484 $489 forward $146 $-1 #
coedge $-1 $486 $237 $234 $354 forward $348 $-1 #
edge $-1 $360 5.737090716030341 $490 33.087579498909378 $353 $491 forward 7 unknown #
coedge $-1 $492 $493 $235 $356 forward $482 $-1 #
edge $-1 $494 -69.472809792405627 $359 -62.838417990395577 $355 $495 forward 7 unknown #
edge $-1 $360 64.26211949219838 $494 73.333505488263597 $236 $496 forward 7 unknown #
coedge $-1 $237 $486 $492 $497 forward $348 $-1 #
vertex $-1 $238 $498 #
vertex $-1 $238 $499 #
straight-curve $-1 25.149425823500199 39.701058516250626 7.8110578991016268 0 -1 0 I I #
coedge $-1 $362 $362 $-1 $500 reversed $241 $-1 #
edge $-1 $501 0 $501 6.2831853071796004 $242 $502 forward 7 unknown #
vertex $-1 $245 $503 #
ellipse-curve $-1 30.619523580076006 33.573417597925115 4.4938619980966088 0 0.73135370988377701 0.68199835119979291 1.5 0 0 1 I I #
coedge $-1 $366 $366 $-1 $504 reversed $248 $-1 #
edge $-1 $505 0 $505 6.2831853071796004 $249 $506 forward 7 unknown #
vertex $-1 $252 $507 #
ellipse-curve $-1 38.824670214939715 33.573417597925115 4.4938619980966088 0 0.73135370988377701 0.68199835119979291 1.5 0 0 1 I I #
coedge $-1 $370 $370 $-1 $508 reversed $255 $-1 #
edge $-1 $509 0 $509 6.2831853071796004 $256 $510 forward 7 unknown #
vertex $-1 $259 $511 #
ellipse-curve $-1 47.029816849803424 33.573417597925115 4.4938619980966088 0 0.73135370988377701 0.68199835119979291 1.5 0 0 1 I I #
face $-1 $-1 $275 $39 $-1 $512 reversed single #
loop $-1 $-1 $390 $260 #
plane-surface $-1 0 36.666752744131799 0 0 -1 0 0 0 -1 forward_v I I I I #
coedge $-1 $513 $388 $391 $514 forward $261 $-1 #
coedge $-1 $394 $263 $264 $382 reversed $165 $-1 #
coedge $-1 $388 $513 $263 $380 reversed $261 $-1 #
edge $-1 $395 -7.8110578991016331 $515 7.8110578991016331 $379 $516 forward 7 unknown #
coedge $-1 $265 $264 $513 $517 forward $105 $-1 #
edge $-1 $386 -63.408917508468889 $515 63.408917508468889 $378 $518 forward 7 unknown #
coedge $-1 $391 $390 $265 $384 reversed $375 $-1 #
edge $-1 $519 -63.408917508468889 $385 63.408917508468889 $383 $520 forward 7 unknown #
vertex $-1 $267 $521 #
vertex $-1 $397 $522 #
straight-curve $-1 63.408917508468889 0 -7.8110578991016331 0 -1 0 I I #
coedge $-1 $377 $379 $268 $389 reversed $261 $-1 #
edge $-1 $392 -36.666752744131799 $395 36.666752744131799 $388 $523 forward 7 unknown #
coedge $-1 $383 $269 $274 $398 forward $375 $-1 #
coedge $-1 $269 $383 $377 $514 reversed $375 $-1 #
vertex $-1 $270 $524 #
straight-curve $-1 0 36.666752744131799 7.8110578991016331 -1 0 0 I I #
coedge $-1 $271 $378 $273 $397 reversed $165 $-1 #
vertex $-1 $389 $525 #
straight-curve $-1 0 -36.666752744131799 7.8110578991016331 1 0 0 I I #
edge $-1 $276 -7.8110578991016331 $386 7.8110578991016331 $273 $526 forward 7 unknown #
edge $-1 $277 -7.8110578991016331 $385 7.8110578991016331 $274 $527 forward 7 unknown #
point $-1 63.408917508468889 -36.666752744131799 7.8110578991016331 #
point $-1 63.408917508468889 36.666752744131799 7.8110578991016331 #
face $-1 $-1 $418 $40 $-1 $528 reversed single #
loop $-1 $-1 $529 $279 #
plane-surface $-1 -63.408917508468889 0 0 1 0 0 0 0 -1 forward_v I I I I #
coedge $-1 $405 $421 $283 $408 forward $280 $-1 #
coedge $-1 $290 $404 $282 $406 forward $280 $-1 #
edge $-1 $412 0.13541335604156535 $293 3.9005592373596794 $405 $530 forward 7 unknown #
coedge $-1 $284 $283 $529 $531 reversed $109 $-1 #
edge $-1 $532 -33.341970391098997 $412 -26.791923843640777 $404 $533 forward 7 unknown #
coedge $-1 $417 $416 $284 $410 forward $418 $-1 #
edge $-1 $411 26.791923843640777 $534 33.341970391098997 $409 $535 forward 7 unknown #
vertex $-1 $410 $536 #
vertex $-1 $408 $537 #
straight-curve $-1 -56.858870961010666 0 2.1533996527421877 0 -1 0 I I #
coedge $-1 $538 $539 $287 $415 forward $402 $-1 #
edge $-1 $422 -36.666752744131799 $419 36.666752744131799 $414 $540 forward 7 unknown #
coedge $-1 $409 $288 $292 $424 forward $418 $-1 #
coedge $-1 $288 $409 $538 $541 reversed $418 $-1 #
loop $-1 $-1 $409 $401 #
vertex $-1 $541 $542 #
straight-curve $-1 -30.066947117369889 36.666752744131799 5.9185455340603017 1 0 0 I I #
coedge $-1 $404 $290 $539 $543 forward $280 $-1 #
vertex $-1 $543 $544 #
straight-curve $-1 -30.066947117369889 -36.666752744131799 5.9185455340603017 -1 0 0 I I #
edge $-1 $294 -3.9005592373596794 $411 -0.13541335604156535 $416 $545 forward 7 unknown #
point $-1 -56.858870961010666 -36.666752744131799 5.9185455340603017 #
point $-1 -56.858870961010666 36.666752744131799 5.9185455340603017 #
loop $-1 $-1 $432 $296 #
plane-surface $-1 63.408917508468889 0 0 -1 0 0 0 0 1 forward_v I I I I #
coedge $-1 $299 $437 $546 $547 forward $181 $-1 #
coedge $-1 $301 $300 $299 $431 reversed $113 $-1 #
edge $-1 $548 -38.378060234074511 $438 -11.683654314714246 $299 $549 forward 7 unknown #
coedge $-1 $546 $550 $301 $433 forward $427 $-1 #
edge $-1 $435 -8.2710401171830146 $548 -3.831203794748772 $432 $551 forward 7 unknown #
coedge $-1 $307 $302 $550 $552 reversed $297 $-1 #
vertex $-1 $303 $553 #
straight-curve $-1 25.030857274394378 -36.666752744131799 4.087497813443095 1 0 0 I I #
coedge $-1 $429 $304 $307 $441 forward $181 $-1 #
vertex $-1 $305 $554 #
straight-curve $-1 36.714511589108625 -71.512569739243503 7.811057899101634 0 -1 0 I I #
straight-curve $-1 36.714511589108625 -36.666752744131784 4.0874978134431217 0 0.54463902268945019 0.83867057594974714 I I #
edge $-1 $308 36.714511589108625 $555 63.408917508468889 $307 $556 forward 7 unknown #
point $-1 36.714511589108625 -36.666752744131799 7.8110578991016331 #
point $-1 36.714511589108625 -36.666752744131799 4.0874978134430995 #
edge $-1 $557 1 $557 0 $311 $-1 forward 7 unknown #
vertex $-1 $312 $558 #
ellipse-curve $-1 44.341484708925847 -34.351752574368263 5.2310680765885493 0 -0.83867057594974714 0.54463902268945019 0.5 0 0 1 I I #
point $-1 44.841484708925847 -35.457698686355947 5.9492778562723716 #
edge $-1 $559 1 $559 0 $315 $-1 forward 7 unknown #
vertex $-1 $316 $560 #
ellipse-curve $-1 55.781944388651681 -34.351752574368263 5.2310680765885493 0 -0.83867057594974714 0.54463902268945019 0.5 0 0 1 I I #
point $-1 56.281944388651681 -35.457698686355947 5.9492778562723716 #
plane-surface $-1 0 0 7.8110578991016331 0 0 1 1 0 0 forward_v I I I I #
coedge $-1 $463 $462 $455 $561 forward $320 $-1 #
coedge $-1 $455 $322 $324 $459 reversed $203 $-1 #
coedge $-1 $322 $454 $453 $561 reversed $203 $-1 #
coedge $-1 $330 $325 $322 $457 forward $331 $-1 #
edge $-1 $460 -9.2209760645322092 $562 -3.0343057721188273 $456 $563 forward 7 unknown #
coedge $-1 $324 $323 $463 $564 reversed $127 $-1 #
edge $-1 $565 -73.333505488263597 $460 -64.26211949219838 $454 $566 forward 7 unknown #
vertex $-1 $326 $567 #
straight-curve $-1 -16.137311833740753 30.480082451718424 7.8110578991016304 1 0 0 I I #
coedge $-1 $453 $327 $330 $467 reversed $320 $-1 #
coedge $-1 $327 $453 $458 $564 forward $320 $-1 #
vertex $-1 $328 $568 #
straight-curve $-1 -45.949868058921027 36.666752744131799 70.649475889497211 0 0 1 I I #
straight-curve $-1 -45.949868058921027 -13.346577086564949 54.809397394715504 0 0.68199835119979291 -0.73135370988377701 I I #
edge $-1 $562 18.59937927604199 $332 45.949868058921027 $462 $569 forward 7 unknown #
point $-1 -45.949868058921027 36.666752744131799 7.8110578991016331 #
point $-1 -45.949868058921027 30.480082451718417 7.8110578991016411 #
edge $-1 $570 1 $570 0 $335 $-1 forward 7 unknown #
vertex $-1 $336 $571 #
ellipse-curve $-1 -40.479770302345216 31.045128246933583 2.1361940934568184 0 0.73135370988377701 0.68199835119979291 1.5 0 0 1 I I #
point $-1 -38.979770302345216 33.573417597925122 4.4938619980966124 #
edge $-1 $572 1 $572 0 $339 $-1 forward 7 unknown #
vertex $-1 $340 $573 #
ellipse-curve $-1 -32.274623667481507 31.045128246933583 2.1361940934568184 0 0.73135370988377701 0.68199835119979291 1.5 0 0 1 I I #
point $-1 -30.774623667481507 33.573417597925122 4.4938619980966124 #
edge $-1 $574 1 $574 0 $343 $-1 forward 7 unknown #
vertex $-1 $344 $575 #
ellipse-curve $-1 -24.069477032617797 31.045128246933583 2.1361940934568184 0 0.73135370988377701 0.68199835119979291 1.5 0 0 1 I I #
point $-1 -22.569477032617797 33.573417597925122 4.4938619980966124 #
loop $-1 $-1 $355 $347 #
plane-surface $-1 0 36.666752744131799 0 0 -1 0 0 0 -1 forward_v I I I I #
coedge $-1 $485 $350 $352 $489 reversed $232 $-1 #
coedge $-1 $350 $484 $576 $577 reversed $232 $-1 #
coedge $-1 $358 $353 $350 $487 forward $348 $-1 #
edge $-1 $490 -9.2209760645322092 $578 -3.0343057721188273 $486 $579 forward 7 unknown #
coedge $-1 $352 $351 $493 $580 reversed $146 $-1 #
edge $-1 $581 -73.333505488263597 $490 -64.26211949219838 $484 $582 forward 7 unknown #
vertex $-1 $354 $583 #
straight-curve $-1 19.412335107469858 30.480082451718424 7.8110578991016304 1 0 0 I I #
coedge $-1 $576 $355 $358 $497 reversed $482 $-1 #
coedge $-1 $355 $576 $488 $580 forward $482 $-1 #
vertex $-1 $356 $584 #
straight-curve $-1 25.149425823500199 36.666752744131799 70.649475889497211 0 0 1 I I #
straight-curve $-1 25.149425823500199 -13.346577086564949 54.809397394715504 0 0.68199835119979291 -0.73135370988377701 I I #
edge $-1 $578 -52.499914606379235 $359 -25.149425823500199 $492 $585 forward 7 unknown #
point $-1 25.149425823500199 36.666752744131799 7.8110578991016331 #
point $-1 25.149425823500199 30.480082451718417 7.8110578991016411 #
edge $-1 $586 1 $586 0 $362 $-1 forward 7 unknown #
vertex $-1 $363 $587 #
ellipse-curve $-1 30.619523580076006 31.045128246933583 2.1361940934568184 0 0.73135370988377701 0.68199835119979291 1.5 0 0 1 I I #
point $-1 32.119523580076006 33.573417597925122 4.4938619980966124 #
edge $-1 $588 1 $588 0 $366 $-1 forward 7 unknown #
vertex $-1 $367 $589 #
ellipse-curve $-1 38.824670214939715 31.045128246933583 2.1361940934568184 0 0.73135370988377701 0.68199835119979291 1.5 0 0 1 I I #
point $-1 40.324670214939715 33.573417597925122 4.4938619980966124 #
edge $-1 $590 1 $590 0 $370 $-1 forward 7 unknown #
vertex $-1 $371 $591 #
ellipse-curve $-1 47.029816849803424 31.045128246933583 2.1361940934568184 0 0.73135370988377701 0.68199835119979291 1.5 0 0 1 I I #
point $-1 48.529816849803424 33.573417597925122 4.4938619980966124 #
plane-surface $-1 63.408917508468889 0 0 -1 0 0 0 0 1 forward_v I I I I #
coedge $-1 $379 $377 $381 $517 reversed $261 $-1 #
edge $-1 $392 -7.8110578991016331 $519 7.8110578991016331 $391 $592 forward 7 unknown #
vertex $-1 $517 $593 #
straight-curve $-1 -63.408917508468889 -36.666752744131799 0 0 0 -1 I I #
edge $-1 $515 -36.666752744131799 $519 36.666752744131799 $513 $594 forward 7 unknown #
straight-curve $-1 0 -36.666752744131799 -7.8110578991016331 -1 0 0 I I #
vertex $-1 $384 $595 #
straight-curve $-1 0 36.666752744131799 -7.8110578991016331 1 0 0 I I #
point $-1 63.408917508468889 36.666752744131799 -7.8110578991016331 #
point $-1 63.408917508468889 -36.666752744131799 -7.8110578991016331 #
straight-curve $-1 -63.408917508468889 0 7.8110578991016331 0 -1 0 I I #
point $-1 -63.408917508468889 36.666752744131799 7.8110578991016331 #
point $-1 -63.408917508468889 -36.666752744131799 7.8110578991016331 #
straight-curve $-1 63.408917508468889 -36.666752744131799 0 0 0 -1 I I #
straight-curve $-1 63.408917508468889 36.666752744131799 0 0 0 -1 I I #
plane-surface $-1 0 36.666752744131799 0 0 -1 0 0 0 -1 forward_v I I I I #
coedge $-1 $539 $538 $407 $531 forward $402 $-1 #
straight-curve $-1 -56.858870961010666 -36.666752744131799 2.0179862967006224 0 0 1 I I #
edge $-1 $534 -36.666752744131799 $532 36.666752744131799 $529 $596 forward 7 unknown #
vertex $-1 $408 $597 #
straight-curve $-1 -30.066947117369889 -36.666752744131799 2.1533996527421877 1 0 0 I I #
vertex $-1 $410 $598 #
straight-curve $-1 -30.066947117369889 36.666752744131799 2.1533996527421877 -1 0 0 I I #
point $-1 -56.858870961010666 36.666752744131799 2.1533996527421877 #
point $-1 -56.858870961010666 -36.666752744131799 2.1533996527421877 #
coedge $-1 $529 $414 $417 $541 forward $402 $-1 #
coedge $-1 $414 $529 $421 $543 reversed $402 $-1 #
straight-curve $-1 -63.408917508468889 0 5.9185455340603017 0 1 0 I I #
edge $-1 $419 -5.9185455340603017 $534 -2.1533996527421877 $417 $599 forward 7 unknown #
point $-1 -63.408917508468889 36.666752744131799 5.9185455340603017 #
edge $-1 $422 -5.9185455340603017 $532 -2.1533996527421877 $539 $600 forward 7 unknown #
point $-1 -63.408917508468889 -36.666752744131799 5.9185455340603017 #
straight-curve $-1 -56.858870961010666 36.666752744131799 2.0179862967006224 0 0 -1 I I #
coedge $-1 $550 $432 $429 $547 reversed $427 $-1 #
edge $-1 $555 -36.666752744131799 $548 -34.248644628580088 $546 $601 forward 7 unknown #
vertex $-1 $433 $602 #
straight-curve $-1 25.030857274394378 -34.248644628580088 7.811057899101634 -1 0 0 I I #
coedge $-1 $432 $546 $434 $552 forward $427 $-1 #
straight-curve $-1 63.408917508468889 -32.162021538084005 11.024175792224442 0 0.54463902268945019 0.83867057594974714 I I #
edge $-1 $555 -7.8110578991016331 $435 -4.0874978134430995 $550 $603 forward 7 unknown #
point $-1 63.408917508468889 -36.666752744131799 4.0874978134430995 #
point $-1 36.714511589108625 -34.248644628580088 7.8110578991016322 #
vertex $-1 $547 $604 #
straight-curve $-1 0 -36.666752744131799 7.8110578991016331 1 0 0 I I #
vertex $-1 $444 $605 #
point $-1 44.841484708925847 -34.351752574368263 5.2310680765885493 #
vertex $-1 $448 $606 #
point $-1 56.281944388651681 -34.351752574368263 5.2310680765885493 #
edge $-1 $562 62.838417990395577 $565 69.472809792405627 $453 $607 forward 7 unknown #
vertex $-1 $467 $608 #
straight-curve $-1 -18.59937927604199 39.701058516250626 7.8110578991016268 0 1 0 I I #
edge $-1 $565 2.4620674423012368 $464 29.812556225180273 $463 $609 forward 7 unknown #
vertex $-1 $564 $610 #
straight-curve $-1 -18.59937927604199 -13.346577086564949 54.809397394715504 0 -0.68199835119979291 0.73135370988377701 I I #
point $-1 -18.59937927604199 30.480082451718417 7.8110578991016411 #
point $-1 -45.949868058921027 36.666752744131799 1.1766660970915908 #
straight-curve $-1 0 36.666752744131799 7.8110578991016331 -1 0 0 I I #
vertex $-1 $470 $611 #
point $-1 -38.979770302345216 31.045128246933583 2.1361940934568184 #
vertex $-1 $474 $612 #
point $-1 -30.774623667481507 31.045128246933583 2.1361940934568184 #
vertex $-1 $478 $613 #
point $-1 -22.569477032617797 31.045128246933583 2.1361940934568184 #
coedge $-1 $493 $492 $485 $577 forward $482 $-1 #
edge $-1 $578 62.838417990395577 $581 69.472809792405627 $576 $614 forward 7 unknown #
vertex $-1 $497 $615 #
straight-curve $-1 52.499914606379235 39.701058516250626 7.8110578991016268 0 1 0 I I #
edge $-1 $581 -33.087579498909378 $494 -5.737090716030341 $493 $616 forward 7 unknown #
vertex $-1 $580 $617 #
straight-curve $-1 52.499914606379235 -13.346577086564949 54.809397394715504 0 -0.68199835119979291 0.73135370988377701 I I #
point $-1 52.499914606379235 30.480082451718417 7.8110578991016411 #
point $-1 25.149425823500199 36.666752744131799 1.1766660970915908 #
straight-curve $-1 0 36.666752744131799 7.8110578991016331 -1 0 0 I I #
vertex $-1 $500 $618 #
point $-1 32.119523580076006 31.045128246933583 2.1361940934568184 #
vertex $-1 $504 $619 #
point $-1 40.324670214939715 31.045128246933583 2.1361940934568184 #
vertex $-1 $508 $620 #
point $-1 48.529816849803424 31.045128246933583 2.1361940934568184 #
straight-curve $-1 -63.408917508468889 36.666752744131799 0 0 0 -1 I I #
point $-1 -63.408917508468889 -36.666752744131799 -7.8110578991016331 #
straight-curve $-1 -63.408917508468889 0 -7.8110578991016331 0 1 0 I I #
point $-1 -63.408917508468889 36.666752744131799 -7.8110578991016331 #
straight-curve $-1 -63.408917508468889 0 2.1533996527421877 0 -1 0 I I #
point $-1 -63.408917508468889 -36.666752744131799 2.1533996527421877 #
point $-1 -63.408917508468889 36.666752744131799 2.1533996527421877 #
straight-curve $-1 -63.408917508468889 36.666752744131799 0 0 0 -1 I I #
straight-curve $-1 -63.408917508468889 -36.666752744131799 0 0 0 -1 I I #
straight-curve $-1 63.408917508468889 0 7.8110578991016331 0 1 0 I I #
point $-1 63.408917508468889 -34.248644628580088 7.8110578991016322 #
straight-curve $-1 63.408917508468889 -36.666752744131799 0 0 0 -1 I I #
point $-1 63.408917508468889 -36.666752744131799 7.8110578991016331 #
point $-1 44.341484708925847 -33.932417286393388 4.958748565243825 #
point $-1 55.781944388651681 -33.932417286393388 4.958748565243825 #
straight-curve $-1 -18.59937927604199 36.666752744131799 70.649475889497211 0 0 -1 I I #
point $-1 -18.59937927604199 36.666752744131799 7.8110578991016331 #
straight-curve $-1 -16.137311833740753 36.666752744131799 1.1766660970915872 -1 0 0 I I #
point $-1 -18.59937927604199 36.666752744131799 1.1766660970915908 #
point $-1 -40.479770302345216 29.948097682107917 1.1131965666571291 #
point $-1 -32.274623667481507 29.948097682107917 1.1131965666571291 #
point $-1 -24.069477032617797 29.948097682107917 1.1131965666571291 #
straight-curve $-1 52.499914606379235 36.666752744131799 70.649475889497211 0 0 -1 I I #
point $-1 52.499914606379235 36.666752744131799 7.8110578991016331 #
straight-curve $-1 19.412335107469858 36.666752744131799 1.1766660970915872 -1 0 0 I I #
point $-1 52.499914606379235 36.666752744131799 1.1766660970915908 #
point $-1 30.619523580076006 29.948097682107917 1.1131965666571291 #
point $-1 38.824670214939715 29.948097682107917 1.1131965666571291 #
point $-1 47.029816849803424 29.948097682107917 1.1131965666571291 #
End-of-ACIS-data 