500 0 10 0           
7 Unknown 11 ACIS 5.0 NT 24 Thu Mar 25 20:30:25 1999 
-1 9.9999999999999995e-007 1e-010 
body $-1 $10 $-1 $11 #
body $-1 $12 $-1 $13 #
body $-1 $14 $-1 $15 #
body $-1 $16 $-1 $17 #
body $-1 $18 $-1 $19 #
body $-1 $20 $-1 $21 #
body $-1 $22 $-1 $23 #
body $-1 $24 $-1 $25 #
body $-1 $26 $-1 $27 #
body $-1 $28 $-1 $29 #
lump $-1 $-1 $30 $0 #
transform $-1 1 0 0 0 1 0 0 0 1 45.570238349559006 19.959978570412481 4.9192420100473964 1 rotate no_reflect no_shear #
lump $-1 $-1 $31 $1 #
transform $-1 1 0 0 0 1 0 0 0 1 45.570238349559006 19.959978570412481 4.9192420100473964 1 rotate no_reflect no_shear #
lump $-1 $-1 $32 $2 #
transform $-1 1 0 0 0 1 0 0 0 1 45.570238349559006 19.959978570412481 4.9192420100473964 1 rotate no_reflect no_shear #
lump $-1 $-1 $33 $3 #
transform $-1 1 0 0 0 1 0 0 0 1 45.570238349559006 19.959978570412481 4.9192420100473964 1 rotate no_reflect no_shear #
lump $-1 $-1 $34 $4 #
transform $-1 1 0 0 0 1 0 0 0 1 45.570238349559006 19.959978570412481 4.9192420100473964 1 rotate no_reflect no_shear #
lump $-1 $-1 $35 $5 #
transform $-1 1 0 0 0 1 0 0 0 1 45.570238349559006 19.959978570412481 4.9192420100473964 1 rotate no_reflect no_shear #
lump $-1 $-1 $36 $6 #
transform $-1 1 0 0 0 1 0 0 0 1 45.570238349559006 19.959978570412481 4.9192420100473964 1 rotate no_reflect no_shear #
lump $-1 $-1 $37 $7 #
transform $-1 1 0 0 0 1 0 0 0 1 45.570238349559006 19.959978570412481 4.9192420100473964 1 rotate no_reflect no_shear #
lump $-1 $-1 $38 $8 #
transform $-1 1 0 0 0 1 0 0 0 1 45.570238349559006 19.959978570412481 4.9192420100473964 1 rotate no_reflect no_shear #
lump $-1 $-1 $39 $9 #
transform $-1 1 0 0 0 1 0 0 0 1 45.570238349559006 19.959978570412481 4.9192420100473964 1 rotate no_reflect no_shear #
shell $-1 $-1 $-1 $40 $-1 $10 #
shell $-1 $-1 $-1 $41 $-1 $12 #
shell $-1 $-1 $-1 $42 $-1 $14 #
shell $-1 $-1 $-1 $43 $-1 $16 #
shell $-1 $-1 $-1 $44 $-1 $18 #
shell $-1 $-1 $-1 $45 $-1 $20 #
shell $-1 $-1 $-1 $46 $-1 $22 #
shell $-1 $-1 $-1 $47 $-1 $24 #
shell $-1 $-1 $-1 $48 $-1 $26 #
shell $-1 $-1 $-1 $49 $-1 $28 #
face $-1 $50 $51 $30 $-1 $52 forward single #
face $-1 $53 $54 $31 $-1 $55 forward single #
face $-1 $56 $57 $32 $-1 $58 reversed single #
face $-1 $59 $60 $33 $-1 $61 forward single #
face $-1 $62 $63 $34 $-1 $64 reversed single #
face $-1 $65 $66 $35 $-1 $67 forward single #
face $-1 $68 $69 $36 $-1 $70 reversed single #
face $-1 $71 $72 $37 $-1 $73 forward single #
face $-1 $74 $75 $38 $-1 $76 reversed single #
face $-1 $77 $78 $39 $-1 $79 forward single #
face $-1 $80 $81 $30 $-1 $82 reversed single #
loop $-1 $-1 $83 $40 #
plane-surface $-1 0 0 4.9192420100473964 0 0 1 1 0 0 forward_v I I I I #
face $-1 $84 $85 $31 $-1 $86 reversed single #
loop $-1 $-1 $87 $41 #
plane-surface $-1 -42.348606985330072 0 -1.9192420100473964 0 0 1 1 0 0 forward_v I I I I #
face $-1 $88 $89 $32 $-1 $90 reversed single #
loop $-1 $-1 $91 $42 #
plane-surface $-1 -39.126975621101138 74.654848213012627 84.18038846003175 1 0 0 0 -0.83867057594974714 -0.54463902268945019 forward_v I I I I #
face $-1 $92 $93 $33 $-1 $94 forward single #
loop $-1 $95 $96 $43 #
cone-surface $-1 -34.271076549460254 18.112093682474953 2.6039583565968707 0 -0.83867057594974714 -0.54463902268945019 0.5 0 0 1 I I 0 1 0.5 forward I I I I #
face $-1 $97 $98 $34 $-1 $99 reversed single #
loop $-1 $-1 $100 $44 #
plane-surface $-1 -14.131837011975005 74.654848213012627 84.18038846003175 1 0 0 0 -0.83867057594974714 -0.54463902268945019 forward_v I I I I #
face $-1 $101 $102 $35 $-1 $103 forward single #
loop $-1 $104 $105 $45 #
cone-surface $-1 -9.2759379403341242 18.112093682474953 2.6039583565968707 0 -0.83867057594974714 -0.54463902268945019 0.5 0 0 1 I I 0 1 0.5 forward I I I I #
face $-1 $106 $107 $36 $-1 $108 reversed single #
loop $-1 $-1 $109 $46 #
plane-surface $-1 10.863301597151125 74.654848213012627 84.18038846003175 1 0 0 0 -0.83867057594974714 -0.54463902268945019 forward_v I I I I #
face $-1 $110 $111 $37 $-1 $112 forward single #
loop $-1 $113 $114 $47 #
cone-surface $-1 15.719200668792006 18.112093682474953 2.6039583565968707 0 -0.83867057594974714 -0.54463902268945019 0.5 0 0 1 I I 0 1 0.5 forward I I I I #
face $-1 $115 $116 $38 $-1 $117 reversed single #
loop $-1 $-1 $118 $48 #
plane-surface $-1 35.858440206277258 74.654848213012627 84.18038846003175 1 0 0 0 -0.83867057594974714 -0.54463902268945019 forward_v I I I I #
face $-1 $119 $120 $39 $-1 $121 forward single #
loop $-1 $122 $123 $49 #
cone-surface $-1 40.714339277918143 18.112093682474953 2.6039583565968707 0 -0.83867057594974714 -0.54463902268945019 0.5 0 0 1 I I 0 1 0.5 forward I I I I #
face $-1 $124 $125 $30 $-1 $126 reversed single #
loop $-1 $-1 $127 $50 #
plane-surface $-1 0 0 -4.9192420100473964 0 0 1 1 0 0 forward_v I I I I #
coedge $-1 $128 $129 $130 $131 forward $51 $-1 #
face $-1 $132 $133 $31 $-1 $134 reversed single #
loop $-1 $-1 $135 $53 #
plane-surface $-1 -39.126975621101138 0 -3.4192420100473964 -1 0 0 0 0 1 forward_v I I I I #
coedge $-1 $136 $137 $138 $139 forward $54 $-1 #
face $-1 $140 $141 $32 $-1 $142 reversed single #
loop $-1 $-1 $143 $56 #
plane-surface $-1 -34.271076549460254 -1.7819878725711789 34.541728303173507 0 0.83867057594974714 0.54463902268945019 1 0 0 forward_v I I I I #
coedge $-1 $144 $145 $146 $147 reversed $57 $-1 #
face $-1 $-1 $148 $33 $-1 $149 forward single #
loop $-1 $150 $151 $59 #
cone-surface $-1 -34.271076549460254 17.30699091744345 2.0811185245033617 0 -0.83867057594974714 -0.54463902268945019 0.25 0 0 1 I I -0.70710678118654746 0.70710678118654746 0.25 forward I I I I #
loop $-1 $-1 $152 $43 #
coedge $-1 $96 $96 $153 $154 reversed $60 $-1 #
face $-1 $155 $156 $34 $-1 $157 reversed single #
loop $-1 $-1 $158 $62 #
plane-surface $-1 -9.2759379403341242 -1.7819878725711789 34.541728303173507 0 0.83867057594974714 0.54463902268945019 1 0 0 forward_v I I I I #
coedge $-1 $159 $160 $161 $162 reversed $63 $-1 #
face $-1 $-1 $163 $35 $-1 $164 forward single #
loop $-1 $165 $166 $65 #
cone-surface $-1 -9.2759379403341242 17.30699091744345 2.0811185245033617 0 -0.83867057594974714 -0.54463902268945019 0.25 0 0 1 I I -0.70710678118654746 0.70710678118654746 0.25 forward I I I I #
loop $-1 $-1 $167 $45 #
coedge $-1 $105 $105 $168 $169 reversed $66 $-1 #
face $-1 $170 $171 $36 $-1 $172 reversed single #
loop $-1 $-1 $173 $68 #
plane-surface $-1 15.719200668792006 -1.7819878725711789 34.541728303173507 0 0.83867057594974714 0.54463902268945019 1 0 0 forward_v I I I I #
coedge $-1 $174 $175 $176 $177 reversed $69 $-1 #
face $-1 $-1 $178 $37 $-1 $179 forward single #
loop $-1 $180 $181 $71 #
cone-surface $-1 15.719200668792006 17.30699091744345 2.0811185245033617 0 -0.83867057594974714 -0.54463902268945019 0.25 0 0 1 I I -0.70710678118654746 0.70710678118654746 0.25 forward I I I I #
loop $-1 $-1 $182 $47 #
coedge $-1 $114 $114 $183 $184 reversed $72 $-1 #
face $-1 $185 $186 $38 $-1 $187 forward single #
loop $-1 $-1 $188 $74 #
plane-surface $-1 40.714339277918143 -1.7819878725711789 34.541728303173507 0 0.83867057594974714 0.54463902268945019 1 0 0 forward_v I I I I #
coedge $-1 $189 $190 $191 $192 reversed $75 $-1 #
face $-1 $-1 $193 $39 $-1 $194 forward single #
loop $-1 $195 $196 $77 #
cone-surface $-1 40.714339277918143 17.30699091744345 2.0811185245033617 0 -0.83867057594974714 -0.54463902268945019 0.25 0 0 1 I I -0.70710678118654746 0.70710678118654746 0.25 forward I I I I #
loop $-1 $-1 $197 $49 #
coedge $-1 $123 $123 $198 $199 reversed $78 $-1 #
face $-1 $200 $201 $30 $-1 $202 reversed single #
loop $-1 $-1 $203 $80 #
plane-surface $-1 0 -19.959978570412481 0 0 1 0 0 0 1 forward_v I I I I #
coedge $-1 $204 $205 $206 $207 forward $81 $-1 #
coedge $-1 $208 $83 $209 $210 forward $51 $-1 #
coedge $-1 $83 $208 $211 $212 forward $51 $-1 #
coedge $-1 $213 $214 $83 $131 reversed $215 $-1 #
edge $-1 $216 -19.959978570412481 $217 19.959978570412481 $130 $218 forward 7 unknown #
face $-1 $219 $220 $31 $-1 $221 reversed single #
loop $-1 $-1 $222 $84 #
plane-surface $-1 0 0 -4.9192420100473964 0 0 1 1 0 0 forward_v I I I I #
coedge $-1 $223 $138 $224 $225 reversed $85 $-1 #
coedge $-1 $226 $87 $227 $228 reversed $54 $-1 #
coedge $-1 $87 $226 $229 $230 reversed $54 $-1 #
coedge $-1 $135 $231 $87 $139 reversed $85 $-1 #
edge $-1 $232 -19.959978570412481 $233 19.959978570412481 $138 $234 forward 7 unknown #
face $-1 $235 $236 $32 $-1 $237 reversed single #
loop $-1 $-1 $238 $88 #
plane-surface $-1 -29.415177477819373 74.654848213012627 84.18038846003175 -1 0 0 0 0.83867057594974714 0.54463902268945019 forward_v I I I I #
coedge $-1 $239 $240 $241 $242 reversed $89 $-1 #
coedge $-1 $145 $91 $243 $244 reversed $57 $-1 #
coedge $-1 $91 $144 $239 $245 reversed $57 $-1 #
coedge $-1 $241 $246 $91 $147 forward $247 $-1 #
edge $-1 $248 17.367445536093832 $249 19.872345069880769 $146 $250 forward 7 unknown #
loop $-1 $-1 $153 $92 #
plane-surface $-1 -34.271076549460254 -1.7819878725711789 34.541728303173507 0 0.83867057594974714 0.54463902268945019 1 0 0 forward_v I I I I #
loop $-1 $-1 $251 $59 #
coedge $-1 $151 $151 $152 $252 reversed $93 $-1 #
coedge $-1 $152 $152 $151 $252 forward $95 $-1 #
coedge $-1 $153 $153 $96 $154 forward $148 $-1 #
edge $-1 $253 4.4516829232526558e-015 $253 6.2831853071796049 $153 $254 forward 7 unknown #
face $-1 $255 $256 $34 $-1 $257 forward single #
loop $-1 $-1 $258 $97 #
plane-surface $-1 -4.4200388686932426 74.654848213012627 84.18038846003175 -1 0 0 0 0.83867057594974714 0.54463902268945019 forward_v I I I I #
coedge $-1 $259 $260 $261 $262 reversed $98 $-1 #
coedge $-1 $160 $100 $263 $264 reversed $63 $-1 #
coedge $-1 $100 $159 $259 $265 reversed $63 $-1 #
coedge $-1 $261 $266 $100 $162 forward $256 $-1 #
edge $-1 $267 17.367445536093832 $268 19.872345069880769 $161 $269 forward 7 unknown #
loop $-1 $-1 $168 $101 #
plane-surface $-1 -9.2759379403341242 -1.7819878725711789 34.541728303173507 0 0.83867057594974714 0.54463902268945019 1 0 0 forward_v I I I I #
loop $-1 $-1 $270 $65 #
coedge $-1 $166 $166 $167 $271 reversed $102 $-1 #
coedge $-1 $167 $167 $166 $271 forward $104 $-1 #
coedge $-1 $168 $168 $105 $169 forward $163 $-1 #
edge $-1 $272 4.4516829232526558e-015 $272 6.2831853071796049 $168 $273 forward 7 unknown #
face $-1 $274 $275 $36 $-1 $276 forward single #
loop $-1 $-1 $277 $106 #
plane-surface $-1 20.575099740432886 74.654848213012627 84.18038846003175 -1 0 0 0 0.83867057594974714 0.54463902268945019 forward_v I I I I #
coedge $-1 $278 $279 $280 $281 reversed $107 $-1 #
coedge $-1 $175 $109 $282 $283 reversed $69 $-1 #
coedge $-1 $109 $174 $278 $284 reversed $69 $-1 #
coedge $-1 $280 $285 $109 $177 forward $275 $-1 #
edge $-1 $286 17.367445536093832 $287 19.872345069880769 $176 $288 forward 7 unknown #
loop $-1 $-1 $183 $110 #
plane-surface $-1 15.719200668792006 -1.7819878725711789 34.541728303173507 0 0.83867057594974714 0.54463902268945019 1 0 0 forward_v I I I I #
loop $-1 $-1 $289 $71 #
coedge $-1 $181 $181 $182 $290 reversed $111 $-1 #
coedge $-1 $182 $182 $181 $290 forward $113 $-1 #
coedge $-1 $183 $183 $114 $184 forward $178 $-1 #
edge $-1 $291 4.4516829232526558e-015 $291 6.2831853071796049 $183 $292 forward 7 unknown #
face $-1 $293 $294 $38 $-1 $295 reversed single #
loop $-1 $-1 $191 $115 #
plane-surface $-1 0 0 4.9192420100473964 0 0 1 1 0 0 forward_v I I I I #
coedge $-1 $296 $297 $298 $299 reversed $116 $-1 #
coedge $-1 $190 $118 $300 $301 reversed $75 $-1 #
coedge $-1 $118 $189 $296 $302 reversed $75 $-1 #
coedge $-1 $298 $303 $118 $192 forward $186 $-1 #
edge $-1 $304 17.367445536093832 $305 19.872345069880769 $191 $306 forward 7 unknown #
loop $-1 $-1 $198 $119 #
plane-surface $-1 40.714339277918143 -1.7819878725711789 34.541728303173507 0 0.83867057594974714 0.54463902268945019 1 0 0 forward_v I I I I #
loop $-1 $-1 $307 $77 #
coedge $-1 $196 $196 $197 $308 reversed $120 $-1 #
coedge $-1 $197 $197 $196 $308 forward $122 $-1 #
coedge $-1 $198 $198 $123 $199 forward $193 $-1 #
edge $-1 $309 4.4516829232526558e-015 $309 6.2831853071796049 $198 $310 forward 7 unknown #
face $-1 $311 $312 $30 $-1 $313 reversed single #
loop $-1 $-1 $314 $124 #
plane-surface $-1 -45.570238349559006 0 0 1 0 0 0 0 -1 forward_v I I I I #
coedge $-1 $315 $211 $316 $317 forward $125 $-1 #
coedge $-1 $318 $127 $315 $319 forward $81 $-1 #
coedge $-1 $127 $318 $320 $321 forward $81 $-1 #
coedge $-1 $214 $213 $127 $207 reversed $215 $-1 #
edge $-1 $322 -19.959978570412481 $323 19.959978570412481 $206 $324 forward 7 unknown #
coedge $-1 $129 $128 $325 $326 forward $51 $-1 #
coedge $-1 $327 $328 $128 $210 reversed $312 $-1 #
edge $-1 $217 -45.570238349559006 $329 45.570238349559006 $209 $330 forward 7 unknown #
coedge $-1 $203 $331 $129 $212 reversed $125 $-1 #
edge $-1 $332 -45.570238349559006 $216 45.570238349559006 $211 $333 forward 7 unknown #
coedge $-1 $206 $130 $331 $334 forward $215 $-1 #
coedge $-1 $130 $206 $327 $335 reversed $215 $-1 #
loop $-1 $-1 $213 $311 #
vertex $-1 $131 $336 #
vertex $-1 $131 $337 #
straight-curve $-1 45.570238349559006 0 4.9192420100473964 0 1 0 I I #
face $-1 $338 $339 $31 $-1 $340 reversed single #
loop $-1 $-1 $224 $132 #
plane-surface $-1 0 -19.959978570412481 0 0 1 0 0 0 1 forward_v I I I I #
coedge $-1 $341 $342 $223 $343 forward $133 $-1 #
coedge $-1 $231 $135 $222 $343 reversed $85 $-1 #
coedge $-1 $229 $344 $135 $225 forward $220 $-1 #
edge $-1 $345 -3.2096210050236982 $232 -0.20962100502369818 $224 $346 forward 7 unknown #
coedge $-1 $137 $136 $347 $348 reversed $54 $-1 #
coedge $-1 $349 $350 $136 $228 forward $351 $-1 #
edge $-1 $352 -24.39593485689397 $233 -17.952672128436102 $227 $353 forward 7 unknown #
coedge $-1 $354 $224 $137 $230 forward $220 $-1 #
edge $-1 $232 17.952672128436102 $355 24.39593485689397 $229 $356 forward 7 unknown #
coedge $-1 $138 $223 $349 $357 reversed $85 $-1 #
vertex $-1 $230 $358 #
vertex $-1 $228 $359 #
straight-curve $-1 -39.126975621101138 0 -1.9192420100473964 0 1 0 I I #
face $-1 $-1 $247 $32 $-1 $360 forward single #
loop $-1 $-1 $361 $140 #
plane-surface $-1 0 19.959978570412481 0 0 -1 0 0 0 -1 forward_v I I I I #
coedge $-1 $362 $363 $364 $365 reversed $141 $-1 #
coedge $-1 $366 $143 $145 $245 forward $89 $-1 #
coedge $-1 $143 $366 $362 $367 forward $89 $-1 #
coedge $-1 $364 $146 $143 $242 forward $247 $-1 #
edge $-1 $249 -21.991437346371011 $368 -12.279639203089246 $241 $369 forward 7 unknown #
coedge $-1 $370 $371 $144 $244 forward $236 $-1 #
edge $-1 $372 -41.028159374027283 $248 -37.170952219968477 $243 $373 forward 7 unknown #
edge $-1 $249 35.320764961356033 $372 39.919957140824991 $145 $374 forward 7 unknown #
coedge $-1 $146 $364 $370 $375 forward $247 $-1 #
loop $-1 $-1 $364 $235 #
vertex $-1 $244 $376 #
vertex $-1 $147 $377 #
straight-curve $-1 -39.126975621101138 37.327424106506314 4.9192420100473981 0 -1 0 I I #
coedge $-1 $251 $251 $-1 $378 reversed $150 $-1 #
edge $-1 $379 0 $379 6.2831853071796004 $151 $380 forward 7 unknown #
vertex $-1 $154 $381 #
ellipse-curve $-1 -34.271076549460254 18.707528803519004 2.9906384330180078 0 0.83867057594974714 0.54463902268945019 0.5 0 0 1 I I #
face $-1 $-1 $382 $34 $-1 $383 reversed single #
loop $-1 $-1 $161 $155 #
plane-surface $-1 0 0 4.9192420100473964 0 0 1 1 0 0 forward_v I I I I #
coedge $-1 $384 $385 $386 $387 reversed $156 $-1 #
coedge $-1 $388 $158 $160 $265 forward $98 $-1 #
coedge $-1 $158 $388 $384 $389 forward $98 $-1 #
coedge $-1 $386 $161 $158 $262 forward $256 $-1 #
edge $-1 $268 -9.4938680418079429 $390 0.21793010147381953 $261 $391 forward 7 unknown #
coedge $-1 $392 $393 $159 $264 forward $382 $-1 #
edge $-1 $394 -41.028159374027283 $267 -37.170952219968477 $263 $395 forward 7 unknown #
edge $-1 $268 35.320764961356033 $394 39.919957140824991 $160 $396 forward 7 unknown #
coedge $-1 $161 $386 $392 $397 forward $256 $-1 #
vertex $-1 $162 $398 #
vertex $-1 $162 $399 #
straight-curve $-1 -14.131837011975005 37.327424106506314 4.9192420100473981 0 -1 0 I I #
coedge $-1 $270 $270 $-1 $400 reversed $165 $-1 #
edge $-1 $401 0 $401 6.2831853071796004 $166 $402 forward 7 unknown #
vertex $-1 $169 $403 #
ellipse-curve $-1 -9.2759379403341242 18.707528803519004 2.9906384330180078 0 0.83867057594974714 0.54463902268945019 0.5 0 0 1 I I #
face $-1 $-1 $404 $36 $-1 $405 reversed single #
loop $-1 $-1 $176 $170 #
plane-surface $-1 0 0 4.9192420100473964 0 0 1 1 0 0 forward_v I I I I #
coedge $-1 $406 $407 $408 $409 reversed $171 $-1 #
coedge $-1 $410 $173 $175 $284 forward $107 $-1 #
coedge $-1 $173 $410 $406 $411 forward $107 $-1 #
coedge $-1 $408 $176 $173 $281 forward $275 $-1 #
edge $-1 $287 3.0037012627551221 $412 12.715499406036884 $280 $413 forward 7 unknown #
coedge $-1 $414 $415 $174 $283 forward $404 $-1 #
edge $-1 $416 -41.028159374027283 $286 -37.170952219968477 $282 $417 forward 7 unknown #
edge $-1 $287 35.320764961356033 $416 39.919957140824991 $175 $418 forward 7 unknown #
coedge $-1 $176 $408 $414 $419 forward $275 $-1 #
vertex $-1 $177 $420 #
vertex $-1 $177 $421 #
straight-curve $-1 10.863301597151125 37.327424106506314 4.9192420100473981 0 -1 0 I I #
coedge $-1 $289 $289 $-1 $422 reversed $180 $-1 #
edge $-1 $423 0 $423 6.2831853071796004 $181 $424 forward 7 unknown #
vertex $-1 $184 $425 #
ellipse-curve $-1 15.719200668792006 18.707528803519004 2.9906384330180078 0 0.83867057594974714 0.54463902268945019 0.5 0 0 1 I I #
face $-1 $-1 $426 $38 $-1 $427 reversed single #
loop $-1 $-1 $428 $185 #
plane-surface $-1 45.570238349559006 0 0 -1 0 0 0 0 1 forward_v I I I I #
coedge $-1 $429 $188 $190 $302 forward $116 $-1 #
coedge $-1 $188 $429 $428 $430 reversed $116 $-1 #
coedge $-1 $431 $191 $188 $299 forward $186 $-1 #
edge $-1 $305 15.501270567318187 $432 25.213068710599956 $298 $433 forward 7 unknown #
coedge $-1 $434 $435 $189 $301 forward $426 $-1 #
edge $-1 $436 -41.028159374027283 $304 -37.170952219968477 $300 $437 forward 7 unknown #
edge $-1 $305 35.320764961356033 $436 39.919957140824991 $190 $438 forward 7 unknown #
coedge $-1 $191 $431 $434 $439 forward $186 $-1 #
vertex $-1 $301 $440 #
vertex $-1 $192 $441 #
straight-curve $-1 35.858440206277258 37.327424106506314 4.9192420100473981 0 -1 0 I I #
coedge $-1 $307 $307 $-1 $442 reversed $195 $-1 #
edge $-1 $443 0 $443 6.2831853071796004 $196 $444 forward 7 unknown #
vertex $-1 $199 $445 #
ellipse-curve $-1 40.714339277918143 18.707528803519004 2.9906384330180078 0 0.83867057594974714 0.54463902268945019 0.5 0 0 1 I I #
face $-1 $-1 $215 $30 $-1 $446 reversed single #
loop $-1 $-1 $327 $200 #
plane-surface $-1 0 19.959978570412481 0 0 -1 0 0 0 -1 forward_v I I I I #
coedge $-1 $447 $325 $328 $448 forward $201 $-1 #
coedge $-1 $331 $203 $204 $319 reversed $125 $-1 #
coedge $-1 $325 $447 $203 $317 reversed $201 $-1 #
edge $-1 $332 -4.9192420100473964 $449 4.9192420100473964 $316 $450 forward 7 unknown #
coedge $-1 $205 $204 $447 $451 forward $81 $-1 #
edge $-1 $323 -45.570238349559006 $449 45.570238349559006 $315 $452 forward 7 unknown #
coedge $-1 $328 $327 $205 $321 reversed $312 $-1 #
edge $-1 $453 -45.570238349559006 $322 45.570238349559006 $320 $454 forward 7 unknown #
vertex $-1 $207 $455 #
vertex $-1 $334 $456 #
straight-curve $-1 45.570238349559006 0 -4.9192420100473964 0 -1 0 I I #
coedge $-1 $314 $316 $208 $326 reversed $201 $-1 #
edge $-1 $329 -19.959978570412481 $332 19.959978570412481 $325 $457 forward 7 unknown #
coedge $-1 $320 $209 $214 $335 forward $312 $-1 #
coedge $-1 $209 $320 $314 $448 reversed $312 $-1 #
vertex $-1 $210 $458 #
straight-curve $-1 0 19.959978570412481 4.9192420100473964 -1 0 0 I I #
coedge $-1 $211 $315 $213 $334 reversed $125 $-1 #
vertex $-1 $326 $459 #
straight-curve $-1 0 -19.959978570412481 4.9192420100473964 1 0 0 I I #
edge $-1 $216 -4.9192420100473964 $323 4.9192420100473964 $213 $460 forward 7 unknown #
edge $-1 $217 -4.9192420100473964 $322 4.9192420100473964 $214 $461 forward 7 unknown #
point $-1 45.570238349559006 -19.959978570412481 4.9192420100473964 #
point $-1 45.570238349559006 19.959978570412481 4.9192420100473964 #
face $-1 $-1 $351 $31 $-1 $462 reversed single #
loop $-1 $-1 $347 $219 #
plane-surface $-1 -45.570238349559006 0 0 1 0 0 0 0 -1 forward_v I I I I #
coedge $-1 $463 $222 $344 $464 forward $133 $-1 #
coedge $-1 $222 $463 $465 $466 forward $133 $-1 #
edge $-1 $467 -19.959978570412481 $345 19.959978570412481 $222 $468 forward 7 unknown #
coedge $-1 $224 $354 $341 $464 reversed $220 $-1 #
vertex $-1 $464 $469 #
straight-curve $-1 -39.126975621101138 -19.959978570412481 -1.7096210050236982 0 0 1 I I #
coedge $-1 $470 $471 $226 $348 forward $339 $-1 #
edge $-1 $355 -19.959978570412481 $352 19.959978570412481 $347 $472 forward 7 unknown #
coedge $-1 $465 $227 $231 $357 forward $351 $-1 #
coedge $-1 $227 $465 $470 $473 reversed $351 $-1 #
loop $-1 $-1 $349 $338 #
vertex $-1 $473 $474 #
straight-curve $-1 -21.174303492665036 19.959978570412481 -1.9192420100473964 1 0 0 I I #
coedge $-1 $344 $229 $471 $475 forward $220 $-1 #
vertex $-1 $475 $476 #
straight-curve $-1 -21.174303492665036 -19.959978570412481 -1.9192420100473964 -1 0 0 I I #
edge $-1 $233 0.20962100502369818 $467 3.2096210050236982 $349 $477 forward 7 unknown #
point $-1 -39.126975621101138 -19.959978570412481 -1.9192420100473964 #
point $-1 -39.126975621101138 19.959978570412481 -1.9192420100473964 #
plane-surface $-1 0 0 4.9192420100473964 0 0 1 1 0 0 forward_v I I I I #
coedge $-1 $371 $370 $363 $478 forward $236 $-1 #
coedge $-1 $363 $238 $240 $367 reversed $141 $-1 #
coedge $-1 $238 $362 $361 $478 reversed $141 $-1 #
coedge $-1 $246 $241 $238 $365 forward $247 $-1 #
edge $-1 $368 -19.872345069880769 $479 -17.367445536093832 $364 $480 forward 7 unknown #
coedge $-1 $240 $239 $371 $481 reversed $89 $-1 #
edge $-1 $482 -39.919957140824991 $368 -35.320764961356033 $362 $483 forward 7 unknown #
vertex $-1 $242 $484 #
straight-curve $-1 -17.135538274730127 17.455079036625548 4.9192420100473981 1 0 0 I I #
coedge $-1 $361 $243 $246 $375 reversed $236 $-1 #
coedge $-1 $243 $361 $366 $481 forward $236 $-1 #
vertex $-1 $244 $485 #
straight-curve $-1 -39.126975621101138 19.959978570412481 42.090194230015875 0 0 1 I I #
straight-curve $-1 -39.126975621101138 -1.7819878725711789 34.541728303173507 0 0.54463902268945019 -0.83867057594974714 I I #
edge $-1 $479 29.415177477819373 $248 39.126975621101138 $370 $486 forward 7 unknown #
point $-1 -39.126975621101138 19.959978570412481 4.9192420100473964 #
point $-1 -39.126975621101138 17.455079036625545 4.9192420100473981 #
edge $-1 $487 1 $487 0 $251 $-1 forward 7 unknown #
vertex $-1 $252 $488 #
ellipse-curve $-1 -34.271076549460254 17.516658561430887 2.2172782801757243 0 0.83867057594974714 0.54463902268945019 0.5 0 0 1 I I #
point $-1 -33.771076549460254 18.707528803519022 2.9906384330180167 #
loop $-1 $-1 $263 $255 #
plane-surface $-1 0 19.959978570412481 0 0 -1 0 0 0 -1 forward_v I I I I #
coedge $-1 $385 $258 $260 $389 reversed $156 $-1 #
coedge $-1 $258 $384 $489 $490 reversed $156 $-1 #
coedge $-1 $266 $261 $258 $387 forward $256 $-1 #
edge $-1 $390 -19.872345069880769 $491 -17.367445536093832 $386 $492 forward 7 unknown #
coedge $-1 $260 $259 $393 $493 reversed $98 $-1 #
edge $-1 $494 -39.919957140824991 $390 -35.320764961356033 $384 $495 forward 7 unknown #
vertex $-1 $262 $496 #
straight-curve $-1 -4.6379689701670621 17.455079036625548 4.9192420100473981 1 0 0 I I #
coedge $-1 $489 $263 $266 $397 reversed $382 $-1 #
coedge $-1 $263 $489 $388 $493 forward $382 $-1 #
vertex $-1 $264 $497 #
straight-curve $-1 -14.131837011975005 19.959978570412481 42.090194230015875 0 0 1 I I #
straight-curve $-1 -14.131837011975005 -1.7819878725711789 34.541728303173507 0 0.54463902268945019 -0.83867057594974714 I I #
edge $-1 $491 4.4200388686932426 $267 14.131837011975005 $392 $498 forward 7 unknown #
point $-1 -14.131837011975005 19.959978570412481 4.9192420100473964 #
point $-1 -14.131837011975005 17.455079036625545 4.9192420100473981 #
edge $-1 $499 1 $499 0 $270 $-1 forward 7 unknown #
vertex $-1 $271 $500 #
ellipse-curve $-1 -9.2759379403341242 17.516658561430887 2.2172782801757243 0 0.83867057594974714 0.54463902268945019 0.5 0 0 1 I I #
point $-1 -8.7759379403341242 18.707528803519022 2.9906384330180167 #
loop $-1 $-1 $282 $274 #
plane-surface $-1 0 19.959978570412481 0 0 -1 0 0 0 -1 forward_v I I I I #
coedge $-1 $407 $277 $279 $411 reversed $171 $-1 #
coedge $-1 $277 $406 $501 $502 reversed $171 $-1 #
coedge $-1 $285 $280 $277 $409 forward $275 $-1 #
edge $-1 $412 -19.872345069880769 $503 -17.367445536093832 $408 $504 forward 7 unknown #
coedge $-1 $279 $278 $415 $505 reversed $107 $-1 #
edge $-1 $506 -39.919957140824991 $412 -35.320764961356033 $406 $507 forward 7 unknown #
vertex $-1 $281 $508 #
straight-curve $-1 7.8596003343960028 17.455079036625548 4.9192420100473981 1 0 0 I I #
coedge $-1 $501 $282 $285 $419 reversed $404 $-1 #
coedge $-1 $282 $501 $410 $505 forward $404 $-1 #
vertex $-1 $283 $509 #
straight-curve $-1 10.863301597151125 19.959978570412481 42.090194230015875 0 0 1 I I #
straight-curve $-1 10.863301597151125 -1.7819878725711789 34.541728303173507 0 0.54463902268945019 -0.83867057594974714 I I #
edge $-1 $503 -20.575099740432886 $286 -10.863301597151125 $414 $510 forward 7 unknown #
point $-1 10.863301597151125 19.959978570412481 4.9192420100473964 #
point $-1 10.863301597151125 17.455079036625545 4.9192420100473981 #
edge $-1 $511 1 $511 0 $289 $-1 forward 7 unknown #
vertex $-1 $290 $512 #
ellipse-curve $-1 15.719200668792006 17.516658561430887 2.2172782801757243 0 0.83867057594974714 0.54463902268945019 0.5 0 0 1 I I #
point $-1 16.219200668792006 18.707528803519022 2.9906384330180167 #
loop $-1 $-1 $300 $293 #
plane-surface $-1 0 19.959978570412481 0 0 -1 0 0 0 -1 forward_v I I I I #
coedge $-1 $513 $514 $297 $430 forward $294 $-1 #
coedge $-1 $297 $296 $435 $515 reversed $116 $-1 #
edge $-1 $432 20.350929309514118 $516 24.950121488983079 $428 $517 forward 7 unknown #
coedge $-1 $303 $298 $514 $518 forward $186 $-1 #
vertex $-1 $518 $519 #
straight-curve $-1 20.357169638959071 17.455079036625548 4.9192420100473981 1 0 0 I I #
coedge $-1 $520 $300 $303 $439 reversed $426 $-1 #
coedge $-1 $300 $520 $429 $515 forward $426 $-1 #
vertex $-1 $301 $521 #
straight-curve $-1 35.858440206277258 19.959978570412481 42.090194230015875 0 0 1 I I #
straight-curve $-1 35.858440206277258 -1.7819878725711789 34.541728303173507 0 0.54463902268945019 -0.83867057594974714 I I #
edge $-1 $522 -45.570238349559006 $304 -35.858440206277258 $434 $523 forward 7 unknown #
point $-1 35.858440206277258 19.959978570412481 4.9192420100473964 #
point $-1 35.858440206277258 17.455079036625545 4.9192420100473981 #
edge $-1 $524 1 $524 0 $307 $-1 forward 7 unknown #
vertex $-1 $308 $525 #
ellipse-curve $-1 40.714339277918143 17.516658561430887 2.2172782801757243 0 0.83867057594974714 0.54463902268945019 0.5 0 0 1 I I #
point $-1 41.214339277918143 18.707528803519022 2.9906384330180167 #
plane-surface $-1 45.570238349559006 0 0 -1 0 0 0 0 1 forward_v I I I I #
coedge $-1 $316 $314 $318 $451 reversed $201 $-1 #
edge $-1 $329 -4.9192420100473964 $453 4.9192420100473964 $328 $526 forward 7 unknown #
vertex $-1 $451 $527 #
straight-curve $-1 -45.570238349559006 -19.959978570412481 0 0 0 -1 I I #
edge $-1 $449 -19.959978570412481 $453 19.959978570412481 $447 $528 forward 7 unknown #
straight-curve $-1 0 -19.959978570412481 -4.9192420100473964 -1 0 0 I I #
vertex $-1 $321 $529 #
straight-curve $-1 0 19.959978570412481 -4.9192420100473964 1 0 0 I I #
point $-1 45.570238349559006 19.959978570412481 -4.9192420100473964 #
point $-1 45.570238349559006 -19.959978570412481 -4.9192420100473964 #
straight-curve $-1 -45.570238349559006 0 4.9192420100473964 0 -1 0 I I #
point $-1 -45.570238349559006 19.959978570412481 4.9192420100473964 #
point $-1 -45.570238349559006 -19.959978570412481 4.9192420100473964 #
straight-curve $-1 45.570238349559006 -19.959978570412481 0 0 0 -1 I I #
straight-curve $-1 45.570238349559006 19.959978570412481 0 0 0 -1 I I #
plane-surface $-1 0 19.959978570412481 0 0 -1 0 0 0 -1 forward_v I I I I #
coedge $-1 $342 $341 $530 $531 forward $133 $-1 #
edge $-1 $345 39.126975621101138 $532 45.570238349559006 $344 $533 forward 7 unknown #
coedge $-1 $350 $349 $342 $466 reversed $351 $-1 #
edge $-1 $534 -45.570238349559006 $467 -39.126975621101138 $465 $535 forward 7 unknown #
vertex $-1 $357 $536 #
straight-curve $-1 -39.126975621101138 0 -4.9192420100473964 0 -1 0 I I #
point $-1 -39.126975621101138 -19.959978570412481 -4.9192420100473964 #
coedge $-1 $530 $347 $350 $473 forward $339 $-1 #
coedge $-1 $347 $530 $354 $475 reversed $339 $-1 #
straight-curve $-1 -45.570238349559006 0 -1.9192420100473964 0 1 0 I I #
edge $-1 $352 1.9192420100473964 $534 4.9192420100473964 $350 $537 forward 7 unknown #
point $-1 -45.570238349559006 19.959978570412481 -1.9192420100473964 #
edge $-1 $355 1.9192420100473964 $532 4.9192420100473964 $471 $538 forward 7 unknown #
point $-1 -45.570238349559006 -19.959978570412481 -1.9192420100473964 #
straight-curve $-1 -39.126975621101138 19.959978570412481 -1.7096210050236982 0 0 -1 I I #
edge $-1 $479 37.170952219968477 $482 41.028159374027283 $361 $539 forward 7 unknown #
vertex $-1 $375 $540 #
straight-curve $-1 -29.415177477819373 37.327424106506314 4.9192420100473981 0 1 0 I I #
edge $-1 $482 12.279639203089246 $372 21.991437346371011 $371 $541 forward 7 unknown #
vertex $-1 $481 $542 #
straight-curve $-1 -29.415177477819373 -1.7819878725711789 34.541728303173507 0 -0.54463902268945019 0.83867057594974714 I I #
point $-1 -29.415177477819373 17.455079036625545 4.9192420100473981 #
point $-1 -39.126975621101138 19.959978570412481 1.0620348559885926 #
straight-curve $-1 0 19.959978570412481 4.9192420100473964 -1 0 0 I I #
vertex $-1 $378 $543 #
point $-1 -33.771076549460254 17.516658561430887 2.2172782801757243 #
coedge $-1 $393 $392 $385 $490 forward $382 $-1 #
edge $-1 $491 37.170952219968477 $494 41.028159374027283 $489 $544 forward 7 unknown #
vertex $-1 $397 $545 #
straight-curve $-1 -4.4200388686932426 37.327424106506314 4.9192420100473981 0 1 0 I I #
edge $-1 $494 -0.21793010147381953 $394 9.4938680418079429 $393 $546 forward 7 unknown #
vertex $-1 $493 $547 #
straight-curve $-1 -4.4200388686932426 -1.7819878725711789 34.541728303173507 0 -0.54463902268945019 0.83867057594974714 I I #
point $-1 -4.4200388686932426 17.455079036625545 4.9192420100473981 #
point $-1 -14.131837011975005 19.959978570412481 1.0620348559885926 #
straight-curve $-1 0 19.959978570412481 4.9192420100473964 -1 0 0 I I #
vertex $-1 $400 $548 #
point $-1 -8.7759379403341242 17.516658561430887 2.2172782801757243 #
coedge $-1 $415 $414 $407 $502 forward $404 $-1 #
edge $-1 $503 37.170952219968477 $506 41.028159374027283 $501 $549 forward 7 unknown #
vertex $-1 $419 $550 #
straight-curve $-1 20.575099740432886 37.327424106506314 4.9192420100473981 0 1 0 I I #
edge $-1 $506 -12.715499406036884 $416 -3.0037012627551221 $415 $551 forward 7 unknown #
vertex $-1 $505 $552 #
straight-curve $-1 20.575099740432886 -1.7819878725711789 34.541728303173507 0 -0.54463902268945019 0.83867057594974714 I I #
point $-1 20.575099740432886 17.455079036625545 4.9192420100473981 #
point $-1 10.863301597151125 19.959978570412481 1.0620348559885926 #
straight-curve $-1 0 19.959978570412481 4.9192420100473964 -1 0 0 I I #
vertex $-1 $422 $553 #
point $-1 16.219200668792006 17.516658561430887 2.2172782801757243 #
coedge $-1 $514 $428 $520 $554 reversed $294 $-1 #
coedge $-1 $428 $513 $431 $518 reversed $294 $-1 #
edge $-1 $516 -25.213068710599956 $436 -15.501270567318187 $435 $555 forward 7 unknown #
vertex $-1 $430 $556 #
straight-curve $-1 45.570238349559006 6.3711687866696893 21.986967615170194 0 0.54463902268945019 -0.83867057594974714 I I #
edge $-1 $432 17.455079036625545 $522 19.959978570412481 $514 $557 forward 7 unknown #
point $-1 45.570238349559027 17.455079036625545 4.9192420100473981 #
coedge $-1 $435 $434 $513 $554 forward $426 $-1 #
point $-1 35.858440206277258 19.959978570412481 1.0620348559885926 #
vertex $-1 $518 $558 #
straight-curve $-1 0 19.959978570412481 4.9192420100473964 -1 0 0 I I #
vertex $-1 $442 $559 #
point $-1 41.214339277918143 17.516658561430887 2.2172782801757243 #
straight-curve $-1 -45.570238349559006 19.959978570412481 0 0 0 -1 I I #
point $-1 -45.570238349559006 -19.959978570412481 -4.9192420100473964 #
straight-curve $-1 -45.570238349559006 0 -4.9192420100473964 0 1 0 I I #
point $-1 -45.570238349559006 19.959978570412481 -4.9192420100473964 #
coedge $-1 $471 $470 $463 $531 reversed $339 $-1 #
edge $-1 $532 -19.959978570412481 $534 19.959978570412481 $530 $560 forward 7 unknown #
vertex $-1 $531 $561 #
straight-curve $-1 0 -19.959978570412481 -4.9192420100473964 -1 0 0 I I #
vertex $-1 $466 $562 #
straight-curve $-1 0 19.959978570412481 -4.9192420100473964 1 0 0 I I #
point $-1 -39.126975621101138 19.959978570412481 -4.9192420100473964 #
straight-curve $-1 -45.570238349559006 19.959978570412481 0 0 0 -1 I I #
straight-curve $-1 -45.570238349559006 -19.959978570412481 0 0 0 -1 I I #
straight-curve $-1 -29.415177477819373 19.959978570412481 42.090194230015875 0 0 -1 I I #
point $-1 -29.415177477819373 19.959978570412481 4.9192420100473964 #
straight-curve $-1 -17.135538274730127 19.959978570412481 1.0620348559885926 -1 0 0 I I #
point $-1 -29.415177477819373 19.959978570412481 1.0620348559885926 #
point $-1 -34.271076549460254 17.097323273456013 1.9449587688309991 #
straight-curve $-1 -4.4200388686932426 19.959978570412481 42.090194230015875 0 0 -1 I I #
point $-1 -4.4200388686932426 19.959978570412481 4.9192420100473964 #
straight-curve $-1 -4.6379689701670621 19.959978570412481 1.0620348559885926 -1 0 0 I I #
point $-1 -4.4200388686932426 19.959978570412481 1.0620348559885926 #
point $-1 -9.2759379403341242 17.097323273456013 1.9449587688309991 #
straight-curve $-1 20.575099740432886 19.959978570412481 42.090194230015875 0 0 -1 I I #
point $-1 20.575099740432886 19.959978570412481 4.9192420100473964 #
straight-curve $-1 7.8596003343960028 19.959978570412481 1.0620348559885926 -1 0 0 I I #
point $-1 20.575099740432886 19.959978570412481 1.0620348559885926 #
point $-1 15.719200668792006 17.097323273456013 1.9449587688309991 #
edge $-1 $522 -4.9192420100473964 $516 -1.0620348559885926 $513 $563 forward 7 unknown #
straight-curve $-1 20.357169638959071 19.959978570412481 1.0620348559885926 -1 0 0 I I #
point $-1 45.570238349559027 19.959978570412481 1.0620348559885926 #
straight-curve $-1 45.570238349559006 0 4.9192420100473964 0 1 0 I I #
point $-1 45.570238349559006 19.959978570412481 4.9192420100473964 #
point $-1 40.714339277918143 17.097323273456013 1.9449587688309991 #
straight-curve $-1 -45.570238349559006 0 -4.9192420100473964 0 1 0 I I #
point $-1 -45.570238349559006 -19.959978570412481 -4.9192420100473964 #
point $-1 -45.570238349559006 19.959978570412481 -4.9192420100473964 #
straight-curve $-1 45.570238349559006 19.959978570412481 0 0 0 -1 I I #
End-of-ACIS-data 