500 0 6 0           
7 Unknown 11 ACIS 5.0 NT 24 Thu Mar 25 15:22:44 1999 
-1 9.9999999999999995e-007 1e-010 
body $-1 $6 $-1 $7 #
body $-1 $8 $-1 $9 #
body $-1 $10 $-1 $11 #
body $-1 $12 $-1 $13 #
body $-1 $14 $-1 $15 #
body $-1 $16 $-1 $17 #
lump $-1 $-1 $18 $0 #
transform $-1 1 0 0 0 1 0 0 0 1 69.965514084292124 28.244356537149905 9.5686194356393219 1 rotate no_reflect no_shear #
lump $-1 $-1 $19 $1 #
transform $-1 1 0 0 0 1 0 0 0 1 69.965514084292124 28.244356537149905 9.5686194356393219 1 rotate no_reflect no_shear #
lump $-1 $-1 $20 $2 #
transform $-1 1 0 0 0 1 0 0 0 1 69.965514084292124 28.244356537149905 9.5686194356393219 1 rotate no_reflect no_shear #
lump $-1 $-1 $21 $3 #
transform $-1 1 0 0 0 1 0 0 0 1 69.965514084292124 28.244356537149905 9.5686194356393219 1 rotate no_reflect no_shear #
lump $-1 $-1 $22 $4 #
transform $-1 1 0 0 0 1 0 0 0 1 69.965514084292124 28.244356537149905 9.5686194356393219 1 rotate no_reflect no_shear #
lump $-1 $-1 $23 $5 #
transform $-1 1 0 0 0 1 0 0 0 1 69.965514084292124 28.244356537149905 9.5686194356393219 1 rotate no_reflect no_shear #
shell $-1 $-1 $-1 $24 $-1 $6 #
shell $-1 $-1 $-1 $25 $-1 $8 #
shell $-1 $-1 $-1 $26 $-1 $10 #
shell $-1 $-1 $-1 $27 $-1 $12 #
shell $-1 $-1 $-1 $28 $-1 $14 #
shell $-1 $-1 $-1 $29 $-1 $16 #
face $-1 $30 $31 $18 $-1 $32 forward single #
face $-1 $33 $34 $19 $-1 $35 forward single #
face $-1 $36 $37 $20 $-1 $38 reversed single #
face $-1 $39 $40 $21 $-1 $41 forward single #
face $-1 $42 $43 $22 $-1 $44 reversed single #
face $-1 $45 $46 $23 $-1 $47 forward single #
face $-1 $48 $49 $18 $-1 $50 reversed single #
loop $-1 $-1 $51 $24 #
plane-surface $-1 0 0 9.5686194356393219 0 0 1 1 0 0 forward_v I I I I #
face $-1 $52 $53 $19 $-1 $54 reversed single #
loop $-1 $-1 $55 $25 #
plane-surface $-1 -69.965514084292124 0 0 1 0 0 0 0 -1 forward_v I I I I #
face $-1 $56 $57 $20 $-1 $58 reversed single #
loop $-1 $-1 $59 $26 #
plane-surface $-1 6.1704498262742788 -114.39450086362237 116.77102352639417 -1 0 0 0 -0.61566148304635926 0.78801074757464917 forward_v I I I I #
face $-1 $60 $61 $21 $-1 $62 forward single #
loop $-1 $63 $64 $27 #
cone-surface $-1 -4.4567717228201644 -25.75868758663114 7.3651474682544489 0 0.61566148304635926 -0.78801074757464917 0.5 0 0 1 I I 0 1 0.5 forward I I I I #
face $-1 $65 $66 $22 $-1 $67 reversed single #
loop $-1 $-1 $68 $28 #
plane-surface $-1 59.338292535197695 -28.244356537149912 6.5038694103788117 0 -0.61566148304635926 0.78801074757464917 1 0 0 forward_v I I I I #
face $-1 $69 $70 $23 $-1 $71 forward single #
loop $-1 $72 $73 $29 #
cone-surface $-1 59.338292535197695 -25.75868758663114 7.3651474682544489 0 0.61566148304635926 -0.78801074757464917 0.5 0 0 1 I I 0 1 0.5 forward I I I I #
face $-1 $74 $75 $18 $-1 $76 reversed single #
loop $-1 $-1 $77 $30 #
plane-surface $-1 0 0 -9.5686194356393219 0 0 1 1 0 0 forward_v I I I I #
coedge $-1 $78 $79 $80 $81 forward $31 $-1 #
face $-1 $82 $83 $19 $-1 $84 forward single #
loop $-1 $-1 $85 $33 #
plane-surface $-1 0 28.244356537149905 0 0 -1 0 0 0 -1 forward_v I I I I #
coedge $-1 $86 $87 $88 $89 forward $34 $-1 #
face $-1 $90 $91 $20 $-1 $92 reversed single #
loop $-1 $-1 $93 $36 #
plane-surface $-1 -4.4567717228201644 -28.244356537149912 6.5038694103788117 0 -0.61566148304635926 0.78801074757464917 1 0 0 forward_v I I I I #
coedge $-1 $94 $95 $96 $97 reversed $37 $-1 #
face $-1 $-1 $98 $21 $-1 $99 forward single #
loop $-1 $100 $101 $39 #
cone-surface $-1 -4.4567717228201644 -25.080453800538571 6.4970478266061757 0 0.61566148304635926 -0.78801074757464917 0.25 0 0 1 I I -0.70710678118654746 0.70710678118654746 0.25 forward I I I I #
loop $-1 $-1 $102 $27 #
coedge $-1 $64 $64 $103 $104 reversed $40 $-1 #
face $-1 $105 $106 $22 $-1 $107 reversed single #
loop $-1 $-1 $108 $42 #
plane-surface $-1 48.711070986103252 -114.39450086362237 116.77102352639417 1 0 0 0 0.61566148304635926 -0.78801074757464917 forward_v I I I I #
coedge $-1 $109 $110 $111 $112 reversed $43 $-1 #
face $-1 $-1 $113 $23 $-1 $114 forward single #
loop $-1 $115 $116 $45 #
cone-surface $-1 59.338292535197695 -25.080453800538571 6.4970478266061757 0 0.61566148304635926 -0.78801074757464917 0.25 0 0 1 I I -0.70710678118654746 0.70710678118654746 0.25 forward I I I I #
loop $-1 $-1 $117 $29 #
coedge $-1 $73 $73 $118 $119 reversed $46 $-1 #
face $-1 $120 $121 $18 $-1 $122 reversed single #
loop $-1 $-1 $123 $48 #
plane-surface $-1 0 -28.244356537149905 0 0 1 0 0 0 1 forward_v I I I I #
coedge $-1 $124 $125 $126 $127 forward $49 $-1 #
coedge $-1 $128 $51 $129 $130 forward $31 $-1 #
coedge $-1 $51 $128 $131 $132 forward $31 $-1 #
coedge $-1 $133 $134 $51 $81 reversed $135 $-1 #
edge $-1 $136 -28.244356537149905 $137 28.244356537149905 $80 $138 forward 7 unknown #
face $-1 $139 $140 $19 $-1 $141 reversed single #
loop $-1 $-1 $88 $52 #
plane-surface $-1 -76.135963910566403 0 -4.6196396381737674 0 0 1 1 0 0 forward_v I I I I #
coedge $-1 $142 $143 $87 $144 forward $53 $-1 #
coedge $-1 $145 $55 $146 $147 reversed $34 $-1 #
coedge $-1 $55 $145 $85 $144 reversed $34 $-1 #
coedge $-1 $148 $149 $55 $89 reversed $83 $-1 #
edge $-1 $150 -28.244356537149905 $151 28.244356537149905 $88 $152 forward 7 unknown #
face $-1 $153 $154 $20 $-1 $155 reversed single #
loop $-1 $-1 $156 $56 #
plane-surface $-1 -15.083993271914608 -114.39450086362237 116.77102352639417 1 0 0 0 0.61566148304635926 -0.78801074757464917 forward_v I I I I #
coedge $-1 $157 $158 $159 $160 reversed $57 $-1 #
coedge $-1 $95 $59 $161 $162 reversed $37 $-1 #
coedge $-1 $59 $94 $157 $163 reversed $37 $-1 #
coedge $-1 $159 $164 $59 $97 forward $165 $-1 #
edge $-1 $166 28.95289389466128 $167 32.875594965036839 $96 $168 forward 7 unknown #
loop $-1 $-1 $103 $60 #
plane-surface $-1 -4.4567717228201644 -28.244356537149912 6.5038694103788117 0 -0.61566148304635926 0.78801074757464917 1 0 0 forward_v I I I I #
loop $-1 $-1 $169 $39 #
coedge $-1 $101 $101 $102 $170 reversed $61 $-1 #
coedge $-1 $102 $102 $101 $170 forward $63 $-1 #
coedge $-1 $103 $103 $64 $104 forward $98 $-1 #
edge $-1 $171 2.6196138615404312e-016 $171 6.2831853071796004 $103 $172 forward 7 unknown #
face $-1 $173 $174 $22 $-1 $175 forward single #
loop $-1 $-1 $176 $65 #
plane-surface $-1 0 -28.244356537149905 0 0 1 0 0 0 1 forward_v I I I I #
coedge $-1 $177 $178 $179 $180 reversed $66 $-1 #
coedge $-1 $181 $68 $182 $183 reversed $43 $-1 #
coedge $-1 $68 $181 $177 $184 forward $43 $-1 #
coedge $-1 $179 $185 $68 $112 forward $174 $-1 #
edge $-1 $186 -40.296367816693291 $187 -19.041924718504404 $111 $188 forward 7 unknown #
loop $-1 $-1 $118 $69 #
plane-surface $-1 59.338292535197695 -28.244356537149912 6.5038694103788117 0 -0.61566148304635926 0.78801074757464917 1 0 0 forward_v I I I I #
loop $-1 $-1 $189 $45 #
coedge $-1 $116 $116 $117 $190 reversed $70 $-1 #
coedge $-1 $117 $117 $116 $190 forward $72 $-1 #
coedge $-1 $118 $118 $73 $119 forward $113 $-1 #
edge $-1 $191 2.6196138615404312e-016 $191 6.2831853071796004 $118 $192 forward 7 unknown #
face $-1 $193 $194 $18 $-1 $195 reversed single #
loop $-1 $-1 $196 $74 #
plane-surface $-1 -69.965514084292124 0 0 1 0 0 0 0 -1 forward_v I I I I #
coedge $-1 $197 $131 $198 $199 forward $75 $-1 #
coedge $-1 $200 $77 $197 $201 forward $49 $-1 #
coedge $-1 $77 $200 $202 $203 forward $49 $-1 #
coedge $-1 $134 $133 $77 $127 reversed $135 $-1 #
edge $-1 $204 -28.244356537149905 $205 28.244356537149905 $126 $206 forward 7 unknown #
coedge $-1 $79 $78 $207 $208 forward $31 $-1 #
coedge $-1 $209 $210 $78 $130 reversed $194 $-1 #
edge $-1 $137 -69.965514084292124 $211 69.965514084292124 $129 $212 forward 7 unknown #
coedge $-1 $123 $213 $79 $132 reversed $75 $-1 #
edge $-1 $214 -69.965514084292124 $136 69.965514084292124 $131 $215 forward 7 unknown #
coedge $-1 $126 $80 $213 $216 forward $135 $-1 #
coedge $-1 $80 $126 $209 $217 reversed $135 $-1 #
loop $-1 $-1 $133 $193 #
vertex $-1 $81 $218 #
vertex $-1 $81 $219 #
straight-curve $-1 69.965514084292124 0 9.5686194356393219 0 1 0 I I #
face $-1 $220 $221 $19 $-1 $222 reversed single #
loop $-1 $-1 $223 $82 #
plane-surface $-1 -82.306413736840682 0 -7.0941295369065447 1 0 0 0 0 -1 forward_v I I I I #
coedge $-1 $224 $85 $225 $226 reversed $53 $-1 #
coedge $-1 $85 $224 $148 $227 reversed $53 $-1 #
edge $-1 $150 4.6196396381737674 $228 9.5686194356393219 $85 $229 forward 7 unknown #
coedge $-1 $87 $86 $230 $231 reversed $34 $-1 #
coedge $-1 $232 $233 $86 $147 forward $234 $-1 #
edge $-1 $235 -9.5686194356393219 $151 -4.6196396381737674 $146 $236 forward 7 unknown #
coedge $-1 $237 $88 $143 $227 forward $83 $-1 #
coedge $-1 $88 $237 $232 $238 forward $83 $-1 #
vertex $-1 $144 $239 #
vertex $-1 $238 $240 #
straight-curve $-1 -69.965514084292124 0 -4.6196396381737674 0 -1 0 I I #
face $-1 $-1 $165 $20 $-1 $241 forward single #
loop $-1 $-1 $242 $90 #
plane-surface $-1 0 -28.244356537149905 0 0 1 0 0 0 1 forward_v I I I I #
coedge $-1 $243 $244 $245 $246 reversed $91 $-1 #
coedge $-1 $247 $93 $95 $163 forward $57 $-1 #
coedge $-1 $93 $247 $243 $248 forward $57 $-1 #
coedge $-1 $245 $96 $93 $160 forward $165 $-1 #
edge $-1 $167 -8.3988356876843611 $249 12.855607410504525 $159 $250 forward 7 unknown #
coedge $-1 $251 $252 $94 $162 forward $154 $-1 #
edge $-1 $253 -51.881642352818268 $166 -48.816892327557767 $161 $254 forward 7 unknown #
edge $-1 $167 -4.977979148696777 $253 -8.8800565823946346e-015 $95 $255 forward 7 unknown #
coedge $-1 $96 $245 $251 $256 forward $165 $-1 #
loop $-1 $-1 $245 $153 #
vertex $-1 $162 $257 #
vertex $-1 $97 $258 #
straight-curve $-1 6.1704498262742788 -57.197250431811185 9.5686194356393202 0 1 0 I I #
coedge $-1 $169 $169 $-1 $259 reversed $100 $-1 #
edge $-1 $260 0 $260 6.2831853071796004 $101 $261 forward 7 unknown #
vertex $-1 $104 $262 #
ellipse-curve $-1 -4.4567717228201644 -26.283006001962125 8.0362444230090695 0 -0.61566148304635926 0.78801074757464917 0.5 0 0 1 I I #
face $-1 $-1 $263 $22 $-1 $264 reversed single #
loop $-1 $-1 $179 $105 #
plane-surface $-1 0 0 9.5686194356393219 0 0 1 1 0 0 forward_v I I I I #
coedge $-1 $265 $266 $178 $267 forward $106 $-1 #
coedge $-1 $178 $108 $110 $184 reversed $66 $-1 #
coedge $-1 $108 $177 $176 $267 reversed $66 $-1 #
coedge $-1 $268 $111 $108 $180 forward $174 $-1 #
edge $-1 $187 -32.875594965036839 $269 -28.95289389466128 $179 $270 forward 7 unknown #
coedge $-1 $110 $109 $265 $271 reversed $43 $-1 #
coedge $-1 $272 $273 $109 $183 forward $263 $-1 #
edge $-1 $274 -9.1263373114353712 $186 -4.148358162738603 $182 $275 forward 7 unknown #
edge $-1 $276 8.8800565823946346e-015 $187 4.977979148696777 $177 $277 forward 7 unknown #
coedge $-1 $111 $268 $272 $278 forward $174 $-1 #
vertex $-1 $183 $279 #
vertex $-1 $112 $280 #
straight-curve $-1 29.669146267598848 -24.321655466774345 9.5686194356393219 -1 0 0 I I #
coedge $-1 $189 $189 $-1 $281 reversed $115 $-1 #
edge $-1 $282 0 $282 6.2831853071796004 $116 $283 forward 7 unknown #
vertex $-1 $119 $284 #
ellipse-curve $-1 59.338292535197695 -26.283006001962125 8.0362444230090695 0 -0.61566148304635926 0.78801074757464917 0.5 0 0 1 I I #
face $-1 $-1 $135 $18 $-1 $285 reversed single #
loop $-1 $-1 $209 $120 #
plane-surface $-1 0 28.244356537149905 0 0 -1 0 0 0 -1 forward_v I I I I #
coedge $-1 $286 $207 $210 $287 forward $121 $-1 #
coedge $-1 $213 $123 $124 $201 reversed $75 $-1 #
coedge $-1 $207 $286 $123 $199 reversed $121 $-1 #
edge $-1 $214 -9.5686194356393219 $288 9.5686194356393219 $198 $289 forward 7 unknown #
coedge $-1 $125 $124 $286 $290 forward $49 $-1 #
edge $-1 $205 -69.965514084292124 $288 69.965514084292124 $197 $291 forward 7 unknown #
coedge $-1 $210 $209 $125 $203 reversed $194 $-1 #
edge $-1 $292 -69.965514084292124 $204 69.965514084292124 $202 $293 forward 7 unknown #
vertex $-1 $127 $294 #
vertex $-1 $216 $295 #
straight-curve $-1 69.965514084292124 0 -9.5686194356393219 0 -1 0 I I #
coedge $-1 $196 $198 $128 $208 reversed $121 $-1 #
edge $-1 $211 -28.244356537149905 $214 28.244356537149905 $207 $296 forward 7 unknown #
coedge $-1 $202 $129 $134 $217 forward $194 $-1 #
coedge $-1 $129 $202 $196 $287 reversed $194 $-1 #
vertex $-1 $130 $297 #
straight-curve $-1 0 28.244356537149905 9.5686194356393219 -1 0 0 I I #
coedge $-1 $131 $197 $133 $216 reversed $75 $-1 #
vertex $-1 $208 $298 #
straight-curve $-1 0 -28.244356537149905 9.5686194356393219 1 0 0 I I #
edge $-1 $136 -9.5686194356393219 $205 9.5686194356393219 $133 $299 forward 7 unknown #
edge $-1 $137 -9.5686194356393219 $204 9.5686194356393219 $134 $300 forward 7 unknown #
point $-1 69.965514084292124 -28.244356537149905 9.5686194356393219 #
point $-1 69.965514084292124 28.244356537149905 9.5686194356393219 #
face $-1 $-1 $234 $19 $-1 $301 reversed single #
loop $-1 $-1 $230 $139 #
plane-surface $-1 0 0 -9.5686194356393219 0 0 1 1 0 0 forward_v I I I I #
coedge $-1 $302 $303 $224 $304 forward $140 $-1 #
coedge $-1 $143 $142 $223 $304 reversed $53 $-1 #
coedge $-1 $230 $305 $142 $226 forward $221 $-1 #
edge $-1 $306 -82.306413736840682 $228 -69.965514084292124 $142 $307 forward 7 unknown #
edge $-1 $150 -6.1704498262742788 $308 6.1704498262742788 $143 $309 forward 7 unknown #
vertex $-1 $144 $310 #
straight-curve $-1 -69.965514084292124 28.244356537149905 0 0 0 -1 I I #
coedge $-1 $311 $225 $145 $231 forward $221 $-1 #
edge $-1 $228 -28.244356537149905 $235 28.244356537149905 $230 $312 forward 7 unknown #
coedge $-1 $313 $146 $149 $238 reversed $234 $-1 #
coedge $-1 $146 $313 $311 $314 reversed $234 $-1 #
loop $-1 $-1 $146 $220 #
vertex $-1 $314 $315 #
straight-curve $-1 -69.965514084292124 -28.244356537149905 0 0 0 1 I I #
coedge $-1 $149 $148 $303 $316 forward $83 $-1 #
edge $-1 $317 -6.1704498262742788 $151 6.1704498262742788 $232 $318 forward 7 unknown #
point $-1 -69.965514084292124 28.244356537149905 -4.6196396381737674 #
point $-1 -69.965514084292124 -28.244356537149905 -4.6196396381737674 #
plane-surface $-1 0 0 9.5686194356393219 0 0 1 1 0 0 forward_v I I I I #
coedge $-1 $252 $251 $244 $319 forward $154 $-1 #
coedge $-1 $244 $156 $158 $248 reversed $91 $-1 #
coedge $-1 $156 $243 $242 $319 reversed $91 $-1 #
coedge $-1 $164 $159 $156 $246 forward $165 $-1 #
edge $-1 $249 -32.875594965036839 $320 -28.95289389466128 $245 $321 forward 7 unknown #
coedge $-1 $158 $157 $252 $322 reversed $57 $-1 #
edge $-1 $323 8.8800565823946346e-015 $249 4.977979148696777 $243 $324 forward 7 unknown #
vertex $-1 $160 $325 #
straight-curve $-1 -2.2283858614100822 -24.321655466774345 9.5686194356393219 -1 0 0 I I #
coedge $-1 $242 $161 $164 $256 reversed $154 $-1 #
coedge $-1 $161 $242 $247 $322 forward $154 $-1 #
vertex $-1 $162 $326 #
straight-curve $-1 6.1704498262742788 -28.244356537149905 58.385511763197087 0 0 1 I I #
straight-curve $-1 6.1704498262742788 -28.244356537149912 6.5038694103788117 0 -0.78801074757464917 -0.61566148304635926 I I #
edge $-1 $320 -15.083993271914608 $166 6.1704498262742788 $251 $327 forward 7 unknown #
point $-1 6.1704498262742788 -28.244356537149905 9.5686194356393219 #
point $-1 6.1704498262742788 -24.321655466774349 9.5686194356393219 #
edge $-1 $328 1 $328 0 $169 $-1 forward 7 unknown #
vertex $-1 $170 $329 #
ellipse-curve $-1 -4.4567717228201644 -25.234369171300159 6.694050513499838 0 -0.61566148304635926 0.78801074757464917 0.5 0 0 1 I I #
point $-1 -3.9567717228201644 -26.283006001962118 8.0362444230090606 #
loop $-1 $-1 $182 $173 #
plane-surface $-1 69.965514084292124 0 0 -1 0 0 0 0 1 forward_v I I I I #
coedge $-1 $330 $176 $181 $271 forward $106 $-1 #
coedge $-1 $176 $330 $268 $331 reversed $106 $-1 #
edge $-1 $269 48.816892327557767 $276 51.881642352818268 $176 $332 forward 7 unknown #
coedge $-1 $185 $179 $266 $331 forward $174 $-1 #
vertex $-1 $331 $333 #
straight-curve $-1 48.711070986103252 -57.197250431811185 9.5686194356393202 0 -1 0 I I #
edge $-1 $276 19.041924718504404 $274 40.296367816693291 $265 $334 forward 7 unknown #
coedge $-1 $273 $182 $185 $278 reversed $263 $-1 #
coedge $-1 $182 $272 $330 $335 forward $263 $-1 #
vertex $-1 $271 $336 #
straight-curve $-1 69.965514084292124 -21.052704649747305 12.122603774318442 0 0.78801074757464917 0.61566148304635926 I I #
vertex $-1 $271 $337 #
straight-curve $-1 48.711070986103252 -28.244356537149912 6.5038694103788117 0 0.78801074757464917 0.61566148304635926 I I #
edge $-1 $338 -28.244356537149905 $186 -24.321655466774349 $272 $339 forward 7 unknown #
point $-1 69.965514084292138 -24.321655466774349 9.5686194356393219 #
point $-1 48.711070986103252 -24.321655466774349 9.5686194356393219 #
edge $-1 $340 1 $340 0 $189 $-1 forward 7 unknown #
vertex $-1 $190 $341 #
ellipse-curve $-1 59.338292535197695 -25.234369171300159 6.694050513499838 0 -0.61566148304635926 0.78801074757464917 0.5 0 0 1 I I #
point $-1 59.838292535197695 -26.283006001962118 8.0362444230090606 #
plane-surface $-1 69.965514084292124 0 0 -1 0 0 0 0 1 forward_v I I I I #
coedge $-1 $198 $196 $200 $290 reversed $121 $-1 #
edge $-1 $211 -9.5686194356393219 $292 9.5686194356393219 $210 $342 forward 7 unknown #
vertex $-1 $290 $343 #
straight-curve $-1 -69.965514084292124 -28.244356537149905 0 0 0 -1 I I #
edge $-1 $288 -28.244356537149905 $292 28.244356537149905 $286 $344 forward 7 unknown #
straight-curve $-1 0 -28.244356537149905 -9.5686194356393219 -1 0 0 I I #
vertex $-1 $203 $345 #
straight-curve $-1 0 28.244356537149905 -9.5686194356393219 1 0 0 I I #
point $-1 69.965514084292124 28.244356537149905 -9.5686194356393219 #
point $-1 69.965514084292124 -28.244356537149905 -9.5686194356393219 #
straight-curve $-1 -69.965514084292124 0 9.5686194356393219 0 -1 0 I I #
point $-1 -69.965514084292124 28.244356537149905 9.5686194356393219 #
point $-1 -69.965514084292124 -28.244356537149905 9.5686194356393219 #
straight-curve $-1 69.965514084292124 -28.244356537149905 0 0 0 -1 I I #
straight-curve $-1 69.965514084292124 28.244356537149905 0 0 0 -1 I I #
plane-surface $-1 0 -28.244356537149905 0 0 1 0 0 0 1 forward_v I I I I #
coedge $-1 $346 $223 $305 $347 reversed $140 $-1 #
coedge $-1 $223 $346 $237 $316 reversed $140 $-1 #
edge $-1 $308 -2.4744898987327772 $306 2.4744898987327772 $224 $348 forward 7 unknown #
coedge $-1 $225 $311 $302 $347 forward $221 $-1 #
vertex $-1 $226 $349 #
straight-curve $-1 0 28.244356537149905 -9.5686194356393219 1 0 0 I I #
vertex $-1 $227 $350 #
straight-curve $-1 -76.135963910566403 28.244356537149905 -4.6196396381737674 -1 0 0 I I #
point $-1 -69.965514084292124 28.244356537149905 -9.5686194356393219 #
coedge $-1 $305 $230 $233 $314 forward $221 $-1 #
straight-curve $-1 -69.965514084292124 0 -9.5686194356393219 0 -1 0 I I #
coedge $-1 $233 $232 $346 $351 forward $234 $-1 #
edge $-1 $235 -6.1704498262742788 $352 6.1704498262742788 $233 $353 forward 7 unknown #
point $-1 -69.965514084292124 -28.244356537149905 -9.5686194356393219 #
edge $-1 $308 -28.244356537149905 $317 28.244356537149905 $303 $354 forward 7 unknown #
vertex $-1 $316 $355 #
straight-curve $-1 -76.135963910566403 -28.244356537149905 -4.6196396381737674 1 0 0 I I #
edge $-1 $320 48.816892327557767 $323 51.881642352818268 $242 $356 forward 7 unknown #
vertex $-1 $256 $357 #
straight-curve $-1 -15.083993271914608 -57.197250431811185 9.5686194356393202 0 -1 0 I I #
edge $-1 $323 -12.855607410504525 $253 8.3988356876843611 $252 $358 forward 7 unknown #
vertex $-1 $322 $359 #
straight-curve $-1 -15.083993271914608 -28.244356537149912 6.5038694103788117 0 0.78801074757464917 0.61566148304635926 I I #
point $-1 -15.083993271914608 -24.321655466774349 9.5686194356393219 #
point $-1 6.1704498262742788 -28.244356537149905 6.5038694103788171 #
straight-curve $-1 0 -28.244356537149905 9.5686194356393219 1 0 0 I I #
vertex $-1 $259 $360 #
point $-1 -3.9567717228201644 -25.234369171300159 6.694050513499838 #
coedge $-1 $266 $265 $273 $335 reversed $106 $-1 #
edge $-1 $269 48.711070986103252 $338 69.965514084292124 $266 $361 forward 7 unknown #
straight-curve $-1 48.711070986103252 -28.244356537149905 58.385511763197087 0 0 -1 I I #
point $-1 48.711070986103252 -28.244356537149905 9.5686194356393219 #
straight-curve $-1 29.669146267598848 -28.244356537149905 6.5038694103788171 1 0 0 I I #
edge $-1 $338 -9.5686194356393219 $274 -6.5038694103788171 $273 $362 forward 7 unknown #
point $-1 69.965514084292138 -28.244356537149905 6.5038694103788171 #
point $-1 48.711070986103252 -28.244356537149905 6.5038694103788171 #
vertex $-1 $278 $363 #
straight-curve $-1 69.965514084292124 0 9.5686194356393219 0 1 0 I I #
vertex $-1 $281 $364 #
point $-1 59.838292535197695 -25.234369171300159 6.694050513499838 #
straight-curve $-1 -69.965514084292124 28.244356537149905 0 0 0 -1 I I #
point $-1 -69.965514084292124 -28.244356537149905 -9.5686194356393219 #
straight-curve $-1 -69.965514084292124 0 -9.5686194356393219 0 1 0 I I #
point $-1 -69.965514084292124 28.244356537149905 -9.5686194356393219 #
coedge $-1 $303 $302 $313 $351 reversed $140 $-1 #
edge $-1 $352 -28.244356537149905 $306 28.244356537149905 $302 $365 forward 7 unknown #
straight-curve $-1 -82.306413736840682 28.244356537149905 -7.0941295369065447 0 0 -1 I I #
point $-1 -82.306413736840682 28.244356537149905 -9.5686194356393219 #
point $-1 -82.306413736840682 28.244356537149905 -4.6196396381737674 #
edge $-1 $317 -2.4744898987327772 $352 2.4744898987327772 $346 $366 forward 7 unknown #
vertex $-1 $347 $367 #
straight-curve $-1 -76.135963910566403 -28.244356537149905 -9.5686194356393219 -1 0 0 I I #
straight-curve $-1 -82.306413736840682 0 -4.6196396381737674 0 -1 0 I I #
point $-1 -82.306413736840682 -28.244356537149905 -4.6196396381737674 #
straight-curve $-1 -15.083993271914608 -28.244356537149905 58.385511763197087 0 0 -1 I I #
point $-1 -15.083993271914608 -28.244356537149905 9.5686194356393219 #
straight-curve $-1 -2.2283858614100822 -28.244356537149905 6.5038694103788171 1 0 0 I I #
point $-1 -15.083993271914608 -28.244356537149905 6.5038694103788171 #
point $-1 -4.4567717228201644 -24.926538429776983 6.3000451397125135 #
straight-curve $-1 0 -28.244356537149905 9.5686194356393219 1 0 0 I I #
straight-curve $-1 69.965514084292124 -28.244356537149905 0 0 0 -1 I I #
point $-1 69.965514084292124 -28.244356537149905 9.5686194356393219 #
point $-1 59.338292535197695 -24.926538429776983 6.3000451397125135 #
straight-curve $-1 -82.306413736840682 0 -9.5686194356393219 0 1 0 I I #
straight-curve $-1 -82.306413736840682 -28.244356537149905 -7.0941295369065447 0 0 -1 I I #
point $-1 -82.306413736840682 -28.244356537149905 -9.5686194356393219 #
End-of-ACIS-data 