500 0 9 0           
7 Unknown 11 ACIS 5.0 NT 24 Fri Mar 26 17:45:41 1999 
-1 9.9999999999999995e-007 1e-010 
body $-1 $9 $-1 $10 #
body $-1 $11 $-1 $12 #
body $-1 $13 $-1 $14 #
body $-1 $15 $-1 $16 #
body $-1 $17 $-1 $18 #
body $-1 $19 $-1 $20 #
body $-1 $21 $-1 $22 #
body $-1 $23 $-1 $24 #
body $-1 $25 $-1 $26 #
lump $-1 $-1 $27 $0 #
transform $-1 1 0 0 0 1 0 0 0 1 61.216467787713249 26.543514237930612 10.990037200938659 1 rotate no_reflect no_shear #
lump $-1 $-1 $28 $1 #
transform $-1 1 0 0 0 1 0 0 0 1 61.216467787713249 26.543514237930612 10.990037200938659 1 rotate no_reflect no_shear #
lump $-1 $-1 $29 $2 #
transform $-1 1 0 0 0 1 0 0 0 1 61.216467787713249 26.543514237930612 10.990037200938659 1 rotate no_reflect no_shear #
lump $-1 $-1 $30 $3 #
transform $-1 1 0 0 0 1 0 0 0 1 61.216467787713249 26.543514237930612 10.990037200938659 1 rotate no_reflect no_shear #
lump $-1 $-1 $31 $4 #
transform $-1 1 0 0 0 1 0 0 0 1 61.216467787713249 26.543514237930612 10.990037200938659 1 rotate no_reflect no_shear #
lump $-1 $-1 $32 $5 #
transform $-1 1 0 0 0 1 0 0 0 1 61.216467787713249 26.543514237930612 10.990037200938659 1 rotate no_reflect no_shear #
lump $-1 $-1 $33 $6 #
transform $-1 1 0 0 0 1 0 0 0 1 61.216467787713249 26.543514237930612 10.990037200938659 1 rotate no_reflect no_shear #
lump $-1 $-1 $34 $7 #
transform $-1 1 0 0 0 1 0 0 0 1 61.216467787713249 26.543514237930612 10.990037200938659 1 rotate no_reflect no_shear #
lump $-1 $-1 $35 $8 #
transform $-1 1 0 0 0 1 0 0 0 1 61.216467787713249 26.543514237930612 10.990037200938659 1 rotate no_reflect no_shear #
shell $-1 $-1 $-1 $36 $-1 $9 #
shell $-1 $-1 $-1 $37 $-1 $11 #
shell $-1 $-1 $-1 $38 $-1 $13 #
shell $-1 $-1 $-1 $39 $-1 $15 #
shell $-1 $-1 $-1 $40 $-1 $17 #
shell $-1 $-1 $-1 $41 $-1 $19 #
shell $-1 $-1 $-1 $42 $-1 $21 #
shell $-1 $-1 $-1 $43 $-1 $23 #
shell $-1 $-1 $-1 $44 $-1 $25 #
face $-1 $45 $46 $27 $-1 $47 reversed single #
face $-1 $48 $49 $28 $-1 $50 forward single #
face $-1 $51 $52 $29 $-1 $53 reversed single #
face $-1 $54 $55 $30 $-1 $56 forward single #
face $-1 $57 $58 $31 $-1 $59 forward single #
face $-1 $60 $61 $32 $-1 $62 forward single #
face $-1 $63 $64 $33 $-1 $65 reversed single #
face $-1 $66 $67 $34 $-1 $68 forward single #
face $-1 $69 $70 $35 $-1 $71 forward single #
face $-1 $72 $73 $27 $-1 $74 forward single #
loop $-1 $-1 $75 $36 #
plane-surface $-1 -61.216467787713249 0 0 1 0 0 0 0 -1 forward_v I I I I #
face $-1 $76 $77 $28 $-1 $78 reversed single #
loop $-1 $-1 $79 $37 #
plane-surface $-1 -61.216467787713249 0 0 1 0 0 0 0 -1 forward_v I I I I #
face $-1 $80 $81 $29 $-1 $82 reversed single #
loop $-1 $-1 $83 $38 #
plane-surface $-1 -12.143740101653798 64.574866396945382 133.83426202755027 1 0 0 0 -0.64278761758704617 -0.76604443648966558 forward_v I I I I #
face $-1 $84 $85 $30 $-1 $86 forward single #
loop $-1 $87 $88 $39 #
cone-surface $-1 -7.1204397819141079 22.783119737596955 7.5736655940417439 0 -0.64278761758704617 -0.76604443648966558 1 0 0 1 I I 0 1 1 forward I I I I #
face $-1 $89 $90 $31 $-1 $91 forward single #
loop $-1 $92 $93 $40 #
cone-surface $-1 0.41451069769543381 22.783119737596955 7.5736655940417439 0 -0.64278761758704617 -0.76604443648966558 1 0 0 1 I I 0 1 1 forward I I I I #
face $-1 $94 $95 $32 $-1 $96 forward single #
loop $-1 $97 $98 $41 #
cone-surface $-1 7.9494611773049755 22.783119737596955 7.5736655940417439 0 -0.64278761758704617 -0.76604443648966558 1 0 0 1 I I 0 1 1 forward I I I I #
face $-1 $99 $100 $33 $-1 $101 reversed single #
loop $-1 $-1 $102 $42 #
plane-surface $-1 36.017621442903135 -114.61439867834758 88.699651386483836 -1 0 0 0 -0.71933980857756763 0.69465836192734942 forward_v I I I I #
face $-1 $103 $104 $34 $-1 $105 forward single #
loop $-1 $106 $107 $43 #
cone-surface $-1 23.802155925055438 -22.176820933692262 6.5256651887539618 0 0.71933980857756763 -0.69465836192734942 1.5 0 0 1 I I 0 1 1.5 forward I I I I #
face $-1 $108 $109 $35 $-1 $110 forward single #
loop $-1 $111 $112 $44 #
cone-surface $-1 31.131435235764052 -22.176820933692262 6.5256651887539618 0 0.71933980857756763 -0.69465836192734942 1.5 0 0 1 I I 0 1 1.5 forward I I I I #
face $-1 $113 $114 $27 $-1 $115 reversed single #
loop $-1 $-1 $116 $45 #
plane-surface $-1 0 0 10.990037200938659 0 0 1 1 0 0 forward_v I I I I #
coedge $-1 $117 $118 $119 $120 reversed $46 $-1 #
face $-1 $121 $122 $28 $-1 $123 reversed single #
loop $-1 $-1 $124 $48 #
plane-surface $-1 0 0 -10.990037200938659 0 0 1 1 0 0 forward_v I I I I #
coedge $-1 $125 $126 $127 $128 forward $49 $-1 #
face $-1 $129 $130 $29 $-1 $131 reversed single #
loop $-1 $-1 $132 $51 #
plane-surface $-1 0.41451069769543381 -14.123508575771311 40.045192886897155 0 0.64278761758704617 0.76604443648966558 1 0 0 forward_v I I I I #
coedge $-1 $133 $134 $135 $136 reversed $52 $-1 #
face $-1 $-1 $137 $30 $-1 $138 forward single #
loop $-1 $139 $140 $54 #
cone-surface $-1 -7.1204397819141079 21.721550111884408 6.308536205308009 0 -0.64278761758704617 -0.76604443648966558 0.5 0 0 1 I I -0.70710678118654746 0.70710678118654746 0.5 forward I I I I #
loop $-1 $-1 $141 $39 #
coedge $-1 $88 $88 $142 $143 reversed $55 $-1 #
face $-1 $-1 $144 $31 $-1 $145 forward single #
loop $-1 $146 $147 $57 #
cone-surface $-1 0.41451069769543381 21.721550111884408 6.308536205308009 0 -0.64278761758704617 -0.76604443648966558 0.5 0 0 1 I I -0.70710678118654746 0.70710678118654746 0.5 forward I I I I #
loop $-1 $-1 $148 $40 #
coedge $-1 $93 $93 $149 $150 reversed $58 $-1 #
face $-1 $-1 $151 $32 $-1 $152 forward single #
loop $-1 $153 $154 $60 #
cone-surface $-1 7.9494611773049755 21.721550111884408 6.308536205308009 0 -0.64278761758704617 -0.76604443648966558 0.5 0 0 1 I I -0.70710678118654746 0.70710678118654746 0.5 forward I I I I #
loop $-1 $-1 $155 $41 #
coedge $-1 $98 $98 $156 $157 reversed $61 $-1 #
face $-1 $158 $159 $33 $-1 $160 reversed single #
loop $-1 $-1 $161 $63 #
plane-surface $-1 27.466795580409745 -26.543514237930623 3.6505889137013554 0 -0.71933980857756763 0.69465836192734942 1 0 0 forward_v I I I I #
coedge $-1 $162 $163 $164 $165 reversed $64 $-1 #
face $-1 $-1 $166 $34 $-1 $167 forward single #
loop $-1 $168 $169 $66 #
cone-surface $-1 23.802155925055438 -20.814434101038582 5.2100235487423987 0 0.71933980857756763 -0.69465836192734942 0.75 0 0 1 I I -0.70710678118654757 0.70710678118654757 0.75 forward I I I I #
loop $-1 $-1 $170 $43 #
coedge $-1 $107 $107 $171 $172 reversed $67 $-1 #
face $-1 $-1 $173 $35 $-1 $174 forward single #
loop $-1 $175 $176 $69 #
cone-surface $-1 31.131435235764052 -20.814434101038582 5.2100235487423987 0 0.71933980857756763 -0.69465836192734942 0.75 0 0 1 I I -0.70710678118654757 0.70710678118654757 0.75 forward I I I I #
loop $-1 $-1 $177 $44 #
coedge $-1 $112 $112 $178 $179 reversed $70 $-1 #
face $-1 $180 $181 $27 $-1 $182 reversed single #
loop $-1 $-1 $183 $72 #
plane-surface $-1 0 0 -10.990037200938659 0 0 1 1 0 0 forward_v I I I I #
coedge $-1 $184 $185 $186 $187 forward $73 $-1 #
coedge $-1 $188 $75 $189 $190 reversed $46 $-1 #
coedge $-1 $75 $188 $191 $192 forward $46 $-1 #
coedge $-1 $193 $194 $75 $120 forward $114 $-1 #
edge $-1 $195 -26.543514237930612 $196 26.543514237930612 $75 $197 forward 7 unknown #
face $-1 $198 $199 $28 $-1 $200 reversed single #
loop $-1 $-1 $201 $76 #
plane-surface $-1 -66.412759421008658 -24.498574605378629 0 0 1 0 0 0 1 forward_v I I I I #
coedge $-1 $202 $203 $126 $204 forward $77 $-1 #
coedge $-1 $205 $79 $206 $207 reversed $49 $-1 #
coedge $-1 $79 $205 $124 $204 reversed $49 $-1 #
coedge $-1 $208 $209 $79 $128 reversed $210 $-1 #
edge $-1 $211 -10.990037200938659 $212 10.990037200938659 $127 $213 forward 7 unknown #
face $-1 $214 $215 $29 $-1 $216 forward single #
loop $-1 $-1 $217 $80 #
plane-surface $-1 12.972761497044665 64.574866396945382 133.83426202755027 -1 0 0 0 0.64278761758704617 0.76604443648966558 forward_v I I I I #
coedge $-1 $218 $219 $220 $221 reversed $81 $-1 #
coedge $-1 $134 $83 $222 $223 reversed $52 $-1 #
coedge $-1 $83 $133 $218 $224 reversed $52 $-1 #
coedge $-1 $220 $225 $83 $136 forward $215 $-1 #
edge $-1 $226 5.7439189605420786 $227 11.784356327371313 $135 $228 forward 7 unknown #
loop $-1 $-1 $142 $84 #
plane-surface $-1 0.41451069769543381 -14.123508575771311 40.045192886897155 0 0.64278761758704617 0.76604443648966558 1 0 0 forward_v I I I I #
loop $-1 $-1 $229 $54 #
coedge $-1 $140 $140 $141 $230 reversed $85 $-1 #
coedge $-1 $141 $141 $140 $230 forward $87 $-1 #
coedge $-1 $142 $142 $88 $143 forward $137 $-1 #
edge $-1 $231 -6.0976456530054579e-016 $231 6.2831853071795996 $142 $232 forward 7 unknown #
loop $-1 $-1 $149 $89 #
plane-surface $-1 0.41451069769543381 -14.123508575771311 40.045192886897155 0 0.64278761758704617 0.76604443648966558 1 0 0 forward_v I I I I #
loop $-1 $-1 $233 $57 #
coedge $-1 $147 $147 $148 $234 reversed $90 $-1 #
coedge $-1 $148 $148 $147 $234 forward $92 $-1 #
coedge $-1 $149 $149 $93 $150 forward $144 $-1 #
edge $-1 $235 -6.0976456530054579e-016 $235 6.2831853071795996 $149 $236 forward 7 unknown #
loop $-1 $-1 $156 $94 #
plane-surface $-1 0.41451069769543381 -14.123508575771311 40.045192886897155 0 0.64278761758704617 0.76604443648966558 1 0 0 forward_v I I I I #
loop $-1 $-1 $237 $60 #
coedge $-1 $154 $154 $155 $238 reversed $95 $-1 #
coedge $-1 $155 $155 $154 $238 forward $97 $-1 #
coedge $-1 $156 $156 $98 $157 forward $151 $-1 #
edge $-1 $239 -6.0976456530054579e-016 $239 6.2831853071795996 $156 $240 forward 7 unknown #
face $-1 $241 $242 $33 $-1 $243 forward single #
loop $-1 $-1 $244 $99 #
plane-surface $-1 18.915969717916354 -114.61439867834758 88.699651386483836 1 0 0 0 0.71933980857756763 -0.69465836192734942 forward_v I I I I #
coedge $-1 $245 $246 $247 $248 reversed $100 $-1 #
coedge $-1 $163 $102 $249 $250 reversed $64 $-1 #
coedge $-1 $102 $162 $245 $251 reversed $64 $-1 #
coedge $-1 $247 $252 $102 $165 forward $242 $-1 #
edge $-1 $253 30.76368510124318 $254 37.851307757278875 $164 $255 forward 7 unknown #
loop $-1 $-1 $171 $103 #
plane-surface $-1 27.466795580409745 -26.543514237930623 3.6505889137013554 0 -0.71933980857756763 0.69465836192734942 1 0 0 forward_v I I I I #
loop $-1 $-1 $256 $66 #
coedge $-1 $169 $169 $170 $257 reversed $104 $-1 #
coedge $-1 $170 $170 $169 $257 forward $106 $-1 #
coedge $-1 $171 $171 $107 $172 forward $166 $-1 #
edge $-1 $258 0 $258 6.2831853071796004 $171 $259 forward 7 unknown #
loop $-1 $-1 $178 $108 #
plane-surface $-1 27.466795580409745 -26.543514237930623 3.6505889137013554 0 -0.71933980857756763 0.69465836192734942 1 0 0 forward_v I I I I #
loop $-1 $-1 $260 $69 #
coedge $-1 $176 $176 $177 $261 reversed $109 $-1 #
coedge $-1 $177 $177 $176 $261 forward $111 $-1 #
coedge $-1 $178 $178 $112 $179 forward $173 $-1 #
edge $-1 $262 0 $262 6.2831853071796004 $178 $263 forward 7 unknown #
face $-1 $264 $265 $27 $-1 $266 reversed single #
loop $-1 $-1 $189 $113 #
plane-surface $-1 0 -26.543514237930612 0 0 1 0 0 0 1 forward_v I I I I #
coedge $-1 $194 $193 $267 $268 forward $114 $-1 #
coedge $-1 $269 $116 $270 $271 forward $73 $-1 #
coedge $-1 $116 $269 $272 $273 forward $73 $-1 #
coedge $-1 $274 $275 $116 $187 reversed $276 $-1 #
edge $-1 $277 -26.543514237930612 $278 26.543514237930612 $186 $279 forward 7 unknown #
coedge $-1 $118 $117 $269 $280 reversed $46 $-1 #
coedge $-1 $281 $272 $117 $190 forward $181 $-1 #
edge $-1 $282 -10.990037200938659 $195 10.990037200938659 $117 $283 forward 7 unknown #
coedge $-1 $270 $284 $118 $192 reversed $265 $-1 #
edge $-1 $285 -10.990037200938659 $196 10.990037200938659 $191 $286 forward 7 unknown #
coedge $-1 $183 $119 $284 $287 forward $114 $-1 #
coedge $-1 $119 $183 $281 $288 forward $114 $-1 #
vertex $-1 $120 $289 #
vertex $-1 $287 $290 #
straight-curve $-1 -61.216467787713249 0 -10.990037200938659 0 1 0 I I #
face $-1 $291 $210 $28 $-1 $292 reversed single #
loop $-1 $-1 $293 $121 #
plane-surface $-1 -71.609051054304061 -22.369491773632099 0 1 0 0 0 0 -1 forward_v I I I I #
coedge $-1 $294 $295 $296 $297 forward $122 $-1 #
coedge $-1 $298 $124 $294 $299 forward $77 $-1 #
coedge $-1 $124 $298 $208 $300 forward $77 $-1 #
edge $-1 $211 20.240408941885569 $301 24.498574605378629 $124 $302 forward 7 unknown #
coedge $-1 $126 $125 $303 $304 forward $49 $-1 #
coedge $-1 $305 $306 $125 $207 forward $307 $-1 #
edge $-1 $308 -24.498574605378629 $212 -20.240408941885569 $206 $309 forward 7 unknown #
coedge $-1 $310 $127 $203 $300 reversed $210 $-1 #
coedge $-1 $127 $310 $305 $311 reversed $210 $-1 #
loop $-1 $-1 $127 $198 #
vertex $-1 $204 $312 #
vertex $-1 $311 $313 #
straight-curve $-1 -61.216467787713249 -20.240408941885569 0 0 0 1 I I #
face $-1 $-1 $314 $29 $-1 $315 reversed single #
loop $-1 $-1 $135 $129 #
plane-surface $-1 0 0 10.990037200938659 0 0 1 1 0 0 forward_v I I I I #
coedge $-1 $316 $317 $318 $319 reversed $130 $-1 #
coedge $-1 $320 $132 $134 $224 forward $81 $-1 #
coedge $-1 $132 $320 $316 $321 forward $81 $-1 #
coedge $-1 $318 $135 $132 $221 forward $215 $-1 #
edge $-1 $227 -12.350995450501514 $322 12.765506148196948 $220 $323 forward 7 unknown #
coedge $-1 $324 $325 $133 $223 forward $314 $-1 #
edge $-1 $326 -60.995622685652478 $226 -55.927093812836475 $222 $327 forward 7 unknown #
edge $-1 $227 45.201797438208828 $326 53.087028475861196 $134 $328 forward 7 unknown #
coedge $-1 $135 $318 $324 $329 forward $215 $-1 #
vertex $-1 $223 $330 #
vertex $-1 $136 $331 #
straight-curve $-1 -12.143740101653798 32.287433198472691 10.990037200938659 0 -1 0 I I #
coedge $-1 $229 $229 $-1 $332 reversed $139 $-1 #
edge $-1 $333 0 $333 6.2831853071796004 $140 $334 forward 7 unknown #
vertex $-1 $143 $335 #
ellipse-curve $-1 -7.1204397819141079 23.523295554515993 8.4557727645306606 0 0.64278761758704617 0.76604443648966558 1 0 0 1 I I #
coedge $-1 $233 $233 $-1 $336 reversed $146 $-1 #
edge $-1 $337 0 $337 6.2831853071796004 $147 $338 forward 7 unknown #
vertex $-1 $150 $339 #
ellipse-curve $-1 0.41451069769543381 23.523295554515993 8.4557727645306606 0 0.64278761758704617 0.76604443648966558 1 0 0 1 I I #
coedge $-1 $237 $237 $-1 $340 reversed $153 $-1 #
edge $-1 $341 0 $341 6.2831853071796004 $154 $342 forward 7 unknown #
vertex $-1 $157 $343 #
ellipse-curve $-1 7.9494611773049755 23.523295554515993 8.4557727645306606 0 0.64278761758704617 0.76604443648966558 1 0 0 1 I I #
face $-1 $-1 $344 $33 $-1 $345 reversed single #
loop $-1 $-1 $164 $158 #
plane-surface $-1 0 0 10.990037200938659 0 0 1 1 0 0 forward_v I I I I #
coedge $-1 $346 $347 $348 $349 reversed $159 $-1 #
coedge $-1 $350 $161 $163 $251 forward $100 $-1 #
coedge $-1 $161 $350 $346 $351 forward $100 $-1 #
coedge $-1 $348 $164 $161 $248 forward $242 $-1 #
edge $-1 $254 -22.284223652698262 $352 -5.1825719277114821 $247 $353 forward 7 unknown #
coedge $-1 $354 $355 $162 $250 forward $344 $-1 #
edge $-1 $356 -40.699236779540549 $253 -33.359788492303259 $249 $357 forward 7 unknown #
edge $-1 $254 -10.203033670207171 $356 -1.5390042973660013e-014 $163 $358 forward 7 unknown #
coedge $-1 $164 $348 $354 $359 forward $242 $-1 #
vertex $-1 $165 $360 #
vertex $-1 $165 $361 #
straight-curve $-1 36.017621442903135 -57.307199339173792 10.990037200938659 0 1 0 I I #
coedge $-1 $256 $256 $-1 $362 reversed $168 $-1 #
edge $-1 $363 0 $363 6.2831853071796004 $169 $364 forward 7 unknown #
vertex $-1 $172 $365 #
ellipse-curve $-1 23.802155925055438 -22.999702909912767 7.3203130573200124 0 -0.71933980857756763 0.69465836192734942 1.5 0 0 1 I I #
coedge $-1 $260 $260 $-1 $366 reversed $175 $-1 #
edge $-1 $367 0 $367 6.2831853071796004 $176 $368 forward 7 unknown #
vertex $-1 $179 $369 #
ellipse-curve $-1 31.131435235764052 -22.999702909912767 7.3203130573200124 0 -0.71933980857756763 0.69465836192734942 1.5 0 0 1 I I #
face $-1 $-1 $276 $27 $-1 $370 reversed single #
loop $-1 $-1 $371 $180 #
plane-surface $-1 0 26.543514237930612 0 0 -1 0 0 0 -1 forward_v I I I I #
coedge $-1 $275 $274 $183 $268 reversed $276 $-1 #
edge $-1 $372 -26.543514237930612 $373 26.543514237930612 $267 $374 forward 7 unknown #
coedge $-1 $185 $184 $188 $280 forward $73 $-1 #
coedge $-1 $371 $191 $184 $271 reversed $265 $-1 #
edge $-1 $278 -61.216467787713249 $285 61.216467787713249 $270 $375 forward 7 unknown #
coedge $-1 $189 $376 $185 $273 reversed $181 $-1 #
edge $-1 $282 -61.216467787713249 $277 61.216467787713249 $272 $377 forward 7 unknown #
coedge $-1 $267 $186 $376 $378 forward $276 $-1 #
coedge $-1 $186 $267 $371 $379 reversed $276 $-1 #
loop $-1 $-1 $274 $264 #
vertex $-1 $187 $380 #
vertex $-1 $187 $381 #
straight-curve $-1 61.216467787713249 0 10.990037200938659 0 1 0 I I #
edge $-1 $285 -26.543514237930612 $282 26.543514237930612 $188 $382 forward 7 unknown #
coedge $-1 $376 $189 $194 $288 reversed $181 $-1 #
vertex $-1 $280 $383 #
straight-curve $-1 -61.216467787713249 -26.543514237930612 0 0 0 -1 I I #
coedge $-1 $191 $371 $193 $287 reversed $265 $-1 #
vertex $-1 $271 $384 #
straight-curve $-1 -61.216467787713249 26.543514237930612 0 0 0 -1 I I #
edge $-1 $196 -61.216467787713249 $372 61.216467787713249 $284 $385 forward 7 unknown #
edge $-1 $373 -61.216467787713249 $195 61.216467787713249 $281 $386 forward 7 unknown #
point $-1 -61.216467787713249 -26.543514237930612 -10.990037200938659 #
point $-1 -61.216467787713249 26.543514237930612 -10.990037200938659 #
face $-1 $-1 $307 $28 $-1 $387 forward single #
plane-surface $-1 -66.412759421008658 -20.240408941885569 0 0 -1 0 0 0 -1 forward_v I I I I #
coedge $-1 $388 $389 $310 $390 forward $199 $-1 #
coedge $-1 $303 $201 $202 $299 reversed $122 $-1 #
coedge $-1 $201 $303 $306 $391 reversed $122 $-1 #
coedge $-1 $389 $388 $201 $297 reversed $199 $-1 #
edge $-1 $392 -10.990037200938659 $393 10.990037200938659 $296 $394 forward 7 unknown #
coedge $-1 $203 $202 $388 $395 forward $77 $-1 #
edge $-1 $301 -5.1962916332954023 $393 5.1962916332954023 $294 $396 forward 7 unknown #
edge $-1 $397 -5.1962916332954023 $211 5.1962916332954023 $208 $398 forward 7 unknown #
vertex $-1 $299 $399 #
straight-curve $-1 -61.216467787713249 0 -10.990037200938659 0 -1 0 I I #
coedge $-1 $295 $294 $205 $304 reversed $122 $-1 #
edge $-1 $308 -10.990037200938659 $301 10.990037200938659 $303 $400 forward 7 unknown #
coedge $-1 $401 $206 $209 $311 forward $307 $-1 #
coedge $-1 $206 $401 $295 $391 forward $307 $-1 #
loop $-1 $-1 $206 $291 #
vertex $-1 $207 $402 #
straight-curve $-1 -61.216467787713249 0 10.990037200938659 0 1 0 I I #
coedge $-1 $209 $208 $293 $390 reversed $210 $-1 #
edge $-1 $212 -5.1962916332954023 $403 5.1962916332954023 $209 $404 forward 7 unknown #
point $-1 -61.216467787713256 -20.240408941885569 -10.990037200938659 #
point $-1 -61.216467787713256 -20.240408941885569 10.990037200938659 #
loop $-1 $-1 $222 $214 #
plane-surface $-1 0 26.543514237930612 0 0 -1 0 0 0 -1 forward_v I I I I #
coedge $-1 $317 $217 $219 $321 reversed $130 $-1 #
coedge $-1 $217 $316 $405 $406 reversed $130 $-1 #
coedge $-1 $225 $220 $217 $319 forward $215 $-1 #
edge $-1 $322 -11.784356327371313 $407 -5.7439189605420786 $318 $408 forward 7 unknown #
coedge $-1 $219 $218 $325 $409 reversed $81 $-1 #
edge $-1 $410 -53.087028475861196 $322 -45.201797438208828 $316 $411 forward 7 unknown #
vertex $-1 $221 $412 #
straight-curve $-1 0.2072553488477169 20.503076871101374 10.990037200938659 1 0 0 I I #
coedge $-1 $405 $222 $225 $329 reversed $314 $-1 #
coedge $-1 $222 $405 $320 $409 forward $314 $-1 #
vertex $-1 $223 $413 #
straight-curve $-1 -12.143740101653798 26.543514237930612 66.917131013775133 0 0 1 I I #
straight-curve $-1 -12.143740101653798 -14.123508575771311 40.045192886897155 0 0.76604443648966558 -0.64278761758704617 I I #
edge $-1 $407 -12.972761497044665 $226 12.143740101653798 $324 $414 forward 7 unknown #
point $-1 -12.143740101653798 26.543514237930612 10.990037200938659 #
point $-1 -12.143740101653798 20.503076871101378 10.990037200938659 #
edge $-1 $415 1 $415 0 $229 $-1 forward 7 unknown #
vertex $-1 $230 $416 #
ellipse-curve $-1 -7.1204397819141079 22.042943920677931 6.6915584235528414 0 0.64278761758704617 0.76604443648966558 1 0 0 1 I I #
point $-1 -6.1204397819141079 23.523295554515979 8.4557727645306446 #
edge $-1 $417 1 $417 0 $233 $-1 forward 7 unknown #
vertex $-1 $234 $418 #
ellipse-curve $-1 0.41451069769543381 22.042943920677931 6.6915584235528414 0 0.64278761758704617 0.76604443648966558 1 0 0 1 I I #
point $-1 1.4145106976954338 23.523295554515979 8.4557727645306446 #
edge $-1 $419 1 $419 0 $237 $-1 forward 7 unknown #
vertex $-1 $238 $420 #
ellipse-curve $-1 7.9494611773049755 22.042943920677931 6.6915584235528414 0 0.64278761758704617 0.76604443648966558 1 0 0 1 I I #
point $-1 8.9494611773049755 23.523295554515979 8.4557727645306446 #
loop $-1 $-1 $249 $241 #
plane-surface $-1 0 -26.543514237930612 0 0 1 0 0 0 1 forward_v I I I I #
coedge $-1 $347 $244 $246 $351 reversed $159 $-1 #
coedge $-1 $244 $346 $421 $422 reversed $159 $-1 #
coedge $-1 $252 $247 $244 $349 forward $242 $-1 #
edge $-1 $352 -37.851307757278875 $423 -30.76368510124318 $348 $424 forward 7 unknown #
coedge $-1 $246 $245 $355 $425 reversed $100 $-1 #
edge $-1 $426 1.5390042973660013e-014 $352 10.203033670207171 $346 $427 forward 7 unknown #
vertex $-1 $248 $428 #
straight-curve $-1 13.733397790204872 -19.455891581894917 10.990037200938659 -1 0 0 I I #
coedge $-1 $421 $249 $252 $359 reversed $344 $-1 #
coedge $-1 $249 $421 $350 $425 forward $344 $-1 #
vertex $-1 $250 $429 #
straight-curve $-1 36.017621442903135 -26.543514237930609 44.349825693241918 0 0 1 I I #
straight-curve $-1 36.017621442903135 -26.543514237930623 3.6505889137013554 0 -0.69465836192734942 -0.71933980857756763 I I #
edge $-1 $423 18.915969717916354 $253 36.017621442903135 $354 $430 forward 7 unknown #
point $-1 36.017621442903135 -26.543514237930612 10.990037200938659 #
point $-1 36.017621442903135 -19.455891581894917 10.990037200938659 #
edge $-1 $431 1 $431 0 $256 $-1 forward 7 unknown #
vertex $-1 $257 $432 #
ellipse-curve $-1 23.802155925055438 -21.353938957471758 5.7310173201879104 0 -0.71933980857756763 0.69465836192734942 1.5 0 0 1 I I #
point $-1 25.302155925055438 -22.999702909912767 7.3203130573200124 #
edge $-1 $433 1 $433 0 $260 $-1 forward 7 unknown #
vertex $-1 $261 $434 #
ellipse-curve $-1 31.131435235764052 -21.353938957471758 5.7310173201879104 0 -0.71933980857756763 0.69465836192734942 1.5 0 0 1 I I #
point $-1 32.631435235764052 -22.999702909912767 7.3203130573200124 #
plane-surface $-1 61.216467787713249 0 0 -1 0 0 0 0 1 forward_v I I I I #
coedge $-1 $284 $270 $275 $379 forward $265 $-1 #
vertex $-1 $268 $435 #
vertex $-1 $378 $436 #
straight-curve $-1 61.216467787713249 0 -10.990037200938659 0 -1 0 I I #
straight-curve $-1 0 26.543514237930612 10.990037200938659 -1 0 0 I I #
coedge $-1 $272 $281 $274 $378 reversed $181 $-1 #
straight-curve $-1 0 -26.543514237930612 10.990037200938659 1 0 0 I I #
edge $-1 $277 -10.990037200938659 $373 10.990037200938659 $274 $437 forward 7 unknown #
edge $-1 $278 -10.990037200938659 $372 10.990037200938659 $275 $438 forward 7 unknown #
point $-1 61.216467787713249 -26.543514237930612 10.990037200938659 #
point $-1 61.216467787713249 26.543514237930612 10.990037200938659 #
straight-curve $-1 -61.216467787713249 0 10.990037200938659 0 -1 0 I I #
point $-1 -61.216467787713249 -26.543514237930612 10.990037200938659 #
point $-1 -61.216467787713249 26.543514237930612 10.990037200938659 #
straight-curve $-1 0 26.543514237930612 -10.990037200938659 1 0 0 I I #
straight-curve $-1 0 -26.543514237930612 -10.990037200938659 -1 0 0 I I #
plane-surface $-1 0 0 10.990037200938659 0 0 1 1 0 0 forward_v I I I I #
coedge $-1 $296 $293 $298 $395 reversed $199 $-1 #
coedge $-1 $293 $296 $401 $439 reversed $199 $-1 #
edge $-1 $403 -10.990037200938659 $397 10.990037200938659 $310 $440 forward 7 unknown #
edge $-1 $392 -5.1962916332954023 $308 5.1962916332954023 $295 $441 forward 7 unknown #
vertex $-1 $439 $442 #
vertex $-1 $395 $443 #
straight-curve $-1 -71.609051054304061 -24.498574605378629 0 0 0 -1 I I #
edge $-1 $393 -2.1290828317465298 $397 2.1290828317465298 $388 $444 forward 7 unknown #
straight-curve $-1 -66.412759421008658 -24.498574605378629 -10.990037200938659 -1 0 0 I I #
vertex $-1 $300 $445 #
straight-curve $-1 -66.412759421008658 -20.240408941885569 -10.990037200938659 1 0 0 I I #
point $-1 -61.216467787713256 -24.498574605378629 -10.990037200938659 #
straight-curve $-1 -61.216467787713249 -24.498574605378629 0 0 0 -1 I I #
coedge $-1 $306 $305 $389 $439 forward $307 $-1 #
point $-1 -61.216467787713256 -24.498574605378629 10.990037200938659 #
vertex $-1 $311 $446 #
straight-curve $-1 -66.412759421008658 -20.240408941885569 10.990037200938659 -1 0 0 I I #
coedge $-1 $325 $324 $317 $406 forward $314 $-1 #
edge $-1 $407 55.927093812836475 $410 60.995622685652478 $405 $447 forward 7 unknown #
vertex $-1 $329 $448 #
straight-curve $-1 12.972761497044665 32.287433198472691 10.990037200938659 0 1 0 I I #
edge $-1 $410 -12.765506148196948 $326 12.350995450501514 $325 $449 forward 7 unknown #
vertex $-1 $409 $450 #
straight-curve $-1 12.972761497044665 -14.123508575771311 40.045192886897155 0 -0.76604443648966558 0.64278761758704617 I I #
point $-1 12.972761497044665 20.503076871101378 10.990037200938659 #
point $-1 -12.143740101653798 26.543514237930609 5.9215083281226555 #
straight-curve $-1 0 26.543514237930612 10.990037200938659 -1 0 0 I I #
vertex $-1 $332 $451 #
point $-1 -6.1204397819141079 22.042943920677931 6.6915584235528414 #
vertex $-1 $336 $452 #
point $-1 1.4145106976954338 22.042943920677931 6.6915584235528414 #
vertex $-1 $340 $453 #
point $-1 8.9494611773049755 22.042943920677931 6.6915584235528414 #
coedge $-1 $355 $354 $347 $422 forward $344 $-1 #
edge $-1 $423 33.359788492303259 $426 40.699236779540549 $421 $454 forward 7 unknown #
vertex $-1 $359 $455 #
straight-curve $-1 18.915969717916354 -57.307199339173792 10.990037200938659 0 -1 0 I I #
edge $-1 $426 5.1825719277114821 $356 22.284223652698262 $355 $456 forward 7 unknown #
vertex $-1 $425 $457 #
straight-curve $-1 18.915969717916354 -26.543514237930623 3.6505889137013554 0 0.69465836192734942 0.71933980857756763 I I #
point $-1 18.915969717916354 -19.455891581894917 10.990037200938659 #
point $-1 36.017621442903135 -26.543514237930612 3.6505889137013665 #
straight-curve $-1 0 -26.543514237930612 10.990037200938659 1 0 0 I I #
vertex $-1 $362 $458 #
point $-1 25.302155925055438 -21.353938957471758 5.7310173201879104 #
vertex $-1 $366 $459 #
point $-1 32.631435235764052 -21.353938957471758 5.7310173201879104 #
point $-1 61.216467787713249 26.543514237930612 -10.990037200938659 #
point $-1 61.216467787713249 -26.543514237930612 -10.990037200938659 #
straight-curve $-1 61.216467787713249 -26.543514237930612 0 0 0 -1 I I #
straight-curve $-1 61.216467787713249 26.543514237930612 0 0 0 -1 I I #
edge $-1 $403 -2.1290828317465298 $392 2.1290828317465298 $389 $460 forward 7 unknown #
straight-curve $-1 -71.609051054304061 -20.240408941885569 0 0 0 -1 I I #
straight-curve $-1 -66.412759421008658 -24.498574605378629 10.990037200938659 1 0 0 I I #
point $-1 -71.609051054304061 -24.498574605378629 10.990037200938659 #
point $-1 -71.609051054304061 -24.498574605378629 -10.990037200938659 #
straight-curve $-1 -71.609051054304061 -22.369491773632099 -10.990037200938659 0 1 0 I I #
point $-1 -71.609051054304061 -20.240408941885569 -10.990037200938659 #
point $-1 -71.609051054304061 -20.240408941885569 10.990037200938659 #
straight-curve $-1 12.972761497044665 26.543514237930612 66.917131013775133 0 0 -1 I I #
point $-1 12.972761497044665 26.543514237930612 10.990037200938659 #
straight-curve $-1 0.2072553488477169 26.543514237930609 5.921508328122659 -1 0 0 I I #
point $-1 12.972761497044665 26.543514237930609 5.9215083281226555 #
point $-1 -7.1204397819141079 21.400156303090885 5.9255139870631766 #
point $-1 0.41451069769543381 21.400156303090885 5.9255139870631766 #
point $-1 7.9494611773049755 21.400156303090885 5.9255139870631766 #
straight-curve $-1 18.915969717916354 -26.543514237930609 44.349825693241918 0 0 -1 I I #
point $-1 18.915969717916354 -26.543514237930612 10.990037200938659 #
straight-curve $-1 13.733397790204872 -26.543514237930612 3.6505889137013643 1 0 0 I I #
point $-1 18.915969717916354 -26.543514237930612 3.6505889137013665 #
point $-1 23.802155925055438 -20.274929244605406 4.689029777296887 #
point $-1 31.131435235764052 -20.274929244605406 4.689029777296887 #
straight-curve $-1 -71.609051054304061 -22.369491773632099 10.990037200938659 0 -1 0 I I #
End-of-ACIS-data 