500 0 6 0           
7 Unknown 11 ACIS 5.0 NT 24 Thu Mar 25 18:08:30 1999 
-1 9.9999999999999995e-007 1e-010 
body $-1 $6 $-1 $7 #
body $-1 $8 $-1 $9 #
body $-1 $10 $-1 $11 #
body $-1 $12 $-1 $13 #
body $-1 $14 $-1 $15 #
body $-1 $16 $-1 $17 #
lump $-1 $-1 $18 $0 #
transform $-1 1 0 0 0 1 0 0 0 1 72.438734092226937 32.330043492280197 13.006707917630045 1 rotate no_reflect no_shear #
lump $-1 $-1 $19 $1 #
transform $-1 1 0 0 0 1 0 0 0 1 72.438734092226937 32.330043492280197 13.006707917630045 1 rotate no_reflect no_shear #
lump $-1 $-1 $20 $2 #
transform $-1 1 0 0 0 1 0 0 0 1 72.438734092226937 32.330043492280197 13.006707917630045 1 rotate no_reflect no_shear #
lump $-1 $-1 $21 $3 #
transform $-1 1 0 0 0 1 0 0 0 1 72.438734092226937 32.330043492280197 13.006707917630045 1 rotate no_reflect no_shear #
lump $-1 $-1 $22 $4 #
transform $-1 1 0 0 0 1 0 0 0 1 72.438734092226937 32.330043492280197 13.006707917630045 1 rotate no_reflect no_shear #
lump $-1 $-1 $23 $5 #
transform $-1 1 0 0 0 1 0 0 0 1 72.438734092226937 32.330043492280197 13.006707917630045 1 rotate no_reflect no_shear #
shell $-1 $-1 $-1 $24 $-1 $6 #
shell $-1 $-1 $-1 $25 $-1 $8 #
shell $-1 $-1 $-1 $26 $-1 $10 #
shell $-1 $-1 $-1 $27 $-1 $12 #
shell $-1 $-1 $-1 $28 $-1 $14 #
shell $-1 $-1 $-1 $29 $-1 $16 #
face $-1 $30 $31 $18 $-1 $32 forward single #
face $-1 $33 $34 $19 $-1 $35 forward single #
face $-1 $36 $37 $20 $-1 $38 reversed single #
face $-1 $39 $40 $21 $-1 $41 forward single #
face $-1 $42 $43 $22 $-1 $44 reversed single #
face $-1 $45 $46 $23 $-1 $47 forward single #
face $-1 $48 $49 $18 $-1 $50 reversed single #
loop $-1 $-1 $51 $24 #
plane-surface $-1 0 0 13.006707917630045 0 0 1 1 0 0 forward_v I I I I #
face $-1 $52 $53 $19 $-1 $54 forward single #
loop $-1 $-1 $55 $25 #
plane-surface $-1 -72.438734092226937 0 0 1 0 0 0 0 -1 forward_v I I I I #
face $-1 $56 $57 $20 $-1 $58 reversed single #
loop $-1 $-1 $59 $26 #
plane-surface $-1 11.224525417164472 62.461904369422797 156.8220465327978 1 0 0 0 -0.57357644374324357 -0.81915203911291934 forward_v I I I I #
face $-1 $60 $61 $21 $-1 $62 forward single #
loop $-1 $63 $64 $27 #
cone-surface $-1 30.323020485960456 21.992473588457912 4.4541738751856839 0 -0.57357644374324357 -0.81915203911291934 5 0 0 1 I I 0 1 5 forward I I I I #
face $-1 $65 $66 $22 $-1 $67 reversed single #
loop $-1 $-1 $68 $28 #
plane-surface $-1 -5.7693777993096802 -138.28671732754941 107.71472058720187 -1 0 0 0 -0.73135370988377701 0.68199835119979291 forward_v I I I I #
face $-1 $69 $70 $23 $-1 $71 forward single #
loop $-1 $72 $73 $29 #
cone-surface $-1 -12.820584698549759 -29.155029326049561 9.7787258488709057 0 0.73135370988377701 -0.68199835119979291 1 0 0 1 I I 0 1 1 forward I I I I #
face $-1 $74 $75 $18 $-1 $76 reversed single #
loop $-1 $-1 $77 $30 #
plane-surface $-1 0 0 -13.006707917630045 0 0 1 1 0 0 forward_v I I I I #
coedge $-1 $78 $79 $80 $81 forward $31 $-1 #
face $-1 $82 $83 $19 $-1 $84 reversed single #
loop $-1 $-1 $85 $33 #
plane-surface $-1 0 0 13.006707917630045 0 0 1 1 0 0 forward_v I I I I #
coedge $-1 $86 $87 $88 $89 forward $34 $-1 #
face $-1 $90 $91 $20 $-1 $92 reversed single #
loop $-1 $-1 $93 $36 #
plane-surface $-1 30.323020485960456 -20.636398610341175 38.145373047985316 0 0.57357644374324357 0.81915203911291934 1 0 0 forward_v I I I I #
coedge $-1 $94 $95 $96 $97 reversed $37 $-1 #
face $-1 $-1 $98 $21 $-1 $99 forward single #
loop $-1 $100 $101 $39 #
cone-surface $-1 30.323020485960456 18.753316722328314 -0.17182145785213265 0 -0.57357644374324357 -0.81915203911291934 2.5 0 0 1 I I -0.70710678118654757 0.70710678118654746 2.5 forward I I I I #
loop $-1 $-1 $102 $27 #
coedge $-1 $64 $64 $103 $104 reversed $40 $-1 #
face $-1 $105 $106 $22 $-1 $107 reversed single #
loop $-1 $-1 $108 $42 #
plane-surface $-1 -12.820584698549759 -32.330043492280197 8.9085261594038769 0 -0.73135370988377701 0.68199835119979291 1 0 0 forward_v I I I I #
coedge $-1 $109 $110 $111 $112 reversed $43 $-1 #
face $-1 $-1 $113 $23 $-1 $114 forward single #
loop $-1 $115 $116 $45 #
cone-surface $-1 -12.820584698549759 -27.525146416092809 8.2588354836249671 0 0.73135370988377701 -0.68199835119979291 0.5 0 0 1 I I -0.70710678118654746 0.70710678118654746 0.5 forward I I I I #
loop $-1 $-1 $117 $29 #
coedge $-1 $73 $73 $118 $119 reversed $46 $-1 #
face $-1 $120 $121 $18 $-1 $122 reversed single #
loop $-1 $-1 $123 $48 #
plane-surface $-1 0 -32.330043492280197 0 0 1 0 0 0 1 forward_v I I I I #
coedge $-1 $124 $125 $126 $127 forward $49 $-1 #
coedge $-1 $128 $51 $129 $130 forward $31 $-1 #
coedge $-1 $51 $128 $131 $132 forward $31 $-1 #
coedge $-1 $133 $134 $51 $81 reversed $135 $-1 #
edge $-1 $136 -32.330043492280197 $137 32.330043492280197 $80 $138 forward 7 unknown #
face $-1 $139 $140 $19 $-1 $141 reversed single #
loop $-1 $-1 $142 $52 #
plane-surface $-1 -87.591098283306351 -29.829565719352345 0 1 0 0 0 0 -1 forward_v I I I I #
coedge $-1 $143 $144 $86 $145 forward $53 $-1 #
coedge $-1 $146 $55 $85 $145 reversed $34 $-1 #
coedge $-1 $55 $146 $147 $148 reversed $34 $-1 #
coedge $-1 $149 $150 $55 $89 reversed $140 $-1 #
edge $-1 $151 -13.006707917630045 $152 13.006707917630045 $88 $153 forward 7 unknown #
face $-1 $154 $155 $20 $-1 $156 forward single #
loop $-1 $-1 $157 $56 #
plane-surface $-1 49.421515554756439 62.461904369422797 156.8220465327978 -1 0 0 0 0.57357644374324357 0.81915203911291934 forward_v I I I I #
coedge $-1 $158 $159 $160 $161 reversed $57 $-1 #
coedge $-1 $95 $59 $162 $163 reversed $37 $-1 #
coedge $-1 $59 $94 $158 $164 reversed $37 $-1 #
coedge $-1 $160 $165 $59 $97 forward $155 $-1 #
edge $-1 $166 -1.0990913075687985 $167 15.965616986532773 $96 $168 forward 7 unknown #
loop $-1 $-1 $103 $60 #
plane-surface $-1 30.323020485960456 -20.636398610341175 38.145373047985316 0 0.57357644374324357 0.81915203911291934 1 0 0 forward_v I I I I #
loop $-1 $-1 $169 $39 #
coedge $-1 $101 $101 $102 $170 reversed $61 $-1 #
coedge $-1 $102 $102 $101 $170 forward $63 $-1 #
coedge $-1 $103 $103 $64 $104 forward $98 $-1 #
edge $-1 $171 -1.1592529060478113e-016 $171 6.2831853071796004 $103 $172 forward 7 unknown #
face $-1 $173 $174 $22 $-1 $175 forward single #
loop $-1 $-1 $176 $65 #
plane-surface $-1 -19.871791597789837 -138.28671732754941 107.71472058720187 1 0 0 0 0.73135370988377701 -0.68199835119979291 forward_v I I I I #
coedge $-1 $177 $178 $179 $180 reversed $66 $-1 #
coedge $-1 $110 $68 $181 $182 reversed $43 $-1 #
coedge $-1 $68 $109 $177 $183 reversed $43 $-1 #
coedge $-1 $179 $184 $68 $112 forward $174 $-1 #
edge $-1 $185 36.813315171494509 $186 40.634931393926024 $111 $187 forward 7 unknown #
loop $-1 $-1 $118 $69 #
plane-surface $-1 -12.820584698549759 -32.330043492280197 8.9085261594038769 0 -0.73135370988377701 0.68199835119979291 1 0 0 forward_v I I I I #
loop $-1 $-1 $188 $45 #
coedge $-1 $116 $116 $117 $189 reversed $70 $-1 #
coedge $-1 $117 $117 $116 $189 forward $72 $-1 #
coedge $-1 $118 $118 $73 $119 forward $113 $-1 #
edge $-1 $190 -1.8251815383288805e-015 $190 6.2831853071795987 $118 $191 forward 7 unknown #
face $-1 $192 $193 $18 $-1 $194 reversed single #
loop $-1 $-1 $195 $74 #
plane-surface $-1 -72.438734092226937 0 0 1 0 0 0 0 -1 forward_v I I I I #
coedge $-1 $196 $131 $197 $198 forward $75 $-1 #
coedge $-1 $199 $77 $196 $200 forward $49 $-1 #
coedge $-1 $77 $199 $201 $202 forward $49 $-1 #
coedge $-1 $134 $133 $77 $127 reversed $135 $-1 #
edge $-1 $203 -32.330043492280197 $204 32.330043492280197 $126 $205 forward 7 unknown #
coedge $-1 $79 $78 $206 $207 forward $31 $-1 #
coedge $-1 $208 $209 $78 $130 reversed $193 $-1 #
edge $-1 $137 -72.438734092226937 $210 72.438734092226937 $129 $211 forward 7 unknown #
coedge $-1 $123 $212 $79 $132 reversed $75 $-1 #
edge $-1 $213 -72.438734092226937 $136 72.438734092226937 $131 $214 forward 7 unknown #
coedge $-1 $126 $80 $212 $215 forward $135 $-1 #
coedge $-1 $80 $126 $208 $216 reversed $135 $-1 #
loop $-1 $-1 $133 $192 #
vertex $-1 $81 $217 #
vertex $-1 $81 $218 #
straight-curve $-1 72.438734092226937 0 13.006707917630045 0 1 0 I I #
face $-1 $219 $220 $19 $-1 $221 reversed single #
loop $-1 $-1 $88 $82 #
plane-surface $-1 -80.014916187766644 -27.329087946424494 0 0 -1 0 0 0 -1 forward_v I I I I #
coedge $-1 $222 $223 $224 $225 forward $83 $-1 #
coedge $-1 $226 $85 $150 $227 forward $53 $-1 #
coedge $-1 $85 $226 $228 $229 forward $53 $-1 #
edge $-1 $230 -32.330043492280197 $152 -27.329087946424494 $85 $231 forward 7 unknown #
coedge $-1 $87 $86 $232 $233 reversed $34 $-1 #
coedge $-1 $234 $235 $87 $148 forward $220 $-1 #
edge $-1 $151 27.329087946424494 $236 32.330043492280197 $147 $237 forward 7 unknown #
coedge $-1 $224 $88 $235 $238 reversed $140 $-1 #
coedge $-1 $88 $224 $143 $227 reversed $140 $-1 #
vertex $-1 $148 $239 #
vertex $-1 $227 $240 #
straight-curve $-1 -72.438734092226937 -27.329087946424494 0 0 0 1 I I #
face $-1 $-1 $241 $20 $-1 $242 reversed single #
loop $-1 $-1 $96 $90 #
plane-surface $-1 0 0 13.006707917630045 0 0 1 1 0 0 forward_v I I I I #
coedge $-1 $243 $244 $245 $246 reversed $91 $-1 #
coedge $-1 $247 $93 $95 $164 forward $57 $-1 #
coedge $-1 $93 $247 $243 $248 forward $57 $-1 #
coedge $-1 $245 $96 $93 $161 forward $155 $-1 #
edge $-1 $167 -3.936984825815756 $249 34.260005311776212 $160 $250 forward 7 unknown #
coedge $-1 $251 $252 $94 $163 forward $241 $-1 #
edge $-1 $253 -77.353152963146513 $166 -65.404315348768847 $162 $254 forward 7 unknown #
edge $-1 $167 43.827924602859689 $253 64.66008698456038 $95 $255 forward 7 unknown #
coedge $-1 $96 $245 $251 $256 forward $155 $-1 #
vertex $-1 $163 $257 #
vertex $-1 $97 $258 #
straight-curve $-1 11.224525417164472 31.230952184711398 13.006707917630038 0 -1 0 I I #
coedge $-1 $169 $169 $-1 $259 reversed $100 $-1 #
edge $-1 $260 0 $260 6.2831853071796004 $101 $261 forward 7 unknown #
vertex $-1 $104 $262 #
ellipse-curve $-1 30.323020485960456 23.797689345229411 7.0322891104412166 0 0.57357644374324357 0.81915203911291934 5 0 0 1 I I #
face $-1 $-1 $263 $22 $-1 $264 reversed single #
loop $-1 $-1 $111 $105 #
plane-surface $-1 0 0 13.006707917630045 0 0 1 1 0 0 forward_v I I I I #
coedge $-1 $265 $266 $267 $268 reversed $106 $-1 #
coedge $-1 $269 $108 $110 $183 forward $66 $-1 #
coedge $-1 $108 $269 $265 $270 forward $66 $-1 #
coedge $-1 $267 $111 $108 $180 forward $174 $-1 #
edge $-1 $186 -0.64091454996519914 $271 13.461499248514958 $179 $272 forward 7 unknown #
coedge $-1 $273 $274 $109 $182 forward $263 $-1 #
edge $-1 $275 -44.948834134197057 $185 -40.850652375970888 $181 $276 forward 7 unknown #
edge $-1 $186 -5.6035563952734027 $275 0 $110 $277 forward 7 unknown #
coedge $-1 $111 $267 $273 $278 forward $174 $-1 #
vertex $-1 $112 $279 #
vertex $-1 $112 $280 #
straight-curve $-1 -5.7693777993096802 -69.143358663774706 13.006707917630045 0 1 0 I I #
coedge $-1 $188 $188 $-1 $281 reversed $115 $-1 #
edge $-1 $282 0 $282 6.2831853071796004 $116 $283 forward 7 unknown #
vertex $-1 $119 $284 #
ellipse-curve $-1 -12.820584698549759 -30.419235381064439 10.957617038516961 0 -0.73135370988377701 0.68199835119979291 1 0 0 1 I I #
face $-1 $-1 $135 $18 $-1 $285 reversed single #
loop $-1 $-1 $208 $120 #
plane-surface $-1 0 32.330043492280197 0 0 -1 0 0 0 -1 forward_v I I I I #
coedge $-1 $286 $206 $209 $287 forward $121 $-1 #
coedge $-1 $212 $123 $124 $200 reversed $75 $-1 #
coedge $-1 $206 $286 $123 $198 reversed $121 $-1 #
edge $-1 $213 -13.006707917630045 $288 13.006707917630045 $197 $289 forward 7 unknown #
coedge $-1 $125 $124 $286 $290 forward $49 $-1 #
edge $-1 $204 -72.438734092226937 $288 72.438734092226937 $196 $291 forward 7 unknown #
coedge $-1 $209 $208 $125 $202 reversed $193 $-1 #
edge $-1 $292 -72.438734092226937 $203 72.438734092226937 $201 $293 forward 7 unknown #
vertex $-1 $127 $294 #
vertex $-1 $215 $295 #
straight-curve $-1 72.438734092226937 0 -13.006707917630045 0 -1 0 I I #
coedge $-1 $195 $197 $128 $207 reversed $121 $-1 #
edge $-1 $210 -32.330043492280197 $213 32.330043492280197 $206 $296 forward 7 unknown #
coedge $-1 $201 $129 $134 $216 forward $193 $-1 #
coedge $-1 $129 $201 $195 $287 reversed $193 $-1 #
vertex $-1 $130 $297 #
straight-curve $-1 0 32.330043492280197 13.006707917630045 -1 0 0 I I #
coedge $-1 $131 $196 $133 $215 reversed $75 $-1 #
vertex $-1 $207 $298 #
straight-curve $-1 0 -32.330043492280197 13.006707917630045 1 0 0 I I #
edge $-1 $136 -13.006707917630045 $204 13.006707917630045 $133 $299 forward 7 unknown #
edge $-1 $137 -13.006707917630045 $203 13.006707917630045 $134 $300 forward 7 unknown #
point $-1 72.438734092226937 -32.330043492280197 13.006707917630045 #
point $-1 72.438734092226937 32.330043492280197 13.006707917630045 #
face $-1 $-1 $301 $19 $-1 $302 reversed single #
loop $-1 $-1 $147 $139 #
plane-surface $-1 0 0 -13.006707917630045 0 0 1 1 0 0 forward_v I I I I #
coedge $-1 $303 $142 $304 $305 reversed $83 $-1 #
coedge $-1 $142 $303 $226 $306 reversed $83 $-1 #
coedge $-1 $150 $149 $142 $225 reversed $140 $-1 #
edge $-1 $307 -13.006707917630045 $308 13.006707917630045 $224 $309 forward 7 unknown #
coedge $-1 $144 $143 $223 $306 forward $53 $-1 #
edge $-1 $152 -7.576182095539707 $307 7.576182095539707 $150 $310 forward 7 unknown #
coedge $-1 $311 $232 $144 $229 reversed $301 $-1 #
edge $-1 $312 -87.591098283306351 $230 -72.438734092226937 $228 $313 forward 7 unknown #
vertex $-1 $233 $314 #
straight-curve $-1 -72.438734092226937 0 13.006707917630045 0 1 0 I I #
coedge $-1 $228 $315 $146 $233 forward $301 $-1 #
edge $-1 $236 -13.006707917630045 $230 13.006707917630045 $232 $316 forward 7 unknown #
coedge $-1 $304 $147 $315 $317 forward $220 $-1 #
coedge $-1 $147 $304 $149 $238 forward $220 $-1 #
vertex $-1 $317 $318 #
straight-curve $-1 -72.438734092226937 0 -13.006707917630045 0 -1 0 I I #
edge $-1 $308 -7.576182095539707 $151 7.576182095539707 $149 $319 forward 7 unknown #
point $-1 -72.438734092226937 -27.329087946424494 -13.006707917630045 #
point $-1 -72.438734092226937 -27.329087946424494 13.006707917630045 #
loop $-1 $-1 $162 $154 #
plane-surface $-1 0 32.330043492280197 0 0 -1 0 0 0 -1 forward_v I I I I #
coedge $-1 $244 $157 $159 $248 reversed $91 $-1 #
coedge $-1 $157 $243 $320 $321 reversed $91 $-1 #
coedge $-1 $165 $160 $157 $246 forward $155 $-1 #
edge $-1 $249 -15.965616986532773 $322 1.0990913075687985 $245 $323 forward 7 unknown #
coedge $-1 $159 $158 $252 $324 reversed $57 $-1 #
edge $-1 $325 -64.66008698456038 $249 -43.827924602859689 $243 $326 forward 7 unknown #
vertex $-1 $161 $327 #
straight-curve $-1 15.161510242980228 15.265335198178621 13.006707917630049 1 0 0 I I #
coedge $-1 $320 $162 $165 $256 reversed $241 $-1 #
coedge $-1 $162 $320 $247 $324 forward $241 $-1 #
vertex $-1 $163 $328 #
straight-curve $-1 11.224525417164472 32.330043492280197 78.4110232663989 0 0 1 I I #
straight-curve $-1 11.224525417164472 -20.636398610341175 38.145373047985316 0 0.81915203911291934 -0.57357644374324357 I I #
edge $-1 $322 -49.421515554756439 $166 -11.224525417164472 $251 $329 forward 7 unknown #
point $-1 11.224525417164472 32.330043492280197 13.006707917630045 #
point $-1 11.224525417164472 15.265335198178626 13.006707917630045 #
edge $-1 $330 1 $330 0 $169 $-1 forward 7 unknown #
vertex $-1 $170 $331 #
ellipse-curve $-1 30.323020485960456 20.187257831686424 1.8760586399301653 0 0.57357644374324357 0.81915203911291934 5 0 0 1 I I #
point $-1 35.323020485960456 23.797689345229401 7.0322891104412024 #
loop $-1 $-1 $181 $173 #
plane-surface $-1 0 -32.330043492280197 0 0 1 0 0 0 1 forward_v I I I I #
coedge $-1 $266 $176 $178 $270 reversed $106 $-1 #
coedge $-1 $176 $265 $332 $333 reversed $106 $-1 #
coedge $-1 $184 $179 $176 $268 forward $174 $-1 #
edge $-1 $271 -40.634931393926024 $334 -36.813315171494509 $267 $335 forward 7 unknown #
coedge $-1 $178 $177 $274 $336 reversed $66 $-1 #
edge $-1 $337 0 $271 5.6035563952734027 $265 $338 forward 7 unknown #
vertex $-1 $180 $339 #
straight-curve $-1 -6.4102923492748793 -28.508427269848678 13.006707917630045 -1 0 0 I I #
coedge $-1 $332 $181 $184 $278 reversed $263 $-1 #
coedge $-1 $181 $332 $269 $336 forward $263 $-1 #
vertex $-1 $182 $340 #
straight-curve $-1 -5.7693777993096802 -32.330043492280197 53.857360293600934 0 0 1 I I #
straight-curve $-1 -5.7693777993096802 -32.330043492280197 8.9085261594038769 0 -0.68199835119979291 -0.73135370988377701 I I #
edge $-1 $334 -19.871791597789837 $185 -5.7693777993096802 $273 $341 forward 7 unknown #
point $-1 -5.7693777993096802 -32.330043492280197 13.006707917630045 #
point $-1 -5.7693777993096802 -28.508427269848681 13.006707917630045 #
edge $-1 $342 1 $342 0 $188 $-1 forward 7 unknown #
vertex $-1 $189 $343 #
ellipse-curve $-1 -12.820584698549759 -27.890823271034698 8.5998346592248645 0 -0.73135370988377701 0.68199835119979291 1 0 0 1 I I #
point $-1 -11.820584698549759 -30.419235381064428 10.957617038516949 #
plane-surface $-1 72.438734092226937 0 0 -1 0 0 0 0 1 forward_v I I I I #
coedge $-1 $197 $195 $199 $290 reversed $121 $-1 #
edge $-1 $210 -13.006707917630045 $292 13.006707917630045 $209 $344 forward 7 unknown #
vertex $-1 $290 $345 #
straight-curve $-1 -72.438734092226937 -32.330043492280197 0 0 0 -1 I I #
edge $-1 $288 -32.330043492280197 $292 32.330043492280197 $286 $346 forward 7 unknown #
straight-curve $-1 0 -32.330043492280197 -13.006707917630045 -1 0 0 I I #
vertex $-1 $202 $347 #
straight-curve $-1 0 32.330043492280197 -13.006707917630045 1 0 0 I I #
point $-1 72.438734092226937 32.330043492280197 -13.006707917630045 #
point $-1 72.438734092226937 -32.330043492280197 -13.006707917630045 #
straight-curve $-1 -72.438734092226937 0 13.006707917630045 0 -1 0 I I #
point $-1 -72.438734092226937 32.330043492280197 13.006707917630045 #
point $-1 -72.438734092226937 -32.330043492280197 13.006707917630045 #
straight-curve $-1 72.438734092226937 -32.330043492280197 0 0 0 -1 I I #
straight-curve $-1 72.438734092226937 32.330043492280197 0 0 0 -1 I I #
loop $-1 $-1 $232 $219 #
plane-surface $-1 0 -32.330043492280197 0 0 1 0 0 0 1 forward_v I I I I #
coedge $-1 $223 $222 $311 $348 reversed $83 $-1 #
coedge $-1 $235 $234 $222 $305 forward $220 $-1 #
edge $-1 $349 -2.5004777729278516 $308 2.5004777729278516 $222 $350 forward 7 unknown #
edge $-1 $307 -2.5004777729278516 $312 2.5004777729278516 $223 $351 forward 7 unknown #
vertex $-1 $227 $352 #
vertex $-1 $238 $353 #
straight-curve $-1 -87.591098283306351 -27.329087946424494 0 0 0 -1 I I #
straight-curve $-1 -80.014916187766644 -27.329087946424494 13.006707917630045 -1 0 0 I I #
coedge $-1 $315 $228 $303 $348 forward $301 $-1 #
vertex $-1 $306 $354 #
straight-curve $-1 0 -32.330043492280197 13.006707917630045 1 0 0 I I #
point $-1 -72.438734092226937 -32.330043492280197 13.006707917630045 #
coedge $-1 $232 $311 $234 $317 reversed $301 $-1 #
straight-curve $-1 -72.438734092226937 -32.330043492280197 0 0 0 1 I I #
edge $-1 $236 -7.576182095539707 $349 7.576182095539707 $315 $355 forward 7 unknown #
point $-1 -72.438734092226937 -32.330043492280197 -13.006707917630045 #
straight-curve $-1 -80.014916187766644 -27.329087946424494 -13.006707917630045 1 0 0 I I #
coedge $-1 $252 $251 $244 $321 forward $241 $-1 #
edge $-1 $322 65.404315348768847 $325 77.353152963146513 $320 $356 forward 7 unknown #
vertex $-1 $256 $357 #
straight-curve $-1 49.421515554756439 31.230952184711398 13.006707917630038 0 1 0 I I #
edge $-1 $325 -34.260005311776212 $253 3.936984825815756 $252 $358 forward 7 unknown #
vertex $-1 $324 $359 #
straight-curve $-1 49.421515554756439 -20.636398610341175 38.145373047985316 0 -0.81915203911291934 0.57357644374324357 I I #
point $-1 49.421515554756439 15.265335198178626 13.006707917630045 #
point $-1 11.224525417164472 32.330043492280197 1.0578703032523862 #
straight-curve $-1 0 32.330043492280197 13.006707917630045 -1 0 0 I I #
vertex $-1 $259 $360 #
point $-1 35.323020485960456 20.187257831686424 1.8760586399301653 #
coedge $-1 $274 $273 $266 $333 forward $263 $-1 #
edge $-1 $334 40.850652375970888 $337 44.948834134197057 $332 $361 forward 7 unknown #
vertex $-1 $278 $362 #
straight-curve $-1 -19.871791597789837 -69.143358663774706 13.006707917630045 0 -1 0 I I #
edge $-1 $337 -13.461499248514958 $275 0.64091454996519914 $274 $363 forward 7 unknown #
vertex $-1 $336 $364 #
straight-curve $-1 -19.871791597789837 -32.330043492280197 8.9085261594038769 0 0.68199835119979291 0.73135370988377701 I I #
point $-1 -19.871791597789837 -28.508427269848681 13.006707917630045 #
point $-1 -5.7693777993096802 -32.330043492280197 8.9085261594038769 #
straight-curve $-1 0 -32.330043492280197 13.006707917630045 1 0 0 I I #
vertex $-1 $281 $365 #
point $-1 -11.820584698549759 -27.890823271034698 8.5998346592248645 #
straight-curve $-1 -72.438734092226937 32.330043492280197 0 0 0 -1 I I #
point $-1 -72.438734092226937 -32.330043492280197 -13.006707917630045 #
straight-curve $-1 -72.438734092226937 0 -13.006707917630045 0 1 0 I I #
point $-1 -72.438734092226937 32.330043492280197 -13.006707917630045 #
edge $-1 $312 -13.006707917630045 $349 13.006707917630045 $303 $366 forward 7 unknown #
vertex $-1 $305 $367 #
straight-curve $-1 -87.591098283306351 -29.829565719352345 -13.006707917630045 0 1 0 I I #
straight-curve $-1 -87.591098283306351 -29.829565719352345 13.006707917630045 0 -1 0 I I #
point $-1 -87.591098283306351 -27.329087946424494 13.006707917630045 #
point $-1 -87.591098283306351 -27.329087946424494 -13.006707917630045 #
point $-1 -87.591098283306351 -32.330043492280197 13.006707917630045 #
straight-curve $-1 -80.014916187766644 -32.330043492280197 -13.006707917630045 -1 0 0 I I #
straight-curve $-1 49.421515554756439 32.330043492280197 78.4110232663989 0 0 -1 I I #
point $-1 49.421515554756439 32.330043492280197 13.006707917630045 #
straight-curve $-1 15.161510242980228 32.330043492280197 1.0578703032523826 -1 0 0 I I #
point $-1 49.421515554756439 32.330043492280197 1.0578703032523862 #
point $-1 30.323020485960456 17.319375612970205 -2.2197015556344306 #
straight-curve $-1 -19.871791597789837 -32.330043492280197 53.857360293600934 0 0 -1 I I #
point $-1 -19.871791597789837 -32.330043492280197 13.006707917630045 #
straight-curve $-1 -6.4102923492748793 -32.330043492280197 8.9085261594038734 1 0 0 I I #
point $-1 -19.871791597789837 -32.330043492280197 8.9085261594038769 #
point $-1 -12.820584698549759 -27.159469561150921 7.9178363080250707 #
straight-curve $-1 -87.591098283306351 -32.330043492280197 0 0 0 -1 I I #
point $-1 -87.591098283306351 -32.330043492280197 -13.006707917630045 #
End-of-ACIS-data 