500 0 10 0           
7 Unknown 11 ACIS 5.0 NT 24 Thu Mar 25 23:54:10 1999 
-1 9.9999999999999995e-007 1e-010 
body $-1 $10 $-1 $11 #
body $-1 $12 $-1 $13 #
body $-1 $14 $-1 $15 #
body $-1 $16 $-1 $17 #
body $-1 $18 $-1 $19 #
body $-1 $20 $-1 $21 #
body $-1 $22 $-1 $23 #
body $-1 $24 $-1 $25 #
body $-1 $26 $-1 $27 #
body $-1 $28 $-1 $29 #
lump $-1 $-1 $30 $0 #
transform $-1 1 0 0 0 1 0 0 0 1 40.660420545060582 19.378939836120381 7.7385056329137347 1 rotate no_reflect no_shear #
lump $-1 $-1 $31 $1 #
transform $-1 1 0 0 0 1 0 0 0 1 40.660420545060582 19.378939836120381 7.7385056329137347 1 rotate no_reflect no_shear #
lump $-1 $-1 $32 $2 #
transform $-1 1 0 0 0 1 0 0 0 1 40.660420545060582 19.378939836120381 7.7385056329137347 1 rotate no_reflect no_shear #
lump $-1 $-1 $33 $3 #
transform $-1 1 0 0 0 1 0 0 0 1 40.660420545060582 19.378939836120381 7.7385056329137347 1 rotate no_reflect no_shear #
lump $-1 $-1 $34 $4 #
transform $-1 1 0 0 0 1 0 0 0 1 40.660420545060582 19.378939836120381 7.7385056329137347 1 rotate no_reflect no_shear #
lump $-1 $-1 $35 $5 #
transform $-1 1 0 0 0 1 0 0 0 1 40.660420545060582 19.378939836120381 7.7385056329137347 1 rotate no_reflect no_shear #
lump $-1 $-1 $36 $6 #
transform $-1 1 0 0 0 1 0 0 0 1 40.660420545060582 19.378939836120381 7.7385056329137347 1 rotate no_reflect no_shear #
lump $-1 $-1 $37 $7 #
transform $-1 1 0 0 0 1 0 0 0 1 40.660420545060582 19.378939836120381 7.7385056329137347 1 rotate no_reflect no_shear #
lump $-1 $-1 $38 $8 #
transform $-1 1 0 0 0 1 0 0 0 1 40.660420545060582 19.378939836120381 7.7385056329137347 1 rotate no_reflect no_shear #
lump $-1 $-1 $39 $9 #
transform $-1 1 0 0 0 1 0 0 0 1 40.660420545060582 19.378939836120381 7.7385056329137347 1 rotate no_reflect no_shear #
shell $-1 $-1 $-1 $40 $-1 $10 #
shell $-1 $-1 $-1 $41 $-1 $12 #
shell $-1 $-1 $-1 $42 $-1 $14 #
shell $-1 $-1 $-1 $43 $-1 $16 #
shell $-1 $-1 $-1 $44 $-1 $18 #
shell $-1 $-1 $-1 $45 $-1 $20 #
shell $-1 $-1 $-1 $46 $-1 $22 #
shell $-1 $-1 $-1 $47 $-1 $24 #
shell $-1 $-1 $-1 $48 $-1 $26 #
shell $-1 $-1 $-1 $49 $-1 $28 #
face $-1 $50 $51 $30 $-1 $52 forward single #
face $-1 $53 $54 $31 $-1 $55 forward single #
face $-1 $56 $57 $32 $-1 $58 reversed single #
face $-1 $59 $60 $33 $-1 $61 forward single #
face $-1 $62 $63 $34 $-1 $64 reversed single #
face $-1 $65 $66 $35 $-1 $67 forward single #
face $-1 $68 $69 $36 $-1 $70 reversed single #
face $-1 $71 $72 $37 $-1 $73 forward single #
face $-1 $74 $75 $38 $-1 $76 reversed single #
face $-1 $77 $78 $39 $-1 $79 forward single #
face $-1 $80 $81 $30 $-1 $82 reversed single #
loop $-1 $-1 $83 $40 #
plane-surface $-1 0 0 7.7385056329137347 0 0 1 1 0 0 forward_v I I I I #
face $-1 $84 $85 $31 $-1 $86 reversed single #
loop $-1 $-1 $87 $41 #
plane-surface $-1 0 -14.731032806218831 -4.7385056329137347 0 0 1 1 0 0 forward_v I I I I #
face $-1 $88 $89 $32 $-1 $90 reversed single #
loop $-1 $-1 $91 $42 #
plane-surface $-1 -102.95579964578593 2.6273274397652653 53.040930949135834 0 1 0 -0.7660444514056185 0 0.64278759981090561 forward_v I I I I #
face $-1 $92 $93 $33 $-1 $94 forward single #
loop $-1 $95 $96 $43 #
cone-surface $-1 -36.691637628640478 6.0592235069439049 3.3771074029875541 0.7660444514056185 0 -0.64278759981090561 0.96418139971635841 0 1.1490666771084277 1 I I 0 1 1.5 forward I I I I #
face $-1 $97 $98 $34 $-1 $99 reversed single #
loop $-1 $-1 $100 $44 #
plane-surface $-1 14.789917282599383 -2.2206496579699682 116.16372635973156 0 -1 0 -0.52991927123019833 0 -0.84804809178421925 forward_v I I I I #
face $-1 $101 $102 $35 $-1 $103 forward single #
loop $-1 $104 $105 $45 #
cone-surface $-1 37.124112867997297 -5.1966781664824264 4.9143251322728858 -0.52991927123019833 0 -0.84804809178421925 0.84804809178421925 0 -0.52991927123019833 1 I I 0 1 1 forward I I I I #
face $-1 $106 $107 $36 $-1 $108 reversed single #
loop $-1 $-1 $109 $46 #
plane-surface $-1 14.789917282599383 7.6000388795092508 116.16372635973156 0 -1 0 -0.52991927123019833 0 -0.84804809178421925 forward_v I I I I #
face $-1 $110 $111 $37 $-1 $112 forward single #
loop $-1 $113 $114 $47 #
cone-surface $-1 37.124112867997297 4.6240103709967926 4.9143251322728858 -0.52991927123019833 0 -0.84804809178421925 0.84804809178421925 0 -0.52991927123019833 1 I I 0 1 1 forward I I I I #
face $-1 $115 $116 $38 $-1 $117 reversed single #
loop $-1 $-1 $118 $48 #
plane-surface $-1 14.789917282599383 17.42072741698847 116.16372635973156 0 -1 0 -0.52991927123019833 0 -0.84804809178421925 forward_v I I I I #
face $-1 $119 $120 $39 $-1 $121 forward single #
loop $-1 $122 $123 $49 #
cone-surface $-1 37.124112867997297 14.444698908476013 4.9143251322728858 -0.52991927123019833 0 -0.84804809178421925 0.84804809178421925 0 -0.52991927123019833 1 I I 0 1 1 forward I I I I #
face $-1 $124 $125 $30 $-1 $126 reversed single #
loop $-1 $-1 $127 $50 #
plane-surface $-1 0 0 -7.7385056329137347 0 0 1 1 0 0 forward_v I I I I #
coedge $-1 $128 $129 $130 $131 forward $51 $-1 #
face $-1 $132 $133 $31 $-1 $134 reversed single #
loop $-1 $-1 $135 $53 #
plane-surface $-1 0 -10.083125776317281 -6.2385056329137347 0 -1 0 0 0 -1 forward_v I I I I #
coedge $-1 $136 $137 $138 $139 reversed $54 $-1 #
face $-1 $140 $141 $32 $-1 $142 reversed single #
loop $-1 $-1 $143 $56 #
plane-surface $-1 -40.660420545060582 6.0592235069439013 0.76890269021278357 -0.7660444514056185 0 0.64278759981090561 0.64278759981090561 0 0.7660444514056185 forward_v I I I I #
coedge $-1 $144 $145 $146 $147 reversed $57 $-1 #
face $-1 $-1 $148 $33 $-1 $149 forward single #
loop $-1 $150 $151 $59 #
cone-surface $-1 -35.07241692644606 6.0592235069439049 2.0184199445536679 0.7660444514056185 0 -0.64278759981090561 0.48209069985817921 0 0.57453333855421385 1 I I -0.70710678118654757 0.70710678118654757 0.75 forward I I I I #
loop $-1 $-1 $152 $43 #
coedge $-1 $96 $96 $153 $154 reversed $60 $-1 #
face $-1 $155 $156 $34 $-1 $157 reversed single #
loop $-1 $-1 $158 $62 #
plane-surface $-1 -28.303563563704394 -5.1966781664824264 47.19974225096658 0.52991927123019833 0 0.84804809178421925 0.84804809178421925 0 -0.52991927123019833 forward_v I I I I #
coedge $-1 $159 $160 $161 $162 reversed $63 $-1 #
face $-1 $-1 $163 $35 $-1 $164 forward single #
loop $-1 $165 $166 $65 #
cone-surface $-1 36.229248430148836 -5.1966781664824264 3.4822426998653961 -0.52991927123019833 0 -0.84804809178421925 0.42402404589210962 0 -0.26495963561509916 1 I I -0.70710678118654746 0.70710678118654746 0.5 forward I I I I #
loop $-1 $-1 $167 $45 #
coedge $-1 $105 $105 $168 $169 reversed $66 $-1 #
face $-1 $170 $171 $36 $-1 $172 reversed single #
loop $-1 $-1 $173 $68 #
plane-surface $-1 -28.303563563704394 4.6240103709967926 47.19974225096658 0.52991927123019833 0 0.84804809178421925 0.84804809178421925 0 -0.52991927123019833 forward_v I I I I #
coedge $-1 $174 $175 $176 $177 reversed $69 $-1 #
face $-1 $-1 $178 $37 $-1 $179 forward single #
loop $-1 $180 $181 $71 #
cone-surface $-1 36.229248430148836 4.6240103709967926 3.4822426998653961 -0.52991927123019833 0 -0.84804809178421925 0.42402404589210962 0 -0.26495963561509916 1 I I -0.70710678118654746 0.70710678118654746 0.5 forward I I I I #
loop $-1 $-1 $182 $47 #
coedge $-1 $114 $114 $183 $184 reversed $72 $-1 #
face $-1 $185 $186 $38 $-1 $187 reversed single #
loop $-1 $-1 $188 $74 #
plane-surface $-1 -28.303563563704394 14.444698908476013 47.19974225096658 0.52991927123019833 0 0.84804809178421925 0.84804809178421925 0 -0.52991927123019833 forward_v I I I I #
coedge $-1 $189 $190 $191 $192 reversed $75 $-1 #
face $-1 $-1 $193 $39 $-1 $194 forward single #
loop $-1 $195 $196 $77 #
cone-surface $-1 36.229248430148836 14.444698908476013 3.4822426998653961 -0.52991927123019833 0 -0.84804809178421925 0.42402404589210962 0 -0.26495963561509916 1 I I -0.70710678118654746 0.70710678118654746 0.5 forward I I I I #
loop $-1 $-1 $197 $49 #
coedge $-1 $123 $123 $198 $199 reversed $78 $-1 #
face $-1 $200 $201 $30 $-1 $202 reversed single #
loop $-1 $-1 $203 $80 #
plane-surface $-1 0 -19.378939836120381 0 0 1 0 0 0 1 forward_v I I I I #
coedge $-1 $204 $205 $206 $207 forward $81 $-1 #
coedge $-1 $208 $83 $209 $210 forward $51 $-1 #
coedge $-1 $83 $208 $211 $212 forward $51 $-1 #
coedge $-1 $213 $214 $83 $131 reversed $215 $-1 #
edge $-1 $216 -19.378939836120381 $217 19.378939836120381 $130 $218 forward 7 unknown #
face $-1 $219 $220 $31 $-1 $221 reversed single #
loop $-1 $-1 $222 $84 #
plane-surface $-1 0 0 -7.7385056329137347 0 0 1 1 0 0 forward_v I I I I #
coedge $-1 $223 $224 $225 $226 reversed $85 $-1 #
coedge $-1 $227 $87 $224 $228 forward $54 $-1 #
coedge $-1 $87 $227 $229 $230 reversed $54 $-1 #
coedge $-1 $231 $225 $87 $139 forward $220 $-1 #
edge $-1 $232 2.7176093732078659 $233 12.013423433010965 $138 $234 forward 7 unknown #
face $-1 $235 $236 $32 $-1 $237 forward single #
loop $-1 $-1 $238 $88 #
plane-surface $-1 -102.95579964578593 9.4911195741225374 53.040930949135834 0 -1 0 0.7660444514056185 0 -0.64278759981090561 forward_v I I I I #
coedge $-1 $239 $240 $241 $242 reversed $89 $-1 #
coedge $-1 $145 $91 $243 $244 reversed $57 $-1 #
coedge $-1 $91 $144 $239 $245 reversed $57 $-1 #
coedge $-1 $241 $246 $91 $147 forward $236 $-1 #
edge $-1 $247 10.817479277832383 $248 16.665670383392175 $146 $249 forward 7 unknown #
loop $-1 $-1 $153 $92 #
plane-surface $-1 -40.660420545060582 6.0592235069439013 0.76890269021278357 -0.7660444514056185 0 0.64278759981090561 0.64278759981090561 0 0.7660444514056185 forward_v I I I I #
loop $-1 $-1 $250 $59 #
coedge $-1 $151 $151 $152 $251 reversed $93 $-1 #
coedge $-1 $152 $152 $151 $251 forward $95 $-1 #
coedge $-1 $153 $153 $96 $154 forward $148 $-1 #
edge $-1 $252 0 $252 6.2831853071796004 $153 $253 forward 7 unknown #
face $-1 $254 $255 $34 $-1 $256 reversed single #
loop $-1 $-1 $257 $97 #
plane-surface $-1 14.789917282599383 -8.1727066749948847 116.16372635973156 0 1 0 0.52991927123019833 0 0.84804809178421925 forward_v I I I I #
coedge $-1 $258 $259 $260 $261 reversed $98 $-1 #
coedge $-1 $160 $100 $262 $263 reversed $63 $-1 #
coedge $-1 $100 $159 $258 $264 reversed $63 $-1 #
coedge $-1 $260 $265 $100 $162 forward $266 $-1 #
edge $-1 $267 -33.265461903760894 $268 -27.45265615410106 $161 $269 forward 7 unknown #
loop $-1 $-1 $168 $101 #
plane-surface $-1 -28.303563563704394 -5.1966781664824264 47.19974225096658 0.52991927123019833 0 0.84804809178421925 0.84804809178421925 0 -0.52991927123019833 forward_v I I I I #
loop $-1 $-1 $270 $65 #
coedge $-1 $166 $166 $167 $271 reversed $102 $-1 #
coedge $-1 $167 $167 $166 $271 forward $104 $-1 #
coedge $-1 $168 $168 $105 $169 forward $163 $-1 #
edge $-1 $272 0 $272 6.2831853071796004 $168 $273 forward 7 unknown #
face $-1 $274 $275 $36 $-1 $276 reversed single #
loop $-1 $-1 $277 $106 #
plane-surface $-1 14.789917282599383 1.6479818624843343 116.16372635973156 0 1 0 0.52991927123019833 0 0.84804809178421925 forward_v I I I I #
coedge $-1 $278 $279 $280 $281 reversed $107 $-1 #
coedge $-1 $175 $109 $282 $283 reversed $69 $-1 #
coedge $-1 $109 $174 $278 $284 reversed $69 $-1 #
coedge $-1 $280 $285 $109 $177 forward $286 $-1 #
edge $-1 $287 -33.265461903760894 $288 -27.45265615410106 $176 $289 forward 7 unknown #
loop $-1 $-1 $183 $110 #
plane-surface $-1 -28.303563563704394 4.6240103709967926 47.19974225096658 0.52991927123019833 0 0.84804809178421925 0.84804809178421925 0 -0.52991927123019833 forward_v I I I I #
loop $-1 $-1 $290 $71 #
coedge $-1 $181 $181 $182 $291 reversed $111 $-1 #
coedge $-1 $182 $182 $181 $291 forward $113 $-1 #
coedge $-1 $183 $183 $114 $184 forward $178 $-1 #
edge $-1 $292 0 $292 6.2831853071796004 $183 $293 forward 7 unknown #
face $-1 $294 $295 $38 $-1 $296 reversed single #
loop $-1 $-1 $297 $115 #
plane-surface $-1 14.789917282599383 11.468670399963555 116.16372635973156 0 1 0 0.52991927123019833 0 0.84804809178421925 forward_v I I I I #
coedge $-1 $298 $299 $300 $301 reversed $116 $-1 #
coedge $-1 $190 $118 $302 $303 reversed $75 $-1 #
coedge $-1 $118 $189 $298 $304 reversed $75 $-1 #
coedge $-1 $300 $305 $118 $192 forward $306 $-1 #
edge $-1 $307 -33.265461903760894 $308 -27.45265615410106 $191 $309 forward 7 unknown #
loop $-1 $-1 $198 $119 #
plane-surface $-1 -28.303563563704394 14.444698908476013 47.19974225096658 0.52991927123019833 0 0.84804809178421925 0.84804809178421925 0 -0.52991927123019833 forward_v I I I I #
loop $-1 $-1 $310 $77 #
coedge $-1 $196 $196 $197 $311 reversed $120 $-1 #
coedge $-1 $197 $197 $196 $311 forward $122 $-1 #
coedge $-1 $198 $198 $123 $199 forward $193 $-1 #
edge $-1 $312 0 $312 6.2831853071796004 $198 $313 forward 7 unknown #
face $-1 $314 $315 $30 $-1 $316 reversed single #
loop $-1 $-1 $317 $124 #
plane-surface $-1 -40.660420545060582 0 0 1 0 0 0 0 -1 forward_v I I I I #
coedge $-1 $318 $211 $319 $320 forward $125 $-1 #
coedge $-1 $321 $127 $318 $322 forward $81 $-1 #
coedge $-1 $127 $321 $323 $324 forward $81 $-1 #
coedge $-1 $214 $213 $127 $207 reversed $215 $-1 #
edge $-1 $325 -19.378939836120381 $326 19.378939836120381 $206 $327 forward 7 unknown #
coedge $-1 $129 $128 $328 $329 forward $51 $-1 #
coedge $-1 $330 $331 $128 $210 reversed $315 $-1 #
edge $-1 $217 -40.660420545060582 $332 40.660420545060582 $209 $333 forward 7 unknown #
coedge $-1 $203 $334 $129 $212 reversed $125 $-1 #
edge $-1 $335 -40.660420545060582 $216 40.660420545060582 $211 $336 forward 7 unknown #
coedge $-1 $206 $130 $334 $337 forward $215 $-1 #
coedge $-1 $130 $206 $330 $338 reversed $215 $-1 #
loop $-1 $-1 $213 $314 #
vertex $-1 $131 $339 #
vertex $-1 $131 $340 #
straight-curve $-1 40.660420545060582 0 7.7385056329137347 0 1 0 I I #
face $-1 $341 $342 $31 $-1 $343 reversed single #
loop $-1 $-1 $225 $132 #
plane-surface $-1 40.660420545060582 0 0 -1 0 0 0 0 1 forward_v I I I I #
coedge $-1 $344 $345 $223 $346 forward $133 $-1 #
coedge $-1 $347 $135 $222 $346 reversed $85 $-1 #
coedge $-1 $135 $347 $136 $228 reversed $85 $-1 #
coedge $-1 $138 $348 $135 $226 forward $220 $-1 #
edge $-1 $349 -4.6192528164568678 $232 -1.6192528164568674 $225 $350 forward 7 unknown #
coedge $-1 $137 $136 $351 $352 reversed $54 $-1 #
edge $-1 $232 -40.660420545060582 $353 40.660420545060582 $224 $354 forward 7 unknown #
coedge $-1 $355 $356 $137 $230 forward $342 $-1 #
edge $-1 $233 -40.660420545060582 $357 40.660420545060582 $229 $358 forward 7 unknown #
coedge $-1 $348 $138 $356 $359 forward $220 $-1 #
vertex $-1 $139 $360 #
vertex $-1 $359 $361 #
straight-curve $-1 40.660420545060582 -7.3655164031094156 -4.7385056329137347 0 -1 0 I I #
face $-1 $-1 $362 $32 $-1 $363 reversed single #
loop $-1 $-1 $146 $140 #
plane-surface $-1 0 0 7.7385056329137347 0 0 1 1 0 0 forward_v I I I I #
coedge $-1 $364 $365 $366 $367 reversed $141 $-1 #
coedge $-1 $368 $143 $145 $245 forward $89 $-1 #
coedge $-1 $143 $368 $364 $369 forward $89 $-1 #
coedge $-1 $366 $146 $143 $242 forward $236 $-1 #
edge $-1 $248 -0.40228431370668538 $370 6.4615078206505867 $241 $371 forward 7 unknown #
coedge $-1 $372 $373 $144 $244 forward $362 $-1 #
edge $-1 $374 -25.751562784355134 $247 -18.781959841654182 $243 $375 forward 7 unknown #
edge $-1 $248 -9.0981703867346031 $374 0 $145 $376 forward 7 unknown #
coedge $-1 $146 $366 $372 $377 forward $236 $-1 #
vertex $-1 $244 $378 #
vertex $-1 $147 $379 #
straight-curve $-1 -51.477899822892965 2.6273274397652653 7.7385056329137356 1 0 0 I I #
coedge $-1 $250 $250 $-1 $380 reversed $150 $-1 #
edge $-1 $381 0 $381 6.2831853071796004 $151 $382 forward 7 unknown #
vertex $-1 $154 $383 #
ellipse-curve $-1 -37.736324992280686 6.0592235069439049 4.2537041615632605 -0.7660444514056185 0 0.64278759981090561 0.96418139971635841 0 1.1490666771084277 1 I I #
face $-1 $-1 $266 $34 $-1 $384 forward single #
loop $-1 $-1 $385 $155 #
plane-surface $-1 40.660420545060582 0 0 -1 0 0 0 0 1 forward_v I I I I #
coedge $-1 $386 $387 $388 $389 reversed $156 $-1 #
coedge $-1 $390 $158 $160 $264 forward $98 $-1 #
coedge $-1 $158 $390 $386 $391 forward $98 $-1 #
coedge $-1 $388 $161 $158 $261 forward $266 $-1 #
edge $-1 $268 -0.37768942527124505 $392 5.5743675917536715 $260 $393 forward 7 unknown #
coedge $-1 $394 $395 $159 $263 forward $255 $-1 #
edge $-1 $396 -53.975601775202975 $267 -50.343357546952042 $262 $397 forward 7 unknown #
edge $-1 $268 74.466506051844974 $396 81.320841090121164 $160 $398 forward 7 unknown #
coedge $-1 $161 $388 $394 $399 forward $266 $-1 #
loop $-1 $-1 $388 $254 #
vertex $-1 $263 $400 #
vertex $-1 $162 $401 #
straight-curve $-1 7.3949586412996915 -2.2206496579699682 7.7385056329137356 -1 0 0 I I #
coedge $-1 $270 $270 $-1 $402 reversed $165 $-1 #
edge $-1 $403 0 $403 6.2831853071796004 $166 $404 forward 7 unknown #
vertex $-1 $169 $405 #
ellipse-curve $-1 37.754017670230667 -5.1966781664824264 5.9223835187882727 0.52991927123019833 0 0.84804809178421925 0.84804809178421925 0 -0.52991927123019833 1 I I #
face $-1 $-1 $286 $36 $-1 $406 forward single #
loop $-1 $-1 $407 $170 #
plane-surface $-1 40.660420545060582 0 0 -1 0 0 0 0 1 forward_v I I I I #
coedge $-1 $408 $409 $410 $411 reversed $171 $-1 #
coedge $-1 $412 $173 $175 $284 forward $107 $-1 #
coedge $-1 $173 $412 $408 $413 forward $107 $-1 #
coedge $-1 $410 $176 $173 $281 forward $286 $-1 #
edge $-1 $288 -5.2880336940108545 $414 0.66402332301406197 $280 $415 forward 7 unknown #
coedge $-1 $416 $417 $174 $283 forward $275 $-1 #
edge $-1 $418 -53.975601775202975 $287 -50.343357546952042 $282 $419 forward 7 unknown #
edge $-1 $288 74.466506051844974 $418 81.320841090121164 $175 $420 forward 7 unknown #
coedge $-1 $176 $410 $416 $421 forward $286 $-1 #
loop $-1 $-1 $410 $274 #
vertex $-1 $283 $422 #
vertex $-1 $177 $423 #
straight-curve $-1 7.3949586412996915 7.6000388795092508 7.7385056329137356 -1 0 0 I I #
coedge $-1 $290 $290 $-1 $424 reversed $180 $-1 #
edge $-1 $425 0 $425 6.2831853071796004 $181 $426 forward 7 unknown #
vertex $-1 $184 $427 #
ellipse-curve $-1 37.754017670230667 4.6240103709967926 5.9223835187882727 0.52991927123019833 0 0.84804809178421925 0.84804809178421925 0 -0.52991927123019833 1 I I #
face $-1 $-1 $306 $38 $-1 $428 forward single #
loop $-1 $-1 $429 $185 #
plane-surface $-1 40.660420545060582 0 0 -1 0 0 0 0 1 forward_v I I I I #
coedge $-1 $430 $431 $432 $433 reversed $186 $-1 #
coedge $-1 $434 $188 $190 $304 forward $116 $-1 #
coedge $-1 $188 $434 $430 $435 forward $116 $-1 #
coedge $-1 $432 $191 $188 $301 forward $306 $-1 #
edge $-1 $308 -10.198377962750463 $436 -4.2463209457255484 $300 $437 forward 7 unknown #
coedge $-1 $438 $439 $189 $303 forward $295 $-1 #
edge $-1 $440 -53.975601775202975 $307 -50.343357546952042 $302 $441 forward 7 unknown #
edge $-1 $308 74.466506051844974 $440 81.320841090121164 $190 $442 forward 7 unknown #
coedge $-1 $191 $432 $438 $443 forward $306 $-1 #
loop $-1 $-1 $432 $294 #
vertex $-1 $303 $444 #
vertex $-1 $192 $445 #
straight-curve $-1 7.3949586412996915 17.42072741698847 7.7385056329137356 -1 0 0 I I #
coedge $-1 $310 $310 $-1 $446 reversed $195 $-1 #
edge $-1 $447 0 $447 6.2831853071796004 $196 $448 forward 7 unknown #
vertex $-1 $199 $449 #
ellipse-curve $-1 37.754017670230667 14.444698908476013 5.9223835187882727 0.52991927123019833 0 0.84804809178421925 0.84804809178421925 0 -0.52991927123019833 1 I I #
face $-1 $-1 $215 $30 $-1 $450 reversed single #
loop $-1 $-1 $330 $200 #
plane-surface $-1 0 19.378939836120381 0 0 -1 0 0 0 -1 forward_v I I I I #
coedge $-1 $451 $328 $331 $452 forward $201 $-1 #
coedge $-1 $334 $203 $204 $322 reversed $125 $-1 #
coedge $-1 $328 $451 $203 $320 reversed $201 $-1 #
edge $-1 $335 -7.7385056329137347 $453 7.7385056329137347 $319 $454 forward 7 unknown #
coedge $-1 $205 $204 $451 $455 forward $81 $-1 #
edge $-1 $326 -40.660420545060582 $453 40.660420545060582 $318 $456 forward 7 unknown #
coedge $-1 $331 $330 $205 $324 reversed $315 $-1 #
edge $-1 $457 -40.660420545060582 $325 40.660420545060582 $323 $458 forward 7 unknown #
vertex $-1 $207 $459 #
vertex $-1 $337 $460 #
straight-curve $-1 40.660420545060582 0 -7.7385056329137347 0 -1 0 I I #
coedge $-1 $317 $319 $208 $329 reversed $201 $-1 #
edge $-1 $332 -19.378939836120381 $335 19.378939836120381 $328 $461 forward 7 unknown #
coedge $-1 $323 $209 $214 $338 forward $315 $-1 #
coedge $-1 $209 $323 $317 $452 reversed $315 $-1 #
vertex $-1 $210 $462 #
straight-curve $-1 0 19.378939836120381 7.7385056329137347 -1 0 0 I I #
coedge $-1 $211 $318 $213 $337 reversed $125 $-1 #
vertex $-1 $329 $463 #
straight-curve $-1 0 -19.378939836120381 7.7385056329137347 1 0 0 I I #
edge $-1 $216 -7.7385056329137347 $326 7.7385056329137347 $213 $464 forward 7 unknown #
edge $-1 $217 -7.7385056329137347 $325 7.7385056329137347 $214 $465 forward 7 unknown #
point $-1 40.660420545060582 -19.378939836120381 7.7385056329137347 #
point $-1 40.660420545060582 19.378939836120381 7.7385056329137347 #
face $-1 $-1 $466 $31 $-1 $467 reversed single #
loop $-1 $-1 $229 $219 #
plane-surface $-1 0 -19.378939836120381 0 0 1 0 0 0 1 forward_v I I I I #
coedge $-1 $468 $222 $348 $469 forward $133 $-1 #
coedge $-1 $222 $468 $470 $471 forward $133 $-1 #
edge $-1 $472 -40.660420545060582 $349 40.660420545060582 $222 $473 forward 7 unknown #
coedge $-1 $224 $223 $474 $475 reversed $85 $-1 #
coedge $-1 $225 $231 $344 $469 reversed $220 $-1 #
vertex $-1 $469 $476 #
straight-curve $-1 40.660420545060582 -10.083125776317281 -3.1192528164568674 0 0 1 I I #
coedge $-1 $474 $477 $227 $352 forward $466 $-1 #
edge $-1 $357 -12.013423433010965 $353 -2.7176093732078659 $351 $478 forward 7 unknown #
vertex $-1 $352 $479 #
straight-curve $-1 0 -10.083125776317281 -4.7385056329137347 -1 0 0 I I #
coedge $-1 $480 $229 $477 $481 forward $342 $-1 #
coedge $-1 $229 $480 $231 $359 reversed $342 $-1 #
vertex $-1 $481 $482 #
straight-curve $-1 0 -19.378939836120381 -4.7385056329137347 -1 0 0 I I #
edge $-1 $233 4.7385056329137347 $483 7.7385056329137347 $231 $484 forward 7 unknown #
point $-1 40.660420545060582 -10.083125776317281 -4.7385056329137347 #
point $-1 40.660420545060582 -19.378939836120381 -4.7385056329137347 #
loop $-1 $-1 $243 $235 #
plane-surface $-1 -40.660420545060582 0 0 1 0 0 0 0 -1 forward_v I I I I #
coedge $-1 $365 $238 $240 $369 reversed $141 $-1 #
coedge $-1 $238 $364 $485 $486 reversed $141 $-1 #
coedge $-1 $246 $241 $238 $367 forward $236 $-1 #
edge $-1 $370 -16.665670383392175 $487 -10.817479277832383 $366 $488 forward 7 unknown #
coedge $-1 $240 $239 $373 $489 reversed $89 $-1 #
edge $-1 $490 0 $370 9.0981703867346031 $364 $491 forward 7 unknown #
vertex $-1 $242 $492 #
straight-curve $-1 -34.81222943950079 3.0296117534719507 7.7385056329137347 0 1 0 I I #
coedge $-1 $485 $243 $246 $377 reversed $362 $-1 #
coedge $-1 $243 $485 $368 $489 forward $362 $-1 #
vertex $-1 $244 $493 #
straight-curve $-1 -40.660420545060582 2.6273274397652653 26.520465474567917 0 0 1 I I #
straight-curve $-1 -40.660420545060582 2.6273274397652653 0.76890269021278357 -0.64278759981090561 0 -0.7660444514056185 I I #
edge $-1 $487 -9.4911195741225374 $247 -2.6273274397652653 $372 $494 forward 7 unknown #
point $-1 -40.660420545060582 2.6273274397652653 7.7385056329137347 #
point $-1 -34.81222943950079 2.6273274397652653 7.7385056329137347 #
edge $-1 $495 1 $495 0 $250 $-1 forward 7 unknown #
vertex $-1 $251 $496 #
ellipse-curve $-1 -35.646950265000271 6.0592235069439049 2.5005106444118472 -0.7660444514056185 0 0.64278759981090561 0.96418139971635841 0 1.1490666771084277 1 I I #
point $-1 -36.772143592564326 6.0592235069439049 5.4027708386716879 #
plane-surface $-1 0 0 7.7385056329137347 0 0 1 1 0 0 forward_v I I I I #
coedge $-1 $395 $394 $387 $497 forward $255 $-1 #
coedge $-1 $387 $257 $259 $391 reversed $156 $-1 #
coedge $-1 $257 $386 $385 $497 reversed $156 $-1 #
coedge $-1 $265 $260 $257 $389 forward $266 $-1 #
edge $-1 $392 27.45265615410106 $498 33.265461903760894 $388 $499 forward 7 unknown #
coedge $-1 $259 $258 $395 $500 reversed $98 $-1 #
edge $-1 $501 -81.320841090121164 $392 -74.466506051844974 $386 $502 forward 7 unknown #
vertex $-1 $261 $503 #
straight-curve $-1 34.847614795400766 -2.5983390832412132 7.7385056329137356 0 -1 0 I I #
coedge $-1 $385 $262 $265 $399 reversed $255 $-1 #
coedge $-1 $262 $385 $390 $500 forward $255 $-1 #
vertex $-1 $263 $504 #
straight-curve $-1 40.660420545060582 -2.2206496579699682 58.081863179865778 0 0 1 I I #
straight-curve $-1 -28.303563563704394 -2.2206496579699682 47.19974225096658 0.84804809178421925 0 -0.52991927123019833 I I #
edge $-1 $498 -8.1727066749948847 $267 -2.2206496579699682 $394 $505 forward 7 unknown #
point $-1 40.660420545060582 -2.2206496579699682 7.7385056329137347 #
point $-1 34.847614795400752 -2.2206496579699682 7.7385056329137356 #
edge $-1 $506 1 $506 0 $270 $-1 forward 7 unknown #
vertex $-1 $271 $507 #
ellipse-curve $-1 36.494208065763935 -5.1966781664824264 3.906266745757506 0.52991927123019833 0 0.84804809178421925 0.84804809178421925 0 -0.52991927123019833 1 I I #
point $-1 38.602065762014881 -5.1966781664824264 5.3924642475580669 #
plane-surface $-1 0 0 7.7385056329137347 0 0 1 1 0 0 forward_v I I I I #
coedge $-1 $417 $416 $409 $508 forward $275 $-1 #
coedge $-1 $409 $277 $279 $413 reversed $171 $-1 #
coedge $-1 $277 $408 $407 $508 reversed $171 $-1 #
coedge $-1 $285 $280 $277 $411 forward $286 $-1 #
edge $-1 $414 27.45265615410106 $509 33.265461903760894 $410 $510 forward 7 unknown #
coedge $-1 $279 $278 $417 $511 reversed $107 $-1 #
edge $-1 $512 -81.320841090121164 $414 -74.466506051844974 $408 $513 forward 7 unknown #
vertex $-1 $281 $514 #
straight-curve $-1 34.847614795400766 2.3120051854983963 7.7385056329137356 0 -1 0 I I #
coedge $-1 $407 $282 $285 $421 reversed $275 $-1 #
coedge $-1 $282 $407 $412 $511 forward $275 $-1 #
vertex $-1 $283 $515 #
straight-curve $-1 40.660420545060582 7.6000388795092508 58.081863179865778 0 0 1 I I #
straight-curve $-1 -28.303563563704394 7.6000388795092508 47.19974225096658 0.84804809178421925 0 -0.52991927123019833 I I #
edge $-1 $509 1.6479818624843343 $287 7.6000388795092508 $416 $516 forward 7 unknown #
point $-1 40.660420545060582 7.6000388795092508 7.7385056329137347 #
point $-1 34.847614795400752 7.6000388795092508 7.7385056329137356 #
edge $-1 $517 1 $517 0 $290 $-1 forward 7 unknown #
vertex $-1 $291 $518 #
ellipse-curve $-1 36.494208065763935 4.6240103709967926 3.906266745757506 0.52991927123019833 0 0.84804809178421925 0.84804809178421925 0 -0.52991927123019833 1 I I #
point $-1 38.602065762014881 4.6240103709967926 5.3924642475580669 #
plane-surface $-1 0 0 7.7385056329137347 0 0 1 1 0 0 forward_v I I I I #
coedge $-1 $439 $438 $431 $519 forward $295 $-1 #
coedge $-1 $431 $297 $299 $435 reversed $186 $-1 #
coedge $-1 $297 $430 $429 $519 reversed $186 $-1 #
coedge $-1 $305 $300 $297 $433 forward $306 $-1 #
edge $-1 $436 27.45265615410106 $520 33.265461903760894 $432 $521 forward 7 unknown #
coedge $-1 $299 $298 $439 $522 reversed $116 $-1 #
edge $-1 $523 -81.320841090121164 $436 -74.466506051844974 $430 $524 forward 7 unknown #
vertex $-1 $301 $525 #
straight-curve $-1 34.847614795400766 7.2223494542380067 7.7385056329137356 0 -1 0 I I #
coedge $-1 $429 $302 $305 $443 reversed $295 $-1 #
coedge $-1 $302 $429 $434 $522 forward $295 $-1 #
vertex $-1 $303 $526 #
straight-curve $-1 40.660420545060582 17.42072741698847 58.081863179865778 0 0 1 I I #
straight-curve $-1 -28.303563563704394 17.42072741698847 47.19974225096658 0.84804809178421925 0 -0.52991927123019833 I I #
edge $-1 $520 11.468670399963555 $307 17.42072741698847 $438 $527 forward 7 unknown #
point $-1 40.660420545060582 17.42072741698847 7.7385056329137347 #
point $-1 34.847614795400752 17.42072741698847 7.7385056329137356 #
edge $-1 $528 1 $528 0 $310 $-1 forward 7 unknown #
vertex $-1 $311 $529 #
ellipse-curve $-1 36.494208065763935 14.444698908476013 3.906266745757506 0.52991927123019833 0 0.84804809178421925 0.84804809178421925 0 -0.52991927123019833 1 I I #
point $-1 38.602065762014881 14.444698908476013 5.3924642475580669 #
plane-surface $-1 40.660420545060582 0 0 -1 0 0 0 0 1 forward_v I I I I #
coedge $-1 $319 $317 $321 $455 reversed $201 $-1 #
edge $-1 $332 -7.7385056329137347 $457 7.7385056329137347 $331 $530 forward 7 unknown #
vertex $-1 $455 $531 #
straight-curve $-1 -40.660420545060582 -19.378939836120381 0 0 0 -1 I I #
edge $-1 $453 -19.378939836120381 $457 19.378939836120381 $451 $532 forward 7 unknown #
straight-curve $-1 0 -19.378939836120381 -7.7385056329137347 -1 0 0 I I #
vertex $-1 $324 $533 #
straight-curve $-1 0 19.378939836120381 -7.7385056329137347 1 0 0 I I #
point $-1 40.660420545060582 19.378939836120381 -7.7385056329137347 #
point $-1 40.660420545060582 -19.378939836120381 -7.7385056329137347 #
straight-curve $-1 -40.660420545060582 0 7.7385056329137347 0 -1 0 I I #
point $-1 -40.660420545060582 19.378939836120381 7.7385056329137347 #
point $-1 -40.660420545060582 -19.378939836120381 7.7385056329137347 #
straight-curve $-1 40.660420545060582 -19.378939836120381 0 0 0 -1 I I #
straight-curve $-1 40.660420545060582 19.378939836120381 0 0 0 -1 I I #
loop $-1 $-1 $474 $341 #
plane-surface $-1 -40.660420545060582 0 0 1 0 0 0 0 -1 forward_v I I I I #
coedge $-1 $345 $344 $480 $534 forward $133 $-1 #
edge $-1 $349 10.083125776317281 $483 19.378939836120381 $348 $535 forward 7 unknown #
coedge $-1 $477 $474 $345 $471 reversed $466 $-1 #
edge $-1 $536 -19.378939836120381 $472 -10.083125776317281 $470 $537 forward 7 unknown #
vertex $-1 $475 $538 #
straight-curve $-1 0 -10.083125776317281 -7.7385056329137347 1 0 0 I I #
coedge $-1 $470 $351 $347 $475 forward $466 $-1 #
edge $-1 $353 1.6192528164568674 $472 4.6192528164568678 $474 $539 forward 7 unknown #
point $-1 40.660420545060582 -10.083125776317281 -7.7385056329137347 #
coedge $-1 $351 $470 $355 $481 reversed $466 $-1 #
straight-curve $-1 -40.660420545060582 -7.3655164031094156 -4.7385056329137347 0 1 0 I I #
point $-1 -40.660420545060582 -10.083125776317281 -4.7385056329137347 #
coedge $-1 $356 $355 $468 $534 reversed $342 $-1 #
edge $-1 $357 4.7385056329137347 $536 7.7385056329137347 $477 $540 forward 7 unknown #
point $-1 -40.660420545060582 -19.378939836120381 -4.7385056329137347 #
vertex $-1 $359 $541 #
straight-curve $-1 40.660420545060582 -19.378939836120381 0 0 0 -1 I I #
coedge $-1 $373 $372 $365 $486 forward $362 $-1 #
edge $-1 $487 18.781959841654182 $490 25.751562784355134 $485 $542 forward 7 unknown #
vertex $-1 $377 $543 #
straight-curve $-1 -51.477899822892965 9.4911195741225374 7.7385056329137356 -1 0 0 I I #
edge $-1 $490 -6.4615078206505867 $374 0.40228431370668538 $373 $544 forward 7 unknown #
vertex $-1 $489 $545 #
straight-curve $-1 -40.660420545060582 9.4911195741225374 0.76890269021278357 0.64278759981090561 0 0.7660444514056185 I I #
point $-1 -34.81222943950079 9.4911195741225374 7.7385056329137347 #
point $-1 -40.660420545060582 2.6273274397652653 0.76890269021278357 #
straight-curve $-1 -40.660420545060582 0 7.7385056329137347 0 -1 0 I I #
vertex $-1 $380 $546 #
point $-1 -34.682768865283919 6.0592235069439049 3.6495773215202747 #
edge $-1 $498 50.343357546952042 $501 53.975601775202975 $385 $547 forward 7 unknown #
vertex $-1 $399 $548 #
straight-curve $-1 7.3949586412996915 -8.1727066749948847 7.7385056329137356 1 0 0 I I #
edge $-1 $501 -5.5743675917536715 $396 0.37768942527124505 $395 $549 forward 7 unknown #
vertex $-1 $500 $550 #
straight-curve $-1 -28.303563563704394 -8.1727066749948847 47.19974225096658 -0.84804809178421925 0 0.52991927123019833 I I #
point $-1 34.847614795400752 -8.1727066749948847 7.7385056329137356 #
point $-1 40.660420545060582 -2.2206496579699682 4.1062614046628028 #
straight-curve $-1 40.660420545060582 0 7.7385056329137347 0 1 0 I I #
vertex $-1 $402 $551 #
point $-1 37.342256157548157 -5.1966781664824264 3.3763474745273072 #
edge $-1 $509 50.343357546952042 $512 53.975601775202975 $407 $552 forward 7 unknown #
vertex $-1 $421 $553 #
straight-curve $-1 7.3949586412996915 1.6479818624843343 7.7385056329137356 1 0 0 I I #
edge $-1 $512 -0.66402332301406197 $418 5.2880336940108545 $417 $554 forward 7 unknown #
vertex $-1 $511 $555 #
straight-curve $-1 -28.303563563704394 1.6479818624843343 47.19974225096658 -0.84804809178421925 0 0.52991927123019833 I I #
point $-1 34.847614795400752 1.6479818624843343 7.7385056329137356 #
point $-1 40.660420545060582 7.6000388795092508 4.1062614046628028 #
straight-curve $-1 40.660420545060582 0 7.7385056329137347 0 1 0 I I #
vertex $-1 $424 $556 #
point $-1 37.342256157548157 4.6240103709967926 3.3763474745273072 #
edge $-1 $520 50.343357546952042 $523 53.975601775202975 $429 $557 forward 7 unknown #
vertex $-1 $443 $558 #
straight-curve $-1 7.3949586412996915 11.468670399963555 7.7385056329137356 1 0 0 I I #
edge $-1 $523 4.2463209457255484 $440 10.198377962750463 $439 $559 forward 7 unknown #
vertex $-1 $522 $560 #
straight-curve $-1 -28.303563563704394 11.468670399963555 47.19974225096658 -0.84804809178421925 0 0.52991927123019833 I I #
point $-1 34.847614795400752 11.468670399963555 7.7385056329137356 #
point $-1 40.660420545060582 17.42072741698847 4.1062614046628028 #
straight-curve $-1 40.660420545060582 0 7.7385056329137347 0 1 0 I I #
vertex $-1 $446 $561 #
point $-1 37.342256157548157 14.444698908476013 3.3763474745273072 #
straight-curve $-1 -40.660420545060582 19.378939836120381 0 0 0 -1 I I #
point $-1 -40.660420545060582 -19.378939836120381 -7.7385056329137347 #
straight-curve $-1 -40.660420545060582 0 -7.7385056329137347 0 1 0 I I #
point $-1 -40.660420545060582 19.378939836120381 -7.7385056329137347 #
edge $-1 $483 -40.660420545060582 $536 40.660420545060582 $480 $562 forward 7 unknown #
straight-curve $-1 40.660420545060582 0 -7.7385056329137347 0 -1 0 I I #
vertex $-1 $471 $563 #
straight-curve $-1 -40.660420545060582 0 -7.7385056329137347 0 1 0 I I #
point $-1 -40.660420545060582 -10.083125776317281 -7.7385056329137347 #
straight-curve $-1 -40.660420545060582 -10.083125776317281 -3.1192528164568674 0 0 -1 I I #
straight-curve $-1 -40.660420545060582 -19.378939836120381 0 0 0 -1 I I #
point $-1 40.660420545060582 -19.378939836120381 -7.7385056329137347 #
straight-curve $-1 -40.660420545060582 9.4911195741225374 26.520465474567917 0 0 -1 I I #
point $-1 -40.660420545060582 9.4911195741225374 7.7385056329137347 #
straight-curve $-1 -40.660420545060582 3.0296117534719507 0.76890269021278623 0 -1 0 I I #
point $-1 -40.660420545060582 9.4911195741225374 0.76890269021278357 #
point $-1 -34.497883587891849 6.0592235069439049 1.5363292446954886 #
straight-curve $-1 40.660420545060582 -8.1727066749948847 58.081863179865778 0 0 -1 I I #
point $-1 40.660420545060582 -8.1727066749948847 7.7385056329137347 #
straight-curve $-1 40.660420545060589 -2.5983390832412132 4.1062614046628028 0 1 0 I I #
point $-1 40.660420545060582 -8.1727066749948847 4.1062614046628028 #
point $-1 35.964288794533736 -5.1966781664824264 3.0582186539732863 #
straight-curve $-1 40.660420545060582 1.6479818624843343 58.081863179865778 0 0 -1 I I #
point $-1 40.660420545060582 1.6479818624843343 7.7385056329137347 #
straight-curve $-1 40.660420545060589 2.3120051854983963 4.1062614046628028 0 1 0 I I #
point $-1 40.660420545060582 1.6479818624843343 4.1062614046628028 #
point $-1 35.964288794533736 4.6240103709967926 3.0582186539732863 #
straight-curve $-1 40.660420545060582 11.468670399963555 58.081863179865778 0 0 -1 I I #
point $-1 40.660420545060582 11.468670399963555 7.7385056329137347 #
straight-curve $-1 40.660420545060589 7.2223494542380067 4.1062614046628028 0 1 0 I I #
point $-1 40.660420545060582 11.468670399963555 4.1062614046628028 #
point $-1 35.964288794533736 14.444698908476013 3.0582186539732863 #
straight-curve $-1 0 -19.378939836120381 -7.7385056329137347 -1 0 0 I I #
point $-1 -40.660420545060582 -19.378939836120381 -7.7385056329137347 #
End-of-ACIS-data 