500 0 11 0           
7 Unknown 11 ACIS 5.0 NT 24 Fri Mar 26 00:07:09 1999 
-1 9.9999999999999995e-007 1e-010 
body $-1 $11 $-1 $12 #
body $-1 $13 $-1 $14 #
body $-1 $15 $-1 $16 #
body $-1 $17 $-1 $18 #
body $-1 $19 $-1 $20 #
body $-1 $21 $-1 $22 #
body $-1 $23 $-1 $24 #
body $-1 $25 $-1 $26 #
body $-1 $27 $-1 $28 #
body $-1 $29 $-1 $30 #
body $-1 $31 $-1 $32 #
lump $-1 $-1 $33 $0 #
transform $-1 1 0 0 0 1 0 0 0 1 60.69521164586321 28.358576669657641 6.2816060465114942 1 rotate no_reflect no_shear #
lump $-1 $-1 $34 $1 #
transform $-1 1 0 0 0 1 0 0 0 1 60.69521164586321 28.358576669657641 6.2816060465114942 1 rotate no_reflect no_shear #
lump $-1 $-1 $35 $2 #
transform $-1 1 0 0 0 1 0 0 0 1 60.69521164586321 28.358576669657641 6.2816060465114942 1 rotate no_reflect no_shear #
lump $-1 $-1 $36 $3 #
transform $-1 1 0 0 0 1 0 0 0 1 60.69521164586321 28.358576669657641 6.2816060465114942 1 rotate no_reflect no_shear #
lump $-1 $-1 $37 $4 #
transform $-1 1 0 0 0 1 0 0 0 1 60.69521164586321 28.358576669657641 6.2816060465114942 1 rotate no_reflect no_shear #
lump $-1 $-1 $38 $5 #
transform $-1 1 0 0 0 1 0 0 0 1 60.69521164586321 28.358576669657641 6.2816060465114942 1 rotate no_reflect no_shear #
lump $-1 $-1 $39 $6 #
transform $-1 1 0 0 0 1 0 0 0 1 60.69521164586321 28.358576669657641 6.2816060465114942 1 rotate no_reflect no_shear #
lump $-1 $-1 $40 $7 #
transform $-1 1 0 0 0 1 0 0 0 1 60.69521164586321 28.358576669657641 6.2816060465114942 1 rotate no_reflect no_shear #
lump $-1 $-1 $41 $8 #
transform $-1 1 0 0 0 1 0 0 0 1 60.69521164586321 28.358576669657641 6.2816060465114942 1 rotate no_reflect no_shear #
lump $-1 $-1 $42 $9 #
transform $-1 1 0 0 0 1 0 0 0 1 60.69521164586321 28.358576669657641 6.2816060465114942 1 rotate no_reflect no_shear #
lump $-1 $-1 $43 $10 #
transform $-1 1 0 0 0 1 0 0 0 1 60.69521164586321 28.358576669657641 6.2816060465114942 1 rotate no_reflect no_shear #
shell $-1 $-1 $-1 $44 $-1 $11 #
shell $-1 $-1 $-1 $45 $-1 $13 #
shell $-1 $-1 $-1 $46 $-1 $15 #
shell $-1 $-1 $-1 $47 $-1 $17 #
shell $-1 $-1 $-1 $48 $-1 $19 #
shell $-1 $-1 $-1 $49 $-1 $21 #
shell $-1 $-1 $-1 $50 $-1 $23 #
shell $-1 $-1 $-1 $51 $-1 $25 #
shell $-1 $-1 $-1 $52 $-1 $27 #
shell $-1 $-1 $-1 $53 $-1 $29 #
shell $-1 $-1 $-1 $54 $-1 $31 #
face $-1 $55 $56 $33 $-1 $57 forward single #
face $-1 $58 $59 $34 $-1 $60 forward single #
face $-1 $61 $62 $35 $-1 $63 forward single #
face $-1 $64 $65 $36 $-1 $66 reversed single #
face $-1 $67 $68 $37 $-1 $69 forward single #
face $-1 $70 $71 $38 $-1 $72 forward single #
face $-1 $73 $74 $39 $-1 $75 reversed single #
face $-1 $76 $77 $40 $-1 $78 forward single #
face $-1 $79 $80 $41 $-1 $81 forward single #
face $-1 $82 $83 $42 $-1 $84 reversed single #
face $-1 $85 $86 $43 $-1 $87 forward single #
face $-1 $88 $89 $33 $-1 $90 reversed single #
loop $-1 $-1 $91 $44 #
plane-surface $-1 0 0 6.2816060465114942 0 0 1 1 0 0 forward_v I I I I #
face $-1 $92 $93 $34 $-1 $94 reversed single #
loop $-1 $-1 $95 $45 #
plane-surface $-1 0 -26.208023300051426 -3.2816060465114942 0 0 1 1 0 0 forward_v I I I I #
face $-1 $96 $97 $35 $-1 $98 reversed single #
loop $-1 $-1 $99 $46 #
plane-surface $-1 0 28.358576669657641 0 0 -1 0 0 0 -1 forward_v I I I I #
face $-1 $100 $101 $36 $-1 $102 reversed single #
loop $-1 $-1 $103 $47 #
plane-surface $-1 -162.50178786271903 -8.6370080298119856 66.824523805949767 0 1 0 -0.83867057594974714 0 0.54463902268945019 forward_v I I I I #
face $-1 $104 $105 $37 $-1 $106 forward single #
loop $-1 $107 $108 $48 #
cone-surface $-1 -58.307403875832691 -6.708181490641298 3.1201624090201929 0.83867057594974714 0 -0.54463902268945019 0.2723195113447251 0 0.41933528797487357 1 I I 0 1 0.5 forward I I I I #
face $-1 $109 $110 $38 $-1 $111 forward single #
loop $-1 $112 $113 $49 #
cone-surface $-1 -58.307403875832691 -3.8149416818852693 3.1201624090201929 0.83867057594974714 0 -0.54463902268945019 0.2723195113447251 0 0.41933528797487357 1 I I 0 1 0.5 forward I I I I #
face $-1 $114 $115 $39 $-1 $116 reversed single #
loop $-1 $-1 $117 $50 #
plane-surface $-1 -162.50178786271903 13.534346757918636 66.824523805949767 0 1 0 -0.83867057594974714 0 0.54463902268945019 forward_v I I I I #
face $-1 $118 $119 $40 $-1 $120 forward single #
loop $-1 $121 $122 $51 #
cone-surface $-1 -58.307403875832691 15.463173297089323 3.1201624090201929 0.83867057594974714 0 -0.54463902268945019 0.2723195113447251 0 0.41933528797487357 1 I I 0 1 0.5 forward I I I I #
face $-1 $123 $124 $41 $-1 $125 forward single #
loop $-1 $126 $127 $52 #
cone-surface $-1 -58.307403875832691 18.356413105845352 3.1201624090201929 0.83867057594974714 0 -0.54463902268945019 0.2723195113447251 0 0.41933528797487357 1 I I 0 1 0.5 forward I I I I #
face $-1 $128 $129 $42 $-1 $130 reversed single #
loop $-1 $-1 $131 $53 #
plane-surface $-1 72.670445981511548 20.285239645016034 172.12540154643654 0 -1 0 -0.75470958851134928 0 -0.65605901945558964 forward_v I I I I #
face $-1 $132 $133 $43 $-1 $134 forward single #
loop $-1 $135 $136 $54 #
cone-surface $-1 56.547937044935622 17.232642097546243 2.0154936255215175 -0.75470958851134928 0 -0.65605901945558964 0.98408852918338452 0 -1.132064382767024 1 I I 0 1 1.5 forward I I I I #
face $-1 $137 $138 $33 $-1 $139 reversed single #
loop $-1 $-1 $140 $55 #
plane-surface $-1 0 0 -6.2816060465114942 0 0 1 1 0 0 forward_v I I I I #
coedge $-1 $141 $142 $143 $144 forward $56 $-1 #
face $-1 $145 $146 $34 $-1 $147 reversed single #
loop $-1 $-1 $148 $58 #
plane-surface $-1 0 -24.057469930445212 -4.7816060465114942 0 -1 0 0 0 -1 forward_v I I I I #
coedge $-1 $149 $150 $151 $152 reversed $59 $-1 #
face $-1 $153 $154 $35 $-1 $155 reversed single #
loop $-1 $-1 $156 $61 #
plane-surface $-1 0 0 -6.2816060465114942 0 0 1 1 0 0 forward_v I I I I #
coedge $-1 $157 $158 $159 $160 forward $62 $-1 #
face $-1 $161 $162 $36 $-1 $163 reversed single #
loop $-1 $-1 $164 $64 #
plane-surface $-1 -60.695211645863225 -5.2615615862632872 0.71056230048522195 -0.83867057594974714 0 0.54463902268945019 0.54463902268945019 0 0.83867057594974714 forward_v I I I I #
coedge $-1 $165 $166 $167 $168 reversed $65 $-1 #
face $-1 $-1 $169 $37 $-1 $170 forward single #
loop $-1 $171 $172 $67 #
cone-surface $-1 -57.518867458964998 -6.708181490641298 2.6080808888696678 0.83867057594974714 0 -0.54463902268945019 0.13615975567236255 0 0.20966764398743679 1 I I -0.70710678118654746 0.70710678118654746 0.25 forward I I I I #
loop $-1 $-1 $173 $48 #
coedge $-1 $108 $108 $174 $175 reversed $68 $-1 #
face $-1 $-1 $176 $38 $-1 $177 forward single #
loop $-1 $178 $179 $70 #
cone-surface $-1 -57.518867458964998 -3.8149416818852693 2.6080808888696678 0.83867057594974714 0 -0.54463902268945019 0.13615975567236255 0 0.20966764398743679 1 I I -0.70710678118654746 0.70710678118654746 0.25 forward I I I I #
loop $-1 $-1 $180 $49 #
coedge $-1 $113 $113 $181 $182 reversed $71 $-1 #
face $-1 $183 $184 $39 $-1 $185 reversed single #
loop $-1 $-1 $186 $73 #
plane-surface $-1 -60.695211645863225 16.909793201467334 0.71056230048522195 -0.83867057594974714 0 0.54463902268945019 0.54463902268945019 0 0.83867057594974714 forward_v I I I I #
coedge $-1 $187 $188 $189 $190 reversed $74 $-1 #
face $-1 $-1 $191 $40 $-1 $192 forward single #
loop $-1 $193 $194 $76 #
cone-surface $-1 -57.518867458964998 15.463173297089323 2.6080808888696678 0.83867057594974714 0 -0.54463902268945019 0.13615975567236255 0 0.20966764398743679 1 I I -0.70710678118654746 0.70710678118654746 0.25 forward I I I I #
loop $-1 $-1 $195 $51 #
coedge $-1 $122 $122 $196 $197 reversed $77 $-1 #
face $-1 $-1 $198 $41 $-1 $199 forward single #
loop $-1 $200 $201 $79 #
cone-surface $-1 -57.518867458964998 18.356413105845352 2.6080808888696678 0.83867057594974714 0 -0.54463902268945019 0.13615975567236255 0 0.20966764398743679 1 I I -0.70710678118654746 0.70710678118654746 0.25 forward I I I I #
loop $-1 $-1 $202 $52 #
coedge $-1 $127 $127 $203 $204 reversed $80 $-1 #
face $-1 $205 $206 $42 $-1 $207 reversed single #
loop $-1 $-1 $208 $82 #
plane-surface $-1 -18.944070430205812 17.232642097546243 92.486119470367527 0.75470958851134928 0 0.65605901945558964 0.65605901945558964 0 -0.75470958851134928 forward_v I I I I #
coedge $-1 $209 $210 $211 $212 reversed $83 $-1 #
face $-1 $-1 $213 $43 $-1 $214 forward single #
loop $-1 $215 $216 $85 #
cone-surface $-1 54.186052117072421 17.232642097546243 -0.037661566129481905 -0.75470958851134928 0 -0.65605901945558964 0.49204426459169226 0 -0.56603219138351202 1 I I -0.70710678118654757 0.70710678118654757 0.75 forward I I I I #
loop $-1 $-1 $217 $54 #
coedge $-1 $136 $136 $218 $219 reversed $86 $-1 #
face $-1 $220 $221 $33 $-1 $222 reversed single #
loop $-1 $-1 $223 $88 #
plane-surface $-1 0 -28.358576669657641 0 0 1 0 0 0 1 forward_v I I I I #
coedge $-1 $224 $225 $226 $227 forward $89 $-1 #
coedge $-1 $228 $91 $229 $230 forward $56 $-1 #
coedge $-1 $91 $228 $231 $232 forward $56 $-1 #
coedge $-1 $233 $234 $91 $144 reversed $235 $-1 #
edge $-1 $236 -28.358576669657641 $237 28.358576669657641 $143 $238 forward 7 unknown #
face $-1 $239 $240 $34 $-1 $241 reversed single #
loop $-1 $-1 $242 $92 #
plane-surface $-1 0 0 -6.2816060465114942 0 0 1 1 0 0 forward_v I I I I #
coedge $-1 $243 $244 $245 $246 reversed $93 $-1 #
coedge $-1 $247 $95 $244 $248 forward $59 $-1 #
coedge $-1 $95 $247 $249 $250 reversed $59 $-1 #
coedge $-1 $251 $245 $95 $152 forward $240 $-1 #
edge $-1 $252 10.953458280419499 $253 15.254565019631928 $151 $254 forward 7 unknown #
face $-1 $255 $256 $35 $-1 $257 forward single #
loop $-1 $-1 $258 $96 #
plane-surface $-1 -60.69521164586321 0 0 1 0 0 0 0 -1 forward_v I I I I #
coedge $-1 $259 $260 $261 $262 forward $97 $-1 #
coedge $-1 $261 $99 $258 $263 reversed $62 $-1 #
coedge $-1 $99 $261 $264 $265 reversed $62 $-1 #
coedge $-1 $266 $267 $99 $160 reversed $256 $-1 #
edge $-1 $268 -60.69521164586321 $269 60.69521164586321 $159 $270 forward 7 unknown #
face $-1 $271 $272 $36 $-1 $273 reversed single #
loop $-1 $-1 $274 $100 #
plane-surface $-1 -162.50178786271903 -1.8861151427145888 66.824523805949767 0 -1 0 0.83867057594974714 0 -0.54463902268945019 forward_v I I I I #
coedge $-1 $275 $276 $277 $278 reversed $101 $-1 #
coedge $-1 $166 $103 $279 $280 reversed $65 $-1 #
coedge $-1 $103 $165 $275 $281 reversed $65 $-1 #
coedge $-1 $277 $282 $103 $168 forward $283 $-1 #
edge $-1 $284 20.555682285496303 $285 24.173560279796796 $167 $286 forward 7 unknown #
loop $-1 $-1 $174 $104 #
plane-surface $-1 -60.695211645863225 -5.2615615862632872 0.71056230048522195 -0.83867057594974714 0 0.54463902268945019 0.54463902268945019 0 0.83867057594974714 forward_v I I I I #
loop $-1 $-1 $287 $67 #
coedge $-1 $172 $172 $173 $288 reversed $105 $-1 #
coedge $-1 $173 $173 $172 $288 forward $107 $-1 #
coedge $-1 $174 $174 $108 $175 forward $169 $-1 #
edge $-1 $289 0 $289 6.2831853071796004 $174 $290 forward 7 unknown #
loop $-1 $-1 $181 $109 #
plane-surface $-1 -60.695211645863225 -5.2615615862632872 0.71056230048522195 -0.83867057594974714 0 0.54463902268945019 0.54463902268945019 0 0.83867057594974714 forward_v I I I I #
loop $-1 $-1 $291 $70 #
coedge $-1 $179 $179 $180 $292 reversed $110 $-1 #
coedge $-1 $180 $180 $179 $292 forward $112 $-1 #
coedge $-1 $181 $181 $113 $182 forward $176 $-1 #
edge $-1 $293 0 $293 6.2831853071796004 $181 $294 forward 7 unknown #
face $-1 $295 $296 $39 $-1 $297 forward single #
loop $-1 $-1 $298 $114 #
plane-surface $-1 -162.50178786271903 20.285239645016034 66.824523805949767 0 -1 0 0.83867057594974714 0 -0.54463902268945019 forward_v I I I I #
coedge $-1 $299 $300 $301 $302 reversed $115 $-1 #
coedge $-1 $188 $117 $303 $304 reversed $74 $-1 #
coedge $-1 $117 $187 $299 $305 reversed $74 $-1 #
coedge $-1 $301 $306 $117 $190 forward $296 $-1 #
edge $-1 $307 20.555682285496303 $308 24.173560279796796 $189 $309 forward 7 unknown #
loop $-1 $-1 $196 $118 #
plane-surface $-1 -60.695211645863225 16.909793201467334 0.71056230048522195 -0.83867057594974714 0 0.54463902268945019 0.54463902268945019 0 0.83867057594974714 forward_v I I I I #
loop $-1 $-1 $310 $76 #
coedge $-1 $194 $194 $195 $311 reversed $119 $-1 #
coedge $-1 $195 $195 $194 $311 forward $121 $-1 #
coedge $-1 $196 $196 $122 $197 forward $191 $-1 #
edge $-1 $312 0 $312 6.2831853071796004 $196 $313 forward 7 unknown #
loop $-1 $-1 $203 $123 #
plane-surface $-1 -60.695211645863225 16.909793201467334 0.71056230048522195 -0.83867057594974714 0 0.54463902268945019 0.54463902268945019 0 0.83867057594974714 forward_v I I I I #
loop $-1 $-1 $314 $79 #
coedge $-1 $201 $201 $202 $315 reversed $124 $-1 #
coedge $-1 $202 $202 $201 $315 forward $126 $-1 #
coedge $-1 $203 $203 $127 $204 forward $198 $-1 #
edge $-1 $316 0 $316 6.2831853071796004 $203 $317 forward 7 unknown #
face $-1 $318 $319 $42 $-1 $320 forward single #
loop $-1 $-1 $321 $128 #
plane-surface $-1 72.670445981511548 14.180044550076452 172.12540154643654 0 1 0 0.75470958851134928 0 0.65605901945558964 forward_v I I I I #
coedge $-1 $322 $323 $324 $325 reversed $129 $-1 #
coedge $-1 $210 $131 $326 $327 reversed $83 $-1 #
coedge $-1 $131 $209 $322 $328 reversed $83 $-1 #
coedge $-1 $324 $329 $131 $212 forward $319 $-1 #
edge $-1 $330 -24.359988655107436 $331 -19.657144926211636 $211 $332 forward 7 unknown #
loop $-1 $-1 $218 $132 #
plane-surface $-1 -18.944070430205812 17.232642097546243 92.486119470367527 0.75470958851134928 0 0.65605901945558964 0.65605901945558964 0 -0.75470958851134928 forward_v I I I I #
loop $-1 $-1 $333 $85 #
coedge $-1 $216 $216 $217 $334 reversed $133 $-1 #
coedge $-1 $217 $217 $216 $334 forward $135 $-1 #
coedge $-1 $218 $218 $136 $219 forward $213 $-1 #
edge $-1 $335 0 $335 6.2831853071796004 $218 $336 forward 7 unknown #
face $-1 $337 $338 $33 $-1 $339 reversed single #
loop $-1 $-1 $340 $137 #
plane-surface $-1 -60.69521164586321 0 0 1 0 0 0 0 -1 forward_v I I I I #
coedge $-1 $341 $231 $342 $343 forward $138 $-1 #
coedge $-1 $344 $140 $341 $345 forward $89 $-1 #
coedge $-1 $140 $344 $346 $347 forward $89 $-1 #
coedge $-1 $234 $233 $140 $227 reversed $235 $-1 #
edge $-1 $348 -28.358576669657641 $349 28.358576669657641 $226 $350 forward 7 unknown #
coedge $-1 $142 $141 $351 $352 forward $56 $-1 #
coedge $-1 $353 $354 $141 $230 reversed $338 $-1 #
edge $-1 $237 -60.69521164586321 $355 60.69521164586321 $229 $356 forward 7 unknown #
coedge $-1 $223 $357 $142 $232 reversed $138 $-1 #
edge $-1 $358 -60.69521164586321 $236 60.69521164586321 $231 $359 forward 7 unknown #
coedge $-1 $226 $143 $357 $360 forward $235 $-1 #
coedge $-1 $143 $226 $353 $361 reversed $235 $-1 #
loop $-1 $-1 $233 $337 #
vertex $-1 $144 $362 #
vertex $-1 $144 $363 #
straight-curve $-1 60.69521164586321 0 6.2816060465114942 0 1 0 I I #
face $-1 $364 $365 $34 $-1 $366 reversed single #
loop $-1 $-1 $245 $145 #
plane-surface $-1 60.69521164586321 0 0 -1 0 0 0 0 1 forward_v I I I I #
coedge $-1 $367 $368 $243 $369 forward $146 $-1 #
coedge $-1 $370 $148 $242 $369 reversed $93 $-1 #
coedge $-1 $148 $370 $149 $248 reversed $93 $-1 #
coedge $-1 $151 $371 $148 $246 forward $240 $-1 #
edge $-1 $372 -3.8908030232557471 $252 -0.89080302325574712 $245 $373 forward 7 unknown #
coedge $-1 $150 $149 $374 $375 reversed $59 $-1 #
edge $-1 $252 -60.69521164586321 $376 60.69521164586321 $244 $377 forward 7 unknown #
coedge $-1 $378 $379 $150 $250 forward $365 $-1 #
edge $-1 $253 -60.69521164586321 $380 60.69521164586321 $249 $381 forward 7 unknown #
coedge $-1 $371 $151 $379 $382 forward $240 $-1 #
vertex $-1 $152 $383 #
vertex $-1 $382 $384 #
straight-curve $-1 60.69521164586321 -13.104011650025713 -3.2816060465114942 0 -1 0 I I #
face $-1 $385 $386 $35 $-1 $387 reversed single #
loop $-1 $-1 $266 $153 #
plane-surface $-1 0 32.395245181978453 -3.2816060465114942 0 0 1 1 0 0 forward_v I I I I #
coedge $-1 $388 $389 $157 $263 forward $154 $-1 #
coedge $-1 $390 $156 $389 $391 forward $97 $-1 #
coedge $-1 $156 $390 $392 $393 forward $97 $-1 #
coedge $-1 $158 $157 $156 $262 reversed $62 $-1 #
edge $-1 $394 -60.69521164586321 $395 60.69521164586321 $156 $396 forward 7 unknown #
edge $-1 $395 -6.2816060465114942 $269 -3.2816060465114942 $258 $397 forward 7 unknown #
coedge $-1 $392 $398 $158 $265 forward $399 $-1 #
edge $-1 $268 3.2816060465114942 $394 6.2816060465114942 $264 $400 forward 7 unknown #
coedge $-1 $401 $159 $398 $402 forward $256 $-1 #
coedge $-1 $159 $401 $388 $403 forward $256 $-1 #
vertex $-1 $265 $404 #
vertex $-1 $403 $405 #
straight-curve $-1 0 28.358576669657641 -3.2816060465114942 -1 0 0 I I #
face $-1 $-1 $283 $36 $-1 $406 forward single #
loop $-1 $-1 $407 $161 #
plane-surface $-1 -60.69521164586321 0 0 1 0 0 0 0 -1 forward_v I I I I #
coedge $-1 $408 $409 $410 $411 reversed $162 $-1 #
coedge $-1 $412 $164 $166 $281 forward $101 $-1 #
coedge $-1 $164 $412 $408 $413 forward $101 $-1 #
coedge $-1 $410 $167 $164 $278 forward $283 $-1 #
edge $-1 $285 -6.006227236680342 $414 0.74466565041705479 $277 $415 forward 7 unknown #
coedge $-1 $416 $417 $165 $280 forward $272 $-1 #
edge $-1 $418 -32.70169960248964 $284 -27.130655856463388 $279 $419 forward 7 unknown #
edge $-1 $285 -6.6427080021465867 $418 -2.6082680278521875e-014 $166 $420 forward 7 unknown #
coedge $-1 $167 $410 $416 $421 forward $283 $-1 #
loop $-1 $-1 $410 $271 #
vertex $-1 $280 $422 #
vertex $-1 $168 $423 #
straight-curve $-1 -81.250893931359514 -8.6370080298119856 6.2816060465114951 1 0 0 I I #
coedge $-1 $287 $287 $-1 $424 reversed $171 $-1 #
edge $-1 $425 0 $425 6.2831853071796004 $172 $426 forward 7 unknown #
vertex $-1 $175 $427 #
ellipse-curve $-1 -58.886272648712968 -6.708181490641298 3.4960841734983661 -0.83867057594974714 0 0.54463902268945019 0.2723195113447251 0 0.41933528797487357 1 I I #
coedge $-1 $291 $291 $-1 $428 reversed $178 $-1 #
edge $-1 $429 0 $429 6.2831853071796004 $179 $430 forward 7 unknown #
vertex $-1 $182 $431 #
ellipse-curve $-1 -58.886272648712968 -3.8149416818852693 3.4960841734983661 -0.83867057594974714 0 0.54463902268945019 0.2723195113447251 0 0.41933528797487357 1 I I #
face $-1 $-1 $432 $39 $-1 $433 reversed single #
loop $-1 $-1 $189 $183 #
plane-surface $-1 0 0 6.2816060465114942 0 0 1 1 0 0 forward_v I I I I #
coedge $-1 $434 $435 $436 $437 reversed $184 $-1 #
coedge $-1 $438 $186 $188 $305 forward $115 $-1 #
coedge $-1 $186 $438 $434 $439 forward $115 $-1 #
coedge $-1 $436 $189 $186 $302 forward $296 $-1 #
edge $-1 $308 5.0794501571849686 $440 11.830343044282367 $301 $441 forward 7 unknown #
coedge $-1 $442 $443 $187 $304 forward $432 $-1 #
edge $-1 $444 -32.70169960248964 $307 -27.130655856463388 $303 $445 forward 7 unknown #
edge $-1 $308 -6.6427080021465867 $444 -2.6082680278521875e-014 $188 $446 forward 7 unknown #
coedge $-1 $189 $436 $442 $447 forward $296 $-1 #
vertex $-1 $190 $448 #
vertex $-1 $190 $449 #
straight-curve $-1 -81.250893931359514 13.534346757918636 6.2816060465114951 1 0 0 I I #
coedge $-1 $310 $310 $-1 $450 reversed $193 $-1 #
edge $-1 $451 0 $451 6.2831853071796004 $194 $452 forward 7 unknown #
vertex $-1 $197 $453 #
ellipse-curve $-1 -58.886272648712968 15.463173297089323 3.4960841734983661 -0.83867057594974714 0 0.54463902268945019 0.2723195113447251 0 0.41933528797487357 1 I I #
coedge $-1 $314 $314 $-1 $454 reversed $200 $-1 #
edge $-1 $455 0 $455 6.2831853071796004 $201 $456 forward 7 unknown #
vertex $-1 $204 $457 #
ellipse-curve $-1 -58.886272648712968 18.356413105845352 3.4960841734983661 -0.83867057594974714 0 0.54463902268945019 0.2723195113447251 0 0.41933528797487357 1 I I #
face $-1 $-1 $458 $42 $-1 $459 reversed single #
loop $-1 $-1 $211 $205 #
plane-surface $-1 0 0 6.2816060465114942 0 0 1 1 0 0 forward_v I I I I #
coedge $-1 $460 $461 $462 $463 reversed $206 $-1 #
coedge $-1 $464 $208 $210 $328 forward $129 $-1 #
coedge $-1 $208 $464 $460 $465 forward $129 $-1 #
coedge $-1 $462 $211 $208 $325 forward $319 $-1 #
edge $-1 $331 -11.668918596242912 $466 -5.5637235013033308 $324 $467 forward 7 unknown #
coedge $-1 $468 $469 $209 $327 forward $458 $-1 #
edge $-1 $470 -85.191097714568116 $330 -79.781094726706769 $326 $471 forward 7 unknown #
edge $-1 $331 114.22209911748021 $470 121.39042329172646 $210 $472 forward 7 unknown #
coedge $-1 $211 $462 $468 $473 forward $319 $-1 #
vertex $-1 $327 $474 #
vertex $-1 $212 $475 #
straight-curve $-1 36.335222990755774 20.285239645016034 6.2816060465114987 -1 0 0 I I #
coedge $-1 $333 $333 $-1 $476 reversed $215 $-1 #
edge $-1 $477 0 $477 6.2831853071796004 $216 $478 forward 7 unknown #
vertex $-1 $219 $479 #
ellipse-curve $-1 58.34378978141531 17.232642097546243 3.576604552580827 0.75470958851134928 0 0.65605901945558964 0.98408852918338452 0 -1.132064382767024 1 I I #
face $-1 $-1 $235 $33 $-1 $480 reversed single #
loop $-1 $-1 $354 $220 #
plane-surface $-1 0 28.358576669657641 0 0 -1 0 0 0 -1 forward_v I I I I #
coedge $-1 $481 $351 $354 $482 forward $221 $-1 #
coedge $-1 $357 $223 $224 $345 reversed $138 $-1 #
coedge $-1 $351 $481 $223 $343 reversed $221 $-1 #
edge $-1 $358 -6.2816060465114942 $483 6.2816060465114942 $342 $484 forward 7 unknown #
coedge $-1 $225 $224 $481 $485 forward $89 $-1 #
edge $-1 $349 -60.69521164586321 $483 60.69521164586321 $341 $486 forward 7 unknown #
coedge $-1 $354 $353 $225 $347 reversed $338 $-1 #
edge $-1 $487 -60.69521164586321 $348 60.69521164586321 $346 $488 forward 7 unknown #
vertex $-1 $227 $489 #
vertex $-1 $360 $490 #
straight-curve $-1 60.69521164586321 0 -6.2816060465114942 0 -1 0 I I #
coedge $-1 $340 $342 $228 $352 reversed $221 $-1 #
edge $-1 $355 -28.358576669657641 $358 28.358576669657641 $351 $491 forward 7 unknown #
coedge $-1 $346 $229 $234 $361 forward $338 $-1 #
coedge $-1 $229 $346 $340 $482 reversed $338 $-1 #
vertex $-1 $230 $492 #
straight-curve $-1 0 28.358576669657641 6.2816060465114942 -1 0 0 I I #
coedge $-1 $231 $341 $233 $360 reversed $138 $-1 #
vertex $-1 $352 $493 #
straight-curve $-1 0 -28.358576669657641 6.2816060465114942 1 0 0 I I #
edge $-1 $236 -6.2816060465114942 $349 6.2816060465114942 $233 $494 forward 7 unknown #
edge $-1 $237 -6.2816060465114942 $348 6.2816060465114942 $234 $495 forward 7 unknown #
point $-1 60.69521164586321 -28.358576669657641 6.2816060465114942 #
point $-1 60.69521164586321 28.358576669657641 6.2816060465114942 #
face $-1 $-1 $496 $34 $-1 $497 reversed single #
loop $-1 $-1 $249 $239 #
plane-surface $-1 0 -28.358576669657641 0 0 1 0 0 0 1 forward_v I I I I #
coedge $-1 $498 $242 $371 $499 forward $146 $-1 #
coedge $-1 $242 $498 $500 $501 forward $146 $-1 #
edge $-1 $502 -60.69521164586321 $372 60.69521164586321 $242 $503 forward 7 unknown #
coedge $-1 $244 $243 $504 $505 reversed $93 $-1 #
coedge $-1 $245 $251 $367 $499 reversed $240 $-1 #
vertex $-1 $499 $506 #
straight-curve $-1 60.69521164586321 -24.057469930445212 -2.3908030232557471 0 0 1 I I #
coedge $-1 $504 $507 $247 $375 forward $496 $-1 #
edge $-1 $380 -15.254565019631928 $376 -10.953458280419499 $374 $508 forward 7 unknown #
vertex $-1 $375 $509 #
straight-curve $-1 0 -24.057469930445212 -3.2816060465114942 -1 0 0 I I #
coedge $-1 $510 $249 $507 $511 forward $365 $-1 #
coedge $-1 $249 $510 $251 $382 reversed $365 $-1 #
vertex $-1 $511 $512 #
straight-curve $-1 0 -28.358576669657641 -3.2816060465114942 -1 0 0 I I #
edge $-1 $253 3.2816060465114942 $513 6.2816060465114942 $251 $514 forward 7 unknown #
point $-1 60.69521164586321 -24.057469930445212 -3.2816060465114942 #
point $-1 60.69521164586321 -28.358576669657641 -3.2816060465114942 #
face $-1 $-1 $399 $35 $-1 $515 reversed single #
loop $-1 $-1 $516 $255 #
plane-surface $-1 0 36.431913694299254 -4.7816060465114942 0 -1 0 0 0 -1 forward_v I I I I #
coedge $-1 $517 $258 $267 $403 reversed $154 $-1 #
coedge $-1 $258 $517 $259 $391 reversed $154 $-1 #
coedge $-1 $260 $259 $518 $519 forward $97 $-1 #
edge $-1 $395 -4.0366685123208121 $520 4.0366685123208015 $389 $521 forward 7 unknown #
coedge $-1 $522 $264 $260 $393 reversed $399 $-1 #
edge $-1 $523 -36.431913694299254 $394 -28.358576669657641 $392 $524 forward 7 unknown #
vertex $-1 $265 $525 #
vertex $-1 $391 $526 #
straight-curve $-1 0 28.358576669657641 -6.2816060465114942 -1 0 0 I I #
straight-curve $-1 -60.69521164586321 28.358576669657641 0 0 0 1 I I #
coedge $-1 $264 $522 $266 $402 reversed $399 $-1 #
loop $-1 $-1 $264 $385 #
straight-curve $-1 60.69521164586321 28.358576669657641 0 0 0 -1 I I #
coedge $-1 $267 $266 $527 $528 forward $256 $-1 #
edge $-1 $268 -4.036668512320805 $529 4.0366685123208015 $398 $530 forward 7 unknown #
edge $-1 $531 -4.0366685123208015 $269 4.036668512320805 $388 $532 forward 7 unknown #
point $-1 60.69521164586321 28.358576669657648 -3.2816060465114942 #
point $-1 -60.69521164586321 28.358576669657648 -3.2816060465114942 #
plane-surface $-1 0 0 6.2816060465114942 0 0 1 1 0 0 forward_v I I I I #
coedge $-1 $417 $416 $409 $533 forward $272 $-1 #
coedge $-1 $409 $274 $276 $413 reversed $162 $-1 #
coedge $-1 $274 $408 $407 $533 reversed $162 $-1 #
coedge $-1 $282 $277 $274 $411 forward $283 $-1 #
edge $-1 $414 -24.173560279796796 $534 -20.555682285496303 $410 $535 forward 7 unknown #
coedge $-1 $276 $275 $417 $536 reversed $101 $-1 #
edge $-1 $537 2.6082680278521875e-014 $414 6.6427080021465867 $408 $538 forward 7 unknown #
vertex $-1 $278 $539 #
straight-curve $-1 -57.077333651562725 -2.6307807931316436 6.2816060465114933 0 1 0 I I #
coedge $-1 $407 $279 $282 $421 reversed $272 $-1 #
coedge $-1 $279 $407 $412 $536 forward $272 $-1 #
vertex $-1 $280 $540 #
straight-curve $-1 -60.69521164586321 -8.6370080298119856 33.412261902974883 0 0 1 I I #
straight-curve $-1 -60.695211645863225 -8.6370080298119856 0.71056230048522195 -0.54463902268945019 0 -0.83867057594974714 I I #
edge $-1 $534 1.8861151427145888 $284 8.6370080298119856 $416 $541 forward 7 unknown #
point $-1 -60.69521164586321 -8.6370080298119856 6.2816060465114942 #
point $-1 -57.077333651562718 -8.6370080298119856 6.2816060465114942 #
edge $-1 $542 1 $542 0 $287 $-1 forward 7 unknown #
vertex $-1 $288 $543 #
ellipse-curve $-1 -57.728535102952435 -6.708181490641298 2.7442406445420304 -0.83867057594974714 0 0.54463902268945019 0.2723195113447251 0 0.41933528797487357 1 I I #
point $-1 -58.613953137368227 -6.708181490641298 3.9154194614732289 #
edge $-1 $544 1 $544 0 $291 $-1 forward 7 unknown #
vertex $-1 $292 $545 #
ellipse-curve $-1 -57.728535102952435 -3.8149416818852693 2.7442406445420304 -0.83867057594974714 0 0.54463902268945019 0.2723195113447251 0 0.41933528797487357 1 I I #
point $-1 -58.613953137368227 -3.8149416818852693 3.9154194614732289 #
loop $-1 $-1 $303 $295 #
plane-surface $-1 -60.69521164586321 0 0 1 0 0 0 0 -1 forward_v I I I I #
coedge $-1 $435 $298 $300 $439 reversed $184 $-1 #
coedge $-1 $298 $434 $546 $547 reversed $184 $-1 #
coedge $-1 $306 $301 $298 $437 forward $296 $-1 #
edge $-1 $440 -24.173560279796796 $548 -20.555682285496303 $436 $549 forward 7 unknown #
coedge $-1 $300 $299 $443 $550 reversed $115 $-1 #
edge $-1 $551 2.6082680278521875e-014 $440 6.6427080021465867 $434 $552 forward 7 unknown #
vertex $-1 $302 $553 #
straight-curve $-1 -57.077333651562725 8.454896600733667 6.2816060465114933 0 1 0 I I #
coedge $-1 $546 $303 $306 $447 reversed $432 $-1 #
coedge $-1 $303 $546 $438 $550 forward $432 $-1 #
vertex $-1 $304 $554 #
straight-curve $-1 -60.69521164586321 13.534346757918636 33.412261902974883 0 0 1 I I #
straight-curve $-1 -60.695211645863225 13.534346757918636 0.71056230048522195 -0.54463902268945019 0 -0.83867057594974714 I I #
edge $-1 $548 -20.285239645016034 $307 -13.534346757918636 $442 $555 forward 7 unknown #
point $-1 -60.69521164586321 13.534346757918636 6.2816060465114942 #
point $-1 -57.077333651562718 13.534346757918636 6.2816060465114942 #
edge $-1 $556 1 $556 0 $310 $-1 forward 7 unknown #
vertex $-1 $311 $557 #
ellipse-curve $-1 -57.728535102952435 15.463173297089323 2.7442406445420304 -0.83867057594974714 0 0.54463902268945019 0.2723195113447251 0 0.41933528797487357 1 I I #
point $-1 -58.613953137368227 15.463173297089323 3.9154194614732289 #
edge $-1 $558 1 $558 0 $314 $-1 forward 7 unknown #
vertex $-1 $315 $559 #
ellipse-curve $-1 -57.728535102952435 18.356413105845352 2.7442406445420304 -0.83867057594974714 0 0.54463902268945019 0.2723195113447251 0 0.41933528797487357 1 I I #
point $-1 -58.613953137368227 18.356413105845352 3.9154194614732289 #
loop $-1 $-1 $326 $318 #
plane-surface $-1 60.69521164586321 0 0 -1 0 0 0 0 1 forward_v I I I I #
coedge $-1 $461 $321 $323 $465 reversed $206 $-1 #
coedge $-1 $321 $460 $560 $561 reversed $206 $-1 #
coedge $-1 $329 $324 $321 $463 forward $319 $-1 #
edge $-1 $466 19.657144926211636 $562 24.359988655107436 $462 $563 forward 7 unknown #
coedge $-1 $323 $322 $469 $564 reversed $129 $-1 #
edge $-1 $565 -121.39042329172646 $466 -114.22209911748021 $460 $566 forward 7 unknown #
vertex $-1 $325 $567 #
straight-curve $-1 55.992367916967424 8.6163210487731217 6.2816060465114845 0 -1 0 I I #
coedge $-1 $560 $326 $329 $473 reversed $458 $-1 #
coedge $-1 $326 $560 $464 $564 forward $458 $-1 #
vertex $-1 $327 $568 #
straight-curve $-1 60.69521164586321 20.285239645016034 86.062700773218268 0 0 1 I I #
straight-curve $-1 -18.944070430205812 20.285239645016034 92.486119470367527 0.65605901945558964 0 -0.75470958851134928 I I #
edge $-1 $562 14.180044550076452 $330 20.285239645016034 $468 $569 forward 7 unknown #
point $-1 60.69521164586321 20.285239645016034 6.2816060465114942 #
point $-1 55.99236791696741 20.285239645016034 6.2816060465114987 #
edge $-1 $570 1 $570 0 $333 $-1 forward 7 unknown #
vertex $-1 $334 $571 #
ellipse-curve $-1 54.752084308455935 17.232642097546243 0.45438269846221035 0.75470958851134928 0 0.65605901945558964 0.98408852918338452 0 -1.132064382767024 1 I I #
point $-1 59.327878310598692 17.232642097546243 2.4445401698138007 #
plane-surface $-1 60.69521164586321 0 0 -1 0 0 0 0 1 forward_v I I I I #
coedge $-1 $342 $340 $344 $485 reversed $221 $-1 #
edge $-1 $355 -6.2816060465114942 $487 6.2816060465114942 $354 $572 forward 7 unknown #
vertex $-1 $485 $573 #
straight-curve $-1 -60.69521164586321 -28.358576669657641 0 0 0 -1 I I #
edge $-1 $483 -28.358576669657641 $487 28.358576669657641 $481 $574 forward 7 unknown #
straight-curve $-1 0 -28.358576669657641 -6.2816060465114942 -1 0 0 I I #
vertex $-1 $347 $575 #
straight-curve $-1 0 28.358576669657641 -6.2816060465114942 1 0 0 I I #
point $-1 60.69521164586321 28.358576669657641 -6.2816060465114942 #
point $-1 60.69521164586321 -28.358576669657641 -6.2816060465114942 #
straight-curve $-1 -60.69521164586321 0 6.2816060465114942 0 -1 0 I I #
point $-1 -60.69521164586321 28.358576669657641 6.2816060465114942 #
point $-1 -60.69521164586321 -28.358576669657641 6.2816060465114942 #
straight-curve $-1 60.69521164586321 -28.358576669657641 0 0 0 -1 I I #
straight-curve $-1 60.69521164586321 28.358576669657641 0 0 0 -1 I I #
loop $-1 $-1 $504 $364 #
plane-surface $-1 -60.69521164586321 0 0 1 0 0 0 0 -1 forward_v I I I I #
coedge $-1 $368 $367 $510 $576 forward $146 $-1 #
edge $-1 $372 24.057469930445212 $513 28.358576669657641 $371 $577 forward 7 unknown #
coedge $-1 $507 $504 $368 $501 reversed $496 $-1 #
edge $-1 $578 -28.358576669657641 $502 -24.057469930445212 $500 $579 forward 7 unknown #
vertex $-1 $505 $580 #
straight-curve $-1 0 -24.057469930445212 -6.2816060465114942 1 0 0 I I #
coedge $-1 $500 $374 $370 $505 forward $496 $-1 #
edge $-1 $376 0.89080302325574712 $502 3.8908030232557471 $504 $581 forward 7 unknown #
point $-1 60.69521164586321 -24.057469930445212 -6.2816060465114942 #
coedge $-1 $374 $500 $378 $511 reversed $496 $-1 #
straight-curve $-1 -60.69521164586321 -13.104011650025713 -3.2816060465114942 0 1 0 I I #
point $-1 -60.69521164586321 -24.057469930445212 -3.2816060465114942 #
coedge $-1 $379 $378 $498 $576 reversed $365 $-1 #
edge $-1 $380 3.2816060465114942 $578 6.2816060465114942 $507 $582 forward 7 unknown #
point $-1 -60.69521164586321 -28.358576669657641 -3.2816060465114942 #
vertex $-1 $382 $583 #
straight-curve $-1 60.69521164586321 -28.358576669657641 0 0 0 -1 I I #
plane-surface $-1 60.69521164586321 0 0 -1 0 0 0 0 1 forward_v I I I I #
coedge $-1 $518 $527 $522 $584 forward $386 $-1 #
coedge $-1 $389 $388 $585 $586 forward $154 $-1 #
coedge $-1 $585 $516 $390 $519 reversed $386 $-1 #
edge $-1 $520 -60.69521164586321 $523 60.69521164586321 $518 $587 forward 7 unknown #
vertex $-1 $519 $588 #
straight-curve $-1 -60.69521164586321 32.395245181978453 -6.2816060465114942 0 1 0 I I #
coedge $-1 $398 $392 $516 $584 reversed $399 $-1 #
vertex $-1 $393 $589 #
straight-curve $-1 60.69521164586321 0 -6.2816060465114942 0 -1 0 I I #
point $-1 60.69521164586321 28.358576669657641 -6.2816060465114942 #
point $-1 -60.69521164586321 28.358576669657641 -6.2816060465114942 #
coedge $-1 $516 $585 $401 $528 reversed $386 $-1 #
edge $-1 $529 -60.69521164586321 $531 60.69521164586321 $527 $590 forward 7 unknown #
vertex $-1 $402 $591 #
straight-curve $-1 60.69521164586321 32.395245181978453 -3.2816060465114942 0 1 0 I I #
vertex $-1 $528 $592 #
straight-curve $-1 -60.69521164586321 32.395245181978453 -3.2816060465114942 0 -1 0 I I #
edge $-1 $534 27.130655856463388 $537 32.70169960248964 $407 $593 forward 7 unknown #
vertex $-1 $421 $594 #
straight-curve $-1 -81.250893931359514 -1.8861151427145888 6.2816060465114951 -1 0 0 I I #
edge $-1 $537 -0.74466565041705479 $418 6.006227236680342 $417 $595 forward 7 unknown #
vertex $-1 $536 $596 #
straight-curve $-1 -60.695211645863225 -1.8861151427145888 0.71056230048522195 0.54463902268945019 0 0.83867057594974714 I I #
point $-1 -57.077333651562718 -1.8861151427145888 6.2816060465114942 #
point $-1 -60.69521164586321 -8.6370080298119856 0.71056230048524383 #
straight-curve $-1 -60.69521164586321 0 6.2816060465114942 0 -1 0 I I #
vertex $-1 $424 $597 #
point $-1 -57.456215591607709 -6.708181490641298 3.1635759325169039 #
vertex $-1 $428 $598 #
point $-1 -57.456215591607709 -3.8149416818852693 3.1635759325169039 #
coedge $-1 $443 $442 $435 $547 forward $432 $-1 #
edge $-1 $548 27.130655856463388 $551 32.70169960248964 $546 $599 forward 7 unknown #
vertex $-1 $447 $600 #
straight-curve $-1 -81.250893931359514 20.285239645016034 6.2816060465114951 -1 0 0 I I #
edge $-1 $551 -11.830343044282367 $444 -5.0794501571849686 $443 $601 forward 7 unknown #
vertex $-1 $550 $602 #
straight-curve $-1 -60.695211645863225 20.285239645016034 0.71056230048522195 0.54463902268945019 0 0.83867057594974714 I I #
point $-1 -57.077333651562718 20.285239645016034 6.2816060465114942 #
point $-1 -60.69521164586321 13.534346757918636 0.71056230048524383 #
straight-curve $-1 -60.69521164586321 0 6.2816060465114942 0 -1 0 I I #
vertex $-1 $450 $603 #
point $-1 -57.456215591607709 15.463173297089323 3.1635759325169039 #
vertex $-1 $454 $604 #
point $-1 -57.456215591607709 18.356413105845352 3.1635759325169039 #
coedge $-1 $469 $468 $461 $561 forward $458 $-1 #
edge $-1 $562 79.781094726706769 $565 85.191097714568116 $560 $605 forward 7 unknown #
vertex $-1 $473 $606 #
straight-curve $-1 36.335222990755774 14.180044550076452 6.2816060465114987 1 0 0 I I #
edge $-1 $565 5.5637235013033308 $470 11.668918596242912 $469 $607 forward 7 unknown #
vertex $-1 $564 $608 #
straight-curve $-1 -18.944070430205812 14.180044550076452 92.486119470367527 -0.65605901945558964 0 0.75470958851134928 I I #
point $-1 55.99236791696741 14.180044550076452 6.2816060465114987 #
point $-1 60.69521164586321 20.285239645016034 0.87160305865015175 #
straight-curve $-1 60.69521164586321 0 6.2816060465114942 0 1 0 I I #
vertex $-1 $476 $609 #
point $-1 55.736172837639316 17.232642097546243 -0.67768168430481368 #
straight-curve $-1 -60.69521164586321 28.358576669657641 0 0 0 -1 I I #
point $-1 -60.69521164586321 -28.358576669657641 -6.2816060465114942 #
straight-curve $-1 -60.69521164586321 0 -6.2816060465114942 0 1 0 I I #
point $-1 -60.69521164586321 28.358576669657641 -6.2816060465114942 #
edge $-1 $513 -60.69521164586321 $578 60.69521164586321 $510 $610 forward 7 unknown #
straight-curve $-1 60.69521164586321 0 -6.2816060465114942 0 -1 0 I I #
vertex $-1 $501 $611 #
straight-curve $-1 -60.69521164586321 0 -6.2816060465114942 0 1 0 I I #
point $-1 -60.69521164586321 -24.057469930445212 -6.2816060465114942 #
straight-curve $-1 -60.69521164586321 -24.057469930445212 -2.3908030232557471 0 0 -1 I I #
straight-curve $-1 -60.69521164586321 -28.358576669657641 0 0 0 -1 I I #
point $-1 60.69521164586321 -28.358576669657641 -6.2816060465114942 #
edge $-1 $529 -1.5 $523 1.5 $522 $612 forward 7 unknown #
coedge $-1 $527 $518 $517 $586 reversed $386 $-1 #
edge $-1 $531 -1.5 $520 1.5 $585 $613 forward 7 unknown #
straight-curve $-1 0 36.431913694299254 -6.2816060465114942 1 0 0 I I #
point $-1 -60.69521164586321 36.431913694299254 -6.2816060465114942 #
point $-1 60.69521164586321 36.431913694299254 -6.2816060465114942 #
straight-curve $-1 0 36.431913694299254 -3.2816060465114942 -1 0 0 I I #
point $-1 60.69521164586321 36.431913694299254 -3.2816060465114942 #
point $-1 -60.69521164586321 36.431913694299254 -3.2816060465114942 #
straight-curve $-1 -60.69521164586321 -1.8861151427145888 33.412261902974883 0 0 -1 I I #
point $-1 -60.69521164586321 -1.8861151427145888 6.2816060465114942 #
straight-curve $-1 -60.69521164586321 -2.6307807931316436 0.7105623004852436 0 -1 0 I I #
point $-1 -60.69521164586321 -1.8861151427145888 0.71056230048524383 #
point $-1 -57.309199814977561 -6.708181490641298 2.4719211331973052 #
point $-1 -57.309199814977561 -3.8149416818852693 2.4719211331973052 #
straight-curve $-1 -60.69521164586321 20.285239645016034 33.412261902974883 0 0 -1 I I #
point $-1 -60.69521164586321 20.285239645016034 6.2816060465114942 #
straight-curve $-1 -60.69521164586321 8.454896600733667 0.7105623004852436 0 -1 0 I I #
point $-1 -60.69521164586321 20.285239645016034 0.71056230048524383 #
point $-1 -57.309199814977561 15.463173297089323 2.4719211331973052 #
point $-1 -57.309199814977561 18.356413105845352 2.4719211331973052 #
straight-curve $-1 60.69521164586321 14.180044550076452 86.062700773218268 0 0 -1 I I #
point $-1 60.69521164586321 14.180044550076452 6.2816060465114942 #
straight-curve $-1 60.69521164586321 8.6163210487731217 0.87160305865015175 0 1 0 I I #
point $-1 60.69521164586321 14.180044550076452 0.87160305865015175 #
point $-1 53.620019925688908 17.232642097546243 -0.52970583072117416 #
straight-curve $-1 0 -28.358576669657641 -6.2816060465114942 -1 0 0 I I #
point $-1 -60.69521164586321 -28.358576669657641 -6.2816060465114942 #
straight-curve $-1 60.69521164586321 36.431913694299254 -4.7816060465114942 0 0 -1 I I #
straight-curve $-1 -60.69521164586321 36.431913694299254 -4.7816060465114942 0 0 -1 I I #
End-of-ACIS-data 