500 0 7 0           
7 Unknown 11 ACIS 5.0 NT 24 Fri Mar 26 03:20:11 1999 
-1 9.9999999999999995e-007 1e-010 
body $-1 $7 $-1 $8 #
body $-1 $9 $-1 $10 #
body $-1 $11 $-1 $12 #
body $-1 $13 $-1 $14 #
body $-1 $15 $-1 $16 #
body $-1 $17 $-1 $18 #
body $-1 $19 $-1 $20 #
lump $-1 $-1 $21 $0 #
transform $-1 1 0 0 0 1 0 0 0 1 61.564378795739614 36.519455155817447 16.739746104429191 1 rotate no_reflect no_shear #
lump $-1 $-1 $22 $1 #
transform $-1 1 0 0 0 1 0 0 0 1 61.564378795739614 36.519455155817447 16.739746104429191 1 rotate no_reflect no_shear #
lump $-1 $-1 $23 $2 #
transform $-1 1 0 0 0 1 0 0 0 1 61.564378795739614 36.519455155817447 16.739746104429191 1 rotate no_reflect no_shear #
lump $-1 $-1 $24 $3 #
transform $-1 1 0 0 0 1 0 0 0 1 61.564378795739614 36.519455155817447 16.739746104429191 1 rotate no_reflect no_shear #
lump $-1 $-1 $25 $4 #
transform $-1 1 0 0 0 1 0 0 0 1 61.564378795739614 36.519455155817447 16.739746104429191 1 rotate no_reflect no_shear #
lump $-1 $-1 $26 $5 #
transform $-1 1 0 0 0 1 0 0 0 1 61.564378795739614 36.519455155817447 16.739746104429191 1 rotate no_reflect no_shear #
lump $-1 $-1 $27 $6 #
transform $-1 1 0 0 0 1 0 0 0 1 61.564378795739614 36.519455155817447 16.739746104429191 1 rotate no_reflect no_shear #
shell $-1 $-1 $-1 $28 $-1 $7 #
shell $-1 $-1 $-1 $29 $-1 $9 #
shell $-1 $-1 $-1 $30 $-1 $11 #
shell $-1 $-1 $-1 $31 $-1 $13 #
shell $-1 $-1 $-1 $32 $-1 $15 #
shell $-1 $-1 $-1 $33 $-1 $17 #
shell $-1 $-1 $-1 $34 $-1 $19 #
face $-1 $35 $36 $21 $-1 $37 forward single #
face $-1 $38 $39 $22 $-1 $40 reversed single #
face $-1 $41 $42 $23 $-1 $43 reversed single #
face $-1 $44 $45 $24 $-1 $46 forward single #
face $-1 $47 $48 $25 $-1 $49 reversed single #
face $-1 $50 $51 $26 $-1 $52 forward single #
face $-1 $53 $54 $27 $-1 $55 forward single #
face $-1 $56 $57 $21 $-1 $58 reversed single #
loop $-1 $-1 $59 $28 #
plane-surface $-1 0 0 16.739746104429191 0 0 1 1 0 0 forward_v I I I I #
face $-1 $60 $61 $22 $-1 $62 reversed single #
loop $-1 $-1 $63 $29 #
plane-surface $-1 -53.777140047541813 0 7.3821018466445469 0 0 1 1 0 0 forward_v I I I I #
face $-1 $64 $65 $23 $-1 $66 reversed single #
loop $-1 $-1 $67 $30 #
plane-surface $-1 29.921750067305041 62.176024449763311 152.43545725268265 1 0 0 0 -0.6560590369687036 -0.75470957328743171 forward_v I I I I #
face $-1 $68 $69 $24 $-1 $70 forward single #
loop $-1 $71 $72 $31 #
cone-surface $-1 45.743064431522328 33.230044898723818 13.788102261126406 0 -0.6560590369687036 -0.75470957328743171 0.5 0 0 1 I I 0 1 0.5 forward I I I I #
face $-1 $73 $74 $25 $-1 $75 reversed single #
loop $-1 $-1 $76 $32 #
plane-surface $-1 -1.0422610968406509 -98.083834776364142 110.95830128794536 -1 0 0 0 -0.50000000669873634 0.8660253999169214 forward_v I I I I #
face $-1 $77 $78 $26 $-1 $79 forward single #
loop $-1 $80 $81 $33 #
cone-surface $-1 -21.349743734938357 -24.486467263185883 8.3120757654817812 0 0.50000000669873634 -0.8660253999169214 2.5 0 0 1 I I 0 1 2.5 forward I I I I #
face $-1 $82 $83 $27 $-1 $84 forward single #
loop $-1 $85 $86 $34 #
cone-surface $-1 -9.1652541520797328 -24.486467263185883 8.3120757654817812 0 0.50000000669873634 -0.8660253999169214 2.5 0 0 1 I I 0 1 2.5 forward I I I I #
face $-1 $87 $88 $21 $-1 $89 reversed single #
loop $-1 $-1 $90 $35 #
plane-surface $-1 0 0 -16.739746104429191 0 0 1 1 0 0 forward_v I I I I #
coedge $-1 $91 $92 $93 $94 forward $36 $-1 #
face $-1 $95 $96 $22 $-1 $97 reversed single #
loop $-1 $-1 $98 $38 #
plane-surface $-1 -45.989901299344012 0 12.06092397553687 -1 0 0 0 0 1 forward_v I I I I #
coedge $-1 $99 $100 $101 $102 forward $39 $-1 #
face $-1 $103 $104 $23 $-1 $105 forward single #
loop $-1 $-1 $106 $41 #
plane-surface $-1 45.743064431522328 -18.603709678855502 59.509005151405745 0 0.6560590369687036 0.75470957328743171 1 0 0 forward_v I I I I #
coedge $-1 $107 $108 $109 $110 reversed $42 $-1 #
face $-1 $-1 $111 $24 $-1 $112 forward single #
loop $-1 $113 $114 $44 #
cone-surface $-1 45.743064431522328 32.73800062099729 13.222070081160833 0 -0.6560590369687036 -0.75470957328743171 0.25 0 0 1 I I -0.70710678118654746 0.70710678118654746 0.25 forward I I I I #
loop $-1 $-1 $115 $31 #
coedge $-1 $72 $72 $116 $117 reversed $45 $-1 #
face $-1 $118 $119 $25 $-1 $120 reversed single #
loop $-1 $-1 $121 $47 #
plane-surface $-1 -15.257498943509049 -36.519455155817447 4.3256697535108941 0 -0.50000000669873634 0.8660253999169214 1 0 0 forward_v I I I I #
coedge $-1 $122 $123 $124 $125 reversed $48 $-1 #
face $-1 $-1 $126 $26 $-1 $127 forward single #
loop $-1 $128 $129 $50 #
cone-surface $-1 -21.349743734938357 -22.579384654549155 5.0089118520973734 0 0.50000000669873634 -0.8660253999169214 1.25 0 0 1 I I -0.70710678118654746 0.70710678118654746 1.25 forward I I I I #
loop $-1 $-1 $130 $33 #
coedge $-1 $81 $81 $131 $132 reversed $51 $-1 #
face $-1 $-1 $133 $27 $-1 $134 forward single #
loop $-1 $135 $136 $53 #
cone-surface $-1 -9.1652541520797328 -22.579384654549155 5.0089118520973734 0 0.50000000669873634 -0.8660253999169214 1.25 0 0 1 I I -0.70710678118654746 0.70710678118654746 1.25 forward I I I I #
loop $-1 $-1 $137 $34 #
coedge $-1 $86 $86 $138 $139 reversed $54 $-1 #
face $-1 $140 $141 $21 $-1 $142 reversed single #
loop $-1 $-1 $143 $56 #
plane-surface $-1 0 -36.519455155817447 0 0 1 0 0 0 1 forward_v I I I I #
coedge $-1 $144 $145 $146 $147 forward $57 $-1 #
coedge $-1 $148 $59 $149 $150 forward $36 $-1 #
coedge $-1 $59 $148 $151 $152 forward $36 $-1 #
coedge $-1 $153 $154 $59 $94 reversed $155 $-1 #
edge $-1 $156 -36.519455155817447 $157 36.519455155817447 $93 $158 forward 7 unknown #
face $-1 $159 $160 $22 $-1 $161 reversed single #
loop $-1 $-1 $162 $60 #
plane-surface $-1 0 36.519455155817447 0 0 -1 0 0 0 -1 forward_v I I I I #
coedge $-1 $101 $163 $164 $165 reversed $61 $-1 #
coedge $-1 $166 $63 $167 $168 reversed $39 $-1 #
coedge $-1 $63 $166 $169 $170 reversed $39 $-1 #
coedge $-1 $171 $98 $63 $102 reversed $61 $-1 #
edge $-1 $172 -36.519455155817447 $173 36.519455155817447 $101 $174 forward 7 unknown #
face $-1 $175 $176 $23 $-1 $177 reversed single #
loop $-1 $-1 $109 $64 #
plane-surface $-1 0 0 16.739746104429191 0 0 1 1 0 0 forward_v I I I I #
coedge $-1 $178 $179 $180 $181 reversed $65 $-1 #
coedge $-1 $108 $67 $182 $183 reversed $42 $-1 #
coedge $-1 $67 $107 $178 $184 reversed $42 $-1 #
coedge $-1 $180 $185 $67 $110 forward $104 $-1 #
edge $-1 $186 -5.4314429309357912 $187 0.49131854628275917 $109 $188 forward 7 unknown #
loop $-1 $-1 $116 $68 #
plane-surface $-1 45.743064431522328 -18.603709678855502 59.509005151405745 0 0.6560590369687036 0.75470957328743171 1 0 0 forward_v I I I I #
loop $-1 $-1 $189 $44 #
coedge $-1 $114 $114 $115 $190 reversed $69 $-1 #
coedge $-1 $115 $115 $114 $190 forward $71 $-1 #
coedge $-1 $116 $116 $72 $117 forward $111 $-1 #
edge $-1 $191 0 $191 6.2831853071796004 $116 $192 forward 7 unknown #
face $-1 $193 $194 $25 $-1 $195 reversed single #
loop $-1 $-1 $196 $73 #
plane-surface $-1 -29.472736790177446 -98.083834776364142 110.95830128794536 1 0 0 0 0.50000000669873634 -0.8660253999169214 forward_v I I I I #
coedge $-1 $197 $198 $199 $200 reversed $74 $-1 #
coedge $-1 $123 $76 $201 $202 reversed $48 $-1 #
coedge $-1 $76 $122 $197 $203 reversed $48 $-1 #
coedge $-1 $199 $204 $76 $125 forward $205 $-1 #
edge $-1 $206 12.522462232364624 $207 34.024272817101135 $124 $208 forward 7 unknown #
loop $-1 $-1 $131 $77 #
plane-surface $-1 -15.257498943509049 -36.519455155817447 4.3256697535108941 0 -0.50000000669873634 0.8660253999169214 1 0 0 forward_v I I I I #
loop $-1 $-1 $209 $50 #
coedge $-1 $129 $129 $130 $210 reversed $78 $-1 #
coedge $-1 $130 $130 $129 $210 forward $80 $-1 #
coedge $-1 $131 $131 $81 $132 forward $126 $-1 #
edge $-1 $211 5.2015336850983126e-016 $211 6.2831853071796013 $131 $212 forward 7 unknown #
loop $-1 $-1 $138 $82 #
plane-surface $-1 -15.257498943509049 -36.519455155817447 4.3256697535108941 0 -0.50000000669873634 0.8660253999169214 1 0 0 forward_v I I I I #
loop $-1 $-1 $213 $53 #
coedge $-1 $136 $136 $137 $214 reversed $83 $-1 #
coedge $-1 $137 $137 $136 $214 forward $85 $-1 #
coedge $-1 $138 $138 $86 $139 forward $133 $-1 #
edge $-1 $215 5.2015336850983126e-016 $215 6.2831853071796013 $138 $216 forward 7 unknown #
face $-1 $217 $218 $21 $-1 $219 reversed single #
loop $-1 $-1 $220 $87 #
plane-surface $-1 -61.564378795739614 0 0 1 0 0 0 0 -1 forward_v I I I I #
coedge $-1 $221 $151 $222 $223 forward $88 $-1 #
coedge $-1 $224 $90 $221 $225 forward $57 $-1 #
coedge $-1 $90 $224 $226 $227 forward $57 $-1 #
coedge $-1 $154 $153 $90 $147 reversed $155 $-1 #
edge $-1 $228 -36.519455155817447 $229 36.519455155817447 $146 $230 forward 7 unknown #
coedge $-1 $92 $91 $231 $232 forward $36 $-1 #
coedge $-1 $233 $234 $91 $150 reversed $218 $-1 #
edge $-1 $157 -61.564378795739614 $235 61.564378795739614 $149 $236 forward 7 unknown #
coedge $-1 $143 $237 $92 $152 reversed $88 $-1 #
edge $-1 $238 -61.564378795739614 $156 61.564378795739614 $151 $239 forward 7 unknown #
coedge $-1 $146 $93 $237 $240 forward $155 $-1 #
coedge $-1 $93 $146 $233 $241 reversed $155 $-1 #
loop $-1 $-1 $153 $217 #
vertex $-1 $94 $242 #
vertex $-1 $94 $243 #
straight-curve $-1 61.564378795739614 0 16.739746104429191 0 1 0 I I #
face $-1 $244 $245 $22 $-1 $246 forward single #
loop $-1 $-1 $247 $95 #
plane-surface $-1 -61.564378795739614 0 0 1 0 0 0 0 -1 forward_v I I I I #
coedge $-1 $169 $248 $171 $249 forward $96 $-1 #
coedge $-1 $98 $171 $250 $251 reversed $61 $-1 #
coedge $-1 $252 $167 $98 $165 forward $253 $-1 #
edge $-1 $173 1.351639858876112 $254 10.70928411666076 $164 $255 forward 7 unknown #
coedge $-1 $100 $99 $247 $256 reversed $39 $-1 #
coedge $-1 $164 $257 $99 $168 forward $253 $-1 #
edge $-1 $258 -34.675808771968704 $173 -19.101331275573106 $167 $259 forward 7 unknown #
coedge $-1 $260 $162 $100 $170 forward $96 $-1 #
edge $-1 $172 19.101331275573106 $261 34.675808771968704 $169 $262 forward 7 unknown #
coedge $-1 $163 $101 $162 $249 reversed $61 $-1 #
vertex $-1 $170 $263 #
vertex $-1 $168 $264 #
straight-curve $-1 -45.989901299344012 0 7.3821018466445469 0 -1 0 I I #
face $-1 $-1 $265 $23 $-1 $266 reversed single #
loop $-1 $-1 $267 $103 #
plane-surface $-1 61.564378795739614 0 0 -1 0 0 0 0 1 forward_v I I I I #
coedge $-1 $268 $106 $108 $184 forward $65 $-1 #
coedge $-1 $106 $268 $267 $269 reversed $65 $-1 #
coedge $-1 $270 $109 $106 $181 forward $104 $-1 #
edge $-1 $187 7.0502178515438771 $271 38.69284657997845 $180 $272 forward 7 unknown #
coedge $-1 $273 $274 $107 $183 forward $265 $-1 #
edge $-1 $275 -64.626560635230263 $186 -59.477982521912139 $182 $276 forward 7 unknown #
edge $-1 $187 65.191174325698384 $275 73.038910311634865 $108 $277 forward 7 unknown #
coedge $-1 $109 $270 $273 $278 forward $104 $-1 #
vertex $-1 $183 $279 #
vertex $-1 $110 $280 #
straight-curve $-1 29.921750067305041 31.088012224881655 16.739746104429187 0 -1 0 I I #
coedge $-1 $189 $189 $-1 $281 reversed $113 $-1 #
edge $-1 $282 0 $282 6.2831853071796004 $114 $283 forward 7 unknown #
vertex $-1 $117 $284 #
ellipse-curve $-1 45.743064431522328 33.558074417208168 14.165457047770122 0 0.6560590369687036 0.75470957328743171 0.5 0 0 1 I I #
face $-1 $-1 $205 $25 $-1 $285 forward single #
loop $-1 $-1 $286 $118 #
plane-surface $-1 0 -36.519455155817447 0 0 1 0 0 0 1 forward_v I I I I #
coedge $-1 $287 $288 $289 $290 reversed $119 $-1 #
coedge $-1 $291 $121 $123 $203 forward $74 $-1 #
coedge $-1 $121 $291 $287 $292 forward $74 $-1 #
coedge $-1 $289 $124 $121 $200 forward $205 $-1 #
edge $-1 $207 -6.5864883749138734 $293 21.843987318422922 $199 $294 forward 7 unknown #
coedge $-1 $295 $296 $122 $202 forward $194 $-1 #
edge $-1 $297 -51.153480890461786 $206 -38.739404539543486 $201 $298 forward 7 unknown #
edge $-1 $207 -24.828152369202101 $297 0 $123 $299 forward 7 unknown #
coedge $-1 $124 $289 $295 $300 forward $205 $-1 #
loop $-1 $-1 $289 $193 #
vertex $-1 $202 $301 #
vertex $-1 $125 $302 #
straight-curve $-1 -1.0422610968406509 -49.041917388182071 16.739746104429187 0 1 0 I I #
coedge $-1 $209 $209 $-1 $303 reversed $128 $-1 #
edge $-1 $304 0 $304 6.2831853071796004 $129 $305 forward 7 unknown #
vertex $-1 $132 $306 #
ellipse-curve $-1 -21.349743734938357 -25.768549863449195 10.532707928970042 0 -0.50000000669873634 0.8660253999169214 2.5 0 0 1 I I #
coedge $-1 $213 $213 $-1 $307 reversed $135 $-1 #
edge $-1 $308 0 $308 6.2831853071796004 $136 $309 forward 7 unknown #
vertex $-1 $139 $310 #
ellipse-curve $-1 -9.1652541520797328 -25.768549863449195 10.532707928970042 0 -0.50000000669873634 0.8660253999169214 2.5 0 0 1 I I #
face $-1 $-1 $155 $21 $-1 $311 reversed single #
loop $-1 $-1 $233 $140 #
plane-surface $-1 0 36.519455155817447 0 0 -1 0 0 0 -1 forward_v I I I I #
coedge $-1 $312 $231 $234 $313 forward $141 $-1 #
coedge $-1 $237 $143 $144 $225 reversed $88 $-1 #
coedge $-1 $231 $312 $143 $223 reversed $141 $-1 #
edge $-1 $238 -16.739746104429191 $314 16.739746104429191 $222 $315 forward 7 unknown #
coedge $-1 $145 $144 $312 $316 forward $57 $-1 #
edge $-1 $229 -61.564378795739614 $314 61.564378795739614 $221 $317 forward 7 unknown #
coedge $-1 $234 $233 $145 $227 reversed $218 $-1 #
edge $-1 $318 -61.564378795739614 $228 61.564378795739614 $226 $319 forward 7 unknown #
vertex $-1 $147 $320 #
vertex $-1 $240 $321 #
straight-curve $-1 61.564378795739614 0 -16.739746104429191 0 -1 0 I I #
coedge $-1 $220 $222 $148 $232 reversed $141 $-1 #
edge $-1 $235 -36.519455155817447 $238 36.519455155817447 $231 $322 forward 7 unknown #
coedge $-1 $226 $149 $154 $241 forward $218 $-1 #
coedge $-1 $149 $226 $220 $313 reversed $218 $-1 #
vertex $-1 $150 $323 #
straight-curve $-1 0 36.519455155817447 16.739746104429191 -1 0 0 I I #
coedge $-1 $151 $221 $153 $240 reversed $88 $-1 #
vertex $-1 $232 $324 #
straight-curve $-1 0 -36.519455155817447 16.739746104429191 1 0 0 I I #
edge $-1 $156 -16.739746104429191 $229 16.739746104429191 $153 $325 forward 7 unknown #
edge $-1 $157 -16.739746104429191 $228 16.739746104429191 $154 $326 forward 7 unknown #
point $-1 61.564378795739614 -36.519455155817447 16.739746104429191 #
point $-1 61.564378795739614 36.519455155817447 16.739746104429191 #
face $-1 $-1 $253 $22 $-1 $327 reversed single #
loop $-1 $-1 $250 $159 #
plane-surface $-1 0 0 16.739746104429191 0 0 1 1 0 0 forward_v I I I I #
coedge $-1 $328 $329 $166 $256 forward $160 $-1 #
coedge $-1 $162 $260 $330 $331 reversed $96 $-1 #
edge $-1 $332 -10.70928411666076 $172 -1.351639858876112 $162 $333 forward 7 unknown #
coedge $-1 $330 $334 $163 $251 forward $245 $-1 #
edge $-1 $254 -36.519455155817447 $332 36.519455155817447 $250 $335 forward 7 unknown #
coedge $-1 $257 $164 $334 $336 reversed $253 $-1 #
loop $-1 $-1 $164 $244 #
vertex $-1 $165 $337 #
straight-curve $-1 -45.989901299344012 -36.519455155817447 6.0304619877684349 0 0 1 I I #
edge $-1 $261 -36.519455155817447 $258 36.519455155817447 $247 $338 forward 7 unknown #
coedge $-1 $167 $252 $328 $339 forward $253 $-1 #
vertex $-1 $256 $340 #
straight-curve $-1 -26.888570023770907 -36.519455155817447 7.3821018466445469 1 0 0 I I #
coedge $-1 $248 $169 $329 $341 reversed $96 $-1 #
vertex $-1 $256 $342 #
straight-curve $-1 -26.888570023770907 36.519455155817447 7.3821018466445469 -1 0 0 I I #
point $-1 -45.989901299344012 36.519455155817447 7.3821018466445469 #
point $-1 -45.989901299344012 -36.519455155817447 7.3821018466445469 #
loop $-1 $-1 $182 $175 #
plane-surface $-1 0 36.519455155817447 0 0 -1 0 0 0 -1 forward_v I I I I #
coedge $-1 $343 $344 $179 $269 forward $176 $-1 #
coedge $-1 $179 $178 $274 $345 reversed $65 $-1 #
edge $-1 $271 38.650265123753798 $346 46.498001109690279 $267 $347 forward 7 unknown #
coedge $-1 $185 $180 $344 $348 forward $104 $-1 #
vertex $-1 $348 $349 #
straight-curve $-1 22.871532215761164 30.596693678598893 16.739746104429198 1 0 0 I I #
coedge $-1 $350 $182 $185 $278 reversed $265 $-1 #
coedge $-1 $182 $350 $268 $345 forward $265 $-1 #
vertex $-1 $183 $351 #
straight-curve $-1 29.921750067305041 36.519455155817447 76.217728626341327 0 0 1 I I #
straight-curve $-1 29.921750067305041 -18.603709678855502 59.509005151405745 0 0.75470957328743171 -0.6560590369687036 I I #
edge $-1 $352 -61.564378795739614 $186 -29.921750067305041 $273 $353 forward 7 unknown #
point $-1 29.921750067305041 36.519455155817447 16.739746104429191 #
point $-1 29.921750067305041 30.596693678598896 16.739746104429187 #
edge $-1 $354 1 $354 0 $189 $-1 forward 7 unknown #
vertex $-1 $190 $355 #
ellipse-curve $-1 45.743064431522328 32.902015380239469 13.41074747448269 0 0.6560590369687036 0.75470957328743171 0.5 0 0 1 I I #
point $-1 46.243064431522328 33.558074417208168 14.165457047770122 #
plane-surface $-1 0 0 16.739746104429191 0 0 1 1 0 0 forward_v I I I I #
coedge $-1 $296 $295 $288 $356 forward $194 $-1 #
coedge $-1 $288 $196 $198 $292 reversed $119 $-1 #
coedge $-1 $196 $287 $286 $356 reversed $119 $-1 #
coedge $-1 $204 $199 $196 $290 forward $205 $-1 #
edge $-1 $293 -34.024272817101135 $357 -12.522462232364624 $289 $358 forward 7 unknown #
coedge $-1 $198 $197 $296 $359 reversed $74 $-1 #
edge $-1 $360 0 $293 24.828152369202101 $287 $361 forward 7 unknown #
vertex $-1 $200 $362 #
straight-curve $-1 -7.6287494717545243 -15.017644571080938 16.739746104429191 -1 0 0 I I #
coedge $-1 $286 $201 $204 $300 reversed $194 $-1 #
coedge $-1 $201 $286 $291 $359 forward $194 $-1 #
vertex $-1 $202 $363 #
straight-curve $-1 -1.0422610968406509 -36.519455155817447 55.47915064397268 0 0 1 I I #
straight-curve $-1 -1.0422610968406509 -36.519455155817447 4.3256697535108941 0 -0.8660253999169214 -0.50000000669873634 I I #
edge $-1 $357 -29.472736790177446 $206 -1.0422610968406509 $295 $364 forward 7 unknown #
point $-1 -1.0422610968406509 -36.519455155817447 16.739746104429191 #
point $-1 -1.0422610968406509 -15.017644571080936 16.739746104429191 #
edge $-1 $365 1 $365 0 $209 $-1 forward 7 unknown #
vertex $-1 $210 $366 #
ellipse-curve $-1 -21.349743734938357 -23.204384662922575 6.0914436019935252 0 -0.50000000669873634 0.8660253999169214 2.5 0 0 1 I I #
point $-1 -18.849743734938357 -25.768549863449191 10.532707928970039 #
edge $-1 $367 1 $367 0 $213 $-1 forward 7 unknown #
vertex $-1 $214 $368 #
ellipse-curve $-1 -9.1652541520797328 -23.204384662922575 6.0914436019935252 0 -0.50000000669873634 0.8660253999169214 2.5 0 0 1 I I #
point $-1 -6.6652541520797328 -25.768549863449191 10.532707928970039 #
plane-surface $-1 61.564378795739614 0 0 -1 0 0 0 0 1 forward_v I I I I #
coedge $-1 $222 $220 $224 $316 reversed $141 $-1 #
edge $-1 $235 -16.739746104429191 $318 16.739746104429191 $234 $369 forward 7 unknown #
vertex $-1 $316 $370 #
straight-curve $-1 -61.564378795739614 -36.519455155817447 0 0 0 -1 I I #
edge $-1 $314 -36.519455155817447 $318 36.519455155817447 $312 $371 forward 7 unknown #
straight-curve $-1 0 -36.519455155817447 -16.739746104429191 -1 0 0 I I #
vertex $-1 $227 $372 #
straight-curve $-1 0 36.519455155817447 -16.739746104429191 1 0 0 I I #
point $-1 61.564378795739614 36.519455155817447 -16.739746104429191 #
point $-1 61.564378795739614 -36.519455155817447 -16.739746104429191 #
straight-curve $-1 -61.564378795739614 0 16.739746104429191 0 -1 0 I I #
point $-1 -61.564378795739614 36.519455155817447 16.739746104429191 #
point $-1 -61.564378795739614 -36.519455155817447 16.739746104429191 #
straight-curve $-1 61.564378795739614 -36.519455155817447 0 0 0 -1 I I #
straight-curve $-1 61.564378795739614 36.519455155817447 0 0 0 -1 I I #
plane-surface $-1 0 -36.519455155817447 0 0 1 0 0 0 1 forward_v I I I I #
coedge $-1 $373 $247 $257 $339 reversed $160 $-1 #
coedge $-1 $247 $373 $260 $341 forward $160 $-1 #
coedge $-1 $374 $250 $248 $331 forward $245 $-1 #
edge $-1 $332 45.989901299344012 $375 61.564378795739614 $248 $376 forward 7 unknown #
vertex $-1 $331 $377 #
straight-curve $-1 -45.989901299344012 36.519455155817447 6.0304619877684349 0 0 -1 I I #
coedge $-1 $250 $374 $252 $336 forward $245 $-1 #
straight-curve $-1 -45.989901299344012 0 16.739746104429191 0 1 0 I I #
edge $-1 $378 -61.564378795739614 $254 -45.989901299344012 $252 $379 forward 7 unknown #
point $-1 -45.989901299344012 -36.519455155817447 16.739746104429194 #
straight-curve $-1 -61.564378795739614 0 7.3821018466445469 0 -1 0 I I #
edge $-1 $378 -16.739746104429191 $258 -7.3821018466445469 $328 $380 forward 7 unknown #
point $-1 -61.564378795739614 -36.519455155817447 7.3821018466445469 #
edge $-1 $375 -16.739746104429191 $261 -7.3821018466445469 $260 $381 forward 7 unknown #
point $-1 -61.564378795739614 36.519455155817447 7.3821018466445469 #
coedge $-1 $344 $267 $350 $382 reversed $176 $-1 #
coedge $-1 $267 $343 $270 $348 reversed $176 $-1 #
edge $-1 $346 -38.69284657997845 $275 -7.0502178515438771 $274 $383 forward 7 unknown #
vertex $-1 $269 $384 #
straight-curve $-1 61.564378795739614 1.4269685796045675 42.096601820104176 0 0.75470957328743171 -0.6560590369687036 I I #
edge $-1 $271 30.596693678598896 $352 36.519455155817447 $344 $385 forward 7 unknown #
point $-1 61.564378795739614 30.596693678598896 16.739746104429187 #
coedge $-1 $274 $273 $343 $382 forward $265 $-1 #
point $-1 29.921750067305041 36.51945515581744 11.591167991111064 #
vertex $-1 $348 $386 #
straight-curve $-1 0 36.519455155817447 16.739746104429191 -1 0 0 I I #
vertex $-1 $281 $387 #
point $-1 46.243064431522328 32.902015380239469 13.41074747448269 #
edge $-1 $357 38.739404539543486 $360 51.153480890461786 $286 $388 forward 7 unknown #
vertex $-1 $300 $389 #
straight-curve $-1 -29.472736790177446 -49.041917388182071 16.739746104429187 0 -1 0 I I #
edge $-1 $360 -21.843987318422922 $297 6.5864883749138734 $296 $390 forward 7 unknown #
vertex $-1 $359 $391 #
straight-curve $-1 -29.472736790177446 -36.519455155817447 4.3256697535108941 0 0.8660253999169214 0.50000000669873634 I I #
point $-1 -29.472736790177446 -15.017644571080936 16.739746104429191 #
point $-1 -1.0422610968406509 -36.519455155817447 4.3256697535108941 #
straight-curve $-1 0 -36.519455155817447 16.739746104429191 1 0 0 I I #
vertex $-1 $303 $392 #
point $-1 -18.849743734938357 -23.204384662922575 6.0914436019935252 #
vertex $-1 $307 $393 #
point $-1 -6.6652541520797328 -23.204384662922575 6.0914436019935252 #
straight-curve $-1 -61.564378795739614 36.519455155817447 0 0 0 -1 I I #
point $-1 -61.564378795739614 -36.519455155817447 -16.739746104429191 #
straight-curve $-1 -61.564378795739614 0 -16.739746104429191 0 1 0 I I #
point $-1 -61.564378795739614 36.519455155817447 -16.739746104429191 #
coedge $-1 $329 $328 $374 $394 reversed $160 $-1 #
coedge $-1 $334 $330 $373 $394 forward $245 $-1 #
vertex $-1 $331 $395 #
straight-curve $-1 0 36.519455155817447 16.739746104429191 -1 0 0 I I #
point $-1 -45.989901299344012 36.519455155817447 16.739746104429194 #
vertex $-1 $394 $396 #
straight-curve $-1 0 -36.519455155817447 16.739746104429191 1 0 0 I I #
straight-curve $-1 -61.564378795739614 -36.519455155817447 0 0 0 -1 I I #
straight-curve $-1 -61.564378795739614 36.519455155817447 0 0 0 -1 I I #
edge $-1 $352 -16.739746104429191 $346 -11.591167991111064 $343 $397 forward 7 unknown #
straight-curve $-1 22.871532215761164 36.519455155817447 11.591167991111057 -1 0 0 I I #
point $-1 61.564378795739614 36.51945515581744 11.591167991111064 #
straight-curve $-1 61.564378795739614 0 16.739746104429191 0 1 0 I I #
point $-1 61.564378795739614 36.519455155817447 16.739746104429191 #
point $-1 45.743064431522328 32.573985861755112 13.033392687838976 #
straight-curve $-1 -29.472736790177446 -36.519455155817447 55.47915064397268 0 0 -1 I I #
point $-1 -29.472736790177446 -36.519455155817447 16.739746104429191 #
straight-curve $-1 -7.6287494717545243 -36.519455155817447 4.3256697535108941 1 0 0 I I #
point $-1 -29.472736790177446 -36.519455155817447 4.3256697535108941 #
point $-1 -21.349743734938357 -21.954384646175736 3.9263801022012217 #
point $-1 -9.1652541520797328 -21.954384646175736 3.9263801022012217 #
edge $-1 $375 -36.519455155817447 $378 36.519455155817447 $373 $398 forward 7 unknown #
point $-1 -61.564378795739614 36.519455155817447 16.739746104429191 #
point $-1 -61.564378795739614 -36.519455155817447 16.739746104429191 #
straight-curve $-1 61.564378795739614 36.519455155817447 0 0 0 -1 I I #
straight-curve $-1 -61.564378795739614 0 16.739746104429191 0 -1 0 I I #
End-of-ACIS-data 