500 0 6 0           
7 Unknown 11 ACIS 5.0 NT 24 Fri Mar 26 18:38:17 1999 
-1 9.9999999999999995e-007 1e-010 
body $-1 $6 $-1 $7 #
body $-1 $8 $-1 $9 #
body $-1 $10 $-1 $11 #
body $-1 $12 $-1 $13 #
body $-1 $14 $-1 $15 #
body $-1 $16 $-1 $17 #
lump $-1 $-1 $18 $0 #
transform $-1 1 0 0 0 1 0 0 0 1 47.016815698721274 29.257554108098592 13.390686153866506 1 rotate no_reflect no_shear #
lump $-1 $-1 $19 $1 #
transform $-1 1 0 0 0 1 0 0 0 1 47.016815698721274 29.257554108098592 13.390686153866506 1 rotate no_reflect no_shear #
lump $-1 $-1 $20 $2 #
transform $-1 1 0 0 0 1 0 0 0 1 47.016815698721274 29.257554108098592 13.390686153866506 1 rotate no_reflect no_shear #
lump $-1 $-1 $21 $3 #
transform $-1 1 0 0 0 1 0 0 0 1 47.016815698721274 29.257554108098592 13.390686153866506 1 rotate no_reflect no_shear #
lump $-1 $-1 $22 $4 #
transform $-1 1 0 0 0 1 0 0 0 1 47.016815698721274 29.257554108098592 13.390686153866506 1 rotate no_reflect no_shear #
lump $-1 $-1 $23 $5 #
transform $-1 1 0 0 0 1 0 0 0 1 47.016815698721274 29.257554108098592 13.390686153866506 1 rotate no_reflect no_shear #
shell $-1 $-1 $-1 $24 $-1 $6 #
shell $-1 $-1 $-1 $25 $-1 $8 #
shell $-1 $-1 $-1 $26 $-1 $10 #
shell $-1 $-1 $-1 $27 $-1 $12 #
shell $-1 $-1 $-1 $28 $-1 $14 #
shell $-1 $-1 $-1 $29 $-1 $16 #
face $-1 $30 $31 $18 $-1 $32 forward single #
face $-1 $33 $34 $19 $-1 $35 reversed single #
face $-1 $36 $37 $20 $-1 $38 reversed single #
face $-1 $39 $40 $21 $-1 $41 forward single #
face $-1 $42 $43 $22 $-1 $44 forward single #
face $-1 $45 $46 $23 $-1 $47 forward single #
face $-1 $48 $49 $18 $-1 $50 reversed single #
loop $-1 $-1 $51 $24 #
plane-surface $-1 0 0 13.390686153866506 0 0 1 1 0 0 forward_v I I I I #
face $-1 $52 $53 $19 $-1 $54 reversed single #
loop $-1 $-1 $55 $25 #
plane-surface $-1 -44.897607922968064 -12.132343019548696 0 0 -1 0 0 0 -1 forward_v I I I I #
face $-1 $56 $57 $20 $-1 $58 reversed single #
loop $-1 $-1 $59 $26 #
plane-surface $-1 -107.46046959774182 21.720630563149928 72.048210046353987 0 1 0 -0.64278761758704617 0 0.76604443648966558 forward_v I I I I #
face $-1 $60 $61 $21 $-1 $62 forward single #
loop $-1 $63 $64 $27 #
cone-surface $-1 -38.650461221671023 23.228015272139661 6.2309505078177665 0.64278761758704617 0 -0.76604443648966558 0.38302221824483279 0 0.32139380879352308 1 I I 0 1 0.5 forward I I I I #
face $-1 $65 $66 $22 $-1 $67 forward single #
loop $-1 $68 $69 $28 #
cone-surface $-1 -38.650461221671023 25.48909233562426 6.2309505078177665 0.64278761758704617 0 -0.76604443648966558 0.38302221824483279 0 0.32139380879352308 1 I I 0 1 0.5 forward I I I I #
face $-1 $70 $71 $23 $-1 $72 forward single #
loop $-1 $73 $74 $29 #
cone-surface $-1 -38.650461221671023 27.750169399108859 6.2309505078177665 0.64278761758704617 0 -0.76604443648966558 0.38302221824483279 0 0.32139380879352308 1 I I 0 1 0.5 forward I I I I #
face $-1 $75 $76 $18 $-1 $77 reversed single #
loop $-1 $-1 $78 $30 #
plane-surface $-1 0 0 -13.390686153866506 0 0 1 1 0 0 forward_v I I I I #
coedge $-1 $79 $80 $81 $82 forward $31 $-1 #
face $-1 $83 $84 $19 $-1 $85 forward single #
loop $-1 $-1 $86 $33 #
plane-surface $-1 -42.778400147214853 -20.694948563823644 0 -1 0 0 0 0 1 forward_v I I I I #
coedge $-1 $87 $88 $89 $90 forward $34 $-1 #
face $-1 $91 $92 $20 $-1 $93 reversed single #
loop $-1 $-1 $94 $36 #
plane-surface $-1 -47.01681569872126 25.48909233562426 0.014269871423181257 -0.64278761758704617 0 0.76604443648966558 0.76604443648966558 0 0.64278761758704617 forward_v I I I I #
coedge $-1 $95 $96 $97 $98 reversed $37 $-1 #
face $-1 $-1 $99 $21 $-1 $100 forward single #
loop $-1 $101 $102 $39 #
cone-surface $-1 -38.094105753596857 23.228015272139661 5.5679118938682617 0.64278761758704617 0 -0.76604443648966558 0.1915111091224164 0 0.16069690439676154 1 I I -0.70710678118654746 0.70710678118654746 0.25 forward I I I I #
loop $-1 $-1 $103 $27 #
coedge $-1 $64 $64 $104 $105 reversed $40 $-1 #
face $-1 $-1 $106 $22 $-1 $107 forward single #
loop $-1 $108 $109 $42 #
cone-surface $-1 -38.094105753596857 25.48909233562426 5.5679118938682617 0.64278761758704617 0 -0.76604443648966558 0.1915111091224164 0 0.16069690439676154 1 I I -0.70710678118654746 0.70710678118654746 0.25 forward I I I I #
loop $-1 $-1 $110 $28 #
coedge $-1 $69 $69 $111 $112 reversed $43 $-1 #
face $-1 $-1 $113 $23 $-1 $114 forward single #
loop $-1 $115 $116 $45 #
cone-surface $-1 -38.094105753596857 27.750169399108859 5.5679118938682617 0.64278761758704617 0 -0.76604443648966558 0.1915111091224164 0 0.16069690439676154 1 I I -0.70710678118654746 0.70710678118654746 0.25 forward I I I I #
loop $-1 $-1 $117 $29 #
coedge $-1 $74 $74 $118 $119 reversed $46 $-1 #
face $-1 $120 $121 $18 $-1 $122 reversed single #
loop $-1 $-1 $123 $48 #
plane-surface $-1 0 -29.257554108098592 0 0 1 0 0 0 1 forward_v I I I I #
coedge $-1 $124 $125 $126 $127 forward $49 $-1 #
coedge $-1 $128 $51 $129 $130 forward $31 $-1 #
coedge $-1 $51 $128 $131 $132 forward $31 $-1 #
coedge $-1 $133 $134 $51 $82 reversed $135 $-1 #
edge $-1 $136 -29.257554108098592 $137 29.257554108098592 $81 $138 forward 7 unknown #
face $-1 $139 $140 $19 $-1 $141 reversed single #
loop $-1 $-1 $142 $52 #
plane-surface $-1 0 0 13.390686153866506 0 0 1 1 0 0 forward_v I I I I #
coedge $-1 $143 $144 $145 $146 reversed $53 $-1 #
coedge $-1 $147 $55 $148 $149 reversed $34 $-1 #
coedge $-1 $55 $147 $150 $151 reversed $34 $-1 #
coedge $-1 $144 $143 $55 $90 reversed $53 $-1 #
edge $-1 $152 -13.390686153866506 $153 13.390686153866506 $89 $154 forward 7 unknown #
face $-1 $155 $156 $20 $-1 $157 reversed single #
loop $-1 $-1 $158 $56 #
plane-surface $-1 0 29.257554108098592 0 0 -1 0 0 0 -1 forward_v I I I I #
coedge $-1 $159 $160 $161 $162 reversed $57 $-1 #
coedge $-1 $96 $59 $163 $164 reversed $37 $-1 #
coedge $-1 $59 $95 $159 $165 reversed $37 $-1 #
coedge $-1 $161 $166 $59 $98 forward $167 $-1 #
edge $-1 $168 6.7134191001496362 $169 22.654810926895358 $97 $170 forward 7 unknown #
loop $-1 $-1 $104 $60 #
plane-surface $-1 -47.01681569872126 25.48909233562426 0.014269871423181257 -0.64278761758704617 0 0.76604443648966558 0.76604443648966558 0 0.64278761758704617 forward_v I I I I #
loop $-1 $-1 $171 $39 #
coedge $-1 $102 $102 $103 $172 reversed $61 $-1 #
coedge $-1 $103 $103 $102 $172 forward $63 $-1 #
coedge $-1 $104 $104 $64 $105 forward $99 $-1 #
edge $-1 $173 0 $173 6.2831853071796004 $104 $174 forward 7 unknown #
loop $-1 $-1 $111 $65 #
plane-surface $-1 -47.01681569872126 25.48909233562426 0.014269871423181257 -0.64278761758704617 0 0.76604443648966558 0.76604443648966558 0 0.64278761758704617 forward_v I I I I #
loop $-1 $-1 $175 $42 #
coedge $-1 $109 $109 $110 $176 reversed $66 $-1 #
coedge $-1 $110 $110 $109 $176 forward $68 $-1 #
coedge $-1 $111 $111 $69 $112 forward $106 $-1 #
edge $-1 $177 0 $177 6.2831853071796004 $111 $178 forward 7 unknown #
loop $-1 $-1 $118 $70 #
plane-surface $-1 -47.01681569872126 25.48909233562426 0.014269871423181257 -0.64278761758704617 0 0.76604443648966558 0.76604443648966558 0 0.64278761758704617 forward_v I I I I #
loop $-1 $-1 $179 $45 #
coedge $-1 $116 $116 $117 $180 reversed $71 $-1 #
coedge $-1 $117 $117 $116 $180 forward $73 $-1 #
coedge $-1 $118 $118 $74 $119 forward $113 $-1 #
edge $-1 $181 0 $181 6.2831853071796004 $118 $182 forward 7 unknown #
face $-1 $183 $184 $18 $-1 $185 reversed single #
loop $-1 $-1 $186 $75 #
plane-surface $-1 -47.016815698721274 0 0 1 0 0 0 0 -1 forward_v I I I I #
coedge $-1 $187 $131 $188 $189 forward $76 $-1 #
coedge $-1 $190 $78 $187 $191 forward $49 $-1 #
coedge $-1 $78 $190 $192 $193 forward $49 $-1 #
coedge $-1 $134 $133 $78 $127 reversed $135 $-1 #
edge $-1 $194 -29.257554108098592 $195 29.257554108098592 $126 $196 forward 7 unknown #
coedge $-1 $80 $79 $197 $198 forward $31 $-1 #
coedge $-1 $199 $200 $79 $130 reversed $184 $-1 #
edge $-1 $137 -47.016815698721274 $201 47.016815698721274 $129 $202 forward 7 unknown #
coedge $-1 $123 $203 $80 $132 reversed $76 $-1 #
edge $-1 $204 -47.016815698721274 $136 47.016815698721274 $131 $205 forward 7 unknown #
coedge $-1 $126 $81 $203 $206 forward $135 $-1 #
coedge $-1 $81 $126 $199 $207 reversed $135 $-1 #
loop $-1 $-1 $133 $183 #
vertex $-1 $82 $208 #
vertex $-1 $82 $209 #
straight-curve $-1 47.016815698721274 0 13.390686153866506 0 1 0 I I #
face $-1 $210 $211 $19 $-1 $212 reversed single #
loop $-1 $-1 $213 $83 #
plane-surface $-1 -47.016815698721274 0 0 1 0 0 0 0 -1 forward_v I I I I #
coedge $-1 $150 $214 $144 $215 forward $84 $-1 #
coedge $-1 $89 $86 $216 $217 reversed $53 $-1 #
coedge $-1 $86 $89 $142 $215 reversed $53 $-1 #
coedge $-1 $218 $219 $86 $146 forward $220 $-1 #
edge $-1 $221 -13.390686153866506 $222 13.390686153866506 $145 $223 forward 7 unknown #
coedge $-1 $88 $87 $213 $224 reversed $34 $-1 #
coedge $-1 $216 $225 $87 $149 forward $211 $-1 #
edge $-1 $226 -24.568011737237242 $153 -20.329596185730821 $148 $227 forward 7 unknown #
coedge $-1 $228 $142 $88 $151 forward $84 $-1 #
edge $-1 $152 20.329596185730821 $229 24.568011737237242 $150 $230 forward 7 unknown #
vertex $-1 $151 $231 #
vertex $-1 $149 $232 #
straight-curve $-1 -42.778400147214853 -12.132343019548696 0 0 0 -1 I I #
face $-1 $-1 $167 $20 $-1 $233 forward single #
loop $-1 $-1 $234 $91 #
plane-surface $-1 -47.016815698721274 0 0 1 0 0 0 0 -1 forward_v I I I I #
coedge $-1 $235 $236 $160 $237 forward $92 $-1 #
coedge $-1 $238 $94 $96 $165 forward $57 $-1 #
coedge $-1 $94 $238 $158 $237 reversed $57 $-1 #
coedge $-1 $239 $97 $94 $162 forward $167 $-1 #
edge $-1 $169 8.9760843953377982 $240 16.513007940286464 $161 $241 forward 7 unknown #
coedge $-1 $242 $234 $95 $164 forward $156 $-1 #
edge $-1 $243 -36.009835151753826 $168 -22.633418869310489 $163 $244 forward 7 unknown #
edge $-1 $169 -20.810009272824693 $243 1.855106017935436e-014 $96 $245 forward 7 unknown #
coedge $-1 $97 $239 $242 $246 forward $167 $-1 #
loop $-1 $-1 $161 $155 #
vertex $-1 $164 $247 #
vertex $-1 $98 $248 #
straight-curve $-1 -53.73023479887091 21.720630563149928 13.390686153866504 1 0 0 I I #
coedge $-1 $171 $171 $-1 $249 reversed $101 $-1 #
edge $-1 $250 0 $250 6.2831853071796004 $102 $251 forward 7 unknown #
vertex $-1 $105 $252 #
ellipse-curve $-1 -39.046119785348417 23.228015272139661 6.7024780126448364 -0.64278761758704617 0 0.76604443648966558 0.38302221824483279 0 0.32139380879352308 1 I I #
coedge $-1 $175 $175 $-1 $253 reversed $108 $-1 #
edge $-1 $254 0 $254 6.2831853071796004 $109 $255 forward 7 unknown #
vertex $-1 $112 $256 #
ellipse-curve $-1 -39.046119785348417 25.48909233562426 6.7024780126448364 -0.64278761758704617 0 0.76604443648966558 0.38302221824483279 0 0.32139380879352308 1 I I #
coedge $-1 $179 $179 $-1 $257 reversed $115 $-1 #
edge $-1 $258 0 $258 6.2831853071796004 $116 $259 forward 7 unknown #
vertex $-1 $119 $260 #
ellipse-curve $-1 -39.046119785348417 27.750169399108859 6.7024780126448364 -0.64278761758704617 0 0.76604443648966558 0.38302221824483279 0 0.32139380879352308 1 I I #
face $-1 $-1 $135 $18 $-1 $261 reversed single #
loop $-1 $-1 $199 $120 #
plane-surface $-1 0 29.257554108098592 0 0 -1 0 0 0 -1 forward_v I I I I #
coedge $-1 $262 $197 $200 $263 forward $121 $-1 #
coedge $-1 $203 $123 $124 $191 reversed $76 $-1 #
coedge $-1 $197 $262 $123 $189 reversed $121 $-1 #
edge $-1 $204 -13.390686153866506 $264 13.390686153866506 $188 $265 forward 7 unknown #
coedge $-1 $125 $124 $262 $266 forward $49 $-1 #
edge $-1 $195 -47.016815698721274 $264 47.016815698721274 $187 $267 forward 7 unknown #
coedge $-1 $200 $199 $125 $193 reversed $184 $-1 #
edge $-1 $268 -47.016815698721274 $194 47.016815698721274 $192 $269 forward 7 unknown #
vertex $-1 $127 $270 #
vertex $-1 $206 $271 #
straight-curve $-1 47.016815698721274 0 -13.390686153866506 0 -1 0 I I #
coedge $-1 $186 $188 $128 $198 reversed $121 $-1 #
edge $-1 $201 -29.257554108098592 $204 29.257554108098592 $197 $272 forward 7 unknown #
coedge $-1 $192 $129 $134 $207 forward $184 $-1 #
coedge $-1 $129 $192 $186 $263 reversed $184 $-1 #
vertex $-1 $130 $273 #
straight-curve $-1 0 29.257554108098592 13.390686153866506 -1 0 0 I I #
coedge $-1 $131 $187 $133 $206 reversed $76 $-1 #
vertex $-1 $198 $274 #
straight-curve $-1 0 -29.257554108098592 13.390686153866506 1 0 0 I I #
edge $-1 $136 -13.390686153866506 $195 13.390686153866506 $133 $275 forward 7 unknown #
edge $-1 $137 -13.390686153866506 $194 13.390686153866506 $134 $276 forward 7 unknown #
point $-1 47.016815698721274 -29.257554108098592 13.390686153866506 #
point $-1 47.016815698721274 29.257554108098592 13.390686153866506 #
face $-1 $-1 $220 $19 $-1 $277 reversed single #
loop $-1 $-1 $216 $139 #
plane-surface $-1 0 0 -13.390686153866506 0 0 1 1 0 0 forward_v I I I I #
coedge $-1 $278 $279 $147 $224 forward $140 $-1 #
coedge $-1 $142 $228 $218 $280 forward $84 $-1 #
edge $-1 $222 -18.91007982618677 $152 -1.7848687376368737 $142 $281 forward 7 unknown #
coedge $-1 $282 $148 $143 $217 forward $211 $-1 #
edge $-1 $153 1.7848687376368737 $221 18.91007982618677 $216 $283 forward 7 unknown #
coedge $-1 $284 $145 $214 $280 reversed $220 $-1 #
coedge $-1 $145 $284 $282 $285 reversed $220 $-1 #
loop $-1 $-1 $145 $210 #
vertex $-1 $285 $286 #
vertex $-1 $146 $287 #
straight-curve $-1 -42.778400147214853 -29.257554108098592 0 0 0 1 I I #
edge $-1 $229 -13.390686153866506 $226 13.390686153866506 $213 $288 forward 7 unknown #
coedge $-1 $148 $282 $278 $289 forward $211 $-1 #
vertex $-1 $149 $290 #
straight-curve $-1 -22.448803961484032 -12.132343019548696 -13.390686153866506 1 0 0 I I #
coedge $-1 $214 $150 $279 $291 forward $84 $-1 #
vertex $-1 $291 $292 #
straight-curve $-1 -22.448803961484032 -12.132343019548696 13.390686153866506 -1 0 0 I I #
point $-1 -42.778400147214853 -12.132343019548696 13.390686153866506 #
point $-1 -42.778400147214853 -12.132343019548696 -13.390686153866506 #
plane-surface $-1 0 0 13.390686153866506 0 0 1 1 0 0 forward_v I I I I #
coedge $-1 $163 $293 $238 $294 forward $156 $-1 #
coedge $-1 $236 $158 $293 $295 reversed $92 $-1 #
coedge $-1 $158 $235 $239 $296 reversed $92 $-1 #
edge $-1 $240 -2.8061104774196872 $297 18.003898795405028 $158 $298 forward 7 unknown #
coedge $-1 $160 $159 $234 $294 reversed $57 $-1 #
coedge $-1 $166 $161 $236 $296 forward $167 $-1 #
vertex $-1 $296 $299 #
straight-curve $-1 -31.075423871975548 12.74454616781213 13.390686153866506 0 1 0 I I #
coedge $-1 $293 $163 $166 $246 reversed $156 $-1 #
vertex $-1 $164 $300 #
straight-curve $-1 -47.016815698721274 21.720630563149928 36.024105023176993 0 0 1 I I #
straight-curve $-1 -47.01681569872126 21.720630563149928 0.014269871423181257 -0.76604443648966558 0 -0.64278761758704617 I I #
edge $-1 $301 -29.257554108098592 $168 -21.720630563149928 $242 $302 forward 7 unknown #
point $-1 -47.016815698721274 21.720630563149928 13.390686153866506 #
point $-1 -31.075423871975552 21.720630563149928 13.390686153866506 #
edge $-1 $303 1 $303 0 $171 $-1 forward 7 unknown #
vertex $-1 $172 $304 #
ellipse-curve $-1 -38.254802657993615 23.228015272139661 5.7594230029906779 -0.64278761758704617 0 0.76604443648966558 0.38302221824483279 0 0.32139380879352308 1 I I #
point $-1 -38.663097567103598 23.228015272139661 7.0238718214383775 #
edge $-1 $305 1 $305 0 $175 $-1 forward 7 unknown #
vertex $-1 $176 $306 #
ellipse-curve $-1 -38.254802657993615 25.48909233562426 5.7594230029906779 -0.64278761758704617 0 0.76604443648966558 0.38302221824483279 0 0.32139380879352308 1 I I #
point $-1 -38.663097567103598 25.48909233562426 7.0238718214383775 #
edge $-1 $307 1 $307 0 $179 $-1 forward 7 unknown #
vertex $-1 $180 $308 #
ellipse-curve $-1 -38.254802657993615 27.750169399108859 5.7594230029906779 -0.64278761758704617 0 0.76604443648966558 0.38302221824483279 0 0.32139380879352308 1 I I #
point $-1 -38.663097567103598 27.750169399108859 7.0238718214383775 #
plane-surface $-1 47.016815698721274 0 0 -1 0 0 0 0 1 forward_v I I I I #
coedge $-1 $188 $186 $190 $266 reversed $121 $-1 #
edge $-1 $201 -13.390686153866506 $268 13.390686153866506 $200 $309 forward 7 unknown #
vertex $-1 $266 $310 #
straight-curve $-1 -47.016815698721274 -29.257554108098592 0 0 0 -1 I I #
edge $-1 $264 -29.257554108098592 $268 29.257554108098592 $262 $311 forward 7 unknown #
straight-curve $-1 0 -29.257554108098592 -13.390686153866506 -1 0 0 I I #
vertex $-1 $193 $312 #
straight-curve $-1 0 29.257554108098592 -13.390686153866506 1 0 0 I I #
point $-1 47.016815698721274 29.257554108098592 -13.390686153866506 #
point $-1 47.016815698721274 -29.257554108098592 -13.390686153866506 #
straight-curve $-1 -47.016815698721274 0 13.390686153866506 0 -1 0 I I #
point $-1 -47.016815698721274 29.257554108098592 13.390686153866506 #
point $-1 -47.016815698721274 -29.257554108098592 13.390686153866506 #
straight-curve $-1 47.016815698721274 -29.257554108098592 0 0 0 -1 I I #
straight-curve $-1 47.016815698721274 29.257554108098592 0 0 0 -1 I I #
plane-surface $-1 0 -29.257554108098592 0 0 1 0 0 0 1 forward_v I I I I #
coedge $-1 $313 $213 $225 $289 reversed $140 $-1 #
coedge $-1 $213 $313 $228 $291 reversed $140 $-1 #
edge $-1 $314 -47.016815698721274 $222 -42.778400147214853 $218 $315 forward 7 unknown #
straight-curve $-1 -42.778400147214853 -10.347474281911822 13.390686153866506 0 1 0 I I #
coedge $-1 $225 $216 $219 $285 forward $211 $-1 #
straight-curve $-1 -42.778400147214853 -10.347474281911822 -13.390686153866506 0 -1 0 I I #
coedge $-1 $219 $218 $313 $316 forward $220 $-1 #
edge $-1 $221 42.778400147214853 $317 47.016815698721274 $219 $318 forward 7 unknown #
point $-1 -42.778400147214853 -29.257554108098592 -13.390686153866506 #
point $-1 -42.778400147214853 -29.257554108098592 13.390686153866506 #
straight-curve $-1 -47.016815698721274 -12.132343019548696 0 0 0 -1 I I #
edge $-1 $317 -29.257554108098592 $226 -12.132343019548696 $278 $319 forward 7 unknown #
point $-1 -47.016815698721274 -12.132343019548696 -13.390686153866506 #
edge $-1 $229 12.132343019548696 $314 29.257554108098592 $279 $320 forward 7 unknown #
point $-1 -47.016815698721274 -12.132343019548696 13.390686153866506 #
coedge $-1 $234 $242 $235 $295 forward $156 $-1 #
edge $-1 $297 -16.513007940286464 $243 -8.9760843953377982 $234 $321 forward 7 unknown #
edge $-1 $301 -13.390686153866506 $297 -0.014269871423169333 $235 $322 forward 7 unknown #
edge $-1 $240 31.075423871975552 $301 47.016815698721274 $236 $323 forward 7 unknown #
vertex $-1 $294 $324 #
straight-curve $-1 -33.225029191378262 29.257554108098592 11.586953085399855 -0.76604443648966558 0 -0.64278761758704617 I I #
point $-1 -31.075423871975552 29.257554108098592 13.390686153866506 #
point $-1 -47.016815698721274 21.720630563149928 0.014269871423169333 #
vertex $-1 $296 $325 #
straight-curve $-1 -47.016815698721274 0 13.390686153866506 0 -1 0 I I #
vertex $-1 $249 $326 #
point $-1 -37.871780439748782 23.228015272139661 6.0808168117842012 #
vertex $-1 $253 $327 #
point $-1 -37.871780439748782 25.48909233562426 6.0808168117842012 #
vertex $-1 $257 $328 #
point $-1 -37.871780439748782 27.750169399108859 6.0808168117842012 #
straight-curve $-1 -47.016815698721274 29.257554108098592 0 0 0 -1 I I #
point $-1 -47.016815698721274 -29.257554108098592 -13.390686153866506 #
straight-curve $-1 -47.016815698721274 0 -13.390686153866506 0 1 0 I I #
point $-1 -47.016815698721274 29.257554108098592 -13.390686153866506 #
coedge $-1 $279 $278 $284 $316 reversed $140 $-1 #
vertex $-1 $291 $329 #
straight-curve $-1 0 -29.257554108098592 13.390686153866506 1 0 0 I I #
edge $-1 $314 -13.390686153866506 $317 13.390686153866506 $313 $330 forward 7 unknown #
vertex $-1 $289 $331 #
straight-curve $-1 0 -29.257554108098592 -13.390686153866506 -1 0 0 I I #
straight-curve $-1 -47.016815698721274 0 -13.390686153866506 0 1 0 I I #
straight-curve $-1 -47.016815698721274 0 13.390686153866506 0 -1 0 I I #
straight-curve $-1 -47.016815698721274 12.74454616781213 0.014269871423172105 0 -1 0 I I #
straight-curve $-1 -47.016815698721274 29.257554108098592 0 0 0 -1 I I #
straight-curve $-1 0 29.257554108098592 13.390686153866506 -1 0 0 I I #
point $-1 -47.016815698721274 29.257554108098592 0.014269871423169333 #
point $-1 -47.016815698721274 29.257554108098592 13.390686153866506 #
point $-1 -37.933408849200099 23.228015272139661 5.3764007847458455 #
point $-1 -37.933408849200099 25.48909233562426 5.3764007847458455 #
point $-1 -37.933408849200099 27.750169399108859 5.3764007847458455 #
point $-1 -47.016815698721274 -29.257554108098592 13.390686153866506 #
straight-curve $-1 -47.016815698721274 -29.257554108098592 0 0 0 -1 I I #
point $-1 -47.016815698721274 -29.257554108098592 -13.390686153866506 #
End-of-ACIS-data 