500 0 8 0           
7 Unknown 11 ACIS 5.0 NT 24 Fri Mar 26 01:45:08 1999 
-1 9.9999999999999995e-007 1e-010 
body $-1 $8 $-1 $9 #
body $-1 $10 $-1 $11 #
body $-1 $12 $-1 $13 #
body $-1 $14 $-1 $15 #
body $-1 $16 $-1 $17 #
body $-1 $18 $-1 $19 #
body $-1 $20 $-1 $21 #
body $-1 $22 $-1 $23 #
lump $-1 $-1 $24 $0 #
transform $-1 1 0 0 0 1 0 0 0 1 60.949125644703514 24.401971175503906 12.130833737270297 1 rotate no_reflect no_shear #
lump $-1 $-1 $25 $1 #
transform $-1 1 0 0 0 1 0 0 0 1 60.949125644703514 24.401971175503906 12.130833737270297 1 rotate no_reflect no_shear #
lump $-1 $-1 $26 $2 #
transform $-1 1 0 0 0 1 0 0 0 1 60.949125644703514 24.401971175503906 12.130833737270297 1 rotate no_reflect no_shear #
lump $-1 $-1 $27 $3 #
transform $-1 1 0 0 0 1 0 0 0 1 60.949125644703514 24.401971175503906 12.130833737270297 1 rotate no_reflect no_shear #
lump $-1 $-1 $28 $4 #
transform $-1 1 0 0 0 1 0 0 0 1 60.949125644703514 24.401971175503906 12.130833737270297 1 rotate no_reflect no_shear #
lump $-1 $-1 $29 $5 #
transform $-1 1 0 0 0 1 0 0 0 1 60.949125644703514 24.401971175503906 12.130833737270297 1 rotate no_reflect no_shear #
lump $-1 $-1 $30 $6 #
transform $-1 1 0 0 0 1 0 0 0 1 60.949125644703514 24.401971175503906 12.130833737270297 1 rotate no_reflect no_shear #
lump $-1 $-1 $31 $7 #
transform $-1 1 0 0 0 1 0 0 0 1 60.949125644703514 24.401971175503906 12.130833737270297 1 rotate no_reflect no_shear #
shell $-1 $-1 $-1 $32 $-1 $8 #
shell $-1 $-1 $-1 $33 $-1 $10 #
shell $-1 $-1 $-1 $34 $-1 $12 #
shell $-1 $-1 $-1 $35 $-1 $14 #
shell $-1 $-1 $-1 $36 $-1 $16 #
shell $-1 $-1 $-1 $37 $-1 $18 #
shell $-1 $-1 $-1 $38 $-1 $20 #
shell $-1 $-1 $-1 $39 $-1 $22 #
face $-1 $40 $41 $24 $-1 $42 forward single #
face $-1 $43 $44 $25 $-1 $45 reversed single #
face $-1 $46 $47 $26 $-1 $48 reversed single #
face $-1 $49 $50 $27 $-1 $51 reversed single #
face $-1 $52 $53 $28 $-1 $54 forward single #
face $-1 $55 $56 $29 $-1 $57 reversed single #
face $-1 $58 $59 $30 $-1 $60 forward single #
face $-1 $61 $62 $31 $-1 $63 forward single #
face $-1 $64 $65 $24 $-1 $66 reversed single #
loop $-1 $-1 $67 $32 #
plane-surface $-1 0 0 12.130833737270297 0 0 1 1 0 0 forward_v I I I I #
face $-1 $68 $69 $25 $-1 $70 reversed single #
loop $-1 $-1 $71 $33 #
plane-surface $-1 -58.297090747491815 -8.7978102597805652 0 0 -1 0 0 0 -1 forward_v I I I I #
face $-1 $72 $73 $26 $-1 $74 reversed single #
loop $-1 $-1 $75 $34 #
plane-surface $-1 -58.297090747491815 8.7978102597805652 0 0 1 0 0 0 1 forward_v I I I I #
face $-1 $76 $77 $27 $-1 $78 reversed single #
loop $-1 $-1 $79 $35 #
plane-surface $-1 69.971331656390277 3.805195601935754 178.42625061162477 0 -1 0 -0.74314483375859142 0 -0.66913059716165679 forward_v I I I I #
face $-1 $80 $81 $28 $-1 $82 forward single #
loop $-1 $83 $84 $36 #
cone-surface $-1 57.580667833985423 1.0222479565345317 8.5434351100025996 -0.74314483375859142 0 -0.66913059716165679 0.66913059716165679 0 -0.74314483375859142 1 I I 0 1 1 forward I I I I #
face $-1 $85 $86 $29 $-1 $87 reversed single #
loop $-1 $-1 $88 $37 #
plane-surface $-1 -60.949125644703528 5.8601302613900117 5.7245007924052942 -0.62932039886446345 0 0.77714595512881146 0.77714595512881146 0 0.62932039886446345 forward_v I I I I #
face $-1 $89 $90 $30 $-1 $91 forward single #
loop $-1 $92 $93 $38 #
cone-surface $-1 -56.4836657783909 4.6011245477940612 8.2980194235108549 0.62932039886446345 0 -0.77714595512881146 0.38857297756440573 0 0.31466019943223172 1 I I 0 1 0.5 forward I I I I #
face $-1 $94 $95 $31 $-1 $96 forward single #
loop $-1 $97 $98 $39 #
cone-surface $-1 -56.4836657783909 7.1191359749859622 8.2980194235108549 0.62932039886446345 0 -0.77714595512881146 0.38857297756440573 0 0.31466019943223172 1 I I 0 1 0.5 forward I I I I #
face $-1 $99 $100 $24 $-1 $101 reversed single #
loop $-1 $-1 $102 $40 #
plane-surface $-1 0 0 -12.130833737270297 0 0 1 1 0 0 forward_v I I I I #
coedge $-1 $103 $104 $105 $106 forward $41 $-1 #
face $-1 $107 $108 $25 $-1 $109 forward single #
loop $-1 $-1 $110 $43 #
plane-surface $-1 -55.645055850280116 -16.599890717642236 0 -1 0 0 0 0 1 forward_v I I I I #
coedge $-1 $111 $112 $113 $114 forward $44 $-1 #
face $-1 $115 $116 $26 $-1 $117 reversed single #
loop $-1 $-1 $118 $46 #
plane-surface $-1 -55.645055850280116 16.599890717642236 0 -1 0 0 0 0 1 forward_v I I I I #
coedge $-1 $119 $120 $121 $122 reversed $47 $-1 #
face $-1 $123 $124 $27 $-1 $125 reversed single #
loop $-1 $-1 $126 $49 #
plane-surface $-1 -20.6167240335391 1.0222479565345317 96.860400933382152 0.74314483375859142 0 0.66913059716165679 0.66913059716165679 0 -0.74314483375859142 forward_v I I I I #
coedge $-1 $127 $128 $129 $130 reversed $50 $-1 #
face $-1 $-1 $131 $28 $-1 $132 forward single #
loop $-1 $133 $134 $52 #
cone-surface $-1 56.478140907397503 1.0222479565345317 7.5507154310628231 -0.74314483375859142 0 -0.66913059716165679 0.3345652985808284 0 -0.37157241687929571 1 I I -0.70710678118654746 0.70710678118654746 0.5 forward I I I I #
loop $-1 $-1 $135 $36 #
coedge $-1 $84 $84 $136 $137 reversed $53 $-1 #
face $-1 $138 $139 $29 $-1 $140 reversed single #
loop $-1 $-1 $141 $55 #
plane-surface $-1 -137.66218176703376 2.9224502629994582 100.45723371924339 0 1 0 -0.62932039886446345 0 0.77714595512881146 forward_v I I I I #
coedge $-1 $142 $143 $144 $145 reversed $56 $-1 #
face $-1 $-1 $146 $30 $-1 $147 forward single #
loop $-1 $148 $149 $58 #
cone-surface $-1 -55.816456899749227 4.6011245477940612 7.4740850934017153 0.62932039886446345 0 -0.77714595512881146 0.19428648878220287 0 0.15733009971611586 1 I I -0.70710678118654746 0.70710678118654746 0.25 forward I I I I #
loop $-1 $-1 $150 $38 #
coedge $-1 $93 $93 $151 $152 reversed $59 $-1 #
face $-1 $-1 $153 $31 $-1 $154 forward single #
loop $-1 $155 $156 $61 #
cone-surface $-1 -55.816456899749227 7.1191359749859622 7.4740850934017153 0.62932039886446345 0 -0.77714595512881146 0.19428648878220287 0 0.15733009971611586 1 I I -0.70710678118654746 0.70710678118654746 0.25 forward I I I I #
loop $-1 $-1 $157 $39 #
coedge $-1 $98 $98 $158 $159 reversed $62 $-1 #
face $-1 $160 $161 $24 $-1 $162 reversed single #
loop $-1 $-1 $163 $64 #
plane-surface $-1 0 -24.401971175503906 0 0 1 0 0 0 1 forward_v I I I I #
coedge $-1 $164 $165 $166 $167 forward $65 $-1 #
coedge $-1 $168 $67 $169 $170 forward $41 $-1 #
coedge $-1 $67 $168 $171 $172 forward $41 $-1 #
coedge $-1 $173 $174 $67 $106 reversed $175 $-1 #
edge $-1 $176 -24.401971175503906 $177 24.401971175503906 $105 $178 forward 7 unknown #
face $-1 $179 $180 $25 $-1 $181 reversed single #
loop $-1 $-1 $182 $68 #
plane-surface $-1 0 0 12.130833737270297 0 0 1 1 0 0 forward_v I I I I #
coedge $-1 $183 $184 $185 $186 reversed $69 $-1 #
coedge $-1 $187 $71 $188 $189 reversed $44 $-1 #
coedge $-1 $71 $187 $190 $191 reversed $44 $-1 #
coedge $-1 $184 $183 $71 $114 reversed $69 $-1 #
edge $-1 $192 -12.130833737270297 $193 12.130833737270297 $113 $194 forward 7 unknown #
face $-1 $195 $196 $26 $-1 $197 reversed single #
loop $-1 $-1 $198 $72 #
plane-surface $-1 0 0 -12.130833737270297 0 0 1 1 0 0 forward_v I I I I #
coedge $-1 $199 $200 $201 $202 forward $73 $-1 #
coedge $-1 $201 $75 $203 $204 reversed $47 $-1 #
coedge $-1 $75 $201 $205 $206 reversed $47 $-1 #
coedge $-1 $207 $208 $75 $122 forward $196 $-1 #
edge $-1 $209 -12.130833737270297 $210 12.130833737270297 $121 $211 forward 7 unknown #
face $-1 $212 $213 $27 $-1 $214 reversed single #
loop $-1 $-1 $215 $76 #
plane-surface $-1 69.971331656390277 -1.7606996888666906 178.42625061162477 0 1 0 0.74314483375859142 0 0.66913059716165679 forward_v I I I I #
coedge $-1 $216 $217 $218 $219 reversed $77 $-1 #
coedge $-1 $128 $79 $220 $221 reversed $50 $-1 #
coedge $-1 $79 $127 $216 $222 reversed $50 $-1 #
coedge $-1 $218 $223 $79 $130 forward $224 $-1 #
edge $-1 $225 -25.963459816508376 $226 -20.688453214489471 $129 $227 forward 7 unknown #
loop $-1 $-1 $136 $80 #
plane-surface $-1 -20.6167240335391 1.0222479565345317 96.860400933382152 0.74314483375859142 0 0.66913059716165679 0.66913059716165679 0 -0.74314483375859142 forward_v I I I I #
loop $-1 $-1 $228 $52 #
coedge $-1 $134 $134 $135 $229 reversed $81 $-1 #
coedge $-1 $135 $135 $134 $229 forward $83 $-1 #
coedge $-1 $136 $136 $84 $137 forward $131 $-1 #
edge $-1 $230 0 $230 6.2831853071796004 $136 $231 forward 7 unknown #
face $-1 $232 $233 $29 $-1 $234 forward single #
loop $-1 $-1 $144 $85 #
plane-surface $-1 -60.949125644703514 0 0 1 0 0 0 0 -1 forward_v I I I I #
coedge $-1 $235 $236 $237 $238 reversed $86 $-1 #
coedge $-1 $239 $88 $240 $241 reversed $56 $-1 #
coedge $-1 $88 $239 $235 $242 forward $56 $-1 #
coedge $-1 $237 $243 $88 $145 forward $139 $-1 #
edge $-1 $244 -5.8677451290855593 $245 0.0076148676955476446 $144 $246 forward 7 unknown #
loop $-1 $-1 $151 $89 #
plane-surface $-1 -60.949125644703528 5.8601302613900117 5.7245007924052942 -0.62932039886446345 0 0.77714595512881146 0.77714595512881146 0 0.62932039886446345 forward_v I I I I #
loop $-1 $-1 $247 $58 #
coedge $-1 $149 $149 $150 $248 reversed $90 $-1 #
coedge $-1 $150 $150 $149 $248 forward $92 $-1 #
coedge $-1 $151 $151 $93 $152 forward $146 $-1 #
edge $-1 $249 0 $249 6.2831853071796004 $151 $250 forward 7 unknown #
loop $-1 $-1 $158 $94 #
plane-surface $-1 -60.949125644703528 5.8601302613900117 5.7245007924052942 -0.62932039886446345 0 0.77714595512881146 0.77714595512881146 0 0.62932039886446345 forward_v I I I I #
loop $-1 $-1 $251 $61 #
coedge $-1 $156 $156 $157 $252 reversed $95 $-1 #
coedge $-1 $157 $157 $156 $252 forward $97 $-1 #
coedge $-1 $158 $158 $98 $159 forward $153 $-1 #
edge $-1 $253 0 $253 6.2831853071796004 $158 $254 forward 7 unknown #
face $-1 $255 $256 $24 $-1 $257 reversed single #
loop $-1 $-1 $258 $99 #
plane-surface $-1 -60.949125644703514 0 0 1 0 0 0 0 -1 forward_v I I I I #
coedge $-1 $259 $171 $260 $261 forward $100 $-1 #
coedge $-1 $262 $102 $259 $263 forward $65 $-1 #
coedge $-1 $102 $262 $264 $265 forward $65 $-1 #
coedge $-1 $174 $173 $102 $167 reversed $175 $-1 #
edge $-1 $266 -24.401971175503906 $267 24.401971175503906 $166 $268 forward 7 unknown #
coedge $-1 $104 $103 $269 $270 forward $41 $-1 #
coedge $-1 $271 $272 $103 $170 reversed $256 $-1 #
edge $-1 $177 -60.949125644703514 $273 60.949125644703514 $169 $274 forward 7 unknown #
coedge $-1 $163 $275 $104 $172 reversed $100 $-1 #
edge $-1 $276 -60.949125644703514 $176 60.949125644703514 $171 $277 forward 7 unknown #
coedge $-1 $166 $105 $275 $278 forward $175 $-1 #
coedge $-1 $105 $166 $271 $279 reversed $175 $-1 #
loop $-1 $-1 $173 $255 #
vertex $-1 $106 $280 #
vertex $-1 $106 $281 #
straight-curve $-1 60.949125644703514 0 12.130833737270297 0 1 0 I I #
face $-1 $282 $283 $25 $-1 $284 reversed single #
loop $-1 $-1 $285 $107 #
plane-surface $-1 -60.949125644703514 0 0 1 0 0 0 0 -1 forward_v I I I I #
coedge $-1 $190 $286 $184 $287 forward $108 $-1 #
coedge $-1 $113 $110 $288 $289 reversed $69 $-1 #
coedge $-1 $110 $113 $182 $287 reversed $69 $-1 #
coedge $-1 $290 $291 $110 $186 forward $292 $-1 #
edge $-1 $293 -12.130833737270297 $294 12.130833737270297 $185 $295 forward 7 unknown #
coedge $-1 $112 $111 $285 $296 reversed $44 $-1 #
coedge $-1 $288 $297 $111 $189 forward $283 $-1 #
edge $-1 $298 -31.800580270957607 $193 -26.496510476534208 $188 $299 forward 7 unknown #
coedge $-1 $300 $182 $112 $191 forward $108 $-1 #
edge $-1 $192 26.496510476534208 $301 31.800580270957607 $190 $302 forward 7 unknown #
vertex $-1 $191 $303 #
vertex $-1 $189 $304 #
straight-curve $-1 -55.645055850280116 -8.7978102597805652 0 0 0 -1 I I #
face $-1 $305 $306 $26 $-1 $307 forward single #
loop $-1 $-1 $121 $115 #
plane-surface $-1 -60.949125644703514 0 0 1 0 0 0 0 -1 forward_v I I I I #
coedge $-1 $203 $308 $199 $309 forward $116 $-1 #
coedge $-1 $310 $118 $198 $309 reversed $73 $-1 #
coedge $-1 $118 $310 $311 $312 reversed $73 $-1 #
coedge $-1 $120 $119 $118 $202 reversed $47 $-1 #
edge $-1 $313 -12.130833737270297 $314 12.130833737270297 $118 $315 forward 7 unknown #
coedge $-1 $316 $198 $119 $204 forward $116 $-1 #
edge $-1 $314 26.496510476534208 $209 31.800580270957607 $203 $317 forward 7 unknown #
coedge $-1 $311 $318 $120 $206 forward $306 $-1 #
edge $-1 $210 -31.800580270957607 $313 -26.496510476534208 $205 $319 forward 7 unknown #
coedge $-1 $320 $121 $318 $321 reversed $196 $-1 #
coedge $-1 $121 $320 $316 $322 reversed $196 $-1 #
vertex $-1 $322 $323 #
vertex $-1 $122 $324 #
straight-curve $-1 -60.949125644703514 8.7978102597805652 0 0 0 1 I I #
face $-1 $-1 $224 $27 $-1 $325 forward single #
loop $-1 $-1 $326 $123 #
plane-surface $-1 60.949125644703514 0 0 -1 0 0 0 0 1 forward_v I I I I #
coedge $-1 $327 $328 $329 $330 reversed $124 $-1 #
coedge $-1 $331 $126 $128 $222 forward $77 $-1 #
coedge $-1 $126 $331 $327 $332 forward $77 $-1 #
coedge $-1 $329 $129 $126 $219 forward $224 $-1 #
edge $-1 $226 -3.2940716236684882 $333 2.2718236671339564 $218 $334 forward 7 unknown #
coedge $-1 $335 $336 $127 $221 forward $213 $-1 #
edge $-1 $337 -82.940780062359607 $225 -77.08229156854209 $220 $338 forward 7 unknown #
edge $-1 $226 114.01487751395177 $337 121.898251289407 $128 $339 forward 7 unknown #
coedge $-1 $129 $329 $335 $340 forward $224 $-1 #
loop $-1 $-1 $329 $212 #
vertex $-1 $221 $341 #
vertex $-1 $130 $342 #
straight-curve $-1 34.985665828195138 3.805195601935754 12.130833737270294 -1 0 0 I I #
coedge $-1 $228 $228 $-1 $343 reversed $133 $-1 #
edge $-1 $344 0 $344 6.2831853071796004 $134 $345 forward 7 unknown #
vertex $-1 $137 $346 #
ellipse-curve $-1 58.311622343694054 1.0222479565345317 9.2015894903615525 0.74314483375859142 0 0.66913059716165679 0.66913059716165679 0 -0.74314483375859142 1 I I #
face $-1 $-1 $347 $29 $-1 $348 forward single #
loop $-1 $-1 $349 $138 #
plane-surface $-1 0 0 12.130833737270297 0 0 1 1 0 0 forward_v I I I I #
coedge $-1 $236 $141 $143 $242 reversed $86 $-1 #
coedge $-1 $141 $235 $349 $350 reversed $86 $-1 #
coedge $-1 $351 $144 $141 $238 forward $139 $-1 #
edge $-1 $245 -44.504116067216387 $352 -38.097783122351402 $237 $353 forward 7 unknown #
coedge $-1 $143 $142 $354 $355 reversed $56 $-1 #
coedge $-1 $356 $357 $142 $241 forward $347 $-1 #
edge $-1 $358 -10.950527152988682 $244 -0.77076346437397358 $240 $359 forward 7 unknown #
edge $-1 $360 -10.179763688614727 $245 -1.8310242626372826e-014 $235 $361 forward 7 unknown #
coedge $-1 $144 $351 $356 $362 forward $139 $-1 #
vertex $-1 $241 $363 #
vertex $-1 $145 $364 #
straight-curve $-1 -60.949125644703514 2.9300651306950058 5.7245007924053075 0 -1 0 I I #
coedge $-1 $247 $247 $-1 $365 reversed $148 $-1 #
edge $-1 $366 0 $366 6.2831853071796004 $149 $367 forward 7 unknown #
vertex $-1 $152 $368 #
ellipse-curve $-1 -56.993544557316469 4.6011245477940612 8.9276672648378064 -0.62932039886446345 0 0.77714595512881146 0.38857297756440573 0 0.31466019943223172 1 I I #
coedge $-1 $251 $251 $-1 $369 reversed $155 $-1 #
edge $-1 $370 0 $370 6.2831853071796004 $156 $371 forward 7 unknown #
vertex $-1 $159 $372 #
ellipse-curve $-1 -56.993544557316469 7.1191359749859622 8.9276672648378064 -0.62932039886446345 0 0.77714595512881146 0.38857297756440573 0 0.31466019943223172 1 I I #
face $-1 $-1 $175 $24 $-1 $373 reversed single #
loop $-1 $-1 $271 $160 #
plane-surface $-1 0 24.401971175503906 0 0 -1 0 0 0 -1 forward_v I I I I #
coedge $-1 $374 $269 $272 $375 forward $161 $-1 #
coedge $-1 $275 $163 $164 $263 reversed $100 $-1 #
coedge $-1 $269 $374 $163 $261 reversed $161 $-1 #
edge $-1 $276 -12.130833737270297 $376 12.130833737270297 $260 $377 forward 7 unknown #
coedge $-1 $165 $164 $374 $378 forward $65 $-1 #
edge $-1 $267 -60.949125644703514 $376 60.949125644703514 $259 $379 forward 7 unknown #
coedge $-1 $272 $271 $165 $265 reversed $256 $-1 #
edge $-1 $380 -60.949125644703514 $266 60.949125644703514 $264 $381 forward 7 unknown #
vertex $-1 $167 $382 #
vertex $-1 $278 $383 #
straight-curve $-1 60.949125644703514 0 -12.130833737270297 0 -1 0 I I #
coedge $-1 $258 $260 $168 $270 reversed $161 $-1 #
edge $-1 $273 -24.401971175503906 $276 24.401971175503906 $269 $384 forward 7 unknown #
coedge $-1 $264 $169 $174 $279 forward $256 $-1 #
coedge $-1 $169 $264 $258 $375 reversed $256 $-1 #
vertex $-1 $170 $385 #
straight-curve $-1 0 24.401971175503906 12.130833737270297 -1 0 0 I I #
coedge $-1 $171 $259 $173 $278 reversed $100 $-1 #
vertex $-1 $270 $386 #
straight-curve $-1 0 -24.401971175503906 12.130833737270297 1 0 0 I I #
edge $-1 $176 -12.130833737270297 $267 12.130833737270297 $173 $387 forward 7 unknown #
edge $-1 $177 -12.130833737270297 $266 12.130833737270297 $174 $388 forward 7 unknown #
point $-1 60.949125644703514 -24.401971175503906 12.130833737270297 #
point $-1 60.949125644703514 24.401971175503906 12.130833737270297 #
face $-1 $-1 $292 $25 $-1 $389 reversed single #
loop $-1 $-1 $288 $179 #
plane-surface $-1 0 0 -12.130833737270297 0 0 1 1 0 0 forward_v I I I I #
coedge $-1 $390 $391 $187 $296 forward $180 $-1 #
coedge $-1 $182 $300 $290 $392 forward $108 $-1 #
edge $-1 $294 -16.10202581668279 $192 -0.49786490095944735 $182 $393 forward 7 unknown #
coedge $-1 $394 $188 $183 $289 forward $283 $-1 #
edge $-1 $193 0.49786490095944735 $293 16.10202581668279 $288 $395 forward 7 unknown #
coedge $-1 $396 $185 $286 $392 reversed $292 $-1 #
coedge $-1 $185 $396 $394 $397 reversed $292 $-1 #
loop $-1 $-1 $185 $282 #
vertex $-1 $397 $398 #
vertex $-1 $186 $399 #
straight-curve $-1 -55.645055850280116 -24.401971175503906 0 0 0 1 I I #
edge $-1 $301 -12.130833737270297 $298 12.130833737270297 $285 $400 forward 7 unknown #
coedge $-1 $188 $394 $390 $401 forward $283 $-1 #
vertex $-1 $189 $402 #
straight-curve $-1 -29.148545373745907 -8.7978102597805652 -12.130833737270297 1 0 0 I I #
coedge $-1 $286 $190 $391 $403 forward $108 $-1 #
vertex $-1 $403 $404 #
straight-curve $-1 -29.148545373745907 -8.7978102597805652 12.130833737270297 -1 0 0 I I #
point $-1 -55.645055850280116 -8.7978102597805652 12.130833737270297 #
point $-1 -55.645055850280116 -8.7978102597805652 -12.130833737270297 #
face $-1 $-1 $405 $26 $-1 $406 reversed single #
loop $-1 $-1 $311 $195 #
plane-surface $-1 0 0 12.130833737270297 0 0 1 1 0 0 forward_v I I I I #
coedge $-1 $198 $316 $407 $408 forward $116 $-1 #
edge $-1 $409 -16.10202581668279 $314 -0.49786490095944735 $198 $410 forward 7 unknown #
coedge $-1 $200 $199 $411 $412 reversed $73 $-1 #
coedge $-1 $413 $205 $200 $312 forward $306 $-1 #
edge $-1 $313 0.49786490095944735 $414 16.10202581668279 $311 $415 forward 7 unknown #
vertex $-1 $206 $416 #
vertex $-1 $204 $417 #
straight-curve $-1 -55.645055850280116 8.7978102597805652 0 0 0 -1 I I #
coedge $-1 $308 $203 $208 $322 forward $116 $-1 #
straight-curve $-1 -29.148545373745907 8.7978102597805652 -12.130833737270297 -1 0 0 I I #
coedge $-1 $205 $413 $207 $321 forward $306 $-1 #
straight-curve $-1 -29.148545373745907 8.7978102597805652 12.130833737270297 1 0 0 I I #
coedge $-1 $208 $207 $418 $419 forward $196 $-1 #
edge $-1 $420 -24.401971175503906 $210 -8.7978102597805652 $207 $421 forward 7 unknown #
edge $-1 $209 8.7978102597805652 $422 24.401971175503906 $208 $423 forward 7 unknown #
point $-1 -60.949125644703514 8.7978102597805652 -12.130833737270297 #
point $-1 -60.949125644703514 8.7978102597805652 12.130833737270297 #
plane-surface $-1 0 0 12.130833737270297 0 0 1 1 0 0 forward_v I I I I #
coedge $-1 $336 $335 $328 $424 forward $213 $-1 #
coedge $-1 $328 $215 $217 $332 reversed $124 $-1 #
coedge $-1 $215 $327 $326 $424 reversed $124 $-1 #
coedge $-1 $223 $218 $215 $330 forward $224 $-1 #
edge $-1 $333 20.688453214489471 $425 25.963459816508376 $329 $426 forward 7 unknown #
coedge $-1 $217 $216 $336 $427 reversed $77 $-1 #
edge $-1 $428 -121.898251289407 $333 -114.01487751395177 $327 $429 forward 7 unknown #
vertex $-1 $219 $430 #
straight-curve $-1 55.674119042684609 0.51112397826726585 12.130833737270294 0 -1 0 I I #
coedge $-1 $326 $220 $223 $340 reversed $213 $-1 #
coedge $-1 $220 $326 $331 $427 forward $213 $-1 #
vertex $-1 $221 $431 #
straight-curve $-1 60.949125644703514 3.805195601935754 89.213125305812383 0 0 1 I I #
straight-curve $-1 -20.6167240335391 3.805195601935754 96.860400933382152 0.66913059716165679 0 -0.74314483375859142 I I #
edge $-1 $425 -1.7606996888666906 $225 3.805195601935754 $335 $432 forward 7 unknown #
point $-1 60.949125644703514 3.805195601935754 12.130833737270297 #
point $-1 55.674119042684609 3.805195601935754 12.130833737270294 #
edge $-1 $433 1 $433 0 $228 $-1 forward 7 unknown #
vertex $-1 $229 $434 #
ellipse-curve $-1 56.849713324276799 1.0222479565345317 7.8852807296436511 0.74314483375859142 0 0.66913059716165679 0.66913059716165679 0 -0.74314483375859142 1 I I #
point $-1 58.980752940855709 1.0222479565345317 8.4584446566029552 #
loop $-1 $-1 $240 $232 #
plane-surface $-1 -58.297090747491815 8.7978102597805652 0 0 1 0 0 0 1 forward_v I I I I #
coedge $-1 $354 $435 $236 $350 forward $233 $-1 #
edge $-1 $352 7.8819652388133647 $360 15.793127413587435 $349 $436 forward 7 unknown #
coedge $-1 $243 $237 $435 $437 reversed $139 $-1 #
vertex $-1 $238 $438 #
straight-curve $-1 -60.949125644703514 2.9224502629994582 50.228616859621695 0 0 1 I I #
coedge $-1 $439 $349 $239 $355 forward $233 $-1 #
edge $-1 $360 -0.0076148676955476446 $358 5.8677451290855593 $354 $440 forward 7 unknown #
coedge $-1 $357 $240 $243 $362 reversed $347 $-1 #
coedge $-1 $240 $356 $439 $441 reversed $347 $-1 #
vertex $-1 $355 $442 #
straight-curve $-1 -61.54812135340282 8.7978102597805652 5.2394436215753242 -0.77714595512881146 0 -0.62932039886446345 I I #
vertex $-1 $355 $443 #
straight-curve $-1 -60.949125644703528 2.9224502629994582 5.7245007924052942 -0.77714595512881146 0 -0.62932039886446345 I I #
edge $-1 $444 -12.130833737270297 $244 -5.7245007924053057 $243 $445 forward 7 unknown #
point $-1 -60.949125644703514 8.7978102597805652 5.7245007924053057 #
point $-1 -60.949125644703514 2.9224502629994582 5.7245007924053057 #
edge $-1 $446 1 $446 0 $247 $-1 forward 7 unknown #
vertex $-1 $248 $447 #
ellipse-curve $-1 -55.973786999465339 4.6011245477940612 7.6683715821839185 -0.62932039886446345 0 0.77714595512881146 0.38857297756440573 0 0.31466019943223172 1 I I #
point $-1 -56.604971579752053 4.6011245477940612 9.2423274642700228 #
edge $-1 $448 1 $448 0 $251 $-1 forward 7 unknown #
vertex $-1 $252 $449 #
ellipse-curve $-1 -55.973786999465339 7.1191359749859622 7.6683715821839185 -0.62932039886446345 0 0.77714595512881146 0.38857297756440573 0 0.31466019943223172 1 I I #
point $-1 -56.604971579752053 7.1191359749859622 9.2423274642700228 #
plane-surface $-1 60.949125644703514 0 0 -1 0 0 0 0 1 forward_v I I I I #
coedge $-1 $260 $258 $262 $378 reversed $161 $-1 #
edge $-1 $273 -12.130833737270297 $380 12.130833737270297 $272 $450 forward 7 unknown #
vertex $-1 $378 $451 #
straight-curve $-1 -60.949125644703514 -24.401971175503906 0 0 0 -1 I I #
edge $-1 $376 -24.401971175503906 $380 24.401971175503906 $374 $452 forward 7 unknown #
straight-curve $-1 0 -24.401971175503906 -12.130833737270297 -1 0 0 I I #
vertex $-1 $265 $453 #
straight-curve $-1 0 24.401971175503906 -12.130833737270297 1 0 0 I I #
point $-1 60.949125644703514 24.401971175503906 -12.130833737270297 #
point $-1 60.949125644703514 -24.401971175503906 -12.130833737270297 #
straight-curve $-1 -60.949125644703514 0 12.130833737270297 0 -1 0 I I #
point $-1 -60.949125644703514 24.401971175503906 12.130833737270297 #
point $-1 -60.949125644703514 -24.401971175503906 12.130833737270297 #
straight-curve $-1 60.949125644703514 -24.401971175503906 0 0 0 -1 I I #
straight-curve $-1 60.949125644703514 24.401971175503906 0 0 0 -1 I I #
plane-surface $-1 0 -24.401971175503906 0 0 1 0 0 0 1 forward_v I I I I #
coedge $-1 $454 $285 $297 $401 reversed $180 $-1 #
coedge $-1 $285 $454 $300 $403 reversed $180 $-1 #
edge $-1 $455 -60.949125644703514 $294 -55.645055850280116 $290 $456 forward 7 unknown #
straight-curve $-1 -55.645055850280116 -8.2999453588211178 12.130833737270297 0 1 0 I I #
coedge $-1 $297 $288 $291 $397 forward $283 $-1 #
straight-curve $-1 -55.645055850280116 -8.2999453588211178 -12.130833737270297 0 -1 0 I I #
coedge $-1 $291 $290 $454 $457 forward $292 $-1 #
edge $-1 $293 55.645055850280116 $458 60.949125644703514 $291 $459 forward 7 unknown #
point $-1 -55.645055850280116 -24.401971175503906 -12.130833737270297 #
point $-1 -55.645055850280116 -24.401971175503906 12.130833737270297 #
straight-curve $-1 -60.949125644703514 -8.7978102597805652 0 0 0 -1 I I #
edge $-1 $458 -24.401971175503906 $298 -8.7978102597805652 $390 $460 forward 7 unknown #
point $-1 -60.949125644703514 -8.7978102597805652 -12.130833737270297 #
edge $-1 $301 8.7978102597805652 $455 24.401971175503906 $391 $461 forward 7 unknown #
point $-1 -60.949125644703514 -8.7978102597805652 12.130833737270297 #
loop $-1 $-1 $411 $305 #
plane-surface $-1 0 24.401971175503906 0 0 -1 0 0 0 -1 forward_v I I I I #
coedge $-1 $418 $411 $308 $408 reversed $405 $-1 #
edge $-1 $422 -60.949125644703514 $409 -55.645055850280116 $407 $462 forward 7 unknown #
vertex $-1 $309 $463 #
straight-curve $-1 -55.645055850280116 8.2999453588211178 -12.130833737270297 0 -1 0 I I #
coedge $-1 $407 $464 $310 $412 forward $405 $-1 #
edge $-1 $414 -12.130833737270297 $409 12.130833737270297 $411 $465 forward 7 unknown #
coedge $-1 $318 $311 $464 $466 forward $306 $-1 #
vertex $-1 $466 $467 #
straight-curve $-1 -55.645055850280116 8.2999453588211178 12.130833737270297 0 1 0 I I #
point $-1 -55.645055850280116 8.7978102597805652 12.130833737270297 #
point $-1 -55.645055850280116 8.7978102597805652 -12.130833737270297 #
coedge $-1 $464 $407 $320 $419 reversed $405 $-1 #
edge $-1 $420 -12.130833737270297 $422 12.130833737270297 $418 $468 forward 7 unknown #
vertex $-1 $466 $469 #
straight-curve $-1 -60.949125644703514 0 12.130833737270297 0 -1 0 I I #
vertex $-1 $408 $470 #
straight-curve $-1 -60.949125644703514 0 -12.130833737270297 0 1 0 I I #
edge $-1 $425 77.08229156854209 $428 82.940780062359607 $326 $471 forward 7 unknown #
vertex $-1 $340 $472 #
straight-curve $-1 34.985665828195138 -1.7606996888666906 12.130833737270294 1 0 0 I I #
edge $-1 $428 -2.2718236671339564 $337 3.2940716236684882 $336 $473 forward 7 unknown #
vertex $-1 $427 $474 #
straight-curve $-1 -20.6167240335391 -1.7606996888666906 96.860400933382152 -0.66913059716165679 0 0.74314483375859142 I I #
point $-1 55.674119042684609 -1.7606996888666906 12.130833737270294 #
point $-1 60.949125644703514 3.805195601935754 6.2723452434527758 #
straight-curve $-1 60.949125644703514 0 12.130833737270297 0 1 0 I I #
vertex $-1 $343 $475 #
point $-1 57.518843921438453 1.0222479565345317 7.14213589588506 #
coedge $-1 $349 $439 $351 $437 forward $233 $-1 #
straight-curve $-1 -68.831090883516879 2.9224502629994582 12.130833737270301 1 0 0 I I #
edge $-1 $444 -8.7978102597805652 $352 -2.9224502629994582 $351 $476 forward 7 unknown #
point $-1 -60.949125644703514 2.9224502629994582 12.130833737270297 #
coedge $-1 $435 $354 $357 $441 forward $233 $-1 #
straight-curve $-1 -53.037963469929444 2.9300651306950058 12.130833737270295 0 1 0 I I #
edge $-1 $358 23.889418096183537 $444 31.800580270957607 $439 $477 forward 7 unknown #
point $-1 -53.037963469929444 8.7978102597805652 12.130833737270297 #
point $-1 -53.037963469929444 2.9224502629994582 12.130833737270297 #
vertex $-1 $437 $478 #
straight-curve $-1 -60.949125644703514 8.7978102597805652 0 0 0 -1 I I #
vertex $-1 $365 $479 #
point $-1 -55.585214021900939 4.6011245477940612 7.98303178161615 #
vertex $-1 $369 $480 #
point $-1 -55.585214021900939 7.1191359749859622 7.98303178161615 #
straight-curve $-1 -60.949125644703514 24.401971175503906 0 0 0 -1 I I #
point $-1 -60.949125644703514 -24.401971175503906 -12.130833737270297 #
straight-curve $-1 -60.949125644703514 0 -12.130833737270297 0 1 0 I I #
point $-1 -60.949125644703514 24.401971175503906 -12.130833737270297 #
coedge $-1 $391 $390 $396 $457 reversed $180 $-1 #
vertex $-1 $403 $481 #
straight-curve $-1 0 -24.401971175503906 12.130833737270297 1 0 0 I I #
edge $-1 $455 -12.130833737270297 $458 12.130833737270297 $454 $482 forward 7 unknown #
vertex $-1 $401 $483 #
straight-curve $-1 0 -24.401971175503906 -12.130833737270297 -1 0 0 I I #
straight-curve $-1 -60.949125644703514 0 -12.130833737270297 0 1 0 I I #
straight-curve $-1 -60.949125644703514 0 12.130833737270297 0 -1 0 I I #
straight-curve $-1 0 24.401971175503906 -12.130833737270297 1 0 0 I I #
point $-1 -55.645055850280116 24.401971175503906 -12.130833737270297 #
coedge $-1 $411 $418 $413 $466 reversed $405 $-1 #
straight-curve $-1 -55.645055850280116 24.401971175503906 0 0 0 -1 I I #
edge $-1 $414 55.645055850280116 $420 60.949125644703514 $464 $484 forward 7 unknown #
point $-1 -55.645055850280116 24.401971175503906 12.130833737270297 #
straight-curve $-1 -60.949125644703514 24.401971175503906 0 0 0 -1 I I #
point $-1 -60.949125644703514 24.401971175503906 12.130833737270297 #
point $-1 -60.949125644703514 24.401971175503906 -12.130833737270297 #
straight-curve $-1 60.949125644703514 -1.7606996888666906 89.213125305812383 0 0 -1 I I #
point $-1 60.949125644703514 -1.7606996888666906 12.130833737270297 #
straight-curve $-1 60.949125644703514 0.51112397826726585 6.2723452434527616 0 1 0 I I #
point $-1 60.949125644703514 -1.7606996888666906 6.2723452434527758 #
point $-1 56.106568490518207 1.0222479565345317 7.216150132481995 #
straight-curve $-1 -60.949125644703514 0 12.130833737270297 0 -1 0 I I #
straight-curve $-1 -29.148545373745907 8.7978102597805652 12.130833737270297 -1 0 0 I I #
point $-1 -60.949125644703514 8.7978102597805652 12.130833737270297 #
point $-1 -55.659126800033114 4.6011245477940612 7.2797986046195122 #
point $-1 -55.659126800033114 7.1191359749859622 7.2797986046195122 #
point $-1 -60.949125644703514 -24.401971175503906 12.130833737270297 #
straight-curve $-1 -60.949125644703514 -24.401971175503906 0 0 0 -1 I I #
point $-1 -60.949125644703514 -24.401971175503906 -12.130833737270297 #
straight-curve $-1 0 24.401971175503906 12.130833737270297 -1 0 0 I I #
End-of-ACIS-data 