500 0 11 0           
7 Unknown 11 ACIS 5.0 NT 24 Fri Mar 26 15:26:45 1999 
-1 9.9999999999999995e-007 1e-010 
body $-1 $11 $-1 $12 #
body $-1 $13 $-1 $14 #
body $-1 $15 $-1 $16 #
body $-1 $17 $-1 $18 #
body $-1 $19 $-1 $20 #
body $-1 $21 $-1 $22 #
body $-1 $23 $-1 $24 #
body $-1 $25 $-1 $26 #
body $-1 $27 $-1 $28 #
body $-1 $29 $-1 $30 #
body $-1 $31 $-1 $32 #
lump $-1 $-1 $33 $0 #
transform $-1 1 0 0 0 1 0 0 0 1 56.858424634540853 36.519222001744332 15.159483802164566 1 rotate no_reflect no_shear #
lump $-1 $-1 $34 $1 #
transform $-1 1 0 0 0 1 0 0 0 1 56.858424634540853 36.519222001744332 15.159483802164566 1 rotate no_reflect no_shear #
lump $-1 $-1 $35 $2 #
transform $-1 1 0 0 0 1 0 0 0 1 56.858424634540853 36.519222001744332 15.159483802164566 1 rotate no_reflect no_shear #
lump $-1 $-1 $36 $3 #
transform $-1 1 0 0 0 1 0 0 0 1 56.858424634540853 36.519222001744332 15.159483802164566 1 rotate no_reflect no_shear #
lump $-1 $-1 $37 $4 #
transform $-1 1 0 0 0 1 0 0 0 1 56.858424634540853 36.519222001744332 15.159483802164566 1 rotate no_reflect no_shear #
lump $-1 $-1 $38 $5 #
transform $-1 1 0 0 0 1 0 0 0 1 56.858424634540853 36.519222001744332 15.159483802164566 1 rotate no_reflect no_shear #
lump $-1 $-1 $39 $6 #
transform $-1 1 0 0 0 1 0 0 0 1 56.858424634540853 36.519222001744332 15.159483802164566 1 rotate no_reflect no_shear #
lump $-1 $-1 $40 $7 #
transform $-1 1 0 0 0 1 0 0 0 1 56.858424634540853 36.519222001744332 15.159483802164566 1 rotate no_reflect no_shear #
lump $-1 $-1 $41 $8 #
transform $-1 1 0 0 0 1 0 0 0 1 56.858424634540853 36.519222001744332 15.159483802164566 1 rotate no_reflect no_shear #
lump $-1 $-1 $42 $9 #
transform $-1 1 0 0 0 1 0 0 0 1 56.858424634540853 36.519222001744332 15.159483802164566 1 rotate no_reflect no_shear #
lump $-1 $-1 $43 $10 #
transform $-1 1 0 0 0 1 0 0 0 1 56.858424634540853 36.519222001744332 15.159483802164566 1 rotate no_reflect no_shear #
shell $-1 $-1 $-1 $44 $-1 $11 #
shell $-1 $-1 $-1 $45 $-1 $13 #
shell $-1 $-1 $-1 $46 $-1 $15 #
shell $-1 $-1 $-1 $47 $-1 $17 #
shell $-1 $-1 $-1 $48 $-1 $19 #
shell $-1 $-1 $-1 $49 $-1 $21 #
shell $-1 $-1 $-1 $50 $-1 $23 #
shell $-1 $-1 $-1 $51 $-1 $25 #
shell $-1 $-1 $-1 $52 $-1 $27 #
shell $-1 $-1 $-1 $53 $-1 $29 #
shell $-1 $-1 $-1 $54 $-1 $31 #
face $-1 $55 $56 $33 $-1 $57 forward single #
face $-1 $58 $59 $34 $-1 $60 reversed single #
face $-1 $61 $62 $35 $-1 $63 reversed single #
face $-1 $64 $65 $36 $-1 $66 forward single #
face $-1 $67 $68 $37 $-1 $69 forward single #
face $-1 $70 $71 $38 $-1 $72 reversed single #
face $-1 $73 $74 $39 $-1 $75 forward single #
face $-1 $76 $77 $40 $-1 $78 forward single #
face $-1 $79 $80 $41 $-1 $81 reversed single #
face $-1 $82 $83 $42 $-1 $84 forward single #
face $-1 $85 $86 $43 $-1 $87 forward single #
face $-1 $88 $89 $33 $-1 $90 reversed single #
loop $-1 $-1 $91 $44 #
plane-surface $-1 0 0 15.159483802164566 0 0 1 1 0 0 forward_v I I I I #
face $-1 $92 $93 $34 $-1 $94 reversed single #
loop $-1 $-1 $95 $45 #
plane-surface $-1 -47.013166420059612 -27.59545054673071 0 0 -1 0 0 0 -1 forward_v I I I I #
face $-1 $96 $97 $35 $-1 $98 reversed single #
loop $-1 $-1 $99 $46 #
plane-surface $-1 27.093390416836542 76.683177300727749 132.30538179054292 1 0 0 0 -0.7660444514056185 -0.64278759981090561 forward_v I I I I #
face $-1 $100 $101 $36 $-1 $102 forward single #
loop $-1 $103 $104 $47 #
cone-surface $-1 33.50780404937835 29.115922475021591 7.1866171530522891 0 -0.7660444514056185 -0.64278759981090561 2.5 0 0 1 I I 0 1 2.5 forward I I I I #
face $-1 $105 $106 $37 $-1 $107 forward single #
loop $-1 $108 $109 $48 #
cone-surface $-1 43.129424498191057 29.115922475021591 7.1866171530522891 0 -0.7660444514056185 -0.64278759981090561 2.5 0 0 1 I I 0 1 2.5 forward I I I I #
face $-1 $110 $111 $38 $-1 $112 reversed single #
loop $-1 $-1 $113 $49 #
plane-surface $-1 -31.523946514041505 -36.519222001744325 9.526233975809987 0 -0.52991927123019833 0.84804809178421925 1 0 0 forward_v I I I I #
face $-1 $114 $115 $39 $-1 $116 forward single #
loop $-1 $117 $118 $50 #
cone-surface $-1 -33.942787238985872 -31.550638732249542 11.605038673508769 0 0.52991927123019833 -0.84804809178421925 1 0 0 1 I I 0 1 1 forward I I I I #
face $-1 $119 $120 $40 $-1 $121 forward single #
loop $-1 $122 $123 $51 #
cone-surface $-1 -29.105105789097131 -31.550638732249542 11.605038673508769 0 0.52991927123019833 -0.84804809178421925 1 0 0 1 I I 0 1 1 forward I I I I #
face $-1 $124 $125 $41 $-1 $126 reversed single #
loop $-1 $-1 $127 $52 #
plane-surface $-1 45.570501251467114 -96.779971893010412 105.96359100216841 1 0 0 0 0.52991927123019833 -0.84804809178421925 forward_v I I I I #
face $-1 $128 $129 $42 $-1 $130 forward single #
loop $-1 $131 $132 $53 #
cone-surface $-1 48.79562221805962 -31.550638732249542 11.605038673508769 0 0.52991927123019833 -0.84804809178421925 1 0 0 1 I I 0 1 1 forward I I I I #
face $-1 $133 $134 $43 $-1 $135 forward single #
loop $-1 $136 $137 $54 #
cone-surface $-1 53.633303667948354 -31.550638732249542 11.605038673508769 0 0.52991927123019833 -0.84804809178421925 1 0 0 1 I I 0 1 1 forward I I I I #
face $-1 $138 $139 $33 $-1 $140 reversed single #
loop $-1 $-1 $141 $55 #
plane-surface $-1 0 0 -15.159483802164566 0 0 1 1 0 0 forward_v I I I I #
coedge $-1 $142 $143 $144 $145 forward $56 $-1 #
face $-1 $146 $147 $34 $-1 $148 forward single #
loop $-1 $-1 $149 $58 #
plane-surface $-1 -37.167908205578371 -32.057336274237521 0 -1 0 0 0 0 1 forward_v I I I I #
coedge $-1 $150 $151 $152 $153 forward $59 $-1 #
face $-1 $154 $155 $35 $-1 $156 reversed single #
loop $-1 $-1 $157 $61 #
plane-surface $-1 38.318614273784704 -10.428984113181357 59.209601190811355 0 0.7660444514056185 0.64278759981090561 1 0 0 forward_v I I I I #
coedge $-1 $158 $159 $160 $161 reversed $62 $-1 #
face $-1 $-1 $162 $36 $-1 $163 forward single #
loop $-1 $164 $165 $64 #
cone-surface $-1 33.50780404937835 25.74795229830044 4.3605546939391999 0 -0.7660444514056185 -0.64278759981090561 1.25 0 0 1 I I -0.70710678118654746 0.70710678118654746 1.25 forward I I I I #
loop $-1 $-1 $166 $47 #
coedge $-1 $104 $104 $167 $168 reversed $65 $-1 #
face $-1 $-1 $169 $37 $-1 $170 forward single #
loop $-1 $171 $172 $67 #
cone-surface $-1 43.129424498191057 25.74795229830044 4.3605546939391999 0 -0.7660444514056185 -0.64278759981090561 1.25 0 0 1 I I -0.70710678118654746 0.70710678118654746 1.25 forward I I I I #
loop $-1 $-1 $173 $48 #
coedge $-1 $109 $109 $174 $175 reversed $68 $-1 #
face $-1 $176 $177 $38 $-1 $178 reversed single #
loop $-1 $-1 $179 $70 #
plane-surface $-1 -25.879984822504639 -96.779971893010412 105.96359100216841 -1 0 0 0 -0.52991927123019833 0.84804809178421925 forward_v I I I I #
coedge $-1 $180 $181 $182 $183 reversed $71 $-1 #
face $-1 $-1 $184 $39 $-1 $185 forward single #
loop $-1 $186 $187 $73 #
cone-surface $-1 -33.942787238985872 -30.824637848298298 10.443194412138144 0 0.52991927123019833 -0.84804809178421925 0.5 0 0 1 I I -0.70710678118654746 0.70710678118654746 0.5 forward I I I I #
loop $-1 $-1 $188 $50 #
coedge $-1 $118 $118 $189 $190 reversed $74 $-1 #
face $-1 $-1 $191 $40 $-1 $192 forward single #
loop $-1 $193 $194 $76 #
cone-surface $-1 -29.105105789097131 -30.824637848298298 10.443194412138144 0 0.52991927123019833 -0.84804809178421925 0.5 0 0 1 I I -0.70710678118654746 0.70710678118654746 0.5 forward I I I I #
loop $-1 $-1 $195 $51 #
coedge $-1 $123 $123 $196 $197 reversed $77 $-1 #
face $-1 $198 $199 $41 $-1 $200 reversed single #
loop $-1 $-1 $201 $79 #
plane-surface $-1 51.21446294300398 -36.519222001744325 9.526233975809987 0 -0.52991927123019833 0.84804809178421925 1 0 0 forward_v I I I I #
coedge $-1 $202 $203 $204 $205 reversed $80 $-1 #
face $-1 $-1 $206 $42 $-1 $207 forward single #
loop $-1 $208 $209 $82 #
cone-surface $-1 48.79562221805962 -30.824637848298298 10.443194412138144 0 0.52991927123019833 -0.84804809178421925 0.5 0 0 1 I I -0.70710678118654746 0.70710678118654746 0.5 forward I I I I #
loop $-1 $-1 $210 $53 #
coedge $-1 $132 $132 $211 $212 reversed $83 $-1 #
face $-1 $-1 $213 $43 $-1 $214 forward single #
loop $-1 $215 $216 $85 #
cone-surface $-1 53.633303667948354 -30.824637848298298 10.443194412138144 0 0.52991927123019833 -0.84804809178421925 0.5 0 0 1 I I -0.70710678118654746 0.70710678118654746 0.5 forward I I I I #
loop $-1 $-1 $217 $54 #
coedge $-1 $137 $137 $218 $219 reversed $86 $-1 #
face $-1 $220 $221 $33 $-1 $222 reversed single #
loop $-1 $-1 $223 $88 #
plane-surface $-1 0 -36.519222001744332 0 0 1 0 0 0 1 forward_v I I I I #
coedge $-1 $224 $225 $226 $227 forward $89 $-1 #
coedge $-1 $228 $91 $229 $230 forward $56 $-1 #
coedge $-1 $91 $228 $231 $232 forward $56 $-1 #
coedge $-1 $233 $234 $91 $145 reversed $235 $-1 #
edge $-1 $236 -36.519222001744332 $237 36.519222001744332 $144 $238 forward 7 unknown #
face $-1 $239 $240 $34 $-1 $241 reversed single #
loop $-1 $-1 $242 $92 #
plane-surface $-1 0 0 15.159483802164566 0 0 1 1 0 0 forward_v I I I I #
coedge $-1 $243 $244 $245 $246 reversed $93 $-1 #
coedge $-1 $247 $95 $248 $249 reversed $59 $-1 #
coedge $-1 $95 $247 $250 $251 reversed $59 $-1 #
coedge $-1 $244 $243 $95 $153 reversed $93 $-1 #
edge $-1 $252 -15.159483802164566 $253 15.159483802164566 $152 $254 forward 7 unknown #
face $-1 $255 $256 $35 $-1 $257 reversed single #
loop $-1 $-1 $258 $96 #
plane-surface $-1 49.543838130732865 76.683177300727749 132.30538179054292 -1 0 0 0 0.7660444514056185 0.64278759981090561 forward_v I I I I #
coedge $-1 $259 $260 $261 $262 reversed $97 $-1 #
coedge $-1 $159 $99 $263 $264 reversed $62 $-1 #
coedge $-1 $99 $158 $259 $265 reversed $62 $-1 #
coedge $-1 $261 $266 $99 $161 forward $267 $-1 #
edge $-1 $268 1.8223666486195427 $269 11.808136477136756 $160 $270 forward 7 unknown #
loop $-1 $-1 $167 $100 #
plane-surface $-1 38.318614273784704 -10.428984113181357 59.209601190811355 0 0.7660444514056185 0.64278759981090561 1 0 0 forward_v I I I I #
loop $-1 $-1 $271 $64 #
coedge $-1 $165 $165 $166 $272 reversed $101 $-1 #
coedge $-1 $166 $166 $165 $272 forward $103 $-1 #
coedge $-1 $167 $167 $104 $168 forward $162 $-1 #
edge $-1 $273 -3.6914879914902533e-016 $273 6.2831853071796004 $167 $274 forward 7 unknown #
loop $-1 $-1 $174 $105 #
plane-surface $-1 38.318614273784704 -10.428984113181357 59.209601190811355 0 0.7660444514056185 0.64278759981090561 1 0 0 forward_v I I I I #
loop $-1 $-1 $275 $67 #
coedge $-1 $172 $172 $173 $276 reversed $106 $-1 #
coedge $-1 $173 $173 $172 $276 forward $108 $-1 #
coedge $-1 $174 $174 $109 $175 forward $169 $-1 #
edge $-1 $277 -3.6914879914902533e-016 $277 6.2831853071796004 $174 $278 forward 7 unknown #
face $-1 $279 $280 $38 $-1 $281 forward single #
loop $-1 $-1 $182 $110 #
plane-surface $-1 0 -36.519222001744332 0 0 1 0 0 0 1 forward_v I I I I #
coedge $-1 $282 $283 $284 $285 reversed $111 $-1 #
coedge $-1 $286 $113 $287 $288 reversed $71 $-1 #
coedge $-1 $113 $286 $282 $289 forward $71 $-1 #
coedge $-1 $284 $290 $113 $183 forward $177 $-1 #
edge $-1 $291 -21.405934948557618 $292 -10.118011565483886 $182 $293 forward 7 unknown #
loop $-1 $-1 $189 $114 #
plane-surface $-1 -31.523946514041505 -36.519222001744325 9.526233975809987 0 -0.52991927123019833 0.84804809178421925 1 0 0 forward_v I I I I #
loop $-1 $-1 $294 $73 #
coedge $-1 $187 $187 $188 $295 reversed $115 $-1 #
coedge $-1 $188 $188 $187 $295 forward $117 $-1 #
coedge $-1 $189 $189 $118 $190 forward $184 $-1 #
edge $-1 $296 -2.6382310060522423e-015 $296 6.2831853071795978 $189 $297 forward 7 unknown #
loop $-1 $-1 $196 $119 #
plane-surface $-1 -31.523946514041505 -36.519222001744325 9.526233975809987 0 -0.52991927123019833 0.84804809178421925 1 0 0 forward_v I I I I #
loop $-1 $-1 $298 $76 #
coedge $-1 $194 $194 $195 $299 reversed $120 $-1 #
coedge $-1 $195 $195 $194 $299 forward $122 $-1 #
coedge $-1 $196 $196 $123 $197 forward $191 $-1 #
edge $-1 $300 -2.6382310060522423e-015 $300 6.2831853071795978 $196 $301 forward 7 unknown #
face $-1 $302 $303 $41 $-1 $304 reversed single #
loop $-1 $-1 $204 $124 #
plane-surface $-1 0 -36.519222001744332 0 0 1 0 0 0 1 forward_v I I I I #
coedge $-1 $305 $306 $307 $308 reversed $125 $-1 #
coedge $-1 $203 $127 $309 $310 reversed $80 $-1 #
coedge $-1 $127 $202 $305 $311 reversed $80 $-1 #
coedge $-1 $307 $312 $127 $205 forward $199 $-1 #
edge $-1 $313 37.822311698919641 $314 43.45556152527422 $204 $315 forward 7 unknown #
loop $-1 $-1 $211 $128 #
plane-surface $-1 51.21446294300398 -36.519222001744325 9.526233975809987 0 -0.52991927123019833 0.84804809178421925 1 0 0 forward_v I I I I #
loop $-1 $-1 $316 $82 #
coedge $-1 $209 $209 $210 $317 reversed $129 $-1 #
coedge $-1 $210 $210 $209 $317 forward $131 $-1 #
coedge $-1 $211 $211 $132 $212 forward $206 $-1 #
edge $-1 $318 -2.6382310060522423e-015 $318 6.2831853071795978 $211 $319 forward 7 unknown #
loop $-1 $-1 $218 $133 #
plane-surface $-1 51.21446294300398 -36.519222001744325 9.526233975809987 0 -0.52991927123019833 0.84804809178421925 1 0 0 forward_v I I I I #
loop $-1 $-1 $320 $85 #
coedge $-1 $216 $216 $217 $321 reversed $134 $-1 #
coedge $-1 $217 $217 $216 $321 forward $136 $-1 #
coedge $-1 $218 $218 $137 $219 forward $213 $-1 #
edge $-1 $322 -2.6382310060522423e-015 $322 6.2831853071795978 $218 $323 forward 7 unknown #
face $-1 $324 $325 $33 $-1 $326 reversed single #
loop $-1 $-1 $327 $138 #
plane-surface $-1 -56.858424634540853 0 0 1 0 0 0 0 -1 forward_v I I I I #
coedge $-1 $328 $231 $329 $330 forward $139 $-1 #
coedge $-1 $331 $141 $328 $332 forward $89 $-1 #
coedge $-1 $141 $331 $333 $334 forward $89 $-1 #
coedge $-1 $234 $233 $141 $227 reversed $235 $-1 #
edge $-1 $335 -36.519222001744332 $336 36.519222001744332 $226 $337 forward 7 unknown #
coedge $-1 $143 $142 $338 $339 forward $56 $-1 #
coedge $-1 $340 $341 $142 $230 reversed $325 $-1 #
edge $-1 $237 -56.858424634540853 $342 56.858424634540853 $229 $343 forward 7 unknown #
coedge $-1 $223 $344 $143 $232 reversed $139 $-1 #
edge $-1 $345 -56.858424634540853 $236 56.858424634540853 $231 $346 forward 7 unknown #
coedge $-1 $226 $144 $344 $347 forward $235 $-1 #
coedge $-1 $144 $226 $340 $348 reversed $235 $-1 #
loop $-1 $-1 $233 $324 #
vertex $-1 $145 $349 #
vertex $-1 $145 $350 #
straight-curve $-1 56.858424634540853 0 15.159483802164566 0 1 0 I I #
face $-1 $351 $352 $34 $-1 $353 reversed single #
loop $-1 $-1 $354 $146 #
plane-surface $-1 -56.858424634540853 0 0 1 0 0 0 0 -1 forward_v I I I I #
coedge $-1 $250 $355 $244 $356 forward $147 $-1 #
coedge $-1 $152 $149 $357 $358 reversed $93 $-1 #
coedge $-1 $149 $152 $242 $356 reversed $93 $-1 #
coedge $-1 $359 $360 $149 $246 forward $361 $-1 #
edge $-1 $362 -15.159483802164566 $363 15.159483802164566 $245 $364 forward 7 unknown #
coedge $-1 $151 $150 $354 $365 reversed $59 $-1 #
coedge $-1 $357 $366 $150 $249 forward $352 $-1 #
edge $-1 $367 -33.351841424511051 $253 -13.661324995548565 $248 $368 forward 7 unknown #
coedge $-1 $369 $242 $151 $251 forward $147 $-1 #
edge $-1 $252 13.661324995548565 $370 33.351841424511051 $250 $371 forward 7 unknown #
vertex $-1 $251 $372 #
vertex $-1 $249 $373 #
straight-curve $-1 -37.167908205578371 -27.59545054673071 0 0 0 -1 I I #
face $-1 $-1 $267 $35 $-1 $374 forward single #
loop $-1 $-1 $375 $154 #
plane-surface $-1 0 36.519222001744332 0 0 -1 0 0 0 -1 forward_v I I I I #
coedge $-1 $376 $377 $378 $379 reversed $155 $-1 #
coedge $-1 $380 $157 $159 $265 forward $97 $-1 #
coedge $-1 $157 $380 $376 $381 forward $97 $-1 #
coedge $-1 $378 $160 $157 $262 forward $267 $-1 #
edge $-1 $269 7.9340832799441898 $382 30.384530993840514 $261 $383 forward 7 unknown #
coedge $-1 $384 $385 $158 $264 forward $256 $-1 #
edge $-1 $386 -62.893784472632539 $268 -50.993207093106896 $263 $387 forward 7 unknown #
edge $-1 $269 57.503343713043066 $386 73.03844400348865 $159 $388 forward 7 unknown #
coedge $-1 $160 $378 $384 $389 forward $267 $-1 #
loop $-1 $-1 $378 $255 #
vertex $-1 $264 $390 #
vertex $-1 $161 $391 #
straight-curve $-1 27.093390416836542 38.341588650363875 15.159483802164566 0 -1 0 I I #
coedge $-1 $271 $271 $-1 $392 reversed $164 $-1 #
edge $-1 $393 0 $393 6.2831853071796004 $165 $394 forward 7 unknown #
vertex $-1 $168 $395 #
ellipse-curve $-1 33.50780404937835 31.526337087485718 9.2091951124017459 0 0.7660444514056185 0.64278759981090561 2.5 0 0 1 I I #
coedge $-1 $275 $275 $-1 $396 reversed $171 $-1 #
edge $-1 $397 0 $397 6.2831853071796004 $172 $398 forward 7 unknown #
vertex $-1 $175 $399 #
ellipse-curve $-1 43.129424498191057 31.526337087485718 9.2091951124017459 0 0.7660444514056185 0.64278759981090561 2.5 0 0 1 I I #
face $-1 $-1 $400 $38 $-1 $401 forward single #
loop $-1 $-1 $402 $176 #
plane-surface $-1 0 0 15.159483802164566 0 0 1 1 0 0 forward_v I I I I #
coedge $-1 $283 $179 $181 $289 reversed $111 $-1 #
coedge $-1 $179 $282 $403 $404 reversed $111 $-1 #
coedge $-1 $405 $182 $179 $285 forward $177 $-1 #
edge $-1 $292 -43.45556152527422 $406 -37.822311698919641 $284 $407 forward 7 unknown #
coedge $-1 $181 $180 $408 $409 reversed $71 $-1 #
coedge $-1 $410 $411 $180 $288 forward $400 $-1 #
edge $-1 $412 -11.262513106530129 $291 -0.63212064452909233 $287 $413 forward 7 unknown #
edge $-1 $414 -10.630392462001028 $292 7.9083955554844352e-015 $282 $415 forward 7 unknown #
coedge $-1 $182 $405 $410 $416 forward $177 $-1 #
vertex $-1 $183 $417 #
vertex $-1 $183 $418 #
straight-curve $-1 -15.761973257020752 -36.519222001744332 9.5262339758099781 1 0 0 I I #
coedge $-1 $294 $294 $-1 $419 reversed $186 $-1 #
edge $-1 $420 0 $420 6.2831853071796004 $187 $421 forward 7 unknown #
vertex $-1 $190 $422 #
ellipse-curve $-1 -33.942787238985872 -32.011679980585676 12.342858888987267 0 -0.52991927123019833 0.84804809178421925 1 0 0 1 I I #
coedge $-1 $298 $298 $-1 $423 reversed $193 $-1 #
edge $-1 $424 0 $424 6.2831853071796004 $194 $425 forward 7 unknown #
vertex $-1 $197 $426 #
ellipse-curve $-1 -29.105105789097131 -32.011679980585676 12.342858888987267 0 -0.52991927123019833 0.84804809178421925 1 0 0 1 I I #
face $-1 $-1 $427 $41 $-1 $428 forward single #
loop $-1 $-1 $429 $198 #
plane-surface $-1 56.858424634540853 0 0 -1 0 0 0 0 1 forward_v I I I I #
coedge $-1 $430 $201 $203 $311 forward $125 $-1 #
coedge $-1 $201 $430 $429 $431 reversed $125 $-1 #
coedge $-1 $432 $204 $201 $308 forward $199 $-1 #
edge $-1 $314 19.963269779965124 $433 31.251193163038856 $307 $434 forward 7 unknown #
coedge $-1 $435 $436 $202 $310 forward $427 $-1 #
edge $-1 $437 -20.885847987078201 $313 -11.870763944760874 $309 $438 forward 7 unknown #
edge $-1 $314 -7.9083955554844352e-015 $437 10.630392462001028 $203 $439 forward 7 unknown #
coedge $-1 $204 $432 $435 $440 reversed $199 $-1 #
vertex $-1 $440 $441 #
vertex $-1 $205 $442 #
straight-curve $-1 45.570501251467114 -36.519222001744332 52.981795501084207 0 0 -1 I I #
coedge $-1 $316 $316 $-1 $443 reversed $208 $-1 #
edge $-1 $444 0 $444 6.2831853071796004 $209 $445 forward 7 unknown #
vertex $-1 $212 $446 #
ellipse-curve $-1 48.79562221805962 -32.011679980585676 12.342858888987267 0 -0.52991927123019833 0.84804809178421925 1 0 0 1 I I #
coedge $-1 $320 $320 $-1 $447 reversed $215 $-1 #
edge $-1 $448 0 $448 6.2831853071796004 $216 $449 forward 7 unknown #
vertex $-1 $219 $450 #
ellipse-curve $-1 53.633303667948354 -32.011679980585676 12.342858888987267 0 -0.52991927123019833 0.84804809178421925 1 0 0 1 I I #
face $-1 $-1 $235 $33 $-1 $451 reversed single #
loop $-1 $-1 $340 $220 #
plane-surface $-1 0 36.519222001744332 0 0 -1 0 0 0 -1 forward_v I I I I #
coedge $-1 $452 $338 $341 $453 forward $221 $-1 #
coedge $-1 $344 $223 $224 $332 reversed $139 $-1 #
coedge $-1 $338 $452 $223 $330 reversed $221 $-1 #
edge $-1 $345 -15.159483802164566 $454 15.159483802164566 $329 $455 forward 7 unknown #
coedge $-1 $225 $224 $452 $456 forward $89 $-1 #
edge $-1 $336 -56.858424634540853 $454 56.858424634540853 $328 $457 forward 7 unknown #
coedge $-1 $341 $340 $225 $334 reversed $325 $-1 #
edge $-1 $458 -56.858424634540853 $335 56.858424634540853 $333 $459 forward 7 unknown #
vertex $-1 $227 $460 #
vertex $-1 $347 $461 #
straight-curve $-1 56.858424634540853 0 -15.159483802164566 0 -1 0 I I #
coedge $-1 $327 $329 $228 $339 reversed $221 $-1 #
edge $-1 $342 -36.519222001744332 $345 36.519222001744332 $338 $462 forward 7 unknown #
coedge $-1 $333 $229 $234 $348 forward $325 $-1 #
coedge $-1 $229 $333 $327 $453 reversed $325 $-1 #
vertex $-1 $230 $463 #
straight-curve $-1 0 36.519222001744332 15.159483802164566 -1 0 0 I I #
coedge $-1 $231 $328 $233 $347 reversed $139 $-1 #
vertex $-1 $339 $464 #
straight-curve $-1 0 -36.519222001744332 15.159483802164566 1 0 0 I I #
edge $-1 $236 -15.159483802164566 $336 15.159483802164566 $233 $465 forward 7 unknown #
edge $-1 $237 -15.159483802164566 $335 15.159483802164566 $234 $466 forward 7 unknown #
point $-1 56.858424634540853 -36.519222001744332 15.159483802164566 #
point $-1 56.858424634540853 36.519222001744332 15.159483802164566 #
face $-1 $-1 $361 $34 $-1 $467 reversed single #
loop $-1 $-1 $357 $239 #
plane-surface $-1 0 0 -15.159483802164566 0 0 1 1 0 0 forward_v I I I I #
coedge $-1 $468 $469 $247 $365 forward $240 $-1 #
coedge $-1 $242 $369 $359 $470 forward $147 $-1 #
edge $-1 $363 -20.490553864625571 $252 -11.56678240961195 $242 $471 forward 7 unknown #
coedge $-1 $472 $248 $243 $358 forward $352 $-1 #
edge $-1 $253 11.56678240961195 $362 20.490553864625571 $357 $473 forward 7 unknown #
coedge $-1 $474 $245 $355 $470 reversed $361 $-1 #
coedge $-1 $245 $474 $472 $475 reversed $361 $-1 #
loop $-1 $-1 $245 $351 #
vertex $-1 $475 $476 #
vertex $-1 $246 $477 #
straight-curve $-1 -37.167908205578371 -36.519222001744332 0 0 0 1 I I #
edge $-1 $370 -15.159483802164566 $367 15.159483802164566 $354 $478 forward 7 unknown #
coedge $-1 $248 $472 $468 $479 forward $352 $-1 #
vertex $-1 $249 $480 #
straight-curve $-1 -23.506583210029806 -27.59545054673071 -15.159483802164566 1 0 0 I I #
coedge $-1 $355 $250 $469 $481 forward $147 $-1 #
vertex $-1 $481 $482 #
straight-curve $-1 -23.506583210029806 -27.59545054673071 15.159483802164566 -1 0 0 I I #
point $-1 -37.167908205578371 -27.59545054673071 15.159483802164566 #
point $-1 -37.167908205578371 -27.59545054673071 -15.159483802164566 #
plane-surface $-1 0 0 15.159483802164566 0 0 1 1 0 0 forward_v I I I I #
coedge $-1 $385 $384 $377 $483 forward $256 $-1 #
coedge $-1 $377 $258 $260 $381 reversed $155 $-1 #
coedge $-1 $258 $376 $375 $483 reversed $155 $-1 #
coedge $-1 $266 $261 $258 $379 forward $267 $-1 #
edge $-1 $382 -11.808136477136756 $484 -1.8223666486195427 $378 $485 forward 7 unknown #
coedge $-1 $260 $259 $385 $486 reversed $97 $-1 #
edge $-1 $487 -73.03844400348865 $382 -57.503343713043066 $376 $488 forward 7 unknown #
vertex $-1 $262 $489 #
straight-curve $-1 19.159307136892352 26.533452173227118 15.159483802164566 1 0 0 I I #
coedge $-1 $375 $263 $266 $389 reversed $256 $-1 #
coedge $-1 $263 $375 $380 $486 forward $256 $-1 #
vertex $-1 $264 $490 #
straight-curve $-1 27.093390416836542 36.519222001744332 66.152690895271462 0 0 1 I I #
straight-curve $-1 27.093390416836542 -10.428984113181357 59.209601190811355 0 0.64278759981090561 -0.7660444514056185 I I #
edge $-1 $484 -49.543838130732865 $268 -27.093390416836542 $384 $491 forward 7 unknown #
point $-1 27.093390416836542 36.519222001744332 15.159483802164566 #
point $-1 27.093390416836542 26.533452173227118 15.159483802164566 #
edge $-1 $492 1 $492 0 $271 $-1 forward 7 unknown #
vertex $-1 $272 $493 #
ellipse-curve $-1 33.50780404937835 26.705507862557464 5.1640391937028323 0 0.7660444514056185 0.64278759981090561 2.5 0 0 1 I I #
point $-1 36.00780404937835 31.526337087485715 9.2091951124017442 #
edge $-1 $494 1 $494 0 $275 $-1 forward 7 unknown #
vertex $-1 $276 $495 #
ellipse-curve $-1 43.129424498191057 26.705507862557464 5.1640391937028323 0 0.7660444514056185 0.64278759981090561 2.5 0 0 1 I I #
point $-1 45.629424498191057 31.526337087485715 9.2091951124017442 #
loop $-1 $-1 $287 $279 #
plane-surface $-1 -37.167908205578371 -32.057336274237521 0 -1 0 0 0 0 1 forward_v I I I I #
coedge $-1 $496 $408 $411 $497 forward $280 $-1 #
coedge $-1 $408 $496 $283 $404 forward $280 $-1 #
edge $-1 $406 11.870763944760874 $414 20.885847987078201 $403 $498 forward 7 unknown #
coedge $-1 $290 $284 $496 $499 reversed $177 $-1 #
vertex $-1 $285 $500 #
straight-curve $-1 -25.879984822504639 -36.519222001744332 52.981795501084207 0 0 1 I I #
coedge $-1 $402 $403 $286 $409 forward $280 $-1 #
edge $-1 $414 10.118011565483886 $412 21.405934948557618 $408 $501 forward 7 unknown #
coedge $-1 $411 $287 $290 $416 reversed $400 $-1 #
coedge $-1 $287 $410 $402 $497 reversed $400 $-1 #
vertex $-1 $409 $502 #
straight-curve $-1 -37.167908205578371 -37.05529070811464 9.1912610645315649 0 -0.84804809178421925 -0.52991927123019833 I I #
vertex $-1 $409 $503 #
straight-curve $-1 -25.879984822504639 -36.519222001744325 9.526233975809987 0 -0.84804809178421925 -0.52991927123019833 I I #
edge $-1 $504 -15.159483802164566 $291 -9.5262339758099834 $290 $505 forward 7 unknown #
point $-1 -37.167908205578371 -36.519222001744332 9.5262339758099834 #
point $-1 -25.879984822504639 -36.519222001744332 9.5262339758099834 #
edge $-1 $506 1 $506 0 $294 $-1 forward 7 unknown #
vertex $-1 $295 $507 #
ellipse-curve $-1 -33.942787238985872 -31.089597483913398 10.867218458030253 0 -0.52991927123019833 0.84804809178421925 1 0 0 1 I I #
point $-1 -32.942787238985872 -32.01167998058569 12.342858888987285 #
edge $-1 $508 1 $508 0 $298 $-1 forward 7 unknown #
vertex $-1 $299 $509 #
ellipse-curve $-1 -29.105105789097131 -31.089597483913398 10.867218458030253 0 -0.52991927123019833 0.84804809178421925 1 0 0 1 I I #
point $-1 -28.105105789097131 -32.01167998058569 12.342858888987285 #
loop $-1 $-1 $309 $302 #
plane-surface $-1 0 0 15.159483802164566 0 0 1 1 0 0 forward_v I I I I #
coedge $-1 $510 $511 $306 $431 forward $303 $-1 #
coedge $-1 $306 $305 $436 $512 reversed $125 $-1 #
edge $-1 $433 -12.960960782996992 $513 -2.3305683209959569 $429 $514 forward 7 unknown #
coedge $-1 $312 $307 $511 $515 reversed $199 $-1 #
vertex $-1 $431 $516 #
straight-curve $-1 25.60723147150199 -36.519222001744332 9.5262339758099781 1 0 0 I I #
coedge $-1 $517 $309 $312 $440 forward $427 $-1 #
coedge $-1 $309 $517 $430 $512 forward $427 $-1 #
vertex $-1 $310 $518 #
straight-curve $-1 45.570501251467114 -48.389985946505206 15.159483802164566 0 -1 0 I I #
straight-curve $-1 45.570501251467114 -36.519222001744325 9.526233975809987 0 0.84804809178421925 0.52991927123019833 I I #
edge $-1 $313 45.570501251467114 $519 56.858424634540853 $312 $520 forward 7 unknown #
point $-1 45.570501251467114 -36.519222001744332 15.159483802164566 #
point $-1 45.570501251467114 -36.519222001744332 9.5262339758099834 #
edge $-1 $521 1 $521 0 $316 $-1 forward 7 unknown #
vertex $-1 $317 $522 #
ellipse-curve $-1 48.79562221805962 -31.089597483913398 10.867218458030253 0 -0.52991927123019833 0.84804809178421925 1 0 0 1 I I #
point $-1 49.79562221805962 -32.01167998058569 12.342858888987285 #
edge $-1 $523 1 $523 0 $320 $-1 forward 7 unknown #
vertex $-1 $321 $524 #
ellipse-curve $-1 53.633303667948354 -31.089597483913398 10.867218458030253 0 -0.52991927123019833 0.84804809178421925 1 0 0 1 I I #
point $-1 54.633303667948354 -32.01167998058569 12.342858888987285 #
plane-surface $-1 56.858424634540853 0 0 -1 0 0 0 0 1 forward_v I I I I #
coedge $-1 $329 $327 $331 $456 reversed $221 $-1 #
edge $-1 $342 -15.159483802164566 $458 15.159483802164566 $341 $525 forward 7 unknown #
vertex $-1 $456 $526 #
straight-curve $-1 -56.858424634540853 -36.519222001744332 0 0 0 -1 I I #
edge $-1 $454 -36.519222001744332 $458 36.519222001744332 $452 $527 forward 7 unknown #
straight-curve $-1 0 -36.519222001744332 -15.159483802164566 -1 0 0 I I #
vertex $-1 $334 $528 #
straight-curve $-1 0 36.519222001744332 -15.159483802164566 1 0 0 I I #
point $-1 56.858424634540853 36.519222001744332 -15.159483802164566 #
point $-1 56.858424634540853 -36.519222001744332 -15.159483802164566 #
straight-curve $-1 -56.858424634540853 0 15.159483802164566 0 -1 0 I I #
point $-1 -56.858424634540853 36.519222001744332 15.159483802164566 #
point $-1 -56.858424634540853 -36.519222001744332 15.159483802164566 #
straight-curve $-1 56.858424634540853 -36.519222001744332 0 0 0 -1 I I #
straight-curve $-1 56.858424634540853 36.519222001744332 0 0 0 -1 I I #
plane-surface $-1 0 -36.519222001744332 0 0 1 0 0 0 1 forward_v I I I I #
coedge $-1 $529 $354 $366 $479 reversed $240 $-1 #
coedge $-1 $354 $529 $369 $481 reversed $240 $-1 #
edge $-1 $530 -56.858424634540853 $363 -37.167908205578371 $359 $531 forward 7 unknown #
straight-curve $-1 -37.167908205578371 -16.02866813711876 15.159483802164566 0 1 0 I I #
coedge $-1 $366 $357 $360 $475 forward $352 $-1 #
straight-curve $-1 -37.167908205578371 -16.02866813711876 -15.159483802164566 0 -1 0 I I #
coedge $-1 $360 $359 $529 $532 forward $361 $-1 #
edge $-1 $362 37.167908205578371 $533 56.858424634540853 $360 $534 forward 7 unknown #
point $-1 -37.167908205578371 -36.519222001744332 -15.159483802164566 #
point $-1 -37.167908205578371 -36.519222001744332 15.159483802164566 #
straight-curve $-1 -56.858424634540853 -27.59545054673071 0 0 0 -1 I I #
edge $-1 $533 -36.519222001744332 $367 -27.59545054673071 $468 $535 forward 7 unknown #
point $-1 -56.858424634540853 -27.59545054673071 -15.159483802164566 #
edge $-1 $370 27.59545054673071 $530 36.519222001744332 $469 $536 forward 7 unknown #
point $-1 -56.858424634540853 -27.59545054673071 15.159483802164566 #
edge $-1 $484 50.993207093106896 $487 62.893784472632539 $375 $537 forward 7 unknown #
vertex $-1 $389 $538 #
straight-curve $-1 49.543838130732865 38.341588650363875 15.159483802164566 0 1 0 I I #
edge $-1 $487 -30.384530993840514 $386 -7.9340832799441898 $385 $539 forward 7 unknown #
vertex $-1 $486 $540 #
straight-curve $-1 49.543838130732865 -10.428984113181357 59.209601190811355 0 -0.64278759981090561 0.7660444514056185 I I #
point $-1 49.543838130732865 26.533452173227118 15.159483802164566 #
point $-1 27.093390416836542 36.519222001744332 3.2589064226389226 #
straight-curve $-1 0 36.519222001744332 15.159483802164566 -1 0 0 I I #
vertex $-1 $392 $541 #
point $-1 36.00780404937835 26.705507862557464 5.1640391937028323 #
vertex $-1 $396 $542 #
point $-1 45.629424498191057 26.705507862557464 5.1640391937028323 #
coedge $-1 $403 $402 $405 $499 forward $280 $-1 #
edge $-1 $412 -20.885847987078201 $504 -11.870763944760874 $402 $543 forward 7 unknown #
straight-curve $-1 -25.879984822504639 -48.389985946505206 15.159483802164566 0 1 0 I I #
edge $-1 $504 -37.167908205578371 $406 -25.879984822504639 $405 $544 forward 7 unknown #
point $-1 -25.879984822504639 -36.519222001744332 15.159483802164566 #
straight-curve $-1 -15.761973257020752 -27.504137959427005 15.159483802164566 -1 0 0 I I #
point $-1 -37.167908205578371 -27.504137959427005 15.159483802164566 #
point $-1 -25.879984822504639 -27.504137959427005 15.159483802164566 #
vertex $-1 $499 $545 #
straight-curve $-1 -37.167908205578371 -36.519222001744332 0 0 0 -1 I I #
vertex $-1 $419 $546 #
point $-1 -32.942787238985872 -31.089597483913398 10.867218458030253 #
vertex $-1 $423 $547 #
point $-1 -28.105105789097131 -31.089597483913398 10.867218458030253 #
coedge $-1 $511 $429 $517 $548 reversed $303 $-1 #
coedge $-1 $429 $510 $432 $515 forward $303 $-1 #
edge $-1 $513 -31.251193163038856 $437 -19.963269779965124 $436 $549 forward 7 unknown #
vertex $-1 $431 $550 #
straight-curve $-1 56.858424634540853 -25.527703942033632 16.39449686837893 0 0.84804809178421925 0.52991927123019833 I I #
edge $-1 $519 -15.159483802164566 $433 -9.5262339758099834 $511 $551 forward 7 unknown #
point $-1 56.858424634540846 -36.519222001744332 9.5262339758099834 #
coedge $-1 $436 $435 $510 $548 forward $427 $-1 #
point $-1 45.570501251467114 -27.504137959427005 15.159483802164566 #
vertex $-1 $548 $552 #
straight-curve $-1 0 -36.519222001744332 15.159483802164566 1 0 0 I I #
vertex $-1 $443 $553 #
point $-1 49.79562221805962 -31.089597483913398 10.867218458030253 #
vertex $-1 $447 $554 #
point $-1 54.633303667948354 -31.089597483913398 10.867218458030253 #
straight-curve $-1 -56.858424634540853 36.519222001744332 0 0 0 -1 I I #
point $-1 -56.858424634540853 -36.519222001744332 -15.159483802164566 #
straight-curve $-1 -56.858424634540853 0 -15.159483802164566 0 1 0 I I #
point $-1 -56.858424634540853 36.519222001744332 -15.159483802164566 #
coedge $-1 $469 $468 $474 $532 reversed $240 $-1 #
vertex $-1 $481 $555 #
straight-curve $-1 0 -36.519222001744332 15.159483802164566 1 0 0 I I #
edge $-1 $530 -15.159483802164566 $533 15.159483802164566 $529 $556 forward 7 unknown #
vertex $-1 $479 $557 #
straight-curve $-1 0 -36.519222001744332 -15.159483802164566 -1 0 0 I I #
straight-curve $-1 -56.858424634540853 0 -15.159483802164566 0 1 0 I I #
straight-curve $-1 -56.858424634540853 0 15.159483802164566 0 -1 0 I I #
straight-curve $-1 49.543838130732865 36.519222001744332 66.152690895271462 0 0 -1 I I #
point $-1 49.543838130732865 36.519222001744332 15.159483802164566 #
straight-curve $-1 19.159307136892352 36.519222001744332 3.2589064226389191 -1 0 0 I I #
point $-1 49.543838130732865 36.519222001744332 3.2589064226389226 #
point $-1 33.50780404937835 24.790396734043416 3.557070194175568 #
point $-1 43.129424498191057 24.790396734043416 3.557070194175568 #
straight-curve $-1 -37.167908205578371 -48.389985946505206 15.159483802164566 0 -1 0 I I #
straight-curve $-1 0 -36.519222001744332 15.159483802164566 1 0 0 I I #
point $-1 -37.167908205578371 -36.519222001744332 15.159483802164566 #
point $-1 -33.942787238985872 -30.559678212683199 10.019170366246035 #
point $-1 -29.105105789097131 -30.559678212683199 10.019170366246035 #
edge $-1 $519 -36.519222001744332 $513 -27.504137959427005 $510 $558 forward 7 unknown #
straight-curve $-1 25.60723147150199 -27.504137959427005 15.159483802164566 -1 0 0 I I #
point $-1 56.858424634540846 -27.504137959427005 15.159483802164566 #
straight-curve $-1 56.858424634540853 -36.519222001744332 0 0 0 -1 I I #
point $-1 56.858424634540853 -36.519222001744332 15.159483802164566 #
point $-1 48.79562221805962 -30.559678212683199 10.019170366246035 #
point $-1 53.633303667948354 -30.559678212683199 10.019170366246035 #
point $-1 -56.858424634540853 -36.519222001744332 15.159483802164566 #
straight-curve $-1 -56.858424634540853 -36.519222001744332 0 0 0 -1 I I #
point $-1 -56.858424634540853 -36.519222001744332 -15.159483802164566 #
straight-curve $-1 56.858424634540853 0 15.159483802164566 0 1 0 I I #
End-of-ACIS-data 