500 0 7 0           
7 Unknown 11 ACIS 5.0 NT 24 Fri Mar 26 02:11:31 1999 
-1 9.9999999999999995e-007 1e-010 
body $-1 $7 $-1 $8 #
body $-1 $9 $-1 $10 #
body $-1 $11 $-1 $12 #
body $-1 $13 $-1 $14 #
body $-1 $15 $-1 $16 #
body $-1 $17 $-1 $18 #
body $-1 $19 $-1 $20 #
lump $-1 $-1 $21 $0 #
transform $-1 1 0 0 0 1 0 0 0 1 76.085085604419078 39.793565570674538 18.558226677912192 1 rotate no_reflect no_shear #
lump $-1 $-1 $22 $1 #
transform $-1 1 0 0 0 1 0 0 0 1 76.085085604419078 39.793565570674538 18.558226677912192 1 rotate no_reflect no_shear #
lump $-1 $-1 $23 $2 #
transform $-1 1 0 0 0 1 0 0 0 1 76.085085604419078 39.793565570674538 18.558226677912192 1 rotate no_reflect no_shear #
lump $-1 $-1 $24 $3 #
transform $-1 1 0 0 0 1 0 0 0 1 76.085085604419078 39.793565570674538 18.558226677912192 1 rotate no_reflect no_shear #
lump $-1 $-1 $25 $4 #
transform $-1 1 0 0 0 1 0 0 0 1 76.085085604419078 39.793565570674538 18.558226677912192 1 rotate no_reflect no_shear #
lump $-1 $-1 $26 $5 #
transform $-1 1 0 0 0 1 0 0 0 1 76.085085604419078 39.793565570674538 18.558226677912192 1 rotate no_reflect no_shear #
lump $-1 $-1 $27 $6 #
transform $-1 1 0 0 0 1 0 0 0 1 76.085085604419078 39.793565570674538 18.558226677912192 1 rotate no_reflect no_shear #
shell $-1 $-1 $-1 $28 $-1 $7 #
shell $-1 $-1 $-1 $29 $-1 $9 #
shell $-1 $-1 $-1 $30 $-1 $11 #
shell $-1 $-1 $-1 $31 $-1 $13 #
shell $-1 $-1 $-1 $32 $-1 $15 #
shell $-1 $-1 $-1 $33 $-1 $17 #
shell $-1 $-1 $-1 $34 $-1 $19 #
face $-1 $35 $36 $21 $-1 $37 reversed single #
face $-1 $38 $39 $22 $-1 $40 forward single #
face $-1 $41 $42 $23 $-1 $43 forward single #
face $-1 $44 $45 $24 $-1 $46 reversed single #
face $-1 $47 $48 $25 $-1 $49 forward single #
face $-1 $50 $51 $26 $-1 $52 forward single #
face $-1 $53 $54 $27 $-1 $55 forward single #
face $-1 $56 $57 $21 $-1 $58 forward single #
loop $-1 $-1 $59 $28 #
plane-surface $-1 -76.085085604419078 0 0 1 0 0 0 0 -1 forward_v I I I I #
face $-1 $60 $61 $22 $-1 $62 reversed single #
loop $-1 $-1 $63 $29 #
plane-surface $-1 -76.085085604419078 0 0 1 0 0 0 0 -1 forward_v I I I I #
face $-1 $64 $65 $23 $-1 $66 reversed single #
loop $-1 $-1 $67 $30 #
plane-surface $-1 64.052901503997788 0 9.3072405350159499 0 0 1 1 0 0 forward_v I I I I #
face $-1 $68 $69 $24 $-1 $70 reversed single #
loop $-1 $-1 $71 $31 #
plane-surface $-1 -30.661899153513527 52.93775710563505 173.6344324064209 -1 0 0 0 0.52991927123019833 0.84804809178421925 forward_v I I I I #
face $-1 $72 $73 $25 $-1 $74 forward single #
loop $-1 $75 $76 $32 #
cone-surface $-1 -55.269587469120573 25.94450268396071 8.9977501359487402 0 -0.52991927123019833 -0.84804809178421925 2.5 0 0 1 I I 0 1 2.5 forward I I I I #
face $-1 $77 $78 $26 $-1 $79 forward single #
loop $-1 $80 $81 $33 #
cone-surface $-1 -46.04170435076793 25.94450268396071 8.9977501359487402 0 -0.52991927123019833 -0.84804809178421925 2.5 0 0 1 I I 0 1 2.5 forward I I I I #
face $-1 $82 $83 $27 $-1 $84 forward single #
loop $-1 $85 $86 $34 #
cone-surface $-1 -36.813821232415286 25.94450268396071 8.9977501359487402 0 -0.52991927123019833 -0.84804809178421925 2.5 0 0 1 I I 0 1 2.5 forward I I I I #
face $-1 $87 $88 $21 $-1 $89 reversed single #
loop $-1 $-1 $90 $35 #
plane-surface $-1 0 0 18.558226677912192 0 0 1 1 0 0 forward_v I I I I #
coedge $-1 $91 $92 $93 $94 reversed $36 $-1 #
face $-1 $95 $96 $22 $-1 $97 reversed single #
loop $-1 $-1 $98 $38 #
plane-surface $-1 0 0 -18.558226677912192 0 0 1 1 0 0 forward_v I I I I #
coedge $-1 $99 $100 $101 $102 forward $39 $-1 #
face $-1 $103 $104 $23 $-1 $105 reversed single #
loop $-1 $-1 $106 $41 #
plane-surface $-1 64.052901503997788 0 4.0888260031714907 0 0 1 1 0 0 forward_v I I I I #
coedge $-1 $107 $108 $109 $110 reversed $42 $-1 #
face $-1 $111 $112 $24 $-1 $113 reversed single #
loop $-1 $-1 $114 $44 #
plane-surface $-1 -46.04170435076793 -27.700149124326977 44.586809086287758 0 0.52991927123019833 0.84804809178421925 1 0 0 forward_v I I I I #
coedge $-1 $115 $116 $117 $118 reversed $45 $-1 #
face $-1 $-1 $119 $25 $-1 $120 forward single #
loop $-1 $121 $122 $47 #
cone-surface $-1 -55.269587469120573 24.35267885303022 6.4502995419301854 0 -0.52991927123019833 -0.84804809178421925 1.25 0 0 1 I I -0.70710678118654746 0.70710678118654746 1.25 forward I I I I #
loop $-1 $-1 $123 $32 #
coedge $-1 $76 $76 $124 $125 reversed $48 $-1 #
face $-1 $-1 $126 $26 $-1 $127 forward single #
loop $-1 $128 $129 $50 #
cone-surface $-1 -46.04170435076793 24.35267885303022 6.4502995419301854 0 -0.52991927123019833 -0.84804809178421925 1.25 0 0 1 I I -0.70710678118654746 0.70710678118654746 1.25 forward I I I I #
loop $-1 $-1 $130 $33 #
coedge $-1 $81 $81 $131 $132 reversed $51 $-1 #
face $-1 $-1 $133 $27 $-1 $134 forward single #
loop $-1 $135 $136 $53 #
cone-surface $-1 -36.813821232415286 24.35267885303022 6.4502995419301854 0 -0.52991927123019833 -0.84804809178421925 1.25 0 0 1 I I -0.70710678118654746 0.70710678118654746 1.25 forward I I I I #
loop $-1 $-1 $137 $34 #
coedge $-1 $86 $86 $138 $139 reversed $54 $-1 #
face $-1 $140 $141 $21 $-1 $142 reversed single #
loop $-1 $-1 $143 $56 #
plane-surface $-1 0 0 -18.558226677912192 0 0 1 1 0 0 forward_v I I I I #
coedge $-1 $144 $145 $146 $147 forward $57 $-1 #
coedge $-1 $148 $59 $149 $150 reversed $36 $-1 #
coedge $-1 $59 $148 $151 $152 forward $36 $-1 #
coedge $-1 $153 $154 $59 $94 forward $88 $-1 #
edge $-1 $155 -39.793565570674538 $156 39.793565570674538 $59 $157 forward 7 unknown #
face $-1 $158 $159 $22 $-1 $160 reversed single #
loop $-1 $-1 $161 $60 #
plane-surface $-1 -83.416873632617452 -21.727744753740346 0 0 1 0 0 0 1 forward_v I I I I #
coedge $-1 $162 $163 $100 $164 forward $61 $-1 #
coedge $-1 $165 $63 $166 $167 reversed $39 $-1 #
coedge $-1 $63 $165 $98 $164 reversed $39 $-1 #
coedge $-1 $168 $169 $63 $102 reversed $170 $-1 #
edge $-1 $171 -18.558226677912192 $172 18.558226677912192 $101 $173 forward 7 unknown #
face $-1 $174 $175 $23 $-1 $176 reversed single #
loop $-1 $-1 $177 $64 #
plane-surface $-1 52.020717403576498 0 6.6980332690937203 1 0 0 0 0 -1 forward_v I I I I #
coedge $-1 $178 $179 $180 $181 reversed $65 $-1 #
coedge $-1 $182 $67 $183 $184 reversed $42 $-1 #
coedge $-1 $67 $182 $185 $186 reversed $42 $-1 #
coedge $-1 $187 $188 $67 $110 forward $175 $-1 #
edge $-1 $189 -39.793565570674538 $190 39.793565570674538 $109 $191 forward 7 unknown #
face $-1 $192 $193 $24 $-1 $194 reversed single #
loop $-1 $-1 $195 $68 #
plane-surface $-1 -61.421509548022328 52.93775710563505 173.6344324064209 1 0 0 0 -0.52991927123019833 -0.84804809178421925 forward_v I I I I #
coedge $-1 $196 $197 $198 $199 reversed $69 $-1 #
coedge $-1 $116 $71 $200 $201 reversed $45 $-1 #
coedge $-1 $71 $115 $196 $202 reversed $45 $-1 #
coedge $-1 $198 $203 $71 $118 forward $193 $-1 #
edge $-1 $204 68.258989525298261 $205 84.405161650648637 $117 $206 forward 7 unknown #
loop $-1 $-1 $124 $72 #
plane-surface $-1 -46.04170435076793 -27.700149124326977 44.586809086287758 0 0.52991927123019833 0.84804809178421925 1 0 0 forward_v I I I I #
loop $-1 $-1 $207 $47 #
coedge $-1 $122 $122 $123 $208 reversed $73 $-1 #
coedge $-1 $123 $123 $122 $208 forward $75 $-1 #
coedge $-1 $124 $124 $76 $125 forward $119 $-1 #
edge $-1 $209 -1.498564199640866e-016 $209 6.2831853071796004 $124 $210 forward 7 unknown #
loop $-1 $-1 $131 $77 #
plane-surface $-1 -46.04170435076793 -27.700149124326977 44.586809086287758 0 0.52991927123019833 0.84804809178421925 1 0 0 forward_v I I I I #
loop $-1 $-1 $211 $50 #
coedge $-1 $129 $129 $130 $212 reversed $78 $-1 #
coedge $-1 $130 $130 $129 $212 forward $80 $-1 #
coedge $-1 $131 $131 $81 $132 forward $126 $-1 #
edge $-1 $213 -1.498564199640866e-016 $213 6.2831853071796004 $131 $214 forward 7 unknown #
loop $-1 $-1 $138 $82 #
plane-surface $-1 -46.04170435076793 -27.700149124326977 44.586809086287758 0 0.52991927123019833 0.84804809178421925 1 0 0 forward_v I I I I #
loop $-1 $-1 $215 $53 #
coedge $-1 $136 $136 $137 $216 reversed $83 $-1 #
coedge $-1 $137 $137 $136 $216 forward $85 $-1 #
coedge $-1 $138 $138 $86 $139 forward $133 $-1 #
edge $-1 $217 -1.498564199640866e-016 $217 6.2831853071796004 $138 $218 forward 7 unknown #
face $-1 $219 $220 $21 $-1 $221 reversed single #
loop $-1 $-1 $149 $87 #
plane-surface $-1 0 -39.793565570674538 0 0 1 0 0 0 1 forward_v I I I I #
coedge $-1 $154 $153 $222 $223 forward $88 $-1 #
coedge $-1 $224 $90 $225 $226 forward $57 $-1 #
coedge $-1 $90 $224 $227 $228 forward $57 $-1 #
coedge $-1 $229 $230 $90 $147 reversed $231 $-1 #
edge $-1 $232 -39.793565570674538 $233 39.793565570674538 $146 $234 forward 7 unknown #
coedge $-1 $92 $91 $224 $235 reversed $36 $-1 #
coedge $-1 $236 $227 $91 $150 forward $141 $-1 #
edge $-1 $237 -18.558226677912192 $155 18.558226677912192 $91 $238 forward 7 unknown #
coedge $-1 $225 $239 $92 $152 reversed $220 $-1 #
edge $-1 $240 -18.558226677912192 $156 18.558226677912192 $151 $241 forward 7 unknown #
coedge $-1 $143 $93 $239 $242 forward $88 $-1 #
coedge $-1 $93 $143 $236 $243 forward $88 $-1 #
vertex $-1 $94 $244 #
vertex $-1 $242 $245 #
straight-curve $-1 -76.085085604419078 0 -18.558226677912192 0 1 0 I I #
face $-1 $246 $170 $22 $-1 $247 reversed single #
loop $-1 $-1 $248 $95 #
plane-surface $-1 -90.748661660815827 -18.717208119124962 0 1 0 0 0 0 -1 forward_v I I I I #
coedge $-1 $249 $250 $251 $252 forward $96 $-1 #
coedge $-1 $253 $98 $249 $254 forward $61 $-1 #
coedge $-1 $98 $253 $168 $255 forward $61 $-1 #
edge $-1 $171 15.706671484509579 $256 21.727744753740346 $98 $257 forward 7 unknown #
coedge $-1 $100 $99 $258 $259 forward $39 $-1 #
coedge $-1 $260 $261 $99 $167 forward $262 $-1 #
edge $-1 $263 -21.727744753740346 $172 -15.706671484509579 $166 $264 forward 7 unknown #
coedge $-1 $265 $101 $163 $255 reversed $170 $-1 #
coedge $-1 $101 $265 $260 $266 reversed $170 $-1 #
loop $-1 $-1 $101 $158 #
vertex $-1 $164 $267 #
vertex $-1 $266 $268 #
straight-curve $-1 -76.085085604419078 -15.706671484509579 0 0 0 1 I I #
face $-1 $269 $270 $23 $-1 $271 reversed single #
loop $-1 $-1 $180 $103 #
plane-surface $-1 76.085085604419078 0 0 -1 0 0 0 0 1 forward_v I I I I #
coedge $-1 $272 $273 $274 $275 reversed $104 $-1 #
coedge $-1 $276 $106 $277 $278 reversed $65 $-1 #
coedge $-1 $106 $276 $279 $280 reversed $65 $-1 #
coedge $-1 $188 $187 $106 $181 forward $175 $-1 #
edge $-1 $281 -39.793565570674538 $282 39.793565570674538 $180 $283 forward 7 unknown #
coedge $-1 $108 $107 $273 $284 forward $42 $-1 #
coedge $-1 $285 $274 $107 $184 forward $270 $-1 #
edge $-1 $286 19.994266651577604 $189 44.058634852420184 $183 $287 forward 7 unknown #
coedge $-1 $288 $289 $108 $186 forward $290 $-1 #
edge $-1 $190 -44.058634852420184 $291 -19.994266651577604 $185 $292 forward 7 unknown #
coedge $-1 $180 $109 $289 $293 forward $175 $-1 #
coedge $-1 $109 $180 $285 $294 reversed $175 $-1 #
vertex $-1 $294 $295 #
vertex $-1 $293 $296 #
straight-curve $-1 76.085085604419078 0 9.3072405350159499 0 -1 0 I I #
face $-1 $-1 $297 $24 $-1 $298 forward single #
loop $-1 $-1 $117 $111 #
plane-surface $-1 0 39.793565570674538 0 0 -1 0 0 0 -1 forward_v I I I I #
coedge $-1 $299 $300 $301 $302 reversed $112 $-1 #
coedge $-1 $303 $114 $116 $202 forward $69 $-1 #
coedge $-1 $114 $303 $299 $304 forward $69 $-1 #
coedge $-1 $301 $117 $114 $199 forward $193 $-1 #
edge $-1 $205 7.6410469781295625 $305 38.400657372638364 $198 $306 forward 7 unknown #
coedge $-1 $307 $308 $115 $201 forward $297 $-1 #
edge $-1 $309 -12.51458927178518 $204 13.324687017857013 $200 $310 forward 7 unknown #
edge $-1 $205 -79.587131141349104 $309 -49.118014425009811 $116 $311 forward 7 unknown #
coedge $-1 $117 $301 $307 $312 reversed $193 $-1 #
vertex $-1 $312 $313 #
vertex $-1 $118 $314 #
straight-curve $-1 -30.661899153513527 39.793565570674538 86.81721620321045 0 0 -1 I I #
coedge $-1 $207 $207 $-1 $315 reversed $121 $-1 #
edge $-1 $316 0 $316 6.2831853071796004 $122 $317 forward 7 unknown #
vertex $-1 $125 $318 #
ellipse-curve $-1 -55.269587469120573 26.873927425853442 10.485140615237002 0 0.52991927123019833 0.84804809178421925 2.5 0 0 1 I I #
coedge $-1 $211 $211 $-1 $319 reversed $128 $-1 #
edge $-1 $320 0 $320 6.2831853071796004 $129 $321 forward 7 unknown #
vertex $-1 $132 $322 #
ellipse-curve $-1 -46.04170435076793 26.873927425853442 10.485140615237002 0 0.52991927123019833 0.84804809178421925 2.5 0 0 1 I I #
coedge $-1 $215 $215 $-1 $323 reversed $135 $-1 #
edge $-1 $324 0 $324 6.2831853071796004 $136 $325 forward 7 unknown #
vertex $-1 $139 $326 #
ellipse-curve $-1 -36.813821232415286 26.873927425853442 10.485140615237002 0 0.52991927123019833 0.84804809178421925 2.5 0 0 1 I I #
face $-1 $-1 $231 $21 $-1 $327 reversed single #
loop $-1 $-1 $328 $140 #
plane-surface $-1 0 39.793565570674538 0 0 -1 0 0 0 -1 forward_v I I I I #
coedge $-1 $230 $229 $143 $223 reversed $231 $-1 #
edge $-1 $329 -39.793565570674538 $330 39.793565570674538 $222 $331 forward 7 unknown #
coedge $-1 $145 $144 $148 $235 forward $57 $-1 #
coedge $-1 $328 $151 $144 $226 reversed $220 $-1 #
edge $-1 $233 -76.085085604419078 $240 76.085085604419078 $225 $332 forward 7 unknown #
coedge $-1 $149 $333 $145 $228 reversed $141 $-1 #
edge $-1 $237 -76.085085604419078 $232 76.085085604419078 $227 $334 forward 7 unknown #
coedge $-1 $222 $146 $333 $335 forward $231 $-1 #
coedge $-1 $146 $222 $328 $336 reversed $231 $-1 #
loop $-1 $-1 $229 $219 #
vertex $-1 $147 $337 #
vertex $-1 $147 $338 #
straight-curve $-1 76.085085604419078 0 18.558226677912192 0 1 0 I I #
edge $-1 $240 -39.793565570674538 $237 39.793565570674538 $148 $339 forward 7 unknown #
coedge $-1 $333 $149 $154 $243 reversed $141 $-1 #
vertex $-1 $235 $340 #
straight-curve $-1 -76.085085604419078 -39.793565570674538 0 0 0 -1 I I #
coedge $-1 $151 $328 $153 $242 reversed $220 $-1 #
vertex $-1 $226 $341 #
straight-curve $-1 -76.085085604419078 39.793565570674538 0 0 0 -1 I I #
edge $-1 $156 -76.085085604419078 $329 76.085085604419078 $239 $342 forward 7 unknown #
edge $-1 $330 -76.085085604419078 $155 76.085085604419078 $236 $343 forward 7 unknown #
point $-1 -76.085085604419078 -39.793565570674538 -18.558226677912192 #
point $-1 -76.085085604419078 39.793565570674538 -18.558226677912192 #
face $-1 $-1 $262 $22 $-1 $344 forward single #
plane-surface $-1 -83.416873632617452 -15.706671484509579 0 0 -1 0 0 0 -1 forward_v I I I I #
coedge $-1 $345 $346 $265 $347 forward $159 $-1 #
coedge $-1 $258 $161 $162 $254 reversed $96 $-1 #
coedge $-1 $161 $258 $261 $348 reversed $96 $-1 #
coedge $-1 $346 $345 $161 $252 reversed $159 $-1 #
edge $-1 $349 -18.558226677912192 $350 18.558226677912192 $251 $351 forward 7 unknown #
coedge $-1 $163 $162 $345 $352 forward $61 $-1 #
edge $-1 $256 -7.3317880281983747 $350 7.3317880281983747 $249 $353 forward 7 unknown #
edge $-1 $354 -7.3317880281983747 $171 7.3317880281983747 $168 $355 forward 7 unknown #
vertex $-1 $254 $356 #
straight-curve $-1 -76.085085604419078 0 -18.558226677912192 0 -1 0 I I #
coedge $-1 $250 $249 $165 $259 reversed $96 $-1 #
edge $-1 $263 -18.558226677912192 $256 18.558226677912192 $258 $357 forward 7 unknown #
coedge $-1 $358 $166 $169 $266 forward $262 $-1 #
coedge $-1 $166 $358 $250 $348 forward $262 $-1 #
loop $-1 $-1 $166 $246 #
vertex $-1 $167 $359 #
straight-curve $-1 -76.085085604419078 0 18.558226677912192 0 1 0 I I #
coedge $-1 $169 $168 $248 $347 reversed $170 $-1 #
edge $-1 $172 -7.3317880281983747 $360 7.3317880281983747 $169 $361 forward 7 unknown #
point $-1 -76.085085604419078 -15.706671484509579 -18.558226677912192 #
point $-1 -76.085085604419078 -15.706671484509579 18.558226677912192 #
face $-1 $-1 $290 $23 $-1 $362 reversed single #
loop $-1 $-1 $279 $174 #
plane-surface $-1 0 39.793565570674538 0 0 -1 0 0 0 -1 forward_v I I I I #
coedge $-1 $363 $177 $276 $364 reversed $104 $-1 #
coedge $-1 $177 $363 $182 $284 reversed $104 $-1 #
coedge $-1 $183 $279 $177 $275 forward $270 $-1 #
edge $-1 $365 0.73980936862463054 $286 5.9582239004690898 $274 $366 forward 7 unknown #
coedge $-1 $179 $178 $272 $364 forward $65 $-1 #
coedge $-1 $289 $288 $178 $278 forward $290 $-1 #
edge $-1 $367 19.994266651577604 $281 44.058634852420184 $277 $368 forward 7 unknown #
coedge $-1 $274 $285 $179 $280 forward $270 $-1 #
edge $-1 $282 -44.058634852420184 $365 -19.994266651577604 $279 $369 forward 7 unknown #
vertex $-1 $181 $370 #
vertex $-1 $181 $371 #
straight-curve $-1 76.085085604419078 0 4.0888260031714907 0 1 0 I I #
edge $-1 $286 -39.793565570674538 $291 39.793565570674538 $273 $372 forward 7 unknown #
coedge $-1 $279 $183 $188 $294 forward $270 $-1 #
vertex $-1 $184 $373 #
straight-curve $-1 32.026450751998894 39.793565570674538 9.3072405350159499 1 0 0 I I #
coedge $-1 $277 $185 $363 $374 forward $290 $-1 #
coedge $-1 $185 $277 $187 $293 reversed $290 $-1 #
loop $-1 $-1 $277 $269 #
vertex $-1 $186 $375 #
straight-curve $-1 32.026450751998894 -39.793565570674538 9.3072405350159499 -1 0 0 I I #
edge $-1 $190 -9.3072405350159499 $281 -4.0888260031714907 $187 $376 forward 7 unknown #
edge $-1 $189 -9.3072405350159499 $282 -4.0888260031714907 $188 $377 forward 7 unknown #
point $-1 76.085085604419078 39.793565570674538 9.3072405350159499 #
point $-1 76.085085604419078 -39.793565570674538 9.3072405350159499 #
loop $-1 $-1 $200 $192 #
plane-surface $-1 0 0 18.558226677912192 0 0 1 1 0 0 forward_v I I I I #
coedge $-1 $300 $195 $197 $304 reversed $112 $-1 #
coedge $-1 $195 $299 $378 $379 reversed $112 $-1 #
coedge $-1 $203 $198 $195 $302 forward $193 $-1 #
edge $-1 $305 -84.405161650648637 $380 -68.258989525298261 $301 $381 forward 7 unknown #
coedge $-1 $197 $196 $308 $382 reversed $69 $-1 #
edge $-1 $383 49.118014425009811 $305 79.587131141349104 $299 $384 forward 7 unknown #
vertex $-1 $199 $385 #
straight-curve $-1 -23.020852175383965 39.793565570674545 2.4120545525618162 -1 0 0 I I #
coedge $-1 $378 $200 $203 $312 forward $297 $-1 #
coedge $-1 $200 $378 $303 $382 forward $297 $-1 #
vertex $-1 $201 $386 #
straight-curve $-1 -30.661899153513527 26.468878552817525 18.558226677912188 0 1 0 I I #
straight-curve $-1 -30.661899153513527 -27.700149124326977 44.586809086287758 0 -0.84804809178421925 0.52991927123019833 I I #
edge $-1 $204 30.661899153513527 $380 61.421509548022328 $203 $387 forward 7 unknown #
point $-1 -30.661899153513527 39.793565570674538 18.558226677912192 #
point $-1 -30.661899153513527 39.793565570674538 2.4120545525618198 #
edge $-1 $388 1 $388 0 $207 $-1 forward 7 unknown #
vertex $-1 $208 $389 #
ellipse-curve $-1 -55.269587469120573 25.015077942067968 7.5103596566604596 0 0.52991927123019833 0.84804809178421925 2.5 0 0 1 I I #
point $-1 -52.769587469120573 26.873927425853452 10.48514061523702 #
edge $-1 $390 1 $390 0 $211 $-1 forward 7 unknown #
vertex $-1 $212 $391 #
ellipse-curve $-1 -46.04170435076793 25.015077942067968 7.5103596566604596 0 0.52991927123019833 0.84804809178421925 2.5 0 0 1 I I #
point $-1 -43.54170435076793 26.873927425853452 10.48514061523702 #
edge $-1 $392 1 $392 0 $215 $-1 forward 7 unknown #
vertex $-1 $216 $393 #
ellipse-curve $-1 -36.813821232415286 25.015077942067968 7.5103596566604596 0 0.52991927123019833 0.84804809178421925 2.5 0 0 1 I I #
point $-1 -34.313821232415286 26.873927425853452 10.48514061523702 #
plane-surface $-1 76.085085604419078 0 0 -1 0 0 0 0 1 forward_v I I I I #
coedge $-1 $239 $225 $230 $336 forward $220 $-1 #
vertex $-1 $223 $394 #
vertex $-1 $335 $395 #
straight-curve $-1 76.085085604419078 0 -18.558226677912192 0 -1 0 I I #
straight-curve $-1 0 39.793565570674538 18.558226677912192 -1 0 0 I I #
coedge $-1 $227 $236 $229 $335 reversed $141 $-1 #
straight-curve $-1 0 -39.793565570674538 18.558226677912192 1 0 0 I I #
edge $-1 $232 -18.558226677912192 $330 18.558226677912192 $229 $396 forward 7 unknown #
edge $-1 $233 -18.558226677912192 $329 18.558226677912192 $230 $397 forward 7 unknown #
point $-1 76.085085604419078 -39.793565570674538 18.558226677912192 #
point $-1 76.085085604419078 39.793565570674538 18.558226677912192 #
straight-curve $-1 -76.085085604419078 0 18.558226677912192 0 -1 0 I I #
point $-1 -76.085085604419078 -39.793565570674538 18.558226677912192 #
point $-1 -76.085085604419078 39.793565570674538 18.558226677912192 #
straight-curve $-1 0 39.793565570674538 -18.558226677912192 1 0 0 I I #
straight-curve $-1 0 -39.793565570674538 -18.558226677912192 -1 0 0 I I #
plane-surface $-1 0 0 18.558226677912192 0 0 1 1 0 0 forward_v I I I I #
coedge $-1 $251 $248 $253 $352 reversed $159 $-1 #
coedge $-1 $248 $251 $358 $398 reversed $159 $-1 #
edge $-1 $360 -18.558226677912192 $354 18.558226677912192 $265 $399 forward 7 unknown #
edge $-1 $349 -7.3317880281983747 $263 7.3317880281983747 $250 $400 forward 7 unknown #
vertex $-1 $398 $401 #
vertex $-1 $352 $402 #
straight-curve $-1 -90.748661660815827 -21.727744753740346 0 0 0 -1 I I #
edge $-1 $350 -3.0105366346153843 $354 3.0105366346153826 $345 $403 forward 7 unknown #
straight-curve $-1 -83.416873632617452 -21.727744753740346 -18.558226677912192 -1 0 0 I I #
vertex $-1 $255 $404 #
straight-curve $-1 -83.416873632617452 -15.706671484509579 -18.558226677912192 1 0 0 I I #
point $-1 -76.085085604419078 -21.727744753740346 -18.558226677912192 #
straight-curve $-1 -76.085085604419078 -21.727744753740346 0 0 0 -1 I I #
coedge $-1 $261 $260 $346 $398 forward $262 $-1 #
point $-1 -76.085085604419078 -21.727744753740346 18.558226677912192 #
vertex $-1 $266 $405 #
straight-curve $-1 -83.416873632617452 -15.706671484509579 18.558226677912192 -1 0 0 I I #
plane-surface $-1 0 -39.793565570674538 0 0 1 0 0 0 1 forward_v I I I I #
coedge $-1 $273 $272 $288 $374 reversed $104 $-1 #
edge $-1 $367 -39.793565570674538 $365 39.793565570674538 $272 $406 forward 7 unknown #
vertex $-1 $280 $407 #
straight-curve $-1 52.020717403576498 39.793565570674538 3.3490166345468602 0 0 1 I I #
vertex $-1 $278 $408 #
straight-curve $-1 32.026450751998894 -39.793565570674538 4.0888260031714907 1 0 0 I I #
straight-curve $-1 32.026450751998894 39.793565570674538 4.0888260031714907 -1 0 0 I I #
point $-1 76.085085604419078 -39.793565570674538 4.0888260031714907 #
point $-1 76.085085604419078 39.793565570674538 4.0888260031714907 #
straight-curve $-1 52.020717403576498 0 9.3072405350159499 0 -1 0 I I #
point $-1 52.020717403576498 39.793565570674538 9.3072405350159499 #
edge $-1 $291 -5.9582239004690898 $367 -0.73980936862463054 $288 $409 forward 7 unknown #
point $-1 52.020717403576498 -39.793565570674538 9.3072405350159499 #
straight-curve $-1 76.085085604419078 -39.793565570674538 0 0 0 -1 I I #
straight-curve $-1 76.085085604419078 39.793565570674538 0 0 0 -1 I I #
coedge $-1 $308 $307 $300 $379 forward $297 $-1 #
edge $-1 $380 -13.324687017857013 $383 12.51458927178518 $378 $410 forward 7 unknown #
vertex $-1 $379 $411 #
straight-curve $-1 -61.421509548022328 39.793565570674538 86.81721620321045 0 0 1 I I #
edge $-1 $383 -38.400657372638364 $309 -7.6410469781295625 $308 $412 forward 7 unknown #
vertex $-1 $382 $413 #
straight-curve $-1 -61.421509548022328 -27.700149124326977 44.586809086287758 0 0.84804809178421925 -0.52991927123019833 I I #
point $-1 -61.421509548022328 39.793565570674538 2.4120545525618198 #
point $-1 -30.661899153513527 13.954289281032345 18.558226677912192 #
straight-curve $-1 0 39.793565570674538 18.558226677912192 -1 0 0 I I #
vertex $-1 $315 $414 #
point $-1 -52.769587469120573 25.015077942067968 7.5103596566604596 #
vertex $-1 $319 $415 #
point $-1 -43.54170435076793 25.015077942067968 7.5103596566604596 #
vertex $-1 $323 $416 #
point $-1 -34.313821232415286 25.015077942067968 7.5103596566604596 #
point $-1 76.085085604419078 39.793565570674538 -18.558226677912192 #
point $-1 76.085085604419078 -39.793565570674538 -18.558226677912192 #
straight-curve $-1 76.085085604419078 -39.793565570674538 0 0 0 -1 I I #
straight-curve $-1 76.085085604419078 39.793565570674538 0 0 0 -1 I I #
edge $-1 $360 -3.0105366346153826 $349 3.0105366346153843 $346 $417 forward 7 unknown #
straight-curve $-1 -90.748661660815827 -15.706671484509579 0 0 0 -1 I I #
straight-curve $-1 -83.416873632617452 -21.727744753740346 18.558226677912192 1 0 0 I I #
point $-1 -90.748661660815827 -21.727744753740346 18.558226677912192 #
point $-1 -90.748661660815827 -21.727744753740346 -18.558226677912192 #
straight-curve $-1 -90.748661660815827 -18.717208119124962 -18.558226677912192 0 1 0 I I #
point $-1 -90.748661660815827 -15.706671484509579 -18.558226677912192 #
point $-1 -90.748661660815827 -15.706671484509579 18.558226677912192 #
straight-curve $-1 52.020717403576498 0 4.0888260031714907 0 1 0 I I #
point $-1 52.020717403576498 39.793565570674538 4.0888260031714907 #
point $-1 52.020717403576498 -39.793565570674538 4.0888260031714907 #
straight-curve $-1 52.020717403576498 -39.793565570674538 3.3490166345468602 0 0 -1 I I #
straight-curve $-1 -61.421509548022328 26.468878552817525 18.558226677912188 0 -1 0 I I #
point $-1 -61.421509548022328 39.793565570674538 18.558226677912192 #
straight-curve $-1 -23.020852175383965 13.954289281032352 18.558226677912192 1 0 0 I I #
point $-1 -61.421509548022328 13.954289281032345 18.558226677912192 #
point $-1 -55.269587469120573 23.690279763992471 5.3902394271999112 #
point $-1 -46.04170435076793 23.690279763992471 5.3902394271999112 #
point $-1 -36.813821232415286 23.690279763992471 5.3902394271999112 #
straight-curve $-1 -90.748661660815827 -18.717208119124962 18.558226677912192 0 -1 0 I I #
End-of-ACIS-data 