500 0 4 0           
7 Unknown 11 ACIS 5.0 NT 24 Fri Mar 26 18:46:20 1999 
-1 9.9999999999999995e-007 1e-010 
body $-1 $4 $-1 $5 #
body $-1 $6 $-1 $7 #
body $-1 $8 $-1 $9 #
body $-1 $10 $-1 $11 #
lump $-1 $-1 $12 $0 #
transform $-1 1 0 0 0 1 0 0 0 1 78.497268593401898 40.717388695169369 17.783459619600158 1 rotate no_reflect no_shear #
lump $-1 $-1 $13 $1 #
transform $-1 1 0 0 0 1 0 0 0 1 78.497268593401898 40.717388695169369 17.783459619600158 1 rotate no_reflect no_shear #
lump $-1 $-1 $14 $2 #
transform $-1 1 0 0 0 1 0 0 0 1 78.497268593401898 40.717388695169369 17.783459619600158 1 rotate no_reflect no_shear #
lump $-1 $-1 $15 $3 #
transform $-1 1 0 0 0 1 0 0 0 1 78.497268593401898 40.717388695169369 17.783459619600158 1 rotate no_reflect no_shear #
shell $-1 $-1 $-1 $16 $-1 $4 #
shell $-1 $-1 $-1 $17 $-1 $6 #
shell $-1 $-1 $-1 $18 $-1 $8 #
shell $-1 $-1 $-1 $19 $-1 $10 #
face $-1 $20 $21 $12 $-1 $22 reversed single #
face $-1 $23 $24 $13 $-1 $25 forward single #
face $-1 $26 $27 $14 $-1 $28 reversed single #
face $-1 $29 $30 $15 $-1 $31 forward single #
face $-1 $32 $33 $12 $-1 $34 forward single #
loop $-1 $-1 $35 $16 #
plane-surface $-1 0 -40.717388695169369 0 0 1 0 0 0 1 forward_v I I I I #
face $-1 $36 $37 $13 $-1 $38 forward single #
loop $-1 $-1 $39 $17 #
plane-surface $-1 0 -40.717388695169369 0 0 1 0 0 0 1 forward_v I I I I #
face $-1 $40 $41 $14 $-1 $42 reversed single #
loop $-1 $-1 $43 $18 #
plane-surface $-1 4.7515860272303243 82.255467476271633 179.18053918407625 1 0 0 0 -0.6560590369687036 -0.75470957328743171 forward_v I I I I #
face $-1 $44 $45 $15 $-1 $46 forward single #
loop $-1 $47 $48 $19 #
cone-surface $-1 25.044640396804837 33.479309539057979 11.156875501714952 0 -0.6560590369687036 -0.75470957328743171 2 0 0 1 I I 0 1 2 forward I I I I #
face $-1 $49 $50 $12 $-1 $51 reversed single #
loop $-1 $-1 $52 $20 #
plane-surface $-1 0 0 17.783459619600158 0 0 1 1 0 0 forward_v I I I I #
coedge $-1 $53 $54 $55 $56 reversed $21 $-1 #
face $-1 $57 $58 $13 $-1 $59 reversed single #
loop $-1 $-1 $60 $23 #
plane-surface $-1 0 0 17.783459619600158 0 0 1 1 0 0 forward_v I I I I #
coedge $-1 $61 $62 $63 $64 forward $24 $-1 #
face $-1 $65 $66 $14 $-1 $67 reversed single #
loop $-1 $-1 $68 $26 #
plane-surface $-1 25.044640396804837 -20.74221739985019 60.695259015365735 0 0.6560590369687036 0.75470957328743171 1 0 0 forward_v I I I I #
coedge $-1 $69 $70 $71 $72 reversed $27 $-1 #
face $-1 $-1 $73 $15 $-1 $74 forward single #
loop $-1 $75 $76 $29 #
cone-surface $-1 25.044640396804837 31.632785759510305 9.0326929278927111 0 -0.6560590369687036 -0.75470957328743171 1 0 0 1 I I -0.70710678118654746 0.70710678118654746 1 forward I I I I #
loop $-1 $-1 $77 $19 #
coedge $-1 $48 $48 $78 $79 reversed $30 $-1 #
face $-1 $80 $81 $12 $-1 $82 reversed single #
loop $-1 $-1 $83 $32 #
plane-surface $-1 0 0 -17.783459619600158 0 0 1 1 0 0 forward_v I I I I #
coedge $-1 $84 $85 $86 $87 forward $33 $-1 #
coedge $-1 $88 $35 $89 $90 reversed $21 $-1 #
coedge $-1 $35 $88 $91 $92 forward $21 $-1 #
coedge $-1 $93 $83 $35 $56 forward $50 $-1 #
edge $-1 $94 -78.497268593401898 $95 78.497268593401898 $35 $96 forward 7 unknown #
face $-1 $97 $98 $13 $-1 $99 reversed single #
loop $-1 $-1 $100 $36 #
plane-surface $-1 -78.497268593401898 0 0 1 0 0 0 0 -1 forward_v I I I I #
coedge $-1 $101 $102 $62 $103 forward $37 $-1 #
coedge $-1 $104 $39 $105 $106 reversed $24 $-1 #
coedge $-1 $39 $104 $60 $103 reversed $24 $-1 #
coedge $-1 $107 $108 $39 $64 reversed $109 $-1 #
edge $-1 $110 -17.783459619600158 $111 17.783459619600158 $63 $112 forward 7 unknown #
face $-1 $113 $114 $14 $-1 $115 reversed single #
loop $-1 $-1 $116 $40 #
plane-surface $-1 45.33769476637935 82.255467476271633 179.18053918407625 -1 0 0 0 0.6560590369687036 0.75470957328743171 forward_v I I I I #
coedge $-1 $117 $118 $119 $120 reversed $41 $-1 #
coedge $-1 $70 $43 $121 $122 reversed $27 $-1 #
coedge $-1 $43 $69 $117 $123 reversed $27 $-1 #
coedge $-1 $119 $124 $43 $72 forward $125 $-1 #
edge $-1 $126 0.41034504296644769 $127 12.505573870031327 $71 $128 forward 7 unknown #
loop $-1 $-1 $78 $44 #
plane-surface $-1 25.044640396804837 -20.74221739985019 60.695259015365735 0 0.6560590369687036 0.75470957328743171 1 0 0 forward_v I I I I #
loop $-1 $-1 $129 $29 #
coedge $-1 $76 $76 $77 $130 reversed $45 $-1 #
coedge $-1 $77 $77 $76 $130 forward $47 $-1 #
coedge $-1 $78 $78 $48 $79 forward $73 $-1 #
edge $-1 $131 2.7995237654562005e-015 $131 6.2831853071796031 $78 $132 forward 7 unknown #
face $-1 $133 $134 $12 $-1 $135 reversed single #
loop $-1 $-1 $136 $49 #
plane-surface $-1 -78.497268593401898 0 0 1 0 0 0 0 -1 forward_v I I I I #
coedge $-1 $55 $137 $138 $139 forward $50 $-1 #
coedge $-1 $140 $52 $141 $142 forward $33 $-1 #
coedge $-1 $52 $140 $88 $143 forward $33 $-1 #
coedge $-1 $89 $144 $52 $87 reversed $145 $-1 #
edge $-1 $146 -40.717388695169369 $147 40.717388695169369 $86 $148 forward 7 unknown #
coedge $-1 $54 $53 $85 $143 reversed $21 $-1 #
coedge $-1 $138 $86 $53 $90 forward $145 $-1 #
edge $-1 $146 -17.783459619600158 $94 17.783459619600158 $89 $149 forward 7 unknown #
coedge $-1 $150 $151 $54 $92 reversed $81 $-1 #
edge $-1 $152 -17.783459619600158 $95 17.783459619600158 $91 $153 forward 7 unknown #
coedge $-1 $137 $55 $151 $154 forward $50 $-1 #
vertex $-1 $90 $155 #
vertex $-1 $154 $156 #
straight-curve $-1 0 -40.717388695169369 -17.783459619600158 -1 0 0 I I #
face $-1 $157 $109 $13 $-1 $158 reversed single #
loop $-1 $-1 $159 $57 #
plane-surface $-1 -74.067278385418675 -55.773537393732902 0 0 1 0 0 0 1 forward_v I I I I #
coedge $-1 $160 $161 $104 $162 forward $58 $-1 #
coedge $-1 $163 $60 $161 $164 forward $37 $-1 #
coedge $-1 $60 $163 $107 $165 forward $37 $-1 #
edge $-1 $110 69.637288177435451 $166 78.497268593401898 $60 $167 forward 7 unknown #
coedge $-1 $62 $61 $100 $162 reversed $24 $-1 #
coedge $-1 $168 $169 $61 $106 forward $170 $-1 #
edge $-1 $171 -78.497268593401898 $111 -69.637288177435451 $105 $172 forward 7 unknown #
coedge $-1 $173 $63 $102 $165 reversed $109 $-1 #
coedge $-1 $63 $173 $168 $174 reversed $109 $-1 #
loop $-1 $-1 $173 $97 #
vertex $-1 $103 $175 #
vertex $-1 $174 $176 #
straight-curve $-1 -69.637288177435451 -40.717388695169369 0 0 0 -1 I I #
face $-1 $-1 $125 $14 $-1 $177 forward single #
loop $-1 $-1 $178 $65 #
plane-surface $-1 0 40.717388695169369 0 0 -1 0 0 0 -1 forward_v I I I I #
coedge $-1 $179 $180 $181 $182 reversed $66 $-1 #
coedge $-1 $183 $68 $70 $123 forward $41 $-1 #
coedge $-1 $68 $183 $179 $184 forward $41 $-1 #
coedge $-1 $181 $71 $68 $120 forward $125 $-1 #
edge $-1 $127 -7.7707341711720943 $185 32.815374567976932 $119 $186 forward 7 unknown #
coedge $-1 $187 $188 $69 $122 forward $114 $-1 #
edge $-1 $189 -82.321032207138799 $126 -71.806809972437975 $121 $190 forward 7 unknown #
edge $-1 $127 65.408441889678031 $189 81.43477739033878 $70 $191 forward 7 unknown #
coedge $-1 $71 $181 $187 $192 forward $125 $-1 #
loop $-1 $-1 $181 $113 #
vertex $-1 $122 $193 #
vertex $-1 $72 $194 #
straight-curve $-1 4.7515860272303243 41.127733738135817 17.783459619600166 0 -1 0 I I #
coedge $-1 $129 $129 $-1 $195 reversed $75 $-1 #
edge $-1 $196 0 $196 6.2831853071796004 $76 $197 forward 7 unknown #
vertex $-1 $79 $198 #
ellipse-curve $-1 25.044640396804837 34.669774281636933 12.526348502249744 0 0.6560590369687036 0.75470957328743171 2 0 0 1 I I #
face $-1 $-1 $145 $12 $-1 $199 reversed single #
loop $-1 $-1 $200 $80 #
plane-surface $-1 0 40.717388695169369 0 0 -1 0 0 0 -1 forward_v I I I I #
coedge $-1 $151 $150 $201 $202 forward $81 $-1 #
coedge $-1 $83 $93 $203 $204 forward $50 $-1 #
coedge $-1 $144 $89 $83 $139 reversed $145 $-1 #
edge $-1 $205 -40.717388695169369 $94 40.717388695169369 $138 $206 forward 7 unknown #
coedge $-1 $85 $84 $150 $207 forward $33 $-1 #
coedge $-1 $200 $201 $84 $142 reversed $134 $-1 #
edge $-1 $147 -78.497268593401898 $208 78.497268593401898 $141 $209 forward 7 unknown #
edge $-1 $152 -78.497268593401898 $146 78.497268593401898 $88 $210 forward 7 unknown #
coedge $-1 $86 $138 $200 $211 reversed $145 $-1 #
loop $-1 $-1 $89 $133 #
vertex $-1 $87 $212 #
vertex $-1 $87 $213 #
straight-curve $-1 78.497268593401898 0 17.783459619600158 0 1 0 I I #
straight-curve $-1 78.497268593401898 -40.717388695169369 0 0 0 -1 I I #
coedge $-1 $136 $91 $140 $207 reversed $81 $-1 #
coedge $-1 $91 $136 $93 $154 reversed $81 $-1 #
vertex $-1 $207 $214 #
straight-curve $-1 -78.497268593401898 -40.717388695169369 0 0 0 -1 I I #
edge $-1 $95 -40.717388695169369 $215 40.717388695169369 $151 $216 forward 7 unknown #
point $-1 78.497268593401898 -40.717388695169369 -17.783459619600158 #
point $-1 -78.497268593401898 -40.717388695169369 -17.783459619600158 #
face $-1 $-1 $170 $13 $-1 $217 reversed single #
plane-surface $-1 -69.637288177435451 -48.245463044451135 0 -1 0 0 0 0 1 forward_v I I I I #
coedge $-1 $218 $219 $220 $221 forward $98 $-1 #
coedge $-1 $220 $100 $169 $222 reversed $58 $-1 #
coedge $-1 $100 $220 $101 $164 reversed $58 $-1 #
edge $-1 $166 -17.783459619600158 $171 17.783459619600158 $100 $223 forward 7 unknown #
coedge $-1 $102 $101 $219 $224 forward $37 $-1 #
edge $-1 $166 40.717388695169369 $225 55.773537393732902 $161 $226 forward 7 unknown #
edge $-1 $227 -7.5280743492817663 $110 7.5280743492817663 $107 $228 forward 7 unknown #
vertex $-1 $164 $229 #
straight-curve $-1 0 -40.717388695169369 17.783459619600158 -1 0 0 I I #
coedge $-1 $230 $105 $108 $174 forward $170 $-1 #
coedge $-1 $105 $230 $160 $222 forward $170 $-1 #
loop $-1 $-1 $105 $157 #
vertex $-1 $162 $231 #
straight-curve $-1 0 -40.717388695169369 -17.783459619600158 1 0 0 I I #
coedge $-1 $108 $107 $232 $233 forward $109 $-1 #
edge $-1 $111 -7.5280743492817663 $234 7.5280743492817663 $108 $235 forward 7 unknown #
point $-1 -69.637288177435451 -40.717388695169369 17.783459619600158 #
point $-1 -69.637288177435451 -40.717388695169369 -17.783459619600158 #
plane-surface $-1 0 0 17.783459619600158 0 0 1 1 0 0 forward_v I I I I #
coedge $-1 $188 $187 $180 $236 forward $114 $-1 #
coedge $-1 $180 $116 $118 $184 reversed $66 $-1 #
coedge $-1 $116 $179 $178 $236 reversed $66 $-1 #
coedge $-1 $124 $119 $116 $182 forward $125 $-1 #
edge $-1 $185 -12.505573870031327 $237 -0.41034504296644769 $181 $238 forward 7 unknown #
coedge $-1 $118 $117 $188 $239 reversed $41 $-1 #
edge $-1 $240 -81.43477739033878 $185 -65.408441889678031 $179 $241 forward 7 unknown #
vertex $-1 $120 $242 #
straight-curve $-1 12.522320198402419 28.62215986810449 17.783459619600162 1 0 0 I I #
coedge $-1 $178 $121 $124 $192 reversed $114 $-1 #
coedge $-1 $121 $178 $183 $239 forward $114 $-1 #
vertex $-1 $122 $243 #
straight-curve $-1 4.7515860272303243 40.717388695169369 89.590269592038126 0 0 1 I I #
straight-curve $-1 4.7515860272303243 -20.74221739985019 60.695259015365735 0 0.75470957328743171 -0.6560590369687036 I I #
edge $-1 $237 -45.33769476637935 $126 -4.7515860272303243 $187 $244 forward 7 unknown #
point $-1 4.7515860272303243 40.717388695169369 17.783459619600158 #
point $-1 4.7515860272303243 28.62215986810449 17.783459619600158 #
edge $-1 $245 1 $245 0 $129 $-1 forward 7 unknown #
vertex $-1 $130 $246 #
ellipse-curve $-1 25.044640396804837 32.288844796479012 9.7874025011801429 0 0.6560590369687036 0.75470957328743171 2 0 0 1 I I #
point $-1 27.044640396804837 34.669774281636954 12.52634850224976 #
plane-surface $-1 78.497268593401898 0 0 -1 0 0 0 0 1 forward_v I I I I #
coedge $-1 $203 $141 $144 $211 forward $134 $-1 #
coedge $-1 $141 $203 $136 $202 reversed $134 $-1 #
edge $-1 $208 -17.783459619600158 $215 17.783459619600158 $201 $247 forward 7 unknown #
coedge $-1 $201 $200 $137 $204 reversed $134 $-1 #
edge $-1 $215 -78.497268593401898 $205 78.497268593401898 $203 $248 forward 7 unknown #
vertex $-1 $139 $249 #
straight-curve $-1 78.497268593401898 0 -17.783459619600158 0 -1 0 I I #
edge $-1 $208 -40.717388695169369 $152 40.717388695169369 $150 $250 forward 7 unknown #
vertex $-1 $142 $251 #
straight-curve $-1 0 40.717388695169369 17.783459619600158 -1 0 0 I I #
straight-curve $-1 0 -40.717388695169369 17.783459619600158 1 0 0 I I #
edge $-1 $147 -17.783459619600158 $205 17.783459619600158 $144 $252 forward 7 unknown #
point $-1 78.497268593401898 -40.717388695169369 17.783459619600158 #
point $-1 78.497268593401898 40.717388695169369 17.783459619600158 #
point $-1 -78.497268593401898 -40.717388695169369 17.783459619600158 #
vertex $-1 $204 $253 #
straight-curve $-1 -78.497268593401898 0 -17.783459619600158 0 1 0 I I #
plane-surface $-1 0 0 -17.783459619600158 0 0 1 1 0 0 forward_v I I I I #
coedge $-1 $232 $159 $230 $254 reversed $98 $-1 #
coedge $-1 $159 $232 $163 $224 reversed $98 $-1 #
coedge $-1 $161 $160 $159 $221 reversed $58 $-1 #
edge $-1 $225 -17.783459619600158 $255 17.783459619600158 $220 $256 forward 7 unknown #
edge $-1 $255 -55.773537393732902 $171 -40.717388695169369 $160 $257 forward 7 unknown #
straight-curve $-1 -78.497268593401898 -40.717388695169369 0 0 0 -1 I I #
edge $-1 $225 -4.4299902079832236 $227 4.4299902079832236 $219 $258 forward 7 unknown #
vertex $-1 $164 $259 #
straight-curve $-1 -78.497268593401898 0 17.783459619600158 0 -1 0 I I #
vertex $-1 $165 $260 #
straight-curve $-1 -69.637288177435451 -48.245463044451135 17.783459619600158 0 1 0 I I #
point $-1 -78.497268593401898 -40.717388695169369 17.783459619600158 #
coedge $-1 $169 $168 $218 $254 forward $170 $-1 #
point $-1 -78.497268593401898 -40.717388695169369 -17.783459619600158 #
coedge $-1 $219 $218 $173 $233 reversed $98 $-1 #
edge $-1 $227 -17.783459619600158 $234 17.783459619600158 $173 $261 forward 7 unknown #
vertex $-1 $233 $262 #
straight-curve $-1 -69.637288177435451 -48.245463044451135 -17.783459619600158 0 -1 0 I I #
edge $-1 $237 71.806809972437975 $240 82.321032207138799 $178 $263 forward 7 unknown #
vertex $-1 $192 $264 #
straight-curve $-1 45.33769476637935 41.127733738135817 17.783459619600166 0 1 0 I I #
edge $-1 $240 -32.815374567976932 $189 7.7707341711720943 $188 $265 forward 7 unknown #
vertex $-1 $239 $266 #
straight-curve $-1 45.33769476637935 -20.74221739985019 60.695259015365735 0 -0.75470957328743171 0.6560590369687036 I I #
point $-1 45.33769476637935 28.62215986810449 17.783459619600158 #
point $-1 4.7515860272303243 40.717388695169369 7.269237384899327 #
straight-curve $-1 0 40.717388695169369 17.783459619600158 -1 0 0 I I #
vertex $-1 $195 $267 #
point $-1 27.044640396804837 32.288844796479012 9.7874025011801429 #
straight-curve $-1 -78.497268593401898 40.717388695169369 0 0 0 -1 I I #
straight-curve $-1 0 40.717388695169369 -17.783459619600158 1 0 0 I I #
point $-1 78.497268593401898 40.717388695169369 -17.783459619600158 #
straight-curve $-1 -78.497268593401898 0 17.783459619600158 0 -1 0 I I #
point $-1 -78.497268593401898 40.717388695169369 17.783459619600158 #
straight-curve $-1 78.497268593401898 40.717388695169369 0 0 0 -1 I I #
point $-1 -78.497268593401898 40.717388695169369 -17.783459619600158 #
edge $-1 $234 -4.4299902079832236 $255 4.4299902079832236 $218 $268 forward 7 unknown #
vertex $-1 $222 $269 #
straight-curve $-1 -78.497268593401898 -55.773537393732902 0 0 0 -1 I I #
straight-curve $-1 -78.497268593401898 0 -17.783459619600158 0 1 0 I I #
straight-curve $-1 -74.067278385418675 -55.773537393732902 17.783459619600158 1 0 0 I I #
point $-1 -78.497268593401898 -55.773537393732902 17.783459619600158 #
point $-1 -69.637288177435451 -55.773537393732902 17.783459619600158 #
straight-curve $-1 -69.637288177435451 -55.773537393732902 0 0 0 -1 I I #
point $-1 -69.637288177435451 -55.773537393732902 -17.783459619600158 #
straight-curve $-1 45.33769476637935 40.717388695169369 89.590269592038126 0 0 -1 I I #
point $-1 45.33769476637935 40.717388695169369 17.783459619600158 #
straight-curve $-1 12.522320198402419 40.717388695169362 7.2692373848993341 -1 0 0 I I #
point $-1 45.33769476637935 40.717388695169369 7.269237384899327 #
point $-1 25.044640396804837 30.976726722541603 8.2779833546052792 #
straight-curve $-1 -74.067278385418675 -55.773537393732902 -17.783459619600158 -1 0 0 I I #
point $-1 -78.497268593401898 -55.773537393732902 -17.783459619600158 #
End-of-ACIS-data 