500 0 15 0           
7 Unknown 11 ACIS 5.0 NT 24 Fri Mar 26 16:55:35 1999 
-1 9.9999999999999995e-007 1e-010 
body $-1 $15 $-1 $16 #
body $-1 $17 $-1 $18 #
body $-1 $19 $-1 $20 #
body $-1 $21 $-1 $22 #
body $-1 $23 $-1 $24 #
body $-1 $25 $-1 $26 #
body $-1 $27 $-1 $28 #
body $-1 $29 $-1 $30 #
body $-1 $31 $-1 $32 #
body $-1 $33 $-1 $34 #
body $-1 $35 $-1 $36 #
body $-1 $37 $-1 $38 #
body $-1 $39 $-1 $40 #
body $-1 $41 $-1 $42 #
body $-1 $43 $-1 $44 #
lump $-1 $-1 $45 $0 #
transform $-1 1 0 0 0 1 0 0 0 1 48.227790154728844 26.992225911025962 13.242311728571636 1 rotate no_reflect no_shear #
lump $-1 $-1 $46 $1 #
transform $-1 1 0 0 0 1 0 0 0 1 48.227790154728844 26.992225911025962 13.242311728571636 1 rotate no_reflect no_shear #
lump $-1 $-1 $47 $2 #
transform $-1 1 0 0 0 1 0 0 0 1 48.227790154728844 26.992225911025962 13.242311728571636 1 rotate no_reflect no_shear #
lump $-1 $-1 $48 $3 #
transform $-1 1 0 0 0 1 0 0 0 1 48.227790154728844 26.992225911025962 13.242311728571636 1 rotate no_reflect no_shear #
lump $-1 $-1 $49 $4 #
transform $-1 1 0 0 0 1 0 0 0 1 48.227790154728844 26.992225911025962 13.242311728571636 1 rotate no_reflect no_shear #
lump $-1 $-1 $50 $5 #
transform $-1 1 0 0 0 1 0 0 0 1 48.227790154728844 26.992225911025962 13.242311728571636 1 rotate no_reflect no_shear #
lump $-1 $-1 $51 $6 #
transform $-1 1 0 0 0 1 0 0 0 1 48.227790154728844 26.992225911025962 13.242311728571636 1 rotate no_reflect no_shear #
lump $-1 $-1 $52 $7 #
transform $-1 1 0 0 0 1 0 0 0 1 48.227790154728844 26.992225911025962 13.242311728571636 1 rotate no_reflect no_shear #
lump $-1 $-1 $53 $8 #
transform $-1 1 0 0 0 1 0 0 0 1 48.227790154728844 26.992225911025962 13.242311728571636 1 rotate no_reflect no_shear #
lump $-1 $-1 $54 $9 #
transform $-1 1 0 0 0 1 0 0 0 1 48.227790154728844 26.992225911025962 13.242311728571636 1 rotate no_reflect no_shear #
lump $-1 $-1 $55 $10 #
transform $-1 1 0 0 0 1 0 0 0 1 48.227790154728844 26.992225911025962 13.242311728571636 1 rotate no_reflect no_shear #
lump $-1 $-1 $56 $11 #
transform $-1 1 0 0 0 1 0 0 0 1 48.227790154728844 26.992225911025962 13.242311728571636 1 rotate no_reflect no_shear #
lump $-1 $-1 $57 $12 #
transform $-1 1 0 0 0 1 0 0 0 1 48.227790154728844 26.992225911025962 13.242311728571636 1 rotate no_reflect no_shear #
lump $-1 $-1 $58 $13 #
transform $-1 1 0 0 0 1 0 0 0 1 48.227790154728844 26.992225911025962 13.242311728571636 1 rotate no_reflect no_shear #
lump $-1 $-1 $59 $14 #
transform $-1 1 0 0 0 1 0 0 0 1 48.227790154728844 26.992225911025962 13.242311728571636 1 rotate no_reflect no_shear #
shell $-1 $-1 $-1 $60 $-1 $15 #
shell $-1 $-1 $-1 $61 $-1 $17 #
shell $-1 $-1 $-1 $62 $-1 $19 #
shell $-1 $-1 $-1 $63 $-1 $21 #
shell $-1 $-1 $-1 $64 $-1 $23 #
shell $-1 $-1 $-1 $65 $-1 $25 #
shell $-1 $-1 $-1 $66 $-1 $27 #
shell $-1 $-1 $-1 $67 $-1 $29 #
shell $-1 $-1 $-1 $68 $-1 $31 #
shell $-1 $-1 $-1 $69 $-1 $33 #
shell $-1 $-1 $-1 $70 $-1 $35 #
shell $-1 $-1 $-1 $71 $-1 $37 #
shell $-1 $-1 $-1 $72 $-1 $39 #
shell $-1 $-1 $-1 $73 $-1 $41 #
shell $-1 $-1 $-1 $74 $-1 $43 #
face $-1 $75 $76 $45 $-1 $77 reversed single #
face $-1 $78 $79 $46 $-1 $80 forward single #
face $-1 $81 $82 $47 $-1 $83 forward single #
face $-1 $84 $85 $48 $-1 $86 reversed single #
face $-1 $87 $88 $49 $-1 $89 forward single #
face $-1 $90 $91 $50 $-1 $92 forward single #
face $-1 $93 $94 $51 $-1 $95 forward single #
face $-1 $96 $97 $52 $-1 $98 reversed single #
face $-1 $99 $100 $53 $-1 $101 forward single #
face $-1 $102 $103 $54 $-1 $104 forward single #
face $-1 $105 $106 $55 $-1 $107 forward single #
face $-1 $108 $109 $56 $-1 $110 reversed single #
face $-1 $111 $112 $57 $-1 $113 forward single #
face $-1 $114 $115 $58 $-1 $116 forward single #
face $-1 $117 $118 $59 $-1 $119 forward single #
face $-1 $120 $121 $45 $-1 $122 reversed single #
loop $-1 $-1 $123 $60 #
plane-surface $-1 0 26.992225911025962 0 0 -1 0 0 0 -1 forward_v I I I I #
face $-1 $124 $125 $46 $-1 $126 reversed single #
loop $-1 $-1 $127 $61 #
plane-surface $-1 0 -26.992225911025962 0 0 1 0 0 0 1 forward_v I I I I #
face $-1 $128 $129 $47 $-1 $130 reversed single #
loop $-1 $-1 $131 $62 #
plane-surface $-1 0 26.992225911025962 0 0 -1 0 0 0 -1 forward_v I I I I #
face $-1 $132 $133 $48 $-1 $134 reversed single #
loop $-1 $-1 $135 $63 #
plane-surface $-1 -131.7607737855765 -9.0979735878021568 56.984094854852771 0 1 0 -0.86602541151947299 0 0.49999998660252726 forward_v I I I I #
face $-1 $136 $137 $49 $-1 $138 forward single #
loop $-1 $139 $140 $64 #
cone-surface $-1 -46.446166326657618 -8.0001666994117038 10.718355469770389 0.86602541151947299 0 -0.49999998660252726 0.24999999330126363 0 0.43301270575973649 1 I I 0 1 0.5 forward I I I I #
face $-1 $141 $142 $50 $-1 $143 forward single #
loop $-1 $144 $145 $65 #
cone-surface $-1 -46.446166326657618 -6.3534563668260269 10.718355469770389 0.86602541151947299 0 -0.49999998660252726 0.24999999330126363 0 0.43301270575973649 1 I I 0 1 0.5 forward I I I I #
face $-1 $146 $147 $51 $-1 $148 forward single #
loop $-1 $149 $150 $66 #
cone-surface $-1 -46.446166326657618 -4.70674603424035 10.718355469770389 0.86602541151947299 0 -0.49999998660252726 0.24999999330126363 0 0.43301270575973649 1 I I 0 1 0.5 forward I I I I #
face $-1 $151 $152 $52 $-1 $153 reversed single #
loop $-1 $-1 $154 $67 #
plane-surface $-1 -131.7607737855765 -1.8800952961023487 56.984094854852771 0 1 0 -0.86602541151947299 0 0.49999998660252726 forward_v I I I I #
face $-1 $155 $156 $53 $-1 $157 forward single #
loop $-1 $158 $159 $68 #
cone-surface $-1 -46.446166326657618 -0.78228840771189567 10.718355469770389 0.86602541151947299 0 -0.49999998660252726 0.24999999330126363 0 0.43301270575973649 1 I I 0 1 0.5 forward I I I I #
face $-1 $160 $161 $54 $-1 $162 forward single #
loop $-1 $163 $164 $69 #
cone-surface $-1 -46.446166326657618 0.86442192487378122 10.718355469770389 0.86602541151947299 0 -0.49999998660252726 0.24999999330126363 0 0.43301270575973649 1 I I 0 1 0.5 forward I I I I #
face $-1 $165 $166 $55 $-1 $167 forward single #
loop $-1 $168 $169 $70 #
cone-surface $-1 -46.446166326657618 2.5111322574594581 10.718355469770389 0.86602541151947299 0 -0.49999998660252726 0.24999999330126363 0 0.43301270575973649 1 I I 0 1 0.5 forward I I I I #
face $-1 $170 $171 $56 $-1 $172 reversed single #
loop $-1 $-1 $173 $71 #
plane-surface $-1 -131.7607737855765 5.3377829955974594 56.984094854852771 0 1 0 -0.86602541151947299 0 0.49999998660252726 forward_v I I I I #
face $-1 $174 $175 $57 $-1 $176 forward single #
loop $-1 $177 $178 $72 #
cone-surface $-1 -46.446166326657618 6.4355898839879089 10.718355469770389 0.86602541151947299 0 -0.49999998660252726 0.24999999330126363 0 0.43301270575973649 1 I I 0 1 0.5 forward I I I I #
face $-1 $179 $180 $58 $-1 $181 forward single #
loop $-1 $182 $183 $73 #
cone-surface $-1 -46.446166326657618 8.0823002165735929 10.718355469770389 0.86602541151947299 0 -0.49999998660252726 0.24999999330126363 0 0.43301270575973649 1 I I 0 1 0.5 forward I I I I #
face $-1 $184 $185 $59 $-1 $186 forward single #
loop $-1 $187 $188 $74 #
cone-surface $-1 -46.446166326657618 9.7290105491592627 10.718355469770389 0.86602541151947299 0 -0.49999998660252726 0.24999999330126363 0 0.43301270575973649 1 I I 0 1 0.5 forward I I I I #
face $-1 $189 $190 $45 $-1 $191 forward single #
loop $-1 $-1 $192 $75 #
plane-surface $-1 0 -26.992225911025962 0 0 1 0 0 0 1 forward_v I I I I #
coedge $-1 $193 $194 $195 $196 reversed $76 $-1 #
face $-1 $197 $198 $46 $-1 $199 reversed single #
loop $-1 $-1 $200 $78 #
plane-surface $-1 0 0 -13.242311728571636 0 0 1 1 0 0 forward_v I I I I #
coedge $-1 $201 $202 $203 $204 forward $79 $-1 #
face $-1 $205 $206 $47 $-1 $207 reversed single #
loop $-1 $-1 $208 $81 #
plane-surface $-1 0 0 -13.242311728571636 0 0 1 1 0 0 forward_v I I I I #
coedge $-1 $209 $210 $211 $212 forward $82 $-1 #
face $-1 $213 $214 $48 $-1 $215 reversed single #
loop $-1 $-1 $216 $84 #
plane-surface $-1 -48.227790154728851 -6.3534563668260304 8.7563059923849451 -0.86602541151947299 0 0.49999998660252726 0.49999998660252726 0 0.86602541151947299 forward_v I I I I #
coedge $-1 $217 $218 $219 $220 reversed $85 $-1 #
face $-1 $-1 $221 $49 $-1 $222 forward single #
loop $-1 $223 $224 $87 #
cone-surface $-1 -45.743034409127446 -8.0001666994117038 10.312402082411857 0.86602541151947299 0 -0.49999998660252726 0.12499999665063181 0 0.21650635287986825 1 I I -0.70710678118654746 0.70710678118654746 0.25 forward I I I I #
loop $-1 $-1 $225 $64 #
coedge $-1 $140 $140 $226 $227 reversed $88 $-1 #
face $-1 $-1 $228 $50 $-1 $229 forward single #
loop $-1 $230 $231 $90 #
cone-surface $-1 -45.743034409127446 -6.3534563668260269 10.312402082411857 0.86602541151947299 0 -0.49999998660252726 0.12499999665063181 0 0.21650635287986825 1 I I -0.70710678118654746 0.70710678118654746 0.25 forward I I I I #
loop $-1 $-1 $232 $65 #
coedge $-1 $145 $145 $233 $234 reversed $91 $-1 #
face $-1 $-1 $235 $51 $-1 $236 forward single #
loop $-1 $237 $238 $93 #
cone-surface $-1 -45.743034409127446 -4.70674603424035 10.312402082411857 0.86602541151947299 0 -0.49999998660252726 0.12499999665063181 0 0.21650635287986825 1 I I -0.70710678118654746 0.70710678118654746 0.25 forward I I I I #
loop $-1 $-1 $239 $66 #
coedge $-1 $150 $150 $240 $241 reversed $94 $-1 #
face $-1 $242 $243 $52 $-1 $244 reversed single #
loop $-1 $-1 $245 $96 #
plane-surface $-1 -48.227790154728851 0.86442192487377767 8.7563059923849451 -0.86602541151947299 0 0.49999998660252726 0.49999998660252726 0 0.86602541151947299 forward_v I I I I #
coedge $-1 $246 $247 $248 $249 reversed $97 $-1 #
face $-1 $-1 $250 $53 $-1 $251 forward single #
loop $-1 $252 $253 $99 #
cone-surface $-1 -45.743034409127446 -0.78228840771189567 10.312402082411857 0.86602541151947299 0 -0.49999998660252726 0.12499999665063181 0 0.21650635287986825 1 I I -0.70710678118654746 0.70710678118654746 0.25 forward I I I I #
loop $-1 $-1 $254 $68 #
coedge $-1 $159 $159 $255 $256 reversed $100 $-1 #
face $-1 $-1 $257 $54 $-1 $258 forward single #
loop $-1 $259 $260 $102 #
cone-surface $-1 -45.743034409127446 0.86442192487378122 10.312402082411857 0.86602541151947299 0 -0.49999998660252726 0.12499999665063181 0 0.21650635287986825 1 I I -0.70710678118654746 0.70710678118654746 0.25 forward I I I I #
loop $-1 $-1 $261 $69 #
coedge $-1 $164 $164 $262 $263 reversed $103 $-1 #
face $-1 $-1 $264 $55 $-1 $265 forward single #
loop $-1 $266 $267 $105 #
cone-surface $-1 -45.743034409127446 2.5111322574594581 10.312402082411857 0.86602541151947299 0 -0.49999998660252726 0.12499999665063181 0 0.21650635287986825 1 I I -0.70710678118654746 0.70710678118654746 0.25 forward I I I I #
loop $-1 $-1 $268 $70 #
coedge $-1 $169 $169 $269 $270 reversed $106 $-1 #
face $-1 $271 $272 $56 $-1 $273 reversed single #
loop $-1 $-1 $274 $108 #
plane-surface $-1 -48.227790154728851 8.0823002165735858 8.7563059923849451 -0.86602541151947299 0 0.49999998660252726 0.49999998660252726 0 0.86602541151947299 forward_v I I I I #
coedge $-1 $275 $276 $277 $278 reversed $109 $-1 #
face $-1 $-1 $279 $57 $-1 $280 forward single #
loop $-1 $281 $282 $111 #
cone-surface $-1 -45.743034409127446 6.4355898839879089 10.312402082411857 0.86602541151947299 0 -0.49999998660252726 0.12499999665063181 0 0.21650635287986825 1 I I -0.70710678118654746 0.70710678118654746 0.25 forward I I I I #
loop $-1 $-1 $283 $72 #
coedge $-1 $178 $178 $284 $285 reversed $112 $-1 #
face $-1 $-1 $286 $58 $-1 $287 forward single #
loop $-1 $288 $289 $114 #
cone-surface $-1 -45.743034409127446 8.0823002165735929 10.312402082411857 0.86602541151947299 0 -0.49999998660252726 0.12499999665063181 0 0.21650635287986825 1 I I -0.70710678118654746 0.70710678118654746 0.25 forward I I I I #
loop $-1 $-1 $290 $73 #
coedge $-1 $183 $183 $291 $292 reversed $115 $-1 #
face $-1 $-1 $293 $59 $-1 $294 forward single #
loop $-1 $295 $296 $117 #
cone-surface $-1 -45.743034409127446 9.7290105491592627 10.312402082411857 0.86602541151947299 0 -0.49999998660252726 0.12499999665063181 0 0.21650635287986825 1 I I -0.70710678118654746 0.70710678118654746 0.25 forward I I I I #
loop $-1 $-1 $297 $74 #
coedge $-1 $188 $188 $298 $299 reversed $118 $-1 #
face $-1 $300 $301 $45 $-1 $302 reversed single #
loop $-1 $-1 $303 $120 #
plane-surface $-1 0 0 13.242311728571636 0 0 1 1 0 0 forward_v I I I I #
coedge $-1 $304 $305 $306 $307 reversed $121 $-1 #
coedge $-1 $308 $123 $309 $310 reversed $76 $-1 #
coedge $-1 $123 $308 $311 $312 forward $76 $-1 #
coedge $-1 $313 $314 $123 $196 forward $301 $-1 #
edge $-1 $315 -48.227790154728844 $316 48.227790154728844 $123 $317 forward 7 unknown #
face $-1 $318 $319 $46 $-1 $320 reversed single #
loop $-1 $-1 $321 $124 #
plane-surface $-1 -40.908230076713302 -43.157634384502209 0 0 1 0 0 0 1 forward_v I I I I #
coedge $-1 $322 $323 $202 $324 forward $125 $-1 #
coedge $-1 $325 $127 $326 $327 reversed $79 $-1 #
coedge $-1 $127 $325 $200 $324 reversed $79 $-1 #
coedge $-1 $328 $329 $127 $204 reversed $319 $-1 #
edge $-1 $330 -13.242311728571636 $331 13.242311728571636 $203 $332 forward 7 unknown #
face $-1 $333 $334 $47 $-1 $335 reversed single #
loop $-1 $-1 $336 $128 #
plane-surface $-1 -44.70900430425008 35.074930147764086 0 1 0 0 0 0 -1 forward_v I I I I #
coedge $-1 $337 $338 $210 $339 forward $129 $-1 #
coedge $-1 $340 $131 $341 $342 reversed $82 $-1 #
coedge $-1 $131 $340 $208 $339 reversed $82 $-1 #
coedge $-1 $343 $344 $131 $212 reversed $345 $-1 #
edge $-1 $346 -13.242311728571636 $347 13.242311728571636 $211 $348 forward 7 unknown #
face $-1 $349 $350 $48 $-1 $351 reversed single #
loop $-1 $-1 $352 $132 #
plane-surface $-1 -131.7607737855765 -3.6089391458499041 56.984094854852771 0 -1 0 0.86602541151947299 0 -0.49999998660252726 forward_v I I I I #
coedge $-1 $353 $354 $355 $356 reversed $133 $-1 #
coedge $-1 $218 $135 $357 $358 reversed $85 $-1 #
coedge $-1 $135 $217 $353 $359 reversed $85 $-1 #
coedge $-1 $355 $360 $135 $220 forward $361 $-1 #
edge $-1 $362 17.652596738059408 $363 20.242593264901238 $219 $364 forward 7 unknown #
loop $-1 $-1 $226 $136 #
plane-surface $-1 -48.227790154728851 -6.3534563668260304 8.7563059923849451 -0.86602541151947299 0 0.49999998660252726 0.49999998660252726 0 0.86602541151947299 forward_v I I I I #
loop $-1 $-1 $365 $87 #
coedge $-1 $224 $224 $225 $366 reversed $137 $-1 #
coedge $-1 $225 $225 $224 $366 forward $139 $-1 #
coedge $-1 $226 $226 $140 $227 forward $221 $-1 #
edge $-1 $367 0 $367 6.2831853071796004 $226 $368 forward 7 unknown #
loop $-1 $-1 $233 $141 #
plane-surface $-1 -48.227790154728851 -6.3534563668260304 8.7563059923849451 -0.86602541151947299 0 0.49999998660252726 0.49999998660252726 0 0.86602541151947299 forward_v I I I I #
loop $-1 $-1 $369 $90 #
coedge $-1 $231 $231 $232 $370 reversed $142 $-1 #
coedge $-1 $232 $232 $231 $370 forward $144 $-1 #
coedge $-1 $233 $233 $145 $234 forward $228 $-1 #
edge $-1 $371 0 $371 6.2831853071796004 $233 $372 forward 7 unknown #
loop $-1 $-1 $240 $146 #
plane-surface $-1 -48.227790154728851 -6.3534563668260304 8.7563059923849451 -0.86602541151947299 0 0.49999998660252726 0.49999998660252726 0 0.86602541151947299 forward_v I I I I #
loop $-1 $-1 $373 $93 #
coedge $-1 $238 $238 $239 $374 reversed $147 $-1 #
coedge $-1 $239 $239 $238 $374 forward $149 $-1 #
coedge $-1 $240 $240 $150 $241 forward $235 $-1 #
edge $-1 $375 0 $375 6.2831853071796004 $240 $376 forward 7 unknown #
face $-1 $377 $378 $52 $-1 $379 forward single #
loop $-1 $-1 $380 $151 #
plane-surface $-1 -131.7607737855765 3.6089391458499041 56.984094854852771 0 -1 0 0.86602541151947299 0 -0.49999998660252726 forward_v I I I I #
coedge $-1 $381 $382 $383 $384 reversed $152 $-1 #
coedge $-1 $247 $154 $385 $386 reversed $97 $-1 #
coedge $-1 $154 $246 $381 $387 reversed $97 $-1 #
coedge $-1 $383 $388 $154 $249 forward $378 $-1 #
edge $-1 $389 17.652596738059408 $390 20.242593264901238 $248 $391 forward 7 unknown #
loop $-1 $-1 $255 $155 #
plane-surface $-1 -48.227790154728851 0.86442192487377767 8.7563059923849451 -0.86602541151947299 0 0.49999998660252726 0.49999998660252726 0 0.86602541151947299 forward_v I I I I #
loop $-1 $-1 $392 $99 #
coedge $-1 $253 $253 $254 $393 reversed $156 $-1 #
coedge $-1 $254 $254 $253 $393 forward $158 $-1 #
coedge $-1 $255 $255 $159 $256 forward $250 $-1 #
edge $-1 $394 0 $394 6.2831853071796004 $255 $395 forward 7 unknown #
loop $-1 $-1 $262 $160 #
plane-surface $-1 -48.227790154728851 0.86442192487377767 8.7563059923849451 -0.86602541151947299 0 0.49999998660252726 0.49999998660252726 0 0.86602541151947299 forward_v I I I I #
loop $-1 $-1 $396 $102 #
coedge $-1 $260 $260 $261 $397 reversed $161 $-1 #
coedge $-1 $261 $261 $260 $397 forward $163 $-1 #
coedge $-1 $262 $262 $164 $263 forward $257 $-1 #
edge $-1 $398 0 $398 6.2831853071796004 $262 $399 forward 7 unknown #
loop $-1 $-1 $269 $165 #
plane-surface $-1 -48.227790154728851 0.86442192487377767 8.7563059923849451 -0.86602541151947299 0 0.49999998660252726 0.49999998660252726 0 0.86602541151947299 forward_v I I I I #
loop $-1 $-1 $400 $105 #
coedge $-1 $267 $267 $268 $401 reversed $166 $-1 #
coedge $-1 $268 $268 $267 $401 forward $168 $-1 #
coedge $-1 $269 $269 $169 $270 forward $264 $-1 #
edge $-1 $402 0 $402 6.2831853071796004 $269 $403 forward 7 unknown #
face $-1 $404 $405 $56 $-1 $406 forward single #
loop $-1 $-1 $407 $170 #
plane-surface $-1 -131.7607737855765 10.826817437549712 56.984094854852771 0 -1 0 0.86602541151947299 0 -0.49999998660252726 forward_v I I I I #
coedge $-1 $408 $409 $410 $411 reversed $171 $-1 #
coedge $-1 $276 $173 $412 $413 reversed $109 $-1 #
coedge $-1 $173 $275 $408 $414 reversed $109 $-1 #
coedge $-1 $410 $415 $173 $278 forward $405 $-1 #
edge $-1 $416 17.652596738059408 $417 20.242593264901238 $277 $418 forward 7 unknown #
loop $-1 $-1 $284 $174 #
plane-surface $-1 -48.227790154728851 8.0823002165735858 8.7563059923849451 -0.86602541151947299 0 0.49999998660252726 0.49999998660252726 0 0.86602541151947299 forward_v I I I I #
loop $-1 $-1 $419 $111 #
coedge $-1 $282 $282 $283 $420 reversed $175 $-1 #
coedge $-1 $283 $283 $282 $420 forward $177 $-1 #
coedge $-1 $284 $284 $178 $285 forward $279 $-1 #
edge $-1 $421 0 $421 6.2831853071796004 $284 $422 forward 7 unknown #
loop $-1 $-1 $291 $179 #
plane-surface $-1 -48.227790154728851 8.0823002165735858 8.7563059923849451 -0.86602541151947299 0 0.49999998660252726 0.49999998660252726 0 0.86602541151947299 forward_v I I I I #
loop $-1 $-1 $423 $114 #
coedge $-1 $289 $289 $290 $424 reversed $180 $-1 #
coedge $-1 $290 $290 $289 $424 forward $182 $-1 #
coedge $-1 $291 $291 $183 $292 forward $286 $-1 #
edge $-1 $425 0 $425 6.2831853071796004 $291 $426 forward 7 unknown #
loop $-1 $-1 $298 $184 #
plane-surface $-1 -48.227790154728851 8.0823002165735858 8.7563059923849451 -0.86602541151947299 0 0.49999998660252726 0.49999998660252726 0 0.86602541151947299 forward_v I I I I #
loop $-1 $-1 $427 $117 #
coedge $-1 $296 $296 $297 $428 reversed $185 $-1 #
coedge $-1 $297 $297 $296 $428 forward $187 $-1 #
coedge $-1 $298 $298 $188 $299 forward $293 $-1 #
edge $-1 $429 0 $429 6.2831853071796004 $298 $430 forward 7 unknown #
face $-1 $431 $432 $45 $-1 $433 reversed single #
loop $-1 $-1 $313 $189 #
plane-surface $-1 0 0 -13.242311728571636 0 0 1 1 0 0 forward_v I I I I #
coedge $-1 $434 $435 $436 $437 forward $190 $-1 #
coedge $-1 $438 $192 $439 $440 reversed $121 $-1 #
coedge $-1 $192 $438 $441 $442 forward $121 $-1 #
coedge $-1 $314 $313 $192 $307 forward $301 $-1 #
edge $-1 $443 -48.227790154728844 $444 48.227790154728844 $192 $445 forward 7 unknown #
coedge $-1 $194 $193 $434 $446 reversed $76 $-1 #
coedge $-1 $447 $448 $193 $310 forward $432 $-1 #
edge $-1 $449 -13.242311728571636 $315 13.242311728571636 $193 $450 forward 7 unknown #
coedge $-1 $436 $451 $194 $312 reversed $452 $-1 #
edge $-1 $453 -13.242311728571636 $316 13.242311728571636 $311 $454 forward 7 unknown #
coedge $-1 $306 $195 $451 $455 forward $301 $-1 #
coedge $-1 $195 $306 $447 $456 forward $301 $-1 #
vertex $-1 $196 $457 #
vertex $-1 $455 $458 #
straight-curve $-1 0 26.992225911025962 -13.242311728571636 1 0 0 I I #
face $-1 $459 $460 $46 $-1 $461 reversed single #
loop $-1 $-1 $203 $197 #
plane-surface $-1 -44.70900430425008 -35.074930147764086 0 1 0 0 0 0 -1 forward_v I I I I #
coedge $-1 $462 $463 $464 $465 forward $198 $-1 #
coedge $-1 $466 $200 $467 $468 forward $125 $-1 #
coedge $-1 $200 $466 $328 $469 forward $125 $-1 #
edge $-1 $330 -44.70900430425008 $470 -37.107455849176525 $200 $471 forward 7 unknown #
coedge $-1 $202 $201 $472 $473 forward $79 $-1 #
coedge $-1 $474 $475 $201 $327 forward $476 $-1 #
edge $-1 $477 37.107455849176525 $331 44.70900430425008 $326 $478 forward 7 unknown #
coedge $-1 $464 $203 $323 $469 reversed $319 $-1 #
coedge $-1 $203 $464 $474 $479 reversed $319 $-1 #
vertex $-1 $324 $480 #
vertex $-1 $479 $481 #
straight-curve $-1 -44.70900430425008 -26.992225911025962 0 0 0 1 I I #
face $-1 $482 $345 $47 $-1 $483 reversed single #
loop $-1 $-1 $484 $205 #
plane-surface $-1 -40.908230076713302 43.157634384502209 0 0 -1 0 0 0 -1 forward_v I I I I #
coedge $-1 $485 $486 $487 $488 forward $206 $-1 #
coedge $-1 $489 $208 $485 $490 forward $129 $-1 #
coedge $-1 $208 $489 $343 $491 forward $129 $-1 #
edge $-1 $346 37.107455849176525 $492 44.70900430425008 $208 $493 forward 7 unknown #
coedge $-1 $210 $209 $494 $495 forward $82 $-1 #
coedge $-1 $496 $497 $209 $342 forward $498 $-1 #
edge $-1 $499 -44.70900430425008 $347 -37.107455849176525 $341 $500 forward 7 unknown #
coedge $-1 $501 $211 $338 $491 reversed $345 $-1 #
coedge $-1 $211 $501 $496 $502 reversed $345 $-1 #
loop $-1 $-1 $211 $333 #
vertex $-1 $339 $503 #
vertex $-1 $502 $504 #
straight-curve $-1 -37.107455849176525 26.992225911025962 0 0 0 1 I I #
face $-1 $-1 $361 $48 $-1 $505 forward single #
loop $-1 $-1 $506 $213 #
plane-surface $-1 -48.227790154728844 0 0 1 0 0 0 0 -1 forward_v I I I I #
coedge $-1 $507 $508 $509 $510 reversed $214 $-1 #
coedge $-1 $511 $216 $218 $359 forward $133 $-1 #
coedge $-1 $216 $511 $507 $512 forward $133 $-1 #
coedge $-1 $509 $219 $216 $356 forward $361 $-1 #
edge $-1 $363 -5.9212454043891416 $513 -0.43221096243688883 $355 $514 forward 7 unknown #
coedge $-1 $515 $516 $217 $358 forward $350 $-1 #
edge $-1 $517 -19.735741435041426 $362 -15.249735698854749 $357 $518 forward 7 unknown #
edge $-1 $363 -5.1799931924813061 $517 -1.4321304723534956e-014 $218 $519 forward 7 unknown #
coedge $-1 $219 $509 $515 $520 forward $361 $-1 #
loop $-1 $-1 $509 $349 #
vertex $-1 $358 $521 #
vertex $-1 $220 $522 #
straight-curve $-1 -65.880386892788252 -9.0979735878021568 13.242311728571636 1 0 0 I I #
coedge $-1 $365 $365 $-1 $523 reversed $223 $-1 #
edge $-1 $524 0 $524 6.2831853071796004 $224 $525 forward 7 unknown #
vertex $-1 $227 $526 #
ellipse-curve $-1 -46.932791891307929 -8.0001666994117038 10.999308860478292 -0.86602541151947299 0 0.49999998660252726 0.24999999330126363 0 0.43301270575973649 1 I I #
coedge $-1 $369 $369 $-1 $527 reversed $230 $-1 #
edge $-1 $528 0 $528 6.2831853071796004 $231 $529 forward 7 unknown #
vertex $-1 $234 $530 #
ellipse-curve $-1 -46.932791891307929 -6.3534563668260269 10.999308860478292 -0.86602541151947299 0 0.49999998660252726 0.24999999330126363 0 0.43301270575973649 1 I I #
coedge $-1 $373 $373 $-1 $531 reversed $237 $-1 #
edge $-1 $532 0 $532 6.2831853071796004 $238 $533 forward 7 unknown #
vertex $-1 $241 $534 #
ellipse-curve $-1 -46.932791891307929 -4.70674603424035 10.999308860478292 -0.86602541151947299 0 0.49999998660252726 0.24999999330126363 0 0.43301270575973649 1 I I #
face $-1 $-1 $535 $52 $-1 $536 reversed single #
loop $-1 $-1 $248 $242 #
plane-surface $-1 0 0 13.242311728571636 0 0 1 1 0 0 forward_v I I I I #
coedge $-1 $537 $538 $539 $540 reversed $243 $-1 #
coedge $-1 $541 $245 $247 $387 forward $152 $-1 #
coedge $-1 $245 $541 $537 $542 forward $152 $-1 #
coedge $-1 $539 $248 $245 $384 forward $378 $-1 #
edge $-1 $390 -2.3123062585392375 $543 3.1767281834130152 $383 $544 forward 7 unknown #
coedge $-1 $545 $546 $246 $386 forward $535 $-1 #
edge $-1 $547 -19.735741435041426 $389 -15.249735698854749 $385 $548 forward 7 unknown #
edge $-1 $390 -5.1799931924813061 $547 -1.4321304723534956e-014 $247 $549 forward 7 unknown #
coedge $-1 $248 $539 $545 $550 forward $378 $-1 #
vertex $-1 $386 $551 #
vertex $-1 $249 $552 #
straight-curve $-1 -65.880386892788252 -1.8800952961023487 13.242311728571636 1 0 0 I I #
coedge $-1 $392 $392 $-1 $553 reversed $252 $-1 #
edge $-1 $554 0 $554 6.2831853071796004 $253 $555 forward 7 unknown #
vertex $-1 $256 $556 #
ellipse-curve $-1 -46.932791891307929 -0.78228840771189567 10.999308860478292 -0.86602541151947299 0 0.49999998660252726 0.24999999330126363 0 0.43301270575973649 1 I I #
coedge $-1 $396 $396 $-1 $557 reversed $259 $-1 #
edge $-1 $558 0 $558 6.2831853071796004 $260 $559 forward 7 unknown #
vertex $-1 $263 $560 #
ellipse-curve $-1 -46.932791891307929 0.86442192487378122 10.999308860478292 -0.86602541151947299 0 0.49999998660252726 0.24999999330126363 0 0.43301270575973649 1 I I #
coedge $-1 $400 $400 $-1 $561 reversed $266 $-1 #
edge $-1 $562 0 $562 6.2831853071796004 $267 $563 forward 7 unknown #
vertex $-1 $270 $564 #
ellipse-curve $-1 -46.932791891307929 2.5111322574594581 10.999308860478292 -0.86602541151947299 0 0.49999998660252726 0.24999999330126363 0 0.43301270575973649 1 I I #
face $-1 $-1 $565 $56 $-1 $566 reversed single #
loop $-1 $-1 $277 $271 #
plane-surface $-1 0 0 13.242311728571636 0 0 1 1 0 0 forward_v I I I I #
coedge $-1 $567 $568 $569 $570 reversed $272 $-1 #
coedge $-1 $571 $274 $276 $414 forward $171 $-1 #
coedge $-1 $274 $571 $567 $572 forward $171 $-1 #
coedge $-1 $569 $277 $274 $411 forward $405 $-1 #
edge $-1 $417 1.2966328873106665 $573 6.7856673292629193 $410 $574 forward 7 unknown #
coedge $-1 $575 $576 $275 $413 forward $565 $-1 #
edge $-1 $577 -19.735741435041426 $416 -15.249735698854749 $412 $578 forward 7 unknown #
edge $-1 $417 -5.1799931924813061 $577 -1.4321304723534956e-014 $276 $579 forward 7 unknown #
coedge $-1 $277 $569 $575 $580 forward $405 $-1 #
vertex $-1 $278 $581 #
vertex $-1 $278 $582 #
straight-curve $-1 -65.880386892788252 5.3377829955974594 13.242311728571636 1 0 0 I I #
coedge $-1 $419 $419 $-1 $583 reversed $281 $-1 #
edge $-1 $584 0 $584 6.2831853071796004 $282 $585 forward 7 unknown #
vertex $-1 $285 $586 #
ellipse-curve $-1 -46.932791891307929 6.4355898839879089 10.999308860478292 -0.86602541151947299 0 0.49999998660252726 0.24999999330126363 0 0.43301270575973649 1 I I #
coedge $-1 $423 $423 $-1 $587 reversed $288 $-1 #
edge $-1 $588 0 $588 6.2831853071796004 $289 $589 forward 7 unknown #
vertex $-1 $292 $590 #
ellipse-curve $-1 -46.932791891307929 8.0823002165735929 10.999308860478292 -0.86602541151947299 0 0.49999998660252726 0.24999999330126363 0 0.43301270575973649 1 I I #
coedge $-1 $427 $427 $-1 $591 reversed $295 $-1 #
edge $-1 $592 0 $592 6.2831853071796004 $296 $593 forward 7 unknown #
vertex $-1 $299 $594 #
ellipse-curve $-1 -46.932791891307929 9.7290105491592627 10.999308860478292 -0.86602541151947299 0 0.49999998660252726 0.24999999330126363 0 0.43301270575973649 1 I I #
face $-1 $-1 $452 $45 $-1 $595 reversed single #
loop $-1 $-1 $309 $300 #
plane-surface $-1 -48.227790154728844 0 0 1 0 0 0 0 -1 forward_v I I I I #
coedge $-1 $596 $303 $308 $446 forward $190 $-1 #
coedge $-1 $303 $596 $438 $597 forward $190 $-1 #
coedge $-1 $439 $311 $303 $437 reversed $452 $-1 #
edge $-1 $598 -26.992225911025962 $453 26.992225911025962 $436 $599 forward 7 unknown #
coedge $-1 $305 $304 $435 $597 reversed $121 $-1 #
coedge $-1 $451 $436 $304 $440 forward $452 $-1 #
edge $-1 $598 -13.242311728571636 $443 13.242311728571636 $439 $600 forward 7 unknown #
coedge $-1 $448 $447 $305 $442 reversed $432 $-1 #
edge $-1 $601 -13.242311728571636 $444 13.242311728571636 $441 $602 forward 7 unknown #
vertex $-1 $440 $603 #
vertex $-1 $456 $604 #
straight-curve $-1 0 -26.992225911025962 -13.242311728571636 -1 0 0 I I #
edge $-1 $453 -48.227790154728844 $449 48.227790154728844 $308 $605 forward 7 unknown #
coedge $-1 $441 $309 $314 $456 reversed $432 $-1 #
coedge $-1 $309 $441 $596 $606 reversed $432 $-1 #
vertex $-1 $446 $607 #
straight-curve $-1 -48.227790154728844 26.992225911025962 0 0 0 -1 I I #
coedge $-1 $311 $439 $313 $455 reversed $452 $-1 #
loop $-1 $-1 $439 $431 #
vertex $-1 $437 $608 #
straight-curve $-1 48.227790154728844 26.992225911025962 0 0 0 -1 I I #
edge $-1 $316 -26.992225911025962 $443 26.992225911025962 $451 $609 forward 7 unknown #
edge $-1 $444 -26.992225911025962 $315 26.992225911025962 $447 $610 forward 7 unknown #
point $-1 -48.227790154728844 26.992225911025962 -13.242311728571636 #
point $-1 48.227790154728844 26.992225911025962 -13.242311728571636 #
face $-1 $-1 $476 $46 $-1 $611 forward single #
loop $-1 $-1 $612 $318 #
plane-surface $-1 -37.107455849176525 -35.074930147764086 0 -1 0 0 0 0 1 forward_v I I I I #
coedge $-1 $613 $321 $466 $614 reversed $198 $-1 #
coedge $-1 $321 $613 $615 $616 reversed $198 $-1 #
coedge $-1 $329 $328 $321 $465 reversed $319 $-1 #
edge $-1 $617 -13.242311728571636 $618 13.242311728571636 $464 $619 forward 7 unknown #
coedge $-1 $323 $322 $462 $614 forward $125 $-1 #
coedge $-1 $472 $612 $322 $468 reversed $460 $-1 #
edge $-1 $470 -8.0827042367381239 $620 8.0827042367381239 $467 $621 forward 7 unknown #
edge $-1 $618 -8.0827042367381239 $330 8.0827042367381239 $328 $622 forward 7 unknown #
vertex $-1 $468 $623 #
straight-curve $-1 0 -26.992225911025962 -13.242311728571636 1 0 0 I I #
coedge $-1 $624 $467 $325 $473 reversed $460 $-1 #
edge $-1 $477 -13.242311728571636 $470 13.242311728571636 $472 $625 forward 7 unknown #
coedge $-1 $615 $326 $329 $479 forward $476 $-1 #
coedge $-1 $326 $615 $624 $626 forward $476 $-1 #
loop $-1 $-1 $326 $459 #
vertex $-1 $327 $627 #
straight-curve $-1 0 -26.992225911025962 13.242311728571636 -1 0 0 I I #
edge $-1 $331 -8.0827042367381239 $617 8.0827042367381239 $329 $628 forward 7 unknown #
point $-1 -44.70900430425008 -26.992225911025962 -13.242311728571636 #
point $-1 -44.70900430425008 -26.992225911025962 13.242311728571636 #
face $-1 $-1 $498 $47 $-1 $629 forward single #
plane-surface $-1 -37.107455849176525 35.074930147764086 0 -1 0 0 0 0 1 forward_v I I I I #
coedge $-1 $630 $631 $501 $632 forward $334 $-1 #
coedge $-1 $494 $336 $337 $490 reversed $206 $-1 #
coedge $-1 $336 $494 $497 $633 reversed $206 $-1 #
coedge $-1 $631 $630 $336 $488 reversed $334 $-1 #
edge $-1 $634 -13.242311728571636 $635 13.242311728571636 $487 $636 forward 7 unknown #
coedge $-1 $338 $337 $630 $637 forward $129 $-1 #
edge $-1 $492 -8.0827042367381239 $635 8.0827042367381239 $485 $638 forward 7 unknown #
edge $-1 $639 -8.0827042367381239 $346 8.0827042367381239 $343 $640 forward 7 unknown #
vertex $-1 $490 $641 #
straight-curve $-1 0 26.992225911025962 -13.242311728571636 -1 0 0 I I #
coedge $-1 $486 $485 $340 $495 reversed $206 $-1 #
edge $-1 $499 -13.242311728571636 $492 13.242311728571636 $494 $642 forward 7 unknown #
coedge $-1 $643 $341 $344 $502 forward $498 $-1 #
coedge $-1 $341 $643 $486 $633 forward $498 $-1 #
loop $-1 $-1 $341 $482 #
vertex $-1 $342 $644 #
straight-curve $-1 0 26.992225911025962 13.242311728571636 1 0 0 I I #
coedge $-1 $344 $343 $484 $632 reversed $345 $-1 #
edge $-1 $347 -8.0827042367381239 $645 8.0827042367381239 $344 $646 forward 7 unknown #
point $-1 -37.107455849176525 26.992225911025962 -13.242311728571636 #
point $-1 -37.107455849176525 26.992225911025962 13.242311728571636 #
plane-surface $-1 0 0 13.242311728571636 0 0 1 1 0 0 forward_v I I I I #
coedge $-1 $516 $515 $508 $647 forward $350 $-1 #
coedge $-1 $508 $352 $354 $512 reversed $214 $-1 #
coedge $-1 $352 $507 $506 $647 reversed $214 $-1 #
coedge $-1 $360 $355 $352 $510 forward $361 $-1 #
edge $-1 $513 -20.242593264901238 $648 -17.652596738059408 $509 $649 forward 7 unknown #
coedge $-1 $354 $353 $516 $650 reversed $133 $-1 #
edge $-1 $651 1.4321304723534956e-014 $513 5.1799931924813061 $507 $652 forward 7 unknown #
vertex $-1 $356 $653 #
straight-curve $-1 -45.637793627887014 -3.1767281834130152 13.242311728571636 0 1 0 I I #
coedge $-1 $506 $357 $360 $520 reversed $350 $-1 #
coedge $-1 $357 $506 $511 $650 forward $350 $-1 #
vertex $-1 $358 $654 #
straight-curve $-1 -48.227790154728844 -9.0979735878021568 28.492047427426385 0 0 1 I I #
straight-curve $-1 -48.227790154728851 -9.0979735878021568 8.7563059923849451 -0.49999998660252726 0 -0.86602541151947299 I I #
edge $-1 $648 3.6089391458499041 $362 9.0979735878021568 $515 $655 forward 7 unknown #
point $-1 -48.227790154728844 -9.0979735878021568 13.242311728571636 #
point $-1 -45.637793627887014 -9.0979735878021568 13.242311728571636 #
edge $-1 $656 1 $656 0 $365 $-1 forward 7 unknown #
vertex $-1 $366 $657 #
ellipse-curve $-1 -45.959540762007315 -8.0001666994117038 10.437402079062489 -0.86602541151947299 0 0.49999998660252726 0.24999999330126363 0 0.43301270575973649 1 I I #
point $-1 -46.682791898006663 -8.0001666994117038 11.432321566238025 #
edge $-1 $658 1 $658 0 $369 $-1 forward 7 unknown #
vertex $-1 $370 $659 #
ellipse-curve $-1 -45.959540762007315 -6.3534563668260269 10.437402079062489 -0.86602541151947299 0 0.49999998660252726 0.24999999330126363 0 0.43301270575973649 1 I I #
point $-1 -46.682791898006663 -6.3534563668260269 11.432321566238025 #
edge $-1 $660 1 $660 0 $373 $-1 forward 7 unknown #
vertex $-1 $374 $661 #
ellipse-curve $-1 -45.959540762007315 -4.70674603424035 10.437402079062489 -0.86602541151947299 0 0.49999998660252726 0.24999999330126363 0 0.43301270575973649 1 I I #
point $-1 -46.682791898006663 -4.70674603424035 11.432321566238025 #
loop $-1 $-1 $385 $377 #
plane-surface $-1 -48.227790154728844 0 0 1 0 0 0 0 -1 forward_v I I I I #
coedge $-1 $538 $380 $382 $542 reversed $243 $-1 #
coedge $-1 $380 $537 $662 $663 reversed $243 $-1 #
coedge $-1 $388 $383 $380 $540 forward $378 $-1 #
edge $-1 $543 -20.242593264901238 $664 -17.652596738059408 $539 $665 forward 7 unknown #
coedge $-1 $382 $381 $546 $666 reversed $152 $-1 #
edge $-1 $667 1.4321304723534956e-014 $543 5.1799931924813061 $537 $668 forward 7 unknown #
vertex $-1 $384 $669 #
straight-curve $-1 -45.637793627887014 0.43221096243688883 13.242311728571636 0 1 0 I I #
coedge $-1 $662 $385 $388 $550 reversed $535 $-1 #
coedge $-1 $385 $662 $541 $666 forward $535 $-1 #
vertex $-1 $386 $670 #
straight-curve $-1 -48.227790154728844 -1.8800952961023487 28.492047427426385 0 0 1 I I #
straight-curve $-1 -48.227790154728851 -1.8800952961023487 8.7563059923849451 -0.49999998660252726 0 -0.86602541151947299 I I #
edge $-1 $664 -3.6089391458499041 $389 1.8800952961023487 $545 $671 forward 7 unknown #
point $-1 -48.227790154728844 -1.8800952961023487 13.242311728571636 #
point $-1 -45.637793627887014 -1.8800952961023487 13.242311728571636 #
edge $-1 $672 1 $672 0 $392 $-1 forward 7 unknown #
vertex $-1 $393 $673 #
ellipse-curve $-1 -45.959540762007315 -0.78228840771189567 10.437402079062489 -0.86602541151947299 0 0.49999998660252726 0.24999999330126363 0 0.43301270575973649 1 I I #
point $-1 -46.682791898006663 -0.78228840771189567 11.432321566238025 #
edge $-1 $674 1 $674 0 $396 $-1 forward 7 unknown #
vertex $-1 $397 $675 #
ellipse-curve $-1 -45.959540762007315 0.86442192487378122 10.437402079062489 -0.86602541151947299 0 0.49999998660252726 0.24999999330126363 0 0.43301270575973649 1 I I #
point $-1 -46.682791898006663 0.86442192487378122 11.432321566238025 #
edge $-1 $676 1 $676 0 $400 $-1 forward 7 unknown #
vertex $-1 $401 $677 #
ellipse-curve $-1 -45.959540762007315 2.5111322574594581 10.437402079062489 -0.86602541151947299 0 0.49999998660252726 0.24999999330126363 0 0.43301270575973649 1 I I #
point $-1 -46.682791898006663 2.5111322574594581 11.432321566238025 #
loop $-1 $-1 $412 $404 #
plane-surface $-1 -48.227790154728844 0 0 1 0 0 0 0 -1 forward_v I I I I #
coedge $-1 $568 $407 $409 $572 reversed $272 $-1 #
coedge $-1 $407 $567 $678 $679 reversed $272 $-1 #
coedge $-1 $415 $410 $407 $570 forward $405 $-1 #
edge $-1 $573 -20.242593264901238 $680 -17.652596738059408 $569 $681 forward 7 unknown #
coedge $-1 $409 $408 $576 $682 reversed $171 $-1 #
edge $-1 $683 1.4321304723534956e-014 $573 5.1799931924813061 $567 $684 forward 7 unknown #
vertex $-1 $411 $685 #
straight-curve $-1 -45.637793627887014 4.0411501082867929 13.242311728571636 0 1 0 I I #
coedge $-1 $678 $412 $415 $580 reversed $565 $-1 #
coedge $-1 $412 $678 $571 $682 forward $565 $-1 #
vertex $-1 $413 $686 #
straight-curve $-1 -48.227790154728844 5.3377829955974594 28.492047427426385 0 0 1 I I #
straight-curve $-1 -48.227790154728851 5.3377829955974594 8.7563059923849451 -0.49999998660252726 0 -0.86602541151947299 I I #
edge $-1 $680 -10.826817437549712 $416 -5.3377829955974594 $575 $687 forward 7 unknown #
point $-1 -48.227790154728844 5.3377829955974594 13.242311728571636 #
point $-1 -45.637793627887014 5.3377829955974594 13.242311728571636 #
edge $-1 $688 1 $688 0 $419 $-1 forward 7 unknown #
vertex $-1 $420 $689 #
ellipse-curve $-1 -45.959540762007315 6.4355898839879089 10.437402079062489 -0.86602541151947299 0 0.49999998660252726 0.24999999330126363 0 0.43301270575973649 1 I I #
point $-1 -46.682791898006663 6.4355898839879089 11.432321566238025 #
edge $-1 $690 1 $690 0 $423 $-1 forward 7 unknown #
vertex $-1 $424 $691 #
ellipse-curve $-1 -45.959540762007315 8.0823002165735929 10.437402079062489 -0.86602541151947299 0 0.49999998660252726 0.24999999330126363 0 0.43301270575973649 1 I I #
point $-1 -46.682791898006663 8.0823002165735929 11.432321566238025 #
edge $-1 $692 1 $692 0 $427 $-1 forward 7 unknown #
vertex $-1 $428 $693 #
ellipse-curve $-1 -45.959540762007315 9.7290105491592627 10.437402079062489 -0.86602541151947299 0 0.49999998660252726 0.24999999330126363 0 0.43301270575973649 1 I I #
point $-1 -46.682791898006663 9.7290105491592627 11.432321566238025 #
plane-surface $-1 48.227790154728844 0 0 -1 0 0 0 0 1 forward_v I I I I #
coedge $-1 $435 $434 $448 $606 forward $190 $-1 #
edge $-1 $601 -48.227790154728844 $598 48.227790154728844 $438 $694 forward 7 unknown #
vertex $-1 $437 $695 #
straight-curve $-1 48.227790154728844 0 13.242311728571636 0 1 0 I I #
straight-curve $-1 48.227790154728844 -26.992225911025962 0 0 0 -1 I I #
vertex $-1 $606 $696 #
straight-curve $-1 -48.227790154728844 -26.992225911025962 0 0 0 -1 I I #
point $-1 48.227790154728844 -26.992225911025962 -13.242311728571636 #
point $-1 -48.227790154728844 -26.992225911025962 -13.242311728571636 #
straight-curve $-1 0 26.992225911025962 13.242311728571636 -1 0 0 I I #
edge $-1 $449 -26.992225911025962 $601 26.992225911025962 $448 $697 forward 7 unknown #
point $-1 -48.227790154728844 26.992225911025962 13.242311728571636 #
point $-1 48.227790154728844 26.992225911025962 13.242311728571636 #
straight-curve $-1 48.227790154728844 0 -13.242311728571636 0 -1 0 I I #
straight-curve $-1 -48.227790154728844 0 -13.242311728571636 0 1 0 I I #
plane-surface $-1 0 0 13.242311728571636 0 0 1 1 0 0 forward_v I I I I #
coedge $-1 $467 $624 $613 $698 forward $460 $-1 #
coedge $-1 $463 $462 $612 $698 reversed $198 $-1 #
edge $-1 $620 -3.8007742275367775 $618 3.8007742275367775 $462 $699 forward 7 unknown #
coedge $-1 $475 $474 $463 $616 forward $476 $-1 #
edge $-1 $617 -3.8007742275367775 $700 3.8007742275367775 $463 $701 forward 7 unknown #
vertex $-1 $479 $702 #
vertex $-1 $469 $703 #
straight-curve $-1 -44.70900430425008 -43.157634384502209 0 0 0 -1 I I #
vertex $-1 $698 $704 #
straight-curve $-1 -37.107455849176525 -35.074930147764086 -13.242311728571636 0 -1 0 I I #
straight-curve $-1 -44.70900430425008 -35.074930147764086 -13.242311728571636 0 1 0 I I #
point $-1 -37.107455849176525 -26.992225911025962 -13.242311728571636 #
coedge $-1 $612 $472 $475 $626 reversed $460 $-1 #
straight-curve $-1 -37.107455849176525 -26.992225911025962 0 0 0 -1 I I #
edge $-1 $700 -8.0827042367381239 $477 8.0827042367381239 $624 $705 forward 7 unknown #
point $-1 -37.107455849176525 -26.992225911025962 13.242311728571636 #
straight-curve $-1 -44.70900430425008 -35.074930147764086 13.242311728571636 0 -1 0 I I #
plane-surface $-1 0 0 13.242311728571636 0 0 1 1 0 0 forward_v I I I I #
coedge $-1 $487 $484 $489 $637 reversed $334 $-1 #
coedge $-1 $484 $487 $643 $706 reversed $334 $-1 #
edge $-1 $645 -13.242311728571636 $639 13.242311728571636 $501 $707 forward 7 unknown #
edge $-1 $634 -8.0827042367381239 $499 8.0827042367381239 $486 $708 forward 7 unknown #
vertex $-1 $706 $709 #
vertex $-1 $637 $710 #
straight-curve $-1 -44.70900430425008 43.157634384502209 0 0 0 -1 I I #
edge $-1 $635 -3.8007742275367775 $639 3.8007742275367775 $630 $711 forward 7 unknown #
straight-curve $-1 -44.70900430425008 35.074930147764086 -13.242311728571636 0 1 0 I I #
vertex $-1 $491 $712 #
straight-curve $-1 -37.107455849176525 35.074930147764086 -13.242311728571636 0 -1 0 I I #
point $-1 -44.70900430425008 26.992225911025962 -13.242311728571636 #
straight-curve $-1 -44.70900430425008 26.992225911025962 0 0 0 -1 I I #
coedge $-1 $497 $496 $631 $706 forward $498 $-1 #
point $-1 -44.70900430425008 26.992225911025962 13.242311728571636 #
vertex $-1 $502 $713 #
straight-curve $-1 -37.107455849176525 35.074930147764086 13.242311728571636 0 1 0 I I #
edge $-1 $648 15.249735698854749 $651 19.735741435041426 $506 $714 forward 7 unknown #
vertex $-1 $520 $715 #
straight-curve $-1 -65.880386892788252 -3.6089391458499041 13.242311728571636 -1 0 0 I I #
edge $-1 $651 0.43221096243688883 $517 5.9212454043891416 $516 $716 forward 7 unknown #
vertex $-1 $650 $717 #
straight-curve $-1 -48.227790154728851 -3.6089391458499041 8.7563059923849451 0.49999998660252726 0 0.86602541151947299 I I #
point $-1 -45.637793627887014 -3.6089391458499041 13.242311728571636 #
point $-1 -48.227790154728844 -9.0979735878021568 8.7563059923849575 #
straight-curve $-1 -48.227790154728844 0 13.242311728571636 0 -1 0 I I #
vertex $-1 $523 $718 #
point $-1 -45.709540768706049 -8.0001666994117038 10.870414784822225 #
vertex $-1 $527 $719 #
point $-1 -45.709540768706049 -6.3534563668260269 10.870414784822225 #
vertex $-1 $531 $720 #
point $-1 -45.709540768706049 -4.70674603424035 10.870414784822225 #
coedge $-1 $546 $545 $538 $663 forward $535 $-1 #
edge $-1 $664 15.249735698854749 $667 19.735741435041426 $662 $721 forward 7 unknown #
vertex $-1 $550 $722 #
straight-curve $-1 -65.880386892788252 3.6089391458499041 13.242311728571636 -1 0 0 I I #
edge $-1 $667 -3.1767281834130152 $547 2.3123062585392375 $546 $723 forward 7 unknown #
vertex $-1 $666 $724 #
straight-curve $-1 -48.227790154728851 3.6089391458499041 8.7563059923849451 0.49999998660252726 0 0.86602541151947299 I I #
point $-1 -45.637793627887014 3.6089391458499041 13.242311728571636 #
point $-1 -48.227790154728844 -1.8800952961023487 8.7563059923849575 #
straight-curve $-1 -48.227790154728844 0 13.242311728571636 0 -1 0 I I #
vertex $-1 $553 $725 #
point $-1 -45.709540768706049 -0.78228840771189567 10.870414784822225 #
vertex $-1 $557 $726 #
point $-1 -45.709540768706049 0.86442192487378122 10.870414784822225 #
vertex $-1 $561 $727 #
point $-1 -45.709540768706049 2.5111322574594581 10.870414784822225 #
coedge $-1 $576 $575 $568 $679 forward $565 $-1 #
edge $-1 $680 15.249735698854749 $683 19.735741435041426 $678 $728 forward 7 unknown #
vertex $-1 $580 $729 #
straight-curve $-1 -65.880386892788252 10.826817437549712 13.242311728571636 -1 0 0 I I #
edge $-1 $683 -6.7856673292629193 $577 -1.2966328873106665 $576 $730 forward 7 unknown #
vertex $-1 $682 $731 #
straight-curve $-1 -48.227790154728851 10.826817437549712 8.7563059923849451 0.49999998660252726 0 0.86602541151947299 I I #
point $-1 -45.637793627887014 10.826817437549712 13.242311728571636 #
point $-1 -48.227790154728844 5.3377829955974594 8.7563059923849575 #
straight-curve $-1 -48.227790154728844 0 13.242311728571636 0 -1 0 I I #
vertex $-1 $583 $732 #
point $-1 -45.709540768706049 6.4355898839879089 10.870414784822225 #
vertex $-1 $587 $733 #
point $-1 -45.709540768706049 8.0823002165735929 10.870414784822225 #
vertex $-1 $591 $734 #
point $-1 -45.709540768706049 9.7290105491592627 10.870414784822225 #
straight-curve $-1 0 -26.992225911025962 13.242311728571636 1 0 0 I I #
point $-1 48.227790154728844 -26.992225911025962 13.242311728571636 #
point $-1 -48.227790154728844 -26.992225911025962 13.242311728571636 #
straight-curve $-1 -48.227790154728844 0 13.242311728571636 0 -1 0 I I #
edge $-1 $700 -13.242311728571636 $620 13.242311728571636 $612 $735 forward 7 unknown #
straight-curve $-1 -40.908230076713302 -43.157634384502209 -13.242311728571636 -1 0 0 I I #
vertex $-1 $626 $736 #
straight-curve $-1 -40.908230076713302 -43.157634384502209 13.242311728571636 1 0 0 I I #
point $-1 -44.70900430425008 -43.157634384502209 13.242311728571636 #
point $-1 -44.70900430425008 -43.157634384502209 -13.242311728571636 #
point $-1 -37.107455849176525 -43.157634384502209 -13.242311728571636 #
straight-curve $-1 -37.107455849176525 -35.074930147764086 13.242311728571636 0 1 0 I I #
edge $-1 $645 -3.8007742275367775 $634 3.8007742275367775 $631 $737 forward 7 unknown #
straight-curve $-1 -37.107455849176525 43.157634384502209 0 0 0 -1 I I #
straight-curve $-1 -44.70900430425008 35.074930147764086 13.242311728571636 0 -1 0 I I #
point $-1 -44.70900430425008 43.157634384502209 13.242311728571636 #
point $-1 -44.70900430425008 43.157634384502209 -13.242311728571636 #
straight-curve $-1 -40.908230076713302 43.157634384502209 -13.242311728571636 1 0 0 I I #
point $-1 -37.107455849176525 43.157634384502209 -13.242311728571636 #
point $-1 -37.107455849176525 43.157634384502209 13.242311728571636 #
straight-curve $-1 -48.227790154728844 -3.6089391458499041 28.492047427426385 0 0 -1 I I #
point $-1 -48.227790154728844 -3.6089391458499041 13.242311728571636 #
straight-curve $-1 -48.227790154728844 -3.1767281834130152 8.75630599238497 0 -1 0 I I #
point $-1 -48.227790154728844 -3.6089391458499041 8.7563059923849575 #
point $-1 -45.526528056247578 -8.0001666994117038 10.187402085761226 #
point $-1 -45.526528056247578 -6.3534563668260269 10.187402085761226 #
point $-1 -45.526528056247578 -4.70674603424035 10.187402085761226 #
straight-curve $-1 -48.227790154728844 3.6089391458499041 28.492047427426385 0 0 -1 I I #
point $-1 -48.227790154728844 3.6089391458499041 13.242311728571636 #
straight-curve $-1 -48.227790154728844 0.43221096243688883 8.75630599238497 0 -1 0 I I #
point $-1 -48.227790154728844 3.6089391458499041 8.7563059923849575 #
point $-1 -45.526528056247578 -0.78228840771189567 10.187402085761226 #
point $-1 -45.526528056247578 0.86442192487378122 10.187402085761226 #
point $-1 -45.526528056247578 2.5111322574594581 10.187402085761226 #
straight-curve $-1 -48.227790154728844 10.826817437549712 28.492047427426385 0 0 -1 I I #
point $-1 -48.227790154728844 10.826817437549712 13.242311728571636 #
straight-curve $-1 -48.227790154728844 4.0411501082867929 8.75630599238497 0 -1 0 I I #
point $-1 -48.227790154728844 10.826817437549712 8.7563059923849575 #
point $-1 -45.526528056247578 6.4355898839879089 10.187402085761226 #
point $-1 -45.526528056247578 8.0823002165735929 10.187402085761226 #
point $-1 -45.526528056247578 9.7290105491592627 10.187402085761226 #
straight-curve $-1 -37.107455849176525 -43.157634384502209 0 0 0 -1 I I #
point $-1 -37.107455849176525 -43.157634384502209 13.242311728571636 #
straight-curve $-1 -40.908230076713302 43.157634384502209 13.242311728571636 -1 0 0 I I #
End-of-ACIS-data 