500 0 6 0           
7 Unknown 11 ACIS 5.0 NT 24 Thu Mar 25 17:51:30 1999 
-1 9.9999999999999995e-007 1e-010 
body $-1 $6 $-1 $7 #
body $-1 $8 $-1 $9 #
body $-1 $10 $-1 $11 #
body $-1 $12 $-1 $13 #
body $-1 $14 $-1 $15 #
body $-1 $16 $-1 $17 #
lump $-1 $-1 $18 $0 #
transform $-1 1 0 0 0 1 0 0 0 1 48.456068605609303 26.583625955439167 5.7292674988468848 1 rotate no_reflect no_shear #
lump $-1 $-1 $19 $1 #
transform $-1 1 0 0 0 1 0 0 0 1 48.456068605609303 26.583625955439167 5.7292674988468848 1 rotate no_reflect no_shear #
lump $-1 $-1 $20 $2 #
transform $-1 1 0 0 0 1 0 0 0 1 48.456068605609303 26.583625955439167 5.7292674988468848 1 rotate no_reflect no_shear #
lump $-1 $-1 $21 $3 #
transform $-1 1 0 0 0 1 0 0 0 1 48.456068605609303 26.583625955439167 5.7292674988468848 1 rotate no_reflect no_shear #
lump $-1 $-1 $22 $4 #
transform $-1 1 0 0 0 1 0 0 0 1 48.456068605609303 26.583625955439167 5.7292674988468848 1 rotate no_reflect no_shear #
lump $-1 $-1 $23 $5 #
transform $-1 1 0 0 0 1 0 0 0 1 48.456068605609303 26.583625955439167 5.7292674988468848 1 rotate no_reflect no_shear #
shell $-1 $-1 $-1 $24 $-1 $6 #
shell $-1 $-1 $-1 $25 $-1 $8 #
shell $-1 $-1 $-1 $26 $-1 $10 #
shell $-1 $-1 $-1 $27 $-1 $12 #
shell $-1 $-1 $-1 $28 $-1 $14 #
shell $-1 $-1 $-1 $29 $-1 $16 #
face $-1 $30 $31 $18 $-1 $32 forward single #
face $-1 $33 $34 $19 $-1 $35 forward single #
face $-1 $36 $37 $20 $-1 $38 reversed single #
face $-1 $39 $40 $21 $-1 $41 forward single #
face $-1 $42 $43 $22 $-1 $44 forward single #
face $-1 $45 $46 $23 $-1 $47 forward single #
face $-1 $48 $49 $18 $-1 $50 reversed single #
loop $-1 $-1 $51 $24 #
plane-surface $-1 0 0 5.7292674988468848 0 0 1 1 0 0 forward_v I I I I #
face $-1 $52 $53 $19 $-1 $54 reversed single #
loop $-1 $-1 $55 $25 #
plane-surface $-1 0 -26.583625955439167 0 0 1 0 0 0 1 forward_v I I I I #
face $-1 $56 $57 $20 $-1 $58 reversed single #
loop $-1 $-1 $59 $26 #
plane-surface $-1 76.951294839598916 8.0607161843615724 136.31415261076785 0 -1 0 -0.83867057594974714 0 -0.54463902268945019 forward_v I I I I #
face $-1 $60 $61 $21 $-1 $62 forward single #
loop $-1 $63 $64 $27 #
cone-surface $-1 46.633357286965484 -2.5985403888810801 3.540955528087578 -0.83867057594974714 0 -0.54463902268945019 0.54463902268945019 0 -0.83867057594974714 1 I I 0 1 1 forward I I I I #
face $-1 $65 $66 $22 $-1 $67 forward single #
loop $-1 $68 $69 $28 #
cone-surface $-1 46.633357286965484 1.3986808260849166 3.540955528087578 -0.83867057594974714 0 -0.54463902268945019 0.54463902268945019 0 -0.83867057594974714 1 I I 0 1 1 forward I I I I #
face $-1 $70 $71 $23 $-1 $72 forward single #
loop $-1 $73 $74 $29 #
cone-surface $-1 46.633357286965484 5.3959020410509133 3.540955528087578 -0.83867057594974714 0 -0.54463902268945019 0.54463902268945019 0 -0.83867057594974714 1 I I 0 1 1 forward I I I I #
face $-1 $75 $76 $18 $-1 $77 reversed single #
loop $-1 $-1 $78 $30 #
plane-surface $-1 0 0 -5.7292674988468848 0 0 1 1 0 0 forward_v I I I I #
coedge $-1 $79 $80 $81 $82 forward $31 $-1 #
face $-1 $83 $84 $19 $-1 $85 reversed single #
loop $-1 $-1 $86 $33 #
plane-surface $-1 0 0 -5.7292674988468848 0 0 1 1 0 0 forward_v I I I I #
coedge $-1 $87 $88 $89 $90 forward $34 $-1 #
face $-1 $91 $92 $20 $-1 $93 reversed single #
loop $-1 $-1 $94 $36 #
plane-surface $-1 -4.3260630918547207 1.3986808260849131 83.532020913303853 0.83867057594974714 0 0.54463902268945019 0.54463902268945019 0 -0.83867057594974714 forward_v I I I I #
coedge $-1 $95 $96 $97 $98 reversed $37 $-1 #
face $-1 $-1 $99 $21 $-1 $100 forward single #
loop $-1 $101 $102 $39 #
cone-surface $-1 45.51952792239463 -2.5985403888810801 2.8176263044818723 -0.83867057594974714 0 -0.54463902268945019 0.2723195113447251 0 -0.41933528797487357 1 I I -0.70710678118654746 0.70710678118654746 0.5 forward I I I I #
loop $-1 $-1 $103 $27 #
coedge $-1 $64 $64 $104 $105 reversed $40 $-1 #
face $-1 $-1 $106 $22 $-1 $107 forward single #
loop $-1 $108 $109 $42 #
cone-surface $-1 45.51952792239463 1.3986808260849166 2.8176263044818723 -0.83867057594974714 0 -0.54463902268945019 0.2723195113447251 0 -0.41933528797487357 1 I I -0.70710678118654746 0.70710678118654746 0.5 forward I I I I #
loop $-1 $-1 $110 $28 #
coedge $-1 $69 $69 $111 $112 reversed $43 $-1 #
face $-1 $-1 $113 $23 $-1 $114 forward single #
loop $-1 $115 $116 $45 #
cone-surface $-1 45.51952792239463 5.3959020410509133 2.8176263044818723 -0.83867057594974714 0 -0.54463902268945019 0.2723195113447251 0 -0.41933528797487357 1 I I -0.70710678118654746 0.70710678118654746 0.5 forward I I I I #
loop $-1 $-1 $117 $29 #
coedge $-1 $74 $74 $118 $119 reversed $46 $-1 #
face $-1 $120 $121 $18 $-1 $122 reversed single #
loop $-1 $-1 $123 $48 #
plane-surface $-1 0 -26.583625955439167 0 0 1 0 0 0 1 forward_v I I I I #
coedge $-1 $124 $125 $126 $127 forward $49 $-1 #
coedge $-1 $128 $51 $129 $130 forward $31 $-1 #
coedge $-1 $51 $128 $131 $132 forward $31 $-1 #
coedge $-1 $133 $134 $51 $82 reversed $135 $-1 #
edge $-1 $136 -26.583625955439167 $137 26.583625955439167 $81 $138 forward 7 unknown #
face $-1 $139 $140 $19 $-1 $141 forward single #
loop $-1 $-1 $142 $52 #
plane-surface $-1 48.456068605609303 0 0 -1 0 0 0 0 1 forward_v I I I I #
coedge $-1 $143 $144 $145 $146 forward $53 $-1 #
coedge $-1 $145 $55 $142 $147 reversed $34 $-1 #
coedge $-1 $55 $145 $148 $149 reversed $34 $-1 #
coedge $-1 $150 $151 $55 $90 reversed $140 $-1 #
edge $-1 $152 -48.456068605609303 $153 48.456068605609303 $89 $154 forward 7 unknown #
face $-1 $155 $156 $20 $-1 $157 reversed single #
loop $-1 $-1 $158 $56 #
plane-surface $-1 76.951294839598916 -5.2633545321917463 136.31415261076785 0 1 0 0.83867057594974714 0 0.54463902268945019 forward_v I I I I #
coedge $-1 $159 $160 $161 $162 reversed $57 $-1 #
coedge $-1 $96 $59 $163 $164 reversed $37 $-1 #
coedge $-1 $59 $95 $159 $165 reversed $37 $-1 #
coedge $-1 $161 $166 $59 $98 forward $167 $-1 #
edge $-1 $168 -9.9804211858098455 $169 -7.723986701714125 $97 $170 forward 7 unknown #
loop $-1 $-1 $104 $60 #
plane-surface $-1 -4.3260630918547207 1.3986808260849131 83.532020913303853 0.83867057594974714 0 0.54463902268945019 0.54463902268945019 0 -0.83867057594974714 forward_v I I I I #
loop $-1 $-1 $171 $39 #
coedge $-1 $102 $102 $103 $172 reversed $61 $-1 #
coedge $-1 $103 $103 $102 $172 forward $63 $-1 #
coedge $-1 $104 $104 $64 $105 forward $99 $-1 #
edge $-1 $173 0 $173 6.2831853071796004 $104 $174 forward 7 unknown #
loop $-1 $-1 $111 $65 #
plane-surface $-1 -4.3260630918547207 1.3986808260849131 83.532020913303853 0.83867057594974714 0 0.54463902268945019 0.54463902268945019 0 -0.83867057594974714 forward_v I I I I #
loop $-1 $-1 $175 $42 #
coedge $-1 $109 $109 $110 $176 reversed $66 $-1 #
coedge $-1 $110 $110 $109 $176 forward $68 $-1 #
coedge $-1 $111 $111 $69 $112 forward $106 $-1 #
edge $-1 $177 0 $177 6.2831853071796004 $111 $178 forward 7 unknown #
loop $-1 $-1 $118 $70 #
plane-surface $-1 -4.3260630918547207 1.3986808260849131 83.532020913303853 0.83867057594974714 0 0.54463902268945019 0.54463902268945019 0 -0.83867057594974714 forward_v I I I I #
loop $-1 $-1 $179 $45 #
coedge $-1 $116 $116 $117 $180 reversed $71 $-1 #
coedge $-1 $117 $117 $116 $180 forward $73 $-1 #
coedge $-1 $118 $118 $74 $119 forward $113 $-1 #
edge $-1 $181 0 $181 6.2831853071796004 $118 $182 forward 7 unknown #
face $-1 $183 $184 $18 $-1 $185 reversed single #
loop $-1 $-1 $186 $75 #
plane-surface $-1 -48.456068605609303 0 0 1 0 0 0 0 -1 forward_v I I I I #
coedge $-1 $131 $187 $133 $188 reversed $76 $-1 #
coedge $-1 $189 $78 $187 $190 forward $49 $-1 #
coedge $-1 $78 $189 $191 $192 forward $49 $-1 #
coedge $-1 $134 $133 $78 $127 reversed $135 $-1 #
edge $-1 $193 -26.583625955439167 $194 26.583625955439167 $126 $195 forward 7 unknown #
coedge $-1 $80 $79 $196 $197 forward $31 $-1 #
coedge $-1 $198 $199 $79 $130 reversed $184 $-1 #
edge $-1 $137 -48.456068605609303 $200 48.456068605609303 $129 $201 forward 7 unknown #
coedge $-1 $202 $123 $80 $132 reversed $76 $-1 #
edge $-1 $203 -48.456068605609303 $136 48.456068605609303 $131 $204 forward 7 unknown #
coedge $-1 $126 $81 $123 $188 forward $135 $-1 #
coedge $-1 $81 $126 $198 $205 reversed $135 $-1 #
loop $-1 $-1 $133 $183 #
vertex $-1 $82 $206 #
vertex $-1 $82 $207 #
straight-curve $-1 48.456068605609303 0 5.7292674988468848 0 1 0 I I #
face $-1 $208 $209 $19 $-1 $210 reversed single #
loop $-1 $-1 $151 $83 #
plane-surface $-1 0 -30.265929180319855 -2.7292674988468848 0 0 1 1 0 0 forward_v I I I I #
coedge $-1 $211 $212 $87 $147 forward $84 $-1 #
coedge $-1 $213 $86 $212 $214 forward $53 $-1 #
coedge $-1 $86 $213 $215 $216 forward $53 $-1 #
coedge $-1 $88 $87 $86 $146 reversed $34 $-1 #
edge $-1 $217 -48.456068605609303 $218 48.456068605609303 $86 $219 forward 7 unknown #
edge $-1 $218 -5.7292674988468848 $153 -2.7292674988468848 $142 $220 forward 7 unknown #
coedge $-1 $215 $221 $88 $149 forward $222 $-1 #
edge $-1 $152 2.7292674988468848 $217 5.7292674988468848 $148 $223 forward 7 unknown #
coedge $-1 $224 $89 $221 $225 forward $140 $-1 #
coedge $-1 $89 $224 $211 $226 forward $140 $-1 #
vertex $-1 $149 $227 #
vertex $-1 $226 $228 #
straight-curve $-1 0 -26.583625955439167 -2.7292674988468848 1 0 0 I I #
face $-1 $-1 $167 $20 $-1 $229 forward single #
loop $-1 $-1 $230 $91 #
plane-surface $-1 48.456068605609303 0 0 -1 0 0 0 0 1 forward_v I I I I #
coedge $-1 $231 $232 $233 $234 reversed $92 $-1 #
coedge $-1 $235 $94 $96 $165 forward $57 $-1 #
coedge $-1 $94 $235 $231 $236 forward $57 $-1 #
coedge $-1 $233 $97 $94 $162 forward $167 $-1 #
edge $-1 $169 -7.3613757713191159 $237 5.9626949452342028 $161 $238 forward 7 unknown #
coedge $-1 $239 $240 $95 $164 forward $156 $-1 #
edge $-1 $241 -65.902413323533736 $168 -62.427808806537037 $163 $242 forward 7 unknown #
edge $-1 $169 92.769146367570784 $241 96.912137211218649 $96 $243 forward 7 unknown #
coedge $-1 $97 $233 $239 $244 forward $167 $-1 #
loop $-1 $-1 $233 $155 #
vertex $-1 $164 $245 #
vertex $-1 $98 $246 #
straight-curve $-1 38.475647419799458 8.0607161843615724 5.7292674988468804 -1 0 0 I I #
coedge $-1 $171 $171 $-1 $247 reversed $101 $-1 #
edge $-1 $248 0 $248 6.2831853071796004 $102 $249 forward 7 unknown #
vertex $-1 $105 $250 #
ellipse-curve $-1 47.327851363561436 -2.5985403888810801 3.9919652403485415 0.83867057594974714 0 0.54463902268945019 0.54463902268945019 0 -0.83867057594974714 1 I I #
coedge $-1 $175 $175 $-1 $251 reversed $108 $-1 #
edge $-1 $252 0 $252 6.2831853071796004 $109 $253 forward 7 unknown #
vertex $-1 $112 $254 #
ellipse-curve $-1 47.327851363561436 1.3986808260849166 3.9919652403485415 0.83867057594974714 0 0.54463902268945019 0.54463902268945019 0 -0.83867057594974714 1 I I #
coedge $-1 $179 $179 $-1 $255 reversed $115 $-1 #
edge $-1 $256 0 $256 6.2831853071796004 $116 $257 forward 7 unknown #
vertex $-1 $119 $258 #
ellipse-curve $-1 47.327851363561436 5.3959020410509133 3.9919652403485415 0.83867057594974714 0 0.54463902268945019 0.54463902268945019 0 -0.83867057594974714 1 I I #
face $-1 $-1 $135 $18 $-1 $259 reversed single #
loop $-1 $-1 $198 $120 #
plane-surface $-1 0 26.583625955439167 0 0 -1 0 0 0 -1 forward_v I I I I #
coedge $-1 $260 $196 $199 $261 forward $121 $-1 #
coedge $-1 $123 $202 $124 $190 reversed $76 $-1 #
edge $-1 $136 -5.7292674988468848 $194 5.7292674988468848 $133 $262 forward 7 unknown #
coedge $-1 $125 $124 $260 $263 forward $49 $-1 #
edge $-1 $194 -48.456068605609303 $264 48.456068605609303 $187 $265 forward 7 unknown #
coedge $-1 $199 $198 $125 $192 reversed $184 $-1 #
edge $-1 $266 -48.456068605609303 $193 48.456068605609303 $191 $267 forward 7 unknown #
vertex $-1 $127 $268 #
vertex $-1 $188 $269 #
straight-curve $-1 48.456068605609303 0 -5.7292674988468848 0 -1 0 I I #
coedge $-1 $186 $270 $128 $197 reversed $121 $-1 #
edge $-1 $200 -26.583625955439167 $203 26.583625955439167 $196 $271 forward 7 unknown #
coedge $-1 $191 $129 $134 $205 forward $184 $-1 #
coedge $-1 $129 $191 $186 $261 reversed $184 $-1 #
vertex $-1 $130 $272 #
straight-curve $-1 0 26.583625955439167 5.7292674988468848 -1 0 0 I I #
coedge $-1 $187 $131 $270 $273 forward $76 $-1 #
vertex $-1 $197 $274 #
straight-curve $-1 0 -26.583625955439167 5.7292674988468848 1 0 0 I I #
edge $-1 $137 -5.7292674988468848 $193 5.7292674988468848 $134 $275 forward 7 unknown #
point $-1 48.456068605609303 -26.583625955439167 5.7292674988468848 #
point $-1 48.456068605609303 26.583625955439167 5.7292674988468848 #
face $-1 $-1 $222 $19 $-1 $276 reversed single #
loop $-1 $-1 $277 $139 #
plane-surface $-1 0 -33.948232405200542 -4.2292674988468848 0 1 0 0 0 1 forward_v I I I I #
coedge $-1 $278 $142 $151 $226 reversed $84 $-1 #
coedge $-1 $142 $278 $143 $214 reversed $84 $-1 #
coedge $-1 $144 $143 $279 $280 forward $53 $-1 #
edge $-1 $218 26.583625955439167 $281 33.948232405200542 $212 $282 forward 7 unknown #
coedge $-1 $283 $148 $144 $216 reversed $222 $-1 #
edge $-1 $284 -33.948232405200542 $217 -26.583625955439167 $215 $285 forward 7 unknown #
vertex $-1 $149 $286 #
vertex $-1 $214 $287 #
straight-curve $-1 0 -26.583625955439167 -5.7292674988468848 1 0 0 I I #
straight-curve $-1 48.456068605609303 -26.583625955439167 0 0 0 1 I I #
coedge $-1 $148 $283 $150 $225 reversed $222 $-1 #
loop $-1 $-1 $148 $208 #
straight-curve $-1 -48.456068605609303 -26.583625955439167 0 0 0 -1 I I #
coedge $-1 $151 $150 $288 $289 forward $140 $-1 #
edge $-1 $152 -3.6823032248806875 $290 3.6823032248806875 $221 $291 forward 7 unknown #
edge $-1 $292 -3.6823032248806875 $153 3.6823032248806875 $211 $293 forward 7 unknown #
point $-1 -48.456068605609303 -26.583625955439167 -2.7292674988468848 #
point $-1 48.456068605609303 -26.583625955439167 -2.7292674988468848 #
plane-surface $-1 0 0 5.7292674988468848 0 0 1 1 0 0 forward_v I I I I #
coedge $-1 $240 $239 $232 $294 forward $156 $-1 #
coedge $-1 $232 $158 $160 $236 reversed $92 $-1 #
coedge $-1 $158 $231 $230 $294 reversed $92 $-1 #
coedge $-1 $166 $161 $158 $234 forward $167 $-1 #
edge $-1 $237 7.723986701714125 $295 9.9804211858098455 $233 $296 forward 7 unknown #
coedge $-1 $160 $159 $240 $297 reversed $57 $-1 #
edge $-1 $298 -96.912137211218649 $237 -92.769146367570784 $231 $299 forward 7 unknown #
vertex $-1 $162 $300 #
straight-curve $-1 46.199634121513583 0.69934041304245653 5.7292674988468875 0 -1 0 I I #
coedge $-1 $230 $163 $166 $244 reversed $156 $-1 #
coedge $-1 $163 $230 $235 $297 forward $156 $-1 #
vertex $-1 $164 $301 #
straight-curve $-1 48.456068605609303 8.0607161843615724 68.157076305383924 0 0 1 I I #
straight-curve $-1 -4.3260630918547207 8.0607161843615724 83.532020913303853 0.54463902268945019 0 -0.83867057594974714 I I #
edge $-1 $295 -5.2633545321917463 $168 8.0607161843615724 $239 $302 forward 7 unknown #
point $-1 48.456068605609303 8.0607161843615724 5.7292674988468848 #
point $-1 46.199634121513583 8.0607161843615724 5.7292674988468804 #
edge $-1 $303 1 $303 0 $171 $-1 forward 7 unknown #
vertex $-1 $172 $304 #
ellipse-curve $-1 45.938863210369504 -2.5985403888810801 3.0899458158265976 0.83867057594974714 0 0.54463902268945019 0.54463902268945019 0 -0.83867057594974714 1 I I #
point $-1 47.872490386250909 -2.5985403888810801 3.1532946643988113 #
edge $-1 $305 1 $305 0 $175 $-1 forward 7 unknown #
vertex $-1 $176 $306 #
ellipse-curve $-1 45.938863210369504 1.3986808260849166 3.0899458158265976 0.83867057594974714 0 0.54463902268945019 0.54463902268945019 0 -0.83867057594974714 1 I I #
point $-1 47.872490386250909 1.3986808260849166 3.1532946643988113 #
edge $-1 $307 1 $307 0 $179 $-1 forward 7 unknown #
vertex $-1 $180 $308 #
ellipse-curve $-1 45.938863210369504 5.3959020410509133 3.0899458158265976 0.83867057594974714 0 0.54463902268945019 0.54463902268945019 0 -0.83867057594974714 1 I I #
point $-1 47.872490386250909 5.3959020410509133 3.1532946643988113 #
plane-surface $-1 48.456068605609303 0 0 -1 0 0 0 0 1 forward_v I I I I #
coedge $-1 $270 $186 $189 $263 reversed $121 $-1 #
edge $-1 $200 -5.7292674988468848 $266 5.7292674988468848 $199 $309 forward 7 unknown #
straight-curve $-1 48.456068605609303 -26.583625955439167 0 0 0 -1 I I #
edge $-1 $264 -26.583625955439167 $266 26.583625955439167 $260 $310 forward 7 unknown #
vertex $-1 $263 $311 #
straight-curve $-1 0 -26.583625955439167 -5.7292674988468848 -1 0 0 I I #
vertex $-1 $192 $312 #
straight-curve $-1 0 26.583625955439167 -5.7292674988468848 1 0 0 I I #
point $-1 48.456068605609303 26.583625955439167 -5.7292674988468848 #
point $-1 48.456068605609303 -26.583625955439167 -5.7292674988468848 #
coedge $-1 $196 $260 $202 $273 reversed $121 $-1 #
straight-curve $-1 -48.456068605609303 0 5.7292674988468848 0 -1 0 I I #
point $-1 -48.456068605609303 26.583625955439167 5.7292674988468848 #
edge $-1 $203 -5.7292674988468848 $264 5.7292674988468848 $270 $313 forward 7 unknown #
point $-1 -48.456068605609303 -26.583625955439167 5.7292674988468848 #
straight-curve $-1 48.456068605609303 26.583625955439167 0 0 0 -1 I I #
plane-surface $-1 -48.456068605609303 0 0 1 0 0 0 0 -1 forward_v I I I I #
coedge $-1 $279 $288 $283 $314 forward $209 $-1 #
coedge $-1 $212 $211 $315 $316 forward $84 $-1 #
coedge $-1 $315 $277 $213 $280 reversed $209 $-1 #
edge $-1 $281 -48.456068605609303 $284 48.456068605609303 $279 $317 forward 7 unknown #
vertex $-1 $316 $318 #
straight-curve $-1 48.456068605609303 0 -5.7292674988468848 0 -1 0 I I #
coedge $-1 $221 $215 $277 $314 reversed $222 $-1 #
vertex $-1 $216 $319 #
straight-curve $-1 -48.456068605609303 0 -5.7292674988468848 0 1 0 I I #
point $-1 -48.456068605609303 -26.583625955439167 -5.7292674988468848 #
point $-1 48.456068605609303 -26.583625955439167 -5.7292674988468848 #
coedge $-1 $277 $315 $224 $289 reversed $209 $-1 #
edge $-1 $290 -48.456068605609303 $292 48.456068605609303 $288 $320 forward 7 unknown #
vertex $-1 $225 $321 #
straight-curve $-1 -48.456068605609303 -30.265929180319855 -2.7292674988468848 0 -1 0 I I #
vertex $-1 $226 $322 #
straight-curve $-1 48.456068605609303 -30.265929180319855 -2.7292674988468848 0 1 0 I I #
edge $-1 $295 62.427808806537037 $298 65.902413323533736 $230 $323 forward 7 unknown #
vertex $-1 $244 $324 #
straight-curve $-1 38.475647419799458 -5.2633545321917463 5.7292674988468804 1 0 0 I I #
edge $-1 $298 -5.9626949452342028 $241 7.3613757713191159 $240 $325 forward 7 unknown #
vertex $-1 $297 $326 #
straight-curve $-1 -4.3260630918547207 -5.2633545321917463 83.532020913303853 -0.54463902268945019 0 0.83867057594974714 I I #
point $-1 46.199634121513583 -5.2633545321917463 5.7292674988468804 #
point $-1 48.456068605609303 8.0607161843615724 2.2546629818501884 #
straight-curve $-1 48.456068605609303 0 5.7292674988468848 0 1 0 I I #
vertex $-1 $247 $327 #
point $-1 46.483502233058957 -2.5985403888810801 2.2512752398768505 #
vertex $-1 $251 $328 #
point $-1 46.483502233058957 1.3986808260849166 2.2512752398768505 #
vertex $-1 $255 $329 #
point $-1 46.483502233058957 5.3959020410509133 2.2512752398768505 #
straight-curve $-1 -48.456068605609303 26.583625955439167 0 0 0 -1 I I #
straight-curve $-1 -48.456068605609303 0 -5.7292674988468848 0 1 0 I I #
point $-1 -48.456068605609303 -26.583625955439167 -5.7292674988468848 #
point $-1 -48.456068605609303 26.583625955439167 -5.7292674988468848 #
straight-curve $-1 -48.456068605609303 -26.583625955439167 0 0 0 -1 I I #
edge $-1 $290 -1.5 $284 1.5 $283 $330 forward 7 unknown #
coedge $-1 $288 $279 $278 $316 reversed $209 $-1 #
edge $-1 $292 -1.5 $281 1.5 $278 $331 forward 7 unknown #
straight-curve $-1 0 -33.948232405200542 -5.7292674988468848 -1 0 0 I I #
point $-1 48.456068605609303 -33.948232405200542 -5.7292674988468848 #
point $-1 -48.456068605609303 -33.948232405200542 -5.7292674988468848 #
straight-curve $-1 0 -33.948232405200542 -2.7292674988468848 1 0 0 I I #
point $-1 -48.456068605609303 -33.948232405200542 -2.7292674988468848 #
point $-1 48.456068605609303 -33.948232405200542 -2.7292674988468848 #
straight-curve $-1 48.456068605609303 -5.2633545321917463 68.157076305383924 0 0 -1 I I #
point $-1 48.456068605609303 -5.2633545321917463 5.7292674988468848 #
straight-curve $-1 48.456068605609303 0.69934041304245653 2.2546629818501884 0 1 0 I I #
point $-1 48.456068605609303 -5.2633545321917463 2.2546629818501884 #
point $-1 45.100192634419756 -2.5985403888810801 2.5453067931371471 #
point $-1 45.100192634419756 1.3986808260849166 2.5453067931371471 #
point $-1 45.100192634419756 5.3959020410509133 2.5453067931371471 #
straight-curve $-1 -48.456068605609303 -33.948232405200542 -4.2292674988468848 0 0 -1 I I #
straight-curve $-1 48.456068605609303 -33.948232405200542 -4.2292674988468848 0 0 -1 I I #
End-of-ACIS-data 