500 0 8 0           
7 Unknown 11 ACIS 5.0 NT 24 Fri Mar 26 00:49:47 1999 
-1 9.9999999999999995e-007 1e-010 
body $-1 $8 $-1 $9 #
body $-1 $10 $-1 $11 #
body $-1 $12 $-1 $13 #
body $-1 $14 $-1 $15 #
body $-1 $16 $-1 $17 #
body $-1 $18 $-1 $19 #
body $-1 $20 $-1 $21 #
body $-1 $22 $-1 $23 #
lump $-1 $-1 $24 $0 #
transform $-1 1 0 0 0 1 0 0 0 1 64.112063966795859 40.172614977064086 9.5112500299253977 1 rotate no_reflect no_shear #
lump $-1 $-1 $25 $1 #
transform $-1 1 0 0 0 1 0 0 0 1 64.112063966795859 40.172614977064086 9.5112500299253977 1 rotate no_reflect no_shear #
lump $-1 $-1 $26 $2 #
transform $-1 1 0 0 0 1 0 0 0 1 64.112063966795859 40.172614977064086 9.5112500299253977 1 rotate no_reflect no_shear #
lump $-1 $-1 $27 $3 #
transform $-1 1 0 0 0 1 0 0 0 1 64.112063966795859 40.172614977064086 9.5112500299253977 1 rotate no_reflect no_shear #
lump $-1 $-1 $28 $4 #
transform $-1 1 0 0 0 1 0 0 0 1 64.112063966795859 40.172614977064086 9.5112500299253977 1 rotate no_reflect no_shear #
lump $-1 $-1 $29 $5 #
transform $-1 1 0 0 0 1 0 0 0 1 64.112063966795859 40.172614977064086 9.5112500299253977 1 rotate no_reflect no_shear #
lump $-1 $-1 $30 $6 #
transform $-1 1 0 0 0 1 0 0 0 1 64.112063966795859 40.172614977064086 9.5112500299253977 1 rotate no_reflect no_shear #
lump $-1 $-1 $31 $7 #
transform $-1 1 0 0 0 1 0 0 0 1 64.112063966795859 40.172614977064086 9.5112500299253977 1 rotate no_reflect no_shear #
shell $-1 $-1 $-1 $32 $-1 $8 #
shell $-1 $-1 $-1 $33 $-1 $10 #
shell $-1 $-1 $-1 $34 $-1 $12 #
shell $-1 $-1 $-1 $35 $-1 $14 #
shell $-1 $-1 $-1 $36 $-1 $16 #
shell $-1 $-1 $-1 $37 $-1 $18 #
shell $-1 $-1 $-1 $38 $-1 $20 #
shell $-1 $-1 $-1 $39 $-1 $22 #
face $-1 $40 $41 $24 $-1 $42 forward single #
face $-1 $43 $44 $25 $-1 $45 forward single #
face $-1 $46 $47 $26 $-1 $48 forward single #
face $-1 $49 $50 $27 $-1 $51 reversed single #
face $-1 $52 $53 $28 $-1 $54 forward single #
face $-1 $55 $56 $29 $-1 $57 reversed single #
face $-1 $58 $59 $30 $-1 $60 forward single #
face $-1 $61 $62 $31 $-1 $63 forward single #
face $-1 $64 $65 $24 $-1 $66 reversed single #
loop $-1 $-1 $67 $32 #
plane-surface $-1 0 0 9.5112500299253977 0 0 1 1 0 0 forward_v I I I I #
face $-1 $68 $69 $25 $-1 $70 reversed single #
loop $-1 $-1 $71 $33 #
plane-surface $-1 0 -34.950208103123664 -6.3695506502478398 0 0 1 1 0 0 forward_v I I I I #
face $-1 $72 $73 $26 $-1 $74 reversed single #
loop $-1 $-1 $75 $34 #
plane-surface $-1 0 34.950208103123657 -6.3695506502478398 0 0 1 1 0 0 forward_v I I I I #
face $-1 $76 $77 $27 $-1 $78 reversed single #
loop $-1 $-1 $79 $35 #
plane-surface $-1 29.511468156388489 -23.588363417827949 180.28170212908503 0 -1 0 -0.55919291073839883 0 -0.82903756765294845 forward_v I I I I #
face $-1 $80 $81 $28 $-1 $82 forward single #
loop $-1 $83 $84 $36 #
cone-surface $-1 58.025302704657932 -26.658082323505596 4.8204883251506629 -0.55919291073839883 0 -0.82903756765294845 1.2435563514794228 0 -0.83878936610759824 1 I I 0 1 1.5 forward I I I I #
face $-1 $85 $86 $29 $-1 $87 reversed single #
loop $-1 $-1 $88 $37 #
plane-surface $-1 -160.88404279678346 -17.611331412493705 88.14058555950011 0 1 0 -0.75470958851134928 0 0.65605901945558964 forward_v I I I I #
face $-1 $89 $90 $30 $-1 $91 forward single #
loop $-1 $92 $93 $38 #
cone-surface $-1 -60.941426761246596 -15.41783788316534 6.0839439745141952 0.75470958851134928 0 -0.65605901945558964 0.65605901945558964 0 0.75470958851134928 1 I I 0 1 1 forward I I I I #
face $-1 $94 $95 $31 $-1 $96 forward single #
loop $-1 $97 $98 $39 #
cone-surface $-1 -60.941426761246596 -12.127597589172794 6.0839439745141952 0.75470958851134928 0 -0.65605901945558964 0.65605901945558964 0 0.75470958851134928 1 I I 0 1 1 forward I I I I #
face $-1 $99 $100 $24 $-1 $101 reversed single #
loop $-1 $-1 $102 $40 #
plane-surface $-1 0 0 -9.5112500299253977 0 0 1 1 0 0 forward_v I I I I #
coedge $-1 $103 $104 $105 $106 forward $41 $-1 #
face $-1 $107 $108 $25 $-1 $109 reversed single #
loop $-1 $-1 $110 $43 #
plane-surface $-1 0 -29.727801229183243 -7.9404003400866188 0 -1 0 0 0 -1 forward_v I I I I #
coedge $-1 $111 $112 $113 $114 reversed $44 $-1 #
face $-1 $115 $116 $26 $-1 $117 reversed single #
loop $-1 $-1 $118 $46 #
plane-surface $-1 0 29.727801229183235 -7.9404003400866188 0 1 0 0 0 1 forward_v I I I I #
coedge $-1 $119 $120 $121 $122 reversed $47 $-1 #
face $-1 $123 $124 $27 $-1 $125 reversed single #
loop $-1 $-1 $126 $49 #
plane-surface $-1 -42.190555169689503 -26.658082323505596 73.979082992599672 0.55919291073839883 0 0.82903756765294845 0.82903756765294845 0 -0.55919291073839883 forward_v I I I I #
coedge $-1 $127 $128 $129 $130 reversed $50 $-1 #
face $-1 $-1 $131 $28 $-1 $132 forward single #
loop $-1 $133 $134 $52 #
cone-surface $-1 56.881710793848555 -26.658082323505596 3.1250436263380852 -0.55919291073839883 0 -0.82903756765294845 0.62177817573971139 0 -0.41939468305379912 1 I I -0.70710678118654768 0.70710678118654735 0.75 forward I I I I #
loop $-1 $-1 $135 $36 #
coedge $-1 $84 $84 $136 $137 reversed $53 $-1 #
face $-1 $138 $139 $29 $-1 $140 reversed single #
loop $-1 $-1 $141 $55 #
plane-surface $-1 -64.112063966795844 -13.772717736169071 4.0179899168398521 -0.75470958851134928 0 0.65605901945558964 0.65605901945558964 0 0.75470958851134928 forward_v I I I I #
coedge $-1 $142 $143 $144 $145 reversed $56 $-1 #
face $-1 $-1 $146 $30 $-1 $147 forward single #
loop $-1 $148 $149 $58 #
cone-surface $-1 -59.781043782359248 -15.41783788316534 5.0752384659179661 0.75470958851134928 0 -0.65605901945558964 0.32802950972779482 0 0.37735479425567464 1 I I -0.70710678118654746 0.70710678118654746 0.5 forward I I I I #
loop $-1 $-1 $150 $38 #
coedge $-1 $93 $93 $151 $152 reversed $59 $-1 #
face $-1 $-1 $153 $31 $-1 $154 forward single #
loop $-1 $155 $156 $61 #
cone-surface $-1 -59.781043782359248 -12.127597589172794 5.0752384659179661 0.75470958851134928 0 -0.65605901945558964 0.32802950972779482 0 0.37735479425567464 1 I I -0.70710678118654746 0.70710678118654746 0.5 forward I I I I #
loop $-1 $-1 $157 $39 #
coedge $-1 $98 $98 $158 $159 reversed $62 $-1 #
face $-1 $160 $161 $24 $-1 $162 reversed single #
loop $-1 $-1 $163 $64 #
plane-surface $-1 0 -40.172614977064086 0 0 1 0 0 0 1 forward_v I I I I #
coedge $-1 $164 $165 $166 $167 forward $65 $-1 #
coedge $-1 $168 $67 $169 $170 forward $41 $-1 #
coedge $-1 $67 $168 $171 $172 forward $41 $-1 #
coedge $-1 $173 $174 $67 $106 reversed $175 $-1 #
edge $-1 $176 -40.172614977064086 $177 40.172614977064086 $105 $178 forward 7 unknown #
face $-1 $179 $180 $25 $-1 $181 reversed single #
loop $-1 $-1 $182 $68 #
plane-surface $-1 0 0 -9.5112500299253977 0 0 1 1 0 0 forward_v I I I I #
coedge $-1 $183 $184 $185 $186 reversed $69 $-1 #
coedge $-1 $187 $71 $184 $188 forward $44 $-1 #
coedge $-1 $71 $187 $189 $190 reversed $44 $-1 #
coedge $-1 $191 $185 $71 $114 forward $180 $-1 #
edge $-1 $192 12.25269717762141 $193 22.697510925502254 $113 $194 forward 7 unknown #
face $-1 $195 $196 $26 $-1 $197 reversed single #
loop $-1 $-1 $121 $72 #
plane-surface $-1 64.112063966795859 0 0 -1 0 0 0 0 1 forward_v I I I I #
coedge $-1 $198 $199 $200 $201 reversed $73 $-1 #
coedge $-1 $202 $75 $203 $204 reversed $47 $-1 #
coedge $-1 $75 $202 $199 $205 forward $47 $-1 #
coedge $-1 $206 $207 $75 $122 forward $116 $-1 #
edge $-1 $208 -22.69751092550225 $209 -12.252697177621407 $121 $210 forward 7 unknown #
face $-1 $211 $212 $27 $-1 $213 forward single #
loop $-1 $-1 $214 $76 #
plane-surface $-1 29.511468156388489 -29.727801229183243 180.28170212908503 0 1 0 0.55919291073839883 0 0.82903756765294845 forward_v I I I I #
coedge $-1 $215 $216 $217 $218 reversed $77 $-1 #
coedge $-1 $128 $79 $219 $220 reversed $50 $-1 #
coedge $-1 $79 $127 $215 $221 reversed $50 $-1 #
coedge $-1 $217 $222 $79 $130 forward $212 $-1 #
edge $-1 $223 -49.356329888601614 $224 -38.631201819836967 $129 $225 forward 7 unknown #
loop $-1 $-1 $136 $80 #
plane-surface $-1 -42.190555169689503 -26.658082323505596 73.979082992599672 0.55919291073839883 0 0.82903756765294845 0.82903756765294845 0 -0.55919291073839883 forward_v I I I I #
loop $-1 $-1 $226 $52 #
coedge $-1 $134 $134 $135 $227 reversed $81 $-1 #
coedge $-1 $135 $135 $134 $227 forward $83 $-1 #
coedge $-1 $136 $136 $84 $137 forward $131 $-1 #
edge $-1 $228 0 $228 6.2831853071796004 $136 $229 forward 7 unknown #
face $-1 $230 $231 $29 $-1 $232 reversed single #
loop $-1 $-1 $233 $85 #
plane-surface $-1 -160.88404279678346 -9.9341040598444348 88.14058555950011 0 -1 0 0.75470958851134928 0 -0.65605901945558964 forward_v I I I I #
coedge $-1 $234 $235 $236 $237 reversed $86 $-1 #
coedge $-1 $143 $88 $238 $239 reversed $56 $-1 #
coedge $-1 $88 $142 $234 $240 reversed $56 $-1 #
coedge $-1 $236 $241 $88 $145 forward $242 $-1 #
edge $-1 $243 16.329957431595872 $244 21.105175473431075 $144 $245 forward 7 unknown #
loop $-1 $-1 $151 $89 #
plane-surface $-1 -64.112063966795844 -13.772717736169071 4.0179899168398521 -0.75470958851134928 0 0.65605901945558964 0.65605901945558964 0 0.75470958851134928 forward_v I I I I #
loop $-1 $-1 $246 $58 #
coedge $-1 $149 $149 $150 $247 reversed $90 $-1 #
coedge $-1 $150 $150 $149 $247 forward $92 $-1 #
coedge $-1 $151 $151 $93 $152 forward $146 $-1 #
edge $-1 $248 0 $248 6.2831853071796004 $151 $249 forward 7 unknown #
loop $-1 $-1 $158 $94 #
plane-surface $-1 -64.112063966795844 -13.772717736169071 4.0179899168398521 -0.75470958851134928 0 0.65605901945558964 0.65605901945558964 0 0.75470958851134928 forward_v I I I I #
loop $-1 $-1 $250 $61 #
coedge $-1 $156 $156 $157 $251 reversed $95 $-1 #
coedge $-1 $157 $157 $156 $251 forward $97 $-1 #
coedge $-1 $158 $158 $98 $159 forward $153 $-1 #
edge $-1 $252 0 $252 6.2831853071796004 $158 $253 forward 7 unknown #
face $-1 $254 $255 $24 $-1 $256 reversed single #
loop $-1 $-1 $257 $99 #
plane-surface $-1 -64.112063966795859 0 0 1 0 0 0 0 -1 forward_v I I I I #
coedge $-1 $258 $171 $259 $260 forward $100 $-1 #
coedge $-1 $261 $102 $258 $262 forward $65 $-1 #
coedge $-1 $102 $261 $263 $264 forward $65 $-1 #
coedge $-1 $174 $173 $102 $167 reversed $175 $-1 #
edge $-1 $265 -40.172614977064086 $266 40.172614977064086 $166 $267 forward 7 unknown #
coedge $-1 $104 $103 $268 $269 forward $41 $-1 #
coedge $-1 $270 $271 $103 $170 reversed $255 $-1 #
edge $-1 $177 -64.112063966795859 $272 64.112063966795859 $169 $273 forward 7 unknown #
coedge $-1 $163 $274 $104 $172 reversed $100 $-1 #
edge $-1 $275 -64.112063966795859 $176 64.112063966795859 $171 $276 forward 7 unknown #
coedge $-1 $166 $105 $274 $277 forward $175 $-1 #
coedge $-1 $105 $166 $270 $278 reversed $175 $-1 #
loop $-1 $-1 $173 $254 #
vertex $-1 $106 $279 #
vertex $-1 $106 $280 #
straight-curve $-1 64.112063966795859 0 9.5112500299253977 0 1 0 I I #
face $-1 $281 $282 $25 $-1 $283 reversed single #
loop $-1 $-1 $185 $107 #
plane-surface $-1 64.112063966795859 0 0 -1 0 0 0 0 1 forward_v I I I I #
coedge $-1 $284 $285 $183 $286 forward $108 $-1 #
coedge $-1 $287 $110 $182 $286 reversed $69 $-1 #
coedge $-1 $110 $287 $111 $188 reversed $69 $-1 #
coedge $-1 $113 $288 $110 $186 forward $180 $-1 #
edge $-1 $289 -5.5410498598820883 $192 -2.3993504802045305 $185 $290 forward 7 unknown #
coedge $-1 $112 $111 $291 $292 reversed $44 $-1 #
edge $-1 $192 -64.112063966795859 $293 64.112063966795859 $184 $294 forward 7 unknown #
coedge $-1 $295 $296 $112 $190 forward $282 $-1 #
edge $-1 $193 -64.112063966795859 $297 64.112063966795859 $189 $298 forward 7 unknown #
coedge $-1 $288 $113 $296 $299 forward $180 $-1 #
vertex $-1 $114 $300 #
vertex $-1 $299 $301 #
straight-curve $-1 64.112063966795859 -17.475104051561832 -6.3695506502478398 0 -1 0 I I #
face $-1 $302 $303 $26 $-1 $304 reversed single #
loop $-1 $-1 $305 $115 #
plane-surface $-1 0 0 -9.5112500299253977 0 0 1 1 0 0 forward_v I I I I #
coedge $-1 $306 $118 $305 $307 reversed $73 $-1 #
coedge $-1 $118 $306 $120 $205 reversed $73 $-1 #
coedge $-1 $308 $309 $118 $201 forward $303 $-1 #
edge $-1 $310 -5.5410498598820883 $311 -2.3993504802045305 $200 $312 forward 7 unknown #
coedge $-1 $120 $119 $308 $313 reversed $47 $-1 #
coedge $-1 $314 $315 $119 $204 forward $316 $-1 #
edge $-1 $317 -64.112063966795859 $208 64.112063966795859 $203 $318 forward 7 unknown #
edge $-1 $311 -64.112063966795859 $209 64.112063966795859 $199 $319 forward 7 unknown #
coedge $-1 $320 $121 $306 $321 forward $116 $-1 #
coedge $-1 $121 $320 $314 $322 reversed $116 $-1 #
vertex $-1 $322 $323 #
vertex $-1 $122 $324 #
straight-curve $-1 64.112063966795859 17.475104051561829 -6.3695506502478398 0 -1 0 I I #
face $-1 $-1 $325 $27 $-1 $326 reversed single #
loop $-1 $-1 $129 $123 #
plane-surface $-1 0 0 9.5112500299253977 0 0 1 1 0 0 forward_v I I I I #
coedge $-1 $327 $328 $329 $330 reversed $124 $-1 #
coedge $-1 $331 $126 $128 $221 forward $77 $-1 #
coedge $-1 $126 $331 $327 $332 forward $77 $-1 #
coedge $-1 $329 $129 $126 $218 forward $212 $-1 #
edge $-1 $224 10.259322256075151 $333 16.398760067430445 $217 $334 forward 7 unknown #
coedge $-1 $335 $336 $127 $220 forward $325 $-1 #
edge $-1 $337 -87.863791398020837 $223 -80.629601034617124 $219 $338 forward 7 unknown #
edge $-1 $224 115.28728588054932 $337 128.22412793359172 $128 $339 forward 7 unknown #
coedge $-1 $129 $329 $335 $340 forward $212 $-1 #
vertex $-1 $220 $341 #
vertex $-1 $130 $342 #
straight-curve $-1 14.755734078194244 -23.588363417827949 9.5112500299253924 -1 0 0 I I #
coedge $-1 $226 $226 $-1 $343 reversed $133 $-1 #
edge $-1 $344 0 $344 6.2831853071796004 $134 $345 forward 7 unknown #
vertex $-1 $137 $346 #
ellipse-curve $-1 58.749499932413521 -26.658082323505596 5.894154848223546 0.55919291073839883 0 0.82903756765294845 1.2435563514794228 0 -0.83878936610759824 1 I I #
face $-1 $-1 $242 $29 $-1 $347 forward single #
loop $-1 $-1 $348 $138 #
plane-surface $-1 -64.112063966795859 0 0 1 0 0 0 0 -1 forward_v I I I I #
coedge $-1 $349 $350 $351 $352 reversed $139 $-1 #
coedge $-1 $353 $141 $143 $240 forward $86 $-1 #
coedge $-1 $141 $353 $349 $354 forward $86 $-1 #
coedge $-1 $351 $144 $141 $237 forward $242 $-1 #
edge $-1 $244 -10.724972544409169 $355 -3.0477451917598994 $236 $356 forward 7 unknown #
coedge $-1 $357 $358 $142 $239 forward $231 $-1 #
edge $-1 $359 -40.052302862910217 $243 -34.559042749824656 $238 $360 forward 7 unknown #
edge $-1 $244 -7.2786409457456367 $359 2.1388861263899031e-014 $143 $361 forward 7 unknown #
coedge $-1 $144 $351 $357 $362 forward $242 $-1 #
loop $-1 $-1 $351 $230 #
vertex $-1 $239 $363 #
vertex $-1 $145 $364 #
straight-curve $-1 -80.442021398391731 -17.611331412493705 9.5112500299253995 1 0 0 I I #
coedge $-1 $246 $246 $-1 $365 reversed $148 $-1 #
edge $-1 $366 0 $366 6.2831853071796004 $149 $367 forward 7 unknown #
vertex $-1 $152 $368 #
ellipse-curve $-1 -61.724454945878257 -15.41783788316534 6.7646199733826169 -0.75470958851134928 0 0.65605901945558964 0.65605901945558964 0 0.75470958851134928 1 I I #
coedge $-1 $250 $250 $-1 $369 reversed $155 $-1 #
edge $-1 $370 0 $370 6.2831853071796004 $156 $371 forward 7 unknown #
vertex $-1 $159 $372 #
ellipse-curve $-1 -61.724454945878257 -12.127597589172794 6.7646199733826169 -0.75470958851134928 0 0.65605901945558964 0.65605901945558964 0 0.75470958851134928 1 I I #
face $-1 $-1 $175 $24 $-1 $373 reversed single #
loop $-1 $-1 $270 $160 #
plane-surface $-1 0 40.172614977064086 0 0 -1 0 0 0 -1 forward_v I I I I #
coedge $-1 $374 $268 $271 $375 forward $161 $-1 #
coedge $-1 $274 $163 $164 $262 reversed $100 $-1 #
coedge $-1 $268 $374 $163 $260 reversed $161 $-1 #
edge $-1 $275 -9.5112500299253977 $376 9.5112500299253977 $259 $377 forward 7 unknown #
coedge $-1 $165 $164 $374 $378 forward $65 $-1 #
edge $-1 $266 -64.112063966795859 $376 64.112063966795859 $258 $379 forward 7 unknown #
coedge $-1 $271 $270 $165 $264 reversed $255 $-1 #
edge $-1 $380 -64.112063966795859 $265 64.112063966795859 $263 $381 forward 7 unknown #
vertex $-1 $167 $382 #
vertex $-1 $277 $383 #
straight-curve $-1 64.112063966795859 0 -9.5112500299253977 0 -1 0 I I #
coedge $-1 $257 $259 $168 $269 reversed $161 $-1 #
edge $-1 $272 -40.172614977064086 $275 40.172614977064086 $268 $384 forward 7 unknown #
coedge $-1 $263 $169 $174 $278 forward $255 $-1 #
coedge $-1 $169 $263 $257 $375 reversed $255 $-1 #
vertex $-1 $170 $385 #
straight-curve $-1 0 40.172614977064086 9.5112500299253977 -1 0 0 I I #
coedge $-1 $171 $258 $173 $277 reversed $100 $-1 #
vertex $-1 $269 $386 #
straight-curve $-1 0 -40.172614977064086 9.5112500299253977 1 0 0 I I #
edge $-1 $176 -9.5112500299253977 $266 9.5112500299253977 $173 $387 forward 7 unknown #
edge $-1 $177 -9.5112500299253977 $265 9.5112500299253977 $174 $388 forward 7 unknown #
point $-1 64.112063966795859 -40.172614977064086 9.5112500299253977 #
point $-1 64.112063966795859 40.172614977064086 9.5112500299253977 #
face $-1 $-1 $389 $25 $-1 $390 reversed single #
loop $-1 $-1 $189 $179 #
plane-surface $-1 0 -40.172614977064086 0 0 1 0 0 0 1 forward_v I I I I #
coedge $-1 $391 $182 $288 $392 forward $108 $-1 #
coedge $-1 $182 $391 $393 $394 forward $108 $-1 #
edge $-1 $395 -64.112063966795859 $289 64.112063966795859 $182 $396 forward 7 unknown #
coedge $-1 $184 $183 $397 $398 reversed $69 $-1 #
coedge $-1 $185 $191 $284 $392 reversed $180 $-1 #
vertex $-1 $392 $399 #
straight-curve $-1 64.112063966795859 -29.727801229183243 -3.9702001700433094 0 0 1 I I #
coedge $-1 $397 $400 $187 $292 forward $389 $-1 #
edge $-1 $297 -22.697510925502254 $293 -12.25269717762141 $291 $401 forward 7 unknown #
vertex $-1 $292 $402 #
straight-curve $-1 0 -29.727801229183243 -6.3695506502478398 -1 0 0 I I #
coedge $-1 $403 $189 $400 $404 forward $282 $-1 #
coedge $-1 $189 $403 $191 $299 reversed $282 $-1 #
vertex $-1 $404 $405 #
straight-curve $-1 0 -40.172614977064086 -6.3695506502478398 -1 0 0 I I #
edge $-1 $193 6.3695506502478398 $406 9.5112500299253977 $191 $407 forward 7 unknown #
point $-1 64.112063966795859 -29.727801229183243 -6.3695506502478398 #
point $-1 64.112063966795859 -40.172614977064086 -6.3695506502478398 #
face $-1 $-1 $316 $26 $-1 $408 reversed single #
loop $-1 $-1 $308 $195 #
plane-surface $-1 -64.112063966795859 0 0 1 0 0 0 0 -1 forward_v I I I I #
coedge $-1 $409 $410 $198 $307 forward $196 $-1 #
coedge $-1 $199 $198 $206 $321 reversed $73 $-1 #
edge $-1 $411 -64.112063966795859 $310 64.112063966795859 $305 $412 forward 7 unknown #
coedge $-1 $413 $200 $202 $313 forward $303 $-1 #
coedge $-1 $200 $413 $409 $414 reversed $303 $-1 #
vertex $-1 $414 $415 #
vertex $-1 $313 $416 #
straight-curve $-1 -64.112063966795859 29.727801229183235 -3.9702001700433094 0 0 1 I I #
edge $-1 $311 12.252697177621407 $317 22.69751092550225 $308 $417 forward 7 unknown #
coedge $-1 $418 $203 $207 $322 forward $316 $-1 #
coedge $-1 $203 $418 $413 $419 reversed $316 $-1 #
loop $-1 $-1 $203 $302 #
vertex $-1 $419 $420 #
straight-curve $-1 0 40.172614977064086 -6.3695506502478398 1 0 0 I I #
straight-curve $-1 0 29.727801229183235 -6.3695506502478398 1 0 0 I I #
coedge $-1 $207 $206 $410 $421 reversed $116 $-1 #
edge $-1 $209 2.3993504802045305 $411 5.5410498598820883 $206 $422 forward 7 unknown #
edge $-1 $208 6.3695506502478398 $423 9.5112500299253977 $207 $424 forward 7 unknown #
point $-1 64.112063966795859 40.172614977064079 -6.3695506502478398 #
point $-1 64.112063966795859 29.727801229183235 -6.3695506502478398 #
loop $-1 $-1 $219 $211 #
plane-surface $-1 64.112063966795859 0 0 -1 0 0 0 0 1 forward_v I I I I #
coedge $-1 $328 $214 $216 $332 reversed $124 $-1 #
coedge $-1 $214 $327 $425 $426 reversed $124 $-1 #
coedge $-1 $222 $217 $214 $330 forward $212 $-1 #
edge $-1 $333 38.631201819836967 $427 49.356329888601614 $329 $428 forward 7 unknown #
coedge $-1 $216 $215 $336 $429 reversed $77 $-1 #
edge $-1 $430 -128.22412793359172 $333 -115.28728588054932 $327 $431 forward 7 unknown #
vertex $-1 $218 $432 #
straight-curve $-1 53.386935898031197 -13.329041161752798 9.5112500299253995 0 -1 0 I I #
coedge $-1 $425 $219 $222 $340 reversed $325 $-1 #
coedge $-1 $219 $425 $331 $429 forward $325 $-1 #
vertex $-1 $220 $433 #
straight-curve $-1 64.112063966795859 -23.588363417827949 90.140851064542517 0 0 1 I I #
straight-curve $-1 -42.190555169689503 -23.588363417827949 73.979082992599672 0.82903756765294845 0 -0.55919291073839883 I I #
edge $-1 $427 -29.727801229183243 $223 -23.588363417827949 $335 $434 forward 7 unknown #
point $-1 64.112063966795859 -23.588363417827949 9.5112500299253977 #
point $-1 53.386935898031211 -23.588363417827949 9.5112500299253924 #
edge $-1 $435 1 $435 0 $226 $-1 forward 7 unknown #
vertex $-1 $227 $436 #
ellipse-curve $-1 57.30110547690235 -26.658082323505596 3.7468218020777959 0.55919291073839883 0 0.82903756765294845 1.2435563514794228 0 -0.83878936610759824 1 I I #
point $-1 59.993056283892933 -26.658082323505596 5.0553654821159313 #
plane-surface $-1 0 0 9.5112500299253977 0 0 1 1 0 0 forward_v I I I I #
coedge $-1 $358 $357 $350 $437 forward $231 $-1 #
coedge $-1 $350 $233 $235 $354 reversed $139 $-1 #
coedge $-1 $233 $349 $348 $437 reversed $139 $-1 #
coedge $-1 $241 $236 $233 $352 forward $242 $-1 #
edge $-1 $355 -21.105175473431075 $438 -16.329957431595872 $351 $439 forward 7 unknown #
coedge $-1 $235 $234 $358 $440 reversed $86 $-1 #
edge $-1 $441 -2.1388861263899031e-014 $355 7.2786409457456367 $349 $442 forward 7 unknown #
vertex $-1 $237 $443 #
straight-curve $-1 -59.336845924960649 -6.8863588680845353 9.5112500299253959 0 1 0 I I #
coedge $-1 $348 $238 $241 $362 reversed $231 $-1 #
coedge $-1 $238 $348 $353 $440 forward $231 $-1 #
vertex $-1 $239 $444 #
straight-curve $-1 -64.112063966795859 -17.611331412493705 44.070292779750055 0 0 1 I I #
straight-curve $-1 -64.112063966795844 -17.611331412493705 4.0179899168398521 -0.65605901945558964 0 -0.75470958851134928 I I #
edge $-1 $438 9.9341040598444348 $243 17.611331412493705 $357 $445 forward 7 unknown #
point $-1 -64.112063966795859 -17.611331412493705 9.5112500299253977 #
point $-1 -59.336845924960656 -17.611331412493705 9.5112500299253977 #
edge $-1 $446 1 $446 0 $246 $-1 forward 7 unknown #
vertex $-1 $247 $447 #
ellipse-curve $-1 -60.158398576614921 -15.41783788316534 5.4032679756457611 -0.75470958851134928 0 0.65605901945558964 0.65605901945558964 0 0.75470958851134928 1 I I #
point $-1 -61.068395926422681 -15.41783788316534 7.5193295618939775 #
edge $-1 $448 1 $448 0 $250 $-1 forward 7 unknown #
vertex $-1 $251 $449 #
ellipse-curve $-1 -60.158398576614921 -12.127597589172794 5.4032679756457611 -0.75470958851134928 0 0.65605901945558964 0.65605901945558964 0 0.75470958851134928 1 I I #
point $-1 -61.068395926422681 -12.127597589172794 7.5193295618939775 #
plane-surface $-1 64.112063966795859 0 0 -1 0 0 0 0 1 forward_v I I I I #
coedge $-1 $259 $257 $261 $378 reversed $161 $-1 #
edge $-1 $272 -9.5112500299253977 $380 9.5112500299253977 $271 $450 forward 7 unknown #
vertex $-1 $378 $451 #
straight-curve $-1 -64.112063966795859 -40.172614977064086 0 0 0 -1 I I #
edge $-1 $376 -40.172614977064086 $380 40.172614977064086 $374 $452 forward 7 unknown #
straight-curve $-1 0 -40.172614977064086 -9.5112500299253977 -1 0 0 I I #
vertex $-1 $264 $453 #
straight-curve $-1 0 40.172614977064086 -9.5112500299253977 1 0 0 I I #
point $-1 64.112063966795859 40.172614977064086 -9.5112500299253977 #
point $-1 64.112063966795859 -40.172614977064086 -9.5112500299253977 #
straight-curve $-1 -64.112063966795859 0 9.5112500299253977 0 -1 0 I I #
point $-1 -64.112063966795859 40.172614977064086 9.5112500299253977 #
point $-1 -64.112063966795859 -40.172614977064086 9.5112500299253977 #
straight-curve $-1 64.112063966795859 -40.172614977064086 0 0 0 -1 I I #
straight-curve $-1 64.112063966795859 40.172614977064086 0 0 0 -1 I I #
loop $-1 $-1 $397 $281 #
plane-surface $-1 -64.112063966795859 0 0 1 0 0 0 0 -1 forward_v I I I I #
coedge $-1 $285 $284 $403 $454 forward $108 $-1 #
edge $-1 $289 29.727801229183243 $406 40.172614977064086 $288 $455 forward 7 unknown #
coedge $-1 $400 $397 $285 $394 reversed $389 $-1 #
edge $-1 $456 -40.172614977064086 $395 -29.727801229183243 $393 $457 forward 7 unknown #
vertex $-1 $398 $458 #
straight-curve $-1 0 -29.727801229183243 -9.5112500299253977 1 0 0 I I #
coedge $-1 $393 $291 $287 $398 forward $389 $-1 #
edge $-1 $293 2.3993504802045305 $395 5.5410498598820883 $397 $459 forward 7 unknown #
point $-1 64.112063966795859 -29.727801229183243 -9.5112500299253977 #
coedge $-1 $291 $393 $295 $404 reversed $389 $-1 #
straight-curve $-1 -64.112063966795859 -17.475104051561832 -6.3695506502478398 0 1 0 I I #
point $-1 -64.112063966795859 -29.727801229183243 -6.3695506502478398 #
coedge $-1 $296 $295 $391 $454 reversed $282 $-1 #
edge $-1 $297 6.3695506502478398 $456 9.5112500299253977 $400 $460 forward 7 unknown #
point $-1 -64.112063966795859 -40.172614977064086 -6.3695506502478398 #
vertex $-1 $299 $461 #
straight-curve $-1 64.112063966795859 -40.172614977064086 0 0 0 -1 I I #
plane-surface $-1 0 40.172614977064086 0 0 -1 0 0 0 -1 forward_v I I I I #
coedge $-1 $462 $305 $309 $414 forward $196 $-1 #
coedge $-1 $305 $462 $320 $421 forward $196 $-1 #
vertex $-1 $307 $463 #
straight-curve $-1 0 29.727801229183235 -9.5112500299253977 -1 0 0 I I #
coedge $-1 $309 $308 $315 $419 forward $303 $-1 #
edge $-1 $310 29.727801229183235 $464 40.172614977064086 $309 $465 forward 7 unknown #
point $-1 -64.112063966795859 29.727801229183235 -9.5112500299253977 #
point $-1 -64.112063966795859 29.727801229183235 -6.3695506502478398 #
straight-curve $-1 -64.112063966795859 17.475104051561829 -6.3695506502478398 0 1 0 I I #
coedge $-1 $315 $314 $462 $466 reversed $316 $-1 #
edge $-1 $317 6.3695506502478398 $464 9.5112500299253977 $315 $467 forward 7 unknown #
point $-1 -64.112063966795859 40.172614977064079 -6.3695506502478398 #
edge $-1 $423 -40.172614977064086 $411 -29.727801229183235 $320 $468 forward 7 unknown #
straight-curve $-1 64.112063966795859 29.727801229183235 -3.9702001700433094 0 0 -1 I I #
vertex $-1 $421 $469 #
straight-curve $-1 64.112063966795859 40.172614977064086 0 0 0 -1 I I #
coedge $-1 $336 $335 $328 $426 forward $325 $-1 #
edge $-1 $427 80.629601034617124 $430 87.863791398020837 $425 $470 forward 7 unknown #
vertex $-1 $340 $471 #
straight-curve $-1 14.755734078194244 -29.727801229183243 9.5112500299253924 1 0 0 I I #
edge $-1 $430 -16.398760067430445 $337 -10.259322256075151 $336 $472 forward 7 unknown #
vertex $-1 $429 $473 #
straight-curve $-1 -42.190555169689503 -29.727801229183243 73.979082992599672 -0.82903756765294845 0 0.55919291073839883 I I #
point $-1 53.386935898031211 -29.727801229183243 9.5112500299253924 #
point $-1 64.112063966795859 -23.588363417827949 2.27705966652168 #
straight-curve $-1 64.112063966795859 0 9.5112500299253977 0 1 0 I I #
vertex $-1 $343 $474 #
point $-1 58.544661828381777 -26.658082323505596 2.9080324359701981 #
edge $-1 $438 34.559042749824656 $441 40.052302862910217 $348 $475 forward 7 unknown #
vertex $-1 $362 $476 #
straight-curve $-1 -80.442021398391731 -9.9341040598444348 9.5112500299253995 -1 0 0 I I #
edge $-1 $441 3.0477451917598994 $359 10.724972544409169 $358 $477 forward 7 unknown #
vertex $-1 $440 $478 #
straight-curve $-1 -64.112063966795844 -9.9341040598444348 4.0179899168398521 0.65605901945558964 0 0.75470958851134928 I I #
point $-1 -59.336845924960656 -9.9341040598444348 9.5112500299253977 #
point $-1 -64.112063966795859 -17.611331412493705 4.0179899168398361 #
straight-curve $-1 -64.112063966795859 0 9.5112500299253977 0 -1 0 I I #
vertex $-1 $365 $479 #
point $-1 -59.502339557159331 -15.41783788316534 6.1579775641571102 #
vertex $-1 $369 $480 #
point $-1 -59.502339557159331 -12.127597589172794 6.1579775641571102 #
straight-curve $-1 -64.112063966795859 40.172614977064086 0 0 0 -1 I I #
point $-1 -64.112063966795859 -40.172614977064086 -9.5112500299253977 #
straight-curve $-1 -64.112063966795859 0 -9.5112500299253977 0 1 0 I I #
point $-1 -64.112063966795859 40.172614977064086 -9.5112500299253977 #
edge $-1 $406 -64.112063966795859 $456 64.112063966795859 $403 $481 forward 7 unknown #
straight-curve $-1 64.112063966795859 0 -9.5112500299253977 0 -1 0 I I #
vertex $-1 $394 $482 #
straight-curve $-1 -64.112063966795859 0 -9.5112500299253977 0 1 0 I I #
point $-1 -64.112063966795859 -29.727801229183243 -9.5112500299253977 #
straight-curve $-1 -64.112063966795859 -29.727801229183243 -3.9702001700433094 0 0 -1 I I #
straight-curve $-1 -64.112063966795859 -40.172614977064086 0 0 0 -1 I I #
point $-1 64.112063966795859 -40.172614977064086 -9.5112500299253977 #
coedge $-1 $410 $409 $418 $466 forward $196 $-1 #
point $-1 64.112063966795859 29.727801229183235 -9.5112500299253977 #
vertex $-1 $466 $483 #
straight-curve $-1 -64.112063966795859 0 -9.5112500299253977 0 1 0 I I #
edge $-1 $464 -64.112063966795859 $423 64.112063966795859 $418 $484 forward 7 unknown #
straight-curve $-1 -64.112063966795859 40.172614977064086 0 0 0 -1 I I #
straight-curve $-1 64.112063966795859 0 -9.5112500299253977 0 -1 0 I I #
point $-1 64.112063966795859 40.172614977064086 -9.5112500299253977 #
straight-curve $-1 64.112063966795859 -29.727801229183243 90.140851064542517 0 0 -1 I I #
point $-1 64.112063966795859 -29.727801229183243 9.5112500299253977 #
straight-curve $-1 64.112063966795859 -13.329041161752798 2.2770596665216871 0 1 0 I I #
point $-1 64.112063966795859 -29.727801229183243 2.27705966652168 #
point $-1 56.46231611079476 -26.658082323505596 2.5032654505983745 #
straight-curve $-1 -64.112063966795859 -9.9341040598444348 44.070292779750055 0 0 -1 I I #
point $-1 -64.112063966795859 -9.9341040598444348 9.5112500299253977 #
straight-curve $-1 -64.112063966795859 -6.8863588680845353 4.0179899168398485 0 -1 0 I I #
point $-1 -64.112063966795859 -9.9341040598444348 4.0179899168398361 #
point $-1 -59.403688988103575 -15.41783788316534 4.7472089561901711 #
point $-1 -59.403688988103575 -12.127597589172794 4.7472089561901711 #
straight-curve $-1 0 -40.172614977064086 -9.5112500299253977 -1 0 0 I I #
point $-1 -64.112063966795859 -40.172614977064086 -9.5112500299253977 #
point $-1 -64.112063966795859 40.172614977064086 -9.5112500299253977 #
straight-curve $-1 0 40.172614977064086 -9.5112500299253977 1 0 0 I I #
End-of-ACIS-data 