500 0 18 0           
7 Unknown 11 ACIS 5.0 NT 24 Fri Mar 26 16:06:31 1999 
-1 9.9999999999999995e-007 1e-010 
body $-1 $18 $-1 $19 #
body $-1 $20 $-1 $21 #
body $-1 $22 $-1 $23 #
body $-1 $24 $-1 $25 #
body $-1 $26 $-1 $27 #
body $-1 $28 $-1 $29 #
body $-1 $30 $-1 $31 #
body $-1 $32 $-1 $33 #
body $-1 $34 $-1 $35 #
body $-1 $36 $-1 $37 #
body $-1 $38 $-1 $39 #
body $-1 $40 $-1 $41 #
body $-1 $42 $-1 $43 #
body $-1 $44 $-1 $45 #
body $-1 $46 $-1 $47 #
body $-1 $48 $-1 $49 #
body $-1 $50 $-1 $51 #
body $-1 $52 $-1 $53 #
lump $-1 $-1 $54 $0 #
transform $-1 1 0 0 0 1 0 0 0 1 63.635975218970302 35.21681326428174 11.485149995567721 1 rotate no_reflect no_shear #
lump $-1 $-1 $55 $1 #
transform $-1 1 0 0 0 1 0 0 0 1 63.635975218970302 35.21681326428174 11.485149995567721 1 rotate no_reflect no_shear #
lump $-1 $-1 $56 $2 #
transform $-1 1 0 0 0 1 0 0 0 1 63.635975218970302 35.21681326428174 11.485149995567721 1 rotate no_reflect no_shear #
lump $-1 $-1 $57 $3 #
transform $-1 1 0 0 0 1 0 0 0 1 63.635975218970302 35.21681326428174 11.485149995567721 1 rotate no_reflect no_shear #
lump $-1 $-1 $58 $4 #
transform $-1 1 0 0 0 1 0 0 0 1 63.635975218970302 35.21681326428174 11.485149995567721 1 rotate no_reflect no_shear #
lump $-1 $-1 $59 $5 #
transform $-1 1 0 0 0 1 0 0 0 1 63.635975218970302 35.21681326428174 11.485149995567721 1 rotate no_reflect no_shear #
lump $-1 $-1 $60 $6 #
transform $-1 1 0 0 0 1 0 0 0 1 63.635975218970302 35.21681326428174 11.485149995567721 1 rotate no_reflect no_shear #
lump $-1 $-1 $61 $7 #
transform $-1 1 0 0 0 1 0 0 0 1 63.635975218970302 35.21681326428174 11.485149995567721 1 rotate no_reflect no_shear #
lump $-1 $-1 $62 $8 #
transform $-1 1 0 0 0 1 0 0 0 1 63.635975218970302 35.21681326428174 11.485149995567721 1 rotate no_reflect no_shear #
lump $-1 $-1 $63 $9 #
transform $-1 1 0 0 0 1 0 0 0 1 63.635975218970302 35.21681326428174 11.485149995567721 1 rotate no_reflect no_shear #
lump $-1 $-1 $64 $10 #
transform $-1 1 0 0 0 1 0 0 0 1 63.635975218970302 35.21681326428174 11.485149995567721 1 rotate no_reflect no_shear #
lump $-1 $-1 $65 $11 #
transform $-1 1 0 0 0 1 0 0 0 1 63.635975218970302 35.21681326428174 11.485149995567721 1 rotate no_reflect no_shear #
lump $-1 $-1 $66 $12 #
transform $-1 1 0 0 0 1 0 0 0 1 63.635975218970302 35.21681326428174 11.485149995567721 1 rotate no_reflect no_shear #
lump $-1 $-1 $67 $13 #
transform $-1 1 0 0 0 1 0 0 0 1 63.635975218970302 35.21681326428174 11.485149995567721 1 rotate no_reflect no_shear #
lump $-1 $-1 $68 $14 #
transform $-1 1 0 0 0 1 0 0 0 1 63.635975218970302 35.21681326428174 11.485149995567721 1 rotate no_reflect no_shear #
lump $-1 $-1 $69 $15 #
transform $-1 1 0 0 0 1 0 0 0 1 63.635975218970302 35.21681326428174 11.485149995567721 1 rotate no_reflect no_shear #
lump $-1 $-1 $70 $16 #
transform $-1 1 0 0 0 1 0 0 0 1 63.635975218970302 35.21681326428174 11.485149995567721 1 rotate no_reflect no_shear #
lump $-1 $-1 $71 $17 #
transform $-1 1 0 0 0 1 0 0 0 1 63.635975218970302 35.21681326428174 11.485149995567721 1 rotate no_reflect no_shear #
shell $-1 $-1 $-1 $72 $-1 $18 #
shell $-1 $-1 $-1 $73 $-1 $20 #
shell $-1 $-1 $-1 $74 $-1 $22 #
shell $-1 $-1 $-1 $75 $-1 $24 #
shell $-1 $-1 $-1 $76 $-1 $26 #
shell $-1 $-1 $-1 $77 $-1 $28 #
shell $-1 $-1 $-1 $78 $-1 $30 #
shell $-1 $-1 $-1 $79 $-1 $32 #
shell $-1 $-1 $-1 $80 $-1 $34 #
shell $-1 $-1 $-1 $81 $-1 $36 #
shell $-1 $-1 $-1 $82 $-1 $38 #
shell $-1 $-1 $-1 $83 $-1 $40 #
shell $-1 $-1 $-1 $84 $-1 $42 #
shell $-1 $-1 $-1 $85 $-1 $44 #
shell $-1 $-1 $-1 $86 $-1 $46 #
shell $-1 $-1 $-1 $87 $-1 $48 #
shell $-1 $-1 $-1 $88 $-1 $50 #
shell $-1 $-1 $-1 $89 $-1 $52 #
face $-1 $90 $91 $54 $-1 $92 forward single #
face $-1 $93 $94 $55 $-1 $95 reversed single #
face $-1 $96 $97 $56 $-1 $98 reversed single #
face $-1 $99 $100 $57 $-1 $101 forward single #
face $-1 $102 $103 $58 $-1 $104 forward single #
face $-1 $105 $106 $59 $-1 $107 forward single #
face $-1 $108 $109 $60 $-1 $110 reversed single #
face $-1 $111 $112 $61 $-1 $113 forward single #
face $-1 $114 $115 $62 $-1 $116 forward single #
face $-1 $117 $118 $63 $-1 $119 forward single #
face $-1 $120 $121 $64 $-1 $122 reversed single #
face $-1 $123 $124 $65 $-1 $125 forward single #
face $-1 $126 $127 $66 $-1 $128 forward single #
face $-1 $129 $130 $67 $-1 $131 forward single #
face $-1 $132 $133 $68 $-1 $134 reversed single #
face $-1 $135 $136 $69 $-1 $137 forward single #
face $-1 $138 $139 $70 $-1 $140 forward single #
face $-1 $141 $142 $71 $-1 $143 forward single #
face $-1 $144 $145 $54 $-1 $146 reversed single #
loop $-1 $-1 $147 $72 #
plane-surface $-1 0 0 11.485149995567721 0 0 1 1 0 0 forward_v I I I I #
face $-1 $148 $149 $55 $-1 $150 reversed single #
loop $-1 $-1 $151 $73 #
plane-surface $-1 -56.260624581889189 -32.196527548991149 0 0 1 0 0 0 1 forward_v I I I I #
face $-1 $152 $153 $56 $-1 $154 reversed single #
loop $-1 $-1 $155 $74 #
plane-surface $-1 -48.88527394480807 110.22074419653612 125.65796540762241 1 0 0 0 -0.86602541151947299 -0.49999998660252726 forward_v I I I I #
face $-1 $156 $157 $57 $-1 $158 forward single #
loop $-1 $159 $160 $75 #
cone-surface $-1 -45.597134300904365 31.427315297403332 5.8104594442226212 0 -0.86602541151947299 -0.49999998660252726 1.5 0 0 1 I I 0 1 1.5 forward I I I I #
face $-1 $161 $162 $58 $-1 $163 forward single #
loop $-1 $164 $165 $76 #
cone-surface $-1 -40.664924835048808 31.427315297403332 5.8104594442226212 0 -0.86602541151947299 -0.49999998660252726 1.5 0 0 1 I I 0 1 1.5 forward I I I I #
face $-1 $166 $167 $59 $-1 $168 forward single #
loop $-1 $169 $170 $77 #
cone-surface $-1 -35.732715369193251 31.427315297403332 5.8104594442226212 0 -0.86602541151947299 -0.49999998660252726 1.5 0 0 1 I I 0 1 1.5 forward I I I I #
face $-1 $171 $172 $60 $-1 $173 reversed single #
loop $-1 $-1 $174 $78 #
plane-surface $-1 47.195276999451785 110.22074419653612 125.65796540762241 1 0 0 0 -0.86602541151947299 -0.49999998660252726 forward_v I I I I #
face $-1 $175 $176 $61 $-1 $177 forward single #
loop $-1 $178 $179 $79 #
cone-surface $-1 50.483416643355483 31.427315297403332 5.8104594442226212 0 -0.86602541151947299 -0.49999998660252726 1.5 0 0 1 I I 0 1 1.5 forward I I I I #
face $-1 $180 $181 $62 $-1 $182 forward single #
loop $-1 $183 $184 $80 #
cone-surface $-1 55.415626109211047 31.427315297403332 5.8104594442226212 0 -0.86602541151947299 -0.49999998660252726 1.5 0 0 1 I I 0 1 1.5 forward I I I I #
face $-1 $185 $186 $63 $-1 $187 forward single #
loop $-1 $188 $189 $81 #
cone-surface $-1 60.347835575066611 31.427315297403332 5.8104594442226212 0 -0.86602541151947299 -0.49999998660252726 1.5 0 0 1 I I 0 1 1.5 forward I I I I #
face $-1 $190 $191 $64 $-1 $192 reversed single #
loop $-1 $-1 $193 $82 #
plane-surface $-1 7.3753506370811301 -110.02538971792877 108.77402917354893 -1 0 0 0 -0.5877852598018023 0.80901698891910034 forward_v I I I I #
face $-1 $194 $195 $65 $-1 $196 forward single #
loop $-1 $197 $198 $83 #
cone-surface $-1 -7.4980444014675243 -29.767457833423315 6.523270118833155 0 0.5877852598018023 -0.80901698891910034 1.5 0 0 1 I I 0 1 1.5 forward I I I I #
face $-1 $199 $200 $66 $-1 $201 forward single #
loop $-1 $202 $203 $84 #
cone-surface $-1 -1.920521262011782 -29.767457833423315 6.523270118833155 0 0.5877852598018023 -0.80901698891910034 1.5 0 0 1 I I 0 1 1.5 forward I I I I #
face $-1 $204 $205 $67 $-1 $206 forward single #
loop $-1 $207 $208 $85 #
cone-surface $-1 3.6570018774439603 -29.767457833423315 6.523270118833155 0 0.5877852598018023 -0.80901698891910034 1.5 0 0 1 I I 0 1 1.5 forward I I I I #
face $-1 $209 $210 $68 $-1 $211 reversed single #
loop $-1 $-1 $212 $86 #
plane-surface $-1 54.340103319877414 -35.216813264281754 5.8088590563852449 0 -0.5877852598018023 0.80901698891910034 1 0 0 forward_v I I I I #
face $-1 $213 $214 $69 $-1 $215 forward single #
loop $-1 $216 $217 $87 #
cone-surface $-1 48.762580180421665 -29.767457833423315 6.523270118833155 0 0.5877852598018023 -0.80901698891910034 1.5 0 0 1 I I 0 1 1.5 forward I I I I #
face $-1 $218 $219 $70 $-1 $220 forward single #
loop $-1 $221 $222 $88 #
cone-surface $-1 54.3401033198774 -29.767457833423315 6.523270118833155 0 0.5877852598018023 -0.80901698891910034 1.5 0 0 1 I I 0 1 1.5 forward I I I I #
face $-1 $223 $224 $71 $-1 $225 forward single #
loop $-1 $226 $227 $89 #
cone-surface $-1 59.91762645933315 -29.767457833423315 6.523270118833155 0 0.5877852598018023 -0.80901698891910034 1.5 0 0 1 I I 0 1 1.5 forward I I I I #
face $-1 $228 $229 $54 $-1 $230 reversed single #
loop $-1 $-1 $231 $90 #
plane-surface $-1 0 0 -11.485149995567721 0 0 1 1 0 0 forward_v I I I I #
coedge $-1 $232 $233 $234 $235 forward $91 $-1 #
face $-1 $236 $237 $55 $-1 $238 reversed single #
loop $-1 $-1 $239 $93 #
plane-surface $-1 -56.260624581889189 -26.491702441478676 0 0 -1 0 0 0 -1 forward_v I I I I #
coedge $-1 $240 $241 $242 $243 reversed $94 $-1 #
face $-1 $244 $245 $56 $-1 $246 reversed single #
loop $-1 $-1 $247 $96 #
plane-surface $-1 -40.664924835048808 9.4363262803653924e-007 62.02199189377459 0 0.86602541151947299 0.49999998660252726 1 0 0 forward_v I I I I #
coedge $-1 $248 $249 $250 $251 reversed $97 $-1 #
face $-1 $-1 $252 $57 $-1 $253 forward single #
loop $-1 $254 $255 $99 #
cone-surface $-1 -45.597134300904365 30.007975316453852 4.9910031534262238 0 -0.86602541151947299 -0.49999998660252726 0.75 0 0 1 I I -0.70710678118654757 0.70710678118654757 0.75 forward I I I I #
loop $-1 $-1 $256 $75 #
coedge $-1 $160 $160 $257 $258 reversed $100 $-1 #
face $-1 $-1 $259 $58 $-1 $260 forward single #
loop $-1 $261 $262 $102 #
cone-surface $-1 -40.664924835048808 30.007975316453852 4.9910031534262238 0 -0.86602541151947299 -0.49999998660252726 0.75 0 0 1 I I -0.70710678118654757 0.70710678118654757 0.75 forward I I I I #
loop $-1 $-1 $263 $76 #
coedge $-1 $165 $165 $264 $265 reversed $103 $-1 #
face $-1 $-1 $266 $59 $-1 $267 forward single #
loop $-1 $268 $269 $105 #
cone-surface $-1 -35.732715369193251 30.007975316453852 4.9910031534262238 0 -0.86602541151947299 -0.49999998660252726 0.75 0 0 1 I I -0.70710678118654757 0.70710678118654757 0.75 forward I I I I #
loop $-1 $-1 $270 $77 #
coedge $-1 $170 $170 $271 $272 reversed $106 $-1 #
face $-1 $273 $274 $60 $-1 $275 forward single #
loop $-1 $-1 $276 $108 #
plane-surface $-1 55.415626109211047 9.4363262803653924e-007 62.02199189377459 0 0.86602541151947299 0.49999998660252726 1 0 0 forward_v I I I I #
coedge $-1 $277 $278 $279 $280 reversed $109 $-1 #
face $-1 $-1 $281 $61 $-1 $282 forward single #
loop $-1 $283 $284 $111 #
cone-surface $-1 50.483416643355483 30.007975316453852 4.9910031534262238 0 -0.86602541151947299 -0.49999998660252726 0.75 0 0 1 I I -0.70710678118654757 0.70710678118654757 0.75 forward I I I I #
loop $-1 $-1 $285 $79 #
coedge $-1 $179 $179 $286 $287 reversed $112 $-1 #
face $-1 $-1 $288 $62 $-1 $289 forward single #
loop $-1 $290 $291 $114 #
cone-surface $-1 55.415626109211047 30.007975316453852 4.9910031534262238 0 -0.86602541151947299 -0.49999998660252726 0.75 0 0 1 I I -0.70710678118654757 0.70710678118654757 0.75 forward I I I I #
loop $-1 $-1 $292 $80 #
coedge $-1 $184 $184 $293 $294 reversed $115 $-1 #
face $-1 $-1 $295 $63 $-1 $296 forward single #
loop $-1 $297 $298 $117 #
cone-surface $-1 60.347835575066611 30.007975316453852 4.9910031534262238 0 -0.86602541151947299 -0.49999998660252726 0.75 0 0 1 I I -0.70710678118654757 0.70710678118654757 0.75 forward I I I I #
loop $-1 $-1 $299 $81 #
coedge $-1 $189 $189 $300 $301 reversed $118 $-1 #
face $-1 $302 $303 $64 $-1 $304 reversed single #
loop $-1 $-1 $305 $120 #
plane-surface $-1 -1.9205212620117749 -35.216813264281754 5.8088590563852449 0 -0.5877852598018023 0.80901698891910034 1 0 0 forward_v I I I I #
coedge $-1 $306 $307 $308 $309 reversed $121 $-1 #
face $-1 $-1 $310 $65 $-1 $311 forward single #
loop $-1 $312 $313 $123 #
cone-surface $-1 -7.4980444014675243 -27.783635493475927 3.7927729700005042 0 0.5877852598018023 -0.80901698891910034 0.75 0 0 1 I I -0.70710678118654757 0.70710678118654757 0.75 forward I I I I #
loop $-1 $-1 $314 $83 #
coedge $-1 $198 $198 $315 $316 reversed $124 $-1 #
face $-1 $-1 $317 $66 $-1 $318 forward single #
loop $-1 $319 $320 $126 #
cone-surface $-1 -1.920521262011782 -27.783635493475927 3.7927729700005042 0 0.5877852598018023 -0.80901698891910034 0.75 0 0 1 I I -0.70710678118654757 0.70710678118654757 0.75 forward I I I I #
loop $-1 $-1 $321 $84 #
coedge $-1 $203 $203 $322 $323 reversed $127 $-1 #
face $-1 $-1 $324 $67 $-1 $325 forward single #
loop $-1 $326 $327 $129 #
cone-surface $-1 3.6570018774439603 -27.783635493475927 3.7927729700005042 0 0.5877852598018023 -0.80901698891910034 0.75 0 0 1 I I -0.70710678118654757 0.70710678118654757 0.75 forward I I I I #
loop $-1 $-1 $328 $85 #
coedge $-1 $208 $208 $329 $330 reversed $130 $-1 #
face $-1 $331 $332 $68 $-1 $333 reversed single #
loop $-1 $-1 $334 $132 #
plane-surface $-1 45.044231420784513 -110.02538971792877 108.77402917354893 1 0 0 0 0.5877852598018023 -0.80901698891910034 forward_v I I I I #
coedge $-1 $335 $336 $337 $338 reversed $133 $-1 #
face $-1 $-1 $339 $69 $-1 $340 forward single #
loop $-1 $341 $342 $135 #
cone-surface $-1 48.762580180421665 -27.783635493475927 3.7927729700005042 0 0.5877852598018023 -0.80901698891910034 0.75 0 0 1 I I -0.70710678118654757 0.70710678118654757 0.75 forward I I I I #
loop $-1 $-1 $343 $87 #
coedge $-1 $217 $217 $344 $345 reversed $136 $-1 #
face $-1 $-1 $346 $70 $-1 $347 forward single #
loop $-1 $348 $349 $138 #
cone-surface $-1 54.3401033198774 -27.783635493475927 3.7927729700005042 0 0.5877852598018023 -0.80901698891910034 0.75 0 0 1 I I -0.70710678118654757 0.70710678118654757 0.75 forward I I I I #
loop $-1 $-1 $350 $88 #
coedge $-1 $222 $222 $351 $352 reversed $139 $-1 #
face $-1 $-1 $353 $71 $-1 $354 forward single #
loop $-1 $355 $356 $141 #
cone-surface $-1 59.91762645933315 -27.783635493475927 3.7927729700005042 0 0.5877852598018023 -0.80901698891910034 0.75 0 0 1 I I -0.70710678118654757 0.70710678118654757 0.75 forward I I I I #
loop $-1 $-1 $357 $89 #
coedge $-1 $227 $227 $358 $359 reversed $142 $-1 #
face $-1 $360 $361 $54 $-1 $362 reversed single #
loop $-1 $-1 $363 $144 #
plane-surface $-1 0 -35.21681326428174 0 0 1 0 0 0 1 forward_v I I I I #
coedge $-1 $364 $365 $366 $367 forward $145 $-1 #
coedge $-1 $368 $147 $369 $370 forward $91 $-1 #
coedge $-1 $147 $368 $371 $372 forward $91 $-1 #
coedge $-1 $373 $374 $147 $235 reversed $375 $-1 #
edge $-1 $376 -35.21681326428174 $377 35.21681326428174 $234 $378 forward 7 unknown #
face $-1 $379 $380 $55 $-1 $381 reversed single #
loop $-1 $-1 $382 $148 #
plane-surface $-1 -48.885273944808077 -29.344114995234911 0 -1 0 0 0 0 1 forward_v I I I I #
coedge $-1 $383 $384 $385 $386 forward $149 $-1 #
coedge $-1 $387 $151 $388 $389 reversed $94 $-1 #
coedge $-1 $151 $387 $390 $391 reversed $94 $-1 #
coedge $-1 $392 $393 $151 $243 forward $394 $-1 #
edge $-1 $395 -11.485149995567721 $396 11.485149995567721 $242 $397 forward 7 unknown #
face $-1 $398 $399 $56 $-1 $400 reversed single #
loop $-1 $-1 $401 $152 #
plane-surface $-1 -32.444575725289546 110.22074419653612 125.65796540762241 -1 0 0 0 0.86602541151947299 0.49999998660252726 forward_v I I I I #
coedge $-1 $402 $403 $404 $405 reversed $153 $-1 #
coedge $-1 $249 $155 $406 $407 reversed $97 $-1 #
coedge $-1 $155 $248 $402 $408 reversed $97 $-1 #
coedge $-1 $404 $409 $155 $251 forward $410 $-1 #
edge $-1 $411 19.893558833986319 $412 25.932912923123361 $250 $413 forward 7 unknown #
loop $-1 $-1 $257 $156 #
plane-surface $-1 -40.664924835048808 9.4363262803653924e-007 62.02199189377459 0 0.86602541151947299 0.49999998660252726 1 0 0 forward_v I I I I #
loop $-1 $-1 $414 $99 #
coedge $-1 $255 $255 $256 $415 reversed $157 $-1 #
coedge $-1 $256 $256 $255 $415 forward $159 $-1 #
coedge $-1 $257 $257 $160 $258 forward $252 $-1 #
edge $-1 $416 -4.3915646154099e-016 $416 6.2831853071796004 $257 $417 forward 7 unknown #
loop $-1 $-1 $264 $161 #
plane-surface $-1 -40.664924835048808 9.4363262803653924e-007 62.02199189377459 0 0.86602541151947299 0.49999998660252726 1 0 0 forward_v I I I I #
loop $-1 $-1 $418 $102 #
coedge $-1 $262 $262 $263 $419 reversed $162 $-1 #
coedge $-1 $263 $263 $262 $419 forward $164 $-1 #
coedge $-1 $264 $264 $165 $265 forward $259 $-1 #
edge $-1 $420 -4.3915646154099e-016 $420 6.2831853071796004 $264 $421 forward 7 unknown #
loop $-1 $-1 $271 $166 #
plane-surface $-1 -40.664924835048808 9.4363262803653924e-007 62.02199189377459 0 0.86602541151947299 0.49999998660252726 1 0 0 forward_v I I I I #
loop $-1 $-1 $422 $105 #
coedge $-1 $269 $269 $270 $423 reversed $167 $-1 #
coedge $-1 $270 $270 $269 $423 forward $169 $-1 #
coedge $-1 $271 $271 $170 $272 forward $266 $-1 #
edge $-1 $424 -4.3915646154099e-016 $424 6.2831853071796004 $271 $425 forward 7 unknown #
face $-1 $426 $427 $60 $-1 $428 reversed single #
loop $-1 $-1 $279 $171 #
plane-surface $-1 0 0 11.485149995567721 0 0 1 1 0 0 forward_v I I I I #
coedge $-1 $429 $430 $431 $432 reversed $172 $-1 #
coedge $-1 $278 $174 $433 $434 reversed $109 $-1 #
coedge $-1 $174 $277 $429 $435 reversed $109 $-1 #
coedge $-1 $431 $436 $174 $280 forward $274 $-1 #
edge $-1 $437 19.893558833986319 $438 25.932912923123361 $279 $439 forward 7 unknown #
loop $-1 $-1 $286 $175 #
plane-surface $-1 55.415626109211047 9.4363262803653924e-007 62.02199189377459 0 0.86602541151947299 0.49999998660252726 1 0 0 forward_v I I I I #
loop $-1 $-1 $440 $111 #
coedge $-1 $284 $284 $285 $441 reversed $176 $-1 #
coedge $-1 $285 $285 $284 $441 forward $178 $-1 #
coedge $-1 $286 $286 $179 $287 forward $281 $-1 #
edge $-1 $442 -4.3915646154099e-016 $442 6.2831853071796004 $286 $443 forward 7 unknown #
loop $-1 $-1 $293 $180 #
plane-surface $-1 55.415626109211047 9.4363262803653924e-007 62.02199189377459 0 0.86602541151947299 0.49999998660252726 1 0 0 forward_v I I I I #
loop $-1 $-1 $444 $114 #
coedge $-1 $291 $291 $292 $445 reversed $181 $-1 #
coedge $-1 $292 $292 $291 $445 forward $183 $-1 #
coedge $-1 $293 $293 $184 $294 forward $288 $-1 #
edge $-1 $446 -4.3915646154099e-016 $446 6.2831853071796004 $293 $447 forward 7 unknown #
loop $-1 $-1 $300 $185 #
plane-surface $-1 55.415626109211047 9.4363262803653924e-007 62.02199189377459 0 0.86602541151947299 0.49999998660252726 1 0 0 forward_v I I I I #
loop $-1 $-1 $448 $117 #
coedge $-1 $298 $298 $299 $449 reversed $186 $-1 #
coedge $-1 $299 $299 $298 $449 forward $188 $-1 #
coedge $-1 $300 $300 $189 $301 forward $295 $-1 #
edge $-1 $450 -4.3915646154099e-016 $450 6.2831853071796004 $300 $451 forward 7 unknown #
face $-1 $452 $453 $64 $-1 $454 reversed single #
loop $-1 $-1 $455 $190 #
plane-surface $-1 -11.21639316110468 -110.02538971792877 108.77402917354893 1 0 0 0 0.5877852598018023 -0.80901698891910034 forward_v I I I I #
coedge $-1 $456 $457 $458 $459 reversed $191 $-1 #
coedge $-1 $307 $193 $460 $461 reversed $121 $-1 #
coedge $-1 $193 $306 $456 $462 reversed $121 $-1 #
coedge $-1 $458 $463 $193 $309 forward $464 $-1 #
edge $-1 $465 19.795881594682648 $466 27.608625666207406 $308 $467 forward 7 unknown #
loop $-1 $-1 $315 $194 #
plane-surface $-1 -1.9205212620117749 -35.216813264281754 5.8088590563852449 0 -0.5877852598018023 0.80901698891910034 1 0 0 forward_v I I I I #
loop $-1 $-1 $468 $123 #
coedge $-1 $313 $313 $314 $469 reversed $195 $-1 #
coedge $-1 $314 $314 $313 $469 forward $197 $-1 #
coedge $-1 $315 $315 $198 $316 forward $310 $-1 #
edge $-1 $470 3.5188640939455945e-016 $470 6.2831853071796004 $315 $471 forward 7 unknown #
loop $-1 $-1 $322 $199 #
plane-surface $-1 -1.9205212620117749 -35.216813264281754 5.8088590563852449 0 -0.5877852598018023 0.80901698891910034 1 0 0 forward_v I I I I #
loop $-1 $-1 $472 $126 #
coedge $-1 $320 $320 $321 $473 reversed $200 $-1 #
coedge $-1 $321 $321 $320 $473 forward $202 $-1 #
coedge $-1 $322 $322 $203 $323 forward $317 $-1 #
edge $-1 $474 3.5188640939455945e-016 $474 6.2831853071796004 $322 $475 forward 7 unknown #
loop $-1 $-1 $329 $204 #
plane-surface $-1 -1.9205212620117749 -35.216813264281754 5.8088590563852449 0 -0.5877852598018023 0.80901698891910034 1 0 0 forward_v I I I I #
loop $-1 $-1 $476 $129 #
coedge $-1 $327 $327 $328 $477 reversed $205 $-1 #
coedge $-1 $328 $328 $327 $477 forward $207 $-1 #
coedge $-1 $329 $329 $208 $330 forward $324 $-1 #
edge $-1 $478 3.5188640939455945e-016 $478 6.2831853071796004 $329 $479 forward 7 unknown #
face $-1 $480 $481 $68 $-1 $482 forward single #
loop $-1 $-1 $483 $209 #
plane-surface $-1 0 -35.21681326428174 0 0 1 0 0 0 1 forward_v I I I I #
coedge $-1 $484 $485 $486 $487 reversed $210 $-1 #
coedge $-1 $488 $212 $489 $490 reversed $133 $-1 #
coedge $-1 $212 $488 $484 $491 forward $133 $-1 #
coedge $-1 $486 $492 $212 $338 forward $481 $-1 #
edge $-1 $493 -36.465923559031609 $494 -17.874179760845806 $337 $495 forward 7 unknown #
loop $-1 $-1 $344 $213 #
plane-surface $-1 54.340103319877414 -35.216813264281754 5.8088590563852449 0 -0.5877852598018023 0.80901698891910034 1 0 0 forward_v I I I I #
loop $-1 $-1 $496 $135 #
coedge $-1 $342 $342 $343 $497 reversed $214 $-1 #
coedge $-1 $343 $343 $342 $497 forward $216 $-1 #
coedge $-1 $344 $344 $217 $345 forward $339 $-1 #
edge $-1 $498 3.5188640939455945e-016 $498 6.2831853071796004 $344 $499 forward 7 unknown #
loop $-1 $-1 $351 $218 #
plane-surface $-1 54.340103319877414 -35.216813264281754 5.8088590563852449 0 -0.5877852598018023 0.80901698891910034 1 0 0 forward_v I I I I #
loop $-1 $-1 $500 $138 #
coedge $-1 $349 $349 $350 $501 reversed $219 $-1 #
coedge $-1 $350 $350 $349 $501 forward $221 $-1 #
coedge $-1 $351 $351 $222 $352 forward $346 $-1 #
edge $-1 $502 3.5188640939455945e-016 $502 6.2831853071796004 $351 $503 forward 7 unknown #
loop $-1 $-1 $358 $223 #
plane-surface $-1 54.340103319877414 -35.216813264281754 5.8088590563852449 0 -0.5877852598018023 0.80901698891910034 1 0 0 forward_v I I I I #
loop $-1 $-1 $504 $141 #
coedge $-1 $356 $356 $357 $505 reversed $224 $-1 #
coedge $-1 $357 $357 $356 $505 forward $226 $-1 #
coedge $-1 $358 $358 $227 $359 forward $353 $-1 #
edge $-1 $506 3.5188640939455945e-016 $506 6.2831853071796004 $358 $507 forward 7 unknown #
face $-1 $508 $509 $54 $-1 $510 reversed single #
loop $-1 $-1 $511 $228 #
plane-surface $-1 -63.635975218970302 0 0 1 0 0 0 0 -1 forward_v I I I I #
coedge $-1 $512 $371 $513 $514 forward $229 $-1 #
coedge $-1 $515 $231 $512 $516 forward $145 $-1 #
coedge $-1 $231 $515 $517 $518 forward $145 $-1 #
coedge $-1 $374 $373 $231 $367 reversed $375 $-1 #
edge $-1 $519 -35.21681326428174 $520 35.21681326428174 $366 $521 forward 7 unknown #
coedge $-1 $233 $232 $522 $523 forward $91 $-1 #
coedge $-1 $524 $525 $232 $370 reversed $509 $-1 #
edge $-1 $377 -63.635975218970302 $526 63.635975218970302 $369 $527 forward 7 unknown #
coedge $-1 $363 $528 $233 $372 reversed $229 $-1 #
edge $-1 $529 -63.635975218970302 $376 63.635975218970302 $371 $530 forward 7 unknown #
coedge $-1 $366 $234 $528 $531 forward $375 $-1 #
coedge $-1 $234 $366 $524 $532 reversed $375 $-1 #
loop $-1 $-1 $373 $508 #
vertex $-1 $235 $533 #
vertex $-1 $235 $534 #
straight-curve $-1 63.635975218970302 0 11.485149995567721 0 1 0 I I #
face $-1 $535 $536 $55 $-1 $537 forward single #
loop $-1 $-1 $538 $236 #
plane-surface $-1 0 0 -11.485149995567721 0 0 1 1 0 0 forward_v I I I I #
coedge $-1 $539 $540 $387 $541 forward $237 $-1 #
coedge $-1 $542 $239 $538 $543 reversed $149 $-1 #
coedge $-1 $239 $542 $544 $545 reversed $149 $-1 #
coedge $-1 $540 $539 $239 $386 reversed $237 $-1 #
edge $-1 $546 -11.485149995567721 $547 11.485149995567721 $385 $548 forward 7 unknown #
coedge $-1 $241 $240 $382 $541 reversed $94 $-1 #
coedge $-1 $549 $550 $240 $389 forward $380 $-1 #
edge $-1 $551 20.754961653863482 $395 35.505662928025707 $388 $552 forward 7 unknown #
coedge $-1 $553 $554 $241 $391 forward $536 $-1 #
edge $-1 $396 -35.505662928025707 $555 -20.754961653863482 $390 $556 forward 7 unknown #
coedge $-1 $557 $242 $554 $558 reversed $394 $-1 #
coedge $-1 $242 $557 $549 $559 reversed $394 $-1 #
loop $-1 $-1 $557 $535 #
vertex $-1 $559 $560 #
vertex $-1 $243 $561 #
straight-curve $-1 -63.635975218970302 -32.196527548991149 0 0 0 1 I I #
face $-1 $-1 $410 $56 $-1 $562 forward single #
loop $-1 $-1 $563 $244 #
plane-surface $-1 0 35.21681326428174 0 0 -1 0 0 0 -1 forward_v I I I I #
coedge $-1 $564 $565 $566 $567 reversed $245 $-1 #
coedge $-1 $568 $247 $249 $408 forward $153 $-1 #
coedge $-1 $247 $568 $564 $569 forward $153 $-1 #
coedge $-1 $566 $250 $247 $405 forward $410 $-1 #
edge $-1 $412 -28.552811527283666 $570 -12.112113307765142 $404 $571 forward 7 unknown #
coedge $-1 $572 $573 $248 $407 forward $399 $-1 #
edge $-1 $574 -61.804301209244613 $411 -51.343832708243482 $406 $575 forward 7 unknown #
edge $-1 $412 58.354918026640988 $574 70.433626528563408 $249 $576 forward 7 unknown #
coedge $-1 $250 $566 $572 $577 forward $410 $-1 #
loop $-1 $-1 $566 $398 #
vertex $-1 $407 $578 #
vertex $-1 $251 $579 #
straight-curve $-1 -48.88527394480807 55.110372098268058 11.485149995567724 0 -1 0 I I #
coedge $-1 $414 $414 $-1 $580 reversed $254 $-1 #
edge $-1 $581 0 $581 6.2831853071796004 $255 $582 forward 7 unknown #
vertex $-1 $258 $583 #
ellipse-curve $-1 -45.597134300904365 32.197136219713229 6.2549157450671355 0 0.86602541151947299 0.49999998660252726 1.5 0 0 1 I I #
coedge $-1 $418 $418 $-1 $584 reversed $261 $-1 #
edge $-1 $585 0 $585 6.2831853071796004 $262 $586 forward 7 unknown #
vertex $-1 $265 $587 #
ellipse-curve $-1 -40.664924835048808 32.197136219713229 6.2549157450671355 0 0.86602541151947299 0.49999998660252726 1.5 0 0 1 I I #
coedge $-1 $422 $422 $-1 $588 reversed $268 $-1 #
edge $-1 $589 0 $589 6.2831853071796004 $269 $590 forward 7 unknown #
vertex $-1 $272 $591 #
ellipse-curve $-1 -35.732715369193251 32.197136219713229 6.2549157450671355 0 0.86602541151947299 0.49999998660252726 1.5 0 0 1 I I #
face $-1 $-1 $592 $60 $-1 $593 reversed single #
loop $-1 $-1 $594 $273 #
plane-surface $-1 63.635975218970302 0 0 -1 0 0 0 0 1 forward_v I I I I #
coedge $-1 $595 $276 $278 $435 forward $172 $-1 #
coedge $-1 $276 $595 $594 $596 reversed $172 $-1 #
coedge $-1 $597 $279 $276 $432 forward $274 $-1 #
edge $-1 $438 19.487463944846262 $598 35.928162164364785 $431 $599 forward 7 unknown #
coedge $-1 $600 $601 $277 $434 forward $592 $-1 #
edge $-1 $602 -61.804301209244613 $437 -51.343832708243482 $433 $603 forward 7 unknown #
edge $-1 $438 58.354918026640988 $602 70.433626528563408 $278 $604 forward 7 unknown #
coedge $-1 $279 $597 $600 $605 forward $274 $-1 #
vertex $-1 $434 $606 #
vertex $-1 $280 $607 #
straight-curve $-1 47.195276999451785 55.110372098268058 11.485149995567724 0 -1 0 I I #
coedge $-1 $440 $440 $-1 $608 reversed $283 $-1 #
edge $-1 $609 0 $609 6.2831853071796004 $284 $610 forward 7 unknown #
vertex $-1 $287 $611 #
ellipse-curve $-1 50.483416643355483 32.197136219713229 6.2549157450671355 0 0.86602541151947299 0.49999998660252726 1.5 0 0 1 I I #
coedge $-1 $444 $444 $-1 $612 reversed $290 $-1 #
edge $-1 $613 0 $613 6.2831853071796004 $291 $614 forward 7 unknown #
vertex $-1 $294 $615 #
ellipse-curve $-1 55.415626109211047 32.197136219713229 6.2549157450671355 0 0.86602541151947299 0.49999998660252726 1.5 0 0 1 I I #
coedge $-1 $448 $448 $-1 $616 reversed $297 $-1 #
edge $-1 $617 0 $617 6.2831853071796004 $298 $618 forward 7 unknown #
vertex $-1 $301 $619 #
ellipse-curve $-1 60.347835575066611 32.197136219713229 6.2549157450671355 0 0.86602541151947299 0.49999998660252726 1.5 0 0 1 I I #
face $-1 $-1 $464 $64 $-1 $620 forward single #
loop $-1 $-1 $621 $302 #
plane-surface $-1 0 -35.21681326428174 0 0 1 0 0 0 1 forward_v I I I I #
coedge $-1 $622 $623 $624 $625 reversed $303 $-1 #
coedge $-1 $626 $305 $307 $462 forward $191 $-1 #
coedge $-1 $305 $626 $622 $627 forward $191 $-1 #
coedge $-1 $624 $308 $305 $459 forward $464 $-1 #
edge $-1 $466 -8.3356112680870176 $628 10.256132530098792 $458 $629 forward 7 unknown #
coedge $-1 $630 $631 $306 $461 forward $453 $-1 #
edge $-1 $632 -48.578155530389211 $465 -42.901864591206746 $460 $633 forward 7 unknown #
edge $-1 $466 -9.6570828283385115 $632 -1.7761521089745031e-014 $307 $634 forward 7 unknown #
coedge $-1 $308 $624 $630 $635 forward $464 $-1 #
loop $-1 $-1 $624 $452 #
vertex $-1 $461 $636 #
vertex $-1 $309 $637 #
straight-curve $-1 7.3753506370811301 -55.012694858964387 11.485149995567717 0 1 0 I I #
coedge $-1 $468 $468 $-1 $638 reversed $312 $-1 #
edge $-1 $639 0 $639 6.2831853071796004 $313 $640 forward 7 unknown #
vertex $-1 $316 $641 #
ellipse-curve $-1 -7.4980444014675243 -31.310441228519359 8.6470045259764898 0 -0.5877852598018023 0.80901698891910034 1.5 0 0 1 I I #
coedge $-1 $472 $472 $-1 $642 reversed $319 $-1 #
edge $-1 $643 0 $643 6.2831853071796004 $320 $644 forward 7 unknown #
vertex $-1 $323 $645 #
ellipse-curve $-1 -1.920521262011782 -31.310441228519359 8.6470045259764898 0 -0.5877852598018023 0.80901698891910034 1.5 0 0 1 I I #
coedge $-1 $476 $476 $-1 $646 reversed $326 $-1 #
edge $-1 $647 0 $647 6.2831853071796004 $327 $648 forward 7 unknown #
vertex $-1 $330 $649 #
ellipse-curve $-1 3.6570018774439603 -31.310441228519359 8.6470045259764898 0 -0.5877852598018023 0.80901698891910034 1.5 0 0 1 I I #
face $-1 $-1 $650 $68 $-1 $651 reversed single #
loop $-1 $-1 $486 $331 #
plane-surface $-1 0 0 11.485149995567721 0 0 1 1 0 0 forward_v I I I I #
coedge $-1 $652 $653 $485 $654 forward $332 $-1 #
coedge $-1 $485 $334 $336 $491 reversed $210 $-1 #
coedge $-1 $334 $484 $483 $654 reversed $210 $-1 #
coedge $-1 $655 $337 $334 $487 forward $481 $-1 #
edge $-1 $494 -27.608625666207406 $656 -19.795881594682648 $486 $657 forward 7 unknown #
coedge $-1 $336 $335 $652 $658 reversed $133 $-1 #
coedge $-1 $659 $660 $335 $490 forward $650 $-1 #
edge $-1 $661 -12.538319248392984 $493 -2.8812364200544898 $489 $662 forward 7 unknown #
edge $-1 $663 1.7761521089745031e-014 $494 9.6570828283385115 $484 $664 forward 7 unknown #
coedge $-1 $337 $655 $659 $665 forward $481 $-1 #
vertex $-1 $490 $666 #
vertex $-1 $338 $667 #
straight-curve $-1 27.170051659938707 -27.404069192756982 11.485149995567721 -1 0 0 I I #
coedge $-1 $496 $496 $-1 $668 reversed $341 $-1 #
edge $-1 $669 0 $669 6.2831853071796004 $342 $670 forward 7 unknown #
vertex $-1 $345 $671 #
ellipse-curve $-1 48.762580180421665 -31.310441228519359 8.6470045259764898 0 -0.5877852598018023 0.80901698891910034 1.5 0 0 1 I I #
coedge $-1 $500 $500 $-1 $672 reversed $348 $-1 #
edge $-1 $673 0 $673 6.2831853071796004 $349 $674 forward 7 unknown #
vertex $-1 $352 $675 #
ellipse-curve $-1 54.3401033198774 -31.310441228519359 8.6470045259764898 0 -0.5877852598018023 0.80901698891910034 1.5 0 0 1 I I #
coedge $-1 $504 $504 $-1 $676 reversed $355 $-1 #
edge $-1 $677 0 $677 6.2831853071796004 $356 $678 forward 7 unknown #
vertex $-1 $359 $679 #
ellipse-curve $-1 59.91762645933315 -31.310441228519359 8.6470045259764898 0 -0.5877852598018023 0.80901698891910034 1.5 0 0 1 I I #
face $-1 $-1 $375 $54 $-1 $680 reversed single #
loop $-1 $-1 $524 $360 #
plane-surface $-1 0 35.21681326428174 0 0 -1 0 0 0 -1 forward_v I I I I #
coedge $-1 $681 $522 $525 $682 forward $361 $-1 #
coedge $-1 $528 $363 $364 $516 reversed $229 $-1 #
coedge $-1 $522 $681 $363 $514 reversed $361 $-1 #
edge $-1 $529 -11.485149995567721 $683 11.485149995567721 $513 $684 forward 7 unknown #
coedge $-1 $365 $364 $681 $685 forward $145 $-1 #
edge $-1 $520 -63.635975218970302 $683 63.635975218970302 $512 $686 forward 7 unknown #
coedge $-1 $525 $524 $365 $518 reversed $509 $-1 #
edge $-1 $687 -63.635975218970302 $519 63.635975218970302 $517 $688 forward 7 unknown #
vertex $-1 $367 $689 #
vertex $-1 $531 $690 #
straight-curve $-1 63.635975218970302 0 -11.485149995567721 0 -1 0 I I #
coedge $-1 $511 $513 $368 $523 reversed $361 $-1 #
edge $-1 $526 -35.21681326428174 $529 35.21681326428174 $522 $691 forward 7 unknown #
coedge $-1 $517 $369 $374 $532 forward $509 $-1 #
coedge $-1 $369 $517 $511 $682 reversed $509 $-1 #
vertex $-1 $370 $692 #
straight-curve $-1 0 35.21681326428174 11.485149995567721 -1 0 0 I I #
coedge $-1 $371 $512 $373 $531 reversed $229 $-1 #
vertex $-1 $523 $693 #
straight-curve $-1 0 -35.21681326428174 11.485149995567721 1 0 0 I I #
edge $-1 $376 -11.485149995567721 $520 11.485149995567721 $373 $694 forward 7 unknown #
edge $-1 $377 -11.485149995567721 $519 11.485149995567721 $374 $695 forward 7 unknown #
point $-1 63.635975218970302 -35.21681326428174 11.485149995567721 #
point $-1 63.635975218970302 35.21681326428174 11.485149995567721 #
face $-1 $-1 $394 $55 $-1 $696 reversed single #
loop $-1 $-1 $544 $379 #
plane-surface $-1 0 0 11.485149995567721 0 0 1 1 0 0 forward_v I I I I #
coedge $-1 $550 $549 $383 $543 forward $380 $-1 #
coedge $-1 $385 $382 $550 $697 reversed $237 $-1 #
coedge $-1 $382 $385 $553 $698 reversed $237 $-1 #
edge $-1 $555 -11.485149995567721 $551 11.485149995567721 $382 $699 forward 7 unknown #
coedge $-1 $384 $383 $557 $700 reversed $149 $-1 #
edge $-1 $701 -35.505662928025707 $547 -20.754961653863482 $538 $702 forward 7 unknown #
coedge $-1 $554 $553 $384 $545 forward $536 $-1 #
edge $-1 $546 20.754961653863482 $703 35.505662928025707 $544 $704 forward 7 unknown #
vertex $-1 $545 $705 #
vertex $-1 $543 $706 #
straight-curve $-1 -48.885273944808077 -26.491702441478676 0 0 0 -1 I I #
coedge $-1 $538 $388 $393 $559 forward $380 $-1 #
coedge $-1 $388 $538 $539 $697 forward $380 $-1 #
vertex $-1 $389 $707 #
straight-curve $-1 -28.130312290944595 -32.196527548991149 -11.485149995567721 -1 0 0 I I #
coedge $-1 $544 $390 $540 $698 forward $536 $-1 #
coedge $-1 $390 $544 $392 $558 forward $536 $-1 #
vertex $-1 $391 $708 #
straight-curve $-1 -28.130312290944595 -32.196527548991149 11.485149995567721 1 0 0 I I #
coedge $-1 $393 $392 $542 $700 forward $394 $-1 #
edge $-1 $703 26.491702441478676 $396 32.196527548991149 $392 $709 forward 7 unknown #
edge $-1 $395 -32.196527548991149 $701 -26.491702441478676 $393 $710 forward 7 unknown #
point $-1 -63.635975218970302 -32.196527548991149 -11.485149995567721 #
point $-1 -63.635975218970302 -32.196527548991149 11.485149995567721 #
plane-surface $-1 0 0 11.485149995567721 0 0 1 1 0 0 forward_v I I I I #
coedge $-1 $573 $572 $565 $711 forward $399 $-1 #
coedge $-1 $565 $401 $403 $569 reversed $245 $-1 #
coedge $-1 $401 $564 $563 $711 reversed $245 $-1 #
coedge $-1 $409 $404 $401 $567 forward $410 $-1 #
edge $-1 $570 -25.932912923123361 $712 -19.893558833986319 $566 $713 forward 7 unknown #
coedge $-1 $403 $402 $573 $714 reversed $153 $-1 #
edge $-1 $715 -70.433626528563408 $570 -58.354918026640988 $564 $716 forward 7 unknown #
vertex $-1 $405 $717 #
straight-curve $-1 -20.332462417524404 29.177459175144698 11.485149995567721 1 0 0 I I #
coedge $-1 $563 $406 $409 $577 reversed $399 $-1 #
coedge $-1 $406 $563 $568 $714 forward $399 $-1 #
vertex $-1 $407 $718 #
straight-curve $-1 -48.88527394480807 35.21681326428174 62.828982703811207 0 0 1 I I #
straight-curve $-1 -48.88527394480807 9.4363262803653924e-007 62.02199189377459 0 0.49999998660252726 -0.86602541151947299 I I #
edge $-1 $712 32.444575725289546 $411 48.88527394480807 $572 $719 forward 7 unknown #
point $-1 -48.88527394480807 35.21681326428174 11.485149995567721 #
point $-1 -48.88527394480807 29.177459175144698 11.485149995567717 #
edge $-1 $720 1 $720 0 $414 $-1 forward 7 unknown #
vertex $-1 $415 $721 #
ellipse-curve $-1 -45.597134300904365 30.657494375093457 5.3660031433781192 0 0.86602541151947299 0.49999998660252726 1.5 0 0 1 I I #
point $-1 -44.097134300904365 32.197136219713208 6.254915745067124 #
edge $-1 $722 1 $722 0 $418 $-1 forward 7 unknown #
vertex $-1 $419 $723 #
ellipse-curve $-1 -40.664924835048808 30.657494375093457 5.3660031433781192 0 0.86602541151947299 0.49999998660252726 1.5 0 0 1 I I #
point $-1 -39.164924835048808 32.197136219713208 6.254915745067124 #
edge $-1 $724 1 $724 0 $422 $-1 forward 7 unknown #
vertex $-1 $423 $725 #
ellipse-curve $-1 -35.732715369193251 30.657494375093457 5.3660031433781192 0 0.86602541151947299 0.49999998660252726 1.5 0 0 1 I I #
point $-1 -34.232715369193251 32.197136219713208 6.254915745067124 #
loop $-1 $-1 $433 $426 #
plane-surface $-1 0 35.21681326428174 0 0 -1 0 0 0 -1 forward_v I I I I #
coedge $-1 $726 $727 $430 $596 forward $427 $-1 #
coedge $-1 $430 $429 $601 $728 reversed $172 $-1 #
edge $-1 $598 31.498607736017355 $729 43.577316237939776 $594 $730 forward 7 unknown #
coedge $-1 $436 $431 $727 $731 forward $274 $-1 #
vertex $-1 $731 $732 #
straight-curve $-1 27.707813054605523 29.177459175144698 11.485149995567721 1 0 0 I I #
coedge $-1 $733 $433 $436 $605 reversed $592 $-1 #
coedge $-1 $433 $733 $595 $728 forward $592 $-1 #
vertex $-1 $434 $734 #
straight-curve $-1 47.195276999451785 35.21681326428174 62.828982703811207 0 0 1 I I #
straight-curve $-1 47.195276999451785 9.4363262803653924e-007 62.02199189377459 0 0.49999998660252726 -0.86602541151947299 I I #
edge $-1 $735 -63.635975218970302 $437 -47.195276999451785 $600 $736 forward 7 unknown #
point $-1 47.195276999451785 35.21681326428174 11.485149995567721 #
point $-1 47.195276999451785 29.177459175144698 11.485149995567717 #
edge $-1 $737 1 $737 0 $440 $-1 forward 7 unknown #
vertex $-1 $441 $738 #
ellipse-curve $-1 50.483416643355483 30.657494375093457 5.3660031433781192 0 0.86602541151947299 0.49999998660252726 1.5 0 0 1 I I #
point $-1 51.983416643355483 32.197136219713208 6.254915745067124 #
edge $-1 $739 1 $739 0 $444 $-1 forward 7 unknown #
vertex $-1 $445 $740 #
ellipse-curve $-1 55.415626109211047 30.657494375093457 5.3660031433781192 0 0.86602541151947299 0.49999998660252726 1.5 0 0 1 I I #
point $-1 56.915626109211047 32.197136219713208 6.254915745067124 #
edge $-1 $741 1 $741 0 $448 $-1 forward 7 unknown #
vertex $-1 $449 $742 #
ellipse-curve $-1 60.347835575066611 30.657494375093457 5.3660031433781192 0 0.86602541151947299 0.49999998660252726 1.5 0 0 1 I I #
point $-1 61.847835575066611 32.197136219713208 6.254915745067124 #
plane-surface $-1 0 0 11.485149995567721 0 0 1 1 0 0 forward_v I I I I #
coedge $-1 $631 $630 $623 $743 forward $453 $-1 #
coedge $-1 $623 $455 $457 $627 reversed $303 $-1 #
coedge $-1 $455 $622 $621 $743 reversed $303 $-1 #
coedge $-1 $463 $458 $455 $625 forward $464 $-1 #
edge $-1 $628 -27.608625666207406 $744 -19.795881594682648 $624 $745 forward 7 unknown #
coedge $-1 $457 $456 $631 $746 reversed $191 $-1 #
edge $-1 $747 1.7761521089745031e-014 $628 9.6570828283385115 $622 $748 forward 7 unknown #
vertex $-1 $459 $749 #
straight-curve $-1 -0.96026063100588743 -27.404069192756982 11.485149995567721 -1 0 0 I I #
coedge $-1 $621 $460 $463 $635 reversed $453 $-1 #
coedge $-1 $460 $621 $626 $746 forward $453 $-1 #
vertex $-1 $461 $750 #
straight-curve $-1 7.3753506370811301 -35.21681326428174 54.387014586774463 0 0 1 I I #
straight-curve $-1 7.3753506370811301 -35.216813264281754 5.8088590563852449 0 -0.80901698891910034 -0.5877852598018023 I I #
edge $-1 $744 -11.21639316110468 $465 7.3753506370811301 $630 $751 forward 7 unknown #
point $-1 7.3753506370811301 -35.21681326428174 11.485149995567721 #
point $-1 7.3753506370811301 -27.404069192756982 11.485149995567721 #
edge $-1 $752 1 $752 0 $468 $-1 forward 7 unknown #
vertex $-1 $469 $753 #
ellipse-curve $-1 -7.4980444014675243 -28.224474438327277 4.399535711689829 0 -0.5877852598018023 0.80901698891910034 1.5 0 0 1 I I #
point $-1 -5.9980444014675243 -31.310441228519352 8.6470045259764809 #
edge $-1 $754 1 $754 0 $472 $-1 forward 7 unknown #
vertex $-1 $473 $755 #
ellipse-curve $-1 -1.920521262011782 -28.224474438327277 4.399535711689829 0 -0.5877852598018023 0.80901698891910034 1.5 0 0 1 I I #
point $-1 -0.42052126201178197 -31.310441228519352 8.6470045259764809 #
edge $-1 $756 1 $756 0 $476 $-1 forward 7 unknown #
vertex $-1 $477 $757 #
ellipse-curve $-1 3.6570018774439603 -28.224474438327277 4.399535711689829 0 -0.5877852598018023 0.80901698891910034 1.5 0 0 1 I I #
point $-1 5.1570018774439603 -31.310441228519352 8.6470045259764809 #
loop $-1 $-1 $489 $480 #
plane-surface $-1 63.635975218970302 0 0 -1 0 0 0 0 1 forward_v I I I I #
coedge $-1 $758 $483 $488 $658 forward $332 $-1 #
coedge $-1 $483 $758 $655 $759 reversed $332 $-1 #
edge $-1 $656 42.901864591206746 $663 48.578155530389211 $483 $760 forward 7 unknown #
coedge $-1 $492 $486 $653 $759 forward $481 $-1 #
vertex $-1 $759 $761 #
straight-curve $-1 45.044231420784513 -55.012694858964387 11.485149995567717 0 -1 0 I I #
edge $-1 $663 17.874179760845806 $661 36.465923559031609 $652 $762 forward 7 unknown #
coedge $-1 $660 $489 $492 $665 reversed $650 $-1 #
coedge $-1 $489 $659 $758 $763 forward $650 $-1 #
vertex $-1 $658 $764 #
straight-curve $-1 63.635975218970302 -25.07309997984045 13.178698293279863 0 0.80901698891910034 0.5877852598018023 I I #
vertex $-1 $658 $765 #
straight-curve $-1 45.044231420784513 -35.216813264281754 5.8088590563852449 0 0.80901698891910034 0.5877852598018023 I I #
edge $-1 $766 -35.21681326428174 $493 -27.404069192756982 $659 $767 forward 7 unknown #
point $-1 63.635975218970316 -27.404069192756982 11.485149995567721 #
point $-1 45.044231420784513 -27.404069192756982 11.485149995567721 #
edge $-1 $768 1 $768 0 $496 $-1 forward 7 unknown #
vertex $-1 $497 $769 #
ellipse-curve $-1 48.762580180421665 -28.224474438327277 4.399535711689829 0 -0.5877852598018023 0.80901698891910034 1.5 0 0 1 I I #
point $-1 50.262580180421665 -31.310441228519352 8.6470045259764809 #
edge $-1 $770 1 $770 0 $500 $-1 forward 7 unknown #
vertex $-1 $501 $771 #
ellipse-curve $-1 54.3401033198774 -28.224474438327277 4.399535711689829 0 -0.5877852598018023 0.80901698891910034 1.5 0 0 1 I I #
point $-1 55.8401033198774 -31.310441228519352 8.6470045259764809 #
edge $-1 $772 1 $772 0 $504 $-1 forward 7 unknown #
vertex $-1 $505 $773 #
ellipse-curve $-1 59.91762645933315 -28.224474438327277 4.399535711689829 0 -0.5877852598018023 0.80901698891910034 1.5 0 0 1 I I #
point $-1 61.41762645933315 -31.310441228519352 8.6470045259764809 #
plane-surface $-1 63.635975218970302 0 0 -1 0 0 0 0 1 forward_v I I I I #
coedge $-1 $513 $511 $515 $685 reversed $361 $-1 #
edge $-1 $526 -11.485149995567721 $687 11.485149995567721 $525 $774 forward 7 unknown #
vertex $-1 $685 $775 #
straight-curve $-1 -63.635975218970302 -35.21681326428174 0 0 0 -1 I I #
edge $-1 $683 -35.21681326428174 $687 35.21681326428174 $681 $776 forward 7 unknown #
straight-curve $-1 0 -35.21681326428174 -11.485149995567721 -1 0 0 I I #
vertex $-1 $518 $777 #
straight-curve $-1 0 35.21681326428174 -11.485149995567721 1 0 0 I I #
point $-1 63.635975218970302 35.21681326428174 -11.485149995567721 #
point $-1 63.635975218970302 -35.21681326428174 -11.485149995567721 #
straight-curve $-1 -63.635975218970302 0 11.485149995567721 0 -1 0 I I #
point $-1 -63.635975218970302 35.21681326428174 11.485149995567721 #
point $-1 -63.635975218970302 -35.21681326428174 11.485149995567721 #
straight-curve $-1 63.635975218970302 -35.21681326428174 0 0 0 -1 I I #
straight-curve $-1 63.635975218970302 35.21681326428174 0 0 0 -1 I I #
plane-surface $-1 -63.635975218970302 0 0 1 0 0 0 0 -1 forward_v I I I I #
edge $-1 $547 11.819644943861221 $551 17.524470051373694 $550 $778 forward 7 unknown #
edge $-1 $555 -17.524470051373694 $546 -11.819644943861221 $553 $779 forward 7 unknown #
straight-curve $-1 -48.885273944808077 -32.196527548991149 0 0 0 -1 I I #
edge $-1 $703 -11.485149995567721 $701 11.485149995567721 $557 $780 forward 7 unknown #
vertex $-1 $700 $781 #
straight-curve $-1 -28.130312290944595 -26.491702441478676 -11.485149995567721 1 0 0 I I #
vertex $-1 $558 $782 #
straight-curve $-1 -28.130312290944595 -26.491702441478676 11.485149995567721 -1 0 0 I I #
point $-1 -48.885273944808077 -26.491702441478676 11.485149995567721 #
point $-1 -48.885273944808077 -26.491702441478676 -11.485149995567721 #
point $-1 -48.885273944808077 -32.196527548991149 -11.485149995567721 #
point $-1 -48.885273944808077 -32.196527548991149 11.485149995567721 #
straight-curve $-1 -63.635975218970302 0 11.485149995567721 0 -1 0 I I #
straight-curve $-1 -63.635975218970302 0 -11.485149995567721 0 1 0 I I #
edge $-1 $712 51.343832708243482 $715 61.804301209244613 $563 $783 forward 7 unknown #
vertex $-1 $577 $784 #
straight-curve $-1 -32.444575725289546 55.110372098268058 11.485149995567724 0 1 0 I I #
edge $-1 $715 12.112113307765142 $574 28.552811527283666 $573 $785 forward 7 unknown #
vertex $-1 $714 $786 #
straight-curve $-1 -32.444575725289546 9.4363262803653924e-007 62.02199189377459 0 -0.49999998660252726 0.86602541151947299 I I #
point $-1 -32.444575725289546 29.177459175144698 11.485149995567717 #
point $-1 -48.88527394480807 35.21681326428174 1.0246814945665932 #
straight-curve $-1 0 35.21681326428174 11.485149995567721 -1 0 0 I I #
vertex $-1 $580 $787 #
point $-1 -44.097134300904365 30.657494375093457 5.3660031433781192 #
vertex $-1 $584 $788 #
point $-1 -39.164924835048808 30.657494375093457 5.3660031433781192 #
vertex $-1 $588 $789 #
point $-1 -34.232715369193251 30.657494375093457 5.3660031433781192 #
coedge $-1 $727 $594 $733 $790 reversed $427 $-1 #
coedge $-1 $594 $726 $597 $731 reversed $427 $-1 #
edge $-1 $729 -35.928162164364785 $602 -19.487463944846262 $601 $791 forward 7 unknown #
vertex $-1 $596 $792 #
straight-curve $-1 63.635975218970302 13.428155729137757 38.763744722442603 0 0.49999998660252726 -0.86602541151947299 I I #
edge $-1 $598 29.177459175144698 $735 35.21681326428174 $727 $793 forward 7 unknown #
point $-1 63.635975218970309 29.177459175144698 11.485149995567717 #
coedge $-1 $601 $600 $726 $790 forward $592 $-1 #
point $-1 47.195276999451785 35.21681326428174 1.0246814945665932 #
vertex $-1 $731 $794 #
straight-curve $-1 0 35.21681326428174 11.485149995567721 -1 0 0 I I #
vertex $-1 $608 $795 #
point $-1 51.983416643355483 30.657494375093457 5.3660031433781192 #
vertex $-1 $612 $796 #
point $-1 56.915626109211047 30.657494375093457 5.3660031433781192 #
vertex $-1 $616 $797 #
point $-1 61.847835575066611 30.657494375093457 5.3660031433781192 #
edge $-1 $744 42.901864591206746 $747 48.578155530389211 $621 $798 forward 7 unknown #
vertex $-1 $635 $799 #
straight-curve $-1 -11.21639316110468 -55.012694858964387 11.485149995567717 0 -1 0 I I #
edge $-1 $747 -10.256132530098792 $632 8.3356112680870176 $631 $800 forward 7 unknown #
vertex $-1 $746 $801 #
straight-curve $-1 -11.21639316110468 -35.216813264281754 5.8088590563852449 0 0.80901698891910034 0.5877852598018023 I I #
point $-1 -11.21639316110468 -27.404069192756982 11.485149995567721 #
point $-1 7.3753506370811301 -35.21681326428174 5.8088590563852556 #
straight-curve $-1 0 -35.21681326428174 11.485149995567721 1 0 0 I I #
vertex $-1 $638 $802 #
point $-1 -5.9980444014675243 -28.224474438327277 4.399535711689829 #
vertex $-1 $642 $803 #
point $-1 -0.42052126201178197 -28.224474438327277 4.399535711689829 #
vertex $-1 $646 $804 #
point $-1 5.1570018774439603 -28.224474438327277 4.399535711689829 #
coedge $-1 $653 $652 $660 $763 reversed $332 $-1 #
edge $-1 $656 45.044231420784513 $766 63.635975218970302 $653 $805 forward 7 unknown #
straight-curve $-1 45.044231420784513 -35.21681326428174 54.387014586774463 0 0 -1 I I #
point $-1 45.044231420784513 -35.21681326428174 11.485149995567721 #
straight-curve $-1 27.170051659938707 -35.21681326428174 5.8088590563852556 1 0 0 I I #
edge $-1 $766 -11.485149995567721 $661 -5.8088590563852556 $660 $806 forward 7 unknown #
point $-1 63.635975218970316 -35.21681326428174 5.8088590563852556 #
point $-1 45.044231420784513 -35.21681326428174 5.8088590563852556 #
vertex $-1 $665 $807 #
straight-curve $-1 63.635975218970302 0 11.485149995567721 0 1 0 I I #
vertex $-1 $668 $808 #
point $-1 50.262580180421665 -28.224474438327277 4.399535711689829 #
vertex $-1 $672 $809 #
point $-1 55.8401033198774 -28.224474438327277 4.399535711689829 #
vertex $-1 $676 $810 #
point $-1 61.41762645933315 -28.224474438327277 4.399535711689829 #
straight-curve $-1 -63.635975218970302 35.21681326428174 0 0 0 -1 I I #
point $-1 -63.635975218970302 -35.21681326428174 -11.485149995567721 #
straight-curve $-1 -63.635975218970302 0 -11.485149995567721 0 1 0 I I #
point $-1 -63.635975218970302 35.21681326428174 -11.485149995567721 #
straight-curve $-1 -48.885273944808077 -14.672057497617455 -11.485149995567721 0 -1 0 I I #
straight-curve $-1 -48.885273944808077 -14.672057497617455 11.485149995567721 0 1 0 I I #
straight-curve $-1 -63.635975218970302 -26.491702441478676 0 0 0 -1 I I #
point $-1 -63.635975218970302 -26.491702441478676 -11.485149995567721 #
point $-1 -63.635975218970302 -26.491702441478676 11.485149995567721 #
straight-curve $-1 -32.444575725289546 35.21681326428174 62.828982703811207 0 0 -1 I I #
point $-1 -32.444575725289546 35.21681326428174 11.485149995567721 #
straight-curve $-1 -20.332462417524404 35.21681326428174 1.0246814945666003 -1 0 0 I I #
point $-1 -32.444575725289546 35.21681326428174 1.0246814945665932 #
point $-1 -45.597134300904365 29.358456257814247 4.6160031634743284 #
point $-1 -40.664924835048808 29.358456257814247 4.6160031634743284 #
point $-1 -35.732715369193251 29.358456257814247 4.6160031634743284 #
edge $-1 $735 -11.485149995567721 $729 -1.0246814945665932 $726 $811 forward 7 unknown #
straight-curve $-1 27.707813054605523 35.21681326428174 1.0246814945666003 -1 0 0 I I #
point $-1 63.635975218970309 35.21681326428174 1.0246814945665932 #
straight-curve $-1 63.635975218970302 0 11.485149995567721 0 1 0 I I #
point $-1 63.635975218970302 35.21681326428174 11.485149995567721 #
point $-1 50.483416643355483 29.358456257814247 4.6160031634743284 #
point $-1 55.415626109211047 29.358456257814247 4.6160031634743284 #
point $-1 60.347835575066611 29.358456257814247 4.6160031634743284 #
straight-curve $-1 -11.21639316110468 -35.21681326428174 54.387014586774463 0 0 -1 I I #
point $-1 -11.21639316110468 -35.21681326428174 11.485149995567721 #
straight-curve $-1 -0.96026063100588743 -35.21681326428174 5.8088590563852556 1 0 0 I I #
point $-1 -11.21639316110468 -35.21681326428174 5.8088590563852556 #
point $-1 -7.4980444014675243 -27.342796548624577 3.1860102283111789 #
point $-1 -1.920521262011782 -27.342796548624577 3.1860102283111789 #
point $-1 3.6570018774439603 -27.342796548624577 3.1860102283111789 #
straight-curve $-1 0 -35.21681326428174 11.485149995567721 1 0 0 I I #
straight-curve $-1 63.635975218970302 -35.21681326428174 0 0 0 -1 I I #
point $-1 63.635975218970302 -35.21681326428174 11.485149995567721 #
point $-1 48.762580180421665 -27.342796548624577 3.1860102283111789 #
point $-1 54.3401033198774 -27.342796548624577 3.1860102283111789 #
point $-1 59.91762645933315 -27.342796548624577 3.1860102283111789 #
straight-curve $-1 63.635975218970302 35.21681326428174 0 0 0 -1 I I #
End-of-ACIS-data 