500 0 11 0           
7 Unknown 11 ACIS 5.0 NT 24 Thu Mar 25 20:05:35 1999 
-1 9.9999999999999995e-007 1e-010 
body $-1 $11 $-1 $12 #
body $-1 $13 $-1 $14 #
body $-1 $15 $-1 $16 #
body $-1 $17 $-1 $18 #
body $-1 $19 $-1 $20 #
body $-1 $21 $-1 $22 #
body $-1 $23 $-1 $24 #
body $-1 $25 $-1 $26 #
body $-1 $27 $-1 $28 #
body $-1 $29 $-1 $30 #
body $-1 $31 $-1 $32 #
lump $-1 $-1 $33 $0 #
transform $-1 1 0 0 0 1 0 0 0 1 77.802667317728208 49.458486264475944 20.368588607317442 1 rotate no_reflect no_shear #
lump $-1 $-1 $34 $1 #
transform $-1 1 0 0 0 1 0 0 0 1 77.802667317728208 49.458486264475944 20.368588607317442 1 rotate no_reflect no_shear #
lump $-1 $-1 $35 $2 #
transform $-1 1 0 0 0 1 0 0 0 1 77.802667317728208 49.458486264475944 20.368588607317442 1 rotate no_reflect no_shear #
lump $-1 $-1 $36 $3 #
transform $-1 1 0 0 0 1 0 0 0 1 77.802667317728208 49.458486264475944 20.368588607317442 1 rotate no_reflect no_shear #
lump $-1 $-1 $37 $4 #
transform $-1 1 0 0 0 1 0 0 0 1 77.802667317728208 49.458486264475944 20.368588607317442 1 rotate no_reflect no_shear #
lump $-1 $-1 $38 $5 #
transform $-1 1 0 0 0 1 0 0 0 1 77.802667317728208 49.458486264475944 20.368588607317442 1 rotate no_reflect no_shear #
lump $-1 $-1 $39 $6 #
transform $-1 1 0 0 0 1 0 0 0 1 77.802667317728208 49.458486264475944 20.368588607317442 1 rotate no_reflect no_shear #
lump $-1 $-1 $40 $7 #
transform $-1 1 0 0 0 1 0 0 0 1 77.802667317728208 49.458486264475944 20.368588607317442 1 rotate no_reflect no_shear #
lump $-1 $-1 $41 $8 #
transform $-1 1 0 0 0 1 0 0 0 1 77.802667317728208 49.458486264475944 20.368588607317442 1 rotate no_reflect no_shear #
lump $-1 $-1 $42 $9 #
transform $-1 1 0 0 0 1 0 0 0 1 77.802667317728208 49.458486264475944 20.368588607317442 1 rotate no_reflect no_shear #
lump $-1 $-1 $43 $10 #
transform $-1 1 0 0 0 1 0 0 0 1 77.802667317728208 49.458486264475944 20.368588607317442 1 rotate no_reflect no_shear #
shell $-1 $-1 $-1 $44 $-1 $11 #
shell $-1 $-1 $-1 $45 $-1 $13 #
shell $-1 $-1 $-1 $46 $-1 $15 #
shell $-1 $-1 $-1 $47 $-1 $17 #
shell $-1 $-1 $-1 $48 $-1 $19 #
shell $-1 $-1 $-1 $49 $-1 $21 #
shell $-1 $-1 $-1 $50 $-1 $23 #
shell $-1 $-1 $-1 $51 $-1 $25 #
shell $-1 $-1 $-1 $52 $-1 $27 #
shell $-1 $-1 $-1 $53 $-1 $29 #
shell $-1 $-1 $-1 $54 $-1 $31 #
face $-1 $55 $56 $33 $-1 $57 forward single #
face $-1 $58 $59 $34 $-1 $60 forward single #
face $-1 $61 $62 $35 $-1 $63 forward single #
face $-1 $64 $65 $36 $-1 $66 reversed single #
face $-1 $67 $68 $37 $-1 $69 forward single #
face $-1 $70 $71 $38 $-1 $72 forward single #
face $-1 $73 $74 $39 $-1 $75 forward single #
face $-1 $76 $77 $40 $-1 $78 reversed single #
face $-1 $79 $80 $41 $-1 $81 forward single #
face $-1 $82 $83 $42 $-1 $84 forward single #
face $-1 $85 $86 $43 $-1 $87 forward single #
face $-1 $88 $89 $33 $-1 $90 reversed single #
loop $-1 $-1 $91 $44 #
plane-surface $-1 0 0 20.368588607317442 0 0 1 1 0 0 forward_v I I I I #
face $-1 $92 $93 $34 $-1 $94 reversed single #
loop $-1 $-1 $95 $45 #
plane-surface $-1 0 -49.458486264475944 0 0 1 0 0 0 1 forward_v I I I I #
face $-1 $96 $97 $35 $-1 $98 reversed single #
loop $-1 $-1 $99 $46 #
plane-surface $-1 0 49.458486264475944 0 0 -1 0 0 0 -1 forward_v I I I I #
face $-1 $100 $101 $36 $-1 $102 reversed single #
loop $-1 $-1 $103 $47 #
plane-surface $-1 -185.89521678017081 7.9705085762253063 122.30433031073838 0 1 0 -0.69465837861970381 0 0.71933979245794832 forward_v I I I I #
face $-1 $104 $105 $37 $-1 $106 forward single #
loop $-1 $107 $108 $48 #
cone-surface $-1 -71.993809865923836 9.7840624852525622 14.714860476426388 0.69465837861970381 0 -0.71933979245794832 0.35966989622897416 0 0.3473291893098519 1 I I 0 1 0.5 forward I I I I #
face $-1 $109 $110 $38 $-1 $111 forward single #
loop $-1 $112 $113 $49 #
cone-surface $-1 -71.993809865923836 12.50439334879345 14.714860476426388 0.69465837861970381 0 -0.71933979245794832 0.35966989622897416 0 0.3473291893098519 1 I I 0 1 0.5 forward I I I I #
face $-1 $114 $115 $39 $-1 $116 forward single #
loop $-1 $117 $118 $50 #
cone-surface $-1 -71.993809865923836 15.22472421233433 14.714860476426388 0.69465837861970381 0 -0.71933979245794832 0.35966989622897416 0 0.3473291893098519 1 I I 0 1 0.5 forward I I I I #
face $-1 $119 $120 $40 $-1 $121 reversed single #
loop $-1 $-1 $122 $51 #
plane-surface $-1 100.80511754643655 15.674958079922114 230.59404217675976 0 -1 0 -0.77714596973225614 0 -0.62932038083071107 forward_v I I I I #
face $-1 $123 $124 $41 $-1 $125 forward single #
loop $-1 $126 $127 $52 #
cone-surface $-1 73.902206842898991 4.9191922415535956 15.724927444228882 -0.77714596973225614 0 -0.62932038083071107 0.62932038083071107 0 -0.77714596973225614 1 I I 0 1 1 forward I I I I #
face $-1 $128 $129 $42 $-1 $130 forward single #
loop $-1 $131 $132 $53 #
cone-surface $-1 73.902206842898991 8.9526044309417898 15.724927444228882 -0.77714596973225614 0 -0.62932038083071107 0.62932038083071107 0 -0.77714596973225614 1 I I 0 1 1 forward I I I I #
face $-1 $133 $134 $43 $-1 $135 forward single #
loop $-1 $136 $137 $54 #
cone-surface $-1 73.902206842898991 12.986016620329984 15.724927444228882 -0.77714596973225614 0 -0.62932038083071107 0.62932038083071107 0 -0.77714596973225614 1 I I 0 1 1 forward I I I I #
face $-1 $138 $139 $33 $-1 $140 reversed single #
loop $-1 $-1 $141 $55 #
plane-surface $-1 0 0 -20.368588607317442 0 0 1 1 0 0 forward_v I I I I #
coedge $-1 $142 $143 $144 $145 forward $56 $-1 #
face $-1 $146 $147 $34 $-1 $148 forward single #
loop $-1 $-1 $149 $58 #
plane-surface $-1 -77.802667317728208 0 0 1 0 0 0 0 -1 forward_v I I I I #
coedge $-1 $150 $151 $152 $153 forward $59 $-1 #
face $-1 $154 $155 $35 $-1 $156 forward single #
loop $-1 $-1 $157 $61 #
plane-surface $-1 77.802667317728208 0 0 -1 0 0 0 0 1 forward_v I I I I #
coedge $-1 $158 $159 $160 $161 forward $62 $-1 #
face $-1 $162 $163 $36 $-1 $164 reversed single #
loop $-1 $-1 $165 $64 #
plane-surface $-1 -77.802667317728222 12.50439334879345 10.371221188719559 -0.69465837861970381 0 0.71933979245794832 0.71933979245794832 0 0.69465837861970381 forward_v I I I I #
coedge $-1 $166 $167 $168 $169 reversed $65 $-1 #
face $-1 $-1 $170 $37 $-1 $171 forward single #
loop $-1 $172 $173 $67 #
cone-surface $-1 -71.187576211976051 9.7840624852525622 13.879981106719804 0.69465837861970381 0 -0.71933979245794832 0.17983494811448708 0 0.17366459465492595 1 I I -0.70710678118655002 0.70710678118654502 0.25 forward I I I I #
loop $-1 $-1 $174 $48 #
coedge $-1 $108 $108 $175 $176 reversed $68 $-1 #
face $-1 $-1 $177 $38 $-1 $178 forward single #
loop $-1 $179 $180 $70 #
cone-surface $-1 -71.187576211976051 12.50439334879345 13.879981106719804 0.69465837861970381 0 -0.71933979245794832 0.17983494811448708 0 0.17366459465492595 1 I I -0.70710678118655002 0.70710678118654502 0.25 forward I I I I #
loop $-1 $-1 $181 $49 #
coedge $-1 $113 $113 $182 $183 reversed $71 $-1 #
face $-1 $-1 $184 $39 $-1 $185 forward single #
loop $-1 $186 $187 $73 #
cone-surface $-1 -71.187576211976051 15.22472421233433 13.879981106719804 0.69465837861970381 0 -0.71933979245794832 0.17983494811448708 0 0.17366459465492595 1 I I -0.70710678118655002 0.70710678118654502 0.25 forward I I I I #
loop $-1 $-1 $188 $50 #
coedge $-1 $118 $118 $189 $190 reversed $74 $-1 #
face $-1 $191 $192 $40 $-1 $193 reversed single #
loop $-1 $-1 $194 $76 #
plane-surface $-1 -20.122941134347457 8.9526044309417898 132.66843372468409 0.77714596973225614 0 0.62932038083071107 0.62932038083071107 0 -0.77714596973225614 forward_v I I I I #
coedge $-1 $195 $196 $197 $198 reversed $77 $-1 #
face $-1 $-1 $199 $41 $-1 $200 forward single #
loop $-1 $201 $202 $79 #
cone-surface $-1 73.106668078601245 4.9191922415535956 15.080712872433658 -0.77714596973225614 0 -0.62932038083071107 0.31466019041535553 0 -0.38857298486612807 1 I I -0.70710678118654746 0.70710678118654746 0.5 forward I I I I #
loop $-1 $-1 $203 $52 #
coedge $-1 $127 $127 $204 $205 reversed $80 $-1 #
face $-1 $-1 $206 $42 $-1 $207 forward single #
loop $-1 $208 $209 $82 #
cone-surface $-1 73.106668078601245 8.9526044309417898 15.080712872433658 -0.77714596973225614 0 -0.62932038083071107 0.31466019041535553 0 -0.38857298486612807 1 I I -0.70710678118654746 0.70710678118654746 0.5 forward I I I I #
loop $-1 $-1 $210 $53 #
coedge $-1 $132 $132 $211 $212 reversed $83 $-1 #
face $-1 $-1 $213 $43 $-1 $214 forward single #
loop $-1 $215 $216 $85 #
cone-surface $-1 73.106668078601245 12.986016620329984 15.080712872433658 -0.77714596973225614 0 -0.62932038083071107 0.31466019041535553 0 -0.38857298486612807 1 I I -0.70710678118654746 0.70710678118654746 0.5 forward I I I I #
loop $-1 $-1 $217 $54 #
coedge $-1 $137 $137 $218 $219 reversed $86 $-1 #
face $-1 $220 $221 $33 $-1 $222 reversed single #
loop $-1 $-1 $223 $88 #
plane-surface $-1 0 -49.458486264475944 0 0 1 0 0 0 1 forward_v I I I I #
coedge $-1 $224 $225 $226 $227 forward $89 $-1 #
coedge $-1 $228 $91 $229 $230 forward $56 $-1 #
coedge $-1 $91 $228 $231 $232 forward $56 $-1 #
coedge $-1 $233 $234 $91 $145 reversed $235 $-1 #
edge $-1 $236 -49.458486264475944 $237 49.458486264475944 $144 $238 forward 7 unknown #
face $-1 $239 $240 $34 $-1 $241 reversed single #
loop $-1 $-1 $242 $92 #
plane-surface $-1 0 -61.331041729806451 -0.95255747681853276 0 0 1 1 0 0 forward_v I I I I #
coedge $-1 $243 $244 $151 $245 forward $93 $-1 #
coedge $-1 $246 $95 $247 $248 reversed $59 $-1 #
coedge $-1 $95 $246 $149 $245 reversed $59 $-1 #
coedge $-1 $249 $242 $95 $153 reversed $147 $-1 #
edge $-1 $250 -77.802667317728208 $251 77.802667317728208 $152 $252 forward 7 unknown #
face $-1 $253 $254 $35 $-1 $255 reversed single #
loop $-1 $-1 $256 $96 #
plane-surface $-1 0 61.331041729806451 -0.95255747681853276 0 0 1 1 0 0 forward_v I I I I #
coedge $-1 $257 $258 $159 $259 forward $97 $-1 #
coedge $-1 $260 $99 $261 $262 reversed $62 $-1 #
coedge $-1 $99 $260 $157 $259 reversed $62 $-1 #
coedge $-1 $256 $263 $99 $161 reversed $155 $-1 #
edge $-1 $264 -77.802667317728208 $265 77.802667317728208 $160 $266 forward 7 unknown #
face $-1 $267 $268 $36 $-1 $269 reversed single #
loop $-1 $-1 $270 $100 #
plane-surface $-1 -185.89521678017081 17.038278121361593 122.30433031073838 0 -1 0 0.69465837861970381 0 -0.71933979245794832 forward_v I I I I #
coedge $-1 $271 $272 $273 $274 reversed $101 $-1 #
coedge $-1 $167 $103 $275 $276 reversed $65 $-1 #
coedge $-1 $103 $166 $271 $277 reversed $65 $-1 #
coedge $-1 $273 $278 $103 $169 forward $279 $-1 #
edge $-1 $280 15.144941072357199 $281 25.497517857380174 $168 $282 forward 7 unknown #
loop $-1 $-1 $175 $104 #
plane-surface $-1 -77.802667317728222 12.50439334879345 10.371221188719559 -0.69465837861970381 0 0.71933979245794832 0.71933979245794832 0 0.69465837861970381 forward_v I I I I #
loop $-1 $-1 $283 $67 #
coedge $-1 $173 $173 $174 $284 reversed $105 $-1 #
coedge $-1 $174 $174 $173 $284 forward $107 $-1 #
coedge $-1 $175 $175 $108 $176 forward $170 $-1 #
edge $-1 $285 0 $285 6.2831853071796004 $175 $286 forward 7 unknown #
loop $-1 $-1 $182 $109 #
plane-surface $-1 -77.802667317728222 12.50439334879345 10.371221188719559 -0.69465837861970381 0 0.71933979245794832 0.71933979245794832 0 0.69465837861970381 forward_v I I I I #
loop $-1 $-1 $287 $70 #
coedge $-1 $180 $180 $181 $288 reversed $110 $-1 #
coedge $-1 $181 $181 $180 $288 forward $112 $-1 #
coedge $-1 $182 $182 $113 $183 forward $177 $-1 #
edge $-1 $289 0 $289 6.2831853071796004 $182 $290 forward 7 unknown #
loop $-1 $-1 $189 $114 #
plane-surface $-1 -77.802667317728222 12.50439334879345 10.371221188719559 -0.69465837861970381 0 0.71933979245794832 0.71933979245794832 0 0.69465837861970381 forward_v I I I I #
loop $-1 $-1 $291 $73 #
coedge $-1 $187 $187 $188 $292 reversed $115 $-1 #
coedge $-1 $188 $188 $187 $292 forward $117 $-1 #
coedge $-1 $189 $189 $118 $190 forward $184 $-1 #
edge $-1 $293 0 $293 6.2831853071796004 $189 $294 forward 7 unknown #
face $-1 $295 $296 $40 $-1 $297 forward single #
loop $-1 $-1 $298 $119 #
plane-surface $-1 100.80511754643655 2.2302507819614661 230.59404217675976 0 1 0 0.77714596973225614 0 0.62932038083071107 forward_v I I I I #
coedge $-1 $299 $300 $301 $302 reversed $120 $-1 #
coedge $-1 $196 $122 $303 $304 reversed $77 $-1 #
coedge $-1 $122 $195 $299 $305 reversed $77 $-1 #
coedge $-1 $301 $306 $122 $198 forward $296 $-1 #
edge $-1 $307 -27.400108544509933 $308 -20.41311915371476 $197 $309 forward 7 unknown #
loop $-1 $-1 $204 $123 #
plane-surface $-1 -20.122941134347457 8.9526044309417898 132.66843372468409 0.77714596973225614 0 0.62932038083071107 0.62932038083071107 0 -0.77714596973225614 forward_v I I I I #
loop $-1 $-1 $310 $79 #
coedge $-1 $202 $202 $203 $311 reversed $124 $-1 #
coedge $-1 $203 $203 $202 $311 forward $126 $-1 #
coedge $-1 $204 $204 $127 $205 forward $199 $-1 #
edge $-1 $312 0 $312 6.2831853071796004 $204 $313 forward 7 unknown #
loop $-1 $-1 $211 $128 #
plane-surface $-1 -20.122941134347457 8.9526044309417898 132.66843372468409 0.77714596973225614 0 0.62932038083071107 0.62932038083071107 0 -0.77714596973225614 forward_v I I I I #
loop $-1 $-1 $314 $82 #
coedge $-1 $209 $209 $210 $315 reversed $129 $-1 #
coedge $-1 $210 $210 $209 $315 forward $131 $-1 #
coedge $-1 $211 $211 $132 $212 forward $206 $-1 #
edge $-1 $316 0 $316 6.2831853071796004 $211 $317 forward 7 unknown #
loop $-1 $-1 $218 $133 #
plane-surface $-1 -20.122941134347457 8.9526044309417898 132.66843372468409 0.77714596973225614 0 0.62932038083071107 0.62932038083071107 0 -0.77714596973225614 forward_v I I I I #
loop $-1 $-1 $318 $85 #
coedge $-1 $216 $216 $217 $319 reversed $134 $-1 #
coedge $-1 $217 $217 $216 $319 forward $136 $-1 #
coedge $-1 $218 $218 $137 $219 forward $213 $-1 #
edge $-1 $320 0 $320 6.2831853071796004 $218 $321 forward 7 unknown #
face $-1 $322 $323 $33 $-1 $324 reversed single #
loop $-1 $-1 $325 $138 #
plane-surface $-1 -77.802667317728208 0 0 1 0 0 0 0 -1 forward_v I I I I #
coedge $-1 $326 $231 $327 $328 forward $139 $-1 #
coedge $-1 $329 $141 $326 $330 forward $89 $-1 #
coedge $-1 $141 $329 $331 $332 forward $89 $-1 #
coedge $-1 $234 $233 $141 $227 reversed $235 $-1 #
edge $-1 $333 -49.458486264475944 $334 49.458486264475944 $226 $335 forward 7 unknown #
coedge $-1 $143 $142 $336 $337 forward $56 $-1 #
coedge $-1 $338 $339 $142 $230 reversed $323 $-1 #
edge $-1 $237 -77.802667317728208 $340 77.802667317728208 $229 $341 forward 7 unknown #
coedge $-1 $223 $342 $143 $232 reversed $139 $-1 #
edge $-1 $343 -77.802667317728208 $236 77.802667317728208 $231 $344 forward 7 unknown #
coedge $-1 $226 $144 $342 $345 forward $235 $-1 #
coedge $-1 $144 $226 $338 $346 reversed $235 $-1 #
loop $-1 $-1 $233 $322 #
vertex $-1 $145 $347 #
vertex $-1 $145 $348 #
straight-curve $-1 77.802667317728208 0 20.368588607317442 0 1 0 I I #
face $-1 $349 $350 $34 $-1 $351 reversed single #
loop $-1 $-1 $352 $146 #
plane-surface $-1 0 -61.331041729806451 -11.78774899812678 0 0 1 1 0 0 forward_v I I I I #
coedge $-1 $152 $353 $354 $355 forward $147 $-1 #
coedge $-1 $356 $149 $357 $358 reversed $93 $-1 #
coedge $-1 $149 $356 $249 $359 reversed $93 $-1 #
edge $-1 $250 0.95255747681853276 $360 11.78774899812678 $149 $361 forward 7 unknown #
coedge $-1 $151 $150 $362 $363 forward $59 $-1 #
coedge $-1 $354 $364 $150 $248 forward $365 $-1 #
edge $-1 $366 -11.78774899812678 $251 -0.95255747681853276 $247 $367 forward 7 unknown #
coedge $-1 $353 $152 $244 $359 forward $147 $-1 #
vertex $-1 $245 $368 #
vertex $-1 $355 $369 #
straight-curve $-1 0 -49.458486264475944 -0.95255747681853276 1 0 0 I I #
face $-1 $370 $371 $35 $-1 $372 reversed single #
loop $-1 $-1 $373 $154 #
plane-surface $-1 0 61.331041729806451 -11.78774899812678 0 0 1 1 0 0 forward_v I I I I #
coedge $-1 $374 $160 $258 $375 forward $155 $-1 #
coedge $-1 $376 $157 $373 $377 reversed $97 $-1 #
coedge $-1 $157 $376 $256 $375 reversed $97 $-1 #
edge $-1 $264 0.95255747681853276 $378 11.78774899812678 $157 $379 forward 7 unknown #
coedge $-1 $159 $158 $380 $381 forward $62 $-1 #
coedge $-1 $382 $383 $158 $262 forward $384 $-1 #
edge $-1 $385 -11.78774899812678 $265 -0.95255747681853276 $261 $386 forward 7 unknown #
coedge $-1 $160 $374 $382 $387 forward $155 $-1 #
vertex $-1 $259 $388 #
vertex $-1 $387 $389 #
straight-curve $-1 0 49.458486264475944 -0.95255747681853276 -1 0 0 I I #
face $-1 $-1 $279 $36 $-1 $390 forward single #
loop $-1 $-1 $391 $162 #
plane-surface $-1 -77.802667317728208 0 0 1 0 0 0 0 -1 forward_v I I I I #
coedge $-1 $392 $393 $394 $395 reversed $163 $-1 #
coedge $-1 $396 $165 $167 $277 forward $101 $-1 #
coedge $-1 $165 $396 $392 $397 forward $101 $-1 #
coedge $-1 $394 $168 $165 $274 forward $279 $-1 #
edge $-1 $281 1.7183119018285815 $398 10.786081446964868 $273 $399 forward 7 unknown #
coedge $-1 $400 $401 $166 $276 forward $268 $-1 #
edge $-1 $402 -50.780943966649616 $280 -40.783576548051748 $275 $403 forward 7 unknown #
edge $-1 $281 -14.39177547741207 $402 -2.0094122576745862e-014 $167 $404 forward 7 unknown #
coedge $-1 $168 $394 $400 $405 forward $279 $-1 #
loop $-1 $-1 $394 $267 #
vertex $-1 $276 $406 #
vertex $-1 $169 $407 #
straight-curve $-1 -92.947608390085406 7.9705085762253063 20.368588607317442 1 0 0 I I #
coedge $-1 $283 $283 $-1 $408 reversed $172 $-1 #
edge $-1 $409 0 $409 6.2831853071796004 $173 $410 forward 7 unknown #
vertex $-1 $176 $411 #
ellipse-curve $-1 -72.626378925216727 9.7840624852525622 15.369904898018508 -0.69465837861970381 0 0.71933979245794832 0.35966989622897416 0 0.3473291893098519 1 I I #
coedge $-1 $287 $287 $-1 $412 reversed $179 $-1 #
edge $-1 $413 0 $413 6.2831853071796004 $180 $414 forward 7 unknown #
vertex $-1 $183 $415 #
ellipse-curve $-1 -72.626378925216727 12.50439334879345 15.369904898018508 -0.69465837861970381 0 0.71933979245794832 0.35966989622897416 0 0.3473291893098519 1 I I #
coedge $-1 $291 $291 $-1 $416 reversed $186 $-1 #
edge $-1 $417 0 $417 6.2831853071796004 $187 $418 forward 7 unknown #
vertex $-1 $190 $419 #
ellipse-curve $-1 -72.626378925216727 15.22472421233433 15.369904898018508 -0.69465837861970381 0 0.71933979245794832 0.35966989622897416 0 0.3473291893098519 1 I I #
face $-1 $-1 $420 $40 $-1 $421 reversed single #
loop $-1 $-1 $197 $191 #
plane-surface $-1 0 0 20.368588607317442 0 0 1 1 0 0 forward_v I I I I #
coedge $-1 $422 $423 $424 $425 reversed $192 $-1 #
coedge $-1 $426 $194 $196 $305 forward $120 $-1 #
coedge $-1 $194 $426 $422 $427 forward $120 $-1 #
coedge $-1 $424 $197 $194 $302 forward $296 $-1 #
edge $-1 $308 -11.198655864451219 $428 2.2460514335094288 $301 $429 forward 7 unknown #
coedge $-1 $430 $431 $195 $304 forward $420 $-1 #
edge $-1 $432 -103.55664604447979 $307 -94.92843248106243 $303 $433 forward 7 unknown #
edge $-1 $308 144.50289841438209 $432 155.60533463545642 $196 $434 forward 7 unknown #
coedge $-1 $197 $424 $430 $435 forward $296 $-1 #
vertex $-1 $304 $436 #
vertex $-1 $198 $437 #
straight-curve $-1 50.402558773218274 15.674958079922114 20.368588607317434 -1 0 0 I I #
coedge $-1 $310 $310 $-1 $438 reversed $201 $-1 #
edge $-1 $439 0 $439 6.2831853071796004 $202 $440 forward 7 unknown #
vertex $-1 $205 $441 #
ellipse-curve $-1 74.309172622330621 4.9191922415535956 16.054481825608761 0.77714596973225614 0 0.62932038083071107 0.62932038083071107 0 -0.77714596973225614 1 I I #
coedge $-1 $314 $314 $-1 $442 reversed $208 $-1 #
edge $-1 $443 0 $443 6.2831853071796004 $209 $444 forward 7 unknown #
vertex $-1 $212 $445 #
ellipse-curve $-1 74.309172622330621 8.9526044309417898 16.054481825608761 0.77714596973225614 0 0.62932038083071107 0.62932038083071107 0 -0.77714596973225614 1 I I #
coedge $-1 $318 $318 $-1 $446 reversed $215 $-1 #
edge $-1 $447 0 $447 6.2831853071796004 $216 $448 forward 7 unknown #
vertex $-1 $219 $449 #
ellipse-curve $-1 74.309172622330621 12.986016620329984 16.054481825608761 0.77714596973225614 0 0.62932038083071107 0.62932038083071107 0 -0.77714596973225614 1 I I #
face $-1 $-1 $235 $33 $-1 $450 reversed single #
loop $-1 $-1 $339 $220 #
plane-surface $-1 0 49.458486264475944 0 0 -1 0 0 0 -1 forward_v I I I I #
coedge $-1 $451 $336 $339 $452 forward $221 $-1 #
coedge $-1 $342 $223 $224 $330 reversed $139 $-1 #
coedge $-1 $336 $451 $223 $328 reversed $221 $-1 #
edge $-1 $343 -20.368588607317442 $453 20.368588607317442 $327 $454 forward 7 unknown #
coedge $-1 $225 $224 $451 $455 forward $89 $-1 #
edge $-1 $334 -77.802667317728208 $453 77.802667317728208 $326 $456 forward 7 unknown #
coedge $-1 $339 $338 $225 $332 reversed $323 $-1 #
edge $-1 $457 -77.802667317728208 $333 77.802667317728208 $331 $458 forward 7 unknown #
vertex $-1 $227 $459 #
vertex $-1 $345 $460 #
straight-curve $-1 77.802667317728208 0 -20.368588607317442 0 -1 0 I I #
coedge $-1 $325 $327 $228 $337 reversed $221 $-1 #
edge $-1 $340 -49.458486264475944 $343 49.458486264475944 $336 $461 forward 7 unknown #
coedge $-1 $331 $229 $234 $346 forward $323 $-1 #
coedge $-1 $229 $331 $325 $452 reversed $323 $-1 #
vertex $-1 $230 $462 #
straight-curve $-1 0 49.458486264475944 20.368588607317442 -1 0 0 I I #
coedge $-1 $231 $326 $233 $345 reversed $139 $-1 #
vertex $-1 $337 $463 #
straight-curve $-1 0 -49.458486264475944 20.368588607317442 1 0 0 I I #
edge $-1 $236 -20.368588607317442 $334 20.368588607317442 $233 $464 forward 7 unknown #
edge $-1 $237 -20.368588607317442 $333 20.368588607317442 $234 $465 forward 7 unknown #
point $-1 77.802667317728208 -49.458486264475944 20.368588607317442 #
point $-1 77.802667317728208 49.458486264475944 20.368588607317442 #
face $-1 $-1 $365 $34 $-1 $466 reversed single #
loop $-1 $-1 $467 $239 #
plane-surface $-1 0 -73.203597195136965 -6.3701532374726568 0 1 0 0 0 1 forward_v I I I I #
coedge $-1 $468 $362 $364 $469 forward $240 $-1 #
coedge $-1 $242 $249 $470 $471 forward $147 $-1 #
coedge $-1 $472 $247 $242 $355 reversed $365 $-1 #
edge $-1 $473 -11.872555465330514 $251 11.872555465330507 $354 $474 forward 7 unknown #
coedge $-1 $244 $243 $467 $475 reversed $93 $-1 #
coedge $-1 $362 $468 $243 $358 forward $240 $-1 #
edge $-1 $476 -11.872555465330514 $360 11.872555465330507 $243 $477 forward 7 unknown #
edge $-1 $250 -11.872555465330507 $478 11.872555465330514 $244 $479 forward 7 unknown #
vertex $-1 $245 $480 #
straight-curve $-1 -77.802667317728208 -49.458486264475944 0 0 0 -1 I I #
coedge $-1 $352 $357 $246 $363 reversed $240 $-1 #
edge $-1 $366 -77.802667317728208 $360 77.802667317728208 $362 $481 forward 7 unknown #
coedge $-1 $247 $472 $352 $469 reversed $365 $-1 #
loop $-1 $-1 $247 $349 #
vertex $-1 $248 $482 #
straight-curve $-1 77.802667317728208 -49.458486264475944 0 0 0 1 I I #
point $-1 -77.802667317728208 -49.458486264475944 -0.95255747681853276 #
point $-1 77.802667317728208 -49.458486264475944 -0.95255747681853276 #
face $-1 $-1 $384 $35 $-1 $483 reversed single #
loop $-1 $-1 $484 $253 #
plane-surface $-1 0 73.20359719513695 -6.3701532374726568 0 -1 0 0 0 -1 forward_v I I I I #
coedge $-1 $380 $485 $257 $377 forward $254 $-1 #
coedge $-1 $263 $256 $486 $487 forward $155 $-1 #
edge $-1 $264 -11.872555465330507 $488 11.8725554653305 $258 $489 forward 7 unknown #
coedge $-1 $258 $257 $484 $490 reversed $97 $-1 #
edge $-1 $491 -11.8725554653305 $378 11.872555465330507 $257 $492 forward 7 unknown #
vertex $-1 $259 $493 #
straight-curve $-1 77.802667317728208 49.458486264475944 0 0 0 -1 I I #
coedge $-1 $494 $373 $260 $381 reversed $254 $-1 #
edge $-1 $385 -77.802667317728208 $378 77.802667317728208 $380 $495 forward 7 unknown #
coedge $-1 $496 $261 $263 $387 reversed $384 $-1 #
coedge $-1 $261 $496 $494 $497 reversed $384 $-1 #
loop $-1 $-1 $261 $370 #
vertex $-1 $262 $498 #
straight-curve $-1 -77.802667317728208 49.458486264475944 0 0 0 1 I I #
edge $-1 $499 -11.8725554653305 $265 11.872555465330507 $382 $500 forward 7 unknown #
point $-1 77.802667317728208 49.458486264475944 -0.95255747681853276 #
point $-1 -77.802667317728208 49.458486264475944 -0.95255747681853276 #
plane-surface $-1 0 0 20.368588607317442 0 0 1 1 0 0 forward_v I I I I #
coedge $-1 $401 $400 $393 $501 forward $268 $-1 #
coedge $-1 $393 $270 $272 $397 reversed $163 $-1 #
coedge $-1 $270 $392 $391 $501 reversed $163 $-1 #
coedge $-1 $278 $273 $270 $395 forward $279 $-1 #
edge $-1 $398 -25.497517857380174 $502 -15.144941072357199 $394 $503 forward 7 unknown #
coedge $-1 $272 $271 $401 $504 reversed $101 $-1 #
edge $-1 $505 2.0094122576745862e-014 $398 14.39177547741207 $392 $506 forward 7 unknown #
vertex $-1 $274 $507 #
straight-curve $-1 -67.450090532705232 6.2521966743967248 20.368588607317442 0 1 0 I I #
coedge $-1 $391 $275 $278 $405 reversed $268 $-1 #
coedge $-1 $275 $391 $396 $504 forward $268 $-1 #
vertex $-1 $276 $508 #
straight-curve $-1 -77.802667317728208 7.9705085762253063 61.15216515536919 0 0 1 I I #
straight-curve $-1 -77.802667317728222 7.9705085762253063 10.371221188719559 -0.71933979245794832 0 -0.69465837861970381 I I #
edge $-1 $502 -17.038278121361593 $280 -7.9705085762253063 $400 $509 forward 7 unknown #
point $-1 -77.802667317728208 7.9705085762253063 20.368588607317442 #
point $-1 -67.450090532705232 7.9705085762253063 20.368588607317442 #
edge $-1 $510 1 $510 0 $283 $-1 forward 7 unknown #
vertex $-1 $284 $511 #
ellipse-curve $-1 -71.361240806630974 9.7840624852525622 14.05981605483429 -0.69465837861970381 0 0.71933979245794832 0.35966989622897416 0 0.3473291893098519 1 I I #
point $-1 -72.266709028987734 9.7840624852525622 15.717234087328341 #
edge $-1 $512 1 $512 0 $287 $-1 forward 7 unknown #
vertex $-1 $288 $513 #
ellipse-curve $-1 -71.361240806630974 12.50439334879345 14.05981605483429 -0.69465837861970381 0 0.71933979245794832 0.35966989622897416 0 0.3473291893098519 1 I I #
point $-1 -72.266709028987734 12.50439334879345 15.717234087328341 #
edge $-1 $514 1 $514 0 $291 $-1 forward 7 unknown #
vertex $-1 $292 $515 #
ellipse-curve $-1 -71.361240806630974 15.22472421233433 14.05981605483429 -0.69465837861970381 0 0.71933979245794832 0.35966989622897416 0 0.3473291893098519 1 I I #
point $-1 -72.266709028987734 15.22472421233433 15.717234087328341 #
loop $-1 $-1 $303 $295 #
plane-surface $-1 77.802667317728208 0 0 -1 0 0 0 0 1 forward_v I I I I #
coedge $-1 $423 $298 $300 $427 reversed $192 $-1 #
coedge $-1 $298 $422 $516 $517 reversed $192 $-1 #
coedge $-1 $306 $301 $298 $425 forward $296 $-1 #
edge $-1 $428 20.41311915371476 $518 27.400108544509933 $424 $519 forward 7 unknown #
coedge $-1 $300 $299 $431 $520 reversed $120 $-1 #
edge $-1 $521 -155.60533463545642 $428 -144.50289841438209 $422 $522 forward 7 unknown #
vertex $-1 $302 $523 #
straight-curve $-1 70.81567792693302 4.4763022154708949 20.368588607317449 0 -1 0 I I #
coedge $-1 $516 $303 $306 $435 reversed $420 $-1 #
coedge $-1 $303 $516 $426 $520 forward $420 $-1 #
vertex $-1 $304 $524 #
straight-curve $-1 77.802667317728208 15.674958079922114 115.29702108837988 0 0 1 I I #
straight-curve $-1 -20.122941134347457 15.674958079922114 132.66843372468409 0.62932038083071107 0 -0.77714596973225614 I I #
edge $-1 $518 2.2302507819614661 $307 15.674958079922114 $430 $525 forward 7 unknown #
point $-1 77.802667317728208 15.674958079922114 20.368588607317442 #
point $-1 70.815677926933034 15.674958079922114 20.36858860731742 #
edge $-1 $526 1 $526 0 $310 $-1 forward 7 unknown #
vertex $-1 $311 $527 #
ellipse-curve $-1 73.495241063467375 4.9191922415535956 15.395373062849014 0.77714596973225614 0 0.62932038083071107 0.62932038083071107 0 -0.77714596973225614 1 I I #
point $-1 74.938493003161312 4.9191922415535956 15.277335855876494 #
edge $-1 $528 1 $528 0 $314 $-1 forward 7 unknown #
vertex $-1 $315 $529 #
ellipse-curve $-1 73.495241063467375 8.9526044309417898 15.395373062849014 0.77714596973225614 0 0.62932038083071107 0.62932038083071107 0 -0.77714596973225614 1 I I #
point $-1 74.938493003161312 8.9526044309417898 15.277335855876494 #
edge $-1 $530 1 $530 0 $318 $-1 forward 7 unknown #
vertex $-1 $319 $531 #
ellipse-curve $-1 73.495241063467375 12.986016620329984 15.395373062849014 0.77714596973225614 0 0.62932038083071107 0.62932038083071107 0 -0.77714596973225614 1 I I #
point $-1 74.938493003161312 12.986016620329984 15.277335855876494 #
plane-surface $-1 77.802667317728208 0 0 -1 0 0 0 0 1 forward_v I I I I #
coedge $-1 $327 $325 $329 $455 reversed $221 $-1 #
edge $-1 $340 -20.368588607317442 $457 20.368588607317442 $339 $532 forward 7 unknown #
vertex $-1 $455 $533 #
straight-curve $-1 -77.802667317728208 -49.458486264475944 0 0 0 -1 I I #
edge $-1 $453 -49.458486264475944 $457 49.458486264475944 $451 $534 forward 7 unknown #
straight-curve $-1 0 -49.458486264475944 -20.368588607317442 -1 0 0 I I #
vertex $-1 $332 $535 #
straight-curve $-1 0 49.458486264475944 -20.368588607317442 1 0 0 I I #
point $-1 77.802667317728208 49.458486264475944 -20.368588607317442 #
point $-1 77.802667317728208 -49.458486264475944 -20.368588607317442 #
straight-curve $-1 -77.802667317728208 0 20.368588607317442 0 -1 0 I I #
point $-1 -77.802667317728208 49.458486264475944 20.368588607317442 #
point $-1 -77.802667317728208 -49.458486264475944 20.368588607317442 #
straight-curve $-1 77.802667317728208 -49.458486264475944 0 0 0 -1 I I #
straight-curve $-1 77.802667317728208 49.458486264475944 0 0 0 -1 I I #
plane-surface $-1 77.802667317728208 0 0 -1 0 0 0 0 1 forward_v I I I I #
coedge $-1 $536 $470 $356 $475 forward $350 $-1 #
coedge $-1 $357 $352 $536 $537 forward $240 $-1 #
edge $-1 $366 -11.872555465330507 $538 11.872555465330514 $364 $539 forward 7 unknown #
coedge $-1 $467 $540 $353 $471 reversed $350 $-1 #
edge $-1 $478 -77.802667317728208 $473 77.802667317728208 $470 $541 forward 7 unknown #
coedge $-1 $364 $354 $540 $542 forward $365 $-1 #
vertex $-1 $355 $543 #
straight-curve $-1 77.802667317728208 -61.331041729806451 -0.95255747681853276 0 1 0 I I #
edge $-1 $478 -5.4175957606541241 $476 5.4175957606541232 $356 $544 forward 7 unknown #
vertex $-1 $358 $545 #
straight-curve $-1 -77.802667317728208 -61.331041729806451 -11.78774899812678 0 1 0 I I #
vertex $-1 $359 $546 #
straight-curve $-1 -77.802667317728208 -61.331041729806451 -0.95255747681853276 0 -1 0 I I #
point $-1 -77.802667317728208 -49.458486264475944 -11.78774899812678 #
straight-curve $-1 0 -49.458486264475944 -11.78774899812678 -1 0 0 I I #
point $-1 77.802667317728208 -49.458486264475944 -11.78774899812678 #
plane-surface $-1 -77.802667317728208 0 0 1 0 0 0 0 -1 forward_v I I I I #
coedge $-1 $547 $486 $376 $490 forward $371 $-1 #
coedge $-1 $373 $494 $547 $548 forward $254 $-1 #
coedge $-1 $484 $549 $374 $487 reversed $371 $-1 #
edge $-1 $488 -77.802667317728208 $499 77.802667317728208 $486 $550 forward 7 unknown #
vertex $-1 $375 $551 #
straight-curve $-1 77.802667317728208 61.331041729806451 -0.95255747681853276 0 1 0 I I #
edge $-1 $488 -5.4175957606541241 $491 5.4175957606541232 $376 $552 forward 7 unknown #
vertex $-1 $377 $553 #
straight-curve $-1 77.802667317728208 61.331041729806451 -11.78774899812678 0 -1 0 I I #
point $-1 77.802667317728208 49.458486264475944 -11.78774899812678 #
coedge $-1 $485 $380 $383 $497 forward $254 $-1 #
straight-curve $-1 0 49.458486264475944 -11.78774899812678 1 0 0 I I #
coedge $-1 $383 $382 $549 $554 forward $384 $-1 #
edge $-1 $385 -11.872555465330507 $555 11.8725554653305 $383 $556 forward 7 unknown #
point $-1 -77.802667317728208 49.458486264475944 -11.78774899812678 #
vertex $-1 $487 $557 #
straight-curve $-1 -77.802667317728208 61.331041729806451 -0.95255747681853276 0 -1 0 I I #
edge $-1 $502 40.783576548051748 $505 50.780943966649616 $391 $558 forward 7 unknown #
vertex $-1 $405 $559 #
straight-curve $-1 -92.947608390085406 17.038278121361593 20.368588607317442 -1 0 0 I I #
edge $-1 $505 -10.786081446964868 $402 -1.7183119018285815 $401 $560 forward 7 unknown #
vertex $-1 $504 $561 #
straight-curve $-1 -77.802667317728222 17.038278121361593 10.371221188719559 0.71933979245794832 0 0.69465837861970381 I I #
point $-1 -67.450090532705232 17.038278121361593 20.368588607317442 #
point $-1 -77.802667317728208 7.9705085762253063 10.371221188719574 #
straight-curve $-1 -77.802667317728208 0 20.368588607317442 0 -1 0 I I #
vertex $-1 $408 $562 #
point $-1 -71.001570910401995 9.7840624852525622 14.407145244144141 #
vertex $-1 $412 $563 #
point $-1 -71.001570910401995 12.50439334879345 14.407145244144141 #
vertex $-1 $416 $564 #
point $-1 -71.001570910401995 15.22472421233433 14.407145244144141 #
coedge $-1 $431 $430 $423 $517 forward $420 $-1 #
edge $-1 $518 94.92843248106243 $521 103.55664604447979 $516 $565 forward 7 unknown #
vertex $-1 $435 $566 #
straight-curve $-1 50.402558773218274 2.2302507819614661 20.368588607317434 1 0 0 I I #
edge $-1 $521 -2.2460514335094288 $432 11.198655864451219 $431 $567 forward 7 unknown #
vertex $-1 $520 $568 #
straight-curve $-1 -20.122941134347457 2.2302507819614661 132.66843372468409 -0.62932038083071107 0 0.77714596973225614 I I #
point $-1 70.815677926933034 2.2302507819614661 20.36858860731742 #
point $-1 77.802667317728208 15.674958079922114 11.740375043900087 #
straight-curve $-1 77.802667317728208 0 20.368588607317442 0 1 0 I I #
vertex $-1 $438 $569 #
point $-1 74.124561444298081 4.9191922415535956 14.618227093116758 #
vertex $-1 $442 $570 #
point $-1 74.124561444298081 8.9526044309417898 14.618227093116758 #
vertex $-1 $446 $571 #
point $-1 74.124561444298081 12.986016620329984 14.618227093116758 #
straight-curve $-1 -77.802667317728208 49.458486264475944 0 0 0 -1 I I #
point $-1 -77.802667317728208 -49.458486264475944 -20.368588607317442 #
straight-curve $-1 -77.802667317728208 0 -20.368588607317442 0 1 0 I I #
point $-1 -77.802667317728208 49.458486264475944 -20.368588607317442 #
coedge $-1 $540 $467 $468 $537 reversed $350 $-1 #
edge $-1 $538 -77.802667317728208 $476 77.802667317728208 $536 $572 forward 7 unknown #
vertex $-1 $542 $573 #
straight-curve $-1 77.802667317728208 -61.331041729806451 -11.78774899812678 0 -1 0 I I #
coedge $-1 $470 $536 $472 $542 reversed $350 $-1 #
straight-curve $-1 0 -73.203597195136965 -0.95255747681853276 1 0 0 I I #
edge $-1 $473 -5.4175957606541241 $538 5.4175957606541232 $472 $574 forward 7 unknown #
point $-1 77.802667317728208 -73.203597195136965 -0.95255747681853276 #
straight-curve $-1 -77.802667317728208 -73.203597195136965 -6.3701532374726568 0 0 -1 I I #
point $-1 -77.802667317728208 -73.203597195136965 -11.78774899812678 #
point $-1 -77.802667317728208 -73.203597195136965 -0.95255747681853276 #
coedge $-1 $549 $484 $485 $548 reversed $371 $-1 #
edge $-1 $555 -77.802667317728208 $491 77.802667317728208 $547 $575 forward 7 unknown #
coedge $-1 $486 $547 $496 $554 reversed $371 $-1 #
straight-curve $-1 0 73.20359719513695 -0.95255747681853276 -1 0 0 I I #
point $-1 77.802667317728208 73.20359719513695 -0.95255747681853276 #
straight-curve $-1 77.802667317728208 73.20359719513695 -6.3701532374726568 0 0 -1 I I #
point $-1 77.802667317728208 73.20359719513695 -11.78774899812678 #
edge $-1 $499 -5.4175957606541241 $555 5.4175957606541232 $549 $576 forward 7 unknown #
vertex $-1 $548 $577 #
straight-curve $-1 -77.802667317728208 61.331041729806451 -11.78774899812678 0 1 0 I I #
point $-1 -77.802667317728208 73.20359719513695 -0.95255747681853276 #
straight-curve $-1 -77.802667317728208 17.038278121361593 61.15216515536919 0 0 -1 I I #
point $-1 -77.802667317728208 17.038278121361593 20.368588607317442 #
straight-curve $-1 -77.802667317728208 6.2521966743967248 10.371221188719566 0 -1 0 I I #
point $-1 -77.802667317728208 17.038278121361593 10.371221188719574 #
point $-1 -71.013911617321128 9.7840624852525622 13.700146158605317 #
point $-1 -71.013911617321128 12.50439334879345 13.700146158605317 #
point $-1 -71.013911617321128 15.22472421233433 13.700146158605317 #
straight-curve $-1 77.802667317728208 2.2302507819614661 115.29702108837988 0 0 -1 I I #
point $-1 77.802667317728208 2.2302507819614661 20.368588607317442 #
straight-curve $-1 77.802667317728208 4.4763022154708949 11.740375043900094 0 1 0 I I #
point $-1 77.802667317728208 2.2302507819614661 11.740375043900087 #
point $-1 72.718095093735116 4.9191922415535956 14.766052682018302 #
point $-1 72.718095093735116 8.9526044309417898 14.766052682018302 #
point $-1 72.718095093735116 12.986016620329984 14.766052682018302 #
straight-curve $-1 0 -73.203597195136965 -11.78774899812678 -1 0 0 I I #
point $-1 77.802667317728208 -73.203597195136965 -11.78774899812678 #
straight-curve $-1 77.802667317728208 -73.203597195136965 -6.3701532374726568 0 0 -1 I I #
straight-curve $-1 0 73.20359719513695 -11.78774899812678 1 0 0 I I #
straight-curve $-1 -77.802667317728208 73.20359719513695 -6.3701532374726568 0 0 -1 I I #
point $-1 -77.802667317728208 73.20359719513695 -11.78774899812678 #
End-of-ACIS-data 