500 0 6 0           
7 Unknown 11 ACIS 5.0 NT 24 Thu Mar 25 19:16:43 1999 
-1 9.9999999999999995e-007 1e-010 
body $-1 $6 $-1 $7 #
body $-1 $8 $-1 $9 #
body $-1 $10 $-1 $11 #
body $-1 $12 $-1 $13 #
body $-1 $14 $-1 $15 #
body $-1 $16 $-1 $17 #
lump $-1 $-1 $18 $0 #
transform $-1 1 0 0 0 1 0 0 0 1 53.384197515793332 31.334195806199837 12.020829138518479 1 rotate no_reflect no_shear #
lump $-1 $-1 $19 $1 #
transform $-1 1 0 0 0 1 0 0 0 1 53.384197515793332 31.334195806199837 12.020829138518479 1 rotate no_reflect no_shear #
lump $-1 $-1 $20 $2 #
transform $-1 1 0 0 0 1 0 0 0 1 53.384197515793332 31.334195806199837 12.020829138518479 1 rotate no_reflect no_shear #
lump $-1 $-1 $21 $3 #
transform $-1 1 0 0 0 1 0 0 0 1 53.384197515793332 31.334195806199837 12.020829138518479 1 rotate no_reflect no_shear #
lump $-1 $-1 $22 $4 #
transform $-1 1 0 0 0 1 0 0 0 1 53.384197515793332 31.334195806199837 12.020829138518479 1 rotate no_reflect no_shear #
lump $-1 $-1 $23 $5 #
transform $-1 1 0 0 0 1 0 0 0 1 53.384197515793332 31.334195806199837 12.020829138518479 1 rotate no_reflect no_shear #
shell $-1 $-1 $-1 $24 $-1 $6 #
shell $-1 $-1 $-1 $25 $-1 $8 #
shell $-1 $-1 $-1 $26 $-1 $10 #
shell $-1 $-1 $-1 $27 $-1 $12 #
shell $-1 $-1 $-1 $28 $-1 $14 #
shell $-1 $-1 $-1 $29 $-1 $16 #
face $-1 $30 $31 $18 $-1 $32 forward single #
face $-1 $33 $34 $19 $-1 $35 forward single #
face $-1 $36 $37 $20 $-1 $38 reversed single #
face $-1 $39 $40 $21 $-1 $41 reversed single #
face $-1 $42 $43 $22 $-1 $44 forward single #
face $-1 $45 $46 $23 $-1 $47 forward single #
face $-1 $48 $49 $18 $-1 $50 reversed single #
loop $-1 $-1 $51 $24 #
plane-surface $-1 0 0 12.020829138518479 0 0 1 1 0 0 forward_v I I I I #
face $-1 $52 $53 $19 $-1 $54 reversed single #
loop $-1 $-1 $55 $25 #
plane-surface $-1 0 -31.334195806199837 0 0 1 0 0 0 1 forward_v I I I I #
face $-1 $56 $57 $20 $-1 $58 reversed single #
loop $-1 $-1 $59 $26 #
plane-surface $-1 0 26.370367808782113 7.7779720774930059 0 0 1 1 0 0 forward_v I I I I #
face $-1 $60 $61 $21 $-1 $62 reversed single #
loop $-1 $-1 $63 $27 #
plane-surface $-1 -28.405137491084474 17.098370103566445 70.662509462687723 0.64278761758704617 0 0.76604443648966558 0.76604443648966558 0 -0.64278761758704617 forward_v I I I I #
face $-1 $64 $65 $22 $-1 $66 forward single #
loop $-1 $67 $68 $28 #
cone-surface $-1 46.822571393425378 15.252011657367326 6.299790539570429 -0.64278761758704617 0 -0.76604443648966558 0.76604443648966558 0 -0.64278761758704617 1 I I 0 1 1 forward I I I I #
face $-1 $69 $70 $23 $-1 $71 forward single #
loop $-1 $72 $73 $29 #
cone-surface $-1 46.822571393425378 18.944728549765571 6.299790539570429 -0.64278761758704617 0 -0.76604443648966558 0.76604443648966558 0 -0.64278761758704617 1 I I 0 1 1 forward I I I I #
face $-1 $74 $75 $18 $-1 $76 reversed single #
loop $-1 $-1 $77 $30 #
plane-surface $-1 0 0 -12.020829138518479 0 0 1 1 0 0 forward_v I I I I #
coedge $-1 $78 $79 $80 $81 forward $31 $-1 #
face $-1 $82 $83 $19 $-1 $84 reversed single #
loop $-1 $-1 $85 $33 #
plane-surface $-1 0 0 -12.020829138518479 0 0 1 1 0 0 forward_v I I I I #
coedge $-1 $86 $87 $88 $89 forward $34 $-1 #
face $-1 $90 $91 $20 $-1 $92 reversed single #
loop $-1 $-1 $93 $36 #
plane-surface $-1 0 21.406539811364393 9.8994006080057417 0 1 0 0 0 1 forward_v I I I I #
coedge $-1 $94 $95 $96 $97 reversed $37 $-1 #
face $-1 $98 $99 $21 $-1 $100 forward single #
loop $-1 $-1 $101 $39 #
plane-surface $-1 40.224264784861731 12.790200395768494 152.45184446956554 0 1 0 0.64278761758704617 0 0.76604443648966558 forward_v I I I I #
coedge $-1 $102 $103 $104 $105 reversed $40 $-1 #
face $-1 $-1 $106 $22 $-1 $107 forward single #
loop $-1 $108 $109 $42 #
cone-surface $-1 45.891003096542121 15.252011657367326 5.1895906982660307 -0.64278761758704617 0 -0.76604443648966558 0.38302221824483279 0 -0.32139380879352308 1 I I -0.70710678118654746 0.70710678118654746 0.5 forward I I I I #
loop $-1 $-1 $110 $28 #
coedge $-1 $68 $68 $111 $112 reversed $43 $-1 #
face $-1 $-1 $113 $23 $-1 $114 forward single #
loop $-1 $115 $116 $45 #
cone-surface $-1 45.891003096542121 18.944728549765571 5.1895906982660307 -0.64278761758704617 0 -0.76604443648966558 0.38302221824483279 0 -0.32139380879352308 1 I I -0.70710678118654746 0.70710678118654746 0.5 forward I I I I #
loop $-1 $-1 $117 $29 #
coedge $-1 $73 $73 $118 $119 reversed $46 $-1 #
face $-1 $120 $121 $18 $-1 $122 reversed single #
loop $-1 $-1 $123 $48 #
plane-surface $-1 0 -31.334195806199837 0 0 1 0 0 0 1 forward_v I I I I #
coedge $-1 $124 $125 $126 $127 forward $49 $-1 #
coedge $-1 $128 $51 $129 $130 forward $31 $-1 #
coedge $-1 $51 $128 $131 $132 forward $31 $-1 #
coedge $-1 $133 $134 $51 $81 reversed $135 $-1 #
edge $-1 $136 -31.334195806199837 $137 31.334195806199837 $80 $138 forward 7 unknown #
face $-1 $139 $140 $19 $-1 $141 reversed single #
loop $-1 $-1 $142 $52 #
plane-surface $-1 -30.889688587975833 -41.380735735805878 0 0 1 0 0 0 1 forward_v I I I I #
coedge $-1 $143 $144 $87 $145 forward $53 $-1 #
coedge $-1 $146 $55 $147 $148 reversed $34 $-1 #
coedge $-1 $55 $146 $85 $145 reversed $34 $-1 #
coedge $-1 $149 $150 $55 $89 reversed $140 $-1 #
edge $-1 $151 -12.020829138518479 $152 12.020829138518479 $88 $153 forward 7 unknown #
face $-1 $154 $155 $20 $-1 $156 forward single #
loop $-1 $-1 $157 $56 #
plane-surface $-1 -53.384197515793332 0 0 1 0 0 0 0 -1 forward_v I I I I #
coedge $-1 $158 $159 $160 $161 reversed $57 $-1 #
coedge $-1 $162 $59 $158 $163 forward $37 $-1 #
coedge $-1 $59 $162 $164 $165 reversed $37 $-1 #
coedge $-1 $166 $167 $59 $97 forward $168 $-1 #
edge $-1 $169 8.2213559069733364 $170 18.149011901808777 $96 $171 forward 7 unknown #
face $-1 $172 $173 $21 $-1 $174 forward single #
loop $-1 $-1 $175 $60 #
plane-surface $-1 0 21.406539811364393 9.8994006080057417 0 1 0 0 0 1 forward_v I I I I #
coedge $-1 $176 $177 $178 $179 reversed $61 $-1 #
coedge $-1 $180 $63 $175 $181 reversed $40 $-1 #
coedge $-1 $63 $180 $176 $182 forward $40 $-1 #
coedge $-1 $178 $183 $63 $105 forward $173 $-1 #
edge $-1 $184 -12.85735475958117 $185 -4.2410153439852714 $104 $186 forward 7 unknown #
loop $-1 $-1 $111 $64 #
plane-surface $-1 -28.405137491084474 17.098370103566445 70.662509462687723 0.64278761758704617 0 0.76604443648966558 0.76604443648966558 0 -0.64278761758704617 forward_v I I I I #
loop $-1 $-1 $187 $42 #
coedge $-1 $109 $109 $110 $188 reversed $65 $-1 #
coedge $-1 $110 $110 $109 $188 forward $67 $-1 #
coedge $-1 $111 $111 $68 $112 forward $106 $-1 #
edge $-1 $189 0 $189 6.2831853071796004 $111 $190 forward 7 unknown #
loop $-1 $-1 $118 $69 #
plane-surface $-1 -28.405137491084474 17.098370103566445 70.662509462687723 0.64278761758704617 0 0.76604443648966558 0.76604443648966558 0 -0.64278761758704617 forward_v I I I I #
loop $-1 $-1 $191 $45 #
coedge $-1 $116 $116 $117 $192 reversed $70 $-1 #
coedge $-1 $117 $117 $116 $192 forward $72 $-1 #
coedge $-1 $118 $118 $73 $119 forward $113 $-1 #
edge $-1 $193 0 $193 6.2831853071796004 $118 $194 forward 7 unknown #
face $-1 $195 $196 $18 $-1 $197 reversed single #
loop $-1 $-1 $198 $74 #
plane-surface $-1 -53.384197515793332 0 0 1 0 0 0 0 -1 forward_v I I I I #
coedge $-1 $199 $131 $200 $201 forward $75 $-1 #
coedge $-1 $202 $77 $199 $203 forward $49 $-1 #
coedge $-1 $77 $202 $204 $205 forward $49 $-1 #
coedge $-1 $134 $133 $77 $127 reversed $135 $-1 #
edge $-1 $206 -31.334195806199837 $207 31.334195806199837 $126 $208 forward 7 unknown #
coedge $-1 $79 $78 $209 $210 forward $31 $-1 #
coedge $-1 $211 $212 $78 $130 reversed $196 $-1 #
edge $-1 $137 -53.384197515793332 $213 53.384197515793332 $129 $214 forward 7 unknown #
coedge $-1 $123 $215 $79 $132 reversed $75 $-1 #
edge $-1 $216 -53.384197515793332 $136 53.384197515793332 $131 $217 forward 7 unknown #
coedge $-1 $126 $80 $215 $218 forward $135 $-1 #
coedge $-1 $80 $126 $211 $219 reversed $135 $-1 #
loop $-1 $-1 $133 $195 #
vertex $-1 $81 $220 #
vertex $-1 $81 $221 #
straight-curve $-1 53.384197515793332 0 12.020829138518479 0 1 0 I I #
face $-1 $222 $223 $19 $-1 $224 reversed single #
loop $-1 $-1 $88 $82 #
plane-surface $-1 -32.436837937195293 -36.357465771002857 0 1 0 0 0 0 -1 forward_v I I I I #
coedge $-1 $225 $226 $227 $228 forward $83 $-1 #
coedge $-1 $229 $85 $230 $231 forward $53 $-1 #
coedge $-1 $85 $229 $149 $232 forward $53 $-1 #
edge $-1 $151 -32.436837937195293 $233 -29.342539238756373 $85 $234 forward 7 unknown #
coedge $-1 $87 $86 $235 $236 forward $34 $-1 #
coedge $-1 $237 $238 $86 $148 forward $239 $-1 #
edge $-1 $240 29.342539238756373 $152 32.436837937195293 $147 $241 forward 7 unknown #
coedge $-1 $227 $88 $144 $232 reversed $140 $-1 #
coedge $-1 $88 $227 $237 $242 reversed $140 $-1 #
vertex $-1 $145 $243 #
vertex $-1 $242 $244 #
straight-curve $-1 -32.436837937195293 -31.334195806199837 0 0 0 1 I I #
face $-1 $245 $246 $20 $-1 $247 reversed single #
loop $-1 $-1 $248 $90 #
plane-surface $-1 0 0 12.020829138518479 0 0 1 1 0 0 forward_v I I I I #
coedge $-1 $160 $249 $162 $250 forward $91 $-1 #
coedge $-1 $251 $93 $94 $163 reversed $57 $-1 #
coedge $-1 $93 $251 $248 $252 reversed $57 $-1 #
coedge $-1 $253 $157 $93 $161 forward $91 $-1 #
edge $-1 $254 2.828271773490135 $255 7.0711288345156067 $160 $256 forward 7 unknown #
coedge $-1 $95 $94 $157 $250 reversed $37 $-1 #
edge $-1 $169 -53.384197515793332 $254 53.384197515793332 $158 $257 forward 7 unknown #
coedge $-1 $258 $259 $95 $165 forward $246 $-1 #
edge $-1 $170 -53.384197515793332 $260 53.384197515793332 $164 $261 forward 7 unknown #
coedge $-1 $262 $96 $259 $263 reversed $168 $-1 #
coedge $-1 $96 $262 $251 $264 forward $168 $-1 #
loop $-1 $-1 $96 $245 #
vertex $-1 $97 $265 #
vertex $-1 $97 $266 #
straight-curve $-1 53.384197515793332 13.185183904391057 7.7779720774930059 0 1 0 I I #
face $-1 $-1 $267 $21 $-1 $268 reversed single #
loop $-1 $-1 $104 $98 #
plane-surface $-1 0 0 12.020829138518479 0 0 1 1 0 0 forward_v I I I I #
coedge $-1 $269 $270 $102 $181 forward $99 $-1 #
coedge $-1 $177 $101 $103 $182 reversed $61 $-1 #
coedge $-1 $101 $176 $271 $272 reversed $61 $-1 #
coedge $-1 $273 $104 $101 $179 forward $173 $-1 #
edge $-1 $185 21.369161854806052 $274 33.272065123362466 $178 $275 forward 7 unknown #
coedge $-1 $103 $102 $276 $277 reversed $40 $-1 #
edge $-1 $278 -76.359709271260328 $184 -60.821572445803476 $175 $279 forward 7 unknown #
edge $-1 $280 -106.76839503158666 $185 -91.230258206129804 $176 $281 forward 7 unknown #
coedge $-1 $104 $273 $269 $282 forward $173 $-1 #
vertex $-1 $105 $283 #
vertex $-1 $105 $284 #
straight-curve $-1 41.481294247236917 8.5491850517832226 12.020829138518486 0 -1 0 I I #
coedge $-1 $187 $187 $-1 $285 reversed $108 $-1 #
edge $-1 $286 0 $286 6.2831853071796004 $109 $287 forward 7 unknown #
vertex $-1 $112 $288 #
ellipse-curve $-1 47.432745881515125 15.252011657367326 7.0269681626300127 0.64278761758704617 0 0.76604443648966558 0.76604443648966558 0 -0.64278761758704617 1 I I #
coedge $-1 $191 $191 $-1 $289 reversed $115 $-1 #
edge $-1 $290 0 $290 6.2831853071796004 $116 $291 forward 7 unknown #
vertex $-1 $119 $292 #
ellipse-curve $-1 47.432745881515125 18.944728549765571 7.0269681626300127 0.64278761758704617 0 0.76604443648966558 0.76604443648966558 0 -0.64278761758704617 1 I I #
face $-1 $-1 $135 $18 $-1 $293 reversed single #
loop $-1 $-1 $211 $120 #
plane-surface $-1 0 31.334195806199837 0 0 -1 0 0 0 -1 forward_v I I I I #
coedge $-1 $294 $209 $212 $295 forward $121 $-1 #
coedge $-1 $215 $123 $124 $203 reversed $75 $-1 #
coedge $-1 $209 $294 $123 $201 reversed $121 $-1 #
edge $-1 $216 -12.020829138518479 $296 12.020829138518479 $200 $297 forward 7 unknown #
coedge $-1 $125 $124 $294 $298 forward $49 $-1 #
edge $-1 $207 -53.384197515793332 $296 53.384197515793332 $199 $299 forward 7 unknown #
coedge $-1 $212 $211 $125 $205 reversed $196 $-1 #
edge $-1 $300 -53.384197515793332 $206 53.384197515793332 $204 $301 forward 7 unknown #
vertex $-1 $127 $302 #
vertex $-1 $218 $303 #
straight-curve $-1 53.384197515793332 0 -12.020829138518479 0 -1 0 I I #
coedge $-1 $198 $200 $128 $210 reversed $121 $-1 #
edge $-1 $213 -31.334195806199837 $216 31.334195806199837 $209 $304 forward 7 unknown #
coedge $-1 $204 $129 $134 $219 forward $196 $-1 #
coedge $-1 $129 $204 $198 $295 reversed $196 $-1 #
vertex $-1 $130 $305 #
straight-curve $-1 0 31.334195806199837 12.020829138518479 -1 0 0 I I #
coedge $-1 $131 $199 $133 $218 reversed $75 $-1 #
vertex $-1 $210 $306 #
straight-curve $-1 0 -31.334195806199837 12.020829138518479 1 0 0 I I #
edge $-1 $136 -12.020829138518479 $207 12.020829138518479 $133 $307 forward 7 unknown #
edge $-1 $137 -12.020829138518479 $206 12.020829138518479 $134 $308 forward 7 unknown #
point $-1 53.384197515793332 -31.334195806199837 12.020829138518479 #
point $-1 53.384197515793332 31.334195806199837 12.020829138518479 #
face $-1 $-1 $239 $19 $-1 $309 forward single #
loop $-1 $-1 $310 $139 #
plane-surface $-1 -29.342539238756373 -36.357465771002857 0 -1 0 0 0 0 1 forward_v I I I I #
coedge $-1 $311 $142 $229 $312 reversed $83 $-1 #
coedge $-1 $142 $311 $313 $314 reversed $83 $-1 #
coedge $-1 $150 $149 $142 $228 reversed $140 $-1 #
edge $-1 $315 -12.020829138518479 $316 12.020829138518479 $227 $317 forward 7 unknown #
coedge $-1 $144 $143 $225 $312 forward $53 $-1 #
coedge $-1 $235 $310 $143 $231 reversed $223 $-1 #
edge $-1 $233 -5.0232699648030206 $318 5.0232699648030206 $230 $319 forward 7 unknown #
edge $-1 $316 -5.0232699648030206 $151 5.0232699648030206 $149 $320 forward 7 unknown #
vertex $-1 $231 $321 #
straight-curve $-1 0 -31.334195806199837 -12.020829138518479 1 0 0 I I #
coedge $-1 $322 $230 $146 $236 reversed $223 $-1 #
edge $-1 $240 -12.020829138518479 $233 12.020829138518479 $235 $323 forward 7 unknown #
coedge $-1 $313 $147 $150 $242 forward $239 $-1 #
coedge $-1 $147 $313 $322 $324 forward $239 $-1 #
loop $-1 $-1 $147 $222 #
vertex $-1 $148 $325 #
straight-curve $-1 0 -31.334195806199837 12.020829138518479 -1 0 0 I I #
edge $-1 $152 -5.0232699648030206 $315 5.0232699648030206 $150 $326 forward 7 unknown #
point $-1 -32.436837937195293 -31.334195806199837 -12.020829138518479 #
point $-1 -32.436837937195293 -31.334195806199837 12.020829138518479 #
face $-1 $-1 $168 $20 $-1 $327 reversed single #
loop $-1 $-1 $164 $154 #
plane-surface $-1 0 31.334195806199837 0 0 -1 0 0 0 -1 forward_v I I I I #
coedge $-1 $328 $329 $159 $252 forward $155 $-1 #
coedge $-1 $157 $253 $258 $330 forward $91 $-1 #
edge $-1 $260 -18.149011901808777 $254 -8.2213559069733364 $157 $331 forward 7 unknown #
coedge $-1 $159 $158 $167 $264 reversed $57 $-1 #
edge $-1 $255 -53.384197515793332 $332 53.384197515793332 $248 $333 forward 7 unknown #
coedge $-1 $249 $160 $329 $334 reversed $91 $-1 #
vertex $-1 $250 $335 #
vertex $-1 $252 $336 #
straight-curve $-1 -53.384197515793332 21.406539811364393 4.9497003040028709 0 0 1 I I #
straight-curve $-1 0 21.406539811364393 7.7779720774930059 -1 0 0 I I #
coedge $-1 $337 $164 $249 $330 reversed $246 $-1 #
coedge $-1 $164 $337 $166 $263 forward $246 $-1 #
vertex $-1 $250 $338 #
straight-curve $-1 0 31.334195806199837 7.7779720774930059 -1 0 0 I I #
coedge $-1 $167 $166 $328 $339 reversed $168 $-1 #
edge $-1 $340 -12.020829138518479 $170 -7.7779720774930059 $166 $341 forward 7 unknown #
edge $-1 $332 -7.0711288345156067 $169 -2.828271773490135 $167 $342 forward 7 unknown #
point $-1 53.384197515793332 21.406539811364393 7.7779720774930059 #
point $-1 53.384197515793332 31.334195806199833 7.7779720774930059 #
loop $-1 $-1 $343 $172 #
plane-surface $-1 53.384197515793332 0 0 -1 0 0 0 0 1 forward_v I I I I #
coedge $-1 $270 $175 $183 $282 reversed $99 $-1 #
coedge $-1 $175 $269 $343 $344 reversed $99 $-1 #
coedge $-1 $276 $345 $177 $272 forward $267 $-1 #
edge $-1 $274 64.205093096264292 $280 74.192815048041254 $271 $346 forward 7 unknown #
coedge $-1 $183 $178 $345 $347 forward $173 $-1 #
vertex $-1 $347 $348 #
straight-curve $-1 20.112132392430865 12.790200395768494 12.020829138518479 1 0 0 I I #
coedge $-1 $343 $271 $180 $277 forward $267 $-1 #
edge $-1 $280 4.2410153439852714 $278 12.857354759581174 $276 $349 forward 7 unknown #
vertex $-1 $344 $350 #
straight-curve $-1 -5.1107329434239741 21.406539811364393 51.116182788854431 -0.76604443648966558 0 0.64278761758704617 I I #
vertex $-1 $277 $351 #
straight-curve $-1 -28.405137491084474 12.790200395768494 70.662509462687723 -0.76604443648966558 0 0.64278761758704617 I I #
edge $-1 $352 -53.384197515793332 $184 -41.481294247236917 $183 $353 forward 7 unknown #
point $-1 41.481294247236917 21.406539811364393 12.020829138518479 #
point $-1 41.481294247236917 12.790200395768494 12.020829138518479 #
edge $-1 $354 1 $354 0 $187 $-1 forward 7 unknown #
vertex $-1 $188 $355 #
ellipse-curve $-1 46.212396905335645 15.252011657367326 5.5726129165108631 0.64278761758704617 0 0.76604443648966558 0.76604443648966558 0 -0.64278761758704617 1 I I #
point $-1 48.198790318004775 15.252011657367326 6.3841805450429492 #
edge $-1 $356 1 $356 0 $191 $-1 forward 7 unknown #
vertex $-1 $192 $357 #
ellipse-curve $-1 46.212396905335645 18.944728549765571 5.5726129165108631 0.64278761758704617 0 0.76604443648966558 0.76604443648966558 0 -0.64278761758704617 1 I I #
point $-1 48.198790318004775 18.944728549765571 6.3841805450429492 #
plane-surface $-1 53.384197515793332 0 0 -1 0 0 0 0 1 forward_v I I I I #
coedge $-1 $200 $198 $202 $298 reversed $121 $-1 #
edge $-1 $213 -12.020829138518479 $300 12.020829138518479 $212 $358 forward 7 unknown #
vertex $-1 $298 $359 #
straight-curve $-1 -53.384197515793332 -31.334195806199837 0 0 0 -1 I I #
edge $-1 $296 -31.334195806199837 $300 31.334195806199837 $294 $360 forward 7 unknown #
straight-curve $-1 0 -31.334195806199837 -12.020829138518479 -1 0 0 I I #
vertex $-1 $205 $361 #
straight-curve $-1 0 31.334195806199837 -12.020829138518479 1 0 0 I I #
point $-1 53.384197515793332 31.334195806199837 -12.020829138518479 #
point $-1 53.384197515793332 -31.334195806199837 -12.020829138518479 #
straight-curve $-1 -53.384197515793332 0 12.020829138518479 0 -1 0 I I #
point $-1 -53.384197515793332 31.334195806199837 12.020829138518479 #
point $-1 -53.384197515793332 -31.334195806199837 12.020829138518479 #
straight-curve $-1 53.384197515793332 -31.334195806199837 0 0 0 -1 I I #
straight-curve $-1 53.384197515793332 31.334195806199837 0 0 0 -1 I I #
plane-surface $-1 0 0 12.020829138518479 0 0 1 1 0 0 forward_v I I I I #
coedge $-1 $230 $322 $311 $362 forward $223 $-1 #
coedge $-1 $226 $225 $310 $362 reversed $83 $-1 #
edge $-1 $318 -1.5471493492194597 $316 1.5471493492194597 $225 $363 forward 7 unknown #
coedge $-1 $238 $237 $226 $314 forward $239 $-1 #
edge $-1 $315 -1.5471493492194597 $364 1.5471493492194597 $226 $365 forward 7 unknown #
vertex $-1 $242 $366 #
vertex $-1 $232 $367 #
straight-curve $-1 -32.436837937195293 -41.380735735805878 0 0 0 -1 I I #
vertex $-1 $362 $368 #
straight-curve $-1 -29.342539238756373 -36.357465771002857 -12.020829138518479 0 -1 0 I I #
straight-curve $-1 -32.436837937195293 -36.357465771002857 -12.020829138518479 0 1 0 I I #
point $-1 -29.342539238756373 -31.334195806199837 -12.020829138518479 #
coedge $-1 $310 $235 $238 $324 reversed $223 $-1 #
straight-curve $-1 -29.342539238756373 -31.334195806199837 0 0 0 -1 I I #
edge $-1 $364 -5.0232699648030206 $240 5.0232699648030206 $322 $369 forward 7 unknown #
point $-1 -29.342539238756373 -31.334195806199837 12.020829138518479 #
straight-curve $-1 -32.436837937195293 -36.357465771002857 12.020829138518479 0 -1 0 I I #
plane-surface $-1 53.384197515793332 0 0 -1 0 0 0 0 1 forward_v I I I I #
coedge $-1 $370 $248 $262 $339 forward $155 $-1 #
coedge $-1 $248 $370 $253 $334 forward $155 $-1 #
edge $-1 $371 -12.020829138518479 $260 -7.7779720774930059 $258 $372 forward 7 unknown #
straight-curve $-1 -53.384197515793332 13.185183904391057 7.7779720774930059 0 -1 0 I I #
vertex $-1 $339 $373 #
straight-curve $-1 0 21.406539811364393 12.020829138518479 1 0 0 I I #
edge $-1 $371 -31.334195806199837 $255 -21.406539811364393 $253 $374 forward 7 unknown #
point $-1 -53.384197515793332 21.406539811364393 7.7779720774930059 #
point $-1 -53.384197515793332 21.406539811364393 12.020829138518478 #
coedge $-1 $259 $258 $370 $375 reversed $246 $-1 #
point $-1 -53.384197515793332 31.334195806199833 7.7779720774930059 #
edge $-1 $332 21.406539811364393 $340 31.334195806199837 $262 $376 forward 7 unknown #
vertex $-1 $339 $377 #
straight-curve $-1 53.384197515793332 31.334195806199837 0 0 0 -1 I I #
straight-curve $-1 53.384197515793332 21.406539811364393 4.9497003040028709 0 0 -1 I I #
coedge $-1 $345 $276 $270 $344 forward $267 $-1 #
edge $-1 $278 -74.192815048041254 $352 -64.205093096264292 $343 $378 forward 7 unknown #
coedge $-1 $271 $343 $273 $347 reversed $267 $-1 #
straight-curve $-1 53.384197515793332 12.790200395768494 76.225922234782772 0 0 -1 I I #
edge $-1 $274 12.790200395768494 $352 21.406539811364393 $345 $379 forward 7 unknown #
point $-1 53.384197515793332 12.790200395768494 12.020829138518479 #
straight-curve $-1 53.384197515793318 8.5491850517832226 2.0331071867415318 0 1 0 I I #
point $-1 53.384197515793332 21.406539811364397 2.0331071867415176 #
point $-1 53.384197515793332 12.790200395768494 2.0331071867415176 #
vertex $-1 $282 $380 #
straight-curve $-1 0 21.406539811364393 12.020829138518479 -1 0 0 I I #
vertex $-1 $285 $381 #
point $-1 46.97844134182531 15.252011657367326 4.9298252989238174 #
vertex $-1 $289 $382 #
point $-1 46.97844134182531 18.944728549765571 4.9298252989238174 #
straight-curve $-1 -53.384197515793332 31.334195806199837 0 0 0 -1 I I #
point $-1 -53.384197515793332 -31.334195806199837 -12.020829138518479 #
straight-curve $-1 -53.384197515793332 0 -12.020829138518479 0 1 0 I I #
point $-1 -53.384197515793332 31.334195806199837 -12.020829138518479 #
edge $-1 $364 -12.020829138518479 $318 12.020829138518479 $310 $383 forward 7 unknown #
straight-curve $-1 -30.889688587975833 -41.380735735805878 -12.020829138518479 -1 0 0 I I #
vertex $-1 $324 $384 #
straight-curve $-1 -30.889688587975833 -41.380735735805878 12.020829138518479 1 0 0 I I #
point $-1 -32.436837937195293 -41.380735735805878 12.020829138518479 #
point $-1 -32.436837937195293 -41.380735735805878 -12.020829138518479 #
point $-1 -29.342539238756373 -41.380735735805878 -12.020829138518479 #
straight-curve $-1 -29.342539238756373 -36.357465771002857 12.020829138518479 0 1 0 I I #
coedge $-1 $329 $328 $337 $375 forward $155 $-1 #
vertex $-1 $375 $385 #
straight-curve $-1 -53.384197515793332 31.334195806199837 0 0 0 -1 I I #
point $-1 53.384197515793332 21.406539811364393 12.020829138518478 #
straight-curve $-1 -53.384197515793332 0 12.020829138518479 0 -1 0 I I #
edge $-1 $340 -53.384197515793332 $371 53.384197515793332 $337 $386 forward 7 unknown #
straight-curve $-1 53.384197515793332 0 12.020829138518479 0 1 0 I I #
point $-1 53.384197515793332 31.334195806199837 12.020829138518479 #
straight-curve $-1 53.384197515793332 21.406539811364397 76.225922234782772 0 0 1 I I #
straight-curve $-1 53.384197515793332 0 12.020829138518479 0 1 0 I I #
point $-1 53.384197515793332 21.406539811364393 12.020829138518478 #
point $-1 45.569609287748598 15.252011657367326 4.8065684800211983 #
point $-1 45.569609287748598 18.944728549765571 4.8065684800211983 #
straight-curve $-1 -29.342539238756373 -41.380735735805878 0 0 0 -1 I I #
point $-1 -29.342539238756373 -41.380735735805878 12.020829138518479 #
point $-1 -53.384197515793332 31.334195806199837 12.020829138518479 #
straight-curve $-1 0 31.334195806199837 12.020829138518479 -1 0 0 I I #
End-of-ACIS-data 