500 0 16 0           
7 Unknown 11 ACIS 5.0 NT 24 Fri Mar 26 19:56:59 1999 
-1 9.9999999999999995e-007 1e-010 
body $-1 $16 $-1 $17 #
body $-1 $18 $-1 $19 #
body $-1 $20 $-1 $21 #
body $-1 $22 $-1 $23 #
body $-1 $24 $-1 $25 #
body $-1 $26 $-1 $27 #
body $-1 $28 $-1 $29 #
body $-1 $30 $-1 $31 #
body $-1 $32 $-1 $33 #
body $-1 $34 $-1 $35 #
body $-1 $36 $-1 $37 #
body $-1 $38 $-1 $39 #
body $-1 $40 $-1 $41 #
body $-1 $42 $-1 $43 #
body $-1 $44 $-1 $45 #
body $-1 $46 $-1 $47 #
lump $-1 $-1 $48 $0 #
transform $-1 1 0 0 0 1 0 0 0 1 45.434736167485582 20.738411955374758 7.6449278801894351 1 rotate no_reflect no_shear #
lump $-1 $-1 $49 $1 #
transform $-1 1 0 0 0 1 0 0 0 1 45.434736167485582 20.738411955374758 7.6449278801894351 1 rotate no_reflect no_shear #
lump $-1 $-1 $50 $2 #
transform $-1 1 0 0 0 1 0 0 0 1 45.434736167485582 20.738411955374758 7.6449278801894351 1 rotate no_reflect no_shear #
lump $-1 $-1 $51 $3 #
transform $-1 1 0 0 0 1 0 0 0 1 45.434736167485582 20.738411955374758 7.6449278801894351 1 rotate no_reflect no_shear #
lump $-1 $-1 $52 $4 #
transform $-1 1 0 0 0 1 0 0 0 1 45.434736167485582 20.738411955374758 7.6449278801894351 1 rotate no_reflect no_shear #
lump $-1 $-1 $53 $5 #
transform $-1 1 0 0 0 1 0 0 0 1 45.434736167485582 20.738411955374758 7.6449278801894351 1 rotate no_reflect no_shear #
lump $-1 $-1 $54 $6 #
transform $-1 1 0 0 0 1 0 0 0 1 45.434736167485582 20.738411955374758 7.6449278801894351 1 rotate no_reflect no_shear #
lump $-1 $-1 $55 $7 #
transform $-1 1 0 0 0 1 0 0 0 1 45.434736167485582 20.738411955374758 7.6449278801894351 1 rotate no_reflect no_shear #
lump $-1 $-1 $56 $8 #
transform $-1 1 0 0 0 1 0 0 0 1 45.434736167485582 20.738411955374758 7.6449278801894351 1 rotate no_reflect no_shear #
lump $-1 $-1 $57 $9 #
transform $-1 1 0 0 0 1 0 0 0 1 45.434736167485582 20.738411955374758 7.6449278801894351 1 rotate no_reflect no_shear #
lump $-1 $-1 $58 $10 #
transform $-1 1 0 0 0 1 0 0 0 1 45.434736167485582 20.738411955374758 7.6449278801894351 1 rotate no_reflect no_shear #
lump $-1 $-1 $59 $11 #
transform $-1 1 0 0 0 1 0 0 0 1 45.434736167485582 20.738411955374758 7.6449278801894351 1 rotate no_reflect no_shear #
lump $-1 $-1 $60 $12 #
transform $-1 1 0 0 0 1 0 0 0 1 45.434736167485582 20.738411955374758 7.6449278801894351 1 rotate no_reflect no_shear #
lump $-1 $-1 $61 $13 #
transform $-1 1 0 0 0 1 0 0 0 1 45.434736167485582 20.738411955374758 7.6449278801894351 1 rotate no_reflect no_shear #
lump $-1 $-1 $62 $14 #
transform $-1 1 0 0 0 1 0 0 0 1 45.434736167485582 20.738411955374758 7.6449278801894351 1 rotate no_reflect no_shear #
lump $-1 $-1 $63 $15 #
transform $-1 1 0 0 0 1 0 0 0 1 45.434736167485582 20.738411955374758 7.6449278801894351 1 rotate no_reflect no_shear #
shell $-1 $-1 $-1 $64 $-1 $16 #
shell $-1 $-1 $-1 $65 $-1 $18 #
shell $-1 $-1 $-1 $66 $-1 $20 #
shell $-1 $-1 $-1 $67 $-1 $22 #
shell $-1 $-1 $-1 $68 $-1 $24 #
shell $-1 $-1 $-1 $69 $-1 $26 #
shell $-1 $-1 $-1 $70 $-1 $28 #
shell $-1 $-1 $-1 $71 $-1 $30 #
shell $-1 $-1 $-1 $72 $-1 $32 #
shell $-1 $-1 $-1 $73 $-1 $34 #
shell $-1 $-1 $-1 $74 $-1 $36 #
shell $-1 $-1 $-1 $75 $-1 $38 #
shell $-1 $-1 $-1 $76 $-1 $40 #
shell $-1 $-1 $-1 $77 $-1 $42 #
shell $-1 $-1 $-1 $78 $-1 $44 #
shell $-1 $-1 $-1 $79 $-1 $46 #
face $-1 $80 $81 $48 $-1 $82 forward single #
face $-1 $83 $84 $49 $-1 $85 forward single #
face $-1 $86 $87 $50 $-1 $88 reversed single #
face $-1 $89 $90 $51 $-1 $91 forward single #
face $-1 $92 $93 $52 $-1 $94 forward single #
face $-1 $95 $96 $53 $-1 $97 forward single #
face $-1 $98 $99 $54 $-1 $100 reversed single #
face $-1 $101 $102 $55 $-1 $103 forward single #
face $-1 $104 $105 $56 $-1 $106 forward single #
face $-1 $107 $108 $57 $-1 $109 forward single #
face $-1 $110 $111 $58 $-1 $112 reversed single #
face $-1 $113 $114 $59 $-1 $115 forward single #
face $-1 $116 $117 $60 $-1 $118 forward single #
face $-1 $119 $120 $61 $-1 $121 reversed single #
face $-1 $122 $123 $62 $-1 $124 forward single #
face $-1 $125 $126 $63 $-1 $127 forward single #
face $-1 $128 $129 $48 $-1 $130 reversed single #
loop $-1 $-1 $131 $64 #
plane-surface $-1 0 0 7.6449278801894351 0 0 1 1 0 0 forward_v I I I I #
face $-1 $132 $133 $49 $-1 $134 reversed single #
loop $-1 $-1 $135 $65 #
plane-surface $-1 0 -15.997035476695523 -4.6449278801894351 0 0 1 1 0 0 forward_v I I I I #
face $-1 $136 $137 $50 $-1 $138 reversed single #
loop $-1 $-1 $139 $66 #
plane-surface $-1 -101.37957026887405 -6.6113499675018428 74.406516049428149 0 1 0 -0.61566148304635926 0 0.78801074757464917 forward_v I I I I #
face $-1 $140 $141 $51 $-1 $142 forward single #
loop $-1 $143 $144 $67 #
cone-surface $-1 -41.767698336432545 -5.2924525866267196 4.497346321445459 0.61566148304635926 0 -0.78801074757464917 0.39400537378732459 0 0.30783074152317963 1 I I 0 1 0.5 forward I I I I #
face $-1 $145 $146 $52 $-1 $147 forward single #
loop $-1 $148 $149 $68 #
cone-surface $-1 -41.767698336432545 -3.3141065153140374 4.497346321445459 0.61566148304635926 0 -0.78801074757464917 0.39400537378732459 0 0.30783074152317963 1 I I 0 1 0.5 forward I I I I #
face $-1 $150 $151 $53 $-1 $152 forward single #
loop $-1 $153 $154 $69 #
cone-surface $-1 -41.767698336432545 -1.3357604440013553 4.497346321445459 0.61566148304635926 0 -0.78801074757464917 0.39400537378732459 0 0.30783074152317963 1 I I 0 1 0.5 forward I I I I #
face $-1 $155 $156 $54 $-1 $157 reversed single #
loop $-1 $-1 $158 $70 #
plane-surface $-1 -101.37957026887405 9.3856855091936797 74.406516049428149 0 1 0 -0.61566148304635926 0 0.78801074757464917 forward_v I I I I #
face $-1 $159 $160 $55 $-1 $161 forward single #
loop $-1 $162 $163 $71 #
cone-surface $-1 -41.767698336432545 10.704582890068803 4.497346321445459 0.61566148304635926 0 -0.78801074757464917 0.39400537378732459 0 0.30783074152317963 1 I I 0 1 0.5 forward I I I I #
face $-1 $164 $165 $56 $-1 $166 forward single #
loop $-1 $167 $168 $72 #
cone-surface $-1 -41.767698336432545 12.682928961381485 4.497346321445459 0.61566148304635926 0 -0.78801074757464917 0.39400537378732459 0 0.30783074152317963 1 I I 0 1 0.5 forward I I I I #
face $-1 $169 $170 $57 $-1 $171 forward single #
loop $-1 $172 $173 $73 #
cone-surface $-1 -41.767698336432545 14.661275032694164 4.497346321445459 0.61566148304635926 0 -0.78801074757464917 0.39400537378732459 0 0.30783074152317963 1 I I 0 1 0.5 forward I I I I #
face $-1 $174 $175 $58 $-1 $176 reversed single #
loop $-1 $-1 $177 $74 #
plane-surface $-1 36.47041398664085 4.7413764786792409 130.46574244072761 0 -1 0 -0.6560590369687036 0 -0.75470957328743171 forward_v I I I I #
face $-1 $178 $179 $59 $-1 $180 forward single #
loop $-1 $181 $182 $75 #
cone-surface $-1 41.917438418292029 -0.55375180800112389 4.4677334538640379 -0.6560590369687036 0 -0.75470957328743171 0.37735478664371586 0 -0.3280295184843518 1 I I 0 1 0.5 forward I I I I #
face $-1 $183 $184 $60 $-1 $185 forward single #
loop $-1 $186 $187 $76 #
cone-surface $-1 41.917438418292029 2.6233251640070918 4.4677334538640379 -0.6560590369687036 0 -0.75470957328743171 0.37735478664371586 0 -0.3280295184843518 1 I I 0 1 0.5 forward I I I I #
face $-1 $188 $189 $61 $-1 $190 reversed single #
loop $-1 $-1 $191 $77 #
plane-surface $-1 36.47041398664085 12.154556080031748 130.46574244072761 0 -1 0 -0.6560590369687036 0 -0.75470957328743171 forward_v I I I I #
face $-1 $192 $193 $62 $-1 $194 forward single #
loop $-1 $195 $196 $78 #
cone-surface $-1 41.917438418292029 6.859427793351383 4.4677334538640379 -0.6560590369687036 0 -0.75470957328743171 0.37735478664371586 0 -0.3280295184843518 1 I I 0 1 0.5 forward I I I I #
face $-1 $197 $198 $63 $-1 $199 forward single #
loop $-1 $200 $201 $79 #
cone-surface $-1 41.917438418292029 10.036504765359599 4.4677334538640379 -0.6560590369687036 0 -0.75470957328743171 0.37735478664371586 0 -0.3280295184843518 1 I I 0 1 0.5 forward I I I I #
face $-1 $202 $203 $48 $-1 $204 reversed single #
loop $-1 $-1 $205 $80 #
plane-surface $-1 0 0 -7.6449278801894351 0 0 1 1 0 0 forward_v I I I I #
coedge $-1 $206 $207 $208 $209 forward $81 $-1 #
face $-1 $210 $211 $49 $-1 $212 reversed single #
loop $-1 $-1 $213 $83 #
plane-surface $-1 0 -11.255658998016287 -6.1449278801894351 0 -1 0 0 0 -1 forward_v I I I I #
coedge $-1 $214 $215 $216 $217 reversed $84 $-1 #
face $-1 $218 $219 $50 $-1 $220 reversed single #
loop $-1 $-1 $221 $86 #
plane-surface $-1 -45.434736167485589 -3.3141065153140374 2.8003952230336182 -0.61566148304635926 0 0.78801074757464917 0.78801074757464917 0 0.61566148304635926 forward_v I I I I #
coedge $-1 $222 $223 $224 $225 reversed $87 $-1 #
face $-1 $-1 $226 $51 $-1 $227 forward single #
loop $-1 $228 $229 $89 #
cone-surface $-1 -41.047104590211553 -5.2924525866267196 3.5750284043857334 0.61566148304635926 0 -0.78801074757464917 0.19700268689366229 0 0.15391537076158981 1 I I -0.70710678118654746 0.70710678118654746 0.25 forward I I I I #
loop $-1 $-1 $230 $67 #
coedge $-1 $144 $144 $231 $232 reversed $90 $-1 #
face $-1 $-1 $233 $52 $-1 $234 forward single #
loop $-1 $235 $236 $92 #
cone-surface $-1 -41.047104590211553 -3.3141065153140374 3.5750284043857334 0.61566148304635926 0 -0.78801074757464917 0.19700268689366229 0 0.15391537076158981 1 I I -0.70710678118654746 0.70710678118654746 0.25 forward I I I I #
loop $-1 $-1 $237 $68 #
coedge $-1 $149 $149 $238 $239 reversed $93 $-1 #
face $-1 $-1 $240 $53 $-1 $241 forward single #
loop $-1 $242 $243 $95 #
cone-surface $-1 -41.047104590211553 -1.3357604440013553 3.5750284043857334 0.61566148304635926 0 -0.78801074757464917 0.19700268689366229 0 0.15391537076158981 1 I I -0.70710678118654746 0.70710678118654746 0.25 forward I I I I #
loop $-1 $-1 $244 $69 #
coedge $-1 $154 $154 $245 $246 reversed $96 $-1 #
face $-1 $247 $248 $54 $-1 $249 reversed single #
loop $-1 $-1 $250 $98 #
plane-surface $-1 -45.434736167485589 12.682928961381485 2.8003952230336182 -0.61566148304635926 0 0.78801074757464917 0.78801074757464917 0 0.61566148304635926 forward_v I I I I #
coedge $-1 $251 $252 $253 $254 reversed $99 $-1 #
face $-1 $-1 $255 $55 $-1 $256 forward single #
loop $-1 $257 $258 $101 #
cone-surface $-1 -41.047104590211553 10.704582890068803 3.5750284043857334 0.61566148304635926 0 -0.78801074757464917 0.19700268689366229 0 0.15391537076158981 1 I I -0.70710678118654746 0.70710678118654746 0.25 forward I I I I #
loop $-1 $-1 $259 $71 #
coedge $-1 $163 $163 $260 $261 reversed $102 $-1 #
face $-1 $-1 $262 $56 $-1 $263 forward single #
loop $-1 $264 $265 $104 #
cone-surface $-1 -41.047104590211553 12.682928961381485 3.5750284043857334 0.61566148304635926 0 -0.78801074757464917 0.19700268689366229 0 0.15391537076158981 1 I I -0.70710678118654746 0.70710678118654746 0.25 forward I I I I #
loop $-1 $-1 $266 $72 #
coedge $-1 $168 $168 $267 $268 reversed $105 $-1 #
face $-1 $-1 $269 $57 $-1 $270 forward single #
loop $-1 $271 $272 $107 #
cone-surface $-1 -41.047104590211553 14.661275032694164 3.5750284043857334 0.61566148304635926 0 -0.78801074757464917 0.19700268689366229 0 0.15391537076158981 1 I I -0.70710678118654746 0.70710678118654746 0.25 forward I I I I #
loop $-1 $-1 $273 $73 #
coedge $-1 $173 $173 $274 $275 reversed $108 $-1 #
face $-1 $276 $277 $58 $-1 $278 reversed single #
loop $-1 $-1 $279 $110 #
plane-surface $-1 -23.145324523294583 1.0347866780029875 61.885681749947437 0.6560590369687036 0 0.75470957328743171 0.75470957328743171 0 -0.6560590369687036 forward_v I I I I #
coedge $-1 $280 $281 $282 $283 reversed $111 $-1 #
face $-1 $-1 $284 $59 $-1 $285 forward single #
loop $-1 $286 $287 $113 #
cone-surface $-1 41.32773210352903 -0.55375180800112389 3.789353954305497 -0.6560590369687036 0 -0.75470957328743171 0.18867739332185793 0 -0.1640147592421759 1 I I -0.70710678118654746 0.70710678118654746 0.25 forward I I I I #
loop $-1 $-1 $288 $75 #
coedge $-1 $182 $182 $289 $290 reversed $114 $-1 #
face $-1 $-1 $291 $60 $-1 $292 forward single #
loop $-1 $293 $294 $116 #
cone-surface $-1 41.32773210352903 2.6233251640070918 3.789353954305497 -0.6560590369687036 0 -0.75470957328743171 0.18867739332185793 0 -0.1640147592421759 1 I I -0.70710678118654746 0.70710678118654746 0.25 forward I I I I #
loop $-1 $-1 $295 $76 #
coedge $-1 $187 $187 $296 $297 reversed $117 $-1 #
face $-1 $298 $299 $61 $-1 $300 forward single #
loop $-1 $-1 $301 $119 #
plane-surface $-1 -23.145324523294583 1.0347866780029875 61.885681749947437 0.6560590369687036 0 0.75470957328743171 0.75470957328743171 0 -0.6560590369687036 forward_v I I I I #
coedge $-1 $302 $303 $304 $305 reversed $120 $-1 #
face $-1 $-1 $306 $62 $-1 $307 forward single #
loop $-1 $308 $309 $122 #
cone-surface $-1 41.32773210352903 6.859427793351383 3.789353954305497 -0.6560590369687036 0 -0.75470957328743171 0.18867739332185793 0 -0.1640147592421759 1 I I -0.70710678118654746 0.70710678118654746 0.25 forward I I I I #
loop $-1 $-1 $310 $78 #
coedge $-1 $196 $196 $311 $312 reversed $123 $-1 #
face $-1 $-1 $313 $63 $-1 $314 forward single #
loop $-1 $315 $316 $125 #
cone-surface $-1 41.32773210352903 10.036504765359599 3.789353954305497 -0.6560590369687036 0 -0.75470957328743171 0.18867739332185793 0 -0.1640147592421759 1 I I -0.70710678118654746 0.70710678118654746 0.25 forward I I I I #
loop $-1 $-1 $317 $79 #
coedge $-1 $201 $201 $318 $319 reversed $126 $-1 #
face $-1 $320 $321 $48 $-1 $322 reversed single #
loop $-1 $-1 $323 $128 #
plane-surface $-1 0 -20.738411955374758 0 0 1 0 0 0 1 forward_v I I I I #
coedge $-1 $324 $325 $326 $327 forward $129 $-1 #
coedge $-1 $328 $131 $329 $330 forward $81 $-1 #
coedge $-1 $131 $328 $331 $332 forward $81 $-1 #
coedge $-1 $333 $334 $131 $209 reversed $335 $-1 #
edge $-1 $336 -20.738411955374758 $337 20.738411955374758 $208 $338 forward 7 unknown #
face $-1 $339 $340 $49 $-1 $341 reversed single #
loop $-1 $-1 $342 $132 #
plane-surface $-1 0 0 -7.6449278801894351 0 0 1 1 0 0 forward_v I I I I #
coedge $-1 $343 $344 $345 $346 reversed $133 $-1 #
coedge $-1 $347 $135 $344 $348 forward $84 $-1 #
coedge $-1 $135 $347 $349 $350 reversed $84 $-1 #
coedge $-1 $351 $345 $135 $217 forward $340 $-1 #
edge $-1 $352 3.2571412596685256 $353 12.739894217026997 $216 $354 forward 7 unknown #
face $-1 $355 $356 $50 $-1 $357 forward single #
loop $-1 $-1 $358 $136 #
plane-surface $-1 -101.37957026887405 -0.016863063126232092 74.406516049428149 0 -1 0 0.61566148304635926 0 -0.78801074757464917 forward_v I I I I #
coedge $-1 $359 $360 $361 $362 reversed $137 $-1 #
coedge $-1 $223 $139 $363 $364 reversed $87 $-1 #
coedge $-1 $139 $222 $359 $365 reversed $87 $-1 #
coedge $-1 $361 $366 $139 $225 forward $356 $-1 #
edge $-1 $367 5.255048966951442 $368 11.455767878138701 $224 $369 forward 7 unknown #
loop $-1 $-1 $231 $140 #
plane-surface $-1 -45.434736167485589 -3.3141065153140374 2.8003952230336182 -0.61566148304635926 0 0.78801074757464917 0.78801074757464917 0 0.61566148304635926 forward_v I I I I #
loop $-1 $-1 $370 $89 #
coedge $-1 $229 $229 $230 $371 reversed $141 $-1 #
coedge $-1 $230 $230 $229 $371 forward $143 $-1 #
coedge $-1 $231 $231 $144 $232 forward $226 $-1 #
edge $-1 $372 0 $372 6.2831853071796004 $231 $373 forward 7 unknown #
loop $-1 $-1 $238 $145 #
plane-surface $-1 -45.434736167485589 -3.3141065153140374 2.8003952230336182 -0.61566148304635926 0 0.78801074757464917 0.78801074757464917 0 0.61566148304635926 forward_v I I I I #
loop $-1 $-1 $374 $92 #
coedge $-1 $236 $236 $237 $375 reversed $146 $-1 #
coedge $-1 $237 $237 $236 $375 forward $148 $-1 #
coedge $-1 $238 $238 $149 $239 forward $233 $-1 #
edge $-1 $376 0 $376 6.2831853071796004 $238 $377 forward 7 unknown #
loop $-1 $-1 $245 $150 #
plane-surface $-1 -45.434736167485589 -3.3141065153140374 2.8003952230336182 -0.61566148304635926 0 0.78801074757464917 0.78801074757464917 0 0.61566148304635926 forward_v I I I I #
loop $-1 $-1 $378 $95 #
coedge $-1 $243 $243 $244 $379 reversed $151 $-1 #
coedge $-1 $244 $244 $243 $379 forward $153 $-1 #
coedge $-1 $245 $245 $154 $246 forward $240 $-1 #
edge $-1 $380 0 $380 6.2831853071796004 $245 $381 forward 7 unknown #
face $-1 $382 $383 $54 $-1 $384 forward single #
loop $-1 $-1 $385 $155 #
plane-surface $-1 -101.37957026887405 15.98017241356929 74.406516049428149 0 -1 0 0.61566148304635926 0 -0.78801074757464917 forward_v I I I I #
coedge $-1 $386 $387 $388 $389 reversed $156 $-1 #
coedge $-1 $252 $158 $390 $391 reversed $99 $-1 #
coedge $-1 $158 $251 $386 $392 reversed $99 $-1 #
coedge $-1 $388 $393 $158 $254 forward $383 $-1 #
edge $-1 $394 5.255048966951442 $395 11.455767878138701 $253 $396 forward 7 unknown #
loop $-1 $-1 $260 $159 #
plane-surface $-1 -45.434736167485589 12.682928961381485 2.8003952230336182 -0.61566148304635926 0 0.78801074757464917 0.78801074757464917 0 0.61566148304635926 forward_v I I I I #
loop $-1 $-1 $397 $101 #
coedge $-1 $258 $258 $259 $398 reversed $160 $-1 #
coedge $-1 $259 $259 $258 $398 forward $162 $-1 #
coedge $-1 $260 $260 $163 $261 forward $255 $-1 #
edge $-1 $399 0 $399 6.2831853071796004 $260 $400 forward 7 unknown #
loop $-1 $-1 $267 $164 #
plane-surface $-1 -45.434736167485589 12.682928961381485 2.8003952230336182 -0.61566148304635926 0 0.78801074757464917 0.78801074757464917 0 0.61566148304635926 forward_v I I I I #
loop $-1 $-1 $401 $104 #
coedge $-1 $265 $265 $266 $402 reversed $165 $-1 #
coedge $-1 $266 $266 $265 $402 forward $167 $-1 #
coedge $-1 $267 $267 $168 $268 forward $262 $-1 #
edge $-1 $403 0 $403 6.2831853071796004 $267 $404 forward 7 unknown #
loop $-1 $-1 $274 $169 #
plane-surface $-1 -45.434736167485589 12.682928961381485 2.8003952230336182 -0.61566148304635926 0 0.78801074757464917 0.78801074757464917 0 0.61566148304635926 forward_v I I I I #
loop $-1 $-1 $405 $107 #
coedge $-1 $272 $272 $273 $406 reversed $170 $-1 #
coedge $-1 $273 $273 $272 $406 forward $172 $-1 #
coedge $-1 $274 $274 $173 $275 forward $269 $-1 #
edge $-1 $407 0 $407 6.2831853071796004 $274 $408 forward 7 unknown #
face $-1 $409 $410 $58 $-1 $411 reversed single #
loop $-1 $-1 $412 $174 #
plane-surface $-1 36.47041398664085 -2.6718031226732659 130.46574244072761 0 1 0 0.6560590369687036 0 0.75470957328743171 forward_v I I I I #
coedge $-1 $413 $414 $415 $416 reversed $175 $-1 #
coedge $-1 $281 $177 $417 $418 reversed $111 $-1 #
coedge $-1 $177 $280 $413 $419 reversed $111 $-1 #
coedge $-1 $415 $420 $177 $283 forward $421 $-1 #
edge $-1 $422 -27.199529174165157 $423 -21.016316786819715 $282 $424 forward 7 unknown #
loop $-1 $-1 $289 $178 #
plane-surface $-1 -23.145324523294583 1.0347866780029875 61.885681749947437 0.6560590369687036 0 0.75470957328743171 0.75470957328743171 0 -0.6560590369687036 forward_v I I I I #
loop $-1 $-1 $425 $113 #
coedge $-1 $287 $287 $288 $426 reversed $179 $-1 #
coedge $-1 $288 $288 $287 $426 forward $181 $-1 #
coedge $-1 $289 $289 $182 $290 forward $284 $-1 #
edge $-1 $427 0 $427 6.2831853071796004 $289 $428 forward 7 unknown #
loop $-1 $-1 $296 $183 #
plane-surface $-1 -23.145324523294583 1.0347866780029875 61.885681749947437 0.6560590369687036 0 0.75470957328743171 0.75470957328743171 0 -0.6560590369687036 forward_v I I I I #
loop $-1 $-1 $429 $116 #
coedge $-1 $294 $294 $295 $430 reversed $184 $-1 #
coedge $-1 $295 $295 $294 $430 forward $186 $-1 #
coedge $-1 $296 $296 $187 $297 forward $291 $-1 #
edge $-1 $431 0 $431 6.2831853071796004 $296 $432 forward 7 unknown #
face $-1 $433 $434 $61 $-1 $435 forward single #
loop $-1 $-1 $436 $188 #
plane-surface $-1 0 0 7.6449278801894351 0 0 1 1 0 0 forward_v I I I I #
coedge $-1 $437 $438 $439 $440 reversed $189 $-1 #
coedge $-1 $303 $191 $441 $442 reversed $120 $-1 #
coedge $-1 $191 $302 $436 $443 reversed $120 $-1 #
coedge $-1 $444 $445 $191 $305 forward $446 $-1 #
edge $-1 $447 -62.962927980351793 $448 -57.58794334017437 $304 $449 forward 7 unknown #
loop $-1 $-1 $311 $192 #
plane-surface $-1 -23.145324523294583 1.0347866780029875 61.885681749947437 0.6560590369687036 0 0.75470957328743171 0.75470957328743171 0 -0.6560590369687036 forward_v I I I I #
loop $-1 $-1 $450 $122 #
coedge $-1 $309 $309 $310 $451 reversed $193 $-1 #
coedge $-1 $310 $310 $309 $451 forward $195 $-1 #
coedge $-1 $311 $311 $196 $312 forward $306 $-1 #
edge $-1 $452 0 $452 6.2831853071796004 $311 $453 forward 7 unknown #
loop $-1 $-1 $318 $197 #
plane-surface $-1 -23.145324523294583 1.0347866780029875 61.885681749947437 0.6560590369687036 0 0.75470957328743171 0.75470957328743171 0 -0.6560590369687036 forward_v I I I I #
loop $-1 $-1 $454 $125 #
coedge $-1 $316 $316 $317 $455 reversed $198 $-1 #
coedge $-1 $317 $317 $316 $455 forward $200 $-1 #
coedge $-1 $318 $318 $201 $319 forward $313 $-1 #
edge $-1 $456 0 $456 6.2831853071796004 $318 $457 forward 7 unknown #
face $-1 $458 $459 $48 $-1 $460 reversed single #
loop $-1 $-1 $461 $202 #
plane-surface $-1 -45.434736167485582 0 0 1 0 0 0 0 -1 forward_v I I I I #
coedge $-1 $462 $331 $463 $464 forward $203 $-1 #
coedge $-1 $465 $205 $462 $466 forward $129 $-1 #
coedge $-1 $205 $465 $467 $468 forward $129 $-1 #
coedge $-1 $334 $333 $205 $327 reversed $335 $-1 #
edge $-1 $469 -20.738411955374758 $470 20.738411955374758 $326 $471 forward 7 unknown #
coedge $-1 $207 $206 $472 $473 forward $81 $-1 #
coedge $-1 $474 $475 $206 $330 reversed $459 $-1 #
edge $-1 $337 -45.434736167485582 $476 45.434736167485582 $329 $477 forward 7 unknown #
coedge $-1 $323 $478 $207 $332 reversed $203 $-1 #
edge $-1 $479 -45.434736167485582 $336 45.434736167485582 $331 $480 forward 7 unknown #
coedge $-1 $326 $208 $478 $481 forward $335 $-1 #
coedge $-1 $208 $326 $474 $482 reversed $335 $-1 #
loop $-1 $-1 $333 $458 #
vertex $-1 $209 $483 #
vertex $-1 $209 $484 #
straight-curve $-1 45.434736167485582 0 7.6449278801894351 0 1 0 I I #
face $-1 $485 $486 $49 $-1 $487 reversed single #
loop $-1 $-1 $345 $210 #
plane-surface $-1 45.434736167485582 0 0 -1 0 0 0 0 1 forward_v I I I I #
coedge $-1 $488 $489 $343 $490 forward $211 $-1 #
coedge $-1 $491 $213 $342 $490 reversed $133 $-1 #
coedge $-1 $213 $491 $214 $348 reversed $133 $-1 #
coedge $-1 $216 $492 $213 $346 forward $340 $-1 #
edge $-1 $493 -4.5724639400947176 $352 -1.5724639400947176 $345 $494 forward 7 unknown #
coedge $-1 $215 $214 $495 $496 reversed $84 $-1 #
edge $-1 $352 -45.434736167485582 $497 45.434736167485582 $344 $498 forward 7 unknown #
coedge $-1 $499 $500 $215 $350 forward $486 $-1 #
edge $-1 $353 -45.434736167485582 $501 45.434736167485582 $349 $502 forward 7 unknown #
coedge $-1 $492 $216 $500 $503 forward $340 $-1 #
vertex $-1 $217 $504 #
vertex $-1 $503 $505 #
straight-curve $-1 45.434736167485582 -7.9985177383477613 -4.6449278801894351 0 -1 0 I I #
face $-1 $-1 $506 $50 $-1 $507 reversed single #
loop $-1 $-1 $224 $218 #
plane-surface $-1 0 0 7.6449278801894351 0 0 1 1 0 0 forward_v I I I I #
coedge $-1 $508 $509 $510 $511 reversed $219 $-1 #
coedge $-1 $512 $221 $223 $365 forward $137 $-1 #
coedge $-1 $221 $512 $508 $513 forward $137 $-1 #
coedge $-1 $510 $224 $221 $362 forward $356 $-1 #
edge $-1 $368 -4.9542967098448241 $514 1.6401901945307866 $361 $515 forward 7 unknown #
coedge $-1 $516 $517 $222 $364 forward $506 $-1 #
edge $-1 $518 -34.402862801680449 $367 -29.558330144524639 $363 $519 forward 7 unknown #
edge $-1 $368 -7.8688253050760117 $518 -9.1534652039358102e-015 $223 $520 forward 7 unknown #
coedge $-1 $224 $510 $516 $521 forward $356 $-1 #
vertex $-1 $364 $522 #
vertex $-1 $225 $523 #
straight-curve $-1 -50.689785134437024 -6.6113499675018428 7.6449278801894351 1 0 0 I I #
coedge $-1 $370 $370 $-1 $524 reversed $228 $-1 #
edge $-1 $525 0 $525 6.2831853071796004 $229 $526 forward 7 unknown #
vertex $-1 $232 $527 #
ellipse-curve $-1 -42.334376711891949 -5.2924525866267196 5.2226615516115302 -0.61566148304635926 0 0.78801074757464917 0.39400537378732459 0 0.30783074152317963 1 I I #
coedge $-1 $374 $374 $-1 $528 reversed $235 $-1 #
edge $-1 $529 0 $529 6.2831853071796004 $236 $530 forward 7 unknown #
vertex $-1 $239 $531 #
ellipse-curve $-1 -42.334376711891949 -3.3141065153140374 5.2226615516115302 -0.61566148304635926 0 0.78801074757464917 0.39400537378732459 0 0.30783074152317963 1 I I #
coedge $-1 $378 $378 $-1 $532 reversed $242 $-1 #
edge $-1 $533 0 $533 6.2831853071796004 $243 $534 forward 7 unknown #
vertex $-1 $246 $535 #
ellipse-curve $-1 -42.334376711891949 -1.3357604440013553 5.2226615516115302 -0.61566148304635926 0 0.78801074757464917 0.39400537378732459 0 0.30783074152317963 1 I I #
face $-1 $-1 $536 $54 $-1 $537 reversed single #
loop $-1 $-1 $253 $247 #
plane-surface $-1 0 0 7.6449278801894351 0 0 1 1 0 0 forward_v I I I I #
coedge $-1 $538 $539 $540 $541 reversed $248 $-1 #
coedge $-1 $542 $250 $252 $392 forward $156 $-1 #
coedge $-1 $250 $542 $538 $543 forward $156 $-1 #
coedge $-1 $540 $253 $250 $389 forward $383 $-1 #
edge $-1 $395 3.0442210285029372 $544 9.6387079328785479 $388 $545 forward 7 unknown #
coedge $-1 $546 $547 $251 $391 forward $536 $-1 #
edge $-1 $548 -34.402862801680449 $394 -29.558330144524639 $390 $549 forward 7 unknown #
edge $-1 $395 -7.8688253050760117 $548 -9.1534652039358102e-015 $252 $550 forward 7 unknown #
coedge $-1 $253 $540 $546 $551 forward $383 $-1 #
vertex $-1 $254 $552 #
vertex $-1 $254 $553 #
straight-curve $-1 -50.689785134437024 9.3856855091936797 7.6449278801894351 1 0 0 I I #
coedge $-1 $397 $397 $-1 $554 reversed $257 $-1 #
edge $-1 $555 0 $555 6.2831853071796004 $258 $556 forward 7 unknown #
vertex $-1 $261 $557 #
ellipse-curve $-1 -42.334376711891949 10.704582890068803 5.2226615516115302 -0.61566148304635926 0 0.78801074757464917 0.39400537378732459 0 0.30783074152317963 1 I I #
coedge $-1 $401 $401 $-1 $558 reversed $264 $-1 #
edge $-1 $559 0 $559 6.2831853071796004 $265 $560 forward 7 unknown #
vertex $-1 $268 $561 #
ellipse-curve $-1 -42.334376711891949 12.682928961381485 5.2226615516115302 -0.61566148304635926 0 0.78801074757464917 0.39400537378732459 0 0.30783074152317963 1 I I #
coedge $-1 $405 $405 $-1 $562 reversed $271 $-1 #
edge $-1 $563 0 $563 6.2831853071796004 $272 $564 forward 7 unknown #
vertex $-1 $275 $565 #
ellipse-curve $-1 -42.334376711891949 14.661275032694164 5.2226615516115302 -0.61566148304635926 0 0.78801074757464917 0.39400537378732459 0 0.30783074152317963 1 I I #
face $-1 $-1 $421 $58 $-1 $566 forward single #
loop $-1 $-1 $567 $276 #
plane-surface $-1 45.434736167485582 0 0 -1 0 0 0 0 1 forward_v I I I I #
coedge $-1 $568 $569 $570 $571 reversed $277 $-1 #
coedge $-1 $572 $279 $281 $419 forward $175 $-1 #
coedge $-1 $279 $572 $568 $573 forward $175 $-1 #
coedge $-1 $570 $282 $279 $416 forward $421 $-1 #
edge $-1 $423 -4.2239831396777472 $574 3.1891964616747597 $415 $575 forward 7 unknown #
coedge $-1 $576 $577 $280 $418 forward $410 $-1 #
edge $-1 $578 -62.962927980351793 $422 -57.58794334017437 $417 $579 forward 7 unknown #
edge $-1 $423 82.676635505815739 $578 90.86947233497115 $281 $580 forward 7 unknown #
coedge $-1 $282 $570 $576 $581 forward $421 $-1 #
loop $-1 $-1 $570 $409 #
vertex $-1 $418 $582 #
vertex $-1 $283 $583 #
straight-curve $-1 18.235206993320425 4.7413764786792409 7.6449278801894351 -1 0 0 I I #
coedge $-1 $425 $425 $-1 $584 reversed $286 $-1 #
edge $-1 $585 0 $585 6.2831853071796004 $287 $586 forward 7 unknown #
vertex $-1 $290 $587 #
ellipse-curve $-1 42.343129973812857 -0.55375180800112389 4.9574355601007234 0.6560590369687036 0 0.75470957328743171 0.37735478664371586 0 -0.3280295184843518 1 I I #
coedge $-1 $429 $429 $-1 $588 reversed $293 $-1 #
edge $-1 $589 0 $589 6.2831853071796004 $294 $590 forward 7 unknown #
vertex $-1 $297 $591 #
ellipse-curve $-1 42.343129973812857 2.6233251640070918 4.9574355601007234 0.6560590369687036 0 0.75470957328743171 0.37735478664371586 0 -0.3280295184843518 1 I I #
face $-1 $-1 $446 $61 $-1 $592 reversed single #
loop $-1 $-1 $593 $298 #
plane-surface $-1 36.47041398664085 4.7413764786792409 130.46574244072761 0 -1 0 -0.6560590369687036 0 -0.75470957328743171 forward_v I I I I #
coedge $-1 $594 $595 $303 $443 forward $299 $-1 #
coedge $-1 $441 $301 $594 $596 reversed $189 $-1 #
coedge $-1 $301 $441 $445 $597 reversed $189 $-1 #
coedge $-1 $598 $593 $301 $440 forward $434 $-1 #
edge $-1 $599 82.676635505815739 $600 90.86947233497115 $439 $601 forward 7 unknown #
coedge $-1 $438 $437 $302 $442 forward $189 $-1 #
edge $-1 $602 82.676635505815739 $447 90.86947233497115 $302 $603 forward 7 unknown #
edge $-1 $448 -27.199529174165157 $602 -21.016316786819715 $436 $604 forward 7 unknown #
coedge $-1 $605 $304 $595 $606 reversed $446 $-1 #
coedge $-1 $304 $605 $438 $597 forward $446 $-1 #
loop $-1 $-1 $304 $433 #
vertex $-1 $305 $607 #
vertex $-1 $443 $608 #
straight-curve $-1 45.434736167485582 12.154556080031748 65.232871220363805 0 0 1 I I #
coedge $-1 $450 $450 $-1 $609 reversed $308 $-1 #
edge $-1 $610 0 $610 6.2831853071796004 $309 $611 forward 7 unknown #
vertex $-1 $312 $612 #
ellipse-curve $-1 42.343129973812857 6.859427793351383 4.9574355601007234 0.6560590369687036 0 0.75470957328743171 0.37735478664371586 0 -0.3280295184843518 1 I I #
coedge $-1 $454 $454 $-1 $613 reversed $315 $-1 #
edge $-1 $614 0 $614 6.2831853071796004 $316 $615 forward 7 unknown #
vertex $-1 $319 $616 #
ellipse-curve $-1 42.343129973812857 10.036504765359599 4.9574355601007234 0.6560590369687036 0 0.75470957328743171 0.37735478664371586 0 -0.3280295184843518 1 I I #
face $-1 $-1 $335 $48 $-1 $617 reversed single #
loop $-1 $-1 $474 $320 #
plane-surface $-1 0 20.738411955374758 0 0 -1 0 0 0 -1 forward_v I I I I #
coedge $-1 $618 $472 $475 $619 forward $321 $-1 #
coedge $-1 $478 $323 $324 $466 reversed $203 $-1 #
coedge $-1 $472 $618 $323 $464 reversed $321 $-1 #
edge $-1 $479 -7.6449278801894351 $620 7.6449278801894351 $463 $621 forward 7 unknown #
coedge $-1 $325 $324 $618 $622 forward $129 $-1 #
edge $-1 $470 -45.434736167485582 $620 45.434736167485582 $462 $623 forward 7 unknown #
coedge $-1 $475 $474 $325 $468 reversed $459 $-1 #
edge $-1 $624 -45.434736167485582 $469 45.434736167485582 $467 $625 forward 7 unknown #
vertex $-1 $327 $626 #
vertex $-1 $481 $627 #
straight-curve $-1 45.434736167485582 0 -7.6449278801894351 0 -1 0 I I #
coedge $-1 $461 $463 $328 $473 reversed $321 $-1 #
edge $-1 $476 -20.738411955374758 $479 20.738411955374758 $472 $628 forward 7 unknown #
coedge $-1 $467 $329 $334 $482 forward $459 $-1 #
coedge $-1 $329 $467 $461 $619 reversed $459 $-1 #
vertex $-1 $330 $629 #
straight-curve $-1 0 20.738411955374758 7.6449278801894351 -1 0 0 I I #
coedge $-1 $331 $462 $333 $481 reversed $203 $-1 #
vertex $-1 $473 $630 #
straight-curve $-1 0 -20.738411955374758 7.6449278801894351 1 0 0 I I #
edge $-1 $336 -7.6449278801894351 $470 7.6449278801894351 $333 $631 forward 7 unknown #
edge $-1 $337 -7.6449278801894351 $469 7.6449278801894351 $334 $632 forward 7 unknown #
point $-1 45.434736167485582 -20.738411955374758 7.6449278801894351 #
point $-1 45.434736167485582 20.738411955374758 7.6449278801894351 #
face $-1 $-1 $633 $49 $-1 $634 reversed single #
loop $-1 $-1 $349 $339 #
plane-surface $-1 0 -20.738411955374758 0 0 1 0 0 0 1 forward_v I I I I #
coedge $-1 $635 $342 $492 $636 forward $211 $-1 #
coedge $-1 $342 $635 $637 $638 forward $211 $-1 #
edge $-1 $639 -45.434736167485582 $493 45.434736167485582 $342 $640 forward 7 unknown #
coedge $-1 $344 $343 $641 $642 reversed $133 $-1 #
coedge $-1 $345 $351 $488 $636 reversed $340 $-1 #
vertex $-1 $636 $643 #
straight-curve $-1 45.434736167485582 -11.255658998016287 -3.0724639400947176 0 0 1 I I #
coedge $-1 $641 $644 $347 $496 forward $633 $-1 #
edge $-1 $501 -12.739894217026997 $497 -3.2571412596685256 $495 $645 forward 7 unknown #
vertex $-1 $496 $646 #
straight-curve $-1 0 -11.255658998016287 -4.6449278801894351 -1 0 0 I I #
coedge $-1 $647 $349 $644 $648 forward $486 $-1 #
coedge $-1 $349 $647 $351 $503 reversed $486 $-1 #
vertex $-1 $648 $649 #
straight-curve $-1 0 -20.738411955374758 -4.6449278801894351 -1 0 0 I I #
edge $-1 $353 4.6449278801894351 $650 7.6449278801894351 $351 $651 forward 7 unknown #
point $-1 45.434736167485582 -11.255658998016287 -4.6449278801894351 #
point $-1 45.434736167485582 -20.738411955374758 -4.6449278801894351 #
loop $-1 $-1 $363 $355 #
plane-surface $-1 -45.434736167485582 0 0 1 0 0 0 0 -1 forward_v I I I I #
coedge $-1 $509 $358 $360 $513 reversed $219 $-1 #
coedge $-1 $358 $508 $652 $653 reversed $219 $-1 #
coedge $-1 $366 $361 $358 $511 forward $356 $-1 #
edge $-1 $514 -11.455767878138701 $654 -5.255048966951442 $510 $655 forward 7 unknown #
coedge $-1 $360 $359 $517 $656 reversed $137 $-1 #
edge $-1 $657 9.1534652039358102e-015 $514 7.8688253050760117 $508 $658 forward 7 unknown #
vertex $-1 $362 $659 #
straight-curve $-1 -39.23401725629833 -1.6570532576570187 7.6449278801894343 0 1 0 I I #
coedge $-1 $652 $363 $366 $521 reversed $506 $-1 #
coedge $-1 $363 $652 $512 $656 forward $506 $-1 #
vertex $-1 $364 $660 #
straight-curve $-1 -45.434736167485582 -6.6113499675018428 37.203258024714074 0 0 1 I I #
straight-curve $-1 -45.434736167485589 -6.6113499675018428 2.8003952230336182 -0.78801074757464917 0 -0.61566148304635926 I I #
edge $-1 $654 0.016863063126232092 $367 6.6113499675018428 $516 $661 forward 7 unknown #
point $-1 -45.434736167485582 -6.6113499675018428 7.6449278801894351 #
point $-1 -39.234017256298323 -6.6113499675018428 7.6449278801894351 #
edge $-1 $662 1 $662 0 $370 $-1 forward 7 unknown #
vertex $-1 $371 $663 #
ellipse-curve $-1 -41.201019960973142 -5.2924525866267196 3.7720310912793957 -0.61566148304635926 0 0.78801074757464917 0.39400537378732459 0 0.30783074152317963 1 I I #
point $-1 -41.940371338104619 -5.2924525866267196 5.530492293134702 #
edge $-1 $664 1 $664 0 $374 $-1 forward 7 unknown #
vertex $-1 $375 $665 #
ellipse-curve $-1 -41.201019960973142 -3.3141065153140374 3.7720310912793957 -0.61566148304635926 0 0.78801074757464917 0.39400537378732459 0 0.30783074152317963 1 I I #
point $-1 -41.940371338104619 -3.3141065153140374 5.530492293134702 #
edge $-1 $666 1 $666 0 $378 $-1 forward 7 unknown #
vertex $-1 $379 $667 #
ellipse-curve $-1 -41.201019960973142 -1.3357604440013553 3.7720310912793957 -0.61566148304635926 0 0.78801074757464917 0.39400537378732459 0 0.30783074152317963 1 I I #
point $-1 -41.940371338104619 -1.3357604440013553 5.530492293134702 #
loop $-1 $-1 $390 $382 #
plane-surface $-1 -45.434736167485582 0 0 1 0 0 0 0 -1 forward_v I I I I #
coedge $-1 $539 $385 $387 $543 reversed $248 $-1 #
coedge $-1 $385 $538 $668 $669 reversed $248 $-1 #
coedge $-1 $393 $388 $385 $541 forward $383 $-1 #
edge $-1 $544 -11.455767878138701 $670 -5.255048966951442 $540 $671 forward 7 unknown #
coedge $-1 $387 $386 $547 $672 reversed $156 $-1 #
edge $-1 $673 9.1534652039358102e-015 $544 7.8688253050760117 $538 $674 forward 7 unknown #
vertex $-1 $389 $675 #
straight-curve $-1 -39.23401725629833 6.3414644806907425 7.6449278801894343 0 1 0 I I #
coedge $-1 $668 $390 $393 $551 reversed $536 $-1 #
coedge $-1 $390 $668 $542 $672 forward $536 $-1 #
vertex $-1 $391 $676 #
straight-curve $-1 -45.434736167485582 9.3856855091936797 37.203258024714074 0 0 1 I I #
straight-curve $-1 -45.434736167485589 9.3856855091936797 2.8003952230336182 -0.78801074757464917 0 -0.61566148304635926 I I #
edge $-1 $670 -15.98017241356929 $394 -9.3856855091936797 $546 $677 forward 7 unknown #
point $-1 -45.434736167485582 9.3856855091936797 7.6449278801894351 #
point $-1 -39.234017256298323 9.3856855091936797 7.6449278801894351 #
edge $-1 $678 1 $678 0 $397 $-1 forward 7 unknown #
vertex $-1 $398 $679 #
ellipse-curve $-1 -41.201019960973142 10.704582890068803 3.7720310912793957 -0.61566148304635926 0 0.78801074757464917 0.39400537378732459 0 0.30783074152317963 1 I I #
point $-1 -41.940371338104619 10.704582890068803 5.530492293134702 #
edge $-1 $680 1 $680 0 $401 $-1 forward 7 unknown #
vertex $-1 $402 $681 #
ellipse-curve $-1 -41.201019960973142 12.682928961381485 3.7720310912793957 -0.61566148304635926 0 0.78801074757464917 0.39400537378732459 0 0.30783074152317963 1 I I #
point $-1 -41.940371338104619 12.682928961381485 5.530492293134702 #
edge $-1 $682 1 $682 0 $405 $-1 forward 7 unknown #
vertex $-1 $406 $683 #
ellipse-curve $-1 -41.201019960973142 14.661275032694164 3.7720310912793957 -0.61566148304635926 0 0.78801074757464917 0.39400537378732459 0 0.30783074152317963 1 I I #
point $-1 -41.940371338104619 14.661275032694164 5.530492293134702 #
plane-surface $-1 0 0 7.6449278801894351 0 0 1 1 0 0 forward_v I I I I #
coedge $-1 $577 $576 $569 $684 forward $410 $-1 #
coedge $-1 $569 $412 $414 $573 reversed $277 $-1 #
coedge $-1 $412 $568 $567 $684 reversed $277 $-1 #
coedge $-1 $420 $415 $412 $571 forward $421 $-1 #
edge $-1 $574 21.016316786819715 $685 27.199529174165157 $570 $686 forward 7 unknown #
coedge $-1 $414 $413 $577 $687 reversed $175 $-1 #
edge $-1 $688 -90.86947233497115 $574 -82.676635505815739 $568 $689 forward 7 unknown #
vertex $-1 $416 $690 #
straight-curve $-1 39.251523780140133 0.51739333900149376 7.6449278801894422 0 -1 0 I I #
coedge $-1 $567 $417 $420 $581 reversed $410 $-1 #
coedge $-1 $417 $567 $572 $687 forward $410 $-1 #
vertex $-1 $418 $691 #
straight-curve $-1 45.434736167485582 4.7413764786792409 65.232871220363805 0 0 1 I I #
straight-curve $-1 -23.145324523294583 4.7413764786792409 61.885681749947437 0.75470957328743171 0 -0.6560590369687036 I I #
edge $-1 $685 -2.6718031226732659 $422 4.7413764786792409 $576 $692 forward 7 unknown #
point $-1 45.434736167485582 4.7413764786792409 7.6449278801894351 #
point $-1 39.25152378014014 4.7413764786792409 7.6449278801894351 #
edge $-1 $693 1 $693 0 $425 $-1 forward 7 unknown #
vertex $-1 $426 $694 #
ellipse-curve $-1 41.491746862771208 -0.55375180800112389 3.978031347627355 0.6560590369687036 0 0.75470957328743171 0.37735478664371586 0 -0.3280295184843518 1 I I #
point $-1 42.720484760456571 -0.55375180800112389 4.6294060416163703 #
edge $-1 $695 1 $695 0 $429 $-1 forward 7 unknown #
vertex $-1 $430 $696 #
ellipse-curve $-1 41.491746862771208 2.6233251640070918 3.978031347627355 0.6560590369687036 0 0.75470957328743171 0.37735478664371586 0 -0.3280295184843518 1 I I #
point $-1 42.720484760456571 2.6233251640070918 4.6294060416163703 #
plane-surface $-1 45.434736167485582 0 0 -1 0 0 0 0 1 forward_v I I I I #
coedge $-1 $439 $598 $697 $698 reversed $434 $-1 #
coedge $-1 $697 $436 $437 $596 forward $299 $-1 #
coedge $-1 $436 $697 $444 $606 forward $299 $-1 #
edge $-1 $602 -11.637162741030254 $599 -4.2239831396777472 $594 $699 forward 7 unknown #
edge $-1 $600 4.2239831396777472 $447 11.637162741030254 $445 $700 forward 7 unknown #
coedge $-1 $593 $439 $605 $701 reversed $434 $-1 #
vertex $-1 $596 $702 #
vertex $-1 $597 $703 #
straight-curve $-1 -23.145324523294583 4.7413764786792409 61.885681749947437 0.75470957328743171 0 -0.6560590369687036 I I #
vertex $-1 $443 $704 #
straight-curve $-1 -23.145324523294583 12.154556080031748 61.885681749947437 0.75470957328743171 0 -0.6560590369687036 I I #
straight-curve $-1 18.235206993320425 12.154556080031748 7.6449278801894351 -1 0 0 I I #
coedge $-1 $445 $444 $598 $701 forward $446 $-1 #
edge $-1 $705 4.7413764786792409 $448 12.154556080031748 $444 $706 forward 7 unknown #
point $-1 45.434736167485575 12.154556080031748 2.2699432400120116 #
point $-1 45.434736167485582 12.154556080031748 7.6449278801894351 #
edge $-1 $707 1 $707 0 $450 $-1 forward 7 unknown #
vertex $-1 $451 $708 #
ellipse-curve $-1 41.491746862771208 6.859427793351383 3.978031347627355 0.6560590369687036 0 0.75470957328743171 0.37735478664371586 0 -0.3280295184843518 1 I I #
point $-1 42.720484760456571 6.859427793351383 4.6294060416163703 #
edge $-1 $709 1 $709 0 $454 $-1 forward 7 unknown #
vertex $-1 $455 $710 #
ellipse-curve $-1 41.491746862771208 10.036504765359599 3.978031347627355 0.6560590369687036 0 0.75470957328743171 0.37735478664371586 0 -0.3280295184843518 1 I I #
point $-1 42.720484760456571 10.036504765359599 4.6294060416163703 #
plane-surface $-1 45.434736167485582 0 0 -1 0 0 0 0 1 forward_v I I I I #
coedge $-1 $463 $461 $465 $622 reversed $321 $-1 #
edge $-1 $476 -7.6449278801894351 $624 7.6449278801894351 $475 $711 forward 7 unknown #
vertex $-1 $622 $712 #
straight-curve $-1 -45.434736167485582 -20.738411955374758 0 0 0 -1 I I #
edge $-1 $620 -20.738411955374758 $624 20.738411955374758 $618 $713 forward 7 unknown #
straight-curve $-1 0 -20.738411955374758 -7.6449278801894351 -1 0 0 I I #
vertex $-1 $468 $714 #
straight-curve $-1 0 20.738411955374758 -7.6449278801894351 1 0 0 I I #
point $-1 45.434736167485582 20.738411955374758 -7.6449278801894351 #
point $-1 45.434736167485582 -20.738411955374758 -7.6449278801894351 #
straight-curve $-1 -45.434736167485582 0 7.6449278801894351 0 -1 0 I I #
point $-1 -45.434736167485582 20.738411955374758 7.6449278801894351 #
point $-1 -45.434736167485582 -20.738411955374758 7.6449278801894351 #
straight-curve $-1 45.434736167485582 -20.738411955374758 0 0 0 -1 I I #
straight-curve $-1 45.434736167485582 20.738411955374758 0 0 0 -1 I I #
loop $-1 $-1 $641 $485 #
plane-surface $-1 -45.434736167485582 0 0 1 0 0 0 0 -1 forward_v I I I I #
coedge $-1 $489 $488 $647 $715 forward $211 $-1 #
edge $-1 $493 11.255658998016287 $650 20.738411955374758 $492 $716 forward 7 unknown #
coedge $-1 $644 $641 $489 $638 reversed $633 $-1 #
edge $-1 $717 -20.738411955374758 $639 -11.255658998016287 $637 $718 forward 7 unknown #
vertex $-1 $642 $719 #
straight-curve $-1 0 -11.255658998016287 -7.6449278801894351 1 0 0 I I #
coedge $-1 $637 $495 $491 $642 forward $633 $-1 #
edge $-1 $497 1.5724639400947176 $639 4.5724639400947176 $641 $720 forward 7 unknown #
point $-1 45.434736167485582 -11.255658998016287 -7.6449278801894351 #
coedge $-1 $495 $637 $499 $648 reversed $633 $-1 #
straight-curve $-1 -45.434736167485582 -7.9985177383477613 -4.6449278801894351 0 1 0 I I #
point $-1 -45.434736167485582 -11.255658998016287 -4.6449278801894351 #
coedge $-1 $500 $499 $635 $715 reversed $486 $-1 #
edge $-1 $501 4.6449278801894351 $717 7.6449278801894351 $644 $721 forward 7 unknown #
point $-1 -45.434736167485582 -20.738411955374758 -4.6449278801894351 #
vertex $-1 $503 $722 #
straight-curve $-1 45.434736167485582 -20.738411955374758 0 0 0 -1 I I #
coedge $-1 $517 $516 $509 $653 forward $506 $-1 #
edge $-1 $654 29.558330144524639 $657 34.402862801680449 $652 $723 forward 7 unknown #
vertex $-1 $521 $724 #
straight-curve $-1 -50.689785134437024 -0.016863063126232092 7.6449278801894351 -1 0 0 I I #
edge $-1 $657 -1.6401901945307866 $518 4.9542967098448241 $517 $725 forward 7 unknown #
vertex $-1 $656 $726 #
straight-curve $-1 -45.434736167485589 -0.016863063126232092 2.8003952230336182 0.78801074757464917 0 0.61566148304635926 I I #
point $-1 -39.234017256298323 -0.016863063126232092 7.6449278801894351 #
point $-1 -45.434736167485582 -6.6113499675018428 2.800395223033624 #
straight-curve $-1 -45.434736167485582 0 7.6449278801894351 0 -1 0 I I #
vertex $-1 $524 $727 #
point $-1 -40.807014587185819 -5.2924525866267196 4.0798618328025755 #
vertex $-1 $528 $728 #
point $-1 -40.807014587185819 -3.3141065153140374 4.0798618328025755 #
vertex $-1 $532 $729 #
point $-1 -40.807014587185819 -1.3357604440013553 4.0798618328025755 #
coedge $-1 $547 $546 $539 $669 forward $536 $-1 #
edge $-1 $670 29.558330144524639 $673 34.402862801680449 $668 $730 forward 7 unknown #
vertex $-1 $551 $731 #
straight-curve $-1 -50.689785134437024 15.98017241356929 7.6449278801894351 -1 0 0 I I #
edge $-1 $673 -9.6387079328785479 $548 -3.0442210285029372 $547 $732 forward 7 unknown #
vertex $-1 $672 $733 #
straight-curve $-1 -45.434736167485589 15.98017241356929 2.8003952230336182 0.78801074757464917 0 0.61566148304635926 I I #
point $-1 -39.234017256298323 15.98017241356929 7.6449278801894351 #
point $-1 -45.434736167485582 9.3856855091936797 2.800395223033624 #
straight-curve $-1 -45.434736167485582 0 7.6449278801894351 0 -1 0 I I #
vertex $-1 $554 $734 #
point $-1 -40.807014587185819 10.704582890068803 4.0798618328025755 #
vertex $-1 $558 $735 #
point $-1 -40.807014587185819 12.682928961381485 4.0798618328025755 #
vertex $-1 $562 $736 #
point $-1 -40.807014587185819 14.661275032694164 4.0798618328025755 #
edge $-1 $685 57.58794334017437 $688 62.962927980351793 $567 $737 forward 7 unknown #
vertex $-1 $581 $738 #
straight-curve $-1 18.235206993320425 -2.6718031226732659 7.6449278801894351 1 0 0 I I #
edge $-1 $688 -3.1891964616747597 $578 4.2239831396777472 $577 $739 forward 7 unknown #
vertex $-1 $687 $740 #
straight-curve $-1 -23.145324523294583 -2.6718031226732659 61.885681749947437 -0.75470957328743171 0 0.6560590369687036 I I #
point $-1 39.25152378014014 -2.6718031226732659 7.6449278801894351 #
point $-1 45.434736167485575 4.7413764786792409 2.2699432400120116 #
straight-curve $-1 45.434736167485582 0 7.6449278801894351 0 1 0 I I #
vertex $-1 $584 $741 #
point $-1 41.869101649414922 -0.55375180800112389 3.6500018291430032 #
vertex $-1 $588 $742 #
point $-1 41.869101649414922 2.6233251640070918 3.6500018291430032 #
coedge $-1 $595 $594 $593 $698 forward $299 $-1 #
edge $-1 $599 21.016316786819715 $705 27.199529174165157 $697 $743 forward 7 unknown #
straight-curve $-1 39.251523780140133 0.51739333900149376 7.6449278801894422 0 -1 0 I I #
straight-curve $-1 45.434736167485575 0.51739333900149376 2.2699432400120081 0 1 0 I I #
edge $-1 $705 57.58794334017437 $600 62.962927980351793 $605 $744 forward 7 unknown #
point $-1 39.25152378014014 4.7413764786792409 7.6449278801894351 #
point $-1 45.434736167485575 4.7413764786792409 2.2699432400120116 #
point $-1 39.25152378014014 12.154556080031748 7.6449278801894351 #
vertex $-1 $606 $745 #
straight-curve $-1 45.434736167485582 0 7.6449278801894351 0 1 0 I I #
vertex $-1 $609 $746 #
point $-1 41.869101649414922 6.859427793351383 3.6500018291430032 #
vertex $-1 $613 $747 #
point $-1 41.869101649414922 10.036504765359599 3.6500018291430032 #
straight-curve $-1 -45.434736167485582 20.738411955374758 0 0 0 -1 I I #
point $-1 -45.434736167485582 -20.738411955374758 -7.6449278801894351 #
straight-curve $-1 -45.434736167485582 0 -7.6449278801894351 0 1 0 I I #
point $-1 -45.434736167485582 20.738411955374758 -7.6449278801894351 #
edge $-1 $650 -45.434736167485582 $717 45.434736167485582 $647 $748 forward 7 unknown #
straight-curve $-1 45.434736167485582 0 -7.6449278801894351 0 -1 0 I I #
vertex $-1 $638 $749 #
straight-curve $-1 -45.434736167485582 0 -7.6449278801894351 0 1 0 I I #
point $-1 -45.434736167485582 -11.255658998016287 -7.6449278801894351 #
straight-curve $-1 -45.434736167485582 -11.255658998016287 -3.0724639400947176 0 0 -1 I I #
straight-curve $-1 -45.434736167485582 -20.738411955374758 0 0 0 -1 I I #
point $-1 45.434736167485582 -20.738411955374758 -7.6449278801894351 #
straight-curve $-1 -45.434736167485582 -0.016863063126232092 37.203258024714074 0 0 -1 I I #
point $-1 -45.434736167485582 -0.016863063126232092 7.6449278801894351 #
straight-curve $-1 -45.434736167485582 -1.6570532576570187 2.8003952230336204 0 -1 0 I I #
point $-1 -45.434736167485582 -0.016863063126232092 2.800395223033624 #
point $-1 -40.893189219449965 -5.2924525866267196 3.3780257174920711 #
point $-1 -40.893189219449965 -3.3141065153140374 3.3780257174920711 #
point $-1 -40.893189219449965 -1.3357604440013553 3.3780257174920711 #
straight-curve $-1 -45.434736167485582 15.98017241356929 37.203258024714074 0 0 -1 I I #
point $-1 -45.434736167485582 15.98017241356929 7.6449278801894351 #
straight-curve $-1 -45.434736167485582 6.3414644806907425 2.8003952230336204 0 -1 0 I I #
point $-1 -45.434736167485582 15.98017241356929 2.800395223033624 #
point $-1 -40.893189219449965 10.704582890068803 3.3780257174920711 #
point $-1 -40.893189219449965 12.682928961381485 3.3780257174920711 #
point $-1 -40.893189219449965 14.661275032694164 3.3780257174920711 #
straight-curve $-1 45.434736167485582 -2.6718031226732659 65.232871220363805 0 0 -1 I I #
point $-1 45.434736167485582 -2.6718031226732659 7.6449278801894351 #
straight-curve $-1 45.434736167485575 0.51739333900149376 2.2699432400120081 0 1 0 I I #
point $-1 45.434736167485575 -2.6718031226732659 2.2699432400120116 #
point $-1 41.163717344286852 -0.55375180800112389 3.6006765609836391 #
point $-1 41.163717344286852 2.6233251640070918 3.6006765609836391 #
straight-curve $-1 18.235206993320425 4.7413764786792409 7.6449278801894351 1 0 0 I I #
straight-curve $-1 45.434736167485582 4.7413764786792409 65.232871220363805 0 0 -1 I I #
point $-1 45.434736167485582 4.7413764786792409 7.6449278801894351 #
point $-1 41.163717344286852 6.859427793351383 3.6006765609836391 #
point $-1 41.163717344286852 10.036504765359599 3.6006765609836391 #
straight-curve $-1 0 -20.738411955374758 -7.6449278801894351 -1 0 0 I I #
point $-1 -45.434736167485582 -20.738411955374758 -7.6449278801894351 #
End-of-ACIS-data 