500 0 3 0           
7 Unknown 11 ACIS 5.0 NT 24 Thu Mar 25 16:34:00 1999 
-1 9.9999999999999995e-007 1e-010 
body $-1 $3 $-1 $4 #
body $-1 $5 $-1 $6 #
body $-1 $7 $-1 $8 #
lump $-1 $-1 $9 $0 #
transform $-1 1 0 0 0 1 0 0 0 1 77.250892666402166 33.11837030611747 12.846899551772719 1 rotate no_reflect no_shear #
lump $-1 $-1 $10 $1 #
transform $-1 1 0 0 0 1 0 0 0 1 77.250892666402166 33.11837030611747 12.846899551772719 1 rotate no_reflect no_shear #
lump $-1 $-1 $11 $2 #
transform $-1 1 0 0 0 1 0 0 0 1 77.250892666402166 33.11837030611747 12.846899551772719 1 rotate no_reflect no_shear #
shell $-1 $-1 $-1 $12 $-1 $3 #
shell $-1 $-1 $-1 $13 $-1 $5 #
shell $-1 $-1 $-1 $14 $-1 $7 #
face $-1 $15 $16 $9 $-1 $17 forward single #
face $-1 $18 $19 $10 $-1 $20 reversed single #
face $-1 $21 $22 $11 $-1 $23 forward single #
face $-1 $24 $25 $9 $-1 $26 reversed single #
loop $-1 $-1 $27 $12 #
plane-surface $-1 0 0 12.846899551772719 0 0 1 1 0 0 forward_v I I I I #
face $-1 $28 $29 $10 $-1 $30 reversed single #
loop $-1 $-1 $31 $13 #
plane-surface $-1 60.337362923733139 -33.118370306117455 9.836982632762485 0 -0.68199836817093118 0.7313536940579346 1 0 0 forward_v I I I I #
face $-1 $32 $33 $11 $-1 $34 forward single #
loop $-1 $35 $36 $14 #
cone-surface $-1 60.337362923733139 -30.991788813336207 10.792125691938729 0 0.68199836817093118 -0.7313536940579346 1 0 0 1 I I 0 1 1 forward I I I I #
face $-1 $37 $38 $9 $-1 $39 reversed single #
loop $-1 $-1 $40 $15 #
plane-surface $-1 0 0 -12.846899551772719 0 0 1 1 0 0 forward_v I I I I #
coedge $-1 $41 $42 $43 $44 forward $16 $-1 #
face $-1 $45 $46 $10 $-1 $47 reversed single #
loop $-1 $-1 $48 $18 #
plane-surface $-1 43.423833181064118 -138.48833578258552 122.83243407445495 1 0 0 0 0.68199836817093118 -0.7313536940579346 forward_v I I I I #
coedge $-1 $49 $50 $51 $52 reversed $19 $-1 #
face $-1 $-1 $53 $11 $-1 $54 forward single #
loop $-1 $55 $56 $21 #
cone-surface $-1 60.337362923733139 -30.138078462456754 9.8766334445808894 0 0.68199836817093118 -0.7313536940579346 0.5 0 0 1 I I -0.70710678118654746 0.70710678118654746 0.5 forward I I I I #
loop $-1 $-1 $57 $14 #
coedge $-1 $36 $36 $58 $59 reversed $22 $-1 #
face $-1 $60 $61 $9 $-1 $62 reversed single #
loop $-1 $-1 $63 $24 #
plane-surface $-1 0 -33.11837030611747 0 0 1 0 0 0 1 forward_v I I I I #
coedge $-1 $64 $65 $66 $67 forward $25 $-1 #
coedge $-1 $68 $27 $69 $70 forward $16 $-1 #
coedge $-1 $27 $68 $71 $72 forward $16 $-1 #
coedge $-1 $73 $74 $27 $44 reversed $75 $-1 #
edge $-1 $76 -33.11837030611747 $77 33.11837030611747 $43 $78 forward 7 unknown #
face $-1 $79 $80 $10 $-1 $81 forward single #
loop $-1 $-1 $82 $28 #
plane-surface $-1 0 -33.11837030611747 0 0 1 0 0 0 1 forward_v I I I I #
coedge $-1 $83 $84 $85 $86 reversed $29 $-1 #
coedge $-1 $87 $31 $88 $89 reversed $19 $-1 #
coedge $-1 $31 $87 $83 $90 forward $19 $-1 #
coedge $-1 $85 $91 $31 $52 forward $80 $-1 #
edge $-1 $92 -47.082211204535596 $93 -13.255151719197549 $51 $94 forward 7 unknown #
loop $-1 $-1 $58 $32 #
plane-surface $-1 60.337362923733139 -33.118370306117455 9.836982632762485 0 -0.68199836817093118 0.7313536940579346 1 0 0 forward_v I I I I #
loop $-1 $-1 $95 $21 #
coedge $-1 $56 $56 $57 $96 reversed $33 $-1 #
coedge $-1 $57 $57 $56 $96 forward $35 $-1 #
coedge $-1 $58 $58 $36 $59 forward $53 $-1 #
edge $-1 $97 -2.7736356143213148e-015 $97 6.2831853071795978 $58 $98 forward 7 unknown #
face $-1 $99 $100 $9 $-1 $101 reversed single #
loop $-1 $-1 $102 $37 #
plane-surface $-1 -77.250892666402166 0 0 1 0 0 0 0 -1 forward_v I I I I #
coedge $-1 $103 $71 $104 $105 forward $38 $-1 #
coedge $-1 $106 $40 $103 $107 forward $25 $-1 #
coedge $-1 $40 $106 $108 $109 forward $25 $-1 #
coedge $-1 $74 $73 $40 $67 reversed $75 $-1 #
edge $-1 $110 -33.11837030611747 $111 33.11837030611747 $66 $112 forward 7 unknown #
coedge $-1 $42 $41 $113 $114 forward $16 $-1 #
coedge $-1 $115 $116 $41 $70 reversed $100 $-1 #
edge $-1 $77 -77.250892666402166 $117 77.250892666402166 $69 $118 forward 7 unknown #
coedge $-1 $63 $119 $42 $72 reversed $38 $-1 #
edge $-1 $120 -77.250892666402166 $76 77.250892666402166 $71 $121 forward 7 unknown #
coedge $-1 $66 $43 $119 $122 forward $75 $-1 #
coedge $-1 $43 $66 $115 $123 reversed $75 $-1 #
loop $-1 $-1 $73 $99 #
vertex $-1 $44 $124 #
vertex $-1 $44 $125 #
straight-curve $-1 77.250892666402166 0 12.846899551772719 0 1 0 I I #
face $-1 $-1 $126 $10 $-1 $127 reversed single #
loop $-1 $-1 $85 $45 #
plane-surface $-1 0 0 12.846899551772719 0 0 1 1 0 0 forward_v I I I I #
coedge $-1 $128 $129 $84 $130 forward $46 $-1 #
coedge $-1 $84 $48 $50 $90 reversed $29 $-1 #
coedge $-1 $48 $83 $82 $130 reversed $29 $-1 #
coedge $-1 $131 $51 $48 $86 forward $80 $-1 #
edge $-1 $93 -39.353538237149841 $132 -36.125797585175292 $85 $133 forward 7 unknown #
coedge $-1 $50 $49 $128 $134 reversed $19 $-1 #
coedge $-1 $135 $136 $49 $89 forward $126 $-1 #
edge $-1 $137 -8.7562181806439234 $92 -4.3428397042663054 $88 $138 forward 7 unknown #
edge $-1 $139 -1.8873468352005311e-014 $93 4.4133784763775985 $83 $140 forward 7 unknown #
coedge $-1 $51 $131 $135 $141 forward $80 $-1 #
vertex $-1 $89 $142 #
vertex $-1 $52 $143 #
straight-curve $-1 30.168681461866569 -29.89062965414292 12.846899551772719 -1 0 0 I I #
coedge $-1 $95 $95 $-1 $144 reversed $55 $-1 #
edge $-1 $145 0 $145 6.2831853071796004 $56 $146 forward 7 unknown #
vertex $-1 $59 $147 #
ellipse-curve $-1 60.337362923733139 -31.504499980130191 11.341941092267597 0 -0.68199836817093118 0.7313536940579346 1 0 0 1 I I #
face $-1 $-1 $75 $9 $-1 $148 reversed single #
loop $-1 $-1 $115 $60 #
plane-surface $-1 0 33.11837030611747 0 0 -1 0 0 0 -1 forward_v I I I I #
coedge $-1 $149 $113 $116 $150 forward $61 $-1 #
coedge $-1 $119 $63 $64 $107 reversed $38 $-1 #
coedge $-1 $113 $149 $63 $105 reversed $61 $-1 #
edge $-1 $120 -12.846899551772719 $151 12.846899551772719 $104 $152 forward 7 unknown #
coedge $-1 $65 $64 $149 $153 forward $25 $-1 #
edge $-1 $111 -77.250892666402166 $151 77.250892666402166 $103 $154 forward 7 unknown #
coedge $-1 $116 $115 $65 $109 reversed $100 $-1 #
edge $-1 $155 -77.250892666402166 $110 77.250892666402166 $108 $156 forward 7 unknown #
vertex $-1 $67 $157 #
vertex $-1 $122 $158 #
straight-curve $-1 77.250892666402166 0 -12.846899551772719 0 -1 0 I I #
coedge $-1 $102 $104 $68 $114 reversed $61 $-1 #
edge $-1 $117 -33.11837030611747 $120 33.11837030611747 $113 $159 forward 7 unknown #
coedge $-1 $108 $69 $74 $123 forward $100 $-1 #
coedge $-1 $69 $108 $102 $150 reversed $100 $-1 #
vertex $-1 $70 $160 #
straight-curve $-1 0 33.11837030611747 12.846899551772719 -1 0 0 I I #
coedge $-1 $71 $103 $73 $122 reversed $38 $-1 #
vertex $-1 $114 $161 #
straight-curve $-1 0 -33.11837030611747 12.846899551772719 1 0 0 I I #
edge $-1 $76 -12.846899551772719 $111 12.846899551772719 $73 $162 forward 7 unknown #
edge $-1 $77 -12.846899551772719 $110 12.846899551772719 $74 $163 forward 7 unknown #
point $-1 77.250892666402166 -33.11837030611747 12.846899551772719 #
point $-1 77.250892666402166 33.11837030611747 12.846899551772719 #
loop $-1 $-1 $88 $79 #
plane-surface $-1 77.250892666402166 0 0 -1 0 0 0 0 1 forward_v I I I I #
coedge $-1 $164 $82 $87 $134 forward $46 $-1 #
coedge $-1 $82 $164 $131 $165 reversed $46 $-1 #
edge $-1 $132 48.569317485454761 $139 51.579234404465005 $82 $166 forward 7 unknown #
coedge $-1 $91 $85 $129 $165 forward $80 $-1 #
vertex $-1 $165 $167 #
straight-curve $-1 43.423833181064118 -69.244167891292761 12.846899551772722 0 -1 0 I I #
edge $-1 $139 13.255151719197549 $137 47.082211204535596 $128 $168 forward 7 unknown #
coedge $-1 $136 $88 $91 $141 reversed $126 $-1 #
coedge $-1 $88 $135 $164 $169 forward $126 $-1 #
vertex $-1 $134 $170 #
straight-curve $-1 77.250892666402166 -26.714477793726289 15.808709143310267 0 0.7313536940579346 0.68199836817093118 I I #
vertex $-1 $134 $171 #
straight-curve $-1 43.423833181064118 -33.118370306117455 9.836982632762485 0 0.7313536940579346 0.68199836817093118 I I #
edge $-1 $172 -33.11837030611747 $92 -29.89062965414292 $135 $173 forward 7 unknown #
point $-1 77.250892666402166 -29.89062965414292 12.846899551772719 #
point $-1 43.423833181064118 -29.89062965414292 12.846899551772719 #
edge $-1 $174 1 $174 0 $95 $-1 forward 7 unknown #
vertex $-1 $96 $175 #
ellipse-curve $-1 60.337362923733139 -30.479077646542219 10.242310291609856 0 -0.68199836817093118 0.7313536940579346 1 0 0 1 I I #
point $-1 61.337362923733139 -31.504499980130198 11.3419410922676 #
plane-surface $-1 77.250892666402166 0 0 -1 0 0 0 0 1 forward_v I I I I #
coedge $-1 $104 $102 $106 $153 reversed $61 $-1 #
edge $-1 $117 -12.846899551772719 $155 12.846899551772719 $116 $176 forward 7 unknown #
vertex $-1 $153 $177 #
straight-curve $-1 -77.250892666402166 -33.11837030611747 0 0 0 -1 I I #
edge $-1 $151 -33.11837030611747 $155 33.11837030611747 $149 $178 forward 7 unknown #
straight-curve $-1 0 -33.11837030611747 -12.846899551772719 -1 0 0 I I #
vertex $-1 $109 $179 #
straight-curve $-1 0 33.11837030611747 -12.846899551772719 1 0 0 I I #
point $-1 77.250892666402166 33.11837030611747 -12.846899551772719 #
point $-1 77.250892666402166 -33.11837030611747 -12.846899551772719 #
straight-curve $-1 -77.250892666402166 0 12.846899551772719 0 -1 0 I I #
point $-1 -77.250892666402166 33.11837030611747 12.846899551772719 #
point $-1 -77.250892666402166 -33.11837030611747 12.846899551772719 #
straight-curve $-1 77.250892666402166 -33.11837030611747 0 0 0 -1 I I #
straight-curve $-1 77.250892666402166 33.11837030611747 0 0 0 -1 I I #
coedge $-1 $129 $128 $136 $169 reversed $46 $-1 #
edge $-1 $132 43.423833181064118 $172 77.250892666402166 $129 $180 forward 7 unknown #
straight-curve $-1 43.423833181064118 -33.11837030611747 61.416217037227476 0 0 -1 I I #
point $-1 43.423833181064118 -33.11837030611747 12.846899551772719 #
straight-curve $-1 30.168681461866569 -33.11837030611747 9.8369826327624725 1 0 0 I I #
edge $-1 $172 -12.846899551772719 $137 -9.8369826327624725 $136 $181 forward 7 unknown #
point $-1 77.250892666402166 -33.11837030611747 9.8369826327624725 #
point $-1 43.423833181064118 -33.11837030611747 9.8369826327624725 #
vertex $-1 $141 $182 #
straight-curve $-1 77.250892666402166 0 12.846899551772719 0 1 0 I I #
vertex $-1 $144 $183 #
point $-1 61.337362923733139 -30.479077646542219 10.242310291609856 #
straight-curve $-1 -77.250892666402166 33.11837030611747 0 0 0 -1 I I #
point $-1 -77.250892666402166 -33.11837030611747 -12.846899551772719 #
straight-curve $-1 -77.250892666402166 0 -12.846899551772719 0 1 0 I I #
point $-1 -77.250892666402166 33.11837030611747 -12.846899551772719 #
straight-curve $-1 0 -33.11837030611747 12.846899551772719 1 0 0 I I #
straight-curve $-1 77.250892666402166 -33.11837030611747 0 0 0 -1 I I #
point $-1 77.250892666402166 -33.11837030611747 12.846899551772719 #
point $-1 60.337362923733139 -29.797079278371289 9.5109565975519228 #
End-of-ACIS-data 