500 0 7 0           
7 Unknown 11 ACIS 5.0 NT 24 Thu Mar 25 15:30:37 1999 
-1 9.9999999999999995e-007 1e-010 
body $-1 $7 $-1 $8 #
body $-1 $9 $-1 $10 #
body $-1 $11 $-1 $12 #
body $-1 $13 $-1 $14 #
body $-1 $15 $-1 $16 #
body $-1 $17 $-1 $18 #
body $-1 $19 $-1 $20 #
lump $-1 $-1 $21 $0 #
transform $-1 1 0 0 0 1 0 0 0 1 40.051271095919674 22.258298037165648 5.4131267860519925 1 rotate no_reflect no_shear #
lump $-1 $-1 $22 $1 #
transform $-1 1 0 0 0 1 0 0 0 1 40.051271095919674 22.258298037165648 5.4131267860519925 1 rotate no_reflect no_shear #
lump $-1 $-1 $23 $2 #
transform $-1 1 0 0 0 1 0 0 0 1 40.051271095919674 22.258298037165648 5.4131267860519925 1 rotate no_reflect no_shear #
lump $-1 $-1 $24 $3 #
transform $-1 1 0 0 0 1 0 0 0 1 40.051271095919674 22.258298037165648 5.4131267860519925 1 rotate no_reflect no_shear #
lump $-1 $-1 $25 $4 #
transform $-1 1 0 0 0 1 0 0 0 1 40.051271095919674 22.258298037165648 5.4131267860519925 1 rotate no_reflect no_shear #
lump $-1 $-1 $26 $5 #
transform $-1 1 0 0 0 1 0 0 0 1 40.051271095919674 22.258298037165648 5.4131267860519925 1 rotate no_reflect no_shear #
lump $-1 $-1 $27 $6 #
transform $-1 1 0 0 0 1 0 0 0 1 40.051271095919674 22.258298037165648 5.4131267860519925 1 rotate no_reflect no_shear #
shell $-1 $-1 $-1 $28 $-1 $7 #
shell $-1 $-1 $-1 $29 $-1 $9 #
shell $-1 $-1 $-1 $30 $-1 $11 #
shell $-1 $-1 $-1 $31 $-1 $13 #
shell $-1 $-1 $-1 $32 $-1 $15 #
shell $-1 $-1 $-1 $33 $-1 $17 #
shell $-1 $-1 $-1 $34 $-1 $19 #
face $-1 $35 $36 $21 $-1 $37 forward single #
face $-1 $38 $39 $22 $-1 $40 reversed single #
face $-1 $41 $42 $23 $-1 $43 forward single #
face $-1 $44 $45 $24 $-1 $46 forward single #
face $-1 $47 $48 $25 $-1 $49 reversed single #
face $-1 $50 $51 $26 $-1 $52 forward single #
face $-1 $53 $54 $27 $-1 $55 forward single #
face $-1 $56 $57 $21 $-1 $58 reversed single #
loop $-1 $-1 $59 $28 #
plane-surface $-1 0 0 5.4131267860519925 0 0 1 1 0 0 forward_v I I I I #
face $-1 $60 $61 $22 $-1 $62 reversed single #
loop $-1 $-1 $63 $29 #
plane-surface $-1 61.666516692085622 20.115177732301959 112.49436496490183 0 -1 0 -0.82903758062907751 0 -0.55919289150049634 forward_v I I I I #
face $-1 $64 $65 $23 $-1 $66 forward single #
loop $-1 $67 $68 $30 #
cone-surface $-1 38.00773967574596 11.599939375500082 2.9120907528520172 -0.82903758062907751 0 -0.55919289150049634 0.27959644575024817 0 -0.41451879031453875 1 I I 0 1 0.5 forward I I I I #
face $-1 $69 $70 $24 $-1 $71 forward single #
loop $-1 $72 $73 $31 #
cone-surface $-1 38.00773967574596 16.709082389581209 2.9120907528520172 -0.82903758062907751 0 -0.55919289150049634 0.27959644575024817 0 -0.41451879031453875 1 I I 0 1 0.5 forward I I I I #
face $-1 $74 $75 $25 $-1 $76 reversed single #
loop $-1 $-1 $77 $32 #
plane-surface $-1 -106.45928887688076 8.1938440327793316 46.086347183940731 0 1 0 -0.82903758062907751 0 0.55919289150049634 forward_v I I I I #
face $-1 $78 $79 $26 $-1 $80 forward single #
loop $-1 $81 $82 $33 #
cone-surface $-1 -38.007739675745952 11.599939375500082 2.9120907528520119 0.82903758062907751 0 -0.55919289150049634 0.27959644575024817 0 0.41451879031453875 1 I I 0 1 0.5 forward I I I I #
face $-1 $83 $84 $27 $-1 $85 forward single #
loop $-1 $86 $87 $34 #
cone-surface $-1 -38.007739675745952 16.709082389581209 2.9120907528520119 0.82903758062907751 0 -0.55919289150049634 0.27959644575024817 0 0.41451879031453875 1 I I 0 1 0.5 forward I I I I #
face $-1 $88 $89 $21 $-1 $90 reversed single #
loop $-1 $-1 $91 $35 #
plane-surface $-1 0 0 -5.4131267860519925 0 0 1 1 0 0 forward_v I I I I #
coedge $-1 $92 $93 $94 $95 forward $36 $-1 #
face $-1 $96 $97 $22 $-1 $98 reversed single #
loop $-1 $-1 $99 $38 #
plane-surface $-1 -4.7415010888754807 14.154510882540645 67.701592780106694 0.82903758062907751 0 0.55919289150049634 0.55919289150049634 0 -0.82903758062907751 forward_v I I I I #
coedge $-1 $100 $101 $102 $103 reversed $39 $-1 #
face $-1 $-1 $104 $23 $-1 $105 forward single #
loop $-1 $106 $107 $41 #
cone-surface $-1 37.146285200064511 11.599939375500082 2.331032390230118 -0.82903758062907751 0 -0.55919289150049634 0.13979822287512408 0 -0.20725939515726938 1 I I -0.70710678118654746 0.70710678118654746 0.25 forward I I I I #
loop $-1 $-1 $108 $30 #
coedge $-1 $68 $68 $109 $110 reversed $42 $-1 #
face $-1 $-1 $111 $24 $-1 $112 forward single #
loop $-1 $113 $114 $44 #
cone-surface $-1 37.146285200064511 16.709082389581209 2.331032390230118 -0.82903758062907751 0 -0.55919289150049634 0.13979822287512408 0 -0.20725939515726938 1 I I -0.70710678118654746 0.70710678118654746 0.25 forward I I I I #
loop $-1 $-1 $115 $31 #
coedge $-1 $73 $73 $116 $117 reversed $45 $-1 #
face $-1 $118 $119 $25 $-1 $120 reversed single #
loop $-1 $-1 $121 $47 #
plane-surface $-1 -40.05127109591966 14.154510882540645 1.2935749991455836 -0.82903758062907751 0 0.55919289150049634 0.55919289150049634 0 0.82903758062907751 forward_v I I I I #
coedge $-1 $122 $123 $124 $125 reversed $48 $-1 #
face $-1 $-1 $126 $26 $-1 $127 forward single #
loop $-1 $128 $129 $50 #
cone-surface $-1 -37.146285200064504 11.599939375500082 2.3310323902301127 0.82903758062907751 0 -0.55919289150049634 0.13979822287512408 0 0.20725939515726938 1 I I -0.70710678118654746 0.70710678118654746 0.25 forward I I I I #
loop $-1 $-1 $130 $33 #
coedge $-1 $82 $82 $131 $132 reversed $51 $-1 #
face $-1 $-1 $133 $27 $-1 $134 forward single #
loop $-1 $135 $136 $53 #
cone-surface $-1 -37.146285200064504 16.709082389581209 2.3310323902301127 0.82903758062907751 0 -0.55919289150049634 0.13979822287512408 0 0.20725939515726938 1 I I -0.70710678118654746 0.70710678118654746 0.25 forward I I I I #
loop $-1 $-1 $137 $34 #
coedge $-1 $87 $87 $138 $139 reversed $54 $-1 #
face $-1 $140 $141 $21 $-1 $142 reversed single #
loop $-1 $-1 $143 $56 #
plane-surface $-1 0 -22.258298037165648 0 0 1 0 0 0 1 forward_v I I I I #
coedge $-1 $144 $145 $146 $147 forward $57 $-1 #
coedge $-1 $148 $59 $149 $150 forward $36 $-1 #
coedge $-1 $59 $148 $151 $152 forward $36 $-1 #
coedge $-1 $153 $154 $59 $95 reversed $155 $-1 #
edge $-1 $156 -22.258298037165648 $157 22.258298037165648 $94 $158 forward 7 unknown #
face $-1 $159 $160 $22 $-1 $161 forward single #
loop $-1 $-1 $162 $60 #
plane-surface $-1 61.666516692085622 8.1938440327793316 112.49436496490183 0 1 0 0.82903758062907751 0 0.55919289150049634 forward_v I I I I #
coedge $-1 $163 $164 $165 $166 reversed $61 $-1 #
coedge $-1 $101 $63 $167 $168 reversed $39 $-1 #
coedge $-1 $63 $100 $163 $169 reversed $39 $-1 #
coedge $-1 $165 $170 $63 $103 forward $160 $-1 #
edge $-1 $171 -9.2180127498768627 $172 -6.4393400705777779 $102 $173 forward 7 unknown #
loop $-1 $-1 $109 $64 #
plane-surface $-1 -4.7415010888754807 14.154510882540645 67.701592780106694 0.82903758062907751 0 0.55919289150049634 0.55919289150049634 0 -0.82903758062907751 forward_v I I I I #
loop $-1 $-1 $174 $41 #
coedge $-1 $107 $107 $108 $175 reversed $65 $-1 #
coedge $-1 $108 $108 $107 $175 forward $67 $-1 #
coedge $-1 $109 $109 $68 $110 forward $104 $-1 #
edge $-1 $176 0 $176 6.2831853071796004 $109 $177 forward 7 unknown #
loop $-1 $-1 $116 $69 #
plane-surface $-1 -4.7415010888754807 14.154510882540645 67.701592780106694 0.82903758062907751 0 0.55919289150049634 0.55919289150049634 0 -0.82903758062907751 forward_v I I I I #
loop $-1 $-1 $178 $44 #
coedge $-1 $114 $114 $115 $179 reversed $70 $-1 #
coedge $-1 $115 $115 $114 $179 forward $72 $-1 #
coedge $-1 $116 $116 $73 $117 forward $111 $-1 #
edge $-1 $180 0 $180 6.2831853071796004 $116 $181 forward 7 unknown #
face $-1 $182 $183 $25 $-1 $184 reversed single #
loop $-1 $-1 $185 $74 #
plane-surface $-1 -106.45928887688076 20.115177732301959 46.086347183940731 0 -1 0 0.82903758062907751 0 -0.55919289150049634 forward_v I I I I #
coedge $-1 $186 $187 $188 $189 reversed $75 $-1 #
coedge $-1 $123 $77 $190 $191 reversed $48 $-1 #
coedge $-1 $77 $122 $186 $192 reversed $48 $-1 #
coedge $-1 $188 $193 $77 $125 forward $194 $-1 #
edge $-1 $195 13.178373342520707 $196 15.957046021819806 $124 $197 forward 7 unknown #
loop $-1 $-1 $131 $78 #
plane-surface $-1 -40.05127109591966 14.154510882540645 1.2935749991455836 -0.82903758062907751 0 0.55919289150049634 0.55919289150049634 0 0.82903758062907751 forward_v I I I I #
loop $-1 $-1 $198 $50 #
coedge $-1 $129 $129 $130 $199 reversed $79 $-1 #
coedge $-1 $130 $130 $129 $199 forward $81 $-1 #
coedge $-1 $131 $131 $82 $132 forward $126 $-1 #
edge $-1 $200 0 $200 6.2831853071796004 $131 $201 forward 7 unknown #
loop $-1 $-1 $138 $83 #
plane-surface $-1 -40.05127109591966 14.154510882540645 1.2935749991455836 -0.82903758062907751 0 0.55919289150049634 0.55919289150049634 0 0.82903758062907751 forward_v I I I I #
loop $-1 $-1 $202 $53 #
coedge $-1 $136 $136 $137 $203 reversed $84 $-1 #
coedge $-1 $137 $137 $136 $203 forward $86 $-1 #
coedge $-1 $138 $138 $87 $139 forward $133 $-1 #
edge $-1 $204 0 $204 6.2831853071796004 $138 $205 forward 7 unknown #
face $-1 $206 $207 $21 $-1 $208 reversed single #
loop $-1 $-1 $209 $88 #
plane-surface $-1 -40.051271095919674 0 0 1 0 0 0 0 -1 forward_v I I I I #
coedge $-1 $210 $151 $211 $212 forward $89 $-1 #
coedge $-1 $213 $91 $210 $214 forward $57 $-1 #
coedge $-1 $91 $213 $215 $216 forward $57 $-1 #
coedge $-1 $154 $153 $91 $147 reversed $155 $-1 #
edge $-1 $217 -22.258298037165648 $218 22.258298037165648 $146 $219 forward 7 unknown #
coedge $-1 $93 $92 $220 $221 forward $36 $-1 #
coedge $-1 $222 $223 $92 $150 reversed $207 $-1 #
edge $-1 $157 -40.051271095919674 $224 40.051271095919674 $149 $225 forward 7 unknown #
coedge $-1 $143 $226 $93 $152 reversed $89 $-1 #
edge $-1 $227 -40.051271095919674 $156 40.051271095919674 $151 $228 forward 7 unknown #
coedge $-1 $146 $94 $226 $229 forward $155 $-1 #
coedge $-1 $94 $146 $222 $230 reversed $155 $-1 #
loop $-1 $-1 $153 $206 #
vertex $-1 $95 $231 #
vertex $-1 $95 $232 #
straight-curve $-1 40.051271095919674 0 5.4131267860519925 0 1 0 I I #
face $-1 $-1 $233 $22 $-1 $234 reversed single #
loop $-1 $-1 $102 $96 #
plane-surface $-1 0 0 5.4131267860519925 0 0 1 1 0 0 forward_v I I I I #
coedge $-1 $235 $236 $237 $238 reversed $97 $-1 #
coedge $-1 $239 $99 $101 $169 forward $61 $-1 #
coedge $-1 $99 $239 $235 $240 forward $61 $-1 #
coedge $-1 $237 $102 $99 $166 forward $160 $-1 #
edge $-1 $172 -13.037922291031636 $241 -1.116588591509009 $165 $242 forward 7 unknown #
coedge $-1 $243 $244 $100 $168 forward $233 $-1 #
edge $-1 $245 -54.953607483305326 $171 -50.834055696398927 $167 $246 forward 7 unknown #
edge $-1 $172 75.133464935075608 $245 80.102542191839362 $101 $247 forward 7 unknown #
coedge $-1 $102 $237 $243 $248 forward $160 $-1 #
vertex $-1 $168 $249 #
vertex $-1 $103 $250 #
straight-curve $-1 30.833258346042811 20.115177732301959 5.4131267860519898 -1 0 0 I I #
coedge $-1 $174 $174 $-1 $251 reversed $106 $-1 #
edge $-1 $252 0 $252 6.2831853071796004 $107 $253 forward 7 unknown #
vertex $-1 $110 $254 #
ellipse-curve $-1 38.661934756270128 11.599939375500082 3.353350892598788 0.82903758062907751 0 0.55919289150049634 0.27959644575024817 0 -0.41451879031453875 1 I I #
coedge $-1 $178 $178 $-1 $255 reversed $113 $-1 #
edge $-1 $256 0 $256 6.2831853071796004 $114 $257 forward 7 unknown #
vertex $-1 $117 $258 #
ellipse-curve $-1 38.661934756270128 16.709082389581209 3.353350892598788 0.82903758062907751 0 0.55919289150049634 0.27959644575024817 0 -0.41451879031453875 1 I I #
face $-1 $-1 $194 $25 $-1 $259 forward single #
loop $-1 $-1 $260 $118 #
plane-surface $-1 -40.051271095919674 0 0 1 0 0 0 0 -1 forward_v I I I I #
coedge $-1 $261 $262 $263 $264 reversed $119 $-1 #
coedge $-1 $265 $121 $123 $192 forward $75 $-1 #
coedge $-1 $121 $265 $261 $266 forward $75 $-1 #
coedge $-1 $263 $124 $121 $189 forward $194 $-1 #
edge $-1 $196 1.116588591509009 $267 13.037922291031636 $188 $268 forward 7 unknown #
coedge $-1 $269 $270 $122 $191 forward $183 $-1 #
edge $-1 $271 -21.749598592824803 $195 -17.630046805918372 $190 $272 forward 7 unknown #
edge $-1 $196 -4.9690772567637689 $271 2.5434524534472062e-014 $123 $273 forward 7 unknown #
coedge $-1 $124 $263 $269 $274 forward $194 $-1 #
loop $-1 $-1 $263 $182 #
vertex $-1 $191 $275 #
vertex $-1 $125 $276 #
straight-curve $-1 -53.229644438440381 8.1938440327793316 5.4131267860519934 1 0 0 I I #
coedge $-1 $198 $198 $-1 $277 reversed $128 $-1 #
edge $-1 $278 0 $278 6.2831853071796004 $129 $279 forward 7 unknown #
vertex $-1 $132 $280 #
ellipse-curve $-1 -38.661934756270121 11.599939375500082 3.3533508925987809 -0.82903758062907751 0 0.55919289150049634 0.27959644575024817 0 0.41451879031453875 1 I I #
coedge $-1 $202 $202 $-1 $281 reversed $135 $-1 #
edge $-1 $282 0 $282 6.2831853071796004 $136 $283 forward 7 unknown #
vertex $-1 $139 $284 #
ellipse-curve $-1 -38.661934756270121 16.709082389581209 3.3533508925987809 -0.82903758062907751 0 0.55919289150049634 0.27959644575024817 0 0.41451879031453875 1 I I #
face $-1 $-1 $155 $21 $-1 $285 reversed single #
loop $-1 $-1 $222 $140 #
plane-surface $-1 0 22.258298037165648 0 0 -1 0 0 0 -1 forward_v I I I I #
coedge $-1 $286 $220 $223 $287 forward $141 $-1 #
coedge $-1 $226 $143 $144 $214 reversed $89 $-1 #
coedge $-1 $220 $286 $143 $212 reversed $141 $-1 #
edge $-1 $227 -5.4131267860519925 $288 5.4131267860519925 $211 $289 forward 7 unknown #
coedge $-1 $145 $144 $286 $290 forward $57 $-1 #
edge $-1 $218 -40.051271095919674 $288 40.051271095919674 $210 $291 forward 7 unknown #
coedge $-1 $223 $222 $145 $216 reversed $207 $-1 #
edge $-1 $292 -40.051271095919674 $217 40.051271095919674 $215 $293 forward 7 unknown #
vertex $-1 $147 $294 #
vertex $-1 $229 $295 #
straight-curve $-1 40.051271095919674 0 -5.4131267860519925 0 -1 0 I I #
coedge $-1 $209 $211 $148 $221 reversed $141 $-1 #
edge $-1 $224 -22.258298037165648 $227 22.258298037165648 $220 $296 forward 7 unknown #
coedge $-1 $215 $149 $154 $230 forward $207 $-1 #
coedge $-1 $149 $215 $209 $287 reversed $207 $-1 #
vertex $-1 $150 $297 #
straight-curve $-1 0 22.258298037165648 5.4131267860519925 -1 0 0 I I #
coedge $-1 $151 $210 $153 $229 reversed $89 $-1 #
vertex $-1 $221 $298 #
straight-curve $-1 0 -22.258298037165648 5.4131267860519925 1 0 0 I I #
edge $-1 $156 -5.4131267860519925 $218 5.4131267860519925 $153 $299 forward 7 unknown #
edge $-1 $157 -5.4131267860519925 $217 5.4131267860519925 $154 $300 forward 7 unknown #
point $-1 40.051271095919674 -22.258298037165648 5.4131267860519925 #
point $-1 40.051271095919674 22.258298037165648 5.4131267860519925 #
loop $-1 $-1 $167 $159 #
plane-surface $-1 40.051271095919674 0 0 -1 0 0 0 0 1 forward_v I I I I #
coedge $-1 $236 $162 $164 $240 reversed $97 $-1 #
coedge $-1 $162 $235 $301 $302 reversed $97 $-1 #
coedge $-1 $170 $165 $162 $238 forward $160 $-1 #
edge $-1 $241 6.4393400705777779 $303 9.2180127498768627 $237 $304 forward 7 unknown #
coedge $-1 $164 $163 $244 $305 reversed $61 $-1 #
edge $-1 $306 -80.102542191839362 $241 -75.133464935075608 $235 $307 forward 7 unknown #
vertex $-1 $166 $308 #
straight-curve $-1 37.272598416620596 7.0772554412703226 5.4131267860519898 0 -1 0 I I #
coedge $-1 $301 $167 $170 $248 reversed $233 $-1 #
coedge $-1 $167 $301 $239 $305 forward $233 $-1 #
vertex $-1 $168 $309 #
straight-curve $-1 40.051271095919674 20.115177732301959 56.247182482450917 0 0 1 I I #
straight-curve $-1 -4.7415010888754807 20.115177732301959 67.701592780106694 0.55919289150049634 0 -0.82903758062907751 I I #
edge $-1 $303 8.1938440327793316 $171 20.115177732301959 $243 $310 forward 7 unknown #
point $-1 40.051271095919674 20.115177732301959 5.4131267860519925 #
point $-1 37.272598416620589 20.115177732301959 5.4131267860519898 #
edge $-1 $311 1 $311 0 $174 $-1 forward 7 unknown #
vertex $-1 $175 $312 #
ellipse-curve $-1 37.353544595221784 11.599939375500082 2.470830613105242 0.82903758062907751 0 0.55919289150049634 0.27959644575024817 0 -0.41451879031453875 1 I I #
point $-1 38.941531202020386 11.599939375500082 2.9388321022842536 #
edge $-1 $313 1 $313 0 $178 $-1 forward 7 unknown #
vertex $-1 $179 $314 #
ellipse-curve $-1 37.353544595221784 16.709082389581209 2.470830613105242 0.82903758062907751 0 0.55919289150049634 0.27959644575024817 0 -0.41451879031453875 1 I I #
point $-1 38.941531202020386 16.709082389581209 2.9388321022842536 #
plane-surface $-1 0 0 5.4131267860519925 0 0 1 1 0 0 forward_v I I I I #
coedge $-1 $270 $269 $262 $315 forward $183 $-1 #
coedge $-1 $262 $185 $187 $266 reversed $119 $-1 #
coedge $-1 $185 $261 $260 $315 reversed $119 $-1 #
coedge $-1 $193 $188 $185 $264 forward $194 $-1 #
edge $-1 $267 -15.957046021819806 $316 -13.178373342520707 $263 $317 forward 7 unknown #
coedge $-1 $187 $186 $270 $318 reversed $75 $-1 #
edge $-1 $319 -2.5434524534472062e-014 $267 4.9690772567637689 $261 $320 forward 7 unknown #
vertex $-1 $189 $321 #
straight-curve $-1 -37.272598416620582 7.0772554412703226 5.4131267860519934 0 1 0 I I #
coedge $-1 $260 $190 $193 $274 reversed $183 $-1 #
coedge $-1 $190 $260 $265 $318 forward $183 $-1 #
vertex $-1 $191 $322 #
straight-curve $-1 -40.051271095919674 8.1938440327793316 23.043173591970366 0 0 1 I I #
straight-curve $-1 -40.05127109591966 8.1938440327793316 1.2935749991455836 -0.55919289150049634 0 -0.82903758062907751 I I #
edge $-1 $316 -20.115177732301959 $195 -8.1938440327793316 $269 $323 forward 7 unknown #
point $-1 -40.051271095919674 8.1938440327793316 5.4131267860519925 #
point $-1 -37.272598416620575 8.1938440327793316 5.4131267860519925 #
edge $-1 $324 1 $324 0 $198 $-1 forward 7 unknown #
vertex $-1 $199 $325 #
ellipse-curve $-1 -37.353544595221777 11.599939375500082 2.4708306131052367 -0.82903758062907751 0 0.55919289150049634 0.27959644575024817 0 0.41451879031453875 1 I I #
point $-1 -38.382338310519884 11.599939375500082 3.7678696829133256 #
edge $-1 $326 1 $326 0 $202 $-1 forward 7 unknown #
vertex $-1 $203 $327 #
ellipse-curve $-1 -37.353544595221777 16.709082389581209 2.4708306131052367 -0.82903758062907751 0 0.55919289150049634 0.27959644575024817 0 0.41451879031453875 1 I I #
point $-1 -38.382338310519884 16.709082389581209 3.7678696829133256 #
plane-surface $-1 40.051271095919674 0 0 -1 0 0 0 0 1 forward_v I I I I #
coedge $-1 $211 $209 $213 $290 reversed $141 $-1 #
edge $-1 $224 -5.4131267860519925 $292 5.4131267860519925 $223 $328 forward 7 unknown #
vertex $-1 $290 $329 #
straight-curve $-1 -40.051271095919674 -22.258298037165648 0 0 0 -1 I I #
edge $-1 $288 -22.258298037165648 $292 22.258298037165648 $286 $330 forward 7 unknown #
straight-curve $-1 0 -22.258298037165648 -5.4131267860519925 -1 0 0 I I #
vertex $-1 $216 $331 #
straight-curve $-1 0 22.258298037165648 -5.4131267860519925 1 0 0 I I #
point $-1 40.051271095919674 22.258298037165648 -5.4131267860519925 #
point $-1 40.051271095919674 -22.258298037165648 -5.4131267860519925 #
straight-curve $-1 -40.051271095919674 0 5.4131267860519925 0 -1 0 I I #
point $-1 -40.051271095919674 22.258298037165648 5.4131267860519925 #
point $-1 -40.051271095919674 -22.258298037165648 5.4131267860519925 #
straight-curve $-1 40.051271095919674 -22.258298037165648 0 0 0 -1 I I #
straight-curve $-1 40.051271095919674 22.258298037165648 0 0 0 -1 I I #
coedge $-1 $244 $243 $236 $302 forward $233 $-1 #
edge $-1 $303 50.834055696398927 $306 54.953607483305326 $301 $332 forward 7 unknown #
vertex $-1 $248 $333 #
straight-curve $-1 30.833258346042811 8.1938440327793316 5.4131267860519898 1 0 0 I I #
edge $-1 $306 1.116588591509009 $245 13.037922291031636 $244 $334 forward 7 unknown #
vertex $-1 $305 $335 #
straight-curve $-1 -4.7415010888754807 8.1938440327793316 67.701592780106694 -0.55919289150049634 0 0.82903758062907751 I I #
point $-1 37.272598416620589 8.1938440327793316 5.4131267860519898 #
point $-1 40.051271095919681 20.115177732301959 1.2935749991455907 #
straight-curve $-1 40.051271095919674 0 5.4131267860519925 0 1 0 I I #
vertex $-1 $251 $336 #
point $-1 37.633141040972028 11.599939375500082 2.0563118227907031 #
vertex $-1 $255 $337 #
point $-1 37.633141040972028 16.709082389581209 2.0563118227907031 #
edge $-1 $316 17.630046805918372 $319 21.749598592824803 $260 $338 forward 7 unknown #
vertex $-1 $274 $339 #
straight-curve $-1 -53.229644438440381 20.115177732301959 5.4131267860519934 -1 0 0 I I #
edge $-1 $319 -13.037922291031636 $271 -1.116588591509009 $270 $340 forward 7 unknown #
vertex $-1 $318 $341 #
straight-curve $-1 -40.05127109591966 20.115177732301959 1.2935749991455836 0.55919289150049634 0 0.82903758062907751 I I #
point $-1 -37.272598416620575 20.115177732301959 5.4131267860519925 #
point $-1 -40.051271095919674 8.1938440327793316 1.2935749991455625 #
straight-curve $-1 -40.051271095919674 0 5.4131267860519925 0 -1 0 I I #
vertex $-1 $277 $342 #
point $-1 -37.073948149471526 11.599939375500082 2.8853494034197755 #
vertex $-1 $281 $343 #
point $-1 -37.073948149471526 16.709082389581209 2.8853494034197755 #
straight-curve $-1 -40.051271095919674 22.258298037165648 0 0 0 -1 I I #
point $-1 -40.051271095919674 -22.258298037165648 -5.4131267860519925 #
straight-curve $-1 -40.051271095919674 0 -5.4131267860519925 0 1 0 I I #
point $-1 -40.051271095919674 22.258298037165648 -5.4131267860519925 #
straight-curve $-1 40.051271095919674 8.1938440327793316 56.247182482450917 0 0 -1 I I #
point $-1 40.051271095919674 8.1938440327793316 5.4131267860519925 #
straight-curve $-1 40.051271095919674 7.0772554412703226 1.2935749991455836 0 1 0 I I #
point $-1 40.051271095919681 8.1938440327793316 1.2935749991455907 #
point $-1 36.939025804907239 11.599939375500082 2.191234167354994 #
point $-1 36.939025804907239 16.709082389581209 2.191234167354994 #
straight-curve $-1 -40.051271095919674 20.115177732301959 23.043173591970366 0 0 -1 I I #
point $-1 -40.051271095919674 20.115177732301959 5.4131267860519925 #
straight-curve $-1 -40.051271095919674 7.0772554412703226 1.2935749991455618 0 -1 0 I I #
point $-1 -40.051271095919674 20.115177732301959 1.2935749991455625 #
point $-1 -36.939025804907232 11.599939375500082 2.1912341673549887 #
point $-1 -36.939025804907232 16.709082389581209 2.1912341673549887 #
End-of-ACIS-data 