500 0 5 0           
7 Unknown 11 ACIS 5.0 NT 24 Fri Mar 26 00:08:14 1999 
-1 9.9999999999999995e-007 1e-010 
body $-1 $5 $-1 $6 #
body $-1 $7 $-1 $8 #
body $-1 $9 $-1 $10 #
body $-1 $11 $-1 $12 #
body $-1 $13 $-1 $14 #
lump $-1 $-1 $15 $0 #
transform $-1 1 0 0 0 1 0 0 0 1 69.413739432966096 41.063140512363496 11.860526772397897 1 rotate no_reflect no_shear #
lump $-1 $-1 $16 $1 #
transform $-1 1 0 0 0 1 0 0 0 1 69.413739432966096 41.063140512363496 11.860526772397897 1 rotate no_reflect no_shear #
lump $-1 $-1 $17 $2 #
transform $-1 1 0 0 0 1 0 0 0 1 69.413739432966096 41.063140512363496 11.860526772397897 1 rotate no_reflect no_shear #
lump $-1 $-1 $18 $3 #
transform $-1 1 0 0 0 1 0 0 0 1 69.413739432966096 41.063140512363496 11.860526772397897 1 rotate no_reflect no_shear #
lump $-1 $-1 $19 $4 #
transform $-1 1 0 0 0 1 0 0 0 1 69.413739432966096 41.063140512363496 11.860526772397897 1 rotate no_reflect no_shear #
shell $-1 $-1 $-1 $20 $-1 $5 #
shell $-1 $-1 $-1 $21 $-1 $7 #
shell $-1 $-1 $-1 $22 $-1 $9 #
shell $-1 $-1 $-1 $23 $-1 $11 #
shell $-1 $-1 $-1 $24 $-1 $13 #
face $-1 $25 $26 $15 $-1 $27 forward single #
face $-1 $28 $29 $16 $-1 $30 reversed single #
face $-1 $31 $32 $17 $-1 $33 reversed single #
face $-1 $34 $35 $18 $-1 $36 forward single #
face $-1 $37 $38 $19 $-1 $39 forward single #
face $-1 $40 $41 $15 $-1 $42 reversed single #
loop $-1 $-1 $43 $20 #
plane-surface $-1 0 0 11.860526772397897 0 0 1 1 0 0 forward_v I I I I #
face $-1 $44 $45 $16 $-1 $46 reversed single #
loop $-1 $-1 $47 $21 #
plane-surface $-1 -63.529340707777635 -37.879363499373063 0 0 -1 0 0 0 -1 forward_v I I I I #
face $-1 $48 $49 $17 $-1 $50 reversed single #
loop $-1 $-1 $51 $22 #
plane-surface $-1 38.245128244292445 -156.15633771621032 84.769894771710256 -1 0 0 0 -0.82903758062907751 0.55919289150049634 forward_v I I I I #
face $-1 $52 $53 $18 $-1 $54 forward single #
loop $-1 $55 $56 $23 #
cone-surface $-1 11.235415869035322 -38.897176006224164 9.1127377247090813 0 0.82903758062907751 -0.55919289150049634 1 0 0 1 I I 0 1 1 forward I I I I #
face $-1 $57 $58 $19 $-1 $59 forward single #
loop $-1 $60 $61 $24 #
cone-surface $-1 27.44124329418959 -38.897176006224164 9.1127377247090813 0 0.82903758062907751 -0.55919289150049634 1 0 0 1 I I 0 1 1 forward I I I I #
face $-1 $62 $63 $15 $-1 $64 reversed single #
loop $-1 $-1 $65 $25 #
plane-surface $-1 0 0 -11.860526772397897 0 0 1 1 0 0 forward_v I I I I #
coedge $-1 $66 $67 $68 $69 forward $26 $-1 #
face $-1 $70 $71 $16 $-1 $72 forward single #
loop $-1 $-1 $73 $28 #
plane-surface $-1 -57.644941982589174 -39.47125200586828 0 -1 0 0 0 0 1 forward_v I I I I #
coedge $-1 $74 $75 $76 $77 forward $29 $-1 #
face $-1 $78 $79 $17 $-1 $80 reversed single #
loop $-1 $-1 $81 $31 #
plane-surface $-1 19.338329581612456 -41.063140512363503 7.138555444945581 0 -0.82903758062907751 0.55919289150049634 1 0 0 forward_v I I I I #
coedge $-1 $82 $83 $84 $85 reversed $32 $-1 #
face $-1 $-1 $86 $18 $-1 $87 forward single #
loop $-1 $88 $89 $34 #
cone-surface $-1 11.235415869035322 -37.909197598497343 8.4463378949961729 0 0.82903758062907751 -0.55919289150049634 0.5 0 0 1 I I -0.70710678118654746 0.70710678118654746 0.5 forward I I I I #
loop $-1 $-1 $90 $23 #
coedge $-1 $56 $56 $91 $92 reversed $35 $-1 #
face $-1 $-1 $93 $19 $-1 $94 forward single #
loop $-1 $95 $96 $37 #
cone-surface $-1 27.44124329418959 -37.909197598497343 8.4463378949961729 0 0.82903758062907751 -0.55919289150049634 0.5 0 0 1 I I -0.70710678118654746 0.70710678118654746 0.5 forward I I I I #
loop $-1 $-1 $97 $24 #
coedge $-1 $61 $61 $98 $99 reversed $38 $-1 #
face $-1 $100 $101 $15 $-1 $102 reversed single #
loop $-1 $-1 $103 $40 #
plane-surface $-1 0 -41.063140512363496 0 0 1 0 0 0 1 forward_v I I I I #
coedge $-1 $104 $105 $106 $107 forward $41 $-1 #
coedge $-1 $108 $43 $109 $110 forward $26 $-1 #
coedge $-1 $43 $108 $111 $112 forward $26 $-1 #
coedge $-1 $113 $114 $43 $69 reversed $115 $-1 #
edge $-1 $116 -41.063140512363496 $117 41.063140512363496 $68 $118 forward 7 unknown #
face $-1 $119 $120 $16 $-1 $121 reversed single #
loop $-1 $-1 $122 $44 #
plane-surface $-1 0 0 11.860526772397897 0 0 1 1 0 0 forward_v I I I I #
coedge $-1 $123 $124 $125 $126 reversed $45 $-1 #
coedge $-1 $127 $47 $128 $129 reversed $29 $-1 #
coedge $-1 $47 $127 $130 $131 reversed $29 $-1 #
coedge $-1 $124 $123 $47 $77 reversed $45 $-1 #
edge $-1 $132 -11.860526772397897 $133 11.860526772397897 $76 $134 forward 7 unknown #
face $-1 $135 $136 $17 $-1 $137 forward single #
loop $-1 $-1 $138 $48 #
plane-surface $-1 0.43153091893246653 -156.15633771621032 84.769894771710256 1 0 0 0 0.82903758062907751 -0.55919289150049634 forward_v I I I I #
coedge $-1 $139 $140 $141 $142 reversed $49 $-1 #
coedge $-1 $83 $51 $143 $144 reversed $32 $-1 #
coedge $-1 $51 $82 $139 $145 reversed $32 $-1 #
coedge $-1 $141 $146 $51 $85 forward $136 $-1 #
edge $-1 $147 37.015028345741662 $148 40.200038123195746 $84 $149 forward 7 unknown #
loop $-1 $-1 $91 $52 #
plane-surface $-1 19.338329581612456 -41.063140512363503 7.138555444945581 0 -0.82903758062907751 0.55919289150049634 1 0 0 forward_v I I I I #
loop $-1 $-1 $150 $34 #
coedge $-1 $89 $89 $90 $151 reversed $53 $-1 #
coedge $-1 $90 $90 $89 $151 forward $55 $-1 #
coedge $-1 $91 $91 $56 $92 forward $86 $-1 #
edge $-1 $152 -2.9453331529405969e-015 $152 6.2831853071795978 $91 $153 forward 7 unknown #
loop $-1 $-1 $98 $57 #
plane-surface $-1 19.338329581612456 -41.063140512363503 7.138555444945581 0 -0.82903758062907751 0.55919289150049634 1 0 0 forward_v I I I I #
loop $-1 $-1 $154 $37 #
coedge $-1 $96 $96 $97 $155 reversed $58 $-1 #
coedge $-1 $97 $97 $96 $155 forward $60 $-1 #
coedge $-1 $98 $98 $61 $99 forward $93 $-1 #
edge $-1 $156 -2.9453331529405969e-015 $156 6.2831853071795978 $98 $157 forward 7 unknown #
face $-1 $158 $159 $15 $-1 $160 reversed single #
loop $-1 $-1 $161 $62 #
plane-surface $-1 -69.413739432966096 0 0 1 0 0 0 0 -1 forward_v I I I I #
coedge $-1 $162 $111 $163 $164 forward $63 $-1 #
coedge $-1 $165 $65 $162 $166 forward $41 $-1 #
coedge $-1 $65 $165 $167 $168 forward $41 $-1 #
coedge $-1 $114 $113 $65 $107 reversed $115 $-1 #
edge $-1 $169 -41.063140512363496 $170 41.063140512363496 $106 $171 forward 7 unknown #
coedge $-1 $67 $66 $172 $173 forward $26 $-1 #
coedge $-1 $174 $175 $66 $110 reversed $159 $-1 #
edge $-1 $117 -69.413739432966096 $176 69.413739432966096 $109 $177 forward 7 unknown #
coedge $-1 $103 $178 $67 $112 reversed $63 $-1 #
edge $-1 $179 -69.413739432966096 $116 69.413739432966096 $111 $180 forward 7 unknown #
coedge $-1 $106 $68 $178 $181 forward $115 $-1 #
coedge $-1 $68 $106 $174 $182 reversed $115 $-1 #
loop $-1 $-1 $113 $158 #
vertex $-1 $69 $183 #
vertex $-1 $69 $184 #
straight-curve $-1 69.413739432966096 0 11.860526772397897 0 1 0 I I #
face $-1 $185 $186 $16 $-1 $187 reversed single #
loop $-1 $-1 $188 $70 #
plane-surface $-1 -69.413739432966096 0 0 1 0 0 0 0 -1 forward_v I I I I #
coedge $-1 $130 $189 $124 $190 forward $71 $-1 #
coedge $-1 $76 $73 $191 $192 reversed $45 $-1 #
coedge $-1 $73 $76 $122 $190 reversed $45 $-1 #
coedge $-1 $193 $194 $73 $126 forward $195 $-1 #
edge $-1 $196 -11.860526772397897 $197 11.860526772397897 $125 $198 forward 7 unknown #
coedge $-1 $75 $74 $188 $199 reversed $29 $-1 #
coedge $-1 $191 $200 $74 $129 forward $186 $-1 #
edge $-1 $201 -37.649069079077279 $133 -25.880271628700356 $128 $202 forward 7 unknown #
coedge $-1 $203 $122 $75 $131 forward $71 $-1 #
edge $-1 $132 25.880271628700356 $204 37.649069079077279 $130 $205 forward 7 unknown #
vertex $-1 $131 $206 #
vertex $-1 $129 $207 #
straight-curve $-1 -57.644941982589174 -37.879363499373063 0 0 0 -1 I I #
face $-1 $-1 $208 $17 $-1 $209 reversed single #
loop $-1 $-1 $84 $78 #
plane-surface $-1 0 0 11.860526772397897 0 0 1 1 0 0 forward_v I I I I #
coedge $-1 $210 $211 $212 $213 reversed $79 $-1 #
coedge $-1 $214 $81 $83 $145 forward $49 $-1 #
coedge $-1 $81 $214 $210 $215 forward $49 $-1 #
coedge $-1 $212 $84 $81 $142 forward $136 $-1 #
edge $-1 $148 -28.575963453486217 $216 9.2376338718737614 $141 $217 forward 7 unknown #
coedge $-1 $218 $219 $82 $144 forward $208 $-1 #
edge $-1 $220 -35.246391940909533 $147 -30.524420613457231 $143 $221 forward 7 unknown #
edge $-1 $148 -5.6957265120228469 $220 -1.2809303928265426e-014 $83 $222 forward 7 unknown #
coedge $-1 $84 $212 $218 $223 forward $136 $-1 #
vertex $-1 $144 $224 #
vertex $-1 $85 $225 #
straight-curve $-1 38.245128244292445 -78.078168858105158 11.860526772397897 0 1 0 I I #
coedge $-1 $150 $150 $-1 $226 reversed $88 $-1 #
edge $-1 $227 0 $227 6.2831853071796004 $89 $228 forward 7 unknown #
vertex $-1 $92 $229 #
ellipse-curve $-1 11.235415869035322 -39.470635623636454 9.4995411086717443 0 -0.82903758062907751 0.55919289150049634 1 0 0 1 I I #
coedge $-1 $154 $154 $-1 $230 reversed $95 $-1 #
edge $-1 $231 0 $231 6.2831853071796004 $96 $232 forward 7 unknown #
vertex $-1 $99 $233 #
ellipse-curve $-1 27.44124329418959 -39.470635623636454 9.4995411086717443 0 -0.82903758062907751 0.55919289150049634 1 0 0 1 I I #
face $-1 $-1 $115 $15 $-1 $234 reversed single #
loop $-1 $-1 $174 $100 #
plane-surface $-1 0 41.063140512363496 0 0 -1 0 0 0 -1 forward_v I I I I #
coedge $-1 $235 $172 $175 $236 forward $101 $-1 #
coedge $-1 $178 $103 $104 $166 reversed $63 $-1 #
coedge $-1 $172 $235 $103 $164 reversed $101 $-1 #
edge $-1 $179 -11.860526772397897 $237 11.860526772397897 $163 $238 forward 7 unknown #
coedge $-1 $105 $104 $235 $239 forward $41 $-1 #
edge $-1 $170 -69.413739432966096 $237 69.413739432966096 $162 $240 forward 7 unknown #
coedge $-1 $175 $174 $105 $168 reversed $159 $-1 #
edge $-1 $241 -69.413739432966096 $169 69.413739432966096 $167 $242 forward 7 unknown #
vertex $-1 $107 $243 #
vertex $-1 $181 $244 #
straight-curve $-1 69.413739432966096 0 -11.860526772397897 0 -1 0 I I #
coedge $-1 $161 $163 $108 $173 reversed $101 $-1 #
edge $-1 $176 -41.063140512363496 $179 41.063140512363496 $172 $245 forward 7 unknown #
coedge $-1 $167 $109 $114 $182 forward $159 $-1 #
coedge $-1 $109 $167 $161 $236 reversed $159 $-1 #
vertex $-1 $110 $246 #
straight-curve $-1 0 41.063140512363496 11.860526772397897 -1 0 0 I I #
coedge $-1 $111 $162 $113 $181 reversed $63 $-1 #
vertex $-1 $173 $247 #
straight-curve $-1 0 -41.063140512363496 11.860526772397897 1 0 0 I I #
edge $-1 $116 -11.860526772397897 $170 11.860526772397897 $113 $248 forward 7 unknown #
edge $-1 $117 -11.860526772397897 $169 11.860526772397897 $114 $249 forward 7 unknown #
point $-1 69.413739432966096 -41.063140512363496 11.860526772397897 #
point $-1 69.413739432966096 41.063140512363496 11.860526772397897 #
face $-1 $-1 $195 $16 $-1 $250 reversed single #
loop $-1 $-1 $191 $119 #
plane-surface $-1 0 0 -11.860526772397897 0 0 1 1 0 0 forward_v I I I I #
coedge $-1 $251 $252 $127 $199 forward $120 $-1 #
coedge $-1 $122 $203 $193 $253 forward $71 $-1 #
edge $-1 $197 -21.327514509429356 $132 -18.143737496438924 $122 $254 forward 7 unknown #
coedge $-1 $255 $128 $123 $192 forward $186 $-1 #
edge $-1 $133 18.143737496438924 $196 21.327514509429356 $191 $256 forward 7 unknown #
coedge $-1 $257 $125 $189 $253 reversed $195 $-1 #
coedge $-1 $125 $257 $255 $258 reversed $195 $-1 #
loop $-1 $-1 $125 $185 #
vertex $-1 $258 $259 #
vertex $-1 $126 $260 #
straight-curve $-1 -57.644941982589174 -41.063140512363496 0 0 0 1 I I #
edge $-1 $204 -11.860526772397897 $201 11.860526772397897 $188 $261 forward 7 unknown #
coedge $-1 $128 $255 $251 $262 forward $186 $-1 #
vertex $-1 $129 $263 #
straight-curve $-1 -31.764670353888818 -37.879363499373063 -11.860526772397897 1 0 0 I I #
coedge $-1 $189 $130 $252 $264 forward $71 $-1 #
vertex $-1 $264 $265 #
straight-curve $-1 -31.764670353888818 -37.879363499373063 11.860526772397897 -1 0 0 I I #
point $-1 -57.644941982589174 -37.879363499373063 11.860526772397897 #
point $-1 -57.644941982589174 -37.879363499373063 -11.860526772397897 #
loop $-1 $-1 $143 $135 #
plane-surface $-1 0 -41.063140512363496 0 0 1 0 0 0 1 forward_v I I I I #
coedge $-1 $211 $138 $140 $215 reversed $79 $-1 #
coedge $-1 $138 $210 $266 $267 reversed $79 $-1 #
coedge $-1 $146 $141 $138 $213 forward $136 $-1 #
edge $-1 $216 -40.200038123195746 $268 -37.015028345741662 $212 $269 forward 7 unknown #
coedge $-1 $140 $139 $219 $270 reversed $49 $-1 #
edge $-1 $271 1.2809303928265426e-014 $216 5.6957265120228469 $210 $272 forward 7 unknown #
vertex $-1 $142 $273 #
straight-curve $-1 9.6691647908062279 -37.878130734909405 11.860526772397897 -1 0 0 I I #
coedge $-1 $266 $143 $146 $223 reversed $208 $-1 #
coedge $-1 $143 $266 $214 $270 forward $208 $-1 #
vertex $-1 $144 $274 #
straight-curve $-1 38.245128244292445 -41.063140512363496 42.384947385855128 0 0 1 I I #
straight-curve $-1 38.245128244292445 -41.063140512363503 7.138555444945581 0 -0.55919289150049634 -0.82903758062907751 I I #
edge $-1 $268 0.43153091893246653 $147 38.245128244292445 $218 $275 forward 7 unknown #
point $-1 38.245128244292445 -41.063140512363496 11.860526772397897 #
point $-1 38.245128244292445 -37.878130734909412 11.860526772397897 #
edge $-1 $276 1 $276 0 $150 $-1 forward 7 unknown #
vertex $-1 $151 $277 #
ellipse-curve $-1 11.235415869035322 -38.323716388811881 8.7259343407464218 0 -0.82903758062907751 0.55919289150049634 1 0 0 1 I I #
point $-1 12.235415869035322 -39.470635623636454 9.4995411086717407 #
edge $-1 $278 1 $278 0 $154 $-1 forward 7 unknown #
vertex $-1 $155 $279 #
ellipse-curve $-1 27.44124329418959 -38.323716388811881 8.7259343407464218 0 -0.82903758062907751 0.55919289150049634 1 0 0 1 I I #
point $-1 28.44124329418959 -39.470635623636454 9.4995411086717407 #
plane-surface $-1 69.413739432966096 0 0 -1 0 0 0 0 1 forward_v I I I I #
coedge $-1 $163 $161 $165 $239 reversed $101 $-1 #
edge $-1 $176 -11.860526772397897 $241 11.860526772397897 $175 $280 forward 7 unknown #
vertex $-1 $239 $281 #
straight-curve $-1 -69.413739432966096 -41.063140512363496 0 0 0 -1 I I #
edge $-1 $237 -41.063140512363496 $241 41.063140512363496 $235 $282 forward 7 unknown #
straight-curve $-1 0 -41.063140512363496 -11.860526772397897 -1 0 0 I I #
vertex $-1 $168 $283 #
straight-curve $-1 0 41.063140512363496 -11.860526772397897 1 0 0 I I #
point $-1 69.413739432966096 41.063140512363496 -11.860526772397897 #
point $-1 69.413739432966096 -41.063140512363496 -11.860526772397897 #
straight-curve $-1 -69.413739432966096 0 11.860526772397897 0 -1 0 I I #
point $-1 -69.413739432966096 41.063140512363496 11.860526772397897 #
point $-1 -69.413739432966096 -41.063140512363496 11.860526772397897 #
straight-curve $-1 69.413739432966096 -41.063140512363496 0 0 0 -1 I I #
straight-curve $-1 69.413739432966096 41.063140512363496 0 0 0 -1 I I #
plane-surface $-1 0 -41.063140512363496 0 0 1 0 0 0 1 forward_v I I I I #
coedge $-1 $284 $188 $200 $262 reversed $120 $-1 #
coedge $-1 $188 $284 $203 $264 reversed $120 $-1 #
edge $-1 $285 -69.413739432966096 $197 -57.644941982589174 $193 $286 forward 7 unknown #
straight-curve $-1 -57.644941982589174 -19.73562600293414 11.860526772397897 0 1 0 I I #
coedge $-1 $200 $191 $194 $258 forward $186 $-1 #
straight-curve $-1 -57.644941982589174 -19.73562600293414 -11.860526772397897 0 -1 0 I I #
coedge $-1 $194 $193 $284 $287 forward $195 $-1 #
edge $-1 $196 57.644941982589174 $288 69.413739432966096 $194 $289 forward 7 unknown #
point $-1 -57.644941982589174 -41.063140512363496 -11.860526772397897 #
point $-1 -57.644941982589174 -41.063140512363496 11.860526772397897 #
straight-curve $-1 -69.413739432966096 -37.879363499373063 0 0 0 -1 I I #
edge $-1 $288 -41.063140512363496 $201 -37.879363499373063 $251 $290 forward 7 unknown #
point $-1 -69.413739432966096 -37.879363499373063 -11.860526772397897 #
edge $-1 $204 37.879363499373063 $285 41.063140512363496 $252 $291 forward 7 unknown #
point $-1 -69.413739432966096 -37.879363499373063 11.860526772397897 #
coedge $-1 $219 $218 $211 $267 forward $208 $-1 #
edge $-1 $268 30.524420613457231 $271 35.246391940909533 $266 $292 forward 7 unknown #
vertex $-1 $223 $293 #
straight-curve $-1 0.43153091893246653 -78.078168858105158 11.860526772397897 0 -1 0 I I #
edge $-1 $271 -9.2376338718737614 $220 28.575963453486217 $219 $294 forward 7 unknown #
vertex $-1 $270 $295 #
straight-curve $-1 0.43153091893246653 -41.063140512363503 7.138555444945581 0 0.55919289150049634 0.82903758062907751 I I #
point $-1 0.43153091893246653 -37.878130734909412 11.860526772397897 #
point $-1 38.245128244292445 -41.063140512363496 7.1385554449455917 #
straight-curve $-1 0 -41.063140512363496 11.860526772397897 1 0 0 I I #
vertex $-1 $226 $296 #
point $-1 12.235415869035322 -38.323716388811881 8.7259343407464218 #
vertex $-1 $230 $297 #
point $-1 28.44124329418959 -38.323716388811881 8.7259343407464218 #
straight-curve $-1 -69.413739432966096 41.063140512363496 0 0 0 -1 I I #
point $-1 -69.413739432966096 -41.063140512363496 -11.860526772397897 #
straight-curve $-1 -69.413739432966096 0 -11.860526772397897 0 1 0 I I #
point $-1 -69.413739432966096 41.063140512363496 -11.860526772397897 #
coedge $-1 $252 $251 $257 $287 reversed $120 $-1 #
vertex $-1 $264 $298 #
straight-curve $-1 0 -41.063140512363496 11.860526772397897 1 0 0 I I #
edge $-1 $285 -11.860526772397897 $288 11.860526772397897 $284 $299 forward 7 unknown #
vertex $-1 $262 $300 #
straight-curve $-1 0 -41.063140512363496 -11.860526772397897 -1 0 0 I I #
straight-curve $-1 -69.413739432966096 0 -11.860526772397897 0 1 0 I I #
straight-curve $-1 -69.413739432966096 0 11.860526772397897 0 -1 0 I I #
straight-curve $-1 0.43153091893246653 -41.063140512363496 42.384947385855128 0 0 -1 I I #
point $-1 0.43153091893246653 -41.063140512363496 11.860526772397897 #
straight-curve $-1 9.6691647908062279 -41.063140512363496 7.1385554449455988 1 0 0 I I #
point $-1 0.43153091893246653 -41.063140512363496 7.1385554449455917 #
point $-1 11.235415869035322 -37.494678808182805 8.166741449245924 #
point $-1 27.44124329418959 -37.494678808182805 8.166741449245924 #
point $-1 -69.413739432966096 -41.063140512363496 11.860526772397897 #
straight-curve $-1 -69.413739432966096 -41.063140512363496 0 0 0 -1 I I #
point $-1 -69.413739432966096 -41.063140512363496 -11.860526772397897 #
End-of-ACIS-data 