500 0 9 0           
7 Unknown 11 ACIS 5.0 NT 24 Thu Mar 25 19:23:27 1999 
-1 9.9999999999999995e-007 1e-010 
body $-1 $9 $-1 $10 #
body $-1 $11 $-1 $12 #
body $-1 $13 $-1 $14 #
body $-1 $15 $-1 $16 #
body $-1 $17 $-1 $18 #
body $-1 $19 $-1 $20 #
body $-1 $21 $-1 $22 #
body $-1 $23 $-1 $24 #
body $-1 $25 $-1 $26 #
lump $-1 $-1 $27 $0 #
transform $-1 1 0 0 0 1 0 0 0 1 62.687459944456307 27.484377179908087 5.7467486609303347 1 rotate no_reflect no_shear #
lump $-1 $-1 $28 $1 #
transform $-1 1 0 0 0 1 0 0 0 1 62.687459944456307 27.484377179908087 5.7467486609303347 1 rotate no_reflect no_shear #
lump $-1 $-1 $29 $2 #
transform $-1 1 0 0 0 1 0 0 0 1 62.687459944456307 27.484377179908087 5.7467486609303347 1 rotate no_reflect no_shear #
lump $-1 $-1 $30 $3 #
transform $-1 1 0 0 0 1 0 0 0 1 62.687459944456307 27.484377179908087 5.7467486609303347 1 rotate no_reflect no_shear #
lump $-1 $-1 $31 $4 #
transform $-1 1 0 0 0 1 0 0 0 1 62.687459944456307 27.484377179908087 5.7467486609303347 1 rotate no_reflect no_shear #
lump $-1 $-1 $32 $5 #
transform $-1 1 0 0 0 1 0 0 0 1 62.687459944456307 27.484377179908087 5.7467486609303347 1 rotate no_reflect no_shear #
lump $-1 $-1 $33 $6 #
transform $-1 1 0 0 0 1 0 0 0 1 62.687459944456307 27.484377179908087 5.7467486609303347 1 rotate no_reflect no_shear #
lump $-1 $-1 $34 $7 #
transform $-1 1 0 0 0 1 0 0 0 1 62.687459944456307 27.484377179908087 5.7467486609303347 1 rotate no_reflect no_shear #
lump $-1 $-1 $35 $8 #
transform $-1 1 0 0 0 1 0 0 0 1 62.687459944456307 27.484377179908087 5.7467486609303347 1 rotate no_reflect no_shear #
shell $-1 $-1 $-1 $36 $-1 $9 #
shell $-1 $-1 $-1 $37 $-1 $11 #
shell $-1 $-1 $-1 $38 $-1 $13 #
shell $-1 $-1 $-1 $39 $-1 $15 #
shell $-1 $-1 $-1 $40 $-1 $17 #
shell $-1 $-1 $-1 $41 $-1 $19 #
shell $-1 $-1 $-1 $42 $-1 $21 #
shell $-1 $-1 $-1 $43 $-1 $23 #
shell $-1 $-1 $-1 $44 $-1 $25 #
face $-1 $45 $46 $27 $-1 $47 forward single #
face $-1 $48 $49 $28 $-1 $50 forward single #
face $-1 $51 $52 $29 $-1 $53 forward single #
face $-1 $54 $55 $30 $-1 $56 reversed single #
face $-1 $57 $58 $31 $-1 $59 forward single #
face $-1 $60 $61 $32 $-1 $62 forward single #
face $-1 $63 $64 $33 $-1 $65 reversed single #
face $-1 $66 $67 $34 $-1 $68 forward single #
face $-1 $69 $70 $35 $-1 $71 forward single #
face $-1 $72 $73 $27 $-1 $74 reversed single #
loop $-1 $-1 $75 $36 #
plane-surface $-1 0 0 5.7467486609303347 0 0 1 1 0 0 forward_v I I I I #
face $-1 $76 $77 $28 $-1 $78 reversed single #
loop $-1 $-1 $79 $37 #
plane-surface $-1 0 -23.782272831054879 5.2467486609303347 0 0 1 1 0 0 forward_v I I I I #
face $-1 $80 $81 $29 $-1 $82 reversed single #
loop $-1 $-1 $83 $38 #
plane-surface $-1 0 23.782272831054875 5.2467486609303347 0 0 1 1 0 0 forward_v I I I I #
face $-1 $84 $85 $30 $-1 $86 reversed single #
loop $-1 $-1 $87 $39 #
plane-surface $-1 -37.441402428356312 -15.257542846455333 77.599815378591359 0.6018150307709319 0 0.79863550430605224 0.79863550430605224 0 -0.6018150307709319 forward_v I I I I #
face $-1 $88 $89 $31 $-1 $90 forward single #
loop $-1 $91 $92 $40 #
cone-surface $-1 59.532181286088488 -17.324382404632338 2.9292273784976142 -0.6018150307709319 0 -0.79863550430605224 0.79863550430605224 0 -0.6018150307709319 1 I I 0 1 1 forward I I I I #
face $-1 $93 $94 $32 $-1 $95 forward single #
loop $-1 $96 $97 $41 #
cone-surface $-1 59.532181286088488 -13.190703288278332 2.9292273784976142 -0.6018150307709319 0 -0.79863550430605224 0.79863550430605224 0 -0.6018150307709319 1 I I 0 1 1 forward I I I I #
face $-1 $98 $99 $33 $-1 $100 reversed single #
loop $-1 $-1 $101 $42 #
plane-surface $-1 -155.85918394279901 -2.3366395396384387 84.952602453578322 0 -1 0 0.74314483375859142 0 -0.66913059716165679 forward_v I I I I #
face $-1 $102 $103 $34 $-1 $104 forward single #
loop $-1 $105 $106 $43 #
cone-surface $-1 -58.403285776472963 -10.715921193269224 1.4457630220162865 0.74314483375859142 0 -0.66913059716165679 1.0036958957424851 0 1.1147172506378871 1 I I 0 1 1.5 forward I I I I #
face $-1 $107 $108 $35 $-1 $109 forward single #
loop $-1 $110 $111 $44 #
cone-surface $-1 -58.403285776472963 -5.6883522010907548 1.4457630220162865 0.74314483375859142 0 -0.66913059716165679 1.0036958957424851 0 1.1147172506378871 1 I I 0 1 1.5 forward I I I I #
face $-1 $112 $113 $27 $-1 $114 reversed single #
loop $-1 $-1 $115 $45 #
plane-surface $-1 0 0 -5.7467486609303347 0 0 1 1 0 0 forward_v I I I I #
coedge $-1 $116 $117 $118 $119 forward $46 $-1 #
face $-1 $120 $121 $28 $-1 $122 reversed single #
loop $-1 $-1 $123 $48 #
plane-surface $-1 0 -23.782272831054879 2.2467486609303347 0 0 1 1 0 0 forward_v I I I I #
coedge $-1 $124 $125 $126 $127 reversed $49 $-1 #
face $-1 $128 $129 $29 $-1 $130 reversed single #
loop $-1 $-1 $131 $51 #
plane-surface $-1 0 23.782272831054875 2.2467486609303347 0 0 1 1 0 0 forward_v I I I I #
coedge $-1 $132 $133 $134 $135 reversed $52 $-1 #
face $-1 $136 $137 $30 $-1 $138 forward single #
loop $-1 $-1 $139 $54 #
plane-surface $-1 38.01110884249276 -10.434917210708996 177.72867775140398 0 -1 0 -0.6018150307709319 0 -0.79863550430605224 forward_v I I I I #
coedge $-1 $140 $141 $142 $143 reversed $55 $-1 #
face $-1 $-1 $144 $31 $-1 $145 forward single #
loop $-1 $146 $147 $57 #
cone-surface $-1 58.464307192439421 -17.324382404632338 1.5121106205058954 -0.6018150307709319 0 -0.79863550430605224 0.39931775215302612 0 -0.30090751538546595 1 I I -0.70710678118654746 0.70710678118654746 0.5 forward I I I I #
loop $-1 $-1 $148 $40 #
coedge $-1 $92 $92 $149 $150 reversed $58 $-1 #
face $-1 $-1 $151 $32 $-1 $152 forward single #
loop $-1 $153 $154 $60 #
cone-surface $-1 58.464307192439421 -13.190703288278332 1.5121106205058954 -0.6018150307709319 0 -0.79863550430605224 0.39931775215302612 0 -0.30090751538546595 1 I I -0.70710678118654746 0.70710678118654746 0.5 forward I I I I #
loop $-1 $-1 $155 $41 #
coedge $-1 $97 $97 $156 $157 reversed $61 $-1 #
face $-1 $158 $159 $33 $-1 $160 reversed single #
loop $-1 $-1 $161 $63 #
plane-surface $-1 -62.687459944456322 -8.2021366971799878 1.0604074392153393 -0.74314483375859142 0 0.66913059716165679 0.66913059716165679 0 0.74314483375859142 forward_v I I I I #
coedge $-1 $162 $163 $164 $165 reversed $64 $-1 #
face $-1 $-1 $166 $34 $-1 $167 forward single #
loop $-1 $168 $169 $66 #
cone-surface $-1 -55.671553225156956 -10.715921193269224 -1.0138999539115012 0.74314483375859142 0 -0.66913059716165679 0.50184794787124254 0 0.55735862531894353 1 I I -0.70710678118654757 0.70710678118654757 0.75 forward I I I I #
loop $-1 $-1 $170 $43 #
coedge $-1 $106 $106 $171 $172 reversed $67 $-1 #
face $-1 $-1 $173 $35 $-1 $174 forward single #
loop $-1 $175 $176 $69 #
cone-surface $-1 -55.671553225156956 -5.6883522010907548 -1.0138999539115012 0.74314483375859142 0 -0.66913059716165679 0.50184794787124254 0 0.55735862531894353 1 I I -0.70710678118654757 0.70710678118654757 0.75 forward I I I I #
loop $-1 $-1 $177 $44 #
coedge $-1 $111 $111 $178 $179 reversed $70 $-1 #
face $-1 $180 $181 $27 $-1 $182 reversed single #
loop $-1 $-1 $183 $72 #
plane-surface $-1 0 -27.484377179908087 0 0 1 0 0 0 1 forward_v I I I I #
coedge $-1 $184 $185 $186 $187 forward $73 $-1 #
coedge $-1 $188 $75 $189 $190 forward $46 $-1 #
coedge $-1 $75 $188 $191 $192 forward $46 $-1 #
coedge $-1 $193 $194 $75 $119 reversed $195 $-1 #
edge $-1 $196 -27.484377179908087 $197 27.484377179908087 $118 $198 forward 7 unknown #
face $-1 $199 $200 $28 $-1 $201 reversed single #
loop $-1 $-1 $202 $76 #
plane-surface $-1 0 -20.080168482201671 3.7467486609303347 0 -1 0 0 0 -1 forward_v I I I I #
coedge $-1 $203 $204 $205 $206 reversed $77 $-1 #
coedge $-1 $207 $79 $208 $209 forward $49 $-1 #
coedge $-1 $79 $207 $210 $211 reversed $49 $-1 #
coedge $-1 $212 $213 $79 $127 forward $214 $-1 #
edge $-1 $215 8.1890320666742316 $216 15.593240764380647 $126 $217 forward 7 unknown #
face $-1 $218 $219 $29 $-1 $220 reversed single #
loop $-1 $-1 $221 $80 #
plane-surface $-1 0 20.080168482201668 3.7467486609303347 0 1 0 0 0 1 forward_v I I I I #
coedge $-1 $222 $223 $224 $225 reversed $81 $-1 #
coedge $-1 $226 $83 $227 $228 reversed $52 $-1 #
coedge $-1 $83 $226 $229 $230 forward $52 $-1 #
coedge $-1 $231 $232 $83 $135 forward $219 $-1 #
edge $-1 $233 -15.593240764380646 $234 -8.1890320666742298 $134 $235 forward 7 unknown #
face $-1 $236 $237 $30 $-1 $238 reversed single #
loop $-1 $-1 $239 $84 #
plane-surface $-1 0 -20.080168482201671 3.7467486609303347 0 -1 0 0 0 -1 forward_v I I I I #
coedge $-1 $240 $241 $242 $243 reversed $85 $-1 #
coedge $-1 $244 $87 $239 $245 forward $55 $-1 #
coedge $-1 $87 $244 $240 $246 forward $55 $-1 #
coedge $-1 $242 $247 $87 $143 forward $237 $-1 #
edge $-1 $248 -12.451397058974004 $249 -2.8061457874813289 $142 $250 forward 7 unknown #
loop $-1 $-1 $149 $88 #
plane-surface $-1 -37.441402428356312 -15.257542846455333 77.599815378591359 0.6018150307709319 0 0.79863550430605224 0.79863550430605224 0 -0.6018150307709319 forward_v I I I I #
loop $-1 $-1 $251 $57 #
coedge $-1 $147 $147 $148 $252 reversed $89 $-1 #
coedge $-1 $148 $148 $147 $252 forward $91 $-1 #
coedge $-1 $149 $149 $92 $150 forward $144 $-1 #
edge $-1 $253 0 $253 6.2831853071796004 $149 $254 forward 7 unknown #
loop $-1 $-1 $156 $93 #
plane-surface $-1 -37.441402428356312 -15.257542846455333 77.599815378591359 0.6018150307709319 0 0.79863550430605224 0.79863550430605224 0 -0.6018150307709319 forward_v I I I I #
loop $-1 $-1 $255 $60 #
coedge $-1 $154 $154 $155 $256 reversed $94 $-1 #
coedge $-1 $155 $155 $154 $256 forward $96 $-1 #
coedge $-1 $156 $156 $97 $157 forward $151 $-1 #
edge $-1 $257 0 $257 6.2831853071796004 $156 $258 forward 7 unknown #
face $-1 $259 $260 $33 $-1 $261 forward single #
loop $-1 $-1 $262 $98 #
plane-surface $-1 -155.85918394279901 -14.067633854721537 84.952602453578322 0 1 0 -0.74314483375859142 0 0.66913059716165679 forward_v I I I I #
coedge $-1 $263 $264 $265 $266 reversed $99 $-1 #
coedge $-1 $163 $101 $267 $268 reversed $64 $-1 #
coedge $-1 $101 $162 $263 $269 reversed $64 $-1 #
coedge $-1 $265 $270 $101 $165 forward $271 $-1 #
edge $-1 $272 36.729552565858825 $273 41.415893787573808 $164 $274 forward 7 unknown #
loop $-1 $-1 $171 $102 #
plane-surface $-1 -62.687459944456322 -8.2021366971799878 1.0604074392153393 -0.74314483375859142 0 0.66913059716165679 0.66913059716165679 0 0.74314483375859142 forward_v I I I I #
loop $-1 $-1 $275 $66 #
coedge $-1 $169 $169 $170 $276 reversed $103 $-1 #
coedge $-1 $170 $170 $169 $276 forward $105 $-1 #
coedge $-1 $171 $171 $106 $172 forward $166 $-1 #
edge $-1 $277 0 $277 6.2831853071796004 $171 $278 forward 7 unknown #
loop $-1 $-1 $178 $107 #
plane-surface $-1 -62.687459944456322 -8.2021366971799878 1.0604074392153393 -0.74314483375859142 0 0.66913059716165679 0.66913059716165679 0 0.74314483375859142 forward_v I I I I #
loop $-1 $-1 $279 $69 #
coedge $-1 $176 $176 $177 $280 reversed $108 $-1 #
coedge $-1 $177 $177 $176 $280 forward $110 $-1 #
coedge $-1 $178 $178 $111 $179 forward $173 $-1 #
edge $-1 $281 0 $281 6.2831853071796004 $178 $282 forward 7 unknown #
face $-1 $283 $284 $27 $-1 $285 reversed single #
loop $-1 $-1 $286 $112 #
plane-surface $-1 -62.687459944456307 0 0 1 0 0 0 0 -1 forward_v I I I I #
coedge $-1 $287 $191 $288 $289 forward $113 $-1 #
coedge $-1 $290 $115 $287 $291 forward $73 $-1 #
coedge $-1 $115 $290 $292 $293 forward $73 $-1 #
coedge $-1 $194 $193 $115 $187 reversed $195 $-1 #
edge $-1 $294 -27.484377179908087 $295 27.484377179908087 $186 $296 forward 7 unknown #
coedge $-1 $117 $116 $297 $298 forward $46 $-1 #
coedge $-1 $299 $300 $116 $190 reversed $284 $-1 #
edge $-1 $197 -62.687459944456307 $301 62.687459944456307 $189 $302 forward 7 unknown #
coedge $-1 $183 $303 $117 $192 reversed $113 $-1 #
edge $-1 $304 -62.687459944456307 $196 62.687459944456307 $191 $305 forward 7 unknown #
coedge $-1 $186 $118 $303 $306 forward $195 $-1 #
coedge $-1 $118 $186 $299 $307 reversed $195 $-1 #
loop $-1 $-1 $193 $283 #
vertex $-1 $119 $308 #
vertex $-1 $119 $309 #
straight-curve $-1 62.687459944456307 0 5.7467486609303347 0 1 0 I I #
face $-1 $310 $311 $28 $-1 $312 reversed single #
loop $-1 $-1 $313 $120 #
plane-surface $-1 -62.687459944456307 0 0 1 0 0 0 0 -1 forward_v I I I I #
coedge $-1 $314 $208 $213 $315 reversed $121 $-1 #
coedge $-1 $316 $123 $317 $318 reversed $77 $-1 #
coedge $-1 $123 $316 $314 $319 forward $77 $-1 #
coedge $-1 $213 $212 $123 $206 forward $214 $-1 #
edge $-1 $320 -15.593240764380647 $321 -8.1890320666742316 $205 $322 forward 7 unknown #
coedge $-1 $125 $124 $313 $323 reversed $49 $-1 #
coedge $-1 $202 $324 $124 $209 reversed $121 $-1 #
edge $-1 $215 -62.687459944456307 $325 62.687459944456307 $208 $326 forward 7 unknown #
coedge $-1 $327 $328 $125 $211 forward $311 $-1 #
edge $-1 $216 -62.687459944456307 $329 62.687459944456307 $210 $330 forward 7 unknown #
coedge $-1 $205 $126 $328 $331 forward $214 $-1 #
coedge $-1 $126 $205 $202 $315 forward $214 $-1 #
loop $-1 $-1 $126 $310 #
vertex $-1 $127 $332 #
vertex $-1 $331 $333 #
straight-curve $-1 62.687459944456307 -11.891136415527439 5.2467486609303347 0 -1 0 I I #
face $-1 $334 $335 $29 $-1 $336 reversed single #
loop $-1 $-1 $134 $128 #
plane-surface $-1 62.687459944456307 0 0 -1 0 0 0 0 1 forward_v I I I I #
coedge $-1 $337 $229 $338 $339 reversed $129 $-1 #
coedge $-1 $340 $131 $337 $341 forward $81 $-1 #
coedge $-1 $131 $340 $342 $343 reversed $81 $-1 #
coedge $-1 $232 $231 $131 $225 forward $219 $-1 #
edge $-1 $344 8.1890320666742298 $345 15.593240764380646 $224 $346 forward 7 unknown #
coedge $-1 $133 $132 $347 $348 reversed $52 $-1 #
coedge $-1 $349 $350 $132 $228 forward $351 $-1 #
edge $-1 $352 -62.687459944456307 $233 62.687459944456307 $227 $353 forward 7 unknown #
coedge $-1 $221 $354 $133 $230 reversed $129 $-1 #
edge $-1 $355 -62.687459944456307 $234 62.687459944456307 $229 $356 forward 7 unknown #
coedge $-1 $224 $134 $354 $357 forward $219 $-1 #
coedge $-1 $134 $224 $349 $358 reversed $219 $-1 #
vertex $-1 $358 $359 #
vertex $-1 $135 $360 #
straight-curve $-1 62.687459944456307 11.891136415527438 5.2467486609303347 0 -1 0 I I #
face $-1 $-1 $361 $30 $-1 $362 forward single #
loop $-1 $-1 $247 $136 #
plane-surface $-1 62.687459944456307 0 0 -1 0 0 0 0 1 forward_v I I I I #
coedge $-1 $363 $364 $140 $245 reversed $137 $-1 #
coedge $-1 $241 $139 $141 $246 reversed $85 $-1 #
coedge $-1 $139 $240 $365 $366 reversed $85 $-1 #
coedge $-1 $367 $142 $139 $243 forward $237 $-1 #
edge $-1 $249 -86.717034767959703 $368 -83.117590214771653 $242 $369 forward 7 unknown #
coedge $-1 $141 $140 $370 $371 reversed $55 $-1 #
edge $-1 $248 -125.37491988891261 $372 -119.39393840930897 $239 $373 forward 7 unknown #
edge $-1 $374 119.39393840930897 $249 125.37491988891261 $240 $375 forward 7 unknown #
coedge $-1 $142 $367 $363 $376 forward $237 $-1 #
vertex $-1 $143 $377 #
vertex $-1 $143 $378 #
straight-curve $-1 62.687459944456307 -7.6287714232276667 2.1473041077422934 0 1 0 I I #
coedge $-1 $251 $251 $-1 $379 reversed $146 $-1 #
edge $-1 $380 0 $380 6.2831853071796004 $147 $381 forward 7 unknown #
vertex $-1 $150 $382 #
ellipse-curve $-1 60.299147864352094 -17.324382404632338 3.9470263843363176 0.6018150307709319 0 0.79863550430605224 0.79863550430605224 0 -0.6018150307709319 1 I I #
coedge $-1 $255 $255 $-1 $383 reversed $153 $-1 #
edge $-1 $384 0 $384 6.2831853071796004 $154 $385 forward 7 unknown #
vertex $-1 $157 $386 #
ellipse-curve $-1 60.299147864352094 -13.190703288278332 3.9470263843363176 0.6018150307709319 0 0.79863550430605224 0.79863550430605224 0 -0.6018150307709319 1 I I #
face $-1 $-1 $271 $33 $-1 $387 reversed single #
loop $-1 $-1 $388 $158 #
plane-surface $-1 0 0 5.7467486609303347 0 0 1 1 0 0 forward_v I I I I #
coedge $-1 $389 $390 $391 $392 reversed $159 $-1 #
coedge $-1 $393 $161 $163 $269 forward $99 $-1 #
coedge $-1 $161 $393 $389 $394 forward $99 $-1 #
coedge $-1 $391 $164 $161 $266 forward $271 $-1 #
edge $-1 $273 -1.7644288089515552 $395 9.966565506131543 $265 $396 forward 7 unknown #
coedge $-1 $397 $398 $162 $268 forward $260 $-1 #
edge $-1 $399 -19.461732510915716 $272 -15.242132026943196 $267 $400 forward 7 unknown #
edge $-1 $273 2.1224720073754982e-014 $399 6.3060940597715831 $163 $401 forward 7 unknown #
coedge $-1 $164 $391 $397 $402 reversed $271 $-1 #
loop $-1 $-1 $391 $259 #
vertex $-1 $402 $403 #
vertex $-1 $165 $404 #
straight-curve $-1 -62.687459944456307 -2.3366395396384387 42.476301226789161 0 0 -1 I I #
coedge $-1 $275 $275 $-1 $405 reversed $168 $-1 #
edge $-1 $406 0 $406 6.2831853071796004 $169 $407 forward 7 unknown #
vertex $-1 $172 $408 #
ellipse-curve $-1 -60.577659702470044 -10.715921193269224 3.4035780500728454 -0.74314483375859142 0 0.66913059716165679 1.0036958957424851 0 1.1147172506378871 1 I I #
coedge $-1 $279 $279 $-1 $409 reversed $175 $-1 #
edge $-1 $410 0 $410 6.2831853071796004 $176 $411 forward 7 unknown #
vertex $-1 $179 $412 #
ellipse-curve $-1 -60.577659702470044 -5.6883522010907548 3.4035780500728454 -0.74314483375859142 0 0.66913059716165679 1.0036958957424851 0 1.1147172506378871 1 I I #
face $-1 $-1 $195 $27 $-1 $413 reversed single #
loop $-1 $-1 $299 $180 #
plane-surface $-1 0 27.484377179908087 0 0 -1 0 0 0 -1 forward_v I I I I #
coedge $-1 $414 $297 $300 $415 forward $181 $-1 #
coedge $-1 $303 $183 $184 $291 reversed $113 $-1 #
coedge $-1 $297 $414 $183 $289 reversed $181 $-1 #
edge $-1 $304 -5.7467486609303347 $416 5.7467486609303347 $288 $417 forward 7 unknown #
coedge $-1 $185 $184 $414 $418 forward $73 $-1 #
edge $-1 $295 -62.687459944456307 $416 62.687459944456307 $287 $419 forward 7 unknown #
coedge $-1 $300 $299 $185 $293 reversed $284 $-1 #
edge $-1 $420 -62.687459944456307 $294 62.687459944456307 $292 $421 forward 7 unknown #
vertex $-1 $187 $422 #
vertex $-1 $306 $423 #
straight-curve $-1 62.687459944456307 0 -5.7467486609303347 0 -1 0 I I #
coedge $-1 $286 $288 $188 $298 reversed $181 $-1 #
edge $-1 $301 -27.484377179908087 $304 27.484377179908087 $297 $424 forward 7 unknown #
coedge $-1 $292 $189 $194 $307 forward $284 $-1 #
coedge $-1 $189 $292 $286 $415 reversed $284 $-1 #
vertex $-1 $190 $425 #
straight-curve $-1 0 27.484377179908087 5.7467486609303347 -1 0 0 I I #
coedge $-1 $191 $287 $193 $306 reversed $113 $-1 #
vertex $-1 $298 $426 #
straight-curve $-1 0 -27.484377179908087 5.7467486609303347 1 0 0 I I #
edge $-1 $196 -5.7467486609303347 $295 5.7467486609303347 $193 $427 forward 7 unknown #
edge $-1 $197 -5.7467486609303347 $294 5.7467486609303347 $194 $428 forward 7 unknown #
point $-1 62.687459944456307 -27.484377179908087 5.7467486609303347 #
point $-1 62.687459944456307 27.484377179908087 5.7467486609303347 #
face $-1 $-1 $214 $28 $-1 $429 reversed single #
loop $-1 $-1 $210 $199 #
plane-surface $-1 0 -27.484377179908087 0 0 1 0 0 0 1 forward_v I I I I #
coedge $-1 $430 $431 $207 $323 forward $200 $-1 #
coedge $-1 $324 $202 $204 $319 reversed $121 $-1 #
edge $-1 $321 0.37337433046516733 $215 3.3733743304651673 $213 $432 forward 7 unknown #
coedge $-1 $204 $203 $433 $434 reversed $77 $-1 #
coedge $-1 $328 $327 $203 $318 forward $311 $-1 #
edge $-1 $435 -62.687459944456307 $320 62.687459944456307 $317 $436 forward 7 unknown #
edge $-1 $437 -62.687459944456307 $321 62.687459944456307 $314 $438 forward 7 unknown #
vertex $-1 $318 $439 #
vertex $-1 $206 $440 #
straight-curve $-1 62.687459944456307 -11.891136415527439 2.2467486609303347 0 1 0 I I #
edge $-1 $329 -15.593240764380647 $325 -8.1890320666742316 $313 $441 forward 7 unknown #
coedge $-1 $208 $314 $430 $442 reversed $121 $-1 #
vertex $-1 $323 $443 #
straight-curve $-1 0 -20.080168482201671 5.2467486609303347 -1 0 0 I I #
coedge $-1 $317 $210 $431 $444 forward $311 $-1 #
coedge $-1 $210 $317 $212 $331 reversed $311 $-1 #
vertex $-1 $444 $445 #
straight-curve $-1 0 -27.484377179908087 5.2467486609303347 -1 0 0 I I #
edge $-1 $216 -5.2467486609303347 $320 -2.2467486609303347 $212 $446 forward 7 unknown #
point $-1 62.687459944456307 -20.080168482201671 5.2467486609303347 #
point $-1 62.687459944456307 -27.484377179908087 5.2467486609303347 #
face $-1 $-1 $351 $29 $-1 $447 reversed single #
loop $-1 $-1 $347 $218 #
plane-surface $-1 -62.687459944456307 0 0 1 0 0 0 0 -1 forward_v I I I I #
coedge $-1 $354 $221 $222 $341 reversed $129 $-1 #
coedge $-1 $347 $448 $221 $339 forward $335 $-1 #
edge $-1 $449 0.37337433046516733 $355 3.3733743304651673 $338 $450 forward 7 unknown #
coedge $-1 $223 $222 $448 $451 reversed $81 $-1 #
edge $-1 $344 -62.687459944456307 $449 62.687459944456307 $337 $452 forward 7 unknown #
coedge $-1 $350 $349 $223 $343 forward $351 $-1 #
edge $-1 $345 -62.687459944456307 $453 62.687459944456307 $342 $454 forward 7 unknown #
vertex $-1 $225 $455 #
vertex $-1 $343 $456 #
straight-curve $-1 62.687459944456307 11.891136415527438 2.2467486609303347 0 1 0 I I #
coedge $-1 $457 $338 $226 $348 forward $335 $-1 #
edge $-1 $355 8.1890320666742298 $352 15.593240764380646 $347 $458 forward 7 unknown #
coedge $-1 $342 $227 $232 $358 forward $351 $-1 #
coedge $-1 $227 $342 $457 $459 reversed $351 $-1 #
loop $-1 $-1 $227 $334 #
vertex $-1 $459 $460 #
straight-curve $-1 0 27.484377179908087 5.2467486609303347 1 0 0 I I #
coedge $-1 $229 $337 $231 $357 reversed $129 $-1 #
vertex $-1 $348 $461 #
straight-curve $-1 0 20.080168482201668 5.2467486609303347 1 0 0 I I #
edge $-1 $234 -3.3733743304651673 $344 -0.37337433046516733 $231 $462 forward 7 unknown #
edge $-1 $233 -5.2467486609303347 $345 -2.2467486609303347 $232 $463 forward 7 unknown #
point $-1 62.687459944456307 27.484377179908083 5.2467486609303347 #
point $-1 62.687459944456307 20.080168482201668 5.2467486609303347 #
loop $-1 $-1 $464 $236 #
plane-surface $-1 0 0 5.7467486609303347 0 0 1 1 0 0 forward_v I I I I #
coedge $-1 $364 $239 $247 $376 reversed $137 $-1 #
coedge $-1 $239 $363 $464 $465 reversed $137 $-1 #
coedge $-1 $370 $466 $241 $366 forward $361 $-1 #
edge $-1 $368 -43.681905523209927 $374 -38.905281363001514 $365 $467 forward 7 unknown #
coedge $-1 $247 $242 $466 $468 reversed $237 $-1 #
vertex $-1 $366 $469 #
straight-curve $-1 62.687459944456307 -10.434917210708996 88.864338875701989 0 0 1 I I #
coedge $-1 $464 $365 $244 $371 forward $361 $-1 #
edge $-1 $374 2.8061457874813289 $372 12.451397058974004 $370 $470 forward 7 unknown #
vertex $-1 $465 $471 #
straight-curve $-1 -37.441402428356312 -20.080168482201671 77.599815378591359 -0.79863550430605224 0 0.6018150307709319 I I #
vertex $-1 $371 $472 #
straight-curve $-1 -37.441402428356312 -10.434917210708996 77.599815378591359 0.79863550430605224 0 -0.6018150307709319 I I #
edge $-1 $473 83.117590214771653 $248 86.717034767959703 $247 $474 forward 7 unknown #
point $-1 62.687459944456307 -20.080168482201671 2.1473041077422863 #
point $-1 62.687459944456307 -10.434917210708996 2.1473041077422863 #
edge $-1 $475 1 $475 0 $251 $-1 forward 7 unknown #
vertex $-1 $252 $476 #
ellipse-curve $-1 58.765214707824889 -17.324382404632338 1.9114283726589214 0.6018150307709319 0 0.79863550430605224 0.79863550430605224 0 -0.6018150307709319 1 I I #
point $-1 61.097783368658135 -17.324382404632338 3.3452113535653751 #
edge $-1 $477 1 $477 0 $255 $-1 forward 7 unknown #
vertex $-1 $256 $478 #
ellipse-curve $-1 58.765214707824889 -13.190703288278332 1.9114283726589214 0.6018150307709319 0 0.79863550430605224 0.79863550430605224 0 -0.6018150307709319 1 I I #
point $-1 61.097783368658135 -13.190703288278332 3.3452113535653751 #
plane-surface $-1 -62.687459944456307 0 0 1 0 0 0 0 -1 forward_v I I I I #
coedge $-1 $398 $397 $390 $479 forward $260 $-1 #
coedge $-1 $390 $262 $264 $394 reversed $159 $-1 #
coedge $-1 $262 $389 $388 $479 reversed $159 $-1 #
coedge $-1 $270 $265 $262 $392 forward $271 $-1 #
edge $-1 $395 -41.415893787573808 $480 -36.729552565858825 $391 $481 forward 7 unknown #
coedge $-1 $264 $263 $398 $482 reversed $99 $-1 #
edge $-1 $483 -6.3060940597715831 $395 -2.1224720073754982e-014 $389 $484 forward 7 unknown #
vertex $-1 $266 $485 #
straight-curve $-1 -62.687459944456307 -4.1010683485899939 1.060407439215354 0 -1 0 I I #
coedge $-1 $388 $267 $270 $402 forward $260 $-1 #
coedge $-1 $267 $388 $393 $482 forward $260 $-1 #
vertex $-1 $268 $486 #
straight-curve $-1 -77.929591971399503 -2.3366395396384387 5.7467486609303364 -1 0 0 I I #
straight-curve $-1 -62.687459944456322 -2.3366395396384387 1.0604074392153393 0.66913059716165679 0 0.74314483375859142 I I #
edge $-1 $272 2.3366395396384387 $480 14.067633854721537 $270 $487 forward 7 unknown #
point $-1 -62.687459944456307 -2.3366395396384387 5.7467486609303347 #
point $-1 -62.687459944456307 -2.3366395396384387 1.0604074392153551 #
edge $-1 $488 1 $488 0 $275 $-1 forward 7 unknown #
vertex $-1 $276 $489 #
ellipse-curve $-1 -56.228911850475896 -10.715921193269224 -0.51205200604025869 -0.74314483375859142 0 0.66913059716165679 1.0036958957424851 0 1.1147172506378871 1 I I #
point $-1 -59.573963806727548 -10.715921193269224 4.5182953007107187 #
edge $-1 $490 1 $490 0 $279 $-1 forward 7 unknown #
vertex $-1 $280 $491 #
ellipse-curve $-1 -56.228911850475896 -5.6883522010907548 -0.51205200604025869 -0.74314483375859142 0 0.66913059716165679 1.0036958957424851 0 1.1147172506378871 1 I I #
point $-1 -59.573963806727548 -5.6883522010907548 4.5182953007107187 #
plane-surface $-1 62.687459944456307 0 0 -1 0 0 0 0 1 forward_v I I I I #
coedge $-1 $288 $286 $290 $418 reversed $181 $-1 #
edge $-1 $301 -5.7467486609303347 $420 5.7467486609303347 $300 $492 forward 7 unknown #
vertex $-1 $418 $493 #
straight-curve $-1 -62.687459944456307 -27.484377179908087 0 0 0 -1 I I #
edge $-1 $416 -27.484377179908087 $420 27.484377179908087 $414 $494 forward 7 unknown #
straight-curve $-1 0 -27.484377179908087 -5.7467486609303347 -1 0 0 I I #
vertex $-1 $293 $495 #
straight-curve $-1 0 27.484377179908087 -5.7467486609303347 1 0 0 I I #
point $-1 62.687459944456307 27.484377179908087 -5.7467486609303347 #
point $-1 62.687459944456307 -27.484377179908087 -5.7467486609303347 #
straight-curve $-1 -62.687459944456307 0 5.7467486609303347 0 -1 0 I I #
point $-1 -62.687459944456307 27.484377179908087 5.7467486609303347 #
point $-1 -62.687459944456307 -27.484377179908087 5.7467486609303347 #
straight-curve $-1 62.687459944456307 -27.484377179908087 0 0 0 -1 I I #
straight-curve $-1 62.687459944456307 27.484377179908087 0 0 0 -1 I I #
plane-surface $-1 62.687459944456307 0 0 -1 0 0 0 0 1 forward_v I I I I #
coedge $-1 $433 $313 $324 $442 forward $200 $-1 #
coedge $-1 $313 $433 $327 $444 reversed $200 $-1 #
straight-curve $-1 62.687459944456307 -20.080168482201671 1.8733743304651673 0 0 1 I I #
coedge $-1 $431 $430 $316 $434 forward $200 $-1 #
edge $-1 $437 8.1890320666742316 $435 15.593240764380647 $433 $496 forward 7 unknown #
vertex $-1 $318 $497 #
straight-curve $-1 0 -27.484377179908087 2.2467486609303347 1 0 0 I I #
vertex $-1 $434 $498 #
straight-curve $-1 0 -20.080168482201671 2.2467486609303347 1 0 0 I I #
point $-1 62.687459944456307 -27.484377179908087 2.2467486609303347 #
point $-1 62.687459944456307 -20.080168482201671 2.2467486609303347 #
straight-curve $-1 -62.687459944456307 -11.891136415527439 5.2467486609303347 0 1 0 I I #
edge $-1 $325 -3.3733743304651673 $437 -0.37337433046516733 $430 $499 forward 7 unknown #
point $-1 -62.687459944456307 -20.080168482201671 5.2467486609303347 #
edge $-1 $329 -5.2467486609303347 $435 -2.2467486609303347 $431 $500 forward 7 unknown #
point $-1 -62.687459944456307 -27.484377179908087 5.2467486609303347 #
straight-curve $-1 62.687459944456307 -27.484377179908087 0 0 0 -1 I I #
plane-surface $-1 0 27.484377179908087 0 0 -1 0 0 0 -1 forward_v I I I I #
coedge $-1 $338 $457 $340 $451 forward $335 $-1 #
vertex $-1 $451 $501 #
straight-curve $-1 -62.687459944456307 20.080168482201668 1.8733743304651673 0 0 1 I I #
edge $-1 $453 -15.593240764380646 $449 -8.1890320666742298 $448 $502 forward 7 unknown #
straight-curve $-1 0 20.080168482201668 2.2467486609303347 -1 0 0 I I #
vertex $-1 $343 $503 #
straight-curve $-1 0 27.484377179908087 2.2467486609303347 -1 0 0 I I #
point $-1 62.687459944456307 20.080168482201668 2.2467486609303347 #
point $-1 62.687459944456307 27.484377179908083 2.2467486609303347 #
coedge $-1 $448 $347 $350 $459 forward $335 $-1 #
straight-curve $-1 -62.687459944456307 11.891136415527438 5.2467486609303347 0 1 0 I I #
edge $-1 $352 -5.2467486609303347 $453 -2.2467486609303347 $350 $504 forward 7 unknown #
point $-1 -62.687459944456307 27.484377179908083 5.2467486609303347 #
point $-1 -62.687459944456307 20.080168482201668 5.2467486609303347 #
straight-curve $-1 62.687459944456307 20.080168482201668 1.8733743304651673 0 0 -1 I I #
straight-curve $-1 62.687459944456307 27.484377179908087 0 0 0 -1 I I #
coedge $-1 $466 $370 $364 $465 forward $361 $-1 #
edge $-1 $372 38.905281363001514 $473 43.681905523209927 $464 $505 forward 7 unknown #
coedge $-1 $365 $464 $367 $468 forward $361 $-1 #
straight-curve $-1 19.00555442124638 -10.434917210708996 5.7467486609303364 -1 0 0 I I #
edge $-1 $473 -20.080168482201671 $368 -10.434917210708996 $367 $506 forward 7 unknown #
point $-1 62.687459944456307 -10.434917210708996 5.7467486609303347 #
straight-curve $-1 57.910835784247887 -7.6287714232276667 5.7467486609303293 0 -1 0 I I #
point $-1 57.910835784247894 -20.080168482201671 5.7467486609303364 #
point $-1 57.910835784247894 -10.434917210708996 5.7467486609303364 #
vertex $-1 $468 $507 #
straight-curve $-1 62.687459944456307 -20.080168482201671 88.864338875701989 0 0 -1 I I #
vertex $-1 $379 $508 #
point $-1 59.563850212130937 -17.324382404632338 1.3096133418879896 #
vertex $-1 $383 $509 #
point $-1 59.563850212130937 -13.190703288278332 1.3096133418879896 #
edge $-1 $480 15.242132026943196 $483 19.461732510915716 $388 $510 forward 7 unknown #
vertex $-1 $479 $511 #
straight-curve $-1 -62.687459944456307 -14.067633854721537 42.476301226789161 0 0 1 I I #
edge $-1 $483 -9.966565506131543 $399 1.7644288089515552 $398 $512 forward 7 unknown #
vertex $-1 $482 $513 #
straight-curve $-1 -62.687459944456322 -14.067633854721537 1.0604074392153393 -0.66913059716165679 0 -0.74314483375859142 I I #
point $-1 -62.687459944456307 -14.067633854721537 1.0604074392153551 #
point $-1 -58.467859460483787 -2.3366395396384387 5.7467486609303347 #
straight-curve $-1 -62.687459944456307 0 5.7467486609303347 0 -1 0 I I #
vertex $-1 $405 $514 #
point $-1 -55.225215954733414 -10.715921193269224 0.60266524459762838 #
vertex $-1 $409 $515 #
point $-1 -55.225215954733414 -5.6883522010907548 0.60266524459762838 #
straight-curve $-1 -62.687459944456307 27.484377179908087 0 0 0 -1 I I #
point $-1 -62.687459944456307 -27.484377179908087 -5.7467486609303347 #
straight-curve $-1 -62.687459944456307 0 -5.7467486609303347 0 1 0 I I #
point $-1 -62.687459944456307 27.484377179908087 -5.7467486609303347 #
straight-curve $-1 -62.687459944456307 -11.891136415527439 2.2467486609303347 0 -1 0 I I #
point $-1 -62.687459944456307 -27.484377179908087 2.2467486609303347 #
point $-1 -62.687459944456307 -20.080168482201671 2.2467486609303347 #
straight-curve $-1 -62.687459944456307 -20.080168482201671 1.8733743304651673 0 0 -1 I I #
straight-curve $-1 -62.687459944456307 -27.484377179908087 0 0 0 -1 I I #
point $-1 -62.687459944456307 20.080168482201668 2.2467486609303347 #
straight-curve $-1 -62.687459944456307 11.891136415527438 2.2467486609303347 0 -1 0 I I #
point $-1 -62.687459944456307 27.484377179908083 2.2467486609303347 #
straight-curve $-1 -62.687459944456307 27.484377179908087 0 0 0 -1 I I #
straight-curve $-1 19.00555442124638 -20.080168482201671 5.7467486609303364 1 0 0 I I #
straight-curve $-1 62.687459944456307 0 5.7467486609303347 0 1 0 I I #
point $-1 62.687459944456307 -20.080168482201671 5.7467486609303347 #
point $-1 58.163399677053953 -17.324382404632338 1.1127928683528694 #
point $-1 58.163399677053953 -13.190703288278332 1.1127928683528694 #
straight-curve $-1 -77.929591971399503 -14.067633854721537 5.7467486609303364 1 0 0 I I #
point $-1 -62.687459944456307 -14.067633854721537 5.7467486609303347 #
straight-curve $-1 -58.467859460483773 -4.1010683485899939 5.7467486609303364 0 1 0 I I #
point $-1 -58.467859460483787 -14.067633854721537 5.7467486609303347 #
point $-1 -55.114194599838015 -10.715921193269224 -1.5157479017827438 #
point $-1 -55.114194599838015 -5.6883522010907548 -1.5157479017827438 #
End-of-ACIS-data 