500 0 8 0           
7 Unknown 11 ACIS 5.0 NT 24 Thu Mar 25 19:22:05 1999 
-1 9.9999999999999995e-007 1e-010 
body $-1 $8 $-1 $9 #
body $-1 $10 $-1 $11 #
body $-1 $12 $-1 $13 #
body $-1 $14 $-1 $15 #
body $-1 $16 $-1 $17 #
body $-1 $18 $-1 $19 #
body $-1 $20 $-1 $21 #
body $-1 $22 $-1 $23 #
lump $-1 $-1 $24 $0 #
transform $-1 1 0 0 0 1 0 0 0 1 41.43436994537187 24.721904648487584 5.794071441954566 1 rotate no_reflect no_shear #
lump $-1 $-1 $25 $1 #
transform $-1 1 0 0 0 1 0 0 0 1 41.43436994537187 24.721904648487584 5.794071441954566 1 rotate no_reflect no_shear #
lump $-1 $-1 $26 $2 #
transform $-1 1 0 0 0 1 0 0 0 1 41.43436994537187 24.721904648487584 5.794071441954566 1 rotate no_reflect no_shear #
lump $-1 $-1 $27 $3 #
transform $-1 1 0 0 0 1 0 0 0 1 41.43436994537187 24.721904648487584 5.794071441954566 1 rotate no_reflect no_shear #
lump $-1 $-1 $28 $4 #
transform $-1 1 0 0 0 1 0 0 0 1 41.43436994537187 24.721904648487584 5.794071441954566 1 rotate no_reflect no_shear #
lump $-1 $-1 $29 $5 #
transform $-1 1 0 0 0 1 0 0 0 1 41.43436994537187 24.721904648487584 5.794071441954566 1 rotate no_reflect no_shear #
lump $-1 $-1 $30 $6 #
transform $-1 1 0 0 0 1 0 0 0 1 41.43436994537187 24.721904648487584 5.794071441954566 1 rotate no_reflect no_shear #
lump $-1 $-1 $31 $7 #
transform $-1 1 0 0 0 1 0 0 0 1 41.43436994537187 24.721904648487584 5.794071441954566 1 rotate no_reflect no_shear #
shell $-1 $-1 $-1 $32 $-1 $8 #
shell $-1 $-1 $-1 $33 $-1 $10 #
shell $-1 $-1 $-1 $34 $-1 $12 #
shell $-1 $-1 $-1 $35 $-1 $14 #
shell $-1 $-1 $-1 $36 $-1 $16 #
shell $-1 $-1 $-1 $37 $-1 $18 #
shell $-1 $-1 $-1 $38 $-1 $20 #
shell $-1 $-1 $-1 $39 $-1 $22 #
face $-1 $40 $41 $24 $-1 $42 forward single #
face $-1 $43 $44 $25 $-1 $45 reversed single #
face $-1 $46 $47 $26 $-1 $48 reversed single #
face $-1 $49 $50 $27 $-1 $51 forward single #
face $-1 $52 $53 $28 $-1 $54 forward single #
face $-1 $55 $56 $29 $-1 $57 reversed single #
face $-1 $58 $59 $30 $-1 $60 forward single #
face $-1 $61 $62 $31 $-1 $63 forward single #
face $-1 $64 $65 $24 $-1 $66 reversed single #
loop $-1 $-1 $67 $32 #
plane-surface $-1 0 0 5.794071441954566 0 0 1 1 0 0 forward_v I I I I #
face $-1 $68 $69 $25 $-1 $70 reversed single #
loop $-1 $-1 $71 $33 #
plane-surface $-1 -39.93436994537187 -19.594684554026774 0 0 -1 0 0 0 -1 forward_v I I I I #
face $-1 $72 $73 $26 $-1 $74 reversed single #
loop $-1 $-1 $75 $34 #
plane-surface $-1 -101.04515343544372 -10.167935620601977 58.119638659148237 0 -1 0 0.71933980857756763 0 -0.69465836192734942 forward_v I I I I #
face $-1 $76 $77 $27 $-1 $78 forward single #
loop $-1 $79 $80 $35 #
cone-surface $-1 -38.509180419633097 -16.901327715905403 2.7925458163262928 0.71933980857756763 0 -0.69465836192734942 0.69465836192734942 0 0.71933980857756763 1 I I 0 1 1 forward I I I I #
face $-1 $81 $82 $28 $-1 $83 forward single #
loop $-1 $84 $85 $36 #
cone-surface $-1 -38.509180419633097 -12.861292458723348 2.7925458163262928 0.71933980857756763 0 -0.69465836192734942 0.69465836192734942 0 0.71933980857756763 1 I I 0 1 1 forward I I I I #
face $-1 $86 $87 $29 $-1 $88 reversed single #
loop $-1 $-1 $89 $37 #
plane-surface $-1 43.479690327956078 -10.167935620601977 117.73042214922009 0 -1 0 -0.71933980857756763 0 -0.69465836192734942 forward_v I I I I #
face $-1 $90 $91 $30 $-1 $92 forward single #
loop $-1 $93 $94 $38 #
cone-surface $-1 38.50918041963309 -16.901327715905403 2.7925458163263017 -0.71933980857756763 0 -0.69465836192734942 0.69465836192734942 0 -0.71933980857756763 1 I I 0 1 1 forward I I I I #
face $-1 $95 $96 $31 $-1 $97 forward single #
loop $-1 $98 $99 $39 #
cone-surface $-1 38.50918041963309 -12.861292458723348 2.7925458163263017 -0.71933980857756763 0 -0.69465836192734942 0.69465836192734942 0 -0.71933980857756763 1 I I 0 1 1 forward I I I I #
face $-1 $100 $101 $24 $-1 $102 reversed single #
loop $-1 $-1 $103 $40 #
plane-surface $-1 0 0 -5.794071441954566 0 0 1 1 0 0 forward_v I I I I #
coedge $-1 $104 $105 $106 $107 forward $41 $-1 #
face $-1 $108 $109 $25 $-1 $110 forward single #
loop $-1 $-1 $111 $43 #
plane-surface $-1 -38.43436994537187 -22.158294601257179 0 -1 0 0 0 0 1 forward_v I I I I #
coedge $-1 $112 $113 $114 $115 forward $44 $-1 #
face $-1 $116 $117 $26 $-1 $118 forward single #
loop $-1 $-1 $119 $46 #
plane-surface $-1 -41.434369945371877 -14.881310087314375 0.55417555166059174 -0.71933980857756763 0 0.69465836192734942 0.69465836192734942 0 0.71933980857756763 forward_v I I I I #
coedge $-1 $120 $121 $122 $123 reversed $47 $-1 #
face $-1 $-1 $124 $27 $-1 $125 forward single #
loop $-1 $126 $127 $49 #
cone-surface $-1 -37.75437525076142 -16.901327715905403 2.0636389548813305 0.71933980857756763 0 -0.69465836192734942 0.34732918096367471 0 0.35966990428878381 1 I I -0.70710678118654746 0.70710678118654746 0.5 forward I I I I #
loop $-1 $-1 $128 $35 #
coedge $-1 $80 $80 $129 $130 reversed $50 $-1 #
face $-1 $-1 $131 $28 $-1 $132 forward single #
loop $-1 $133 $134 $52 #
cone-surface $-1 -37.75437525076142 -12.861292458723348 2.0636389548813305 0.71933980857756763 0 -0.69465836192734942 0.34732918096367471 0 0.35966990428878381 1 I I -0.70710678118654746 0.70710678118654746 0.5 forward I I I I #
loop $-1 $-1 $135 $36 #
coedge $-1 $85 $85 $136 $137 reversed $53 $-1 #
face $-1 $138 $139 $29 $-1 $140 reversed single #
loop $-1 $-1 $141 $55 #
plane-surface $-1 -16.131093162115768 -14.881310087314375 60.164959041732445 0.71933980857756763 0 0.69465836192734942 0.69465836192734942 0 -0.71933980857756763 forward_v I I I I #
coedge $-1 $142 $143 $144 $145 reversed $56 $-1 #
face $-1 $-1 $146 $30 $-1 $147 forward single #
loop $-1 $148 $149 $58 #
cone-surface $-1 37.754375250761413 -16.901327715905403 2.0636389548813394 -0.71933980857756763 0 -0.69465836192734942 0.34732918096367471 0 -0.35966990428878381 1 I I -0.70710678118654746 0.70710678118654746 0.5 forward I I I I #
loop $-1 $-1 $150 $38 #
coedge $-1 $94 $94 $151 $152 reversed $59 $-1 #
face $-1 $-1 $153 $31 $-1 $154 forward single #
loop $-1 $155 $156 $61 #
cone-surface $-1 37.754375250761413 -12.861292458723348 2.0636389548813394 -0.71933980857756763 0 -0.69465836192734942 0.34732918096367471 0 -0.35966990428878381 1 I I -0.70710678118654746 0.70710678118654746 0.5 forward I I I I #
loop $-1 $-1 $157 $39 #
coedge $-1 $99 $99 $158 $159 reversed $62 $-1 #
face $-1 $160 $161 $24 $-1 $162 reversed single #
loop $-1 $-1 $163 $64 #
plane-surface $-1 0 -24.721904648487584 0 0 1 0 0 0 1 forward_v I I I I #
coedge $-1 $164 $165 $166 $167 forward $65 $-1 #
coedge $-1 $168 $67 $169 $170 forward $41 $-1 #
coedge $-1 $67 $168 $171 $172 forward $41 $-1 #
coedge $-1 $173 $174 $67 $107 reversed $175 $-1 #
edge $-1 $176 -24.721904648487584 $177 24.721904648487584 $106 $178 forward 7 unknown #
face $-1 $179 $180 $25 $-1 $181 reversed single #
loop $-1 $-1 $182 $68 #
plane-surface $-1 0 0 5.794071441954566 0 0 1 1 0 0 forward_v I I I I #
coedge $-1 $183 $184 $185 $186 reversed $69 $-1 #
coedge $-1 $187 $71 $188 $189 reversed $44 $-1 #
coedge $-1 $71 $187 $190 $191 reversed $44 $-1 #
coedge $-1 $184 $183 $71 $115 reversed $69 $-1 #
edge $-1 $192 -5.794071441954566 $193 5.794071441954566 $114 $194 forward 7 unknown #
face $-1 $195 $196 $26 $-1 $197 forward single #
loop $-1 $-1 $198 $72 #
plane-surface $-1 0 0 5.794071441954566 0 0 1 1 0 0 forward_v I I I I #
coedge $-1 $199 $200 $201 $202 reversed $73 $-1 #
coedge $-1 $121 $75 $203 $204 reversed $47 $-1 #
coedge $-1 $75 $120 $199 $205 reversed $47 $-1 #
coedge $-1 $201 $206 $75 $123 forward $207 $-1 #
edge $-1 $208 23.265747887619554 $209 28.505643777913519 $122 $210 forward 7 unknown #
loop $-1 $-1 $129 $76 #
plane-surface $-1 -41.434369945371877 -14.881310087314375 0.55417555166059174 -0.71933980857756763 0 0.69465836192734942 0.69465836192734942 0 0.71933980857756763 forward_v I I I I #
loop $-1 $-1 $211 $49 #
coedge $-1 $127 $127 $128 $212 reversed $77 $-1 #
coedge $-1 $128 $128 $127 $212 forward $79 $-1 #
coedge $-1 $129 $129 $80 $130 forward $124 $-1 #
edge $-1 $213 0 $213 6.2831853071796004 $129 $214 forward 7 unknown #
loop $-1 $-1 $136 $81 #
plane-surface $-1 -41.434369945371877 -14.881310087314375 0.55417555166059174 -0.71933980857756763 0 0.69465836192734942 0.69465836192734942 0 0.71933980857756763 forward_v I I I I #
loop $-1 $-1 $215 $52 #
coedge $-1 $134 $134 $135 $216 reversed $82 $-1 #
coedge $-1 $135 $135 $134 $216 forward $84 $-1 #
coedge $-1 $136 $136 $85 $137 forward $131 $-1 #
edge $-1 $217 0 $217 6.2831853071796004 $136 $218 forward 7 unknown #
face $-1 $219 $220 $29 $-1 $221 reversed single #
loop $-1 $-1 $222 $86 #
plane-surface $-1 43.479690327956078 -19.594684554026774 117.73042214922009 0 1 0 0.71933980857756763 0 0.69465836192734942 forward_v I I I I #
coedge $-1 $223 $224 $225 $226 reversed $87 $-1 #
coedge $-1 $143 $89 $227 $228 reversed $56 $-1 #
coedge $-1 $89 $142 $223 $229 reversed $56 $-1 #
coedge $-1 $225 $230 $89 $145 forward $231 $-1 #
edge $-1 $232 -19.694524781393831 $233 -14.634416259082087 $144 $234 forward 7 unknown #
loop $-1 $-1 $151 $90 #
plane-surface $-1 -16.131093162115768 -14.881310087314375 60.164959041732445 0.71933980857756763 0 0.69465836192734942 0.69465836192734942 0 -0.71933980857756763 forward_v I I I I #
loop $-1 $-1 $235 $58 #
coedge $-1 $149 $149 $150 $236 reversed $91 $-1 #
coedge $-1 $150 $150 $149 $236 forward $93 $-1 #
coedge $-1 $151 $151 $94 $152 forward $146 $-1 #
edge $-1 $237 0 $237 6.2831853071796004 $151 $238 forward 7 unknown #
loop $-1 $-1 $158 $95 #
plane-surface $-1 -16.131093162115768 -14.881310087314375 60.164959041732445 0.71933980857756763 0 0.69465836192734942 0.69465836192734942 0 -0.71933980857756763 forward_v I I I I #
loop $-1 $-1 $239 $61 #
coedge $-1 $156 $156 $157 $240 reversed $96 $-1 #
coedge $-1 $157 $157 $156 $240 forward $98 $-1 #
coedge $-1 $158 $158 $99 $159 forward $153 $-1 #
edge $-1 $241 0 $241 6.2831853071796004 $158 $242 forward 7 unknown #
face $-1 $243 $244 $24 $-1 $245 reversed single #
loop $-1 $-1 $246 $100 #
plane-surface $-1 -41.43436994537187 0 0 1 0 0 0 0 -1 forward_v I I I I #
coedge $-1 $247 $171 $248 $249 forward $101 $-1 #
coedge $-1 $250 $103 $247 $251 forward $65 $-1 #
coedge $-1 $103 $250 $252 $253 forward $65 $-1 #
coedge $-1 $174 $173 $103 $167 reversed $175 $-1 #
edge $-1 $254 -24.721904648487584 $255 24.721904648487584 $166 $256 forward 7 unknown #
coedge $-1 $105 $104 $257 $258 forward $41 $-1 #
coedge $-1 $259 $260 $104 $170 reversed $244 $-1 #
edge $-1 $177 -41.43436994537187 $261 41.43436994537187 $169 $262 forward 7 unknown #
coedge $-1 $163 $263 $105 $172 reversed $101 $-1 #
edge $-1 $264 -41.43436994537187 $176 41.43436994537187 $171 $265 forward 7 unknown #
coedge $-1 $166 $106 $263 $266 forward $175 $-1 #
coedge $-1 $106 $166 $259 $267 reversed $175 $-1 #
loop $-1 $-1 $173 $243 #
vertex $-1 $107 $268 #
vertex $-1 $107 $269 #
straight-curve $-1 41.43436994537187 0 5.794071441954566 0 1 0 I I #
face $-1 $270 $271 $25 $-1 $272 reversed single #
loop $-1 $-1 $273 $108 #
plane-surface $-1 -41.43436994537187 0 0 1 0 0 0 0 -1 forward_v I I I I #
coedge $-1 $190 $274 $184 $275 forward $109 $-1 #
coedge $-1 $114 $111 $276 $277 reversed $69 $-1 #
coedge $-1 $111 $114 $182 $275 reversed $69 $-1 #
coedge $-1 $278 $279 $111 $186 forward $280 $-1 #
edge $-1 $281 -5.794071441954566 $282 5.794071441954566 $185 $283 forward 7 unknown #
coedge $-1 $113 $112 $273 $284 reversed $44 $-1 #
coedge $-1 $276 $285 $112 $189 forward $271 $-1 #
edge $-1 $286 -21.467184972685935 $193 -18.467184972685935 $188 $287 forward 7 unknown #
coedge $-1 $288 $182 $113 $191 forward $109 $-1 #
edge $-1 $192 18.467184972685935 $289 21.467184972685935 $190 $290 forward 7 unknown #
vertex $-1 $191 $291 #
vertex $-1 $189 $292 #
straight-curve $-1 -38.43436994537187 -19.594684554026774 0 0 0 -1 I I #
face $-1 $-1 $207 $26 $-1 $293 reversed single #
loop $-1 $-1 $294 $116 #
plane-surface $-1 -39.93436994537187 -19.594684554026774 0 0 -1 0 0 0 -1 forward_v I I I I #
coedge $-1 $295 $296 $297 $298 forward $117 $-1 #
coedge $-1 $299 $119 $121 $205 forward $73 $-1 #
coedge $-1 $119 $299 $294 $300 reversed $73 $-1 #
coedge $-1 $301 $122 $119 $202 forward $207 $-1 #
edge $-1 $209 2.7272805769447892 $302 12.154029510369586 $201 $303 forward 7 unknown #
coedge $-1 $296 $295 $120 $204 forward $117 $-1 #
edge $-1 $304 -14.148315294661749 $208 -9.0882067723499915 $203 $305 forward 7 unknown #
edge $-1 $209 1.0206786807905858e-014 $304 7.2843124039741625 $121 $306 forward 7 unknown #
coedge $-1 $122 $301 $296 $307 reversed $207 $-1 #
loop $-1 $-1 $201 $195 #
vertex $-1 $307 $308 #
vertex $-1 $123 $309 #
straight-curve $-1 -41.43436994537187 -10.167935620601977 29.059819329574118 0 0 -1 I I #
coedge $-1 $211 $211 $-1 $310 reversed $126 $-1 #
edge $-1 $311 0 $311 6.2831853071796004 $127 $312 forward 7 unknown #
vertex $-1 $130 $313 #
ellipse-curve $-1 -38.904315684215995 -16.901327715905403 3.1741234968075829 -0.71933980857756763 0 0.69465836192734942 0.69465836192734942 0 0.71933980857756763 1 I I #
coedge $-1 $215 $215 $-1 $314 reversed $133 $-1 #
edge $-1 $315 0 $315 6.2831853071796004 $134 $316 forward 7 unknown #
vertex $-1 $137 $317 #
ellipse-curve $-1 -38.904315684215995 -12.861292458723348 3.1741234968075829 -0.71933980857756763 0 0.69465836192734942 0.69465836192734942 0 0.71933980857756763 1 I I #
face $-1 $-1 $231 $29 $-1 $318 forward single #
loop $-1 $-1 $319 $138 #
plane-surface $-1 41.43436994537187 0 0 -1 0 0 0 0 1 forward_v I I I I #
coedge $-1 $320 $321 $322 $323 reversed $139 $-1 #
coedge $-1 $324 $141 $143 $229 forward $87 $-1 #
coedge $-1 $141 $324 $320 $325 forward $87 $-1 #
coedge $-1 $322 $144 $141 $226 forward $231 $-1 #
edge $-1 $233 2.7272805769447892 $326 12.154029510369586 $225 $327 forward 7 unknown #
coedge $-1 $328 $329 $142 $228 forward $220 $-1 #
edge $-1 $330 -58.311035522949432 $232 -53.071139632655481 $227 $331 forward 7 unknown #
edge $-1 $233 75.584427486769613 $330 82.868739890743726 $143 $332 forward 7 unknown #
coedge $-1 $144 $322 $328 $333 forward $231 $-1 #
loop $-1 $-1 $322 $219 #
vertex $-1 $228 $334 #
vertex $-1 $145 $335 #
straight-curve $-1 21.739845163978039 -10.167935620601977 5.7940714419545642 -1 0 0 I I #
coedge $-1 $235 $235 $-1 $336 reversed $148 $-1 #
edge $-1 $337 0 $337 6.2831853071796004 $149 $338 forward 7 unknown #
vertex $-1 $152 $339 #
ellipse-curve $-1 38.904315684215987 -16.901327715905403 3.1741234968075935 0.71933980857756763 0 0.69465836192734942 0.69465836192734942 0 -0.71933980857756763 1 I I #
coedge $-1 $239 $239 $-1 $340 reversed $155 $-1 #
edge $-1 $341 0 $341 6.2831853071796004 $156 $342 forward 7 unknown #
vertex $-1 $159 $343 #
ellipse-curve $-1 38.904315684215987 -12.861292458723348 3.1741234968075935 0.71933980857756763 0 0.69465836192734942 0.69465836192734942 0 -0.71933980857756763 1 I I #
face $-1 $-1 $175 $24 $-1 $344 reversed single #
loop $-1 $-1 $259 $160 #
plane-surface $-1 0 24.721904648487584 0 0 -1 0 0 0 -1 forward_v I I I I #
coedge $-1 $345 $257 $260 $346 forward $161 $-1 #
coedge $-1 $263 $163 $164 $251 reversed $101 $-1 #
coedge $-1 $257 $345 $163 $249 reversed $161 $-1 #
edge $-1 $264 -5.794071441954566 $347 5.794071441954566 $248 $348 forward 7 unknown #
coedge $-1 $165 $164 $345 $349 forward $65 $-1 #
edge $-1 $255 -41.43436994537187 $347 41.43436994537187 $247 $350 forward 7 unknown #
coedge $-1 $260 $259 $165 $253 reversed $244 $-1 #
edge $-1 $351 -41.43436994537187 $254 41.43436994537187 $252 $352 forward 7 unknown #
vertex $-1 $167 $353 #
vertex $-1 $266 $354 #
straight-curve $-1 41.43436994537187 0 -5.794071441954566 0 -1 0 I I #
coedge $-1 $246 $248 $168 $258 reversed $161 $-1 #
edge $-1 $261 -24.721904648487584 $264 24.721904648487584 $257 $355 forward 7 unknown #
coedge $-1 $252 $169 $174 $267 forward $244 $-1 #
coedge $-1 $169 $252 $246 $346 reversed $244 $-1 #
vertex $-1 $170 $356 #
straight-curve $-1 0 24.721904648487584 5.794071441954566 -1 0 0 I I #
coedge $-1 $171 $247 $173 $266 reversed $101 $-1 #
vertex $-1 $258 $357 #
straight-curve $-1 0 -24.721904648487584 5.794071441954566 1 0 0 I I #
edge $-1 $176 -5.794071441954566 $255 5.794071441954566 $173 $358 forward 7 unknown #
edge $-1 $177 -5.794071441954566 $254 5.794071441954566 $174 $359 forward 7 unknown #
point $-1 41.43436994537187 -24.721904648487584 5.794071441954566 #
point $-1 41.43436994537187 24.721904648487584 5.794071441954566 #
face $-1 $-1 $280 $25 $-1 $360 reversed single #
loop $-1 $-1 $276 $179 #
plane-surface $-1 0 0 -5.794071441954566 0 0 1 1 0 0 forward_v I I I I #
coedge $-1 $361 $362 $187 $284 forward $180 $-1 #
coedge $-1 $182 $288 $278 $363 forward $109 $-1 #
edge $-1 $282 -13.642757347858995 $192 -8.5155372533981843 $182 $364 forward 7 unknown #
coedge $-1 $365 $188 $183 $277 forward $271 $-1 #
edge $-1 $193 8.5155372533981843 $281 13.642757347858995 $276 $366 forward 7 unknown #
coedge $-1 $367 $185 $274 $363 reversed $280 $-1 #
coedge $-1 $185 $367 $365 $368 reversed $280 $-1 #
loop $-1 $-1 $185 $270 #
vertex $-1 $368 $369 #
vertex $-1 $186 $370 #
straight-curve $-1 -38.43436994537187 -24.721904648487584 0 0 0 1 I I #
edge $-1 $289 -5.794071441954566 $286 5.794071441954566 $273 $371 forward 7 unknown #
coedge $-1 $188 $365 $361 $372 forward $271 $-1 #
vertex $-1 $189 $373 #
straight-curve $-1 -19.967184972685935 -19.594684554026774 -5.794071441954566 1 0 0 I I #
coedge $-1 $274 $190 $362 $374 forward $109 $-1 #
vertex $-1 $374 $375 #
straight-curve $-1 -19.967184972685935 -19.594684554026774 5.794071441954566 -1 0 0 I I #
point $-1 -38.43436994537187 -19.594684554026774 5.794071441954566 #
point $-1 -38.43436994537187 -19.594684554026774 -5.794071441954566 #
plane-surface $-1 -41.43436994537187 0 0 1 0 0 0 0 -1 forward_v I I I I #
coedge $-1 $297 $376 $200 $300 forward $196 $-1 #
coedge $-1 $203 $198 $299 $377 forward $117 $-1 #
coedge $-1 $198 $203 $206 $307 forward $117 $-1 #
coedge $-1 $376 $294 $198 $298 reversed $196 $-1 #
edge $-1 $378 -21.467184972685935 $379 -16.407076450374177 $198 $380 forward 7 unknown #
coedge $-1 $200 $199 $295 $377 reversed $73 $-1 #
edge $-1 $302 -0.32167350382055787 $379 6.9626389001535944 $294 $381 forward 7 unknown #
coedge $-1 $206 $201 $376 $382 forward $207 $-1 #
vertex $-1 $382 $383 #
straight-curve $-1 -41.43436994537187 -7.4406550436571877 0.5541755516605934 0 -1 0 I I #
vertex $-1 $204 $384 #
straight-curve $-1 -50.522576717721861 -10.167935620601977 5.7940714419545678 -1 0 0 I I #
straight-curve $-1 -41.434369945371877 -10.167935620601977 0.55417555166059174 0.69465836192734942 0 0.71933980857756763 I I #
edge $-1 $208 10.167935620601977 $378 19.594684554026774 $206 $385 forward 7 unknown #
point $-1 -41.43436994537187 -10.167935620601977 5.794071441954566 #
point $-1 -41.43436994537187 -10.167935620601977 0.55417555166059906 #
edge $-1 $386 1 $386 0 $211 $-1 forward 7 unknown #
vertex $-1 $212 $387 #
ellipse-curve $-1 -38.114045155050206 -16.901327715905403 2.410968135845005 -0.71933980857756763 0 0.69465836192734942 0.69465836192734942 0 0.71933980857756763 1 I I #
point $-1 -38.209657322288642 -16.901327715905403 3.8934633053851484 #
edge $-1 $388 1 $388 0 $215 $-1 forward 7 unknown #
vertex $-1 $216 $389 #
ellipse-curve $-1 -38.114045155050206 -12.861292458723348 2.410968135845005 -0.71933980857756763 0 0.69465836192734942 0.69465836192734942 0 0.71933980857756763 1 I I #
point $-1 -38.209657322288642 -12.861292458723348 3.8934633053851484 #
plane-surface $-1 0 0 5.794071441954566 0 0 1 1 0 0 forward_v I I I I #
coedge $-1 $329 $328 $321 $390 forward $220 $-1 #
coedge $-1 $321 $222 $224 $325 reversed $139 $-1 #
coedge $-1 $222 $320 $319 $390 reversed $139 $-1 #
coedge $-1 $230 $225 $222 $323 forward $231 $-1 #
edge $-1 $326 14.634416259082087 $391 19.694524781393831 $322 $392 forward 7 unknown #
coedge $-1 $224 $223 $329 $393 reversed $87 $-1 #
edge $-1 $394 -82.868739890743726 $326 -75.584427486769613 $320 $395 forward 7 unknown #
vertex $-1 $226 $396 #
straight-curve $-1 36.374261423060119 -7.4406550436571877 5.7940714419545642 0 -1 0 I I #
coedge $-1 $319 $227 $230 $333 reversed $220 $-1 #
coedge $-1 $227 $319 $324 $393 forward $220 $-1 #
vertex $-1 $228 $397 #
straight-curve $-1 41.43436994537187 -10.167935620601977 58.865211074610045 0 0 1 I I #
straight-curve $-1 -16.131093162115768 -10.167935620601977 60.164959041732445 0.69465836192734942 0 -0.71933980857756763 I I #
edge $-1 $391 -19.594684554026774 $232 -10.167935620601977 $328 $398 forward 7 unknown #
point $-1 41.43436994537187 -10.167935620601977 5.794071441954566 #
point $-1 36.374261423060126 -10.167935620601977 5.7940714419545571 #
edge $-1 $399 1 $399 0 $235 $-1 forward 7 unknown #
vertex $-1 $236 $400 #
ellipse-curve $-1 38.114045155050199 -16.901327715905403 2.4109681358450139 0.71933980857756763 0 0.69465836192734942 0.69465836192734942 0 -0.71933980857756763 1 I I #
point $-1 39.598974046143333 -16.901327715905403 2.4547836882300218 #
edge $-1 $401 1 $401 0 $239 $-1 forward 7 unknown #
vertex $-1 $240 $402 #
ellipse-curve $-1 38.114045155050199 -12.861292458723348 2.4109681358450139 0.71933980857756763 0 0.69465836192734942 0.69465836192734942 0 -0.71933980857756763 1 I I #
point $-1 39.598974046143333 -12.861292458723348 2.4547836882300218 #
plane-surface $-1 41.43436994537187 0 0 -1 0 0 0 0 1 forward_v I I I I #
coedge $-1 $248 $246 $250 $349 reversed $161 $-1 #
edge $-1 $261 -5.794071441954566 $351 5.794071441954566 $260 $403 forward 7 unknown #
vertex $-1 $349 $404 #
straight-curve $-1 -41.43436994537187 -24.721904648487584 0 0 0 -1 I I #
edge $-1 $347 -24.721904648487584 $351 24.721904648487584 $345 $405 forward 7 unknown #
straight-curve $-1 0 -24.721904648487584 -5.794071441954566 -1 0 0 I I #
vertex $-1 $253 $406 #
straight-curve $-1 0 24.721904648487584 -5.794071441954566 1 0 0 I I #
point $-1 41.43436994537187 24.721904648487584 -5.794071441954566 #
point $-1 41.43436994537187 -24.721904648487584 -5.794071441954566 #
straight-curve $-1 -41.43436994537187 0 5.794071441954566 0 -1 0 I I #
point $-1 -41.43436994537187 24.721904648487584 5.794071441954566 #
point $-1 -41.43436994537187 -24.721904648487584 5.794071441954566 #
straight-curve $-1 41.43436994537187 -24.721904648487584 0 0 0 -1 I I #
straight-curve $-1 41.43436994537187 24.721904648487584 0 0 0 -1 I I #
plane-surface $-1 0 -24.721904648487584 0 0 1 0 0 0 1 forward_v I I I I #
coedge $-1 $407 $273 $285 $372 reversed $180 $-1 #
coedge $-1 $273 $407 $288 $374 reversed $180 $-1 #
edge $-1 $408 -41.43436994537187 $282 -38.43436994537187 $278 $409 forward 7 unknown #
straight-curve $-1 -38.43436994537187 -11.079147300628589 5.794071441954566 0 1 0 I I #
coedge $-1 $285 $276 $279 $368 forward $271 $-1 #
straight-curve $-1 -38.43436994537187 -11.079147300628589 -5.794071441954566 0 -1 0 I I #
coedge $-1 $279 $278 $407 $410 forward $280 $-1 #
edge $-1 $281 38.43436994537187 $411 41.43436994537187 $279 $412 forward 7 unknown #
point $-1 -38.43436994537187 -24.721904648487584 -5.794071441954566 #
point $-1 -38.43436994537187 -24.721904648487584 5.794071441954566 #
straight-curve $-1 -41.43436994537187 -19.594684554026774 0 0 0 -1 I I #
edge $-1 $411 -24.721904648487584 $286 -19.594684554026774 $361 $413 forward 7 unknown #
point $-1 -41.43436994537187 -19.594684554026774 -5.794071441954566 #
edge $-1 $289 19.594684554026774 $408 24.721904648487584 $362 $414 forward 7 unknown #
point $-1 -41.43436994537187 -19.594684554026774 5.794071441954566 #
coedge $-1 $294 $297 $301 $382 reversed $196 $-1 #
edge $-1 $379 -12.154029510369586 $304 -2.7272805769447892 $295 $415 forward 7 unknown #
vertex $-1 $382 $416 #
vertex $-1 $298 $417 #
straight-curve $-1 -19.967184972685935 -19.594684554026774 5.794071441954566 1 0 0 I I #
straight-curve $-1 -41.210916756132448 -19.594684554026774 0.78556810832335278 0.69465836192734942 0 0.71933980857756763 I I #
edge $-1 $302 0.55417555166059906 $378 5.794071441954566 $301 $418 forward 7 unknown #
point $-1 -41.43436994537187 -19.594684554026774 0.55417555166059906 #
point $-1 -36.374261423060112 -10.167935620601977 5.794071441954566 #
straight-curve $-1 -41.43436994537187 0 5.794071441954566 0 -1 0 I I #
vertex $-1 $310 $419 #
point $-1 -37.419386793122854 -16.901327715905403 3.1303079444225728 #
vertex $-1 $314 $420 #
point $-1 -37.419386793122854 -12.861292458723348 3.1303079444225728 #
edge $-1 $391 53.071139632655481 $394 58.311035522949432 $319 $421 forward 7 unknown #
vertex $-1 $333 $422 #
straight-curve $-1 21.739845163978039 -19.594684554026774 5.7940714419545642 1 0 0 I I #
edge $-1 $394 -12.154029510369586 $330 -2.7272805769447892 $329 $423 forward 7 unknown #
vertex $-1 $393 $424 #
straight-curve $-1 -16.131093162115768 -19.594684554026774 60.164959041732445 -0.69465836192734942 0 0.71933980857756763 I I #
point $-1 36.374261423060126 -19.594684554026774 5.7940714419545571 #
point $-1 41.434369945371863 -10.167935620601977 0.55417555166061305 #
straight-curve $-1 41.43436994537187 0 5.794071441954566 0 1 0 I I #
vertex $-1 $336 $425 #
point $-1 38.808703516977545 -16.901327715905403 1.6916283272674466 #
vertex $-1 $340 $426 #
point $-1 38.808703516977545 -12.861292458723348 1.6916283272674466 #
straight-curve $-1 -41.43436994537187 24.721904648487584 0 0 0 -1 I I #
point $-1 -41.43436994537187 -24.721904648487584 -5.794071441954566 #
straight-curve $-1 -41.43436994537187 0 -5.794071441954566 0 1 0 I I #
point $-1 -41.43436994537187 24.721904648487584 -5.794071441954566 #
coedge $-1 $362 $361 $367 $410 reversed $180 $-1 #
vertex $-1 $374 $427 #
straight-curve $-1 0 -24.721904648487584 5.794071441954566 1 0 0 I I #
edge $-1 $408 -5.794071441954566 $411 5.794071441954566 $407 $428 forward 7 unknown #
vertex $-1 $372 $429 #
straight-curve $-1 0 -24.721904648487584 -5.794071441954566 -1 0 0 I I #
straight-curve $-1 -41.43436994537187 0 -5.794071441954566 0 1 0 I I #
straight-curve $-1 -41.43436994537187 0 5.794071441954566 0 -1 0 I I #
straight-curve $-1 -36.374261423060112 -7.4406550436571877 5.7940714419545669 0 1 0 I I #
point $-1 -41.43436994537187 -19.594684554026774 5.794071441954566 #
point $-1 -36.374261423060112 -19.594684554026774 5.794071441954566 #
straight-curve $-1 -41.43436994537187 -19.594684554026774 0 0 0 1 I I #
point $-1 -37.394705346472634 -16.901327715905403 1.7163097739176558 #
point $-1 -37.394705346472634 -12.861292458723348 1.7163097739176558 #
straight-curve $-1 41.43436994537187 -19.594684554026774 58.865211074610045 0 0 -1 I I #
point $-1 41.43436994537187 -19.594684554026774 5.794071441954566 #
straight-curve $-1 41.43436994537187 -7.4406550436571877 0.55417555166060595 0 1 0 I I #
point $-1 41.434369945371863 -19.594684554026774 0.55417555166061305 #
point $-1 37.394705346472627 -16.901327715905403 1.7163097739176647 #
point $-1 37.394705346472627 -12.861292458723348 1.7163097739176647 #
point $-1 -41.43436994537187 -24.721904648487584 5.794071441954566 #
straight-curve $-1 -41.43436994537187 -24.721904648487584 0 0 0 -1 I I #
point $-1 -41.43436994537187 -24.721904648487584 -5.794071441954566 #
End-of-ACIS-data 