500 0 9 0           
7 Unknown 11 ACIS 5.0 NT 24 Thu Mar 25 18:32:35 1999 
-1 9.9999999999999995e-007 1e-010 
body $-1 $9 $-1 $10 #
body $-1 $11 $-1 $12 #
body $-1 $13 $-1 $14 #
body $-1 $15 $-1 $16 #
body $-1 $17 $-1 $18 #
body $-1 $19 $-1 $20 #
body $-1 $21 $-1 $22 #
body $-1 $23 $-1 $24 #
body $-1 $25 $-1 $26 #
lump $-1 $-1 $27 $0 #
transform $-1 1 0 0 0 1 0 0 0 1 76.663716544083996 34.722461149554178 11.18691214055997 1 rotate no_reflect no_shear #
lump $-1 $-1 $28 $1 #
transform $-1 1 0 0 0 1 0 0 0 1 76.663716544083996 34.722461149554178 11.18691214055997 1 rotate no_reflect no_shear #
lump $-1 $-1 $29 $2 #
transform $-1 1 0 0 0 1 0 0 0 1 76.663716544083996 34.722461149554178 11.18691214055997 1 rotate no_reflect no_shear #
lump $-1 $-1 $30 $3 #
transform $-1 1 0 0 0 1 0 0 0 1 76.663716544083996 34.722461149554178 11.18691214055997 1 rotate no_reflect no_shear #
lump $-1 $-1 $31 $4 #
transform $-1 1 0 0 0 1 0 0 0 1 76.663716544083996 34.722461149554178 11.18691214055997 1 rotate no_reflect no_shear #
lump $-1 $-1 $32 $5 #
transform $-1 1 0 0 0 1 0 0 0 1 76.663716544083996 34.722461149554178 11.18691214055997 1 rotate no_reflect no_shear #
lump $-1 $-1 $33 $6 #
transform $-1 1 0 0 0 1 0 0 0 1 76.663716544083996 34.722461149554178 11.18691214055997 1 rotate no_reflect no_shear #
lump $-1 $-1 $34 $7 #
transform $-1 1 0 0 0 1 0 0 0 1 76.663716544083996 34.722461149554178 11.18691214055997 1 rotate no_reflect no_shear #
lump $-1 $-1 $35 $8 #
transform $-1 1 0 0 0 1 0 0 0 1 76.663716544083996 34.722461149554178 11.18691214055997 1 rotate no_reflect no_shear #
shell $-1 $-1 $-1 $36 $-1 $9 #
shell $-1 $-1 $-1 $37 $-1 $11 #
shell $-1 $-1 $-1 $38 $-1 $13 #
shell $-1 $-1 $-1 $39 $-1 $15 #
shell $-1 $-1 $-1 $40 $-1 $17 #
shell $-1 $-1 $-1 $41 $-1 $19 #
shell $-1 $-1 $-1 $42 $-1 $21 #
shell $-1 $-1 $-1 $43 $-1 $23 #
shell $-1 $-1 $-1 $44 $-1 $25 #
face $-1 $45 $46 $27 $-1 $47 forward single #
face $-1 $48 $49 $28 $-1 $50 reversed single #
face $-1 $51 $52 $29 $-1 $53 reversed single #
face $-1 $54 $55 $30 $-1 $56 reversed single #
face $-1 $57 $58 $31 $-1 $59 forward single #
face $-1 $60 $61 $32 $-1 $62 forward single #
face $-1 $63 $64 $33 $-1 $65 reversed single #
face $-1 $66 $67 $34 $-1 $68 forward single #
face $-1 $69 $70 $35 $-1 $71 forward single #
face $-1 $72 $73 $27 $-1 $74 reversed single #
loop $-1 $-1 $75 $36 #
plane-surface $-1 0 0 11.18691214055997 0 0 1 1 0 0 forward_v I I I I #
face $-1 $76 $77 $28 $-1 $78 reversed single #
loop $-1 $-1 $79 $37 #
plane-surface $-1 -70.395508759690429 0 5.4065352536975517 0 0 1 1 0 0 forward_v I I I I #
face $-1 $80 $81 $29 $-1 $82 reversed single #
loop $-1 $-1 $83 $38 #
plane-surface $-1 70.395508759690443 0 5.4065352536975517 0 0 1 1 0 0 forward_v I I I I #
face $-1 $84 $85 $30 $-1 $86 reversed single #
loop $-1 $-1 $87 $39 #
plane-surface $-1 -50.984208377262206 -18.475435220134884 51.518020773485304 0 0.64278761758704617 0.76604443648966558 1 0 0 forward_v I I I I #
face $-1 $88 $89 $31 $-1 $90 forward single #
loop $-1 $91 $92 $40 #
cone-surface $-1 -56.616962347848485 30.913206329283032 7.5523325150487839 0 -0.64278761758704617 -0.76604443648966558 1.5 0 0 1 I I 0 1 1.5 forward I I I I #
face $-1 $93 $94 $32 $-1 $95 forward single #
loop $-1 $96 $97 $41 #
cone-surface $-1 -45.351454406675934 30.913206329283032 7.5523325150487839 0 -0.64278761758704617 -0.76604443648966558 1.5 0 0 1 I I 0 1 1.5 forward I I I I #
face $-1 $98 $99 $33 $-1 $100 reversed single #
loop $-1 $-1 $101 $42 #
plane-surface $-1 -50.984208377262206 -34.722461149554192 6.8796846153239386 0 -0.64278761758704617 0.76604443648966558 1 0 0 forward_v I I I I #
face $-1 $102 $103 $34 $-1 $104 forward single #
loop $-1 $105 $106 $43 #
cone-surface $-1 -56.616962347848485 -30.913206329283032 7.5523325150487874 0 0.64278761758704617 -0.76604443648966558 1.5 0 0 1 I I 0 1 1.5 forward I I I I #
face $-1 $107 $108 $35 $-1 $109 forward single #
loop $-1 $110 $111 $44 #
cone-surface $-1 -45.351454406675934 -30.913206329283032 7.5523325150487874 0 0.64278761758704617 -0.76604443648966558 1.5 0 0 1 I I 0 1 1.5 forward I I I I #
face $-1 $112 $113 $27 $-1 $114 reversed single #
loop $-1 $-1 $115 $45 #
plane-surface $-1 0 0 -11.18691214055997 0 0 1 1 0 0 forward_v I I I I #
coedge $-1 $116 $117 $118 $119 forward $46 $-1 #
face $-1 $120 $121 $28 $-1 $122 reversed single #
loop $-1 $-1 $123 $48 #
plane-surface $-1 -64.127300975296862 0 8.2967236971287601 -1 0 0 0 0 1 forward_v I I I I #
coedge $-1 $124 $125 $126 $127 forward $49 $-1 #
face $-1 $128 $129 $29 $-1 $130 forward single #
loop $-1 $-1 $131 $51 #
plane-surface $-1 64.127300975296876 0 8.2967236971287601 1 0 0 0 0 -1 forward_v I I I I #
coedge $-1 $132 $133 $134 $135 reversed $52 $-1 #
face $-1 $136 $137 $30 $-1 $138 reversed single #
loop $-1 $-1 $139 $54 #
plane-surface $-1 -37.841115779227565 80.08154020534586 168.97364785191786 -1 0 0 0 0.64278761758704617 0.76604443648966558 forward_v I I I I #
coedge $-1 $140 $141 $142 $143 reversed $55 $-1 #
face $-1 $-1 $144 $31 $-1 $145 forward single #
loop $-1 $146 $147 $57 #
cone-surface $-1 -56.616962347848485 29.188437680725123 5.4968333247883816 0 -0.64278761758704617 -0.76604443648966558 0.75 0 0 1 I I -0.70710678118654757 0.70710678118654757 0.75 forward I I I I #
loop $-1 $-1 $148 $40 #
coedge $-1 $92 $92 $149 $150 reversed $58 $-1 #
face $-1 $-1 $151 $32 $-1 $152 forward single #
loop $-1 $153 $154 $60 #
cone-surface $-1 -45.351454406675934 29.188437680725123 5.4968333247883816 0 -0.64278761758704617 -0.76604443648966558 0.75 0 0 1 I I -0.70710678118654757 0.70710678118654757 0.75 forward I I I I #
loop $-1 $-1 $155 $41 #
coedge $-1 $97 $97 $156 $157 reversed $61 $-1 #
face $-1 $158 $159 $33 $-1 $160 forward single #
loop $-1 $-1 $161 $63 #
plane-surface $-1 -37.841115779227565 -133.27943657503494 124.33531169375649 -1 0 0 0 -0.64278761758704617 0.76604443648966558 forward_v I I I I #
coedge $-1 $162 $163 $164 $165 reversed $64 $-1 #
face $-1 $-1 $166 $34 $-1 $167 forward single #
loop $-1 $168 $169 $66 #
cone-surface $-1 -56.616962347848485 -29.188437680725123 5.4968333247883852 0 0.64278761758704617 -0.76604443648966558 0.75 0 0 1 I I -0.70710678118654757 0.70710678118654757 0.75 forward I I I I #
loop $-1 $-1 $170 $43 #
coedge $-1 $106 $106 $171 $172 reversed $67 $-1 #
face $-1 $-1 $173 $35 $-1 $174 forward single #
loop $-1 $175 $176 $69 #
cone-surface $-1 -45.351454406675934 -29.188437680725123 5.4968333247883852 0 0.64278761758704617 -0.76604443648966558 0.75 0 0 1 I I -0.70710678118654757 0.70710678118654757 0.75 forward I I I I #
loop $-1 $-1 $177 $44 #
coedge $-1 $111 $111 $178 $179 reversed $70 $-1 #
face $-1 $180 $181 $27 $-1 $182 reversed single #
loop $-1 $-1 $183 $72 #
plane-surface $-1 0 -34.722461149554178 0 0 1 0 0 0 1 forward_v I I I I #
coedge $-1 $184 $185 $186 $187 forward $73 $-1 #
coedge $-1 $188 $75 $189 $190 forward $46 $-1 #
coedge $-1 $75 $188 $191 $192 forward $46 $-1 #
coedge $-1 $193 $194 $75 $119 reversed $195 $-1 #
edge $-1 $196 -34.722461149554178 $197 34.722461149554178 $118 $198 forward 7 unknown #
face $-1 $199 $200 $28 $-1 $201 reversed single #
loop $-1 $-1 $202 $76 #
plane-surface $-1 0 34.722461149554178 0 0 -1 0 0 0 -1 forward_v I I I I #
coedge $-1 $126 $203 $204 $205 reversed $77 $-1 #
coedge $-1 $206 $79 $207 $208 reversed $49 $-1 #
coedge $-1 $79 $206 $209 $210 reversed $49 $-1 #
coedge $-1 $211 $123 $79 $127 reversed $77 $-1 #
edge $-1 $212 -34.722461149554178 $213 34.722461149554178 $126 $214 forward 7 unknown #
face $-1 $215 $216 $29 $-1 $217 reversed single #
loop $-1 $-1 $218 $80 #
plane-surface $-1 0 0 11.18691214055997 0 0 1 1 0 0 forward_v I I I I #
coedge $-1 $219 $220 $221 $222 reversed $81 $-1 #
coedge $-1 $223 $83 $224 $225 reversed $52 $-1 #
coedge $-1 $83 $223 $226 $227 reversed $52 $-1 #
coedge $-1 $228 $229 $83 $135 forward $230 $-1 #
edge $-1 $231 -34.722461149554178 $232 34.722461149554178 $134 $233 forward 7 unknown #
face $-1 $234 $235 $30 $-1 $236 forward single #
loop $-1 $-1 $237 $84 #
plane-surface $-1 0 34.722461149554178 0 0 -1 0 0 0 -1 forward_v I I I I #
coedge $-1 $238 $239 $240 $241 reversed $85 $-1 #
coedge $-1 $242 $87 $243 $244 reversed $55 $-1 #
coedge $-1 $87 $242 $238 $245 forward $55 $-1 #
coedge $-1 $240 $246 $87 $143 forward $235 $-1 #
edge $-1 $247 -38.635196786665745 $248 -12.349011590596461 $142 $249 forward 7 unknown #
loop $-1 $-1 $149 $88 #
plane-surface $-1 -50.984208377262206 -18.475435220134884 51.518020773485304 0 0.64278761758704617 0.76604443648966558 1 0 0 forward_v I I I I #
loop $-1 $-1 $250 $57 #
coedge $-1 $147 $147 $148 $251 reversed $89 $-1 #
coedge $-1 $148 $148 $147 $251 forward $91 $-1 #
coedge $-1 $149 $149 $92 $150 forward $144 $-1 #
edge $-1 $252 1.7735187182733256e-016 $252 6.2831853071796004 $149 $253 forward 7 unknown #
loop $-1 $-1 $156 $93 #
plane-surface $-1 -50.984208377262206 -18.475435220134884 51.518020773485304 0 0.64278761758704617 0.76604443648966558 1 0 0 forward_v I I I I #
loop $-1 $-1 $254 $60 #
coedge $-1 $154 $154 $155 $255 reversed $94 $-1 #
coedge $-1 $155 $155 $154 $255 forward $96 $-1 #
coedge $-1 $156 $156 $97 $157 forward $151 $-1 #
edge $-1 $256 1.7735187182733256e-016 $256 6.2831853071796004 $156 $257 forward 7 unknown #
face $-1 $258 $259 $33 $-1 $260 forward single #
loop $-1 $-1 $261 $98 #
plane-surface $-1 -64.127300975296862 0 8.2967236971287601 -1 0 0 0 0 1 forward_v I I I I #
coedge $-1 $262 $263 $264 $265 reversed $99 $-1 #
coedge $-1 $266 $101 $261 $267 reversed $64 $-1 #
coedge $-1 $101 $266 $262 $268 forward $64 $-1 #
coedge $-1 $264 $269 $101 $165 forward $270 $-1 #
edge $-1 $271 -38.635196786665759 $272 -12.349011590596461 $164 $273 forward 7 unknown #
loop $-1 $-1 $171 $102 #
plane-surface $-1 -50.984208377262206 -34.722461149554192 6.8796846153239386 0 -0.64278761758704617 0.76604443648966558 1 0 0 forward_v I I I I #
loop $-1 $-1 $274 $66 #
coedge $-1 $169 $169 $170 $275 reversed $103 $-1 #
coedge $-1 $170 $170 $169 $275 forward $105 $-1 #
coedge $-1 $171 $171 $106 $172 forward $166 $-1 #
edge $-1 $276 -2.6383441052197469e-015 $276 6.2831853071795978 $171 $277 forward 7 unknown #
loop $-1 $-1 $178 $107 #
plane-surface $-1 -50.984208377262206 -34.722461149554192 6.8796846153239386 0 -0.64278761758704617 0.76604443648966558 1 0 0 forward_v I I I I #
loop $-1 $-1 $278 $69 #
coedge $-1 $176 $176 $177 $279 reversed $108 $-1 #
coedge $-1 $177 $177 $176 $279 forward $110 $-1 #
coedge $-1 $178 $178 $111 $179 forward $173 $-1 #
edge $-1 $280 -2.6383441052197469e-015 $280 6.2831853071795978 $178 $281 forward 7 unknown #
face $-1 $282 $283 $27 $-1 $284 reversed single #
loop $-1 $-1 $285 $112 #
plane-surface $-1 -76.663716544083996 0 0 1 0 0 0 0 -1 forward_v I I I I #
coedge $-1 $286 $191 $287 $288 forward $113 $-1 #
coedge $-1 $289 $115 $286 $290 forward $73 $-1 #
coedge $-1 $115 $289 $291 $292 forward $73 $-1 #
coedge $-1 $194 $193 $115 $187 reversed $195 $-1 #
edge $-1 $293 -34.722461149554178 $294 34.722461149554178 $186 $295 forward 7 unknown #
coedge $-1 $117 $116 $296 $297 forward $46 $-1 #
coedge $-1 $298 $299 $116 $190 reversed $283 $-1 #
edge $-1 $197 -76.663716544083996 $300 76.663716544083996 $189 $301 forward 7 unknown #
coedge $-1 $183 $302 $117 $192 reversed $113 $-1 #
edge $-1 $303 -76.663716544083996 $196 76.663716544083996 $191 $304 forward 7 unknown #
coedge $-1 $186 $118 $302 $305 forward $195 $-1 #
coedge $-1 $118 $186 $298 $306 reversed $195 $-1 #
loop $-1 $-1 $193 $282 #
vertex $-1 $119 $307 #
vertex $-1 $119 $308 #
straight-curve $-1 76.663716544083996 0 11.18691214055997 0 1 0 I I #
face $-1 $309 $310 $28 $-1 $311 forward single #
loop $-1 $-1 $312 $120 #
plane-surface $-1 -76.663716544083996 0 0 1 0 0 0 0 -1 forward_v I I I I #
coedge $-1 $209 $313 $211 $314 forward $121 $-1 #
coedge $-1 $123 $211 $315 $316 reversed $77 $-1 #
coedge $-1 $317 $207 $123 $205 forward $318 $-1 #
edge $-1 $213 1.2581734051331717 $319 7.0385502919955885 $204 $320 forward 7 unknown #
coedge $-1 $125 $124 $312 $321 reversed $49 $-1 #
coedge $-1 $204 $322 $124 $208 forward $318 $-1 #
edge $-1 $323 -41.465962164238782 $213 -28.929546595451647 $207 $324 forward 7 unknown #
coedge $-1 $325 $202 $125 $210 forward $121 $-1 #
edge $-1 $212 28.929546595451647 $326 41.465962164238782 $209 $327 forward 7 unknown #
coedge $-1 $203 $126 $202 $314 reversed $77 $-1 #
vertex $-1 $210 $328 #
vertex $-1 $208 $329 #
straight-curve $-1 -64.127300975296862 0 5.4065352536975517 0 -1 0 I I #
face $-1 $330 $331 $29 $-1 $332 reversed single #
loop $-1 $-1 $333 $128 #
plane-surface $-1 0 -34.722461149554178 0 0 1 0 0 0 1 forward_v I I I I #
coedge $-1 $334 $335 $220 $336 forward $129 $-1 #
coedge $-1 $337 $131 $223 $338 reversed $81 $-1 #
coedge $-1 $131 $337 $218 $336 reversed $81 $-1 #
coedge $-1 $339 $226 $131 $222 forward $331 $-1 #
edge $-1 $340 1.2581734051331717 $341 7.0385502919955885 $221 $342 forward 7 unknown #
coedge $-1 $133 $132 $219 $338 forward $52 $-1 #
coedge $-1 $343 $333 $132 $225 forward $216 $-1 #
edge $-1 $344 28.929546595451654 $231 41.465962164238789 $224 $345 forward 7 unknown #
coedge $-1 $221 $346 $133 $227 forward $331 $-1 #
edge $-1 $232 -41.465962164238789 $340 -28.929546595451654 $226 $347 forward 7 unknown #
coedge $-1 $348 $134 $346 $349 reversed $230 $-1 #
coedge $-1 $134 $348 $343 $350 forward $230 $-1 #
loop $-1 $-1 $134 $330 #
vertex $-1 $225 $351 #
vertex $-1 $135 $352 #
straight-curve $-1 76.663716544083996 0 5.4065352536975517 0 1 0 I I #
face $-1 $-1 $353 $30 $-1 $354 forward single #
loop $-1 $-1 $240 $136 #
plane-surface $-1 0 0 11.18691214055997 0 0 1 1 0 0 forward_v I I I I #
coedge $-1 $355 $356 $239 $357 forward $137 $-1 #
coedge $-1 $239 $139 $141 $245 reversed $85 $-1 #
coedge $-1 $139 $238 $237 $357 reversed $85 $-1 #
coedge $-1 $358 $142 $139 $241 forward $235 $-1 #
edge $-1 $248 -10.451462722925783 $359 -5.318308953118752 $240 $360 forward 7 unknown #
coedge $-1 $141 $140 $355 $361 reversed $55 $-1 #
coedge $-1 $362 $363 $140 $244 forward $353 $-1 #
edge $-1 $364 -48.477362829686982 $247 -41.776506423328513 $243 $365 forward 7 unknown #
edge $-1 $366 -69.444922299108342 $248 -62.744065892749873 $238 $367 forward 7 unknown #
coedge $-1 $142 $358 $362 $368 forward $235 $-1 #
vertex $-1 $244 $369 #
vertex $-1 $143 $370 #
straight-curve $-1 -25.492104188631103 29.589307379747133 11.186912140559972 1 0 0 I I #
coedge $-1 $250 $250 $-1 $371 reversed $146 $-1 #
edge $-1 $372 0 $372 6.2831853071796004 $147 $373 forward 7 unknown #
vertex $-1 $150 $374 #
ellipse-curve $-1 -56.616962347848485 32.155884264650666 9.0332983779419465 0 0.64278761758704617 0.76604443648966558 1.5 0 0 1 I I #
coedge $-1 $254 $254 $-1 $375 reversed $153 $-1 #
edge $-1 $376 0 $376 6.2831853071796004 $154 $377 forward 7 unknown #
vertex $-1 $157 $378 #
ellipse-curve $-1 -45.351454406675934 32.155884264650666 9.0332983779419465 0 0.64278761758704617 0.76604443648966558 1.5 0 0 1 I I #
face $-1 $-1 $270 $33 $-1 $379 reversed single #
loop $-1 $-1 $380 $158 #
plane-surface $-1 0 0 11.18691214055997 0 0 1 1 0 0 forward_v I I I I #
coedge $-1 $381 $382 $162 $267 forward $159 $-1 #
coedge $-1 $263 $161 $163 $268 reversed $99 $-1 #
coedge $-1 $161 $262 $383 $384 reversed $99 $-1 #
coedge $-1 $385 $164 $161 $265 forward $270 $-1 #
edge $-1 $272 -55.287971231554295 $386 -50.980743706318279 $264 $387 forward 7 unknown #
coedge $-1 $163 $162 $380 $388 reversed $64 $-1 #
edge $-1 $389 7.0540452737743706 $271 13.754901680132782 $261 $390 forward 7 unknown #
edge $-1 $391 -6.7008564063584313 $272 -1.8307977367429951e-014 $262 $392 forward 7 unknown #
coedge $-1 $164 $385 $381 $393 forward $270 $-1 #
loop $-1 $-1 $264 $258 #
vertex $-1 $267 $394 #
vertex $-1 $165 $395 #
straight-curve $-1 -25.492104188631103 -34.722461149554178 6.8796846153239528 1 0 0 I I #
coedge $-1 $274 $274 $-1 $396 reversed $168 $-1 #
edge $-1 $397 0 $397 6.2831853071796004 $169 $398 forward 7 unknown #
vertex $-1 $172 $399 #
ellipse-curve $-1 -56.616962347848485 -32.155884264650673 9.0332983779419642 0 -0.64278761758704617 0.76604443648966558 1.5 0 0 1 I I #
coedge $-1 $278 $278 $-1 $400 reversed $175 $-1 #
edge $-1 $401 0 $401 6.2831853071796004 $176 $402 forward 7 unknown #
vertex $-1 $179 $403 #
ellipse-curve $-1 -45.351454406675934 -32.155884264650673 9.0332983779419642 0 -0.64278761758704617 0.76604443648966558 1.5 0 0 1 I I #
face $-1 $-1 $195 $27 $-1 $404 reversed single #
loop $-1 $-1 $298 $180 #
plane-surface $-1 0 34.722461149554178 0 0 -1 0 0 0 -1 forward_v I I I I #
coedge $-1 $405 $296 $299 $406 forward $181 $-1 #
coedge $-1 $302 $183 $184 $290 reversed $113 $-1 #
coedge $-1 $296 $405 $183 $288 reversed $181 $-1 #
edge $-1 $303 -11.18691214055997 $407 11.18691214055997 $287 $408 forward 7 unknown #
coedge $-1 $185 $184 $405 $409 forward $73 $-1 #
edge $-1 $294 -76.663716544083996 $407 76.663716544083996 $286 $410 forward 7 unknown #
coedge $-1 $299 $298 $185 $292 reversed $283 $-1 #
edge $-1 $411 -76.663716544083996 $293 76.663716544083996 $291 $412 forward 7 unknown #
vertex $-1 $187 $413 #
vertex $-1 $305 $414 #
straight-curve $-1 76.663716544083996 0 -11.18691214055997 0 -1 0 I I #
coedge $-1 $285 $287 $188 $297 reversed $181 $-1 #
edge $-1 $300 -34.722461149554178 $303 34.722461149554178 $296 $415 forward 7 unknown #
coedge $-1 $291 $189 $194 $306 forward $283 $-1 #
coedge $-1 $189 $291 $285 $406 reversed $283 $-1 #
vertex $-1 $190 $416 #
straight-curve $-1 0 34.722461149554178 11.18691214055997 -1 0 0 I I #
coedge $-1 $191 $286 $193 $305 reversed $113 $-1 #
vertex $-1 $297 $417 #
straight-curve $-1 0 -34.722461149554178 11.18691214055997 1 0 0 I I #
edge $-1 $196 -11.18691214055997 $294 11.18691214055997 $193 $418 forward 7 unknown #
edge $-1 $197 -11.18691214055997 $293 11.18691214055997 $194 $419 forward 7 unknown #
point $-1 76.663716544083996 -34.722461149554178 11.18691214055997 #
point $-1 76.663716544083996 34.722461149554178 11.18691214055997 #
face $-1 $-1 $318 $28 $-1 $420 reversed single #
loop $-1 $-1 $315 $199 #
plane-surface $-1 0 0 11.18691214055997 0 0 1 1 0 0 forward_v I I I I #
coedge $-1 $421 $422 $206 $321 forward $200 $-1 #
coedge $-1 $202 $325 $423 $424 reversed $121 $-1 #
edge $-1 $425 -7.0385502919955885 $212 -1.2581734051331717 $202 $426 forward 7 unknown #
coedge $-1 $423 $427 $203 $316 forward $310 $-1 #
edge $-1 $319 -34.722461149554178 $425 34.722461149554178 $315 $428 forward 7 unknown #
coedge $-1 $322 $204 $427 $429 reversed $318 $-1 #
loop $-1 $-1 $204 $309 #
vertex $-1 $205 $430 #
straight-curve $-1 -64.127300975296862 -34.722461149554178 4.1483618485643801 0 0 1 I I #
edge $-1 $326 -34.722461149554178 $323 34.722461149554178 $312 $431 forward 7 unknown #
coedge $-1 $207 $317 $421 $432 forward $318 $-1 #
vertex $-1 $321 $433 #
straight-curve $-1 -35.197754379845215 -34.722461149554178 5.4065352536975517 1 0 0 I I #
coedge $-1 $313 $209 $422 $434 reversed $121 $-1 #
vertex $-1 $321 $435 #
straight-curve $-1 -35.197754379845215 34.722461149554178 5.4065352536975517 -1 0 0 I I #
point $-1 -64.127300975296862 34.722461149554178 5.4065352536975517 #
point $-1 -64.127300975296862 -34.722461149554178 5.4065352536975517 #
face $-1 $-1 $230 $29 $-1 $436 reversed single #
loop $-1 $-1 $221 $215 #
plane-surface $-1 0 34.722461149554178 0 0 -1 0 0 0 -1 forward_v I I I I #
coedge $-1 $224 $437 $337 $438 forward $216 $-1 #
coedge $-1 $439 $218 $437 $440 forward $129 $-1 #
coedge $-1 $218 $439 $339 $441 forward $129 $-1 #
edge $-1 $341 -34.722461149554178 $442 34.722461149554178 $218 $443 forward 7 unknown #
coedge $-1 $220 $219 $333 $438 reversed $81 $-1 #
edge $-1 $344 -34.722461149554178 $340 34.722461149554178 $219 $444 forward 7 unknown #
coedge $-1 $346 $221 $335 $441 reversed $331 $-1 #
vertex $-1 $227 $445 #
vertex $-1 $222 $446 #
straight-curve $-1 64.127300975296876 34.722461149554178 4.1483618485643801 0 0 1 I I #
coedge $-1 $437 $224 $229 $350 reversed $216 $-1 #
vertex $-1 $225 $447 #
straight-curve $-1 35.197754379845222 -34.722461149554178 5.4065352536975517 1 0 0 I I #
coedge $-1 $226 $339 $228 $349 forward $331 $-1 #
straight-curve $-1 35.197754379845222 34.722461149554178 5.4065352536975517 -1 0 0 I I #
coedge $-1 $229 $228 $439 $448 reversed $230 $-1 #
edge $-1 $449 -11.18691214055997 $232 -5.4065352536975517 $228 $450 forward 7 unknown #
edge $-1 $451 -11.18691214055997 $231 -5.4065352536975517 $229 $452 forward 7 unknown #
point $-1 76.663716544084011 -34.722461149554178 5.4065352536975517 #
point $-1 76.663716544084011 34.722461149554178 5.4065352536975517 #
loop $-1 $-1 $243 $234 #
plane-surface $-1 -64.127300975296862 0 8.2967236971287601 -1 0 0 0 0 1 forward_v I I I I #
coedge $-1 $453 $237 $242 $361 forward $137 $-1 #
coedge $-1 $237 $453 $358 $454 reversed $137 $-1 #
edge $-1 $359 73.299911785398962 $366 77.607139310635006 $237 $455 forward 7 unknown #
coedge $-1 $246 $240 $356 $454 forward $235 $-1 #
vertex $-1 $454 $456 #
straight-curve $-1 -37.841115779227565 40.04077010267293 11.186912140559969 0 1 0 I I #
edge $-1 $366 12.349011590596461 $364 38.635196786665745 $355 $457 forward 7 unknown #
coedge $-1 $363 $243 $246 $368 reversed $353 $-1 #
coedge $-1 $243 $362 $453 $458 reversed $353 $-1 #
vertex $-1 $458 $459 #
straight-curve $-1 -64.127300975296862 -2.4133529418184416 38.040333175521233 0 -0.76604443648966558 0.64278761758704617 I I #
vertex $-1 $361 $460 #
straight-curve $-1 -37.841115779227565 -18.475435220134884 51.518020773485304 0 -0.76604443648966558 0.64278761758704617 I I #
edge $-1 $461 -34.722461149554178 $247 -29.589307379747147 $246 $462 forward 7 unknown #
point $-1 -64.127300975296848 29.589307379747147 11.186912140559969 #
point $-1 -37.841115779227565 29.589307379747147 11.186912140559969 #
edge $-1 $463 1 $463 0 $250 $-1 forward 7 unknown #
vertex $-1 $251 $464 #
ellipse-curve $-1 -56.616962347848485 29.670528393915408 6.0713666521556311 0 0.64278761758704617 0.76604443648966558 1.5 0 0 1 I I #
point $-1 -55.116962347848485 32.155884264650659 9.0332983779419376 #
edge $-1 $465 1 $465 0 $254 $-1 forward 7 unknown #
vertex $-1 $255 $466 #
ellipse-curve $-1 -45.351454406675934 29.670528393915408 6.0713666521556311 0 0.64278761758704617 0.76604443648966558 1.5 0 0 1 I I #
point $-1 -43.851454406675934 32.155884264650659 9.0332983779419376 #
plane-surface $-1 0 -34.722461149554178 0 0 1 0 0 0 1 forward_v I I I I #
coedge $-1 $467 $383 $266 $388 forward $259 $-1 #
coedge $-1 $382 $261 $269 $393 reversed $159 $-1 #
coedge $-1 $261 $381 $467 $468 reversed $159 $-1 #
coedge $-1 $380 $469 $263 $384 forward $259 $-1 #
edge $-1 $386 31.91725713796329 $391 37.050410907770285 $383 $470 forward 7 unknown #
coedge $-1 $269 $264 $469 $471 reversed $270 $-1 #
vertex $-1 $265 $472 #
straight-curve $-1 -37.841115779227565 -34.722461149554178 62.167655846878247 0 0 1 I I #
edge $-1 $391 12.349011590596461 $389 38.635196786665745 $380 $473 forward 7 unknown #
vertex $-1 $468 $474 #
straight-curve $-1 -64.127300975296862 -24.185595243026107 15.721165096440561 0 -0.76604443648966558 -0.64278761758704617 I I #
vertex $-1 $388 $475 #
straight-curve $-1 -37.841115779227565 -34.722461149554192 6.8796846153239386 0 -0.76604443648966558 -0.64278761758704617 I I #
edge $-1 $476 -7.0385502919955885 $271 -2.731322766759571 $269 $477 forward 7 unknown #
point $-1 -64.127300975296862 -34.722461149554178 6.879684615323951 #
point $-1 -37.841115779227565 -34.722461149554178 6.8796846153239501 #
edge $-1 $478 1 $478 0 $274 $-1 forward 7 unknown #
vertex $-1 $275 $479 #
ellipse-curve $-1 -56.616962347848485 -29.670528393915408 6.0713666521556346 0 -0.64278761758704617 0.76604443648966558 1.5 0 0 1 I I #
point $-1 -55.116962347848485 -32.155884264650659 9.0332983779419411 #
edge $-1 $480 1 $480 0 $278 $-1 forward 7 unknown #
vertex $-1 $279 $481 #
ellipse-curve $-1 -45.351454406675934 -29.670528393915408 6.0713666521556346 0 -0.64278761758704617 0.76604443648966558 1.5 0 0 1 I I #
point $-1 -43.851454406675934 -32.155884264650659 9.0332983779419411 #
plane-surface $-1 76.663716544083996 0 0 -1 0 0 0 0 1 forward_v I I I I #
coedge $-1 $287 $285 $289 $409 reversed $181 $-1 #
edge $-1 $300 -11.18691214055997 $411 11.18691214055997 $299 $482 forward 7 unknown #
vertex $-1 $409 $483 #
straight-curve $-1 -76.663716544083996 -34.722461149554178 0 0 0 -1 I I #
edge $-1 $407 -34.722461149554178 $411 34.722461149554178 $405 $484 forward 7 unknown #
straight-curve $-1 0 -34.722461149554178 -11.18691214055997 -1 0 0 I I #
vertex $-1 $292 $485 #
straight-curve $-1 0 34.722461149554178 -11.18691214055997 1 0 0 I I #
point $-1 76.663716544083996 34.722461149554178 -11.18691214055997 #
point $-1 76.663716544083996 -34.722461149554178 -11.18691214055997 #
straight-curve $-1 -76.663716544083996 0 11.18691214055997 0 -1 0 I I #
point $-1 -76.663716544083996 34.722461149554178 11.18691214055997 #
point $-1 -76.663716544083996 -34.722461149554178 11.18691214055997 #
straight-curve $-1 76.663716544083996 -34.722461149554178 0 0 0 -1 I I #
straight-curve $-1 76.663716544083996 34.722461149554178 0 0 0 -1 I I #
plane-surface $-1 0 -34.722461149554178 0 0 1 0 0 0 1 forward_v I I I I #
coedge $-1 $486 $312 $322 $432 reversed $200 $-1 #
coedge $-1 $312 $486 $325 $434 forward $200 $-1 #
coedge $-1 $487 $315 $313 $424 forward $310 $-1 #
edge $-1 $425 64.127300975296862 $488 76.663716544083996 $313 $489 forward 7 unknown #
vertex $-1 $424 $490 #
straight-curve $-1 -64.127300975296862 34.722461149554178 4.1483618485643801 0 0 -1 I I #
coedge $-1 $315 $487 $317 $429 forward $310 $-1 #
straight-curve $-1 -64.127300975296862 0 11.18691214055997 0 1 0 I I #
edge $-1 $491 -76.663716544083996 $319 -64.127300975296862 $317 $492 forward 7 unknown #
point $-1 -64.127300975296862 -34.722461149554178 11.186912140559969 #
straight-curve $-1 -76.663716544083996 0 5.4065352536975517 0 -1 0 I I #
edge $-1 $491 -11.18691214055997 $323 -5.4065352536975517 $421 $493 forward 7 unknown #
point $-1 -76.663716544083996 -34.722461149554178 5.4065352536975517 #
edge $-1 $488 -11.18691214055997 $326 -5.4065352536975517 $325 $494 forward 7 unknown #
point $-1 -76.663716544083996 34.722461149554178 5.4065352536975517 #
plane-surface $-1 76.663716544083996 0 0 -1 0 0 0 0 1 forward_v I I I I #
coedge $-1 $333 $343 $334 $440 reversed $216 $-1 #
edge $-1 $442 -7.0385502919955885 $344 -1.2581734051331717 $333 $495 forward 7 unknown #
coedge $-1 $335 $334 $348 $448 forward $129 $-1 #
edge $-1 $442 64.127300975296876 $451 76.663716544083996 $437 $496 forward 7 unknown #
edge $-1 $449 -76.663716544083996 $341 -64.127300975296876 $339 $497 forward 7 unknown #
vertex $-1 $440 $498 #
straight-curve $-1 64.127300975296876 0 11.18691214055997 0 -1 0 I I #
straight-curve $-1 64.127300975296876 0 5.4065352536975517 0 1 0 I I #
point $-1 64.127300975296876 34.722461149554178 5.4065352536975517 #
point $-1 64.127300975296876 34.722461149554178 11.186912140559969 #
point $-1 64.127300975296876 -34.722461149554178 5.4065352536975517 #
edge $-1 $451 -34.722461149554178 $449 34.722461149554178 $348 $499 forward 7 unknown #
vertex $-1 $448 $500 #
straight-curve $-1 76.663716544083996 34.722461149554178 0 0 0 -1 I I #
vertex $-1 $448 $501 #
straight-curve $-1 76.663716544083996 -34.722461149554178 0 0 0 -1 I I #
coedge $-1 $356 $355 $363 $458 forward $137 $-1 #
edge $-1 $359 37.841115779227565 $461 64.127300975296862 $356 $502 forward 7 unknown #
straight-curve $-1 -37.841115779227565 34.722461149554178 84.48682392595893 0 0 -1 I I #
point $-1 -37.841115779227565 34.722461149554178 11.18691214055997 #
straight-curve $-1 -25.492104188631103 34.722461149554178 6.8796846153239244 -1 0 0 I I #
edge $-1 $364 2.7313227667595372 $461 7.0385502919955885 $453 $503 forward 7 unknown #
point $-1 -64.127300975296848 34.722461149554178 6.8796846153239173 #
point $-1 -37.841115779227565 34.722461149554178 6.8796846153239173 #
vertex $-1 $368 $504 #
straight-curve $-1 -64.127300975296862 0 11.18691214055997 0 -1 0 I I #
vertex $-1 $371 $505 #
point $-1 -55.116962347848485 29.670528393915408 6.0713666521556311 #
vertex $-1 $375 $506 #
point $-1 -43.851454406675934 29.670528393915408 6.0713666521556311 #
coedge $-1 $469 $380 $382 $468 forward $259 $-1 #
edge $-1 $389 29.589307379747183 $476 34.722461149554178 $467 $507 forward 7 unknown #
coedge $-1 $383 $467 $385 $471 forward $259 $-1 #
straight-curve $-1 -37.841115779227565 -66.639718287517468 11.186912140559969 0 1 0 I I #
edge $-1 $476 -64.127300975296862 $386 -37.841115779227565 $385 $508 forward 7 unknown #
point $-1 -37.841115779227565 -34.722461149554178 11.18691214055997 #
straight-curve $-1 -25.492104188631103 -29.589307379747183 11.186912140559972 -1 0 0 I I #
point $-1 -64.127300975296848 -29.589307379747183 11.18691214055997 #
point $-1 -37.841115779227565 -29.589307379747183 11.18691214055997 #
vertex $-1 $471 $509 #
straight-curve $-1 -64.127300975296862 -34.722461149554178 4.1483618485643801 0 0 -1 I I #
vertex $-1 $396 $510 #
point $-1 -55.116962347848485 -29.670528393915408 6.0713666521556346 #
vertex $-1 $400 $511 #
point $-1 -43.851454406675934 -29.670528393915408 6.0713666521556346 #
straight-curve $-1 -76.663716544083996 34.722461149554178 0 0 0 -1 I I #
point $-1 -76.663716544083996 -34.722461149554178 -11.18691214055997 #
straight-curve $-1 -76.663716544083996 0 -11.18691214055997 0 1 0 I I #
point $-1 -76.663716544083996 34.722461149554178 -11.18691214055997 #
coedge $-1 $422 $421 $487 $512 reversed $200 $-1 #
coedge $-1 $427 $423 $486 $512 forward $310 $-1 #
vertex $-1 $424 $513 #
straight-curve $-1 0 34.722461149554178 11.18691214055997 -1 0 0 I I #
point $-1 -64.127300975296862 34.722461149554178 11.186912140559969 #
vertex $-1 $512 $514 #
straight-curve $-1 0 -34.722461149554178 11.18691214055997 1 0 0 I I #
straight-curve $-1 -76.663716544083996 -34.722461149554178 0 0 0 -1 I I #
straight-curve $-1 -76.663716544083996 34.722461149554178 0 0 0 -1 I I #
straight-curve $-1 64.127300975296876 -34.722461149554178 4.1483618485643801 0 0 -1 I I #
straight-curve $-1 0 -34.722461149554178 11.18691214055997 1 0 0 I I #
straight-curve $-1 0 34.722461149554178 11.18691214055997 -1 0 0 I I #
point $-1 64.127300975296876 -34.722461149554178 11.186912140559969 #
straight-curve $-1 76.663716544083996 0 11.18691214055997 0 1 0 I I #
point $-1 76.663716544083996 34.722461149554178 11.18691214055997 #
point $-1 76.663716544083996 -34.722461149554178 11.18691214055997 #
straight-curve $-1 0 34.722461149554178 11.18691214055997 -1 0 0 I I #
straight-curve $-1 -64.127300975296862 34.722461149554178 4.1483618485643801 0 0 1 I I #
point $-1 -64.127300975296862 34.722461149554178 11.186912140559969 #
point $-1 -56.616962347848485 28.706346967534838 4.9222999974211321 #
point $-1 -45.351454406675934 28.706346967534838 4.9222999974211321 #
straight-curve $-1 -64.127300975296862 0 11.18691214055997 0 -1 0 I I #
straight-curve $-1 0 -34.722461149554178 11.18691214055997 1 0 0 I I #
point $-1 -64.127300975296862 -34.722461149554178 11.186912140559969 #
point $-1 -56.616962347848485 -28.706346967534838 4.9222999974211357 #
point $-1 -45.351454406675934 -28.706346967534838 4.9222999974211357 #
edge $-1 $488 -34.722461149554178 $491 34.722461149554178 $486 $515 forward 7 unknown #
point $-1 -76.663716544083996 34.722461149554178 11.18691214055997 #
point $-1 -76.663716544083996 -34.722461149554178 11.18691214055997 #
straight-curve $-1 -76.663716544083996 0 11.18691214055997 0 -1 0 I I #
End-of-ACIS-data 