500 0 7 0           
7 Unknown 11 ACIS 5.0 NT 24 Thu Mar 25 22:07:08 1999 
-1 9.9999999999999995e-007 1e-010 
body $-1 $7 $-1 $8 #
body $-1 $9 $-1 $10 #
body $-1 $11 $-1 $12 #
body $-1 $13 $-1 $14 #
body $-1 $15 $-1 $16 #
body $-1 $17 $-1 $18 #
body $-1 $19 $-1 $20 #
lump $-1 $-1 $21 $0 #
transform $-1 1 0 0 0 1 0 0 0 1 72.570574053163242 42.59044670772272 20.451395172988725 1 rotate no_reflect no_shear #
lump $-1 $-1 $22 $1 #
transform $-1 1 0 0 0 1 0 0 0 1 72.570574053163242 42.59044670772272 20.451395172988725 1 rotate no_reflect no_shear #
lump $-1 $-1 $23 $2 #
transform $-1 1 0 0 0 1 0 0 0 1 72.570574053163242 42.59044670772272 20.451395172988725 1 rotate no_reflect no_shear #
lump $-1 $-1 $24 $3 #
transform $-1 1 0 0 0 1 0 0 0 1 72.570574053163242 42.59044670772272 20.451395172988725 1 rotate no_reflect no_shear #
lump $-1 $-1 $25 $4 #
transform $-1 1 0 0 0 1 0 0 0 1 72.570574053163242 42.59044670772272 20.451395172988725 1 rotate no_reflect no_shear #
lump $-1 $-1 $26 $5 #
transform $-1 1 0 0 0 1 0 0 0 1 72.570574053163242 42.59044670772272 20.451395172988725 1 rotate no_reflect no_shear #
lump $-1 $-1 $27 $6 #
transform $-1 1 0 0 0 1 0 0 0 1 72.570574053163242 42.59044670772272 20.451395172988725 1 rotate no_reflect no_shear #
shell $-1 $-1 $-1 $28 $-1 $7 #
shell $-1 $-1 $-1 $29 $-1 $9 #
shell $-1 $-1 $-1 $30 $-1 $11 #
shell $-1 $-1 $-1 $31 $-1 $13 #
shell $-1 $-1 $-1 $32 $-1 $15 #
shell $-1 $-1 $-1 $33 $-1 $17 #
shell $-1 $-1 $-1 $34 $-1 $19 #
face $-1 $35 $36 $21 $-1 $37 reversed single #
face $-1 $38 $39 $22 $-1 $40 forward single #
face $-1 $41 $42 $23 $-1 $43 forward single #
face $-1 $44 $45 $24 $-1 $46 reversed single #
face $-1 $47 $48 $25 $-1 $49 forward single #
face $-1 $50 $51 $26 $-1 $52 reversed single #
face $-1 $53 $54 $27 $-1 $55 forward single #
face $-1 $56 $57 $21 $-1 $58 forward single #
loop $-1 $-1 $59 $28 #
plane-surface $-1 -72.570574053163242 0 0 1 0 0 0 0 -1 forward_v I I I I #
face $-1 $60 $61 $22 $-1 $62 reversed single #
loop $-1 $-1 $63 $29 #
plane-surface $-1 -72.570574053163242 0 0 1 0 0 0 0 -1 forward_v I I I I #
face $-1 $64 $65 $23 $-1 $66 reversed single #
loop $-1 $-1 $67 $30 #
plane-surface $-1 60.678999325445531 0 -7.8350486224292277 0 0 1 1 0 0 forward_v I I I I #
face $-1 $68 $69 $24 $-1 $70 reversed single #
loop $-1 $-1 $71 $31 #
plane-surface $-1 10.518922001463487 -131.94826120191496 124.62888120949927 -1 0 0 0 -0.61566148304635926 0.78801074757464917 forward_v I I I I #
face $-1 $72 $73 $25 $-1 $74 forward single #
loop $-1 $75 $76 $32 #
cone-surface $-1 2.8046063085648285 -34.543443977037697 13.405278861675988 0 0.61566148304635926 -0.78801074757464917 1.5 0 0 1 I I 0 1 1.5 forward I I I I #
face $-1 $77 $78 $26 $-1 $79 reversed single #
loop $-1 $-1 $80 $33 #
plane-surface $-1 36.420088568862788 107.24218233479669 166.83529487466467 1 0 0 0 -0.79863551827123203 -0.60181501223851219 forward_v I I I I #
face $-1 $81 $82 $27 $-1 $83 forward single #
loop $-1 $84 $85 $34 #
cone-surface $-1 42.603756583295308 37.245132921422176 14.480284376579593 0 -0.79863551827123203 -0.60181501223851219 2 0 0 1 I I 0 1 2 forward I I I I #
face $-1 $86 $87 $21 $-1 $88 reversed single #
loop $-1 $-1 $89 $35 #
plane-surface $-1 0 0 20.451395172988725 0 0 1 1 0 0 forward_v I I I I #
coedge $-1 $90 $91 $92 $93 reversed $36 $-1 #
face $-1 $94 $95 $22 $-1 $96 reversed single #
loop $-1 $-1 $97 $38 #
plane-surface $-1 0 0 -20.451395172988725 0 0 1 1 0 0 forward_v I I I I #
coedge $-1 $98 $99 $100 $101 forward $39 $-1 #
face $-1 $102 $103 $23 $-1 $104 reversed single #
loop $-1 $-1 $105 $41 #
plane-surface $-1 60.678999325445531 0 -18.597948754942188 0 0 1 1 0 0 forward_v I I I I #
coedge $-1 $106 $107 $108 $109 reversed $42 $-1 #
face $-1 $110 $111 $24 $-1 $112 reversed single #
loop $-1 $-1 $113 $44 #
plane-surface $-1 2.8046063085648285 -42.59044670772272 10.256096586390058 0 -0.61566148304635926 0.78801074757464917 1 0 0 forward_v I I I I #
coedge $-1 $114 $115 $116 $117 reversed $45 $-1 #
face $-1 $-1 $118 $25 $-1 $119 forward single #
loop $-1 $120 $121 $47 #
cone-surface $-1 2.8046063085648285 -32.559388559113131 10.865803782981583 0 0.61566148304635926 -0.78801074757464917 0.75 0 0 1 I I -0.70710678118654757 0.70710678118654757 0.75 forward I I I I #
loop $-1 $-1 $122 $32 #
coedge $-1 $76 $76 $123 $124 reversed $48 $-1 #
face $-1 $125 $126 $26 $-1 $127 reversed single #
loop $-1 $-1 $128 $50 #
plane-surface $-1 42.603756583295294 -8.6726937055809969 79.48717305074409 0 0.79863551827123203 0.60181501223851219 1 0 0 forward_v I I I I #
coedge $-1 $129 $130 $131 $132 reversed $51 $-1 #
face $-1 $-1 $133 $27 $-1 $134 forward single #
loop $-1 $135 $136 $53 #
cone-surface $-1 42.603756583295308 34.489429695545525 12.403713108879685 0 -0.79863551827123203 -0.60181501223851219 1 0 0 1 I I -0.70710678118654746 0.70710678118654746 1 forward I I I I #
loop $-1 $-1 $137 $34 #
coedge $-1 $85 $85 $138 $139 reversed $54 $-1 #
face $-1 $140 $141 $21 $-1 $142 reversed single #
loop $-1 $-1 $143 $56 #
plane-surface $-1 0 0 -20.451395172988725 0 0 1 1 0 0 forward_v I I I I #
coedge $-1 $144 $145 $146 $147 forward $57 $-1 #
coedge $-1 $148 $59 $149 $150 reversed $36 $-1 #
coedge $-1 $59 $148 $151 $152 forward $36 $-1 #
coedge $-1 $153 $154 $59 $93 forward $87 $-1 #
edge $-1 $155 -42.59044670772272 $156 42.59044670772272 $59 $157 forward 7 unknown #
face $-1 $158 $159 $22 $-1 $160 reversed single #
loop $-1 $-1 $161 $60 #
plane-surface $-1 -84.555658349191063 -25.350519934426529 0 0 1 0 0 0 1 forward_v I I I I #
coedge $-1 $162 $163 $99 $164 forward $61 $-1 #
coedge $-1 $165 $63 $166 $167 reversed $39 $-1 #
coedge $-1 $63 $165 $97 $164 reversed $39 $-1 #
coedge $-1 $168 $169 $63 $101 reversed $170 $-1 #
edge $-1 $171 -20.451395172988725 $172 20.451395172988725 $100 $173 forward 7 unknown #
face $-1 $174 $175 $23 $-1 $176 reversed single #
loop $-1 $-1 $177 $64 #
plane-surface $-1 48.787424597727814 0 -13.216498688685707 1 0 0 0 0 -1 forward_v I I I I #
coedge $-1 $178 $179 $180 $181 reversed $65 $-1 #
coedge $-1 $182 $67 $183 $184 reversed $42 $-1 #
coedge $-1 $67 $182 $185 $186 reversed $42 $-1 #
coedge $-1 $187 $188 $67 $109 forward $175 $-1 #
edge $-1 $189 -42.59044670772272 $190 42.59044670772272 $108 $191 forward 7 unknown #
face $-1 $192 $193 $24 $-1 $194 forward single #
loop $-1 $-1 $195 $68 #
plane-surface $-1 -4.90970938433383 -131.94826120191496 124.62888120949927 1 0 0 0 0.61566148304635926 -0.78801074757464917 forward_v I I I I #
coedge $-1 $196 $197 $198 $199 reversed $69 $-1 #
coedge $-1 $115 $71 $200 $201 reversed $45 $-1 #
coedge $-1 $71 $114 $196 $202 reversed $45 $-1 #
coedge $-1 $198 $203 $71 $117 forward $193 $-1 #
edge $-1 $204 23.38368389323476 $205 36.433070743325267 $116 $206 forward 7 unknown #
loop $-1 $-1 $123 $72 #
plane-surface $-1 2.8046063085648285 -42.59044670772272 10.256096586390058 0 -0.61566148304635926 0.78801074757464917 1 0 0 forward_v I I I I #
loop $-1 $-1 $207 $47 #
coedge $-1 $121 $121 $122 $208 reversed $73 $-1 #
coedge $-1 $122 $122 $121 $208 forward $75 $-1 #
coedge $-1 $123 $123 $76 $124 forward $118 $-1 #
edge $-1 $209 4.2872174826074582e-015 $209 6.2831853071796049 $123 $210 forward 7 unknown #
face $-1 $211 $212 $26 $-1 $213 reversed single #
loop $-1 $-1 $214 $77 #
plane-surface $-1 48.787424597727799 107.24218233479669 166.83529487466467 -1 0 0 0 0.79863551827123203 0.60181501223851219 forward_v I I I I #
coedge $-1 $215 $216 $217 $218 reversed $78 $-1 #
coedge $-1 $130 $80 $219 $220 reversed $51 $-1 #
coedge $-1 $80 $129 $215 $221 reversed $51 $-1 #
coedge $-1 $217 $222 $80 $132 forward $223 $-1 #
edge $-1 $224 11.030644459675628 $225 17.8071366170659 $131 $226 forward 7 unknown #
loop $-1 $-1 $138 $81 #
plane-surface $-1 42.603756583295294 -8.6726937055809969 79.48717305074409 0 0.79863551827123203 0.60181501223851219 1 0 0 forward_v I I I I #
loop $-1 $-1 $227 $53 #
coedge $-1 $136 $136 $137 $228 reversed $82 $-1 #
coedge $-1 $137 $137 $136 $228 forward $84 $-1 #
coedge $-1 $138 $138 $85 $139 forward $133 $-1 #
edge $-1 $229 2.1582442830545595e-015 $229 6.2831853071796022 $138 $230 forward 7 unknown #
face $-1 $231 $232 $21 $-1 $233 reversed single #
loop $-1 $-1 $149 $86 #
plane-surface $-1 0 -42.59044670772272 0 0 1 0 0 0 1 forward_v I I I I #
coedge $-1 $154 $153 $234 $235 forward $87 $-1 #
coedge $-1 $236 $89 $237 $238 forward $57 $-1 #
coedge $-1 $89 $236 $239 $240 forward $57 $-1 #
coedge $-1 $241 $242 $89 $147 reversed $243 $-1 #
edge $-1 $244 -42.59044670772272 $245 42.59044670772272 $146 $246 forward 7 unknown #
coedge $-1 $91 $90 $236 $247 reversed $36 $-1 #
coedge $-1 $248 $239 $90 $150 forward $141 $-1 #
edge $-1 $249 -20.451395172988725 $155 20.451395172988725 $90 $250 forward 7 unknown #
coedge $-1 $237 $251 $91 $152 reversed $232 $-1 #
edge $-1 $252 -20.451395172988725 $156 20.451395172988725 $151 $253 forward 7 unknown #
coedge $-1 $143 $92 $251 $254 forward $87 $-1 #
coedge $-1 $92 $143 $248 $255 forward $87 $-1 #
vertex $-1 $93 $256 #
vertex $-1 $254 $257 #
straight-curve $-1 -72.570574053163242 0 -20.451395172988725 0 1 0 I I #
face $-1 $258 $170 $22 $-1 $259 reversed single #
loop $-1 $-1 $260 $94 #
plane-surface $-1 -96.540742645218884 -21.842756452517477 0 1 0 0 0 0 -1 forward_v I I I I #
coedge $-1 $261 $262 $263 $264 forward $95 $-1 #
coedge $-1 $265 $97 $261 $266 forward $61 $-1 #
coedge $-1 $97 $265 $168 $267 forward $61 $-1 #
edge $-1 $171 18.334992970608425 $268 25.350519934426529 $97 $269 forward 7 unknown #
coedge $-1 $99 $98 $270 $271 forward $39 $-1 #
coedge $-1 $272 $273 $98 $167 forward $274 $-1 #
edge $-1 $275 -25.350519934426529 $172 -18.334992970608425 $166 $276 forward 7 unknown #
coedge $-1 $277 $100 $163 $267 reversed $170 $-1 #
coedge $-1 $100 $277 $272 $278 reversed $170 $-1 #
loop $-1 $-1 $100 $158 #
vertex $-1 $164 $279 #
vertex $-1 $278 $280 #
straight-curve $-1 -72.570574053163242 -18.334992970608425 0 0 0 1 I I #
face $-1 $281 $282 $23 $-1 $283 reversed single #
loop $-1 $-1 $180 $102 #
plane-surface $-1 72.570574053163242 0 0 -1 0 0 0 0 1 forward_v I I I I #
coedge $-1 $284 $285 $286 $287 reversed $103 $-1 #
coedge $-1 $288 $105 $289 $290 reversed $65 $-1 #
coedge $-1 $105 $288 $291 $292 reversed $65 $-1 #
coedge $-1 $188 $187 $105 $181 forward $175 $-1 #
edge $-1 $293 -42.59044670772272 $294 42.59044670772272 $180 $295 forward 7 unknown #
coedge $-1 $107 $106 $285 $296 forward $42 $-1 #
coedge $-1 $297 $286 $106 $184 forward $282 $-1 #
edge $-1 $298 18.447924935005048 $189 42.23107439044049 $183 $299 forward 7 unknown #
coedge $-1 $300 $301 $107 $186 forward $302 $-1 #
edge $-1 $190 -42.23107439044049 $303 -18.447924935005048 $185 $304 forward 7 unknown #
coedge $-1 $180 $108 $301 $305 forward $175 $-1 #
coedge $-1 $108 $180 $297 $306 reversed $175 $-1 #
vertex $-1 $306 $307 #
vertex $-1 $305 $308 #
straight-curve $-1 72.570574053163242 0 -7.8350486224292277 0 -1 0 I I #
face $-1 $-1 $309 $24 $-1 $310 reversed single #
loop $-1 $-1 $116 $110 #
plane-surface $-1 0 0 20.451395172988725 0 0 1 1 0 0 forward_v I I I I #
coedge $-1 $311 $312 $313 $314 reversed $111 $-1 #
coedge $-1 $315 $113 $115 $202 forward $69 $-1 #
coedge $-1 $113 $315 $311 $316 forward $69 $-1 #
coedge $-1 $313 $116 $113 $199 forward $193 $-1 #
edge $-1 $205 -9.1166188471810727 $317 6.3120125386162442 $198 $318 forward 7 unknown #
coedge $-1 $319 $320 $114 $201 forward $309 $-1 #
edge $-1 $321 -52.058344018359577 $204 -41.863045431760909 $200 $322 forward 7 unknown #
edge $-1 $205 -16.559909735056401 $321 0 $115 $323 forward 7 unknown #
coedge $-1 $116 $313 $319 $324 forward $193 $-1 #
vertex $-1 $201 $325 #
vertex $-1 $117 $326 #
straight-curve $-1 10.518922001463487 -65.97413060095748 20.451395172988725 0 1 0 I I #
coedge $-1 $207 $207 $-1 $327 reversed $120 $-1 #
edge $-1 $328 0 $328 6.2831853071796004 $121 $329 forward 7 unknown #
vertex $-1 $124 $330 #
ellipse-curve $-1 2.8046063085648285 -36.065753282677477 15.353745879689386 0 -0.61566148304635926 0.78801074757464917 1.5 0 0 1 I I #
face $-1 $-1 $223 $26 $-1 $331 forward single #
loop $-1 $-1 $332 $125 #
plane-surface $-1 0 42.59044670772272 0 0 -1 0 0 0 -1 forward_v I I I I #
coedge $-1 $333 $334 $335 $336 reversed $126 $-1 #
coedge $-1 $337 $128 $130 $221 forward $78 $-1 #
coedge $-1 $128 $337 $333 $338 forward $78 $-1 #
coedge $-1 $335 $131 $128 $218 forward $223 $-1 #
edge $-1 $225 15.118210277215141 $339 27.485546306080153 $217 $340 forward 7 unknown #
coedge $-1 $341 $342 $129 $220 forward $212 $-1 #
edge $-1 $343 -71.958961346239107 $224 -62.966252264343609 $219 $344 forward 7 unknown #
edge $-1 $225 73.920801826529427 $343 85.180893415445468 $130 $345 forward 7 unknown #
coedge $-1 $131 $335 $341 $346 forward $223 $-1 #
loop $-1 $-1 $335 $211 #
vertex $-1 $220 $347 #
vertex $-1 $132 $348 #
straight-curve $-1 36.420088568862788 53.621091167398347 20.451395172988725 0 -1 0 I I #
coedge $-1 $227 $227 $-1 $349 reversed $135 $-1 #
edge $-1 $350 0 $350 6.2831853071796004 $136 $351 forward 7 unknown #
vertex $-1 $139 $352 #
ellipse-curve $-1 42.603756583295308 39.20220062902758 15.955040632040978 0 0.79863551827123203 0.60181501223851219 2 0 0 1 I I #
face $-1 $-1 $243 $21 $-1 $353 reversed single #
loop $-1 $-1 $354 $140 #
plane-surface $-1 0 42.59044670772272 0 0 -1 0 0 0 -1 forward_v I I I I #
coedge $-1 $242 $241 $143 $235 reversed $243 $-1 #
edge $-1 $355 -42.59044670772272 $356 42.59044670772272 $234 $357 forward 7 unknown #
coedge $-1 $145 $144 $148 $247 forward $57 $-1 #
coedge $-1 $354 $151 $144 $238 reversed $232 $-1 #
edge $-1 $245 -72.570574053163242 $252 72.570574053163242 $237 $358 forward 7 unknown #
coedge $-1 $149 $359 $145 $240 reversed $141 $-1 #
edge $-1 $249 -72.570574053163242 $244 72.570574053163242 $239 $360 forward 7 unknown #
coedge $-1 $234 $146 $359 $361 forward $243 $-1 #
coedge $-1 $146 $234 $354 $362 reversed $243 $-1 #
loop $-1 $-1 $241 $231 #
vertex $-1 $147 $363 #
vertex $-1 $147 $364 #
straight-curve $-1 72.570574053163242 0 20.451395172988725 0 1 0 I I #
edge $-1 $252 -42.59044670772272 $249 42.59044670772272 $148 $365 forward 7 unknown #
coedge $-1 $359 $149 $154 $255 reversed $141 $-1 #
vertex $-1 $247 $366 #
straight-curve $-1 -72.570574053163242 -42.59044670772272 0 0 0 -1 I I #
coedge $-1 $151 $354 $153 $254 reversed $232 $-1 #
vertex $-1 $238 $367 #
straight-curve $-1 -72.570574053163242 42.59044670772272 0 0 0 -1 I I #
edge $-1 $156 -72.570574053163242 $355 72.570574053163242 $251 $368 forward 7 unknown #
edge $-1 $356 -72.570574053163242 $155 72.570574053163242 $248 $369 forward 7 unknown #
point $-1 -72.570574053163242 -42.59044670772272 -20.451395172988725 #
point $-1 -72.570574053163242 42.59044670772272 -20.451395172988725 #
face $-1 $-1 $274 $22 $-1 $370 forward single #
plane-surface $-1 -84.555658349191063 -18.334992970608425 0 0 -1 0 0 0 -1 forward_v I I I I #
coedge $-1 $371 $372 $277 $373 forward $159 $-1 #
coedge $-1 $270 $161 $162 $266 reversed $95 $-1 #
coedge $-1 $161 $270 $273 $374 reversed $95 $-1 #
coedge $-1 $372 $371 $161 $264 reversed $159 $-1 #
edge $-1 $375 -20.451395172988725 $376 20.451395172988725 $263 $377 forward 7 unknown #
coedge $-1 $163 $162 $371 $378 forward $61 $-1 #
edge $-1 $268 -11.985084296027821 $376 11.985084296027821 $261 $379 forward 7 unknown #
edge $-1 $380 -11.985084296027821 $171 11.985084296027821 $168 $381 forward 7 unknown #
vertex $-1 $266 $382 #
straight-curve $-1 -72.570574053163242 0 -20.451395172988725 0 -1 0 I I #
coedge $-1 $262 $261 $165 $271 reversed $95 $-1 #
edge $-1 $275 -20.451395172988725 $268 20.451395172988725 $270 $383 forward 7 unknown #
coedge $-1 $384 $166 $169 $278 forward $274 $-1 #
coedge $-1 $166 $384 $262 $374 forward $274 $-1 #
loop $-1 $-1 $166 $258 #
vertex $-1 $167 $385 #
straight-curve $-1 -72.570574053163242 0 20.451395172988725 0 1 0 I I #
coedge $-1 $169 $168 $260 $373 reversed $170 $-1 #
edge $-1 $172 -11.985084296027821 $386 11.985084296027821 $169 $387 forward 7 unknown #
point $-1 -72.570574053163242 -18.334992970608425 -20.451395172988725 #
point $-1 -72.570574053163242 -18.334992970608425 20.451395172988725 #
face $-1 $-1 $302 $23 $-1 $388 reversed single #
loop $-1 $-1 $291 $174 #
plane-surface $-1 0 42.59044670772272 0 0 -1 0 0 0 -1 forward_v I I I I #
coedge $-1 $389 $177 $288 $390 reversed $103 $-1 #
coedge $-1 $177 $389 $182 $296 reversed $103 $-1 #
coedge $-1 $183 $291 $177 $287 forward $282 $-1 #
edge $-1 $391 -11.989699410599334 $298 -1.2267992780863741 $286 $392 forward 7 unknown #
coedge $-1 $179 $178 $284 $390 forward $65 $-1 #
coedge $-1 $301 $300 $178 $290 forward $302 $-1 #
edge $-1 $393 18.447924935005048 $293 42.23107439044049 $289 $394 forward 7 unknown #
coedge $-1 $286 $297 $179 $292 forward $282 $-1 #
edge $-1 $294 -42.23107439044049 $391 -18.447924935005048 $291 $395 forward 7 unknown #
vertex $-1 $181 $396 #
vertex $-1 $181 $397 #
straight-curve $-1 72.570574053163242 0 -18.597948754942188 0 1 0 I I #
edge $-1 $298 -42.59044670772272 $303 42.59044670772272 $285 $398 forward 7 unknown #
coedge $-1 $291 $183 $188 $306 forward $282 $-1 #
vertex $-1 $184 $399 #
straight-curve $-1 30.339499662722766 42.59044670772272 -7.8350486224292277 1 0 0 I I #
coedge $-1 $289 $185 $389 $400 forward $302 $-1 #
coedge $-1 $185 $289 $187 $305 reversed $302 $-1 #
loop $-1 $-1 $289 $281 #
vertex $-1 $186 $401 #
straight-curve $-1 30.339499662722766 -42.59044670772272 -7.8350486224292277 -1 0 0 I I #
edge $-1 $190 7.8350486224292277 $293 18.597948754942188 $187 $402 forward 7 unknown #
edge $-1 $189 7.8350486224292277 $294 18.597948754942188 $188 $403 forward 7 unknown #
point $-1 72.570574053163256 42.59044670772272 -7.8350486224292277 #
point $-1 72.570574053163256 -42.59044670772272 -7.8350486224292277 #
loop $-1 $-1 $200 $192 #
plane-surface $-1 0 -42.59044670772272 0 0 1 0 0 0 1 forward_v I I I I #
coedge $-1 $312 $195 $197 $316 reversed $111 $-1 #
coedge $-1 $195 $311 $404 $405 reversed $111 $-1 #
coedge $-1 $203 $198 $195 $314 forward $193 $-1 #
edge $-1 $317 -36.433070743325267 $406 -23.38368389323476 $313 $407 forward 7 unknown #
coedge $-1 $197 $196 $320 $408 reversed $69 $-1 #
edge $-1 $409 0 $317 16.559909735056401 $311 $410 forward 7 unknown #
vertex $-1 $199 $411 #
straight-curve $-1 1.4023031542824143 -29.541059857632209 20.451395172988725 -1 0 0 I I #
coedge $-1 $404 $200 $203 $324 reversed $309 $-1 #
coedge $-1 $200 $404 $315 $408 forward $309 $-1 #
vertex $-1 $201 $412 #
straight-curve $-1 10.518922001463487 -42.59044670772272 62.314440604749635 0 0 1 I I #
straight-curve $-1 10.518922001463487 -42.59044670772272 10.256096586390058 0 -0.78801074757464917 -0.61566148304635926 I I #
edge $-1 $406 -4.90970938433383 $204 10.518922001463487 $319 $413 forward 7 unknown #
point $-1 10.518922001463487 -42.59044670772272 20.451395172988725 #
point $-1 10.518922001463487 -29.541059857632213 20.451395172988725 #
edge $-1 $414 1 $414 0 $207 $-1 forward 7 unknown #
vertex $-1 $208 $415 #
ellipse-curve $-1 2.8046063085648285 -33.021134671397903 11.456811843662571 0 -0.61566148304635926 0.78801074757464917 1.5 0 0 1 I I #
point $-1 4.3046063085648285 -36.065753282677484 15.353745879689406 #
plane-surface $-1 0 0 20.451395172988725 0 0 1 1 0 0 forward_v I I I I #
coedge $-1 $342 $341 $334 $416 forward $212 $-1 #
coedge $-1 $334 $214 $216 $338 reversed $126 $-1 #
coedge $-1 $214 $333 $332 $416 reversed $126 $-1 #
coedge $-1 $222 $217 $214 $336 forward $223 $-1 #
edge $-1 $339 -17.8071366170659 $417 -11.030644459675628 $335 $418 forward 7 unknown #
coedge $-1 $216 $215 $342 $419 reversed $78 $-1 #
edge $-1 $420 -85.180893415445468 $339 -73.920801826529427 $333 $421 forward 7 unknown #
vertex $-1 $218 $422 #
straight-curve $-1 21.301878291647647 35.813954550332447 20.451395172988725 1 0 0 I I #
coedge $-1 $332 $219 $222 $346 reversed $212 $-1 #
coedge $-1 $219 $332 $337 $419 forward $212 $-1 #
vertex $-1 $220 $423 #
straight-curve $-1 36.420088568862788 42.59044670772272 83.417647437332334 0 0 1 I I #
straight-curve $-1 36.420088568862788 -8.6726937055809969 79.48717305074409 0 0.60181501223851219 -0.79863551827123203 I I #
edge $-1 $417 -48.787424597727799 $224 -36.420088568862788 $341 $424 forward 7 unknown #
point $-1 36.420088568862788 42.59044670772272 20.451395172988725 #
point $-1 36.420088568862788 35.813954550332447 20.451395172988725 #
edge $-1 $425 1 $425 0 $227 $-1 forward 7 unknown #
vertex $-1 $228 $426 #
ellipse-curve $-1 42.603756583295308 35.288065213816758 13.005528121118198 0 0.79863551827123203 0.60181501223851219 2 0 0 1 I I #
point $-1 44.603756583295308 39.202200629027601 15.955040632040989 #
plane-surface $-1 72.570574053163242 0 0 -1 0 0 0 0 1 forward_v I I I I #
coedge $-1 $251 $237 $242 $362 forward $232 $-1 #
vertex $-1 $235 $427 #
vertex $-1 $361 $428 #
straight-curve $-1 72.570574053163242 0 -20.451395172988725 0 -1 0 I I #
straight-curve $-1 0 42.59044670772272 20.451395172988725 -1 0 0 I I #
coedge $-1 $239 $248 $241 $361 reversed $141 $-1 #
straight-curve $-1 0 -42.59044670772272 20.451395172988725 1 0 0 I I #
edge $-1 $244 -20.451395172988725 $356 20.451395172988725 $241 $429 forward 7 unknown #
edge $-1 $245 -20.451395172988725 $355 20.451395172988725 $242 $430 forward 7 unknown #
point $-1 72.570574053163242 -42.59044670772272 20.451395172988725 #
point $-1 72.570574053163242 42.59044670772272 20.451395172988725 #
straight-curve $-1 -72.570574053163242 0 20.451395172988725 0 -1 0 I I #
point $-1 -72.570574053163242 -42.59044670772272 20.451395172988725 #
point $-1 -72.570574053163242 42.59044670772272 20.451395172988725 #
straight-curve $-1 0 42.59044670772272 -20.451395172988725 1 0 0 I I #
straight-curve $-1 0 -42.59044670772272 -20.451395172988725 -1 0 0 I I #
plane-surface $-1 0 0 20.451395172988725 0 0 1 1 0 0 forward_v I I I I #
coedge $-1 $263 $260 $265 $378 reversed $159 $-1 #
coedge $-1 $260 $263 $384 $431 reversed $159 $-1 #
edge $-1 $386 -20.451395172988725 $380 20.451395172988725 $277 $432 forward 7 unknown #
edge $-1 $375 -11.985084296027821 $275 11.985084296027821 $262 $433 forward 7 unknown #
vertex $-1 $431 $434 #
vertex $-1 $378 $435 #
straight-curve $-1 -96.540742645218884 -25.350519934426529 0 0 0 -1 I I #
edge $-1 $376 -3.507763481909052 $380 3.507763481909052 $371 $436 forward 7 unknown #
straight-curve $-1 -84.555658349191063 -25.350519934426529 -20.451395172988725 -1 0 0 I I #
vertex $-1 $267 $437 #
straight-curve $-1 -84.555658349191063 -18.334992970608425 -20.451395172988725 1 0 0 I I #
point $-1 -72.570574053163242 -25.350519934426529 -20.451395172988725 #
straight-curve $-1 -72.570574053163242 -25.350519934426529 0 0 0 -1 I I #
coedge $-1 $273 $272 $372 $431 forward $274 $-1 #
point $-1 -72.570574053163242 -25.350519934426529 20.451395172988725 #
vertex $-1 $278 $438 #
straight-curve $-1 -84.555658349191063 -18.334992970608425 20.451395172988725 -1 0 0 I I #
plane-surface $-1 0 -42.59044670772272 0 0 1 0 0 0 1 forward_v I I I I #
coedge $-1 $285 $284 $300 $400 reversed $103 $-1 #
edge $-1 $393 -42.59044670772272 $391 42.59044670772272 $284 $439 forward 7 unknown #
vertex $-1 $292 $440 #
straight-curve $-1 48.787424597727814 42.59044670772272 -6.6082493443428536 0 0 1 I I #
vertex $-1 $290 $441 #
straight-curve $-1 30.339499662722766 -42.59044670772272 -18.597948754942188 1 0 0 I I #
straight-curve $-1 30.339499662722766 42.59044670772272 -18.597948754942188 -1 0 0 I I #
point $-1 72.570574053163256 -42.59044670772272 -18.597948754942188 #
point $-1 72.570574053163256 42.59044670772272 -18.597948754942188 #
straight-curve $-1 48.787424597727814 0 -7.8350486224292277 0 -1 0 I I #
point $-1 48.787424597727814 42.59044670772272 -7.8350486224292277 #
edge $-1 $303 1.2267992780863741 $393 11.989699410599334 $300 $442 forward 7 unknown #
point $-1 48.787424597727814 -42.59044670772272 -7.8350486224292277 #
straight-curve $-1 72.570574053163242 -42.59044670772272 0 0 0 -1 I I #
straight-curve $-1 72.570574053163242 42.59044670772272 0 0 0 -1 I I #
coedge $-1 $320 $319 $312 $405 forward $309 $-1 #
edge $-1 $406 41.863045431760909 $409 52.058344018359577 $404 $443 forward 7 unknown #
vertex $-1 $324 $444 #
straight-curve $-1 -4.90970938433383 -65.97413060095748 20.451395172988725 0 -1 0 I I #
edge $-1 $409 -6.3120125386162442 $321 9.1166188471810727 $320 $445 forward 7 unknown #
vertex $-1 $408 $446 #
straight-curve $-1 -4.90970938433383 -42.59044670772272 10.256096586390058 0 0.78801074757464917 0.61566148304635926 I I #
point $-1 -4.90970938433383 -29.541059857632213 20.451395172988725 #
point $-1 10.518922001463487 -42.59044670772272 10.256096586390058 #
straight-curve $-1 0 -42.59044670772272 20.451395172988725 1 0 0 I I #
vertex $-1 $327 $447 #
point $-1 4.3046063085648285 -33.021134671397903 11.456811843662571 #
edge $-1 $417 62.966252264343609 $420 71.958961346239107 $332 $448 forward 7 unknown #
vertex $-1 $346 $449 #
straight-curve $-1 48.787424597727799 53.621091167398347 20.451395172988725 0 1 0 I I #
edge $-1 $420 -27.485546306080153 $343 -15.118210277215141 $342 $450 forward 7 unknown #
vertex $-1 $419 $451 #
straight-curve $-1 48.787424597727799 -8.6726937055809969 79.48717305074409 0 -0.60181501223851219 0.79863551827123203 I I #
point $-1 48.787424597727799 35.813954550332447 20.451395172988725 #
point $-1 36.420088568862788 42.59044670772272 11.458686091093227 #
straight-curve $-1 0 42.59044670772272 20.451395172988725 -1 0 0 I I #
vertex $-1 $349 $452 #
point $-1 44.603756583295308 35.288065213816758 13.005528121118198 #
point $-1 72.570574053163242 42.59044670772272 -20.451395172988725 #
point $-1 72.570574053163242 -42.59044670772272 -20.451395172988725 #
straight-curve $-1 72.570574053163242 -42.59044670772272 0 0 0 -1 I I #
straight-curve $-1 72.570574053163242 42.59044670772272 0 0 0 -1 I I #
edge $-1 $386 -3.507763481909052 $375 3.507763481909052 $372 $453 forward 7 unknown #
straight-curve $-1 -96.540742645218884 -18.334992970608425 0 0 0 -1 I I #
straight-curve $-1 -84.555658349191063 -25.350519934426529 20.451395172988725 1 0 0 I I #
point $-1 -96.540742645218884 -25.350519934426529 20.451395172988725 #
point $-1 -96.540742645218884 -25.350519934426529 -20.451395172988725 #
straight-curve $-1 -96.540742645218884 -21.842756452517477 -20.451395172988725 0 1 0 I I #
point $-1 -96.540742645218884 -18.334992970608425 -20.451395172988725 #
point $-1 -96.540742645218884 -18.334992970608425 20.451395172988725 #
straight-curve $-1 48.787424597727814 0 -18.597948754942188 0 1 0 I I #
point $-1 48.787424597727814 42.59044670772272 -18.597948754942188 #
point $-1 48.787424597727814 -42.59044670772272 -18.597948754942188 #
straight-curve $-1 48.787424597727814 -42.59044670772272 -6.6082493443428536 0 0 -1 I I #
straight-curve $-1 -4.90970938433383 -42.59044670772272 62.314440604749635 0 0 -1 I I #
point $-1 -4.90970938433383 -42.59044670772272 20.451395172988725 #
straight-curve $-1 1.4023031542824143 -42.59044670772272 10.256096586390059 1 0 0 I I #
point $-1 -4.90970938433383 -42.59044670772272 10.256096586390058 #
point $-1 2.8046063085648285 -32.09764244682836 10.274795722300595 #
straight-curve $-1 48.787424597727799 42.59044670772272 83.417647437332334 0 0 -1 I I #
point $-1 48.787424597727799 42.59044670772272 20.451395172988725 #
straight-curve $-1 21.301878291647647 42.59044670772272 11.458686091093217 -1 0 0 I I #
point $-1 48.787424597727799 42.59044670772272 11.458686091093227 #
point $-1 42.603756583295308 33.690794177274292 11.801898096641173 #
straight-curve $-1 -96.540742645218884 -21.842756452517477 20.451395172988725 0 -1 0 I I #
End-of-ACIS-data 