500 0 7 0           
7 Unknown 11 ACIS 5.0 NT 24 Thu Mar 25 15:37:15 1999 
-1 9.9999999999999995e-007 1e-010 
body $-1 $7 $-1 $8 #
body $-1 $9 $-1 $10 #
body $-1 $11 $-1 $12 #
body $-1 $13 $-1 $14 #
body $-1 $15 $-1 $16 #
body $-1 $17 $-1 $18 #
body $-1 $19 $-1 $20 #
lump $-1 $-1 $21 $0 #
transform $-1 1 0 0 0 1 0 0 0 1 49.950254829554126 29.693625408915029 10.003870936510383 1 rotate no_reflect no_shear #
lump $-1 $-1 $22 $1 #
transform $-1 1 0 0 0 1 0 0 0 1 49.950254829554126 29.693625408915029 10.003870936510383 1 rotate no_reflect no_shear #
lump $-1 $-1 $23 $2 #
transform $-1 1 0 0 0 1 0 0 0 1 49.950254829554126 29.693625408915029 10.003870936510383 1 rotate no_reflect no_shear #
lump $-1 $-1 $24 $3 #
transform $-1 1 0 0 0 1 0 0 0 1 49.950254829554126 29.693625408915029 10.003870936510383 1 rotate no_reflect no_shear #
lump $-1 $-1 $25 $4 #
transform $-1 1 0 0 0 1 0 0 0 1 49.950254829554126 29.693625408915029 10.003870936510383 1 rotate no_reflect no_shear #
lump $-1 $-1 $26 $5 #
transform $-1 1 0 0 0 1 0 0 0 1 49.950254829554126 29.693625408915029 10.003870936510383 1 rotate no_reflect no_shear #
lump $-1 $-1 $27 $6 #
transform $-1 1 0 0 0 1 0 0 0 1 49.950254829554126 29.693625408915029 10.003870936510383 1 rotate no_reflect no_shear #
shell $-1 $-1 $-1 $28 $-1 $7 #
shell $-1 $-1 $-1 $29 $-1 $9 #
shell $-1 $-1 $-1 $30 $-1 $11 #
shell $-1 $-1 $-1 $31 $-1 $13 #
shell $-1 $-1 $-1 $32 $-1 $15 #
shell $-1 $-1 $-1 $33 $-1 $17 #
shell $-1 $-1 $-1 $34 $-1 $19 #
face $-1 $35 $36 $21 $-1 $37 forward single #
face $-1 $38 $39 $22 $-1 $40 forward single #
face $-1 $41 $42 $23 $-1 $43 reversed single #
face $-1 $44 $45 $24 $-1 $46 forward single #
face $-1 $47 $48 $25 $-1 $49 reversed single #
face $-1 $50 $51 $26 $-1 $52 forward single #
face $-1 $53 $54 $27 $-1 $55 forward single #
face $-1 $56 $57 $21 $-1 $58 reversed single #
loop $-1 $-1 $59 $28 #
plane-surface $-1 0 0 10.003870936510383 0 0 1 1 0 0 forward_v I I I I #
face $-1 $60 $61 $22 $-1 $62 reversed single #
loop $-1 $-1 $63 $29 #
plane-surface $-1 0 -26.114983068468845 -5.9121359877723396 0 0 1 1 0 0 forward_v I I I I #
face $-1 $64 $65 $23 $-1 $66 reversed single #
loop $-1 $-1 $67 $30 #
plane-surface $-1 -125.34612736645379 17.792552413463998 68.250096274846982 0 1 0 -0.75470958851134928 0 0.65605901945558964 forward_v I I I I #
face $-1 $68 $69 $24 $-1 $70 forward single #
loop $-1 $71 $72 $31 #
cone-surface $-1 -45.0699411516091 23.743088911189513 4.8703194102485892 0.75470958851134928 0 -0.65605901945558964 1.3121180389111793 0 1.5094191770226986 1 I I 0 1 2 forward I I I I #
face $-1 $73 $74 $25 $-1 $75 reversed single #
loop $-1 $-1 $76 $32 #
plane-surface $-1 15.771371899345979 -12.41697984110915 137.32597905195925 0 -1 0 -0.51503808176128008 0 -0.85716729658548041 forward_v I I I I #
face $-1 $77 $78 $26 $-1 $79 forward single #
loop $-1 $80 $81 $33 #
cone-surface $-1 41.444174162268936 -19.645094760333087 4.4858158975094353 -0.51503808176128008 0 -0.85716729658548041 0.85716729658548041 0 -0.51503808176128008 1 I I 0 1 1 forward I I I I #
face $-1 $82 $83 $27 $-1 $84 forward single #
loop $-1 $85 $86 $34 #
cone-surface $-1 41.444174162268936 -15.308225808798724 4.4858158975094353 -0.51503808176128008 0 -0.85716729658548041 0.85716729658548041 0 -0.51503808176128008 1 I I 0 1 1 forward I I I I #
face $-1 $87 $88 $21 $-1 $89 reversed single #
loop $-1 $-1 $90 $35 #
plane-surface $-1 0 0 -10.003870936510383 0 0 1 1 0 0 forward_v I I I I #
coedge $-1 $91 $92 $93 $94 forward $36 $-1 #
face $-1 $95 $96 $22 $-1 $97 reversed single #
loop $-1 $-1 $98 $38 #
plane-surface $-1 0 -22.536340728022662 -7.9580034621413613 0 -1 0 0 0 -1 forward_v I I I I #
coedge $-1 $99 $100 $101 $102 reversed $39 $-1 #
face $-1 $103 $104 $23 $-1 $105 reversed single #
loop $-1 $-1 $106 $41 #
plane-surface $-1 -49.950254829554126 23.743088911189513 2.7094658647787639 -0.75470958851134928 0 0.65605901945558964 0.65605901945558964 0 0.75470958851134928 forward_v I I I I #
coedge $-1 $107 $108 $109 $110 reversed $42 $-1 #
face $-1 $-1 $111 $24 $-1 $112 forward single #
loop $-1 $113 $114 $44 #
cone-surface $-1 -42.605382598812696 23.743088911189513 2.7279114003970175 0.75470958851134928 0 -0.65605901945558964 0.65605901945558964 0 0.75470958851134928 1 I I -0.70710678118654735 0.70710678118654768 1 forward I I I I #
loop $-1 $-1 $115 $31 #
coedge $-1 $72 $72 $116 $117 reversed $45 $-1 #
face $-1 $118 $119 $25 $-1 $120 reversed single #
loop $-1 $-1 $121 $47 #
plane-surface $-1 -35.681194962455365 -17.476660284565906 51.694529259949761 0.51503808176128008 0 0.85716729658548041 0.85716729658548041 0 -0.51503808176128008 forward_v I I I I #
coedge $-1 $122 $123 $124 $125 reversed $48 $-1 #
face $-1 $-1 $126 $26 $-1 $127 forward single #
loop $-1 $128 $129 $50 #
cone-surface $-1 40.80384635152059 -19.645094760333087 3.420131479396721 -0.51503808176128008 0 -0.85716729658548041 0.4285836482927402 0 -0.25751904088064004 1 I I -0.70710678118654746 0.70710678118654746 0.5 forward I I I I #
loop $-1 $-1 $130 $33 #
coedge $-1 $81 $81 $131 $132 reversed $51 $-1 #
face $-1 $-1 $133 $27 $-1 $134 forward single #
loop $-1 $135 $136 $53 #
cone-surface $-1 40.80384635152059 -15.308225808798724 3.420131479396721 -0.51503808176128008 0 -0.85716729658548041 0.4285836482927402 0 -0.25751904088064004 1 I I -0.70710678118654746 0.70710678118654746 0.5 forward I I I I #
loop $-1 $-1 $137 $34 #
coedge $-1 $86 $86 $138 $139 reversed $54 $-1 #
face $-1 $140 $141 $21 $-1 $142 reversed single #
loop $-1 $-1 $143 $56 #
plane-surface $-1 0 -29.693625408915029 0 0 1 0 0 0 1 forward_v I I I I #
coedge $-1 $144 $145 $146 $147 forward $57 $-1 #
coedge $-1 $148 $59 $149 $150 forward $36 $-1 #
coedge $-1 $59 $148 $151 $152 forward $36 $-1 #
coedge $-1 $153 $154 $59 $94 reversed $155 $-1 #
edge $-1 $156 -29.693625408915029 $157 29.693625408915029 $93 $158 forward 7 unknown #
face $-1 $159 $160 $22 $-1 $161 reversed single #
loop $-1 $-1 $162 $60 #
plane-surface $-1 0 0 -10.003870936510383 0 0 1 1 0 0 forward_v I I I I #
coedge $-1 $163 $164 $165 $166 reversed $61 $-1 #
coedge $-1 $167 $63 $164 $168 forward $39 $-1 #
coedge $-1 $63 $167 $169 $170 reversed $39 $-1 #
coedge $-1 $171 $165 $63 $102 forward $160 $-1 #
edge $-1 $172 9.4788491937882391 $173 16.636133874680606 $101 $174 forward 7 unknown #
face $-1 $175 $176 $23 $-1 $177 reversed single #
loop $-1 $-1 $178 $64 #
plane-surface $-1 0 29.693625408915029 0 0 -1 0 0 0 -1 forward_v I I I I #
coedge $-1 $179 $180 $181 $182 reversed $65 $-1 #
coedge $-1 $108 $67 $183 $184 reversed $42 $-1 #
coedge $-1 $67 $107 $179 $185 reversed $42 $-1 #
coedge $-1 $181 $186 $67 $110 forward $187 $-1 #
edge $-1 $188 12.722808853672767 $189 19.063738280992688 $109 $190 forward 7 unknown #
loop $-1 $-1 $116 $68 #
plane-surface $-1 -49.950254829554126 23.743088911189513 2.7094658647787639 -0.75470958851134928 0 0.65605901945558964 0.65605901945558964 0 0.75470958851134928 forward_v I I I I #
loop $-1 $-1 $191 $44 #
coedge $-1 $114 $114 $115 $192 reversed $69 $-1 #
coedge $-1 $115 $115 $114 $192 forward $71 $-1 #
coedge $-1 $116 $116 $72 $117 forward $111 $-1 #
edge $-1 $193 0 $193 6.2831853071796004 $116 $194 forward 7 unknown #
face $-1 $195 $196 $25 $-1 $197 forward single #
loop $-1 $-1 $198 $73 #
plane-surface $-1 15.771371899345979 -22.536340728022662 137.32597905195925 0 1 0 0.51503808176128008 0 0.85716729658548041 forward_v I I I I #
coedge $-1 $199 $200 $201 $202 reversed $74 $-1 #
coedge $-1 $123 $76 $203 $204 reversed $48 $-1 #
coedge $-1 $76 $122 $199 $205 reversed $48 $-1 #
coedge $-1 $201 $206 $76 $125 forward $196 $-1 #
edge $-1 $207 -42.064568879881136 $208 -25.818025085046145 $124 $209 forward 7 unknown #
loop $-1 $-1 $131 $77 #
plane-surface $-1 -35.681194962455365 -17.476660284565906 51.694529259949761 0.51503808176128008 0 0.85716729658548041 0.85716729658548041 0 -0.51503808176128008 forward_v I I I I #
loop $-1 $-1 $210 $50 #
coedge $-1 $129 $129 $130 $211 reversed $78 $-1 #
coedge $-1 $130 $130 $129 $211 forward $80 $-1 #
coedge $-1 $131 $131 $81 $132 forward $126 $-1 #
edge $-1 $212 0 $212 6.2831853071796004 $131 $213 forward 7 unknown #
loop $-1 $-1 $138 $82 #
plane-surface $-1 -35.681194962455365 -17.476660284565906 51.694529259949761 0.51503808176128008 0 0.85716729658548041 0.85716729658548041 0 -0.51503808176128008 forward_v I I I I #
loop $-1 $-1 $214 $53 #
coedge $-1 $136 $136 $137 $215 reversed $83 $-1 #
coedge $-1 $137 $137 $136 $215 forward $85 $-1 #
coedge $-1 $138 $138 $86 $139 forward $133 $-1 #
edge $-1 $216 0 $216 6.2831853071796004 $138 $217 forward 7 unknown #
face $-1 $218 $219 $21 $-1 $220 reversed single #
loop $-1 $-1 $221 $87 #
plane-surface $-1 -49.950254829554126 0 0 1 0 0 0 0 -1 forward_v I I I I #
coedge $-1 $222 $151 $223 $224 forward $88 $-1 #
coedge $-1 $225 $90 $222 $226 forward $57 $-1 #
coedge $-1 $90 $225 $227 $228 forward $57 $-1 #
coedge $-1 $154 $153 $90 $147 reversed $155 $-1 #
edge $-1 $229 -29.693625408915029 $230 29.693625408915029 $146 $231 forward 7 unknown #
coedge $-1 $92 $91 $232 $233 forward $36 $-1 #
coedge $-1 $234 $235 $91 $150 reversed $219 $-1 #
edge $-1 $157 -49.950254829554126 $236 49.950254829554126 $149 $237 forward 7 unknown #
coedge $-1 $143 $238 $92 $152 reversed $88 $-1 #
edge $-1 $239 -49.950254829554126 $156 49.950254829554126 $151 $240 forward 7 unknown #
coedge $-1 $146 $93 $238 $241 forward $155 $-1 #
coedge $-1 $93 $146 $234 $242 reversed $155 $-1 #
loop $-1 $-1 $153 $218 #
vertex $-1 $94 $243 #
vertex $-1 $94 $244 #
straight-curve $-1 49.950254829554126 0 10.003870936510383 0 1 0 I I #
face $-1 $245 $246 $22 $-1 $247 reversed single #
loop $-1 $-1 $165 $95 #
plane-surface $-1 49.950254829554126 0 0 -1 0 0 0 0 1 forward_v I I I I #
coedge $-1 $248 $249 $163 $250 forward $96 $-1 #
coedge $-1 $251 $98 $162 $250 reversed $61 $-1 #
coedge $-1 $98 $251 $99 $168 reversed $61 $-1 #
coedge $-1 $101 $252 $98 $166 forward $160 $-1 #
edge $-1 $253 -6.0248692054397024 $172 -1.9331342567016589 $165 $254 forward 7 unknown #
coedge $-1 $100 $99 $255 $256 reversed $39 $-1 #
edge $-1 $172 -49.950254829554126 $257 49.950254829554126 $164 $258 forward 7 unknown #
coedge $-1 $259 $260 $100 $170 forward $246 $-1 #
edge $-1 $173 -49.950254829554126 $261 49.950254829554126 $169 $262 forward 7 unknown #
coedge $-1 $252 $101 $260 $263 forward $160 $-1 #
vertex $-1 $102 $264 #
vertex $-1 $263 $265 #
straight-curve $-1 49.950254829554126 -13.057491534234423 -5.9121359877723396 0 -1 0 I I #
face $-1 $-1 $187 $23 $-1 $266 forward single #
loop $-1 $-1 $267 $103 #
plane-surface $-1 -49.950254829554126 0 0 1 0 0 0 0 -1 forward_v I I I I #
coedge $-1 $268 $269 $180 $270 forward $104 $-1 #
coedge $-1 $271 $106 $108 $185 forward $65 $-1 #
coedge $-1 $106 $271 $178 $270 reversed $65 $-1 #
coedge $-1 $272 $109 $106 $182 forward $187 $-1 #
edge $-1 $189 5.9210079578692412 $273 17.822080953320274 $181 $274 forward 7 unknown #
coedge $-1 $275 $267 $107 $184 forward $176 $-1 #
edge $-1 $276 -31.415582272644727 $188 -24.12117720091311 $183 $277 forward 7 unknown #
edge $-1 $189 -9.6651813926462733 $276 0 $108 $278 forward 7 unknown #
coedge $-1 $109 $272 $275 $279 forward $187 $-1 #
loop $-1 $-1 $181 $175 #
vertex $-1 $184 $280 #
vertex $-1 $110 $281 #
straight-curve $-1 -62.673063683226893 17.792552413463998 10.003870936510381 1 0 0 I I #
coedge $-1 $191 $191 $-1 $282 reversed $113 $-1 #
edge $-1 $283 0 $283 6.2831853071796004 $114 $284 forward 7 unknown #
vertex $-1 $117 $285 #
ellipse-curve $-1 -46.779790115894166 23.743088911189513 6.3566684006445744 -0.75470958851134928 0 0.65605901945558964 1.3121180389111793 0 1.5094191770226986 1 I I #
face $-1 $-1 $286 $25 $-1 $287 reversed single #
loop $-1 $-1 $124 $118 #
plane-surface $-1 0 0 10.003870936510383 0 0 1 1 0 0 forward_v I I I I #
coedge $-1 $288 $289 $290 $291 reversed $119 $-1 #
coedge $-1 $292 $121 $123 $205 forward $74 $-1 #
coedge $-1 $121 $292 $288 $293 forward $74 $-1 #
coedge $-1 $290 $124 $121 $202 forward $196 $-1 #
edge $-1 $208 3.678649698826197 $294 13.798010585739709 $201 $295 forward 7 unknown #
coedge $-1 $296 $297 $122 $204 forward $286 $-1 #
edge $-1 $298 -68.421027127831209 $207 -58.659118589469244 $203 $299 forward 7 unknown #
edge $-1 $208 80.946748987704922 $298 99.900509659108238 $123 $300 forward 7 unknown #
coedge $-1 $124 $290 $296 $301 forward $196 $-1 #
vertex $-1 $204 $302 #
vertex $-1 $125 $303 #
straight-curve $-1 7.8856859496729896 -12.41697984110915 10.003870936510381 -1 0 0 I I #
coedge $-1 $210 $210 $-1 $304 reversed $128 $-1 #
edge $-1 $305 0 $305 6.2831853071796004 $129 $306 forward 7 unknown #
vertex $-1 $132 $307 #
ellipse-curve $-1 41.826982932136637 -19.645094760333087 5.1229166673293971 0.51503808176128008 0 0.85716729658548041 0.85716729658548041 0 -0.51503808176128008 1 I I #
coedge $-1 $214 $214 $-1 $308 reversed $135 $-1 #
edge $-1 $309 0 $309 6.2831853071796004 $136 $310 forward 7 unknown #
vertex $-1 $139 $311 #
ellipse-curve $-1 41.826982932136637 -15.308225808798724 5.1229166673293971 0.51503808176128008 0 0.85716729658548041 0.85716729658548041 0 -0.51503808176128008 1 I I #
face $-1 $-1 $155 $21 $-1 $312 reversed single #
loop $-1 $-1 $234 $140 #
plane-surface $-1 0 29.693625408915029 0 0 -1 0 0 0 -1 forward_v I I I I #
coedge $-1 $313 $232 $235 $314 forward $141 $-1 #
coedge $-1 $238 $143 $144 $226 reversed $88 $-1 #
coedge $-1 $232 $313 $143 $224 reversed $141 $-1 #
edge $-1 $239 -10.003870936510383 $315 10.003870936510383 $223 $316 forward 7 unknown #
coedge $-1 $145 $144 $313 $317 forward $57 $-1 #
edge $-1 $230 -49.950254829554126 $315 49.950254829554126 $222 $318 forward 7 unknown #
coedge $-1 $235 $234 $145 $228 reversed $219 $-1 #
edge $-1 $319 -49.950254829554126 $229 49.950254829554126 $227 $320 forward 7 unknown #
vertex $-1 $147 $321 #
vertex $-1 $241 $322 #
straight-curve $-1 49.950254829554126 0 -10.003870936510383 0 -1 0 I I #
coedge $-1 $221 $223 $148 $233 reversed $141 $-1 #
edge $-1 $236 -29.693625408915029 $239 29.693625408915029 $232 $323 forward 7 unknown #
coedge $-1 $227 $149 $154 $242 forward $219 $-1 #
coedge $-1 $149 $227 $221 $314 reversed $219 $-1 #
vertex $-1 $150 $324 #
straight-curve $-1 0 29.693625408915029 10.003870936510383 -1 0 0 I I #
coedge $-1 $151 $222 $153 $241 reversed $88 $-1 #
vertex $-1 $233 $325 #
straight-curve $-1 0 -29.693625408915029 10.003870936510383 1 0 0 I I #
edge $-1 $156 -10.003870936510383 $230 10.003870936510383 $153 $326 forward 7 unknown #
edge $-1 $157 -10.003870936510383 $229 10.003870936510383 $154 $327 forward 7 unknown #
point $-1 49.950254829554126 -29.693625408915029 10.003870936510383 #
point $-1 49.950254829554126 29.693625408915029 10.003870936510383 #
face $-1 $-1 $328 $22 $-1 $329 reversed single #
loop $-1 $-1 $169 $159 #
plane-surface $-1 0 -29.693625408915029 0 0 1 0 0 0 1 forward_v I I I I #
coedge $-1 $330 $162 $252 $331 forward $96 $-1 #
coedge $-1 $162 $330 $332 $333 forward $96 $-1 #
edge $-1 $334 -49.950254829554126 $253 49.950254829554126 $162 $335 forward 7 unknown #
coedge $-1 $164 $163 $336 $337 reversed $61 $-1 #
coedge $-1 $165 $171 $248 $331 reversed $160 $-1 #
vertex $-1 $331 $338 #
straight-curve $-1 49.950254829554126 -22.536340728022662 -3.9790017310706807 0 0 1 I I #
coedge $-1 $336 $339 $167 $256 forward $328 $-1 #
edge $-1 $261 -16.636133874680606 $257 -9.4788491937882391 $255 $340 forward 7 unknown #
vertex $-1 $256 $341 #
straight-curve $-1 0 -22.536340728022662 -5.9121359877723396 -1 0 0 I I #
coedge $-1 $342 $169 $339 $343 forward $246 $-1 #
coedge $-1 $169 $342 $171 $263 reversed $246 $-1 #
vertex $-1 $343 $344 #
straight-curve $-1 0 -29.693625408915029 -5.9121359877723396 -1 0 0 I I #
edge $-1 $173 5.9121359877723396 $345 10.003870936510383 $171 $346 forward 7 unknown #
point $-1 49.950254829554126 -22.536340728022662 -5.9121359877723396 #
point $-1 49.950254829554126 -29.693625408915029 -5.9121359877723396 #
plane-surface $-1 0 0 10.003870936510383 0 0 1 1 0 0 forward_v I I I I #
coedge $-1 $183 $347 $271 $348 forward $176 $-1 #
coedge $-1 $269 $178 $347 $349 reversed $104 $-1 #
coedge $-1 $178 $268 $272 $350 reversed $104 $-1 #
edge $-1 $273 5.6975462759244238 $351 15.362727668570693 $178 $352 forward 7 unknown #
coedge $-1 $180 $179 $267 $348 reversed $65 $-1 #
coedge $-1 $186 $181 $269 $350 forward $187 $-1 #
vertex $-1 $350 $353 #
straight-curve $-1 -43.609325402234191 11.871544455594757 10.003870936510383 0 1 0 I I #
coedge $-1 $347 $183 $186 $279 reversed $176 $-1 #
vertex $-1 $184 $354 #
straight-curve $-1 -49.950254829554126 17.792552413463998 34.125048137423491 0 0 1 I I #
straight-curve $-1 -49.950254829554126 17.792552413463998 2.7094658647787639 -0.65605901945558964 0 -0.75470958851134928 I I #
edge $-1 $355 -29.693625408915029 $188 -17.792552413463998 $275 $356 forward 7 unknown #
point $-1 -49.950254829554126 17.792552413463998 10.003870936510383 #
point $-1 -43.609325402234205 17.792552413463998 10.003870936510381 #
edge $-1 $357 1 $357 0 $191 $-1 forward 7 unknown #
vertex $-1 $192 $358 #
ellipse-curve $-1 -43.360092187324042 23.743088911189513 3.3839704198526075 -0.75470958851134928 0 0.65605901945558964 1.3121180389111793 0 1.5094191770226986 1 I I #
point $-1 -45.467672076982986 23.743088911189513 7.8660875776672698 #
loop $-1 $-1 $203 $195 #
plane-surface $-1 49.950254829554126 0 0 -1 0 0 0 0 1 forward_v I I I I #
coedge $-1 $289 $198 $200 $293 reversed $119 $-1 #
coedge $-1 $198 $288 $359 $360 reversed $119 $-1 #
coedge $-1 $206 $201 $198 $291 forward $196 $-1 #
edge $-1 $294 25.818025085046145 $361 42.064568879881136 $290 $362 forward 7 unknown #
coedge $-1 $200 $199 $297 $363 reversed $74 $-1 #
edge $-1 $364 -99.900509659108238 $294 -80.946748987704922 $288 $365 forward 7 unknown #
vertex $-1 $202 $366 #
straight-curve $-1 33.70371103471912 -8.7383301422829529 10.003870936510381 0 -1 0 I I #
coedge $-1 $359 $203 $206 $301 reversed $286 $-1 #
coedge $-1 $203 $359 $292 $363 forward $286 $-1 #
vertex $-1 $204 $367 #
straight-curve $-1 49.950254829554126 -12.41697984110915 68.662989525979626 0 0 1 I I #
straight-curve $-1 -35.681194962455365 -12.41697984110915 51.694529259949761 0.85716729658548041 0 -0.51503808176128008 I I #
edge $-1 $361 -22.536340728022662 $207 -12.41697984110915 $296 $368 forward 7 unknown #
point $-1 49.950254829554126 -12.41697984110915 10.003870936510383 #
point $-1 33.703711034719134 -12.41697984110915 10.003870936510381 #
edge $-1 $369 1 $369 0 $210 $-1 forward 7 unknown #
vertex $-1 $211 $370 #
ellipse-curve $-1 41.061365392401228 -19.645094760333087 3.8487151276894611 0.51503808176128008 0 0.85716729658548041 0.85716729658548041 0 -0.51503808176128008 1 I I #
point $-1 42.684150228722125 -19.645094760333087 4.6078785855681295 #
edge $-1 $371 1 $371 0 $214 $-1 forward 7 unknown #
vertex $-1 $215 $372 #
ellipse-curve $-1 41.061365392401228 -15.308225808798724 3.8487151276894611 0.51503808176128008 0 0.85716729658548041 0.85716729658548041 0 -0.51503808176128008 1 I I #
point $-1 42.684150228722125 -15.308225808798724 4.6078785855681295 #
plane-surface $-1 49.950254829554126 0 0 -1 0 0 0 0 1 forward_v I I I I #
coedge $-1 $223 $221 $225 $317 reversed $141 $-1 #
edge $-1 $236 -10.003870936510383 $319 10.003870936510383 $235 $373 forward 7 unknown #
vertex $-1 $317 $374 #
straight-curve $-1 -49.950254829554126 -29.693625408915029 0 0 0 -1 I I #
edge $-1 $315 -29.693625408915029 $319 29.693625408915029 $313 $375 forward 7 unknown #
straight-curve $-1 0 -29.693625408915029 -10.003870936510383 -1 0 0 I I #
vertex $-1 $228 $376 #
straight-curve $-1 0 29.693625408915029 -10.003870936510383 1 0 0 I I #
point $-1 49.950254829554126 29.693625408915029 -10.003870936510383 #
point $-1 49.950254829554126 -29.693625408915029 -10.003870936510383 #
straight-curve $-1 -49.950254829554126 0 10.003870936510383 0 -1 0 I I #
point $-1 -49.950254829554126 29.693625408915029 10.003870936510383 #
point $-1 -49.950254829554126 -29.693625408915029 10.003870936510383 #
straight-curve $-1 49.950254829554126 -29.693625408915029 0 0 0 -1 I I #
straight-curve $-1 49.950254829554126 29.693625408915029 0 0 0 -1 I I #
loop $-1 $-1 $336 $245 #
plane-surface $-1 -49.950254829554126 0 0 1 0 0 0 0 -1 forward_v I I I I #
coedge $-1 $249 $248 $342 $377 forward $96 $-1 #
edge $-1 $253 22.536340728022662 $345 29.693625408915029 $252 $378 forward 7 unknown #
coedge $-1 $339 $336 $249 $333 reversed $328 $-1 #
edge $-1 $379 -29.693625408915029 $334 -22.536340728022662 $332 $380 forward 7 unknown #
vertex $-1 $337 $381 #
straight-curve $-1 0 -22.536340728022662 -10.003870936510383 1 0 0 I I #
coedge $-1 $332 $255 $251 $337 forward $328 $-1 #
edge $-1 $257 1.9331342567016589 $334 6.0248692054397024 $336 $382 forward 7 unknown #
point $-1 49.950254829554126 -22.536340728022662 -10.003870936510383 #
coedge $-1 $255 $332 $259 $343 reversed $328 $-1 #
straight-curve $-1 -49.950254829554126 -13.057491534234423 -5.9121359877723396 0 1 0 I I #
point $-1 -49.950254829554126 -22.536340728022662 -5.9121359877723396 #
coedge $-1 $260 $259 $330 $377 reversed $246 $-1 #
edge $-1 $261 5.9121359877723396 $379 10.003870936510383 $339 $383 forward 7 unknown #
point $-1 -49.950254829554126 -29.693625408915029 -5.9121359877723396 #
vertex $-1 $263 $384 #
straight-curve $-1 49.950254829554126 -29.693625408915029 0 0 0 -1 I I #
coedge $-1 $267 $275 $268 $349 forward $176 $-1 #
edge $-1 $351 -17.822080953320274 $276 -5.9210079578692412 $267 $385 forward 7 unknown #
edge $-1 $355 -10.003870936510383 $351 -2.7094658647787639 $268 $386 forward 7 unknown #
edge $-1 $273 43.609325402234205 $355 49.950254829554126 $269 $387 forward 7 unknown #
vertex $-1 $270 $388 #
straight-curve $-1 -39.871398779148379 29.693625408915029 14.30386374193767 -0.65605901945558975 0 -0.75470958851134939 I I #
point $-1 -43.609325402234205 29.693625408915029 10.003870936510381 #
point $-1 -49.950254829554126 17.792552413463998 2.7094658647787639 #
vertex $-1 $350 $389 #
straight-curve $-1 -49.950254829554126 0 10.003870936510383 0 -1 0 I I #
vertex $-1 $282 $390 #
point $-1 -42.04797414841287 23.743088911189513 4.8933895968753056 #
coedge $-1 $297 $296 $289 $360 forward $286 $-1 #
edge $-1 $361 58.659118589469244 $364 68.421027127831209 $359 $391 forward 7 unknown #
vertex $-1 $301 $392 #
straight-curve $-1 7.8856859496729896 -22.536340728022662 10.003870936510381 1 0 0 I I #
edge $-1 $364 -13.798010585739709 $298 -3.678649698826197 $297 $393 forward 7 unknown #
vertex $-1 $363 $394 #
straight-curve $-1 -35.681194962455365 -22.536340728022662 51.694529259949761 -0.85716729658548041 0 0.51503808176128008 I I #
point $-1 33.703711034719134 -22.536340728022662 10.003870936510381 #
point $-1 49.950254829554126 -12.41697984110915 0.24196239814841647 #
straight-curve $-1 49.950254829554126 0 10.003870936510383 0 1 0 I I #
vertex $-1 $304 $395 #
point $-1 41.918532688986708 -19.645094760333087 3.333677045928181 #
vertex $-1 $308 $396 #
point $-1 41.918532688986708 -15.308225808798724 3.333677045928181 #
straight-curve $-1 -49.950254829554126 29.693625408915029 0 0 0 -1 I I #
point $-1 -49.950254829554126 -29.693625408915029 -10.003870936510383 #
straight-curve $-1 -49.950254829554126 0 -10.003870936510383 0 1 0 I I #
point $-1 -49.950254829554126 29.693625408915029 -10.003870936510383 #
edge $-1 $345 -49.950254829554126 $379 49.950254829554126 $342 $397 forward 7 unknown #
straight-curve $-1 49.950254829554126 0 -10.003870936510383 0 -1 0 I I #
vertex $-1 $333 $398 #
straight-curve $-1 -49.950254829554126 0 -10.003870936510383 0 1 0 I I #
point $-1 -49.950254829554126 -22.536340728022662 -10.003870936510383 #
straight-curve $-1 -49.950254829554126 -22.536340728022662 -3.9790017310706807 0 0 -1 I I #
straight-curve $-1 -49.950254829554126 -29.693625408915029 0 0 0 -1 I I #
point $-1 49.950254829554126 -29.693625408915029 -10.003870936510383 #
straight-curve $-1 -49.950254829554126 11.871544455594757 2.7094658647787662 0 -1 0 I I #
straight-curve $-1 -49.950254829554126 29.693625408915029 0 0 0 -1 I I #
straight-curve $-1 0 29.693625408915029 10.003870936510383 -1 0 0 I I #
point $-1 -49.950254829554126 29.693625408915029 2.7094658647787639 #
point $-1 -49.950254829554126 29.693625408915029 10.003870936510383 #
point $-1 -41.85067301030135 23.743088911189513 2.0718523809414275 #
straight-curve $-1 49.950254829554126 -22.536340728022662 68.662989525979626 0 0 -1 I I #
point $-1 49.950254829554126 -22.536340728022662 10.003870936510383 #
straight-curve $-1 49.950254829554126 -8.7383301422829529 0.24196239814842002 0 1 0 I I #
point $-1 49.950254829554126 -22.536340728022662 0.24196239814841647 #
point $-1 40.546327310639953 -19.645094760333087 2.9915478311039809 #
point $-1 40.546327310639953 -15.308225808798724 2.9915478311039809 #
straight-curve $-1 0 -29.693625408915029 -10.003870936510383 -1 0 0 I I #
point $-1 -49.950254829554126 -29.693625408915029 -10.003870936510383 #
End-of-ACIS-data 