500 0 10 0           
7 Unknown 11 ACIS 5.0 NT 24 Thu Mar 25 22:27:36 1999 
-1 9.9999999999999995e-007 1e-010 
body $-1 $10 $-1 $11 #
body $-1 $12 $-1 $13 #
body $-1 $14 $-1 $15 #
body $-1 $16 $-1 $17 #
body $-1 $18 $-1 $19 #
body $-1 $20 $-1 $21 #
body $-1 $22 $-1 $23 #
body $-1 $24 $-1 $25 #
body $-1 $26 $-1 $27 #
body $-1 $28 $-1 $29 #
lump $-1 $-1 $30 $0 #
transform $-1 1 0 0 0 1 0 0 0 1 60.709860530411696 31.217396773488776 7.3458582666092473 1 rotate no_reflect no_shear #
lump $-1 $-1 $31 $1 #
transform $-1 1 0 0 0 0.84804809178421925 0.52991927123019833 0 -0.52991927123019833 0.84804809178421925 8.8632097937668082 -64.342650097525507 113.59129494124345 1 rotate no_reflect no_shear #
lump $-1 $-1 $32 $2 #
transform $-1 1 0 0 0 -0.84804809178421925 -0.52991927123019833 0 0.52991927123019833 -0.84804809178421925 5.06469131072389 6.4832234279215042 7.4933127878754489 1 rotate no_reflect no_shear #
lump $-1 $-1 $33 $3 #
transform $-1 1 0 0 0 -0.84804809178421925 -0.52991927123019833 0 0.52991927123019833 -0.84804809178421925 12.661728276809725 6.4832234279215042 7.4933127878754489 1 rotate no_reflect no_shear #
lump $-1 $-1 $34 $4 #
transform $-1 1 0 0 0 0.84804809178421925 0.52991927123019833 0 -0.52991927123019833 0.84804809178421925 69.573070324178502 -64.342650097525507 113.59129494124345 1 rotate no_reflect no_shear #
lump $-1 $-1 $35 $5 #
transform $-1 1 0 0 0 -0.84804809178421925 -0.52991927123019833 0 0.52991927123019833 -0.84804809178421925 65.77455184113559 6.4832234279215042 7.4933127878754489 1 rotate no_reflect no_shear #
lump $-1 $-1 $36 $6 #
transform $-1 1 0 0 0 -0.84804809178421925 -0.52991927123019833 0 0.52991927123019833 -0.84804809178421925 73.371588807221428 6.4832234279215042 7.4933127878754489 1 rotate no_reflect no_shear #
lump $-1 $-1 $37 $7 #
transform $-1 1 0 0 0 0.65605901945558964 -0.75470958851134928 0 0.75470958851134928 0.65605901945558964 31.230060461355713 113.11051183161211 136.20067494765337 1 rotate no_reflect no_shear #
lump $-1 $-1 $38 $8 #
transform $-1 1 0 0 0 -0.65605901945558964 0.75470958851134928 0 -0.75470958851134928 -0.65605901945558964 24.023535413735623 57.874393703125307 10.083622875233999 1 rotate no_reflect no_shear #
lump $-1 $-1 $39 $9 #
transform $-1 1 0 0 0 -0.65605901945558964 0.75470958851134928 0 -0.75470958851134928 -0.65605901945558964 38.436585508975803 57.874393703125307 10.083622875233999 1 rotate no_reflect no_shear #
shell $-1 $-1 $-1 $40 $-1 $10 #
shell $-1 $-1 $-1 $41 $-1 $12 #
shell $-1 $-1 $-1 $42 $-1 $14 #
shell $-1 $-1 $-1 $43 $-1 $16 #
shell $-1 $-1 $-1 $44 $-1 $18 #
shell $-1 $-1 $-1 $45 $-1 $20 #
shell $-1 $-1 $-1 $46 $-1 $22 #
shell $-1 $-1 $-1 $47 $-1 $24 #
shell $-1 $-1 $-1 $48 $-1 $26 #
shell $-1 $-1 $-1 $49 $-1 $28 #
face $-1 $50 $51 $30 $-1 $52 forward single #
face $-1 $53 $54 $31 $-1 $55 forward single #
face $-1 $56 $57 $32 $-1 $58 forward single #
face $-1 $59 $60 $33 $-1 $61 forward single #
face $-1 $62 $63 $34 $-1 $64 forward single #
face $-1 $65 $66 $35 $-1 $67 forward single #
face $-1 $68 $69 $36 $-1 $70 forward single #
face $-1 $71 $72 $37 $-1 $73 forward single #
face $-1 $74 $75 $38 $-1 $76 forward single #
face $-1 $77 $78 $39 $-1 $79 forward single #
face $-1 $80 $81 $30 $-1 $82 reversed single #
loop $-1 $-1 $83 $40 #
plane-surface $-1 0 0 7.3458582666092473 0 0 1 1 0 0 forward_v I I I I #
face $-1 $84 $85 $31 $-1 $86 reversed single #
loop $-1 $-1 $87 $41 #
plane-surface $-1 0 0 121.41972106082339 0 0 1 1 0 0 forward_v I I I I #
face $-1 $88 $89 $32 $-1 $90 forward single #
loop $-1 $91 $92 $42 #
cone-surface $-1 0 0 -3.4192327646717731 0 0 1 1.5 0 0 1 I I 0 1 1.5 forward I I I I #
face $-1 $93 $94 $33 $-1 $95 forward single #
loop $-1 $96 $97 $43 #
cone-surface $-1 0 0 -3.4192327646717731 0 0 1 1.5 0 0 1 I I 0 1 1.5 forward I I I I #
face $-1 $98 $99 $34 $-1 $100 reversed single #
loop $-1 $-1 $101 $44 #
plane-surface $-1 0 0 121.41972106082339 0 0 1 1 0 0 forward_v I I I I #
face $-1 $102 $103 $35 $-1 $104 forward single #
loop $-1 $105 $106 $45 #
cone-surface $-1 0 0 -3.4192327646717731 0 0 1 1.5 0 0 1 I I 0 1 1.5 forward I I I I #
face $-1 $107 $108 $36 $-1 $109 forward single #
loop $-1 $110 $111 $46 #
cone-surface $-1 0 0 -3.4192327646717731 0 0 1 1.5 0 0 1 I I 0 1 1.5 forward I I I I #
face $-1 $112 $113 $37 $-1 $114 reversed single #
loop $-1 $-1 $115 $47 #
plane-surface $-1 0 0 121.41972106082339 0 0 1 1 0 0 forward_v I I I I #
face $-1 $116 $117 $38 $-1 $118 forward single #
loop $-1 $119 $120 $48 #
cone-surface $-1 0 0 -1.7538682210760825 0 0 1 1 0 0 1 I I 0 1 1 forward I I I I #
face $-1 $121 $122 $39 $-1 $123 forward single #
loop $-1 $124 $125 $49 #
cone-surface $-1 0 0 -1.7538682210760825 0 0 1 1 0 0 1 I I 0 1 1 forward I I I I #
face $-1 $126 $127 $30 $-1 $128 reversed single #
loop $-1 $-1 $129 $50 #
plane-surface $-1 0 0 -7.3458582666092473 0 0 1 1 0 0 forward_v I I I I #
coedge $-1 $130 $131 $132 $133 forward $51 $-1 #
face $-1 $134 $135 $31 $-1 $136 reversed single #
loop $-1 $-1 $137 $53 #
plane-surface $-1 0 0 -121.41972106082339 0 0 1 1 0 0 forward_v I I I I #
coedge $-1 $138 $139 $140 $141 forward $54 $-1 #
face $-1 $-1 $142 $32 $-1 $143 forward single #
loop $-1 $-1 $144 $56 #
plane-surface $-1 0 0 -6.0884655293435461 0 0 -1 -1 0 0 forward_v I I I I #
loop $-1 $-1 $145 $42 #
coedge $-1 $92 $92 $144 $146 reversed $57 $-1 #
face $-1 $-1 $147 $33 $-1 $148 forward single #
loop $-1 $-1 $149 $59 #
plane-surface $-1 0 0 -6.0884655293435461 0 0 -1 -1 0 0 forward_v I I I I #
loop $-1 $-1 $150 $43 #
coedge $-1 $97 $97 $149 $151 reversed $60 $-1 #
face $-1 $152 $153 $34 $-1 $154 reversed single #
loop $-1 $-1 $155 $62 #
plane-surface $-1 0 0 -121.41972106082339 0 0 1 1 0 0 forward_v I I I I #
coedge $-1 $156 $157 $158 $159 forward $63 $-1 #
face $-1 $-1 $160 $35 $-1 $161 forward single #
loop $-1 $-1 $162 $65 #
plane-surface $-1 0 0 -6.0884655293435461 0 0 -1 -1 0 0 forward_v I I I I #
loop $-1 $-1 $163 $45 #
coedge $-1 $106 $106 $162 $164 reversed $66 $-1 #
face $-1 $-1 $165 $36 $-1 $166 forward single #
loop $-1 $-1 $167 $68 #
plane-surface $-1 0 0 -6.0884655293435461 0 0 -1 -1 0 0 forward_v I I I I #
loop $-1 $-1 $168 $46 #
coedge $-1 $111 $111 $167 $169 reversed $69 $-1 #
face $-1 $170 $171 $37 $-1 $172 reversed single #
loop $-1 $-1 $173 $71 #
plane-surface $-1 0 0 -121.41972106082339 0 0 1 1 0 0 forward_v I I I I #
coedge $-1 $174 $175 $176 $177 forward $72 $-1 #
face $-1 $-1 $178 $38 $-1 $179 forward single #
loop $-1 $-1 $180 $74 #
plane-surface $-1 0 0 -3.0077364421521651 0 0 -1 -1 0 0 forward_v I I I I #
loop $-1 $-1 $181 $48 #
coedge $-1 $120 $120 $180 $182 reversed $75 $-1 #
face $-1 $-1 $183 $39 $-1 $184 forward single #
loop $-1 $-1 $185 $77 #
plane-surface $-1 0 0 -3.0077364421521651 0 0 -1 -1 0 0 forward_v I I I I #
loop $-1 $-1 $186 $49 #
coedge $-1 $125 $125 $185 $187 reversed $78 $-1 #
face $-1 $188 $189 $30 $-1 $190 reversed single #
loop $-1 $-1 $191 $80 #
plane-surface $-1 0 -31.217396773488776 0 0 1 0 0 0 1 forward_v I I I I #
coedge $-1 $192 $193 $194 $195 forward $81 $-1 #
coedge $-1 $196 $83 $197 $198 forward $51 $-1 #
coedge $-1 $83 $196 $199 $200 forward $51 $-1 #
coedge $-1 $201 $202 $83 $133 reversed $203 $-1 #
edge $-1 $204 -31.217396773488776 $205 31.217396773488776 $132 $206 forward 7 unknown #
face $-1 $207 $208 $31 $-1 $209 reversed single #
loop $-1 $-1 $210 $84 #
plane-surface $-1 0 -242.83944212164678 0 0 1 0 0 0 1 forward_v I I I I #
coedge $-1 $211 $212 $213 $214 forward $85 $-1 #
coedge $-1 $215 $87 $216 $217 forward $54 $-1 #
coedge $-1 $87 $215 $218 $219 forward $54 $-1 #
coedge $-1 $220 $221 $87 $141 reversed $222 $-1 #
edge $-1 $223 -242.83944212164678 $224 242.83944212164678 $140 $225 forward 7 unknown #
loop $-1 $226 $227 $88 #
cone-surface $-1 0 0 0 0 0 1 0.75 0 0 1 I I -0.70710678118654757 0.70710678118654757 0.75 forward I I I I #
coedge $-1 $144 $144 $92 $146 forward $89 $-1 #
coedge $-1 $145 $145 $227 $228 forward $91 $-1 #
edge $-1 $229 0 $229 6.2831853071796004 $144 $230 forward 7 unknown #
loop $-1 $231 $232 $93 #
cone-surface $-1 0 0 0 0 0 1 0.75 0 0 1 I I -0.70710678118654757 0.70710678118654757 0.75 forward I I I I #
coedge $-1 $149 $149 $97 $151 forward $94 $-1 #
coedge $-1 $150 $150 $232 $233 forward $96 $-1 #
edge $-1 $234 0 $234 6.2831853071796004 $149 $235 forward 7 unknown #
face $-1 $236 $237 $34 $-1 $238 reversed single #
loop $-1 $-1 $239 $98 #
plane-surface $-1 0 -242.83944212164678 0 0 1 0 0 0 1 forward_v I I I I #
coedge $-1 $240 $241 $242 $243 forward $99 $-1 #
coedge $-1 $244 $101 $245 $246 forward $63 $-1 #
coedge $-1 $101 $244 $247 $248 forward $63 $-1 #
coedge $-1 $249 $250 $101 $159 reversed $251 $-1 #
edge $-1 $252 -242.83944212164678 $253 242.83944212164678 $158 $254 forward 7 unknown #
loop $-1 $255 $256 $102 #
cone-surface $-1 0 0 0 0 0 1 0.75 0 0 1 I I -0.70710678118654757 0.70710678118654757 0.75 forward I I I I #
coedge $-1 $162 $162 $106 $164 forward $103 $-1 #
coedge $-1 $163 $163 $256 $257 forward $105 $-1 #
edge $-1 $258 0 $258 6.2831853071796004 $162 $259 forward 7 unknown #
loop $-1 $260 $261 $107 #
cone-surface $-1 0 0 0 0 0 1 0.75 0 0 1 I I -0.70710678118654757 0.70710678118654757 0.75 forward I I I I #
coedge $-1 $167 $167 $111 $169 forward $108 $-1 #
coedge $-1 $168 $168 $261 $262 forward $110 $-1 #
edge $-1 $263 0 $263 6.2831853071796004 $167 $264 forward 7 unknown #
face $-1 $265 $266 $37 $-1 $267 reversed single #
loop $-1 $-1 $268 $112 #
plane-surface $-1 0 -242.83944212164678 0 0 1 0 0 0 1 forward_v I I I I #
coedge $-1 $269 $270 $271 $272 forward $113 $-1 #
coedge $-1 $273 $115 $274 $275 forward $72 $-1 #
coedge $-1 $115 $273 $276 $277 forward $72 $-1 #
coedge $-1 $278 $279 $115 $177 reversed $280 $-1 #
edge $-1 $281 -242.83944212164678 $282 242.83944212164678 $176 $283 forward 7 unknown #
loop $-1 $284 $285 $116 #
cone-surface $-1 0 0 0 0 0 1 0.5 0 0 1 I I -0.70710678118654746 0.70710678118654746 0.5 forward I I I I #
coedge $-1 $180 $180 $120 $182 forward $117 $-1 #
coedge $-1 $181 $181 $285 $286 forward $119 $-1 #
edge $-1 $287 0 $287 6.2831853071796004 $180 $288 forward 7 unknown #
loop $-1 $289 $290 $121 #
cone-surface $-1 0 0 0 0 0 1 0.5 0 0 1 I I -0.70710678118654746 0.70710678118654746 0.5 forward I I I I #
coedge $-1 $185 $185 $125 $187 forward $122 $-1 #
coedge $-1 $186 $186 $290 $291 forward $124 $-1 #
edge $-1 $292 0 $292 6.2831853071796004 $185 $293 forward 7 unknown #
face $-1 $294 $295 $30 $-1 $296 reversed single #
loop $-1 $-1 $297 $126 #
plane-surface $-1 -60.709860530411696 0 0 1 0 0 0 0 -1 forward_v I I I I #
coedge $-1 $298 $199 $299 $300 forward $127 $-1 #
coedge $-1 $301 $129 $298 $302 forward $81 $-1 #
coedge $-1 $129 $301 $303 $304 forward $81 $-1 #
coedge $-1 $202 $201 $129 $195 reversed $203 $-1 #
edge $-1 $305 -31.217396773488776 $306 31.217396773488776 $194 $307 forward 7 unknown #
coedge $-1 $131 $130 $308 $309 forward $51 $-1 #
coedge $-1 $310 $311 $130 $198 reversed $295 $-1 #
edge $-1 $205 -60.709860530411696 $312 60.709860530411696 $197 $313 forward 7 unknown #
coedge $-1 $191 $314 $131 $200 reversed $127 $-1 #
edge $-1 $315 -60.709860530411696 $204 60.709860530411696 $199 $316 forward 7 unknown #
coedge $-1 $194 $132 $314 $317 forward $203 $-1 #
coedge $-1 $132 $194 $310 $318 reversed $203 $-1 #
loop $-1 $-1 $201 $294 #
vertex $-1 $133 $319 #
vertex $-1 $133 $320 #
straight-curve $-1 60.709860530411696 0 7.3458582666092473 0 1 0 I I #
face $-1 $321 $322 $31 $-1 $323 reversed single #
loop $-1 $-1 $324 $134 #
plane-surface $-1 -8.8632097937668082 0 0 1 0 0 0 0 -1 forward_v I I I I #
coedge $-1 $325 $218 $326 $327 forward $135 $-1 #
coedge $-1 $328 $137 $325 $329 forward $85 $-1 #
coedge $-1 $137 $328 $330 $331 forward $85 $-1 #
coedge $-1 $221 $220 $137 $214 reversed $222 $-1 #
edge $-1 $332 -242.83944212164678 $333 242.83944212164678 $213 $334 forward 7 unknown #
coedge $-1 $139 $138 $335 $336 forward $54 $-1 #
coedge $-1 $337 $338 $138 $217 reversed $322 $-1 #
edge $-1 $224 -8.8632097937668082 $339 8.8632097937668082 $216 $340 forward 7 unknown #
coedge $-1 $210 $341 $139 $219 reversed $135 $-1 #
edge $-1 $342 -8.8632097937668082 $223 8.8632097937668082 $218 $343 forward 7 unknown #
coedge $-1 $213 $140 $341 $344 forward $222 $-1 #
coedge $-1 $140 $213 $337 $345 reversed $222 $-1 #
loop $-1 $-1 $220 $321 #
vertex $-1 $141 $346 #
vertex $-1 $141 $347 #
straight-curve $-1 8.8632097937668082 0 121.41972106082339 0 1 0 I I #
loop $-1 $-1 $348 $88 #
coedge $-1 $227 $227 $145 $228 reversed $142 $-1 #
edge $-1 $349 0 $349 6.2831853071796004 $227 $350 forward 7 unknown #
vertex $-1 $146 $351 #
ellipse-curve $-1 0 0 -6.0884655293435461 0 0 -1 1.5 0 0 1 I I #
loop $-1 $-1 $352 $93 #
coedge $-1 $232 $232 $150 $233 reversed $147 $-1 #
edge $-1 $353 0 $353 6.2831853071796004 $232 $354 forward 7 unknown #
vertex $-1 $151 $355 #
ellipse-curve $-1 0 0 -6.0884655293435461 0 0 -1 1.5 0 0 1 I I #
face $-1 $356 $357 $34 $-1 $358 reversed single #
loop $-1 $-1 $359 $152 #
plane-surface $-1 -8.8632097937668082 0 0 1 0 0 0 0 -1 forward_v I I I I #
coedge $-1 $360 $247 $361 $362 forward $153 $-1 #
coedge $-1 $363 $155 $360 $364 forward $99 $-1 #
coedge $-1 $155 $363 $365 $366 forward $99 $-1 #
coedge $-1 $250 $249 $155 $243 reversed $251 $-1 #
edge $-1 $367 -242.83944212164678 $368 242.83944212164678 $242 $369 forward 7 unknown #
coedge $-1 $157 $156 $370 $371 forward $63 $-1 #
coedge $-1 $372 $373 $156 $246 reversed $357 $-1 #
edge $-1 $253 -8.8632097937668082 $374 8.8632097937668082 $245 $375 forward 7 unknown #
coedge $-1 $239 $376 $157 $248 reversed $153 $-1 #
edge $-1 $377 -8.8632097937668082 $252 8.8632097937668082 $247 $378 forward 7 unknown #
coedge $-1 $242 $158 $376 $379 forward $251 $-1 #
coedge $-1 $158 $242 $372 $380 reversed $251 $-1 #
loop $-1 $-1 $249 $356 #
vertex $-1 $159 $381 #
vertex $-1 $159 $382 #
straight-curve $-1 8.8632097937668082 0 121.41972106082339 0 1 0 I I #
loop $-1 $-1 $383 $102 #
coedge $-1 $256 $256 $163 $257 reversed $160 $-1 #
edge $-1 $384 0 $384 6.2831853071796004 $256 $385 forward 7 unknown #
vertex $-1 $164 $386 #
ellipse-curve $-1 0 0 -6.0884655293435461 0 0 -1 1.5 0 0 1 I I #
loop $-1 $-1 $387 $107 #
coedge $-1 $261 $261 $168 $262 reversed $165 $-1 #
edge $-1 $388 0 $388 6.2831853071796004 $261 $389 forward 7 unknown #
vertex $-1 $169 $390 #
ellipse-curve $-1 0 0 -6.0884655293435461 0 0 -1 1.5 0 0 1 I I #
face $-1 $391 $392 $37 $-1 $393 reversed single #
loop $-1 $-1 $394 $170 #
plane-surface $-1 -16.815225111113541 0 0 1 0 0 0 0 -1 forward_v I I I I #
coedge $-1 $395 $276 $396 $397 forward $171 $-1 #
coedge $-1 $398 $173 $395 $399 forward $113 $-1 #
coedge $-1 $173 $398 $400 $401 forward $113 $-1 #
coedge $-1 $279 $278 $173 $272 reversed $280 $-1 #
edge $-1 $402 -242.83944212164678 $403 242.83944212164678 $271 $404 forward 7 unknown #
coedge $-1 $175 $174 $405 $406 forward $72 $-1 #
coedge $-1 $407 $408 $174 $275 reversed $392 $-1 #
edge $-1 $282 -16.815225111113541 $409 16.815225111113541 $274 $410 forward 7 unknown #
coedge $-1 $268 $411 $175 $277 reversed $171 $-1 #
edge $-1 $412 -16.815225111113541 $281 16.815225111113541 $276 $413 forward 7 unknown #
coedge $-1 $271 $176 $411 $414 forward $280 $-1 #
coedge $-1 $176 $271 $407 $415 reversed $280 $-1 #
loop $-1 $-1 $278 $391 #
vertex $-1 $177 $416 #
vertex $-1 $177 $417 #
straight-curve $-1 16.815225111113541 0 121.41972106082339 0 1 0 I I #
loop $-1 $-1 $418 $116 #
coedge $-1 $285 $285 $181 $286 reversed $178 $-1 #
edge $-1 $419 0 $419 6.2831853071796004 $285 $420 forward 7 unknown #
vertex $-1 $182 $421 #
ellipse-curve $-1 0 0 -3.0077364421521651 0 0 -1 1 0 0 1 I I #
loop $-1 $-1 $422 $121 #
coedge $-1 $290 $290 $186 $291 reversed $183 $-1 #
edge $-1 $423 0 $423 6.2831853071796004 $290 $424 forward 7 unknown #
vertex $-1 $187 $425 #
ellipse-curve $-1 0 0 -3.0077364421521651 0 0 -1 1 0 0 1 I I #
face $-1 $-1 $203 $30 $-1 $426 reversed single #
loop $-1 $-1 $310 $188 #
plane-surface $-1 0 31.217396773488776 0 0 -1 0 0 0 -1 forward_v I I I I #
coedge $-1 $427 $308 $311 $428 forward $189 $-1 #
coedge $-1 $314 $191 $192 $302 reversed $127 $-1 #
coedge $-1 $308 $427 $191 $300 reversed $189 $-1 #
edge $-1 $315 -7.3458582666092473 $429 7.3458582666092473 $299 $430 forward 7 unknown #
coedge $-1 $193 $192 $427 $431 forward $81 $-1 #
edge $-1 $306 -60.709860530411696 $429 60.709860530411696 $298 $432 forward 7 unknown #
coedge $-1 $311 $310 $193 $304 reversed $295 $-1 #
edge $-1 $433 -60.709860530411696 $305 60.709860530411696 $303 $434 forward 7 unknown #
vertex $-1 $195 $435 #
vertex $-1 $317 $436 #
straight-curve $-1 60.709860530411696 0 -7.3458582666092473 0 -1 0 I I #
coedge $-1 $297 $299 $196 $309 reversed $189 $-1 #
edge $-1 $312 -31.217396773488776 $315 31.217396773488776 $308 $437 forward 7 unknown #
coedge $-1 $303 $197 $202 $318 forward $295 $-1 #
coedge $-1 $197 $303 $297 $428 reversed $295 $-1 #
vertex $-1 $198 $438 #
straight-curve $-1 0 31.217396773488776 7.3458582666092473 -1 0 0 I I #
coedge $-1 $199 $298 $201 $317 reversed $127 $-1 #
vertex $-1 $309 $439 #
straight-curve $-1 0 -31.217396773488776 7.3458582666092473 1 0 0 I I #
edge $-1 $204 -7.3458582666092473 $306 7.3458582666092473 $201 $440 forward 7 unknown #
edge $-1 $205 -7.3458582666092473 $305 7.3458582666092473 $202 $441 forward 7 unknown #
point $-1 60.709860530411696 -31.217396773488776 7.3458582666092473 #
point $-1 60.709860530411696 31.217396773488776 7.3458582666092473 #
face $-1 $-1 $222 $31 $-1 $442 reversed single #
loop $-1 $-1 $337 $207 #
plane-surface $-1 0 242.83944212164678 0 0 -1 0 0 0 -1 forward_v I I I I #
coedge $-1 $443 $335 $338 $444 forward $208 $-1 #
coedge $-1 $341 $210 $211 $329 reversed $135 $-1 #
coedge $-1 $335 $443 $210 $327 reversed $208 $-1 #
edge $-1 $342 -121.41972106082339 $445 121.41972106082339 $326 $446 forward 7 unknown #
coedge $-1 $212 $211 $443 $447 forward $85 $-1 #
edge $-1 $333 -8.8632097937668082 $445 8.8632097937668082 $325 $448 forward 7 unknown #
coedge $-1 $338 $337 $212 $331 reversed $322 $-1 #
edge $-1 $449 -8.8632097937668082 $332 8.8632097937668082 $330 $450 forward 7 unknown #
vertex $-1 $214 $451 #
vertex $-1 $344 $452 #
straight-curve $-1 8.8632097937668082 0 -121.41972106082339 0 -1 0 I I #
coedge $-1 $324 $326 $215 $336 reversed $208 $-1 #
edge $-1 $339 -242.83944212164678 $342 242.83944212164678 $335 $453 forward 7 unknown #
coedge $-1 $330 $216 $221 $345 forward $322 $-1 #
coedge $-1 $216 $330 $324 $444 reversed $322 $-1 #
vertex $-1 $217 $454 #
straight-curve $-1 0 242.83944212164678 121.41972106082339 -1 0 0 I I #
coedge $-1 $218 $325 $220 $344 reversed $135 $-1 #
vertex $-1 $336 $455 #
straight-curve $-1 0 -242.83944212164678 121.41972106082339 1 0 0 I I #
edge $-1 $223 -121.41972106082339 $333 121.41972106082339 $220 $456 forward 7 unknown #
edge $-1 $224 -121.41972106082339 $332 121.41972106082339 $221 $457 forward 7 unknown #
point $-1 8.8632097937668082 -242.83944212164678 121.41972106082339 #
point $-1 8.8632097937668082 242.83944212164678 121.41972106082339 #
coedge $-1 $348 $348 $-1 $458 reversed $226 $-1 #
vertex $-1 $228 $459 #
ellipse-curve $-1 0 0 -0.75 0 0 -1 1.5 0 0 1 I I #
point $-1 1.5 0 -6.0884655293435461 #
coedge $-1 $352 $352 $-1 $460 reversed $231 $-1 #
vertex $-1 $233 $461 #
ellipse-curve $-1 0 0 -0.75 0 0 -1 1.5 0 0 1 I I #
point $-1 1.5 0 -6.0884655293435461 #
face $-1 $-1 $251 $34 $-1 $462 reversed single #
loop $-1 $-1 $372 $236 #
plane-surface $-1 0 242.83944212164678 0 0 -1 0 0 0 -1 forward_v I I I I #
coedge $-1 $463 $370 $373 $464 forward $237 $-1 #
coedge $-1 $376 $239 $240 $364 reversed $153 $-1 #
coedge $-1 $370 $463 $239 $362 reversed $237 $-1 #
edge $-1 $377 -121.41972106082339 $465 121.41972106082339 $361 $466 forward 7 unknown #
coedge $-1 $241 $240 $463 $467 forward $99 $-1 #
edge $-1 $368 -8.8632097937668082 $465 8.8632097937668082 $360 $468 forward 7 unknown #
coedge $-1 $373 $372 $241 $366 reversed $357 $-1 #
edge $-1 $469 -8.8632097937668082 $367 8.8632097937668082 $365 $470 forward 7 unknown #
vertex $-1 $243 $471 #
vertex $-1 $379 $472 #
straight-curve $-1 8.8632097937668082 0 -121.41972106082339 0 -1 0 I I #
coedge $-1 $359 $361 $244 $371 reversed $237 $-1 #
edge $-1 $374 -242.83944212164678 $377 242.83944212164678 $370 $473 forward 7 unknown #
coedge $-1 $365 $245 $250 $380 forward $357 $-1 #
coedge $-1 $245 $365 $359 $464 reversed $357 $-1 #
vertex $-1 $246 $474 #
straight-curve $-1 0 242.83944212164678 121.41972106082339 -1 0 0 I I #
coedge $-1 $247 $360 $249 $379 reversed $153 $-1 #
vertex $-1 $371 $475 #
straight-curve $-1 0 -242.83944212164678 121.41972106082339 1 0 0 I I #
edge $-1 $252 -121.41972106082339 $368 121.41972106082339 $249 $476 forward 7 unknown #
edge $-1 $253 -121.41972106082339 $367 121.41972106082339 $250 $477 forward 7 unknown #
point $-1 8.8632097937668082 -242.83944212164678 121.41972106082339 #
point $-1 8.8632097937668082 242.83944212164678 121.41972106082339 #
coedge $-1 $383 $383 $-1 $478 reversed $255 $-1 #
vertex $-1 $257 $479 #
ellipse-curve $-1 0 0 -0.75 0 0 -1 1.5 0 0 1 I I #
point $-1 1.5 0 -6.0884655293435461 #
coedge $-1 $387 $387 $-1 $480 reversed $260 $-1 #
vertex $-1 $262 $481 #
ellipse-curve $-1 0 0 -0.75 0 0 -1 1.5 0 0 1 I I #
point $-1 1.5 0 -6.0884655293435461 #
face $-1 $-1 $280 $37 $-1 $482 reversed single #
loop $-1 $-1 $407 $265 #
plane-surface $-1 0 242.83944212164678 0 0 -1 0 0 0 -1 forward_v I I I I #
coedge $-1 $483 $405 $408 $484 forward $266 $-1 #
coedge $-1 $411 $268 $269 $399 reversed $171 $-1 #
coedge $-1 $405 $483 $268 $397 reversed $266 $-1 #
edge $-1 $412 -121.41972106082339 $485 121.41972106082339 $396 $486 forward 7 unknown #
coedge $-1 $270 $269 $483 $487 forward $113 $-1 #
edge $-1 $403 -16.815225111113541 $485 16.815225111113541 $395 $488 forward 7 unknown #
coedge $-1 $408 $407 $270 $401 reversed $392 $-1 #
edge $-1 $489 -16.815225111113541 $402 16.815225111113541 $400 $490 forward 7 unknown #
vertex $-1 $272 $491 #
vertex $-1 $414 $492 #
straight-curve $-1 16.815225111113541 0 -121.41972106082339 0 -1 0 I I #
coedge $-1 $394 $396 $273 $406 reversed $266 $-1 #
edge $-1 $409 -242.83944212164678 $412 242.83944212164678 $405 $493 forward 7 unknown #
coedge $-1 $400 $274 $279 $415 forward $392 $-1 #
coedge $-1 $274 $400 $394 $484 reversed $392 $-1 #
vertex $-1 $275 $494 #
straight-curve $-1 0 242.83944212164678 121.41972106082339 -1 0 0 I I #
coedge $-1 $276 $395 $278 $414 reversed $171 $-1 #
vertex $-1 $406 $495 #
straight-curve $-1 0 -242.83944212164678 121.41972106082339 1 0 0 I I #
edge $-1 $281 -121.41972106082339 $403 121.41972106082339 $278 $496 forward 7 unknown #
edge $-1 $282 -121.41972106082339 $402 121.41972106082339 $279 $497 forward 7 unknown #
point $-1 16.815225111113541 -242.83944212164678 121.41972106082339 #
point $-1 16.815225111113541 242.83944212164678 121.41972106082339 #
coedge $-1 $418 $418 $-1 $498 reversed $284 $-1 #
vertex $-1 $286 $499 #
ellipse-curve $-1 0 0 -0.5 0 0 -1 1 0 0 1 I I #
point $-1 1 0 -3.0077364421521651 #
coedge $-1 $422 $422 $-1 $500 reversed $289 $-1 #
vertex $-1 $291 $501 #
ellipse-curve $-1 0 0 -0.5 0 0 -1 1 0 0 1 I I #
point $-1 1 0 -3.0077364421521651 #
plane-surface $-1 60.709860530411696 0 0 -1 0 0 0 0 1 forward_v I I I I #
coedge $-1 $299 $297 $301 $431 reversed $189 $-1 #
edge $-1 $312 -7.3458582666092473 $433 7.3458582666092473 $311 $502 forward 7 unknown #
vertex $-1 $431 $503 #
straight-curve $-1 -60.709860530411696 -31.217396773488776 0 0 0 -1 I I #
edge $-1 $429 -31.217396773488776 $433 31.217396773488776 $427 $504 forward 7 unknown #
straight-curve $-1 0 -31.217396773488776 -7.3458582666092473 -1 0 0 I I #
vertex $-1 $304 $505 #
straight-curve $-1 0 31.217396773488776 -7.3458582666092473 1 0 0 I I #
point $-1 60.709860530411696 31.217396773488776 -7.3458582666092473 #
point $-1 60.709860530411696 -31.217396773488776 -7.3458582666092473 #
straight-curve $-1 -60.709860530411696 0 7.3458582666092473 0 -1 0 I I #
point $-1 -60.709860530411696 31.217396773488776 7.3458582666092473 #
point $-1 -60.709860530411696 -31.217396773488776 7.3458582666092473 #
straight-curve $-1 60.709860530411696 -31.217396773488776 0 0 0 -1 I I #
straight-curve $-1 60.709860530411696 31.217396773488776 0 0 0 -1 I I #
plane-surface $-1 8.8632097937668082 0 0 -1 0 0 0 0 1 forward_v I I I I #
coedge $-1 $326 $324 $328 $447 reversed $208 $-1 #
edge $-1 $339 -121.41972106082339 $449 121.41972106082339 $338 $506 forward 7 unknown #
vertex $-1 $447 $507 #
straight-curve $-1 -8.8632097937668082 -242.83944212164678 0 0 0 -1 I I #
edge $-1 $445 -242.83944212164678 $449 242.83944212164678 $443 $508 forward 7 unknown #
straight-curve $-1 0 -242.83944212164678 -121.41972106082339 -1 0 0 I I #
vertex $-1 $331 $509 #
straight-curve $-1 0 242.83944212164678 -121.41972106082339 1 0 0 I I #
point $-1 8.8632097937668082 242.83944212164678 -121.41972106082339 #
point $-1 8.8632097937668082 -242.83944212164678 -121.41972106082339 #
straight-curve $-1 -8.8632097937668082 0 121.41972106082339 0 -1 0 I I #
point $-1 -8.8632097937668082 242.83944212164678 121.41972106082339 #
point $-1 -8.8632097937668082 -242.83944212164678 121.41972106082339 #
straight-curve $-1 8.8632097937668082 -242.83944212164678 0 0 0 -1 I I #
straight-curve $-1 8.8632097937668082 242.83944212164678 0 0 0 -1 I I #
edge $-1 $510 1 $510 0 $348 $-1 forward 7 unknown #
point $-1 1.5 0 -0.75 #
edge $-1 $511 1 $511 0 $352 $-1 forward 7 unknown #
point $-1 1.5 0 -0.75 #
plane-surface $-1 8.8632097937668082 0 0 -1 0 0 0 0 1 forward_v I I I I #
coedge $-1 $361 $359 $363 $467 reversed $237 $-1 #
edge $-1 $374 -121.41972106082339 $469 121.41972106082339 $373 $512 forward 7 unknown #
vertex $-1 $467 $513 #
straight-curve $-1 -8.8632097937668082 -242.83944212164678 0 0 0 -1 I I #
edge $-1 $465 -242.83944212164678 $469 242.83944212164678 $463 $514 forward 7 unknown #
straight-curve $-1 0 -242.83944212164678 -121.41972106082339 -1 0 0 I I #
vertex $-1 $366 $515 #
straight-curve $-1 0 242.83944212164678 -121.41972106082339 1 0 0 I I #
point $-1 8.8632097937668082 242.83944212164678 -121.41972106082339 #
point $-1 8.8632097937668082 -242.83944212164678 -121.41972106082339 #
straight-curve $-1 -8.8632097937668082 0 121.41972106082339 0 -1 0 I I #
point $-1 -8.8632097937668082 242.83944212164678 121.41972106082339 #
point $-1 -8.8632097937668082 -242.83944212164678 121.41972106082339 #
straight-curve $-1 8.8632097937668082 -242.83944212164678 0 0 0 -1 I I #
straight-curve $-1 8.8632097937668082 242.83944212164678 0 0 0 -1 I I #
edge $-1 $516 1 $516 0 $383 $-1 forward 7 unknown #
point $-1 1.5 0 -0.75 #
edge $-1 $517 1 $517 0 $387 $-1 forward 7 unknown #
point $-1 1.5 0 -0.75 #
plane-surface $-1 16.815225111113541 0 0 -1 0 0 0 0 1 forward_v I I I I #
coedge $-1 $396 $394 $398 $487 reversed $266 $-1 #
edge $-1 $409 -121.41972106082339 $489 121.41972106082339 $408 $518 forward 7 unknown #
vertex $-1 $487 $519 #
straight-curve $-1 -16.815225111113541 -242.83944212164678 0 0 0 -1 I I #
edge $-1 $485 -242.83944212164678 $489 242.83944212164678 $483 $520 forward 7 unknown #
straight-curve $-1 0 -242.83944212164678 -121.41972106082339 -1 0 0 I I #
vertex $-1 $401 $521 #
straight-curve $-1 0 242.83944212164678 -121.41972106082339 1 0 0 I I #
point $-1 16.815225111113541 242.83944212164678 -121.41972106082339 #
point $-1 16.815225111113541 -242.83944212164678 -121.41972106082339 #
straight-curve $-1 -16.815225111113541 0 121.41972106082339 0 -1 0 I I #
point $-1 -16.815225111113541 242.83944212164678 121.41972106082339 #
point $-1 -16.815225111113541 -242.83944212164678 121.41972106082339 #
straight-curve $-1 16.815225111113541 -242.83944212164678 0 0 0 -1 I I #
straight-curve $-1 16.815225111113541 242.83944212164678 0 0 0 -1 I I #
edge $-1 $522 1 $522 0 $418 $-1 forward 7 unknown #
point $-1 1 0 -0.5 #
edge $-1 $523 1 $523 0 $422 $-1 forward 7 unknown #
point $-1 1 0 -0.5 #
straight-curve $-1 -60.709860530411696 31.217396773488776 0 0 0 -1 I I #
point $-1 -60.709860530411696 -31.217396773488776 -7.3458582666092473 #
straight-curve $-1 -60.709860530411696 0 -7.3458582666092473 0 1 0 I I #
point $-1 -60.709860530411696 31.217396773488776 -7.3458582666092473 #
straight-curve $-1 -8.8632097937668082 242.83944212164678 0 0 0 -1 I I #
point $-1 -8.8632097937668082 -242.83944212164678 -121.41972106082339 #
straight-curve $-1 -8.8632097937668082 0 -121.41972106082339 0 1 0 I I #
point $-1 -8.8632097937668082 242.83944212164678 -121.41972106082339 #
vertex $-1 $458 $524 #
vertex $-1 $460 $525 #
straight-curve $-1 -8.8632097937668082 242.83944212164678 0 0 0 -1 I I #
point $-1 -8.8632097937668082 -242.83944212164678 -121.41972106082339 #
straight-curve $-1 -8.8632097937668082 0 -121.41972106082339 0 1 0 I I #
point $-1 -8.8632097937668082 242.83944212164678 -121.41972106082339 #
vertex $-1 $478 $526 #
vertex $-1 $480 $527 #
straight-curve $-1 -16.815225111113541 242.83944212164678 0 0 0 -1 I I #
point $-1 -16.815225111113541 -242.83944212164678 -121.41972106082339 #
straight-curve $-1 -16.815225111113541 0 -121.41972106082339 0 1 0 I I #
point $-1 -16.815225111113541 242.83944212164678 -121.41972106082339 #
vertex $-1 $498 $528 #
vertex $-1 $500 $529 #
point $-1 0 0 0.75 #
point $-1 0 0 0.75 #
point $-1 0 0 0.75 #
point $-1 0 0 0.75 #
point $-1 0 0 0.5 #
point $-1 0 0 0.5 #
End-of-ACIS-data 