500 0 21 0           
7 Unknown 11 ACIS 5.0 NT 24 Thu Mar 25 22:19:00 1999 
-1 9.9999999999999995e-007 1e-010 
body $-1 $21 $-1 $22 #
body $-1 $23 $-1 $24 #
body $-1 $25 $-1 $26 #
body $-1 $27 $-1 $28 #
body $-1 $29 $-1 $30 #
body $-1 $31 $-1 $32 #
body $-1 $33 $-1 $34 #
body $-1 $35 $-1 $36 #
body $-1 $37 $-1 $38 #
body $-1 $39 $-1 $40 #
body $-1 $41 $-1 $42 #
body $-1 $43 $-1 $44 #
body $-1 $45 $-1 $46 #
body $-1 $47 $-1 $48 #
body $-1 $49 $-1 $50 #
body $-1 $51 $-1 $52 #
body $-1 $53 $-1 $54 #
body $-1 $55 $-1 $56 #
body $-1 $57 $-1 $58 #
body $-1 $59 $-1 $60 #
body $-1 $61 $-1 $62 #
lump $-1 $-1 $63 $0 #
transform $-1 1 0 0 0 1 0 0 0 1 68.960844752342297 41.580651324227951 18.112144424289852 1 rotate no_reflect no_shear #
lump $-1 $-1 $64 $1 #
transform $-1 1 0 0 0 1 0 0 0 1 68.960844752342297 41.580651324227951 18.112144424289852 1 rotate no_reflect no_shear #
lump $-1 $-1 $65 $2 #
transform $-1 1 0 0 0 1 0 0 0 1 68.960844752342297 41.580651324227951 18.112144424289852 1 rotate no_reflect no_shear #
lump $-1 $-1 $66 $3 #
transform $-1 1 0 0 0 1 0 0 0 1 68.960844752342297 41.580651324227951 18.112144424289852 1 rotate no_reflect no_shear #
lump $-1 $-1 $67 $4 #
transform $-1 1 0 0 0 1 0 0 0 1 68.960844752342297 41.580651324227951 18.112144424289852 1 rotate no_reflect no_shear #
lump $-1 $-1 $68 $5 #
transform $-1 1 0 0 0 1 0 0 0 1 68.960844752342297 41.580651324227951 18.112144424289852 1 rotate no_reflect no_shear #
lump $-1 $-1 $69 $6 #
transform $-1 1 0 0 0 1 0 0 0 1 68.960844752342297 41.580651324227951 18.112144424289852 1 rotate no_reflect no_shear #
lump $-1 $-1 $70 $7 #
transform $-1 1 0 0 0 1 0 0 0 1 68.960844752342297 41.580651324227951 18.112144424289852 1 rotate no_reflect no_shear #
lump $-1 $-1 $71 $8 #
transform $-1 1 0 0 0 1 0 0 0 1 68.960844752342297 41.580651324227951 18.112144424289852 1 rotate no_reflect no_shear #
lump $-1 $-1 $72 $9 #
transform $-1 1 0 0 0 1 0 0 0 1 68.960844752342297 41.580651324227951 18.112144424289852 1 rotate no_reflect no_shear #
lump $-1 $-1 $73 $10 #
transform $-1 1 0 0 0 1 0 0 0 1 68.960844752342297 41.580651324227951 18.112144424289852 1 rotate no_reflect no_shear #
lump $-1 $-1 $74 $11 #
transform $-1 1 0 0 0 1 0 0 0 1 68.960844752342297 41.580651324227951 18.112144424289852 1 rotate no_reflect no_shear #
lump $-1 $-1 $75 $12 #
transform $-1 1 0 0 0 1 0 0 0 1 68.960844752342297 41.580651324227951 18.112144424289852 1 rotate no_reflect no_shear #
lump $-1 $-1 $76 $13 #
transform $-1 1 0 0 0 1 0 0 0 1 68.960844752342297 41.580651324227951 18.112144424289852 1 rotate no_reflect no_shear #
lump $-1 $-1 $77 $14 #
transform $-1 1 0 0 0 1 0 0 0 1 68.960844752342297 41.580651324227951 18.112144424289852 1 rotate no_reflect no_shear #
lump $-1 $-1 $78 $15 #
transform $-1 1 0 0 0 1 0 0 0 1 68.960844752342297 41.580651324227951 18.112144424289852 1 rotate no_reflect no_shear #
lump $-1 $-1 $79 $16 #
transform $-1 1 0 0 0 1 0 0 0 1 68.960844752342297 41.580651324227951 18.112144424289852 1 rotate no_reflect no_shear #
lump $-1 $-1 $80 $17 #
transform $-1 1 0 0 0 1 0 0 0 1 68.960844752342297 41.580651324227951 18.112144424289852 1 rotate no_reflect no_shear #
lump $-1 $-1 $81 $18 #
transform $-1 1 0 0 0 1 0 0 0 1 68.960844752342297 41.580651324227951 18.112144424289852 1 rotate no_reflect no_shear #
lump $-1 $-1 $82 $19 #
transform $-1 1 0 0 0 1 0 0 0 1 68.960844752342297 41.580651324227951 18.112144424289852 1 rotate no_reflect no_shear #
lump $-1 $-1 $83 $20 #
transform $-1 1 0 0 0 1 0 0 0 1 68.960844752342297 41.580651324227951 18.112144424289852 1 rotate no_reflect no_shear #
shell $-1 $-1 $-1 $84 $-1 $21 #
shell $-1 $-1 $-1 $85 $-1 $23 #
shell $-1 $-1 $-1 $86 $-1 $25 #
shell $-1 $-1 $-1 $87 $-1 $27 #
shell $-1 $-1 $-1 $88 $-1 $29 #
shell $-1 $-1 $-1 $89 $-1 $31 #
shell $-1 $-1 $-1 $90 $-1 $33 #
shell $-1 $-1 $-1 $91 $-1 $35 #
shell $-1 $-1 $-1 $92 $-1 $37 #
shell $-1 $-1 $-1 $93 $-1 $39 #
shell $-1 $-1 $-1 $94 $-1 $41 #
shell $-1 $-1 $-1 $95 $-1 $43 #
shell $-1 $-1 $-1 $96 $-1 $45 #
shell $-1 $-1 $-1 $97 $-1 $47 #
shell $-1 $-1 $-1 $98 $-1 $49 #
shell $-1 $-1 $-1 $99 $-1 $51 #
shell $-1 $-1 $-1 $100 $-1 $53 #
shell $-1 $-1 $-1 $101 $-1 $55 #
shell $-1 $-1 $-1 $102 $-1 $57 #
shell $-1 $-1 $-1 $103 $-1 $59 #
shell $-1 $-1 $-1 $104 $-1 $61 #
face $-1 $105 $106 $63 $-1 $107 forward single #
face $-1 $108 $109 $64 $-1 $110 reversed single #
face $-1 $111 $112 $65 $-1 $113 forward single #
face $-1 $114 $115 $66 $-1 $116 forward single #
face $-1 $117 $118 $67 $-1 $119 forward single #
face $-1 $120 $121 $68 $-1 $122 reversed single #
face $-1 $123 $124 $69 $-1 $125 forward single #
face $-1 $126 $127 $70 $-1 $128 forward single #
face $-1 $129 $130 $71 $-1 $131 forward single #
face $-1 $132 $133 $72 $-1 $134 reversed single #
face $-1 $135 $136 $73 $-1 $137 forward single #
face $-1 $138 $139 $74 $-1 $140 forward single #
face $-1 $141 $142 $75 $-1 $143 forward single #
face $-1 $144 $145 $76 $-1 $146 reversed single #
face $-1 $147 $148 $77 $-1 $149 forward single #
face $-1 $150 $151 $78 $-1 $152 forward single #
face $-1 $153 $154 $79 $-1 $155 forward single #
face $-1 $156 $157 $80 $-1 $158 reversed single #
face $-1 $159 $160 $81 $-1 $161 forward single #
face $-1 $162 $163 $82 $-1 $164 forward single #
face $-1 $165 $166 $83 $-1 $167 forward single #
face $-1 $168 $169 $63 $-1 $170 reversed single #
loop $-1 $-1 $171 $84 #
plane-surface $-1 0 0 18.112144424289852 0 0 1 1 0 0 forward_v I I I I #
face $-1 $172 $173 $64 $-1 $174 reversed single #
loop $-1 $-1 $175 $85 #
plane-surface $-1 55.354796112720067 22.198512214880346 205.15782704469979 0 1 0 0.6560590369687036 0 0.75470957328743171 forward_v I I I I #
face $-1 $176 $177 $65 $-1 $178 forward single #
loop $-1 $179 $180 $86 #
cone-surface $-1 63.566075141453247 26.074940036749872 13.12356011513261 -0.6560590369687036 0 -0.75470957328743171 0.75470957328743171 0 -0.6560590369687036 1 I I 0 1 1 forward I I I I #
face $-1 $181 $182 $66 $-1 $183 forward single #
loop $-1 $184 $185 $87 #
cone-surface $-1 63.566075141453247 31.889581769554148 13.12356011513261 -0.6560590369687036 0 -0.75470957328743171 0.75470957328743171 0 -0.6560590369687036 1 I I 0 1 1 forward I I I I #
face $-1 $186 $187 $67 $-1 $188 forward single #
loop $-1 $189 $190 $88 #
cone-surface $-1 63.566075141453247 37.704223502358424 13.12356011513261 -0.6560590369687036 0 -0.75470957328743171 0.75470957328743171 0 -0.6560590369687036 1 I I 0 1 1 forward I I I I #
face $-1 $191 $192 $68 $-1 $193 reversed single #
loop $-1 $-1 $194 $89 #
plane-surface $-1 -173.05166628521286 -28.842571639631668 90.801151662352964 0 -1 0 0.75470958851134928 0 -0.65605901945558964 forward_v I I I I #
face $-1 $195 $196 $69 $-1 $197 forward single #
loop $-1 $198 $199 $90 #
cone-surface $-1 -60.188968999821661 -39.033035387308693 8.3127558306490297 0.75470958851134928 0 -0.65605901945558964 0.65605901945558964 0 0.75470958851134928 1 I I 0 1 1 forward I I I I #
face $-1 $200 $201 $70 $-1 $202 forward single #
loop $-1 $203 $204 $91 #
cone-surface $-1 -60.188968999821661 -35.211611481929808 8.3127558306490297 0.75470958851134928 0 -0.65605901945558964 0.65605901945558964 0 0.75470958851134928 1 I I 0 1 1 forward I I I I #
face $-1 $205 $206 $71 $-1 $207 forward single #
loop $-1 $208 $209 $92 #
cone-surface $-1 -60.188968999821661 -31.390187576550925 8.3127558306490297 0.75470958851134928 0 -0.65605901945558964 0.65605901945558964 0 0.75470958851134928 1 I I 0 1 1 forward I I I I #
face $-1 $210 $211 $72 $-1 $212 reversed single #
loop $-1 $-1 $213 $93 #
plane-surface $-1 -173.05166628521286 -8.0522459775176962 90.801151662352964 0 -1 0 0.75470958851134928 0 -0.65605901945558964 forward_v I I I I #
face $-1 $214 $215 $73 $-1 $216 forward single #
loop $-1 $217 $218 $94 #
cone-surface $-1 -60.188968999821661 -18.242709725194718 8.3127558306490297 0.75470958851134928 0 -0.65605901945558964 0.65605901945558964 0 0.75470958851134928 1 I I 0 1 1 forward I I I I #
face $-1 $219 $220 $74 $-1 $221 forward single #
loop $-1 $222 $223 $95 #
cone-surface $-1 -60.188968999821661 -14.421285819815836 8.3127558306490297 0.75470958851134928 0 -0.65605901945558964 0.65605901945558964 0 0.75470958851134928 1 I I 0 1 1 forward I I I I #
face $-1 $224 $225 $75 $-1 $226 forward single #
loop $-1 $227 $228 $96 #
cone-surface $-1 -60.188968999821661 -10.59986191443695 8.3127558306490297 0.75470958851134928 0 -0.65605901945558964 0.65605901945558964 0 0.75470958851134928 1 I I 0 1 1 forward I I I I #
face $-1 $229 $230 $76 $-1 $231 reversed single #
loop $-1 $-1 $232 $97 #
plane-surface $-1 -173.05166628521286 12.738079684596283 90.801151662352964 0 -1 0 0.75470958851134928 0 -0.65605901945558964 forward_v I I I I #
face $-1 $233 $234 $77 $-1 $235 forward single #
loop $-1 $236 $237 $98 #
cone-surface $-1 -60.188968999821661 2.5476159369192573 8.3127558306490297 0.75470958851134928 0 -0.65605901945558964 0.65605901945558964 0 0.75470958851134928 1 I I 0 1 1 forward I I I I #
face $-1 $238 $239 $78 $-1 $240 forward single #
loop $-1 $241 $242 $99 #
cone-surface $-1 -60.188968999821661 6.3690398422981431 8.3127558306490297 0.75470958851134928 0 -0.65605901945558964 0.65605901945558964 0 0.75470958851134928 1 I I 0 1 1 forward I I I I #
face $-1 $243 $244 $79 $-1 $245 forward single #
loop $-1 $246 $247 $100 #
cone-surface $-1 -60.188968999821661 10.190463747677022 8.3127558306490297 0.75470958851134928 0 -0.65605901945558964 0.65605901945558964 0 0.75470958851134928 1 I I 0 1 1 forward I I I I #
face $-1 $248 $249 $80 $-1 $250 reversed single #
loop $-1 $-1 $251 $101 #
plane-surface $-1 -173.05166628521286 33.528405346710258 90.801151662352964 0 -1 0 0.75470958851134928 0 -0.65605901945558964 forward_v I I I I #
face $-1 $252 $253 $81 $-1 $254 forward single #
loop $-1 $255 $256 $102 #
cone-surface $-1 -60.188968999821661 23.337941599033236 8.3127558306490297 0.75470958851134928 0 -0.65605901945558964 0.65605901945558964 0 0.75470958851134928 1 I I 0 1 1 forward I I I I #
face $-1 $257 $258 $82 $-1 $259 forward single #
loop $-1 $260 $261 $103 #
cone-surface $-1 -60.188968999821661 27.159365504412115 8.3127558306490297 0.75470958851134928 0 -0.65605901945558964 0.65605901945558964 0 0.75470958851134928 1 I I 0 1 1 forward I I I I #
face $-1 $262 $263 $83 $-1 $264 forward single #
loop $-1 $265 $266 $104 #
cone-surface $-1 -60.188968999821661 30.980789409790994 8.3127558306490297 0.75470958851134928 0 -0.65605901945558964 0.65605901945558964 0 0.75470958851134928 1 I I 0 1 1 forward I I I I #
face $-1 $267 $268 $63 $-1 $269 reversed single #
loop $-1 $-1 $270 $105 #
plane-surface $-1 0 0 -18.112144424289852 0 0 1 1 0 0 forward_v I I I I #
coedge $-1 $271 $272 $273 $274 forward $106 $-1 #
face $-1 $275 $276 $64 $-1 $277 forward single #
loop $-1 $-1 $278 $108 #
plane-surface $-1 -35.129974680819856 31.889581769554148 101.06700761153763 0.6560590369687036 0 0.75470957328743171 0.75470957328743171 0 -0.6560590369687036 forward_v I I I I #
coedge $-1 $279 $280 $281 $282 reversed $109 $-1 #
face $-1 $-1 $283 $65 $-1 $284 forward single #
loop $-1 $285 $286 $111 #
cone-surface $-1 62.17435982939611 26.074940036749872 11.522574822477722 -0.6560590369687036 0 -0.75470957328743171 0.37735478664371586 0 -0.3280295184843518 1 I I -0.70710678118654746 0.70710678118654746 0.5 forward I I I I #
loop $-1 $-1 $287 $86 #
coedge $-1 $180 $180 $288 $289 reversed $112 $-1 #
face $-1 $-1 $290 $66 $-1 $291 forward single #
loop $-1 $292 $293 $114 #
cone-surface $-1 62.17435982939611 31.889581769554148 11.522574822477722 -0.6560590369687036 0 -0.75470957328743171 0.37735478664371586 0 -0.3280295184843518 1 I I -0.70710678118654746 0.70710678118654746 0.5 forward I I I I #
loop $-1 $-1 $294 $87 #
coedge $-1 $185 $185 $295 $296 reversed $115 $-1 #
face $-1 $-1 $297 $67 $-1 $298 forward single #
loop $-1 $299 $300 $117 #
cone-surface $-1 62.17435982939611 37.704223502358424 11.522574822477722 -0.6560590369687036 0 -0.75470957328743171 0.37735478664371586 0 -0.3280295184843518 1 I I -0.70710678118654746 0.70710678118654746 0.5 forward I I I I #
loop $-1 $-1 $301 $88 #
coedge $-1 $190 $190 $302 $303 reversed $118 $-1 #
face $-1 $304 $305 $68 $-1 $306 reversed single #
loop $-1 $-1 $307 $120 #
plane-surface $-1 -68.960844752342268 -35.211611481929808 0.31638328425130169 -0.75470958851134928 0 0.65605901945558964 0.65605901945558964 0 0.75470958851134928 forward_v I I I I #
coedge $-1 $308 $309 $310 $311 reversed $121 $-1 #
face $-1 $-1 $312 $69 $-1 $313 forward single #
loop $-1 $314 $315 $123 #
cone-surface $-1 -58.774547829873612 -39.033035387308693 7.083218297299684 0.75470958851134928 0 -0.65605901945558964 0.32802950972779482 0 0.37735479425567464 1 I I -0.70710678118654746 0.70710678118654746 0.5 forward I I I I #
loop $-1 $-1 $316 $90 #
coedge $-1 $199 $199 $317 $318 reversed $124 $-1 #
face $-1 $-1 $319 $70 $-1 $320 forward single #
loop $-1 $321 $322 $126 #
cone-surface $-1 -58.774547829873612 -35.211611481929808 7.083218297299684 0.75470958851134928 0 -0.65605901945558964 0.32802950972779482 0 0.37735479425567464 1 I I -0.70710678118654746 0.70710678118654746 0.5 forward I I I I #
loop $-1 $-1 $323 $91 #
coedge $-1 $204 $204 $324 $325 reversed $127 $-1 #
face $-1 $-1 $326 $71 $-1 $327 forward single #
loop $-1 $328 $329 $129 #
cone-surface $-1 -58.774547829873612 -31.390187576550925 7.083218297299684 0.75470958851134928 0 -0.65605901945558964 0.32802950972779482 0 0.37735479425567464 1 I I -0.70710678118654746 0.70710678118654746 0.5 forward I I I I #
loop $-1 $-1 $330 $92 #
coedge $-1 $209 $209 $331 $332 reversed $130 $-1 #
face $-1 $333 $334 $72 $-1 $335 reversed single #
loop $-1 $-1 $336 $132 #
plane-surface $-1 -68.960844752342268 -14.421285819815836 0.31638328425130169 -0.75470958851134928 0 0.65605901945558964 0.65605901945558964 0 0.75470958851134928 forward_v I I I I #
coedge $-1 $337 $338 $339 $340 reversed $133 $-1 #
face $-1 $-1 $341 $73 $-1 $342 forward single #
loop $-1 $343 $344 $135 #
cone-surface $-1 -58.774547829873612 -18.242709725194718 7.083218297299684 0.75470958851134928 0 -0.65605901945558964 0.32802950972779482 0 0.37735479425567464 1 I I -0.70710678118654746 0.70710678118654746 0.5 forward I I I I #
loop $-1 $-1 $345 $94 #
coedge $-1 $218 $218 $346 $347 reversed $136 $-1 #
face $-1 $-1 $348 $74 $-1 $349 forward single #
loop $-1 $350 $351 $138 #
cone-surface $-1 -58.774547829873612 -14.421285819815836 7.083218297299684 0.75470958851134928 0 -0.65605901945558964 0.32802950972779482 0 0.37735479425567464 1 I I -0.70710678118654746 0.70710678118654746 0.5 forward I I I I #
loop $-1 $-1 $352 $95 #
coedge $-1 $223 $223 $353 $354 reversed $139 $-1 #
face $-1 $-1 $355 $75 $-1 $356 forward single #
loop $-1 $357 $358 $141 #
cone-surface $-1 -58.774547829873612 -10.59986191443695 7.083218297299684 0.75470958851134928 0 -0.65605901945558964 0.32802950972779482 0 0.37735479425567464 1 I I -0.70710678118654746 0.70710678118654746 0.5 forward I I I I #
loop $-1 $-1 $359 $96 #
coedge $-1 $228 $228 $360 $361 reversed $142 $-1 #
face $-1 $362 $363 $76 $-1 $364 reversed single #
loop $-1 $-1 $365 $144 #
plane-surface $-1 -68.960844752342268 6.3690398422981431 0.31638328425130169 -0.75470958851134928 0 0.65605901945558964 0.65605901945558964 0 0.75470958851134928 forward_v I I I I #
coedge $-1 $366 $367 $368 $369 reversed $145 $-1 #
face $-1 $-1 $370 $77 $-1 $371 forward single #
loop $-1 $372 $373 $147 #
cone-surface $-1 -58.774547829873612 2.5476159369192573 7.083218297299684 0.75470958851134928 0 -0.65605901945558964 0.32802950972779482 0 0.37735479425567464 1 I I -0.70710678118654746 0.70710678118654746 0.5 forward I I I I #
loop $-1 $-1 $374 $98 #
coedge $-1 $237 $237 $375 $376 reversed $148 $-1 #
face $-1 $-1 $377 $78 $-1 $378 forward single #
loop $-1 $379 $380 $150 #
cone-surface $-1 -58.774547829873612 6.3690398422981431 7.083218297299684 0.75470958851134928 0 -0.65605901945558964 0.32802950972779482 0 0.37735479425567464 1 I I -0.70710678118654746 0.70710678118654746 0.5 forward I I I I #
loop $-1 $-1 $381 $99 #
coedge $-1 $242 $242 $382 $383 reversed $151 $-1 #
face $-1 $-1 $384 $79 $-1 $385 forward single #
loop $-1 $386 $387 $153 #
cone-surface $-1 -58.774547829873612 10.190463747677022 7.083218297299684 0.75470958851134928 0 -0.65605901945558964 0.32802950972779482 0 0.37735479425567464 1 I I -0.70710678118654746 0.70710678118654746 0.5 forward I I I I #
loop $-1 $-1 $388 $100 #
coedge $-1 $247 $247 $389 $390 reversed $154 $-1 #
face $-1 $391 $392 $80 $-1 $393 reversed single #
loop $-1 $-1 $394 $156 #
plane-surface $-1 -68.960844752342268 27.159365504412115 0.31638328425130169 -0.75470958851134928 0 0.65605901945558964 0.65605901945558964 0 0.75470958851134928 forward_v I I I I #
coedge $-1 $395 $396 $397 $398 reversed $157 $-1 #
face $-1 $-1 $399 $81 $-1 $400 forward single #
loop $-1 $401 $402 $159 #
cone-surface $-1 -58.774547829873612 23.337941599033236 7.083218297299684 0.75470958851134928 0 -0.65605901945558964 0.32802950972779482 0 0.37735479425567464 1 I I -0.70710678118654746 0.70710678118654746 0.5 forward I I I I #
loop $-1 $-1 $403 $102 #
coedge $-1 $256 $256 $404 $405 reversed $160 $-1 #
face $-1 $-1 $406 $82 $-1 $407 forward single #
loop $-1 $408 $409 $162 #
cone-surface $-1 -58.774547829873612 27.159365504412115 7.083218297299684 0.75470958851134928 0 -0.65605901945558964 0.32802950972779482 0 0.37735479425567464 1 I I -0.70710678118654746 0.70710678118654746 0.5 forward I I I I #
loop $-1 $-1 $410 $103 #
coedge $-1 $261 $261 $411 $412 reversed $163 $-1 #
face $-1 $-1 $413 $83 $-1 $414 forward single #
loop $-1 $415 $416 $165 #
cone-surface $-1 -58.774547829873612 30.980789409790994 7.083218297299684 0.75470958851134928 0 -0.65605901945558964 0.32802950972779482 0 0.37735479425567464 1 I I -0.70710678118654746 0.70710678118654746 0.5 forward I I I I #
loop $-1 $-1 $417 $104 #
coedge $-1 $266 $266 $418 $419 reversed $166 $-1 #
face $-1 $420 $421 $63 $-1 $422 reversed single #
loop $-1 $-1 $423 $168 #
plane-surface $-1 0 -41.580651324227951 0 0 1 0 0 0 1 forward_v I I I I #
coedge $-1 $424 $425 $426 $427 forward $169 $-1 #
coedge $-1 $428 $171 $429 $430 forward $106 $-1 #
coedge $-1 $171 $428 $431 $432 forward $106 $-1 #
coedge $-1 $433 $434 $171 $274 reversed $435 $-1 #
edge $-1 $436 -41.580651324227951 $437 41.580651324227951 $273 $438 forward 7 unknown #
face $-1 $439 $440 $64 $-1 $441 reversed single #
loop $-1 $-1 $442 $172 #
plane-surface $-1 0 0 18.112144424289852 0 0 1 1 0 0 forward_v I I I I #
coedge $-1 $443 $444 $445 $446 reversed $173 $-1 #
coedge $-1 $280 $175 $447 $448 reversed $109 $-1 #
coedge $-1 $175 $279 $443 $449 reversed $109 $-1 #
coedge $-1 $445 $450 $175 $282 forward $440 $-1 #
edge $-1 $451 84.466769098060041 $452 91.996676704352183 $281 $453 forward 7 unknown #
loop $-1 $-1 $288 $176 #
plane-surface $-1 -35.129974680819856 31.889581769554148 101.06700761153763 0.6560590369687036 0 0.75470957328743171 0.75470957328743171 0 -0.6560590369687036 forward_v I I I I #
loop $-1 $-1 $454 $111 #
coedge $-1 $286 $286 $287 $455 reversed $177 $-1 #
coedge $-1 $287 $287 $286 $455 forward $179 $-1 #
coedge $-1 $288 $288 $180 $289 forward $283 $-1 #
edge $-1 $456 0 $456 6.2831853071796004 $288 $457 forward 7 unknown #
loop $-1 $-1 $295 $181 #
plane-surface $-1 -35.129974680819856 31.889581769554148 101.06700761153763 0.6560590369687036 0 0.75470957328743171 0.75470957328743171 0 -0.6560590369687036 forward_v I I I I #
loop $-1 $-1 $458 $114 #
coedge $-1 $293 $293 $294 $459 reversed $182 $-1 #
coedge $-1 $294 $294 $293 $459 forward $184 $-1 #
coedge $-1 $295 $295 $185 $296 forward $290 $-1 #
edge $-1 $460 0 $460 6.2831853071796004 $295 $461 forward 7 unknown #
loop $-1 $-1 $302 $186 #
plane-surface $-1 -35.129974680819856 31.889581769554148 101.06700761153763 0.6560590369687036 0 0.75470957328743171 0.75470957328743171 0 -0.6560590369687036 forward_v I I I I #
loop $-1 $-1 $462 $117 #
coedge $-1 $300 $300 $301 $463 reversed $187 $-1 #
coedge $-1 $301 $301 $300 $463 forward $189 $-1 #
coedge $-1 $302 $302 $190 $303 forward $297 $-1 #
edge $-1 $464 0 $464 6.2831853071796004 $302 $465 forward 7 unknown #
face $-1 $466 $467 $68 $-1 $468 reversed single #
loop $-1 $-1 $310 $191 #
plane-surface $-1 -68.960844752342297 0 0 1 0 0 0 0 -1 forward_v I I I I #
coedge $-1 $469 $470 $471 $472 reversed $192 $-1 #
coedge $-1 $309 $194 $473 $474 reversed $121 $-1 #
coedge $-1 $194 $308 $469 $475 reversed $121 $-1 #
coedge $-1 $471 $476 $194 $311 forward $305 $-1 #
edge $-1 $477 27.28843140688663 $478 45.084192546925216 $310 $479 forward 7 unknown #
loop $-1 $-1 $317 $195 #
plane-surface $-1 -68.960844752342268 -35.211611481929808 0.31638328425130169 -0.75470958851134928 0 0.65605901945558964 0.65605901945558964 0 0.75470958851134928 forward_v I I I I #
loop $-1 $-1 $480 $123 #
coedge $-1 $315 $315 $316 $481 reversed $196 $-1 #
coedge $-1 $316 $316 $315 $481 forward $198 $-1 #
coedge $-1 $317 $317 $199 $318 forward $312 $-1 #
edge $-1 $482 0 $482 6.2831853071796004 $317 $483 forward 7 unknown #
loop $-1 $-1 $324 $200 #
plane-surface $-1 -68.960844752342268 -35.211611481929808 0.31638328425130169 -0.75470958851134928 0 0.65605901945558964 0.65605901945558964 0 0.75470958851134928 forward_v I I I I #
loop $-1 $-1 $484 $126 #
coedge $-1 $322 $322 $323 $485 reversed $201 $-1 #
coedge $-1 $323 $323 $322 $485 forward $203 $-1 #
coedge $-1 $324 $324 $204 $325 forward $319 $-1 #
edge $-1 $486 0 $486 6.2831853071796004 $324 $487 forward 7 unknown #
loop $-1 $-1 $331 $205 #
plane-surface $-1 -68.960844752342268 -35.211611481929808 0.31638328425130169 -0.75470958851134928 0 0.65605901945558964 0.65605901945558964 0 0.75470958851134928 forward_v I I I I #
loop $-1 $-1 $488 $129 #
coedge $-1 $329 $329 $330 $489 reversed $206 $-1 #
coedge $-1 $330 $330 $329 $489 forward $208 $-1 #
coedge $-1 $331 $331 $209 $332 forward $326 $-1 #
edge $-1 $490 0 $490 6.2831853071796004 $331 $491 forward 7 unknown #
face $-1 $492 $493 $72 $-1 $494 forward single #
loop $-1 $-1 $495 $210 #
plane-surface $-1 -173.05166628521286 -20.790325662113975 90.801151662352964 0 1 0 -0.75470958851134928 0 0.65605901945558964 forward_v I I I I #
coedge $-1 $496 $497 $498 $499 reversed $211 $-1 #
coedge $-1 $338 $213 $500 $501 reversed $133 $-1 #
coedge $-1 $213 $337 $496 $502 reversed $133 $-1 #
coedge $-1 $498 $503 $213 $340 forward $504 $-1 #
edge $-1 $505 27.28843140688663 $506 45.084192546925216 $339 $507 forward 7 unknown #
loop $-1 $-1 $346 $214 #
plane-surface $-1 -68.960844752342268 -14.421285819815836 0.31638328425130169 -0.75470958851134928 0 0.65605901945558964 0.65605901945558964 0 0.75470958851134928 forward_v I I I I #
loop $-1 $-1 $508 $135 #
coedge $-1 $344 $344 $345 $509 reversed $215 $-1 #
coedge $-1 $345 $345 $344 $509 forward $217 $-1 #
coedge $-1 $346 $346 $218 $347 forward $341 $-1 #
edge $-1 $510 0 $510 6.2831853071796004 $346 $511 forward 7 unknown #
loop $-1 $-1 $353 $219 #
plane-surface $-1 -68.960844752342268 -14.421285819815836 0.31638328425130169 -0.75470958851134928 0 0.65605901945558964 0.65605901945558964 0 0.75470958851134928 forward_v I I I I #
loop $-1 $-1 $512 $138 #
coedge $-1 $351 $351 $352 $513 reversed $220 $-1 #
coedge $-1 $352 $352 $351 $513 forward $222 $-1 #
coedge $-1 $353 $353 $223 $354 forward $348 $-1 #
edge $-1 $514 0 $514 6.2831853071796004 $353 $515 forward 7 unknown #
loop $-1 $-1 $360 $224 #
plane-surface $-1 -68.960844752342268 -14.421285819815836 0.31638328425130169 -0.75470958851134928 0 0.65605901945558964 0.65605901945558964 0 0.75470958851134928 forward_v I I I I #
loop $-1 $-1 $516 $141 #
coedge $-1 $358 $358 $359 $517 reversed $225 $-1 #
coedge $-1 $359 $359 $358 $517 forward $227 $-1 #
coedge $-1 $360 $360 $228 $361 forward $355 $-1 #
edge $-1 $518 0 $518 6.2831853071796004 $360 $519 forward 7 unknown #
face $-1 $520 $521 $76 $-1 $522 forward single #
loop $-1 $-1 $523 $229 #
plane-surface $-1 -173.05166628521286 2.6645352591003757e-015 90.801151662352964 0 1 0 -0.75470958851134928 0 0.65605901945558964 forward_v I I I I #
coedge $-1 $524 $525 $526 $527 reversed $230 $-1 #
coedge $-1 $367 $232 $528 $529 reversed $145 $-1 #
coedge $-1 $232 $366 $524 $530 reversed $145 $-1 #
coedge $-1 $526 $531 $232 $369 forward $532 $-1 #
edge $-1 $533 27.28843140688663 $534 45.084192546925216 $368 $535 forward 7 unknown #
loop $-1 $-1 $375 $233 #
plane-surface $-1 -68.960844752342268 6.3690398422981431 0.31638328425130169 -0.75470958851134928 0 0.65605901945558964 0.65605901945558964 0 0.75470958851134928 forward_v I I I I #
loop $-1 $-1 $536 $147 #
coedge $-1 $373 $373 $374 $537 reversed $234 $-1 #
coedge $-1 $374 $374 $373 $537 forward $236 $-1 #
coedge $-1 $375 $375 $237 $376 forward $370 $-1 #
edge $-1 $538 0 $538 6.2831853071796004 $375 $539 forward 7 unknown #
loop $-1 $-1 $382 $238 #
plane-surface $-1 -68.960844752342268 6.3690398422981431 0.31638328425130169 -0.75470958851134928 0 0.65605901945558964 0.65605901945558964 0 0.75470958851134928 forward_v I I I I #
loop $-1 $-1 $540 $150 #
coedge $-1 $380 $380 $381 $541 reversed $239 $-1 #
coedge $-1 $381 $381 $380 $541 forward $241 $-1 #
coedge $-1 $382 $382 $242 $383 forward $377 $-1 #
edge $-1 $542 0 $542 6.2831853071796004 $382 $543 forward 7 unknown #
loop $-1 $-1 $389 $243 #
plane-surface $-1 -68.960844752342268 6.3690398422981431 0.31638328425130169 -0.75470958851134928 0 0.65605901945558964 0.65605901945558964 0 0.75470958851134928 forward_v I I I I #
loop $-1 $-1 $544 $153 #
coedge $-1 $387 $387 $388 $545 reversed $244 $-1 #
coedge $-1 $388 $388 $387 $545 forward $246 $-1 #
coedge $-1 $389 $389 $247 $390 forward $384 $-1 #
edge $-1 $546 0 $546 6.2831853071796004 $389 $547 forward 7 unknown #
face $-1 $548 $549 $80 $-1 $550 forward single #
loop $-1 $-1 $551 $248 #
plane-surface $-1 -173.05166628521286 20.790325662113975 90.801151662352964 0 1 0 -0.75470958851134928 0 0.65605901945558964 forward_v I I I I #
coedge $-1 $552 $553 $554 $555 reversed $249 $-1 #
coedge $-1 $396 $251 $556 $557 reversed $157 $-1 #
coedge $-1 $251 $395 $552 $558 reversed $157 $-1 #
coedge $-1 $554 $559 $251 $398 forward $560 $-1 #
edge $-1 $561 27.28843140688663 $562 45.084192546925216 $397 $563 forward 7 unknown #
loop $-1 $-1 $404 $252 #
plane-surface $-1 -68.960844752342268 27.159365504412115 0.31638328425130169 -0.75470958851134928 0 0.65605901945558964 0.65605901945558964 0 0.75470958851134928 forward_v I I I I #
loop $-1 $-1 $564 $159 #
coedge $-1 $402 $402 $403 $565 reversed $253 $-1 #
coedge $-1 $403 $403 $402 $565 forward $255 $-1 #
coedge $-1 $404 $404 $256 $405 forward $399 $-1 #
edge $-1 $566 0 $566 6.2831853071796004 $404 $567 forward 7 unknown #
loop $-1 $-1 $411 $257 #
plane-surface $-1 -68.960844752342268 27.159365504412115 0.31638328425130169 -0.75470958851134928 0 0.65605901945558964 0.65605901945558964 0 0.75470958851134928 forward_v I I I I #
loop $-1 $-1 $568 $162 #
coedge $-1 $409 $409 $410 $569 reversed $258 $-1 #
coedge $-1 $410 $410 $409 $569 forward $260 $-1 #
coedge $-1 $411 $411 $261 $412 forward $406 $-1 #
edge $-1 $570 0 $570 6.2831853071796004 $411 $571 forward 7 unknown #
loop $-1 $-1 $418 $262 #
plane-surface $-1 -68.960844752342268 27.159365504412115 0.31638328425130169 -0.75470958851134928 0 0.65605901945558964 0.65605901945558964 0 0.75470958851134928 forward_v I I I I #
loop $-1 $-1 $572 $165 #
coedge $-1 $416 $416 $417 $573 reversed $263 $-1 #
coedge $-1 $417 $417 $416 $573 forward $265 $-1 #
coedge $-1 $418 $418 $266 $419 forward $413 $-1 #
edge $-1 $574 0 $574 6.2831853071796004 $418 $575 forward 7 unknown #
face $-1 $576 $577 $63 $-1 $578 reversed single #
loop $-1 $-1 $579 $267 #
plane-surface $-1 -68.960844752342297 0 0 1 0 0 0 0 -1 forward_v I I I I #
coedge $-1 $580 $431 $581 $582 forward $268 $-1 #
coedge $-1 $583 $270 $580 $584 forward $169 $-1 #
coedge $-1 $270 $583 $585 $586 forward $169 $-1 #
coedge $-1 $434 $433 $270 $427 reversed $435 $-1 #
edge $-1 $587 -41.580651324227951 $588 41.580651324227951 $426 $589 forward 7 unknown #
coedge $-1 $272 $271 $590 $591 forward $106 $-1 #
coedge $-1 $592 $593 $271 $430 reversed $577 $-1 #
edge $-1 $437 -68.960844752342297 $594 68.960844752342297 $429 $595 forward 7 unknown #
coedge $-1 $423 $596 $272 $432 reversed $268 $-1 #
edge $-1 $597 -68.960844752342297 $436 68.960844752342297 $431 $598 forward 7 unknown #
coedge $-1 $426 $273 $596 $599 forward $435 $-1 #
coedge $-1 $273 $426 $592 $600 reversed $435 $-1 #
loop $-1 $-1 $433 $576 #
vertex $-1 $274 $601 #
vertex $-1 $274 $602 #
straight-curve $-1 68.960844752342297 0 18.112144424289852 0 1 0 I I #
face $-1 $-1 $603 $64 $-1 $604 reversed single #
loop $-1 $-1 $281 $275 #
plane-surface $-1 68.960844752342297 0 0 -1 0 0 0 0 1 forward_v I I I I #
coedge $-1 $447 $605 $606 $607 forward $276 $-1 #
coedge $-1 $606 $278 $280 $449 forward $173 $-1 #
coedge $-1 $278 $606 $608 $609 reversed $173 $-1 #
coedge $-1 $610 $281 $278 $446 forward $440 $-1 #
edge $-1 $452 6.2537213301032715 $611 25.635860439450877 $445 $612 forward 7 unknown #
coedge $-1 $613 $442 $279 $448 forward $276 $-1 #
edge $-1 $614 32.621279061349682 $451 41.283446695982263 $447 $615 forward 7 unknown #
edge $-1 $452 -137.92168950468459 $614 -126.44420473275949 $280 $616 forward 7 unknown #
coedge $-1 $281 $610 $613 $617 reversed $440 $-1 #
vertex $-1 $617 $618 #
vertex $-1 $282 $619 #
straight-curve $-1 68.960844752342297 22.198512214880346 102.57891352234989 0 0 -1 I I #
coedge $-1 $454 $454 $-1 $620 reversed $285 $-1 #
edge $-1 $621 0 $621 6.2831853071796004 $286 $622 forward 7 unknown #
vertex $-1 $289 $623 #
ellipse-curve $-1 64.629760935026027 26.074940036749872 14.347190621143781 0.6560590369687036 0 0.75470957328743171 0.75470957328743171 0 -0.6560590369687036 1 I I #
coedge $-1 $458 $458 $-1 $624 reversed $292 $-1 #
edge $-1 $625 0 $625 6.2831853071796004 $293 $626 forward 7 unknown #
vertex $-1 $296 $627 #
ellipse-curve $-1 64.629760935026027 31.889581769554148 14.347190621143781 0.6560590369687036 0 0.75470957328743171 0.75470957328743171 0 -0.6560590369687036 1 I I #
coedge $-1 $462 $462 $-1 $628 reversed $299 $-1 #
edge $-1 $629 0 $629 6.2831853071796004 $300 $630 forward 7 unknown #
vertex $-1 $303 $631 #
ellipse-curve $-1 64.629760935026027 37.704223502358424 14.347190621143781 0.6560590369687036 0 0.75470957328743171 0.75470957328743171 0 -0.6560590369687036 1 I I #
face $-1 $-1 $632 $68 $-1 $633 forward single #
loop $-1 $-1 $634 $304 #
plane-surface $-1 0 -41.580651324227951 0 0 1 0 0 0 1 forward_v I I I I #
coedge $-1 $635 $307 $309 $475 forward $192 $-1 #
coedge $-1 $307 $635 $634 $636 reversed $192 $-1 #
coedge $-1 $637 $310 $307 $472 forward $305 $-1 #
edge $-1 $478 11.236765898666764 $638 23.974845583263047 $471 $639 forward 7 unknown #
coedge $-1 $640 $641 $308 $474 forward $632 $-1 #
edge $-1 $642 -33.034607143920702 $477 -17.564988390264133 $473 $643 forward 7 unknown #
edge $-1 $478 -4.3322354903144003e-014 $642 23.579614478120472 $309 $644 forward 7 unknown #
coedge $-1 $310 $637 $640 $645 reversed $305 $-1 #
vertex $-1 $645 $646 #
vertex $-1 $311 $647 #
straight-curve $-1 -68.960844752342297 -28.842571639631668 45.400575831176482 0 0 -1 I I #
coedge $-1 $480 $480 $-1 $648 reversed $314 $-1 #
edge $-1 $649 0 $649 6.2831853071796004 $315 $650 forward 7 unknown #
vertex $-1 $318 $651 #
ellipse-curve $-1 -61.226035375514016 -39.033035387308693 9.2142638542705626 -0.75470958851134928 0 0.65605901945558964 0.65605901945558964 0 0.75470958851134928 1 I I #
coedge $-1 $484 $484 $-1 $652 reversed $321 $-1 #
edge $-1 $653 0 $653 6.2831853071796004 $322 $654 forward 7 unknown #
vertex $-1 $325 $655 #
ellipse-curve $-1 -61.226035375514016 -35.211611481929808 9.2142638542705626 -0.75470958851134928 0 0.65605901945558964 0.65605901945558964 0 0.75470958851134928 1 I I #
coedge $-1 $488 $488 $-1 $656 reversed $328 $-1 #
edge $-1 $657 0 $657 6.2831853071796004 $329 $658 forward 7 unknown #
vertex $-1 $332 $659 #
ellipse-curve $-1 -61.226035375514016 -31.390187576550925 9.2142638542705626 -0.75470958851134928 0 0.65605901945558964 0.65605901945558964 0 0.75470958851134928 1 I I #
face $-1 $-1 $504 $72 $-1 $660 reversed single #
loop $-1 $-1 $661 $333 #
plane-surface $-1 0 0 18.112144424289852 0 0 1 1 0 0 forward_v I I I I #
coedge $-1 $662 $663 $664 $665 reversed $334 $-1 #
coedge $-1 $666 $336 $338 $502 forward $211 $-1 #
coedge $-1 $336 $666 $662 $667 forward $211 $-1 #
coedge $-1 $664 $339 $336 $499 forward $504 $-1 #
edge $-1 $506 0.84160306760977832 $668 13.579682752206057 $498 $669 forward 7 unknown #
coedge $-1 $670 $671 $337 $501 forward $493 $-1 #
edge $-1 $672 -33.034607143920702 $505 -17.564988390264133 $500 $673 forward 7 unknown #
edge $-1 $506 -4.3322354903144003e-014 $672 23.579614478120472 $338 $674 forward 7 unknown #
coedge $-1 $339 $664 $670 $675 reversed $504 $-1 #
loop $-1 $-1 $664 $492 #
vertex $-1 $675 $676 #
vertex $-1 $340 $677 #
straight-curve $-1 -68.960844752342297 -8.0522459775176962 45.400575831176482 0 0 -1 I I #
coedge $-1 $508 $508 $-1 $678 reversed $343 $-1 #
edge $-1 $679 0 $679 6.2831853071796004 $344 $680 forward 7 unknown #
vertex $-1 $347 $681 #
ellipse-curve $-1 -61.226035375514016 -18.242709725194718 9.2142638542705626 -0.75470958851134928 0 0.65605901945558964 0.65605901945558964 0 0.75470958851134928 1 I I #
coedge $-1 $512 $512 $-1 $682 reversed $350 $-1 #
edge $-1 $683 0 $683 6.2831853071796004 $351 $684 forward 7 unknown #
vertex $-1 $354 $685 #
ellipse-curve $-1 -61.226035375514016 -14.421285819815836 9.2142638542705626 -0.75470958851134928 0 0.65605901945558964 0.65605901945558964 0 0.75470958851134928 1 I I #
coedge $-1 $516 $516 $-1 $686 reversed $357 $-1 #
edge $-1 $687 0 $687 6.2831853071796004 $358 $688 forward 7 unknown #
vertex $-1 $361 $689 #
ellipse-curve $-1 -61.226035375514016 -10.59986191443695 9.2142638542705626 -0.75470958851134928 0 0.65605901945558964 0.65605901945558964 0 0.75470958851134928 1 I I #
face $-1 $-1 $532 $76 $-1 $690 reversed single #
loop $-1 $-1 $691 $362 #
plane-surface $-1 0 0 18.112144424289852 0 0 1 1 0 0 forward_v I I I I #
coedge $-1 $692 $693 $694 $695 reversed $363 $-1 #
coedge $-1 $696 $365 $367 $530 forward $230 $-1 #
coedge $-1 $365 $696 $692 $697 forward $230 $-1 #
coedge $-1 $694 $368 $365 $527 forward $532 $-1 #
edge $-1 $534 -9.5535597634472111 $698 3.1845199211490689 $526 $699 forward 7 unknown #
coedge $-1 $700 $701 $366 $529 forward $521 $-1 #
edge $-1 $702 -33.034607143920702 $533 -17.564988390264133 $528 $703 forward 7 unknown #
edge $-1 $534 -4.3322354903144003e-014 $702 23.579614478120472 $367 $704 forward 7 unknown #
coedge $-1 $368 $694 $700 $705 reversed $532 $-1 #
loop $-1 $-1 $694 $520 #
vertex $-1 $705 $706 #
vertex $-1 $369 $707 #
straight-curve $-1 -68.960844752342297 12.738079684596283 45.400575831176482 0 0 -1 I I #
coedge $-1 $536 $536 $-1 $708 reversed $372 $-1 #
edge $-1 $709 0 $709 6.2831853071796004 $373 $710 forward 7 unknown #
vertex $-1 $376 $711 #
ellipse-curve $-1 -61.226035375514016 2.5476159369192573 9.2142638542705626 -0.75470958851134928 0 0.65605901945558964 0.65605901945558964 0 0.75470958851134928 1 I I #
coedge $-1 $540 $540 $-1 $712 reversed $379 $-1 #
edge $-1 $713 0 $713 6.2831853071796004 $380 $714 forward 7 unknown #
vertex $-1 $383 $715 #
ellipse-curve $-1 -61.226035375514016 6.3690398422981431 9.2142638542705626 -0.75470958851134928 0 0.65605901945558964 0.65605901945558964 0 0.75470958851134928 1 I I #
coedge $-1 $544 $544 $-1 $716 reversed $386 $-1 #
edge $-1 $717 0 $717 6.2831853071796004 $387 $718 forward 7 unknown #
vertex $-1 $390 $719 #
ellipse-curve $-1 -61.226035375514016 10.190463747677022 9.2142638542705626 -0.75470958851134928 0 0.65605901945558964 0.65605901945558964 0 0.75470958851134928 1 I I #
face $-1 $-1 $560 $80 $-1 $720 reversed single #
loop $-1 $-1 $721 $391 #
plane-surface $-1 0 0 18.112144424289852 0 0 1 1 0 0 forward_v I I I I #
coedge $-1 $722 $723 $724 $725 reversed $392 $-1 #
coedge $-1 $726 $394 $396 $558 forward $249 $-1 #
coedge $-1 $394 $726 $722 $727 forward $249 $-1 #
coedge $-1 $724 $397 $394 $555 forward $560 $-1 #
edge $-1 $562 -19.948722594504201 $728 -7.2106429099079179 $554 $729 forward 7 unknown #
coedge $-1 $730 $731 $395 $557 forward $549 $-1 #
edge $-1 $732 -33.034607143920702 $561 -17.564988390264133 $556 $733 forward 7 unknown #
edge $-1 $562 -4.3322354903144003e-014 $732 23.579614478120472 $396 $734 forward 7 unknown #
coedge $-1 $397 $724 $730 $735 reversed $560 $-1 #
loop $-1 $-1 $724 $548 #
vertex $-1 $735 $736 #
vertex $-1 $398 $737 #
straight-curve $-1 -68.960844752342297 33.528405346710258 45.400575831176482 0 0 -1 I I #
coedge $-1 $564 $564 $-1 $738 reversed $401 $-1 #
edge $-1 $739 0 $739 6.2831853071796004 $402 $740 forward 7 unknown #
vertex $-1 $405 $741 #
ellipse-curve $-1 -61.226035375514016 23.337941599033236 9.2142638542705626 -0.75470958851134928 0 0.65605901945558964 0.65605901945558964 0 0.75470958851134928 1 I I #
coedge $-1 $568 $568 $-1 $742 reversed $408 $-1 #
edge $-1 $743 0 $743 6.2831853071796004 $409 $744 forward 7 unknown #
vertex $-1 $412 $745 #
ellipse-curve $-1 -61.226035375514016 27.159365504412115 9.2142638542705626 -0.75470958851134928 0 0.65605901945558964 0.65605901945558964 0 0.75470958851134928 1 I I #
coedge $-1 $572 $572 $-1 $746 reversed $415 $-1 #
edge $-1 $747 0 $747 6.2831853071796004 $416 $748 forward 7 unknown #
vertex $-1 $419 $749 #
ellipse-curve $-1 -61.226035375514016 30.980789409790994 9.2142638542705626 -0.75470958851134928 0 0.65605901945558964 0.65605901945558964 0 0.75470958851134928 1 I I #
face $-1 $-1 $435 $63 $-1 $750 reversed single #
loop $-1 $-1 $592 $420 #
plane-surface $-1 0 41.580651324227951 0 0 -1 0 0 0 -1 forward_v I I I I #
coedge $-1 $751 $590 $593 $752 forward $421 $-1 #
coedge $-1 $596 $423 $424 $584 reversed $268 $-1 #
coedge $-1 $590 $751 $423 $582 reversed $421 $-1 #
edge $-1 $597 -18.112144424289852 $753 18.112144424289852 $581 $754 forward 7 unknown #
coedge $-1 $425 $424 $751 $755 forward $169 $-1 #
edge $-1 $588 -68.960844752342297 $753 68.960844752342297 $580 $756 forward 7 unknown #
coedge $-1 $593 $592 $425 $586 reversed $577 $-1 #
edge $-1 $757 -68.960844752342297 $587 68.960844752342297 $585 $758 forward 7 unknown #
vertex $-1 $427 $759 #
vertex $-1 $599 $760 #
straight-curve $-1 68.960844752342297 0 -18.112144424289852 0 -1 0 I I #
coedge $-1 $579 $581 $428 $591 reversed $421 $-1 #
edge $-1 $594 -41.580651324227951 $597 41.580651324227951 $590 $761 forward 7 unknown #
coedge $-1 $585 $429 $434 $600 forward $577 $-1 #
coedge $-1 $429 $585 $579 $752 reversed $577 $-1 #
vertex $-1 $430 $762 #
straight-curve $-1 0 41.580651324227951 18.112144424289852 -1 0 0 I I #
coedge $-1 $431 $580 $433 $599 reversed $268 $-1 #
vertex $-1 $591 $763 #
straight-curve $-1 0 -41.580651324227951 18.112144424289852 1 0 0 I I #
edge $-1 $436 -18.112144424289852 $588 18.112144424289852 $433 $764 forward 7 unknown #
edge $-1 $437 -18.112144424289852 $587 18.112144424289852 $434 $765 forward 7 unknown #
point $-1 68.960844752342297 -41.580651324227951 18.112144424289852 #
point $-1 68.960844752342297 41.580651324227951 18.112144424289852 #
loop $-1 $-1 $608 $439 #
plane-surface $-1 0 41.580651324227951 0 0 -1 0 0 0 -1 forward_v I I I I #
coedge $-1 $442 $613 $766 $767 forward $276 $-1 #
coedge $-1 $444 $443 $442 $607 reversed $173 $-1 #
edge $-1 $768 -25.635860439450877 $614 -6.2537213301032715 $442 $769 forward 7 unknown #
coedge $-1 $766 $770 $444 $609 forward $603 $-1 #
edge $-1 $611 -91.512263562737672 $768 -80.034778790812567 $608 $771 forward 7 unknown #
coedge $-1 $450 $445 $770 $772 reversed $440 $-1 #
vertex $-1 $446 $773 #
straight-curve $-1 68.960844752342297 15.944790884777074 10.582236817997718 0 1 0 I I #
coedge $-1 $605 $447 $450 $617 forward $276 $-1 #
vertex $-1 $448 $774 #
straight-curve $-1 27.677398056360033 22.198512214880346 18.112144424289852 1 0 0 I I #
straight-curve $-1 -35.129974680819856 22.198512214880346 101.06700761153763 -0.75470957328743171 0 0.6560590369687036 I I #
edge $-1 $451 22.198512214880346 $775 41.580651324227951 $450 $776 forward 7 unknown #
point $-1 68.960844752342297 22.198512214880346 18.112144424289852 #
point $-1 68.960844752342297 22.198512214880346 10.58223681799771 #
edge $-1 $777 1 $777 0 $454 $-1 forward 7 unknown #
vertex $-1 $455 $778 #
ellipse-curve $-1 62.50238934788046 26.074940036749872 11.899929609121438 0.6560590369687036 0 0.75470957328743171 0.75470957328743171 0 -0.6560590369687036 1 I I #
point $-1 65.384470508313456 26.074940036749872 13.69113158417508 #
edge $-1 $779 1 $779 0 $458 $-1 forward 7 unknown #
vertex $-1 $459 $780 #
ellipse-curve $-1 62.50238934788046 31.889581769554148 11.899929609121438 0.6560590369687036 0 0.75470957328743171 0.75470957328743171 0 -0.6560590369687036 1 I I #
point $-1 65.384470508313456 31.889581769554148 13.69113158417508 #
edge $-1 $781 1 $781 0 $462 $-1 forward 7 unknown #
vertex $-1 $463 $782 #
ellipse-curve $-1 62.50238934788046 37.704223502358424 11.899929609121438 0.6560590369687036 0 0.75470957328743171 0.75470957328743171 0 -0.6560590369687036 1 I I #
point $-1 65.384470508313456 37.704223502358424 13.69113158417508 #
loop $-1 $-1 $473 $466 #
plane-surface $-1 0 0 18.112144424289852 0 0 1 1 0 0 forward_v I I I I #
coedge $-1 $783 $784 $470 $636 forward $467 $-1 #
coedge $-1 $470 $469 $641 $785 reversed $192 $-1 #
edge $-1 $638 -22.501803345390869 $786 1.0778111327296434 $634 $787 forward 7 unknown #
coedge $-1 $476 $471 $784 $788 reversed $305 $-1 #
vertex $-1 $636 $789 #
straight-curve $-1 -68.960844752342297 -17.605805740964904 0.31638328425126966 0 -1 0 I I #
coedge $-1 $790 $473 $476 $645 forward $632 $-1 #
coedge $-1 $473 $790 $635 $785 forward $632 $-1 #
vertex $-1 $474 $791 #
straight-curve $-1 -86.52583314260643 -28.842571639631668 18.112144424289852 -1 0 0 I I #
straight-curve $-1 -68.960844752342268 -28.842571639631668 0.31638328425130169 0.65605901945558964 0 0.75470958851134928 I I #
edge $-1 $477 28.842571639631668 $792 41.580651324227951 $476 $793 forward 7 unknown #
point $-1 -68.960844752342297 -28.842571639631668 18.112144424289852 #
point $-1 -68.960844752342297 -28.842571639631668 0.31638328425126899 #
edge $-1 $794 1 $794 0 $480 $-1 forward 7 unknown #
vertex $-1 $481 $795 #
ellipse-curve $-1 -59.151902624129285 -39.033035387308693 7.411247807027479 -0.75470958851134928 0 0.65605901945558964 0.65605901945558964 0 0.75470958851134928 1 I I #
point $-1 -60.569976356058447 -39.033035387308693 9.9689734427819303 #
edge $-1 $796 1 $796 0 $484 $-1 forward 7 unknown #
vertex $-1 $485 $797 #
ellipse-curve $-1 -59.151902624129285 -35.211611481929808 7.411247807027479 -0.75470958851134928 0 0.65605901945558964 0.65605901945558964 0 0.75470958851134928 1 I I #
point $-1 -60.569976356058447 -35.211611481929808 9.9689734427819303 #
edge $-1 $798 1 $798 0 $488 $-1 forward 7 unknown #
vertex $-1 $489 $799 #
ellipse-curve $-1 -59.151902624129285 -31.390187576550925 7.411247807027479 -0.75470958851134928 0 0.65605901945558964 0.65605901945558964 0 0.75470958851134928 1 I I #
point $-1 -60.569976356058447 -31.390187576550925 9.9689734427819303 #
plane-surface $-1 -68.960844752342297 0 0 1 0 0 0 0 -1 forward_v I I I I #
coedge $-1 $671 $670 $663 $800 forward $493 $-1 #
coedge $-1 $663 $495 $497 $667 reversed $334 $-1 #
coedge $-1 $495 $662 $661 $800 reversed $334 $-1 #
coedge $-1 $503 $498 $495 $665 forward $504 $-1 #
edge $-1 $668 -45.084192546925216 $801 -27.28843140688663 $664 $802 forward 7 unknown #
coedge $-1 $497 $496 $671 $803 reversed $211 $-1 #
edge $-1 $804 -23.579614478120472 $668 4.3322354903144003e-014 $662 $805 forward 7 unknown #
vertex $-1 $499 $806 #
straight-curve $-1 -68.960844752342297 -7.2106429099079179 0.31638328425126966 0 -1 0 I I #
coedge $-1 $661 $500 $503 $675 forward $493 $-1 #
coedge $-1 $500 $661 $666 $803 forward $493 $-1 #
vertex $-1 $501 $807 #
straight-curve $-1 -86.52583314260643 -8.0522459775176962 18.112144424289852 -1 0 0 I I #
straight-curve $-1 -68.960844752342268 -8.0522459775176962 0.31638328425130169 0.65605901945558964 0 0.75470958851134928 I I #
edge $-1 $505 8.0522459775176962 $801 20.790325662113975 $503 $808 forward 7 unknown #
point $-1 -68.960844752342297 -8.0522459775176962 18.112144424289852 #
point $-1 -68.960844752342297 -8.0522459775176962 0.31638328425126899 #
edge $-1 $809 1 $809 0 $508 $-1 forward 7 unknown #
vertex $-1 $509 $810 #
ellipse-curve $-1 -59.151902624129285 -18.242709725194718 7.411247807027479 -0.75470958851134928 0 0.65605901945558964 0.65605901945558964 0 0.75470958851134928 1 I I #
point $-1 -60.569976356058447 -18.242709725194718 9.9689734427819303 #
edge $-1 $811 1 $811 0 $512 $-1 forward 7 unknown #
vertex $-1 $513 $812 #
ellipse-curve $-1 -59.151902624129285 -14.421285819815836 7.411247807027479 -0.75470958851134928 0 0.65605901945558964 0.65605901945558964 0 0.75470958851134928 1 I I #
point $-1 -60.569976356058447 -14.421285819815836 9.9689734427819303 #
edge $-1 $813 1 $813 0 $516 $-1 forward 7 unknown #
vertex $-1 $517 $814 #
ellipse-curve $-1 -59.151902624129285 -10.59986191443695 7.411247807027479 -0.75470958851134928 0 0.65605901945558964 0.65605901945558964 0 0.75470958851134928 1 I I #
point $-1 -60.569976356058447 -10.59986191443695 9.9689734427819303 #
plane-surface $-1 -68.960844752342297 0 0 1 0 0 0 0 -1 forward_v I I I I #
coedge $-1 $701 $700 $693 $815 forward $521 $-1 #
coedge $-1 $693 $523 $525 $697 reversed $363 $-1 #
coedge $-1 $523 $692 $691 $815 reversed $363 $-1 #
coedge $-1 $531 $526 $523 $695 forward $532 $-1 #
edge $-1 $698 -45.084192546925216 $816 -27.28843140688663 $694 $817 forward 7 unknown #
coedge $-1 $525 $524 $701 $818 reversed $230 $-1 #
edge $-1 $819 -23.579614478120472 $698 4.3322354903144003e-014 $692 $820 forward 7 unknown #
vertex $-1 $527 $821 #
straight-curve $-1 -68.960844752342297 3.1845199211490716 0.31638328425126966 0 -1 0 I I #
coedge $-1 $691 $528 $531 $705 forward $521 $-1 #
coedge $-1 $528 $691 $696 $818 forward $521 $-1 #
vertex $-1 $529 $822 #
straight-curve $-1 -86.52583314260643 12.738079684596283 18.112144424289852 -1 0 0 I I #
straight-curve $-1 -68.960844752342268 12.738079684596283 0.31638328425130169 0.65605901945558964 0 0.75470958851134928 I I #
edge $-1 $533 -12.738079684596283 $816 -2.6645352591003757e-015 $531 $823 forward 7 unknown #
point $-1 -68.960844752342297 12.738079684596283 18.112144424289852 #
point $-1 -68.960844752342297 12.738079684596283 0.31638328425126899 #
edge $-1 $824 1 $824 0 $536 $-1 forward 7 unknown #
vertex $-1 $537 $825 #
ellipse-curve $-1 -59.151902624129285 2.5476159369192573 7.411247807027479 -0.75470958851134928 0 0.65605901945558964 0.65605901945558964 0 0.75470958851134928 1 I I #
point $-1 -60.569976356058447 2.5476159369192573 9.9689734427819303 #
edge $-1 $826 1 $826 0 $540 $-1 forward 7 unknown #
vertex $-1 $541 $827 #
ellipse-curve $-1 -59.151902624129285 6.3690398422981431 7.411247807027479 -0.75470958851134928 0 0.65605901945558964 0.65605901945558964 0 0.75470958851134928 1 I I #
point $-1 -60.569976356058447 6.3690398422981431 9.9689734427819303 #
edge $-1 $828 1 $828 0 $544 $-1 forward 7 unknown #
vertex $-1 $545 $829 #
ellipse-curve $-1 -59.151902624129285 10.190463747677022 7.411247807027479 -0.75470958851134928 0 0.65605901945558964 0.65605901945558964 0 0.75470958851134928 1 I I #
point $-1 -60.569976356058447 10.190463747677022 9.9689734427819303 #
plane-surface $-1 -68.960844752342297 0 0 1 0 0 0 0 -1 forward_v I I I I #
coedge $-1 $731 $730 $723 $830 forward $549 $-1 #
coedge $-1 $723 $551 $553 $727 reversed $392 $-1 #
coedge $-1 $551 $722 $721 $830 reversed $392 $-1 #
coedge $-1 $559 $554 $551 $725 forward $560 $-1 #
edge $-1 $728 -45.084192546925216 $831 -27.28843140688663 $724 $832 forward 7 unknown #
coedge $-1 $553 $552 $731 $833 reversed $249 $-1 #
edge $-1 $834 -23.579614478120472 $728 4.3322354903144003e-014 $722 $835 forward 7 unknown #
vertex $-1 $555 $836 #
straight-curve $-1 -68.960844752342297 13.579682752206057 0.31638328425126966 0 -1 0 I I #
coedge $-1 $721 $556 $559 $735 forward $549 $-1 #
coedge $-1 $556 $721 $726 $833 forward $549 $-1 #
vertex $-1 $557 $837 #
straight-curve $-1 -86.52583314260643 33.528405346710258 18.112144424289852 -1 0 0 I I #
straight-curve $-1 -68.960844752342268 33.528405346710258 0.31638328425130169 0.65605901945558964 0 0.75470958851134928 I I #
edge $-1 $561 -33.528405346710258 $831 -20.790325662113975 $559 $838 forward 7 unknown #
point $-1 -68.960844752342297 33.528405346710258 18.112144424289852 #
point $-1 -68.960844752342297 33.528405346710258 0.31638328425126899 #
edge $-1 $839 1 $839 0 $564 $-1 forward 7 unknown #
vertex $-1 $565 $840 #
ellipse-curve $-1 -59.151902624129285 23.337941599033236 7.411247807027479 -0.75470958851134928 0 0.65605901945558964 0.65605901945558964 0 0.75470958851134928 1 I I #
point $-1 -60.569976356058447 23.337941599033236 9.9689734427819303 #
edge $-1 $841 1 $841 0 $568 $-1 forward 7 unknown #
vertex $-1 $569 $842 #
ellipse-curve $-1 -59.151902624129285 27.159365504412115 7.411247807027479 -0.75470958851134928 0 0.65605901945558964 0.65605901945558964 0 0.75470958851134928 1 I I #
point $-1 -60.569976356058447 27.159365504412115 9.9689734427819303 #
edge $-1 $843 1 $843 0 $572 $-1 forward 7 unknown #
vertex $-1 $573 $844 #
ellipse-curve $-1 -59.151902624129285 30.980789409790994 7.411247807027479 -0.75470958851134928 0 0.65605901945558964 0.65605901945558964 0 0.75470958851134928 1 I I #
point $-1 -60.569976356058447 30.980789409790994 9.9689734427819303 #
plane-surface $-1 68.960844752342297 0 0 -1 0 0 0 0 1 forward_v I I I I #
coedge $-1 $581 $579 $583 $755 reversed $421 $-1 #
edge $-1 $594 -18.112144424289852 $757 18.112144424289852 $593 $845 forward 7 unknown #
vertex $-1 $755 $846 #
straight-curve $-1 -68.960844752342297 -41.580651324227951 0 0 0 -1 I I #
edge $-1 $753 -41.580651324227951 $757 41.580651324227951 $751 $847 forward 7 unknown #
straight-curve $-1 0 -41.580651324227951 -18.112144424289852 -1 0 0 I I #
vertex $-1 $586 $848 #
straight-curve $-1 0 41.580651324227951 -18.112144424289852 1 0 0 I I #
point $-1 68.960844752342297 41.580651324227951 -18.112144424289852 #
point $-1 68.960844752342297 -41.580651324227951 -18.112144424289852 #
straight-curve $-1 -68.960844752342297 0 18.112144424289852 0 -1 0 I I #
point $-1 -68.960844752342297 41.580651324227951 18.112144424289852 #
point $-1 -68.960844752342297 -41.580651324227951 18.112144424289852 #
straight-curve $-1 68.960844752342297 -41.580651324227951 0 0 0 -1 I I #
straight-curve $-1 68.960844752342297 41.580651324227951 0 0 0 -1 I I #
coedge $-1 $770 $608 $605 $767 reversed $603 $-1 #
edge $-1 $775 -68.960844752342297 $768 -60.298677117709715 $766 $849 forward 7 unknown #
vertex $-1 $609 $850 #
straight-curve $-1 60.298677117709687 15.944790884777074 18.112144424289859 0 -1 0 I I #
coedge $-1 $608 $766 $610 $772 forward $603 $-1 #
straight-curve $-1 -0.10433663165843043 41.580651324227951 70.619684321793571 -0.75470957328743171 0 0.6560590369687036 I I #
edge $-1 $775 -18.112144424289852 $611 -10.58223681799771 $610 $851 forward 7 unknown #
point $-1 68.960844752342297 41.580651324227951 10.58223681799771 #
point $-1 60.298677117709715 22.198512214880346 18.112144424289852 #
vertex $-1 $617 $852 #
straight-curve $-1 68.960844752342297 0 18.112144424289852 0 1 0 I I #
vertex $-1 $620 $853 #
point $-1 63.257098921167895 26.074940036749872 11.243870572152733 #
vertex $-1 $624 $854 #
point $-1 63.257098921167895 31.889581769554148 11.243870572152733 #
vertex $-1 $628 $855 #
point $-1 63.257098921167895 37.704223502358424 11.243870572152733 #
coedge $-1 $784 $634 $790 $856 reversed $467 $-1 #
coedge $-1 $634 $783 $637 $788 forward $467 $-1 #
edge $-1 $786 -23.974845583263047 $642 -11.236765898666764 $641 $857 forward 7 unknown #
vertex $-1 $636 $858 #
straight-curve $-1 -54.198333713582656 -41.580651324227951 17.298710027814511 0.65605901945558975 0 0.75470958851134939 I I #
edge $-1 $792 -18.112144424289852 $638 -0.31638328425126899 $637 $859 forward 7 unknown #
point $-1 -68.960844752342297 -41.580651324227951 0.31638328425126899 #
coedge $-1 $641 $640 $783 $856 forward $632 $-1 #
point $-1 -53.491225998685728 -28.842571639631668 18.112144424289852 #
vertex $-1 $645 $860 #
straight-curve $-1 -68.960844752342297 0 18.112144424289852 0 -1 0 I I #
vertex $-1 $648 $861 #
point $-1 -58.495843604673695 -39.033035387308693 8.1659573955388289 #
vertex $-1 $652 $862 #
point $-1 -58.495843604673695 -35.211611481929808 8.1659573955388289 #
vertex $-1 $656 $863 #
point $-1 -58.495843604673695 -31.390187576550925 8.1659573955388289 #
edge $-1 $801 17.564988390264133 $804 33.034607143920702 $661 $864 forward 7 unknown #
vertex $-1 $800 $865 #
straight-curve $-1 -68.960844752342297 -20.790325662113975 45.400575831176482 0 0 1 I I #
edge $-1 $804 -13.579682752206057 $672 -0.84160306760977832 $671 $866 forward 7 unknown #
vertex $-1 $803 $867 #
straight-curve $-1 -68.960844752342268 -20.790325662113975 0.31638328425130169 -0.65605901945558964 0 -0.75470958851134928 I I #
point $-1 -68.960844752342297 -20.790325662113975 0.31638328425126899 #
point $-1 -53.491225998685728 -8.0522459775176962 18.112144424289852 #
straight-curve $-1 -68.960844752342297 0 18.112144424289852 0 -1 0 I I #
vertex $-1 $678 $868 #
point $-1 -58.495843604673695 -18.242709725194718 8.1659573955388289 #
vertex $-1 $682 $869 #
point $-1 -58.495843604673695 -14.421285819815836 8.1659573955388289 #
vertex $-1 $686 $870 #
point $-1 -58.495843604673695 -10.59986191443695 8.1659573955388289 #
edge $-1 $816 17.564988390264133 $819 33.034607143920702 $691 $871 forward 7 unknown #
vertex $-1 $695 $872 #
straight-curve $-1 -68.960844752342297 2.6645352591003757e-015 45.400575831176482 0 0 1 I I #
edge $-1 $819 -3.1845199211490689 $702 9.5535597634472111 $701 $873 forward 7 unknown #
vertex $-1 $818 $874 #
straight-curve $-1 -68.960844752342268 2.6645352591003757e-015 0.31638328425130169 -0.65605901945558964 0 -0.75470958851134928 I I #
point $-1 -68.960844752342297 2.6645352591003757e-015 0.31638328425126899 #
point $-1 -53.491225998685728 12.738079684596283 18.112144424289852 #
straight-curve $-1 -68.960844752342297 0 18.112144424289852 0 -1 0 I I #
vertex $-1 $708 $875 #
point $-1 -58.495843604673695 2.5476159369192573 8.1659573955388289 #
vertex $-1 $712 $876 #
point $-1 -58.495843604673695 6.3690398422981431 8.1659573955388289 #
vertex $-1 $716 $877 #
point $-1 -58.495843604673695 10.190463747677022 8.1659573955388289 #
edge $-1 $831 17.564988390264133 $834 33.034607143920702 $721 $878 forward 7 unknown #
vertex $-1 $725 $879 #
straight-curve $-1 -68.960844752342297 20.790325662113975 45.400575831176482 0 0 1 I I #
edge $-1 $834 7.2106429099079179 $732 19.948722594504201 $731 $880 forward 7 unknown #
vertex $-1 $833 $881 #
straight-curve $-1 -68.960844752342268 20.790325662113975 0.31638328425130169 -0.65605901945558964 0 -0.75470958851134928 I I #
point $-1 -68.960844752342297 20.790325662113975 0.31638328425126899 #
point $-1 -53.491225998685728 33.528405346710258 18.112144424289852 #
straight-curve $-1 -68.960844752342297 0 18.112144424289852 0 -1 0 I I #
vertex $-1 $738 $882 #
point $-1 -58.495843604673695 23.337941599033236 8.1659573955388289 #
vertex $-1 $742 $883 #
point $-1 -58.495843604673695 27.159365504412115 8.1659573955388289 #
vertex $-1 $746 $884 #
point $-1 -58.495843604673695 30.980789409790994 8.1659573955388289 #
straight-curve $-1 -68.960844752342297 41.580651324227951 0 0 0 -1 I I #
point $-1 -68.960844752342297 -41.580651324227951 -18.112144424289852 #
straight-curve $-1 -68.960844752342297 0 -18.112144424289852 0 1 0 I I #
point $-1 -68.960844752342297 41.580651324227951 -18.112144424289852 #
straight-curve $-1 0 41.580651324227951 18.112144424289852 -1 0 0 I I #
point $-1 60.298677117709715 41.580651324227951 18.112144424289852 #
straight-curve $-1 68.960844752342297 41.580651324227951 0 0 0 -1 I I #
point $-1 68.960844752342297 41.580651324227951 18.112144424289852 #
point $-1 61.84633031091176 26.074940036749872 11.145220035834006 #
point $-1 61.84633031091176 31.889581769554148 11.145220035834006 #
point $-1 61.84633031091176 37.704223502358424 11.145220035834006 #
edge $-1 $792 -68.960844752342297 $786 -53.491225998685728 $783 $885 forward 7 unknown #
straight-curve $-1 -53.491225998685728 -17.605805740964904 18.112144424289852 0 1 0 I I #
point $-1 -53.491225998685728 -41.580651324227951 18.112144424289852 #
straight-curve $-1 -68.960844752342297 -41.580651324227951 0 0 0 -1 I I #
point $-1 -68.960844752342297 -41.580651324227951 18.112144424289852 #
point $-1 -58.397193035617939 -39.033035387308693 6.755188787571889 #
point $-1 -58.397193035617939 -35.211611481929808 6.755188787571889 #
point $-1 -58.397193035617939 -31.390187576550925 6.755188787571889 #
straight-curve $-1 -86.52583314260643 -20.790325662113975 18.112144424289852 1 0 0 I I #
point $-1 -68.960844752342297 -20.790325662113975 18.112144424289852 #
straight-curve $-1 -53.491225998685728 -7.2106429099079179 18.112144424289852 0 1 0 I I #
point $-1 -53.491225998685728 -20.790325662113975 18.112144424289852 #
point $-1 -58.397193035617939 -18.242709725194718 6.755188787571889 #
point $-1 -58.397193035617939 -14.421285819815836 6.755188787571889 #
point $-1 -58.397193035617939 -10.59986191443695 6.755188787571889 #
straight-curve $-1 -86.52583314260643 2.6645352591003757e-015 18.112144424289852 1 0 0 I I #
point $-1 -68.960844752342297 2.6645352591003757e-015 18.112144424289852 #
straight-curve $-1 -53.491225998685728 3.1845199211490716 18.112144424289852 0 1 0 I I #
point $-1 -53.491225998685728 2.6645352591003757e-015 18.112144424289852 #
point $-1 -58.397193035617939 2.5476159369192573 6.755188787571889 #
point $-1 -58.397193035617939 6.3690398422981431 6.755188787571889 #
point $-1 -58.397193035617939 10.190463747677022 6.755188787571889 #
straight-curve $-1 -86.52583314260643 20.790325662113975 18.112144424289852 1 0 0 I I #
point $-1 -68.960844752342297 20.790325662113975 18.112144424289852 #
straight-curve $-1 -53.491225998685728 13.579682752206057 18.112144424289852 0 1 0 I I #
point $-1 -53.491225998685728 20.790325662113975 18.112144424289852 #
point $-1 -58.397193035617939 23.337941599033236 6.755188787571889 #
point $-1 -58.397193035617939 27.159365504412115 6.755188787571889 #
point $-1 -58.397193035617939 30.980789409790994 6.755188787571889 #
straight-curve $-1 0 -41.580651324227951 18.112144424289852 1 0 0 I I #
End-of-ACIS-data 