500 0 7 0           
7 Unknown 11 ACIS 5.0 NT 24 Thu Mar 25 23:01:38 1999 
-1 9.9999999999999995e-007 1e-010 
body $-1 $7 $-1 $8 #
body $-1 $9 $-1 $10 #
body $-1 $11 $-1 $12 #
body $-1 $13 $-1 $14 #
body $-1 $15 $-1 $16 #
body $-1 $17 $-1 $18 #
body $-1 $19 $-1 $20 #
lump $-1 $-1 $21 $0 #
transform $-1 1 0 0 0 1 0 0 0 1 75.392925809503467 51.578130435923221 23.889771044433825 1 rotate no_reflect no_shear #
lump $-1 $-1 $22 $1 #
transform $-1 1 0 0 0 1 0 0 0 1 75.392925809503467 51.578130435923221 23.889771044433825 1 rotate no_reflect no_shear #
lump $-1 $-1 $23 $2 #
transform $-1 1 0 0 0 1 0 0 0 1 75.392925809503467 51.578130435923221 23.889771044433825 1 rotate no_reflect no_shear #
lump $-1 $-1 $24 $3 #
transform $-1 1 0 0 0 1 0 0 0 1 75.392925809503467 51.578130435923221 23.889771044433825 1 rotate no_reflect no_shear #
lump $-1 $-1 $25 $4 #
transform $-1 1 0 0 0 1 0 0 0 1 75.392925809503467 51.578130435923221 23.889771044433825 1 rotate no_reflect no_shear #
lump $-1 $-1 $26 $5 #
transform $-1 1 0 0 0 1 0 0 0 1 75.392925809503467 51.578130435923221 23.889771044433825 1 rotate no_reflect no_shear #
lump $-1 $-1 $27 $6 #
transform $-1 1 0 0 0 1 0 0 0 1 75.392925809503467 51.578130435923221 23.889771044433825 1 rotate no_reflect no_shear #
shell $-1 $-1 $-1 $28 $-1 $7 #
shell $-1 $-1 $-1 $29 $-1 $9 #
shell $-1 $-1 $-1 $30 $-1 $11 #
shell $-1 $-1 $-1 $31 $-1 $13 #
shell $-1 $-1 $-1 $32 $-1 $15 #
shell $-1 $-1 $-1 $33 $-1 $17 #
shell $-1 $-1 $-1 $34 $-1 $19 #
face $-1 $35 $36 $21 $-1 $37 forward single #
face $-1 $38 $39 $22 $-1 $40 forward single #
face $-1 $41 $42 $23 $-1 $43 reversed single #
face $-1 $44 $45 $24 $-1 $46 forward single #
face $-1 $47 $48 $25 $-1 $49 forward single #
face $-1 $50 $51 $26 $-1 $52 reversed single #
face $-1 $53 $54 $27 $-1 $55 forward single #
face $-1 $56 $57 $21 $-1 $58 reversed single #
loop $-1 $-1 $59 $28 #
plane-surface $-1 0 0 23.889771044433825 0 0 1 1 0 0 forward_v I I I I #
face $-1 $60 $61 $22 $-1 $62 reversed single #
loop $-1 $-1 $63 $29 #
plane-surface $-1 0 -40.614630613101141 11.190987151723352 0 0 1 1 0 0 forward_v I I I I #
face $-1 $64 $65 $23 $-1 $66 reversed single #
loop $-1 $-1 $67 $30 #
plane-surface $-1 -182.01462523337557 21.422176927976153 118.27628554381742 0 1 0 -0.70710678939079041 0 0.70710677298230451 forward_v I I I I #
face $-1 $68 $69 $24 $-1 $70 forward single #
loop $-1 $71 $72 $31 #
cone-surface $-1 -68.529297896075889 25.259450217262803 17.026143006358765 0.70710678939079041 0 -0.70710677298230451 0.70710677298230451 0 0.70710678939079041 1 I I 0 1 1 forward I I I I #
face $-1 $73 $74 $25 $-1 $75 forward single #
loop $-1 $76 $77 $32 #
cone-surface $-1 -68.529297896075889 31.015360151192787 17.026143006358765 0.70710678939079041 0 -0.70710677298230451 0.70710677298230451 0 0.70710678939079041 1 I I 0 1 1 forward I I I I #
face $-1 $78 $79 $26 $-1 $80 reversed single #
loop $-1 $-1 $81 $33 #
plane-surface $-1 119.72872397071673 0.79457833893556185 225.84067132658851 0 -1 0 -0.83867057594974714 0 -0.54463902268945019 forward_v I I I I #
face $-1 $82 $83 $27 $-1 $84 forward single #
loop $-1 $85 $86 $34 #
cone-surface $-1 72.212637535050916 -5.0520097264636661 19.906747091548318 -0.83867057594974714 0 -0.54463902268945019 0.81695853403417529 0 -1.2580058639246208 1 I I 0 1 1.5 forward I I I I #
face $-1 $87 $88 $21 $-1 $89 reversed single #
loop $-1 $-1 $90 $35 #
plane-surface $-1 0 0 -23.889771044433825 0 0 1 1 0 0 forward_v I I I I #
coedge $-1 $91 $92 $93 $94 forward $36 $-1 #
face $-1 $95 $96 $22 $-1 $97 reversed single #
loop $-1 $-1 $98 $38 #
plane-surface $-1 0 -40.614630613101141 -2.2114026063078747 0 0 1 1 0 0 forward_v I I I I #
coedge $-1 $99 $100 $101 $102 reversed $39 $-1 #
face $-1 $103 $104 $23 $-1 $105 reversed single #
loop $-1 $-1 $106 $41 #
plane-surface $-1 -75.392925809503453 28.137405184227809 11.654588594112838 -0.70710678939079041 0 0.70710677298230451 0.70710677298230451 0 0.70710678939079041 forward_v I I I I #
coedge $-1 $107 $108 $109 $110 reversed $42 $-1 #
face $-1 $-1 $111 $24 $-1 $112 forward single #
loop $-1 $113 $114 $44 #
cone-surface $-1 -67.429707671154077 25.259450217262803 15.926552806953058 0.70710678939079041 0 -0.70710677298230451 0.35355338649115226 0 0.35355339469539521 1 I I -0.70710678118654746 0.70710678118654746 0.5 forward I I I I #
loop $-1 $-1 $115 $31 #
coedge $-1 $72 $72 $116 $117 reversed $45 $-1 #
face $-1 $-1 $118 $25 $-1 $119 forward single #
loop $-1 $120 $121 $47 #
cone-surface $-1 -67.429707671154077 31.015360151192787 15.926552806953058 0.70710678939079041 0 -0.70710677298230451 0.35355338649115226 0 0.35355339469539521 1 I I -0.70710678118654746 0.70710678118654746 0.5 forward I I I I #
loop $-1 $-1 $122 $32 #
coedge $-1 $77 $77 $123 $124 reversed $48 $-1 #
face $-1 $125 $126 $26 $-1 $127 reversed single #
loop $-1 $-1 $128 $50 #
plane-surface $-1 -6.7309330516689272 -5.0520097264636732 143.71681246541613 0.83867057594974714 0 0.54463902268945019 0.54463902268945019 0 -0.83867057594974714 forward_v I I I I #
coedge $-1 $129 $130 $131 $132 reversed $51 $-1 #
face $-1 $-1 $133 $27 $-1 $134 forward single #
loop $-1 $135 $136 $53 #
cone-surface $-1 70.556981726499103 -5.0520097264636661 18.831551672347391 -0.83867057594974714 0 -0.54463902268945019 0.40847926701708764 0 -0.62900293196231039 1 I I -0.70710678118654757 0.70710678118654757 0.75 forward I I I I #
loop $-1 $-1 $137 $34 #
coedge $-1 $86 $86 $138 $139 reversed $54 $-1 #
face $-1 $140 $141 $21 $-1 $142 reversed single #
loop $-1 $-1 $143 $56 #
plane-surface $-1 0 -51.578130435923221 0 0 1 0 0 0 1 forward_v I I I I #
coedge $-1 $144 $145 $146 $147 forward $57 $-1 #
coedge $-1 $148 $59 $149 $150 forward $36 $-1 #
coedge $-1 $59 $148 $151 $152 forward $36 $-1 #
coedge $-1 $153 $154 $59 $94 reversed $155 $-1 #
edge $-1 $156 -51.578130435923221 $157 51.578130435923221 $93 $158 forward 7 unknown #
face $-1 $159 $160 $22 $-1 $161 reversed single #
loop $-1 $-1 $162 $60 #
plane-surface $-1 0 -29.651130790279066 4.4897922727077386 0 -1 0 0 0 -1 forward_v I I I I #
coedge $-1 $163 $164 $165 $166 reversed $61 $-1 #
coedge $-1 $167 $63 $168 $169 forward $39 $-1 #
coedge $-1 $63 $167 $170 $171 reversed $39 $-1 #
coedge $-1 $172 $173 $63 $102 forward $174 $-1 #
edge $-1 $175 9.3438154837284948 $176 31.270815129372643 $101 $177 forward 7 unknown #
face $-1 $178 $179 $23 $-1 $180 reversed single #
loop $-1 $-1 $181 $64 #
plane-surface $-1 -182.01462523337557 34.852633440479465 118.27628554381742 0 -1 0 0.70710678939079041 0 -0.70710677298230451 forward_v I I I I #
coedge $-1 $182 $183 $184 $185 reversed $65 $-1 #
coedge $-1 $108 $67 $186 $187 reversed $42 $-1 #
coedge $-1 $67 $107 $182 $188 reversed $42 $-1 #
coedge $-1 $184 $189 $67 $110 forward $190 $-1 #
edge $-1 $191 15.614386807184317 $192 27.849568973586649 $109 $193 forward 7 unknown #
loop $-1 $-1 $116 $68 #
plane-surface $-1 -75.392925809503453 28.137405184227809 11.654588594112838 -0.70710678939079041 0 0.70710677298230451 0.70710677298230451 0 0.70710678939079041 forward_v I I I I #
loop $-1 $-1 $194 $44 #
coedge $-1 $114 $114 $115 $195 reversed $69 $-1 #
coedge $-1 $115 $115 $114 $195 forward $71 $-1 #
coedge $-1 $116 $116 $72 $117 forward $111 $-1 #
edge $-1 $196 0 $196 6.2831853071796004 $116 $197 forward 7 unknown #
loop $-1 $-1 $123 $73 #
plane-surface $-1 -75.392925809503453 28.137405184227809 11.654588594112838 -0.70710678939079041 0 0.70710677298230451 0.70710677298230451 0 0.70710678939079041 forward_v I I I I #
loop $-1 $-1 $198 $47 #
coedge $-1 $121 $121 $122 $199 reversed $74 $-1 #
coedge $-1 $122 $122 $121 $199 forward $76 $-1 #
coedge $-1 $123 $123 $77 $124 forward $118 $-1 #
edge $-1 $200 0 $200 6.2831853071796004 $123 $201 forward 7 unknown #
face $-1 $202 $203 $26 $-1 $204 forward single #
loop $-1 $-1 $205 $78 #
plane-surface $-1 119.72872397071673 -10.898597791862908 225.84067132658851 0 1 0 0.83867057594974714 0 0.54463902268945019 forward_v I I I I #
coedge $-1 $206 $207 $208 $209 reversed $79 $-1 #
coedge $-1 $130 $81 $210 $211 reversed $51 $-1 #
coedge $-1 $81 $129 $206 $212 reversed $51 $-1 #
coedge $-1 $208 $213 $81 $132 forward $203 $-1 #
edge $-1 $214 -15.528563824145103 $215 -11.221293028419005 $131 $216 forward 7 unknown #
loop $-1 $-1 $138 $82 #
plane-surface $-1 -6.7309330516689272 -5.0520097264636732 143.71681246541613 0.83867057594974714 0 0.54463902268945019 0.54463902268945019 0 -0.83867057594974714 forward_v I I I I #
loop $-1 $-1 $217 $53 #
coedge $-1 $136 $136 $137 $218 reversed $83 $-1 #
coedge $-1 $137 $137 $136 $218 forward $85 $-1 #
coedge $-1 $138 $138 $86 $139 forward $133 $-1 #
edge $-1 $219 0 $219 6.2831853071796004 $138 $220 forward 7 unknown #
face $-1 $221 $222 $21 $-1 $223 reversed single #
loop $-1 $-1 $224 $87 #
plane-surface $-1 -75.392925809503467 0 0 1 0 0 0 0 -1 forward_v I I I I #
coedge $-1 $225 $151 $226 $227 forward $88 $-1 #
coedge $-1 $228 $90 $225 $229 forward $57 $-1 #
coedge $-1 $90 $228 $230 $231 forward $57 $-1 #
coedge $-1 $154 $153 $90 $147 reversed $155 $-1 #
edge $-1 $232 -51.578130435923221 $233 51.578130435923221 $146 $234 forward 7 unknown #
coedge $-1 $92 $91 $235 $236 forward $36 $-1 #
coedge $-1 $237 $238 $91 $150 reversed $222 $-1 #
edge $-1 $157 -75.392925809503467 $239 75.392925809503467 $149 $240 forward 7 unknown #
coedge $-1 $143 $241 $92 $152 reversed $88 $-1 #
edge $-1 $242 -75.392925809503467 $156 75.392925809503467 $151 $243 forward 7 unknown #
coedge $-1 $146 $93 $241 $244 forward $155 $-1 #
coedge $-1 $93 $146 $237 $245 reversed $155 $-1 #
loop $-1 $-1 $153 $221 #
vertex $-1 $94 $246 #
vertex $-1 $94 $247 #
straight-curve $-1 75.392925809503467 0 23.889771044433825 0 1 0 I I #
face $-1 $248 $249 $22 $-1 $250 reversed single #
loop $-1 $-1 $251 $95 #
plane-surface $-1 -75.392925809503467 0 0 1 0 0 0 0 -1 forward_v I I I I #
coedge $-1 $252 $168 $173 $253 reversed $96 $-1 #
coedge $-1 $254 $98 $255 $256 reversed $61 $-1 #
coedge $-1 $98 $254 $252 $257 forward $61 $-1 #
coedge $-1 $173 $172 $98 $166 forward $174 $-1 #
edge $-1 $258 -31.270815129372643 $259 -9.3438154837284948 $165 $260 forward 7 unknown #
coedge $-1 $100 $99 $251 $261 reversed $39 $-1 #
coedge $-1 $162 $262 $99 $169 reversed $96 $-1 #
edge $-1 $175 -75.392925809503467 $263 75.392925809503467 $168 $264 forward 7 unknown #
coedge $-1 $265 $266 $100 $171 forward $249 $-1 #
edge $-1 $176 -75.392925809503467 $267 75.392925809503467 $170 $268 forward 7 unknown #
coedge $-1 $165 $101 $266 $269 forward $174 $-1 #
coedge $-1 $101 $165 $162 $253 forward $174 $-1 #
loop $-1 $-1 $101 $248 #
vertex $-1 $102 $270 #
vertex $-1 $269 $271 #
straight-curve $-1 75.392925809503467 -20.307315306550571 11.190987151723352 0 -1 0 I I #
face $-1 $-1 $190 $23 $-1 $272 forward single #
loop $-1 $-1 $273 $103 #
plane-surface $-1 -75.392925809503467 0 0 1 0 0 0 0 -1 forward_v I I I I #
coedge $-1 $274 $275 $276 $277 reversed $104 $-1 #
coedge $-1 $278 $106 $108 $188 forward $65 $-1 #
coedge $-1 $106 $278 $274 $279 forward $65 $-1 #
coedge $-1 $276 $109 $106 $185 forward $190 $-1 #
edge $-1 $192 7.3534743358622485 $280 20.783930848365561 $184 $281 forward 7 unknown #
coedge $-1 $282 $283 $107 $187 forward $179 $-1 #
edge $-1 $284 -47.483554177795888 $191 -35.24837172747489 $186 $285 forward 7 unknown #
edge $-1 $192 -17.303160758592409 $284 2.0097183471152325e-014 $108 $286 forward 7 unknown #
coedge $-1 $109 $276 $282 $287 forward $190 $-1 #
loop $-1 $-1 $276 $178 #
vertex $-1 $187 $288 #
vertex $-1 $110 $289 #
straight-curve $-1 -91.007312616687784 21.422176927976153 23.889771044433829 1 0 0 I I #
coedge $-1 $194 $194 $-1 $290 reversed $113 $-1 #
edge $-1 $291 0 $291 6.2831853071796004 $114 $292 forward 7 unknown #
vertex $-1 $117 $293 #
ellipse-curve $-1 -69.275334726302304 25.259450217262803 17.772179819273319 -0.70710678939079041 0 0.70710677298230451 0.70710677298230451 0 0.70710678939079041 1 I I #
coedge $-1 $198 $198 $-1 $294 reversed $120 $-1 #
edge $-1 $295 0 $295 6.2831853071796004 $121 $296 forward 7 unknown #
vertex $-1 $124 $297 #
ellipse-curve $-1 -69.275334726302304 31.015360151192787 17.772179819273319 -0.70710678939079041 0 0.70710677298230451 0.70710677298230451 0 0.70710678939079041 1 I I #
face $-1 $-1 $298 $26 $-1 $299 reversed single #
loop $-1 $-1 $131 $125 #
plane-surface $-1 0 0 23.889771044433825 0 0 1 1 0 0 forward_v I I I I #
coedge $-1 $300 $301 $302 $303 reversed $126 $-1 #
coedge $-1 $304 $128 $130 $212 forward $79 $-1 #
coedge $-1 $128 $304 $300 $305 forward $79 $-1 #
coedge $-1 $302 $131 $128 $209 forward $203 $-1 #
edge $-1 $215 -3.3205832021673984 $306 8.3725929286310716 $208 $307 forward 7 unknown #
coedge $-1 $308 $309 $129 $211 forward $298 $-1 #
edge $-1 $310 -95.663180220263783 $214 -89.030564618860424 $210 $311 forward 7 unknown #
edge $-1 $215 142.87736431588164 $310 150.78585161900693 $130 $312 forward 7 unknown #
coedge $-1 $131 $302 $308 $313 forward $203 $-1 #
vertex $-1 $211 $314 #
vertex $-1 $132 $315 #
straight-curve $-1 59.864361985358364 0.79457833893556185 23.889771044433829 -1 0 0 I I #
coedge $-1 $217 $217 $-1 $316 reversed $135 $-1 #
edge $-1 $317 0 $317 6.2831853071796004 $136 $318 forward 7 unknown #
vertex $-1 $139 $319 #
ellipse-curve $-1 73.239290411640411 -5.0520097264636661 20.573463243732157 0.83867057594974714 0 0.54463902268945019 0.81695853403417529 0 -1.2580058639246208 1 I I #
face $-1 $-1 $155 $21 $-1 $320 reversed single #
loop $-1 $-1 $237 $140 #
plane-surface $-1 0 51.578130435923221 0 0 -1 0 0 0 -1 forward_v I I I I #
coedge $-1 $321 $235 $238 $322 forward $141 $-1 #
coedge $-1 $241 $143 $144 $229 reversed $88 $-1 #
coedge $-1 $235 $321 $143 $227 reversed $141 $-1 #
edge $-1 $242 -23.889771044433825 $323 23.889771044433825 $226 $324 forward 7 unknown #
coedge $-1 $145 $144 $321 $325 forward $57 $-1 #
edge $-1 $233 -75.392925809503467 $323 75.392925809503467 $225 $326 forward 7 unknown #
coedge $-1 $238 $237 $145 $231 reversed $222 $-1 #
edge $-1 $327 -75.392925809503467 $232 75.392925809503467 $230 $328 forward 7 unknown #
vertex $-1 $147 $329 #
vertex $-1 $244 $330 #
straight-curve $-1 75.392925809503467 0 -23.889771044433825 0 -1 0 I I #
coedge $-1 $224 $226 $148 $236 reversed $141 $-1 #
edge $-1 $239 -51.578130435923221 $242 51.578130435923221 $235 $331 forward 7 unknown #
coedge $-1 $230 $149 $154 $245 forward $222 $-1 #
coedge $-1 $149 $230 $224 $322 reversed $222 $-1 #
vertex $-1 $150 $332 #
straight-curve $-1 0 51.578130435923221 23.889771044433825 -1 0 0 I I #
coedge $-1 $151 $225 $153 $244 reversed $88 $-1 #
vertex $-1 $236 $333 #
straight-curve $-1 0 -51.578130435923221 23.889771044433825 1 0 0 I I #
edge $-1 $156 -23.889771044433825 $233 23.889771044433825 $153 $334 forward 7 unknown #
edge $-1 $157 -23.889771044433825 $232 23.889771044433825 $154 $335 forward 7 unknown #
point $-1 75.392925809503467 -51.578130435923221 23.889771044433825 #
point $-1 75.392925809503467 51.578130435923221 23.889771044433825 #
face $-1 $-1 $174 $22 $-1 $336 reversed single #
loop $-1 $-1 $170 $159 #
plane-surface $-1 0 -51.578130435923221 0 0 1 0 0 0 1 forward_v I I I I #
coedge $-1 $337 $338 $167 $261 forward $160 $-1 #
coedge $-1 $262 $162 $164 $257 reversed $96 $-1 #
edge $-1 $259 -4.456298742661744 $175 8.9460910153694826 $173 $339 forward 7 unknown #
coedge $-1 $164 $163 $340 $341 reversed $61 $-1 #
coedge $-1 $266 $265 $163 $256 forward $249 $-1 #
edge $-1 $342 -75.392925809503467 $258 75.392925809503467 $255 $343 forward 7 unknown #
edge $-1 $344 -75.392925809503467 $259 75.392925809503467 $252 $345 forward 7 unknown #
vertex $-1 $256 $346 #
vertex $-1 $166 $347 #
straight-curve $-1 75.392925809503467 -20.307315306550571 -2.2114026063078747 0 1 0 I I #
edge $-1 $267 -31.270815129372643 $263 -9.3438154837284948 $251 $348 forward 7 unknown #
coedge $-1 $168 $252 $337 $349 reversed $96 $-1 #
vertex $-1 $261 $350 #
straight-curve $-1 0 -29.651130790279066 11.190987151723352 -1 0 0 I I #
coedge $-1 $255 $170 $338 $351 forward $249 $-1 #
coedge $-1 $170 $255 $172 $269 reversed $249 $-1 #
vertex $-1 $351 $352 #
straight-curve $-1 0 -51.578130435923221 11.190987151723352 -1 0 0 I I #
edge $-1 $176 -11.190987151723352 $258 2.2114026063078747 $172 $353 forward 7 unknown #
point $-1 75.392925809503467 -29.651130790279066 11.190987151723352 #
point $-1 75.392925809503467 -51.578130435923214 11.190987151723352 #
plane-surface $-1 0 0 23.889771044433825 0 0 1 1 0 0 forward_v I I I I #
coedge $-1 $283 $282 $275 $354 forward $179 $-1 #
coedge $-1 $275 $181 $183 $279 reversed $104 $-1 #
coedge $-1 $181 $274 $273 $354 reversed $104 $-1 #
coedge $-1 $189 $184 $181 $277 forward $190 $-1 #
edge $-1 $280 -27.849568973586649 $355 -15.614386807184317 $276 $356 forward 7 unknown #
coedge $-1 $183 $182 $283 $357 reversed $65 $-1 #
edge $-1 $358 -2.0097183471152325e-014 $280 17.303160758592409 $274 $359 forward 7 unknown #
vertex $-1 $185 $360 #
straight-curve $-1 -63.157743643101135 14.068702592113905 23.889771044433822 0 1 0 I I #
coedge $-1 $273 $186 $189 $287 reversed $179 $-1 #
coedge $-1 $186 $273 $278 $357 forward $179 $-1 #
vertex $-1 $187 $361 #
straight-curve $-1 -75.392925809503467 21.422176927976153 59.138142771908711 0 0 1 I I #
straight-curve $-1 -75.392925809503453 21.422176927976153 11.654588594112838 -0.70710677298230451 0 -0.70710678939079041 I I #
edge $-1 $355 -34.852633440479465 $191 -21.422176927976153 $282 $362 forward 7 unknown #
point $-1 -75.392925809503467 21.422176927976153 23.889771044433825 #
point $-1 -63.157743643101135 21.422176927976153 23.889771044433825 #
edge $-1 $363 1 $363 0 $194 $-1 forward 7 unknown #
vertex $-1 $195 $364 #
ellipse-curve $-1 -67.783261065849473 25.259450217262803 16.280106193444212 -0.70710678939079041 0 0.70710677298230451 0.70710677298230451 0 0.70710678939079041 1 I I #
point $-1 -68.568227953320005 25.259450217262803 18.479286608664111 #
edge $-1 $365 1 $365 0 $198 $-1 forward 7 unknown #
vertex $-1 $199 $366 #
ellipse-curve $-1 -67.783261065849473 31.015360151192787 16.280106193444212 -0.70710678939079041 0 0.70710677298230451 0.70710677298230451 0 0.70710678939079041 1 I I #
point $-1 -68.568227953320005 31.015360151192787 18.479286608664111 #
loop $-1 $-1 $210 $202 #
plane-surface $-1 75.392925809503467 0 0 -1 0 0 0 0 1 forward_v I I I I #
coedge $-1 $301 $205 $207 $305 reversed $126 $-1 #
coedge $-1 $205 $300 $367 $368 reversed $126 $-1 #
coedge $-1 $213 $208 $205 $303 forward $203 $-1 #
edge $-1 $306 11.221293028419005 $369 15.528563824145103 $302 $370 forward 7 unknown #
coedge $-1 $207 $206 $309 $371 reversed $79 $-1 #
edge $-1 $372 -150.78585161900693 $306 -142.87736431588164 $300 $373 forward 7 unknown #
vertex $-1 $209 $374 #
straight-curve $-1 71.08565501377737 -2.5260048632318366 23.889771044433829 0 -1 0 I I #
coedge $-1 $367 $210 $213 $313 reversed $298 $-1 #
coedge $-1 $210 $367 $304 $371 forward $298 $-1 #
vertex $-1 $211 $375 #
straight-curve $-1 75.392925809503467 0.79457833893556185 112.92033566329425 0 0 1 I I #
straight-curve $-1 -6.7309330516689272 0.79457833893556185 143.71681246541613 0.54463902268945019 0 -0.83867057594974714 I I #
edge $-1 $369 -10.898597791862908 $214 0.79457833893556185 $308 $376 forward 7 unknown #
point $-1 75.392925809503467 0.79457833893556185 23.889771044433825 #
point $-1 71.08565501377737 0.79457833893556185 23.889771044433829 #
edge $-1 $377 1 $377 0 $217 $-1 forward 7 unknown #
vertex $-1 $218 $378 #
ellipse-curve $-1 71.185984658461408 -5.0520097264636661 19.24003093936448 0.83867057594974714 0 0.54463902268945019 0.81695853403417529 0 -1.2580058639246208 1 I I #
point $-1 74.056248945674596 -5.0520097264636661 19.31545737980754 #
plane-surface $-1 75.392925809503467 0 0 -1 0 0 0 0 1 forward_v I I I I #
coedge $-1 $226 $224 $228 $325 reversed $141 $-1 #
edge $-1 $239 -23.889771044433825 $327 23.889771044433825 $238 $379 forward 7 unknown #
vertex $-1 $325 $380 #
straight-curve $-1 -75.392925809503467 -51.578130435923221 0 0 0 -1 I I #
edge $-1 $323 -51.578130435923221 $327 51.578130435923221 $321 $381 forward 7 unknown #
straight-curve $-1 0 -51.578130435923221 -23.889771044433825 -1 0 0 I I #
vertex $-1 $231 $382 #
straight-curve $-1 0 51.578130435923221 -23.889771044433825 1 0 0 I I #
point $-1 75.392925809503467 51.578130435923221 -23.889771044433825 #
point $-1 75.392925809503467 -51.578130435923221 -23.889771044433825 #
straight-curve $-1 -75.392925809503467 0 23.889771044433825 0 -1 0 I I #
point $-1 -75.392925809503467 51.578130435923221 23.889771044433825 #
point $-1 -75.392925809503467 -51.578130435923221 23.889771044433825 #
straight-curve $-1 75.392925809503467 -51.578130435923221 0 0 0 -1 I I #
straight-curve $-1 75.392925809503467 51.578130435923221 0 0 0 -1 I I #
plane-surface $-1 75.392925809503467 0 0 -1 0 0 0 0 1 forward_v I I I I #
coedge $-1 $340 $251 $262 $349 forward $160 $-1 #
coedge $-1 $251 $340 $265 $351 reversed $160 $-1 #
straight-curve $-1 75.392925809503467 -29.651130790279066 2.2448961363538693 0 0 1 I I #
coedge $-1 $338 $337 $254 $341 forward $160 $-1 #
edge $-1 $344 9.3438154837284948 $342 31.270815129372643 $340 $383 forward 7 unknown #
vertex $-1 $256 $384 #
straight-curve $-1 0 -51.578130435923221 -2.2114026063078747 1 0 0 I I #
vertex $-1 $341 $385 #
straight-curve $-1 0 -29.651130790279066 -2.2114026063078747 1 0 0 I I #
point $-1 75.392925809503467 -51.578130435923214 -2.2114026063078747 #
point $-1 75.392925809503467 -29.651130790279066 -2.2114026063078747 #
straight-curve $-1 -75.392925809503467 -20.307315306550571 11.190987151723352 0 1 0 I I #
edge $-1 $263 -8.9460910153694826 $344 4.456298742661744 $337 $386 forward 7 unknown #
point $-1 -75.392925809503467 -29.651130790279066 11.190987151723352 #
edge $-1 $267 -11.190987151723352 $342 2.2114026063078747 $338 $387 forward 7 unknown #
point $-1 -75.392925809503467 -51.578130435923214 11.190987151723352 #
straight-curve $-1 75.392925809503467 -51.578130435923221 0 0 0 -1 I I #
edge $-1 $355 35.24837172747489 $358 47.483554177795888 $273 $388 forward 7 unknown #
vertex $-1 $287 $389 #
straight-curve $-1 -91.007312616687784 34.852633440479465 23.889771044433829 -1 0 0 I I #
edge $-1 $358 -20.783930848365561 $284 -7.3534743358622485 $283 $390 forward 7 unknown #
vertex $-1 $357 $391 #
straight-curve $-1 -75.392925809503453 34.852633440479465 11.654588594112838 0.70710677298230451 0 0.70710678939079041 I I #
point $-1 -63.157743643101135 34.852633440479465 23.889771044433825 #
point $-1 -75.392925809503467 21.422176927976153 11.654588594112823 #
straight-curve $-1 -75.392925809503467 0 23.889771044433825 0 -1 0 I I #
vertex $-1 $290 $392 #
point $-1 -67.076154292867173 25.259450217262803 16.987212982835 #
vertex $-1 $294 $393 #
point $-1 -67.076154292867173 31.015360151192787 16.987212982835 #
coedge $-1 $309 $308 $301 $368 forward $298 $-1 #
edge $-1 $369 89.030564618860424 $372 95.663180220263783 $367 $394 forward 7 unknown #
vertex $-1 $313 $395 #
straight-curve $-1 59.864361985358364 -10.898597791862908 23.889771044433829 1 0 0 I I #
edge $-1 $372 -8.3725929286310716 $310 3.3205832021673984 $309 $396 forward 7 unknown #
vertex $-1 $371 $397 #
straight-curve $-1 -6.7309330516689272 -10.898597791862908 143.71681246541613 -0.54463902268945019 0 0.83867057594974714 I I #
point $-1 71.08565501377737 -10.898597791862908 23.889771044433829 #
point $-1 75.392925809503467 0.79457833893556185 17.25715544303047 #
straight-curve $-1 75.392925809503467 0 23.889771044433825 0 1 0 I I #
vertex $-1 $316 $398 #
point $-1 72.002943192495593 -5.0520097264636661 17.982025075439857 #
straight-curve $-1 -75.392925809503467 51.578130435923221 0 0 0 -1 I I #
point $-1 -75.392925809503467 -51.578130435923221 -23.889771044433825 #
straight-curve $-1 -75.392925809503467 0 -23.889771044433825 0 1 0 I I #
point $-1 -75.392925809503467 51.578130435923221 -23.889771044433825 #
straight-curve $-1 -75.392925809503467 -20.307315306550571 -2.2114026063078747 0 -1 0 I I #
point $-1 -75.392925809503467 -51.578130435923214 -2.2114026063078747 #
point $-1 -75.392925809503467 -29.651130790279066 -2.2114026063078747 #
straight-curve $-1 -75.392925809503467 -29.651130790279066 2.2448961363538693 0 0 -1 I I #
straight-curve $-1 -75.392925809503467 -51.578130435923221 0 0 0 -1 I I #
straight-curve $-1 -75.392925809503467 34.852633440479465 59.138142771908711 0 0 -1 I I #
point $-1 -75.392925809503467 34.852633440479465 23.889771044433825 #
straight-curve $-1 -75.392925809503467 14.068702592113905 11.654588594112807 0 -1 0 I I #
point $-1 -75.392925809503467 34.852633440479465 11.654588594112823 #
point $-1 -67.076154276458681 25.259450217262803 15.572999420461906 #
point $-1 -67.076154276458681 31.015360151192787 15.572999420461906 #
straight-curve $-1 75.392925809503467 -10.898597791862908 112.92033566329425 0 0 -1 I I #
point $-1 75.392925809503467 -10.898597791862908 23.889771044433825 #
straight-curve $-1 75.392925809503467 -2.5260048632318366 17.25715544303047 0 1 0 I I #
point $-1 75.392925809503467 -10.898597791862908 17.25715544303047 #
point $-1 69.927978794536799 -5.0520097264636661 18.423072405330302 #
End-of-ACIS-data 