500 0 4 0           
7 Unknown 11 ACIS 5.0 NT 24 Fri Mar 26 00:59:20 1999 
-1 9.9999999999999995e-007 1e-010 
body $-1 $4 $-1 $5 #
body $-1 $6 $-1 $7 #
body $-1 $8 $-1 $9 #
body $-1 $10 $-1 $11 #
lump $-1 $-1 $12 $0 #
transform $-1 1 0 0 0 1 0 0 0 1 61.913510544145026 40.441140970376779 15.798913585244181 1 rotate no_reflect no_shear #
lump $-1 $-1 $13 $1 #
transform $-1 1 0 0 0 1 0 0 0 1 61.913510544145026 40.441140970376779 15.798913585244181 1 rotate no_reflect no_shear #
lump $-1 $-1 $14 $2 #
transform $-1 1 0 0 0 1 0 0 0 1 61.913510544145026 40.441140970376779 15.798913585244181 1 rotate no_reflect no_shear #
lump $-1 $-1 $15 $3 #
transform $-1 1 0 0 0 1 0 0 0 1 61.913510544145026 40.441140970376779 15.798913585244181 1 rotate no_reflect no_shear #
shell $-1 $-1 $-1 $16 $-1 $4 #
shell $-1 $-1 $-1 $17 $-1 $6 #
shell $-1 $-1 $-1 $18 $-1 $8 #
shell $-1 $-1 $-1 $19 $-1 $10 #
face $-1 $20 $21 $12 $-1 $22 forward single #
face $-1 $23 $24 $13 $-1 $25 reversed single #
face $-1 $26 $27 $14 $-1 $28 forward single #
face $-1 $29 $30 $15 $-1 $31 reversed single #
face $-1 $32 $33 $12 $-1 $34 reversed single #
loop $-1 $-1 $35 $16 #
plane-surface $-1 0 0 15.798913585244181 0 0 1 1 0 0 forward_v I I I I #
face $-1 $36 $37 $13 $-1 $38 forward single #
loop $-1 $-1 $39 $17 #
plane-surface $-1 -55.079944016312382 0 -8.2518670205787235 0 0 1 1 0 0 forward_v I I I I #
face $-1 $40 $41 $14 $-1 $42 forward single #
loop $-1 $-1 $43 $18 #
plane-surface $-1 74.129116638984385 -6.1170728469606814 184.88720426114708 0 -1 0 -0.75470958851134928 0 -0.65605901945558964 forward_v I I I I #
face $-1 $44 $45 $15 $-1 $46 reversed single #
loop $-1 $47 $48 $19 #
cone-surface $-1 58.830349682023332 -11.61063535110339 12.434244614472375 -0.75470958851134928 0 -0.65605901945558964 0.98408852918338452 0 -1.132064382767024 1 I I 0 1 1.5 forward I I I I #
face $-1 $49 $50 $12 $-1 $51 reversed single #
loop $-1 $-1 $52 $20 #
plane-surface $-1 0 0 -15.798913585244181 0 0 1 1 0 0 forward_v I I I I #
coedge $-1 $53 $54 $55 $56 forward $21 $-1 #
face $-1 $57 $58 $13 $-1 $59 reversed single #
loop $-1 $-1 $60 $23 #
plane-surface $-1 -48.246377488479737 0 -12.025390302911452 -1 0 0 0 0 1 forward_v I I I I #
coedge $-1 $61 $62 $63 $64 reversed $24 $-1 #
face $-1 $65 $66 $14 $-1 $67 forward single #
loop $-1 $-1 $68 $26 #
plane-surface $-1 -19.324323493145158 -11.61063535110339 103.64937022385689 0.75470958851134928 0 0.65605901945558964 0.65605901945558964 0 -0.75470958851134928 forward_v I I I I #
coedge $-1 $69 $70 $71 $72 reversed $27 $-1 #
face $-1 $73 $74 $15 $-1 $75 forward single #
loop $-1 $76 $77 $29 #
cone-surface $-1 57.616456187937487 -11.61063535110339 11.37902312586729 -0.75470958851134928 0 -0.65605901945558964 0.49204426459169226 0 -0.56603219138351202 1 I I -0.70710678118654757 0.70710678118654757 0.75 forward I I I I #
loop $-1 $-1 $78 $19 #
coedge $-1 $48 $48 $79 $80 reversed $30 $-1 #
face $-1 $81 $82 $12 $-1 $83 reversed single #
loop $-1 $-1 $84 $32 #
plane-surface $-1 0 -40.441140970376779 0 0 1 0 0 0 1 forward_v I I I I #
coedge $-1 $85 $86 $87 $88 forward $33 $-1 #
coedge $-1 $89 $35 $90 $91 forward $21 $-1 #
coedge $-1 $35 $89 $92 $93 forward $21 $-1 #
coedge $-1 $94 $95 $35 $56 reversed $96 $-1 #
edge $-1 $97 -40.441140970376779 $98 40.441140970376779 $55 $99 forward 7 unknown #
face $-1 $100 $101 $13 $-1 $102 reversed single #
loop $-1 $-1 $103 $36 #
plane-surface $-1 -61.913510544145026 0 0 1 0 0 0 0 -1 forward_v I I I I #
coedge $-1 $63 $104 $105 $106 reversed $37 $-1 #
coedge $-1 $107 $39 $108 $109 reversed $24 $-1 #
coedge $-1 $39 $107 $110 $111 reversed $24 $-1 #
coedge $-1 $112 $60 $39 $64 forward $37 $-1 #
edge $-1 $113 -40.441140970376779 $114 40.441140970376779 $63 $115 forward 7 unknown #
face $-1 $116 $117 $14 $-1 $118 forward single #
loop $-1 $-1 $119 $40 #
plane-surface $-1 74.129116638984385 -17.104197855246099 184.88720426114708 0 1 0 0.75470958851134928 0 0.65605901945558964 forward_v I I I I #
coedge $-1 $120 $121 $122 $123 reversed $41 $-1 #
coedge $-1 $70 $43 $121 $124 forward $27 $-1 #
coedge $-1 $43 $69 $125 $126 reversed $27 $-1 #
coedge $-1 $127 $122 $43 $72 forward $117 $-1 #
edge $-1 $128 19.978353105814122 $129 24.848952224652834 $71 $130 forward 7 unknown #
face $-1 $131 $132 $15 $-1 $133 forward single #
loop $-1 $-1 $134 $44 #
plane-surface $-1 74.129116638984385 -6.1170728469606814 184.88720426114708 0 -1 0 -0.75470958851134928 0 -0.65605901945558964 forward_v I I I I #
loop $-1 $-1 $135 $29 #
coedge $-1 $77 $77 $78 $136 forward $45 $-1 #
coedge $-1 $78 $78 $77 $136 reversed $47 $-1 #
coedge $-1 $79 $79 $48 $80 forward $132 $-1 #
edge $-1 $137 0 $137 6.2831853071796004 $79 $138 forward 7 unknown #
face $-1 $139 $140 $12 $-1 $141 reversed single #
loop $-1 $-1 $142 $49 #
plane-surface $-1 -61.913510544145026 0 0 1 0 0 0 0 -1 forward_v I I I I #
coedge $-1 $143 $92 $144 $145 forward $50 $-1 #
coedge $-1 $146 $52 $143 $147 forward $33 $-1 #
coedge $-1 $52 $146 $148 $149 forward $33 $-1 #
coedge $-1 $95 $94 $52 $88 reversed $96 $-1 #
edge $-1 $150 -40.441140970376779 $151 40.441140970376779 $87 $152 forward 7 unknown #
coedge $-1 $54 $53 $153 $154 forward $21 $-1 #
coedge $-1 $155 $156 $53 $91 reversed $140 $-1 #
edge $-1 $98 -61.913510544145026 $157 61.913510544145026 $90 $158 forward 7 unknown #
coedge $-1 $84 $159 $54 $93 reversed $50 $-1 #
edge $-1 $160 -61.913510544145026 $97 61.913510544145026 $92 $161 forward 7 unknown #
coedge $-1 $87 $55 $159 $162 forward $96 $-1 #
coedge $-1 $55 $87 $155 $163 reversed $96 $-1 #
loop $-1 $-1 $94 $139 #
vertex $-1 $56 $164 #
vertex $-1 $56 $165 #
straight-curve $-1 61.913510544145026 0 15.798913585244181 0 1 0 I I #
face $-1 $166 $167 $13 $-1 $168 forward single #
loop $-1 $-1 $108 $57 #
plane-surface $-1 0 -40.441140970376779 0 0 1 0 0 0 1 forward_v I I I I #
coedge $-1 $169 $170 $107 $171 forward $58 $-1 #
coedge $-1 $60 $112 $172 $173 reversed $37 $-1 #
coedge $-1 $174 $108 $60 $106 forward $101 $-1 #
edge $-1 $113 2.2391718691229974 $175 9.7862184337884557 $105 $176 forward 7 unknown #
coedge $-1 $62 $61 $103 $171 reversed $24 $-1 #
coedge $-1 $105 $177 $61 $109 forward $101 $-1 #
edge $-1 $178 -34.373538535988835 $113 -20.706405480323546 $108 $179 forward 7 unknown #
coedge $-1 $180 $181 $62 $111 forward $182 $-1 #
edge $-1 $114 20.706405480323546 $183 34.373538535988835 $110 $184 forward 7 unknown #
coedge $-1 $104 $63 $181 $185 reversed $37 $-1 #
vertex $-1 $109 $186 #
vertex $-1 $111 $187 #
straight-curve $-1 -48.246377488479737 0 -8.2518670205787235 0 1 0 I I #
face $-1 $188 $189 $14 $-1 $190 reversed single #
loop $-1 $-1 $191 $65 #
plane-surface $-1 0 0 15.798913585244181 0 0 1 1 0 0 forward_v I I I I #
coedge $-1 $192 $193 $191 $194 reversed $66 $-1 #
coedge $-1 $195 $68 $193 $196 reversed $41 $-1 #
coedge $-1 $68 $195 $69 $124 reversed $41 $-1 #
coedge $-1 $71 $191 $68 $123 forward $117 $-1 #
edge $-1 $197 -11.298880179694404 $128 -0.31175517140898634 $122 $198 forward 7 unknown #
edge $-1 $128 116.40299523939551 $199 123.82702108829007 $69 $200 forward 7 unknown #
coedge $-1 $201 $202 $70 $126 forward $203 $-1 #
edge $-1 $129 76.644688545329359 $199 82.24767203884619 $125 $204 forward 7 unknown #
coedge $-1 $205 $71 $202 $206 forward $117 $-1 #
vertex $-1 $123 $207 #
vertex $-1 $206 $208 #
straight-curve $-1 37.064558319492193 -6.1170728469606814 15.798913585244179 1 0 0 I I #
face $-1 $209 $210 $15 $-1 $211 forward single #
loop $-1 $212 $79 $73 #
plane-surface $-1 -19.324323493145158 -11.61063535110339 103.64937022385689 0.75470958851134928 0 0.65605901945558964 0.65605901945558964 0 -0.75470958851134928 forward_v I I I I #
coedge $-1 $213 $214 $215 $216 reversed $74 $-1 #
coedge $-1 $135 $135 $-1 $217 forward $76 $-1 #
edge $-1 $218 0 $218 6.2831853071796004 $77 $219 forward 7 unknown #
vertex $-1 $80 $220 #
ellipse-curve $-1 59.478210984725671 -11.61063535110339 12.997421838485774 -0.75470958851134928 0 -0.65605901945558964 0.98408852918338452 0 -1.132064382767024 1 I I #
face $-1 $-1 $96 $12 $-1 $221 reversed single #
loop $-1 $-1 $155 $81 #
plane-surface $-1 0 40.441140970376779 0 0 -1 0 0 0 -1 forward_v I I I I #
coedge $-1 $222 $153 $156 $223 forward $82 $-1 #
coedge $-1 $159 $84 $85 $147 reversed $50 $-1 #
coedge $-1 $153 $222 $84 $145 reversed $82 $-1 #
edge $-1 $160 -15.798913585244181 $224 15.798913585244181 $144 $225 forward 7 unknown #
coedge $-1 $86 $85 $222 $226 forward $33 $-1 #
edge $-1 $151 -61.913510544145026 $224 61.913510544145026 $143 $227 forward 7 unknown #
coedge $-1 $156 $155 $86 $149 reversed $140 $-1 #
edge $-1 $228 -61.913510544145026 $150 61.913510544145026 $148 $229 forward 7 unknown #
vertex $-1 $88 $230 #
vertex $-1 $162 $231 #
straight-curve $-1 61.913510544145026 0 -15.798913585244181 0 -1 0 I I #
coedge $-1 $142 $144 $89 $154 reversed $82 $-1 #
edge $-1 $157 -40.441140970376779 $160 40.441140970376779 $153 $232 forward 7 unknown #
coedge $-1 $148 $90 $95 $163 forward $140 $-1 #
coedge $-1 $90 $148 $142 $223 reversed $140 $-1 #
vertex $-1 $91 $233 #
straight-curve $-1 0 40.441140970376779 15.798913585244181 -1 0 0 I I #
coedge $-1 $92 $143 $94 $162 reversed $50 $-1 #
vertex $-1 $154 $234 #
straight-curve $-1 0 -40.441140970376779 15.798913585244181 1 0 0 I I #
edge $-1 $97 -15.798913585244181 $151 15.798913585244181 $94 $235 forward 7 unknown #
edge $-1 $98 -15.798913585244181 $150 15.798913585244181 $95 $236 forward 7 unknown #
point $-1 61.913510544145026 -40.441140970376779 15.798913585244181 #
point $-1 61.913510544145026 40.441140970376779 15.798913585244181 #
face $-1 $237 $238 $13 $-1 $239 reversed single #
loop $-1 $-1 $240 $100 #
plane-surface $-1 0 0 15.798913585244181 0 0 1 1 0 0 forward_v I I I I #
coedge $-1 $241 $103 $177 $242 reversed $58 $-1 #
coedge $-1 $103 $241 $180 $243 forward $58 $-1 #
edge $-1 $183 -40.441140970376779 $178 40.441140970376779 $103 $244 forward 7 unknown #
coedge $-1 $245 $246 $104 $173 forward $238 $-1 #
edge $-1 $175 -40.441140970376779 $247 40.441140970376779 $172 $248 forward 7 unknown #
coedge $-1 $249 $105 $246 $250 reversed $101 $-1 #
vertex $-1 $106 $251 #
straight-curve $-1 -48.246377488479737 -40.441140970376779 -6.0126951514557261 0 0 -1 I I #
coedge $-1 $108 $252 $169 $242 forward $101 $-1 #
vertex $-1 $109 $253 #
straight-curve $-1 -27.539972008156191 -40.441140970376779 -8.2518670205787235 1 0 0 I I #
coedge $-1 $254 $110 $170 $243 reversed $182 $-1 #
coedge $-1 $110 $255 $112 $185 forward $182 $-1 #
loop $-1 $-1 $110 $237 #
vertex $-1 $171 $256 #
straight-curve $-1 -27.539972008156191 40.441140970376779 -8.2518670205787235 -1 0 0 I I #
edge $-1 $247 -9.7862184337884557 $114 -2.2391718691229974 $181 $257 forward 7 unknown #
point $-1 -48.246377488479737 -40.441140970376779 -8.2518670205787235 #
point $-1 -48.246377488479737 40.441140970376779 -8.2518670205787235 #
face $-1 $258 $259 $14 $-1 $260 forward single #
loop $-1 $-1 $261 $116 #
plane-surface $-1 -55.079944016312382 0 -8.2518670205787235 0 0 1 1 0 0 forward_v I I I I #
coedge $-1 $122 $262 $119 $194 forward $117 $-1 #
coedge $-1 $193 $119 $263 $264 reversed $66 $-1 #
coedge $-1 $119 $192 $120 $196 forward $66 $-1 #
edge $-1 $265 -24.848952224652834 $197 -19.978353105814122 $191 $266 forward 7 unknown #
coedge $-1 $121 $120 $201 $267 reversed $41 $-1 #
edge $-1 $268 -123.82702108829007 $197 -116.40299523939551 $193 $269 forward 7 unknown #
vertex $-1 $123 $270 #
straight-curve $-1 57.042911425306315 -5.8053176755516951 15.798913585244165 0 1 0 I I #
vertex $-1 $267 $271 #
straight-curve $-1 -19.324323493145158 -6.1170728469606814 103.64937022385689 0.65605901945558964 0 -0.75470958851134928 I I #
coedge $-1 $263 $125 $195 $267 forward $203 $-1 #
coedge $-1 $125 $272 $127 $206 reversed $203 $-1 #
loop $-1 $-1 $263 $273 #
straight-curve $-1 61.913510544145026 -6.1170728469606814 92.443602130573538 0 0 -1 I I #
coedge $-1 $274 $127 $275 $276 forward $117 $-1 #
edge $-1 $129 -6.1170728469606814 $277 40.441140970376779 $202 $278 forward 7 unknown #
point $-1 57.042911425306315 -6.1170728469606814 15.798913585244179 #
point $-1 61.913510544145026 -6.1170728469606814 15.798913585244181 #
face $-1 $279 $280 $15 $-1 $281 forward single #
loop $-1 $-1 $282 $131 #
plane-surface $-1 74.129116638984385 -17.104197855246099 184.88720426114708 0 1 0 0.75470958851134928 0 0.65605901945558964 forward_v I I I I #
loop $-1 $-1 $283 $73 #
coedge $-1 $214 $134 $284 $285 forward $74 $-1 #
coedge $-1 $134 $213 $286 $287 reversed $74 $-1 #
coedge $-1 $288 $289 $134 $216 forward $280 $-1 #
edge $-1 $290 19.978353105814122 $291 24.848952224652834 $215 $292 forward 7 unknown #
edge $-1 $293 1 $293 0 $135 $-1 forward 7 unknown #
vertex $-1 $136 $294 #
ellipse-curve $-1 58.182488379321001 -11.61063535110339 11.871067390458983 0.75470958851134928 0 0.65605901945558964 0.98408852918338452 0 -1.132064382767024 1 I I #
point $-1 60.462299513909045 -11.61063535110339 11.865357455718744 #
plane-surface $-1 61.913510544145026 0 0 -1 0 0 0 0 1 forward_v I I I I #
coedge $-1 $144 $142 $146 $226 reversed $82 $-1 #
edge $-1 $157 -15.798913585244181 $228 15.798913585244181 $156 $295 forward 7 unknown #
vertex $-1 $226 $296 #
straight-curve $-1 -61.913510544145026 -40.441140970376779 0 0 0 -1 I I #
edge $-1 $224 -40.441140970376779 $228 40.441140970376779 $222 $297 forward 7 unknown #
straight-curve $-1 0 -40.441140970376779 -15.798913585244181 -1 0 0 I I #
vertex $-1 $149 $298 #
straight-curve $-1 0 40.441140970376779 -15.798913585244181 1 0 0 I I #
point $-1 61.913510544145026 40.441140970376779 -15.798913585244181 #
point $-1 61.913510544145026 -40.441140970376779 -15.798913585244181 #
straight-curve $-1 -61.913510544145026 0 15.798913585244181 0 -1 0 I I #
point $-1 -61.913510544145026 40.441140970376779 15.798913585244181 #
point $-1 -61.913510544145026 -40.441140970376779 15.798913585244181 #
straight-curve $-1 61.913510544145026 -40.441140970376779 0 0 0 -1 I I #
straight-curve $-1 61.913510544145026 40.441140970376779 0 0 0 -1 I I #
face $-1 $299 $182 $13 $-1 $300 reversed single #
loop $-1 $-1 $172 $166 #
plane-surface $-1 0 0 -15.798913585244181 0 0 1 1 0 0 forward_v I I I I #
coedge $-1 $301 $302 $303 $304 forward $167 $-1 #
coedge $-1 $170 $169 $305 $306 reversed $58 $-1 #
edge $-1 $307 -15.798913585244181 $178 8.2518670205787235 $169 $308 forward 7 unknown #
edge $-1 $309 -15.798913585244181 $183 8.2518670205787235 $180 $310 forward 7 unknown #
straight-curve $-1 -61.913510544145026 0 -8.2518670205787235 0 -1 0 I I #
coedge $-1 $311 $172 $255 $312 forward $238 $-1 #
coedge $-1 $172 $311 $174 $250 forward $238 $-1 #
vertex $-1 $312 $313 #
straight-curve $-1 -48.246377488479737 0 -15.798913585244181 0 1 0 I I #
coedge $-1 $252 $174 $314 $315 reversed $101 $-1 #
edge $-1 $316 -61.913510544145026 $175 48.246377488479737 $174 $317 forward 7 unknown #
point $-1 -48.246377488479737 -40.441140970376779 -15.798913585244181 #
coedge $-1 $177 $249 $302 $318 reversed $101 $-1 #
point $-1 -61.913510544145026 -40.441140970376779 -8.2518670205787235 #
coedge $-1 $319 $180 $301 $320 reversed $182 $-1 #
coedge $-1 $181 $319 $245 $312 reversed $182 $-1 #
point $-1 -61.913510544145026 40.441140970376779 -8.2518670205787235 #
straight-curve $-1 -48.246377488479737 40.441140970376779 -6.0126951514557261 0 0 1 I I #
face $-1 $321 $322 $14 $-1 $323 reversed single #
loop $-1 $-1 $324 $188 #
plane-surface $-1 -48.246377488479737 0 -12.025390302911452 -1 0 0 0 0 1 forward_v I I I I #
coedge $-1 $325 $326 $327 $328 reversed $189 $-1 #
coedge $-1 $191 $329 $330 $331 forward $117 $-1 #
coedge $-1 $330 $201 $192 $264 forward $203 $-1 #
edge $-1 $268 -82.24767203884619 $265 -76.644688545329359 $263 $332 forward 7 unknown #
vertex $-1 $264 $333 #
straight-curve $-1 37.064558319492193 -17.104197855246099 15.798913585244179 -1 0 0 I I #
edge $-1 $199 0.31175517140898634 $268 11.298880179694404 $201 $334 forward 7 unknown #
vertex $-1 $267 $335 #
straight-curve $-1 -19.324323493145158 -17.104197855246099 103.64937022385689 -0.65605901945558964 0 0.75470958851134928 I I #
point $-1 57.042911425306315 -17.104197855246099 15.798913585244179 #
point $-1 61.913510544145026 -6.1170728469606814 10.195930091727348 #
coedge $-1 $202 $336 $337 $338 reversed $203 $-1 #
face $-1 $-1 $203 $14 $-1 $339 reversed single #
coedge $-1 $329 $205 $340 $341 forward $117 $-1 #
coedge $-1 $337 $342 $205 $276 reversed $343 $-1 #
edge $-1 $277 -61.913510544145026 $344 61.913510544145026 $275 $345 forward 7 unknown #
vertex $-1 $206 $346 #
straight-curve $-1 61.913510544145026 0 15.798913585244181 0 1 0 I I #
face $-1 $347 $348 $15 $-1 $349 reversed single #
loop $-1 $-1 $350 $209 #
plane-surface $-1 0 0 15.798913585244181 0 0 1 1 0 0 forward_v I I I I #
coedge $-1 $351 $352 $350 $353 reversed $210 $-1 #
coedge $-1 $354 $284 $289 $355 reversed $212 $-1 #
coedge $-1 $283 $356 $213 $285 reversed $212 $-1 #
edge $-1 $290 116.40299523939551 $357 123.82702108829007 $213 $358 forward 7 unknown #
coedge $-1 $359 $360 $214 $287 forward $361 $-1 #
edge $-1 $291 76.644688545329359 $357 82.24767203884619 $286 $362 forward 7 unknown #
coedge $-1 $363 $215 $360 $364 forward $280 $-1 #
coedge $-1 $215 $350 $283 $355 forward $280 $-1 #
vertex $-1 $355 $365 #
vertex $-1 $364 $366 #
straight-curve $-1 37.064558319492193 -6.1170728469606814 15.798913585244179 1 0 0 I I #
vertex $-1 $217 $367 #
point $-1 59.166576908504382 -11.61063535110339 10.739003007691958 #
straight-curve $-1 -61.913510544145026 40.441140970376779 0 0 0 -1 I I #
point $-1 -61.913510544145026 -40.441140970376779 -15.798913585244181 #
straight-curve $-1 -61.913510544145026 0 -15.798913585244181 0 1 0 I I #
point $-1 -61.913510544145026 40.441140970376779 -15.798913585244181 #
face $-1 $-1 $368 $13 $-1 $369 reversed single #
plane-surface $-1 0 40.441140970376779 0 0 -1 0 0 0 -1 forward_v I I I I #
coedge $-1 $305 $240 $254 $320 forward $167 $-1 #
coedge $-1 $240 $305 $252 $318 forward $167 $-1 #
coedge $-1 $314 $370 $240 $304 reversed $368 $-1 #
edge $-1 $371 -40.441140970376779 $372 40.441140970376779 $303 $373 forward 7 unknown #
coedge $-1 $302 $301 $241 $306 forward $167 $-1 #
edge $-1 $309 -40.441140970376779 $307 40.441140970376779 $241 $374 forward 7 unknown #
vertex $-1 $306 $375 #
straight-curve $-1 -61.913510544145026 -40.441140970376779 0 0 0 -1 I I #
vertex $-1 $320 $376 #
straight-curve $-1 -61.913510544145026 40.441140970376779 0 0 0 -1 I I #
coedge $-1 $246 $245 $377 $378 forward $238 $-1 #
edge $-1 $247 -48.246377488479737 $379 61.913510544145026 $255 $380 forward 7 unknown #
point $-1 -48.246377488479737 40.441140970376779 -15.798913585244181 #
coedge $-1 $377 $303 $249 $315 forward $368 $-1 #
edge $-1 $371 -15.798913585244181 $316 15.798913585244181 $314 $381 forward 7 unknown #
vertex $-1 $315 $382 #
straight-curve $-1 0 -40.441140970376779 -15.798913585244181 -1 0 0 I I #
edge $-1 $307 -61.913510544145026 $371 61.913510544145026 $252 $383 forward 7 unknown #
coedge $-1 $255 $254 $370 $384 forward $182 $-1 #
edge $-1 $372 -61.913510544145026 $309 61.913510544145026 $254 $385 forward 7 unknown #
face $-1 $386 $387 $14 $-1 $388 reversed single #
loop $-1 $-1 $389 $258 #
plane-surface $-1 -61.913510544145026 0 0 1 0 0 0 0 -1 forward_v I I I I #
coedge $-1 $327 $390 $391 $392 reversed $259 $-1 #
coedge $-1 $393 $261 $394 $395 reversed $189 $-1 #
coedge $-1 $261 $393 $396 $397 reversed $189 $-1 #
coedge $-1 $398 $324 $261 $328 forward $259 $-1 #
edge $-1 $399 -40.441140970376779 $400 40.441140970376779 $327 $401 forward 7 unknown #
coedge $-1 $262 $274 $402 $403 forward $117 $-1 #
coedge $-1 $404 $263 $262 $331 reversed $203 $-1 #
edge $-1 $405 -40.441140970376779 $265 -17.104197855246099 $330 $278 forward 7 unknown #
straight-curve $-1 61.913510544145026 -17.104197855246099 92.443602130573538 0 0 1 I I #
point $-1 61.913510544145026 -17.104197855246099 15.798913585244181 #
straight-curve $-1 61.913510544145026 -5.8053176755516951 10.195930091727355 0 -1 0 I I #
point $-1 61.913510544145026 -17.104197855246099 10.195930091727348 #
coedge $-1 $272 $404 $406 $407 reversed $203 $-1 #
coedge $-1 $408 $275 $272 $338 forward $343 $-1 #
edge $-1 $277 -15.798913585244181 $409 15.798913585244181 $272 $410 forward 7 unknown #
plane-surface $-1 61.913510544145026 0 0 -1 0 0 0 0 1 forward_v I I I I #
coedge $-1 $411 $412 $274 $341 reversed $322 $-1 #
edge $-1 $344 -40.441140970376779 $413 40.441140970376779 $340 $414 forward 7 unknown #
coedge $-1 $275 $396 $411 $415 reversed $343 $-1 #
loop $-1 $-1 $396 $416 #
vertex $-1 $276 $417 #
straight-curve $-1 0 40.441140970376779 15.798913585244181 -1 0 0 I I #
point $-1 61.913510544145026 40.441140970376779 15.798913585244181 #
face $-1 $418 $419 $15 $-1 $420 forward single #
loop $-1 $-1 $421 $279 #
plane-surface $-1 -55.079944016312382 0 -8.2518670205787235 0 0 1 1 0 0 forward_v I I I I #
coedge $-1 $289 $422 $282 $353 forward $280 $-1 #
coedge $-1 $352 $282 $423 $424 reversed $210 $-1 #
coedge $-1 $282 $351 $354 $425 forward $210 $-1 #
edge $-1 $426 -24.848952224652834 $427 -19.978353105814122 $350 $428 forward 7 unknown #
coedge $-1 $356 $283 $352 $425 reversed $212 $-1 #
edge $-1 $427 -11.298880179694404 $290 -0.31175517140898634 $289 $429 forward 7 unknown #
coedge $-1 $284 $354 $359 $430 reversed $212 $-1 #
vertex $-1 $430 $431 #
straight-curve $-1 -19.324323493145158 -6.1170728469606814 103.64937022385689 0.65605901945558964 0 -0.75470958851134928 I I #
coedge $-1 $423 $286 $356 $430 forward $361 $-1 #
coedge $-1 $286 $432 $288 $364 reversed $361 $-1 #
loop $-1 $-1 $423 $433 #
straight-curve $-1 61.913510544145026 -6.1170728469606814 92.443602130573538 0 0 -1 I I #
coedge $-1 $434 $288 $435 $436 forward $280 $-1 #
edge $-1 $291 -6.1170728469606814 $437 40.441140970376779 $360 $438 forward 7 unknown #
point $-1 57.042911425306315 -6.1170728469606814 15.798913585244179 #
point $-1 61.913510544145026 -6.1170728469606814 15.798913585244181 #
point $-1 57.050423996553974 -11.61063535110339 10.886978861275598 #
loop $-1 $-1 $314 $299 #
plane-surface $-1 61.913510544145026 0 0 -1 0 0 0 0 1 forward_v I I I I #
coedge $-1 $303 $377 $319 $384 reversed $368 $-1 #
vertex $-1 $304 $439 #
vertex $-1 $304 $440 #
straight-curve $-1 61.913510544145026 0 15.798913585244181 0 1 0 I I #
straight-curve $-1 -61.913510544145026 0 15.798913585244181 0 -1 0 I I #
point $-1 -61.913510544145026 -40.441140970376779 15.798913585244181 #
point $-1 -61.913510544145026 40.441140970376779 15.798913585244181 #
coedge $-1 $370 $314 $311 $378 reversed $368 $-1 #
edge $-1 $379 -40.441140970376779 $316 40.441140970376779 $377 $441 forward 7 unknown #
vertex $-1 $378 $442 #
straight-curve $-1 0 40.441140970376779 -15.798913585244181 1 0 0 I I #
straight-curve $-1 61.913510544145026 -40.441140970376779 0 0 0 -1 I I #
point $-1 61.913510544145026 -40.441140970376779 -15.798913585244181 #
straight-curve $-1 0 -40.441140970376779 15.798913585244181 1 0 0 I I #
edge $-1 $372 -15.798913585244181 $379 15.798913585244181 $370 $443 forward 7 unknown #
straight-curve $-1 0 40.441140970376779 15.798913585244181 -1 0 0 I I #
face $-1 $416 $444 $14 $-1 $445 reversed single #
loop $-1 $-1 $394 $321 #
plane-surface $-1 0 -40.441140970376779 0 0 1 0 0 0 1 forward_v I I I I #
coedge $-1 $412 $411 $393 $446 forward $322 $-1 #
coedge $-1 $324 $398 $447 $448 reversed $259 $-1 #
coedge $-1 $449 $394 $324 $392 forward $387 $-1 #
edge $-1 $399 2.2391718691229974 $450 9.7862184337884557 $391 $451 forward 7 unknown #
coedge $-1 $326 $325 $389 $446 reversed $189 $-1 #
coedge $-1 $391 $452 $325 $395 forward $387 $-1 #
edge $-1 $453 -34.373538535988835 $399 -20.706405480323546 $394 $454 forward 7 unknown #
coedge $-1 $342 $455 $326 $397 forward $343 $-1 #
edge $-1 $400 20.706405480323546 $456 34.373538535988835 $396 $457 forward 7 unknown #
coedge $-1 $390 $327 $455 $458 reversed $259 $-1 #
vertex $-1 $395 $459 #
vertex $-1 $397 $460 #
straight-curve $-1 -48.246377488479737 0 -8.2518670205787235 0 1 0 I I #
coedge $-1 $452 $461 $329 $403 reversed $387 $-1 #
edge $-1 $413 -61.913510544145026 $405 61.913510544145026 $402 $462 forward 7 unknown #
coedge $-1 $336 $330 $461 $463 forward $203 $-1 #
vertex $-1 $331 $464 #
coedge $-1 $465 $466 $336 $407 forward $444 $-1 #
edge $-1 $409 -40.441140970376779 $467 40.441140970376779 $336 $468 forward 7 unknown #
coedge $-1 $455 $337 $466 $469 reversed $343 $-1 #
vertex $-1 $407 $470 #
straight-curve $-1 61.913510544145026 40.441140970376779 0 0 0 -1 I I #
coedge $-1 $389 $340 $342 $415 forward $322 $-1 #
coedge $-1 $340 $389 $452 $471 reversed $322 $-1 #
vertex $-1 $341 $472 #
straight-curve $-1 -61.913510544145026 0 15.798913585244181 0 -1 0 I I #
edge $-1 $344 -15.798913585244181 $456 8.2518670205787235 $342 $473 forward 7 unknown #
face $-1 $273 $343 $14 $-1 $474 reversed single #
point $-1 -61.913510544145026 40.441140970376779 15.798913585244181 #
face $-1 $475 $476 $15 $-1 $477 reversed single #
loop $-1 $-1 $478 $347 #
plane-surface $-1 -48.246377488479737 0 -12.025390302911452 -1 0 0 0 0 1 forward_v I I I I #
coedge $-1 $479 $480 $481 $482 reversed $348 $-1 #
coedge $-1 $350 $483 $484 $485 forward $280 $-1 #
coedge $-1 $484 $359 $351 $424 forward $361 $-1 #
edge $-1 $486 -82.24767203884619 $426 -76.644688545329359 $423 $487 forward 7 unknown #
edge $-1 $486 -123.82702108829007 $427 -116.40299523939551 $352 $488 forward 7 unknown #
vertex $-1 $424 $489 #
vertex $-1 $355 $490 #
straight-curve $-1 37.064558319492193 -17.104197855246099 15.798913585244179 -1 0 0 I I #
straight-curve $-1 57.042911425306315 -5.8053176755516951 15.798913585244165 0 1 0 I I #
edge $-1 $357 0.31175517140898634 $486 11.298880179694404 $359 $491 forward 7 unknown #
point $-1 61.913510544145026 -6.1170728469606814 10.195930091727348 #
coedge $-1 $360 $492 $493 $494 reversed $361 $-1 #
face $-1 $-1 $361 $15 $-1 $495 reversed single #
coedge $-1 $483 $363 $496 $497 forward $280 $-1 #
coedge $-1 $493 $498 $363 $436 reversed $499 $-1 #
edge $-1 $437 -61.913510544145026 $500 61.913510544145026 $435 $501 forward 7 unknown #
vertex $-1 $364 $502 #
straight-curve $-1 61.913510544145026 0 15.798913585244181 0 1 0 I I #
point $-1 61.913510544145026 -40.441140970376779 15.798913585244181 #
point $-1 61.913510544145026 40.441140970376779 15.798913585244181 #
straight-curve $-1 61.913510544145026 0 -15.798913585244181 0 -1 0 I I #
point $-1 61.913510544145026 40.441140970376779 -15.798913585244181 #
straight-curve $-1 61.913510544145026 40.441140970376779 0 0 0 -1 I I #
loop $-1 $-1 $447 $386 #
plane-surface $-1 0 0 -15.798913585244181 0 0 1 1 0 0 forward_v I I I I #
edge $-1 $456 -40.441140970376779 $453 40.441140970376779 $389 $503 forward 7 unknown #
coedge $-1 $466 $465 $390 $448 forward $444 $-1 #
edge $-1 $450 -40.441140970376779 $504 40.441140970376779 $447 $505 forward 7 unknown #
coedge $-1 $461 $391 $465 $506 reversed $387 $-1 #
vertex $-1 $392 $507 #
straight-curve $-1 -48.246377488479737 -40.441140970376779 -6.0126951514557261 0 0 -1 I I #
coedge $-1 $394 $402 $412 $471 forward $387 $-1 #
vertex $-1 $395 $508 #
straight-curve $-1 -27.539972008156191 -40.441140970376779 -8.2518670205787235 1 0 0 I I #
coedge $-1 $396 $408 $398 $458 forward $343 $-1 #
vertex $-1 $446 $509 #
straight-curve $-1 -27.539972008156191 40.441140970376779 -8.2518670205787235 -1 0 0 I I #
edge $-1 $504 -9.7862184337884557 $400 -2.2391718691229974 $455 $510 forward 7 unknown #
point $-1 -48.246377488479737 -40.441140970376779 -8.2518670205787235 #
point $-1 -48.246377488479737 40.441140970376779 -8.2518670205787235 #
coedge $-1 $402 $449 $404 $463 reversed $387 $-1 #
straight-curve $-1 0 -40.441140970376779 15.798913585244181 1 0 0 I I #
edge $-1 $405 -15.798913585244181 $467 15.798913585244181 $404 $511 forward 7 unknown #
point $-1 61.913510544145026 -40.441140970376779 15.798913585244181 #
coedge $-1 $447 $406 $449 $506 forward $444 $-1 #
coedge $-1 $406 $447 $408 $469 forward $444 $-1 #
vertex $-1 $463 $512 #
straight-curve $-1 61.913510544145026 0 -15.798913585244181 0 -1 0 I I #
edge $-1 $504 -48.246377488479737 $409 61.913510544145026 $408 $513 forward 7 unknown #
point $-1 61.913510544145026 40.441140970376779 -15.798913585244181 #
edge $-1 $413 -15.798913585244181 $453 8.2518670205787235 $412 $514 forward 7 unknown #
point $-1 -61.913510544145026 -40.441140970376779 15.798913585244181 #
straight-curve $-1 -61.913510544145026 40.441140970376779 0 0 0 -1 I I #
plane-surface $-1 0 40.441140970376779 0 0 -1 0 0 0 -1 forward_v I I I I #
face $-1 $515 $516 $15 $-1 $517 reversed single #
loop $-1 $-1 $518 $418 #
plane-surface $-1 -61.913510544145026 0 0 1 0 0 0 0 -1 forward_v I I I I #
coedge $-1 $481 $519 $520 $521 reversed $419 $-1 #
coedge $-1 $522 $421 $523 $524 reversed $348 $-1 #
coedge $-1 $421 $522 $525 $526 reversed $348 $-1 #
coedge $-1 $527 $478 $421 $482 forward $419 $-1 #
edge $-1 $528 -40.441140970376779 $529 40.441140970376779 $481 $530 forward 7 unknown #
coedge $-1 $422 $434 $531 $532 forward $280 $-1 #
coedge $-1 $533 $423 $422 $485 reversed $361 $-1 #
edge $-1 $534 -40.441140970376779 $426 -17.104197855246099 $484 $438 forward 7 unknown #
vertex $-1 $430 $535 #
straight-curve $-1 61.913510544145026 -17.104197855246099 92.443602130573538 0 0 1 I I #
straight-curve $-1 -19.324323493145158 -17.104197855246099 103.64937022385689 -0.65605901945558964 0 0.75470958851134928 I I #
point $-1 61.913510544145026 -17.104197855246099 15.798913585244181 #
point $-1 57.042911425306315 -17.104197855246099 15.798913585244179 #
straight-curve $-1 61.913510544145026 -5.8053176755516951 10.195930091727355 0 -1 0 I I #
coedge $-1 $432 $533 $536 $537 reversed $361 $-1 #
coedge $-1 $538 $435 $432 $494 forward $499 $-1 #
edge $-1 $437 -15.798913585244181 $539 15.798913585244181 $432 $540 forward 7 unknown #
plane-surface $-1 61.913510544145026 0 0 -1 0 0 0 0 1 forward_v I I I I #
coedge $-1 $541 $542 $434 $497 reversed $476 $-1 #
edge $-1 $500 -40.441140970376779 $543 40.441140970376779 $496 $544 forward 7 unknown #
coedge $-1 $435 $525 $541 $545 reversed $499 $-1 #
loop $-1 $-1 $525 $546 #
vertex $-1 $436 $547 #
straight-curve $-1 0 40.441140970376779 15.798913585244181 -1 0 0 I I #
point $-1 61.913510544145026 40.441140970376779 15.798913585244181 #
straight-curve $-1 -61.913510544145026 0 -8.2518670205787235 0 -1 0 I I #
vertex $-1 $469 $548 #
straight-curve $-1 -48.246377488479737 0 -15.798913585244181 0 1 0 I I #
edge $-1 $467 -61.913510544145026 $450 48.246377488479737 $449 $549 forward 7 unknown #
point $-1 -48.246377488479737 -40.441140970376779 -15.798913585244181 #
point $-1 -61.913510544145026 -40.441140970376779 -8.2518670205787235 #
point $-1 -61.913510544145026 40.441140970376779 -8.2518670205787235 #
straight-curve $-1 -48.246377488479737 40.441140970376779 -6.0126951514557261 0 0 1 I I #
straight-curve $-1 61.913510544145026 -40.441140970376779 0 0 0 -1 I I #
point $-1 61.913510544145026 -40.441140970376779 -15.798913585244181 #
straight-curve $-1 0 40.441140970376779 -15.798913585244181 1 0 0 I I #
straight-curve $-1 -61.913510544145026 -40.441140970376779 0 0 0 -1 I I #
face $-1 $546 $550 $15 $-1 $551 reversed single #
loop $-1 $-1 $523 $475 #
plane-surface $-1 0 -40.441140970376779 0 0 1 0 0 0 1 forward_v I I I I #
coedge $-1 $542 $541 $522 $552 forward $476 $-1 #
coedge $-1 $478 $527 $553 $554 reversed $419 $-1 #
coedge $-1 $555 $523 $478 $521 forward $516 $-1 #
edge $-1 $528 2.2391718691229974 $556 9.7862184337884557 $520 $557 forward 7 unknown #
coedge $-1 $480 $479 $518 $552 reversed $348 $-1 #
coedge $-1 $520 $558 $479 $524 forward $516 $-1 #
edge $-1 $559 -34.373538535988835 $528 -20.706405480323546 $523 $560 forward 7 unknown #
coedge $-1 $498 $561 $480 $526 forward $499 $-1 #
edge $-1 $529 20.706405480323546 $562 34.373538535988835 $525 $563 forward 7 unknown #
coedge $-1 $519 $481 $561 $564 reversed $419 $-1 #
vertex $-1 $524 $565 #
vertex $-1 $526 $566 #
straight-curve $-1 -48.246377488479737 0 -8.2518670205787235 0 1 0 I I #
coedge $-1 $558 $567 $483 $532 reversed $516 $-1 #
edge $-1 $543 -61.913510544145026 $534 61.913510544145026 $531 $568 forward 7 unknown #
coedge $-1 $492 $484 $567 $569 forward $361 $-1 #
vertex $-1 $485 $570 #
point $-1 61.913510544145026 -17.104197855246099 10.195930091727348 #
coedge $-1 $571 $572 $492 $537 forward $550 $-1 #
edge $-1 $539 -40.441140970376779 $573 40.441140970376779 $492 $574 forward 7 unknown #
coedge $-1 $561 $493 $572 $575 reversed $499 $-1 #
vertex $-1 $537 $576 #
straight-curve $-1 61.913510544145026 40.441140970376779 0 0 0 -1 I I #
coedge $-1 $518 $496 $498 $545 forward $476 $-1 #
coedge $-1 $496 $518 $558 $577 reversed $476 $-1 #
vertex $-1 $497 $578 #
straight-curve $-1 -61.913510544145026 0 15.798913585244181 0 -1 0 I I #
edge $-1 $500 -15.798913585244181 $562 8.2518670205787235 $498 $579 forward 7 unknown #
face $-1 $433 $499 $15 $-1 $580 reversed single #
point $-1 -61.913510544145026 40.441140970376779 15.798913585244181 #
point $-1 -48.246377488479737 40.441140970376779 -15.798913585244181 #
straight-curve $-1 0 -40.441140970376779 -15.798913585244181 -1 0 0 I I #
loop $-1 $-1 $553 $515 #
plane-surface $-1 0 0 -15.798913585244181 0 0 1 1 0 0 forward_v I I I I #
edge $-1 $562 -40.441140970376779 $559 40.441140970376779 $518 $581 forward 7 unknown #
coedge $-1 $572 $571 $519 $554 forward $550 $-1 #
edge $-1 $556 -40.441140970376779 $582 40.441140970376779 $553 $583 forward 7 unknown #
coedge $-1 $567 $520 $571 $584 reversed $516 $-1 #
vertex $-1 $521 $585 #
straight-curve $-1 -48.246377488479737 -40.441140970376779 -6.0126951514557261 0 0 -1 I I #
coedge $-1 $523 $531 $542 $577 forward $516 $-1 #
vertex $-1 $524 $586 #
straight-curve $-1 -27.539972008156191 -40.441140970376779 -8.2518670205787235 1 0 0 I I #
coedge $-1 $525 $538 $527 $564 forward $499 $-1 #
vertex $-1 $552 $587 #
straight-curve $-1 -27.539972008156191 40.441140970376779 -8.2518670205787235 -1 0 0 I I #
edge $-1 $582 -9.7862184337884557 $529 -2.2391718691229974 $561 $588 forward 7 unknown #
point $-1 -48.246377488479737 -40.441140970376779 -8.2518670205787235 #
point $-1 -48.246377488479737 40.441140970376779 -8.2518670205787235 #
coedge $-1 $531 $555 $533 $569 reversed $516 $-1 #
straight-curve $-1 0 -40.441140970376779 15.798913585244181 1 0 0 I I #
edge $-1 $534 -15.798913585244181 $573 15.798913585244181 $533 $589 forward 7 unknown #
point $-1 61.913510544145026 -40.441140970376779 15.798913585244181 #
coedge $-1 $553 $536 $555 $584 forward $550 $-1 #
coedge $-1 $536 $553 $538 $575 forward $550 $-1 #
vertex $-1 $569 $590 #
straight-curve $-1 61.913510544145026 0 -15.798913585244181 0 -1 0 I I #
edge $-1 $582 -48.246377488479737 $539 61.913510544145026 $538 $591 forward 7 unknown #
point $-1 61.913510544145026 40.441140970376779 -15.798913585244181 #
edge $-1 $543 -15.798913585244181 $559 8.2518670205787235 $542 $592 forward 7 unknown #
point $-1 -61.913510544145026 -40.441140970376779 15.798913585244181 #
straight-curve $-1 -61.913510544145026 40.441140970376779 0 0 0 -1 I I #
plane-surface $-1 0 40.441140970376779 0 0 -1 0 0 0 -1 forward_v I I I I #
straight-curve $-1 -61.913510544145026 0 -8.2518670205787235 0 -1 0 I I #
vertex $-1 $575 $593 #
straight-curve $-1 -48.246377488479737 0 -15.798913585244181 0 1 0 I I #
edge $-1 $573 -61.913510544145026 $556 48.246377488479737 $555 $594 forward 7 unknown #
point $-1 -48.246377488479737 -40.441140970376779 -15.798913585244181 #
point $-1 -61.913510544145026 -40.441140970376779 -8.2518670205787235 #
point $-1 -61.913510544145026 40.441140970376779 -8.2518670205787235 #
straight-curve $-1 -48.246377488479737 40.441140970376779 -6.0126951514557261 0 0 1 I I #
straight-curve $-1 61.913510544145026 -40.441140970376779 0 0 0 -1 I I #
point $-1 61.913510544145026 -40.441140970376779 -15.798913585244181 #
straight-curve $-1 0 40.441140970376779 -15.798913585244181 1 0 0 I I #
straight-curve $-1 -61.913510544145026 -40.441140970376779 0 0 0 -1 I I #
point $-1 -48.246377488479737 40.441140970376779 -15.798913585244181 #
straight-curve $-1 0 -40.441140970376779 -15.798913585244181 -1 0 0 I I #
End-of-ACIS-data 