500 0 8 0           
7 Unknown 11 ACIS 5.0 NT 24 Fri Mar 26 17:07:06 1999 
-1 9.9999999999999995e-007 1e-010 
body $-1 $8 $-1 $9 #
body $-1 $10 $-1 $11 #
body $-1 $12 $-1 $13 #
body $-1 $14 $-1 $15 #
body $-1 $16 $-1 $17 #
body $-1 $18 $-1 $19 #
body $-1 $20 $-1 $21 #
body $-1 $22 $-1 $23 #
lump $-1 $-1 $24 $0 #
transform $-1 1 0 0 0 1 0 0 0 1 49.712210455641348 34.540481368495598 13.445351721401453 1 rotate no_reflect no_shear #
lump $-1 $-1 $25 $1 #
transform $-1 1 0 0 0 1 0 0 0 1 49.712210455641348 34.540481368495598 13.445351721401453 1 rotate no_reflect no_shear #
lump $-1 $-1 $26 $2 #
transform $-1 1 0 0 0 1 0 0 0 1 49.712210455641348 34.540481368495598 13.445351721401453 1 rotate no_reflect no_shear #
lump $-1 $-1 $27 $3 #
transform $-1 1 0 0 0 1 0 0 0 1 49.712210455641348 34.540481368495598 13.445351721401453 1 rotate no_reflect no_shear #
lump $-1 $-1 $28 $4 #
transform $-1 1 0 0 0 1 0 0 0 1 49.712210455641348 34.540481368495598 13.445351721401453 1 rotate no_reflect no_shear #
lump $-1 $-1 $29 $5 #
transform $-1 1 0 0 0 1 0 0 0 1 49.712210455641348 34.540481368495598 13.445351721401453 1 rotate no_reflect no_shear #
lump $-1 $-1 $30 $6 #
transform $-1 1 0 0 0 1 0 0 0 1 49.712210455641348 34.540481368495598 13.445351721401453 1 rotate no_reflect no_shear #
lump $-1 $-1 $31 $7 #
transform $-1 1 0 0 0 1 0 0 0 1 49.712210455641348 34.540481368495598 13.445351721401453 1 rotate no_reflect no_shear #
shell $-1 $-1 $-1 $32 $-1 $8 #
shell $-1 $-1 $-1 $33 $-1 $10 #
shell $-1 $-1 $-1 $34 $-1 $12 #
shell $-1 $-1 $-1 $35 $-1 $14 #
shell $-1 $-1 $-1 $36 $-1 $16 #
shell $-1 $-1 $-1 $37 $-1 $18 #
shell $-1 $-1 $-1 $38 $-1 $20 #
shell $-1 $-1 $-1 $39 $-1 $22 #
face $-1 $40 $41 $24 $-1 $42 forward single #
face $-1 $43 $44 $25 $-1 $45 reversed single #
face $-1 $46 $47 $26 $-1 $48 reversed single #
face $-1 $49 $50 $27 $-1 $51 forward single #
face $-1 $52 $53 $28 $-1 $54 reversed single #
face $-1 $55 $56 $29 $-1 $57 forward single #
face $-1 $58 $59 $30 $-1 $60 forward single #
face $-1 $61 $62 $31 $-1 $63 forward single #
face $-1 $64 $65 $24 $-1 $66 reversed single #
loop $-1 $-1 $67 $32 #
plane-surface $-1 0 0 13.445351721401453 0 0 1 1 0 0 forward_v I I I I #
face $-1 $68 $69 $25 $-1 $70 reversed single #
loop $-1 $-1 $71 $33 #
plane-surface $-1 -45.375024241515639 -29.247455866176367 0 1 0 0 0 0 -1 forward_v I I I I #
face $-1 $72 $73 $26 $-1 $74 reversed single #
loop $-1 $-1 $75 $34 #
plane-surface $-1 76.541362408235614 29.898258186701106 140.06545590827554 0 -1 0 -0.82903758062907751 0 -0.55919289150049634 forward_v I I I I #
face $-1 $76 $77 $27 $-1 $78 forward single #
loop $-1 $79 $80 $35 #
cone-surface $-1 42.812693781044032 21.864678707089347 5.6837862374641475 -0.82903758062907751 0 -0.55919289150049634 1.6775786745014889 0 -2.4871127418872323 1 I I 0 1 3 forward I I I I #
face $-1 $81 $82 $28 $-1 $83 reversed single #
loop $-1 $-1 $84 $36 #
plane-surface $-1 -99.424421577300677 22.661745496774255 89.991554097348981 0 1 0 -0.50000000669873634 0 0.8660253999169214 forward_v I I I I #
face $-1 $85 $86 $29 $-1 $87 forward single #
loop $-1 $88 $89 $37 #
cone-surface $-1 -41.184851070495199 25.037492671118528 8.2334032688157937 0.50000000669873634 0 -0.8660253999169214 0.4330126999584607 0 0.25000000334936817 1 I I 0 1 0.5 forward I I I I #
face $-1 $90 $91 $30 $-1 $92 forward single #
loop $-1 $93 $94 $38 #
cone-surface $-1 -41.184851070495199 28.601113432634932 8.2334032688157937 0.50000000669873634 0 -0.8660253999169214 0.4330126999584607 0 0.25000000334936817 1 I I 0 1 0.5 forward I I I I #
face $-1 $95 $96 $31 $-1 $97 forward single #
loop $-1 $98 $99 $39 #
cone-surface $-1 -41.184851070495199 32.164734194151329 8.2334032688157937 0.50000000669873634 0 -0.8660253999169214 0.4330126999584607 0 0.25000000334936817 1 I I 0 1 0.5 forward I I I I #
face $-1 $100 $101 $24 $-1 $102 reversed single #
loop $-1 $-1 $103 $40 #
plane-surface $-1 0 0 -13.445351721401453 0 0 1 1 0 0 forward_v I I I I #
coedge $-1 $104 $105 $106 $107 forward $41 $-1 #
face $-1 $108 $109 $25 $-1 $110 reversed single #
loop $-1 $-1 $111 $43 #
plane-surface $-1 -42.774954928406096 -23.954430363857135 0 0 -1 0 0 0 -1 forward_v I I I I #
coedge $-1 $112 $113 $114 $115 forward $44 $-1 #
face $-1 $116 $117 $26 $-1 $118 reversed single #
loop $-1 $-1 $119 $46 #
plane-surface $-1 -5.885218959501259 21.864678707089347 84.468026493132953 0.82903758062907751 0 0.55919289150049634 0.55919289150049634 0 -0.82903758062907751 forward_v I I I I #
coedge $-1 $120 $121 $122 $123 reversed $47 $-1 #
face $-1 $-1 $124 $27 $-1 $125 forward single #
loop $-1 $126 $127 $49 #
cone-surface $-1 38.515636677858176 21.864678707089347 2.7853847142787611 -0.82903758062907751 0 -0.55919289150049634 0.83878933725074445 0 -1.2435563709436162 1 I I -0.70710678118654757 0.70710678118654757 1.5 forward I I I I #
loop $-1 $-1 $128 $35 #
coedge $-1 $80 $80 $129 $130 reversed $50 $-1 #
face $-1 $131 $132 $28 $-1 $133 forward single #
loop $-1 $-1 $134 $52 #
plane-surface $-1 -49.712210455641348 28.601113432634925 3.8874802161470683 -0.50000000669873634 0 0.8660253999169214 0.8660253999169214 0 0.50000000669873634 forward_v I I I I #
coedge $-1 $135 $136 $137 $138 reversed $53 $-1 #
face $-1 $-1 $139 $29 $-1 $140 forward single #
loop $-1 $141 $142 $55 #
cone-surface $-1 -40.809851065471143 25.037492671118528 7.5838842188781026 0.50000000669873634 0 -0.8660253999169214 0.21650634997923035 0 0.12500000167468409 1 I I -0.70710678118654746 0.70710678118654746 0.25 forward I I I I #
loop $-1 $-1 $143 $37 #
coedge $-1 $89 $89 $144 $145 reversed $56 $-1 #
face $-1 $-1 $146 $30 $-1 $147 forward single #
loop $-1 $148 $149 $58 #
cone-surface $-1 -40.809851065471143 28.601113432634932 7.5838842188781026 0.50000000669873634 0 -0.8660253999169214 0.21650634997923035 0 0.12500000167468409 1 I I -0.70710678118654746 0.70710678118654746 0.25 forward I I I I #
loop $-1 $-1 $150 $38 #
coedge $-1 $94 $94 $151 $152 reversed $59 $-1 #
face $-1 $-1 $153 $31 $-1 $154 forward single #
loop $-1 $155 $156 $61 #
cone-surface $-1 -40.809851065471143 32.164734194151329 7.5838842188781026 0.50000000669873634 0 -0.8660253999169214 0.21650634997923035 0 0.12500000167468409 1 I I -0.70710678118654746 0.70710678118654746 0.25 forward I I I I #
loop $-1 $-1 $157 $39 #
coedge $-1 $99 $99 $158 $159 reversed $62 $-1 #
face $-1 $160 $161 $24 $-1 $162 reversed single #
loop $-1 $-1 $163 $64 #
plane-surface $-1 0 -34.540481368495598 0 0 1 0 0 0 1 forward_v I I I I #
coedge $-1 $164 $165 $166 $167 forward $65 $-1 #
coedge $-1 $168 $67 $169 $170 forward $41 $-1 #
coedge $-1 $67 $168 $171 $172 forward $41 $-1 #
coedge $-1 $173 $174 $67 $107 reversed $175 $-1 #
edge $-1 $176 -34.540481368495598 $177 34.540481368495598 $106 $178 forward 7 unknown #
face $-1 $179 $180 $25 $-1 $181 forward single #
loop $-1 $-1 $182 $68 #
plane-surface $-1 -40.174885615296553 -29.247455866176367 0 -1 0 0 0 0 1 forward_v I I I I #
coedge $-1 $183 $184 $185 $186 forward $69 $-1 #
coedge $-1 $187 $71 $188 $189 reversed $44 $-1 #
coedge $-1 $71 $187 $190 $191 reversed $44 $-1 #
coedge $-1 $184 $183 $71 $115 reversed $69 $-1 #
edge $-1 $192 -13.445351721401453 $193 13.445351721401453 $114 $194 forward 7 unknown #
face $-1 $195 $196 $26 $-1 $197 reversed single #
loop $-1 $-1 $198 $72 #
plane-surface $-1 76.541362408235614 13.831099227477587 140.06545590827554 0 1 0 0.82903758062907751 0 0.55919289150049634 forward_v I I I I #
coedge $-1 $199 $200 $201 $202 reversed $73 $-1 #
coedge $-1 $121 $75 $203 $204 reversed $47 $-1 #
coedge $-1 $75 $120 $199 $205 reversed $47 $-1 #
coedge $-1 $201 $206 $75 $123 forward $207 $-1 #
edge $-1 $208 -11.441529251523541 $209 -3.7494973668133724 $122 $210 forward 7 unknown #
loop $-1 $-1 $129 $76 #
plane-surface $-1 -5.885218959501259 21.864678707089347 84.468026493132953 0.82903758062907751 0 0.55919289150049634 0.55919289150049634 0 -0.82903758062907751 forward_v I I I I #
loop $-1 $-1 $211 $49 #
coedge $-1 $127 $127 $128 $212 reversed $77 $-1 #
coedge $-1 $128 $128 $127 $212 forward $79 $-1 #
coedge $-1 $129 $129 $80 $130 forward $124 $-1 #
edge $-1 $213 0 $213 6.2831853071796004 $129 $214 forward 7 unknown #
face $-1 $215 $216 $28 $-1 $217 reversed single #
loop $-1 $-1 $137 $81 #
plane-surface $-1 0 0 13.445351721401453 0 0 1 1 0 0 forward_v I I I I #
coedge $-1 $218 $219 $220 $221 reversed $82 $-1 #
coedge $-1 $136 $84 $222 $223 reversed $53 $-1 #
coedge $-1 $84 $135 $218 $224 reversed $53 $-1 #
coedge $-1 $220 $225 $84 $138 forward $132 $-1 #
edge $-1 $226 3.3300899104915516e-007 $227 16.554719096602554 $137 $228 forward 7 unknown #
loop $-1 $-1 $144 $85 #
plane-surface $-1 -49.712210455641348 28.601113432634925 3.8874802161470683 -0.50000000669873634 0 0.8660253999169214 0.8660253999169214 0 0.50000000669873634 forward_v I I I I #
loop $-1 $-1 $229 $55 #
coedge $-1 $142 $142 $143 $230 reversed $86 $-1 #
coedge $-1 $143 $143 $142 $230 forward $88 $-1 #
coedge $-1 $144 $144 $89 $145 forward $139 $-1 #
edge $-1 $231 0 $231 6.2831853071796004 $144 $232 forward 7 unknown #
loop $-1 $-1 $151 $90 #
plane-surface $-1 -49.712210455641348 28.601113432634925 3.8874802161470683 -0.50000000669873634 0 0.8660253999169214 0.8660253999169214 0 0.50000000669873634 forward_v I I I I #
loop $-1 $-1 $233 $58 #
coedge $-1 $149 $149 $150 $234 reversed $91 $-1 #
coedge $-1 $150 $150 $149 $234 forward $93 $-1 #
coedge $-1 $151 $151 $94 $152 forward $146 $-1 #
edge $-1 $235 0 $235 6.2831853071796004 $151 $236 forward 7 unknown #
loop $-1 $-1 $158 $95 #
plane-surface $-1 -49.712210455641348 28.601113432634925 3.8874802161470683 -0.50000000669873634 0 0.8660253999169214 0.8660253999169214 0 0.50000000669873634 forward_v I I I I #
loop $-1 $-1 $237 $61 #
coedge $-1 $156 $156 $157 $238 reversed $96 $-1 #
coedge $-1 $157 $157 $156 $238 forward $98 $-1 #
coedge $-1 $158 $158 $99 $159 forward $153 $-1 #
edge $-1 $239 0 $239 6.2831853071796004 $158 $240 forward 7 unknown #
face $-1 $241 $242 $24 $-1 $243 reversed single #
loop $-1 $-1 $244 $100 #
plane-surface $-1 -49.712210455641348 0 0 1 0 0 0 0 -1 forward_v I I I I #
coedge $-1 $245 $171 $246 $247 forward $101 $-1 #
coedge $-1 $248 $103 $245 $249 forward $65 $-1 #
coedge $-1 $103 $248 $250 $251 forward $65 $-1 #
coedge $-1 $174 $173 $103 $167 reversed $175 $-1 #
edge $-1 $252 -34.540481368495598 $253 34.540481368495598 $166 $254 forward 7 unknown #
coedge $-1 $105 $104 $255 $256 forward $41 $-1 #
coedge $-1 $257 $258 $104 $170 reversed $242 $-1 #
edge $-1 $177 -49.712210455641348 $259 49.712210455641348 $169 $260 forward 7 unknown #
coedge $-1 $163 $261 $105 $172 reversed $101 $-1 #
edge $-1 $262 -49.712210455641348 $176 49.712210455641348 $171 $263 forward 7 unknown #
coedge $-1 $166 $106 $261 $264 forward $175 $-1 #
coedge $-1 $106 $166 $257 $265 reversed $175 $-1 #
loop $-1 $-1 $173 $241 #
vertex $-1 $107 $266 #
vertex $-1 $107 $267 #
straight-curve $-1 49.712210455641348 0 13.445351721401453 0 1 0 I I #
face $-1 $268 $269 $25 $-1 $270 reversed single #
loop $-1 $-1 $271 $108 #
plane-surface $-1 0 0 13.445351721401453 0 0 1 1 0 0 forward_v I I I I #
coedge $-1 $272 $273 $274 $275 reversed $109 $-1 #
coedge $-1 $114 $111 $276 $277 reversed $69 $-1 #
coedge $-1 $111 $114 $278 $279 reversed $69 $-1 #
coedge $-1 $273 $272 $111 $186 reversed $109 $-1 #
edge $-1 $280 -13.445351721401453 $281 13.445351721401453 $185 $282 forward 7 unknown #
coedge $-1 $113 $112 $283 $284 reversed $44 $-1 #
coedge $-1 $276 $285 $112 $189 forward $269 $-1 #
edge $-1 $286 -19.916753435407415 $193 -9.3307024307689517 $188 $287 forward 7 unknown #
coedge $-1 $288 $278 $113 $191 forward $180 $-1 #
edge $-1 $192 9.3307024307689517 $289 19.916753435407415 $190 $290 forward 7 unknown #
vertex $-1 $191 $291 #
vertex $-1 $189 $292 #
straight-curve $-1 -45.375024241515639 -23.954430363857135 0 0 0 -1 I I #
face $-1 $-1 $207 $26 $-1 $293 forward single #
loop $-1 $-1 $294 $116 #
plane-surface $-1 49.712210455641348 0 0 -1 0 0 0 0 1 forward_v I I I I #
coedge $-1 $295 $296 $297 $298 reversed $117 $-1 #
coedge $-1 $299 $119 $121 $205 forward $73 $-1 #
coedge $-1 $119 $299 $295 $300 forward $73 $-1 #
coedge $-1 $297 $122 $119 $202 forward $207 $-1 #
edge $-1 $209 -18.965918833156433 $301 -2.8987598739329137 $201 $302 forward 7 unknown #
coedge $-1 $303 $304 $120 $204 forward $196 $-1 #
edge $-1 $305 -67.991282828741717 $208 -56.587376232736318 $203 $306 forward 7 unknown #
edge $-1 $209 85.668824226085349 $305 99.424420911282738 $121 $307 forward 7 unknown #
coedge $-1 $122 $297 $303 $308 forward $207 $-1 #
loop $-1 $-1 $297 $195 #
vertex $-1 $204 $309 #
vertex $-1 $123 $310 #
straight-curve $-1 38.270681204117807 29.898258186701106 13.445351721401451 -1 0 0 I I #
coedge $-1 $211 $211 $-1 $311 reversed $126 $-1 #
edge $-1 $312 0 $312 6.2831853071796004 $127 $313 forward 7 unknown #
vertex $-1 $130 $314 #
ellipse-curve $-1 45.866194513286253 21.864678707089347 7.7433984233987747 0.82903758062907751 0 0.55919289150049634 1.6775786745014889 0 -2.4871127418872323 1 I I #
face $-1 $-1 $315 $28 $-1 $316 reversed single #
loop $-1 $-1 $317 $131 #
plane-surface $-1 0 34.540481368495598 0 0 -1 0 0 0 -1 forward_v I I I I #
coedge $-1 $318 $134 $136 $224 forward $82 $-1 #
coedge $-1 $134 $318 $317 $319 reversed $82 $-1 #
coedge $-1 $320 $137 $134 $221 forward $132 $-1 #
edge $-1 $227 8.3611887804567928 $321 20.239924652178129 $220 $322 forward 7 unknown #
coedge $-1 $323 $324 $135 $223 forward $315 $-1 #
edge $-1 $325 -41.108296832527422 $226 -31.550425327273039 $222 $326 forward 7 unknown #
edge $-1 $227 -19.115742754406131 $325 0 $136 $327 forward 7 unknown #
coedge $-1 $137 $320 $323 $328 forward $132 $-1 #
vertex $-1 $223 $329 #
vertex $-1 $138 $330 #
straight-curve $-1 -49.712210788650339 22.661745496774255 13.445351721401451 1 0 0 I I #
coedge $-1 $229 $229 $-1 $331 reversed $141 $-1 #
edge $-1 $332 0 $332 6.2831853071796004 $142 $333 forward 7 unknown #
vertex $-1 $145 $334 #
ellipse-curve $-1 -41.43485107384457 25.037492671118528 8.6664159687742597 -0.50000000669873634 0 0.8660253999169214 0.4330126999584607 0 0.25000000334936817 1 I I #
coedge $-1 $233 $233 $-1 $335 reversed $148 $-1 #
edge $-1 $336 0 $336 6.2831853071796004 $149 $337 forward 7 unknown #
vertex $-1 $152 $338 #
ellipse-curve $-1 -41.43485107384457 28.601113432634932 8.6664159687742597 -0.50000000669873634 0 0.8660253999169214 0.4330126999584607 0 0.25000000334936817 1 I I #
coedge $-1 $237 $237 $-1 $339 reversed $155 $-1 #
edge $-1 $340 0 $340 6.2831853071796004 $156 $341 forward 7 unknown #
vertex $-1 $159 $342 #
ellipse-curve $-1 -41.43485107384457 32.164734194151329 8.6664159687742597 -0.50000000669873634 0 0.8660253999169214 0.4330126999584607 0 0.25000000334936817 1 I I #
face $-1 $-1 $175 $24 $-1 $343 reversed single #
loop $-1 $-1 $257 $160 #
plane-surface $-1 0 34.540481368495598 0 0 -1 0 0 0 -1 forward_v I I I I #
coedge $-1 $344 $255 $258 $345 forward $161 $-1 #
coedge $-1 $261 $163 $164 $249 reversed $101 $-1 #
coedge $-1 $255 $344 $163 $247 reversed $161 $-1 #
edge $-1 $262 -13.445351721401453 $346 13.445351721401453 $246 $347 forward 7 unknown #
coedge $-1 $165 $164 $344 $348 forward $65 $-1 #
edge $-1 $253 -49.712210455641348 $346 49.712210455641348 $245 $349 forward 7 unknown #
coedge $-1 $258 $257 $165 $251 reversed $242 $-1 #
edge $-1 $350 -49.712210455641348 $252 49.712210455641348 $250 $351 forward 7 unknown #
vertex $-1 $167 $352 #
vertex $-1 $264 $353 #
straight-curve $-1 49.712210455641348 0 -13.445351721401453 0 -1 0 I I #
coedge $-1 $244 $246 $168 $256 reversed $161 $-1 #
edge $-1 $259 -34.540481368495598 $262 34.540481368495598 $255 $354 forward 7 unknown #
coedge $-1 $250 $169 $174 $265 forward $242 $-1 #
coedge $-1 $169 $250 $244 $345 reversed $242 $-1 #
vertex $-1 $170 $355 #
straight-curve $-1 0 34.540481368495598 13.445351721401453 -1 0 0 I I #
coedge $-1 $171 $245 $173 $264 reversed $101 $-1 #
vertex $-1 $256 $356 #
straight-curve $-1 0 -34.540481368495598 13.445351721401453 1 0 0 I I #
edge $-1 $176 -13.445351721401453 $253 13.445351721401453 $173 $357 forward 7 unknown #
edge $-1 $177 -13.445351721401453 $252 13.445351721401453 $174 $358 forward 7 unknown #
point $-1 49.712210455641348 -34.540481368495598 13.445351721401453 #
point $-1 49.712210455641348 34.540481368495598 13.445351721401453 #
face $-1 $-1 $359 $25 $-1 $360 reversed single #
loop $-1 $-1 $361 $179 #
plane-surface $-1 0 0 -13.445351721401453 0 0 1 1 0 0 forward_v I I I I #
coedge $-1 $278 $288 $273 $362 forward $180 $-1 #
coedge $-1 $185 $182 $361 $363 reversed $109 $-1 #
coedge $-1 $182 $185 $271 $362 reversed $109 $-1 #
coedge $-1 $364 $365 $182 $275 forward $359 $-1 #
edge $-1 $366 -13.445351721401453 $367 13.445351721401453 $274 $368 forward 7 unknown #
coedge $-1 $361 $188 $183 $277 forward $269 $-1 #
edge $-1 $193 -23.987546777312591 $281 -18.787408151093505 $276 $369 forward 7 unknown #
coedge $-1 $190 $271 $184 $279 forward $180 $-1 #
edge $-1 $280 18.787408151093505 $192 23.987546777312591 $278 $370 forward 7 unknown #
vertex $-1 $279 $371 #
vertex $-1 $277 $372 #
straight-curve $-1 -40.174885615296553 -23.954430363857135 0 0 0 -1 I I #
coedge $-1 $365 $364 $187 $284 forward $359 $-1 #
edge $-1 $289 -13.445351721401453 $286 13.445351721401453 $283 $373 forward 7 unknown #
coedge $-1 $188 $361 $365 $374 forward $269 $-1 #
vertex $-1 $189 $375 #
straight-curve $-1 -45.375024241515639 -14.623727933088183 -13.445351721401453 0 1 0 I I #
coedge $-1 $271 $190 $364 $376 forward $180 $-1 #
vertex $-1 $376 $377 #
straight-curve $-1 -45.375024241515639 -14.623727933088183 13.445351721401453 0 -1 0 I I #
point $-1 -45.375024241515639 -23.954430363857135 13.445351721401453 #
point $-1 -45.375024241515639 -23.954430363857135 -13.445351721401453 #
plane-surface $-1 0 0 13.445351721401453 0 0 1 1 0 0 forward_v I I I I #
coedge $-1 $304 $303 $296 $378 forward $196 $-1 #
coedge $-1 $296 $198 $200 $300 reversed $117 $-1 #
coedge $-1 $198 $295 $294 $378 reversed $117 $-1 #
coedge $-1 $206 $201 $198 $298 forward $207 $-1 #
edge $-1 $301 3.7494973668133724 $379 11.441529251523541 $297 $380 forward 7 unknown #
coedge $-1 $200 $199 $304 $381 reversed $73 $-1 #
edge $-1 $382 -99.424420911282738 $301 -85.668824226085349 $295 $383 forward 7 unknown #
vertex $-1 $202 $384 #
straight-curve $-1 42.020178570931179 10.932339353544673 13.445351721401444 0 -1 0 I I #
coedge $-1 $294 $203 $206 $308 reversed $196 $-1 #
coedge $-1 $203 $294 $299 $381 forward $196 $-1 #
vertex $-1 $204 $385 #
straight-curve $-1 49.712210455641348 29.898258186701106 70.032727954137769 0 0 1 I I #
straight-curve $-1 -5.885218959501259 29.898258186701106 84.468026493132953 0.55919289150049634 0 -0.82903758062907751 I I #
edge $-1 $379 13.831099227477587 $208 29.898258186701106 $303 $386 forward 7 unknown #
point $-1 49.712210455641348 29.898258186701106 13.445351721401453 #
point $-1 42.020178570931179 29.898258186701106 13.445351721401451 #
edge $-1 $387 1 $387 0 $211 $-1 forward 7 unknown #
vertex $-1 $212 $388 #
ellipse-curve $-1 39.759193048801791 21.864678707089347 3.6241740515295056 0.82903758062907751 0 0.55919289150049634 1.6775786745014889 0 -2.4871127418872323 1 I I #
point $-1 47.543773187787764 21.864678707089347 5.2562856815115566 #
loop $-1 $-1 $222 $215 #
plane-surface $-1 -49.712210455641348 0 0 1 0 0 0 0 -1 forward_v I I I I #
coedge $-1 $389 $390 $219 $319 forward $216 $-1 #
coedge $-1 $219 $218 $324 $391 reversed $82 $-1 #
edge $-1 $321 1.4384056488369779 $392 20.554148403243108 $317 $393 forward 7 unknown #
coedge $-1 $225 $220 $390 $394 forward $132 $-1 #
vertex $-1 $394 $395 #
straight-curve $-1 -33.157491692047792 14.300556716317463 13.445351721401453 0 1 0 I I #
coedge $-1 $396 $222 $225 $328 reversed $315 $-1 #
coedge $-1 $222 $396 $318 $391 forward $315 $-1 #
vertex $-1 $223 $397 #
straight-curve $-1 -49.712210455641348 22.661745496774255 44.995777048674491 0 0 1 I I #
straight-curve $-1 -49.712210455641348 22.661745496774255 3.8874802161470683 -0.8660253999169214 0 -0.50000000669873634 I I #
edge $-1 $398 -34.540481368495598 $226 -22.661745496774255 $323 $399 forward 7 unknown #
point $-1 -49.712210455641348 22.661745496774255 13.445351721401453 #
point $-1 -33.157491692047785 22.661745496774255 13.445351721401453 #
edge $-1 $400 1 $400 0 $229 $-1 forward 7 unknown #
vertex $-1 $230 $401 #
ellipse-curve $-1 -40.934851067145829 25.037492671118528 7.800390568857333 -0.50000000669873634 0 0.8660253999169214 0.4330126999584607 0 0.25000000334936817 1 I I #
point $-1 -41.001838373886102 25.037492671118528 8.9164159721236231 #
edge $-1 $402 1 $402 0 $233 $-1 forward 7 unknown #
vertex $-1 $234 $403 #
ellipse-curve $-1 -40.934851067145829 28.601113432634932 7.800390568857333 -0.50000000669873634 0 0.8660253999169214 0.4330126999584607 0 0.25000000334936817 1 I I #
point $-1 -41.001838373886102 28.601113432634932 8.9164159721236231 #
edge $-1 $404 1 $404 0 $237 $-1 forward 7 unknown #
vertex $-1 $238 $405 #
ellipse-curve $-1 -40.934851067145829 32.164734194151329 7.800390568857333 -0.50000000669873634 0 0.8660253999169214 0.4330126999584607 0 0.25000000334936817 1 I I #
point $-1 -41.001838373886102 32.164734194151329 8.9164159721236231 #
plane-surface $-1 49.712210455641348 0 0 -1 0 0 0 0 1 forward_v I I I I #
coedge $-1 $246 $244 $248 $348 reversed $161 $-1 #
edge $-1 $259 -13.445351721401453 $350 13.445351721401453 $258 $406 forward 7 unknown #
vertex $-1 $348 $407 #
straight-curve $-1 -49.712210455641348 -34.540481368495598 0 0 0 -1 I I #
edge $-1 $346 -34.540481368495598 $350 34.540481368495598 $344 $408 forward 7 unknown #
straight-curve $-1 0 -34.540481368495598 -13.445351721401453 -1 0 0 I I #
vertex $-1 $251 $409 #
straight-curve $-1 0 34.540481368495598 -13.445351721401453 1 0 0 I I #
point $-1 49.712210455641348 34.540481368495598 -13.445351721401453 #
point $-1 49.712210455641348 -34.540481368495598 -13.445351721401453 #
straight-curve $-1 -49.712210455641348 0 13.445351721401453 0 -1 0 I I #
point $-1 -49.712210455641348 34.540481368495598 13.445351721401453 #
point $-1 -49.712210455641348 -34.540481368495598 13.445351721401453 #
straight-curve $-1 49.712210455641348 -34.540481368495598 0 0 0 -1 I I #
straight-curve $-1 49.712210455641348 34.540481368495598 0 0 0 -1 I I #
loop $-1 $-1 $274 $268 #
plane-surface $-1 0 -34.540481368495598 0 0 1 0 0 0 1 forward_v I I I I #
coedge $-1 $285 $276 $272 $363 forward $269 $-1 #
edge $-1 $367 -19.916753435407415 $280 -9.3307024307689517 $271 $410 forward 7 unknown #
edge $-1 $281 9.3307024307689517 $366 19.916753435407415 $361 $411 forward 7 unknown #
coedge $-1 $283 $274 $288 $376 reversed $359 $-1 #
coedge $-1 $274 $283 $285 $374 reversed $359 $-1 #
vertex $-1 $374 $412 #
vertex $-1 $275 $413 #
straight-curve $-1 -40.174885615296553 -34.540481368495598 0 0 0 1 I I #
straight-curve $-1 -21.387477464203048 -23.954430363857135 -13.445351721401453 1 0 0 I I #
straight-curve $-1 -21.387477464203048 -23.954430363857135 13.445351721401453 -1 0 0 I I #
point $-1 -40.174885615296553 -23.954430363857135 13.445351721401453 #
point $-1 -40.174885615296553 -23.954430363857135 -13.445351721401453 #
straight-curve $-1 -45.375024241515639 -34.540481368495598 0 0 0 -1 I I #
edge $-1 $366 40.174885615296553 $286 45.375024241515639 $365 $414 forward 7 unknown #
point $-1 -45.375024241515639 -34.540481368495598 -13.445351721401453 #
edge $-1 $289 -45.375024241515639 $367 -40.174885615296553 $364 $415 forward 7 unknown #
point $-1 -45.375024241515639 -34.540481368495598 13.445351721401453 #
edge $-1 $379 56.587376232736318 $382 67.991282828741717 $294 $416 forward 7 unknown #
vertex $-1 $308 $417 #
straight-curve $-1 38.270681204117807 13.831099227477587 13.445351721401451 1 0 0 I I #
edge $-1 $382 2.8987598739329137 $305 18.965918833156433 $304 $418 forward 7 unknown #
vertex $-1 $381 $419 #
straight-curve $-1 -5.885218959501259 13.831099227477587 84.468026493132953 -0.55919289150049634 0 0.82903758062907751 I I #
point $-1 42.020178570931179 13.831099227477587 13.445351721401451 #
point $-1 49.712210455641348 29.898258186701106 2.0414451253960522 #
straight-curve $-1 49.712210455641348 0 13.445351721401453 0 1 0 I I #
vertex $-1 $311 $420 #
point $-1 41.436771723303281 21.864678707089347 1.1370613096422733 #
coedge $-1 $390 $317 $396 $421 reversed $216 $-1 #
coedge $-1 $317 $389 $320 $394 reversed $216 $-1 #
edge $-1 $392 -20.239924652178129 $325 -8.3611887804567928 $324 $422 forward 7 unknown #
vertex $-1 $319 $423 #
straight-curve $-1 -31.911795864770983 34.540481368495598 14.164554555455444 -0.8660253999169214 0 -0.50000000669873634 I I #
edge $-1 $321 33.157491692047785 $398 49.712210455641348 $390 $424 forward 7 unknown #
point $-1 -33.157491692047785 34.540481368495591 13.445351721401453 #
coedge $-1 $324 $323 $389 $421 forward $315 $-1 #
point $-1 -49.712210455641348 22.661745496774255 3.8874802161470683 #
vertex $-1 $394 $425 #
straight-curve $-1 -49.712210455641348 0 13.445351721401453 0 -1 0 I I #
vertex $-1 $331 $426 #
point $-1 -40.501838367187368 25.037492671118528 8.0503905722067017 #
vertex $-1 $335 $427 #
point $-1 -40.501838367187368 28.601113432634932 8.0503905722067017 #
vertex $-1 $339 $428 #
point $-1 -40.501838367187368 32.164734194151329 8.0503905722067017 #
straight-curve $-1 -49.712210455641348 34.540481368495598 0 0 0 -1 I I #
point $-1 -49.712210455641348 -34.540481368495598 -13.445351721401453 #
straight-curve $-1 -49.712210455641348 0 -13.445351721401453 0 1 0 I I #
point $-1 -49.712210455641348 34.540481368495598 -13.445351721401453 #
straight-curve $-1 -40.174885615296553 -14.623727933088183 13.445351721401453 0 1 0 I I #
straight-curve $-1 -40.174885615296553 -14.623727933088183 -13.445351721401453 0 -1 0 I I #
point $-1 -40.174885615296553 -34.540481368495598 -13.445351721401453 #
point $-1 -40.174885615296553 -34.540481368495598 13.445351721401453 #
straight-curve $-1 0 -34.540481368495598 -13.445351721401453 -1 0 0 I I #
straight-curve $-1 0 -34.540481368495598 13.445351721401453 1 0 0 I I #
straight-curve $-1 49.712210455641348 13.831099227477587 70.032727954137769 0 0 -1 I I #
point $-1 49.712210455641348 13.831099227477587 13.445351721401453 #
straight-curve $-1 49.712210455641355 10.932339353544673 2.041445125396038 0 1 0 I I #
point $-1 49.712210455641348 13.831099227477587 2.0414451253960522 #
point $-1 37.27208030691456 21.864678707089347 1.9465953770280167 #
edge $-1 $398 -13.445351721401453 $392 -3.8874802161470683 $389 $429 forward 7 unknown #
straight-curve $-1 -49.712210455641348 14.300556716317463 3.887480216147067 0 -1 0 I I #
point $-1 -49.712210455641348 34.540481368495591 3.8874802161470683 #
straight-curve $-1 0 34.540481368495598 13.445351721401453 -1 0 0 I I #
point $-1 -49.712210455641348 34.540481368495598 13.445351721401453 #
point $-1 -40.684851063796458 25.037492671118528 7.3673778688988723 #
point $-1 -40.684851063796458 28.601113432634932 7.3673778688988723 #
point $-1 -40.684851063796458 32.164734194151329 7.3673778688988723 #
straight-curve $-1 -49.712210455641348 34.540481368495598 0 0 0 -1 I I #
End-of-ACIS-data 