500 0 6 0           
7 Unknown 11 ACIS 5.0 NT 24 Thu Mar 25 15:37:50 1999 
-1 9.9999999999999995e-007 1e-010 
body $-1 $6 $-1 $7 #
body $-1 $8 $-1 $9 #
body $-1 $10 $-1 $11 #
body $-1 $12 $-1 $13 #
body $-1 $14 $-1 $15 #
body $-1 $16 $-1 $17 #
lump $-1 $-1 $18 $0 #
transform $-1 1 0 0 0 1 0 0 0 1 55.273903622547074 22.24417424570694 4.626424374660262 1 rotate no_reflect no_shear #
lump $-1 $-1 $19 $1 #
transform $-1 1 0 0 0 1 0 0 0 1 55.273903622547074 22.24417424570694 4.626424374660262 1 rotate no_reflect no_shear #
lump $-1 $-1 $20 $2 #
transform $-1 1 0 0 0 1 0 0 0 1 55.273903622547074 22.24417424570694 4.626424374660262 1 rotate no_reflect no_shear #
lump $-1 $-1 $21 $3 #
transform $-1 1 0 0 0 1 0 0 0 1 55.273903622547074 22.24417424570694 4.626424374660262 1 rotate no_reflect no_shear #
lump $-1 $-1 $22 $4 #
transform $-1 1 0 0 0 1 0 0 0 1 55.273903622547074 22.24417424570694 4.626424374660262 1 rotate no_reflect no_shear #
lump $-1 $-1 $23 $5 #
transform $-1 1 0 0 0 1 0 0 0 1 55.273903622547074 22.24417424570694 4.626424374660262 1 rotate no_reflect no_shear #
shell $-1 $-1 $-1 $24 $-1 $6 #
shell $-1 $-1 $-1 $25 $-1 $8 #
shell $-1 $-1 $-1 $26 $-1 $10 #
shell $-1 $-1 $-1 $27 $-1 $12 #
shell $-1 $-1 $-1 $28 $-1 $14 #
shell $-1 $-1 $-1 $29 $-1 $16 #
face $-1 $30 $31 $18 $-1 $32 forward single #
face $-1 $33 $34 $19 $-1 $35 reversed single #
face $-1 $36 $37 $20 $-1 $38 reversed single #
face $-1 $39 $40 $21 $-1 $41 forward single #
face $-1 $42 $43 $22 $-1 $44 reversed single #
face $-1 $45 $46 $23 $-1 $47 forward single #
face $-1 $48 $49 $18 $-1 $50 reversed single #
loop $-1 $-1 $51 $24 #
plane-surface $-1 0 0 4.626424374660262 0 0 1 1 0 0 forward_v I I I I #
face $-1 $52 $53 $19 $-1 $54 reversed single #
loop $-1 $-1 $55 $25 #
plane-surface $-1 -53.773903622547074 -18.759840058771044 0 0 -1 0 0 0 -1 forward_v I I I I #
face $-1 $56 $57 $20 $-1 $58 reversed single #
loop $-1 $-1 $59 $26 #
plane-surface $-1 -137.42693546007936 15.651687584687348 75.12823436476306 0 1 0 -0.74314483375859142 0 0.66913059716165679 forward_v I I I I #
face $-1 $60 $61 $21 $-1 $62 forward single #
loop $-1 $63 $64 $27 #
cone-surface $-1 -53.32825540557775 18.947930915197144 2.5462511376605725 0.74314483375859142 0 -0.66913059716165679 0.3345652985808284 0 0.37157241687929571 1 I I 0 1 0.5 forward I I I I #
face $-1 $65 $66 $22 $-1 $67 reversed single #
loop $-1 $-1 $68 $28 #
plane-surface $-1 63.456015183257797 15.651687584687348 157.28126620229534 0 1 0 0.74314483375859142 0 0.66913059716165679 forward_v I I I I #
face $-1 $69 $70 $23 $-1 $71 forward single #
loop $-1 $72 $73 $29 #
cone-surface $-1 53.328255405577764 18.947930915197144 2.5462511376605788 -0.74314483375859142 0 -0.66913059716165679 0.3345652985808284 0 -0.37157241687929571 1 I I 0 1 0.5 forward I I I I #
face $-1 $74 $75 $18 $-1 $76 reversed single #
loop $-1 $-1 $77 $30 #
plane-surface $-1 0 0 -4.626424374660262 0 0 1 1 0 0 forward_v I I I I #
coedge $-1 $78 $79 $80 $81 forward $31 $-1 #
face $-1 $82 $83 $19 $-1 $84 forward single #
loop $-1 $-1 $85 $33 #
plane-surface $-1 -52.273903622547074 -20.502007152238992 0 -1 0 0 0 0 1 forward_v I I I I #
coedge $-1 $86 $87 $88 $89 forward $34 $-1 #
face $-1 $90 $91 $20 $-1 $92 reversed single #
loop $-1 $-1 $93 $36 #
plane-surface $-1 -55.273903622547067 18.947930915197144 1.1573140879414865 -0.74314483375859142 0 0.66913059716165679 0.66913059716165679 0 0.74314483375859142 forward_v I I I I #
coedge $-1 $94 $95 $96 $97 reversed $37 $-1 #
face $-1 $-1 $98 $21 $-1 $99 forward single #
loop $-1 $100 $101 $39 #
cone-surface $-1 -52.758621407436401 18.947930915197144 2.0333503947298572 0.74314483375859142 0 -0.66913059716165679 0.1672826492904142 0 0.18578620843964785 1 I I -0.70710678118654746 0.70710678118654746 0.25 forward I I I I #
loop $-1 $-1 $102 $27 #
coedge $-1 $64 $64 $103 $104 reversed $40 $-1 #
face $-1 $105 $106 $22 $-1 $107 reversed single #
loop $-1 $-1 $108 $42 #
plane-surface $-1 -18.697016654274499 18.947930915197144 83.310345925473769 0.74314483375859142 0 0.66913059716165679 0.66913059716165679 0 -0.74314483375859142 forward_v I I I I #
coedge $-1 $109 $110 $111 $112 reversed $43 $-1 #
face $-1 $-1 $113 $23 $-1 $114 forward single #
loop $-1 $115 $116 $45 #
cone-surface $-1 52.758621407436415 18.947930915197144 2.0333503947298635 -0.74314483375859142 0 -0.66913059716165679 0.1672826492904142 0 -0.18578620843964785 1 I I -0.70710678118654746 0.70710678118654746 0.25 forward I I I I #
loop $-1 $-1 $117 $29 #
coedge $-1 $73 $73 $118 $119 reversed $46 $-1 #
face $-1 $120 $121 $18 $-1 $122 reversed single #
loop $-1 $-1 $123 $48 #
plane-surface $-1 0 -22.24417424570694 0 0 1 0 0 0 1 forward_v I I I I #
coedge $-1 $124 $125 $126 $127 forward $49 $-1 #
coedge $-1 $128 $51 $129 $130 forward $31 $-1 #
coedge $-1 $51 $128 $131 $132 forward $31 $-1 #
coedge $-1 $133 $134 $51 $81 reversed $135 $-1 #
edge $-1 $136 -22.24417424570694 $137 22.24417424570694 $80 $138 forward 7 unknown #
face $-1 $139 $140 $19 $-1 $141 reversed single #
loop $-1 $-1 $142 $52 #
plane-surface $-1 0 0 4.626424374660262 0 0 1 1 0 0 forward_v I I I I #
coedge $-1 $143 $144 $145 $146 reversed $53 $-1 #
coedge $-1 $147 $55 $148 $149 reversed $34 $-1 #
coedge $-1 $55 $147 $150 $151 reversed $34 $-1 #
coedge $-1 $144 $143 $55 $89 reversed $53 $-1 #
edge $-1 $152 -4.626424374660262 $153 4.626424374660262 $88 $154 forward 7 unknown #
face $-1 $155 $156 $20 $-1 $157 reversed single #
loop $-1 $-1 $158 $56 #
plane-surface $-1 0 22.24417424570694 0 0 -1 0 0 0 -1 forward_v I I I I #
coedge $-1 $159 $160 $161 $162 reversed $57 $-1 #
coedge $-1 $95 $59 $163 $164 reversed $37 $-1 #
coedge $-1 $59 $94 $159 $165 reversed $37 $-1 #
coedge $-1 $161 $166 $59 $97 forward $167 $-1 #
edge $-1 $168 13.439564107492608 $169 16.563164962027848 $96 $170 forward 7 unknown #
loop $-1 $-1 $103 $60 #
plane-surface $-1 -55.273903622547067 18.947930915197144 1.1573140879414865 -0.74314483375859142 0 0.66913059716165679 0.66913059716165679 0 0.74314483375859142 forward_v I I I I #
loop $-1 $-1 $171 $39 #
coedge $-1 $101 $101 $102 $172 reversed $61 $-1 #
coedge $-1 $102 $102 $101 $172 forward $63 $-1 #
coedge $-1 $103 $103 $64 $104 forward $98 $-1 #
edge $-1 $173 0 $173 6.2831853071796004 $103 $174 forward 7 unknown #
face $-1 $175 $176 $22 $-1 $177 reversed single #
loop $-1 $-1 $111 $65 #
plane-surface $-1 55.273903622547074 0 0 -1 0 0 0 0 1 forward_v I I I I #
coedge $-1 $178 $179 $180 $181 reversed $66 $-1 #
coedge $-1 $110 $68 $182 $183 reversed $43 $-1 #
coedge $-1 $68 $109 $178 $184 reversed $43 $-1 #
coedge $-1 $180 $185 $68 $112 forward $106 $-1 #
edge $-1 $186 74.014208726487411 $187 77.483319013206199 $111 $188 forward 7 unknown #
loop $-1 $-1 $118 $69 #
plane-surface $-1 -18.697016654274499 18.947930915197144 83.310345925473769 0.74314483375859142 0 0.66913059716165679 0.66913059716165679 0 -0.74314483375859142 forward_v I I I I #
loop $-1 $-1 $189 $45 #
coedge $-1 $116 $116 $117 $190 reversed $70 $-1 #
coedge $-1 $117 $117 $116 $190 forward $72 $-1 #
coedge $-1 $118 $118 $73 $119 forward $113 $-1 #
edge $-1 $191 0 $191 6.2831853071796004 $118 $192 forward 7 unknown #
face $-1 $193 $194 $18 $-1 $195 reversed single #
loop $-1 $-1 $196 $74 #
plane-surface $-1 -55.273903622547074 0 0 1 0 0 0 0 -1 forward_v I I I I #
coedge $-1 $197 $131 $198 $199 forward $75 $-1 #
coedge $-1 $200 $77 $197 $201 forward $49 $-1 #
coedge $-1 $77 $200 $202 $203 forward $49 $-1 #
coedge $-1 $134 $133 $77 $127 reversed $135 $-1 #
edge $-1 $204 -22.24417424570694 $205 22.24417424570694 $126 $206 forward 7 unknown #
coedge $-1 $79 $78 $207 $208 forward $31 $-1 #
coedge $-1 $209 $210 $78 $130 reversed $194 $-1 #
edge $-1 $137 -55.273903622547074 $211 55.273903622547074 $129 $212 forward 7 unknown #
coedge $-1 $123 $213 $79 $132 reversed $75 $-1 #
edge $-1 $214 -55.273903622547074 $136 55.273903622547074 $131 $215 forward 7 unknown #
coedge $-1 $126 $80 $213 $216 forward $135 $-1 #
coedge $-1 $80 $126 $209 $217 reversed $135 $-1 #
loop $-1 $-1 $133 $193 #
vertex $-1 $81 $218 #
vertex $-1 $81 $219 #
straight-curve $-1 55.273903622547074 0 4.626424374660262 0 1 0 I I #
face $-1 $220 $221 $19 $-1 $222 reversed single #
loop $-1 $-1 $223 $82 #
plane-surface $-1 -55.273903622547074 0 0 1 0 0 0 0 -1 forward_v I I I I #
coedge $-1 $150 $224 $144 $225 forward $83 $-1 #
coedge $-1 $88 $85 $226 $227 reversed $53 $-1 #
coedge $-1 $85 $88 $142 $225 reversed $53 $-1 #
coedge $-1 $228 $229 $85 $146 forward $230 $-1 #
edge $-1 $231 -4.626424374660262 $232 4.626424374660262 $145 $233 forward 7 unknown #
coedge $-1 $87 $86 $223 $234 reversed $34 $-1 #
coedge $-1 $226 $235 $86 $149 forward $221 $-1 #
edge $-1 $236 -28.386951811273537 $153 -25.386951811273537 $148 $237 forward 7 unknown #
coedge $-1 $238 $142 $87 $151 forward $83 $-1 #
edge $-1 $152 25.386951811273537 $239 28.386951811273537 $150 $240 forward 7 unknown #
vertex $-1 $151 $241 #
vertex $-1 $149 $242 #
straight-curve $-1 -52.273903622547074 -18.759840058771044 0 0 0 -1 I I #
face $-1 $-1 $167 $20 $-1 $243 forward single #
loop $-1 $-1 $244 $90 #
plane-surface $-1 -55.273903622547074 0 0 1 0 0 0 0 -1 forward_v I I I I #
coedge $-1 $245 $246 $160 $247 forward $91 $-1 #
coedge $-1 $248 $93 $95 $165 forward $57 $-1 #
coedge $-1 $93 $248 $158 $247 reversed $57 $-1 #
coedge $-1 $249 $96 $93 $162 forward $167 $-1 #
edge $-1 $169 6.1777221270887761 $250 12.770208788108368 $161 $251 forward 7 unknown #
coedge $-1 $252 $244 $94 $164 forward $156 $-1 #
edge $-1 $253 -36.40680309444005 $168 -32.93769280772127 $163 $254 forward 7 unknown #
edge $-1 $169 -4.6681482924036661 $253 1.0694865687384493e-014 $95 $255 forward 7 unknown #
coedge $-1 $96 $249 $252 $256 forward $167 $-1 #
loop $-1 $-1 $161 $155 #
vertex $-1 $164 $257 #
vertex $-1 $97 $258 #
straight-curve $-1 -68.713467730039682 15.651687584687348 4.6264243746602602 1 0 0 I I #
coedge $-1 $171 $171 $-1 $259 reversed $100 $-1 #
edge $-1 $260 0 $260 6.2831853071796004 $101 $261 forward 7 unknown #
vertex $-1 $104 $262 #
ellipse-curve $-1 -53.712103195279454 18.947930915197144 2.8918692313008725 -0.74314483375859142 0 0.66913059716165679 0.3345652985808284 0 0.37157241687929571 1 I I #
face $-1 $-1 $263 $22 $-1 $264 forward single #
loop $-1 $-1 $265 $105 #
plane-surface $-1 0 22.24417424570694 0 0 -1 0 0 0 -1 forward_v I I I I #
coedge $-1 $266 $108 $110 $184 forward $66 $-1 #
coedge $-1 $108 $266 $265 $267 reversed $66 $-1 #
coedge $-1 $268 $111 $108 $181 forward $106 $-1 #
edge $-1 $187 6.1777221270887761 $269 12.770208788108368 $180 $270 forward 7 unknown #
coedge $-1 $271 $272 $109 $183 forward $263 $-1 #
edge $-1 $273 20.422295176382935 $186 23.545896030918176 $182 $274 forward 7 unknown #
edge $-1 $187 -110.54780724509413 $273 -105.87965895269045 $110 $275 forward 7 unknown #
coedge $-1 $111 $268 $271 $276 reversed $106 $-1 #
vertex $-1 $276 $277 #
vertex $-1 $112 $278 #
straight-curve $-1 55.273903622547074 15.651687584687348 78.640633101147671 0 0 -1 I I #
coedge $-1 $189 $189 $-1 $279 reversed $115 $-1 #
edge $-1 $280 0 $280 6.2831853071796004 $116 $281 forward 7 unknown #
vertex $-1 $119 $282 #
ellipse-curve $-1 53.712103195279454 18.947930915197144 2.8918692313008703 0.74314483375859142 0 0.66913059716165679 0.3345652985808284 0 -0.37157241687929571 1 I I #
face $-1 $-1 $135 $18 $-1 $283 reversed single #
loop $-1 $-1 $209 $120 #
plane-surface $-1 0 22.24417424570694 0 0 -1 0 0 0 -1 forward_v I I I I #
coedge $-1 $284 $207 $210 $285 forward $121 $-1 #
coedge $-1 $213 $123 $124 $201 reversed $75 $-1 #
coedge $-1 $207 $284 $123 $199 reversed $121 $-1 #
edge $-1 $214 -4.626424374660262 $286 4.626424374660262 $198 $287 forward 7 unknown #
coedge $-1 $125 $124 $284 $288 forward $49 $-1 #
edge $-1 $205 -55.273903622547074 $286 55.273903622547074 $197 $289 forward 7 unknown #
coedge $-1 $210 $209 $125 $203 reversed $194 $-1 #
edge $-1 $290 -55.273903622547074 $204 55.273903622547074 $202 $291 forward 7 unknown #
vertex $-1 $127 $292 #
vertex $-1 $216 $293 #
straight-curve $-1 55.273903622547074 0 -4.626424374660262 0 -1 0 I I #
coedge $-1 $196 $198 $128 $208 reversed $121 $-1 #
edge $-1 $211 -22.24417424570694 $214 22.24417424570694 $207 $294 forward 7 unknown #
coedge $-1 $202 $129 $134 $217 forward $194 $-1 #
coedge $-1 $129 $202 $196 $285 reversed $194 $-1 #
vertex $-1 $130 $295 #
straight-curve $-1 0 22.24417424570694 4.626424374660262 -1 0 0 I I #
coedge $-1 $131 $197 $133 $216 reversed $75 $-1 #
vertex $-1 $208 $296 #
straight-curve $-1 0 -22.24417424570694 4.626424374660262 1 0 0 I I #
edge $-1 $136 -4.626424374660262 $205 4.626424374660262 $133 $297 forward 7 unknown #
edge $-1 $137 -4.626424374660262 $204 4.626424374660262 $134 $298 forward 7 unknown #
point $-1 55.273903622547074 -22.24417424570694 4.626424374660262 #
point $-1 55.273903622547074 22.24417424570694 4.626424374660262 #
face $-1 $-1 $230 $19 $-1 $299 reversed single #
loop $-1 $-1 $226 $139 #
plane-surface $-1 0 0 -4.626424374660262 0 0 1 1 0 0 forward_v I I I I #
coedge $-1 $300 $301 $147 $234 forward $140 $-1 #
coedge $-1 $142 $238 $228 $302 forward $83 $-1 #
edge $-1 $232 -11.993170669587444 $152 -8.5088364826515477 $142 $303 forward 7 unknown #
coedge $-1 $304 $148 $143 $227 forward $221 $-1 #
edge $-1 $153 8.5088364826515477 $231 11.993170669587444 $226 $305 forward 7 unknown #
coedge $-1 $306 $145 $224 $302 reversed $230 $-1 #
coedge $-1 $145 $306 $304 $307 reversed $230 $-1 #
loop $-1 $-1 $145 $220 #
vertex $-1 $307 $308 #
vertex $-1 $146 $309 #
straight-curve $-1 -52.273903622547074 -22.24417424570694 0 0 0 1 I I #
edge $-1 $239 -4.626424374660262 $236 4.626424374660262 $223 $310 forward 7 unknown #
coedge $-1 $148 $304 $300 $311 forward $221 $-1 #
vertex $-1 $149 $312 #
straight-curve $-1 -26.886951811273537 -18.759840058771044 -4.626424374660262 1 0 0 I I #
coedge $-1 $224 $150 $301 $313 forward $83 $-1 #
vertex $-1 $313 $314 #
straight-curve $-1 -26.886951811273537 -18.759840058771044 4.626424374660262 -1 0 0 I I #
point $-1 -52.273903622547074 -18.759840058771044 4.626424374660262 #
point $-1 -52.273903622547074 -18.759840058771044 -4.626424374660262 #
plane-surface $-1 0 0 4.626424374660262 0 0 1 1 0 0 forward_v I I I I #
coedge $-1 $163 $315 $248 $316 forward $156 $-1 #
coedge $-1 $246 $158 $315 $317 reversed $91 $-1 #
coedge $-1 $158 $245 $249 $318 reversed $91 $-1 #
edge $-1 $250 13.394555784056848 $319 18.062704076460523 $158 $320 forward 7 unknown #
coedge $-1 $160 $159 $244 $316 reversed $57 $-1 #
coedge $-1 $166 $161 $246 $318 forward $167 $-1 #
vertex $-1 $318 $321 #
straight-curve $-1 -52.150302768011827 9.4739654575985721 4.626424374660262 0 1 0 I I #
coedge $-1 $315 $163 $166 $256 reversed $156 $-1 #
vertex $-1 $164 $322 #
straight-curve $-1 -55.273903622547074 15.651687584687348 37.56411718238153 0 0 1 I I #
straight-curve $-1 -55.273903622547067 15.651687584687348 1.1573140879414865 -0.66913059716165679 0 -0.74314483375859142 I I #
edge $-1 $323 -22.24417424570694 $168 -15.651687584687348 $252 $324 forward 7 unknown #
point $-1 -55.273903622547074 15.651687584687348 4.626424374660262 #
point $-1 -52.150302768011834 15.651687584687348 4.626424374660262 #
edge $-1 $325 1 $325 0 $171 $-1 forward 7 unknown #
vertex $-1 $172 $326 #
ellipse-curve $-1 -52.944407615876045 18.947930915197144 2.2006330440202713 -0.74314483375859142 0 0.66913059716165679 0.3345652985808284 0 0.37157241687929571 1 I I #
point $-1 -53.377537896698627 18.947930915197144 3.2634416481801694 #
loop $-1 $-1 $182 $175 #
plane-surface $-1 0 0 4.626424374660262 0 0 1 1 0 0 forward_v I I I I #
coedge $-1 $327 $328 $179 $267 forward $176 $-1 #
coedge $-1 $179 $178 $272 $329 reversed $66 $-1 #
edge $-1 $269 -73.336607699007573 $330 -68.668459406603915 $265 $331 forward 7 unknown #
coedge $-1 $185 $180 $328 $332 reversed $106 $-1 #
vertex $-1 $267 $333 #
straight-curve $-1 55.273903622547074 9.4739654575985721 1.1573140879414794 0 1 0 I I #
coedge $-1 $334 $182 $185 $276 forward $263 $-1 #
coedge $-1 $182 $334 $266 $329 forward $263 $-1 #
vertex $-1 $183 $335 #
straight-curve $-1 31.728007591628899 15.651687584687348 4.6264243746602602 1 0 0 I I #
straight-curve $-1 -18.697016654274499 15.651687584687348 83.310345925473769 -0.66913059716165679 0 0.74314483375859142 I I #
edge $-1 $186 15.651687584687348 $336 22.24417424570694 $185 $337 forward 7 unknown #
point $-1 55.273903622547074 15.651687584687348 4.626424374660262 #
point $-1 55.273903622547074 15.651687584687348 1.1573140879414723 #
edge $-1 $338 1 $338 0 $189 $-1 forward 7 unknown #
vertex $-1 $190 $339 #
ellipse-curve $-1 52.944407615876059 18.947930915197144 2.2006330440202775 0.74314483375859142 0 0.66913059716165679 0.3345652985808284 0 -0.37157241687929571 1 I I #
point $-1 54.046668493860295 18.947930915197144 2.520296814421584 #
plane-surface $-1 55.273903622547074 0 0 -1 0 0 0 0 1 forward_v I I I I #
coedge $-1 $198 $196 $200 $288 reversed $121 $-1 #
edge $-1 $211 -4.626424374660262 $290 4.626424374660262 $210 $340 forward 7 unknown #
vertex $-1 $288 $341 #
straight-curve $-1 -55.273903622547074 -22.24417424570694 0 0 0 -1 I I #
edge $-1 $286 -22.24417424570694 $290 22.24417424570694 $284 $342 forward 7 unknown #
straight-curve $-1 0 -22.24417424570694 -4.626424374660262 -1 0 0 I I #
vertex $-1 $203 $343 #
straight-curve $-1 0 22.24417424570694 -4.626424374660262 1 0 0 I I #
point $-1 55.273903622547074 22.24417424570694 -4.626424374660262 #
point $-1 55.273903622547074 -22.24417424570694 -4.626424374660262 #
straight-curve $-1 -55.273903622547074 0 4.626424374660262 0 -1 0 I I #
point $-1 -55.273903622547074 22.24417424570694 4.626424374660262 #
point $-1 -55.273903622547074 -22.24417424570694 4.626424374660262 #
straight-curve $-1 55.273903622547074 -22.24417424570694 0 0 0 -1 I I #
straight-curve $-1 55.273903622547074 22.24417424570694 0 0 0 -1 I I #
plane-surface $-1 0 -22.24417424570694 0 0 1 0 0 0 1 forward_v I I I I #
coedge $-1 $344 $223 $235 $311 reversed $140 $-1 #
coedge $-1 $223 $344 $238 $313 reversed $140 $-1 #
edge $-1 $345 -55.273903622547074 $232 -52.273903622547074 $228 $346 forward 7 unknown #
straight-curve $-1 -52.273903622547074 -10.251003576119496 4.626424374660262 0 1 0 I I #
coedge $-1 $235 $226 $229 $307 forward $221 $-1 #
straight-curve $-1 -52.273903622547074 -10.251003576119496 -4.626424374660262 0 -1 0 I I #
coedge $-1 $229 $228 $344 $347 forward $230 $-1 #
edge $-1 $231 52.273903622547074 $348 55.273903622547074 $229 $349 forward 7 unknown #
point $-1 -52.273903622547074 -22.24417424570694 -4.626424374660262 #
point $-1 -52.273903622547074 -22.24417424570694 4.626424374660262 #
straight-curve $-1 -55.273903622547074 -18.759840058771044 0 0 0 -1 I I #
edge $-1 $348 -22.24417424570694 $236 -18.759840058771044 $300 $350 forward 7 unknown #
point $-1 -55.273903622547074 -18.759840058771044 -4.626424374660262 #
edge $-1 $239 18.759840058771044 $345 22.24417424570694 $301 $351 forward 7 unknown #
point $-1 -55.273903622547074 -18.759840058771044 4.626424374660262 #
coedge $-1 $244 $252 $245 $317 forward $156 $-1 #
edge $-1 $319 -12.770208788108368 $253 -6.1777221270887761 $244 $352 forward 7 unknown #
edge $-1 $323 -4.626424374660262 $319 -1.1573140879414785 $245 $353 forward 7 unknown #
edge $-1 $250 52.150302768011834 $323 55.273903622547074 $246 $354 forward 7 unknown #
vertex $-1 $316 $355 #
straight-curve $-1 -43.187595657510748 22.24417424570694 14.580519306073366 -0.66913059716165679 0 -0.74314483375859142 I I #
point $-1 -52.150302768011834 22.24417424570694 4.626424374660262 #
point $-1 -55.273903622547074 15.651687584687348 1.1573140879414785 #
vertex $-1 $318 $356 #
straight-curve $-1 -55.273903622547074 0 4.626424374660262 0 -1 0 I I #
vertex $-1 $259 $357 #
point $-1 -52.609842317295218 18.947930915197144 2.5722054608995673 #
coedge $-1 $328 $265 $334 $358 reversed $176 $-1 #
coedge $-1 $265 $327 $268 $332 forward $176 $-1 #
edge $-1 $330 -12.770208788108368 $273 -6.1777221270887761 $272 $359 forward 7 unknown #
vertex $-1 $267 $360 #
straight-curve $-1 6.2021355190999632 22.24417424570694 55.657035224839504 -0.66913059716165679 0 0.74314483375859142 I I #
edge $-1 $336 -4.626424374660262 $269 -1.1573140879414761 $268 $361 forward 7 unknown #
point $-1 55.273903622547074 22.24417424570694 1.1573140879414761 #
coedge $-1 $272 $271 $327 $358 forward $263 $-1 #
point $-1 52.150302768011834 15.651687584687348 4.6264243746602602 #
vertex $-1 $276 $362 #
straight-curve $-1 55.273903622547074 0 4.626424374660262 0 1 0 I I #
vertex $-1 $279 $363 #
point $-1 53.278972914456894 18.947930915197144 1.8290606271409819 #
straight-curve $-1 -55.273903622547074 22.24417424570694 0 0 0 -1 I I #
point $-1 -55.273903622547074 -22.24417424570694 -4.626424374660262 #
straight-curve $-1 -55.273903622547074 0 -4.626424374660262 0 1 0 I I #
point $-1 -55.273903622547074 22.24417424570694 -4.626424374660262 #
coedge $-1 $301 $300 $306 $347 reversed $140 $-1 #
vertex $-1 $313 $364 #
straight-curve $-1 0 -22.24417424570694 4.626424374660262 1 0 0 I I #
edge $-1 $345 -4.626424374660262 $348 4.626424374660262 $344 $365 forward 7 unknown #
vertex $-1 $311 $366 #
straight-curve $-1 0 -22.24417424570694 -4.626424374660262 -1 0 0 I I #
straight-curve $-1 -55.273903622547074 0 -4.626424374660262 0 1 0 I I #
straight-curve $-1 -55.273903622547074 0 4.626424374660262 0 -1 0 I I #
straight-curve $-1 -55.273903622547074 9.4739654575985721 1.1573140879414736 0 -1 0 I I #
straight-curve $-1 -55.273903622547074 22.24417424570694 0 0 0 -1 I I #
straight-curve $-1 0 22.24417424570694 4.626424374660262 -1 0 0 I I #
point $-1 -55.273903622547074 22.24417424570694 1.1573140879414785 #
point $-1 -55.273903622547074 22.24417424570694 4.626424374660262 #
point $-1 -52.572835198996756 18.947930915197144 1.866067745439443 #
edge $-1 $336 -55.273903622547074 $330 -52.150302768011834 $327 $367 forward 7 unknown #
straight-curve $-1 52.150302768011827 9.4739654575985721 4.6264243746602673 0 -1 0 I I #
point $-1 52.150302768011834 22.24417424570694 4.6264243746602602 #
straight-curve $-1 55.273903622547074 22.24417424570694 0 0 0 -1 I I #
point $-1 55.273903622547074 22.24417424570694 4.626424374660262 #
point $-1 52.572835198996771 18.947930915197144 1.8660677454394492 #
point $-1 -55.273903622547074 -22.24417424570694 4.626424374660262 #
straight-curve $-1 -55.273903622547074 -22.24417424570694 0 0 0 -1 I I #
point $-1 -55.273903622547074 -22.24417424570694 -4.626424374660262 #
straight-curve $-1 0 22.24417424570694 4.626424374660262 -1 0 0 I I #
End-of-ACIS-data 