500 0 18 0           
7 Unknown 11 ACIS 5.0 NT 24 Thu Mar 25 15:42:50 1999 
-1 9.9999999999999995e-007 1e-010 
body $-1 $18 $-1 $19 #
body $-1 $20 $-1 $21 #
body $-1 $22 $-1 $23 #
body $-1 $24 $-1 $25 #
body $-1 $26 $-1 $27 #
body $-1 $28 $-1 $29 #
body $-1 $30 $-1 $31 #
body $-1 $32 $-1 $33 #
body $-1 $34 $-1 $35 #
body $-1 $36 $-1 $37 #
body $-1 $38 $-1 $39 #
body $-1 $40 $-1 $41 #
body $-1 $42 $-1 $43 #
body $-1 $44 $-1 $45 #
body $-1 $46 $-1 $47 #
body $-1 $48 $-1 $49 #
body $-1 $50 $-1 $51 #
body $-1 $52 $-1 $53 #
lump $-1 $-1 $54 $0 #
transform $-1 1 0 0 0 1 0 0 0 1 51.820429090243231 35.464423299749335 9.2881570308987342 1 rotate no_reflect no_shear #
lump $-1 $-1 $55 $1 #
transform $-1 1 0 0 0 1 0 0 0 1 51.820429090243231 35.464423299749335 9.2881570308987342 1 rotate no_reflect no_shear #
lump $-1 $-1 $56 $2 #
transform $-1 1 0 0 0 1 0 0 0 1 51.820429090243231 35.464423299749335 9.2881570308987342 1 rotate no_reflect no_shear #
lump $-1 $-1 $57 $3 #
transform $-1 1 0 0 0 1 0 0 0 1 51.820429090243231 35.464423299749335 9.2881570308987342 1 rotate no_reflect no_shear #
lump $-1 $-1 $58 $4 #
transform $-1 1 0 0 0 1 0 0 0 1 51.820429090243231 35.464423299749335 9.2881570308987342 1 rotate no_reflect no_shear #
lump $-1 $-1 $59 $5 #
transform $-1 1 0 0 0 1 0 0 0 1 51.820429090243231 35.464423299749335 9.2881570308987342 1 rotate no_reflect no_shear #
lump $-1 $-1 $60 $6 #
transform $-1 1 0 0 0 1 0 0 0 1 51.820429090243231 35.464423299749335 9.2881570308987342 1 rotate no_reflect no_shear #
lump $-1 $-1 $61 $7 #
transform $-1 1 0 0 0 1 0 0 0 1 51.820429090243231 35.464423299749335 9.2881570308987342 1 rotate no_reflect no_shear #
lump $-1 $-1 $62 $8 #
transform $-1 1 0 0 0 1 0 0 0 1 51.820429090243231 35.464423299749335 9.2881570308987342 1 rotate no_reflect no_shear #
lump $-1 $-1 $63 $9 #
transform $-1 1 0 0 0 1 0 0 0 1 51.820429090243231 35.464423299749335 9.2881570308987342 1 rotate no_reflect no_shear #
lump $-1 $-1 $64 $10 #
transform $-1 1 0 0 0 1 0 0 0 1 51.820429090243231 35.464423299749335 9.2881570308987342 1 rotate no_reflect no_shear #
lump $-1 $-1 $65 $11 #
transform $-1 1 0 0 0 1 0 0 0 1 51.820429090243231 35.464423299749335 9.2881570308987342 1 rotate no_reflect no_shear #
lump $-1 $-1 $66 $12 #
transform $-1 1 0 0 0 1 0 0 0 1 51.820429090243231 35.464423299749335 9.2881570308987342 1 rotate no_reflect no_shear #
lump $-1 $-1 $67 $13 #
transform $-1 1 0 0 0 1 0 0 0 1 51.820429090243231 35.464423299749335 9.2881570308987342 1 rotate no_reflect no_shear #
lump $-1 $-1 $68 $14 #
transform $-1 1 0 0 0 1 0 0 0 1 51.820429090243231 35.464423299749335 9.2881570308987342 1 rotate no_reflect no_shear #
lump $-1 $-1 $69 $15 #
transform $-1 1 0 0 0 1 0 0 0 1 51.820429090243231 35.464423299749335 9.2881570308987342 1 rotate no_reflect no_shear #
lump $-1 $-1 $70 $16 #
transform $-1 1 0 0 0 1 0 0 0 1 51.820429090243231 35.464423299749335 9.2881570308987342 1 rotate no_reflect no_shear #
lump $-1 $-1 $71 $17 #
transform $-1 1 0 0 0 1 0 0 0 1 51.820429090243231 35.464423299749335 9.2881570308987342 1 rotate no_reflect no_shear #
shell $-1 $-1 $-1 $72 $-1 $18 #
shell $-1 $-1 $-1 $73 $-1 $20 #
shell $-1 $-1 $-1 $74 $-1 $22 #
shell $-1 $-1 $-1 $75 $-1 $24 #
shell $-1 $-1 $-1 $76 $-1 $26 #
shell $-1 $-1 $-1 $77 $-1 $28 #
shell $-1 $-1 $-1 $78 $-1 $30 #
shell $-1 $-1 $-1 $79 $-1 $32 #
shell $-1 $-1 $-1 $80 $-1 $34 #
shell $-1 $-1 $-1 $81 $-1 $36 #
shell $-1 $-1 $-1 $82 $-1 $38 #
shell $-1 $-1 $-1 $83 $-1 $40 #
shell $-1 $-1 $-1 $84 $-1 $42 #
shell $-1 $-1 $-1 $85 $-1 $44 #
shell $-1 $-1 $-1 $86 $-1 $46 #
shell $-1 $-1 $-1 $87 $-1 $48 #
shell $-1 $-1 $-1 $88 $-1 $50 #
shell $-1 $-1 $-1 $89 $-1 $52 #
face $-1 $90 $91 $54 $-1 $92 forward single #
face $-1 $93 $94 $55 $-1 $95 forward single #
face $-1 $96 $97 $56 $-1 $98 reversed single #
face $-1 $99 $100 $57 $-1 $101 forward single #
face $-1 $102 $103 $58 $-1 $104 forward single #
face $-1 $105 $106 $59 $-1 $107 forward single #
face $-1 $108 $109 $60 $-1 $110 reversed single #
face $-1 $111 $112 $61 $-1 $113 forward single #
face $-1 $114 $115 $62 $-1 $116 forward single #
face $-1 $117 $118 $63 $-1 $119 forward single #
face $-1 $120 $121 $64 $-1 $122 reversed single #
face $-1 $123 $124 $65 $-1 $125 forward single #
face $-1 $126 $127 $66 $-1 $128 forward single #
face $-1 $129 $130 $67 $-1 $131 forward single #
face $-1 $132 $133 $68 $-1 $134 reversed single #
face $-1 $135 $136 $69 $-1 $137 forward single #
face $-1 $138 $139 $70 $-1 $140 forward single #
face $-1 $141 $142 $71 $-1 $143 forward single #
face $-1 $144 $145 $54 $-1 $146 reversed single #
loop $-1 $-1 $147 $72 #
plane-surface $-1 0 0 9.2881570308987342 0 0 1 1 0 0 forward_v I I I I #
face $-1 $148 $149 $55 $-1 $150 reversed single #
loop $-1 $-1 $151 $73 #
plane-surface $-1 -51.820429090243231 0 0 1 0 0 0 0 -1 forward_v I I I I #
face $-1 $152 $153 $56 $-1 $154 reversed single #
loop $-1 $-1 $155 $74 #
plane-surface $-1 -18.986158912608865 56.437472009995709 126.01068670487678 1 0 0 0 -0.69465837861970381 -0.71933979245794832 forward_v I I I I #
face $-1 $156 $157 $57 $-1 $158 forward single #
loop $-1 $159 $160 $75 #
cone-surface $-1 -15.467306717909715 30.470078499132708 4.3731727112088601 0 -0.69465837861970381 -0.71933979245794832 1 0 0 1 I I 0 1 1 forward I I I I #
face $-1 $161 $162 $58 $-1 $163 forward single #
loop $-1 $164 $165 $76 #
cone-surface $-1 -10.18902842586099 30.470078499132708 4.3731727112088601 0 -0.69465837861970381 -0.71933979245794832 1 0 0 1 I I 0 1 1 forward I I I I #
face $-1 $166 $167 $59 $-1 $168 forward single #
loop $-1 $169 $170 $77 #
cone-surface $-1 -4.9107501338122646 30.470078499132708 4.3731727112088601 0 -0.69465837861970381 -0.71933979245794832 1 0 0 1 I I 0 1 1 forward I I I I #
face $-1 $171 $172 $60 $-1 $173 reversed single #
loop $-1 $-1 $174 $78 #
plane-surface $-1 8.6503855907130287 56.437472009995709 126.01068670487678 1 0 0 0 -0.69465837861970381 -0.71933979245794832 forward_v I I I I #
face $-1 $175 $176 $61 $-1 $177 forward single #
loop $-1 $178 $179 $79 #
cone-surface $-1 12.169237785412186 30.470078499132708 4.3731727112088601 0 -0.69465837861970381 -0.71933979245794832 1 0 0 1 I I 0 1 1 forward I I I I #
face $-1 $180 $181 $62 $-1 $182 forward single #
loop $-1 $183 $184 $80 #
cone-surface $-1 17.447516077460911 30.470078499132708 4.3731727112088601 0 -0.69465837861970381 -0.71933979245794832 1 0 0 1 I I 0 1 1 forward I I I I #
face $-1 $185 $186 $63 $-1 $187 forward single #
loop $-1 $188 $189 $81 #
cone-surface $-1 22.725794369509636 30.470078499132708 4.3731727112088601 0 -0.69465837861970381 -0.71933979245794832 1 0 0 1 I I 0 1 1 forward I I I I #
face $-1 $190 $191 $64 $-1 $192 reversed single #
loop $-1 $-1 $193 $82 #
plane-surface $-1 -1.3918979391131288 -107.45941380216073 76.739369128703331 -1 0 0 0 -0.69465837861970381 0.71933979245794832 forward_v I I I I #
face $-1 $194 $195 $65 $-1 $196 forward single #
loop $-1 $197 $198 $83 #
cone-surface $-1 -15.467306717909715 -30.470078499132708 4.3731727112088601 0 0.69465837861970381 -0.71933979245794832 1 0 0 1 I I 0 1 1 forward I I I I #
face $-1 $199 $200 $66 $-1 $201 forward single #
loop $-1 $202 $203 $84 #
cone-surface $-1 -10.18902842586099 -30.470078499132708 4.3731727112088601 0 0.69465837861970381 -0.71933979245794832 1 0 0 1 I I 0 1 1 forward I I I I #
face $-1 $204 $205 $67 $-1 $206 forward single #
loop $-1 $207 $208 $85 #
cone-surface $-1 -4.9107501338122646 -30.470078499132708 4.3731727112088601 0 0.69465837861970381 -0.71933979245794832 1 0 0 1 I I 0 1 1 forward I I I I #
face $-1 $209 $210 $68 $-1 $211 reversed single #
loop $-1 $-1 $212 $86 #
plane-surface $-1 26.244646564208765 -107.45941380216073 76.739369128703331 -1 0 0 0 -0.69465837861970381 0.71933979245794832 forward_v I I I I #
face $-1 $213 $214 $69 $-1 $215 forward single #
loop $-1 $216 $217 $87 #
cone-surface $-1 12.169237785412186 -30.470078499132708 4.3731727112088601 0 0.69465837861970381 -0.71933979245794832 1 0 0 1 I I 0 1 1 forward I I I I #
face $-1 $218 $219 $70 $-1 $220 forward single #
loop $-1 $221 $222 $88 #
cone-surface $-1 17.447516077460911 -30.470078499132708 4.3731727112088601 0 0.69465837861970381 -0.71933979245794832 1 0 0 1 I I 0 1 1 forward I I I I #
face $-1 $223 $224 $71 $-1 $225 forward single #
loop $-1 $226 $227 $89 #
cone-surface $-1 22.725794369509636 -30.470078499132708 4.3731727112088601 0 0.69465837861970381 -0.71933979245794832 1 0 0 1 I I 0 1 1 forward I I I I #
face $-1 $228 $229 $54 $-1 $230 reversed single #
loop $-1 $-1 $231 $90 #
plane-surface $-1 0 0 -9.2881570308987342 0 0 1 1 0 0 forward_v I I I I #
coedge $-1 $232 $233 $234 $235 forward $91 $-1 #
face $-1 $236 $237 $55 $-1 $238 forward single #
loop $-1 $-1 $239 $93 #
plane-surface $-1 0 35.464423299749335 0 0 -1 0 0 0 -1 forward_v I I I I #
coedge $-1 $240 $241 $242 $243 forward $94 $-1 #
face $-1 $244 $245 $56 $-1 $246 reversed single #
loop $-1 $-1 $247 $96 #
plane-surface $-1 -10.189028425860997 -15.557518492415689 51.457693291161988 0 0.69465837861970381 0.71933979245794832 1 0 0 forward_v I I I I #
coedge $-1 $248 $249 $250 $251 reversed $97 $-1 #
face $-1 $-1 $252 $57 $-1 $253 forward single #
loop $-1 $254 $255 $99 #
cone-surface $-1 -15.467306717909715 28.805459342993323 2.6494091532451129 0 -0.69465837861970381 -0.71933979245794832 0.5 0 0 1 I I -0.70710678118654746 0.70710678118654746 0.5 forward I I I I #
loop $-1 $-1 $256 $75 #
coedge $-1 $160 $160 $257 $258 reversed $100 $-1 #
face $-1 $-1 $259 $58 $-1 $260 forward single #
loop $-1 $261 $262 $102 #
cone-surface $-1 -10.18902842586099 28.805459342993323 2.6494091532451129 0 -0.69465837861970381 -0.71933979245794832 0.5 0 0 1 I I -0.70710678118654746 0.70710678118654746 0.5 forward I I I I #
loop $-1 $-1 $263 $76 #
coedge $-1 $165 $165 $264 $265 reversed $103 $-1 #
face $-1 $-1 $266 $59 $-1 $267 forward single #
loop $-1 $268 $269 $105 #
cone-surface $-1 -4.9107501338122646 28.805459342993323 2.6494091532451129 0 -0.69465837861970381 -0.71933979245794832 0.5 0 0 1 I I -0.70710678118654746 0.70710678118654746 0.5 forward I I I I #
loop $-1 $-1 $270 $77 #
coedge $-1 $170 $170 $271 $272 reversed $106 $-1 #
face $-1 $273 $274 $60 $-1 $275 reversed single #
loop $-1 $-1 $276 $108 #
plane-surface $-1 17.447516077460897 -15.557518492415689 51.457693291161988 0 0.69465837861970381 0.71933979245794832 1 0 0 forward_v I I I I #
coedge $-1 $277 $278 $279 $280 reversed $109 $-1 #
face $-1 $-1 $281 $61 $-1 $282 forward single #
loop $-1 $283 $284 $111 #
cone-surface $-1 12.169237785412186 28.805459342993323 2.6494091532451129 0 -0.69465837861970381 -0.71933979245794832 0.5 0 0 1 I I -0.70710678118654746 0.70710678118654746 0.5 forward I I I I #
loop $-1 $-1 $285 $79 #
coedge $-1 $179 $179 $286 $287 reversed $112 $-1 #
face $-1 $-1 $288 $62 $-1 $289 forward single #
loop $-1 $290 $291 $114 #
cone-surface $-1 17.447516077460911 28.805459342993323 2.6494091532451129 0 -0.69465837861970381 -0.71933979245794832 0.5 0 0 1 I I -0.70710678118654746 0.70710678118654746 0.5 forward I I I I #
loop $-1 $-1 $292 $80 #
coedge $-1 $184 $184 $293 $294 reversed $115 $-1 #
face $-1 $-1 $295 $63 $-1 $296 forward single #
loop $-1 $297 $298 $117 #
cone-surface $-1 22.725794369509636 28.805459342993323 2.6494091532451129 0 -0.69465837861970381 -0.71933979245794832 0.5 0 0 1 I I -0.70710678118654746 0.70710678118654746 0.5 forward I I I I #
loop $-1 $-1 $299 $81 #
coedge $-1 $189 $189 $300 $301 reversed $118 $-1 #
face $-1 $302 $303 $64 $-1 $304 reversed single #
loop $-1 $-1 $305 $120 #
plane-surface $-1 -10.189028425860997 -35.464423299749328 2.186375714988543 0 -0.69465837861970381 0.71933979245794832 1 0 0 forward_v I I I I #
coedge $-1 $306 $307 $308 $309 reversed $121 $-1 #
face $-1 $-1 $310 $65 $-1 $311 forward single #
loop $-1 $312 $313 $123 #
cone-surface $-1 -15.467306717909715 -28.805459342993323 2.6494091532451129 0 0.69465837861970381 -0.71933979245794832 0.5 0 0 1 I I -0.70710678118654746 0.70710678118654746 0.5 forward I I I I #
loop $-1 $-1 $314 $83 #
coedge $-1 $198 $198 $315 $316 reversed $124 $-1 #
face $-1 $-1 $317 $66 $-1 $318 forward single #
loop $-1 $319 $320 $126 #
cone-surface $-1 -10.18902842586099 -28.805459342993323 2.6494091532451129 0 0.69465837861970381 -0.71933979245794832 0.5 0 0 1 I I -0.70710678118654746 0.70710678118654746 0.5 forward I I I I #
loop $-1 $-1 $321 $84 #
coedge $-1 $203 $203 $322 $323 reversed $127 $-1 #
face $-1 $-1 $324 $67 $-1 $325 forward single #
loop $-1 $326 $327 $129 #
cone-surface $-1 -4.9107501338122646 -28.805459342993323 2.6494091532451129 0 0.69465837861970381 -0.71933979245794832 0.5 0 0 1 I I -0.70710678118654746 0.70710678118654746 0.5 forward I I I I #
loop $-1 $-1 $328 $85 #
coedge $-1 $208 $208 $329 $330 reversed $130 $-1 #
face $-1 $331 $332 $68 $-1 $333 reversed single #
loop $-1 $-1 $334 $132 #
plane-surface $-1 17.447516077460897 -35.464423299749328 2.186375714988543 0 -0.69465837861970381 0.71933979245794832 1 0 0 forward_v I I I I #
coedge $-1 $335 $336 $337 $338 reversed $133 $-1 #
face $-1 $-1 $339 $69 $-1 $340 forward single #
loop $-1 $341 $342 $135 #
cone-surface $-1 12.169237785412186 -28.805459342993323 2.6494091532451129 0 0.69465837861970381 -0.71933979245794832 0.5 0 0 1 I I -0.70710678118654746 0.70710678118654746 0.5 forward I I I I #
loop $-1 $-1 $343 $87 #
coedge $-1 $217 $217 $344 $345 reversed $136 $-1 #
face $-1 $-1 $346 $70 $-1 $347 forward single #
loop $-1 $348 $349 $138 #
cone-surface $-1 17.447516077460911 -28.805459342993323 2.6494091532451129 0 0.69465837861970381 -0.71933979245794832 0.5 0 0 1 I I -0.70710678118654746 0.70710678118654746 0.5 forward I I I I #
loop $-1 $-1 $350 $88 #
coedge $-1 $222 $222 $351 $352 reversed $139 $-1 #
face $-1 $-1 $353 $71 $-1 $354 forward single #
loop $-1 $355 $356 $141 #
cone-surface $-1 22.725794369509636 -28.805459342993323 2.6494091532451129 0 0.69465837861970381 -0.71933979245794832 0.5 0 0 1 I I -0.70710678118654746 0.70710678118654746 0.5 forward I I I I #
loop $-1 $-1 $357 $89 #
coedge $-1 $227 $227 $358 $359 reversed $142 $-1 #
face $-1 $360 $361 $54 $-1 $362 reversed single #
loop $-1 $-1 $363 $144 #
plane-surface $-1 0 -35.464423299749335 0 0 1 0 0 0 1 forward_v I I I I #
coedge $-1 $364 $365 $366 $367 forward $145 $-1 #
coedge $-1 $368 $147 $369 $370 forward $91 $-1 #
coedge $-1 $147 $368 $371 $372 forward $91 $-1 #
coedge $-1 $373 $374 $147 $235 reversed $375 $-1 #
edge $-1 $376 -35.464423299749335 $377 35.464423299749335 $234 $378 forward 7 unknown #
face $-1 $379 $380 $55 $-1 $381 reversed single #
loop $-1 $-1 $242 $148 #
plane-surface $-1 -55.449672916043184 0 -4.4463893609174754 0 0 1 1 0 0 forward_v I I I I #
coedge $-1 $382 $383 $241 $384 forward $149 $-1 #
coedge $-1 $385 $151 $386 $387 reversed $94 $-1 #
coedge $-1 $151 $385 $239 $384 reversed $94 $-1 #
coedge $-1 $388 $389 $151 $243 reversed $237 $-1 #
edge $-1 $390 -35.464423299749335 $391 35.464423299749335 $242 $392 forward 7 unknown #
face $-1 $393 $394 $56 $-1 $395 forward single #
loop $-1 $-1 $396 $152 #
plane-surface $-1 -1.3918979391131288 56.437472009995709 126.01068670487678 -1 0 0 0 0.69465837861970381 0.71933979245794832 forward_v I I I I #
coedge $-1 $397 $398 $399 $400 reversed $153 $-1 #
coedge $-1 $249 $155 $401 $402 reversed $97 $-1 #
coedge $-1 $155 $248 $397 $403 reversed $97 $-1 #
coedge $-1 $399 $404 $155 $251 forward $394 $-1 #
edge $-1 $405 -7.2456872947514803 $406 0.10842237282269096 $250 $407 forward 7 unknown #
loop $-1 $-1 $257 $156 #
plane-surface $-1 -10.189028425860997 -15.557518492415689 51.457693291161988 0 0.69465837861970381 0.71933979245794832 1 0 0 forward_v I I I I #
loop $-1 $-1 $408 $99 #
coedge $-1 $255 $255 $256 $409 reversed $157 $-1 #
coedge $-1 $256 $256 $255 $409 forward $159 $-1 #
coedge $-1 $257 $257 $160 $258 forward $252 $-1 #
edge $-1 $410 9.7090317224199819e-016 $410 6.2831853071796013 $257 $411 forward 7 unknown #
loop $-1 $-1 $264 $161 #
plane-surface $-1 -10.189028425860997 -15.557518492415689 51.457693291161988 0 0.69465837861970381 0.71933979245794832 1 0 0 forward_v I I I I #
loop $-1 $-1 $412 $102 #
coedge $-1 $262 $262 $263 $413 reversed $162 $-1 #
coedge $-1 $263 $263 $262 $413 forward $164 $-1 #
coedge $-1 $264 $264 $165 $265 forward $259 $-1 #
edge $-1 $414 9.7090317224199819e-016 $414 6.2831853071796013 $264 $415 forward 7 unknown #
loop $-1 $-1 $271 $166 #
plane-surface $-1 -10.189028425860997 -15.557518492415689 51.457693291161988 0 0.69465837861970381 0.71933979245794832 1 0 0 forward_v I I I I #
loop $-1 $-1 $416 $105 #
coedge $-1 $269 $269 $270 $417 reversed $167 $-1 #
coedge $-1 $270 $270 $269 $417 forward $169 $-1 #
coedge $-1 $271 $271 $170 $272 forward $266 $-1 #
edge $-1 $418 9.7090317224199819e-016 $418 6.2831853071796013 $271 $419 forward 7 unknown #
face $-1 $420 $421 $60 $-1 $422 forward single #
loop $-1 $-1 $423 $171 #
plane-surface $-1 26.244646564208765 56.437472009995709 126.01068670487678 -1 0 0 0 0.69465837861970381 0.71933979245794832 forward_v I I I I #
coedge $-1 $424 $425 $426 $427 reversed $172 $-1 #
coedge $-1 $278 $174 $428 $429 reversed $109 $-1 #
coedge $-1 $174 $277 $424 $430 reversed $109 $-1 #
coedge $-1 $426 $431 $174 $280 forward $421 $-1 #
edge $-1 $432 -7.2456872947514803 $433 0.10842237282269096 $279 $434 forward 7 unknown #
loop $-1 $-1 $286 $175 #
plane-surface $-1 17.447516077460897 -15.557518492415689 51.457693291161988 0 0.69465837861970381 0.71933979245794832 1 0 0 forward_v I I I I #
loop $-1 $-1 $435 $111 #
coedge $-1 $284 $284 $285 $436 reversed $176 $-1 #
coedge $-1 $285 $285 $284 $436 forward $178 $-1 #
coedge $-1 $286 $286 $179 $287 forward $281 $-1 #
edge $-1 $437 9.7090317224199819e-016 $437 6.2831853071796013 $286 $438 forward 7 unknown #
loop $-1 $-1 $293 $180 #
plane-surface $-1 17.447516077460897 -15.557518492415689 51.457693291161988 0 0.69465837861970381 0.71933979245794832 1 0 0 forward_v I I I I #
loop $-1 $-1 $439 $114 #
coedge $-1 $291 $291 $292 $440 reversed $181 $-1 #
coedge $-1 $292 $292 $291 $440 forward $183 $-1 #
coedge $-1 $293 $293 $184 $294 forward $288 $-1 #
edge $-1 $441 9.7090317224199819e-016 $441 6.2831853071796013 $293 $442 forward 7 unknown #
loop $-1 $-1 $300 $185 #
plane-surface $-1 17.447516077460897 -15.557518492415689 51.457693291161988 0 0.69465837861970381 0.71933979245794832 1 0 0 forward_v I I I I #
loop $-1 $-1 $443 $117 #
coedge $-1 $298 $298 $299 $444 reversed $186 $-1 #
coedge $-1 $299 $299 $298 $444 forward $188 $-1 #
coedge $-1 $300 $300 $189 $301 forward $295 $-1 #
edge $-1 $445 9.7090317224199819e-016 $445 6.2831853071796013 $300 $446 forward 7 unknown #
face $-1 $447 $448 $64 $-1 $449 reversed single #
loop $-1 $-1 $450 $190 #
plane-surface $-1 -18.986158912608865 -107.45941380216073 76.739369128703331 1 0 0 0 0.69465837861970381 -0.71933979245794832 forward_v I I I I #
coedge $-1 $451 $452 $453 $454 reversed $191 $-1 #
coedge $-1 $307 $193 $455 $456 reversed $121 $-1 #
coedge $-1 $193 $306 $451 $457 reversed $121 $-1 #
coedge $-1 $453 $458 $193 $309 forward $459 $-1 #
edge $-1 $460 18.265283601331028 $461 25.61939326890522 $308 $462 forward 7 unknown #
loop $-1 $-1 $315 $194 #
plane-surface $-1 -10.189028425860997 -35.464423299749328 2.186375714988543 0 -0.69465837861970381 0.71933979245794832 1 0 0 forward_v I I I I #
loop $-1 $-1 $463 $123 #
coedge $-1 $313 $313 $314 $464 reversed $195 $-1 #
coedge $-1 $314 $314 $313 $464 forward $197 $-1 #
coedge $-1 $315 $315 $198 $316 forward $310 $-1 #
edge $-1 $465 -6.1698058095389979e-016 $465 6.2831853071795996 $315 $466 forward 7 unknown #
loop $-1 $-1 $322 $199 #
plane-surface $-1 -10.189028425860997 -35.464423299749328 2.186375714988543 0 -0.69465837861970381 0.71933979245794832 1 0 0 forward_v I I I I #
loop $-1 $-1 $467 $126 #
coedge $-1 $320 $320 $321 $468 reversed $200 $-1 #
coedge $-1 $321 $321 $320 $468 forward $202 $-1 #
coedge $-1 $322 $322 $203 $323 forward $317 $-1 #
edge $-1 $469 -6.1698058095389979e-016 $469 6.2831853071795996 $322 $470 forward 7 unknown #
loop $-1 $-1 $329 $204 #
plane-surface $-1 -10.189028425860997 -35.464423299749328 2.186375714988543 0 -0.69465837861970381 0.71933979245794832 1 0 0 forward_v I I I I #
loop $-1 $-1 $471 $129 #
coedge $-1 $327 $327 $328 $472 reversed $205 $-1 #
coedge $-1 $328 $328 $327 $472 forward $207 $-1 #
coedge $-1 $329 $329 $208 $330 forward $324 $-1 #
edge $-1 $473 -6.1698058095389979e-016 $473 6.2831853071795996 $329 $474 forward 7 unknown #
face $-1 $475 $476 $68 $-1 $477 reversed single #
loop $-1 $-1 $478 $209 #
plane-surface $-1 8.6503855907130287 -107.45941380216073 76.739369128703331 1 0 0 0 0.69465837861970381 -0.71933979245794832 forward_v I I I I #
coedge $-1 $479 $480 $481 $482 reversed $210 $-1 #
coedge $-1 $336 $212 $483 $484 reversed $133 $-1 #
coedge $-1 $212 $335 $479 $485 reversed $133 $-1 #
coedge $-1 $481 $486 $212 $338 forward $487 $-1 #
edge $-1 $488 18.265283601331028 $489 25.61939326890522 $337 $490 forward 7 unknown #
loop $-1 $-1 $344 $213 #
plane-surface $-1 17.447516077460897 -35.464423299749328 2.186375714988543 0 -0.69465837861970381 0.71933979245794832 1 0 0 forward_v I I I I #
loop $-1 $-1 $491 $135 #
coedge $-1 $342 $342 $343 $492 reversed $214 $-1 #
coedge $-1 $343 $343 $342 $492 forward $216 $-1 #
coedge $-1 $344 $344 $217 $345 forward $339 $-1 #
edge $-1 $493 -6.1698058095389979e-016 $493 6.2831853071795996 $344 $494 forward 7 unknown #
loop $-1 $-1 $351 $218 #
plane-surface $-1 17.447516077460897 -35.464423299749328 2.186375714988543 0 -0.69465837861970381 0.71933979245794832 1 0 0 forward_v I I I I #
loop $-1 $-1 $495 $138 #
coedge $-1 $349 $349 $350 $496 reversed $219 $-1 #
coedge $-1 $350 $350 $349 $496 forward $221 $-1 #
coedge $-1 $351 $351 $222 $352 forward $346 $-1 #
edge $-1 $497 -6.1698058095389979e-016 $497 6.2831853071795996 $351 $498 forward 7 unknown #
loop $-1 $-1 $358 $223 #
plane-surface $-1 17.447516077460897 -35.464423299749328 2.186375714988543 0 -0.69465837861970381 0.71933979245794832 1 0 0 forward_v I I I I #
loop $-1 $-1 $499 $141 #
coedge $-1 $356 $356 $357 $500 reversed $224 $-1 #
coedge $-1 $357 $357 $356 $500 forward $226 $-1 #
coedge $-1 $358 $358 $227 $359 forward $353 $-1 #
edge $-1 $501 -6.1698058095389979e-016 $501 6.2831853071795996 $358 $502 forward 7 unknown #
face $-1 $503 $504 $54 $-1 $505 reversed single #
loop $-1 $-1 $506 $228 #
plane-surface $-1 -51.820429090243231 0 0 1 0 0 0 0 -1 forward_v I I I I #
coedge $-1 $507 $371 $506 $508 forward $229 $-1 #
coedge $-1 $509 $231 $507 $510 forward $145 $-1 #
coedge $-1 $231 $509 $511 $512 forward $145 $-1 #
coedge $-1 $374 $373 $231 $367 reversed $375 $-1 #
edge $-1 $513 -35.464423299749335 $514 35.464423299749335 $366 $515 forward 7 unknown #
coedge $-1 $233 $232 $516 $517 forward $91 $-1 #
coedge $-1 $518 $519 $232 $370 reversed $504 $-1 #
edge $-1 $377 -51.820429090243231 $520 51.820429090243231 $369 $521 forward 7 unknown #
coedge $-1 $363 $522 $233 $372 reversed $229 $-1 #
edge $-1 $523 -51.820429090243231 $376 51.820429090243231 $371 $524 forward 7 unknown #
coedge $-1 $366 $234 $522 $525 forward $375 $-1 #
coedge $-1 $234 $366 $518 $526 reversed $375 $-1 #
loop $-1 $-1 $373 $503 #
vertex $-1 $235 $527 #
vertex $-1 $235 $528 #
straight-curve $-1 51.820429090243231 0 9.2881570308987342 0 1 0 I I #
face $-1 $529 $530 $55 $-1 $531 reversed single #
loop $-1 $-1 $532 $236 #
plane-surface $-1 -55.449672916043184 0 -8.7881570308987342 0 0 1 1 0 0 forward_v I I I I #
coedge $-1 $533 $239 $534 $535 reversed $149 $-1 #
coedge $-1 $239 $533 $388 $536 reversed $149 $-1 #
edge $-1 $390 4.4463893609174754 $537 8.7881570308987342 $239 $538 forward 7 unknown #
coedge $-1 $241 $240 $532 $539 forward $94 $-1 #
coedge $-1 $540 $541 $240 $387 forward $542 $-1 #
edge $-1 $543 -8.7881570308987342 $391 -4.4463893609174754 $386 $544 forward 7 unknown #
coedge $-1 $545 $242 $383 $536 forward $237 $-1 #
coedge $-1 $242 $545 $540 $546 forward $237 $-1 #
vertex $-1 $384 $547 #
vertex $-1 $546 $548 #
straight-curve $-1 -51.820429090243231 0 -4.4463893609174754 0 -1 0 I I #
face $-1 $-1 $549 $56 $-1 $550 reversed single #
loop $-1 $-1 $250 $244 #
plane-surface $-1 0 0 9.2881570308987342 0 0 1 1 0 0 forward_v I I I I #
coedge $-1 $551 $552 $553 $554 reversed $245 $-1 #
coedge $-1 $555 $247 $249 $403 forward $153 $-1 #
coedge $-1 $247 $555 $551 $556 forward $153 $-1 #
coedge $-1 $553 $250 $247 $400 forward $394 $-1 #
edge $-1 $406 -13.891644699678366 $557 3.7026162738173696 $399 $558 forward 7 unknown #
coedge $-1 $559 $560 $248 $402 forward $549 $-1 #
edge $-1 $561 -60.818967637449838 $405 -53.717186321539657 $401 $562 forward 7 unknown #
edge $-1 $406 60.705430983290995 $561 70.928846599498655 $249 $563 forward 7 unknown #
coedge $-1 $250 $553 $559 $564 forward $394 $-1 #
vertex $-1 $402 $565 #
vertex $-1 $251 $566 #
straight-curve $-1 -18.986158912608865 28.218736004997854 9.2881570308987307 0 -1 0 I I #
coedge $-1 $408 $408 $-1 $567 reversed $254 $-1 #
edge $-1 $568 0 $568 6.2831853071796004 $255 $569 forward 7 unknown #
vertex $-1 $258 $570 #
ellipse-curve $-1 -15.467306717909715 31.787368465962249 5.7372663729436457 0 0.69465837861970381 0.71933979245794832 1 0 0 1 I I #
coedge $-1 $412 $412 $-1 $571 reversed $261 $-1 #
edge $-1 $572 0 $572 6.2831853071796004 $262 $573 forward 7 unknown #
vertex $-1 $265 $574 #
ellipse-curve $-1 -10.18902842586099 31.787368465962249 5.7372663729436457 0 0.69465837861970381 0.71933979245794832 1 0 0 1 I I #
coedge $-1 $416 $416 $-1 $575 reversed $268 $-1 #
edge $-1 $576 0 $576 6.2831853071796004 $269 $577 forward 7 unknown #
vertex $-1 $272 $578 #
ellipse-curve $-1 -4.9107501338122646 31.787368465962249 5.7372663729436457 0 0.69465837861970381 0.71933979245794832 1 0 0 1 I I #
face $-1 $-1 $579 $60 $-1 $580 reversed single #
loop $-1 $-1 $279 $273 #
plane-surface $-1 0 0 9.2881570308987342 0 0 1 1 0 0 forward_v I I I I #
coedge $-1 $581 $582 $583 $584 reversed $274 $-1 #
coedge $-1 $585 $276 $278 $430 forward $172 $-1 #
coedge $-1 $276 $585 $581 $586 forward $172 $-1 #
coedge $-1 $583 $279 $276 $427 forward $421 $-1 #
edge $-1 $433 -0.0733724480174196 $587 17.520888525478316 $426 $588 forward 7 unknown #
coedge $-1 $589 $590 $277 $429 forward $579 $-1 #
edge $-1 $591 -60.818967637449838 $432 -53.717186321539657 $428 $592 forward 7 unknown #
edge $-1 $433 60.705430983290995 $591 70.928846599498655 $278 $593 forward 7 unknown #
coedge $-1 $279 $583 $589 $594 forward $421 $-1 #
vertex $-1 $280 $595 #
vertex $-1 $280 $596 #
straight-curve $-1 8.6503855907130287 28.218736004997854 9.2881570308987307 0 -1 0 I I #
coedge $-1 $435 $435 $-1 $597 reversed $283 $-1 #
edge $-1 $598 0 $598 6.2831853071796004 $284 $599 forward 7 unknown #
vertex $-1 $287 $600 #
ellipse-curve $-1 12.169237785412186 31.787368465962249 5.7372663729436457 0 0.69465837861970381 0.71933979245794832 1 0 0 1 I I #
coedge $-1 $439 $439 $-1 $601 reversed $290 $-1 #
edge $-1 $602 0 $602 6.2831853071796004 $291 $603 forward 7 unknown #
vertex $-1 $294 $604 #
ellipse-curve $-1 17.447516077460911 31.787368465962249 5.7372663729436457 0 0.69465837861970381 0.71933979245794832 1 0 0 1 I I #
coedge $-1 $443 $443 $-1 $605 reversed $297 $-1 #
edge $-1 $606 0 $606 6.2831853071796004 $298 $607 forward 7 unknown #
vertex $-1 $301 $608 #
ellipse-curve $-1 22.725794369509636 31.787368465962249 5.7372663729436457 0 0.69465837861970381 0.71933979245794832 1 0 0 1 I I #
face $-1 $-1 $459 $64 $-1 $609 forward single #
loop $-1 $-1 $610 $302 #
plane-surface $-1 0 -35.464423299749335 0 0 1 0 0 0 1 forward_v I I I I #
coedge $-1 $611 $612 $613 $614 reversed $303 $-1 #
coedge $-1 $615 $305 $307 $457 forward $191 $-1 #
coedge $-1 $305 $615 $611 $616 forward $191 $-1 #
coedge $-1 $613 $308 $305 $454 forward $459 $-1 #
edge $-1 $461 -3.7026162738173696 $617 13.891644699678366 $453 $618 forward 7 unknown #
coedge $-1 $619 $620 $306 $456 forward $448 $-1 #
edge $-1 $621 -36.183308849363129 $460 -29.081527533452931 $455 $622 forward 7 unknown #
edge $-1 $461 -10.223415616207685 $621 9.7385709978959816e-015 $307 $623 forward 7 unknown #
coedge $-1 $308 $613 $619 $624 forward $459 $-1 #
loop $-1 $-1 $613 $447 #
vertex $-1 $456 $625 #
vertex $-1 $309 $626 #
straight-curve $-1 -1.3918979391131288 -53.729706901080363 9.2881570308987378 0 1 0 I I #
coedge $-1 $463 $463 $-1 $627 reversed $312 $-1 #
edge $-1 $628 0 $628 6.2831853071796004 $313 $629 forward 7 unknown #
vertex $-1 $316 $630 #
ellipse-curve $-1 -15.467306717909715 -31.787368465962238 5.7372663729436342 0 -0.69465837861970381 0.71933979245794832 1 0 0 1 I I #
coedge $-1 $467 $467 $-1 $631 reversed $319 $-1 #
edge $-1 $632 0 $632 6.2831853071796004 $320 $633 forward 7 unknown #
vertex $-1 $323 $634 #
ellipse-curve $-1 -10.18902842586099 -31.787368465962238 5.7372663729436342 0 -0.69465837861970381 0.71933979245794832 1 0 0 1 I I #
coedge $-1 $471 $471 $-1 $635 reversed $326 $-1 #
edge $-1 $636 0 $636 6.2831853071796004 $327 $637 forward 7 unknown #
vertex $-1 $330 $638 #
ellipse-curve $-1 -4.9107501338122646 -31.787368465962238 5.7372663729436342 0 -0.69465837861970381 0.71933979245794832 1 0 0 1 I I #
face $-1 $-1 $487 $68 $-1 $639 forward single #
loop $-1 $-1 $640 $331 #
plane-surface $-1 0 -35.464423299749335 0 0 1 0 0 0 1 forward_v I I I I #
coedge $-1 $641 $642 $643 $644 reversed $332 $-1 #
coedge $-1 $645 $334 $336 $485 forward $210 $-1 #
coedge $-1 $334 $645 $641 $646 forward $210 $-1 #
coedge $-1 $643 $337 $334 $482 forward $487 $-1 #
edge $-1 $489 -17.520888525478316 $647 0.0733724480174196 $481 $648 forward 7 unknown #
coedge $-1 $649 $650 $335 $484 forward $476 $-1 #
edge $-1 $651 -36.183308849363129 $488 -29.081527533452931 $483 $652 forward 7 unknown #
edge $-1 $489 -10.223415616207685 $651 9.7385709978959816e-015 $336 $653 forward 7 unknown #
coedge $-1 $337 $643 $649 $654 forward $487 $-1 #
loop $-1 $-1 $643 $475 #
vertex $-1 $484 $655 #
vertex $-1 $338 $656 #
straight-curve $-1 26.244646564208765 -53.729706901080363 9.2881570308987378 0 1 0 I I #
coedge $-1 $491 $491 $-1 $657 reversed $341 $-1 #
edge $-1 $658 0 $658 6.2831853071796004 $342 $659 forward 7 unknown #
vertex $-1 $345 $660 #
ellipse-curve $-1 12.169237785412186 -31.787368465962238 5.7372663729436342 0 -0.69465837861970381 0.71933979245794832 1 0 0 1 I I #
coedge $-1 $495 $495 $-1 $661 reversed $348 $-1 #
edge $-1 $662 0 $662 6.2831853071796004 $349 $663 forward 7 unknown #
vertex $-1 $352 $664 #
ellipse-curve $-1 17.447516077460911 -31.787368465962238 5.7372663729436342 0 -0.69465837861970381 0.71933979245794832 1 0 0 1 I I #
coedge $-1 $499 $499 $-1 $665 reversed $355 $-1 #
edge $-1 $666 0 $666 6.2831853071796004 $356 $667 forward 7 unknown #
vertex $-1 $359 $668 #
ellipse-curve $-1 22.725794369509636 -31.787368465962238 5.7372663729436342 0 -0.69465837861970381 0.71933979245794832 1 0 0 1 I I #
face $-1 $-1 $375 $54 $-1 $669 reversed single #
loop $-1 $-1 $518 $360 #
plane-surface $-1 0 35.464423299749335 0 0 -1 0 0 0 -1 forward_v I I I I #
coedge $-1 $516 $670 $363 $508 reversed $361 $-1 #
coedge $-1 $522 $363 $364 $510 reversed $229 $-1 #
edge $-1 $523 -9.2881570308987342 $671 9.2881570308987342 $506 $672 forward 7 unknown #
coedge $-1 $365 $364 $670 $673 forward $145 $-1 #
edge $-1 $514 -51.820429090243231 $671 51.820429090243231 $507 $674 forward 7 unknown #
coedge $-1 $519 $518 $365 $512 reversed $504 $-1 #
edge $-1 $675 -51.820429090243231 $513 51.820429090243231 $511 $676 forward 7 unknown #
vertex $-1 $367 $677 #
vertex $-1 $525 $678 #
straight-curve $-1 51.820429090243231 0 -9.2881570308987342 0 -1 0 I I #
coedge $-1 $679 $506 $368 $517 reversed $361 $-1 #
edge $-1 $520 -35.464423299749335 $523 35.464423299749335 $516 $680 forward 7 unknown #
coedge $-1 $511 $369 $374 $526 forward $504 $-1 #
coedge $-1 $369 $511 $679 $681 reversed $504 $-1 #
vertex $-1 $370 $682 #
straight-curve $-1 0 35.464423299749335 9.2881570308987342 -1 0 0 I I #
coedge $-1 $371 $507 $373 $525 reversed $229 $-1 #
vertex $-1 $517 $683 #
straight-curve $-1 0 -35.464423299749335 9.2881570308987342 1 0 0 I I #
edge $-1 $376 -9.2881570308987342 $514 9.2881570308987342 $373 $684 forward 7 unknown #
edge $-1 $377 -9.2881570308987342 $513 9.2881570308987342 $374 $685 forward 7 unknown #
point $-1 51.820429090243231 -35.464423299749335 9.2881570308987342 #
point $-1 51.820429090243231 35.464423299749335 9.2881570308987342 #
face $-1 $-1 $542 $55 $-1 $686 reversed single #
loop $-1 $-1 $687 $379 #
plane-surface $-1 -59.078916741843138 0 -6.6172731959081048 1 0 0 0 0 -1 forward_v I I I I #
coedge $-1 $688 $534 $385 $539 reversed $380 $-1 #
coedge $-1 $383 $382 $687 $689 reversed $149 $-1 #
coedge $-1 $532 $690 $382 $535 forward $380 $-1 #
edge $-1 $691 -3.6292438257999535 $537 3.6292438257999535 $382 $692 forward 7 unknown #
edge $-1 $390 -3.6292438257999535 $693 3.6292438257999535 $383 $694 forward 7 unknown #
vertex $-1 $384 $695 #
straight-curve $-1 -51.820429090243231 35.464423299749335 0 0 0 -1 I I #
edge $-1 $543 -35.464423299749335 $537 35.464423299749335 $532 $696 forward 7 unknown #
coedge $-1 $697 $386 $389 $546 reversed $542 $-1 #
coedge $-1 $386 $697 $688 $698 reversed $542 $-1 #
loop $-1 $-1 $386 $529 #
vertex $-1 $387 $699 #
straight-curve $-1 -51.820429090243231 -35.464423299749335 0 0 0 1 I I #
coedge $-1 $389 $388 $700 $701 forward $237 $-1 #
edge $-1 $702 -3.6292438257999535 $391 3.6292438257999535 $540 $703 forward 7 unknown #
point $-1 -51.820429090243231 35.464423299749335 -4.4463893609174754 #
point $-1 -51.820429090243231 -35.464423299749335 -4.4463893609174754 #
loop $-1 $-1 $401 $393 #
plane-surface $-1 0 35.464423299749335 0 0 -1 0 0 0 -1 forward_v I I I I #
coedge $-1 $552 $396 $398 $556 reversed $245 $-1 #
coedge $-1 $396 $551 $704 $705 reversed $245 $-1 #
coedge $-1 $404 $399 $396 $554 forward $394 $-1 #
edge $-1 $557 -0.10842237282269096 $706 7.2456872947514803 $553 $707 forward 7 unknown #
coedge $-1 $398 $397 $560 $708 reversed $153 $-1 #
edge $-1 $709 -70.928846599498655 $557 -60.705430983290995 $551 $710 forward 7 unknown #
vertex $-1 $400 $711 #
straight-curve $-1 -5.0945142129304983 28.110313632175156 9.2881570308987307 1 0 0 I I #
coedge $-1 $704 $401 $404 $564 reversed $549 $-1 #
coedge $-1 $401 $704 $555 $708 forward $549 $-1 #
vertex $-1 $402 $712 #
straight-curve $-1 -18.986158912608865 35.464423299749335 63.005343352438388 0 0 1 I I #
straight-curve $-1 -18.986158912608865 -15.557518492415689 51.457693291161988 0 0.71933979245794832 -0.69465837861970381 I I #
edge $-1 $706 1.3918979391131288 $405 18.986158912608865 $559 $713 forward 7 unknown #
point $-1 -18.986158912608865 35.464423299749335 9.2881570308987342 #
point $-1 -18.986158912608865 28.110313632175163 9.2881570308987307 #
edge $-1 $714 1 $714 0 $408 $-1 forward 7 unknown #
vertex $-1 $409 $715 #
ellipse-curve $-1 -15.467306717909715 29.152788532303177 3.0090790494740869 0 0.69465837861970381 0.71933979245794832 1 0 0 1 I I #
point $-1 -14.467306717909715 31.787368465962238 5.7372663729436333 #
edge $-1 $716 1 $716 0 $412 $-1 forward 7 unknown #
vertex $-1 $413 $717 #
ellipse-curve $-1 -10.18902842586099 29.152788532303177 3.0090790494740869 0 0.69465837861970381 0.71933979245794832 1 0 0 1 I I #
point $-1 -9.1890284258609896 31.787368465962238 5.7372663729436333 #
edge $-1 $718 1 $718 0 $416 $-1 forward 7 unknown #
vertex $-1 $417 $719 #
ellipse-curve $-1 -4.9107501338122646 29.152788532303177 3.0090790494740869 0 0.69465837861970381 0.71933979245794832 1 0 0 1 I I #
point $-1 -3.9107501338122646 31.787368465962238 5.7372663729436333 #
loop $-1 $-1 $428 $420 #
plane-surface $-1 0 35.464423299749335 0 0 -1 0 0 0 -1 forward_v I I I I #
coedge $-1 $582 $423 $425 $586 reversed $274 $-1 #
coedge $-1 $423 $581 $720 $721 reversed $274 $-1 #
coedge $-1 $431 $426 $423 $584 forward $421 $-1 #
edge $-1 $587 -0.10842237282269096 $722 7.2456872947514803 $583 $723 forward 7 unknown #
coedge $-1 $425 $424 $590 $724 reversed $172 $-1 #
edge $-1 $725 -70.928846599498655 $587 -60.705430983290995 $581 $726 forward 7 unknown #
vertex $-1 $427 $727 #
straight-curve $-1 8.7237580387304483 28.110313632175156 9.2881570308987307 1 0 0 I I #
coedge $-1 $720 $428 $431 $594 reversed $579 $-1 #
coedge $-1 $428 $720 $585 $724 forward $579 $-1 #
vertex $-1 $429 $728 #
straight-curve $-1 8.6503855907130287 35.464423299749335 63.005343352438388 0 0 1 I I #
straight-curve $-1 8.6503855907130287 -15.557518492415689 51.457693291161988 0 0.71933979245794832 -0.69465837861970381 I I #
edge $-1 $722 -26.244646564208765 $432 -8.6503855907130287 $589 $729 forward 7 unknown #
point $-1 8.6503855907130287 35.464423299749335 9.2881570308987342 #
point $-1 8.6503855907130287 28.110313632175163 9.2881570308987307 #
edge $-1 $730 1 $730 0 $435 $-1 forward 7 unknown #
vertex $-1 $436 $731 #
ellipse-curve $-1 12.169237785412186 29.152788532303177 3.0090790494740869 0 0.69465837861970381 0.71933979245794832 1 0 0 1 I I #
point $-1 13.169237785412186 31.787368465962238 5.7372663729436333 #
edge $-1 $732 1 $732 0 $439 $-1 forward 7 unknown #
vertex $-1 $440 $733 #
ellipse-curve $-1 17.447516077460911 29.152788532303177 3.0090790494740869 0 0.69465837861970381 0.71933979245794832 1 0 0 1 I I #
point $-1 18.447516077460911 31.787368465962238 5.7372663729436333 #
edge $-1 $734 1 $734 0 $443 $-1 forward 7 unknown #
vertex $-1 $444 $735 #
ellipse-curve $-1 22.725794369509636 29.152788532303177 3.0090790494740869 0 0.69465837861970381 0.71933979245794832 1 0 0 1 I I #
point $-1 23.725794369509636 31.787368465962238 5.7372663729436333 #
plane-surface $-1 0 0 9.2881570308987342 0 0 1 1 0 0 forward_v I I I I #
coedge $-1 $620 $619 $612 $736 forward $448 $-1 #
coedge $-1 $612 $450 $452 $616 reversed $303 $-1 #
coedge $-1 $450 $611 $610 $736 reversed $303 $-1 #
coedge $-1 $458 $453 $450 $614 forward $459 $-1 #
edge $-1 $617 -25.61939326890522 $737 -18.265283601331028 $613 $738 forward 7 unknown #
coedge $-1 $452 $451 $620 $739 reversed $191 $-1 #
edge $-1 $740 -9.7385709978959816e-015 $617 10.223415616207685 $611 $741 forward 7 unknown #
vertex $-1 $454 $742 #
straight-curve $-1 -5.0945142129304983 -28.110313632175142 9.2881570308987342 -1 0 0 I I #
coedge $-1 $610 $455 $458 $624 reversed $448 $-1 #
coedge $-1 $455 $610 $615 $739 forward $448 $-1 #
vertex $-1 $456 $743 #
straight-curve $-1 -1.3918979391131288 -35.464423299749335 38.369684564351665 0 0 1 I I #
straight-curve $-1 -1.3918979391131288 -35.464423299749328 2.186375714988543 0 -0.71933979245794832 -0.69465837861970381 I I #
edge $-1 $737 -18.986158912608865 $460 -1.3918979391131288 $619 $744 forward 7 unknown #
point $-1 -1.3918979391131288 -35.464423299749335 9.2881570308987342 #
point $-1 -1.3918979391131288 -28.110313632175142 9.2881570308987342 #
edge $-1 $745 1 $745 0 $463 $-1 forward 7 unknown #
vertex $-1 $464 $746 #
ellipse-curve $-1 -15.467306717909715 -29.152788532303177 3.0090790494740869 0 -0.69465837861970381 0.71933979245794832 1 0 0 1 I I #
point $-1 -14.467306717909715 -31.787368465962238 5.7372663729436333 #
edge $-1 $747 1 $747 0 $467 $-1 forward 7 unknown #
vertex $-1 $468 $748 #
ellipse-curve $-1 -10.18902842586099 -29.152788532303177 3.0090790494740869 0 -0.69465837861970381 0.71933979245794832 1 0 0 1 I I #
point $-1 -9.1890284258609896 -31.787368465962238 5.7372663729436333 #
edge $-1 $749 1 $749 0 $471 $-1 forward 7 unknown #
vertex $-1 $472 $750 #
ellipse-curve $-1 -4.9107501338122646 -29.152788532303177 3.0090790494740869 0 -0.69465837861970381 0.71933979245794832 1 0 0 1 I I #
point $-1 -3.9107501338122646 -31.787368465962238 5.7372663729436333 #
plane-surface $-1 0 0 9.2881570308987342 0 0 1 1 0 0 forward_v I I I I #
coedge $-1 $650 $649 $642 $751 forward $476 $-1 #
coedge $-1 $642 $478 $480 $646 reversed $332 $-1 #
coedge $-1 $478 $641 $640 $751 reversed $332 $-1 #
coedge $-1 $486 $481 $478 $644 forward $487 $-1 #
edge $-1 $647 -25.61939326890522 $752 -18.265283601331028 $643 $753 forward 7 unknown #
coedge $-1 $480 $479 $650 $754 reversed $210 $-1 #
edge $-1 $755 -9.7385709978959816e-015 $647 10.223415616207685 $641 $756 forward 7 unknown #
vertex $-1 $482 $757 #
straight-curve $-1 8.7237580387304483 -28.110313632175142 9.2881570308987342 -1 0 0 I I #
coedge $-1 $640 $483 $486 $654 reversed $476 $-1 #
coedge $-1 $483 $640 $645 $754 forward $476 $-1 #
vertex $-1 $484 $758 #
straight-curve $-1 26.244646564208765 -35.464423299749335 38.369684564351665 0 0 1 I I #
straight-curve $-1 26.244646564208765 -35.464423299749328 2.186375714988543 0 -0.71933979245794832 -0.69465837861970381 I I #
edge $-1 $752 8.6503855907130287 $488 26.244646564208765 $649 $759 forward 7 unknown #
point $-1 26.244646564208765 -35.464423299749335 9.2881570308987342 #
point $-1 26.244646564208765 -28.110313632175142 9.2881570308987342 #
edge $-1 $760 1 $760 0 $491 $-1 forward 7 unknown #
vertex $-1 $492 $761 #
ellipse-curve $-1 12.169237785412186 -29.152788532303177 3.0090790494740869 0 -0.69465837861970381 0.71933979245794832 1 0 0 1 I I #
point $-1 13.169237785412186 -31.787368465962238 5.7372663729436333 #
edge $-1 $762 1 $762 0 $495 $-1 forward 7 unknown #
vertex $-1 $496 $763 #
ellipse-curve $-1 17.447516077460911 -29.152788532303177 3.0090790494740869 0 -0.69465837861970381 0.71933979245794832 1 0 0 1 I I #
point $-1 18.447516077460911 -31.787368465962238 5.7372663729436333 #
edge $-1 $764 1 $764 0 $499 $-1 forward 7 unknown #
vertex $-1 $500 $765 #
ellipse-curve $-1 22.725794369509636 -29.152788532303177 3.0090790494740869 0 -0.69465837861970381 0.71933979245794832 1 0 0 1 I I #
point $-1 23.725794369509636 -31.787368465962238 5.7372663729436333 #
plane-surface $-1 51.820429090243231 0 0 -1 0 0 0 0 1 forward_v I I I I #
coedge $-1 $506 $679 $509 $673 reversed $361 $-1 #
vertex $-1 $673 $766 #
straight-curve $-1 -51.820429090243231 -35.464423299749335 0 0 0 -1 I I #
edge $-1 $671 -35.464423299749335 $675 35.464423299749335 $670 $767 forward 7 unknown #
straight-curve $-1 0 -35.464423299749335 -9.2881570308987342 -1 0 0 I I #
vertex $-1 $512 $768 #
straight-curve $-1 0 35.464423299749335 -9.2881570308987342 1 0 0 I I #
point $-1 51.820429090243231 35.464423299749335 -9.2881570308987342 #
point $-1 51.820429090243231 -35.464423299749335 -9.2881570308987342 #
coedge $-1 $670 $516 $519 $681 forward $361 $-1 #
straight-curve $-1 -51.820429090243231 0 9.2881570308987342 0 -1 0 I I #
edge $-1 $520 -9.2881570308987342 $675 9.2881570308987342 $519 $769 forward 7 unknown #
point $-1 -51.820429090243231 35.464423299749335 9.2881570308987342 #
point $-1 -51.820429090243231 -35.464423299749335 9.2881570308987342 #
straight-curve $-1 51.820429090243231 -35.464423299749335 0 0 0 -1 I I #
straight-curve $-1 51.820429090243231 35.464423299749335 0 0 0 -1 I I #
plane-surface $-1 0 -35.464423299749335 0 0 1 0 0 0 1 forward_v I I I I #
coedge $-1 $770 $700 $533 $689 forward $530 $-1 #
coedge $-1 $690 $532 $541 $698 forward $380 $-1 #
edge $-1 $693 -2.1708838349906294 $691 2.1708838349906294 $533 $771 forward 7 unknown #
coedge $-1 $534 $688 $770 $772 forward $380 $-1 #
vertex $-1 $535 $773 #
straight-curve $-1 -55.449672916043184 35.464423299749335 -8.7881570308987342 1 0 0 I I #
vertex $-1 $536 $774 #
straight-curve $-1 -55.449672916043184 35.464423299749335 -4.4463893609174754 -1 0 0 I I #
point $-1 -51.820429090243231 35.464423299749335 -8.7881570308987342 #
straight-curve $-1 -51.820429090243231 0 -8.7881570308987342 0 1 0 I I #
coedge $-1 $541 $540 $775 $776 forward $542 $-1 #
edge $-1 $543 -3.6292438257999535 $777 3.6292438257999535 $541 $778 forward 7 unknown #
point $-1 -51.820429090243231 -35.464423299749335 -8.7881570308987342 #
coedge $-1 $687 $775 $545 $701 reversed $530 $-1 #
edge $-1 $693 -35.464423299749335 $702 35.464423299749335 $700 $779 forward 7 unknown #
vertex $-1 $701 $780 #
straight-curve $-1 -55.449672916043184 -35.464423299749335 -4.4463893609174754 1 0 0 I I #
coedge $-1 $560 $559 $552 $705 forward $549 $-1 #
edge $-1 $706 53.717186321539657 $709 60.818967637449838 $704 $781 forward 7 unknown #
vertex $-1 $564 $782 #
straight-curve $-1 -1.3918979391131288 28.218736004997854 9.2881570308987307 0 1 0 I I #
edge $-1 $709 -3.7026162738173696 $561 13.891644699678366 $560 $783 forward 7 unknown #
vertex $-1 $708 $784 #
straight-curve $-1 -1.3918979391131288 -15.557518492415689 51.457693291161988 0 -0.71933979245794832 0.69465837861970381 I I #
point $-1 -1.3918979391131288 28.110313632175163 9.2881570308987307 #
point $-1 -18.986158912608865 35.464423299749335 2.1863757149885501 #
straight-curve $-1 0 35.464423299749335 9.2881570308987342 -1 0 0 I I #
vertex $-1 $567 $785 #
point $-1 -14.467306717909715 29.152788532303177 3.0090790494740869 #
vertex $-1 $571 $786 #
point $-1 -9.1890284258609896 29.152788532303177 3.0090790494740869 #
vertex $-1 $575 $787 #
point $-1 -3.9107501338122646 29.152788532303177 3.0090790494740869 #
coedge $-1 $590 $589 $582 $721 forward $579 $-1 #
edge $-1 $722 53.717186321539657 $725 60.818967637449838 $720 $788 forward 7 unknown #
vertex $-1 $594 $789 #
straight-curve $-1 26.244646564208765 28.218736004997854 9.2881570308987307 0 1 0 I I #
edge $-1 $725 -17.520888525478316 $591 0.0733724480174196 $590 $790 forward 7 unknown #
vertex $-1 $724 $791 #
straight-curve $-1 26.244646564208765 -15.557518492415689 51.457693291161988 0 -0.71933979245794832 0.69465837861970381 I I #
point $-1 26.244646564208765 28.110313632175163 9.2881570308987307 #
point $-1 8.6503855907130287 35.464423299749335 2.1863757149885501 #
straight-curve $-1 0 35.464423299749335 9.2881570308987342 -1 0 0 I I #
vertex $-1 $597 $792 #
point $-1 13.169237785412186 29.152788532303177 3.0090790494740869 #
vertex $-1 $601 $793 #
point $-1 18.447516077460911 29.152788532303177 3.0090790494740869 #
vertex $-1 $605 $794 #
point $-1 23.725794369509636 29.152788532303177 3.0090790494740869 #
edge $-1 $737 29.081527533452931 $740 36.183308849363129 $610 $795 forward 7 unknown #
vertex $-1 $624 $796 #
straight-curve $-1 -18.986158912608865 -53.729706901080363 9.2881570308987378 0 -1 0 I I #
edge $-1 $740 -13.891644699678366 $621 3.7026162738173696 $620 $797 forward 7 unknown #
vertex $-1 $739 $798 #
straight-curve $-1 -18.986158912608865 -35.464423299749328 2.186375714988543 0 0.71933979245794832 0.69465837861970381 I I #
point $-1 -18.986158912608865 -28.110313632175142 9.2881570308987342 #
point $-1 -1.3918979391131288 -35.464423299749335 2.1863757149885363 #
straight-curve $-1 0 -35.464423299749335 9.2881570308987342 1 0 0 I I #
vertex $-1 $627 $799 #
point $-1 -14.467306717909715 -29.152788532303177 3.0090790494740869 #
vertex $-1 $631 $800 #
point $-1 -9.1890284258609896 -29.152788532303177 3.0090790494740869 #
vertex $-1 $635 $801 #
point $-1 -3.9107501338122646 -29.152788532303177 3.0090790494740869 #
edge $-1 $752 29.081527533452931 $755 36.183308849363129 $640 $802 forward 7 unknown #
vertex $-1 $654 $803 #
straight-curve $-1 8.6503855907130287 -53.729706901080363 9.2881570308987378 0 -1 0 I I #
edge $-1 $755 -0.0733724480174196 $651 17.520888525478316 $650 $804 forward 7 unknown #
vertex $-1 $754 $805 #
straight-curve $-1 8.6503855907130287 -35.464423299749328 2.186375714988543 0 0.71933979245794832 0.69465837861970381 I I #
point $-1 8.6503855907130287 -28.110313632175142 9.2881570308987342 #
point $-1 26.244646564208765 -35.464423299749335 2.1863757149885363 #
straight-curve $-1 0 -35.464423299749335 9.2881570308987342 1 0 0 I I #
vertex $-1 $657 $806 #
point $-1 13.169237785412186 -29.152788532303177 3.0090790494740869 #
vertex $-1 $661 $807 #
point $-1 18.447516077460911 -29.152788532303177 3.0090790494740869 #
vertex $-1 $665 $808 #
point $-1 23.725794369509636 -29.152788532303177 3.0090790494740869 #
point $-1 -51.820429090243231 -35.464423299749335 -9.2881570308987342 #
straight-curve $-1 -51.820429090243231 0 -9.2881570308987342 0 1 0 I I #
point $-1 -51.820429090243231 35.464423299749335 -9.2881570308987342 #
straight-curve $-1 -51.820429090243231 35.464423299749335 0 0 0 -1 I I #
coedge $-1 $775 $687 $690 $772 reversed $530 $-1 #
straight-curve $-1 -59.078916741843138 35.464423299749335 -6.6172731959081048 0 0 -1 I I #
edge $-1 $777 -35.464423299749335 $691 35.464423299749335 $770 $809 forward 7 unknown #
point $-1 -59.078916741843138 35.464423299749335 -8.7881570308987342 #
point $-1 -59.078916741843138 35.464423299749335 -4.4463893609174754 #
coedge $-1 $700 $770 $697 $776 reversed $530 $-1 #
edge $-1 $702 -2.1708838349906294 $777 2.1708838349906294 $775 $810 forward 7 unknown #
vertex $-1 $772 $811 #
straight-curve $-1 -55.449672916043184 -35.464423299749335 -8.7881570308987342 -1 0 0 I I #
straight-curve $-1 -59.078916741843138 0 -4.4463893609174754 0 -1 0 I I #
point $-1 -59.078916741843138 -35.464423299749335 -4.4463893609174754 #
straight-curve $-1 -1.3918979391131288 35.464423299749335 63.005343352438388 0 0 -1 I I #
point $-1 -1.3918979391131288 35.464423299749335 9.2881570308987342 #
straight-curve $-1 -5.0945142129304983 35.464423299749335 2.1863757149885501 -1 0 0 I I #
point $-1 -1.3918979391131288 35.464423299749335 2.1863757149885501 #
point $-1 -15.467306717909715 28.45813015368347 2.289739257016139 #
point $-1 -10.18902842586099 28.45813015368347 2.289739257016139 #
point $-1 -4.9107501338122646 28.45813015368347 2.289739257016139 #
straight-curve $-1 26.244646564208765 35.464423299749335 63.005343352438388 0 0 -1 I I #
point $-1 26.244646564208765 35.464423299749335 9.2881570308987342 #
straight-curve $-1 8.7237580387304483 35.464423299749335 2.1863757149885501 -1 0 0 I I #
point $-1 26.244646564208765 35.464423299749335 2.1863757149885501 #
point $-1 12.169237785412186 28.45813015368347 2.289739257016139 #
point $-1 17.447516077460911 28.45813015368347 2.289739257016139 #
point $-1 22.725794369509636 28.45813015368347 2.289739257016139 #
straight-curve $-1 -18.986158912608865 -35.464423299749335 38.369684564351665 0 0 -1 I I #
point $-1 -18.986158912608865 -35.464423299749335 9.2881570308987342 #
straight-curve $-1 -5.0945142129304983 -35.464423299749335 2.1863757149885332 1 0 0 I I #
point $-1 -18.986158912608865 -35.464423299749335 2.1863757149885363 #
point $-1 -15.467306717909715 -28.45813015368347 2.289739257016139 #
point $-1 -10.18902842586099 -28.45813015368347 2.289739257016139 #
point $-1 -4.9107501338122646 -28.45813015368347 2.289739257016139 #
straight-curve $-1 8.6503855907130287 -35.464423299749335 38.369684564351665 0 0 -1 I I #
point $-1 8.6503855907130287 -35.464423299749335 9.2881570308987342 #
straight-curve $-1 8.7237580387304483 -35.464423299749335 2.1863757149885332 1 0 0 I I #
point $-1 8.6503855907130287 -35.464423299749335 2.1863757149885363 #
point $-1 12.169237785412186 -28.45813015368347 2.289739257016139 #
point $-1 17.447516077460911 -28.45813015368347 2.289739257016139 #
point $-1 22.725794369509636 -28.45813015368347 2.289739257016139 #
straight-curve $-1 -59.078916741843138 0 -8.7881570308987342 0 1 0 I I #
straight-curve $-1 -59.078916741843138 -35.464423299749335 -6.6172731959081048 0 0 -1 I I #
point $-1 -59.078916741843138 -35.464423299749335 -8.7881570308987342 #
End-of-ACIS-data 