500 0 14 0           
7 Unknown 11 ACIS 5.0 NT 24 Thu Mar 25 16:59:32 1999 
-1 9.9999999999999995e-007 1e-010 
body $-1 $14 $-1 $15 #
body $-1 $16 $-1 $17 #
body $-1 $18 $-1 $19 #
body $-1 $20 $-1 $21 #
body $-1 $22 $-1 $23 #
body $-1 $24 $-1 $25 #
body $-1 $26 $-1 $27 #
body $-1 $28 $-1 $29 #
body $-1 $30 $-1 $31 #
body $-1 $32 $-1 $33 #
body $-1 $34 $-1 $35 #
body $-1 $36 $-1 $37 #
body $-1 $38 $-1 $39 #
body $-1 $40 $-1 $41 #
lump $-1 $-1 $42 $0 #
transform $-1 1 0 0 0 1 0 0 0 1 67.390972624897003 41.293655484646735 9.7823380637233139 1 rotate no_reflect no_shear #
lump $-1 $-1 $43 $1 #
transform $-1 1 0 0 0 1 0 0 0 1 67.390972624897003 41.293655484646735 9.7823380637233139 1 rotate no_reflect no_shear #
lump $-1 $-1 $44 $2 #
transform $-1 1 0 0 0 1 0 0 0 1 67.390972624897003 41.293655484646735 9.7823380637233139 1 rotate no_reflect no_shear #
lump $-1 $-1 $45 $3 #
transform $-1 1 0 0 0 1 0 0 0 1 67.390972624897003 41.293655484646735 9.7823380637233139 1 rotate no_reflect no_shear #
lump $-1 $-1 $46 $4 #
transform $-1 1 0 0 0 1 0 0 0 1 67.390972624897003 41.293655484646735 9.7823380637233139 1 rotate no_reflect no_shear #
lump $-1 $-1 $47 $5 #
transform $-1 1 0 0 0 1 0 0 0 1 67.390972624897003 41.293655484646735 9.7823380637233139 1 rotate no_reflect no_shear #
lump $-1 $-1 $48 $6 #
transform $-1 1 0 0 0 1 0 0 0 1 67.390972624897003 41.293655484646735 9.7823380637233139 1 rotate no_reflect no_shear #
lump $-1 $-1 $49 $7 #
transform $-1 1 0 0 0 1 0 0 0 1 67.390972624897003 41.293655484646735 9.7823380637233139 1 rotate no_reflect no_shear #
lump $-1 $-1 $50 $8 #
transform $-1 1 0 0 0 1 0 0 0 1 67.390972624897003 41.293655484646735 9.7823380637233139 1 rotate no_reflect no_shear #
lump $-1 $-1 $51 $9 #
transform $-1 1 0 0 0 1 0 0 0 1 67.390972624897003 41.293655484646735 9.7823380637233139 1 rotate no_reflect no_shear #
lump $-1 $-1 $52 $10 #
transform $-1 1 0 0 0 1 0 0 0 1 67.390972624897003 41.293655484646735 9.7823380637233139 1 rotate no_reflect no_shear #
lump $-1 $-1 $53 $11 #
transform $-1 1 0 0 0 1 0 0 0 1 67.390972624897003 41.293655484646735 9.7823380637233139 1 rotate no_reflect no_shear #
lump $-1 $-1 $54 $12 #
transform $-1 1 0 0 0 1 0 0 0 1 67.390972624897003 41.293655484646735 9.7823380637233139 1 rotate no_reflect no_shear #
lump $-1 $-1 $55 $13 #
transform $-1 1 0 0 0 1 0 0 0 1 67.390972624897003 41.293655484646735 9.7823380637233139 1 rotate no_reflect no_shear #
shell $-1 $-1 $-1 $56 $-1 $14 #
shell $-1 $-1 $-1 $57 $-1 $16 #
shell $-1 $-1 $-1 $58 $-1 $18 #
shell $-1 $-1 $-1 $59 $-1 $20 #
shell $-1 $-1 $-1 $60 $-1 $22 #
shell $-1 $-1 $-1 $61 $-1 $24 #
shell $-1 $-1 $-1 $62 $-1 $26 #
shell $-1 $-1 $-1 $63 $-1 $28 #
shell $-1 $-1 $-1 $64 $-1 $30 #
shell $-1 $-1 $-1 $65 $-1 $32 #
shell $-1 $-1 $-1 $66 $-1 $34 #
shell $-1 $-1 $-1 $67 $-1 $36 #
shell $-1 $-1 $-1 $68 $-1 $38 #
shell $-1 $-1 $-1 $69 $-1 $40 #
face $-1 $70 $71 $42 $-1 $72 forward single #
face $-1 $73 $74 $43 $-1 $75 forward single #
face $-1 $76 $77 $44 $-1 $78 reversed single #
face $-1 $79 $80 $45 $-1 $81 forward single #
face $-1 $82 $83 $46 $-1 $84 forward single #
face $-1 $85 $86 $47 $-1 $87 forward single #
face $-1 $88 $89 $48 $-1 $90 reversed single #
face $-1 $91 $92 $49 $-1 $93 forward single #
face $-1 $94 $95 $50 $-1 $96 forward single #
face $-1 $97 $98 $51 $-1 $99 forward single #
face $-1 $100 $101 $52 $-1 $102 reversed single #
face $-1 $103 $104 $53 $-1 $105 forward single #
face $-1 $106 $107 $54 $-1 $108 forward single #
face $-1 $109 $110 $55 $-1 $111 forward single #
face $-1 $112 $113 $42 $-1 $114 reversed single #
loop $-1 $-1 $115 $56 #
plane-surface $-1 0 0 9.7823380637233139 0 0 1 1 0 0 forward_v I I I I #
face $-1 $116 $117 $43 $-1 $118 forward single #
loop $-1 $-1 $119 $57 #
plane-surface $-1 0 -41.293655484646735 0 0 1 0 0 0 1 forward_v I I I I #
face $-1 $120 $121 $44 $-1 $122 reversed single #
loop $-1 $-1 $123 $58 #
plane-surface $-1 31.020784850690731 -15.937736401284104 193.11143691188241 0 -1 0 -0.55919291073839883 0 -0.82903756765294845 forward_v I I I I #
face $-1 $124 $125 $45 $-1 $126 forward single #
loop $-1 $127 $128 $59 #
cone-surface $-1 64.309850822816486 -22.417449725597745 7.4781665376574367 -0.55919291073839883 0 -0.82903756765294845 0.41451878382647422 0 -0.27959645536919941 1 I I 0 1 0.5 forward I I I I #
face $-1 $129 $130 $46 $-1 $131 forward single #
loop $-1 $132 $133 $60 #
cone-surface $-1 64.309850822816486 -19.98755722898013 7.4781665376574367 -0.55919291073839883 0 -0.82903756765294845 0.41451878382647422 0 -0.27959645536919941 1 I I 0 1 0.5 forward I I I I #
face $-1 $134 $135 $47 $-1 $136 forward single #
loop $-1 $137 $138 $61 #
cone-surface $-1 64.309850822816486 -17.557664732362515 7.4781665376574367 -0.55919291073839883 0 -0.82903756765294845 0.41451878382647422 0 -0.27959645536919941 1 I I 0 1 0.5 forward I I I I #
face $-1 $139 $140 $48 $-1 $141 reversed single #
loop $-1 $-1 $142 $62 #
plane-surface $-1 -155.81588582624539 -22.348761239466832 101.72163836001896 0 1 0 -0.6560590369687036 0 0.75470957328743171 forward_v I I I I #
face $-1 $143 $144 $49 $-1 $145 forward single #
loop $-1 $146 $147 $63 #
cone-surface $-1 -61.223876937001386 -20.553095934527324 4.2693861096786661 0.6560590369687036 0 -0.75470957328743171 0.37735478664371586 0 0.3280295184843518 1 I I 0 1 0.5 forward I I I I #
face $-1 $148 $149 $50 $-1 $150 forward single #
loop $-1 $151 $152 $64 #
cone-surface $-1 -61.223876937001386 -17.859597977118057 4.2693861096786661 0.6560590369687036 0 -0.75470957328743171 0.37735478664371586 0 0.3280295184843518 1 I I 0 1 0.5 forward I I I I #
face $-1 $153 $154 $51 $-1 $155 forward single #
loop $-1 $156 $157 $65 #
cone-surface $-1 -61.223876937001386 -15.166100019708789 4.2693861096786661 0.6560590369687036 0 -0.75470957328743171 0.37735478664371586 0 0.3280295184843518 1 I I 0 1 0.5 forward I I I I #
face $-1 $158 $159 $52 $-1 $160 reversed single #
loop $-1 $-1 $161 $66 #
plane-surface $-1 -155.81588582624539 25.302857064348849 101.72163836001896 0 1 0 -0.6560590369687036 0 0.75470957328743171 forward_v I I I I #
face $-1 $162 $163 $53 $-1 $164 forward single #
loop $-1 $165 $166 $67 #
cone-surface $-1 -61.223876937001386 27.098522369288361 4.2693861096786661 0.6560590369687036 0 -0.75470957328743171 0.37735478664371586 0 0.3280295184843518 1 I I 0 1 0.5 forward I I I I #
face $-1 $167 $168 $54 $-1 $169 forward single #
loop $-1 $170 $171 $68 #
cone-surface $-1 -61.223876937001386 29.792020326697624 4.2693861096786661 0.6560590369687036 0 -0.75470957328743171 0.37735478664371586 0 0.3280295184843518 1 I I 0 1 0.5 forward I I I I #
face $-1 $172 $173 $55 $-1 $174 forward single #
loop $-1 $175 $176 $69 #
cone-surface $-1 -61.223876937001386 32.485518284106888 4.2693861096786661 0.6560590369687036 0 -0.75470957328743171 0.37735478664371586 0 0.3280295184843518 1 I I 0 1 0.5 forward I I I I #
face $-1 $177 $178 $42 $-1 $179 reversed single #
loop $-1 $-1 $180 $70 #
plane-surface $-1 0 0 -9.7823380637233139 0 0 1 1 0 0 forward_v I I I I #
coedge $-1 $181 $182 $183 $184 forward $71 $-1 #
face $-1 $185 $186 $43 $-1 $187 reversed single #
loop $-1 $-1 $188 $73 #
plane-surface $-1 0 0 9.7823380637233139 0 0 1 1 0 0 forward_v I I I I #
coedge $-1 $189 $190 $191 $192 forward $74 $-1 #
face $-1 $193 $194 $44 $-1 $195 reversed single #
loop $-1 $-1 $196 $76 #
plane-surface $-1 -44.348323428525092 -19.98755722898013 81.372140858460313 0.55919291073839883 0 0.82903756765294845 0.82903756765294845 0 -0.55919291073839883 forward_v I I I I #
coedge $-1 $197 $198 $199 $200 reversed $77 $-1 #
face $-1 $-1 $201 $45 $-1 $202 forward single #
loop $-1 $203 $204 $79 #
cone-surface $-1 63.890456139762691 -22.417449725597745 6.856388361917725 -0.55919291073839883 0 -0.82903756765294845 0.20725939191323711 0 -0.13979822768459971 1 I I -0.70710678118654746 0.70710678118654746 0.25 forward I I I I #
loop $-1 $-1 $205 $59 #
coedge $-1 $128 $128 $206 $207 reversed $80 $-1 #
face $-1 $-1 $208 $46 $-1 $209 forward single #
loop $-1 $210 $211 $82 #
cone-surface $-1 63.890456139762691 -19.98755722898013 6.856388361917725 -0.55919291073839883 0 -0.82903756765294845 0.20725939191323711 0 -0.13979822768459971 1 I I -0.70710678118654746 0.70710678118654746 0.25 forward I I I I #
loop $-1 $-1 $212 $60 #
coedge $-1 $133 $133 $213 $214 reversed $83 $-1 #
face $-1 $-1 $215 $47 $-1 $216 forward single #
loop $-1 $217 $218 $85 #
cone-surface $-1 63.890456139762691 -17.557664732362515 6.856388361917725 -0.55919291073839883 0 -0.82903756765294845 0.20725939191323711 0 -0.13979822768459971 1 I I -0.70710678118654746 0.70710678118654746 0.25 forward I I I I #
loop $-1 $-1 $219 $61 #
coedge $-1 $138 $138 $220 $221 reversed $86 $-1 #
face $-1 $222 $223 $48 $-1 $224 reversed single #
loop $-1 $-1 $225 $88 #
plane-surface $-1 -67.390972624897003 -17.859597977118057 0.0004139736969364094 -0.6560590369687036 0 0.75470957328743171 0.75470957328743171 0 0.6560590369687036 forward_v I I I I #
coedge $-1 $226 $227 $228 $229 reversed $89 $-1 #
face $-1 $-1 $230 $49 $-1 $231 forward single #
loop $-1 $232 $233 $91 #
cone-surface $-1 -60.519174587238851 -20.553095934527324 3.4587188073253508 0.6560590369687036 0 -0.75470957328743171 0.18867739332185793 0 0.1640147592421759 1 I I -0.70710678118654691 0.70710678118654813 0.25 forward I I I I #
loop $-1 $-1 $234 $63 #
coedge $-1 $147 $147 $235 $236 reversed $92 $-1 #
face $-1 $-1 $237 $50 $-1 $238 forward single #
loop $-1 $239 $240 $94 #
cone-surface $-1 -60.519174587238851 -17.859597977118057 3.4587188073253508 0.6560590369687036 0 -0.75470957328743171 0.18867739332185793 0 0.1640147592421759 1 I I -0.70710678118654691 0.70710678118654813 0.25 forward I I I I #
loop $-1 $-1 $241 $64 #
coedge $-1 $152 $152 $242 $243 reversed $95 $-1 #
face $-1 $-1 $244 $51 $-1 $245 forward single #
loop $-1 $246 $247 $97 #
cone-surface $-1 -60.519174587238851 -15.166100019708789 3.4587188073253508 0.6560590369687036 0 -0.75470957328743171 0.18867739332185793 0 0.1640147592421759 1 I I -0.70710678118654691 0.70710678118654813 0.25 forward I I I I #
loop $-1 $-1 $248 $65 #
coedge $-1 $157 $157 $249 $250 reversed $98 $-1 #
face $-1 $251 $252 $52 $-1 $253 reversed single #
loop $-1 $-1 $254 $100 #
plane-surface $-1 -67.390972624897003 29.792020326697624 0.0004139736969364094 -0.6560590369687036 0 0.75470957328743171 0.75470957328743171 0 0.6560590369687036 forward_v I I I I #
coedge $-1 $255 $256 $257 $258 reversed $101 $-1 #
face $-1 $-1 $259 $53 $-1 $260 forward single #
loop $-1 $261 $262 $103 #
cone-surface $-1 -60.519174587238851 27.098522369288361 3.4587188073253508 0.6560590369687036 0 -0.75470957328743171 0.18867739332185793 0 0.1640147592421759 1 I I -0.70710678118654691 0.70710678118654813 0.25 forward I I I I #
loop $-1 $-1 $263 $67 #
coedge $-1 $166 $166 $264 $265 reversed $104 $-1 #
face $-1 $-1 $266 $54 $-1 $267 forward single #
loop $-1 $268 $269 $106 #
cone-surface $-1 -60.519174587238851 29.792020326697624 3.4587188073253508 0.6560590369687036 0 -0.75470957328743171 0.18867739332185793 0 0.1640147592421759 1 I I -0.70710678118654691 0.70710678118654813 0.25 forward I I I I #
loop $-1 $-1 $270 $68 #
coedge $-1 $171 $171 $271 $272 reversed $107 $-1 #
face $-1 $-1 $273 $55 $-1 $274 forward single #
loop $-1 $275 $276 $109 #
cone-surface $-1 -60.519174587238851 32.485518284106888 3.4587188073253508 0.6560590369687036 0 -0.75470957328743171 0.18867739332185793 0 0.1640147592421759 1 I I -0.70710678118654691 0.70710678118654813 0.25 forward I I I I #
loop $-1 $-1 $277 $69 #
coedge $-1 $176 $176 $278 $279 reversed $110 $-1 #
face $-1 $280 $281 $42 $-1 $282 reversed single #
loop $-1 $-1 $283 $112 #
plane-surface $-1 0 -41.293655484646735 0 0 1 0 0 0 1 forward_v I I I I #
coedge $-1 $284 $285 $286 $287 forward $113 $-1 #
coedge $-1 $288 $115 $289 $290 forward $71 $-1 #
coedge $-1 $115 $288 $291 $292 forward $71 $-1 #
coedge $-1 $293 $294 $115 $184 reversed $295 $-1 #
edge $-1 $296 -41.293655484646735 $297 41.293655484646735 $183 $298 forward 7 unknown #
face $-1 $299 $300 $43 $-1 $301 reversed single #
loop $-1 $-1 $302 $116 #
plane-surface $-1 -67.390972624897003 0 0 1 0 0 0 0 -1 forward_v I I I I #
coedge $-1 $303 $304 $305 $306 forward $117 $-1 #
coedge $-1 $305 $119 $302 $307 reversed $74 $-1 #
coedge $-1 $119 $305 $308 $309 reversed $74 $-1 #
coedge $-1 $310 $311 $119 $192 reversed $300 $-1 #
edge $-1 $312 -67.390972624897003 $313 67.390972624897003 $191 $314 forward 7 unknown #
face $-1 $315 $316 $44 $-1 $317 reversed single #
loop $-1 $-1 $318 $120 #
plane-surface $-1 31.020784850690731 -24.037378056676154 193.11143691188241 0 1 0 0.55919291073839883 0 0.82903756765294845 forward_v I I I I #
coedge $-1 $319 $320 $321 $322 reversed $121 $-1 #
coedge $-1 $198 $123 $323 $324 reversed $77 $-1 #
coedge $-1 $123 $197 $319 $325 reversed $77 $-1 #
coedge $-1 $321 $326 $123 $200 forward $327 $-1 #
edge $-1 $328 -51.880580199551638 $329 -46.277529506129063 $199 $330 forward 7 unknown #
loop $-1 $-1 $206 $124 #
plane-surface $-1 -44.348323428525092 -19.98755722898013 81.372140858460313 0.55919291073839883 0 0.82903756765294845 0.82903756765294845 0 -0.55919291073839883 forward_v I I I I #
loop $-1 $-1 $331 $79 #
coedge $-1 $204 $204 $205 $332 reversed $125 $-1 #
coedge $-1 $205 $205 $204 $332 forward $127 $-1 #
coedge $-1 $206 $206 $128 $207 forward $201 $-1 #
edge $-1 $333 0 $333 6.2831853071796004 $206 $334 forward 7 unknown #
loop $-1 $-1 $213 $129 #
plane-surface $-1 -44.348323428525092 -19.98755722898013 81.372140858460313 0.55919291073839883 0 0.82903756765294845 0.82903756765294845 0 -0.55919291073839883 forward_v I I I I #
loop $-1 $-1 $335 $82 #
coedge $-1 $211 $211 $212 $336 reversed $130 $-1 #
coedge $-1 $212 $212 $211 $336 forward $132 $-1 #
coedge $-1 $213 $213 $133 $214 forward $208 $-1 #
edge $-1 $337 0 $337 6.2831853071796004 $213 $338 forward 7 unknown #
loop $-1 $-1 $220 $134 #
plane-surface $-1 -44.348323428525092 -19.98755722898013 81.372140858460313 0.55919291073839883 0 0.82903756765294845 0.82903756765294845 0 -0.55919291073839883 forward_v I I I I #
loop $-1 $-1 $339 $85 #
coedge $-1 $218 $218 $219 $340 reversed $135 $-1 #
coedge $-1 $219 $219 $218 $340 forward $137 $-1 #
coedge $-1 $220 $220 $138 $221 forward $215 $-1 #
edge $-1 $341 0 $341 6.2831853071796004 $220 $342 forward 7 unknown #
face $-1 $343 $344 $48 $-1 $345 forward single #
loop $-1 $-1 $346 $139 #
plane-surface $-1 -155.81588582624539 -13.37043471476928 101.72163836001896 0 -1 0 0.6560590369687036 0 -0.75470957328743171 forward_v I I I I #
coedge $-1 $347 $348 $349 $350 reversed $140 $-1 #
coedge $-1 $227 $142 $351 $352 reversed $89 $-1 #
coedge $-1 $142 $226 $347 $353 reversed $89 $-1 #
coedge $-1 $349 $354 $142 $229 forward $344 $-1 #
edge $-1 $355 10.516970288225693 $356 21.769786482976208 $228 $357 forward 7 unknown #
loop $-1 $-1 $235 $143 #
plane-surface $-1 -67.390972624897003 -17.859597977118057 0.0004139736969364094 -0.6560590369687036 0 0.75470957328743171 0.75470957328743171 0 0.6560590369687036 forward_v I I I I #
loop $-1 $-1 $358 $91 #
coedge $-1 $233 $233 $234 $359 reversed $144 $-1 #
coedge $-1 $234 $234 $233 $359 forward $146 $-1 #
coedge $-1 $235 $235 $147 $236 forward $230 $-1 #
edge $-1 $360 0 $360 6.2831853071796004 $235 $361 forward 7 unknown #
loop $-1 $-1 $242 $148 #
plane-surface $-1 -67.390972624897003 -17.859597977118057 0.0004139736969364094 -0.6560590369687036 0 0.75470957328743171 0.75470957328743171 0 0.6560590369687036 forward_v I I I I #
loop $-1 $-1 $362 $94 #
coedge $-1 $240 $240 $241 $363 reversed $149 $-1 #
coedge $-1 $241 $241 $240 $363 forward $151 $-1 #
coedge $-1 $242 $242 $152 $243 forward $237 $-1 #
edge $-1 $364 0 $364 6.2831853071796004 $242 $365 forward 7 unknown #
loop $-1 $-1 $249 $153 #
plane-surface $-1 -67.390972624897003 -17.859597977118057 0.0004139736969364094 -0.6560590369687036 0 0.75470957328743171 0.75470957328743171 0 0.6560590369687036 forward_v I I I I #
loop $-1 $-1 $366 $97 #
coedge $-1 $247 $247 $248 $367 reversed $154 $-1 #
coedge $-1 $248 $248 $247 $367 forward $156 $-1 #
coedge $-1 $249 $249 $157 $250 forward $244 $-1 #
edge $-1 $368 0 $368 6.2831853071796004 $249 $369 forward 7 unknown #
face $-1 $370 $371 $52 $-1 $372 forward single #
loop $-1 $-1 $373 $158 #
plane-surface $-1 -155.81588582624539 34.2811835890464 101.72163836001896 0 -1 0 0.6560590369687036 0 -0.75470957328743171 forward_v I I I I #
coedge $-1 $374 $375 $376 $377 reversed $159 $-1 #
coedge $-1 $256 $161 $378 $379 reversed $101 $-1 #
coedge $-1 $161 $255 $374 $380 reversed $101 $-1 #
coedge $-1 $376 $381 $161 $258 forward $371 $-1 #
edge $-1 $382 10.516970288225693 $383 21.769786482976208 $257 $384 forward 7 unknown #
loop $-1 $-1 $264 $162 #
plane-surface $-1 -67.390972624897003 29.792020326697624 0.0004139736969364094 -0.6560590369687036 0 0.75470957328743171 0.75470957328743171 0 0.6560590369687036 forward_v I I I I #
loop $-1 $-1 $385 $103 #
coedge $-1 $262 $262 $263 $386 reversed $163 $-1 #
coedge $-1 $263 $263 $262 $386 forward $165 $-1 #
coedge $-1 $264 $264 $166 $265 forward $259 $-1 #
edge $-1 $387 0 $387 6.2831853071796004 $264 $388 forward 7 unknown #
loop $-1 $-1 $271 $167 #
plane-surface $-1 -67.390972624897003 29.792020326697624 0.0004139736969364094 -0.6560590369687036 0 0.75470957328743171 0.75470957328743171 0 0.6560590369687036 forward_v I I I I #
loop $-1 $-1 $389 $106 #
coedge $-1 $269 $269 $270 $390 reversed $168 $-1 #
coedge $-1 $270 $270 $269 $390 forward $170 $-1 #
coedge $-1 $271 $271 $171 $272 forward $266 $-1 #
edge $-1 $391 0 $391 6.2831853071796004 $271 $392 forward 7 unknown #
loop $-1 $-1 $278 $172 #
plane-surface $-1 -67.390972624897003 29.792020326697624 0.0004139736969364094 -0.6560590369687036 0 0.75470957328743171 0.75470957328743171 0 0.6560590369687036 forward_v I I I I #
loop $-1 $-1 $393 $109 #
coedge $-1 $276 $276 $277 $394 reversed $173 $-1 #
coedge $-1 $277 $277 $276 $394 forward $175 $-1 #
coedge $-1 $278 $278 $176 $279 forward $273 $-1 #
edge $-1 $395 0 $395 6.2831853071796004 $278 $396 forward 7 unknown #
face $-1 $397 $398 $42 $-1 $399 reversed single #
loop $-1 $-1 $400 $177 #
plane-surface $-1 -67.390972624897003 0 0 1 0 0 0 0 -1 forward_v I I I I #
coedge $-1 $401 $291 $402 $403 forward $178 $-1 #
coedge $-1 $404 $180 $401 $405 forward $113 $-1 #
coedge $-1 $180 $404 $406 $407 forward $113 $-1 #
coedge $-1 $294 $293 $180 $287 reversed $295 $-1 #
edge $-1 $408 -41.293655484646735 $409 41.293655484646735 $286 $410 forward 7 unknown #
coedge $-1 $182 $181 $411 $412 forward $71 $-1 #
coedge $-1 $413 $414 $181 $290 reversed $398 $-1 #
edge $-1 $297 -67.390972624897003 $415 67.390972624897003 $289 $416 forward 7 unknown #
coedge $-1 $283 $417 $182 $292 reversed $178 $-1 #
edge $-1 $418 -67.390972624897003 $296 67.390972624897003 $291 $419 forward 7 unknown #
coedge $-1 $286 $183 $417 $420 forward $295 $-1 #
coedge $-1 $183 $286 $413 $421 reversed $295 $-1 #
loop $-1 $-1 $293 $397 #
vertex $-1 $184 $422 #
vertex $-1 $184 $423 #
straight-curve $-1 67.390972624897003 0 9.7823380637233139 0 1 0 I I #
face $-1 $424 $425 $43 $-1 $426 reversed single #
loop $-1 $-1 $310 $185 #
plane-surface $-1 0 -47.259866659436511 4.1682486662100544 0 0 1 1 0 0 forward_v I I I I #
coedge $-1 $427 $428 $189 $307 forward $186 $-1 #
coedge $-1 $429 $188 $428 $430 forward $117 $-1 #
coedge $-1 $188 $429 $431 $432 forward $117 $-1 #
coedge $-1 $190 $189 $188 $306 reversed $74 $-1 #
edge $-1 $433 -67.390972624897003 $434 67.390972624897003 $188 $435 forward 7 unknown #
edge $-1 $434 -9.7823380637233139 $313 -4.1682486662100544 $302 $436 forward 7 unknown #
coedge $-1 $431 $437 $190 $309 forward $438 $-1 #
edge $-1 $312 4.1682486662100544 $433 9.7823380637233139 $308 $439 forward 7 unknown #
coedge $-1 $440 $191 $437 $441 forward $300 $-1 #
coedge $-1 $191 $440 $427 $442 forward $300 $-1 #
vertex $-1 $309 $443 #
vertex $-1 $307 $444 #
straight-curve $-1 0 -41.293655484646735 4.1682486662100544 -1 0 0 I I #
face $-1 $-1 $327 $44 $-1 $445 forward single #
loop $-1 $-1 $446 $193 #
plane-surface $-1 67.390972624897003 0 0 -1 0 0 0 0 1 forward_v I I I I #
coedge $-1 $447 $448 $449 $450 reversed $194 $-1 #
coedge $-1 $451 $196 $198 $325 forward $121 $-1 #
coedge $-1 $196 $451 $447 $452 forward $121 $-1 #
coedge $-1 $449 $199 $196 $322 forward $327 $-1 #
edge $-1 $329 5.943957786794039 $453 14.043599442186089 $321 $454 forward 7 unknown #
coedge $-1 $455 $456 $197 $324 forward $316 $-1 #
edge $-1 $457 -90.552685876696714 $328 -86.773380392217888 $323 $458 forward 7 unknown #
edge $-1 $329 128.02344489704748 $457 134.78194524979401 $198 $459 forward 7 unknown #
coedge $-1 $199 $449 $455 $460 forward $327 $-1 #
loop $-1 $-1 $449 $315 #
vertex $-1 $324 $461 #
vertex $-1 $200 $462 #
straight-curve $-1 15.510392425345366 -15.937736401284104 9.7823380637233157 -1 0 0 I I #
coedge $-1 $331 $331 $-1 $463 reversed $203 $-1 #
edge $-1 $464 0 $464 6.2831853071796004 $204 $465 forward 7 unknown #
vertex $-1 $207 $466 #
ellipse-curve $-1 64.589447278185688 -22.417449725597745 7.892685321483917 0.55919291073839883 0 0.82903756765294845 0.41451878382647422 0 -0.27959645536919941 1 I I #
coedge $-1 $335 $335 $-1 $467 reversed $210 $-1 #
edge $-1 $468 0 $468 6.2831853071796004 $211 $469 forward 7 unknown #
vertex $-1 $214 $470 #
ellipse-curve $-1 64.589447278185688 -19.98755722898013 7.892685321483917 0.55919291073839883 0 0.82903756765294845 0.41451878382647422 0 -0.27959645536919941 1 I I #
coedge $-1 $339 $339 $-1 $471 reversed $217 $-1 #
edge $-1 $472 0 $472 6.2831853071796004 $218 $473 forward 7 unknown #
vertex $-1 $221 $474 #
ellipse-curve $-1 64.589447278185688 -17.557664732362515 7.892685321483917 0.55919291073839883 0 0.82903756765294845 0.41451878382647422 0 -0.27959645536919941 1 I I #
face $-1 $-1 $475 $48 $-1 $476 reversed single #
loop $-1 $-1 $228 $222 #
plane-surface $-1 0 0 9.7823380637233139 0 0 1 1 0 0 forward_v I I I I #
coedge $-1 $477 $478 $479 $480 reversed $223 $-1 #
coedge $-1 $481 $225 $227 $353 forward $140 $-1 #
coedge $-1 $225 $481 $477 $482 forward $140 $-1 #
coedge $-1 $479 $228 $225 $350 forward $344 $-1 #
edge $-1 $356 -13.418962250907803 $483 -4.4406357262102514 $349 $484 forward 7 unknown #
coedge $-1 $485 $486 $226 $352 forward $475 $-1 #
edge $-1 $487 -50.860405206312542 $355 -41.078481116286163 $351 $488 forward 7 unknown #
edge $-1 $356 -14.910127806825731 $487 0 $227 $489 forward 7 unknown #
coedge $-1 $228 $479 $485 $490 forward $344 $-1 #
vertex $-1 $352 $491 #
vertex $-1 $229 $492 #
straight-curve $-1 -77.907942913122696 -22.348761239466832 9.7823380637233157 1 0 0 I I #
coedge $-1 $358 $358 $-1 $493 reversed $232 $-1 #
edge $-1 $494 0 $494 6.2831853071796004 $233 $495 forward 7 unknown #
vertex $-1 $236 $496 #
ellipse-curve $-1 -61.764564527521742 -20.553095934527324 4.8913760187101243 -0.6560590369687036 0 0.75470957328743171 0.37735478664371586 0 0.3280295184843518 1 I I #
coedge $-1 $362 $362 $-1 $497 reversed $239 $-1 #
edge $-1 $498 0 $498 6.2831853071796004 $240 $499 forward 7 unknown #
vertex $-1 $243 $500 #
ellipse-curve $-1 -61.764564527521742 -17.859597977118057 4.8913760187101243 -0.6560590369687036 0 0.75470957328743171 0.37735478664371586 0 0.3280295184843518 1 I I #
coedge $-1 $366 $366 $-1 $501 reversed $246 $-1 #
edge $-1 $502 0 $502 6.2831853071796004 $247 $503 forward 7 unknown #
vertex $-1 $250 $504 #
ellipse-curve $-1 -61.764564527521742 -15.166100019708789 4.8913760187101243 -0.6560590369687036 0 0.75470957328743171 0.37735478664371586 0 0.3280295184843518 1 I I #
face $-1 $-1 $505 $52 $-1 $506 reversed single #
loop $-1 $-1 $257 $251 #
plane-surface $-1 0 0 9.7823380637233139 0 0 1 1 0 0 forward_v I I I I #
coedge $-1 $507 $508 $509 $510 reversed $252 $-1 #
coedge $-1 $511 $254 $256 $380 forward $159 $-1 #
coedge $-1 $254 $511 $507 $512 forward $159 $-1 #
coedge $-1 $509 $257 $254 $377 forward $371 $-1 #
edge $-1 $383 10.406846901000037 $513 19.385173425697587 $376 $514 forward 7 unknown #
coedge $-1 $515 $516 $255 $379 forward $505 $-1 #
edge $-1 $517 -50.860405206312542 $382 -41.078481116286163 $378 $518 forward 7 unknown #
edge $-1 $383 -14.910127806825731 $517 0 $256 $519 forward 7 unknown #
coedge $-1 $257 $509 $515 $520 forward $371 $-1 #
vertex $-1 $258 $521 #
vertex $-1 $258 $522 #
straight-curve $-1 -77.907942913122696 25.302857064348849 9.7823380637233157 1 0 0 I I #
coedge $-1 $385 $385 $-1 $523 reversed $261 $-1 #
edge $-1 $524 0 $524 6.2831853071796004 $262 $525 forward 7 unknown #
vertex $-1 $265 $526 #
ellipse-curve $-1 -61.764564527521742 27.098522369288361 4.8913760187101243 -0.6560590369687036 0 0.75470957328743171 0.37735478664371586 0 0.3280295184843518 1 I I #
coedge $-1 $389 $389 $-1 $527 reversed $268 $-1 #
edge $-1 $528 0 $528 6.2831853071796004 $269 $529 forward 7 unknown #
vertex $-1 $272 $530 #
ellipse-curve $-1 -61.764564527521742 29.792020326697624 4.8913760187101243 -0.6560590369687036 0 0.75470957328743171 0.37735478664371586 0 0.3280295184843518 1 I I #
coedge $-1 $393 $393 $-1 $531 reversed $275 $-1 #
edge $-1 $532 0 $532 6.2831853071796004 $276 $533 forward 7 unknown #
vertex $-1 $279 $534 #
ellipse-curve $-1 -61.764564527521742 32.485518284106888 4.8913760187101243 -0.6560590369687036 0 0.75470957328743171 0.37735478664371586 0 0.3280295184843518 1 I I #
face $-1 $-1 $295 $42 $-1 $535 reversed single #
loop $-1 $-1 $413 $280 #
plane-surface $-1 0 41.293655484646735 0 0 -1 0 0 0 -1 forward_v I I I I #
coedge $-1 $536 $411 $414 $537 forward $281 $-1 #
coedge $-1 $417 $283 $284 $405 reversed $178 $-1 #
coedge $-1 $411 $536 $283 $403 reversed $281 $-1 #
edge $-1 $418 -9.7823380637233139 $538 9.7823380637233139 $402 $539 forward 7 unknown #
coedge $-1 $285 $284 $536 $540 forward $113 $-1 #
edge $-1 $409 -67.390972624897003 $538 67.390972624897003 $401 $541 forward 7 unknown #
coedge $-1 $414 $413 $285 $407 reversed $398 $-1 #
edge $-1 $542 -67.390972624897003 $408 67.390972624897003 $406 $543 forward 7 unknown #
vertex $-1 $287 $544 #
vertex $-1 $420 $545 #
straight-curve $-1 67.390972624897003 0 -9.7823380637233139 0 -1 0 I I #
coedge $-1 $400 $402 $288 $412 reversed $281 $-1 #
edge $-1 $415 -41.293655484646735 $418 41.293655484646735 $411 $546 forward 7 unknown #
coedge $-1 $406 $289 $294 $421 forward $398 $-1 #
coedge $-1 $289 $406 $400 $537 reversed $398 $-1 #
vertex $-1 $290 $547 #
straight-curve $-1 0 41.293655484646735 9.7823380637233139 -1 0 0 I I #
coedge $-1 $291 $401 $293 $420 reversed $178 $-1 #
vertex $-1 $412 $548 #
straight-curve $-1 0 -41.293655484646735 9.7823380637233139 1 0 0 I I #
edge $-1 $296 -9.7823380637233139 $409 9.7823380637233139 $293 $549 forward 7 unknown #
edge $-1 $297 -9.7823380637233139 $408 9.7823380637233139 $294 $550 forward 7 unknown #
point $-1 67.390972624897003 -41.293655484646735 9.7823380637233139 #
point $-1 67.390972624897003 41.293655484646735 9.7823380637233139 #
face $-1 $-1 $438 $43 $-1 $551 reversed single #
loop $-1 $-1 $552 $299 #
plane-surface $-1 0 -53.226077834226288 6.9752933649666833 0 1 0 0 0 1 forward_v I I I I #
coedge $-1 $553 $302 $311 $442 reversed $186 $-1 #
coedge $-1 $302 $553 $303 $430 reversed $186 $-1 #
coedge $-1 $304 $303 $554 $555 forward $117 $-1 #
edge $-1 $434 41.293655484646735 $556 53.226077834226288 $428 $557 forward 7 unknown #
coedge $-1 $558 $308 $304 $432 reversed $438 $-1 #
edge $-1 $559 -53.226077834226288 $433 -41.293655484646735 $431 $560 forward 7 unknown #
vertex $-1 $309 $561 #
vertex $-1 $430 $562 #
straight-curve $-1 0 -41.293655484646735 9.7823380637233139 -1 0 0 I I #
straight-curve $-1 -67.390972624897003 -41.293655484646735 0 0 0 -1 I I #
coedge $-1 $308 $558 $310 $441 reversed $438 $-1 #
loop $-1 $-1 $308 $424 #
straight-curve $-1 67.390972624897003 -41.293655484646735 0 0 0 1 I I #
coedge $-1 $311 $310 $563 $564 forward $300 $-1 #
edge $-1 $312 -5.9662111747897768 $565 5.9662111747897768 $437 $566 forward 7 unknown #
edge $-1 $567 -5.9662111747897768 $313 5.9662111747897768 $427 $568 forward 7 unknown #
point $-1 67.390972624897003 -41.293655484646735 4.1682486662100544 #
point $-1 -67.390972624897003 -41.293655484646735 4.1682486662100544 #
plane-surface $-1 0 0 9.7823380637233139 0 0 1 1 0 0 forward_v I I I I #
coedge $-1 $456 $455 $448 $569 forward $316 $-1 #
coedge $-1 $448 $318 $320 $452 reversed $194 $-1 #
coedge $-1 $318 $447 $446 $569 reversed $194 $-1 #
coedge $-1 $326 $321 $318 $450 forward $327 $-1 #
edge $-1 $453 46.277529506129063 $570 51.880580199551638 $449 $571 forward 7 unknown #
coedge $-1 $320 $319 $456 $572 reversed $121 $-1 #
edge $-1 $573 -134.78194524979401 $453 -128.02344489704748 $447 $574 forward 7 unknown #
vertex $-1 $322 $575 #
straight-curve $-1 61.787921931474436 -9.9937786144900649 9.7823380637233228 0 -1 0 I I #
coedge $-1 $446 $323 $326 $460 reversed $316 $-1 #
coedge $-1 $323 $446 $451 $572 forward $316 $-1 #
vertex $-1 $324 $576 #
straight-curve $-1 67.390972624897003 -15.937736401284104 96.555718455941204 0 0 1 I I #
straight-curve $-1 -44.348323428525092 -15.937736401284104 81.372140858460313 0.82903756765294845 0 -0.55919291073839883 I I #
edge $-1 $570 -24.037378056676154 $328 -15.937736401284104 $455 $577 forward 7 unknown #
point $-1 67.390972624897003 -15.937736401284104 9.7823380637233139 #
point $-1 61.787921931474429 -15.937736401284104 9.7823380637233157 #
edge $-1 $578 1 $578 0 $331 $-1 forward 7 unknown #
vertex $-1 $332 $579 #
ellipse-curve $-1 64.030254367447284 -22.417449725597745 7.0636477538309626 0.55919291073839883 0 0.82903756765294845 0.41451878382647422 0 -0.27959645536919941 1 I I #
point $-1 65.003966062012168 -22.417449725597745 7.6130888661147109 #
edge $-1 $580 1 $580 0 $335 $-1 forward 7 unknown #
vertex $-1 $336 $581 #
ellipse-curve $-1 64.030254367447284 -19.98755722898013 7.0636477538309626 0.55919291073839883 0 0.82903756765294845 0.41451878382647422 0 -0.27959645536919941 1 I I #
point $-1 65.003966062012168 -19.98755722898013 7.6130888661147109 #
edge $-1 $582 1 $582 0 $339 $-1 forward 7 unknown #
vertex $-1 $340 $583 #
ellipse-curve $-1 64.030254367447284 -17.557664732362515 7.0636477538309626 0.55919291073839883 0 0.82903756765294845 0.41451878382647422 0 -0.27959645536919941 1 I I #
point $-1 65.003966062012168 -17.557664732362515 7.6130888661147109 #
loop $-1 $-1 $351 $343 #
plane-surface $-1 -67.390972624897003 0 0 1 0 0 0 0 -1 forward_v I I I I #
coedge $-1 $478 $346 $348 $482 reversed $223 $-1 #
coedge $-1 $346 $477 $584 $585 reversed $223 $-1 #
coedge $-1 $354 $349 $346 $480 forward $344 $-1 #
edge $-1 $483 -21.769786482976208 $586 -10.516970288225693 $479 $587 forward 7 unknown #
coedge $-1 $348 $347 $486 $588 reversed $140 $-1 #
edge $-1 $589 0 $483 14.910127806825731 $477 $590 forward 7 unknown #
vertex $-1 $350 $591 #
straight-curve $-1 -56.138156430146488 -8.9297989885590283 9.7823380637233157 0 1 0 I I #
coedge $-1 $584 $351 $354 $490 reversed $475 $-1 #
coedge $-1 $351 $584 $481 $588 forward $475 $-1 #
vertex $-1 $352 $592 #
straight-curve $-1 -67.390972624897003 -22.348761239466832 50.860819180009479 0 0 1 I I #
straight-curve $-1 -67.390972624897003 -22.348761239466832 0.0004139736969364094 -0.75470957328743171 0 -0.6560590369687036 I I #
edge $-1 $586 13.37043471476928 $355 22.348761239466832 $485 $593 forward 7 unknown #
point $-1 -67.390972624897003 -22.348761239466832 9.7823380637233139 #
point $-1 -56.138156430146488 -22.348761239466832 9.7823380637233139 #
edge $-1 $594 1 $594 0 $358 $-1 forward 7 unknown #
vertex $-1 $359 $595 #
ellipse-curve $-1 -60.683189346481029 -20.553095934527324 3.6473962006472092 -0.6560590369687036 0 0.75470957328743171 0.37735478664371586 0 0.3280295184843518 1 I I #
point $-1 -61.387209740878028 -20.553095934527324 5.2194055371944756 #
edge $-1 $596 1 $596 0 $362 $-1 forward 7 unknown #
vertex $-1 $363 $597 #
ellipse-curve $-1 -60.683189346481029 -17.859597977118057 3.6473962006472092 -0.6560590369687036 0 0.75470957328743171 0.37735478664371586 0 0.3280295184843518 1 I I #
point $-1 -61.387209740878028 -17.859597977118057 5.2194055371944756 #
edge $-1 $598 1 $598 0 $366 $-1 forward 7 unknown #
vertex $-1 $367 $599 #
ellipse-curve $-1 -60.683189346481029 -15.166100019708789 3.6473962006472092 -0.6560590369687036 0 0.75470957328743171 0.37735478664371586 0 0.3280295184843518 1 I I #
point $-1 -61.387209740878028 -15.166100019708789 5.2194055371944756 #
loop $-1 $-1 $378 $370 #
plane-surface $-1 -67.390972624897003 0 0 1 0 0 0 0 -1 forward_v I I I I #
coedge $-1 $508 $373 $375 $512 reversed $252 $-1 #
coedge $-1 $373 $507 $600 $601 reversed $252 $-1 #
coedge $-1 $381 $376 $373 $510 forward $371 $-1 #
edge $-1 $513 -21.769786482976208 $602 -10.516970288225693 $509 $603 forward 7 unknown #
coedge $-1 $375 $374 $516 $604 reversed $159 $-1 #
edge $-1 $605 0 $513 14.910127806825731 $507 $606 forward 7 unknown #
vertex $-1 $377 $607 #
straight-curve $-1 -56.138156430146488 14.896010163348812 9.7823380637233157 0 1 0 I I #
coedge $-1 $600 $378 $381 $520 reversed $505 $-1 #
coedge $-1 $378 $600 $511 $604 forward $505 $-1 #
vertex $-1 $379 $608 #
straight-curve $-1 -67.390972624897003 25.302857064348849 50.860819180009479 0 0 1 I I #
straight-curve $-1 -67.390972624897003 25.302857064348849 0.0004139736969364094 -0.75470957328743171 0 -0.6560590369687036 I I #
edge $-1 $602 -34.2811835890464 $382 -25.302857064348849 $515 $609 forward 7 unknown #
point $-1 -67.390972624897003 25.302857064348849 9.7823380637233139 #
point $-1 -56.138156430146488 25.302857064348849 9.7823380637233139 #
edge $-1 $610 1 $610 0 $385 $-1 forward 7 unknown #
vertex $-1 $386 $611 #
ellipse-curve $-1 -60.683189346481029 27.098522369288361 3.6473962006472092 -0.6560590369687036 0 0.75470957328743171 0.37735478664371586 0 0.3280295184843518 1 I I #
point $-1 -61.387209740878028 27.098522369288361 5.2194055371944756 #
edge $-1 $612 1 $612 0 $389 $-1 forward 7 unknown #
vertex $-1 $390 $613 #
ellipse-curve $-1 -60.683189346481029 29.792020326697624 3.6473962006472092 -0.6560590369687036 0 0.75470957328743171 0.37735478664371586 0 0.3280295184843518 1 I I #
point $-1 -61.387209740878028 29.792020326697624 5.2194055371944756 #
edge $-1 $614 1 $614 0 $393 $-1 forward 7 unknown #
vertex $-1 $394 $615 #
ellipse-curve $-1 -60.683189346481029 32.485518284106888 3.6473962006472092 -0.6560590369687036 0 0.75470957328743171 0.37735478664371586 0 0.3280295184843518 1 I I #
point $-1 -61.387209740878028 32.485518284106888 5.2194055371944756 #
plane-surface $-1 67.390972624897003 0 0 -1 0 0 0 0 1 forward_v I I I I #
coedge $-1 $402 $400 $404 $540 reversed $281 $-1 #
edge $-1 $415 -9.7823380637233139 $542 9.7823380637233139 $414 $616 forward 7 unknown #
vertex $-1 $540 $617 #
straight-curve $-1 -67.390972624897003 -41.293655484646735 0 0 0 -1 I I #
edge $-1 $538 -41.293655484646735 $542 41.293655484646735 $536 $618 forward 7 unknown #
straight-curve $-1 0 -41.293655484646735 -9.7823380637233139 -1 0 0 I I #
vertex $-1 $407 $619 #
straight-curve $-1 0 41.293655484646735 -9.7823380637233139 1 0 0 I I #
point $-1 67.390972624897003 41.293655484646735 -9.7823380637233139 #
point $-1 67.390972624897003 -41.293655484646735 -9.7823380637233139 #
straight-curve $-1 -67.390972624897003 0 9.7823380637233139 0 -1 0 I I #
point $-1 -67.390972624897003 41.293655484646735 9.7823380637233139 #
point $-1 -67.390972624897003 -41.293655484646735 9.7823380637233139 #
straight-curve $-1 67.390972624897003 -41.293655484646735 0 0 0 -1 I I #
straight-curve $-1 67.390972624897003 41.293655484646735 0 0 0 -1 I I #
plane-surface $-1 67.390972624897003 0 0 -1 0 0 0 0 1 forward_v I I I I #
coedge $-1 $563 $554 $553 $620 forward $425 $-1 #
coedge $-1 $428 $427 $552 $620 reversed $186 $-1 #
coedge $-1 $552 $621 $429 $555 reversed $425 $-1 #
edge $-1 $556 -67.390972624897003 $559 67.390972624897003 $554 $622 forward 7 unknown #
vertex $-1 $430 $623 #
straight-curve $-1 -67.390972624897003 0 9.7823380637233139 0 -1 0 I I #
coedge $-1 $437 $431 $621 $624 forward $438 $-1 #
vertex $-1 $432 $625 #
straight-curve $-1 67.390972624897003 0 9.7823380637233139 0 1 0 I I #
point $-1 67.390972624897003 -41.293655484646735 9.7823380637233139 #
point $-1 -67.390972624897003 -41.293655484646735 9.7823380637233139 #
coedge $-1 $621 $552 $440 $564 reversed $425 $-1 #
edge $-1 $565 -67.390972624897003 $567 67.390972624897003 $563 $626 forward 7 unknown #
vertex $-1 $624 $627 #
straight-curve $-1 67.390972624897003 -47.259866659436511 4.1682486662100544 0 -1 0 I I #
vertex $-1 $442 $628 #
straight-curve $-1 -67.390972624897003 -47.259866659436511 4.1682486662100544 0 1 0 I I #
edge $-1 $570 86.773380392217888 $573 90.552685876696714 $446 $629 forward 7 unknown #
vertex $-1 $460 $630 #
straight-curve $-1 15.510392425345366 -24.037378056676154 9.7823380637233157 1 0 0 I I #
edge $-1 $573 -14.043599442186089 $457 -5.943957786794039 $456 $631 forward 7 unknown #
vertex $-1 $572 $632 #
straight-curve $-1 -44.348323428525092 -24.037378056676154 81.372140858460313 -0.82903756765294845 0 0.55919291073839883 I I #
point $-1 61.787921931474429 -24.037378056676154 9.7823380637233157 #
point $-1 67.390972624897003 -15.937736401284104 6.0030325792444899 #
straight-curve $-1 67.390972624897003 0 9.7823380637233139 0 1 0 I I #
vertex $-1 $463 $633 #
point $-1 64.444773151273765 -22.417449725597745 6.7840512984617627 #
vertex $-1 $467 $634 #
point $-1 64.444773151273765 -19.98755722898013 6.7840512984617627 #
vertex $-1 $471 $635 #
point $-1 64.444773151273765 -17.557664732362515 6.7840512984617627 #
coedge $-1 $486 $485 $478 $585 forward $475 $-1 #
edge $-1 $586 41.078481116286163 $589 50.860405206312542 $584 $636 forward 7 unknown #
vertex $-1 $490 $637 #
straight-curve $-1 -77.907942913122696 -13.37043471476928 9.7823380637233157 -1 0 0 I I #
edge $-1 $589 4.4406357262102514 $487 13.418962250907803 $486 $638 forward 7 unknown #
vertex $-1 $588 $639 #
straight-curve $-1 -67.390972624897003 -13.37043471476928 0.0004139736969364094 0.75470957328743171 0 0.6560590369687036 I I #
point $-1 -56.138156430146488 -13.37043471476928 9.7823380637233139 #
point $-1 -67.390972624897003 -22.348761239466832 0.0004139736969364094 #
straight-curve $-1 -67.390972624897003 0 9.7823380637233139 0 -1 0 I I #
vertex $-1 $493 $640 #
point $-1 -60.305834559837308 -20.553095934527324 3.975425719131561 #
vertex $-1 $497 $641 #
point $-1 -60.305834559837308 -17.859597977118057 3.975425719131561 #
vertex $-1 $501 $642 #
point $-1 -60.305834559837308 -15.166100019708789 3.975425719131561 #
coedge $-1 $516 $515 $508 $601 forward $505 $-1 #
edge $-1 $602 41.078481116286163 $605 50.860405206312542 $600 $643 forward 7 unknown #
vertex $-1 $520 $644 #
straight-curve $-1 -77.907942913122696 34.2811835890464 9.7823380637233157 -1 0 0 I I #
edge $-1 $605 -19.385173425697587 $517 -10.406846901000037 $516 $645 forward 7 unknown #
vertex $-1 $604 $646 #
straight-curve $-1 -67.390972624897003 34.2811835890464 0.0004139736969364094 0.75470957328743171 0 0.6560590369687036 I I #
point $-1 -56.138156430146488 34.2811835890464 9.7823380637233139 #
point $-1 -67.390972624897003 25.302857064348849 0.0004139736969364094 #
straight-curve $-1 -67.390972624897003 0 9.7823380637233139 0 -1 0 I I #
vertex $-1 $523 $647 #
point $-1 -60.305834559837308 27.098522369288361 3.975425719131561 #
vertex $-1 $527 $648 #
point $-1 -60.305834559837308 29.792020326697624 3.975425719131561 #
vertex $-1 $531 $649 #
point $-1 -60.305834559837308 32.485518284106888 3.975425719131561 #
straight-curve $-1 -67.390972624897003 41.293655484646735 0 0 0 -1 I I #
point $-1 -67.390972624897003 -41.293655484646735 -9.7823380637233139 #
straight-curve $-1 -67.390972624897003 0 -9.7823380637233139 0 1 0 I I #
point $-1 -67.390972624897003 41.293655484646735 -9.7823380637233139 #
edge $-1 $556 -2.8070446987566289 $567 2.8070446987566289 $553 $650 forward 7 unknown #
coedge $-1 $554 $563 $558 $624 reversed $425 $-1 #
straight-curve $-1 0 -53.226077834226288 9.7823380637233122 1 0 0 I I #
point $-1 -67.390972624897003 -53.226077834226288 9.7823380637233122 #
edge $-1 $559 -2.8070446987566289 $565 2.8070446987566289 $558 $651 forward 7 unknown #
point $-1 67.390972624897003 -53.226077834226288 9.7823380637233122 #
straight-curve $-1 0 -53.226077834226288 4.1682486662100544 -1 0 0 I I #
point $-1 67.390972624897003 -53.226077834226288 4.1682486662100544 #
point $-1 -67.390972624897003 -53.226077834226288 4.1682486662100544 #
straight-curve $-1 67.390972624897003 -24.037378056676154 96.555718455941204 0 0 -1 I I #
point $-1 67.390972624897003 -24.037378056676154 9.7823380637233139 #
straight-curve $-1 67.390972624897003 -9.9937786144900649 6.003032579244497 0 1 0 I I #
point $-1 67.390972624897003 -24.037378056676154 6.0030325792444899 #
point $-1 63.75065791207809 -22.417449725597745 6.6491289700044875 #
point $-1 63.75065791207809 -19.98755722898013 6.6491289700044875 #
point $-1 63.75065791207809 -17.557664732362515 6.6491289700044875 #
straight-curve $-1 -67.390972624897003 -13.37043471476928 50.860819180009479 0 0 -1 I I #
point $-1 -67.390972624897003 -13.37043471476928 9.7823380637233139 #
straight-curve $-1 -67.390972624897003 -8.9297989885590283 0.00041397369693235481 0 -1 0 I I #
point $-1 -67.390972624897003 -13.37043471476928 0.0004139736969364094 #
point $-1 -60.355159827996673 -20.553095934527324 3.2700414140034924 #
point $-1 -60.355159827996673 -17.859597977118057 3.2700414140034924 #
point $-1 -60.355159827996673 -15.166100019708789 3.2700414140034924 #
straight-curve $-1 -67.390972624897003 34.2811835890464 50.860819180009479 0 0 -1 I I #
point $-1 -67.390972624897003 34.2811835890464 9.7823380637233139 #
straight-curve $-1 -67.390972624897003 14.896010163348812 0.00041397369693235481 0 -1 0 I I #
point $-1 -67.390972624897003 34.2811835890464 0.0004139736969364094 #
point $-1 -60.355159827996673 27.098522369288361 3.2700414140034924 #
point $-1 -60.355159827996673 29.792020326697624 3.2700414140034924 #
point $-1 -60.355159827996673 32.485518284106888 3.2700414140034924 #
straight-curve $-1 -67.390972624897003 -53.226077834226288 6.9752933649666833 0 0 -1 I I #
straight-curve $-1 67.390972624897003 -53.226077834226288 6.9752933649666833 0 0 -1 I I #
End-of-ACIS-data 