500 0 6 0           
7 Unknown 11 ACIS 5.0 NT 24 Fri Mar 26 16:38:47 1999 
-1 9.9999999999999995e-007 1e-010 
body $-1 $6 $-1 $7 #
body $-1 $8 $-1 $9 #
body $-1 $10 $-1 $11 #
body $-1 $12 $-1 $13 #
body $-1 $14 $-1 $15 #
body $-1 $16 $-1 $17 #
lump $-1 $-1 $18 $0 #
transform $-1 1 0 0 0 1 0 0 0 1 65.575731681264685 45.314037359727884 22.112702596463297 1 rotate no_reflect no_shear #
lump $-1 $-1 $19 $1 #
transform $-1 1 0 0 0 1 0 0 0 1 65.575731681264685 45.314037359727884 22.112702596463297 1 rotate no_reflect no_shear #
lump $-1 $-1 $20 $2 #
transform $-1 1 0 0 0 1 0 0 0 1 65.575731681264685 45.314037359727884 22.112702596463297 1 rotate no_reflect no_shear #
lump $-1 $-1 $21 $3 #
transform $-1 1 0 0 0 1 0 0 0 1 65.575731681264685 45.314037359727884 22.112702596463297 1 rotate no_reflect no_shear #
lump $-1 $-1 $22 $4 #
transform $-1 1 0 0 0 1 0 0 0 1 65.575731681264685 45.314037359727884 22.112702596463297 1 rotate no_reflect no_shear #
lump $-1 $-1 $23 $5 #
transform $-1 1 0 0 0 1 0 0 0 1 65.575731681264685 45.314037359727884 22.112702596463297 1 rotate no_reflect no_shear #
shell $-1 $-1 $-1 $24 $-1 $6 #
shell $-1 $-1 $-1 $25 $-1 $8 #
shell $-1 $-1 $-1 $26 $-1 $10 #
shell $-1 $-1 $-1 $27 $-1 $12 #
shell $-1 $-1 $-1 $28 $-1 $14 #
shell $-1 $-1 $-1 $29 $-1 $16 #
face $-1 $30 $31 $18 $-1 $32 forward single #
face $-1 $33 $34 $19 $-1 $35 reversed single #
face $-1 $36 $37 $20 $-1 $38 reversed single #
face $-1 $39 $40 $21 $-1 $41 forward single #
face $-1 $42 $43 $22 $-1 $44 reversed single #
face $-1 $45 $46 $23 $-1 $47 forward single #
face $-1 $48 $49 $18 $-1 $50 reversed single #
loop $-1 $-1 $51 $24 #
plane-surface $-1 0 0 22.112702596463297 0 0 1 1 0 0 forward_v I I I I #
face $-1 $52 $53 $19 $-1 $54 reversed single #
loop $-1 $-1 $55 $25 #
plane-surface $-1 -55.796109402723488 -35.471029489228847 0 0 1 0 0 0 1 forward_v I I I I #
face $-1 $56 $57 $20 $-1 $58 reversed single #
loop $-1 $-1 $59 $26 #
plane-surface $-1 -46.016487124182284 68.47794412477009 167.65975533642623 1 0 0 0 -0.68199836817093118 -0.7313536940579346 forward_v I I I I #
face $-1 $60 $61 $21 $-1 $62 forward single #
loop $-1 $63 $64 $27 #
cone-surface $-1 -37.113323636156537 35.103924511311654 12.076986629011913 0 -0.68199836817093118 -0.7313536940579346 3 0 0 1 I I 0 1 3 forward I I I I #
face $-1 $65 $66 $22 $-1 $67 reversed single #
loop $-1 $-1 $68 $28 #
plane-surface $-1 -28.21016014813079 -134.7591213562026 105.85155626728418 -1 0 0 0 -0.68199836817093118 0.7313536940579346 forward_v I I I I #
face $-1 $69 $70 $23 $-1 $71 forward single #
loop $-1 $72 $73 $29 #
cone-surface $-1 -37.113323636156537 -35.103924511311654 12.076986629011923 0 0.68199836817093118 -0.7313536940579346 3 0 0 1 I I 0 1 3 forward I I I I #
face $-1 $74 $75 $18 $-1 $76 reversed single #
loop $-1 $-1 $77 $30 #
plane-surface $-1 0 0 -22.112702596463297 0 0 1 1 0 0 forward_v I I I I #
coedge $-1 $78 $79 $80 $81 forward $31 $-1 #
face $-1 $82 $83 $19 $-1 $84 reversed single #
loop $-1 $-1 $85 $33 #
plane-surface $-1 -55.796109402723488 -23.478868239200708 0 0 -1 0 0 0 -1 forward_v I I I I #
coedge $-1 $86 $87 $88 $89 reversed $34 $-1 #
face $-1 $90 $91 $20 $-1 $92 reversed single #
loop $-1 $-1 $93 $36 #
plane-surface $-1 -37.113323636156537 -20.967139871704603 71.741648125136507 0 0.68199836817093118 0.7313536940579346 1 0 0 forward_v I I I I #
coedge $-1 $94 $95 $96 $97 reversed $37 $-1 #
face $-1 $-1 $98 $21 $-1 $99 forward single #
loop $-1 $100 $101 $39 #
cone-surface $-1 -37.113323636156537 30.401139169611604 7.0338668907080653 0 -0.68199836817093118 -0.7313536940579346 1.5 0 0 1 I I -0.70710678118654757 0.70710678118654757 1.5 forward I I I I #
loop $-1 $-1 $102 $27 #
coedge $-1 $64 $64 $103 $104 reversed $40 $-1 #
face $-1 $105 $106 $22 $-1 $107 reversed single #
loop $-1 $-1 $108 $42 #
plane-surface $-1 -37.113323636156537 -45.314037359727905 9.9334490559944584 0 -0.68199836817093118 0.7313536940579346 1 0 0 forward_v I I I I #
coedge $-1 $109 $110 $111 $112 reversed $43 $-1 #
face $-1 $-1 $113 $23 $-1 $114 forward single #
loop $-1 $115 $116 $45 #
cone-surface $-1 -37.113323636156537 -30.401139169611604 7.0338668907080759 0 0.68199836817093118 -0.7313536940579346 1.5 0 0 1 I I -0.70710678118654757 0.70710678118654757 1.5 forward I I I I #
loop $-1 $-1 $117 $29 #
coedge $-1 $73 $73 $118 $119 reversed $46 $-1 #
face $-1 $120 $121 $18 $-1 $122 reversed single #
loop $-1 $-1 $123 $48 #
plane-surface $-1 0 -45.314037359727884 0 0 1 0 0 0 1 forward_v I I I I #
coedge $-1 $124 $125 $126 $127 forward $49 $-1 #
coedge $-1 $128 $51 $129 $130 forward $31 $-1 #
coedge $-1 $51 $128 $131 $132 forward $31 $-1 #
coedge $-1 $133 $134 $51 $81 reversed $135 $-1 #
edge $-1 $136 -45.314037359727884 $137 45.314037359727884 $80 $138 forward 7 unknown #
face $-1 $139 $140 $19 $-1 $141 reversed single #
loop $-1 $-1 $142 $52 #
plane-surface $-1 -46.016487124182291 -29.474948864214777 0 -1 0 0 0 0 1 forward_v I I I I #
coedge $-1 $143 $144 $145 $146 forward $53 $-1 #
coedge $-1 $147 $55 $148 $149 reversed $34 $-1 #
coedge $-1 $55 $147 $150 $151 reversed $34 $-1 #
coedge $-1 $152 $153 $55 $89 forward $154 $-1 #
edge $-1 $155 -22.112702596463297 $156 22.112702596463297 $88 $157 forward 7 unknown #
face $-1 $158 $159 $20 $-1 $160 reversed single #
loop $-1 $-1 $161 $56 #
plane-surface $-1 -28.21016014813079 68.47794412477009 167.65975533642623 -1 0 0 0 0.68199836817093118 0.7313536940579346 forward_v I I I I #
coedge $-1 $162 $163 $164 $165 reversed $57 $-1 #
coedge $-1 $95 $59 $166 $167 reversed $37 $-1 #
coedge $-1 $59 $94 $162 $168 reversed $37 $-1 #
coedge $-1 $164 $169 $59 $97 forward $170 $-1 #
edge $-1 $171 -11.075065297342839 $172 1.9855848206022984 $96 $173 forward 7 unknown #
loop $-1 $-1 $103 $60 #
plane-surface $-1 -37.113323636156537 -20.967139871704603 71.741648125136507 0 0.68199836817093118 0.7313536940579346 1 0 0 forward_v I I I I #
loop $-1 $-1 $174 $39 #
coedge $-1 $101 $101 $102 $175 reversed $61 $-1 #
coedge $-1 $102 $102 $101 $175 forward $63 $-1 #
coedge $-1 $103 $103 $64 $104 forward $98 $-1 #
edge $-1 $176 -1.0414420990407142e-015 $176 6.2831853071795996 $103 $177 forward 7 unknown #
face $-1 $178 $179 $22 $-1 $180 forward single #
loop $-1 $-1 $181 $65 #
plane-surface $-1 0 -45.314037359727884 0 0 1 0 0 0 1 forward_v I I I I #
coedge $-1 $182 $183 $184 $185 reversed $66 $-1 #
coedge $-1 $110 $68 $186 $187 reversed $43 $-1 #
coedge $-1 $68 $109 $182 $188 reversed $43 $-1 #
coedge $-1 $184 $189 $68 $112 forward $179 $-1 #
edge $-1 $190 22.065523318373415 $191 35.126173436318531 $111 $192 forward 7 unknown #
loop $-1 $-1 $118 $69 #
plane-surface $-1 -37.113323636156537 -45.314037359727905 9.9334490559944584 0 -0.68199836817093118 0.7313536940579346 1 0 0 forward_v I I I I #
loop $-1 $-1 $193 $45 #
coedge $-1 $116 $116 $117 $194 reversed $70 $-1 #
coedge $-1 $117 $117 $116 $194 forward $72 $-1 #
coedge $-1 $118 $118 $73 $119 forward $113 $-1 #
edge $-1 $195 3.5069068280082758e-016 $195 6.2831853071796004 $118 $196 forward 7 unknown #
face $-1 $197 $198 $18 $-1 $199 reversed single #
loop $-1 $-1 $200 $74 #
plane-surface $-1 -65.575731681264685 0 0 1 0 0 0 0 -1 forward_v I I I I #
coedge $-1 $201 $131 $202 $203 forward $75 $-1 #
coedge $-1 $204 $77 $201 $205 forward $49 $-1 #
coedge $-1 $77 $204 $206 $207 forward $49 $-1 #
coedge $-1 $134 $133 $77 $127 reversed $135 $-1 #
edge $-1 $208 -45.314037359727884 $209 45.314037359727884 $126 $210 forward 7 unknown #
coedge $-1 $79 $78 $211 $212 forward $31 $-1 #
coedge $-1 $213 $214 $78 $130 reversed $198 $-1 #
edge $-1 $137 -65.575731681264685 $215 65.575731681264685 $129 $216 forward 7 unknown #
coedge $-1 $123 $217 $79 $132 reversed $75 $-1 #
edge $-1 $218 -65.575731681264685 $136 65.575731681264685 $131 $219 forward 7 unknown #
coedge $-1 $126 $80 $217 $220 forward $135 $-1 #
coedge $-1 $80 $126 $213 $221 reversed $135 $-1 #
loop $-1 $-1 $133 $197 #
vertex $-1 $81 $222 #
vertex $-1 $81 $223 #
straight-curve $-1 65.575731681264685 0 22.112702596463297 0 1 0 I I #
face $-1 $224 $225 $19 $-1 $226 forward single #
loop $-1 $-1 $227 $82 #
plane-surface $-1 0 0 -22.112702596463297 0 0 1 1 0 0 forward_v I I I I #
coedge $-1 $228 $229 $147 $230 forward $83 $-1 #
coedge $-1 $231 $85 $227 $232 reversed $53 $-1 #
coedge $-1 $85 $231 $233 $234 reversed $53 $-1 #
coedge $-1 $229 $228 $85 $146 reversed $83 $-1 #
edge $-1 $235 -22.112702596463297 $236 22.112702596463297 $145 $237 forward 7 unknown #
coedge $-1 $87 $86 $142 $230 reversed $34 $-1 #
coedge $-1 $238 $239 $86 $149 forward $140 $-1 #
edge $-1 $240 18.118432422820547 $155 37.677676979902941 $148 $241 forward 7 unknown #
coedge $-1 $242 $243 $87 $151 forward $225 $-1 #
edge $-1 $156 -37.677676979902941 $244 -18.118432422820547 $150 $245 forward 7 unknown #
coedge $-1 $246 $88 $243 $247 reversed $154 $-1 #
coedge $-1 $88 $246 $238 $248 reversed $154 $-1 #
loop $-1 $-1 $246 $224 #
vertex $-1 $248 $249 #
vertex $-1 $89 $250 #
straight-curve $-1 -65.575731681264685 -35.471029489228847 0 0 0 1 I I #
face $-1 $-1 $170 $20 $-1 $251 forward single #
loop $-1 $-1 $252 $90 #
plane-surface $-1 0 45.314037359727884 0 0 -1 0 0 0 -1 forward_v I I I I #
coedge $-1 $253 $254 $255 $256 reversed $91 $-1 #
coedge $-1 $257 $93 $95 $168 forward $57 $-1 #
coedge $-1 $93 $257 $253 $258 forward $57 $-1 #
coedge $-1 $255 $96 $93 $165 forward $170 $-1 #
edge $-1 $172 -27.459825306104015 $259 -9.6534983300525212 $164 $260 forward 7 unknown #
coedge $-1 $261 $262 $94 $167 forward $159 $-1 #
edge $-1 $263 -73.896428612218656 $171 -61.717175071749821 $166 $264 forward 7 unknown #
edge $-1 $172 72.769888968758607 $263 90.628074719455753 $95 $265 forward 7 unknown #
coedge $-1 $96 $255 $261 $266 forward $170 $-1 #
loop $-1 $-1 $255 $158 #
vertex $-1 $167 $267 #
vertex $-1 $97 $268 #
straight-curve $-1 -46.016487124182284 34.238972062385045 22.112702596463294 0 -1 0 I I #
coedge $-1 $174 $174 $-1 $269 reversed $100 $-1 #
edge $-1 $270 0 $270 6.2831853071796004 $101 $271 forward 7 unknown #
vertex $-1 $104 $272 #
ellipse-curve $-1 -37.113323636156537 38.783712300755319 16.023075826228872 0 0.68199836817093118 0.7313536940579346 3 0 0 1 I I #
face $-1 $-1 $273 $22 $-1 $274 forward single #
loop $-1 $-1 $275 $105 #
plane-surface $-1 0 0 22.112702596463297 0 0 1 1 0 0 forward_v I I I I #
coedge $-1 $276 $277 $278 $279 forward $106 $-1 #
coedge $-1 $280 $108 $110 $188 forward $66 $-1 #
coedge $-1 $108 $280 $281 $282 reversed $66 $-1 #
coedge $-1 $275 $111 $108 $185 forward $179 $-1 #
edge $-1 $191 9.6534983300525212 $283 27.459825306104015 $184 $284 forward 7 unknown #
coedge $-1 $277 $276 $109 $187 forward $106 $-1 #
edge $-1 $285 -42.992329077647611 $190 -30.813075537178793 $186 $286 forward 7 unknown #
edge $-1 $191 -17.85818575069716 $285 -2.8915938760888084e-014 $110 $287 forward 7 unknown #
coedge $-1 $111 $275 $277 $288 forward $179 $-1 #
vertex $-1 $112 $289 #
vertex $-1 $112 $290 #
straight-curve $-1 -28.21016014813079 -67.379560678101299 22.112702596463301 0 1 0 I I #
coedge $-1 $193 $193 $-1 $291 reversed $115 $-1 #
edge $-1 $292 0 $292 6.2831853071796004 $116 $293 forward 7 unknown #
vertex $-1 $119 $294 #
ellipse-curve $-1 -37.113323636156537 -38.783712300755326 16.02307582622889 0 -0.68199836817093118 0.7313536940579346 3 0 0 1 I I #
face $-1 $-1 $135 $18 $-1 $295 reversed single #
loop $-1 $-1 $213 $120 #
plane-surface $-1 0 45.314037359727884 0 0 -1 0 0 0 -1 forward_v I I I I #
coedge $-1 $296 $211 $214 $297 forward $121 $-1 #
coedge $-1 $217 $123 $124 $205 reversed $75 $-1 #
coedge $-1 $211 $296 $123 $203 reversed $121 $-1 #
edge $-1 $218 -22.112702596463297 $298 22.112702596463297 $202 $299 forward 7 unknown #
coedge $-1 $125 $124 $296 $300 forward $49 $-1 #
edge $-1 $209 -65.575731681264685 $298 65.575731681264685 $201 $301 forward 7 unknown #
coedge $-1 $214 $213 $125 $207 reversed $198 $-1 #
edge $-1 $302 -65.575731681264685 $208 65.575731681264685 $206 $303 forward 7 unknown #
vertex $-1 $127 $304 #
vertex $-1 $220 $305 #
straight-curve $-1 65.575731681264685 0 -22.112702596463297 0 -1 0 I I #
coedge $-1 $200 $202 $128 $212 reversed $121 $-1 #
edge $-1 $215 -45.314037359727884 $218 45.314037359727884 $211 $306 forward 7 unknown #
coedge $-1 $206 $129 $134 $221 forward $198 $-1 #
coedge $-1 $129 $206 $200 $297 reversed $198 $-1 #
vertex $-1 $130 $307 #
straight-curve $-1 0 45.314037359727884 22.112702596463297 -1 0 0 I I #
coedge $-1 $131 $201 $133 $220 reversed $75 $-1 #
vertex $-1 $212 $308 #
straight-curve $-1 0 -45.314037359727884 22.112702596463297 1 0 0 I I #
edge $-1 $136 -22.112702596463297 $209 22.112702596463297 $133 $309 forward 7 unknown #
edge $-1 $137 -22.112702596463297 $208 22.112702596463297 $134 $310 forward 7 unknown #
point $-1 65.575731681264685 -45.314037359727884 22.112702596463297 #
point $-1 65.575731681264685 45.314037359727884 22.112702596463297 #
face $-1 $-1 $154 $19 $-1 $311 reversed single #
loop $-1 $-1 $233 $139 #
plane-surface $-1 0 0 22.112702596463297 0 0 1 1 0 0 forward_v I I I I #
coedge $-1 $239 $238 $143 $232 forward $140 $-1 #
coedge $-1 $145 $142 $239 $312 reversed $83 $-1 #
coedge $-1 $142 $145 $242 $313 reversed $83 $-1 #
edge $-1 $244 -22.112702596463297 $240 22.112702596463297 $142 $314 forward 7 unknown #
coedge $-1 $144 $143 $246 $315 reversed $53 $-1 #
edge $-1 $316 -37.677676979902941 $236 -18.118432422820547 $227 $317 forward 7 unknown #
coedge $-1 $243 $242 $144 $234 forward $225 $-1 #
edge $-1 $235 18.118432422820547 $318 37.677676979902941 $233 $319 forward 7 unknown #
vertex $-1 $234 $320 #
vertex $-1 $232 $321 #
straight-curve $-1 -46.016487124182291 -23.478868239200708 0 0 0 -1 I I #
coedge $-1 $227 $148 $153 $248 forward $140 $-1 #
coedge $-1 $148 $227 $228 $312 forward $140 $-1 #
vertex $-1 $149 $322 #
straight-curve $-1 -27.898054701361744 -35.471029489228847 -22.112702596463297 -1 0 0 I I #
coedge $-1 $233 $150 $229 $313 forward $225 $-1 #
coedge $-1 $150 $233 $152 $247 forward $225 $-1 #
vertex $-1 $151 $323 #
straight-curve $-1 -27.898054701361744 -35.471029489228847 22.112702596463297 1 0 0 I I #
coedge $-1 $153 $152 $231 $315 forward $154 $-1 #
edge $-1 $318 23.478868239200708 $156 35.471029489228847 $152 $324 forward 7 unknown #
edge $-1 $155 -35.471029489228847 $316 -23.478868239200708 $153 $325 forward 7 unknown #
point $-1 -65.575731681264685 -35.471029489228847 -22.112702596463297 #
point $-1 -65.575731681264685 -35.471029489228847 22.112702596463297 #
plane-surface $-1 0 0 22.112702596463297 0 0 1 1 0 0 forward_v I I I I #
coedge $-1 $262 $261 $254 $326 forward $159 $-1 #
coedge $-1 $254 $161 $163 $258 reversed $91 $-1 #
coedge $-1 $161 $253 $252 $326 reversed $91 $-1 #
coedge $-1 $169 $164 $161 $256 forward $170 $-1 #
edge $-1 $259 -1.9855848206022984 $327 11.075065297342839 $255 $328 forward 7 unknown #
coedge $-1 $163 $162 $262 $329 reversed $57 $-1 #
edge $-1 $330 -90.628074719455753 $259 -72.769888968758607 $253 $331 forward 7 unknown #
vertex $-1 $165 $332 #
straight-curve $-1 -18.556661818078268 32.253387241782747 22.112702596463294 1 0 0 I I #
coedge $-1 $252 $166 $169 $266 reversed $159 $-1 #
coedge $-1 $166 $252 $257 $329 forward $159 $-1 #
vertex $-1 $167 $333 #
straight-curve $-1 -46.016487124182284 45.314037359727884 83.829877668213115 0 0 1 I I #
straight-curve $-1 -46.016487124182284 -20.967139871704603 71.741648125136507 0 0.7313536940579346 -0.68199836817093118 I I #
edge $-1 $327 28.21016014813079 $171 46.016487124182284 $261 $334 forward 7 unknown #
point $-1 -46.016487124182284 45.314037359727884 22.112702596463297 #
point $-1 -46.016487124182284 32.253387241782747 22.112702596463294 #
edge $-1 $335 1 $335 0 $174 $-1 forward 7 unknown #
vertex $-1 $175 $336 #
ellipse-curve $-1 -37.113323636156537 31.424136721867999 8.1308974317949669 0 0.68199836817093118 0.7313536940579346 3 0 0 1 I I #
point $-1 -34.113323636156537 38.783712300755305 16.023075826228862 #
loop $-1 $-1 $281 $178 #
plane-surface $-1 -46.016487124182291 -29.474948864214777 0 -1 0 0 0 0 1 forward_v I I I I #
coedge $-1 $189 $184 $337 $338 forward $179 $-1 #
coedge $-1 $186 $181 $280 $339 forward $106 $-1 #
coedge $-1 $181 $186 $189 $288 reversed $106 $-1 #
coedge $-1 $337 $281 $181 $279 reversed $273 $-1 #
edge $-1 $340 30.813075537178793 $341 42.992329077647611 $181 $342 forward 7 unknown #
coedge $-1 $183 $182 $276 $339 reversed $66 $-1 #
coedge $-1 $278 $337 $183 $282 forward $273 $-1 #
edge $-1 $283 -15.453495833093781 $341 2.4046899176033492 $281 $343 forward 7 unknown #
vertex $-1 $338 $344 #
straight-curve $-1 -18.556661818078268 -32.253387241782761 22.112702596463297 -1 0 0 I I #
vertex $-1 $187 $345 #
straight-curve $-1 -28.21016014813079 -45.314037359727884 52.92577813364209 0 0 1 I I #
straight-curve $-1 -28.21016014813079 -45.314037359727905 9.9334490559944584 0 -0.7313536940579346 -0.68199836817093118 I I #
edge $-1 $340 -46.016487124182284 $190 -28.21016014813079 $277 $346 forward 7 unknown #
point $-1 -28.21016014813079 -45.314037359727884 22.112702596463297 #
point $-1 -28.21016014813079 -32.253387241782768 22.112702596463297 #
edge $-1 $347 1 $347 0 $193 $-1 forward 7 unknown #
vertex $-1 $194 $348 #
ellipse-curve $-1 -37.113323636156537 -31.424136721867999 8.1308974317949776 0 -0.68199836817093118 0.7313536940579346 3 0 0 1 I I #
point $-1 -34.113323636156537 -38.783712300755305 16.023075826228869 #
plane-surface $-1 65.575731681264685 0 0 -1 0 0 0 0 1 forward_v I I I I #
coedge $-1 $202 $200 $204 $300 reversed $121 $-1 #
edge $-1 $215 -22.112702596463297 $302 22.112702596463297 $214 $349 forward 7 unknown #
vertex $-1 $300 $350 #
straight-curve $-1 -65.575731681264685 -45.314037359727884 0 0 0 -1 I I #
edge $-1 $298 -45.314037359727884 $302 45.314037359727884 $296 $351 forward 7 unknown #
straight-curve $-1 0 -45.314037359727884 -22.112702596463297 -1 0 0 I I #
vertex $-1 $207 $352 #
straight-curve $-1 0 45.314037359727884 -22.112702596463297 1 0 0 I I #
point $-1 65.575731681264685 45.314037359727884 -22.112702596463297 #
point $-1 65.575731681264685 -45.314037359727884 -22.112702596463297 #
straight-curve $-1 -65.575731681264685 0 22.112702596463297 0 -1 0 I I #
point $-1 -65.575731681264685 45.314037359727884 22.112702596463297 #
point $-1 -65.575731681264685 -45.314037359727884 22.112702596463297 #
straight-curve $-1 65.575731681264685 -45.314037359727884 0 0 0 -1 I I #
straight-curve $-1 65.575731681264685 45.314037359727884 0 0 0 -1 I I #
plane-surface $-1 -65.575731681264685 0 0 1 0 0 0 0 -1 forward_v I I I I #
edge $-1 $236 8.7413938070933188 $240 20.733555057121457 $239 $353 forward 7 unknown #
edge $-1 $244 -20.733555057121457 $235 -8.7413938070933188 $242 $354 forward 7 unknown #
straight-curve $-1 -46.016487124182291 -35.471029489228847 0 0 0 -1 I I #
edge $-1 $318 -22.112702596463297 $316 22.112702596463297 $246 $355 forward 7 unknown #
vertex $-1 $315 $356 #
straight-curve $-1 -27.898054701361744 -23.478868239200708 -22.112702596463297 1 0 0 I I #
vertex $-1 $247 $357 #
straight-curve $-1 -27.898054701361744 -23.478868239200708 22.112702596463297 -1 0 0 I I #
point $-1 -46.016487124182291 -23.478868239200708 22.112702596463297 #
point $-1 -46.016487124182291 -23.478868239200708 -22.112702596463297 #
point $-1 -46.016487124182291 -35.471029489228847 -22.112702596463297 #
point $-1 -46.016487124182291 -35.471029489228847 22.112702596463297 #
straight-curve $-1 -65.575731681264685 0 22.112702596463297 0 -1 0 I I #
straight-curve $-1 -65.575731681264685 0 -22.112702596463297 0 1 0 I I #
edge $-1 $327 61.717175071749821 $330 73.896428612218656 $252 $358 forward 7 unknown #
vertex $-1 $266 $359 #
straight-curve $-1 -28.21016014813079 34.238972062385045 22.112702596463294 0 1 0 I I #
edge $-1 $330 9.6534983300525212 $263 27.459825306104015 $262 $360 forward 7 unknown #
vertex $-1 $329 $361 #
straight-curve $-1 -28.21016014813079 -20.967139871704603 71.741648125136507 0 -0.7313536940579346 0.68199836817093118 I I #
point $-1 -28.21016014813079 32.253387241782747 22.112702596463294 #
point $-1 -46.016487124182284 45.314037359727877 9.9334490559944584 #
straight-curve $-1 0 45.314037359727884 22.112702596463297 -1 0 0 I I #
vertex $-1 $269 $362 #
point $-1 -34.113323636156537 31.424136721867999 8.1308974317949669 #
coedge $-1 $281 $278 $275 $338 reversed $273 $-1 #
edge $-1 $283 -35.126173436318531 $340 -22.065523318373415 $275 $363 forward 7 unknown #
edge $-1 $341 -27.459825306104015 $285 -9.6534983300525212 $276 $364 forward 7 unknown #
vertex $-1 $288 $365 #
vertex $-1 $279 $366 #
straight-curve $-1 -46.016487124182284 -45.314037359727884 52.92577813364209 0 0 -1 I I #
straight-curve $-1 -46.016487124182291 -43.555358505424806 11.573443655757055 0 -0.7313536940579346 -0.68199836817093118 I I #
point $-1 -46.016487124182284 -32.253387241782768 22.112702596463297 #
point $-1 -28.21016014813079 -45.314037359727884 9.9334490559944779 #
straight-curve $-1 0 -45.314037359727884 22.112702596463297 1 0 0 I I #
vertex $-1 $291 $367 #
point $-1 -34.113323636156537 -31.424136721867999 8.1308974317949776 #
straight-curve $-1 -65.575731681264685 45.314037359727884 0 0 0 -1 I I #
point $-1 -65.575731681264685 -45.314037359727884 -22.112702596463297 #
straight-curve $-1 -65.575731681264685 0 -22.112702596463297 0 1 0 I I #
point $-1 -65.575731681264685 45.314037359727884 -22.112702596463297 #
straight-curve $-1 -46.016487124182291 -14.737474432107389 -22.112702596463297 0 -1 0 I I #
straight-curve $-1 -46.016487124182291 -14.737474432107389 22.112702596463297 0 1 0 I I #
straight-curve $-1 -65.575731681264685 -23.478868239200708 0 0 0 -1 I I #
point $-1 -65.575731681264685 -23.478868239200708 -22.112702596463297 #
point $-1 -65.575731681264685 -23.478868239200708 22.112702596463297 #
straight-curve $-1 -28.21016014813079 45.314037359727884 83.829877668213115 0 0 -1 I I #
point $-1 -28.21016014813079 45.314037359727884 22.112702596463297 #
straight-curve $-1 -18.556661818078268 45.314037359727877 9.9334490559944655 -1 0 0 I I #
point $-1 -28.21016014813079 45.314037359727877 9.9334490559944584 #
point $-1 -37.113323636156537 29.378141617355208 5.9368363496211636 #
straight-curve $-1 -46.016487124182284 -67.379560678101299 22.112702596463301 0 -1 0 I I #
straight-curve $-1 -18.556661818078268 -45.314037359727884 9.9334490559944761 1 0 0 I I #
point $-1 -46.016487124182284 -45.314037359727884 22.112702596463297 #
point $-1 -46.016487124182284 -45.314037359727884 9.9334490559944779 #
point $-1 -37.113323636156537 -29.378141617355208 5.9368363496211742 #
End-of-ACIS-data 