500 0 21 0           
7 Unknown 11 ACIS 5.0 NT 24 Fri Mar 26 01:30:48 1999 
-1 9.9999999999999995e-007 1e-010 
body $-1 $21 $-1 $22 #
body $-1 $23 $-1 $24 #
body $-1 $25 $-1 $26 #
body $-1 $27 $-1 $28 #
body $-1 $29 $-1 $30 #
body $-1 $31 $-1 $32 #
body $-1 $33 $-1 $34 #
body $-1 $35 $-1 $36 #
body $-1 $37 $-1 $38 #
body $-1 $39 $-1 $40 #
body $-1 $41 $-1 $42 #
body $-1 $43 $-1 $44 #
body $-1 $45 $-1 $46 #
body $-1 $47 $-1 $48 #
body $-1 $49 $-1 $50 #
body $-1 $51 $-1 $52 #
body $-1 $53 $-1 $54 #
body $-1 $55 $-1 $56 #
body $-1 $57 $-1 $58 #
body $-1 $59 $-1 $60 #
body $-1 $61 $-1 $62 #
lump $-1 $-1 $63 $0 #
transform $-1 1 0 0 0 1 0 0 0 1 72.485122226630452 50.736267351807001 19.242527203828434 1 rotate no_reflect no_shear #
lump $-1 $-1 $64 $1 #
transform $-1 1 0 0 0 1 0 0 0 1 72.485122226630452 50.736267351807001 19.242527203828434 1 rotate no_reflect no_shear #
lump $-1 $-1 $65 $2 #
transform $-1 1 0 0 0 1 0 0 0 1 72.485122226630452 50.736267351807001 19.242527203828434 1 rotate no_reflect no_shear #
lump $-1 $-1 $66 $3 #
transform $-1 1 0 0 0 1 0 0 0 1 72.485122226630452 50.736267351807001 19.242527203828434 1 rotate no_reflect no_shear #
lump $-1 $-1 $67 $4 #
transform $-1 1 0 0 0 1 0 0 0 1 72.485122226630452 50.736267351807001 19.242527203828434 1 rotate no_reflect no_shear #
lump $-1 $-1 $68 $5 #
transform $-1 1 0 0 0 1 0 0 0 1 72.485122226630452 50.736267351807001 19.242527203828434 1 rotate no_reflect no_shear #
lump $-1 $-1 $69 $6 #
transform $-1 1 0 0 0 1 0 0 0 1 72.485122226630452 50.736267351807001 19.242527203828434 1 rotate no_reflect no_shear #
lump $-1 $-1 $70 $7 #
transform $-1 1 0 0 0 1 0 0 0 1 72.485122226630452 50.736267351807001 19.242527203828434 1 rotate no_reflect no_shear #
lump $-1 $-1 $71 $8 #
transform $-1 1 0 0 0 1 0 0 0 1 72.485122226630452 50.736267351807001 19.242527203828434 1 rotate no_reflect no_shear #
lump $-1 $-1 $72 $9 #
transform $-1 1 0 0 0 1 0 0 0 1 72.485122226630452 50.736267351807001 19.242527203828434 1 rotate no_reflect no_shear #
lump $-1 $-1 $73 $10 #
transform $-1 1 0 0 0 1 0 0 0 1 72.485122226630452 50.736267351807001 19.242527203828434 1 rotate no_reflect no_shear #
lump $-1 $-1 $74 $11 #
transform $-1 1 0 0 0 1 0 0 0 1 72.485122226630452 50.736267351807001 19.242527203828434 1 rotate no_reflect no_shear #
lump $-1 $-1 $75 $12 #
transform $-1 1 0 0 0 1 0 0 0 1 72.485122226630452 50.736267351807001 19.242527203828434 1 rotate no_reflect no_shear #
lump $-1 $-1 $76 $13 #
transform $-1 1 0 0 0 1 0 0 0 1 72.485122226630452 50.736267351807001 19.242527203828434 1 rotate no_reflect no_shear #
lump $-1 $-1 $77 $14 #
transform $-1 1 0 0 0 1 0 0 0 1 72.485122226630452 50.736267351807001 19.242527203828434 1 rotate no_reflect no_shear #
lump $-1 $-1 $78 $15 #
transform $-1 1 0 0 0 1 0 0 0 1 72.485122226630452 50.736267351807001 19.242527203828434 1 rotate no_reflect no_shear #
lump $-1 $-1 $79 $16 #
transform $-1 1 0 0 0 1 0 0 0 1 72.485122226630452 50.736267351807001 19.242527203828434 1 rotate no_reflect no_shear #
lump $-1 $-1 $80 $17 #
transform $-1 1 0 0 0 1 0 0 0 1 72.485122226630452 50.736267351807001 19.242527203828434 1 rotate no_reflect no_shear #
lump $-1 $-1 $81 $18 #
transform $-1 1 0 0 0 1 0 0 0 1 72.485122226630452 50.736267351807001 19.242527203828434 1 rotate no_reflect no_shear #
lump $-1 $-1 $82 $19 #
transform $-1 1 0 0 0 1 0 0 0 1 72.485122226630452 50.736267351807001 19.242527203828434 1 rotate no_reflect no_shear #
lump $-1 $-1 $83 $20 #
transform $-1 1 0 0 0 1 0 0 0 1 72.485122226630452 50.736267351807001 19.242527203828434 1 rotate no_reflect no_shear #
shell $-1 $-1 $-1 $84 $-1 $21 #
shell $-1 $-1 $-1 $85 $-1 $23 #
shell $-1 $-1 $-1 $86 $-1 $25 #
shell $-1 $-1 $-1 $87 $-1 $27 #
shell $-1 $-1 $-1 $88 $-1 $29 #
shell $-1 $-1 $-1 $89 $-1 $31 #
shell $-1 $-1 $-1 $90 $-1 $33 #
shell $-1 $-1 $-1 $91 $-1 $35 #
shell $-1 $-1 $-1 $92 $-1 $37 #
shell $-1 $-1 $-1 $93 $-1 $39 #
shell $-1 $-1 $-1 $94 $-1 $41 #
shell $-1 $-1 $-1 $95 $-1 $43 #
shell $-1 $-1 $-1 $96 $-1 $45 #
shell $-1 $-1 $-1 $97 $-1 $47 #
shell $-1 $-1 $-1 $98 $-1 $49 #
shell $-1 $-1 $-1 $99 $-1 $51 #
shell $-1 $-1 $-1 $100 $-1 $53 #
shell $-1 $-1 $-1 $101 $-1 $55 #
shell $-1 $-1 $-1 $102 $-1 $57 #
shell $-1 $-1 $-1 $103 $-1 $59 #
shell $-1 $-1 $-1 $104 $-1 $61 #
face $-1 $105 $106 $63 $-1 $107 forward single #
face $-1 $108 $109 $64 $-1 $110 forward single #
face $-1 $111 $112 $65 $-1 $113 reversed single #
face $-1 $114 $115 $66 $-1 $116 forward single #
face $-1 $117 $118 $67 $-1 $119 forward single #
face $-1 $120 $121 $68 $-1 $122 forward single #
face $-1 $123 $124 $69 $-1 $125 reversed single #
face $-1 $126 $127 $70 $-1 $128 forward single #
face $-1 $129 $130 $71 $-1 $131 forward single #
face $-1 $132 $133 $72 $-1 $134 forward single #
face $-1 $135 $136 $73 $-1 $137 reversed single #
face $-1 $138 $139 $74 $-1 $140 forward single #
face $-1 $141 $142 $75 $-1 $143 forward single #
face $-1 $144 $145 $76 $-1 $146 forward single #
face $-1 $147 $148 $77 $-1 $149 reversed single #
face $-1 $150 $151 $78 $-1 $152 forward single #
face $-1 $153 $154 $79 $-1 $155 forward single #
face $-1 $156 $157 $80 $-1 $158 forward single #
face $-1 $159 $160 $81 $-1 $161 reversed single #
face $-1 $162 $163 $82 $-1 $164 forward single #
face $-1 $165 $166 $83 $-1 $167 forward single #
face $-1 $168 $169 $63 $-1 $170 reversed single #
loop $-1 $-1 $171 $84 #
plane-surface $-1 0 0 19.242527203828434 0 0 1 1 0 0 forward_v I I I I #
face $-1 $172 $173 $64 $-1 $174 forward single #
loop $-1 $-1 $175 $85 #
plane-surface $-1 -72.485122226630452 0 0 1 0 0 0 0 -1 forward_v I I I I #
face $-1 $176 $177 $65 $-1 $178 reversed single #
loop $-1 $-1 $179 $86 #
plane-surface $-1 -51.840519814653469 41.505204218634887 177.51850821428337 1 0 0 0 -0.52991927123019833 -0.84804809178421925 forward_v I I I I #
face $-1 $180 $181 $66 $-1 $182 forward single #
loop $-1 $183 $184 $87 #
cone-surface $-1 -49.136160490022498 35.717816119273422 9.5994982561138702 0 -0.52991927123019833 -0.84804809178421925 0.5 0 0 1 I I 0 1 0.5 forward I I I I #
face $-1 $185 $186 $67 $-1 $187 forward single #
loop $-1 $188 $189 $88 #
cone-surface $-1 -45.079621503076041 35.717816119273422 9.5994982561138702 0 -0.52991927123019833 -0.84804809178421925 0.5 0 0 1 I I 0 1 0.5 forward I I I I #
face $-1 $190 $191 $68 $-1 $192 forward single #
loop $-1 $193 $194 $89 #
cone-surface $-1 -41.023082516129584 35.717816119273422 9.5994982561138702 0 -0.52991927123019833 -0.84804809178421925 0.5 0 0 1 I I 0 1 0.5 forward I I I I #
face $-1 $195 $196 $69 $-1 $197 reversed single #
loop $-1 $-1 $198 $90 #
plane-surface $-1 -15.635138876746936 41.505204218634887 177.51850821428337 1 0 0 0 -0.52991927123019833 -0.84804809178421925 forward_v I I I I #
face $-1 $199 $200 $70 $-1 $201 forward single #
loop $-1 $202 $203 $91 #
cone-surface $-1 -12.930779552115965 35.717816119273422 9.5994982561138702 0 -0.52991927123019833 -0.84804809178421925 0.5 0 0 1 I I 0 1 0.5 forward I I I I #
face $-1 $204 $205 $71 $-1 $206 forward single #
loop $-1 $207 $208 $92 #
cone-surface $-1 -8.874240565169508 35.717816119273422 9.5994982561138702 0 -0.52991927123019833 -0.84804809178421925 0.5 0 0 1 I I 0 1 0.5 forward I I I I #
face $-1 $209 $210 $72 $-1 $211 forward single #
loop $-1 $212 $213 $93 #
cone-surface $-1 -4.8177015782230512 35.717816119273422 9.5994982561138702 0 -0.52991927123019833 -0.84804809178421925 0.5 0 0 1 I I 0 1 0.5 forward I I I I #
face $-1 $214 $215 $73 $-1 $216 reversed single #
loop $-1 $-1 $217 $94 #
plane-surface $-1 20.570242061159597 41.505204218634887 177.51850821428337 1 0 0 0 -0.52991927123019833 -0.84804809178421925 forward_v I I I I #
face $-1 $218 $219 $74 $-1 $220 forward single #
loop $-1 $221 $222 $95 #
cone-surface $-1 23.274601385790575 35.717816119273422 9.5994982561138702 0 -0.52991927123019833 -0.84804809178421925 0.5 0 0 1 I I 0 1 0.5 forward I I I I #
face $-1 $223 $224 $75 $-1 $225 forward single #
loop $-1 $226 $227 $96 #
cone-surface $-1 27.331140372737025 35.717816119273422 9.5994982561138702 0 -0.52991927123019833 -0.84804809178421925 0.5 0 0 1 I I 0 1 0.5 forward I I I I #
face $-1 $228 $229 $76 $-1 $230 forward single #
loop $-1 $231 $232 $97 #
cone-surface $-1 31.387679359683474 35.717816119273422 9.5994982561138702 0 -0.52991927123019833 -0.84804809178421925 0.5 0 0 1 I I 0 1 0.5 forward I I I I #
face $-1 $233 $234 $77 $-1 $235 reversed single #
loop $-1 $-1 $236 $98 #
plane-surface $-1 56.775622999066123 41.505204218634887 177.51850821428337 1 0 0 0 -0.52991927123019833 -0.84804809178421925 forward_v I I I I #
face $-1 $237 $238 $78 $-1 $239 forward single #
loop $-1 $240 $241 $99 #
cone-surface $-1 59.479982323697115 35.717816119273422 9.5994982561138702 0 -0.52991927123019833 -0.84804809178421925 0.5 0 0 1 I I 0 1 0.5 forward I I I I #
face $-1 $242 $243 $79 $-1 $244 forward single #
loop $-1 $245 $246 $100 #
cone-surface $-1 63.53652131064355 35.717816119273422 9.5994982561138702 0 -0.52991927123019833 -0.84804809178421925 0.5 0 0 1 I I 0 1 0.5 forward I I I I #
face $-1 $247 $248 $80 $-1 $249 forward single #
loop $-1 $250 $251 $101 #
cone-surface $-1 67.593060297590014 35.717816119273422 9.5994982561138702 0 -0.52991927123019833 -0.84804809178421925 0.5 0 0 1 I I 0 1 0.5 forward I I I I #
face $-1 $252 $253 $81 $-1 $254 reversed single #
loop $-1 $-1 $255 $102 #
plane-surface $-1 60.705705466543101 -145.84530631693087 123.64339997608617 -1 0 0 0 -0.6560590369687036 0.75470957328743171 forward_v I I I I #
face $-1 $256 $257 $82 $-1 $258 forward single #
loop $-1 $259 $260 $103 #
cone-surface $-1 51.635943717215795 -47.131495672911427 15.905625744863968 0 0.6560590369687036 -0.75470957328743171 1 0 0 1 I I 0 1 1 forward I I I I #
face $-1 $261 $262 $83 $-1 $263 forward single #
loop $-1 $264 $265 $104 #
cone-surface $-1 57.077800766812189 -47.131495672911427 15.905625744863968 0 0.6560590369687036 -0.75470957328743171 1 0 0 1 I I 0 1 1 forward I I I I #
face $-1 $266 $267 $63 $-1 $268 reversed single #
loop $-1 $-1 $269 $105 #
plane-surface $-1 0 0 -19.242527203828434 0 0 1 1 0 0 forward_v I I I I #
coedge $-1 $270 $271 $272 $273 forward $106 $-1 #
face $-1 $274 $275 $64 $-1 $276 reversed single #
loop $-1 $-1 $277 $108 #
plane-surface $-1 0 0 19.242527203828434 0 0 1 1 0 0 forward_v I I I I #
coedge $-1 $278 $279 $280 $281 forward $109 $-1 #
face $-1 $282 $283 $65 $-1 $284 reversed single #
loop $-1 $-1 $285 $111 #
plane-surface $-1 -45.079621503076041 -35.317322072100836 54.576769040203672 0 0.52991927123019833 0.84804809178421925 1 0 0 forward_v I I I I #
coedge $-1 $286 $287 $288 $289 reversed $112 $-1 #
face $-1 $-1 $290 $66 $-1 $291 forward single #
loop $-1 $292 $293 $114 #
cone-surface $-1 -49.136160490022498 35.320376665850773 8.9634621872757059 0 -0.52991927123019833 -0.84804809178421925 0.25 0 0 1 I I -0.70710678118654746 0.70710678118654746 0.25 forward I I I I #
loop $-1 $-1 $294 $87 #
coedge $-1 $184 $184 $295 $296 reversed $115 $-1 #
face $-1 $-1 $297 $67 $-1 $298 forward single #
loop $-1 $299 $300 $117 #
cone-surface $-1 -45.079621503076041 35.320376665850773 8.9634621872757059 0 -0.52991927123019833 -0.84804809178421925 0.25 0 0 1 I I -0.70710678118654746 0.70710678118654746 0.25 forward I I I I #
loop $-1 $-1 $301 $88 #
coedge $-1 $189 $189 $302 $303 reversed $118 $-1 #
face $-1 $-1 $304 $68 $-1 $305 forward single #
loop $-1 $306 $307 $120 #
cone-surface $-1 -41.023082516129584 35.320376665850773 8.9634621872757059 0 -0.52991927123019833 -0.84804809178421925 0.25 0 0 1 I I -0.70710678118654746 0.70710678118654746 0.25 forward I I I I #
loop $-1 $-1 $308 $89 #
coedge $-1 $194 $194 $309 $310 reversed $121 $-1 #
face $-1 $311 $312 $69 $-1 $313 reversed single #
loop $-1 $-1 $314 $123 #
plane-surface $-1 -8.874240565169508 -35.317322072100836 54.576769040203672 0 0.52991927123019833 0.84804809178421925 1 0 0 forward_v I I I I #
coedge $-1 $315 $316 $317 $318 reversed $124 $-1 #
face $-1 $-1 $319 $70 $-1 $320 forward single #
loop $-1 $321 $322 $126 #
cone-surface $-1 -12.930779552115965 35.320376665850773 8.9634621872757059 0 -0.52991927123019833 -0.84804809178421925 0.25 0 0 1 I I -0.70710678118654746 0.70710678118654746 0.25 forward I I I I #
loop $-1 $-1 $323 $91 #
coedge $-1 $203 $203 $324 $325 reversed $127 $-1 #
face $-1 $-1 $326 $71 $-1 $327 forward single #
loop $-1 $328 $329 $129 #
cone-surface $-1 -8.874240565169508 35.320376665850773 8.9634621872757059 0 -0.52991927123019833 -0.84804809178421925 0.25 0 0 1 I I -0.70710678118654746 0.70710678118654746 0.25 forward I I I I #
loop $-1 $-1 $330 $92 #
coedge $-1 $208 $208 $331 $332 reversed $130 $-1 #
face $-1 $-1 $333 $72 $-1 $334 forward single #
loop $-1 $335 $336 $132 #
cone-surface $-1 -4.8177015782230512 35.320376665850773 8.9634621872757059 0 -0.52991927123019833 -0.84804809178421925 0.25 0 0 1 I I -0.70710678118654746 0.70710678118654746 0.25 forward I I I I #
loop $-1 $-1 $337 $93 #
coedge $-1 $213 $213 $338 $339 reversed $133 $-1 #
face $-1 $340 $341 $73 $-1 $342 reversed single #
loop $-1 $-1 $343 $135 #
plane-surface $-1 27.331140372737025 -35.317322072100836 54.576769040203672 0 0.52991927123019833 0.84804809178421925 1 0 0 forward_v I I I I #
coedge $-1 $344 $345 $346 $347 reversed $136 $-1 #
face $-1 $-1 $348 $74 $-1 $349 forward single #
loop $-1 $350 $351 $138 #
cone-surface $-1 23.274601385790575 35.320376665850773 8.9634621872757059 0 -0.52991927123019833 -0.84804809178421925 0.25 0 0 1 I I -0.70710678118654746 0.70710678118654746 0.25 forward I I I I #
loop $-1 $-1 $352 $95 #
coedge $-1 $222 $222 $353 $354 reversed $139 $-1 #
face $-1 $-1 $355 $75 $-1 $356 forward single #
loop $-1 $357 $358 $141 #
cone-surface $-1 27.331140372737025 35.320376665850773 8.9634621872757059 0 -0.52991927123019833 -0.84804809178421925 0.25 0 0 1 I I -0.70710678118654746 0.70710678118654746 0.25 forward I I I I #
loop $-1 $-1 $359 $96 #
coedge $-1 $227 $227 $360 $361 reversed $142 $-1 #
face $-1 $-1 $362 $76 $-1 $363 forward single #
loop $-1 $364 $365 $144 #
cone-surface $-1 31.387679359683474 35.320376665850773 8.9634621872757059 0 -0.52991927123019833 -0.84804809178421925 0.25 0 0 1 I I -0.70710678118654746 0.70710678118654746 0.25 forward I I I I #
loop $-1 $-1 $366 $97 #
coedge $-1 $232 $232 $367 $368 reversed $145 $-1 #
face $-1 $369 $370 $77 $-1 $371 reversed single #
loop $-1 $-1 $372 $147 #
plane-surface $-1 63.53652131064355 -35.317322072100836 54.576769040203672 0 0.52991927123019833 0.84804809178421925 1 0 0 forward_v I I I I #
coedge $-1 $373 $374 $375 $376 reversed $148 $-1 #
face $-1 $-1 $377 $78 $-1 $378 forward single #
loop $-1 $379 $380 $150 #
cone-surface $-1 59.479982323697115 35.320376665850773 8.9634621872757059 0 -0.52991927123019833 -0.84804809178421925 0.25 0 0 1 I I -0.70710678118654746 0.70710678118654746 0.25 forward I I I I #
loop $-1 $-1 $381 $99 #
coedge $-1 $241 $241 $382 $383 reversed $151 $-1 #
face $-1 $-1 $384 $79 $-1 $385 forward single #
loop $-1 $386 $387 $153 #
cone-surface $-1 63.53652131064355 35.320376665850773 8.9634621872757059 0 -0.52991927123019833 -0.84804809178421925 0.25 0 0 1 I I -0.70710678118654746 0.70710678118654746 0.25 forward I I I I #
loop $-1 $-1 $388 $100 #
coedge $-1 $246 $246 $389 $390 reversed $154 $-1 #
face $-1 $-1 $391 $80 $-1 $392 forward single #
loop $-1 $393 $394 $156 #
cone-surface $-1 67.593060297590014 35.320376665850773 8.9634621872757059 0 -0.52991927123019833 -0.84804809178421925 0.25 0 0 1 I I -0.70710678118654746 0.70710678118654746 0.25 forward I I I I #
loop $-1 $-1 $395 $101 #
coedge $-1 $251 $251 $396 $397 reversed $157 $-1 #
face $-1 $398 $399 $81 $-1 $400 reversed single #
loop $-1 $-1 $401 $159 #
plane-surface $-1 54.356872242013978 -50.736267351806987 14.232968645390969 0 -0.6560590369687036 0.75470957328743171 1 0 0 forward_v I I I I #
coedge $-1 $402 $403 $404 $405 reversed $160 $-1 #
face $-1 $-1 $406 $82 $-1 $407 forward single #
loop $-1 $408 $409 $162 #
cone-surface $-1 51.635943717215795 -46.080113363887648 14.69614877847452 0 0.6560590369687036 -0.75470957328743171 0.5 0 0 1 I I -0.70710678118654746 0.70710678118654746 0.5 forward I I I I #
loop $-1 $-1 $410 $103 #
coedge $-1 $260 $260 $411 $412 reversed $163 $-1 #
face $-1 $-1 $413 $83 $-1 $414 forward single #
loop $-1 $415 $416 $165 #
cone-surface $-1 57.077800766812189 -46.080113363887648 14.69614877847452 0 0.6560590369687036 -0.75470957328743171 0.5 0 0 1 I I -0.70710678118654746 0.70710678118654746 0.5 forward I I I I #
loop $-1 $-1 $417 $104 #
coedge $-1 $265 $265 $418 $419 reversed $166 $-1 #
face $-1 $420 $421 $63 $-1 $422 reversed single #
loop $-1 $-1 $423 $168 #
plane-surface $-1 0 -50.736267351807001 0 0 1 0 0 0 1 forward_v I I I I #
coedge $-1 $424 $425 $426 $427 forward $169 $-1 #
coedge $-1 $428 $171 $429 $430 forward $106 $-1 #
coedge $-1 $171 $428 $431 $432 forward $106 $-1 #
coedge $-1 $433 $434 $171 $273 reversed $435 $-1 #
edge $-1 $436 -50.736267351807001 $437 50.736267351807001 $272 $438 forward 7 unknown #
face $-1 $439 $440 $64 $-1 $441 reversed single #
loop $-1 $-1 $442 $172 #
plane-surface $-1 -90.942022034197961 -46.254996535446196 0 1 0 0 0 0 -1 forward_v I I I I #
coedge $-1 $443 $444 $278 $445 forward $173 $-1 #
coedge $-1 $446 $175 $277 $445 reversed $109 $-1 #
coedge $-1 $175 $446 $447 $448 reversed $109 $-1 #
coedge $-1 $449 $450 $175 $281 reversed $440 $-1 #
edge $-1 $451 -19.242527203828434 $452 19.242527203828434 $280 $453 forward 7 unknown #
face $-1 $454 $455 $65 $-1 $456 forward single #
loop $-1 $-1 $457 $176 #
plane-surface $-1 -38.318723191498613 41.505204218634887 177.51850821428337 -1 0 0 0 0.52991927123019833 0.84804809178421925 forward_v I I I I #
coedge $-1 $458 $459 $460 $461 reversed $177 $-1 #
coedge $-1 $287 $179 $462 $463 reversed $112 $-1 #
coedge $-1 $179 $286 $458 $464 reversed $112 $-1 #
coedge $-1 $460 $465 $179 $289 forward $455 $-1 #
edge $-1 $466 -29.983665242489558 $467 -0.47668204865259156 $288 $468 forward 7 unknown #
loop $-1 $-1 $295 $180 #
plane-surface $-1 -45.079621503076041 -35.317322072100836 54.576769040203672 0 0.52991927123019833 0.84804809178421925 1 0 0 forward_v I I I I #
loop $-1 $-1 $469 $114 #
coedge $-1 $293 $293 $294 $470 reversed $181 $-1 #
coedge $-1 $294 $294 $293 $470 forward $183 $-1 #
coedge $-1 $295 $295 $184 $296 forward $290 $-1 #
edge $-1 $471 6.4035338931712787e-015 $471 6.2831853071796067 $295 $472 forward 7 unknown #
loop $-1 $-1 $302 $185 #
plane-surface $-1 -45.079621503076041 -35.317322072100836 54.576769040203672 0 0.52991927123019833 0.84804809178421925 1 0 0 forward_v I I I I #
loop $-1 $-1 $473 $117 #
coedge $-1 $300 $300 $301 $474 reversed $186 $-1 #
coedge $-1 $301 $301 $300 $474 forward $188 $-1 #
coedge $-1 $302 $302 $189 $303 forward $297 $-1 #
edge $-1 $475 6.4035338931712787e-015 $475 6.2831853071796067 $302 $476 forward 7 unknown #
loop $-1 $-1 $309 $190 #
plane-surface $-1 -45.079621503076041 -35.317322072100836 54.576769040203672 0 0.52991927123019833 0.84804809178421925 1 0 0 forward_v I I I I #
loop $-1 $-1 $477 $120 #
coedge $-1 $307 $307 $308 $478 reversed $191 $-1 #
coedge $-1 $308 $308 $307 $478 forward $193 $-1 #
coedge $-1 $309 $309 $194 $310 forward $304 $-1 #
edge $-1 $479 6.4035338931712787e-015 $479 6.2831853071796067 $309 $480 forward 7 unknown #
face $-1 $481 $482 $69 $-1 $483 forward single #
loop $-1 $-1 $484 $195 #
plane-surface $-1 -2.1133422535920801 41.505204218634887 177.51850821428337 -1 0 0 0 0.52991927123019833 0.84804809178421925 forward_v I I I I #
coedge $-1 $485 $486 $487 $488 reversed $196 $-1 #
coedge $-1 $316 $198 $489 $490 reversed $124 $-1 #
coedge $-1 $198 $315 $485 $491 reversed $124 $-1 #
coedge $-1 $487 $492 $198 $318 forward $482 $-1 #
edge $-1 $493 -29.983665242489558 $494 -0.47668204865259156 $317 $495 forward 7 unknown #
loop $-1 $-1 $324 $199 #
plane-surface $-1 -8.874240565169508 -35.317322072100836 54.576769040203672 0 0.52991927123019833 0.84804809178421925 1 0 0 forward_v I I I I #
loop $-1 $-1 $496 $126 #
coedge $-1 $322 $322 $323 $497 reversed $200 $-1 #
coedge $-1 $323 $323 $322 $497 forward $202 $-1 #
coedge $-1 $324 $324 $203 $325 forward $319 $-1 #
edge $-1 $498 6.4035338931712787e-015 $498 6.2831853071796067 $324 $499 forward 7 unknown #
loop $-1 $-1 $331 $204 #
plane-surface $-1 -8.874240565169508 -35.317322072100836 54.576769040203672 0 0.52991927123019833 0.84804809178421925 1 0 0 forward_v I I I I #
loop $-1 $-1 $500 $129 #
coedge $-1 $329 $329 $330 $501 reversed $205 $-1 #
coedge $-1 $330 $330 $329 $501 forward $207 $-1 #
coedge $-1 $331 $331 $208 $332 forward $326 $-1 #
edge $-1 $502 6.4035338931712787e-015 $502 6.2831853071796067 $331 $503 forward 7 unknown #
loop $-1 $-1 $338 $209 #
plane-surface $-1 -8.874240565169508 -35.317322072100836 54.576769040203672 0 0.52991927123019833 0.84804809178421925 1 0 0 forward_v I I I I #
loop $-1 $-1 $504 $132 #
coedge $-1 $336 $336 $337 $505 reversed $210 $-1 #
coedge $-1 $337 $337 $336 $505 forward $212 $-1 #
coedge $-1 $338 $338 $213 $339 forward $333 $-1 #
edge $-1 $506 6.4035338931712787e-015 $506 6.2831853071796067 $338 $507 forward 7 unknown #
face $-1 $508 $509 $73 $-1 $510 forward single #
loop $-1 $-1 $511 $214 #
plane-surface $-1 34.092038684314453 41.505204218634887 177.51850821428337 -1 0 0 0 0.52991927123019833 0.84804809178421925 forward_v I I I I #
coedge $-1 $512 $513 $514 $515 reversed $215 $-1 #
coedge $-1 $345 $217 $516 $517 reversed $136 $-1 #
coedge $-1 $217 $344 $512 $518 reversed $136 $-1 #
coedge $-1 $514 $519 $217 $347 forward $509 $-1 #
edge $-1 $520 -29.983665242489558 $521 -0.47668204865259156 $346 $522 forward 7 unknown #
loop $-1 $-1 $353 $218 #
plane-surface $-1 27.331140372737025 -35.317322072100836 54.576769040203672 0 0.52991927123019833 0.84804809178421925 1 0 0 forward_v I I I I #
loop $-1 $-1 $523 $138 #
coedge $-1 $351 $351 $352 $524 reversed $219 $-1 #
coedge $-1 $352 $352 $351 $524 forward $221 $-1 #
coedge $-1 $353 $353 $222 $354 forward $348 $-1 #
edge $-1 $525 6.4035338931712787e-015 $525 6.2831853071796067 $353 $526 forward 7 unknown #
loop $-1 $-1 $360 $223 #
plane-surface $-1 27.331140372737025 -35.317322072100836 54.576769040203672 0 0.52991927123019833 0.84804809178421925 1 0 0 forward_v I I I I #
loop $-1 $-1 $527 $141 #
coedge $-1 $358 $358 $359 $528 reversed $224 $-1 #
coedge $-1 $359 $359 $358 $528 forward $226 $-1 #
coedge $-1 $360 $360 $227 $361 forward $355 $-1 #
edge $-1 $529 6.4035338931712787e-015 $529 6.2831853071796067 $360 $530 forward 7 unknown #
loop $-1 $-1 $367 $228 #
plane-surface $-1 27.331140372737025 -35.317322072100836 54.576769040203672 0 0.52991927123019833 0.84804809178421925 1 0 0 forward_v I I I I #
loop $-1 $-1 $531 $144 #
coedge $-1 $365 $365 $366 $532 reversed $229 $-1 #
coedge $-1 $366 $366 $365 $532 forward $231 $-1 #
coedge $-1 $367 $367 $232 $368 forward $362 $-1 #
edge $-1 $533 6.4035338931712787e-015 $533 6.2831853071796067 $367 $534 forward 7 unknown #
face $-1 $535 $536 $77 $-1 $537 forward single #
loop $-1 $-1 $538 $233 #
plane-surface $-1 70.297419622220986 41.505204218634887 177.51850821428337 -1 0 0 0 0.52991927123019833 0.84804809178421925 forward_v I I I I #
coedge $-1 $539 $540 $541 $542 reversed $234 $-1 #
coedge $-1 $374 $236 $543 $544 reversed $148 $-1 #
coedge $-1 $236 $373 $539 $545 reversed $148 $-1 #
coedge $-1 $541 $546 $236 $376 forward $536 $-1 #
edge $-1 $547 -29.983665242489558 $548 -0.47668204865259156 $375 $549 forward 7 unknown #
loop $-1 $-1 $382 $237 #
plane-surface $-1 63.53652131064355 -35.317322072100836 54.576769040203672 0 0.52991927123019833 0.84804809178421925 1 0 0 forward_v I I I I #
loop $-1 $-1 $550 $150 #
coedge $-1 $380 $380 $381 $551 reversed $238 $-1 #
coedge $-1 $381 $381 $380 $551 forward $240 $-1 #
coedge $-1 $382 $382 $241 $383 forward $377 $-1 #
edge $-1 $552 6.4035338931712787e-015 $552 6.2831853071796067 $382 $553 forward 7 unknown #
loop $-1 $-1 $389 $242 #
plane-surface $-1 63.53652131064355 -35.317322072100836 54.576769040203672 0 0.52991927123019833 0.84804809178421925 1 0 0 forward_v I I I I #
loop $-1 $-1 $554 $153 #
coedge $-1 $387 $387 $388 $555 reversed $243 $-1 #
coedge $-1 $388 $388 $387 $555 forward $245 $-1 #
coedge $-1 $389 $389 $246 $390 forward $384 $-1 #
edge $-1 $556 6.4035338931712787e-015 $556 6.2831853071796067 $389 $557 forward 7 unknown #
loop $-1 $-1 $396 $247 #
plane-surface $-1 63.53652131064355 -35.317322072100836 54.576769040203672 0 0.52991927123019833 0.84804809178421925 1 0 0 forward_v I I I I #
loop $-1 $-1 $558 $156 #
coedge $-1 $394 $394 $395 $559 reversed $248 $-1 #
coedge $-1 $395 $395 $394 $559 forward $250 $-1 #
coedge $-1 $396 $396 $251 $397 forward $391 $-1 #
edge $-1 $560 6.4035338931712787e-015 $560 6.2831853071796067 $396 $561 forward 7 unknown #
face $-1 $562 $563 $81 $-1 $564 forward single #
loop $-1 $-1 $565 $252 #
plane-surface $-1 48.008039017484855 -145.84530631693087 123.64339997608617 1 0 0 0 0.6560590369687036 -0.75470957328743171 forward_v I I I I #
coedge $-1 $566 $567 $568 $569 reversed $253 $-1 #
coedge $-1 $403 $255 $570 $571 reversed $160 $-1 #
coedge $-1 $255 $402 $566 $572 reversed $160 $-1 #
coedge $-1 $568 $573 $255 $405 forward $563 $-1 #
edge $-1 $574 22.186385806658436 $575 27.94922358337076 $404 $576 forward 7 unknown #
loop $-1 $-1 $411 $256 #
plane-surface $-1 54.356872242013978 -50.736267351806987 14.232968645390969 0 -0.6560590369687036 0.75470957328743171 1 0 0 forward_v I I I I #
loop $-1 $-1 $577 $162 #
coedge $-1 $409 $409 $410 $578 reversed $257 $-1 #
coedge $-1 $410 $410 $409 $578 forward $259 $-1 #
coedge $-1 $411 $411 $260 $412 forward $406 $-1 #
edge $-1 $579 -7.0095421960110184e-016 $579 6.2831853071795996 $411 $580 forward 7 unknown #
loop $-1 $-1 $418 $261 #
plane-surface $-1 54.356872242013978 -50.736267351806987 14.232968645390969 0 -0.6560590369687036 0.75470957328743171 1 0 0 forward_v I I I I #
loop $-1 $-1 $581 $165 #
coedge $-1 $416 $416 $417 $582 reversed $262 $-1 #
coedge $-1 $417 $417 $416 $582 forward $264 $-1 #
coedge $-1 $418 $418 $265 $419 forward $413 $-1 #
edge $-1 $583 -7.0095421960110184e-016 $583 6.2831853071795996 $418 $584 forward 7 unknown #
face $-1 $585 $586 $63 $-1 $587 reversed single #
loop $-1 $-1 $588 $266 #
plane-surface $-1 -72.485122226630452 0 0 1 0 0 0 0 -1 forward_v I I I I #
coedge $-1 $589 $431 $590 $591 forward $267 $-1 #
coedge $-1 $592 $269 $589 $593 forward $169 $-1 #
coedge $-1 $269 $592 $594 $595 forward $169 $-1 #
coedge $-1 $434 $433 $269 $427 reversed $435 $-1 #
edge $-1 $596 -50.736267351807001 $597 50.736267351807001 $426 $598 forward 7 unknown #
coedge $-1 $271 $270 $588 $599 forward $106 $-1 #
coedge $-1 $600 $601 $270 $430 reversed $586 $-1 #
edge $-1 $437 -72.485122226630452 $602 72.485122226630452 $429 $603 forward 7 unknown #
coedge $-1 $423 $604 $271 $432 reversed $267 $-1 #
edge $-1 $605 -72.485122226630452 $436 72.485122226630452 $431 $606 forward 7 unknown #
coedge $-1 $426 $272 $604 $607 forward $435 $-1 #
coedge $-1 $272 $426 $600 $608 reversed $435 $-1 #
loop $-1 $-1 $433 $585 #
vertex $-1 $273 $609 #
vertex $-1 $273 $610 #
straight-curve $-1 72.485122226630452 0 19.242527203828434 0 1 0 I I #
face $-1 $611 $612 $64 $-1 $613 reversed single #
loop $-1 $-1 $280 $274 #
plane-surface $-1 -81.713572130414207 -41.773725719085391 0 0 -1 0 0 0 -1 forward_v I I I I #
coedge $-1 $614 $615 $616 $617 forward $275 $-1 #
coedge $-1 $618 $277 $450 $619 forward $173 $-1 #
coedge $-1 $277 $618 $620 $621 forward $173 $-1 #
edge $-1 $622 -50.736267351807001 $452 -41.773725719085391 $277 $623 forward 7 unknown #
coedge $-1 $279 $278 $624 $625 reversed $109 $-1 #
coedge $-1 $626 $627 $279 $448 forward $612 $-1 #
edge $-1 $451 41.773725719085391 $628 50.736267351807001 $447 $629 forward 7 unknown #
coedge $-1 $616 $280 $627 $630 reversed $440 $-1 #
coedge $-1 $280 $616 $443 $619 reversed $440 $-1 #
vertex $-1 $448 $631 #
vertex $-1 $619 $632 #
straight-curve $-1 -72.485122226630452 -41.773725719085391 0 0 0 1 I I #
face $-1 $-1 $633 $65 $-1 $634 reversed single #
loop $-1 $-1 $288 $282 #
plane-surface $-1 0 0 19.242527203828434 0 0 1 1 0 0 forward_v I I I I #
coedge $-1 $635 $636 $637 $638 reversed $283 $-1 #
coedge $-1 $639 $285 $287 $464 forward $177 $-1 #
coedge $-1 $285 $639 $635 $640 forward $177 $-1 #
coedge $-1 $637 $288 $285 $461 forward $455 $-1 #
edge $-1 $467 -29.300709063115448 $641 -15.778912439960592 $460 $642 forward 7 unknown #
coedge $-1 $643 $644 $286 $463 forward $633 $-1 #
edge $-1 $645 -87.954736706958158 $466 -69.516726903313256 $462 $646 forward 7 unknown #
edge $-1 $467 66.678537193688797 $645 101.47253470361403 $287 $647 forward 7 unknown #
coedge $-1 $288 $637 $643 $648 forward $455 $-1 #
vertex $-1 $463 $649 #
vertex $-1 $289 $650 #
straight-curve $-1 -51.840519814653469 20.752602109317444 19.242527203828431 0 -1 0 I I #
coedge $-1 $469 $469 $-1 $651 reversed $292 $-1 #
edge $-1 $652 0 $652 6.2831853071796004 $293 $653 forward 7 unknown #
vertex $-1 $296 $654 #
ellipse-curve $-1 -49.136160490022498 35.982775754888515 10.023522302005974 0 0.52991927123019833 0.84804809178421925 0.5 0 0 1 I I #
coedge $-1 $473 $473 $-1 $655 reversed $299 $-1 #
edge $-1 $656 0 $656 6.2831853071796004 $300 $657 forward 7 unknown #
vertex $-1 $303 $658 #
ellipse-curve $-1 -45.079621503076041 35.982775754888515 10.023522302005974 0 0.52991927123019833 0.84804809178421925 0.5 0 0 1 I I #
coedge $-1 $477 $477 $-1 $659 reversed $306 $-1 #
edge $-1 $660 0 $660 6.2831853071796004 $307 $661 forward 7 unknown #
vertex $-1 $310 $662 #
ellipse-curve $-1 -41.023082516129584 35.982775754888515 10.023522302005974 0 0.52991927123019833 0.84804809178421925 0.5 0 0 1 I I #
face $-1 $-1 $663 $69 $-1 $664 reversed single #
loop $-1 $-1 $317 $311 #
plane-surface $-1 0 0 19.242527203828434 0 0 1 1 0 0 forward_v I I I I #
coedge $-1 $665 $666 $667 $668 reversed $312 $-1 #
coedge $-1 $669 $314 $316 $491 forward $196 $-1 #
coedge $-1 $314 $669 $665 $670 forward $196 $-1 #
coedge $-1 $667 $317 $314 $488 forward $482 $-1 #
edge $-1 $494 -11.198018594162182 $671 2.3237780289926739 $487 $672 forward 7 unknown #
coedge $-1 $673 $674 $315 $490 forward $663 $-1 #
edge $-1 $675 -87.954736706958158 $493 -69.516726903313256 $489 $676 forward 7 unknown #
edge $-1 $494 66.678537193688797 $675 101.47253470361403 $316 $677 forward 7 unknown #
coedge $-1 $317 $667 $673 $678 forward $482 $-1 #
vertex $-1 $318 $679 #
vertex $-1 $318 $680 #
straight-curve $-1 -15.635138876746936 20.752602109317444 19.242527203828431 0 -1 0 I I #
coedge $-1 $496 $496 $-1 $681 reversed $321 $-1 #
edge $-1 $682 0 $682 6.2831853071796004 $322 $683 forward 7 unknown #
vertex $-1 $325 $684 #
ellipse-curve $-1 -12.930779552115965 35.982775754888515 10.023522302005974 0 0.52991927123019833 0.84804809178421925 0.5 0 0 1 I I #
coedge $-1 $500 $500 $-1 $685 reversed $328 $-1 #
edge $-1 $686 0 $686 6.2831853071796004 $329 $687 forward 7 unknown #
vertex $-1 $332 $688 #
ellipse-curve $-1 -8.874240565169508 35.982775754888515 10.023522302005974 0 0.52991927123019833 0.84804809178421925 0.5 0 0 1 I I #
coedge $-1 $504 $504 $-1 $689 reversed $335 $-1 #
edge $-1 $690 0 $690 6.2831853071796004 $336 $691 forward 7 unknown #
vertex $-1 $339 $692 #
ellipse-curve $-1 -4.8177015782230512 35.982775754888515 10.023522302005974 0 0.52991927123019833 0.84804809178421925 0.5 0 0 1 I I #
face $-1 $-1 $693 $73 $-1 $694 reversed single #
loop $-1 $-1 $346 $340 #
plane-surface $-1 0 0 19.242527203828434 0 0 1 1 0 0 forward_v I I I I #
coedge $-1 $695 $696 $697 $698 reversed $341 $-1 #
coedge $-1 $699 $343 $345 $518 forward $215 $-1 #
coedge $-1 $343 $699 $695 $700 forward $215 $-1 #
coedge $-1 $697 $346 $343 $515 forward $509 $-1 #
edge $-1 $521 6.9046718747910845 $701 20.42646849794594 $514 $702 forward 7 unknown #
coedge $-1 $703 $704 $344 $517 forward $693 $-1 #
edge $-1 $705 -87.954736706958158 $520 -69.516726903313256 $516 $706 forward 7 unknown #
edge $-1 $521 66.678537193688797 $705 101.47253470361403 $345 $707 forward 7 unknown #
coedge $-1 $346 $697 $703 $708 forward $509 $-1 #
vertex $-1 $347 $709 #
vertex $-1 $347 $710 #
straight-curve $-1 20.570242061159597 20.752602109317444 19.242527203828431 0 -1 0 I I #
coedge $-1 $523 $523 $-1 $711 reversed $350 $-1 #
edge $-1 $712 0 $712 6.2831853071796004 $351 $713 forward 7 unknown #
vertex $-1 $354 $714 #
ellipse-curve $-1 23.274601385790575 35.982775754888515 10.023522302005974 0 0.52991927123019833 0.84804809178421925 0.5 0 0 1 I I #
coedge $-1 $527 $527 $-1 $715 reversed $357 $-1 #
edge $-1 $716 0 $716 6.2831853071796004 $358 $717 forward 7 unknown #
vertex $-1 $361 $718 #
ellipse-curve $-1 27.331140372737025 35.982775754888515 10.023522302005974 0 0.52991927123019833 0.84804809178421925 0.5 0 0 1 I I #
coedge $-1 $531 $531 $-1 $719 reversed $364 $-1 #
edge $-1 $720 0 $720 6.2831853071796004 $365 $721 forward 7 unknown #
vertex $-1 $368 $722 #
ellipse-curve $-1 31.387679359683474 35.982775754888515 10.023522302005974 0 0.52991927123019833 0.84804809178421925 0.5 0 0 1 I I #
face $-1 $-1 $723 $77 $-1 $724 reversed single #
loop $-1 $-1 $375 $369 #
plane-surface $-1 0 0 19.242527203828434 0 0 1 1 0 0 forward_v I I I I #
coedge $-1 $725 $726 $727 $728 reversed $370 $-1 #
coedge $-1 $729 $372 $374 $545 forward $234 $-1 #
coedge $-1 $372 $729 $725 $730 forward $234 $-1 #
coedge $-1 $727 $375 $372 $542 forward $536 $-1 #
edge $-1 $548 25.007362343744347 $731 38.52915896689921 $541 $732 forward 7 unknown #
coedge $-1 $733 $734 $373 $544 forward $723 $-1 #
edge $-1 $735 -87.954736706958158 $547 -69.516726903313256 $543 $736 forward 7 unknown #
edge $-1 $548 66.678537193688797 $735 101.47253470361403 $374 $737 forward 7 unknown #
coedge $-1 $375 $727 $733 $738 forward $536 $-1 #
vertex $-1 $376 $739 #
vertex $-1 $376 $740 #
straight-curve $-1 56.775622999066123 20.752602109317444 19.242527203828431 0 -1 0 I I #
coedge $-1 $550 $550 $-1 $741 reversed $379 $-1 #
edge $-1 $742 0 $742 6.2831853071796004 $380 $743 forward 7 unknown #
vertex $-1 $383 $744 #
ellipse-curve $-1 59.479982323697115 35.982775754888515 10.023522302005974 0 0.52991927123019833 0.84804809178421925 0.5 0 0 1 I I #
coedge $-1 $554 $554 $-1 $745 reversed $386 $-1 #
edge $-1 $746 0 $746 6.2831853071796004 $387 $747 forward 7 unknown #
vertex $-1 $390 $748 #
ellipse-curve $-1 63.53652131064355 35.982775754888515 10.023522302005974 0 0.52991927123019833 0.84804809178421925 0.5 0 0 1 I I #
coedge $-1 $558 $558 $-1 $749 reversed $393 $-1 #
edge $-1 $750 0 $750 6.2831853071796004 $394 $751 forward 7 unknown #
vertex $-1 $397 $752 #
ellipse-curve $-1 67.593060297590014 35.982775754888515 10.023522302005974 0 0.52991927123019833 0.84804809178421925 0.5 0 0 1 I I #
face $-1 $-1 $753 $81 $-1 $754 reversed single #
loop $-1 $-1 $404 $398 #
plane-surface $-1 0 0 19.242527203828434 0 0 1 1 0 0 forward_v I I I I #
coedge $-1 $755 $756 $757 $758 reversed $399 $-1 #
coedge $-1 $759 $401 $403 $572 forward $253 $-1 #
coedge $-1 $401 $759 $755 $760 forward $253 $-1 #
coedge $-1 $757 $404 $401 $569 forward $563 $-1 #
edge $-1 $575 -33.527269345536112 $761 -20.829602896477866 $568 $762 forward 7 unknown #
coedge $-1 $763 $764 $402 $571 forward $753 $-1 #
edge $-1 $765 -47.588731342652132 $574 -42.579172784214649 $570 $766 forward 7 unknown #
edge $-1 $575 -7.6358350028740496 $765 1.888283279974768e-014 $403 $767 forward 7 unknown #
coedge $-1 $404 $757 $763 $768 forward $563 $-1 #
vertex $-1 $405 $769 #
vertex $-1 $405 $770 #
straight-curve $-1 60.705705466543101 -72.922653158465437 19.242527203828431 0 1 0 I I #
coedge $-1 $577 $577 $-1 $771 reversed $408 $-1 #
edge $-1 $772 0 $772 6.2831853071796004 $409 $773 forward 7 unknown #
vertex $-1 $412 $774 #
ellipse-curve $-1 51.635943717215795 -47.854848463450843 16.737747924609693 0 -0.6560590369687036 0.75470957328743171 1 0 0 1 I I #
coedge $-1 $581 $581 $-1 $775 reversed $415 $-1 #
edge $-1 $776 0 $776 6.2831853071796004 $416 $777 forward 7 unknown #
vertex $-1 $419 $778 #
ellipse-curve $-1 57.077800766812189 -47.854848463450843 16.737747924609693 0 -0.6560590369687036 0.75470957328743171 1 0 0 1 I I #
face $-1 $-1 $435 $63 $-1 $779 reversed single #
loop $-1 $-1 $600 $420 #
plane-surface $-1 0 50.736267351807001 0 0 -1 0 0 0 -1 forward_v I I I I #
coedge $-1 $780 $590 $428 $599 reversed $421 $-1 #
coedge $-1 $604 $423 $424 $593 reversed $267 $-1 #
coedge $-1 $588 $781 $423 $591 reversed $421 $-1 #
edge $-1 $605 -19.242527203828434 $782 19.242527203828434 $590 $783 forward 7 unknown #
coedge $-1 $425 $424 $781 $784 forward $169 $-1 #
edge $-1 $597 -72.485122226630452 $782 72.485122226630452 $589 $785 forward 7 unknown #
coedge $-1 $601 $600 $425 $595 reversed $586 $-1 #
edge $-1 $786 -72.485122226630452 $596 72.485122226630452 $594 $787 forward 7 unknown #
vertex $-1 $427 $788 #
vertex $-1 $607 $789 #
straight-curve $-1 72.485122226630452 0 -19.242527203828434 0 -1 0 I I #
edge $-1 $602 -50.736267351807001 $605 50.736267351807001 $588 $790 forward 7 unknown #
coedge $-1 $594 $429 $434 $608 forward $586 $-1 #
coedge $-1 $429 $594 $780 $791 reversed $586 $-1 #
vertex $-1 $430 $792 #
straight-curve $-1 0 50.736267351807001 19.242527203828434 -1 0 0 I I #
coedge $-1 $431 $589 $433 $607 reversed $267 $-1 #
vertex $-1 $599 $793 #
straight-curve $-1 0 -50.736267351807001 19.242527203828434 1 0 0 I I #
edge $-1 $436 -19.242527203828434 $597 19.242527203828434 $433 $794 forward 7 unknown #
edge $-1 $437 -19.242527203828434 $596 19.242527203828434 $434 $795 forward 7 unknown #
point $-1 72.485122226630452 -50.736267351807001 19.242527203828434 #
point $-1 72.485122226630452 50.736267351807001 19.242527203828434 #
face $-1 $-1 $796 $64 $-1 $797 reversed single #
loop $-1 $-1 $447 $439 #
plane-surface $-1 0 0 -19.242527203828434 0 0 1 1 0 0 forward_v I I I I #
coedge $-1 $798 $442 $799 $800 reversed $275 $-1 #
coedge $-1 $442 $798 $618 $801 reversed $275 $-1 #
coedge $-1 $450 $449 $442 $617 reversed $440 $-1 #
edge $-1 $802 -19.242527203828434 $803 19.242527203828434 $616 $804 forward 7 unknown #
coedge $-1 $444 $443 $615 $801 forward $173 $-1 #
edge $-1 $452 -9.2284499037837548 $802 9.2284499037837548 $450 $805 forward 7 unknown #
coedge $-1 $806 $624 $444 $621 reversed $796 $-1 #
edge $-1 $807 -90.942022034197961 $622 -72.485122226630452 $620 $808 forward 7 unknown #
vertex $-1 $625 $809 #
straight-curve $-1 -72.485122226630452 0 19.242527203828434 0 1 0 I I #
coedge $-1 $620 $810 $446 $625 forward $796 $-1 #
edge $-1 $628 -19.242527203828434 $622 19.242527203828434 $624 $811 forward 7 unknown #
coedge $-1 $799 $447 $810 $812 forward $612 $-1 #
coedge $-1 $447 $799 $449 $630 forward $612 $-1 #
vertex $-1 $812 $813 #
straight-curve $-1 -72.485122226630452 0 -19.242527203828434 0 -1 0 I I #
edge $-1 $803 -9.2284499037837548 $451 9.2284499037837548 $449 $814 forward 7 unknown #
point $-1 -72.485122226630452 -41.773725719085391 -19.242527203828434 #
point $-1 -72.485122226630452 -41.773725719085391 19.242527203828434 #
loop $-1 $-1 $462 $454 #
plane-surface $-1 0 50.736267351807001 0 0 -1 0 0 0 -1 forward_v I I I I #
coedge $-1 $636 $457 $459 $640 reversed $283 $-1 #
coedge $-1 $457 $635 $815 $816 reversed $283 $-1 #
coedge $-1 $465 $460 $457 $638 forward $455 $-1 #
edge $-1 $641 0.47668204865259156 $817 29.983665242489558 $637 $818 forward 7 unknown #
coedge $-1 $459 $458 $644 $819 reversed $177 $-1 #
edge $-1 $820 -101.47253470361403 $641 -66.678537193688797 $635 $821 forward 7 unknown #
vertex $-1 $461 $822 #
straight-curve $-1 -22.53981075153802 21.229284157970039 19.242527203828431 1 0 0 I I #
coedge $-1 $815 $462 $465 $648 reversed $633 $-1 #
coedge $-1 $462 $815 $639 $819 forward $633 $-1 #
vertex $-1 $463 $823 #
straight-curve $-1 -51.840519814653469 50.736267351807001 88.759254107141686 0 0 1 I I #
straight-curve $-1 -51.840519814653469 -35.317322072100836 54.576769040203672 0 0.84804809178421925 -0.52991927123019833 I I #
edge $-1 $817 38.318723191498613 $466 51.840519814653469 $643 $824 forward 7 unknown #
point $-1 -51.840519814653469 50.736267351807001 19.242527203828434 #
point $-1 -51.840519814653469 21.229284157970035 19.242527203828431 #
edge $-1 $825 1 $825 0 $469 $-1 forward 7 unknown #
vertex $-1 $470 $826 #
ellipse-curve $-1 -49.136160490022498 35.452856483658323 9.1754742102217612 0 0.52991927123019833 0.84804809178421925 0.5 0 0 1 I I #
point $-1 -48.636160490022498 35.982775754888522 10.023522302005979 #
edge $-1 $827 1 $827 0 $473 $-1 forward 7 unknown #
vertex $-1 $474 $828 #
ellipse-curve $-1 -45.079621503076041 35.452856483658323 9.1754742102217612 0 0.52991927123019833 0.84804809178421925 0.5 0 0 1 I I #
point $-1 -44.579621503076041 35.982775754888522 10.023522302005979 #
edge $-1 $829 1 $829 0 $477 $-1 forward 7 unknown #
vertex $-1 $478 $830 #
ellipse-curve $-1 -41.023082516129584 35.452856483658323 9.1754742102217612 0 0.52991927123019833 0.84804809178421925 0.5 0 0 1 I I #
point $-1 -40.523082516129584 35.982775754888522 10.023522302005979 #
loop $-1 $-1 $489 $481 #
plane-surface $-1 0 50.736267351807001 0 0 -1 0 0 0 -1 forward_v I I I I #
coedge $-1 $666 $484 $486 $670 reversed $312 $-1 #
coedge $-1 $484 $665 $831 $832 reversed $312 $-1 #
coedge $-1 $492 $487 $484 $668 forward $482 $-1 #
edge $-1 $671 0.47668204865259156 $833 29.983665242489558 $667 $834 forward 7 unknown #
coedge $-1 $486 $485 $674 $835 reversed $196 $-1 #
edge $-1 $836 -101.47253470361403 $671 -66.678537193688797 $665 $837 forward 7 unknown #
vertex $-1 $488 $838 #
straight-curve $-1 -4.437120282584754 21.229284157970039 19.242527203828431 1 0 0 I I #
coedge $-1 $831 $489 $492 $678 reversed $663 $-1 #
coedge $-1 $489 $831 $669 $835 forward $663 $-1 #
vertex $-1 $490 $839 #
straight-curve $-1 -15.635138876746936 50.736267351807001 88.759254107141686 0 0 1 I I #
straight-curve $-1 -15.635138876746936 -35.317322072100836 54.576769040203672 0 0.84804809178421925 -0.52991927123019833 I I #
edge $-1 $833 2.1133422535920801 $493 15.635138876746936 $673 $840 forward 7 unknown #
point $-1 -15.635138876746936 50.736267351807001 19.242527203828434 #
point $-1 -15.635138876746936 21.229284157970035 19.242527203828431 #
edge $-1 $841 1 $841 0 $496 $-1 forward 7 unknown #
vertex $-1 $497 $842 #
ellipse-curve $-1 -12.930779552115965 35.452856483658323 9.1754742102217612 0 0.52991927123019833 0.84804809178421925 0.5 0 0 1 I I #
point $-1 -12.430779552115965 35.982775754888522 10.023522302005979 #
edge $-1 $843 1 $843 0 $500 $-1 forward 7 unknown #
vertex $-1 $501 $844 #
ellipse-curve $-1 -8.874240565169508 35.452856483658323 9.1754742102217612 0 0.52991927123019833 0.84804809178421925 0.5 0 0 1 I I #
point $-1 -8.374240565169508 35.982775754888522 10.023522302005979 #
edge $-1 $845 1 $845 0 $504 $-1 forward 7 unknown #
vertex $-1 $505 $846 #
ellipse-curve $-1 -4.8177015782230512 35.452856483658323 9.1754742102217612 0 0.52991927123019833 0.84804809178421925 0.5 0 0 1 I I #
point $-1 -4.3177015782230512 35.982775754888522 10.023522302005979 #
loop $-1 $-1 $516 $508 #
plane-surface $-1 0 50.736267351807001 0 0 -1 0 0 0 -1 forward_v I I I I #
coedge $-1 $696 $511 $513 $700 reversed $341 $-1 #
coedge $-1 $511 $695 $847 $848 reversed $341 $-1 #
coedge $-1 $519 $514 $511 $698 forward $509 $-1 #
edge $-1 $701 0.47668204865259156 $849 29.983665242489558 $697 $850 forward 7 unknown #
coedge $-1 $513 $512 $704 $851 reversed $215 $-1 #
edge $-1 $852 -101.47253470361403 $701 -66.678537193688797 $695 $853 forward 7 unknown #
vertex $-1 $515 $854 #
straight-curve $-1 13.665570186368512 21.229284157970039 19.242527203828431 1 0 0 I I #
coedge $-1 $847 $516 $519 $708 reversed $693 $-1 #
coedge $-1 $516 $847 $699 $851 forward $693 $-1 #
vertex $-1 $517 $855 #
straight-curve $-1 20.570242061159597 50.736267351807001 88.759254107141686 0 0 1 I I #
straight-curve $-1 20.570242061159597 -35.317322072100836 54.576769040203672 0 0.84804809178421925 -0.52991927123019833 I I #
edge $-1 $849 -34.092038684314453 $520 -20.570242061159597 $703 $856 forward 7 unknown #
point $-1 20.570242061159597 50.736267351807001 19.242527203828434 #
point $-1 20.570242061159597 21.229284157970035 19.242527203828431 #
edge $-1 $857 1 $857 0 $523 $-1 forward 7 unknown #
vertex $-1 $524 $858 #
ellipse-curve $-1 23.274601385790575 35.452856483658323 9.1754742102217612 0 0.52991927123019833 0.84804809178421925 0.5 0 0 1 I I #
point $-1 23.774601385790575 35.982775754888522 10.023522302005979 #
edge $-1 $859 1 $859 0 $527 $-1 forward 7 unknown #
vertex $-1 $528 $860 #
ellipse-curve $-1 27.331140372737025 35.452856483658323 9.1754742102217612 0 0.52991927123019833 0.84804809178421925 0.5 0 0 1 I I #
point $-1 27.831140372737025 35.982775754888522 10.023522302005979 #
edge $-1 $861 1 $861 0 $531 $-1 forward 7 unknown #
vertex $-1 $532 $862 #
ellipse-curve $-1 31.387679359683474 35.452856483658323 9.1754742102217612 0 0.52991927123019833 0.84804809178421925 0.5 0 0 1 I I #
point $-1 31.887679359683474 35.982775754888522 10.023522302005979 #
loop $-1 $-1 $543 $535 #
plane-surface $-1 0 50.736267351807001 0 0 -1 0 0 0 -1 forward_v I I I I #
coedge $-1 $726 $538 $540 $730 reversed $370 $-1 #
coedge $-1 $538 $725 $863 $864 reversed $370 $-1 #
coedge $-1 $546 $541 $538 $728 forward $536 $-1 #
edge $-1 $731 0.47668204865259156 $865 29.983665242489558 $727 $866 forward 7 unknown #
coedge $-1 $540 $539 $734 $867 reversed $234 $-1 #
edge $-1 $868 -101.47253470361403 $731 -66.678537193688797 $725 $869 forward 7 unknown #
vertex $-1 $542 $870 #
straight-curve $-1 31.768260655321775 21.229284157970039 19.242527203828431 1 0 0 I I #
coedge $-1 $863 $543 $546 $738 reversed $723 $-1 #
coedge $-1 $543 $863 $729 $867 forward $723 $-1 #
vertex $-1 $544 $871 #
straight-curve $-1 56.775622999066123 50.736267351807001 88.759254107141686 0 0 1 I I #
straight-curve $-1 56.775622999066123 -35.317322072100836 54.576769040203672 0 0.84804809178421925 -0.52991927123019833 I I #
edge $-1 $865 -70.297419622220986 $547 -56.775622999066123 $733 $872 forward 7 unknown #
point $-1 56.775622999066123 50.736267351807001 19.242527203828434 #
point $-1 56.775622999066123 21.229284157970035 19.242527203828431 #
edge $-1 $873 1 $873 0 $550 $-1 forward 7 unknown #
vertex $-1 $551 $874 #
ellipse-curve $-1 59.479982323697115 35.452856483658323 9.1754742102217612 0 0.52991927123019833 0.84804809178421925 0.5 0 0 1 I I #
point $-1 59.979982323697115 35.982775754888522 10.023522302005979 #
edge $-1 $875 1 $875 0 $554 $-1 forward 7 unknown #
vertex $-1 $555 $876 #
ellipse-curve $-1 63.53652131064355 35.452856483658323 9.1754742102217612 0 0.52991927123019833 0.84804809178421925 0.5 0 0 1 I I #
point $-1 64.03652131064355 35.982775754888522 10.023522302005979 #
edge $-1 $877 1 $877 0 $558 $-1 forward 7 unknown #
vertex $-1 $559 $878 #
ellipse-curve $-1 67.593060297590014 35.452856483658323 9.1754742102217612 0 0.52991927123019833 0.84804809178421925 0.5 0 0 1 I I #
point $-1 68.093060297590014 35.982775754888522 10.023522302005979 #
loop $-1 $-1 $570 $562 #
plane-surface $-1 0 -50.736267351807001 0 0 1 0 0 0 1 forward_v I I I I #
coedge $-1 $756 $565 $567 $760 reversed $399 $-1 #
coedge $-1 $565 $755 $879 $880 reversed $399 $-1 #
coedge $-1 $573 $568 $565 $758 forward $563 $-1 #
edge $-1 $761 -27.94922358337076 $881 -22.186385806658436 $757 $882 forward 7 unknown #
coedge $-1 $567 $566 $764 $883 reversed $253 $-1 #
edge $-1 $884 -1.888283279974768e-014 $761 7.6358350028740496 $755 $885 forward 7 unknown #
vertex $-1 $569 $886 #
straight-curve $-1 27.178436121006989 -44.973429575094684 19.242527203828438 -1 0 0 I I #
coedge $-1 $879 $570 $573 $768 reversed $753 $-1 #
coedge $-1 $570 $879 $759 $883 forward $753 $-1 #
vertex $-1 $571 $887 #
straight-curve $-1 60.705705466543101 -50.736267351807001 61.821699988043086 0 0 1 I I #
straight-curve $-1 60.705705466543101 -50.736267351806987 14.232968645390969 0 -0.75470957328743171 -0.6560590369687036 I I #
edge $-1 $881 48.008039017484855 $574 60.705705466543101 $763 $888 forward 7 unknown #
point $-1 60.705705466543101 -50.736267351807001 19.242527203828434 #
point $-1 60.705705466543101 -44.973429575094677 19.242527203828434 #
edge $-1 $889 1 $889 0 $577 $-1 forward 7 unknown #
vertex $-1 $578 $890 #
ellipse-curve $-1 51.635943717215795 -46.408142882371997 15.073503565118235 0 -0.6560590369687036 0.75470957328743171 1 0 0 1 I I #
point $-1 52.635943717215795 -47.85484846345085 16.7377479246097 #
edge $-1 $891 1 $891 0 $581 $-1 forward 7 unknown #
vertex $-1 $582 $892 #
ellipse-curve $-1 57.077800766812189 -46.408142882371997 15.073503565118235 0 -0.6560590369687036 0.75470957328743171 1 0 0 1 I I #
point $-1 58.077800766812189 -47.85484846345085 16.7377479246097 #
plane-surface $-1 72.485122226630452 0 0 -1 0 0 0 0 1 forward_v I I I I #
coedge $-1 $781 $588 $601 $791 forward $421 $-1 #
coedge $-1 $590 $780 $592 $784 reversed $421 $-1 #
vertex $-1 $784 $893 #
straight-curve $-1 -72.485122226630452 -50.736267351807001 0 0 0 -1 I I #
edge $-1 $782 -50.736267351807001 $786 50.736267351807001 $781 $894 forward 7 unknown #
straight-curve $-1 0 -50.736267351807001 -19.242527203828434 -1 0 0 I I #
vertex $-1 $595 $895 #
straight-curve $-1 0 50.736267351807001 -19.242527203828434 1 0 0 I I #
point $-1 72.485122226630452 50.736267351807001 -19.242527203828434 #
point $-1 72.485122226630452 -50.736267351807001 -19.242527203828434 #
straight-curve $-1 -72.485122226630452 0 19.242527203828434 0 -1 0 I I #
edge $-1 $602 -19.242527203828434 $786 19.242527203828434 $601 $896 forward 7 unknown #
point $-1 -72.485122226630452 50.736267351807001 19.242527203828434 #
point $-1 -72.485122226630452 -50.736267351807001 19.242527203828434 #
straight-curve $-1 72.485122226630452 -50.736267351807001 0 0 0 -1 I I #
straight-curve $-1 72.485122226630452 50.736267351807001 0 0 0 -1 I I #
loop $-1 $-1 $624 $611 #
plane-surface $-1 0 -50.736267351807001 0 0 1 0 0 0 1 forward_v I I I I #
coedge $-1 $615 $614 $806 $897 reversed $275 $-1 #
coedge $-1 $627 $626 $614 $800 forward $612 $-1 #
edge $-1 $898 -4.481270816360805 $803 4.481270816360805 $614 $899 forward 7 unknown #
edge $-1 $802 -4.481270816360805 $807 4.481270816360805 $615 $900 forward 7 unknown #
vertex $-1 $619 $901 #
vertex $-1 $630 $902 #
straight-curve $-1 -90.942022034197961 -41.773725719085391 0 0 0 -1 I I #
straight-curve $-1 -81.713572130414207 -41.773725719085391 19.242527203828434 -1 0 0 I I #
coedge $-1 $810 $620 $798 $897 forward $796 $-1 #
vertex $-1 $801 $903 #
straight-curve $-1 0 -50.736267351807001 19.242527203828434 1 0 0 I I #
point $-1 -72.485122226630452 -50.736267351807001 19.242527203828434 #
coedge $-1 $624 $806 $626 $812 reversed $796 $-1 #
straight-curve $-1 -72.485122226630452 -50.736267351807001 0 0 0 1 I I #
edge $-1 $628 -9.2284499037837548 $898 9.2284499037837548 $810 $904 forward 7 unknown #
point $-1 -72.485122226630452 -50.736267351807001 -19.242527203828434 #
straight-curve $-1 -81.713572130414207 -41.773725719085391 -19.242527203828434 1 0 0 I I #
coedge $-1 $644 $643 $636 $816 forward $633 $-1 #
edge $-1 $817 69.516726903313256 $820 87.954736706958158 $815 $905 forward 7 unknown #
vertex $-1 $648 $906 #
straight-curve $-1 -38.318723191498613 20.752602109317444 19.242527203828431 0 1 0 I I #
edge $-1 $820 15.778912439960592 $645 29.300709063115448 $644 $907 forward 7 unknown #
vertex $-1 $819 $908 #
straight-curve $-1 -38.318723191498613 -35.317322072100836 54.576769040203672 0 -0.84804809178421925 0.52991927123019833 I I #
point $-1 -38.318723191498613 21.229284157970035 19.242527203828431 #
point $-1 -51.840519814653469 50.736267351807001 0.80451740018352069 #
straight-curve $-1 0 50.736267351807001 19.242527203828434 -1 0 0 I I #
vertex $-1 $651 $909 #
point $-1 -48.636160490022498 35.452856483658323 9.1754742102217612 #
vertex $-1 $655 $910 #
point $-1 -44.579621503076041 35.452856483658323 9.1754742102217612 #
vertex $-1 $659 $911 #
point $-1 -40.523082516129584 35.452856483658323 9.1754742102217612 #
coedge $-1 $674 $673 $666 $832 forward $663 $-1 #
edge $-1 $833 69.516726903313256 $836 87.954736706958158 $831 $912 forward 7 unknown #
vertex $-1 $678 $913 #
straight-curve $-1 -2.1133422535920801 20.752602109317444 19.242527203828431 0 1 0 I I #
edge $-1 $836 -2.3237780289926739 $675 11.198018594162182 $674 $914 forward 7 unknown #
vertex $-1 $835 $915 #
straight-curve $-1 -2.1133422535920801 -35.317322072100836 54.576769040203672 0 -0.84804809178421925 0.52991927123019833 I I #
point $-1 -2.1133422535920801 21.229284157970035 19.242527203828431 #
point $-1 -15.635138876746936 50.736267351807001 0.80451740018352069 #
straight-curve $-1 0 50.736267351807001 19.242527203828434 -1 0 0 I I #
vertex $-1 $681 $916 #
point $-1 -12.430779552115965 35.452856483658323 9.1754742102217612 #
vertex $-1 $685 $917 #
point $-1 -8.374240565169508 35.452856483658323 9.1754742102217612 #
vertex $-1 $689 $918 #
point $-1 -4.3177015782230512 35.452856483658323 9.1754742102217612 #
coedge $-1 $704 $703 $696 $848 forward $693 $-1 #
edge $-1 $849 69.516726903313256 $852 87.954736706958158 $847 $919 forward 7 unknown #
vertex $-1 $708 $920 #
straight-curve $-1 34.092038684314453 20.752602109317444 19.242527203828431 0 1 0 I I #
edge $-1 $852 -20.42646849794594 $705 -6.9046718747910845 $704 $921 forward 7 unknown #
vertex $-1 $851 $922 #
straight-curve $-1 34.092038684314453 -35.317322072100836 54.576769040203672 0 -0.84804809178421925 0.52991927123019833 I I #
point $-1 34.092038684314453 21.229284157970035 19.242527203828431 #
point $-1 20.570242061159597 50.736267351807001 0.80451740018352069 #
straight-curve $-1 0 50.736267351807001 19.242527203828434 -1 0 0 I I #
vertex $-1 $711 $923 #
point $-1 23.774601385790575 35.452856483658323 9.1754742102217612 #
vertex $-1 $715 $924 #
point $-1 27.831140372737025 35.452856483658323 9.1754742102217612 #
vertex $-1 $719 $925 #
point $-1 31.887679359683474 35.452856483658323 9.1754742102217612 #
coedge $-1 $734 $733 $726 $864 forward $723 $-1 #
edge $-1 $865 69.516726903313256 $868 87.954736706958158 $863 $926 forward 7 unknown #
vertex $-1 $738 $927 #
straight-curve $-1 70.297419622220986 20.752602109317444 19.242527203828431 0 1 0 I I #
edge $-1 $868 -38.52915896689921 $735 -25.007362343744347 $734 $928 forward 7 unknown #
vertex $-1 $867 $929 #
straight-curve $-1 70.297419622220986 -35.317322072100836 54.576769040203672 0 -0.84804809178421925 0.52991927123019833 I I #
point $-1 70.297419622220986 21.229284157970035 19.242527203828431 #
point $-1 56.775622999066123 50.736267351807001 0.80451740018352069 #
straight-curve $-1 0 50.736267351807001 19.242527203828434 -1 0 0 I I #
vertex $-1 $741 $930 #
point $-1 59.979982323697115 35.452856483658323 9.1754742102217612 #
vertex $-1 $745 $931 #
point $-1 64.03652131064355 35.452856483658323 9.1754742102217612 #
vertex $-1 $749 $932 #
point $-1 68.093060297590014 35.452856483658323 9.1754742102217612 #
coedge $-1 $764 $763 $756 $880 forward $753 $-1 #
edge $-1 $881 42.579172784214649 $884 47.588731342652132 $879 $933 forward 7 unknown #
vertex $-1 $768 $934 #
straight-curve $-1 48.008039017484855 -72.922653158465437 19.242527203828431 0 -1 0 I I #
edge $-1 $884 20.829602896477866 $765 33.527269345536112 $764 $935 forward 7 unknown #
vertex $-1 $883 $936 #
straight-curve $-1 48.008039017484855 -50.736267351806987 14.232968645390969 0 0.75470957328743171 0.6560590369687036 I I #
point $-1 48.008039017484855 -44.973429575094677 19.242527203828434 #
point $-1 60.705705466543101 -50.736267351807001 14.232968645390956 #
straight-curve $-1 0 -50.736267351807001 19.242527203828434 1 0 0 I I #
vertex $-1 $771 $937 #
point $-1 52.635943717215795 -46.408142882371997 15.073503565118235 #
vertex $-1 $775 $938 #
point $-1 58.077800766812189 -46.408142882371997 15.073503565118235 #
point $-1 -72.485122226630452 -50.736267351807001 -19.242527203828434 #
straight-curve $-1 -72.485122226630452 0 -19.242527203828434 0 1 0 I I #
point $-1 -72.485122226630452 50.736267351807001 -19.242527203828434 #
straight-curve $-1 -72.485122226630452 50.736267351807001 0 0 0 -1 I I #
edge $-1 $807 -19.242527203828434 $898 19.242527203828434 $798 $939 forward 7 unknown #
vertex $-1 $800 $940 #
straight-curve $-1 -90.942022034197961 -46.254996535446196 -19.242527203828434 0 1 0 I I #
straight-curve $-1 -90.942022034197961 -46.254996535446196 19.242527203828434 0 -1 0 I I #
point $-1 -90.942022034197961 -41.773725719085391 19.242527203828434 #
point $-1 -90.942022034197961 -41.773725719085391 -19.242527203828434 #
point $-1 -90.942022034197961 -50.736267351807001 19.242527203828434 #
straight-curve $-1 -81.713572130414207 -50.736267351807001 -19.242527203828434 -1 0 0 I I #
straight-curve $-1 -38.318723191498613 50.736267351807001 88.759254107141686 0 0 -1 I I #
point $-1 -38.318723191498613 50.736267351807001 19.242527203828434 #
straight-curve $-1 -22.53981075153802 50.736267351807008 0.80451740018351714 -1 0 0 I I #
point $-1 -38.318723191498613 50.736267351807001 0.80451740018352069 #
point $-1 -49.136160490022498 35.187896848043223 8.7514501643296505 #
point $-1 -45.079621503076041 35.187896848043223 8.7514501643296505 #
point $-1 -41.023082516129584 35.187896848043223 8.7514501643296505 #
straight-curve $-1 -2.1133422535920801 50.736267351807001 88.759254107141686 0 0 -1 I I #
point $-1 -2.1133422535920801 50.736267351807001 19.242527203828434 #
straight-curve $-1 -4.437120282584754 50.736267351807008 0.80451740018351714 -1 0 0 I I #
point $-1 -2.1133422535920801 50.736267351807001 0.80451740018352069 #
point $-1 -12.930779552115965 35.187896848043223 8.7514501643296505 #
point $-1 -8.874240565169508 35.187896848043223 8.7514501643296505 #
point $-1 -4.8177015782230512 35.187896848043223 8.7514501643296505 #
straight-curve $-1 34.092038684314453 50.736267351807001 88.759254107141686 0 0 -1 I I #
point $-1 34.092038684314453 50.736267351807001 19.242527203828434 #
straight-curve $-1 13.665570186368512 50.736267351807008 0.80451740018351714 -1 0 0 I I #
point $-1 34.092038684314453 50.736267351807001 0.80451740018352069 #
point $-1 23.274601385790575 35.187896848043223 8.7514501643296505 #
point $-1 27.331140372737025 35.187896848043223 8.7514501643296505 #
point $-1 31.387679359683474 35.187896848043223 8.7514501643296505 #
straight-curve $-1 70.297419622220986 50.736267351807001 88.759254107141686 0 0 -1 I I #
point $-1 70.297419622220986 50.736267351807001 19.242527203828434 #
straight-curve $-1 31.768260655321775 50.736267351807008 0.80451740018351714 -1 0 0 I I #
point $-1 70.297419622220986 50.736267351807001 0.80451740018352069 #
point $-1 59.479982323697115 35.187896848043223 8.7514501643296505 #
point $-1 63.53652131064355 35.187896848043223 8.7514501643296505 #
point $-1 67.593060297590014 35.187896848043223 8.7514501643296505 #
straight-curve $-1 48.008039017484855 -50.736267351807001 61.821699988043086 0 0 -1 I I #
point $-1 48.008039017484855 -50.736267351807001 19.242527203828434 #
straight-curve $-1 27.178436121006989 -50.736267351807001 14.23296864539096 1 0 0 I I #
point $-1 48.008039017484855 -50.736267351807001 14.232968645390956 #
point $-1 51.635943717215795 -45.752083845403298 14.318793991830804 #
point $-1 57.077800766812189 -45.752083845403298 14.318793991830804 #
straight-curve $-1 -90.942022034197961 -50.736267351807001 0 0 0 -1 I I #
point $-1 -90.942022034197961 -50.736267351807001 -19.242527203828434 #
End-of-ACIS-data 