500 0 12 0           
7 Unknown 11 ACIS 5.0 NT 24 Thu Mar 25 22:48:23 1999 
-1 9.9999999999999995e-007 1e-010 
body $-1 $12 $-1 $13 #
body $-1 $14 $-1 $15 #
body $-1 $16 $-1 $17 #
body $-1 $18 $-1 $19 #
body $-1 $20 $-1 $21 #
body $-1 $22 $-1 $23 #
body $-1 $24 $-1 $25 #
body $-1 $26 $-1 $27 #
body $-1 $28 $-1 $29 #
body $-1 $30 $-1 $31 #
body $-1 $32 $-1 $33 #
body $-1 $34 $-1 $35 #
lump $-1 $-1 $36 $0 #
transform $-1 1 0 0 0 1 0 0 0 1 51.669057283242282 32.433540996265769 9.929214752520549 1 rotate no_reflect no_shear #
lump $-1 $-1 $37 $1 #
transform $-1 1 0 0 0 1 0 0 0 1 51.669057283242282 32.433540996265769 9.929214752520549 1 rotate no_reflect no_shear #
lump $-1 $-1 $38 $2 #
transform $-1 1 0 0 0 1 0 0 0 1 51.669057283242282 32.433540996265769 9.929214752520549 1 rotate no_reflect no_shear #
lump $-1 $-1 $39 $3 #
transform $-1 1 0 0 0 1 0 0 0 1 51.669057283242282 32.433540996265769 9.929214752520549 1 rotate no_reflect no_shear #
lump $-1 $-1 $40 $4 #
transform $-1 1 0 0 0 1 0 0 0 1 51.669057283242282 32.433540996265769 9.929214752520549 1 rotate no_reflect no_shear #
lump $-1 $-1 $41 $5 #
transform $-1 1 0 0 0 1 0 0 0 1 51.669057283242282 32.433540996265769 9.929214752520549 1 rotate no_reflect no_shear #
lump $-1 $-1 $42 $6 #
transform $-1 1 0 0 0 1 0 0 0 1 51.669057283242282 32.433540996265769 9.929214752520549 1 rotate no_reflect no_shear #
lump $-1 $-1 $43 $7 #
transform $-1 1 0 0 0 1 0 0 0 1 51.669057283242282 32.433540996265769 9.929214752520549 1 rotate no_reflect no_shear #
lump $-1 $-1 $44 $8 #
transform $-1 1 0 0 0 1 0 0 0 1 51.669057283242282 32.433540996265769 9.929214752520549 1 rotate no_reflect no_shear #
lump $-1 $-1 $45 $9 #
transform $-1 1 0 0 0 1 0 0 0 1 51.669057283242282 32.433540996265769 9.929214752520549 1 rotate no_reflect no_shear #
lump $-1 $-1 $46 $10 #
transform $-1 1 0 0 0 1 0 0 0 1 51.669057283242282 32.433540996265769 9.929214752520549 1 rotate no_reflect no_shear #
lump $-1 $-1 $47 $11 #
transform $-1 1 0 0 0 1 0 0 0 1 51.669057283242282 32.433540996265769 9.929214752520549 1 rotate no_reflect no_shear #
shell $-1 $-1 $-1 $48 $-1 $12 #
shell $-1 $-1 $-1 $49 $-1 $14 #
shell $-1 $-1 $-1 $50 $-1 $16 #
shell $-1 $-1 $-1 $51 $-1 $18 #
shell $-1 $-1 $-1 $52 $-1 $20 #
shell $-1 $-1 $-1 $53 $-1 $22 #
shell $-1 $-1 $-1 $54 $-1 $24 #
shell $-1 $-1 $-1 $55 $-1 $26 #
shell $-1 $-1 $-1 $56 $-1 $28 #
shell $-1 $-1 $-1 $57 $-1 $30 #
shell $-1 $-1 $-1 $58 $-1 $32 #
shell $-1 $-1 $-1 $59 $-1 $34 #
face $-1 $60 $61 $36 $-1 $62 forward single #
face $-1 $63 $64 $37 $-1 $65 forward single #
face $-1 $66 $67 $38 $-1 $68 reversed single #
face $-1 $69 $70 $39 $-1 $71 forward single #
face $-1 $72 $73 $40 $-1 $74 reversed single #
face $-1 $75 $76 $41 $-1 $77 forward single #
face $-1 $78 $79 $42 $-1 $80 forward single #
face $-1 $81 $82 $43 $-1 $83 forward single #
face $-1 $84 $85 $44 $-1 $86 reversed single #
face $-1 $87 $88 $45 $-1 $89 forward single #
face $-1 $90 $91 $46 $-1 $92 forward single #
face $-1 $93 $94 $47 $-1 $95 forward single #
face $-1 $96 $97 $36 $-1 $98 reversed single #
loop $-1 $-1 $99 $48 #
plane-surface $-1 0 0 9.929214752520549 0 0 1 1 0 0 forward_v I I I I #
face $-1 $100 $101 $37 $-1 $102 reversed single #
loop $-1 $-1 $103 $49 #
plane-surface $-1 0 -32.433540996265769 0 0 1 0 0 0 1 forward_v I I I I #
face $-1 $104 $105 $38 $-1 $106 reversed single #
loop $-1 $-1 $107 $50 #
plane-surface $-1 49.118526512362948 -5.0886080641363529 149.0242244494074 0 -1 0 -0.69465837861970381 0 -0.71933979245794832 forward_v I I I I #
face $-1 $108 $109 $39 $-1 $110 forward single #
loop $-1 $111 $112 $51 #
cone-surface $-1 47.005840332690042 -12.043129106561132 5.3543430386509749 -0.69465837861970381 0 -0.71933979245794832 1.7983494811448708 0 -1.7366459465492596 1 I I 0 1 2.5 forward I I I I #
face $-1 $113 $114 $40 $-1 $115 reversed single #
loop $-1 $-1 $116 $52 #
plane-surface $-1 -140.24711081548321 -21.174144188175763 58.996597238447194 0 1 0 -0.85716730853699208 0 0.51503806187062418 forward_v I I I I #
face $-1 $117 $118 $41 $-1 $119 forward single #
loop $-1 $120 $121 $53 #
cone-surface $-1 -49.977332213698382 -19.86973523944496 7.585053654081042 0.85716730853699208 0 -0.51503806187062418 0.25751903093531209 0 0.42858365426849604 1 I I 0 1 0.5 forward I I I I #
face $-1 $122 $123 $42 $-1 $124 forward single #
loop $-1 $125 $126 $54 #
cone-surface $-1 -49.977332213698382 -17.913121816348756 7.585053654081042 0.85716730853699208 0 -0.51503806187062418 0.25751903093531209 0 0.42858365426849604 1 I I 0 1 0.5 forward I I I I #
face $-1 $127 $128 $43 $-1 $129 forward single #
loop $-1 $130 $131 $55 #
cone-surface $-1 -49.977332213698382 -15.956508393252552 7.585053654081042 0.85716730853699208 0 -0.51503806187062418 0.25751903093531209 0 0.42858365426849604 1 I I 0 1 0.5 forward I I I I #
face $-1 $132 $133 $44 $-1 $134 reversed single #
loop $-1 $-1 $135 $56 #
plane-surface $-1 -140.24711081548321 5.6296984040450049 58.996597238447194 0 1 0 -0.85716730853699208 0 0.51503806187062418 forward_v I I I I #
face $-1 $136 $137 $45 $-1 $138 forward single #
loop $-1 $139 $140 $57 #
cone-surface $-1 -49.977332213698382 6.9341073527758041 7.585053654081042 0.85716730853699208 0 -0.51503806187062418 0.25751903093531209 0 0.42858365426849604 1 I I 0 1 0.5 forward I I I I #
face $-1 $141 $142 $46 $-1 $143 forward single #
loop $-1 $144 $145 $58 #
cone-surface $-1 -49.977332213698382 8.8907207758720119 7.585053654081042 0.85716730853699208 0 -0.51503806187062418 0.25751903093531209 0 0.42858365426849604 1 I I 0 1 0.5 forward I I I I #
face $-1 $146 $147 $47 $-1 $148 forward single #
loop $-1 $149 $150 $59 #
cone-surface $-1 -49.977332213698382 10.84733419896822 7.585053654081042 0.85716730853699208 0 -0.51503806187062418 0.25751903093531209 0 0.42858365426849604 1 I I 0 1 0.5 forward I I I I #
face $-1 $151 $152 $36 $-1 $153 reversed single #
loop $-1 $-1 $154 $60 #
plane-surface $-1 0 0 -9.929214752520549 0 0 1 1 0 0 forward_v I I I I #
coedge $-1 $155 $156 $157 $158 forward $61 $-1 #
face $-1 $159 $160 $37 $-1 $161 forward single #
loop $-1 $-1 $162 $63 #
plane-surface $-1 -51.669057283242282 0 0 1 0 0 0 0 -1 forward_v I I I I #
coedge $-1 $163 $164 $165 $166 forward $64 $-1 #
face $-1 $167 $168 $38 $-1 $169 reversed single #
loop $-1 $-1 $170 $66 #
plane-surface $-1 -22.666160602008418 -12.043129106561132 74.689006564156713 0.69465837861970381 0 0.71933979245794832 0.71933979245794832 0 -0.69465837861970381 forward_v I I I I #
coedge $-1 $171 $172 $173 $174 reversed $67 $-1 #
face $-1 $-1 $175 $39 $-1 $176 forward single #
loop $-1 $177 $178 $69 #
cone-surface $-1 45.111546344879429 -12.043129106561132 3.3927442355765596 -0.69465837861970381 0 -0.71933979245794832 0.8991747405724354 0 -0.86832297327462982 1 I I -0.70710678118654746 0.70710678118654746 1.25 forward I I I I #
loop $-1 $-1 $179 $51 #
coedge $-1 $112 $112 $180 $181 reversed $70 $-1 #
face $-1 $182 $183 $40 $-1 $184 reversed single #
loop $-1 $-1 $185 $72 #
plane-surface $-1 -51.669057283242296 -17.913121816348756 5.7735349947604675 -0.85716730853699208 0 0.51503806187062418 0.51503806187062418 0 0.85716730853699208 forward_v I I I I #
coedge $-1 $186 $187 $188 $189 reversed $73 $-1 #
face $-1 $-1 $190 $41 $-1 $191 forward single #
loop $-1 $192 $193 $75 #
cone-surface $-1 -49.3198074298639 -19.86973523944496 7.1899729190539237 0.85716730853699208 0 -0.51503806187062418 0.12875951546765604 0 0.21429182713424802 1 I I -0.70710678118654746 0.70710678118654746 0.25 forward I I I I #
loop $-1 $-1 $194 $53 #
coedge $-1 $121 $121 $195 $196 reversed $76 $-1 #
face $-1 $-1 $197 $42 $-1 $198 forward single #
loop $-1 $199 $200 $78 #
cone-surface $-1 -49.3198074298639 -17.913121816348756 7.1899729190539237 0.85716730853699208 0 -0.51503806187062418 0.12875951546765604 0 0.21429182713424802 1 I I -0.70710678118654746 0.70710678118654746 0.25 forward I I I I #
loop $-1 $-1 $201 $54 #
coedge $-1 $126 $126 $202 $203 reversed $79 $-1 #
face $-1 $-1 $204 $43 $-1 $205 forward single #
loop $-1 $206 $207 $81 #
cone-surface $-1 -49.3198074298639 -15.956508393252552 7.1899729190539237 0.85716730853699208 0 -0.51503806187062418 0.12875951546765604 0 0.21429182713424802 1 I I -0.70710678118654746 0.70710678118654746 0.25 forward I I I I #
loop $-1 $-1 $208 $55 #
coedge $-1 $131 $131 $209 $210 reversed $82 $-1 #
face $-1 $211 $212 $44 $-1 $213 reversed single #
loop $-1 $-1 $214 $84 #
plane-surface $-1 -51.669057283242296 8.8907207758720119 5.7735349947604675 -0.85716730853699208 0 0.51503806187062418 0.51503806187062418 0 0.85716730853699208 forward_v I I I I #
coedge $-1 $215 $216 $217 $218 reversed $85 $-1 #
face $-1 $-1 $219 $45 $-1 $220 forward single #
loop $-1 $221 $222 $87 #
cone-surface $-1 -49.3198074298639 6.9341073527758041 7.1899729190539237 0.85716730853699208 0 -0.51503806187062418 0.12875951546765604 0 0.21429182713424802 1 I I -0.70710678118654746 0.70710678118654746 0.25 forward I I I I #
loop $-1 $-1 $223 $57 #
coedge $-1 $140 $140 $224 $225 reversed $88 $-1 #
face $-1 $-1 $226 $46 $-1 $227 forward single #
loop $-1 $228 $229 $90 #
cone-surface $-1 -49.3198074298639 8.8907207758720119 7.1899729190539237 0.85716730853699208 0 -0.51503806187062418 0.12875951546765604 0 0.21429182713424802 1 I I -0.70710678118654746 0.70710678118654746 0.25 forward I I I I #
loop $-1 $-1 $230 $58 #
coedge $-1 $145 $145 $231 $232 reversed $91 $-1 #
face $-1 $-1 $233 $47 $-1 $234 forward single #
loop $-1 $235 $236 $93 #
cone-surface $-1 -49.3198074298639 10.84733419896822 7.1899729190539237 0.85716730853699208 0 -0.51503806187062418 0.12875951546765604 0 0.21429182713424802 1 I I -0.70710678118654746 0.70710678118654746 0.25 forward I I I I #
loop $-1 $-1 $237 $59 #
coedge $-1 $150 $150 $238 $239 reversed $94 $-1 #
face $-1 $240 $241 $36 $-1 $242 reversed single #
loop $-1 $-1 $243 $96 #
plane-surface $-1 0 -32.433540996265769 0 0 1 0 0 0 1 forward_v I I I I #
coedge $-1 $244 $245 $246 $247 forward $97 $-1 #
coedge $-1 $248 $99 $249 $250 forward $61 $-1 #
coedge $-1 $99 $248 $251 $252 forward $61 $-1 #
coedge $-1 $253 $254 $99 $158 reversed $255 $-1 #
edge $-1 $256 -32.433540996265769 $257 32.433540996265769 $157 $258 forward 7 unknown #
face $-1 $259 $260 $37 $-1 $261 reversed single #
loop $-1 $-1 $262 $100 #
plane-surface $-1 0 -38.063239400310771 9.429214752520549 0 0 1 1 0 0 forward_v I I I I #
coedge $-1 $263 $264 $164 $265 forward $101 $-1 #
coedge $-1 $266 $103 $267 $268 reversed $64 $-1 #
coedge $-1 $103 $266 $162 $265 reversed $64 $-1 #
coedge $-1 $269 $262 $103 $166 reversed $160 $-1 #
edge $-1 $270 -51.669057283242282 $271 51.669057283242282 $165 $272 forward 7 unknown #
face $-1 $273 $274 $38 $-1 $275 reversed single #
loop $-1 $-1 $276 $104 #
plane-surface $-1 49.118526512362948 -18.997650148985912 149.0242244494074 0 1 0 0.69465837861970381 0 0.71933979245794832 forward_v I I I I #
coedge $-1 $277 $278 $279 $280 reversed $105 $-1 #
coedge $-1 $172 $107 $281 $282 reversed $67 $-1 #
coedge $-1 $107 $171 $277 $283 reversed $67 $-1 #
coedge $-1 $279 $284 $107 $174 forward $285 $-1 #
edge $-1 $286 -27.109794027060808 $287 -19.835302155028238 $173 $288 forward 7 unknown #
loop $-1 $-1 $180 $108 #
plane-surface $-1 -22.666160602008418 -12.043129106561132 74.689006564156713 0.69465837861970381 0 0.71933979245794832 0.71933979245794832 0 -0.69465837861970381 forward_v I I I I #
loop $-1 $-1 $289 $69 #
coedge $-1 $178 $178 $179 $290 reversed $109 $-1 #
coedge $-1 $179 $179 $178 $290 forward $111 $-1 #
coedge $-1 $180 $180 $112 $181 forward $175 $-1 #
edge $-1 $291 0 $291 6.2831853071796004 $180 $292 forward 7 unknown #
face $-1 $293 $294 $40 $-1 $295 forward single #
loop $-1 $-1 $296 $113 #
plane-surface $-1 -140.24711081548321 -14.652099444521749 58.996597238447194 0 -1 0 0.85716730853699208 0 -0.51503806187062418 forward_v I I I I #
coedge $-1 $297 $298 $299 $300 reversed $114 $-1 #
coedge $-1 $187 $116 $301 $302 reversed $73 $-1 #
coedge $-1 $116 $186 $297 $303 reversed $73 $-1 #
coedge $-1 $299 $304 $116 $189 forward $294 $-1 #
edge $-1 $305 18.454498124499324 $306 20.951482350186645 $188 $307 forward 7 unknown #
loop $-1 $-1 $195 $117 #
plane-surface $-1 -51.669057283242296 -17.913121816348756 5.7735349947604675 -0.85716730853699208 0 0.51503806187062418 0.51503806187062418 0 0.85716730853699208 forward_v I I I I #
loop $-1 $-1 $308 $75 #
coedge $-1 $193 $193 $194 $309 reversed $118 $-1 #
coedge $-1 $194 $194 $193 $309 forward $120 $-1 #
coedge $-1 $195 $195 $121 $196 forward $190 $-1 #
edge $-1 $310 0 $310 6.2831853071796004 $195 $311 forward 7 unknown #
loop $-1 $-1 $202 $122 #
plane-surface $-1 -51.669057283242296 -17.913121816348756 5.7735349947604675 -0.85716730853699208 0 0.51503806187062418 0.51503806187062418 0 0.85716730853699208 forward_v I I I I #
loop $-1 $-1 $312 $78 #
coedge $-1 $200 $200 $201 $313 reversed $123 $-1 #
coedge $-1 $201 $201 $200 $313 forward $125 $-1 #
coedge $-1 $202 $202 $126 $203 forward $197 $-1 #
edge $-1 $314 0 $314 6.2831853071796004 $202 $315 forward 7 unknown #
loop $-1 $-1 $209 $127 #
plane-surface $-1 -51.669057283242296 -17.913121816348756 5.7735349947604675 -0.85716730853699208 0 0.51503806187062418 0.51503806187062418 0 0.85716730853699208 forward_v I I I I #
loop $-1 $-1 $316 $81 #
coedge $-1 $207 $207 $208 $317 reversed $128 $-1 #
coedge $-1 $208 $208 $207 $317 forward $130 $-1 #
coedge $-1 $209 $209 $131 $210 forward $204 $-1 #
edge $-1 $318 0 $318 6.2831853071796004 $209 $319 forward 7 unknown #
face $-1 $320 $321 $44 $-1 $322 forward single #
loop $-1 $-1 $323 $132 #
plane-surface $-1 -140.24711081548321 12.151743147699019 58.996597238447194 0 -1 0 0.85716730853699208 0 -0.51503806187062418 forward_v I I I I #
coedge $-1 $324 $325 $326 $327 reversed $133 $-1 #
coedge $-1 $216 $135 $328 $329 reversed $85 $-1 #
coedge $-1 $135 $215 $324 $330 reversed $85 $-1 #
coedge $-1 $326 $331 $135 $218 forward $321 $-1 #
edge $-1 $332 18.454498124499324 $333 20.951482350186645 $217 $334 forward 7 unknown #
loop $-1 $-1 $224 $136 #
plane-surface $-1 -51.669057283242296 8.8907207758720119 5.7735349947604675 -0.85716730853699208 0 0.51503806187062418 0.51503806187062418 0 0.85716730853699208 forward_v I I I I #
loop $-1 $-1 $335 $87 #
coedge $-1 $222 $222 $223 $336 reversed $137 $-1 #
coedge $-1 $223 $223 $222 $336 forward $139 $-1 #
coedge $-1 $224 $224 $140 $225 forward $219 $-1 #
edge $-1 $337 0 $337 6.2831853071796004 $224 $338 forward 7 unknown #
loop $-1 $-1 $231 $141 #
plane-surface $-1 -51.669057283242296 8.8907207758720119 5.7735349947604675 -0.85716730853699208 0 0.51503806187062418 0.51503806187062418 0 0.85716730853699208 forward_v I I I I #
loop $-1 $-1 $339 $90 #
coedge $-1 $229 $229 $230 $340 reversed $142 $-1 #
coedge $-1 $230 $230 $229 $340 forward $144 $-1 #
coedge $-1 $231 $231 $145 $232 forward $226 $-1 #
edge $-1 $341 0 $341 6.2831853071796004 $231 $342 forward 7 unknown #
loop $-1 $-1 $238 $146 #
plane-surface $-1 -51.669057283242296 8.8907207758720119 5.7735349947604675 -0.85716730853699208 0 0.51503806187062418 0.51503806187062418 0 0.85716730853699208 forward_v I I I I #
loop $-1 $-1 $343 $93 #
coedge $-1 $236 $236 $237 $344 reversed $147 $-1 #
coedge $-1 $237 $237 $236 $344 forward $149 $-1 #
coedge $-1 $238 $238 $150 $239 forward $233 $-1 #
edge $-1 $345 0 $345 6.2831853071796004 $238 $346 forward 7 unknown #
face $-1 $347 $348 $36 $-1 $349 reversed single #
loop $-1 $-1 $350 $151 #
plane-surface $-1 -51.669057283242282 0 0 1 0 0 0 0 -1 forward_v I I I I #
coedge $-1 $351 $251 $352 $353 forward $152 $-1 #
coedge $-1 $354 $154 $351 $355 forward $97 $-1 #
coedge $-1 $154 $354 $356 $357 forward $97 $-1 #
coedge $-1 $254 $253 $154 $247 reversed $255 $-1 #
edge $-1 $358 -32.433540996265769 $359 32.433540996265769 $246 $360 forward 7 unknown #
coedge $-1 $156 $155 $361 $362 forward $61 $-1 #
coedge $-1 $363 $364 $155 $250 reversed $348 $-1 #
edge $-1 $257 -51.669057283242282 $365 51.669057283242282 $249 $366 forward 7 unknown #
coedge $-1 $243 $367 $156 $252 reversed $152 $-1 #
edge $-1 $368 -51.669057283242282 $256 51.669057283242282 $251 $369 forward 7 unknown #
coedge $-1 $246 $157 $367 $370 forward $255 $-1 #
coedge $-1 $157 $246 $363 $371 reversed $255 $-1 #
loop $-1 $-1 $253 $347 #
vertex $-1 $158 $372 #
vertex $-1 $158 $373 #
straight-curve $-1 51.669057283242282 0 9.929214752520549 0 1 0 I I #
face $-1 $374 $375 $37 $-1 $376 reversed single #
loop $-1 $-1 $377 $159 #
plane-surface $-1 0 -38.063239400310771 6.429214752520549 0 0 1 1 0 0 forward_v I I I I #
coedge $-1 $165 $378 $379 $380 forward $160 $-1 #
coedge $-1 $381 $162 $382 $383 reversed $101 $-1 #
coedge $-1 $162 $381 $269 $384 reversed $101 $-1 #
edge $-1 $270 -9.429214752520549 $385 -6.429214752520549 $162 $386 forward 7 unknown #
coedge $-1 $164 $163 $387 $388 forward $64 $-1 #
coedge $-1 $379 $389 $163 $268 forward $390 $-1 #
edge $-1 $391 6.429214752520549 $271 9.429214752520549 $267 $392 forward 7 unknown #
coedge $-1 $378 $165 $264 $384 forward $160 $-1 #
vertex $-1 $265 $393 #
vertex $-1 $380 $394 #
straight-curve $-1 0 -32.433540996265769 9.429214752520549 1 0 0 I I #
face $-1 $-1 $285 $38 $-1 $395 forward single #
loop $-1 $-1 $396 $167 #
plane-surface $-1 51.669057283242282 0 0 -1 0 0 0 0 1 forward_v I I I I #
coedge $-1 $397 $398 $399 $400 reversed $168 $-1 #
coedge $-1 $401 $170 $172 $283 forward $105 $-1 #
coedge $-1 $170 $401 $397 $402 forward $105 $-1 #
coedge $-1 $399 $173 $170 $280 forward $285 $-1 #
edge $-1 $287 -0.93295648914421303 $403 12.976085595705346 $279 $404 forward 7 unknown #
coedge $-1 $405 $406 $171 $282 forward $274 $-1 #
edge $-1 $407 -71.607792774918366 $286 -64.582897472183149 $281 $408 forward 7 unknown #
edge $-1 $287 93.225380712048405 $407 103.33811456648458 $172 $409 forward 7 unknown #
coedge $-1 $173 $399 $405 $410 forward $285 $-1 #
loop $-1 $-1 $399 $273 #
vertex $-1 $282 $411 #
vertex $-1 $174 $412 #
straight-curve $-1 24.559263256181474 -5.0886080641363529 9.9292147525205507 -1 0 0 I I #
coedge $-1 $289 $289 $-1 $413 reversed $177 $-1 #
edge $-1 $414 0 $414 6.2831853071796004 $178 $415 forward 7 unknown #
vertex $-1 $181 $416 #
ellipse-curve $-1 48.031811347226004 -12.043129106561132 6.4167671011529306 0.69465837861970381 0 0.71933979245794832 1.7983494811448708 0 -1.7366459465492596 1 I I #
face $-1 $-1 $417 $40 $-1 $418 reversed single #
loop $-1 $-1 $188 $182 #
plane-surface $-1 0 0 9.929214752520549 0 0 1 1 0 0 forward_v I I I I #
coedge $-1 $419 $420 $421 $422 reversed $183 $-1 #
coedge $-1 $423 $185 $187 $303 forward $114 $-1 #
coedge $-1 $185 $423 $419 $424 forward $114 $-1 #
coedge $-1 $421 $188 $185 $300 forward $294 $-1 #
edge $-1 $306 -12.217583280001385 $425 -5.695538536347371 $299 $426 forward 7 unknown #
coedge $-1 $427 $428 $186 $302 forward $417 $-1 #
edge $-1 $429 -23.724763624463105 $305 -19.569083866703046 $301 $430 forward 7 unknown #
edge $-1 $306 -4.848154749220396 $429 -2.787470371894754e-014 $187 $431 forward 7 unknown #
coedge $-1 $188 $421 $427 $432 forward $294 $-1 #
vertex $-1 $189 $433 #
vertex $-1 $189 $434 #
straight-curve $-1 -70.123555407741605 -21.174144188175763 9.9292147525205507 1 0 0 I I #
coedge $-1 $308 $308 $-1 $435 reversed $192 $-1 #
edge $-1 $436 0 $436 6.2831853071796004 $193 $437 forward 7 unknown #
vertex $-1 $196 $438 #
ellipse-curve $-1 -50.420565170398625 -19.86973523944496 7.8513748736405118 -0.85716730853699208 0 0.51503806187062418 0.25751903093531209 0 0.42858365426849604 1 I I #
coedge $-1 $312 $312 $-1 $439 reversed $199 $-1 #
edge $-1 $440 0 $440 6.2831853071796004 $200 $441 forward 7 unknown #
vertex $-1 $203 $442 #
ellipse-curve $-1 -50.420565170398625 -17.913121816348756 7.8513748736405118 -0.85716730853699208 0 0.51503806187062418 0.25751903093531209 0 0.42858365426849604 1 I I #
coedge $-1 $316 $316 $-1 $443 reversed $206 $-1 #
edge $-1 $444 0 $444 6.2831853071796004 $207 $445 forward 7 unknown #
vertex $-1 $210 $446 #
ellipse-curve $-1 -50.420565170398625 -15.956508393252552 7.8513748736405118 -0.85716730853699208 0 0.51503806187062418 0.25751903093531209 0 0.42858365426849604 1 I I #
face $-1 $-1 $447 $44 $-1 $448 reversed single #
loop $-1 $-1 $217 $211 #
plane-surface $-1 0 0 9.929214752520549 0 0 1 1 0 0 forward_v I I I I #
coedge $-1 $449 $450 $451 $452 reversed $212 $-1 #
coedge $-1 $453 $214 $216 $330 forward $133 $-1 #
coedge $-1 $214 $453 $449 $454 forward $133 $-1 #
coedge $-1 $451 $217 $214 $327 forward $321 $-1 #
edge $-1 $333 1.1843380161089989 $455 7.706382759763013 $326 $456 forward 7 unknown #
coedge $-1 $457 $458 $215 $329 forward $447 $-1 #
edge $-1 $459 -23.724763624463105 $332 -19.569083866703046 $328 $460 forward 7 unknown #
edge $-1 $333 -4.848154749220396 $459 -2.787470371894754e-014 $216 $461 forward 7 unknown #
coedge $-1 $217 $451 $457 $462 forward $321 $-1 #
vertex $-1 $218 $463 #
vertex $-1 $218 $464 #
straight-curve $-1 -70.123555407741605 5.6296984040450049 9.9292147525205507 1 0 0 I I #
coedge $-1 $335 $335 $-1 $465 reversed $221 $-1 #
edge $-1 $466 0 $466 6.2831853071796004 $222 $467 forward 7 unknown #
vertex $-1 $225 $468 #
ellipse-curve $-1 -50.420565170398625 6.9341073527758041 7.8513748736405118 -0.85716730853699208 0 0.51503806187062418 0.25751903093531209 0 0.42858365426849604 1 I I #
coedge $-1 $339 $339 $-1 $469 reversed $228 $-1 #
edge $-1 $470 0 $470 6.2831853071796004 $229 $471 forward 7 unknown #
vertex $-1 $232 $472 #
ellipse-curve $-1 -50.420565170398625 8.8907207758720119 7.8513748736405118 -0.85716730853699208 0 0.51503806187062418 0.25751903093531209 0 0.42858365426849604 1 I I #
coedge $-1 $343 $343 $-1 $473 reversed $235 $-1 #
edge $-1 $474 0 $474 6.2831853071796004 $236 $475 forward 7 unknown #
vertex $-1 $239 $476 #
ellipse-curve $-1 -50.420565170398625 10.84733419896822 7.8513748736405118 -0.85716730853699208 0 0.51503806187062418 0.25751903093531209 0 0.42858365426849604 1 I I #
face $-1 $-1 $255 $36 $-1 $477 reversed single #
loop $-1 $-1 $363 $240 #
plane-surface $-1 0 32.433540996265769 0 0 -1 0 0 0 -1 forward_v I I I I #
coedge $-1 $478 $361 $364 $479 forward $241 $-1 #
coedge $-1 $367 $243 $244 $355 reversed $152 $-1 #
coedge $-1 $361 $478 $243 $353 reversed $241 $-1 #
edge $-1 $368 -9.929214752520549 $480 9.929214752520549 $352 $481 forward 7 unknown #
coedge $-1 $245 $244 $478 $482 forward $97 $-1 #
edge $-1 $359 -51.669057283242282 $480 51.669057283242282 $351 $483 forward 7 unknown #
coedge $-1 $364 $363 $245 $357 reversed $348 $-1 #
edge $-1 $484 -51.669057283242282 $358 51.669057283242282 $356 $485 forward 7 unknown #
vertex $-1 $247 $486 #
vertex $-1 $370 $487 #
straight-curve $-1 51.669057283242282 0 -9.929214752520549 0 -1 0 I I #
coedge $-1 $350 $352 $248 $362 reversed $241 $-1 #
edge $-1 $365 -32.433540996265769 $368 32.433540996265769 $361 $488 forward 7 unknown #
coedge $-1 $356 $249 $254 $371 forward $348 $-1 #
coedge $-1 $249 $356 $350 $479 reversed $348 $-1 #
vertex $-1 $250 $489 #
straight-curve $-1 0 32.433540996265769 9.929214752520549 -1 0 0 I I #
coedge $-1 $251 $351 $253 $370 reversed $152 $-1 #
vertex $-1 $362 $490 #
straight-curve $-1 0 -32.433540996265769 9.929214752520549 1 0 0 I I #
edge $-1 $256 -9.929214752520549 $359 9.929214752520549 $253 $491 forward 7 unknown #
edge $-1 $257 -9.929214752520549 $358 9.929214752520549 $254 $492 forward 7 unknown #
point $-1 51.669057283242282 -32.433540996265769 9.929214752520549 #
point $-1 51.669057283242282 32.433540996265769 9.929214752520549 #
face $-1 $-1 $390 $37 $-1 $493 reversed single #
loop $-1 $-1 $494 $259 #
plane-surface $-1 0 -43.692937804355772 7.929214752520549 0 1 0 0 0 1 forward_v I I I I #
coedge $-1 $495 $387 $389 $496 forward $260 $-1 #
coedge $-1 $262 $269 $497 $498 forward $160 $-1 #
coedge $-1 $499 $267 $262 $380 reversed $390 $-1 #
edge $-1 $500 -5.6296984040450013 $271 5.6296984040450013 $379 $501 forward 7 unknown #
coedge $-1 $264 $263 $494 $502 reversed $101 $-1 #
coedge $-1 $387 $495 $263 $383 forward $260 $-1 #
edge $-1 $503 -5.6296984040450013 $385 5.6296984040450013 $263 $504 forward 7 unknown #
edge $-1 $270 -5.6296984040450013 $505 5.6296984040450013 $264 $506 forward 7 unknown #
vertex $-1 $265 $507 #
straight-curve $-1 -51.669057283242282 -32.433540996265769 0 0 0 -1 I I #
coedge $-1 $377 $382 $266 $388 reversed $260 $-1 #
edge $-1 $391 -51.669057283242282 $385 51.669057283242282 $387 $508 forward 7 unknown #
coedge $-1 $267 $499 $377 $496 reversed $390 $-1 #
loop $-1 $-1 $267 $374 #
vertex $-1 $268 $509 #
straight-curve $-1 51.669057283242282 -32.433540996265769 0 0 0 1 I I #
point $-1 -51.669057283242282 -32.433540996265769 9.429214752520549 #
point $-1 51.669057283242282 -32.433540996265769 9.429214752520549 #
plane-surface $-1 0 0 9.929214752520549 0 0 1 1 0 0 forward_v I I I I #
coedge $-1 $406 $405 $398 $510 forward $274 $-1 #
coedge $-1 $398 $276 $278 $402 reversed $168 $-1 #
coedge $-1 $276 $397 $396 $510 reversed $168 $-1 #
coedge $-1 $284 $279 $276 $400 forward $285 $-1 #
edge $-1 $403 19.835302155028238 $511 27.109794027060808 $399 $512 forward 7 unknown #
coedge $-1 $278 $277 $406 $513 reversed $105 $-1 #
edge $-1 $514 -103.33811456648458 $403 -93.225380712048405 $397 $515 forward 7 unknown #
vertex $-1 $280 $516 #
straight-curve $-1 44.394565411209712 -6.0215645532805659 9.9292147525205579 0 -1 0 I I #
coedge $-1 $396 $281 $284 $410 reversed $274 $-1 #
coedge $-1 $281 $396 $401 $513 forward $274 $-1 #
vertex $-1 $282 $517 #
straight-curve $-1 51.669057283242282 -5.0886080641363529 74.512112224703699 0 0 1 I I #
straight-curve $-1 -22.666160602008418 -5.0886080641363529 74.689006564156713 0.71933979245794832 0 -0.69465837861970381 I I #
edge $-1 $511 -18.997650148985912 $286 -5.0886080641363529 $405 $518 forward 7 unknown #
point $-1 51.669057283242282 -5.0886080641363529 9.929214752520549 #
point $-1 44.394565411209712 -5.0886080641363529 9.9292147525205507 #
edge $-1 $519 1 $519 0 $289 $-1 forward 7 unknown #
vertex $-1 $290 $520 #
ellipse-curve $-1 45.979869318154059 -12.043129106561132 4.2919189761489953 0.69465837861970381 0 0.71933979245794832 1.7983494811448708 0 -1.7366459465492596 1 I I #
point $-1 49.830160828370893 -12.043129106561132 4.6801211546036967 #
loop $-1 $-1 $301 $293 #
plane-surface $-1 -51.669057283242282 0 0 1 0 0 0 0 -1 forward_v I I I I #
coedge $-1 $420 $296 $298 $424 reversed $183 $-1 #
coedge $-1 $296 $419 $521 $522 reversed $183 $-1 #
coedge $-1 $304 $299 $296 $422 forward $294 $-1 #
edge $-1 $425 -20.951482350186645 $523 -18.454498124499324 $421 $524 forward 7 unknown #
coedge $-1 $298 $297 $428 $525 reversed $114 $-1 #
edge $-1 $526 2.787470371894754e-014 $425 4.848154749220396 $419 $527 forward 7 unknown #
vertex $-1 $300 $528 #
straight-curve $-1 -49.172073057554954 -8.956560908174378 9.929214752520549 0 1 0 I I #
coedge $-1 $521 $301 $304 $432 reversed $417 $-1 #
coedge $-1 $301 $521 $423 $525 forward $417 $-1 #
vertex $-1 $302 $529 #
straight-curve $-1 -51.669057283242282 -21.174144188175763 29.498298619223597 0 0 1 I I #
straight-curve $-1 -51.669057283242296 -21.174144188175763 5.7735349947604675 -0.51503806187062418 0 -0.85716730853699208 I I #
edge $-1 $523 14.652099444521749 $305 21.174144188175763 $427 $530 forward 7 unknown #
point $-1 -51.669057283242282 -21.174144188175763 9.929214752520549 #
point $-1 -49.172073057554961 -21.174144188175763 9.929214752520549 #
edge $-1 $531 1 $531 0 $308 $-1 forward 7 unknown #
vertex $-1 $309 $532 #
ellipse-curve $-1 -49.534099256998147 -19.86973523944496 7.3187324345215794 -0.85716730853699208 0 0.51503806187062418 0.25751903093531209 0 0.42858365426849604 1 I I #
point $-1 -50.163046139463297 -19.86973523944496 8.2799585279090007 #
edge $-1 $533 1 $533 0 $312 $-1 forward 7 unknown #
vertex $-1 $313 $534 #
ellipse-curve $-1 -49.534099256998147 -17.913121816348756 7.3187324345215794 -0.85716730853699208 0 0.51503806187062418 0.25751903093531209 0 0.42858365426849604 1 I I #
point $-1 -50.163046139463297 -17.913121816348756 8.2799585279090007 #
edge $-1 $535 1 $535 0 $316 $-1 forward 7 unknown #
vertex $-1 $317 $536 #
ellipse-curve $-1 -49.534099256998147 -15.956508393252552 7.3187324345215794 -0.85716730853699208 0 0.51503806187062418 0.25751903093531209 0 0.42858365426849604 1 I I #
point $-1 -50.163046139463297 -15.956508393252552 8.2799585279090007 #
loop $-1 $-1 $328 $320 #
plane-surface $-1 -51.669057283242282 0 0 1 0 0 0 0 -1 forward_v I I I I #
coedge $-1 $450 $323 $325 $454 reversed $212 $-1 #
coedge $-1 $323 $449 $537 $538 reversed $212 $-1 #
coedge $-1 $331 $326 $323 $452 forward $321 $-1 #
edge $-1 $455 -20.951482350186645 $539 -18.454498124499324 $451 $540 forward 7 unknown #
coedge $-1 $325 $324 $458 $541 reversed $133 $-1 #
edge $-1 $542 2.787470371894754e-014 $455 4.848154749220396 $449 $543 forward 7 unknown #
vertex $-1 $327 $544 #
straight-curve $-1 -49.172073057554954 4.445360387936006 9.929214752520549 0 1 0 I I #
coedge $-1 $537 $328 $331 $462 reversed $447 $-1 #
coedge $-1 $328 $537 $453 $541 forward $447 $-1 #
vertex $-1 $329 $545 #
straight-curve $-1 -51.669057283242282 5.6296984040450049 29.498298619223597 0 0 1 I I #
straight-curve $-1 -51.669057283242296 5.6296984040450049 5.7735349947604675 -0.51503806187062418 0 -0.85716730853699208 I I #
edge $-1 $539 -12.151743147699019 $332 -5.6296984040450049 $457 $546 forward 7 unknown #
point $-1 -51.669057283242282 5.6296984040450049 9.929214752520549 #
point $-1 -49.172073057554961 5.6296984040450049 9.929214752520549 #
edge $-1 $547 1 $547 0 $335 $-1 forward 7 unknown #
vertex $-1 $336 $548 #
ellipse-curve $-1 -49.534099256998147 6.9341073527758041 7.3187324345215794 -0.85716730853699208 0 0.51503806187062418 0.25751903093531209 0 0.42858365426849604 1 I I #
point $-1 -50.163046139463297 6.9341073527758041 8.2799585279090007 #
edge $-1 $549 1 $549 0 $339 $-1 forward 7 unknown #
vertex $-1 $340 $550 #
ellipse-curve $-1 -49.534099256998147 8.8907207758720119 7.3187324345215794 -0.85716730853699208 0 0.51503806187062418 0.25751903093531209 0 0.42858365426849604 1 I I #
point $-1 -50.163046139463297 8.8907207758720119 8.2799585279090007 #
edge $-1 $551 1 $551 0 $343 $-1 forward 7 unknown #
vertex $-1 $344 $552 #
ellipse-curve $-1 -49.534099256998147 10.84733419896822 7.3187324345215794 -0.85716730853699208 0 0.51503806187062418 0.25751903093531209 0 0.42858365426849604 1 I I #
point $-1 -50.163046139463297 10.84733419896822 8.2799585279090007 #
plane-surface $-1 51.669057283242282 0 0 -1 0 0 0 0 1 forward_v I I I I #
coedge $-1 $352 $350 $354 $482 reversed $241 $-1 #
edge $-1 $365 -9.929214752520549 $484 9.929214752520549 $364 $553 forward 7 unknown #
vertex $-1 $482 $554 #
straight-curve $-1 -51.669057283242282 -32.433540996265769 0 0 0 -1 I I #
edge $-1 $480 -32.433540996265769 $484 32.433540996265769 $478 $555 forward 7 unknown #
straight-curve $-1 0 -32.433540996265769 -9.929214752520549 -1 0 0 I I #
vertex $-1 $357 $556 #
straight-curve $-1 0 32.433540996265769 -9.929214752520549 1 0 0 I I #
point $-1 51.669057283242282 32.433540996265769 -9.929214752520549 #
point $-1 51.669057283242282 -32.433540996265769 -9.929214752520549 #
straight-curve $-1 -51.669057283242282 0 9.929214752520549 0 -1 0 I I #
point $-1 -51.669057283242282 32.433540996265769 9.929214752520549 #
point $-1 -51.669057283242282 -32.433540996265769 9.929214752520549 #
straight-curve $-1 51.669057283242282 -32.433540996265769 0 0 0 -1 I I #
straight-curve $-1 51.669057283242282 32.433540996265769 0 0 0 -1 I I #
plane-surface $-1 51.669057283242282 0 0 -1 0 0 0 0 1 forward_v I I I I #
coedge $-1 $557 $497 $381 $502 forward $375 $-1 #
coedge $-1 $382 $377 $557 $558 forward $260 $-1 #
edge $-1 $391 -5.6296984040450013 $559 5.6296984040450013 $389 $560 forward 7 unknown #
coedge $-1 $494 $561 $378 $498 reversed $375 $-1 #
edge $-1 $505 -51.669057283242282 $500 51.669057283242282 $497 $562 forward 7 unknown #
coedge $-1 $389 $379 $561 $563 forward $390 $-1 #
vertex $-1 $380 $564 #
straight-curve $-1 51.669057283242282 -38.063239400310771 9.429214752520549 0 1 0 I I #
edge $-1 $505 -1.5 $503 1.5 $381 $565 forward 7 unknown #
vertex $-1 $383 $566 #
straight-curve $-1 -51.669057283242282 -38.063239400310771 6.429214752520549 0 1 0 I I #
vertex $-1 $384 $567 #
straight-curve $-1 -51.669057283242282 -38.063239400310771 9.429214752520549 0 -1 0 I I #
point $-1 -51.669057283242282 -32.433540996265769 6.429214752520549 #
straight-curve $-1 0 -32.433540996265769 6.429214752520549 -1 0 0 I I #
point $-1 51.669057283242282 -32.433540996265769 6.429214752520549 #
edge $-1 $511 64.582897472183149 $514 71.607792774918366 $396 $568 forward 7 unknown #
vertex $-1 $410 $569 #
straight-curve $-1 24.559263256181474 -18.997650148985912 9.9292147525205507 1 0 0 I I #
edge $-1 $514 -12.976085595705346 $407 0.93295648914421303 $406 $570 forward 7 unknown #
vertex $-1 $513 $571 #
straight-curve $-1 -22.666160602008418 -18.997650148985912 74.689006564156713 -0.71933979245794832 0 0.69465837861970381 I I #
point $-1 44.394565411209712 -18.997650148985912 9.9292147525205507 #
point $-1 51.669057283242282 -5.0886080641363529 2.9043194497853335 #
straight-curve $-1 51.669057283242282 0 9.929214752520549 0 1 0 I I #
vertex $-1 $413 $572 #
point $-1 47.778218799298926 -12.043129106561132 2.5552730295997352 #
coedge $-1 $428 $427 $420 $522 forward $417 $-1 #
edge $-1 $523 19.569083866703046 $526 23.724763624463105 $521 $573 forward 7 unknown #
vertex $-1 $432 $574 #
straight-curve $-1 -70.123555407741605 -14.652099444521749 9.9292147525205507 -1 0 0 I I #
edge $-1 $526 5.695538536347371 $429 12.217583280001385 $428 $575 forward 7 unknown #
vertex $-1 $525 $576 #
straight-curve $-1 -51.669057283242296 -14.652099444521749 5.7735349947604675 0.51503806187062418 0 0.85716730853699208 I I #
point $-1 -49.172073057554961 -14.652099444521749 9.929214752520549 #
point $-1 -51.669057283242282 -21.174144188175763 5.7735349947604915 #
straight-curve $-1 -51.669057283242282 0 9.929214752520549 0 -1 0 I I #
vertex $-1 $435 $577 #
point $-1 -49.276580226062833 -19.86973523944496 7.7473160887900754 #
vertex $-1 $439 $578 #
point $-1 -49.276580226062833 -17.913121816348756 7.7473160887900754 #
vertex $-1 $443 $579 #
point $-1 -49.276580226062833 -15.956508393252552 7.7473160887900754 #
coedge $-1 $458 $457 $450 $538 forward $447 $-1 #
edge $-1 $539 19.569083866703046 $542 23.724763624463105 $537 $580 forward 7 unknown #
vertex $-1 $462 $581 #
straight-curve $-1 -70.123555407741605 12.151743147699019 9.9292147525205507 -1 0 0 I I #
edge $-1 $542 -7.706382759763013 $459 -1.1843380161089989 $458 $582 forward 7 unknown #
vertex $-1 $541 $583 #
straight-curve $-1 -51.669057283242296 12.151743147699019 5.7735349947604675 0.51503806187062418 0 0.85716730853699208 I I #
point $-1 -49.172073057554961 12.151743147699019 9.929214752520549 #
point $-1 -51.669057283242282 5.6296984040450049 5.7735349947604915 #
straight-curve $-1 -51.669057283242282 0 9.929214752520549 0 -1 0 I I #
vertex $-1 $465 $584 #
point $-1 -49.276580226062833 6.9341073527758041 7.7473160887900754 #
vertex $-1 $469 $585 #
point $-1 -49.276580226062833 8.8907207758720119 7.7473160887900754 #
vertex $-1 $473 $586 #
point $-1 -49.276580226062833 10.84733419896822 7.7473160887900754 #
straight-curve $-1 -51.669057283242282 32.433540996265769 0 0 0 -1 I I #
point $-1 -51.669057283242282 -32.433540996265769 -9.929214752520549 #
straight-curve $-1 -51.669057283242282 0 -9.929214752520549 0 1 0 I I #
point $-1 -51.669057283242282 32.433540996265769 -9.929214752520549 #
coedge $-1 $561 $494 $495 $558 reversed $375 $-1 #
edge $-1 $559 -51.669057283242282 $503 51.669057283242282 $557 $587 forward 7 unknown #
vertex $-1 $563 $588 #
straight-curve $-1 51.669057283242282 -38.063239400310771 6.429214752520549 0 -1 0 I I #
coedge $-1 $497 $557 $499 $563 reversed $375 $-1 #
straight-curve $-1 0 -43.692937804355772 9.429214752520549 1 0 0 I I #
edge $-1 $500 -1.5 $559 1.5 $499 $589 forward 7 unknown #
point $-1 51.669057283242282 -43.692937804355772 9.429214752520549 #
straight-curve $-1 -51.669057283242282 -43.692937804355772 7.929214752520549 0 0 -1 I I #
point $-1 -51.669057283242282 -43.692937804355772 6.429214752520549 #
point $-1 -51.669057283242282 -43.692937804355772 9.429214752520549 #
straight-curve $-1 51.669057283242282 -18.997650148985912 74.512112224703699 0 0 -1 I I #
point $-1 51.669057283242282 -18.997650148985912 9.929214752520549 #
straight-curve $-1 51.669057283242282 -6.0215645532805659 2.9043194497853406 0 1 0 I I #
point $-1 51.669057283242282 -18.997650148985912 2.9043194497853335 #
point $-1 44.243223371604799 -12.043129106561132 2.4935694950041243 #
straight-curve $-1 -51.669057283242282 -14.652099444521749 29.498298619223597 0 0 -1 I I #
point $-1 -51.669057283242282 -14.652099444521749 9.929214752520549 #
straight-curve $-1 -51.669057283242282 -8.956560908174378 5.7735349947604959 0 -1 0 I I #
point $-1 -51.669057283242282 -14.652099444521749 5.7735349947604915 #
point $-1 -49.105515602729653 -19.86973523944496 7.0612134035862679 #
point $-1 -49.105515602729653 -17.913121816348756 7.0612134035862679 #
point $-1 -49.105515602729653 -15.956508393252552 7.0612134035862679 #
straight-curve $-1 -51.669057283242282 12.151743147699019 29.498298619223597 0 0 -1 I I #
point $-1 -51.669057283242282 12.151743147699019 9.929214752520549 #
straight-curve $-1 -51.669057283242282 4.445360387936006 5.7735349947604959 0 -1 0 I I #
point $-1 -51.669057283242282 12.151743147699019 5.7735349947604915 #
point $-1 -49.105515602729653 6.9341073527758041 7.0612134035862679 #
point $-1 -49.105515602729653 8.8907207758720119 7.0612134035862679 #
point $-1 -49.105515602729653 10.84733419896822 7.0612134035862679 #
straight-curve $-1 0 -43.692937804355772 6.429214752520549 -1 0 0 I I #
point $-1 51.669057283242282 -43.692937804355772 6.429214752520549 #
straight-curve $-1 51.669057283242282 -43.692937804355772 7.929214752520549 0 0 -1 I I #
End-of-ACIS-data 