500 0 6 0           
7 Unknown 11 ACIS 5.0 NT 24 Thu Mar 25 15:46:46 1999 
-1 9.9999999999999995e-007 1e-010 
body $-1 $6 $-1 $7 #
body $-1 $8 $-1 $9 #
body $-1 $10 $-1 $11 #
body $-1 $12 $-1 $13 #
body $-1 $14 $-1 $15 #
body $-1 $16 $-1 $17 #
lump $-1 $-1 $18 $0 #
transform $-1 1 0 0 0 1 0 0 0 1 61.795098727378154 29.679827410252141 11.687513322549071 1 rotate no_reflect no_shear #
lump $-1 $-1 $19 $1 #
transform $-1 1 0 0 0 1 0 0 0 1 61.795098727378154 29.679827410252141 11.687513322549071 1 rotate no_reflect no_shear #
lump $-1 $-1 $20 $2 #
transform $-1 1 0 0 0 1 0 0 0 1 61.795098727378154 29.679827410252141 11.687513322549071 1 rotate no_reflect no_shear #
lump $-1 $-1 $21 $3 #
transform $-1 1 0 0 0 1 0 0 0 1 61.795098727378154 29.679827410252141 11.687513322549071 1 rotate no_reflect no_shear #
lump $-1 $-1 $22 $4 #
transform $-1 1 0 0 0 1 0 0 0 1 61.795098727378154 29.679827410252141 11.687513322549071 1 rotate no_reflect no_shear #
lump $-1 $-1 $23 $5 #
transform $-1 1 0 0 0 1 0 0 0 1 61.795098727378154 29.679827410252141 11.687513322549071 1 rotate no_reflect no_shear #
shell $-1 $-1 $-1 $24 $-1 $6 #
shell $-1 $-1 $-1 $25 $-1 $8 #
shell $-1 $-1 $-1 $26 $-1 $10 #
shell $-1 $-1 $-1 $27 $-1 $12 #
shell $-1 $-1 $-1 $28 $-1 $14 #
shell $-1 $-1 $-1 $29 $-1 $16 #
face $-1 $30 $31 $18 $-1 $32 forward single #
face $-1 $33 $34 $19 $-1 $35 forward single #
face $-1 $36 $37 $20 $-1 $38 reversed single #
face $-1 $39 $40 $21 $-1 $41 forward single #
face $-1 $42 $43 $22 $-1 $44 forward single #
face $-1 $45 $46 $23 $-1 $47 forward single #
face $-1 $48 $49 $18 $-1 $50 reversed single #
loop $-1 $-1 $51 $24 #
plane-surface $-1 0 0 11.687513322549071 0 0 1 1 0 0 forward_v I I I I #
face $-1 $52 $53 $19 $-1 $54 reversed single #
loop $-1 $-1 $55 $25 #
plane-surface $-1 0 -29.679827410252141 0 0 1 0 0 0 1 forward_v I I I I #
face $-1 $56 $57 $20 $-1 $58 reversed single #
loop $-1 $-1 $59 $26 #
plane-surface $-1 -30.224096506987312 101.00170510275301 118.51792760503297 -1 0 0 0 0.83867057594974714 0.54463902268945019 forward_v I I I I #
face $-1 $60 $61 $21 $-1 $62 forward single #
loop $-1 $63 $64 $27 #
cone-surface $-1 -55.480898283299986 22.057209564479088 3.769408116603385 0 -0.83867057594974714 -0.54463902268945019 3 0 0 1 I I 0 1 3 forward I I I I #
face $-1 $65 $66 $22 $-1 $67 forward single #
loop $-1 $68 $69 $28 #
cone-surface $-1 -46.009597617182727 22.057209564479088 3.769408116603385 0 -0.83867057594974714 -0.54463902268945019 3 0 0 1 I I 0 1 3 forward I I I I #
face $-1 $70 $71 $23 $-1 $72 forward single #
loop $-1 $73 $74 $29 #
cone-surface $-1 -36.538296951065476 22.057209564479088 3.769408116603385 0 -0.83867057594974714 -0.54463902268945019 3 0 0 1 I I 0 1 3 forward I I I I #
face $-1 $75 $76 $18 $-1 $77 reversed single #
loop $-1 $-1 $78 $30 #
plane-surface $-1 0 0 -11.687513322549071 0 0 1 1 0 0 forward_v I I I I #
coedge $-1 $79 $80 $81 $82 forward $31 $-1 #
face $-1 $83 $84 $19 $-1 $85 reversed single #
loop $-1 $-1 $86 $33 #
plane-surface $-1 0 0 -11.687513322549071 0 0 1 1 0 0 forward_v I I I I #
coedge $-1 $87 $88 $89 $90 forward $34 $-1 #
face $-1 $91 $92 $20 $-1 $93 forward single #
loop $-1 $-1 $94 $36 #
plane-surface $-1 -46.009597617182735 -2.6497569783704193 51.20588324927833 0 0.83867057594974714 0.54463902268945019 1 0 0 forward_v I I I I #
coedge $-1 $95 $96 $97 $98 reversed $37 $-1 #
face $-1 $-1 $99 $21 $-1 $100 forward single #
loop $-1 $101 $102 $39 #
cone-surface $-1 -55.480898283299986 16.50961371134893 0.1667573615041622 0 -0.83867057594974714 -0.54463902268945019 1.5 0 0 1 I I -0.70710678118654757 0.70710678118654757 1.5 forward I I I I #
loop $-1 $-1 $103 $27 #
coedge $-1 $64 $64 $104 $105 reversed $40 $-1 #
face $-1 $-1 $106 $22 $-1 $107 forward single #
loop $-1 $108 $109 $42 #
cone-surface $-1 -46.009597617182727 16.50961371134893 0.1667573615041622 0 -0.83867057594974714 -0.54463902268945019 1.5 0 0 1 I I -0.70710678118654757 0.70710678118654757 1.5 forward I I I I #
loop $-1 $-1 $110 $28 #
coedge $-1 $69 $69 $111 $112 reversed $43 $-1 #
face $-1 $-1 $113 $23 $-1 $114 forward single #
loop $-1 $115 $116 $45 #
cone-surface $-1 -36.538296951065476 16.50961371134893 0.1667573615041622 0 -0.83867057594974714 -0.54463902268945019 1.5 0 0 1 I I -0.70710678118654757 0.70710678118654757 1.5 forward I I I I #
loop $-1 $-1 $117 $29 #
coedge $-1 $74 $74 $118 $119 reversed $46 $-1 #
face $-1 $120 $121 $18 $-1 $122 reversed single #
loop $-1 $-1 $123 $48 #
plane-surface $-1 0 -29.679827410252141 0 0 1 0 0 0 1 forward_v I I I I #
coedge $-1 $124 $125 $126 $127 forward $49 $-1 #
coedge $-1 $128 $51 $129 $130 forward $31 $-1 #
coedge $-1 $51 $128 $131 $132 forward $31 $-1 #
coedge $-1 $133 $134 $51 $82 reversed $135 $-1 #
edge $-1 $136 -29.679827410252141 $137 29.679827410252141 $81 $138 forward 7 unknown #
face $-1 $139 $140 $19 $-1 $141 forward single #
loop $-1 $-1 $142 $52 #
plane-surface $-1 61.795098727378154 0 0 -1 0 0 0 0 1 forward_v I I I I #
coedge $-1 $143 $144 $145 $146 forward $53 $-1 #
coedge $-1 $145 $55 $142 $147 reversed $34 $-1 #
coedge $-1 $55 $145 $148 $149 reversed $34 $-1 #
coedge $-1 $150 $151 $55 $90 reversed $140 $-1 #
edge $-1 $152 -61.795098727378154 $153 61.795098727378154 $89 $154 forward 7 unknown #
face $-1 $155 $156 $20 $-1 $157 reversed single #
loop $-1 $-1 $158 $56 #
plane-surface $-1 0 0 11.687513322549071 0 0 1 1 0 0 forward_v I I I I #
coedge $-1 $159 $160 $161 $162 reversed $57 $-1 #
coedge $-1 $96 $59 $163 $164 reversed $37 $-1 #
coedge $-1 $59 $95 $159 $165 reversed $37 $-1 #
coedge $-1 $161 $166 $59 $98 forward $156 $-1 #
edge $-1 $167 47.57145047996741 $168 57.836276449728665 $97 $169 forward 7 unknown #
loop $-1 $-1 $104 $60 #
plane-surface $-1 -46.009597617182735 -2.6497569783704193 51.20588324927833 0 0.83867057594974714 0.54463902268945019 1 0 0 forward_v I I I I #
loop $-1 $-1 $170 $39 #
coedge $-1 $102 $102 $103 $171 reversed $61 $-1 #
coedge $-1 $103 $103 $102 $171 forward $63 $-1 #
coedge $-1 $104 $104 $64 $105 forward $99 $-1 #
edge $-1 $172 4.4811024524586325e-016 $172 6.2831853071796013 $104 $173 forward 7 unknown #
loop $-1 $-1 $111 $65 #
plane-surface $-1 -46.009597617182735 -2.6497569783704193 51.20588324927833 0 0.83867057594974714 0.54463902268945019 1 0 0 forward_v I I I I #
loop $-1 $-1 $174 $42 #
coedge $-1 $109 $109 $110 $175 reversed $66 $-1 #
coedge $-1 $110 $110 $109 $175 forward $68 $-1 #
coedge $-1 $111 $111 $69 $112 forward $106 $-1 #
edge $-1 $176 4.4811024524586325e-016 $176 6.2831853071796013 $111 $177 forward 7 unknown #
loop $-1 $-1 $118 $70 #
plane-surface $-1 -46.009597617182735 -2.6497569783704193 51.20588324927833 0 0.83867057594974714 0.54463902268945019 1 0 0 forward_v I I I I #
loop $-1 $-1 $178 $45 #
coedge $-1 $116 $116 $117 $179 reversed $71 $-1 #
coedge $-1 $117 $117 $116 $179 forward $73 $-1 #
coedge $-1 $118 $118 $74 $119 forward $113 $-1 #
edge $-1 $180 4.4811024524586325e-016 $180 6.2831853071796013 $118 $181 forward 7 unknown #
face $-1 $182 $183 $18 $-1 $184 reversed single #
loop $-1 $-1 $185 $75 #
plane-surface $-1 -61.795098727378154 0 0 1 0 0 0 0 -1 forward_v I I I I #
coedge $-1 $186 $131 $187 $188 forward $76 $-1 #
coedge $-1 $189 $78 $186 $190 forward $49 $-1 #
coedge $-1 $78 $189 $191 $192 forward $49 $-1 #
coedge $-1 $134 $133 $78 $127 reversed $135 $-1 #
edge $-1 $193 -29.679827410252141 $194 29.679827410252141 $126 $195 forward 7 unknown #
coedge $-1 $80 $79 $196 $197 forward $31 $-1 #
coedge $-1 $198 $199 $79 $130 reversed $183 $-1 #
edge $-1 $137 -61.795098727378154 $200 61.795098727378154 $129 $201 forward 7 unknown #
coedge $-1 $123 $202 $80 $132 reversed $76 $-1 #
edge $-1 $203 -61.795098727378154 $136 61.795098727378154 $131 $204 forward 7 unknown #
coedge $-1 $126 $81 $202 $205 forward $135 $-1 #
coedge $-1 $81 $126 $198 $206 reversed $135 $-1 #
loop $-1 $-1 $133 $182 #
vertex $-1 $82 $207 #
vertex $-1 $82 $208 #
straight-curve $-1 61.795098727378154 0 11.687513322549071 0 1 0 I I #
face $-1 $209 $210 $19 $-1 $211 reversed single #
loop $-1 $-1 $151 $83 #
plane-surface $-1 0 -35.478623866005655 -4.7641767005408919 0 0 1 1 0 0 forward_v I I I I #
coedge $-1 $212 $213 $87 $147 forward $84 $-1 #
coedge $-1 $214 $86 $213 $215 forward $53 $-1 #
coedge $-1 $86 $214 $216 $217 forward $53 $-1 #
coedge $-1 $88 $87 $86 $146 reversed $34 $-1 #
edge $-1 $218 -61.795098727378154 $219 61.795098727378154 $86 $220 forward 7 unknown #
edge $-1 $219 -11.687513322549071 $153 -4.7641767005408919 $142 $221 forward 7 unknown #
coedge $-1 $216 $222 $88 $149 forward $223 $-1 #
edge $-1 $152 4.7641767005408919 $218 11.687513322549071 $148 $224 forward 7 unknown #
coedge $-1 $225 $89 $222 $226 forward $140 $-1 #
coedge $-1 $89 $225 $212 $227 forward $140 $-1 #
vertex $-1 $149 $228 #
vertex $-1 $227 $229 #
straight-curve $-1 0 -29.679827410252141 -4.7641767005408919 1 0 0 I I #
face $-1 $-1 $230 $20 $-1 $231 reversed single #
loop $-1 $-1 $97 $91 #
plane-surface $-1 0 29.679827410252141 0 0 -1 0 0 0 -1 forward_v I I I I #
coedge $-1 $163 $232 $233 $234 forward $92 $-1 #
coedge $-1 $233 $94 $96 $165 forward $57 $-1 #
coedge $-1 $94 $233 $235 $236 reversed $57 $-1 #
coedge $-1 $237 $97 $94 $162 forward $156 $-1 #
edge $-1 $168 7.2192976983959447 $238 38.790299918786786 $161 $239 forward 7 unknown #
coedge $-1 $240 $158 $95 $164 forward $92 $-1 #
edge $-1 $241 -27.487080854259389 $167 -20.821025141124363 $163 $242 forward 7 unknown #
edge $-1 $168 -59.359654820504282 $241 -47.120253243625399 $96 $243 forward 7 unknown #
coedge $-1 $97 $237 $240 $244 reversed $156 $-1 #
vertex $-1 $244 $245 #
vertex $-1 $98 $246 #
straight-curve $-1 -30.224096506987312 29.679827410252145 59.258963802516483 0 0 -1 I I #
coedge $-1 $170 $170 $-1 $247 reversed $101 $-1 #
edge $-1 $248 0 $248 6.2831853071796004 $102 $249 forward 7 unknown #
vertex $-1 $105 $250 #
ellipse-curve $-1 -55.480898283299986 26.346799553684633 6.5551003376684385 0 0.83867057594974714 0.54463902268945019 3 0 0 1 I I #
coedge $-1 $174 $174 $-1 $251 reversed $108 $-1 #
edge $-1 $252 0 $252 6.2831853071796004 $109 $253 forward 7 unknown #
vertex $-1 $112 $254 #
ellipse-curve $-1 -46.009597617182727 26.346799553684633 6.5551003376684385 0 0.83867057594974714 0.54463902268945019 3 0 0 1 I I #
coedge $-1 $178 $178 $-1 $255 reversed $115 $-1 #
edge $-1 $256 0 $256 6.2831853071796004 $116 $257 forward 7 unknown #
vertex $-1 $119 $258 #
ellipse-curve $-1 -36.538296951065476 26.346799553684633 6.5551003376684385 0 0.83867057594974714 0.54463902268945019 3 0 0 1 I I #
face $-1 $-1 $135 $18 $-1 $259 reversed single #
loop $-1 $-1 $198 $120 #
plane-surface $-1 0 29.679827410252141 0 0 -1 0 0 0 -1 forward_v I I I I #
coedge $-1 $260 $196 $199 $261 forward $121 $-1 #
coedge $-1 $202 $123 $124 $190 reversed $76 $-1 #
coedge $-1 $196 $260 $123 $188 reversed $121 $-1 #
edge $-1 $203 -11.687513322549071 $262 11.687513322549071 $187 $263 forward 7 unknown #
coedge $-1 $125 $124 $260 $264 forward $49 $-1 #
edge $-1 $194 -61.795098727378154 $262 61.795098727378154 $186 $265 forward 7 unknown #
coedge $-1 $199 $198 $125 $192 reversed $183 $-1 #
edge $-1 $266 -61.795098727378154 $193 61.795098727378154 $191 $267 forward 7 unknown #
vertex $-1 $127 $268 #
vertex $-1 $205 $269 #
straight-curve $-1 61.795098727378154 0 -11.687513322549071 0 -1 0 I I #
coedge $-1 $185 $187 $128 $197 reversed $121 $-1 #
edge $-1 $200 -29.679827410252141 $203 29.679827410252141 $196 $270 forward 7 unknown #
coedge $-1 $191 $129 $134 $206 forward $183 $-1 #
coedge $-1 $129 $191 $185 $261 reversed $183 $-1 #
vertex $-1 $130 $271 #
straight-curve $-1 0 29.679827410252141 11.687513322549071 -1 0 0 I I #
coedge $-1 $131 $186 $133 $205 reversed $76 $-1 #
vertex $-1 $197 $272 #
straight-curve $-1 0 -29.679827410252141 11.687513322549071 1 0 0 I I #
edge $-1 $136 -11.687513322549071 $194 11.687513322549071 $133 $273 forward 7 unknown #
edge $-1 $137 -11.687513322549071 $193 11.687513322549071 $134 $274 forward 7 unknown #
point $-1 61.795098727378154 -29.679827410252141 11.687513322549071 #
point $-1 61.795098727378154 29.679827410252141 11.687513322549071 #
face $-1 $-1 $223 $19 $-1 $275 reversed single #
loop $-1 $-1 $276 $139 #
plane-surface $-1 0 -41.277420321759166 -8.2258450115449815 0 1 0 0 0 1 forward_v I I I I #
coedge $-1 $277 $142 $151 $227 reversed $84 $-1 #
coedge $-1 $142 $277 $143 $215 reversed $84 $-1 #
coedge $-1 $144 $143 $278 $279 forward $53 $-1 #
edge $-1 $219 29.679827410252141 $280 41.277420321759166 $213 $281 forward 7 unknown #
coedge $-1 $282 $148 $144 $217 reversed $223 $-1 #
edge $-1 $283 -41.277420321759166 $218 -29.679827410252141 $216 $284 forward 7 unknown #
vertex $-1 $149 $285 #
vertex $-1 $215 $286 #
straight-curve $-1 0 -29.679827410252141 -11.687513322549071 1 0 0 I I #
straight-curve $-1 61.795098727378154 -29.679827410252141 0 0 0 1 I I #
coedge $-1 $148 $282 $150 $226 reversed $223 $-1 #
loop $-1 $-1 $148 $209 #
straight-curve $-1 -61.795098727378154 -29.679827410252141 0 0 0 -1 I I #
coedge $-1 $151 $150 $287 $288 forward $140 $-1 #
edge $-1 $152 -5.7987964557535143 $289 5.7987964557535108 $222 $290 forward 7 unknown #
edge $-1 $291 -5.7987964557535108 $153 5.7987964557535143 $212 $292 forward 7 unknown #
point $-1 -61.795098727378154 -29.679827410252141 -4.7641767005408919 #
point $-1 61.795098727378154 -29.679827410252141 -4.7641767005408919 #
loop $-1 $-1 $235 $155 #
plane-surface $-1 -61.795098727378154 0 0 1 0 0 0 0 -1 forward_v I I I I #
coedge $-1 $158 $240 $293 $294 forward $92 $-1 #
coedge $-1 $160 $159 $158 $234 reversed $57 $-1 #
edge $-1 $295 -38.790299918786793 $241 -7.2192976983959447 $158 $296 forward 7 unknown #
coedge $-1 $293 $297 $160 $236 forward $230 $-1 #
edge $-1 $238 -37.165640496628285 $295 -24.926238919749412 $235 $298 forward 7 unknown #
coedge $-1 $166 $161 $297 $299 reversed $156 $-1 #
vertex $-1 $162 $300 #
straight-curve $-1 -23.004798808591367 29.679827410252138 1.4226873527878183 -1 0 0 I I #
coedge $-1 $232 $163 $166 $244 forward $92 $-1 #
vertex $-1 $164 $301 #
straight-curve $-1 -30.224096506987312 50.500852551376504 11.687513322549073 0 1 0 I I #
straight-curve $-1 -30.224096506987312 -2.6497569783704193 51.20588324927833 0 -0.54463902268945019 0.83867057594974714 I I #
edge $-1 $167 30.224096506987312 $302 61.795098727378154 $166 $303 forward 7 unknown #
point $-1 -30.224096506987312 29.679827410252141 11.687513322549071 #
point $-1 -30.224096506987312 29.679827410252145 1.4226873527878183 #
edge $-1 $304 1 $304 0 $170 $-1 forward 7 unknown #
vertex $-1 $171 $305 #
ellipse-curve $-1 -55.480898283299986 17.76761957527355 0.98371589553833749 0 0.83867057594974714 0.54463902268945019 3 0 0 1 I I #
point $-1 -52.480898283299986 26.346799553684626 6.5551003376684323 #
edge $-1 $306 1 $306 0 $174 $-1 forward 7 unknown #
vertex $-1 $175 $307 #
ellipse-curve $-1 -46.009597617182727 17.76761957527355 0.98371589553833749 0 0.83867057594974714 0.54463902268945019 3 0 0 1 I I #
point $-1 -43.009597617182727 26.346799553684626 6.5551003376684323 #
edge $-1 $308 1 $308 0 $178 $-1 forward 7 unknown #
vertex $-1 $179 $309 #
ellipse-curve $-1 -36.538296951065476 17.76761957527355 0.98371589553833749 0 0.83867057594974714 0.54463902268945019 3 0 0 1 I I #
point $-1 -33.538296951065476 26.346799553684626 6.5551003376684323 #
plane-surface $-1 61.795098727378154 0 0 -1 0 0 0 0 1 forward_v I I I I #
coedge $-1 $187 $185 $189 $264 reversed $121 $-1 #
edge $-1 $200 -11.687513322549071 $266 11.687513322549071 $199 $310 forward 7 unknown #
vertex $-1 $264 $311 #
straight-curve $-1 -61.795098727378154 -29.679827410252141 0 0 0 -1 I I #
edge $-1 $262 -29.679827410252141 $266 29.679827410252141 $260 $312 forward 7 unknown #
straight-curve $-1 0 -29.679827410252141 -11.687513322549071 -1 0 0 I I #
vertex $-1 $192 $313 #
straight-curve $-1 0 29.679827410252141 -11.687513322549071 1 0 0 I I #
point $-1 61.795098727378154 29.679827410252141 -11.687513322549071 #
point $-1 61.795098727378154 -29.679827410252141 -11.687513322549071 #
straight-curve $-1 -61.795098727378154 0 11.687513322549071 0 -1 0 I I #
point $-1 -61.795098727378154 29.679827410252141 11.687513322549071 #
point $-1 -61.795098727378154 -29.679827410252141 11.687513322549071 #
straight-curve $-1 61.795098727378154 -29.679827410252141 0 0 0 -1 I I #
straight-curve $-1 61.795098727378154 29.679827410252141 0 0 0 -1 I I #
plane-surface $-1 -61.795098727378154 0 0 1 0 0 0 0 -1 forward_v I I I I #
coedge $-1 $278 $287 $282 $314 forward $210 $-1 #
coedge $-1 $213 $212 $315 $316 forward $84 $-1 #
coedge $-1 $315 $276 $214 $279 reversed $210 $-1 #
edge $-1 $280 -61.795098727378154 $283 61.795098727378154 $278 $317 forward 7 unknown #
vertex $-1 $316 $318 #
straight-curve $-1 61.795098727378154 0 -11.687513322549071 0 -1 0 I I #
coedge $-1 $222 $216 $276 $314 reversed $223 $-1 #
vertex $-1 $217 $319 #
straight-curve $-1 -61.795098727378154 0 -11.687513322549071 0 1 0 I I #
point $-1 -61.795098727378154 -29.679827410252141 -11.687513322549071 #
point $-1 61.795098727378154 -29.679827410252141 -11.687513322549071 #
coedge $-1 $276 $315 $225 $288 reversed $210 $-1 #
edge $-1 $289 -61.795098727378154 $291 61.795098727378154 $287 $320 forward 7 unknown #
vertex $-1 $226 $321 #
straight-curve $-1 -61.795098727378154 -35.478623866005655 -4.7641767005408919 0 -1 0 I I #
vertex $-1 $227 $322 #
straight-curve $-1 61.795098727378154 -35.478623866005655 -4.7641767005408919 0 1 0 I I #
coedge $-1 $297 $235 $232 $294 reversed $230 $-1 #
edge $-1 $302 -29.679827410252141 $295 -23.013771697117114 $293 $323 forward 7 unknown #
vertex $-1 $236 $324 #
straight-curve $-1 -23.004798808591367 23.013771697117118 11.687513322549076 1 0 0 I I #
coedge $-1 $235 $293 $237 $299 forward $230 $-1 #
straight-curve $-1 -61.795098727378154 9.4379692925410588 32.592416473636312 0 -0.54463902268945019 0.83867057594974714 I I #
edge $-1 $302 -11.687513322549071 $238 -1.4226873527878181 $237 $325 forward 7 unknown #
point $-1 -61.795098727378154 29.679827410252141 1.4226873527878181 #
point $-1 -30.224096506987312 23.013771697117114 11.687513322549073 #
vertex $-1 $244 $326 #
straight-curve $-1 0 29.679827410252141 11.687513322549071 -1 0 0 I I #
vertex $-1 $247 $327 #
point $-1 -52.480898283299986 17.76761957527355 0.98371589553833749 #
vertex $-1 $251 $328 #
point $-1 -43.009597617182727 17.76761957527355 0.98371589553833749 #
vertex $-1 $255 $329 #
point $-1 -33.538296951065476 17.76761957527355 0.98371589553833749 #
straight-curve $-1 -61.795098727378154 29.679827410252141 0 0 0 -1 I I #
point $-1 -61.795098727378154 -29.679827410252141 -11.687513322549071 #
straight-curve $-1 -61.795098727378154 0 -11.687513322549071 0 1 0 I I #
point $-1 -61.795098727378154 29.679827410252141 -11.687513322549071 #
edge $-1 $289 -3.4616683110040896 $283 3.4616683110040896 $282 $330 forward 7 unknown #
coedge $-1 $287 $278 $277 $316 reversed $210 $-1 #
edge $-1 $291 -3.4616683110040896 $280 3.4616683110040896 $277 $331 forward 7 unknown #
straight-curve $-1 0 -41.277420321759166 -11.687513322549071 -1 0 0 I I #
point $-1 61.795098727378154 -41.277420321759166 -11.687513322549071 #
point $-1 -61.795098727378154 -41.277420321759166 -11.687513322549071 #
straight-curve $-1 0 -41.277420321759166 -4.7641767005408919 1 0 0 I I #
point $-1 -61.795098727378154 -41.277420321759166 -4.7641767005408919 #
point $-1 61.795098727378154 -41.277420321759166 -4.7641767005408919 #
straight-curve $-1 -61.795098727378154 0 11.687513322549071 0 -1 0 I I #
point $-1 -61.795098727378161 23.013771697117114 11.687513322549073 #
straight-curve $-1 -61.795098727378154 29.679827410252141 0 0 0 -1 I I #
point $-1 -61.795098727378154 29.679827410252141 11.687513322549071 #
point $-1 -55.480898283299986 15.251607847424308 -0.65020117253001308 #
point $-1 -46.009597617182727 15.251607847424308 -0.65020117253001308 #
point $-1 -36.538296951065476 15.251607847424308 -0.65020117253001308 #
straight-curve $-1 -61.795098727378154 -41.277420321759166 -8.2258450115449815 0 0 -1 I I #
straight-curve $-1 61.795098727378154 -41.277420321759166 -8.2258450115449815 0 0 -1 I I #
End-of-ACIS-data 