500 0 9 0           
7 Unknown 11 ACIS 5.0 NT 24 Fri Mar 26 16:24:31 1999 
-1 9.9999999999999995e-007 1e-010 
body $-1 $9 $-1 $10 #
body $-1 $11 $-1 $12 #
body $-1 $13 $-1 $14 #
body $-1 $15 $-1 $16 #
body $-1 $17 $-1 $18 #
body $-1 $19 $-1 $20 #
body $-1 $21 $-1 $22 #
body $-1 $23 $-1 $24 #
body $-1 $25 $-1 $26 #
lump $-1 $-1 $27 $0 #
transform $-1 1 0 0 0 1 0 0 0 1 42.403637806329542 29.491537921072595 9.3018004474163991 1 rotate no_reflect no_shear #
lump $-1 $-1 $28 $1 #
transform $-1 1 0 0 0 1 0 0 0 1 42.403637806329542 29.491537921072595 9.3018004474163991 1 rotate no_reflect no_shear #
lump $-1 $-1 $29 $2 #
transform $-1 1 0 0 0 1 0 0 0 1 42.403637806329542 29.491537921072595 9.3018004474163991 1 rotate no_reflect no_shear #
lump $-1 $-1 $30 $3 #
transform $-1 1 0 0 0 1 0 0 0 1 42.403637806329542 29.491537921072595 9.3018004474163991 1 rotate no_reflect no_shear #
lump $-1 $-1 $31 $4 #
transform $-1 1 0 0 0 1 0 0 0 1 42.403637806329542 29.491537921072595 9.3018004474163991 1 rotate no_reflect no_shear #
lump $-1 $-1 $32 $5 #
transform $-1 1 0 0 0 1 0 0 0 1 42.403637806329542 29.491537921072595 9.3018004474163991 1 rotate no_reflect no_shear #
lump $-1 $-1 $33 $6 #
transform $-1 1 0 0 0 1 0 0 0 1 42.403637806329542 29.491537921072595 9.3018004474163991 1 rotate no_reflect no_shear #
lump $-1 $-1 $34 $7 #
transform $-1 1 0 0 0 1 0 0 0 1 42.403637806329542 29.491537921072595 9.3018004474163991 1 rotate no_reflect no_shear #
lump $-1 $-1 $35 $8 #
transform $-1 1 0 0 0 1 0 0 0 1 42.403637806329542 29.491537921072595 9.3018004474163991 1 rotate no_reflect no_shear #
shell $-1 $-1 $-1 $36 $-1 $9 #
shell $-1 $-1 $-1 $37 $-1 $11 #
shell $-1 $-1 $-1 $38 $-1 $13 #
shell $-1 $-1 $-1 $39 $-1 $15 #
shell $-1 $-1 $-1 $40 $-1 $17 #
shell $-1 $-1 $-1 $41 $-1 $19 #
shell $-1 $-1 $-1 $42 $-1 $21 #
shell $-1 $-1 $-1 $43 $-1 $23 #
shell $-1 $-1 $-1 $44 $-1 $25 #
face $-1 $45 $46 $27 $-1 $47 forward single #
face $-1 $48 $49 $28 $-1 $50 forward single #
face $-1 $51 $52 $29 $-1 $53 reversed single #
face $-1 $54 $55 $30 $-1 $56 forward single #
face $-1 $57 $58 $31 $-1 $59 forward single #
face $-1 $60 $61 $32 $-1 $62 reversed single #
face $-1 $63 $64 $33 $-1 $65 forward single #
face $-1 $66 $67 $34 $-1 $68 reversed single #
face $-1 $69 $70 $35 $-1 $71 forward single #
face $-1 $72 $73 $27 $-1 $74 reversed single #
loop $-1 $-1 $75 $36 #
plane-surface $-1 0 0 9.3018004474163991 0 0 1 1 0 0 forward_v I I I I #
face $-1 $76 $77 $28 $-1 $78 forward single #
loop $-1 $-1 $79 $37 #
plane-surface $-1 0 -29.491537921072595 0 0 1 0 0 0 1 forward_v I I I I #
face $-1 $80 $81 $29 $-1 $82 reversed single #
loop $-1 $-1 $83 $38 #
plane-surface $-1 52.856715590670973 -5.2697731279801827 122.71309503487906 0 -1 0 -0.7660444514056185 0 -0.64278759981090561 forward_v I I I I #
face $-1 $84 $85 $30 $-1 $86 forward single #
loop $-1 $87 $88 $39 #
cone-surface $-1 38.254791449447772 -13.922777237337847 4.9227213527837828 -0.7660444514056185 0 -0.64278759981090561 0.96418139971635841 0 -1.1490666771084277 1 I I 0 1 1.5 forward I I I I #
face $-1 $89 $90 $31 $-1 $91 forward single #
loop $-1 $92 $93 $40 #
cone-surface $-1 38.254791449447772 -8.7309747717232504 4.9227213527837828 -0.7660444514056185 0 -0.64278759981090561 0.96418139971635841 0 -1.1490666771084277 1 I I 0 1 1.5 forward I I I I #
face $-1 $94 $95 $32 $-1 $96 reversed single #
loop $-1 $-1 $97 $41 #
plane-surface $-1 -111.87369168482699 -7.0210516422501534 48.947898961611465 0 1 0 -0.81915205242281985 0 0.57357642473473569 forward_v I I I I #
face $-1 $98 $99 $33 $-1 $100 forward single #
loop $-1 $101 $102 $42 #
cone-surface $-1 -37.911442455556823 -1.4922960070769236 3.863313028864205 0.81915205242281985 0 -0.57357642473473569 1.1471528494694714 0 1.6383041048456397 1 I I 0 1 2 forward I I I I #
face $-1 $103 $104 $34 $-1 $105 reversed single #
loop $-1 $-1 $106 $43 #
plane-surface $-1 -111.87369168482699 18.434026650726132 48.947898961611465 0 1 0 -0.81915205242281985 0 0.57357642473473569 forward_v I I I I #
face $-1 $107 $108 $35 $-1 $109 forward single #
loop $-1 $110 $111 $44 #
cone-surface $-1 -37.911442455556823 23.962782285899362 3.863313028864205 0.81915205242281985 0 -0.57357642473473569 1.1471528494694714 0 1.6383041048456397 1 I I 0 1 2 forward I I I I #
face $-1 $112 $113 $27 $-1 $114 reversed single #
loop $-1 $-1 $115 $45 #
plane-surface $-1 0 0 -9.3018004474163991 0 0 1 1 0 0 forward_v I I I I #
coedge $-1 $116 $117 $118 $119 forward $46 $-1 #
face $-1 $120 $121 $28 $-1 $122 reversed single #
loop $-1 $-1 $123 $48 #
plane-surface $-1 0 0 9.3018004474163991 0 0 1 1 0 0 forward_v I I I I #
coedge $-1 $124 $125 $126 $127 forward $49 $-1 #
face $-1 $128 $129 $29 $-1 $130 reversed single #
loop $-1 $-1 $131 $51 #
plane-surface $-1 -12.109427331233547 -11.326876004530547 68.200029897315972 0.7660444514056185 0 0.64278759981090561 0.64278759981090561 0 -0.7660444514056185 forward_v I I I I #
coedge $-1 $132 $133 $134 $135 reversed $52 $-1 #
face $-1 $-1 $136 $30 $-1 $137 forward single #
loop $-1 $138 $139 $54 #
cone-surface $-1 36.077203665547401 -13.922777237337847 3.0955082942954615 -0.7660444514056185 0 -0.64278759981090561 0.48209069985817921 0 -0.57453333855421385 1 I I -0.70710678118654757 0.70710678118654757 0.75 forward I I I I #
loop $-1 $-1 $140 $39 #
coedge $-1 $88 $88 $141 $142 reversed $55 $-1 #
face $-1 $-1 $143 $31 $-1 $144 forward single #
loop $-1 $145 $146 $57 #
cone-surface $-1 36.077203665547401 -8.7309747717232504 3.0955082942954615 -0.7660444514056185 0 -0.64278759981090561 0.48209069985817921 0 -0.57453333855421385 1 I I -0.70710678118654757 0.70710678118654757 0.75 forward I I I I #
loop $-1 $-1 $147 $40 #
coedge $-1 $93 $93 $148 $149 reversed $58 $-1 #
face $-1 $150 $151 $32 $-1 $152 reversed single #
loop $-1 $-1 $153 $60 #
plane-surface $-1 -42.403637806329556 -1.4922960070769236 0.30444502420912301 -0.81915205242281985 0 0.57357642473473569 0.57357642473473569 0 0.81915205242281985 forward_v I I I I #
coedge $-1 $154 $155 $156 $157 reversed $61 $-1 #
face $-1 $-1 $158 $33 $-1 $159 forward single #
loop $-1 $160 $161 $63 #
cone-surface $-1 -35.750103002928654 -1.4922960070769236 2.3499268971809162 0.81915205242281985 0 -0.57357642473473569 0.57357642473473569 0 0.81915205242281985 1 I I -0.70710678118654746 0.70710678118654746 1 forward I I I I #
loop $-1 $-1 $162 $42 #
coedge $-1 $102 $102 $163 $164 reversed $64 $-1 #
face $-1 $165 $166 $34 $-1 $167 forward single #
loop $-1 $-1 $168 $66 #
plane-surface $-1 -42.403637806329556 23.962782285899362 0.30444502420912301 -0.81915205242281985 0 0.57357642473473569 0.57357642473473569 0 0.81915205242281985 forward_v I I I I #
coedge $-1 $169 $170 $171 $172 reversed $67 $-1 #
face $-1 $-1 $173 $35 $-1 $174 forward single #
loop $-1 $175 $176 $69 #
cone-surface $-1 -35.750103002928654 23.962782285899362 2.3499268971809162 0.81915205242281985 0 -0.57357642473473569 0.57357642473473569 0 0.81915205242281985 1 I I -0.70710678118654746 0.70710678118654746 1 forward I I I I #
loop $-1 $-1 $177 $44 #
coedge $-1 $111 $111 $178 $179 reversed $70 $-1 #
face $-1 $180 $181 $27 $-1 $182 reversed single #
loop $-1 $-1 $183 $72 #
plane-surface $-1 0 -29.491537921072595 0 0 1 0 0 0 1 forward_v I I I I #
coedge $-1 $184 $185 $186 $187 forward $73 $-1 #
coedge $-1 $188 $75 $189 $190 forward $46 $-1 #
coedge $-1 $75 $188 $191 $192 forward $46 $-1 #
coedge $-1 $193 $194 $75 $119 reversed $195 $-1 #
edge $-1 $196 -29.491537921072595 $197 29.491537921072595 $118 $198 forward 7 unknown #
face $-1 $199 $200 $28 $-1 $201 reversed single #
loop $-1 $-1 $202 $76 #
plane-surface $-1 -42.403637806329542 0 0 1 0 0 0 0 -1 forward_v I I I I #
coedge $-1 $203 $204 $205 $206 forward $77 $-1 #
coedge $-1 $205 $79 $202 $207 reversed $49 $-1 #
coedge $-1 $79 $205 $208 $209 reversed $49 $-1 #
coedge $-1 $210 $211 $79 $127 reversed $200 $-1 #
edge $-1 $212 -42.403637806329542 $213 42.403637806329542 $126 $214 forward 7 unknown #
face $-1 $215 $216 $29 $-1 $217 reversed single #
loop $-1 $-1 $218 $80 #
plane-surface $-1 52.856715590670973 -17.38397888108091 122.71309503487906 0 1 0 0.7660444514056185 0 0.64278759981090561 forward_v I I I I #
coedge $-1 $219 $220 $221 $222 reversed $81 $-1 #
coedge $-1 $133 $83 $223 $224 reversed $52 $-1 #
coedge $-1 $83 $132 $219 $225 reversed $52 $-1 #
coedge $-1 $221 $226 $83 $135 forward $227 $-1 #
edge $-1 $228 -15.975280010994055 $229 -10.88369618792283 $134 $230 forward 7 unknown #
loop $-1 $-1 $141 $84 #
plane-surface $-1 -12.109427331233547 -11.326876004530547 68.200029897315972 0.7660444514056185 0 0.64278759981090561 0.64278759981090561 0 -0.7660444514056185 forward_v I I I I #
loop $-1 $-1 $231 $54 #
coedge $-1 $139 $139 $140 $232 reversed $85 $-1 #
coedge $-1 $140 $140 $139 $232 forward $87 $-1 #
coedge $-1 $141 $141 $88 $142 forward $136 $-1 #
edge $-1 $233 0 $233 6.2831853071796004 $141 $234 forward 7 unknown #
loop $-1 $-1 $148 $89 #
plane-surface $-1 -12.109427331233547 -11.326876004530547 68.200029897315972 0.7660444514056185 0 0.64278759981090561 0.64278759981090561 0 -0.7660444514056185 forward_v I I I I #
loop $-1 $-1 $235 $57 #
coedge $-1 $146 $146 $147 $236 reversed $90 $-1 #
coedge $-1 $147 $147 $146 $236 forward $92 $-1 #
coedge $-1 $148 $148 $93 $149 forward $143 $-1 #
edge $-1 $237 0 $237 6.2831853071796004 $148 $238 forward 7 unknown #
face $-1 $239 $240 $32 $-1 $241 forward single #
loop $-1 $-1 $242 $94 #
plane-surface $-1 -111.87369168482699 4.0364596280963063 48.947898961611465 0 -1 0 0.81915205242281985 0 -0.57357642473473569 forward_v I I I I #
coedge $-1 $243 $244 $245 $246 reversed $95 $-1 #
coedge $-1 $155 $97 $247 $248 reversed $61 $-1 #
coedge $-1 $97 $154 $243 $249 reversed $61 $-1 #
coedge $-1 $245 $250 $97 $157 forward $240 $-1 #
edge $-1 $251 13.533208036083956 $252 19.833223937218669 $156 $253 forward 7 unknown #
loop $-1 $-1 $163 $98 #
plane-surface $-1 -42.403637806329556 -1.4922960070769236 0.30444502420912301 -0.81915205242281985 0 0.57357642473473569 0.57357642473473569 0 0.81915205242281985 forward_v I I I I #
loop $-1 $-1 $254 $63 #
coedge $-1 $161 $161 $162 $255 reversed $99 $-1 #
coedge $-1 $162 $162 $161 $255 forward $101 $-1 #
coedge $-1 $163 $163 $102 $164 forward $158 $-1 #
edge $-1 $256 0 $256 6.2831853071796004 $163 $257 forward 7 unknown #
face $-1 $258 $259 $34 $-1 $260 reversed single #
loop $-1 $-1 $171 $103 #
plane-surface $-1 0 0 9.3018004474163991 0 0 1 1 0 0 forward_v I I I I #
coedge $-1 $261 $262 $263 $264 reversed $104 $-1 #
coedge $-1 $170 $106 $265 $266 reversed $67 $-1 #
coedge $-1 $106 $169 $261 $267 reversed $67 $-1 #
coedge $-1 $263 $268 $106 $172 forward $166 $-1 #
edge $-1 $269 13.533208036083956 $270 19.833223937218669 $171 $271 forward 7 unknown #
loop $-1 $-1 $178 $107 #
plane-surface $-1 -42.403637806329556 23.962782285899362 0.30444502420912301 -0.81915205242281985 0 0.57357642473473569 0.57357642473473569 0 0.81915205242281985 forward_v I I I I #
loop $-1 $-1 $272 $69 #
coedge $-1 $176 $176 $177 $273 reversed $108 $-1 #
coedge $-1 $177 $177 $176 $273 forward $110 $-1 #
coedge $-1 $178 $178 $111 $179 forward $173 $-1 #
edge $-1 $274 0 $274 6.2831853071796004 $178 $275 forward 7 unknown #
face $-1 $276 $277 $27 $-1 $278 reversed single #
loop $-1 $-1 $279 $112 #
plane-surface $-1 -42.403637806329542 0 0 1 0 0 0 0 -1 forward_v I I I I #
coedge $-1 $280 $191 $281 $282 forward $113 $-1 #
coedge $-1 $283 $115 $280 $284 forward $73 $-1 #
coedge $-1 $115 $283 $285 $286 forward $73 $-1 #
coedge $-1 $194 $193 $115 $187 reversed $195 $-1 #
edge $-1 $287 -29.491537921072595 $288 29.491537921072595 $186 $289 forward 7 unknown #
coedge $-1 $117 $116 $290 $291 forward $46 $-1 #
coedge $-1 $292 $293 $116 $190 reversed $277 $-1 #
edge $-1 $197 -42.403637806329542 $294 42.403637806329542 $189 $295 forward 7 unknown #
coedge $-1 $183 $296 $117 $192 reversed $113 $-1 #
edge $-1 $297 -42.403637806329542 $196 42.403637806329542 $191 $298 forward 7 unknown #
coedge $-1 $186 $118 $296 $299 forward $195 $-1 #
coedge $-1 $118 $186 $292 $300 reversed $195 $-1 #
loop $-1 $-1 $193 $276 #
vertex $-1 $119 $301 #
vertex $-1 $119 $302 #
straight-curve $-1 42.403637806329542 0 9.3018004474163991 0 1 0 I I #
face $-1 $303 $304 $28 $-1 $305 reversed single #
loop $-1 $-1 $210 $120 #
plane-surface $-1 0 -33.527997549168902 4.3668244246503187 0 0 1 1 0 0 forward_v I I I I #
coedge $-1 $306 $307 $124 $207 forward $121 $-1 #
coedge $-1 $308 $123 $307 $309 forward $77 $-1 #
coedge $-1 $123 $308 $310 $311 forward $77 $-1 #
coedge $-1 $125 $124 $123 $206 reversed $49 $-1 #
edge $-1 $312 -42.403637806329542 $313 42.403637806329542 $123 $314 forward 7 unknown #
edge $-1 $313 -9.3018004474163991 $213 -4.3668244246503187 $202 $315 forward 7 unknown #
coedge $-1 $310 $316 $125 $209 forward $317 $-1 #
edge $-1 $212 4.3668244246503187 $312 9.3018004474163991 $208 $318 forward 7 unknown #
coedge $-1 $319 $126 $316 $320 forward $200 $-1 #
coedge $-1 $126 $319 $306 $321 forward $200 $-1 #
vertex $-1 $209 $322 #
vertex $-1 $207 $323 #
straight-curve $-1 0 -29.491537921072595 4.3668244246503187 -1 0 0 I I #
face $-1 $-1 $227 $29 $-1 $324 forward single #
loop $-1 $-1 $325 $128 #
plane-surface $-1 42.403637806329542 0 0 -1 0 0 0 0 1 forward_v I I I I #
coedge $-1 $326 $327 $328 $329 reversed $129 $-1 #
coedge $-1 $330 $131 $133 $225 forward $81 $-1 #
coedge $-1 $131 $330 $326 $331 forward $81 $-1 #
coedge $-1 $328 $134 $131 $222 forward $227 $-1 #
edge $-1 $229 -0.39366487428509078 $332 11.720540878815637 $221 $333 forward 7 unknown #
coedge $-1 $334 $335 $132 $224 forward $216 $-1 #
edge $-1 $336 -58.122660542028079 $228 -52.054747070023133 $223 $337 forward 7 unknown #
edge $-1 $229 76.886177220952334 $336 84.807275612659112 $133 $338 forward 7 unknown #
coedge $-1 $134 $328 $334 $339 forward $227 $-1 #
loop $-1 $-1 $328 $215 #
vertex $-1 $224 $340 #
vertex $-1 $135 $341 #
straight-curve $-1 26.428357795335486 -5.2697731279801827 9.3018004474163973 -1 0 0 I I #
coedge $-1 $231 $231 $-1 $342 reversed $138 $-1 #
edge $-1 $343 0 $343 6.2831853071796004 $139 $344 forward 7 unknown #
vertex $-1 $142 $345 #
ellipse-curve $-1 39.857845894793925 -13.922777237337847 6.2678437114139243 0.7660444514056185 0 0.64278759981090561 0.96418139971635841 0 -1.1490666771084277 1 I I #
coedge $-1 $235 $235 $-1 $346 reversed $145 $-1 #
edge $-1 $347 0 $347 6.2831853071796004 $146 $348 forward 7 unknown #
vertex $-1 $149 $349 #
ellipse-curve $-1 39.857845894793925 -8.7309747717232504 6.2678437114139243 0.7660444514056185 0 0.64278759981090561 0.96418139971635841 0 -1.1490666771084277 1 I I #
face $-1 $-1 $350 $32 $-1 $351 reversed single #
loop $-1 $-1 $156 $150 #
plane-surface $-1 0 0 9.3018004474163991 0 0 1 1 0 0 forward_v I I I I #
coedge $-1 $352 $353 $354 $355 reversed $151 $-1 #
coedge $-1 $356 $153 $155 $249 forward $95 $-1 #
coedge $-1 $153 $356 $352 $357 forward $95 $-1 #
coedge $-1 $354 $156 $153 $246 forward $240 $-1 #
edge $-1 $252 -6.2749036387116917 $358 4.7826076316347681 $245 $359 forward 7 unknown #
coedge $-1 $360 $361 $154 $248 forward $350 $-1 #
edge $-1 $362 -24.169504456596588 $251 -15.172149033389333 $247 $363 forward 7 unknown #
edge $-1 $252 -10.98374275764267 $362 -2.4793790127588779e-014 $155 $364 forward 7 unknown #
coedge $-1 $156 $354 $360 $365 forward $240 $-1 #
vertex $-1 $248 $366 #
vertex $-1 $157 $367 #
straight-curve $-1 -55.936845842413497 -7.0210516422501534 9.3018004474164009 1 0 0 I I #
coedge $-1 $254 $254 $-1 $368 reversed $160 $-1 #
edge $-1 $369 0 $369 6.2831853071796004 $161 $370 forward 7 unknown #
vertex $-1 $164 $371 #
ellipse-curve $-1 -39.253629855762185 -1.4922960070769236 4.8031227358127664 -0.81915205242281985 0 0.57357642473473569 1.1471528494694714 0 1.6383041048456397 1 I I #
face $-1 $-1 $372 $34 $-1 $373 reversed single #
loop $-1 $-1 $374 $165 #
plane-surface $-1 0 29.491537921072595 0 0 -1 0 0 0 -1 forward_v I I I I #
coedge $-1 $375 $168 $170 $267 forward $104 $-1 #
coedge $-1 $168 $375 $374 $376 reversed $104 $-1 #
coedge $-1 $377 $171 $168 $264 forward $166 $-1 #
edge $-1 $270 6.452635507776451 $378 17.510146778122909 $263 $379 forward 7 unknown #
coedge $-1 $380 $381 $169 $266 forward $372 $-1 #
edge $-1 $382 -24.169504456596588 $269 -15.172149033389333 $265 $383 forward 7 unknown #
edge $-1 $270 -10.98374275764267 $382 -2.4793790127588779e-014 $170 $384 forward 7 unknown #
coedge $-1 $171 $377 $380 $385 forward $166 $-1 #
vertex $-1 $266 $386 #
vertex $-1 $172 $387 #
straight-curve $-1 -55.936845842413497 18.434026650726132 9.3018004474164009 1 0 0 I I #
coedge $-1 $272 $272 $-1 $388 reversed $175 $-1 #
edge $-1 $389 0 $389 6.2831853071796004 $176 $390 forward 7 unknown #
vertex $-1 $179 $391 #
ellipse-curve $-1 -39.253629855762185 23.962782285899362 4.8031227358127664 -0.81915205242281985 0 0.57357642473473569 1.1471528494694714 0 1.6383041048456397 1 I I #
face $-1 $-1 $195 $27 $-1 $392 reversed single #
loop $-1 $-1 $292 $180 #
plane-surface $-1 0 29.491537921072595 0 0 -1 0 0 0 -1 forward_v I I I I #
coedge $-1 $393 $290 $293 $394 forward $181 $-1 #
coedge $-1 $296 $183 $184 $284 reversed $113 $-1 #
coedge $-1 $290 $393 $183 $282 reversed $181 $-1 #
edge $-1 $297 -9.3018004474163991 $395 9.3018004474163991 $281 $396 forward 7 unknown #
coedge $-1 $185 $184 $393 $397 forward $73 $-1 #
edge $-1 $288 -42.403637806329542 $395 42.403637806329542 $280 $398 forward 7 unknown #
coedge $-1 $293 $292 $185 $286 reversed $277 $-1 #
edge $-1 $399 -42.403637806329542 $287 42.403637806329542 $285 $400 forward 7 unknown #
vertex $-1 $187 $401 #
vertex $-1 $299 $402 #
straight-curve $-1 42.403637806329542 0 -9.3018004474163991 0 -1 0 I I #
coedge $-1 $279 $281 $188 $291 reversed $181 $-1 #
edge $-1 $294 -29.491537921072595 $297 29.491537921072595 $290 $403 forward 7 unknown #
coedge $-1 $285 $189 $194 $300 forward $277 $-1 #
coedge $-1 $189 $285 $279 $394 reversed $277 $-1 #
vertex $-1 $190 $404 #
straight-curve $-1 0 29.491537921072595 9.3018004474163991 -1 0 0 I I #
coedge $-1 $191 $280 $193 $299 reversed $113 $-1 #
vertex $-1 $291 $405 #
straight-curve $-1 0 -29.491537921072595 9.3018004474163991 1 0 0 I I #
edge $-1 $196 -9.3018004474163991 $288 9.3018004474163991 $193 $406 forward 7 unknown #
edge $-1 $197 -9.3018004474163991 $287 9.3018004474163991 $194 $407 forward 7 unknown #
point $-1 42.403637806329542 -29.491537921072595 9.3018004474163991 #
point $-1 42.403637806329542 29.491537921072595 9.3018004474163991 #
face $-1 $-1 $317 $28 $-1 $408 reversed single #
loop $-1 $-1 $409 $199 #
plane-surface $-1 0 -37.564457177265211 6.8343124360333594 0 1 0 0 0 1 forward_v I I I I #
coedge $-1 $410 $202 $211 $321 reversed $121 $-1 #
coedge $-1 $202 $410 $203 $309 reversed $121 $-1 #
coedge $-1 $204 $203 $411 $412 forward $77 $-1 #
edge $-1 $313 29.491537921072595 $413 37.564457177265211 $307 $414 forward 7 unknown #
coedge $-1 $415 $208 $204 $311 reversed $317 $-1 #
edge $-1 $416 -37.564457177265211 $312 -29.491537921072595 $310 $417 forward 7 unknown #
vertex $-1 $209 $418 #
vertex $-1 $309 $419 #
straight-curve $-1 0 -29.491537921072595 9.3018004474163991 -1 0 0 I I #
straight-curve $-1 -42.403637806329542 -29.491537921072595 0 0 0 -1 I I #
coedge $-1 $208 $415 $210 $320 reversed $317 $-1 #
loop $-1 $-1 $208 $303 #
straight-curve $-1 42.403637806329542 -29.491537921072595 0 0 0 1 I I #
coedge $-1 $211 $210 $420 $421 forward $200 $-1 #
edge $-1 $212 -4.0364596280963063 $422 4.0364596280963099 $316 $423 forward 7 unknown #
edge $-1 $424 -4.0364596280963099 $213 4.0364596280963063 $306 $425 forward 7 unknown #
point $-1 42.403637806329542 -29.491537921072595 4.3668244246503187 #
point $-1 -42.403637806329542 -29.491537921072595 4.3668244246503187 #
plane-surface $-1 0 0 9.3018004474163991 0 0 1 1 0 0 forward_v I I I I #
coedge $-1 $335 $334 $327 $426 forward $216 $-1 #
coedge $-1 $327 $218 $220 $331 reversed $129 $-1 #
coedge $-1 $218 $326 $325 $426 reversed $129 $-1 #
coedge $-1 $226 $221 $218 $329 forward $227 $-1 #
edge $-1 $332 10.88369618792283 $427 15.975280010994055 $328 $428 forward 7 unknown #
coedge $-1 $220 $219 $335 $429 reversed $81 $-1 #
edge $-1 $430 -84.807275612659112 $332 -76.886177220952334 $326 $431 forward 7 unknown #
vertex $-1 $222 $432 #
straight-curve $-1 37.312053983258316 -5.6634380022652735 9.3018004474163973 0 -1 0 I I #
coedge $-1 $325 $223 $226 $339 reversed $216 $-1 #
coedge $-1 $223 $325 $330 $429 forward $216 $-1 #
vertex $-1 $224 $433 #
straight-curve $-1 42.403637806329542 -5.2697731279801827 61.35654751743953 0 0 1 I I #
straight-curve $-1 -12.109427331233547 -5.2697731279801827 68.200029897315972 0.64278759981090561 0 -0.7660444514056185 I I #
edge $-1 $427 -17.38397888108091 $228 -5.2697731279801827 $334 $434 forward 7 unknown #
point $-1 42.403637806329542 -5.2697731279801827 9.3018004474163991 #
point $-1 37.312053983258316 -5.2697731279801827 9.3018004474163902 #
edge $-1 $435 1 $435 0 $231 $-1 forward 7 unknown #
vertex $-1 $232 $436 #
ellipse-curve $-1 36.651737004101612 -13.922777237337847 3.5775989941536408 0.7660444514056185 0 0.64278759981090561 0.96418139971635841 0 -1.1490666771084277 1 I I #
point $-1 40.822027294510292 -13.922777237337847 5.1187770343054986 #
edge $-1 $437 1 $437 0 $235 $-1 forward 7 unknown #
vertex $-1 $236 $438 #
ellipse-curve $-1 36.651737004101612 -8.7309747717232504 3.5775989941536408 0.7660444514056185 0 0.64278759981090561 0.96418139971635841 0 -1.1490666771084277 1 I I #
point $-1 40.822027294510292 -8.7309747717232504 5.1187770343054986 #
loop $-1 $-1 $247 $239 #
plane-surface $-1 -42.403637806329542 0 0 1 0 0 0 0 -1 forward_v I I I I #
coedge $-1 $353 $242 $244 $357 reversed $151 $-1 #
coedge $-1 $242 $352 $439 $440 reversed $151 $-1 #
coedge $-1 $250 $245 $242 $355 forward $240 $-1 #
edge $-1 $358 -19.833223937218669 $441 -13.533208036083956 $354 $442 forward 7 unknown #
coedge $-1 $244 $243 $361 $443 reversed $95 $-1 #
edge $-1 $444 2.4793790127588779e-014 $358 10.98374275764267 $352 $445 forward 7 unknown #
vertex $-1 $246 $446 #
straight-curve $-1 -36.103621905194828 -0.74614800353846178 9.3018004474163991 0 1 0 I I #
coedge $-1 $439 $247 $250 $365 reversed $350 $-1 #
coedge $-1 $247 $439 $356 $443 forward $350 $-1 #
vertex $-1 $248 $447 #
straight-curve $-1 -42.403637806329542 -7.0210516422501534 24.473949480805732 0 0 1 I I #
straight-curve $-1 -42.403637806329556 -7.0210516422501534 0.30444502420912301 -0.57357642473473569 0 -0.81915205242281985 I I #
edge $-1 $441 -4.0364596280963063 $251 7.0210516422501534 $360 $448 forward 7 unknown #
point $-1 -42.403637806329542 -7.0210516422501534 9.3018004474163991 #
point $-1 -36.103621905194828 -7.0210516422501534 9.3018004474163991 #
edge $-1 $449 1 $449 0 $254 $-1 forward 7 unknown #
vertex $-1 $255 $450 #
ellipse-curve $-1 -36.569255055351476 -1.4922960070769236 2.9235033219156517 -0.81915205242281985 0 0.57357642473473569 1.1471528494694714 0 1.6383041048456397 1 I I #
point $-1 -38.106477006292707 -1.4922960070769236 6.4414268406583979 #
loop $-1 $-1 $265 $258 #
plane-surface $-1 -42.403637806329542 0 0 1 0 0 0 0 -1 forward_v I I I I #
coedge $-1 $451 $452 $262 $376 forward $259 $-1 #
coedge $-1 $262 $261 $381 $453 reversed $104 $-1 #
edge $-1 $378 1.0524273434925098 $454 12.036170101135156 $374 $455 forward 7 unknown #
coedge $-1 $268 $263 $452 $456 forward $166 $-1 #
vertex $-1 $456 $457 #
straight-curve $-1 -36.103621905194828 11.981391142949681 9.3018004474163991 0 1 0 I I #
coedge $-1 $458 $265 $268 $385 reversed $372 $-1 #
coedge $-1 $265 $458 $375 $453 forward $372 $-1 #
vertex $-1 $266 $459 #
straight-curve $-1 -42.403637806329542 18.434026650726132 24.473949480805732 0 0 1 I I #
straight-curve $-1 -42.403637806329556 18.434026650726132 0.30444502420912301 -0.57357642473473569 0 -0.81915205242281985 I I #
edge $-1 $460 -29.491537921072595 $269 -18.434026650726132 $380 $461 forward 7 unknown #
point $-1 -42.403637806329542 18.434026650726132 9.3018004474163991 #
point $-1 -36.103621905194828 18.434026650726132 9.3018004474163991 #
edge $-1 $462 1 $462 0 $272 $-1 forward 7 unknown #
vertex $-1 $273 $463 #
ellipse-curve $-1 -36.569255055351476 23.962782285899362 2.9235033219156517 -0.81915205242281985 0 0.57357642473473569 1.1471528494694714 0 1.6383041048456397 1 I I #
point $-1 -38.106477006292707 23.962782285899362 6.4414268406583979 #
plane-surface $-1 42.403637806329542 0 0 -1 0 0 0 0 1 forward_v I I I I #
coedge $-1 $281 $279 $283 $397 reversed $181 $-1 #
edge $-1 $294 -9.3018004474163991 $399 9.3018004474163991 $293 $464 forward 7 unknown #
vertex $-1 $397 $465 #
straight-curve $-1 -42.403637806329542 -29.491537921072595 0 0 0 -1 I I #
edge $-1 $395 -29.491537921072595 $399 29.491537921072595 $393 $466 forward 7 unknown #
straight-curve $-1 0 -29.491537921072595 -9.3018004474163991 -1 0 0 I I #
vertex $-1 $286 $467 #
straight-curve $-1 0 29.491537921072595 -9.3018004474163991 1 0 0 I I #
point $-1 42.403637806329542 29.491537921072595 -9.3018004474163991 #
point $-1 42.403637806329542 -29.491537921072595 -9.3018004474163991 #
straight-curve $-1 -42.403637806329542 0 9.3018004474163991 0 -1 0 I I #
point $-1 -42.403637806329542 29.491537921072595 9.3018004474163991 #
point $-1 -42.403637806329542 -29.491537921072595 9.3018004474163991 #
straight-curve $-1 42.403637806329542 -29.491537921072595 0 0 0 -1 I I #
straight-curve $-1 42.403637806329542 29.491537921072595 0 0 0 -1 I I #
plane-surface $-1 42.403637806329542 0 0 -1 0 0 0 0 1 forward_v I I I I #
coedge $-1 $420 $411 $410 $468 forward $304 $-1 #
coedge $-1 $307 $306 $409 $468 reversed $121 $-1 #
coedge $-1 $409 $469 $308 $412 reversed $304 $-1 #
edge $-1 $413 -42.403637806329542 $416 42.403637806329542 $411 $470 forward 7 unknown #
vertex $-1 $309 $471 #
straight-curve $-1 -42.403637806329542 0 9.3018004474163991 0 -1 0 I I #
coedge $-1 $316 $310 $469 $472 forward $317 $-1 #
vertex $-1 $311 $473 #
straight-curve $-1 42.403637806329542 0 9.3018004474163991 0 1 0 I I #
point $-1 42.403637806329542 -29.491537921072595 9.3018004474163991 #
point $-1 -42.403637806329542 -29.491537921072595 9.3018004474163991 #
coedge $-1 $469 $409 $319 $421 reversed $304 $-1 #
edge $-1 $422 -42.403637806329542 $424 42.403637806329542 $420 $474 forward 7 unknown #
vertex $-1 $472 $475 #
straight-curve $-1 42.403637806329542 -33.527997549168902 4.3668244246503187 0 -1 0 I I #
vertex $-1 $321 $476 #
straight-curve $-1 -42.403637806329542 -33.527997549168902 4.3668244246503187 0 1 0 I I #
edge $-1 $427 52.054747070023133 $430 58.122660542028079 $325 $477 forward 7 unknown #
vertex $-1 $339 $478 #
straight-curve $-1 26.428357795335486 -17.38397888108091 9.3018004474163973 1 0 0 I I #
edge $-1 $430 -11.720540878815637 $336 0.39366487428509078 $335 $479 forward 7 unknown #
vertex $-1 $429 $480 #
straight-curve $-1 -12.109427331233547 -17.38397888108091 68.200029897315972 -0.64278759981090561 0 0.7660444514056185 I I #
point $-1 37.312053983258316 -17.38397888108091 9.3018004474163902 #
point $-1 42.403637806329542 -5.2697731279801827 3.2338869754114512 #
straight-curve $-1 42.403637806329542 0 9.3018004474163991 0 1 0 I I #
vertex $-1 $342 $481 #
point $-1 37.615918403817972 -13.922777237337847 2.4285323170452129 #
vertex $-1 $346 $482 #
point $-1 37.615918403817972 -8.7309747717232504 2.4285323170452129 #
coedge $-1 $361 $360 $353 $440 forward $350 $-1 #
edge $-1 $441 15.172149033389333 $444 24.169504456596588 $439 $483 forward 7 unknown #
vertex $-1 $365 $484 #
straight-curve $-1 -55.936845842413497 4.0364596280963063 9.3018004474164009 -1 0 0 I I #
edge $-1 $444 -4.7826076316347681 $362 6.2749036387116917 $361 $485 forward 7 unknown #
vertex $-1 $443 $486 #
straight-curve $-1 -42.403637806329556 4.0364596280963063 0.30444502420912301 0.57357642473473569 0 0.81915205242281985 I I #
point $-1 -36.103621905194828 4.0364596280963063 9.3018004474163991 #
point $-1 -42.403637806329542 -7.0210516422501534 0.30444502420914332 #
straight-curve $-1 -42.403637806329542 0 9.3018004474163991 0 -1 0 I I #
vertex $-1 $368 $487 #
point $-1 -35.422102205882005 -1.4922960070769236 4.5618074267612911 #
coedge $-1 $452 $374 $458 $488 reversed $259 $-1 #
coedge $-1 $374 $451 $377 $456 reversed $259 $-1 #
edge $-1 $454 -17.510146778122909 $382 -6.452635507776451 $381 $489 forward 7 unknown #
vertex $-1 $376 $490 #
straight-curve $-1 -35.499974392221318 29.491537921072595 10.163898465864184 -0.57357642473473569 0 -0.81915205242281985 I I #
edge $-1 $378 36.103621905194828 $460 42.403637806329542 $452 $491 forward 7 unknown #
point $-1 -36.103621905194828 29.491537921072592 9.3018004474163991 #
coedge $-1 $381 $380 $451 $488 forward $372 $-1 #
point $-1 -42.403637806329542 18.434026650726132 0.30444502420914332 #
vertex $-1 $456 $492 #
straight-curve $-1 -42.403637806329542 0 9.3018004474163991 0 -1 0 I I #
vertex $-1 $388 $493 #
point $-1 -35.422102205882005 23.962782285899362 4.5618074267612911 #
straight-curve $-1 -42.403637806329542 29.491537921072595 0 0 0 -1 I I #
point $-1 -42.403637806329542 -29.491537921072595 -9.3018004474163991 #
straight-curve $-1 -42.403637806329542 0 -9.3018004474163991 0 1 0 I I #
point $-1 -42.403637806329542 29.491537921072595 -9.3018004474163991 #
edge $-1 $413 -2.4674880113830415 $424 2.4674880113830406 $410 $494 forward 7 unknown #
coedge $-1 $411 $420 $415 $472 reversed $304 $-1 #
straight-curve $-1 0 -37.564457177265211 9.3018004474164009 1 0 0 I I #
point $-1 -42.403637806329542 -37.564457177265211 9.3018004474164009 #
edge $-1 $416 -2.4674880113830415 $422 2.4674880113830406 $415 $495 forward 7 unknown #
point $-1 42.403637806329542 -37.564457177265211 9.3018004474164009 #
straight-curve $-1 0 -37.564457177265211 4.3668244246503187 -1 0 0 I I #
point $-1 42.403637806329542 -37.564457177265211 4.3668244246503187 #
point $-1 -42.403637806329542 -37.564457177265211 4.3668244246503187 #
straight-curve $-1 42.403637806329542 -17.38397888108091 61.35654751743953 0 0 -1 I I #
point $-1 42.403637806329542 -17.38397888108091 9.3018004474163991 #
straight-curve $-1 42.403637806329534 -5.6634380022652735 3.2338869754114512 0 1 0 I I #
point $-1 42.403637806329542 -17.38397888108091 3.2338869754114512 #
point $-1 35.50267032699319 -13.922777237337847 2.6134175944372822 #
point $-1 35.50267032699319 -8.7309747717232504 2.6134175944372822 #
straight-curve $-1 -42.403637806329542 4.0364596280963063 24.473949480805732 0 0 -1 I I #
point $-1 -42.403637806329542 4.0364596280963063 9.3018004474163991 #
straight-curve $-1 -42.403637806329542 -0.74614800353846178 0.3044450242091431 0 -1 0 I I #
point $-1 -42.403637806329542 4.0364596280963063 0.30444502420914332 #
point $-1 -34.930950950505832 -1.4922960070769236 1.7763504724461805 #
edge $-1 $460 -9.3018004474163991 $454 -0.30444502420914332 $451 $496 forward 7 unknown #
straight-curve $-1 -42.403637806329542 11.981391142949681 0.3044450242091431 0 -1 0 I I #
point $-1 -42.403637806329542 29.491537921072592 0.30444502420914332 #
straight-curve $-1 0 29.491537921072595 9.3018004474163991 -1 0 0 I I #
point $-1 -42.403637806329542 29.491537921072595 9.3018004474163991 #
point $-1 -34.930950950505832 23.962782285899362 1.7763504724461805 #
straight-curve $-1 -42.403637806329542 -37.564457177265211 6.8343124360333594 0 0 -1 I I #
straight-curve $-1 42.403637806329542 -37.564457177265211 6.8343124360333594 0 0 -1 I I #
straight-curve $-1 -42.403637806329542 29.491537921072595 0 0 0 -1 I I #
End-of-ACIS-data 