500 0 9 0           
7 Unknown 11 ACIS 5.0 NT 24 Fri Mar 26 20:44:17 1999 
-1 9.9999999999999995e-007 1e-010 
body $-1 $9 $-1 $10 #
body $-1 $11 $-1 $12 #
body $-1 $13 $-1 $14 #
body $-1 $15 $-1 $16 #
body $-1 $17 $-1 $18 #
body $-1 $19 $-1 $20 #
body $-1 $21 $-1 $22 #
body $-1 $23 $-1 $24 #
body $-1 $25 $-1 $26 #
lump $-1 $-1 $27 $0 #
transform $-1 1 0 0 0 1 0 0 0 1 49.802545243690297 33.596921349168397 10.559134956820611 1 rotate no_reflect no_shear #
lump $-1 $-1 $28 $1 #
transform $-1 1 0 0 0 1 0 0 0 1 49.802545243690297 33.596921349168397 10.559134956820611 1 rotate no_reflect no_shear #
lump $-1 $-1 $29 $2 #
transform $-1 1 0 0 0 1 0 0 0 1 49.802545243690297 33.596921349168397 10.559134956820611 1 rotate no_reflect no_shear #
lump $-1 $-1 $30 $3 #
transform $-1 1 0 0 0 1 0 0 0 1 49.802545243690297 33.596921349168397 10.559134956820611 1 rotate no_reflect no_shear #
lump $-1 $-1 $31 $4 #
transform $-1 1 0 0 0 1 0 0 0 1 49.802545243690297 33.596921349168397 10.559134956820611 1 rotate no_reflect no_shear #
lump $-1 $-1 $32 $5 #
transform $-1 1 0 0 0 1 0 0 0 1 49.802545243690297 33.596921349168397 10.559134956820611 1 rotate no_reflect no_shear #
lump $-1 $-1 $33 $6 #
transform $-1 1 0 0 0 1 0 0 0 1 49.802545243690297 33.596921349168397 10.559134956820611 1 rotate no_reflect no_shear #
lump $-1 $-1 $34 $7 #
transform $-1 1 0 0 0 1 0 0 0 1 49.802545243690297 33.596921349168397 10.559134956820611 1 rotate no_reflect no_shear #
lump $-1 $-1 $35 $8 #
transform $-1 1 0 0 0 1 0 0 0 1 49.802545243690297 33.596921349168397 10.559134956820611 1 rotate no_reflect no_shear #
shell $-1 $-1 $-1 $36 $-1 $9 #
shell $-1 $-1 $-1 $37 $-1 $11 #
shell $-1 $-1 $-1 $38 $-1 $13 #
shell $-1 $-1 $-1 $39 $-1 $15 #
shell $-1 $-1 $-1 $40 $-1 $17 #
shell $-1 $-1 $-1 $41 $-1 $19 #
shell $-1 $-1 $-1 $42 $-1 $21 #
shell $-1 $-1 $-1 $43 $-1 $23 #
shell $-1 $-1 $-1 $44 $-1 $25 #
face $-1 $45 $46 $27 $-1 $47 reversed single #
face $-1 $48 $49 $28 $-1 $50 forward single #
face $-1 $51 $52 $29 $-1 $53 forward single #
face $-1 $54 $55 $30 $-1 $56 reversed single #
face $-1 $57 $58 $31 $-1 $59 forward single #
face $-1 $60 $61 $32 $-1 $62 forward single #
face $-1 $63 $64 $33 $-1 $65 forward single #
face $-1 $66 $67 $34 $-1 $68 reversed single #
face $-1 $69 $70 $35 $-1 $71 forward single #
face $-1 $72 $73 $27 $-1 $74 reversed single #
loop $-1 $-1 $75 $36 #
plane-surface $-1 49.802545243690297 0 0 -1 0 0 0 0 1 forward_v I I I I #
face $-1 $76 $77 $28 $-1 $78 reversed single #
loop $-1 $-1 $79 $37 #
plane-surface $-1 -49.802545243690297 0 0 1 0 0 0 0 -1 forward_v I I I I #
face $-1 $80 $81 $29 $-1 $82 reversed single #
loop $-1 $-1 $83 $38 #
plane-surface $-1 49.802545243690297 0 0 -1 0 0 0 0 1 forward_v I I I I #
face $-1 $84 $85 $30 $-1 $86 reversed single #
loop $-1 $-1 $87 $39 #
plane-surface $-1 6.6403651072211787 78.598965395654275 113.82972974799434 1 0 0 0 -0.82903758062907751 -0.55919289150049634 forward_v I I I I #
face $-1 $88 $89 $31 $-1 $90 forward single #
loop $-1 $91 $92 $40 #
cone-surface $-1 10.455565204434215 29.586219949675002 5.637189025440998 0 -0.82903758062907751 -0.55919289150049634 1.5 0 0 1 I I 0 1 1.5 forward I I I I #
face $-1 $93 $94 $32 $-1 $95 forward single #
loop $-1 $96 $97 $41 #
cone-surface $-1 16.178365350253763 29.586219949675002 5.637189025440998 0 -0.82903758062907751 -0.55919289150049634 1.5 0 0 1 I I 0 1 1.5 forward I I I I #
face $-1 $98 $99 $33 $-1 $100 forward single #
loop $-1 $101 $102 $42 #
cone-surface $-1 21.901165496073311 29.586219949675002 5.637189025440998 0 -0.82903758062907751 -0.55919289150049634 1.5 0 0 1 I I 0 1 1.5 forward I I I I #
face $-1 $103 $104 $34 $-1 $105 reversed single #
loop $-1 $-1 $106 $43 #
plane-surface $-1 -21.159587887554871 -111.0046159862529 69.557719339072293 -1 0 0 0 -0.77714596973225614 0.62932038083071107 forward_v I I I I #
face $-1 $107 $108 $35 $-1 $109 forward single #
loop $-1 $110 $111 $44 #
cone-surface $-1 -27.089761510060086 -31.462550812340723 8.1964876684509189 0 0.77714596973225614 -0.62932038083071107 1 0 0 1 I I 0 1 1 forward I I I I #
face $-1 $112 $113 $27 $-1 $114 forward single #
loop $-1 $-1 $115 $45 #
plane-surface $-1 -49.802545243690297 0 0 1 0 0 0 0 -1 forward_v I I I I #
coedge $-1 $116 $117 $118 $119 reversed $46 $-1 #
face $-1 $120 $121 $28 $-1 $122 reversed single #
loop $-1 $-1 $123 $48 #
plane-surface $-1 0 0 -10.559134956820611 0 0 1 1 0 0 forward_v I I I I #
coedge $-1 $124 $125 $126 $127 forward $49 $-1 #
face $-1 $128 $129 $29 $-1 $130 reversed single #
loop $-1 $-1 $131 $51 #
plane-surface $-1 0 0 -10.559134956820611 0 0 1 1 0 0 forward_v I I I I #
coedge $-1 $132 $133 $134 $135 forward $52 $-1 #
face $-1 $136 $137 $30 $-1 $138 reversed single #
loop $-1 $-1 $139 $54 #
plane-surface $-1 16.178365350253763 -3.977397840344068 58.131271190187398 0 0.82903758062907751 0.55919289150049634 1 0 0 forward_v I I I I #
coedge $-1 $140 $141 $142 $143 reversed $55 $-1 #
face $-1 $-1 $144 $31 $-1 $145 forward single #
loop $-1 $146 $147 $57 #
cone-surface $-1 10.455565204434215 27.696994932261958 4.3628907006525814 0 -0.82903758062907751 -0.55919289150049634 0.75 0 0 1 I I -0.70710678118654757 0.70710678118654757 0.75 forward I I I I #
loop $-1 $-1 $148 $40 #
coedge $-1 $92 $92 $149 $150 reversed $58 $-1 #
face $-1 $-1 $151 $32 $-1 $152 forward single #
loop $-1 $153 $154 $60 #
cone-surface $-1 16.178365350253763 27.696994932261958 4.3628907006525814 0 -0.82903758062907751 -0.55919289150049634 0.75 0 0 1 I I -0.70710678118654757 0.70710678118654757 0.75 forward I I I I #
loop $-1 $-1 $155 $41 #
coedge $-1 $97 $97 $156 $157 reversed $61 $-1 #
face $-1 $-1 $158 $33 $-1 $159 forward single #
loop $-1 $160 $161 $63 #
cone-surface $-1 21.901165496073311 27.696994932261958 4.3628907006525814 0 -0.82903758062907751 -0.55919289150049634 0.75 0 0 1 I I -0.70710678118654757 0.70710678118654757 0.75 forward I I I I #
loop $-1 $-1 $162 $42 #
coedge $-1 $102 $102 $163 $164 reversed $64 $-1 #
face $-1 $165 $166 $34 $-1 $167 reversed single #
loop $-1 $-1 $168 $66 #
plane-surface $-1 -27.089761510060086 -33.596921349168383 6.8742058608765007 0 -0.77714596973225614 0.62932038083071107 1 0 0 forward_v I I I I #
coedge $-1 $169 $170 $171 $172 reversed $67 $-1 #
face $-1 $-1 $173 $35 $-1 $174 forward single #
loop $-1 $175 $176 $69 #
cone-surface $-1 -27.089761510060086 -30.431605623207702 7.3616447376379277 0 0.77714596973225614 -0.62932038083071107 0.5 0 0 1 I I -0.70710678118654746 0.70710678118654746 0.5 forward I I I I #
loop $-1 $-1 $177 $44 #
coedge $-1 $111 $111 $178 $179 reversed $70 $-1 #
face $-1 $180 $181 $27 $-1 $182 reversed single #
loop $-1 $-1 $183 $72 #
plane-surface $-1 0 0 10.559134956820611 0 0 1 1 0 0 forward_v I I I I #
coedge $-1 $184 $185 $186 $187 reversed $73 $-1 #
coedge $-1 $188 $75 $189 $190 reversed $46 $-1 #
coedge $-1 $75 $188 $191 $192 forward $46 $-1 #
coedge $-1 $193 $194 $75 $119 forward $181 $-1 #
edge $-1 $195 -33.596921349168397 $196 33.596921349168397 $75 $197 forward 7 unknown #
face $-1 $198 $199 $28 $-1 $200 reversed single #
loop $-1 $-1 $201 $76 #
plane-surface $-1 -54.142795381393874 -17.202371509932846 0 0 1 0 0 0 1 forward_v I I I I #
coedge $-1 $202 $203 $125 $204 forward $77 $-1 #
coedge $-1 $205 $79 $206 $207 reversed $49 $-1 #
coedge $-1 $79 $205 $123 $204 reversed $49 $-1 #
coedge $-1 $208 $209 $79 $127 reversed $210 $-1 #
edge $-1 $211 -10.559134956820611 $212 10.559134956820611 $126 $213 forward 7 unknown #
face $-1 $214 $215 $29 $-1 $216 reversed single #
loop $-1 $-1 $134 $80 #
plane-surface $-1 54.142795381393874 -17.202371509932846 0 0 1 0 0 0 1 forward_v I I I I #
coedge $-1 $217 $218 $133 $219 forward $81 $-1 #
coedge $-1 $220 $83 $221 $222 reversed $52 $-1 #
coedge $-1 $83 $220 $131 $219 reversed $52 $-1 #
coedge $-1 $223 $224 $83 $135 reversed $129 $-1 #
edge $-1 $225 -10.559134956820611 $226 10.559134956820611 $134 $227 forward 7 unknown #
face $-1 $228 $229 $30 $-1 $230 reversed single #
loop $-1 $-1 $231 $84 #
plane-surface $-1 25.716365593286348 78.598965395654275 113.82972974799434 -1 0 0 0 0.82903758062907751 0.55919289150049634 forward_v I I I I #
coedge $-1 $232 $233 $234 $235 reversed $85 $-1 #
coedge $-1 $141 $87 $236 $237 reversed $55 $-1 #
coedge $-1 $87 $140 $232 $238 reversed $55 $-1 #
coedge $-1 $234 $239 $87 $143 forward $240 $-1 #
edge $-1 $241 5.7025613486587403 $242 11.189070483763075 $142 $243 forward 7 unknown #
loop $-1 $-1 $149 $88 #
plane-surface $-1 16.178365350253763 -3.977397840344068 58.131271190187398 0 0.82903758062907751 0.55919289150049634 1 0 0 forward_v I I I I #
loop $-1 $-1 $244 $57 #
coedge $-1 $147 $147 $148 $245 reversed $89 $-1 #
coedge $-1 $148 $148 $147 $245 forward $91 $-1 #
coedge $-1 $149 $149 $92 $150 forward $144 $-1 #
edge $-1 $246 1.9442535217859281e-016 $246 6.2831853071796004 $149 $247 forward 7 unknown #
loop $-1 $-1 $156 $93 #
plane-surface $-1 16.178365350253763 -3.977397840344068 58.131271190187398 0 0.82903758062907751 0.55919289150049634 1 0 0 forward_v I I I I #
loop $-1 $-1 $248 $60 #
coedge $-1 $154 $154 $155 $249 reversed $94 $-1 #
coedge $-1 $155 $155 $154 $249 forward $96 $-1 #
coedge $-1 $156 $156 $97 $157 forward $151 $-1 #
edge $-1 $250 1.9442535217859281e-016 $250 6.2831853071796004 $156 $251 forward 7 unknown #
loop $-1 $-1 $163 $98 #
plane-surface $-1 16.178365350253763 -3.977397840344068 58.131271190187398 0 0.82903758062907751 0.55919289150049634 1 0 0 forward_v I I I I #
loop $-1 $-1 $252 $63 #
coedge $-1 $161 $161 $162 $253 reversed $99 $-1 #
coedge $-1 $162 $162 $161 $253 forward $101 $-1 #
coedge $-1 $163 $163 $102 $164 forward $158 $-1 #
edge $-1 $254 1.9442535217859281e-016 $254 6.2831853071796004 $163 $255 forward 7 unknown #
face $-1 $256 $257 $34 $-1 $258 forward single #
loop $-1 $-1 $259 $103 #
plane-surface $-1 -33.019935132565301 -111.0046159862529 69.557719339072293 1 0 0 0 0.77714596973225614 -0.62932038083071107 forward_v I I I I #
coedge $-1 $260 $261 $262 $263 reversed $104 $-1 #
coedge $-1 $170 $106 $264 $265 reversed $67 $-1 #
coedge $-1 $106 $169 $260 $266 reversed $67 $-1 #
coedge $-1 $262 $267 $106 $172 forward $257 $-1 #
edge $-1 $268 21.905386643958053 $269 24.88938330907963 $171 $270 forward 7 unknown #
loop $-1 $-1 $178 $107 #
plane-surface $-1 -27.089761510060086 -33.596921349168383 6.8742058608765007 0 -0.77714596973225614 0.62932038083071107 1 0 0 forward_v I I I I #
loop $-1 $-1 $271 $69 #
coedge $-1 $176 $176 $177 $272 reversed $108 $-1 #
coedge $-1 $177 $177 $176 $272 forward $110 $-1 #
coedge $-1 $178 $178 $111 $179 forward $173 $-1 #
edge $-1 $273 2.4308525420807512e-015 $273 6.2831853071796031 $178 $274 forward 7 unknown #
face $-1 $275 $276 $27 $-1 $277 reversed single #
loop $-1 $-1 $118 $112 #
plane-surface $-1 0 0 -10.559134956820611 0 0 1 1 0 0 forward_v I I I I #
coedge $-1 $278 $279 $188 $280 forward $113 $-1 #
coedge $-1 $281 $115 $282 $283 reversed $73 $-1 #
coedge $-1 $115 $281 $284 $285 forward $73 $-1 #
coedge $-1 $194 $193 $115 $187 forward $181 $-1 #
edge $-1 $286 -33.596921349168397 $287 33.596921349168397 $115 $288 forward 7 unknown #
coedge $-1 $117 $116 $183 $280 reversed $46 $-1 #
coedge $-1 $289 $290 $116 $190 forward $291 $-1 #
edge $-1 $292 -10.559134956820611 $195 10.559134956820611 $116 $293 forward 7 unknown #
coedge $-1 $294 $295 $117 $192 reversed $276 $-1 #
edge $-1 $296 -10.559134956820611 $196 10.559134956820611 $117 $297 forward 7 unknown #
coedge $-1 $186 $118 $295 $298 forward $181 $-1 #
coedge $-1 $118 $186 $289 $299 forward $181 $-1 #
vertex $-1 $119 $300 #
vertex $-1 $192 $301 #
straight-curve $-1 49.802545243690297 0 -10.559134956820611 0 -1 0 I I #
face $-1 $302 $210 $28 $-1 $303 reversed single #
loop $-1 $-1 $304 $120 #
plane-surface $-1 -58.483045519097452 -14.840511472730011 0 1 0 0 0 0 -1 forward_v I I I I #
coedge $-1 $305 $306 $307 $308 forward $121 $-1 #
coedge $-1 $309 $123 $305 $310 forward $77 $-1 #
coedge $-1 $123 $309 $208 $311 forward $77 $-1 #
edge $-1 $211 12.478651435527176 $312 17.202371509932846 $123 $313 forward 7 unknown #
coedge $-1 $125 $124 $314 $315 forward $49 $-1 #
coedge $-1 $316 $317 $124 $207 forward $318 $-1 #
edge $-1 $319 -17.202371509932846 $212 -12.478651435527176 $206 $320 forward 7 unknown #
coedge $-1 $321 $126 $203 $311 reversed $210 $-1 #
coedge $-1 $126 $321 $316 $322 reversed $210 $-1 #
loop $-1 $-1 $126 $198 #
vertex $-1 $204 $323 #
vertex $-1 $322 $324 #
straight-curve $-1 -49.802545243690297 -12.478651435527176 0 0 0 1 I I #
face $-1 $325 $326 $29 $-1 $327 reversed single #
loop $-1 $-1 $328 $128 #
plane-surface $-1 54.142795381393874 -12.478651435527176 0 0 -1 0 0 0 -1 forward_v I I I I #
coedge $-1 $329 $131 $330 $331 forward $81 $-1 #
coedge $-1 $131 $329 $223 $332 forward $81 $-1 #
edge $-1 $225 -17.202371509932846 $333 -12.478651435527176 $131 $334 forward 7 unknown #
coedge $-1 $133 $132 $335 $336 forward $52 $-1 #
coedge $-1 $337 $338 $132 $222 forward $339 $-1 #
edge $-1 $340 12.478651435527176 $226 17.202371509932846 $221 $341 forward 7 unknown #
coedge $-1 $342 $134 $218 $332 reversed $129 $-1 #
coedge $-1 $134 $342 $337 $343 reversed $129 $-1 #
vertex $-1 $219 $344 #
vertex $-1 $343 $345 #
straight-curve $-1 49.802545243690297 -17.202371509932846 0 0 0 1 I I #
face $-1 $-1 $240 $30 $-1 $346 forward single #
loop $-1 $-1 $347 $136 #
plane-surface $-1 0 33.596921349168397 0 0 -1 0 0 0 -1 forward_v I I I I #
coedge $-1 $348 $349 $350 $351 reversed $137 $-1 #
coedge $-1 $352 $139 $141 $238 forward $85 $-1 #
coedge $-1 $139 $352 $348 $353 forward $85 $-1 #
coedge $-1 $350 $142 $139 $235 forward $240 $-1 #
edge $-1 $242 -1.4488175679057029 $354 17.627182918159466 $234 $355 forward 7 unknown #
coedge $-1 $356 $357 $140 $237 forward $229 $-1 #
edge $-1 $358 -54.489814467609712 $241 -46.355729917176561 $236 $359 forward 7 unknown #
edge $-1 $242 57.382364014510458 $358 67.193842698336795 $141 $360 forward 7 unknown #
coedge $-1 $142 $350 $356 $361 forward $240 $-1 #
loop $-1 $-1 $350 $228 #
vertex $-1 $237 $362 #
vertex $-1 $143 $363 #
straight-curve $-1 6.6403651072211787 39.299482697827138 10.559134956820614 0 -1 0 I I #
coedge $-1 $244 $244 $-1 $364 reversed $146 $-1 #
edge $-1 $365 0 $365 6.2831853071796004 $147 $366 forward 7 unknown #
vertex $-1 $150 $367 #
ellipse-curve $-1 10.455565204434215 30.85366678161623 6.4920926816040385 0 0.82903758062907751 0.55919289150049634 1.5 0 0 1 I I #
coedge $-1 $248 $248 $-1 $368 reversed $153 $-1 #
edge $-1 $369 0 $369 6.2831853071796004 $154 $370 forward 7 unknown #
vertex $-1 $157 $371 #
ellipse-curve $-1 16.178365350253763 30.85366678161623 6.4920926816040385 0 0.82903758062907751 0.55919289150049634 1.5 0 0 1 I I #
coedge $-1 $252 $252 $-1 $372 reversed $160 $-1 #
edge $-1 $373 0 $373 6.2831853071796004 $161 $374 forward 7 unknown #
vertex $-1 $164 $375 #
ellipse-curve $-1 21.901165496073311 30.85366678161623 6.4920926816040385 0 0.82903758062907751 0.55919289150049634 1.5 0 0 1 I I #
face $-1 $-1 $376 $34 $-1 $377 reversed single #
loop $-1 $-1 $171 $165 #
plane-surface $-1 0 0 10.559134956820611 0 0 1 1 0 0 forward_v I I I I #
coedge $-1 $378 $379 $380 $381 reversed $166 $-1 #
coedge $-1 $382 $168 $170 $266 forward $104 $-1 #
coedge $-1 $168 $382 $378 $383 forward $104 $-1 #
coedge $-1 $380 $171 $168 $263 forward $257 $-1 #
edge $-1 $269 7.6147071325248277 $384 19.475054377535258 $262 $385 forward 7 unknown #
coedge $-1 $386 $387 $169 $265 forward $376 $-1 #
edge $-1 $388 -27.904653808659663 $268 -24.219724712715536 $264 $389 forward 7 unknown #
edge $-1 $269 -4.741617713353965 $388 2.2748066086763162e-014 $170 $390 forward 7 unknown #
coedge $-1 $171 $380 $386 $391 forward $257 $-1 #
vertex $-1 $172 $392 #
vertex $-1 $172 $393 #
straight-curve $-1 -21.159587887554871 -55.50230799312645 10.559134956820611 0 1 0 I I #
coedge $-1 $271 $271 $-1 $394 reversed $175 $-1 #
edge $-1 $395 0 $395 6.2831853071796004 $176 $396 forward 7 unknown #
vertex $-1 $179 $397 #
ellipse-curve $-1 -27.089761510060086 -32.104923016607607 8.7166704088485485 0 -0.77714596973225614 0.62932038083071107 1 0 0 1 I I #
face $-1 $-1 $291 $27 $-1 $398 reversed single #
loop $-1 $-1 $282 $180 #
plane-surface $-1 0 -33.596921349168397 0 0 1 0 0 0 1 forward_v I I I I #
coedge $-1 $399 $183 $290 $400 forward $113 $-1 #
coedge $-1 $183 $399 $294 $401 forward $113 $-1 #
edge $-1 $296 -33.596921349168397 $292 33.596921349168397 $188 $402 forward 7 unknown #
coedge $-1 $185 $184 $399 $403 reversed $73 $-1 #
coedge $-1 $295 $294 $184 $283 forward $276 $-1 #
edge $-1 $404 -10.559134956820611 $286 10.559134956820611 $184 $405 forward 7 unknown #
coedge $-1 $290 $289 $185 $285 reversed $291 $-1 #
edge $-1 $406 -10.559134956820611 $287 10.559134956820611 $284 $407 forward 7 unknown #
vertex $-1 $187 $408 #
vertex $-1 $299 $409 #
straight-curve $-1 -49.802545243690297 0 -10.559134956820611 0 1 0 I I #
coedge $-1 $284 $189 $194 $299 reversed $291 $-1 #
coedge $-1 $189 $284 $278 $400 reversed $291 $-1 #
loop $-1 $-1 $189 $275 #
vertex $-1 $280 $410 #
straight-curve $-1 49.802545243690297 33.596921349168397 0 0 0 -1 I I #
coedge $-1 $282 $191 $279 $401 reversed $276 $-1 #
coedge $-1 $191 $282 $193 $298 reversed $276 $-1 #
vertex $-1 $280 $411 #
straight-curve $-1 49.802545243690297 -33.596921349168397 0 0 0 -1 I I #
edge $-1 $196 -49.802545243690297 $286 49.802545243690297 $295 $412 forward 7 unknown #
edge $-1 $287 -49.802545243690297 $195 49.802545243690297 $289 $413 forward 7 unknown #
point $-1 49.802545243690297 33.596921349168397 -10.559134956820611 #
point $-1 49.802545243690297 -33.596921349168397 -10.559134956820611 #
face $-1 $-1 $318 $28 $-1 $414 forward single #
plane-surface $-1 -54.142795381393874 -12.478651435527176 0 0 -1 0 0 0 -1 forward_v I I I I #
coedge $-1 $415 $416 $321 $417 forward $199 $-1 #
coedge $-1 $314 $201 $202 $310 reversed $121 $-1 #
coedge $-1 $201 $314 $317 $418 reversed $121 $-1 #
coedge $-1 $416 $415 $201 $308 reversed $199 $-1 #
edge $-1 $419 -10.559134956820611 $420 10.559134956820611 $307 $421 forward 7 unknown #
coedge $-1 $203 $202 $415 $422 forward $77 $-1 #
edge $-1 $312 -4.3402501377035776 $420 4.3402501377035776 $305 $423 forward 7 unknown #
edge $-1 $424 -4.3402501377035776 $211 4.3402501377035776 $208 $425 forward 7 unknown #
vertex $-1 $310 $426 #
straight-curve $-1 -49.802545243690297 0 -10.559134956820611 0 -1 0 I I #
coedge $-1 $306 $305 $205 $315 reversed $121 $-1 #
edge $-1 $319 -10.559134956820611 $312 10.559134956820611 $314 $427 forward 7 unknown #
coedge $-1 $428 $206 $209 $322 forward $318 $-1 #
coedge $-1 $206 $428 $306 $418 forward $318 $-1 #
loop $-1 $-1 $206 $302 #
vertex $-1 $207 $429 #
straight-curve $-1 -49.802545243690297 0 10.559134956820611 0 1 0 I I #
coedge $-1 $209 $208 $304 $417 reversed $210 $-1 #
edge $-1 $212 -4.3402501377035776 $430 4.3402501377035776 $209 $431 forward 7 unknown #
point $-1 -49.802545243690297 -12.478651435527176 -10.559134956820611 #
point $-1 -49.802545243690297 -12.478651435527176 10.559134956820611 #
face $-1 $-1 $339 $29 $-1 $432 forward single #
loop $-1 $-1 $433 $214 #
plane-surface $-1 58.483045519097452 -14.840511472730011 0 -1 0 0 0 0 1 forward_v I I I I #
coedge $-1 $330 $434 $435 $436 forward $215 $-1 #
coedge $-1 $218 $217 $437 $438 forward $81 $-1 #
coedge $-1 $335 $328 $217 $331 reversed $215 $-1 #
edge $-1 $333 -4.3402501377035776 $439 4.3402501377035776 $330 $440 forward 7 unknown #
edge $-1 $441 -4.3402501377035776 $225 4.3402501377035776 $223 $442 forward 7 unknown #
vertex $-1 $331 $443 #
straight-curve $-1 49.802545243690297 0 -10.559134956820611 0 1 0 I I #
coedge $-1 $434 $330 $220 $336 reversed $215 $-1 #
edge $-1 $340 -10.559134956820611 $333 10.559134956820611 $335 $444 forward 7 unknown #
coedge $-1 $445 $221 $224 $343 forward $339 $-1 #
coedge $-1 $221 $445 $434 $446 forward $339 $-1 #
loop $-1 $-1 $221 $325 #
vertex $-1 $222 $447 #
straight-curve $-1 49.802545243690297 0 10.559134956820611 0 -1 0 I I #
coedge $-1 $224 $223 $433 $448 reversed $129 $-1 #
edge $-1 $226 -4.3402501377035776 $449 4.3402501377035776 $224 $450 forward 7 unknown #
point $-1 49.802545243690297 -17.202371509932846 -10.559134956820611 #
point $-1 49.802545243690297 -17.202371509932846 10.559134956820611 #
plane-surface $-1 0 0 10.559134956820611 0 0 1 1 0 0 forward_v I I I I #
coedge $-1 $357 $356 $349 $451 forward $229 $-1 #
coedge $-1 $349 $231 $233 $353 reversed $137 $-1 #
coedge $-1 $231 $348 $347 $451 reversed $137 $-1 #
coedge $-1 $239 $234 $231 $351 forward $240 $-1 #
edge $-1 $354 -11.189070483763075 $452 -5.7025613486587403 $350 $453 forward 7 unknown #
coedge $-1 $233 $232 $357 $454 reversed $85 $-1 #
edge $-1 $455 -67.193842698336795 $354 -57.382364014510458 $348 $456 forward 7 unknown #
vertex $-1 $235 $457 #
straight-curve $-1 8.0891826751268816 28.110412214064063 10.559134956820611 1 0 0 I I #
coedge $-1 $347 $236 $239 $361 reversed $229 $-1 #
coedge $-1 $236 $347 $352 $454 forward $229 $-1 #
vertex $-1 $237 $458 #
straight-curve $-1 6.6403651072211787 33.596921349168397 56.914864873997168 0 0 1 I I #
straight-curve $-1 6.6403651072211787 -3.977397840344068 58.131271190187398 0 0.55919289150049634 -0.82903758062907751 I I #
edge $-1 $452 -25.716365593286348 $241 -6.6403651072211787 $356 $459 forward 7 unknown #
point $-1 6.6403651072211787 33.596921349168397 10.559134956820611 #
point $-1 6.6403651072211787 28.110412214064063 10.559134956820607 #
edge $-1 $460 1 $460 0 $244 $-1 forward 7 unknown #
vertex $-1 $245 $461 #
ellipse-curve $-1 10.455565204434215 28.318773117733766 4.7822853692779539 0 0.82903758062907751 0.55919289150049634 1.5 0 0 1 I I #
point $-1 11.955565204434215 30.853666781616237 6.492092681604043 #
edge $-1 $462 1 $462 0 $248 $-1 forward 7 unknown #
vertex $-1 $249 $463 #
ellipse-curve $-1 16.178365350253763 28.318773117733766 4.7822853692779539 0 0.82903758062907751 0.55919289150049634 1.5 0 0 1 I I #
point $-1 17.678365350253763 30.853666781616237 6.492092681604043 #
edge $-1 $464 1 $464 0 $252 $-1 forward 7 unknown #
vertex $-1 $253 $465 #
ellipse-curve $-1 21.901165496073311 28.318773117733766 4.7822853692779539 0 0.82903758062907751 0.55919289150049634 1.5 0 0 1 I I #
point $-1 23.401165496073311 30.853666781616237 6.492092681604043 #
loop $-1 $-1 $264 $256 #
plane-surface $-1 0 -33.596921349168397 0 0 1 0 0 0 1 forward_v I I I I #
coedge $-1 $379 $259 $261 $383 reversed $166 $-1 #
coedge $-1 $259 $378 $466 $467 reversed $166 $-1 #
coedge $-1 $267 $262 $259 $381 forward $257 $-1 #
edge $-1 $384 -24.88938330907963 $468 -21.905386643958053 $380 $469 forward 7 unknown #
coedge $-1 $261 $260 $387 $470 reversed $104 $-1 #
edge $-1 $471 -2.2748066086763162e-014 $384 4.741617713353965 $378 $472 forward 7 unknown #
vertex $-1 $263 $473 #
straight-curve $-1 -13.544880755030043 -30.612924684046821 10.559134956820611 -1 0 0 I I #
coedge $-1 $466 $264 $267 $391 reversed $376 $-1 #
coedge $-1 $264 $466 $382 $470 forward $376 $-1 #
vertex $-1 $265 $474 #
straight-curve $-1 -21.159587887554871 -33.596921349168397 34.778859669536146 0 0 1 I I #
straight-curve $-1 -21.159587887554871 -33.596921349168383 6.8742058608765007 0 -0.62932038083071107 -0.77714596973225614 I I #
edge $-1 $468 -33.019935132565301 $268 -21.159587887554871 $386 $475 forward 7 unknown #
point $-1 -21.159587887554871 -33.596921349168397 10.559134956820611 #
point $-1 -21.159587887554871 -30.612924684046821 10.559134956820611 #
edge $-1 $476 1 $476 0 $271 $-1 forward 7 unknown #
vertex $-1 $272 $477 #
ellipse-curve $-1 -27.089761510060086 -30.820178608073828 7.6763049280532831 0 -0.77714596973225614 0.62932038083071107 1 0 0 1 I I #
point $-1 -26.089761510060086 -32.104923016607614 8.7166704088485574 #
plane-surface $-1 0 33.596921349168397 0 0 -1 0 0 0 -1 forward_v I I I I #
coedge $-1 $279 $278 $281 $403 forward $113 $-1 #
edge $-1 $292 -49.802545243690297 $406 49.802545243690297 $290 $478 forward 7 unknown #
edge $-1 $404 -49.802545243690297 $296 49.802545243690297 $294 $479 forward 7 unknown #
straight-curve $-1 49.802545243690297 0 10.559134956820611 0 1 0 I I #
edge $-1 $406 -33.596921349168397 $404 33.596921349168397 $281 $480 forward 7 unknown #
vertex $-1 $403 $481 #
straight-curve $-1 -49.802545243690297 -33.596921349168397 0 0 0 -1 I I #
vertex $-1 $400 $482 #
straight-curve $-1 -49.802545243690297 33.596921349168397 0 0 0 -1 I I #
point $-1 -49.802545243690297 -33.596921349168397 -10.559134956820611 #
point $-1 -49.802545243690297 33.596921349168397 -10.559134956820611 #
point $-1 49.802545243690297 33.596921349168397 10.559134956820611 #
point $-1 49.802545243690297 -33.596921349168397 10.559134956820611 #
straight-curve $-1 0 -33.596921349168397 -10.559134956820611 -1 0 0 I I #
straight-curve $-1 0 33.596921349168397 -10.559134956820611 1 0 0 I I #
plane-surface $-1 0 0 10.559134956820611 0 0 1 1 0 0 forward_v I I I I #
coedge $-1 $307 $304 $309 $422 reversed $199 $-1 #
coedge $-1 $304 $307 $428 $483 reversed $199 $-1 #
edge $-1 $430 -10.559134956820611 $424 10.559134956820611 $321 $484 forward 7 unknown #
edge $-1 $419 -4.3402501377035776 $319 4.3402501377035776 $306 $485 forward 7 unknown #
vertex $-1 $483 $486 #
vertex $-1 $422 $487 #
straight-curve $-1 -58.483045519097452 -17.202371509932846 0 0 0 -1 I I #
edge $-1 $420 -2.3618600372028347 $424 2.3618600372028347 $415 $488 forward 7 unknown #
straight-curve $-1 -54.142795381393874 -17.202371509932846 -10.559134956820611 -1 0 0 I I #
vertex $-1 $311 $489 #
straight-curve $-1 -54.142795381393874 -12.478651435527176 -10.559134956820611 1 0 0 I I #
point $-1 -49.802545243690297 -17.202371509932846 -10.559134956820611 #
straight-curve $-1 -49.802545243690297 -17.202371509932846 0 0 0 -1 I I #
coedge $-1 $317 $316 $416 $483 forward $318 $-1 #
point $-1 -49.802545243690297 -17.202371509932846 10.559134956820611 #
vertex $-1 $322 $490 #
straight-curve $-1 -54.142795381393874 -12.478651435527176 10.559134956820611 -1 0 0 I I #
plane-surface $-1 0 0 10.559134956820611 0 0 1 1 0 0 forward_v I I I I #
coedge $-1 $437 $491 $342 $448 forward $326 $-1 #
coedge $-1 $328 $335 $338 $446 reversed $215 $-1 #
coedge $-1 $491 $437 $328 $436 reversed $326 $-1 #
edge $-1 $492 -10.559134956820611 $439 10.559134956820611 $435 $493 forward 7 unknown #
coedge $-1 $435 $433 $329 $438 reversed $326 $-1 #
edge $-1 $439 -2.3618600372028347 $441 2.3618600372028347 $437 $494 forward 7 unknown #
vertex $-1 $438 $495 #
straight-curve $-1 54.142795381393874 -12.478651435527176 -10.559134956820611 1 0 0 I I #
vertex $-1 $448 $496 #
straight-curve $-1 54.142795381393874 -17.202371509932846 -10.559134956820611 -1 0 0 I I #
point $-1 49.802545243690297 -12.478651435527176 -10.559134956820611 #
straight-curve $-1 49.802545243690297 -12.478651435527176 0 0 0 -1 I I #
coedge $-1 $338 $337 $491 $497 forward $339 $-1 #
edge $-1 $492 -4.3402501377035776 $340 4.3402501377035776 $434 $498 forward 7 unknown #
point $-1 49.802545243690297 -12.478651435527176 10.559134956820611 #
edge $-1 $449 -10.559134956820611 $441 10.559134956820611 $433 $499 forward 7 unknown #
vertex $-1 $497 $500 #
straight-curve $-1 54.142795381393874 -17.202371509932846 10.559134956820611 1 0 0 I I #
edge $-1 $452 46.355729917176561 $455 54.489814467609712 $347 $501 forward 7 unknown #
vertex $-1 $361 $502 #
straight-curve $-1 25.716365593286348 39.299482697827138 10.559134956820614 0 1 0 I I #
edge $-1 $455 -17.627182918159466 $358 1.4488175679057029 $357 $503 forward 7 unknown #
vertex $-1 $454 $504 #
straight-curve $-1 25.716365593286348 -3.977397840344068 58.131271190187398 0 -0.55919289150049634 0.82903758062907751 I I #
point $-1 25.716365593286348 28.110412214064063 10.559134956820607 #
point $-1 6.6403651072211787 33.596921349168397 2.4250504063874558 #
straight-curve $-1 0 33.596921349168397 10.559134956820611 -1 0 0 I I #
vertex $-1 $364 $505 #
point $-1 11.955565204434215 28.318773117733766 4.7822853692779539 #
vertex $-1 $368 $506 #
point $-1 17.678365350253763 28.318773117733766 4.7822853692779539 #
vertex $-1 $372 $507 #
point $-1 23.401165496073311 28.318773117733766 4.7822853692779539 #
coedge $-1 $387 $386 $379 $467 forward $376 $-1 #
edge $-1 $468 24.219724712715536 $471 27.904653808659663 $466 $508 forward 7 unknown #
vertex $-1 $391 $509 #
straight-curve $-1 -33.019935132565301 -55.50230799312645 10.559134956820611 0 -1 0 I I #
edge $-1 $471 -19.475054377535258 $388 -7.6147071325248277 $387 $510 forward 7 unknown #
vertex $-1 $470 $511 #
straight-curve $-1 -33.019935132565301 -33.596921349168383 6.8742058608765007 0 0.62932038083071107 0.77714596973225614 I I #
point $-1 -33.019935132565301 -30.612924684046821 10.559134956820611 #
point $-1 -21.159587887554871 -33.596921349168397 6.8742058608764829 #
straight-curve $-1 0 -33.596921349168397 10.559134956820611 1 0 0 I I #
vertex $-1 $394 $512 #
point $-1 -26.089761510060086 -30.820178608073828 7.6763049280532831 #
straight-curve $-1 0 33.596921349168397 10.559134956820611 -1 0 0 I I #
straight-curve $-1 0 -33.596921349168397 10.559134956820611 1 0 0 I I #
straight-curve $-1 -49.802545243690297 0 10.559134956820611 0 -1 0 I I #
point $-1 -49.802545243690297 -33.596921349168397 10.559134956820611 #
point $-1 -49.802545243690297 33.596921349168397 10.559134956820611 #
edge $-1 $430 -2.3618600372028347 $419 2.3618600372028347 $416 $513 forward 7 unknown #
straight-curve $-1 -58.483045519097452 -12.478651435527176 0 0 0 -1 I I #
straight-curve $-1 -54.142795381393874 -17.202371509932846 10.559134956820611 1 0 0 I I #
point $-1 -58.483045519097452 -17.202371509932846 10.559134956820611 #
point $-1 -58.483045519097452 -17.202371509932846 -10.559134956820611 #
straight-curve $-1 -58.483045519097452 -14.840511472730011 -10.559134956820611 0 1 0 I I #
point $-1 -58.483045519097452 -12.478651435527176 -10.559134956820611 #
point $-1 -58.483045519097452 -12.478651435527176 10.559134956820611 #
coedge $-1 $433 $435 $445 $497 reversed $326 $-1 #
vertex $-1 $497 $514 #
straight-curve $-1 58.483045519097452 -12.478651435527176 0 0 0 -1 I I #
straight-curve $-1 58.483045519097452 -14.840511472730011 -10.559134956820611 0 -1 0 I I #
point $-1 58.483045519097452 -12.478651435527176 -10.559134956820611 #
point $-1 58.483045519097452 -17.202371509932846 -10.559134956820611 #
edge $-1 $449 -2.3618600372028347 $492 2.3618600372028347 $491 $515 forward 7 unknown #
straight-curve $-1 54.142795381393874 -12.478651435527176 10.559134956820611 -1 0 0 I I #
straight-curve $-1 58.483045519097452 -17.202371509932846 0 0 0 -1 I I #
point $-1 58.483045519097452 -17.202371509932846 10.559134956820611 #
straight-curve $-1 25.716365593286348 33.596921349168397 56.914864873997168 0 0 -1 I I #
point $-1 25.716365593286348 33.596921349168397 10.559134956820611 #
straight-curve $-1 8.0891826751268816 33.596921349168397 2.4250504063874523 -1 0 0 I I #
point $-1 25.716365593286348 33.596921349168397 2.4250504063874558 #
point $-1 10.455565204434215 27.075216746790151 3.943496032027209 #
point $-1 16.178365350253763 27.075216746790151 3.943496032027209 #
point $-1 21.901165496073311 27.075216746790151 3.943496032027209 #
straight-curve $-1 -33.019935132565301 -33.596921349168397 34.778859669536146 0 0 -1 I I #
point $-1 -33.019935132565301 -33.596921349168397 10.559134956820611 #
straight-curve $-1 -13.544880755030043 -33.596921349168397 6.8742058608764847 1 0 0 I I #
point $-1 -33.019935132565301 -33.596921349168397 6.8742058608764829 #
point $-1 -27.089761510060086 -30.043032638341575 7.0469845472225723 #
straight-curve $-1 -58.483045519097452 -14.840511472730011 10.559134956820611 0 -1 0 I I #
point $-1 58.483045519097452 -12.478651435527176 10.559134956820611 #
straight-curve $-1 58.483045519097452 -14.840511472730011 10.559134956820611 0 1 0 I I #
End-of-ACIS-data 