500 0 10 0           
7 Unknown 11 ACIS 5.0 NT 24 Fri Mar 26 19:52:52 1999 
-1 9.9999999999999995e-007 1e-010 
body $-1 $10 $-1 $11 #
body $-1 $12 $-1 $13 #
body $-1 $14 $-1 $15 #
body $-1 $16 $-1 $17 #
body $-1 $18 $-1 $19 #
body $-1 $20 $-1 $21 #
body $-1 $22 $-1 $23 #
body $-1 $24 $-1 $25 #
body $-1 $26 $-1 $27 #
body $-1 $28 $-1 $29 #
lump $-1 $-1 $30 $0 #
transform $-1 1 0 0 0 1 0 0 0 1 52.693258461256747 36.336268854680831 12.000937991645294 1 rotate no_reflect no_shear #
lump $-1 $-1 $31 $1 #
transform $-1 1 0 0 0 1 0 0 0 1 52.693258461256747 36.336268854680831 12.000937991645294 1 rotate no_reflect no_shear #
lump $-1 $-1 $32 $2 #
transform $-1 1 0 0 0 1 0 0 0 1 52.693258461256747 36.336268854680831 12.000937991645294 1 rotate no_reflect no_shear #
lump $-1 $-1 $33 $3 #
transform $-1 1 0 0 0 1 0 0 0 1 52.693258461256747 36.336268854680831 12.000937991645294 1 rotate no_reflect no_shear #
lump $-1 $-1 $34 $4 #
transform $-1 1 0 0 0 1 0 0 0 1 52.693258461256747 36.336268854680831 12.000937991645294 1 rotate no_reflect no_shear #
lump $-1 $-1 $35 $5 #
transform $-1 1 0 0 0 1 0 0 0 1 52.693258461256747 36.336268854680831 12.000937991645294 1 rotate no_reflect no_shear #
lump $-1 $-1 $36 $6 #
transform $-1 1 0 0 0 1 0 0 0 1 52.693258461256747 36.336268854680831 12.000937991645294 1 rotate no_reflect no_shear #
lump $-1 $-1 $37 $7 #
transform $-1 1 0 0 0 1 0 0 0 1 52.693258461256747 36.336268854680831 12.000937991645294 1 rotate no_reflect no_shear #
lump $-1 $-1 $38 $8 #
transform $-1 1 0 0 0 1 0 0 0 1 52.693258461256747 36.336268854680831 12.000937991645294 1 rotate no_reflect no_shear #
lump $-1 $-1 $39 $9 #
transform $-1 1 0 0 0 1 0 0 0 1 52.693258461256747 36.336268854680831 12.000937991645294 1 rotate no_reflect no_shear #
shell $-1 $-1 $-1 $40 $-1 $10 #
shell $-1 $-1 $-1 $41 $-1 $12 #
shell $-1 $-1 $-1 $42 $-1 $14 #
shell $-1 $-1 $-1 $43 $-1 $16 #
shell $-1 $-1 $-1 $44 $-1 $18 #
shell $-1 $-1 $-1 $45 $-1 $20 #
shell $-1 $-1 $-1 $46 $-1 $22 #
shell $-1 $-1 $-1 $47 $-1 $24 #
shell $-1 $-1 $-1 $48 $-1 $26 #
shell $-1 $-1 $-1 $49 $-1 $28 #
face $-1 $50 $51 $30 $-1 $52 forward single #
face $-1 $53 $54 $31 $-1 $55 reversed single #
face $-1 $56 $57 $32 $-1 $58 reversed single #
face $-1 $59 $60 $33 $-1 $61 forward single #
face $-1 $62 $63 $34 $-1 $64 forward single #
face $-1 $65 $66 $35 $-1 $67 forward single #
face $-1 $68 $69 $36 $-1 $70 reversed single #
face $-1 $71 $72 $37 $-1 $73 forward single #
face $-1 $74 $75 $38 $-1 $76 reversed single #
face $-1 $77 $78 $39 $-1 $79 forward single #
face $-1 $80 $81 $30 $-1 $82 reversed single #
loop $-1 $-1 $83 $40 #
plane-surface $-1 0 0 12.000937991645294 0 0 1 1 0 0 forward_v I I I I #
face $-1 $84 $85 $31 $-1 $86 reversed single #
loop $-1 $-1 $87 $41 #
plane-surface $-1 -50.924230762857569 -24.073534834213 0 0 -1 0 0 0 -1 forward_v I I I I #
face $-1 $88 $89 $32 $-1 $90 reversed single #
loop $-1 $-1 $91 $42 #
plane-surface $-1 31.95103429635067 -6.8840964900090578 151.72029468856405 0 -1 0 -0.6018150307709319 0 -0.79863550430605224 forward_v I I I I #
face $-1 $92 $93 $33 $-1 $94 forward single #
loop $-1 $95 $96 $43 #
cone-surface $-1 47.14010093197367 -18.800500406252052 7.6260862231365012 -0.6018150307709319 0 -0.79863550430605224 0.79863550430605224 0 -0.6018150307709319 1 I I 0 1 1 forward I I I I #
face $-1 $97 $98 $34 $-1 $99 forward single #
loop $-1 $100 $101 $44 #
cone-surface $-1 47.14010093197367 -14.331848937660929 7.6260862231365012 -0.6018150307709319 0 -0.79863550430605224 0.79863550430605224 0 -0.6018150307709319 1 I I 0 1 1 forward I I I I #
face $-1 $102 $103 $35 $-1 $104 forward single #
loop $-1 $105 $106 $45 #
cone-surface $-1 47.14010093197367 -9.8631974690698065 7.6260862231365012 -0.6018150307709319 0 -0.79863550430605224 0.79863550430605224 0 -0.6018150307709319 1 I I 0 1 1 forward I I I I #
face $-1 $107 $108 $36 $-1 $109 reversed single #
loop $-1 $-1 $110 $46 #
plane-surface $-1 -139.02084009602592 -21.912210302475678 61.769329644086376 0 1 0 -0.81915205242281985 0 0.57357642473473569 forward_v I I I I #
face $-1 $111 $112 $37 $-1 $113 forward single #
loop $-1 $114 $115 $47 #
cone-surface $-1 -48.053778947063257 -16.819033518792764 6.0307893836136017 0.81915205242281985 0 -0.57357642473473569 0.86036463710210354 0 1.2287280786342298 1 I I 0 1 1.5 forward I I I I #
face $-1 $116 $117 $38 $-1 $118 reversed single #
loop $-1 $-1 $119 $48 #
plane-surface $-1 -139.02084009602592 23.98859075557769 61.769329644086376 0 1 0 -0.81915205242281985 0 0.57357642473473569 forward_v I I I I #
face $-1 $120 $121 $39 $-1 $122 forward single #
loop $-1 $123 $124 $49 #
cone-surface $-1 -48.053778947063257 29.081767539260603 6.0307893836136017 0.81915205242281985 0 -0.57357642473473569 0.86036463710210354 0 1.2287280786342298 1 I I 0 1 1.5 forward I I I I #
face $-1 $125 $126 $30 $-1 $127 reversed single #
loop $-1 $-1 $128 $50 #
plane-surface $-1 0 0 -12.000937991645294 0 0 1 1 0 0 forward_v I I I I #
coedge $-1 $129 $130 $131 $132 forward $51 $-1 #
face $-1 $133 $134 $31 $-1 $135 forward single #
loop $-1 $-1 $136 $53 #
plane-surface $-1 -49.155203064458391 -30.204901844446916 0 -1 0 0 0 0 1 forward_v I I I I #
coedge $-1 $137 $138 $139 $140 forward $54 $-1 #
face $-1 $141 $142 $32 $-1 $143 reversed single #
loop $-1 $-1 $144 $56 #
plane-surface $-1 -31.472155628213123 -14.331848937660929 67.554880599094176 0.6018150307709319 0 0.79863550430605224 0.79863550430605224 0 -0.6018150307709319 forward_v I I I I #
coedge $-1 $145 $146 $147 $148 reversed $57 $-1 #
face $-1 $-1 $149 $33 $-1 $150 forward single #
loop $-1 $151 $152 $59 #
cone-surface $-1 46.507457734780758 -18.800500406252052 6.7865403610321238 -0.6018150307709319 0 -0.79863550430605224 0.39931775215302612 0 -0.30090751538546595 1 I I -0.70710678118654746 0.70710678118654746 0.5 forward I I I I #
loop $-1 $-1 $153 $43 #
coedge $-1 $96 $96 $154 $155 reversed $60 $-1 #
face $-1 $-1 $156 $34 $-1 $157 forward single #
loop $-1 $158 $159 $62 #
cone-surface $-1 46.507457734780758 -14.331848937660929 6.7865403610321238 -0.6018150307709319 0 -0.79863550430605224 0.39931775215302612 0 -0.30090751538546595 1 I I -0.70710678118654746 0.70710678118654746 0.5 forward I I I I #
loop $-1 $-1 $160 $44 #
coedge $-1 $101 $101 $161 $162 reversed $63 $-1 #
face $-1 $-1 $163 $35 $-1 $164 forward single #
loop $-1 $165 $166 $65 #
cone-surface $-1 46.507457734780758 -9.8631974690698065 6.7865403610321238 -0.6018150307709319 0 -0.79863550430605224 0.39931775215302612 0 -0.30090751538546595 1 I I -0.70710678118654746 0.70710678118654746 0.5 forward I I I I #
loop $-1 $-1 $167 $45 #
coedge $-1 $106 $106 $168 $169 reversed $66 $-1 #
face $-1 $170 $171 $36 $-1 $172 reversed single #
loop $-1 $-1 $173 $68 #
plane-surface $-1 -52.693258461256761 -16.819033518792764 1.3221080524243689 -0.81915205242281985 0 0.57357642473473569 0.57357642473473569 0 0.81915205242281985 forward_v I I I I #
coedge $-1 $174 $175 $176 $177 reversed $69 $-1 #
face $-1 $-1 $178 $37 $-1 $179 forward single #
loop $-1 $180 $181 $71 #
cone-surface $-1 -46.538633892062307 -16.819033518792764 4.9698734266413283 0.81915205242281985 0 -0.57357642473473569 0.43018231855105177 0 0.61436403931711492 1 I I -0.70710678118654757 0.70710678118654757 0.75 forward I I I I #
loop $-1 $-1 $182 $47 #
coedge $-1 $115 $115 $183 $184 reversed $72 $-1 #
face $-1 $185 $186 $38 $-1 $187 reversed single #
loop $-1 $-1 $188 $74 #
plane-surface $-1 -52.693258461256761 29.081767539260603 1.3221080524243689 -0.81915205242281985 0 0.57357642473473569 0.57357642473473569 0 0.81915205242281985 forward_v I I I I #
coedge $-1 $189 $190 $191 $192 reversed $75 $-1 #
face $-1 $-1 $193 $39 $-1 $194 forward single #
loop $-1 $195 $196 $77 #
cone-surface $-1 -46.538633892062307 29.081767539260603 4.9698734266413283 0.81915205242281985 0 -0.57357642473473569 0.43018231855105177 0 0.61436403931711492 1 I I -0.70710678118654757 0.70710678118654757 0.75 forward I I I I #
loop $-1 $-1 $197 $49 #
coedge $-1 $124 $124 $198 $199 reversed $78 $-1 #
face $-1 $200 $201 $30 $-1 $202 reversed single #
loop $-1 $-1 $203 $80 #
plane-surface $-1 0 -36.336268854680831 0 0 1 0 0 0 1 forward_v I I I I #
coedge $-1 $204 $205 $206 $207 forward $81 $-1 #
coedge $-1 $208 $83 $209 $210 forward $51 $-1 #
coedge $-1 $83 $208 $211 $212 forward $51 $-1 #
coedge $-1 $213 $214 $83 $132 reversed $215 $-1 #
edge $-1 $216 -36.336268854680831 $217 36.336268854680831 $131 $218 forward 7 unknown #
face $-1 $219 $220 $31 $-1 $221 reversed single #
loop $-1 $-1 $222 $84 #
plane-surface $-1 0 0 12.000937991645294 0 0 1 1 0 0 forward_v I I I I #
coedge $-1 $223 $224 $225 $226 reversed $85 $-1 #
coedge $-1 $227 $87 $228 $229 reversed $54 $-1 #
coedge $-1 $87 $227 $230 $231 reversed $54 $-1 #
coedge $-1 $224 $223 $87 $140 reversed $85 $-1 #
edge $-1 $232 -12.000937991645294 $233 12.000937991645294 $139 $234 forward 7 unknown #
face $-1 $235 $236 $32 $-1 $237 reversed single #
loop $-1 $-1 $238 $88 #
plane-surface $-1 31.95103429635067 -21.779601385312802 151.72029468856405 0 1 0 0.6018150307709319 0 0.79863550430605224 forward_v I I I I #
coedge $-1 $239 $240 $241 $242 reversed $89 $-1 #
coedge $-1 $146 $91 $243 $244 reversed $57 $-1 #
coedge $-1 $91 $145 $239 $245 reversed $57 $-1 #
coedge $-1 $241 $246 $91 $148 forward $247 $-1 #
edge $-1 $248 -36.717741313081412 $249 -26.274897618130169 $147 $250 forward 7 unknown #
loop $-1 $-1 $154 $92 #
plane-surface $-1 -31.472155628213123 -14.331848937660929 67.554880599094176 0.6018150307709319 0 0.79863550430605224 0.79863550430605224 0 -0.6018150307709319 forward_v I I I I #
loop $-1 $-1 $251 $59 #
coedge $-1 $152 $152 $153 $252 reversed $93 $-1 #
coedge $-1 $153 $153 $152 $252 forward $95 $-1 #
coedge $-1 $154 $154 $96 $155 forward $149 $-1 #
edge $-1 $253 0 $253 6.2831853071796004 $154 $254 forward 7 unknown #
loop $-1 $-1 $161 $97 #
plane-surface $-1 -31.472155628213123 -14.331848937660929 67.554880599094176 0.6018150307709319 0 0.79863550430605224 0.79863550430605224 0 -0.6018150307709319 forward_v I I I I #
loop $-1 $-1 $255 $62 #
coedge $-1 $159 $159 $160 $256 reversed $98 $-1 #
coedge $-1 $160 $160 $159 $256 forward $100 $-1 #
coedge $-1 $161 $161 $101 $162 forward $156 $-1 #
edge $-1 $257 0 $257 6.2831853071796004 $161 $258 forward 7 unknown #
loop $-1 $-1 $168 $102 #
plane-surface $-1 -31.472155628213123 -14.331848937660929 67.554880599094176 0.6018150307709319 0 0.79863550430605224 0.79863550430605224 0 -0.6018150307709319 forward_v I I I I #
loop $-1 $-1 $259 $65 #
coedge $-1 $166 $166 $167 $260 reversed $103 $-1 #
coedge $-1 $167 $167 $166 $260 forward $105 $-1 #
coedge $-1 $168 $168 $106 $169 forward $163 $-1 #
edge $-1 $261 0 $261 6.2831853071796004 $168 $262 forward 7 unknown #
face $-1 $263 $264 $36 $-1 $265 reversed single #
loop $-1 $-1 $266 $107 #
plane-surface $-1 -139.02084009602592 -11.725856735109849 61.769329644086376 0 -1 0 0.81915205242281985 0 -0.57357642473473569 forward_v I I I I #
coedge $-1 $267 $268 $269 $270 reversed $108 $-1 #
coedge $-1 $175 $110 $271 $272 reversed $69 $-1 #
coedge $-1 $110 $174 $267 $273 reversed $69 $-1 #
coedge $-1 $269 $274 $110 $177 forward $275 $-1 #
edge $-1 $276 16.817161586756214 $277 24.294558583775505 $176 $278 forward 7 unknown #
loop $-1 $-1 $183 $111 #
plane-surface $-1 -52.693258461256761 -16.819033518792764 1.3221080524243689 -0.81915205242281985 0 0.57357642473473569 0.57357642473473569 0 0.81915205242281985 forward_v I I I I #
loop $-1 $-1 $279 $71 #
coedge $-1 $181 $181 $182 $280 reversed $112 $-1 #
coedge $-1 $182 $182 $181 $280 forward $114 $-1 #
coedge $-1 $183 $183 $115 $184 forward $178 $-1 #
edge $-1 $281 0 $281 6.2831853071796004 $183 $282 forward 7 unknown #
face $-1 $283 $284 $38 $-1 $285 forward single #
loop $-1 $-1 $286 $116 #
plane-surface $-1 -139.02084009602592 34.174944322943517 61.769329644086376 0 -1 0 0.81915205242281985 0 -0.57357642473473569 forward_v I I I I #
coedge $-1 $287 $288 $289 $290 reversed $117 $-1 #
coedge $-1 $190 $119 $291 $292 reversed $75 $-1 #
coedge $-1 $119 $189 $287 $293 reversed $75 $-1 #
coedge $-1 $289 $294 $119 $192 forward $284 $-1 #
edge $-1 $295 16.817161586756214 $296 24.294558583775505 $191 $297 forward 7 unknown #
loop $-1 $-1 $198 $120 #
plane-surface $-1 -52.693258461256761 29.081767539260603 1.3221080524243689 -0.81915205242281985 0 0.57357642473473569 0.57357642473473569 0 0.81915205242281985 forward_v I I I I #
loop $-1 $-1 $298 $77 #
coedge $-1 $196 $196 $197 $299 reversed $121 $-1 #
coedge $-1 $197 $197 $196 $299 forward $123 $-1 #
coedge $-1 $198 $198 $124 $199 forward $193 $-1 #
edge $-1 $300 0 $300 6.2831853071796004 $198 $301 forward 7 unknown #
face $-1 $302 $303 $30 $-1 $304 reversed single #
loop $-1 $-1 $305 $125 #
plane-surface $-1 -52.693258461256747 0 0 1 0 0 0 0 -1 forward_v I I I I #
coedge $-1 $306 $211 $307 $308 forward $126 $-1 #
coedge $-1 $309 $128 $306 $310 forward $81 $-1 #
coedge $-1 $128 $309 $311 $312 forward $81 $-1 #
coedge $-1 $214 $213 $128 $207 reversed $215 $-1 #
edge $-1 $313 -36.336268854680831 $314 36.336268854680831 $206 $315 forward 7 unknown #
coedge $-1 $130 $129 $316 $317 forward $51 $-1 #
coedge $-1 $318 $319 $129 $210 reversed $303 $-1 #
edge $-1 $217 -52.693258461256747 $320 52.693258461256747 $209 $321 forward 7 unknown #
coedge $-1 $203 $322 $130 $212 reversed $126 $-1 #
edge $-1 $323 -52.693258461256747 $216 52.693258461256747 $211 $324 forward 7 unknown #
coedge $-1 $206 $131 $322 $325 forward $215 $-1 #
coedge $-1 $131 $206 $318 $326 reversed $215 $-1 #
loop $-1 $-1 $213 $302 #
vertex $-1 $132 $327 #
vertex $-1 $132 $328 #
straight-curve $-1 52.693258461256747 0 12.000937991645294 0 1 0 I I #
face $-1 $329 $330 $31 $-1 $331 reversed single #
loop $-1 $-1 $332 $133 #
plane-surface $-1 -52.693258461256747 0 0 1 0 0 0 0 -1 forward_v I I I I #
coedge $-1 $230 $333 $224 $334 forward $134 $-1 #
coedge $-1 $139 $136 $335 $336 reversed $85 $-1 #
coedge $-1 $136 $139 $222 $334 reversed $85 $-1 #
coedge $-1 $337 $338 $136 $226 forward $339 $-1 #
edge $-1 $340 -12.000937991645294 $341 12.000937991645294 $225 $342 forward 7 unknown #
coedge $-1 $138 $137 $332 $343 reversed $54 $-1 #
coedge $-1 $335 $344 $137 $229 forward $330 $-1 #
edge $-1 $345 -27.231143079827962 $233 -23.693087683029606 $228 $346 forward 7 unknown #
coedge $-1 $347 $222 $138 $231 forward $134 $-1 #
edge $-1 $232 23.693087683029606 $348 27.231143079827962 $230 $349 forward 7 unknown #
vertex $-1 $231 $350 #
vertex $-1 $229 $351 #
straight-curve $-1 -49.155203064458391 -24.073534834213 0 0 0 -1 I I #
face $-1 $-1 $247 $32 $-1 $352 forward single #
loop $-1 $-1 $353 $141 #
plane-surface $-1 52.693258461256747 0 0 -1 0 0 0 0 1 forward_v I I I I #
coedge $-1 $354 $355 $356 $357 reversed $142 $-1 #
coedge $-1 $358 $144 $146 $245 forward $89 $-1 #
coedge $-1 $144 $358 $354 $359 forward $89 $-1 #
coedge $-1 $356 $147 $144 $242 forward $247 $-1 #
edge $-1 $249 -0.28182797882140687 $360 14.613676916482337 $241 $361 forward 7 unknown #
coedge $-1 $362 $363 $145 $244 forward $236 $-1 #
edge $-1 $364 -71.728456669751637 $248 -63.859209352636732 $243 $365 forward 7 unknown #
edge $-1 $249 92.310659865513259 $364 105.38651692251349 $146 $366 forward 7 unknown #
coedge $-1 $147 $356 $362 $367 forward $247 $-1 #
loop $-1 $-1 $356 $235 #
vertex $-1 $244 $368 #
vertex $-1 $148 $369 #
straight-curve $-1 15.975517148175335 -6.8840964900090578 12.000937991645301 -1 0 0 I I #
coedge $-1 $251 $251 $-1 $370 reversed $151 $-1 #
edge $-1 $371 0 $371 6.2831853071796004 $152 $372 forward 7 unknown #
vertex $-1 $155 $373 #
ellipse-curve $-1 47.471836613781107 -18.800500406252052 8.0663143330878455 0.6018150307709319 0 0.79863550430605224 0.79863550430605224 0 -0.6018150307709319 1 I I #
coedge $-1 $255 $255 $-1 $374 reversed $158 $-1 #
edge $-1 $375 0 $375 6.2831853071796004 $159 $376 forward 7 unknown #
vertex $-1 $162 $377 #
ellipse-curve $-1 47.471836613781107 -14.331848937660929 8.0663143330878455 0.6018150307709319 0 0.79863550430605224 0.79863550430605224 0 -0.6018150307709319 1 I I #
coedge $-1 $259 $259 $-1 $378 reversed $165 $-1 #
edge $-1 $379 0 $379 6.2831853071796004 $166 $380 forward 7 unknown #
vertex $-1 $169 $381 #
ellipse-curve $-1 47.471836613781107 -9.8631974690698065 8.0663143330878455 0.6018150307709319 0 0.79863550430605224 0.79863550430605224 0 -0.6018150307709319 1 I I #
face $-1 $-1 $275 $36 $-1 $382 forward single #
loop $-1 $-1 $383 $170 #
plane-surface $-1 -52.693258461256747 0 0 1 0 0 0 0 -1 forward_v I I I I #
coedge $-1 $384 $385 $386 $387 reversed $171 $-1 #
coedge $-1 $388 $173 $175 $273 forward $108 $-1 #
coedge $-1 $173 $388 $384 $389 forward $108 $-1 #
coedge $-1 $386 $176 $173 $270 forward $275 $-1 #
edge $-1 $277 -13.502693543079296 $390 -3.3163399757134666 $269 $391 forward 7 unknown #
coedge $-1 $392 $393 $174 $272 forward $264 $-1 #
edge $-1 $394 -29.562556769618798 $276 -18.883726830397894 $271 $395 forward 7 unknown #
edge $-1 $277 -13.036444098059659 $394 -2.4702845980661902e-014 $175 $396 forward 7 unknown #
coedge $-1 $176 $386 $392 $397 forward $275 $-1 #
loop $-1 $-1 $386 $263 #
vertex $-1 $272 $398 #
vertex $-1 $177 $399 #
straight-curve $-1 -69.510420048012961 -21.912210302475678 12.000937991645294 1 0 0 I I #
coedge $-1 $279 $279 $-1 $400 reversed $180 $-1 #
edge $-1 $401 0 $401 6.2831853071796004 $181 $402 forward 7 unknown #
vertex $-1 $184 $403 #
ellipse-curve $-1 -48.954559962747105 -16.819033518792764 6.6615230220348352 -0.81915205242281985 0 0.57357642473473569 0.86036463710210354 0 1.2287280786342298 1 I I #
face $-1 $-1 $404 $38 $-1 $405 reversed single #
loop $-1 $-1 $191 $185 #
plane-surface $-1 0 0 12.000937991645294 0 0 1 1 0 0 forward_v I I I I #
coedge $-1 $406 $407 $408 $409 reversed $186 $-1 #
coedge $-1 $410 $188 $190 $293 forward $117 $-1 #
coedge $-1 $188 $410 $406 $411 forward $117 $-1 #
coedge $-1 $408 $191 $188 $290 forward $284 $-1 #
edge $-1 $296 9.4477069859473879 $412 19.634060553313216 $289 $413 forward 7 unknown #
coedge $-1 $414 $415 $189 $292 forward $404 $-1 #
edge $-1 $416 -29.562556769618798 $295 -18.883726830397894 $291 $417 forward 7 unknown #
edge $-1 $296 -13.036444098059659 $416 -2.4702845980661902e-014 $190 $418 forward 7 unknown #
coedge $-1 $191 $408 $414 $419 forward $284 $-1 #
vertex $-1 $292 $420 #
vertex $-1 $192 $421 #
straight-curve $-1 -69.510420048012961 23.98859075557769 12.000937991645294 1 0 0 I I #
coedge $-1 $298 $298 $-1 $422 reversed $195 $-1 #
edge $-1 $423 0 $423 6.2831853071796004 $196 $424 forward 7 unknown #
vertex $-1 $199 $425 #
ellipse-curve $-1 -48.954559962747105 29.081767539260603 6.6615230220348352 -0.81915205242281985 0 0.57357642473473569 0.86036463710210354 0 1.2287280786342298 1 I I #
face $-1 $-1 $215 $30 $-1 $426 reversed single #
loop $-1 $-1 $318 $200 #
plane-surface $-1 0 36.336268854680831 0 0 -1 0 0 0 -1 forward_v I I I I #
coedge $-1 $427 $316 $319 $428 forward $201 $-1 #
coedge $-1 $322 $203 $204 $310 reversed $126 $-1 #
coedge $-1 $316 $427 $203 $308 reversed $201 $-1 #
edge $-1 $323 -12.000937991645294 $429 12.000937991645294 $307 $430 forward 7 unknown #
coedge $-1 $205 $204 $427 $431 forward $81 $-1 #
edge $-1 $314 -52.693258461256747 $429 52.693258461256747 $306 $432 forward 7 unknown #
coedge $-1 $319 $318 $205 $312 reversed $303 $-1 #
edge $-1 $433 -52.693258461256747 $313 52.693258461256747 $311 $434 forward 7 unknown #
vertex $-1 $207 $435 #
vertex $-1 $325 $436 #
straight-curve $-1 52.693258461256747 0 -12.000937991645294 0 -1 0 I I #
coedge $-1 $305 $307 $208 $317 reversed $201 $-1 #
edge $-1 $320 -36.336268854680831 $323 36.336268854680831 $316 $437 forward 7 unknown #
coedge $-1 $311 $209 $214 $326 forward $303 $-1 #
coedge $-1 $209 $311 $305 $428 reversed $303 $-1 #
vertex $-1 $210 $438 #
straight-curve $-1 0 36.336268854680831 12.000937991645294 -1 0 0 I I #
coedge $-1 $211 $306 $213 $325 reversed $126 $-1 #
vertex $-1 $317 $439 #
straight-curve $-1 0 -36.336268854680831 12.000937991645294 1 0 0 I I #
edge $-1 $216 -12.000937991645294 $314 12.000937991645294 $213 $440 forward 7 unknown #
edge $-1 $217 -12.000937991645294 $313 12.000937991645294 $214 $441 forward 7 unknown #
point $-1 52.693258461256747 -36.336268854680831 12.000937991645294 #
point $-1 52.693258461256747 36.336268854680831 12.000937991645294 #
face $-1 $-1 $339 $31 $-1 $442 reversed single #
loop $-1 $-1 $335 $219 #
plane-surface $-1 0 0 -12.000937991645294 0 0 1 1 0 0 forward_v I I I I #
coedge $-1 $443 $444 $227 $343 forward $220 $-1 #
coedge $-1 $222 $347 $337 $445 forward $134 $-1 #
edge $-1 $341 -21.233817932457374 $232 -8.9710839119895418 $222 $446 forward 7 unknown #
coedge $-1 $447 $228 $223 $336 forward $330 $-1 #
edge $-1 $233 8.9710839119895418 $340 21.233817932457374 $335 $448 forward 7 unknown #
coedge $-1 $449 $225 $333 $445 reversed $339 $-1 #
coedge $-1 $225 $449 $447 $450 reversed $339 $-1 #
loop $-1 $-1 $225 $329 #
vertex $-1 $450 $451 #
vertex $-1 $226 $452 #
straight-curve $-1 -49.155203064458391 -36.336268854680831 0 0 0 1 I I #
edge $-1 $348 -12.000937991645294 $345 12.000937991645294 $332 $453 forward 7 unknown #
coedge $-1 $228 $447 $443 $454 forward $330 $-1 #
vertex $-1 $229 $455 #
straight-curve $-1 -25.462115381428784 -24.073534834213 -12.000937991645294 1 0 0 I I #
coedge $-1 $333 $230 $444 $456 forward $134 $-1 #
vertex $-1 $456 $457 #
straight-curve $-1 -25.462115381428784 -24.073534834213 12.000937991645294 -1 0 0 I I #
point $-1 -49.155203064458391 -24.073534834213 12.000937991645294 #
point $-1 -49.155203064458391 -24.073534834213 -12.000937991645294 #
plane-surface $-1 0 0 12.000937991645294 0 0 1 1 0 0 forward_v I I I I #
coedge $-1 $363 $362 $355 $458 forward $236 $-1 #
coedge $-1 $355 $238 $240 $359 reversed $142 $-1 #
coedge $-1 $238 $354 $353 $458 reversed $142 $-1 #
coedge $-1 $246 $241 $238 $357 forward $247 $-1 #
edge $-1 $360 26.274897618130169 $459 36.717741313081412 $356 $460 forward 7 unknown #
coedge $-1 $240 $239 $363 $461 reversed $89 $-1 #
edge $-1 $462 -105.38651692251349 $360 -92.310659865513259 $354 $463 forward 7 unknown #
vertex $-1 $242 $464 #
straight-curve $-1 42.250414766305511 -7.1659244688304646 12.000937991645294 0 -1 0 I I #
coedge $-1 $353 $243 $246 $367 reversed $236 $-1 #
coedge $-1 $243 $353 $358 $461 forward $236 $-1 #
vertex $-1 $244 $465 #
straight-curve $-1 52.693258461256747 -6.8840964900090578 75.860147344282026 0 0 1 I I #
straight-curve $-1 -31.472155628213123 -6.8840964900090578 67.554880599094176 0.79863550430605224 0 -0.6018150307709319 I I #
edge $-1 $459 -21.779601385312802 $248 -6.8840964900090578 $362 $466 forward 7 unknown #
point $-1 52.693258461256747 -6.8840964900090578 12.000937991645294 #
point $-1 42.250414766305504 -6.8840964900090578 12.000937991645294 #
edge $-1 $467 1 $467 0 $251 $-1 forward 7 unknown #
vertex $-1 $252 $468 #
ellipse-curve $-1 46.808365250166226 -18.800500406252052 7.1858581131851498 0.6018150307709319 0 0.79863550430605224 0.79863550430605224 0 -0.6018150307709319 1 I I #
point $-1 48.27047211808717 -18.800500406252052 7.4644993023169199 #
edge $-1 $469 1 $469 0 $255 $-1 forward 7 unknown #
vertex $-1 $256 $470 #
ellipse-curve $-1 46.808365250166226 -14.331848937660929 7.1858581131851498 0.6018150307709319 0 0.79863550430605224 0.79863550430605224 0 -0.6018150307709319 1 I I #
point $-1 48.27047211808717 -14.331848937660929 7.4644993023169199 #
edge $-1 $471 1 $471 0 $259 $-1 forward 7 unknown #
vertex $-1 $260 $472 #
ellipse-curve $-1 46.808365250166226 -9.8631974690698065 7.1858581131851498 0.6018150307709319 0 0.79863550430605224 0.79863550430605224 0 -0.6018150307709319 1 I I #
point $-1 48.27047211808717 -9.8631974690698065 7.4644993023169199 #
plane-surface $-1 0 0 12.000937991645294 0 0 1 1 0 0 forward_v I I I I #
coedge $-1 $393 $392 $385 $473 forward $264 $-1 #
coedge $-1 $385 $266 $268 $389 reversed $171 $-1 #
coedge $-1 $266 $384 $383 $473 reversed $171 $-1 #
coedge $-1 $274 $269 $266 $387 forward $275 $-1 #
edge $-1 $390 -24.294558583775505 $474 -16.817161586756214 $386 $475 forward 7 unknown #
coedge $-1 $268 $267 $393 $476 reversed $108 $-1 #
edge $-1 $477 2.4702845980661902e-014 $390 13.036444098059659 $384 $478 forward 7 unknown #
vertex $-1 $270 $479 #
straight-curve $-1 -45.215861464237456 -8.4095167593963822 12.000937991645294 0 1 0 I I #
coedge $-1 $383 $271 $274 $397 reversed $264 $-1 #
coedge $-1 $271 $383 $388 $476 forward $264 $-1 #
vertex $-1 $272 $480 #
straight-curve $-1 -52.693258461256747 -21.912210302475678 30.884664822043188 0 0 1 I I #
straight-curve $-1 -52.693258461256761 -21.912210302475678 1.3221080524243689 -0.57357642473473569 0 -0.81915205242281985 I I #
edge $-1 $474 11.725856735109849 $276 21.912210302475678 $392 $481 forward 7 unknown #
point $-1 -52.693258461256747 -21.912210302475678 12.000937991645294 #
point $-1 -45.215861464237456 -21.912210302475678 12.000937991645294 #
edge $-1 $482 1 $482 0 $279 $-1 forward 7 unknown #
vertex $-1 $280 $483 #
ellipse-curve $-1 -47.152997931379424 -16.819033518792764 5.4000557451923799 -0.81915205242281985 0 0.57357642473473569 0.86036463710210354 0 1.2287280786342298 1 I I #
point $-1 -48.094195325644982 -16.819033518792764 7.8902511006690528 #
loop $-1 $-1 $291 $283 #
plane-surface $-1 -52.693258461256747 0 0 1 0 0 0 0 -1 forward_v I I I I #
coedge $-1 $407 $286 $288 $411 reversed $186 $-1 #
coedge $-1 $286 $406 $484 $485 reversed $186 $-1 #
coedge $-1 $294 $289 $286 $409 forward $284 $-1 #
edge $-1 $412 -24.294558583775505 $486 -16.817161586756214 $408 $487 forward 7 unknown #
coedge $-1 $288 $287 $415 $488 reversed $117 $-1 #
edge $-1 $489 2.4702845980661902e-014 $412 13.036444098059659 $406 $490 forward 7 unknown #
vertex $-1 $290 $491 #
straight-curve $-1 -45.215861464237456 14.540883769630302 12.000937991645294 0 1 0 I I #
coedge $-1 $484 $291 $294 $419 reversed $404 $-1 #
coedge $-1 $291 $484 $410 $488 forward $404 $-1 #
vertex $-1 $292 $492 #
straight-curve $-1 -52.693258461256747 23.98859075557769 30.884664822043188 0 0 1 I I #
straight-curve $-1 -52.693258461256761 23.98859075557769 1.3221080524243689 -0.57357642473473569 0 -0.81915205242281985 I I #
edge $-1 $486 -34.174944322943517 $295 -23.98859075557769 $414 $493 forward 7 unknown #
point $-1 -52.693258461256747 23.98859075557769 12.000937991645294 #
point $-1 -45.215861464237456 23.98859075557769 12.000937991645294 #
edge $-1 $494 1 $494 0 $298 $-1 forward 7 unknown #
vertex $-1 $299 $495 #
ellipse-curve $-1 -47.152997931379424 29.081767539260603 5.4000557451923799 -0.81915205242281985 0 0.57357642473473569 0.86036463710210354 0 1.2287280786342298 1 I I #
point $-1 -48.094195325644982 29.081767539260603 7.8902511006690528 #
plane-surface $-1 52.693258461256747 0 0 -1 0 0 0 0 1 forward_v I I I I #
coedge $-1 $307 $305 $309 $431 reversed $201 $-1 #
edge $-1 $320 -12.000937991645294 $433 12.000937991645294 $319 $496 forward 7 unknown #
vertex $-1 $431 $497 #
straight-curve $-1 -52.693258461256747 -36.336268854680831 0 0 0 -1 I I #
edge $-1 $429 -36.336268854680831 $433 36.336268854680831 $427 $498 forward 7 unknown #
straight-curve $-1 0 -36.336268854680831 -12.000937991645294 -1 0 0 I I #
vertex $-1 $312 $499 #
straight-curve $-1 0 36.336268854680831 -12.000937991645294 1 0 0 I I #
point $-1 52.693258461256747 36.336268854680831 -12.000937991645294 #
point $-1 52.693258461256747 -36.336268854680831 -12.000937991645294 #
straight-curve $-1 -52.693258461256747 0 12.000937991645294 0 -1 0 I I #
point $-1 -52.693258461256747 36.336268854680831 12.000937991645294 #
point $-1 -52.693258461256747 -36.336268854680831 12.000937991645294 #
straight-curve $-1 52.693258461256747 -36.336268854680831 0 0 0 -1 I I #
straight-curve $-1 52.693258461256747 36.336268854680831 0 0 0 -1 I I #
plane-surface $-1 0 -36.336268854680831 0 0 1 0 0 0 1 forward_v I I I I #
coedge $-1 $500 $332 $344 $454 reversed $220 $-1 #
coedge $-1 $332 $500 $347 $456 reversed $220 $-1 #
edge $-1 $501 -52.693258461256747 $341 -49.155203064458391 $337 $502 forward 7 unknown #
straight-curve $-1 -49.155203064458391 -15.102450922223458 12.000937991645294 0 1 0 I I #
coedge $-1 $344 $335 $338 $450 forward $330 $-1 #
straight-curve $-1 -49.155203064458391 -15.102450922223458 -12.000937991645294 0 -1 0 I I #
coedge $-1 $338 $337 $500 $503 forward $339 $-1 #
edge $-1 $340 49.155203064458391 $504 52.693258461256747 $338 $505 forward 7 unknown #
point $-1 -49.155203064458391 -36.336268854680831 -12.000937991645294 #
point $-1 -49.155203064458391 -36.336268854680831 12.000937991645294 #
straight-curve $-1 -52.693258461256747 -24.073534834213 0 0 0 -1 I I #
edge $-1 $504 -36.336268854680831 $345 -24.073534834213 $443 $506 forward 7 unknown #
point $-1 -52.693258461256747 -24.073534834213 -12.000937991645294 #
edge $-1 $348 24.073534834213 $501 36.336268854680831 $444 $507 forward 7 unknown #
point $-1 -52.693258461256747 -24.073534834213 12.000937991645294 #
edge $-1 $459 63.859209352636732 $462 71.728456669751637 $353 $508 forward 7 unknown #
vertex $-1 $367 $509 #
straight-curve $-1 15.975517148175335 -21.779601385312802 12.000937991645301 1 0 0 I I #
edge $-1 $462 -14.613676916482337 $364 0.28182797882140687 $363 $510 forward 7 unknown #
vertex $-1 $461 $511 #
straight-curve $-1 -31.472155628213123 -21.779601385312802 67.554880599094176 -0.79863550430605224 0 0.6018150307709319 I I #
point $-1 42.250414766305504 -21.779601385312802 12.000937991645294 #
point $-1 52.69325846125674 -6.8840964900090578 4.1316906745303896 #
straight-curve $-1 52.693258461256747 0 12.000937991645294 0 1 0 I I #
vertex $-1 $370 $512 #
point $-1 47.607000754472274 -18.800500406252052 6.584043082414218 #
vertex $-1 $374 $513 #
point $-1 47.607000754472274 -14.331848937660929 6.584043082414218 #
vertex $-1 $378 $514 #
point $-1 47.607000754472274 -9.8631974690698065 6.584043082414218 #
edge $-1 $474 18.883726830397894 $477 29.562556769618798 $383 $515 forward 7 unknown #
vertex $-1 $397 $516 #
straight-curve $-1 -69.510420048012961 -11.725856735109849 12.000937991645294 -1 0 0 I I #
edge $-1 $477 3.3163399757134666 $394 13.502693543079296 $393 $517 forward 7 unknown #
vertex $-1 $476 $518 #
straight-curve $-1 -52.693258461256761 -11.725856735109849 1.3221080524243689 0.57357642473473569 0 0.81915205242281985 I I #
point $-1 -45.215861464237456 -11.725856735109849 12.000937991645294 #
point $-1 -52.693258461256747 -21.912210302475678 1.3221080524243891 #
straight-curve $-1 -52.693258461256747 0 12.000937991645294 0 -1 0 I I #
vertex $-1 $400 $519 #
point $-1 -46.292633294277316 -16.819033518792764 6.6287838238266099 #
coedge $-1 $415 $414 $407 $485 forward $404 $-1 #
edge $-1 $486 18.883726830397894 $489 29.562556769618798 $484 $520 forward 7 unknown #
vertex $-1 $419 $521 #
straight-curve $-1 -69.510420048012961 34.174944322943517 12.000937991645294 -1 0 0 I I #
edge $-1 $489 -19.634060553313216 $416 -9.4477069859473879 $415 $522 forward 7 unknown #
vertex $-1 $488 $523 #
straight-curve $-1 -52.693258461256761 34.174944322943517 1.3221080524243689 0.57357642473473569 0 0.81915205242281985 I I #
point $-1 -45.215861464237456 34.174944322943517 12.000937991645294 #
point $-1 -52.693258461256747 23.98859075557769 1.3221080524243891 #
straight-curve $-1 -52.693258461256747 0 12.000937991645294 0 -1 0 I I #
vertex $-1 $422 $524 #
point $-1 -46.292633294277316 29.081767539260603 6.6287838238266099 #
straight-curve $-1 -52.693258461256747 36.336268854680831 0 0 0 -1 I I #
point $-1 -52.693258461256747 -36.336268854680831 -12.000937991645294 #
straight-curve $-1 -52.693258461256747 0 -12.000937991645294 0 1 0 I I #
point $-1 -52.693258461256747 36.336268854680831 -12.000937991645294 #
coedge $-1 $444 $443 $449 $503 reversed $220 $-1 #
vertex $-1 $456 $525 #
straight-curve $-1 0 -36.336268854680831 12.000937991645294 1 0 0 I I #
edge $-1 $501 -12.000937991645294 $504 12.000937991645294 $500 $526 forward 7 unknown #
vertex $-1 $454 $527 #
straight-curve $-1 0 -36.336268854680831 -12.000937991645294 -1 0 0 I I #
straight-curve $-1 -52.693258461256747 0 -12.000937991645294 0 1 0 I I #
straight-curve $-1 -52.693258461256747 0 12.000937991645294 0 -1 0 I I #
straight-curve $-1 52.693258461256747 -21.779601385312802 75.860147344282026 0 0 -1 I I #
point $-1 52.693258461256747 -21.779601385312802 12.000937991645294 #
straight-curve $-1 52.69325846125674 -7.1659244688304646 4.1316906745303896 0 1 0 I I #
point $-1 52.69325846125674 -21.779601385312802 4.1316906745303896 #
point $-1 46.20655021939529 -18.800500406252052 6.3872226088790978 #
point $-1 46.20655021939529 -14.331848937660929 6.3872226088790978 #
point $-1 46.20655021939529 -9.8631974690698065 6.3872226088790978 #
straight-curve $-1 -52.693258461256747 -11.725856735109849 30.884664822043188 0 0 -1 I I #
point $-1 -52.693258461256747 -11.725856735109849 12.000937991645294 #
straight-curve $-1 -52.693258461256747 -8.4095167593963822 1.3221080524243936 0 -1 0 I I #
point $-1 -52.693258461256747 -11.725856735109849 1.3221080524243891 #
point $-1 -45.924269852745191 -16.819033518792764 4.5396911080902766 #
straight-curve $-1 -52.693258461256747 34.174944322943517 30.884664822043188 0 0 -1 I I #
point $-1 -52.693258461256747 34.174944322943517 12.000937991645294 #
straight-curve $-1 -52.693258461256747 14.540883769630302 1.3221080524243936 0 -1 0 I I #
point $-1 -52.693258461256747 34.174944322943517 1.3221080524243891 #
point $-1 -45.924269852745191 29.081767539260603 4.5396911080902766 #
point $-1 -52.693258461256747 -36.336268854680831 12.000937991645294 #
straight-curve $-1 -52.693258461256747 -36.336268854680831 0 0 0 -1 I I #
point $-1 -52.693258461256747 -36.336268854680831 -12.000937991645294 #
End-of-ACIS-data 