500 0 6 0           
7 Unknown 11 ACIS 5.0 NT 24 Thu Mar 25 16:51:07 1999 
-1 9.9999999999999995e-007 1e-010 
body $-1 $6 $-1 $7 #
body $-1 $8 $-1 $9 #
body $-1 $10 $-1 $11 #
body $-1 $12 $-1 $13 #
body $-1 $14 $-1 $15 #
body $-1 $16 $-1 $17 #
lump $-1 $-1 $18 $0 #
transform $-1 1 0 0 0 1 0 0 0 1 77.862483596301161 44.57126391844907 20.270967846256763 1 rotate no_reflect no_shear #
lump $-1 $-1 $19 $1 #
transform $-1 1 0 0 0 1 0 0 0 1 77.862483596301161 44.57126391844907 20.270967846256763 1 rotate no_reflect no_shear #
lump $-1 $-1 $20 $2 #
transform $-1 1 0 0 0 1 0 0 0 1 77.862483596301161 44.57126391844907 20.270967846256763 1 rotate no_reflect no_shear #
lump $-1 $-1 $21 $3 #
transform $-1 1 0 0 0 1 0 0 0 1 77.862483596301161 44.57126391844907 20.270967846256763 1 rotate no_reflect no_shear #
lump $-1 $-1 $22 $4 #
transform $-1 1 0 0 0 1 0 0 0 1 77.862483596301161 44.57126391844907 20.270967846256763 1 rotate no_reflect no_shear #
lump $-1 $-1 $23 $5 #
transform $-1 1 0 0 0 1 0 0 0 1 77.862483596301161 44.57126391844907 20.270967846256763 1 rotate no_reflect no_shear #
shell $-1 $-1 $-1 $24 $-1 $6 #
shell $-1 $-1 $-1 $25 $-1 $8 #
shell $-1 $-1 $-1 $26 $-1 $10 #
shell $-1 $-1 $-1 $27 $-1 $12 #
shell $-1 $-1 $-1 $28 $-1 $14 #
shell $-1 $-1 $-1 $29 $-1 $16 #
face $-1 $30 $31 $18 $-1 $32 forward single #
face $-1 $33 $34 $19 $-1 $35 reversed single #
face $-1 $36 $37 $20 $-1 $38 reversed single #
face $-1 $39 $40 $21 $-1 $41 forward single #
face $-1 $42 $43 $22 $-1 $44 forward single #
face $-1 $45 $46 $23 $-1 $47 forward single #
face $-1 $48 $49 $18 $-1 $50 reversed single #
loop $-1 $-1 $51 $24 #
plane-surface $-1 0 0 20.270967846256763 0 0 1 1 0 0 forward_v I I I I #
face $-1 $52 $53 $19 $-1 $54 reversed single #
loop $-1 $-1 $55 $25 #
plane-surface $-1 0 -33.895794125565033 12.236446290835911 0 0 1 1 0 0 forward_v I I I I #
face $-1 $56 $57 $20 $-1 $58 reversed single #
loop $-1 $-1 $59 $26 #
plane-surface $-1 54.704769008827384 -24.705491019953811 67.377758797449999 0 0.62932039886446345 0.77714595512881146 1 0 0 forward_v I I I I #
face $-1 $60 $61 $21 $-1 $62 forward single #
loop $-1 $63 $64 $27 #
cone-surface $-1 40.810140256343146 36.703225101927984 12.915128863000094 0 -0.62932039886446345 -0.77714595512881146 2.5 0 0 1 I I 0 1 2.5 forward I I I I #
face $-1 $65 $66 $22 $-1 $67 forward single #
loop $-1 $68 $69 $28 #
cone-surface $-1 54.704769008827412 36.703225101927984 12.915128863000094 0 -0.62932039886446345 -0.77714595512881146 2.5 0 0 1 I I 0 1 2.5 forward I I I I #
face $-1 $70 $71 $23 $-1 $72 forward single #
loop $-1 $73 $74 $29 #
cone-surface $-1 68.599397761311678 36.703225101927984 12.915128863000094 0 -0.62932039886446345 -0.77714595512881146 2.5 0 0 1 I I 0 1 2.5 forward I I I I #
face $-1 $75 $76 $18 $-1 $77 reversed single #
loop $-1 $-1 $78 $30 #
plane-surface $-1 0 0 -20.270967846256763 0 0 1 1 0 0 forward_v I I I I #
coedge $-1 $79 $80 $81 $82 forward $31 $-1 #
face $-1 $83 $84 $19 $-1 $85 reversed single #
loop $-1 $-1 $86 $33 #
plane-surface $-1 0 -23.220324332680992 16.253707068546337 0 -1 0 0 0 -1 forward_v I I I I #
coedge $-1 $87 $88 $89 $90 reversed $34 $-1 #
face $-1 $91 $92 $20 $-1 $93 forward single #
loop $-1 $-1 $94 $36 #
plane-surface $-1 31.547054421353621 73.295407446850163 188.39878716374776 1 0 0 0 -0.62932039886446345 -0.77714595512881146 forward_v I I I I #
coedge $-1 $95 $96 $97 $98 reversed $37 $-1 #
face $-1 $-1 $99 $21 $-1 $100 forward single #
loop $-1 $101 $102 $39 #
cone-surface $-1 40.810140256343146 33.600892754487667 9.0840675472874288 0 -0.62932039886446345 -0.77714595512881146 1.25 0 0 1 I I -0.70710678118654746 0.70710678118654746 1.25 forward I I I I #
loop $-1 $-1 $103 $27 #
coedge $-1 $64 $64 $104 $105 reversed $40 $-1 #
face $-1 $-1 $106 $22 $-1 $107 forward single #
loop $-1 $108 $109 $42 #
cone-surface $-1 54.704769008827412 33.600892754487667 9.0840675472874288 0 -0.62932039886446345 -0.77714595512881146 1.25 0 0 1 I I -0.70710678118654746 0.70710678118654746 1.25 forward I I I I #
loop $-1 $-1 $110 $28 #
coedge $-1 $69 $69 $111 $112 reversed $43 $-1 #
face $-1 $-1 $113 $23 $-1 $114 forward single #
loop $-1 $115 $116 $45 #
cone-surface $-1 68.599397761311678 33.600892754487667 9.0840675472874288 0 -0.62932039886446345 -0.77714595512881146 1.25 0 0 1 I I -0.70710678118654746 0.70710678118654746 1.25 forward I I I I #
loop $-1 $-1 $117 $29 #
coedge $-1 $74 $74 $118 $119 reversed $46 $-1 #
face $-1 $120 $121 $18 $-1 $122 reversed single #
loop $-1 $-1 $123 $48 #
plane-surface $-1 0 -44.57126391844907 0 0 1 0 0 0 1 forward_v I I I I #
coedge $-1 $124 $125 $126 $127 forward $49 $-1 #
coedge $-1 $128 $51 $129 $130 forward $31 $-1 #
coedge $-1 $51 $128 $131 $132 forward $31 $-1 #
coedge $-1 $133 $134 $51 $82 reversed $135 $-1 #
edge $-1 $136 -44.57126391844907 $137 44.57126391844907 $81 $138 forward 7 unknown #
face $-1 $139 $140 $19 $-1 $141 reversed single #
loop $-1 $-1 $142 $52 #
plane-surface $-1 -77.862483596301161 0 0 1 0 0 0 0 -1 forward_v I I I I #
coedge $-1 $143 $144 $145 $146 reversed $53 $-1 #
coedge $-1 $147 $55 $148 $149 reversed $34 $-1 #
coedge $-1 $55 $147 $143 $150 forward $34 $-1 #
coedge $-1 $145 $151 $55 $90 forward $152 $-1 #
edge $-1 $153 -27.623366855666561 $154 -6.2724272698984755 $89 $155 forward 7 unknown #
face $-1 $156 $157 $20 $-1 $158 reversed single #
loop $-1 $-1 $159 $56 #
plane-surface $-1 0 0 20.270967846256763 0 0 1 1 0 0 forward_v I I I I #
coedge $-1 $160 $161 $162 $163 reversed $57 $-1 #
coedge $-1 $164 $59 $165 $166 reversed $37 $-1 #
coedge $-1 $59 $164 $160 $167 forward $37 $-1 #
coedge $-1 $162 $168 $59 $98 forward $169 $-1 #
edge $-1 $170 -50.510099091887469 $171 -4.1946699169399295 $97 $172 forward 7 unknown #
loop $-1 $-1 $104 $60 #
plane-surface $-1 54.704769008827384 -24.705491019953811 67.377758797449999 0 0.62932039886446345 0.77714595512881146 1 0 0 forward_v I I I I #
loop $-1 $-1 $173 $39 #
coedge $-1 $102 $102 $103 $174 reversed $61 $-1 #
coedge $-1 $103 $103 $102 $174 forward $63 $-1 #
coedge $-1 $104 $104 $64 $105 forward $99 $-1 #
edge $-1 $175 -1.8156496887406529e-015 $175 6.2831853071795987 $104 $176 forward 7 unknown #
loop $-1 $-1 $111 $65 #
plane-surface $-1 54.704769008827384 -24.705491019953811 67.377758797449999 0 0.62932039886446345 0.77714595512881146 1 0 0 forward_v I I I I #
loop $-1 $-1 $177 $42 #
coedge $-1 $109 $109 $110 $178 reversed $66 $-1 #
coedge $-1 $110 $110 $109 $178 forward $68 $-1 #
coedge $-1 $111 $111 $69 $112 forward $106 $-1 #
edge $-1 $179 -1.8156496887406529e-015 $179 6.2831853071795987 $111 $180 forward 7 unknown #
loop $-1 $-1 $118 $70 #
plane-surface $-1 54.704769008827384 -24.705491019953811 67.377758797449999 0 0.62932039886446345 0.77714595512881146 1 0 0 forward_v I I I I #
loop $-1 $-1 $181 $45 #
coedge $-1 $116 $116 $117 $182 reversed $71 $-1 #
coedge $-1 $117 $117 $116 $182 forward $73 $-1 #
coedge $-1 $118 $118 $74 $119 forward $113 $-1 #
edge $-1 $183 -1.8156496887406529e-015 $183 6.2831853071795987 $118 $184 forward 7 unknown #
face $-1 $185 $186 $18 $-1 $187 reversed single #
loop $-1 $-1 $188 $75 #
plane-surface $-1 -77.862483596301161 0 0 1 0 0 0 0 -1 forward_v I I I I #
coedge $-1 $189 $131 $190 $191 forward $76 $-1 #
coedge $-1 $192 $78 $189 $193 forward $49 $-1 #
coedge $-1 $78 $192 $194 $195 forward $49 $-1 #
coedge $-1 $134 $133 $78 $127 reversed $135 $-1 #
edge $-1 $196 -44.57126391844907 $197 44.57126391844907 $126 $198 forward 7 unknown #
coedge $-1 $80 $79 $199 $200 forward $31 $-1 #
coedge $-1 $201 $202 $79 $130 reversed $186 $-1 #
edge $-1 $137 -77.862483596301161 $203 77.862483596301161 $129 $204 forward 7 unknown #
coedge $-1 $123 $205 $80 $132 reversed $76 $-1 #
edge $-1 $206 -77.862483596301161 $136 77.862483596301161 $131 $207 forward 7 unknown #
coedge $-1 $126 $81 $205 $208 forward $135 $-1 #
coedge $-1 $81 $126 $201 $209 reversed $135 $-1 #
loop $-1 $-1 $133 $185 #
vertex $-1 $82 $210 #
vertex $-1 $82 $211 #
straight-curve $-1 77.862483596301161 0 20.270967846256763 0 1 0 I I #
face $-1 $212 $213 $19 $-1 $214 forward single #
loop $-1 $-1 $148 $83 #
plane-surface $-1 0 -44.57126391844907 0 0 1 0 0 0 1 forward_v I I I I #
coedge $-1 $215 $216 $217 $218 forward $84 $-1 #
coedge $-1 $217 $86 $88 $150 reversed $53 $-1 #
coedge $-1 $86 $217 $219 $220 reversed $53 $-1 #
coedge $-1 $221 $89 $86 $146 forward $152 $-1 #
edge $-1 $154 4.1095927565627424 $222 12.144114311983595 $145 $223 forward 7 unknown #
coedge $-1 $88 $87 $215 $224 reversed $34 $-1 #
coedge $-1 $225 $226 $87 $149 forward $140 $-1 #
edge $-1 $227 -77.862483596301161 $153 77.862483596301161 $148 $228 forward 7 unknown #
edge $-1 $229 -77.862483596301161 $154 77.862483596301161 $143 $230 forward 7 unknown #
coedge $-1 $89 $221 $225 $231 forward $152 $-1 #
loop $-1 $-1 $145 $212 #
vertex $-1 $149 $232 #
vertex $-1 $90 $233 #
straight-curve $-1 77.862483596301161 -16.947897062782516 12.236446290835911 0 1 0 I I #
face $-1 $-1 $169 $20 $-1 $234 reversed single #
loop $-1 $-1 $165 $91 #
plane-surface $-1 77.862483596301161 0 0 -1 0 0 0 0 1 forward_v I I I I #
coedge $-1 $235 $236 $161 $237 forward $92 $-1 #
coedge $-1 $161 $94 $96 $167 reversed $57 $-1 #
coedge $-1 $94 $160 $159 $237 reversed $57 $-1 #
coedge $-1 $238 $97 $94 $163 forward $169 $-1 #
edge $-1 $171 -82.920845958527167 $239 -73.928425735617111 $162 $240 forward 7 unknown #
coedge $-1 $96 $95 $235 $241 reversed $37 $-1 #
coedge $-1 $242 $243 $95 $166 forward $157 $-1 #
edge $-1 $244 44.052445609444362 $170 58.341542608581605 $165 $245 forward 7 unknown #
edge $-1 $246 74.853430837760925 $171 89.142527836898168 $160 $247 forward 7 unknown #
coedge $-1 $97 $238 $242 $248 forward $169 $-1 #
loop $-1 $-1 $162 $156 #
vertex $-1 $166 $249 #
vertex $-1 $98 $250 #
straight-curve $-1 27.352384504413692 44.571263918449077 11.278547623346714 -1 0 0 I I #
coedge $-1 $173 $173 $-1 $251 reversed $101 $-1 #
edge $-1 $252 0 $252 6.2831853071796004 $102 $253 forward 7 unknown #
vertex $-1 $105 $254 #
ellipse-curve $-1 40.810140256343146 39.018906950787709 15.77475773480173 0 0.62932039886446345 0.77714595512881146 2.5 0 0 1 I I #
coedge $-1 $177 $177 $-1 $255 reversed $108 $-1 #
edge $-1 $256 0 $256 6.2831853071796004 $109 $257 forward 7 unknown #
vertex $-1 $112 $258 #
ellipse-curve $-1 54.704769008827412 39.018906950787709 15.77475773480173 0 0.62932039886446345 0.77714595512881146 2.5 0 0 1 I I #
coedge $-1 $181 $181 $-1 $259 reversed $115 $-1 #
edge $-1 $260 0 $260 6.2831853071796004 $116 $261 forward 7 unknown #
vertex $-1 $119 $262 #
ellipse-curve $-1 68.599397761311678 39.018906950787709 15.77475773480173 0 0.62932039886446345 0.77714595512881146 2.5 0 0 1 I I #
face $-1 $-1 $135 $18 $-1 $263 reversed single #
loop $-1 $-1 $201 $120 #
plane-surface $-1 0 44.57126391844907 0 0 -1 0 0 0 -1 forward_v I I I I #
coedge $-1 $264 $199 $202 $265 forward $121 $-1 #
coedge $-1 $205 $123 $124 $193 reversed $76 $-1 #
coedge $-1 $199 $264 $123 $191 reversed $121 $-1 #
edge $-1 $206 -20.270967846256763 $266 20.270967846256763 $190 $267 forward 7 unknown #
coedge $-1 $125 $124 $264 $268 forward $49 $-1 #
edge $-1 $197 -77.862483596301161 $266 77.862483596301161 $189 $269 forward 7 unknown #
coedge $-1 $202 $201 $125 $195 reversed $186 $-1 #
edge $-1 $270 -77.862483596301161 $196 77.862483596301161 $194 $271 forward 7 unknown #
vertex $-1 $127 $272 #
vertex $-1 $208 $273 #
straight-curve $-1 77.862483596301161 0 -20.270967846256763 0 -1 0 I I #
coedge $-1 $188 $190 $128 $200 reversed $121 $-1 #
edge $-1 $203 -44.57126391844907 $206 44.57126391844907 $199 $274 forward 7 unknown #
coedge $-1 $194 $129 $134 $209 forward $186 $-1 #
coedge $-1 $129 $194 $188 $265 reversed $186 $-1 #
vertex $-1 $130 $275 #
straight-curve $-1 0 44.57126391844907 20.270967846256763 -1 0 0 I I #
coedge $-1 $131 $189 $133 $208 reversed $76 $-1 #
vertex $-1 $200 $276 #
straight-curve $-1 0 -44.57126391844907 20.270967846256763 1 0 0 I I #
edge $-1 $136 -20.270967846256763 $197 20.270967846256763 $133 $277 forward 7 unknown #
edge $-1 $137 -20.270967846256763 $196 20.270967846256763 $134 $278 forward 7 unknown #
point $-1 77.862483596301161 -44.57126391844907 20.270967846256763 #
point $-1 77.862483596301161 44.57126391844907 20.270967846256763 #
face $-1 $-1 $152 $19 $-1 $279 reversed single #
loop $-1 $-1 $219 $139 #
plane-surface $-1 0 0 20.270967846256763 0 0 1 1 0 0 forward_v I I I I #
coedge $-1 $280 $142 $147 $224 forward $84 $-1 #
coedge $-1 $142 $280 $281 $282 reversed $84 $-1 #
coedge $-1 $144 $143 $142 $218 reversed $53 $-1 #
edge $-1 $283 -12.144114311983595 $229 -4.1095927565627424 $142 $284 forward 7 unknown #
coedge $-1 $281 $285 $144 $220 forward $213 $-1 #
edge $-1 $222 -77.862483596301161 $283 77.862483596301161 $219 $286 forward 7 unknown #
coedge $-1 $151 $145 $285 $287 reversed $152 $-1 #
vertex $-1 $146 $288 #
straight-curve $-1 77.862483596301161 -23.220324332680992 8.1268535342731685 0 0 1 I I #
edge $-1 $229 6.2724272698984755 $227 27.623366855666561 $215 $289 forward 7 unknown #
coedge $-1 $290 $148 $151 $231 reversed $140 $-1 #
coedge $-1 $148 $290 $280 $291 forward $140 $-1 #
vertex $-1 $149 $292 #
straight-curve $-1 0 -44.57126391844907 12.236446290835911 1 0 0 I I #
vertex $-1 $224 $293 #
straight-curve $-1 0 -23.220324332680992 12.236446290835911 1 0 0 I I #
edge $-1 $294 -20.270967846256763 $153 -12.236446290835911 $151 $295 forward 7 unknown #
point $-1 77.862483596301161 -44.571263918449077 12.236446290835911 #
point $-1 77.862483596301161 -23.220324332680992 12.236446290835911 #
plane-surface $-1 0 44.57126391844907 0 0 -1 0 0 0 -1 forward_v I I I I #
coedge $-1 $296 $159 $164 $241 forward $92 $-1 #
coedge $-1 $159 $296 $238 $297 forward $92 $-1 #
edge $-1 $239 -7.9235601950239882 $246 3.1811537402987469 $159 $298 forward 7 unknown #
coedge $-1 $168 $162 $236 $297 reversed $169 $-1 #
vertex $-1 $237 $299 #
straight-curve $-1 31.547054421353621 44.57126391844907 94.199393581873878 0 0 1 I I #
edge $-1 $246 4.1946699169399295 $244 50.510099091887454 $235 $300 forward 7 unknown #
coedge $-1 $243 $165 $168 $248 reversed $157 $-1 #
coedge $-1 $165 $242 $296 $301 reversed $157 $-1 #
vertex $-1 $301 $302 #
straight-curve $-1 77.862483596301161 -0.76862993578532546 47.994070488147372 0 0.77714595512881146 -0.62932039886446345 I I #
vertex $-1 $241 $303 #
straight-curve $-1 31.547054421353621 -24.705491019953811 67.377758797449999 0 0.77714595512881146 -0.62932039886446345 I I #
edge $-1 $304 -20.270967846256763 $170 -11.278547623346707 $242 $305 forward 7 unknown #
point $-1 77.862483596301161 44.57126391844907 11.278547623346707 #
point $-1 31.547054421353621 44.571263918449077 11.278547623346711 #
edge $-1 $306 1 $306 0 $173 $-1 forward 7 unknown #
vertex $-1 $174 $307 #
ellipse-curve $-1 40.810140256343146 34.387543253068245 10.055499991198444 0 0.62932039886446345 0.77714595512881146 2.5 0 0 1 I I #
point $-1 43.310140256343146 39.018906950787716 15.774757734801746 #
edge $-1 $308 1 $308 0 $177 $-1 forward 7 unknown #
vertex $-1 $178 $309 #
ellipse-curve $-1 54.704769008827412 34.387543253068245 10.055499991198444 0 0.62932039886446345 0.77714595512881146 2.5 0 0 1 I I #
point $-1 57.204769008827412 39.018906950787716 15.774757734801746 #
edge $-1 $310 1 $310 0 $181 $-1 forward 7 unknown #
vertex $-1 $182 $311 #
ellipse-curve $-1 68.599397761311678 34.387543253068245 10.055499991198444 0 0.62932039886446345 0.77714595512881146 2.5 0 0 1 I I #
point $-1 71.099397761311678 39.018906950787716 15.774757734801746 #
plane-surface $-1 77.862483596301161 0 0 -1 0 0 0 0 1 forward_v I I I I #
coedge $-1 $190 $188 $192 $268 reversed $121 $-1 #
edge $-1 $203 -20.270967846256763 $270 20.270967846256763 $202 $312 forward 7 unknown #
vertex $-1 $268 $313 #
straight-curve $-1 -77.862483596301161 -44.57126391844907 0 0 0 -1 I I #
edge $-1 $266 -44.57126391844907 $270 44.57126391844907 $264 $314 forward 7 unknown #
straight-curve $-1 0 -44.57126391844907 -20.270967846256763 -1 0 0 I I #
vertex $-1 $195 $315 #
straight-curve $-1 0 44.57126391844907 -20.270967846256763 1 0 0 I I #
point $-1 77.862483596301161 44.57126391844907 -20.270967846256763 #
point $-1 77.862483596301161 -44.57126391844907 -20.270967846256763 #
straight-curve $-1 -77.862483596301161 0 20.270967846256763 0 -1 0 I I #
point $-1 -77.862483596301161 44.57126391844907 20.270967846256763 #
point $-1 -77.862483596301161 -44.57126391844907 20.270967846256763 #
straight-curve $-1 77.862483596301161 -44.57126391844907 0 0 0 -1 I I #
straight-curve $-1 77.862483596301161 44.57126391844907 0 0 0 -1 I I #
plane-surface $-1 77.862483596301161 0 0 -1 0 0 0 0 1 forward_v I I I I #
coedge $-1 $216 $215 $226 $291 reversed $84 $-1 #
coedge $-1 $316 $219 $216 $282 forward $213 $-1 #
edge $-1 $283 23.220324332680992 $317 44.57126391844907 $216 $318 forward 7 unknown #
vertex $-1 $282 $319 #
straight-curve $-1 -77.862483596301161 -23.220324332680992 8.1268535342731685 0 0 -1 I I #
coedge $-1 $219 $316 $221 $287 forward $213 $-1 #
straight-curve $-1 0 -23.220324332680992 20.270967846256763 -1 0 0 I I #
edge $-1 $294 -44.57126391844907 $222 -23.220324332680992 $221 $320 forward 7 unknown #
point $-1 77.862483596301161 -23.220324332680992 20.270967846256763 #
straight-curve $-1 -77.862483596301161 -16.947897062782516 12.236446290835911 0 -1 0 I I #
coedge $-1 $226 $225 $316 $321 reversed $140 $-1 #
edge $-1 $317 -20.270967846256763 $227 -12.236446290835911 $280 $322 forward 7 unknown #
point $-1 -77.862483596301161 -44.571263918449077 12.236446290835911 #
point $-1 -77.862483596301161 -23.220324332680992 12.236446290835911 #
vertex $-1 $287 $323 #
straight-curve $-1 77.862483596301161 -44.57126391844907 0 0 0 -1 I I #
coedge $-1 $236 $235 $243 $301 forward $92 $-1 #
edge $-1 $304 -77.862483596301161 $239 -31.547054421353621 $238 $324 forward 7 unknown #
straight-curve $-1 31.547054421353621 36.647703723425082 20.270967846256767 0 -1 0 I I #
point $-1 31.547054421353621 44.57126391844907 20.270967846256763 #
straight-curve $-1 27.352384504413692 33.466549983126335 20.270967846256763 1 0 0 I I #
edge $-1 $244 33.466549983126335 $304 44.57126391844907 $243 $325 forward 7 unknown #
point $-1 77.862483596301146 33.466549983126335 20.270967846256767 #
point $-1 31.547054421353621 33.466549983126335 20.270967846256767 #
vertex $-1 $301 $326 #
straight-curve $-1 77.862483596301161 44.57126391844907 0 0 0 -1 I I #
vertex $-1 $251 $327 #
point $-1 43.310140256343146 34.387543253068245 10.055499991198444 #
vertex $-1 $255 $328 #
point $-1 57.204769008827412 34.387543253068245 10.055499991198444 #
vertex $-1 $259 $329 #
point $-1 71.099397761311678 34.387543253068245 10.055499991198444 #
straight-curve $-1 -77.862483596301161 44.57126391844907 0 0 0 -1 I I #
point $-1 -77.862483596301161 -44.57126391844907 -20.270967846256763 #
straight-curve $-1 -77.862483596301161 0 -20.270967846256763 0 1 0 I I #
point $-1 -77.862483596301161 44.57126391844907 -20.270967846256763 #
coedge $-1 $285 $281 $290 $321 forward $213 $-1 #
vertex $-1 $282 $330 #
straight-curve $-1 -77.862483596301161 0 20.270967846256763 0 -1 0 I I #
point $-1 -77.862483596301161 -23.220324332680992 20.270967846256763 #
straight-curve $-1 77.862483596301161 0 20.270967846256763 0 1 0 I I #
edge $-1 $317 -77.862483596301161 $294 77.862483596301161 $290 $331 forward 7 unknown #
straight-curve $-1 -77.862483596301161 -44.57126391844907 0 0 0 -1 I I #
point $-1 77.862483596301161 -44.57126391844907 20.270967846256763 #
straight-curve $-1 0 44.57126391844907 20.270967846256763 -1 0 0 I I #
straight-curve $-1 77.862483596301161 0 20.270967846256763 0 1 0 I I #
point $-1 77.862483596301161 44.57126391844907 20.270967846256763 #
point $-1 40.810140256343146 32.814242255907089 8.1126351033764141 #
point $-1 54.704769008827412 32.814242255907089 8.1126351033764141 #
point $-1 68.599397761311678 32.814242255907089 8.1126351033764141 #
point $-1 -77.862483596301161 -44.57126391844907 20.270967846256763 #
straight-curve $-1 0 -44.57126391844907 20.270967846256763 1 0 0 I I #
End-of-ACIS-data 