500 0 10 0           
7 Unknown 11 ACIS 5.0 NT 24 Thu Mar 25 20:00:16 1999 
-1 9.9999999999999995e-007 1e-010 
body $-1 $10 $-1 $11 #
body $-1 $12 $-1 $13 #
body $-1 $14 $-1 $15 #
body $-1 $16 $-1 $17 #
body $-1 $18 $-1 $19 #
body $-1 $20 $-1 $21 #
body $-1 $22 $-1 $23 #
body $-1 $24 $-1 $25 #
body $-1 $26 $-1 $27 #
body $-1 $28 $-1 $29 #
lump $-1 $-1 $30 $0 #
transform $-1 1 0 0 0 1 0 0 0 1 61.990417188024537 34.265847750317604 7.030736643419762 1 rotate no_reflect no_shear #
lump $-1 $-1 $31 $1 #
transform $-1 1 0 0 0 1 0 0 0 1 61.990417188024537 34.265847750317604 7.030736643419762 1 rotate no_reflect no_shear #
lump $-1 $-1 $32 $2 #
transform $-1 1 0 0 0 1 0 0 0 1 61.990417188024537 34.265847750317604 7.030736643419762 1 rotate no_reflect no_shear #
lump $-1 $-1 $33 $3 #
transform $-1 1 0 0 0 1 0 0 0 1 61.990417188024537 34.265847750317604 7.030736643419762 1 rotate no_reflect no_shear #
lump $-1 $-1 $34 $4 #
transform $-1 1 0 0 0 1 0 0 0 1 61.990417188024537 34.265847750317604 7.030736643419762 1 rotate no_reflect no_shear #
lump $-1 $-1 $35 $5 #
transform $-1 1 0 0 0 1 0 0 0 1 61.990417188024537 34.265847750317604 7.030736643419762 1 rotate no_reflect no_shear #
lump $-1 $-1 $36 $6 #
transform $-1 1 0 0 0 1 0 0 0 1 61.990417188024537 34.265847750317604 7.030736643419762 1 rotate no_reflect no_shear #
lump $-1 $-1 $37 $7 #
transform $-1 1 0 0 0 1 0 0 0 1 61.990417188024537 34.265847750317604 7.030736643419762 1 rotate no_reflect no_shear #
lump $-1 $-1 $38 $8 #
transform $-1 1 0 0 0 1 0 0 0 1 61.990417188024537 34.265847750317604 7.030736643419762 1 rotate no_reflect no_shear #
lump $-1 $-1 $39 $9 #
transform $-1 1 0 0 0 1 0 0 0 1 61.990417188024537 34.265847750317604 7.030736643419762 1 rotate no_reflect no_shear #
shell $-1 $-1 $-1 $40 $-1 $10 #
shell $-1 $-1 $-1 $41 $-1 $12 #
shell $-1 $-1 $-1 $42 $-1 $14 #
shell $-1 $-1 $-1 $43 $-1 $16 #
shell $-1 $-1 $-1 $44 $-1 $18 #
shell $-1 $-1 $-1 $45 $-1 $20 #
shell $-1 $-1 $-1 $46 $-1 $22 #
shell $-1 $-1 $-1 $47 $-1 $24 #
shell $-1 $-1 $-1 $48 $-1 $26 #
shell $-1 $-1 $-1 $49 $-1 $28 #
face $-1 $50 $51 $30 $-1 $52 forward single #
face $-1 $53 $54 $31 $-1 $55 reversed single #
face $-1 $56 $57 $32 $-1 $58 reversed single #
face $-1 $59 $60 $33 $-1 $61 forward single #
face $-1 $62 $63 $34 $-1 $64 reversed single #
face $-1 $65 $66 $35 $-1 $67 forward single #
face $-1 $68 $69 $36 $-1 $70 reversed single #
face $-1 $71 $72 $37 $-1 $73 forward single #
face $-1 $74 $75 $38 $-1 $76 reversed single #
face $-1 $77 $78 $39 $-1 $79 forward single #
face $-1 $80 $81 $30 $-1 $82 reversed single #
loop $-1 $-1 $83 $40 #
plane-surface $-1 0 0 7.030736643419762 0 0 1 1 0 0 forward_v I I I I #
face $-1 $84 $85 $31 $-1 $86 reversed single #
loop $-1 $-1 $87 $41 #
plane-surface $-1 -59.601095354852944 -23.204374463478082 0 0 1 0 0 0 1 forward_v I I I I #
face $-1 $88 $89 $32 $-1 $90 reversed single #
loop $-1 $-1 $91 $42 #
plane-surface $-1 -54.476678701770112 71.092597519683636 140.7155334208303 1 0 0 0 -0.69465837861970381 -0.71933979245794832 forward_v I I I I #
face $-1 $92 $93 $33 $-1 $94 forward single #
loop $-1 $95 $96 $43 #
cone-surface $-1 -41.959666534515847 31.965774746560907 4.7612469410304543 0 -0.69465837861970381 -0.71933979245794832 0.5 0 0 1 I I 0 1 0.5 forward I I I I #
face $-1 $97 $98 $34 $-1 $99 reversed single #
loop $-1 $-1 $100 $44 #
plane-surface $-1 5.1244166530828288 71.092597519683636 140.7155334208303 1 0 0 0 -0.69465837861970381 -0.71933979245794832 forward_v I I I I #
face $-1 $101 $102 $35 $-1 $103 forward single #
loop $-1 $104 $105 $45 #
cone-surface $-1 17.641428820337097 31.965774746560907 4.7612469410304543 0 -0.69465837861970381 -0.71933979245794832 0.5 0 0 1 I I 0 1 0.5 forward I I I I #
face $-1 $106 $107 $36 $-1 $108 reversed single #
loop $-1 $-1 $109 $46 #
plane-surface $-1 -29.442654367261579 -120.39017313790188 93.109416940299795 -1 0 0 0 -0.69465837861970381 0.71933979245794832 forward_v I I I I #
face $-1 $110 $111 $37 $-1 $112 forward single #
loop $-1 $113 $114 $47 #
cone-surface $-1 -41.959666534515847 -31.965774746560907 4.7612469410304561 0 0.69465837861970381 -0.71933979245794832 0.5 0 0 1 I I 0 1 0.5 forward I I I I #
face $-1 $115 $116 $38 $-1 $117 reversed single #
loop $-1 $-1 $118 $48 #
plane-surface $-1 30.158440987591366 -120.39017313790188 93.109416940299795 -1 0 0 0 -0.69465837861970381 0.71933979245794832 forward_v I I I I #
face $-1 $119 $120 $39 $-1 $121 forward single #
loop $-1 $122 $123 $49 #
cone-surface $-1 17.641428820337097 -31.965774746560907 4.7612469410304561 0 0.69465837861970381 -0.71933979245794832 0.5 0 0 1 I I 0 1 0.5 forward I I I I #
face $-1 $124 $125 $30 $-1 $126 reversed single #
loop $-1 $-1 $127 $50 #
plane-surface $-1 0 0 -7.030736643419762 0 0 1 1 0 0 forward_v I I I I #
coedge $-1 $128 $129 $130 $131 forward $51 $-1 #
face $-1 $132 $133 $31 $-1 $134 reversed single #
loop $-1 $-1 $135 $53 #
plane-surface $-1 -59.601095354852944 -20.204374463478082 0 0 -1 0 0 0 -1 forward_v I I I I #
coedge $-1 $136 $137 $138 $139 reversed $54 $-1 #
face $-1 $140 $141 $32 $-1 $142 reversed single #
loop $-1 $-1 $143 $56 #
plane-surface $-1 -41.959666534515847 -15.031727867900642 51.531185751999899 0 0.69465837861970381 0.71933979245794832 1 0 0 forward_v I I I I #
coedge $-1 $144 $145 $146 $147 reversed $57 $-1 #
face $-1 $-1 $148 $33 $-1 $149 forward single #
loop $-1 $150 $151 $59 #
cone-surface $-1 -41.959666534515847 31.100043465744733 3.8647559765018427 0 -0.69465837861970381 -0.71933979245794832 0.25 0 0 1 I I -0.70710678118654746 0.70710678118654746 0.25 forward I I I I #
loop $-1 $-1 $152 $43 #
coedge $-1 $96 $96 $153 $154 reversed $60 $-1 #
face $-1 $155 $156 $34 $-1 $157 reversed single #
loop $-1 $-1 $158 $62 #
plane-surface $-1 17.641428820337097 -15.031727867900642 51.531185751999899 0 0.69465837861970381 0.71933979245794832 1 0 0 forward_v I I I I #
coedge $-1 $159 $160 $161 $162 reversed $63 $-1 #
face $-1 $-1 $163 $35 $-1 $164 forward single #
loop $-1 $165 $166 $65 #
cone-surface $-1 17.641428820337097 31.100043465744733 3.8647559765018427 0 -0.69465837861970381 -0.71933979245794832 0.25 0 0 1 I I -0.70710678118654746 0.70710678118654746 0.25 forward I I I I #
loop $-1 $-1 $167 $45 #
coedge $-1 $105 $105 $168 $169 reversed $66 $-1 #
face $-1 $170 $171 $36 $-1 $172 reversed single #
loop $-1 $-1 $173 $68 #
plane-surface $-1 -41.959666534515847 -34.265847750317604 3.9250692714693969 0 -0.69465837861970381 0.71933979245794832 1 0 0 forward_v I I I I #
coedge $-1 $174 $175 $176 $177 reversed $69 $-1 #
face $-1 $-1 $178 $37 $-1 $179 forward single #
loop $-1 $180 $181 $71 #
cone-surface $-1 -41.959666534515847 -31.100043465744733 3.8647559765018444 0 0.69465837861970381 -0.71933979245794832 0.25 0 0 1 I I -0.70710678118654746 0.70710678118654746 0.25 forward I I I I #
loop $-1 $-1 $182 $47 #
coedge $-1 $114 $114 $183 $184 reversed $72 $-1 #
face $-1 $185 $186 $38 $-1 $187 reversed single #
loop $-1 $-1 $188 $74 #
plane-surface $-1 17.641428820337097 -34.265847750317604 3.9250692714693969 0 -0.69465837861970381 0.71933979245794832 1 0 0 forward_v I I I I #
coedge $-1 $189 $190 $191 $192 reversed $75 $-1 #
face $-1 $-1 $193 $39 $-1 $194 forward single #
loop $-1 $195 $196 $77 #
cone-surface $-1 17.641428820337097 -31.100043465744733 3.8647559765018444 0 0.69465837861970381 -0.71933979245794832 0.25 0 0 1 I I -0.70710678118654746 0.70710678118654746 0.25 forward I I I I #
loop $-1 $-1 $197 $49 #
coedge $-1 $123 $123 $198 $199 reversed $78 $-1 #
face $-1 $200 $201 $30 $-1 $202 reversed single #
loop $-1 $-1 $203 $80 #
plane-surface $-1 0 -34.265847750317604 0 0 1 0 0 0 1 forward_v I I I I #
coedge $-1 $204 $205 $206 $207 forward $81 $-1 #
coedge $-1 $208 $83 $209 $210 forward $51 $-1 #
coedge $-1 $83 $208 $211 $212 forward $51 $-1 #
coedge $-1 $213 $214 $83 $131 reversed $215 $-1 #
edge $-1 $216 -34.265847750317604 $217 34.265847750317604 $130 $218 forward 7 unknown #
face $-1 $219 $220 $31 $-1 $221 reversed single #
loop $-1 $-1 $222 $84 #
plane-surface $-1 -57.211773521681351 -21.704374463478082 0 -1 0 0 0 0 1 forward_v I I I I #
coedge $-1 $223 $224 $225 $226 forward $85 $-1 #
coedge $-1 $227 $87 $228 $229 reversed $54 $-1 #
coedge $-1 $87 $227 $230 $231 reversed $54 $-1 #
coedge $-1 $232 $233 $87 $139 forward $234 $-1 #
edge $-1 $235 -7.030736643419762 $236 7.030736643419762 $138 $237 forward 7 unknown #
face $-1 $238 $239 $32 $-1 $240 reversed single #
loop $-1 $-1 $241 $88 #
plane-surface $-1 -29.442654367261579 71.092597519683636 140.7155334208303 -1 0 0 0 0.69465837861970381 0.71933979245794832 forward_v I I I I #
coedge $-1 $242 $243 $244 $245 reversed $89 $-1 #
coedge $-1 $145 $91 $246 $247 reversed $57 $-1 #
coedge $-1 $91 $144 $242 $248 reversed $57 $-1 #
coedge $-1 $244 $249 $91 $147 forward $250 $-1 #
edge $-1 $251 1.2804510095242136 $252 4.4964636447151278 $146 $253 forward 7 unknown #
loop $-1 $-1 $153 $92 #
plane-surface $-1 -41.959666534515847 -15.031727867900642 51.531185751999899 0 0.69465837861970381 0.71933979245794832 1 0 0 forward_v I I I I #
loop $-1 $-1 $254 $59 #
coedge $-1 $151 $151 $152 $255 reversed $93 $-1 #
coedge $-1 $152 $152 $151 $255 forward $95 $-1 #
coedge $-1 $153 $153 $96 $154 forward $148 $-1 #
edge $-1 $256 -6.1698058095389983e-015 $256 6.2831853071795942 $153 $257 forward 7 unknown #
face $-1 $258 $259 $34 $-1 $260 forward single #
loop $-1 $-1 $261 $97 #
plane-surface $-1 30.158440987591366 71.092597519683636 140.7155334208303 -1 0 0 0 0.69465837861970381 0.71933979245794832 forward_v I I I I #
coedge $-1 $262 $263 $264 $265 reversed $98 $-1 #
coedge $-1 $160 $100 $266 $267 reversed $63 $-1 #
coedge $-1 $100 $159 $262 $268 reversed $63 $-1 #
coedge $-1 $264 $269 $100 $162 forward $259 $-1 #
edge $-1 $270 1.2804510095242136 $271 4.4964636447151278 $161 $272 forward 7 unknown #
loop $-1 $-1 $168 $101 #
plane-surface $-1 17.641428820337097 -15.031727867900642 51.531185751999899 0 0.69465837861970381 0.71933979245794832 1 0 0 forward_v I I I I #
loop $-1 $-1 $273 $65 #
coedge $-1 $166 $166 $167 $274 reversed $102 $-1 #
coedge $-1 $167 $167 $166 $274 forward $104 $-1 #
coedge $-1 $168 $168 $105 $169 forward $163 $-1 #
edge $-1 $275 -6.1698058095389983e-015 $275 6.2831853071795942 $168 $276 forward 7 unknown #
face $-1 $277 $278 $36 $-1 $279 forward single #
loop $-1 $-1 $280 $106 #
plane-surface $-1 -54.476678701770112 -120.39017313790188 93.109416940299795 1 0 0 0 0.69465837861970381 -0.71933979245794832 forward_v I I I I #
coedge $-1 $281 $282 $283 $284 reversed $107 $-1 #
coedge $-1 $175 $109 $285 $286 reversed $69 $-1 #
coedge $-1 $109 $174 $281 $287 reversed $69 $-1 #
coedge $-1 $283 $288 $109 $177 forward $278 $-1 #
edge $-1 $289 25.929238818633337 $290 29.145251453824244 $176 $291 forward 7 unknown #
loop $-1 $-1 $183 $110 #
plane-surface $-1 -41.959666534515847 -34.265847750317604 3.9250692714693969 0 -0.69465837861970381 0.71933979245794832 1 0 0 forward_v I I I I #
loop $-1 $-1 $292 $71 #
coedge $-1 $181 $181 $182 $293 reversed $111 $-1 #
coedge $-1 $182 $182 $181 $293 forward $113 $-1 #
coedge $-1 $183 $183 $114 $184 forward $178 $-1 #
edge $-1 $294 2.4679223238155992e-015 $294 6.2831853071796031 $183 $295 forward 7 unknown #
face $-1 $296 $297 $38 $-1 $298 reversed single #
loop $-1 $-1 $299 $115 #
plane-surface $-1 5.1244166530828288 -120.39017313790188 93.109416940299795 1 0 0 0 0.69465837861970381 -0.71933979245794832 forward_v I I I I #
coedge $-1 $300 $301 $302 $303 reversed $116 $-1 #
coedge $-1 $190 $118 $304 $305 reversed $75 $-1 #
coedge $-1 $118 $189 $300 $306 reversed $75 $-1 #
coedge $-1 $302 $307 $118 $192 forward $308 $-1 #
edge $-1 $309 25.929238818633337 $310 29.145251453824244 $191 $311 forward 7 unknown #
loop $-1 $-1 $198 $119 #
plane-surface $-1 17.641428820337097 -34.265847750317604 3.9250692714693969 0 -0.69465837861970381 0.71933979245794832 1 0 0 forward_v I I I I #
loop $-1 $-1 $312 $77 #
coedge $-1 $196 $196 $197 $313 reversed $120 $-1 #
coedge $-1 $197 $197 $196 $313 forward $122 $-1 #
coedge $-1 $198 $198 $123 $199 forward $193 $-1 #
edge $-1 $314 2.4679223238155992e-015 $314 6.2831853071796031 $198 $315 forward 7 unknown #
face $-1 $316 $317 $30 $-1 $318 reversed single #
loop $-1 $-1 $319 $124 #
plane-surface $-1 -61.990417188024537 0 0 1 0 0 0 0 -1 forward_v I I I I #
coedge $-1 $320 $211 $321 $322 forward $125 $-1 #
coedge $-1 $323 $127 $320 $324 forward $81 $-1 #
coedge $-1 $127 $323 $325 $326 forward $81 $-1 #
coedge $-1 $214 $213 $127 $207 reversed $215 $-1 #
edge $-1 $327 -34.265847750317604 $328 34.265847750317604 $206 $329 forward 7 unknown #
coedge $-1 $129 $128 $330 $331 forward $51 $-1 #
coedge $-1 $332 $333 $128 $210 reversed $317 $-1 #
edge $-1 $217 -61.990417188024537 $334 61.990417188024537 $209 $335 forward 7 unknown #
coedge $-1 $203 $336 $129 $212 reversed $125 $-1 #
edge $-1 $337 -61.990417188024537 $216 61.990417188024537 $211 $338 forward 7 unknown #
coedge $-1 $206 $130 $336 $339 forward $215 $-1 #
coedge $-1 $130 $206 $332 $340 reversed $215 $-1 #
loop $-1 $-1 $213 $316 #
vertex $-1 $131 $341 #
vertex $-1 $131 $342 #
straight-curve $-1 61.990417188024537 0 7.030736643419762 0 1 0 I I #
face $-1 $343 $344 $31 $-1 $345 forward single #
loop $-1 $-1 $346 $132 #
plane-surface $-1 0 0 -7.030736643419762 0 0 1 1 0 0 forward_v I I I I #
coedge $-1 $347 $348 $227 $349 forward $133 $-1 #
coedge $-1 $350 $135 $346 $351 reversed $85 $-1 #
coedge $-1 $135 $350 $352 $353 reversed $85 $-1 #
coedge $-1 $348 $347 $135 $226 reversed $133 $-1 #
edge $-1 $354 -7.030736643419762 $355 7.030736643419762 $225 $356 forward 7 unknown #
coedge $-1 $137 $136 $222 $349 reversed $54 $-1 #
coedge $-1 $357 $358 $136 $229 forward $220 $-1 #
edge $-1 $359 27.411225844254879 $235 32.189869510598065 $228 $360 forward 7 unknown #
coedge $-1 $361 $362 $137 $231 forward $344 $-1 #
edge $-1 $236 -32.189869510598065 $363 -27.411225844254879 $230 $364 forward 7 unknown #
coedge $-1 $365 $138 $362 $366 reversed $234 $-1 #
coedge $-1 $138 $365 $357 $367 reversed $234 $-1 #
loop $-1 $-1 $365 $343 #
vertex $-1 $367 $368 #
vertex $-1 $139 $369 #
straight-curve $-1 -61.990417188024537 -23.204374463478082 0 0 0 1 I I #
face $-1 $-1 $250 $32 $-1 $370 forward single #
loop $-1 $-1 $371 $140 #
plane-surface $-1 0 34.265847750317604 0 0 -1 0 0 0 -1 forward_v I I I I #
coedge $-1 $372 $373 $374 $375 reversed $141 $-1 #
coedge $-1 $376 $143 $145 $248 forward $89 $-1 #
coedge $-1 $143 $376 $372 $377 forward $89 $-1 #
coedge $-1 $374 $146 $143 $245 forward $250 $-1 #
edge $-1 $252 -33.496845434512188 $378 -8.4628211000036551 $244 $379 forward 7 unknown #
coedge $-1 $380 $381 $144 $247 forward $239 $-1 #
edge $-1 $382 -66.432697438945752 $251 -63.327030066995384 $246 $383 forward 7 unknown #
edge $-1 $252 64.060911777963682 $382 68.531695500635209 $145 $384 forward 7 unknown #
coedge $-1 $146 $374 $380 $385 forward $250 $-1 #
loop $-1 $-1 $374 $238 #
vertex $-1 $247 $386 #
vertex $-1 $147 $387 #
straight-curve $-1 -54.476678701770112 35.546298759841818 7.0307366434197576 0 -1 0 I I #
coedge $-1 $254 $254 $-1 $388 reversed $150 $-1 #
edge $-1 $389 0 $389 6.2831853071796004 $151 $390 forward 7 unknown #
vertex $-1 $154 $391 #
ellipse-curve $-1 -41.959666534515847 32.657841432722151 5.4779029574445737 0 0.69465837861970381 0.71933979245794832 0.5 0 0 1 I I #
face $-1 $-1 $392 $34 $-1 $393 reversed single #
loop $-1 $-1 $161 $155 #
plane-surface $-1 0 0 7.030736643419762 0 0 1 1 0 0 forward_v I I I I #
coedge $-1 $394 $395 $396 $397 reversed $156 $-1 #
coedge $-1 $398 $158 $160 $268 forward $98 $-1 #
coedge $-1 $158 $398 $394 $399 forward $98 $-1 #
coedge $-1 $396 $161 $158 $265 forward $259 $-1 #
edge $-1 $271 -3.6962977570857198 $400 21.337726577422817 $264 $401 forward 7 unknown #
coedge $-1 $402 $403 $159 $267 forward $392 $-1 #
edge $-1 $404 -66.432697438945752 $270 -63.327030066995384 $266 $405 forward 7 unknown #
edge $-1 $271 64.060911777963682 $404 68.531695500635209 $160 $406 forward 7 unknown #
coedge $-1 $161 $396 $402 $407 forward $259 $-1 #
vertex $-1 $267 $408 #
vertex $-1 $162 $409 #
straight-curve $-1 5.1244166530828288 35.546298759841818 7.0307366434197576 0 -1 0 I I #
coedge $-1 $273 $273 $-1 $410 reversed $165 $-1 #
edge $-1 $411 0 $411 6.2831853071796004 $166 $412 forward 7 unknown #
vertex $-1 $169 $413 #
ellipse-curve $-1 17.641428820337097 32.657841432722151 5.4779029574445737 0 0.69465837861970381 0.71933979245794832 0.5 0 0 1 I I #
face $-1 $-1 $414 $36 $-1 $415 reversed single #
loop $-1 $-1 $176 $170 #
plane-surface $-1 0 0 7.030736643419762 0 0 1 1 0 0 forward_v I I I I #
coedge $-1 $416 $417 $418 $419 reversed $171 $-1 #
coedge $-1 $420 $173 $175 $287 forward $107 $-1 #
coedge $-1 $173 $420 $416 $421 forward $107 $-1 #
coedge $-1 $418 $176 $173 $284 forward $278 $-1 #
edge $-1 $290 8.4628211000036551 $422 33.496845434512188 $283 $423 forward 7 unknown #
coedge $-1 $424 $425 $174 $286 forward $414 $-1 #
edge $-1 $426 -42.629639198680501 $289 -39.523971826730133 $285 $427 forward 7 unknown #
edge $-1 $290 -4.4707837226715235 $426 0 $175 $428 forward 7 unknown #
coedge $-1 $176 $418 $424 $429 forward $278 $-1 #
vertex $-1 $286 $430 #
vertex $-1 $177 $431 #
straight-curve $-1 -29.442654367261579 -60.195086568950941 7.0307366434197647 0 1 0 I I #
coedge $-1 $292 $292 $-1 $432 reversed $180 $-1 #
edge $-1 $433 0 $433 6.2831853071796004 $181 $434 forward 7 unknown #
vertex $-1 $184 $435 #
ellipse-curve $-1 -41.959666534515847 -32.657841432722151 5.4779029574445781 0 -0.69465837861970381 0.71933979245794832 0.5 0 0 1 I I #
face $-1 $-1 $308 $38 $-1 $436 forward single #
loop $-1 $-1 $437 $185 #
plane-surface $-1 0 -34.265847750317604 0 0 1 0 0 0 1 forward_v I I I I #
coedge $-1 $438 $439 $440 $441 reversed $186 $-1 #
coedge $-1 $442 $188 $190 $306 forward $116 $-1 #
coedge $-1 $188 $442 $438 $443 forward $116 $-1 #
coedge $-1 $440 $191 $188 $303 forward $308 $-1 #
edge $-1 $310 -21.337726577422817 $444 3.6962977570857198 $302 $445 forward 7 unknown #
coedge $-1 $446 $447 $189 $305 forward $297 $-1 #
edge $-1 $448 -42.629639198680501 $309 -39.523971826730133 $304 $449 forward 7 unknown #
edge $-1 $310 -4.4707837226715235 $448 0 $190 $450 forward 7 unknown #
coedge $-1 $191 $440 $446 $451 forward $308 $-1 #
loop $-1 $-1 $440 $296 #
vertex $-1 $305 $452 #
vertex $-1 $192 $453 #
straight-curve $-1 30.158440987591366 -60.195086568950941 7.0307366434197647 0 1 0 I I #
coedge $-1 $312 $312 $-1 $454 reversed $195 $-1 #
edge $-1 $455 0 $455 6.2831853071796004 $196 $456 forward 7 unknown #
vertex $-1 $199 $457 #
ellipse-curve $-1 17.641428820337097 -32.657841432722151 5.4779029574445781 0 -0.69465837861970381 0.71933979245794832 0.5 0 0 1 I I #
face $-1 $-1 $215 $30 $-1 $458 reversed single #
loop $-1 $-1 $332 $200 #
plane-surface $-1 0 34.265847750317604 0 0 -1 0 0 0 -1 forward_v I I I I #
coedge $-1 $459 $330 $333 $460 forward $201 $-1 #
coedge $-1 $336 $203 $204 $324 reversed $125 $-1 #
coedge $-1 $330 $459 $203 $322 reversed $201 $-1 #
edge $-1 $337 -7.030736643419762 $461 7.030736643419762 $321 $462 forward 7 unknown #
coedge $-1 $205 $204 $459 $463 forward $81 $-1 #
edge $-1 $328 -61.990417188024537 $461 61.990417188024537 $320 $464 forward 7 unknown #
coedge $-1 $333 $332 $205 $326 reversed $317 $-1 #
edge $-1 $465 -61.990417188024537 $327 61.990417188024537 $325 $466 forward 7 unknown #
vertex $-1 $207 $467 #
vertex $-1 $339 $468 #
straight-curve $-1 61.990417188024537 0 -7.030736643419762 0 -1 0 I I #
coedge $-1 $319 $321 $208 $331 reversed $201 $-1 #
edge $-1 $334 -34.265847750317604 $337 34.265847750317604 $330 $469 forward 7 unknown #
coedge $-1 $325 $209 $214 $340 forward $317 $-1 #
coedge $-1 $209 $325 $319 $460 reversed $317 $-1 #
vertex $-1 $210 $470 #
straight-curve $-1 0 34.265847750317604 7.030736643419762 -1 0 0 I I #
coedge $-1 $211 $320 $213 $339 reversed $125 $-1 #
vertex $-1 $331 $471 #
straight-curve $-1 0 -34.265847750317604 7.030736643419762 1 0 0 I I #
edge $-1 $216 -7.030736643419762 $328 7.030736643419762 $213 $472 forward 7 unknown #
edge $-1 $217 -7.030736643419762 $327 7.030736643419762 $214 $473 forward 7 unknown #
point $-1 61.990417188024537 -34.265847750317604 7.030736643419762 #
point $-1 61.990417188024537 34.265847750317604 7.030736643419762 #
face $-1 $-1 $234 $31 $-1 $474 reversed single #
loop $-1 $-1 $352 $219 #
plane-surface $-1 0 0 7.030736643419762 0 0 1 1 0 0 forward_v I I I I #
coedge $-1 $358 $357 $223 $351 forward $220 $-1 #
coedge $-1 $225 $222 $358 $475 reversed $133 $-1 #
coedge $-1 $222 $225 $361 $476 reversed $133 $-1 #
edge $-1 $363 -7.030736643419762 $359 7.030736643419762 $222 $477 forward 7 unknown #
coedge $-1 $224 $223 $365 $478 reversed $85 $-1 #
edge $-1 $479 -32.189869510598065 $355 -27.411225844254879 $346 $480 forward 7 unknown #
coedge $-1 $362 $361 $224 $353 forward $344 $-1 #
edge $-1 $354 27.411225844254879 $481 32.189869510598065 $352 $482 forward 7 unknown #
vertex $-1 $353 $483 #
vertex $-1 $351 $484 #
straight-curve $-1 -57.211773521681351 -20.204374463478082 0 0 0 -1 I I #
coedge $-1 $346 $228 $233 $367 forward $220 $-1 #
coedge $-1 $228 $346 $347 $475 forward $220 $-1 #
vertex $-1 $229 $485 #
straight-curve $-1 -29.800547677426472 -23.204374463478082 -7.030736643419762 -1 0 0 I I #
coedge $-1 $352 $230 $348 $476 forward $344 $-1 #
coedge $-1 $230 $352 $232 $366 forward $344 $-1 #
vertex $-1 $231 $486 #
straight-curve $-1 -29.800547677426472 -23.204374463478082 7.030736643419762 1 0 0 I I #
coedge $-1 $233 $232 $350 $478 forward $234 $-1 #
edge $-1 $481 20.204374463478082 $236 23.204374463478082 $232 $487 forward 7 unknown #
edge $-1 $235 -23.204374463478082 $479 -20.204374463478082 $233 $488 forward 7 unknown #
point $-1 -61.990417188024537 -23.204374463478082 -7.030736643419762 #
point $-1 -61.990417188024537 -23.204374463478082 7.030736643419762 #
plane-surface $-1 0 0 7.030736643419762 0 0 1 1 0 0 forward_v I I I I #
coedge $-1 $381 $380 $373 $489 forward $239 $-1 #
coedge $-1 $373 $241 $243 $377 reversed $141 $-1 #
coedge $-1 $241 $372 $371 $489 reversed $141 $-1 #
coedge $-1 $249 $244 $241 $375 forward $250 $-1 #
edge $-1 $378 -4.4964636447151278 $490 -1.2804510095242136 $374 $491 forward 7 unknown #
coedge $-1 $243 $242 $381 $492 reversed $89 $-1 #
edge $-1 $493 -68.531695500635209 $378 -64.060911777963682 $372 $494 forward 7 unknown #
vertex $-1 $245 $495 #
straight-curve $-1 -20.979833267257924 31.04983511512669 7.0307366434197576 1 0 0 I I #
coedge $-1 $371 $246 $249 $385 reversed $239 $-1 #
coedge $-1 $246 $371 $376 $492 forward $239 $-1 #
vertex $-1 $247 $496 #
straight-curve $-1 -54.476678701770112 34.265847750317604 70.357766710415149 0 0 1 I I #
straight-curve $-1 -54.476678701770112 -15.031727867900642 51.531185751999899 0 0.71933979245794832 -0.69465837861970381 I I #
edge $-1 $490 29.442654367261579 $251 54.476678701770112 $380 $497 forward 7 unknown #
point $-1 -54.476678701770112 34.265847750317604 7.030736643419762 #
point $-1 -54.476678701770112 31.04983511512669 7.0307366434197576 #
edge $-1 $498 1 $498 0 $254 $-1 forward 7 unknown #
vertex $-1 $255 $499 #
ellipse-curve $-1 -41.959666534515847 31.27370806039966 4.0445909246163296 0 0.69465837861970381 0.71933979245794832 0.5 0 0 1 I I #
point $-1 -41.459666534515847 32.657841432722151 5.4779029574445781 #
loop $-1 $-1 $266 $258 #
plane-surface $-1 0 34.265847750317604 0 0 -1 0 0 0 -1 forward_v I I I I #
coedge $-1 $395 $261 $263 $399 reversed $156 $-1 #
coedge $-1 $261 $394 $500 $501 reversed $156 $-1 #
coedge $-1 $269 $264 $261 $397 forward $259 $-1 #
edge $-1 $400 -4.4964636447151278 $502 -1.2804510095242136 $396 $503 forward 7 unknown #
coedge $-1 $263 $262 $403 $504 reversed $98 $-1 #
edge $-1 $505 -68.531695500635209 $400 -64.060911777963682 $394 $506 forward 7 unknown #
vertex $-1 $265 $507 #
straight-curve $-1 8.8207144101685486 31.04983511512669 7.0307366434197576 1 0 0 I I #
coedge $-1 $500 $266 $269 $407 reversed $392 $-1 #
coedge $-1 $266 $500 $398 $504 forward $392 $-1 #
vertex $-1 $267 $508 #
straight-curve $-1 5.1244166530828288 34.265847750317604 70.357766710415149 0 0 1 I I #
straight-curve $-1 5.1244166530828288 -15.031727867900642 51.531185751999899 0 0.71933979245794832 -0.69465837861970381 I I #
edge $-1 $502 -30.158440987591366 $270 -5.1244166530828288 $402 $509 forward 7 unknown #
point $-1 5.1244166530828288 34.265847750317604 7.030736643419762 #
point $-1 5.1244166530828288 31.04983511512669 7.0307366434197576 #
edge $-1 $510 1 $510 0 $273 $-1 forward 7 unknown #
vertex $-1 $274 $511 #
ellipse-curve $-1 17.641428820337097 31.27370806039966 4.0445909246163296 0 0.69465837861970381 0.71933979245794832 0.5 0 0 1 I I #
point $-1 18.141428820337097 32.657841432722151 5.4779029574445781 #
loop $-1 $-1 $285 $277 #
plane-surface $-1 0 -34.265847750317604 0 0 1 0 0 0 1 forward_v I I I I #
coedge $-1 $417 $280 $282 $421 reversed $171 $-1 #
coedge $-1 $280 $416 $512 $513 reversed $171 $-1 #
coedge $-1 $288 $283 $280 $419 forward $278 $-1 #
edge $-1 $422 -29.145251453824244 $514 -25.929238818633337 $418 $515 forward 7 unknown #
coedge $-1 $282 $281 $425 $516 reversed $107 $-1 #
edge $-1 $517 0 $422 4.4707837226715235 $416 $518 forward 7 unknown #
vertex $-1 $284 $519 #
straight-curve $-1 -20.979833267257924 -31.049835115126694 7.030736643419762 -1 0 0 I I #
coedge $-1 $512 $285 $288 $429 reversed $414 $-1 #
coedge $-1 $285 $512 $420 $516 forward $414 $-1 #
vertex $-1 $286 $520 #
straight-curve $-1 -29.442654367261579 -34.265847750317604 46.554708470149897 0 0 1 I I #
straight-curve $-1 -29.442654367261579 -34.265847750317604 3.9250692714693969 0 -0.71933979245794832 -0.69465837861970381 I I #
edge $-1 $514 -54.476678701770112 $289 -29.442654367261579 $424 $521 forward 7 unknown #
point $-1 -29.442654367261579 -34.265847750317604 7.030736643419762 #
point $-1 -29.442654367261579 -31.049835115126697 7.030736643419762 #
edge $-1 $522 1 $522 0 $292 $-1 forward 7 unknown #
vertex $-1 $293 $523 #
ellipse-curve $-1 -41.959666534515847 -31.27370806039966 4.0445909246163314 0 -0.69465837861970381 0.71933979245794832 0.5 0 0 1 I I #
point $-1 -41.459666534515847 -32.657841432722151 5.4779029574445799 #
plane-surface $-1 0 0 7.030736643419762 0 0 1 1 0 0 forward_v I I I I #
coedge $-1 $447 $446 $439 $524 forward $297 $-1 #
coedge $-1 $439 $299 $301 $443 reversed $186 $-1 #
coedge $-1 $299 $438 $437 $524 reversed $186 $-1 #
coedge $-1 $307 $302 $299 $441 forward $308 $-1 #
edge $-1 $444 -29.145251453824244 $525 -25.929238818633337 $440 $526 forward 7 unknown #
coedge $-1 $301 $300 $447 $527 reversed $116 $-1 #
edge $-1 $528 0 $444 4.4707837226715235 $438 $529 forward 7 unknown #
vertex $-1 $303 $530 #
straight-curve $-1 8.8207144101685486 -31.049835115126694 7.030736643419762 -1 0 0 I I #
coedge $-1 $437 $304 $307 $451 reversed $297 $-1 #
coedge $-1 $304 $437 $442 $527 forward $297 $-1 #
vertex $-1 $305 $531 #
straight-curve $-1 30.158440987591366 -34.265847750317604 46.554708470149897 0 0 1 I I #
straight-curve $-1 30.158440987591366 -34.265847750317604 3.9250692714693969 0 -0.71933979245794832 -0.69465837861970381 I I #
edge $-1 $525 5.1244166530828288 $309 30.158440987591366 $446 $532 forward 7 unknown #
point $-1 30.158440987591366 -34.265847750317604 7.030736643419762 #
point $-1 30.158440987591366 -31.049835115126697 7.030736643419762 #
edge $-1 $533 1 $533 0 $312 $-1 forward 7 unknown #
vertex $-1 $313 $534 #
ellipse-curve $-1 17.641428820337097 -31.27370806039966 4.0445909246163314 0 -0.69465837861970381 0.71933979245794832 0.5 0 0 1 I I #
point $-1 18.141428820337097 -32.657841432722151 5.4779029574445799 #
plane-surface $-1 61.990417188024537 0 0 -1 0 0 0 0 1 forward_v I I I I #
coedge $-1 $321 $319 $323 $463 reversed $201 $-1 #
edge $-1 $334 -7.030736643419762 $465 7.030736643419762 $333 $535 forward 7 unknown #
vertex $-1 $463 $536 #
straight-curve $-1 -61.990417188024537 -34.265847750317604 0 0 0 -1 I I #
edge $-1 $461 -34.265847750317604 $465 34.265847750317604 $459 $537 forward 7 unknown #
straight-curve $-1 0 -34.265847750317604 -7.030736643419762 -1 0 0 I I #
vertex $-1 $326 $538 #
straight-curve $-1 0 34.265847750317604 -7.030736643419762 1 0 0 I I #
point $-1 61.990417188024537 34.265847750317604 -7.030736643419762 #
point $-1 61.990417188024537 -34.265847750317604 -7.030736643419762 #
straight-curve $-1 -61.990417188024537 0 7.030736643419762 0 -1 0 I I #
point $-1 -61.990417188024537 34.265847750317604 7.030736643419762 #
point $-1 -61.990417188024537 -34.265847750317604 7.030736643419762 #
straight-curve $-1 61.990417188024537 -34.265847750317604 0 0 0 -1 I I #
straight-curve $-1 61.990417188024537 34.265847750317604 0 0 0 -1 I I #
plane-surface $-1 -61.990417188024537 0 0 1 0 0 0 0 -1 forward_v I I I I #
edge $-1 $355 9.3521872317390411 $359 12.352187231739041 $358 $539 forward 7 unknown #
edge $-1 $363 -12.352187231739041 $354 -9.3521872317390411 $361 $540 forward 7 unknown #
straight-curve $-1 -57.211773521681351 -23.204374463478082 0 0 0 -1 I I #
edge $-1 $481 -7.030736643419762 $479 7.030736643419762 $365 $541 forward 7 unknown #
vertex $-1 $478 $542 #
straight-curve $-1 -29.800547677426472 -20.204374463478082 -7.030736643419762 1 0 0 I I #
vertex $-1 $366 $543 #
straight-curve $-1 -29.800547677426472 -20.204374463478082 7.030736643419762 -1 0 0 I I #
point $-1 -57.211773521681351 -20.204374463478082 7.030736643419762 #
point $-1 -57.211773521681351 -20.204374463478082 -7.030736643419762 #
point $-1 -57.211773521681351 -23.204374463478082 -7.030736643419762 #
point $-1 -57.211773521681351 -23.204374463478082 7.030736643419762 #
straight-curve $-1 -61.990417188024537 0 7.030736643419762 0 -1 0 I I #
straight-curve $-1 -61.990417188024537 0 -7.030736643419762 0 1 0 I I #
edge $-1 $490 63.327030066995384 $493 66.432697438945752 $371 $544 forward 7 unknown #
vertex $-1 $385 $545 #
straight-curve $-1 -29.442654367261579 35.546298759841818 7.0307366434197576 0 1 0 I I #
edge $-1 $493 8.4628211000036551 $382 33.496845434512188 $381 $546 forward 7 unknown #
vertex $-1 $492 $547 #
straight-curve $-1 -29.442654367261579 -15.031727867900642 51.531185751999899 0 -0.71933979245794832 0.69465837861970381 I I #
point $-1 -29.442654367261579 31.04983511512669 7.0307366434197576 #
point $-1 -54.476678701770112 34.265847750317597 3.9250692714693969 #
straight-curve $-1 0 34.265847750317604 7.030736643419762 -1 0 0 I I #
vertex $-1 $388 $548 #
point $-1 -41.459666534515847 31.27370806039966 4.0445909246163296 #
coedge $-1 $403 $402 $395 $501 forward $392 $-1 #
edge $-1 $502 63.327030066995384 $505 66.432697438945752 $500 $549 forward 7 unknown #
vertex $-1 $407 $550 #
straight-curve $-1 30.158440987591366 35.546298759841818 7.0307366434197576 0 1 0 I I #
edge $-1 $505 -21.337726577422817 $404 3.6962977570857198 $403 $551 forward 7 unknown #
vertex $-1 $504 $552 #
straight-curve $-1 30.158440987591366 -15.031727867900642 51.531185751999899 0 -0.71933979245794832 0.69465837861970381 I I #
point $-1 30.158440987591366 31.04983511512669 7.0307366434197576 #
point $-1 5.1244166530828288 34.265847750317597 3.9250692714693969 #
straight-curve $-1 0 34.265847750317604 7.030736643419762 -1 0 0 I I #
vertex $-1 $410 $553 #
point $-1 18.141428820337097 31.27370806039966 4.0445909246163296 #
coedge $-1 $425 $424 $417 $513 forward $414 $-1 #
edge $-1 $514 39.523971826730133 $517 42.629639198680501 $512 $554 forward 7 unknown #
vertex $-1 $429 $555 #
straight-curve $-1 -54.476678701770112 -60.195086568950941 7.0307366434197647 0 -1 0 I I #
edge $-1 $517 -33.496845434512188 $426 -8.4628211000036551 $425 $556 forward 7 unknown #
vertex $-1 $516 $557 #
straight-curve $-1 -54.476678701770112 -34.265847750317604 3.9250692714693969 0 0.71933979245794832 0.69465837861970381 I I #
point $-1 -54.476678701770112 -31.049835115126697 7.030736643419762 #
point $-1 -29.442654367261579 -34.265847750317604 3.9250692714693969 #
straight-curve $-1 0 -34.265847750317604 7.030736643419762 1 0 0 I I #
vertex $-1 $432 $558 #
point $-1 -41.459666534515847 -31.27370806039966 4.0445909246163314 #
edge $-1 $525 39.523971826730133 $528 42.629639198680501 $437 $559 forward 7 unknown #
vertex $-1 $451 $560 #
straight-curve $-1 5.1244166530828288 -60.195086568950941 7.0307366434197647 0 -1 0 I I #
edge $-1 $528 -3.6962977570857198 $448 21.337726577422817 $447 $561 forward 7 unknown #
vertex $-1 $527 $562 #
straight-curve $-1 5.1244166530828288 -34.265847750317604 3.9250692714693969 0 0.71933979245794832 0.69465837861970381 I I #
point $-1 5.1244166530828288 -31.049835115126697 7.030736643419762 #
point $-1 30.158440987591366 -34.265847750317604 3.9250692714693969 #
straight-curve $-1 0 -34.265847750317604 7.030736643419762 1 0 0 I I #
vertex $-1 $454 $563 #
point $-1 18.141428820337097 -31.27370806039966 4.0445909246163314 #
straight-curve $-1 -61.990417188024537 34.265847750317604 0 0 0 -1 I I #
point $-1 -61.990417188024537 -34.265847750317604 -7.030736643419762 #
straight-curve $-1 -61.990417188024537 0 -7.030736643419762 0 1 0 I I #
point $-1 -61.990417188024537 34.265847750317604 -7.030736643419762 #
straight-curve $-1 -57.211773521681351 -10.852187231739041 -7.030736643419762 0 -1 0 I I #
straight-curve $-1 -57.211773521681351 -10.852187231739041 7.030736643419762 0 1 0 I I #
straight-curve $-1 -61.990417188024537 -20.204374463478082 0 0 0 -1 I I #
point $-1 -61.990417188024537 -20.204374463478082 -7.030736643419762 #
point $-1 -61.990417188024537 -20.204374463478082 7.030736643419762 #
straight-curve $-1 -29.442654367261579 34.265847750317604 70.357766710415149 0 0 -1 I I #
point $-1 -29.442654367261579 34.265847750317604 7.030736643419762 #
straight-curve $-1 -20.979833267257924 34.265847750317604 3.9250692714693898 -1 0 0 I I #
point $-1 -29.442654367261579 34.265847750317597 3.9250692714693969 #
point $-1 -41.959666534515847 30.926378871089806 3.6849210283873557 #
straight-curve $-1 30.158440987591366 34.265847750317604 70.357766710415149 0 0 -1 I I #
point $-1 30.158440987591366 34.265847750317604 7.030736643419762 #
straight-curve $-1 8.8207144101685486 34.265847750317604 3.9250692714693898 -1 0 0 I I #
point $-1 30.158440987591366 34.265847750317597 3.9250692714693969 #
point $-1 17.641428820337097 30.926378871089806 3.6849210283873557 #
straight-curve $-1 -54.476678701770112 -34.265847750317604 46.554708470149897 0 0 -1 I I #
point $-1 -54.476678701770112 -34.265847750317604 7.030736643419762 #
straight-curve $-1 -20.979833267257924 -34.265847750317604 3.9250692714693969 1 0 0 I I #
point $-1 -54.476678701770112 -34.265847750317604 3.9250692714693969 #
point $-1 -41.959666534515847 -30.926378871089806 3.6849210283873575 #
straight-curve $-1 5.1244166530828288 -34.265847750317604 46.554708470149897 0 0 -1 I I #
point $-1 5.1244166530828288 -34.265847750317604 7.030736643419762 #
straight-curve $-1 8.8207144101685486 -34.265847750317604 3.9250692714693969 1 0 0 I I #
point $-1 5.1244166530828288 -34.265847750317604 3.9250692714693969 #
point $-1 17.641428820337097 -30.926378871089806 3.6849210283873575 #
End-of-ACIS-data 