500 0 16 0           
7 Unknown 11 ACIS 5.0 NT 24 Thu Mar 25 20:12:37 1999 
-1 9.9999999999999995e-007 1e-010 
body $-1 $16 $-1 $17 #
body $-1 $18 $-1 $19 #
body $-1 $20 $-1 $21 #
body $-1 $22 $-1 $23 #
body $-1 $24 $-1 $25 #
body $-1 $26 $-1 $27 #
body $-1 $28 $-1 $29 #
body $-1 $30 $-1 $31 #
body $-1 $32 $-1 $33 #
body $-1 $34 $-1 $35 #
body $-1 $36 $-1 $37 #
body $-1 $38 $-1 $39 #
body $-1 $40 $-1 $41 #
body $-1 $42 $-1 $43 #
body $-1 $44 $-1 $45 #
body $-1 $46 $-1 $47 #
lump $-1 $-1 $48 $0 #
transform $-1 1 0 0 0 1 0 0 0 1 50.2249214148381 26.649542258821363 12.839960431437616 1 rotate no_reflect no_shear #
lump $-1 $-1 $49 $1 #
transform $-1 1 0 0 0 1 0 0 0 1 50.2249214148381 26.649542258821363 12.839960431437616 1 rotate no_reflect no_shear #
lump $-1 $-1 $50 $2 #
transform $-1 1 0 0 0 1 0 0 0 1 50.2249214148381 26.649542258821363 12.839960431437616 1 rotate no_reflect no_shear #
lump $-1 $-1 $51 $3 #
transform $-1 1 0 0 0 1 0 0 0 1 50.2249214148381 26.649542258821363 12.839960431437616 1 rotate no_reflect no_shear #
lump $-1 $-1 $52 $4 #
transform $-1 1 0 0 0 1 0 0 0 1 50.2249214148381 26.649542258821363 12.839960431437616 1 rotate no_reflect no_shear #
lump $-1 $-1 $53 $5 #
transform $-1 1 0 0 0 1 0 0 0 1 50.2249214148381 26.649542258821363 12.839960431437616 1 rotate no_reflect no_shear #
lump $-1 $-1 $54 $6 #
transform $-1 1 0 0 0 1 0 0 0 1 50.2249214148381 26.649542258821363 12.839960431437616 1 rotate no_reflect no_shear #
lump $-1 $-1 $55 $7 #
transform $-1 1 0 0 0 1 0 0 0 1 50.2249214148381 26.649542258821363 12.839960431437616 1 rotate no_reflect no_shear #
lump $-1 $-1 $56 $8 #
transform $-1 1 0 0 0 1 0 0 0 1 50.2249214148381 26.649542258821363 12.839960431437616 1 rotate no_reflect no_shear #
lump $-1 $-1 $57 $9 #
transform $-1 1 0 0 0 1 0 0 0 1 50.2249214148381 26.649542258821363 12.839960431437616 1 rotate no_reflect no_shear #
lump $-1 $-1 $58 $10 #
transform $-1 1 0 0 0 1 0 0 0 1 50.2249214148381 26.649542258821363 12.839960431437616 1 rotate no_reflect no_shear #
lump $-1 $-1 $59 $11 #
transform $-1 1 0 0 0 1 0 0 0 1 50.2249214148381 26.649542258821363 12.839960431437616 1 rotate no_reflect no_shear #
lump $-1 $-1 $60 $12 #
transform $-1 1 0 0 0 1 0 0 0 1 50.2249214148381 26.649542258821363 12.839960431437616 1 rotate no_reflect no_shear #
lump $-1 $-1 $61 $13 #
transform $-1 1 0 0 0 1 0 0 0 1 50.2249214148381 26.649542258821363 12.839960431437616 1 rotate no_reflect no_shear #
lump $-1 $-1 $62 $14 #
transform $-1 1 0 0 0 1 0 0 0 1 50.2249214148381 26.649542258821363 12.839960431437616 1 rotate no_reflect no_shear #
lump $-1 $-1 $63 $15 #
transform $-1 1 0 0 0 1 0 0 0 1 50.2249214148381 26.649542258821363 12.839960431437616 1 rotate no_reflect no_shear #
shell $-1 $-1 $-1 $64 $-1 $16 #
shell $-1 $-1 $-1 $65 $-1 $18 #
shell $-1 $-1 $-1 $66 $-1 $20 #
shell $-1 $-1 $-1 $67 $-1 $22 #
shell $-1 $-1 $-1 $68 $-1 $24 #
shell $-1 $-1 $-1 $69 $-1 $26 #
shell $-1 $-1 $-1 $70 $-1 $28 #
shell $-1 $-1 $-1 $71 $-1 $30 #
shell $-1 $-1 $-1 $72 $-1 $32 #
shell $-1 $-1 $-1 $73 $-1 $34 #
shell $-1 $-1 $-1 $74 $-1 $36 #
shell $-1 $-1 $-1 $75 $-1 $38 #
shell $-1 $-1 $-1 $76 $-1 $40 #
shell $-1 $-1 $-1 $77 $-1 $42 #
shell $-1 $-1 $-1 $78 $-1 $44 #
shell $-1 $-1 $-1 $79 $-1 $46 #
face $-1 $80 $81 $48 $-1 $82 forward single #
face $-1 $83 $84 $49 $-1 $85 forward single #
face $-1 $86 $87 $50 $-1 $88 reversed single #
face $-1 $89 $90 $51 $-1 $91 forward single #
face $-1 $92 $93 $52 $-1 $94 forward single #
face $-1 $95 $96 $53 $-1 $97 reversed single #
face $-1 $98 $99 $54 $-1 $100 forward single #
face $-1 $101 $102 $55 $-1 $103 forward single #
face $-1 $104 $105 $56 $-1 $106 reversed single #
face $-1 $107 $108 $57 $-1 $109 forward single #
face $-1 $110 $111 $58 $-1 $112 forward single #
face $-1 $113 $114 $59 $-1 $115 forward single #
face $-1 $116 $117 $60 $-1 $118 reversed single #
face $-1 $119 $120 $61 $-1 $121 forward single #
face $-1 $122 $123 $62 $-1 $124 forward single #
face $-1 $125 $126 $63 $-1 $127 forward single #
face $-1 $128 $129 $48 $-1 $130 reversed single #
loop $-1 $-1 $131 $64 #
plane-surface $-1 0 0 12.839960431437616 0 0 1 1 0 0 forward_v I I I I #
face $-1 $132 $133 $49 $-1 $134 reversed single #
loop $-1 $-1 $135 $65 #
plane-surface $-1 -50.2249214148381 0 0 1 0 0 0 0 -1 forward_v I I I I #
face $-1 $136 $137 $50 $-1 $138 reversed single #
loop $-1 $-1 $139 $66 #
plane-surface $-1 6.1380826012050598 -93.863607308469852 80.29473789455372 -1 0 0 0 -0.66913061440640931 0.74314481823134659 forward_v I I I I #
face $-1 $140 $141 $51 $-1 $142 forward single #
loop $-1 $143 $144 $67 #
cone-surface $-1 -1.9418167888986204 -22.240644706684346 8.7831400539248659 0 0.66913061440640931 -0.74314481823134659 1 0 0 1 I I 0 1 1 forward I I I I #
face $-1 $145 $146 $52 $-1 $147 forward single #
loop $-1 $148 $149 $68 #
cone-surface $-1 2.906122845163587 -22.240644706684346 8.7831400539248659 0 0.66913061440640931 -0.74314481823134659 1 0 0 1 I I 0 1 1 forward I I I I #
face $-1 $150 $151 $53 $-1 $152 reversed single #
loop $-1 $-1 $153 $69 #
plane-surface $-1 17.449941747350227 -93.863607308469852 80.29473789455372 -1 0 0 0 -0.66913061440640931 0.74314481823134659 forward_v I I I I #
face $-1 $154 $155 $54 $-1 $156 forward single #
loop $-1 $157 $158 $70 #
cone-surface $-1 9.3700423572465468 -22.240644706684346 8.7831400539248659 0 0.66913061440640931 -0.74314481823134659 1 0 0 1 I I 0 1 1 forward I I I I #
face $-1 $159 $160 $55 $-1 $161 forward single #
loop $-1 $162 $163 $71 #
cone-surface $-1 14.217981991308754 -22.240644706684346 8.7831400539248659 0 0.66913061440640931 -0.74314481823134659 1 0 0 1 I I 0 1 1 forward I I I I #
face $-1 $164 $165 $56 $-1 $166 reversed single #
loop $-1 $-1 $167 $72 #
plane-surface $-1 -3.8825341605459336 85.300806490653486 98.458063684166817 1 0 0 0 -0.85716730853699208 -0.51503806187062418 forward_v I I I I #
face $-1 $168 $169 $57 $-1 $170 forward single #
loop $-1 $171 $172 $73 #
cone-surface $-1 -1.8784108081957314 22.321058060188353 6.4680850835937473 0 -0.85716730853699208 -0.51503806187062418 0.5 0 0 1 I I 0 1 0.5 forward I I I I #
face $-1 $173 $174 $58 $-1 $175 forward single #
loop $-1 $176 $177 $74 #
cone-surface $-1 1.1277742203295631 22.321058060188353 6.4680850835937473 0 -0.85716730853699208 -0.51503806187062418 0.5 0 0 1 I I 0 1 0.5 forward I I I I #
face $-1 $178 $179 $59 $-1 $180 forward single #
loop $-1 $181 $182 $75 #
cone-surface $-1 4.1339592488548575 22.321058060188353 6.4680850835937473 0 -0.85716730853699208 -0.51503806187062418 0.5 0 0 1 I I 0 1 0.5 forward I I I I #
face $-1 $183 $184 $60 $-1 $185 reversed single #
loop $-1 $-1 $186 $76 #
plane-surface $-1 1.1277742203295631 -0.80151493062393797 46.722571317961574 0 0.85716730853699208 0.51503806187062418 1 0 0 forward_v I I I I #
face $-1 $187 $188 $61 $-1 $189 forward single #
loop $-1 $190 $191 $77 #
cone-surface $-1 8.1422059535552549 22.321058060188353 6.4680850835937473 0 -0.85716730853699208 -0.51503806187062418 0.5 0 0 1 I I 0 1 0.5 forward I I I I #
face $-1 $192 $193 $62 $-1 $194 forward single #
loop $-1 $195 $196 $78 #
cone-surface $-1 11.148390982080549 22.321058060188353 6.4680850835937473 0 -0.85716730853699208 -0.51503806187062418 0.5 0 0 1 I I 0 1 0.5 forward I I I I #
face $-1 $197 $198 $63 $-1 $199 forward single #
loop $-1 $200 $201 $79 #
cone-surface $-1 14.154576010605844 22.321058060188353 6.4680850835937473 0 -0.85716730853699208 -0.51503806187062418 0.5 0 0 1 I I 0 1 0.5 forward I I I I #
face $-1 $202 $203 $48 $-1 $204 reversed single #
loop $-1 $-1 $205 $80 #
plane-surface $-1 0 0 -12.839960431437616 0 0 1 1 0 0 forward_v I I I I #
coedge $-1 $206 $207 $208 $209 forward $81 $-1 #
face $-1 $210 $211 $49 $-1 $212 reversed single #
loop $-1 $-1 $213 $83 #
plane-surface $-1 0 0 -12.839960431437616 0 0 1 1 0 0 forward_v I I I I #
coedge $-1 $214 $215 $216 $217 forward $84 $-1 #
face $-1 $218 $219 $50 $-1 $220 reversed single #
loop $-1 $-1 $221 $86 #
plane-surface $-1 0.48215302813247973 -26.64954225882137 5.6459577035266619 0 -0.66913061440640931 0.74314481823134659 1 0 0 forward_v I I I I #
coedge $-1 $222 $223 $224 $225 reversed $87 $-1 #
face $-1 $-1 $226 $51 $-1 $227 forward single #
loop $-1 $228 $229 $89 #
cone-surface $-1 -1.9418167888986204 -21.492056491012782 7.9517486312519114 0 0.66913061440640931 -0.74314481823134659 0.5 0 0 1 I I -0.70710678118654746 0.70710678118654746 0.5 forward I I I I #
loop $-1 $-1 $230 $67 #
coedge $-1 $144 $144 $231 $232 reversed $90 $-1 #
face $-1 $-1 $233 $52 $-1 $234 forward single #
loop $-1 $235 $236 $92 #
cone-surface $-1 2.906122845163587 -21.492056491012782 7.9517486312519114 0 0.66913061440640931 -0.74314481823134659 0.5 0 0 1 I I -0.70710678118654746 0.70710678118654746 0.5 forward I I I I #
loop $-1 $-1 $237 $68 #
coedge $-1 $149 $149 $238 $239 reversed $93 $-1 #
face $-1 $240 $241 $53 $-1 $242 forward single #
loop $-1 $-1 $243 $95 #
plane-surface $-1 0.48215302813247973 -26.64954225882137 5.6459577035266619 0 -0.66913061440640931 0.74314481823134659 1 0 0 forward_v I I I I #
coedge $-1 $244 $245 $246 $247 reversed $96 $-1 #
face $-1 $-1 $248 $54 $-1 $249 forward single #
loop $-1 $250 $251 $98 #
cone-surface $-1 9.3700423572465468 -21.492056491012782 7.9517486312519114 0 0.66913061440640931 -0.74314481823134659 0.5 0 0 1 I I -0.70710678118654746 0.70710678118654746 0.5 forward I I I I #
loop $-1 $-1 $252 $70 #
coedge $-1 $158 $158 $253 $254 reversed $99 $-1 #
face $-1 $-1 $255 $55 $-1 $256 forward single #
loop $-1 $257 $258 $101 #
cone-surface $-1 14.217981991308754 -21.492056491012782 7.9517486312519114 0 0.66913061440640931 -0.74314481823134659 0.5 0 0 1 I I -0.70710678118654746 0.70710678118654746 0.5 forward I I I I #
loop $-1 $-1 $259 $71 #
coedge $-1 $163 $163 $260 $261 reversed $102 $-1 #
face $-1 $262 $263 $56 $-1 $264 reversed single #
loop $-1 $-1 $265 $104 #
plane-surface $-1 1.1277742203295631 -0.80151493062393797 46.722571317961574 0 0.85716730853699208 0.51503806187062418 1 0 0 forward_v I I I I #
coedge $-1 $266 $267 $268 $269 reversed $105 $-1 #
face $-1 $-1 $270 $57 $-1 $271 forward single #
loop $-1 $272 $273 $107 #
cone-surface $-1 -1.8784108081957314 21.32444770412927 5.8692611887569885 0 -0.85716730853699208 -0.51503806187062418 0.25 0 0 1 I I -0.70710678118654746 0.70710678118654746 0.25 forward I I I I #
loop $-1 $-1 $274 $73 #
coedge $-1 $172 $172 $275 $276 reversed $108 $-1 #
face $-1 $-1 $277 $58 $-1 $278 forward single #
loop $-1 $279 $280 $110 #
cone-surface $-1 1.1277742203295631 21.32444770412927 5.8692611887569885 0 -0.85716730853699208 -0.51503806187062418 0.25 0 0 1 I I -0.70710678118654746 0.70710678118654746 0.25 forward I I I I #
loop $-1 $-1 $281 $74 #
coedge $-1 $177 $177 $282 $283 reversed $111 $-1 #
face $-1 $-1 $284 $59 $-1 $285 forward single #
loop $-1 $286 $287 $113 #
cone-surface $-1 4.1339592488548575 21.32444770412927 5.8692611887569885 0 -0.85716730853699208 -0.51503806187062418 0.25 0 0 1 I I -0.70710678118654746 0.70710678118654746 0.25 forward I I I I #
loop $-1 $-1 $288 $75 #
coedge $-1 $182 $182 $289 $290 reversed $114 $-1 #
face $-1 $291 $292 $60 $-1 $293 forward single #
loop $-1 $-1 $294 $116 #
plane-surface $-1 16.158699362956046 85.300806490653486 98.458063684166817 -1 0 0 0 0.85716730853699208 0.51503806187062418 forward_v I I I I #
coedge $-1 $295 $296 $297 $298 reversed $117 $-1 #
face $-1 $-1 $299 $61 $-1 $300 forward single #
loop $-1 $301 $302 $119 #
cone-surface $-1 8.1422059535552549 21.32444770412927 5.8692611887569885 0 -0.85716730853699208 -0.51503806187062418 0.25 0 0 1 I I -0.70710678118654746 0.70710678118654746 0.25 forward I I I I #
loop $-1 $-1 $303 $77 #
coedge $-1 $191 $191 $304 $305 reversed $120 $-1 #
face $-1 $-1 $306 $62 $-1 $307 forward single #
loop $-1 $308 $309 $122 #
cone-surface $-1 11.148390982080549 21.32444770412927 5.8692611887569885 0 -0.85716730853699208 -0.51503806187062418 0.25 0 0 1 I I -0.70710678118654746 0.70710678118654746 0.25 forward I I I I #
loop $-1 $-1 $310 $78 #
coedge $-1 $196 $196 $311 $312 reversed $123 $-1 #
face $-1 $-1 $313 $63 $-1 $314 forward single #
loop $-1 $315 $316 $125 #
cone-surface $-1 14.154576010605844 21.32444770412927 5.8692611887569885 0 -0.85716730853699208 -0.51503806187062418 0.25 0 0 1 I I -0.70710678118654746 0.70710678118654746 0.25 forward I I I I #
loop $-1 $-1 $317 $79 #
coedge $-1 $201 $201 $318 $319 reversed $126 $-1 #
face $-1 $320 $321 $48 $-1 $322 reversed single #
loop $-1 $-1 $323 $128 #
plane-surface $-1 0 -26.649542258821363 0 0 1 0 0 0 1 forward_v I I I I #
coedge $-1 $324 $325 $326 $327 forward $129 $-1 #
coedge $-1 $328 $131 $329 $330 forward $81 $-1 #
coedge $-1 $131 $328 $331 $332 forward $81 $-1 #
coedge $-1 $333 $334 $131 $209 reversed $335 $-1 #
edge $-1 $336 -26.649542258821363 $337 26.649542258821363 $208 $338 forward 7 unknown #
face $-1 $339 $340 $49 $-1 $341 reversed single #
loop $-1 $-1 $342 $132 #
plane-surface $-1 -56.363004016043163 -5.5067705353682204 0 0 1 0 0 0 1 forward_v I I I I #
coedge $-1 $343 $344 $215 $345 forward $133 $-1 #
coedge $-1 $346 $135 $347 $348 reversed $84 $-1 #
coedge $-1 $135 $346 $213 $345 reversed $84 $-1 #
coedge $-1 $349 $350 $135 $217 reversed $351 $-1 #
edge $-1 $352 -12.839960431437616 $353 12.839960431437616 $216 $354 forward 7 unknown #
face $-1 $355 $356 $50 $-1 $357 forward single #
loop $-1 $-1 $358 $136 #
plane-surface $-1 -5.1737765449401003 -93.863607308469852 80.29473789455372 1 0 0 0 0.66913061440640931 -0.74314481823134659 forward_v I I I I #
coedge $-1 $359 $360 $361 $362 reversed $137 $-1 #
coedge $-1 $223 $139 $363 $364 reversed $87 $-1 #
coedge $-1 $139 $222 $359 $365 reversed $87 $-1 #
coedge $-1 $361 $366 $139 $225 forward $356 $-1 #
edge $-1 $367 20.282261395413563 $368 28.272010682750885 $224 $369 forward 7 unknown #
loop $-1 $-1 $231 $140 #
plane-surface $-1 0.48215302813247973 -26.64954225882137 5.6459577035266619 0 -0.66913061440640931 0.74314481823134659 1 0 0 forward_v I I I I #
loop $-1 $-1 $370 $89 #
coedge $-1 $229 $229 $230 $371 reversed $141 $-1 #
coedge $-1 $230 $230 $229 $371 forward $143 $-1 #
coedge $-1 $231 $231 $144 $232 forward $226 $-1 #
edge $-1 $372 -1.7145172920616828e-015 $372 6.2831853071795987 $231 $373 forward 7 unknown #
loop $-1 $-1 $238 $145 #
plane-surface $-1 0.48215302813247973 -26.64954225882137 5.6459577035266619 0 -0.66913061440640931 0.74314481823134659 1 0 0 forward_v I I I I #
loop $-1 $-1 $374 $92 #
coedge $-1 $236 $236 $237 $375 reversed $146 $-1 #
coedge $-1 $237 $237 $236 $375 forward $148 $-1 #
coedge $-1 $238 $238 $149 $239 forward $233 $-1 #
edge $-1 $376 -1.7145172920616828e-015 $376 6.2831853071795987 $238 $377 forward 7 unknown #
face $-1 $378 $379 $53 $-1 $380 forward single #
loop $-1 $-1 $381 $150 #
plane-surface $-1 0 0 12.839960431437616 0 0 1 1 0 0 forward_v I I I I #
coedge $-1 $382 $383 $384 $385 reversed $151 $-1 #
coedge $-1 $245 $153 $386 $387 reversed $96 $-1 #
coedge $-1 $153 $244 $381 $388 reversed $96 $-1 #
coedge $-1 $389 $390 $153 $247 forward $391 $-1 #
edge $-1 $392 -34.501411243750191 $393 -27.307408515839242 $246 $394 forward 7 unknown #
loop $-1 $-1 $253 $154 #
plane-surface $-1 0.48215302813247973 -26.64954225882137 5.6459577035266619 0 -0.66913061440640931 0.74314481823134659 1 0 0 forward_v I I I I #
loop $-1 $-1 $395 $98 #
coedge $-1 $251 $251 $252 $396 reversed $155 $-1 #
coedge $-1 $252 $252 $251 $396 forward $157 $-1 #
coedge $-1 $253 $253 $158 $254 forward $248 $-1 #
edge $-1 $397 -1.7145172920616828e-015 $397 6.2831853071795987 $253 $398 forward 7 unknown #
loop $-1 $-1 $260 $159 #
plane-surface $-1 0.48215302813247973 -26.64954225882137 5.6459577035266619 0 -0.66913061440640931 0.74314481823134659 1 0 0 forward_v I I I I #
loop $-1 $-1 $399 $101 #
coedge $-1 $258 $258 $259 $400 reversed $160 $-1 #
coedge $-1 $259 $259 $258 $400 forward $162 $-1 #
coedge $-1 $260 $260 $163 $261 forward $255 $-1 #
edge $-1 $401 -1.7145172920616828e-015 $401 6.2831853071795987 $260 $402 forward 7 unknown #
face $-1 $403 $404 $56 $-1 $405 reversed single #
loop $-1 $-1 $406 $164 #
plane-surface $-1 6.1380826012050598 85.300806490653486 98.458063684166817 -1 0 0 0 0.85716730853699208 0.51503806187062418 forward_v I I I I #
coedge $-1 $407 $408 $409 $410 reversed $165 $-1 #
coedge $-1 $267 $167 $411 $412 reversed $105 $-1 #
coedge $-1 $167 $266 $407 $413 reversed $105 $-1 #
coedge $-1 $409 $414 $167 $269 forward $415 $-1 #
edge $-1 $416 16.00086098650538 $417 23.09319232592172 $268 $418 forward 7 unknown #
loop $-1 $-1 $275 $168 #
plane-surface $-1 1.1277742203295631 -0.80151493062393797 46.722571317961574 0 0.85716730853699208 0.51503806187062418 1 0 0 forward_v I I I I #
loop $-1 $-1 $419 $107 #
coedge $-1 $273 $273 $274 $420 reversed $169 $-1 #
coedge $-1 $274 $274 $273 $420 forward $171 $-1 #
coedge $-1 $275 $275 $172 $276 forward $270 $-1 #
edge $-1 $421 9.0833949806864129e-016 $421 6.2831853071796013 $275 $422 forward 7 unknown #
loop $-1 $-1 $282 $173 #
plane-surface $-1 1.1277742203295631 -0.80151493062393797 46.722571317961574 0 0.85716730853699208 0.51503806187062418 1 0 0 forward_v I I I I #
loop $-1 $-1 $423 $110 #
coedge $-1 $280 $280 $281 $424 reversed $174 $-1 #
coedge $-1 $281 $281 $280 $424 forward $176 $-1 #
coedge $-1 $282 $282 $177 $283 forward $277 $-1 #
edge $-1 $425 9.0833949806864129e-016 $425 6.2831853071796013 $282 $426 forward 7 unknown #
loop $-1 $-1 $289 $178 #
plane-surface $-1 1.1277742203295631 -0.80151493062393797 46.722571317961574 0 0.85716730853699208 0.51503806187062418 1 0 0 forward_v I I I I #
loop $-1 $-1 $427 $113 #
coedge $-1 $287 $287 $288 $428 reversed $179 $-1 #
coedge $-1 $288 $288 $287 $428 forward $181 $-1 #
coedge $-1 $289 $289 $182 $290 forward $284 $-1 #
edge $-1 $429 9.0833949806864129e-016 $429 6.2831853071796013 $289 $430 forward 7 unknown #
face $-1 $431 $432 $60 $-1 $433 forward single #
loop $-1 $-1 $434 $183 #
plane-surface $-1 0 0 12.839960431437616 0 0 1 1 0 0 forward_v I I I I #
coedge $-1 $435 $436 $437 $438 reversed $184 $-1 #
coedge $-1 $439 $186 $440 $441 reversed $117 $-1 #
coedge $-1 $186 $439 $434 $442 reversed $117 $-1 #
coedge $-1 $443 $444 $186 $298 forward $432 $-1 #
edge $-1 $445 -53.299084517642726 $446 -39.528585083762231 $297 $447 forward 7 unknown #
loop $-1 $-1 $304 $187 #
plane-surface $-1 1.1277742203295631 -0.80151493062393797 46.722571317961574 0 0.85716730853699208 0.51503806187062418 1 0 0 forward_v I I I I #
loop $-1 $-1 $448 $119 #
coedge $-1 $302 $302 $303 $449 reversed $188 $-1 #
coedge $-1 $303 $303 $302 $449 forward $190 $-1 #
coedge $-1 $304 $304 $191 $305 forward $299 $-1 #
edge $-1 $450 9.0833949806864129e-016 $450 6.2831853071796013 $304 $451 forward 7 unknown #
loop $-1 $-1 $311 $192 #
plane-surface $-1 1.1277742203295631 -0.80151493062393797 46.722571317961574 0 0.85716730853699208 0.51503806187062418 1 0 0 forward_v I I I I #
loop $-1 $-1 $452 $122 #
coedge $-1 $309 $309 $310 $453 reversed $193 $-1 #
coedge $-1 $310 $310 $309 $453 forward $195 $-1 #
coedge $-1 $311 $311 $196 $312 forward $306 $-1 #
edge $-1 $454 9.0833949806864129e-016 $454 6.2831853071796013 $311 $455 forward 7 unknown #
loop $-1 $-1 $318 $197 #
plane-surface $-1 1.1277742203295631 -0.80151493062393797 46.722571317961574 0 0.85716730853699208 0.51503806187062418 1 0 0 forward_v I I I I #
loop $-1 $-1 $456 $125 #
coedge $-1 $316 $316 $317 $457 reversed $198 $-1 #
coedge $-1 $317 $317 $316 $457 forward $200 $-1 #
coedge $-1 $318 $318 $201 $319 forward $313 $-1 #
edge $-1 $458 9.0833949806864129e-016 $458 6.2831853071796013 $318 $459 forward 7 unknown #
face $-1 $460 $461 $48 $-1 $462 reversed single #
loop $-1 $-1 $463 $202 #
plane-surface $-1 -50.2249214148381 0 0 1 0 0 0 0 -1 forward_v I I I I #
coedge $-1 $464 $331 $465 $466 forward $203 $-1 #
coedge $-1 $467 $205 $464 $468 forward $129 $-1 #
coedge $-1 $205 $467 $469 $470 forward $129 $-1 #
coedge $-1 $334 $333 $205 $327 reversed $335 $-1 #
edge $-1 $471 -26.649542258821363 $472 26.649542258821363 $326 $473 forward 7 unknown #
coedge $-1 $207 $206 $474 $475 forward $81 $-1 #
coedge $-1 $476 $477 $206 $330 reversed $461 $-1 #
edge $-1 $337 -50.2249214148381 $478 50.2249214148381 $329 $479 forward 7 unknown #
coedge $-1 $323 $480 $207 $332 reversed $203 $-1 #
edge $-1 $481 -50.2249214148381 $336 50.2249214148381 $331 $482 forward 7 unknown #
coedge $-1 $326 $208 $480 $483 forward $335 $-1 #
coedge $-1 $208 $326 $476 $484 reversed $335 $-1 #
loop $-1 $-1 $333 $460 #
vertex $-1 $209 $485 #
vertex $-1 $209 $486 #
straight-curve $-1 50.2249214148381 0 12.839960431437616 0 1 0 I I #
face $-1 $487 $351 $49 $-1 $488 reversed single #
loop $-1 $-1 $489 $210 #
plane-surface $-1 -62.501086617248227 -3.2381959656571766 0 1 0 0 0 0 -1 forward_v I I I I #
coedge $-1 $490 $491 $492 $493 forward $211 $-1 #
coedge $-1 $494 $213 $490 $495 forward $133 $-1 #
coedge $-1 $213 $494 $349 $496 forward $133 $-1 #
edge $-1 $352 0.96962139594613284 $497 5.5067705353682204 $213 $498 forward 7 unknown #
coedge $-1 $215 $214 $499 $500 forward $84 $-1 #
coedge $-1 $501 $502 $214 $348 forward $503 $-1 #
edge $-1 $504 -5.5067705353682204 $353 -0.96962139594613284 $347 $505 forward 7 unknown #
coedge $-1 $506 $216 $344 $496 reversed $351 $-1 #
coedge $-1 $216 $506 $501 $507 reversed $351 $-1 #
loop $-1 $-1 $216 $339 #
vertex $-1 $345 $508 #
vertex $-1 $507 $509 #
straight-curve $-1 -50.2249214148381 -0.96962139594613284 0 0 0 1 I I #
face $-1 $-1 $510 $50 $-1 $511 reversed single #
loop $-1 $-1 $224 $218 #
plane-surface $-1 0 0 12.839960431437616 0 0 1 1 0 0 forward_v I I I I #
coedge $-1 $512 $513 $514 $515 reversed $219 $-1 #
coedge $-1 $516 $221 $223 $365 forward $137 $-1 #
coedge $-1 $221 $516 $512 $517 forward $137 $-1 #
coedge $-1 $514 $224 $221 $362 forward $356 $-1 #
edge $-1 $368 -5.8970060871388199 $518 5.4148530590063402 $361 $519 forward 7 unknown #
coedge $-1 $520 $521 $222 $364 forward $510 $-1 #
edge $-1 $522 -34.501411243750191 $367 -27.307408515839242 $363 $523 forward 7 unknown #
edge $-1 $368 -10.751268247220771 $522 -9.4405131238556439e-015 $223 $524 forward 7 unknown #
coedge $-1 $224 $514 $520 $525 forward $356 $-1 #
vertex $-1 $225 $526 #
vertex $-1 $225 $527 #
straight-curve $-1 6.1380826012050598 -46.931803654234926 12.839960431437618 0 1 0 I I #
coedge $-1 $370 $370 $-1 $528 reversed $228 $-1 #
edge $-1 $529 0 $529 6.2831853071796004 $229 $530 forward 7 unknown #
vertex $-1 $232 $531 #
ellipse-curve $-1 -1.9418167888986204 -22.6546676151527 9.2429590674821416 0 -0.66913061440640931 0.74314481823134659 1 0 0 1 I I #
coedge $-1 $374 $374 $-1 $532 reversed $235 $-1 #
edge $-1 $533 0 $533 6.2831853071796004 $236 $534 forward 7 unknown #
vertex $-1 $239 $535 #
ellipse-curve $-1 2.906122845163587 -22.6546676151527 9.2429590674821416 0 -0.66913061440640931 0.74314481823134659 1 0 0 1 I I #
face $-1 $-1 $391 $53 $-1 $536 reversed single #
loop $-1 $-1 $537 $240 #
plane-surface $-1 6.1380826012050598 -93.863607308469852 80.29473789455372 -1 0 0 0 -0.66913061440640931 0.74314481823134659 forward_v I I I I #
coedge $-1 $538 $539 $245 $388 forward $241 $-1 #
coedge $-1 $386 $243 $538 $540 reversed $151 $-1 #
coedge $-1 $243 $386 $390 $541 reversed $151 $-1 #
coedge $-1 $542 $537 $243 $385 forward $379 $-1 #
edge $-1 $543 -10.751268247220771 $544 -9.4405131238556439e-015 $384 $545 forward 7 unknown #
coedge $-1 $383 $382 $244 $387 forward $151 $-1 #
edge $-1 $546 -10.751268247220771 $392 -9.4405131238556439e-015 $244 $547 forward 7 unknown #
edge $-1 $393 20.282261395413563 $546 28.272010682750885 $381 $548 forward 7 unknown #
coedge $-1 $549 $246 $539 $550 reversed $391 $-1 #
coedge $-1 $246 $549 $383 $541 forward $391 $-1 #
loop $-1 $-1 $246 $378 #
vertex $-1 $247 $551 #
vertex $-1 $388 $552 #
straight-curve $-1 17.449941747350227 -26.649542258821363 40.14736894727686 0 0 1 I I #
coedge $-1 $395 $395 $-1 $553 reversed $250 $-1 #
edge $-1 $554 0 $554 6.2831853071796004 $251 $555 forward 7 unknown #
vertex $-1 $254 $556 #
ellipse-curve $-1 9.3700423572465468 -22.6546676151527 9.2429590674821416 0 -0.66913061440640931 0.74314481823134659 1 0 0 1 I I #
coedge $-1 $399 $399 $-1 $557 reversed $257 $-1 #
edge $-1 $558 0 $558 6.2831853071796004 $258 $559 forward 7 unknown #
vertex $-1 $261 $560 #
ellipse-curve $-1 14.217981991308754 -22.6546676151527 9.2429590674821416 0 -0.66913061440640931 0.74314481823134659 1 0 0 1 I I #
face $-1 $-1 $415 $56 $-1 $561 forward single #
loop $-1 $-1 $562 $262 #
plane-surface $-1 0 26.649542258821363 0 0 -1 0 0 0 -1 forward_v I I I I #
coedge $-1 $563 $564 $565 $566 reversed $263 $-1 #
coedge $-1 $567 $265 $267 $413 forward $165 $-1 #
coedge $-1 $265 $567 $563 $568 forward $165 $-1 #
coedge $-1 $565 $268 $265 $410 forward $415 $-1 #
edge $-1 $417 -4.4464212707107151 $569 5.5741954910402782 $409 $570 forward 7 unknown #
coedge $-1 $571 $572 $266 $412 forward $404 $-1 #
edge $-1 $573 -48.192693347595309 $416 -36.389071410645791 $411 $574 forward 7 unknown #
edge $-1 $417 39.528585083762231 $573 53.299084517642726 $267 $575 forward 7 unknown #
coedge $-1 $268 $565 $571 $576 forward $415 $-1 #
loop $-1 $-1 $565 $403 #
vertex $-1 $412 $577 #
vertex $-1 $269 $578 #
straight-curve $-1 -3.8825341605459336 42.650403245326743 12.839960431437618 0 -1 0 I I #
coedge $-1 $419 $419 $-1 $579 reversed $272 $-1 #
edge $-1 $580 0 $580 6.2831853071796004 $273 $581 forward 7 unknown #
vertex $-1 $276 $582 #
ellipse-curve $-1 -1.8784108081957314 23.103376589113196 6.938149462962854 0 0.85716730853699208 0.51503806187062418 0.5 0 0 1 I I #
coedge $-1 $423 $423 $-1 $583 reversed $279 $-1 #
edge $-1 $584 0 $584 6.2831853071796004 $280 $585 forward 7 unknown #
vertex $-1 $283 $586 #
ellipse-curve $-1 1.1277742203295631 23.103376589113196 6.938149462962854 0 0.85716730853699208 0.51503806187062418 0.5 0 0 1 I I #
coedge $-1 $427 $427 $-1 $587 reversed $286 $-1 #
edge $-1 $588 0 $588 6.2831853071796004 $287 $589 forward 7 unknown #
vertex $-1 $290 $590 #
ellipse-curve $-1 4.1339592488548575 23.103376589113196 6.938149462962854 0 0.85716730853699208 0.51503806187062418 0.5 0 0 1 I I #
face $-1 $-1 $591 $60 $-1 $592 reversed single #
loop $-1 $-1 $443 $291 #
plane-surface $-1 6.1380826012050598 85.300806490653486 98.458063684166817 -1 0 0 0 0.85716730853699208 0.51503806187062418 forward_v I I I I #
coedge $-1 $437 $593 $296 $442 forward $292 $-1 #
coedge $-1 $436 $294 $439 $594 reversed $184 $-1 #
coedge $-1 $294 $435 $595 $596 reversed $184 $-1 #
coedge $-1 $597 $434 $294 $438 forward $292 $-1 #
edge $-1 $598 -23.09319232592172 $599 -16.00086098650538 $437 $600 forward 7 unknown #
coedge $-1 $296 $295 $435 $594 forward $117 $-1 #
coedge $-1 $601 $595 $295 $441 forward $591 $-1 #
edge $-1 $602 -15.594812252791264 $445 -5.5741954910402782 $440 $603 forward 7 unknown #
edge $-1 $446 5.5741954910402782 $598 15.594812252791264 $434 $604 forward 7 unknown #
coedge $-1 $444 $297 $593 $605 reversed $432 $-1 #
coedge $-1 $297 $443 $601 $606 reversed $432 $-1 #
vertex $-1 $441 $607 #
vertex $-1 $442 $608 #
straight-curve $-1 6.1380826012050598 -0.80151493062393797 46.722571317961574 0 -0.51503806187062418 0.85716730853699208 I I #
coedge $-1 $448 $448 $-1 $609 reversed $301 $-1 #
edge $-1 $610 0 $610 6.2831853071796004 $302 $611 forward 7 unknown #
vertex $-1 $305 $612 #
ellipse-curve $-1 8.1422059535552549 23.103376589113196 6.938149462962854 0 0.85716730853699208 0.51503806187062418 0.5 0 0 1 I I #
coedge $-1 $452 $452 $-1 $613 reversed $308 $-1 #
edge $-1 $614 0 $614 6.2831853071796004 $309 $615 forward 7 unknown #
vertex $-1 $312 $616 #
ellipse-curve $-1 11.148390982080549 23.103376589113196 6.938149462962854 0 0.85716730853699208 0.51503806187062418 0.5 0 0 1 I I #
coedge $-1 $456 $456 $-1 $617 reversed $315 $-1 #
edge $-1 $618 0 $618 6.2831853071796004 $316 $619 forward 7 unknown #
vertex $-1 $319 $620 #
ellipse-curve $-1 14.154576010605844 23.103376589113196 6.938149462962854 0 0.85716730853699208 0.51503806187062418 0.5 0 0 1 I I #
face $-1 $-1 $335 $48 $-1 $621 reversed single #
loop $-1 $-1 $476 $320 #
plane-surface $-1 0 26.649542258821363 0 0 -1 0 0 0 -1 forward_v I I I I #
coedge $-1 $622 $474 $477 $623 forward $321 $-1 #
coedge $-1 $480 $323 $324 $468 reversed $203 $-1 #
coedge $-1 $474 $622 $323 $466 reversed $321 $-1 #
edge $-1 $481 -12.839960431437616 $624 12.839960431437616 $465 $625 forward 7 unknown #
coedge $-1 $325 $324 $622 $626 forward $129 $-1 #
edge $-1 $472 -50.2249214148381 $624 50.2249214148381 $464 $627 forward 7 unknown #
coedge $-1 $477 $476 $325 $470 reversed $461 $-1 #
edge $-1 $628 -50.2249214148381 $471 50.2249214148381 $469 $629 forward 7 unknown #
vertex $-1 $327 $630 #
vertex $-1 $483 $631 #
straight-curve $-1 50.2249214148381 0 -12.839960431437616 0 -1 0 I I #
coedge $-1 $463 $465 $328 $475 reversed $321 $-1 #
edge $-1 $478 -26.649542258821363 $481 26.649542258821363 $474 $632 forward 7 unknown #
coedge $-1 $469 $329 $334 $484 forward $461 $-1 #
coedge $-1 $329 $469 $463 $623 reversed $461 $-1 #
vertex $-1 $330 $633 #
straight-curve $-1 0 26.649542258821363 12.839960431437616 -1 0 0 I I #
coedge $-1 $331 $464 $333 $483 reversed $203 $-1 #
vertex $-1 $475 $634 #
straight-curve $-1 0 -26.649542258821363 12.839960431437616 1 0 0 I I #
edge $-1 $336 -12.839960431437616 $472 12.839960431437616 $333 $635 forward 7 unknown #
edge $-1 $337 -12.839960431437616 $471 12.839960431437616 $334 $636 forward 7 unknown #
point $-1 50.2249214148381 -26.649542258821363 12.839960431437616 #
point $-1 50.2249214148381 26.649542258821363 12.839960431437616 #
face $-1 $-1 $503 $49 $-1 $637 forward single #
plane-surface $-1 -56.363004016043163 -0.96962139594613284 0 0 -1 0 0 0 -1 forward_v I I I I #
coedge $-1 $638 $639 $506 $640 forward $340 $-1 #
coedge $-1 $499 $342 $343 $495 reversed $211 $-1 #
coedge $-1 $342 $499 $502 $641 reversed $211 $-1 #
coedge $-1 $639 $638 $342 $493 reversed $340 $-1 #
edge $-1 $642 -12.839960431437616 $643 12.839960431437616 $492 $644 forward 7 unknown #
coedge $-1 $344 $343 $638 $645 forward $133 $-1 #
edge $-1 $497 -6.1380826012050633 $643 6.1380826012050633 $490 $646 forward 7 unknown #
edge $-1 $647 -6.1380826012050633 $352 6.1380826012050633 $349 $648 forward 7 unknown #
vertex $-1 $495 $649 #
straight-curve $-1 -50.2249214148381 0 -12.839960431437616 0 -1 0 I I #
coedge $-1 $491 $490 $346 $500 reversed $211 $-1 #
edge $-1 $504 -12.839960431437616 $497 12.839960431437616 $499 $650 forward 7 unknown #
coedge $-1 $651 $347 $350 $507 forward $503 $-1 #
coedge $-1 $347 $651 $491 $641 forward $503 $-1 #
loop $-1 $-1 $347 $487 #
vertex $-1 $348 $652 #
straight-curve $-1 -50.2249214148381 0 12.839960431437616 0 1 0 I I #
coedge $-1 $350 $349 $489 $640 reversed $351 $-1 #
edge $-1 $353 -6.1380826012050633 $653 6.1380826012050633 $350 $654 forward 7 unknown #
point $-1 -50.2249214148381 -0.96962139594613284 -12.839960431437616 #
point $-1 -50.2249214148381 -0.96962139594613284 12.839960431437616 #
loop $-1 $-1 $363 $355 #
plane-surface $-1 0 -26.649542258821363 0 0 1 0 0 0 1 forward_v I I I I #
coedge $-1 $513 $358 $360 $517 reversed $219 $-1 #
coedge $-1 $358 $512 $655 $656 reversed $219 $-1 #
coedge $-1 $366 $361 $358 $515 forward $356 $-1 #
edge $-1 $518 -28.272010682750885 $657 -20.282261395413563 $514 $658 forward 7 unknown #
coedge $-1 $360 $359 $521 $659 reversed $137 $-1 #
edge $-1 $660 9.4405131238556439e-015 $518 10.751268247220771 $512 $661 forward 7 unknown #
vertex $-1 $362 $662 #
straight-curve $-1 0.24107651406623987 -18.659792971484045 12.839960431437616 -1 0 0 I I #
coedge $-1 $655 $363 $366 $525 reversed $510 $-1 #
coedge $-1 $363 $655 $516 $659 forward $510 $-1 #
vertex $-1 $364 $663 #
straight-curve $-1 6.1380826012050598 -26.649542258821363 40.14736894727686 0 0 1 I I #
straight-curve $-1 6.1380826012050598 -26.64954225882137 5.6459577035266619 0 -0.74314481823134659 -0.66913061440640931 I I #
edge $-1 $657 -5.1737765449401003 $367 6.1380826012050598 $520 $664 forward 7 unknown #
point $-1 6.1380826012050598 -26.649542258821363 12.839960431437616 #
point $-1 6.1380826012050598 -18.659792971484041 12.839960431437616 #
edge $-1 $665 1 $665 0 $370 $-1 forward 7 unknown #
vertex $-1 $371 $666 #
ellipse-curve $-1 -1.9418167888986204 -21.826621798215989 8.3233210403675848 0 -0.66913061440640931 0.74314481823134659 1 0 0 1 I I #
point $-1 -0.94181678889862042 -22.654667615152707 9.2429590674821469 #
edge $-1 $667 1 $667 0 $374 $-1 forward 7 unknown #
vertex $-1 $375 $668 #
ellipse-curve $-1 2.906122845163587 -21.826621798215989 8.3233210403675848 0 -0.66913061440640931 0.74314481823134659 1 0 0 1 I I #
point $-1 3.906122845163587 -22.654667615152707 9.2429590674821469 #
plane-surface $-1 0 -26.649542258821363 0 0 1 0 0 0 1 forward_v I I I I #
coedge $-1 $384 $542 $669 $670 reversed $379 $-1 #
coedge $-1 $669 $381 $382 $540 forward $241 $-1 #
coedge $-1 $381 $669 $389 $550 forward $241 $-1 #
edge $-1 $546 -17.208865233283987 $543 -5.8970060871388199 $538 $671 forward 7 unknown #
edge $-1 $544 5.8970060871388199 $392 17.208865233283987 $390 $672 forward 7 unknown #
coedge $-1 $537 $384 $549 $673 reversed $379 $-1 #
vertex $-1 $540 $674 #
vertex $-1 $541 $675 #
straight-curve $-1 6.1380826012050598 -26.64954225882137 5.6459577035266619 0 -0.74314481823134659 -0.66913061440640931 I I #
vertex $-1 $388 $676 #
straight-curve $-1 17.449941747350227 -26.64954225882137 5.6459577035266619 0 -0.74314481823134659 -0.66913061440640931 I I #
straight-curve $-1 17.449941747350227 -46.931803654234926 12.839960431437618 0 1 0 I I #
coedge $-1 $390 $389 $542 $673 forward $391 $-1 #
edge $-1 $677 6.1380826012050598 $393 17.449941747350227 $389 $678 forward 7 unknown #
point $-1 17.449941747350227 -26.649542258821363 5.6459577035266681 #
point $-1 17.449941747350227 -26.649542258821363 12.839960431437616 #
edge $-1 $679 1 $679 0 $395 $-1 forward 7 unknown #
vertex $-1 $396 $680 #
ellipse-curve $-1 9.3700423572465468 -21.826621798215989 8.3233210403675848 0 -0.66913061440640931 0.74314481823134659 1 0 0 1 I I #
point $-1 10.370042357246547 -22.654667615152707 9.2429590674821469 #
edge $-1 $681 1 $681 0 $399 $-1 forward 7 unknown #
vertex $-1 $400 $682 #
ellipse-curve $-1 14.217981991308754 -21.826621798215989 8.3233210403675848 0 -0.66913061440640931 0.74314481823134659 1 0 0 1 I I #
point $-1 15.217981991308754 -22.654667615152707 9.2429590674821469 #
plane-surface $-1 0 0 12.839960431437616 0 0 1 1 0 0 forward_v I I I I #
coedge $-1 $572 $571 $564 $683 forward $404 $-1 #
coedge $-1 $564 $406 $408 $568 reversed $263 $-1 #
coedge $-1 $406 $563 $562 $683 reversed $263 $-1 #
coedge $-1 $414 $409 $406 $566 forward $415 $-1 #
edge $-1 $569 -23.09319232592172 $684 -16.00086098650538 $565 $685 forward 7 unknown #
coedge $-1 $408 $407 $572 $686 reversed $165 $-1 #
edge $-1 $687 -53.299084517642726 $569 -39.528585083762231 $563 $688 forward 7 unknown #
vertex $-1 $410 $689 #
straight-curve $-1 0.56388711016478155 19.557210919405023 12.839960431437614 1 0 0 I I #
coedge $-1 $562 $411 $414 $576 reversed $404 $-1 #
coedge $-1 $411 $562 $567 $686 forward $404 $-1 #
vertex $-1 $412 $690 #
straight-curve $-1 -3.8825341605459336 26.649542258821363 49.229031842083408 0 0 1 I I #
straight-curve $-1 -3.8825341605459336 -0.80151493062393797 46.722571317961574 0 0.51503806187062418 -0.85716730853699208 I I #
edge $-1 $684 -6.1380826012050598 $416 3.8825341605459336 $571 $691 forward 7 unknown #
point $-1 -3.8825341605459336 26.649542258821363 12.839960431437616 #
point $-1 -3.8825341605459336 19.557210919405023 12.839960431437618 #
edge $-1 $692 1 $692 0 $419 $-1 forward 7 unknown #
vertex $-1 $420 $693 #
ellipse-curve $-1 -1.8784108081957314 21.538739531263516 5.9980207042246443 0 0.85716730853699208 0.51503806187062418 0.5 0 0 1 I I #
point $-1 -1.3784108081957314 23.103376589113193 6.9381494629628513 #
edge $-1 $694 1 $694 0 $423 $-1 forward 7 unknown #
vertex $-1 $424 $695 #
ellipse-curve $-1 1.1277742203295631 21.538739531263516 5.9980207042246443 0 0.85716730853699208 0.51503806187062418 0.5 0 0 1 I I #
point $-1 1.6277742203295631 23.103376589113193 6.9381494629628513 #
edge $-1 $696 1 $696 0 $427 $-1 forward 7 unknown #
vertex $-1 $428 $697 #
ellipse-curve $-1 4.1339592488548575 21.538739531263516 5.9980207042246443 0 0.85716730853699208 0.51503806187062418 0.5 0 0 1 I I #
point $-1 4.6339592488548575 23.103376589113193 6.9381494629628513 #
loop $-1 $-1 $440 $431 #
plane-surface $-1 0 26.649542258821363 0 0 -1 0 0 0 -1 forward_v I I I I #
coedge $-1 $434 $597 $443 $605 forward $292 $-1 #
edge $-1 $602 -53.299084517642726 $598 -39.528585083762231 $435 $698 forward 7 unknown #
coedge $-1 $440 $699 $436 $596 forward $591 $-1 #
edge $-1 $599 36.389071410645791 $602 48.192693347595309 $595 $700 forward 7 unknown #
coedge $-1 $593 $437 $699 $701 forward $292 $-1 #
vertex $-1 $438 $702 #
vertex $-1 $701 $703 #
straight-curve $-1 16.158699362956046 42.650403245326743 12.839960431437618 0 1 0 I I #
coedge $-1 $699 $440 $444 $606 forward $591 $-1 #
vertex $-1 $596 $704 #
straight-curve $-1 0.56388711016478155 26.649542258821363 1.036338494488092 -1 0 0 I I #
straight-curve $-1 0.56388711016478155 19.557210919405023 12.839960431437614 1 0 0 I I #
edge $-1 $705 16.00086098650538 $446 23.09319232592172 $593 $706 forward 7 unknown #
edge $-1 $445 -48.192693347595309 $705 -36.389071410645791 $601 $707 forward 7 unknown #
point $-1 6.1380826012050598 26.649542258821363 1.0363384944880991 #
point $-1 6.1380826012050598 19.557210919405023 12.839960431437618 #
edge $-1 $708 1 $708 0 $448 $-1 forward 7 unknown #
vertex $-1 $449 $709 #
ellipse-curve $-1 8.1422059535552549 21.538739531263516 5.9980207042246443 0 0.85716730853699208 0.51503806187062418 0.5 0 0 1 I I #
point $-1 8.6422059535552549 23.103376589113193 6.9381494629628513 #
edge $-1 $710 1 $710 0 $452 $-1 forward 7 unknown #
vertex $-1 $453 $711 #
ellipse-curve $-1 11.148390982080549 21.538739531263516 5.9980207042246443 0 0.85716730853699208 0.51503806187062418 0.5 0 0 1 I I #
point $-1 11.648390982080549 23.103376589113193 6.9381494629628513 #
edge $-1 $712 1 $712 0 $456 $-1 forward 7 unknown #
vertex $-1 $457 $713 #
ellipse-curve $-1 14.154576010605844 21.538739531263516 5.9980207042246443 0 0.85716730853699208 0.51503806187062418 0.5 0 0 1 I I #
point $-1 14.654576010605844 23.103376589113193 6.9381494629628513 #
plane-surface $-1 50.2249214148381 0 0 -1 0 0 0 0 1 forward_v I I I I #
coedge $-1 $465 $463 $467 $626 reversed $321 $-1 #
edge $-1 $478 -12.839960431437616 $628 12.839960431437616 $477 $714 forward 7 unknown #
vertex $-1 $626 $715 #
straight-curve $-1 -50.2249214148381 -26.649542258821363 0 0 0 -1 I I #
edge $-1 $624 -26.649542258821363 $628 26.649542258821363 $622 $716 forward 7 unknown #
straight-curve $-1 0 -26.649542258821363 -12.839960431437616 -1 0 0 I I #
vertex $-1 $470 $717 #
straight-curve $-1 0 26.649542258821363 -12.839960431437616 1 0 0 I I #
point $-1 50.2249214148381 26.649542258821363 -12.839960431437616 #
point $-1 50.2249214148381 -26.649542258821363 -12.839960431437616 #
straight-curve $-1 -50.2249214148381 0 12.839960431437616 0 -1 0 I I #
point $-1 -50.2249214148381 26.649542258821363 12.839960431437616 #
point $-1 -50.2249214148381 -26.649542258821363 12.839960431437616 #
straight-curve $-1 50.2249214148381 -26.649542258821363 0 0 0 -1 I I #
straight-curve $-1 50.2249214148381 26.649542258821363 0 0 0 -1 I I #
plane-surface $-1 0 0 12.839960431437616 0 0 1 1 0 0 forward_v I I I I #
coedge $-1 $492 $489 $494 $645 reversed $340 $-1 #
coedge $-1 $489 $492 $651 $718 reversed $340 $-1 #
edge $-1 $653 -12.839960431437616 $647 12.839960431437616 $506 $719 forward 7 unknown #
edge $-1 $642 -6.1380826012050633 $504 6.1380826012050633 $491 $720 forward 7 unknown #
vertex $-1 $718 $721 #
vertex $-1 $645 $722 #
straight-curve $-1 -62.501086617248227 -5.5067705353682204 0 0 0 -1 I I #
edge $-1 $643 -2.2685745697110438 $647 2.2685745697110438 $638 $723 forward 7 unknown #
straight-curve $-1 -56.363004016043163 -5.5067705353682204 -12.839960431437616 -1 0 0 I I #
vertex $-1 $496 $724 #
straight-curve $-1 -56.363004016043163 -0.96962139594613284 -12.839960431437616 1 0 0 I I #
point $-1 -50.2249214148381 -5.5067705353682204 -12.839960431437616 #
straight-curve $-1 -50.2249214148381 -5.5067705353682204 0 0 0 -1 I I #
coedge $-1 $502 $501 $639 $718 forward $503 $-1 #
point $-1 -50.2249214148381 -5.5067705353682204 12.839960431437616 #
vertex $-1 $507 $725 #
straight-curve $-1 -56.363004016043163 -0.96962139594613284 12.839960431437616 -1 0 0 I I #
coedge $-1 $521 $520 $513 $656 forward $510 $-1 #
edge $-1 $657 27.307408515839242 $660 34.501411243750191 $655 $726 forward 7 unknown #
vertex $-1 $525 $727 #
straight-curve $-1 -5.1737765449401003 -46.931803654234926 12.839960431437618 0 -1 0 I I #
edge $-1 $660 -5.4148530590063402 $522 5.8970060871388199 $521 $728 forward 7 unknown #
vertex $-1 $659 $729 #
straight-curve $-1 -5.1737765449401003 -26.64954225882137 5.6459577035266619 0 0.74314481823134659 0.66913061440640931 I I #
point $-1 -5.1737765449401003 -18.659792971484041 12.839960431437616 #
point $-1 6.1380826012050598 -26.649542258821363 5.6459577035266681 #
straight-curve $-1 0 -26.649542258821363 12.839960431437616 1 0 0 I I #
vertex $-1 $528 $730 #
point $-1 -0.94181678889862042 -21.826621798215989 8.3233210403675848 #
vertex $-1 $532 $731 #
point $-1 3.906122845163587 -21.826621798215989 8.3233210403675848 #
coedge $-1 $539 $538 $537 $670 forward $241 $-1 #
edge $-1 $543 -28.272010682750885 $677 -20.282261395413563 $669 $732 forward 7 unknown #
straight-curve $-1 0.24107651406623987 -18.659792971484045 12.839960431437616 -1 0 0 I I #
straight-curve $-1 0.24107651406623987 -26.649542258821363 5.645957703526669 1 0 0 I I #
edge $-1 $677 27.307408515839242 $544 34.501411243750191 $549 $733 forward 7 unknown #
point $-1 6.1380826012050598 -18.659792971484041 12.839960431437616 #
point $-1 6.1380826012050598 -26.649542258821363 5.6459577035266681 #
point $-1 17.449941747350227 -18.659792971484041 12.839960431437616 #
vertex $-1 $550 $734 #
straight-curve $-1 0 -26.649542258821363 12.839960431437616 1 0 0 I I #
vertex $-1 $553 $735 #
point $-1 10.370042357246547 -21.826621798215989 8.3233210403675848 #
vertex $-1 $557 $736 #
point $-1 15.217981991308754 -21.826621798215989 8.3233210403675848 #
edge $-1 $684 36.389071410645791 $687 48.192693347595309 $562 $737 forward 7 unknown #
vertex $-1 $576 $738 #
straight-curve $-1 6.1380826012050598 42.650403245326743 12.839960431437618 0 1 0 I I #
edge $-1 $687 -5.5741954910402782 $573 4.4464212707107151 $572 $739 forward 7 unknown #
vertex $-1 $686 $740 #
straight-curve $-1 6.1380826012050598 -0.80151493062393797 46.722571317961574 0 -0.51503806187062418 0.85716730853699208 I I #
point $-1 6.1380826012050598 19.557210919405023 12.839960431437618 #
point $-1 -3.8825341605459336 26.649542258821363 1.0363384944880991 #
straight-curve $-1 0 26.649542258821363 12.839960431437616 -1 0 0 I I #
vertex $-1 $579 $741 #
point $-1 -1.3784108081957314 21.538739531263516 5.9980207042246443 #
vertex $-1 $583 $742 #
point $-1 1.6277742203295631 21.538739531263516 5.9980207042246443 #
vertex $-1 $587 $743 #
point $-1 4.6339592488548575 21.538739531263516 5.9980207042246443 #
straight-curve $-1 16.158699362956046 -0.80151493062393797 46.722571317961574 0 -0.51503806187062418 0.85716730853699208 I I #
coedge $-1 $595 $601 $597 $701 reversed $591 $-1 #
straight-curve $-1 16.158699362956046 26.649542258821363 49.229031842083408 0 0 -1 I I #
edge $-1 $599 -16.158699362956046 $705 -6.1380826012050598 $699 $744 forward 7 unknown #
point $-1 16.158699362956046 19.557210919405023 12.839960431437618 #
point $-1 16.158699362956046 26.649542258821363 12.839960431437616 #
point $-1 16.158699362956046 26.649542258821363 1.0363384944880991 #
vertex $-1 $606 $745 #
straight-curve $-1 6.1380826012050598 42.650403245326743 12.839960431437618 0 -1 0 I I #
straight-curve $-1 6.1380826012050598 26.649542258821363 49.229031842083408 0 0 1 I I #
vertex $-1 $609 $746 #
point $-1 8.6422059535552549 21.538739531263516 5.9980207042246443 #
vertex $-1 $613 $747 #
point $-1 11.648390982080549 21.538739531263516 5.9980207042246443 #
vertex $-1 $617 $748 #
point $-1 14.654576010605844 21.538739531263516 5.9980207042246443 #
straight-curve $-1 -50.2249214148381 26.649542258821363 0 0 0 -1 I I #
point $-1 -50.2249214148381 -26.649542258821363 -12.839960431437616 #
straight-curve $-1 -50.2249214148381 0 -12.839960431437616 0 1 0 I I #
point $-1 -50.2249214148381 26.649542258821363 -12.839960431437616 #
edge $-1 $653 -2.2685745697110438 $642 2.2685745697110438 $639 $749 forward 7 unknown #
straight-curve $-1 -62.501086617248227 -0.96962139594613284 0 0 0 -1 I I #
straight-curve $-1 -56.363004016043163 -5.5067705353682204 12.839960431437616 1 0 0 I I #
point $-1 -62.501086617248227 -5.5067705353682204 12.839960431437616 #
point $-1 -62.501086617248227 -5.5067705353682204 -12.839960431437616 #
straight-curve $-1 -62.501086617248227 -3.2381959656571766 -12.839960431437616 0 1 0 I I #
point $-1 -62.501086617248227 -0.96962139594613284 -12.839960431437616 #
point $-1 -62.501086617248227 -0.96962139594613284 12.839960431437616 #
straight-curve $-1 -5.1737765449401003 -26.649542258821363 40.14736894727686 0 0 -1 I I #
point $-1 -5.1737765449401003 -26.649542258821363 12.839960431437616 #
straight-curve $-1 0.24107651406623987 -26.649542258821363 5.645957703526669 1 0 0 I I #
point $-1 -5.1737765449401003 -26.649542258821363 5.6459577035266681 #
point $-1 -1.9418167888986204 -21.157491183809576 7.5801762221362381 #
point $-1 2.906122845163587 -21.157491183809576 7.5801762221362381 #
straight-curve $-1 6.1380826012050598 -46.931803654234926 12.839960431437618 0 -1 0 I I #
straight-curve $-1 6.1380826012050598 -26.649542258821363 40.14736894727686 0 0 -1 I I #
point $-1 6.1380826012050598 -26.649542258821363 12.839960431437616 #
point $-1 9.3700423572465468 -21.157491183809576 7.5801762221362381 #
point $-1 14.217981991308754 -21.157491183809576 7.5801762221362381 #
straight-curve $-1 6.1380826012050598 26.649542258821363 49.229031842083408 0 0 -1 I I #
point $-1 6.1380826012050598 26.649542258821363 12.839960431437616 #
straight-curve $-1 0.56388711016478155 26.649542258821363 1.036338494488092 -1 0 0 I I #
point $-1 6.1380826012050598 26.649542258821363 1.0363384944880991 #
point $-1 -1.8784108081957314 21.110155876995023 5.7405016732893328 #
point $-1 1.1277742203295631 21.110155876995023 5.7405016732893328 #
point $-1 4.1339592488548575 21.110155876995023 5.7405016732893328 #
straight-curve $-1 0 26.649542258821363 12.839960431437616 -1 0 0 I I #
point $-1 6.1380826012050598 26.649542258821363 12.839960431437616 #
point $-1 8.1422059535552549 21.110155876995023 5.7405016732893328 #
point $-1 11.148390982080549 21.110155876995023 5.7405016732893328 #
point $-1 14.154576010605844 21.110155876995023 5.7405016732893328 #
straight-curve $-1 -62.501086617248227 -3.2381959656571766 12.839960431437616 0 -1 0 I I #
End-of-ACIS-data 