500 0 7 0           
7 Unknown 11 ACIS 5.0 NT 24 Thu Mar 25 23:47:16 1999 
-1 9.9999999999999995e-007 1e-010 
body $-1 $7 $-1 $8 #
body $-1 $9 $-1 $10 #
body $-1 $11 $-1 $12 #
body $-1 $13 $-1 $14 #
body $-1 $15 $-1 $16 #
body $-1 $17 $-1 $18 #
body $-1 $19 $-1 $20 #
lump $-1 $-1 $21 $0 #
transform $-1 1 0 0 0 1 0 0 0 1 54.264351329081087 26.889065011288519 6.0991328711783437 1 rotate no_reflect no_shear #
lump $-1 $-1 $22 $1 #
transform $-1 1 0 0 0 1 0 0 0 1 54.264351329081087 26.889065011288519 6.0991328711783437 1 rotate no_reflect no_shear #
lump $-1 $-1 $23 $2 #
transform $-1 1 0 0 0 1 0 0 0 1 54.264351329081087 26.889065011288519 6.0991328711783437 1 rotate no_reflect no_shear #
lump $-1 $-1 $24 $3 #
transform $-1 1 0 0 0 1 0 0 0 1 54.264351329081087 26.889065011288519 6.0991328711783437 1 rotate no_reflect no_shear #
lump $-1 $-1 $25 $4 #
transform $-1 1 0 0 0 1 0 0 0 1 54.264351329081087 26.889065011288519 6.0991328711783437 1 rotate no_reflect no_shear #
lump $-1 $-1 $26 $5 #
transform $-1 1 0 0 0 1 0 0 0 1 54.264351329081087 26.889065011288519 6.0991328711783437 1 rotate no_reflect no_shear #
lump $-1 $-1 $27 $6 #
transform $-1 1 0 0 0 1 0 0 0 1 54.264351329081087 26.889065011288519 6.0991328711783437 1 rotate no_reflect no_shear #
shell $-1 $-1 $-1 $28 $-1 $7 #
shell $-1 $-1 $-1 $29 $-1 $9 #
shell $-1 $-1 $-1 $30 $-1 $11 #
shell $-1 $-1 $-1 $31 $-1 $13 #
shell $-1 $-1 $-1 $32 $-1 $15 #
shell $-1 $-1 $-1 $33 $-1 $17 #
shell $-1 $-1 $-1 $34 $-1 $19 #
face $-1 $35 $36 $21 $-1 $37 forward single #
face $-1 $38 $39 $22 $-1 $40 forward single #
face $-1 $41 $42 $23 $-1 $43 forward single #
face $-1 $44 $45 $24 $-1 $46 reversed single #
face $-1 $47 $48 $25 $-1 $49 forward single #
face $-1 $50 $51 $26 $-1 $52 forward single #
face $-1 $53 $54 $27 $-1 $55 forward single #
face $-1 $56 $57 $21 $-1 $58 reversed single #
loop $-1 $-1 $59 $28 #
plane-surface $-1 0 0 6.0991328711783437 0 0 1 1 0 0 forward_v I I I I #
face $-1 $60 $61 $22 $-1 $62 reversed single #
loop $-1 $-1 $63 $29 #
plane-surface $-1 0 -24.759766463261506 -3.0991328711783437 0 0 1 1 0 0 forward_v I I I I #
face $-1 $64 $65 $23 $-1 $66 reversed single #
loop $-1 $-1 $67 $30 #
plane-surface $-1 0 26.889065011288519 0 0 -1 0 0 0 -1 forward_v I I I I #
face $-1 $68 $69 $24 $-1 $70 reversed single #
loop $-1 $-1 $71 $31 #
plane-surface $-1 96.569936663099497 20.450370870186909 149.12918114853809 0 -1 0 -0.87461971476443456 0 -0.48480960649040278 forward_v I I I I #
face $-1 $72 $73 $25 $-1 $74 forward single #
loop $-1 $75 $76 $32 #
cone-surface $-1 52.167066940523931 12.579330977299801 3.3754781078948786 -0.87461971476443456 0 -0.48480960649040278 0.24240480324520139 0 -0.43730985738221728 1 I I 0 1 0.5 forward I I I I #
face $-1 $77 $78 $26 $-1 $79 forward single #
loop $-1 $80 $81 $33 #
cone-surface $-1 52.167066940523931 15.530970937132462 3.3754781078948786 -0.87461971476443456 0 -0.48480960649040278 0.24240480324520139 0 -0.43730985738221728 1 I I 0 1 0.5 forward I I I I #
face $-1 $82 $83 $27 $-1 $84 forward single #
loop $-1 $85 $86 $34 #
cone-surface $-1 52.167066940523931 18.482610896965124 3.3754781078948786 -0.87461971476443456 0 -0.48480960649040278 0.24240480324520139 0 -0.43730985738221728 1 I I 0 1 0.5 forward I I I I #
face $-1 $87 $88 $21 $-1 $89 reversed single #
loop $-1 $-1 $90 $35 #
plane-surface $-1 0 0 -6.0991328711783437 0 0 1 1 0 0 forward_v I I I I #
coedge $-1 $91 $92 $93 $94 forward $36 $-1 #
face $-1 $95 $96 $22 $-1 $97 reversed single #
loop $-1 $-1 $98 $38 #
plane-surface $-1 0 -22.630467915234494 -4.5991328711783437 0 -1 0 0 0 -1 forward_v I I I I #
coedge $-1 $99 $100 $101 $102 reversed $39 $-1 #
face $-1 $103 $104 $23 $-1 $105 reversed single #
loop $-1 $-1 $106 $41 #
plane-surface $-1 -54.264351329081087 0 0 1 0 0 0 0 -1 forward_v I I I I #
coedge $-1 $107 $108 $109 $110 forward $42 $-1 #
face $-1 $111 $112 $24 $-1 $113 reversed single #
loop $-1 $-1 $114 $44 #
plane-surface $-1 1.6485937004635645 15.530970937132469 96.513423519920565 0.87461971476443456 0 0.48480960649040278 0.48480960649040278 0 -0.87461971476443456 forward_v I I I I #
coedge $-1 $115 $116 $117 $118 reversed $45 $-1 #
face $-1 $-1 $119 $25 $-1 $120 forward single #
loop $-1 $121 $122 $47 #
cone-surface $-1 51.100277523423408 12.579330977299801 2.7841470999356916 -0.87461971476443456 0 -0.48480960649040278 0.12120240162260069 0 -0.21865492869110864 1 I I -0.70710678118654746 0.70710678118654746 0.25 forward I I I I #
loop $-1 $-1 $123 $32 #
coedge $-1 $76 $76 $124 $125 reversed $48 $-1 #
face $-1 $-1 $126 $26 $-1 $127 forward single #
loop $-1 $128 $129 $50 #
cone-surface $-1 51.100277523423408 15.530970937132462 2.7841470999356916 -0.87461971476443456 0 -0.48480960649040278 0.12120240162260069 0 -0.21865492869110864 1 I I -0.70710678118654746 0.70710678118654746 0.25 forward I I I I #
loop $-1 $-1 $130 $33 #
coedge $-1 $81 $81 $131 $132 reversed $51 $-1 #
face $-1 $-1 $133 $27 $-1 $134 forward single #
loop $-1 $135 $136 $53 #
cone-surface $-1 51.100277523423408 18.482610896965124 2.7841470999356916 -0.87461971476443456 0 -0.48480960649040278 0.12120240162260069 0 -0.21865492869110864 1 I I -0.70710678118654746 0.70710678118654746 0.25 forward I I I I #
loop $-1 $-1 $137 $34 #
coedge $-1 $86 $86 $138 $139 reversed $54 $-1 #
face $-1 $140 $141 $21 $-1 $142 reversed single #
loop $-1 $-1 $143 $56 #
plane-surface $-1 0 -26.889065011288519 0 0 1 0 0 0 1 forward_v I I I I #
coedge $-1 $144 $145 $146 $147 forward $57 $-1 #
coedge $-1 $148 $59 $149 $150 forward $36 $-1 #
coedge $-1 $59 $148 $151 $152 forward $36 $-1 #
coedge $-1 $153 $154 $59 $94 reversed $155 $-1 #
edge $-1 $156 -26.889065011288519 $157 26.889065011288519 $93 $158 forward 7 unknown #
face $-1 $159 $160 $22 $-1 $161 reversed single #
loop $-1 $-1 $162 $60 #
plane-surface $-1 0 0 -6.0991328711783437 0 0 1 1 0 0 forward_v I I I I #
coedge $-1 $163 $164 $165 $166 reversed $61 $-1 #
coedge $-1 $167 $63 $164 $168 forward $39 $-1 #
coedge $-1 $63 $167 $169 $170 reversed $39 $-1 #
coedge $-1 $171 $165 $63 $102 forward $160 $-1 #
edge $-1 $172 10.250584683603741 $173 14.509181779657766 $101 $174 forward 7 unknown #
face $-1 $175 $176 $23 $-1 $177 reversed single #
loop $-1 $-1 $178 $64 #
plane-surface $-1 0 30.108412081839322 3.0991328711783437 0 0 1 1 0 0 forward_v I I I I #
coedge $-1 $179 $180 $108 $181 forward $65 $-1 #
coedge $-1 $182 $67 $183 $184 reversed $42 $-1 #
coedge $-1 $67 $182 $106 $181 reversed $42 $-1 #
coedge $-1 $185 $178 $67 $110 reversed $104 $-1 #
edge $-1 $186 -54.264351329081087 $187 54.264351329081087 $109 $188 forward 7 unknown #
face $-1 $189 $190 $24 $-1 $191 forward single #
loop $-1 $-1 $192 $68 #
plane-surface $-1 96.569936663099497 10.61157100407803 149.12918114853809 0 1 0 0.87461971476443456 0 0.48480960649040278 forward_v I I I I #
coedge $-1 $193 $194 $195 $196 reversed $69 $-1 #
coedge $-1 $116 $71 $197 $198 reversed $45 $-1 #
coedge $-1 $71 $115 $193 $199 reversed $45 $-1 #
coedge $-1 $195 $200 $71 $118 forward $190 $-1 #
edge $-1 $201 -5.9793829975313386 $202 -3.4810831972358827 $117 $203 forward 7 unknown #
loop $-1 $-1 $124 $72 #
plane-surface $-1 1.6485937004635645 15.530970937132469 96.513423519920565 0.87461971476443456 0 0.48480960649040278 0.48480960649040278 0 -0.87461971476443456 forward_v I I I I #
loop $-1 $-1 $204 $47 #
coedge $-1 $122 $122 $123 $205 reversed $73 $-1 #
coedge $-1 $123 $123 $122 $205 forward $75 $-1 #
coedge $-1 $124 $124 $76 $125 forward $119 $-1 #
edge $-1 $206 0 $206 6.2831853071796004 $124 $207 forward 7 unknown #
loop $-1 $-1 $131 $77 #
plane-surface $-1 1.6485937004635645 15.530970937132469 96.513423519920565 0.87461971476443456 0 0.48480960649040278 0.48480960649040278 0 -0.87461971476443456 forward_v I I I I #
loop $-1 $-1 $208 $50 #
coedge $-1 $129 $129 $130 $209 reversed $78 $-1 #
coedge $-1 $130 $130 $129 $209 forward $80 $-1 #
coedge $-1 $131 $131 $81 $132 forward $126 $-1 #
edge $-1 $210 0 $210 6.2831853071796004 $131 $211 forward 7 unknown #
loop $-1 $-1 $138 $82 #
plane-surface $-1 1.6485937004635645 15.530970937132469 96.513423519920565 0.87461971476443456 0 0.48480960649040278 0.48480960649040278 0 -0.87461971476443456 forward_v I I I I #
loop $-1 $-1 $212 $53 #
coedge $-1 $136 $136 $137 $213 reversed $83 $-1 #
coedge $-1 $137 $137 $136 $213 forward $85 $-1 #
coedge $-1 $138 $138 $86 $139 forward $133 $-1 #
edge $-1 $214 0 $214 6.2831853071796004 $138 $215 forward 7 unknown #
face $-1 $216 $217 $21 $-1 $218 reversed single #
loop $-1 $-1 $219 $87 #
plane-surface $-1 -54.264351329081087 0 0 1 0 0 0 0 -1 forward_v I I I I #
coedge $-1 $220 $151 $221 $222 forward $88 $-1 #
coedge $-1 $223 $90 $220 $224 forward $57 $-1 #
coedge $-1 $90 $223 $225 $226 forward $57 $-1 #
coedge $-1 $154 $153 $90 $147 reversed $155 $-1 #
edge $-1 $227 -26.889065011288519 $228 26.889065011288519 $146 $229 forward 7 unknown #
coedge $-1 $92 $91 $230 $231 forward $36 $-1 #
coedge $-1 $232 $233 $91 $150 reversed $217 $-1 #
edge $-1 $157 -54.264351329081087 $234 54.264351329081087 $149 $235 forward 7 unknown #
coedge $-1 $143 $236 $92 $152 reversed $88 $-1 #
edge $-1 $237 -54.264351329081087 $156 54.264351329081087 $151 $238 forward 7 unknown #
coedge $-1 $146 $93 $236 $239 forward $155 $-1 #
coedge $-1 $93 $146 $232 $240 reversed $155 $-1 #
loop $-1 $-1 $153 $216 #
vertex $-1 $94 $241 #
vertex $-1 $94 $242 #
straight-curve $-1 54.264351329081087 0 6.0991328711783437 0 1 0 I I #
face $-1 $243 $244 $22 $-1 $245 reversed single #
loop $-1 $-1 $165 $95 #
plane-surface $-1 54.264351329081087 0 0 -1 0 0 0 0 1 forward_v I I I I #
coedge $-1 $246 $247 $163 $248 forward $96 $-1 #
coedge $-1 $249 $98 $162 $248 reversed $61 $-1 #
coedge $-1 $98 $249 $99 $168 reversed $61 $-1 #
coedge $-1 $101 $250 $98 $166 forward $160 $-1 #
edge $-1 $251 -3.7995664355891718 $172 -0.79956643558917184 $165 $252 forward 7 unknown #
coedge $-1 $100 $99 $253 $254 reversed $39 $-1 #
edge $-1 $172 -54.264351329081087 $255 54.264351329081087 $164 $256 forward 7 unknown #
coedge $-1 $257 $258 $100 $170 forward $244 $-1 #
edge $-1 $173 -54.264351329081087 $259 54.264351329081087 $169 $260 forward 7 unknown #
coedge $-1 $250 $101 $258 $261 forward $160 $-1 #
vertex $-1 $102 $262 #
vertex $-1 $261 $263 #
straight-curve $-1 54.264351329081087 -12.379883231630753 -3.0991328711783437 0 -1 0 I I #
face $-1 $264 $265 $23 $-1 $266 forward single #
loop $-1 $-1 $267 $103 #
plane-surface $-1 0 33.327759152390129 4.5991328711783437 0 -1 0 0 0 -1 forward_v I I I I #
coedge $-1 $109 $268 $269 $270 forward $104 $-1 #
coedge $-1 $271 $106 $272 $273 reversed $65 $-1 #
coedge $-1 $106 $271 $185 $274 reversed $65 $-1 #
edge $-1 $186 3.0991328711783437 $275 6.0991328711783437 $106 $276 forward 7 unknown #
coedge $-1 $108 $107 $277 $278 reversed $42 $-1 #
coedge $-1 $269 $279 $107 $184 forward $280 $-1 #
edge $-1 $281 -6.0991328711783437 $187 -3.0991328711783437 $183 $282 forward 7 unknown #
coedge $-1 $268 $109 $180 $274 forward $104 $-1 #
vertex $-1 $181 $283 #
vertex $-1 $184 $284 #
straight-curve $-1 0 26.889065011288519 3.0991328711783437 1 0 0 I I #
face $-1 $-1 $285 $24 $-1 $286 reversed single #
loop $-1 $-1 $117 $111 #
plane-surface $-1 0 0 6.0991328711783437 0 0 1 1 0 0 forward_v I I I I #
coedge $-1 $287 $288 $289 $290 reversed $112 $-1 #
coedge $-1 $291 $114 $116 $199 forward $69 $-1 #
coedge $-1 $114 $291 $287 $292 forward $69 $-1 #
coedge $-1 $289 $117 $114 $196 forward $190 $-1 #
edge $-1 $202 -12.684885401620674 $293 -2.8460855355117953 $195 $294 forward 7 unknown #
coedge $-1 $295 $296 $115 $198 forward $285 $-1 #
edge $-1 $297 -72.972510016984387 $201 -68.465457703090706 $197 $298 forward 7 unknown #
edge $-1 $202 103.37554610587979 $297 108.52870265816216 $116 $299 forward 7 unknown #
coedge $-1 $117 $289 $295 $300 forward $190 $-1 #
vertex $-1 $198 $301 #
vertex $-1 $118 $302 #
straight-curve $-1 48.284968331549749 20.450370870186909 6.099132871178341 -1 0 0 I I #
coedge $-1 $204 $204 $-1 $303 reversed $121 $-1 #
edge $-1 $304 0 $304 6.2831853071796004 $122 $305 forward 7 unknown #
vertex $-1 $125 $306 #
ellipse-curve $-1 53.015201428933359 12.579330977299801 3.8456067142314758 0.87461971476443456 0 0.48480960649040278 0.24240480324520139 0 -0.43730985738221728 1 I I #
coedge $-1 $208 $208 $-1 $307 reversed $128 $-1 #
edge $-1 $308 0 $308 6.2831853071796004 $129 $309 forward 7 unknown #
vertex $-1 $132 $310 #
ellipse-curve $-1 53.015201428933359 15.530970937132462 3.8456067142314758 0.87461971476443456 0 0.48480960649040278 0.24240480324520139 0 -0.43730985738221728 1 I I #
coedge $-1 $212 $212 $-1 $311 reversed $135 $-1 #
edge $-1 $312 0 $312 6.2831853071796004 $136 $313 forward 7 unknown #
vertex $-1 $139 $314 #
ellipse-curve $-1 53.015201428933359 18.482610896965124 3.8456067142314758 0.87461971476443456 0 0.48480960649040278 0.24240480324520139 0 -0.43730985738221728 1 I I #
face $-1 $-1 $155 $21 $-1 $315 reversed single #
loop $-1 $-1 $232 $140 #
plane-surface $-1 0 26.889065011288519 0 0 -1 0 0 0 -1 forward_v I I I I #
coedge $-1 $316 $230 $233 $317 forward $141 $-1 #
coedge $-1 $236 $143 $144 $224 reversed $88 $-1 #
coedge $-1 $230 $316 $143 $222 reversed $141 $-1 #
edge $-1 $237 -6.0991328711783437 $318 6.0991328711783437 $221 $319 forward 7 unknown #
coedge $-1 $145 $144 $316 $320 forward $57 $-1 #
edge $-1 $228 -54.264351329081087 $318 54.264351329081087 $220 $321 forward 7 unknown #
coedge $-1 $233 $232 $145 $226 reversed $217 $-1 #
edge $-1 $322 -54.264351329081087 $227 54.264351329081087 $225 $323 forward 7 unknown #
vertex $-1 $147 $324 #
vertex $-1 $239 $325 #
straight-curve $-1 54.264351329081087 0 -6.0991328711783437 0 -1 0 I I #
coedge $-1 $219 $221 $148 $231 reversed $141 $-1 #
edge $-1 $234 -26.889065011288519 $237 26.889065011288519 $230 $326 forward 7 unknown #
coedge $-1 $225 $149 $154 $240 forward $217 $-1 #
coedge $-1 $149 $225 $219 $317 reversed $217 $-1 #
vertex $-1 $150 $327 #
straight-curve $-1 0 26.889065011288519 6.0991328711783437 -1 0 0 I I #
coedge $-1 $151 $220 $153 $239 reversed $88 $-1 #
vertex $-1 $231 $328 #
straight-curve $-1 0 -26.889065011288519 6.0991328711783437 1 0 0 I I #
edge $-1 $156 -6.0991328711783437 $228 6.0991328711783437 $153 $329 forward 7 unknown #
edge $-1 $157 -6.0991328711783437 $227 6.0991328711783437 $154 $330 forward 7 unknown #
point $-1 54.264351329081087 -26.889065011288519 6.0991328711783437 #
point $-1 54.264351329081087 26.889065011288519 6.0991328711783437 #
face $-1 $-1 $331 $22 $-1 $332 reversed single #
loop $-1 $-1 $169 $159 #
plane-surface $-1 0 -26.889065011288519 0 0 1 0 0 0 1 forward_v I I I I #
coedge $-1 $333 $162 $250 $334 forward $96 $-1 #
coedge $-1 $162 $333 $335 $336 forward $96 $-1 #
edge $-1 $337 -54.264351329081087 $251 54.264351329081087 $162 $338 forward 7 unknown #
coedge $-1 $164 $163 $339 $340 reversed $61 $-1 #
coedge $-1 $165 $171 $246 $334 reversed $160 $-1 #
vertex $-1 $334 $341 #
straight-curve $-1 54.264351329081087 -22.630467915234494 -2.2995664355891718 0 0 1 I I #
coedge $-1 $339 $342 $167 $254 forward $331 $-1 #
edge $-1 $259 -14.509181779657766 $255 -10.250584683603741 $253 $343 forward 7 unknown #
vertex $-1 $254 $344 #
straight-curve $-1 0 -22.630467915234494 -3.0991328711783437 -1 0 0 I I #
coedge $-1 $345 $169 $342 $346 forward $244 $-1 #
coedge $-1 $169 $345 $171 $261 reversed $244 $-1 #
vertex $-1 $346 $347 #
straight-curve $-1 0 -26.889065011288519 -3.0991328711783437 -1 0 0 I I #
edge $-1 $173 3.0991328711783437 $348 6.0991328711783437 $171 $349 forward 7 unknown #
point $-1 54.264351329081087 -22.630467915234494 -3.0991328711783437 #
point $-1 54.264351329081087 -26.889065011288519 -3.0991328711783437 #
face $-1 $-1 $280 $23 $-1 $350 reversed single #
loop $-1 $-1 $277 $175 #
plane-surface $-1 0 0 6.0991328711783437 0 0 1 1 0 0 forward_v I I I I #
coedge $-1 $351 $352 $353 $354 forward $176 $-1 #
coedge $-1 $178 $185 $351 $355 forward $104 $-1 #
coedge $-1 $353 $183 $178 $270 reversed $280 $-1 #
edge $-1 $356 -3.2193470705508069 $187 3.2193470705508069 $269 $357 forward 7 unknown #
coedge $-1 $180 $179 $358 $359 forward $65 $-1 #
coedge $-1 $277 $360 $179 $273 forward $265 $-1 #
edge $-1 $361 -33.327759152390129 $275 -26.889065011288519 $179 $362 forward 7 unknown #
edge $-1 $186 -3.2193470705508069 $363 3.2193470705508069 $180 $364 forward 7 unknown #
vertex $-1 $181 $365 #
straight-curve $-1 -54.264351329081087 26.889065011288519 0 0 0 1 I I #
coedge $-1 $366 $272 $182 $278 forward $265 $-1 #
edge $-1 $275 -54.264351329081087 $281 54.264351329081087 $277 $367 forward 7 unknown #
coedge $-1 $183 $353 $366 $368 reversed $280 $-1 #
loop $-1 $-1 $183 $264 #
vertex $-1 $368 $369 #
straight-curve $-1 54.264351329081087 26.889065011288519 0 0 0 -1 I I #
point $-1 -54.264351329081087 26.889065011288515 3.0991328711783437 #
point $-1 54.264351329081087 26.889065011288515 3.0991328711783437 #
loop $-1 $-1 $197 $189 #
plane-surface $-1 54.264351329081087 0 0 -1 0 0 0 0 1 forward_v I I I I #
coedge $-1 $288 $192 $194 $292 reversed $112 $-1 #
coedge $-1 $192 $287 $370 $371 reversed $112 $-1 #
coedge $-1 $200 $195 $192 $290 forward $190 $-1 #
edge $-1 $293 3.4810831972358827 $372 5.9793829975313386 $289 $373 forward 7 unknown #
coedge $-1 $194 $193 $296 $374 reversed $69 $-1 #
edge $-1 $375 -108.52870265816216 $293 -103.37554610587979 $287 $376 forward 7 unknown #
vertex $-1 $196 $377 #
straight-curve $-1 51.766051528785624 7.7654854685662347 6.099132871178341 0 -1 0 I I #
coedge $-1 $370 $197 $200 $300 reversed $285 $-1 #
coedge $-1 $197 $370 $291 $374 forward $285 $-1 #
vertex $-1 $198 $378 #
straight-curve $-1 54.264351329081087 20.450370870186909 74.564590574269047 0 0 1 I I #
straight-curve $-1 1.6485937004635645 20.450370870186909 96.513423519920565 0.48480960649040278 0 -0.87461971476443456 I I #
edge $-1 $372 10.61157100407803 $201 20.450370870186909 $295 $379 forward 7 unknown #
point $-1 54.264351329081087 20.450370870186909 6.0991328711783437 #
point $-1 51.766051528785631 20.450370870186909 6.099132871178341 #
edge $-1 $380 1 $380 0 $204 $-1 forward 7 unknown #
vertex $-1 $205 $381 #
ellipse-curve $-1 51.318932452114517 12.579330977299801 2.9053495015582924 0.87461971476443456 0 0.48480960649040278 0.24240480324520139 0 -0.43730985738221728 1 I I #
point $-1 53.257606232178546 12.579330977299801 3.408296856849248 #
edge $-1 $382 1 $382 0 $208 $-1 forward 7 unknown #
vertex $-1 $209 $383 #
ellipse-curve $-1 51.318932452114517 15.530970937132462 2.9053495015582924 0.87461971476443456 0 0.48480960649040278 0.24240480324520139 0 -0.43730985738221728 1 I I #
point $-1 53.257606232178546 15.530970937132462 3.408296856849248 #
edge $-1 $384 1 $384 0 $212 $-1 forward 7 unknown #
vertex $-1 $213 $385 #
ellipse-curve $-1 51.318932452114517 18.482610896965124 2.9053495015582924 0.87461971476443456 0 0.48480960649040278 0.24240480324520139 0 -0.43730985738221728 1 I I #
point $-1 53.257606232178546 18.482610896965124 3.408296856849248 #
plane-surface $-1 54.264351329081087 0 0 -1 0 0 0 0 1 forward_v I I I I #
coedge $-1 $221 $219 $223 $320 reversed $141 $-1 #
edge $-1 $234 -6.0991328711783437 $322 6.0991328711783437 $233 $386 forward 7 unknown #
vertex $-1 $320 $387 #
straight-curve $-1 -54.264351329081087 -26.889065011288519 0 0 0 -1 I I #
edge $-1 $318 -26.889065011288519 $322 26.889065011288519 $316 $388 forward 7 unknown #
straight-curve $-1 0 -26.889065011288519 -6.0991328711783437 -1 0 0 I I #
vertex $-1 $226 $389 #
straight-curve $-1 0 26.889065011288519 -6.0991328711783437 1 0 0 I I #
point $-1 54.264351329081087 26.889065011288519 -6.0991328711783437 #
point $-1 54.264351329081087 -26.889065011288519 -6.0991328711783437 #
straight-curve $-1 -54.264351329081087 0 6.0991328711783437 0 -1 0 I I #
point $-1 -54.264351329081087 26.889065011288519 6.0991328711783437 #
point $-1 -54.264351329081087 -26.889065011288519 6.0991328711783437 #
straight-curve $-1 54.264351329081087 -26.889065011288519 0 0 0 -1 I I #
straight-curve $-1 54.264351329081087 26.889065011288519 0 0 0 -1 I I #
loop $-1 $-1 $339 $243 #
plane-surface $-1 -54.264351329081087 0 0 1 0 0 0 0 -1 forward_v I I I I #
coedge $-1 $247 $246 $345 $390 forward $96 $-1 #
edge $-1 $251 22.630467915234494 $348 26.889065011288519 $250 $391 forward 7 unknown #
coedge $-1 $342 $339 $247 $336 reversed $331 $-1 #
edge $-1 $392 -26.889065011288519 $337 -22.630467915234494 $335 $393 forward 7 unknown #
vertex $-1 $340 $394 #
straight-curve $-1 0 -22.630467915234494 -6.0991328711783437 1 0 0 I I #
coedge $-1 $335 $253 $249 $340 forward $331 $-1 #
edge $-1 $255 0.79956643558917184 $337 3.7995664355891718 $339 $395 forward 7 unknown #
point $-1 54.264351329081087 -22.630467915234494 -6.0991328711783437 #
coedge $-1 $253 $335 $257 $346 reversed $331 $-1 #
straight-curve $-1 -54.264351329081087 -12.379883231630753 -3.0991328711783437 0 1 0 I I #
point $-1 -54.264351329081087 -22.630467915234494 -3.0991328711783437 #
coedge $-1 $258 $257 $333 $390 reversed $244 $-1 #
edge $-1 $259 3.0991328711783437 $392 6.0991328711783437 $342 $396 forward 7 unknown #
point $-1 -54.264351329081087 -26.889065011288519 -3.0991328711783437 #
vertex $-1 $261 $397 #
straight-curve $-1 54.264351329081087 -26.889065011288519 0 0 0 -1 I I #
plane-surface $-1 54.264351329081087 0 0 -1 0 0 0 0 1 forward_v I I I I #
coedge $-1 $358 $267 $268 $355 reversed $176 $-1 #
coedge $-1 $267 $358 $360 $398 reversed $176 $-1 #
coedge $-1 $279 $269 $267 $354 reversed $280 $-1 #
edge $-1 $399 -1.5 $356 1.5 $353 $400 forward 7 unknown #
edge $-1 $363 -54.264351329081087 $356 54.264351329081087 $351 $401 forward 7 unknown #
vertex $-1 $270 $402 #
straight-curve $-1 54.264351329081087 30.108412081839322 3.0991328711783437 0 -1 0 I I #
coedge $-1 $352 $351 $271 $359 reversed $176 $-1 #
edge $-1 $361 -1.5 $363 1.5 $358 $403 forward 7 unknown #
coedge $-1 $272 $366 $352 $398 forward $265 $-1 #
vertex $-1 $398 $404 #
straight-curve $-1 -54.264351329081087 0 6.0991328711783437 0 -1 0 I I #
vertex $-1 $355 $405 #
straight-curve $-1 -54.264351329081087 30.108412081839322 3.0991328711783437 0 1 0 I I #
point $-1 -54.264351329081087 26.889065011288519 6.0991328711783437 #
coedge $-1 $360 $277 $279 $368 forward $265 $-1 #
straight-curve $-1 0 26.889065011288519 6.0991328711783437 1 0 0 I I #
edge $-1 $281 26.889065011288519 $399 33.327759152390129 $279 $406 forward 7 unknown #
point $-1 54.264351329081087 26.889065011288519 6.0991328711783437 #
coedge $-1 $296 $295 $288 $371 forward $285 $-1 #
edge $-1 $372 68.465457703090706 $375 72.972510016984387 $370 $407 forward 7 unknown #
vertex $-1 $300 $408 #
straight-curve $-1 48.284968331549749 10.61157100407803 6.099132871178341 1 0 0 I I #
edge $-1 $375 2.8460855355117953 $297 12.684885401620674 $296 $409 forward 7 unknown #
vertex $-1 $374 $410 #
straight-curve $-1 1.6485937004635645 10.61157100407803 96.513423519920565 -0.48480960649040278 0 0.87461971476443456 I I #
point $-1 51.766051528785631 10.61157100407803 6.099132871178341 #
point $-1 54.264351329081087 20.450370870186909 1.5920805572846604 #
straight-curve $-1 54.264351329081087 0 6.0991328711783437 0 1 0 I I #
vertex $-1 $303 $411 #
point $-1 51.561337255359717 12.579330977299801 2.4680396441760752 #
vertex $-1 $307 $412 #
point $-1 51.561337255359717 15.530970937132462 2.4680396441760752 #
vertex $-1 $311 $413 #
point $-1 51.561337255359717 18.482610896965124 2.4680396441760752 #
straight-curve $-1 -54.264351329081087 26.889065011288519 0 0 0 -1 I I #
point $-1 -54.264351329081087 -26.889065011288519 -6.0991328711783437 #
straight-curve $-1 -54.264351329081087 0 -6.0991328711783437 0 1 0 I I #
point $-1 -54.264351329081087 26.889065011288519 -6.0991328711783437 #
edge $-1 $348 -54.264351329081087 $392 54.264351329081087 $345 $414 forward 7 unknown #
straight-curve $-1 54.264351329081087 0 -6.0991328711783437 0 -1 0 I I #
vertex $-1 $336 $415 #
straight-curve $-1 -54.264351329081087 0 -6.0991328711783437 0 1 0 I I #
point $-1 -54.264351329081087 -22.630467915234494 -6.0991328711783437 #
straight-curve $-1 -54.264351329081087 -22.630467915234494 -2.2995664355891718 0 0 -1 I I #
straight-curve $-1 -54.264351329081087 -26.889065011288519 0 0 0 -1 I I #
point $-1 54.264351329081087 -26.889065011288519 -6.0991328711783437 #
edge $-1 $399 -54.264351329081087 $361 54.264351329081087 $352 $416 forward 7 unknown #
vertex $-1 $368 $417 #
straight-curve $-1 54.264351329081087 33.327759152390129 4.5991328711783437 0 0 -1 I I #
straight-curve $-1 0 33.327759152390129 3.0991328711783437 1 0 0 I I #
point $-1 54.264351329081087 33.327759152390129 3.0991328711783437 #
straight-curve $-1 -54.264351329081087 33.327759152390129 4.5991328711783437 0 0 -1 I I #
point $-1 -54.264351329081087 33.327759152390129 6.0991328711783437 #
point $-1 -54.264351329081087 33.327759152390129 3.0991328711783437 #
straight-curve $-1 54.264351329081087 0 6.0991328711783437 0 1 0 I I #
straight-curve $-1 54.264351329081087 10.61157100407803 74.564590574269047 0 0 -1 I I #
point $-1 54.264351329081087 10.61157100407803 6.0991328711783437 #
straight-curve $-1 54.26435132908108 7.7654854685662347 1.5920805572846533 0 1 0 I I #
point $-1 54.264351329081087 10.61157100407803 1.5920805572846604 #
point $-1 50.881622594732299 12.579330977299801 2.6629446983130909 #
point $-1 50.881622594732299 15.530970937132462 2.6629446983130909 #
point $-1 50.881622594732299 18.482610896965124 2.6629446983130909 #
straight-curve $-1 0 -26.889065011288519 -6.0991328711783437 -1 0 0 I I #
point $-1 -54.264351329081087 -26.889065011288519 -6.0991328711783437 #
straight-curve $-1 0 33.327759152390129 6.0991328711783437 -1 0 0 I I #
point $-1 54.264351329081087 33.327759152390129 6.0991328711783437 #
End-of-ACIS-data 