500 0 16 0           
7 Unknown 11 ACIS 5.0 NT 24 Fri Mar 26 16:57:47 1999 
-1 9.9999999999999995e-007 1e-010 
body $-1 $16 $-1 $17 #
body $-1 $18 $-1 $19 #
body $-1 $20 $-1 $21 #
body $-1 $22 $-1 $23 #
body $-1 $24 $-1 $25 #
body $-1 $26 $-1 $27 #
body $-1 $28 $-1 $29 #
body $-1 $30 $-1 $31 #
body $-1 $32 $-1 $33 #
body $-1 $34 $-1 $35 #
body $-1 $36 $-1 $37 #
body $-1 $38 $-1 $39 #
body $-1 $40 $-1 $41 #
body $-1 $42 $-1 $43 #
body $-1 $44 $-1 $45 #
body $-1 $46 $-1 $47 #
lump $-1 $-1 $48 $0 #
transform $-1 1 0 0 0 1 0 0 0 1 66.400952177495654 28.500917136300846 13.955594500362528 1 rotate no_reflect no_shear #
lump $-1 $-1 $49 $1 #
transform $-1 1 0 0 0 1 0 0 0 1 66.400952177495654 28.500917136300846 13.955594500362528 1 rotate no_reflect no_shear #
lump $-1 $-1 $50 $2 #
transform $-1 1 0 0 0 1 0 0 0 1 66.400952177495654 28.500917136300846 13.955594500362528 1 rotate no_reflect no_shear #
lump $-1 $-1 $51 $3 #
transform $-1 1 0 0 0 1 0 0 0 1 66.400952177495654 28.500917136300846 13.955594500362528 1 rotate no_reflect no_shear #
lump $-1 $-1 $52 $4 #
transform $-1 1 0 0 0 1 0 0 0 1 66.400952177495654 28.500917136300846 13.955594500362528 1 rotate no_reflect no_shear #
lump $-1 $-1 $53 $5 #
transform $-1 1 0 0 0 1 0 0 0 1 66.400952177495654 28.500917136300846 13.955594500362528 1 rotate no_reflect no_shear #
lump $-1 $-1 $54 $6 #
transform $-1 1 0 0 0 1 0 0 0 1 66.400952177495654 28.500917136300846 13.955594500362528 1 rotate no_reflect no_shear #
lump $-1 $-1 $55 $7 #
transform $-1 1 0 0 0 1 0 0 0 1 66.400952177495654 28.500917136300846 13.955594500362528 1 rotate no_reflect no_shear #
lump $-1 $-1 $56 $8 #
transform $-1 1 0 0 0 1 0 0 0 1 66.400952177495654 28.500917136300846 13.955594500362528 1 rotate no_reflect no_shear #
lump $-1 $-1 $57 $9 #
transform $-1 1 0 0 0 1 0 0 0 1 66.400952177495654 28.500917136300846 13.955594500362528 1 rotate no_reflect no_shear #
lump $-1 $-1 $58 $10 #
transform $-1 1 0 0 0 1 0 0 0 1 66.400952177495654 28.500917136300846 13.955594500362528 1 rotate no_reflect no_shear #
lump $-1 $-1 $59 $11 #
transform $-1 1 0 0 0 1 0 0 0 1 66.400952177495654 28.500917136300846 13.955594500362528 1 rotate no_reflect no_shear #
lump $-1 $-1 $60 $12 #
transform $-1 1 0 0 0 1 0 0 0 1 66.400952177495654 28.500917136300846 13.955594500362528 1 rotate no_reflect no_shear #
lump $-1 $-1 $61 $13 #
transform $-1 1 0 0 0 1 0 0 0 1 66.400952177495654 28.500917136300846 13.955594500362528 1 rotate no_reflect no_shear #
lump $-1 $-1 $62 $14 #
transform $-1 1 0 0 0 1 0 0 0 1 66.400952177495654 28.500917136300846 13.955594500362528 1 rotate no_reflect no_shear #
lump $-1 $-1 $63 $15 #
transform $-1 1 0 0 0 1 0 0 0 1 66.400952177495654 28.500917136300846 13.955594500362528 1 rotate no_reflect no_shear #
shell $-1 $-1 $-1 $64 $-1 $16 #
shell $-1 $-1 $-1 $65 $-1 $18 #
shell $-1 $-1 $-1 $66 $-1 $20 #
shell $-1 $-1 $-1 $67 $-1 $22 #
shell $-1 $-1 $-1 $68 $-1 $24 #
shell $-1 $-1 $-1 $69 $-1 $26 #
shell $-1 $-1 $-1 $70 $-1 $28 #
shell $-1 $-1 $-1 $71 $-1 $30 #
shell $-1 $-1 $-1 $72 $-1 $32 #
shell $-1 $-1 $-1 $73 $-1 $34 #
shell $-1 $-1 $-1 $74 $-1 $36 #
shell $-1 $-1 $-1 $75 $-1 $38 #
shell $-1 $-1 $-1 $76 $-1 $40 #
shell $-1 $-1 $-1 $77 $-1 $42 #
shell $-1 $-1 $-1 $78 $-1 $44 #
shell $-1 $-1 $-1 $79 $-1 $46 #
face $-1 $80 $81 $48 $-1 $82 forward single #
face $-1 $83 $84 $49 $-1 $85 forward single #
face $-1 $86 $87 $50 $-1 $88 reversed single #
face $-1 $89 $90 $51 $-1 $91 forward single #
face $-1 $92 $93 $52 $-1 $94 forward single #
face $-1 $95 $96 $53 $-1 $97 reversed single #
face $-1 $98 $99 $54 $-1 $100 forward single #
face $-1 $101 $102 $55 $-1 $103 forward single #
face $-1 $104 $105 $56 $-1 $106 reversed single #
face $-1 $107 $108 $57 $-1 $109 forward single #
face $-1 $110 $111 $58 $-1 $112 forward single #
face $-1 $113 $114 $59 $-1 $115 reversed single #
face $-1 $116 $117 $60 $-1 $118 forward single #
face $-1 $119 $120 $61 $-1 $121 forward single #
face $-1 $122 $123 $62 $-1 $124 reversed single #
face $-1 $125 $126 $63 $-1 $127 forward single #
face $-1 $128 $129 $48 $-1 $130 reversed single #
loop $-1 $-1 $131 $64 #
plane-surface $-1 0 0 13.955594500362528 0 0 1 1 0 0 forward_v I I I I #
face $-1 $132 $133 $49 $-1 $134 reversed single #
loop $-1 $-1 $135 $65 #
plane-surface $-1 -60.125611077626687 0 7.661668632666383 0 0 1 1 0 0 forward_v I I I I #
face $-1 $136 $137 $50 $-1 $138 reversed single #
loop $-1 $-1 $139 $66 #
plane-surface $-1 -49.541781587448682 110.9169509881242 126.00973130198805 1 0 0 0 -0.84804810408105047 -0.52991925155115449 forward_v I I I I #
face $-1 $140 $141 $51 $-1 $142 forward single #
loop $-1 $143 $144 $67 #
cone-surface $-1 -45.401885717697503 24.432755237525793 9.383626231446085 0 -0.84804810408105047 -0.52991925155115449 1.5 0 0 1 I I 0 1 1.5 forward I I I I #
face $-1 $145 $146 $52 $-1 $147 forward single #
loop $-1 $148 $149 $68 #
cone-surface $-1 -39.192041913070732 24.432755237525793 9.383626231446085 0 -0.84804810408105047 -0.52991925155115449 1.5 0 0 1 I I 0 1 1.5 forward I I I I #
face $-1 $150 $151 $53 $-1 $152 reversed single #
loop $-1 $-1 $153 $69 #
plane-surface $-1 -17.160244977279952 110.9169509881242 126.00973130198805 1 0 0 0 -0.84804810408105047 -0.52991925155115449 forward_v I I I I #
face $-1 $154 $155 $54 $-1 $156 forward single #
loop $-1 $157 $158 $70 #
cone-surface $-1 -13.020349107528773 24.432755237525793 9.383626231446085 0 -0.84804810408105047 -0.52991925155115449 1.5 0 0 1 I I 0 1 1.5 forward I I I I #
face $-1 $159 $160 $55 $-1 $161 forward single #
loop $-1 $162 $163 $71 #
cone-surface $-1 -6.8105053029020013 24.432755237525793 9.383626231446085 0 -0.84804810408105047 -0.52991925155115449 1.5 0 0 1 I I 0 1 1.5 forward I I I I #
face $-1 $164 $165 $56 $-1 $166 reversed single #
loop $-1 $-1 $167 $72 #
plane-surface $-1 15.221291632888779 110.9169509881242 126.00973130198805 1 0 0 0 -0.84804810408105047 -0.52991925155115449 forward_v I I I I #
face $-1 $168 $169 $57 $-1 $170 forward single #
loop $-1 $171 $172 $73 #
cone-surface $-1 19.361187502639964 24.432755237525793 9.383626231446085 0 -0.84804810408105047 -0.52991925155115449 1.5 0 0 1 I I 0 1 1.5 forward I I I I #
face $-1 $173 $174 $58 $-1 $175 forward single #
loop $-1 $176 $177 $74 #
cone-surface $-1 25.571031307266722 24.432755237525793 9.383626231446085 0 -0.84804810408105047 -0.52991925155115449 1.5 0 0 1 I I 0 1 1.5 forward I I I I #
face $-1 $178 $179 $59 $-1 $180 reversed single #
loop $-1 $-1 $181 $75 #
plane-surface $-1 47.602828243057502 110.9169509881242 126.00973130198805 1 0 0 0 -0.84804810408105047 -0.52991925155115449 forward_v I I I I #
face $-1 $182 $183 $60 $-1 $184 forward single #
loop $-1 $185 $186 $76 #
cone-surface $-1 51.742724112808688 24.432755237525793 9.383626231446085 0 -0.84804810408105047 -0.52991925155115449 1.5 0 0 1 I I 0 1 1.5 forward I I I I #
face $-1 $187 $188 $61 $-1 $189 forward single #
loop $-1 $190 $191 $77 #
cone-surface $-1 57.952567917435445 24.432755237525793 9.383626231446085 0 -0.84804810408105047 -0.52991925155115449 1.5 0 0 1 I I 0 1 1.5 forward I I I I #
face $-1 $192 $193 $62 $-1 $194 reversed single #
loop $-1 $-1 $195 $78 #
plane-surface $-1 -17.744417893479678 -137.28586965435099 83.249863086027759 -1 0 0 0 -0.81915205242281985 0.57357642473473569 forward_v I I I I #
face $-1 $196 $197 $63 $-1 $198 forward single #
loop $-1 $199 $200 $79 #
cone-surface $-1 -27.55971701196269 -24.677447643907037 9.5255395546745731 0 0.81915205242281985 -0.57357642473473569 2 0 0 1 I I 0 1 2 forward I I I I #
face $-1 $201 $202 $48 $-1 $203 reversed single #
loop $-1 $-1 $204 $80 #
plane-surface $-1 0 0 -13.955594500362528 0 0 1 1 0 0 forward_v I I I I #
coedge $-1 $205 $206 $207 $208 forward $81 $-1 #
face $-1 $209 $210 $49 $-1 $211 reversed single #
loop $-1 $-1 $212 $83 #
plane-surface $-1 -60.125611077626687 0 1.5856378010042862 0 0 1 1 0 0 forward_v I I I I #
coedge $-1 $213 $214 $215 $216 forward $84 $-1 #
face $-1 $217 $218 $50 $-1 $219 reversed single #
loop $-1 $-1 $220 $86 #
plane-surface $-1 -42.296963815384117 -1.7054522184791807 55.635445541623056 0 0.84804810408105047 0.52991925155115449 1 0 0 forward_v I I I I #
coedge $-1 $221 $222 $223 $224 reversed $87 $-1 #
face $-1 $-1 $225 $51 $-1 $226 forward single #
loop $-1 $227 $228 $89 #
cone-surface $-1 -45.401885717697503 21.809511617500494 7.7444417452470677 0 -0.84804810408105047 -0.52991925155115449 0.75 0 0 1 I I -0.70710678118654713 0.70710678118654802 0.75 forward I I I I #
loop $-1 $-1 $229 $67 #
coedge $-1 $144 $144 $230 $231 reversed $90 $-1 #
face $-1 $-1 $232 $52 $-1 $233 forward single #
loop $-1 $234 $235 $92 #
cone-surface $-1 -39.192041913070732 21.809511617500494 7.7444417452470677 0 -0.84804810408105047 -0.52991925155115449 0.75 0 0 1 I I -0.70710678118654713 0.70710678118654802 0.75 forward I I I I #
loop $-1 $-1 $236 $68 #
coedge $-1 $149 $149 $237 $238 reversed $93 $-1 #
face $-1 $239 $240 $53 $-1 $241 reversed single #
loop $-1 $-1 $242 $95 #
plane-surface $-1 -9.9154272052153871 -1.7054522184791807 55.635445541623056 0 0.84804810408105047 0.52991925155115449 1 0 0 forward_v I I I I #
coedge $-1 $243 $244 $245 $246 reversed $96 $-1 #
face $-1 $-1 $247 $54 $-1 $248 forward single #
loop $-1 $249 $250 $98 #
cone-surface $-1 -13.020349107528773 21.809511617500494 7.7444417452470677 0 -0.84804810408105047 -0.52991925155115449 0.75 0 0 1 I I -0.70710678118654713 0.70710678118654802 0.75 forward I I I I #
loop $-1 $-1 $251 $70 #
coedge $-1 $158 $158 $252 $253 reversed $99 $-1 #
face $-1 $-1 $254 $55 $-1 $255 forward single #
loop $-1 $256 $257 $101 #
cone-surface $-1 -6.8105053029020013 21.809511617500494 7.7444417452470677 0 -0.84804810408105047 -0.52991925155115449 0.75 0 0 1 I I -0.70710678118654713 0.70710678118654802 0.75 forward I I I I #
loop $-1 $-1 $258 $71 #
coedge $-1 $163 $163 $259 $260 reversed $102 $-1 #
face $-1 $261 $262 $56 $-1 $263 reversed single #
loop $-1 $-1 $264 $104 #
plane-surface $-1 22.466109404953343 -1.7054522184791807 55.635445541623056 0 0.84804810408105047 0.52991925155115449 1 0 0 forward_v I I I I #
coedge $-1 $265 $266 $267 $268 reversed $105 $-1 #
face $-1 $-1 $269 $57 $-1 $270 forward single #
loop $-1 $271 $272 $107 #
cone-surface $-1 19.361187502639964 21.809511617500494 7.7444417452470677 0 -0.84804810408105047 -0.52991925155115449 0.75 0 0 1 I I -0.70710678118654713 0.70710678118654802 0.75 forward I I I I #
loop $-1 $-1 $273 $73 #
coedge $-1 $172 $172 $274 $275 reversed $108 $-1 #
face $-1 $-1 $276 $58 $-1 $277 forward single #
loop $-1 $278 $279 $110 #
cone-surface $-1 25.571031307266722 21.809511617500494 7.7444417452470677 0 -0.84804810408105047 -0.52991925155115449 0.75 0 0 1 I I -0.70710678118654713 0.70710678118654802 0.75 forward I I I I #
loop $-1 $-1 $280 $74 #
coedge $-1 $177 $177 $281 $282 reversed $111 $-1 #
face $-1 $283 $284 $59 $-1 $285 reversed single #
loop $-1 $-1 $286 $113 #
plane-surface $-1 54.847646015122066 -1.7054522184791807 55.635445541623056 0 0.84804810408105047 0.52991925155115449 1 0 0 forward_v I I I I #
coedge $-1 $287 $288 $289 $290 reversed $114 $-1 #
face $-1 $-1 $291 $60 $-1 $292 forward single #
loop $-1 $293 $294 $116 #
cone-surface $-1 51.742724112808688 21.809511617500494 7.7444417452470677 0 -0.84804810408105047 -0.52991925155115449 0.75 0 0 1 I I -0.70710678118654713 0.70710678118654802 0.75 forward I I I I #
loop $-1 $-1 $295 $76 #
coedge $-1 $186 $186 $296 $297 reversed $117 $-1 #
face $-1 $-1 $298 $61 $-1 $299 forward single #
loop $-1 $300 $301 $119 #
cone-surface $-1 57.952567917435445 21.809511617500494 7.7444417452470677 0 -0.84804810408105047 -0.52991925155115449 0.75 0 0 1 I I -0.70710678118654713 0.70710678118654802 0.75 forward I I I I #
loop $-1 $-1 $302 $77 #
coedge $-1 $191 $191 $303 $304 reversed $120 $-1 #
face $-1 $305 $306 $62 $-1 $307 reversed single #
loop $-1 $-1 $308 $122 #
plane-surface $-1 -27.55971701196269 -28.50091713630087 7.0778215881275344 0 -0.81915205242281985 0.57357642473473569 1 0 0 forward_v I I I I #
coedge $-1 $309 $310 $311 $312 reversed $123 $-1 #
face $-1 $-1 $313 $63 $-1 $314 forward single #
loop $-1 $315 $316 $125 #
cone-surface $-1 -27.55971701196269 -22.442760246034911 7.9607946403693877 0 0.81915205242281985 -0.57357642473473569 1 0 0 1 I I -0.70710678118654746 0.70710678118654746 1 forward I I I I #
loop $-1 $-1 $317 $79 #
coedge $-1 $200 $200 $318 $319 reversed $126 $-1 #
face $-1 $320 $321 $48 $-1 $322 reversed single #
loop $-1 $-1 $323 $128 #
plane-surface $-1 0 -28.500917136300846 0 0 1 0 0 0 1 forward_v I I I I #
coedge $-1 $324 $325 $326 $327 forward $129 $-1 #
coedge $-1 $328 $131 $329 $330 forward $81 $-1 #
coedge $-1 $131 $328 $331 $332 forward $81 $-1 #
coedge $-1 $333 $334 $131 $208 reversed $335 $-1 #
edge $-1 $336 -28.500917136300846 $337 28.500917136300846 $207 $338 forward 7 unknown #
face $-1 $339 $340 $49 $-1 $341 reversed single #
loop $-1 $-1 $342 $132 #
plane-surface $-1 -53.850269977757719 0 4.6236532168353346 -1 0 0 0 0 1 forward_v I I I I #
coedge $-1 $343 $344 $345 $346 forward $133 $-1 #
coedge $-1 $347 $135 $348 $349 reversed $84 $-1 #
coedge $-1 $135 $347 $350 $351 reversed $84 $-1 #
coedge $-1 $342 $352 $135 $216 reversed $210 $-1 #
edge $-1 $353 -28.500917136300846 $354 28.500917136300846 $215 $355 forward 7 unknown #
face $-1 $356 $357 $50 $-1 $358 forward single #
loop $-1 $-1 $359 $136 #
plane-surface $-1 -35.052146043319553 110.9169509881242 126.00973130198805 -1 0 0 0 0.84804810408105047 0.52991925155115449 forward_v I I I I #
coedge $-1 $360 $361 $362 $363 reversed $137 $-1 #
coedge $-1 $222 $139 $364 $365 reversed $87 $-1 #
coedge $-1 $139 $221 $360 $366 reversed $87 $-1 #
coedge $-1 $362 $367 $139 $224 forward $357 $-1 #
edge $-1 $368 26.957558357761254 $369 31.119467071382335 $223 $370 forward 7 unknown #
loop $-1 $-1 $230 $140 #
plane-surface $-1 -42.296963815384117 -1.7054522184791807 55.635445541623056 0 0.84804810408105047 0.52991925155115449 1 0 0 forward_v I I I I #
loop $-1 $-1 $371 $89 #
coedge $-1 $228 $228 $229 $372 reversed $141 $-1 #
coedge $-1 $229 $229 $228 $372 forward $143 $-1 #
coedge $-1 $230 $230 $144 $231 forward $225 $-1 #
edge $-1 $373 -1.2551009157636734e-015 $373 6.2831853071795996 $230 $374 forward 7 unknown #
loop $-1 $-1 $237 $145 #
plane-surface $-1 -42.296963815384117 -1.7054522184791807 55.635445541623056 0 0.84804810408105047 0.52991925155115449 1 0 0 forward_v I I I I #
loop $-1 $-1 $375 $92 #
coedge $-1 $235 $235 $236 $376 reversed $146 $-1 #
coedge $-1 $236 $236 $235 $376 forward $148 $-1 #
coedge $-1 $237 $237 $149 $238 forward $232 $-1 #
edge $-1 $377 -1.2551009157636734e-015 $377 6.2831853071795996 $237 $378 forward 7 unknown #
face $-1 $379 $380 $53 $-1 $381 forward single #
loop $-1 $-1 $382 $150 #
plane-surface $-1 -2.6706094331508226 110.9169509881242 126.00973130198805 -1 0 0 0 0.84804810408105047 0.52991925155115449 forward_v I I I I #
coedge $-1 $383 $384 $385 $386 reversed $151 $-1 #
coedge $-1 $244 $153 $387 $388 reversed $96 $-1 #
coedge $-1 $153 $243 $383 $389 reversed $96 $-1 #
coedge $-1 $385 $390 $153 $246 forward $380 $-1 #
edge $-1 $391 26.957558357761254 $392 31.119467071382335 $245 $393 forward 7 unknown #
loop $-1 $-1 $252 $154 #
plane-surface $-1 -9.9154272052153871 -1.7054522184791807 55.635445541623056 0 0.84804810408105047 0.52991925155115449 1 0 0 forward_v I I I I #
loop $-1 $-1 $394 $98 #
coedge $-1 $250 $250 $251 $395 reversed $155 $-1 #
coedge $-1 $251 $251 $250 $395 forward $157 $-1 #
coedge $-1 $252 $252 $158 $253 forward $247 $-1 #
edge $-1 $396 -1.2551009157636734e-015 $396 6.2831853071795996 $252 $397 forward 7 unknown #
loop $-1 $-1 $259 $159 #
plane-surface $-1 -9.9154272052153871 -1.7054522184791807 55.635445541623056 0 0.84804810408105047 0.52991925155115449 1 0 0 forward_v I I I I #
loop $-1 $-1 $398 $101 #
coedge $-1 $257 $257 $258 $399 reversed $160 $-1 #
coedge $-1 $258 $258 $257 $399 forward $162 $-1 #
coedge $-1 $259 $259 $163 $260 forward $254 $-1 #
edge $-1 $400 -1.2551009157636734e-015 $400 6.2831853071795996 $259 $401 forward 7 unknown #
face $-1 $402 $403 $56 $-1 $404 forward single #
loop $-1 $-1 $405 $164 #
plane-surface $-1 29.710927177017908 110.9169509881242 126.00973130198805 -1 0 0 0 0.84804810408105047 0.52991925155115449 forward_v I I I I #
coedge $-1 $406 $407 $408 $409 reversed $165 $-1 #
coedge $-1 $266 $167 $410 $411 reversed $105 $-1 #
coedge $-1 $167 $265 $406 $412 reversed $105 $-1 #
coedge $-1 $408 $413 $167 $268 forward $403 $-1 #
edge $-1 $414 26.957558357761254 $415 31.119467071382335 $267 $416 forward 7 unknown #
loop $-1 $-1 $274 $168 #
plane-surface $-1 22.466109404953343 -1.7054522184791807 55.635445541623056 0 0.84804810408105047 0.52991925155115449 1 0 0 forward_v I I I I #
loop $-1 $-1 $417 $107 #
coedge $-1 $272 $272 $273 $418 reversed $169 $-1 #
coedge $-1 $273 $273 $272 $418 forward $171 $-1 #
coedge $-1 $274 $274 $172 $275 forward $269 $-1 #
edge $-1 $419 -1.2551009157636734e-015 $419 6.2831853071795996 $274 $420 forward 7 unknown #
loop $-1 $-1 $281 $173 #
plane-surface $-1 22.466109404953343 -1.7054522184791807 55.635445541623056 0 0.84804810408105047 0.52991925155115449 1 0 0 forward_v I I I I #
loop $-1 $-1 $421 $110 #
coedge $-1 $279 $279 $280 $422 reversed $174 $-1 #
coedge $-1 $280 $280 $279 $422 forward $176 $-1 #
coedge $-1 $281 $281 $177 $282 forward $276 $-1 #
edge $-1 $423 -1.2551009157636734e-015 $423 6.2831853071795996 $281 $424 forward 7 unknown #
face $-1 $425 $426 $59 $-1 $427 forward single #
loop $-1 $-1 $428 $178 #
plane-surface $-1 62.092463787186631 110.9169509881242 126.00973130198805 -1 0 0 0 0.84804810408105047 0.52991925155115449 forward_v I I I I #
coedge $-1 $429 $430 $431 $432 reversed $179 $-1 #
coedge $-1 $288 $181 $433 $434 reversed $114 $-1 #
coedge $-1 $181 $287 $429 $435 reversed $114 $-1 #
coedge $-1 $431 $436 $181 $290 forward $426 $-1 #
edge $-1 $437 26.957558357761254 $438 31.119467071382335 $289 $439 forward 7 unknown #
loop $-1 $-1 $296 $182 #
plane-surface $-1 54.847646015122066 -1.7054522184791807 55.635445541623056 0 0.84804810408105047 0.52991925155115449 1 0 0 forward_v I I I I #
loop $-1 $-1 $440 $116 #
coedge $-1 $294 $294 $295 $441 reversed $183 $-1 #
coedge $-1 $295 $295 $294 $441 forward $185 $-1 #
coedge $-1 $296 $296 $186 $297 forward $291 $-1 #
edge $-1 $442 -1.2551009157636734e-015 $442 6.2831853071795996 $296 $443 forward 7 unknown #
loop $-1 $-1 $303 $187 #
plane-surface $-1 54.847646015122066 -1.7054522184791807 55.635445541623056 0 0.84804810408105047 0.52991925155115449 1 0 0 forward_v I I I I #
loop $-1 $-1 $444 $119 #
coedge $-1 $301 $301 $302 $445 reversed $188 $-1 #
coedge $-1 $302 $302 $301 $445 forward $190 $-1 #
coedge $-1 $303 $303 $191 $304 forward $298 $-1 #
edge $-1 $446 -1.2551009157636734e-015 $446 6.2831853071795996 $303 $447 forward 7 unknown #
face $-1 $448 $449 $62 $-1 $450 reversed single #
loop $-1 $-1 $451 $192 #
plane-surface $-1 -37.375016130445701 -137.28586965435099 83.249863086027759 1 0 0 0 0.81915205242281985 -0.57357642473473569 forward_v I I I I #
coedge $-1 $452 $453 $454 $455 reversed $193 $-1 #
coedge $-1 $310 $195 $456 $457 reversed $123 $-1 #
coedge $-1 $195 $309 $452 $458 reversed $123 $-1 #
coedge $-1 $454 $459 $195 $312 forward $460 $-1 #
edge $-1 $461 40.142017690874653 $462 44.957885984763621 $311 $463 forward 7 unknown #
loop $-1 $-1 $318 $196 #
plane-surface $-1 -27.55971701196269 -28.50091713630087 7.0778215881275344 0 -0.81915205242281985 0.57357642473473569 1 0 0 forward_v I I I I #
loop $-1 $-1 $464 $125 #
coedge $-1 $316 $316 $317 $465 reversed $197 $-1 #
coedge $-1 $317 $317 $316 $465 forward $199 $-1 #
coedge $-1 $318 $318 $200 $319 forward $313 $-1 #
edge $-1 $466 1.3117094316539209e-015 $466 6.2831853071796013 $318 $467 forward 7 unknown #
face $-1 $468 $469 $48 $-1 $470 reversed single #
loop $-1 $-1 $471 $201 #
plane-surface $-1 -66.400952177495654 0 0 1 0 0 0 0 -1 forward_v I I I I #
coedge $-1 $472 $331 $473 $474 forward $202 $-1 #
coedge $-1 $475 $204 $472 $476 forward $129 $-1 #
coedge $-1 $204 $475 $477 $478 forward $129 $-1 #
coedge $-1 $334 $333 $204 $327 reversed $335 $-1 #
edge $-1 $479 -28.500917136300846 $480 28.500917136300846 $326 $481 forward 7 unknown #
coedge $-1 $206 $205 $482 $483 forward $81 $-1 #
coedge $-1 $484 $485 $205 $330 reversed $469 $-1 #
edge $-1 $337 -66.400952177495654 $486 66.400952177495654 $329 $487 forward 7 unknown #
coedge $-1 $323 $488 $206 $332 reversed $202 $-1 #
edge $-1 $489 -66.400952177495654 $336 66.400952177495654 $331 $490 forward 7 unknown #
coedge $-1 $326 $207 $488 $491 forward $335 $-1 #
coedge $-1 $207 $326 $484 $492 reversed $335 $-1 #
loop $-1 $-1 $333 $468 #
vertex $-1 $208 $493 #
vertex $-1 $208 $494 #
straight-curve $-1 66.400952177495654 0 13.955594500362528 0 1 0 I I #
face $-1 $495 $496 $49 $-1 $497 reversed single #
loop $-1 $-1 $498 $209 #
plane-surface $-1 0 -28.500917136300846 0 0 1 0 0 0 1 forward_v I I I I #
coedge $-1 $345 $215 $499 $500 reversed $210 $-1 #
coedge $-1 $501 $212 $498 $502 reversed $133 $-1 #
coedge $-1 $212 $501 $503 $504 reversed $133 $-1 #
coedge $-1 $352 $342 $212 $346 reversed $210 $-1 #
edge $-1 $505 -28.500917136300846 $506 28.500917136300846 $345 $507 forward 7 unknown #
coedge $-1 $214 $213 $508 $509 reversed $84 $-1 #
coedge $-1 $510 $511 $213 $349 forward $512 $-1 #
edge $-1 $513 -36.338146638682311 $354 -23.787464438944376 $348 $514 forward 7 unknown #
coedge $-1 $515 $499 $214 $351 forward $340 $-1 #
edge $-1 $353 23.787464438944376 $516 36.338146638682311 $350 $517 forward 7 unknown #
coedge $-1 $215 $345 $510 $518 reversed $210 $-1 #
vertex $-1 $351 $519 #
vertex $-1 $349 $520 #
straight-curve $-1 -53.850269977757719 0 7.661668632666383 0 1 0 I I #
face $-1 $-1 $521 $50 $-1 $522 reversed single #
loop $-1 $-1 $223 $217 #
plane-surface $-1 0 0 13.955594500362528 0 0 1 1 0 0 forward_v I I I I #
coedge $-1 $523 $524 $525 $526 reversed $218 $-1 #
coedge $-1 $527 $220 $222 $366 forward $137 $-1 #
coedge $-1 $220 $527 $523 $528 forward $137 $-1 #
coedge $-1 $525 $223 $220 $363 forward $357 $-1 #
edge $-1 $369 -28.393299679756623 $529 -13.903664135627494 $362 $530 forward 7 unknown #
coedge $-1 $531 $532 $221 $365 forward $521 $-1 #
edge $-1 $533 -55.709717593393066 $368 -49.049271150631498 $364 $534 forward 7 unknown #
edge $-1 $369 49.147979743938038 $533 57.00183427260167 $222 $535 forward 7 unknown #
coedge $-1 $223 $525 $531 $536 forward $357 $-1 #
vertex $-1 $365 $537 #
vertex $-1 $224 $538 #
straight-curve $-1 -49.541781587448682 55.4584754940621 13.95559450036253 0 -1 0 I I #
coedge $-1 $371 $371 $-1 $539 reversed $227 $-1 #
edge $-1 $540 0 $540 6.2831853071796004 $228 $541 forward 7 unknown #
vertex $-1 $231 $542 #
ellipse-curve $-1 -45.401885717697503 26.419962779490309 10.625371278981738 0 0.84804810408105047 0.52991925155115449 1.5 0 0 1 I I #
coedge $-1 $375 $375 $-1 $543 reversed $234 $-1 #
edge $-1 $544 0 $544 6.2831853071796004 $235 $545 forward 7 unknown #
vertex $-1 $238 $546 #
ellipse-curve $-1 -39.192041913070732 26.419962779490309 10.625371278981738 0 0.84804810408105047 0.52991925155115449 1.5 0 0 1 I I #
face $-1 $-1 $547 $53 $-1 $548 reversed single #
loop $-1 $-1 $245 $239 #
plane-surface $-1 0 0 13.955594500362528 0 0 1 1 0 0 forward_v I I I I #
coedge $-1 $549 $550 $551 $552 reversed $240 $-1 #
coedge $-1 $553 $242 $244 $389 forward $151 $-1 #
coedge $-1 $242 $553 $549 $554 forward $151 $-1 #
coedge $-1 $551 $245 $242 $386 forward $380 $-1 #
edge $-1 $392 -12.202531374672258 $555 2.287104169456871 $385 $556 forward 7 unknown #
coedge $-1 $557 $558 $243 $388 forward $547 $-1 #
edge $-1 $559 -55.709717593393066 $391 -49.049271150631498 $387 $560 forward 7 unknown #
edge $-1 $392 49.147979743938038 $559 57.00183427260167 $244 $561 forward 7 unknown #
coedge $-1 $245 $551 $557 $562 forward $380 $-1 #
vertex $-1 $246 $563 #
vertex $-1 $246 $564 #
straight-curve $-1 -17.160244977279952 55.4584754940621 13.95559450036253 0 -1 0 I I #
coedge $-1 $394 $394 $-1 $565 reversed $249 $-1 #
edge $-1 $566 0 $566 6.2831853071796004 $250 $567 forward 7 unknown #
vertex $-1 $253 $568 #
ellipse-curve $-1 -13.020349107528773 26.419962779490309 10.625371278981738 0 0.84804810408105047 0.52991925155115449 1.5 0 0 1 I I #
coedge $-1 $398 $398 $-1 $569 reversed $256 $-1 #
edge $-1 $570 0 $570 6.2831853071796004 $257 $571 forward 7 unknown #
vertex $-1 $260 $572 #
ellipse-curve $-1 -6.8105053029020013 26.419962779490309 10.625371278981738 0 0.84804810408105047 0.52991925155115449 1.5 0 0 1 I I #
face $-1 $-1 $573 $56 $-1 $574 reversed single #
loop $-1 $-1 $267 $261 #
plane-surface $-1 0 0 13.955594500362528 0 0 1 1 0 0 forward_v I I I I #
coedge $-1 $575 $576 $577 $578 reversed $262 $-1 #
coedge $-1 $579 $264 $266 $412 forward $165 $-1 #
coedge $-1 $264 $579 $575 $580 forward $165 $-1 #
coedge $-1 $577 $267 $264 $409 forward $403 $-1 #
edge $-1 $415 3.988236930412107 $581 18.477872474541236 $408 $582 forward 7 unknown #
coedge $-1 $583 $584 $265 $411 forward $573 $-1 #
edge $-1 $585 -55.709717593393066 $414 -49.049271150631498 $410 $586 forward 7 unknown #
edge $-1 $415 49.147979743938038 $585 57.00183427260167 $266 $587 forward 7 unknown #
coedge $-1 $267 $577 $583 $588 forward $403 $-1 #
vertex $-1 $268 $589 #
vertex $-1 $268 $590 #
straight-curve $-1 15.221291632888779 55.4584754940621 13.95559450036253 0 -1 0 I I #
coedge $-1 $417 $417 $-1 $591 reversed $271 $-1 #
edge $-1 $592 0 $592 6.2831853071796004 $272 $593 forward 7 unknown #
vertex $-1 $275 $594 #
ellipse-curve $-1 19.361187502639964 26.419962779490309 10.625371278981738 0 0.84804810408105047 0.52991925155115449 1.5 0 0 1 I I #
coedge $-1 $421 $421 $-1 $595 reversed $278 $-1 #
edge $-1 $596 0 $596 6.2831853071796004 $279 $597 forward 7 unknown #
vertex $-1 $282 $598 #
ellipse-curve $-1 25.571031307266722 26.419962779490309 10.625371278981738 0 0.84804810408105047 0.52991925155115449 1.5 0 0 1 I I #
face $-1 $-1 $599 $59 $-1 $600 reversed single #
loop $-1 $-1 $289 $283 #
plane-surface $-1 0 0 13.955594500362528 0 0 1 1 0 0 forward_v I I I I #
coedge $-1 $601 $602 $603 $604 reversed $284 $-1 #
coedge $-1 $605 $286 $288 $435 forward $179 $-1 #
coedge $-1 $286 $605 $601 $606 forward $179 $-1 #
coedge $-1 $603 $289 $286 $432 forward $426 $-1 #
edge $-1 $438 20.179005235496469 $607 34.668640779625598 $431 $608 forward 7 unknown #
coedge $-1 $609 $610 $287 $434 forward $599 $-1 #
edge $-1 $611 -55.709717593393066 $437 -49.049271150631498 $433 $612 forward 7 unknown #
edge $-1 $438 49.147979743938038 $611 57.00183427260167 $288 $613 forward 7 unknown #
coedge $-1 $289 $603 $609 $614 forward $426 $-1 #
vertex $-1 $290 $615 #
vertex $-1 $290 $616 #
straight-curve $-1 47.602828243057502 55.4584754940621 13.95559450036253 0 -1 0 I I #
coedge $-1 $440 $440 $-1 $617 reversed $293 $-1 #
edge $-1 $618 0 $618 6.2831853071796004 $294 $619 forward 7 unknown #
vertex $-1 $297 $620 #
ellipse-curve $-1 51.742724112808688 26.419962779490309 10.625371278981738 0 0.84804810408105047 0.52991925155115449 1.5 0 0 1 I I #
coedge $-1 $444 $444 $-1 $621 reversed $300 $-1 #
edge $-1 $622 0 $622 6.2831853071796004 $301 $623 forward 7 unknown #
vertex $-1 $304 $624 #
ellipse-curve $-1 57.952567917435445 26.419962779490309 10.625371278981738 0 0.84804810408105047 0.52991925155115449 1.5 0 0 1 I I #
face $-1 $-1 $460 $62 $-1 $625 forward single #
loop $-1 $-1 $626 $305 #
plane-surface $-1 0 -28.500917136300846 0 0 1 0 0 0 1 forward_v I I I I #
coedge $-1 $627 $628 $629 $630 reversed $306 $-1 #
coedge $-1 $631 $308 $310 $458 forward $193 $-1 #
coedge $-1 $308 $631 $627 $632 forward $193 $-1 #
coedge $-1 $629 $311 $308 $455 forward $460 $-1 #
edge $-1 $462 3.9645593874983334 $633 23.595157624464356 $454 $634 forward 7 unknown #
coedge $-1 $635 $636 $309 $457 forward $449 $-1 #
edge $-1 $637 -34.547109954886309 $461 -27.66933704265135 $456 $638 forward 7 unknown #
edge $-1 $462 -8.3962103151575924 $637 -4.3366396686548645e-014 $310 $639 forward 7 unknown #
coedge $-1 $311 $629 $635 $640 forward $460 $-1 #
loop $-1 $-1 $629 $448 #
vertex $-1 $457 $641 #
vertex $-1 $312 $642 #
straight-curve $-1 -17.744417893479678 -68.642934827175495 13.95559450036253 0 1 0 I I #
coedge $-1 $464 $464 $-1 $643 reversed $315 $-1 #
edge $-1 $644 0 $644 6.2831853071796004 $316 $645 forward 7 unknown #
vertex $-1 $319 $646 #
ellipse-curve $-1 -27.55971701196269 -26.092982989356365 10.516708044245039 0 -0.81915205242281985 0.57357642473473569 2 0 0 1 I I #
face $-1 $-1 $335 $48 $-1 $647 reversed single #
loop $-1 $-1 $484 $320 #
plane-surface $-1 0 28.500917136300846 0 0 -1 0 0 0 -1 forward_v I I I I #
coedge $-1 $648 $482 $485 $649 forward $321 $-1 #
coedge $-1 $488 $323 $324 $476 reversed $202 $-1 #
coedge $-1 $482 $648 $323 $474 reversed $321 $-1 #
edge $-1 $489 -13.955594500362528 $650 13.955594500362528 $473 $651 forward 7 unknown #
coedge $-1 $325 $324 $648 $652 forward $129 $-1 #
edge $-1 $480 -66.400952177495654 $650 66.400952177495654 $472 $653 forward 7 unknown #
coedge $-1 $485 $484 $325 $478 reversed $469 $-1 #
edge $-1 $654 -66.400952177495654 $479 66.400952177495654 $477 $655 forward 7 unknown #
vertex $-1 $327 $656 #
vertex $-1 $491 $657 #
straight-curve $-1 66.400952177495654 0 -13.955594500362528 0 -1 0 I I #
coedge $-1 $471 $473 $328 $483 reversed $321 $-1 #
edge $-1 $486 -28.500917136300846 $489 28.500917136300846 $482 $658 forward 7 unknown #
coedge $-1 $477 $329 $334 $492 forward $469 $-1 #
coedge $-1 $329 $477 $471 $649 reversed $469 $-1 #
vertex $-1 $330 $659 #
straight-curve $-1 0 28.500917136300846 13.955594500362528 -1 0 0 I I #
coedge $-1 $331 $472 $333 $491 reversed $202 $-1 #
vertex $-1 $483 $660 #
straight-curve $-1 0 -28.500917136300846 13.955594500362528 1 0 0 I I #
edge $-1 $336 -13.955594500362528 $480 13.955594500362528 $333 $661 forward 7 unknown #
edge $-1 $337 -13.955594500362528 $479 13.955594500362528 $334 $662 forward 7 unknown #
point $-1 66.400952177495654 -28.500917136300846 13.955594500362528 #
point $-1 66.400952177495654 28.500917136300846 13.955594500362528 #
face $-1 $-1 $512 $49 $-1 $663 reversed single #
loop $-1 $-1 $664 $339 #
plane-surface $-1 -66.400952177495654 0 0 1 0 0 0 0 -1 forward_v I I I I #
coedge $-1 $499 $515 $343 $502 forward $340 $-1 #
coedge $-1 $350 $498 $342 $500 forward $340 $-1 #
edge $-1 $506 -0.7261888074133811 $353 5.3498420242487157 $499 $665 forward 7 unknown #
coedge $-1 $344 $343 $664 $666 reversed $133 $-1 #
edge $-1 $667 -36.338146638682311 $506 -23.787464438944376 $498 $668 forward 7 unknown #
coedge $-1 $511 $510 $344 $504 forward $512 $-1 #
edge $-1 $505 23.787464438944376 $669 36.338146638682311 $503 $670 forward 7 unknown #
vertex $-1 $504 $671 #
vertex $-1 $502 $672 #
straight-curve $-1 -53.850269977757719 0 1.5856378010042862 0 -1 0 I I #
coedge $-1 $673 $674 $347 $509 forward $496 $-1 #
edge $-1 $516 -28.500917136300846 $513 28.500917136300846 $508 $675 forward 7 unknown #
coedge $-1 $503 $348 $352 $518 forward $512 $-1 #
coedge $-1 $348 $503 $673 $676 reversed $512 $-1 #
loop $-1 $-1 $503 $495 #
vertex $-1 $676 $677 #
straight-curve $-1 -30.062805538813343 28.500917136300846 7.661668632666383 1 0 0 I I #
coedge $-1 $498 $350 $674 $678 forward $340 $-1 #
vertex $-1 $678 $679 #
straight-curve $-1 -30.062805538813343 -28.500917136300846 7.661668632666383 -1 0 0 I I #
edge $-1 $354 -5.3498420242487157 $505 0.7261888074133811 $510 $680 forward 7 unknown #
point $-1 -53.850269977757719 -28.500917136300846 7.661668632666383 #
point $-1 -53.850269977757719 28.500917136300846 7.661668632666383 #
loop $-1 $-1 $364 $356 #
plane-surface $-1 0 28.500917136300846 0 0 -1 0 0 0 -1 forward_v I I I I #
coedge $-1 $524 $359 $361 $528 reversed $218 $-1 #
coedge $-1 $359 $523 $681 $682 reversed $218 $-1 #
coedge $-1 $367 $362 $359 $526 forward $357 $-1 #
edge $-1 $529 -31.119467071382335 $683 -26.957558357761254 $525 $684 forward 7 unknown #
coedge $-1 $361 $360 $532 $685 reversed $137 $-1 #
edge $-1 $686 -57.00183427260167 $529 -49.147979743938038 $523 $687 forward 7 unknown #
vertex $-1 $363 $688 #
straight-curve $-1 -21.148481907692059 24.339008422679761 13.95559450036253 1 0 0 I I #
coedge $-1 $681 $364 $367 $536 reversed $521 $-1 #
coedge $-1 $364 $681 $527 $685 forward $521 $-1 #
vertex $-1 $365 $689 #
straight-curve $-1 -49.541781587448682 28.500917136300842 63.004865650994027 0 0 1 I I #
straight-curve $-1 -49.541781587448682 -1.7054522184791807 55.635445541623056 0 0.52991925155115449 -0.84804810408105047 I I #
edge $-1 $683 35.052146043319553 $368 49.541781587448682 $531 $690 forward 7 unknown #
point $-1 -49.541781587448682 28.500917136300846 13.955594500362528 #
point $-1 -49.541781587448682 24.339008422679765 13.95559450036253 #
edge $-1 $691 1 $691 0 $371 $-1 forward 7 unknown #
vertex $-1 $372 $692 #
ellipse-curve $-1 -45.401885717697503 22.445547695561281 8.1418811839104333 0 0.84804810408105047 0.52991925155115449 1.5 0 0 1 I I #
point $-1 -43.901885717697503 26.419962779490305 10.625371278981738 #
edge $-1 $693 1 $693 0 $375 $-1 forward 7 unknown #
vertex $-1 $376 $694 #
ellipse-curve $-1 -39.192041913070732 22.445547695561281 8.1418811839104333 0 0.84804810408105047 0.52991925155115449 1.5 0 0 1 I I #
point $-1 -37.692041913070732 26.419962779490305 10.625371278981738 #
loop $-1 $-1 $387 $379 #
plane-surface $-1 0 28.500917136300846 0 0 -1 0 0 0 -1 forward_v I I I I #
coedge $-1 $550 $382 $384 $554 reversed $240 $-1 #
coedge $-1 $382 $549 $695 $696 reversed $240 $-1 #
coedge $-1 $390 $385 $382 $552 forward $380 $-1 #
edge $-1 $555 -31.119467071382335 $697 -26.957558357761254 $551 $698 forward 7 unknown #
coedge $-1 $384 $383 $558 $699 reversed $151 $-1 #
edge $-1 $700 -57.00183427260167 $555 -49.147979743938038 $549 $701 forward 7 unknown #
vertex $-1 $386 $702 #
straight-curve $-1 -4.9577136026076936 24.339008422679761 13.95559450036253 1 0 0 I I #
coedge $-1 $695 $387 $390 $562 reversed $547 $-1 #
coedge $-1 $387 $695 $553 $699 forward $547 $-1 #
vertex $-1 $388 $703 #
straight-curve $-1 -17.160244977279952 28.500917136300842 63.004865650994027 0 0 1 I I #
straight-curve $-1 -17.160244977279952 -1.7054522184791807 55.635445541623056 0 0.52991925155115449 -0.84804810408105047 I I #
edge $-1 $697 2.6706094331508226 $391 17.160244977279952 $557 $704 forward 7 unknown #
point $-1 -17.160244977279952 28.500917136300846 13.955594500362528 #
point $-1 -17.160244977279952 24.339008422679765 13.95559450036253 #
edge $-1 $705 1 $705 0 $394 $-1 forward 7 unknown #
vertex $-1 $395 $706 #
ellipse-curve $-1 -13.020349107528773 22.445547695561281 8.1418811839104333 0 0.84804810408105047 0.52991925155115449 1.5 0 0 1 I I #
point $-1 -11.520349107528773 26.419962779490305 10.625371278981738 #
edge $-1 $707 1 $707 0 $398 $-1 forward 7 unknown #
vertex $-1 $399 $708 #
ellipse-curve $-1 -6.8105053029020013 22.445547695561281 8.1418811839104333 0 0.84804810408105047 0.52991925155115449 1.5 0 0 1 I I #
point $-1 -5.3105053029020013 26.419962779490305 10.625371278981738 #
loop $-1 $-1 $410 $402 #
plane-surface $-1 0 28.500917136300846 0 0 -1 0 0 0 -1 forward_v I I I I #
coedge $-1 $576 $405 $407 $580 reversed $262 $-1 #
coedge $-1 $405 $575 $709 $710 reversed $262 $-1 #
coedge $-1 $413 $408 $405 $578 forward $403 $-1 #
edge $-1 $581 -31.119467071382335 $711 -26.957558357761254 $577 $712 forward 7 unknown #
coedge $-1 $407 $406 $584 $713 reversed $165 $-1 #
edge $-1 $714 -57.00183427260167 $581 -49.147979743938038 $575 $715 forward 7 unknown #
vertex $-1 $409 $716 #
straight-curve $-1 11.233054702476672 24.339008422679761 13.95559450036253 1 0 0 I I #
coedge $-1 $709 $410 $413 $588 reversed $573 $-1 #
coedge $-1 $410 $709 $579 $713 forward $573 $-1 #
vertex $-1 $411 $717 #
straight-curve $-1 15.221291632888779 28.500917136300842 63.004865650994027 0 0 1 I I #
straight-curve $-1 15.221291632888779 -1.7054522184791807 55.635445541623056 0 0.52991925155115449 -0.84804810408105047 I I #
edge $-1 $711 -29.710927177017908 $414 -15.221291632888779 $583 $718 forward 7 unknown #
point $-1 15.221291632888779 28.500917136300846 13.955594500362528 #
point $-1 15.221291632888779 24.339008422679765 13.95559450036253 #
edge $-1 $719 1 $719 0 $417 $-1 forward 7 unknown #
vertex $-1 $418 $720 #
ellipse-curve $-1 19.361187502639964 22.445547695561281 8.1418811839104333 0 0.84804810408105047 0.52991925155115449 1.5 0 0 1 I I #
point $-1 20.861187502639964 26.419962779490305 10.625371278981738 #
edge $-1 $721 1 $721 0 $421 $-1 forward 7 unknown #
vertex $-1 $422 $722 #
ellipse-curve $-1 25.571031307266722 22.445547695561281 8.1418811839104333 0 0.84804810408105047 0.52991925155115449 1.5 0 0 1 I I #
point $-1 27.071031307266722 26.419962779490305 10.625371278981738 #
loop $-1 $-1 $433 $425 #
plane-surface $-1 0 28.500917136300846 0 0 -1 0 0 0 -1 forward_v I I I I #
coedge $-1 $602 $428 $430 $606 reversed $284 $-1 #
coedge $-1 $428 $601 $723 $724 reversed $284 $-1 #
coedge $-1 $436 $431 $428 $604 forward $426 $-1 #
edge $-1 $607 -31.119467071382335 $725 -26.957558357761254 $603 $726 forward 7 unknown #
coedge $-1 $430 $429 $610 $727 reversed $179 $-1 #
edge $-1 $728 -57.00183427260167 $607 -49.147979743938038 $601 $729 forward 7 unknown #
vertex $-1 $432 $730 #
straight-curve $-1 27.423823007561033 24.339008422679761 13.95559450036253 1 0 0 I I #
coedge $-1 $723 $433 $436 $614 reversed $599 $-1 #
coedge $-1 $433 $723 $605 $727 forward $599 $-1 #
vertex $-1 $434 $731 #
straight-curve $-1 47.602828243057502 28.500917136300842 63.004865650994027 0 0 1 I I #
straight-curve $-1 47.602828243057502 -1.7054522184791807 55.635445541623056 0 0.52991925155115449 -0.84804810408105047 I I #
edge $-1 $725 -62.092463787186631 $437 -47.602828243057502 $609 $732 forward 7 unknown #
point $-1 47.602828243057502 28.500917136300846 13.955594500362528 #
point $-1 47.602828243057502 24.339008422679765 13.95559450036253 #
edge $-1 $733 1 $733 0 $440 $-1 forward 7 unknown #
vertex $-1 $441 $734 #
ellipse-curve $-1 51.742724112808688 22.445547695561281 8.1418811839104333 0 0.84804810408105047 0.52991925155115449 1.5 0 0 1 I I #
point $-1 53.242724112808688 26.419962779490305 10.625371278981738 #
edge $-1 $735 1 $735 0 $444 $-1 forward 7 unknown #
vertex $-1 $445 $736 #
ellipse-curve $-1 57.952567917435445 22.445547695561281 8.1418811839104333 0 0.84804810408105047 0.52991925155115449 1.5 0 0 1 I I #
point $-1 59.452567917435445 26.419962779490305 10.625371278981738 #
plane-surface $-1 0 0 13.955594500362528 0 0 1 1 0 0 forward_v I I I I #
coedge $-1 $636 $635 $628 $737 forward $449 $-1 #
coedge $-1 $628 $451 $453 $632 reversed $306 $-1 #
coedge $-1 $451 $627 $626 $737 reversed $306 $-1 #
coedge $-1 $459 $454 $451 $630 forward $460 $-1 #
edge $-1 $633 -44.957885984763621 $738 -40.142017690874653 $629 $739 forward 7 unknown #
coedge $-1 $453 $452 $636 $740 reversed $193 $-1 #
edge $-1 $741 4.3366396686548645e-014 $633 8.3962103151575924 $627 $742 forward 7 unknown #
vertex $-1 $455 $743 #
straight-curve $-1 -13.779858505981345 -23.685048842411874 13.955594500362528 -1 0 0 I I #
coedge $-1 $626 $456 $459 $640 reversed $449 $-1 #
coedge $-1 $456 $626 $631 $740 forward $449 $-1 #
vertex $-1 $457 $744 #
straight-curve $-1 -17.744417893479678 -28.500917136300842 41.624931543013879 0 0 1 I I #
straight-curve $-1 -17.744417893479678 -28.50091713630087 7.0778215881275344 0 -0.57357642473473569 -0.81915205242281985 I I #
edge $-1 $738 -37.375016130445701 $461 -17.744417893479678 $635 $745 forward 7 unknown #
point $-1 -17.744417893479678 -28.500917136300846 13.955594500362528 #
point $-1 -17.744417893479678 -23.68504884241187 13.955594500362526 #
edge $-1 $746 1 $746 0 $464 $-1 forward 7 unknown #
vertex $-1 $465 $747 #
ellipse-curve $-1 -27.55971701196269 -23.26191229845773 8.5343710651041231 0 -0.81915205242281985 0.57357642473473569 2 0 0 1 I I #
point $-1 -25.55971701196269 -26.09298298935634 10.516708044245025 #
plane-surface $-1 66.400952177495654 0 0 -1 0 0 0 0 1 forward_v I I I I #
coedge $-1 $473 $471 $475 $652 reversed $321 $-1 #
edge $-1 $486 -13.955594500362528 $654 13.955594500362528 $485 $748 forward 7 unknown #
vertex $-1 $652 $749 #
straight-curve $-1 -66.400952177495654 -28.500917136300846 0 0 0 -1 I I #
edge $-1 $650 -28.500917136300846 $654 28.500917136300846 $648 $750 forward 7 unknown #
straight-curve $-1 0 -28.500917136300846 -13.955594500362528 -1 0 0 I I #
vertex $-1 $478 $751 #
straight-curve $-1 0 28.500917136300846 -13.955594500362528 1 0 0 I I #
point $-1 66.400952177495654 28.500917136300846 -13.955594500362528 #
point $-1 66.400952177495654 -28.500917136300846 -13.955594500362528 #
straight-curve $-1 -66.400952177495654 0 13.955594500362528 0 -1 0 I I #
point $-1 -66.400952177495654 28.500917136300846 13.955594500362528 #
point $-1 -66.400952177495654 -28.500917136300846 13.955594500362528 #
straight-curve $-1 66.400952177495654 -28.500917136300846 0 0 0 -1 I I #
straight-curve $-1 66.400952177495654 28.500917136300846 0 0 0 -1 I I #
plane-surface $-1 0 28.500917136300846 0 0 -1 0 0 0 -1 forward_v I I I I #
coedge $-1 $674 $673 $501 $666 forward $496 $-1 #
straight-curve $-1 -53.850269977757719 -28.500917136300846 2.3118266084176673 0 0 1 I I #
edge $-1 $669 -28.500917136300846 $667 28.500917136300846 $664 $752 forward 7 unknown #
vertex $-1 $502 $753 #
straight-curve $-1 -30.062805538813343 -28.500917136300846 1.5856378010042862 1 0 0 I I #
vertex $-1 $504 $754 #
straight-curve $-1 -30.062805538813343 28.500917136300846 1.5856378010042862 -1 0 0 I I #
point $-1 -53.850269977757719 28.500917136300846 1.5856378010042862 #
point $-1 -53.850269977757719 -28.500917136300846 1.5856378010042862 #
coedge $-1 $664 $508 $511 $676 forward $496 $-1 #
coedge $-1 $508 $664 $515 $678 reversed $496 $-1 #
straight-curve $-1 -66.400952177495654 0 7.661668632666383 0 1 0 I I #
edge $-1 $513 -7.661668632666383 $669 -1.5856378010042862 $511 $755 forward 7 unknown #
point $-1 -66.400952177495654 28.500917136300846 7.661668632666383 #
edge $-1 $516 -7.661668632666383 $667 -1.5856378010042862 $674 $756 forward 7 unknown #
point $-1 -66.400952177495654 -28.500917136300846 7.661668632666383 #
straight-curve $-1 -53.850269977757719 28.500917136300846 2.3118266084176673 0 0 -1 I I #
coedge $-1 $532 $531 $524 $682 forward $521 $-1 #
edge $-1 $683 49.049271150631498 $686 55.709717593393066 $681 $757 forward 7 unknown #
vertex $-1 $536 $758 #
straight-curve $-1 -35.052146043319553 55.4584754940621 13.95559450036253 0 1 0 I I #
edge $-1 $686 13.903664135627494 $533 28.393299679756623 $532 $759 forward 7 unknown #
vertex $-1 $685 $760 #
straight-curve $-1 -35.052146043319553 -1.7054522184791807 55.635445541623056 0 -0.52991925155115449 0.84804810408105047 I I #
point $-1 -35.052146043319553 24.339008422679765 13.95559450036253 #
point $-1 -49.541781587448682 28.500917136300846 7.2951480576009615 #
straight-curve $-1 0 28.500917136300846 13.955594500362528 -1 0 0 I I #
vertex $-1 $539 $761 #
point $-1 -43.901885717697503 22.445547695561281 8.1418811839104333 #
vertex $-1 $543 $762 #
point $-1 -37.692041913070732 22.445547695561281 8.1418811839104333 #
coedge $-1 $558 $557 $550 $696 forward $547 $-1 #
edge $-1 $697 49.049271150631498 $700 55.709717593393066 $695 $763 forward 7 unknown #
vertex $-1 $562 $764 #
straight-curve $-1 -2.6706094331508226 55.4584754940621 13.95559450036253 0 1 0 I I #
edge $-1 $700 -2.287104169456871 $559 12.202531374672258 $558 $765 forward 7 unknown #
vertex $-1 $699 $766 #
straight-curve $-1 -2.6706094331508226 -1.7054522184791807 55.635445541623056 0 -0.52991925155115449 0.84804810408105047 I I #
point $-1 -2.6706094331508226 24.339008422679765 13.95559450036253 #
point $-1 -17.160244977279952 28.500917136300846 7.2951480576009615 #
straight-curve $-1 0 28.500917136300846 13.955594500362528 -1 0 0 I I #
vertex $-1 $565 $767 #
point $-1 -11.520349107528773 22.445547695561281 8.1418811839104333 #
vertex $-1 $569 $768 #
point $-1 -5.3105053029020013 22.445547695561281 8.1418811839104333 #
coedge $-1 $584 $583 $576 $710 forward $573 $-1 #
edge $-1 $711 49.049271150631498 $714 55.709717593393066 $709 $769 forward 7 unknown #
vertex $-1 $588 $770 #
straight-curve $-1 29.710927177017908 55.4584754940621 13.95559450036253 0 1 0 I I #
edge $-1 $714 -18.477872474541236 $585 -3.988236930412107 $584 $771 forward 7 unknown #
vertex $-1 $713 $772 #
straight-curve $-1 29.710927177017908 -1.7054522184791807 55.635445541623056 0 -0.52991925155115449 0.84804810408105047 I I #
point $-1 29.710927177017908 24.339008422679765 13.95559450036253 #
point $-1 15.221291632888779 28.500917136300846 7.2951480576009615 #
straight-curve $-1 0 28.500917136300846 13.955594500362528 -1 0 0 I I #
vertex $-1 $591 $773 #
point $-1 20.861187502639964 22.445547695561281 8.1418811839104333 #
vertex $-1 $595 $774 #
point $-1 27.071031307266722 22.445547695561281 8.1418811839104333 #
coedge $-1 $610 $609 $602 $724 forward $599 $-1 #
edge $-1 $725 49.049271150631498 $728 55.709717593393066 $723 $775 forward 7 unknown #
vertex $-1 $614 $776 #
straight-curve $-1 62.092463787186631 55.4584754940621 13.95559450036253 0 1 0 I I #
edge $-1 $728 -34.668640779625598 $611 -20.179005235496469 $610 $777 forward 7 unknown #
vertex $-1 $727 $778 #
straight-curve $-1 62.092463787186631 -1.7054522184791807 55.635445541623056 0 -0.52991925155115449 0.84804810408105047 I I #
point $-1 62.092463787186631 24.339008422679765 13.95559450036253 #
point $-1 47.602828243057502 28.500917136300846 7.2951480576009615 #
straight-curve $-1 0 28.500917136300846 13.955594500362528 -1 0 0 I I #
vertex $-1 $617 $779 #
point $-1 53.242724112808688 22.445547695561281 8.1418811839104333 #
vertex $-1 $621 $780 #
point $-1 59.452567917435445 22.445547695561281 8.1418811839104333 #
edge $-1 $738 27.66933704265135 $741 34.547109954886309 $626 $781 forward 7 unknown #
vertex $-1 $640 $782 #
straight-curve $-1 -37.375016130445701 -68.642934827175495 13.95559450036253 0 -1 0 I I #
edge $-1 $741 -23.595157624464356 $637 -3.9645593874983334 $636 $783 forward 7 unknown #
vertex $-1 $740 $784 #
straight-curve $-1 -37.375016130445701 -28.50091713630087 7.0778215881275344 0 0.57357642473473569 0.81915205242281985 I I #
point $-1 -37.375016130445701 -23.68504884241187 13.955594500362526 #
point $-1 -17.744417893479678 -28.500917136300846 7.0778215881275699 #
straight-curve $-1 0 -28.500917136300846 13.955594500362528 1 0 0 I I #
vertex $-1 $643 $785 #
point $-1 -25.55971701196269 -23.26191229845773 8.5343710651041231 #
straight-curve $-1 -66.400952177495654 28.500917136300846 0 0 0 -1 I I #
point $-1 -66.400952177495654 -28.500917136300846 -13.955594500362528 #
straight-curve $-1 -66.400952177495654 0 -13.955594500362528 0 1 0 I I #
point $-1 -66.400952177495654 28.500917136300846 -13.955594500362528 #
straight-curve $-1 -66.400952177495654 0 1.5856378010042862 0 -1 0 I I #
point $-1 -66.400952177495654 -28.500917136300846 1.5856378010042862 #
point $-1 -66.400952177495654 28.500917136300846 1.5856378010042862 #
straight-curve $-1 -66.400952177495654 28.500917136300846 0 0 0 -1 I I #
straight-curve $-1 -66.400952177495654 -28.500917136300846 0 0 0 -1 I I #
straight-curve $-1 -35.052146043319553 28.500917136300842 63.004865650994027 0 0 -1 I I #
point $-1 -35.052146043319553 28.500917136300846 13.955594500362528 #
straight-curve $-1 -21.148481907692059 28.500917136300842 7.2951480576009615 -1 0 0 I I #
point $-1 -35.052146043319553 28.500917136300846 7.2951480576009615 #
point $-1 -45.401885717697503 21.173475539439707 7.3470023065837013 #
point $-1 -39.192041913070732 21.173475539439707 7.3470023065837013 #
straight-curve $-1 -2.6706094331508226 28.500917136300842 63.004865650994027 0 0 -1 I I #
point $-1 -2.6706094331508226 28.500917136300846 13.955594500362528 #
straight-curve $-1 -4.9577136026076936 28.500917136300842 7.2951480576009615 -1 0 0 I I #
point $-1 -2.6706094331508226 28.500917136300846 7.2951480576009615 #
point $-1 -13.020349107528773 21.173475539439707 7.3470023065837013 #
point $-1 -6.8105053029020013 21.173475539439707 7.3470023065837013 #
straight-curve $-1 29.710927177017908 28.500917136300842 63.004865650994027 0 0 -1 I I #
point $-1 29.710927177017908 28.500917136300846 13.955594500362528 #
straight-curve $-1 11.233054702476672 28.500917136300842 7.2951480576009615 -1 0 0 I I #
point $-1 29.710927177017908 28.500917136300846 7.2951480576009615 #
point $-1 19.361187502639964 21.173475539439707 7.3470023065837013 #
point $-1 25.571031307266722 21.173475539439707 7.3470023065837013 #
straight-curve $-1 62.092463787186631 28.500917136300842 63.004865650994027 0 0 -1 I I #
point $-1 62.092463787186631 28.500917136300846 13.955594500362528 #
straight-curve $-1 27.423823007561033 28.500917136300842 7.2951480576009615 -1 0 0 I I #
point $-1 62.092463787186631 28.500917136300846 7.2951480576009615 #
point $-1 51.742724112808688 21.173475539439707 7.3470023065837013 #
point $-1 57.952567917435445 21.173475539439707 7.3470023065837013 #
straight-curve $-1 -37.375016130445701 -28.500917136300842 41.624931543013879 0 0 -1 I I #
point $-1 -37.375016130445701 -28.500917136300846 13.955594500362528 #
straight-curve $-1 -13.779858505981345 -28.500917136300846 7.0778215881275663 1 0 0 I I #
point $-1 -37.375016130445701 -28.500917136300846 7.0778215881275699 #
point $-1 -27.55971701196269 -21.623608193612093 7.3872182156346522 #
End-of-ACIS-data 