500 0 8 0           
7 Unknown 11 ACIS 5.0 NT 24 Fri Mar 26 02:55:54 1999 
-1 9.9999999999999995e-007 1e-010 
body $-1 $8 $-1 $9 #
body $-1 $10 $-1 $11 #
body $-1 $12 $-1 $13 #
body $-1 $14 $-1 $15 #
body $-1 $16 $-1 $17 #
body $-1 $18 $-1 $19 #
body $-1 $20 $-1 $21 #
body $-1 $22 $-1 $23 #
lump $-1 $-1 $24 $0 #
transform $-1 1 0 0 0 1 0 0 0 1 78.598590044862206 45.248819937384312 17.915312374512823 1 rotate no_reflect no_shear #
lump $-1 $-1 $25 $1 #
transform $-1 1 0 0 0 1 0 0 0 1 78.598590044862206 45.248819937384312 17.915312374512823 1 rotate no_reflect no_shear #
lump $-1 $-1 $26 $2 #
transform $-1 1 0 0 0 1 0 0 0 1 78.598590044862206 45.248819937384312 17.915312374512823 1 rotate no_reflect no_shear #
lump $-1 $-1 $27 $3 #
transform $-1 1 0 0 0 1 0 0 0 1 78.598590044862206 45.248819937384312 17.915312374512823 1 rotate no_reflect no_shear #
lump $-1 $-1 $28 $4 #
transform $-1 1 0 0 0 1 0 0 0 1 78.598590044862206 45.248819937384312 17.915312374512823 1 rotate no_reflect no_shear #
lump $-1 $-1 $29 $5 #
transform $-1 1 0 0 0 1 0 0 0 1 78.598590044862206 45.248819937384312 17.915312374512823 1 rotate no_reflect no_shear #
lump $-1 $-1 $30 $6 #
transform $-1 1 0 0 0 1 0 0 0 1 78.598590044862206 45.248819937384312 17.915312374512823 1 rotate no_reflect no_shear #
lump $-1 $-1 $31 $7 #
transform $-1 1 0 0 0 1 0 0 0 1 78.598590044862206 45.248819937384312 17.915312374512823 1 rotate no_reflect no_shear #
shell $-1 $-1 $-1 $32 $-1 $8 #
shell $-1 $-1 $-1 $33 $-1 $10 #
shell $-1 $-1 $-1 $34 $-1 $12 #
shell $-1 $-1 $-1 $35 $-1 $14 #
shell $-1 $-1 $-1 $36 $-1 $16 #
shell $-1 $-1 $-1 $37 $-1 $18 #
shell $-1 $-1 $-1 $38 $-1 $20 #
shell $-1 $-1 $-1 $39 $-1 $22 #
face $-1 $40 $41 $24 $-1 $42 forward single #
face $-1 $43 $44 $25 $-1 $45 reversed single #
face $-1 $46 $47 $26 $-1 $48 reversed single #
face $-1 $49 $50 $27 $-1 $51 forward single #
face $-1 $52 $53 $28 $-1 $54 forward single #
face $-1 $55 $56 $29 $-1 $57 reversed single #
face $-1 $58 $59 $30 $-1 $60 forward single #
face $-1 $61 $62 $31 $-1 $63 forward single #
face $-1 $64 $65 $24 $-1 $66 reversed single #
loop $-1 $-1 $67 $32 #
plane-surface $-1 0 0 17.915312374512823 0 0 1 1 0 0 forward_v I I I I #
face $-1 $68 $69 $25 $-1 $70 reversed single #
loop $-1 $-1 $71 $33 #
plane-surface $-1 -75.777093737337154 -30.213834023034792 0 0 -1 0 0 0 -1 forward_v I I I I #
face $-1 $72 $73 $26 $-1 $74 reversed single #
loop $-1 $-1 $75 $34 #
plane-surface $-1 124.81952107478251 -13.220170358111652 231.45592868825895 0 -1 0 -0.83867057594974714 0 -0.54463902268945019 forward_v I I I I #
face $-1 $76 $77 $27 $-1 $78 forward single #
loop $-1 $79 $80 $35 #
cone-surface $-1 75.678193357911667 -25.358501547342467 14.887760681316138 -0.83867057594974714 0 -0.54463902268945019 0.54463902268945019 0 -0.83867057594974714 1 I I 0 1 1 forward I I I I #
face $-1 $81 $82 $28 $-1 $83 forward single #
loop $-1 $84 $85 $36 #
cone-surface $-1 75.678193357911667 -18.075502833803977 14.887760681316138 -0.83867057594974714 0 -0.54463902268945019 0.54463902268945019 0 -0.83867057594974714 1 I I 0 1 1 forward I I I I #
face $-1 $86 $87 $29 $-1 $88 reversed single #
loop $-1 $-1 $89 $37 #
plane-surface $-1 -210.43523960838752 -13.220170358111652 99.619279124733652 0 -1 0 0.83867057594974714 0 -0.54463902268945019 forward_v I I I I #
face $-1 $90 $91 $30 $-1 $92 forward single #
loop $-1 $93 $94 $38 #
cone-surface $-1 -75.678193357911667 -25.358501547342467 14.887760681316106 0.83867057594974714 0 -0.54463902268945019 0.54463902268945019 0 0.83867057594974714 1 I I 0 1 1 forward I I I I #
face $-1 $95 $96 $31 $-1 $97 forward single #
loop $-1 $98 $99 $39 #
cone-surface $-1 -75.678193357911667 -18.075502833803977 14.887760681316106 0.83867057594974714 0 -0.54463902268945019 0.54463902268945019 0 0.83867057594974714 1 I I 0 1 1 forward I I I I #
face $-1 $100 $101 $24 $-1 $102 reversed single #
loop $-1 $-1 $103 $40 #
plane-surface $-1 0 0 -17.915312374512823 0 0 1 1 0 0 forward_v I I I I #
coedge $-1 $104 $105 $106 $107 forward $41 $-1 #
face $-1 $108 $109 $25 $-1 $110 forward single #
loop $-1 $-1 $111 $43 #
plane-surface $-1 -72.955597429812101 -37.731326980209552 0 -1 0 0 0 0 1 forward_v I I I I #
coedge $-1 $112 $113 $114 $115 reversed $44 $-1 #
face $-1 $116 $117 $26 $-1 $118 reversed single #
loop $-1 $-1 $119 $46 #
plane-surface $-1 -7.0171284887427845 -21.717002190573222 145.84021015465396 0.83867057594974714 0 0.54463902268945019 0.54463902268945019 0 -0.83867057594974714 forward_v I I I I #
coedge $-1 $120 $121 $122 $123 reversed $47 $-1 #
face $-1 $-1 $124 $27 $-1 $125 forward single #
loop $-1 $126 $127 $49 #
cone-surface $-1 73.608621997535906 -25.358501547342467 13.543765368466779 -0.83867057594974714 0 -0.54463902268945019 0.2723195113447251 0 -0.41933528797487357 1 I I -0.70710678118654746 0.70710678118654746 0.5 forward I I I I #
loop $-1 $-1 $128 $35 #
coedge $-1 $80 $80 $129 $130 reversed $50 $-1 #
face $-1 $-1 $131 $28 $-1 $132 forward single #
loop $-1 $133 $134 $52 #
cone-surface $-1 73.608621997535906 -18.075502833803977 13.543765368466779 -0.83867057594974714 0 -0.54463902268945019 0.2723195113447251 0 -0.41933528797487357 1 I I -0.70710678118654746 0.70710678118654746 0.5 forward I I I I #
loop $-1 $-1 $135 $36 #
coedge $-1 $85 $85 $136 $137 reversed $53 $-1 #
face $-1 $138 $139 $29 $-1 $140 forward single #
loop $-1 $-1 $141 $55 #
plane-surface $-1 -78.59859004486222 -21.717002190573222 14.003560591128647 -0.83867057594974714 0 0.54463902268945019 0.54463902268945019 0 0.83867057594974714 forward_v I I I I #
coedge $-1 $142 $143 $144 $145 reversed $56 $-1 #
face $-1 $-1 $146 $30 $-1 $147 forward single #
loop $-1 $148 $149 $58 #
cone-surface $-1 -73.608621997535906 -25.358501547342467 13.543765368466747 0.83867057594974714 0 -0.54463902268945019 0.2723195113447251 0 0.41933528797487357 1 I I -0.70710678118654746 0.70710678118654746 0.5 forward I I I I #
loop $-1 $-1 $150 $38 #
coedge $-1 $94 $94 $151 $152 reversed $59 $-1 #
face $-1 $-1 $153 $31 $-1 $154 forward single #
loop $-1 $155 $156 $61 #
cone-surface $-1 -73.608621997535906 -18.075502833803977 13.543765368466747 0.83867057594974714 0 -0.54463902268945019 0.2723195113447251 0 0.41933528797487357 1 I I -0.70710678118654746 0.70710678118654746 0.5 forward I I I I #
loop $-1 $-1 $157 $39 #
coedge $-1 $99 $99 $158 $159 reversed $62 $-1 #
face $-1 $160 $161 $24 $-1 $162 reversed single #
loop $-1 $-1 $163 $64 #
plane-surface $-1 0 -45.248819937384312 0 0 1 0 0 0 1 forward_v I I I I #
coedge $-1 $164 $165 $166 $167 forward $65 $-1 #
coedge $-1 $168 $67 $169 $170 forward $41 $-1 #
coedge $-1 $67 $168 $171 $172 forward $41 $-1 #
coedge $-1 $173 $174 $67 $107 reversed $175 $-1 #
edge $-1 $176 -45.248819937384312 $177 45.248819937384312 $106 $178 forward 7 unknown #
face $-1 $179 $180 $25 $-1 $181 reversed single #
loop $-1 $-1 $182 $68 #
plane-surface $-1 0 0 17.915312374512823 0 0 1 1 0 0 forward_v I I I I #
coedge $-1 $183 $184 $185 $186 reversed $69 $-1 #
coedge $-1 $187 $71 $188 $189 forward $44 $-1 #
coedge $-1 $71 $187 $190 $191 reversed $44 $-1 #
coedge $-1 $192 $182 $71 $115 forward $109 $-1 #
edge $-1 $193 35.067050561143525 $194 40.710043176193629 $114 $195 forward 7 unknown #
face $-1 $196 $197 $26 $-1 $198 reversed single #
loop $-1 $-1 $199 $72 #
plane-surface $-1 124.81952107478251 -30.213834023034792 231.45592868825895 0 1 0 0.83867057594974714 0 0.54463902268945019 forward_v I I I I #
coedge $-1 $200 $201 $202 $203 reversed $73 $-1 #
coedge $-1 $121 $75 $204 $205 reversed $47 $-1 #
coedge $-1 $75 $120 $200 $206 reversed $47 $-1 #
coedge $-1 $202 $207 $75 $123 forward $208 $-1 #
edge $-1 $209 -16.188829507470949 $210 -13.648508278371686 $122 $211 forward 7 unknown #
loop $-1 $-1 $129 $76 #
plane-surface $-1 -7.0171284887427845 -21.717002190573222 145.84021015465396 0.83867057594974714 0 0.54463902268945019 0.54463902268945019 0 -0.83867057594974714 forward_v I I I I #
loop $-1 $-1 $212 $49 #
coedge $-1 $127 $127 $128 $213 reversed $77 $-1 #
coedge $-1 $128 $128 $127 $213 forward $79 $-1 #
coedge $-1 $129 $129 $80 $130 forward $124 $-1 #
edge $-1 $214 0 $214 6.2831853071796004 $129 $215 forward 7 unknown #
loop $-1 $-1 $136 $81 #
plane-surface $-1 -7.0171284887427845 -21.717002190573222 145.84021015465396 0.83867057594974714 0 0.54463902268945019 0.54463902268945019 0 -0.83867057594974714 forward_v I I I I #
loop $-1 $-1 $216 $52 #
coedge $-1 $134 $134 $135 $217 reversed $82 $-1 #
coedge $-1 $135 $135 $134 $217 forward $84 $-1 #
coedge $-1 $136 $136 $85 $137 forward $131 $-1 #
edge $-1 $218 0 $218 6.2831853071796004 $136 $219 forward 7 unknown #
face $-1 $220 $221 $29 $-1 $222 forward single #
loop $-1 $-1 $223 $86 #
plane-surface $-1 0 0 17.915312374512823 0 0 1 1 0 0 forward_v I I I I #
coedge $-1 $224 $225 $226 $227 reversed $87 $-1 #
coedge $-1 $143 $89 $228 $229 reversed $56 $-1 #
coedge $-1 $89 $142 $224 $230 reversed $56 $-1 #
coedge $-1 $226 $231 $89 $145 forward $232 $-1 #
edge $-1 $233 31.894327187854003 $234 35.806078971238158 $144 $235 forward 7 unknown #
loop $-1 $-1 $151 $90 #
plane-surface $-1 -78.59859004486222 -21.717002190573222 14.003560591128647 -0.83867057594974714 0 0.54463902268945019 0.54463902268945019 0 0.83867057594974714 forward_v I I I I #
loop $-1 $-1 $236 $58 #
coedge $-1 $149 $149 $150 $237 reversed $91 $-1 #
coedge $-1 $150 $150 $149 $237 forward $93 $-1 #
coedge $-1 $151 $151 $94 $152 forward $146 $-1 #
edge $-1 $238 0 $238 6.2831853071796004 $151 $239 forward 7 unknown #
loop $-1 $-1 $158 $95 #
plane-surface $-1 -78.59859004486222 -21.717002190573222 14.003560591128647 -0.83867057594974714 0 0.54463902268945019 0.54463902268945019 0 0.83867057594974714 forward_v I I I I #
loop $-1 $-1 $240 $61 #
coedge $-1 $156 $156 $157 $241 reversed $96 $-1 #
coedge $-1 $157 $157 $156 $241 forward $98 $-1 #
coedge $-1 $158 $158 $99 $159 forward $153 $-1 #
edge $-1 $242 0 $242 6.2831853071796004 $158 $243 forward 7 unknown #
face $-1 $244 $245 $24 $-1 $246 reversed single #
loop $-1 $-1 $247 $100 #
plane-surface $-1 -78.598590044862206 0 0 1 0 0 0 0 -1 forward_v I I I I #
coedge $-1 $248 $171 $249 $250 forward $101 $-1 #
coedge $-1 $251 $103 $248 $252 forward $65 $-1 #
coedge $-1 $103 $251 $253 $254 forward $65 $-1 #
coedge $-1 $174 $173 $103 $167 reversed $175 $-1 #
edge $-1 $255 -45.248819937384312 $256 45.248819937384312 $166 $257 forward 7 unknown #
coedge $-1 $105 $104 $258 $259 forward $41 $-1 #
coedge $-1 $260 $261 $104 $170 reversed $245 $-1 #
edge $-1 $177 -78.598590044862206 $262 78.598590044862206 $169 $263 forward 7 unknown #
coedge $-1 $163 $264 $105 $172 reversed $101 $-1 #
edge $-1 $265 -78.598590044862206 $176 78.598590044862206 $171 $266 forward 7 unknown #
coedge $-1 $166 $106 $264 $267 forward $175 $-1 #
coedge $-1 $106 $166 $260 $268 reversed $175 $-1 #
loop $-1 $-1 $173 $244 #
vertex $-1 $107 $269 #
vertex $-1 $107 $270 #
straight-curve $-1 78.598590044862206 0 17.915312374512823 0 1 0 I I #
face $-1 $271 $272 $25 $-1 $273 reversed single #
loop $-1 $-1 $190 $108 #
plane-surface $-1 -78.598590044862206 0 0 1 0 0 0 0 -1 forward_v I I I I #
coedge $-1 $114 $274 $184 $275 forward $109 $-1 #
coedge $-1 $188 $111 $276 $277 reversed $69 $-1 #
coedge $-1 $111 $188 $182 $275 reversed $69 $-1 #
coedge $-1 $278 $279 $111 $186 forward $280 $-1 #
edge $-1 $281 -17.915312374512823 $282 17.915312374512823 $185 $283 forward 7 unknown #
coedge $-1 $113 $112 $284 $285 reversed $44 $-1 #
coedge $-1 $184 $183 $112 $189 reversed $69 $-1 #
edge $-1 $193 -17.915312374512823 $286 17.915312374512823 $188 $287 forward 7 unknown #
coedge $-1 $288 $289 $113 $191 forward $180 $-1 #
edge $-1 $194 -17.915312374512823 $290 17.915312374512823 $190 $291 forward 7 unknown #
coedge $-1 $274 $114 $289 $292 forward $109 $-1 #
vertex $-1 $115 $293 #
vertex $-1 $292 $294 #
straight-curve $-1 -37.888546868668577 -30.213834023034792 17.915312374512823 -1 0 0 I I #
face $-1 $-1 $208 $26 $-1 $295 forward single #
loop $-1 $-1 $296 $116 #
plane-surface $-1 78.598590044862206 0 0 -1 0 0 0 0 1 forward_v I I I I #
coedge $-1 $297 $298 $299 $300 reversed $117 $-1 #
coedge $-1 $301 $119 $121 $206 forward $73 $-1 #
coedge $-1 $119 $301 $297 $302 forward $73 $-1 #
coedge $-1 $299 $122 $119 $203 forward $208 $-1 #
edge $-1 $210 2.3616692628250409 $303 19.355332927748179 $202 $304 forward 7 unknown #
coedge $-1 $305 $306 $120 $205 forward $197 $-1 #
edge $-1 $307 -101.72440375300079 $209 -97.812651969616653 $204 $308 forward 7 unknown #
edge $-1 $210 152.53295089704727 $307 157.19718008972438 $121 $309 forward 7 unknown #
coedge $-1 $122 $299 $305 $310 forward $208 $-1 #
loop $-1 $-1 $299 $196 #
vertex $-1 $205 $311 #
vertex $-1 $123 $312 #
straight-curve $-1 62.409760537391257 -13.220170358111652 17.915312374512823 -1 0 0 I I #
coedge $-1 $212 $212 $-1 $313 reversed $126 $-1 #
edge $-1 $314 0 $314 6.2831853071796004 $127 $315 forward 7 unknown #
vertex $-1 $130 $316 #
ellipse-curve $-1 77.328429430312553 -25.358501547342467 15.95943648282077 0.83867057594974714 0 0.54463902268945019 0.54463902268945019 0 -0.83867057594974714 1 I I #
coedge $-1 $216 $216 $-1 $317 reversed $133 $-1 #
edge $-1 $318 0 $318 6.2831853071796004 $134 $319 forward 7 unknown #
vertex $-1 $137 $320 #
ellipse-curve $-1 77.328429430312553 -18.075502833803977 15.95943648282077 0.83867057594974714 0 0.54463902268945019 0.54463902268945019 0 -0.83867057594974714 1 I I #
face $-1 $-1 $232 $29 $-1 $321 reversed single #
loop $-1 $-1 $322 $138 #
plane-surface $-1 -75.777093737337154 -30.213834023034792 0 0 -1 0 0 0 -1 forward_v I I I I #
coedge $-1 $228 $323 $324 $325 forward $139 $-1 #
coedge $-1 $324 $141 $143 $230 forward $87 $-1 #
coedge $-1 $141 $324 $322 $326 reversed $87 $-1 #
coedge $-1 $327 $144 $141 $227 forward $232 $-1 #
edge $-1 $234 2.3616692628250409 $328 19.355332927748179 $226 $329 forward 7 unknown #
coedge $-1 $330 $223 $142 $229 forward $139 $-1 #
edge $-1 $331 -29.15935098843083 $233 -26.619029759331553 $228 $332 forward 7 unknown #
edge $-1 $234 2.5617124586774352e-014 $331 4.6642291926771584 $143 $333 forward 7 unknown #
coedge $-1 $144 $327 $330 $334 reversed $232 $-1 #
loop $-1 $-1 $226 $220 #
vertex $-1 $334 $335 #
vertex $-1 $145 $336 #
straight-curve $-1 -78.598590044862206 -13.220170358111652 49.809639562366826 0 0 -1 I I #
coedge $-1 $236 $236 $-1 $337 reversed $148 $-1 #
edge $-1 $338 0 $338 6.2831853071796004 $149 $339 forward 7 unknown #
vertex $-1 $152 $340 #
ellipse-curve $-1 -77.328429430312568 -25.358501547342467 15.959436482820745 -0.83867057594974714 0 0.54463902268945019 0.54463902268945019 0 0.83867057594974714 1 I I #
coedge $-1 $240 $240 $-1 $341 reversed $155 $-1 #
edge $-1 $342 0 $342 6.2831853071796004 $156 $343 forward 7 unknown #
vertex $-1 $159 $344 #
ellipse-curve $-1 -77.328429430312568 -18.075502833803977 15.959436482820745 -0.83867057594974714 0 0.54463902268945019 0.54463902268945019 0 0.83867057594974714 1 I I #
face $-1 $-1 $175 $24 $-1 $345 reversed single #
loop $-1 $-1 $260 $160 #
plane-surface $-1 0 45.248819937384312 0 0 -1 0 0 0 -1 forward_v I I I I #
coedge $-1 $346 $258 $261 $347 forward $161 $-1 #
coedge $-1 $264 $163 $164 $252 reversed $101 $-1 #
coedge $-1 $258 $346 $163 $250 reversed $161 $-1 #
edge $-1 $265 -17.915312374512823 $348 17.915312374512823 $249 $349 forward 7 unknown #
coedge $-1 $165 $164 $346 $350 forward $65 $-1 #
edge $-1 $256 -78.598590044862206 $348 78.598590044862206 $248 $351 forward 7 unknown #
coedge $-1 $261 $260 $165 $254 reversed $245 $-1 #
edge $-1 $352 -78.598590044862206 $255 78.598590044862206 $253 $353 forward 7 unknown #
vertex $-1 $167 $354 #
vertex $-1 $267 $355 #
straight-curve $-1 78.598590044862206 0 -17.915312374512823 0 -1 0 I I #
coedge $-1 $247 $249 $168 $259 reversed $161 $-1 #
edge $-1 $262 -45.248819937384312 $265 45.248819937384312 $258 $356 forward 7 unknown #
coedge $-1 $253 $169 $174 $268 forward $245 $-1 #
coedge $-1 $169 $253 $247 $347 reversed $245 $-1 #
vertex $-1 $170 $357 #
straight-curve $-1 0 45.248819937384312 17.915312374512823 -1 0 0 I I #
coedge $-1 $171 $248 $173 $267 reversed $101 $-1 #
vertex $-1 $259 $358 #
straight-curve $-1 0 -45.248819937384312 17.915312374512823 1 0 0 I I #
edge $-1 $176 -17.915312374512823 $256 17.915312374512823 $173 $359 forward 7 unknown #
edge $-1 $177 -17.915312374512823 $255 17.915312374512823 $174 $360 forward 7 unknown #
point $-1 78.598590044862206 -45.248819937384312 17.915312374512823 #
point $-1 78.598590044862206 45.248819937384312 17.915312374512823 #
face $-1 $-1 $280 $25 $-1 $361 reversed single #
loop $-1 $-1 $276 $179 #
plane-surface $-1 0 0 -17.915312374512823 0 0 1 1 0 0 forward_v I I I I #
coedge $-1 $182 $192 $278 $362 forward $109 $-1 #
edge $-1 $282 -26.383156447279536 $193 -11.348170532930016 $182 $363 forward 7 unknown #
coedge $-1 $364 $284 $183 $277 forward $272 $-1 #
edge $-1 $286 11.348170532930016 $281 26.383156447279536 $276 $365 forward 7 unknown #
coedge $-1 $366 $185 $274 $362 reversed $280 $-1 #
coedge $-1 $185 $366 $364 $367 reversed $280 $-1 #
loop $-1 $-1 $185 $271 #
vertex $-1 $367 $368 #
vertex $-1 $186 $369 #
straight-curve $-1 -72.955597429812101 -45.248819937384312 0 0 0 1 I I #
coedge $-1 $276 $370 $187 $285 forward $272 $-1 #
edge $-1 $290 -40.710043176193629 $286 -35.067050561143525 $284 $371 forward 7 unknown #
vertex $-1 $285 $372 #
straight-curve $-1 -72.955597429812101 -30.213834023034792 0 0 0 -1 I I #
coedge $-1 $373 $190 $370 $374 reversed $180 $-1 #
coedge $-1 $190 $373 $192 $292 reversed $180 $-1 #
vertex $-1 $285 $375 #
straight-curve $-1 -78.598590044862206 -30.213834023034792 0 0 0 -1 I I #
edge $-1 $194 30.213834023034792 $376 45.248819937384312 $289 $377 forward 7 unknown #
point $-1 -72.955597429812101 -30.213834023034792 17.915312374512823 #
point $-1 -78.598590044862206 -30.213834023034792 17.915312374512823 #
plane-surface $-1 0 0 17.915312374512823 0 0 1 1 0 0 forward_v I I I I #
coedge $-1 $306 $305 $298 $378 forward $197 $-1 #
coedge $-1 $298 $199 $201 $302 reversed $117 $-1 #
coedge $-1 $199 $297 $296 $378 reversed $117 $-1 #
coedge $-1 $207 $202 $199 $300 forward $208 $-1 #
edge $-1 $303 13.648508278371686 $379 16.188829507470949 $299 $380 forward 7 unknown #
coedge $-1 $201 $200 $306 $381 reversed $73 $-1 #
edge $-1 $382 -157.19718008972438 $303 -152.53295089704727 $297 $383 forward 7 unknown #
vertex $-1 $203 $384 #
straight-curve $-1 76.058268815762943 -10.858501095286611 17.915312374512823 0 -1 0 I I #
coedge $-1 $296 $204 $207 $310 reversed $197 $-1 #
coedge $-1 $204 $296 $301 $381 forward $197 $-1 #
vertex $-1 $205 $385 #
straight-curve $-1 78.598590044862206 -13.220170358111652 115.72796434412948 0 0 1 I I #
straight-curve $-1 -7.0171284887427845 -13.220170358111652 145.84021015465396 0.54463902268945019 0 -0.83867057594974714 I I #
edge $-1 $379 -30.213834023034792 $209 -13.220170358111652 $305 $386 forward 7 unknown #
point $-1 78.598590044862206 -13.220170358111652 17.915312374512823 #
point $-1 76.058268815762943 -13.220170358111652 17.915312374512823 #
edge $-1 $387 1 $387 0 $212 $-1 forward 7 unknown #
vertex $-1 $213 $388 #
ellipse-curve $-1 74.02795728551078 -25.358501547342467 13.816084879811504 0.83867057594974714 0 0.54463902268945019 0.54463902268945019 0 -0.83867057594974714 1 I I #
point $-1 77.873068453002006 -25.358501547342467 15.120765906871023 #
edge $-1 $389 1 $389 0 $216 $-1 forward 7 unknown #
vertex $-1 $217 $390 #
ellipse-curve $-1 74.02795728551078 -18.075502833803977 13.816084879811504 0.83867057594974714 0 0.54463902268945019 0.54463902268945019 0 -0.83867057594974714 1 I I #
point $-1 77.873068453002006 -18.075502833803977 15.120765906871023 #
plane-surface $-1 -78.598590044862206 0 0 1 0 0 0 0 -1 forward_v I I I I #
coedge $-1 $391 $392 $225 $326 forward $221 $-1 #
coedge $-1 $223 $330 $391 $393 forward $139 $-1 #
coedge $-1 $225 $224 $223 $325 reversed $87 $-1 #
edge $-1 $394 -19.355332927748179 $331 -2.3616692628250409 $223 $395 forward 7 unknown #
edge $-1 $328 5.1038386174283694 $394 9.768067810105503 $322 $396 forward 7 unknown #
coedge $-1 $231 $226 $392 $397 forward $232 $-1 #
vertex $-1 $397 $398 #
straight-curve $-1 -78.598590044862206 -10.858501095286611 14.003560591128686 0 -1 0 I I #
coedge $-1 $323 $228 $231 $334 forward $139 $-1 #
vertex $-1 $229 $399 #
straight-curve $-1 -105.21761980419376 -13.220170358111652 17.915312374512823 -1 0 0 I I #
straight-curve $-1 -78.59859004486222 -13.220170358111652 14.003560591128647 0.54463902268945019 0 0.83867057594974714 I I #
edge $-1 $233 13.220170358111652 $400 30.213834023034792 $231 $401 forward 7 unknown #
point $-1 -78.598590044862206 -13.220170358111652 17.915312374512823 #
point $-1 -78.598590044862206 -13.220170358111652 14.003560591128668 #
edge $-1 $402 1 $402 0 $236 $-1 forward 7 unknown #
vertex $-1 $237 $403 #
ellipse-curve $-1 -74.02795728551078 -25.358501547342467 13.816084879811472 -0.83867057594974714 0 0.54463902268945019 0.54463902268945019 0 0.83867057594974714 1 I I #
point $-1 -76.783790407623115 -25.358501547342467 16.798107058770483 #
edge $-1 $404 1 $404 0 $240 $-1 forward 7 unknown #
vertex $-1 $241 $405 #
ellipse-curve $-1 -74.02795728551078 -18.075502833803977 13.816084879811472 -0.83867057594974714 0 0.54463902268945019 0.54463902268945019 0 0.83867057594974714 1 I I #
point $-1 -76.783790407623115 -18.075502833803977 16.798107058770483 #
plane-surface $-1 78.598590044862206 0 0 -1 0 0 0 0 1 forward_v I I I I #
coedge $-1 $249 $247 $251 $350 reversed $161 $-1 #
edge $-1 $262 -17.915312374512823 $352 17.915312374512823 $261 $406 forward 7 unknown #
vertex $-1 $350 $407 #
straight-curve $-1 -78.598590044862206 -45.248819937384312 0 0 0 -1 I I #
edge $-1 $348 -45.248819937384312 $352 45.248819937384312 $346 $408 forward 7 unknown #
straight-curve $-1 0 -45.248819937384312 -17.915312374512823 -1 0 0 I I #
vertex $-1 $254 $409 #
straight-curve $-1 0 45.248819937384312 -17.915312374512823 1 0 0 I I #
point $-1 78.598590044862206 45.248819937384312 -17.915312374512823 #
point $-1 78.598590044862206 -45.248819937384312 -17.915312374512823 #
straight-curve $-1 -78.598590044862206 0 17.915312374512823 0 -1 0 I I #
point $-1 -78.598590044862206 45.248819937384312 17.915312374512823 #
point $-1 -78.598590044862206 -45.248819937384312 17.915312374512823 #
straight-curve $-1 78.598590044862206 -45.248819937384312 0 0 0 -1 I I #
straight-curve $-1 78.598590044862206 45.248819937384312 0 0 0 -1 I I #
plane-surface $-1 0 -45.248819937384312 0 0 1 0 0 0 1 forward_v I I I I #
edge $-1 $376 -78.598590044862206 $282 -72.955597429812101 $278 $410 forward 7 unknown #
straight-curve $-1 -72.955597429812101 -18.865663490104776 17.915312374512823 0 1 0 I I #
coedge $-1 $370 $276 $279 $367 forward $272 $-1 #
straight-curve $-1 -72.955597429812101 -18.865663490104776 -17.915312374512823 0 -1 0 I I #
coedge $-1 $279 $278 $373 $411 forward $280 $-1 #
edge $-1 $281 72.955597429812101 $412 78.598590044862206 $279 $413 forward 7 unknown #
point $-1 -72.955597429812101 -45.248819937384312 -17.915312374512823 #
point $-1 -72.955597429812101 -45.248819937384312 17.915312374512823 #
coedge $-1 $284 $364 $288 $374 forward $272 $-1 #
straight-curve $-1 -37.888546868668577 -30.213834023034792 -17.915312374512823 1 0 0 I I #
point $-1 -72.955597429812101 -30.213834023034792 -17.915312374512823 #
coedge $-1 $289 $288 $366 $411 reversed $180 $-1 #
edge $-1 $412 -45.248819937384312 $290 -30.213834023034792 $288 $414 forward 7 unknown #
point $-1 -78.598590044862206 -30.213834023034792 -17.915312374512823 #
vertex $-1 $292 $415 #
straight-curve $-1 -78.598590044862206 0 17.915312374512823 0 -1 0 I I #
edge $-1 $379 97.812651969616653 $382 101.72440375300079 $296 $416 forward 7 unknown #
vertex $-1 $310 $417 #
straight-curve $-1 62.409760537391257 -30.213834023034792 17.915312374512823 1 0 0 I I #
edge $-1 $382 -19.355332927748179 $307 -2.3616692628250409 $306 $418 forward 7 unknown #
vertex $-1 $381 $419 #
straight-curve $-1 -7.0171284887427845 -30.213834023034792 145.84021015465396 -0.54463902268945019 0 0.83867057594974714 I I #
point $-1 76.058268815762943 -30.213834023034792 17.915312374512823 #
point $-1 78.598590044862206 -13.220170358111652 14.003560591128689 #
straight-curve $-1 78.598590044862206 0 17.915312374512823 0 1 0 I I #
vertex $-1 $313 $420 #
point $-1 74.572596308200232 -25.358501547342467 12.977414303861757 #
vertex $-1 $317 $421 #
point $-1 74.572596308200232 -18.075502833803977 12.977414303861757 #
coedge $-1 $392 $322 $323 $393 reversed $221 $-1 #
coedge $-1 $322 $391 $327 $397 reversed $221 $-1 #
edge $-1 $400 -40.710043176193629 $394 -38.169721947094352 $323 $422 forward 7 unknown #
vertex $-1 $325 $423 #
straight-curve $-1 -76.058268815762943 -10.858501095286611 17.915312374512823 0 1 0 I I #
straight-curve $-1 -81.37833972142306 -30.213834023034792 9.7231213182954512 0.54463902268945019 0 0.83867057594974714 I I #
edge $-1 $328 14.003560591128668 $400 17.915312374512823 $327 $424 forward 7 unknown #
point $-1 -78.598590044862206 -30.213834023034792 14.003560591128668 #
point $-1 -76.058268815762929 -13.220170358111652 17.915312374512823 #
vertex $-1 $397 $425 #
straight-curve $-1 -78.598590044862206 0 17.915312374512823 0 -1 0 I I #
vertex $-1 $337 $426 #
point $-1 -73.483318262821328 -25.358501547342467 14.654755455761219 #
vertex $-1 $341 $427 #
point $-1 -73.483318262821328 -18.075502833803977 14.654755455761219 #
straight-curve $-1 -78.598590044862206 45.248819937384312 0 0 0 -1 I I #
point $-1 -78.598590044862206 -45.248819937384312 -17.915312374512823 #
straight-curve $-1 -78.598590044862206 0 -17.915312374512823 0 1 0 I I #
point $-1 -78.598590044862206 45.248819937384312 -17.915312374512823 #
straight-curve $-1 0 -45.248819937384312 17.915312374512823 1 0 0 I I #
edge $-1 $376 -17.915312374512823 $412 17.915312374512823 $373 $428 forward 7 unknown #
vertex $-1 $374 $429 #
straight-curve $-1 0 -45.248819937384312 -17.915312374512823 -1 0 0 I I #
straight-curve $-1 -78.598590044862206 0 -17.915312374512823 0 1 0 I I #
point $-1 -78.598590044862206 -45.248819937384312 17.915312374512823 #
straight-curve $-1 78.598590044862206 -30.213834023034792 115.72796434412948 0 0 -1 I I #
point $-1 78.598590044862206 -30.213834023034792 17.915312374512823 #
straight-curve $-1 78.59859004486222 -10.858501095286611 14.003560591128675 0 1 0 I I #
point $-1 78.598590044862206 -30.213834023034792 14.003560591128689 #
point $-1 73.189286709561031 -25.358501547342467 13.271445857122055 #
point $-1 73.189286709561031 -18.075502833803977 13.271445857122055 #
straight-curve $-1 -37.888546868668577 -30.213834023034792 17.915312374512823 1 0 0 I I #
point $-1 -76.058268815762929 -30.213834023034792 17.915312374512823 #
straight-curve $-1 -78.598590044862206 -30.213834023034792 0 0 0 1 I I #
point $-1 -78.598590044862206 -30.213834023034792 17.915312374512823 #
point $-1 -73.189286709561031 -25.358501547342467 13.271445857122023 #
point $-1 -73.189286709561031 -18.075502833803977 13.271445857122023 #
straight-curve $-1 -78.598590044862206 -45.248819937384312 0 0 0 -1 I I #
point $-1 -78.598590044862206 -45.248819937384312 -17.915312374512823 #
End-of-ACIS-data 