500 0 8 0           
7 Unknown 11 ACIS 5.0 NT 24 Fri Mar 26 18:20:05 1999 
-1 9.9999999999999995e-007 1e-010 
body $-1 $8 $-1 $9 #
body $-1 $10 $-1 $11 #
body $-1 $12 $-1 $13 #
body $-1 $14 $-1 $15 #
body $-1 $16 $-1 $17 #
body $-1 $18 $-1 $19 #
body $-1 $20 $-1 $21 #
body $-1 $22 $-1 $23 #
lump $-1 $-1 $24 $0 #
transform $-1 1 0 0 0 1 0 0 0 1 52.400280770287182 35.882366402896324 8.3358306007717253 1 rotate no_reflect no_shear #
lump $-1 $-1 $25 $1 #
transform $-1 1 0 0 0 1 0 0 0 1 52.400280770287182 35.882366402896324 8.3358306007717253 1 rotate no_reflect no_shear #
lump $-1 $-1 $26 $2 #
transform $-1 1 0 0 0 1 0 0 0 1 52.400280770287182 35.882366402896324 8.3358306007717253 1 rotate no_reflect no_shear #
lump $-1 $-1 $27 $3 #
transform $-1 1 0 0 0 1 0 0 0 1 52.400280770287182 35.882366402896324 8.3358306007717253 1 rotate no_reflect no_shear #
lump $-1 $-1 $28 $4 #
transform $-1 1 0 0 0 1 0 0 0 1 52.400280770287182 35.882366402896324 8.3358306007717253 1 rotate no_reflect no_shear #
lump $-1 $-1 $29 $5 #
transform $-1 1 0 0 0 1 0 0 0 1 52.400280770287182 35.882366402896324 8.3358306007717253 1 rotate no_reflect no_shear #
lump $-1 $-1 $30 $6 #
transform $-1 1 0 0 0 1 0 0 0 1 52.400280770287182 35.882366402896324 8.3358306007717253 1 rotate no_reflect no_shear #
lump $-1 $-1 $31 $7 #
transform $-1 1 0 0 0 1 0 0 0 1 52.400280770287182 35.882366402896324 8.3358306007717253 1 rotate no_reflect no_shear #
shell $-1 $-1 $-1 $32 $-1 $8 #
shell $-1 $-1 $-1 $33 $-1 $10 #
shell $-1 $-1 $-1 $34 $-1 $12 #
shell $-1 $-1 $-1 $35 $-1 $14 #
shell $-1 $-1 $-1 $36 $-1 $16 #
shell $-1 $-1 $-1 $37 $-1 $18 #
shell $-1 $-1 $-1 $38 $-1 $20 #
shell $-1 $-1 $-1 $39 $-1 $22 #
face $-1 $40 $41 $24 $-1 $42 forward single #
face $-1 $43 $44 $25 $-1 $45 forward single #
face $-1 $46 $47 $26 $-1 $48 reversed single #
face $-1 $49 $50 $27 $-1 $51 forward single #
face $-1 $52 $53 $28 $-1 $54 forward single #
face $-1 $55 $56 $29 $-1 $57 reversed single #
face $-1 $58 $59 $30 $-1 $60 forward single #
face $-1 $61 $62 $31 $-1 $63 forward single #
face $-1 $64 $65 $24 $-1 $66 reversed single #
loop $-1 $-1 $67 $32 #
plane-surface $-1 0 0 8.3358306007717253 0 0 1 1 0 0 forward_v I I I I #
face $-1 $68 $69 $25 $-1 $70 reversed single #
loop $-1 $-1 $71 $33 #
plane-surface $-1 0 -32.661164564155158 -3.7867520877287295 0 0 1 1 0 0 forward_v I I I I #
face $-1 $72 $73 $26 $-1 $74 reversed single #
loop $-1 $-1 $75 $34 #
plane-surface $-1 -143.16023020593497 4.8745257081505251 57.321189578472229 0 1 0 -0.86602541151947299 0 0.49999998660252726 forward_v I I I I #
face $-1 $76 $77 $27 $-1 $78 forward single #
loop $-1 $79 $80 $35 #
cone-surface $-1 -50.710738399679897 7.7718230027018862 6.2220660563016175 0.86602541151947299 0 -0.49999998660252726 0.24999999330126363 0 0.43301270575973649 1 I I 0 1 0.5 forward I I I I #
face $-1 $81 $82 $28 $-1 $83 forward single #
loop $-1 $84 $85 $36 #
cone-surface $-1 -50.710738399679897 12.117768944528933 6.2220660563016175 0.86602541151947299 0 -0.49999998660252726 0.24999999330126363 0 0.43301270575973649 1 I I 0 1 0.5 forward I I I I #
face $-1 $86 $87 $29 $-1 $88 reversed single #
loop $-1 $-1 $89 $37 #
plane-surface $-1 16.544946937275185 31.494380427387501 146.25947443883769 0 -1 0 -0.51503808176128008 0 -0.85716729658548041 forward_v I I I I #
face $-1 $90 $91 $30 $-1 $92 forward single #
loop $-1 $93 $94 $38 #
cone-surface $-1 47.023481061968226 19.162768429164537 4.5943832475481692 -0.51503808176128008 0 -0.85716729658548041 1.2857509448782207 0 -0.77255712264192011 1 I I 0 1 1.5 forward I I I I #
face $-1 $95 $96 $31 $-1 $97 forward single #
loop $-1 $98 $99 $39 #
cone-surface $-1 47.023481061968226 26.561735628098305 4.5943832475481692 -0.51503808176128008 0 -0.85716729658548041 1.2857509448782207 0 -0.77255712264192011 1 I I 0 1 1.5 forward I I I I #
face $-1 $100 $101 $24 $-1 $102 reversed single #
loop $-1 $-1 $103 $40 #
plane-surface $-1 0 0 -8.3358306007717253 0 0 1 1 0 0 forward_v I I I I #
coedge $-1 $104 $105 $106 $107 forward $41 $-1 #
face $-1 $108 $109 $25 $-1 $110 reversed single #
loop $-1 $-1 $111 $43 #
plane-surface $-1 0 -29.439962725413995 -6.0612913442502272 0 -1 0 0 0 -1 forward_v I I I I #
coedge $-1 $112 $113 $114 $115 reversed $44 $-1 #
face $-1 $116 $117 $26 $-1 $118 reversed single #
loop $-1 $-1 $119 $46 #
plane-surface $-1 -52.400280770287196 9.9447959736154132 4.920910212247712 -0.86602541151947299 0 0.49999998660252726 0.49999998660252726 0 0.86602541151947299 forward_v I I I I #
coedge $-1 $120 $121 $122 $123 reversed $47 $-1 #
face $-1 $-1 $124 $27 $-1 $125 forward single #
loop $-1 $126 $127 $49 #
cone-surface $-1 -49.790492243761115 7.7718230027018862 5.6907617094428851 0.86602541151947299 0 -0.49999998660252726 0.12499999665063181 0 0.21650635287986825 1 I I -0.70710678118654746 0.70710678118654746 0.25 forward I I I I #
loop $-1 $-1 $128 $35 #
coedge $-1 $80 $80 $129 $130 reversed $50 $-1 #
face $-1 $-1 $131 $28 $-1 $132 forward single #
loop $-1 $133 $134 $52 #
cone-surface $-1 -49.790492243761115 12.117768944528933 5.6907617094428851 0.86602541151947299 0 -0.49999998660252726 0.12499999665063181 0 0.21650635287986825 1 I I -0.70710678118654746 0.70710678118654746 0.25 forward I I I I #
loop $-1 $-1 $135 $36 #
coedge $-1 $85 $85 $136 $137 reversed $53 $-1 #
face $-1 $138 $139 $29 $-1 $140 reversed single #
loop $-1 $-1 $141 $55 #
plane-surface $-1 -37.43133324608722 22.862252028631431 56.427860422463283 0.51503808176128008 0 0.85716729658548041 0.85716729658548041 0 -0.51503808176128008 forward_v I I I I #
coedge $-1 $142 $143 $144 $145 reversed $56 $-1 #
face $-1 $-1 $146 $30 $-1 $147 forward single #
loop $-1 $148 $149 $58 #
cone-surface $-1 46.156921276648205 19.162768429164537 3.1521856027209303 -0.51503808176128008 0 -0.85716729658548041 0.64287547243911036 0 -0.38627856132096006 1 I I -0.70710678118654757 0.70710678118654757 0.75 forward I I I I #
loop $-1 $-1 $150 $38 #
coedge $-1 $94 $94 $151 $152 reversed $59 $-1 #
face $-1 $-1 $153 $31 $-1 $154 forward single #
loop $-1 $155 $156 $61 #
cone-surface $-1 46.156921276648205 26.561735628098305 3.1521856027209303 -0.51503808176128008 0 -0.85716729658548041 0.64287547243911036 0 -0.38627856132096006 1 I I -0.70710678118654757 0.70710678118654757 0.75 forward I I I I #
loop $-1 $-1 $157 $39 #
coedge $-1 $99 $99 $158 $159 reversed $62 $-1 #
face $-1 $160 $161 $24 $-1 $162 reversed single #
loop $-1 $-1 $163 $64 #
plane-surface $-1 0 -35.882366402896324 0 0 1 0 0 0 1 forward_v I I I I #
coedge $-1 $164 $165 $166 $167 forward $65 $-1 #
coedge $-1 $168 $67 $169 $170 forward $41 $-1 #
coedge $-1 $67 $168 $171 $172 forward $41 $-1 #
coedge $-1 $173 $174 $67 $107 reversed $175 $-1 #
edge $-1 $176 -35.882366402896324 $177 35.882366402896324 $106 $178 forward 7 unknown #
face $-1 $179 $180 $25 $-1 $181 reversed single #
loop $-1 $-1 $182 $68 #
plane-surface $-1 0 0 -8.3358306007717253 0 0 1 1 0 0 forward_v I I I I #
coedge $-1 $183 $184 $185 $186 reversed $69 $-1 #
coedge $-1 $187 $71 $184 $188 forward $44 $-1 #
coedge $-1 $71 $187 $189 $190 reversed $44 $-1 #
coedge $-1 $191 $185 $71 $115 forward $180 $-1 #
edge $-1 $192 13.109380443336416 $193 19.551784120818745 $114 $194 forward 7 unknown #
face $-1 $195 $196 $26 $-1 $197 forward single #
loop $-1 $-1 $198 $72 #
plane-surface $-1 -143.16023020593497 15.015066239080301 57.321189578472229 0 -1 0 0.86602541151947299 0 -0.49999998660252726 forward_v I I I I #
coedge $-1 $199 $200 $201 $202 reversed $73 $-1 #
coedge $-1 $121 $75 $203 $204 reversed $47 $-1 #
coedge $-1 $75 $120 $199 $205 reversed $47 $-1 #
coedge $-1 $201 $206 $75 $123 forward $196 $-1 #
edge $-1 $207 19.179834332680301 $208 21.151439467817028 $122 $209 forward 7 unknown #
loop $-1 $-1 $129 $76 #
plane-surface $-1 -52.400280770287196 9.9447959736154132 4.920910212247712 -0.86602541151947299 0 0.49999998660252726 0.49999998660252726 0 0.86602541151947299 forward_v I I I I #
loop $-1 $-1 $210 $49 #
coedge $-1 $127 $127 $128 $211 reversed $77 $-1 #
coedge $-1 $128 $128 $127 $211 forward $79 $-1 #
coedge $-1 $129 $129 $80 $130 forward $124 $-1 #
edge $-1 $212 0 $212 6.2831853071796004 $129 $213 forward 7 unknown #
loop $-1 $-1 $136 $81 #
plane-surface $-1 -52.400280770287196 9.9447959736154132 4.920910212247712 -0.86602541151947299 0 0.49999998660252726 0.49999998660252726 0 0.86602541151947299 forward_v I I I I #
loop $-1 $-1 $214 $52 #
coedge $-1 $134 $134 $135 $215 reversed $82 $-1 #
coedge $-1 $135 $135 $134 $215 forward $84 $-1 #
coedge $-1 $136 $136 $85 $137 forward $131 $-1 #
edge $-1 $216 0 $216 6.2831853071796004 $136 $217 forward 7 unknown #
face $-1 $218 $219 $29 $-1 $220 reversed single #
loop $-1 $-1 $221 $86 #
plane-surface $-1 16.544946937275185 14.230123629875362 146.25947443883769 0 1 0 0.51503808176128008 0 0.85716729658548041 forward_v I I I I #
coedge $-1 $222 $223 $224 $225 reversed $87 $-1 #
coedge $-1 $143 $89 $226 $227 reversed $56 $-1 #
coedge $-1 $89 $142 $222 $228 reversed $56 $-1 #
coedge $-1 $224 $229 $89 $145 forward $230 $-1 #
edge $-1 $231 -44.12780730164959 $232 -34.334770333009793 $144 $233 forward 7 unknown #
loop $-1 $-1 $151 $90 #
plane-surface $-1 -37.43133324608722 22.862252028631431 56.427860422463283 0.51503808176128008 0 0.85716729658548041 0.85716729658548041 0 -0.51503808176128008 forward_v I I I I #
loop $-1 $-1 $234 $58 #
coedge $-1 $149 $149 $150 $235 reversed $91 $-1 #
coedge $-1 $150 $150 $149 $235 forward $93 $-1 #
coedge $-1 $151 $151 $94 $152 forward $146 $-1 #
edge $-1 $236 0 $236 6.2831853071796004 $151 $237 forward 7 unknown #
loop $-1 $-1 $158 $95 #
plane-surface $-1 -37.43133324608722 22.862252028631431 56.427860422463283 0.51503808176128008 0 0.85716729658548041 0.85716729658548041 0 -0.51503808176128008 forward_v I I I I #
loop $-1 $-1 $238 $61 #
coedge $-1 $156 $156 $157 $239 reversed $96 $-1 #
coedge $-1 $157 $157 $156 $239 forward $98 $-1 #
coedge $-1 $158 $158 $99 $159 forward $153 $-1 #
edge $-1 $240 0 $240 6.2831853071796004 $158 $241 forward 7 unknown #
face $-1 $242 $243 $24 $-1 $244 reversed single #
loop $-1 $-1 $245 $100 #
plane-surface $-1 -52.400280770287182 0 0 1 0 0 0 0 -1 forward_v I I I I #
coedge $-1 $246 $171 $247 $248 forward $101 $-1 #
coedge $-1 $249 $103 $246 $250 forward $65 $-1 #
coedge $-1 $103 $249 $251 $252 forward $65 $-1 #
coedge $-1 $174 $173 $103 $167 reversed $175 $-1 #
edge $-1 $253 -35.882366402896324 $254 35.882366402896324 $166 $255 forward 7 unknown #
coedge $-1 $105 $104 $256 $257 forward $41 $-1 #
coedge $-1 $258 $259 $104 $170 reversed $243 $-1 #
edge $-1 $177 -52.400280770287182 $260 52.400280770287182 $169 $261 forward 7 unknown #
coedge $-1 $163 $262 $105 $172 reversed $101 $-1 #
edge $-1 $263 -52.400280770287182 $176 52.400280770287182 $171 $264 forward 7 unknown #
coedge $-1 $166 $106 $262 $265 forward $175 $-1 #
coedge $-1 $106 $166 $258 $266 reversed $175 $-1 #
loop $-1 $-1 $173 $242 #
vertex $-1 $107 $267 #
vertex $-1 $107 $268 #
straight-curve $-1 52.400280770287182 0 8.3358306007717253 0 1 0 I I #
face $-1 $269 $270 $25 $-1 $271 reversed single #
loop $-1 $-1 $185 $108 #
plane-surface $-1 52.400280770287182 0 0 -1 0 0 0 0 1 forward_v I I I I #
coedge $-1 $272 $273 $183 $274 forward $109 $-1 #
coedge $-1 $275 $111 $182 $274 reversed $69 $-1 #
coedge $-1 $111 $275 $112 $188 reversed $69 $-1 #
coedge $-1 $114 $276 $111 $186 forward $180 $-1 #
edge $-1 $277 -5.3051849286466117 $192 -0.75610641560361591 $185 $278 forward 7 unknown #
coedge $-1 $113 $112 $279 $280 reversed $44 $-1 #
edge $-1 $192 -52.400280770287182 $281 52.400280770287182 $184 $282 forward 7 unknown #
coedge $-1 $283 $284 $113 $190 forward $270 $-1 #
edge $-1 $193 -52.400280770287182 $285 52.400280770287182 $189 $286 forward 7 unknown #
coedge $-1 $276 $114 $284 $287 forward $180 $-1 #
vertex $-1 $115 $288 #
vertex $-1 $287 $289 #
straight-curve $-1 52.400280770287182 -16.330582282077579 -3.7867520877287295 0 -1 0 I I #
face $-1 $-1 $290 $26 $-1 $291 reversed single #
loop $-1 $-1 $122 $116 #
plane-surface $-1 0 0 8.3358306007717253 0 0 1 1 0 0 forward_v I I I I #
coedge $-1 $292 $293 $294 $295 reversed $117 $-1 #
coedge $-1 $296 $119 $121 $205 forward $73 $-1 #
coedge $-1 $119 $296 $292 $297 forward $73 $-1 #
coedge $-1 $294 $122 $119 $202 forward $196 $-1 #
edge $-1 $208 -0.097872278657181511 $298 10.042668252272595 $201 $299 forward 7 unknown #
coedge $-1 $300 $301 $120 $204 forward $290 $-1 #
edge $-1 $302 -23.739684576988378 $207 -20.324764188464389 $203 $303 forward 7 unknown #
edge $-1 $208 -3.9432103759315917 $302 -2.8642609447069912e-014 $121 $304 forward 7 unknown #
coedge $-1 $122 $294 $300 $305 forward $196 $-1 #
vertex $-1 $204 $306 #
vertex $-1 $123 $307 #
straight-curve $-1 -71.580115102967483 4.8745257081505251 8.3358306007717253 1 0 0 I I #
coedge $-1 $210 $210 $-1 $308 reversed $126 $-1 #
edge $-1 $309 0 $309 6.2831853071796004 $127 $310 forward 7 unknown #
vertex $-1 $130 $311 #
ellipse-curve $-1 -51.414478202718819 7.7718230027018862 6.628370406509724 -0.86602541151947299 0 0.49999998660252726 0.24999999330126363 0 0.43301270575973649 1 I I #
coedge $-1 $214 $214 $-1 $312 reversed $133 $-1 #
edge $-1 $313 0 $313 6.2831853071796004 $134 $314 forward 7 unknown #
vertex $-1 $137 $315 #
ellipse-curve $-1 -51.414478202718819 12.117768944528933 6.628370406509724 -0.86602541151947299 0 0.49999998660252726 0.24999999330126363 0 0.43301270575973649 1 I I #
face $-1 $-1 $230 $29 $-1 $316 forward single #
loop $-1 $-1 $317 $138 #
plane-surface $-1 52.400280770287182 0 0 -1 0 0 0 0 1 forward_v I I I I #
coedge $-1 $318 $319 $320 $321 reversed $139 $-1 #
coedge $-1 $322 $141 $143 $228 forward $87 $-1 #
coedge $-1 $141 $322 $318 $323 forward $87 $-1 #
coedge $-1 $320 $144 $141 $225 forward $230 $-1 #
edge $-1 $232 -20.063254413071785 $324 -2.7989976155596459 $224 $325 forward 7 unknown #
coedge $-1 $326 $327 $142 $227 forward $219 $-1 #
edge $-1 $328 -70.678156980317965 $231 -64.793906618647114 $226 $329 forward 7 unknown #
edge $-1 $232 93.375677497925636 $328 104.80056154057436 $143 $330 forward 7 unknown #
coedge $-1 $144 $320 $326 $331 forward $230 $-1 #
loop $-1 $-1 $320 $218 #
vertex $-1 $227 $332 #
vertex $-1 $145 $333 #
straight-curve $-1 8.2724734686375925 31.494380427387501 8.3358306007717289 -1 0 0 I I #
coedge $-1 $234 $234 $-1 $334 reversed $148 $-1 #
edge $-1 $335 0 $335 6.2831853071796004 $149 $336 forward 7 unknown #
vertex $-1 $152 $337 #
ellipse-curve $-1 47.503762285967291 19.162768429164537 5.393705419936305 0.51503808176128008 0 0.85716729658548041 1.2857509448782207 0 -0.77255712264192011 1 I I #
coedge $-1 $238 $238 $-1 $338 reversed $155 $-1 #
edge $-1 $339 0 $339 6.2831853071796004 $156 $340 forward 7 unknown #
vertex $-1 $159 $341 #
ellipse-curve $-1 47.503762285967291 26.561735628098305 5.393705419936305 0.51503808176128008 0 0.85716729658548041 1.2857509448782207 0 -0.77255712264192011 1 I I #
face $-1 $-1 $175 $24 $-1 $342 reversed single #
loop $-1 $-1 $258 $160 #
plane-surface $-1 0 35.882366402896324 0 0 -1 0 0 0 -1 forward_v I I I I #
coedge $-1 $343 $256 $259 $344 forward $161 $-1 #
coedge $-1 $262 $163 $164 $250 reversed $101 $-1 #
coedge $-1 $256 $343 $163 $248 reversed $161 $-1 #
edge $-1 $263 -8.3358306007717253 $345 8.3358306007717253 $247 $346 forward 7 unknown #
coedge $-1 $165 $164 $343 $347 forward $65 $-1 #
edge $-1 $254 -52.400280770287182 $345 52.400280770287182 $246 $348 forward 7 unknown #
coedge $-1 $259 $258 $165 $252 reversed $243 $-1 #
edge $-1 $349 -52.400280770287182 $253 52.400280770287182 $251 $350 forward 7 unknown #
vertex $-1 $167 $351 #
vertex $-1 $265 $352 #
straight-curve $-1 52.400280770287182 0 -8.3358306007717253 0 -1 0 I I #
coedge $-1 $245 $247 $168 $257 reversed $161 $-1 #
edge $-1 $260 -35.882366402896324 $263 35.882366402896324 $256 $353 forward 7 unknown #
coedge $-1 $251 $169 $174 $266 forward $243 $-1 #
coedge $-1 $169 $251 $245 $344 reversed $243 $-1 #
vertex $-1 $170 $354 #
straight-curve $-1 0 35.882366402896324 8.3358306007717253 -1 0 0 I I #
coedge $-1 $171 $246 $173 $265 reversed $101 $-1 #
vertex $-1 $257 $355 #
straight-curve $-1 0 -35.882366402896324 8.3358306007717253 1 0 0 I I #
edge $-1 $176 -8.3358306007717253 $254 8.3358306007717253 $173 $356 forward 7 unknown #
edge $-1 $177 -8.3358306007717253 $253 8.3358306007717253 $174 $357 forward 7 unknown #
point $-1 52.400280770287182 -35.882366402896324 8.3358306007717253 #
point $-1 52.400280770287182 35.882366402896324 8.3358306007717253 #
face $-1 $-1 $358 $25 $-1 $359 reversed single #
loop $-1 $-1 $189 $179 #
plane-surface $-1 0 -35.882366402896324 0 0 1 0 0 0 1 forward_v I I I I #
coedge $-1 $360 $182 $276 $361 forward $109 $-1 #
coedge $-1 $182 $360 $362 $363 forward $109 $-1 #
edge $-1 $364 -52.400280770287182 $277 52.400280770287182 $182 $365 forward 7 unknown #
coedge $-1 $184 $183 $366 $367 reversed $69 $-1 #
coedge $-1 $185 $191 $272 $361 reversed $180 $-1 #
vertex $-1 $361 $368 #
straight-curve $-1 52.400280770287182 -29.439962725413995 -3.0306456721251136 0 0 1 I I #
coedge $-1 $366 $369 $187 $280 forward $358 $-1 #
edge $-1 $285 -19.551784120818745 $281 -13.109380443336416 $279 $370 forward 7 unknown #
vertex $-1 $280 $371 #
straight-curve $-1 0 -29.439962725413995 -3.7867520877287295 -1 0 0 I I #
coedge $-1 $372 $189 $369 $373 forward $270 $-1 #
coedge $-1 $189 $372 $191 $287 reversed $270 $-1 #
vertex $-1 $373 $374 #
straight-curve $-1 0 -35.882366402896324 -3.7867520877287295 -1 0 0 I I #
edge $-1 $193 3.7867520877287295 $375 8.3358306007717253 $191 $376 forward 7 unknown #
point $-1 52.400280770287182 -29.439962725413995 -3.7867520877287295 #
point $-1 52.400280770287182 -35.882366402896324 -3.7867520877287295 #
loop $-1 $-1 $203 $195 #
plane-surface $-1 -52.400280770287182 0 0 1 0 0 0 0 -1 forward_v I I I I #
coedge $-1 $293 $198 $200 $297 reversed $117 $-1 #
coedge $-1 $198 $292 $377 $378 reversed $117 $-1 #
coedge $-1 $206 $201 $198 $295 forward $196 $-1 #
edge $-1 $298 -21.151439467817028 $379 -19.179834332680301 $294 $380 forward 7 unknown #
coedge $-1 $200 $199 $301 $381 reversed $73 $-1 #
edge $-1 $382 2.8642609447069912e-014 $298 3.9432103759315917 $292 $383 forward 7 unknown #
vertex $-1 $202 $384 #
straight-curve $-1 -50.428675635150448 4.9723979868077066 8.3358306007717253 0 1 0 I I #
coedge $-1 $377 $203 $206 $305 reversed $290 $-1 #
coedge $-1 $203 $377 $296 $381 forward $290 $-1 #
vertex $-1 $204 $385 #
straight-curve $-1 -52.400280770287182 4.8745257081505251 28.660594789236114 0 0 1 I I #
straight-curve $-1 -52.400280770287196 4.8745257081505251 4.920910212247712 -0.49999998660252726 0 -0.86602541151947299 I I #
edge $-1 $379 -15.015066239080301 $207 -4.8745257081505251 $300 $386 forward 7 unknown #
point $-1 -52.400280770287182 4.8745257081505251 8.3358306007717253 #
point $-1 -50.428675635150455 4.8745257081505251 8.3358306007717253 #
edge $-1 $387 1 $387 0 $210 $-1 forward 7 unknown #
vertex $-1 $211 $388 #
ellipse-curve $-1 -50.006998596640983 7.7718230027018862 5.8157617060935172 -0.86602541151947299 0 0.49999998660252726 0.24999999330126363 0 0.43301270575973649 1 I I #
point $-1 -51.164478209417553 7.7718230027018862 7.0613831122694553 #
edge $-1 $389 1 $389 0 $214 $-1 forward 7 unknown #
vertex $-1 $215 $390 #
ellipse-curve $-1 -50.006998596640983 12.117768944528933 5.8157617060935172 -0.86602541151947299 0 0.49999998660252726 0.24999999330126363 0 0.43301270575973649 1 I I #
point $-1 -51.164478209417553 12.117768944528933 7.0613831122694553 #
plane-surface $-1 0 0 8.3358306007717253 0 0 1 1 0 0 forward_v I I I I #
coedge $-1 $327 $326 $319 $391 forward $219 $-1 #
coedge $-1 $319 $221 $223 $323 reversed $139 $-1 #
coedge $-1 $221 $318 $317 $391 reversed $139 $-1 #
coedge $-1 $229 $224 $221 $321 forward $230 $-1 #
edge $-1 $324 34.334770333009793 $392 44.12780730164959 $320 $393 forward 7 unknown #
coedge $-1 $223 $222 $327 $394 reversed $87 $-1 #
edge $-1 $395 -104.80056154057436 $324 -93.375677497925636 $318 $396 forward 7 unknown #
vertex $-1 $225 $397 #
straight-curve $-1 42.607243801647392 11.431126014315716 8.3358306007717289 0 -1 0 I I #
coedge $-1 $317 $226 $229 $331 reversed $219 $-1 #
coedge $-1 $226 $317 $322 $394 forward $219 $-1 #
vertex $-1 $227 $398 #
straight-curve $-1 52.400280770287182 31.494380427387501 73.129737219418843 0 0 1 I I #
straight-curve $-1 -37.43133324608722 31.494380427387501 56.427860422463283 0.85716729658548041 0 -0.51503808176128008 I I #
edge $-1 $392 14.230123629875362 $231 31.494380427387501 $326 $399 forward 7 unknown #
point $-1 52.400280770287182 31.494380427387501 8.3358306007717253 #
point $-1 42.607243801647385 31.494380427387501 8.3358306007717289 #
edge $-1 $400 1 $400 0 $234 $-1 forward 7 unknown #
vertex $-1 $235 $401 #
ellipse-curve $-1 46.543199837969162 19.162768429164537 3.7950610751600404 0.51503808176128008 0 0.85716729658548041 1.2857509448782207 0 -0.77255712264192011 1 I I #
point $-1 48.789513230845508 19.162768429164537 4.6211482972943774 #
edge $-1 $402 1 $402 0 $238 $-1 forward 7 unknown #
vertex $-1 $239 $403 #
ellipse-curve $-1 46.543199837969162 26.561735628098305 3.7950610751600404 0.51503808176128008 0 0.85716729658548041 1.2857509448782207 0 -0.77255712264192011 1 I I #
point $-1 48.789513230845508 26.561735628098305 4.6211482972943774 #
plane-surface $-1 52.400280770287182 0 0 -1 0 0 0 0 1 forward_v I I I I #
coedge $-1 $247 $245 $249 $347 reversed $161 $-1 #
edge $-1 $260 -8.3358306007717253 $349 8.3358306007717253 $259 $404 forward 7 unknown #
vertex $-1 $347 $405 #
straight-curve $-1 -52.400280770287182 -35.882366402896324 0 0 0 -1 I I #
edge $-1 $345 -35.882366402896324 $349 35.882366402896324 $343 $406 forward 7 unknown #
straight-curve $-1 0 -35.882366402896324 -8.3358306007717253 -1 0 0 I I #
vertex $-1 $252 $407 #
straight-curve $-1 0 35.882366402896324 -8.3358306007717253 1 0 0 I I #
point $-1 52.400280770287182 35.882366402896324 -8.3358306007717253 #
point $-1 52.400280770287182 -35.882366402896324 -8.3358306007717253 #
straight-curve $-1 -52.400280770287182 0 8.3358306007717253 0 -1 0 I I #
point $-1 -52.400280770287182 35.882366402896324 8.3358306007717253 #
point $-1 -52.400280770287182 -35.882366402896324 8.3358306007717253 #
straight-curve $-1 52.400280770287182 -35.882366402896324 0 0 0 -1 I I #
straight-curve $-1 52.400280770287182 35.882366402896324 0 0 0 -1 I I #
loop $-1 $-1 $366 $269 #
plane-surface $-1 -52.400280770287182 0 0 1 0 0 0 0 -1 forward_v I I I I #
coedge $-1 $273 $272 $372 $408 forward $109 $-1 #
edge $-1 $277 29.439962725413995 $375 35.882366402896324 $276 $409 forward 7 unknown #
coedge $-1 $369 $366 $273 $363 reversed $358 $-1 #
edge $-1 $410 -35.882366402896324 $364 -29.439962725413995 $362 $411 forward 7 unknown #
vertex $-1 $367 $412 #
straight-curve $-1 0 -29.439962725413995 -8.3358306007717253 1 0 0 I I #
coedge $-1 $362 $279 $275 $367 forward $358 $-1 #
edge $-1 $281 0.75610641560361591 $364 5.3051849286466117 $366 $413 forward 7 unknown #
point $-1 52.400280770287182 -29.439962725413995 -8.3358306007717253 #
coedge $-1 $279 $362 $283 $373 reversed $358 $-1 #
straight-curve $-1 -52.400280770287182 -16.330582282077579 -3.7867520877287295 0 1 0 I I #
point $-1 -52.400280770287182 -29.439962725413995 -3.7867520877287295 #
coedge $-1 $284 $283 $360 $408 reversed $270 $-1 #
edge $-1 $285 3.7867520877287295 $410 8.3358306007717253 $369 $414 forward 7 unknown #
point $-1 -52.400280770287182 -35.882366402896324 -3.7867520877287295 #
vertex $-1 $287 $415 #
straight-curve $-1 52.400280770287182 -35.882366402896324 0 0 0 -1 I I #
coedge $-1 $301 $300 $293 $378 forward $290 $-1 #
edge $-1 $379 20.324764188464389 $382 23.739684576988378 $377 $416 forward 7 unknown #
vertex $-1 $305 $417 #
straight-curve $-1 -71.580115102967483 15.015066239080301 8.3358306007717253 -1 0 0 I I #
edge $-1 $382 -10.042668252272595 $302 0.097872278657181511 $301 $418 forward 7 unknown #
vertex $-1 $381 $419 #
straight-curve $-1 -52.400280770287196 15.015066239080301 4.920910212247712 0.49999998660252726 0 0.86602541151947299 I I #
point $-1 -50.428675635150455 15.015066239080301 8.3358306007717253 #
point $-1 -52.400280770287182 4.8745257081505251 4.9209102122477368 #
straight-curve $-1 -52.400280770287182 0 8.3358306007717253 0 -1 0 I I #
vertex $-1 $308 $420 #
point $-1 -49.756998603339717 7.7718230027018862 6.2487744118532529 #
vertex $-1 $312 $421 #
point $-1 -49.756998603339717 12.117768944528933 6.2487744118532529 #
edge $-1 $392 64.793906618647114 $395 70.678156980317965 $317 $422 forward 7 unknown #
vertex $-1 $331 $423 #
straight-curve $-1 8.2724734686375925 14.230123629875362 8.3358306007717289 1 0 0 I I #
edge $-1 $395 2.7989976155596459 $328 20.063254413071785 $327 $424 forward 7 unknown #
vertex $-1 $394 $425 #
straight-curve $-1 -37.43133324608722 14.230123629875362 56.427860422463283 -0.85716729658548041 0 0.51503808176128008 I I #
point $-1 42.607243801647385 14.230123629875362 8.3358306007717289 #
point $-1 52.400280770287182 31.494380427387501 2.4515802391008776 #
straight-curve $-1 52.400280770287182 0 8.3358306007717253 0 1 0 I I #
vertex $-1 $334 $426 #
point $-1 47.828950782847386 19.162768429164537 3.0225039525181208 #
vertex $-1 $338 $427 #
point $-1 47.828950782847386 26.561735628098305 3.0225039525181208 #
straight-curve $-1 -52.400280770287182 35.882366402896324 0 0 0 -1 I I #
point $-1 -52.400280770287182 -35.882366402896324 -8.3358306007717253 #
straight-curve $-1 -52.400280770287182 0 -8.3358306007717253 0 1 0 I I #
point $-1 -52.400280770287182 35.882366402896324 -8.3358306007717253 #
edge $-1 $375 -52.400280770287182 $410 52.400280770287182 $372 $428 forward 7 unknown #
straight-curve $-1 52.400280770287182 0 -8.3358306007717253 0 -1 0 I I #
vertex $-1 $363 $429 #
straight-curve $-1 -52.400280770287182 0 -8.3358306007717253 0 1 0 I I #
point $-1 -52.400280770287182 -29.439962725413995 -8.3358306007717253 #
straight-curve $-1 -52.400280770287182 -29.439962725413995 -3.0306456721251136 0 0 -1 I I #
straight-curve $-1 -52.400280770287182 -35.882366402896324 0 0 0 -1 I I #
point $-1 52.400280770287182 -35.882366402896324 -8.3358306007717253 #
straight-curve $-1 -52.400280770287182 15.015066239080301 28.660594789236114 0 0 -1 I I #
point $-1 -52.400280770287182 15.015066239080301 8.3358306007717253 #
straight-curve $-1 -52.400280770287182 4.9723979868077066 4.9209102122477395 0 -1 0 I I #
point $-1 -52.400280770287182 15.015066239080301 4.9209102122477368 #
point $-1 -49.573985890881247 7.7718230027018862 5.565761712792253 #
point $-1 -49.573985890881247 12.117768944528933 5.565761712792253 #
straight-curve $-1 52.400280770287182 14.230123629875362 73.129737219418843 0 0 -1 I I #
point $-1 52.400280770287182 14.230123629875362 8.3358306007717253 #
straight-curve $-1 52.400280770287168 11.431126014315716 2.4515802391008812 0 1 0 I I #
point $-1 52.400280770287182 14.230123629875362 2.4515802391008776 #
point $-1 45.770642715327249 19.162768429164537 2.5093101302818202 #
point $-1 45.770642715327249 26.561735628098305 2.5093101302818202 #
straight-curve $-1 0 -35.882366402896324 -8.3358306007717253 -1 0 0 I I #
point $-1 -52.400280770287182 -35.882366402896324 -8.3358306007717253 #
End-of-ACIS-data 