500 0 6 0           
7 Unknown 11 ACIS 5.0 NT 24 Fri Mar 26 19:01:37 1999 
-1 9.9999999999999995e-007 1e-010 
body $-1 $6 $-1 $7 #
body $-1 $8 $-1 $9 #
body $-1 $10 $-1 $11 #
body $-1 $12 $-1 $13 #
body $-1 $14 $-1 $15 #
body $-1 $16 $-1 $17 #
lump $-1 $-1 $18 $0 #
transform $-1 1 0 0 0 1 0 0 0 1 63.305154576250494 34.435592979738416 7.0753388999935574 1 rotate no_reflect no_shear #
lump $-1 $-1 $19 $1 #
transform $-1 1 0 0 0 1 0 0 0 1 63.305154576250494 34.435592979738416 7.0753388999935574 1 rotate no_reflect no_shear #
lump $-1 $-1 $20 $2 #
transform $-1 1 0 0 0 1 0 0 0 1 63.305154576250494 34.435592979738416 7.0753388999935574 1 rotate no_reflect no_shear #
lump $-1 $-1 $21 $3 #
transform $-1 1 0 0 0 1 0 0 0 1 63.305154576250494 34.435592979738416 7.0753388999935574 1 rotate no_reflect no_shear #
lump $-1 $-1 $22 $4 #
transform $-1 1 0 0 0 1 0 0 0 1 63.305154576250494 34.435592979738416 7.0753388999935574 1 rotate no_reflect no_shear #
lump $-1 $-1 $23 $5 #
transform $-1 1 0 0 0 1 0 0 0 1 63.305154576250494 34.435592979738416 7.0753388999935574 1 rotate no_reflect no_shear #
shell $-1 $-1 $-1 $24 $-1 $6 #
shell $-1 $-1 $-1 $25 $-1 $8 #
shell $-1 $-1 $-1 $26 $-1 $10 #
shell $-1 $-1 $-1 $27 $-1 $12 #
shell $-1 $-1 $-1 $28 $-1 $14 #
shell $-1 $-1 $-1 $29 $-1 $16 #
face $-1 $30 $31 $18 $-1 $32 forward single #
face $-1 $33 $34 $19 $-1 $35 reversed single #
face $-1 $36 $37 $20 $-1 $38 forward single #
face $-1 $39 $40 $21 $-1 $41 reversed single #
face $-1 $42 $43 $22 $-1 $44 forward single #
face $-1 $45 $46 $23 $-1 $47 forward single #
face $-1 $48 $49 $18 $-1 $50 reversed single #
loop $-1 $-1 $51 $24 #
plane-surface $-1 0 0 7.0753388999935574 0 0 1 1 0 0 forward_v I I I I #
face $-1 $52 $53 $19 $-1 $54 reversed single #
loop $-1 $-1 $55 $25 #
plane-surface $-1 -157.39495172350971 23.002601981887707 87.888484526354929 0 1 0 -0.74314483375859142 0 0.66913059716165679 forward_v I I I I #
face $-1 $56 $57 $20 $-1 $58 forward single #
loop $-1 $59 $60 $26 #
cone-surface $-1 -60.188022272379477 28.719097480813062 3.8990407563726661 0.74314483375859142 0 -0.66913059716165679 0.66913059716165679 0 0.74314483375859142 1 I I 0 1 1 forward I I I I #
face $-1 $61 $62 $21 $-1 $63 reversed single #
loop $-1 $-1 $64 $27 #
plane-surface $-1 29.140039141148812 18.962735650119907 178.03136598842011 0 -1 0 -0.55919291073839883 0 -0.82903756765294845 forward_v I I I I #
face $-1 $65 $66 $22 $-1 $67 forward single #
loop $-1 $68 $69 $28 #
cone-surface $-1 58.905216814712084 11.269829373008456 3.4322811520291809 -0.55919291073839883 0 -0.82903756765294845 1.2435563514794228 0 -0.83878936610759824 1 I I 0 1 1.5 forward I I I I #
face $-1 $70 $71 $23 $-1 $72 forward single #
loop $-1 $73 $74 $29 #
cone-surface $-1 58.905216814712084 15.885573139275323 3.4322811520291809 -0.55919291073839883 0 -0.82903756765294845 1.2435563514794228 0 -0.83878936610759824 1 I I 0 1 1.5 forward I I I I #
face $-1 $75 $76 $18 $-1 $77 reversed single #
loop $-1 $-1 $78 $30 #
plane-surface $-1 0 0 -7.0753388999935574 0 0 1 1 0 0 forward_v I I I I #
coedge $-1 $79 $80 $81 $82 forward $31 $-1 #
face $-1 $83 $84 $19 $-1 $85 forward single #
loop $-1 $-1 $86 $33 #
plane-surface $-1 -63.305154576250501 28.719097480813062 3.1696527563199766 -0.74314483375859142 0 0.66913059716165679 0.66913059716165679 0 0.74314483375859142 forward_v I I I I #
coedge $-1 $87 $88 $89 $90 reversed $34 $-1 #
face $-1 $-1 $91 $20 $-1 $92 forward single #
loop $-1 $93 $94 $36 #
cone-surface $-1 -58.457665307627479 28.719097480813062 2.3410203860077505 0.74314483375859142 0 -0.66913059716165679 0.3345652985808284 0 0.37157241687929571 1 I I -0.70710678118654746 0.70710678118654746 0.5 forward I I I I #
loop $-1 $-1 $95 $26 #
coedge $-1 $60 $60 $96 $97 reversed $37 $-1 #
face $-1 $98 $99 $21 $-1 $100 reversed single #
loop $-1 $-1 $101 $39 #
plane-surface $-1 -41.659548163326754 13.577701256141893 73.066663248842843 0.55919291073839883 0 0.82903756765294845 0.82903756765294845 0 -0.55919291073839883 forward_v I I I I #
coedge $-1 $102 $103 $104 $105 reversed $40 $-1 #
face $-1 $-1 $106 $22 $-1 $107 forward single #
loop $-1 $108 $109 $42 #
cone-surface $-1 57.65015579489927 11.269829373008456 1.5715767061382273 -0.55919291073839883 0 -0.82903756765294845 0.62177817573971139 0 -0.41939468305379912 1 I I -0.70710678118654757 0.70710678118654757 0.75 forward I I I I #
loop $-1 $-1 $110 $28 #
coedge $-1 $69 $69 $111 $112 reversed $43 $-1 #
face $-1 $-1 $113 $23 $-1 $114 forward single #
loop $-1 $115 $116 $45 #
cone-surface $-1 57.65015579489927 15.885573139275323 1.5715767061382273 -0.55919291073839883 0 -0.82903756765294845 0.62177817573971139 0 -0.41939468305379912 1 I I -0.70710678118654757 0.70710678118654757 0.75 forward I I I I #
loop $-1 $-1 $117 $29 #
coedge $-1 $74 $74 $118 $119 reversed $46 $-1 #
face $-1 $120 $121 $18 $-1 $122 reversed single #
loop $-1 $-1 $123 $48 #
plane-surface $-1 0 -34.435592979738416 0 0 1 0 0 0 1 forward_v I I I I #
coedge $-1 $124 $125 $126 $127 forward $49 $-1 #
coedge $-1 $128 $51 $129 $130 forward $31 $-1 #
coedge $-1 $51 $128 $131 $132 forward $31 $-1 #
coedge $-1 $133 $134 $51 $82 reversed $135 $-1 #
edge $-1 $136 -34.435592979738416 $137 34.435592979738416 $81 $138 forward 7 unknown #
face $-1 $139 $140 $19 $-1 $141 reversed single #
loop $-1 $-1 $89 $52 #
plane-surface $-1 0 0 7.0753388999935574 0 0 1 1 0 0 forward_v I I I I #
coedge $-1 $142 $143 $144 $145 reversed $53 $-1 #
coedge $-1 $88 $55 $146 $147 reversed $34 $-1 #
coedge $-1 $55 $87 $142 $148 reversed $34 $-1 #
coedge $-1 $144 $149 $55 $90 forward $84 $-1 #
edge $-1 $150 15.392321285504359 $151 18.909016797500968 $89 $152 forward 7 unknown #
loop $-1 $-1 $96 $56 #
plane-surface $-1 -63.305154576250501 28.719097480813062 3.1696527563199766 -0.74314483375859142 0 0.66913059716165679 0.66913059716165679 0 0.74314483375859142 forward_v I I I I #
loop $-1 $-1 $153 $36 #
coedge $-1 $94 $94 $95 $154 reversed $57 $-1 #
coedge $-1 $95 $95 $94 $154 forward $59 $-1 #
coedge $-1 $96 $96 $60 $97 forward $91 $-1 #
edge $-1 $155 0 $155 6.2831853071796004 $96 $156 forward 7 unknown #
face $-1 $157 $158 $21 $-1 $159 forward single #
loop $-1 $-1 $160 $61 #
plane-surface $-1 29.140039141148812 8.192666862163879 178.03136598842011 0 1 0 0.55919291073839883 0 0.82903756765294845 forward_v I I I I #
coedge $-1 $161 $162 $163 $164 reversed $62 $-1 #
coedge $-1 $103 $64 $165 $166 reversed $40 $-1 #
coedge $-1 $64 $102 $161 $167 reversed $40 $-1 #
coedge $-1 $163 $168 $64 $105 forward $158 $-1 #
edge $-1 $169 -48.735135005676085 $170 -41.606592156117287 $104 $171 forward 7 unknown #
loop $-1 $-1 $111 $65 #
plane-surface $-1 -41.659548163326754 13.577701256141893 73.066663248842843 0.55919291073839883 0 0.82903756765294845 0.82903756765294845 0 -0.55919291073839883 forward_v I I I I #
loop $-1 $-1 $172 $42 #
coedge $-1 $109 $109 $110 $173 reversed $66 $-1 #
coedge $-1 $110 $110 $109 $173 forward $68 $-1 #
coedge $-1 $111 $111 $69 $112 forward $106 $-1 #
edge $-1 $174 0 $174 6.2831853071796004 $111 $175 forward 7 unknown #
loop $-1 $-1 $118 $70 #
plane-surface $-1 -41.659548163326754 13.577701256141893 73.066663248842843 0.55919291073839883 0 0.82903756765294845 0.82903756765294845 0 -0.55919291073839883 forward_v I I I I #
loop $-1 $-1 $176 $45 #
coedge $-1 $116 $116 $117 $177 reversed $71 $-1 #
coedge $-1 $117 $117 $116 $177 forward $73 $-1 #
coedge $-1 $118 $118 $74 $119 forward $113 $-1 #
edge $-1 $178 0 $178 6.2831853071796004 $118 $179 forward 7 unknown #
face $-1 $180 $181 $18 $-1 $182 reversed single #
loop $-1 $-1 $183 $75 #
plane-surface $-1 -63.305154576250494 0 0 1 0 0 0 0 -1 forward_v I I I I #
coedge $-1 $184 $131 $185 $186 forward $76 $-1 #
coedge $-1 $187 $78 $184 $188 forward $49 $-1 #
coedge $-1 $78 $187 $189 $190 forward $49 $-1 #
coedge $-1 $134 $133 $78 $127 reversed $135 $-1 #
edge $-1 $191 -34.435592979738416 $192 34.435592979738416 $126 $193 forward 7 unknown #
coedge $-1 $80 $79 $194 $195 forward $31 $-1 #
coedge $-1 $196 $197 $79 $130 reversed $181 $-1 #
edge $-1 $137 -63.305154576250494 $198 63.305154576250494 $129 $199 forward 7 unknown #
coedge $-1 $123 $200 $80 $132 reversed $76 $-1 #
edge $-1 $201 -63.305154576250494 $136 63.305154576250494 $131 $202 forward 7 unknown #
coedge $-1 $126 $81 $200 $203 forward $135 $-1 #
coedge $-1 $81 $126 $196 $204 reversed $135 $-1 #
loop $-1 $-1 $133 $180 #
vertex $-1 $82 $205 #
vertex $-1 $82 $206 #
straight-curve $-1 63.305154576250494 0 7.0753388999935574 0 1 0 I I #
face $-1 $-1 $207 $19 $-1 $208 reversed single #
loop $-1 $-1 $209 $83 #
plane-surface $-1 0 34.435592979738416 0 0 -1 0 0 0 -1 forward_v I I I I #
coedge $-1 $210 $86 $88 $148 forward $53 $-1 #
coedge $-1 $86 $210 $209 $211 reversed $53 $-1 #
coedge $-1 $212 $89 $86 $145 forward $84 $-1 #
edge $-1 $151 8.6430532414811765 $213 20.076044239331885 $144 $214 forward 7 unknown #
coedge $-1 $215 $216 $87 $147 forward $207 $-1 #
edge $-1 $217 -40.774589506857481 $150 -36.868903363183904 $146 $218 forward 7 unknown #
edge $-1 $151 -5.2556190479315514 $217 -1.0694865687384493e-014 $88 $219 forward 7 unknown #
coedge $-1 $89 $212 $215 $220 forward $84 $-1 #
vertex $-1 $147 $221 #
vertex $-1 $90 $222 #
straight-curve $-1 -78.697475861754853 23.002601981887707 7.0753388999935538 1 0 0 I I #
coedge $-1 $153 $153 $-1 $223 reversed $93 $-1 #
edge $-1 $224 0 $224 6.2831853071796004 $94 $225 forward 7 unknown #
vertex $-1 $97 $226 #
ellipse-curve $-1 -61.546806820252193 28.719097480813062 5.122495828156767 -0.74314483375859142 0 0.66913059716165679 0.66913059716165679 0 0.74314483375859142 1 I I #
face $-1 $-1 $227 $21 $-1 $228 reversed single #
loop $-1 $-1 $104 $98 #
plane-surface $-1 0 0 7.0753388999935574 0 0 1 1 0 0 forward_v I I I I #
coedge $-1 $229 $230 $231 $232 reversed $99 $-1 #
coedge $-1 $233 $101 $103 $167 forward $62 $-1 #
coedge $-1 $101 $233 $229 $234 forward $62 $-1 #
coedge $-1 $231 $104 $101 $164 forward $158 $-1 #
edge $-1 $170 -12.17388502204896 $235 -1.4038162340929325 $163 $236 forward 7 unknown #
coedge $-1 $237 $238 $102 $166 forward $227 $-1 #
edge $-1 $239 -86.748607049842761 $169 -81.940344094216499 $165 $240 forward 7 unknown #
edge $-1 $170 118.01173276984065 $239 126.61030915250097 $103 $241 forward 7 unknown #
coedge $-1 $104 $231 $237 $242 forward $158 $-1 #
vertex $-1 $166 $243 #
vertex $-1 $105 $244 #
straight-curve $-1 14.570019570574406 18.962735650119907 7.0753388999935538 -1 0 0 I I #
coedge $-1 $172 $172 $-1 $245 reversed $108 $-1 #
edge $-1 $246 0 $246 6.2831853071796004 $109 $247 forward 7 unknown #
vertex $-1 $112 $248 #
ellipse-curve $-1 59.740883151471095 11.269829373008456 4.671207422180423 0.55919291073839883 0 0.82903756765294845 1.2435563514794228 0 -0.83878936610759824 1 I I #
coedge $-1 $176 $176 $-1 $249 reversed $115 $-1 #
edge $-1 $250 0 $250 6.2831853071796004 $116 $251 forward 7 unknown #
vertex $-1 $119 $252 #
ellipse-curve $-1 59.740883151471095 15.885573139275323 4.671207422180423 0.55919291073839883 0 0.82903756765294845 1.2435563514794228 0 -0.83878936610759824 1 I I #
face $-1 $-1 $135 $18 $-1 $253 reversed single #
loop $-1 $-1 $196 $120 #
plane-surface $-1 0 34.435592979738416 0 0 -1 0 0 0 -1 forward_v I I I I #
coedge $-1 $254 $194 $197 $255 forward $121 $-1 #
coedge $-1 $200 $123 $124 $188 reversed $76 $-1 #
coedge $-1 $194 $254 $123 $186 reversed $121 $-1 #
edge $-1 $201 -7.0753388999935574 $256 7.0753388999935574 $185 $257 forward 7 unknown #
coedge $-1 $125 $124 $254 $258 forward $49 $-1 #
edge $-1 $192 -63.305154576250494 $256 63.305154576250494 $184 $259 forward 7 unknown #
coedge $-1 $197 $196 $125 $190 reversed $181 $-1 #
edge $-1 $260 -63.305154576250494 $191 63.305154576250494 $189 $261 forward 7 unknown #
vertex $-1 $127 $262 #
vertex $-1 $203 $263 #
straight-curve $-1 63.305154576250494 0 -7.0753388999935574 0 -1 0 I I #
coedge $-1 $183 $185 $128 $195 reversed $121 $-1 #
edge $-1 $198 -34.435592979738416 $201 34.435592979738416 $194 $264 forward 7 unknown #
coedge $-1 $189 $129 $134 $204 forward $181 $-1 #
coedge $-1 $129 $189 $183 $255 reversed $181 $-1 #
vertex $-1 $130 $265 #
straight-curve $-1 0 34.435592979738416 7.0753388999935574 -1 0 0 I I #
coedge $-1 $131 $184 $133 $203 reversed $76 $-1 #
vertex $-1 $195 $266 #
straight-curve $-1 0 -34.435592979738416 7.0753388999935574 1 0 0 I I #
edge $-1 $136 -7.0753388999935574 $192 7.0753388999935574 $133 $267 forward 7 unknown #
edge $-1 $137 -7.0753388999935574 $191 7.0753388999935574 $134 $268 forward 7 unknown #
point $-1 63.305154576250494 -34.435592979738416 7.0753388999935574 #
point $-1 63.305154576250494 34.435592979738416 7.0753388999935574 #
loop $-1 $-1 $146 $139 #
plane-surface $-1 -63.305154576250494 0 0 1 0 0 0 0 -1 forward_v I I I I #
coedge $-1 $269 $270 $143 $211 forward $140 $-1 #
coedge $-1 $143 $142 $216 $271 reversed $53 $-1 #
edge $-1 $213 14.746333359243259 $272 20.001952407174798 $209 $273 forward 7 unknown #
coedge $-1 $149 $144 $270 $274 forward $84 $-1 #
vertex $-1 $274 $275 #
straight-curve $-1 -59.788459064253878 14.359548740406531 7.0753388999935574 0 1 0 I I #
coedge $-1 $276 $146 $149 $220 reversed $207 $-1 #
coedge $-1 $146 $276 $210 $271 forward $207 $-1 #
vertex $-1 $147 $277 #
straight-curve $-1 -63.305154576250494 23.002601981887707 43.944242263177465 0 0 1 I I #
straight-curve $-1 -63.305154576250501 23.002601981887707 3.1696527563199766 -0.66913059716165679 0 -0.74314483375859142 I I #
edge $-1 $278 -34.435592979738416 $150 -23.002601981887707 $215 $279 forward 7 unknown #
point $-1 -63.305154576250494 23.002601981887707 7.0753388999935574 #
point $-1 -59.788459064253885 23.002601981887707 7.0753388999935574 #
edge $-1 $280 1 $280 0 $153 $-1 forward 7 unknown #
vertex $-1 $154 $281 #
ellipse-curve $-1 -58.829237724506775 28.719097480813062 2.675585684588579 -0.74314483375859142 0 0.66913059716165679 0.66913059716165679 0 0.74314483375859142 1 I I #
point $-1 -60.877676223090518 28.719097480813062 5.8656406619153447 #
loop $-1 $-1 $165 $157 #
plane-surface $-1 63.305154576250494 0 0 -1 0 0 0 0 1 forward_v I I I I #
coedge $-1 $230 $160 $162 $234 reversed $99 $-1 #
coedge $-1 $160 $229 $282 $283 reversed $99 $-1 #
coedge $-1 $168 $163 $160 $232 forward $158 $-1 #
edge $-1 $235 41.606592156117287 $284 48.735135005676085 $231 $285 forward 7 unknown #
coedge $-1 $162 $161 $238 $286 reversed $62 $-1 #
edge $-1 $287 -126.61030915250097 $235 -118.01173276984065 $229 $288 forward 7 unknown #
vertex $-1 $164 $289 #
straight-curve $-1 56.176611726691711 6.7888506280709464 7.0753388999935538 0 -1 0 I I #
coedge $-1 $282 $165 $168 $242 reversed $227 $-1 #
coedge $-1 $165 $282 $233 $286 forward $227 $-1 #
vertex $-1 $166 $290 #
straight-curve $-1 63.305154576250494 18.962735650119907 89.015682994210053 0 0 1 I I #
straight-curve $-1 -41.659548163326754 18.962735650119907 73.066663248842843 0.82903756765294845 0 -0.55919291073839883 I I #
edge $-1 $284 8.192666862163879 $169 18.962735650119907 $237 $291 forward 7 unknown #
point $-1 63.305154576250494 18.962735650119907 7.0753388999935574 #
point $-1 56.176611726691696 18.962735650119907 7.0753388999935538 #
edge $-1 $292 1 $292 0 $172 $-1 forward 7 unknown #
vertex $-1 $173 $293 #
ellipse-curve $-1 58.069550477953072 11.269829373008456 2.1933548818779389 0.55919291073839883 0 0.82903756765294845 1.2435563514794228 0 -0.83878936610759824 1 I I #
point $-1 60.984439502950515 11.269829373008456 3.8324180560728252 #
edge $-1 $294 1 $294 0 $176 $-1 forward 7 unknown #
vertex $-1 $177 $295 #
ellipse-curve $-1 58.069550477953072 15.885573139275323 2.1933548818779389 0.55919291073839883 0 0.82903756765294845 1.2435563514794228 0 -0.83878936610759824 1 I I #
point $-1 60.984439502950515 15.885573139275323 3.8324180560728252 #
plane-surface $-1 63.305154576250494 0 0 -1 0 0 0 0 1 forward_v I I I I #
coedge $-1 $185 $183 $187 $258 reversed $121 $-1 #
edge $-1 $198 -7.0753388999935574 $260 7.0753388999935574 $197 $296 forward 7 unknown #
vertex $-1 $258 $297 #
straight-curve $-1 -63.305154576250494 -34.435592979738416 0 0 0 -1 I I #
edge $-1 $256 -34.435592979738416 $260 34.435592979738416 $254 $298 forward 7 unknown #
straight-curve $-1 0 -34.435592979738416 -7.0753388999935574 -1 0 0 I I #
vertex $-1 $190 $299 #
straight-curve $-1 0 34.435592979738416 -7.0753388999935574 1 0 0 I I #
point $-1 63.305154576250494 34.435592979738416 -7.0753388999935574 #
point $-1 63.305154576250494 -34.435592979738416 -7.0753388999935574 #
straight-curve $-1 -63.305154576250494 0 7.0753388999935574 0 -1 0 I I #
point $-1 -63.305154576250494 34.435592979738416 7.0753388999935574 #
point $-1 -63.305154576250494 -34.435592979738416 7.0753388999935574 #
straight-curve $-1 63.305154576250494 -34.435592979738416 0 0 0 -1 I I #
straight-curve $-1 63.305154576250494 34.435592979738416 0 0 0 -1 I I #
coedge $-1 $270 $209 $276 $300 reversed $140 $-1 #
coedge $-1 $209 $269 $212 $274 reversed $140 $-1 #
edge $-1 $272 -20.076044239331885 $217 -8.6430532414811765 $216 $301 forward 7 unknown #
vertex $-1 $211 $302 #
straight-curve $-1 -49.92123621763858 34.435592979738416 18.034000352797158 -0.66913059716165679 0 -0.74314483375859142 I I #
edge $-1 $213 59.788459064253885 $278 63.305154576250494 $270 $303 forward 7 unknown #
point $-1 -59.788459064253885 34.435592979738416 7.0753388999935574 #
coedge $-1 $216 $215 $269 $300 forward $207 $-1 #
point $-1 -63.305154576250494 23.002601981887707 3.1696527563199846 #
vertex $-1 $274 $304 #
straight-curve $-1 -63.305154576250494 0 7.0753388999935574 0 -1 0 I I #
vertex $-1 $223 $305 #
point $-1 -58.160107127345121 28.719097480813062 3.4187305183471706 #
coedge $-1 $238 $237 $230 $283 forward $227 $-1 #
edge $-1 $284 81.940344094216499 $287 86.748607049842761 $282 $306 forward 7 unknown #
vertex $-1 $242 $307 #
straight-curve $-1 14.570019570574406 8.192666862163879 7.0753388999935538 1 0 0 I I #
edge $-1 $287 1.4038162340929325 $239 12.17388502204896 $238 $308 forward 7 unknown #
vertex $-1 $286 $309 #
straight-curve $-1 -41.659548163326754 8.192666862163879 73.066663248842843 -0.82903756765294845 0 0.55919291073839883 I I #
point $-1 56.176611726691696 8.192666862163879 7.0753388999935538 #
point $-1 63.305154576250494 18.962735650119907 2.2670759443672921 #
straight-curve $-1 63.305154576250494 0 7.0753388999935574 0 1 0 I I #
vertex $-1 $245 $310 #
point $-1 59.313106829432492 11.269829373008456 1.3545655157703405 #
vertex $-1 $249 $311 #
point $-1 59.313106829432492 15.885573139275323 1.3545655157703405 #
straight-curve $-1 -63.305154576250494 34.435592979738416 0 0 0 -1 I I #
point $-1 -63.305154576250494 -34.435592979738416 -7.0753388999935574 #
straight-curve $-1 -63.305154576250494 0 -7.0753388999935574 0 1 0 I I #
point $-1 -63.305154576250494 34.435592979738416 -7.0753388999935574 #
edge $-1 $278 -7.0753388999935574 $272 -3.1696527563199846 $269 $312 forward 7 unknown #
straight-curve $-1 -63.305154576250494 14.359548740406531 3.1696527563199863 0 -1 0 I I #
point $-1 -63.305154576250494 34.435592979738416 3.1696527563199846 #
straight-curve $-1 0 34.435592979738416 7.0753388999935574 -1 0 0 I I #
point $-1 -63.305154576250494 34.435592979738416 7.0753388999935574 #
point $-1 -58.086092890748183 28.719097480813062 2.006455087426922 #
straight-curve $-1 63.305154576250494 8.192666862163879 89.015682994210053 0 0 -1 I I #
point $-1 63.305154576250494 8.192666862163879 7.0753388999935574 #
straight-curve $-1 63.305154576250501 6.7888506280709464 2.267075944367285 0 1 0 I I #
point $-1 63.305154576250494 8.192666862163879 2.2670759443672921 #
point $-1 57.230761111845467 11.269829373008456 0.94979853039851592 #
point $-1 57.230761111845467 15.885573139275323 0.94979853039851592 #
straight-curve $-1 -63.305154576250494 34.435592979738416 0 0 0 -1 I I #
End-of-ACIS-data 