500 0 5 0           
7 Unknown 11 ACIS 5.0 NT 24 Fri Mar 26 02:59:21 1999 
-1 9.9999999999999995e-007 1e-010 
body $-1 $5 $-1 $6 #
body $-1 $7 $-1 $8 #
body $-1 $9 $-1 $10 #
body $-1 $11 $-1 $12 #
body $-1 $13 $-1 $14 #
lump $-1 $-1 $15 $0 #
transform $-1 1 0 0 0 1 0 0 0 1 61.680349131748407 40.480846829988998 14.375660816303016 1 rotate no_reflect no_shear #
lump $-1 $-1 $16 $1 #
transform $-1 1 0 0 0 1 0 0 0 1 61.680349131748407 40.480846829988998 14.375660816303016 1 rotate no_reflect no_shear #
lump $-1 $-1 $17 $2 #
transform $-1 1 0 0 0 1 0 0 0 1 61.680349131748407 40.480846829988998 14.375660816303016 1 rotate no_reflect no_shear #
lump $-1 $-1 $18 $3 #
transform $-1 1 0 0 0 1 0 0 0 1 61.680349131748407 40.480846829988998 14.375660816303016 1 rotate no_reflect no_shear #
lump $-1 $-1 $19 $4 #
transform $-1 1 0 0 0 1 0 0 0 1 61.680349131748407 40.480846829988998 14.375660816303016 1 rotate no_reflect no_shear #
shell $-1 $-1 $-1 $20 $-1 $5 #
shell $-1 $-1 $-1 $21 $-1 $7 #
shell $-1 $-1 $-1 $22 $-1 $9 #
shell $-1 $-1 $-1 $23 $-1 $11 #
shell $-1 $-1 $-1 $24 $-1 $13 #
face $-1 $25 $26 $15 $-1 $27 forward single #
face $-1 $28 $29 $16 $-1 $30 forward single #
face $-1 $31 $32 $17 $-1 $33 reversed single #
face $-1 $34 $35 $18 $-1 $36 forward single #
face $-1 $37 $38 $19 $-1 $39 forward single #
face $-1 $40 $41 $15 $-1 $42 reversed single #
loop $-1 $-1 $43 $20 #
plane-surface $-1 0 0 14.375660816303016 0 0 1 1 0 0 forward_v I I I I #
face $-1 $44 $45 $16 $-1 $46 reversed single #
loop $-1 $-1 $47 $21 #
plane-surface $-1 0 -32.521196067991454 -10.864730207808295 0 0 1 1 0 0 forward_v I I I I #
face $-1 $48 $49 $17 $-1 $50 reversed single #
loop $-1 $-1 $51 $22 #
plane-surface $-1 49.510750087401654 23.217130632416524 175.24258773327199 0 1 0 0.6560590369687036 0 0.75470957328743171 forward_v I I I I #
face $-1 $52 $53 $18 $-1 $54 forward single #
loop $-1 $55 $56 $23 #
cone-surface $-1 53.193079597874643 28.149620974580095 6.7408469502084687 -0.6560590369687036 0 -0.75470957328743171 0.75470957328743171 0 -0.6560590369687036 1 I I 0 1 1 forward I I I I #
face $-1 $57 $58 $19 $-1 $59 forward single #
loop $-1 $60 $61 $24 #
cone-surface $-1 53.193079597874643 35.548356487825437 6.7408469502084687 -0.6560590369687036 0 -0.75470957328743171 0.75470957328743171 0 -0.6560590369687036 1 I I 0 1 1 forward I I I I #
face $-1 $62 $63 $15 $-1 $64 reversed single #
loop $-1 $-1 $65 $25 #
plane-surface $-1 0 0 -14.375660816303016 0 0 1 1 0 0 forward_v I I I I #
coedge $-1 $66 $67 $68 $69 forward $26 $-1 #
face $-1 $70 $71 $16 $-1 $72 reversed single #
loop $-1 $-1 $73 $28 #
plane-surface $-1 0 -24.561545305993914 -12.620195512055655 0 -1 0 0 0 -1 forward_v I I I I #
coedge $-1 $74 $75 $76 $77 reversed $29 $-1 #
face $-1 $78 $79 $17 $-1 $80 forward single #
loop $-1 $-1 $81 $31 #
plane-surface $-1 -31.421150815134887 31.848988731202759 82.141087786388695 0.6560590369687036 0 0.75470957328743171 0.75470957328743171 0 -0.6560590369687036 forward_v I I I I #
coedge $-1 $82 $83 $84 $85 reversed $32 $-1 #
face $-1 $-1 $86 $18 $-1 $87 forward single #
loop $-1 $88 $89 $34 #
cone-surface $-1 51.950928207023487 28.149620974580095 5.3119152636956475 -0.6560590369687036 0 -0.75470957328743171 0.37735478664371586 0 -0.3280295184843518 1 I I -0.70710678118654746 0.70710678118654746 0.5 forward I I I I #
loop $-1 $-1 $90 $23 #
coedge $-1 $56 $56 $91 $92 reversed $35 $-1 #
face $-1 $-1 $93 $19 $-1 $94 forward single #
loop $-1 $95 $96 $37 #
cone-surface $-1 51.950928207023487 35.548356487825437 5.3119152636956475 -0.6560590369687036 0 -0.75470957328743171 0.37735478664371586 0 -0.3280295184843518 1 I I -0.70710678118654746 0.70710678118654746 0.5 forward I I I I #
loop $-1 $-1 $97 $24 #
coedge $-1 $61 $61 $98 $99 reversed $38 $-1 #
face $-1 $100 $101 $15 $-1 $102 reversed single #
loop $-1 $-1 $103 $40 #
plane-surface $-1 0 -40.480846829988998 0 0 1 0 0 0 1 forward_v I I I I #
coedge $-1 $104 $105 $106 $107 forward $41 $-1 #
coedge $-1 $108 $43 $109 $110 forward $26 $-1 #
coedge $-1 $43 $108 $111 $112 forward $26 $-1 #
coedge $-1 $113 $114 $43 $69 reversed $115 $-1 #
edge $-1 $116 -40.480846829988998 $117 40.480846829988998 $68 $118 forward 7 unknown #
face $-1 $119 $120 $16 $-1 $121 reversed single #
loop $-1 $-1 $122 $44 #
plane-surface $-1 0 0 -14.375660816303016 0 0 1 1 0 0 forward_v I I I I #
coedge $-1 $123 $124 $125 $126 reversed $45 $-1 #
coedge $-1 $127 $47 $124 $128 forward $29 $-1 #
coedge $-1 $47 $127 $129 $130 reversed $29 $-1 #
coedge $-1 $131 $125 $47 $77 forward $120 $-1 #
edge $-1 $132 8.3009472719981865 $133 24.220248795993264 $76 $134 forward 7 unknown #
face $-1 $135 $136 $17 $-1 $137 reversed single #
loop $-1 $-1 $138 $48 #
plane-surface $-1 0 0 14.375660816303016 0 0 1 1 0 0 forward_v I I I I #
coedge $-1 $139 $140 $141 $142 reversed $49 $-1 #
coedge $-1 $83 $51 $143 $144 reversed $32 $-1 #
coedge $-1 $51 $82 $139 $145 reversed $32 $-1 #
coedge $-1 $141 $146 $51 $85 forward $147 $-1 #
edge $-1 $148 73.245633050332984 $149 86.41210698278384 $84 $150 forward 7 unknown #
loop $-1 $-1 $91 $52 #
plane-surface $-1 -31.421150815134887 31.848988731202759 82.141087786388695 0.6560590369687036 0 0.75470957328743171 0.75470957328743171 0 -0.6560590369687036 forward_v I I I I #
loop $-1 $-1 $151 $34 #
coedge $-1 $89 $89 $90 $152 reversed $53 $-1 #
coedge $-1 $90 $90 $89 $152 forward $55 $-1 #
coedge $-1 $91 $91 $56 $92 forward $86 $-1 #
edge $-1 $153 0 $153 6.2831853071796004 $91 $154 forward 7 unknown #
loop $-1 $-1 $98 $57 #
plane-surface $-1 -31.421150815134887 31.848988731202759 82.141087786388695 0.6560590369687036 0 0.75470957328743171 0.75470957328743171 0 -0.6560590369687036 forward_v I I I I #
loop $-1 $-1 $155 $37 #
coedge $-1 $96 $96 $97 $156 reversed $58 $-1 #
coedge $-1 $97 $97 $96 $156 forward $60 $-1 #
coedge $-1 $98 $98 $61 $99 forward $93 $-1 #
edge $-1 $157 0 $157 6.2831853071796004 $98 $158 forward 7 unknown #
face $-1 $159 $160 $15 $-1 $161 reversed single #
loop $-1 $-1 $162 $62 #
plane-surface $-1 -61.680349131748407 0 0 1 0 0 0 0 -1 forward_v I I I I #
coedge $-1 $163 $111 $164 $165 forward $63 $-1 #
coedge $-1 $166 $65 $163 $167 forward $41 $-1 #
coedge $-1 $65 $166 $168 $169 forward $41 $-1 #
coedge $-1 $114 $113 $65 $107 reversed $115 $-1 #
edge $-1 $170 -40.480846829988998 $171 40.480846829988998 $106 $172 forward 7 unknown #
coedge $-1 $67 $66 $173 $174 forward $26 $-1 #
coedge $-1 $175 $176 $66 $110 reversed $160 $-1 #
edge $-1 $117 -61.680349131748407 $177 61.680349131748407 $109 $178 forward 7 unknown #
coedge $-1 $103 $179 $67 $112 reversed $63 $-1 #
edge $-1 $180 -61.680349131748407 $116 61.680349131748407 $111 $181 forward 7 unknown #
coedge $-1 $106 $68 $179 $182 forward $115 $-1 #
coedge $-1 $68 $106 $175 $183 reversed $115 $-1 #
loop $-1 $-1 $113 $159 #
vertex $-1 $69 $184 #
vertex $-1 $69 $185 #
straight-curve $-1 61.680349131748407 0 14.375660816303016 0 1 0 I I #
face $-1 $186 $187 $16 $-1 $188 reversed single #
loop $-1 $-1 $125 $70 #
plane-surface $-1 61.680349131748407 0 0 -1 0 0 0 0 1 forward_v I I I I #
coedge $-1 $189 $190 $123 $191 forward $71 $-1 #
coedge $-1 $192 $73 $122 $191 reversed $45 $-1 #
coedge $-1 $73 $192 $74 $128 reversed $45 $-1 #
coedge $-1 $76 $193 $73 $126 forward $120 $-1 #
edge $-1 $194 -8.0655630602751884 $132 -4.5546324517804671 $125 $195 forward 7 unknown #
coedge $-1 $75 $74 $196 $197 reversed $29 $-1 #
edge $-1 $132 -61.680349131748407 $198 61.680349131748407 $124 $199 forward 7 unknown #
coedge $-1 $200 $201 $75 $130 forward $187 $-1 #
edge $-1 $133 -61.680349131748407 $202 61.680349131748407 $129 $203 forward 7 unknown #
coedge $-1 $193 $76 $201 $204 forward $120 $-1 #
vertex $-1 $77 $205 #
vertex $-1 $204 $206 #
straight-curve $-1 61.680349131748407 -16.260598033995727 -10.864730207808295 0 -1 0 I I #
face $-1 $-1 $147 $17 $-1 $207 reversed single #
loop $-1 $-1 $208 $78 #
plane-surface $-1 0 40.480846829988998 0 0 -1 0 0 0 -1 forward_v I I I I #
coedge $-1 $143 $209 $210 $211 forward $79 $-1 #
coedge $-1 $210 $81 $83 $145 forward $49 $-1 #
coedge $-1 $81 $210 $208 $212 reversed $49 $-1 #
coedge $-1 $213 $84 $81 $142 forward $147 $-1 #
edge $-1 $149 7.2926362668151441 $214 24.556352464387619 $141 $215 forward 7 unknown #
coedge $-1 $216 $138 $82 $144 forward $79 $-1 #
edge $-1 $217 21.778678765033678 $148 36.924974088047577 $143 $218 forward 7 unknown #
edge $-1 $149 -123.36069826349681 $217 -103.29165997498231 $83 $219 forward 7 unknown #
coedge $-1 $84 $213 $216 $220 reversed $147 $-1 #
loop $-1 $-1 $141 $135 #
vertex $-1 $220 $221 #
vertex $-1 $85 $222 #
straight-curve $-1 61.680349131748407 23.217130632416524 87.621293866635995 0 0 -1 I I #
coedge $-1 $151 $151 $-1 $223 reversed $88 $-1 #
edge $-1 $224 0 $224 6.2831853071796004 $89 $225 forward 7 unknown #
vertex $-1 $92 $226 #
ellipse-curve $-1 54.107201470241463 28.149620974580095 7.7924238500775926 0.6560590369687036 0 0.75470957328743171 0.75470957328743171 0 -0.6560590369687036 1 I I #
coedge $-1 $155 $155 $-1 $227 reversed $95 $-1 #
edge $-1 $228 0 $228 6.2831853071796004 $96 $229 forward 7 unknown #
vertex $-1 $99 $230 #
ellipse-curve $-1 54.107201470241463 35.548356487825437 7.7924238500775926 0.6560590369687036 0 0.75470957328743171 0.75470957328743171 0 -0.6560590369687036 1 I I #
face $-1 $-1 $115 $15 $-1 $231 reversed single #
loop $-1 $-1 $175 $100 #
plane-surface $-1 0 40.480846829988998 0 0 -1 0 0 0 -1 forward_v I I I I #
coedge $-1 $232 $173 $176 $233 forward $101 $-1 #
coedge $-1 $179 $103 $104 $167 reversed $63 $-1 #
coedge $-1 $173 $232 $103 $165 reversed $101 $-1 #
edge $-1 $180 -14.375660816303016 $234 14.375660816303016 $164 $235 forward 7 unknown #
coedge $-1 $105 $104 $232 $236 forward $41 $-1 #
edge $-1 $171 -61.680349131748407 $234 61.680349131748407 $163 $237 forward 7 unknown #
coedge $-1 $176 $175 $105 $169 reversed $160 $-1 #
edge $-1 $238 -61.680349131748407 $170 61.680349131748407 $168 $239 forward 7 unknown #
vertex $-1 $107 $240 #
vertex $-1 $182 $241 #
straight-curve $-1 61.680349131748407 0 -14.375660816303016 0 -1 0 I I #
coedge $-1 $162 $164 $108 $174 reversed $101 $-1 #
edge $-1 $177 -40.480846829988998 $180 40.480846829988998 $173 $242 forward 7 unknown #
coedge $-1 $168 $109 $114 $183 forward $160 $-1 #
coedge $-1 $109 $168 $162 $233 reversed $160 $-1 #
vertex $-1 $110 $243 #
straight-curve $-1 0 40.480846829988998 14.375660816303016 -1 0 0 I I #
coedge $-1 $111 $163 $113 $182 reversed $63 $-1 #
vertex $-1 $174 $244 #
straight-curve $-1 0 -40.480846829988998 14.375660816303016 1 0 0 I I #
edge $-1 $116 -14.375660816303016 $171 14.375660816303016 $113 $245 forward 7 unknown #
edge $-1 $117 -14.375660816303016 $170 14.375660816303016 $114 $246 forward 7 unknown #
point $-1 61.680349131748407 -40.480846829988998 14.375660816303016 #
point $-1 61.680349131748407 40.480846829988998 14.375660816303016 #
face $-1 $-1 $247 $16 $-1 $248 reversed single #
loop $-1 $-1 $129 $119 #
plane-surface $-1 0 -40.480846829988998 0 0 1 0 0 0 1 forward_v I I I I #
coedge $-1 $249 $122 $193 $250 forward $71 $-1 #
coedge $-1 $122 $249 $251 $252 forward $71 $-1 #
edge $-1 $253 -61.680349131748407 $194 61.680349131748407 $122 $254 forward 7 unknown #
coedge $-1 $124 $123 $255 $256 reversed $45 $-1 #
coedge $-1 $125 $131 $189 $250 reversed $120 $-1 #
vertex $-1 $250 $257 #
straight-curve $-1 61.680349131748407 -24.561545305993914 -6.3100977560278277 0 0 1 I I #
coedge $-1 $255 $258 $127 $197 forward $247 $-1 #
edge $-1 $202 -24.220248795993264 $198 -8.3009472719981865 $196 $259 forward 7 unknown #
vertex $-1 $197 $260 #
straight-curve $-1 0 -24.561545305993914 -10.864730207808295 -1 0 0 I I #
coedge $-1 $261 $129 $258 $262 forward $187 $-1 #
coedge $-1 $129 $261 $131 $204 reversed $187 $-1 #
vertex $-1 $262 $263 #
straight-curve $-1 0 -40.480846829988998 -10.864730207808295 -1 0 0 I I #
edge $-1 $133 10.864730207808295 $264 14.375660816303016 $131 $265 forward 7 unknown #
point $-1 61.680349131748407 -24.561545305993914 -10.864730207808295 #
point $-1 61.680349131748407 -40.480846829988991 -10.864730207808295 #
plane-surface $-1 61.680349131748407 0 0 -1 0 0 0 0 1 forward_v I I I I #
coedge $-1 $266 $267 $140 $212 forward $136 $-1 #
coedge $-1 $138 $216 $266 $268 forward $79 $-1 #
coedge $-1 $140 $139 $138 $211 reversed $49 $-1 #
edge $-1 $269 -24.556352464387611 $217 -7.2926362668151441 $138 $270 forward 7 unknown #
edge $-1 $214 -84.559075127201623 $269 -64.490036838687118 $208 $271 forward 7 unknown #
coedge $-1 $146 $141 $267 $272 reversed $147 $-1 #
vertex $-1 $142 $273 #
straight-curve $-1 61.6803491317484 15.92449436560138 1.2091868838521549 0 1 0 I I #
coedge $-1 $209 $143 $146 $220 forward $79 $-1 #
vertex $-1 $144 $274 #
straight-curve $-1 24.755375043700827 23.217130632416524 14.375660816303011 1 0 0 I I #
straight-curve $-1 -31.421150815134887 23.217130632416524 82.141087786388695 -0.75470957328743171 0 0.6560590369687036 I I #
edge $-1 $148 23.217130632416524 $275 40.480846829988998 $146 $276 forward 7 unknown #
point $-1 61.680349131748407 23.217130632416524 14.375660816303016 #
point $-1 61.680349131748407 23.217130632416524 1.2091868838521549 #
edge $-1 $277 1 $277 0 $151 $-1 forward 7 unknown #
vertex $-1 $152 $278 #
ellipse-curve $-1 52.278957725507837 28.149620974580095 5.6892700503393634 0.6560590369687036 0 0.75470957328743171 0.75470957328743171 0 -0.6560590369687036 1 I I #
point $-1 54.861911043528885 28.149620974580095 7.1363648131088695 #
edge $-1 $279 1 $279 0 $155 $-1 forward 7 unknown #
vertex $-1 $156 $280 #
ellipse-curve $-1 52.278957725507837 35.548356487825437 5.6892700503393634 0.6560590369687036 0 0.75470957328743171 0.75470957328743171 0 -0.6560590369687036 1 I I #
point $-1 54.861911043528885 35.548356487825437 7.1363648131088695 #
plane-surface $-1 61.680349131748407 0 0 -1 0 0 0 0 1 forward_v I I I I #
coedge $-1 $164 $162 $166 $236 reversed $101 $-1 #
edge $-1 $177 -14.375660816303016 $238 14.375660816303016 $176 $281 forward 7 unknown #
vertex $-1 $236 $282 #
straight-curve $-1 -61.680349131748407 -40.480846829988998 0 0 0 -1 I I #
edge $-1 $234 -40.480846829988998 $238 40.480846829988998 $232 $283 forward 7 unknown #
straight-curve $-1 0 -40.480846829988998 -14.375660816303016 -1 0 0 I I #
vertex $-1 $169 $284 #
straight-curve $-1 0 40.480846829988998 -14.375660816303016 1 0 0 I I #
point $-1 61.680349131748407 40.480846829988998 -14.375660816303016 #
point $-1 61.680349131748407 -40.480846829988998 -14.375660816303016 #
straight-curve $-1 -61.680349131748407 0 14.375660816303016 0 -1 0 I I #
point $-1 -61.680349131748407 40.480846829988998 14.375660816303016 #
point $-1 -61.680349131748407 -40.480846829988998 14.375660816303016 #
straight-curve $-1 61.680349131748407 -40.480846829988998 0 0 0 -1 I I #
straight-curve $-1 61.680349131748407 40.480846829988998 0 0 0 -1 I I #
loop $-1 $-1 $255 $186 #
plane-surface $-1 -61.680349131748407 0 0 1 0 0 0 0 -1 forward_v I I I I #
coedge $-1 $190 $189 $261 $285 forward $71 $-1 #
edge $-1 $194 24.561545305993914 $264 40.480846829988998 $193 $286 forward 7 unknown #
coedge $-1 $258 $255 $190 $252 reversed $247 $-1 #
edge $-1 $287 -40.480846829988998 $253 -24.561545305993914 $251 $288 forward 7 unknown #
vertex $-1 $256 $289 #
straight-curve $-1 0 -24.561545305993914 -14.375660816303016 1 0 0 I I #
coedge $-1 $251 $196 $192 $256 forward $247 $-1 #
edge $-1 $198 4.5546324517804671 $253 8.0655630602751884 $255 $290 forward 7 unknown #
point $-1 61.680349131748407 -24.561545305993914 -14.375660816303016 #
coedge $-1 $196 $251 $200 $262 reversed $247 $-1 #
straight-curve $-1 -61.680349131748407 -16.260598033995727 -10.864730207808295 0 1 0 I I #
point $-1 -61.680349131748407 -24.561545305993914 -10.864730207808295 #
coedge $-1 $201 $200 $249 $285 reversed $187 $-1 #
edge $-1 $202 10.864730207808295 $287 14.375660816303016 $258 $291 forward 7 unknown #
point $-1 -61.680349131748407 -40.480846829988991 -10.864730207808295 #
vertex $-1 $204 $292 #
straight-curve $-1 61.680349131748407 -40.480846829988998 0 0 0 -1 I I #
coedge $-1 $267 $208 $209 $268 reversed $136 $-1 #
coedge $-1 $208 $266 $213 $272 forward $136 $-1 #
edge $-1 $275 -61.680349131748407 $269 -46.534053808734505 $266 $293 forward 7 unknown #
vertex $-1 $211 $294 #
straight-curve $-1 46.534053808734484 15.92449436560138 14.375660816303025 0 -1 0 I I #
straight-curve $-1 -2.1371943750817994 40.480846829988998 56.684932278768301 -0.75470957328743171 0 0.6560590369687036 I I #
edge $-1 $275 -14.375660816303016 $214 -1.2091868838521544 $213 $295 forward 7 unknown #
point $-1 61.680349131748407 40.480846829988998 1.2091868838521544 #
point $-1 46.534053808734505 23.217130632416524 14.375660816303011 #
vertex $-1 $220 $296 #
straight-curve $-1 61.680349131748407 0 14.375660816303016 0 1 0 I I #
vertex $-1 $223 $297 #
point $-1 53.033667298795272 28.149620974580095 5.0332110133706598 #
vertex $-1 $227 $298 #
point $-1 53.033667298795272 35.548356487825437 5.0332110133706598 #
straight-curve $-1 -61.680349131748407 40.480846829988998 0 0 0 -1 I I #
point $-1 -61.680349131748407 -40.480846829988998 -14.375660816303016 #
straight-curve $-1 -61.680349131748407 0 -14.375660816303016 0 1 0 I I #
point $-1 -61.680349131748407 40.480846829988998 -14.375660816303016 #
edge $-1 $264 -61.680349131748407 $287 61.680349131748407 $261 $299 forward 7 unknown #
straight-curve $-1 61.680349131748407 0 -14.375660816303016 0 -1 0 I I #
vertex $-1 $252 $300 #
straight-curve $-1 -61.680349131748407 0 -14.375660816303016 0 1 0 I I #
point $-1 -61.680349131748407 -24.561545305993914 -14.375660816303016 #
straight-curve $-1 -61.680349131748407 -24.561545305993914 -6.3100977560278277 0 0 -1 I I #
straight-curve $-1 -61.680349131748407 -40.480846829988998 0 0 0 -1 I I #
point $-1 61.680349131748407 -40.480846829988998 -14.375660816303016 #
straight-curve $-1 0 40.480846829988998 14.375660816303016 -1 0 0 I I #
point $-1 46.534053808734505 40.480846829988991 14.375660816303011 #
straight-curve $-1 61.680349131748407 40.480846829988998 0 0 0 -1 I I #
point $-1 61.680349131748407 40.480846829988998 14.375660816303016 #
point $-1 51.622898688539138 28.149620974580095 4.9345604770519316 #
point $-1 51.622898688539138 35.548356487825437 4.9345604770519316 #
straight-curve $-1 0 -40.480846829988998 -14.375660816303016 -1 0 0 I I #
point $-1 -61.680349131748407 -40.480846829988998 -14.375660816303016 #
End-of-ACIS-data 