500 0 18 0           
7 Unknown 11 ACIS 5.0 NT 24 Thu Mar 25 23:37:49 1999 
-1 9.9999999999999995e-007 1e-010 
body $-1 $18 $-1 $19 #
body $-1 $20 $-1 $21 #
body $-1 $22 $-1 $23 #
body $-1 $24 $-1 $25 #
body $-1 $26 $-1 $27 #
body $-1 $28 $-1 $29 #
body $-1 $30 $-1 $31 #
body $-1 $32 $-1 $33 #
body $-1 $34 $-1 $35 #
body $-1 $36 $-1 $37 #
body $-1 $38 $-1 $39 #
body $-1 $40 $-1 $41 #
body $-1 $42 $-1 $43 #
body $-1 $44 $-1 $45 #
body $-1 $46 $-1 $47 #
body $-1 $48 $-1 $49 #
body $-1 $50 $-1 $51 #
body $-1 $52 $-1 $53 #
lump $-1 $-1 $54 $0 #
transform $-1 1 0 0 0 1 0 0 0 1 43.779412213507491 26.103843625068635 9.5133600701157306 1 rotate no_reflect no_shear #
lump $-1 $-1 $55 $1 #
transform $-1 1 0 0 0 1 0 0 0 1 43.779412213507491 26.103843625068635 9.5133600701157306 1 rotate no_reflect no_shear #
lump $-1 $-1 $56 $2 #
transform $-1 1 0 0 0 1 0 0 0 1 43.779412213507491 26.103843625068635 9.5133600701157306 1 rotate no_reflect no_shear #
lump $-1 $-1 $57 $3 #
transform $-1 1 0 0 0 1 0 0 0 1 43.779412213507491 26.103843625068635 9.5133600701157306 1 rotate no_reflect no_shear #
lump $-1 $-1 $58 $4 #
transform $-1 1 0 0 0 1 0 0 0 1 43.779412213507491 26.103843625068635 9.5133600701157306 1 rotate no_reflect no_shear #
lump $-1 $-1 $59 $5 #
transform $-1 1 0 0 0 1 0 0 0 1 43.779412213507491 26.103843625068635 9.5133600701157306 1 rotate no_reflect no_shear #
lump $-1 $-1 $60 $6 #
transform $-1 1 0 0 0 1 0 0 0 1 43.779412213507491 26.103843625068635 9.5133600701157306 1 rotate no_reflect no_shear #
lump $-1 $-1 $61 $7 #
transform $-1 1 0 0 0 1 0 0 0 1 43.779412213507491 26.103843625068635 9.5133600701157306 1 rotate no_reflect no_shear #
lump $-1 $-1 $62 $8 #
transform $-1 1 0 0 0 1 0 0 0 1 43.779412213507491 26.103843625068635 9.5133600701157306 1 rotate no_reflect no_shear #
lump $-1 $-1 $63 $9 #
transform $-1 1 0 0 0 1 0 0 0 1 43.779412213507491 26.103843625068635 9.5133600701157306 1 rotate no_reflect no_shear #
lump $-1 $-1 $64 $10 #
transform $-1 1 0 0 0 1 0 0 0 1 43.779412213507491 26.103843625068635 9.5133600701157306 1 rotate no_reflect no_shear #
lump $-1 $-1 $65 $11 #
transform $-1 1 0 0 0 1 0 0 0 1 43.779412213507491 26.103843625068635 9.5133600701157306 1 rotate no_reflect no_shear #
lump $-1 $-1 $66 $12 #
transform $-1 1 0 0 0 1 0 0 0 1 43.779412213507491 26.103843625068635 9.5133600701157306 1 rotate no_reflect no_shear #
lump $-1 $-1 $67 $13 #
transform $-1 1 0 0 0 1 0 0 0 1 43.779412213507491 26.103843625068635 9.5133600701157306 1 rotate no_reflect no_shear #
lump $-1 $-1 $68 $14 #
transform $-1 1 0 0 0 1 0 0 0 1 43.779412213507491 26.103843625068635 9.5133600701157306 1 rotate no_reflect no_shear #
lump $-1 $-1 $69 $15 #
transform $-1 1 0 0 0 1 0 0 0 1 43.779412213507491 26.103843625068635 9.5133600701157306 1 rotate no_reflect no_shear #
lump $-1 $-1 $70 $16 #
transform $-1 1 0 0 0 1 0 0 0 1 43.779412213507491 26.103843625068635 9.5133600701157306 1 rotate no_reflect no_shear #
lump $-1 $-1 $71 $17 #
transform $-1 1 0 0 0 1 0 0 0 1 43.779412213507491 26.103843625068635 9.5133600701157306 1 rotate no_reflect no_shear #
shell $-1 $-1 $-1 $72 $-1 $18 #
shell $-1 $-1 $-1 $73 $-1 $20 #
shell $-1 $-1 $-1 $74 $-1 $22 #
shell $-1 $-1 $-1 $75 $-1 $24 #
shell $-1 $-1 $-1 $76 $-1 $26 #
shell $-1 $-1 $-1 $77 $-1 $28 #
shell $-1 $-1 $-1 $78 $-1 $30 #
shell $-1 $-1 $-1 $79 $-1 $32 #
shell $-1 $-1 $-1 $80 $-1 $34 #
shell $-1 $-1 $-1 $81 $-1 $36 #
shell $-1 $-1 $-1 $82 $-1 $38 #
shell $-1 $-1 $-1 $83 $-1 $40 #
shell $-1 $-1 $-1 $84 $-1 $42 #
shell $-1 $-1 $-1 $85 $-1 $44 #
shell $-1 $-1 $-1 $86 $-1 $46 #
shell $-1 $-1 $-1 $87 $-1 $48 #
shell $-1 $-1 $-1 $88 $-1 $50 #
shell $-1 $-1 $-1 $89 $-1 $52 #
face $-1 $90 $91 $54 $-1 $92 forward single #
face $-1 $93 $94 $55 $-1 $95 forward single #
face $-1 $96 $97 $56 $-1 $98 reversed single #
face $-1 $99 $100 $57 $-1 $101 forward single #
face $-1 $102 $103 $58 $-1 $104 forward single #
face $-1 $105 $106 $59 $-1 $107 forward single #
face $-1 $108 $109 $60 $-1 $110 reversed single #
face $-1 $111 $112 $61 $-1 $113 forward single #
face $-1 $114 $115 $62 $-1 $116 forward single #
face $-1 $117 $118 $63 $-1 $119 forward single #
face $-1 $120 $121 $64 $-1 $122 reversed single #
face $-1 $123 $124 $65 $-1 $125 forward single #
face $-1 $126 $127 $66 $-1 $128 forward single #
face $-1 $129 $130 $67 $-1 $131 forward single #
face $-1 $132 $133 $68 $-1 $134 reversed single #
face $-1 $135 $136 $69 $-1 $137 forward single #
face $-1 $138 $139 $70 $-1 $140 forward single #
face $-1 $141 $142 $71 $-1 $143 forward single #
face $-1 $144 $145 $54 $-1 $146 reversed single #
loop $-1 $-1 $147 $72 #
plane-surface $-1 0 0 9.5133600701157306 0 0 1 1 0 0 forward_v I I I I #
face $-1 $148 $149 $55 $-1 $150 reversed single #
loop $-1 $-1 $151 $73 #
plane-surface $-1 -37.797030948309313 0 0.96317085196555619 0 0 1 1 0 0 forward_v I I I I #
face $-1 $152 $153 $56 $-1 $154 reversed single #
loop $-1 $-1 $155 $74 #
plane-surface $-1 -18.857057630141455 67.882735765584314 93.560589946243141 1 0 0 0 -0.81915205242281985 -0.57357642473473569 forward_v I I I I #
face $-1 $156 $157 $57 $-1 $158 forward single #
loop $-1 $159 $160 $75 #
cone-surface $-1 -17.005352626915588 22.564171332977761 4.7563309798009046 0 -0.81915205242281985 -0.57357642473473569 0.5 0 0 1 I I 0 1 0.5 forward I I I I #
face $-1 $161 $162 $58 $-1 $163 forward single #
loop $-1 $164 $165 $76 #
cone-surface $-1 -14.227795122076788 22.564171332977761 4.7563309798009046 0 -0.81915205242281985 -0.57357642473473569 0.5 0 0 1 I I 0 1 0.5 forward I I I I #
face $-1 $166 $167 $59 $-1 $168 forward single #
loop $-1 $169 $170 $77 #
cone-surface $-1 -11.450237617237988 22.564171332977761 4.7563309798009046 0 -0.81915205242281985 -0.57357642473473569 0.5 0 0 1 I I 0 1 0.5 forward I I I I #
face $-1 $171 $172 $60 $-1 $173 reversed single #
loop $-1 $-1 $174 $78 #
plane-surface $-1 18.939973318167855 67.882735765584314 93.560589946243141 1 0 0 0 -0.81915205242281985 -0.57357642473473569 forward_v I I I I #
face $-1 $175 $176 $61 $-1 $177 forward single #
loop $-1 $178 $179 $79 #
cone-surface $-1 20.791678321393725 22.564171332977761 4.7563309798009046 0 -0.81915205242281985 -0.57357642473473569 0.5 0 0 1 I I 0 1 0.5 forward I I I I #
face $-1 $180 $181 $62 $-1 $182 forward single #
loop $-1 $183 $184 $80 #
cone-surface $-1 23.569235826232521 22.564171332977761 4.7563309798009046 0 -0.81915205242281985 -0.57357642473473569 0.5 0 0 1 I I 0 1 0.5 forward I I I I #
face $-1 $185 $186 $63 $-1 $187 forward single #
loop $-1 $188 $189 $81 #
cone-surface $-1 26.346793331071332 22.564171332977761 4.7563309798009046 0 -0.81915205242281985 -0.57357642473473569 0.5 0 0 1 I I 0 1 0.5 forward I I I I #
face $-1 $190 $191 $64 $-1 $192 reversed single #
loop $-1 $-1 $193 $82 #
plane-surface $-1 -9.5985326140121217 -97.827834362187289 50.794555783044522 -1 0 0 0 -0.81915205242281985 0.57357642473473569 forward_v I I I I #
face $-1 $194 $195 $65 $-1 $196 forward single #
loop $-1 $197 $198 $83 #
cone-surface $-1 -17.005352626915588 -22.564171332977761 4.7563309798009046 0 0.81915205242281985 -0.57357642473473569 0.5 0 0 1 I I 0 1 0.5 forward I I I I #
face $-1 $199 $200 $66 $-1 $201 forward single #
loop $-1 $202 $203 $84 #
cone-surface $-1 -14.227795122076788 -22.564171332977761 4.7563309798009046 0 0.81915205242281985 -0.57357642473473569 0.5 0 0 1 I I 0 1 0.5 forward I I I I #
face $-1 $204 $205 $67 $-1 $206 forward single #
loop $-1 $207 $208 $85 #
cone-surface $-1 -11.450237617237988 -22.564171332977761 4.7563309798009046 0 0.81915205242281985 -0.57357642473473569 0.5 0 0 1 I I 0 1 0.5 forward I I I I #
face $-1 $209 $210 $68 $-1 $211 reversed single #
loop $-1 $-1 $212 $86 #
plane-surface $-1 28.198498334297188 -97.827834362187289 50.794555783044522 -1 0 0 0 -0.81915205242281985 0.57357642473473569 forward_v I I I I #
face $-1 $213 $214 $69 $-1 $215 forward single #
loop $-1 $216 $217 $87 #
cone-surface $-1 20.791678321393725 -22.564171332977761 4.7563309798009046 0 0.81915205242281985 -0.57357642473473569 0.5 0 0 1 I I 0 1 0.5 forward I I I I #
face $-1 $218 $219 $70 $-1 $220 forward single #
loop $-1 $221 $222 $88 #
cone-surface $-1 23.569235826232521 -22.564171332977761 4.7563309798009046 0 0.81915205242281985 -0.57357642473473569 0.5 0 0 1 I I 0 1 0.5 forward I I I I #
face $-1 $223 $224 $71 $-1 $225 forward single #
loop $-1 $226 $227 $89 #
cone-surface $-1 26.346793331071332 -22.564171332977761 4.7563309798009046 0 0.81915205242281985 -0.57357642473473569 0.5 0 0 1 I I 0 1 0.5 forward I I I I #
face $-1 $228 $229 $54 $-1 $230 reversed single #
loop $-1 $-1 $231 $90 #
plane-surface $-1 0 0 -9.5133600701157306 0 0 1 1 0 0 forward_v I I I I #
coedge $-1 $232 $233 $234 $235 forward $91 $-1 #
face $-1 $236 $237 $55 $-1 $238 reversed single #
loop $-1 $-1 $239 $93 #
plane-surface $-1 -37.797030948309313 0 -2.9952951006078217 0 0 1 1 0 0 forward_v I I I I #
coedge $-1 $240 $241 $242 $243 forward $94 $-1 #
face $-1 $244 $245 $56 $-1 $246 reversed single #
loop $-1 $-1 $247 $96 #
plane-surface $-1 -14.227795122076788 -3.8412549715343403 43.338912477419441 0 0.81915205242281985 0.57357642473473569 1 0 0 forward_v I I I I #
coedge $-1 $248 $249 $250 $251 reversed $97 $-1 #
face $-1 $-1 $252 $57 $-1 $253 forward single #
loop $-1 $254 $255 $99 #
cone-surface $-1 -17.005352626915588 21.949807293660648 4.326148661249853 0 -0.81915205242281985 -0.57357642473473569 0.25 0 0 1 I I -0.70710678118654746 0.70710678118654746 0.25 forward I I I I #
loop $-1 $-1 $256 $75 #
coedge $-1 $160 $160 $257 $258 reversed $100 $-1 #
face $-1 $-1 $259 $58 $-1 $260 forward single #
loop $-1 $261 $262 $102 #
cone-surface $-1 -14.227795122076788 21.949807293660648 4.326148661249853 0 -0.81915205242281985 -0.57357642473473569 0.25 0 0 1 I I -0.70710678118654746 0.70710678118654746 0.25 forward I I I I #
loop $-1 $-1 $263 $76 #
coedge $-1 $165 $165 $264 $265 reversed $103 $-1 #
face $-1 $-1 $266 $59 $-1 $267 forward single #
loop $-1 $268 $269 $105 #
cone-surface $-1 -11.450237617237988 21.949807293660648 4.326148661249853 0 -0.81915205242281985 -0.57357642473473569 0.25 0 0 1 I I -0.70710678118654746 0.70710678118654746 0.25 forward I I I I #
loop $-1 $-1 $270 $77 #
coedge $-1 $170 $170 $271 $272 reversed $106 $-1 #
face $-1 $273 $274 $60 $-1 $275 reversed single #
loop $-1 $-1 $276 $108 #
plane-surface $-1 23.569235826232521 -3.8412549715343403 43.338912477419441 0 0.81915205242281985 0.57357642473473569 1 0 0 forward_v I I I I #
coedge $-1 $277 $278 $279 $280 reversed $109 $-1 #
face $-1 $-1 $281 $61 $-1 $282 forward single #
loop $-1 $283 $284 $111 #
cone-surface $-1 20.791678321393725 21.949807293660648 4.326148661249853 0 -0.81915205242281985 -0.57357642473473569 0.25 0 0 1 I I -0.70710678118654746 0.70710678118654746 0.25 forward I I I I #
loop $-1 $-1 $285 $79 #
coedge $-1 $179 $179 $286 $287 reversed $112 $-1 #
face $-1 $-1 $288 $62 $-1 $289 forward single #
loop $-1 $290 $291 $114 #
cone-surface $-1 23.569235826232521 21.949807293660648 4.326148661249853 0 -0.81915205242281985 -0.57357642473473569 0.25 0 0 1 I I -0.70710678118654746 0.70710678118654746 0.25 forward I I I I #
loop $-1 $-1 $292 $80 #
coedge $-1 $184 $184 $293 $294 reversed $115 $-1 #
face $-1 $-1 $295 $63 $-1 $296 forward single #
loop $-1 $297 $298 $117 #
cone-surface $-1 26.346793331071332 21.949807293660648 4.326148661249853 0 -0.81915205242281985 -0.57357642473473569 0.25 0 0 1 I I -0.70710678118654746 0.70710678118654746 0.25 forward I I I I #
loop $-1 $-1 $299 $81 #
coedge $-1 $189 $189 $300 $301 reversed $118 $-1 #
face $-1 $302 $303 $64 $-1 $304 reversed single #
loop $-1 $-1 $305 $120 #
plane-surface $-1 -14.227795122076788 -26.103843625068635 0.57287831422082292 0 -0.81915205242281985 0.57357642473473569 1 0 0 forward_v I I I I #
coedge $-1 $306 $307 $308 $309 reversed $121 $-1 #
face $-1 $-1 $310 $65 $-1 $311 forward single #
loop $-1 $312 $313 $123 #
cone-surface $-1 -17.005352626915588 -21.949807293660648 4.326148661249853 0 0.81915205242281985 -0.57357642473473569 0.25 0 0 1 I I -0.70710678118654746 0.70710678118654746 0.25 forward I I I I #
loop $-1 $-1 $314 $83 #
coedge $-1 $198 $198 $315 $316 reversed $124 $-1 #
face $-1 $-1 $317 $66 $-1 $318 forward single #
loop $-1 $319 $320 $126 #
cone-surface $-1 -14.227795122076788 -21.949807293660648 4.326148661249853 0 0.81915205242281985 -0.57357642473473569 0.25 0 0 1 I I -0.70710678118654746 0.70710678118654746 0.25 forward I I I I #
loop $-1 $-1 $321 $84 #
coedge $-1 $203 $203 $322 $323 reversed $127 $-1 #
face $-1 $-1 $324 $67 $-1 $325 forward single #
loop $-1 $326 $327 $129 #
cone-surface $-1 -11.450237617237988 -21.949807293660648 4.326148661249853 0 0.81915205242281985 -0.57357642473473569 0.25 0 0 1 I I -0.70710678118654746 0.70710678118654746 0.25 forward I I I I #
loop $-1 $-1 $328 $85 #
coedge $-1 $208 $208 $329 $330 reversed $130 $-1 #
face $-1 $331 $332 $68 $-1 $333 reversed single #
loop $-1 $-1 $334 $132 #
plane-surface $-1 23.569235826232521 -26.103843625068635 0.57287831422082292 0 -0.81915205242281985 0.57357642473473569 1 0 0 forward_v I I I I #
coedge $-1 $335 $336 $337 $338 reversed $133 $-1 #
face $-1 $-1 $339 $69 $-1 $340 forward single #
loop $-1 $341 $342 $135 #
cone-surface $-1 20.791678321393725 -21.949807293660648 4.326148661249853 0 0.81915205242281985 -0.57357642473473569 0.25 0 0 1 I I -0.70710678118654746 0.70710678118654746 0.25 forward I I I I #
loop $-1 $-1 $343 $87 #
coedge $-1 $217 $217 $344 $345 reversed $136 $-1 #
face $-1 $-1 $346 $70 $-1 $347 forward single #
loop $-1 $348 $349 $138 #
cone-surface $-1 23.569235826232521 -21.949807293660648 4.326148661249853 0 0.81915205242281985 -0.57357642473473569 0.25 0 0 1 I I -0.70710678118654746 0.70710678118654746 0.25 forward I I I I #
loop $-1 $-1 $350 $88 #
coedge $-1 $222 $222 $351 $352 reversed $139 $-1 #
face $-1 $-1 $353 $71 $-1 $354 forward single #
loop $-1 $355 $356 $141 #
cone-surface $-1 26.346793331071332 -21.949807293660648 4.326148661249853 0 0.81915205242281985 -0.57357642473473569 0.25 0 0 1 I I -0.70710678118654746 0.70710678118654746 0.25 forward I I I I #
loop $-1 $-1 $357 $89 #
coedge $-1 $227 $227 $358 $359 reversed $142 $-1 #
face $-1 $360 $361 $54 $-1 $362 reversed single #
loop $-1 $-1 $363 $144 #
plane-surface $-1 0 -26.103843625068635 0 0 1 0 0 0 1 forward_v I I I I #
coedge $-1 $364 $365 $366 $367 forward $145 $-1 #
coedge $-1 $368 $147 $369 $370 forward $91 $-1 #
coedge $-1 $147 $368 $371 $372 forward $91 $-1 #
coedge $-1 $373 $374 $147 $235 reversed $375 $-1 #
edge $-1 $376 -26.103843625068635 $377 26.103843625068635 $234 $378 forward 7 unknown #
face $-1 $379 $380 $55 $-1 $381 reversed single #
loop $-1 $-1 $382 $148 #
plane-surface $-1 -31.814649683111135 0 -1.0160621243211327 -1 0 0 0 0 1 forward_v I I I I #
coedge $-1 $383 $384 $385 $386 forward $149 $-1 #
coedge $-1 $387 $151 $388 $389 reversed $94 $-1 #
coedge $-1 $151 $387 $390 $391 reversed $94 $-1 #
coedge $-1 $382 $392 $151 $243 reversed $237 $-1 #
edge $-1 $393 -26.103843625068635 $394 26.103843625068635 $242 $395 forward 7 unknown #
face $-1 $396 $397 $56 $-1 $398 forward single #
loop $-1 $-1 $399 $152 #
plane-surface $-1 -9.5985326140121217 67.882735765584314 93.560589946243141 -1 0 0 0 0.81915205242281985 0.57357642473473569 forward_v I I I I #
coedge $-1 $400 $401 $402 $403 reversed $153 $-1 #
coedge $-1 $249 $155 $404 $405 reversed $97 $-1 #
coedge $-1 $155 $248 $400 $406 reversed $97 $-1 #
coedge $-1 $402 $407 $155 $251 forward $397 $-1 #
edge $-1 $408 7.8375242577235227 $409 14.097716789482451 $250 $410 forward 7 unknown #
loop $-1 $-1 $257 $156 #
plane-surface $-1 -14.227795122076788 -3.8412549715343403 43.338912477419441 0 0.81915205242281985 0.57357642473473569 1 0 0 forward_v I I I I #
loop $-1 $-1 $411 $99 #
coedge $-1 $255 $255 $256 $412 reversed $157 $-1 #
coedge $-1 $256 $256 $255 $412 forward $159 $-1 #
coedge $-1 $257 $257 $160 $258 forward $252 $-1 #
edge $-1 $413 0 $413 6.2831853071796004 $257 $414 forward 7 unknown #
loop $-1 $-1 $264 $161 #
plane-surface $-1 -14.227795122076788 -3.8412549715343403 43.338912477419441 0 0.81915205242281985 0.57357642473473569 1 0 0 forward_v I I I I #
loop $-1 $-1 $415 $102 #
coedge $-1 $262 $262 $263 $416 reversed $162 $-1 #
coedge $-1 $263 $263 $262 $416 forward $164 $-1 #
coedge $-1 $264 $264 $165 $265 forward $259 $-1 #
edge $-1 $417 0 $417 6.2831853071796004 $264 $418 forward 7 unknown #
loop $-1 $-1 $271 $166 #
plane-surface $-1 -14.227795122076788 -3.8412549715343403 43.338912477419441 0 0.81915205242281985 0.57357642473473569 1 0 0 forward_v I I I I #
loop $-1 $-1 $419 $105 #
coedge $-1 $269 $269 $270 $420 reversed $167 $-1 #
coedge $-1 $270 $270 $269 $420 forward $169 $-1 #
coedge $-1 $271 $271 $170 $272 forward $266 $-1 #
edge $-1 $421 0 $421 6.2831853071796004 $271 $422 forward 7 unknown #
face $-1 $423 $424 $60 $-1 $425 forward single #
loop $-1 $-1 $426 $171 #
plane-surface $-1 28.198498334297188 67.882735765584314 93.560589946243141 -1 0 0 0 0.81915205242281985 0.57357642473473569 forward_v I I I I #
coedge $-1 $427 $428 $429 $430 reversed $172 $-1 #
coedge $-1 $278 $174 $431 $432 reversed $109 $-1 #
coedge $-1 $174 $277 $427 $433 reversed $109 $-1 #
coedge $-1 $429 $434 $174 $280 forward $424 $-1 #
edge $-1 $435 7.8375242577235227 $436 14.097716789482451 $279 $437 forward 7 unknown #
loop $-1 $-1 $286 $175 #
plane-surface $-1 23.569235826232521 -3.8412549715343403 43.338912477419441 0 0.81915205242281985 0.57357642473473569 1 0 0 forward_v I I I I #
loop $-1 $-1 $438 $111 #
coedge $-1 $284 $284 $285 $439 reversed $176 $-1 #
coedge $-1 $285 $285 $284 $439 forward $178 $-1 #
coedge $-1 $286 $286 $179 $287 forward $281 $-1 #
edge $-1 $440 0 $440 6.2831853071796004 $286 $441 forward 7 unknown #
loop $-1 $-1 $293 $180 #
plane-surface $-1 23.569235826232521 -3.8412549715343403 43.338912477419441 0 0.81915205242281985 0.57357642473473569 1 0 0 forward_v I I I I #
loop $-1 $-1 $442 $114 #
coedge $-1 $291 $291 $292 $443 reversed $181 $-1 #
coedge $-1 $292 $292 $291 $443 forward $183 $-1 #
coedge $-1 $293 $293 $184 $294 forward $288 $-1 #
edge $-1 $444 0 $444 6.2831853071796004 $293 $445 forward 7 unknown #
loop $-1 $-1 $300 $185 #
plane-surface $-1 23.569235826232521 -3.8412549715343403 43.338912477419441 0 0.81915205242281985 0.57357642473473569 1 0 0 forward_v I I I I #
loop $-1 $-1 $446 $117 #
coedge $-1 $298 $298 $299 $447 reversed $186 $-1 #
coedge $-1 $299 $299 $298 $447 forward $188 $-1 #
coedge $-1 $300 $300 $189 $301 forward $295 $-1 #
edge $-1 $448 0 $448 6.2831853071796004 $300 $449 forward 7 unknown #
face $-1 $450 $451 $64 $-1 $452 reversed single #
loop $-1 $-1 $453 $190 #
plane-surface $-1 -18.857057630141455 -97.827834362187289 50.794555783044522 1 0 0 0 0.81915205242281985 -0.57357642473473569 forward_v I I I I #
coedge $-1 $454 $455 $456 $457 reversed $191 $-1 #
coedge $-1 $307 $193 $458 $459 reversed $121 $-1 #
coedge $-1 $193 $306 $454 $460 reversed $121 $-1 #
coedge $-1 $456 $461 $193 $309 forward $462 $-1 #
edge $-1 $463 22.81007355602501 $464 29.070266087783935 $308 $465 forward 7 unknown #
loop $-1 $-1 $315 $194 #
plane-surface $-1 -14.227795122076788 -26.103843625068635 0.57287831422082292 0 -0.81915205242281985 0.57357642473473569 1 0 0 forward_v I I I I #
loop $-1 $-1 $466 $123 #
coedge $-1 $313 $313 $314 $467 reversed $195 $-1 #
coedge $-1 $314 $314 $313 $467 forward $197 $-1 #
coedge $-1 $315 $315 $198 $316 forward $310 $-1 #
edge $-1 $468 -2.9102127016600575e-015 $468 6.2831853071795978 $315 $469 forward 7 unknown #
loop $-1 $-1 $322 $199 #
plane-surface $-1 -14.227795122076788 -26.103843625068635 0.57287831422082292 0 -0.81915205242281985 0.57357642473473569 1 0 0 forward_v I I I I #
loop $-1 $-1 $470 $126 #
coedge $-1 $320 $320 $321 $471 reversed $200 $-1 #
coedge $-1 $321 $321 $320 $471 forward $202 $-1 #
coedge $-1 $322 $322 $203 $323 forward $317 $-1 #
edge $-1 $472 -2.9102127016600575e-015 $472 6.2831853071795978 $322 $473 forward 7 unknown #
loop $-1 $-1 $329 $204 #
plane-surface $-1 -14.227795122076788 -26.103843625068635 0.57287831422082292 0 -0.81915205242281985 0.57357642473473569 1 0 0 forward_v I I I I #
loop $-1 $-1 $474 $129 #
coedge $-1 $327 $327 $328 $475 reversed $205 $-1 #
coedge $-1 $328 $328 $327 $475 forward $207 $-1 #
coedge $-1 $329 $329 $208 $330 forward $324 $-1 #
edge $-1 $476 -2.9102127016600575e-015 $476 6.2831853071795978 $329 $477 forward 7 unknown #
face $-1 $478 $479 $68 $-1 $480 reversed single #
loop $-1 $-1 $481 $209 #
plane-surface $-1 18.939973318167855 -97.827834362187289 50.794555783044522 1 0 0 0 0.81915205242281985 -0.57357642473473569 forward_v I I I I #
coedge $-1 $482 $483 $484 $485 reversed $210 $-1 #
coedge $-1 $336 $212 $486 $487 reversed $133 $-1 #
coedge $-1 $212 $335 $482 $488 reversed $133 $-1 #
coedge $-1 $484 $489 $212 $338 forward $490 $-1 #
edge $-1 $491 22.81007355602501 $492 29.070266087783935 $337 $493 forward 7 unknown #
loop $-1 $-1 $344 $213 #
plane-surface $-1 23.569235826232521 -26.103843625068635 0.57287831422082292 0 -0.81915205242281985 0.57357642473473569 1 0 0 forward_v I I I I #
loop $-1 $-1 $494 $135 #
coedge $-1 $342 $342 $343 $495 reversed $214 $-1 #
coedge $-1 $343 $343 $342 $495 forward $216 $-1 #
coedge $-1 $344 $344 $217 $345 forward $339 $-1 #
edge $-1 $496 -2.9102127016600575e-015 $496 6.2831853071795978 $344 $497 forward 7 unknown #
loop $-1 $-1 $351 $218 #
plane-surface $-1 23.569235826232521 -26.103843625068635 0.57287831422082292 0 -0.81915205242281985 0.57357642473473569 1 0 0 forward_v I I I I #
loop $-1 $-1 $498 $138 #
coedge $-1 $349 $349 $350 $499 reversed $219 $-1 #
coedge $-1 $350 $350 $349 $499 forward $221 $-1 #
coedge $-1 $351 $351 $222 $352 forward $346 $-1 #
edge $-1 $500 -2.9102127016600575e-015 $500 6.2831853071795978 $351 $501 forward 7 unknown #
loop $-1 $-1 $358 $223 #
plane-surface $-1 23.569235826232521 -26.103843625068635 0.57287831422082292 0 -0.81915205242281985 0.57357642473473569 1 0 0 forward_v I I I I #
loop $-1 $-1 $502 $141 #
coedge $-1 $356 $356 $357 $503 reversed $224 $-1 #
coedge $-1 $357 $357 $356 $503 forward $226 $-1 #
coedge $-1 $358 $358 $227 $359 forward $353 $-1 #
edge $-1 $504 -2.9102127016600575e-015 $504 6.2831853071795978 $358 $505 forward 7 unknown #
face $-1 $506 $507 $54 $-1 $508 reversed single #
loop $-1 $-1 $509 $228 #
plane-surface $-1 -43.779412213507491 0 0 1 0 0 0 0 -1 forward_v I I I I #
coedge $-1 $510 $371 $511 $512 forward $229 $-1 #
coedge $-1 $513 $231 $510 $514 forward $145 $-1 #
coedge $-1 $231 $513 $515 $516 forward $145 $-1 #
coedge $-1 $374 $373 $231 $367 reversed $375 $-1 #
edge $-1 $517 -26.103843625068635 $518 26.103843625068635 $366 $519 forward 7 unknown #
coedge $-1 $233 $232 $520 $521 forward $91 $-1 #
coedge $-1 $522 $523 $232 $370 reversed $507 $-1 #
edge $-1 $377 -43.779412213507491 $524 43.779412213507491 $369 $525 forward 7 unknown #
coedge $-1 $363 $526 $233 $372 reversed $229 $-1 #
edge $-1 $527 -43.779412213507491 $376 43.779412213507491 $371 $528 forward 7 unknown #
coedge $-1 $366 $234 $526 $529 forward $375 $-1 #
coedge $-1 $234 $366 $522 $530 reversed $375 $-1 #
loop $-1 $-1 $373 $506 #
vertex $-1 $235 $531 #
vertex $-1 $235 $532 #
straight-curve $-1 43.779412213507491 0 9.5133600701157306 0 1 0 I I #
face $-1 $533 $534 $55 $-1 $535 reversed single #
loop $-1 $-1 $536 $236 #
plane-surface $-1 0 -26.103843625068635 0 0 1 0 0 0 1 forward_v I I I I #
coedge $-1 $385 $242 $537 $538 reversed $237 $-1 #
coedge $-1 $539 $239 $536 $540 reversed $149 $-1 #
coedge $-1 $239 $539 $541 $542 reversed $149 $-1 #
coedge $-1 $392 $382 $239 $386 reversed $237 $-1 #
edge $-1 $543 -26.103843625068635 $544 26.103843625068635 $385 $545 forward 7 unknown #
coedge $-1 $241 $240 $546 $547 reversed $94 $-1 #
coedge $-1 $548 $549 $240 $389 forward $550 $-1 #
edge $-1 $551 -24.880896739352835 $394 -12.916134208956478 $388 $552 forward 7 unknown #
coedge $-1 $553 $537 $241 $391 forward $380 $-1 #
edge $-1 $393 12.916134208956478 $554 24.880896739352835 $390 $555 forward 7 unknown #
coedge $-1 $242 $385 $548 $556 reversed $237 $-1 #
vertex $-1 $391 $557 #
vertex $-1 $389 $558 #
straight-curve $-1 -31.814649683111135 0 0.96317085196555619 0 1 0 I I #
face $-1 $-1 $559 $56 $-1 $560 reversed single #
loop $-1 $-1 $250 $244 #
plane-surface $-1 0 0 9.5133600701157306 0 0 1 1 0 0 forward_v I I I I #
coedge $-1 $561 $562 $563 $564 reversed $245 $-1 #
coedge $-1 $565 $247 $249 $406 forward $153 $-1 #
coedge $-1 $247 $565 $561 $566 forward $153 $-1 #
coedge $-1 $563 $250 $247 $403 forward $397 $-1 #
edge $-1 $409 -11.743160069103061 $567 -2.4846350529737276 $402 $568 forward 7 unknown #
coedge $-1 $569 $570 $248 $405 forward $559 $-1 #
edge $-1 $571 -46.207416658900755 $408 -37.26693490300584 $404 $572 forward 7 unknown #
edge $-1 $409 41.293374419629799 $571 52.207687250137269 $249 $573 forward 7 unknown #
coedge $-1 $250 $563 $569 $574 forward $397 $-1 #
vertex $-1 $405 $575 #
vertex $-1 $251 $576 #
straight-curve $-1 -18.857057630141455 33.941367882792157 9.5133600701157306 0 -1 0 I I #
coedge $-1 $411 $411 $-1 $577 reversed $254 $-1 #
edge $-1 $578 0 $578 6.2831853071796004 $255 $579 forward 7 unknown #
vertex $-1 $258 $580 #
ellipse-curve $-1 -17.005352626915588 22.973747359189172 5.0431191921682723 0 0.81915205242281985 0.57357642473473569 0.5 0 0 1 I I #
coedge $-1 $415 $415 $-1 $581 reversed $261 $-1 #
edge $-1 $582 0 $582 6.2831853071796004 $262 $583 forward 7 unknown #
vertex $-1 $265 $584 #
ellipse-curve $-1 -14.227795122076788 22.973747359189172 5.0431191921682723 0 0.81915205242281985 0.57357642473473569 0.5 0 0 1 I I #
coedge $-1 $419 $419 $-1 $585 reversed $268 $-1 #
edge $-1 $586 0 $586 6.2831853071796004 $269 $587 forward 7 unknown #
vertex $-1 $272 $588 #
ellipse-curve $-1 -11.450237617237988 22.973747359189172 5.0431191921682723 0 0.81915205242281985 0.57357642473473569 0.5 0 0 1 I I #
face $-1 $-1 $589 $60 $-1 $590 reversed single #
loop $-1 $-1 $279 $273 #
plane-surface $-1 0 0 9.5133600701157306 0 0 1 1 0 0 forward_v I I I I #
coedge $-1 $591 $592 $593 $594 reversed $274 $-1 #
coedge $-1 $595 $276 $278 $433 forward $172 $-1 #
coedge $-1 $276 $595 $591 $596 forward $172 $-1 #
coedge $-1 $593 $279 $276 $430 forward $424 $-1 #
edge $-1 $436 7.1553554050515942 $597 16.413880421180927 $429 $598 forward 7 unknown #
coedge $-1 $599 $600 $277 $432 forward $589 $-1 #
edge $-1 $601 -46.207416658900755 $435 -37.26693490300584 $431 $602 forward 7 unknown #
edge $-1 $436 41.293374419629799 $601 52.207687250137269 $278 $603 forward 7 unknown #
coedge $-1 $279 $593 $599 $604 forward $424 $-1 #
vertex $-1 $280 $605 #
vertex $-1 $280 $606 #
straight-curve $-1 18.939973318167855 33.941367882792157 9.5133600701157306 0 -1 0 I I #
coedge $-1 $438 $438 $-1 $607 reversed $283 $-1 #
edge $-1 $608 0 $608 6.2831853071796004 $284 $609 forward 7 unknown #
vertex $-1 $287 $610 #
ellipse-curve $-1 20.791678321393725 22.973747359189172 5.0431191921682723 0 0.81915205242281985 0.57357642473473569 0.5 0 0 1 I I #
coedge $-1 $442 $442 $-1 $611 reversed $290 $-1 #
edge $-1 $612 0 $612 6.2831853071796004 $291 $613 forward 7 unknown #
vertex $-1 $294 $614 #
ellipse-curve $-1 23.569235826232521 22.973747359189172 5.0431191921682723 0 0.81915205242281985 0.57357642473473569 0.5 0 0 1 I I #
coedge $-1 $446 $446 $-1 $615 reversed $297 $-1 #
edge $-1 $616 0 $616 6.2831853071796004 $298 $617 forward 7 unknown #
vertex $-1 $301 $618 #
ellipse-curve $-1 26.346793331071332 22.973747359189172 5.0431191921682723 0 0.81915205242281985 0.57357642473473569 0.5 0 0 1 I I #
face $-1 $-1 $462 $64 $-1 $619 forward single #
loop $-1 $-1 $620 $302 #
plane-surface $-1 0 -26.103843625068635 0 0 1 0 0 0 1 forward_v I I I I #
coedge $-1 $621 $622 $623 $624 reversed $303 $-1 #
coedge $-1 $625 $305 $307 $460 forward $191 $-1 #
coedge $-1 $305 $625 $621 $626 forward $191 $-1 #
coedge $-1 $623 $308 $305 $457 forward $462 $-1 #
edge $-1 $464 2.4846350529737276 $627 11.743160069103061 $456 $628 forward 7 unknown #
coedge $-1 $629 $630 $306 $459 forward $451 $-1 #
edge $-1 $631 -24.824399577301438 $463 -15.883917821406531 $458 $632 forward 7 unknown #
edge $-1 $464 -10.914312830507468 $631 0 $307 $633 forward 7 unknown #
coedge $-1 $308 $623 $629 $634 forward $462 $-1 #
loop $-1 $-1 $623 $450 #
vertex $-1 $459 $635 #
vertex $-1 $309 $636 #
straight-curve $-1 -9.5985326140121217 -48.913917181093645 9.5133600701157306 0 1 0 I I #
coedge $-1 $466 $466 $-1 $637 reversed $312 $-1 #
edge $-1 $638 0 $638 6.2831853071796004 $313 $639 forward 7 unknown #
vertex $-1 $316 $640 #
ellipse-curve $-1 -17.005352626915588 -22.973747359189172 5.0431191921682741 0 -0.81915205242281985 0.57357642473473569 0.5 0 0 1 I I #
coedge $-1 $470 $470 $-1 $641 reversed $319 $-1 #
edge $-1 $642 0 $642 6.2831853071796004 $320 $643 forward 7 unknown #
vertex $-1 $323 $644 #
ellipse-curve $-1 -14.227795122076788 -22.973747359189172 5.0431191921682741 0 -0.81915205242281985 0.57357642473473569 0.5 0 0 1 I I #
coedge $-1 $474 $474 $-1 $645 reversed $326 $-1 #
edge $-1 $646 0 $646 6.2831853071796004 $327 $647 forward 7 unknown #
vertex $-1 $330 $648 #
ellipse-curve $-1 -11.450237617237988 -22.973747359189172 5.0431191921682741 0 -0.81915205242281985 0.57357642473473569 0.5 0 0 1 I I #
face $-1 $-1 $490 $68 $-1 $649 forward single #
loop $-1 $-1 $650 $331 #
plane-surface $-1 0 -26.103843625068635 0 0 1 0 0 0 1 forward_v I I I I #
coedge $-1 $651 $652 $653 $654 reversed $332 $-1 #
coedge $-1 $655 $334 $336 $488 forward $210 $-1 #
coedge $-1 $334 $655 $651 $656 forward $210 $-1 #
coedge $-1 $653 $337 $334 $485 forward $490 $-1 #
edge $-1 $492 -16.413880421180927 $657 -7.1553554050515942 $484 $658 forward 7 unknown #
coedge $-1 $659 $660 $335 $487 forward $479 $-1 #
edge $-1 $661 -24.824399577301438 $491 -15.883917821406531 $486 $662 forward 7 unknown #
edge $-1 $492 -10.914312830507468 $661 0 $336 $663 forward 7 unknown #
coedge $-1 $337 $653 $659 $664 forward $490 $-1 #
loop $-1 $-1 $653 $478 #
vertex $-1 $487 $665 #
vertex $-1 $338 $666 #
straight-curve $-1 28.198498334297188 -48.913917181093645 9.5133600701157306 0 1 0 I I #
coedge $-1 $494 $494 $-1 $667 reversed $341 $-1 #
edge $-1 $668 0 $668 6.2831853071796004 $342 $669 forward 7 unknown #
vertex $-1 $345 $670 #
ellipse-curve $-1 20.791678321393725 -22.973747359189172 5.0431191921682741 0 -0.81915205242281985 0.57357642473473569 0.5 0 0 1 I I #
coedge $-1 $498 $498 $-1 $671 reversed $348 $-1 #
edge $-1 $672 0 $672 6.2831853071796004 $349 $673 forward 7 unknown #
vertex $-1 $352 $674 #
ellipse-curve $-1 23.569235826232521 -22.973747359189172 5.0431191921682741 0 -0.81915205242281985 0.57357642473473569 0.5 0 0 1 I I #
coedge $-1 $502 $502 $-1 $675 reversed $355 $-1 #
edge $-1 $676 0 $676 6.2831853071796004 $356 $677 forward 7 unknown #
vertex $-1 $359 $678 #
ellipse-curve $-1 26.346793331071332 -22.973747359189172 5.0431191921682741 0 -0.81915205242281985 0.57357642473473569 0.5 0 0 1 I I #
face $-1 $-1 $375 $54 $-1 $679 reversed single #
loop $-1 $-1 $522 $360 #
plane-surface $-1 0 26.103843625068635 0 0 -1 0 0 0 -1 forward_v I I I I #
coedge $-1 $680 $520 $523 $681 forward $361 $-1 #
coedge $-1 $526 $363 $364 $514 reversed $229 $-1 #
coedge $-1 $520 $680 $363 $512 reversed $361 $-1 #
edge $-1 $527 -9.5133600701157306 $682 9.5133600701157306 $511 $683 forward 7 unknown #
coedge $-1 $365 $364 $680 $684 forward $145 $-1 #
edge $-1 $518 -43.779412213507491 $682 43.779412213507491 $510 $685 forward 7 unknown #
coedge $-1 $523 $522 $365 $516 reversed $507 $-1 #
edge $-1 $686 -43.779412213507491 $517 43.779412213507491 $515 $687 forward 7 unknown #
vertex $-1 $367 $688 #
vertex $-1 $529 $689 #
straight-curve $-1 43.779412213507491 0 -9.5133600701157306 0 -1 0 I I #
coedge $-1 $509 $511 $368 $521 reversed $361 $-1 #
edge $-1 $524 -26.103843625068635 $527 26.103843625068635 $520 $690 forward 7 unknown #
coedge $-1 $515 $369 $374 $530 forward $507 $-1 #
coedge $-1 $369 $515 $509 $681 reversed $507 $-1 #
vertex $-1 $370 $691 #
straight-curve $-1 0 26.103843625068635 9.5133600701157306 -1 0 0 I I #
coedge $-1 $371 $510 $373 $529 reversed $229 $-1 #
vertex $-1 $521 $692 #
straight-curve $-1 0 -26.103843625068635 9.5133600701157306 1 0 0 I I #
edge $-1 $376 -9.5133600701157306 $518 9.5133600701157306 $373 $693 forward 7 unknown #
edge $-1 $377 -9.5133600701157306 $517 9.5133600701157306 $374 $694 forward 7 unknown #
point $-1 43.779412213507491 -26.103843625068635 9.5133600701157306 #
point $-1 43.779412213507491 26.103843625068635 9.5133600701157306 #
face $-1 $-1 $550 $55 $-1 $695 reversed single #
loop $-1 $-1 $696 $379 #
plane-surface $-1 -43.779412213507491 0 0 1 0 0 0 0 -1 forward_v I I I I #
coedge $-1 $537 $553 $383 $540 forward $380 $-1 #
coedge $-1 $390 $536 $382 $538 forward $380 $-1 #
edge $-1 $544 -2.4872640384472553 $393 1.4712019141261226 $537 $697 forward 7 unknown #
coedge $-1 $384 $383 $696 $698 reversed $149 $-1 #
edge $-1 $699 -24.880896739352835 $544 -12.916134208956478 $536 $700 forward 7 unknown #
coedge $-1 $549 $548 $384 $542 forward $550 $-1 #
edge $-1 $543 12.916134208956478 $701 24.880896739352835 $541 $702 forward 7 unknown #
vertex $-1 $542 $703 #
vertex $-1 $540 $704 #
straight-curve $-1 -31.814649683111135 0 -2.9952951006078217 0 -1 0 I I #
coedge $-1 $705 $706 $387 $547 forward $534 $-1 #
edge $-1 $554 -26.103843625068635 $551 26.103843625068635 $546 $707 forward 7 unknown #
coedge $-1 $541 $388 $392 $556 forward $550 $-1 #
coedge $-1 $388 $541 $705 $708 reversed $550 $-1 #
loop $-1 $-1 $541 $533 #
vertex $-1 $708 $709 #
straight-curve $-1 -18.898515474154657 26.103843625068635 0.96317085196555619 1 0 0 I I #
coedge $-1 $536 $390 $706 $710 forward $380 $-1 #
vertex $-1 $710 $711 #
straight-curve $-1 -18.898515474154657 -26.103843625068635 0.96317085196555619 -1 0 0 I I #
edge $-1 $394 -1.4712019141261226 $543 2.4872640384472553 $548 $712 forward 7 unknown #
point $-1 -31.814649683111135 -26.103843625068635 0.96317085196555619 #
point $-1 -31.814649683111135 26.103843625068635 0.96317085196555619 #
loop $-1 $-1 $404 $396 #
plane-surface $-1 0 26.103843625068635 0 0 -1 0 0 0 -1 forward_v I I I I #
coedge $-1 $562 $399 $401 $566 reversed $245 $-1 #
coedge $-1 $399 $561 $713 $714 reversed $245 $-1 #
coedge $-1 $407 $402 $399 $564 forward $397 $-1 #
edge $-1 $567 -14.097716789482451 $715 -7.8375242577235227 $563 $716 forward 7 unknown #
coedge $-1 $401 $400 $570 $717 reversed $153 $-1 #
edge $-1 $718 -52.207687250137269 $567 -41.293374419629799 $561 $719 forward 7 unknown #
vertex $-1 $403 $720 #
straight-curve $-1 -7.1138975610383941 19.843651093309703 9.5133600701157341 1 0 0 I I #
coedge $-1 $713 $404 $407 $574 reversed $559 $-1 #
coedge $-1 $404 $713 $565 $717 forward $559 $-1 #
vertex $-1 $405 $721 #
straight-curve $-1 -18.857057630141455 26.103843625068635 46.78029497312157 0 0 1 I I #
straight-curve $-1 -18.857057630141455 -3.8412549715343403 43.338912477419441 0 0.57357642473473569 -0.81915205242281985 I I #
edge $-1 $715 9.5985326140121217 $408 18.857057630141455 $569 $722 forward 7 unknown #
point $-1 -18.857057630141455 26.103843625068635 9.5133600701157306 #
point $-1 -18.857057630141455 19.843651093309706 9.5133600701157306 #
edge $-1 $723 1 $723 0 $411 $-1 forward 7 unknown #
vertex $-1 $412 $724 #
ellipse-curve $-1 -17.005352626915588 22.154595306766353 4.4695427674335368 0 0.81915205242281985 0.57357642473473569 0.5 0 0 1 I I #
point $-1 -16.505352626915588 22.973747359189172 5.0431191921682723 #
edge $-1 $725 1 $725 0 $415 $-1 forward 7 unknown #
vertex $-1 $416 $726 #
ellipse-curve $-1 -14.227795122076788 22.154595306766353 4.4695427674335368 0 0.81915205242281985 0.57357642473473569 0.5 0 0 1 I I #
point $-1 -13.727795122076788 22.973747359189172 5.0431191921682723 #
edge $-1 $727 1 $727 0 $419 $-1 forward 7 unknown #
vertex $-1 $420 $728 #
ellipse-curve $-1 -11.450237617237988 22.154595306766353 4.4695427674335368 0 0.81915205242281985 0.57357642473473569 0.5 0 0 1 I I #
point $-1 -10.950237617237988 22.973747359189172 5.0431191921682723 #
loop $-1 $-1 $431 $423 #
plane-surface $-1 0 26.103843625068635 0 0 -1 0 0 0 -1 forward_v I I I I #
coedge $-1 $592 $426 $428 $596 reversed $274 $-1 #
coedge $-1 $426 $591 $729 $730 reversed $274 $-1 #
coedge $-1 $434 $429 $426 $594 forward $424 $-1 #
edge $-1 $597 -14.097716789482451 $731 -7.8375242577235227 $593 $732 forward 7 unknown #
coedge $-1 $428 $427 $600 $733 reversed $172 $-1 #
edge $-1 $734 -52.207687250137269 $597 -41.293374419629799 $591 $735 forward 7 unknown #
vertex $-1 $430 $736 #
straight-curve $-1 11.784617913116261 19.843651093309703 9.5133600701157341 1 0 0 I I #
coedge $-1 $729 $431 $434 $604 reversed $589 $-1 #
coedge $-1 $431 $729 $595 $733 forward $589 $-1 #
vertex $-1 $432 $737 #
straight-curve $-1 18.939973318167855 26.103843625068635 46.78029497312157 0 0 1 I I #
straight-curve $-1 18.939973318167855 -3.8412549715343403 43.338912477419441 0 0.57357642473473569 -0.81915205242281985 I I #
edge $-1 $731 -28.198498334297188 $435 -18.939973318167855 $599 $738 forward 7 unknown #
point $-1 18.939973318167855 26.103843625068635 9.5133600701157306 #
point $-1 18.939973318167855 19.843651093309706 9.5133600701157306 #
edge $-1 $739 1 $739 0 $438 $-1 forward 7 unknown #
vertex $-1 $439 $740 #
ellipse-curve $-1 20.791678321393725 22.154595306766353 4.4695427674335368 0 0.81915205242281985 0.57357642473473569 0.5 0 0 1 I I #
point $-1 21.291678321393725 22.973747359189172 5.0431191921682723 #
edge $-1 $741 1 $741 0 $442 $-1 forward 7 unknown #
vertex $-1 $443 $742 #
ellipse-curve $-1 23.569235826232521 22.154595306766353 4.4695427674335368 0 0.81915205242281985 0.57357642473473569 0.5 0 0 1 I I #
point $-1 24.069235826232521 22.973747359189172 5.0431191921682723 #
edge $-1 $743 1 $743 0 $446 $-1 forward 7 unknown #
vertex $-1 $447 $744 #
ellipse-curve $-1 26.346793331071332 22.154595306766353 4.4695427674335368 0 0.81915205242281985 0.57357642473473569 0.5 0 0 1 I I #
point $-1 26.846793331071332 22.973747359189172 5.0431191921682723 #
plane-surface $-1 0 0 9.5133600701157306 0 0 1 1 0 0 forward_v I I I I #
coedge $-1 $630 $629 $622 $745 forward $451 $-1 #
coedge $-1 $622 $453 $455 $626 reversed $303 $-1 #
coedge $-1 $453 $621 $620 $745 reversed $303 $-1 #
coedge $-1 $461 $456 $453 $624 forward $462 $-1 #
edge $-1 $627 -29.070266087783935 $746 -22.81007355602501 $623 $747 forward 7 unknown #
coedge $-1 $455 $454 $630 $748 reversed $191 $-1 #
edge $-1 $749 0 $627 10.914312830507468 $621 $750 forward 7 unknown #
vertex $-1 $457 $751 #
straight-curve $-1 -7.1138975610383941 -19.843651093309706 9.5133600701157306 -1 0 0 I I #
coedge $-1 $620 $458 $461 $634 reversed $451 $-1 #
coedge $-1 $458 $620 $625 $748 forward $451 $-1 #
vertex $-1 $459 $752 #
straight-curve $-1 -9.5985326140121217 -26.103843625068635 25.397277891522261 0 0 1 I I #
straight-curve $-1 -9.5985326140121217 -26.103843625068635 0.57287831422082292 0 -0.57357642473473569 -0.81915205242281985 I I #
edge $-1 $746 -18.857057630141455 $463 -9.5985326140121217 $629 $753 forward 7 unknown #
point $-1 -9.5985326140121217 -26.103843625068635 9.5133600701157306 #
point $-1 -9.5985326140121217 -19.84365109330971 9.5133600701157306 #
edge $-1 $754 1 $754 0 $466 $-1 forward 7 unknown #
vertex $-1 $467 $755 #
ellipse-curve $-1 -17.005352626915588 -22.154595306766353 4.4695427674335368 0 -0.81915205242281985 0.57357642473473569 0.5 0 0 1 I I #
point $-1 -16.505352626915588 -22.973747359189172 5.0431191921682723 #
edge $-1 $756 1 $756 0 $470 $-1 forward 7 unknown #
vertex $-1 $471 $757 #
ellipse-curve $-1 -14.227795122076788 -22.154595306766353 4.4695427674335368 0 -0.81915205242281985 0.57357642473473569 0.5 0 0 1 I I #
point $-1 -13.727795122076788 -22.973747359189172 5.0431191921682723 #
edge $-1 $758 1 $758 0 $474 $-1 forward 7 unknown #
vertex $-1 $475 $759 #
ellipse-curve $-1 -11.450237617237988 -22.154595306766353 4.4695427674335368 0 -0.81915205242281985 0.57357642473473569 0.5 0 0 1 I I #
point $-1 -10.950237617237988 -22.973747359189172 5.0431191921682723 #
plane-surface $-1 0 0 9.5133600701157306 0 0 1 1 0 0 forward_v I I I I #
coedge $-1 $660 $659 $652 $760 forward $479 $-1 #
coedge $-1 $652 $481 $483 $656 reversed $332 $-1 #
coedge $-1 $481 $651 $650 $760 reversed $332 $-1 #
coedge $-1 $489 $484 $481 $654 forward $490 $-1 #
edge $-1 $657 -29.070266087783935 $761 -22.81007355602501 $653 $762 forward 7 unknown #
coedge $-1 $483 $482 $660 $763 reversed $210 $-1 #
edge $-1 $764 0 $657 10.914312830507468 $651 $765 forward 7 unknown #
vertex $-1 $485 $766 #
straight-curve $-1 11.784617913116261 -19.843651093309706 9.5133600701157306 -1 0 0 I I #
coedge $-1 $650 $486 $489 $664 reversed $479 $-1 #
coedge $-1 $486 $650 $655 $763 forward $479 $-1 #
vertex $-1 $487 $767 #
straight-curve $-1 28.198498334297188 -26.103843625068635 25.397277891522261 0 0 1 I I #
straight-curve $-1 28.198498334297188 -26.103843625068635 0.57287831422082292 0 -0.57357642473473569 -0.81915205242281985 I I #
edge $-1 $761 18.939973318167855 $491 28.198498334297188 $659 $768 forward 7 unknown #
point $-1 28.198498334297188 -26.103843625068635 9.5133600701157306 #
point $-1 28.198498334297188 -19.84365109330971 9.5133600701157306 #
edge $-1 $769 1 $769 0 $494 $-1 forward 7 unknown #
vertex $-1 $495 $770 #
ellipse-curve $-1 20.791678321393725 -22.154595306766353 4.4695427674335368 0 -0.81915205242281985 0.57357642473473569 0.5 0 0 1 I I #
point $-1 21.291678321393725 -22.973747359189172 5.0431191921682723 #
edge $-1 $771 1 $771 0 $498 $-1 forward 7 unknown #
vertex $-1 $499 $772 #
ellipse-curve $-1 23.569235826232521 -22.154595306766353 4.4695427674335368 0 -0.81915205242281985 0.57357642473473569 0.5 0 0 1 I I #
point $-1 24.069235826232521 -22.973747359189172 5.0431191921682723 #
edge $-1 $773 1 $773 0 $502 $-1 forward 7 unknown #
vertex $-1 $503 $774 #
ellipse-curve $-1 26.346793331071332 -22.154595306766353 4.4695427674335368 0 -0.81915205242281985 0.57357642473473569 0.5 0 0 1 I I #
point $-1 26.846793331071332 -22.973747359189172 5.0431191921682723 #
plane-surface $-1 43.779412213507491 0 0 -1 0 0 0 0 1 forward_v I I I I #
coedge $-1 $511 $509 $513 $684 reversed $361 $-1 #
edge $-1 $524 -9.5133600701157306 $686 9.5133600701157306 $523 $775 forward 7 unknown #
vertex $-1 $684 $776 #
straight-curve $-1 -43.779412213507491 -26.103843625068635 0 0 0 -1 I I #
edge $-1 $682 -26.103843625068635 $686 26.103843625068635 $680 $777 forward 7 unknown #
straight-curve $-1 0 -26.103843625068635 -9.5133600701157306 -1 0 0 I I #
vertex $-1 $516 $778 #
straight-curve $-1 0 26.103843625068635 -9.5133600701157306 1 0 0 I I #
point $-1 43.779412213507491 26.103843625068635 -9.5133600701157306 #
point $-1 43.779412213507491 -26.103843625068635 -9.5133600701157306 #
straight-curve $-1 -43.779412213507491 0 9.5133600701157306 0 -1 0 I I #
point $-1 -43.779412213507491 26.103843625068635 9.5133600701157306 #
point $-1 -43.779412213507491 -26.103843625068635 9.5133600701157306 #
straight-curve $-1 43.779412213507491 -26.103843625068635 0 0 0 -1 I I #
straight-curve $-1 43.779412213507491 26.103843625068635 0 0 0 -1 I I #
plane-surface $-1 0 26.103843625068635 0 0 -1 0 0 0 -1 forward_v I I I I #
coedge $-1 $706 $705 $539 $698 forward $534 $-1 #
straight-curve $-1 -31.814649683111135 -26.103843625068635 -0.50803106216056637 0 0 1 I I #
edge $-1 $701 -26.103843625068635 $699 26.103843625068635 $696 $779 forward 7 unknown #
vertex $-1 $540 $780 #
straight-curve $-1 -18.898515474154657 -26.103843625068635 -2.9952951006078217 1 0 0 I I #
vertex $-1 $542 $781 #
straight-curve $-1 -18.898515474154657 26.103843625068635 -2.9952951006078217 -1 0 0 I I #
point $-1 -31.814649683111135 26.103843625068635 -2.9952951006078217 #
point $-1 -31.814649683111135 -26.103843625068635 -2.9952951006078217 #
coedge $-1 $696 $546 $549 $708 forward $534 $-1 #
coedge $-1 $546 $696 $553 $710 reversed $534 $-1 #
straight-curve $-1 -43.779412213507491 0 0.96317085196555619 0 1 0 I I #
edge $-1 $551 -0.96317085196555619 $701 2.9952951006078217 $549 $782 forward 7 unknown #
point $-1 -43.779412213507491 26.103843625068635 0.96317085196555619 #
edge $-1 $554 -0.96317085196555619 $699 2.9952951006078217 $706 $783 forward 7 unknown #
point $-1 -43.779412213507491 -26.103843625068635 0.96317085196555619 #
straight-curve $-1 -31.814649683111135 26.103843625068635 -0.50803106216056637 0 0 -1 I I #
coedge $-1 $570 $569 $562 $714 forward $559 $-1 #
edge $-1 $715 37.26693490300584 $718 46.207416658900755 $713 $784 forward 7 unknown #
vertex $-1 $574 $785 #
straight-curve $-1 -9.5985326140121217 33.941367882792157 9.5133600701157306 0 1 0 I I #
edge $-1 $718 2.4846350529737276 $571 11.743160069103061 $570 $786 forward 7 unknown #
vertex $-1 $717 $787 #
straight-curve $-1 -9.5985326140121217 -3.8412549715343403 43.338912477419441 0 -0.57357642473473569 0.81915205242281985 I I #
point $-1 -9.5985326140121217 19.843651093309706 9.5133600701157306 #
point $-1 -18.857057630141455 26.103843625068635 0.57287831422081581 #
straight-curve $-1 0 26.103843625068635 9.5133600701157306 -1 0 0 I I #
vertex $-1 $577 $788 #
point $-1 -16.505352626915588 22.154595306766353 4.4695427674335368 #
vertex $-1 $581 $789 #
point $-1 -13.727795122076788 22.154595306766353 4.4695427674335368 #
vertex $-1 $585 $790 #
point $-1 -10.950237617237988 22.154595306766353 4.4695427674335368 #
coedge $-1 $600 $599 $592 $730 forward $589 $-1 #
edge $-1 $731 37.26693490300584 $734 46.207416658900755 $729 $791 forward 7 unknown #
vertex $-1 $604 $792 #
straight-curve $-1 28.198498334297188 33.941367882792157 9.5133600701157306 0 1 0 I I #
edge $-1 $734 -16.413880421180927 $601 -7.1553554050515942 $600 $793 forward 7 unknown #
vertex $-1 $733 $794 #
straight-curve $-1 28.198498334297188 -3.8412549715343403 43.338912477419441 0 -0.57357642473473569 0.81915205242281985 I I #
point $-1 28.198498334297188 19.843651093309706 9.5133600701157306 #
point $-1 18.939973318167855 26.103843625068635 0.57287831422081581 #
straight-curve $-1 0 26.103843625068635 9.5133600701157306 -1 0 0 I I #
vertex $-1 $607 $795 #
point $-1 21.291678321393725 22.154595306766353 4.4695427674335368 #
vertex $-1 $611 $796 #
point $-1 24.069235826232521 22.154595306766353 4.4695427674335368 #
vertex $-1 $615 $797 #
point $-1 26.846793331071332 22.154595306766353 4.4695427674335368 #
edge $-1 $746 15.883917821406531 $749 24.824399577301438 $620 $798 forward 7 unknown #
vertex $-1 $634 $799 #
straight-curve $-1 -18.857057630141455 -48.913917181093645 9.5133600701157306 0 -1 0 I I #
edge $-1 $749 -11.743160069103061 $631 -2.4846350529737276 $630 $800 forward 7 unknown #
vertex $-1 $748 $801 #
straight-curve $-1 -18.857057630141455 -26.103843625068635 0.57287831422082292 0 0.57357642473473569 0.81915205242281985 I I #
point $-1 -18.857057630141455 -19.84365109330971 9.5133600701157306 #
point $-1 -9.5985326140121217 -26.103843625068635 0.57287831422082292 #
straight-curve $-1 0 -26.103843625068635 9.5133600701157306 1 0 0 I I #
vertex $-1 $637 $802 #
point $-1 -16.505352626915588 -22.154595306766353 4.4695427674335368 #
vertex $-1 $641 $803 #
point $-1 -13.727795122076788 -22.154595306766353 4.4695427674335368 #
vertex $-1 $645 $804 #
point $-1 -10.950237617237988 -22.154595306766353 4.4695427674335368 #
edge $-1 $761 15.883917821406531 $764 24.824399577301438 $650 $805 forward 7 unknown #
vertex $-1 $664 $806 #
straight-curve $-1 18.939973318167855 -48.913917181093645 9.5133600701157306 0 -1 0 I I #
edge $-1 $764 7.1553554050515942 $661 16.413880421180927 $660 $807 forward 7 unknown #
vertex $-1 $763 $808 #
straight-curve $-1 18.939973318167855 -26.103843625068635 0.57287831422082292 0 0.57357642473473569 0.81915205242281985 I I #
point $-1 18.939973318167855 -19.84365109330971 9.5133600701157306 #
point $-1 28.198498334297188 -26.103843625068635 0.57287831422082292 #
straight-curve $-1 0 -26.103843625068635 9.5133600701157306 1 0 0 I I #
vertex $-1 $667 $809 #
point $-1 21.291678321393725 -22.154595306766353 4.4695427674335368 #
vertex $-1 $671 $810 #
point $-1 24.069235826232521 -22.154595306766353 4.4695427674335368 #
vertex $-1 $675 $811 #
point $-1 26.846793331071332 -22.154595306766353 4.4695427674335368 #
straight-curve $-1 -43.779412213507491 26.103843625068635 0 0 0 -1 I I #
point $-1 -43.779412213507491 -26.103843625068635 -9.5133600701157306 #
straight-curve $-1 -43.779412213507491 0 -9.5133600701157306 0 1 0 I I #
point $-1 -43.779412213507491 26.103843625068635 -9.5133600701157306 #
straight-curve $-1 -43.779412213507491 0 -2.9952951006078217 0 -1 0 I I #
point $-1 -43.779412213507491 -26.103843625068635 -2.9952951006078217 #
point $-1 -43.779412213507491 26.103843625068635 -2.9952951006078217 #
straight-curve $-1 -43.779412213507491 26.103843625068635 0 0 0 -1 I I #
straight-curve $-1 -43.779412213507491 -26.103843625068635 0 0 0 -1 I I #
straight-curve $-1 -9.5985326140121217 26.103843625068635 46.78029497312157 0 0 -1 I I #
point $-1 -9.5985326140121217 26.103843625068635 9.5133600701157306 #
straight-curve $-1 -7.1138975610383941 26.103843625068635 0.57287831422081226 -1 0 0 I I #
point $-1 -9.5985326140121217 26.103843625068635 0.57287831422081581 #
point $-1 -17.005352626915588 21.745019280554942 4.1827545550661691 #
point $-1 -14.227795122076788 21.745019280554942 4.1827545550661691 #
point $-1 -11.450237617237988 21.745019280554942 4.1827545550661691 #
straight-curve $-1 28.198498334297188 26.103843625068635 46.78029497312157 0 0 -1 I I #
point $-1 28.198498334297188 26.103843625068635 9.5133600701157306 #
straight-curve $-1 11.784617913116261 26.103843625068635 0.57287831422081226 -1 0 0 I I #
point $-1 28.198498334297188 26.103843625068635 0.57287831422081581 #
point $-1 20.791678321393725 21.745019280554942 4.1827545550661691 #
point $-1 23.569235826232521 21.745019280554942 4.1827545550661691 #
point $-1 26.346793331071332 21.745019280554942 4.1827545550661691 #
straight-curve $-1 -18.857057630141455 -26.103843625068635 25.397277891522261 0 0 -1 I I #
point $-1 -18.857057630141455 -26.103843625068635 9.5133600701157306 #
straight-curve $-1 -7.1138975610383941 -26.103843625068635 0.57287831422082325 1 0 0 I I #
point $-1 -18.857057630141455 -26.103843625068635 0.57287831422082292 #
point $-1 -17.005352626915588 -21.745019280554942 4.1827545550661691 #
point $-1 -14.227795122076788 -21.745019280554942 4.1827545550661691 #
point $-1 -11.450237617237988 -21.745019280554942 4.1827545550661691 #
straight-curve $-1 18.939973318167855 -26.103843625068635 25.397277891522261 0 0 -1 I I #
point $-1 18.939973318167855 -26.103843625068635 9.5133600701157306 #
straight-curve $-1 11.784617913116261 -26.103843625068635 0.57287831422082325 1 0 0 I I #
point $-1 18.939973318167855 -26.103843625068635 0.57287831422082292 #
point $-1 20.791678321393725 -21.745019280554942 4.1827545550661691 #
point $-1 23.569235826232521 -21.745019280554942 4.1827545550661691 #
point $-1 26.346793331071332 -21.745019280554942 4.1827545550661691 #
End-of-ACIS-data 