500 0 4 0           
7 Unknown 11 ACIS 5.0 NT 24 Fri Mar 26 20:09:59 1999 
-1 9.9999999999999995e-007 1e-010 
body $-1 $4 $-1 $5 #
body $-1 $6 $-1 $7 #
body $-1 $8 $-1 $9 #
body $-1 $10 $-1 $11 #
lump $-1 $-1 $12 $0 #
transform $-1 1 0 0 0 1 0 0 0 1 79.661854915005961 40.888968756950916 9.2001739541115146 1 rotate no_reflect no_shear #
lump $-1 $-1 $13 $1 #
transform $-1 1 0 0 0 1 0 0 0 1 79.661854915005961 40.888968756950916 9.2001739541115146 1 rotate no_reflect no_shear #
lump $-1 $-1 $14 $2 #
transform $-1 1 0 0 0 1 0 0 0 1 79.661854915005961 40.888968756950916 9.2001739541115146 1 rotate no_reflect no_shear #
lump $-1 $-1 $15 $3 #
transform $-1 1 0 0 0 1 0 0 0 1 79.661854915005961 40.888968756950916 9.2001739541115146 1 rotate no_reflect no_shear #
shell $-1 $-1 $-1 $16 $-1 $4 #
shell $-1 $-1 $-1 $17 $-1 $6 #
shell $-1 $-1 $-1 $18 $-1 $8 #
shell $-1 $-1 $-1 $19 $-1 $10 #
face $-1 $20 $21 $12 $-1 $22 forward single #
face $-1 $23 $24 $13 $-1 $25 reversed single #
face $-1 $26 $27 $14 $-1 $28 forward single #
face $-1 $29 $30 $15 $-1 $31 reversed single #
face $-1 $32 $33 $12 $-1 $34 reversed single #
loop $-1 $-1 $35 $16 #
plane-surface $-1 0 0 9.2001739541115146 0 0 1 1 0 0 forward_v I I I I #
face $-1 $36 $37 $13 $-1 $38 forward single #
loop $-1 $-1 $39 $17 #
plane-surface $-1 0 -35.661690869063676 4.4734275655803994 0 0 1 1 0 0 forward_v I I I I #
face $-1 $40 $41 $14 $-1 $42 forward single #
loop $-1 $-1 $43 $18 #
plane-surface $-1 11.435507205729834 121.71669420774138 165.66460659838555 1 0 0 0 -0.80901700255871778 -0.5877852410284794 forward_v I I I I #
face $-1 $44 $45 $15 $-1 $46 reversed single #
loop $-1 $47 $48 $19 #
cone-surface $-1 32.24114056176272 39.064046170278509 7.0850122696667679 0 -0.80901700255871778 -0.5877852410284794 1 0 0 1 I I 0 1 1 forward I I I I #
face $-1 $49 $50 $12 $-1 $51 reversed single #
loop $-1 $-1 $52 $20 #
plane-surface $-1 0 0 -9.2001739541115146 0 0 1 1 0 0 forward_v I I I I #
coedge $-1 $53 $54 $55 $56 forward $21 $-1 #
face $-1 $57 $58 $13 $-1 $59 forward single #
loop $-1 $-1 $60 $23 #
plane-surface $-1 0 -35.661690869063676 1.4734275655803994 0 0 1 1 0 0 forward_v I I I I #
coedge $-1 $61 $62 $63 $64 reversed $24 $-1 #
face $-1 $65 $66 $14 $-1 $67 forward single #
loop $-1 $-1 $68 $26 #
plane-surface $-1 32.24114056176272 -7.1788959554697698 72.016481414400474 0 0.80901700255871778 0.5877852410284794 1 0 0 forward_v I I I I #
coedge $-1 $69 $70 $71 $72 reversed $27 $-1 #
face $-1 $73 $74 $15 $-1 $75 forward single #
loop $-1 $76 $77 $29 #
cone-surface $-1 32.24114056176272 38.049188695588313 6.3476751760288206 0 -0.80901700255871778 -0.5877852410284794 0.5 0 0 1 I I -0.70710678118654746 0.70710678118654746 0.5 forward I I I I #
loop $-1 $-1 $78 $19 #
coedge $-1 $48 $48 $79 $80 reversed $30 $-1 #
face $-1 $81 $82 $12 $-1 $83 reversed single #
loop $-1 $-1 $84 $32 #
plane-surface $-1 0 -40.888968756950916 0 0 1 0 0 0 1 forward_v I I I I #
coedge $-1 $85 $86 $87 $88 forward $33 $-1 #
coedge $-1 $89 $35 $90 $91 forward $21 $-1 #
coedge $-1 $35 $89 $92 $93 forward $21 $-1 #
coedge $-1 $94 $95 $35 $56 reversed $96 $-1 #
edge $-1 $97 -40.888968756950916 $98 40.888968756950916 $55 $99 forward 7 unknown #
face $-1 $100 $101 $13 $-1 $102 reversed single #
loop $-1 $-1 $103 $36 #
plane-surface $-1 0 -30.434412981176436 2.9734275655803994 0 -1 0 0 0 -1 forward_v I I I I #
coedge $-1 $104 $105 $106 $107 reversed $37 $-1 #
coedge $-1 $108 $39 $109 $110 reversed $24 $-1 #
coedge $-1 $39 $108 $111 $112 reversed $24 $-1 #
coedge $-1 $113 $114 $39 $64 forward $101 $-1 #
edge $-1 $115 -23.058123322419078 $116 -12.603567546644598 $63 $117 forward 7 unknown #
face $-1 $118 $119 $14 $-1 $120 forward single #
loop $-1 $-1 $121 $40 #
plane-surface $-1 53.046773917795605 121.71669420774138 165.66460659838555 -1 0 0 0 0.80901700255871778 0.5877852410284794 forward_v I I I I #
coedge $-1 $122 $123 $124 $125 reversed $41 $-1 #
coedge $-1 $70 $43 $123 $126 forward $27 $-1 #
coedge $-1 $43 $69 $127 $128 reversed $27 $-1 #
coedge $-1 $129 $124 $43 $72 forward $119 $-1 #
edge $-1 $130 -22.398525573442868 $131 -19.969378346919775 $71 $132 forward 7 unknown #
face $-1 $133 $134 $15 $-1 $135 forward single #
loop $-1 $-1 $136 $44 #
plane-surface $-1 11.435507205729834 121.71669420774138 165.66460659838555 1 0 0 0 -0.80901700255871778 -0.5877852410284794 forward_v I I I I #
loop $-1 $-1 $137 $29 #
coedge $-1 $77 $77 $78 $138 forward $45 $-1 #
coedge $-1 $78 $78 $77 $138 reversed $47 $-1 #
coedge $-1 $79 $79 $48 $80 forward $134 $-1 #
edge $-1 $139 1.9303024959458957e-015 $139 6.2831853071796022 $79 $140 forward 7 unknown #
face $-1 $141 $142 $12 $-1 $143 reversed single #
loop $-1 $-1 $144 $49 #
plane-surface $-1 -79.661854915005961 0 0 1 0 0 0 0 -1 forward_v I I I I #
coedge $-1 $145 $92 $146 $147 forward $50 $-1 #
coedge $-1 $148 $52 $145 $149 forward $33 $-1 #
coedge $-1 $52 $148 $150 $151 forward $33 $-1 #
coedge $-1 $95 $94 $52 $88 reversed $96 $-1 #
edge $-1 $152 -40.888968756950916 $153 40.888968756950916 $87 $154 forward 7 unknown #
coedge $-1 $54 $53 $155 $156 forward $21 $-1 #
coedge $-1 $157 $158 $53 $91 reversed $142 $-1 #
edge $-1 $98 -79.661854915005961 $159 79.661854915005961 $90 $160 forward 7 unknown #
coedge $-1 $84 $161 $54 $93 reversed $50 $-1 #
edge $-1 $162 -79.661854915005961 $97 79.661854915005961 $92 $163 forward 7 unknown #
coedge $-1 $87 $55 $161 $164 forward $96 $-1 #
coedge $-1 $55 $87 $157 $165 reversed $96 $-1 #
loop $-1 $-1 $94 $141 #
vertex $-1 $56 $166 #
vertex $-1 $56 $167 #
straight-curve $-1 79.661854915005961 0 9.2001739541115146 0 1 0 I I #
face $-1 $168 $169 $13 $-1 $170 reversed single #
loop $-1 $-1 $63 $57 #
plane-surface $-1 79.661854915005961 0 0 -1 0 0 0 0 1 forward_v I I I I #
coedge $-1 $111 $171 $113 $172 reversed $58 $-1 #
coedge $-1 $173 $60 $171 $174 reversed $37 $-1 #
coedge $-1 $60 $173 $175 $176 reversed $37 $-1 #
coedge $-1 $177 $113 $60 $107 forward $101 $-1 #
edge $-1 $178 12.603567546644598 $179 23.058123322419078 $106 $180 forward 7 unknown #
coedge $-1 $62 $61 $181 $182 reversed $24 $-1 #
coedge $-1 $183 $184 $61 $110 forward $185 $-1 #
edge $-1 $186 -79.661854915005961 $115 79.661854915005961 $109 $187 forward 7 unknown #
coedge $-1 $188 $103 $62 $112 forward $58 $-1 #
edge $-1 $116 -79.661854915005961 $189 79.661854915005961 $111 $190 forward 7 unknown #
coedge $-1 $106 $63 $103 $172 forward $101 $-1 #
coedge $-1 $63 $191 $183 $192 forward $101 $-1 #
vertex $-1 $110 $193 #
vertex $-1 $64 $194 #
straight-curve $-1 79.661854915005961 -17.830845434531838 4.4734275655803994 0 1 0 I I #
face $-1 $195 $196 $14 $-1 $197 reversed single #
loop $-1 $-1 $198 $65 #
plane-surface $-1 0 0 9.2001739541115146 0 0 1 1 0 0 forward_v I I I I #
coedge $-1 $199 $200 $198 $201 reversed $66 $-1 #
coedge $-1 $202 $68 $200 $203 reversed $41 $-1 #
coedge $-1 $68 $202 $69 $126 reversed $41 $-1 #
coedge $-1 $71 $198 $68 $125 forward $119 $-1 #
edge $-1 $204 -36.926203636914245 $130 4.6850630751515254 $124 $205 forward 7 unknown #
edge $-1 $130 77.645225331008788 $206 81.777937513901776 $69 $207 forward 7 unknown #
coedge $-1 $208 $209 $70 $128 forward $210 $-1 #
edge $-1 $131 73.632129345081253 $206 76.97556376772323 $127 $211 forward 7 unknown #
coedge $-1 $212 $71 $209 $213 forward $119 $-1 #
vertex $-1 $125 $214 #
vertex $-1 $213 $215 #
straight-curve $-1 11.435507205729834 60.858347103870692 9.2001739541115199 0 1 0 I I #
face $-1 $216 $217 $15 $-1 $218 forward single #
loop $-1 $219 $79 $73 #
plane-surface $-1 32.24114056176272 -7.1788959554697698 72.016481414400474 0 0.80901700255871778 0.5877852410284794 1 0 0 forward_v I I I I #
coedge $-1 $220 $221 $222 $223 reversed $74 $-1 #
coedge $-1 $137 $137 $-1 $224 forward $76 $-1 #
edge $-1 $225 0 $225 6.2831853071796004 $77 $226 forward 7 unknown #
vertex $-1 $80 $227 #
ellipse-curve $-1 32.24114056176272 39.674395143689388 7.5284567427905085 0 -0.80901700255871778 -0.5877852410284794 1 0 0 1 I I #
face $-1 $-1 $96 $12 $-1 $228 reversed single #
loop $-1 $-1 $157 $81 #
plane-surface $-1 0 40.888968756950916 0 0 -1 0 0 0 -1 forward_v I I I I #
coedge $-1 $229 $155 $158 $230 forward $82 $-1 #
coedge $-1 $161 $84 $85 $149 reversed $50 $-1 #
coedge $-1 $155 $229 $84 $147 reversed $82 $-1 #
edge $-1 $162 -9.2001739541115146 $231 9.2001739541115146 $146 $232 forward 7 unknown #
coedge $-1 $86 $85 $229 $233 forward $33 $-1 #
edge $-1 $153 -79.661854915005961 $231 79.661854915005961 $145 $234 forward 7 unknown #
coedge $-1 $158 $157 $86 $151 reversed $142 $-1 #
edge $-1 $235 -79.661854915005961 $152 79.661854915005961 $150 $236 forward 7 unknown #
vertex $-1 $88 $237 #
vertex $-1 $164 $238 #
straight-curve $-1 79.661854915005961 0 -9.2001739541115146 0 -1 0 I I #
coedge $-1 $144 $146 $89 $156 reversed $82 $-1 #
edge $-1 $159 -40.888968756950916 $162 40.888968756950916 $155 $239 forward 7 unknown #
coedge $-1 $150 $90 $95 $165 forward $142 $-1 #
coedge $-1 $90 $150 $144 $230 reversed $142 $-1 #
vertex $-1 $91 $240 #
straight-curve $-1 0 40.888968756950916 9.2001739541115146 -1 0 0 I I #
coedge $-1 $92 $145 $94 $164 reversed $50 $-1 #
vertex $-1 $156 $241 #
straight-curve $-1 0 -40.888968756950916 9.2001739541115146 1 0 0 I I #
edge $-1 $97 -9.2001739541115146 $153 9.2001739541115146 $94 $242 forward 7 unknown #
edge $-1 $98 -9.2001739541115146 $152 9.2001739541115146 $95 $243 forward 7 unknown #
point $-1 79.661854915005961 -40.888968756950916 9.2001739541115146 #
point $-1 79.661854915005961 40.888968756950916 9.2001739541115146 #
face $-1 $244 $245 $13 $-1 $246 forward single #
loop $-1 $-1 $175 $100 #
plane-surface $-1 0 -40.888968756950916 0 0 1 0 0 0 1 forward_v I I I I #
coedge $-1 $103 $188 $104 $174 forward $58 $-1 #
edge $-1 $116 -2.9867137827901997 $178 0.013286217209800277 $113 $247 forward 7 unknown #
coedge $-1 $105 $104 $248 $249 reversed $37 $-1 #
edge $-1 $250 -79.661854915005961 $178 79.661854915005961 $171 $251 forward 7 unknown #
coedge $-1 $252 $253 $105 $176 forward $169 $-1 #
edge $-1 $179 -79.661854915005961 $254 79.661854915005961 $175 $255 forward 7 unknown #
coedge $-1 $256 $106 $253 $257 forward $101 $-1 #
vertex $-1 $107 $258 #
vertex $-1 $257 $259 #
straight-curve $-1 79.661854915005961 -17.830845434531838 1.4734275655803994 0 -1 0 I I #
coedge $-1 $260 $261 $108 $182 forward $262 $-1 #
edge $-1 $189 12.603567546644598 $186 23.058123322419078 $181 $263 forward 7 unknown #
coedge $-1 $264 $109 $114 $192 reversed $185 $-1 #
coedge $-1 $109 $264 $260 $265 forward $185 $-1 #
loop $-1 $-1 $109 $266 #
vertex $-1 $182 $267 #
straight-curve $-1 0 -40.888968756950916 4.4734275655803994 1 0 0 I I #
coedge $-1 $171 $111 $261 $268 reversed $58 $-1 #
vertex $-1 $182 $269 #
straight-curve $-1 0 -30.434412981176436 4.4734275655803994 -1 0 0 I I #
coedge $-1 $114 $270 $271 $272 reversed $101 $-1 #
edge $-1 $273 -9.2001739541115146 $115 -4.4734275655803994 $114 $274 forward 7 unknown #
point $-1 79.661854915005961 -40.888968756950916 4.4734275655803994 #
point $-1 79.661854915005961 -30.434412981176436 4.4734275655803994 #
face $-1 $275 $276 $14 $-1 $277 forward single #
loop $-1 $-1 $278 $118 #
plane-surface $-1 0 -35.661690869063676 4.4734275655803994 0 0 1 1 0 0 forward_v I I I I #
coedge $-1 $124 $279 $121 $201 forward $119 $-1 #
coedge $-1 $200 $121 $280 $281 reversed $66 $-1 #
coedge $-1 $121 $199 $122 $203 forward $66 $-1 #
edge $-1 $282 19.969378346919775 $204 22.398525573442868 $198 $283 forward 7 unknown #
coedge $-1 $123 $122 $208 $284 reversed $41 $-1 #
edge $-1 $285 -81.777937513901776 $204 -77.645225331008788 $200 $286 forward 7 unknown #
vertex $-1 $125 $287 #
straight-curve $-1 16.12057028088136 38.459821530427831 9.2001739541115128 -1 0 0 I I #
vertex $-1 $284 $288 #
straight-curve $-1 11.435507205729834 -7.1788959554697698 72.016481414400474 0 0.5877852410284794 -0.80901700255871778 I I #
coedge $-1 $280 $127 $202 $284 forward $210 $-1 #
coedge $-1 $127 $289 $129 $213 reversed $210 $-1 #
loop $-1 $-1 $280 $290 #
straight-curve $-1 11.435507205729834 40.888968756950916 82.832303299192773 0 0 -1 I I #
coedge $-1 $291 $129 $292 $293 forward $119 $-1 #
edge $-1 $131 -11.435507205729834 $294 79.661854915005961 $209 $295 forward 7 unknown #
point $-1 11.435507205729834 38.459821530427824 9.2001739541115199 #
point $-1 11.435507205729834 40.888968756950916 9.2001739541115146 #
face $-1 $296 $297 $15 $-1 $298 forward single #
loop $-1 $-1 $299 $133 #
plane-surface $-1 53.046773917795605 121.71669420774138 165.66460659838555 -1 0 0 0 0.80901700255871778 0.5877852410284794 forward_v I I I I #
loop $-1 $-1 $300 $73 #
coedge $-1 $221 $136 $301 $302 forward $74 $-1 #
coedge $-1 $136 $220 $303 $304 reversed $74 $-1 #
coedge $-1 $305 $306 $136 $223 forward $297 $-1 #
edge $-1 $307 -22.398525573442868 $308 -19.969378346919775 $222 $309 forward 7 unknown #
edge $-1 $310 1 $310 0 $137 $-1 forward 7 unknown #
vertex $-1 $138 $311 #
ellipse-curve $-1 32.24114056176272 38.453697196867672 6.6415677965430602 0 0.80901700255871778 0.5877852410284794 1 0 0 1 I I #
point $-1 33.24114056176272 39.674395143689338 7.5284567427904747 #
plane-surface $-1 79.661854915005961 0 0 -1 0 0 0 0 1 forward_v I I I I #
coedge $-1 $146 $144 $148 $233 reversed $82 $-1 #
edge $-1 $159 -9.2001739541115146 $235 9.2001739541115146 $158 $312 forward 7 unknown #
vertex $-1 $233 $313 #
straight-curve $-1 -79.661854915005961 -40.888968756950916 0 0 0 -1 I I #
edge $-1 $231 -40.888968756950916 $235 40.888968756950916 $229 $314 forward 7 unknown #
straight-curve $-1 0 -40.888968756950916 -9.2001739541115146 -1 0 0 I I #
vertex $-1 $151 $315 #
straight-curve $-1 0 40.888968756950916 -9.2001739541115146 1 0 0 I I #
point $-1 79.661854915005961 40.888968756950916 -9.2001739541115146 #
point $-1 79.661854915005961 -40.888968756950916 -9.2001739541115146 #
straight-curve $-1 -79.661854915005961 0 9.2001739541115146 0 -1 0 I I #
point $-1 -79.661854915005961 40.888968756950916 9.2001739541115146 #
point $-1 -79.661854915005961 -40.888968756950916 9.2001739541115146 #
straight-curve $-1 79.661854915005961 -40.888968756950916 0 0 0 -1 I I #
straight-curve $-1 79.661854915005961 40.888968756950916 0 0 0 -1 I I #
face $-1 $266 $316 $13 $-1 $317 reversed single #
loop $-1 $-1 $271 $168 #
plane-surface $-1 0 0 9.2001739541115146 0 0 1 1 0 0 forward_v I I I I #
straight-curve $-1 79.661854915005961 -30.434412981176436 1.4867137827901997 0 0 -1 I I #
coedge $-1 $261 $318 $173 $249 forward $262 $-1 #
edge $-1 $254 -23.058123322419078 $250 -12.603567546644598 $248 $319 forward 7 unknown #
vertex $-1 $249 $320 #
straight-curve $-1 0 -30.434412981176436 1.4734275655803994 1 0 0 I I #
coedge $-1 $321 $175 $318 $322 forward $169 $-1 #
coedge $-1 $175 $321 $177 $257 reversed $169 $-1 #
vertex $-1 $322 $323 #
straight-curve $-1 0 -40.888968756950916 1.4734275655803994 -1 0 0 I I #
coedge $-1 $270 $177 $324 $325 reversed $101 $-1 #
edge $-1 $179 -1.4734275655803994 $326 9.2001739541115146 $177 $274 forward 7 unknown #
point $-1 79.661854915005961 -30.434412981176436 1.4734275655803994 #
point $-1 79.661854915005961 -40.888968756950916 1.4734275655803994 #
coedge $-1 $327 $181 $184 $265 reversed $262 $-1 #
coedge $-1 $181 $248 $188 $268 forward $262 $-1 #
loop $-1 $-1 $181 $328 #
straight-curve $-1 -79.661854915005961 -17.830845434531838 4.4734275655803994 0 -1 0 I I #
coedge $-1 $184 $183 $329 $330 reversed $185 $-1 #
edge $-1 $331 -9.2001739541115146 $186 -4.4734275655803994 $260 $332 forward 7 unknown #
face $-1 $328 $185 $13 $-1 $170 reversed single #
point $-1 -79.661854915005961 -40.888968756950916 4.4734275655803994 #
edge $-1 $250 -0.013286217209800277 $189 2.9867137827901997 $261 $333 forward 7 unknown #
point $-1 -79.661854915005961 -30.434412981176436 4.4734275655803994 #
coedge $-1 $191 $256 $334 $335 reversed $101 $-1 #
coedge $-1 $336 $329 $191 $272 forward $245 $-1 #
edge $-1 $273 -40.888968756950916 $337 40.888968756950916 $191 $338 forward 7 unknown #
vertex $-1 $272 $339 #
straight-curve $-1 79.661854915005961 -40.888968756950916 0 0 0 -1 I I #
face $-1 $340 $341 $14 $-1 $342 forward single #
loop $-1 $-1 $343 $195 #
plane-surface $-1 0 -35.661690869063676 1.4734275655803994 0 0 1 1 0 0 forward_v I I I I #
coedge $-1 $344 $345 $346 $347 reversed $196 $-1 #
coedge $-1 $198 $348 $349 $350 forward $119 $-1 #
coedge $-1 $349 $208 $199 $281 forward $210 $-1 #
edge $-1 $285 -76.97556376772323 $282 -73.632129345081253 $280 $351 forward 7 unknown #
vertex $-1 $281 $352 #
straight-curve $-1 53.046773917795605 60.858347103870692 9.2001739541115199 0 -1 0 I I #
edge $-1 $206 -4.6850630751515254 $285 36.926203636914245 $208 $353 forward 7 unknown #
vertex $-1 $284 $354 #
straight-curve $-1 53.046773917795605 -7.1788959554697698 72.016481414400474 0 -0.5877852410284794 0.80901700255871778 I I #
point $-1 53.046773917795605 38.459821530427824 9.2001739541115199 #
point $-1 11.435507205729834 40.888968756950916 5.8567395314695432 #
coedge $-1 $209 $355 $356 $357 reversed $210 $-1 #
face $-1 $-1 $210 $14 $-1 $358 reversed single #
coedge $-1 $348 $212 $359 $360 forward $119 $-1 #
coedge $-1 $356 $361 $212 $293 reversed $362 $-1 #
edge $-1 $294 -40.888968756950916 $363 40.888968756950916 $292 $364 forward 7 unknown #
vertex $-1 $213 $365 #
straight-curve $-1 0 40.888968756950916 9.2001739541115146 -1 0 0 I I #
face $-1 $366 $367 $15 $-1 $368 reversed single #
loop $-1 $-1 $369 $216 #
plane-surface $-1 0 0 9.2001739541115146 0 0 1 1 0 0 forward_v I I I I #
coedge $-1 $370 $371 $369 $372 reversed $217 $-1 #
coedge $-1 $373 $301 $306 $374 reversed $219 $-1 #
coedge $-1 $300 $375 $220 $302 reversed $219 $-1 #
edge $-1 $307 77.645225331008788 $376 81.777937513901776 $220 $377 forward 7 unknown #
coedge $-1 $378 $379 $221 $304 forward $380 $-1 #
edge $-1 $308 73.632129345081253 $376 76.97556376772323 $303 $381 forward 7 unknown #
coedge $-1 $382 $222 $379 $383 forward $297 $-1 #
coedge $-1 $222 $369 $300 $374 forward $297 $-1 #
vertex $-1 $374 $384 #
vertex $-1 $383 $385 #
straight-curve $-1 11.435507205729834 60.858347103870692 9.2001739541115199 0 1 0 I I #
vertex $-1 $224 $386 #
point $-1 33.24114056176272 38.453697196867672 6.6415677965430602 #
straight-curve $-1 -79.661854915005961 40.888968756950916 0 0 0 -1 I I #
point $-1 -79.661854915005961 -40.888968756950916 -9.2001739541115146 #
straight-curve $-1 -79.661854915005961 0 -9.2001739541115146 0 1 0 I I #
point $-1 -79.661854915005961 40.888968756950916 -9.2001739541115146 #
loop $-1 $-1 $324 $244 #
plane-surface $-1 0 0 -9.2001739541115146 0 0 1 1 0 0 forward_v I I I I #
coedge $-1 $248 $387 $252 $322 reversed $262 $-1 #
straight-curve $-1 -79.661854915005961 -17.830845434531838 1.4734275655803994 0 1 0 I I #
point $-1 -79.661854915005961 -30.434412981176436 1.4734275655803994 #
coedge $-1 $253 $252 $388 $389 reversed $169 $-1 #
edge $-1 $254 -1.4734275655803994 $390 9.2001739541115146 $318 $332 forward 7 unknown #
point $-1 -79.661854915005961 -40.888968756950916 1.4734275655803994 #
coedge $-1 $388 $391 $256 $325 forward $316 $-1 #
edge $-1 $392 -40.888968756950916 $326 40.888968756950916 $256 $393 forward 7 unknown #
vertex $-1 $257 $394 #
coedge $-1 $395 $260 $396 $397 reversed $262 $-1 #
face $-1 $398 $262 $13 $-1 $399 reversed single #
coedge $-1 $271 $396 $264 $330 forward $245 $-1 #
edge $-1 $331 -79.661854915005961 $273 79.661854915005961 $264 $400 forward 7 unknown #
vertex $-1 $397 $401 #
straight-curve $-1 -79.661854915005961 -40.888968756950916 0 0 0 -1 I I #
straight-curve $-1 -79.661854915005961 -30.434412981176436 1.4867137827901997 0 0 1 I I #
coedge $-1 $402 $403 $270 $335 forward $404 $-1 #
edge $-1 $337 -9.2001739541115146 $392 9.2001739541115146 $270 $405 forward 7 unknown #
coedge $-1 $396 $271 $403 $406 forward $245 $-1 #
vertex $-1 $272 $407 #
straight-curve $-1 79.661854915005961 0 9.2001739541115146 0 1 0 I I #
point $-1 79.661854915005961 -40.888968756950916 9.2001739541115146 #
face $-1 $408 $409 $14 $-1 $410 reversed single #
loop $-1 $-1 $411 $275 #
plane-surface $-1 0 -30.434412981176436 2.9734275655803994 0 -1 0 0 0 -1 forward_v I I I I #
coedge $-1 $412 $413 $414 $415 reversed $276 $-1 #
coedge $-1 $416 $278 $417 $418 reversed $196 $-1 #
coedge $-1 $278 $416 $419 $420 reversed $196 $-1 #
coedge $-1 $421 $422 $278 $347 forward $409 $-1 #
edge $-1 $423 -23.058123322419078 $424 -12.603567546644598 $346 $425 forward 7 unknown #
coedge $-1 $279 $291 $426 $427 forward $119 $-1 #
coedge $-1 $428 $280 $279 $350 reversed $210 $-1 #
edge $-1 $429 -79.661854915005961 $282 -53.046773917795605 $349 $295 forward 7 unknown #
straight-curve $-1 53.046773917795605 40.888968756950916 82.832303299192773 0 0 1 I I #
point $-1 53.046773917795605 40.888968756950916 9.2001739541115146 #
straight-curve $-1 16.12057028088136 40.888968756950916 5.856739531469529 1 0 0 I I #
point $-1 53.046773917795605 40.888968756950916 5.8567395314695432 #
coedge $-1 $289 $428 $430 $431 reversed $210 $-1 #
coedge $-1 $432 $292 $289 $357 forward $362 $-1 #
edge $-1 $294 -9.2001739541115146 $433 9.2001739541115146 $289 $434 forward 7 unknown #
plane-surface $-1 0 40.888968756950916 0 0 -1 0 0 0 -1 forward_v I I I I #
coedge $-1 $435 $436 $291 $360 reversed $437 $-1 #
edge $-1 $363 -79.661854915005961 $438 79.661854915005961 $359 $439 forward 7 unknown #
coedge $-1 $292 $440 $435 $441 reversed $362 $-1 #
loop $-1 $-1 $440 $442 #
vertex $-1 $293 $443 #
straight-curve $-1 -79.661854915005961 0 9.2001739541115146 0 -1 0 I I #
point $-1 -79.661854915005961 40.888968756950916 9.2001739541115146 #
face $-1 $444 $445 $15 $-1 $446 forward single #
loop $-1 $-1 $447 $296 #
plane-surface $-1 0 -35.661690869063676 4.4734275655803994 0 0 1 1 0 0 forward_v I I I I #
coedge $-1 $306 $448 $299 $372 forward $297 $-1 #
coedge $-1 $371 $299 $449 $450 reversed $217 $-1 #
coedge $-1 $299 $370 $373 $451 forward $217 $-1 #
edge $-1 $452 19.969378346919775 $453 22.398525573442868 $369 $454 forward 7 unknown #
coedge $-1 $375 $300 $371 $451 reversed $219 $-1 #
edge $-1 $453 -36.926203636914245 $307 4.6850630751515254 $306 $455 forward 7 unknown #
coedge $-1 $301 $373 $378 $456 reversed $219 $-1 #
vertex $-1 $456 $457 #
straight-curve $-1 11.435507205729834 -7.1788959554697698 72.016481414400474 0 0.5877852410284794 -0.80901700255871778 I I #
coedge $-1 $449 $303 $375 $456 forward $380 $-1 #
coedge $-1 $303 $458 $305 $383 reversed $380 $-1 #
loop $-1 $-1 $449 $459 #
straight-curve $-1 11.435507205729834 40.888968756950916 82.832303299192773 0 0 -1 I I #
coedge $-1 $460 $305 $461 $462 forward $297 $-1 #
edge $-1 $308 -11.435507205729834 $463 79.661854915005961 $379 $464 forward 7 unknown #
point $-1 11.435507205729834 38.459821530427824 9.2001739541115199 #
point $-1 11.435507205729834 40.888968756950916 9.2001739541115146 #
point $-1 32.24114056176272 37.644680194308954 6.053782555514581 #
coedge $-1 $318 $395 $465 $466 reversed $262 $-1 #
coedge $-1 $465 $324 $321 $389 forward $316 $-1 #
edge $-1 $326 -79.661854915005961 $390 79.661854915005961 $321 $467 forward 7 unknown #
vertex $-1 $466 $468 #
coedge $-1 $324 $465 $402 $469 forward $316 $-1 #
vertex $-1 $325 $470 #
straight-curve $-1 79.661854915005961 0 -9.2001739541115146 0 -1 0 I I #
point $-1 79.661854915005961 -40.888968756950916 -9.2001739541115146 #
coedge $-1 $387 $327 $471 $472 forward $262 $-1 #
coedge $-1 $329 $336 $327 $397 forward $245 $-1 #
edge $-1 $473 -40.888968756950916 $331 40.888968756950916 $327 $474 forward 7 unknown #
face $-1 $-1 $404 $13 $-1 $475 reversed single #
plane-surface $-1 -79.661854915005961 0 0 1 0 0 0 0 -1 forward_v I I I I #
straight-curve $-1 0 -40.888968756950916 9.2001739541115146 1 0 0 I I #
point $-1 -79.661854915005961 -40.888968756950916 9.2001739541115146 #
coedge $-1 $471 $334 $391 $469 reversed $404 $-1 #
coedge $-1 $334 $471 $336 $406 reversed $404 $-1 #
loop $-1 $-1 $334 $398 #
straight-curve $-1 79.661854915005961 40.888968756950916 0 0 0 -1 I I #
edge $-1 $337 -79.661854915005961 $473 79.661854915005961 $403 $476 forward 7 unknown #
point $-1 79.661854915005961 40.888968756950916 9.2001739541115146 #
face $-1 $477 $478 $14 $-1 $479 reversed single #
loop $-1 $-1 $346 $340 #
plane-surface $-1 79.661854915005961 0 0 -1 0 0 0 0 1 forward_v I I I I #
coedge $-1 $419 $480 $421 $481 reversed $341 $-1 #
coedge $-1 $482 $343 $480 $483 reversed $276 $-1 #
coedge $-1 $343 $482 $484 $485 reversed $276 $-1 #
coedge $-1 $486 $421 $343 $415 forward $409 $-1 #
edge $-1 $487 12.603567546644598 $488 23.058123322419078 $414 $489 forward 7 unknown #
coedge $-1 $345 $344 $440 $490 reversed $196 $-1 #
coedge $-1 $436 $435 $344 $418 forward $437 $-1 #
edge $-1 $491 -79.661854915005961 $423 79.661854915005961 $417 $492 forward 7 unknown #
coedge $-1 $493 $411 $345 $420 forward $341 $-1 #
edge $-1 $424 -79.661854915005961 $494 79.661854915005961 $419 $495 forward 7 unknown #
coedge $-1 $414 $346 $411 $481 forward $409 $-1 #
coedge $-1 $346 $426 $436 $496 forward $409 $-1 #
vertex $-1 $418 $497 #
vertex $-1 $347 $498 #
straight-curve $-1 79.661854915005961 -17.830845434531838 4.4734275655803994 0 1 0 I I #
coedge $-1 $422 $499 $348 $427 reversed $409 $-1 #
edge $-1 $438 -40.888968756950916 $429 40.888968756950916 $426 $500 forward 7 unknown #
coedge $-1 $355 $349 $499 $501 forward $210 $-1 #
vertex $-1 $427 $502 #
coedge $-1 $503 $504 $355 $431 forward $505 $-1 #
edge $-1 $433 -79.661854915005961 $506 79.661854915005961 $355 $507 forward 7 unknown #
coedge $-1 $508 $356 $504 $509 reversed $362 $-1 #
vertex $-1 $431 $510 #
straight-curve $-1 -79.661854915005961 40.888968756950916 0 0 0 -1 I I #
coedge $-1 $417 $359 $361 $441 forward $437 $-1 #
coedge $-1 $359 $417 $422 $496 reversed $437 $-1 #
loop $-1 $-1 $417 $511 #
vertex $-1 $427 $512 #
straight-curve $-1 0 -40.888968756950916 9.2001739541115146 1 0 0 I I #
coedge $-1 $361 $513 $416 $490 forward $362 $-1 #
edge $-1 $363 -9.2001739541115146 $491 -4.4734275655803994 $361 $514 forward 7 unknown #
face $-1 $290 $362 $14 $-1 $515 reversed single #
point $-1 -79.661854915005961 -40.888968756950916 9.2001739541115146 #
face $-1 $516 $517 $15 $-1 $518 forward single #
loop $-1 $-1 $519 $366 #
plane-surface $-1 0 -35.661690869063676 1.4734275655803994 0 0 1 1 0 0 forward_v I I I I #
coedge $-1 $520 $521 $522 $523 reversed $367 $-1 #
coedge $-1 $369 $524 $525 $526 forward $297 $-1 #
coedge $-1 $525 $378 $370 $450 forward $380 $-1 #
edge $-1 $527 -76.97556376772323 $452 -73.632129345081253 $449 $528 forward 7 unknown #
edge $-1 $527 -81.777937513901776 $453 -77.645225331008788 $371 $529 forward 7 unknown #
vertex $-1 $450 $530 #
vertex $-1 $374 $531 #
straight-curve $-1 53.046773917795605 60.858347103870692 9.2001739541115199 0 -1 0 I I #
straight-curve $-1 16.12057028088136 38.459821530427831 9.2001739541115128 -1 0 0 I I #
edge $-1 $376 -4.6850630751515254 $527 36.926203636914245 $378 $532 forward 7 unknown #
point $-1 11.435507205729834 40.888968756950916 5.8567395314695432 #
coedge $-1 $379 $533 $534 $535 reversed $380 $-1 #
face $-1 $-1 $380 $15 $-1 $536 reversed single #
coedge $-1 $524 $382 $537 $538 forward $297 $-1 #
coedge $-1 $534 $539 $382 $462 reversed $540 $-1 #
edge $-1 $463 -40.888968756950916 $541 40.888968756950916 $461 $542 forward 7 unknown #
vertex $-1 $383 $543 #
straight-curve $-1 0 40.888968756950916 9.2001739541115146 -1 0 0 I I #
coedge $-1 $391 $388 $387 $466 forward $316 $-1 #
edge $-1 $390 -40.888968756950916 $544 40.888968756950916 $387 $545 forward 7 unknown #
straight-curve $-1 0 -40.888968756950916 -9.2001739541115146 -1 0 0 I I #
point $-1 -79.661854915005961 -40.888968756950916 -9.2001739541115146 #
edge $-1 $544 -79.661854915005961 $392 79.661854915005961 $402 $546 forward 7 unknown #
point $-1 79.661854915005961 40.888968756950916 -9.2001739541115146 #
coedge $-1 $403 $402 $395 $472 reversed $404 $-1 #
edge $-1 $473 -9.2001739541115146 $544 9.2001739541115146 $471 $547 forward 7 unknown #
vertex $-1 $406 $548 #
straight-curve $-1 -79.661854915005961 0 9.2001739541115146 0 -1 0 I I #
plane-surface $-1 0 40.888968756950916 0 0 -1 0 0 0 -1 forward_v I I I I #
straight-curve $-1 0 40.888968756950916 9.2001739541115146 -1 0 0 I I #
face $-1 $511 $505 $14 $-1 $549 reversed single #
loop $-1 $-1 $484 $408 #
plane-surface $-1 0 -40.888968756950916 0 0 1 0 0 0 1 forward_v I I I I #
coedge $-1 $411 $493 $412 $483 forward $341 $-1 #
edge $-1 $424 -2.9867137827901997 $487 0.013286217209800277 $421 $550 forward 7 unknown #
coedge $-1 $413 $412 $551 $552 reversed $276 $-1 #
edge $-1 $553 -79.661854915005961 $487 79.661854915005961 $480 $554 forward 7 unknown #
coedge $-1 $555 $556 $413 $485 forward $478 $-1 #
edge $-1 $488 -79.661854915005961 $557 79.661854915005961 $484 $558 forward 7 unknown #
coedge $-1 $559 $414 $556 $560 forward $409 $-1 #
vertex $-1 $415 $561 #
vertex $-1 $560 $562 #
straight-curve $-1 79.661854915005961 -17.830845434531838 1.4734275655803994 0 -1 0 I I #
edge $-1 $494 12.603567546644598 $491 23.058123322419078 $440 $563 forward 7 unknown #
vertex $-1 $490 $564 #
straight-curve $-1 0 -40.888968756950916 4.4734275655803994 1 0 0 I I #
coedge $-1 $480 $419 $513 $565 reversed $341 $-1 #
vertex $-1 $490 $566 #
straight-curve $-1 0 -30.434412981176436 4.4734275655803994 -1 0 0 I I #
edge $-1 $438 -9.2001739541115146 $423 -4.4734275655803994 $422 $567 forward 7 unknown #
point $-1 79.661854915005961 -40.888968756950916 4.4734275655803994 #
point $-1 79.661854915005961 -30.434412981176436 4.4734275655803994 #
coedge $-1 $426 $559 $428 $501 reversed $409 $-1 #
straight-curve $-1 79.661854915005961 0 9.2001739541115146 0 1 0 I I #
edge $-1 $429 -9.2001739541115146 $506 9.2001739541115146 $499 $568 forward 7 unknown #
point $-1 79.661854915005961 40.888968756950916 9.2001739541115146 #
coedge $-1 $569 $430 $559 $570 forward $505 $-1 #
coedge $-1 $430 $569 $432 $509 forward $505 $-1 #
loop $-1 $-1 $503 $477 #
vertex $-1 $570 $571 #
straight-curve $-1 0 40.888968756950916 -9.2001739541115146 1 0 0 I I #
coedge $-1 $551 $432 $555 $572 reversed $362 $-1 #
edge $-1 $573 -40.888968756950916 $433 40.888968756950916 $432 $574 forward 7 unknown #
point $-1 -79.661854915005961 40.888968756950916 -9.2001739541115146 #
face $-1 $442 $437 $14 $-1 $479 reversed single #
point $-1 79.661854915005961 -40.888968756950916 9.2001739541115146 #
coedge $-1 $440 $551 $493 $565 forward $362 $-1 #
straight-curve $-1 -79.661854915005961 -40.888968756950916 0 0 0 -1 I I #
plane-surface $-1 -79.661854915005961 0 0 1 0 0 0 0 -1 forward_v I I I I #
face $-1 $575 $576 $15 $-1 $577 reversed single #
loop $-1 $-1 $578 $444 #
plane-surface $-1 0 -30.434412981176436 2.9734275655803994 0 -1 0 0 0 -1 forward_v I I I I #
coedge $-1 $579 $580 $581 $582 reversed $445 $-1 #
coedge $-1 $583 $447 $584 $585 reversed $367 $-1 #
coedge $-1 $447 $583 $586 $587 reversed $367 $-1 #
coedge $-1 $588 $589 $447 $523 forward $576 $-1 #
edge $-1 $590 -23.058123322419078 $591 -12.603567546644598 $522 $592 forward 7 unknown #
coedge $-1 $448 $460 $593 $594 forward $297 $-1 #
coedge $-1 $595 $449 $448 $526 reversed $380 $-1 #
edge $-1 $596 -79.661854915005961 $452 -53.046773917795605 $525 $464 forward 7 unknown #
vertex $-1 $456 $597 #
straight-curve $-1 53.046773917795605 40.888968756950916 82.832303299192773 0 0 1 I I #
straight-curve $-1 53.046773917795605 -7.1788959554697698 72.016481414400474 0 -0.5877852410284794 0.80901700255871778 I I #
point $-1 53.046773917795605 40.888968756950916 9.2001739541115146 #
point $-1 53.046773917795605 38.459821530427824 9.2001739541115199 #
straight-curve $-1 16.12057028088136 40.888968756950916 5.856739531469529 1 0 0 I I #
coedge $-1 $458 $595 $598 $599 reversed $380 $-1 #
coedge $-1 $600 $461 $458 $535 forward $540 $-1 #
edge $-1 $463 -9.2001739541115146 $601 9.2001739541115146 $458 $602 forward 7 unknown #
plane-surface $-1 0 40.888968756950916 0 0 -1 0 0 0 -1 forward_v I I I I #
coedge $-1 $603 $604 $460 $538 reversed $605 $-1 #
edge $-1 $541 -79.661854915005961 $606 79.661854915005961 $537 $607 forward 7 unknown #
coedge $-1 $461 $608 $603 $609 reversed $540 $-1 #
loop $-1 $-1 $608 $610 #
vertex $-1 $462 $611 #
straight-curve $-1 -79.661854915005961 0 9.2001739541115146 0 -1 0 I I #
point $-1 -79.661854915005961 40.888968756950916 9.2001739541115146 #
vertex $-1 $469 $612 #
straight-curve $-1 -79.661854915005961 0 -9.2001739541115146 0 1 0 I I #
straight-curve $-1 0 40.888968756950916 -9.2001739541115146 1 0 0 I I #
straight-curve $-1 -79.661854915005961 40.888968756950916 0 0 0 -1 I I #
point $-1 -79.661854915005961 40.888968756950916 9.2001739541115146 #
plane-surface $-1 0 0 -9.2001739541115146 0 0 1 1 0 0 forward_v I I I I #
straight-curve $-1 79.661854915005961 -30.434412981176436 1.4867137827901997 0 0 -1 I I #
coedge $-1 $513 $508 $482 $552 forward $362 $-1 #
edge $-1 $557 -23.058123322419078 $553 -12.603567546644598 $551 $613 forward 7 unknown #
vertex $-1 $552 $614 #
straight-curve $-1 0 -30.434412981176436 1.4734275655803994 1 0 0 I I #
coedge $-1 $615 $484 $508 $572 forward $478 $-1 #
coedge $-1 $484 $615 $486 $560 reversed $478 $-1 #
vertex $-1 $572 $616 #
straight-curve $-1 0 -40.888968756950916 1.4734275655803994 -1 0 0 I I #
coedge $-1 $499 $486 $503 $570 reversed $409 $-1 #
edge $-1 $488 -1.4734275655803994 $617 9.2001739541115146 $486 $567 forward 7 unknown #
point $-1 79.661854915005961 -30.434412981176436 1.4734275655803994 #
point $-1 79.661854915005961 -40.888968756950916 1.4734275655803994 #
straight-curve $-1 -79.661854915005961 -17.830845434531838 4.4734275655803994 0 -1 0 I I #
point $-1 -79.661854915005961 -40.888968756950916 4.4734275655803994 #
edge $-1 $553 -0.013286217209800277 $494 2.9867137827901997 $513 $618 forward 7 unknown #
point $-1 -79.661854915005961 -30.434412981176436 4.4734275655803994 #
straight-curve $-1 79.661854915005961 -40.888968756950916 0 0 0 -1 I I #
straight-curve $-1 79.661854915005961 40.888968756950916 0 0 0 -1 I I #
coedge $-1 $504 $503 $615 $619 forward $505 $-1 #
edge $-1 $506 -40.888968756950916 $617 40.888968756950916 $559 $620 forward 7 unknown #
point $-1 79.661854915005961 40.888968756950916 -9.2001739541115146 #
edge $-1 $557 -1.4734275655803994 $573 9.2001739541115146 $508 $514 forward 7 unknown #
vertex $-1 $509 $621 #
straight-curve $-1 -79.661854915005961 0 -9.2001739541115146 0 1 0 I I #
face $-1 $622 $623 $15 $-1 $624 reversed single #
loop $-1 $-1 $522 $516 #
plane-surface $-1 79.661854915005961 0 0 -1 0 0 0 0 1 forward_v I I I I #
coedge $-1 $586 $625 $588 $626 reversed $517 $-1 #
coedge $-1 $627 $519 $625 $628 reversed $445 $-1 #
coedge $-1 $519 $627 $629 $630 reversed $445 $-1 #
coedge $-1 $631 $588 $519 $582 forward $576 $-1 #
edge $-1 $632 12.603567546644598 $633 23.058123322419078 $581 $634 forward 7 unknown #
coedge $-1 $521 $520 $608 $635 reversed $367 $-1 #
coedge $-1 $604 $603 $520 $585 forward $605 $-1 #
edge $-1 $636 -79.661854915005961 $590 79.661854915005961 $584 $637 forward 7 unknown #
coedge $-1 $638 $578 $521 $587 forward $517 $-1 #
edge $-1 $591 -79.661854915005961 $639 79.661854915005961 $586 $640 forward 7 unknown #
coedge $-1 $581 $522 $578 $626 forward $576 $-1 #
coedge $-1 $522 $593 $604 $641 forward $576 $-1 #
vertex $-1 $585 $642 #
vertex $-1 $523 $643 #
straight-curve $-1 79.661854915005961 -17.830845434531838 4.4734275655803994 0 1 0 I I #
coedge $-1 $589 $644 $524 $594 reversed $576 $-1 #
edge $-1 $606 -40.888968756950916 $596 40.888968756950916 $593 $645 forward 7 unknown #
coedge $-1 $533 $525 $644 $646 forward $380 $-1 #
vertex $-1 $594 $647 #
point $-1 53.046773917795605 40.888968756950916 5.8567395314695432 #
coedge $-1 $648 $649 $533 $599 forward $650 $-1 #
edge $-1 $601 -79.661854915005961 $651 79.661854915005961 $533 $652 forward 7 unknown #
coedge $-1 $653 $534 $649 $654 reversed $540 $-1 #
vertex $-1 $599 $655 #
straight-curve $-1 -79.661854915005961 40.888968756950916 0 0 0 -1 I I #
coedge $-1 $584 $537 $539 $609 forward $605 $-1 #
coedge $-1 $537 $584 $589 $641 reversed $605 $-1 #
loop $-1 $-1 $584 $656 #
vertex $-1 $594 $657 #
straight-curve $-1 0 -40.888968756950916 9.2001739541115146 1 0 0 I I #
coedge $-1 $539 $658 $583 $635 forward $540 $-1 #
edge $-1 $541 -9.2001739541115146 $636 -4.4734275655803994 $539 $659 forward 7 unknown #
face $-1 $459 $540 $15 $-1 $660 reversed single #
point $-1 -79.661854915005961 -40.888968756950916 9.2001739541115146 #
point $-1 -79.661854915005961 40.888968756950916 -9.2001739541115146 #
straight-curve $-1 -79.661854915005961 -17.830845434531838 1.4734275655803994 0 1 0 I I #
point $-1 -79.661854915005961 -30.434412981176436 1.4734275655803994 #
coedge $-1 $556 $555 $569 $619 reversed $478 $-1 #
point $-1 -79.661854915005961 -40.888968756950916 1.4734275655803994 #
vertex $-1 $560 $661 #
straight-curve $-1 -79.661854915005961 -30.434412981176436 1.4867137827901997 0 0 1 I I #
edge $-1 $617 -79.661854915005961 $573 79.661854915005961 $615 $662 forward 7 unknown #
straight-curve $-1 79.661854915005961 0 -9.2001739541115146 0 -1 0 I I #
point $-1 -79.661854915005961 -40.888968756950916 -9.2001739541115146 #
face $-1 $656 $650 $15 $-1 $663 reversed single #
loop $-1 $-1 $629 $575 #
plane-surface $-1 0 -40.888968756950916 0 0 1 0 0 0 1 forward_v I I I I #
coedge $-1 $578 $638 $579 $628 forward $517 $-1 #
edge $-1 $591 -2.9867137827901997 $632 0.013286217209800277 $588 $664 forward 7 unknown #
coedge $-1 $580 $579 $665 $666 reversed $445 $-1 #
edge $-1 $667 -79.661854915005961 $632 79.661854915005961 $625 $668 forward 7 unknown #
coedge $-1 $669 $670 $580 $630 forward $623 $-1 #
edge $-1 $633 -79.661854915005961 $671 79.661854915005961 $629 $672 forward 7 unknown #
coedge $-1 $673 $581 $670 $674 forward $576 $-1 #
vertex $-1 $582 $675 #
vertex $-1 $674 $676 #
straight-curve $-1 79.661854915005961 -17.830845434531838 1.4734275655803994 0 -1 0 I I #
edge $-1 $639 12.603567546644598 $636 23.058123322419078 $608 $677 forward 7 unknown #
vertex $-1 $635 $678 #
straight-curve $-1 0 -40.888968756950916 4.4734275655803994 1 0 0 I I #
coedge $-1 $625 $586 $658 $679 reversed $517 $-1 #
vertex $-1 $635 $680 #
straight-curve $-1 0 -30.434412981176436 4.4734275655803994 -1 0 0 I I #
edge $-1 $606 -9.2001739541115146 $590 -4.4734275655803994 $589 $681 forward 7 unknown #
point $-1 79.661854915005961 -40.888968756950916 4.4734275655803994 #
point $-1 79.661854915005961 -30.434412981176436 4.4734275655803994 #
coedge $-1 $593 $673 $595 $646 reversed $576 $-1 #
straight-curve $-1 79.661854915005961 0 9.2001739541115146 0 1 0 I I #
edge $-1 $596 -9.2001739541115146 $651 9.2001739541115146 $644 $682 forward 7 unknown #
point $-1 79.661854915005961 40.888968756950916 9.2001739541115146 #
coedge $-1 $683 $598 $673 $684 forward $650 $-1 #
coedge $-1 $598 $683 $600 $654 forward $650 $-1 #
loop $-1 $-1 $648 $622 #
vertex $-1 $684 $685 #
straight-curve $-1 0 40.888968756950916 -9.2001739541115146 1 0 0 I I #
coedge $-1 $665 $600 $669 $686 reversed $540 $-1 #
edge $-1 $687 -40.888968756950916 $601 40.888968756950916 $600 $688 forward 7 unknown #
point $-1 -79.661854915005961 40.888968756950916 -9.2001739541115146 #
face $-1 $610 $605 $15 $-1 $624 reversed single #
point $-1 79.661854915005961 -40.888968756950916 9.2001739541115146 #
coedge $-1 $608 $665 $638 $679 forward $540 $-1 #
straight-curve $-1 -79.661854915005961 -40.888968756950916 0 0 0 -1 I I #
plane-surface $-1 -79.661854915005961 0 0 1 0 0 0 0 -1 forward_v I I I I #
point $-1 79.661854915005961 -40.888968756950916 -9.2001739541115146 #
straight-curve $-1 0 -40.888968756950916 -9.2001739541115146 -1 0 0 I I #
plane-surface $-1 0 0 -9.2001739541115146 0 0 1 1 0 0 forward_v I I I I #
straight-curve $-1 79.661854915005961 -30.434412981176436 1.4867137827901997 0 0 -1 I I #
coedge $-1 $658 $653 $627 $666 forward $540 $-1 #
edge $-1 $671 -23.058123322419078 $667 -12.603567546644598 $665 $689 forward 7 unknown #
vertex $-1 $666 $690 #
straight-curve $-1 0 -30.434412981176436 1.4734275655803994 1 0 0 I I #
coedge $-1 $691 $629 $653 $686 forward $623 $-1 #
coedge $-1 $629 $691 $631 $674 reversed $623 $-1 #
vertex $-1 $686 $692 #
straight-curve $-1 0 -40.888968756950916 1.4734275655803994 -1 0 0 I I #
coedge $-1 $644 $631 $648 $684 reversed $576 $-1 #
edge $-1 $633 -1.4734275655803994 $693 9.2001739541115146 $631 $681 forward 7 unknown #
point $-1 79.661854915005961 -30.434412981176436 1.4734275655803994 #
point $-1 79.661854915005961 -40.888968756950916 1.4734275655803994 #
straight-curve $-1 -79.661854915005961 -17.830845434531838 4.4734275655803994 0 -1 0 I I #
point $-1 -79.661854915005961 -40.888968756950916 4.4734275655803994 #
edge $-1 $667 -0.013286217209800277 $639 2.9867137827901997 $658 $694 forward 7 unknown #
point $-1 -79.661854915005961 -30.434412981176436 4.4734275655803994 #
straight-curve $-1 79.661854915005961 -40.888968756950916 0 0 0 -1 I I #
straight-curve $-1 79.661854915005961 40.888968756950916 0 0 0 -1 I I #
coedge $-1 $649 $648 $691 $695 forward $650 $-1 #
edge $-1 $651 -40.888968756950916 $693 40.888968756950916 $673 $696 forward 7 unknown #
point $-1 79.661854915005961 40.888968756950916 -9.2001739541115146 #
edge $-1 $671 -1.4734275655803994 $687 9.2001739541115146 $653 $659 forward 7 unknown #
vertex $-1 $654 $697 #
straight-curve $-1 -79.661854915005961 0 -9.2001739541115146 0 1 0 I I #
straight-curve $-1 -79.661854915005961 -17.830845434531838 1.4734275655803994 0 1 0 I I #
point $-1 -79.661854915005961 -30.434412981176436 1.4734275655803994 #
coedge $-1 $670 $669 $683 $695 reversed $623 $-1 #
point $-1 -79.661854915005961 -40.888968756950916 1.4734275655803994 #
vertex $-1 $674 $698 #
straight-curve $-1 -79.661854915005961 -30.434412981176436 1.4867137827901997 0 0 1 I I #
edge $-1 $693 -79.661854915005961 $687 79.661854915005961 $691 $699 forward 7 unknown #
straight-curve $-1 79.661854915005961 0 -9.2001739541115146 0 -1 0 I I #
point $-1 -79.661854915005961 -40.888968756950916 -9.2001739541115146 #
point $-1 79.661854915005961 -40.888968756950916 -9.2001739541115146 #
straight-curve $-1 0 -40.888968756950916 -9.2001739541115146 -1 0 0 I I #
End-of-ACIS-data 