500 0 10 0           
7 Unknown 11 ACIS 5.0 NT 24 Thu Mar 25 16:47:37 1999 
-1 9.9999999999999995e-007 1e-010 
body $-1 $10 $-1 $11 #
body $-1 $12 $-1 $13 #
body $-1 $14 $-1 $15 #
body $-1 $16 $-1 $17 #
body $-1 $18 $-1 $19 #
body $-1 $20 $-1 $21 #
body $-1 $22 $-1 $23 #
body $-1 $24 $-1 $25 #
body $-1 $26 $-1 $27 #
body $-1 $28 $-1 $29 #
lump $-1 $-1 $30 $0 #
transform $-1 1 0 0 0 1 0 0 0 1 72.86721396526994 37.197926616408679 10.705287874550477 1 rotate no_reflect no_shear #
lump $-1 $-1 $31 $1 #
transform $-1 1 0 0 0 1 0 0 0 1 72.86721396526994 37.197926616408679 10.705287874550477 1 rotate no_reflect no_shear #
lump $-1 $-1 $32 $2 #
transform $-1 1 0 0 0 1 0 0 0 1 72.86721396526994 37.197926616408679 10.705287874550477 1 rotate no_reflect no_shear #
lump $-1 $-1 $33 $3 #
transform $-1 1 0 0 0 1 0 0 0 1 72.86721396526994 37.197926616408679 10.705287874550477 1 rotate no_reflect no_shear #
lump $-1 $-1 $34 $4 #
transform $-1 1 0 0 0 1 0 0 0 1 72.86721396526994 37.197926616408679 10.705287874550477 1 rotate no_reflect no_shear #
lump $-1 $-1 $35 $5 #
transform $-1 1 0 0 0 1 0 0 0 1 72.86721396526994 37.197926616408679 10.705287874550477 1 rotate no_reflect no_shear #
lump $-1 $-1 $36 $6 #
transform $-1 1 0 0 0 1 0 0 0 1 72.86721396526994 37.197926616408679 10.705287874550477 1 rotate no_reflect no_shear #
lump $-1 $-1 $37 $7 #
transform $-1 1 0 0 0 1 0 0 0 1 72.86721396526994 37.197926616408679 10.705287874550477 1 rotate no_reflect no_shear #
lump $-1 $-1 $38 $8 #
transform $-1 1 0 0 0 1 0 0 0 1 72.86721396526994 37.197926616408679 10.705287874550477 1 rotate no_reflect no_shear #
lump $-1 $-1 $39 $9 #
transform $-1 1 0 0 0 1 0 0 0 1 72.86721396526994 37.197926616408679 10.705287874550477 1 rotate no_reflect no_shear #
shell $-1 $-1 $-1 $40 $-1 $10 #
shell $-1 $-1 $-1 $41 $-1 $12 #
shell $-1 $-1 $-1 $42 $-1 $14 #
shell $-1 $-1 $-1 $43 $-1 $16 #
shell $-1 $-1 $-1 $44 $-1 $18 #
shell $-1 $-1 $-1 $45 $-1 $20 #
shell $-1 $-1 $-1 $46 $-1 $22 #
shell $-1 $-1 $-1 $47 $-1 $24 #
shell $-1 $-1 $-1 $48 $-1 $26 #
shell $-1 $-1 $-1 $49 $-1 $28 #
face $-1 $50 $51 $30 $-1 $52 forward single #
face $-1 $53 $54 $31 $-1 $55 reversed single #
face $-1 $56 $57 $32 $-1 $58 reversed single #
face $-1 $59 $60 $33 $-1 $61 forward single #
face $-1 $62 $63 $34 $-1 $64 forward single #
face $-1 $65 $66 $35 $-1 $67 forward single #
face $-1 $68 $69 $36 $-1 $70 reversed single #
face $-1 $71 $72 $37 $-1 $73 forward single #
face $-1 $74 $75 $38 $-1 $76 forward single #
face $-1 $77 $78 $39 $-1 $79 forward single #
face $-1 $80 $81 $30 $-1 $82 reversed single #
loop $-1 $-1 $83 $40 #
plane-surface $-1 0 0 10.705287874550477 0 0 1 1 0 0 forward_v I I I I #
face $-1 $84 $85 $31 $-1 $86 reversed single #
loop $-1 $-1 $87 $41 #
plane-surface $-1 0 -31.234296840943973 5.469246532643357 0 0 1 1 0 0 forward_v I I I I #
face $-1 $88 $89 $32 $-1 $90 reversed single #
loop $-1 $-1 $91 $42 #
plane-surface $-1 -72.867213965269912 -22.068119774103202 0.85055165997034976 -0.64278761758704617 0 0.76604443648966558 0.76604443648966558 0 0.64278761758704617 forward_v I I I I #
face $-1 $92 $93 $33 $-1 $94 forward single #
loop $-1 $95 $96 $43 #
cone-surface $-1 -66.542585322673318 -23.98964814892884 5.2387464731641664 0.64278761758704617 0 -0.76604443648966558 0.38302221824483279 0 0.32139380879352308 1 I I 0 1 0.5 forward I I I I #
face $-1 $97 $98 $34 $-1 $99 forward single #
loop $-1 $100 $101 $44 #
cone-surface $-1 -66.542585322673318 -22.068119774103202 5.2387464731641664 0.64278761758704617 0 -0.76604443648966558 0.38302221824483279 0 0.32139380879352308 1 I I 0 1 0.5 forward I I I I #
face $-1 $102 $103 $35 $-1 $104 forward single #
loop $-1 $105 $106 $45 #
cone-surface $-1 -66.542585322673318 -20.146591399277565 5.2387464731641664 0.64278761758704617 0 -0.76604443648966558 0.38302221824483279 0 0.32139380879352308 1 I I 0 1 0.5 forward I I I I #
face $-1 $107 $108 $36 $-1 $109 reversed single #
loop $-1 $-1 $110 $46 #
plane-surface $-1 108.65603758007612 -12.506804595323072 207.73317622348932 0 -1 0 -0.81915205242281985 0 -0.57357642473473569 forward_v I I I I #
face $-1 $111 $112 $37 $-1 $113 forward single #
loop $-1 $114 $115 $47 #
cone-surface $-1 70.062445549480344 -22.717894571448028 7.2273781364512821 -0.81915205242281985 0 -0.57357642473473569 0.57357642473473569 0 -0.81915205242281985 1 I I 0 1 1 forward I I I I #
face $-1 $116 $117 $38 $-1 $118 forward single #
loop $-1 $119 $120 $48 #
cone-surface $-1 70.062445549480344 -18.888735830401167 7.2273781364512821 -0.81915205242281985 0 -0.57357642473473569 0.57357642473473569 0 -0.81915205242281985 1 I I 0 1 1 forward I I I I #
face $-1 $121 $122 $39 $-1 $123 forward single #
loop $-1 $124 $125 $49 #
cone-surface $-1 70.062445549480344 -15.05957708935431 7.2273781364512821 -0.81915205242281985 0 -0.57357642473473569 0.57357642473473569 0 -0.81915205242281985 1 I I 0 1 1 forward I I I I #
face $-1 $126 $127 $30 $-1 $128 reversed single #
loop $-1 $-1 $129 $50 #
plane-surface $-1 0 0 -10.705287874550477 0 0 1 1 0 0 forward_v I I I I #
coedge $-1 $130 $131 $132 $133 forward $51 $-1 #
face $-1 $134 $135 $31 $-1 $136 reversed single #
loop $-1 $-1 $137 $53 #
plane-surface $-1 0 -25.270667065479266 8.0872672035969178 0 -1 0 0 0 -1 forward_v I I I I #
coedge $-1 $138 $139 $140 $141 reversed $54 $-1 #
face $-1 $142 $143 $32 $-1 $144 forward single #
loop $-1 $-1 $145 $56 #
plane-surface $-1 -166.54349969515272 -18.865572482727138 112.48959938116455 0 -1 0 0.64278761758704617 0 -0.76604443648966558 forward_v I I I I #
coedge $-1 $146 $147 $148 $149 reversed $57 $-1 #
face $-1 $-1 $150 $33 $-1 $151 forward single #
loop $-1 $152 $153 $59 #
cone-surface $-1 -65.929468296583835 -23.98964814892884 4.5080620699454936 0.64278761758704617 0 -0.76604443648966558 0.1915111091224164 0 0.16069690439676154 1 I I -0.70710678118654746 0.70710678118654746 0.25 forward I I I I #
loop $-1 $-1 $154 $43 #
coedge $-1 $96 $96 $155 $156 reversed $60 $-1 #
face $-1 $-1 $157 $34 $-1 $158 forward single #
loop $-1 $159 $160 $62 #
cone-surface $-1 -65.929468296583835 -22.068119774103202 4.5080620699454936 0.64278761758704617 0 -0.76604443648966558 0.1915111091224164 0 0.16069690439676154 1 I I -0.70710678118654746 0.70710678118654746 0.25 forward I I I I #
loop $-1 $-1 $161 $44 #
coedge $-1 $101 $101 $162 $163 reversed $63 $-1 #
face $-1 $-1 $164 $35 $-1 $165 forward single #
loop $-1 $166 $167 $65 #
cone-surface $-1 -65.929468296583835 -20.146591399277565 4.5080620699454936 0.64278761758704617 0 -0.76604443648966558 0.1915111091224164 0 0.16069690439676154 1 I I -0.70710678118654746 0.70710678118654746 0.25 forward I I I I #
loop $-1 $-1 $168 $45 #
coedge $-1 $106 $106 $169 $170 reversed $66 $-1 #
face $-1 $171 $172 $36 $-1 $173 forward single #
loop $-1 $-1 $174 $68 #
plane-surface $-1 -10.722618167891156 -18.888735830401167 124.14334409032826 0.81915205242281985 0 0.57357642473473569 0.57357642473473569 0 -0.81915205242281985 forward_v I I I I #
coedge $-1 $175 $176 $177 $178 reversed $69 $-1 #
face $-1 $-1 $179 $37 $-1 $180 forward single #
loop $-1 $181 $182 $71 #
cone-surface $-1 68.927927331668144 -22.717894571448028 6.4329799520794513 -0.81915205242281985 0 -0.57357642473473569 0.28678821236736785 0 -0.40957602621140993 1 I I -0.70710678118654746 0.70710678118654746 0.5 forward I I I I #
loop $-1 $-1 $183 $47 #
coedge $-1 $115 $115 $184 $185 reversed $72 $-1 #
face $-1 $-1 $186 $38 $-1 $187 forward single #
loop $-1 $188 $189 $74 #
cone-surface $-1 68.927927331668144 -18.888735830401167 6.4329799520794513 -0.81915205242281985 0 -0.57357642473473569 0.28678821236736785 0 -0.40957602621140993 1 I I -0.70710678118654746 0.70710678118654746 0.5 forward I I I I #
loop $-1 $-1 $190 $48 #
coedge $-1 $120 $120 $191 $192 reversed $75 $-1 #
face $-1 $-1 $193 $39 $-1 $194 forward single #
loop $-1 $195 $196 $77 #
cone-surface $-1 68.927927331668144 -15.05957708935431 6.4329799520794513 -0.81915205242281985 0 -0.57357642473473569 0.28678821236736785 0 -0.40957602621140993 1 I I -0.70710678118654746 0.70710678118654746 0.5 forward I I I I #
loop $-1 $-1 $197 $49 #
coedge $-1 $125 $125 $198 $199 reversed $78 $-1 #
face $-1 $200 $201 $30 $-1 $202 reversed single #
loop $-1 $-1 $203 $80 #
plane-surface $-1 0 -37.197926616408679 0 0 1 0 0 0 1 forward_v I I I I #
coedge $-1 $204 $205 $206 $207 forward $81 $-1 #
coedge $-1 $208 $83 $209 $210 forward $51 $-1 #
coedge $-1 $83 $208 $211 $212 forward $51 $-1 #
coedge $-1 $213 $214 $83 $133 reversed $215 $-1 #
edge $-1 $216 -37.197926616408679 $217 37.197926616408679 $132 $218 forward 7 unknown #
face $-1 $219 $220 $31 $-1 $221 reversed single #
loop $-1 $-1 $222 $84 #
plane-surface $-1 -72.86721396526994 0 0 1 0 0 0 0 -1 forward_v I I I I #
coedge $-1 $223 $224 $225 $226 reversed $85 $-1 #
coedge $-1 $227 $87 $228 $229 reversed $54 $-1 #
coedge $-1 $87 $227 $223 $230 forward $54 $-1 #
coedge $-1 $225 $231 $87 $141 forward $232 $-1 #
edge $-1 $233 -21.580778195936695 $234 -9.6535186450072796 $140 $235 forward 7 unknown #
face $-1 $236 $237 $32 $-1 $238 reversed single #
loop $-1 $-1 $148 $88 #
plane-surface $-1 0 0 10.705287874550477 0 0 1 1 0 0 forward_v I I I I #
coedge $-1 $239 $240 $241 $242 reversed $89 $-1 #
coedge $-1 $243 $91 $244 $245 reversed $57 $-1 #
coedge $-1 $91 $243 $239 $246 forward $57 $-1 #
coedge $-1 $241 $247 $91 $149 forward $143 $-1 #
edge $-1 $248 -14.236607178427665 $249 -7.8315125956755374 $148 $250 forward 7 unknown #
loop $-1 $-1 $155 $92 #
plane-surface $-1 -72.867213965269912 -22.068119774103202 0.85055165997034976 -0.64278761758704617 0 0.76604443648966558 0.76604443648966558 0 0.64278761758704617 forward_v I I I I #
loop $-1 $-1 $251 $59 #
coedge $-1 $153 $153 $154 $252 reversed $93 $-1 #
coedge $-1 $154 $154 $153 $252 forward $95 $-1 #
coedge $-1 $155 $155 $96 $156 forward $150 $-1 #
edge $-1 $253 0 $253 6.2831853071796004 $155 $254 forward 7 unknown #
loop $-1 $-1 $162 $97 #
plane-surface $-1 -72.867213965269912 -22.068119774103202 0.85055165997034976 -0.64278761758704617 0 0.76604443648966558 0.76604443648966558 0 0.64278761758704617 forward_v I I I I #
loop $-1 $-1 $255 $62 #
coedge $-1 $160 $160 $161 $256 reversed $98 $-1 #
coedge $-1 $161 $161 $160 $256 forward $100 $-1 #
coedge $-1 $162 $162 $101 $163 forward $157 $-1 #
edge $-1 $257 0 $257 6.2831853071796004 $162 $258 forward 7 unknown #
loop $-1 $-1 $169 $102 #
plane-surface $-1 -72.867213965269912 -22.068119774103202 0.85055165997034976 -0.64278761758704617 0 0.76604443648966558 0.76604443648966558 0 0.64278761758704617 forward_v I I I I #
loop $-1 $-1 $259 $65 #
coedge $-1 $167 $167 $168 $260 reversed $103 $-1 #
coedge $-1 $168 $168 $167 $260 forward $105 $-1 #
coedge $-1 $169 $169 $106 $170 forward $164 $-1 #
edge $-1 $261 0 $261 6.2831853071796004 $169 $262 forward 7 unknown #
face $-1 $263 $264 $36 $-1 $265 forward single #
loop $-1 $-1 $266 $107 #
plane-surface $-1 0 -25.270667065479266 8.0872672035969178 0 -1 0 0 0 -1 forward_v I I I I #
coedge $-1 $267 $268 $269 $270 reversed $108 $-1 #
coedge $-1 $176 $110 $271 $272 reversed $69 $-1 #
coedge $-1 $110 $175 $267 $273 reversed $69 $-1 #
coedge $-1 $269 $274 $110 $178 forward $264 $-1 #
edge $-1 $275 -18.539195175231882 $276 -14.379542726854297 $177 $277 forward 7 unknown #
loop $-1 $-1 $184 $111 #
plane-surface $-1 -10.722618167891156 -18.888735830401167 124.14334409032826 0.81915205242281985 0 0.57357642473473569 0.57357642473473569 0 -0.81915205242281985 forward_v I I I I #
loop $-1 $-1 $278 $71 #
coedge $-1 $182 $182 $183 $279 reversed $112 $-1 #
coedge $-1 $183 $183 $182 $279 forward $114 $-1 #
coedge $-1 $184 $184 $115 $185 forward $179 $-1 #
edge $-1 $280 0 $280 6.2831853071796004 $184 $281 forward 7 unknown #
loop $-1 $-1 $191 $116 #
plane-surface $-1 -10.722618167891156 -18.888735830401167 124.14334409032826 0.81915205242281985 0 0.57357642473473569 0.57357642473473569 0 -0.81915205242281985 forward_v I I I I #
loop $-1 $-1 $282 $74 #
coedge $-1 $189 $189 $190 $283 reversed $117 $-1 #
coedge $-1 $190 $190 $189 $283 forward $119 $-1 #
coedge $-1 $191 $191 $120 $192 forward $186 $-1 #
edge $-1 $284 0 $284 6.2831853071796004 $191 $285 forward 7 unknown #
loop $-1 $-1 $198 $121 #
plane-surface $-1 -10.722618167891156 -18.888735830401167 124.14334409032826 0.81915205242281985 0 0.57357642473473569 0.57357642473473569 0 -0.81915205242281985 forward_v I I I I #
loop $-1 $-1 $286 $77 #
coedge $-1 $196 $196 $197 $287 reversed $122 $-1 #
coedge $-1 $197 $197 $196 $287 forward $124 $-1 #
coedge $-1 $198 $198 $125 $199 forward $193 $-1 #
edge $-1 $288 0 $288 6.2831853071796004 $198 $289 forward 7 unknown #
face $-1 $290 $291 $30 $-1 $292 reversed single #
loop $-1 $-1 $293 $126 #
plane-surface $-1 -72.86721396526994 0 0 1 0 0 0 0 -1 forward_v I I I I #
coedge $-1 $294 $211 $295 $296 forward $127 $-1 #
coedge $-1 $297 $129 $294 $298 forward $81 $-1 #
coedge $-1 $129 $297 $299 $300 forward $81 $-1 #
coedge $-1 $214 $213 $129 $207 reversed $215 $-1 #
edge $-1 $301 -37.197926616408679 $302 37.197926616408679 $206 $303 forward 7 unknown #
coedge $-1 $131 $130 $304 $305 forward $51 $-1 #
coedge $-1 $306 $307 $130 $210 reversed $291 $-1 #
edge $-1 $217 -72.86721396526994 $308 72.86721396526994 $209 $309 forward 7 unknown #
coedge $-1 $203 $310 $131 $212 reversed $127 $-1 #
edge $-1 $311 -72.86721396526994 $216 72.86721396526994 $211 $312 forward 7 unknown #
coedge $-1 $206 $132 $310 $313 forward $215 $-1 #
coedge $-1 $132 $206 $306 $314 reversed $215 $-1 #
loop $-1 $-1 $213 $290 #
vertex $-1 $133 $315 #
vertex $-1 $133 $316 #
straight-curve $-1 72.86721396526994 0 10.705287874550477 0 1 0 I I #
face $-1 $317 $318 $31 $-1 $319 forward single #
loop $-1 $-1 $228 $134 #
plane-surface $-1 0 -37.197926616408679 0 0 1 0 0 0 1 forward_v I I I I #
coedge $-1 $320 $321 $322 $323 forward $135 $-1 #
coedge $-1 $322 $137 $139 $230 reversed $85 $-1 #
coedge $-1 $137 $322 $324 $325 reversed $85 $-1 #
coedge $-1 $326 $140 $137 $226 forward $232 $-1 #
edge $-1 $234 1.4256129308448982 $327 6.6616542727520196 $225 $328 forward 7 unknown #
coedge $-1 $139 $138 $320 $329 reversed $54 $-1 #
coedge $-1 $330 $331 $138 $229 forward $220 $-1 #
edge $-1 $332 -72.86721396526994 $233 72.86721396526994 $228 $333 forward 7 unknown #
edge $-1 $334 -72.86721396526994 $234 72.86721396526994 $223 $335 forward 7 unknown #
coedge $-1 $140 $326 $330 $336 forward $232 $-1 #
loop $-1 $-1 $225 $317 #
vertex $-1 $229 $337 #
vertex $-1 $141 $338 #
straight-curve $-1 72.86721396526994 -15.617148420471986 5.469246532643357 0 1 0 I I #
face $-1 $-1 $339 $32 $-1 $340 forward single #
loop $-1 $-1 $341 $142 #
plane-surface $-1 -72.86721396526994 0 0 1 0 0 0 0 -1 forward_v I I I I #
coedge $-1 $240 $145 $147 $246 reversed $89 $-1 #
coedge $-1 $145 $239 $341 $342 reversed $89 $-1 #
coedge $-1 $343 $148 $145 $242 forward $143 $-1 #
edge $-1 $249 -22.148952924114241 $344 -10.404535882306419 $241 $345 forward 7 unknown #
coedge $-1 $147 $146 $346 $347 reversed $57 $-1 #
coedge $-1 $348 $349 $146 $245 forward $339 $-1 #
edge $-1 $350 -30.23559750202001 $248 -14.904349754009957 $244 $351 forward 7 unknown #
edge $-1 $352 -3.7115501063952265e-014 $249 15.331247748010021 $239 $353 forward 7 unknown #
coedge $-1 $148 $343 $348 $354 forward $143 $-1 #
vertex $-1 $245 $355 #
vertex $-1 $149 $356 #
straight-curve $-1 -61.122796923462118 -11.034059887051601 10.705287874550478 0 1 0 I I #
coedge $-1 $251 $251 $-1 $357 reversed $152 $-1 #
edge $-1 $358 0 $358 6.2831853071796004 $153 $359 forward 7 unknown #
vertex $-1 $156 $360 #
ellipse-curve $-1 -66.995005444366029 -23.98964814892884 5.7779197672604026 -0.64278761758704617 0 0.76604443648966558 0.38302221824483279 0 0.32139380879352308 1 I I #
coedge $-1 $255 $255 $-1 $361 reversed $159 $-1 #
edge $-1 $362 0 $362 6.2831853071796004 $160 $363 forward 7 unknown #
vertex $-1 $163 $364 #
ellipse-curve $-1 -66.995005444366029 -22.068119774103202 5.7779197672604026 -0.64278761758704617 0 0.76604443648966558 0.38302221824483279 0 0.32139380879352308 1 I I #
coedge $-1 $259 $259 $-1 $365 reversed $166 $-1 #
edge $-1 $366 0 $366 6.2831853071796004 $167 $367 forward 7 unknown #
vertex $-1 $170 $368 #
ellipse-curve $-1 -66.995005444366029 -20.146591399277565 5.7779197672604026 -0.64278761758704617 0 0.76604443648966558 0.38302221824483279 0 0.32139380879352308 1 I I #
face $-1 $-1 $369 $36 $-1 $370 reversed single #
loop $-1 $-1 $269 $171 #
plane-surface $-1 0 0 10.705287874550477 0 0 1 1 0 0 forward_v I I I I #
coedge $-1 $371 $372 $268 $373 reversed $172 $-1 #
coedge $-1 $374 $174 $176 $273 forward $108 $-1 #
coedge $-1 $174 $374 $266 $373 forward $108 $-1 #
coedge $-1 $375 $177 $174 $270 forward $264 $-1 #
edge $-1 $276 3.062436680122488 $376 15.826299150278683 $269 $377 forward 7 unknown #
coedge $-1 $378 $379 $175 $272 forward $369 $-1 #
edge $-1 $380 -99.101899769383721 $275 -93.161300237194183 $271 $381 forward 7 unknown #
edge $-1 $276 138.48229505164537 $380 145.73442793053997 $176 $382 forward 7 unknown #
coedge $-1 $177 $375 $378 $383 forward $264 $-1 #
vertex $-1 $272 $384 #
vertex $-1 $178 $385 #
straight-curve $-1 54.328018790038058 -12.506804595323072 10.705287874550478 -1 0 0 I I #
coedge $-1 $278 $278 $-1 $386 reversed $181 $-1 #
edge $-1 $387 0 $387 6.2831853071796004 $182 $388 forward 7 unknown #
vertex $-1 $185 $389 #
ellipse-curve $-1 70.787387741081133 -22.717894571448028 7.734988108455739 0.81915205242281985 0 0.57357642473473569 0.57357642473473569 0 -0.81915205242281985 1 I I #
coedge $-1 $282 $282 $-1 $390 reversed $188 $-1 #
edge $-1 $391 0 $391 6.2831853071796004 $189 $392 forward 7 unknown #
vertex $-1 $192 $393 #
ellipse-curve $-1 70.787387741081133 -18.888735830401167 7.734988108455739 0.81915205242281985 0 0.57357642473473569 0.57357642473473569 0 -0.81915205242281985 1 I I #
coedge $-1 $286 $286 $-1 $394 reversed $195 $-1 #
edge $-1 $395 0 $395 6.2831853071796004 $196 $396 forward 7 unknown #
vertex $-1 $199 $397 #
ellipse-curve $-1 70.787387741081133 -15.05957708935431 7.734988108455739 0.81915205242281985 0 0.57357642473473569 0.57357642473473569 0 -0.81915205242281985 1 I I #
face $-1 $-1 $215 $30 $-1 $398 reversed single #
loop $-1 $-1 $306 $200 #
plane-surface $-1 0 37.197926616408679 0 0 -1 0 0 0 -1 forward_v I I I I #
coedge $-1 $399 $304 $307 $400 forward $201 $-1 #
coedge $-1 $310 $203 $204 $298 reversed $127 $-1 #
coedge $-1 $304 $399 $203 $296 reversed $201 $-1 #
edge $-1 $311 -10.705287874550477 $401 10.705287874550477 $295 $402 forward 7 unknown #
coedge $-1 $205 $204 $399 $403 forward $81 $-1 #
edge $-1 $302 -72.86721396526994 $401 72.86721396526994 $294 $404 forward 7 unknown #
coedge $-1 $307 $306 $205 $300 reversed $291 $-1 #
edge $-1 $405 -72.86721396526994 $301 72.86721396526994 $299 $406 forward 7 unknown #
vertex $-1 $207 $407 #
vertex $-1 $313 $408 #
straight-curve $-1 72.86721396526994 0 -10.705287874550477 0 -1 0 I I #
coedge $-1 $293 $295 $208 $305 reversed $201 $-1 #
edge $-1 $308 -37.197926616408679 $311 37.197926616408679 $304 $409 forward 7 unknown #
coedge $-1 $299 $209 $214 $314 forward $291 $-1 #
coedge $-1 $209 $299 $293 $400 reversed $291 $-1 #
vertex $-1 $210 $410 #
straight-curve $-1 0 37.197926616408679 10.705287874550477 -1 0 0 I I #
coedge $-1 $211 $294 $213 $313 reversed $127 $-1 #
vertex $-1 $305 $411 #
straight-curve $-1 0 -37.197926616408679 10.705287874550477 1 0 0 I I #
edge $-1 $216 -10.705287874550477 $302 10.705287874550477 $213 $412 forward 7 unknown #
edge $-1 $217 -10.705287874550477 $301 10.705287874550477 $214 $413 forward 7 unknown #
point $-1 72.86721396526994 -37.197926616408679 10.705287874550477 #
point $-1 72.86721396526994 37.197926616408679 10.705287874550477 #
face $-1 $-1 $232 $31 $-1 $414 reversed single #
loop $-1 $-1 $324 $219 #
plane-surface $-1 0 0 10.705287874550477 0 0 1 1 0 0 forward_v I I I I #
coedge $-1 $415 $222 $227 $329 forward $135 $-1 #
coedge $-1 $222 $415 $416 $417 reversed $135 $-1 #
coedge $-1 $224 $223 $222 $323 reversed $85 $-1 #
edge $-1 $418 -6.6616542727520196 $334 -1.4256129308448982 $222 $419 forward 7 unknown #
coedge $-1 $416 $420 $224 $325 forward $318 $-1 #
edge $-1 $327 -72.86721396526994 $418 72.86721396526994 $324 $421 forward 7 unknown #
coedge $-1 $231 $225 $420 $422 reversed $232 $-1 #
vertex $-1 $226 $423 #
straight-curve $-1 72.86721396526994 -25.270667065479266 4.0436336017984589 0 0 1 I I #
edge $-1 $334 9.6535186450072796 $332 21.580778195936695 $320 $424 forward 7 unknown #
coedge $-1 $425 $228 $231 $336 reversed $220 $-1 #
coedge $-1 $228 $425 $415 $426 forward $220 $-1 #
vertex $-1 $229 $427 #
straight-curve $-1 0 -37.197926616408679 5.469246532643357 1 0 0 I I #
vertex $-1 $329 $428 #
straight-curve $-1 0 -25.270667065479266 5.469246532643357 1 0 0 I I #
edge $-1 $429 -10.705287874550477 $233 -5.469246532643357 $231 $430 forward 7 unknown #
point $-1 72.86721396526994 -37.197926616408679 5.469246532643357 #
point $-1 72.86721396526994 -25.270667065479266 5.469246532643357 #
loop $-1 $-1 $244 $236 #
plane-surface $-1 0 -25.270667065479266 8.0872672035969178 0 -1 0 0 0 -1 forward_v I I I I #
coedge $-1 $346 $431 $240 $342 forward $237 $-1 #
edge $-1 $344 45.539511816031798 $352 55.394248030611948 $341 $432 forward 7 unknown #
coedge $-1 $247 $241 $431 $433 forward $143 $-1 #
vertex $-1 $433 $434 #
straight-curve $-1 -83.271749847576359 -18.865572482727138 10.705287874550478 -1 0 0 I I #
coedge $-1 $435 $341 $243 $347 forward $237 $-1 #
edge $-1 $352 7.8315125956755374 $350 14.236607178427665 $346 $436 forward 7 unknown #
coedge $-1 $349 $244 $247 $354 reversed $339 $-1 #
coedge $-1 $244 $348 $435 $437 reversed $339 $-1 #
vertex $-1 $437 $438 #
straight-curve $-1 -49.705402714906683 -25.270667065479266 20.285619344614613 0.76604443648966558 0 0.64278761758704617 I I #
vertex $-1 $347 $439 #
straight-curve $-1 -72.867213965269912 -18.865572482727138 0.85055165997034976 0.76604443648966558 0 0.64278761758704617 I I #
edge $-1 $440 -72.86721396526994 $248 -61.122796923462126 $247 $441 forward 7 unknown #
point $-1 -61.122796923462126 -25.270667065479266 10.705287874550477 #
point $-1 -61.122796923462118 -18.865572482727138 10.705287874550477 #
edge $-1 $442 1 $442 0 $251 $-1 forward 7 unknown #
vertex $-1 $252 $443 #
ellipse-curve $-1 -66.090165200980593 -23.98964814892884 4.6995731790679098 -0.64278761758704617 0 0.76604443648966558 0.38302221824483279 0 0.32139380879352308 1 I I #
point $-1 -66.611983226121225 -23.98964814892884 6.0993135760539454 #
edge $-1 $444 1 $444 0 $255 $-1 forward 7 unknown #
vertex $-1 $256 $445 #
ellipse-curve $-1 -66.090165200980593 -22.068119774103202 4.6995731790679098 -0.64278761758704617 0 0.76604443648966558 0.38302221824483279 0 0.32139380879352308 1 I I #
point $-1 -66.611983226121225 -22.068119774103202 6.0993135760539454 #
edge $-1 $446 1 $446 0 $259 $-1 forward 7 unknown #
vertex $-1 $260 $447 #
ellipse-curve $-1 -66.090165200980593 -20.146591399277565 4.6995731790679098 -0.64278761758704617 0 0.76604443648966558 0.38302221824483279 0 0.32139380879352308 1 I I #
point $-1 -66.611983226121225 -20.146591399277565 6.0993135760539454 #
loop $-1 $-1 $271 $263 #
plane-surface $-1 72.86721396526994 0 0 -1 0 0 0 0 1 forward_v I I I I #
coedge $-1 $372 $266 $448 $449 reversed $172 $-1 #
coedge $-1 $266 $371 $375 $450 reversed $172 $-1 #
edge $-1 $451 -145.73442793053997 $376 -138.48229505164534 $266 $452 forward 7 unknown #
coedge $-1 $268 $267 $379 $453 reversed $108 $-1 #
coedge $-1 $274 $269 $372 $450 forward $264 $-1 #
vertex $-1 $450 $454 #
straight-curve $-1 68.707561516892369 -9.4443679152005835 10.705287874550478 0 -1 0 I I #
coedge $-1 $448 $271 $274 $383 reversed $369 $-1 #
coedge $-1 $271 $448 $374 $453 forward $369 $-1 #
vertex $-1 $272 $455 #
straight-curve $-1 72.86721396526994 -12.506804595323072 103.86658811174466 0 0 1 I I #
straight-curve $-1 -10.722618167891156 -12.506804595323072 124.14334409032826 0.57357642473473569 0 -0.81915205242281985 I I #
edge $-1 $456 -25.270667065479266 $275 -12.506804595323072 $378 $457 forward 7 unknown #
point $-1 72.86721396526994 -12.506804595323072 10.705287874550477 #
point $-1 68.707561516892355 -12.506804595323072 10.705287874550464 #
edge $-1 $458 1 $458 0 $278 $-1 forward 7 unknown #
vertex $-1 $279 $459 #
ellipse-curve $-1 69.337503357879555 -22.717894571448028 6.719768164446819 0.81915205242281985 0 0.57357642473473569 0.57357642473473569 0 -0.81915205242281985 1 I I #
point $-1 71.360964165815872 -22.717894571448028 6.9158360560329246 #
edge $-1 $460 1 $460 0 $282 $-1 forward 7 unknown #
vertex $-1 $283 $461 #
ellipse-curve $-1 69.337503357879555 -18.888735830401167 6.719768164446819 0.81915205242281985 0 0.57357642473473569 0.57357642473473569 0 -0.81915205242281985 1 I I #
point $-1 71.360964165815872 -18.888735830401167 6.9158360560329246 #
edge $-1 $462 1 $462 0 $286 $-1 forward 7 unknown #
vertex $-1 $287 $463 #
ellipse-curve $-1 69.337503357879555 -15.05957708935431 6.719768164446819 0.81915205242281985 0 0.57357642473473569 0.57357642473473569 0 -0.81915205242281985 1 I I #
point $-1 71.360964165815872 -15.05957708935431 6.9158360560329246 #
plane-surface $-1 72.86721396526994 0 0 -1 0 0 0 0 1 forward_v I I I I #
coedge $-1 $295 $293 $297 $403 reversed $201 $-1 #
edge $-1 $308 -10.705287874550477 $405 10.705287874550477 $307 $464 forward 7 unknown #
vertex $-1 $403 $465 #
straight-curve $-1 -72.86721396526994 -37.197926616408679 0 0 0 -1 I I #
edge $-1 $401 -37.197926616408679 $405 37.197926616408679 $399 $466 forward 7 unknown #
straight-curve $-1 0 -37.197926616408679 -10.705287874550477 -1 0 0 I I #
vertex $-1 $300 $467 #
straight-curve $-1 0 37.197926616408679 -10.705287874550477 1 0 0 I I #
point $-1 72.86721396526994 37.197926616408679 -10.705287874550477 #
point $-1 72.86721396526994 -37.197926616408679 -10.705287874550477 #
straight-curve $-1 -72.86721396526994 0 10.705287874550477 0 -1 0 I I #
point $-1 -72.86721396526994 37.197926616408679 10.705287874550477 #
point $-1 -72.86721396526994 -37.197926616408679 10.705287874550477 #
straight-curve $-1 72.86721396526994 -37.197926616408679 0 0 0 -1 I I #
straight-curve $-1 72.86721396526994 37.197926616408679 0 0 0 -1 I I #
plane-surface $-1 72.86721396526994 0 0 -1 0 0 0 0 1 forward_v I I I I #
coedge $-1 $321 $320 $331 $426 reversed $135 $-1 #
coedge $-1 $468 $324 $321 $417 forward $318 $-1 #
edge $-1 $418 25.270667065479266 $469 37.197926616408679 $321 $470 forward 7 unknown #
vertex $-1 $417 $471 #
straight-curve $-1 -72.86721396526994 -25.270667065479266 4.0436336017984589 0 0 -1 I I #
coedge $-1 $324 $468 $326 $422 forward $318 $-1 #
straight-curve $-1 0 -25.270667065479266 10.705287874550477 -1 0 0 I I #
edge $-1 $429 -37.197926616408679 $327 -25.270667065479266 $326 $472 forward 7 unknown #
point $-1 72.86721396526994 -25.270667065479266 10.705287874550478 #
straight-curve $-1 -72.86721396526994 -15.617148420471986 5.469246532643357 0 -1 0 I I #
coedge $-1 $331 $330 $468 $473 reversed $220 $-1 #
edge $-1 $469 -10.705287874550477 $332 -5.469246532643357 $415 $474 forward 7 unknown #
point $-1 -72.86721396526994 -37.197926616408679 5.469246532643357 #
point $-1 -72.86721396526994 -25.270667065479266 5.469246532643357 #
vertex $-1 $422 $475 #
straight-curve $-1 72.86721396526994 -37.197926616408679 0 0 0 -1 I I #
coedge $-1 $341 $435 $343 $433 reversed $237 $-1 #
straight-curve $-1 -72.86721396526994 -18.865572482727138 56.244799690582276 0 0 -1 I I #
edge $-1 $344 18.865572482727138 $440 25.270667065479266 $431 $476 forward 7 unknown #
point $-1 -72.86721396526994 -18.865572482727138 10.705287874550477 #
coedge $-1 $431 $346 $349 $437 forward $237 $-1 #
straight-curve $-1 -72.86721396526994 -11.034059887051601 0.85055165997032989 0 -1 0 I I #
edge $-1 $350 -55.394248030611948 $440 -45.539511816031798 $435 $477 forward 7 unknown #
point $-1 -72.86721396526994 -25.270667065479266 0.85055165997032589 #
point $-1 -72.86721396526994 -18.865572482727138 0.85055165997032589 #
vertex $-1 $437 $478 #
straight-curve $-1 0 -25.270667065479266 10.705287874550477 1 0 0 I I #
vertex $-1 $357 $479 #
point $-1 -65.70714298273576 -23.98964814892884 5.0209669878614331 #
vertex $-1 $361 $480 #
point $-1 -65.70714298273576 -22.068119774103202 5.0209669878614331 #
vertex $-1 $365 $481 #
point $-1 -65.70714298273576 -20.146591399277565 5.0209669878614331 #
coedge $-1 $379 $378 $371 $449 forward $369 $-1 #
edge $-1 $456 93.161300237194183 $451 99.101899769383721 $448 $482 forward 7 unknown #
edge $-1 $376 68.707561516892355 $456 72.86721396526994 $375 $483 forward 7 unknown #
vertex $-1 $449 $484 #
straight-curve $-1 -10.722618167891156 -25.270667065479262 124.14334409032826 -0.57357642473473569 0 0.81915205242281985 I I #
edge $-1 $451 -15.826299150278679 $380 -3.062436680122488 $379 $485 forward 7 unknown #
point $-1 68.707561516892355 -25.270667065479266 10.705287874550477 #
point $-1 72.86721396526994 -12.506804595323072 4.764688342360941 #
vertex $-1 $383 $486 #
straight-curve $-1 72.86721396526994 0 10.705287874550477 0 1 0 I I #
vertex $-1 $386 $487 #
point $-1 69.911079782614294 -22.717894571448028 5.9006161120239993 #
vertex $-1 $390 $488 #
point $-1 69.911079782614294 -18.888735830401167 5.9006161120239993 #
vertex $-1 $394 $489 #
point $-1 69.911079782614294 -15.05957708935431 5.9006161120239993 #
straight-curve $-1 -72.86721396526994 37.197926616408679 0 0 0 -1 I I #
point $-1 -72.86721396526994 -37.197926616408679 -10.705287874550477 #
straight-curve $-1 -72.86721396526994 0 -10.705287874550477 0 1 0 I I #
point $-1 -72.86721396526994 37.197926616408679 -10.705287874550477 #
coedge $-1 $420 $416 $425 $473 forward $318 $-1 #
vertex $-1 $417 $490 #
straight-curve $-1 -72.86721396526994 0 10.705287874550477 0 -1 0 I I #
point $-1 -72.86721396526994 -25.270667065479266 10.705287874550478 #
straight-curve $-1 72.86721396526994 0 10.705287874550477 0 1 0 I I #
edge $-1 $469 -72.86721396526994 $429 72.86721396526994 $425 $491 forward 7 unknown #
straight-curve $-1 -72.86721396526994 -37.197926616408679 0 0 0 -1 I I #
point $-1 72.86721396526994 -37.197926616408679 10.705287874550477 #
straight-curve $-1 -72.86721396526994 0 10.705287874550477 0 -1 0 I I #
straight-curve $-1 -72.86721396526994 -25.270667065479266 56.244799690582276 0 0 1 I I #
point $-1 -72.86721396526994 -25.270667065479266 10.705287874550478 #
point $-1 -65.768771392187077 -23.98964814892884 4.3165509608230774 #
point $-1 -65.768771392187077 -22.068119774103202 4.3165509608230774 #
point $-1 -65.768771392187077 -20.146591399277565 4.3165509608230774 #
straight-curve $-1 72.86721396526994 -25.270667065479262 103.86658811174466 0 0 -1 I I #
straight-curve $-1 0 -25.270667065479266 10.705287874550477 1 0 0 I I #
point $-1 72.86721396526994 -25.270667065479262 4.764688342360941 #
straight-curve $-1 72.86721396526994 -9.4443679152005835 4.7646883423609339 0 1 0 I I #
point $-1 72.86721396526994 -25.270667065479266 10.705287874550478 #
point $-1 68.518351305456733 -22.717894571448028 6.1461917397120835 #
point $-1 68.518351305456733 -18.888735830401167 6.1461917397120835 #
point $-1 68.518351305456733 -15.05957708935431 6.1461917397120835 #
point $-1 -72.86721396526994 -37.197926616408679 10.705287874550477 #
straight-curve $-1 0 -37.197926616408679 10.705287874550477 1 0 0 I I #
End-of-ACIS-data 