500 0 4 0           
7 Unknown 11 ACIS 5.0 NT 24 Fri Mar 26 00:14:58 1999 
-1 9.9999999999999995e-007 1e-010 
body $-1 $4 $-1 $5 #
body $-1 $6 $-1 $7 #
body $-1 $8 $-1 $9 #
body $-1 $10 $-1 $11 #
lump $-1 $-1 $12 $0 #
transform $-1 1 0 0 0 1 0 0 0 1 71.43162327951903 37.753445182023576 18.373450858613097 1 rotate no_reflect no_shear #
lump $-1 $-1 $13 $1 #
transform $-1 1 0 0 0 1 0 0 0 1 71.43162327951903 37.753445182023576 18.373450858613097 1 rotate no_reflect no_shear #
lump $-1 $-1 $14 $2 #
transform $-1 1 0 0 0 1 0 0 0 1 71.43162327951903 37.753445182023576 18.373450858613097 1 rotate no_reflect no_shear #
lump $-1 $-1 $15 $3 #
transform $-1 1 0 0 0 1 0 0 0 1 71.43162327951903 37.753445182023576 18.373450858613097 1 rotate no_reflect no_shear #
shell $-1 $-1 $-1 $16 $-1 $4 #
shell $-1 $-1 $-1 $17 $-1 $6 #
shell $-1 $-1 $-1 $18 $-1 $8 #
shell $-1 $-1 $-1 $19 $-1 $10 #
face $-1 $20 $21 $12 $-1 $22 forward single #
face $-1 $23 $24 $13 $-1 $25 forward single #
face $-1 $26 $27 $14 $-1 $28 reversed single #
face $-1 $29 $30 $15 $-1 $31 forward single #
face $-1 $32 $33 $12 $-1 $34 reversed single #
loop $-1 $-1 $35 $16 #
plane-surface $-1 0 0 18.373450858613097 0 0 1 1 0 0 forward_v I I I I #
face $-1 $36 $37 $13 $-1 $38 reversed single #
loop $-1 $-1 $39 $17 #
plane-surface $-1 0 -37.753445182023576 0 0 1 0 0 0 1 forward_v I I I I #
face $-1 $40 $41 $14 $-1 $42 reversed single #
loop $-1 $-1 $43 $18 #
plane-surface $-1 -54.681041689652133 52.23694067100093 165.86553537174959 -1 0 0 0 0.54463904215088732 0.83867056331134215 forward_v I I I I #
face $-1 $44 $45 $15 $-1 $46 forward single #
loop $-1 $47 $48 $19 #
cone-surface $-1 -63.056332484585582 25.875809823983801 9.3027315229317082 0 -0.54463904215088732 -0.83867056331134215 1.5 0 0 1 I I 0 1 1.5 forward I I I I #
face $-1 $49 $50 $12 $-1 $51 reversed single #
loop $-1 $-1 $52 $20 #
plane-surface $-1 0 0 -18.373450858613097 0 0 1 1 0 0 forward_v I I I I #
coedge $-1 $53 $54 $55 $56 forward $21 $-1 #
face $-1 $57 $58 $13 $-1 $59 reversed single #
loop $-1 $-1 $60 $23 #
plane-surface $-1 0 0 -18.373450858613097 0 0 1 1 0 0 forward_v I I I I #
coedge $-1 $61 $62 $63 $64 forward $24 $-1 #
face $-1 $65 $66 $14 $-1 $67 forward single #
loop $-1 $-1 $68 $26 #
plane-surface $-1 -63.056332484585582 -25.571961093479608 46.050335903593975 0 0.54463904215088732 0.83867056331134215 1 0 0 forward_v I I I I #
coedge $-1 $69 $70 $71 $72 reversed $27 $-1 #
face $-1 $-1 $73 $15 $-1 $74 forward single #
loop $-1 $75 $76 $29 #
cone-surface $-1 -63.056332484585582 23.943065924877274 6.3265669641097091 0 -0.54463904215088732 -0.83867056331134215 0.75 0 0 1 I I -0.70710678118654757 0.70710678118654757 0.75 forward I I I I #
loop $-1 $-1 $77 $19 #
coedge $-1 $48 $48 $78 $79 reversed $30 $-1 #
face $-1 $80 $81 $12 $-1 $82 reversed single #
loop $-1 $-1 $83 $32 #
plane-surface $-1 0 -37.753445182023576 0 0 1 0 0 0 1 forward_v I I I I #
coedge $-1 $84 $85 $86 $87 forward $33 $-1 #
coedge $-1 $88 $35 $89 $90 forward $21 $-1 #
coedge $-1 $35 $88 $91 $92 forward $21 $-1 #
coedge $-1 $93 $94 $35 $56 reversed $95 $-1 #
edge $-1 $96 -37.753445182023576 $97 37.753445182023576 $55 $98 forward 7 unknown #
face $-1 $99 $100 $13 $-1 $101 forward single #
loop $-1 $-1 $102 $36 #
plane-surface $-1 71.43162327951903 0 0 -1 0 0 0 0 1 forward_v I I I I #
coedge $-1 $103 $104 $105 $106 forward $37 $-1 #
coedge $-1 $105 $39 $102 $107 reversed $24 $-1 #
coedge $-1 $39 $105 $108 $109 reversed $24 $-1 #
coedge $-1 $110 $111 $39 $64 reversed $100 $-1 #
edge $-1 $112 -71.43162327951903 $113 71.43162327951903 $63 $114 forward 7 unknown #
face $-1 $115 $116 $14 $-1 $117 reversed single #
loop $-1 $-1 $118 $40 #
plane-surface $-1 0 0 18.373450858613097 0 0 1 1 0 0 forward_v I I I I #
coedge $-1 $119 $120 $121 $122 reversed $41 $-1 #
coedge $-1 $70 $43 $123 $124 reversed $27 $-1 #
coedge $-1 $43 $69 $119 $125 reversed $27 $-1 #
coedge $-1 $121 $126 $43 $72 forward $116 $-1 #
edge $-1 $127 64.559316827261696 $128 78.00643222594752 $71 $129 forward 7 unknown #
loop $-1 $-1 $78 $44 #
plane-surface $-1 -63.056332484585582 -25.571961093479608 46.050335903593975 0 0.54463904215088732 0.83867056331134215 1 0 0 forward_v I I I I #
loop $-1 $-1 $130 $29 #
coedge $-1 $76 $76 $77 $131 reversed $45 $-1 #
coedge $-1 $77 $77 $76 $131 forward $47 $-1 #
coedge $-1 $78 $78 $48 $79 forward $73 $-1 #
edge $-1 $132 -4.3928480582972053e-016 $132 6.2831853071796004 $78 $133 forward 7 unknown #
face $-1 $134 $135 $12 $-1 $136 reversed single #
loop $-1 $-1 $137 $49 #
plane-surface $-1 -71.43162327951903 0 0 1 0 0 0 0 -1 forward_v I I I I #
coedge $-1 $138 $91 $139 $140 forward $50 $-1 #
coedge $-1 $141 $52 $138 $142 forward $33 $-1 #
coedge $-1 $52 $141 $143 $144 forward $33 $-1 #
coedge $-1 $94 $93 $52 $87 reversed $95 $-1 #
edge $-1 $145 -37.753445182023576 $146 37.753445182023576 $86 $147 forward 7 unknown #
coedge $-1 $54 $53 $148 $149 forward $21 $-1 #
coedge $-1 $150 $151 $53 $90 reversed $135 $-1 #
edge $-1 $97 -71.43162327951903 $152 71.43162327951903 $89 $153 forward 7 unknown #
coedge $-1 $83 $154 $54 $92 reversed $50 $-1 #
edge $-1 $155 -71.43162327951903 $96 71.43162327951903 $91 $156 forward 7 unknown #
coedge $-1 $86 $55 $154 $157 forward $95 $-1 #
coedge $-1 $55 $86 $150 $158 reversed $95 $-1 #
loop $-1 $-1 $93 $134 #
vertex $-1 $56 $159 #
vertex $-1 $56 $160 #
straight-curve $-1 71.43162327951903 0 18.373450858613097 0 1 0 I I #
face $-1 $161 $162 $13 $-1 $163 reversed single #
loop $-1 $-1 $111 $57 #
plane-surface $-1 0 -47.128918049103426 -13.407286581309933 0 0 1 1 0 0 forward_v I I I I #
coedge $-1 $164 $165 $61 $107 forward $58 $-1 #
coedge $-1 $166 $60 $165 $167 forward $37 $-1 #
coedge $-1 $60 $166 $168 $169 forward $37 $-1 #
coedge $-1 $62 $61 $60 $106 reversed $24 $-1 #
edge $-1 $170 -71.43162327951903 $171 71.43162327951903 $60 $172 forward 7 unknown #
edge $-1 $171 -18.373450858613097 $113 -13.407286581309933 $102 $173 forward 7 unknown #
coedge $-1 $168 $174 $62 $109 forward $175 $-1 #
edge $-1 $112 13.407286581309933 $170 18.373450858613097 $108 $176 forward 7 unknown #
coedge $-1 $177 $63 $174 $178 forward $100 $-1 #
coedge $-1 $63 $177 $164 $179 forward $100 $-1 #
vertex $-1 $109 $180 #
vertex $-1 $179 $181 #
straight-curve $-1 0 -37.753445182023576 -13.407286581309933 1 0 0 I I #
face $-1 $-1 $182 $14 $-1 $183 reversed single #
loop $-1 $-1 $71 $65 #
plane-surface $-1 0 37.753445182023576 0 0 -1 0 0 0 -1 forward_v I I I I #
coedge $-1 $123 $184 $185 $186 forward $66 $-1 #
coedge $-1 $185 $68 $70 $125 forward $41 $-1 #
coedge $-1 $68 $185 $187 $188 reversed $41 $-1 #
coedge $-1 $189 $71 $68 $122 forward $116 $-1 #
edge $-1 $128 23.152875447359342 $190 39.903457037226239 $121 $191 forward 7 unknown #
coedge $-1 $192 $118 $69 $124 forward $66 $-1 #
edge $-1 $193 -9.0717666345697658 $127 11.634974846523111 $123 $194 forward 7 unknown #
edge $-1 $128 -75.506890364047166 $193 -50.816931771323965 $70 $195 forward 7 unknown #
coedge $-1 $71 $189 $192 $196 reversed $116 $-1 #
vertex $-1 $196 $197 #
vertex $-1 $72 $198 #
straight-curve $-1 -54.681041689652133 37.753445182023576 82.932767685874794 0 0 -1 I I #
coedge $-1 $130 $130 $-1 $199 reversed $75 $-1 #
edge $-1 $200 0 $200 6.2831853071796004 $76 $201 forward 7 unknown #
vertex $-1 $79 $202 #
ellipse-curve $-1 -63.056332484585582 27.400074441477148 11.649893159270176 0 0.54463904215088732 0.83867056331134215 1.5 0 0 1 I I #
face $-1 $-1 $95 $12 $-1 $203 reversed single #
loop $-1 $-1 $150 $80 #
plane-surface $-1 0 37.753445182023576 0 0 -1 0 0 0 -1 forward_v I I I I #
coedge $-1 $204 $148 $151 $205 forward $81 $-1 #
coedge $-1 $154 $83 $84 $142 reversed $50 $-1 #
coedge $-1 $148 $204 $83 $140 reversed $81 $-1 #
edge $-1 $155 -18.373450858613097 $206 18.373450858613097 $139 $207 forward 7 unknown #
coedge $-1 $85 $84 $204 $208 forward $33 $-1 #
edge $-1 $146 -71.43162327951903 $206 71.43162327951903 $138 $209 forward 7 unknown #
coedge $-1 $151 $150 $85 $144 reversed $135 $-1 #
edge $-1 $210 -71.43162327951903 $145 71.43162327951903 $143 $211 forward 7 unknown #
vertex $-1 $87 $212 #
vertex $-1 $157 $213 #
straight-curve $-1 71.43162327951903 0 -18.373450858613097 0 -1 0 I I #
coedge $-1 $137 $139 $88 $149 reversed $81 $-1 #
edge $-1 $152 -37.753445182023576 $155 37.753445182023576 $148 $214 forward 7 unknown #
coedge $-1 $143 $89 $94 $158 forward $135 $-1 #
coedge $-1 $89 $143 $137 $205 reversed $135 $-1 #
vertex $-1 $90 $215 #
straight-curve $-1 0 37.753445182023576 18.373450858613097 -1 0 0 I I #
coedge $-1 $91 $138 $93 $157 reversed $50 $-1 #
vertex $-1 $149 $216 #
straight-curve $-1 0 -37.753445182023576 18.373450858613097 1 0 0 I I #
edge $-1 $96 -18.373450858613097 $146 18.373450858613097 $93 $217 forward 7 unknown #
edge $-1 $97 -18.373450858613097 $145 18.373450858613097 $94 $218 forward 7 unknown #
point $-1 71.43162327951903 -37.753445182023576 18.373450858613097 #
point $-1 71.43162327951903 37.753445182023576 18.373450858613097 #
face $-1 $-1 $175 $13 $-1 $219 reversed single #
loop $-1 $-1 $220 $99 #
plane-surface $-1 0 -56.504390916183276 -15.890368719961515 0 1 0 0 0 1 forward_v I I I I #
coedge $-1 $221 $102 $111 $179 reversed $58 $-1 #
coedge $-1 $102 $221 $103 $167 reversed $58 $-1 #
coedge $-1 $104 $103 $222 $223 forward $37 $-1 #
edge $-1 $171 37.753445182023576 $224 56.504390916183276 $165 $225 forward 7 unknown #
coedge $-1 $226 $108 $104 $169 reversed $175 $-1 #
edge $-1 $227 -56.504390916183276 $170 -37.753445182023576 $168 $228 forward 7 unknown #
vertex $-1 $109 $229 #
vertex $-1 $167 $230 #
straight-curve $-1 0 -37.753445182023576 -18.373450858613097 1 0 0 I I #
straight-curve $-1 71.43162327951903 -37.753445182023576 0 0 0 1 I I #
coedge $-1 $108 $226 $110 $178 reversed $175 $-1 #
loop $-1 $-1 $108 $161 #
straight-curve $-1 -71.43162327951903 -37.753445182023576 0 0 0 -1 I I #
coedge $-1 $111 $110 $231 $232 forward $100 $-1 #
edge $-1 $112 -9.3754728670798499 $233 9.3754728670798499 $174 $234 forward 7 unknown #
edge $-1 $235 -9.3754728670798499 $113 9.3754728670798499 $164 $236 forward 7 unknown #
point $-1 -71.43162327951903 -37.753445182023576 -13.407286581309933 #
point $-1 71.43162327951903 -37.753445182023576 -13.407286581309933 #
loop $-1 $-1 $187 $115 #
plane-surface $-1 -71.43162327951903 0 0 1 0 0 0 0 -1 forward_v I I I I #
coedge $-1 $118 $192 $237 $238 forward $66 $-1 #
coedge $-1 $120 $119 $118 $186 reversed $41 $-1 #
edge $-1 $239 -39.903457037226239 $193 -23.152875447359342 $118 $240 forward 7 unknown #
coedge $-1 $237 $241 $120 $188 forward $182 $-1 #
edge $-1 $190 -52.243259437795004 $239 -27.55330084507181 $187 $242 forward 7 unknown #
coedge $-1 $126 $121 $241 $243 reversed $116 $-1 #
vertex $-1 $122 $244 #
straight-curve $-1 -31.528166242292791 37.753445182023576 4.926335459927266 -1 0 0 I I #
coedge $-1 $184 $123 $126 $196 forward $66 $-1 #
vertex $-1 $124 $245 #
straight-curve $-1 -54.681041689652133 26.118470335500465 18.373450858613097 0 1 0 I I #
straight-curve $-1 -54.681041689652133 -25.571961093479608 46.050335903593975 0 -0.83867056331134215 0.54463904215088732 I I #
edge $-1 $127 54.681041689652133 $246 71.43162327951903 $126 $247 forward 7 unknown #
point $-1 -54.681041689652133 37.753445182023576 18.373450858613097 #
point $-1 -54.681041689652133 37.753445182023583 4.926335459927266 #
edge $-1 $248 1 $248 0 $130 $-1 forward 7 unknown #
vertex $-1 $131 $249 #
ellipse-curve $-1 -63.056332484585582 24.351545206490439 6.9555698865932154 0 0.54463904215088732 0.83867056331134215 1.5 0 0 1 I I #
point $-1 -61.556332484585582 27.400074441477162 11.649893159270199 #
plane-surface $-1 71.43162327951903 0 0 -1 0 0 0 0 1 forward_v I I I I #
coedge $-1 $139 $137 $141 $208 reversed $81 $-1 #
edge $-1 $152 -18.373450858613097 $210 18.373450858613097 $151 $250 forward 7 unknown #
vertex $-1 $208 $251 #
straight-curve $-1 -71.43162327951903 -37.753445182023576 0 0 0 -1 I I #
edge $-1 $206 -37.753445182023576 $210 37.753445182023576 $204 $252 forward 7 unknown #
straight-curve $-1 0 -37.753445182023576 -18.373450858613097 -1 0 0 I I #
vertex $-1 $144 $253 #
straight-curve $-1 0 37.753445182023576 -18.373450858613097 1 0 0 I I #
point $-1 71.43162327951903 37.753445182023576 -18.373450858613097 #
point $-1 71.43162327951903 -37.753445182023576 -18.373450858613097 #
straight-curve $-1 -71.43162327951903 0 18.373450858613097 0 -1 0 I I #
point $-1 -71.43162327951903 37.753445182023576 18.373450858613097 #
point $-1 -71.43162327951903 -37.753445182023576 18.373450858613097 #
straight-curve $-1 71.43162327951903 -37.753445182023576 0 0 0 -1 I I #
straight-curve $-1 71.43162327951903 37.753445182023576 0 0 0 -1 I I #
plane-surface $-1 -71.43162327951903 0 0 1 0 0 0 0 -1 forward_v I I I I #
coedge $-1 $222 $231 $226 $254 forward $162 $-1 #
coedge $-1 $165 $164 $255 $256 forward $58 $-1 #
coedge $-1 $255 $220 $166 $223 reversed $162 $-1 #
edge $-1 $224 -71.43162327951903 $227 71.43162327951903 $222 $257 forward 7 unknown #
vertex $-1 $256 $258 #
straight-curve $-1 71.43162327951903 0 -18.373450858613097 0 -1 0 I I #
coedge $-1 $174 $168 $220 $254 reversed $175 $-1 #
vertex $-1 $169 $259 #
straight-curve $-1 -71.43162327951903 0 -18.373450858613097 0 1 0 I I #
point $-1 -71.43162327951903 -37.753445182023576 -18.373450858613097 #
point $-1 71.43162327951903 -37.753445182023576 -18.373450858613097 #
coedge $-1 $220 $255 $177 $232 reversed $162 $-1 #
edge $-1 $233 -71.43162327951903 $235 71.43162327951903 $231 $260 forward 7 unknown #
vertex $-1 $178 $261 #
straight-curve $-1 -71.43162327951903 -47.128918049103426 -13.407286581309933 0 -1 0 I I #
vertex $-1 $179 $262 #
straight-curve $-1 71.43162327951903 -47.128918049103426 -13.407286581309933 0 1 0 I I #
coedge $-1 $241 $187 $184 $238 reversed $182 $-1 #
edge $-1 $246 -37.753445182023576 $239 -17.046703700930699 $237 $263 forward 7 unknown #
vertex $-1 $188 $264 #
straight-curve $-1 -31.528166242292791 17.046703700930706 18.373450858613097 1 0 0 I I #
coedge $-1 $187 $237 $189 $243 forward $182 $-1 #
straight-curve $-1 -71.43162327951903 -6.0614386398925539 33.380054238968242 0 -0.83867056331134215 0.54463904215088732 I I #
edge $-1 $246 -18.373450858613097 $190 -4.9263354599272615 $189 $265 forward 7 unknown #
point $-1 -71.43162327951903 37.753445182023576 4.9263354599272615 #
point $-1 -54.681041689652133 17.046703700930699 18.373450858613097 #
vertex $-1 $196 $266 #
straight-curve $-1 0 37.753445182023576 18.373450858613097 -1 0 0 I I #
vertex $-1 $199 $267 #
point $-1 -61.556332484585582 24.351545206490439 6.9555698865932154 #
straight-curve $-1 -71.43162327951903 37.753445182023576 0 0 0 -1 I I #
point $-1 -71.43162327951903 -37.753445182023576 -18.373450858613097 #
straight-curve $-1 -71.43162327951903 0 -18.373450858613097 0 1 0 I I #
point $-1 -71.43162327951903 37.753445182023576 -18.373450858613097 #
edge $-1 $233 -2.4830821386515822 $227 2.4830821386515822 $226 $268 forward 7 unknown #
coedge $-1 $231 $222 $221 $256 reversed $162 $-1 #
edge $-1 $235 -2.4830821386515822 $224 2.4830821386515822 $221 $269 forward 7 unknown #
straight-curve $-1 0 -56.504390916183276 -18.373450858613097 -1 0 0 I I #
point $-1 71.43162327951903 -56.504390916183276 -18.373450858613097 #
point $-1 -71.43162327951903 -56.504390916183276 -18.373450858613097 #
straight-curve $-1 0 -56.504390916183276 -13.407286581309933 1 0 0 I I #
point $-1 -71.43162327951903 -56.504390916183276 -13.407286581309933 #
point $-1 71.43162327951903 -56.504390916183276 -13.407286581309933 #
straight-curve $-1 -71.43162327951903 0 18.373450858613097 0 -1 0 I I #
point $-1 -71.43162327951903 17.046703700930699 18.373450858613097 #
straight-curve $-1 -71.43162327951903 37.753445182023576 0 0 0 -1 I I #
point $-1 -71.43162327951903 37.753445182023576 18.373450858613097 #
point $-1 -63.056332484585582 23.53458664326411 5.6975640416262028 #
straight-curve $-1 -71.43162327951903 -56.504390916183276 -15.890368719961515 0 0 -1 I I #
straight-curve $-1 71.43162327951903 -56.504390916183276 -15.890368719961515 0 0 -1 I I #
End-of-ACIS-data 