500 0 14 0           
7 Unknown 11 ACIS 5.0 NT 24 Thu Mar 25 18:45:54 1999 
-1 9.9999999999999995e-007 1e-010 
body $-1 $14 $-1 $15 #
body $-1 $16 $-1 $17 #
body $-1 $18 $-1 $19 #
body $-1 $20 $-1 $21 #
body $-1 $22 $-1 $23 #
body $-1 $24 $-1 $25 #
body $-1 $26 $-1 $27 #
body $-1 $28 $-1 $29 #
body $-1 $30 $-1 $31 #
body $-1 $32 $-1 $33 #
body $-1 $34 $-1 $35 #
body $-1 $36 $-1 $37 #
body $-1 $38 $-1 $39 #
body $-1 $40 $-1 $41 #
lump $-1 $-1 $42 $0 #
transform $-1 1 0 0 0 1 0 0 0 1 44.879299295022435 25.107863489383625 12.499910797519306 1 rotate no_reflect no_shear #
lump $-1 $-1 $43 $1 #
transform $-1 1 0 0 0 1 0 0 0 1 44.879299295022435 25.107863489383625 12.499910797519306 1 rotate no_reflect no_shear #
lump $-1 $-1 $44 $2 #
transform $-1 1 0 0 0 1 0 0 0 1 44.879299295022435 25.107863489383625 12.499910797519306 1 rotate no_reflect no_shear #
lump $-1 $-1 $45 $3 #
transform $-1 1 0 0 0 1 0 0 0 1 44.879299295022435 25.107863489383625 12.499910797519306 1 rotate no_reflect no_shear #
lump $-1 $-1 $46 $4 #
transform $-1 1 0 0 0 1 0 0 0 1 44.879299295022435 25.107863489383625 12.499910797519306 1 rotate no_reflect no_shear #
lump $-1 $-1 $47 $5 #
transform $-1 1 0 0 0 1 0 0 0 1 44.879299295022435 25.107863489383625 12.499910797519306 1 rotate no_reflect no_shear #
lump $-1 $-1 $48 $6 #
transform $-1 1 0 0 0 1 0 0 0 1 44.879299295022435 25.107863489383625 12.499910797519306 1 rotate no_reflect no_shear #
lump $-1 $-1 $49 $7 #
transform $-1 1 0 0 0 1 0 0 0 1 44.879299295022435 25.107863489383625 12.499910797519306 1 rotate no_reflect no_shear #
lump $-1 $-1 $50 $8 #
transform $-1 1 0 0 0 1 0 0 0 1 44.879299295022435 25.107863489383625 12.499910797519306 1 rotate no_reflect no_shear #
lump $-1 $-1 $51 $9 #
transform $-1 1 0 0 0 1 0 0 0 1 44.879299295022435 25.107863489383625 12.499910797519306 1 rotate no_reflect no_shear #
lump $-1 $-1 $52 $10 #
transform $-1 1 0 0 0 1 0 0 0 1 44.879299295022435 25.107863489383625 12.499910797519306 1 rotate no_reflect no_shear #
lump $-1 $-1 $53 $11 #
transform $-1 1 0 0 0 1 0 0 0 1 44.879299295022435 25.107863489383625 12.499910797519306 1 rotate no_reflect no_shear #
lump $-1 $-1 $54 $12 #
transform $-1 1 0 0 0 1 0 0 0 1 44.879299295022435 25.107863489383625 12.499910797519306 1 rotate no_reflect no_shear #
lump $-1 $-1 $55 $13 #
transform $-1 1 0 0 0 1 0 0 0 1 44.879299295022435 25.107863489383625 12.499910797519306 1 rotate no_reflect no_shear #
shell $-1 $-1 $-1 $56 $-1 $14 #
shell $-1 $-1 $-1 $57 $-1 $16 #
shell $-1 $-1 $-1 $58 $-1 $18 #
shell $-1 $-1 $-1 $59 $-1 $20 #
shell $-1 $-1 $-1 $60 $-1 $22 #
shell $-1 $-1 $-1 $61 $-1 $24 #
shell $-1 $-1 $-1 $62 $-1 $26 #
shell $-1 $-1 $-1 $63 $-1 $28 #
shell $-1 $-1 $-1 $64 $-1 $30 #
shell $-1 $-1 $-1 $65 $-1 $32 #
shell $-1 $-1 $-1 $66 $-1 $34 #
shell $-1 $-1 $-1 $67 $-1 $36 #
shell $-1 $-1 $-1 $68 $-1 $38 #
shell $-1 $-1 $-1 $69 $-1 $40 #
face $-1 $70 $71 $42 $-1 $72 forward single #
face $-1 $73 $74 $43 $-1 $75 reversed single #
face $-1 $76 $77 $44 $-1 $78 reversed single #
face $-1 $79 $80 $45 $-1 $81 forward single #
face $-1 $82 $83 $46 $-1 $84 forward single #
face $-1 $85 $86 $47 $-1 $87 forward single #
face $-1 $88 $89 $48 $-1 $90 reversed single #
face $-1 $91 $92 $49 $-1 $93 forward single #
face $-1 $94 $95 $50 $-1 $96 forward single #
face $-1 $97 $98 $51 $-1 $99 forward single #
face $-1 $100 $101 $52 $-1 $102 reversed single #
face $-1 $103 $104 $53 $-1 $105 forward single #
face $-1 $106 $107 $54 $-1 $108 reversed single #
face $-1 $109 $110 $55 $-1 $111 forward single #
face $-1 $112 $113 $42 $-1 $114 reversed single #
loop $-1 $-1 $115 $56 #
plane-surface $-1 0 0 12.499910797519306 0 0 1 1 0 0 forward_v I I I I #
face $-1 $116 $117 $43 $-1 $118 reversed single #
loop $-1 $-1 $119 $57 #
plane-surface $-1 0 -17.115615003263574 9.4999107975193056 0 0 1 1 0 0 forward_v I I I I #
face $-1 $120 $121 $44 $-1 $122 reversed single #
loop $-1 $-1 $123 $58 #
plane-surface $-1 16.324502190989655 -2.2639987756516451 129.17121440937581 0 -1 0 -0.52991927123019833 0 -0.84804809178421925 forward_v I I I I #
face $-1 $124 $125 $45 $-1 $126 forward single #
loop $-1 $127 $128 $59 #
cone-surface $-1 39.002674080874044 -7.7514929688451488 8.5693288540585666 -0.52991927123019833 0 -0.84804809178421925 0.42402404589210962 0 -0.26495963561509916 1 I I 0 1 0.5 forward I I I I #
face $-1 $129 $130 $46 $-1 $131 forward single #
loop $-1 $132 $133 $60 #
cone-surface $-1 39.002674080874044 -5.6936826463975869 8.5693288540585666 -0.52991927123019833 0 -0.84804809178421925 0.42402404589210962 0 -0.26495963561509916 1 I I 0 1 0.5 forward I I I I #
face $-1 $134 $135 $47 $-1 $136 forward single #
loop $-1 $137 $138 $61 #
cone-surface $-1 39.002674080874044 -3.635872323950025 8.5693288540585666 -0.52991927123019833 0 -0.84804809178421925 0.42402404589210962 0 -0.26495963561509916 1 I I 0 1 0.5 forward I I I I #
face $-1 $139 $140 $48 $-1 $141 reversed single #
loop $-1 $-1 $142 $62 #
plane-surface $-1 -31.240308960490829 21.678179618637692 53.051606153862537 0.52991927123019833 0 0.84804809178421925 0.84804809178421925 0 -0.52991927123019833 forward_v I I I I #
face $-1 $143 $144 $49 $-1 $145 forward single #
loop $-1 $146 $147 $63 #
cone-surface $-1 39.002674080874044 19.620369296190127 8.5693288540585666 -0.52991927123019833 0 -0.84804809178421925 0.42402404589210962 0 -0.26495963561509916 1 I I 0 1 0.5 forward I I I I #
face $-1 $148 $149 $50 $-1 $150 forward single #
loop $-1 $151 $152 $64 #
cone-surface $-1 39.002674080874044 21.678179618637685 8.5693288540585666 -0.52991927123019833 0 -0.84804809178421925 0.42402404589210962 0 -0.26495963561509916 1 I I 0 1 0.5 forward I I I I #
face $-1 $153 $154 $51 $-1 $155 forward single #
loop $-1 $156 $157 $65 #
cone-surface $-1 39.002674080874044 23.735989941085244 8.5693288540585666 -0.52991927123019833 0 -0.84804809178421925 0.42402404589210962 0 -0.26495963561509916 1 I I 0 1 0.5 forward I I I I #
face $-1 $158 $159 $52 $-1 $160 reversed single #
loop $-1 $-1 $161 $66 #
plane-surface $-1 -89.758599191314062 1.4371604663408917 80.780898053138174 0 1 0 -0.50000000669873634 0 0.8660253999169214 forward_v I I I I #
face $-1 $162 $163 $53 $-1 $164 forward single #
loop $-1 $165 $166 $67 #
cone-surface $-1 -35.8185996427204 4.7147044762304695 6.258557405712514 0.50000000669873634 0 -0.8660253999169214 0.8660253999169214 0 0.50000000669873634 1 I I 0 1 1 forward I I I I #
face $-1 $167 $168 $54 $-1 $169 reversed single #
loop $-1 $-1 $170 $68 #
plane-surface $-1 -44.879299295022442 21.830319479494044 3.0476718132121476 -0.50000000669873634 0 0.8660253999169214 0.8660253999169214 0 0.50000000669873634 forward_v I I I I #
face $-1 $171 $172 $55 $-1 $173 forward single #
loop $-1 $174 $175 $69 #
cone-surface $-1 -35.8185996427204 21.830319479494044 6.258557405712514 0.50000000669873634 0 -0.8660253999169214 0.8660253999169214 0 0.50000000669873634 1 I I 0 1 1 forward I I I I #
face $-1 $176 $177 $42 $-1 $178 reversed single #
loop $-1 $-1 $179 $70 #
plane-surface $-1 0 0 -12.499910797519306 0 0 1 1 0 0 forward_v I I I I #
coedge $-1 $180 $181 $182 $183 forward $71 $-1 #
face $-1 $184 $185 $43 $-1 $186 reversed single #
loop $-1 $-1 $187 $73 #
plane-surface $-1 0 -9.1233665171435234 10.999910797519306 0 -1 0 0 0 -1 forward_v I I I I #
coedge $-1 $188 $189 $190 $191 reversed $74 $-1 #
face $-1 $192 $193 $44 $-1 $194 forward single #
loop $-1 $-1 $195 $76 #
plane-surface $-1 -31.240308960490829 -5.6936826463975834 53.051606153862537 0.52991927123019833 0 0.84804809178421925 0.84804809178421925 0 -0.52991927123019833 forward_v I I I I #
coedge $-1 $196 $197 $198 $199 reversed $77 $-1 #
face $-1 $-1 $200 $45 $-1 $201 forward single #
loop $-1 $202 $203 $79 #
cone-surface $-1 38.605234627451395 -7.7514929688451488 7.9332927852204023 -0.52991927123019833 0 -0.84804809178421925 0.21201202294605481 0 -0.13247981780754958 1 I I -0.70710678118654746 0.70710678118654746 0.25 forward I I I I #
loop $-1 $-1 $204 $59 #
coedge $-1 $128 $128 $205 $206 reversed $80 $-1 #
face $-1 $-1 $207 $46 $-1 $208 forward single #
loop $-1 $209 $210 $82 #
cone-surface $-1 38.605234627451395 -5.6936826463975869 7.9332927852204023 -0.52991927123019833 0 -0.84804809178421925 0.21201202294605481 0 -0.13247981780754958 1 I I -0.70710678118654746 0.70710678118654746 0.25 forward I I I I #
loop $-1 $-1 $211 $60 #
coedge $-1 $133 $133 $212 $213 reversed $83 $-1 #
face $-1 $-1 $214 $47 $-1 $215 forward single #
loop $-1 $216 $217 $85 #
cone-surface $-1 38.605234627451395 -3.635872323950025 7.9332927852204023 -0.52991927123019833 0 -0.84804809178421925 0.21201202294605481 0 -0.13247981780754958 1 I I -0.70710678118654746 0.70710678118654746 0.25 forward I I I I #
loop $-1 $-1 $218 $61 #
coedge $-1 $138 $138 $219 $220 reversed $86 $-1 #
face $-1 $221 $222 $48 $-1 $223 reversed single #
loop $-1 $-1 $224 $88 #
plane-surface $-1 16.324502190989655 18.248495747891752 129.17121440937581 0 1 0 0.52991927123019833 0 0.84804809178421925 forward_v I I I I #
coedge $-1 $225 $226 $227 $228 reversed $89 $-1 #
face $-1 $-1 $229 $49 $-1 $230 forward single #
loop $-1 $231 $232 $91 #
cone-surface $-1 38.605234627451395 19.620369296190127 7.9332927852204023 -0.52991927123019833 0 -0.84804809178421925 0.21201202294605481 0 -0.13247981780754958 1 I I -0.70710678118654746 0.70710678118654746 0.25 forward I I I I #
loop $-1 $-1 $233 $63 #
coedge $-1 $147 $147 $234 $235 reversed $92 $-1 #
face $-1 $-1 $236 $50 $-1 $237 forward single #
loop $-1 $238 $239 $94 #
cone-surface $-1 38.605234627451395 21.678179618637685 7.9332927852204023 -0.52991927123019833 0 -0.84804809178421925 0.21201202294605481 0 -0.13247981780754958 1 I I -0.70710678118654746 0.70710678118654746 0.25 forward I I I I #
loop $-1 $-1 $240 $64 #
coedge $-1 $152 $152 $241 $242 reversed $95 $-1 #
face $-1 $-1 $243 $51 $-1 $244 forward single #
loop $-1 $245 $246 $97 #
cone-surface $-1 38.605234627451395 23.735989941085244 7.9332927852204023 -0.52991927123019833 0 -0.84804809178421925 0.21201202294605481 0 -0.13247981780754958 1 I I -0.70710678118654746 0.70710678118654746 0.25 forward I I I I #
loop $-1 $-1 $247 $65 #
coedge $-1 $157 $157 $248 $249 reversed $98 $-1 #
face $-1 $250 $251 $52 $-1 $252 reversed single #
loop $-1 $-1 $253 $100 #
plane-surface $-1 -44.879299295022442 4.7147044762304695 3.0476718132121476 -0.50000000669873634 0 0.8660253999169214 0.8660253999169214 0 0.50000000669873634 forward_v I I I I #
coedge $-1 $254 $255 $256 $257 reversed $101 $-1 #
face $-1 $-1 $258 $53 $-1 $259 forward single #
loop $-1 $260 $261 $103 #
cone-surface $-1 -34.693778923893817 4.7147044762304695 4.3103108061008335 0.50000000669873634 0 -0.8660253999169214 0.4330126999584607 0 0.25000000334936817 1 I I -0.70710678118654746 0.70710678118654746 0.5 forward I I I I #
loop $-1 $-1 $262 $67 #
coedge $-1 $166 $166 $263 $264 reversed $104 $-1 #
face $-1 $265 $266 $54 $-1 $267 forward single #
loop $-1 $-1 $268 $106 #
plane-surface $-1 -89.758599191314062 18.552775469604466 80.780898053138174 0 1 0 -0.50000000669873634 0 0.8660253999169214 forward_v I I I I #
coedge $-1 $269 $270 $271 $272 reversed $107 $-1 #
face $-1 $-1 $273 $55 $-1 $274 forward single #
loop $-1 $275 $276 $109 #
cone-surface $-1 -34.693778923893817 21.830319479494044 4.3103108061008335 0.50000000669873634 0 -0.8660253999169214 0.4330126999584607 0 0.25000000334936817 1 I I -0.70710678118654746 0.70710678118654746 0.5 forward I I I I #
loop $-1 $-1 $277 $69 #
coedge $-1 $175 $175 $278 $279 reversed $110 $-1 #
face $-1 $280 $281 $42 $-1 $282 reversed single #
loop $-1 $-1 $283 $112 #
plane-surface $-1 0 -25.107863489383625 0 0 1 0 0 0 1 forward_v I I I I #
coedge $-1 $284 $285 $286 $287 forward $113 $-1 #
coedge $-1 $288 $115 $289 $290 forward $71 $-1 #
coedge $-1 $115 $288 $291 $292 forward $71 $-1 #
coedge $-1 $293 $294 $115 $183 reversed $295 $-1 #
edge $-1 $296 -25.107863489383625 $297 25.107863489383625 $182 $298 forward 7 unknown #
face $-1 $299 $300 $43 $-1 $301 reversed single #
loop $-1 $-1 $302 $116 #
plane-surface $-1 -44.879299295022435 0 0 1 0 0 0 0 -1 forward_v I I I I #
coedge $-1 $303 $304 $305 $306 reversed $117 $-1 #
coedge $-1 $307 $119 $308 $309 reversed $74 $-1 #
coedge $-1 $119 $307 $303 $310 forward $74 $-1 #
coedge $-1 $305 $311 $119 $191 forward $312 $-1 #
edge $-1 $313 -16.55005598775184 $314 -0.56555901551173626 $190 $315 forward 7 unknown #
face $-1 $316 $317 $44 $-1 $318 forward single #
loop $-1 $-1 $319 $120 #
plane-surface $-1 0 -9.1233665171435234 10.999910797519306 0 -1 0 0 0 -1 forward_v I I I I #
coedge $-1 $320 $321 $322 $323 reversed $121 $-1 #
coedge $-1 $197 $123 $324 $325 reversed $77 $-1 #
coedge $-1 $123 $196 $320 $326 reversed $77 $-1 #
coedge $-1 $322 $327 $123 $199 forward $317 $-1 #
edge $-1 $328 -36.717048199527611 $329 -25.493717042461004 $198 $330 forward 7 unknown #
loop $-1 $-1 $205 $124 #
plane-surface $-1 -31.240308960490829 -5.6936826463975834 53.051606153862537 0.52991927123019833 0 0.84804809178421925 0.84804809178421925 0 -0.52991927123019833 forward_v I I I I #
loop $-1 $-1 $331 $79 #
coedge $-1 $203 $203 $204 $332 reversed $125 $-1 #
coedge $-1 $204 $204 $203 $332 forward $127 $-1 #
coedge $-1 $205 $205 $128 $206 forward $200 $-1 #
edge $-1 $333 0 $333 6.2831853071796004 $205 $334 forward 7 unknown #
loop $-1 $-1 $212 $129 #
plane-surface $-1 -31.240308960490829 -5.6936826463975834 53.051606153862537 0.52991927123019833 0 0.84804809178421925 0.84804809178421925 0 -0.52991927123019833 forward_v I I I I #
loop $-1 $-1 $335 $82 #
coedge $-1 $210 $210 $211 $336 reversed $130 $-1 #
coedge $-1 $211 $211 $210 $336 forward $132 $-1 #
coedge $-1 $212 $212 $133 $213 forward $207 $-1 #
edge $-1 $337 0 $337 6.2831853071796004 $212 $338 forward 7 unknown #
loop $-1 $-1 $219 $134 #
plane-surface $-1 -31.240308960490829 -5.6936826463975834 53.051606153862537 0.52991927123019833 0 0.84804809178421925 0.84804809178421925 0 -0.52991927123019833 forward_v I I I I #
loop $-1 $-1 $339 $85 #
coedge $-1 $217 $217 $218 $340 reversed $135 $-1 #
coedge $-1 $218 $218 $217 $340 forward $137 $-1 #
coedge $-1 $219 $219 $138 $220 forward $214 $-1 #
edge $-1 $341 0 $341 6.2831853071796004 $219 $342 forward 7 unknown #
face $-1 $343 $344 $48 $-1 $345 forward single #
loop $-1 $-1 $346 $139 #
plane-surface $-1 0 25.107863489383625 0 0 -1 0 0 0 -1 forward_v I I I I #
coedge $-1 $347 $348 $349 $350 reversed $140 $-1 #
coedge $-1 $351 $142 $346 $352 reversed $89 $-1 #
coedge $-1 $142 $351 $347 $353 forward $89 $-1 #
coedge $-1 $349 $354 $142 $228 forward $344 $-1 #
edge $-1 $355 -14.268773680064786 $356 -7.4094059385729061 $227 $357 forward 7 unknown #
loop $-1 $-1 $234 $143 #
plane-surface $-1 -31.240308960490829 21.678179618637692 53.051606153862537 0.52991927123019833 0 0.84804809178421925 0.84804809178421925 0 -0.52991927123019833 forward_v I I I I #
loop $-1 $-1 $358 $91 #
coedge $-1 $232 $232 $233 $359 reversed $144 $-1 #
coedge $-1 $233 $233 $232 $359 forward $146 $-1 #
coedge $-1 $234 $234 $147 $235 forward $229 $-1 #
edge $-1 $360 0 $360 6.2831853071796004 $234 $361 forward 7 unknown #
loop $-1 $-1 $241 $148 #
plane-surface $-1 -31.240308960490829 21.678179618637692 53.051606153862537 0.52991927123019833 0 0.84804809178421925 0.84804809178421925 0 -0.52991927123019833 forward_v I I I I #
loop $-1 $-1 $362 $94 #
coedge $-1 $239 $239 $240 $363 reversed $149 $-1 #
coedge $-1 $240 $240 $239 $363 forward $151 $-1 #
coedge $-1 $241 $241 $152 $242 forward $236 $-1 #
edge $-1 $364 0 $364 6.2831853071796004 $241 $365 forward 7 unknown #
loop $-1 $-1 $248 $153 #
plane-surface $-1 -31.240308960490829 21.678179618637692 53.051606153862537 0.52991927123019833 0 0.84804809178421925 0.84804809178421925 0 -0.52991927123019833 forward_v I I I I #
loop $-1 $-1 $366 $97 #
coedge $-1 $246 $246 $247 $367 reversed $154 $-1 #
coedge $-1 $247 $247 $246 $367 forward $156 $-1 #
coedge $-1 $248 $248 $157 $249 forward $243 $-1 #
edge $-1 $368 0 $368 6.2831853071796004 $248 $369 forward 7 unknown #
face $-1 $370 $371 $52 $-1 $372 reversed single #
loop $-1 $-1 $373 $158 #
plane-surface $-1 -89.758599191314062 7.9922484861200473 80.780898053138174 0 -1 0 0.50000000669873634 0 -0.8660253999169214 forward_v I I I I #
coedge $-1 $374 $375 $376 $377 reversed $159 $-1 #
coedge $-1 $255 $161 $378 $379 reversed $101 $-1 #
coedge $-1 $161 $254 $374 $380 reversed $101 $-1 #
coedge $-1 $376 $381 $161 $257 forward $382 $-1 #
edge $-1 $383 3.0063459632856393e-007 $384 16.371758174284253 $256 $385 forward 7 unknown #
loop $-1 $-1 $263 $162 #
plane-surface $-1 -44.879299295022442 4.7147044762304695 3.0476718132121476 -0.50000000669873634 0 0.8660253999169214 0.8660253999169214 0 0.50000000669873634 forward_v I I I I #
loop $-1 $-1 $386 $103 #
coedge $-1 $261 $261 $262 $387 reversed $163 $-1 #
coedge $-1 $262 $262 $261 $387 forward $165 $-1 #
coedge $-1 $263 $263 $166 $264 forward $258 $-1 #
edge $-1 $388 0 $388 6.2831853071796004 $263 $389 forward 7 unknown #
face $-1 $390 $391 $54 $-1 $392 reversed single #
loop $-1 $-1 $393 $167 #
plane-surface $-1 0 0 12.499910797519306 0 0 1 1 0 0 forward_v I I I I #
coedge $-1 $394 $395 $396 $397 reversed $168 $-1 #
coedge $-1 $398 $170 $399 $400 reversed $107 $-1 #
coedge $-1 $170 $398 $394 $401 forward $107 $-1 #
coedge $-1 $396 $402 $170 $272 forward $403 $-1 #
edge $-1 $404 -14.192703749636603 $405 -7.6376157298574441 $271 $406 forward 7 unknown #
loop $-1 $-1 $278 $171 #
plane-surface $-1 -44.879299295022442 21.830319479494044 3.0476718132121476 -0.50000000669873634 0 0.8660253999169214 0.8660253999169214 0 0.50000000669873634 forward_v I I I I #
loop $-1 $-1 $407 $109 #
coedge $-1 $276 $276 $277 $408 reversed $172 $-1 #
coedge $-1 $277 $277 $276 $408 forward $174 $-1 #
coedge $-1 $278 $278 $175 $279 forward $273 $-1 #
edge $-1 $409 0 $409 6.2831853071796004 $278 $410 forward 7 unknown #
face $-1 $411 $412 $42 $-1 $413 reversed single #
loop $-1 $-1 $414 $176 #
plane-surface $-1 -44.879299295022435 0 0 1 0 0 0 0 -1 forward_v I I I I #
coedge $-1 $415 $291 $416 $417 forward $177 $-1 #
coedge $-1 $418 $179 $415 $419 forward $113 $-1 #
coedge $-1 $179 $418 $420 $421 forward $113 $-1 #
coedge $-1 $294 $293 $179 $287 reversed $295 $-1 #
edge $-1 $422 -25.107863489383625 $423 25.107863489383625 $286 $424 forward 7 unknown #
coedge $-1 $181 $180 $425 $426 forward $71 $-1 #
coedge $-1 $427 $428 $180 $290 reversed $412 $-1 #
edge $-1 $297 -44.879299295022435 $429 44.879299295022435 $289 $430 forward 7 unknown #
coedge $-1 $283 $431 $181 $292 reversed $177 $-1 #
edge $-1 $432 -44.879299295022435 $296 44.879299295022435 $291 $433 forward 7 unknown #
coedge $-1 $286 $182 $431 $434 forward $295 $-1 #
coedge $-1 $182 $286 $427 $435 reversed $295 $-1 #
loop $-1 $-1 $293 $411 #
vertex $-1 $183 $436 #
vertex $-1 $183 $437 #
straight-curve $-1 44.879299295022435 0 12.499910797519306 0 1 0 I I #
face $-1 $438 $439 $43 $-1 $440 forward single #
loop $-1 $-1 $308 $184 #
plane-surface $-1 0 -25.107863489383625 0 0 1 0 0 0 1 forward_v I I I I #
coedge $-1 $441 $442 $443 $444 forward $185 $-1 #
coedge $-1 $443 $187 $189 $310 reversed $117 $-1 #
coedge $-1 $187 $443 $445 $446 reversed $117 $-1 #
coedge $-1 $447 $190 $187 $306 forward $312 $-1 #
edge $-1 $314 3.9999553987596528 $448 6.9999553987596528 $305 $449 forward 7 unknown #
coedge $-1 $189 $188 $441 $450 reversed $74 $-1 #
coedge $-1 $451 $452 $188 $309 forward $300 $-1 #
edge $-1 $453 -44.879299295022435 $313 44.879299295022435 $308 $454 forward 7 unknown #
edge $-1 $455 -44.879299295022435 $314 44.879299295022435 $303 $456 forward 7 unknown #
coedge $-1 $190 $447 $451 $457 forward $312 $-1 #
loop $-1 $-1 $305 $438 #
vertex $-1 $309 $458 #
vertex $-1 $191 $459 #
straight-curve $-1 44.879299295022435 -8.5578075016317872 9.4999107975193056 0 1 0 I I #
face $-1 $-1 $460 $44 $-1 $461 reversed single #
loop $-1 $-1 $322 $192 #
plane-surface $-1 0 0 12.499910797519306 0 0 1 1 0 0 forward_v I I I I #
coedge $-1 $462 $463 $321 $464 reversed $193 $-1 #
coedge $-1 $465 $195 $197 $326 forward $121 $-1 #
coedge $-1 $195 $465 $319 $464 forward $121 $-1 #
coedge $-1 $466 $198 $195 $323 forward $317 $-1 #
edge $-1 $329 -0.58284254754714659 $467 6.2765251939447317 $322 $468 forward 7 unknown #
coedge $-1 $469 $470 $196 $325 forward $460 $-1 #
edge $-1 $471 -59.098812202305858 $328 -52.085696407168598 $324 $472 forward 7 unknown #
edge $-1 $329 76.524288807620053 $471 89.758598590044883 $197 $473 forward 7 unknown #
coedge $-1 $198 $466 $469 $474 forward $317 $-1 #
vertex $-1 $325 $475 #
vertex $-1 $199 $476 #
straight-curve $-1 8.1622510954948275 -2.2639987756516451 12.499910797519306 -1 0 0 I I #
coedge $-1 $331 $331 $-1 $477 reversed $202 $-1 #
edge $-1 $478 0 $478 6.2831853071796004 $203 $479 forward 7 unknown #
vertex $-1 $206 $480 #
ellipse-curve $-1 39.267633716489136 -7.7514929688451488 8.9933528999506702 0.52991927123019833 0 0.84804809178421925 0.42402404589210962 0 -0.26495963561509916 1 I I #
coedge $-1 $335 $335 $-1 $481 reversed $209 $-1 #
edge $-1 $482 0 $482 6.2831853071796004 $210 $483 forward 7 unknown #
vertex $-1 $213 $484 #
ellipse-curve $-1 39.267633716489136 -5.6936826463975869 8.9933528999506702 0.52991927123019833 0 0.84804809178421925 0.42402404589210962 0 -0.26495963561509916 1 I I #
coedge $-1 $339 $339 $-1 $485 reversed $216 $-1 #
edge $-1 $486 0 $486 6.2831853071796004 $217 $487 forward 7 unknown #
vertex $-1 $220 $488 #
ellipse-curve $-1 39.267633716489136 -3.635872323950025 8.9933528999506702 0.52991927123019833 0 0.84804809178421925 0.42402404589210962 0 -0.26495963561509916 1 I I #
face $-1 $-1 $489 $48 $-1 $490 reversed single #
loop $-1 $-1 $227 $221 #
plane-surface $-1 0 0 12.499910797519306 0 0 1 1 0 0 forward_v I I I I #
coedge $-1 $491 $492 $225 $352 forward $222 $-1 #
coedge $-1 $348 $224 $226 $353 reversed $140 $-1 #
coedge $-1 $224 $347 $493 $494 reversed $140 $-1 #
coedge $-1 $495 $227 $224 $350 forward $344 $-1 #
edge $-1 $356 25.493717042461004 $496 36.717048199527611 $349 $497 forward 7 unknown #
coedge $-1 $226 $225 $498 $499 reversed $89 $-1 #
edge $-1 $500 -62.455422154374872 $355 -49.221112371950035 $346 $501 forward 7 unknown #
edge $-1 $502 -89.758598590044883 $356 -76.524288807620053 $347 $503 forward 7 unknown #
coedge $-1 $227 $495 $491 $504 forward $344 $-1 #
vertex $-1 $352 $505 #
vertex $-1 $228 $506 #
straight-curve $-1 33.655968137955838 10.839089809318846 12.499910797519302 0 -1 0 I I #
coedge $-1 $358 $358 $-1 $507 reversed $231 $-1 #
edge $-1 $508 0 $508 6.2831853071796004 $232 $509 forward 7 unknown #
vertex $-1 $235 $510 #
ellipse-curve $-1 39.267633716489136 19.620369296190127 8.9933528999506702 0.52991927123019833 0 0.84804809178421925 0.42402404589210962 0 -0.26495963561509916 1 I I #
coedge $-1 $362 $362 $-1 $511 reversed $238 $-1 #
edge $-1 $512 0 $512 6.2831853071796004 $239 $513 forward 7 unknown #
vertex $-1 $242 $514 #
ellipse-curve $-1 39.267633716489136 21.678179618637685 8.9933528999506702 0.52991927123019833 0 0.84804809178421925 0.42402404589210962 0 -0.26495963561509916 1 I I #
coedge $-1 $366 $366 $-1 $515 reversed $245 $-1 #
edge $-1 $516 0 $516 6.2831853071796004 $246 $517 forward 7 unknown #
vertex $-1 $249 $518 #
ellipse-curve $-1 39.267633716489136 23.735989941085244 8.9933528999506702 0.52991927123019833 0 0.84804809178421925 0.42402404589210962 0 -0.26495963561509916 1 I I #
face $-1 $-1 $382 $52 $-1 $519 forward single #
loop $-1 $-1 $520 $250 #
plane-surface $-1 -44.879299295022435 0 0 1 0 0 0 0 -1 forward_v I I I I #
coedge $-1 $521 $522 $523 $524 reversed $251 $-1 #
coedge $-1 $525 $253 $255 $380 forward $159 $-1 #
coedge $-1 $253 $525 $521 $526 forward $159 $-1 #
coedge $-1 $523 $256 $253 $377 forward $382 $-1 #
edge $-1 $384 -0.92019177177434308 $527 5.6348962480048126 $376 $528 forward 7 unknown #
coedge $-1 $529 $530 $254 $379 forward $371 $-1 #
edge $-1 $531 -37.342777213356932 $383 -27.890538229049781 $378 $532 forward 7 unknown #
edge $-1 $384 -18.90447771534209 $531 -8.1518820400458524e-015 $255 $533 forward 7 unknown #
coedge $-1 $256 $523 $529 $534 forward $382 $-1 #
loop $-1 $-1 $523 $370 #
vertex $-1 $379 $535 #
vertex $-1 $257 $536 #
straight-curve $-1 -44.879299595657031 1.4371604663408917 12.499910797519306 1 0 0 I I #
coedge $-1 $386 $386 $-1 $537 reversed $260 $-1 #
edge $-1 $538 0 $538 6.2831853071796004 $261 $539 forward 7 unknown #
vertex $-1 $264 $540 #
ellipse-curve $-1 -36.693420358197613 4.7147044762304695 7.7737913053657266 -0.50000000669873634 0 0.8660253999169214 0.8660253999169214 0 0.50000000669873634 1 I I #
face $-1 $-1 $403 $54 $-1 $541 reversed single #
loop $-1 $-1 $399 $265 #
plane-surface $-1 0 25.107863489383625 0 0 -1 0 0 0 -1 forward_v I I I I #
coedge $-1 $542 $543 $395 $544 forward $266 $-1 #
coedge $-1 $395 $268 $270 $401 reversed $168 $-1 #
coedge $-1 $268 $394 $393 $544 reversed $168 $-1 #
coedge $-1 $545 $271 $268 $397 forward $403 $-1 #
edge $-1 $405 -37.342777213356932 $546 -27.890538229049781 $396 $547 forward 7 unknown #
coedge $-1 $270 $269 $542 $548 reversed $107 $-1 #
coedge $-1 $549 $550 $269 $400 forward $391 $-1 #
edge $-1 $551 -0.23308911887139352 $404 18.671388596470692 $399 $552 forward 7 unknown #
edge $-1 $553 -18.90447771534209 $405 -8.1518820400458524e-015 $394 $554 forward 7 unknown #
coedge $-1 $271 $545 $549 $555 forward $403 $-1 #
loop $-1 $-1 $396 $390 #
vertex $-1 $272 $556 #
vertex $-1 $272 $557 #
straight-curve $-1 -44.879299295022435 10.915159739747022 3.047671813212149 0 -1 0 I I #
coedge $-1 $407 $407 $-1 $558 reversed $275 $-1 #
edge $-1 $559 0 $559 6.2831853071796004 $276 $560 forward 7 unknown #
vertex $-1 $279 $561 #
ellipse-curve $-1 -36.693420358197613 21.830319479494044 7.7737913053657266 -0.50000000669873634 0 0.8660253999169214 0.8660253999169214 0 0.50000000669873634 1 I I #
face $-1 $-1 $295 $42 $-1 $562 reversed single #
loop $-1 $-1 $427 $280 #
plane-surface $-1 0 25.107863489383625 0 0 -1 0 0 0 -1 forward_v I I I I #
coedge $-1 $563 $425 $428 $564 forward $281 $-1 #
coedge $-1 $431 $283 $284 $419 reversed $177 $-1 #
coedge $-1 $425 $563 $283 $417 reversed $281 $-1 #
edge $-1 $432 -12.499910797519306 $565 12.499910797519306 $416 $566 forward 7 unknown #
coedge $-1 $285 $284 $563 $567 forward $113 $-1 #
edge $-1 $423 -44.879299295022435 $565 44.879299295022435 $415 $568 forward 7 unknown #
coedge $-1 $428 $427 $285 $421 reversed $412 $-1 #
edge $-1 $569 -44.879299295022435 $422 44.879299295022435 $420 $570 forward 7 unknown #
vertex $-1 $287 $571 #
vertex $-1 $434 $572 #
straight-curve $-1 44.879299295022435 0 -12.499910797519306 0 -1 0 I I #
coedge $-1 $414 $416 $288 $426 reversed $281 $-1 #
edge $-1 $429 -25.107863489383625 $432 25.107863489383625 $425 $573 forward 7 unknown #
coedge $-1 $420 $289 $294 $435 forward $412 $-1 #
coedge $-1 $289 $420 $414 $564 reversed $412 $-1 #
vertex $-1 $290 $574 #
straight-curve $-1 0 25.107863489383625 12.499910797519306 -1 0 0 I I #
coedge $-1 $291 $415 $293 $434 reversed $177 $-1 #
vertex $-1 $426 $575 #
straight-curve $-1 0 -25.107863489383625 12.499910797519306 1 0 0 I I #
edge $-1 $296 -12.499910797519306 $423 12.499910797519306 $293 $576 forward 7 unknown #
edge $-1 $297 -12.499910797519306 $422 12.499910797519306 $294 $577 forward 7 unknown #
point $-1 44.879299295022435 -25.107863489383625 12.499910797519306 #
point $-1 44.879299295022435 25.107863489383625 12.499910797519306 #
face $-1 $-1 $312 $43 $-1 $578 reversed single #
loop $-1 $-1 $445 $299 #
plane-surface $-1 0 0 12.499910797519306 0 0 1 1 0 0 forward_v I I I I #
coedge $-1 $579 $302 $307 $450 forward $185 $-1 #
coedge $-1 $302 $579 $580 $581 reversed $185 $-1 #
coedge $-1 $304 $303 $302 $444 reversed $117 $-1 #
edge $-1 $582 -6.9999553987596528 $455 -3.9999553987596528 $302 $583 forward 7 unknown #
coedge $-1 $580 $584 $304 $446 forward $439 $-1 #
edge $-1 $448 -44.879299295022435 $582 44.879299295022435 $445 $585 forward 7 unknown #
coedge $-1 $311 $305 $584 $586 reversed $312 $-1 #
vertex $-1 $306 $587 #
straight-curve $-1 44.879299295022435 -9.1233665171435234 5.4999553987596528 0 0 1 I I #
edge $-1 $455 0.56555901551173626 $453 16.55005598775184 $441 $588 forward 7 unknown #
coedge $-1 $589 $308 $311 $457 reversed $300 $-1 #
coedge $-1 $308 $589 $579 $590 forward $300 $-1 #
vertex $-1 $309 $591 #
straight-curve $-1 0 -25.107863489383625 9.4999107975193056 1 0 0 I I #
vertex $-1 $450 $592 #
straight-curve $-1 0 -9.1233665171435234 9.4999107975193056 1 0 0 I I #
edge $-1 $593 -12.499910797519306 $313 -9.4999107975193056 $311 $594 forward 7 unknown #
point $-1 44.879299295022435 -25.107863489383625 9.4999107975193056 #
point $-1 44.879299295022435 -9.1233665171435234 9.4999107975193056 #
loop $-1 $-1 $324 $316 #
plane-surface $-1 44.879299295022435 0 0 -1 0 0 0 0 1 forward_v I I I I #
coedge $-1 $463 $319 $595 $596 reversed $193 $-1 #
coedge $-1 $319 $462 $466 $597 reversed $193 $-1 #
edge $-1 $598 -89.758598590044883 $467 -76.524288807620053 $319 $599 forward 7 unknown #
coedge $-1 $321 $320 $470 $600 reversed $121 $-1 #
coedge $-1 $327 $322 $463 $597 forward $317 $-1 #
vertex $-1 $597 $601 #
straight-curve $-1 33.655968137955838 -2.8468413231987917 12.499910797519302 0 -1 0 I I #
coedge $-1 $595 $324 $327 $474 reversed $460 $-1 #
coedge $-1 $324 $595 $465 $600 forward $460 $-1 #
vertex $-1 $325 $602 #
straight-curve $-1 44.879299295022435 -2.2639987756516451 64.585607204687904 0 0 1 I I #
straight-curve $-1 -31.240308960490829 -2.2639987756516451 53.051606153862537 0.84804809178421925 0 -0.52991927123019833 I I #
edge $-1 $603 -9.1233665171435234 $328 -2.2639987756516451 $469 $604 forward 7 unknown #
point $-1 44.879299295022435 -2.2639987756516451 12.499910797519306 #
point $-1 33.655968137955831 -2.2639987756516451 12.499910797519306 #
edge $-1 $605 1 $605 0 $331 $-1 forward 7 unknown #
vertex $-1 $332 $606 #
ellipse-curve $-1 38.737714445258945 -7.7514929688451488 8.1453048081664576 0.52991927123019833 0 0.84804809178421925 0.42402404589210962 0 -0.26495963561509916 1 I I #
point $-1 39.691657762381254 -7.7514929688451488 8.7283932643355779 #
edge $-1 $607 1 $607 0 $335 $-1 forward 7 unknown #
vertex $-1 $336 $608 #
ellipse-curve $-1 38.737714445258945 -5.6936826463975869 8.1453048081664576 0.52991927123019833 0 0.84804809178421925 0.42402404589210962 0 -0.26495963561509916 1 I I #
point $-1 39.691657762381254 -5.6936826463975869 8.7283932643355779 #
edge $-1 $609 1 $609 0 $339 $-1 forward 7 unknown #
vertex $-1 $340 $610 #
ellipse-curve $-1 38.737714445258945 -3.635872323950025 8.1453048081664576 0.52991927123019833 0 0.84804809178421925 0.42402404589210962 0 -0.26495963561509916 1 I I #
point $-1 39.691657762381254 -3.635872323950025 8.7283932643355779 #
loop $-1 $-1 $498 $343 #
plane-surface $-1 44.879299295022435 0 0 -1 0 0 0 0 1 forward_v I I I I #
coedge $-1 $492 $346 $354 $504 reversed $222 $-1 #
coedge $-1 $346 $491 $611 $612 forward $222 $-1 #
coedge $-1 $498 $613 $348 $494 forward $489 $-1 #
edge $-1 $496 52.085696407168598 $502 59.098812202305858 $493 $614 forward 7 unknown #
coedge $-1 $354 $349 $613 $615 forward $344 $-1 #
vertex $-1 $615 $616 #
straight-curve $-1 8.1622510954948275 18.248495747891752 12.499910797519306 1 0 0 I I #
coedge $-1 $611 $493 $351 $499 forward $489 $-1 #
edge $-1 $502 7.4094059385729061 $500 14.268773680064786 $498 $617 forward 7 unknown #
vertex $-1 $352 $618 #
straight-curve $-1 -8.0859022845730131 25.107863489383625 38.583126794802759 -0.84804809178421925 0 0.52991927123019833 I I #
vertex $-1 $499 $619 #
straight-curve $-1 -31.240308960490829 18.248495747891752 53.051606153862537 -0.84804809178421925 0 0.52991927123019833 I I #
edge $-1 $620 -44.879299295022435 $355 -33.655968137955831 $491 $621 forward 7 unknown #
point $-1 33.655968137955831 25.107863489383632 12.499910797519306 #
point $-1 33.655968137955831 18.248495747891752 12.499910797519306 #
edge $-1 $622 1 $622 0 $358 $-1 forward 7 unknown #
vertex $-1 $359 $623 #
ellipse-curve $-1 38.737714445258945 19.620369296190127 8.1453048081664576 0.52991927123019833 0 0.84804809178421925 0.42402404589210962 0 -0.26495963561509916 1 I I #
point $-1 39.691657762381254 19.620369296190127 8.7283932643355779 #
edge $-1 $624 1 $624 0 $362 $-1 forward 7 unknown #
vertex $-1 $363 $625 #
ellipse-curve $-1 38.737714445258945 21.678179618637685 8.1453048081664576 0.52991927123019833 0 0.84804809178421925 0.42402404589210962 0 -0.26495963561509916 1 I I #
point $-1 39.691657762381254 21.678179618637685 8.7283932643355779 #
edge $-1 $626 1 $626 0 $366 $-1 forward 7 unknown #
vertex $-1 $367 $627 #
ellipse-curve $-1 38.737714445258945 23.735989941085244 8.1453048081664576 0.52991927123019833 0 0.84804809178421925 0.42402404589210962 0 -0.26495963561509916 1 I I #
point $-1 39.691657762381254 23.735989941085244 8.7283932643355779 #
plane-surface $-1 0 0 12.499910797519306 0 0 1 1 0 0 forward_v I I I I #
coedge $-1 $530 $529 $522 $628 forward $371 $-1 #
coedge $-1 $522 $373 $375 $526 reversed $251 $-1 #
coedge $-1 $373 $521 $520 $628 reversed $251 $-1 #
coedge $-1 $381 $376 $373 $524 forward $382 $-1 #
edge $-1 $527 -16.371758174284253 $629 -3.0063459632856393e-007 $523 $630 forward 7 unknown #
coedge $-1 $375 $374 $530 $631 reversed $159 $-1 #
edge $-1 $632 8.1518820400458524e-015 $527 18.90447771534209 $521 $633 forward 7 unknown #
vertex $-1 $377 $634 #
straight-curve $-1 -28.507541421372775 2.3573522381152348 12.499910797519306 0 1 0 I I #
coedge $-1 $520 $378 $381 $534 reversed $371 $-1 #
coedge $-1 $378 $520 $525 $631 forward $371 $-1 #
vertex $-1 $379 $635 #
straight-curve $-1 -44.879299295022435 1.4371604663408917 40.390449026569087 0 0 1 I I #
straight-curve $-1 -44.879299295022442 1.4371604663408917 3.0476718132121476 -0.8660253999169214 0 -0.50000000669873634 I I #
edge $-1 $629 -7.9922484861200473 $383 -1.4371604663408917 $529 $636 forward 7 unknown #
point $-1 -44.879299295022435 1.4371604663408917 12.499910797519306 #
point $-1 -28.507541421372778 1.4371604663408917 12.499910797519306 #
edge $-1 $637 1 $637 0 $386 $-1 forward 7 unknown #
vertex $-1 $387 $638 #
ellipse-curve $-1 -34.943778927243187 4.7147044762304695 4.7433235060592942 -0.50000000669873634 0 0.8660253999169214 0.8660253999169214 0 0.50000000669873634 1 I I #
point $-1 -35.827394958280692 4.7147044762304695 8.2737913120644713 #
plane-surface $-1 -44.879299295022435 0 0 1 0 0 0 0 -1 forward_v I I I I #
coedge $-1 $639 $393 $398 $548 forward $266 $-1 #
coedge $-1 $393 $639 $545 $640 forward $266 $-1 #
edge $-1 $546 3.0063459632856393e-007 $553 16.371758174284253 $393 $641 forward 7 unknown #
coedge $-1 $402 $396 $543 $640 reversed $403 $-1 #
vertex $-1 $397 $642 #
straight-curve $-1 -44.879299295022435 18.552775469604466 40.390449026569087 0 0 1 I I #
edge $-1 $553 7.6376157298574441 $551 14.1927037496366 $542 $643 forward 7 unknown #
coedge $-1 $550 $399 $402 $555 reversed $391 $-1 #
coedge $-1 $399 $549 $639 $644 reversed $391 $-1 #
vertex $-1 $644 $645 #
straight-curve $-1 -28.70940251875966 25.107863489383625 12.383366236522207 -0.8660253999169214 0 -0.50000000669873634 I I #
vertex $-1 $548 $646 #
straight-curve $-1 -44.879299295022442 18.552775469604466 3.0476718132121476 -0.8660253999169214 0 -0.50000000669873634 I I #
edge $-1 $647 -12.499910797519306 $404 -3.0476718132121516 $549 $648 forward 7 unknown #
point $-1 -44.879299295022435 25.107863489383625 3.0476718132121516 #
point $-1 -44.879299295022435 18.552775469604466 3.0476718132121516 #
edge $-1 $649 1 $649 0 $407 $-1 forward 7 unknown #
vertex $-1 $408 $650 #
ellipse-curve $-1 -34.943778927243187 21.830319479494044 4.7433235060592942 -0.50000000669873634 0 0.8660253999169214 0.8660253999169214 0 0.50000000669873634 1 I I #
point $-1 -35.827394958280692 21.830319479494044 8.2737913120644713 #
plane-surface $-1 44.879299295022435 0 0 -1 0 0 0 0 1 forward_v I I I I #
coedge $-1 $416 $414 $418 $567 reversed $281 $-1 #
edge $-1 $429 -12.499910797519306 $569 12.499910797519306 $428 $651 forward 7 unknown #
vertex $-1 $567 $652 #
straight-curve $-1 -44.879299295022435 -25.107863489383625 0 0 0 -1 I I #
edge $-1 $565 -25.107863489383625 $569 25.107863489383625 $563 $653 forward 7 unknown #
straight-curve $-1 0 -25.107863489383625 -12.499910797519306 -1 0 0 I I #
vertex $-1 $421 $654 #
straight-curve $-1 0 25.107863489383625 -12.499910797519306 1 0 0 I I #
point $-1 44.879299295022435 25.107863489383625 -12.499910797519306 #
point $-1 44.879299295022435 -25.107863489383625 -12.499910797519306 #
straight-curve $-1 -44.879299295022435 0 12.499910797519306 0 -1 0 I I #
point $-1 -44.879299295022435 25.107863489383625 12.499910797519306 #
point $-1 -44.879299295022435 -25.107863489383625 12.499910797519306 #
straight-curve $-1 44.879299295022435 -25.107863489383625 0 0 0 -1 I I #
straight-curve $-1 44.879299295022435 25.107863489383625 0 0 0 -1 I I #
plane-surface $-1 44.879299295022435 0 0 -1 0 0 0 0 1 forward_v I I I I #
coedge $-1 $442 $441 $452 $590 reversed $185 $-1 #
coedge $-1 $655 $445 $442 $581 forward $439 $-1 #
edge $-1 $582 9.1233665171435234 $656 25.107863489383625 $442 $657 forward 7 unknown #
vertex $-1 $581 $658 #
straight-curve $-1 -44.879299295022435 -9.1233665171435234 5.4999553987596528 0 0 -1 I I #
coedge $-1 $445 $655 $447 $586 forward $439 $-1 #
straight-curve $-1 0 -9.1233665171435234 12.499910797519306 -1 0 0 I I #
edge $-1 $593 -25.107863489383625 $448 -9.1233665171435234 $447 $659 forward 7 unknown #
point $-1 44.879299295022435 -9.1233665171435234 12.499910797519306 #
straight-curve $-1 -44.879299295022435 -8.5578075016317872 9.4999107975193056 0 -1 0 I I #
coedge $-1 $452 $451 $655 $660 reversed $300 $-1 #
edge $-1 $656 -12.499910797519306 $453 -9.4999107975193056 $579 $661 forward 7 unknown #
point $-1 -44.879299295022435 -25.107863489383625 9.4999107975193056 #
point $-1 -44.879299295022435 -9.1233665171435234 9.4999107975193056 #
vertex $-1 $586 $662 #
straight-curve $-1 44.879299295022435 -25.107863489383625 0 0 0 -1 I I #
coedge $-1 $470 $469 $462 $596 forward $460 $-1 #
edge $-1 $603 52.085696407168598 $598 59.098812202305858 $595 $663 forward 7 unknown #
edge $-1 $467 33.655968137955831 $603 44.879299295022435 $466 $664 forward 7 unknown #
vertex $-1 $596 $665 #
straight-curve $-1 -31.240308960490829 -9.1233665171435216 53.051606153862537 -0.84804809178421925 0 0.52991927123019833 I I #
edge $-1 $598 -6.27652519394473 $471 0.58284254754714659 $470 $666 forward 7 unknown #
point $-1 33.655968137955831 -9.1233665171435234 12.499910797519306 #
point $-1 44.879299295022442 -2.2639987756516451 5.4867950023820455 #
vertex $-1 $474 $667 #
straight-curve $-1 44.879299295022435 0 12.499910797519306 0 1 0 I I #
vertex $-1 $477 $668 #
point $-1 39.161738491151056 -7.7514929688451488 7.8803451725513582 #
vertex $-1 $481 $669 #
point $-1 39.161738491151056 -5.6936826463975869 7.8803451725513582 #
vertex $-1 $485 $670 #
point $-1 39.161738491151056 -3.635872323950025 7.8803451725513582 #
coedge $-1 $613 $498 $492 $612 reversed $489 $-1 #
edge $-1 $620 -12.499910797519306 $500 -5.4867950023820455 $611 $671 forward 7 unknown #
coedge $-1 $493 $611 $495 $615 reversed $489 $-1 #
straight-curve $-1 44.879299295022435 18.248495747891752 64.585607204687904 0 0 -1 I I #
edge $-1 $496 18.248495747891752 $620 25.107863489383625 $613 $672 forward 7 unknown #
point $-1 44.879299295022435 18.248495747891752 12.499910797519306 #
straight-curve $-1 44.879299295022442 10.839089809318846 5.4867950023820455 0 1 0 I I #
point $-1 44.879299295022442 25.107863489383632 5.4867950023820455 #
point $-1 44.879299295022442 18.248495747891752 5.4867950023820455 #
vertex $-1 $615 $673 #
straight-curve $-1 0 25.107863489383625 12.499910797519306 -1 0 0 I I #
vertex $-1 $507 $674 #
point $-1 39.161738491151056 19.620369296190127 7.8803451725513582 #
vertex $-1 $511 $675 #
point $-1 39.161738491151056 21.678179618637685 7.8803451725513582 #
vertex $-1 $515 $676 #
point $-1 39.161738491151056 23.735989941085244 7.8803451725513582 #
edge $-1 $629 27.890538229049781 $632 37.342777213356932 $520 $677 forward 7 unknown #
vertex $-1 $534 $678 #
straight-curve $-1 -44.879299595657031 7.9922484861200473 12.499910797519306 -1 0 0 I I #
edge $-1 $632 -5.6348962480048126 $531 0.92019177177434308 $530 $679 forward 7 unknown #
vertex $-1 $631 $680 #
straight-curve $-1 -44.879299295022442 7.9922484861200473 3.0476718132121476 0.8660253999169214 0 0.50000000669873634 I I #
point $-1 -28.507541421372778 7.9922484861200473 12.499910797519306 #
point $-1 -44.879299295022435 1.4371604663408917 3.0476718132121516 #
straight-curve $-1 -44.879299295022435 0 12.499910797519306 0 -1 0 I I #
vertex $-1 $537 $681 #
point $-1 -34.077753527326266 4.7147044762304695 5.2433235127580309 #
coedge $-1 $543 $542 $550 $644 forward $266 $-1 #
edge $-1 $647 -25.107863489383625 $546 -18.552775469604466 $545 $682 forward 7 unknown #
straight-curve $-1 -44.879299595657031 18.552775469604466 12.499910797519306 1 0 0 I I #
point $-1 -44.879299295022435 18.552775469604466 12.499910797519306 #
straight-curve $-1 -28.507541421372775 10.915159739747022 12.499910797519306 0 1 0 I I #
edge $-1 $551 28.507541421372778 $647 44.879299295022435 $550 $683 forward 7 unknown #
point $-1 -28.507541421372778 25.107863489383622 12.499910797519306 #
point $-1 -28.507541421372778 18.552775469604466 12.499910797519306 #
vertex $-1 $644 $684 #
straight-curve $-1 -44.879299295022435 25.107863489383625 0 0 0 -1 I I #
vertex $-1 $558 $685 #
point $-1 -34.077753527326266 21.830319479494044 5.2433235127580309 #
straight-curve $-1 -44.879299295022435 25.107863489383625 0 0 0 -1 I I #
point $-1 -44.879299295022435 -25.107863489383625 -12.499910797519306 #
straight-curve $-1 -44.879299295022435 0 -12.499910797519306 0 1 0 I I #
point $-1 -44.879299295022435 25.107863489383625 -12.499910797519306 #
coedge $-1 $584 $580 $589 $660 forward $439 $-1 #
vertex $-1 $581 $686 #
straight-curve $-1 -44.879299295022435 0 12.499910797519306 0 -1 0 I I #
point $-1 -44.879299295022435 -9.1233665171435234 12.499910797519306 #
straight-curve $-1 44.879299295022435 0 12.499910797519306 0 1 0 I I #
edge $-1 $656 -44.879299295022435 $593 44.879299295022435 $589 $687 forward 7 unknown #
straight-curve $-1 -44.879299295022435 -25.107863489383625 0 0 0 -1 I I #
point $-1 44.879299295022435 -25.107863489383625 12.499910797519306 #
straight-curve $-1 44.879299295022435 -9.1233665171435216 64.585607204687904 0 0 -1 I I #
straight-curve $-1 0 -9.1233665171435234 12.499910797519306 1 0 0 I I #
point $-1 44.879299295022442 -9.1233665171435216 5.4867950023820455 #
straight-curve $-1 44.879299295022442 -2.8468413231987917 5.4867950023820455 0 1 0 I I #
point $-1 44.879299295022435 -9.1233665171435234 12.499910797519306 #
point $-1 38.472754809643845 -7.7514929688451488 7.7212807622743478 #
point $-1 38.472754809643845 -5.6936826463975869 7.7212807622743478 #
point $-1 38.472754809643845 -3.635872323950025 7.7212807622743478 #
straight-curve $-1 44.879299295022435 25.107863489383625 0 0 0 -1 I I #
straight-curve $-1 44.879299295022435 0 12.499910797519306 0 1 0 I I #
point $-1 44.879299295022435 25.107863489383625 12.499910797519306 #
point $-1 38.472754809643845 19.620369296190127 7.7212807622743478 #
point $-1 38.472754809643845 21.678179618637685 7.7212807622743478 #
point $-1 38.472754809643845 23.735989941085244 7.7212807622743478 #
straight-curve $-1 -44.879299295022435 7.9922484861200473 40.390449026569087 0 0 -1 I I #
point $-1 -44.879299295022435 7.9922484861200473 12.499910797519306 #
straight-curve $-1 -44.879299295022435 2.3573522381152348 3.047671813212149 0 -1 0 I I #
point $-1 -44.879299295022435 7.9922484861200473 3.0476718132121516 #
point $-1 -34.443778920544446 4.7147044762304695 3.8772981061423728 #
straight-curve $-1 -44.879299295022435 0 12.499910797519306 0 -1 0 I I #
straight-curve $-1 0 25.107863489383625 12.499910797519306 -1 0 0 I I #
point $-1 -44.879299295022435 25.107863489383625 12.499910797519306 #
point $-1 -34.443778920544446 21.830319479494044 3.8772981061423728 #
point $-1 -44.879299295022435 -25.107863489383625 12.499910797519306 #
straight-curve $-1 0 -25.107863489383625 12.499910797519306 1 0 0 I I #
End-of-ACIS-data 