500 0 6 0           
7 Unknown 11 ACIS 5.0 NT 24 Fri Mar 26 01:34:43 1999 
-1 9.9999999999999995e-007 1e-010 
body $-1 $6 $-1 $7 #
body $-1 $8 $-1 $9 #
body $-1 $10 $-1 $11 #
body $-1 $12 $-1 $13 #
body $-1 $14 $-1 $15 #
body $-1 $16 $-1 $17 #
lump $-1 $-1 $18 $0 #
transform $-1 1 0 0 0 1 0 0 0 1 46.037781914731283 22.985030349310431 11.271552481700938 1 rotate no_reflect no_shear #
lump $-1 $-1 $19 $1 #
transform $-1 1 0 0 0 1 0 0 0 1 46.037781914731283 22.985030349310431 11.271552481700938 1 rotate no_reflect no_shear #
lump $-1 $-1 $20 $2 #
transform $-1 1 0 0 0 1 0 0 0 1 46.037781914731283 22.985030349310431 11.271552481700938 1 rotate no_reflect no_shear #
lump $-1 $-1 $21 $3 #
transform $-1 1 0 0 0 1 0 0 0 1 46.037781914731283 22.985030349310431 11.271552481700938 1 rotate no_reflect no_shear #
lump $-1 $-1 $22 $4 #
transform $-1 1 0 0 0 1 0 0 0 1 46.037781914731283 22.985030349310431 11.271552481700938 1 rotate no_reflect no_shear #
lump $-1 $-1 $23 $5 #
transform $-1 1 0 0 0 1 0 0 0 1 46.037781914731283 22.985030349310431 11.271552481700938 1 rotate no_reflect no_shear #
shell $-1 $-1 $-1 $24 $-1 $6 #
shell $-1 $-1 $-1 $25 $-1 $8 #
shell $-1 $-1 $-1 $26 $-1 $10 #
shell $-1 $-1 $-1 $27 $-1 $12 #
shell $-1 $-1 $-1 $28 $-1 $14 #
shell $-1 $-1 $-1 $29 $-1 $16 #
face $-1 $30 $31 $18 $-1 $32 forward single #
face $-1 $33 $34 $19 $-1 $35 reversed single #
face $-1 $36 $37 $20 $-1 $38 reversed single #
face $-1 $39 $40 $21 $-1 $41 forward single #
face $-1 $42 $43 $22 $-1 $44 reversed single #
face $-1 $45 $46 $23 $-1 $47 forward single #
face $-1 $48 $49 $18 $-1 $50 reversed single #
loop $-1 $-1 $51 $24 #
plane-surface $-1 0 0 11.271552481700938 0 0 1 1 0 0 forward_v I I I I #
face $-1 $52 $53 $19 $-1 $54 reversed single #
loop $-1 $-1 $55 $25 #
plane-surface $-1 0 -15.740487407210397 8.2715524817009385 0 0 1 1 0 0 forward_v I I I I #
face $-1 $56 $57 $20 $-1 $58 reversed single #
loop $-1 $-1 $59 $26 #
plane-surface $-1 66.407821094613197 -1.4241952734739538 131.66708529262081 0 -1 0 -0.80901700255871778 0 -0.5877852410284794 forward_v I I I I #
face $-1 $60 $61 $21 $-1 $62 forward single #
loop $-1 $63 $64 $27 #
cone-surface $-1 41.961258226318961 -4.9600698692921554 6.370292291546261 -0.80901700255871778 0 -0.5877852410284794 0.5877852410284794 0 -0.80901700255871778 1 I I 0 1 1 forward I I I I #
face $-1 $65 $66 $22 $-1 $67 reversed single #
loop $-1 $-1 $68 $28 #
plane-surface $-1 -126.56888528803034 -2.6796903398147851 46.6798060679304 0 1 0 -0.87461971476443456 0 0.48480960649040278 forward_v I I I I #
face $-1 $69 $70 $23 $-1 $71 forward single #
loop $-1 $72 $73 $29 #
cone-surface $-1 -42.271762621384454 1.8512522947074324 5.9867126005961504 0.87461971476443456 0 -0.48480960649040278 0.48480960649040278 0 0.87461971476443456 1 I I 0 1 1 forward I I I I #
face $-1 $74 $75 $18 $-1 $76 reversed single #
loop $-1 $-1 $77 $30 #
plane-surface $-1 0 0 -11.271552481700938 0 0 1 1 0 0 forward_v I I I I #
coedge $-1 $78 $79 $80 $81 forward $31 $-1 #
face $-1 $82 $83 $19 $-1 $84 reversed single #
loop $-1 $-1 $85 $33 #
plane-surface $-1 0 -8.4959444651103624 9.7715524817009385 0 -1 0 0 0 -1 forward_v I I I I #
coedge $-1 $86 $87 $88 $89 reversed $34 $-1 #
face $-1 $90 $91 $20 $-1 $92 forward single #
loop $-1 $-1 $93 $36 #
plane-surface $-1 -8.0828755636024994 -4.960069869292159 77.546427814287014 0.80901700255871778 0 0.5877852410284794 0.5877852410284794 0 -0.80901700255871778 forward_v I I I I #
coedge $-1 $94 $95 $96 $97 reversed $37 $-1 #
face $-1 $-1 $98 $21 $-1 $99 forward single #
loop $-1 $100 $101 $39 #
cone-surface $-1 40.464797747023212 -4.9600698692921554 5.2830501436921349 -0.80901700255871778 0 -0.5877852410284794 0.2938926205142397 0 -0.40450850127935889 1 I I -0.70710678118654746 0.70710678118654746 0.5 forward I I I I #
loop $-1 $-1 $102 $27 #
coedge $-1 $64 $64 $103 $104 reversed $40 $-1 #
face $-1 $105 $106 $22 $-1 $107 reversed single #
loop $-1 $-1 $108 $42 #
plane-surface $-1 -46.037781914731312 1.8512522947074324 2.0406882003866897 -0.87461971476443456 0 0.48480960649040278 0.48480960649040278 0 0.87461971476443456 forward_v I I I I #
coedge $-1 $109 $110 $111 $112 reversed $43 $-1 #
face $-1 $-1 $113 $23 $-1 $114 forward single #
loop $-1 $115 $116 $45 #
cone-surface $-1 -40.626809187692395 1.8512522947074324 5.0749000569032869 0.87461971476443456 0 -0.48480960649040278 0.24240480324520139 0 0.43730985738221728 1 I I -0.70710678118654746 0.70710678118654746 0.5 forward I I I I #
loop $-1 $-1 $117 $29 #
coedge $-1 $73 $73 $118 $119 reversed $46 $-1 #
face $-1 $120 $121 $18 $-1 $122 reversed single #
loop $-1 $-1 $123 $48 #
plane-surface $-1 0 -22.985030349310431 0 0 1 0 0 0 1 forward_v I I I I #
coedge $-1 $124 $125 $126 $127 forward $49 $-1 #
coedge $-1 $128 $51 $129 $130 forward $31 $-1 #
coedge $-1 $51 $128 $131 $132 forward $31 $-1 #
coedge $-1 $133 $134 $51 $81 reversed $135 $-1 #
edge $-1 $136 -22.985030349310431 $137 22.985030349310431 $80 $138 forward 7 unknown #
face $-1 $139 $140 $19 $-1 $141 reversed single #
loop $-1 $-1 $142 $52 #
plane-surface $-1 -46.037781914731283 0 0 1 0 0 0 0 -1 forward_v I I I I #
coedge $-1 $143 $144 $87 $145 reversed $53 $-1 #
coedge $-1 $146 $55 $147 $148 reversed $34 $-1 #
coedge $-1 $55 $146 $85 $145 forward $34 $-1 #
coedge $-1 $149 $150 $55 $89 forward $151 $-1 #
edge $-1 $152 -15.114786645705234 $153 -0.62570076150516396 $88 $154 forward 7 unknown #
face $-1 $155 $156 $20 $-1 $157 forward single #
loop $-1 $-1 $158 $56 #
plane-surface $-1 0 -8.4959444651103624 9.7715524817009385 0 -1 0 0 0 -1 forward_v I I I I #
coedge $-1 $159 $160 $161 $162 reversed $57 $-1 #
coedge $-1 $95 $59 $163 $164 reversed $37 $-1 #
coedge $-1 $59 $94 $159 $165 reversed $37 $-1 #
coedge $-1 $161 $166 $59 $97 forward $156 $-1 #
edge $-1 $167 -12.833871367424685 $168 -6.8647279466328328 $96 $169 forward 7 unknown #
loop $-1 $-1 $103 $60 #
plane-surface $-1 -8.0828755636024994 -4.960069869292159 77.546427814287014 0.80901700255871778 0 0.5877852410284794 0.5877852410284794 0 -0.80901700255871778 forward_v I I I I #
loop $-1 $-1 $170 $39 #
coedge $-1 $101 $101 $102 $171 reversed $61 $-1 #
coedge $-1 $102 $102 $101 $171 forward $63 $-1 #
coedge $-1 $103 $103 $64 $104 forward $98 $-1 #
edge $-1 $172 0 $172 6.2831853071796004 $103 $173 forward 7 unknown #
face $-1 $174 $175 $22 $-1 $176 forward single #
loop $-1 $-1 $177 $65 #
plane-surface $-1 -126.56888528803034 6.3821949292296498 46.6798060679304 0 -1 0 0.87461971476443456 0 -0.48480960649040278 forward_v I I I I #
coedge $-1 $178 $179 $180 $181 reversed $66 $-1 #
coedge $-1 $110 $68 $182 $183 reversed $43 $-1 #
coedge $-1 $68 $109 $178 $184 reversed $43 $-1 #
coedge $-1 $180 $185 $68 $112 forward $175 $-1 #
edge $-1 $186 17.246660729283889 $187 22.363412163357815 $111 $188 forward 7 unknown #
loop $-1 $-1 $118 $69 #
plane-surface $-1 -46.037781914731312 1.8512522947074324 2.0406882003866897 -0.87461971476443456 0 0.48480960649040278 0.48480960649040278 0 0.87461971476443456 forward_v I I I I #
loop $-1 $-1 $189 $45 #
coedge $-1 $116 $116 $117 $190 reversed $70 $-1 #
coedge $-1 $117 $117 $116 $190 forward $72 $-1 #
coedge $-1 $118 $118 $73 $119 forward $113 $-1 #
edge $-1 $191 0 $191 6.2831853071796004 $118 $192 forward 7 unknown #
face $-1 $193 $194 $18 $-1 $195 reversed single #
loop $-1 $-1 $196 $74 #
plane-surface $-1 -46.037781914731283 0 0 1 0 0 0 0 -1 forward_v I I I I #
coedge $-1 $197 $131 $198 $199 forward $75 $-1 #
coedge $-1 $200 $77 $197 $201 forward $49 $-1 #
coedge $-1 $77 $200 $202 $203 forward $49 $-1 #
coedge $-1 $134 $133 $77 $127 reversed $135 $-1 #
edge $-1 $204 -22.985030349310431 $205 22.985030349310431 $126 $206 forward 7 unknown #
coedge $-1 $79 $78 $207 $208 forward $31 $-1 #
coedge $-1 $209 $210 $78 $130 reversed $194 $-1 #
edge $-1 $137 -46.037781914731283 $211 46.037781914731283 $129 $212 forward 7 unknown #
coedge $-1 $123 $213 $79 $132 reversed $75 $-1 #
edge $-1 $214 -46.037781914731283 $136 46.037781914731283 $131 $215 forward 7 unknown #
coedge $-1 $126 $80 $213 $216 forward $135 $-1 #
coedge $-1 $80 $126 $209 $217 reversed $135 $-1 #
loop $-1 $-1 $133 $193 #
vertex $-1 $81 $218 #
vertex $-1 $81 $219 #
straight-curve $-1 46.037781914731283 0 11.271552481700938 0 1 0 I I #
face $-1 $220 $221 $19 $-1 $222 forward single #
loop $-1 $-1 $147 $82 #
plane-surface $-1 0 -22.985030349310431 0 0 1 0 0 0 1 forward_v I I I I #
coedge $-1 $223 $224 $143 $225 forward $83 $-1 #
coedge $-1 $226 $85 $142 $225 reversed $53 $-1 #
coedge $-1 $85 $226 $149 $227 reversed $53 $-1 #
edge $-1 $228 -46.037781914731283 $153 46.037781914731283 $85 $229 forward 7 unknown #
coedge $-1 $87 $86 $223 $230 reversed $34 $-1 #
coedge $-1 $231 $232 $86 $148 forward $140 $-1 #
edge $-1 $233 -46.037781914731283 $152 46.037781914731283 $147 $234 forward 7 unknown #
coedge $-1 $235 $88 $144 $227 forward $151 $-1 #
coedge $-1 $88 $235 $231 $236 forward $151 $-1 #
loop $-1 $-1 $149 $220 #
vertex $-1 $148 $237 #
vertex $-1 $89 $238 #
straight-curve $-1 46.037781914731283 -7.8702437036051984 8.2715524817009385 0 1 0 I I #
face $-1 $-1 $239 $20 $-1 $240 reversed single #
loop $-1 $-1 $161 $90 #
plane-surface $-1 0 0 11.271552481700938 0 0 1 1 0 0 forward_v I I I I #
coedge $-1 $241 $242 $160 $243 reversed $91 $-1 #
coedge $-1 $244 $93 $95 $165 forward $57 $-1 #
coedge $-1 $93 $244 $158 $243 forward $57 $-1 #
coedge $-1 $245 $96 $93 $162 forward $156 $-1 #
edge $-1 $168 -1.0558396611721257 $246 6.0159095304642829 $161 $247 forward 7 unknown #
coedge $-1 $248 $249 $94 $164 forward $239 $-1 #
edge $-1 $250 -62.777811490239074 $167 -54.561990164609469 $163 $251 forward 7 unknown #
edge $-1 $168 81.920250282719991 $250 92.075563829462538 $95 $252 forward 7 unknown #
coedge $-1 $96 $245 $248 $253 forward $156 $-1 #
vertex $-1 $164 $254 #
vertex $-1 $97 $255 #
straight-curve $-1 33.203910547306599 -1.4241952734739538 11.271552481700937 -1 0 0 I I #
coedge $-1 $170 $170 $-1 $256 reversed $100 $-1 #
edge $-1 $257 0 $257 6.2831853071796004 $101 $258 forward 7 unknown #
vertex $-1 $104 $259 #
ellipse-curve $-1 43.053210204335343 -4.9600698692921554 7.1636418188861413 0.80901700255871778 0 0.5877852410284794 0.5877852410284794 0 -0.80901700255871778 1 I I #
face $-1 $-1 $260 $22 $-1 $261 reversed single #
loop $-1 $-1 $111 $105 #
plane-surface $-1 0 0 11.271552481700938 0 0 1 1 0 0 forward_v I I I I #
coedge $-1 $262 $263 $264 $265 reversed $106 $-1 #
coedge $-1 $266 $108 $110 $184 forward $66 $-1 #
coedge $-1 $108 $266 $262 $267 forward $66 $-1 #
coedge $-1 $264 $111 $108 $181 forward $175 $-1 #
edge $-1 $187 -3.6053164871685013 $268 5.4565687818759336 $180 $269 forward 7 unknown #
coedge $-1 $270 $271 $109 $183 forward $260 $-1 #
edge $-1 $272 -21.299214833578461 $186 -12.068350552264262 $182 $273 forward 7 unknown #
edge $-1 $187 -10.554146134014875 $272 -5.8446173240376603e-014 $110 $274 forward 7 unknown #
coedge $-1 $111 $264 $270 $275 forward $175 $-1 #
vertex $-1 $183 $276 #
vertex $-1 $112 $277 #
straight-curve $-1 -63.284442644015172 -2.6796903398147851 11.271552481700937 1 0 0 I I #
coedge $-1 $189 $189 $-1 $278 reversed $115 $-1 #
edge $-1 $279 0 $279 6.2831853071796004 $116 $280 forward 7 unknown #
vertex $-1 $119 $281 #
ellipse-curve $-1 -43.479406197694324 1.8512522947074324 6.6561203410438274 -0.87461971476443456 0 0.48480960649040278 0.48480960649040278 0 0.87461971476443456 1 I I #
face $-1 $-1 $135 $18 $-1 $282 reversed single #
loop $-1 $-1 $209 $120 #
plane-surface $-1 0 22.985030349310431 0 0 -1 0 0 0 -1 forward_v I I I I #
coedge $-1 $283 $207 $210 $284 forward $121 $-1 #
coedge $-1 $213 $123 $124 $201 reversed $75 $-1 #
coedge $-1 $207 $283 $123 $199 reversed $121 $-1 #
edge $-1 $214 -11.271552481700938 $285 11.271552481700938 $198 $286 forward 7 unknown #
coedge $-1 $125 $124 $283 $287 forward $49 $-1 #
edge $-1 $205 -46.037781914731283 $285 46.037781914731283 $197 $288 forward 7 unknown #
coedge $-1 $210 $209 $125 $203 reversed $194 $-1 #
edge $-1 $289 -46.037781914731283 $204 46.037781914731283 $202 $290 forward 7 unknown #
vertex $-1 $127 $291 #
vertex $-1 $216 $292 #
straight-curve $-1 46.037781914731283 0 -11.271552481700938 0 -1 0 I I #
coedge $-1 $196 $198 $128 $208 reversed $121 $-1 #
edge $-1 $211 -22.985030349310431 $214 22.985030349310431 $207 $293 forward 7 unknown #
coedge $-1 $202 $129 $134 $217 forward $194 $-1 #
coedge $-1 $129 $202 $196 $284 reversed $194 $-1 #
vertex $-1 $130 $294 #
straight-curve $-1 0 22.985030349310431 11.271552481700938 -1 0 0 I I #
coedge $-1 $131 $197 $133 $216 reversed $75 $-1 #
vertex $-1 $208 $295 #
straight-curve $-1 0 -22.985030349310431 11.271552481700938 1 0 0 I I #
edge $-1 $136 -11.271552481700938 $205 11.271552481700938 $133 $296 forward 7 unknown #
edge $-1 $137 -11.271552481700938 $204 11.271552481700938 $134 $297 forward 7 unknown #
point $-1 46.037781914731283 -22.985030349310431 11.271552481700938 #
point $-1 46.037781914731283 22.985030349310431 11.271552481700938 #
face $-1 $-1 $151 $19 $-1 $298 reversed single #
loop $-1 $-1 $299 $139 #
plane-surface $-1 0 0 11.271552481700938 0 0 1 1 0 0 forward_v I I I I #
coedge $-1 $300 $142 $146 $230 forward $83 $-1 #
coedge $-1 $142 $300 $301 $302 reversed $83 $-1 #
edge $-1 $303 -6.3857762408504692 $228 -3.3857762408504692 $142 $304 forward 7 unknown #
coedge $-1 $144 $143 $299 $305 reversed $53 $-1 #
edge $-1 $153 3.3857762408504692 $306 6.3857762408504692 $149 $307 forward 7 unknown #
vertex $-1 $230 $308 #
straight-curve $-1 0 -8.4959444651103624 8.2715524817009385 1 0 0 I I #
edge $-1 $228 0.62570076150516396 $233 15.114786645705234 $223 $309 forward 7 unknown #
coedge $-1 $310 $147 $150 $236 reversed $140 $-1 #
coedge $-1 $147 $310 $300 $311 forward $140 $-1 #
vertex $-1 $148 $312 #
straight-curve $-1 0 -22.985030349310431 8.2715524817009385 1 0 0 I I #
coedge $-1 $150 $149 $313 $314 reversed $151 $-1 #
edge $-1 $315 -11.271552481700938 $152 -8.2715524817009385 $150 $316 forward 7 unknown #
point $-1 46.037781914731283 -22.985030349310431 8.2715524817009385 #
point $-1 46.037781914731283 -8.4959444651103624 8.2715524817009385 #
loop $-1 $-1 $163 $155 #
plane-surface $-1 46.037781914731283 0 0 -1 0 0 0 0 1 forward_v I I I I #
coedge $-1 $242 $158 $317 $318 reversed $91 $-1 #
coedge $-1 $158 $241 $245 $319 reversed $91 $-1 #
edge $-1 $320 -92.075563829462538 $246 -81.920250282719991 $158 $321 forward 7 unknown #
coedge $-1 $160 $159 $249 $322 reversed $57 $-1 #
coedge $-1 $166 $161 $242 $319 forward $156 $-1 #
vertex $-1 $319 $323 #
straight-curve $-1 40.068638493939424 -2.4800349346460795 11.271552481700937 0 -1 0 I I #
coedge $-1 $317 $163 $166 $253 reversed $239 $-1 #
coedge $-1 $163 $317 $244 $322 forward $239 $-1 #
vertex $-1 $164 $324 #
straight-curve $-1 46.037781914731283 -1.4241952734739538 65.833542646310406 0 0 1 I I #
straight-curve $-1 -8.0828755636024994 -1.4241952734739538 77.546427814287014 0.5877852410284794 0 -0.80901700255871778 I I #
edge $-1 $325 -8.4959444651103624 $167 -1.4241952734739538 $248 $326 forward 7 unknown #
point $-1 46.037781914731283 -1.4241952734739538 11.271552481700938 #
point $-1 40.068638493939432 -1.4241952734739538 11.271552481700937 #
edge $-1 $327 1 $327 0 $170 $-1 forward 7 unknown #
vertex $-1 $171 $328 #
ellipse-curve $-1 40.869306248302571 -4.9600698692921554 5.5769427642063745 0.80901700255871778 0 0.5877852410284794 0.5877852410284794 0 -0.80901700255871778 1 I I #
point $-1 43.640995445363835 -4.9600698692921554 6.354624816327429 #
loop $-1 $-1 $182 $174 #
plane-surface $-1 -46.037781914731283 0 0 1 0 0 0 0 -1 forward_v I I I I #
coedge $-1 $263 $177 $179 $267 reversed $106 $-1 #
coedge $-1 $177 $262 $329 $330 reversed $106 $-1 #
coedge $-1 $185 $180 $177 $265 forward $175 $-1 #
edge $-1 $268 -22.363412163357815 $331 -17.246660729283889 $264 $332 forward 7 unknown #
coedge $-1 $179 $178 $271 $333 reversed $66 $-1 #
edge $-1 $334 5.8446173240376603e-014 $268 10.554146134014875 $262 $335 forward 7 unknown #
vertex $-1 $181 $336 #
straight-curve $-1 -40.921030480657357 0.92562614735371618 11.271552481700938 0 1 0 I I #
coedge $-1 $329 $182 $185 $275 reversed $260 $-1 #
coedge $-1 $182 $329 $266 $333 forward $260 $-1 #
vertex $-1 $183 $337 #
straight-curve $-1 -46.037781914731283 -2.6796903398147851 23.3399030339652 0 0 1 I I #
straight-curve $-1 -46.037781914731312 -2.6796903398147851 2.0406882003866897 -0.48480960649040278 0 -0.87461971476443456 I I #
edge $-1 $331 -6.3821949292296498 $186 2.6796903398147851 $270 $338 forward 7 unknown #
point $-1 -46.037781914731283 -2.6796903398147851 11.271552481700938 #
point $-1 -40.921030480657357 -2.6796903398147851 11.271552481700938 #
edge $-1 $339 1 $339 0 $189 $-1 forward 7 unknown #
vertex $-1 $190 $340 #
ellipse-curve $-1 -41.064119045074612 1.8512522947074324 5.3173048601484885 -0.87461971476443456 0 0.48480960649040278 0.48480960649040278 0 0.87461971476443456 1 I I #
point $-1 -42.994596591203901 1.8512522947074324 7.5307400558082467 #
plane-surface $-1 46.037781914731283 0 0 -1 0 0 0 0 1 forward_v I I I I #
coedge $-1 $198 $196 $200 $287 reversed $121 $-1 #
edge $-1 $211 -11.271552481700938 $289 11.271552481700938 $210 $341 forward 7 unknown #
vertex $-1 $287 $342 #
straight-curve $-1 -46.037781914731283 -22.985030349310431 0 0 0 -1 I I #
edge $-1 $285 -22.985030349310431 $289 22.985030349310431 $283 $343 forward 7 unknown #
straight-curve $-1 0 -22.985030349310431 -11.271552481700938 -1 0 0 I I #
vertex $-1 $203 $344 #
straight-curve $-1 0 22.985030349310431 -11.271552481700938 1 0 0 I I #
point $-1 46.037781914731283 22.985030349310431 -11.271552481700938 #
point $-1 46.037781914731283 -22.985030349310431 -11.271552481700938 #
straight-curve $-1 -46.037781914731283 0 11.271552481700938 0 -1 0 I I #
point $-1 -46.037781914731283 22.985030349310431 11.271552481700938 #
point $-1 -46.037781914731283 -22.985030349310431 11.271552481700938 #
straight-curve $-1 46.037781914731283 -22.985030349310431 0 0 0 -1 I I #
straight-curve $-1 46.037781914731283 22.985030349310431 0 0 0 -1 I I #
plane-surface $-1 46.037781914731283 0 0 -1 0 0 0 0 1 forward_v I I I I #
coedge $-1 $301 $313 $226 $305 forward $221 $-1 #
coedge $-1 $224 $223 $232 $311 reversed $83 $-1 #
coedge $-1 $345 $299 $224 $302 forward $221 $-1 #
edge $-1 $303 8.4959444651103624 $346 22.985030349310431 $224 $347 forward 7 unknown #
vertex $-1 $302 $348 #
straight-curve $-1 -46.037781914731283 -8.4959444651103624 4.8857762408504692 0 0 -1 I I #
edge $-1 $306 -46.037781914731283 $303 46.037781914731283 $299 $349 forward 7 unknown #
vertex $-1 $227 $350 #
straight-curve $-1 46.037781914731283 -8.4959444651103624 4.8857762408504692 0 0 1 I I #
point $-1 -46.037781914731283 -8.4959444651103624 8.2715524817009385 #
straight-curve $-1 -46.037781914731283 -7.8702437036051984 8.2715524817009385 0 -1 0 I I #
coedge $-1 $232 $231 $345 $351 reversed $140 $-1 #
edge $-1 $346 -11.271552481700938 $233 -8.2715524817009385 $300 $352 forward 7 unknown #
point $-1 -46.037781914731283 -22.985030349310431 8.2715524817009385 #
coedge $-1 $299 $345 $235 $314 forward $221 $-1 #
edge $-1 $315 -22.985030349310431 $306 -8.4959444651103624 $235 $353 forward 7 unknown #
vertex $-1 $314 $354 #
straight-curve $-1 46.037781914731283 -22.985030349310431 0 0 0 -1 I I #
coedge $-1 $249 $248 $241 $318 forward $239 $-1 #
edge $-1 $325 54.561990164609469 $320 62.777811490239074 $317 $355 forward 7 unknown #
edge $-1 $246 40.068638493939424 $325 46.037781914731283 $245 $356 forward 7 unknown #
vertex $-1 $318 $357 #
straight-curve $-1 -8.0828755636024994 -8.4959444651103642 77.546427814287014 -0.5877852410284794 0 0.80901700255871778 I I #
edge $-1 $320 -6.0159095304642847 $250 1.0558396611721257 $249 $358 forward 7 unknown #
point $-1 40.068638493939424 -8.4959444651103624 11.271552481700938 #
point $-1 46.037781914731283 -1.4241952734739538 3.0557311560713316 #
vertex $-1 $253 $359 #
straight-curve $-1 46.037781914731283 0 11.271552481700938 0 1 0 I I #
vertex $-1 $256 $360 #
point $-1 41.457091489331049 -4.9600698692921554 4.7679257616476569 #
coedge $-1 $271 $270 $263 $330 forward $260 $-1 #
edge $-1 $331 12.068350552264262 $334 21.299214833578461 $329 $361 forward 7 unknown #
vertex $-1 $275 $362 #
straight-curve $-1 -63.284442644015172 6.3821949292296498 11.271552481700937 -1 0 0 I I #
edge $-1 $334 -5.4565687818759336 $272 3.6053164871685013 $271 $363 forward 7 unknown #
vertex $-1 $333 $364 #
straight-curve $-1 -46.037781914731312 6.3821949292296498 2.0406882003866897 0.48480960649040278 0 0.87461971476443456 I I #
point $-1 -40.921030480657357 6.3821949292296498 11.271552481700938 #
point $-1 -46.037781914731283 -2.6796903398147851 2.0406882003867408 #
straight-curve $-1 -46.037781914731283 0 11.271552481700938 0 -1 0 I I #
vertex $-1 $278 $365 #
point $-1 -40.579309438584211 1.8512522947074324 6.1919245749129228 #
straight-curve $-1 -46.037781914731283 22.985030349310431 0 0 0 -1 I I #
point $-1 -46.037781914731283 -22.985030349310431 -11.271552481700938 #
straight-curve $-1 -46.037781914731283 0 -11.271552481700938 0 1 0 I I #
point $-1 -46.037781914731283 22.985030349310431 -11.271552481700938 #
coedge $-1 $313 $301 $310 $351 forward $221 $-1 #
vertex $-1 $302 $366 #
straight-curve $-1 -46.037781914731283 0 11.271552481700938 0 -1 0 I I #
point $-1 -46.037781914731283 -8.4959444651103624 11.271552481700938 #
straight-curve $-1 0 -8.4959444651103624 11.271552481700938 -1 0 0 I I #
point $-1 46.037781914731283 -8.4959444651103624 11.271552481700938 #
edge $-1 $346 -46.037781914731283 $315 46.037781914731283 $310 $367 forward 7 unknown #
straight-curve $-1 -46.037781914731283 -22.985030349310431 0 0 0 -1 I I #
straight-curve $-1 46.037781914731283 0 11.271552481700938 0 1 0 I I #
point $-1 46.037781914731283 -22.985030349310431 11.271552481700938 #
straight-curve $-1 46.037781914731283 -8.4959444651103642 65.833542646310406 0 0 -1 I I #
straight-curve $-1 0 -8.4959444651103624 11.271552481700938 1 0 0 I I #
point $-1 46.037781914731283 -8.4959444651103642 3.0557311560713316 #
straight-curve $-1 46.037781914731283 -2.4800349346460795 3.0557311560713316 0 1 0 I I #
point $-1 46.037781914731283 -8.4959444651103624 11.271552481700938 #
point $-1 40.060289245743853 -4.9600698692921554 4.9891575231778953 #
straight-curve $-1 -46.037781914731283 6.3821949292296498 23.3399030339652 0 0 -1 I I #
point $-1 -46.037781914731283 6.3821949292296498 11.271552481700938 #
straight-curve $-1 -46.037781914731283 0.92562614735371618 2.0406882003867381 0 -1 0 I I #
point $-1 -46.037781914731283 6.3821949292296498 2.0406882003867408 #
point $-1 -40.189499330310177 1.8512522947074324 4.8324952536580854 #
point $-1 -46.037781914731283 -22.985030349310431 11.271552481700938 #
straight-curve $-1 0 -22.985030349310431 11.271552481700938 1 0 0 I I #
End-of-ACIS-data 