500 0 6 0           
7 Unknown 11 ACIS 5.0 NT 24 Fri Mar 26 15:53:17 1999 
-1 9.9999999999999995e-007 1e-010 
body $-1 $6 $-1 $7 #
body $-1 $8 $-1 $9 #
body $-1 $10 $-1 $11 #
body $-1 $12 $-1 $13 #
body $-1 $14 $-1 $15 #
body $-1 $16 $-1 $17 #
lump $-1 $-1 $18 $0 #
transform $-1 1 0 0 0 1 0 0 0 1 77.21549119541001 37.627676540782765 15.809779252761217 1 rotate no_reflect no_shear #
lump $-1 $-1 $19 $1 #
transform $-1 1 0 0 0 1 0 0 0 1 77.21549119541001 37.627676540782765 15.809779252761217 1 rotate no_reflect no_shear #
lump $-1 $-1 $20 $2 #
transform $-1 1 0 0 0 1 0 0 0 1 77.21549119541001 37.627676540782765 15.809779252761217 1 rotate no_reflect no_shear #
lump $-1 $-1 $21 $3 #
transform $-1 1 0 0 0 1 0 0 0 1 77.21549119541001 37.627676540782765 15.809779252761217 1 rotate no_reflect no_shear #
lump $-1 $-1 $22 $4 #
transform $-1 1 0 0 0 1 0 0 0 1 77.21549119541001 37.627676540782765 15.809779252761217 1 rotate no_reflect no_shear #
lump $-1 $-1 $23 $5 #
transform $-1 1 0 0 0 1 0 0 0 1 77.21549119541001 37.627676540782765 15.809779252761217 1 rotate no_reflect no_shear #
shell $-1 $-1 $-1 $24 $-1 $6 #
shell $-1 $-1 $-1 $25 $-1 $8 #
shell $-1 $-1 $-1 $26 $-1 $10 #
shell $-1 $-1 $-1 $27 $-1 $12 #
shell $-1 $-1 $-1 $28 $-1 $14 #
shell $-1 $-1 $-1 $29 $-1 $16 #
face $-1 $30 $31 $18 $-1 $32 forward single #
face $-1 $33 $34 $19 $-1 $35 forward single #
face $-1 $36 $37 $20 $-1 $38 forward single #
face $-1 $39 $40 $21 $-1 $41 reversed single #
face $-1 $42 $43 $22 $-1 $44 forward single #
face $-1 $45 $46 $23 $-1 $47 forward single #
face $-1 $48 $49 $18 $-1 $50 reversed single #
loop $-1 $-1 $51 $24 #
plane-surface $-1 0 0 15.809779252761217 0 0 1 1 0 0 forward_v I I I I #
face $-1 $52 $53 $19 $-1 $54 reversed single #
loop $-1 $-1 $55 $25 #
plane-surface $-1 -77.21549119541001 0 0 1 0 0 0 0 -1 forward_v I I I I #
face $-1 $56 $57 $20 $-1 $58 forward single #
loop $-1 $-1 $59 $26 #
plane-surface $-1 77.21549119541001 0 0 -1 0 0 0 0 1 forward_v I I I I #
face $-1 $60 $61 $21 $-1 $62 reversed single #
loop $-1 $-1 $63 $27 #
plane-surface $-1 -47.607957669796306 52.65908592134938 179.16901876941048 1 0 0 0 -0.51503808176128008 -0.85716729658548041 forward_v I I I I #
face $-1 $64 $65 $22 $-1 $66 forward single #
loop $-1 $67 $68 $28 #
cone-surface $-1 -38.665335364769419 29.225692332814944 8.7052426308218447 0 -0.51503808176128008 -0.85716729658548041 2 0 0 1 I I 0 1 2 forward I I I I #
face $-1 $69 $70 $23 $-1 $71 forward single #
loop $-1 $72 $73 $29 #
cone-surface $-1 -25.251401907229081 29.225692332814944 8.7052426308218447 0 -0.51503808176128008 -0.85716729658548041 2 0 0 1 I I 0 1 2 forward I I I I #
face $-1 $74 $75 $18 $-1 $76 reversed single #
loop $-1 $-1 $77 $30 #
plane-surface $-1 0 0 -15.809779252761217 0 0 1 1 0 0 forward_v I I I I #
coedge $-1 $78 $79 $80 $81 forward $31 $-1 #
face $-1 $82 $83 $19 $-1 $84 reversed single #
loop $-1 $-1 $85 $33 #
plane-surface $-1 0 37.627676540782765 0 0 -1 0 0 0 -1 forward_v I I I I #
coedge $-1 $86 $87 $88 $89 forward $34 $-1 #
face $-1 $90 $91 $20 $-1 $92 reversed single #
loop $-1 $-1 $93 $36 #
plane-surface $-1 0 0 15.809779252761217 0 0 1 1 0 0 forward_v I I I I #
coedge $-1 $94 $95 $96 $97 forward $37 $-1 #
face $-1 $98 $99 $21 $-1 $100 reversed single #
loop $-1 $-1 $101 $39 #
plane-surface $-1 -31.95836863599925 -26.878751013728582 46.79583108443137 0 0.51503808176128008 0.85716729658548041 1 0 0 forward_v I I I I #
coedge $-1 $102 $103 $104 $105 reversed $40 $-1 #
face $-1 $-1 $106 $22 $-1 $107 forward single #
loop $-1 $108 $109 $42 #
cone-surface $-1 -38.665335364769419 26.777159135923959 4.6301991431605884 0 -0.51503808176128008 -0.85716729658548041 1 0 0 1 I I -0.70710678118654746 0.70710678118654746 1 forward I I I I #
loop $-1 $-1 $110 $28 #
coedge $-1 $68 $68 $111 $112 reversed $43 $-1 #
face $-1 $-1 $113 $23 $-1 $114 forward single #
loop $-1 $115 $116 $45 #
cone-surface $-1 -25.251401907229081 26.777159135923959 4.6301991431605884 0 -0.51503808176128008 -0.85716729658548041 1 0 0 1 I I -0.70710678118654746 0.70710678118654746 1 forward I I I I #
loop $-1 $-1 $117 $29 #
coedge $-1 $73 $73 $118 $119 reversed $46 $-1 #
face $-1 $120 $121 $18 $-1 $122 reversed single #
loop $-1 $-1 $123 $48 #
plane-surface $-1 0 -37.627676540782765 0 0 1 0 0 0 1 forward_v I I I I #
coedge $-1 $124 $125 $126 $127 forward $49 $-1 #
coedge $-1 $128 $51 $129 $130 forward $31 $-1 #
coedge $-1 $51 $128 $131 $132 forward $31 $-1 #
coedge $-1 $133 $134 $51 $81 reversed $135 $-1 #
edge $-1 $136 -37.627676540782765 $137 37.627676540782765 $80 $138 forward 7 unknown #
face $-1 $139 $140 $19 $-1 $141 reversed single #
loop $-1 $-1 $88 $52 #
plane-surface $-1 -83.418620950033471 0 8.3451625707497783 0 0 1 1 0 0 forward_v I I I I #
coedge $-1 $142 $143 $86 $144 forward $53 $-1 #
coedge $-1 $145 $55 $85 $144 reversed $34 $-1 #
coedge $-1 $55 $145 $146 $147 reversed $34 $-1 #
coedge $-1 $148 $149 $55 $89 reversed $83 $-1 #
edge $-1 $150 -37.627676540782765 $151 37.627676540782765 $88 $152 forward 7 unknown #
face $-1 $153 $154 $20 $-1 $155 reversed single #
loop $-1 $-1 $156 $56 #
plane-surface $-1 0 -37.627676540782765 0 0 1 0 0 0 1 forward_v I I I I #
coedge $-1 $157 $158 $159 $160 forward $57 $-1 #
coedge $-1 $159 $59 $156 $161 reversed $37 $-1 #
coedge $-1 $59 $159 $162 $163 reversed $37 $-1 #
coedge $-1 $164 $165 $59 $97 reversed $154 $-1 #
edge $-1 $166 -37.627676540782765 $167 37.627676540782765 $96 $168 forward 7 unknown #
face $-1 $169 $170 $21 $-1 $171 reversed single #
loop $-1 $-1 $172 $60 #
plane-surface $-1 -16.308779602202193 52.65908592134938 179.16901876941048 -1 0 0 0 0.51503808176128008 0.85716729658548041 forward_v I I I I #
coedge $-1 $173 $174 $175 $176 reversed $61 $-1 #
coedge $-1 $103 $63 $177 $178 reversed $40 $-1 #
coedge $-1 $63 $102 $173 $179 reversed $40 $-1 #
coedge $-1 $175 $180 $63 $105 forward $181 $-1 #
edge $-1 $182 -11.298133580108075 $183 1.6388446055681847 $104 $184 forward 7 unknown #
loop $-1 $-1 $111 $64 #
plane-surface $-1 -31.95836863599925 -26.878751013728582 46.79583108443137 0 0.51503808176128008 0.85716729658548041 1 0 0 forward_v I I I I #
loop $-1 $-1 $185 $42 #
coedge $-1 $109 $109 $110 $186 reversed $65 $-1 #
coedge $-1 $110 $110 $109 $186 forward $67 $-1 #
coedge $-1 $111 $111 $68 $112 forward $106 $-1 #
edge $-1 $187 -1.5684998720914107e-016 $187 6.2831853071796004 $111 $188 forward 7 unknown #
loop $-1 $-1 $118 $69 #
plane-surface $-1 -31.95836863599925 -26.878751013728582 46.79583108443137 0 0.51503808176128008 0.85716729658548041 1 0 0 forward_v I I I I #
loop $-1 $-1 $189 $45 #
coedge $-1 $116 $116 $117 $190 reversed $70 $-1 #
coedge $-1 $117 $117 $116 $190 forward $72 $-1 #
coedge $-1 $118 $118 $73 $119 forward $113 $-1 #
edge $-1 $191 -1.5684998720914107e-016 $191 6.2831853071796004 $118 $192 forward 7 unknown #
face $-1 $193 $194 $18 $-1 $195 reversed single #
loop $-1 $-1 $196 $74 #
plane-surface $-1 -77.21549119541001 0 0 1 0 0 0 0 -1 forward_v I I I I #
coedge $-1 $197 $131 $198 $199 forward $75 $-1 #
coedge $-1 $200 $77 $197 $201 forward $49 $-1 #
coedge $-1 $77 $200 $202 $203 forward $49 $-1 #
coedge $-1 $134 $133 $77 $127 reversed $135 $-1 #
edge $-1 $204 -37.627676540782765 $205 37.627676540782765 $126 $206 forward 7 unknown #
coedge $-1 $79 $78 $207 $208 forward $31 $-1 #
coedge $-1 $209 $210 $78 $130 reversed $194 $-1 #
edge $-1 $137 -77.21549119541001 $211 77.21549119541001 $129 $212 forward 7 unknown #
coedge $-1 $123 $213 $79 $132 reversed $75 $-1 #
edge $-1 $214 -77.21549119541001 $136 77.21549119541001 $131 $215 forward 7 unknown #
coedge $-1 $126 $80 $213 $216 forward $135 $-1 #
coedge $-1 $80 $126 $209 $217 reversed $135 $-1 #
loop $-1 $-1 $133 $193 #
vertex $-1 $81 $218 #
vertex $-1 $81 $219 #
straight-curve $-1 77.21549119541001 0 15.809779252761217 0 1 0 I I #
face $-1 $220 $221 $19 $-1 $222 forward single #
loop $-1 $-1 $223 $82 #
plane-surface $-1 -89.621750704656932 0 12.077470911755498 1 0 0 0 0 -1 forward_v I I I I #
coedge $-1 $224 $85 $149 $225 reversed $53 $-1 #
coedge $-1 $85 $224 $226 $227 reversed $53 $-1 #
edge $-1 $228 -15.809779252761217 $151 -8.3451625707497783 $85 $229 forward 7 unknown #
coedge $-1 $87 $86 $230 $231 reversed $34 $-1 #
coedge $-1 $232 $233 $87 $147 forward $234 $-1 #
edge $-1 $150 8.3451625707497783 $235 15.809779252761217 $146 $236 forward 7 unknown #
coedge $-1 $237 $88 $233 $238 forward $83 $-1 #
coedge $-1 $88 $237 $142 $225 forward $83 $-1 #
vertex $-1 $147 $239 #
vertex $-1 $144 $240 #
straight-curve $-1 -77.21549119541001 0 8.3451625707497783 0 1 0 I I #
face $-1 $241 $242 $20 $-1 $243 reversed single #
loop $-1 $-1 $244 $90 #
plane-surface $-1 83.418620950033471 0 8.3451625707497783 0 0 1 1 0 0 forward_v I I I I #
coedge $-1 $245 $246 $94 $161 forward $91 $-1 #
coedge $-1 $247 $93 $246 $248 forward $57 $-1 #
coedge $-1 $93 $247 $249 $250 forward $57 $-1 #
coedge $-1 $95 $94 $93 $160 reversed $37 $-1 #
edge $-1 $251 -37.627676540782765 $252 37.627676540782765 $93 $253 forward 7 unknown #
edge $-1 $252 -15.809779252761217 $167 -8.3451625707497783 $156 $254 forward 7 unknown #
coedge $-1 $249 $255 $95 $163 forward $256 $-1 #
edge $-1 $166 8.3451625707497783 $251 15.809779252761217 $162 $257 forward 7 unknown #
coedge $-1 $244 $96 $255 $258 forward $154 $-1 #
coedge $-1 $96 $244 $245 $259 forward $154 $-1 #
vertex $-1 $163 $260 #
vertex $-1 $161 $261 #
straight-curve $-1 77.21549119541001 0 8.3451625707497783 0 -1 0 I I #
face $-1 $-1 $181 $21 $-1 $262 forward single #
loop $-1 $-1 $263 $98 #
plane-surface $-1 0 37.627676540782765 0 0 -1 0 0 0 -1 forward_v I I I I #
coedge $-1 $264 $265 $266 $267 reversed $99 $-1 #
coedge $-1 $268 $101 $103 $179 forward $61 $-1 #
coedge $-1 $101 $268 $264 $269 forward $61 $-1 #
coedge $-1 $266 $104 $101 $176 forward $181 $-1 #
edge $-1 $183 -31.628773351796681 $270 -0.32959528420256845 $175 $271 forward 7 unknown #
coedge $-1 $272 $273 $102 $178 forward $170 $-1 #
edge $-1 $274 -81.548050993671239 $182 -73.774730131944025 $177 $275 forward 7 unknown #
edge $-1 $183 60.162642198625171 $274 75.255353081565545 $103 $276 forward 7 unknown #
coedge $-1 $104 $266 $272 $277 forward $181 $-1 #
loop $-1 $-1 $266 $169 #
vertex $-1 $178 $278 #
vertex $-1 $105 $279 #
straight-curve $-1 -47.607957669796306 26.32954296067469 15.809779252761217 0 -1 0 I I #
coedge $-1 $185 $185 $-1 $280 reversed $108 $-1 #
edge $-1 $281 0 $281 6.2831853071796004 $109 $282 forward 7 unknown #
vertex $-1 $112 $283 #
ellipse-curve $-1 -38.665335364769419 31.159187447944642 11.923118821897608 0 0.51503808176128008 0.85716729658548041 2 0 0 1 I I #
coedge $-1 $189 $189 $-1 $284 reversed $115 $-1 #
edge $-1 $285 0 $285 6.2831853071796004 $116 $286 forward 7 unknown #
vertex $-1 $119 $287 #
ellipse-curve $-1 -25.251401907229081 31.159187447944642 11.923118821897608 0 0.51503808176128008 0.85716729658548041 2 0 0 1 I I #
face $-1 $-1 $135 $18 $-1 $288 reversed single #
loop $-1 $-1 $209 $120 #
plane-surface $-1 0 37.627676540782765 0 0 -1 0 0 0 -1 forward_v I I I I #
coedge $-1 $289 $207 $210 $290 forward $121 $-1 #
coedge $-1 $213 $123 $124 $201 reversed $75 $-1 #
coedge $-1 $207 $289 $123 $199 reversed $121 $-1 #
edge $-1 $214 -15.809779252761217 $291 15.809779252761217 $198 $292 forward 7 unknown #
coedge $-1 $125 $124 $289 $293 forward $49 $-1 #
edge $-1 $205 -77.21549119541001 $291 77.21549119541001 $197 $294 forward 7 unknown #
coedge $-1 $210 $209 $125 $203 reversed $194 $-1 #
edge $-1 $295 -77.21549119541001 $204 77.21549119541001 $202 $296 forward 7 unknown #
vertex $-1 $127 $297 #
vertex $-1 $216 $298 #
straight-curve $-1 77.21549119541001 0 -15.809779252761217 0 -1 0 I I #
coedge $-1 $196 $198 $128 $208 reversed $121 $-1 #
edge $-1 $211 -37.627676540782765 $214 37.627676540782765 $207 $299 forward 7 unknown #
coedge $-1 $202 $129 $134 $217 forward $194 $-1 #
coedge $-1 $129 $202 $196 $290 reversed $194 $-1 #
vertex $-1 $130 $300 #
straight-curve $-1 0 37.627676540782765 15.809779252761217 -1 0 0 I I #
coedge $-1 $131 $197 $133 $216 reversed $75 $-1 #
vertex $-1 $208 $301 #
straight-curve $-1 0 -37.627676540782765 15.809779252761217 1 0 0 I I #
edge $-1 $136 -15.809779252761217 $205 15.809779252761217 $133 $302 forward 7 unknown #
edge $-1 $137 -15.809779252761217 $204 15.809779252761217 $134 $303 forward 7 unknown #
point $-1 77.21549119541001 -37.627676540782765 15.809779252761217 #
point $-1 77.21549119541001 37.627676540782765 15.809779252761217 #
face $-1 $-1 $234 $19 $-1 $304 reversed single #
loop $-1 $-1 $230 $139 #
plane-surface $-1 0 0 15.809779252761217 0 0 1 1 0 0 forward_v I I I I #
coedge $-1 $305 $306 $224 $307 forward $140 $-1 #
coedge $-1 $143 $142 $223 $307 reversed $53 $-1 #
edge $-1 $308 -6.2031297546234612 $151 6.2031297546234612 $142 $309 forward 7 unknown #
coedge $-1 $310 $230 $143 $227 forward $221 $-1 #
edge $-1 $228 77.21549119541001 $311 89.621750704656932 $143 $312 forward 7 unknown #
vertex $-1 $227 $313 #
straight-curve $-1 -77.21549119541001 37.627676540782765 0 0 0 -1 I I #
coedge $-1 $226 $314 $145 $231 forward $221 $-1 #
edge $-1 $235 -37.627676540782765 $228 37.627676540782765 $230 $315 forward 7 unknown #
coedge $-1 $316 $146 $314 $317 reversed $234 $-1 #
coedge $-1 $146 $316 $148 $238 reversed $234 $-1 #
loop $-1 $-1 $146 $220 #
vertex $-1 $147 $318 #
straight-curve $-1 -77.21549119541001 -37.627676540782765 0 0 0 1 I I #
coedge $-1 $149 $148 $305 $319 forward $83 $-1 #
edge $-1 $150 -6.2031297546234612 $320 6.2031297546234612 $233 $321 forward 7 unknown #
point $-1 -77.21549119541001 -37.627676540782765 8.3451625707497783 #
point $-1 -77.21549119541001 37.627676540782765 8.3451625707497783 #
face $-1 $-1 $256 $20 $-1 $322 reversed single #
loop $-1 $-1 $323 $153 #
plane-surface $-1 89.621750704656932 0 12.077470911755498 -1 0 0 0 0 1 forward_v I I I I #
coedge $-1 $165 $164 $324 $325 forward $154 $-1 #
coedge $-1 $326 $156 $165 $259 reversed $91 $-1 #
coedge $-1 $156 $326 $157 $248 reversed $91 $-1 #
coedge $-1 $158 $157 $327 $328 forward $57 $-1 #
edge $-1 $252 -6.2031297546234612 $329 6.2031297546234612 $246 $330 forward 7 unknown #
coedge $-1 $331 $162 $158 $250 reversed $256 $-1 #
edge $-1 $332 -89.621750704656932 $251 -77.21549119541001 $249 $333 forward 7 unknown #
vertex $-1 $163 $334 #
vertex $-1 $248 $335 #
straight-curve $-1 77.21549119541001 0 15.809779252761217 0 -1 0 I I #
straight-curve $-1 77.21549119541001 -37.627676540782765 0 0 0 -1 I I #
coedge $-1 $162 $331 $164 $258 reversed $256 $-1 #
loop $-1 $-1 $162 $241 #
straight-curve $-1 77.21549119541001 37.627676540782765 0 0 0 1 I I #
edge $-1 $166 -6.2031297546234612 $336 6.2031297546234612 $255 $337 forward 7 unknown #
edge $-1 $338 -6.2031297546234612 $167 6.2031297546234612 $245 $339 forward 7 unknown #
point $-1 77.21549119541001 37.627676540782765 8.3451625707497783 #
point $-1 77.21549119541001 -37.627676540782765 8.3451625707497783 #
plane-surface $-1 0 0 15.809779252761217 0 0 1 1 0 0 forward_v I I I I #
coedge $-1 $273 $272 $265 $340 forward $170 $-1 #
coedge $-1 $265 $172 $174 $269 reversed $99 $-1 #
coedge $-1 $172 $264 $263 $340 reversed $99 $-1 #
coedge $-1 $180 $175 $172 $267 forward $181 $-1 #
edge $-1 $270 -1.6388446055681847 $341 11.298133580108075 $266 $342 forward 7 unknown #
coedge $-1 $174 $173 $273 $343 reversed $61 $-1 #
edge $-1 $344 -75.255353081565545 $270 -60.162642198625171 $264 $345 forward 7 unknown #
vertex $-1 $176 $346 #
straight-curve $-1 -15.979184317999625 24.690698355106498 15.809779252761217 1 0 0 I I #
coedge $-1 $263 $177 $180 $277 reversed $170 $-1 #
coedge $-1 $177 $263 $268 $343 forward $170 $-1 #
vertex $-1 $178 $347 #
straight-curve $-1 -47.607957669796306 37.627676540782765 89.584509384705242 0 0 1 I I #
straight-curve $-1 -47.607957669796306 -26.878751013728582 46.79583108443137 0 0.85716729658548041 -0.51503808176128008 I I #
edge $-1 $341 16.308779602202193 $182 47.607957669796306 $272 $348 forward 7 unknown #
point $-1 -47.607957669796306 37.627676540782765 15.809779252761217 #
point $-1 -47.607957669796306 24.690698355106505 15.809779252761217 #
edge $-1 $349 1 $349 0 $185 $-1 forward 7 unknown #
vertex $-1 $186 $350 #
ellipse-curve $-1 -38.665335364769419 27.292197217685239 5.4873664397460686 0 0.51503808176128008 0.85716729658548041 2 0 0 1 I I #
point $-1 -36.665335364769419 31.15918744794465 11.923118821897621 #
edge $-1 $351 1 $351 0 $189 $-1 forward 7 unknown #
vertex $-1 $190 $352 #
ellipse-curve $-1 -25.251401907229081 27.292197217685239 5.4873664397460686 0 0.51503808176128008 0.85716729658548041 2 0 0 1 I I #
point $-1 -23.251401907229081 31.15918744794465 11.923118821897621 #
plane-surface $-1 77.21549119541001 0 0 -1 0 0 0 0 1 forward_v I I I I #
coedge $-1 $198 $196 $200 $293 reversed $121 $-1 #
edge $-1 $211 -15.809779252761217 $295 15.809779252761217 $210 $353 forward 7 unknown #
vertex $-1 $293 $354 #
straight-curve $-1 -77.21549119541001 -37.627676540782765 0 0 0 -1 I I #
edge $-1 $291 -37.627676540782765 $295 37.627676540782765 $289 $355 forward 7 unknown #
straight-curve $-1 0 -37.627676540782765 -15.809779252761217 -1 0 0 I I #
vertex $-1 $203 $356 #
straight-curve $-1 0 37.627676540782765 -15.809779252761217 1 0 0 I I #
point $-1 77.21549119541001 37.627676540782765 -15.809779252761217 #
point $-1 77.21549119541001 -37.627676540782765 -15.809779252761217 #
straight-curve $-1 -77.21549119541001 0 15.809779252761217 0 -1 0 I I #
point $-1 -77.21549119541001 37.627676540782765 15.809779252761217 #
point $-1 -77.21549119541001 -37.627676540782765 15.809779252761217 #
straight-curve $-1 77.21549119541001 -37.627676540782765 0 0 0 -1 I I #
straight-curve $-1 77.21549119541001 37.627676540782765 0 0 0 -1 I I #
plane-surface $-1 0 -37.627676540782765 0 0 1 0 0 0 1 forward_v I I I I #
coedge $-1 $357 $223 $237 $319 reversed $140 $-1 #
coedge $-1 $223 $357 $310 $358 reversed $140 $-1 #
edge $-1 $311 -3.7323083410057194 $308 3.7323083410057194 $224 $359 forward 7 unknown #
vertex $-1 $225 $360 #
straight-curve $-1 -83.418620950033471 37.627676540782765 8.3451625707497783 1 0 0 I I #
coedge $-1 $314 $226 $306 $358 forward $221 $-1 #
vertex $-1 $227 $361 #
straight-curve $-1 0 37.627676540782765 15.809779252761217 -1 0 0 I I #
point $-1 -77.21549119541001 37.627676540782765 15.809779252761217 #
coedge $-1 $230 $310 $232 $317 forward $221 $-1 #
straight-curve $-1 -77.21549119541001 0 15.809779252761217 0 1 0 I I #
coedge $-1 $233 $232 $357 $362 forward $234 $-1 #
edge $-1 $363 -89.621750704656932 $235 -77.21549119541001 $232 $364 forward 7 unknown #
point $-1 -77.21549119541001 -37.627676540782765 15.809779252761217 #
edge $-1 $320 -37.627676540782765 $308 37.627676540782765 $305 $365 forward 7 unknown #
vertex $-1 $319 $366 #
straight-curve $-1 -83.418620950033471 -37.627676540782765 8.3451625707497783 -1 0 0 I I #
plane-surface $-1 0 37.627676540782765 0 0 -1 0 0 0 -1 forward_v I I I I #
coedge $-1 $324 $327 $326 $367 forward $242 $-1 #
coedge $-1 $368 $323 $244 $325 reversed $242 $-1 #
edge $-1 $336 -37.627676540782765 $338 37.627676540782765 $324 $369 forward 7 unknown #
coedge $-1 $246 $245 $323 $367 reversed $91 $-1 #
coedge $-1 $323 $368 $247 $328 reversed $242 $-1 #
edge $-1 $329 -37.627676540782765 $332 37.627676540782765 $327 $370 forward 7 unknown #
vertex $-1 $328 $371 #
straight-curve $-1 83.418620950033471 -37.627676540782765 15.809779252761217 1 0 0 I I #
coedge $-1 $255 $249 $368 $372 forward $256 $-1 #
vertex $-1 $328 $373 #
straight-curve $-1 0 37.627676540782765 15.809779252761217 -1 0 0 I I #
point $-1 77.21549119541001 37.627676540782765 15.809779252761217 #
point $-1 77.21549119541001 -37.627676540782765 15.809779252761217 #
vertex $-1 $325 $374 #
straight-curve $-1 83.418620950033471 37.627676540782765 8.3451625707497783 1 0 0 I I #
vertex $-1 $367 $375 #
straight-curve $-1 83.418620950033471 -37.627676540782765 8.3451625707497783 -1 0 0 I I #
edge $-1 $341 73.774730131944025 $344 81.548050993671239 $263 $376 forward 7 unknown #
vertex $-1 $277 $377 #
straight-curve $-1 -16.308779602202193 26.32954296067469 15.809779252761217 0 1 0 I I #
edge $-1 $344 0.32959528420256845 $274 31.628773351796681 $273 $378 forward 7 unknown #
vertex $-1 $343 $379 #
straight-curve $-1 -16.308779602202193 -26.878751013728582 46.79583108443137 0 -0.85716729658548041 0.51503808176128008 I I #
point $-1 -16.308779602202193 24.690698355106505 15.809779252761217 #
point $-1 -47.607957669796306 37.627676540782765 8.0364583910340102 #
straight-curve $-1 0 37.627676540782765 15.809779252761217 -1 0 0 I I #
vertex $-1 $280 $380 #
point $-1 -36.665335364769419 27.292197217685239 5.4873664397460686 #
vertex $-1 $284 $381 #
point $-1 -23.251401907229081 27.292197217685239 5.4873664397460686 #
straight-curve $-1 -77.21549119541001 37.627676540782765 0 0 0 -1 I I #
point $-1 -77.21549119541001 -37.627676540782765 -15.809779252761217 #
straight-curve $-1 -77.21549119541001 0 -15.809779252761217 0 1 0 I I #
point $-1 -77.21549119541001 37.627676540782765 -15.809779252761217 #
coedge $-1 $306 $305 $316 $362 reversed $140 $-1 #
edge $-1 $311 -37.627676540782765 $363 37.627676540782765 $306 $382 forward 7 unknown #
straight-curve $-1 -89.621750704656932 37.627676540782765 12.077470911755498 0 0 -1 I I #
point $-1 -89.621750704656932 37.627676540782765 8.3451625707497783 #
point $-1 -89.621750704656932 37.627676540782765 15.809779252761217 #
edge $-1 $363 -3.7323083410057194 $320 3.7323083410057194 $357 $383 forward 7 unknown #
vertex $-1 $358 $384 #
straight-curve $-1 0 -37.627676540782765 15.809779252761217 1 0 0 I I #
straight-curve $-1 -89.621750704656932 0 8.3451625707497783 0 1 0 I I #
point $-1 -89.621750704656932 -37.627676540782765 8.3451625707497783 #
edge $-1 $329 -3.7323083410057194 $338 3.7323083410057194 $323 $385 forward 7 unknown #
coedge $-1 $327 $324 $331 $372 reversed $242 $-1 #
straight-curve $-1 89.621750704656932 0 8.3451625707497783 0 -1 0 I I #
straight-curve $-1 89.621750704656932 0 15.809779252761217 0 1 0 I I #
point $-1 89.621750704656932 -37.627676540782765 15.809779252761217 #
edge $-1 $332 -3.7323083410057194 $336 3.7323083410057194 $368 $386 forward 7 unknown #
point $-1 89.621750704656932 37.627676540782765 15.809779252761217 #
point $-1 89.621750704656932 37.627676540782765 8.3451625707497783 #
point $-1 89.621750704656932 -37.627676540782765 8.3451625707497783 #
straight-curve $-1 -16.308779602202193 37.627676540782765 89.584509384705242 0 0 -1 I I #
point $-1 -16.308779602202193 37.627676540782765 15.809779252761217 #
straight-curve $-1 -15.979184317999625 37.627676540782765 8.0364583910340066 -1 0 0 I I #
point $-1 -16.308779602202193 37.627676540782765 8.0364583910340102 #
point $-1 -38.665335364769419 26.26212105416268 3.7730318465751083 #
point $-1 -25.251401907229081 26.26212105416268 3.7730318465751083 #
straight-curve $-1 -89.621750704656932 0 15.809779252761217 0 -1 0 I I #
straight-curve $-1 -89.621750704656932 -37.627676540782765 12.077470911755498 0 0 -1 I I #
point $-1 -89.621750704656932 -37.627676540782765 15.809779252761217 #
straight-curve $-1 89.621750704656932 -37.627676540782765 12.077470911755498 0 0 -1 I I #
straight-curve $-1 89.621750704656932 37.627676540782765 12.077470911755498 0 0 -1 I I #
End-of-ACIS-data 