500 0 5 0           
7 Unknown 11 ACIS 5.0 NT 24 Fri Mar 26 02:50:30 1999 
-1 9.9999999999999995e-007 1e-010 
body $-1 $5 $-1 $6 #
body $-1 $7 $-1 $8 #
body $-1 $9 $-1 $10 #
body $-1 $11 $-1 $12 #
body $-1 $13 $-1 $14 #
lump $-1 $-1 $15 $0 #
transform $-1 1 0 0 0 1 0 0 0 1 70.780968657490774 47.710783859919999 22.142189369775 1 rotate no_reflect no_shear #
lump $-1 $-1 $16 $1 #
transform $-1 1 0 0 0 1 0 0 0 1 70.780968657490774 47.710783859919999 22.142189369775 1 rotate no_reflect no_shear #
lump $-1 $-1 $17 $2 #
transform $-1 1 0 0 0 1 0 0 0 1 70.780968657490774 47.710783859919999 22.142189369775 1 rotate no_reflect no_shear #
lump $-1 $-1 $18 $3 #
transform $-1 1 0 0 0 1 0 0 0 1 70.780968657490774 47.710783859919999 22.142189369775 1 rotate no_reflect no_shear #
lump $-1 $-1 $19 $4 #
transform $-1 1 0 0 0 1 0 0 0 1 70.780968657490774 47.710783859919999 22.142189369775 1 rotate no_reflect no_shear #
shell $-1 $-1 $-1 $20 $-1 $5 #
shell $-1 $-1 $-1 $21 $-1 $7 #
shell $-1 $-1 $-1 $22 $-1 $9 #
shell $-1 $-1 $-1 $23 $-1 $11 #
shell $-1 $-1 $-1 $24 $-1 $13 #
face $-1 $25 $26 $15 $-1 $27 forward single #
face $-1 $28 $29 $16 $-1 $30 forward single #
face $-1 $31 $32 $17 $-1 $33 reversed single #
face $-1 $34 $35 $18 $-1 $36 reversed single #
face $-1 $37 $38 $19 $-1 $39 reversed single #
face $-1 $40 $41 $15 $-1 $42 reversed single #
loop $-1 $-1 $43 $20 #
plane-surface $-1 0 0 22.142189369775 0 0 1 1 0 0 forward_v I I I I #
face $-1 $44 $45 $16 $-1 $46 forward single #
loop $-1 $-1 $47 $21 #
plane-surface $-1 -42.275420540601246 -41.784174663318773 99.916885452738555 0.6018150307709319 0 0.79863550430605224 0.79863550430605224 0 -0.6018150307709319 forward_v I I I I #
face $-1 $48 $49 $17 $-1 $50 reversed single #
loop $-1 $51 $52 $22 #
cone-surface $-1 65.322427664280752 -45.340140181279509 17.721722430205588 -0.6018150307709319 0 -0.79863550430605224 0.39931775215302612 0 -0.30090751538546595 1 I I 0 1 0.5 forward I I I I #
face $-1 $53 $54 $18 $-1 $55 reversed single #
loop $-1 $56 $57 $23 #
cone-surface $-1 65.322427664280752 -41.784174663318773 17.721722430205588 -0.6018150307709319 0 -0.79863550430605224 0.39931775215302612 0 -0.30090751538546595 1 I I 0 1 0.5 forward I I I I #
face $-1 $58 $59 $19 $-1 $60 reversed single #
loop $-1 $61 $62 $24 #
cone-surface $-1 65.322427664280752 -38.228209145358036 17.721722430205588 -0.6018150307709319 0 -0.79863550430605224 0.39931775215302612 0 -0.30090751538546595 1 I I 0 1 0.5 forward I I I I #
face $-1 $63 $64 $15 $-1 $65 reversed single #
loop $-1 $-1 $66 $25 #
plane-surface $-1 0 0 -22.142189369775 0 0 1 1 0 0 forward_v I I I I #
coedge $-1 $67 $68 $69 $70 forward $26 $-1 #
face $-1 $71 $72 $16 $-1 $73 reversed single #
loop $-1 $-1 $74 $28 #
plane-surface $-1 42.918681120607104 -35.857565466717546 212.9732746508306 0 -1 0 -0.6018150307709319 0 -0.79863550430605224 forward_v I I I I #
coedge $-1 $75 $76 $77 $78 reversed $29 $-1 #
face $-1 $79 $80 $17 $-1 $81 forward single #
loop $-1 $82 $83 $31 #
cone-surface $-1 64.63637469171988 -45.340140181279509 16.811299403682067 -0.6018150307709319 0 -0.79863550430605224 0.19965887607651306 0 -0.15045375769273298 1 I I -0.70710678118654746 0.70710678118654746 0.25 forward I I I I #
loop $-1 $-1 $84 $22 #
coedge $-1 $52 $52 $85 $86 reversed $32 $-1 #
face $-1 $87 $88 $18 $-1 $89 reversed single #
loop $-1 $90 $91 $34 #
cone-surface $-1 64.63637469171988 -41.784174663318773 16.811299403682067 -0.6018150307709319 0 -0.79863550430605224 0.19965887607651306 0 -0.15045375769273298 1 I I -0.70710678118654746 0.70710678118654746 0.25 forward I I I I #
loop $-1 $-1 $92 $23 #
coedge $-1 $57 $57 $93 $94 reversed $35 $-1 #
face $-1 $95 $96 $19 $-1 $97 reversed single #
loop $-1 $98 $99 $37 #
cone-surface $-1 64.63637469171988 -38.228209145358036 16.811299403682067 -0.6018150307709319 0 -0.79863550430605224 0.19965887607651306 0 -0.15045375769273298 1 I I -0.70710678118654746 0.70710678118654746 0.25 forward I I I I #
loop $-1 $-1 $100 $24 #
coedge $-1 $62 $62 $101 $102 reversed $38 $-1 #
face $-1 $103 $104 $15 $-1 $105 reversed single #
loop $-1 $-1 $106 $40 #
plane-surface $-1 0 -47.710783859919999 0 0 1 0 0 0 1 forward_v I I I I #
coedge $-1 $107 $108 $109 $110 forward $41 $-1 #
coedge $-1 $111 $43 $112 $113 forward $26 $-1 #
coedge $-1 $43 $111 $114 $115 forward $26 $-1 #
coedge $-1 $116 $117 $43 $70 reversed $118 $-1 #
edge $-1 $119 -47.710783859919999 $120 47.710783859919999 $69 $121 forward 7 unknown #
face $-1 $122 $123 $16 $-1 $124 reversed single #
loop $-1 $-1 $125 $44 #
plane-surface $-1 70.780968657490774 0 0 -1 0 0 0 0 1 forward_v I I I I #
coedge $-1 $126 $127 $125 $128 reversed $45 $-1 #
coedge $-1 $129 $47 $127 $130 reversed $29 $-1 #
coedge $-1 $47 $129 $131 $132 reversed $29 $-1 #
coedge $-1 $133 $125 $47 $78 forward $72 $-1 #
edge $-1 $134 14.965478135058159 $135 26.818696528260613 $77 $136 forward 7 unknown #
face $-1 $137 $138 $17 $-1 $139 forward single #
loop $-1 $140 $85 $48 #
plane-surface $-1 -42.275420540601246 -41.784174663318773 99.916885452738555 0.6018150307709319 0 0.79863550430605224 0.79863550430605224 0 -0.6018150307709319 forward_v I I I I #
loop $-1 $-1 $141 $31 #
coedge $-1 $83 $83 $84 $142 forward $49 $-1 #
coedge $-1 $84 $84 $83 $142 reversed $51 $-1 #
coedge $-1 $85 $85 $52 $86 forward $80 $-1 #
edge $-1 $143 0 $143 6.2831853071796004 $85 $144 forward 7 unknown #
face $-1 $145 $146 $18 $-1 $147 reversed single #
loop $-1 $148 $149 $53 #
cone-surface $-1 65.322427664280752 -45.340140181279509 17.721722430205588 -0.6018150307709319 0 -0.79863550430605224 0.39931775215302612 0 -0.30090751538546595 1 I I 0 1 0.5 forward I I I I #
loop $-1 $-1 $150 $34 #
coedge $-1 $91 $91 $92 $151 forward $54 $-1 #
coedge $-1 $92 $92 $91 $151 reversed $56 $-1 #
coedge $-1 $93 $93 $57 $94 forward $152 $-1 #
edge $-1 $153 0 $153 6.2831853071796004 $93 $154 forward 7 unknown #
face $-1 $155 $156 $19 $-1 $157 reversed single #
loop $-1 $158 $159 $58 #
cone-surface $-1 65.322427664280752 -41.784174663318773 17.721722430205588 -0.6018150307709319 0 -0.79863550430605224 0.39931775215302612 0 -0.30090751538546595 1 I I 0 1 0.5 forward I I I I #
loop $-1 $-1 $160 $37 #
coedge $-1 $99 $99 $100 $161 forward $59 $-1 #
coedge $-1 $100 $100 $99 $161 reversed $61 $-1 #
coedge $-1 $101 $101 $62 $102 forward $162 $-1 #
edge $-1 $163 0 $163 6.2831853071796004 $101 $164 forward 7 unknown #
face $-1 $165 $166 $15 $-1 $167 reversed single #
loop $-1 $-1 $168 $63 #
plane-surface $-1 -70.780968657490774 0 0 1 0 0 0 0 -1 forward_v I I I I #
coedge $-1 $169 $114 $170 $171 forward $64 $-1 #
coedge $-1 $172 $66 $169 $173 forward $41 $-1 #
coedge $-1 $66 $172 $174 $175 forward $41 $-1 #
coedge $-1 $117 $116 $66 $110 reversed $118 $-1 #
edge $-1 $176 -47.710783859919999 $177 47.710783859919999 $109 $178 forward 7 unknown #
coedge $-1 $68 $67 $179 $180 forward $26 $-1 #
coedge $-1 $181 $182 $67 $113 reversed $166 $-1 #
edge $-1 $120 -70.780968657490774 $183 70.780968657490774 $112 $184 forward 7 unknown #
coedge $-1 $106 $185 $68 $115 reversed $64 $-1 #
edge $-1 $186 -70.780968657490774 $119 70.780968657490774 $114 $187 forward 7 unknown #
coedge $-1 $109 $69 $185 $188 forward $118 $-1 #
coedge $-1 $69 $109 $181 $189 reversed $118 $-1 #
loop $-1 $-1 $116 $165 #
vertex $-1 $70 $190 #
vertex $-1 $70 $191 #
straight-curve $-1 70.780968657490774 0 22.142189369775 0 1 0 I I #
face $-1 $192 $193 $16 $-1 $194 forward single #
loop $-1 $-1 $131 $71 #
plane-surface $-1 0 -47.710783859919999 0 0 1 0 0 0 1 forward_v I I I I #
coedge $-1 $77 $195 $74 $128 forward $72 $-1 #
coedge $-1 $127 $74 $196 $197 reversed $45 $-1 #
coedge $-1 $74 $126 $75 $130 forward $45 $-1 #
edge $-1 $198 84.344447955640305 $134 91.763853533885083 $125 $199 forward 7 unknown #
coedge $-1 $76 $75 $200 $201 reversed $29 $-1 #
edge $-1 $202 129.23355533897734 $134 141.56193731498155 $127 $203 forward 7 unknown #
coedge $-1 $204 $205 $76 $132 forward $123 $-1 #
edge $-1 $135 -94.614869666747012 $206 -82.286487690742803 $131 $207 forward 7 unknown #
coedge $-1 $208 $77 $205 $209 forward $72 $-1 #
vertex $-1 $78 $210 #
vertex $-1 $209 $211 #
straight-curve $-1 70.780968657490774 -20.892087331659386 14.722783791530226 0 -1 0 I I #
face $-1 $212 $213 $17 $-1 $214 reversed single #
loop $-1 $-1 $215 $79 #
plane-surface $-1 42.918681120607104 -35.857565466717546 212.9732746508306 0 -1 0 -0.6018150307709319 0 -0.79863550430605224 forward_v I I I I #
loop $-1 $-1 $216 $48 #
coedge $-1 $141 $141 $-1 $217 forward $82 $-1 #
edge $-1 $218 0 $218 6.2831853071796004 $83 $219 forward 7 unknown #
vertex $-1 $86 $220 #
ellipse-curve $-1 65.858026879148895 -45.340140181279509 18.432486580652601 -0.6018150307709319 0 -0.79863550430605224 0.39931775215302612 0 -0.30090751538546595 1 I I #
face $-1 $221 $152 $18 $-1 $222 forward single #
loop $-1 $223 $224 $87 #
cone-surface $-1 64.63637469171988 -45.340140181279509 16.811299403682067 -0.6018150307709319 0 -0.79863550430605224 0.19965887607651306 0 -0.15045375769273298 1 I I -0.70710678118654746 0.70710678118654746 0.25 forward I I I I #
loop $-1 $-1 $225 $53 #
coedge $-1 $149 $149 $226 $227 reversed $88 $-1 #
coedge $-1 $150 $150 $-1 $228 forward $90 $-1 #
edge $-1 $229 0 $229 6.2831853071796004 $91 $230 forward 7 unknown #
loop $-1 $231 $93 $145 #
vertex $-1 $94 $232 #
ellipse-curve $-1 65.858026879148895 -41.784174663318773 18.432486580652601 -0.6018150307709319 0 -0.79863550430605224 0.39931775215302612 0 -0.30090751538546595 1 I I #
face $-1 $233 $234 $19 $-1 $235 reversed single #
loop $-1 $236 $237 $95 #
cone-surface $-1 64.63637469171988 -41.784174663318773 16.811299403682067 -0.6018150307709319 0 -0.79863550430605224 0.19965887607651306 0 -0.15045375769273298 1 I I -0.70710678118654746 0.70710678118654746 0.25 forward I I I I #
loop $-1 $-1 $238 $58 #
coedge $-1 $159 $159 $239 $240 reversed $96 $-1 #
coedge $-1 $160 $160 $-1 $241 forward $98 $-1 #
edge $-1 $242 0 $242 6.2831853071796004 $99 $243 forward 7 unknown #
loop $-1 $244 $101 $245 #
vertex $-1 $102 $246 #
ellipse-curve $-1 65.858026879148895 -38.228209145358036 18.432486580652601 -0.6018150307709319 0 -0.79863550430605224 0.39931775215302612 0 -0.30090751538546595 1 I I #
face $-1 $-1 $118 $15 $-1 $247 reversed single #
loop $-1 $-1 $181 $103 #
plane-surface $-1 0 47.710783859919999 0 0 -1 0 0 0 -1 forward_v I I I I #
coedge $-1 $248 $179 $182 $249 forward $104 $-1 #
coedge $-1 $185 $106 $107 $173 reversed $64 $-1 #
coedge $-1 $179 $248 $106 $171 reversed $104 $-1 #
edge $-1 $186 -22.142189369775 $250 22.142189369775 $170 $251 forward 7 unknown #
coedge $-1 $108 $107 $248 $252 forward $41 $-1 #
edge $-1 $177 -70.780968657490774 $250 70.780968657490774 $169 $253 forward 7 unknown #
coedge $-1 $182 $181 $108 $175 reversed $166 $-1 #
edge $-1 $254 -70.780968657490774 $176 70.780968657490774 $174 $255 forward 7 unknown #
vertex $-1 $110 $256 #
vertex $-1 $188 $257 #
straight-curve $-1 70.780968657490774 0 -22.142189369775 0 -1 0 I I #
coedge $-1 $168 $170 $111 $180 reversed $104 $-1 #
edge $-1 $183 -47.710783859919999 $186 47.710783859919999 $179 $258 forward 7 unknown #
coedge $-1 $174 $112 $117 $189 forward $166 $-1 #
coedge $-1 $112 $174 $168 $249 reversed $166 $-1 #
vertex $-1 $113 $259 #
straight-curve $-1 0 47.710783859919999 22.142189369775 -1 0 0 I I #
coedge $-1 $114 $169 $116 $188 reversed $64 $-1 #
vertex $-1 $180 $260 #
straight-curve $-1 0 -47.710783859919999 22.142189369775 1 0 0 I I #
edge $-1 $119 -22.142189369775 $177 22.142189369775 $116 $261 forward 7 unknown #
edge $-1 $120 -22.142189369775 $176 22.142189369775 $117 $262 forward 7 unknown #
point $-1 70.780968657490774 -47.710783859919999 22.142189369775 #
point $-1 70.780968657490774 47.710783859919999 22.142189369775 #
face $-1 $263 $264 $16 $-1 $265 reversed single #
loop $-1 $-1 $196 $122 #
plane-surface $-1 0 0 22.142189369775 0 0 1 1 0 0 forward_v I I I I #
coedge $-1 $125 $266 $267 $268 reversed $72 $-1 #
coedge $-1 $267 $200 $126 $197 forward $193 $-1 #
edge $-1 $202 39.475744540503463 $198 49.321628097187222 $196 $269 forward 7 unknown #
vertex $-1 $268 $270 #
straight-curve $-1 70.780968657490774 -35.857565466717546 106.4866373254153 0 0 -1 I I #
coedge $-1 $196 $271 $129 $201 forward $193 $-1 #
edge $-1 $206 -26.818696528260613 $202 -14.965478135058159 $200 $272 forward 7 unknown #
vertex $-1 $201 $273 #
straight-curve $-1 -42.275420540601246 -35.857565466717546 99.916885452738555 0.79863550430605224 0 -0.6018150307709319 I I #
coedge $-1 $274 $131 $271 $275 reversed $123 $-1 #
coedge $-1 $131 $276 $133 $209 reversed $123 $-1 #
vertex $-1 $201 $277 #
straight-curve $-1 -4.781825493663117 -47.710783859919999 71.66343449141128 -0.79863550430605224 0 0.6018150307709319 I I #
coedge $-1 $266 $133 $278 $279 reversed $72 $-1 #
edge $-1 $135 -14.722783791530228 $280 22.142189369775 $133 $281 forward 7 unknown #
point $-1 70.780968657490774 -35.857565466717546 14.722783791530219 #
point $-1 70.780968657490774 -47.710783859919999 14.722783791530228 #
face $-1 $282 $283 $17 $-1 $284 reversed single #
loop $-1 $-1 $285 $137 #
plane-surface $-1 70.780968657490774 0 0 -1 0 0 0 0 1 forward_v I I I I #
coedge $-1 $286 $287 $285 $288 reversed $138 $-1 #
coedge $-1 $289 $290 $291 $292 reversed $140 $-1 #
edge $-1 $293 1 $293 0 $141 $-1 forward 7 unknown #
vertex $-1 $142 $294 #
ellipse-curve $-1 64.78682844941261 -45.340140181279509 17.010958279758579 0.6018150307709319 0 0.79863550430605224 0.39931775215302612 0 -0.30090751538546595 1 I I #
point $-1 66.257344631301919 -45.340140181279509 18.131579065267125 #
face $-1 $295 $296 $18 $-1 $297 forward single #
plane-surface $-1 -42.275420540601246 -41.784174663318773 99.916885452738555 0.6018150307709319 0 0.79863550430605224 0.79863550430605224 0 -0.6018150307709319 forward_v I I I I #
loop $-1 $-1 $298 $87 #
coedge $-1 $224 $224 $225 $299 forward $146 $-1 #
coedge $-1 $225 $225 $224 $299 reversed $148 $-1 #
coedge $-1 $226 $226 $149 $227 forward $231 $-1 #
edge $-1 $300 0 $300 6.2831853071796004 $226 $301 forward 7 unknown #
edge $-1 $302 1 $302 0 $150 $-1 forward 7 unknown #
vertex $-1 $151 $303 #
ellipse-curve $-1 64.78682844941261 -41.784174663318773 17.010958279758579 0.6018150307709319 0 0.79863550430605224 0.39931775215302612 0 -0.30090751538546595 1 I I #
loop $-1 $304 $226 $145 #
point $-1 66.257344631301919 -41.784174663318773 18.131579065267125 #
face $-1 $245 $305 $19 $-1 $306 reversed single #
loop $-1 $307 $308 $155 #
cone-surface $-1 65.322427664280752 -45.340140181279509 17.721722430205588 -0.6018150307709319 0 -0.79863550430605224 0.39931775215302612 0 -0.30090751538546595 1 I I 0 1 0.5 forward I I I I #
loop $-1 $-1 $309 $95 #
coedge $-1 $237 $237 $238 $310 forward $156 $-1 #
coedge $-1 $238 $238 $237 $310 reversed $158 $-1 #
coedge $-1 $239 $239 $159 $240 forward $244 $-1 #
edge $-1 $311 0 $311 6.2831853071796004 $239 $312 forward 7 unknown #
edge $-1 $313 1 $313 0 $160 $-1 forward 7 unknown #
vertex $-1 $161 $314 #
ellipse-curve $-1 64.78682844941261 -38.228209145358036 17.010958279758579 0.6018150307709319 0 0.79863550430605224 0.39931775215302612 0 -0.30090751538546595 1 I I #
loop $-1 $315 $239 $245 #
face $-1 $316 $162 $19 $-1 $317 forward single #
point $-1 66.257344631301919 -38.228209145358036 18.131579065267125 #
plane-surface $-1 70.780968657490774 0 0 -1 0 0 0 0 1 forward_v I I I I #
coedge $-1 $170 $168 $172 $252 reversed $104 $-1 #
edge $-1 $183 -22.142189369775 $254 22.142189369775 $182 $318 forward 7 unknown #
vertex $-1 $252 $319 #
straight-curve $-1 -70.780968657490774 -47.710783859919999 0 0 0 -1 I I #
edge $-1 $250 -47.710783859919999 $254 47.710783859919999 $248 $320 forward 7 unknown #
straight-curve $-1 0 -47.710783859919999 -22.142189369775 -1 0 0 I I #
vertex $-1 $175 $321 #
straight-curve $-1 0 47.710783859919999 -22.142189369775 1 0 0 I I #
point $-1 70.780968657490774 47.710783859919999 -22.142189369775 #
point $-1 70.780968657490774 -47.710783859919999 -22.142189369775 #
straight-curve $-1 -70.780968657490774 0 22.142189369775 0 -1 0 I I #
point $-1 -70.780968657490774 47.710783859919999 22.142189369775 #
point $-1 -70.780968657490774 -47.710783859919999 22.142189369775 #
straight-curve $-1 70.780968657490774 -47.710783859919999 0 0 0 -1 I I #
straight-curve $-1 70.780968657490774 47.710783859919999 0 0 0 -1 I I #
face $-1 $322 $323 $16 $-1 $324 reversed single #
loop $-1 $-1 $278 $192 #
plane-surface $-1 0 0 -22.142189369775 0 0 1 1 0 0 forward_v I I I I #
coedge $-1 $195 $208 $325 $326 reversed $72 $-1 #
coedge $-1 $327 $196 $195 $268 forward $193 $-1 #
edge $-1 $198 -35.857565466717546 $328 47.710783859919999 $195 $329 forward 7 unknown #
straight-curve $-1 21.459340560303552 -35.857565466717546 22.142189369774997 1 0 0 I I #
point $-1 70.780968657490774 -35.857565466717546 22.142189369775 #
coedge $-1 $200 $330 $204 $275 forward $193 $-1 #
straight-curve $-1 60.935085100807015 -20.892087331659386 22.142189369774989 0 1 0 I I #
point $-1 60.935085100807015 -35.857565466717546 22.142189369774997 #
coedge $-1 $276 $204 $331 $332 forward $123 $-1 #
edge $-1 $333 -70.780968657490774 $206 60.935085100807015 $204 $334 forward 7 unknown #
coedge $-1 $205 $274 $335 $336 reversed $123 $-1 #
point $-1 60.935085100807015 -47.710783859919999 22.142189369774997 #
coedge $-1 $335 $337 $208 $279 forward $264 $-1 #
edge $-1 $338 -47.710783859919999 $280 47.710783859919999 $208 $339 forward 7 unknown #
vertex $-1 $209 $340 #
straight-curve $-1 70.780968657490774 -47.710783859919999 0 0 0 -1 I I #
face $-1 $341 $342 $17 $-1 $343 forward single #
loop $-1 $-1 $344 $212 #
plane-surface $-1 0 -47.710783859919999 0 0 1 0 0 0 1 forward_v I I I I #
coedge $-1 $291 $345 $215 $288 forward $213 $-1 #
coedge $-1 $287 $215 $346 $347 reversed $138 $-1 #
coedge $-1 $215 $286 $289 $348 forward $138 $-1 #
edge $-1 $349 84.344447955640305 $350 91.763853533885083 $285 $351 forward 7 unknown #
coedge $-1 $352 $216 $287 $348 reversed $140 $-1 #
coedge $-1 $216 $352 $344 $353 reversed $140 $-1 #
coedge $-1 $354 $285 $216 $292 forward $213 $-1 #
edge $-1 $350 14.965478135058159 $355 26.818696528260613 $291 $356 forward 7 unknown #
vertex $-1 $217 $357 #
point $-1 65.186146201565634 -45.340140181279509 16.710050764373115 #
face $-1 $358 $359 $18 $-1 $360 reversed single #
loop $-1 $-1 $361 $221 #
plane-surface $-1 42.918681120607104 -35.857565466717546 212.9732746508306 0 -1 0 -0.6018150307709319 0 -0.79863550430605224 forward_v I I I I #
coedge $-1 $298 $298 $-1 $362 forward $223 $-1 #
edge $-1 $363 0 $363 6.2831853071796004 $224 $364 forward 7 unknown #
vertex $-1 $227 $365 #
ellipse-curve $-1 65.858026879148895 -45.340140181279509 18.432486580652601 -0.6018150307709319 0 -0.79863550430605224 0.39931775215302612 0 -0.30090751538546595 1 I I #
vertex $-1 $228 $366 #
point $-1 65.186146201565634 -41.784174663318773 16.710050764373115 #
loop $-1 $-1 $367 $145 #
loop $-1 $368 $369 $233 #
cone-surface $-1 64.63637469171988 -45.340140181279509 16.811299403682067 -0.6018150307709319 0 -0.79863550430605224 0.19965887607651306 0 -0.15045375769273298 1 I I -0.70710678118654746 0.70710678118654746 0.25 forward I I I I #
loop $-1 $-1 $370 $155 #
coedge $-1 $308 $308 $371 $372 reversed $234 $-1 #
coedge $-1 $309 $309 $-1 $373 forward $236 $-1 #
edge $-1 $374 0 $374 6.2831853071796004 $237 $375 forward 7 unknown #
vertex $-1 $240 $376 #
ellipse-curve $-1 65.858026879148895 -41.784174663318773 18.432486580652601 -0.6018150307709319 0 -0.79863550430605224 0.39931775215302612 0 -0.30090751538546595 1 I I #
vertex $-1 $241 $377 #
point $-1 65.186146201565634 -38.228209145358036 16.710050764373115 #
loop $-1 $378 $371 $245 #
face $-1 $379 $380 $19 $-1 $381 forward single #
plane-surface $-1 -42.275420540601246 -41.784174663318773 99.916885452738555 0.6018150307709319 0 0.79863550430605224 0.79863550430605224 0 -0.6018150307709319 forward_v I I I I #
straight-curve $-1 -70.780968657490774 47.710783859919999 0 0 0 -1 I I #
point $-1 -70.780968657490774 -47.710783859919999 -22.142189369775 #
straight-curve $-1 -70.780968657490774 0 -22.142189369775 0 1 0 I I #
point $-1 -70.780968657490774 47.710783859919999 -22.142189369775 #
face $-1 $-1 $382 $16 $-1 $383 reversed single #
loop $-1 $-1 $384 $263 #
plane-surface $-1 -70.780968657490774 0 0 1 0 0 0 0 -1 forward_v I I I I #
coedge $-1 $385 $386 $266 $326 forward $382 $-1 #
edge $-1 $328 -22.142189369775 $338 22.142189369775 $266 $387 forward 7 unknown #
coedge $-1 $330 $267 $386 $388 forward $193 $-1 #
vertex $-1 $268 $389 #
straight-curve $-1 70.780968657490774 0 22.142189369775 0 1 0 I I #
coedge $-1 $271 $327 $390 $391 forward $193 $-1 #
coedge $-1 $390 $392 $274 $332 reversed $323 $-1 #
edge $-1 $333 -22.142189369775 $393 22.142189369775 $331 $394 forward 7 unknown #
vertex $-1 $391 $395 #
straight-curve $-1 0 -47.710783859919999 22.142189369775 1 0 0 I I #
coedge $-1 $396 $278 $276 $336 forward $264 $-1 #
edge $-1 $280 -70.780968657490774 $393 70.780968657490774 $276 $397 forward 7 unknown #
coedge $-1 $278 $396 $385 $398 forward $264 $-1 #
vertex $-1 $279 $399 #
straight-curve $-1 70.780968657490774 0 -22.142189369775 0 -1 0 I I #
point $-1 70.780968657490774 -47.710783859919999 -22.142189369775 #
face $-1 $400 $401 $17 $-1 $402 reversed single #
loop $-1 $-1 $346 $282 #
plane-surface $-1 0 0 22.142189369775 0 0 1 1 0 0 forward_v I I I I #
coedge $-1 $403 $404 $290 $353 forward $283 $-1 #
coedge $-1 $285 $405 $406 $407 reversed $213 $-1 #
coedge $-1 $406 $408 $286 $347 forward $342 $-1 #
edge $-1 $409 39.475744540503463 $349 49.321628097187222 $346 $410 forward 7 unknown #
edge $-1 $409 129.23355533897734 $350 141.56193731498155 $287 $411 forward 7 unknown #
vertex $-1 $407 $412 #
vertex $-1 $292 $413 #
straight-curve $-1 70.780968657490774 -35.857565466717546 106.4866373254153 0 0 -1 I I #
coedge $-1 $290 $289 $408 $414 reversed $140 $-1 #
edge $-1 $355 -94.614869666747012 $415 -82.286487690742803 $344 $416 forward 7 unknown #
coedge $-1 $417 $291 $404 $418 forward $213 $-1 #
vertex $-1 $418 $419 #
straight-curve $-1 70.780968657490774 -20.892087331659386 14.722783791530226 0 -1 0 I I #
point $-1 64.485920934027149 -45.340140181279509 16.611640527605555 #
face $-1 $420 $421 $18 $-1 $422 reversed single #
loop $-1 $-1 $423 $295 #
plane-surface $-1 70.780968657490774 0 0 -1 0 0 0 0 1 forward_v I I I I #
coedge $-1 $424 $425 $423 $426 reversed $296 $-1 #
edge $-1 $427 1 $427 0 $298 $-1 forward 7 unknown #
vertex $-1 $299 $428 #
ellipse-curve $-1 64.78682844941261 -45.340140181279509 17.010958279758579 0.6018150307709319 0 0.79863550430605224 0.39931775215302612 0 -0.30090751538546595 1 I I #
point $-1 66.257344631301919 -45.340140181279509 18.131579065267125 #
point $-1 64.485920934027149 -41.784174663318773 16.611640527605555 #
coedge $-1 $429 $430 $431 $432 reversed $304 $-1 #
loop $-1 $-1 $433 $233 #
coedge $-1 $369 $369 $370 $434 forward $305 $-1 #
coedge $-1 $370 $370 $369 $434 reversed $307 $-1 #
coedge $-1 $371 $371 $308 $372 forward $315 $-1 #
edge $-1 $435 0 $435 6.2831853071796004 $371 $436 forward 7 unknown #
edge $-1 $437 1 $437 0 $309 $-1 forward 7 unknown #
vertex $-1 $310 $438 #
ellipse-curve $-1 64.78682844941261 -41.784174663318773 17.010958279758579 0.6018150307709319 0 0.79863550430605224 0.39931775215302612 0 -0.30090751538546595 1 I I #
point $-1 66.257344631301919 -41.784174663318773 18.131579065267125 #
point $-1 64.485920934027149 -38.228209145358036 16.611640527605555 #
loop $-1 $-1 $439 $245 #
face $-1 $440 $441 $19 $-1 $442 reversed single #
loop $-1 $-1 $443 $316 #
plane-surface $-1 42.918681120607104 -35.857565466717546 212.9732746508306 0 -1 0 -0.6018150307709319 0 -0.79863550430605224 forward_v I I I I #
loop $-1 $-1 $325 $322 #
plane-surface $-1 0 47.710783859919999 0 0 -1 0 0 0 -1 forward_v I I I I #
coedge $-1 $392 $390 $444 $445 forward $323 $-1 #
coedge $-1 $444 $325 $337 $398 reversed $382 $-1 #
coedge $-1 $325 $444 $327 $388 reversed $382 $-1 #
straight-curve $-1 70.780968657490774 47.710783859919999 0 0 0 -1 I I #
edge $-1 $328 -70.780968657490774 $446 70.780968657490774 $386 $447 forward 7 unknown #
point $-1 70.780968657490774 47.710783859919999 22.142189369775 #
coedge $-1 $384 $331 $330 $391 reversed $323 $-1 #
edge $-1 $446 -47.710783859919999 $333 47.710783859919999 $390 $448 forward 7 unknown #
coedge $-1 $331 $384 $396 $449 reversed $323 $-1 #
vertex $-1 $449 $450 #
straight-curve $-1 -70.780968657490774 -47.710783859919999 0 0 0 -1 I I #
point $-1 -70.780968657490774 -47.710783859919999 22.142189369775 #
coedge $-1 $337 $335 $392 $449 forward $264 $-1 #
straight-curve $-1 0 -47.710783859919999 -22.142189369775 -1 0 0 I I #
edge $-1 $451 -70.780968657490774 $338 70.780968657490774 $385 $452 forward 7 unknown #
point $-1 70.780968657490774 47.710783859919999 -22.142189369775 #
face $-1 $453 $454 $17 $-1 $455 reversed single #
loop $-1 $-1 $456 $341 #
plane-surface $-1 0 0 -22.142189369775 0 0 1 1 0 0 forward_v I I I I #
coedge $-1 $457 $344 $458 $459 reversed $283 $-1 #
coedge $-1 $344 $460 $354 $418 reversed $283 $-1 #
coedge $-1 $345 $417 $461 $462 reversed $213 $-1 #
coedge $-1 $463 $346 $345 $407 forward $342 $-1 #
edge $-1 $349 -35.857565466717546 $464 47.710783859919999 $345 $465 forward 7 unknown #
coedge $-1 $346 $458 $352 $414 forward $342 $-1 #
vertex $-1 $414 $466 #
straight-curve $-1 21.459340560303552 -35.857565466717546 22.142189369774997 1 0 0 I I #
straight-curve $-1 -42.275420540601246 -35.857565466717546 99.916885452738555 0.79863550430605224 0 -0.6018150307709319 I I #
point $-1 70.780968657490774 -35.857565466717546 22.142189369775 #
point $-1 70.780968657490774 -35.857565466717546 14.722783791530219 #
edge $-1 $415 -26.818696528260613 $409 -14.965478135058159 $408 $467 forward 7 unknown #
vertex $-1 $414 $468 #
straight-curve $-1 -4.781825493663117 -47.710783859919999 71.66343449141128 -0.79863550430605224 0 0.6018150307709319 I I #
coedge $-1 $405 $354 $456 $469 reversed $213 $-1 #
edge $-1 $355 -14.722783791530228 $470 22.142189369775 $354 $471 forward 7 unknown #
point $-1 70.780968657490774 -47.710783859919999 14.722783791530228 #
face $-1 $472 $473 $18 $-1 $474 forward single #
loop $-1 $-1 $475 $358 #
plane-surface $-1 0 -47.710783859919999 0 0 1 0 0 0 1 forward_v I I I I #
coedge $-1 $431 $476 $361 $426 forward $359 $-1 #
coedge $-1 $425 $361 $477 $478 reversed $296 $-1 #
coedge $-1 $361 $424 $429 $479 forward $296 $-1 #
edge $-1 $480 84.344447955640305 $481 91.763853533885083 $423 $482 forward 7 unknown #
vertex $-1 $362 $483 #
point $-1 65.186146201565634 -45.340140181279509 16.710050764373115 #
coedge $-1 $484 $367 $425 $479 reversed $304 $-1 #
coedge $-1 $367 $484 $475 $485 reversed $304 $-1 #
coedge $-1 $486 $423 $367 $432 forward $359 $-1 #
edge $-1 $481 14.965478135058159 $487 26.818696528260613 $431 $488 forward 7 unknown #
coedge $-1 $433 $433 $-1 $489 forward $368 $-1 #
edge $-1 $490 0 $490 6.2831853071796004 $369 $491 forward 7 unknown #
vertex $-1 $372 $492 #
ellipse-curve $-1 65.858026879148895 -45.340140181279509 18.432486580652601 -0.6018150307709319 0 -0.79863550430605224 0.39931775215302612 0 -0.30090751538546595 1 I I #
vertex $-1 $373 $493 #
point $-1 65.186146201565634 -41.784174663318773 16.710050764373115 #
coedge $-1 $494 $495 $496 $497 reversed $378 $-1 #
face $-1 $498 $499 $19 $-1 $500 reversed single #
loop $-1 $-1 $501 $379 #
plane-surface $-1 70.780968657490774 0 0 -1 0 0 0 0 1 forward_v I I I I #
coedge $-1 $502 $503 $501 $504 reversed $380 $-1 #
coedge $-1 $386 $385 $384 $445 reversed $382 $-1 #
edge $-1 $446 -22.142189369775 $451 22.142189369775 $444 $505 forward 7 unknown #
vertex $-1 $388 $506 #
straight-curve $-1 0 47.710783859919999 22.142189369775 -1 0 0 I I #
straight-curve $-1 -70.780968657490774 0 22.142189369775 0 -1 0 I I #
edge $-1 $393 -47.710783859919999 $451 47.710783859919999 $392 $507 forward 7 unknown #
point $-1 -70.780968657490774 -47.710783859919999 -22.142189369775 #
vertex $-1 $398 $508 #
straight-curve $-1 0 47.710783859919999 -22.142189369775 1 0 0 I I #
face $-1 $-1 $509 $17 $-1 $510 reversed single #
loop $-1 $-1 $511 $400 #
plane-surface $-1 -70.780968657490774 0 0 1 0 0 0 0 -1 forward_v I I I I #
coedge $-1 $512 $513 $417 $469 forward $401 $-1 #
coedge $-1 $460 $403 $514 $515 forward $283 $-1 #
coedge $-1 $408 $516 $403 $459 forward $342 $-1 #
edge $-1 $517 -70.780968657490774 $415 60.935085100807015 $403 $518 forward 7 unknown #
coedge $-1 $404 $457 $512 $519 reversed $283 $-1 #
coedge $-1 $520 $521 $405 $462 forward $509 $-1 #
edge $-1 $464 -22.142189369775 $522 22.142189369775 $405 $523 forward 7 unknown #
coedge $-1 $516 $406 $521 $524 forward $342 $-1 #
vertex $-1 $407 $525 #
straight-curve $-1 70.780968657490774 0 22.142189369775 0 1 0 I I #
point $-1 60.935085100807015 -35.857565466717546 22.142189369774997 #
straight-curve $-1 60.935085100807015 -20.892087331659386 22.142189369774989 0 1 0 I I #
point $-1 60.935085100807015 -47.710783859919999 22.142189369774997 #
edge $-1 $522 -47.710783859919999 $470 47.710783859919999 $417 $526 forward 7 unknown #
vertex $-1 $418 $527 #
straight-curve $-1 70.780968657490774 -47.710783859919999 0 0 0 -1 I I #
face $-1 $528 $529 $18 $-1 $530 reversed single #
loop $-1 $-1 $477 $420 #
plane-surface $-1 0 0 22.142189369775 0 0 1 1 0 0 forward_v I I I I #
coedge $-1 $531 $532 $430 $485 forward $421 $-1 #
coedge $-1 $423 $533 $534 $535 reversed $359 $-1 #
coedge $-1 $534 $536 $424 $478 forward $473 $-1 #
edge $-1 $537 39.475744540503463 $480 49.321628097187222 $477 $538 forward 7 unknown #
edge $-1 $537 129.23355533897734 $481 141.56193731498155 $425 $539 forward 7 unknown #
vertex $-1 $535 $540 #
vertex $-1 $432 $541 #
straight-curve $-1 70.780968657490774 -35.857565466717546 106.4866373254153 0 0 -1 I I #
point $-1 64.485920934027149 -45.340140181279509 16.611640527605555 #
coedge $-1 $430 $429 $536 $542 reversed $304 $-1 #
edge $-1 $487 -94.614869666747012 $543 -82.286487690742803 $475 $544 forward 7 unknown #
coedge $-1 $545 $431 $532 $546 forward $359 $-1 #
vertex $-1 $546 $547 #
straight-curve $-1 70.780968657490774 -20.892087331659386 14.722783791530226 0 -1 0 I I #
edge $-1 $548 1 $548 0 $433 $-1 forward 7 unknown #
vertex $-1 $434 $549 #
ellipse-curve $-1 64.78682844941261 -45.340140181279509 17.010958279758579 0.6018150307709319 0 0.79863550430605224 0.39931775215302612 0 -0.30090751538546595 1 I I #
point $-1 66.257344631301919 -45.340140181279509 18.131579065267125 #
point $-1 64.485920934027149 -41.784174663318773 16.611640527605555 #
coedge $-1 $550 $439 $503 $551 reversed $378 $-1 #
coedge $-1 $439 $550 $552 $553 reversed $378 $-1 #
coedge $-1 $554 $501 $439 $497 forward $441 $-1 #
edge $-1 $555 14.965478135058159 $556 26.818696528260613 $496 $557 forward 7 unknown #
face $-1 $558 $559 $19 $-1 $560 forward single #
loop $-1 $-1 $552 $440 #
plane-surface $-1 0 -47.710783859919999 0 0 1 0 0 0 1 forward_v I I I I #
coedge $-1 $496 $561 $443 $504 forward $441 $-1 #
coedge $-1 $503 $443 $562 $563 reversed $380 $-1 #
coedge $-1 $443 $502 $494 $551 forward $380 $-1 #
edge $-1 $564 84.344447955640305 $555 91.763853533885083 $501 $565 forward 7 unknown #
straight-curve $-1 -70.780968657490774 47.710783859919999 0 0 0 -1 I I #
point $-1 -70.780968657490774 47.710783859919999 22.142189369775 #
straight-curve $-1 -70.780968657490774 0 -22.142189369775 0 1 0 I I #
point $-1 -70.780968657490774 47.710783859919999 -22.142189369775 #
loop $-1 $-1 $461 $453 #
plane-surface $-1 0 47.710783859919999 0 0 -1 0 0 0 -1 forward_v I I I I #
coedge $-1 $566 $567 $568 $569 forward $454 $-1 #
coedge $-1 $570 $456 $460 $519 forward $401 $-1 #
coedge $-1 $456 $570 $520 $571 forward $401 $-1 #
coedge $-1 $567 $566 $457 $515 reversed $454 $-1 #
edge $-1 $517 -22.142189369775 $572 22.142189369775 $514 $573 forward 7 unknown #
coedge $-1 $458 $463 $567 $574 forward $342 $-1 #
vertex $-1 $574 $575 #
straight-curve $-1 0 -47.710783859919999 22.142189369775 1 0 0 I I #
edge $-1 $470 -70.780968657490774 $572 70.780968657490774 $460 $576 forward 7 unknown #
coedge $-1 $568 $461 $513 $571 reversed $509 $-1 #
coedge $-1 $461 $568 $463 $524 reversed $509 $-1 #
vertex $-1 $469 $577 #
straight-curve $-1 70.780968657490774 47.710783859919999 0 0 0 -1 I I #
edge $-1 $464 -70.780968657490774 $578 70.780968657490774 $521 $579 forward 7 unknown #
point $-1 70.780968657490774 47.710783859919999 22.142189369775 #
straight-curve $-1 70.780968657490774 0 -22.142189369775 0 -1 0 I I #
point $-1 70.780968657490774 -47.710783859919999 -22.142189369775 #
face $-1 $580 $581 $18 $-1 $582 reversed single #
loop $-1 $-1 $583 $472 #
plane-surface $-1 0 0 -22.142189369775 0 0 1 1 0 0 forward_v I I I I #
coedge $-1 $584 $475 $585 $586 reversed $421 $-1 #
coedge $-1 $475 $587 $486 $546 reversed $421 $-1 #
coedge $-1 $476 $545 $588 $589 reversed $359 $-1 #
coedge $-1 $590 $477 $476 $535 forward $473 $-1 #
edge $-1 $480 -35.857565466717546 $591 47.710783859919999 $476 $592 forward 7 unknown #
coedge $-1 $477 $585 $484 $542 forward $473 $-1 #
vertex $-1 $542 $593 #
straight-curve $-1 21.459340560303552 -35.857565466717546 22.142189369774997 1 0 0 I I #
straight-curve $-1 -42.275420540601246 -35.857565466717546 99.916885452738555 0.79863550430605224 0 -0.6018150307709319 I I #
point $-1 70.780968657490774 -35.857565466717546 22.142189369775 #
point $-1 70.780968657490774 -35.857565466717546 14.722783791530219 #
edge $-1 $543 -26.818696528260613 $537 -14.965478135058159 $536 $594 forward 7 unknown #
vertex $-1 $542 $595 #
straight-curve $-1 -4.781825493663117 -47.710783859919999 71.66343449141128 -0.79863550430605224 0 0.6018150307709319 I I #
coedge $-1 $533 $486 $583 $596 reversed $359 $-1 #
edge $-1 $487 -14.722783791530228 $597 22.142189369775 $486 $598 forward 7 unknown #
point $-1 70.780968657490774 -47.710783859919999 14.722783791530228 #
vertex $-1 $489 $599 #
point $-1 65.186146201565634 -45.340140181279509 16.710050764373115 #
coedge $-1 $495 $494 $600 $601 reversed $378 $-1 #
edge $-1 $602 129.23355533897734 $555 141.56193731498155 $503 $603 forward 7 unknown #
coedge $-1 $604 $605 $495 $553 forward $499 $-1 #
edge $-1 $556 -94.614869666747012 $606 -82.286487690742803 $552 $607 forward 7 unknown #
coedge $-1 $608 $496 $605 $609 forward $441 $-1 #
vertex $-1 $497 $610 #
vertex $-1 $609 $611 #
straight-curve $-1 70.780968657490774 -20.892087331659386 14.722783791530226 0 -1 0 I I #
face $-1 $612 $613 $19 $-1 $614 reversed single #
loop $-1 $-1 $562 $498 #
plane-surface $-1 0 0 22.142189369775 0 0 1 1 0 0 forward_v I I I I #
coedge $-1 $501 $615 $616 $617 reversed $441 $-1 #
coedge $-1 $616 $600 $502 $563 forward $559 $-1 #
edge $-1 $602 39.475744540503463 $564 49.321628097187222 $562 $618 forward 7 unknown #
vertex $-1 $617 $619 #
straight-curve $-1 70.780968657490774 -35.857565466717546 106.4866373254153 0 0 -1 I I #
coedge $-1 $514 $511 $570 $620 reversed $454 $-1 #
coedge $-1 $511 $514 $516 $574 reversed $454 $-1 #
coedge $-1 $521 $520 $511 $569 reversed $509 $-1 #
edge $-1 $578 -22.142189369775 $621 22.142189369775 $568 $622 forward 7 unknown #
coedge $-1 $513 $512 $566 $620 forward $401 $-1 #
edge $-1 $621 -70.780968657490774 $522 70.780968657490774 $520 $623 forward 7 unknown #
vertex $-1 $620 $624 #
straight-curve $-1 -70.780968657490774 -47.710783859919999 0 0 0 -1 I I #
edge $-1 $578 -47.710783859919999 $517 47.710783859919999 $567 $625 forward 7 unknown #
point $-1 -70.780968657490774 -47.710783859919999 22.142189369775 #
straight-curve $-1 0 -47.710783859919999 -22.142189369775 -1 0 0 I I #
point $-1 70.780968657490774 47.710783859919999 -22.142189369775 #
vertex $-1 $524 $626 #
straight-curve $-1 0 47.710783859919999 22.142189369775 -1 0 0 I I #
face $-1 $-1 $627 $18 $-1 $628 reversed single #
loop $-1 $-1 $629 $528 #
plane-surface $-1 -70.780968657490774 0 0 1 0 0 0 0 -1 forward_v I I I I #
coedge $-1 $630 $631 $545 $596 forward $529 $-1 #
coedge $-1 $587 $531 $632 $633 forward $421 $-1 #
coedge $-1 $536 $634 $531 $586 forward $473 $-1 #
edge $-1 $635 -70.780968657490774 $543 60.935085100807015 $531 $636 forward 7 unknown #
coedge $-1 $532 $584 $630 $637 reversed $421 $-1 #
coedge $-1 $638 $639 $533 $589 forward $627 $-1 #
edge $-1 $591 -22.142189369775 $640 22.142189369775 $533 $641 forward 7 unknown #
coedge $-1 $634 $534 $639 $642 forward $473 $-1 #
vertex $-1 $535 $643 #
straight-curve $-1 70.780968657490774 0 22.142189369775 0 1 0 I I #
point $-1 60.935085100807015 -35.857565466717546 22.142189369774997 #
straight-curve $-1 60.935085100807015 -20.892087331659386 22.142189369774989 0 1 0 I I #
point $-1 60.935085100807015 -47.710783859919999 22.142189369774997 #
edge $-1 $640 -47.710783859919999 $597 47.710783859919999 $545 $644 forward 7 unknown #
vertex $-1 $546 $645 #
straight-curve $-1 70.780968657490774 -47.710783859919999 0 0 0 -1 I I #
point $-1 64.485920934027149 -45.340140181279509 16.611640527605555 #
coedge $-1 $562 $646 $550 $601 forward $559 $-1 #
edge $-1 $606 -26.818696528260613 $602 -14.965478135058159 $600 $647 forward 7 unknown #
vertex $-1 $601 $648 #
straight-curve $-1 -42.275420540601246 -35.857565466717546 99.916885452738555 0.79863550430605224 0 -0.6018150307709319 I I #
coedge $-1 $649 $552 $646 $650 reversed $499 $-1 #
coedge $-1 $552 $651 $554 $609 reversed $499 $-1 #
vertex $-1 $601 $652 #
straight-curve $-1 -4.781825493663117 -47.710783859919999 71.66343449141128 -0.79863550430605224 0 0.6018150307709319 I I #
coedge $-1 $615 $554 $653 $654 reversed $441 $-1 #
edge $-1 $556 -14.722783791530228 $655 22.142189369775 $554 $656 forward 7 unknown #
point $-1 70.780968657490774 -35.857565466717546 14.722783791530219 #
point $-1 70.780968657490774 -47.710783859919999 14.722783791530228 #
face $-1 $657 $658 $19 $-1 $659 reversed single #
loop $-1 $-1 $653 $558 #
plane-surface $-1 0 0 -22.142189369775 0 0 1 1 0 0 forward_v I I I I #
coedge $-1 $561 $608 $660 $661 reversed $441 $-1 #
coedge $-1 $662 $562 $561 $617 forward $559 $-1 #
edge $-1 $564 -35.857565466717546 $663 47.710783859919999 $561 $664 forward 7 unknown #
straight-curve $-1 21.459340560303552 -35.857565466717546 22.142189369774997 1 0 0 I I #
point $-1 70.780968657490774 -35.857565466717546 22.142189369775 #
edge $-1 $572 -47.710783859919999 $621 47.710783859919999 $566 $665 forward 7 unknown #
vertex $-1 $571 $666 #
straight-curve $-1 -70.780968657490774 47.710783859919999 0 0 0 -1 I I #
straight-curve $-1 0 47.710783859919999 -22.142189369775 1 0 0 I I #
point $-1 -70.780968657490774 -47.710783859919999 -22.142189369775 #
straight-curve $-1 -70.780968657490774 0 22.142189369775 0 -1 0 I I #
point $-1 -70.780968657490774 47.710783859919999 22.142189369775 #
loop $-1 $-1 $588 $580 #
plane-surface $-1 0 47.710783859919999 0 0 -1 0 0 0 -1 forward_v I I I I #
coedge $-1 $667 $668 $669 $670 forward $581 $-1 #
coedge $-1 $671 $583 $587 $637 forward $529 $-1 #
coedge $-1 $583 $671 $638 $672 forward $529 $-1 #
coedge $-1 $668 $667 $584 $633 reversed $581 $-1 #
edge $-1 $635 -22.142189369775 $673 22.142189369775 $632 $674 forward 7 unknown #
coedge $-1 $585 $590 $668 $675 forward $473 $-1 #
vertex $-1 $675 $676 #
straight-curve $-1 0 -47.710783859919999 22.142189369775 1 0 0 I I #
edge $-1 $597 -70.780968657490774 $673 70.780968657490774 $587 $677 forward 7 unknown #
coedge $-1 $669 $588 $631 $672 reversed $627 $-1 #
coedge $-1 $588 $669 $590 $642 reversed $627 $-1 #
vertex $-1 $596 $678 #
straight-curve $-1 70.780968657490774 47.710783859919999 0 0 0 -1 I I #
edge $-1 $591 -70.780968657490774 $679 70.780968657490774 $639 $680 forward 7 unknown #
point $-1 70.780968657490774 47.710783859919999 22.142189369775 #
straight-curve $-1 70.780968657490774 0 -22.142189369775 0 -1 0 I I #
point $-1 70.780968657490774 -47.710783859919999 -22.142189369775 #
coedge $-1 $600 $681 $604 $650 forward $559 $-1 #
straight-curve $-1 60.935085100807015 -20.892087331659386 22.142189369774989 0 1 0 I I #
point $-1 60.935085100807015 -35.857565466717546 22.142189369774997 #
coedge $-1 $651 $604 $682 $683 forward $499 $-1 #
edge $-1 $684 -70.780968657490774 $606 60.935085100807015 $604 $685 forward 7 unknown #
coedge $-1 $605 $649 $686 $687 reversed $499 $-1 #
point $-1 60.935085100807015 -47.710783859919999 22.142189369774997 #
coedge $-1 $686 $688 $608 $654 forward $613 $-1 #
edge $-1 $689 -47.710783859919999 $655 47.710783859919999 $608 $690 forward 7 unknown #
vertex $-1 $609 $691 #
straight-curve $-1 70.780968657490774 -47.710783859919999 0 0 0 -1 I I #
face $-1 $-1 $692 $19 $-1 $693 reversed single #
loop $-1 $-1 $694 $612 #
plane-surface $-1 -70.780968657490774 0 0 1 0 0 0 0 -1 forward_v I I I I #
coedge $-1 $695 $696 $615 $661 forward $692 $-1 #
edge $-1 $663 -22.142189369775 $689 22.142189369775 $615 $697 forward 7 unknown #
coedge $-1 $681 $616 $696 $698 forward $559 $-1 #
vertex $-1 $617 $699 #
straight-curve $-1 70.780968657490774 0 22.142189369775 0 1 0 I I #
straight-curve $-1 -70.780968657490774 0 -22.142189369775 0 1 0 I I #
point $-1 -70.780968657490774 47.710783859919999 -22.142189369775 #
coedge $-1 $632 $629 $671 $700 reversed $581 $-1 #
coedge $-1 $629 $632 $634 $675 reversed $581 $-1 #
coedge $-1 $639 $638 $629 $670 reversed $627 $-1 #
edge $-1 $679 -22.142189369775 $701 22.142189369775 $669 $702 forward 7 unknown #
coedge $-1 $631 $630 $667 $700 forward $529 $-1 #
edge $-1 $701 -70.780968657490774 $640 70.780968657490774 $638 $703 forward 7 unknown #
vertex $-1 $700 $704 #
straight-curve $-1 -70.780968657490774 -47.710783859919999 0 0 0 -1 I I #
edge $-1 $679 -47.710783859919999 $635 47.710783859919999 $668 $705 forward 7 unknown #
point $-1 -70.780968657490774 -47.710783859919999 22.142189369775 #
straight-curve $-1 0 -47.710783859919999 -22.142189369775 -1 0 0 I I #
point $-1 70.780968657490774 47.710783859919999 -22.142189369775 #
vertex $-1 $642 $706 #
straight-curve $-1 0 47.710783859919999 22.142189369775 -1 0 0 I I #
coedge $-1 $646 $662 $707 $708 forward $559 $-1 #
coedge $-1 $707 $709 $649 $683 reversed $658 $-1 #
edge $-1 $684 -22.142189369775 $710 22.142189369775 $682 $711 forward 7 unknown #
vertex $-1 $708 $712 #
straight-curve $-1 0 -47.710783859919999 22.142189369775 1 0 0 I I #
coedge $-1 $713 $653 $651 $687 forward $613 $-1 #
edge $-1 $655 -70.780968657490774 $710 70.780968657490774 $651 $714 forward 7 unknown #
coedge $-1 $653 $713 $695 $715 forward $613 $-1 #
vertex $-1 $654 $716 #
straight-curve $-1 70.780968657490774 0 -22.142189369775 0 -1 0 I I #
point $-1 70.780968657490774 -47.710783859919999 -22.142189369775 #
loop $-1 $-1 $660 $657 #
plane-surface $-1 0 47.710783859919999 0 0 -1 0 0 0 -1 forward_v I I I I #
coedge $-1 $709 $707 $717 $718 forward $658 $-1 #
coedge $-1 $717 $660 $688 $715 reversed $692 $-1 #
coedge $-1 $660 $717 $662 $698 reversed $692 $-1 #
straight-curve $-1 70.780968657490774 47.710783859919999 0 0 0 -1 I I #
edge $-1 $663 -70.780968657490774 $719 70.780968657490774 $696 $720 forward 7 unknown #
point $-1 70.780968657490774 47.710783859919999 22.142189369775 #
edge $-1 $673 -47.710783859919999 $701 47.710783859919999 $667 $721 forward 7 unknown #
vertex $-1 $672 $722 #
straight-curve $-1 -70.780968657490774 47.710783859919999 0 0 0 -1 I I #
straight-curve $-1 0 47.710783859919999 -22.142189369775 1 0 0 I I #
point $-1 -70.780968657490774 -47.710783859919999 -22.142189369775 #
straight-curve $-1 -70.780968657490774 0 22.142189369775 0 -1 0 I I #
point $-1 -70.780968657490774 47.710783859919999 22.142189369775 #
coedge $-1 $694 $682 $681 $708 reversed $658 $-1 #
edge $-1 $719 -47.710783859919999 $684 47.710783859919999 $707 $723 forward 7 unknown #
coedge $-1 $682 $694 $713 $724 reversed $658 $-1 #
vertex $-1 $724 $725 #
straight-curve $-1 -70.780968657490774 -47.710783859919999 0 0 0 -1 I I #
point $-1 -70.780968657490774 -47.710783859919999 22.142189369775 #
coedge $-1 $688 $686 $709 $724 forward $613 $-1 #
straight-curve $-1 0 -47.710783859919999 -22.142189369775 -1 0 0 I I #
edge $-1 $726 -70.780968657490774 $689 70.780968657490774 $695 $727 forward 7 unknown #
point $-1 70.780968657490774 47.710783859919999 -22.142189369775 #
coedge $-1 $696 $695 $694 $718 reversed $692 $-1 #
edge $-1 $719 -22.142189369775 $726 22.142189369775 $717 $728 forward 7 unknown #
vertex $-1 $698 $729 #
straight-curve $-1 0 47.710783859919999 22.142189369775 -1 0 0 I I #
straight-curve $-1 -70.780968657490774 0 -22.142189369775 0 1 0 I I #
point $-1 -70.780968657490774 47.710783859919999 -22.142189369775 #
straight-curve $-1 -70.780968657490774 0 22.142189369775 0 -1 0 I I #
edge $-1 $710 -47.710783859919999 $726 47.710783859919999 $709 $730 forward 7 unknown #
point $-1 -70.780968657490774 -47.710783859919999 -22.142189369775 #
vertex $-1 $715 $731 #
straight-curve $-1 0 47.710783859919999 -22.142189369775 1 0 0 I I #
straight-curve $-1 -70.780968657490774 47.710783859919999 0 0 0 -1 I I #
point $-1 -70.780968657490774 47.710783859919999 22.142189369775 #
straight-curve $-1 -70.780968657490774 0 -22.142189369775 0 1 0 I I #
point $-1 -70.780968657490774 47.710783859919999 -22.142189369775 #
End-of-ACIS-data 