500 0 10 0           
7 Unknown 11 ACIS 5.0 NT 24 Thu Mar 25 23:03:29 1999 
-1 9.9999999999999995e-007 1e-010 
body $-1 $10 $-1 $11 #
body $-1 $12 $-1 $13 #
body $-1 $14 $-1 $15 #
body $-1 $16 $-1 $17 #
body $-1 $18 $-1 $19 #
body $-1 $20 $-1 $21 #
body $-1 $22 $-1 $23 #
body $-1 $24 $-1 $25 #
body $-1 $26 $-1 $27 #
body $-1 $28 $-1 $29 #
lump $-1 $-1 $30 $0 #
transform $-1 1 0 0 0 1 0 0 0 1 42.363353373821219 25.83198784601268 7.6352850577537588 1 rotate no_reflect no_shear #
lump $-1 $-1 $31 $1 #
transform $-1 1 0 0 0 1 0 0 0 1 42.363353373821219 25.83198784601268 7.6352850577537588 1 rotate no_reflect no_shear #
lump $-1 $-1 $32 $2 #
transform $-1 1 0 0 0 1 0 0 0 1 42.363353373821219 25.83198784601268 7.6352850577537588 1 rotate no_reflect no_shear #
lump $-1 $-1 $33 $3 #
transform $-1 1 0 0 0 1 0 0 0 1 42.363353373821219 25.83198784601268 7.6352850577537588 1 rotate no_reflect no_shear #
lump $-1 $-1 $34 $4 #
transform $-1 1 0 0 0 1 0 0 0 1 42.363353373821219 25.83198784601268 7.6352850577537588 1 rotate no_reflect no_shear #
lump $-1 $-1 $35 $5 #
transform $-1 1 0 0 0 1 0 0 0 1 42.363353373821219 25.83198784601268 7.6352850577537588 1 rotate no_reflect no_shear #
lump $-1 $-1 $36 $6 #
transform $-1 1 0 0 0 1 0 0 0 1 42.363353373821219 25.83198784601268 7.6352850577537588 1 rotate no_reflect no_shear #
lump $-1 $-1 $37 $7 #
transform $-1 1 0 0 0 1 0 0 0 1 42.363353373821219 25.83198784601268 7.6352850577537588 1 rotate no_reflect no_shear #
lump $-1 $-1 $38 $8 #
transform $-1 1 0 0 0 1 0 0 0 1 42.363353373821219 25.83198784601268 7.6352850577537588 1 rotate no_reflect no_shear #
lump $-1 $-1 $39 $9 #
transform $-1 1 0 0 0 1 0 0 0 1 42.363353373821219 25.83198784601268 7.6352850577537588 1 rotate no_reflect no_shear #
shell $-1 $-1 $-1 $40 $-1 $10 #
shell $-1 $-1 $-1 $41 $-1 $12 #
shell $-1 $-1 $-1 $42 $-1 $14 #
shell $-1 $-1 $-1 $43 $-1 $16 #
shell $-1 $-1 $-1 $44 $-1 $18 #
shell $-1 $-1 $-1 $45 $-1 $20 #
shell $-1 $-1 $-1 $46 $-1 $22 #
shell $-1 $-1 $-1 $47 $-1 $24 #
shell $-1 $-1 $-1 $48 $-1 $26 #
shell $-1 $-1 $-1 $49 $-1 $28 #
face $-1 $50 $51 $30 $-1 $52 forward single #
face $-1 $53 $54 $31 $-1 $55 reversed single #
face $-1 $56 $57 $32 $-1 $58 forward single #
face $-1 $59 $60 $33 $-1 $61 forward single #
face $-1 $62 $63 $34 $-1 $64 reversed single #
face $-1 $65 $66 $35 $-1 $67 forward single #
face $-1 $68 $69 $36 $-1 $70 forward single #
face $-1 $71 $72 $37 $-1 $73 reversed single #
face $-1 $74 $75 $38 $-1 $76 forward single #
face $-1 $77 $78 $39 $-1 $79 forward single #
face $-1 $80 $81 $30 $-1 $82 reversed single #
loop $-1 $-1 $83 $40 #
plane-surface $-1 0 0 7.6352850577537588 0 0 1 1 0 0 forward_v I I I I #
face $-1 $84 $85 $31 $-1 $86 reversed single #
loop $-1 $-1 $87 $41 #
plane-surface $-1 -33.430422260167838 54.226255340352097 95.125950556062392 -1 0 0 0 0.74314483375859142 0.66913059716165679 forward_v I I I I #
face $-1 $88 $89 $32 $-1 $90 forward single #
loop $-1 $91 $92 $42 #
cone-surface $-1 -39.811087341348824 21.558690216385511 3.0686971138386534 0 -0.74314483375859142 -0.66913059716165679 1 0 0 1 I I 0 1 1 forward I I I I #
face $-1 $93 $94 $33 $-1 $95 forward single #
loop $-1 $96 $97 $43 #
cone-surface $-1 -35.982688292640233 21.558690216385511 3.0686971138386534 0 -0.74314483375859142 -0.66913059716165679 1 0 0 1 I I 0 1 1 forward I I I I #
face $-1 $98 $99 $34 $-1 $100 reversed single #
loop $-1 $-1 $101 $44 #
plane-surface $-1 -26.95885020145024 -86.779280859269505 61.240740102412175 -1 0 0 0 -0.71933980857756763 0.69465836192734942 forward_v I I I I #
face $-1 $102 $103 $35 $-1 $104 forward single #
loop $-1 $105 $106 $45 #
cone-surface $-1 -37.962066753143795 -22.699291278194494 4.4330092123879048 0 0.71933980857756763 -0.69465836192734942 1.5 0 0 1 I I 0 1 1.5 forward I I I I #
face $-1 $107 $108 $36 $-1 $109 forward single #
loop $-1 $110 $111 $46 #
cone-surface $-1 -31.360136822127664 -22.699291278194494 4.4330092123879048 0 0.71933980857756763 -0.69465836192734942 1.5 0 0 1 I I 0 1 1.5 forward I I I I #
face $-1 $112 $113 $37 $-1 $114 reversed single #
loop $-1 $-1 $115 $47 #
plane-surface $-1 34.661101787635722 -25.831987846012687 2.3846247815959742 0 -0.71933980857756763 0.69465836192734942 1 0 0 forward_v I I I I #
face $-1 $116 $117 $38 $-1 $118 forward single #
loop $-1 $119 $120 $48 #
cone-surface $-1 31.360136822127664 -22.699291278194494 4.4330092123879048 0 0.71933980857756763 -0.69465836192734942 1.5 0 0 1 I I 0 1 1.5 forward I I I I #
face $-1 $121 $122 $39 $-1 $123 forward single #
loop $-1 $124 $125 $49 #
cone-surface $-1 37.962066753143795 -22.699291278194494 4.4330092123879048 0 0.71933980857756763 -0.69465836192734942 1.5 0 0 1 I I 0 1 1.5 forward I I I I #
face $-1 $126 $127 $30 $-1 $128 reversed single #
loop $-1 $-1 $129 $50 #
plane-surface $-1 0 0 -7.6352850577537588 0 0 1 1 0 0 forward_v I I I I #
coedge $-1 $130 $131 $132 $133 forward $51 $-1 #
face $-1 $134 $135 $31 $-1 $136 reversed single #
loop $-1 $-1 $137 $53 #
plane-surface $-1 -37.896887816994528 -8.7379590605375697 38.432718674471829 0 0.74314483375859142 0.66913059716165679 1 0 0 forward_v I I I I #
coedge $-1 $138 $139 $140 $141 reversed $54 $-1 #
face $-1 $-1 $142 $32 $-1 $143 forward single #
loop $-1 $144 $145 $56 #
cone-surface $-1 -39.811087341348824 20.333727076990627 1.9657353764627317 0 -0.74314483375859142 -0.66913059716165679 0.5 0 0 1 I I -0.70710678118654746 0.70710678118654746 0.5 forward I I I I #
loop $-1 $-1 $146 $42 #
coedge $-1 $92 $92 $147 $148 reversed $57 $-1 #
face $-1 $-1 $149 $33 $-1 $150 forward single #
loop $-1 $151 $152 $59 #
cone-surface $-1 -35.982688292640233 20.333727076990627 1.9657353764627317 0 -0.74314483375859142 -0.66913059716165679 0.5 0 0 1 I I -0.70710678118654746 0.70710678118654746 0.5 forward I I I I #
loop $-1 $-1 $153 $43 #
coedge $-1 $97 $97 $154 $155 reversed $60 $-1 #
face $-1 $156 $157 $34 $-1 $158 reversed single #
loop $-1 $-1 $159 $62 #
plane-surface $-1 -34.661101787635729 -25.831987846012687 2.3846247815959742 0 -0.71933980857756763 0.69465836192734942 1 0 0 forward_v I I I I #
coedge $-1 $160 $161 $162 $163 reversed $63 $-1 #
face $-1 $-1 $164 $35 $-1 $165 forward single #
loop $-1 $166 $167 $65 #
cone-surface $-1 -37.962066753143795 -21.562341638273839 3.3350697336554305 0 0.71933980857756763 -0.69465836192734942 0.75 0 0 1 I I -0.70710678118654768 0.70710678118654735 0.75 forward I I I I #
loop $-1 $-1 $168 $45 #
coedge $-1 $106 $106 $169 $170 reversed $66 $-1 #
face $-1 $-1 $171 $36 $-1 $172 forward single #
loop $-1 $173 $174 $68 #
cone-surface $-1 -31.360136822127664 -21.562341638273839 3.3350697336554305 0 0.71933980857756763 -0.69465836192734942 0.75 0 0 1 I I -0.70710678118654768 0.70710678118654735 0.75 forward I I I I #
loop $-1 $-1 $175 $46 #
coedge $-1 $111 $111 $176 $177 reversed $69 $-1 #
face $-1 $178 $179 $37 $-1 $180 reversed single #
loop $-1 $-1 $181 $71 #
plane-surface $-1 26.958850201450232 -86.779280859269505 61.240740102412175 1 0 0 0 0.71933980857756763 -0.69465836192734942 forward_v I I I I #
coedge $-1 $182 $183 $184 $185 reversed $72 $-1 #
face $-1 $-1 $186 $38 $-1 $187 forward single #
loop $-1 $188 $189 $74 #
cone-surface $-1 31.360136822127664 -21.562341638273839 3.3350697336554305 0 0.71933980857756763 -0.69465836192734942 0.75 0 0 1 I I -0.70710678118654768 0.70710678118654735 0.75 forward I I I I #
loop $-1 $-1 $190 $48 #
coedge $-1 $120 $120 $191 $192 reversed $75 $-1 #
face $-1 $-1 $193 $39 $-1 $194 forward single #
loop $-1 $195 $196 $77 #
cone-surface $-1 37.962066753143795 -21.562341638273839 3.3350697336554305 0 0.71933980857756763 -0.69465836192734942 0.75 0 0 1 I I -0.70710678118654768 0.70710678118654735 0.75 forward I I I I #
loop $-1 $-1 $197 $49 #
coedge $-1 $125 $125 $198 $199 reversed $78 $-1 #
face $-1 $200 $201 $30 $-1 $202 reversed single #
loop $-1 $-1 $203 $80 #
plane-surface $-1 0 -25.83198784601268 0 0 1 0 0 0 1 forward_v I I I I #
coedge $-1 $204 $205 $206 $207 forward $81 $-1 #
coedge $-1 $208 $83 $209 $210 forward $51 $-1 #
coedge $-1 $83 $208 $211 $212 forward $51 $-1 #
coedge $-1 $213 $214 $83 $133 reversed $215 $-1 #
edge $-1 $216 -25.83198784601268 $217 25.83198784601268 $132 $218 forward 7 unknown #
face $-1 $219 $220 $31 $-1 $221 forward single #
loop $-1 $-1 $140 $84 #
plane-surface $-1 0 25.83198784601268 0 0 -1 0 0 0 -1 forward_v I I I I #
coedge $-1 $222 $223 $224 $225 reversed $85 $-1 #
coedge $-1 $139 $87 $226 $227 reversed $54 $-1 #
coedge $-1 $87 $138 $222 $228 reversed $54 $-1 #
coedge $-1 $224 $229 $87 $141 forward $135 $-1 #
edge $-1 $230 39.927690220277441 $231 47.524073230517459 $140 $232 forward 7 unknown #
loop $-1 $-1 $147 $88 #
plane-surface $-1 -37.896887816994528 -8.7379590605375697 38.432718674471829 0 0.74314483375859142 0.66913059716165679 1 0 0 forward_v I I I I #
loop $-1 $-1 $233 $56 #
coedge $-1 $145 $145 $146 $234 reversed $89 $-1 #
coedge $-1 $146 $146 $145 $234 forward $91 $-1 #
coedge $-1 $147 $147 $92 $148 forward $142 $-1 #
edge $-1 $235 -1.341424224882051e-016 $235 6.2831853071796004 $147 $236 forward 7 unknown #
loop $-1 $-1 $154 $93 #
plane-surface $-1 -37.896887816994528 -8.7379590605375697 38.432718674471829 0 0.74314483375859142 0.66913059716165679 1 0 0 forward_v I I I I #
loop $-1 $-1 $237 $59 #
coedge $-1 $152 $152 $153 $238 reversed $94 $-1 #
coedge $-1 $153 $153 $152 $238 forward $96 $-1 #
coedge $-1 $154 $154 $97 $155 forward $149 $-1 #
edge $-1 $239 -1.341424224882051e-016 $239 6.2831853071796004 $154 $240 forward 7 unknown #
face $-1 $241 $242 $34 $-1 $243 forward single #
loop $-1 $-1 $244 $98 #
plane-surface $-1 -42.363353373821219 0 0 1 0 0 0 0 -1 forward_v I I I I #
coedge $-1 $245 $246 $247 $248 reversed $99 $-1 #
coedge $-1 $161 $101 $249 $250 reversed $63 $-1 #
coedge $-1 $101 $160 $245 $251 reversed $63 $-1 #
coedge $-1 $247 $252 $101 $163 forward $242 $-1 #
edge $-1 $253 17.557652583622072 $254 22.628156152283474 $162 $255 forward 7 unknown #
loop $-1 $-1 $169 $102 #
plane-surface $-1 -34.661101787635729 -25.831987846012687 2.3846247815959742 0 -0.71933980857756763 0.69465836192734942 1 0 0 forward_v I I I I #
loop $-1 $-1 $256 $65 #
coedge $-1 $167 $167 $168 $257 reversed $103 $-1 #
coedge $-1 $168 $168 $167 $257 forward $105 $-1 #
coedge $-1 $169 $169 $106 $170 forward $164 $-1 #
edge $-1 $258 3.0901991210412328e-016 $258 6.2831853071796004 $169 $259 forward 7 unknown #
loop $-1 $-1 $176 $107 #
plane-surface $-1 -34.661101787635729 -25.831987846012687 2.3846247815959742 0 -0.71933980857756763 0.69465836192734942 1 0 0 forward_v I I I I #
loop $-1 $-1 $260 $68 #
coedge $-1 $174 $174 $175 $261 reversed $108 $-1 #
coedge $-1 $175 $175 $174 $261 forward $110 $-1 #
coedge $-1 $176 $176 $111 $177 forward $171 $-1 #
edge $-1 $262 3.0901991210412328e-016 $262 6.2831853071796004 $176 $263 forward 7 unknown #
face $-1 $264 $265 $37 $-1 $266 reversed single #
loop $-1 $-1 $267 $112 #
plane-surface $-1 0 -25.83198784601268 0 0 1 0 0 0 1 forward_v I I I I #
coedge $-1 $268 $269 $270 $271 reversed $113 $-1 #
coedge $-1 $272 $115 $273 $274 reversed $72 $-1 #
coedge $-1 $115 $272 $268 $275 forward $72 $-1 #
coedge $-1 $270 $276 $115 $185 forward $277 $-1 #
edge $-1 $278 -25.032802480003351 $279 -9.6282993076323713 $184 $280 forward 7 unknown #
loop $-1 $-1 $191 $116 #
plane-surface $-1 34.661101787635722 -25.831987846012687 2.3846247815959742 0 -0.71933980857756763 0.69465836192734942 1 0 0 forward_v I I I I #
loop $-1 $-1 $281 $74 #
coedge $-1 $189 $189 $190 $282 reversed $117 $-1 #
coedge $-1 $190 $190 $189 $282 forward $119 $-1 #
coedge $-1 $191 $191 $120 $192 forward $186 $-1 #
edge $-1 $283 3.0901991210412328e-016 $283 6.2831853071796004 $191 $284 forward 7 unknown #
loop $-1 $-1 $198 $121 #
plane-surface $-1 34.661101787635722 -25.831987846012687 2.3846247815959742 0 -0.71933980857756763 0.69465836192734942 1 0 0 forward_v I I I I #
loop $-1 $-1 $285 $77 #
coedge $-1 $196 $196 $197 $286 reversed $122 $-1 #
coedge $-1 $197 $197 $196 $286 forward $124 $-1 #
coedge $-1 $198 $198 $125 $199 forward $193 $-1 #
edge $-1 $287 3.0901991210412328e-016 $287 6.2831853071796004 $198 $288 forward 7 unknown #
face $-1 $289 $290 $30 $-1 $291 reversed single #
loop $-1 $-1 $292 $126 #
plane-surface $-1 -42.363353373821219 0 0 1 0 0 0 0 -1 forward_v I I I I #
coedge $-1 $293 $211 $294 $295 forward $127 $-1 #
coedge $-1 $296 $129 $293 $297 forward $81 $-1 #
coedge $-1 $129 $296 $298 $299 forward $81 $-1 #
coedge $-1 $214 $213 $129 $207 reversed $215 $-1 #
edge $-1 $300 -25.83198784601268 $301 25.83198784601268 $206 $302 forward 7 unknown #
coedge $-1 $131 $130 $303 $304 forward $51 $-1 #
coedge $-1 $305 $306 $130 $210 reversed $290 $-1 #
edge $-1 $217 -42.363353373821219 $307 42.363353373821219 $209 $308 forward 7 unknown #
coedge $-1 $203 $309 $131 $212 reversed $127 $-1 #
edge $-1 $310 -42.363353373821219 $216 42.363353373821219 $211 $311 forward 7 unknown #
coedge $-1 $206 $132 $309 $312 forward $215 $-1 #
coedge $-1 $132 $206 $305 $313 reversed $215 $-1 #
loop $-1 $-1 $213 $289 #
vertex $-1 $133 $314 #
vertex $-1 $133 $315 #
straight-curve $-1 42.363353373821219 0 7.6352850577537588 0 1 0 I I #
face $-1 $-1 $316 $31 $-1 $317 reversed single #
loop $-1 $-1 $226 $134 #
plane-surface $-1 0 0 7.6352850577537588 0 0 1 1 0 0 forward_v I I I I #
coedge $-1 $318 $137 $139 $228 forward $85 $-1 #
coedge $-1 $137 $318 $319 $320 reversed $85 $-1 #
coedge $-1 $321 $140 $137 $225 forward $135 $-1 #
edge $-1 $231 14.481978351670573 $322 23.414909465323955 $224 $323 forward 7 unknown #
coedge $-1 $324 $325 $138 $227 forward $220 $-1 #
edge $-1 $326 -8.1209536383865064 $230 -1.2811398241633682 $226 $327 forward 7 unknown #
edge $-1 $231 -51.663975692025353 $326 -41.442034200728266 $139 $328 forward 7 unknown #
coedge $-1 $140 $321 $324 $329 reversed $135 $-1 #
vertex $-1 $329 $330 #
vertex $-1 $141 $331 #
straight-curve $-1 -33.430422260167838 25.83198784601268 47.562975278031196 0 0 -1 I I #
coedge $-1 $233 $233 $-1 $332 reversed $144 $-1 #
edge $-1 $333 0 $333 6.2831853071796004 $145 $334 forward 7 unknown #
vertex $-1 $148 $335 #
ellipse-curve $-1 -39.811087341348824 22.412080938901106 3.8370935526337533 0 0.74314483375859142 0.66913059716165679 1 0 0 1 I I #
coedge $-1 $237 $237 $-1 $336 reversed $151 $-1 #
edge $-1 $337 0 $337 6.2831853071796004 $152 $338 forward 7 unknown #
vertex $-1 $155 $339 #
ellipse-curve $-1 -35.982688292640233 22.412080938901106 3.8370935526337533 0 0.74314483375859142 0.66913059716165679 1 0 0 1 I I #
face $-1 $-1 $340 $34 $-1 $341 reversed single #
loop $-1 $-1 $247 $156 #
plane-surface $-1 0 0 7.6352850577537588 0 0 1 1 0 0 forward_v I I I I #
coedge $-1 $342 $343 $246 $344 forward $157 $-1 #
coedge $-1 $345 $159 $161 $251 forward $99 $-1 #
coedge $-1 $159 $345 $244 $344 reversed $99 $-1 #
coedge $-1 $346 $162 $159 $248 forward $242 $-1 #
edge $-1 $254 9.6282993076323748 $347 25.032802480003355 $247 $348 forward 7 unknown #
coedge $-1 $349 $350 $160 $250 forward $340 $-1 #
edge $-1 $351 -28.235745269610106 $253 -22.985084993452329 $249 $352 forward 7 unknown #
edge $-1 $254 -7.2992766611102926 $351 -1.0366512331508311e-014 $161 $353 forward 7 unknown #
coedge $-1 $162 $346 $349 $354 forward $242 $-1 #
vertex $-1 $250 $355 #
vertex $-1 $163 $356 #
straight-curve $-1 -26.95885020145024 -43.389640429634753 7.6352850577537588 0 1 0 I I #
coedge $-1 $256 $256 $-1 $357 reversed $166 $-1 #
edge $-1 $358 0 $358 6.2831853071796004 $167 $359 forward 7 unknown #
vertex $-1 $170 $360 #
ellipse-curve $-1 -37.962066753143795 -23.29673606168198 5.0099549196748718 0 -0.71933980857756763 0.69465836192734942 1.5 0 0 1 I I #
coedge $-1 $260 $260 $-1 $361 reversed $173 $-1 #
edge $-1 $362 0 $362 6.2831853071796004 $174 $363 forward 7 unknown #
vertex $-1 $177 $364 #
ellipse-curve $-1 -31.360136822127664 -23.29673606168198 5.0099549196748718 0 -0.71933980857756763 0.69465836192734942 1.5 0 0 1 I I #
face $-1 $-1 $277 $37 $-1 $365 forward single #
loop $-1 $-1 $273 $178 #
plane-surface $-1 42.363353373821219 0 0 -1 0 0 0 0 1 forward_v I I I I #
coedge $-1 $366 $367 $269 $368 forward $179 $-1 #
coedge $-1 $269 $181 $183 $275 reversed $113 $-1 #
coedge $-1 $181 $268 $267 $368 reversed $113 $-1 #
coedge $-1 $369 $184 $181 $271 forward $277 $-1 #
edge $-1 $279 -22.628156152283474 $370 -17.557652583622072 $270 $371 forward 7 unknown #
coedge $-1 $183 $182 $366 $372 reversed $72 $-1 #
coedge $-1 $373 $374 $182 $274 forward $265 $-1 #
edge $-1 $375 -8.1145254142578924 $278 -0.81524875314760936 $273 $376 forward 7 unknown #
edge $-1 $377 1.0366512331508311e-014 $279 7.2992766611102926 $268 $378 forward 7 unknown #
coedge $-1 $184 $369 $373 $379 forward $277 $-1 #
loop $-1 $-1 $270 $264 #
vertex $-1 $274 $380 #
vertex $-1 $185 $381 #
straight-curve $-1 17.330550893817861 -20.761484277351283 7.6352850577537588 -1 0 0 I I #
coedge $-1 $281 $281 $-1 $382 reversed $188 $-1 #
edge $-1 $383 0 $383 6.2831853071796004 $189 $384 forward 7 unknown #
vertex $-1 $192 $385 #
ellipse-curve $-1 31.360136822127664 -23.29673606168198 5.0099549196748718 0 -0.71933980857756763 0.69465836192734942 1.5 0 0 1 I I #
coedge $-1 $285 $285 $-1 $386 reversed $195 $-1 #
edge $-1 $387 0 $387 6.2831853071796004 $196 $388 forward 7 unknown #
vertex $-1 $199 $389 #
ellipse-curve $-1 37.962066753143795 -23.29673606168198 5.0099549196748718 0 -0.71933980857756763 0.69465836192734942 1.5 0 0 1 I I #
face $-1 $-1 $215 $30 $-1 $390 reversed single #
loop $-1 $-1 $305 $200 #
plane-surface $-1 0 25.83198784601268 0 0 -1 0 0 0 -1 forward_v I I I I #
coedge $-1 $391 $303 $306 $392 forward $201 $-1 #
coedge $-1 $309 $203 $204 $297 reversed $127 $-1 #
coedge $-1 $303 $391 $203 $295 reversed $201 $-1 #
edge $-1 $310 -7.6352850577537588 $393 7.6352850577537588 $294 $394 forward 7 unknown #
coedge $-1 $205 $204 $391 $395 forward $81 $-1 #
edge $-1 $301 -42.363353373821219 $393 42.363353373821219 $293 $396 forward 7 unknown #
coedge $-1 $306 $305 $205 $299 reversed $290 $-1 #
edge $-1 $397 -42.363353373821219 $300 42.363353373821219 $298 $398 forward 7 unknown #
vertex $-1 $207 $399 #
vertex $-1 $312 $400 #
straight-curve $-1 42.363353373821219 0 -7.6352850577537588 0 -1 0 I I #
coedge $-1 $292 $294 $208 $304 reversed $201 $-1 #
edge $-1 $307 -25.83198784601268 $310 25.83198784601268 $303 $401 forward 7 unknown #
coedge $-1 $298 $209 $214 $313 forward $290 $-1 #
coedge $-1 $209 $298 $292 $392 reversed $290 $-1 #
vertex $-1 $210 $402 #
straight-curve $-1 0 25.83198784601268 7.6352850577537588 -1 0 0 I I #
coedge $-1 $211 $293 $213 $312 reversed $127 $-1 #
vertex $-1 $304 $403 #
straight-curve $-1 0 -25.83198784601268 7.6352850577537588 1 0 0 I I #
edge $-1 $216 -7.6352850577537588 $301 7.6352850577537588 $213 $404 forward 7 unknown #
edge $-1 $217 -7.6352850577537588 $300 7.6352850577537588 $214 $405 forward 7 unknown #
point $-1 42.363353373821219 -25.83198784601268 7.6352850577537588 #
point $-1 42.363353373821219 25.83198784601268 7.6352850577537588 #
loop $-1 $-1 $319 $219 #
plane-surface $-1 -42.363353373821219 0 0 1 0 0 0 0 -1 forward_v I I I I #
coedge $-1 $223 $222 $325 $406 reversed $85 $-1 #
coedge $-1 $407 $408 $223 $320 forward $316 $-1 #
edge $-1 $322 -34.460019644834006 $409 -24.238078153536922 $319 $410 forward 7 unknown #
coedge $-1 $229 $224 $408 $411 reversed $135 $-1 #
vertex $-1 $225 $412 #
straight-curve $-1 -18.948443908497264 25.83198784601268 0.038902047513733606 -1 0 0 I I #
coedge $-1 $413 $226 $229 $329 forward $220 $-1 #
coedge $-1 $226 $413 $318 $406 forward $220 $-1 #
vertex $-1 $227 $414 #
straight-curve $-1 -33.430422260167838 27.113127670176048 7.6352850577537623 0 1 0 I I #
straight-curve $-1 -33.430422260167838 -8.7379590605375697 38.432718674471829 0 -0.66913059716165679 0.74314483375859142 I I #
edge $-1 $230 33.430422260167838 $415 42.363353373821219 $229 $416 forward 7 unknown #
point $-1 -33.430422260167838 25.83198784601268 7.6352850577537588 #
point $-1 -33.430422260167838 25.83198784601268 0.038902047513737159 #
edge $-1 $417 1 $417 0 $233 $-1 forward 7 unknown #
vertex $-1 $234 $418 #
ellipse-curve $-1 -39.811087341348824 20.705299493869923 2.3003006750435602 0 0.74314483375859142 0.66913059716165679 1 0 0 1 I I #
point $-1 -38.811087341348824 22.412080938901099 3.8370935526337471 #
edge $-1 $419 1 $419 0 $237 $-1 forward 7 unknown #
vertex $-1 $238 $420 #
ellipse-curve $-1 -35.982688292640233 20.705299493869923 2.3003006750435602 0 0.74314483375859142 0.66913059716165679 1 0 0 1 I I #
point $-1 -34.982688292640233 22.412080938901099 3.8370935526337471 #
loop $-1 $-1 $249 $241 #
plane-surface $-1 0 -25.83198784601268 0 0 1 0 0 0 1 forward_v I I I I #
coedge $-1 $343 $244 $421 $422 reversed $157 $-1 #
coedge $-1 $244 $342 $346 $423 reversed $157 $-1 #
edge $-1 $347 0.81524875314760936 $424 8.1145254142578924 $244 $425 forward 7 unknown #
coedge $-1 $246 $245 $350 $426 reversed $99 $-1 #
coedge $-1 $252 $247 $343 $423 forward $242 $-1 #
vertex $-1 $423 $427 #
straight-curve $-1 -17.330550893817865 -20.761484277351283 7.6352850577537588 -1 0 0 I I #
coedge $-1 $421 $249 $252 $354 reversed $340 $-1 #
coedge $-1 $249 $421 $345 $426 forward $340 $-1 #
vertex $-1 $250 $428 #
straight-curve $-1 -26.95885020145024 -25.83198784601268 30.620370051206088 0 0 1 I I #
straight-curve $-1 -26.95885020145024 -25.831987846012687 2.3846247815959742 0 -0.69465836192734942 -0.71933980857756763 I I #
edge $-1 $429 -42.363353373821219 $253 -26.95885020145024 $349 $430 forward 7 unknown #
point $-1 -26.95885020145024 -25.83198784601268 7.6352850577537588 #
point $-1 -26.95885020145024 -20.761484277351279 7.6352850577537588 #
edge $-1 $431 1 $431 0 $256 $-1 forward 7 unknown #
vertex $-1 $257 $432 #
ellipse-curve $-1 -37.962066753143795 -22.101846494707015 3.8560635051009422 0 -0.71933980857756763 0.69465836192734942 1.5 0 0 1 I I #
point $-1 -36.462066753143795 -23.296736061681973 5.0099549196748656 #
edge $-1 $433 1 $433 0 $260 $-1 forward 7 unknown #
vertex $-1 $261 $434 #
ellipse-curve $-1 -31.360136822127664 -22.101846494707015 3.8560635051009422 0 -0.71933980857756763 0.69465836192734942 1.5 0 0 1 I I #
point $-1 -29.860136822127664 -23.296736061681973 5.0099549196748656 #
plane-surface $-1 0 0 7.6352850577537588 0 0 1 1 0 0 forward_v I I I I #
coedge $-1 $435 $267 $272 $372 forward $179 $-1 #
coedge $-1 $267 $435 $369 $436 reversed $179 $-1 #
edge $-1 $370 22.985084993452329 $377 28.235745269610106 $267 $437 forward 7 unknown #
coedge $-1 $276 $270 $367 $436 forward $277 $-1 #
vertex $-1 $436 $438 #
straight-curve $-1 26.958850201450232 -43.389640429634753 7.6352850577537588 0 -1 0 I I #
edge $-1 $377 9.6282993076323713 $375 25.032802480003351 $366 $439 forward 7 unknown #
coedge $-1 $374 $273 $276 $379 reversed $265 $-1 #
coedge $-1 $273 $373 $435 $440 forward $265 $-1 #
vertex $-1 $274 $441 #
straight-curve $-1 42.363353373821219 -20.195164913926448 8.2217259397860616 0 0.69465836192734942 0.71933980857756763 I I #
vertex $-1 $372 $442 #
straight-curve $-1 26.958850201450232 -25.831987846012687 2.3846247815959742 0 0.69465836192734942 0.71933980857756763 I I #
edge $-1 $443 -25.83198784601268 $278 -20.761484277351279 $373 $444 forward 7 unknown #
point $-1 42.363353373821212 -20.761484277351279 7.6352850577537588 #
point $-1 26.958850201450232 -20.761484277351279 7.6352850577537588 #
edge $-1 $445 1 $445 0 $281 $-1 forward 7 unknown #
vertex $-1 $282 $446 #
ellipse-curve $-1 31.360136822127664 -22.101846494707015 3.8560635051009422 0 -0.71933980857756763 0.69465836192734942 1.5 0 0 1 I I #
point $-1 32.860136822127664 -23.296736061681973 5.0099549196748656 #
edge $-1 $447 1 $447 0 $285 $-1 forward 7 unknown #
vertex $-1 $286 $448 #
ellipse-curve $-1 37.962066753143795 -22.101846494707015 3.8560635051009422 0 -0.71933980857756763 0.69465836192734942 1.5 0 0 1 I I #
point $-1 39.462066753143795 -23.296736061681973 5.0099549196748656 #
plane-surface $-1 42.363353373821219 0 0 -1 0 0 0 0 1 forward_v I I I I #
coedge $-1 $294 $292 $296 $395 reversed $201 $-1 #
edge $-1 $307 -7.6352850577537588 $397 7.6352850577537588 $306 $449 forward 7 unknown #
vertex $-1 $395 $450 #
straight-curve $-1 -42.363353373821219 -25.83198784601268 0 0 0 -1 I I #
edge $-1 $393 -25.83198784601268 $397 25.83198784601268 $391 $451 forward 7 unknown #
straight-curve $-1 0 -25.83198784601268 -7.6352850577537588 -1 0 0 I I #
vertex $-1 $299 $452 #
straight-curve $-1 0 25.83198784601268 -7.6352850577537588 1 0 0 I I #
point $-1 42.363353373821219 25.83198784601268 -7.6352850577537588 #
point $-1 42.363353373821219 -25.83198784601268 -7.6352850577537588 #
straight-curve $-1 -42.363353373821219 0 7.6352850577537588 0 -1 0 I I #
point $-1 -42.363353373821219 25.83198784601268 7.6352850577537588 #
point $-1 -42.363353373821219 -25.83198784601268 7.6352850577537588 #
straight-curve $-1 42.363353373821219 -25.83198784601268 0 0 0 -1 I I #
straight-curve $-1 42.363353373821219 25.83198784601268 0 0 0 -1 I I #
edge $-1 $409 -23.414909465323955 $326 -14.481978351670573 $325 $453 forward 7 unknown #
coedge $-1 $408 $319 $413 $454 reversed $316 $-1 #
coedge $-1 $319 $407 $321 $411 forward $316 $-1 #
vertex $-1 $320 $455 #
straight-curve $-1 -42.363353373821219 2.7737343228624729 25.6476876177917 0 -0.66913059716165679 0.74314483375859142 I I #
edge $-1 $415 -7.6352850577537588 $322 -0.038902047513732642 $321 $456 forward 7 unknown #
point $-1 -42.363353373821219 25.83198784601268 0.038902047513732642 #
coedge $-1 $325 $324 $407 $454 forward $220 $-1 #
point $-1 -33.430422260167838 18.992174031789542 7.6352850577537552 #
vertex $-1 $329 $457 #
straight-curve $-1 0 25.83198784601268 7.6352850577537588 -1 0 0 I I #
vertex $-1 $332 $458 #
point $-1 -38.811087341348824 20.705299493869923 2.3003006750435602 #
vertex $-1 $336 $459 #
point $-1 -34.982688292640233 20.705299493869923 2.3003006750435602 #
coedge $-1 $350 $349 $342 $422 forward $340 $-1 #
edge $-1 $429 -7.6352850577537588 $424 -2.3846247815959818 $342 $460 forward 7 unknown #
edge $-1 $347 20.761484277351279 $429 25.83198784601268 $343 $461 forward 7 unknown #
vertex $-1 $344 $462 #
straight-curve $-1 -42.363353373821219 -20.195164913926448 8.2217259397860616 0 -0.69465836192734942 -0.71933980857756763 I I #
edge $-1 $424 -25.032802480003355 $351 -9.6282993076323748 $350 $463 forward 7 unknown #
point $-1 -42.363353373821219 -20.761484277351279 7.6352850577537588 #
point $-1 -26.95885020145024 -25.83198784601268 2.3846247815959818 #
vertex $-1 $423 $464 #
straight-curve $-1 0 -25.83198784601268 7.6352850577537588 1 0 0 I I #
vertex $-1 $357 $465 #
point $-1 -36.462066753143795 -22.101846494707015 3.8560635051009422 #
vertex $-1 $361 $466 #
point $-1 -29.860136822127664 -22.101846494707015 3.8560635051009422 #
coedge $-1 $367 $366 $374 $440 reversed $179 $-1 #
edge $-1 $370 26.958850201450232 $443 42.363353373821219 $367 $467 forward 7 unknown #
straight-curve $-1 26.958850201450232 -25.83198784601268 30.620370051206088 0 0 -1 I I #
point $-1 26.958850201450232 -25.83198784601268 7.6352850577537588 #
straight-curve $-1 17.330550893817861 -25.83198784601268 2.3846247815959818 1 0 0 I I #
edge $-1 $443 -7.6352850577537588 $375 -2.3846247815959818 $374 $468 forward 7 unknown #
point $-1 42.363353373821212 -25.83198784601268 2.3846247815959818 #
point $-1 26.958850201450232 -25.83198784601268 2.3846247815959818 #
vertex $-1 $379 $469 #
straight-curve $-1 42.363353373821219 0 7.6352850577537588 0 1 0 I I #
vertex $-1 $382 $470 #
point $-1 32.860136822127664 -22.101846494707015 3.8560635051009422 #
vertex $-1 $386 $471 #
point $-1 39.462066753143795 -22.101846494707015 3.8560635051009422 #
straight-curve $-1 -42.363353373821219 25.83198784601268 0 0 0 -1 I I #
point $-1 -42.363353373821219 -25.83198784601268 -7.6352850577537588 #
straight-curve $-1 -42.363353373821219 0 -7.6352850577537588 0 1 0 I I #
point $-1 -42.363353373821219 25.83198784601268 -7.6352850577537588 #
straight-curve $-1 -18.948443908497264 18.992174031789542 7.6352850577537588 1 0 0 I I #
edge $-1 $415 -25.83198784601268 $409 -18.992174031789542 $407 $472 forward 7 unknown #
point $-1 -42.363353373821219 18.992174031789542 7.6352850577537552 #
straight-curve $-1 -42.363353373821219 25.83198784601268 0 0 0 -1 I I #
point $-1 -42.363353373821219 25.83198784601268 7.6352850577537588 #
point $-1 -39.811087341348824 19.962154660111331 1.6311700778819032 #
point $-1 -35.982688292640233 19.962154660111331 1.6311700778819032 #
straight-curve $-1 -42.363353373821219 -25.83198784601268 0 0 0 -1 I I #
straight-curve $-1 -42.363353373821219 0 7.6352850577537588 0 -1 0 I I #
point $-1 -42.363353373821219 -25.83198784601268 2.3846247815959818 #
straight-curve $-1 -17.330550893817865 -25.83198784601268 2.3846247815959818 1 0 0 I I #
point $-1 -42.363353373821219 -25.83198784601268 7.6352850577537588 #
point $-1 -37.962066753143795 -21.022836781840663 2.8140759622099187 #
point $-1 -31.360136822127664 -21.022836781840663 2.8140759622099187 #
straight-curve $-1 0 -25.83198784601268 7.6352850577537588 1 0 0 I I #
straight-curve $-1 42.363353373821219 -25.83198784601268 0 0 0 -1 I I #
point $-1 42.363353373821219 -25.83198784601268 7.6352850577537588 #
point $-1 31.360136822127664 -21.022836781840663 2.8140759622099187 #
point $-1 37.962066753143795 -21.022836781840663 2.8140759622099187 #
straight-curve $-1 -42.363353373821219 0 7.6352850577537588 0 -1 0 I I #
End-of-ACIS-data 