500 0 11 0           
7 Unknown 11 ACIS 5.0 NT 24 Thu Mar 25 15:18:59 1999 
-1 9.9999999999999995e-007 1e-010 
body $-1 $11 $-1 $12 #
body $-1 $13 $-1 $14 #
body $-1 $15 $-1 $16 #
body $-1 $17 $-1 $18 #
body $-1 $19 $-1 $20 #
body $-1 $21 $-1 $22 #
body $-1 $23 $-1 $24 #
body $-1 $25 $-1 $26 #
body $-1 $27 $-1 $28 #
body $-1 $29 $-1 $30 #
body $-1 $31 $-1 $32 #
lump $-1 $-1 $33 $0 #
transform $-1 1 0 0 0 1 0 0 0 1 44.928128910184029 26.985808390148776 8.7123468672049889 1 rotate no_reflect no_shear #
lump $-1 $-1 $34 $1 #
transform $-1 1 0 0 0 1 0 0 0 1 44.928128910184029 26.985808390148776 8.7123468672049889 1 rotate no_reflect no_shear #
lump $-1 $-1 $35 $2 #
transform $-1 1 0 0 0 1 0 0 0 1 44.928128910184029 26.985808390148776 8.7123468672049889 1 rotate no_reflect no_shear #
lump $-1 $-1 $36 $3 #
transform $-1 1 0 0 0 1 0 0 0 1 44.928128910184029 26.985808390148776 8.7123468672049889 1 rotate no_reflect no_shear #
lump $-1 $-1 $37 $4 #
transform $-1 1 0 0 0 1 0 0 0 1 44.928128910184029 26.985808390148776 8.7123468672049889 1 rotate no_reflect no_shear #
lump $-1 $-1 $38 $5 #
transform $-1 1 0 0 0 1 0 0 0 1 44.928128910184029 26.985808390148776 8.7123468672049889 1 rotate no_reflect no_shear #
lump $-1 $-1 $39 $6 #
transform $-1 1 0 0 0 1 0 0 0 1 44.928128910184029 26.985808390148776 8.7123468672049889 1 rotate no_reflect no_shear #
lump $-1 $-1 $40 $7 #
transform $-1 1 0 0 0 1 0 0 0 1 44.928128910184029 26.985808390148776 8.7123468672049889 1 rotate no_reflect no_shear #
lump $-1 $-1 $41 $8 #
transform $-1 1 0 0 0 1 0 0 0 1 44.928128910184029 26.985808390148776 8.7123468672049889 1 rotate no_reflect no_shear #
lump $-1 $-1 $42 $9 #
transform $-1 1 0 0 0 1 0 0 0 1 44.928128910184029 26.985808390148776 8.7123468672049889 1 rotate no_reflect no_shear #
lump $-1 $-1 $43 $10 #
transform $-1 1 0 0 0 1 0 0 0 1 44.928128910184029 26.985808390148776 8.7123468672049889 1 rotate no_reflect no_shear #
shell $-1 $-1 $-1 $44 $-1 $11 #
shell $-1 $-1 $-1 $45 $-1 $13 #
shell $-1 $-1 $-1 $46 $-1 $15 #
shell $-1 $-1 $-1 $47 $-1 $17 #
shell $-1 $-1 $-1 $48 $-1 $19 #
shell $-1 $-1 $-1 $49 $-1 $21 #
shell $-1 $-1 $-1 $50 $-1 $23 #
shell $-1 $-1 $-1 $51 $-1 $25 #
shell $-1 $-1 $-1 $52 $-1 $27 #
shell $-1 $-1 $-1 $53 $-1 $29 #
shell $-1 $-1 $-1 $54 $-1 $31 #
face $-1 $55 $56 $33 $-1 $57 forward single #
face $-1 $58 $59 $34 $-1 $60 forward single #
face $-1 $61 $62 $35 $-1 $63 reversed single #
face $-1 $64 $65 $36 $-1 $66 forward single #
face $-1 $67 $68 $37 $-1 $69 forward single #
face $-1 $70 $71 $38 $-1 $72 reversed single #
face $-1 $73 $74 $39 $-1 $75 forward single #
face $-1 $76 $77 $40 $-1 $78 forward single #
face $-1 $79 $80 $41 $-1 $81 reversed single #
face $-1 $82 $83 $42 $-1 $84 forward single #
face $-1 $85 $86 $43 $-1 $87 forward single #
face $-1 $88 $89 $33 $-1 $90 reversed single #
loop $-1 $-1 $91 $44 #
plane-surface $-1 0 0 8.7123468672049889 0 0 1 1 0 0 forward_v I I I I #
face $-1 $92 $93 $34 $-1 $94 reversed single #
loop $-1 $-1 $95 $45 #
plane-surface $-1 -39.789109884653506 0 5.3186897121841898 0 0 1 1 0 0 forward_v I I I I #
face $-1 $96 $97 $35 $-1 $98 reversed single #
loop $-1 $-1 $99 $46 #
plane-surface $-1 -22.637480270776798 30.660628332741183 109.23449111888763 1 0 0 0 -0.54463904215088732 -0.83867056331134215 forward_v I I I I #
face $-1 $100 $101 $36 $-1 $102 forward single #
loop $-1 $103 $104 $47 #
cone-surface $-1 -17.95172273353198 23.047970983735969 5.5505170125163783 0 -0.54463904215088732 -0.83867056331134215 1 0 0 1 I I 0 1 1 forward I I I I #
face $-1 $105 $106 $37 $-1 $107 forward single #
loop $-1 $108 $109 $48 #
cone-surface $-1 -10.923086427664757 23.047970983735969 5.5505170125163783 0 -0.54463904215088732 -0.83867056331134215 1 0 0 1 I I 0 1 1 forward I I I I #
face $-1 $110 $111 $38 $-1 $112 reversed single #
loop $-1 $-1 $113 $49 #
plane-surface $-1 -18.323769181851148 -103.18823747452998 49.685536770137162 -1 0 0 0 -0.84804810408105047 0.52991925155115449 forward_v I I I I #
face $-1 $114 $115 $39 $-1 $116 forward single #
loop $-1 $117 $118 $50 #
cone-surface $-1 -29.985427522759604 -24.39000347994725 5.0656133967687218 0 0.84804810408105047 -0.52991925155115449 1 0 0 1 I I 0 1 1 forward I I I I #
face $-1 $119 $120 $40 $-1 $121 forward single #
loop $-1 $122 $123 $51 #
cone-surface $-1 -22.98843251821453 -24.39000347994725 5.0656133967687218 0 0.84804810408105047 -0.52991925155115449 1 0 0 1 I I 0 1 1 forward I I I I #
face $-1 $124 $125 $41 $-1 $126 reversed single #
loop $-1 $-1 $127 $52 #
plane-surface $-1 36.764968071548111 -26.98580839014879 2.0689758787801509 0 -0.84804810408105047 0.52991925155115449 1 0 0 forward_v I I I I #
face $-1 $128 $129 $42 $-1 $130 forward single #
loop $-1 $131 $132 $53 #
cone-surface $-1 33.266470569275569 -24.39000347994725 5.0656133967687218 0 0.84804810408105047 -0.52991925155115449 1 0 0 1 I I 0 1 1 forward I I I I #
face $-1 $133 $134 $43 $-1 $135 forward single #
loop $-1 $136 $137 $54 #
cone-surface $-1 40.263465573820639 -24.39000347994725 5.0656133967687218 0 0.84804810408105047 -0.52991925155115449 1 0 0 1 I I 0 1 1 forward I I I I #
face $-1 $138 $139 $33 $-1 $140 reversed single #
loop $-1 $-1 $141 $55 #
plane-surface $-1 0 0 -8.7123468672049889 0 0 1 1 0 0 forward_v I I I I #
coedge $-1 $142 $143 $144 $145 forward $56 $-1 #
face $-1 $146 $147 $34 $-1 $148 reversed single #
loop $-1 $-1 $149 $58 #
plane-surface $-1 -39.789109884653506 0 2.3186897121841898 0 0 1 1 0 0 forward_v I I I I #
coedge $-1 $150 $151 $152 $153 forward $59 $-1 #
face $-1 $154 $155 $35 $-1 $156 reversed single #
loop $-1 $-1 $157 $61 #
plane-surface $-1 -14.437404580598365 -18.278597857807256 33.874692755630363 0 0.54463904215088732 0.83867056331134215 1 0 0 forward_v I I I I #
coedge $-1 $158 $159 $160 $161 reversed $62 $-1 #
face $-1 $-1 $162 $36 $-1 $163 forward single #
loop $-1 $164 $165 $64 #
cone-surface $-1 -17.95172273353198 22.09671012061709 4.0857037652374153 0 -0.54463904215088732 -0.83867056331134215 0.5 0 0 1 I I -0.70710678118654746 0.70710678118654746 0.5 forward I I I I #
loop $-1 $-1 $166 $47 #
coedge $-1 $104 $104 $167 $168 reversed $65 $-1 #
face $-1 $-1 $169 $37 $-1 $170 forward single #
loop $-1 $171 $172 $67 #
cone-surface $-1 -10.923086427664757 22.09671012061709 4.0857037652374153 0 -0.54463904215088732 -0.83867056331134215 0.5 0 0 1 I I -0.70710678118654746 0.70710678118654746 0.5 forward I I I I #
loop $-1 $-1 $173 $48 #
coedge $-1 $109 $109 $174 $175 reversed $68 $-1 #
face $-1 $176 $177 $38 $-1 $178 forward single #
loop $-1 $-1 $179 $70 #
plane-surface $-1 -26.486930020487065 -26.98580839014879 2.0689758787801509 0 -0.84804810408105047 0.52991925155115449 1 0 0 forward_v I I I I #
coedge $-1 $180 $181 $182 $183 reversed $71 $-1 #
face $-1 $-1 $184 $39 $-1 $185 forward single #
loop $-1 $186 $187 $73 #
cone-surface $-1 -29.985427522759604 -23.445793910650796 4.4756057947693026 0 0.84804810408105047 -0.52991925155115449 0.5 0 0 1 I I -0.70710678118654813 0.70710678118654691 0.5 forward I I I I #
loop $-1 $-1 $188 $50 #
coedge $-1 $118 $118 $189 $190 reversed $74 $-1 #
face $-1 $-1 $191 $40 $-1 $192 forward single #
loop $-1 $193 $194 $76 #
cone-surface $-1 -22.98843251821453 -23.445793910650796 4.4756057947693026 0 0.84804810408105047 -0.52991925155115449 0.5 0 0 1 I I -0.70710678118654813 0.70710678118654691 0.5 forward I I I I #
loop $-1 $-1 $195 $51 #
coedge $-1 $123 $123 $196 $197 reversed $77 $-1 #
face $-1 $198 $199 $41 $-1 $200 forward single #
loop $-1 $-1 $201 $79 #
plane-surface $-1 28.601807232912194 -103.18823747452998 49.685536770137162 1 0 0 0 0.84804810408105047 -0.52991925155115449 forward_v I I I I #
coedge $-1 $202 $203 $204 $205 reversed $80 $-1 #
face $-1 $-1 $206 $42 $-1 $207 forward single #
loop $-1 $208 $209 $82 #
cone-surface $-1 33.266470569275569 -23.445793910650796 4.4756057947693026 0 0.84804810408105047 -0.52991925155115449 0.5 0 0 1 I I -0.70710678118654813 0.70710678118654691 0.5 forward I I I I #
loop $-1 $-1 $210 $53 #
coedge $-1 $132 $132 $211 $212 reversed $83 $-1 #
face $-1 $-1 $213 $43 $-1 $214 forward single #
loop $-1 $215 $216 $85 #
cone-surface $-1 40.263465573820639 -23.445793910650796 4.4756057947693026 0 0.84804810408105047 -0.52991925155115449 0.5 0 0 1 I I -0.70710678118654813 0.70710678118654691 0.5 forward I I I I #
loop $-1 $-1 $217 $54 #
coedge $-1 $137 $137 $218 $219 reversed $86 $-1 #
face $-1 $220 $221 $33 $-1 $222 reversed single #
loop $-1 $-1 $223 $88 #
plane-surface $-1 0 -26.985808390148776 0 0 1 0 0 0 1 forward_v I I I I #
coedge $-1 $224 $225 $226 $227 forward $89 $-1 #
coedge $-1 $228 $91 $229 $230 forward $56 $-1 #
coedge $-1 $91 $228 $231 $232 forward $56 $-1 #
coedge $-1 $233 $234 $91 $145 reversed $235 $-1 #
edge $-1 $236 -26.985808390148776 $237 26.985808390148776 $144 $238 forward 7 unknown #
face $-1 $239 $240 $34 $-1 $241 reversed single #
loop $-1 $-1 $242 $92 #
plane-surface $-1 -34.650090859122983 0 3.8186897121841898 -1 0 0 0 0 1 forward_v I I I I #
coedge $-1 $243 $244 $242 $245 forward $93 $-1 #
coedge $-1 $246 $95 $247 $248 reversed $59 $-1 #
coedge $-1 $95 $246 $249 $250 reversed $59 $-1 #
coedge $-1 $251 $252 $95 $153 reversed $147 $-1 #
edge $-1 $253 -26.985808390148776 $254 26.985808390148776 $152 $255 forward 7 unknown #
face $-1 $256 $257 $35 $-1 $258 forward single #
loop $-1 $-1 $259 $96 #
plane-surface $-1 -6.2373288904199313 30.660628332741183 109.23449111888763 -1 0 0 0 0.54463904215088732 0.83867056331134215 forward_v I I I I #
coedge $-1 $260 $261 $262 $263 reversed $97 $-1 #
coedge $-1 $159 $99 $264 $265 reversed $62 $-1 #
coedge $-1 $99 $158 $260 $266 reversed $62 $-1 #
coedge $-1 $262 $267 $99 $161 forward $257 $-1 #
edge $-1 $268 -11.655494223778184 $269 -5.1377020950394225 $160 $270 forward 7 unknown #
loop $-1 $-1 $167 $100 #
plane-surface $-1 -14.437404580598365 -18.278597857807256 33.874692755630363 0 0.54463904215088732 0.83867056331134215 1 0 0 forward_v I I I I #
loop $-1 $-1 $271 $64 #
coedge $-1 $165 $165 $166 $272 reversed $101 $-1 #
coedge $-1 $166 $166 $165 $272 forward $103 $-1 #
coedge $-1 $167 $167 $104 $168 forward $162 $-1 #
edge $-1 $273 -4.0660012406842796e-016 $273 6.2831853071796004 $167 $274 forward 7 unknown #
loop $-1 $-1 $174 $105 #
plane-surface $-1 -14.437404580598365 -18.278597857807256 33.874692755630363 0 0.54463904215088732 0.83867056331134215 1 0 0 forward_v I I I I #
loop $-1 $-1 $275 $67 #
coedge $-1 $172 $172 $173 $276 reversed $106 $-1 #
coedge $-1 $173 $173 $172 $276 forward $108 $-1 #
coedge $-1 $174 $174 $109 $175 forward $169 $-1 #
edge $-1 $277 -4.0660012406842796e-016 $277 6.2831853071796004 $174 $278 forward 7 unknown #
face $-1 $279 $280 $38 $-1 $281 forward single #
loop $-1 $-1 $182 $110 #
plane-surface $-1 0 0 8.7123468672049889 0 0 1 1 0 0 forward_v I I I I #
coedge $-1 $282 $283 $284 $285 reversed $111 $-1 #
coedge $-1 $181 $113 $286 $287 reversed $71 $-1 #
coedge $-1 $113 $180 $282 $288 reversed $71 $-1 #
coedge $-1 $284 $289 $113 $183 forward $177 $-1 #
edge $-1 $290 24.608310347116216 $291 28.75954913300739 $182 $292 forward 7 unknown #
loop $-1 $-1 $189 $114 #
plane-surface $-1 -26.486930020487065 -26.98580839014879 2.0689758787801509 0 -0.84804810408105047 0.52991925155115449 1 0 0 forward_v I I I I #
loop $-1 $-1 $293 $73 #
coedge $-1 $187 $187 $188 $294 reversed $115 $-1 #
coedge $-1 $188 $188 $187 $294 forward $117 $-1 #
coedge $-1 $189 $189 $118 $190 forward $184 $-1 #
edge $-1 $295 -1.5747545419071707e-018 $295 6.2831853071796004 $189 $296 forward 7 unknown #
loop $-1 $-1 $196 $119 #
plane-surface $-1 -26.486930020487065 -26.98580839014879 2.0689758787801509 0 -0.84804810408105047 0.52991925155115449 1 0 0 forward_v I I I I #
loop $-1 $-1 $297 $76 #
coedge $-1 $194 $194 $195 $298 reversed $120 $-1 #
coedge $-1 $195 $195 $194 $298 forward $122 $-1 #
coedge $-1 $196 $196 $123 $197 forward $191 $-1 #
edge $-1 $299 -1.5747545419071707e-018 $299 6.2831853071796004 $196 $300 forward 7 unknown #
face $-1 $301 $302 $41 $-1 $303 reversed single #
loop $-1 $-1 $204 $124 #
plane-surface $-1 0 0 8.7123468672049889 0 0 1 1 0 0 forward_v I I I I #
coedge $-1 $304 $305 $306 $307 reversed $125 $-1 #
coedge $-1 $308 $127 $309 $310 reversed $80 $-1 #
coedge $-1 $127 $308 $304 $311 forward $80 $-1 #
coedge $-1 $306 $312 $127 $205 forward $199 $-1 #
edge $-1 $313 -26.545644874409973 $314 -10.219323197138138 $204 $315 forward 7 unknown #
loop $-1 $-1 $211 $128 #
plane-surface $-1 36.764968071548111 -26.98580839014879 2.0689758787801509 0 -0.84804810408105047 0.52991925155115449 1 0 0 forward_v I I I I #
loop $-1 $-1 $316 $82 #
coedge $-1 $209 $209 $210 $317 reversed $129 $-1 #
coedge $-1 $210 $210 $209 $317 forward $131 $-1 #
coedge $-1 $211 $211 $132 $212 forward $206 $-1 #
edge $-1 $318 -1.5747545419071707e-018 $318 6.2831853071796004 $211 $319 forward 7 unknown #
loop $-1 $-1 $218 $133 #
plane-surface $-1 36.764968071548111 -26.98580839014879 2.0689758787801509 0 -0.84804810408105047 0.52991925155115449 1 0 0 forward_v I I I I #
loop $-1 $-1 $320 $85 #
coedge $-1 $216 $216 $217 $321 reversed $134 $-1 #
coedge $-1 $217 $217 $216 $321 forward $136 $-1 #
coedge $-1 $218 $218 $137 $219 forward $213 $-1 #
edge $-1 $322 -1.5747545419071707e-018 $322 6.2831853071796004 $218 $323 forward 7 unknown #
face $-1 $324 $325 $33 $-1 $326 reversed single #
loop $-1 $-1 $327 $138 #
plane-surface $-1 -44.928128910184029 0 0 1 0 0 0 0 -1 forward_v I I I I #
coedge $-1 $328 $231 $329 $330 forward $139 $-1 #
coedge $-1 $331 $141 $328 $332 forward $89 $-1 #
coedge $-1 $141 $331 $333 $334 forward $89 $-1 #
coedge $-1 $234 $233 $141 $227 reversed $235 $-1 #
edge $-1 $335 -26.985808390148776 $336 26.985808390148776 $226 $337 forward 7 unknown #
coedge $-1 $143 $142 $338 $339 forward $56 $-1 #
coedge $-1 $340 $341 $142 $230 reversed $325 $-1 #
edge $-1 $237 -44.928128910184029 $342 44.928128910184029 $229 $343 forward 7 unknown #
coedge $-1 $223 $344 $143 $232 reversed $139 $-1 #
edge $-1 $345 -44.928128910184029 $236 44.928128910184029 $231 $346 forward 7 unknown #
coedge $-1 $226 $144 $344 $347 forward $235 $-1 #
coedge $-1 $144 $226 $340 $348 reversed $235 $-1 #
loop $-1 $-1 $233 $324 #
vertex $-1 $145 $349 #
vertex $-1 $145 $350 #
straight-curve $-1 44.928128910184029 0 8.7123468672049889 0 1 0 I I #
face $-1 $351 $352 $34 $-1 $353 reversed single #
loop $-1 $-1 $354 $146 #
plane-surface $-1 0 -26.985808390148776 0 0 1 0 0 0 1 forward_v I I I I #
coedge $-1 $252 $251 $149 $245 reversed $147 $-1 #
coedge $-1 $355 $149 $354 $356 reversed $93 $-1 #
coedge $-1 $149 $355 $357 $358 reversed $93 $-1 #
edge $-1 $359 -26.985808390148776 $360 26.985808390148776 $242 $361 forward 7 unknown #
coedge $-1 $151 $150 $362 $363 reversed $59 $-1 #
coedge $-1 $364 $365 $150 $248 forward $366 $-1 #
edge $-1 $367 -25.033573967857276 $254 -14.75553591679623 $247 $368 forward 7 unknown #
coedge $-1 $369 $370 $151 $250 forward $240 $-1 #
edge $-1 $253 14.75553591679623 $371 25.033573967857276 $249 $372 forward 7 unknown #
coedge $-1 $242 $152 $370 $373 reversed $147 $-1 #
coedge $-1 $152 $242 $364 $374 reversed $147 $-1 #
vertex $-1 $250 $375 #
vertex $-1 $248 $376 #
straight-curve $-1 -34.650090859122983 0 5.3186897121841898 0 1 0 I I #
face $-1 $-1 $377 $35 $-1 $378 reversed single #
loop $-1 $-1 $160 $154 #
plane-surface $-1 0 0 8.7123468672049889 0 0 1 1 0 0 forward_v I I I I #
coedge $-1 $379 $380 $381 $382 reversed $155 $-1 #
coedge $-1 $383 $157 $159 $266 forward $97 $-1 #
coedge $-1 $157 $383 $379 $384 forward $97 $-1 #
coedge $-1 $381 $160 $157 $263 forward $257 $-1 #
edge $-1 $269 -15.418777980477616 $385 0.9813733998792511 $262 $386 forward 7 unknown #
coedge $-1 $387 $388 $158 $265 forward $377 $-1 #
edge $-1 $389 -50.137602470369472 $268 -45.904898692238831 $264 $390 forward 7 unknown #
edge $-1 $269 46.200040652712467 $389 53.971616780297552 $159 $391 forward 7 unknown #
coedge $-1 $160 $381 $387 $392 forward $257 $-1 #
vertex $-1 $265 $393 #
vertex $-1 $161 $394 #
straight-curve $-1 -22.637480270776798 15.330314166370592 8.7123468672049853 0 -1 0 I I #
coedge $-1 $271 $271 $-1 $395 reversed $164 $-1 #
edge $-1 $396 0 $396 6.2831853071796004 $165 $397 forward 7 unknown #
vertex $-1 $168 $398 #
ellipse-curve $-1 -17.95172273353198 23.726912325779402 6.5959949781396636 0 0.54463904215088732 0.83867056331134215 1 0 0 1 I I #
coedge $-1 $275 $275 $-1 $399 reversed $171 $-1 #
edge $-1 $400 0 $400 6.2831853071796004 $172 $401 forward 7 unknown #
vertex $-1 $175 $402 #
ellipse-curve $-1 -10.923086427664757 23.726912325779402 6.5959949781396636 0 0.54463904215088732 0.83867056331134215 1 0 0 1 I I #
face $-1 $-1 $403 $38 $-1 $404 reversed single #
loop $-1 $-1 $405 $176 #
plane-surface $-1 -34.650090859122983 0 3.8186897121841898 -1 0 0 0 0 1 forward_v I I I I #
coedge $-1 $406 $179 $181 $288 forward $111 $-1 #
coedge $-1 $179 $406 $405 $407 forward $111 $-1 #
coedge $-1 $408 $182 $179 $285 forward $177 $-1 #
edge $-1 $291 5.0803041716076152 $409 21.40662584887945 $284 $410 forward 7 unknown #
coedge $-1 $411 $412 $180 $287 forward $403 $-1 #
edge $-1 $413 -22.773792506288409 $290 -16.130421517863592 $286 $414 forward 7 unknown #
edge $-1 $291 -7.8337195218703197 $413 -2.6737665129848107e-014 $181 $415 forward 7 unknown #
coedge $-1 $182 $408 $411 $416 forward $177 $-1 #
vertex $-1 $183 $417 #
vertex $-1 $183 $418 #
straight-curve $-1 -18.323769181851148 -51.594118737264992 8.7123468672049889 0 1 0 I I #
coedge $-1 $293 $293 $-1 $419 reversed $186 $-1 #
edge $-1 $420 0 $420 6.2831853071796004 $187 $421 forward 7 unknown #
vertex $-1 $190 $422 #
ellipse-curve $-1 -29.985427522759604 -24.910188997203193 5.3906613729925734 0 -0.84804810408105047 0.52991925155115449 1 0 0 1 I I #
coedge $-1 $297 $297 $-1 $423 reversed $193 $-1 #
edge $-1 $424 0 $424 6.2831853071796004 $194 $425 forward 7 unknown #
vertex $-1 $197 $426 #
ellipse-curve $-1 -22.98843251821453 -24.910188997203193 5.3906613729925734 0 -0.84804810408105047 0.52991925155115449 1 0 0 1 I I #
face $-1 $-1 $427 $41 $-1 $428 reversed single #
loop $-1 $-1 $429 $198 #
plane-surface $-1 0 -26.985808390148776 0 0 1 0 0 0 1 forward_v I I I I #
coedge $-1 $305 $201 $203 $311 reversed $125 $-1 #
coedge $-1 $201 $304 $430 $431 reversed $125 $-1 #
coedge $-1 $432 $204 $201 $307 forward $199 $-1 #
edge $-1 $314 -28.75954913300739 $433 -24.608310347116216 $306 $434 forward 7 unknown #
coedge $-1 $203 $202 $429 $435 reversed $80 $-1 #
coedge $-1 $436 $437 $202 $310 forward $427 $-1 #
edge $-1 $438 -6.2728541566107641 $313 1.560865365259529 $309 $439 forward 7 unknown #
edge $-1 $440 2.6737665129848107e-014 $314 7.8337195218703197 $304 $441 forward 7 unknown #
coedge $-1 $204 $432 $436 $442 forward $199 $-1 #
vertex $-1 $310 $443 #
vertex $-1 $205 $444 #
straight-curve $-1 18.382484035774056 -22.834569604257602 8.7123468672049889 -1 0 0 I I #
coedge $-1 $316 $316 $-1 $445 reversed $208 $-1 #
edge $-1 $446 0 $446 6.2831853071796004 $209 $447 forward 7 unknown #
vertex $-1 $212 $448 #
ellipse-curve $-1 33.266470569275569 -24.910188997203193 5.3906613729925734 0 -0.84804810408105047 0.52991925155115449 1 0 0 1 I I #
coedge $-1 $320 $320 $-1 $449 reversed $215 $-1 #
edge $-1 $450 0 $450 6.2831853071796004 $216 $451 forward 7 unknown #
vertex $-1 $219 $452 #
ellipse-curve $-1 40.263465573820639 -24.910188997203193 5.3906613729925734 0 -0.84804810408105047 0.52991925155115449 1 0 0 1 I I #
face $-1 $-1 $235 $33 $-1 $453 reversed single #
loop $-1 $-1 $340 $220 #
plane-surface $-1 0 26.985808390148776 0 0 -1 0 0 0 -1 forward_v I I I I #
coedge $-1 $454 $338 $341 $455 forward $221 $-1 #
coedge $-1 $344 $223 $224 $332 reversed $139 $-1 #
coedge $-1 $338 $454 $223 $330 reversed $221 $-1 #
edge $-1 $345 -8.7123468672049889 $456 8.7123468672049889 $329 $457 forward 7 unknown #
coedge $-1 $225 $224 $454 $458 forward $89 $-1 #
edge $-1 $336 -44.928128910184029 $456 44.928128910184029 $328 $459 forward 7 unknown #
coedge $-1 $341 $340 $225 $334 reversed $325 $-1 #
edge $-1 $460 -44.928128910184029 $335 44.928128910184029 $333 $461 forward 7 unknown #
vertex $-1 $227 $462 #
vertex $-1 $347 $463 #
straight-curve $-1 44.928128910184029 0 -8.7123468672049889 0 -1 0 I I #
coedge $-1 $327 $329 $228 $339 reversed $221 $-1 #
edge $-1 $342 -26.985808390148776 $345 26.985808390148776 $338 $464 forward 7 unknown #
coedge $-1 $333 $229 $234 $348 forward $325 $-1 #
coedge $-1 $229 $333 $327 $455 reversed $325 $-1 #
vertex $-1 $230 $465 #
straight-curve $-1 0 26.985808390148776 8.7123468672049889 -1 0 0 I I #
coedge $-1 $231 $328 $233 $347 reversed $139 $-1 #
vertex $-1 $339 $466 #
straight-curve $-1 0 -26.985808390148776 8.7123468672049889 1 0 0 I I #
edge $-1 $236 -8.7123468672049889 $336 8.7123468672049889 $233 $467 forward 7 unknown #
edge $-1 $237 -8.7123468672049889 $335 8.7123468672049889 $234 $468 forward 7 unknown #
point $-1 44.928128910184029 -26.985808390148776 8.7123468672049889 #
point $-1 44.928128910184029 26.985808390148776 8.7123468672049889 #
face $-1 $-1 $366 $34 $-1 $469 reversed single #
loop $-1 $-1 $470 $239 #
plane-surface $-1 -44.928128910184029 0 0 1 0 0 0 0 -1 forward_v I I I I #
coedge $-1 $370 $369 $243 $356 forward $240 $-1 #
coedge $-1 $244 $243 $470 $471 reversed $93 $-1 #
edge $-1 $472 -25.033573967857276 $360 -14.75553591679623 $354 $473 forward 7 unknown #
coedge $-1 $365 $364 $244 $358 forward $366 $-1 #
edge $-1 $359 14.75553591679623 $474 25.033573967857276 $357 $475 forward 7 unknown #
vertex $-1 $358 $476 #
vertex $-1 $356 $477 #
straight-curve $-1 -34.650090859122983 0 2.3186897121841898 0 -1 0 I I #
coedge $-1 $478 $479 $246 $363 forward $352 $-1 #
edge $-1 $371 -26.985808390148776 $367 26.985808390148776 $362 $480 forward 7 unknown #
coedge $-1 $357 $247 $252 $374 forward $366 $-1 #
coedge $-1 $247 $357 $478 $481 reversed $366 $-1 #
loop $-1 $-1 $357 $351 #
vertex $-1 $481 $482 #
straight-curve $-1 -19.894554942326753 26.985808390148776 5.3186897121841898 1 0 0 I I #
coedge $-1 $354 $249 $479 $483 forward $240 $-1 #
coedge $-1 $249 $354 $251 $373 forward $240 $-1 #
vertex $-1 $483 $484 #
straight-curve $-1 -19.894554942326753 -26.985808390148776 5.3186897121841898 -1 0 0 I I #
edge $-1 $360 0.40934485609209492 $253 3.4093448560920949 $370 $485 forward 7 unknown #
edge $-1 $254 -3.4093448560920949 $359 -0.40934485609209492 $364 $486 forward 7 unknown #
point $-1 -34.650090859122983 -26.985808390148776 5.3186897121841898 #
point $-1 -34.650090859122983 26.985808390148776 5.3186897121841898 #
loop $-1 $-1 $264 $256 #
plane-surface $-1 0 26.985808390148776 0 0 -1 0 0 0 -1 forward_v I I I I #
coedge $-1 $380 $259 $261 $384 reversed $155 $-1 #
coedge $-1 $259 $379 $487 $488 reversed $155 $-1 #
coedge $-1 $267 $262 $259 $382 forward $257 $-1 #
edge $-1 $385 5.1377020950394225 $489 11.655494223778184 $381 $490 forward 7 unknown #
coedge $-1 $261 $260 $388 $491 reversed $97 $-1 #
edge $-1 $492 -53.971616780297552 $385 -46.200040652712467 $379 $493 forward 7 unknown #
vertex $-1 $263 $494 #
straight-curve $-1 -7.2187022902991824 20.468016261410021 8.7123468672049853 1 0 0 I I #
coedge $-1 $487 $264 $267 $392 reversed $377 $-1 #
coedge $-1 $264 $487 $383 $491 forward $377 $-1 #
vertex $-1 $265 $495 #
straight-curve $-1 -22.637480270776798 26.985808390148776 54.617245559443816 0 0 1 I I #
straight-curve $-1 -22.637480270776798 -18.278597857807256 33.874692755630363 0 0.83867056331134215 -0.54463904215088732 I I #
edge $-1 $489 6.2373288904199313 $268 22.637480270776798 $387 $496 forward 7 unknown #
point $-1 -22.637480270776798 26.985808390148776 8.7123468672049889 #
point $-1 -22.637480270776798 20.468016261410014 8.7123468672049889 #
edge $-1 $497 1 $497 0 $271 $-1 forward 7 unknown #
vertex $-1 $272 $498 #
ellipse-curve $-1 -17.95172273353198 22.369029641692535 4.5050390468930868 0 0.54463904215088732 0.83867056331134215 1 0 0 1 I I #
point $-1 -16.95172273353198 23.726912325779406 6.5959949781396698 #
edge $-1 $499 1 $499 0 $275 $-1 forward 7 unknown #
vertex $-1 $276 $500 #
ellipse-curve $-1 -10.923086427664757 22.369029641692535 4.5050390468930868 0 0.54463904215088732 0.83867056331134215 1 0 0 1 I I #
point $-1 -9.9230864276647566 23.726912325779406 6.5959949781396698 #
loop $-1 $-1 $286 $279 #
plane-surface $-1 0 -26.985808390148776 0 0 1 0 0 0 1 forward_v I I I I #
coedge $-1 $501 $502 $283 $407 reversed $280 $-1 #
coedge $-1 $283 $282 $412 $503 reversed $111 $-1 #
edge $-1 $504 2.6737665129848107e-014 $409 7.8337195218703197 $405 $505 forward 7 unknown #
coedge $-1 $289 $284 $502 $506 forward $177 $-1 #
vertex $-1 $506 $507 #
straight-curve $-1 -13.243465010243533 -22.834569604257602 8.7123468672049889 -1 0 0 I I #
coedge $-1 $508 $286 $289 $416 reversed $403 $-1 #
coedge $-1 $286 $508 $406 $503 forward $403 $-1 #
vertex $-1 $287 $509 #
straight-curve $-1 -18.323769181851148 -26.985808390148776 24.842768385068581 0 0 1 I I #
straight-curve $-1 -18.323769181851148 -26.98580839014879 2.0689758787801509 0 -0.52991925155115449 -0.84804810408105047 I I #
edge $-1 $510 -34.650090859122983 $290 -18.323769181851148 $411 $511 forward 7 unknown #
point $-1 -18.323769181851148 -26.985808390148776 8.7123468672049889 #
point $-1 -18.323769181851148 -22.834569604257602 8.7123468672049889 #
edge $-1 $512 1 $512 0 $293 $-1 forward 7 unknown #
vertex $-1 $294 $513 #
ellipse-curve $-1 -29.985427522759604 -23.869817962691322 4.7405654205448791 0 -0.84804810408105047 0.52991925155115449 1 0 0 1 I I #
point $-1 -28.985427522759604 -24.910188997203178 5.3906613729925645 #
edge $-1 $514 1 $514 0 $297 $-1 forward 7 unknown #
vertex $-1 $298 $515 #
ellipse-curve $-1 -22.98843251821453 -23.869817962691322 4.7405654205448791 0 -0.84804810408105047 0.52991925155115449 1 0 0 1 I I #
point $-1 -21.98843251821453 -24.910188997203178 5.3906613729925645 #
loop $-1 $-1 $309 $301 #
plane-surface $-1 44.928128910184029 0 0 -1 0 0 0 0 1 forward_v I I I I #
coedge $-1 $516 $430 $308 $435 forward $302 $-1 #
coedge $-1 $429 $517 $305 $431 forward $302 $-1 #
edge $-1 $433 16.130421517863592 $440 22.773792506288409 $430 $518 forward 7 unknown #
coedge $-1 $312 $306 $517 $519 forward $199 $-1 #
vertex $-1 $519 $520 #
straight-curve $-1 28.601807232912194 -51.594118737264992 8.7123468672049889 0 -1 0 I I #
edge $-1 $440 10.219323197138138 $438 26.545644874409973 $429 $521 forward 7 unknown #
coedge $-1 $437 $309 $312 $442 reversed $427 $-1 #
coedge $-1 $309 $436 $516 $522 forward $427 $-1 #
vertex $-1 $435 $523 #
straight-curve $-1 44.928128910184029 -23.66170221038805 7.3886579534708678 0 0.52991925155115449 0.84804810408105047 I I #
vertex $-1 $435 $524 #
straight-curve $-1 28.601807232912194 -26.98580839014879 2.0689758787801509 0 0.52991925155115449 0.84804810408105047 I I #
edge $-1 $525 -26.985808390148776 $313 -22.834569604257602 $436 $526 forward 7 unknown #
point $-1 44.928128910184029 -22.834569604257602 8.7123468672049889 #
point $-1 28.601807232912194 -22.834569604257602 8.7123468672049889 #
edge $-1 $527 1 $527 0 $316 $-1 forward 7 unknown #
vertex $-1 $317 $528 #
ellipse-curve $-1 33.266470569275569 -23.869817962691322 4.7405654205448791 0 -0.84804810408105047 0.52991925155115449 1 0 0 1 I I #
point $-1 34.266470569275569 -24.910188997203178 5.3906613729925645 #
edge $-1 $529 1 $529 0 $320 $-1 forward 7 unknown #
vertex $-1 $321 $530 #
ellipse-curve $-1 40.263465573820639 -23.869817962691322 4.7405654205448791 0 -0.84804810408105047 0.52991925155115449 1 0 0 1 I I #
point $-1 41.263465573820639 -24.910188997203178 5.3906613729925645 #
plane-surface $-1 44.928128910184029 0 0 -1 0 0 0 0 1 forward_v I I I I #
coedge $-1 $329 $327 $331 $458 reversed $221 $-1 #
edge $-1 $342 -8.7123468672049889 $460 8.7123468672049889 $341 $531 forward 7 unknown #
vertex $-1 $458 $532 #
straight-curve $-1 -44.928128910184029 -26.985808390148776 0 0 0 -1 I I #
edge $-1 $456 -26.985808390148776 $460 26.985808390148776 $454 $533 forward 7 unknown #
straight-curve $-1 0 -26.985808390148776 -8.7123468672049889 -1 0 0 I I #
vertex $-1 $334 $534 #
straight-curve $-1 0 26.985808390148776 -8.7123468672049889 1 0 0 I I #
point $-1 44.928128910184029 26.985808390148776 -8.7123468672049889 #
point $-1 44.928128910184029 -26.985808390148776 -8.7123468672049889 #
straight-curve $-1 -44.928128910184029 0 8.7123468672049889 0 -1 0 I I #
point $-1 -44.928128910184029 26.985808390148776 8.7123468672049889 #
point $-1 -44.928128910184029 -26.985808390148776 8.7123468672049889 #
straight-curve $-1 44.928128910184029 -26.985808390148776 0 0 0 -1 I I #
straight-curve $-1 44.928128910184029 26.985808390148776 0 0 0 -1 I I #
plane-surface $-1 0 26.985808390148776 0 0 -1 0 0 0 -1 forward_v I I I I #
coedge $-1 $479 $478 $355 $471 forward $352 $-1 #
edge $-1 $474 -26.985808390148776 $472 26.985808390148776 $470 $535 forward 7 unknown #
vertex $-1 $356 $536 #
straight-curve $-1 -19.894554942326753 -26.985808390148776 2.3186897121841898 1 0 0 I I #
vertex $-1 $358 $537 #
straight-curve $-1 -19.894554942326753 26.985808390148776 2.3186897121841898 -1 0 0 I I #
point $-1 -34.650090859122983 26.985808390148776 2.3186897121841898 #
point $-1 -34.650090859122983 -26.985808390148776 2.3186897121841898 #
coedge $-1 $470 $362 $365 $481 forward $352 $-1 #
coedge $-1 $362 $470 $369 $483 reversed $352 $-1 #
straight-curve $-1 -44.928128910184029 0 5.3186897121841898 0 1 0 I I #
edge $-1 $367 -5.3186897121841898 $474 -2.3186897121841898 $365 $538 forward 7 unknown #
point $-1 -44.928128910184029 26.985808390148776 5.3186897121841898 #
edge $-1 $371 -5.3186897121841898 $472 -2.3186897121841898 $479 $539 forward 7 unknown #
point $-1 -44.928128910184029 -26.985808390148776 5.3186897121841898 #
straight-curve $-1 -34.650090859122983 -26.985808390148776 1.9093448560920949 0 0 1 I I #
straight-curve $-1 -34.650090859122983 26.985808390148776 1.9093448560920949 0 0 -1 I I #
coedge $-1 $388 $387 $380 $488 forward $377 $-1 #
edge $-1 $489 45.904898692238831 $492 50.137602470369472 $487 $540 forward 7 unknown #
vertex $-1 $392 $541 #
straight-curve $-1 -6.2373288904199313 15.330314166370592 8.7123468672049853 0 1 0 I I #
edge $-1 $492 -0.9813733998792511 $389 15.418777980477616 $388 $542 forward 7 unknown #
vertex $-1 $491 $543 #
straight-curve $-1 -6.2373288904199313 -18.278597857807256 33.874692755630363 0 -0.83867056331134215 0.54463904215088732 I I #
point $-1 -6.2373288904199313 20.468016261410014 8.7123468672049889 #
point $-1 -22.637480270776798 26.985808390148776 4.4796430890743473 #
straight-curve $-1 0 26.985808390148776 8.7123468672049889 -1 0 0 I I #
vertex $-1 $395 $544 #
point $-1 -16.95172273353198 22.369029641692535 4.5050390468930868 #
vertex $-1 $399 $545 #
point $-1 -9.9230864276647566 22.369029641692535 4.5050390468930868 #
coedge $-1 $502 $405 $508 $546 reversed $280 $-1 #
coedge $-1 $405 $501 $408 $506 reversed $280 $-1 #
edge $-1 $504 -21.40662584887945 $413 -5.0803041716076152 $412 $547 forward 7 unknown #
vertex $-1 $546 $548 #
straight-curve $-1 -34.650090859122983 -26.98580839014879 2.0689758787801509 0 0.52991925155115449 0.84804810408105047 I I #
edge $-1 $409 -28.75954913300739 $510 -24.608310347116216 $408 $549 forward 7 unknown #
point $-1 -34.650090859122983 -22.834569604257602 8.7123468672049889 #
coedge $-1 $412 $411 $501 $546 forward $403 $-1 #
point $-1 -18.323769181851148 -26.985808390148776 2.0689758787801735 #
vertex $-1 $416 $550 #
straight-curve $-1 0 -26.985808390148776 8.7123468672049889 1 0 0 I I #
vertex $-1 $419 $551 #
point $-1 -28.985427522759604 -23.869817962691322 4.7405654205448791 #
vertex $-1 $423 $552 #
point $-1 -21.98843251821453 -23.869817962691322 4.7405654205448791 #
coedge $-1 $517 $429 $437 $522 reversed $302 $-1 #
coedge $-1 $430 $516 $432 $519 reversed $302 $-1 #
straight-curve $-1 28.601807232912194 -26.985808390148776 24.842768385068581 0 0 -1 I I #
edge $-1 $433 28.601807232912194 $525 44.928128910184029 $517 $553 forward 7 unknown #
point $-1 28.601807232912194 -26.985808390148776 8.7123468672049889 #
straight-curve $-1 18.382484035774056 -26.985808390148776 2.068975878780174 1 0 0 I I #
edge $-1 $525 -8.7123468672049889 $438 -2.0689758787801735 $437 $554 forward 7 unknown #
point $-1 44.928128910184029 -26.985808390148776 2.0689758787801735 #
point $-1 28.601807232912194 -26.985808390148776 2.0689758787801735 #
vertex $-1 $442 $555 #
straight-curve $-1 44.928128910184029 0 8.7123468672049889 0 1 0 I I #
vertex $-1 $445 $556 #
point $-1 34.266470569275569 -23.869817962691322 4.7405654205448791 #
vertex $-1 $449 $557 #
point $-1 41.263465573820639 -23.869817962691322 4.7405654205448791 #
straight-curve $-1 -44.928128910184029 26.985808390148776 0 0 0 -1 I I #
point $-1 -44.928128910184029 -26.985808390148776 -8.7123468672049889 #
straight-curve $-1 -44.928128910184029 0 -8.7123468672049889 0 1 0 I I #
point $-1 -44.928128910184029 26.985808390148776 -8.7123468672049889 #
straight-curve $-1 -44.928128910184029 0 2.3186897121841898 0 -1 0 I I #
point $-1 -44.928128910184029 -26.985808390148776 2.3186897121841898 #
point $-1 -44.928128910184029 26.985808390148776 2.3186897121841898 #
straight-curve $-1 -44.928128910184029 26.985808390148776 0 0 0 -1 I I #
straight-curve $-1 -44.928128910184029 -26.985808390148776 0 0 0 -1 I I #
straight-curve $-1 -6.2373288904199313 26.985808390148776 54.617245559443816 0 0 -1 I I #
point $-1 -6.2373288904199313 26.985808390148776 8.7123468672049889 #
straight-curve $-1 -7.2187022902991824 26.985808390148772 4.4796430890743508 -1 0 0 I I #
point $-1 -6.2373288904199313 26.985808390148776 4.4796430890743473 #
point $-1 -17.95172273353198 21.824390599541644 3.6663684835817443 #
point $-1 -10.923086427664757 21.824390599541644 3.6663684835817443 #
edge $-1 $510 16.130421517863592 $504 22.773792506288409 $508 $558 forward 7 unknown #
straight-curve $-1 -13.243465010243533 -26.985808390148776 2.068975878780174 1 0 0 I I #
point $-1 -34.650090859122983 -26.985808390148776 2.0689758787801735 #
straight-curve $-1 -34.650090859122983 -51.594118737264992 8.7123468672049889 0 -1 0 I I #
point $-1 -34.650090859122983 -26.985808390148776 8.7123468672049889 #
point $-1 -29.985427522759604 -23.02176985861027 4.2106461689937262 #
point $-1 -22.98843251821453 -23.02176985861027 4.2106461689937262 #
straight-curve $-1 0 -26.985808390148776 8.7123468672049889 1 0 0 I I #
straight-curve $-1 44.928128910184029 -26.985808390148776 0 0 0 -1 I I #
point $-1 44.928128910184029 -26.985808390148776 8.7123468672049889 #
point $-1 33.266470569275569 -23.02176985861027 4.2106461689937262 #
point $-1 40.263465573820639 -23.02176985861027 4.2106461689937262 #
straight-curve $-1 -34.650090859122983 -26.985808390148776 24.842768385068581 0 0 -1 I I #
End-of-ACIS-data 