500 0 16 0           
7 Unknown 11 ACIS 5.0 NT 24 Thu Mar 25 18:46:46 1999 
-1 9.9999999999999995e-007 1e-010 
body $-1 $16 $-1 $17 #
body $-1 $18 $-1 $19 #
body $-1 $20 $-1 $21 #
body $-1 $22 $-1 $23 #
body $-1 $24 $-1 $25 #
body $-1 $26 $-1 $27 #
body $-1 $28 $-1 $29 #
body $-1 $30 $-1 $31 #
body $-1 $32 $-1 $33 #
body $-1 $34 $-1 $35 #
body $-1 $36 $-1 $37 #
body $-1 $38 $-1 $39 #
body $-1 $40 $-1 $41 #
body $-1 $42 $-1 $43 #
body $-1 $44 $-1 $45 #
body $-1 $46 $-1 $47 #
lump $-1 $-1 $48 $0 #
transform $-1 1 0 0 0 1 0 0 0 1 72.642597735526607 41.118986961255331 13.199938964447544 1 rotate no_reflect no_shear #
lump $-1 $-1 $49 $1 #
transform $-1 1 0 0 0 1 0 0 0 1 72.642597735526607 41.118986961255331 13.199938964447544 1 rotate no_reflect no_shear #
lump $-1 $-1 $50 $2 #
transform $-1 1 0 0 0 1 0 0 0 1 72.642597735526607 41.118986961255331 13.199938964447544 1 rotate no_reflect no_shear #
lump $-1 $-1 $51 $3 #
transform $-1 1 0 0 0 1 0 0 0 1 72.642597735526607 41.118986961255331 13.199938964447544 1 rotate no_reflect no_shear #
lump $-1 $-1 $52 $4 #
transform $-1 1 0 0 0 1 0 0 0 1 72.642597735526607 41.118986961255331 13.199938964447544 1 rotate no_reflect no_shear #
lump $-1 $-1 $53 $5 #
transform $-1 1 0 0 0 1 0 0 0 1 72.642597735526607 41.118986961255331 13.199938964447544 1 rotate no_reflect no_shear #
lump $-1 $-1 $54 $6 #
transform $-1 1 0 0 0 1 0 0 0 1 72.642597735526607 41.118986961255331 13.199938964447544 1 rotate no_reflect no_shear #
lump $-1 $-1 $55 $7 #
transform $-1 1 0 0 0 1 0 0 0 1 72.642597735526607 41.118986961255331 13.199938964447544 1 rotate no_reflect no_shear #
lump $-1 $-1 $56 $8 #
transform $-1 1 0 0 0 1 0 0 0 1 72.642597735526607 41.118986961255331 13.199938964447544 1 rotate no_reflect no_shear #
lump $-1 $-1 $57 $9 #
transform $-1 1 0 0 0 1 0 0 0 1 72.642597735526607 41.118986961255331 13.199938964447544 1 rotate no_reflect no_shear #
lump $-1 $-1 $58 $10 #
transform $-1 1 0 0 0 1 0 0 0 1 72.642597735526607 41.118986961255331 13.199938964447544 1 rotate no_reflect no_shear #
lump $-1 $-1 $59 $11 #
transform $-1 1 0 0 0 1 0 0 0 1 72.642597735526607 41.118986961255331 13.199938964447544 1 rotate no_reflect no_shear #
lump $-1 $-1 $60 $12 #
transform $-1 1 0 0 0 1 0 0 0 1 72.642597735526607 41.118986961255331 13.199938964447544 1 rotate no_reflect no_shear #
lump $-1 $-1 $61 $13 #
transform $-1 1 0 0 0 1 0 0 0 1 72.642597735526607 41.118986961255331 13.199938964447544 1 rotate no_reflect no_shear #
lump $-1 $-1 $62 $14 #
transform $-1 1 0 0 0 1 0 0 0 1 72.642597735526607 41.118986961255331 13.199938964447544 1 rotate no_reflect no_shear #
lump $-1 $-1 $63 $15 #
transform $-1 1 0 0 0 1 0 0 0 1 72.642597735526607 41.118986961255331 13.199938964447544 1 rotate no_reflect no_shear #
shell $-1 $-1 $-1 $64 $-1 $16 #
shell $-1 $-1 $-1 $65 $-1 $18 #
shell $-1 $-1 $-1 $66 $-1 $20 #
shell $-1 $-1 $-1 $67 $-1 $22 #
shell $-1 $-1 $-1 $68 $-1 $24 #
shell $-1 $-1 $-1 $69 $-1 $26 #
shell $-1 $-1 $-1 $70 $-1 $28 #
shell $-1 $-1 $-1 $71 $-1 $30 #
shell $-1 $-1 $-1 $72 $-1 $32 #
shell $-1 $-1 $-1 $73 $-1 $34 #
shell $-1 $-1 $-1 $74 $-1 $36 #
shell $-1 $-1 $-1 $75 $-1 $38 #
shell $-1 $-1 $-1 $76 $-1 $40 #
shell $-1 $-1 $-1 $77 $-1 $42 #
shell $-1 $-1 $-1 $78 $-1 $44 #
shell $-1 $-1 $-1 $79 $-1 $46 #
face $-1 $80 $81 $48 $-1 $82 forward single #
face $-1 $83 $84 $49 $-1 $85 forward single #
face $-1 $86 $87 $50 $-1 $88 reversed single #
face $-1 $89 $90 $51 $-1 $91 forward single #
face $-1 $92 $93 $52 $-1 $94 forward single #
face $-1 $95 $96 $53 $-1 $97 forward single #
face $-1 $98 $99 $54 $-1 $100 reversed single #
face $-1 $101 $102 $55 $-1 $103 forward single #
face $-1 $104 $105 $56 $-1 $106 forward single #
face $-1 $107 $108 $57 $-1 $109 forward single #
face $-1 $110 $111 $58 $-1 $112 reversed single #
face $-1 $113 $114 $59 $-1 $115 forward single #
face $-1 $116 $117 $60 $-1 $118 forward single #
face $-1 $119 $120 $61 $-1 $121 reversed single #
face $-1 $122 $123 $62 $-1 $124 forward single #
face $-1 $125 $126 $63 $-1 $127 forward single #
face $-1 $128 $129 $48 $-1 $130 reversed single #
loop $-1 $-1 $131 $64 #
plane-surface $-1 0 0 13.199938964447544 0 0 1 1 0 0 forward_v I I I I #
face $-1 $132 $133 $49 $-1 $134 reversed single #
loop $-1 $-1 $135 $65 #
plane-surface $-1 -72.642597735526607 0 0 1 0 0 0 0 -1 forward_v I I I I #
face $-1 $136 $137 $50 $-1 $138 reversed single #
loop $-1 $-1 $139 $66 #
plane-surface $-1 4.357973928456417 -134.50651162876193 117.47489519444622 -1 0 0 0 -0.64278761758704617 0.76604443648966558 forward_v I I I I #
face $-1 $140 $141 $51 $-1 $142 forward single #
loop $-1 $143 $144 $67 #
cone-surface $-1 -20.501155172153453 -35.048774059325019 7.4409033108476557 0 0.64278761758704617 -0.76604443648966558 1.5 0 0 1 I I 0 1 1.5 forward I I I I #
face $-1 $145 $146 $52 $-1 $147 forward single #
loop $-1 $148 $149 $68 #
cone-surface $-1 -11.178981759424751 -35.048774059325019 7.4409033108476557 0 0.64278761758704617 -0.76604443648966558 1.5 0 0 1 I I 0 1 1.5 forward I I I I #
face $-1 $150 $151 $53 $-1 $152 forward single #
loop $-1 $153 $154 $69 #
cone-surface $-1 -1.8568083466960559 -35.048774059325019 7.4409033108476557 0 0.64278761758704617 -0.76604443648966558 1.5 0 0 1 I I 0 1 1.5 forward I I I I #
face $-1 $155 $156 $54 $-1 $157 reversed single #
loop $-1 $-1 $158 $70 #
plane-surface $-1 57.105642047645432 -41.118986961255317 6.1799794995323509 0 -0.64278761758704617 0.76604443648966558 1 0 0 forward_v I I I I #
face $-1 $159 $160 $55 $-1 $161 forward single #
loop $-1 $162 $163 $71 #
cone-surface $-1 47.783468634916744 -35.048774059325019 7.4409033108476557 0 0.64278761758704617 -0.76604443648966558 1.5 0 0 1 I I 0 1 1.5 forward I I I I #
face $-1 $164 $165 $56 $-1 $166 forward single #
loop $-1 $167 $168 $72 #
cone-surface $-1 57.105642047645432 -35.048774059325019 7.4409033108476557 0 0.64278761758704617 -0.76604443648966558 1.5 0 0 1 I I 0 1 1.5 forward I I I I #
face $-1 $169 $170 $57 $-1 $171 forward single #
loop $-1 $172 $173 $73 #
cone-surface $-1 66.427815460374148 -35.048774059325019 7.4409033108476557 0 0.64278761758704617 -0.76604443648966558 1.5 0 0 1 I I 0 1 1.5 forward I I I I #
face $-1 $174 $175 $58 $-1 $176 reversed single #
loop $-1 $-1 $177 $74 #
plane-surface $-1 -29.795284374490237 74.368866180723387 171.41968777259763 1 0 0 0 -0.6560590369687036 -0.75470957328743171 forward_v I I I I #
face $-1 $178 $179 $59 $-1 $180 forward single #
loop $-1 $181 $182 $75 #
cone-surface $-1 -24.514508358487319 36.968445786360491 9.2953096328425975 0 -0.6560590369687036 -0.75470957328743171 1 0 0 1 I I 0 1 1 forward I I I I #
face $-1 $183 $184 $60 $-1 $185 forward single #
loop $-1 $186 $187 $76 #
cone-surface $-1 -16.59334433448295 36.968445786360491 9.2953096328425975 0 -0.6560590369687036 -0.75470957328743171 1 0 0 1 I I 0 1 1 forward I I I I #
face $-1 $188 $189 $61 $-1 $190 reversed single #
loop $-1 $-1 $191 $77 #
plane-surface $-1 38.489339432579946 74.368866180723387 171.41968777259763 1 0 0 0 -0.6560590369687036 -0.75470957328743171 forward_v I I I I #
face $-1 $192 $193 $62 $-1 $194 forward single #
loop $-1 $195 $196 $78 #
cone-surface $-1 43.770115448582871 36.968445786360491 9.2953096328425975 0 -0.6560590369687036 -0.75470957328743171 1 0 0 1 I I 0 1 1 forward I I I I #
face $-1 $197 $198 $63 $-1 $199 forward single #
loop $-1 $200 $201 $79 #
cone-surface $-1 51.69127947258724 36.968445786360491 9.2953096328425975 0 -0.6560590369687036 -0.75470957328743171 1 0 0 1 I I 0 1 1 forward I I I I #
face $-1 $202 $203 $48 $-1 $204 reversed single #
loop $-1 $-1 $205 $80 #
plane-surface $-1 0 0 -13.199938964447544 0 0 1 1 0 0 forward_v I I I I #
coedge $-1 $206 $207 $208 $209 forward $81 $-1 #
face $-1 $210 $211 $49 $-1 $212 forward single #
loop $-1 $-1 $213 $83 #
plane-surface $-1 0 41.118986961255331 0 0 -1 0 0 0 -1 forward_v I I I I #
coedge $-1 $214 $215 $216 $217 forward $84 $-1 #
face $-1 $218 $219 $50 $-1 $220 reversed single #
loop $-1 $-1 $221 $86 #
plane-surface $-1 -11.178981759424751 -41.118986961255317 6.1799794995323509 0 -0.64278761758704617 0.76604443648966558 1 0 0 forward_v I I I I #
coedge $-1 $222 $223 $224 $225 reversed $87 $-1 #
face $-1 $-1 $226 $51 $-1 $227 forward single #
loop $-1 $228 $229 $89 #
cone-surface $-1 -20.501155172153453 -32.679501312680202 4.6173140623381101 0 0.64278761758704617 -0.76604443648966558 0.75 0 0 1 I I -0.70710678118654757 0.70710678118654757 0.75 forward I I I I #
loop $-1 $-1 $230 $67 #
coedge $-1 $144 $144 $231 $232 reversed $90 $-1 #
face $-1 $-1 $233 $52 $-1 $234 forward single #
loop $-1 $235 $236 $92 #
cone-surface $-1 -11.178981759424751 -32.679501312680202 4.6173140623381101 0 0.64278761758704617 -0.76604443648966558 0.75 0 0 1 I I -0.70710678118654757 0.70710678118654757 0.75 forward I I I I #
loop $-1 $-1 $237 $68 #
coedge $-1 $149 $149 $238 $239 reversed $93 $-1 #
face $-1 $-1 $240 $53 $-1 $241 forward single #
loop $-1 $242 $243 $95 #
cone-surface $-1 -1.8568083466960559 -32.679501312680202 4.6173140623381101 0 0.64278761758704617 -0.76604443648966558 0.75 0 0 1 I I -0.70710678118654757 0.70710678118654757 0.75 forward I I I I #
loop $-1 $-1 $244 $69 #
coedge $-1 $154 $154 $245 $246 reversed $96 $-1 #
face $-1 $247 $248 $54 $-1 $249 reversed single #
loop $-1 $-1 $250 $98 #
plane-surface $-1 41.568686359764264 -134.50651162876193 117.47489519444622 1 0 0 0 0.64278761758704617 -0.76604443648966558 forward_v I I I I #
coedge $-1 $251 $252 $253 $254 reversed $99 $-1 #
face $-1 $-1 $255 $55 $-1 $256 forward single #
loop $-1 $257 $258 $101 #
cone-surface $-1 47.783468634916744 -32.679501312680202 4.6173140623381101 0 0.64278761758704617 -0.76604443648966558 0.75 0 0 1 I I -0.70710678118654757 0.70710678118654757 0.75 forward I I I I #
loop $-1 $-1 $259 $71 #
coedge $-1 $163 $163 $260 $261 reversed $102 $-1 #
face $-1 $-1 $262 $56 $-1 $263 forward single #
loop $-1 $264 $265 $104 #
cone-surface $-1 57.105642047645432 -32.679501312680202 4.6173140623381101 0 0.64278761758704617 -0.76604443648966558 0.75 0 0 1 I I -0.70710678118654757 0.70710678118654757 0.75 forward I I I I #
loop $-1 $-1 $266 $72 #
coedge $-1 $168 $168 $267 $268 reversed $105 $-1 #
face $-1 $-1 $269 $57 $-1 $270 forward single #
loop $-1 $271 $272 $107 #
cone-surface $-1 66.427815460374148 -32.679501312680202 4.6173140623381101 0 0.64278761758704617 -0.76604443648966558 0.75 0 0 1 I I -0.70710678118654757 0.70710678118654757 0.75 forward I I I I #
loop $-1 $-1 $273 $73 #
coedge $-1 $173 $173 $274 $275 reversed $108 $-1 #
face $-1 $276 $277 $58 $-1 $278 reversed single #
loop $-1 $-1 $279 $110 #
plane-surface $-1 -20.553926346485135 -20.946799245825645 61.771559893657951 0 0.6560590369687036 0.75470957328743171 1 0 0 forward_v I I I I #
coedge $-1 $280 $281 $282 $283 reversed $111 $-1 #
face $-1 $-1 $284 $59 $-1 $285 forward single #
loop $-1 $286 $287 $113 #
cone-surface $-1 -24.514508358487319 35.585139690756705 7.7039980369185876 0 -0.6560590369687036 -0.75470957328743171 0.5 0 0 1 I I -0.70710678118654746 0.70710678118654746 0.5 forward I I I I #
loop $-1 $-1 $288 $75 #
coedge $-1 $182 $182 $289 $290 reversed $114 $-1 #
face $-1 $-1 $291 $60 $-1 $292 forward single #
loop $-1 $293 $294 $116 #
cone-surface $-1 -16.59334433448295 35.585139690756705 7.7039980369185876 0 -0.6560590369687036 -0.75470957328743171 0.5 0 0 1 I I -0.70710678118654746 0.70710678118654746 0.5 forward I I I I #
loop $-1 $-1 $295 $76 #
coedge $-1 $187 $187 $296 $297 reversed $117 $-1 #
face $-1 $298 $299 $61 $-1 $300 reversed single #
loop $-1 $-1 $301 $119 #
plane-surface $-1 47.730697460585048 -20.946799245825645 61.771559893657951 0 0.6560590369687036 0.75470957328743171 1 0 0 forward_v I I I I #
coedge $-1 $302 $303 $304 $305 reversed $120 $-1 #
face $-1 $-1 $306 $62 $-1 $307 forward single #
loop $-1 $308 $309 $122 #
cone-surface $-1 43.770115448582871 35.585139690756705 7.7039980369185876 0 -0.6560590369687036 -0.75470957328743171 0.5 0 0 1 I I -0.70710678118654746 0.70710678118654746 0.5 forward I I I I #
loop $-1 $-1 $310 $78 #
coedge $-1 $196 $196 $311 $312 reversed $123 $-1 #
face $-1 $-1 $313 $63 $-1 $314 forward single #
loop $-1 $315 $316 $125 #
cone-surface $-1 51.69127947258724 35.585139690756705 7.7039980369185876 0 -0.6560590369687036 -0.75470957328743171 0.5 0 0 1 I I -0.70710678118654746 0.70710678118654746 0.5 forward I I I I #
loop $-1 $-1 $317 $79 #
coedge $-1 $201 $201 $318 $319 reversed $126 $-1 #
face $-1 $320 $321 $48 $-1 $322 reversed single #
loop $-1 $-1 $323 $128 #
plane-surface $-1 0 -41.118986961255331 0 0 1 0 0 0 1 forward_v I I I I #
coedge $-1 $324 $325 $326 $327 forward $129 $-1 #
coedge $-1 $328 $131 $329 $330 forward $81 $-1 #
coedge $-1 $131 $328 $331 $332 forward $81 $-1 #
coedge $-1 $333 $334 $131 $209 reversed $335 $-1 #
edge $-1 $336 -41.118986961255331 $337 41.118986961255331 $208 $338 forward 7 unknown #
face $-1 $339 $340 $49 $-1 $341 reversed single #
loop $-1 $-1 $216 $132 #
plane-surface $-1 -77.000571663983024 0 -0.46325892263832413 0 0 1 1 0 0 forward_v I I I I #
coedge $-1 $342 $343 $215 $344 forward $133 $-1 #
coedge $-1 $345 $135 $346 $347 reversed $84 $-1 #
coedge $-1 $135 $345 $213 $344 reversed $84 $-1 #
coedge $-1 $348 $349 $135 $217 reversed $211 $-1 #
edge $-1 $350 -41.118986961255331 $351 41.118986961255331 $216 $352 forward 7 unknown #
face $-1 $353 $354 $50 $-1 $355 reversed single #
loop $-1 $-1 $356 $136 #
plane-surface $-1 -26.715937447305919 -134.50651162876193 117.47489519444622 1 0 0 0 0.64278761758704617 -0.76604443648966558 forward_v I I I I #
coedge $-1 $357 $358 $359 $360 reversed $137 $-1 #
coedge $-1 $223 $139 $361 $362 reversed $87 $-1 #
coedge $-1 $139 $222 $357 $363 reversed $87 $-1 #
coedge $-1 $359 $364 $139 $225 forward $365 $-1 #
edge $-1 $366 26.134268853125633 $367 34.500330590077226 $224 $368 forward 7 unknown #
loop $-1 $-1 $231 $140 #
plane-surface $-1 -11.178981759424751 -41.118986961255317 6.1799794995323509 0 -0.64278761758704617 0.76604443648966558 1 0 0 forward_v I I I I #
loop $-1 $-1 $369 $89 #
coedge $-1 $229 $229 $230 $370 reversed $141 $-1 #
coedge $-1 $230 $230 $229 $370 forward $143 $-1 #
coedge $-1 $231 $231 $144 $232 forward $226 $-1 #
edge $-1 $371 -4.0650971020036389e-016 $371 6.2831853071796004 $231 $372 forward 7 unknown #
loop $-1 $-1 $238 $145 #
plane-surface $-1 -11.178981759424751 -41.118986961255317 6.1799794995323509 0 -0.64278761758704617 0.76604443648966558 1 0 0 forward_v I I I I #
loop $-1 $-1 $373 $92 #
coedge $-1 $236 $236 $237 $374 reversed $146 $-1 #
coedge $-1 $237 $237 $236 $374 forward $148 $-1 #
coedge $-1 $238 $238 $149 $239 forward $233 $-1 #
edge $-1 $375 -4.0650971020036389e-016 $375 6.2831853071796004 $238 $376 forward 7 unknown #
loop $-1 $-1 $245 $150 #
plane-surface $-1 -11.178981759424751 -41.118986961255317 6.1799794995323509 0 -0.64278761758704617 0.76604443648966558 1 0 0 forward_v I I I I #
loop $-1 $-1 $377 $95 #
coedge $-1 $243 $243 $244 $378 reversed $151 $-1 #
coedge $-1 $244 $244 $243 $378 forward $153 $-1 #
coedge $-1 $245 $245 $154 $246 forward $240 $-1 #
edge $-1 $379 -4.0650971020036389e-016 $379 6.2831853071796004 $245 $380 forward 7 unknown #
face $-1 $381 $382 $54 $-1 $383 forward single #
loop $-1 $-1 $384 $155 #
plane-surface $-1 0 -41.118986961255331 0 0 1 0 0 0 1 forward_v I I I I #
coedge $-1 $385 $386 $387 $388 reversed $156 $-1 #
coedge $-1 $389 $158 $390 $391 reversed $99 $-1 #
coedge $-1 $158 $389 $385 $392 forward $99 $-1 #
coedge $-1 $387 $393 $158 $254 forward $382 $-1 #
edge $-1 $394 -44.089776711703891 $395 -13.015865335941548 $253 $396 forward 7 unknown #
loop $-1 $-1 $260 $159 #
plane-surface $-1 57.105642047645432 -41.118986961255317 6.1799794995323509 0 -0.64278761758704617 0.76604443648966558 1 0 0 forward_v I I I I #
loop $-1 $-1 $397 $101 #
coedge $-1 $258 $258 $259 $398 reversed $160 $-1 #
coedge $-1 $259 $259 $258 $398 forward $162 $-1 #
coedge $-1 $260 $260 $163 $261 forward $255 $-1 #
edge $-1 $399 -4.0650971020036389e-016 $399 6.2831853071796004 $260 $400 forward 7 unknown #
loop $-1 $-1 $267 $164 #
plane-surface $-1 57.105642047645432 -41.118986961255317 6.1799794995323509 0 -0.64278761758704617 0.76604443648966558 1 0 0 forward_v I I I I #
loop $-1 $-1 $401 $104 #
coedge $-1 $265 $265 $266 $402 reversed $165 $-1 #
coedge $-1 $266 $266 $265 $402 forward $167 $-1 #
coedge $-1 $267 $267 $168 $268 forward $262 $-1 #
edge $-1 $403 -4.0650971020036389e-016 $403 6.2831853071796004 $267 $404 forward 7 unknown #
loop $-1 $-1 $274 $169 #
plane-surface $-1 57.105642047645432 -41.118986961255317 6.1799794995323509 0 -0.64278761758704617 0.76604443648966558 1 0 0 forward_v I I I I #
loop $-1 $-1 $405 $107 #
coedge $-1 $272 $272 $273 $406 reversed $170 $-1 #
coedge $-1 $273 $273 $272 $406 forward $172 $-1 #
coedge $-1 $274 $274 $173 $275 forward $269 $-1 #
edge $-1 $407 -4.0650971020036389e-016 $407 6.2831853071796004 $274 $408 forward 7 unknown #
face $-1 $409 $410 $58 $-1 $411 forward single #
loop $-1 $-1 $412 $174 #
plane-surface $-1 -11.312568318480032 74.368866180723387 171.41968777259763 -1 0 0 0 0.6560590369687036 0.75470957328743171 forward_v I I I I #
coedge $-1 $413 $414 $415 $416 reversed $175 $-1 #
coedge $-1 $281 $177 $417 $418 reversed $111 $-1 #
coedge $-1 $177 $280 $413 $419 reversed $111 $-1 #
coedge $-1 $415 $420 $177 $283 forward $410 $-1 #
edge $-1 $421 -3.9345538708936374 $422 2.2559753246571788 $282 $423 forward 7 unknown #
loop $-1 $-1 $289 $178 #
plane-surface $-1 -20.553926346485135 -20.946799245825645 61.771559893657951 0 0.6560590369687036 0.75470957328743171 1 0 0 forward_v I I I I #
loop $-1 $-1 $424 $113 #
coedge $-1 $287 $287 $288 $425 reversed $179 $-1 #
coedge $-1 $288 $288 $287 $425 forward $181 $-1 #
coedge $-1 $289 $289 $182 $290 forward $284 $-1 #
edge $-1 $426 3.0317441343404988e-015 $426 6.2831853071796031 $289 $427 forward 7 unknown #
loop $-1 $-1 $296 $183 #
plane-surface $-1 -20.553926346485135 -20.946799245825645 61.771559893657951 0 0.6560590369687036 0.75470957328743171 1 0 0 forward_v I I I I #
loop $-1 $-1 $428 $116 #
coedge $-1 $294 $294 $295 $429 reversed $184 $-1 #
coedge $-1 $295 $295 $294 $429 forward $186 $-1 #
coedge $-1 $296 $296 $187 $297 forward $291 $-1 #
edge $-1 $430 3.0317441343404988e-015 $430 6.2831853071796031 $296 $431 forward 7 unknown #
face $-1 $432 $433 $61 $-1 $434 forward single #
loop $-1 $-1 $435 $188 #
plane-surface $-1 56.972055488590151 74.368866180723387 171.41968777259763 -1 0 0 0 0.6560590369687036 0.75470957328743171 forward_v I I I I #
coedge $-1 $436 $437 $438 $439 reversed $189 $-1 #
coedge $-1 $303 $191 $440 $441 reversed $120 $-1 #
coedge $-1 $191 $302 $436 $442 reversed $120 $-1 #
coedge $-1 $438 $443 $191 $305 forward $433 $-1 #
edge $-1 $444 -3.9345538708936374 $445 2.2559753246571788 $304 $446 forward 7 unknown #
loop $-1 $-1 $311 $192 #
plane-surface $-1 47.730697460585048 -20.946799245825645 61.771559893657951 0 0.6560590369687036 0.75470957328743171 1 0 0 forward_v I I I I #
loop $-1 $-1 $447 $122 #
coedge $-1 $309 $309 $310 $448 reversed $193 $-1 #
coedge $-1 $310 $310 $309 $448 forward $195 $-1 #
coedge $-1 $311 $311 $196 $312 forward $306 $-1 #
edge $-1 $449 3.0317441343404988e-015 $449 6.2831853071796031 $311 $450 forward 7 unknown #
loop $-1 $-1 $318 $197 #
plane-surface $-1 47.730697460585048 -20.946799245825645 61.771559893657951 0 0.6560590369687036 0.75470957328743171 1 0 0 forward_v I I I I #
loop $-1 $-1 $451 $125 #
coedge $-1 $316 $316 $317 $452 reversed $198 $-1 #
coedge $-1 $317 $317 $316 $452 forward $200 $-1 #
coedge $-1 $318 $318 $201 $319 forward $313 $-1 #
edge $-1 $453 3.0317441343404988e-015 $453 6.2831853071796031 $318 $454 forward 7 unknown #
face $-1 $455 $456 $48 $-1 $457 reversed single #
loop $-1 $-1 $458 $202 #
plane-surface $-1 -72.642597735526607 0 0 1 0 0 0 0 -1 forward_v I I I I #
coedge $-1 $459 $331 $458 $460 forward $203 $-1 #
coedge $-1 $461 $205 $459 $462 forward $129 $-1 #
coedge $-1 $205 $461 $463 $464 forward $129 $-1 #
coedge $-1 $334 $333 $205 $327 reversed $335 $-1 #
edge $-1 $465 -41.118986961255331 $466 41.118986961255331 $326 $467 forward 7 unknown #
coedge $-1 $207 $206 $468 $469 forward $81 $-1 #
coedge $-1 $470 $471 $206 $330 reversed $456 $-1 #
edge $-1 $337 -72.642597735526607 $472 72.642597735526607 $329 $473 forward 7 unknown #
coedge $-1 $323 $474 $207 $332 reversed $203 $-1 #
edge $-1 $475 -72.642597735526607 $336 72.642597735526607 $331 $476 forward 7 unknown #
coedge $-1 $326 $208 $474 $477 forward $335 $-1 #
coedge $-1 $208 $326 $470 $478 reversed $335 $-1 #
loop $-1 $-1 $333 $455 #
vertex $-1 $209 $479 #
vertex $-1 $209 $480 #
straight-curve $-1 72.642597735526607 0 13.199938964447544 0 1 0 I I #
face $-1 $481 $482 $49 $-1 $483 reversed single #
loop $-1 $-1 $484 $210 #
plane-surface $-1 -77.000571663983024 0 -6.66453521985542 0 0 1 1 0 0 forward_v I I I I #
coedge $-1 $485 $213 $486 $487 reversed $133 $-1 #
coedge $-1 $213 $485 $348 $488 reversed $133 $-1 #
edge $-1 $350 0.46325892263832413 $489 6.66453521985542 $213 $490 forward 7 unknown #
coedge $-1 $215 $214 $484 $491 forward $84 $-1 #
coedge $-1 $492 $493 $214 $347 forward $494 $-1 #
edge $-1 $495 -6.66453521985542 $351 -0.46325892263832413 $346 $496 forward 7 unknown #
coedge $-1 $497 $216 $343 $488 forward $211 $-1 #
coedge $-1 $216 $497 $492 $498 forward $211 $-1 #
vertex $-1 $344 $499 #
vertex $-1 $498 $500 #
straight-curve $-1 -72.642597735526607 0 -0.46325892263832413 0 -1 0 I I #
face $-1 $-1 $365 $50 $-1 $501 forward single #
loop $-1 $-1 $502 $218 #
plane-surface $-1 0 -41.118986961255331 0 0 1 0 0 0 1 forward_v I I I I #
coedge $-1 $503 $504 $505 $506 reversed $219 $-1 #
coedge $-1 $507 $221 $223 $363 forward $137 $-1 #
coedge $-1 $221 $507 $503 $508 forward $137 $-1 #
coedge $-1 $505 $224 $221 $360 forward $365 $-1 #
edge $-1 $367 -9.9474648081687924 $509 21.126446567593543 $359 $510 forward 7 unknown #
coedge $-1 $511 $512 $222 $362 forward $354 $-1 #
edge $-1 $513 -52.557468097690773 $366 -45.53750863277557 $361 $514 forward 7 unknown #
edge $-1 $367 -10.921118068931296 $513 1.8307977367429951e-014 $223 $515 forward 7 unknown #
coedge $-1 $224 $505 $511 $516 forward $365 $-1 #
loop $-1 $-1 $505 $353 #
vertex $-1 $362 $517 #
vertex $-1 $225 $518 #
straight-curve $-1 4.357973928456417 -67.253255814380964 13.19993896444754 0 1 0 I I #
coedge $-1 $369 $369 $-1 $519 reversed $228 $-1 #
edge $-1 $520 0 $520 6.2831853071796004 $229 $521 forward 7 unknown #
vertex $-1 $232 $522 #
ellipse-curve $-1 -20.501155172153453 -36.935956092779534 9.6899592319899384 0 -0.64278761758704617 0.76604443648966558 1.5 0 0 1 I I #
coedge $-1 $373 $373 $-1 $523 reversed $235 $-1 #
edge $-1 $524 0 $524 6.2831853071796004 $236 $525 forward 7 unknown #
vertex $-1 $239 $526 #
ellipse-curve $-1 -11.178981759424751 -36.935956092779534 9.6899592319899384 0 -0.64278761758704617 0.76604443648966558 1.5 0 0 1 I I #
coedge $-1 $377 $377 $-1 $527 reversed $242 $-1 #
edge $-1 $528 0 $528 6.2831853071796004 $243 $529 forward 7 unknown #
vertex $-1 $246 $530 #
ellipse-curve $-1 -1.8568083466960559 -36.935956092779534 9.6899592319899384 0 -0.64278761758704617 0.76604443648966558 1.5 0 0 1 I I #
face $-1 $-1 $531 $54 $-1 $532 reversed single #
loop $-1 $-1 $387 $247 #
plane-surface $-1 0 0 13.199938964447544 0 0 1 1 0 0 forward_v I I I I #
coedge $-1 $533 $534 $386 $535 forward $248 $-1 #
coedge $-1 $386 $250 $252 $392 reversed $156 $-1 #
coedge $-1 $250 $385 $384 $535 reversed $156 $-1 #
coedge $-1 $536 $253 $250 $388 forward $382 $-1 #
edge $-1 $395 -34.500330590077226 $537 -26.134268853125633 $387 $538 forward 7 unknown #
coedge $-1 $252 $251 $533 $539 reversed $99 $-1 #
coedge $-1 $540 $541 $251 $391 forward $531 $-1 #
edge $-1 $542 -13.763278448259793 $394 -2.8421603793284786 $390 $543 forward 7 unknown #
edge $-1 $544 -1.8307977367429951e-014 $395 10.921118068931296 $385 $545 forward 7 unknown #
coedge $-1 $253 $536 $540 $546 forward $382 $-1 #
vertex $-1 $391 $547 #
vertex $-1 $254 $548 #
straight-curve $-1 28.552821023822716 -32.752925224303738 13.199938964447544 -1 0 0 I I #
coedge $-1 $397 $397 $-1 $549 reversed $257 $-1 #
edge $-1 $550 0 $550 6.2831853071796004 $258 $551 forward 7 unknown #
vertex $-1 $261 $552 #
ellipse-curve $-1 47.783468634916744 -36.935956092779534 9.6899592319899384 0 -0.64278761758704617 0.76604443648966558 1.5 0 0 1 I I #
coedge $-1 $401 $401 $-1 $553 reversed $264 $-1 #
edge $-1 $554 0 $554 6.2831853071796004 $265 $555 forward 7 unknown #
vertex $-1 $268 $556 #
ellipse-curve $-1 57.105642047645432 -36.935956092779534 9.6899592319899384 0 -0.64278761758704617 0.76604443648966558 1.5 0 0 1 I I #
coedge $-1 $405 $405 $-1 $557 reversed $271 $-1 #
edge $-1 $558 0 $558 6.2831853071796004 $272 $559 forward 7 unknown #
vertex $-1 $275 $560 #
ellipse-curve $-1 66.427815460374148 -36.935956092779534 9.6899592319899384 0 -0.64278761758704617 0.76604443648966558 1.5 0 0 1 I I #
face $-1 $-1 $561 $58 $-1 $562 reversed single #
loop $-1 $-1 $282 $276 #
plane-surface $-1 0 0 13.199938964447544 0 0 1 1 0 0 forward_v I I I I #
coedge $-1 $563 $564 $565 $566 reversed $277 $-1 #
coedge $-1 $567 $279 $281 $419 forward $175 $-1 #
coedge $-1 $279 $567 $563 $568 forward $175 $-1 #
coedge $-1 $565 $282 $279 $416 forward $410 $-1 #
edge $-1 $422 -19.518321201247669 $569 -1.0356051452374651 $415 $570 forward 7 unknown #
coedge $-1 $571 $572 $280 $418 forward $561 $-1 #
edge $-1 $573 -77.891249966500595 $421 -72.509904921851273 $417 $574 forward 7 unknown #
edge $-1 $422 74.035442227324211 $573 82.237973922510704 $281 $575 forward 7 unknown #
coedge $-1 $282 $565 $571 $576 forward $410 $-1 #
vertex $-1 $283 $577 #
vertex $-1 $283 $578 #
straight-curve $-1 -29.795284374490237 37.184433090361694 13.19993896444754 0 -1 0 I I #
coedge $-1 $424 $424 $-1 $579 reversed $286 $-1 #
edge $-1 $580 0 $580 6.2831853071796004 $287 $581 forward 7 unknown #
vertex $-1 $290 $582 #
ellipse-curve $-1 -24.514508358487319 38.023722363479919 10.509266442122888 0 0.6560590369687036 0.75470957328743171 1 0 0 1 I I #
coedge $-1 $428 $428 $-1 $583 reversed $293 $-1 #
edge $-1 $584 0 $584 6.2831853071796004 $294 $585 forward 7 unknown #
vertex $-1 $297 $586 #
ellipse-curve $-1 -16.59334433448295 38.023722363479919 10.509266442122888 0 0.6560590369687036 0.75470957328743171 1 0 0 1 I I #
face $-1 $-1 $587 $61 $-1 $588 reversed single #
loop $-1 $-1 $304 $298 #
plane-surface $-1 0 0 13.199938964447544 0 0 1 1 0 0 forward_v I I I I #
coedge $-1 $589 $590 $591 $592 reversed $299 $-1 #
coedge $-1 $593 $301 $303 $442 forward $189 $-1 #
coedge $-1 $301 $593 $589 $594 forward $189 $-1 #
coedge $-1 $591 $304 $301 $439 forward $433 $-1 #
edge $-1 $445 14.623990702287422 $595 33.106706758297626 $438 $596 forward 7 unknown #
coedge $-1 $597 $598 $302 $441 forward $587 $-1 #
edge $-1 $599 -77.891249966500595 $444 -72.509904921851273 $440 $600 forward 7 unknown #
edge $-1 $445 74.035442227324211 $599 82.237973922510704 $303 $601 forward 7 unknown #
coedge $-1 $304 $591 $597 $602 forward $433 $-1 #
vertex $-1 $305 $603 #
vertex $-1 $305 $604 #
straight-curve $-1 38.489339432579946 37.184433090361694 13.19993896444754 0 -1 0 I I #
coedge $-1 $447 $447 $-1 $605 reversed $308 $-1 #
edge $-1 $606 0 $606 6.2831853071796004 $309 $607 forward 7 unknown #
vertex $-1 $312 $608 #
ellipse-curve $-1 43.770115448582871 38.023722363479919 10.509266442122888 0 0.6560590369687036 0.75470957328743171 1 0 0 1 I I #
coedge $-1 $451 $451 $-1 $609 reversed $315 $-1 #
edge $-1 $610 0 $610 6.2831853071796004 $316 $611 forward 7 unknown #
vertex $-1 $319 $612 #
ellipse-curve $-1 51.69127947258724 38.023722363479919 10.509266442122888 0 0.6560590369687036 0.75470957328743171 1 0 0 1 I I #
face $-1 $-1 $335 $48 $-1 $613 reversed single #
loop $-1 $-1 $470 $320 #
plane-surface $-1 0 41.118986961255331 0 0 -1 0 0 0 -1 forward_v I I I I #
coedge $-1 $468 $614 $323 $460 reversed $321 $-1 #
coedge $-1 $474 $323 $324 $462 reversed $203 $-1 #
edge $-1 $475 -13.199938964447544 $615 13.199938964447544 $458 $616 forward 7 unknown #
coedge $-1 $325 $324 $614 $617 forward $129 $-1 #
edge $-1 $466 -72.642597735526607 $615 72.642597735526607 $459 $618 forward 7 unknown #
coedge $-1 $471 $470 $325 $464 reversed $456 $-1 #
edge $-1 $619 -72.642597735526607 $465 72.642597735526607 $463 $620 forward 7 unknown #
vertex $-1 $327 $621 #
vertex $-1 $477 $622 #
straight-curve $-1 72.642597735526607 0 -13.199938964447544 0 -1 0 I I #
coedge $-1 $623 $458 $328 $469 reversed $321 $-1 #
edge $-1 $472 -41.118986961255331 $475 41.118986961255331 $468 $624 forward 7 unknown #
coedge $-1 $463 $329 $334 $478 forward $456 $-1 #
coedge $-1 $329 $463 $623 $625 reversed $456 $-1 #
vertex $-1 $330 $626 #
straight-curve $-1 0 41.118986961255331 13.199938964447544 -1 0 0 I I #
coedge $-1 $331 $459 $333 $477 reversed $203 $-1 #
vertex $-1 $469 $627 #
straight-curve $-1 0 -41.118986961255331 13.199938964447544 1 0 0 I I #
edge $-1 $336 -13.199938964447544 $466 13.199938964447544 $333 $628 forward 7 unknown #
edge $-1 $337 -13.199938964447544 $465 13.199938964447544 $334 $629 forward 7 unknown #
point $-1 72.642597735526607 -41.118986961255331 13.199938964447544 #
point $-1 72.642597735526607 41.118986961255331 13.199938964447544 #
face $-1 $-1 $494 $49 $-1 $630 reversed single #
loop $-1 $-1 $631 $339 #
plane-surface $-1 -81.358545592439441 0 -3.5638970712468723 1 0 0 0 0 -1 forward_v I I I I #
coedge $-1 $632 $486 $345 $491 reversed $340 $-1 #
coedge $-1 $343 $342 $631 $633 reversed $133 $-1 #
coedge $-1 $484 $634 $342 $487 forward $340 $-1 #
edge $-1 $635 -4.357973928456417 $489 4.357973928456417 $342 $636 forward 7 unknown #
edge $-1 $350 -4.357973928456417 $637 4.357973928456417 $343 $638 forward 7 unknown #
vertex $-1 $344 $639 #
straight-curve $-1 -72.642597735526607 41.118986961255331 0 0 0 -1 I I #
edge $-1 $495 -41.118986961255331 $489 41.118986961255331 $484 $640 forward 7 unknown #
coedge $-1 $641 $346 $349 $498 reversed $494 $-1 #
coedge $-1 $346 $641 $632 $642 reversed $494 $-1 #
loop $-1 $-1 $346 $481 #
vertex $-1 $347 $643 #
straight-curve $-1 -72.642597735526607 -41.118986961255331 0 0 0 1 I I #
coedge $-1 $349 $348 $644 $645 forward $211 $-1 #
edge $-1 $646 -4.357973928456417 $351 4.357973928456417 $492 $647 forward 7 unknown #
point $-1 -72.642597735526607 41.118986961255331 -0.46325892263832413 #
point $-1 -72.642597735526607 -41.118986961255331 -0.46325892263832413 #
plane-surface $-1 0 0 13.199938964447544 0 0 1 1 0 0 forward_v I I I I #
coedge $-1 $512 $511 $504 $648 forward $354 $-1 #
coedge $-1 $504 $356 $358 $508 reversed $219 $-1 #
coedge $-1 $356 $503 $502 $648 reversed $219 $-1 #
coedge $-1 $364 $359 $356 $506 forward $365 $-1 #
edge $-1 $509 -34.500330590077226 $649 -26.134268853125633 $505 $650 forward 7 unknown #
coedge $-1 $358 $357 $512 $651 reversed $137 $-1 #
edge $-1 $652 -1.8307977367429951e-014 $509 10.921118068931296 $503 $653 forward 7 unknown #
vertex $-1 $360 $654 #
straight-curve $-1 -5.5894908797123755 -32.752925224303738 13.199938964447544 -1 0 0 I I #
coedge $-1 $502 $361 $364 $516 reversed $354 $-1 #
coedge $-1 $361 $502 $507 $651 forward $354 $-1 #
vertex $-1 $362 $655 #
straight-curve $-1 4.357973928456417 -41.118986961255331 58.73744759722311 0 0 1 I I #
straight-curve $-1 4.357973928456417 -41.118986961255317 6.1799794995323509 0 -0.76604443648966558 -0.64278761758704617 I I #
edge $-1 $649 -26.715937447305919 $366 4.357973928456417 $511 $656 forward 7 unknown #
point $-1 4.357973928456417 -41.118986961255331 13.199938964447544 #
point $-1 4.357973928456417 -32.752925224303738 13.199938964447544 #
edge $-1 $657 1 $657 0 $369 $-1 forward 7 unknown #
vertex $-1 $370 $658 #
ellipse-curve $-1 -20.501155172153453 -33.161592025870483 5.1918473897053596 0 -0.64278761758704617 0.76604443648966558 1.5 0 0 1 I I #
point $-1 -19.001155172153453 -36.935956092779548 9.6899592319899543 #
edge $-1 $659 1 $659 0 $373 $-1 forward 7 unknown #
vertex $-1 $374 $660 #
ellipse-curve $-1 -11.178981759424751 -33.161592025870483 5.1918473897053596 0 -0.64278761758704617 0.76604443648966558 1.5 0 0 1 I I #
point $-1 -9.6789817594247509 -36.935956092779548 9.6899592319899543 #
edge $-1 $661 1 $661 0 $377 $-1 forward 7 unknown #
vertex $-1 $378 $662 #
ellipse-curve $-1 -1.8568083466960559 -33.161592025870483 5.1918473897053596 0 -0.64278761758704617 0.76604443648966558 1.5 0 0 1 I I #
point $-1 -0.35680834669605588 -36.935956092779548 9.6899592319899543 #
loop $-1 $-1 $390 $381 #
plane-surface $-1 72.642597735526607 0 0 -1 0 0 0 0 1 forward_v I I I I #
coedge $-1 $663 $384 $389 $539 forward $248 $-1 #
coedge $-1 $384 $663 $536 $664 reversed $248 $-1 #
edge $-1 $537 45.53750863277557 $544 52.557468097690773 $384 $665 forward 7 unknown #
coedge $-1 $393 $387 $534 $664 forward $382 $-1 #
vertex $-1 $664 $666 #
straight-curve $-1 41.568686359764264 -67.253255814380964 13.19993896444754 0 -1 0 I I #
edge $-1 $544 13.015865335941548 $542 44.089776711703891 $533 $667 forward 7 unknown #
coedge $-1 $541 $390 $393 $546 reversed $531 $-1 #
coedge $-1 $390 $540 $663 $668 forward $531 $-1 #
vertex $-1 $539 $669 #
straight-curve $-1 72.642597735526607 -30.575704078107798 15.02684446347639 0 0.76604443648966558 0.64278761758704617 I I #
vertex $-1 $539 $670 #
straight-curve $-1 41.568686359764264 -41.118986961255317 6.1799794995323509 0 0.76604443648966558 0.64278761758704617 I I #
edge $-1 $671 -41.118986961255331 $394 -32.752925224303738 $540 $672 forward 7 unknown #
point $-1 72.642597735526607 -32.752925224303738 13.199938964447544 #
point $-1 41.568686359764264 -32.752925224303738 13.199938964447544 #
edge $-1 $673 1 $673 0 $397 $-1 forward 7 unknown #
vertex $-1 $398 $674 #
ellipse-curve $-1 47.783468634916744 -33.161592025870483 5.1918473897053596 0 -0.64278761758704617 0.76604443648966558 1.5 0 0 1 I I #
point $-1 49.283468634916744 -36.935956092779548 9.6899592319899543 #
edge $-1 $675 1 $675 0 $401 $-1 forward 7 unknown #
vertex $-1 $402 $676 #
ellipse-curve $-1 57.105642047645432 -33.161592025870483 5.1918473897053596 0 -0.64278761758704617 0.76604443648966558 1.5 0 0 1 I I #
point $-1 58.605642047645432 -36.935956092779548 9.6899592319899543 #
edge $-1 $677 1 $677 0 $405 $-1 forward 7 unknown #
vertex $-1 $406 $678 #
ellipse-curve $-1 66.427815460374148 -33.161592025870483 5.1918473897053596 0 -0.64278761758704617 0.76604443648966558 1.5 0 0 1 I I #
point $-1 67.927815460374148 -36.935956092779548 9.6899592319899543 #
loop $-1 $-1 $417 $409 #
plane-surface $-1 0 41.118986961255331 0 0 -1 0 0 0 -1 forward_v I I I I #
coedge $-1 $564 $412 $414 $568 reversed $277 $-1 #
coedge $-1 $412 $563 $679 $680 reversed $277 $-1 #
coedge $-1 $420 $415 $412 $566 forward $410 $-1 #
edge $-1 $569 -2.2559753246571788 $681 3.9345538708936374 $565 $682 forward 7 unknown #
coedge $-1 $414 $413 $572 $683 reversed $175 $-1 #
edge $-1 $684 -82.237973922510704 $569 -74.035442227324211 $563 $685 forward 7 unknown #
vertex $-1 $416 $686 #
straight-curve $-1 -10.276963173242567 34.928457765704493 13.199938964447554 1 0 0 I I #
coedge $-1 $679 $417 $420 $576 reversed $561 $-1 #
coedge $-1 $417 $679 $567 $683 forward $561 $-1 #
vertex $-1 $418 $687 #
straight-curve $-1 -29.795284374490237 41.118986961255331 85.709843886298813 0 0 1 I I #
straight-curve $-1 -29.795284374490237 -20.946799245825645 61.771559893657951 0 0.75470957328743171 -0.6560590369687036 I I #
edge $-1 $681 11.312568318480032 $421 29.795284374490237 $571 $688 forward 7 unknown #
point $-1 -29.795284374490237 41.118986961255331 13.199938964447544 #
point $-1 -29.795284374490237 34.928457765704515 13.19993896444754 #
edge $-1 $689 1 $689 0 $424 $-1 forward 7 unknown #
vertex $-1 $425 $690 #
ellipse-curve $-1 -24.514508358487319 35.913169209241055 8.0813528235623036 0 0.6560590369687036 0.75470957328743171 1 0 0 1 I I #
point $-1 -23.514508358487319 38.023722363479926 10.509266442122891 #
edge $-1 $691 1 $691 0 $428 $-1 forward 7 unknown #
vertex $-1 $429 $692 #
ellipse-curve $-1 -16.59334433448295 35.913169209241055 8.0813528235623036 0 0.6560590369687036 0.75470957328743171 1 0 0 1 I I #
point $-1 -15.59334433448295 38.023722363479926 10.509266442122891 #
loop $-1 $-1 $440 $432 #
plane-surface $-1 0 41.118986961255331 0 0 -1 0 0 0 -1 forward_v I I I I #
coedge $-1 $590 $435 $437 $594 reversed $299 $-1 #
coedge $-1 $435 $589 $693 $694 reversed $299 $-1 #
coedge $-1 $443 $438 $435 $592 forward $433 $-1 #
edge $-1 $595 -2.2559753246571788 $695 3.9345538708936374 $591 $696 forward 7 unknown #
coedge $-1 $437 $436 $598 $697 reversed $189 $-1 #
edge $-1 $698 -82.237973922510704 $595 -74.035442227324211 $589 $699 forward 7 unknown #
vertex $-1 $439 $700 #
straight-curve $-1 23.865348730292524 34.928457765704493 13.199938964447554 1 0 0 I I #
coedge $-1 $693 $440 $443 $602 reversed $587 $-1 #
coedge $-1 $440 $693 $593 $697 forward $587 $-1 #
vertex $-1 $441 $701 #
straight-curve $-1 38.489339432579946 41.118986961255331 85.709843886298813 0 0 1 I I #
straight-curve $-1 38.489339432579946 -20.946799245825645 61.771559893657951 0 0.75470957328743171 -0.6560590369687036 I I #
edge $-1 $695 -56.972055488590151 $444 -38.489339432579946 $597 $702 forward 7 unknown #
point $-1 38.489339432579946 41.118986961255331 13.199938964447544 #
point $-1 38.489339432579946 34.928457765704515 13.19993896444754 #
edge $-1 $703 1 $703 0 $447 $-1 forward 7 unknown #
vertex $-1 $448 $704 #
ellipse-curve $-1 43.770115448582871 35.913169209241055 8.0813528235623036 0 0.6560590369687036 0.75470957328743171 1 0 0 1 I I #
point $-1 44.770115448582871 38.023722363479926 10.509266442122891 #
edge $-1 $705 1 $705 0 $451 $-1 forward 7 unknown #
vertex $-1 $452 $706 #
ellipse-curve $-1 51.69127947258724 35.913169209241055 8.0813528235623036 0 0.6560590369687036 0.75470957328743171 1 0 0 1 I I #
point $-1 52.69127947258724 38.023722363479926 10.509266442122891 #
plane-surface $-1 72.642597735526607 0 0 -1 0 0 0 0 1 forward_v I I I I #
coedge $-1 $458 $623 $461 $617 reversed $321 $-1 #
vertex $-1 $617 $707 #
straight-curve $-1 -72.642597735526607 -41.118986961255331 0 0 0 -1 I I #
edge $-1 $615 -41.118986961255331 $619 41.118986961255331 $614 $708 forward 7 unknown #
straight-curve $-1 0 -41.118986961255331 -13.199938964447544 -1 0 0 I I #
vertex $-1 $464 $709 #
straight-curve $-1 0 41.118986961255331 -13.199938964447544 1 0 0 I I #
point $-1 72.642597735526607 41.118986961255331 -13.199938964447544 #
point $-1 72.642597735526607 -41.118986961255331 -13.199938964447544 #
coedge $-1 $614 $468 $471 $625 forward $321 $-1 #
straight-curve $-1 -72.642597735526607 0 13.199938964447544 0 -1 0 I I #
edge $-1 $472 -13.199938964447544 $619 13.199938964447544 $471 $710 forward 7 unknown #
point $-1 -72.642597735526607 41.118986961255331 13.199938964447544 #
point $-1 -72.642597735526607 -41.118986961255331 13.199938964447544 #
straight-curve $-1 72.642597735526607 -41.118986961255331 0 0 0 -1 I I #
straight-curve $-1 72.642597735526607 41.118986961255331 0 0 0 -1 I I #
plane-surface $-1 0 -41.118986961255331 0 0 1 0 0 0 1 forward_v I I I I #
coedge $-1 $711 $644 $485 $633 forward $482 $-1 #
coedge $-1 $634 $484 $493 $642 forward $340 $-1 #
edge $-1 $637 -3.1006381486085481 $635 3.1006381486085477 $485 $712 forward 7 unknown #
coedge $-1 $486 $632 $711 $713 forward $340 $-1 #
vertex $-1 $487 $714 #
straight-curve $-1 -77.000571663983024 41.118986961255331 -6.66453521985542 1 0 0 I I #
vertex $-1 $488 $715 #
straight-curve $-1 -77.000571663983024 41.118986961255331 -0.46325892263832413 -1 0 0 I I #
point $-1 -72.642597735526607 41.118986961255331 -6.66453521985542 #
straight-curve $-1 -72.642597735526607 0 -6.66453521985542 0 1 0 I I #
coedge $-1 $493 $492 $716 $717 forward $494 $-1 #
edge $-1 $495 -4.357973928456417 $718 4.357973928456417 $493 $719 forward 7 unknown #
point $-1 -72.642597735526607 -41.118986961255331 -6.66453521985542 #
coedge $-1 $631 $716 $497 $645 reversed $482 $-1 #
edge $-1 $637 -41.118986961255331 $646 41.118986961255331 $644 $720 forward 7 unknown #
vertex $-1 $645 $721 #
straight-curve $-1 -77.000571663983024 -41.118986961255331 -0.46325892263832413 1 0 0 I I #
edge $-1 $649 45.53750863277557 $652 52.557468097690773 $502 $722 forward 7 unknown #
vertex $-1 $516 $723 #
straight-curve $-1 -26.715937447305919 -67.253255814380964 13.19993896444754 0 -1 0 I I #
edge $-1 $652 -21.126446567593543 $513 9.9474648081687924 $512 $724 forward 7 unknown #
vertex $-1 $651 $725 #
straight-curve $-1 -26.715937447305919 -41.118986961255317 6.1799794995323509 0 0.76604443648966558 0.64278761758704617 I I #
point $-1 -26.715937447305919 -32.752925224303738 13.199938964447544 #
point $-1 4.357973928456417 -41.118986961255331 6.1799794995323394 #
straight-curve $-1 0 -41.118986961255331 13.199938964447544 1 0 0 I I #
vertex $-1 $519 $726 #
point $-1 -19.001155172153453 -33.161592025870483 5.1918473897053596 #
vertex $-1 $523 $727 #
point $-1 -9.6789817594247509 -33.161592025870483 5.1918473897053596 #
vertex $-1 $527 $728 #
point $-1 -0.35680834669605588 -33.161592025870483 5.1918473897053596 #
coedge $-1 $534 $533 $541 $668 reversed $248 $-1 #
edge $-1 $537 41.568686359764264 $671 72.642597735526607 $534 $729 forward 7 unknown #
straight-curve $-1 41.568686359764264 -41.118986961255331 58.73744759722311 0 0 -1 I I #
point $-1 41.568686359764264 -41.118986961255331 13.199938964447544 #
straight-curve $-1 28.552821023822716 -41.118986961255331 6.1799794995323394 1 0 0 I I #
edge $-1 $671 -13.199938964447544 $542 -6.1799794995323394 $541 $730 forward 7 unknown #
point $-1 72.642597735526607 -41.118986961255331 6.1799794995323394 #
point $-1 41.568686359764264 -41.118986961255331 6.1799794995323394 #
vertex $-1 $546 $731 #
straight-curve $-1 72.642597735526607 0 13.199938964447544 0 1 0 I I #
vertex $-1 $549 $732 #
point $-1 49.283468634916744 -33.161592025870483 5.1918473897053596 #
vertex $-1 $553 $733 #
point $-1 58.605642047645432 -33.161592025870483 5.1918473897053596 #
vertex $-1 $557 $734 #
point $-1 67.927815460374148 -33.161592025870483 5.1918473897053596 #
coedge $-1 $572 $571 $564 $680 forward $561 $-1 #
edge $-1 $681 72.509904921851273 $684 77.891249966500595 $679 $735 forward 7 unknown #
vertex $-1 $576 $736 #
straight-curve $-1 -11.312568318480032 37.184433090361694 13.19993896444754 0 1 0 I I #
edge $-1 $684 1.0356051452374651 $573 19.518321201247669 $572 $737 forward 7 unknown #
vertex $-1 $683 $738 #
straight-curve $-1 -11.312568318480032 -20.946799245825645 61.771559893657951 0 -0.75470957328743171 0.6560590369687036 I I #
point $-1 -11.312568318480032 34.928457765704515 13.19993896444754 #
point $-1 -29.795284374490237 41.118986961255338 7.818593919798225 #
straight-curve $-1 0 41.118986961255331 13.199938964447544 -1 0 0 I I #
vertex $-1 $579 $739 #
point $-1 -23.514508358487319 35.913169209241055 8.0813528235623036 #
vertex $-1 $583 $740 #
point $-1 -15.59334433448295 35.913169209241055 8.0813528235623036 #
coedge $-1 $598 $597 $590 $694 forward $587 $-1 #
edge $-1 $695 72.509904921851273 $698 77.891249966500595 $693 $741 forward 7 unknown #
vertex $-1 $602 $742 #
straight-curve $-1 56.972055488590151 37.184433090361694 13.19993896444754 0 1 0 I I #
edge $-1 $698 -33.106706758297626 $599 -14.623990702287422 $598 $743 forward 7 unknown #
vertex $-1 $697 $744 #
straight-curve $-1 56.972055488590151 -20.946799245825645 61.771559893657951 0 -0.75470957328743171 0.6560590369687036 I I #
point $-1 56.972055488590151 34.928457765704515 13.19993896444754 #
point $-1 38.489339432579946 41.118986961255338 7.818593919798225 #
straight-curve $-1 0 41.118986961255331 13.199938964447544 -1 0 0 I I #
vertex $-1 $605 $745 #
point $-1 44.770115448582871 35.913169209241055 8.0813528235623036 #
vertex $-1 $609 $746 #
point $-1 52.69127947258724 35.913169209241055 8.0813528235623036 #
point $-1 -72.642597735526607 -41.118986961255331 -13.199938964447544 #
straight-curve $-1 -72.642597735526607 0 -13.199938964447544 0 1 0 I I #
point $-1 -72.642597735526607 41.118986961255331 -13.199938964447544 #
straight-curve $-1 -72.642597735526607 41.118986961255331 0 0 0 -1 I I #
coedge $-1 $716 $631 $634 $713 reversed $482 $-1 #
straight-curve $-1 -81.358545592439441 41.118986961255331 -3.5638970712468723 0 0 -1 I I #
edge $-1 $718 -41.118986961255331 $635 41.118986961255331 $711 $747 forward 7 unknown #
point $-1 -81.358545592439441 41.118986961255331 -6.66453521985542 #
point $-1 -81.358545592439441 41.118986961255331 -0.46325892263832413 #
coedge $-1 $644 $711 $641 $717 reversed $482 $-1 #
edge $-1 $646 -3.1006381486085481 $718 3.1006381486085477 $716 $748 forward 7 unknown #
vertex $-1 $713 $749 #
straight-curve $-1 -77.000571663983024 -41.118986961255331 -6.66453521985542 -1 0 0 I I #
straight-curve $-1 -81.358545592439441 0 -0.46325892263832413 0 -1 0 I I #
point $-1 -81.358545592439441 -41.118986961255331 -0.46325892263832413 #
straight-curve $-1 -26.715937447305919 -41.118986961255331 58.73744759722311 0 0 -1 I I #
point $-1 -26.715937447305919 -41.118986961255331 13.199938964447544 #
straight-curve $-1 -5.5894908797123755 -41.118986961255331 6.1799794995323394 1 0 0 I I #
point $-1 -26.715937447305919 -41.118986961255331 6.1799794995323394 #
point $-1 -20.501155172153453 -32.19741059948992 4.0427807349708607 #
point $-1 -11.178981759424751 -32.19741059948992 4.0427807349708607 #
point $-1 -1.8568083466960559 -32.19741059948992 4.0427807349708607 #
straight-curve $-1 0 -41.118986961255331 13.199938964447544 1 0 0 I I #
straight-curve $-1 72.642597735526607 -41.118986961255331 0 0 0 -1 I I #
point $-1 72.642597735526607 -41.118986961255331 13.199938964447544 #
point $-1 47.783468634916744 -32.19741059948992 4.0427807349708607 #
point $-1 57.105642047645432 -32.19741059948992 4.0427807349708607 #
point $-1 66.427815460374148 -32.19741059948992 4.0427807349708607 #
straight-curve $-1 -11.312568318480032 41.118986961255331 85.709843886298813 0 0 -1 I I #
point $-1 -11.312568318480032 41.118986961255331 13.199938964447544 #
straight-curve $-1 -10.276963173242567 41.118986961255331 7.8185939197982357 -1 0 0 I I #
point $-1 -11.312568318480032 41.118986961255338 7.818593919798225 #
point $-1 -24.514508358487319 35.257110172272355 7.3266432502748717 #
point $-1 -16.59334433448295 35.257110172272355 7.3266432502748717 #
straight-curve $-1 56.972055488590151 41.118986961255331 85.709843886298813 0 0 -1 I I #
point $-1 56.972055488590151 41.118986961255331 13.199938964447544 #
straight-curve $-1 23.865348730292524 41.118986961255331 7.8185939197982357 -1 0 0 I I #
point $-1 56.972055488590151 41.118986961255338 7.818593919798225 #
point $-1 43.770115448582871 35.257110172272355 7.3266432502748717 #
point $-1 51.69127947258724 35.257110172272355 7.3266432502748717 #
straight-curve $-1 -81.358545592439441 0 -6.66453521985542 0 1 0 I I #
straight-curve $-1 -81.358545592439441 -41.118986961255331 -3.5638970712468723 0 0 -1 I I #
point $-1 -81.358545592439441 -41.118986961255331 -6.66453521985542 #
End-of-ACIS-data 