500 0 6 0           
7 Unknown 11 ACIS 5.0 NT 24 Fri Mar 26 19:21:15 1999 
-1 9.9999999999999995e-007 1e-010 
body $-1 $6 $-1 $7 #
body $-1 $8 $-1 $9 #
body $-1 $10 $-1 $11 #
body $-1 $12 $-1 $13 #
body $-1 $14 $-1 $15 #
body $-1 $16 $-1 $17 #
lump $-1 $-1 $18 $0 #
transform $-1 1 0 0 0 1 0 0 0 1 43.387554551835692 27.00033459339997 13.407218972406167 1 rotate no_reflect no_shear #
lump $-1 $-1 $19 $1 #
transform $-1 1 0 0 0 1 0 0 0 1 43.387554551835692 27.00033459339997 13.407218972406167 1 rotate no_reflect no_shear #
lump $-1 $-1 $20 $2 #
transform $-1 1 0 0 0 1 0 0 0 1 43.387554551835692 27.00033459339997 13.407218972406167 1 rotate no_reflect no_shear #
lump $-1 $-1 $21 $3 #
transform $-1 1 0 0 0 1 0 0 0 1 43.387554551835692 27.00033459339997 13.407218972406167 1 rotate no_reflect no_shear #
lump $-1 $-1 $22 $4 #
transform $-1 1 0 0 0 1 0 0 0 1 43.387554551835692 27.00033459339997 13.407218972406167 1 rotate no_reflect no_shear #
lump $-1 $-1 $23 $5 #
transform $-1 1 0 0 0 1 0 0 0 1 43.387554551835692 27.00033459339997 13.407218972406167 1 rotate no_reflect no_shear #
shell $-1 $-1 $-1 $24 $-1 $6 #
shell $-1 $-1 $-1 $25 $-1 $8 #
shell $-1 $-1 $-1 $26 $-1 $10 #
shell $-1 $-1 $-1 $27 $-1 $12 #
shell $-1 $-1 $-1 $28 $-1 $14 #
shell $-1 $-1 $-1 $29 $-1 $16 #
face $-1 $30 $31 $18 $-1 $32 forward single #
face $-1 $33 $34 $19 $-1 $35 forward single #
face $-1 $36 $37 $20 $-1 $38 reversed single #
face $-1 $39 $40 $21 $-1 $41 forward single #
face $-1 $42 $43 $22 $-1 $44 reversed single #
face $-1 $45 $46 $23 $-1 $47 forward single #
face $-1 $48 $49 $18 $-1 $50 reversed single #
loop $-1 $-1 $51 $24 #
plane-surface $-1 0 0 13.407218972406167 0 0 1 1 0 0 forward_v I I I I #
face $-1 $52 $53 $19 $-1 $54 reversed single #
loop $-1 $-1 $55 $25 #
plane-surface $-1 0 -22.059074519623998 6.4037918794822088 0 0 1 1 0 0 forward_v I I I I #
face $-1 $56 $57 $20 $-1 $58 reversed single #
loop $-1 $-1 $59 $26 #
plane-surface $-1 -94.392684600666911 15.560778179024211 72.58685685106559 0 1 0 -0.5877852598018023 0 0.80901698891910034 forward_v I I I I #
face $-1 $60 $61 $21 $-1 $62 forward single #
loop $-1 $63 $64 $27 #
cone-surface $-1 -33.073454225646351 21.280556386212091 4.1406681906380518 0.5877852598018023 0 -0.80901698891910034 2.0225424722977507 0 1.4694631495045059 1 I I 0 1 2.5 forward I I I I #
face $-1 $65 $66 $22 $-1 $67 reversed single #
loop $-1 $-1 $68 $28 #
plane-surface $-1 73.075857258866662 17.255390210768866 129.42204894497851 0 -1 0 -0.85716730853699208 0 -0.51503806187062418 forward_v I I I I #
face $-1 $69 $70 $23 $-1 $71 forward single #
loop $-1 $72 $73 $29 #
cone-surface $-1 42.040122625915863 10.905185212842866 11.620479562874673 -0.85716730853699208 0 -0.51503806187062418 0.25751903093531209 0 -0.42858365426849604 1 I I 0 1 0.5 forward I I I I #
face $-1 $74 $75 $18 $-1 $76 reversed single #
loop $-1 $-1 $77 $30 #
plane-surface $-1 0 0 -13.407218972406167 0 0 1 1 0 0 forward_v I I I I #
coedge $-1 $78 $79 $80 $81 forward $31 $-1 #
face $-1 $82 $83 $19 $-1 $84 reversed single #
loop $-1 $-1 $85 $33 #
plane-surface $-1 0 -22.059074519623998 0.89483119340529971 0 0 1 1 0 0 forward_v I I I I #
coedge $-1 $86 $87 $88 $89 reversed $34 $-1 #
face $-1 $90 $91 $20 $-1 $92 forward single #
loop $-1 $-1 $93 $36 #
plane-surface $-1 -43.387554551835684 21.280556386212091 2.3843193708869563 -0.5877852598018023 0 0.80901698891910034 0.80901698891910034 0 0.5877852598018023 forward_v I I I I #
coedge $-1 $94 $95 $96 $97 reversed $37 $-1 #
face $-1 $-1 $98 $21 $-1 $99 forward single #
loop $-1 $100 $101 $39 #
cone-surface $-1 -29.610482037983058 21.280556386212091 -0.62570402651933854 0.5877852598018023 0 -0.80901698891910034 1.0112712361488754 0 0.73473157475225293 1 I I -0.70710678118654746 0.70710678118654746 1.25 forward I I I I #
loop $-1 $-1 $102 $27 #
coedge $-1 $64 $64 $103 $104 reversed $40 $-1 #
face $-1 $105 $106 $22 $-1 $107 reversed single #
loop $-1 $-1 $108 $42 #
plane-surface $-1 -1.3049294595311807 10.905185212842866 84.729564933611641 0.85716730853699208 0 0.51503806187062418 0.51503806187062418 0 -0.85716730853699208 forward_v I I I I #
coedge $-1 $109 $110 $111 $112 reversed $43 $-1 #
face $-1 $-1 $113 $23 $-1 $114 forward single #
loop $-1 $115 $116 $45 #
cone-surface $-1 41.397247144513116 10.905185212842866 11.234201016471705 -0.85716730853699208 0 -0.51503806187062418 0.12875951546765604 0 -0.21429182713424802 1 I I -0.70710678118654746 0.70710678118654746 0.25 forward I I I I #
loop $-1 $-1 $117 $29 #
coedge $-1 $73 $73 $118 $119 reversed $46 $-1 #
face $-1 $120 $121 $18 $-1 $122 reversed single #
loop $-1 $-1 $123 $48 #
plane-surface $-1 0 -27.00033459339997 0 0 1 0 0 0 1 forward_v I I I I #
coedge $-1 $124 $125 $126 $127 forward $49 $-1 #
coedge $-1 $128 $51 $129 $130 forward $31 $-1 #
coedge $-1 $51 $128 $131 $132 forward $31 $-1 #
coedge $-1 $133 $134 $51 $81 reversed $135 $-1 #
edge $-1 $136 -27.00033459339997 $137 27.00033459339997 $80 $138 forward 7 unknown #
face $-1 $139 $140 $19 $-1 $141 reversed single #
loop $-1 $-1 $142 $52 #
plane-surface $-1 0 -17.117814445848026 3.6493115364437543 0 -1 0 0 0 -1 forward_v I I I I #
coedge $-1 $143 $144 $145 $146 reversed $53 $-1 #
coedge $-1 $147 $55 $148 $149 forward $34 $-1 #
coedge $-1 $55 $147 $150 $151 reversed $34 $-1 #
coedge $-1 $152 $153 $55 $89 forward $154 $-1 #
edge $-1 $155 6.0882771860360272 $156 15.970797333587971 $88 $157 forward 7 unknown #
face $-1 $158 $159 $20 $-1 $160 reversed single #
loop $-1 $-1 $96 $56 #
plane-surface $-1 0 0 13.407218972406167 0 0 1 1 0 0 forward_v I I I I #
coedge $-1 $161 $162 $163 $164 reversed $57 $-1 #
coedge $-1 $95 $59 $165 $166 reversed $37 $-1 #
coedge $-1 $59 $94 $161 $167 reversed $37 $-1 #
coedge $-1 $163 $168 $59 $97 forward $91 $-1 #
edge $-1 $169 3.8087877484977639 $170 18.98050717505437 $96 $171 forward 7 unknown #
loop $-1 $-1 $103 $60 #
plane-surface $-1 -43.387554551835684 21.280556386212091 2.3843193708869563 -0.5877852598018023 0 0.80901698891910034 0.80901698891910034 0 0.5877852598018023 forward_v I I I I #
loop $-1 $-1 $172 $39 #
coedge $-1 $101 $101 $102 $173 reversed $61 $-1 #
coedge $-1 $102 $102 $101 $173 forward $63 $-1 #
coedge $-1 $103 $103 $64 $104 forward $98 $-1 #
edge $-1 $174 0 $174 6.2831853071796004 $103 $175 forward 7 unknown #
face $-1 $176 $177 $22 $-1 $178 reversed single #
loop $-1 $-1 $179 $65 #
plane-surface $-1 73.075857258866662 4.554980214916867 129.42204894497851 0 1 0 0.85716730853699208 0 0.51503806187062418 forward_v I I I I #
coedge $-1 $180 $181 $182 $183 reversed $66 $-1 #
coedge $-1 $110 $68 $184 $185 reversed $43 $-1 #
coedge $-1 $68 $109 $180 $186 reversed $43 $-1 #
coedge $-1 $182 $187 $68 $112 forward $188 $-1 #
edge $-1 $189 -6.8496259224023603 $190 -5.0119293790996906 $111 $191 forward 7 unknown #
loop $-1 $-1 $118 $69 #
plane-surface $-1 -1.3049294595311807 10.905185212842866 84.729564933611641 0.85716730853699208 0 0.51503806187062418 0.51503806187062418 0 -0.85716730853699208 forward_v I I I I #
loop $-1 $-1 $192 $45 #
coedge $-1 $116 $116 $117 $193 reversed $70 $-1 #
coedge $-1 $117 $117 $116 $193 forward $72 $-1 #
coedge $-1 $118 $118 $73 $119 forward $113 $-1 #
edge $-1 $194 0 $194 6.2831853071796004 $118 $195 forward 7 unknown #
face $-1 $196 $197 $18 $-1 $198 reversed single #
loop $-1 $-1 $199 $74 #
plane-surface $-1 -43.387554551835692 0 0 1 0 0 0 0 -1 forward_v I I I I #
coedge $-1 $200 $131 $201 $202 forward $75 $-1 #
coedge $-1 $203 $77 $200 $204 forward $49 $-1 #
coedge $-1 $77 $203 $205 $206 forward $49 $-1 #
coedge $-1 $134 $133 $77 $127 reversed $135 $-1 #
edge $-1 $207 -27.00033459339997 $208 27.00033459339997 $126 $209 forward 7 unknown #
coedge $-1 $79 $78 $210 $211 forward $31 $-1 #
coedge $-1 $212 $213 $78 $130 reversed $197 $-1 #
edge $-1 $137 -43.387554551835692 $214 43.387554551835692 $129 $215 forward 7 unknown #
coedge $-1 $123 $216 $79 $132 reversed $75 $-1 #
edge $-1 $217 -43.387554551835692 $136 43.387554551835692 $131 $218 forward 7 unknown #
coedge $-1 $126 $80 $216 $219 forward $135 $-1 #
coedge $-1 $80 $126 $212 $220 reversed $135 $-1 #
loop $-1 $-1 $133 $196 #
vertex $-1 $81 $221 #
vertex $-1 $81 $222 #
straight-curve $-1 43.387554551835692 0 13.407218972406167 0 1 0 I I #
face $-1 $223 $224 $19 $-1 $225 reversed single #
loop $-1 $-1 $226 $82 #
plane-surface $-1 -43.387554551835692 0 0 1 0 0 0 0 -1 forward_v I I I I #
coedge $-1 $227 $148 $153 $228 reversed $83 $-1 #
coedge $-1 $229 $85 $230 $231 reversed $53 $-1 #
coedge $-1 $85 $229 $227 $232 forward $53 $-1 #
coedge $-1 $153 $152 $85 $146 forward $154 $-1 #
edge $-1 $233 -15.970797333587971 $234 -6.0882771860360272 $145 $235 forward 7 unknown #
coedge $-1 $87 $86 $226 $236 reversed $34 $-1 #
coedge $-1 $142 $237 $86 $149 reversed $83 $-1 #
edge $-1 $155 -43.387554551835692 $238 43.387554551835692 $148 $239 forward 7 unknown #
coedge $-1 $240 $241 $87 $151 forward $224 $-1 #
edge $-1 $156 -43.387554551835692 $242 43.387554551835692 $150 $243 forward 7 unknown #
coedge $-1 $145 $88 $241 $244 forward $154 $-1 #
coedge $-1 $88 $145 $142 $228 forward $154 $-1 #
loop $-1 $-1 $88 $223 #
vertex $-1 $89 $245 #
vertex $-1 $244 $246 #
straight-curve $-1 43.387554551835692 -11.029537259811999 6.4037918794822088 0 -1 0 I I #
face $-1 $-1 $247 $20 $-1 $248 reversed single #
loop $-1 $-1 $249 $90 #
plane-surface $-1 0 27.00033459339997 0 0 -1 0 0 0 -1 forward_v I I I I #
coedge $-1 $250 $93 $95 $167 forward $57 $-1 #
coedge $-1 $93 $250 $249 $251 reversed $57 $-1 #
coedge $-1 $252 $96 $93 $164 forward $91 $-1 #
edge $-1 $170 4.9204999859181662 $253 16.360056400293924 $163 $254 forward 7 unknown #
coedge $-1 $255 $256 $94 $166 forward $247 $-1 #
edge $-1 $257 -33.909109054645846 $169 -22.886209453126629 $165 $258 forward 7 unknown #
edge $-1 $170 -18.753276673246393 $257 8.8807605448725156e-015 $95 $259 forward 7 unknown #
coedge $-1 $96 $252 $255 $260 forward $91 $-1 #
vertex $-1 $166 $261 #
vertex $-1 $97 $262 #
straight-curve $-1 -47.196342300333455 15.560778179024211 13.407218972406167 1 0 0 I I #
coedge $-1 $172 $172 $-1 $263 reversed $100 $-1 #
edge $-1 $264 0 $264 6.2831853071796004 $101 $265 forward 7 unknown #
vertex $-1 $104 $266 #
ellipse-curve $-1 -35.801694838557388 21.280556386212091 7.8957691716465579 -0.5877852598018023 0 0.80901698891910034 2.0225424722977507 0 1.4694631495045059 1 I I #
face $-1 $-1 $188 $22 $-1 $267 forward single #
loop $-1 $-1 $268 $105 #
plane-surface $-1 43.387554551835692 0 0 -1 0 0 0 0 1 forward_v I I I I #
coedge $-1 $269 $270 $271 $272 reversed $106 $-1 #
coedge $-1 $273 $108 $110 $186 forward $66 $-1 #
coedge $-1 $108 $273 $269 $274 forward $66 $-1 #
coedge $-1 $271 $111 $108 $183 forward $188 $-1 #
edge $-1 $190 -11.802797604347433 $275 0.89761239150456618 $182 $276 forward 7 unknown #
coedge $-1 $277 $278 $109 $185 forward $177 $-1 #
edge $-1 $279 -54.362246257275459 $189 -51.303805500083087 $184 $280 forward 7 unknown #
edge $-1 $190 83.207030005540034 $279 86.775109103671412 $110 $281 forward 7 unknown #
coedge $-1 $111 $271 $277 $282 forward $188 $-1 #
loop $-1 $-1 $271 $176 #
vertex $-1 $185 $283 #
vertex $-1 $112 $284 #
straight-curve $-1 36.537928629433331 17.255390210768866 13.40721897240617 -1 0 0 I I #
coedge $-1 $192 $192 $-1 $285 reversed $115 $-1 #
edge $-1 $286 0 $286 6.2831853071796004 $116 $287 forward 7 unknown #
vertex $-1 $119 $288 #
ellipse-curve $-1 42.468706280184357 10.905185212842866 11.877998593809981 0.85716730853699208 0 0.51503806187062418 0.25751903093531209 0 -0.42858365426849604 1 I I #
face $-1 $-1 $135 $18 $-1 $289 reversed single #
loop $-1 $-1 $212 $120 #
plane-surface $-1 0 27.00033459339997 0 0 -1 0 0 0 -1 forward_v I I I I #
coedge $-1 $290 $210 $213 $291 forward $121 $-1 #
coedge $-1 $216 $123 $124 $204 reversed $75 $-1 #
coedge $-1 $210 $290 $123 $202 reversed $121 $-1 #
edge $-1 $217 -13.407218972406167 $292 13.407218972406167 $201 $293 forward 7 unknown #
coedge $-1 $125 $124 $290 $294 forward $49 $-1 #
edge $-1 $208 -43.387554551835692 $292 43.387554551835692 $200 $295 forward 7 unknown #
coedge $-1 $213 $212 $125 $206 reversed $197 $-1 #
edge $-1 $296 -43.387554551835692 $207 43.387554551835692 $205 $297 forward 7 unknown #
vertex $-1 $127 $298 #
vertex $-1 $219 $299 #
straight-curve $-1 43.387554551835692 0 -13.407218972406167 0 -1 0 I I #
coedge $-1 $199 $201 $128 $211 reversed $121 $-1 #
edge $-1 $214 -27.00033459339997 $217 27.00033459339997 $210 $300 forward 7 unknown #
coedge $-1 $205 $129 $134 $220 forward $197 $-1 #
coedge $-1 $129 $205 $199 $291 reversed $197 $-1 #
vertex $-1 $130 $301 #
straight-curve $-1 0 27.00033459339997 13.407218972406167 -1 0 0 I I #
coedge $-1 $131 $200 $133 $219 reversed $75 $-1 #
vertex $-1 $211 $302 #
straight-curve $-1 0 -27.00033459339997 13.407218972406167 1 0 0 I I #
edge $-1 $136 -13.407218972406167 $208 13.407218972406167 $133 $303 forward 7 unknown #
edge $-1 $137 -13.407218972406167 $207 13.407218972406167 $134 $304 forward 7 unknown #
point $-1 43.387554551835692 -27.00033459339997 13.407218972406167 #
point $-1 43.387554551835692 27.00033459339997 13.407218972406167 #
face $-1 $-1 $154 $19 $-1 $305 reversed single #
loop $-1 $-1 $150 $139 #
plane-surface $-1 0 -27.00033459339997 0 0 1 0 0 0 1 forward_v I I I I #
coedge $-1 $306 $307 $147 $236 forward $140 $-1 #
coedge $-1 $237 $142 $144 $232 reversed $83 $-1 #
edge $-1 $234 -0.92982457481657743 $155 4.5791361112603317 $153 $308 forward 7 unknown #
coedge $-1 $144 $143 $309 $310 reversed $53 $-1 #
coedge $-1 $241 $240 $143 $231 forward $224 $-1 #
edge $-1 $311 -43.387554551835692 $233 43.387554551835692 $230 $312 forward 7 unknown #
edge $-1 $313 -43.387554551835692 $234 43.387554551835692 $227 $314 forward 7 unknown #
vertex $-1 $231 $315 #
vertex $-1 $146 $316 #
straight-curve $-1 43.387554551835692 -11.029537259811999 0.89483119340529971 0 1 0 I I #
edge $-1 $242 -15.970797333587971 $238 -6.0882771860360272 $226 $317 forward 7 unknown #
coedge $-1 $148 $227 $306 $318 reversed $83 $-1 #
vertex $-1 $236 $319 #
straight-curve $-1 0 -17.117814445848026 6.4037918794822088 -1 0 0 I I #
coedge $-1 $230 $150 $307 $320 forward $224 $-1 #
coedge $-1 $150 $230 $152 $244 reversed $224 $-1 #
vertex $-1 $320 $321 #
straight-curve $-1 0 -27.00033459339997 6.4037918794822088 -1 0 0 I I #
edge $-1 $156 -6.4037918794822088 $233 -0.89483119340529971 $152 $322 forward 7 unknown #
point $-1 43.387554551835692 -17.117814445848026 6.4037918794822088 #
point $-1 43.387554551835692 -27.00033459339997 6.4037918794822088 #
loop $-1 $-1 $165 $158 #
plane-surface $-1 -43.387554551835692 0 0 1 0 0 0 0 -1 forward_v I I I I #
coedge $-1 $323 $324 $162 $251 forward $159 $-1 #
coedge $-1 $162 $161 $256 $325 reversed $57 $-1 #
edge $-1 $253 -1.9033761936353639 $326 16.849900479611037 $249 $327 forward 7 unknown #
coedge $-1 $168 $163 $324 $328 forward $91 $-1 #
vertex $-1 $328 $329 #
straight-curve $-1 -28.215835125279082 10.640278193106045 13.407218972406167 0 1 0 I I #
coedge $-1 $330 $165 $168 $260 reversed $247 $-1 #
coedge $-1 $165 $330 $250 $325 forward $247 $-1 #
vertex $-1 $166 $331 #
straight-curve $-1 -43.387554551835692 15.560778179024211 36.293428425532795 0 0 1 I I #
straight-curve $-1 -43.387554551835684 15.560778179024211 2.3843193708869563 -0.80901698891910034 0 -0.5877852598018023 I I #
edge $-1 $332 -27.00033459339997 $169 -15.560778179024211 $255 $333 forward 7 unknown #
point $-1 -43.387554551835692 15.560778179024211 13.407218972406167 #
point $-1 -28.215835125279085 15.560778179024211 13.407218972406167 #
edge $-1 $334 1 $334 0 $172 $-1 forward 7 unknown #
vertex $-1 $173 $335 #
ellipse-curve $-1 -30.345213612735311 21.280556386212091 0.38556720962953683 -0.5877852598018023 0 0.80901698891910034 2.0225424722977507 0 1.4694631495045059 1 I I #
point $-1 -33.779152366259645 21.280556386212091 9.3652323211510726 #
plane-surface $-1 0 0 13.407218972406167 0 0 1 1 0 0 forward_v I I I I #
coedge $-1 $278 $277 $270 $336 forward $177 $-1 #
coedge $-1 $270 $179 $181 $274 reversed $106 $-1 #
coedge $-1 $179 $269 $268 $336 reversed $106 $-1 #
coedge $-1 $187 $182 $179 $272 forward $188 $-1 #
edge $-1 $275 5.0119293790996906 $337 6.8496259224023603 $271 $338 forward 7 unknown #
coedge $-1 $181 $180 $278 $339 reversed $66 $-1 #
edge $-1 $340 -86.775109103671412 $275 -83.207030005540034 $269 $341 forward 7 unknown #
vertex $-1 $183 $342 #
straight-curve $-1 41.549858008533008 5.4525926064214332 13.40721897240617 0 -1 0 I I #
coedge $-1 $268 $184 $187 $282 reversed $177 $-1 #
coedge $-1 $184 $268 $273 $339 forward $177 $-1 #
vertex $-1 $185 $343 #
straight-curve $-1 43.387554551835692 17.255390210768866 64.711024472489257 0 0 1 I I #
straight-curve $-1 -1.3049294595311807 17.255390210768866 84.729564933611641 0.51503806187062418 0 -0.85716730853699208 I I #
edge $-1 $337 4.554980214916867 $189 17.255390210768866 $277 $344 forward 7 unknown #
point $-1 43.387554551835692 17.255390210768866 13.407218972406167 #
point $-1 41.549858008533022 17.255390210768866 13.40721897240617 #
edge $-1 $345 1 $345 0 $192 $-1 forward 7 unknown #
vertex $-1 $193 $346 #
ellipse-curve $-1 41.611538971647363 10.905185212842866 11.362960531939361 0.85716730853699208 0 0.51503806187062418 0.25751903093531209 0 -0.42858365426849604 1 I I #
point $-1 42.72622531111967 10.905185212842866 11.449414939541489 #
plane-surface $-1 43.387554551835692 0 0 -1 0 0 0 0 1 forward_v I I I I #
coedge $-1 $201 $199 $203 $294 reversed $121 $-1 #
edge $-1 $214 -13.407218972406167 $296 13.407218972406167 $213 $347 forward 7 unknown #
vertex $-1 $294 $348 #
straight-curve $-1 -43.387554551835692 -27.00033459339997 0 0 0 -1 I I #
edge $-1 $292 -27.00033459339997 $296 27.00033459339997 $290 $349 forward 7 unknown #
straight-curve $-1 0 -27.00033459339997 -13.407218972406167 -1 0 0 I I #
vertex $-1 $206 $350 #
straight-curve $-1 0 27.00033459339997 -13.407218972406167 1 0 0 I I #
point $-1 43.387554551835692 27.00033459339997 -13.407218972406167 #
point $-1 43.387554551835692 -27.00033459339997 -13.407218972406167 #
straight-curve $-1 -43.387554551835692 0 13.407218972406167 0 -1 0 I I #
point $-1 -43.387554551835692 27.00033459339997 13.407218972406167 #
point $-1 -43.387554551835692 -27.00033459339997 13.407218972406167 #
straight-curve $-1 43.387554551835692 -27.00033459339997 0 0 0 -1 I I #
straight-curve $-1 43.387554551835692 27.00033459339997 0 0 0 -1 I I #
plane-surface $-1 43.387554551835692 0 0 -1 0 0 0 0 1 forward_v I I I I #
coedge $-1 $309 $226 $237 $318 forward $140 $-1 #
coedge $-1 $226 $309 $240 $320 reversed $140 $-1 #
straight-curve $-1 43.387554551835692 -17.117814445848026 1.8246557682218771 0 0 1 I I #
coedge $-1 $307 $306 $229 $310 forward $140 $-1 #
edge $-1 $313 6.0882771860360272 $311 15.970797333587971 $309 $351 forward 7 unknown #
vertex $-1 $231 $352 #
straight-curve $-1 0 -27.00033459339997 0.89483119340529971 1 0 0 I I #
vertex $-1 $310 $353 #
straight-curve $-1 0 -17.117814445848026 0.89483119340529971 1 0 0 I I #
point $-1 43.387554551835692 -27.00033459339997 0.89483119340529971 #
point $-1 43.387554551835692 -17.117814445848026 0.89483119340529971 #
straight-curve $-1 -43.387554551835692 -11.029537259811999 6.4037918794822088 0 1 0 I I #
edge $-1 $238 -4.5791361112603317 $313 0.92982457481657743 $306 $354 forward 7 unknown #
point $-1 -43.387554551835692 -17.117814445848026 6.4037918794822088 #
edge $-1 $242 -6.4037918794822088 $311 -0.89483119340529971 $307 $355 forward 7 unknown #
point $-1 -43.387554551835692 -27.00033459339997 6.4037918794822088 #
straight-curve $-1 43.387554551835692 -27.00033459339997 0 0 0 -1 I I #
coedge $-1 $324 $249 $330 $356 reversed $159 $-1 #
coedge $-1 $249 $323 $252 $328 reversed $159 $-1 #
edge $-1 $326 -16.360056400293924 $257 -4.9204999859181662 $256 $357 forward 7 unknown #
vertex $-1 $251 $358 #
straight-curve $-1 -29.755698802234264 27.00033459339997 12.288442501929635 -0.80901698891910034 0 -0.5877852598018023 I I #
edge $-1 $253 28.215835125279085 $332 43.387554551835692 $324 $359 forward 7 unknown #
point $-1 -28.215835125279085 27.00033459339997 13.407218972406167 #
coedge $-1 $256 $255 $323 $356 forward $247 $-1 #
point $-1 -43.387554551835692 15.560778179024211 2.384319370886951 #
vertex $-1 $328 $360 #
straight-curve $-1 -43.387554551835692 0 13.407218972406167 0 -1 0 I I #
vertex $-1 $263 $361 #
point $-1 -28.32267114043756 21.280556386212091 1.8550303591340427 #
edge $-1 $337 51.303805500083087 $340 54.362246257275459 $268 $362 forward 7 unknown #
vertex $-1 $282 $363 #
straight-curve $-1 36.537928629433331 4.554980214916867 13.40721897240617 1 0 0 I I #
edge $-1 $340 -0.89761239150456618 $279 11.802797604347433 $278 $364 forward 7 unknown #
vertex $-1 $339 $365 #
straight-curve $-1 -1.3049294595311807 4.554980214916867 84.729564933611641 -0.51503806187062418 0 0.85716730853699208 I I #
point $-1 41.549858008533022 4.554980214916867 13.40721897240617 #
point $-1 43.387554551835692 17.255390210768866 10.348778215213798 #
straight-curve $-1 43.387554551835692 0 13.407218972406167 0 1 0 I I #
vertex $-1 $285 $366 #
point $-1 41.869058002582676 10.905185212842866 10.934376877670864 #
straight-curve $-1 -43.387554551835692 27.00033459339997 0 0 0 -1 I I #
point $-1 -43.387554551835692 -27.00033459339997 -13.407218972406167 #
straight-curve $-1 -43.387554551835692 0 -13.407218972406167 0 1 0 I I #
point $-1 -43.387554551835692 27.00033459339997 -13.407218972406167 #
straight-curve $-1 -43.387554551835692 -11.029537259811999 0.89483119340529971 0 -1 0 I I #
point $-1 -43.387554551835692 -27.00033459339997 0.89483119340529971 #
point $-1 -43.387554551835692 -17.117814445848026 0.89483119340529971 #
straight-curve $-1 -43.387554551835692 -17.117814445848026 1.8246557682218771 0 0 -1 I I #
straight-curve $-1 -43.387554551835692 -27.00033459339997 0 0 0 -1 I I #
edge $-1 $332 -13.407218972406167 $326 -2.384319370886951 $323 $367 forward 7 unknown #
straight-curve $-1 -43.387554551835692 10.640278193106045 2.3843193708869563 0 -1 0 I I #
point $-1 -43.387554551835692 27.00033459339997 2.384319370886951 #
straight-curve $-1 0 27.00033459339997 13.407218972406167 -1 0 0 I I #
point $-1 -43.387554551835692 27.00033459339997 13.407218972406167 #
point $-1 -28.875750463230805 21.280556386212091 -1.6369752626682139 #
straight-curve $-1 43.387554551835692 4.554980214916867 64.711024472489257 0 0 -1 I I #
point $-1 43.387554551835692 4.554980214916867 13.407218972406167 #
straight-curve $-1 43.387554551835692 5.4525926064214332 10.348778215213791 0 1 0 I I #
point $-1 43.387554551835692 4.554980214916867 10.348778215213798 #
point $-1 41.18295531737887 10.905185212842866 11.105441501004048 #
straight-curve $-1 -43.387554551835692 27.00033459339997 0 0 0 -1 I I #
End-of-ACIS-data 