500 0 14 0           
7 Unknown 11 ACIS 5.0 NT 24 Fri Mar 26 18:11:23 1999 
-1 9.9999999999999995e-007 1e-010 
body $-1 $14 $-1 $15 #
body $-1 $16 $-1 $17 #
body $-1 $18 $-1 $19 #
body $-1 $20 $-1 $21 #
body $-1 $22 $-1 $23 #
body $-1 $24 $-1 $25 #
body $-1 $26 $-1 $27 #
body $-1 $28 $-1 $29 #
body $-1 $30 $-1 $31 #
body $-1 $32 $-1 $33 #
body $-1 $34 $-1 $35 #
body $-1 $36 $-1 $37 #
body $-1 $38 $-1 $39 #
body $-1 $40 $-1 $41 #
lump $-1 $-1 $42 $0 #
transform $-1 1 0 0 0 1 0 0 0 1 63.355204931791128 37.948350493935514 8.7608840290986052 1 rotate no_reflect no_shear #
lump $-1 $-1 $43 $1 #
transform $-1 1 0 0 0 1 0 0 0 1 63.355204931791128 37.948350493935514 8.7608840290986052 1 rotate no_reflect no_shear #
lump $-1 $-1 $44 $2 #
transform $-1 1 0 0 0 1 0 0 0 1 63.355204931791128 37.948350493935514 8.7608840290986052 1 rotate no_reflect no_shear #
lump $-1 $-1 $45 $3 #
transform $-1 1 0 0 0 1 0 0 0 1 63.355204931791128 37.948350493935514 8.7608840290986052 1 rotate no_reflect no_shear #
lump $-1 $-1 $46 $4 #
transform $-1 1 0 0 0 1 0 0 0 1 63.355204931791128 37.948350493935514 8.7608840290986052 1 rotate no_reflect no_shear #
lump $-1 $-1 $47 $5 #
transform $-1 1 0 0 0 1 0 0 0 1 63.355204931791128 37.948350493935514 8.7608840290986052 1 rotate no_reflect no_shear #
lump $-1 $-1 $48 $6 #
transform $-1 1 0 0 0 1 0 0 0 1 63.355204931791128 37.948350493935514 8.7608840290986052 1 rotate no_reflect no_shear #
lump $-1 $-1 $49 $7 #
transform $-1 1 0 0 0 1 0 0 0 1 63.355204931791128 37.948350493935514 8.7608840290986052 1 rotate no_reflect no_shear #
lump $-1 $-1 $50 $8 #
transform $-1 1 0 0 0 1 0 0 0 1 63.355204931791128 37.948350493935514 8.7608840290986052 1 rotate no_reflect no_shear #
lump $-1 $-1 $51 $9 #
transform $-1 1 0 0 0 1 0 0 0 1 63.355204931791128 37.948350493935514 8.7608840290986052 1 rotate no_reflect no_shear #
lump $-1 $-1 $52 $10 #
transform $-1 1 0 0 0 1 0 0 0 1 63.355204931791128 37.948350493935514 8.7608840290986052 1 rotate no_reflect no_shear #
lump $-1 $-1 $53 $11 #
transform $-1 1 0 0 0 1 0 0 0 1 63.355204931791128 37.948350493935514 8.7608840290986052 1 rotate no_reflect no_shear #
lump $-1 $-1 $54 $12 #
transform $-1 1 0 0 0 1 0 0 0 1 63.355204931791128 37.948350493935514 8.7608840290986052 1 rotate no_reflect no_shear #
lump $-1 $-1 $55 $13 #
transform $-1 1 0 0 0 1 0 0 0 1 63.355204931791128 37.948350493935514 8.7608840290986052 1 rotate no_reflect no_shear #
shell $-1 $-1 $-1 $56 $-1 $14 #
shell $-1 $-1 $-1 $57 $-1 $16 #
shell $-1 $-1 $-1 $58 $-1 $18 #
shell $-1 $-1 $-1 $59 $-1 $20 #
shell $-1 $-1 $-1 $60 $-1 $22 #
shell $-1 $-1 $-1 $61 $-1 $24 #
shell $-1 $-1 $-1 $62 $-1 $26 #
shell $-1 $-1 $-1 $63 $-1 $28 #
shell $-1 $-1 $-1 $64 $-1 $30 #
shell $-1 $-1 $-1 $65 $-1 $32 #
shell $-1 $-1 $-1 $66 $-1 $34 #
shell $-1 $-1 $-1 $67 $-1 $36 #
shell $-1 $-1 $-1 $68 $-1 $38 #
shell $-1 $-1 $-1 $69 $-1 $40 #
face $-1 $70 $71 $42 $-1 $72 forward single #
face $-1 $73 $74 $43 $-1 $75 reversed single #
face $-1 $76 $77 $44 $-1 $78 reversed single #
face $-1 $79 $80 $45 $-1 $81 forward single #
face $-1 $82 $83 $46 $-1 $84 forward single #
face $-1 $85 $86 $47 $-1 $87 reversed single #
face $-1 $88 $89 $48 $-1 $90 forward single #
face $-1 $91 $92 $49 $-1 $93 forward single #
face $-1 $94 $95 $50 $-1 $96 reversed single #
face $-1 $97 $98 $51 $-1 $99 forward single #
face $-1 $100 $101 $52 $-1 $102 forward single #
face $-1 $103 $104 $53 $-1 $105 reversed single #
face $-1 $106 $107 $54 $-1 $108 forward single #
face $-1 $109 $110 $55 $-1 $111 forward single #
face $-1 $112 $113 $42 $-1 $114 reversed single #
loop $-1 $-1 $115 $56 #
plane-surface $-1 0 0 8.7608840290986052 0 0 1 1 0 0 forward_v I I I I #
face $-1 $116 $117 $43 $-1 $118 reversed single #
loop $-1 $-1 $119 $57 #
plane-surface $-1 -60.152654911667732 -34.948350493935514 0 0 -1 0 0 0 -1 forward_v I I I I #
face $-1 $120 $121 $44 $-1 $122 reversed single #
loop $-1 $-1 $123 $58 #
plane-surface $-1 1.2025500201233896 -139.14378434569775 81.243706892629561 -1 0 0 0 -0.79863551827123203 0.60181501223851219 forward_v I I I I #
face $-1 $124 $125 $45 $-1 $126 forward single #
loop $-1 $127 $128 $59 #
cone-surface $-1 -12.382274436328196 -36.127300842061253 6.573274523345499 0 0.79863551827123203 -0.60181501223851219 0.5 0 0 1 I I 0 1 0.5 forward I I I I #
face $-1 $129 $130 $46 $-1 $131 forward single #
loop $-1 $132 $133 $60 #
cone-surface $-1 -4.2313797624572445 -36.127300842061253 6.573274523345499 0 0.79863551827123203 -0.60181501223851219 0.5 0 0 1 I I 0 1 0.5 forward I I I I #
face $-1 $134 $135 $47 $-1 $136 reversed single #
loop $-1 $-1 $137 $61 #
plane-surface $-1 24.22130425915563 -139.14378434569775 81.243706892629561 -1 0 0 0 -0.79863551827123203 0.60181501223851219 forward_v I I I I #
face $-1 $138 $139 $48 $-1 $140 forward single #
loop $-1 $141 $142 $62 #
cone-surface $-1 10.636479802704038 -36.127300842061253 6.573274523345499 0 0.79863551827123203 -0.60181501223851219 0.5 0 0 1 I I 0 1 0.5 forward I I I I #
face $-1 $143 $144 $49 $-1 $145 forward single #
loop $-1 $146 $147 $63 #
cone-surface $-1 18.787374476574989 -36.127300842061253 6.573274523345499 0 0.79863551827123203 -0.60181501223851219 0.5 0 0 1 I I 0 1 0.5 forward I I I I #
face $-1 $148 $149 $50 $-1 $150 reversed single #
loop $-1 $-1 $151 $64 #
plane-surface $-1 -17.81620421890883 93.468010311819455 141.85750802115464 1 0 0 0 -0.79863551827123203 -0.60181501223851219 forward_v I I I I #
face $-1 $152 $153 $51 $-1 $154 forward single #
loop $-1 $155 $156 $65 #
cone-surface $-1 -12.382274436328196 36.127300842061246 6.5732745233454848 0 -0.79863551827123203 -0.60181501223851219 0.5 0 0 1 I I 0 1 0.5 forward I I I I #
face $-1 $157 $158 $52 $-1 $159 forward single #
loop $-1 $160 $161 $66 #
cone-surface $-1 -4.2313797624572445 36.127300842061246 6.5732745233454848 0 -0.79863551827123203 -0.60181501223851219 0.5 0 0 1 I I 0 1 0.5 forward I I I I #
face $-1 $162 $163 $53 $-1 $164 reversed single #
loop $-1 $-1 $165 $67 #
plane-surface $-1 5.2025500201234109 93.468010311819455 141.85750802115464 1 0 0 0 -0.79863551827123203 -0.60181501223851219 forward_v I I I I #
face $-1 $166 $167 $54 $-1 $168 forward single #
loop $-1 $169 $170 $68 #
cone-surface $-1 10.636479802704038 36.127300842061246 6.5732745233454848 0 -0.79863551827123203 -0.60181501223851219 0.5 0 0 1 I I 0 1 0.5 forward I I I I #
face $-1 $171 $172 $55 $-1 $173 forward single #
loop $-1 $174 $175 $69 #
cone-surface $-1 18.787374476574989 36.127300842061246 6.5732745233454848 0 -0.79863551827123203 -0.60181501223851219 0.5 0 0 1 I I 0 1 0.5 forward I I I I #
face $-1 $176 $177 $42 $-1 $178 reversed single #
loop $-1 $-1 $179 $70 #
plane-surface $-1 0 0 -8.7608840290986052 0 0 1 1 0 0 forward_v I I I I #
coedge $-1 $180 $181 $182 $183 forward $71 $-1 #
face $-1 $184 $185 $43 $-1 $186 forward single #
loop $-1 $-1 $187 $73 #
plane-surface $-1 -56.950104891544335 -36.448350493935514 0 -1 0 0 0 0 1 forward_v I I I I #
coedge $-1 $188 $189 $190 $191 forward $74 $-1 #
face $-1 $192 $193 $44 $-1 $194 reversed single #
loop $-1 $-1 $195 $76 #
plane-surface $-1 -8.30682709939272 -37.948350493935493 4.9874800298309054 0 -0.79863551827123203 0.60181501223851219 1 0 0 forward_v I I I I #
coedge $-1 $196 $197 $198 $199 reversed $77 $-1 #
face $-1 $-1 $200 $45 $-1 $201 forward single #
loop $-1 $202 $203 $79 #
cone-surface $-1 -12.382274436328196 -35.528324203357826 6.121913264166615 0 0.79863551827123203 -0.60181501223851219 0.25 0 0 1 I I -0.70710678118654746 0.70710678118654746 0.25 forward I I I I #
loop $-1 $-1 $204 $59 #
coedge $-1 $128 $128 $205 $206 reversed $80 $-1 #
face $-1 $-1 $207 $46 $-1 $208 forward single #
loop $-1 $209 $210 $82 #
cone-surface $-1 -4.2313797624572445 -35.528324203357826 6.121913264166615 0 0.79863551827123203 -0.60181501223851219 0.25 0 0 1 I I -0.70710678118654746 0.70710678118654746 0.25 forward I I I I #
loop $-1 $-1 $211 $60 #
coedge $-1 $133 $133 $212 $213 reversed $83 $-1 #
face $-1 $214 $215 $47 $-1 $216 reversed single #
loop $-1 $-1 $217 $85 #
plane-surface $-1 14.711927139639521 -37.948350493935493 4.9874800298309054 0 -0.79863551827123203 0.60181501223851219 1 0 0 forward_v I I I I #
coedge $-1 $218 $219 $220 $221 reversed $86 $-1 #
face $-1 $-1 $222 $48 $-1 $223 forward single #
loop $-1 $224 $225 $88 #
cone-surface $-1 10.636479802704038 -35.528324203357826 6.121913264166615 0 0.79863551827123203 -0.60181501223851219 0.25 0 0 1 I I -0.70710678118654746 0.70710678118654746 0.25 forward I I I I #
loop $-1 $-1 $226 $62 #
coedge $-1 $142 $142 $227 $228 reversed $89 $-1 #
face $-1 $-1 $229 $49 $-1 $230 forward single #
loop $-1 $231 $232 $91 #
cone-surface $-1 18.787374476574989 -35.528324203357826 6.121913264166615 0 0.79863551827123203 -0.60181501223851219 0.25 0 0 1 I I -0.70710678118654746 0.70710678118654746 0.25 forward I I I I #
loop $-1 $-1 $233 $63 #
coedge $-1 $147 $147 $234 $235 reversed $92 $-1 #
face $-1 $236 $237 $50 $-1 $238 reversed single #
loop $-1 $-1 $239 $94 #
plane-surface $-1 -8.30682709939272 -7.7274235399428051 65.601281158355988 0 0.79863551827123203 0.60181501223851219 1 0 0 forward_v I I I I #
coedge $-1 $240 $241 $242 $243 reversed $95 $-1 #
face $-1 $-1 $244 $51 $-1 $245 forward single #
loop $-1 $246 $247 $97 #
cone-surface $-1 -12.382274436328196 35.528324203357819 6.1219132641666008 0 -0.79863551827123203 -0.60181501223851219 0.25 0 0 1 I I -0.70710678118654746 0.70710678118654746 0.25 forward I I I I #
loop $-1 $-1 $248 $65 #
coedge $-1 $156 $156 $249 $250 reversed $98 $-1 #
face $-1 $-1 $251 $52 $-1 $252 forward single #
loop $-1 $253 $254 $100 #
cone-surface $-1 -4.2313797624572445 35.528324203357819 6.1219132641666008 0 -0.79863551827123203 -0.60181501223851219 0.25 0 0 1 I I -0.70710678118654746 0.70710678118654746 0.25 forward I I I I #
loop $-1 $-1 $255 $66 #
coedge $-1 $161 $161 $256 $257 reversed $101 $-1 #
face $-1 $258 $259 $53 $-1 $260 reversed single #
loop $-1 $-1 $261 $103 #
plane-surface $-1 14.711927139639521 -7.7274235399428051 65.601281158355988 0 0.79863551827123203 0.60181501223851219 1 0 0 forward_v I I I I #
coedge $-1 $262 $263 $264 $265 reversed $104 $-1 #
face $-1 $-1 $266 $54 $-1 $267 forward single #
loop $-1 $268 $269 $106 #
cone-surface $-1 10.636479802704038 35.528324203357819 6.1219132641666008 0 -0.79863551827123203 -0.60181501223851219 0.25 0 0 1 I I -0.70710678118654746 0.70710678118654746 0.25 forward I I I I #
loop $-1 $-1 $270 $68 #
coedge $-1 $170 $170 $271 $272 reversed $107 $-1 #
face $-1 $-1 $273 $55 $-1 $274 forward single #
loop $-1 $275 $276 $109 #
cone-surface $-1 18.787374476574989 35.528324203357819 6.1219132641666008 0 -0.79863551827123203 -0.60181501223851219 0.25 0 0 1 I I -0.70710678118654746 0.70710678118654746 0.25 forward I I I I #
loop $-1 $-1 $277 $69 #
coedge $-1 $175 $175 $278 $279 reversed $110 $-1 #
face $-1 $280 $281 $42 $-1 $282 reversed single #
loop $-1 $-1 $283 $112 #
plane-surface $-1 0 -37.948350493935514 0 0 1 0 0 0 1 forward_v I I I I #
coedge $-1 $284 $285 $286 $287 forward $113 $-1 #
coedge $-1 $288 $115 $289 $290 forward $71 $-1 #
coedge $-1 $115 $288 $291 $292 forward $71 $-1 #
coedge $-1 $293 $294 $115 $183 reversed $295 $-1 #
edge $-1 $296 -37.948350493935514 $297 37.948350493935514 $182 $298 forward 7 unknown #
face $-1 $299 $300 $43 $-1 $301 reversed single #
loop $-1 $-1 $302 $116 #
plane-surface $-1 0 0 8.7608840290986052 0 0 1 1 0 0 forward_v I I I I #
coedge $-1 $303 $304 $305 $306 reversed $117 $-1 #
coedge $-1 $307 $119 $308 $309 reversed $74 $-1 #
coedge $-1 $119 $307 $310 $311 reversed $74 $-1 #
coedge $-1 $304 $303 $119 $191 reversed $117 $-1 #
edge $-1 $312 -8.7608840290986052 $313 8.7608840290986052 $190 $314 forward 7 unknown #
face $-1 $315 $316 $44 $-1 $317 forward single #
loop $-1 $-1 $318 $120 #
plane-surface $-1 -17.81620421890883 -139.14378434569775 81.243706892629561 1 0 0 0 0.79863551827123203 -0.60181501223851219 forward_v I I I I #
coedge $-1 $319 $320 $321 $322 reversed $121 $-1 #
coedge $-1 $197 $123 $323 $324 reversed $77 $-1 #
coedge $-1 $123 $196 $319 $325 reversed $77 $-1 #
coedge $-1 $321 $326 $123 $199 forward $316 $-1 #
edge $-1 $327 31.623541678913362 $328 34.467005464390681 $198 $329 forward 7 unknown #
loop $-1 $-1 $205 $124 #
plane-surface $-1 -8.30682709939272 -37.948350493935493 4.9874800298309054 0 -0.79863551827123203 0.60181501223851219 1 0 0 forward_v I I I I #
loop $-1 $-1 $330 $79 #
coedge $-1 $203 $203 $204 $331 reversed $125 $-1 #
coedge $-1 $204 $204 $203 $331 forward $127 $-1 #
coedge $-1 $205 $205 $128 $206 forward $200 $-1 #
edge $-1 $332 2.7566519022689083e-015 $332 6.2831853071796031 $205 $333 forward 7 unknown #
loop $-1 $-1 $212 $129 #
plane-surface $-1 -8.30682709939272 -37.948350493935493 4.9874800298309054 0 -0.79863551827123203 0.60181501223851219 1 0 0 forward_v I I I I #
loop $-1 $-1 $334 $82 #
coedge $-1 $210 $210 $211 $335 reversed $130 $-1 #
coedge $-1 $211 $211 $210 $335 forward $132 $-1 #
coedge $-1 $212 $212 $133 $213 forward $207 $-1 #
edge $-1 $336 2.7566519022689083e-015 $336 6.2831853071796031 $212 $337 forward 7 unknown #
face $-1 $338 $339 $47 $-1 $340 reversed single #
loop $-1 $-1 $341 $134 #
plane-surface $-1 5.2025500201234109 -139.14378434569775 81.243706892629561 1 0 0 0 0.79863551827123203 -0.60181501223851219 forward_v I I I I #
coedge $-1 $342 $343 $344 $345 reversed $135 $-1 #
coedge $-1 $219 $137 $346 $347 reversed $86 $-1 #
coedge $-1 $137 $218 $342 $348 reversed $86 $-1 #
coedge $-1 $344 $349 $137 $221 forward $350 $-1 #
edge $-1 $351 31.623541678913362 $352 34.467005464390681 $220 $353 forward 7 unknown #
loop $-1 $-1 $227 $138 #
plane-surface $-1 14.711927139639521 -37.948350493935493 4.9874800298309054 0 -0.79863551827123203 0.60181501223851219 1 0 0 forward_v I I I I #
loop $-1 $-1 $354 $88 #
coedge $-1 $225 $225 $226 $355 reversed $139 $-1 #
coedge $-1 $226 $226 $225 $355 forward $141 $-1 #
coedge $-1 $227 $227 $142 $228 forward $222 $-1 #
edge $-1 $356 2.7566519022689083e-015 $356 6.2831853071796031 $227 $357 forward 7 unknown #
loop $-1 $-1 $234 $143 #
plane-surface $-1 14.711927139639521 -37.948350493935493 4.9874800298309054 0 -0.79863551827123203 0.60181501223851219 1 0 0 forward_v I I I I #
loop $-1 $-1 $358 $91 #
coedge $-1 $232 $232 $233 $359 reversed $144 $-1 #
coedge $-1 $233 $233 $232 $359 forward $146 $-1 #
coedge $-1 $234 $234 $147 $235 forward $229 $-1 #
edge $-1 $360 2.7566519022689083e-015 $360 6.2831853071796031 $234 $361 forward 7 unknown #
face $-1 $362 $363 $50 $-1 $364 reversed single #
loop $-1 $-1 $365 $148 #
plane-surface $-1 1.2025500201233896 93.468010311819455 141.85750802115464 -1 0 0 0 0.79863551827123203 0.60181501223851219 forward_v I I I I #
coedge $-1 $366 $367 $368 $369 reversed $149 $-1 #
coedge $-1 $241 $151 $370 $371 reversed $95 $-1 #
coedge $-1 $151 $240 $366 $372 reversed $95 $-1 #
coedge $-1 $368 $373 $151 $243 forward $374 $-1 #
edge $-1 $375 8.7856546619742133 $376 11.629118447451546 $242 $377 forward 7 unknown #
loop $-1 $-1 $249 $152 #
plane-surface $-1 -8.30682709939272 -7.7274235399428051 65.601281158355988 0 0.79863551827123203 0.60181501223851219 1 0 0 forward_v I I I I #
loop $-1 $-1 $378 $97 #
coedge $-1 $247 $247 $248 $379 reversed $153 $-1 #
coedge $-1 $248 $248 $247 $379 forward $155 $-1 #
coedge $-1 $249 $249 $156 $250 forward $244 $-1 #
edge $-1 $380 -5.6343109463416549e-015 $380 6.2831853071795951 $249 $381 forward 7 unknown #
loop $-1 $-1 $256 $157 #
plane-surface $-1 -8.30682709939272 -7.7274235399428051 65.601281158355988 0 0.79863551827123203 0.60181501223851219 1 0 0 forward_v I I I I #
loop $-1 $-1 $382 $100 #
coedge $-1 $254 $254 $255 $383 reversed $158 $-1 #
coedge $-1 $255 $255 $254 $383 forward $160 $-1 #
coedge $-1 $256 $256 $161 $257 forward $251 $-1 #
edge $-1 $384 -5.6343109463416549e-015 $384 6.2831853071795951 $256 $385 forward 7 unknown #
face $-1 $386 $387 $53 $-1 $388 forward single #
loop $-1 $-1 $389 $162 #
plane-surface $-1 24.22130425915563 93.468010311819455 141.85750802115464 -1 0 0 0 0.79863551827123203 0.60181501223851219 forward_v I I I I #
coedge $-1 $390 $391 $392 $393 reversed $163 $-1 #
coedge $-1 $263 $165 $394 $395 reversed $104 $-1 #
coedge $-1 $165 $262 $390 $396 reversed $104 $-1 #
coedge $-1 $392 $397 $165 $265 forward $387 $-1 #
edge $-1 $398 8.7856546619742133 $399 11.629118447451546 $264 $400 forward 7 unknown #
loop $-1 $-1 $271 $166 #
plane-surface $-1 14.711927139639521 -7.7274235399428051 65.601281158355988 0 0.79863551827123203 0.60181501223851219 1 0 0 forward_v I I I I #
loop $-1 $-1 $401 $106 #
coedge $-1 $269 $269 $270 $402 reversed $167 $-1 #
coedge $-1 $270 $270 $269 $402 forward $169 $-1 #
coedge $-1 $271 $271 $170 $272 forward $266 $-1 #
edge $-1 $403 -5.6343109463416549e-015 $403 6.2831853071795951 $271 $404 forward 7 unknown #
loop $-1 $-1 $278 $171 #
plane-surface $-1 14.711927139639521 -7.7274235399428051 65.601281158355988 0 0.79863551827123203 0.60181501223851219 1 0 0 forward_v I I I I #
loop $-1 $-1 $405 $109 #
coedge $-1 $276 $276 $277 $406 reversed $172 $-1 #
coedge $-1 $277 $277 $276 $406 forward $174 $-1 #
coedge $-1 $278 $278 $175 $279 forward $273 $-1 #
edge $-1 $407 -5.6343109463416549e-015 $407 6.2831853071795951 $278 $408 forward 7 unknown #
face $-1 $409 $410 $42 $-1 $411 reversed single #
loop $-1 $-1 $412 $176 #
plane-surface $-1 -63.355204931791128 0 0 1 0 0 0 0 -1 forward_v I I I I #
coedge $-1 $413 $291 $414 $415 forward $177 $-1 #
coedge $-1 $416 $179 $413 $417 forward $113 $-1 #
coedge $-1 $179 $416 $418 $419 forward $113 $-1 #
coedge $-1 $294 $293 $179 $287 reversed $295 $-1 #
edge $-1 $420 -37.948350493935514 $421 37.948350493935514 $286 $422 forward 7 unknown #
coedge $-1 $181 $180 $423 $424 forward $71 $-1 #
coedge $-1 $425 $426 $180 $290 reversed $410 $-1 #
edge $-1 $297 -63.355204931791128 $427 63.355204931791128 $289 $428 forward 7 unknown #
coedge $-1 $283 $429 $181 $292 reversed $177 $-1 #
edge $-1 $430 -63.355204931791128 $296 63.355204931791128 $291 $431 forward 7 unknown #
coedge $-1 $286 $182 $429 $432 forward $295 $-1 #
coedge $-1 $182 $286 $425 $433 reversed $295 $-1 #
loop $-1 $-1 $293 $409 #
vertex $-1 $183 $434 #
vertex $-1 $183 $435 #
straight-curve $-1 63.355204931791128 0 8.7608840290986052 0 1 0 I I #
face $-1 $436 $437 $43 $-1 $438 reversed single #
loop $-1 $-1 $439 $184 #
plane-surface $-1 -63.355204931791128 0 0 1 0 0 0 0 -1 forward_v I I I I #
coedge $-1 $310 $440 $304 $441 forward $185 $-1 #
coedge $-1 $190 $187 $442 $443 reversed $117 $-1 #
coedge $-1 $187 $190 $302 $441 reversed $117 $-1 #
coedge $-1 $444 $445 $187 $306 forward $446 $-1 #
edge $-1 $447 -8.7608840290986052 $448 8.7608840290986052 $305 $449 forward 7 unknown #
coedge $-1 $189 $188 $439 $450 reversed $74 $-1 #
coedge $-1 $442 $451 $188 $309 forward $437 $-1 #
edge $-1 $452 -33.278877475957259 $313 -26.873777435710469 $308 $453 forward 7 unknown #
coedge $-1 $454 $302 $189 $311 forward $185 $-1 #
edge $-1 $312 26.873777435710469 $455 33.278877475957259 $310 $456 forward 7 unknown #
vertex $-1 $311 $457 #
vertex $-1 $309 $458 #
straight-curve $-1 -56.950104891544335 -34.948350493935514 0 0 0 -1 I I #
face $-1 $-1 $459 $44 $-1 $460 reversed single #
loop $-1 $-1 $198 $192 #
plane-surface $-1 0 0 8.7608840290986052 0 0 1 1 0 0 forward_v I I I I #
coedge $-1 $461 $462 $463 $464 reversed $193 $-1 #
coedge $-1 $465 $195 $197 $325 forward $121 $-1 #
coedge $-1 $195 $465 $461 $466 forward $121 $-1 #
coedge $-1 $463 $198 $195 $322 forward $316 $-1 #
edge $-1 $328 -5.3559635698197496 $467 13.66279066921247 $321 $468 forward 7 unknown #
coedge $-1 $469 $470 $196 $324 forward $459 $-1 #
edge $-1 $471 -35.634373416483903 $327 -31.860969417216175 $323 $472 forward 7 unknown #
edge $-1 $328 -4.7248136514586845 $471 3.5527045197628586e-014 $197 $473 forward 7 unknown #
coedge $-1 $198 $463 $469 $474 forward $316 $-1 #
vertex $-1 $324 $475 #
vertex $-1 $199 $476 #
straight-curve $-1 1.2025500201233896 -69.571892172848877 8.7608840290986052 0 1 0 I I #
coedge $-1 $330 $330 $-1 $477 reversed $202 $-1 #
edge $-1 $478 0 $478 6.2831853071796004 $203 $479 forward 7 unknown #
vertex $-1 $206 $480 #
ellipse-curve $-1 -12.382274436328196 -36.526618601196851 6.8741820294647429 0 -0.79863551827123203 0.60181501223851219 0.5 0 0 1 I I #
coedge $-1 $334 $334 $-1 $481 reversed $209 $-1 #
edge $-1 $482 0 $482 6.2831853071796004 $210 $483 forward 7 unknown #
vertex $-1 $213 $484 #
ellipse-curve $-1 -4.2313797624572445 -36.526618601196851 6.8741820294647429 0 -0.79863551827123203 0.60181501223851219 0.5 0 0 1 I I #
face $-1 $-1 $350 $47 $-1 $485 forward single #
loop $-1 $-1 $486 $214 #
plane-surface $-1 0 -37.948350493935514 0 0 1 0 0 0 1 forward_v I I I I #
coedge $-1 $487 $488 $489 $490 reversed $215 $-1 #
coedge $-1 $491 $217 $219 $348 forward $135 $-1 #
coedge $-1 $217 $491 $487 $492 forward $135 $-1 #
coedge $-1 $489 $220 $217 $345 forward $350 $-1 #
edge $-1 $352 -16.86534068933587 $493 2.1534135496963493 $344 $494 forward 7 unknown #
coedge $-1 $495 $496 $218 $347 forward $339 $-1 #
edge $-1 $497 -35.634373416483903 $351 -31.860969417216175 $346 $498 forward 7 unknown #
edge $-1 $352 -4.7248136514586845 $497 3.5527045197628586e-014 $219 $499 forward 7 unknown #
coedge $-1 $220 $489 $495 $500 forward $350 $-1 #
loop $-1 $-1 $489 $338 #
vertex $-1 $347 $501 #
vertex $-1 $221 $502 #
straight-curve $-1 24.22130425915563 -69.571892172848877 8.7608840290986052 0 1 0 I I #
coedge $-1 $354 $354 $-1 $503 reversed $224 $-1 #
edge $-1 $504 0 $504 6.2831853071796004 $225 $505 forward 7 unknown #
vertex $-1 $228 $506 #
ellipse-curve $-1 10.636479802704038 -36.526618601196851 6.8741820294647429 0 -0.79863551827123203 0.60181501223851219 0.5 0 0 1 I I #
coedge $-1 $358 $358 $-1 $507 reversed $231 $-1 #
edge $-1 $508 0 $508 6.2831853071796004 $232 $509 forward 7 unknown #
vertex $-1 $235 $510 #
ellipse-curve $-1 18.787374476574989 -36.526618601196851 6.8741820294647429 0 -0.79863551827123203 0.60181501223851219 0.5 0 0 1 I I #
face $-1 $-1 $374 $50 $-1 $511 forward single #
loop $-1 $-1 $512 $236 #
plane-surface $-1 0 37.948350493935514 0 0 -1 0 0 0 -1 forward_v I I I I #
coedge $-1 $513 $514 $515 $516 reversed $237 $-1 #
coedge $-1 $517 $239 $241 $372 forward $149 $-1 #
coedge $-1 $239 $517 $513 $518 forward $149 $-1 #
coedge $-1 $515 $242 $239 $369 forward $374 $-1 #
edge $-1 $376 -13.66279066921247 $519 5.3559635698197496 $368 $520 forward 7 unknown #
coedge $-1 $521 $522 $240 $371 forward $363 $-1 #
edge $-1 $523 -65.941273980746473 $375 -62.167869981478717 $370 $524 forward 7 unknown #
edge $-1 $376 71.171887336412311 $523 75.896700987871057 $241 $525 forward 7 unknown #
coedge $-1 $242 $515 $521 $526 forward $374 $-1 #
loop $-1 $-1 $515 $362 #
vertex $-1 $371 $527 #
vertex $-1 $243 $528 #
straight-curve $-1 -17.81620421890883 46.734005155909728 8.7608840290986052 0 -1 0 I I #
coedge $-1 $378 $378 $-1 $529 reversed $246 $-1 #
edge $-1 $530 0 $530 6.2831853071796004 $247 $531 forward 7 unknown #
vertex $-1 $250 $532 #
ellipse-curve $-1 -12.382274436328196 36.526618601196851 6.8741820294647322 0 0.79863551827123203 0.60181501223851219 0.5 0 0 1 I I #
coedge $-1 $382 $382 $-1 $533 reversed $253 $-1 #
edge $-1 $534 0 $534 6.2831853071796004 $254 $535 forward 7 unknown #
vertex $-1 $257 $536 #
ellipse-curve $-1 -4.2313797624572445 36.526618601196851 6.8741820294647322 0 0.79863551827123203 0.60181501223851219 0.5 0 0 1 I I #
face $-1 $-1 $537 $53 $-1 $538 reversed single #
loop $-1 $-1 $264 $258 #
plane-surface $-1 0 0 8.7608840290986052 0 0 1 1 0 0 forward_v I I I I #
coedge $-1 $539 $540 $541 $542 reversed $259 $-1 #
coedge $-1 $543 $261 $263 $396 forward $163 $-1 #
coedge $-1 $261 $543 $539 $544 forward $163 $-1 #
coedge $-1 $541 $264 $261 $393 forward $387 $-1 #
edge $-1 $399 -2.1534135496963493 $545 16.86534068933587 $392 $546 forward 7 unknown #
coedge $-1 $547 $548 $262 $395 forward $537 $-1 #
edge $-1 $549 -65.941273980746473 $398 -62.167869981478717 $394 $550 forward 7 unknown #
edge $-1 $399 71.171887336412311 $549 75.896700987871057 $263 $551 forward 7 unknown #
coedge $-1 $264 $541 $547 $552 forward $387 $-1 #
vertex $-1 $395 $553 #
vertex $-1 $265 $554 #
straight-curve $-1 5.2025500201234109 46.734005155909728 8.7608840290986052 0 -1 0 I I #
coedge $-1 $401 $401 $-1 $555 reversed $268 $-1 #
edge $-1 $556 0 $556 6.2831853071796004 $269 $557 forward 7 unknown #
vertex $-1 $272 $558 #
ellipse-curve $-1 10.636479802704038 36.526618601196851 6.8741820294647322 0 0.79863551827123203 0.60181501223851219 0.5 0 0 1 I I #
coedge $-1 $405 $405 $-1 $559 reversed $275 $-1 #
edge $-1 $560 0 $560 6.2831853071796004 $276 $561 forward 7 unknown #
vertex $-1 $279 $562 #
ellipse-curve $-1 18.787374476574989 36.526618601196851 6.8741820294647322 0 0.79863551827123203 0.60181501223851219 0.5 0 0 1 I I #
face $-1 $-1 $295 $42 $-1 $563 reversed single #
loop $-1 $-1 $425 $280 #
plane-surface $-1 0 37.948350493935514 0 0 -1 0 0 0 -1 forward_v I I I I #
coedge $-1 $564 $423 $426 $565 forward $281 $-1 #
coedge $-1 $429 $283 $284 $417 reversed $177 $-1 #
coedge $-1 $423 $564 $283 $415 reversed $281 $-1 #
edge $-1 $430 -8.7608840290986052 $566 8.7608840290986052 $414 $567 forward 7 unknown #
coedge $-1 $285 $284 $564 $568 forward $113 $-1 #
edge $-1 $421 -63.355204931791128 $566 63.355204931791128 $413 $569 forward 7 unknown #
coedge $-1 $426 $425 $285 $419 reversed $410 $-1 #
edge $-1 $570 -63.355204931791128 $420 63.355204931791128 $418 $571 forward 7 unknown #
vertex $-1 $287 $572 #
vertex $-1 $432 $573 #
straight-curve $-1 63.355204931791128 0 -8.7608840290986052 0 -1 0 I I #
coedge $-1 $412 $414 $288 $424 reversed $281 $-1 #
edge $-1 $427 -37.948350493935514 $430 37.948350493935514 $423 $574 forward 7 unknown #
coedge $-1 $418 $289 $294 $433 forward $410 $-1 #
coedge $-1 $289 $418 $412 $565 reversed $410 $-1 #
vertex $-1 $290 $575 #
straight-curve $-1 0 37.948350493935514 8.7608840290986052 -1 0 0 I I #
coedge $-1 $291 $413 $293 $432 reversed $177 $-1 #
vertex $-1 $424 $576 #
straight-curve $-1 0 -37.948350493935514 8.7608840290986052 1 0 0 I I #
edge $-1 $296 -8.7608840290986052 $421 8.7608840290986052 $293 $577 forward 7 unknown #
edge $-1 $297 -8.7608840290986052 $420 8.7608840290986052 $294 $578 forward 7 unknown #
point $-1 63.355204931791128 -37.948350493935514 8.7608840290986052 #
point $-1 63.355204931791128 37.948350493935514 8.7608840290986052 #
face $-1 $-1 $446 $43 $-1 $579 reversed single #
loop $-1 $-1 $442 $299 #
plane-surface $-1 0 0 -8.7608840290986052 0 0 1 1 0 0 forward_v I I I I #
coedge $-1 $580 $581 $307 $450 forward $300 $-1 #
coedge $-1 $302 $454 $444 $582 forward $185 $-1 #
edge $-1 $448 -19.724175246967757 $312 -16.724175246967757 $302 $583 forward 7 unknown #
coedge $-1 $584 $308 $303 $443 forward $437 $-1 #
edge $-1 $313 16.724175246967757 $447 19.724175246967757 $442 $585 forward 7 unknown #
coedge $-1 $586 $305 $440 $582 reversed $446 $-1 #
coedge $-1 $305 $586 $584 $587 reversed $446 $-1 #
loop $-1 $-1 $305 $436 #
vertex $-1 $587 $588 #
vertex $-1 $306 $589 #
straight-curve $-1 -56.950104891544335 -37.948350493935514 0 0 0 1 I I #
edge $-1 $455 -8.7608840290986052 $452 8.7608840290986052 $439 $590 forward 7 unknown #
coedge $-1 $308 $584 $580 $591 forward $437 $-1 #
vertex $-1 $309 $592 #
straight-curve $-1 -30.076327455833866 -34.948350493935514 -8.7608840290986052 1 0 0 I I #
coedge $-1 $440 $310 $581 $593 forward $185 $-1 #
vertex $-1 $593 $594 #
straight-curve $-1 -30.076327455833866 -34.948350493935514 8.7608840290986052 -1 0 0 I I #
point $-1 -56.950104891544335 -34.948350493935514 8.7608840290986052 #
point $-1 -56.950104891544335 -34.948350493935514 -8.7608840290986052 #
loop $-1 $-1 $323 $315 #
plane-surface $-1 0 -37.948350493935514 0 0 1 0 0 0 1 forward_v I I I I #
coedge $-1 $462 $318 $320 $466 reversed $193 $-1 #
coedge $-1 $318 $461 $595 $596 reversed $193 $-1 #
coedge $-1 $326 $321 $318 $464 forward $316 $-1 #
edge $-1 $467 -34.467005464390681 $597 -31.623541678913362 $463 $598 forward 7 unknown #
coedge $-1 $320 $319 $470 $599 reversed $121 $-1 #
edge $-1 $600 -3.5527045197628586e-014 $467 4.7248136514586845 $461 $601 forward 7 unknown #
vertex $-1 $322 $602 #
straight-curve $-1 -4.15341354969636 -35.104886708458196 8.7608840290986052 -1 0 0 I I #
coedge $-1 $595 $323 $326 $474 reversed $459 $-1 #
coedge $-1 $323 $595 $465 $599 forward $459 $-1 #
vertex $-1 $324 $603 #
straight-curve $-1 1.2025500201233896 -37.948350493935514 40.62185344631478 0 0 1 I I #
straight-curve $-1 1.2025500201233896 -37.948350493935493 4.9874800298309054 0 -0.60181501223851219 -0.79863551827123203 I I #
edge $-1 $597 -17.81620421890883 $327 1.2025500201233896 $469 $604 forward 7 unknown #
point $-1 1.2025500201233896 -37.948350493935514 8.7608840290986052 #
point $-1 1.2025500201233896 -35.104886708458196 8.7608840290986052 #
edge $-1 $605 1 $605 0 $330 $-1 forward 7 unknown #
vertex $-1 $331 $606 #
ellipse-curve $-1 -12.382274436328196 -35.727983082925633 6.2723670172262427 0 -0.79863551827123203 0.60181501223851219 0.5 0 0 1 I I #
point $-1 -11.882274436328196 -36.526618601196866 6.8741820294647553 #
edge $-1 $607 1 $607 0 $334 $-1 forward 7 unknown #
vertex $-1 $335 $608 #
ellipse-curve $-1 -4.2313797624572445 -35.727983082925633 6.2723670172262427 0 -0.79863551827123203 0.60181501223851219 0.5 0 0 1 I I #
point $-1 -3.7313797624572445 -36.526618601196866 6.8741820294647553 #
plane-surface $-1 0 0 8.7608840290986052 0 0 1 1 0 0 forward_v I I I I #
coedge $-1 $496 $495 $488 $609 forward $339 $-1 #
coedge $-1 $488 $341 $343 $492 reversed $215 $-1 #
coedge $-1 $341 $487 $486 $609 reversed $215 $-1 #
coedge $-1 $349 $344 $341 $490 forward $350 $-1 #
edge $-1 $493 -34.467005464390681 $610 -31.623541678913362 $489 $611 forward 7 unknown #
coedge $-1 $343 $342 $496 $612 reversed $135 $-1 #
edge $-1 $613 -3.5527045197628586e-014 $493 4.7248136514586845 $487 $614 forward 7 unknown #
vertex $-1 $345 $615 #
straight-curve $-1 7.3559635698197603 -35.104886708458196 8.7608840290986052 -1 0 0 I I #
coedge $-1 $486 $346 $349 $500 reversed $339 $-1 #
coedge $-1 $346 $486 $491 $612 forward $339 $-1 #
vertex $-1 $347 $616 #
straight-curve $-1 24.22130425915563 -37.948350493935514 40.62185344631478 0 0 1 I I #
straight-curve $-1 24.22130425915563 -37.948350493935493 4.9874800298309054 0 -0.60181501223851219 -0.79863551827123203 I I #
edge $-1 $610 5.2025500201234109 $351 24.22130425915563 $495 $617 forward 7 unknown #
point $-1 24.22130425915563 -37.948350493935514 8.7608840290986052 #
point $-1 24.22130425915563 -35.104886708458196 8.7608840290986052 #
edge $-1 $618 1 $618 0 $354 $-1 forward 7 unknown #
vertex $-1 $355 $619 #
ellipse-curve $-1 10.636479802704038 -35.727983082925633 6.2723670172262427 0 -0.79863551827123203 0.60181501223851219 0.5 0 0 1 I I #
point $-1 11.136479802704038 -36.526618601196866 6.8741820294647553 #
edge $-1 $620 1 $620 0 $358 $-1 forward 7 unknown #
vertex $-1 $359 $621 #
ellipse-curve $-1 18.787374476574989 -35.727983082925633 6.2723670172262427 0 -0.79863551827123203 0.60181501223851219 0.5 0 0 1 I I #
point $-1 19.287374476574989 -36.526618601196866 6.8741820294647553 #
plane-surface $-1 0 0 8.7608840290986052 0 0 1 1 0 0 forward_v I I I I #
coedge $-1 $522 $521 $514 $622 forward $363 $-1 #
coedge $-1 $514 $365 $367 $518 reversed $237 $-1 #
coedge $-1 $365 $513 $512 $622 reversed $237 $-1 #
coedge $-1 $373 $368 $365 $516 forward $374 $-1 #
edge $-1 $519 -11.629118447451546 $623 -8.7856546619742133 $515 $624 forward 7 unknown #
coedge $-1 $367 $366 $522 $625 reversed $149 $-1 #
edge $-1 $626 -75.896700987871057 $519 -71.171887336412311 $513 $627 forward 7 unknown #
vertex $-1 $369 $628 #
straight-curve $-1 -4.15341354969636 35.104886708458174 8.7608840290986052 1 0 0 I I #
coedge $-1 $512 $370 $373 $526 reversed $363 $-1 #
coedge $-1 $370 $512 $517 $625 forward $363 $-1 #
vertex $-1 $371 $629 #
straight-curve $-1 -17.81620421890883 37.948350493935514 70.928754010577322 0 0 1 I I #
straight-curve $-1 -17.81620421890883 -7.7274235399428051 65.601281158355988 0 0.60181501223851219 -0.79863551827123203 I I #
edge $-1 $623 -1.2025500201233896 $375 17.81620421890883 $521 $630 forward 7 unknown #
point $-1 -17.81620421890883 37.948350493935514 8.7608840290986052 #
point $-1 -17.81620421890883 35.104886708458181 8.7608840290986052 #
edge $-1 $631 1 $631 0 $378 $-1 forward 7 unknown #
vertex $-1 $379 $632 #
ellipse-curve $-1 -12.382274436328196 35.727983082925626 6.2723670172262285 0 0.79863551827123203 0.60181501223851219 0.5 0 0 1 I I #
point $-1 -11.882274436328196 36.526618601196859 6.8741820294647411 #
edge $-1 $633 1 $633 0 $382 $-1 forward 7 unknown #
vertex $-1 $383 $634 #
ellipse-curve $-1 -4.2313797624572445 35.727983082925626 6.2723670172262285 0 0.79863551827123203 0.60181501223851219 0.5 0 0 1 I I #
point $-1 -3.7313797624572445 36.526618601196859 6.8741820294647411 #
loop $-1 $-1 $394 $386 #
plane-surface $-1 0 37.948350493935514 0 0 -1 0 0 0 -1 forward_v I I I I #
coedge $-1 $540 $389 $391 $544 reversed $259 $-1 #
coedge $-1 $389 $539 $635 $636 reversed $259 $-1 #
coedge $-1 $397 $392 $389 $542 forward $387 $-1 #
edge $-1 $545 -11.629118447451546 $637 -8.7856546619742133 $541 $638 forward 7 unknown #
coedge $-1 $391 $390 $548 $639 reversed $163 $-1 #
edge $-1 $640 -75.896700987871057 $545 -71.171887336412311 $539 $641 forward 7 unknown #
vertex $-1 $393 $642 #
straight-curve $-1 7.3559635698197603 35.104886708458174 8.7608840290986052 1 0 0 I I #
coedge $-1 $635 $394 $397 $552 reversed $537 $-1 #
coedge $-1 $394 $635 $543 $639 forward $537 $-1 #
vertex $-1 $395 $643 #
straight-curve $-1 5.2025500201234109 37.948350493935514 70.928754010577322 0 0 1 I I #
straight-curve $-1 5.2025500201234109 -7.7274235399428051 65.601281158355988 0 0.60181501223851219 -0.79863551827123203 I I #
edge $-1 $637 -24.22130425915563 $398 -5.2025500201234109 $547 $644 forward 7 unknown #
point $-1 5.2025500201234109 37.948350493935514 8.7608840290986052 #
point $-1 5.2025500201234109 35.104886708458181 8.7608840290986052 #
edge $-1 $645 1 $645 0 $401 $-1 forward 7 unknown #
vertex $-1 $402 $646 #
ellipse-curve $-1 10.636479802704038 35.727983082925626 6.2723670172262285 0 0.79863551827123203 0.60181501223851219 0.5 0 0 1 I I #
point $-1 11.136479802704038 36.526618601196859 6.8741820294647411 #
edge $-1 $647 1 $647 0 $405 $-1 forward 7 unknown #
vertex $-1 $406 $648 #
ellipse-curve $-1 18.787374476574989 35.727983082925626 6.2723670172262285 0 0.79863551827123203 0.60181501223851219 0.5 0 0 1 I I #
point $-1 19.287374476574989 36.526618601196859 6.8741820294647411 #
plane-surface $-1 63.355204931791128 0 0 -1 0 0 0 0 1 forward_v I I I I #
coedge $-1 $414 $412 $416 $568 reversed $281 $-1 #
edge $-1 $427 -8.7608840290986052 $570 8.7608840290986052 $426 $649 forward 7 unknown #
vertex $-1 $568 $650 #
straight-curve $-1 -63.355204931791128 -37.948350493935514 0 0 0 -1 I I #
edge $-1 $566 -37.948350493935514 $570 37.948350493935514 $564 $651 forward 7 unknown #
straight-curve $-1 0 -37.948350493935514 -8.7608840290986052 -1 0 0 I I #
vertex $-1 $419 $652 #
straight-curve $-1 0 37.948350493935514 -8.7608840290986052 1 0 0 I I #
point $-1 63.355204931791128 37.948350493935514 -8.7608840290986052 #
point $-1 63.355204931791128 -37.948350493935514 -8.7608840290986052 #
straight-curve $-1 -63.355204931791128 0 8.7608840290986052 0 -1 0 I I #
point $-1 -63.355204931791128 37.948350493935514 8.7608840290986052 #
point $-1 -63.355204931791128 -37.948350493935514 8.7608840290986052 #
straight-curve $-1 63.355204931791128 -37.948350493935514 0 0 0 -1 I I #
straight-curve $-1 63.355204931791128 37.948350493935514 0 0 0 -1 I I #
plane-surface $-1 0 -37.948350493935514 0 0 1 0 0 0 1 forward_v I I I I #
coedge $-1 $653 $439 $451 $591 reversed $300 $-1 #
coedge $-1 $439 $653 $454 $593 reversed $300 $-1 #
edge $-1 $654 -63.355204931791128 $448 -56.950104891544335 $444 $655 forward 7 unknown #
straight-curve $-1 -56.950104891544335 -18.224175246967757 8.7608840290986052 0 1 0 I I #
coedge $-1 $451 $442 $445 $587 forward $437 $-1 #
straight-curve $-1 -56.950104891544335 -18.224175246967757 -8.7608840290986052 0 -1 0 I I #
coedge $-1 $445 $444 $653 $656 forward $446 $-1 #
edge $-1 $447 56.950104891544335 $657 63.355204931791128 $445 $658 forward 7 unknown #
point $-1 -56.950104891544335 -37.948350493935514 -8.7608840290986052 #
point $-1 -56.950104891544335 -37.948350493935514 8.7608840290986052 #
straight-curve $-1 -63.355204931791128 -34.948350493935514 0 0 0 -1 I I #
edge $-1 $657 -37.948350493935514 $452 -34.948350493935514 $580 $659 forward 7 unknown #
point $-1 -63.355204931791128 -34.948350493935514 -8.7608840290986052 #
edge $-1 $455 34.948350493935514 $654 37.948350493935514 $581 $660 forward 7 unknown #
point $-1 -63.355204931791128 -34.948350493935514 8.7608840290986052 #
coedge $-1 $470 $469 $462 $596 forward $459 $-1 #
edge $-1 $597 31.860969417216175 $600 35.634373416483903 $595 $661 forward 7 unknown #
vertex $-1 $474 $662 #
straight-curve $-1 -17.81620421890883 -69.571892172848877 8.7608840290986052 0 -1 0 I I #
edge $-1 $600 -13.66279066921247 $471 5.3559635698197496 $470 $663 forward 7 unknown #
vertex $-1 $599 $664 #
straight-curve $-1 -17.81620421890883 -37.948350493935493 4.9874800298309054 0 0.60181501223851219 0.79863551827123203 I I #
point $-1 -17.81620421890883 -35.104886708458196 8.7608840290986052 #
point $-1 1.2025500201233896 -37.948350493935514 4.987480029830877 #
straight-curve $-1 0 -37.948350493935514 8.7608840290986052 1 0 0 I I #
vertex $-1 $477 $665 #
point $-1 -11.882274436328196 -35.727983082925633 6.2723670172262427 #
vertex $-1 $481 $666 #
point $-1 -3.7313797624572445 -35.727983082925633 6.2723670172262427 #
edge $-1 $610 31.860969417216175 $613 35.634373416483903 $486 $667 forward 7 unknown #
vertex $-1 $500 $668 #
straight-curve $-1 5.2025500201234109 -69.571892172848877 8.7608840290986052 0 -1 0 I I #
edge $-1 $613 -2.1534135496963493 $497 16.86534068933587 $496 $669 forward 7 unknown #
vertex $-1 $612 $670 #
straight-curve $-1 5.2025500201234109 -37.948350493935493 4.9874800298309054 0 0.60181501223851219 0.79863551827123203 I I #
point $-1 5.2025500201234109 -35.104886708458196 8.7608840290986052 #
point $-1 24.22130425915563 -37.948350493935514 4.987480029830877 #
straight-curve $-1 0 -37.948350493935514 8.7608840290986052 1 0 0 I I #
vertex $-1 $503 $671 #
point $-1 11.136479802704038 -35.727983082925633 6.2723670172262427 #
vertex $-1 $507 $672 #
point $-1 19.287374476574989 -35.727983082925633 6.2723670172262427 #
edge $-1 $623 62.167869981478717 $626 65.941273980746473 $512 $673 forward 7 unknown #
vertex $-1 $526 $674 #
straight-curve $-1 1.2025500201233896 46.734005155909728 8.7608840290986052 0 1 0 I I #
edge $-1 $626 -5.3559635698197496 $523 13.66279066921247 $522 $675 forward 7 unknown #
vertex $-1 $625 $676 #
straight-curve $-1 1.2025500201233896 -7.7274235399428051 65.601281158355988 0 -0.60181501223851219 0.79863551827123203 I I #
point $-1 1.2025500201233896 35.104886708458181 8.7608840290986052 #
point $-1 -17.81620421890883 37.948350493935514 4.9874800298308557 #
straight-curve $-1 0 37.948350493935514 8.7608840290986052 -1 0 0 I I #
vertex $-1 $529 $677 #
point $-1 -11.882274436328196 35.727983082925626 6.2723670172262285 #
vertex $-1 $533 $678 #
point $-1 -3.7313797624572445 35.727983082925626 6.2723670172262285 #
coedge $-1 $548 $547 $540 $636 forward $537 $-1 #
edge $-1 $637 62.167869981478717 $640 65.941273980746473 $635 $679 forward 7 unknown #
vertex $-1 $552 $680 #
straight-curve $-1 24.22130425915563 46.734005155909728 8.7608840290986052 0 1 0 I I #
edge $-1 $640 -16.86534068933587 $549 2.1534135496963493 $548 $681 forward 7 unknown #
vertex $-1 $639 $682 #
straight-curve $-1 24.22130425915563 -7.7274235399428051 65.601281158355988 0 -0.60181501223851219 0.79863551827123203 I I #
point $-1 24.22130425915563 35.104886708458181 8.7608840290986052 #
point $-1 5.2025500201234109 37.948350493935514 4.9874800298308557 #
straight-curve $-1 0 37.948350493935514 8.7608840290986052 -1 0 0 I I #
vertex $-1 $555 $683 #
point $-1 11.136479802704038 35.727983082925626 6.2723670172262285 #
vertex $-1 $559 $684 #
point $-1 19.287374476574989 35.727983082925626 6.2723670172262285 #
straight-curve $-1 -63.355204931791128 37.948350493935514 0 0 0 -1 I I #
point $-1 -63.355204931791128 -37.948350493935514 -8.7608840290986052 #
straight-curve $-1 -63.355204931791128 0 -8.7608840290986052 0 1 0 I I #
point $-1 -63.355204931791128 37.948350493935514 -8.7608840290986052 #
coedge $-1 $581 $580 $586 $656 reversed $300 $-1 #
vertex $-1 $593 $685 #
straight-curve $-1 0 -37.948350493935514 8.7608840290986052 1 0 0 I I #
edge $-1 $654 -8.7608840290986052 $657 8.7608840290986052 $653 $686 forward 7 unknown #
vertex $-1 $591 $687 #
straight-curve $-1 0 -37.948350493935514 -8.7608840290986052 -1 0 0 I I #
straight-curve $-1 -63.355204931791128 0 -8.7608840290986052 0 1 0 I I #
straight-curve $-1 -63.355204931791128 0 8.7608840290986052 0 -1 0 I I #
straight-curve $-1 -17.81620421890883 -37.948350493935514 40.62185344631478 0 0 -1 I I #
point $-1 -17.81620421890883 -37.948350493935514 8.7608840290986052 #
straight-curve $-1 -4.15341354969636 -37.948350493935514 4.9874800298308832 1 0 0 I I #
point $-1 -17.81620421890883 -37.948350493935514 4.987480029830877 #
point $-1 -12.382274436328196 -35.32866532379002 5.9714595111069873 #
point $-1 -4.2313797624572445 -35.32866532379002 5.9714595111069873 #
straight-curve $-1 5.2025500201234109 -37.948350493935514 40.62185344631478 0 0 -1 I I #
point $-1 5.2025500201234109 -37.948350493935514 8.7608840290986052 #
straight-curve $-1 7.3559635698197603 -37.948350493935514 4.9874800298308832 1 0 0 I I #
point $-1 5.2025500201234109 -37.948350493935514 4.987480029830877 #
point $-1 10.636479802704038 -35.32866532379002 5.9714595111069873 #
point $-1 18.787374476574989 -35.32866532379002 5.9714595111069873 #
straight-curve $-1 1.2025500201233896 37.948350493935514 70.928754010577322 0 0 -1 I I #
point $-1 1.2025500201233896 37.948350493935514 8.7608840290986052 #
straight-curve $-1 -4.15341354969636 37.948350493935514 4.9874800298308593 -1 0 0 I I #
point $-1 1.2025500201233896 37.948350493935514 4.9874800298308557 #
point $-1 -12.382274436328196 35.328665323790013 5.971459511106973 #
point $-1 -4.2313797624572445 35.328665323790013 5.971459511106973 #
straight-curve $-1 24.22130425915563 37.948350493935514 70.928754010577322 0 0 -1 I I #
point $-1 24.22130425915563 37.948350493935514 8.7608840290986052 #
straight-curve $-1 7.3559635698197603 37.948350493935514 4.9874800298308593 -1 0 0 I I #
point $-1 24.22130425915563 37.948350493935514 4.9874800298308557 #
point $-1 10.636479802704038 35.328665323790013 5.971459511106973 #
point $-1 18.787374476574989 35.328665323790013 5.971459511106973 #
point $-1 -63.355204931791128 -37.948350493935514 8.7608840290986052 #
straight-curve $-1 -63.355204931791128 -37.948350493935514 0 0 0 -1 I I #
point $-1 -63.355204931791128 -37.948350493935514 -8.7608840290986052 #
End-of-ACIS-data 