500 0 5 0           
7 Unknown 11 ACIS 5.0 NT 24 Thu Mar 25 16:10:24 1999 
-1 9.9999999999999995e-007 1e-010 
body $-1 $5 $-1 $6 #
body $-1 $7 $-1 $8 #
body $-1 $9 $-1 $10 #
body $-1 $11 $-1 $12 #
body $-1 $13 $-1 $14 #
lump $-1 $-1 $15 $0 #
transform $-1 1 0 0 0 1 0 0 0 1 46.73970763267922 29.895183157947152 11.482461855963129 1 rotate no_reflect no_shear #
lump $-1 $-1 $16 $1 #
transform $-1 1 0 0 0 1 0 0 0 1 46.73970763267922 29.895183157947152 11.482461855963129 1 rotate no_reflect no_shear #
lump $-1 $-1 $17 $2 #
transform $-1 1 0 0 0 1 0 0 0 1 46.73970763267922 29.895183157947152 11.482461855963129 1 rotate no_reflect no_shear #
lump $-1 $-1 $18 $3 #
transform $-1 1 0 0 0 1 0 0 0 1 46.73970763267922 29.895183157947152 11.482461855963129 1 rotate no_reflect no_shear #
lump $-1 $-1 $19 $4 #
transform $-1 1 0 0 0 1 0 0 0 1 46.73970763267922 29.895183157947152 11.482461855963129 1 rotate no_reflect no_shear #
shell $-1 $-1 $-1 $20 $-1 $5 #
shell $-1 $-1 $-1 $21 $-1 $7 #
shell $-1 $-1 $-1 $22 $-1 $9 #
shell $-1 $-1 $-1 $23 $-1 $11 #
shell $-1 $-1 $-1 $24 $-1 $13 #
face $-1 $25 $26 $15 $-1 $27 forward single #
face $-1 $28 $29 $16 $-1 $30 reversed single #
face $-1 $31 $32 $17 $-1 $33 forward single #
face $-1 $34 $35 $18 $-1 $36 reversed single #
face $-1 $37 $38 $19 $-1 $39 reversed single #
face $-1 $40 $41 $15 $-1 $42 reversed single #
loop $-1 $-1 $43 $20 #
plane-surface $-1 0 0 11.482461855963129 0 0 1 1 0 0 forward_v I I I I #
face $-1 $44 $45 $16 $-1 $46 forward single #
loop $-1 $-1 $47 $21 #
plane-surface $-1 -40.464905096196873 0 -6.8996395145856884 0 0 1 1 0 0 forward_v I I I I #
face $-1 $48 $49 $17 $-1 $50 forward single #
loop $-1 $-1 $51 $22 #
plane-surface $-1 22.799743204084798 70.377724620700064 104.45576303467388 1 0 0 0 -0.80901700255871778 -0.5877852410284794 forward_v I I I I #
face $-1 $52 $53 $18 $-1 $54 reversed single #
loop $-1 $55 $56 $23 #
cone-surface $-1 25.336568796563604 25.209824440895318 5.6364758687713366 0 -0.80901700255871778 -0.5877852410284794 1 0 0 1 I I 0 1 1 forward I I I I #
face $-1 $57 $58 $19 $-1 $59 reversed single #
loop $-1 $60 $61 $24 #
cone-surface $-1 29.141807185281827 25.209824440895318 5.6364758687713366 0 -0.80901700255871778 -0.5877852410284794 1 0 0 1 I I 0 1 1 forward I I I I #
face $-1 $62 $63 $15 $-1 $64 reversed single #
loop $-1 $-1 $65 $25 #
plane-surface $-1 0 0 -11.482461855963129 0 0 1 1 0 0 forward_v I I I I #
coedge $-1 $66 $67 $68 $69 forward $26 $-1 #
face $-1 $70 $71 $16 $-1 $72 reversed single #
loop $-1 $-1 $73 $28 #
plane-surface $-1 -34.190102559714525 0 -9.1910506852744085 -1 0 0 0 0 1 forward_v I I I I #
coedge $-1 $74 $75 $76 $77 reversed $29 $-1 #
face $-1 $78 $79 $17 $-1 $80 forward single #
loop $-1 $-1 $81 $31 #
plane-surface $-1 27.239187990922723 -5.2487117182218554 49.509942401723862 0 0.80901700255871778 0.5877852410284794 1 0 0 forward_v I I I I #
coedge $-1 $82 $83 $84 $85 reversed $32 $-1 #
face $-1 $86 $87 $18 $-1 $88 forward single #
loop $-1 $89 $90 $34 #
cone-surface $-1 25.336568796563604 23.877614140423439 4.6685684575712205 0 -0.80901700255871778 -0.5877852410284794 0.5 0 0 1 I I -0.70710678118654746 0.70710678118654746 0.5 forward I I I I #
loop $-1 $-1 $91 $23 #
coedge $-1 $56 $56 $92 $93 reversed $35 $-1 #
face $-1 $94 $95 $19 $-1 $96 reversed single #
loop $-1 $97 $98 $37 #
cone-surface $-1 29.141807185281827 23.877614140423439 4.6685684575712205 0 -0.80901700255871778 -0.5877852410284794 0.5 0 0 1 I I -0.70710678118654746 0.70710678118654746 0.5 forward I I I I #
loop $-1 $-1 $99 $24 #
coedge $-1 $61 $61 $100 $101 reversed $38 $-1 #
face $-1 $102 $103 $15 $-1 $104 reversed single #
loop $-1 $-1 $105 $40 #
plane-surface $-1 0 -29.895183157947152 0 0 1 0 0 0 1 forward_v I I I I #
coedge $-1 $106 $107 $108 $109 forward $41 $-1 #
coedge $-1 $110 $43 $111 $112 forward $26 $-1 #
coedge $-1 $43 $110 $113 $114 forward $26 $-1 #
coedge $-1 $115 $116 $43 $69 reversed $117 $-1 #
edge $-1 $118 -29.895183157947152 $119 29.895183157947152 $68 $120 forward 7 unknown #
face $-1 $121 $122 $16 $-1 $123 reversed single #
loop $-1 $-1 $124 $44 #
plane-surface $-1 -46.73970763267922 0 0 1 0 0 0 0 -1 forward_v I I I I #
coedge $-1 $76 $125 $126 $127 reversed $45 $-1 #
coedge $-1 $128 $47 $129 $130 reversed $29 $-1 #
coedge $-1 $47 $128 $131 $132 reversed $29 $-1 #
coedge $-1 $133 $73 $47 $77 forward $45 $-1 #
edge $-1 $134 -29.895183157947152 $135 29.895183157947152 $76 $136 forward 7 unknown #
face $-1 $137 $138 $17 $-1 $139 forward single #
loop $-1 $-1 $140 $48 #
plane-surface $-1 31.678632777760647 70.377724620700064 104.45576303467388 -1 0 0 0 0.80901700255871778 0.5877852410284794 forward_v I I I I #
coedge $-1 $141 $142 $143 $144 reversed $49 $-1 #
coedge $-1 $83 $51 $142 $145 forward $32 $-1 #
coedge $-1 $51 $82 $146 $147 reversed $32 $-1 #
coedge $-1 $148 $143 $51 $85 forward $138 $-1 #
edge $-1 $149 -12.808992988121513 $150 -5.2936791524028806 $84 $151 forward 7 unknown #
face $-1 $152 $153 $18 $-1 $154 forward single #
loop $-1 $-1 $155 $52 #
plane-surface $-1 22.799743204084798 70.377724620700064 104.45576303467388 1 0 0 0 -0.80901700255871778 -0.5877852410284794 forward_v I I I I #
loop $-1 $-1 $156 $34 #
coedge $-1 $90 $90 $91 $157 forward $53 $-1 #
coedge $-1 $91 $91 $90 $157 reversed $55 $-1 #
coedge $-1 $92 $92 $56 $93 forward $153 $-1 #
edge $-1 $158 -8.5339476790408293e-016 $158 6.2831853071795996 $92 $159 forward 7 unknown #
face $-1 $160 $161 $19 $-1 $162 reversed single #
loop $-1 $163 $164 $57 #
cone-surface $-1 25.336568796563604 25.209824440895318 5.6364758687713366 0 -0.80901700255871778 -0.5877852410284794 1 0 0 1 I I 0 1 1 forward I I I I #
loop $-1 $-1 $165 $37 #
coedge $-1 $98 $98 $99 $166 forward $58 $-1 #
coedge $-1 $99 $99 $98 $166 reversed $60 $-1 #
coedge $-1 $100 $100 $61 $101 forward $167 $-1 #
edge $-1 $168 -8.5339476790408293e-016 $168 6.2831853071795996 $100 $169 forward 7 unknown #
face $-1 $170 $171 $15 $-1 $172 reversed single #
loop $-1 $-1 $173 $62 #
plane-surface $-1 -46.73970763267922 0 0 1 0 0 0 0 -1 forward_v I I I I #
coedge $-1 $174 $113 $175 $176 forward $63 $-1 #
coedge $-1 $177 $65 $174 $178 forward $41 $-1 #
coedge $-1 $65 $177 $179 $180 forward $41 $-1 #
coedge $-1 $116 $115 $65 $109 reversed $117 $-1 #
edge $-1 $181 -29.895183157947152 $182 29.895183157947152 $108 $183 forward 7 unknown #
coedge $-1 $67 $66 $184 $185 forward $26 $-1 #
coedge $-1 $186 $187 $66 $112 reversed $171 $-1 #
edge $-1 $119 -46.73970763267922 $188 46.73970763267922 $111 $189 forward 7 unknown #
coedge $-1 $105 $190 $67 $114 reversed $63 $-1 #
edge $-1 $191 -46.73970763267922 $118 46.73970763267922 $113 $192 forward 7 unknown #
coedge $-1 $108 $68 $190 $193 forward $117 $-1 #
coedge $-1 $68 $108 $186 $194 reversed $117 $-1 #
loop $-1 $-1 $115 $170 #
vertex $-1 $69 $195 #
vertex $-1 $69 $196 #
straight-curve $-1 46.73970763267922 0 11.482461855963129 0 1 0 I I #
face $-1 $197 $198 $16 $-1 $199 forward single #
loop $-1 $-1 $129 $70 #
plane-surface $-1 0 -29.895183157947152 0 0 1 0 0 0 1 forward_v I I I I #
coedge $-1 $200 $201 $128 $202 forward $71 $-1 #
coedge $-1 $73 $133 $203 $204 reversed $45 $-1 #
coedge $-1 $205 $129 $73 $127 forward $122 $-1 #
edge $-1 $134 2.3041141719484841 $206 6.8869365133259244 $126 $207 forward 7 unknown #
coedge $-1 $75 $74 $124 $202 reversed $29 $-1 #
coedge $-1 $126 $208 $74 $130 forward $122 $-1 #
edge $-1 $209 -26.507255084580784 $134 -13.957650011616089 $129 $210 forward 7 unknown #
coedge $-1 $211 $212 $75 $132 forward $213 $-1 #
edge $-1 $135 13.957650011616089 $214 26.507255084580784 $131 $215 forward 7 unknown #
coedge $-1 $125 $76 $212 $216 reversed $45 $-1 #
vertex $-1 $130 $217 #
vertex $-1 $132 $218 #
straight-curve $-1 -34.190102559714525 0 -6.8996395145856884 0 1 0 I I #
face $-1 $219 $220 $17 $-1 $221 reversed single #
loop $-1 $-1 $222 $78 #
plane-surface $-1 0 0 11.482461855963129 0 0 1 1 0 0 forward_v I I I I #
coedge $-1 $223 $224 $222 $225 reversed $79 $-1 #
coedge $-1 $226 $81 $224 $227 reversed $49 $-1 #
coedge $-1 $81 $226 $82 $145 reversed $49 $-1 #
coedge $-1 $84 $222 $81 $144 forward $138 $-1 #
edge $-1 $228 -18.059038782299286 $149 -9.1801492086234369 $143 $229 forward 7 unknown #
edge $-1 $149 47.004550492127301 $230 59.790366315894303 $82 $231 forward 7 unknown #
coedge $-1 $232 $233 $83 $147 forward $234 $-1 #
edge $-1 $150 40.745419661373809 $230 51.08936205438561 $146 $235 forward 7 unknown #
coedge $-1 $236 $84 $233 $237 forward $138 $-1 #
vertex $-1 $144 $238 #
vertex $-1 $237 $239 #
straight-curve $-1 22.799743204084798 35.188862310350032 11.48246185596313 0 1 0 I I #
face $-1 $240 $241 $18 $-1 $242 forward single #
loop $-1 $243 $92 $86 #
plane-surface $-1 27.239187990922723 -5.2487117182218554 49.509942401723862 0 0.80901700255871778 0.5877852410284794 1 0 0 forward_v I I I I #
coedge $-1 $244 $245 $246 $247 reversed $87 $-1 #
coedge $-1 $156 $156 $-1 $248 forward $89 $-1 #
edge $-1 $249 0 $249 6.2831853071796004 $90 $250 forward 7 unknown #
vertex $-1 $93 $251 #
ellipse-curve $-1 25.336568796563604 26.137526240087844 6.3104906594572183 0 -0.80901700255871778 -0.5877852410284794 1 0 0 1 I I #
face $-1 $252 $253 $19 $-1 $254 forward single #
loop $-1 $255 $256 $94 #
cone-surface $-1 25.336568796563604 23.877614140423439 4.6685684575712205 0 -0.80901700255871778 -0.5877852410284794 0.5 0 0 1 I I -0.70710678118654746 0.70710678118654746 0.5 forward I I I I #
loop $-1 $-1 $257 $57 #
coedge $-1 $164 $164 $258 $259 reversed $95 $-1 #
coedge $-1 $165 $165 $-1 $260 forward $97 $-1 #
edge $-1 $261 0 $261 6.2831853071796004 $98 $262 forward 7 unknown #
loop $-1 $263 $100 $252 #
vertex $-1 $101 $264 #
ellipse-curve $-1 29.141807185281827 26.137526240087844 6.3104906594572183 0 -0.80901700255871778 -0.5877852410284794 1 0 0 1 I I #
face $-1 $-1 $117 $15 $-1 $265 reversed single #
loop $-1 $-1 $186 $102 #
plane-surface $-1 0 29.895183157947152 0 0 -1 0 0 0 -1 forward_v I I I I #
coedge $-1 $266 $184 $187 $267 forward $103 $-1 #
coedge $-1 $190 $105 $106 $178 reversed $63 $-1 #
coedge $-1 $184 $266 $105 $176 reversed $103 $-1 #
edge $-1 $191 -11.482461855963129 $268 11.482461855963129 $175 $269 forward 7 unknown #
coedge $-1 $107 $106 $266 $270 forward $41 $-1 #
edge $-1 $182 -46.73970763267922 $268 46.73970763267922 $174 $271 forward 7 unknown #
coedge $-1 $187 $186 $107 $180 reversed $171 $-1 #
edge $-1 $272 -46.73970763267922 $181 46.73970763267922 $179 $273 forward 7 unknown #
vertex $-1 $109 $274 #
vertex $-1 $193 $275 #
straight-curve $-1 46.73970763267922 0 -11.482461855963129 0 -1 0 I I #
coedge $-1 $173 $175 $110 $185 reversed $103 $-1 #
edge $-1 $188 -29.895183157947152 $191 29.895183157947152 $184 $276 forward 7 unknown #
coedge $-1 $179 $111 $116 $194 forward $171 $-1 #
coedge $-1 $111 $179 $173 $267 reversed $171 $-1 #
vertex $-1 $112 $277 #
straight-curve $-1 0 29.895183157947152 11.482461855963129 -1 0 0 I I #
coedge $-1 $113 $174 $115 $193 reversed $63 $-1 #
vertex $-1 $185 $278 #
straight-curve $-1 0 -29.895183157947152 11.482461855963129 1 0 0 I I #
edge $-1 $118 -11.482461855963129 $182 11.482461855963129 $115 $279 forward 7 unknown #
edge $-1 $119 -11.482461855963129 $181 11.482461855963129 $116 $280 forward 7 unknown #
point $-1 46.73970763267922 -29.895183157947152 11.482461855963129 #
point $-1 46.73970763267922 29.895183157947152 11.482461855963129 #
face $-1 $281 $282 $16 $-1 $283 reversed single #
loop $-1 $-1 $284 $121 #
plane-surface $-1 0 0 11.482461855963129 0 0 1 1 0 0 forward_v I I I I #
coedge $-1 $285 $124 $208 $286 reversed $71 $-1 #
coedge $-1 $124 $285 $211 $287 forward $71 $-1 #
edge $-1 $214 -29.895183157947152 $209 29.895183157947152 $124 $288 forward 7 unknown #
coedge $-1 $289 $290 $125 $204 forward $282 $-1 #
edge $-1 $206 -29.895183157947152 $291 29.895183157947152 $203 $292 forward 7 unknown #
coedge $-1 $293 $126 $290 $294 reversed $122 $-1 #
vertex $-1 $127 $295 #
straight-curve $-1 -34.190102559714525 -29.895183157947152 -4.5955253426372042 0 0 -1 I I #
coedge $-1 $129 $296 $200 $286 forward $122 $-1 #
vertex $-1 $130 $297 #
straight-curve $-1 -20.232452548098436 -29.895183157947152 -6.8996395145856884 1 0 0 I I #
coedge $-1 $298 $131 $201 $287 reversed $213 $-1 #
coedge $-1 $131 $299 $133 $216 forward $213 $-1 #
loop $-1 $-1 $131 $281 #
vertex $-1 $202 $300 #
straight-curve $-1 -20.232452548098436 29.895183157947152 -6.8996395145856884 -1 0 0 I I #
edge $-1 $291 -6.8869365133259244 $135 -2.3041141719484841 $212 $301 forward 7 unknown #
point $-1 -34.190102559714525 -29.895183157947152 -6.8996395145856884 #
point $-1 -34.190102559714525 29.895183157947152 -6.8996395145856884 #
face $-1 $302 $303 $17 $-1 $304 forward single #
loop $-1 $-1 $305 $137 #
plane-surface $-1 -40.464905096196873 0 -6.8996395145856884 0 0 1 1 0 0 forward_v I I I I #
coedge $-1 $143 $306 $140 $225 forward $138 $-1 #
coedge $-1 $224 $140 $307 $308 reversed $79 $-1 #
coedge $-1 $140 $223 $141 $227 forward $79 $-1 #
edge $-1 $309 5.2936791524028806 $228 12.808992988121513 $222 $310 forward 7 unknown #
coedge $-1 $142 $141 $232 $311 reversed $49 $-1 #
edge $-1 $312 -59.790366315894303 $228 -47.004550492127301 $224 $313 forward 7 unknown #
vertex $-1 $144 $314 #
straight-curve $-1 13.619593995461361 22.379869322228519 11.482461855963134 -1 0 0 I I #
vertex $-1 $311 $315 #
straight-curve $-1 22.799743204084798 -5.2487117182218554 49.509942401723862 0 0.5877852410284794 -0.80901700255871778 I I #
coedge $-1 $307 $146 $226 $311 forward $234 $-1 #
coedge $-1 $146 $316 $148 $237 reversed $234 $-1 #
loop $-1 $-1 $307 $317 #
straight-curve $-1 22.799743204084798 29.895183157947152 52.22788151733694 0 0 -1 I I #
coedge $-1 $318 $148 $319 $320 forward $138 $-1 #
edge $-1 $150 -22.799743204084798 $321 46.73970763267922 $233 $322 forward 7 unknown #
point $-1 22.799743204084798 22.379869322228519 11.48246185596313 #
point $-1 22.799743204084798 29.895183157947152 11.482461855963129 #
face $-1 $323 $324 $18 $-1 $325 forward single #
loop $-1 $-1 $326 $152 #
plane-surface $-1 31.678632777760647 70.377724620700064 104.45576303467388 -1 0 0 0 0.80901700255871778 0.5877852410284794 forward_v I I I I #
loop $-1 $-1 $327 $86 #
coedge $-1 $245 $155 $328 $329 forward $87 $-1 #
coedge $-1 $155 $244 $330 $331 reversed $87 $-1 #
coedge $-1 $332 $333 $155 $247 forward $324 $-1 #
edge $-1 $334 -12.808992988121513 $335 -5.2936791524028806 $246 $336 forward 7 unknown #
edge $-1 $337 1 $337 0 $156 $-1 forward 7 unknown #
vertex $-1 $157 $338 #
ellipse-curve $-1 25.336568796563604 24.282122641702799 4.9624610780854601 0 0.80901700255871778 0.5877852410284794 1 0 0 1 I I #
point $-1 26.336568796563604 26.137526240087837 6.3104906594572121 #
face $-1 $339 $167 $19 $-1 $340 forward single #
loop $-1 $-1 $341 $160 #
plane-surface $-1 22.799743204084798 70.377724620700064 104.45576303467388 1 0 0 0 -0.80901700255871778 -0.5877852410284794 forward_v I I I I #
loop $-1 $-1 $342 $94 #
coedge $-1 $256 $256 $257 $343 forward $161 $-1 #
coedge $-1 $257 $257 $256 $343 reversed $163 $-1 #
coedge $-1 $258 $258 $164 $259 forward $263 $-1 #
edge $-1 $344 -8.5339476790408293e-016 $344 6.2831853071795996 $258 $345 forward 7 unknown #
edge $-1 $346 1 $346 0 $165 $-1 forward 7 unknown #
vertex $-1 $166 $347 #
ellipse-curve $-1 29.141807185281827 24.282122641702799 4.9624610780854601 0 0.80901700255871778 0.5877852410284794 1 0 0 1 I I #
loop $-1 $348 $258 $252 #
point $-1 30.141807185281827 26.137526240087837 6.3104906594572121 #
plane-surface $-1 46.73970763267922 0 0 -1 0 0 0 0 1 forward_v I I I I #
coedge $-1 $175 $173 $177 $270 reversed $103 $-1 #
edge $-1 $188 -11.482461855963129 $272 11.482461855963129 $187 $349 forward 7 unknown #
vertex $-1 $270 $350 #
straight-curve $-1 -46.73970763267922 -29.895183157947152 0 0 0 -1 I I #
edge $-1 $268 -29.895183157947152 $272 29.895183157947152 $266 $351 forward 7 unknown #
straight-curve $-1 0 -29.895183157947152 -11.482461855963129 -1 0 0 I I #
vertex $-1 $180 $352 #
straight-curve $-1 0 29.895183157947152 -11.482461855963129 1 0 0 I I #
point $-1 46.73970763267922 29.895183157947152 -11.482461855963129 #
point $-1 46.73970763267922 -29.895183157947152 -11.482461855963129 #
straight-curve $-1 -46.73970763267922 0 11.482461855963129 0 -1 0 I I #
point $-1 -46.73970763267922 29.895183157947152 11.482461855963129 #
point $-1 -46.73970763267922 -29.895183157947152 11.482461855963129 #
straight-curve $-1 46.73970763267922 -29.895183157947152 0 0 0 -1 I I #
straight-curve $-1 46.73970763267922 29.895183157947152 0 0 0 -1 I I #
face $-1 $353 $213 $16 $-1 $354 reversed single #
loop $-1 $-1 $203 $197 #
plane-surface $-1 0 0 -11.482461855963129 0 0 1 1 0 0 forward_v I I I I #
coedge $-1 $355 $356 $357 $358 forward $198 $-1 #
coedge $-1 $201 $200 $359 $360 reversed $71 $-1 #
edge $-1 $361 -11.482461855963129 $209 6.8996395145856884 $200 $362 forward 7 unknown #
edge $-1 $363 -11.482461855963129 $214 6.8996395145856884 $211 $364 forward 7 unknown #
straight-curve $-1 -46.73970763267922 0 -6.8996395145856884 0 -1 0 I I #
coedge $-1 $365 $203 $299 $366 forward $282 $-1 #
coedge $-1 $203 $365 $205 $294 forward $282 $-1 #
vertex $-1 $366 $367 #
straight-curve $-1 -34.190102559714525 0 -11.482461855963129 0 1 0 I I #
coedge $-1 $296 $205 $368 $369 reversed $122 $-1 #
edge $-1 $370 -46.73970763267922 $206 34.190102559714525 $205 $371 forward 7 unknown #
point $-1 -34.190102559714525 -29.895183157947152 -11.482461855963129 #
coedge $-1 $208 $293 $356 $372 reversed $122 $-1 #
point $-1 -46.73970763267922 -29.895183157947152 -6.8996395145856884 #
coedge $-1 $373 $211 $355 $374 reversed $213 $-1 #
coedge $-1 $212 $373 $289 $366 reversed $213 $-1 #
point $-1 -46.73970763267922 29.895183157947152 -6.8996395145856884 #
straight-curve $-1 -34.190102559714525 29.895183157947152 -4.5955253426372042 0 0 1 I I #
face $-1 $375 $376 $17 $-1 $377 reversed single #
loop $-1 $-1 $378 $219 #
plane-surface $-1 -34.190102559714525 0 -9.1910506852744085 -1 0 0 0 0 1 forward_v I I I I #
coedge $-1 $379 $380 $381 $382 reversed $220 $-1 #
coedge $-1 $222 $383 $384 $385 forward $138 $-1 #
coedge $-1 $384 $232 $223 $308 forward $234 $-1 #
edge $-1 $312 -51.08936205438561 $309 -40.745419661373809 $307 $386 forward 7 unknown #
vertex $-1 $308 $387 #
straight-curve $-1 31.678632777760647 35.188862310350032 11.48246185596313 0 -1 0 I I #
edge $-1 $230 9.1801492086234369 $312 18.059038782299286 $232 $388 forward 7 unknown #
vertex $-1 $311 $389 #
straight-curve $-1 31.678632777760647 -5.2487117182218554 49.509942401723862 0 -0.5877852410284794 0.80901700255871778 I I #
point $-1 31.678632777760647 22.379869322228519 11.48246185596313 #
point $-1 22.799743204084798 29.895183157947152 1.1385194629513293 #
coedge $-1 $233 $390 $391 $392 reversed $234 $-1 #
face $-1 $393 $234 $17 $-1 $394 reversed single #
coedge $-1 $383 $236 $395 $396 forward $138 $-1 #
coedge $-1 $391 $397 $236 $320 reversed $376 $-1 #
edge $-1 $321 -29.895183157947152 $398 29.895183157947152 $319 $399 forward 7 unknown #
vertex $-1 $237 $400 #
straight-curve $-1 0 29.895183157947152 11.482461855963129 -1 0 0 I I #
face $-1 $401 $402 $18 $-1 $403 reversed single #
loop $-1 $-1 $404 $240 #
plane-surface $-1 0 0 11.482461855963129 0 0 1 1 0 0 forward_v I I I I #
coedge $-1 $405 $406 $404 $407 reversed $241 $-1 #
coedge $-1 $408 $328 $333 $409 reversed $243 $-1 #
coedge $-1 $327 $410 $244 $329 reversed $243 $-1 #
edge $-1 $334 47.004550492127301 $411 59.790366315894303 $244 $412 forward 7 unknown #
coedge $-1 $413 $414 $245 $331 forward $415 $-1 #
edge $-1 $335 40.745419661373809 $411 51.08936205438561 $330 $416 forward 7 unknown #
coedge $-1 $417 $246 $414 $418 forward $324 $-1 #
coedge $-1 $246 $404 $327 $409 forward $324 $-1 #
vertex $-1 $409 $419 #
vertex $-1 $418 $420 #
straight-curve $-1 22.799743204084798 35.188862310350032 11.48246185596313 0 1 0 I I #
vertex $-1 $248 $421 #
point $-1 26.336568796563604 24.282122641702799 4.9624610780854601 #
face $-1 $422 $423 $19 $-1 $424 forward single #
plane-surface $-1 27.239187990922723 -5.2487117182218554 49.509942401723862 0 0.80901700255871778 0.5877852410284794 1 0 0 forward_v I I I I #
coedge $-1 $425 $426 $427 $428 reversed $253 $-1 #
coedge $-1 $342 $342 $-1 $429 forward $255 $-1 #
edge $-1 $430 0 $430 6.2831853071796004 $256 $431 forward 7 unknown #
vertex $-1 $259 $432 #
ellipse-curve $-1 25.336568796563604 26.137526240087844 6.3104906594572183 0 -0.80901700255871778 -0.5877852410284794 1 0 0 1 I I #
vertex $-1 $260 $433 #
point $-1 30.141807185281827 24.282122641702799 4.9624610780854601 #
loop $-1 $-1 $434 $252 #
straight-curve $-1 -46.73970763267922 29.895183157947152 0 0 0 -1 I I #
point $-1 -46.73970763267922 -29.895183157947152 -11.482461855963129 #
straight-curve $-1 -46.73970763267922 0 -11.482461855963129 0 1 0 I I #
point $-1 -46.73970763267922 29.895183157947152 -11.482461855963129 #
face $-1 $-1 $435 $16 $-1 $436 reversed single #
plane-surface $-1 0 29.895183157947152 0 0 -1 0 0 0 -1 forward_v I I I I #
coedge $-1 $359 $284 $298 $374 forward $198 $-1 #
coedge $-1 $284 $359 $296 $372 forward $198 $-1 #
coedge $-1 $368 $437 $284 $358 reversed $435 $-1 #
edge $-1 $438 -29.895183157947152 $439 29.895183157947152 $357 $440 forward 7 unknown #
coedge $-1 $356 $355 $285 $360 forward $198 $-1 #
edge $-1 $363 -29.895183157947152 $361 29.895183157947152 $285 $441 forward 7 unknown #
vertex $-1 $360 $442 #
straight-curve $-1 -46.73970763267922 -29.895183157947152 0 0 0 -1 I I #
vertex $-1 $374 $443 #
straight-curve $-1 -46.73970763267922 29.895183157947152 0 0 0 -1 I I #
coedge $-1 $290 $289 $444 $445 forward $282 $-1 #
edge $-1 $291 -34.190102559714525 $446 46.73970763267922 $299 $447 forward 7 unknown #
point $-1 -34.190102559714525 29.895183157947152 -11.482461855963129 #
coedge $-1 $444 $357 $293 $369 forward $435 $-1 #
edge $-1 $438 -11.482461855963129 $370 11.482461855963129 $368 $448 forward 7 unknown #
vertex $-1 $369 $449 #
straight-curve $-1 0 -29.895183157947152 -11.482461855963129 -1 0 0 I I #
edge $-1 $361 -46.73970763267922 $438 46.73970763267922 $296 $450 forward 7 unknown #
coedge $-1 $299 $298 $437 $451 forward $213 $-1 #
edge $-1 $439 -46.73970763267922 $363 46.73970763267922 $298 $452 forward 7 unknown #
face $-1 $453 $454 $17 $-1 $455 reversed single #
loop $-1 $-1 $456 $302 #
plane-surface $-1 -46.73970763267922 0 0 1 0 0 0 0 -1 forward_v I I I I #
coedge $-1 $381 $457 $458 $459 reversed $303 $-1 #
coedge $-1 $460 $305 $461 $462 reversed $220 $-1 #
coedge $-1 $305 $460 $390 $463 reversed $220 $-1 #
coedge $-1 $464 $378 $305 $382 forward $303 $-1 #
edge $-1 $465 -29.895183157947152 $466 29.895183157947152 $381 $467 forward 7 unknown #
coedge $-1 $306 $318 $468 $469 forward $138 $-1 #
coedge $-1 $470 $307 $306 $385 reversed $234 $-1 #
edge $-1 $471 -46.73970763267922 $309 -31.678632777760647 $384 $322 forward 7 unknown #
straight-curve $-1 31.678632777760647 29.895183157947152 52.22788151733694 0 0 1 I I #
point $-1 31.678632777760647 29.895183157947152 11.482461855963129 #
straight-curve $-1 13.619593995461361 29.895183157947152 1.1385194629513293 1 0 0 I I #
point $-1 31.678632777760647 29.895183157947152 1.1385194629513293 #
coedge $-1 $316 $472 $380 $463 forward $234 $-1 #
coedge $-1 $456 $319 $316 $392 forward $376 $-1 #
edge $-1 $321 -11.482461855963129 $473 6.8996395145856884 $316 $474 forward 7 unknown #
face $-1 $-1 $475 $17 $-1 $476 reversed single #
plane-surface $-1 0 29.895183157947152 0 0 -1 0 0 0 -1 forward_v I I I I #
coedge $-1 $477 $478 $318 $396 reversed $454 $-1 #
edge $-1 $398 -46.73970763267922 $479 46.73970763267922 $395 $480 forward 7 unknown #
coedge $-1 $319 $456 $477 $481 reversed $376 $-1 #
vertex $-1 $320 $482 #
straight-curve $-1 -46.73970763267922 0 11.482461855963129 0 -1 0 I I #
point $-1 -46.73970763267922 29.895183157947152 11.482461855963129 #
face $-1 $483 $484 $18 $-1 $485 forward single #
loop $-1 $-1 $486 $323 #
plane-surface $-1 -40.464905096196873 0 -6.8996395145856884 0 0 1 1 0 0 forward_v I I I I #
coedge $-1 $333 $487 $326 $407 forward $324 $-1 #
coedge $-1 $406 $326 $488 $489 reversed $241 $-1 #
coedge $-1 $326 $405 $408 $490 forward $241 $-1 #
edge $-1 $491 5.2936791524028806 $492 12.808992988121513 $404 $493 forward 7 unknown #
coedge $-1 $410 $327 $406 $490 reversed $243 $-1 #
edge $-1 $492 -18.059038782299286 $334 -9.1801492086234369 $333 $494 forward 7 unknown #
coedge $-1 $328 $408 $413 $495 reversed $243 $-1 #
vertex $-1 $495 $496 #
straight-curve $-1 22.799743204084798 -5.2487117182218554 49.509942401723862 0 0.5877852410284794 -0.80901700255871778 I I #
coedge $-1 $488 $330 $410 $495 forward $415 $-1 #
coedge $-1 $330 $497 $332 $418 reversed $415 $-1 #
loop $-1 $-1 $488 $498 #
straight-curve $-1 22.799743204084798 29.895183157947152 52.22788151733694 0 0 -1 I I #
coedge $-1 $499 $332 $500 $501 forward $324 $-1 #
edge $-1 $335 -22.799743204084798 $502 46.73970763267922 $414 $503 forward 7 unknown #
point $-1 22.799743204084798 22.379869322228519 11.48246185596313 #
point $-1 22.799743204084798 29.895183157947152 11.482461855963129 #
point $-1 25.336568796563604 23.47310563914408 4.3746758370569809 #
face $-1 $504 $505 $19 $-1 $506 forward single #
loop $-1 $-1 $507 $339 #
plane-surface $-1 31.678632777760647 70.377724620700064 104.45576303467388 -1 0 0 0 0.80901700255871778 0.5877852410284794 forward_v I I I I #
coedge $-1 $426 $341 $508 $509 forward $253 $-1 #
coedge $-1 $341 $425 $510 $511 reversed $253 $-1 #
coedge $-1 $512 $513 $341 $428 forward $505 $-1 #
edge $-1 $514 -12.808992988121513 $515 -5.2936791524028806 $427 $516 forward 7 unknown #
edge $-1 $517 1 $517 0 $342 $-1 forward 7 unknown #
vertex $-1 $343 $518 #
ellipse-curve $-1 25.336568796563604 24.282122641702799 4.9624610780854601 0 0.80901700255871778 0.5877852410284794 1 0 0 1 I I #
point $-1 26.336568796563604 26.137526240087837 6.3104906594572121 #
point $-1 29.141807185281827 23.47310563914408 4.3746758370569809 #
coedge $-1 $519 $508 $513 $520 reversed $348 $-1 #
loop $-1 $-1 $368 $353 #
plane-surface $-1 46.73970763267922 0 0 -1 0 0 0 0 1 forward_v I I I I #
coedge $-1 $357 $444 $373 $451 reversed $435 $-1 #
vertex $-1 $358 $521 #
vertex $-1 $358 $522 #
straight-curve $-1 46.73970763267922 0 11.482461855963129 0 1 0 I I #
straight-curve $-1 -46.73970763267922 0 11.482461855963129 0 -1 0 I I #
point $-1 -46.73970763267922 -29.895183157947152 11.482461855963129 #
point $-1 -46.73970763267922 29.895183157947152 11.482461855963129 #
coedge $-1 $437 $368 $365 $445 reversed $435 $-1 #
edge $-1 $446 -29.895183157947152 $370 29.895183157947152 $444 $523 forward 7 unknown #
vertex $-1 $445 $524 #
straight-curve $-1 0 29.895183157947152 -11.482461855963129 1 0 0 I I #
straight-curve $-1 46.73970763267922 -29.895183157947152 0 0 0 -1 I I #
point $-1 46.73970763267922 -29.895183157947152 -11.482461855963129 #
straight-curve $-1 0 -29.895183157947152 11.482461855963129 1 0 0 I I #
edge $-1 $439 -11.482461855963129 $446 11.482461855963129 $437 $525 forward 7 unknown #
straight-curve $-1 0 29.895183157947152 11.482461855963129 -1 0 0 I I #
face $-1 $317 $526 $17 $-1 $527 reversed single #
loop $-1 $-1 $461 $375 #
plane-surface $-1 0 -29.895183157947152 0 0 1 0 0 0 1 forward_v I I I I #
coedge $-1 $397 $391 $460 $528 forward $376 $-1 #
coedge $-1 $378 $464 $529 $530 reversed $303 $-1 #
coedge $-1 $531 $461 $378 $459 forward $454 $-1 #
edge $-1 $465 2.3041141719484841 $532 6.8869365133259244 $458 $533 forward 7 unknown #
coedge $-1 $380 $379 $456 $528 reversed $220 $-1 #
coedge $-1 $458 $477 $379 $462 forward $454 $-1 #
edge $-1 $534 -26.507255084580784 $465 -13.957650011616089 $461 $535 forward 7 unknown #
edge $-1 $466 13.957650011616089 $473 26.507255084580784 $390 $536 forward 7 unknown #
coedge $-1 $457 $381 $472 $537 reversed $303 $-1 #
vertex $-1 $462 $538 #
vertex $-1 $463 $539 #
straight-curve $-1 -34.190102559714525 0 -6.8996395145856884 0 1 0 I I #
coedge $-1 $540 $541 $383 $469 reversed $475 $-1 #
edge $-1 $479 -29.895183157947152 $471 29.895183157947152 $468 $542 forward 7 unknown #
coedge $-1 $543 $384 $541 $544 forward $234 $-1 #
vertex $-1 $469 $545 #
coedge $-1 $390 $543 $464 $537 forward $234 $-1 #
vertex $-1 $528 $546 #
straight-curve $-1 -46.73970763267922 29.895183157947152 0 0 0 -1 I I #
loop $-1 $-1 $540 $393 #
plane-surface $-1 46.73970763267922 0 0 -1 0 0 0 0 1 forward_v I I I I #
coedge $-1 $461 $395 $397 $481 forward $454 $-1 #
coedge $-1 $395 $531 $540 $547 reversed $454 $-1 #
vertex $-1 $469 $548 #
straight-curve $-1 0 -29.895183157947152 11.482461855963129 1 0 0 I I #
edge $-1 $398 -11.482461855963129 $534 6.8996395145856884 $397 $549 forward 7 unknown #
point $-1 -46.73970763267922 -29.895183157947152 11.482461855963129 #
face $-1 $550 $551 $18 $-1 $552 reversed single #
loop $-1 $-1 $553 $401 #
plane-surface $-1 -34.190102559714525 0 -9.1910506852744085 -1 0 0 0 0 1 forward_v I I I I #
coedge $-1 $554 $555 $556 $557 reversed $402 $-1 #
coedge $-1 $404 $558 $559 $560 forward $324 $-1 #
coedge $-1 $559 $413 $405 $489 forward $415 $-1 #
edge $-1 $561 -51.08936205438561 $491 -40.745419661373809 $488 $562 forward 7 unknown #
edge $-1 $561 -59.790366315894303 $492 -47.004550492127301 $406 $563 forward 7 unknown #
vertex $-1 $489 $564 #
vertex $-1 $409 $565 #
straight-curve $-1 31.678632777760647 35.188862310350032 11.48246185596313 0 -1 0 I I #
straight-curve $-1 13.619593995461361 22.379869322228519 11.482461855963134 -1 0 0 I I #
edge $-1 $411 9.1801492086234369 $561 18.059038782299286 $413 $566 forward 7 unknown #
point $-1 22.799743204084798 29.895183157947152 1.1385194629513293 #
coedge $-1 $414 $567 $568 $569 reversed $415 $-1 #
face $-1 $570 $415 $18 $-1 $571 reversed single #
coedge $-1 $558 $417 $572 $573 forward $324 $-1 #
coedge $-1 $568 $574 $417 $501 reversed $551 $-1 #
edge $-1 $502 -29.895183157947152 $575 29.895183157947152 $500 $576 forward 7 unknown #
vertex $-1 $418 $577 #
straight-curve $-1 0 29.895183157947152 11.482461855963129 -1 0 0 I I #
face $-1 $578 $579 $19 $-1 $580 reversed single #
loop $-1 $-1 $581 $422 #
plane-surface $-1 0 0 11.482461855963129 0 0 1 1 0 0 forward_v I I I I #
coedge $-1 $582 $583 $581 $584 reversed $423 $-1 #
coedge $-1 $434 $585 $425 $509 reversed $348 $-1 #
edge $-1 $514 47.004550492127301 $586 59.790366315894303 $425 $587 forward 7 unknown #
coedge $-1 $588 $589 $426 $511 forward $590 $-1 #
edge $-1 $515 40.745419661373809 $586 51.08936205438561 $510 $591 forward 7 unknown #
coedge $-1 $592 $427 $589 $593 forward $505 $-1 #
coedge $-1 $427 $581 $434 $520 forward $505 $-1 #
vertex $-1 $520 $594 #
vertex $-1 $593 $595 #
straight-curve $-1 22.799743204084798 35.188862310350032 11.48246185596313 0 1 0 I I #
vertex $-1 $429 $596 #
point $-1 26.336568796563604 24.282122641702799 4.9624610780854601 #
coedge $-1 $585 $434 $583 $597 reversed $348 $-1 #
edge $-1 $598 -18.059038782299286 $514 -9.1801492086234369 $513 $599 forward 7 unknown #
point $-1 46.73970763267922 -29.895183157947152 11.482461855963129 #
point $-1 46.73970763267922 29.895183157947152 11.482461855963129 #
straight-curve $-1 46.73970763267922 0 -11.482461855963129 0 -1 0 I I #
point $-1 46.73970763267922 29.895183157947152 -11.482461855963129 #
straight-curve $-1 46.73970763267922 29.895183157947152 0 0 0 -1 I I #
loop $-1 $-1 $529 $453 #
plane-surface $-1 0 0 -11.482461855963129 0 0 1 1 0 0 forward_v I I I I #
edge $-1 $473 -29.895183157947152 $534 29.895183157947152 $456 $600 forward 7 unknown #
coedge $-1 $601 $602 $457 $530 forward $526 $-1 #
edge $-1 $532 -29.895183157947152 $603 29.895183157947152 $529 $604 forward 7 unknown #
coedge $-1 $478 $458 $602 $605 reversed $454 $-1 #
vertex $-1 $459 $606 #
straight-curve $-1 -34.190102559714525 -29.895183157947152 -4.5955253426372042 0 0 -1 I I #
vertex $-1 $462 $607 #
straight-curve $-1 -20.232452548098436 -29.895183157947152 -6.8996395145856884 1 0 0 I I #
straight-curve $-1 -20.232452548098436 29.895183157947152 -6.8996395145856884 -1 0 0 I I #
edge $-1 $603 -6.8869365133259244 $466 -2.3041141719484841 $472 $608 forward 7 unknown #
point $-1 -34.190102559714525 -29.895183157947152 -6.8996395145856884 #
point $-1 -34.190102559714525 29.895183157947152 -6.8996395145856884 #
coedge $-1 $609 $468 $478 $547 forward $475 $-1 #
coedge $-1 $468 $609 $470 $544 reversed $475 $-1 #
straight-curve $-1 46.73970763267922 0 11.482461855963129 0 1 0 I I #
coedge $-1 $472 $470 $601 $610 reversed $234 $-1 #
edge $-1 $471 -11.482461855963129 $611 11.482461855963129 $541 $612 forward 7 unknown #
point $-1 46.73970763267922 29.895183157947152 11.482461855963129 #
point $-1 -46.73970763267922 29.895183157947152 -6.8996395145856884 #
edge $-1 $479 -11.482461855963129 $613 11.482461855963129 $540 $614 forward 7 unknown #
point $-1 46.73970763267922 -29.895183157947152 11.482461855963129 #
straight-curve $-1 -46.73970763267922 -29.895183157947152 0 0 0 -1 I I #
face $-1 $615 $616 $18 $-1 $617 reversed single #
loop $-1 $-1 $618 $483 #
plane-surface $-1 -46.73970763267922 0 0 1 0 0 0 0 -1 forward_v I I I I #
coedge $-1 $556 $619 $620 $621 reversed $484 $-1 #
coedge $-1 $622 $486 $623 $624 reversed $402 $-1 #
coedge $-1 $486 $622 $567 $625 reversed $402 $-1 #
coedge $-1 $626 $553 $486 $557 forward $484 $-1 #
edge $-1 $627 -29.895183157947152 $628 29.895183157947152 $556 $629 forward 7 unknown #
coedge $-1 $487 $499 $630 $631 forward $324 $-1 #
coedge $-1 $632 $488 $487 $560 reversed $415 $-1 #
edge $-1 $633 -46.73970763267922 $491 -31.678632777760647 $559 $503 forward 7 unknown #
vertex $-1 $495 $634 #
straight-curve $-1 31.678632777760647 29.895183157947152 52.22788151733694 0 0 1 I I #
straight-curve $-1 31.678632777760647 -5.2487117182218554 49.509942401723862 0 -0.5877852410284794 0.80901700255871778 I I #
point $-1 31.678632777760647 29.895183157947152 11.482461855963129 #
point $-1 31.678632777760647 22.379869322228519 11.48246185596313 #
straight-curve $-1 13.619593995461361 29.895183157947152 1.1385194629513293 1 0 0 I I #
coedge $-1 $497 $635 $555 $625 forward $415 $-1 #
coedge $-1 $618 $500 $497 $569 forward $551 $-1 #
edge $-1 $502 -11.482461855963129 $636 6.8996395145856884 $497 $637 forward 7 unknown #
face $-1 $-1 $638 $18 $-1 $639 reversed single #
plane-surface $-1 0 29.895183157947152 0 0 -1 0 0 0 -1 forward_v I I I I #
coedge $-1 $640 $641 $499 $573 reversed $616 $-1 #
edge $-1 $575 -46.73970763267922 $642 46.73970763267922 $572 $643 forward 7 unknown #
coedge $-1 $500 $618 $640 $644 reversed $551 $-1 #
vertex $-1 $501 $645 #
straight-curve $-1 -46.73970763267922 0 11.482461855963129 0 -1 0 I I #
point $-1 -46.73970763267922 29.895183157947152 11.482461855963129 #
face $-1 $646 $647 $19 $-1 $648 forward single #
loop $-1 $-1 $649 $504 #
plane-surface $-1 -40.464905096196873 0 -6.8996395145856884 0 0 1 1 0 0 forward_v I I I I #
coedge $-1 $513 $650 $507 $584 forward $505 $-1 #
coedge $-1 $583 $507 $651 $652 reversed $423 $-1 #
coedge $-1 $507 $582 $519 $597 forward $423 $-1 #
edge $-1 $653 5.2936791524028806 $598 12.808992988121513 $581 $654 forward 7 unknown #
coedge $-1 $508 $519 $588 $655 reversed $348 $-1 #
vertex $-1 $655 $656 #
straight-curve $-1 22.799743204084798 -5.2487117182218554 49.509942401723862 0 0.5877852410284794 -0.80901700255871778 I I #
coedge $-1 $651 $510 $585 $655 forward $590 $-1 #
coedge $-1 $510 $657 $512 $593 reversed $590 $-1 #
loop $-1 $-1 $651 $658 #
straight-curve $-1 22.799743204084798 29.895183157947152 52.22788151733694 0 0 -1 I I #
coedge $-1 $659 $512 $660 $661 forward $505 $-1 #
edge $-1 $515 -22.799743204084798 $662 46.73970763267922 $589 $663 forward 7 unknown #
point $-1 22.799743204084798 22.379869322228519 11.48246185596313 #
point $-1 22.799743204084798 29.895183157947152 11.482461855963129 #
point $-1 25.336568796563604 23.47310563914408 4.3746758370569809 #
edge $-1 $664 -59.790366315894303 $598 -47.004550492127301 $583 $665 forward 7 unknown #
vertex $-1 $520 $666 #
straight-curve $-1 13.619593995461361 22.379869322228519 11.482461855963134 -1 0 0 I I #
straight-curve $-1 -46.73970763267922 0 -6.8996395145856884 0 -1 0 I I #
coedge $-1 $667 $529 $543 $610 forward $526 $-1 #
coedge $-1 $529 $667 $531 $605 forward $526 $-1 #
vertex $-1 $610 $668 #
straight-curve $-1 -34.190102559714525 0 -11.482461855963129 0 1 0 I I #
edge $-1 $613 -46.73970763267922 $532 34.190102559714525 $531 $669 forward 7 unknown #
point $-1 -34.190102559714525 -29.895183157947152 -11.482461855963129 #
point $-1 -46.73970763267922 -29.895183157947152 -6.8996395145856884 #
straight-curve $-1 -34.190102559714525 29.895183157947152 -4.5955253426372042 0 0 1 I I #
coedge $-1 $541 $540 $667 $670 reversed $475 $-1 #
edge $-1 $603 -34.190102559714525 $611 46.73970763267922 $543 $671 forward 7 unknown #
vertex $-1 $670 $672 #
straight-curve $-1 46.73970763267922 29.895183157947152 0 0 0 -1 I I #
vertex $-1 $547 $673 #
straight-curve $-1 46.73970763267922 -29.895183157947152 0 0 0 -1 I I #
face $-1 $498 $674 $18 $-1 $675 reversed single #
loop $-1 $-1 $623 $550 #
plane-surface $-1 0 -29.895183157947152 0 0 1 0 0 0 1 forward_v I I I I #
coedge $-1 $574 $568 $622 $676 forward $551 $-1 #
coedge $-1 $553 $626 $677 $678 reversed $484 $-1 #
coedge $-1 $679 $623 $553 $621 forward $616 $-1 #
edge $-1 $627 2.3041141719484841 $680 6.8869365133259244 $620 $681 forward 7 unknown #
coedge $-1 $555 $554 $618 $676 reversed $402 $-1 #
coedge $-1 $620 $640 $554 $624 forward $616 $-1 #
edge $-1 $682 -26.507255084580784 $627 -13.957650011616089 $623 $683 forward 7 unknown #
edge $-1 $628 13.957650011616089 $636 26.507255084580784 $567 $684 forward 7 unknown #
coedge $-1 $619 $556 $635 $685 reversed $484 $-1 #
vertex $-1 $624 $686 #
vertex $-1 $625 $687 #
straight-curve $-1 -34.190102559714525 0 -6.8996395145856884 0 1 0 I I #
coedge $-1 $688 $689 $558 $631 reversed $638 $-1 #
edge $-1 $642 -29.895183157947152 $633 29.895183157947152 $630 $690 forward 7 unknown #
coedge $-1 $691 $559 $689 $692 forward $415 $-1 #
vertex $-1 $631 $693 #
point $-1 31.678632777760647 29.895183157947152 1.1385194629513293 #
coedge $-1 $567 $691 $626 $685 forward $415 $-1 #
vertex $-1 $676 $694 #
straight-curve $-1 -46.73970763267922 29.895183157947152 0 0 0 -1 I I #
loop $-1 $-1 $688 $570 #
plane-surface $-1 46.73970763267922 0 0 -1 0 0 0 0 1 forward_v I I I I #
coedge $-1 $623 $572 $574 $644 forward $616 $-1 #
coedge $-1 $572 $679 $688 $695 reversed $616 $-1 #
vertex $-1 $631 $696 #
straight-curve $-1 0 -29.895183157947152 11.482461855963129 1 0 0 I I #
edge $-1 $575 -11.482461855963129 $682 6.8996395145856884 $574 $697 forward 7 unknown #
point $-1 -46.73970763267922 -29.895183157947152 11.482461855963129 #
face $-1 $698 $699 $19 $-1 $700 reversed single #
loop $-1 $-1 $701 $578 #
plane-surface $-1 -34.190102559714525 0 -9.1910506852744085 -1 0 0 0 0 1 forward_v I I I I #
coedge $-1 $702 $703 $704 $705 reversed $579 $-1 #
coedge $-1 $581 $706 $707 $708 forward $505 $-1 #
coedge $-1 $707 $588 $582 $652 forward $590 $-1 #
edge $-1 $664 -51.08936205438561 $653 -40.745419661373809 $651 $709 forward 7 unknown #
vertex $-1 $652 $710 #
straight-curve $-1 31.678632777760647 35.188862310350032 11.48246185596313 0 -1 0 I I #
edge $-1 $586 9.1801492086234369 $664 18.059038782299286 $588 $711 forward 7 unknown #
point $-1 22.799743204084798 29.895183157947152 1.1385194629513293 #
coedge $-1 $589 $712 $713 $714 reversed $590 $-1 #
face $-1 $715 $590 $19 $-1 $716 reversed single #
coedge $-1 $706 $592 $717 $718 forward $505 $-1 #
coedge $-1 $713 $719 $592 $661 reversed $699 $-1 #
edge $-1 $662 -29.895183157947152 $720 29.895183157947152 $660 $721 forward 7 unknown #
vertex $-1 $593 $722 #
straight-curve $-1 0 29.895183157947152 11.482461855963129 -1 0 0 I I #
vertex $-1 $655 $723 #
straight-curve $-1 31.678632777760647 -5.2487117182218554 49.509942401723862 0 -0.5877852410284794 0.80901700255871778 I I #
point $-1 31.678632777760647 22.379869322228519 11.48246185596313 #
coedge $-1 $602 $601 $609 $670 forward $526 $-1 #
point $-1 -34.190102559714525 29.895183157947152 -11.482461855963129 #
straight-curve $-1 0 -29.895183157947152 -11.482461855963129 -1 0 0 I I #
edge $-1 $611 -29.895183157947152 $613 29.895183157947152 $609 $724 forward 7 unknown #
straight-curve $-1 0 29.895183157947152 -11.482461855963129 1 0 0 I I #
point $-1 46.73970763267922 29.895183157947152 -11.482461855963129 #
point $-1 46.73970763267922 -29.895183157947152 -11.482461855963129 #
loop $-1 $-1 $677 $615 #
plane-surface $-1 0 0 -11.482461855963129 0 0 1 1 0 0 forward_v I I I I #
edge $-1 $636 -29.895183157947152 $682 29.895183157947152 $618 $725 forward 7 unknown #
coedge $-1 $726 $727 $619 $678 forward $674 $-1 #
edge $-1 $680 -29.895183157947152 $728 29.895183157947152 $677 $729 forward 7 unknown #
coedge $-1 $641 $620 $727 $730 reversed $616 $-1 #
vertex $-1 $621 $731 #
straight-curve $-1 -34.190102559714525 -29.895183157947152 -4.5955253426372042 0 0 -1 I I #
vertex $-1 $624 $732 #
straight-curve $-1 -20.232452548098436 -29.895183157947152 -6.8996395145856884 1 0 0 I I #
straight-curve $-1 -20.232452548098436 29.895183157947152 -6.8996395145856884 -1 0 0 I I #
edge $-1 $728 -6.8869365133259244 $628 -2.3041141719484841 $635 $733 forward 7 unknown #
point $-1 -34.190102559714525 -29.895183157947152 -6.8996395145856884 #
point $-1 -34.190102559714525 29.895183157947152 -6.8996395145856884 #
coedge $-1 $734 $630 $641 $695 forward $638 $-1 #
coedge $-1 $630 $734 $632 $692 reversed $638 $-1 #
straight-curve $-1 46.73970763267922 0 11.482461855963129 0 1 0 I I #
coedge $-1 $635 $632 $726 $735 reversed $415 $-1 #
edge $-1 $633 -11.482461855963129 $736 11.482461855963129 $689 $737 forward 7 unknown #
point $-1 46.73970763267922 29.895183157947152 11.482461855963129 #
point $-1 -46.73970763267922 29.895183157947152 -6.8996395145856884 #
edge $-1 $642 -11.482461855963129 $738 11.482461855963129 $688 $739 forward 7 unknown #
point $-1 46.73970763267922 -29.895183157947152 11.482461855963129 #
straight-curve $-1 -46.73970763267922 -29.895183157947152 0 0 0 -1 I I #
face $-1 $740 $741 $19 $-1 $742 reversed single #
loop $-1 $-1 $743 $646 #
plane-surface $-1 -46.73970763267922 0 0 1 0 0 0 0 -1 forward_v I I I I #
coedge $-1 $704 $744 $745 $746 reversed $647 $-1 #
coedge $-1 $747 $649 $748 $749 reversed $579 $-1 #
coedge $-1 $649 $747 $712 $750 reversed $579 $-1 #
coedge $-1 $751 $701 $649 $705 forward $647 $-1 #
edge $-1 $752 -29.895183157947152 $753 29.895183157947152 $704 $754 forward 7 unknown #
coedge $-1 $650 $659 $755 $756 forward $505 $-1 #
coedge $-1 $757 $651 $650 $708 reversed $590 $-1 #
edge $-1 $758 -46.73970763267922 $653 -31.678632777760647 $707 $663 forward 7 unknown #
straight-curve $-1 31.678632777760647 29.895183157947152 52.22788151733694 0 0 1 I I #
point $-1 31.678632777760647 29.895183157947152 11.482461855963129 #
straight-curve $-1 13.619593995461361 29.895183157947152 1.1385194629513293 1 0 0 I I #
coedge $-1 $657 $759 $703 $750 forward $590 $-1 #
coedge $-1 $743 $660 $657 $714 forward $699 $-1 #
edge $-1 $662 -11.482461855963129 $760 6.8996395145856884 $657 $761 forward 7 unknown #
face $-1 $-1 $762 $19 $-1 $763 reversed single #
plane-surface $-1 0 29.895183157947152 0 0 -1 0 0 0 -1 forward_v I I I I #
coedge $-1 $764 $765 $659 $718 reversed $741 $-1 #
edge $-1 $720 -46.73970763267922 $766 46.73970763267922 $717 $767 forward 7 unknown #
coedge $-1 $660 $743 $764 $768 reversed $699 $-1 #
vertex $-1 $661 $769 #
straight-curve $-1 -46.73970763267922 0 11.482461855963129 0 -1 0 I I #
point $-1 -46.73970763267922 29.895183157947152 11.482461855963129 #
point $-1 31.678632777760647 29.895183157947152 1.1385194629513293 #
straight-curve $-1 46.73970763267922 0 -11.482461855963129 0 -1 0 I I #
straight-curve $-1 -46.73970763267922 0 -6.8996395145856884 0 -1 0 I I #
coedge $-1 $770 $677 $691 $735 forward $674 $-1 #
coedge $-1 $677 $770 $679 $730 forward $674 $-1 #
vertex $-1 $735 $771 #
straight-curve $-1 -34.190102559714525 0 -11.482461855963129 0 1 0 I I #
edge $-1 $738 -46.73970763267922 $680 34.190102559714525 $679 $772 forward 7 unknown #
point $-1 -34.190102559714525 -29.895183157947152 -11.482461855963129 #
point $-1 -46.73970763267922 -29.895183157947152 -6.8996395145856884 #
straight-curve $-1 -34.190102559714525 29.895183157947152 -4.5955253426372042 0 0 1 I I #
coedge $-1 $689 $688 $770 $773 reversed $638 $-1 #
edge $-1 $728 -34.190102559714525 $736 46.73970763267922 $691 $774 forward 7 unknown #
vertex $-1 $773 $775 #
straight-curve $-1 46.73970763267922 29.895183157947152 0 0 0 -1 I I #
vertex $-1 $695 $776 #
straight-curve $-1 46.73970763267922 -29.895183157947152 0 0 0 -1 I I #
face $-1 $658 $777 $19 $-1 $778 reversed single #
loop $-1 $-1 $748 $698 #
plane-surface $-1 0 -29.895183157947152 0 0 1 0 0 0 1 forward_v I I I I #
coedge $-1 $719 $713 $747 $779 forward $699 $-1 #
coedge $-1 $701 $751 $780 $781 reversed $647 $-1 #
coedge $-1 $782 $748 $701 $746 forward $741 $-1 #
edge $-1 $752 2.3041141719484841 $783 6.8869365133259244 $745 $784 forward 7 unknown #
coedge $-1 $703 $702 $743 $779 reversed $579 $-1 #
coedge $-1 $745 $764 $702 $749 forward $741 $-1 #
edge $-1 $785 -26.507255084580784 $752 -13.957650011616089 $748 $786 forward 7 unknown #
edge $-1 $753 13.957650011616089 $760 26.507255084580784 $712 $787 forward 7 unknown #
coedge $-1 $744 $704 $759 $788 reversed $647 $-1 #
vertex $-1 $749 $789 #
vertex $-1 $750 $790 #
straight-curve $-1 -34.190102559714525 0 -6.8996395145856884 0 1 0 I I #
coedge $-1 $791 $792 $706 $756 reversed $762 $-1 #
edge $-1 $766 -29.895183157947152 $758 29.895183157947152 $755 $793 forward 7 unknown #
coedge $-1 $794 $707 $792 $795 forward $590 $-1 #
vertex $-1 $756 $796 #
coedge $-1 $712 $794 $751 $788 forward $590 $-1 #
vertex $-1 $779 $797 #
straight-curve $-1 -46.73970763267922 29.895183157947152 0 0 0 -1 I I #
loop $-1 $-1 $791 $715 #
plane-surface $-1 46.73970763267922 0 0 -1 0 0 0 0 1 forward_v I I I I #
coedge $-1 $748 $717 $719 $768 forward $741 $-1 #
coedge $-1 $717 $782 $791 $798 reversed $741 $-1 #
vertex $-1 $756 $799 #
straight-curve $-1 0 -29.895183157947152 11.482461855963129 1 0 0 I I #
edge $-1 $720 -11.482461855963129 $785 6.8996395145856884 $719 $800 forward 7 unknown #
point $-1 -46.73970763267922 -29.895183157947152 11.482461855963129 #
coedge $-1 $727 $726 $734 $773 forward $674 $-1 #
point $-1 -34.190102559714525 29.895183157947152 -11.482461855963129 #
straight-curve $-1 0 -29.895183157947152 -11.482461855963129 -1 0 0 I I #
edge $-1 $736 -29.895183157947152 $738 29.895183157947152 $734 $801 forward 7 unknown #
straight-curve $-1 0 29.895183157947152 -11.482461855963129 1 0 0 I I #
point $-1 46.73970763267922 29.895183157947152 -11.482461855963129 #
point $-1 46.73970763267922 -29.895183157947152 -11.482461855963129 #
loop $-1 $-1 $780 $740 #
plane-surface $-1 0 0 -11.482461855963129 0 0 1 1 0 0 forward_v I I I I #
edge $-1 $760 -29.895183157947152 $785 29.895183157947152 $743 $802 forward 7 unknown #
coedge $-1 $803 $804 $744 $781 forward $777 $-1 #
edge $-1 $783 -29.895183157947152 $805 29.895183157947152 $780 $806 forward 7 unknown #
coedge $-1 $765 $745 $804 $807 reversed $741 $-1 #
vertex $-1 $746 $808 #
straight-curve $-1 -34.190102559714525 -29.895183157947152 -4.5955253426372042 0 0 -1 I I #
vertex $-1 $749 $809 #
straight-curve $-1 -20.232452548098436 -29.895183157947152 -6.8996395145856884 1 0 0 I I #
straight-curve $-1 -20.232452548098436 29.895183157947152 -6.8996395145856884 -1 0 0 I I #
edge $-1 $805 -6.8869365133259244 $753 -2.3041141719484841 $759 $810 forward 7 unknown #
point $-1 -34.190102559714525 -29.895183157947152 -6.8996395145856884 #
point $-1 -34.190102559714525 29.895183157947152 -6.8996395145856884 #
coedge $-1 $811 $755 $765 $798 forward $762 $-1 #
coedge $-1 $755 $811 $757 $795 reversed $762 $-1 #
straight-curve $-1 46.73970763267922 0 11.482461855963129 0 1 0 I I #
coedge $-1 $759 $757 $803 $812 reversed $590 $-1 #
edge $-1 $758 -11.482461855963129 $813 11.482461855963129 $792 $814 forward 7 unknown #
point $-1 46.73970763267922 29.895183157947152 11.482461855963129 #
point $-1 -46.73970763267922 29.895183157947152 -6.8996395145856884 #
edge $-1 $766 -11.482461855963129 $815 11.482461855963129 $791 $816 forward 7 unknown #
point $-1 46.73970763267922 -29.895183157947152 11.482461855963129 #
straight-curve $-1 -46.73970763267922 -29.895183157947152 0 0 0 -1 I I #
straight-curve $-1 46.73970763267922 0 -11.482461855963129 0 -1 0 I I #
straight-curve $-1 -46.73970763267922 0 -6.8996395145856884 0 -1 0 I I #
coedge $-1 $817 $780 $794 $812 forward $777 $-1 #
coedge $-1 $780 $817 $782 $807 forward $777 $-1 #
vertex $-1 $812 $818 #
straight-curve $-1 -34.190102559714525 0 -11.482461855963129 0 1 0 I I #
edge $-1 $815 -46.73970763267922 $783 34.190102559714525 $782 $819 forward 7 unknown #
point $-1 -34.190102559714525 -29.895183157947152 -11.482461855963129 #
point $-1 -46.73970763267922 -29.895183157947152 -6.8996395145856884 #
straight-curve $-1 -34.190102559714525 29.895183157947152 -4.5955253426372042 0 0 1 I I #
coedge $-1 $792 $791 $817 $820 reversed $762 $-1 #
edge $-1 $805 -34.190102559714525 $813 46.73970763267922 $794 $821 forward 7 unknown #
vertex $-1 $820 $822 #
straight-curve $-1 46.73970763267922 29.895183157947152 0 0 0 -1 I I #
vertex $-1 $798 $823 #
straight-curve $-1 46.73970763267922 -29.895183157947152 0 0 0 -1 I I #
coedge $-1 $804 $803 $811 $820 forward $777 $-1 #
point $-1 -34.190102559714525 29.895183157947152 -11.482461855963129 #
straight-curve $-1 0 -29.895183157947152 -11.482461855963129 -1 0 0 I I #
edge $-1 $813 -29.895183157947152 $815 29.895183157947152 $811 $824 forward 7 unknown #
straight-curve $-1 0 29.895183157947152 -11.482461855963129 1 0 0 I I #
point $-1 46.73970763267922 29.895183157947152 -11.482461855963129 #
point $-1 46.73970763267922 -29.895183157947152 -11.482461855963129 #
straight-curve $-1 46.73970763267922 0 -11.482461855963129 0 -1 0 I I #
End-of-ACIS-data 